<?xml version="1.0" encoding="UTF-8" standalone="no"?>
<svg xmlns:ffdec="https://www.free-decompiler.com/flash" xmlns:xlink="http://www.w3.org/1999/xlink" ffdec:objectType="morphshape" height="205.0px" width="358.0px" xmlns="http://www.w3.org/2000/svg">
  <g transform="matrix(1.0, 0.0, 0.0, 1.0, 447.95, 157.05)">
    <path d="M-447.95 -12.55 Q-447.95 12.5 -430.25 30.2 -412.5 47.95 -387.45 47.95 -362.4 47.95 -344.7 30.2 -326.95 12.5 -326.95 -12.55 -326.95 -37.6 -344.7 -55.35 -362.4 -73.05 -387.45 -73.05 -412.5 -73.05 -430.25 -55.35 -447.95 -37.6 -447.95 -12.55" fill="#ffffcc" fill-opacity="0.09019608" fill-rule="evenodd" stroke="none">
      <animate attributeName="fill" dur="2s" repeatCount="indefinite" values="#ffffcc;#ffffcd"/>
      <animate attributeName="fill-opacity" dur="2s" repeatCount="indefinite" values="0.09019608;0.08627451"/>
      <animate attributeName="d" dur="2s" repeatCount="indefinite" values="M-447.95 -12.55 Q-447.95 12.5 -430.25 30.2 -412.5 47.95 -387.45 47.95 -362.4 47.95 -344.7 30.2 -326.95 12.5 -326.95 -12.55 -326.95 -37.6 -344.7 -55.35 -362.4 -73.05 -387.45 -73.05 -412.5 -73.05 -430.25 -55.35 -447.95 -37.6 -447.95 -12.55;M-210.95 -96.55 Q-210.95 -71.5 -193.25 -53.8 -175.5 -36.05 -150.45 -36.05 -125.4 -36.05 -107.7 -53.8 -89.95 -71.5 -89.95 -96.55 -89.95 -121.6 -107.7 -139.35 -125.4 -157.05 -150.45 -157.05 -175.5 -157.05 -193.25 -139.35 -210.95 -121.6 -210.95 -96.55"/>
    </path>
    <path d="M-447.95 -12.55 Q-447.95 -37.6 -430.25 -55.35 -412.5 -73.05 -387.45 -73.05 -362.4 -73.05 -344.7 -55.35 -326.95 -37.6 -326.95 -12.55 -326.95 12.5 -344.7 30.2 -362.4 47.95 -387.45 47.95 -412.5 47.95 -430.25 30.2 -447.95 12.5 -447.95 -12.55 Z" fill="none" stroke="#000000" stroke-linecap="round" stroke-linejoin="round" stroke-opacity="0.0" stroke-width="0.0">
      <animate attributeName="stroke" dur="2s" repeatCount="indefinite" values="#000000;#000001"/>
      <animate attributeName="stroke-width" dur="2s" repeatCount="indefinite" values="0.0;0.0"/>
      <animate attributeName="fill-opacity" dur="2s" repeatCount="indefinite" values="0.0;0.0"/>
      <animate attributeName="d" dur="2s" repeatCount="indefinite" values="M-447.95 -12.55 Q-447.95 -37.6 -430.25 -55.35 -412.5 -73.05 -387.45 -73.05 -362.4 -73.05 -344.7 -55.35 -326.95 -37.6 -326.95 -12.55 -326.95 12.5 -344.7 30.2 -362.4 47.95 -387.45 47.95 -412.5 47.95 -430.25 30.2 -447.95 12.5 -447.95 -12.55 Z;M-210.95 -96.55 Q-210.95 -121.6 -193.25 -139.35 -175.5 -157.05 -150.45 -157.05 -125.4 -157.05 -107.7 -139.35 -89.95 -121.6 -89.95 -96.55 -89.95 -71.5 -107.7 -53.8 -125.4 -36.05 -150.45 -36.05 -175.5 -36.05 -193.25 -53.8 -210.95 -71.5 -210.95 -96.55 Z"/>
    </path>
  </g>
</svg>
