<?xml version="1.0" encoding="UTF-8" standalone="no"?>
<svg xmlns:ffdec="https://www.free-decompiler.com/flash" xmlns:xlink="http://www.w3.org/1999/xlink" ffdec:objectType="morphshape" height="243.95px" width="365.0px" xmlns="http://www.w3.org/2000/svg">
  <g transform="matrix(1.0, 0.0, 0.0, 1.0, -80.0, 143.05)">
    <path d="M324.0 -82.55 Q324.0 -57.5 341.7 -39.8 359.45 -22.05 384.5 -22.05 409.55 -22.05 427.25 -39.8 445.0 -57.5 445.0 -82.55 445.0 -107.6 427.25 -125.35 409.55 -143.05 384.5 -143.05 359.45 -143.05 341.7 -125.35 324.0 -107.6 324.0 -82.55" fill="#ffffcc" fill-opacity="0.08627451" fill-rule="evenodd" stroke="none">
      <animate attributeName="fill" dur="2s" repeatCount="indefinite" values="#ffffcc;#ffffcd"/>
      <animate attributeName="fill-opacity" dur="2s" repeatCount="indefinite" values="0.08627451;0.08627451"/>
      <animate attributeName="d" dur="2s" repeatCount="indefinite" values="M324.0 -82.55 Q324.0 -57.5 341.7 -39.8 359.45 -22.05 384.5 -22.05 409.55 -22.05 427.25 -39.8 445.0 -57.5 445.0 -82.55 445.0 -107.6 427.25 -125.35 409.55 -143.05 384.5 -143.05 359.45 -143.05 341.7 -125.35 324.0 -107.6 324.0 -82.55;M80.0 40.4 Q80.0 65.45 97.7 83.15 115.45 100.9 140.5 100.9 165.55 100.9 183.25 83.15 201.0 65.45 201.0 40.4 201.0 15.35 183.25 -2.4 165.55 -20.1 140.5 -20.1 115.45 -20.1 97.7 -2.4 80.0 15.35 80.0 40.4"/>
    </path>
    <path d="M324.0 -82.55 Q324.0 -107.6 341.7 -125.35 359.45 -143.05 384.5 -143.05 409.55 -143.05 427.25 -125.35 445.0 -107.6 445.0 -82.55 445.0 -57.5 427.25 -39.8 409.55 -22.05 384.5 -22.05 359.45 -22.05 341.7 -39.8 324.0 -57.5 324.0 -82.55 Z" fill="none" stroke="#000000" stroke-linecap="round" stroke-linejoin="round" stroke-opacity="0.0" stroke-width="0.0">
      <animate attributeName="stroke" dur="2s" repeatCount="indefinite" values="#000000;#000001"/>
      <animate attributeName="stroke-width" dur="2s" repeatCount="indefinite" values="0.0;0.0"/>
      <animate attributeName="fill-opacity" dur="2s" repeatCount="indefinite" values="0.0;0.0"/>
      <animate attributeName="d" dur="2s" repeatCount="indefinite" values="M324.0 -82.55 Q324.0 -107.6 341.7 -125.35 359.45 -143.05 384.5 -143.05 409.55 -143.05 427.25 -125.35 445.0 -107.6 445.0 -82.55 445.0 -57.5 427.25 -39.8 409.55 -22.05 384.5 -22.05 359.45 -22.05 341.7 -39.8 324.0 -57.5 324.0 -82.55 Z;M80.0 40.4 Q80.0 15.35 97.7 -2.4 115.45 -20.1 140.5 -20.1 165.55 -20.1 183.25 -2.4 201.0 15.35 201.0 40.4 201.0 65.45 183.25 83.15 165.55 100.9 140.5 100.9 115.45 100.9 97.7 83.15 80.0 65.45 80.0 40.4 Z"/>
    </path>
  </g>
</svg>
