<?xml version="1.0" encoding="UTF-8" standalone="no"?>
<svg xmlns:ffdec="https://www.free-decompiler.com/flash" xmlns:xlink="http://www.w3.org/1999/xlink" ffdec:objectType="morphshape" height="124.2px" width="177.0px" xmlns="http://www.w3.org/2000/svg">
  <g transform="matrix(1.0, 0.0, 0.0, 1.0, 210.95, 157.05)">
    <path d="M-210.95 -96.55 Q-210.95 -71.5 -193.25 -53.8 -175.5 -36.05 -150.45 -36.05 -125.4 -36.05 -107.7 -53.8 -89.95 -71.5 -89.95 -96.55 -89.95 -121.6 -107.7 -139.35 -125.4 -157.05 -150.45 -157.05 -175.5 -157.05 -193.25 -139.35 -210.95 -121.6 -210.95 -96.55" fill="#ffffcc" fill-opacity="0.08627451" fill-rule="evenodd" stroke="none">
      <animate attributeName="fill" dur="2s" repeatCount="indefinite" values="#ffffcc;#ffffcd"/>
      <animate attributeName="fill-opacity" dur="2s" repeatCount="indefinite" values="0.08627451;0.08627451"/>
      <animate attributeName="d" dur="2s" repeatCount="indefinite" values="M-210.95 -96.55 Q-210.95 -71.5 -193.25 -53.8 -175.5 -36.05 -150.45 -36.05 -125.4 -36.05 -107.7 -53.8 -89.95 -71.5 -89.95 -96.55 -89.95 -121.6 -107.7 -139.35 -125.4 -157.05 -150.45 -157.05 -175.5 -157.05 -193.25 -139.35 -210.95 -121.6 -210.95 -96.55;M-154.95 -93.35 Q-154.95 -68.3 -137.25 -50.6 -119.5 -32.85 -94.45 -32.85 -69.4 -32.85 -51.7 -50.6 -33.95 -68.3 -33.95 -93.35 -33.95 -118.4 -51.7 -136.15 -69.4 -153.85 -94.45 -153.85 -119.5 -153.85 -137.25 -136.15 -154.95 -118.4 -154.95 -93.35"/>
    </path>
    <path d="M-210.95 -96.55 Q-210.95 -121.6 -193.25 -139.35 -175.5 -157.05 -150.45 -157.05 -125.4 -157.05 -107.7 -139.35 -89.95 -121.6 -89.95 -96.55 -89.95 -71.5 -107.7 -53.8 -125.4 -36.05 -150.45 -36.05 -175.5 -36.05 -193.25 -53.8 -210.95 -71.5 -210.95 -96.55 Z" fill="none" stroke="#000000" stroke-linecap="round" stroke-linejoin="round" stroke-opacity="0.0" stroke-width="0.0">
      <animate attributeName="stroke" dur="2s" repeatCount="indefinite" values="#000000;#000001"/>
      <animate attributeName="stroke-width" dur="2s" repeatCount="indefinite" values="0.0;0.0"/>
      <animate attributeName="fill-opacity" dur="2s" repeatCount="indefinite" values="0.0;0.0"/>
      <animate attributeName="d" dur="2s" repeatCount="indefinite" values="M-210.95 -96.55 Q-210.95 -121.6 -193.25 -139.35 -175.5 -157.05 -150.45 -157.05 -125.4 -157.05 -107.7 -139.35 -89.95 -121.6 -89.95 -96.55 -89.95 -71.5 -107.7 -53.8 -125.4 -36.05 -150.45 -36.05 -175.5 -36.05 -193.25 -53.8 -210.95 -71.5 -210.95 -96.55 Z;M-154.95 -93.35 Q-154.95 -118.4 -137.25 -136.15 -119.5 -153.85 -94.45 -153.85 -69.4 -153.85 -51.7 -136.15 -33.95 -118.4 -33.95 -93.35 -33.95 -68.3 -51.7 -50.6 -69.4 -32.85 -94.45 -32.85 -119.5 -32.85 -137.25 -50.6 -154.95 -68.3 -154.95 -93.35 Z"/>
    </path>
  </g>
</svg>
