<?xml version="1.0" encoding="UTF-8" standalone="no"?>
<svg xmlns:ffdec="https://www.free-decompiler.com/flash" xmlns:xlink="http://www.w3.org/1999/xlink" ffdec:objectType="morphshape" height="146.0px" width="284.0px" xmlns="http://www.w3.org/2000/svg">
  <g transform="matrix(1.0, 0.0, 0.0, 1.0, 83.0, 20.1)">
    <path d="M80.0 40.4 Q80.0 65.45 97.7 83.15 115.45 100.9 140.5 100.9 165.55 100.9 183.25 83.15 201.0 65.45 201.0 40.4 201.0 15.35 183.25 -2.4 165.55 -20.1 140.5 -20.1 115.45 -20.1 97.7 -2.4 80.0 15.35 80.0 40.4" fill="#ffffcc" fill-opacity="0.08627451" fill-rule="evenodd" stroke="none">
      <animate attributeName="fill" dur="2s" repeatCount="indefinite" values="#ffffcc;#ffffcd"/>
      <animate attributeName="fill-opacity" dur="2s" repeatCount="indefinite" values="0.08627451;0.08627451"/>
      <animate attributeName="d" dur="2s" repeatCount="indefinite" values="M80.0 40.4 Q80.0 65.45 97.7 83.15 115.45 100.9 140.5 100.9 165.55 100.9 183.25 83.15 201.0 65.45 201.0 40.4 201.0 15.35 183.25 -2.4 165.55 -20.1 140.5 -20.1 115.45 -20.1 97.7 -2.4 80.0 15.35 80.0 40.4;M-83.0 65.4 Q-83.0 90.45 -65.3 108.15 -47.55 125.9 -22.5 125.9 2.55 125.9 20.25 108.15 38.0 90.45 38.0 65.4 38.0 40.35 20.25 22.6 2.55 4.9 -22.5 4.9 -47.55 4.9 -65.3 22.6 -83.0 40.35 -83.0 65.4"/>
    </path>
    <path d="M80.0 40.4 Q80.0 15.35 97.7 -2.4 115.45 -20.1 140.5 -20.1 165.55 -20.1 183.25 -2.4 201.0 15.35 201.0 40.4 201.0 65.45 183.25 83.15 165.55 100.9 140.5 100.9 115.45 100.9 97.7 83.15 80.0 65.45 80.0 40.4 Z" fill="none" stroke="#000000" stroke-linecap="round" stroke-linejoin="round" stroke-opacity="0.0" stroke-width="0.0">
      <animate attributeName="stroke" dur="2s" repeatCount="indefinite" values="#000000;#000001"/>
      <animate attributeName="stroke-width" dur="2s" repeatCount="indefinite" values="0.0;0.0"/>
      <animate attributeName="fill-opacity" dur="2s" repeatCount="indefinite" values="0.0;0.0"/>
      <animate attributeName="d" dur="2s" repeatCount="indefinite" values="M80.0 40.4 Q80.0 15.35 97.7 -2.4 115.45 -20.1 140.5 -20.1 165.55 -20.1 183.25 -2.4 201.0 15.35 201.0 40.4 201.0 65.45 183.25 83.15 165.55 100.9 140.5 100.9 115.45 100.9 97.7 83.15 80.0 65.45 80.0 40.4 Z;M-83.0 65.4 Q-83.0 40.35 -65.3 22.6 -47.55 4.9 -22.5 4.9 2.55 4.9 20.25 22.6 38.0 40.35 38.0 65.4 38.0 90.45 20.25 108.15 2.55 125.9 -22.5 125.9 -47.55 125.9 -65.3 108.15 -83.0 90.45 -83.0 65.4 Z"/>
    </path>
  </g>
</svg>
