<?xml version="1.0" encoding="UTF-8" standalone="no"?>
<svg xmlns:ffdec="https://www.free-decompiler.com/flash" xmlns:xlink="http://www.w3.org/1999/xlink" ffdec:objectType="morphshape" height="161.35px" width="176.2px" xmlns="http://www.w3.org/2000/svg">
  <g transform="matrix(1.0, 0.0, 0.0, 1.0, 43.0, -1.55)">
    <path d="M12.2 62.05 Q12.2 87.1 29.9 104.8 47.65 122.55 72.7 122.55 97.75 122.55 115.45 104.8 133.2 87.1 133.2 62.05 133.2 37.0 115.45 19.25 97.75 1.55 72.7 1.55 47.65 1.55 29.9 19.25 12.2 37.0 12.2 62.05" fill="#ffffcc" fill-opacity="0.08627451" fill-rule="evenodd" stroke="none">
      <animate attributeName="fill" dur="2s" repeatCount="indefinite" values="#ffffcc;#ffffcd"/>
      <animate attributeName="fill-opacity" dur="2s" repeatCount="indefinite" values="0.08627451;0.08627451"/>
      <animate attributeName="d" dur="2s" repeatCount="indefinite" values="M12.2 62.05 Q12.2 87.1 29.9 104.8 47.65 122.55 72.7 122.55 97.75 122.55 115.45 104.8 133.2 87.1 133.2 62.05 133.2 37.0 115.45 19.25 97.75 1.55 72.7 1.55 47.65 1.55 29.9 19.25 12.2 37.0 12.2 62.05;M-43.0 102.4 Q-43.0 127.45 -25.3 145.15 -7.55 162.9 17.5 162.9 42.55 162.9 60.25 145.15 78.0 127.45 78.0 102.4 78.0 77.35 60.25 59.6 42.55 41.9 17.5 41.9 -7.55 41.9 -25.3 59.6 -43.0 77.35 -43.0 102.4"/>
    </path>
    <path d="M12.2 62.05 Q12.2 37.0 29.9 19.25 47.65 1.55 72.7 1.55 97.75 1.55 115.45 19.25 133.2 37.0 133.2 62.05 133.2 87.1 115.45 104.8 97.75 122.55 72.7 122.55 47.65 122.55 29.9 104.8 12.2 87.1 12.2 62.05 Z" fill="none" stroke="#000000" stroke-linecap="round" stroke-linejoin="round" stroke-opacity="0.0" stroke-width="0.0">
      <animate attributeName="stroke" dur="2s" repeatCount="indefinite" values="#000000;#000001"/>
      <animate attributeName="stroke-width" dur="2s" repeatCount="indefinite" values="0.0;0.0"/>
      <animate attributeName="fill-opacity" dur="2s" repeatCount="indefinite" values="0.0;0.0"/>
      <animate attributeName="d" dur="2s" repeatCount="indefinite" values="M12.2 62.05 Q12.2 37.0 29.9 19.25 47.65 1.55 72.7 1.55 97.75 1.55 115.45 19.25 133.2 37.0 133.2 62.05 133.2 87.1 115.45 104.8 97.75 122.55 72.7 122.55 47.65 122.55 29.9 104.8 12.2 87.1 12.2 62.05 Z;M-43.0 102.4 Q-43.0 77.35 -25.3 59.6 -7.55 41.9 17.5 41.9 42.55 41.9 60.25 59.6 78.0 77.35 78.0 102.4 78.0 127.45 60.25 145.15 42.55 162.9 17.5 162.9 -7.55 162.9 -25.3 145.15 -43.0 127.45 -43.0 102.4 Z"/>
    </path>
  </g>
</svg>
