<?xml version="1.0" encoding="UTF-8" standalone="no"?>
<svg xmlns:ffdec="https://www.free-decompiler.com/flash" xmlns:xlink="http://www.w3.org/1999/xlink" ffdec:objectType="morphshape" height="166.45px" width="134.25px" xmlns="http://www.w3.org/2000/svg">
  <g transform="matrix(1.0, 0.0, 0.0, 1.0, 225.95, 131.5)">
    <path d="M-225.95 -25.55 Q-225.95 -0.5 -208.25 17.2 -190.5 34.95 -165.45 34.95 -140.4 34.95 -122.7 17.2 -104.95 -0.5 -104.95 -25.55 -104.95 -50.6 -122.7 -68.35 -140.4 -86.05 -165.45 -86.05 -190.5 -86.05 -208.25 -68.35 -225.95 -50.6 -225.95 -25.55" fill="#ffffcc" fill-opacity="0.08627451" fill-rule="evenodd" stroke="none">
      <animate attributeName="fill" dur="2s" repeatCount="indefinite" values="#ffffcc;#ffffcd"/>
      <animate attributeName="fill-opacity" dur="2s" repeatCount="indefinite" values="0.08627451;0.08627451"/>
      <animate attributeName="d" dur="2s" repeatCount="indefinite" values="M-225.95 -25.55 Q-225.95 -0.5 -208.25 17.2 -190.5 34.95 -165.45 34.95 -140.4 34.95 -122.7 17.2 -104.95 -0.5 -104.95 -25.55 -104.95 -50.6 -122.7 -68.35 -140.4 -86.05 -165.45 -86.05 -190.5 -86.05 -208.25 -68.35 -225.95 -50.6 -225.95 -25.55;M-212.7 -71.0 Q-212.7 -45.95 -195.0 -28.25 -177.25 -10.5 -152.2 -10.5 -127.15 -10.5 -109.45 -28.25 -91.7 -45.95 -91.7 -71.0 -91.7 -96.05 -109.45 -113.8 -127.15 -131.5 -152.2 -131.5 -177.25 -131.5 -195.0 -113.8 -212.7 -96.05 -212.7 -71.0"/>
    </path>
    <path d="M-225.95 -25.55 Q-225.95 -50.6 -208.25 -68.35 -190.5 -86.05 -165.45 -86.05 -140.4 -86.05 -122.7 -68.35 -104.95 -50.6 -104.95 -25.55 -104.95 -0.5 -122.7 17.2 -140.4 34.95 -165.45 34.95 -190.5 34.95 -208.25 17.2 -225.95 -0.5 -225.95 -25.55 Z" fill="none" stroke="#000000" stroke-linecap="round" stroke-linejoin="round" stroke-opacity="0.0" stroke-width="0.0">
      <animate attributeName="stroke" dur="2s" repeatCount="indefinite" values="#000000;#000001"/>
      <animate attributeName="stroke-width" dur="2s" repeatCount="indefinite" values="0.0;0.0"/>
      <animate attributeName="fill-opacity" dur="2s" repeatCount="indefinite" values="0.0;0.0"/>
      <animate attributeName="d" dur="2s" repeatCount="indefinite" values="M-225.95 -25.55 Q-225.95 -50.6 -208.25 -68.35 -190.5 -86.05 -165.45 -86.05 -140.4 -86.05 -122.7 -68.35 -104.95 -50.6 -104.95 -25.55 -104.95 -0.5 -122.7 17.2 -140.4 34.95 -165.45 34.95 -190.5 34.95 -208.25 17.2 -225.95 -0.5 -225.95 -25.55 Z;M-212.7 -71.0 Q-212.7 -96.05 -195.0 -113.8 -177.25 -131.5 -152.2 -131.5 -127.15 -131.5 -109.45 -113.8 -91.7 -96.05 -91.7 -71.0 -91.7 -45.95 -109.45 -28.25 -127.15 -10.5 -152.2 -10.5 -177.25 -10.5 -195.0 -28.25 -212.7 -45.95 -212.7 -71.0 Z"/>
    </path>
  </g>
</svg>
