<?xml version="1.0" encoding="UTF-8" standalone="no"?>
<svg xmlns:ffdec="https://www.free-decompiler.com/flash" xmlns:xlink="http://www.w3.org/1999/xlink" ffdec:objectType="morphshape" height="146.55px" width="173.7px" xmlns="http://www.w3.org/2000/svg">
  <g transform="matrix(1.0, 0.0, 0.0, 1.0, 212.7, 157.05)">
    <path d="M-212.7 -71.0 Q-212.7 -45.95 -195.0 -28.25 -177.25 -10.5 -152.2 -10.5 -127.15 -10.5 -109.45 -28.25 -91.7 -45.95 -91.7 -71.0 -91.7 -96.05 -109.45 -113.8 -127.15 -131.5 -152.2 -131.5 -177.25 -131.5 -195.0 -113.8 -212.7 -96.05 -212.7 -71.0" fill="#ffffcc" fill-opacity="0.08627451" fill-rule="evenodd" stroke="none">
      <animate attributeName="fill" dur="2s" repeatCount="indefinite" values="#ffffcc;#ffffcd"/>
      <animate attributeName="fill-opacity" dur="2s" repeatCount="indefinite" values="0.08627451;0.08627451"/>
      <animate attributeName="d" dur="2s" repeatCount="indefinite" values="M-212.7 -71.0 Q-212.7 -45.95 -195.0 -28.25 -177.25 -10.5 -152.2 -10.5 -127.15 -10.5 -109.45 -28.25 -91.7 -45.95 -91.7 -71.0 -91.7 -96.05 -109.45 -113.8 -127.15 -131.5 -152.2 -131.5 -177.25 -131.5 -195.0 -113.8 -212.7 -96.05 -212.7 -71.0;M-160.0 -96.55 Q-160.0 -71.5 -142.3 -53.8 -124.55 -36.05 -99.5 -36.05 -74.45 -36.05 -56.75 -53.8 -39.0 -71.5 -39.0 -96.55 -39.0 -121.6 -56.75 -139.35 -74.45 -157.05 -99.5 -157.05 -124.55 -157.05 -142.3 -139.35 -160.0 -121.6 -160.0 -96.55"/>
    </path>
    <path d="M-212.7 -71.0 Q-212.7 -96.05 -195.0 -113.8 -177.25 -131.5 -152.2 -131.5 -127.15 -131.5 -109.45 -113.8 -91.7 -96.05 -91.7 -71.0 -91.7 -45.95 -109.45 -28.25 -127.15 -10.5 -152.2 -10.5 -177.25 -10.5 -195.0 -28.25 -212.7 -45.95 -212.7 -71.0 Z" fill="none" stroke="#000000" stroke-linecap="round" stroke-linejoin="round" stroke-opacity="0.0" stroke-width="0.0">
      <animate attributeName="stroke" dur="2s" repeatCount="indefinite" values="#000000;#000001"/>
      <animate attributeName="stroke-width" dur="2s" repeatCount="indefinite" values="0.0;0.0"/>
      <animate attributeName="fill-opacity" dur="2s" repeatCount="indefinite" values="0.0;0.0"/>
      <animate attributeName="d" dur="2s" repeatCount="indefinite" values="M-212.7 -71.0 Q-212.7 -96.05 -195.0 -113.8 -177.25 -131.5 -152.2 -131.5 -127.15 -131.5 -109.45 -113.8 -91.7 -96.05 -91.7 -71.0 -91.7 -45.95 -109.45 -28.25 -127.15 -10.5 -152.2 -10.5 -177.25 -10.5 -195.0 -28.25 -212.7 -45.95 -212.7 -71.0 Z;M-160.0 -96.55 Q-160.0 -121.6 -142.3 -139.35 -124.55 -157.05 -99.5 -157.05 -74.45 -157.05 -56.75 -139.35 -39.0 -121.6 -39.0 -96.55 -39.0 -71.5 -56.75 -53.8 -74.45 -36.05 -99.5 -36.05 -124.55 -36.05 -142.3 -53.8 -160.0 -71.5 -160.0 -96.55 Z"/>
    </path>
  </g>
</svg>
