<?xml version="1.0" encoding="UTF-8" standalone="no"?>
<svg xmlns:ffdec="https://www.free-decompiler.com/flash" xmlns:xlink="http://www.w3.org/1999/xlink" ffdec:objectType="morphshape" height="179.35px" width="309.2px" xmlns="http://www.w3.org/2000/svg">
  <g transform="matrix(1.0, 0.0, 0.0, 1.0, 3.2, 163.4)">
    <path d="M-3.2 -102.9 Q-3.2 -77.85 14.5 -60.15 32.25 -42.4 57.3 -42.4 82.35 -42.4 100.05 -60.15 117.8 -77.85 117.8 -102.9 117.8 -127.95 100.05 -145.7 82.35 -163.4 57.3 -163.4 32.25 -163.4 14.5 -145.7 -3.2 -127.95 -3.2 -102.9" fill="#ffffcc" fill-opacity="0.08627451" fill-rule="evenodd" stroke="none">
      <animate attributeName="fill" dur="2s" repeatCount="indefinite" values="#ffffcc;#ffffcd"/>
      <animate attributeName="fill-opacity" dur="2s" repeatCount="indefinite" values="0.08627451;0.08627451"/>
      <animate attributeName="d" dur="2s" repeatCount="indefinite" values="M-3.2 -102.9 Q-3.2 -77.85 14.5 -60.15 32.25 -42.4 57.3 -42.4 82.35 -42.4 100.05 -60.15 117.8 -77.85 117.8 -102.9 117.8 -127.95 100.05 -145.7 82.35 -163.4 57.3 -163.4 32.25 -163.4 14.5 -145.7 -3.2 -127.95 -3.2 -102.9;M185.0 -44.55 Q185.0 -19.5 202.7 -1.8 220.45 15.95 245.5 15.95 270.55 15.95 288.25 -1.8 306.0 -19.5 306.0 -44.55 306.0 -69.6 288.25 -87.35 270.55 -105.05 245.5 -105.05 220.45 -105.05 202.7 -87.35 185.0 -69.6 185.0 -44.55"/>
    </path>
    <path d="M-3.2 -102.9 Q-3.2 -127.95 14.5 -145.7 32.25 -163.4 57.3 -163.4 82.35 -163.4 100.05 -145.7 117.8 -127.95 117.8 -102.9 117.8 -77.85 100.05 -60.15 82.35 -42.4 57.3 -42.4 32.25 -42.4 14.5 -60.15 -3.2 -77.85 -3.2 -102.9 Z" fill="none" stroke="#000000" stroke-linecap="round" stroke-linejoin="round" stroke-opacity="0.0" stroke-width="0.0">
      <animate attributeName="stroke" dur="2s" repeatCount="indefinite" values="#000000;#000001"/>
      <animate attributeName="stroke-width" dur="2s" repeatCount="indefinite" values="0.0;0.0"/>
      <animate attributeName="fill-opacity" dur="2s" repeatCount="indefinite" values="0.0;0.0"/>
      <animate attributeName="d" dur="2s" repeatCount="indefinite" values="M-3.2 -102.9 Q-3.2 -127.95 14.5 -145.7 32.25 -163.4 57.3 -163.4 82.35 -163.4 100.05 -145.7 117.8 -127.95 117.8 -102.9 117.8 -77.85 100.05 -60.15 82.35 -42.4 57.3 -42.4 32.25 -42.4 14.5 -60.15 -3.2 -77.85 -3.2 -102.9 Z;M185.0 -44.55 Q185.0 -69.6 202.7 -87.35 220.45 -105.05 245.5 -105.05 270.55 -105.05 288.25 -87.35 306.0 -69.6 306.0 -44.55 306.0 -19.5 288.25 -1.8 270.55 15.95 245.5 15.95 220.45 15.95 202.7 -1.8 185.0 -19.5 185.0 -44.55 Z"/>
    </path>
  </g>
</svg>
