<?xml version="1.0" encoding="UTF-8" standalone="no"?>
<svg xmlns:ffdec="https://www.free-decompiler.com/flash" xmlns:xlink="http://www.w3.org/1999/xlink" ffdec:objectType="morphshape" height="175.95px" width="221.0px" xmlns="http://www.w3.org/2000/svg">
  <g transform="matrix(1.0, 0.0, 0.0, 1.0, 359.95, -5.95)">
    <path d="M-259.95 121.4 Q-259.95 146.45 -242.25 164.15 -224.5 181.9 -199.45 181.9 -174.4 181.9 -156.7 164.15 -138.95 146.45 -138.95 121.4 -138.95 96.35 -156.7 78.6 -174.4 60.9 -199.45 60.9 -224.5 60.9 -242.25 78.6 -259.95 96.35 -259.95 121.4" fill="#ffffcc" fill-opacity="0.08627451" fill-rule="evenodd" stroke="none">
      <animate attributeName="fill" dur="2s" repeatCount="indefinite" values="#ffffcc;#ffffcd"/>
      <animate attributeName="fill-opacity" dur="2s" repeatCount="indefinite" values="0.08627451;0.08627451"/>
      <animate attributeName="d" dur="2s" repeatCount="indefinite" values="M-259.95 121.4 Q-259.95 146.45 -242.25 164.15 -224.5 181.9 -199.45 181.9 -174.4 181.9 -156.7 164.15 -138.95 146.45 -138.95 121.4 -138.95 96.35 -156.7 78.6 -174.4 60.9 -199.45 60.9 -224.5 60.9 -242.25 78.6 -259.95 96.35 -259.95 121.4;M-359.95 66.45 Q-359.95 91.5 -342.25 109.2 -324.5 126.95 -299.45 126.95 -274.4 126.95 -256.7 109.2 -238.95 91.5 -238.95 66.45 -238.95 41.4 -256.7 23.65 -274.4 5.95 -299.45 5.95 -324.5 5.95 -342.25 23.65 -359.95 41.4 -359.95 66.45"/>
    </path>
    <path d="M-259.95 121.4 Q-259.95 96.35 -242.25 78.6 -224.5 60.9 -199.45 60.9 -174.4 60.9 -156.7 78.6 -138.95 96.35 -138.95 121.4 -138.95 146.45 -156.7 164.15 -174.4 181.9 -199.45 181.9 -224.5 181.9 -242.25 164.15 -259.95 146.45 -259.95 121.4 Z" fill="none" stroke="#000000" stroke-linecap="round" stroke-linejoin="round" stroke-opacity="0.0" stroke-width="0.0">
      <animate attributeName="stroke" dur="2s" repeatCount="indefinite" values="#000000;#000001"/>
      <animate attributeName="stroke-width" dur="2s" repeatCount="indefinite" values="0.0;0.0"/>
      <animate attributeName="fill-opacity" dur="2s" repeatCount="indefinite" values="0.0;0.0"/>
      <animate attributeName="d" dur="2s" repeatCount="indefinite" values="M-259.95 121.4 Q-259.95 96.35 -242.25 78.6 -224.5 60.9 -199.45 60.9 -174.4 60.9 -156.7 78.6 -138.95 96.35 -138.95 121.4 -138.95 146.45 -156.7 164.15 -174.4 181.9 -199.45 181.9 -224.5 181.9 -242.25 164.15 -259.95 146.45 -259.95 121.4 Z;M-359.95 66.45 Q-359.95 41.4 -342.25 23.65 -324.5 5.95 -299.45 5.95 -274.4 5.95 -256.7 23.65 -238.95 41.4 -238.95 66.45 -238.95 91.5 -256.7 109.2 -274.4 126.95 -299.45 126.95 -324.5 126.95 -342.25 109.2 -359.95 91.5 -359.95 66.45 Z"/>
    </path>
  </g>
</svg>
