<?xml version="1.0" encoding="UTF-8" standalone="no"?>
<svg xmlns:ffdec="https://www.free-decompiler.com/flash" xmlns:xlink="http://www.w3.org/1999/xlink" ffdec:objectType="morphshape" height="197.0px" width="259.0px" xmlns="http://www.w3.org/2000/svg">
  <g transform="matrix(1.0, 0.0, 0.0, 1.0, -185.0, 105.05)">
    <path d="M185.0 -44.55 Q185.0 -19.5 202.7 -1.8 220.45 15.95 245.5 15.95 270.55 15.95 288.25 -1.8 306.0 -19.5 306.0 -44.55 306.0 -69.6 288.25 -87.35 270.55 -105.05 245.5 -105.05 220.45 -105.05 202.7 -87.35 185.0 -69.6 185.0 -44.55" fill="#ffffcc" fill-opacity="0.08627451" fill-rule="evenodd" stroke="none">
      <animate attributeName="fill" dur="2s" repeatCount="indefinite" values="#ffffcc;#ffffcd"/>
      <animate attributeName="fill-opacity" dur="2s" repeatCount="indefinite" values="0.08627451;0.08627451"/>
      <animate attributeName="d" dur="2s" repeatCount="indefinite" values="M185.0 -44.55 Q185.0 -19.5 202.7 -1.8 220.45 15.95 245.5 15.95 270.55 15.95 288.25 -1.8 306.0 -19.5 306.0 -44.55 306.0 -69.6 288.25 -87.35 270.55 -105.05 245.5 -105.05 220.45 -105.05 202.7 -87.35 185.0 -69.6 185.0 -44.55;M323.0 31.45 Q323.0 56.5 340.7 74.2 358.45 91.95 383.5 91.95 408.55 91.95 426.25 74.2 444.0 56.5 444.0 31.45 444.0 6.4 426.25 -11.35 408.55 -29.05 383.5 -29.05 358.45 -29.05 340.7 -11.35 323.0 6.4 323.0 31.45"/>
    </path>
    <path d="M185.0 -44.55 Q185.0 -69.6 202.7 -87.35 220.45 -105.05 245.5 -105.05 270.55 -105.05 288.25 -87.35 306.0 -69.6 306.0 -44.55 306.0 -19.5 288.25 -1.8 270.55 15.95 245.5 15.95 220.45 15.95 202.7 -1.8 185.0 -19.5 185.0 -44.55 Z" fill="none" stroke="#000000" stroke-linecap="round" stroke-linejoin="round" stroke-opacity="0.0" stroke-width="0.0">
      <animate attributeName="stroke" dur="2s" repeatCount="indefinite" values="#000000;#000001"/>
      <animate attributeName="stroke-width" dur="2s" repeatCount="indefinite" values="0.0;0.0"/>
      <animate attributeName="fill-opacity" dur="2s" repeatCount="indefinite" values="0.0;0.0"/>
      <animate attributeName="d" dur="2s" repeatCount="indefinite" values="M185.0 -44.55 Q185.0 -69.6 202.7 -87.35 220.45 -105.05 245.5 -105.05 270.55 -105.05 288.25 -87.35 306.0 -69.6 306.0 -44.55 306.0 -19.5 288.25 -1.8 270.55 15.95 245.5 15.95 220.45 15.95 202.7 -1.8 185.0 -19.5 185.0 -44.55 Z;M323.0 31.45 Q323.0 6.4 340.7 -11.35 358.45 -29.05 383.5 -29.05 408.55 -29.05 426.25 -11.35 444.0 6.4 444.0 31.45 444.0 56.5 426.25 74.2 408.55 91.95 383.5 91.95 358.45 91.95 340.7 74.2 323.0 56.5 323.0 31.45 Z"/>
    </path>
  </g>
</svg>
