<?xml version="1.0" encoding="UTF-8" standalone="no"?>
<svg xmlns:ffdec="https://www.free-decompiler.com/flash" xmlns:xlink="http://www.w3.org/1999/xlink" ffdec:objectType="morphshape" height="218.95px" width="211.0px" xmlns="http://www.w3.org/2000/svg">
  <g transform="matrix(1.0, 0.0, 0.0, 1.0, 449.95, 92.0)">
    <path d="M-359.95 66.45 Q-359.95 91.5 -342.25 109.2 -324.5 126.95 -299.45 126.95 -274.4 126.95 -256.7 109.2 -238.95 91.5 -238.95 66.45 -238.95 41.4 -256.7 23.65 -274.4 5.95 -299.45 5.95 -324.5 5.95 -342.25 23.65 -359.95 41.4 -359.95 66.45" fill="#ffffcc" fill-opacity="0.08627451" fill-rule="evenodd" stroke="none">
      <animate attributeName="fill" dur="2s" repeatCount="indefinite" values="#ffffcc;#ffffcd"/>
      <animate attributeName="fill-opacity" dur="2s" repeatCount="indefinite" values="0.08627451;0.08627451"/>
      <animate attributeName="d" dur="2s" repeatCount="indefinite" values="M-359.95 66.45 Q-359.95 91.5 -342.25 109.2 -324.5 126.95 -299.45 126.95 -274.4 126.95 -256.7 109.2 -238.95 91.5 -238.95 66.45 -238.95 41.4 -256.7 23.65 -274.4 5.95 -299.45 5.95 -324.5 5.95 -342.25 23.65 -359.95 41.4 -359.95 66.45;M-449.95 -31.5 Q-449.95 -6.45 -432.25 11.25 -414.5 29.0 -389.45 29.0 -364.4 29.0 -346.7 11.25 -328.95 -6.45 -328.95 -31.5 -328.95 -56.55 -346.7 -74.3 -364.4 -92.0 -389.45 -92.0 -414.5 -92.0 -432.25 -74.3 -449.95 -56.55 -449.95 -31.5"/>
    </path>
    <path d="M-359.95 66.45 Q-359.95 41.4 -342.25 23.65 -324.5 5.95 -299.45 5.95 -274.4 5.95 -256.7 23.65 -238.95 41.4 -238.95 66.45 -238.95 91.5 -256.7 109.2 -274.4 126.95 -299.45 126.95 -324.5 126.95 -342.25 109.2 -359.95 91.5 -359.95 66.45 Z" fill="none" stroke="#000000" stroke-linecap="round" stroke-linejoin="round" stroke-opacity="0.0" stroke-width="0.0">
      <animate attributeName="stroke" dur="2s" repeatCount="indefinite" values="#000000;#000001"/>
      <animate attributeName="stroke-width" dur="2s" repeatCount="indefinite" values="0.0;0.0"/>
      <animate attributeName="fill-opacity" dur="2s" repeatCount="indefinite" values="0.0;0.0"/>
      <animate attributeName="d" dur="2s" repeatCount="indefinite" values="M-359.95 66.45 Q-359.95 41.4 -342.25 23.65 -324.5 5.95 -299.45 5.95 -274.4 5.95 -256.7 23.65 -238.95 41.4 -238.95 66.45 -238.95 91.5 -256.7 109.2 -274.4 126.95 -299.45 126.95 -324.5 126.95 -342.25 109.2 -359.95 91.5 -359.95 66.45 Z;M-449.95 -31.5 Q-449.95 -56.55 -432.25 -74.3 -414.5 -92.0 -389.45 -92.0 -364.4 -92.0 -346.7 -74.3 -328.95 -56.55 -328.95 -31.5 -328.95 -6.45 -346.7 11.25 -364.4 29.0 -389.45 29.0 -414.5 29.0 -432.25 11.25 -449.95 -6.45 -449.95 -31.5 Z"/>
    </path>
  </g>
</svg>
