<?xml version="1.0" encoding="UTF-8" standalone="no"?>
<svg xmlns:ffdec="https://www.free-decompiler.com/flash" xmlns:xlink="http://www.w3.org/1999/xlink" ffdec:objectType="morphshape" height="432.95px" width="432.95px" xmlns="http://www.w3.org/2000/svg">
  <g transform="matrix(1.0, 0.0, 0.0, 1.0, 11.0, 11.0)">
    <path d="M199.2 197.55 Q199.2 200.6 201.35 202.75 203.5 204.85 206.5 204.85 209.55 204.85 211.7 202.75 213.8 200.6 213.8 197.55 213.8 194.55 211.7 192.4 209.55 190.25 206.5 190.25 203.5 190.25 201.35 192.4 199.2 194.55 199.2 197.55" fill="#ffffff" fill-rule="evenodd" stroke="none">
      <animate attributeName="fill" dur="2s" repeatCount="indefinite" values="#ffffff;#ffffff"/>
      <animate attributeName="fill-opacity" dur="2s" repeatCount="indefinite" values="1.0;1.0"/>
      <animate attributeName="d" dur="2s" repeatCount="indefinite" values="M199.2 197.55 Q199.2 200.6 201.35 202.75 203.5 204.85 206.5 204.85 209.55 204.85 211.7 202.75 213.8 200.6 213.8 197.55 213.8 194.55 211.7 192.4 209.55 190.25 206.5 190.25 203.5 190.25 201.35 192.4 199.2 194.55 199.2 197.55;M-10.0 205.5 Q-10.0 294.75 53.1 357.8 116.2 420.95 205.5 420.95 294.75 420.95 357.8 357.8 420.95 294.75 420.95 205.5 420.95 116.2 357.8 53.1 294.75 -10.0 205.5 -10.0 116.2 -10.0 53.1 53.1 -10.0 116.2 -10.0 205.5"/>
    </path>
    <path d="M199.2 197.55 Q199.2 194.55 201.35 192.4 203.5 190.25 206.5 190.25 209.55 190.25 211.7 192.4 213.8 194.55 213.8 197.55 213.8 200.6 211.7 202.75 209.55 204.85 206.5 204.85 203.5 204.85 201.35 202.75 199.2 200.6 199.2 197.55 199.2 194.55 201.35 192.4 203.5 190.25 206.5 190.25 209.55 190.25 211.7 192.4 213.8 194.55 213.8 197.55 213.8 200.6 211.7 202.75 209.55 204.85 206.5 204.85 203.5 204.85 201.35 202.75 199.2 200.6 199.2 197.55 Z" fill="none" stroke="#d3a3fc" stroke-linecap="round" stroke-linejoin="round" stroke-width="2.0">
      <animate attributeName="stroke" dur="2s" repeatCount="indefinite" values="#d3a3fc;#d3a3fd"/>
      <animate attributeName="stroke-width" dur="2s" repeatCount="indefinite" values="2.0;2.0"/>
      <animate attributeName="fill-opacity" dur="2s" repeatCount="indefinite" values="1.0;1.0"/>
      <animate attributeName="d" dur="2s" repeatCount="indefinite" values="M199.2 197.55 Q199.2 194.55 201.35 192.4 203.5 190.25 206.5 190.25 209.55 190.25 211.7 192.4 213.8 194.55 213.8 197.55 213.8 200.6 211.7 202.75 209.55 204.85 206.5 204.85 203.5 204.85 201.35 202.75 199.2 200.6 199.2 197.55 199.2 194.55 201.35 192.4 203.5 190.25 206.5 190.25 209.55 190.25 211.7 192.4 213.8 194.55 213.8 197.55 213.8 200.6 211.7 202.75 209.55 204.85 206.5 204.85 203.5 204.85 201.35 202.75 199.2 200.6 199.2 197.55 Z;M-10.0 205.5 Q-10.0 116.2 53.1 53.1 116.2 -10.0 205.5 -10.0 294.75 -10.0 357.8 53.1 420.95 116.2 420.95 205.5 420.95 294.75 357.8 357.8 294.75 420.95 205.5 420.95 116.2 420.95 53.1 357.8 -10.0 294.75 -10.0 205.5 -10.0 116.2 53.1 53.1 116.2 -10.0 205.5 -10.0 294.75 -10.0 357.8 53.1 420.95 116.2 420.95 205.5 420.95 294.75 357.8 357.8 294.75 420.95 205.5 420.95 116.2 420.95 53.1 357.8 -10.0 294.75 -10.0 205.5 Z"/>
    </path>
  </g>
</svg>
