<?xml version="1.0" encoding="UTF-8" standalone="no"?>
<svg xmlns:ffdec="https://www.free-decompiler.com/flash" xmlns:xlink="http://www.w3.org/1999/xlink" ffdec:objectType="morphshape" height="436.25px" width="455.4px" xmlns="http://www.w3.org/2000/svg">
  <g transform="matrix(1.0, 0.0, 0.0, 1.0, -90.0, -295.0)">
    <path d="M90.0 601.15 Q90.0 655.15 156.7 693.55 223.4 731.25 317.7 731.25 412.0 731.25 478.7 693.55 545.4 655.15 545.4 601.15 545.4 547.15 478.7 509.4 412.0 471.0 317.7 471.0 223.4 471.0 156.7 509.4 90.0 547.15 90.0 601.15" fill="#000000" fill-opacity="0.29803923" fill-rule="evenodd" stroke="none">
      <animate attributeName="fill" dur="2s" repeatCount="indefinite" values="#000000;#000001"/>
      <animate attributeName="fill-opacity" dur="2s" repeatCount="indefinite" values="0.29803923;0.29803923"/>
      <animate attributeName="d" dur="2s" repeatCount="indefinite" values="M90.0 601.15 Q90.0 655.15 156.7 693.55 223.4 731.25 317.7 731.25 412.0 731.25 478.7 693.55 545.4 655.15 545.4 601.15 545.4 547.15 478.7 509.4 412.0 471.0 317.7 471.0 223.4 471.0 156.7 509.4 90.0 547.15 90.0 601.15;M278.0 305.0 Q278.0 309.15 290.8 312.1 303.6 315.0 321.7 315.0 339.8 315.0 352.6 312.1 365.4 309.15 365.4 305.0 365.4 300.85 352.6 297.95 339.8 295.0 321.7 295.0 303.6 295.0 290.8 297.95 278.0 300.85 278.0 305.0"/>
    </path>
    <path d="M90.0 601.15 Q90.0 547.15 156.7 509.4 223.4 471.0 317.7 471.0 412.0 471.0 478.7 509.4 545.4 547.15 545.4 601.15 545.4 655.15 478.7 693.55 412.0 731.25 317.7 731.25 223.4 731.25 156.7 693.55 90.0 655.15 90.0 601.15 Z" fill="none" stroke="#000000" stroke-linecap="round" stroke-linejoin="round" stroke-opacity="0.0" stroke-width="0.0">
      <animate attributeName="stroke" dur="2s" repeatCount="indefinite" values="#000000;#000001"/>
      <animate attributeName="stroke-width" dur="2s" repeatCount="indefinite" values="0.0;0.0"/>
      <animate attributeName="fill-opacity" dur="2s" repeatCount="indefinite" values="0.0;0.0"/>
      <animate attributeName="d" dur="2s" repeatCount="indefinite" values="M90.0 601.15 Q90.0 547.15 156.7 509.4 223.4 471.0 317.7 471.0 412.0 471.0 478.7 509.4 545.4 547.15 545.4 601.15 545.4 655.15 478.7 693.55 412.0 731.25 317.7 731.25 223.4 731.25 156.7 693.55 90.0 655.15 90.0 601.15 Z;M278.0 305.0 Q278.0 300.85 290.8 297.95 303.6 295.0 321.7 295.0 339.8 295.0 352.6 297.95 365.4 300.85 365.4 305.0 365.4 309.15 352.6 312.1 339.8 315.0 321.7 315.0 303.6 315.0 290.8 312.1 278.0 309.15 278.0 305.0 Z"/>
    </path>
  </g>
</svg>
