<?xml version="1.0" encoding="UTF-8" standalone="no"?>
<svg xmlns:ffdec="https://www.free-decompiler.com/flash" xmlns:xlink="http://www.w3.org/1999/xlink" ffdec:objectType="morphshape" height="36.55px" width="40.1px" xmlns="http://www.w3.org/2000/svg">
  <g transform="matrix(1.0, 0.0, 0.0, 1.0, 6.75, 6.5)">
    <path d="M0.0 13.75 L4.65 17.2 2.5 22.6 8.3 22.65 9.75 28.3 14.45 24.9 18.95 28.65 20.75 23.1 32.6 28.8 24.8 17.95 29.7 14.9 25.1 11.4 27.2 6.0 21.4 5.95 20.0 0.35 15.25 3.7 10.8 0.0 8.95 5.5 3.2 5.15 4.9 10.65 0.0 13.75" fill="#df1e1e" fill-rule="evenodd" stroke="none">
      <animate attributeName="fill" dur="2s" repeatCount="indefinite" values="#df1e1e;#e4761b"/>
      <animate attributeName="fill-opacity" dur="2s" repeatCount="indefinite" values="1.0;1.0"/>
      <animate attributeName="d" dur="2s" repeatCount="indefinite" values="M0.0 13.75 L4.65 17.2 2.5 22.6 8.3 22.65 9.75 28.3 14.45 24.9 18.95 28.65 20.75 23.1 32.6 28.8 24.8 17.95 29.7 14.9 25.1 11.4 27.2 6.0 21.4 5.95 20.0 0.35 15.25 3.7 10.8 0.0 8.95 5.5 3.2 5.15 4.9 10.65 0.0 13.75;M-6.25 11.5 L2.15 14.7 0.0 20.1 5.8 20.15 7.0 29.55 11.95 22.4 16.45 26.15 18.25 20.6 32.85 28.8 22.3 15.45 27.2 12.4 22.6 8.9 27.45 2.0 18.9 3.45 17.5 -2.15 12.75 1.2 7.05 -6.0 6.45 3.0 0.7 2.65 2.4 8.15 -6.25 11.5"/>
    </path>
    <path d="M0.0 13.75 L4.9 10.65 3.2 5.15 8.95 5.5 10.8 0.0 15.25 3.7 20.0 0.35 21.4 5.95 27.2 6.0 25.1 11.4 29.7 14.9 24.8 17.95 32.6 28.8 20.75 23.1 18.95 28.65 14.45 24.9 9.75 28.3 8.3 22.65 2.5 22.6 4.65 17.2 0.0 13.75 4.9 10.65 3.2 5.15 8.95 5.5 10.8 0.0 15.25 3.7 20.0 0.35 21.4 5.95 27.2 6.0 25.1 11.4 29.7 14.9 24.8 17.95 32.6 28.8 20.75 23.1 18.95 28.65 14.45 24.9 9.75 28.3 8.3 22.65 2.5 22.6 4.65 17.2 0.0 13.75 Z" fill="none" stroke="#000000" stroke-linecap="round" stroke-linejoin="round" stroke-width="1.0">
      <animate attributeName="stroke" dur="2s" repeatCount="indefinite" values="#000000;#000001"/>
      <animate attributeName="stroke-width" dur="2s" repeatCount="indefinite" values="1.0;1.0"/>
      <animate attributeName="fill-opacity" dur="2s" repeatCount="indefinite" values="1.0;1.0"/>
      <animate attributeName="d" dur="2s" repeatCount="indefinite" values="M0.0 13.75 L4.9 10.65 3.2 5.15 8.95 5.5 10.8 0.0 15.25 3.7 20.0 0.35 21.4 5.95 27.2 6.0 25.1 11.4 29.7 14.9 24.8 17.95 32.6 28.8 20.75 23.1 18.95 28.65 14.45 24.9 9.75 28.3 8.3 22.65 2.5 22.6 4.65 17.2 0.0 13.75 4.9 10.65 3.2 5.15 8.95 5.5 10.8 0.0 15.25 3.7 20.0 0.35 21.4 5.95 27.2 6.0 25.1 11.4 29.7 14.9 24.8 17.95 32.6 28.8 20.75 23.1 18.95 28.65 14.45 24.9 9.75 28.3 8.3 22.65 2.5 22.6 4.65 17.2 0.0 13.75 Z;M-6.25 11.5 L2.4 8.15 0.7 2.65 6.45 3.0 7.05 -6.0 12.75 1.2 17.5 -2.15 18.9 3.45 27.45 2.0 22.6 8.9 27.2 12.4 22.3 15.45 32.85 28.8 18.25 20.6 16.45 26.15 11.95 22.4 7.0 29.55 5.8 20.15 0.0 20.1 2.15 14.7 -6.25 11.5 2.4 8.15 0.7 2.65 6.45 3.0 7.05 -6.0 12.75 1.2 17.5 -2.15 18.9 3.45 27.45 2.0 22.6 8.9 27.2 12.4 22.3 15.45 32.85 28.8 18.25 20.6 16.45 26.15 11.95 22.4 7.0 29.55 5.8 20.15 0.0 20.1 2.15 14.7 -6.25 11.5 Z"/>
    </path>
  </g>
</svg>
