<?xml version="1.0" encoding="UTF-8" standalone="no"?>
<svg xmlns:ffdec="https://www.free-decompiler.com/flash" xmlns:xlink="http://www.w3.org/1999/xlink" ffdec:objectType="morphshape" height="61.8px" width="61.8px" xmlns="http://www.w3.org/2000/svg">
  <g transform="matrix(1.0, 0.0, 0.0, 1.0, 31.05, 30.25)">
    <path d="M-21.85 0.05 Q-21.85 -9.05 -15.45 -15.45 -9.05 -21.85 0.05 -21.85 9.1 -21.85 15.5 -15.45 21.9 -9.05 21.9 0.05 21.9 9.1 15.5 15.5 9.1 21.9 0.05 21.9 -9.05 21.9 -15.45 15.5 -21.85 9.1 -21.85 0.05 -21.85 -9.05 -15.45 -15.45 -9.05 -21.85 0.05 -21.85 9.1 -21.85 15.5 -15.45 21.9 -9.05 21.9 0.05 21.9 9.1 15.5 15.5 9.1 21.9 0.05 21.9 -9.05 21.9 -15.45 15.5 -21.85 9.1 -21.85 0.05 Z" fill="none" stroke="#88ff49" stroke-linecap="round" stroke-linejoin="round" stroke-opacity="0.0" stroke-width="2.0">
      <animate attributeName="stroke" dur="2s" repeatCount="indefinite" values="#88ff49;#88ff4a"/>
      <animate attributeName="stroke-width" dur="2s" repeatCount="indefinite" values="2.0;4.0"/>
      <animate attributeName="fill-opacity" dur="2s" repeatCount="indefinite" values="0.0;1.0"/>
      <animate attributeName="d" dur="2s" repeatCount="indefinite" values="M-21.85 0.05 Q-21.85 -9.05 -15.45 -15.45 -9.05 -21.85 0.05 -21.85 9.1 -21.85 15.5 -15.45 21.9 -9.05 21.9 0.05 21.9 9.1 15.5 15.5 9.1 21.9 0.05 21.9 -9.05 21.9 -15.45 15.5 -21.85 9.1 -21.85 0.05 -21.85 -9.05 -15.45 -15.45 -9.05 -21.85 0.05 -21.85 9.1 -21.85 15.5 -15.45 21.9 -9.05 21.9 0.05 21.9 9.1 15.5 15.5 9.1 21.9 0.05 21.9 -9.05 21.9 -15.45 15.5 -21.85 9.1 -21.85 0.05 Z;M-29.05 0.65 Q-29.05 -11.35 -20.6 -19.8 -12.15 -28.25 -0.15 -28.25 11.8 -28.25 20.3 -19.8 28.75 -11.35 28.75 0.65 28.75 12.6 20.3 21.1 11.8 29.55 -0.15 29.55 -12.15 29.55 -20.6 21.1 -29.05 12.6 -29.05 0.65 -29.05 -11.35 -20.6 -19.8 -12.15 -28.25 -0.15 -28.25 11.8 -28.25 20.3 -19.8 28.75 -11.35 28.75 0.65 28.75 12.6 20.3 21.1 11.8 29.55 -0.15 29.55 -12.15 29.55 -20.6 21.1 -29.05 12.6 -29.05 0.65 Z"/>
    </path>
  </g>
</svg>
