<?xml version="1.0" encoding="UTF-8" standalone="no"?>
<svg xmlns:ffdec="https://www.free-decompiler.com/flash" xmlns:xlink="http://www.w3.org/1999/xlink" ffdec:objectType="morphshape" height="61.8px" width="61.8px" xmlns="http://www.w3.org/2000/svg">
  <g transform="matrix(1.0, 0.0, 0.0, 1.0, 206.05, 90.25)">
    <path d="M-204.05 -59.35 Q-204.05 -71.35 -195.6 -79.8 -187.15 -88.25 -175.15 -88.25 -163.2 -88.25 -154.7 -79.8 -146.25 -71.35 -146.25 -59.35 -146.25 -47.4 -154.7 -38.9 -163.2 -30.45 -175.15 -30.45 -187.15 -30.45 -195.6 -38.9 -204.05 -47.4 -204.05 -59.35 -204.05 -71.35 -195.6 -79.8 -187.15 -88.25 -175.15 -88.25 -163.2 -88.25 -154.7 -79.8 -146.25 -71.35 -146.25 -59.35 -146.25 -47.4 -154.7 -38.9 -163.2 -30.45 -175.15 -30.45 -187.15 -30.45 -195.6 -38.9 -204.05 -47.4 -204.05 -59.35 Z" fill="none" stroke="#88ff49" stroke-linecap="round" stroke-linejoin="round" stroke-width="4.0">
      <animate attributeName="stroke" dur="2s" repeatCount="indefinite" values="#88ff49;#88ff4a"/>
      <animate attributeName="stroke-width" dur="2s" repeatCount="indefinite" values="4.0;2.0"/>
      <animate attributeName="fill-opacity" dur="2s" repeatCount="indefinite" values="1.0;0.0"/>
      <animate attributeName="d" dur="2s" repeatCount="indefinite" values="M-204.05 -59.35 Q-204.05 -71.35 -195.6 -79.8 -187.15 -88.25 -175.15 -88.25 -163.2 -88.25 -154.7 -79.8 -146.25 -71.35 -146.25 -59.35 -146.25 -47.4 -154.7 -38.9 -163.2 -30.45 -175.15 -30.45 -187.15 -30.45 -195.6 -38.9 -204.05 -47.4 -204.05 -59.35 -204.05 -71.35 -195.6 -79.8 -187.15 -88.25 -175.15 -88.25 -163.2 -88.25 -154.7 -79.8 -146.25 -71.35 -146.25 -59.35 -146.25 -47.4 -154.7 -38.9 -163.2 -30.45 -175.15 -30.45 -187.15 -30.45 -195.6 -38.9 -204.05 -47.4 -204.05 -59.35 Z;M-196.85 -59.95 Q-196.85 -69.05 -190.45 -75.45 -184.05 -81.85 -174.95 -81.85 -165.9 -81.85 -159.5 -75.45 -153.1 -69.05 -153.1 -59.95 -153.1 -50.9 -159.5 -44.5 -165.9 -38.1 -174.95 -38.1 -184.05 -38.1 -190.45 -44.5 -196.85 -50.9 -196.85 -59.95 -196.85 -69.05 -190.45 -75.45 -184.05 -81.85 -174.95 -81.85 -165.9 -81.85 -159.5 -75.45 -153.1 -69.05 -153.1 -59.95 -153.1 -50.9 -159.5 -44.5 -165.9 -38.1 -174.95 -38.1 -184.05 -38.1 -190.45 -44.5 -196.85 -50.9 -196.85 -59.95 Z"/>
    </path>
  </g>
</svg>
