<?xml version="1.0" encoding="UTF-8" standalone="no"?>
<svg xmlns:ffdec="https://www.free-decompiler.com/flash" xmlns:xlink="http://www.w3.org/1999/xlink" ffdec:objectType="morphshape" height="1007.25px" width="1169.3px" xmlns="http://www.w3.org/2000/svg">
  <g transform="matrix(1.0, 0.0, 0.0, 1.0, 250.6, 272.6)">
    <path d="M-16.05 -12.0 L-16.05 512.1 698.15 512.1 698.15 -12.0 -16.05 -12.0 M315.0 240.0 Q315.0 242.05 316.45 243.5 317.95 245.0 320.0 245.0 322.1 245.0 323.5 243.5 325.0 242.05 325.0 240.0 325.0 237.95 323.5 236.45 322.1 235.0 320.0 235.0 317.95 235.0 316.45 236.45 315.0 237.95 315.0 240.0" fill="#000000" fill-opacity="0.99607843" fill-rule="evenodd" stroke="none">
      <animate attributeName="fill" dur="2s" repeatCount="indefinite" values="#000000;#000001"/>
      <animate attributeName="fill-opacity" dur="2s" repeatCount="indefinite" values="0.99607843;0.99607843"/>
      <animate attributeName="d" dur="2s" repeatCount="indefinite" values="M-16.05 -12.0 L-16.05 512.1 698.15 512.1 698.15 -12.0 -16.05 -12.0 M315.0 240.0 Q315.0 242.05 316.45 243.5 317.95 245.0 320.0 245.0 322.1 245.0 323.5 243.5 325.0 242.05 325.0 240.0 325.0 237.95 323.5 236.45 322.1 235.0 320.0 235.0 317.95 235.0 316.45 236.45 315.0 237.95 315.0 240.0;M-250.1 -272.1 L-250.1 734.15 918.2 734.15 918.2 -272.1 -250.1 -272.1 M-80.0 240.0 Q-80.0 404.0 36.0 520.0 156.0 640.0 320.0 640.0 488.0 640.0 600.0 520.0 720.0 404.0 720.0 240.0 720.0 76.0 600.0 -44.0 488.0 -160.0 320.0 -160.0 156.0 -160.0 36.0 -44.0 -80.0 76.0 -80.0 240.0"/>
    </path>
    <path d="M-16.05 -12.0 L698.15 -12.0 698.15 512.1 -16.05 512.1 -16.05 -12.0 698.15 -12.0 698.15 512.1 -16.05 512.1 -16.05 -12.0" fill="none" stroke="#ff0000" stroke-linecap="round" stroke-linejoin="round" stroke-opacity="0.99607843" stroke-width="1.0">
      <animate attributeName="stroke" dur="2s" repeatCount="indefinite" values="#ff0000;#ff0001"/>
      <animate attributeName="stroke-width" dur="2s" repeatCount="indefinite" values="1.0;1.0"/>
      <animate attributeName="fill-opacity" dur="2s" repeatCount="indefinite" values="0.99607843;0.99607843"/>
      <animate attributeName="d" dur="2s" repeatCount="indefinite" values="M-16.05 -12.0 L698.15 -12.0 698.15 512.1 -16.05 512.1 -16.05 -12.0 698.15 -12.0 698.15 512.1 -16.05 512.1 -16.05 -12.0;M-250.1 -272.1 L918.2 -272.1 918.2 734.15 -250.1 734.15 -250.1 -272.1 918.2 -272.1 918.2 734.15 -250.1 734.15 -250.1 -272.1"/>
    </path>
    <path d="M315.0 240.0 Q315.0 237.95 316.45 236.45 317.95 235.0 320.0 235.0 322.1 235.0 323.5 236.45 325.0 237.95 325.0 240.0 325.0 242.05 323.5 243.5 322.1 245.0 320.0 245.0 317.95 245.0 316.45 243.5 315.0 242.05 315.0 240.0 Z" fill="none" stroke="#000000" stroke-linecap="round" stroke-linejoin="round" stroke-opacity="0.0" stroke-width="0.0">
      <animate attributeName="stroke" dur="2s" repeatCount="indefinite" values="#000000;#000001"/>
      <animate attributeName="stroke-width" dur="2s" repeatCount="indefinite" values="0.0;0.0"/>
      <animate attributeName="fill-opacity" dur="2s" repeatCount="indefinite" values="0.0;0.0"/>
      <animate attributeName="d" dur="2s" repeatCount="indefinite" values="M315.0 240.0 Q315.0 237.95 316.45 236.45 317.95 235.0 320.0 235.0 322.1 235.0 323.5 236.45 325.0 237.95 325.0 240.0 325.0 242.05 323.5 243.5 322.1 245.0 320.0 245.0 317.95 245.0 316.45 243.5 315.0 242.05 315.0 240.0 Z;M-80.0 240.0 Q-80.0 76.0 36.0 -44.0 156.0 -160.0 320.0 -160.0 488.0 -160.0 600.0 -44.0 720.0 76.0 720.0 240.0 720.0 404.0 600.0 520.0 488.0 640.0 320.0 640.0 156.0 640.0 36.0 520.0 -80.0 404.0 -80.0 240.0 Z"/>
    </path>
  </g>
</svg>
