<?xml version="1.0" encoding="UTF-8" standalone="no"?>
<svg xmlns:ffdec="https://www.free-decompiler.com/flash" xmlns:xlink="http://www.w3.org/1999/xlink" ffdec:objectType="morphshape" height="92.1px" width="170.95px" xmlns="http://www.w3.org/2000/svg">
  <g transform="matrix(1.0, 0.0, 0.0, 1.0, -156.5, -193.4)">
    <path d="M158.0 239.5 Q158.0 257.95 182.6 270.95 207.2 284.0 242.0 284.0 276.75 284.0 301.35 270.95 325.95 257.95 325.95 239.5 325.95 221.05 301.35 207.95 276.75 194.9 242.0 194.9 207.2 194.9 182.6 207.95 158.0 221.05 158.0 239.5" fill="#ffffff" fill-rule="evenodd" stroke="none">
      <animate attributeName="fill" dur="2s" repeatCount="indefinite" values="#ffffff;#ffffff"/>
      <animate attributeName="fill-opacity" dur="2s" repeatCount="indefinite" values="1.0;1.0"/>
      <animate attributeName="d" dur="2s" repeatCount="indefinite" values="M158.0 239.5 Q158.0 257.95 182.6 270.95 207.2 284.0 242.0 284.0 276.75 284.0 301.35 270.95 325.95 257.95 325.95 239.5 325.95 221.05 301.35 207.95 276.75 194.9 242.0 194.9 207.2 194.9 182.6 207.95 158.0 221.05 158.0 239.5;M163.45 239.0 Q163.45 256.45 186.7 268.75 209.95 281.1 242.85 281.1 275.7 281.1 298.95 268.75 322.2 256.45 322.2 239.0 322.2 221.55 298.95 209.2 275.7 196.85 242.85 196.85 209.95 196.85 186.7 209.2 163.45 221.55 163.45 239.0"/>
    </path>
    <path d="M158.0 239.5 Q158.0 221.05 182.6 207.95 207.2 194.9 242.0 194.9 276.75 194.9 301.35 207.95 325.95 221.05 325.95 239.5 325.95 257.95 301.35 270.95 276.75 284.0 242.0 284.0 207.2 284.0 182.6 270.95 158.0 257.95 158.0 239.5 158.0 221.05 182.6 207.95 207.2 194.9 242.0 194.9 276.75 194.9 301.35 207.95 325.95 221.05 325.95 239.5 325.95 257.95 301.35 270.95 276.75 284.0 242.0 284.0 207.2 284.0 182.6 270.95 158.0 257.95 158.0 239.5 Z" fill="none" stroke="#ff0000" stroke-linecap="round" stroke-linejoin="round" stroke-width="3.0">
      <animate attributeName="stroke" dur="2s" repeatCount="indefinite" values="#ff0000;#ff0001"/>
      <animate attributeName="stroke-width" dur="2s" repeatCount="indefinite" values="3.0;3.0"/>
      <animate attributeName="fill-opacity" dur="2s" repeatCount="indefinite" values="1.0;1.0"/>
      <animate attributeName="d" dur="2s" repeatCount="indefinite" values="M158.0 239.5 Q158.0 221.05 182.6 207.95 207.2 194.9 242.0 194.9 276.75 194.9 301.35 207.95 325.95 221.05 325.95 239.5 325.95 257.95 301.35 270.95 276.75 284.0 242.0 284.0 207.2 284.0 182.6 270.95 158.0 257.95 158.0 239.5 158.0 221.05 182.6 207.95 207.2 194.9 242.0 194.9 276.75 194.9 301.35 207.95 325.95 221.05 325.95 239.5 325.95 257.95 301.35 270.95 276.75 284.0 242.0 284.0 207.2 284.0 182.6 270.95 158.0 257.95 158.0 239.5 Z;M163.45 239.0 Q163.45 221.55 186.7 209.2 209.95 196.85 242.85 196.85 275.7 196.85 298.95 209.2 322.2 221.55 322.2 239.0 322.2 256.45 298.95 268.75 275.7 281.1 242.85 281.1 209.95 281.1 186.7 268.75 163.45 256.45 163.45 239.0 163.45 221.55 186.7 209.2 209.95 196.85 242.85 196.85 275.7 196.85 298.95 209.2 322.2 221.55 322.2 239.0 322.2 256.45 298.95 268.75 275.7 281.1 242.85 281.1 209.95 281.1 186.7 268.75 163.45 256.45 163.45 239.0 Z"/>
    </path>
  </g>
</svg>
