<?xml version="1.0" encoding="UTF-8" standalone="no"?>
<svg xmlns:ffdec="https://www.free-decompiler.com/flash" xmlns:xlink="http://www.w3.org/1999/xlink" ffdec:objectType="morphshape" height="163.05px" width="257.05px" xmlns="http://www.w3.org/2000/svg">
  <g transform="matrix(1.0, 0.0, 0.0, 1.0, 4.0, 2.55)">
    <path d="M1.75 76.9 Q1.9 79.5 2.0 82.05 L2.3 84.6 Q6.15 110.7 37.45 129.7 72.7 151.2 122.5 151.2 172.3 151.2 207.5 129.7 238.8 110.7 243.05 82.05 L243.25 76.9 Q243.4 45.85 207.5 24.05 172.3 2.55 122.5 2.55 72.7 2.55 37.45 24.05 1.55 45.85 1.75 76.9 M-4.0 79.0 Q-3.85 81.8 -3.75 84.6 L-3.4 87.45 Q0.75 116.05 34.0 136.95 71.5 160.5 124.5 160.5 177.5 160.5 215.0 136.95 248.3 116.05 252.5 87.45 L252.85 84.6 253.05 79.0 Q253.2 44.95 215.0 21.0 177.5 -2.55 124.5 -2.55 71.5 -2.55 34.0 21.0 -4.15 44.95 -4.0 79.0" fill="#000000" fill-opacity="0.49803922" fill-rule="evenodd" stroke="none">
      <animate attributeName="fill" dur="2s" repeatCount="indefinite" values="#000000;#000001"/>
      <animate attributeName="fill-opacity" dur="2s" repeatCount="indefinite" values="0.49803922;0.49803922"/>
      <animate attributeName="d" dur="2s" repeatCount="indefinite" values="M1.75 76.9 Q1.9 79.5 2.0 82.05 L2.3 84.6 Q6.15 110.7 37.45 129.7 72.7 151.2 122.5 151.2 172.3 151.2 207.5 129.7 238.8 110.7 243.05 82.05 L243.25 76.9 Q243.4 45.85 207.5 24.05 172.3 2.55 122.5 2.55 72.7 2.55 37.45 24.05 1.55 45.85 1.75 76.9 M-4.0 79.0 Q-3.85 81.8 -3.75 84.6 L-3.4 87.45 Q0.75 116.05 34.0 136.95 71.5 160.5 124.5 160.5 177.5 160.5 215.0 136.95 248.3 116.05 252.5 87.45 L252.85 84.6 253.05 79.0 Q253.2 44.95 215.0 21.0 177.5 -2.55 124.5 -2.55 71.5 -2.55 34.0 21.0 -4.15 44.95 -4.0 79.0;M5.55 76.95 Q5.55 79.5 5.8 81.95 L6.1 84.45 Q9.85 109.7 40.15 128.15 74.3 148.95 122.55 148.95 170.8 148.95 204.9 128.15 235.25 109.7 239.35 81.95 L239.55 76.95 Q239.7 46.9 204.9 25.75 170.8 4.95 122.55 4.95 74.3 4.95 40.15 25.75 5.4 46.9 5.55 76.95 M0.0 79.0 Q0.0 81.8 0.25 84.45 L0.6 87.2 Q4.6 114.9 36.8 135.15 73.15 157.95 124.5 157.95 175.85 157.95 212.15 135.15 244.45 114.9 248.5 87.2 L248.85 84.45 249.05 79.0 Q249.2 46.0 212.15 22.8 175.85 0.0 124.5 0.0 73.15 0.0 36.8 22.8 -0.15 46.0 0.0 79.0"/>
    </path>
    <path d="M1.75 76.9 Q1.9 79.5 2.0 82.05 L6.15 82.05 Q5.85 79.5 5.85 76.9 6.0 48.05 39.6 27.55 73.95 6.7 122.5 6.7 171.05 6.7 205.35 27.55 239.0 48.05 239.15 76.9 L238.8 82.05 243.05 82.05 243.25 76.9 Q243.4 45.85 207.5 24.05 172.3 2.55 122.5 2.55 72.7 2.55 37.45 24.05 1.55 45.85 1.75 76.9" fill="#84ff84" fill-rule="evenodd" stroke="none">
      <animate attributeName="fill" dur="2s" repeatCount="indefinite" values="#84ff84;#84ff85"/>
      <animate attributeName="fill-opacity" dur="2s" repeatCount="indefinite" values="1.0;1.0"/>
      <animate attributeName="d" dur="2s" repeatCount="indefinite" values="M1.75 76.9 Q1.9 79.5 2.0 82.05 L6.15 82.05 Q5.85 79.5 5.85 76.9 6.0 48.05 39.6 27.55 73.95 6.7 122.5 6.7 171.05 6.7 205.35 27.55 239.0 48.05 239.15 76.9 L238.8 82.05 243.05 82.05 243.25 76.9 Q243.4 45.85 207.5 24.05 172.3 2.55 122.5 2.55 72.7 2.55 37.45 24.05 1.55 45.85 1.75 76.9;M5.55 76.95 Q5.55 79.5 5.8 81.95 L9.85 81.95 Q9.55 79.5 9.55 76.95 9.7 49.0 42.25 29.15 75.5 8.95 122.55 8.95 169.6 8.95 202.8 29.15 235.4 49.0 235.55 76.95 L235.25 81.95 239.35 81.95 239.55 76.95 Q239.7 46.9 204.9 25.75 170.8 4.95 122.55 4.95 74.3 4.95 40.15 25.75 5.4 46.9 5.55 76.95"/>
    </path>
    <path d="M2.0 82.05 L2.3 84.6 Q6.15 110.7 37.45 129.7 72.7 151.2 122.5 151.2 172.3 151.2 207.5 129.7 238.8 110.7 242.75 84.6 L243.05 82.05 238.8 82.05 238.45 84.6 Q234.4 108.55 205.35 126.2 171.05 147.05 122.5 147.05 73.95 147.05 39.6 126.2 10.6 108.55 6.15 82.05 L2.0 82.05" fill="#39ee35" fill-rule="evenodd" stroke="none">
      <animate attributeName="fill" dur="2s" repeatCount="indefinite" values="#39ee35;#39ee36"/>
      <animate attributeName="fill-opacity" dur="2s" repeatCount="indefinite" values="1.0;1.0"/>
      <animate attributeName="d" dur="2s" repeatCount="indefinite" values="M2.0 82.05 L2.3 84.6 Q6.15 110.7 37.45 129.7 72.7 151.2 122.5 151.2 172.3 151.2 207.5 129.7 238.8 110.7 242.75 84.6 L243.05 82.05 238.8 82.05 238.45 84.6 Q234.4 108.55 205.35 126.2 171.05 147.05 122.5 147.05 73.95 147.05 39.6 126.2 10.6 108.55 6.15 82.05 L2.0 82.05;M5.8 81.95 L6.1 84.45 Q9.85 109.7 40.15 128.15 74.3 148.95 122.55 148.95 170.8 148.95 204.9 128.15 235.25 109.7 239.05 84.45 L239.35 81.95 235.25 81.95 234.9 84.45 Q230.95 107.65 202.8 124.75 169.6 144.95 122.55 144.95 75.5 144.95 42.25 124.75 14.15 107.65 9.85 81.95 L5.8 81.95"/>
    </path>
    <path d="M5.85 76.9 Q5.85 79.5 6.15 82.05 123.55 107.65 238.8 82.05 L239.15 76.9 Q239.0 48.05 205.35 27.55 171.05 6.7 122.5 6.7 73.95 6.7 39.6 27.55 6.0 48.05 5.85 76.9" fill="#ffffff" fill-rule="evenodd" stroke="none">
      <animate attributeName="fill" dur="2s" repeatCount="indefinite" values="#ffffff;#ffffff"/>
      <animate attributeName="fill-opacity" dur="2s" repeatCount="indefinite" values="1.0;1.0"/>
      <animate attributeName="d" dur="2s" repeatCount="indefinite" values="M5.85 76.9 Q5.85 79.5 6.15 82.05 123.55 107.65 238.8 82.05 L239.15 76.9 Q239.0 48.05 205.35 27.55 171.05 6.7 122.5 6.7 73.95 6.7 39.6 27.55 6.0 48.05 5.85 76.9;M9.55 76.95 Q9.55 79.5 9.85 81.95 123.55 106.75 235.25 81.95 L235.55 76.95 Q235.4 49.0 202.8 29.15 169.6 8.95 122.55 8.95 75.5 8.95 42.25 29.15 9.7 49.0 9.55 76.95"/>
    </path>
    <path d="M6.15 82.05 L6.55 84.6 Q10.6 108.55 39.6 126.2 73.95 147.05 122.5 147.05 171.05 147.05 205.35 126.2 234.4 108.55 238.8 82.05 123.55 107.65 6.15 82.05" fill="#f7f7f7" fill-rule="evenodd" stroke="none">
      <animate attributeName="fill" dur="2s" repeatCount="indefinite" values="#f7f7f7;#f7f7f8"/>
      <animate attributeName="fill-opacity" dur="2s" repeatCount="indefinite" values="1.0;1.0"/>
      <animate attributeName="d" dur="2s" repeatCount="indefinite" values="M6.15 82.05 L6.55 84.6 Q10.6 108.55 39.6 126.2 73.95 147.05 122.5 147.05 171.05 147.05 205.35 126.2 234.4 108.55 238.8 82.05 123.55 107.65 6.15 82.05;M9.85 81.95 L10.2 84.45 Q14.15 107.65 42.25 124.75 75.5 144.95 122.55 144.95 169.6 144.95 202.8 124.75 230.95 107.65 235.25 81.95 123.55 106.75 9.85 81.95"/>
    </path>
    <path d="M-4.0 79.0 Q-4.15 44.95 34.0 21.0 71.5 -2.55 124.5 -2.55 177.5 -2.55 215.0 21.0 253.2 44.95 253.05 79.0 L252.85 84.6 252.5 87.45 Q248.3 116.05 215.0 136.95 177.5 160.5 124.5 160.5 71.5 160.5 34.0 136.95 0.75 116.05 -3.4 87.45 L-3.75 84.6 Q-3.85 81.8 -4.0 79.0 M1.75 76.9 Q1.55 45.85 37.45 24.05 72.7 2.55 122.5 2.55 172.3 2.55 207.5 24.05 243.4 45.85 243.25 76.9 L243.05 82.05 Q238.8 110.7 207.5 129.7 172.3 151.2 122.5 151.2 72.7 151.2 37.45 129.7 6.15 110.7 2.3 84.6 L2.0 82.05 Q1.9 79.5 1.75 76.9 1.55 45.85 37.45 24.05 72.7 2.55 122.5 2.55 172.3 2.55 207.5 24.05 243.4 45.85 243.25 76.9 L243.05 82.05 238.8 82.05 239.15 76.9 Q239.0 48.05 205.35 27.55 171.05 6.7 122.5 6.7 73.95 6.7 39.6 27.55 6.0 48.05 5.85 76.9 5.85 79.5 6.15 82.05 L2.0 82.05 Q1.9 79.5 1.75 76.9 M2.0 82.05 L6.15 82.05 Q10.6 108.55 39.6 126.2 73.95 147.05 122.5 147.05 171.05 147.05 205.35 126.2 234.4 108.55 238.45 84.6 L238.8 82.05 243.05 82.05 242.75 84.6 Q238.8 110.7 207.5 129.7 172.3 151.2 122.5 151.2 72.7 151.2 37.45 129.7 6.15 110.7 2.3 84.6 L2.0 82.05 M5.85 76.9 Q6.0 48.05 39.6 27.55 73.95 6.7 122.5 6.7 171.05 6.7 205.35 27.55 239.0 48.05 239.15 76.9 L238.8 82.05 Q123.55 107.65 6.15 82.05 5.85 79.5 5.85 76.9 M6.15 82.05 Q123.55 107.65 238.8 82.05 234.4 108.55 205.35 126.2 171.05 147.05 122.5 147.05 73.95 147.05 39.6 126.2 10.6 108.55 6.55 84.6 L6.15 82.05 Z" fill="none" stroke="#000000" stroke-linecap="round" stroke-linejoin="round" stroke-opacity="0.0" stroke-width="0.0">
      <animate attributeName="stroke" dur="2s" repeatCount="indefinite" values="#000000;#000001"/>
      <animate attributeName="stroke-width" dur="2s" repeatCount="indefinite" values="0.0;0.0"/>
      <animate attributeName="fill-opacity" dur="2s" repeatCount="indefinite" values="0.0;0.0"/>
      <animate attributeName="d" dur="2s" repeatCount="indefinite" values="M-4.0 79.0 Q-4.15 44.95 34.0 21.0 71.5 -2.55 124.5 -2.55 177.5 -2.55 215.0 21.0 253.2 44.95 253.05 79.0 L252.85 84.6 252.5 87.45 Q248.3 116.05 215.0 136.95 177.5 160.5 124.5 160.5 71.5 160.5 34.0 136.95 0.75 116.05 -3.4 87.45 L-3.75 84.6 Q-3.85 81.8 -4.0 79.0 M1.75 76.9 Q1.55 45.85 37.45 24.05 72.7 2.55 122.5 2.55 172.3 2.55 207.5 24.05 243.4 45.85 243.25 76.9 L243.05 82.05 Q238.8 110.7 207.5 129.7 172.3 151.2 122.5 151.2 72.7 151.2 37.45 129.7 6.15 110.7 2.3 84.6 L2.0 82.05 Q1.9 79.5 1.75 76.9 1.55 45.85 37.45 24.05 72.7 2.55 122.5 2.55 172.3 2.55 207.5 24.05 243.4 45.85 243.25 76.9 L243.05 82.05 238.8 82.05 239.15 76.9 Q239.0 48.05 205.35 27.55 171.05 6.7 122.5 6.7 73.95 6.7 39.6 27.55 6.0 48.05 5.85 76.9 5.85 79.5 6.15 82.05 L2.0 82.05 Q1.9 79.5 1.75 76.9 M2.0 82.05 L6.15 82.05 Q10.6 108.55 39.6 126.2 73.95 147.05 122.5 147.05 171.05 147.05 205.35 126.2 234.4 108.55 238.45 84.6 L238.8 82.05 243.05 82.05 242.75 84.6 Q238.8 110.7 207.5 129.7 172.3 151.2 122.5 151.2 72.7 151.2 37.45 129.7 6.15 110.7 2.3 84.6 L2.0 82.05 M5.85 76.9 Q6.0 48.05 39.6 27.55 73.95 6.7 122.5 6.7 171.05 6.7 205.35 27.55 239.0 48.05 239.15 76.9 L238.8 82.05 Q123.55 107.65 6.15 82.05 5.85 79.5 5.85 76.9 M6.15 82.05 Q123.55 107.65 238.8 82.05 234.4 108.55 205.35 126.2 171.05 147.05 122.5 147.05 73.95 147.05 39.6 126.2 10.6 108.55 6.55 84.6 L6.15 82.05 Z;M0.0 79.0 Q-0.15 46.0 36.8 22.8 73.15 0.0 124.5 0.0 175.85 0.0 212.15 22.8 249.2 46.0 249.05 79.0 L248.85 84.45 248.5 87.2 Q244.45 114.9 212.15 135.15 175.85 157.95 124.5 157.95 73.15 157.95 36.8 135.15 4.6 114.9 0.6 87.2 L0.25 84.45 Q0.0 81.8 0.0 79.0 M5.55 76.95 Q5.4 46.9 40.15 25.75 74.3 4.95 122.55 4.95 170.8 4.95 204.9 25.75 239.7 46.9 239.55 76.95 L239.35 81.95 Q235.25 109.7 204.9 128.15 170.8 148.95 122.55 148.95 74.3 148.95 40.15 128.15 9.85 109.7 6.1 84.45 L5.8 81.95 Q5.55 79.5 5.55 76.95 5.4 46.9 40.15 25.75 74.3 4.95 122.55 4.95 170.8 4.95 204.9 25.75 239.7 46.9 239.55 76.95 L239.35 81.95 235.25 81.95 235.55 76.95 Q235.4 49.0 202.8 29.15 169.6 8.95 122.55 8.95 75.5 8.95 42.25 29.15 9.7 49.0 9.55 76.95 9.55 79.5 9.85 81.95 L5.8 81.95 Q5.55 79.5 5.55 76.95 M5.8 81.95 L9.85 81.95 Q14.15 107.65 42.25 124.75 75.5 144.95 122.55 144.95 169.6 144.95 202.8 124.75 230.95 107.65 234.9 84.45 L235.25 81.95 239.35 81.95 239.05 84.45 Q235.25 109.7 204.9 128.15 170.8 148.95 122.55 148.95 74.3 148.95 40.15 128.15 9.85 109.7 6.1 84.45 L5.8 81.95 M9.55 76.95 Q9.7 49.0 42.25 29.15 75.5 8.95 122.55 8.95 169.6 8.95 202.8 29.15 235.4 49.0 235.55 76.95 L235.25 81.95 Q123.55 106.75 9.85 81.95 9.55 79.5 9.55 76.95 M9.85 81.95 Q123.55 106.75 235.25 81.95 230.95 107.65 202.8 124.75 169.6 144.95 122.55 144.95 75.5 144.95 42.25 124.75 14.15 107.65 10.2 84.45 L9.85 81.95 Z"/>
    </path>
  </g>
</svg>
