<?xml version="1.0" encoding="UTF-8" standalone="no"?>
<svg xmlns:ffdec="https://www.free-decompiler.com/flash" xmlns:xlink="http://www.w3.org/1999/xlink" ffdec:objectType="morphshape" height="16.8px" width="16.8px" xmlns="http://www.w3.org/2000/svg">
  <g transform="matrix(1.0, 0.0, 0.0, 1.0, -0.8, -1.5)">
    <path d="M0.8 9.9 Q0.8 13.4 3.25 15.85 5.7 18.3 9.2 18.3 12.7 18.3 15.15 15.85 17.6 13.4 17.6 9.9 17.6 6.4 15.15 3.95 12.7 1.5 9.2 1.5 5.7 1.5 3.25 3.95 0.8 6.4 0.8 9.9" fill="#ffffff" fill-rule="evenodd" stroke="none">
      <animate attributeName="fill" dur="2s" repeatCount="indefinite" values="#ffffff;#ffffff"/>
      <animate attributeName="fill-opacity" dur="2s" repeatCount="indefinite" values="1.0;0.0"/>
      <animate attributeName="d" dur="2s" repeatCount="indefinite" values="M0.8 9.9 Q0.8 13.4 3.25 15.85 5.7 18.3 9.2 18.3 12.7 18.3 15.15 15.85 17.6 13.4 17.6 9.9 17.6 6.4 15.15 3.95 12.7 1.5 9.2 1.5 5.7 1.5 3.25 3.95 0.8 6.4 0.8 9.9;M0.8 9.9 Q0.8 13.4 3.25 15.85 5.7 18.3 9.2 18.3 12.7 18.3 15.15 15.85 17.6 13.4 17.6 9.9 17.6 6.4 15.15 3.95 12.7 1.5 9.2 1.5 5.7 1.5 3.25 3.95 0.8 6.4 0.8 9.9"/>
    </path>
    <path d="M0.8 9.9 Q0.8 6.4 3.25 3.95 5.7 1.5 9.2 1.5 12.7 1.5 15.15 3.95 17.6 6.4 17.6 9.9 17.6 13.4 15.15 15.85 12.7 18.3 9.2 18.3 5.7 18.3 3.25 15.85 0.8 13.4 0.8 9.9 Z" fill="none" stroke="#000000" stroke-linecap="round" stroke-linejoin="round" stroke-opacity="0.0" stroke-width="0.0">
      <animate attributeName="stroke" dur="2s" repeatCount="indefinite" values="#000000;#000001"/>
      <animate attributeName="stroke-width" dur="2s" repeatCount="indefinite" values="0.0;0.0"/>
      <animate attributeName="fill-opacity" dur="2s" repeatCount="indefinite" values="0.0;0.0"/>
      <animate attributeName="d" dur="2s" repeatCount="indefinite" values="M0.8 9.9 Q0.8 6.4 3.25 3.95 5.7 1.5 9.2 1.5 12.7 1.5 15.15 3.95 17.6 6.4 17.6 9.9 17.6 13.4 15.15 15.85 12.7 18.3 9.2 18.3 5.7 18.3 3.25 15.85 0.8 13.4 0.8 9.9 Z;M0.8 9.9 Q0.8 6.4 3.25 3.95 5.7 1.5 9.2 1.5 12.7 1.5 15.15 3.95 17.6 6.4 17.6 9.9 17.6 13.4 15.15 15.85 12.7 18.3 9.2 18.3 5.7 18.3 3.25 15.85 0.8 13.4 0.8 9.9 Z"/>
    </path>
  </g>
</svg>
