<?xml version="1.0" encoding="UTF-8" standalone="no"?>
<svg xmlns:ffdec="https://www.free-decompiler.com/flash" xmlns:xlink="http://www.w3.org/1999/xlink" ffdec:objectType="shape" height="125.95px" width="74.75px" xmlns="http://www.w3.org/2000/svg">
  <g transform="matrix(1.0, 0.0, 0.0, 1.0, 33.8, 135.85)">
    <path d="M2.85 -124.85 L4.0 -124.0 3.9 -123.95 1.7 -121.95 -2.85 -120.0 -3.45 -119.95 -3.55 -119.95 -4.05 -119.95 -4.65 -120.0 -4.15 -121.55 -2.45 -121.65 -2.0 -121.75 Q-0.4 -122.2 1.05 -123.25 L2.85 -124.85 M-3.25 -119.0 Q-4.5 -116.7 -4.5 -113.4 -4.5 -110.1 -3.25 -107.75 -2.0 -105.45 -0.2 -105.45 1.6 -105.45 2.85 -107.75 4.1 -110.1 4.1 -113.4 4.1 -116.7 2.85 -119.0 2.15 -120.3 1.3 -120.85 L3.9 -122.9 4.55 -123.5 6.2 -121.45 Q7.8 -119.1 8.55 -116.7 8.55 -114.2 7.55 -110.05 6.7 -106.35 5.6 -103.6 L5.75 -103.1 6.6 -102.9 8.45 -103.65 10.0 -104.5 10.1 -102.75 Q10.1 -102.1 8.8 -98.55 L8.2 -96.95 7.4 -94.75 7.55 -94.35 Q7.7 -93.85 8.0 -93.5 L12.25 -96.75 Q12.7 -94.75 12.6 -92.75 12.3 -88.15 9.0 -83.75 6.5 -80.4 2.3 -76.35 L2.45 -75.7 Q2.65 -75.4 3.3 -75.4 3.7 -75.4 6.5 -77.95 9.3 -80.5 10.35 -80.5 12.05 -80.5 15.4 -77.05 15.4 -74.55 14.7 -72.9 13.65 -70.35 10.85 -67.75 L8.25 -65.6 Q8.65 -65.4 8.55 -64.8 L12.6 -64.35 15.55 -65.3 19.75 -66.75 19.0 -62.0 20.25 -52.25 Q20.15 -50.95 16.55 -48.15 12.75 -45.15 12.5 -44.5 L12.85 -44.15 Q15.0 -42.0 18.95 -42.0 L24.75 -42.75 25.7 -42.45 Q23.85 -41.75 22.25 -40.5 L20.6 -38.95 Q21.2 -38.3 22.7 -37.65 24.3 -36.6 26.0 -33.35 25.45 -32.95 22.9 -32.15 21.1 -31.55 20.65 -30.35 21.25 -29.1 24.2 -27.9 26.75 -26.85 26.75 -25.3 26.75 -17.6 21.35 -15.75 L10.8 -15.1 Q9.3 -15.1 7.95 -16.3 L6.6 -17.5 Q6.0 -17.5 5.95 -17.15 L5.8 -16.45 Q5.35 -15.4 1.3 -15.4 -6.95 -15.4 -7.8 -16.5 -7.4 -17.75 -9.0 -18.15 L-9.95 -17.15 Q-10.5 -16.6 -11.35 -16.6 L-19.7 -18.0 Q-19.6 -18.6 -19.65 -21.75 L-19.75 -25.5 -19.15 -30.75 -11.85 -30.1 -6.4 -29.85 Q-4.2 -29.85 -3.0 -31.2 -4.0 -32.4 -8.2 -33.65 L-16.55 -35.8 -16.2 -44.15 -15.7 -51.3 -15.35 -55.4 -11.1 -56.15 Q-9.05 -56.4 -8.4 -56.9 L-8.1 -57.25 -11.65 -58.65 -15.0 -59.9 Q-14.35 -60.95 -14.35 -62.0 L-13.0 -61.4 Q-11.5 -61.3 -10.7 -64.0 -9.15 -65.15 -6.8 -67.55 L-6.6 -67.75 Q-4.75 -69.7 -4.45 -70.2 -4.45 -70.7 -5.0 -70.9 L-7.45 -69.9 -10.1 -68.95 Q-10.3 -70.75 -11.0 -73.4 L-11.65 -76.8 -10.9 -81.65 -10.7 -82.9 Q-9.85 -88.9 -9.75 -91.65 L-9.75 -91.85 -9.7 -92.75 -9.35 -96.95 Q-8.75 -100.45 -7.1 -101.2 L-4.55 -101.6 -1.65 -102.0 Q-1.4 -101.7 -1.4 -102.7 L-4.35 -103.65 Q-7.35 -104.35 -7.35 -105.1 -7.35 -110.35 -5.2 -118.05 L-4.9 -119.0 -4.0 -118.95 -3.25 -119.0 M4.5 -99.75 Q-0.1 -99.75 -3.1 -96.95 -4.85 -95.3 -6.05 -92.75 L-6.5 -91.65 -7.35 -89.15 Q-8.15 -86.25 -8.4 -81.65 L-8.6 -75.7 -8.45 -73.55 Q-8.2 -72.35 -7.4 -72.35 -2.35 -72.35 5.0 -84.65 5.0 -87.35 3.45 -87.5 1.45 -87.2 0.5 -87.5 L2.95 -92.75 4.85 -96.95 5.5 -98.7 5.35 -99.35 Q5.15 -99.75 4.5 -99.75 M12.3 -75.85 L11.95 -76.4 10.55 -76.55 Q3.1 -72.4 -2.5 -68.25 L-3.15 -67.75 Q-13.35 -60.0 -4.65 -60.0 4.0 -60.0 6.25 -61.8 5.55 -62.45 3.75 -62.55 L-2.7 -62.6 5.05 -67.75 Q12.4 -73.05 12.4 -75.1 L12.3 -75.85 M15.5 -56.65 Q15.5 -58.45 15.05 -59.15 14.6 -59.8 13.5 -59.8 0.15 -55.4 -4.5 -54.1 -10.4 -52.1 -11.8 -50.2 -12.9 -48.65 -13.05 -44.15 L-13.1 -42.45 -13.0 -38.75 -12.25 -38.8 -11.1 -39.0 Q-8.7 -39.0 2.85 -34.8 14.35 -30.65 17.35 -30.65 19.0 -30.65 19.0 -32.1 19.0 -34.15 16.1 -36.5 13.2 -38.85 4.65 -43.75 L5.15 -44.15 12.1 -50.15 Q15.5 -53.1 15.5 -56.65 M3.35 -31.35 Q2.15 -31.35 -2.15 -28.25 L-6.25 -25.05 Q-6.25 -19.25 -1.25 -19.25 L2.3 -19.65 Q2.5 -19.75 2.5 -20.7 L2.2 -22.55 1.5 -25.2 1.6 -25.75 Q7.3 -20.55 11.65 -20.15 16.3 -19.7 24.5 -24.05 24.35 -25.0 23.05 -25.8 20.75 -27.25 13.05 -28.9 L6.7 -30.45 3.35 -31.35 M-16.05 -26.3 Q-17.25 -25.1 -17.25 -23.4 -17.25 -21.7 -16.05 -20.5 -14.85 -19.3 -13.15 -19.3 -11.45 -19.3 -10.25 -20.5 -9.05 -21.7 -9.05 -23.4 -9.05 -25.1 -10.25 -26.3 -11.45 -27.5 -13.15 -27.5 -14.85 -27.5 -16.05 -26.3" fill="#6ca32c" fill-rule="evenodd" stroke="none"/>
    <path d="M1.3 -120.85 Q2.15 -120.3 2.85 -119.0 4.1 -116.7 4.1 -113.4 4.1 -110.1 2.85 -107.75 1.6 -105.45 -0.2 -105.45 -2.0 -105.45 -3.25 -107.75 -4.5 -110.1 -4.5 -113.4 -4.5 -116.7 -3.25 -119.0 -1.15 -119.25 1.3 -120.85 M4.5 -99.75 Q5.15 -99.75 5.35 -99.35 L5.5 -98.7 4.85 -96.95 2.95 -92.75 0.5 -87.5 Q1.45 -87.2 3.45 -87.5 5.0 -87.35 5.0 -84.65 -2.35 -72.35 -7.4 -72.35 -8.2 -72.35 -8.45 -73.55 L-8.6 -75.7 -8.4 -81.65 Q-8.15 -86.25 -7.35 -89.15 L-6.5 -91.65 -6.05 -92.75 Q-4.85 -95.3 -3.1 -96.95 -0.1 -99.75 4.5 -99.75 M3.35 -31.35 L6.7 -30.45 13.05 -28.9 Q20.75 -27.25 23.05 -25.8 24.35 -25.0 24.5 -24.05 16.3 -19.7 11.65 -20.15 7.3 -20.55 1.6 -25.75 L1.5 -25.2 2.2 -22.55 2.5 -20.7 Q2.5 -19.75 2.3 -19.65 L-1.25 -19.25 Q-6.25 -19.25 -6.25 -25.05 L-2.15 -28.25 Q2.15 -31.35 3.35 -31.35 M15.5 -56.65 Q15.5 -53.1 12.1 -50.15 L5.15 -44.15 4.65 -43.75 Q13.2 -38.85 16.1 -36.5 19.0 -34.15 19.0 -32.1 19.0 -30.65 17.35 -30.65 14.35 -30.65 2.85 -34.8 -8.7 -39.0 -11.1 -39.0 L-12.25 -38.8 -13.0 -38.75 -13.1 -42.45 -13.05 -44.15 Q-12.9 -48.65 -11.8 -50.2 -10.4 -52.1 -4.5 -54.1 0.15 -55.4 13.5 -59.8 14.6 -59.8 15.05 -59.15 15.5 -58.45 15.5 -56.65 M12.3 -75.85 L12.4 -75.1 Q12.4 -73.05 5.05 -67.75 L-2.7 -62.6 3.75 -62.55 Q5.55 -62.45 6.25 -61.8 4.0 -60.0 -4.65 -60.0 -13.35 -60.0 -3.15 -67.75 L-2.5 -68.25 Q3.1 -72.4 10.55 -76.55 L11.95 -76.4 12.3 -75.85 M-16.05 -26.3 Q-14.85 -27.5 -13.15 -27.5 -11.45 -27.5 -10.25 -26.3 -9.05 -25.1 -9.05 -23.4 -9.05 -21.7 -10.25 -20.5 -11.45 -19.3 -13.15 -19.3 -14.85 -19.3 -16.05 -20.5 -17.25 -21.7 -17.25 -23.4 -17.25 -25.1 -16.05 -26.3" fill="#7bb832" fill-rule="evenodd" stroke="none"/>
    <path d="M4.0 -124.0 L2.85 -124.85 4.75 -127.45 5.7 -129.55 6.85 -127.75 4.0 -124.0 M-4.15 -121.55 L-4.65 -120.0 Q-5.7 -120.15 -6.45 -120.9 L-5.8 -122.4 -5.5 -122.15 Q-4.95 -121.65 -4.15 -121.55 M20.35 -12.05 L8.95 -11.5 -7.55 -12.1 -18.5 -15.1 Q-25.85 -17.0 -25.85 -18.6 -25.85 -28.25 -23.5 -31.8 L-21.8 -33.5 -20.85 -34.3 -22.1 -40.25 -21.45 -44.15 -20.6 -49.7 Q-19.75 -55.25 -17.6 -57.85 L-18.45 -61.95 Q-17.65 -64.15 -16.85 -67.75 -15.8 -72.7 -14.7 -80.2 L-14.45 -81.65 -13.0 -91.65 -12.85 -92.75 -12.2 -96.95 -11.3 -103.0 Q-9.45 -113.35 -6.9 -119.8 -6.05 -119.2 -4.9 -119.0 L-5.2 -118.05 Q-7.35 -110.35 -7.35 -105.1 -7.35 -104.35 -4.35 -103.65 L-1.4 -102.7 Q-1.4 -101.7 -1.65 -102.0 L-4.55 -101.6 -7.1 -101.2 Q-8.75 -100.45 -9.35 -96.95 L-9.7 -92.75 -9.75 -91.85 -9.75 -91.65 Q-9.85 -88.9 -10.7 -82.9 L-10.9 -81.65 -11.65 -76.8 -11.0 -73.4 Q-10.3 -70.75 -10.1 -68.95 L-7.45 -69.9 -5.0 -70.9 Q-4.45 -70.7 -4.45 -70.2 -4.75 -69.7 -6.6 -67.75 L-6.8 -67.55 Q-9.15 -65.15 -10.7 -64.0 -11.5 -61.3 -13.0 -61.4 L-14.35 -62.0 Q-14.35 -60.95 -15.0 -59.9 L-11.65 -58.65 -8.1 -57.25 -8.4 -56.9 Q-9.05 -56.4 -11.1 -56.15 L-15.35 -55.4 -15.7 -51.3 -16.2 -44.15 -16.55 -35.8 -8.2 -33.65 Q-4.0 -32.4 -3.0 -31.2 -4.2 -29.85 -6.4 -29.85 L-11.85 -30.1 -19.15 -30.75 -19.75 -25.5 -19.65 -21.75 Q-19.6 -18.6 -19.7 -18.0 L-11.35 -16.6 Q-10.5 -16.6 -9.95 -17.15 L-9.0 -18.15 Q-7.4 -17.75 -7.8 -16.5 -6.95 -15.4 1.3 -15.4 5.35 -15.4 5.8 -16.45 L5.95 -17.15 Q6.0 -17.5 6.6 -17.5 L7.95 -16.3 Q9.3 -15.1 10.8 -15.1 L21.35 -15.75 Q26.75 -17.6 26.75 -25.3 26.75 -26.85 24.2 -27.9 21.25 -29.1 20.65 -30.35 21.1 -31.55 22.9 -32.15 25.45 -32.95 26.0 -33.35 24.3 -36.6 22.7 -37.65 21.2 -38.3 20.6 -38.95 L22.25 -40.5 Q23.85 -41.75 25.7 -42.45 L24.75 -42.75 18.95 -42.0 Q15.0 -42.0 12.85 -44.15 L12.5 -44.5 Q12.75 -45.15 16.55 -48.15 20.15 -50.95 20.25 -52.25 L19.0 -62.0 19.75 -66.75 15.55 -65.3 12.6 -64.35 8.55 -64.8 Q8.65 -65.4 8.25 -65.6 L10.85 -67.75 Q13.65 -70.35 14.7 -72.9 15.4 -74.55 15.4 -77.05 12.05 -80.5 10.35 -80.5 9.3 -80.5 6.5 -77.95 3.7 -75.4 3.3 -75.4 2.65 -75.4 2.45 -75.7 L2.3 -76.35 Q6.5 -80.4 9.0 -83.75 12.3 -88.15 12.6 -92.75 12.7 -94.75 12.25 -96.75 L8.0 -93.5 Q7.7 -93.85 7.55 -94.35 L7.4 -94.75 8.2 -96.95 8.8 -98.55 Q10.1 -102.1 10.1 -102.75 L10.0 -104.5 8.45 -103.65 6.6 -102.9 5.75 -103.1 5.6 -103.6 Q6.7 -106.35 7.55 -110.05 8.55 -114.2 8.55 -116.7 7.8 -119.1 6.2 -121.45 L4.55 -123.5 Q6.5 -125.3 7.35 -126.65 9.7 -121.3 11.75 -108.9 L13.6 -96.95 14.2 -92.75 15.1 -85.65 Q16.25 -85.75 18.0 -86.6 19.0 -84.0 20.65 -80.9 L20.9 -76.7 Q20.9 -74.25 20.3 -72.4 L19.65 -70.85 Q19.65 -70.2 20.0 -70.05 L20.6 -69.95 22.4 -71.1 23.35 -67.75 25.35 -60.85 Q28.25 -50.95 28.25 -48.6 L26.9 -47.7 Q25.35 -46.85 24.5 -45.45 L25.25 -44.75 29.0 -44.9 29.2 -44.15 Q31.6 -34.95 32.3 -30.95 32.9 -27.7 32.9 -24.35 32.9 -18.7 29.5 -16.7 28.85 -16.3 25.55 -14.85 22.55 -13.55 20.35 -12.05" fill="#639427" fill-rule="evenodd" stroke="none"/>
    <path d="M4.0 -124.0 L6.85 -127.75 5.7 -129.55 Q5.95 -130.75 5.7 -131.7 5.55 -132.5 5.0 -133.15 L7.0 -131.55 Q9.6 -128.85 11.85 -122.55 14.15 -116.25 19.25 -96.95 L20.35 -92.75 22.55 -84.05 26.95 -67.75 32.9 -44.15 33.75 -40.7 Q38.95 -19.35 38.95 -17.7 L39.0 -16.3 Q38.8 -15.6 37.45 -15.1 34.4 -13.85 20.35 -12.05 22.55 -13.55 25.55 -14.85 28.85 -16.3 29.5 -16.7 32.9 -18.7 32.9 -24.35 32.9 -27.7 32.3 -30.95 31.6 -34.95 29.2 -44.15 L29.0 -44.9 25.25 -44.75 24.5 -45.45 Q25.35 -46.85 26.9 -47.7 L28.25 -48.6 Q28.25 -50.95 25.35 -60.85 L23.35 -67.75 22.4 -71.1 20.6 -69.95 20.0 -70.05 Q19.65 -70.2 19.65 -70.85 L20.3 -72.4 Q20.9 -74.25 20.9 -76.7 L20.65 -80.9 Q19.0 -84.0 18.0 -86.6 16.25 -85.75 15.1 -85.65 L14.2 -92.75 13.6 -96.95 11.75 -108.9 Q9.7 -121.3 7.35 -126.65 6.5 -125.3 4.55 -123.5 L3.9 -122.9 1.3 -120.85 Q-1.15 -119.25 -3.25 -119.0 L-4.0 -118.95 -4.9 -119.0 Q-6.05 -119.2 -6.9 -119.8 -9.45 -113.35 -11.3 -103.0 L-12.2 -96.95 -12.85 -92.75 -13.0 -91.65 -14.45 -81.65 -14.7 -80.2 Q-15.8 -72.7 -16.85 -67.75 -17.65 -64.15 -18.45 -61.95 L-17.6 -57.85 Q-19.75 -55.25 -20.6 -49.7 L-21.45 -44.15 -22.1 -40.25 -20.85 -34.3 -21.8 -33.5 -23.5 -31.8 Q-25.85 -28.25 -25.85 -18.6 -25.85 -17.0 -18.5 -15.1 L-7.55 -12.1 Q-23.95 -14.55 -28.35 -15.65 -31.95 -16.55 -31.95 -17.9 L-26.45 -44.15 -21.45 -67.75 -18.4 -81.65 -17.8 -84.5 -16.3 -91.65 -16.1 -92.75 -15.3 -96.95 -14.0 -104.75 -11.05 -120.55 Q-9.35 -127.6 -7.0 -130.8 L-5.15 -132.7 Q-7.4 -129.75 -7.0 -125.6 -6.8 -123.4 -5.8 -122.4 L-6.45 -120.9 Q-5.7 -120.15 -4.65 -120.0 L-4.05 -119.95 -3.55 -119.95 -3.45 -119.95 -2.85 -120.0 1.7 -121.95 3.9 -123.95 4.0 -124.0" fill="#4f761f" fill-rule="evenodd" stroke="none"/>
    <path d="M4.55 -130.5 L4.5 -131.4 Q4.1 -132.7 2.4 -133.5 -1.25 -135.25 -3.6 -132.6 -6.15 -129.8 -5.75 -125.7 -5.65 -124.4 -5.15 -123.65 L-4.75 -123.15 Q-4.3 -122.85 -3.65 -122.8 L-2.35 -122.95 Q-0.1 -123.6 1.75 -125.5 L3.7 -128.1 3.65 -128.1 Q4.4 -129.45 4.55 -130.5 M5.7 -129.55 L4.75 -127.45 2.85 -124.85 1.05 -123.25 Q-0.4 -122.2 -2.0 -121.75 L-2.45 -121.65 -4.15 -121.55 Q-4.95 -121.65 -5.5 -122.15 L-5.8 -122.4 Q-6.8 -123.4 -7.0 -125.6 -7.4 -129.75 -5.15 -132.7 L-7.0 -130.8 Q-9.35 -127.6 -11.05 -120.55 L-14.0 -104.75 -15.3 -96.95 -16.1 -92.75 -16.3 -91.65 -17.8 -84.5 -18.4 -81.65 -21.45 -67.75 -26.45 -44.15 -31.95 -17.9 Q-31.95 -16.55 -28.35 -15.65 -23.95 -14.55 -7.55 -12.1 L8.95 -11.5 20.35 -12.05 Q34.4 -13.85 37.45 -15.1 38.8 -15.6 39.0 -16.3 L38.95 -17.7 Q38.95 -19.35 33.75 -40.7 L32.9 -44.15 26.95 -67.75 22.55 -84.05 20.35 -92.75 19.25 -96.95 Q14.15 -116.25 11.85 -122.55 9.6 -128.85 7.0 -131.55 L5.0 -133.15 Q5.55 -132.5 5.7 -131.7 5.95 -130.75 5.7 -129.55 M12.75 -124.0 Q14.7 -118.85 17.6 -107.85 L20.35 -96.95 21.3 -92.75 21.8 -90.35 28.4 -67.75 34.5 -44.15 37.25 -32.35 Q39.6 -21.85 40.95 -14.45 L39.55 -14.45 Q29.55 -11.65 25.8 -11.0 L7.35 -9.9 -15.3 -11.25 Q-29.25 -13.0 -32.55 -15.95 L-33.8 -16.85 -32.65 -23.8 -28.2 -44.15 -23.05 -67.75 -21.2 -76.15 -20.0 -81.65 -17.85 -91.65 -17.6 -92.75 -16.7 -96.95 Q-14.2 -108.8 -13.4 -113.3 -11.3 -124.85 -9.8 -128.55 -6.8 -135.85 -0.7 -135.85 4.6 -135.85 7.7 -132.5 10.8 -129.2 12.75 -124.0" fill="#24380e" fill-rule="evenodd" stroke="none"/>
  </g>
</svg>
