<?xml version="1.0" encoding="UTF-8" standalone="no"?>
<svg xmlns:ffdec="https://www.free-decompiler.com/flash" xmlns:xlink="http://www.w3.org/1999/xlink" ffdec:objectType="shape" height="30.85px" width="41.2px" xmlns="http://www.w3.org/2000/svg">
  <g transform="matrix(1.0, 0.0, 0.0, 1.0, 4.4, 10.65)">
    <path d="M3.9 7.1 L7.7 7.35 Q17.4 7.35 23.75 3.5 28.75 0.45 34.25 -6.9 L34.75 -0.7 Q32.9 5.0 23.55 7.95 16.6 10.15 8.8 10.15 5.0 8.8 3.4 7.05 L3.9 7.1" fill="#e5e5e5" fill-rule="evenodd" stroke="none"/>
    <path d="M34.55 7.3 Q34.1 9.15 33.55 9.95 32.75 11.05 28.85 13.95 28.55 10.6 30.45 8.8 32.05 7.3 34.55 7.3" fill="#b45f50" fill-rule="evenodd" stroke="none"/>
    <path d="M34.75 -0.7 L34.25 -6.9 Q28.75 0.45 23.75 3.5 17.4 7.35 7.7 7.35 L3.9 7.1 0.85 6.55 -1.95 5.95 Q2.2 13.5 7.0 16.35 10.2 18.3 14.55 18.3 18.3 18.3 22.3 17.1 25.9 16.0 27.85 14.6 L28.85 13.95 Q32.75 11.05 33.55 9.95 34.1 9.15 34.55 7.3 L34.7 5.65 34.8 1.15 34.75 -0.7 M36.75 1.65 Q36.4 8.5 34.65 11.45 32.2 15.65 26.4 18.1 21.4 20.2 16.05 20.2 8.85 20.2 4.9 17.0 1.05 13.85 -4.4 3.8 L1.7 4.7 7.9 5.35 Q15.75 5.35 22.0 2.3 30.3 -1.7 34.7 -10.65 37.2 -6.2 36.75 1.65" fill="#682424" fill-rule="evenodd" stroke="none"/>
    <path d="M34.8 1.15 L34.7 5.65 Q31.85 5.65 29.85 8.3 27.85 10.9 27.85 14.6 25.9 16.0 22.3 17.1 18.3 18.3 14.55 18.3 10.2 18.3 7.0 16.35 2.2 13.5 -1.95 5.95 L0.85 6.55 Q4.95 9.75 7.05 10.65 8.8 11.35 11.75 11.35 25.1 11.35 34.8 1.15" fill="#2c1514" fill-rule="evenodd" stroke="none"/>
    <path d="M34.75 -0.7 L34.8 1.15 Q25.1 11.35 11.75 11.35 8.8 11.35 7.05 10.65 4.95 9.75 0.85 6.55 L3.9 7.1 3.4 7.05 Q5.0 8.8 8.8 10.15 16.6 10.15 23.55 7.95 32.9 5.0 34.75 -0.7" fill="#868686" fill-rule="evenodd" stroke="none"/>
    <path d="M34.7 5.65 L34.55 7.3 Q32.05 7.3 30.45 8.8 28.55 10.6 28.85 13.95 L27.85 14.6 Q27.85 10.9 29.85 8.3 31.85 5.65 34.7 5.65" fill="#7c362c" fill-rule="evenodd" stroke="none"/>
  </g>
</svg>
