<?xml version="1.0" encoding="UTF-8" standalone="no"?>
<svg xmlns:ffdec="https://www.free-decompiler.com/flash" xmlns:xlink="http://www.w3.org/1999/xlink" ffdec:objectType="shape" height="7.15px" width="18.75px" xmlns="http://www.w3.org/2000/svg">
  <g transform="matrix(1.0, 0.0, 0.0, 1.0, 2.5, -8.05)">
    <path d="M0.8 13.8 L-0.85 10.1 Q8.6 8.2 14.85 9.5 L15.4 13.95 11.85 12.65 Q7.25 11.5 2.85 13.05 L0.8 13.8" fill="#e5e5e5" fill-rule="evenodd" stroke="none"/>
    <path d="M0.35 13.75 L0.25 13.5 -0.15 12.5 -0.4 11.8 -0.6 11.5 -0.9 11.15 -1.25 11.0 -2.25 10.55 -2.5 10.05 -1.4 9.4 Q3.25 8.0 8.2 8.15 L15.9 8.65 Q16.6 11.85 15.9 15.2 11.8 13.25 7.45 13.3 5.25 13.3 3.35 14.0 L1.2 14.6 0.15 14.7 0.35 13.75 M0.8 13.8 L2.85 13.05 Q7.25 11.5 11.85 12.65 L15.4 13.95 14.85 9.5 Q8.6 8.2 -0.85 10.1 L0.8 13.8" fill="#682424" fill-rule="evenodd" stroke="none"/>
  </g>
</svg>
