<?xml version="1.0" encoding="UTF-8" standalone="no"?>
<svg xmlns:ffdec="https://www.free-decompiler.com/flash" xmlns:xlink="http://www.w3.org/1999/xlink" ffdec:objectType="shape" height="18.15px" width="13.5px" xmlns="http://www.w3.org/2000/svg">
  <g transform="matrix(1.0, 0.0, 0.0, 1.0, 14.05, 9.05)">
    <path d="M-13.5 -3.55 L-13.55 -3.5 Q-13.15 -4.95 -12.35 -6.15 L-12.35 -6.1 -10.9 -7.7 -10.95 -7.7 Q-9.25 -9.15 -7.35 -9.05 -4.4 -9.2 -2.3 -6.15 L-2.3 -6.1 Q-0.55 -3.55 -0.55 0.0 -0.55 3.65 -2.3 6.15 -4.4 9.25 -7.35 9.1 -10.25 9.25 -12.35 6.15 L-12.35 6.1 Q-14.05 3.6 -14.05 0.0 -14.05 -1.85 -13.5 -3.55" fill="#b6ad51" fill-rule="evenodd" stroke="none"/>
    <path d="M-11.75 -2.1 Q-11.4 -3.35 -10.7 -4.4 L-10.7 -4.35 -9.45 -5.7 -9.5 -5.7 Q-8.05 -6.95 -6.4 -6.9 -3.85 -7.0 -2.05 -4.4 L-2.05 -4.35 Q-0.55 -2.15 -0.55 0.9 -0.55 4.05 -2.05 6.2 -3.85 8.85 -6.4 8.75 -8.9 8.85 -10.7 6.2 L-10.7 6.15 Q-12.15 4.0 -12.15 0.9 -12.15 -0.7 -11.7 -2.15 L-11.75 -2.1 M-7.8 -2.4 L-8.35 -1.2 -8.35 -1.15 -8.65 0.9 Q-8.65 2.9 -7.75 4.25 L-7.8 4.25 Q-7.2 5.15 -6.4 5.25 -5.55 5.15 -4.95 4.25 L-4.95 4.2 Q-4.05 2.85 -4.05 0.9 -4.05 -1.05 -4.95 -2.4 -5.55 -3.3 -6.4 -3.4 L-7.25 -3.0 -7.3 -2.95 -7.8 -2.4" fill="#3a2011" fill-rule="evenodd" stroke="none"/>
    <path d="M-7.8 -2.4 L-7.3 -2.95 -7.25 -3.0 -6.4 -3.4 Q-5.55 -3.3 -4.95 -2.4 -4.05 -1.05 -4.05 0.9 -4.05 2.85 -4.95 4.2 L-4.95 4.25 Q-5.55 5.15 -6.4 5.25 -7.2 5.15 -7.8 4.25 L-7.75 4.25 Q-8.65 2.9 -8.65 0.9 L-8.35 -1.15 -8.35 -1.2 -7.8 -2.4" fill="#e7ad74" fill-rule="evenodd" stroke="none"/>
  </g>
</svg>
