<?xml version="1.0" encoding="UTF-8" standalone="no"?>
<svg xmlns:ffdec="https://www.free-decompiler.com/flash" xmlns:xlink="http://www.w3.org/1999/xlink" ffdec:objectType="shape" height="14.75px" width="14.2px" xmlns="http://www.w3.org/2000/svg">
  <g transform="matrix(1.0, 0.0, 0.0, 1.0, 13.45, 5.35)">
    <path d="M-11.6 -5.2 L-10.25 -5.25 -9.75 -5.05 Q-5.0 -2.2 0.75 0.8 L-0.65 1.4 Q-0.9 4.25 -2.3 6.4 L-2.25 6.35 Q-4.2 9.55 -7.0 9.4 -9.85 9.55 -11.8 6.4 -13.45 3.9 -13.45 0.25 -13.45 -1.65 -12.95 -3.2 L-12.65 -4.2 Q-12.3 -4.9 -11.6 -5.2" fill="#b6ad51" fill-rule="evenodd" stroke="none"/>
    <path d="M-10.55 -3.7 L-10.4 -3.75 Q-5.45 -1.8 0.4 0.85 L-0.5 1.65 -0.6 1.9 Q-0.85 4.35 -2.1 6.2 L-2.05 6.15 Q-3.8 8.85 -6.35 8.75 -8.9 8.85 -10.7 6.2 -12.2 4.05 -12.2 0.95 -12.2 -0.7 -11.75 -2.0 L-11.45 -2.85 -10.55 -3.7 M-5.0 4.25 L-5.0 4.2 Q-4.3 3.15 -4.1 1.7 L-8.65 0.2 -8.7 0.95 Q-8.7 2.85 -7.8 4.2 L-7.8 4.25 Q-7.2 5.15 -6.35 5.25 -5.6 5.15 -5.0 4.25" fill="#3a2011" fill-rule="evenodd" stroke="none"/>
    <path d="M-5.0 4.25 Q-5.6 5.15 -6.35 5.25 -7.2 5.15 -7.8 4.25 L-7.8 4.2 Q-8.7 2.85 -8.7 0.95 L-8.65 0.2 -4.1 1.7 Q-4.3 3.15 -5.0 4.2 L-5.0 4.25" fill="#e7ad74" fill-rule="evenodd" stroke="none"/>
  </g>
</svg>
