<?xml version="1.0" encoding="UTF-8" standalone="no"?>
<svg xmlns:ffdec="https://www.free-decompiler.com/flash" xmlns:xlink="http://www.w3.org/1999/xlink" ffdec:objectType="shape" height="7.85px" width="14.0px" xmlns="http://www.w3.org/2000/svg">
  <g transform="matrix(1.0, 0.0, 0.0, 1.0, 14.0, 3.75)">
    <path d="M-12.4 -2.05 L-10.35 -3.35 -6.75 -3.6 Q-4.4 -3.25 -2.45 -1.6 -0.55 0.05 -0.2 1.5 0.15 2.95 -0.15 3.25 L-3.25 3.55 -12.45 4.1 Q-13.95 3.4 -14.0 2.25 -14.05 1.1 -13.6 -0.1 L-12.4 -2.05" fill="#b6ad51" fill-rule="evenodd" stroke="none"/>
    <path d="M-6.3 0.4 Q-9.0 -0.05 -12.25 2.9 L-13.35 2.85 -13.2 2.4 Q-10.45 -2.4 -7.1 -2.25 -3.85 -2.5 -0.4 2.05 -0.15 2.4 -0.2 2.8 L-0.6 3.05 -2.25 2.0 Q-3.6 0.8 -6.3 0.4" fill="#3a2011" fill-rule="evenodd" stroke="none"/>
  </g>
</svg>
