<?xml version="1.0" encoding="UTF-8" standalone="no"?>
<svg xmlns:ffdec="https://www.free-decompiler.com/flash" xmlns:xlink="http://www.w3.org/1999/xlink" ffdec:objectType="shape" height="164.55px" width="109.85px" xmlns="http://www.w3.org/2000/svg">
  <g transform="matrix(1.0, 0.0, 0.0, 1.0, 55.8, 129.1)">
    <path d="M-9.05 -121.15 L-5.5 -124.05 Q-2.5 -126.15 1.05 -126.15 L3.4 -125.75 Q5.35 -125.15 5.85 -123.85 L4.45 -122.9 3.9 -123.45 2.2 -124.4 Q-0.55 -124.85 -5.7 -122.7 L-9.05 -121.15 M-2.65 -98.25 L-2.5 -97.7 Q-8.0 -92.9 -10.65 -91.35 -13.6 -89.65 -16.9 -89.65 -19.8 -89.65 -21.45 -91.5 -23.25 -93.5 -23.25 -97.3 -23.25 -100.5 -21.95 -104.8 -20.45 -109.9 -18.5 -110.8 L-18.45 -110.8 Q-20.1 -107.6 -21.25 -103.35 -22.25 -99.85 -22.25 -98.55 -22.25 -94.85 -20.45 -92.9 -18.8 -91.05 -15.8 -91.05 -12.75 -91.05 -9.95 -92.6 -7.3 -94.1 -2.65 -98.25" fill="#db9c64" fill-rule="evenodd" stroke="none"/>
    <path d="M2.2 -124.4 L3.9 -123.45 4.1 -122.65 Q2.2 -121.45 -0.45 -117.3 -3.2 -113.05 -5.05 -108.2 L-8.95 -106.6 -10.9 -106.0 -12.5 -106.3 -12.65 -107.8 Q-12.65 -117.75 -7.1 -121.7 -4.05 -123.85 2.2 -124.4" fill="#f1ba87" fill-rule="evenodd" stroke="none"/>
    <path d="M-4.5 -9.05 L-4.2 -7.4 Q-9.65 -7.4 -19.1 -9.9 -30.4 -12.85 -34.5 -16.75 L-35.65 -14.6 -36.1 -13.3 Q-36.1 -12.7 -35.7 -11.8 -34.9 -10.05 -32.95 -8.7 L-34.05 -6.95 -34.05 -6.9 -34.5 -4.0 -34.25 -2.65 -33.8 -1.9 -32.05 5.6 -29.95 13.55 -30.65 13.9 Q-30.95 14.1 -30.95 14.7 L-30.75 15.55 -30.6 15.75 -29.55 15.6 -29.55 16.0 -29.55 16.9 -28.85 17.05 Q-25.25 21.15 -19.15 25.25 -7.0 33.45 5.95 33.45 18.4 33.45 27.25 26.45 39.15 17.05 41.95 -3.35 L44.45 -4.5 Q44.75 13.4 33.5 24.45 22.25 35.45 3.8 35.45 -15.15 35.45 -26.6 22.2 -37.25 9.85 -36.05 -6.9 -36.1 -8.7 -36.3 -8.95 L-37.55 -11.25 Q-38.3 -13.0 -38.2 -13.85 L-37.6 -15.4 -34.3 -18.6 Q-34.15 -18.4 -33.5 -18.15 -33.15 -18.05 -33.15 -17.45 -33.15 -15.9 -22.4 -12.7 -12.15 -9.65 -6.45 -9.05 L-4.5 -9.05 M-2.65 0.2 Q-0.75 2.1 3.05 2.45 -5.7 2.3 -13.2 0.25 L-13.65 0.35 Q-13.5 -0.4 -13.5 -1.25 L-2.65 0.2 M-25.55 -3.5 L-26.05 -3.5 -25.35 -4.05 -25.55 -3.5 M-31.25 -7.55 Q-30.15 -6.9 -27.7 -5.6 L-29.85 -4.4 -32.35 -5.85 -31.25 -7.55 M-21.35 -3.15 L-15.5 -1.65 -15.75 0.35 -20.35 -1.5 -20.9 -1.95 -21.35 -3.15" fill="#41245b" fill-rule="evenodd" stroke="none"/>
    <path d="M-4.2 -7.4 L-2.65 0.2 -13.5 -1.25 Q-13.65 -3.75 -15.9 -6.3 -18.3 -9.05 -20.9 -9.05 L-22.05 -8.7 Q-23.25 -8.3 -24.05 -7.7 -24.35 -8.75 -26.35 -9.65 -28.15 -10.5 -29.45 -10.5 L-30.65 -10.0 -32.95 -8.7 Q-34.9 -10.05 -35.7 -11.8 -36.1 -12.7 -36.1 -13.3 L-35.65 -14.6 -34.5 -16.75 Q-30.4 -12.85 -19.1 -9.9 -9.65 -7.4 -4.2 -7.4 M3.05 2.45 L3.45 2.45 9.8 2.25 25.4 1.6 Q32.8 0.4 41.95 -3.35 39.15 17.05 27.25 26.45 18.4 33.45 5.95 33.45 -7.0 33.45 -19.15 25.25 -25.25 21.15 -28.85 17.05 L-29.55 16.9 -29.55 16.0 -29.55 15.6 -29.5 15.45 -29.5 15.6 Q-28.5 14.85 -27.6 13.55 -26.8 12.3 -26.8 11.6 L-26.7 9.55 Q-26.75 8.25 -27.4 8.25 -28.85 5.2 -28.85 2.35 -27.6 -1.9 -26.05 -3.5 L-25.55 -3.5 -25.85 -0.35 -26.15 -0.5 -27.45 3.65 Q-27.45 6.45 -26.0 9.55 -25.35 9.55 -25.35 10.45 L-25.45 12.05 -26.5 15.55 Q-26.5 18.85 -12.85 26.45 -9.5 28.25 -4.15 29.2 L3.15 29.85 Q14.35 29.85 20.6 21.35 25.65 14.55 25.65 5.95 L25.55 4.65 17.35 6.85 6.55 7.7 -1.25 5.9 Q-9.5 4.1 -13.4 4.1 L-16.7 5.3 -17.7 4.9 Q-18.9 4.35 -19.7 3.65 -17.2 3.65 -15.4 2.7 -13.65 1.7 -13.65 0.35 L-13.2 0.25 Q-5.7 2.3 3.05 2.45 M-21.7 1.35 L-22.4 1.1 -22.15 2.35 -23.85 -1.5 -23.7 -2.65 -23.35 -2.8 -21.7 1.35 M-19.25 9.75 Q-17.35 13.3 -17.35 13.6 -17.35 14.95 -18.3 16.15 -19.1 17.2 -20.25 17.8 L-20.8 17.65 -21.05 16.85 -21.0 16.4 -21.0 16.25 -21.0 16.4 Q-20.0 15.5 -19.35 14.2 -18.75 13.0 -18.75 12.3 -18.75 11.4 -19.25 9.75 M-31.25 -7.55 L-30.4 -8.2 -29.45 -8.45 -27.8 -7.8 -25.9 -6.65 -27.7 -5.6 Q-30.15 -6.9 -31.25 -7.55 M-29.85 -4.4 Q-32.0 -3.4 -32.4 -3.4 L-32.5 -4.35 -32.35 -5.85 -29.85 -4.4 M-30.45 -0.15 L-31.85 -0.35 Q-31.2 5.45 -30.5 7.7 L-28.9 11.65 -29.35 12.6 -29.95 13.55 -32.05 5.6 -33.8 -1.9 Q-31.9 -1.3 -29.6 -2.3 L-30.45 -0.15 M-21.35 -3.15 L-23.0 -5.9 -21.9 -6.65 -20.7 -6.9 Q-18.45 -6.9 -16.8 -4.55 -15.6 -2.8 -15.5 -1.65 L-21.35 -3.15 M-15.75 0.35 Q-16.35 2.3 -17.35 2.9 L-19.35 2.85 Q-20.35 2.15 -20.7 0.65 -21.1 -0.9 -20.9 -1.95 L-20.35 -1.5 -15.75 0.35" fill="#5e3483" fill-rule="evenodd" stroke="none"/>
    <path d="M-19.7 3.65 Q-18.9 4.35 -17.7 4.9 L-16.7 5.3 -13.4 4.1 Q-9.5 4.1 -1.25 5.9 L6.55 7.7 17.35 6.85 25.55 4.65 25.65 5.95 Q25.65 14.55 20.6 21.35 14.35 29.85 3.15 29.85 L-4.15 29.2 Q-9.5 28.25 -12.85 26.45 -26.5 18.85 -26.5 15.55 L-25.45 12.05 -25.35 10.45 Q-25.35 9.55 -26.0 9.55 -27.45 6.45 -27.45 3.65 L-26.15 -0.5 -25.85 -0.35 -24.95 3.7 Q-23.2 9.0 -22.05 9.0 -21.4 9.0 -21.05 10.2 -20.8 11.1 -20.8 12.15 -20.8 12.85 -21.6 14.1 L-22.45 15.55 -22.2 16.35 -22.0 16.5 -21.0 16.4 -21.05 16.85 -20.8 17.65 -20.25 17.8 Q-19.1 17.2 -18.3 16.15 -17.35 14.95 -17.35 13.6 -17.35 13.3 -19.25 9.75 L-19.85 7.95 -22.15 2.35 -22.4 1.1 -21.7 1.35 -19.7 3.65 M-28.9 11.65 L-30.5 7.7 Q-31.2 5.45 -31.85 -0.35 L-30.45 -0.15 -30.85 2.2 Q-30.85 4.4 -30.05 6.95 L-29.2 9.3 Q-28.85 10.2 -28.85 10.75 L-28.9 11.65" fill="#6f3e9b" fill-rule="evenodd" stroke="none"/>
    <path d="M-19.7 3.65 L-21.7 1.35 -23.35 -2.8 -23.7 -2.65 -23.85 -1.5 -22.15 2.35 -19.85 7.95 -19.25 9.75 Q-18.75 11.4 -18.75 12.3 -18.75 13.0 -19.35 14.2 -20.0 15.5 -21.0 16.4 L-21.0 16.25 -21.0 16.4 -22.0 16.5 -22.2 16.35 -22.45 15.55 -21.6 14.1 Q-20.8 12.85 -20.8 12.15 -20.8 11.1 -21.05 10.2 -21.4 9.0 -22.05 9.0 -23.2 9.0 -24.95 3.7 L-25.85 -0.35 -25.55 -3.5 -25.35 -4.05 -26.05 -3.5 Q-27.6 -1.9 -28.85 2.35 -28.85 5.2 -27.4 8.25 -26.75 8.25 -26.7 9.55 L-26.8 11.6 Q-26.8 12.3 -27.6 13.55 -28.5 14.85 -29.5 15.6 L-29.5 15.45 -29.55 15.6 -30.6 15.75 -30.75 15.55 -30.95 14.7 Q-30.95 14.1 -30.65 13.9 L-29.95 13.55 -29.35 12.6 -28.9 11.65 -28.85 10.75 Q-28.85 10.2 -29.2 9.3 L-30.05 6.95 Q-30.85 4.4 -30.85 2.2 L-30.45 -0.15 -29.6 -2.3 Q-31.9 -1.3 -33.8 -1.9 L-34.25 -2.65 -34.5 -4.0 -34.05 -6.9 -34.05 -6.95 -32.95 -8.7 -30.65 -10.0 -29.45 -10.5 Q-28.15 -10.5 -26.35 -9.65 -24.35 -8.75 -24.05 -7.7 -23.25 -8.3 -22.05 -8.7 L-20.9 -9.05 Q-18.3 -9.05 -15.9 -6.3 -13.65 -3.75 -13.5 -1.25 -13.5 -0.4 -13.65 0.35 -13.65 1.7 -15.4 2.7 -17.2 3.65 -19.7 3.65 M-27.7 -5.6 L-25.9 -6.65 -27.8 -7.8 -29.45 -8.45 -30.4 -8.2 -31.25 -7.55 -32.35 -5.85 -32.5 -4.35 -32.4 -3.4 Q-32.0 -3.4 -29.85 -4.4 L-27.7 -5.6 M-15.5 -1.65 Q-15.6 -2.8 -16.8 -4.55 -18.45 -6.9 -20.7 -6.9 L-21.9 -6.65 -23.0 -5.9 -21.35 -3.15 -20.9 -1.95 Q-21.1 -0.9 -20.7 0.65 -20.35 2.15 -19.35 2.85 L-17.35 2.9 Q-16.35 2.3 -15.75 0.35 L-15.5 -1.65" fill="#b9ae99" fill-rule="evenodd" stroke="none"/>
    <path d="M-9.05 -121.15 L-5.7 -122.7 Q-0.55 -124.85 2.2 -124.4 -4.05 -123.85 -7.1 -121.7 -12.65 -117.75 -12.65 -107.8 L-12.5 -106.3 -10.9 -106.0 -8.95 -106.6 -5.05 -108.2 -5.2 -107.95 -5.25 -107.2 Q-5.25 -106.2 -2.65 -98.25 -7.3 -94.1 -9.95 -92.6 -12.75 -91.05 -15.8 -91.05 -18.8 -91.05 -20.45 -92.9 -22.25 -94.85 -22.25 -98.55 -22.25 -99.85 -21.25 -103.35 -20.1 -107.6 -18.45 -110.8 -16.1 -110.7 -15.25 -112.35 -12.7 -117.4 -11.05 -119.7 L-9.05 -121.15 M3.9 -123.45 L4.45 -122.9 4.1 -122.65 3.9 -123.45" fill="#ffcc99" fill-rule="evenodd" stroke="none"/>
    <path d="M4.45 -122.9 L5.85 -123.85 Q5.35 -125.15 3.4 -125.75 L1.05 -126.15 Q-2.5 -126.15 -5.5 -124.05 L-9.05 -121.15 -11.05 -119.7 Q-12.7 -117.4 -15.25 -112.35 -16.1 -110.7 -18.45 -110.8 L-18.5 -110.8 -22.4 -110.8 Q-20.9 -111.8 -18.7 -112.5 -16.95 -113.4 -15.55 -116.3 -14.95 -117.6 -11.55 -121.5 L-7.5 -125.85 Q-14.5 -125.9 -22.75 -117.45 -32.2 -107.7 -34.9 -93.45 L-28.05 -104.8 -32.65 -96.2 Q-36.9 -87.9 -39.8 -81.25 -35.1 -108.9 -23.45 -120.05 -13.9 -129.1 3.25 -129.1 9.4 -129.1 17.25 -121.9 25.55 -114.3 27.9 -105.25 L34.9 -75.45 Q40.45 -51.8 44.6 -37.95 49.3 -22.15 52.4 -16.75 L53.75 -14.6 Q54.05 -13.9 54.05 -12.2 54.05 -10.35 53.15 -9.5 51.55 -8.05 44.45 -4.5 L41.95 -3.35 Q32.8 0.4 25.4 1.6 L9.8 2.25 3.45 2.45 3.05 2.45 Q-0.75 2.1 -2.65 0.2 L-4.2 -7.4 -4.5 -9.05 -4.45 -9.05 Q-6.0 -22.05 -6.55 -29.45 -6.1 -32.9 -6.65 -36.8 -6.65 -42.95 -2.9 -57.6 L-0.05 -65.55 0.8 -69.9 Q1.45 -73.9 1.45 -76.6 L1.05 -81.5 Q0.45 -86.7 -0.65 -90.0 L-0.95 -91.35 -0.95 -91.4 -1.9 -95.45 -2.5 -97.7 -2.65 -98.25 Q-5.25 -106.2 -5.25 -107.2 L-5.2 -107.95 -5.05 -108.2 Q-3.2 -113.05 -0.45 -117.3 2.2 -121.45 4.1 -122.65 L4.45 -122.9 M5.85 -126.75 Q7.3 -124.2 8.4 -124.3 9.0 -124.3 10.05 -125.0 L6.95 -126.4 5.85 -126.75 M19.95 -114.55 Q22.8 -111.25 22.8 -106.6 22.8 -101.95 19.95 -98.65 17.1 -95.35 13.1 -95.35 9.1 -95.35 6.25 -98.65 3.4 -101.95 3.4 -106.6 3.4 -111.25 6.25 -114.55 9.1 -117.85 13.1 -117.85 17.1 -117.85 19.95 -114.55 M46.95 -13.25 L47.85 -14.15 Q48.6 -15.05 48.6 -15.95 48.6 -17.75 47.3 -20.2 45.0 -24.65 43.7 -27.9 37.3 -44.15 31.15 -81.9 27.9 -101.85 21.75 -112.85 16.2 -122.65 10.0 -122.65 6.8 -122.65 3.3 -119.2 -0.3 -115.55 -2.0 -110.25 L-3.25 -107.45 Q-0.95 -102.45 1.4 -90.8 3.5 -80.15 3.5 -75.75 3.5 -69.9 -0.6 -56.65 -4.7 -43.4 -4.7 -32.1 -4.7 -28.65 -3.95 -21.1 L-2.5 -9.25 Q-2.2 -6.8 -1.25 -4.35 0.1 -0.85 1.8 -0.6 L8.25 0.1 13.45 0.45 Q24.35 0.45 37.95 -3.8 52.05 -8.25 52.05 -12.25 52.05 -14.6 50.75 -14.6 L46.95 -13.25 M-36.05 -6.9 Q-43.9 -7.15 -50.5 -10.3 -55.8 -12.85 -55.8 -14.0 -47.0 -28.05 -42.9 -35.55 -41.4 -38.25 -38.4 -47.7 -35.75 -56.05 -34.95 -59.65 L-33.6 -56.7 Q-37.3 -43.2 -39.15 -38.0 -43.95 -24.9 -49.85 -19.0 L-53.3 -14.15 Q-49.7 -11.55 -43.3 -10.1 L-36.3 -8.95 Q-36.1 -8.7 -36.05 -6.9 M-34.35 -40.3 L-35.0 -36.0 -35.1 -36.7 -34.35 -40.3 M-6.6 -29.2 L-6.6 -28.05 -6.65 -28.8 -6.6 -29.2" fill="#3f3f3f" fill-rule="evenodd" stroke="none"/>
    <path d="M-1.9 -95.45 L-0.95 -91.4 -0.95 -91.35 -0.65 -90.0 Q-8.95 -85.0 -19.45 -81.1 -19.85 -81.1 -24.5 -84.4 L-29.15 -87.75 Q-30.25 -87.75 -32.1 -82.4 -34.1 -76.75 -34.1 -72.2 -34.1 -67.15 -30.9 -64.4 -26.3 -60.45 -14.65 -60.45 -9.95 -60.45 -5.75 -62.25 -3.6 -63.2 -0.05 -65.55 L-2.9 -57.6 Q-4.15 -56.05 -6.25 -55.2 -7.65 -54.6 -8.3 -54.6 L-14.3 -55.45 -20.5 -56.35 Q-26.3 -56.35 -26.3 -52.15 -26.3 -49.15 -23.6 -45.7 L-20.15 -41.7 -20.25 -41.5 Q-26.65 -42.1 -28.25 -39.9 -29.95 -37.55 -29.95 -27.45 -29.95 -22.75 -28.4 -22.75 -26.4 -22.75 -24.75 -21.25 -23.5 -20.05 -23.5 -19.6 -23.5 -19.0 -23.6 -19.05 L-23.75 -19.2 -24.8 -19.15 Q-22.8 -17.0 -16.3 -15.45 -10.85 -14.1 -6.75 -14.0 L-6.6 -11.3 -10.0 -11.95 -13.45 -12.3 -18.85 -13.25 Q-21.9 -13.85 -21.9 -14.45 -21.9 -15.1 -27.8 -16.7 -33.7 -19.3 -33.7 -24.85 -33.7 -31.2 -32.05 -40.95 -30.4 -50.7 -30.4 -52.5 -30.4 -56.15 -34.45 -63.15 -38.55 -70.2 -38.55 -75.55 -38.55 -81.75 -34.05 -90.3 -30.85 -96.25 -22.8 -107.75 -25.3 -102.6 -25.3 -97.0 -25.3 -92.6 -23.0 -90.15 -20.65 -87.65 -16.15 -87.65 -13.25 -87.65 -9.9 -89.35 -5.85 -91.35 -1.9 -95.45 M5.85 -126.75 L6.95 -126.4 10.05 -125.0 Q9.0 -124.3 8.4 -124.3 7.3 -124.2 5.85 -126.75" fill="#d2cbbd" fill-rule="evenodd" stroke="none"/>
    <path d="M-28.05 -104.8 L-34.9 -93.45 Q-32.2 -107.7 -22.75 -117.45 -14.5 -125.9 -7.5 -125.85 L-11.55 -121.5 Q-14.95 -117.6 -15.55 -116.3 -16.95 -113.4 -18.7 -112.5 -20.9 -111.8 -22.4 -110.8 L-25.55 -107.6 -27.15 -105.9 Q-27.75 -105.9 -27.9 -105.45 -27.9 -104.95 -28.05 -104.8 M10.3 -119.6 L9.7 -119.85 9.15 -119.6 8.9 -119.0 Q8.9 -118.65 9.15 -118.4 9.35 -118.15 9.7 -118.15 L10.3 -118.4 10.5 -119.0 10.3 -119.6 M19.95 -114.55 Q17.1 -117.85 13.1 -117.85 9.1 -117.85 6.25 -114.55 3.4 -111.25 3.4 -106.6 3.4 -101.95 6.25 -98.65 9.1 -95.35 13.1 -95.35 17.1 -95.35 19.95 -98.65 22.8 -101.95 22.8 -106.6 22.8 -111.25 19.95 -114.55 M-2.0 -110.25 Q-0.3 -115.55 3.3 -119.2 6.8 -122.65 10.0 -122.65 16.2 -122.65 21.75 -112.85 27.9 -101.85 31.15 -81.9 37.3 -44.15 43.7 -27.9 45.0 -24.65 47.3 -20.2 48.6 -17.75 48.6 -15.95 48.6 -15.05 47.85 -14.15 L46.95 -13.25 Q42.55 -10.6 36.8 -8.3 25.5 -3.75 14.75 -3.75 L2.15 -4.35 Q1.45 -4.65 1.3 -5.1 0.55 -7.4 -0.35 -16.55 L-1.35 -25.85 -1.5 -31.4 Q-1.5 -44.6 2.0 -57.55 5.45 -70.5 5.45 -76.85 5.45 -81.15 3.05 -92.6 1.0 -102.15 -0.1 -105.6 L1.4 -108.05 Q2.15 -109.5 1.85 -111.05 -0.35 -110.45 -1.1 -108.15 L-2.0 -110.25 M23.2 -91.75 Q22.9 -92.1 22.45 -92.1 22.0 -92.1 21.7 -91.75 21.4 -91.45 21.4 -91.0 21.4 -90.55 21.7 -90.2 22.0 -89.9 22.45 -89.9 22.9 -89.9 23.2 -90.2 L23.5 -91.0 23.2 -91.75 M11.45 -74.2 L10.85 -74.55 Q10.5 -74.55 10.25 -74.2 10.0 -73.9 10.0 -73.4 10.0 -72.9 10.25 -72.55 10.5 -72.25 10.85 -72.25 11.2 -72.25 11.45 -72.55 L11.7 -73.4 11.45 -74.2 M15.6 -62.65 Q18.3 -70.5 18.35 -73.15 L13.4 -72.65 11.7 -72.65 5.05 -62.35 Q3.4 -59.9 1.4 -47.85 -0.5 -36.55 -0.5 -31.4 -0.5 -27.45 2.65 -25.75 5.05 -24.5 6.95 -24.95 L4.6 -19.8 2.35 -14.55 Q3.8 -15.1 4.75 -16.8 L8.65 -25.2 11.75 -25.75 Q13.3 -25.75 14.3 -24.55 15.0 -23.7 15.0 -23.25 15.0 -21.65 10.85 -19.4 L6.7 -17.1 Q6.7 -13.25 10.15 -12.3 L17.45 -10.65 17.65 -10.1 Q17.85 -9.9 18.15 -9.9 L18.65 -10.1 18.8 -10.65 Q30.4 -11.55 36.85 -15.05 42.35 -18.05 42.35 -21.6 42.35 -23.5 40.8 -27.25 37.9 -34.35 30.55 -44.9 18.1 -40.25 15.7 -37.95 L15.05 -37.15 13.5 -37.05 11.45 -37.45 Q10.0 -38.0 9.2 -39.0 9.75 -40.7 10.85 -42.35 L15.9 -45.5 20.5 -48.2 20.1 -48.15 19.4 -48.5 Q19.05 -49.0 18.9 -52.0 L19.0 -52.8 Q19.15 -53.1 19.8 -53.1 21.9 -53.1 21.0 -48.5 L20.75 -48.3 Q27.8 -49.5 30.95 -53.25 33.05 -55.75 33.05 -58.8 33.05 -60.45 31.3 -62.05 29.3 -63.85 26.35 -63.85 23.2 -63.85 21.25 -60.65 19.35 -57.55 20.55 -55.45 L20.3 -55.25 19.45 -55.1 Q18.4 -55.1 18.45 -57.55 17.4 -56.95 16.4 -56.95 16.0 -56.95 15.45 -57.35 14.65 -57.9 14.25 -58.9 15.6 -57.3 16.0 -57.3 16.8 -57.3 17.35 -58.1 17.9 -58.9 17.9 -60.0 17.9 -62.15 15.6 -62.65 M22.3 -39.3 Q22.85 -39.3 23.25 -38.55 23.6 -37.85 23.6 -36.85 23.6 -35.85 23.25 -35.1 22.85 -34.4 22.3 -34.4 21.75 -34.4 21.4 -35.1 21.0 -35.85 21.0 -36.85 21.0 -37.85 21.4 -38.55 21.75 -39.3 22.3 -39.3 M24.05 -32.55 Q24.65 -32.55 25.05 -31.8 25.45 -31.1 25.45 -30.1 25.45 -29.1 25.05 -28.35 24.65 -27.65 24.05 -27.65 23.45 -27.65 23.05 -28.35 22.65 -29.1 22.65 -30.1 22.65 -31.1 23.05 -31.8 23.45 -32.55 24.05 -32.55 M27.4 -25.15 Q27.85 -24.45 27.85 -23.45 27.85 -22.45 27.4 -21.75 26.95 -21.05 26.3 -21.05 25.65 -21.05 25.2 -21.75 24.75 -22.45 24.75 -23.45 24.75 -24.45 25.2 -25.15 25.65 -25.85 26.3 -25.85 26.95 -25.85 27.4 -25.15 M7.7 -10.6 Q7.05 -11.25 6.15 -11.25 5.25 -11.25 4.65 -10.6 4.0 -10.0 4.0 -9.15 4.0 -8.3 4.65 -7.65 5.25 -7.05 6.15 -7.05 7.05 -7.05 7.7 -7.65 8.3 -8.3 8.3 -9.15 8.3 -10.0 7.7 -10.6 M28.4 -19.45 Q32.75 -14.75 29.9 -14.75 29.5 -14.75 29.3 -15.05 L27.4 -18.4 27.55 -19.2 28.4 -19.45 M-25.75 -111.9 L-25.45 -111.05 Q-25.2 -110.75 -24.8 -110.75 -24.4 -110.75 -24.1 -111.05 -23.85 -111.4 -23.85 -111.9 L-24.1 -112.7 Q-24.4 -113.05 -24.8 -113.05 -25.2 -113.05 -25.45 -112.7 L-25.75 -111.9 M-21.45 -116.75 L-22.0 -117.0 -22.5 -116.75 -22.75 -116.25 -22.5 -115.7 Q-22.3 -115.5 -22.0 -115.5 -21.7 -115.5 -21.45 -115.7 L-21.25 -116.25 -21.45 -116.75 M-49.85 -19.0 Q-49.3 -18.65 -43.95 -16.3 L-38.2 -13.85 Q-38.3 -13.0 -37.55 -11.25 L-36.3 -8.95 -43.3 -10.1 Q-49.7 -11.55 -53.3 -14.15 L-49.85 -19.0" fill="#37545b" fill-rule="evenodd" stroke="none"/>
    <path d="M-2.0 -110.25 L-1.1 -108.15 -0.95 -106.5 Q-0.75 -105.1 -0.1 -105.6 1.0 -102.15 3.05 -92.6 5.45 -81.15 5.45 -76.85 5.45 -70.5 2.0 -57.55 -1.5 -44.6 -1.5 -31.4 L-1.35 -25.85 -0.35 -16.55 Q0.55 -7.4 1.3 -5.1 1.45 -4.65 2.15 -4.35 L14.75 -3.75 Q25.5 -3.75 36.8 -8.3 42.55 -10.6 46.95 -13.25 L50.75 -14.6 Q52.05 -14.6 52.05 -12.25 52.05 -8.25 37.95 -3.8 24.35 0.45 13.45 0.45 L8.25 0.1 1.8 -0.6 Q0.1 -0.85 -1.25 -4.35 -2.2 -6.8 -2.5 -9.25 L-3.95 -21.1 Q-4.7 -28.65 -4.7 -32.1 -4.7 -43.4 -0.6 -56.65 3.5 -69.9 3.5 -75.75 3.5 -80.15 1.4 -90.8 -0.95 -102.45 -3.25 -107.45 L-2.0 -110.25 M6.95 -24.95 Q5.05 -24.5 2.65 -25.75 -0.5 -27.45 -0.5 -31.4 -0.5 -36.55 1.4 -47.85 3.4 -59.9 5.05 -62.35 L11.7 -72.65 13.4 -72.65 18.35 -73.15 Q18.3 -70.5 15.6 -62.65 14.3 -61.35 14.25 -58.9 14.65 -57.9 15.45 -57.35 16.0 -56.95 16.4 -56.95 17.4 -56.95 18.45 -57.55 18.4 -55.1 19.45 -55.1 L20.3 -55.25 20.55 -55.45 Q19.35 -57.55 21.25 -60.65 23.2 -63.85 26.35 -63.85 29.3 -63.85 31.3 -62.05 33.05 -60.45 33.05 -58.8 33.05 -55.75 30.95 -53.25 27.8 -49.5 20.75 -48.3 L21.0 -48.5 Q21.9 -53.1 19.8 -53.1 19.15 -53.1 19.0 -52.8 L18.9 -52.0 Q19.05 -49.0 19.4 -48.5 L20.1 -48.15 20.5 -48.2 15.9 -45.5 10.85 -42.35 12.2 -45.55 13.4 -48.8 Q12.6 -49.0 10.1 -48.25 L9.95 -50.15 Q9.0 -50.9 8.0 -50.9 6.7 -50.9 3.9 -47.5 1.2 -44.15 0.55 -41.95 L6.25 -41.75 Q6.35 -41.1 6.05 -39.7 L5.75 -37.8 Q5.75 -37.15 6.25 -35.95 6.75 -34.75 7.2 -34.3 L7.4 -34.2 Q8.6 -35.65 9.2 -39.0 10.0 -38.0 11.45 -37.45 L13.5 -37.05 15.05 -37.15 15.7 -37.95 Q18.1 -40.25 30.55 -44.9 37.9 -34.35 40.8 -27.25 42.35 -23.5 42.35 -21.6 42.35 -18.05 36.85 -15.05 30.4 -11.55 18.8 -10.65 L18.65 -11.5 18.15 -11.9 Q17.85 -11.9 17.65 -11.5 L17.45 -10.65 10.15 -12.3 Q6.7 -13.25 6.7 -17.1 L10.85 -19.4 Q15.0 -21.65 15.0 -23.25 15.0 -23.7 14.3 -24.55 13.3 -25.75 11.75 -25.75 L8.65 -25.2 9.6 -27.6 Q9.0 -27.65 6.95 -24.95 M8.7 -56.35 Q9.2 -56.35 9.55 -56.8 9.9 -57.3 9.9 -58.0 L9.55 -59.15 Q9.2 -59.65 8.7 -59.65 L7.85 -59.15 Q7.5 -58.7 7.5 -58.0 7.5 -57.3 7.85 -56.8 8.2 -56.35 8.7 -56.35 M27.4 -25.15 Q26.95 -25.85 26.3 -25.85 25.65 -25.85 25.2 -25.15 24.75 -24.45 24.75 -23.45 24.75 -22.45 25.2 -21.75 25.65 -21.05 26.3 -21.05 26.95 -21.05 27.4 -21.75 27.85 -22.45 27.85 -23.45 27.85 -24.45 27.4 -25.15 M24.05 -32.55 Q23.45 -32.55 23.05 -31.8 22.65 -31.1 22.65 -30.1 22.65 -29.1 23.05 -28.35 23.45 -27.65 24.05 -27.65 24.65 -27.65 25.05 -28.35 25.45 -29.1 25.45 -30.1 25.45 -31.1 25.05 -31.8 24.65 -32.55 24.05 -32.55 M22.3 -39.3 Q21.75 -39.3 21.4 -38.55 21.0 -37.85 21.0 -36.85 21.0 -35.85 21.4 -35.1 21.75 -34.4 22.3 -34.4 22.85 -34.4 23.25 -35.1 23.6 -35.85 23.6 -36.85 23.6 -37.85 23.25 -38.55 22.85 -39.3 22.3 -39.3 M29.85 -28.1 L34.15 -28.1 34.15 -34.1 29.85 -34.1 29.85 -28.1 M18.25 -32.95 Q18.45 -32.75 18.75 -32.75 L19.3 -32.95 19.5 -33.5 19.3 -34.0 18.75 -34.25 18.25 -34.0 18.0 -33.5 18.25 -32.95 M13.3 -30.45 Q13.0 -30.85 12.6 -30.85 12.2 -30.85 11.9 -30.45 11.6 -30.05 11.6 -29.5 11.6 -28.95 11.9 -28.55 12.2 -28.15 12.6 -28.15 L13.3 -28.55 Q13.6 -28.95 13.6 -29.5 L13.3 -30.45 M28.4 -19.45 L27.55 -19.2 27.4 -18.4 29.3 -15.05 Q29.5 -14.75 29.9 -14.75 32.75 -14.75 28.4 -19.45 M23.25 -17.3 L24.25 -17.3 Q24.7 -17.35 24.7 -18.0 24.7 -20.9 23.35 -23.5 21.9 -26.35 19.55 -27.2 20.55 -19.65 21.55 -18.15 22.1 -17.25 23.25 -17.3" fill="#456972" fill-rule="evenodd" stroke="none"/>
    <path d="M-33.6 -56.7 L-32.85 -54.0 -32.4 -52.0 Q-32.4 -50.85 -32.85 -47.85 -33.45 -44.15 -34.35 -40.3 L-35.1 -36.7 -35.0 -36.0 Q-36.0 -27.45 -36.0 -24.95 -36.0 -22.75 -34.3 -18.6 L-37.6 -15.4 -38.2 -13.85 -43.95 -16.3 Q-49.3 -18.65 -49.85 -19.0 -43.95 -24.9 -39.15 -38.0 -37.3 -43.2 -33.6 -56.7 M-41.0 -27.25 L-40.7 -26.7 -40.1 -26.5 -39.45 -26.7 Q-39.2 -26.95 -39.2 -27.25 L-39.45 -27.75 -40.1 -28.0 -40.7 -27.75 -41.0 -27.25 M-43.6 -19.5 Q-44.05 -19.5 -44.35 -19.05 L-44.65 -18.0 -44.35 -16.95 Q-44.05 -16.5 -43.6 -16.5 -43.15 -16.5 -42.85 -16.95 -42.55 -17.4 -42.55 -18.0 -42.55 -18.6 -42.85 -19.05 -43.15 -19.5 -43.6 -19.5" fill="#2c4349" fill-rule="evenodd" stroke="none"/>
    <path d="M-0.65 -90.0 Q0.45 -86.7 1.05 -81.5 L1.45 -76.6 Q1.45 -73.9 0.8 -69.9 L-0.05 -65.55 Q-3.6 -63.2 -5.75 -62.25 -9.95 -60.45 -14.65 -60.45 -26.3 -60.45 -30.9 -64.4 -34.1 -67.15 -34.1 -72.2 -34.1 -76.75 -32.1 -82.4 -30.25 -87.75 -29.15 -87.75 L-24.5 -84.4 Q-19.85 -81.1 -19.45 -81.1 -8.95 -85.0 -0.65 -90.0 M-2.9 -57.6 Q-6.65 -42.95 -6.65 -36.8 -6.1 -32.9 -6.55 -29.45 L-6.6 -29.95 -6.6 -29.2 -6.65 -28.8 -6.7 -25.55 -6.65 -26.9 -6.75 -14.0 Q-10.85 -14.1 -16.3 -15.45 -22.8 -17.0 -24.8 -19.15 L-23.75 -19.2 -23.6 -19.05 Q-23.5 -19.0 -23.5 -19.6 -23.5 -20.05 -24.75 -21.25 -26.4 -22.75 -28.4 -22.75 -29.95 -22.75 -29.95 -27.45 -29.95 -37.55 -28.25 -39.9 -26.65 -42.1 -20.25 -41.5 L-20.15 -41.7 -23.6 -45.7 Q-26.3 -49.15 -26.3 -52.15 -26.3 -56.35 -20.5 -56.35 L-14.3 -55.45 -8.3 -54.6 Q-7.65 -54.6 -6.25 -55.2 -4.15 -56.05 -2.9 -57.6" fill="#eeebe6" fill-rule="evenodd" stroke="none"/>
    <path d="M-2.5 -97.7 L-1.9 -95.45 Q-5.85 -91.35 -9.9 -89.35 -13.25 -87.65 -16.15 -87.65 -20.65 -87.65 -23.0 -90.15 -25.3 -92.6 -25.3 -97.0 -25.3 -102.6 -22.8 -107.75 -30.85 -96.25 -34.05 -90.3 -38.55 -81.75 -38.55 -75.55 -38.55 -70.2 -34.45 -63.15 -30.4 -56.15 -30.4 -52.5 -30.4 -50.7 -32.05 -40.95 -33.7 -31.2 -33.7 -24.85 -33.7 -19.3 -27.8 -16.7 -21.9 -15.1 -21.9 -14.45 -21.9 -13.85 -18.85 -13.25 L-13.45 -12.3 -10.0 -11.95 -6.6 -11.3 -6.75 -14.0 -6.65 -26.9 -6.6 -28.05 -6.6 -29.2 -6.6 -29.95 -6.55 -29.45 Q-6.0 -22.05 -4.45 -9.05 L-4.5 -9.05 -6.45 -9.05 Q-12.15 -9.65 -22.4 -12.7 -33.15 -15.9 -33.15 -17.45 -33.15 -18.05 -33.5 -18.15 -34.15 -18.4 -34.3 -18.6 -36.0 -22.75 -36.0 -24.95 -36.0 -27.45 -35.0 -36.0 L-34.35 -40.3 Q-33.45 -44.15 -32.85 -47.85 -32.4 -50.85 -32.4 -52.0 L-32.85 -54.0 -33.6 -56.7 -34.95 -59.65 -38.0 -66.55 Q-40.45 -72.35 -40.45 -73.45 L-39.8 -81.25 Q-36.9 -87.9 -32.65 -96.2 L-28.05 -104.8 Q-27.9 -104.95 -27.9 -105.45 -27.75 -105.9 -27.15 -105.9 L-25.55 -107.6 -22.4 -110.8 -18.5 -110.8 Q-20.45 -109.9 -21.95 -104.8 -23.25 -100.5 -23.25 -97.3 -23.25 -93.5 -21.45 -91.5 -19.8 -89.65 -16.9 -89.65 -13.6 -89.65 -10.65 -91.35 -8.0 -92.9 -2.5 -97.7" fill="#5e5340" fill-rule="evenodd" stroke="none"/>
    <path d="M10.3 -119.6 L10.5 -119.0 10.3 -118.4 9.7 -118.15 Q9.35 -118.15 9.15 -118.4 8.9 -118.65 8.9 -119.0 L9.15 -119.6 9.7 -119.85 10.3 -119.6 M-1.1 -108.15 Q-0.35 -110.45 1.85 -111.05 2.15 -109.5 1.4 -108.05 L-0.1 -105.6 Q-0.75 -105.1 -0.95 -106.5 L-1.1 -108.15 M23.2 -91.75 L23.5 -91.0 23.2 -90.2 Q22.9 -89.9 22.45 -89.9 22.0 -89.9 21.7 -90.2 21.4 -90.55 21.4 -91.0 21.4 -91.45 21.7 -91.75 22.0 -92.1 22.45 -92.1 22.9 -92.1 23.2 -91.75 M6.95 -24.95 Q9.0 -27.65 9.6 -27.6 L8.65 -25.2 4.75 -16.8 Q3.8 -15.1 2.35 -14.55 L4.6 -19.8 6.95 -24.95 M17.45 -10.65 L17.65 -11.5 Q17.85 -11.9 18.15 -11.9 L18.65 -11.5 18.8 -10.65 18.65 -10.1 18.15 -9.9 Q17.85 -9.9 17.65 -10.1 L17.45 -10.65 M8.7 -56.35 Q8.2 -56.35 7.85 -56.8 7.5 -57.3 7.5 -58.0 7.5 -58.7 7.85 -59.15 L8.7 -59.65 Q9.2 -59.65 9.55 -59.15 L9.9 -58.0 Q9.9 -57.3 9.55 -56.8 9.2 -56.35 8.7 -56.35 M18.25 -32.95 L18.0 -33.5 18.25 -34.0 18.75 -34.25 19.3 -34.0 19.5 -33.5 19.3 -32.95 18.75 -32.75 Q18.45 -32.75 18.25 -32.95" fill="#f780b8" fill-rule="evenodd" stroke="none"/>
    <path d="M11.45 -74.2 L11.7 -73.4 11.45 -72.55 Q11.2 -72.25 10.85 -72.25 10.5 -72.25 10.25 -72.55 10.0 -72.9 10.0 -73.4 10.0 -73.9 10.25 -74.2 10.5 -74.55 10.85 -74.55 L11.45 -74.2 M14.25 -58.9 Q14.3 -61.35 15.6 -62.65 17.9 -62.15 17.9 -60.0 17.9 -58.9 17.35 -58.1 16.8 -57.3 16.0 -57.3 15.6 -57.3 14.25 -58.9 M29.85 -28.1 L29.85 -34.1 34.15 -34.1 34.15 -28.1 29.85 -28.1 M13.3 -30.45 L13.6 -29.5 Q13.6 -28.95 13.3 -28.55 L12.6 -28.15 Q12.2 -28.15 11.9 -28.55 11.6 -28.95 11.6 -29.5 11.6 -30.05 11.9 -30.45 12.2 -30.85 12.6 -30.85 13.0 -30.85 13.3 -30.45 M7.7 -10.6 Q8.3 -10.0 8.3 -9.15 8.3 -8.3 7.7 -7.65 7.05 -7.05 6.15 -7.05 5.25 -7.05 4.65 -7.65 4.0 -8.3 4.0 -9.15 4.0 -10.0 4.65 -10.6 5.25 -11.25 6.15 -11.25 7.05 -11.25 7.7 -10.6 M-43.6 -19.5 Q-43.15 -19.5 -42.85 -19.05 -42.55 -18.6 -42.55 -18.0 -42.55 -17.4 -42.85 -16.95 -43.15 -16.5 -43.6 -16.5 -44.05 -16.5 -44.35 -16.95 L-44.65 -18.0 -44.35 -19.05 Q-44.05 -19.5 -43.6 -19.5 M-41.0 -27.25 L-40.7 -27.75 -40.1 -28.0 -39.45 -27.75 -39.2 -27.25 Q-39.2 -26.95 -39.45 -26.7 L-40.1 -26.5 -40.7 -26.7 -41.0 -27.25" fill="#c16f1c" fill-rule="evenodd" stroke="none"/>
    <path d="M9.2 -39.0 Q8.6 -35.65 7.4 -34.2 L7.2 -34.3 Q6.75 -34.75 6.25 -35.95 5.75 -37.15 5.75 -37.8 L6.05 -39.7 Q6.35 -41.1 6.25 -41.75 L0.55 -41.95 Q1.2 -44.15 3.9 -47.5 6.7 -50.9 8.0 -50.9 9.0 -50.9 9.95 -50.15 L10.1 -48.25 Q12.6 -49.0 13.4 -48.8 L12.2 -45.55 10.85 -42.35 Q9.75 -40.7 9.2 -39.0 M23.25 -17.3 Q22.1 -17.25 21.55 -18.15 20.55 -19.65 19.55 -27.2 21.9 -26.35 23.35 -23.5 24.7 -20.9 24.7 -18.0 24.7 -17.35 24.25 -17.3 L23.25 -17.3 M-21.45 -116.75 L-21.25 -116.25 -21.45 -115.7 Q-21.7 -115.5 -22.0 -115.5 -22.3 -115.5 -22.5 -115.7 L-22.75 -116.25 -22.5 -116.75 -22.0 -117.0 -21.45 -116.75 M-25.75 -111.9 L-25.45 -112.7 Q-25.2 -113.05 -24.8 -113.05 -24.4 -113.05 -24.1 -112.7 L-23.85 -111.9 Q-23.85 -111.4 -24.1 -111.05 -24.4 -110.75 -24.8 -110.75 -25.2 -110.75 -25.45 -111.05 L-25.75 -111.9" fill="#77cc73" fill-rule="evenodd" stroke="none"/>
  </g>
</svg>
