<?xml version="1.0" encoding="UTF-8" standalone="no"?>
<svg xmlns:ffdec="https://www.free-decompiler.com/flash" xmlns:xlink="http://www.w3.org/1999/xlink" ffdec:objectType="shape" height="14.4px" width="38.45px" xmlns="http://www.w3.org/2000/svg">
  <g transform="matrix(1.0, 0.0, 0.0, 1.0, 17.4, 10.1)">
    <path d="M1.8 -2.65 Q1.7 -0.9 2.9 0.6 L2.85 0.55 4.15 1.8 4.2 1.85 Q5.25 2.6 6.45 3.0 L6.4 2.95 12.45 2.45 Q16.55 1.45 17.95 -1.65 19.3 -4.75 18.7 -5.4 L15.95 -6.85 Q13.9 -7.75 10.45 -8.0 7.0 -8.25 4.45 -6.75 1.85 -5.3 1.8 -2.65 M1.7 -3.0 Q1.55 -6.05 4.65 -8.25 7.3 -10.1 10.95 -10.1 L14.6 -9.55 Q17.9 -9.8 21.05 -6.5 L20.65 -3.8 Q20.4 -0.85 17.55 1.7 14.65 4.2 10.95 4.2 7.25 4.2 4.65 2.3 1.55 0.2 1.7 -3.0 M-14.6 -6.4 Q-16.35 -5.75 -16.65 -5.0 -16.95 -4.3 -16.7 -3.0 -16.45 -1.75 -15.0 0.55 -13.6 2.8 -10.75 3.3 -7.95 3.75 -5.95 2.4 L-5.9 2.4 Q-3.6 0.8 -3.65 -1.55 -3.6 -3.05 -4.65 -4.45 L-4.65 -4.4 -5.8 -5.55 -5.75 -5.55 Q-6.6 -6.2 -7.7 -6.55 L-7.7 -6.5 -10.3 -6.95 Q-12.9 -7.05 -14.6 -6.4 M-17.35 -3.3 Q-17.7 -6.95 -15.65 -7.55 L-11.35 -8.1 -7.7 -7.55 -7.75 -7.6 Q-6.55 -7.2 -5.6 -6.4 L-5.65 -6.4 Q-4.75 -5.8 -4.3 -5.05 L-4.3 -5.1 Q-3.15 -3.5 -3.25 -1.75 -3.15 0.95 -5.75 2.85 -8.0 4.35 -10.9 4.3 -13.85 4.2 -15.45 2.3 -17.05 0.35 -17.35 -3.3" fill="#e4b769" fill-rule="evenodd" stroke="none"/>
    <path d="M6.05 -0.85 L6.15 -0.8 Q6.7 -0.3 7.4 -0.1 L7.45 -0.1 10.1 0.25 Q11.75 0.2 13.8 -1.1 15.85 -2.45 15.5 -4.4 13.05 -5.65 10.45 -5.4 7.8 -5.15 6.25 -4.2 5.15 -3.5 5.0 -2.55 4.95 -2.0 5.4 -1.5 L5.4 -1.45 Q5.7 -1.05 6.05 -0.85 M1.8 -2.65 Q1.85 -5.3 4.45 -6.75 7.0 -8.25 10.45 -8.0 13.9 -7.75 15.95 -6.85 L18.7 -5.4 Q19.3 -4.75 17.95 -1.65 16.55 1.45 12.45 2.45 L6.4 2.95 6.45 3.0 Q5.25 2.6 4.2 1.85 L4.15 1.8 2.85 0.55 2.9 0.6 Q1.7 -0.9 1.8 -2.65 M-14.6 -6.4 Q-12.9 -7.05 -10.3 -6.95 L-7.7 -6.5 -7.7 -6.55 Q-6.6 -6.2 -5.75 -5.55 L-5.8 -5.55 -4.65 -4.4 -4.65 -4.45 Q-3.6 -3.05 -3.65 -1.55 -3.6 0.8 -5.9 2.4 L-5.95 2.4 Q-7.95 3.75 -10.75 3.3 -13.6 2.8 -15.0 0.55 -16.45 -1.75 -16.7 -3.0 -16.95 -4.3 -16.65 -5.0 -16.35 -5.75 -14.6 -6.4 M-10.8 -3.95 Q-12.25 -4.15 -13.3 -3.55 -14.35 -2.95 -14.2 -1.95 -14.1 -1.0 -13.3 -0.45 L-13.25 -0.45 Q-12.1 0.45 -10.45 0.5 -8.75 0.5 -7.6 -0.3 -6.8 -0.85 -6.7 -1.65 -6.7 -2.05 -7.05 -2.4 L-7.1 -2.45 -7.55 -2.9 Q-8.0 -3.3 -8.6 -3.4 L-8.65 -3.45 -10.8 -3.95" fill="#3d2618" fill-rule="evenodd" stroke="none"/>
    <path d="M6.05 -0.85 Q5.7 -1.05 5.4 -1.45 L5.4 -1.5 Q4.95 -2.0 5.0 -2.55 5.15 -3.5 6.25 -4.2 7.8 -5.15 10.45 -5.4 13.05 -5.65 15.5 -4.4 15.85 -2.45 13.8 -1.1 11.75 0.2 10.1 0.25 L7.45 -0.1 7.4 -0.1 Q6.7 -0.3 6.15 -0.8 L6.05 -0.85 M-10.8 -3.95 L-8.65 -3.45 -8.6 -3.4 Q-8.0 -3.3 -7.55 -2.9 L-7.1 -2.45 -7.05 -2.4 Q-6.7 -2.05 -6.7 -1.65 -6.8 -0.85 -7.6 -0.3 -8.75 0.5 -10.45 0.5 -12.1 0.45 -13.25 -0.45 L-13.3 -0.45 Q-14.1 -1.0 -14.2 -1.95 -14.35 -2.95 -13.3 -3.55 -12.25 -4.15 -10.8 -3.95" fill="#f5e3c5" fill-rule="evenodd" stroke="none"/>
  </g>
</svg>
