<?xml version="1.0" encoding="UTF-8" standalone="no"?>
<svg xmlns:ffdec="https://www.free-decompiler.com/flash" xmlns:xlink="http://www.w3.org/1999/xlink" ffdec:objectType="shape" height="8.15px" width="14.2px" xmlns="http://www.w3.org/2000/svg">
  <g transform="matrix(1.0, 0.0, 0.0, 1.0, 15.15, 3.05)">
    <path d="M-3.2 -1.9 Q-2.35 -1.5 -1.95 -1.05 -0.85 0.0 -0.95 1.1 -0.85 2.9 -3.3 4.15 -5.45 5.1 -8.15 5.1 -11.05 5.0 -12.95 3.95 -15.35 2.65 -15.15 0.85 -15.25 -0.85 -12.75 -2.1 L-12.7 -2.1 Q-10.7 -3.1 -7.95 -3.05 L-5.15 -2.65 -5.2 -2.7 Q-4.05 -2.45 -3.15 -1.9 L-3.2 -1.9" fill="#e4b769" fill-rule="evenodd" stroke="none"/>
    <path d="M-11.9 -1.5 Q-10.1 -2.35 -7.6 -2.25 L-5.15 -2.0 -3.3 -1.35 -3.35 -1.35 -2.25 -0.6 -2.25 -0.65 Q-1.3 0.3 -1.3 1.25 -1.3 2.8 -3.45 3.85 L-3.5 3.85 Q-5.4 4.7 -7.85 4.7 -10.4 4.6 -12.1 3.65 -14.2 2.55 -14.05 1.05 -14.1 -0.5 -11.95 -1.5 L-11.9 -1.5 M-4.55 0.7 L-4.6 0.65 -5.0 0.35 -6.0 0.05 -6.05 0.0 -7.65 -0.2 -10.4 0.3 Q-11.15 0.65 -11.2 1.1 -11.2 1.6 -10.45 1.95 L-10.4 1.95 Q-9.3 2.55 -7.75 2.6 -6.15 2.6 -5.05 2.05 -4.3 1.7 -4.2 1.2 L-4.55 0.7" fill="#3d2618" fill-rule="evenodd" stroke="none"/>
    <path d="M-4.55 0.7 L-4.2 1.2 Q-4.3 1.7 -5.05 2.05 -6.15 2.6 -7.75 2.6 -9.3 2.55 -10.4 1.95 L-10.45 1.95 Q-11.2 1.6 -11.2 1.1 -11.15 0.65 -10.4 0.3 L-7.65 -0.2 -6.05 0.0 -6.0 0.05 -5.0 0.35 -4.6 0.65 -4.55 0.7" fill="#f5e3c5" fill-rule="evenodd" stroke="none"/>
  </g>
</svg>
