<?xml version="1.0" encoding="UTF-8" standalone="no"?>
<svg xmlns:ffdec="https://www.free-decompiler.com/flash" xmlns:xlink="http://www.w3.org/1999/xlink" ffdec:objectType="shape" height="8.75px" width="13.6px" xmlns="http://www.w3.org/2000/svg">
  <g transform="matrix(1.0, 0.0, 0.0, 1.0, 14.0, 4.25)">
    <path d="M-7.35 -4.25 Q-4.55 -4.25 -2.6 -2.6 -0.55 -0.9 -0.4 1.45 -0.3 3.8 -0.7 4.25 L-4.1 4.4 Q-7.05 4.15 -13.25 4.2 -14.0 2.95 -14.0 1.5 -14.0 0.2 -13.45 -0.85 -13.05 -1.8 -12.0 -2.6 L-12.05 -2.5 Q-11.35 -3.25 -10.5 -3.55 L-7.35 -4.25" fill="#e4b769" fill-rule="evenodd" stroke="none"/>
    <path d="M-1.55 0.35 Q-1.1 0.35 -0.75 0.65 -0.4 0.9 -0.4 1.35 -0.4 1.75 -0.7 2.05 L-1.5 2.35 -11.2 2.6 -12.05 2.35 -12.45 1.65 -12.1 0.95 Q-11.8 0.6 -11.3 0.6 L-1.55 0.35" fill="#3d2618" fill-rule="evenodd" stroke="none"/>
  </g>
</svg>
