<?xml version="1.0" encoding="UTF-8" standalone="no"?>
<svg xmlns:ffdec="https://www.free-decompiler.com/flash" xmlns:xlink="http://www.w3.org/1999/xlink" ffdec:objectType="shape" height="19.75px" width="15.15px" xmlns="http://www.w3.org/2000/svg">
  <g transform="matrix(1.0, 0.0, 0.0, 1.0, 16.2, 10.35)">
    <path d="M-12.75 -8.85 Q-10.9 -10.35 -8.65 -10.35 -5.4 -10.45 -3.15 -7.15 -1.15 -4.45 -1.1 -0.45 L-1.1 -0.4 Q-1.15 3.5 -3.15 6.2 -5.35 9.45 -8.6 9.4 L-8.7 9.4 Q-12.0 9.4 -14.25 6.2 -16.2 3.5 -16.2 -0.45 -16.2 -2.65 -15.55 -4.45 L-15.6 -4.35 Q-15.15 -5.9 -14.25 -7.15 L-12.75 -8.85" fill="#e4b769" fill-rule="evenodd" stroke="none"/>
    <path d="M-13.4 -3.55 L-13.45 -3.45 Q-13.05 -4.85 -12.3 -5.95 L-10.95 -7.5 -11.0 -7.45 Q-9.45 -8.8 -7.5 -8.8 -4.75 -8.9 -2.8 -5.95 -1.1 -3.55 -1.05 0.0 L-1.05 0.05 Q-1.1 3.5 -2.8 5.9 -4.7 8.8 -7.45 8.75 L-7.55 8.75 Q-10.35 8.75 -12.3 5.9 -13.95 3.5 -13.95 0.0 -13.95 -1.95 -13.4 -3.55 M-10.05 -2.55 L-10.1 -2.45 -10.45 0.0 Q-10.45 2.3 -9.4 3.95 -8.6 5.1 -7.5 5.25 -6.5 5.1 -5.7 3.95 L-5.65 3.9 Q-4.6 2.3 -4.55 0.05 L-4.55 0.0 Q-4.6 -2.4 -5.7 -4.0 -6.45 -5.2 -7.5 -5.3 L-8.7 -4.8 -8.75 -4.8 -9.35 -4.05 -9.4 -4.0 -10.05 -2.55" fill="#3d2618" fill-rule="evenodd" stroke="none"/>
    <path d="M-10.05 -2.55 L-9.4 -4.0 -9.35 -4.05 -8.75 -4.8 -8.7 -4.8 -7.5 -5.3 Q-6.45 -5.2 -5.7 -4.0 -4.6 -2.4 -4.55 0.0 L-4.55 0.05 Q-4.6 2.3 -5.65 3.9 L-5.7 3.95 Q-6.5 5.1 -7.5 5.25 -8.6 5.1 -9.4 3.95 -10.45 2.3 -10.45 0.0 L-10.1 -2.45 -10.05 -2.55" fill="#f5e3c5" fill-rule="evenodd" stroke="none"/>
  </g>
</svg>
