<?xml version="1.0" encoding="UTF-8" standalone="no"?>
<svg xmlns:ffdec="https://www.free-decompiler.com/flash" xmlns:xlink="http://www.w3.org/1999/xlink" ffdec:objectType="shape" height="11.75px" width="13.25px" xmlns="http://www.w3.org/2000/svg">
  <g transform="matrix(1.0, 0.0, 0.0, 1.0, 13.8, 2.55)">
    <path d="M-1.2 -1.95 Q-0.6 -1.4 -0.6 -0.6 L-0.55 0.15 -0.55 0.45 Q-0.6 3.9 -2.35 6.35 L-2.25 6.25 Q-4.25 9.35 -7.2 9.2 -10.05 9.35 -12.1 6.35 -13.8 3.9 -13.8 0.4 L-13.7 -0.8 Q-13.65 -1.55 -13.1 -2.05 -12.55 -2.55 -11.75 -2.55 L-2.6 -2.55 Q-1.85 -2.55 -1.2 -1.95" fill="#e4b769" fill-rule="evenodd" stroke="none"/>
    <path d="M-2.35 -1.65 Q-1.65 -1.65 -1.1 -1.1 -0.6 -0.6 -0.6 0.1 L-0.55 0.75 -0.55 1.0 Q-0.6 4.05 -2.1 6.2 L-2.05 6.15 Q-3.8 8.85 -6.35 8.75 -8.9 8.85 -10.7 6.2 -12.2 4.05 -12.2 0.95 L-12.1 -0.1 Q-12.05 -0.75 -11.55 -1.2 -11.05 -1.65 -10.4 -1.65 L-2.35 -1.65 M-4.5 4.8 L-4.5 4.75 Q-3.45 3.25 -3.15 1.25 L-9.9 1.25 Q-9.7 3.25 -8.65 4.75 L-8.65 4.8 Q-7.75 6.15 -6.5 6.3 -5.4 6.15 -4.5 4.8" fill="#3d2618" fill-rule="evenodd" stroke="none"/>
    <path d="M-4.5 4.8 Q-5.4 6.15 -6.5 6.3 -7.75 6.15 -8.65 4.8 L-8.65 4.75 Q-9.7 3.25 -9.9 1.25 L-3.15 1.25 Q-3.45 3.25 -4.5 4.75 L-4.5 4.8" fill="#f5e3c5" fill-rule="evenodd" stroke="none"/>
  </g>
</svg>
