<?xml version="1.0" encoding="UTF-8" standalone="no"?>
<svg xmlns:ffdec="https://www.free-decompiler.com/flash" xmlns:xlink="http://www.w3.org/1999/xlink" ffdec:objectType="shape" height="10.05px" width="15.65px" xmlns="http://www.w3.org/2000/svg">
  <g transform="matrix(1.0, 0.0, 0.0, 1.0, -1.75, 6.5)">
    <path d="M3.45 -1.6 Q4.45 -3.6 6.85 -5.25 9.25 -6.95 12.1 -6.3 14.9 -5.7 16.45 -3.3 18.0 -0.85 17.0 1.95 L16.3 2.75 Q13.7 3.85 10.9 3.3 L6.65 2.85 3.25 3.55 Q1.3 3.15 1.85 1.8 2.4 0.4 3.45 -1.6" fill="#e4b769" fill-rule="evenodd" stroke="none"/>
    <path d="M16.75 2.15 Q15.7 2.9 15.05 1.85 10.9 -1.55 8.8 -1.15 6.9 -1.3 3.75 2.25 3.05 3.0 2.2 2.8 4.9 -3.6 8.7 -3.6 12.4 -4.05 16.75 2.15" fill="#3d2618" fill-rule="evenodd" stroke="none"/>
  </g>
</svg>
