<?xml version="1.0" encoding="UTF-8" standalone="no"?>
<svg xmlns:ffdec="https://www.free-decompiler.com/flash" xmlns:xlink="http://www.w3.org/1999/xlink" ffdec:objectType="shape" height="18.35px" width="18.25px" xmlns="http://www.w3.org/2000/svg">
  <g transform="matrix(1.0, 0.0, 0.0, 1.0, -2.75, 9.8)">
    <path d="M9.35 -9.8 Q11.0 -9.65 17.85 -2.75 L18.1 -0.25 18.15 1.05 Q18.85 1.05 21.0 2.85 L19.4 3.15 Q15.4 4.1 3.35 8.55 L3.2 8.3 Q2.8 7.65 3.05 7.0 3.25 6.3 3.9 6.05 L4.35 5.8 Q2.8 3.2 2.8 -0.25 2.8 -2.35 3.4 -4.15 L3.35 -4.05 Q3.85 -5.6 4.8 -6.9 L4.85 -6.95 6.4 -8.6 Q7.6 -9.95 9.35 -9.8" fill="#e4b769" fill-rule="evenodd" stroke="none"/>
    <path d="M5.7 -7.45 Q6.75 -8.7 8.25 -8.55 9.65 -8.4 15.4 -2.25 L15.6 -0.05 15.65 1.1 Q16.25 1.1 18.05 2.7 L16.7 3.0 Q13.35 3.85 3.2 7.8 L3.05 7.55 Q2.75 7.0 2.95 6.4 3.1 5.8 3.65 5.55 L4.05 5.35 Q2.75 3.05 2.75 -0.05 2.75 -1.9 3.25 -3.5 L3.2 -3.45 Q3.6 -4.8 4.4 -5.95 L4.45 -6.0 5.75 -7.5 5.7 -7.45 M8.35 -4.9 L7.95 -4.8 7.35 -4.05 7.3 -3.95 Q6.8 -3.35 6.6 -2.55 L6.6 -2.5 Q6.25 -1.4 6.25 -0.05 6.25 2.05 6.85 3.4 9.85 1.85 12.45 1.55 12.8 0.85 12.5 0.05 L10.55 -2.7 Q8.75 -5.0 8.35 -4.9" fill="#3d2618" fill-rule="evenodd" stroke="none"/>
    <path d="M8.35 -4.9 Q8.75 -5.0 10.55 -2.7 L12.5 0.05 Q12.8 0.85 12.45 1.55 9.85 1.85 6.85 3.4 6.25 2.05 6.25 -0.05 6.25 -1.4 6.6 -2.5 L6.6 -2.55 Q6.8 -3.35 7.3 -3.95 L7.35 -4.05 7.95 -4.8 8.35 -4.9" fill="#f5e3c5" fill-rule="evenodd" stroke="none"/>
  </g>
</svg>
