<?xml version="1.0" encoding="UTF-8" standalone="no"?>
<svg xmlns:ffdec="https://www.free-decompiler.com/flash" xmlns:xlink="http://www.w3.org/1999/xlink" ffdec:objectType="shape" height="107.85px" width="103.75px" xmlns="http://www.w3.org/2000/svg">
  <g transform="matrix(1.0, 0.0, 0.0, 1.0, 47.15, 51.85)">
    <path d="M-14.7 -42.25 Q-12.2 -46.4 -7.45 -47.55 16.0 -53.4 30.75 -33.1 33.75 -24.4 35.1 -15.1 38.05 -7.3 40.15 9.3 42.2 25.85 44.85 28.25 47.4 30.6 49.75 31.3 L49.1 33.5 Q43.5 31.75 41.7 27.35 40.85 25.35 38.25 15.5 L38.8 18.9 Q40.8 30.45 42.85 32.05 L44.95 33.65 Q48.9 35.3 55.0 33.65 52.9 37.95 49.2 40.7 46.4 42.75 42.95 42.8 30.5 43.05 18.65 37.2 12.05 33.95 4.75 33.2 -3.6 32.35 -11.2 35.0 -11.25 33.5 -11.45 31.95 -12.1 26.35 -12.1 20.65 L-10.4 21.3 Q-9.95 15.45 -10.95 6.75 -11.9 -2.0 -11.55 -7.3 L-9.75 -3.6 -9.75 -6.95 -9.75 -42.25 -14.7 -42.25 M-11.9 17.75 L-13.2 16.35 -13.95 18.85 Q-15.45 7.6 -14.6 -1.95 L-14.25 -0.8 Q-12.85 8.55 -11.9 17.75 M-13.0 39.45 Q-12.15 53.7 -25.85 54.1 -27.75 54.2 -29.2 53.2 L-27.15 53.05 Q-15.55 51.25 -13.0 39.45 M-27.5 51.4 L-27.05 49.75 Q-34.75 49.7 -37.5 42.3 L-34.65 43.55 -33.15 45.4 Q-29.25 49.7 -23.35 50.6 L-24.2 51.45 -27.5 51.4 M-27.8 41.95 L-27.45 41.25 -27.2 40.35 -28.2 40.45 -29.95 42.0 Q-34.9 42.15 -38.95 39.3 -30.95 39.8 -27.6 32.7 L-26.2 29.4 Q-29.45 32.15 -32.65 35.7 -33.55 36.6 -34.9 36.9 -40.2 38.25 -44.75 35.35 L-45.45 35.65 -45.5 33.55 Q-41.75 37.5 -36.5 35.7 -29.85 33.4 -28.5 26.5 -26.75 17.6 -28.2 8.55 -30.4 -5.65 -30.95 -20.2 -31.1 -23.6 -30.6 -26.8 -29.4 -35.4 -24.8 -42.25 L-20.35 -42.25 Q-22.55 -39.5 -24.2 -36.35 -27.3 -30.55 -28.05 -23.95 -29.9 -6.3 -26.0 10.95 L-25.5 10.95 Q-25.45 8.95 -25.65 7.05 -26.5 -1.0 -26.95 -9.0 -27.3 -16.7 -26.1 -24.3 -24.4 -34.25 -18.45 -42.25 L-18.0 -42.25 -19.2 -39.25 Q-22.7 -30.1 -23.5 -20.3 -24.5 -8.7 -23.9 3.15 L-22.7 24.1 Q-21.9 34.55 -27.8 41.95 M-40.4 39.25 Q-40.15 41.4 -39.05 43.15 L-38.05 44.7 Q-43.0 42.7 -44.85 37.6 -43.3 38.75 -41.45 39.2 L-40.4 39.25 M-30.85 29.4 Q-31.95 32.05 -34.6 33.45 -36.1 34.25 -37.75 34.55 L-38.55 33.85 Q-39.3 33.25 -39.65 32.15 L-39.9 31.15 -34.4 31.5 -34.5 28.65 -30.85 29.4" fill="#b9a99b" fill-rule="evenodd" stroke="none"/>
    <path d="M-9.75 -6.95 L-9.75 -3.6 -11.55 -7.3 Q-11.9 -2.0 -10.95 6.75 -9.95 15.45 -10.4 21.3 L-12.1 20.65 Q-12.1 26.35 -11.45 31.95 -11.25 33.5 -11.2 35.0 -3.6 32.35 4.75 33.2 12.05 33.95 18.65 37.2 30.5 43.05 42.95 42.8 46.4 42.75 49.2 40.7 52.9 37.95 55.0 33.65 48.9 35.3 44.95 33.65 L42.85 32.05 Q40.8 30.45 38.8 18.9 L38.25 15.5 Q40.85 25.35 41.7 27.35 43.5 31.75 49.1 33.5 L49.75 31.3 Q47.4 30.6 44.85 28.25 42.2 25.85 40.15 9.3 38.05 -7.3 35.1 -15.1 33.75 -24.4 30.75 -33.1 16.0 -53.4 -7.45 -47.55 -12.2 -46.4 -14.7 -42.25 L-16.0 -42.25 Q-14.05 -45.35 -9.85 -47.9 3.05 -55.75 17.05 -48.05 30.45 -40.75 34.75 -26.2 41.6 -1.45 42.2 14.25 42.8 29.9 51.05 30.55 L50.0 33.65 56.4 31.75 Q57.25 35.15 54.6 37.7 41.4 50.0 25.1 41.15 13.9 34.95 1.3 34.65 -5.25 34.5 -11.15 36.6 -11.2 42.7 -13.15 48.35 -15.2 54.1 -20.85 55.6 -27.9 57.25 -32.05 52.25 L-29.55 51.25 Q-31.7 51.0 -33.6 50.1 -35.8 49.0 -36.85 46.7 L-37.85 46.4 Q-43.75 44.35 -46.2 38.8 -48.35 33.95 -45.6 30.1 L-44.35 31.75 Q-43.1 33.5 -41.2 34.35 L-39.3 34.5 -39.45 34.2 -40.45 32.75 -41.2 31.35 -41.55 29.4 -41.05 29.4 -39.65 29.8 -35.55 30.35 -35.55 27.95 -35.3 27.15 -34.7 27.2 -32.9 27.75 Q-31.55 28.15 -30.2 27.75 -29.6 25.15 -29.45 22.65 -28.85 11.1 -30.3 -0.35 -31.7 -11.55 -32.4 -22.85 -33.0 -33.5 -27.4 -42.25 L-24.8 -42.25 Q-29.4 -35.4 -30.6 -26.8 -31.1 -23.6 -30.95 -20.2 -30.4 -5.65 -28.2 8.55 -26.75 17.6 -28.5 26.5 -29.85 33.4 -36.5 35.7 -41.75 37.5 -45.5 33.55 L-45.45 35.65 -44.85 37.6 Q-43.0 42.7 -38.05 44.7 L-39.05 43.15 Q-40.15 41.4 -40.4 39.25 L-39.6 38.95 -38.95 39.3 Q-34.9 42.15 -29.95 42.0 L-28.2 40.45 -27.2 40.35 -27.45 41.25 -27.8 41.95 -28.95 43.25 -34.65 43.55 -37.5 42.3 Q-34.75 49.7 -27.05 49.75 L-27.5 51.4 -29.2 53.2 Q-27.75 54.2 -25.85 54.1 -12.15 53.7 -13.0 39.45 L-13.95 18.85 -13.2 16.35 -11.9 17.75 -11.05 19.0 Q-11.25 16.3 -11.6 13.6 -13.1 1.75 -12.95 -10.15 L-12.45 -14.25 -11.75 -14.4 -11.45 -13.6 Q-11.05 -10.1 -9.75 -6.95 M-30.85 29.4 L-34.5 28.65 -34.4 31.5 -39.9 31.15 -39.65 32.15 Q-39.3 33.25 -38.55 33.85 L-37.75 34.55 Q-36.1 34.25 -34.6 33.45 -31.95 32.05 -30.85 29.4" fill="#6f5c4d" fill-rule="evenodd" stroke="none"/>
    <path d="M-9.75 -6.95 Q-11.05 -10.1 -11.45 -13.6 L-11.75 -14.4 -12.45 -14.25 -12.95 -10.15 Q-13.1 1.75 -11.6 13.6 -11.25 16.3 -11.05 19.0 L-11.9 17.75 Q-12.85 8.55 -14.25 -0.8 L-14.6 -1.95 Q-15.45 7.6 -13.95 18.85 L-13.0 39.45 Q-15.55 51.25 -27.15 53.05 L-29.2 53.2 -27.5 51.4 -24.2 51.45 -23.35 50.6 Q-29.25 49.7 -33.15 45.4 L-34.65 43.55 -28.95 43.25 -27.8 41.95 Q-21.9 34.55 -22.7 24.1 L-23.9 3.15 Q-24.5 -8.7 -23.5 -20.3 -22.7 -30.1 -19.2 -39.25 L-18.0 -42.25 -16.0 -42.25 -14.7 -42.25 -9.75 -42.25 -9.75 -6.95 M-38.95 39.3 L-39.6 38.95 -40.4 39.25 -41.45 39.2 Q-43.3 38.75 -44.85 37.6 L-45.45 35.65 -44.75 35.35 Q-40.2 38.25 -34.9 36.9 -33.55 36.6 -32.65 35.7 -29.45 32.15 -26.2 29.4 L-27.6 32.7 Q-30.95 39.8 -38.95 39.3 M-18.45 -42.25 Q-24.4 -34.25 -26.1 -24.3 -27.3 -16.7 -26.95 -9.0 -26.5 -1.0 -25.65 7.05 -25.45 8.95 -25.5 10.95 L-26.0 10.95 Q-29.9 -6.3 -28.05 -23.95 -27.3 -30.55 -24.2 -36.35 -22.55 -39.5 -20.35 -42.25 L-18.45 -42.25 M-16.15 7.4 L-17.6 10.1 Q-19.6 14.25 -20.0 18.85 L-20.0 23.45 -19.8 25.4 Q-18.9 31.9 -20.65 37.95 L-21.9 41.35 Q-23.05 44.0 -25.65 45.45 L-27.8 46.85 Q-22.5 50.7 -18.45 45.35 -15.9 42.0 -14.9 38.15 L-14.55 36.35 Q-14.05 33.1 -14.65 29.55 -16.4 18.6 -15.8 7.75 L-16.15 7.4" fill="#c7baaf" fill-rule="evenodd" stroke="none"/>
    <path d="M-16.15 7.4 L-15.8 7.75 Q-16.4 18.6 -14.65 29.55 -14.05 33.1 -14.55 36.35 L-14.9 38.15 Q-15.9 42.0 -18.45 45.35 -22.5 50.7 -27.8 46.85 L-25.65 45.45 Q-23.05 44.0 -21.9 41.35 L-20.65 37.95 Q-18.9 31.9 -19.8 25.4 L-20.0 23.45 -20.0 18.85 Q-19.6 14.25 -17.6 10.1 L-16.15 7.4" fill="#d2c8bf" fill-rule="evenodd" stroke="none"/>
  </g>
</svg>
