<?xml version="1.0" encoding="UTF-8" standalone="no"?>
<svg xmlns:ffdec="https://www.free-decompiler.com/flash" xmlns:xlink="http://www.w3.org/1999/xlink" ffdec:objectType="shape" height="30.65px" width="67.15px" xmlns="http://www.w3.org/2000/svg">
  <g transform="matrix(1.0, 0.0, 0.0, 1.0, -0.35, -25.5)">
    <path d="M59.15 34.95 L59.15 41.2 48.85 48.6 48.85 43.5 Q50.6 42.8 53.7 40.45 57.45 37.55 59.15 34.95 M47.05 44.45 L47.05 49.6 43.75 51.05 43.75 45.95 47.05 44.45 M9.05 46.85 Q12.4 48.65 18.15 49.5 L25.4 49.9 25.4 54.7 14.8 53.55 9.05 51.65 9.05 46.85" fill="#818181" fill-rule="evenodd" stroke="none"/>
    <path d="M59.15 41.2 L59.15 34.95 61.8 31.0 64.35 26.6 66.25 26.6 66.25 33.05 64.1 36.45 Q62.85 38.0 59.15 41.2 M1.75 40.6 Q2.3 42.0 4.3 43.9 6.7 46.15 9.05 46.85 L9.05 51.65 Q5.45 50.25 4.0 48.5 1.7 45.85 1.75 40.6" fill="#5b5b5b" fill-rule="evenodd" stroke="none"/>
    <path d="M48.85 43.5 L48.85 48.6 47.05 49.6 47.05 44.45 48.85 43.5 M43.75 45.95 L43.75 51.05 Q40.3 52.95 33.75 54.0 L25.4 54.7 25.4 49.9 43.75 45.95" fill="#aaaaaa" fill-rule="evenodd" stroke="none"/>
    <path d="M48.85 48.6 L59.15 41.2 Q62.85 38.0 64.1 36.45 L66.25 33.05 66.25 26.6 64.35 26.6 64.6 25.5 67.5 25.75 67.5 34.35 Q63.75 40.45 56.95 45.7 43.6 56.15 25.4 56.15 18.05 56.15 11.1 54.35 4.3 52.55 0.35 49.65 L0.35 40.4 1.4 39.65 1.75 40.6 Q1.7 45.85 4.0 48.5 5.45 50.25 9.05 51.65 L14.8 53.55 25.4 54.7 33.75 54.0 Q40.3 52.95 43.75 51.05 L47.05 49.6 48.85 48.6" fill="#2c2c2c" fill-rule="evenodd" stroke="none"/>
  </g>
</svg>
