<?xml version="1.0" encoding="UTF-8" standalone="no"?>
<svg xmlns:ffdec="https://www.free-decompiler.com/flash" xmlns:xlink="http://www.w3.org/1999/xlink" ffdec:objectType="shape" height="50.4px" width="64.85px" xmlns="http://www.w3.org/2000/svg">
  <g transform="matrix(1.0, 0.0, 0.0, 1.0, 0.4, 6.55)">
    <path d="M55.65 14.5 Q54.95 11.9 51.9 9.5 45.85 4.75 34.1 4.75 22.3 4.75 14.75 9.65 8.2 13.95 8.2 19.0 8.2 24.2 13.75 26.55 18.05 28.4 25.5 28.4 39.05 28.4 48.25 22.9 55.65 18.4 55.65 14.5 M50.95 7.35 Q59.35 11.25 59.35 16.3 59.35 23.05 48.55 28.65 37.6 34.35 24.0 34.35 14.4 34.35 9.35 31.2 4.35 28.1 4.35 22.15 4.35 14.5 13.65 9.0 22.65 3.75 34.3 3.75 43.1 3.75 50.95 7.35" fill="#855521" fill-rule="evenodd" stroke="none"/>
    <path d="M55.65 14.5 Q55.65 18.4 48.25 22.9 39.05 28.4 25.5 28.4 18.05 28.4 13.75 26.55 8.2 24.2 8.2 19.0 8.2 13.95 14.75 9.65 22.3 4.75 34.1 4.75 45.85 4.75 51.9 9.5 54.95 11.9 55.65 14.5" fill="#a96c29" fill-rule="evenodd" stroke="none"/>
    <path d="M34.4 -0.75 L34.85 -1.4 37.3 -3.4 Q39.95 -5.05 43.8 -5.05 47.6 -5.05 51.65 -3.15 56.05 -1.15 57.9 1.85 L56.55 3.55 55.2 4.95 Q54.0 4.95 47.2 2.15 40.35 -0.65 34.4 -0.75 M50.95 7.35 Q43.1 3.75 34.3 3.75 22.65 3.75 13.65 9.0 4.35 14.5 4.35 22.15 4.35 28.1 9.35 31.2 14.4 34.35 24.0 34.35 37.6 34.35 48.55 28.65 59.35 23.05 59.35 16.3 59.35 11.25 50.95 7.35 M62.95 17.85 Q62.95 27.9 49.35 35.45 36.8 42.4 22.9 42.4 12.45 42.4 6.75 38.05 1.1 33.7 1.1 25.8 1.1 15.1 11.9 7.65 21.9 0.75 34.1 0.75 45.0 0.75 53.85 5.85 62.95 11.1 62.95 17.85" fill="#613f18" fill-rule="evenodd" stroke="none"/>
    <path d="M34.4 -0.75 Q40.35 -0.65 47.2 2.15 54.0 4.95 55.2 4.95 L56.55 3.55 57.9 1.85 Q56.05 -1.15 51.65 -3.15 47.6 -5.05 43.8 -5.05 39.95 -5.05 37.3 -3.4 L34.85 -1.4 34.4 -0.75 M39.35 -5.55 Q42.4 -6.55 43.8 -6.55 49.65 -6.55 55.15 -2.6 59.5 0.55 59.5 1.6 L59.25 3.35 Q58.55 5.1 56.45 5.85 60.95 8.5 62.95 12.4 64.45 15.35 64.45 18.65 64.45 29.4 49.55 37.15 36.7 43.85 24.45 43.85 12.05 43.85 5.8 39.25 -0.4 34.7 -0.4 25.85 -0.4 18.5 4.6 12.3 9.75 5.9 19.15 2.1 20.85 1.4 27.25 0.25 32.4 -0.65 33.2 -1.75 34.95 -4.1 39.35 -5.55 M62.95 17.85 Q62.95 11.1 53.85 5.85 45.0 0.75 34.1 0.75 21.9 0.75 11.9 7.65 1.1 15.1 1.1 25.8 1.1 33.7 6.75 38.05 12.45 42.4 22.9 42.4 36.8 42.4 49.35 35.45 62.95 27.9 62.95 17.85" fill="#35220d" fill-rule="evenodd" stroke="none"/>
  </g>
</svg>
