<?xml version="1.0" encoding="UTF-8" standalone="no"?>
<svg xmlns:ffdec="https://www.free-decompiler.com/flash" xmlns:xlink="http://www.w3.org/1999/xlink" ffdec:objectType="shape" height="25.5px" width="31.35px" xmlns="http://www.w3.org/2000/svg">
  <g transform="matrix(1.0, 0.0, 0.0, 1.0, -26.05, -0.2)">
    <path d="M27.5 1.2 Q28.5 0.7 29.75 0.7 34.6 0.7 38.2 2.05 40.55 2.95 41.35 3.85 L39.85 2.85 Q38.6 2.15 36.25 2.1 31.25 1.0 27.5 1.2 M50.9 7.6 L41.8 4.45 51.1 6.0 Q56.5 7.55 56.5 10.5 56.5 12.45 53.15 12.45 52.3 12.45 49.9 11.0 46.95 9.25 44.1 6.55 L43.45 5.8 Q45.45 7.9 49.25 9.8 L53.4 9.9 Q53.4 8.55 50.9 7.6 M43.55 7.9 Q42.75 7.9 38.0 5.65 L32.0 2.75 32.0 2.7 Q39.45 4.05 41.85 5.2 43.55 6.05 44.0 7.75 44.55 7.9 43.55 7.9 M46.1 9.6 Q48.7 10.5 50.2 15.0 51.25 18.3 51.25 21.1 L50.8 22.75 Q50.05 24.3 48.25 25.0 L48.6 16.75 Q48.6 13.2 46.75 10.3 L46.1 9.6" fill="#e8cb02" fill-rule="evenodd" stroke="none"/>
    <path d="M27.5 1.2 L26.05 1.5 Q27.5 0.05 31.4 0.2 36.35 0.2 40.25 2.1 L44.85 4.4 Q50.3 5.65 52.55 6.45 57.4 8.25 57.4 10.5 57.4 11.65 56.25 12.45 55.25 13.15 54.05 13.15 52.95 13.15 50.55 12.35 L50.5 12.6 51.3 16.45 Q52.0 19.55 52.0 21.2 52.0 25.65 48.0 25.7 47.35 25.75 47.35 24.75 L47.85 21.2 48.35 17.6 Q48.35 11.5 44.45 9.05 43.2 8.3 41.55 7.85 L39.8 7.45 Q31.1 3.35 29.0 2.75 L29.95 2.5 34.3 2.4 38.0 2.7 36.25 2.1 Q38.6 2.15 39.85 2.85 L41.35 3.85 Q40.55 2.95 38.2 2.05 34.6 0.7 29.75 0.7 28.5 0.7 27.5 1.2 M50.9 7.6 Q53.4 8.55 53.4 9.9 L49.25 9.8 Q45.45 7.9 43.45 5.8 L44.1 6.55 Q46.95 9.25 49.9 11.0 52.3 12.45 53.15 12.45 56.5 12.45 56.5 10.5 56.5 7.55 51.1 6.0 L41.8 4.45 50.9 7.6 M52.45 10.1 L52.5 9.85 49.95 7.85 Q47.45 6.25 45.5 5.95 L46.95 7.4 49.55 9.2 Q51.35 10.1 52.45 10.1 M46.1 9.6 L46.75 10.3 Q48.6 13.2 48.6 16.75 L48.25 25.0 Q50.05 24.3 50.8 22.75 L51.25 21.1 Q51.25 18.3 50.2 15.0 48.7 10.5 46.1 9.6 M43.55 7.9 Q44.55 7.9 44.0 7.75 43.55 6.05 41.85 5.2 39.45 4.05 32.0 2.7 L32.0 2.75 38.0 5.65 Q42.75 7.9 43.55 7.9" fill="#513600" fill-rule="evenodd" stroke="none"/>
  </g>
</svg>
