<?xml version="1.0" encoding="UTF-8" standalone="no"?>
<svg xmlns:ffdec="https://www.free-decompiler.com/flash" xmlns:xlink="http://www.w3.org/1999/xlink" ffdec:objectType="shape" height="15.4px" width="63.45px" xmlns="http://www.w3.org/2000/svg">
  <g transform="matrix(1.0, 0.0, 0.0, 1.0, 3.1, -26.65)">
    <path d="M45.25 28.45 L45.25 33.9 34.15 33.2 34.15 27.7 45.25 28.45 M16.5 33.95 L4.9 35.65 4.9 30.1 Q9.4 28.6 16.5 28.0 L16.5 33.95" fill="#6c3a1c" fill-rule="evenodd" stroke="none"/>
    <path d="M45.25 28.45 Q48.6 28.8 52.35 29.85 56.35 31.0 58.9 32.35 L57.5 35.8 45.25 33.9 45.25 28.45 M4.9 35.65 L-0.65 36.8 -2.0 32.9 4.9 30.1 4.9 35.65" fill="#512c15" fill-rule="evenodd" stroke="none"/>
    <path d="M34.15 33.2 L16.5 33.95 16.5 28.0 Q24.6 27.5 34.15 27.7 L34.15 33.2" fill="#8c4b24" fill-rule="evenodd" stroke="none"/>
    <path d="M45.25 34.9 Q45.25 37.1 49.7 36.7 55.25 36.2 57.0 37.35 54.05 40.1 45.45 40.6 L30.0 40.7 8.8 40.45 Q2.3 40.05 0.4 38.25 3.35 36.3 14.7 35.15 L31.95 34.2 45.25 34.9" fill="#442411" fill-rule="evenodd" stroke="none"/>
    <path d="M45.25 33.9 L57.5 35.8 58.9 32.35 Q56.35 31.0 52.35 29.85 48.6 28.8 45.25 28.45 L34.15 27.7 Q24.6 27.5 16.5 28.0 9.4 28.6 4.9 30.1 L-2.0 32.9 -0.65 36.8 4.9 35.65 16.5 33.95 34.15 33.2 45.25 33.9 M60.35 32.35 Q60.35 39.3 50.7 41.2 L30.8 42.05 5.55 41.0 Q-3.35 39.2 -3.1 32.35 10.35 26.0 35.8 26.75 46.15 27.05 53.15 28.6 60.35 30.2 60.35 32.35 M45.25 34.9 L31.95 34.2 14.7 35.15 Q3.35 36.3 0.4 38.25 2.3 40.05 8.8 40.45 L30.0 40.7 45.45 40.6 Q54.05 40.1 57.0 37.35 55.25 36.2 49.7 36.7 45.25 37.1 45.25 34.9" fill="#331c0d" fill-rule="evenodd" stroke="none"/>
  </g>
</svg>
