<?xml version="1.0" encoding="UTF-8" standalone="no"?>
<svg xmlns:ffdec="https://www.free-decompiler.com/flash" xmlns:xlink="http://www.w3.org/1999/xlink" ffdec:objectType="shape" height="27.65px" width="64.1px" xmlns="http://www.w3.org/2000/svg">
  <g transform="matrix(1.0, 0.0, 0.0, 1.0, 3.9, -13.95)">
    <path d="M-1.9 31.7 L58.2 31.7 Q57.2 34.35 51.2 36.75 43.0 40.05 29.65 40.05 15.9 40.05 7.65 37.75 -0.3 35.6 -1.9 31.7" fill="#442411" fill-rule="evenodd" stroke="none"/>
    <path d="M48.4 23.75 L48.4 18.05 Q54.75 20.05 57.15 22.3 58.7 23.75 58.7 25.5 L58.45 28.55 Q57.35 27.3 55.85 26.5 53.5 25.2 48.4 23.75 M-1.9 31.7 Q-0.95 28.6 5.55 25.85 14.15 22.2 28.15 22.2 43.0 22.2 51.55 26.1 57.5 28.8 58.2 31.7 L-1.9 31.7 M7.65 18.15 L7.65 23.85 Q5.4 24.15 1.65 26.2 -1.3 27.8 -2.1 28.55 L-2.4 25.4 Q-2.4 23.85 -0.65 22.3 1.85 20.0 7.65 18.15" fill="#512c15" fill-rule="evenodd" stroke="none"/>
    <path d="M48.4 18.05 L48.4 23.75 39.65 22.1 39.65 16.25 48.4 18.05 M20.15 21.75 L7.65 23.85 7.65 18.15 20.15 15.85 20.15 21.75" fill="#6c3a1c" fill-rule="evenodd" stroke="none"/>
    <path d="M39.65 16.25 L39.65 22.1 Q30.6 21.35 20.15 21.75 L20.15 15.85 31.3 15.55 39.65 16.25" fill="#8c4b24" fill-rule="evenodd" stroke="none"/>
    <path d="M48.4 23.75 Q53.5 25.2 55.85 26.5 57.35 27.3 58.45 28.55 L58.7 25.5 Q58.7 23.75 57.15 22.3 54.75 20.05 48.4 18.05 L39.65 16.25 31.3 15.55 20.15 15.85 7.65 18.15 Q1.85 20.0 -0.65 22.3 -2.4 23.85 -2.4 25.4 L-2.1 28.55 Q-1.3 27.8 1.65 26.2 5.4 24.15 7.65 23.85 L20.15 21.75 Q30.6 21.35 39.65 22.1 L48.4 23.75 M58.2 31.7 Q57.5 28.8 51.55 26.1 43.0 22.2 28.15 22.2 14.15 22.2 5.55 25.85 -0.95 28.6 -1.9 31.7 -0.3 35.6 7.65 37.75 15.9 40.05 29.65 40.05 43.0 40.05 51.2 36.75 57.2 34.35 58.2 31.7 M54.4 37.45 Q47.5 41.6 29.65 41.6 7.4 41.6 0.35 36.6 -2.45 34.6 -3.35 31.5 -3.9 29.55 -3.9 25.55 -3.9 21.35 3.6 18.0 12.65 13.95 28.15 13.95 41.4 13.95 50.55 17.1 60.2 20.45 60.2 25.6 60.2 33.9 54.4 37.45" fill="#331c0d" fill-rule="evenodd" stroke="none"/>
  </g>
</svg>
