<?xml version="1.0" encoding="UTF-8" standalone="no"?>
<svg xmlns:ffdec="https://www.free-decompiler.com/flash" xmlns:xlink="http://www.w3.org/1999/xlink" ffdec:objectType="shape" height="50.45px" width="64.75px" xmlns="http://www.w3.org/2000/svg">
  <g transform="matrix(1.0, 0.0, 0.0, 1.0, 0.35, 6.45)">
    <path d="M38.95 -4.15 Q35.25 -3.15 34.4 -0.75 39.65 -1.2 46.7 1.05 52.75 2.95 55.2 4.95 L57.9 1.85 Q55.05 -1.0 50.0 -3.0 45.7 -4.7 43.35 -4.7 L38.95 -4.15 M29.85 -0.4 Q32.7 -0.65 36.7 -3.85 40.35 -6.75 42.65 -6.4 45.8 -6.75 52.35 -3.95 59.45 -0.9 59.45 2.0 59.45 3.45 56.45 5.85 60.5 8.95 62.55 12.5 64.4 15.65 64.4 18.55 64.4 27.2 52.3 35.4 39.65 44.0 24.65 44.0 12.6 44.0 6.0 39.15 -0.35 34.5 -0.35 26.3 -0.35 15.8 9.4 7.95 18.35 0.75 29.85 -0.4 M50.6 34.65 Q62.85 27.0 62.85 18.4 62.85 12.25 55.3 6.7 47.25 0.8 36.85 0.8 19.7 0.8 9.45 9.7 1.15 16.95 1.15 25.15 1.15 32.55 5.65 37.0 11.25 42.5 23.3 42.5 38.1 42.5 50.6 34.65" fill="#0d0d0d" fill-rule="evenodd" stroke="none"/>
    <path d="M59.3 16.5 Q59.3 23.5 47.85 29.1 36.75 34.55 24.0 34.55 12.95 34.55 8.0 29.9 4.45 26.6 4.45 21.45 4.45 15.4 12.65 9.8 21.6 3.7 33.4 3.7 43.1 3.7 50.95 7.35 59.3 11.2 59.3 16.5 M55.6 14.9 Q55.6 10.9 48.75 7.75 42.25 4.75 34.85 4.75 22.3 4.75 14.75 9.65 8.35 13.85 8.35 19.0 8.35 22.5 11.25 25.0 15.25 28.4 23.75 28.4 39.0 28.4 48.4 22.9 55.6 18.7 55.6 14.9" fill="#353535" fill-rule="evenodd" stroke="none"/>
    <path d="M55.6 14.9 Q55.6 18.7 48.4 22.9 39.0 28.4 23.75 28.4 15.25 28.4 11.25 25.0 8.35 22.5 8.35 19.0 8.35 13.85 14.75 9.65 22.3 4.75 34.85 4.75 42.25 4.75 48.75 7.75 55.6 10.9 55.6 14.9" fill="#454545" fill-rule="evenodd" stroke="none"/>
    <path d="M38.95 -4.15 L43.35 -4.7 Q45.7 -4.7 50.0 -3.0 55.05 -1.0 57.9 1.85 L55.2 4.95 Q52.75 2.95 46.7 1.05 39.65 -1.2 34.4 -0.75 35.25 -3.15 38.95 -4.15 M59.3 16.5 Q59.3 11.2 50.95 7.35 43.1 3.7 33.4 3.7 21.6 3.7 12.65 9.8 4.45 15.4 4.45 21.45 4.45 26.6 8.0 29.9 12.95 34.55 24.0 34.55 36.75 34.55 47.85 29.1 59.3 23.5 59.3 16.5 M50.6 34.65 Q38.1 42.5 23.3 42.5 11.25 42.5 5.65 37.0 1.15 32.55 1.15 25.15 1.15 16.95 9.45 9.7 19.7 0.8 36.85 0.8 47.25 0.8 55.3 6.7 62.85 12.25 62.85 18.4 62.85 27.0 50.6 34.65" fill="#242424" fill-rule="evenodd" stroke="none"/>
  </g>
</svg>
