<?xml version="1.0" encoding="UTF-8" standalone="no"?>
<svg xmlns:ffdec="https://www.free-decompiler.com/flash" xmlns:xlink="http://www.w3.org/1999/xlink" ffdec:objectType="shape" height="117.95px" width="63.3px" xmlns="http://www.w3.org/2000/svg">
  <g transform="matrix(1.0, 0.0, 0.0, 1.0, -1.25, -1.7)">
    <path d="M29.9 81.95 L29.9 81.9 29.95 81.95 29.9 81.95" fill="#bf805b" fill-rule="evenodd" stroke="none"/>
    <path d="M59.85 19.8 Q63.9 24.9 63.9 27.7 L63.65 29.5 63.45 31.3 Q63.45 32.35 64.0 35.2 L64.55 38.35 Q64.55 40.3 63.65 41.8 62.45 43.85 61.7 47.95 61.3 49.9 59.3 52.45 57.05 55.3 56.45 57.15 55.85 58.95 54.4 60.65 L52.15 63.05 Q51.85 63.4 51.7 64.8 L51.35 66.55 49.55 68.7 Q48.25 70.1 48.25 70.55 48.25 73.85 47.7 76.65 L47.2 78.85 47.65 84.6 47.1 89.65 46.55 94.5 Q46.55 96.2 47.3 98.7 48.05 101.2 48.05 102.65 48.05 109.85 43.85 114.6 39.4 119.65 31.9 119.65 22.05 119.65 18.3 109.2 17.1 105.95 16.7 102.05 L16.5 98.75 Q16.5 94.4 17.9 90.95 19.25 88.3 19.25 87.75 19.25 69.65 10.25 57.05 L4.1 49.3 Q1.25 45.7 1.25 43.15 L1.95 38.4 Q1.95 35.35 1.6 32.8 L2.8 27.2 4.15 25.0 5.55 22.85 7.1 21.5 8.65 19.85 Q9.9 15.6 14.75 11.7 16.2 10.55 21.4 8.3 26.7 6.0 28.15 6.0 29.35 6.0 32.75 3.85 36.2 1.7 38.35 1.7 46.4 1.7 49.6 6.15 50.55 7.5 51.2 9.5 L51.95 11.55 Q55.5 14.5 58.95 18.65 L58.2 18.5 Q57.35 18.5 56.9 19.05 52.85 13.5 50.05 13.5 49.6 13.5 48.7 13.85 L47.9 14.15 47.55 13.85 47.3 13.4 Q47.3 12.95 47.95 11.5 L48.55 9.95 Q48.55 5.75 45.3 4.2 43.2 3.15 38.35 3.05 32.7 3.05 32.15 5.7 L32.1 7.8 Q32.1 8.95 31.5 9.35 27.95 7.85 27.25 7.85 27.0 7.85 22.8 9.95 18.1 12.35 14.7 14.3 13.85 14.75 9.85 21.5 6.45 27.3 5.65 27.95 L5.65 28.0 4.85 29.25 Q3.8 31.35 3.8 33.8 3.8 39.7 5.65 41.65 L7.45 43.45 Q8.55 44.9 9.3 47.4 L9.75 48.6 9.1 48.45 Q7.4 48.15 7.4 50.25 L7.5 51.0 Q7.75 51.75 8.75 51.75 9.45 51.75 10.05 51.35 L10.7 50.65 Q12.65 54.35 16.7 58.5 L20.45 62.2 Q22.05 63.9 22.05 64.65 L21.65 65.9 Q21.2 66.95 21.2 68.05 22.0 67.6 22.45 67.6 L22.65 67.65 22.7 68.1 21.85 69.9 Q21.0 71.45 21.0 72.65 L21.4 82.45 Q21.4 89.9 21.65 93.7 L21.45 94.65 21.7 95.75 21.8 95.9 21.85 97.3 22.2 99.35 Q22.35 101.2 21.25 101.65 L21.15 101.65 Q20.8 101.2 20.1 93.9 L20.0 94.4 19.05 96.9 Q18.3 99.0 18.3 99.75 L18.4 101.05 18.5 103.2 Q18.55 105.1 19.0 106.25 19.5 107.55 20.35 107.55 21.0 107.55 22.3 105.2 22.4 109.8 25.05 112.45 27.2 114.6 30.7 115.05 L30.75 115.35 Q31.2 116.15 32.5 116.15 33.0 116.15 33.5 115.5 L33.8 115.1 Q37.8 114.8 41.45 112.4 46.85 108.85 46.85 102.45 46.85 99.9 45.15 96.65 L44.9 104.45 Q44.75 105.8 44.1 105.8 L43.65 105.75 43.55 105.7 43.0 99.25 42.75 94.6 Q42.75 92.9 43.3 90.0 L43.6 89.25 43.55 88.7 43.75 87.75 44.65 83.5 44.15 78.4 45.3 75.2 Q46.45 72.15 46.45 70.35 L46.35 70.0 45.75 67.7 45.15 64.85 44.95 63.7 Q44.95 63.2 46.7 62.0 44.05 61.85 42.75 60.45 L42.0 59.25 41.7 58.1 41.5 55.5 Q41.5 51.2 43.6 48.75 45.25 46.9 47.55 46.65 L48.25 46.6 Q50.95 46.6 52.9 48.6 L53.55 49.4 Q54.55 50.8 54.9 52.65 L57.3 50.1 Q58.6 48.65 58.7 47.9 58.9 45.1 60.65 43.0 62.35 41.05 62.35 39.6 62.35 37.65 61.45 34.15 L60.55 30.55 Q60.55 29.75 61.05 28.55 L61.55 27.15 60.4 24.75 59.05 22.3 59.35 22.1 Q60.0 21.65 60.0 20.95 L59.85 19.8 M36.95 16.2 L37.85 17.8 38.7 19.4 39.0 21.95 39.0 22.1 38.75 23.2 38.25 25.1 37.35 28.25 34.85 31.6 Q33.35 33.0 31.4 33.55 L26.7 34.0 23.7 33.15 20.45 32.0 Q19.85 31.25 19.3 29.65 L18.85 27.95 Q18.85 25.45 19.55 23.05 20.85 18.5 24.2 15.85 26.1 13.8 30.8 13.8 L33.6 14.15 33.95 14.25 36.95 16.2 M47.75 48.15 L47.7 48.15 Q46.0 48.35 44.75 49.75 43.0 51.85 43.0 55.5 L43.2 57.85 43.2 57.9 43.4 58.65 43.35 58.65 43.85 59.45 43.9 59.5 Q44.9 60.4 46.8 60.5 L47.25 60.5 Q51.3 60.5 52.75 58.65 L52.75 58.7 Q53.5 57.4 53.5 54.35 L53.4 52.85 Q53.1 51.4 52.35 50.3 L52.3 50.25 51.85 49.65 Q50.3 48.1 48.25 48.1 L47.75 48.15 M24.4 86.75 Q25.4 84.4 26.65 83.25 L28.25 82.3 29.9 81.95 29.95 81.95 32.25 82.3 Q33.25 82.8 34.15 83.45 L34.75 84.1 Q35.5 85.35 36.0 87.15 L36.5 89.55 35.7 92.65 34.4 96.45 33.3 98.45 33.3 98.5 Q33.25 99.5 32.1 100.25 30.85 101.0 29.1 101.0 L27.7 100.55 27.1 100.25 Q25.8 99.1 24.8 94.8 24.0 91.4 24.0 89.75 L24.2 87.9 24.4 86.75 M28.0 53.35 Q27.7 55.75 26.8 56.7 25.95 57.5 24.25 57.5 21.95 57.5 20.95 56.35 20.0 55.25 20.0 53.05 20.0 52.35 20.3 51.25 L20.9 49.75 22.75 49.0 24.0 48.65 Q26.05 48.65 27.25 50.4 28.25 51.9 28.0 53.35 M21.85 22.2 Q20.35 26.25 20.35 28.15 20.35 32.5 27.4 32.5 33.1 32.5 35.75 28.05 37.5 25.15 37.5 21.9 37.5 15.5 30.4 15.55 27.75 15.6 25.5 16.55 23.3 17.55 23.3 18.65 23.3 18.15 21.85 22.2 M25.8 51.0 Q25.05 50.1 24.0 50.1 22.95 50.1 22.25 51.0 21.5 51.85 21.5 53.05 21.5 54.25 22.25 55.15 22.95 56.0 24.0 56.0 25.05 56.0 25.8 55.15 26.5 54.25 26.5 53.05 26.5 51.85 25.8 51.0 M27.55 84.45 Q25.5 86.15 25.5 89.75 25.5 94.25 26.45 96.8 27.5 99.5 29.35 99.5 31.0 99.5 32.1 97.25 33.25 95.0 33.45 95.0 34.05 95.0 34.25 93.95 L34.6 91.8 Q35.0 90.55 35.0 89.55 35.0 86.55 33.5 84.9 32.2 83.45 30.05 83.45 28.8 83.45 27.55 84.45" fill="#48250b" fill-rule="evenodd" stroke="none"/>
    <path d="M59.05 22.3 L60.4 24.75 61.55 27.15 61.05 28.55 Q60.55 29.75 60.55 30.55 L61.45 34.15 Q62.35 37.65 62.35 39.6 62.35 41.05 60.65 43.0 58.9 45.1 58.7 47.9 58.6 48.65 57.3 50.1 L54.9 52.65 Q54.55 50.8 53.55 49.4 L54.2 48.65 54.25 48.9 Q54.65 49.8 55.85 49.8 56.6 49.8 57.05 49.3 L57.5 48.35 57.3 46.35 57.5 46.15 57.75 45.0 Q57.85 42.6 59.15 40.55 60.4 38.55 60.4 36.8 L58.6 34.35 Q56.8 31.65 56.8 30.2 L58.15 26.45 Q58.15 23.55 54.4 19.4 51.05 15.65 49.85 15.65 48.55 15.65 45.9 17.0 43.2 18.35 41.9 18.35 L41.65 18.15 41.7 17.8 Q42.3 16.7 44.65 13.5 46.55 10.9 46.55 10.35 L46.2 9.5 Q46.0 8.3 44.8 7.75 L44.75 7.75 Q42.7 5.6 40.2 5.6 L34.65 6.0 Q33.3 6.55 33.3 8.85 L34.4 13.85 34.3 14.15 34.2 14.2 33.95 14.25 33.6 14.15 31.65 12.35 Q29.9 10.85 28.6 10.85 27.2 10.85 25.45 11.55 25.1 11.25 24.55 11.15 23.35 10.9 23.25 12.6 L21.5 13.7 Q16.85 16.95 15.65 20.65 15.45 21.35 12.55 23.9 L12.4 24.05 Q11.95 23.55 11.2 23.55 9.4 23.6 9.4 26.1 L9.5 27.0 9.65 27.3 9.15 28.55 Q8.5 31.25 7.35 33.75 L6.4 36.0 Q6.4 37.1 9.75 44.45 L13.85 52.9 Q14.75 54.55 17.05 57.1 19.25 59.65 19.9 59.85 L22.3 60.6 Q22.0 61.35 22.0 62.7 L22.1 63.4 Q22.4 64.0 23.25 64.0 24.05 64.0 24.5 63.4 24.85 62.85 24.85 62.3 L24.8 61.35 29.0 62.4 30.5 62.75 Q30.8 62.9 30.8 63.35 L29.75 64.4 27.45 66.05 Q24.05 68.6 24.05 70.9 24.05 72.8 24.55 75.6 L25.0 78.05 24.7 80.15 24.45 83.45 24.4 86.75 24.2 87.9 24.0 89.75 Q24.0 91.4 24.8 94.8 25.8 99.1 27.1 100.25 L25.5 103.7 Q24.6 105.55 24.6 105.95 24.6 109.5 26.7 110.35 L34.1 110.9 Q37.6 110.9 39.95 107.05 41.8 104.0 41.8 101.4 L40.9 99.2 Q40.0 97.1 40.0 94.8 40.0 89.5 41.0 80.35 L42.3 70.35 Q42.65 70.75 43.5 70.75 44.1 70.75 44.5 70.35 44.9 70.0 44.9 69.5 L44.85 68.3 Q44.6 67.25 43.35 67.25 L42.8 67.3 42.8 67.25 41.35 67.05 40.1 66.85 Q38.95 66.85 38.3 70.8 37.85 73.4 37.4 80.0 L36.6 90.8 Q35.95 96.7 34.85 99.45 L34.5 97.5 34.4 96.45 35.7 92.65 36.5 89.55 36.0 87.15 Q35.5 85.35 34.75 84.1 35.3 75.85 36.65 70.65 38.7 62.95 42.75 60.45 44.05 61.85 46.7 62.0 44.95 63.2 44.95 63.7 L45.15 64.85 45.75 67.7 46.35 70.0 46.45 70.35 Q46.45 72.15 45.3 75.2 L44.15 78.4 44.65 83.5 43.75 87.75 43.55 88.7 Q43.3 87.55 42.05 87.0 40.5 86.35 40.5 88.15 L41.0 89.25 Q41.65 90.35 42.35 90.35 L43.15 90.1 43.3 90.0 Q42.75 92.9 42.75 94.6 L43.0 99.25 43.55 105.7 43.65 105.75 44.1 105.8 Q44.75 105.8 44.9 104.45 L45.15 96.65 Q46.85 99.9 46.85 102.45 46.85 108.85 41.45 112.4 37.8 114.8 33.8 115.1 L34.0 114.3 Q34.0 113.05 32.3 113.05 30.6 113.0 30.6 114.5 L30.7 115.05 Q27.2 114.6 25.05 112.45 22.4 109.8 22.3 105.2 21.0 107.55 20.35 107.55 19.5 107.55 19.0 106.25 18.55 105.1 18.5 103.2 L18.4 101.05 18.3 99.75 Q18.3 99.0 19.05 96.9 L20.0 94.4 20.1 93.9 Q20.8 101.2 21.15 101.65 L21.25 101.65 Q22.35 101.2 22.2 99.35 L21.85 97.3 21.8 95.9 Q22.15 96.8 22.95 96.8 L24.15 96.1 Q24.55 95.55 24.55 95.05 24.55 93.7 23.0 93.3 22.0 93.05 21.65 93.7 21.4 89.9 21.4 82.45 L21.0 72.65 Q21.0 71.45 21.85 69.9 L22.7 68.1 22.65 67.65 22.45 67.6 Q22.0 67.6 21.2 68.05 21.2 66.95 21.65 65.9 L22.05 64.65 Q22.05 63.9 20.45 62.2 L16.7 58.5 Q12.65 54.35 10.7 50.65 L10.75 50.15 Q10.75 49.0 9.75 48.6 L9.3 47.4 Q8.55 44.9 7.45 43.45 L5.65 41.65 Q3.8 39.7 3.8 33.8 3.8 31.35 4.85 29.25 L5.65 28.0 5.65 27.95 Q6.45 27.3 9.85 21.5 13.85 14.75 14.7 14.3 18.1 12.35 22.8 9.95 27.0 7.85 27.25 7.85 27.95 7.85 31.5 9.35 32.1 8.95 32.1 7.8 L32.15 5.7 Q32.7 3.05 38.35 3.05 43.2 3.15 45.3 4.2 48.55 5.75 48.55 9.95 L47.95 11.5 Q47.3 12.95 47.3 13.4 L47.55 13.85 47.9 14.15 48.7 13.85 Q49.6 13.5 50.05 13.5 52.85 13.5 56.9 19.05 56.4 19.65 56.4 20.95 L56.5 21.75 Q56.8 22.6 57.75 22.6 L59.05 22.3" fill="#66340f" fill-rule="evenodd" stroke="none"/>
    <path d="M53.55 49.4 L52.9 48.6 Q50.95 46.6 48.25 46.6 L47.55 46.65 47.8 45.35 Q47.8 43.6 42.25 42.4 L36.55 41.5 Q35.4 41.5 32.75 42.65 L29.6 44.0 29.0 43.9 28.9 43.25 Q29.3 42.4 30.45 41.8 31.15 41.45 32.6 40.85 35.3 39.5 35.3 36.0 L35.05 33.45 34.75 32.4 34.85 31.6 37.35 28.25 37.55 28.2 Q38.0 28.2 38.1 28.35 L38.2 29.75 37.9 30.9 Q37.55 32.1 37.55 32.6 37.55 34.75 40.55 37.35 L41.3 37.95 41.25 38.45 41.4 39.6 Q41.75 40.65 43.0 40.65 44.15 40.65 44.5 39.85 L44.55 39.75 47.1 40.15 Q51.05 40.15 52.55 35.5 53.6 32.25 53.6 25.8 53.6 24.05 52.7 22.2 51.65 20.0 50.05 20.0 48.3 20.0 44.55 21.25 L42.0 22.2 Q41.7 21.35 40.45 21.35 39.45 21.35 39.05 22.0 L39.0 21.95 38.7 19.4 42.45 13.45 43.7 10.6 Q44.05 11.1 44.75 11.1 L45.85 10.75 Q46.25 10.4 46.25 10.0 L46.2 9.5 46.55 10.35 Q46.55 10.9 44.65 13.5 42.3 16.7 41.7 17.8 L41.65 18.15 41.9 18.35 Q43.2 18.35 45.9 17.0 48.55 15.65 49.85 15.65 51.05 15.65 54.4 19.4 58.15 23.55 58.15 26.45 L56.8 30.2 Q56.8 31.65 58.6 34.35 L60.4 36.8 Q60.4 38.55 59.15 40.55 57.85 42.6 57.75 45.0 L57.5 46.15 57.3 46.35 Q56.95 45.15 56.1 45.05 L56.2 44.9 Q57.05 44.0 57.05 42.8 57.05 41.6 56.2 40.75 55.3 39.85 54.1 39.85 52.9 39.85 52.05 40.75 51.15 41.6 51.15 42.8 51.15 44.0 52.05 44.9 52.9 45.75 54.1 45.75 L54.55 45.75 Q54.1 46.45 54.1 47.95 L54.2 48.65 53.55 49.4 M41.7 58.1 L42.0 59.25 42.75 60.45 Q38.7 62.95 36.65 70.65 35.3 75.85 34.75 84.1 L34.15 83.45 34.0 80.0 Q33.75 73.1 34.85 68.7 35.75 65.1 41.7 58.1 M43.35 8.9 L42.6 8.15 Q41.25 7.15 39.85 7.15 35.85 7.15 35.85 12.1 L37.15 14.35 36.95 16.2 33.95 14.25 34.2 14.2 34.3 14.15 34.4 13.85 33.3 8.85 Q33.3 6.55 34.65 6.0 L40.2 5.6 Q42.7 5.6 44.75 7.75 43.45 7.25 43.35 8.9 M25.45 11.55 Q27.2 10.85 28.6 10.85 29.9 10.85 31.65 12.35 L33.6 14.15 30.8 13.8 Q26.1 13.8 24.2 15.85 22.7 16.35 21.3 17.55 18.65 19.8 17.5 23.65 16.8 25.85 15.45 27.35 L13.0 29.5 Q11.55 30.7 10.95 31.8 10.1 33.35 10.1 35.8 10.1 36.9 11.6 38.4 13.05 39.95 14.0 39.95 15.7 39.95 18.1 37.75 20.6 35.35 20.6 33.2 L20.45 32.0 23.7 33.15 26.7 34.0 24.55 35.65 24.45 35.75 Q24.1 35.3 23.55 35.15 22.0 34.65 22.0 36.95 L22.15 37.7 Q19.6 40.15 19.6 41.8 L19.95 42.9 20.3 44.0 20.05 45.5 19.8 47.0 Q19.8 48.45 20.9 49.75 L20.3 51.25 Q20.0 52.35 20.0 53.05 20.0 55.25 20.95 56.35 21.95 57.5 24.25 57.5 25.95 57.5 26.8 56.7 27.7 55.75 28.0 53.35 L32.0 53.9 Q31.85 54.4 31.85 55.15 L31.9 56.1 Q32.2 57.15 33.25 57.15 34.0 57.15 34.75 55.25 L34.45 54.05 35.6 54.05 38.1 53.75 41.25 53.25 Q35.95 56.55 33.35 60.6 31.05 64.2 31.05 68.1 L31.65 74.45 32.25 82.3 29.95 81.95 29.9 81.9 29.9 81.95 28.25 82.3 28.8 78.1 Q29.7 71.95 28.75 70.65 28.15 71.3 27.3 77.45 L26.65 83.25 Q25.4 84.4 24.4 86.75 L24.45 83.45 24.7 80.15 25.0 78.05 24.55 75.6 Q24.05 72.8 24.05 70.9 24.05 68.6 27.45 66.05 L29.75 64.4 30.8 63.35 Q30.8 62.9 30.5 62.75 L29.0 62.4 24.8 61.35 Q24.55 59.7 23.45 59.65 22.6 59.6 22.3 60.6 L19.9 59.85 Q19.25 59.65 17.05 57.1 14.75 54.55 13.85 52.9 L9.75 44.45 Q6.4 37.1 6.4 36.0 L7.35 33.75 Q8.5 31.25 9.15 28.55 L9.65 27.3 Q10.1 28.0 11.35 28.0 13.0 28.0 13.0 26.55 13.0 24.8 12.4 24.05 L12.55 23.9 Q15.45 21.35 15.65 20.65 16.85 16.95 21.5 13.7 L23.25 12.6 23.25 12.9 23.45 13.65 Q23.8 14.35 24.6 14.35 25.4 14.35 25.7 13.85 L25.85 12.8 Q25.85 11.95 25.45 11.55 M18.65 43.95 Q18.0 43.05 17.05 43.05 16.1 43.05 15.45 43.95 14.8 44.85 14.8 46.1 14.8 47.35 15.45 48.25 16.1 49.15 17.05 49.15 18.0 49.15 18.65 48.25 19.3 47.35 19.3 46.1 19.3 44.85 18.65 43.95 M34.4 96.45 L34.5 97.5 34.85 99.45 Q35.95 96.7 36.6 90.8 L37.4 80.0 Q37.85 73.4 38.3 70.8 38.95 66.85 40.1 66.85 L41.35 67.05 42.8 67.25 42.8 67.3 42.2 67.65 Q42.0 67.9 42.0 68.8 L42.0 69.8 42.3 70.35 41.0 80.35 Q40.0 89.5 40.0 94.8 40.0 97.1 40.9 99.2 L41.8 101.4 Q41.8 104.0 39.95 107.05 37.6 110.9 34.1 110.9 L26.7 110.35 Q24.6 109.5 24.6 105.95 24.6 105.55 25.5 103.7 L27.1 100.25 27.7 100.55 29.1 101.0 Q27.7 104.65 27.7 106.85 27.7 108.1 28.05 108.45 28.7 109.1 31.0 109.1 33.95 109.1 35.4 108.4 37.1 107.65 37.1 105.85 37.1 103.65 35.2 102.2 L33.9 101.2 Q33.3 100.7 33.3 100.2 L33.3 98.5 33.3 98.45 34.4 96.45 M39.35 103.4 Q38.1 103.2 38.1 104.7 L38.15 105.45 Q38.45 106.35 39.5 106.35 40.6 106.35 40.6 105.05 40.6 103.6 39.35 103.4" fill="#874514" fill-rule="evenodd" stroke="none"/>
    <path d="M47.55 46.65 Q45.25 46.9 43.6 48.75 41.5 51.2 41.5 55.5 L41.7 58.1 Q35.75 65.1 34.85 68.7 33.75 73.1 34.0 80.0 L34.15 83.45 Q33.25 82.8 32.25 82.3 L31.65 74.45 31.05 68.1 Q31.05 64.2 33.35 60.6 35.95 56.55 41.25 53.25 L38.1 53.75 35.6 54.05 34.45 54.05 Q34.05 53.5 33.3 53.25 32.35 52.95 32.0 53.9 L28.0 53.35 Q28.25 51.9 27.25 50.4 26.05 48.65 24.0 48.65 L22.75 49.0 20.9 49.75 Q19.8 48.45 19.8 47.0 L20.05 45.5 20.3 44.0 19.95 42.9 19.6 41.8 Q19.6 40.15 22.15 37.7 L22.25 38.1 Q22.75 39.35 23.85 39.35 24.4 39.35 24.75 39.0 L25.1 38.15 Q25.1 36.5 24.45 35.75 L24.55 35.65 26.7 34.0 31.4 33.55 Q33.35 33.0 34.85 31.6 L34.75 32.4 35.05 33.45 35.3 36.0 Q35.3 39.5 32.6 40.85 31.15 41.45 30.45 41.8 29.3 42.4 28.9 43.25 L29.0 43.9 29.6 44.0 32.75 42.65 Q35.4 41.5 36.55 41.5 L42.25 42.4 Q47.8 43.6 47.8 45.35 L47.55 46.65 M43.35 8.9 L43.35 9.1 43.4 10.0 43.7 10.6 42.45 13.45 38.7 19.4 37.85 17.8 36.95 16.2 37.15 14.35 35.85 12.1 Q35.85 7.15 39.85 7.15 41.25 7.15 42.6 8.15 L43.35 8.9 M41.8 11.1 Q41.8 10.25 41.25 9.7 40.7 9.15 39.9 9.15 39.1 9.15 38.55 9.7 37.95 10.25 37.95 11.1 37.95 11.9 38.55 12.45 39.1 13.05 39.9 13.05 40.7 13.05 41.25 12.45 41.8 11.9 41.8 11.1 M38.75 23.2 L38.85 23.9 Q39.2 24.5 40.25 24.5 40.85 24.5 41.5 23.8 42.1 23.15 42.1 22.75 L42.0 22.2 44.55 21.25 Q48.3 20.0 50.05 20.0 51.65 20.0 52.7 22.2 53.6 24.05 53.6 25.8 53.6 32.25 52.55 35.5 51.05 40.15 47.1 40.15 L44.55 39.75 44.65 38.5 Q44.65 36.45 42.95 36.4 41.45 36.35 41.3 37.95 L40.55 37.35 Q37.55 34.75 37.55 32.6 37.55 32.1 37.9 30.9 L38.2 29.75 38.1 28.35 Q38.0 28.2 37.55 28.2 L37.35 28.25 38.25 25.1 38.75 23.2 M39.05 22.0 L39.0 22.1 39.0 21.95 39.05 22.0 M48.35 27.15 Q47.4 25.85 45.95 25.85 44.55 25.85 43.55 27.15 42.6 28.45 42.6 30.3 42.6 32.15 43.55 33.5 44.55 34.8 45.95 34.8 47.4 34.8 48.35 33.5 49.35 32.15 49.35 30.3 49.35 28.45 48.35 27.15 M54.55 45.75 L54.1 45.75 Q52.9 45.75 52.05 44.9 51.15 44.0 51.15 42.8 51.15 41.6 52.05 40.75 52.9 39.85 54.1 39.85 55.3 39.85 56.2 40.75 57.05 41.6 57.05 42.8 57.05 44.0 56.2 44.9 L56.1 45.05 55.8 45.0 Q55.0 45.0 54.55 45.75 M26.65 83.25 L27.3 77.45 Q28.15 71.3 28.75 70.65 29.7 71.95 28.8 78.1 L28.25 82.3 26.65 83.25 M20.45 32.0 L20.6 33.2 Q20.6 35.35 18.1 37.75 15.7 39.95 14.0 39.95 13.05 39.95 11.6 38.4 10.1 36.9 10.1 35.8 10.1 33.35 10.95 31.8 11.55 30.7 13.0 29.5 L15.45 27.35 Q16.8 25.85 17.5 23.65 18.65 19.8 21.3 17.55 22.7 16.35 24.2 15.85 20.85 18.5 19.55 23.05 18.85 25.45 18.85 27.95 L19.3 29.65 Q19.85 31.25 20.45 32.0 M14.8 31.45 Q13.9 31.45 13.3 32.1 12.65 32.75 12.65 33.65 12.65 34.5 13.3 35.15 13.9 35.8 14.8 35.8 15.65 35.8 16.3 35.15 16.9 34.5 16.9 33.65 16.9 32.75 16.3 32.1 15.65 31.45 14.8 31.45 M18.65 43.95 Q19.3 44.85 19.3 46.1 19.3 47.35 18.65 48.25 18.0 49.15 17.05 49.15 16.1 49.15 15.45 48.25 14.8 47.35 14.8 46.1 14.8 44.85 15.45 43.95 16.1 43.05 17.05 43.05 18.0 43.05 18.65 43.95 M32.6 34.35 L32.5 34.0 32.45 33.85 31.85 33.8 Q29.2 34.95 26.9 37.45 24.9 39.7 23.75 42.35 22.65 44.9 22.95 46.65 23.25 48.45 25.1 48.45 L25.75 48.35 Q26.45 48.15 26.45 47.45 L26.1 46.95 25.75 46.3 29.2 40.8 Q32.6 35.45 32.6 34.35 M39.7 46.6 Q38.1 45.75 35.8 45.75 33.5 45.75 31.9 46.6 30.25 47.4 30.25 48.6 30.25 49.75 31.9 50.55 33.5 51.4 35.8 51.4 38.1 51.4 39.7 50.55 41.35 49.75 41.35 48.6 41.35 47.4 39.7 46.6 M33.3 98.5 L33.3 100.2 Q33.3 100.7 33.9 101.2 L35.2 102.2 Q37.1 103.65 37.1 105.85 37.1 107.65 35.4 108.4 33.95 109.1 31.0 109.1 28.7 109.1 28.05 108.45 27.7 108.1 27.7 106.85 27.7 104.65 29.1 101.0 30.85 101.0 32.1 100.25 33.25 99.5 33.3 98.5 M33.85 104.55 Q33.85 103.65 33.2 103.05 32.6 102.4 31.7 102.4 30.85 102.4 30.2 103.05 29.6 103.65 29.6 104.55 29.6 105.45 30.2 106.1 30.85 106.7 31.7 106.7 32.6 106.7 33.2 106.1 33.85 105.45 33.85 104.55" fill="#a8561a" fill-rule="evenodd" stroke="none"/>
    <path d="M41.8 11.1 Q41.8 11.9 41.25 12.45 40.7 13.05 39.9 13.05 39.1 13.05 38.55 12.45 37.95 11.9 37.95 11.1 37.95 10.25 38.55 9.7 39.1 9.15 39.9 9.15 40.7 9.15 41.25 9.7 41.8 10.25 41.8 11.1 M48.35 27.15 Q49.35 28.45 49.35 30.3 49.35 32.15 48.35 33.5 47.4 34.8 45.95 34.8 44.55 34.8 43.55 33.5 42.6 32.15 42.6 30.3 42.6 28.45 43.55 27.15 44.55 25.85 45.95 25.85 47.4 25.85 48.35 27.15 M14.8 31.45 Q15.65 31.45 16.3 32.1 16.9 32.75 16.9 33.65 16.9 34.5 16.3 35.15 15.65 35.8 14.8 35.8 13.9 35.8 13.3 35.15 12.65 34.5 12.65 33.65 12.65 32.75 13.3 32.1 13.9 31.45 14.8 31.45 M32.6 34.35 Q32.6 35.45 29.2 40.8 L25.75 46.3 26.1 46.95 26.45 47.45 Q26.45 48.15 25.75 48.35 L25.1 48.45 Q23.25 48.45 22.95 46.65 22.65 44.9 23.75 42.35 24.9 39.7 26.9 37.45 29.2 34.95 31.85 33.8 L32.45 33.85 32.5 34.0 32.6 34.35 M39.7 46.6 Q41.35 47.4 41.35 48.6 41.35 49.75 39.7 50.55 38.1 51.4 35.8 51.4 33.5 51.4 31.9 50.55 30.25 49.75 30.25 48.6 30.25 47.4 31.9 46.6 33.5 45.75 35.8 45.75 38.1 45.75 39.7 46.6 M33.85 104.55 Q33.85 105.45 33.2 106.1 32.6 106.7 31.7 106.7 30.85 106.7 30.2 106.1 29.6 105.45 29.6 104.55 29.6 103.65 30.2 103.05 30.85 102.4 31.7 102.4 32.6 102.4 33.2 103.05 33.85 103.65 33.85 104.55" fill="#cc6920" fill-rule="evenodd" stroke="none"/>
    <path d="M59.85 19.8 L60.0 20.95 Q60.0 21.65 59.35 22.1 L59.05 22.3 57.75 22.6 Q56.8 22.6 56.5 21.75 L56.4 20.95 Q56.4 19.65 56.9 19.05 57.35 18.5 58.2 18.5 L58.95 18.65 Q59.6 18.9 59.85 19.8 M43.55 88.7 L43.6 89.25 43.3 90.0 43.15 90.1 42.35 90.35 Q41.65 90.35 41.0 89.25 L40.5 88.15 Q40.5 86.35 42.05 87.0 43.3 87.55 43.55 88.7 M33.8 115.1 L33.5 115.5 Q33.0 116.15 32.5 116.15 31.2 116.15 30.75 115.35 L30.7 115.05 30.6 114.5 Q30.6 113.0 32.3 113.05 34.0 113.05 34.0 114.3 L33.8 115.1 M21.8 95.9 L21.7 95.75 21.45 94.65 21.65 93.7 Q22.0 93.05 23.0 93.3 24.55 93.7 24.55 95.05 24.55 95.55 24.15 96.1 L22.95 96.8 Q22.15 96.8 21.8 95.9 M10.7 50.65 L10.05 51.35 Q9.45 51.75 8.75 51.75 7.75 51.75 7.5 51.0 L7.4 50.25 Q7.4 48.15 9.1 48.45 L9.75 48.6 Q10.75 49.0 10.75 50.15 L10.7 50.65 M43.7 10.6 L43.4 10.0 43.35 9.1 43.35 8.9 Q43.45 7.25 44.75 7.75 L44.8 7.75 Q46.0 8.3 46.2 9.5 L46.25 10.0 Q46.25 10.4 45.85 10.75 L44.75 11.1 Q44.05 11.1 43.7 10.6 M57.3 46.35 L57.5 48.35 57.05 49.3 Q56.6 49.8 55.85 49.8 54.65 49.8 54.25 48.9 L54.2 48.65 54.1 47.95 Q54.1 46.45 54.55 45.75 55.0 45.0 55.8 45.0 L56.1 45.05 Q56.95 45.15 57.3 46.35 M42.0 22.2 L42.1 22.75 Q42.1 23.15 41.5 23.8 40.85 24.5 40.25 24.5 39.2 24.5 38.85 23.9 L38.75 23.2 39.0 22.1 39.05 22.0 Q39.45 21.35 40.45 21.35 41.7 21.35 42.0 22.2 M41.3 37.95 Q41.45 36.35 42.95 36.4 44.65 36.45 44.65 38.5 L44.55 39.75 44.5 39.85 Q44.15 40.65 43.0 40.65 41.75 40.65 41.4 39.6 L41.25 38.45 41.3 37.95 M25.45 11.55 Q25.85 11.95 25.85 12.8 L25.7 13.85 Q25.4 14.35 24.6 14.35 23.8 14.35 23.45 13.65 L23.25 12.9 23.25 12.6 Q23.35 10.9 24.55 11.15 25.1 11.25 25.45 11.55 M12.4 24.05 Q13.0 24.8 13.0 26.55 13.0 28.0 11.35 28.0 10.1 28.0 9.65 27.3 L9.5 27.0 9.4 26.1 Q9.4 23.6 11.2 23.55 11.95 23.55 12.4 24.05 M22.3 60.6 Q22.6 59.6 23.45 59.65 24.55 59.7 24.8 61.35 L24.85 62.3 Q24.85 62.85 24.5 63.4 24.05 64.0 23.25 64.0 22.4 64.0 22.1 63.4 L22.0 62.7 Q22.0 61.35 22.3 60.6 M34.45 54.05 L34.75 55.25 Q34.0 57.15 33.25 57.15 32.2 57.15 31.9 56.1 L31.85 55.15 Q31.85 54.4 32.0 53.9 32.35 52.95 33.3 53.25 34.05 53.5 34.45 54.05 M22.15 37.7 L22.0 36.95 Q22.0 34.65 23.55 35.15 24.1 35.3 24.45 35.75 25.1 36.5 25.1 38.15 L24.75 39.0 Q24.4 39.35 23.85 39.35 22.75 39.35 22.25 38.1 L22.15 37.7 M42.8 67.3 L43.35 67.25 Q44.6 67.25 44.85 68.3 L44.9 69.5 Q44.9 70.0 44.5 70.35 44.1 70.75 43.5 70.75 42.65 70.75 42.3 70.35 L42.0 69.8 42.0 68.8 Q42.0 67.9 42.2 67.65 L42.8 67.3 M39.35 103.4 Q40.6 103.6 40.6 105.05 40.6 106.35 39.5 106.35 38.45 106.35 38.15 105.45 L38.1 104.7 Q38.1 103.2 39.35 103.4" fill="#271d16" fill-rule="evenodd" stroke="none"/>
  </g>
</svg>
