<?xml version="1.0" encoding="UTF-8" standalone="no"?>
<svg xmlns:ffdec="https://www.free-decompiler.com/flash" xmlns:xlink="http://www.w3.org/1999/xlink" ffdec:objectType="shape" height="123.05px" width="135.95px" xmlns="http://www.w3.org/2000/svg">
  <g transform="matrix(1.0, 0.0, 0.0, 1.0, 72.95, 34.05)">
    <path d="M1.45 -31.45 Q1.45 -32.45 2.05 -34.05 6.55 -26.9 8.0 -22.3 10.0 -16.25 10.5 -5.35 13.4 -7.25 14.8 -12.5 15.5 -15.1 15.6 -17.4 15.6 -18.4 16.35 -18.65 L16.9 -16.95 17.5 -13.35 17.75 -10.25 Q17.4 -4.5 16.05 -1.45 L16.95 -2.1 Q18.15 -2.8 19.95 -3.4 L20.5 -2.5 20.75 -0.9 Q20.3 1.85 19.5 3.5 25.2 2.1 27.6 2.15 28.8 2.15 28.85 2.45 L24.55 7.05 Q35.65 7.0 49.1 15.3 62.2 23.35 63.0 29.75 L56.45 29.4 51.45 28.3 49.5 28.4 Q53.4 32.5 54.9 36.3 56.6 40.6 56.6 47.45 L56.85 53.25 Q56.6 56.6 54.25 57.85 L52.6 52.55 Q51.75 49.95 50.4 48.2 47.2 43.95 35.75 38.25 37.3 43.65 41.1 50.65 44.4 56.7 46.5 59.15 46.2 61.2 41.55 59.4 37.0 57.55 34.5 54.5 36.3 57.15 37.0 62.35 37.35 64.85 37.35 67.35 37.35 73.2 33.5 81.1 30.35 87.7 28.55 89.0 L27.8 88.55 Q29.35 77.6 26.3 68.85 23.25 60.2 13.55 47.55 L13.5 50.95 12.35 51.05 5.0 34.35 -0.65 50.45 Q-2.45 42.6 -6.4 36.05 -9.9 30.35 -12.5 29.25 -13.8 32.9 -18.85 36.4 L-19.9 33.15 -20.65 29.9 Q-23.85 34.1 -25.4 41.85 L-26.7 52.15 Q-28.45 48.6 -30.35 41.25 -32.35 33.3 -32.35 29.0 L-32.25 24.25 Q-37.1 28.3 -42.4 40.8 -46.95 51.5 -48.0 58.0 -48.55 57.1 -49.1 55.15 L-49.6 53.25 Q-49.15 49.15 -49.05 47.0 L-49.55 48.8 Q-49.9 52.3 -54.7 55.8 -59.5 59.3 -64.05 59.3 -65.1 59.3 -67.75 58.45 -70.45 57.55 -71.75 56.75 L-70.3 56.95 Q-67.0 57.6 -64.8 54.65 -62.95 52.2 -61.15 46.15 L-57.65 33.2 Q-55.15 24.3 -52.45 17.65 -54.35 18.85 -58.2 24.0 -61.35 28.1 -64.0 28.35 L-64.05 24.75 Q-64.05 19.15 -59.7 12.15 -54.95 5.4 -54.05 3.25 -59.4 3.65 -65.35 7.65 -70.55 11.2 -72.0 14.15 L-72.75 13.8 Q-74.4 5.85 -63.7 -2.7 -52.85 -11.35 -40.5 -11.35 L-35.35 -10.9 -27.8 -9.75 Q-29.3 -14.35 -33.8 -20.0 -37.55 -24.8 -40.15 -26.55 L-38.1 -27.05 -35.5 -27.2 Q-26.05 -27.2 -16.0 -21.8 -5.85 -16.3 0.45 -7.75 1.95 -10.35 2.55 -15.55 L2.85 -20.55 Q2.85 -25.7 1.45 -31.45 M8.4 -12.0 L7.55 -16.9 4.5 -27.3 Q4.2 -9.75 3.6 -8.25 3.4 -7.8 2.55 -7.65 1.65 -7.45 0.8 -5.95 -6.45 -13.85 -18.8 -20.2 -30.8 -26.45 -36.15 -25.5 -28.7 -17.15 -27.15 -14.75 -25.65 -12.4 -25.65 -9.35 L-25.75 -7.75 -28.45 -7.6 -33.7 -8.65 -41.55 -9.75 Q-49.05 -9.75 -58.5 -4.05 -68.5 1.95 -69.75 8.35 -64.9 5.1 -58.2 2.9 L-52.35 1.35 Q-51.7 1.35 -51.55 2.0 L-51.55 2.65 Q-54.6 6.55 -58.1 13.7 -60.65 18.9 -62.05 22.75 L-45.95 11.2 Q-49.1 13.75 -50.9 17.65 -52.4 20.95 -54.05 28.45 -56.0 37.35 -57.55 41.9 -60.35 50.3 -65.25 57.75 L-64.25 58.0 Q-58.5 59.5 -53.05 51.35 -48.6 44.8 -47.1 37.35 -46.7 37.4 -46.35 37.75 L-46.05 38.15 -47.4 49.85 Q-44.55 39.9 -38.85 31.15 -34.5 24.45 -31.25 22.0 -30.9 22.5 -30.6 28.7 -30.2 36.7 -27.05 47.35 -26.7 39.4 -23.95 33.2 -22.1 28.95 -20.5 27.75 -19.3 28.9 -18.25 34.2 L-10.85 24.45 Q-4.65 16.45 -3.8 16.1 -7.85 11.75 -12.45 9.9 -16.9 8.05 -25.45 7.1 L-21.75 7.0 Q-15.4 7.0 -10.05 9.45 -5.05 11.75 -2.75 15.2 9.55 9.9 12.85 4.9 15.9 0.2 16.25 -12.8 13.4 -6.35 11.8 -4.15 10.95 -3.05 9.85 -2.6 L8.4 -12.0 M44.2 14.2 L43.75 13.95 Q32.8 8.0 22.55 8.0 14.3 8.0 2.6 13.75 -10.1 19.95 -10.1 25.9 L-7.0 30.65 Q-3.2 36.3 -0.65 44.75 0.1 41.6 2.15 36.45 4.0 31.8 4.45 31.35 7.3 32.2 8.9 35.65 10.05 38.15 11.5 44.9 18.0 44.05 24.8 60.15 27.55 66.6 29.05 73.05 30.55 79.6 30.0 82.85 34.85 77.05 34.85 65.35 34.85 62.85 33.0 57.25 L30.2 48.7 Q32.5 48.3 36.5 52.0 41.9 57.0 43.75 58.0 40.4 53.4 36.95 46.25 33.8 39.75 33.0 36.4 38.65 34.25 46.4 41.2 53.45 47.5 54.5 52.85 L54.9 48.1 Q54.9 42.6 53.05 37.9 51.1 33.1 46.6 27.65 L48.95 26.85 51.1 26.45 59.85 27.65 Q56.9 23.5 52.7 20.0 50.05 16.9 44.2 14.2 M21.5 5.15 L22.35 4.85 22.15 4.95 21.85 5.05 21.5 5.15 M23.0 4.55 L21.3 4.7 17.65 5.15 Q17.4 3.65 18.25 1.15 L19.25 -1.5 Q16.95 -0.15 15.2 3.8 14.3 5.75 13.85 7.45 22.1 8.7 24.75 6.45 26.15 5.25 26.5 3.0 L23.0 4.55" fill="#683a09" fill-rule="evenodd" stroke="none"/>
    <path d="M7.55 -16.9 L5.85 -18.75 6.05 -14.2 Q6.05 -8.35 5.2 -3.7 4.7 -0.8 3.05 5.0 L3.75 5.65 Q4.7 4.6 6.6 -2.1 8.6 -9.25 8.4 -12.0 L9.85 -2.6 Q10.95 -3.05 11.8 -4.15 13.4 -6.35 16.25 -12.8 15.9 0.2 12.85 4.9 9.55 9.9 -2.75 15.2 -5.05 11.75 -10.05 9.45 -15.4 7.0 -21.75 7.0 L-25.45 7.1 Q-16.9 8.05 -12.45 9.9 -7.85 11.75 -3.8 16.1 -4.65 16.45 -10.85 24.45 L-18.25 34.2 Q-19.3 28.9 -20.5 27.75 -22.1 28.95 -23.95 33.2 -26.7 39.4 -27.05 47.35 -30.2 36.7 -30.6 28.7 -30.9 22.5 -31.25 22.0 -34.5 24.45 -38.85 31.15 -44.55 39.9 -47.4 49.85 L-46.05 38.15 -46.35 37.75 Q-46.7 37.4 -47.1 37.35 -48.6 44.8 -53.05 51.35 -58.5 59.5 -64.25 58.0 L-65.25 57.75 Q-60.35 50.3 -57.55 41.9 -56.0 37.35 -54.05 28.45 -52.4 20.95 -50.9 17.65 -49.1 13.75 -45.95 11.2 L-62.05 22.75 Q-60.65 18.9 -58.1 13.7 -54.6 6.55 -51.55 2.65 L-51.55 2.0 Q-51.7 1.35 -52.35 1.35 L-58.2 2.9 Q-64.9 5.1 -69.75 8.35 -68.5 1.95 -58.5 -4.05 -49.05 -9.75 -41.55 -9.75 L-33.7 -8.65 -28.45 -7.6 -25.75 -7.75 -25.65 -9.35 Q-25.65 -12.4 -27.15 -14.75 -28.7 -17.15 -36.15 -25.5 -30.8 -26.45 -18.8 -20.2 -6.45 -13.85 0.8 -5.95 1.65 -7.45 2.55 -7.65 3.4 -7.8 3.6 -8.25 4.2 -9.75 4.5 -27.3 L7.55 -16.9 M14.2 -5.9 Q8.8 3.25 8.05 5.8 7.4 8.1 10.45 5.35 12.55 3.65 13.05 2.75 14.3 0.7 14.3 -3.65 L14.2 -5.9 M52.7 20.0 Q56.9 23.5 59.85 27.65 L51.1 26.45 48.95 26.85 46.6 27.65 Q51.1 33.1 53.05 37.9 54.9 42.6 54.9 48.1 L54.5 52.85 Q53.45 47.5 46.4 41.2 38.65 34.25 33.0 36.4 33.8 39.75 36.95 46.25 40.4 53.4 43.75 58.0 41.9 57.0 36.5 52.0 32.5 48.3 30.2 48.7 L33.0 57.25 Q34.85 62.85 34.85 65.35 34.85 77.05 30.0 82.85 30.55 79.6 29.05 73.05 27.55 66.6 24.8 60.15 18.0 44.05 11.5 44.9 10.05 38.15 8.9 35.65 7.3 32.2 4.45 31.35 4.0 31.8 2.15 36.45 0.1 41.6 -0.65 44.75 -3.2 36.3 -7.0 30.65 L-10.1 25.9 Q-10.1 19.95 2.6 13.75 14.3 8.0 22.55 8.0 32.8 8.0 43.75 13.95 L44.2 14.2 Q35.35 10.15 28.5 11.1 L28.0 12.05 Q31.95 13.3 39.65 19.05 46.15 23.9 50.7 23.9 L54.7 23.6 Q54.2 21.75 52.7 20.0 M52.55 41.55 Q53.0 37.75 39.75 24.55 26.2 11.05 20.65 11.05 L17.6 11.1 16.6 11.7 Q19.0 13.35 25.35 21.55 L31.8 29.8 47.05 40.1 Q50.4 42.25 52.55 41.55 M23.0 4.55 L26.5 3.0 Q26.15 5.25 24.75 6.45 22.1 8.7 13.85 7.45 14.3 5.75 15.2 3.8 16.95 -0.15 19.25 -1.5 L18.25 1.15 Q17.4 3.65 17.65 5.15 L21.3 4.7 23.0 4.55 M22.15 4.95 L22.35 4.85 21.5 5.15 21.1 5.7 Q21.2 6.1 21.75 6.35 L22.2 6.15 Q22.6 4.85 22.15 4.95 M16.2 5.4 L17.05 3.1 Q16.35 3.7 15.8 4.6 15.3 5.55 15.9 5.45 L16.2 5.4 M6.4 17.15 Q12.55 22.05 19.9 43.3 L25.6 59.55 Q28.95 68.15 32.0 72.35 L32.4 69.45 Q32.4 47.65 23.4 31.35 15.55 17.1 6.95 15.85 L6.4 17.15 M14.0 40.35 Q15.5 35.2 9.7 27.0 4.45 19.7 0.85 18.5 L-0.05 18.5 -0.65 20.1 Q6.0 24.6 9.05 29.35 11.75 33.6 13.1 40.55 L14.0 40.35 M37.25 49.0 Q30.75 33.0 25.45 25.1 23.0 21.45 16.25 14.2 17.4 15.95 26.85 35.25 33.1 48.1 37.25 49.0 M-23.6 -13.35 L-16.85 -4.3 -16.75 -8.05 Q-11.3 -3.2 -7.3 -0.3 -3.15 2.65 1.2 4.85 -7.65 -21.05 -29.9 -22.0 L-23.6 -13.35 M-40.15 -8.2 Q-47.2 -8.2 -56.45 -3.05 -63.2 0.8 -66.8 4.35 -64.1 2.1 -54.7 -0.5 -43.2 -3.7 -26.75 -5.75 -28.3 -6.4 -32.4 -7.25 L-40.15 -8.2 M-8.1 15.8 Q-10.55 13.65 -16.65 11.7 -22.25 9.9 -25.35 9.9 -34.75 9.9 -40.3 13.9 -44.85 17.2 -47.85 24.1 L-52.6 37.8 Q-55.6 46.75 -59.15 52.2 L-58.65 52.95 Q-56.25 51.0 -52.45 40.95 -47.55 28.1 -44.0 21.9 -45.0 26.9 -45.0 28.85 L-44.85 35.7 -37.9 26.45 Q-31.2 17.6 -26.75 16.4 -28.2 23.55 -28.45 34.35 L-27.6 34.65 Q-23.95 27.95 -20.55 23.25 -13.9 14.2 -9.0 16.4 L-8.1 15.8 M-5.35 24.55 Q-6.3 25.75 -6.3 26.95 1.85 47.85 1.85 31.65 1.85 28.0 -0.35 25.55 -2.2 23.5 -4.05 23.5 -4.5 23.5 -5.35 24.55 M-10.0 17.3 Q-13.1 17.6 -15.2 20.95 -17.05 23.9 -17.05 27.0 -17.05 28.55 -15.9 29.1 -14.25 27.1 -12.65 23.7 -10.8 19.8 -9.75 18.25 L-10.0 17.3 M-15.2 1.6 Q-21.0 -0.4 -27.55 -0.4 -37.25 -0.4 -45.1 3.65 -53.7 8.1 -55.6 15.45 L-50.95 12.0 Q-45.75 8.45 -40.2 6.35 -38.0 5.55 -33.05 4.55 -27.25 3.35 -23.95 3.35 -19.1 3.35 -11.55 4.6 L-5.05 5.95 Q-12.25 2.6 -15.2 1.6" fill="#b35500" fill-rule="evenodd" stroke="none"/>
    <path d="M8.4 -12.0 Q8.6 -9.25 6.6 -2.1 4.7 4.6 3.75 5.65 L3.05 5.0 Q4.7 -0.8 5.2 -3.7 6.05 -8.35 6.05 -14.2 L5.85 -18.75 7.55 -16.9 8.4 -12.0 M14.2 -5.9 L14.3 -3.65 Q14.3 0.7 13.05 2.75 12.55 3.65 10.45 5.35 7.4 8.1 8.05 5.8 8.8 3.25 14.2 -5.9 M44.2 14.2 Q50.05 16.9 52.7 20.0 54.2 21.75 54.7 23.6 L50.7 23.9 Q46.15 23.9 39.65 19.05 31.95 13.3 28.0 12.05 L28.5 11.1 Q35.35 10.15 44.2 14.2 M52.55 41.55 Q50.4 42.25 47.05 40.1 L31.8 29.8 25.35 21.55 Q19.0 13.35 16.6 11.7 L17.6 11.1 20.65 11.05 Q26.2 11.05 39.75 24.55 53.0 37.75 52.55 41.55 M21.5 5.15 L21.85 5.05 22.15 4.95 Q22.6 4.85 22.2 6.15 L21.75 6.35 Q21.2 6.1 21.1 5.7 L21.5 5.15 M-15.2 1.6 Q-12.25 2.6 -5.05 5.95 L-11.55 4.6 Q-19.1 3.35 -23.95 3.35 -27.25 3.35 -33.05 4.55 -38.0 5.55 -40.2 6.35 -45.75 8.45 -50.95 12.0 L-55.6 15.45 Q-53.7 8.1 -45.1 3.65 -37.25 -0.4 -27.55 -0.4 -21.0 -0.4 -15.2 1.6 M-10.0 17.3 L-9.75 18.25 Q-10.8 19.8 -12.65 23.7 -14.25 27.1 -15.9 29.1 -17.05 28.55 -17.05 27.0 -17.05 23.9 -15.2 20.95 -13.1 17.6 -10.0 17.3 M-5.35 24.55 Q-4.5 23.5 -4.05 23.5 -2.2 23.5 -0.35 25.55 1.85 28.0 1.85 31.65 1.85 47.85 -6.3 26.95 -6.3 25.75 -5.35 24.55 M-8.1 15.8 L-9.0 16.4 Q-13.9 14.2 -20.55 23.25 -23.95 27.95 -27.6 34.65 L-28.45 34.35 Q-28.2 23.55 -26.75 16.4 -31.2 17.6 -37.9 26.45 L-44.85 35.7 -45.0 28.85 Q-45.0 26.9 -44.0 21.9 -47.55 28.1 -52.45 40.95 -56.25 51.0 -58.65 52.95 L-59.15 52.2 Q-55.6 46.75 -52.6 37.8 L-47.85 24.1 Q-44.85 17.2 -40.3 13.9 -34.75 9.9 -25.35 9.9 -22.25 9.9 -16.65 11.7 -10.55 13.65 -8.1 15.8 M-40.15 -8.2 L-32.4 -7.25 Q-28.3 -6.4 -26.75 -5.75 -43.2 -3.7 -54.7 -0.5 -64.1 2.1 -66.8 4.35 -63.2 0.8 -56.45 -3.05 -47.2 -8.2 -40.15 -8.2 M-23.6 -13.35 L-29.9 -22.0 Q-7.65 -21.05 1.2 4.85 -3.15 2.65 -7.3 -0.3 -11.3 -3.2 -16.75 -8.05 L-16.85 -4.3 -23.6 -13.35 M37.25 49.0 Q33.1 48.1 26.85 35.25 17.4 15.95 16.25 14.2 23.0 21.45 25.45 25.1 30.75 33.0 37.25 49.0 M14.0 40.35 L13.1 40.55 Q11.75 33.6 9.05 29.35 6.0 24.6 -0.65 20.1 L-0.05 18.5 0.85 18.5 Q4.45 19.7 9.7 27.0 15.5 35.2 14.0 40.35 M6.4 17.15 L6.95 15.85 Q15.55 17.1 23.4 31.35 32.4 47.65 32.4 69.45 L32.0 72.35 Q28.95 68.15 25.6 59.55 L19.9 43.3 Q12.55 22.05 6.4 17.15 M16.2 5.4 L15.9 5.45 Q15.3 5.55 15.8 4.6 16.35 3.7 17.05 3.1 L16.2 5.4" fill="#e87809" fill-rule="evenodd" stroke="none"/>
  </g>
</svg>
