<?xml version="1.0" encoding="UTF-8" standalone="no"?>
<svg xmlns:ffdec="https://www.free-decompiler.com/flash" xmlns:xlink="http://www.w3.org/1999/xlink" ffdec:objectType="shape" height="32.9px" width="63.0px" xmlns="http://www.w3.org/2000/svg">
  <g transform="matrix(1.0, 0.0, 0.0, 1.0, 3.45, 5.8)">
    <path d="M27.4 -3.7 L21.7 -5.1 25.75 -5.3 30.25 -4.8 34.7 -4.3 37.15 -3.7 Q42.0 -2.5 47.0 0.8 51.3 3.65 53.55 6.5 L54.55 7.65 Q56.4 9.05 57.9 12.6 59.55 16.4 59.55 20.1 59.55 22.5 58.45 24.55 57.1 26.95 54.9 27.1 L56.75 24.25 Q58.1 21.7 58.1 19.95 58.1 11.95 49.2 4.15 39.4 -4.45 27.4 -3.7" fill="#525252" fill-rule="evenodd" stroke="none"/>
    <path d="M27.45 -3.7 L27.4 -3.7 Q39.4 -4.45 49.2 4.15 58.1 11.95 58.1 19.95 58.1 21.7 56.75 24.25 L54.9 27.1 45.8 27.1 45.35 18.4 49.45 18.75 Q52.65 18.75 53.85 18.05 55.1 17.35 55.1 15.6 55.1 11.15 48.2 5.4 40.35 -1.1 30.65 -2.2 L27.45 -3.7" fill="#d3d3d3" fill-rule="evenodd" stroke="none"/>
    <path d="M30.65 -2.2 Q40.35 -1.1 48.2 5.4 55.1 11.15 55.1 15.6 55.1 17.35 53.85 18.05 52.65 18.75 49.45 18.75 L45.35 18.4 44.7 14.65 48.3 15.1 50.95 14.65 Q51.45 14.35 51.45 13.6 51.45 11.65 48.3 8.4 43.65 3.45 34.75 0.3 L30.65 -2.2" fill="#e9e9e9" fill-rule="evenodd" stroke="none"/>
    <path d="M44.7 14.65 Q43.2 9.15 39.8 5.1 L34.75 0.3 Q43.65 3.45 48.3 8.4 51.45 11.65 51.45 13.6 51.45 14.35 50.95 14.65 L48.3 15.1 44.7 14.65" fill="#ffffff" fill-rule="evenodd" stroke="none"/>
    <path d="M34.75 0.3 L30.25 -0.35 26.6 -0.7 Q17.35 -0.7 11.8 2.7 6.35 6.05 6.35 11.55 6.35 13.0 6.8 13.75 7.15 14.3 7.65 14.3 L16.95 13.4 29.05 12.5 44.7 14.65 45.35 18.4 41.55 17.5 30.4 16.7 5.3 18.65 Q3.4 18.65 2.7 18.0 1.75 17.15 1.75 14.35 1.75 6.0 9.55 1.6 17.3 -2.8 30.65 -2.2 L34.75 0.3" fill="#ecb1c0" fill-rule="evenodd" stroke="none"/>
    <path d="M44.7 14.65 L29.05 12.5 16.95 13.4 7.65 14.3 Q7.15 14.3 6.8 13.75 6.35 13.0 6.35 11.55 6.35 6.05 11.8 2.7 17.35 -0.7 26.6 -0.7 L30.25 -0.35 34.75 0.3 39.8 5.1 Q43.2 9.15 44.7 14.65" fill="#f3d1da" fill-rule="evenodd" stroke="none"/>
    <path d="M0.35 27.1 Q-2.0 24.55 -2.0 18.8 -2.0 10.65 3.15 5.3 10.4 -2.35 27.45 -3.7 L30.65 -2.2 Q17.3 -2.8 9.55 1.6 1.75 6.0 1.75 14.35 1.75 17.15 2.7 18.0 3.4 18.65 5.3 18.65 L30.4 16.7 41.55 17.5 45.35 18.4 45.8 27.1 0.35 27.1 M37.15 -3.7 Q40.65 -5.75 47.45 -2.8 54.1 0.1 55.95 4.05 L54.75 5.35 53.55 6.5 Q51.3 3.65 47.0 0.8 42.0 -2.5 37.15 -3.7" fill="#e38ca3" fill-rule="evenodd" stroke="none"/>
    <path d="M27.4 -3.7 L27.45 -3.7 Q10.4 -2.35 3.15 5.3 -2.0 10.65 -2.0 18.8 -2.0 24.55 0.35 27.1 -1.95 26.35 -2.85 23.65 -3.45 21.75 -3.45 18.55 -3.45 10.7 1.65 4.35 8.4 -3.95 21.7 -5.1 L27.4 -3.7 M34.7 -4.3 L36.3 -5.05 41.75 -5.8 Q44.1 -5.55 50.4 -2.3 57.6 1.45 57.6 3.95 L57.05 5.05 54.55 7.65 53.55 6.5 54.75 5.35 55.95 4.05 Q54.1 0.1 47.45 -2.8 40.65 -5.75 37.15 -3.7 L34.7 -4.3" fill="#a73857" fill-rule="evenodd" stroke="none"/>
  </g>
</svg>
