<?xml version="1.0" encoding="UTF-8" standalone="no"?>
<svg xmlns:ffdec="https://www.free-decompiler.com/flash" xmlns:xlink="http://www.w3.org/1999/xlink" ffdec:objectType="shape" height="50.4px" width="64.65px" xmlns="http://www.w3.org/2000/svg">
  <g transform="matrix(1.0, 0.0, 0.0, 1.0, 0.25, 6.4)">
    <path d="M33.65 -2.0 Q35.25 -3.55 38.3 -5.0 41.2 -6.4 42.65 -6.4 46.4 -6.4 51.9 -4.55 59.45 -2.0 59.45 2.0 59.45 3.45 56.45 5.85 60.5 8.95 62.55 12.5 64.4 15.65 64.4 18.55 64.4 27.2 52.3 35.4 39.65 44.0 24.65 44.0 12.35 44.0 5.9 39.15 -0.25 34.55 -0.25 26.05 -0.25 19.8 3.2 14.15 7.45 7.15 15.75 3.55 17.45 2.75 25.55 0.65 32.85 -1.25 33.65 -2.0 M38.95 -4.15 Q35.25 -3.15 34.4 -0.75 39.65 -1.2 46.7 1.05 52.75 2.95 55.2 4.95 L57.9 1.85 Q55.05 -1.0 50.0 -3.0 45.7 -4.7 43.35 -4.7 L38.95 -4.15 M50.6 34.65 Q62.85 27.0 62.85 18.4 62.85 12.25 55.3 6.7 47.25 0.8 36.85 0.8 19.25 0.8 9.25 9.95 1.25 17.3 1.25 26.15 1.25 32.9 6.05 37.25 11.85 42.5 23.3 42.5 38.1 42.5 50.6 34.65" fill="#2c2c2c" fill-rule="evenodd" stroke="none"/>
    <path d="M48.05 23.7 Q39.95 28.45 26.85 28.45 8.35 28.45 8.35 19.0 8.35 13.6 15.25 9.4 22.9 4.75 34.85 4.75 44.0 4.75 50.35 8.6 56.25 12.2 55.25 15.95 54.1 20.2 48.05 23.7" fill="#aaaaaa" fill-rule="evenodd" stroke="none"/>
    <path d="M58.4 19.1 Q56.55 25.35 47.95 29.7 38.45 34.5 24.7 34.5 14.85 34.5 9.45 31.0 4.4 27.7 4.4 22.15 4.4 15.25 12.4 9.7 21.0 3.7 33.4 3.7 47.4 3.7 54.15 8.5 60.25 12.85 58.4 19.1 M48.05 23.7 Q54.1 20.2 55.25 15.95 56.25 12.2 50.35 8.6 44.0 4.75 34.85 4.75 22.9 4.75 15.25 9.4 8.35 13.6 8.35 19.0 8.35 28.45 26.85 28.45 39.95 28.45 48.05 23.7" fill="#818181" fill-rule="evenodd" stroke="none"/>
    <path d="M38.95 -4.15 L43.35 -4.7 Q45.7 -4.7 50.0 -3.0 55.05 -1.0 57.9 1.85 L55.2 4.95 Q52.75 2.95 46.7 1.05 39.65 -1.2 34.4 -0.75 35.25 -3.15 38.95 -4.15 M58.4 19.1 Q60.25 12.85 54.15 8.5 47.4 3.7 33.4 3.7 21.0 3.7 12.4 9.7 4.4 15.25 4.4 22.15 4.4 27.7 9.45 31.0 14.85 34.5 24.7 34.5 38.45 34.5 47.95 29.7 56.55 25.35 58.4 19.1 M50.6 34.65 Q38.1 42.5 23.3 42.5 11.85 42.5 6.05 37.25 1.25 32.9 1.25 26.15 1.25 17.3 9.25 9.95 19.25 0.8 36.85 0.8 47.25 0.8 55.3 6.7 62.85 12.25 62.85 18.4 62.85 27.0 50.6 34.65" fill="#5b5b5b" fill-rule="evenodd" stroke="none"/>
  </g>
</svg>
