<?xml version="1.0" encoding="UTF-8" standalone="no"?>
<svg xmlns:ffdec="https://www.free-decompiler.com/flash" xmlns:xlink="http://www.w3.org/1999/xlink" ffdec:objectType="shape" height="64.95px" width="42.35px" xmlns="http://www.w3.org/2000/svg">
  <g transform="matrix(1.0, 0.0, 0.0, 1.0, 8.55, 13.2)">
    <path d="M-4.7 -12.5 Q-3.8 -11.55 -2.15 -10.55 L-1.25 -10.0 2.45 -7.85 3.1 -7.4 Q5.75 -5.25 6.05 -2.05 L6.0 -0.25 7.05 -0.2 7.95 -0.55 9.1 -0.4 8.95 0.55 8.45 2.55 Q7.55 5.75 5.95 8.3 L4.1 10.7 4.3 11.3 5.15 11.55 7.45 11.2 10.5 10.7 12.1 10.5 14.15 10.3 Q16.9 10.05 19.1 10.2 19.0 12.0 17.15 12.9 L15.85 13.6 Q14.4 14.4 13.85 15.25 L13.8 15.25 13.85 15.3 Q14.9 15.85 16.9 15.75 L17.45 15.7 19.75 15.3 Q20.05 15.3 21.0 17.0 L17.45 17.8 Q16.9 17.3 14.95 16.8 L13.15 16.4 10.45 16.9 6.8 17.9 Q2.45 19.25 1.05 20.4 L0.45 21.05 Q1.45 22.3 2.35 22.7 L3.0 22.8 7.65 21.15 2.8 23.45 1.7 23.95 -1.7 24.75 Q-2.55 24.7 -2.6 24.3 L-1.05 21.75 -0.9 21.5 0.45 19.4 0.45 19.35 0.4 19.35 -0.65 18.75 -2.35 18.55 -2.9 18.15 -1.7 16.65 -1.4 16.2 -0.85 15.25 Q-1.3 14.8 -2.4 14.45 L-2.85 14.3 Q-3.85 14.05 -4.25 12.6 L-4.75 10.3 -4.85 9.4 Q-3.4 7.3 -3.4 6.55 L-4.4 4.7 -5.5 2.95 -6.65 -0.35 -6.6 -1.25 -6.55 -1.65 Q-6.6 -2.35 -7.05 -2.35 L-7.2 -2.35 -7.25 -3.15 Q-6.6 -8.0 -6.6 -10.4 L-4.7 -12.5 M3.5 -2.95 Q3.5 -4.3 1.45 -6.75 -0.45 -9.0 -2.65 -9.9 L-3.8 -10.25 Q-4.8 -8.35 -5.05 -5.2 L-5.15 -2.75 Q-5.15 -1.5 -4.7 -1.25 -4.2 -1.05 -4.25 0.3 L-3.8 2.7 -2.85 2.85 Q-1.1 2.85 1.55 -0.3 L3.5 -2.95 M-2.8 11.6 L-2.3 13.1 -1.8 13.3 Q-0.7 12.95 2.75 8.2 L4.55 5.6 Q6.15 3.1 6.2 2.3 L5.9 0.9 5.05 0.8 Q4.2 0.8 2.7 1.95 L0.35 4.05 Q-3.05 7.55 -3.05 9.85 L-2.8 11.6 M-0.35 17.75 L0.3 17.95 2.5 17.05 Q4.7 15.9 6.45 15.35 L9.35 14.85 9.9 14.7 Q11.95 14.2 13.15 13.55 L14.05 12.85 Q13.9 12.1 12.75 12.1 L12.65 12.1 8.2 12.6 Q6.35 12.95 4.6 13.6 0.45 15.2 -0.3 17.25 L-0.35 17.75" fill="#eda7a9" fill-rule="evenodd" stroke="none"/>
    <path d="M21.0 17.0 L25.35 16.4 Q25.7 16.3 29.4 16.35 L18.6 4.45 Q8.45 -6.8 5.15 -9.45 L0.85 -12.4 -2.1 -13.0 -0.95 -13.1 1.9 -13.2 Q3.7 -13.25 4.35 -12.0 L32.25 17.1 Q33.8 17.9 33.8 19.75 33.8 21.35 31.9 23.05 29.65 25.05 23.25 29.0 L23.1 29.05 22.45 27.7 22.6 27.65 Q26.1 26.4 29.25 23.65 32.3 21.1 32.3 19.75 32.3 18.75 31.25 18.3 L27.75 17.9 24.3 17.7 18.3 18.55 15.65 19.25 12.25 20.35 11.6 20.55 Q6.55 22.35 3.25 24.2 2.25 24.75 1.45 25.35 L1.2 25.5 -3.45 29.15 Q-5.3 30.75 -6.0 31.9 L-6.3 32.85 -4.7 34.15 -1.65 34.65 1.7 34.35 6.35 33.6 6.65 33.5 7.5 34.85 7.25 34.95 -1.3 36.15 Q-6.45 36.15 -7.65 33.7 L-8.55 -3.95 -8.15 -6.35 -7.2 -9.2 -7.5 -4.4 Q-7.65 -2.6 -7.2 -2.35 L-7.05 -2.35 Q-6.6 -2.35 -6.55 -1.65 L-6.6 -1.25 -6.65 -0.35 -6.8 4.8 -6.35 29.75 -5.65 29.05 Q-2.95 26.75 -2.3 26.35 L0.65 24.6 1.7 23.95 2.8 23.45 7.65 21.15 11.85 19.6 15.3 18.5 17.45 17.8 21.0 17.0" fill="#5e1c1e" fill-rule="evenodd" stroke="none"/>
    <path d="M23.25 29.0 L30.25 44.45 Q30.25 48.25 26.4 50.35 23.9 51.75 22.3 51.75 19.1 51.75 16.8 48.95 14.95 46.75 7.25 34.95 L7.5 34.85 6.65 33.5 5.4 31.55 1.45 25.35 Q2.25 24.75 3.25 24.2 L4.95 27.1 6.5 29.65 7.75 31.75 8.2 32.5 Q18.7 49.55 22.5 49.55 L23.9 49.05 Q25.3 48.45 26.15 47.75 L28.1 44.5 Q28.1 42.3 24.05 34.85 L16.25 20.5 15.65 19.25 18.3 18.55 21.8 26.25 22.45 27.7 23.1 29.05 23.25 29.0" fill="#4b3121" fill-rule="evenodd" stroke="none"/>
    <path d="M8.2 32.5 L9.15 31.45 11.0 29.35 Q12.5 28.5 15.85 27.3 L18.15 31.65 Q24.9 44.55 26.15 47.75 25.3 48.45 23.9 49.05 L22.5 49.55 Q18.7 49.55 8.2 32.5" fill="#83563a" fill-rule="evenodd" stroke="none"/>
    <path d="M3.25 24.2 Q6.55 22.35 11.6 20.55 L12.25 20.35 15.65 19.25 16.25 20.5 24.05 34.85 Q28.1 42.3 28.1 44.5 L26.15 47.75 Q24.9 44.55 18.15 31.65 L15.85 27.3 Q12.5 28.5 11.0 29.35 L9.15 31.45 8.2 32.5 7.75 31.75 6.5 29.65 4.95 27.1 3.25 24.2" fill="#754b33" fill-rule="evenodd" stroke="none"/>
    <path d="M21.0 17.0 Q20.05 15.3 19.75 15.3 L17.45 15.7 16.9 15.75 Q14.9 15.85 13.85 15.3 L13.8 15.25 13.85 15.25 Q14.4 14.4 15.85 13.6 L17.15 12.9 Q19.0 12.0 19.1 10.2 16.9 10.05 14.15 10.3 L12.1 10.5 10.5 10.7 7.45 11.2 5.15 11.55 4.3 11.3 4.1 10.7 5.95 8.3 Q7.55 5.75 8.45 2.55 L8.95 0.55 9.1 -0.4 7.95 -0.55 7.05 -0.2 6.0 -0.25 6.05 -2.05 Q5.75 -5.25 3.1 -7.4 L2.45 -7.85 -1.25 -10.0 -2.15 -10.55 Q-3.8 -11.55 -4.7 -12.5 L-2.25 -13.0 -0.15 -11.6 1.25 -10.5 2.4 -9.5 8.1 -3.8 Q14.4 3.3 13.1 6.4 18.05 5.2 20.3 8.1 22.15 10.45 21.45 13.05 L21.55 13.7 23.45 14.8 Q24.9 15.65 25.35 16.4 L21.0 17.0 M-6.6 -10.4 Q-6.6 -8.0 -7.25 -3.15 L-7.2 -2.35 Q-7.65 -2.6 -7.5 -4.4 L-7.2 -9.2 -7.15 -9.3 -6.6 -10.4 M-6.65 -0.35 L-5.5 2.95 -4.4 4.7 -3.4 6.55 Q-3.4 7.3 -4.85 9.4 L-4.75 10.3 -4.25 12.6 Q-3.85 14.05 -2.85 14.3 L-2.4 14.45 Q-1.3 14.8 -0.85 15.25 L-1.4 16.2 -1.7 16.65 -2.9 18.15 -2.35 18.55 -0.65 18.75 0.4 19.35 0.45 19.35 0.45 19.4 -0.9 21.5 -1.05 21.75 -2.6 24.3 Q-2.55 24.7 -1.7 24.75 L1.7 23.95 0.65 24.6 -2.3 26.35 Q-2.95 26.75 -5.65 29.05 -4.75 28.2 -3.9 24.4 -3.2 21.3 -3.2 20.6 -3.2 19.95 -3.75 19.75 L-5.8 19.15 -4.4 16.4 Q-5.55 13.0 -5.7 10.6 L-5.75 10.15 -5.9 8.3 -6.1 7.05 Q-6.45 5.25 -6.8 4.8 L-6.65 -0.35" fill="#db8b8b" fill-rule="evenodd" stroke="none"/>
    <path d="M7.65 21.15 L3.0 22.8 2.35 22.7 Q1.45 22.3 0.45 21.05 L1.05 20.4 Q2.45 19.25 6.8 17.9 L10.45 16.9 13.15 16.4 14.95 16.8 Q16.9 17.3 17.45 17.8 L15.3 18.5 11.85 19.6 7.65 21.15 M3.5 -2.95 L1.55 -0.3 Q-1.1 2.85 -2.85 2.85 L-3.8 2.7 -4.25 0.3 Q-4.2 -1.05 -4.7 -1.25 -5.15 -1.5 -5.15 -2.75 L-5.05 -5.2 Q-4.8 -8.35 -3.8 -10.25 L-2.65 -9.9 Q-0.45 -9.0 1.45 -6.75 3.5 -4.3 3.5 -2.95 M-0.35 17.75 L-0.3 17.25 Q0.45 15.2 4.6 13.6 6.35 12.95 8.2 12.6 L12.65 12.1 12.75 12.1 Q13.9 12.1 14.05 12.85 L13.15 13.55 Q11.95 14.2 9.9 14.7 L9.35 14.85 6.45 15.35 Q4.7 15.9 2.5 17.05 L0.3 17.95 -0.35 17.75 M-2.8 11.6 L-3.05 9.85 Q-3.05 7.55 0.35 4.05 L2.7 1.95 Q4.2 0.8 5.05 0.8 L5.9 0.9 6.2 2.3 Q6.15 3.1 4.55 5.6 L2.75 8.2 Q-0.7 12.95 -1.8 13.3 L-2.3 13.1 -2.8 11.6" fill="#ffbbbd" fill-rule="evenodd" stroke="none"/>
    <path d="M25.35 16.4 Q24.9 15.65 23.45 14.8 L21.55 13.7 21.45 13.05 Q22.15 10.45 20.3 8.1 18.05 5.2 13.1 6.4 14.4 3.3 8.1 -3.8 L2.4 -9.5 1.25 -10.5 -0.15 -11.6 -2.25 -13.0 -2.1 -13.0 0.85 -12.4 5.15 -9.45 Q8.45 -6.8 18.6 4.45 L29.4 16.35 Q25.7 16.3 25.35 16.4 M-6.8 4.8 Q-6.45 5.25 -6.1 7.05 L-5.9 8.3 -5.75 10.15 -5.7 10.6 Q-5.55 13.0 -4.4 16.4 L-5.8 19.15 -3.75 19.75 Q-3.2 19.95 -3.2 20.6 -3.2 21.3 -3.9 24.4 -4.75 28.2 -5.65 29.05 L-6.35 29.75 -6.8 4.8 M6.65 33.5 L6.35 33.6 1.7 34.35 -1.65 34.65 -4.7 34.15 -6.3 32.85 -6.0 31.9 -0.8 31.9 5.05 31.6 5.4 31.55 6.65 33.5 M31.25 18.3 Q32.3 18.75 32.3 19.75 32.3 21.1 29.25 23.65 26.1 26.4 22.6 27.65 L22.45 27.7 21.8 26.25 21.95 26.2 29.3 20.7 Q30.3 19.9 31.25 18.3" fill="#c66767" fill-rule="evenodd" stroke="none"/>
    <path d="M5.4 31.55 L5.05 31.6 -0.8 31.9 -6.0 31.9 Q-5.3 30.75 -3.45 29.15 L1.2 25.5 1.45 25.35 5.4 31.55 M18.3 18.55 L24.3 17.7 27.75 17.9 31.25 18.3 Q30.3 19.9 29.3 20.7 L21.95 26.2 21.8 26.25 18.3 18.55" fill="#8c3636" fill-rule="evenodd" stroke="none"/>
  </g>
</svg>
