<?xml version="1.0" encoding="UTF-8" standalone="no"?>
<svg xmlns:ffdec="https://www.free-decompiler.com/flash" xmlns:xlink="http://www.w3.org/1999/xlink" ffdec:objectType="shape" height="61.25px" width="43.0px" xmlns="http://www.w3.org/2000/svg">
  <g transform="matrix(1.0, 0.0, 0.0, 1.0, 7.9, 10.0)">
    <path d="M26.35 47.7 Q28.5 45.7 28.5 44.7 28.5 43.05 25.65 35.25 22.55 26.75 18.55 17.95 7.4 -6.3 -0.15 -10.0 13.65 -6.45 30.65 44.9 29.95 48.55 26.95 50.2 25.0 51.25 22.8 51.25 20.05 51.25 16.65 47.0 11.2 40.2 4.8 23.3 2.5 17.25 -3.3 8.7 -7.9 2.0 -7.9 -1.1 L-7.8 -2.65 Q-0.8 9.1 2.75 16.15 8.45 27.35 14.65 41.0 18.85 49.1 23.1 49.1 24.55 49.1 26.35 47.7" fill="#5c4730" fill-rule="evenodd" stroke="none"/>
    <path d="M-4.15 -8.05 L-0.15 -10.0 Q7.4 -6.3 18.55 17.95 22.55 26.75 25.65 35.25 28.5 43.05 28.5 44.7 28.5 45.7 26.35 47.7 20.45 30.0 15.15 18.05 4.1 -6.75 -4.15 -8.05" fill="#ffc58a" fill-rule="evenodd" stroke="none"/>
    <path d="M-4.15 -8.05 Q4.1 -6.75 15.15 18.05 20.45 30.0 26.35 47.7 24.55 49.1 23.1 49.1 18.85 49.1 14.65 41.0 8.45 27.35 2.75 16.15 -0.8 9.1 -7.8 -2.65 -6.75 -5.0 -5.75 -6.15 L-4.15 -8.05" fill="#ffd5aa" fill-rule="evenodd" stroke="none"/>
    <path d="M32.15 26.25 L28.45 30.3 26.8 28.0 Q25.75 26.45 25.75 25.4 25.75 24.85 26.8 23.95 L28.85 21.95 32.15 26.25 M26.25 32.35 L24.5 33.8 21.8 28.7 20.05 29.8 22.35 35.4 20.4 36.55 Q19.55 35.05 18.05 30.8 L20.9 29.05 23.6 27.3 26.25 32.35 M16.9 38.15 L12.45 39.05 11.5 36.0 10.4 33.0 7.55 33.2 8.7 39.05 6.05 38.7 Q5.15 33.95 4.2 33.15 L13.65 32.4 Q13.85 33.3 16.9 38.15 M-3.35 7.0 L-4.5 7.05 -5.2 3.75 -1.15 3.35 0.6 6.0 -3.8 7.0 -3.35 7.0 M0.95 2.8 L3.35 1.75 5.55 4.5 2.8 5.45 0.95 2.8 M7.2 -1.8 Q7.85 -3.3 7.85 -4.4 L9.8 -3.15 11.45 -1.9 9.6 1.15 7.2 -1.8 M10.65 16.8 L11.8 14.95 11.65 14.35 10.8 14.2 8.75 15.25 Q6.0 16.3 2.15 16.3 0.6 16.3 0.15 14.95 L-0.5 11.9 Q0.7 11.55 7.0 8.35 L14.4 4.3 Q18.05 7.75 19.1 9.1 20.4 10.7 20.4 11.95 20.4 12.95 19.15 15.0 L17.45 17.3 17.5 17.75 17.5 17.95 18.2 18.15 Q18.65 18.15 20.15 17.25 L24.15 14.2 28.2 19.5 Q28.2 21.5 20.5 26.95 12.25 32.7 8.5 31.1 L0.8 31.1 Q0.7 28.15 3.15 26.9 6.25 25.9 7.5 25.1 L7.7 24.6 Q6.7 23.95 4.5 23.1 L1.95 22.15 1.4 21.55 Q6.2 20.0 8.85 18.25 7.0 19.95 7.0 21.0 L5.45 22.2 Q4.55 22.55 6.15 23.05 L9.35 23.55 Q10.75 23.55 13.45 21.6 16.95 19.05 16.95 15.75 L16.55 14.65 15.9 13.05 10.65 16.8 M22.5 18.95 Q15.65 22.7 11.95 23.95 8.95 24.95 8.25 26.4 L7.25 28.4 7.9 29.1 9.2 29.4 Q12.75 29.4 20.0 25.05 22.8 23.4 24.35 21.65 26.75 18.95 22.5 18.95 M15.9 8.55 L15.45 7.85 10.5 8.8 Q6.2 10.0 2.8 12.85 L3.5 13.75 4.2 14.0 Q10.6 14.0 16.3 9.6 16.3 9.05 15.9 8.55" fill="#b23875" fill-rule="evenodd" stroke="none"/>
    <path d="M6.5 -4.7 Q6.3 -6.75 7.85 -6.75 11.25 -6.75 28.7 13.1 35.1 22.85 35.1 23.25 35.1 28.95 25.7 35.0 16.8 40.75 9.7 40.75 L2.95 40.3 Q0.45 39.7 -0.7 37.7 -2.25 34.9 -3.45 18.45 -3.85 12.7 -5.6 7.55 -6.45 4.95 -7.25 2.9 -7.25 2.4 -4.15 1.85 0.4 0.95 4.25 -0.75 6.7 -2.1 6.5 -4.7 M32.15 26.25 L33.1 24.3 33.5 23.15 Q33.5 19.5 24.25 10.15 19.45 5.3 12.85 -0.6 L11.4 1.6 10.0 3.35 9.35 2.8 9.45 2.65 Q9.7 1.8 10.65 0.05 L11.6 -1.8 11.45 -1.9 9.8 -3.15 7.85 -4.4 Q7.85 -3.3 7.2 -1.8 L4.7 0.9 Q4.5 0.9 3.35 1.75 L0.95 2.8 -1.15 3.35 -5.2 3.75 -4.5 7.05 -3.35 7.0 -1.25 7.45 Q1.25 7.6 4.85 6.3 L4.9 6.45 3.35 7.25 Q1.1 8.1 -4.0 8.9 L-2.2 15.85 Q-1.75 19.35 -1.25 35.0 -0.6 36.35 1.95 37.5 3.95 38.35 6.05 38.7 L8.7 39.05 12.45 39.05 16.9 38.15 20.4 36.55 22.35 35.4 24.5 33.8 26.25 32.35 28.45 30.3 32.15 26.25" fill="#5a1d3c" fill-rule="evenodd" stroke="none"/>
    <path d="M11.45 -1.9 L11.6 -1.8 10.65 0.05 Q9.7 1.8 9.45 2.65 L9.35 2.8 10.0 3.35 11.4 1.6 12.85 -0.6 Q19.45 5.3 24.25 10.15 33.5 19.5 33.5 23.15 L33.1 24.3 32.15 26.25 28.85 21.95 26.8 23.95 Q25.75 24.85 25.75 25.4 25.75 26.45 26.8 28.0 L28.45 30.3 26.25 32.35 23.6 27.3 20.9 29.05 18.05 30.8 13.65 32.4 4.2 33.15 Q5.15 33.95 6.05 38.7 3.95 38.35 1.95 37.5 -0.6 36.35 -1.25 35.0 -1.75 19.35 -2.2 15.85 L-4.0 8.9 Q1.1 8.1 3.35 7.25 L4.9 6.45 4.85 6.3 Q1.25 7.6 -1.25 7.45 L-3.35 7.0 -3.8 7.0 0.6 6.0 2.8 5.45 5.55 4.5 Q7.95 3.55 9.6 1.15 L11.45 -1.9 M12.45 39.05 L8.7 39.05 7.55 33.2 10.4 33.0 11.5 36.0 12.45 39.05 M8.85 18.25 Q6.2 20.0 1.4 21.55 L1.95 22.15 4.5 23.1 Q6.7 23.95 7.7 24.6 L7.5 25.1 Q6.25 25.9 3.15 26.9 0.7 28.15 0.8 31.1 L8.5 31.1 Q12.25 32.7 20.5 26.95 28.2 21.5 28.2 19.5 L24.15 14.2 20.15 17.25 Q18.65 18.15 18.2 18.15 L17.5 17.95 17.5 17.75 17.45 17.3 19.15 15.0 Q20.4 12.95 20.4 11.95 20.4 10.7 19.1 9.1 18.05 7.75 14.4 4.3 L7.0 8.35 Q0.7 11.55 -0.5 11.9 L0.15 14.95 Q0.6 16.3 2.15 16.3 6.0 16.3 8.75 15.25 L10.8 14.2 11.65 14.35 11.8 14.95 10.65 16.8 10.35 17.0 8.85 18.25" fill="#922e60" fill-rule="evenodd" stroke="none"/>
    <path d="M24.5 33.8 L22.35 35.4 20.05 29.8 21.8 28.7 24.5 33.8 M20.4 36.55 L16.9 38.15 Q13.85 33.3 13.65 32.4 L18.05 30.8 Q19.55 35.05 20.4 36.55 M-1.15 3.35 L0.95 2.8 2.8 5.45 0.6 6.0 -1.15 3.35 M3.35 1.75 Q4.5 0.9 4.7 0.9 L7.2 -1.8 9.6 1.15 Q7.95 3.55 5.55 4.5 L3.35 1.75 M8.85 18.25 L10.35 17.0 10.65 16.8 15.9 13.05 16.55 14.65 16.95 15.75 Q16.95 19.05 13.45 21.6 10.75 23.55 9.35 23.55 L6.15 23.05 Q4.55 22.55 5.45 22.2 L7.0 21.0 Q7.0 19.95 8.85 18.25 M15.9 8.55 Q16.3 9.05 16.3 9.6 10.6 14.0 4.2 14.0 L3.5 13.75 2.8 12.85 Q6.2 10.0 10.5 8.8 L15.45 7.85 15.9 8.55 M22.5 18.95 Q26.75 18.95 24.35 21.65 22.8 23.4 20.0 25.05 12.75 29.4 9.2 29.4 L7.9 29.1 7.25 28.4 8.25 26.4 Q8.95 24.95 11.95 23.95 15.65 22.7 22.5 18.95" fill="#c44283" fill-rule="evenodd" stroke="none"/>
  </g>
</svg>
