<?xml version="1.0" encoding="UTF-8" standalone="no"?>
<svg xmlns:ffdec="https://www.free-decompiler.com/flash" xmlns:xlink="http://www.w3.org/1999/xlink" ffdec:objectType="shape" height="59.65px" width="39.15px" xmlns="http://www.w3.org/2000/svg">
  <g transform="matrix(1.0, 0.0, 0.0, 1.0, 19.95, 5.75)">
    <path d="M6.65 -1.5 Q7.5 -1.9 8.8 -3.35 11.4 -1.45 13.65 3.45 15.5 7.5 15.5 9.0 L14.95 12.45 Q14.4 15.4 14.4 15.9 L16.8 21.5 Q19.2 27.3 19.2 29.1 19.2 34.0 15.25 38.35 11.8 42.15 9.3 42.15 L7.15 41.8 4.6 40.85 Q4.6 42.55 1.95 44.2 -0.85 46.0 -1.3 49.45 -1.45 50.7 -2.65 52.05 -4.35 53.9 -7.25 53.9 -12.0 52.7 -14.7 49.8 L-14.75 49.8 Q-17.3 45.55 -18.3 43.05 -19.95 38.9 -19.95 32.2 -19.95 15.2 -11.7 3.45 -8.9 -0.55 -5.55 -3.35 -3.0 -5.45 -1.7 -5.75 L-1.15 -4.35 -0.55 -3.0 Q-6.25 -3.95 -12.0 8.85 -17.5 21.15 -17.5 32.65 L-17.1 37.55 Q-16.6 41.2 -14.6 45.2 -11.6 51.2 -7.35 51.2 -5.05 51.2 -4.15 49.65 -2.9 47.6 -2.9 41.6 L-3.5 37.45 Q-4.1 33.0 -4.1 28.3 -4.1 21.75 -3.05 19.15 -2.65 18.15 -1.45 17.3 0.5 18.0 1.1 18.7 3.75 21.75 6.5 30.75 L6.45 30.7 6.65 31.2 8.75 34.25 Q10.6 36.15 13.1 36.15 14.6 36.15 15.55 34.55 16.7 32.7 16.7 29.1 16.7 20.9 14.25 17.65 L11.55 14.15 Q9.65 11.45 8.05 7.45 L8.0 7.4 8.7 7.3 Q9.7 7.3 9.4 7.55 L12.6 12.85 12.95 9.55 Q12.95 6.75 10.7 3.05 8.6 -0.4 6.65 -1.5 M1.5 24.6 Q1.05 24.7 0.55 22.8 -0.3 25.2 -1.35 32.1 L-0.9 36.45 Q-0.45 40.65 -0.35 42.7 L1.35 41.6 Q2.3 40.6 2.3 39.0 2.3 24.55 2.0 24.25 L1.5 24.6 M6.6 38.7 Q7.75 38.8 8.75 39.45 10.2 39.3 10.7 38.4 6.45 37.3 4.1 31.65 4.4 38.0 5.3 38.5 L6.6 38.7" fill="#654425" fill-rule="evenodd" stroke="none"/>
    <path d="M4.6 -1.35 L6.65 -1.5 Q8.6 -0.4 10.7 3.05 12.95 6.75 12.95 9.55 L12.6 12.85 9.4 7.55 Q9.7 7.3 8.7 7.3 L8.0 7.4 8.05 7.45 Q9.65 11.45 11.55 14.15 L14.25 17.65 Q16.7 20.9 16.7 29.1 16.7 32.7 15.55 34.55 14.6 36.15 13.1 36.15 10.6 36.15 8.75 34.25 L6.65 31.2 6.45 30.7 6.5 30.75 8.3 31.95 9.4 32.25 Q10.5 32.25 11.65 31.0 13.05 29.5 13.05 27.3 13.05 23.7 9.15 17.6 5.2 11.55 5.2 10.0 L5.85 7.45 6.45 5.15 Q5.75 0.05 4.6 -1.35 M-17.1 37.55 Q-16.1 40.8 -13.6 43.5 -11.4 45.85 -10.2 45.85 -7.25 45.85 -6.85 31.1 -6.45 16.3 -3.75 16.3 -2.7 16.3 -1.45 17.3 -2.65 18.15 -3.05 19.15 -4.1 21.75 -4.1 28.3 -4.1 33.0 -3.5 37.45 L-2.9 41.6 Q-2.9 47.6 -4.15 49.65 -5.05 51.2 -7.35 51.2 -11.6 51.2 -14.6 45.2 -16.6 41.2 -17.1 37.55 M6.6 38.7 L5.3 38.5 Q4.4 38.0 4.1 31.65 6.45 37.3 10.7 38.4 10.2 39.3 8.75 39.45 7.75 38.8 6.6 38.7 M1.5 24.6 L2.0 24.25 Q2.3 24.55 2.3 39.0 2.3 40.6 1.35 41.6 L-0.35 42.7 Q-0.45 40.65 -0.9 36.45 L-1.35 32.1 Q-0.3 25.2 0.55 22.8 1.05 24.7 1.5 24.6" fill="#e79d5a" fill-rule="evenodd" stroke="none"/>
    <path d="M-0.55 -3.0 L2.15 -2.0 4.6 -1.35 Q5.75 0.05 6.45 5.15 L5.85 7.45 5.2 10.0 Q5.2 11.55 9.15 17.6 13.05 23.7 13.05 27.3 13.05 29.5 11.65 31.0 10.5 32.25 9.4 32.25 L8.3 31.95 6.5 30.75 Q3.75 21.75 1.1 18.7 0.5 18.0 -1.45 17.3 -2.7 16.3 -3.75 16.3 -6.45 16.3 -6.85 31.1 -7.25 45.85 -10.2 45.85 -11.4 45.85 -13.6 43.5 -16.1 40.8 -17.1 37.55 L-17.5 32.65 Q-17.5 21.15 -12.0 8.85 -6.25 -3.95 -0.55 -3.0" fill="#f0a866" fill-rule="evenodd" stroke="none"/>
  </g>
</svg>
