<?xml version="1.0" encoding="UTF-8" standalone="no"?>
<svg xmlns:ffdec="https://www.free-decompiler.com/flash" xmlns:xlink="http://www.w3.org/1999/xlink" ffdec:objectType="shape" height="9.6px" width="20.45px" xmlns="http://www.w3.org/2000/svg">
  <g transform="matrix(1.0, 0.0, 0.0, 1.0, 5.1, -45.5)">
    <path d="M-1.3 54.15 L-1.4 54.1 Q-3.9 52.9 -3.95 51.0 L-4.35 50.1 Q-4.75 49.35 -1.9 48.05 0.9 46.7 5.35 46.15 9.8 45.55 12.6 47.05 15.4 48.5 15.0 49.5 L14.5 50.65 Q13.9 52.05 11.95 53.25 L11.75 53.4 11.7 53.45 11.65 53.0 11.95 52.8 Q13.35 51.8 13.5 50.65 L13.5 50.4 Q13.55 49.3 10.95 48.6 L5.15 48.1 Q1.75 48.2 -0.6 49.05 -2.75 49.75 -3.1 50.65 L-3.2 51.25 Q-3.25 52.7 -1.3 53.7 L-1.3 54.15" fill="#edb127" fill-rule="evenodd" stroke="none"/>
    <path d="M-1.3 54.15 L-1.3 55.1 -1.9 54.85 Q-5.0 53.35 -5.1 51.05 L-4.8 49.5 Q-4.55 48.1 -1.05 46.7 2.45 45.25 7.9 45.55 13.3 45.85 14.35 47.2 15.4 48.55 15.35 50.15 L15.3 50.65 Q14.9 52.55 12.25 54.1 L11.95 54.25 11.85 54.3 11.7 53.45 11.75 53.4 11.95 53.25 Q13.9 52.05 14.5 50.65 L15.0 49.5 Q15.4 48.5 12.6 47.05 9.8 45.55 5.35 46.15 0.9 46.7 -1.9 48.05 -4.75 49.35 -4.35 50.1 L-3.95 51.0 Q-3.9 52.9 -1.4 54.1 L-1.3 54.15 M11.65 53.0 L11.45 52.05 11.95 51.6 12.5 50.65 12.5 50.45 Q12.45 49.65 10.5 49.2 L5.15 48.65 Q2.05 48.8 -0.15 49.55 -1.65 50.05 -2.05 50.65 L-2.2 51.2 Q-2.15 52.0 -1.3 52.6 L-1.3 53.7 Q-3.25 52.7 -3.2 51.25 L-3.1 50.65 Q-2.75 49.75 -0.6 49.05 1.75 48.2 5.15 48.1 L10.95 48.6 Q13.55 49.3 13.5 50.4 L13.5 50.65 Q13.35 51.8 11.95 52.8 L11.65 53.0" fill="#794613" fill-rule="evenodd" stroke="none"/>
  </g>
</svg>
