<?xml version="1.0" encoding="UTF-8" standalone="no"?>
<svg xmlns:ffdec="https://www.free-decompiler.com/flash" xmlns:xlink="http://www.w3.org/1999/xlink" ffdec:objectType="shape" height="177.4px" width="249.2px" xmlns="http://www.w3.org/2000/svg">
  <g transform="matrix(1.0, 0.0, 0.0, 1.0, 227.35, 91.15)">
    <path d="M11.65 17.2 L-7.65 14.15 -6.25 13.95 -5.35 13.8 -42.35 -4.1 -37.6 -27.2 -60.0 -38.75 -66.4 -66.95 -96.15 -62.4 -122.0 -79.2 -144.35 -62.75 -174.15 -70.9 -188.4 -45.0 -216.05 -28.65 -206.3 -2.1 -212.05 -2.05 -222.65 -31.05 -192.4 -48.95 -176.85 -77.25 -145.45 -68.65 -122.2 -85.8 -94.95 -68.1 -62.3 -73.05 -55.25 -42.45 -31.45 -30.1 -36.2 -7.15 12.2 16.3 12.05 17.15 11.65 17.2" fill="#f46c6c" fill-rule="evenodd" stroke="none"/>
    <path d="M-195.75 -51.3 L-179.6 -81.95 -146.8 -72.65 -122.5 -91.15 -94.15 -72.05 -60.05 -77.4 -52.65 -44.35 -27.85 -31.0 -30.1 -12.9 21.85 18.4 -37.8 28.7 -41.8 50.45 -61.7 53.7 -73.2 80.9 -110.35 75.45 -135.8 86.25 -158.35 70.75 -192.3 75.6 -199.75 45.25 -224.55 31.35 -215.75 0.65 -227.35 -32.0 -195.75 -51.3 M-212.05 -2.05 L-211.55 -0.85 -220.05 27.55 -196.25 40.45 -189.05 68.55 -156.55 64.0 -134.9 78.4 -110.45 68.45 -74.9 73.45 -63.85 48.3 -44.8 45.25 -42.3 23.9 11.65 17.2 12.05 17.15 12.2 16.3 -36.2 -7.15 -31.45 -30.1 -55.25 -42.45 -62.3 -73.05 -94.95 -68.1 -122.2 -85.8 -145.45 -68.65 -176.85 -77.25 -192.4 -48.95 -222.65 -31.05 -212.05 -2.05" fill="#000000" fill-opacity="0.29803923" fill-rule="evenodd" stroke="none"/>
    <path d="M11.65 17.2 L-42.3 23.9 -44.8 45.25 -63.85 48.3 -74.9 73.45 -110.45 68.45 -134.9 78.4 -156.55 64.0 -189.05 68.55 -196.25 40.45 -220.05 27.55 -211.55 -0.85 -212.05 -2.05 -206.3 -2.1 -205.85 -0.95 -213.6 24.9 -191.55 36.8 -185.0 62.55 -155.2 58.4 -134.3 72.3 -111.15 62.85 -78.2 67.55 -67.65 43.4 -49.7 40.6 -47.15 19.05 -7.65 14.15 11.65 17.2" fill="#f14949" fill-rule="evenodd" stroke="none"/>
    <path d="M-7.65 14.15 L-47.15 19.05 -49.7 40.6 -67.65 43.4 -78.2 67.55 -111.15 62.85 -134.3 72.3 -155.2 58.4 -185.0 62.55 -191.55 36.8 -213.6 24.9 -205.85 -0.95 -206.3 -2.1 -216.05 -28.65 -188.4 -45.0 -174.15 -70.9 -144.35 -62.75 -122.0 -79.2 -96.15 -62.4 -66.4 -66.95 -60.0 -38.75 -37.6 -27.2 -42.35 -4.1 -5.35 13.8 -6.25 13.95 -7.65 14.15 M-209.4 -25.3 L-194.8 -3.15 -201.2 18.3 -183.1 28.05 -177.7 49.3 -153.0 45.85 -135.85 57.4 -116.75 49.6 -89.55 53.45 -80.8 33.6 -66.0 31.25 -60.3 13.4 -38.9 5.75 -60.0 -5.7 -50.3 -26.9 -74.5 -34.35 -70.3 -59.55 -99.6 -51.8 -120.3 -71.75 -144.05 -54.15 -172.8 -62.9 -180.45 -39.45 -209.4 -25.3" fill="#f2f2f2" fill-rule="evenodd" stroke="none"/>
    <path d="M-209.4 -25.3 L-180.45 -39.45 -172.8 -62.9 -144.05 -54.15 -120.3 -71.75 -99.6 -51.8 -70.3 -59.55 -74.5 -34.35 -50.3 -26.9 -60.0 -5.7 -38.9 5.75 -60.3 13.4 -66.0 31.25 -80.8 33.6 -89.55 53.45 -116.75 49.6 -135.85 57.4 -153.0 45.85 -177.7 49.3 -183.1 28.05 -201.2 18.3 -194.8 -3.15 -209.4 -25.3" fill="#ffffff" fill-rule="evenodd" stroke="none"/>
  </g>
</svg>
