<?xml version="1.0" encoding="UTF-8" standalone="no"?>
<svg xmlns:ffdec="https://www.free-decompiler.com/flash" xmlns:xlink="http://www.w3.org/1999/xlink" ffdec:objectType="shape" height="43.25px" width="64.1px" xmlns="http://www.w3.org/2000/svg">
  <g transform="matrix(1.0, 0.0, 0.0, 1.0, 54.8, 17.25)">
    <path d="M1.6 -10.0 L-0.25 -10.95 -2.8 -11.85 -9.2 -12.75 Q-7.7 -11.55 -5.35 -11.15 L-1.75 -10.65 Q2.95 -8.7 4.85 -6.3 L5.0 -6.55 Q5.0 -8.0 1.6 -10.0 M2.05 -2.9 Q1.8 -2.5 1.25 -2.5 L0.05 -2.6 Q-2.2 -3.15 -4.4 -5.55 L-6.45 -7.85 -7.8 -9.4 -6.3 -7.1 -3.1 -3.65 Q0.65 0.0 2.0 0.0 L2.15 0.0 Q3.25 -0.05 4.0 -0.45 5.1 -1.1 5.25 -2.75 L4.95 -4.55 4.45 -5.55 2.6 -7.6 Q-0.75 -10.3 -7.45 -11.05 L-9.45 -11.25 -6.9 -10.7 Q-4.0 -9.85 -1.35 -8.0 2.15 -5.5 2.15 -3.6 L2.05 -2.9 M6.15 -2.75 Q6.15 -1.8 5.35 -0.55 L4.55 0.35 7.0 4.15 Q8.35 7.15 7.55 14.6 8.55 15.3 9.15 16.4 L9.25 17.15 8.5 20.05 8.2 20.5 7.75 20.75 7.6 20.75 Q7.0 22.7 5.05 23.45 0.5 25.15 -4.2 25.5 L-13.85 25.95 -22.85 26.0 -31.0 25.9 -36.35 25.8 -46.3 25.1 -46.35 25.1 -49.85 24.4 -51.3 23.75 -51.95 23.15 -52.2 22.7 -52.2 22.25 Q-53.1 21.2 -53.8 17.7 L-53.9 17.7 -54.3 17.3 -54.45 16.55 -54.05 15.95 -53.7 15.7 Q-55.95 7.6 -53.65 1.15 -51.75 -3.9 -47.4 -7.35 -39.75 -13.5 -30.05 -15.05 L-30.0 -15.0 -24.9 -15.85 Q-23.7 -17.25 -19.85 -17.25 -16.8 -17.25 -13.3 -15.55 -11.3 -14.6 -10.4 -13.9 L-10.0 -14.0 -8.5 -14.05 Q2.4 -14.05 6.25 -6.5 L5.5 -5.35 Q6.15 -4.1 6.15 -2.75 M4.3 2.3 L3.05 1.0 2.75 1.0 -0.65 0.0 Q-0.75 -0.45 -0.75 0.2 L-0.05 3.9 Q0.65 6.85 0.65 10.05 L0.75 12.3 3.55 13.05 3.6 13.05 5.75 13.7 5.8 13.7 6.05 12.7 Q5.85 5.8 4.05 2.9 3.2 1.4 4.3 2.3 M6.6 10.1 L6.6 10.3 6.6 10.25 6.6 10.1 M8.1 13.65 L8.3 13.6 8.2 13.65 8.1 13.65 M8.15 12.6 L8.0 12.8 7.95 12.8 8.15 12.6 M3.0 14.95 L2.9 14.95 3.0 14.95 M-46.05 23.1 L-36.3 23.8 -30.95 23.9 -22.85 24.0 -13.85 23.95 -4.35 23.5 Q0.1 23.15 4.35 21.6 L5.45 20.7 -0.95 19.65 -4.05 19.25 -13.0 18.35 -17.85 18.15 -20.05 18.15 -20.1 18.15 -28.75 18.4 -37.85 19.5 -43.5 20.5 -43.55 20.5 -43.8 20.55 -49.15 21.45 -50.05 21.6 -50.15 22.1 -49.4 22.45 -46.05 23.15 -46.0 23.15 -46.05 23.1 M-8.5 -5.8 Q-10.05 -6.45 -11.85 -8.5 L-11.3 -7.9 -18.4 -12.05 -18.4 -12.25 -22.25 -13.65 -22.15 -13.7 -29.75 -12.9 -29.8 -12.9 Q-38.9 -11.65 -46.2 -5.8 -50.0 -2.6 -51.75 1.85 -54.1 8.45 -52.45 15.05 L-50.4 14.25 -46.2 13.15 -46.1 13.15 -40.35 12.15 -29.85 10.85 -17.6 10.2 -9.9 10.6 -7.8 10.8 -3.15 11.5 -2.9 7.2 Q-2.9 1.9 -5.25 -2.25 L-7.15 -5.55 -7.25 -5.55 -8.5 -5.8 M-37.85 19.5 L-37.8 19.5 -37.85 19.5 M-15.95 -15.0 L-15.0 -14.6 -13.8 -14.35 -12.75 -13.95 -11.9 -13.5 -10.0 -11.9 -9.9 -12.15 -9.95 -12.55 -10.05 -12.75 -11.05 -13.75 Q-11.85 -14.35 -13.15 -14.95 -16.9 -16.7 -21.5 -16.55 L-23.65 -15.9 -23.75 -15.85 -23.4 -15.9 Q-19.7 -15.95 -15.95 -15.0 M-19.25 -13.65 L-19.05 -13.55 -18.05 -12.9 -18.0 -12.9 -17.65 -12.8 -17.5 -12.75 -14.7 -11.35 Q-11.7 -9.65 -10.8 -8.4 L-10.8 -8.25 -7.9 -6.4 Q-7.45 -6.4 -7.25 -6.6 L-7.25 -6.75 Q-7.25 -7.65 -7.7 -8.6 -8.6 -9.6 -10.75 -10.85 L-11.45 -11.25 Q-16.0 -13.8 -19.25 -13.75 L-19.25 -13.65 M-3.6 -8.3 Q-0.95 -6.25 1.25 -3.8 1.05 -5.0 -1.5 -6.95 L-3.6 -8.3 M-2.25 11.65 L-3.0 16.4 -3.0 17.65 Q0.05 16.95 0.0 12.15 L-0.15 10.1 Q-0.15 7.35 -1.5 2.75 -3.15 -2.7 -5.15 -4.0 -3.85 -2.45 -2.9 1.35 -2.0 4.8 -2.0 7.25 L-2.25 11.65" fill="#333333" fill-rule="evenodd" stroke="none"/>
    <path d="M8.8 11.25 L8.75 11.15 8.9 11.3 8.8 11.25 M6.6 10.1 L6.6 10.25 6.6 10.3 6.6 10.1" fill="#cccccc" fill-rule="evenodd" stroke="none"/>
    <path d="M1.6 -10.0 Q5.0 -8.0 5.0 -6.55 L4.85 -6.3 Q2.95 -8.7 -1.75 -10.65 L-5.35 -11.15 Q-7.7 -11.55 -9.2 -12.75 L-2.8 -11.85 -0.25 -10.95 1.6 -10.0 M4.3 2.3 Q3.2 1.4 4.05 2.9 5.85 5.8 6.05 12.7 L5.8 13.7 5.75 13.7 3.6 13.05 3.55 13.05 0.75 12.3 0.65 10.05 Q0.65 6.85 -0.05 3.9 L-0.75 0.2 Q-0.75 -0.45 -0.65 0.0 L2.75 1.0 3.05 1.0 4.3 2.3 M3.0 14.95 L2.9 14.95 3.0 14.95 M-8.5 -5.8 L-7.25 -5.55 -7.15 -5.55 -5.25 -2.25 Q-2.9 1.9 -2.9 7.2 L-3.15 11.5 -7.8 10.8 Q-4.75 6.9 -4.7 2.65 -4.5 -0.65 -6.6 -3.55 L-6.65 -3.6 -7.95 -5.2 -8.5 -5.8 M-3.6 -8.3 L-1.5 -6.95 Q1.05 -5.0 1.25 -3.8 -0.95 -6.25 -3.6 -8.3" fill="#3b3b3b" fill-rule="evenodd" stroke="none"/>
    <path d="M-37.85 19.5 L-37.8 19.5 -37.85 19.5 M-7.8 10.8 L-9.9 10.6 -17.6 10.2 -29.85 10.85 -40.35 12.15 -46.1 13.15 -46.2 13.15 -50.4 14.25 -52.45 15.05 Q-54.1 8.45 -51.75 1.85 -50.0 -2.6 -46.2 -5.8 -38.9 -11.65 -29.8 -12.9 L-29.75 -12.9 -22.15 -13.7 -22.25 -13.65 -18.4 -12.25 -18.4 -12.05 -11.3 -7.9 -11.85 -8.5 Q-10.05 -6.45 -8.5 -5.8 L-7.95 -5.2 -6.65 -3.6 -6.6 -3.55 Q-4.5 -0.65 -4.7 2.65 -4.75 6.9 -7.8 10.8" fill="#464646" fill-rule="evenodd" stroke="none"/>
    <path d="M2.05 -2.9 L2.15 -3.6 Q2.15 -5.5 -1.35 -8.0 -4.0 -9.85 -6.9 -10.7 L-9.45 -11.25 -7.45 -11.05 Q-0.75 -10.3 2.6 -7.6 L4.45 -5.55 4.95 -4.55 5.25 -2.75 Q5.1 -1.1 4.0 -0.45 3.25 -0.05 2.15 0.0 L2.0 0.0 Q0.65 0.0 -3.1 -3.65 L-6.3 -7.1 -7.8 -9.4 -6.45 -7.85 -4.4 -5.55 Q-2.2 -3.15 0.05 -2.6 L1.25 -2.5 Q1.8 -2.5 2.05 -2.9 M-37.85 19.5 L-28.75 18.4 -20.1 18.15 -20.05 18.15 -17.85 18.15 -13.0 18.35 -4.05 19.25 -0.95 19.65 5.45 20.7 4.35 21.6 Q0.1 23.15 -4.35 23.5 L-13.85 23.95 -22.85 24.0 -30.95 23.9 -36.3 23.8 -46.05 23.1 -46.05 23.15 -49.4 22.45 -50.15 22.1 -50.05 21.6 -49.15 21.45 -43.8 20.55 -43.55 20.5 -43.5 20.5 -37.85 19.5 M-15.95 -15.0 Q-18.75 -16.0 -21.75 -16.0 L-23.4 -15.9 -23.75 -15.85 -23.65 -15.9 -21.5 -16.55 Q-16.9 -16.7 -13.15 -14.95 -11.85 -14.35 -11.05 -13.75 L-10.05 -12.75 -9.95 -12.55 -9.9 -12.15 -10.0 -11.9 -11.9 -13.5 -12.75 -13.95 -13.8 -14.35 -15.0 -14.6 -15.95 -15.0 M-19.25 -13.65 L-19.25 -13.75 Q-16.0 -13.8 -11.45 -11.25 L-10.75 -10.85 Q-8.6 -9.6 -7.7 -8.6 -7.25 -7.65 -7.25 -6.75 L-7.25 -6.6 Q-7.45 -6.4 -7.9 -6.4 L-10.8 -8.25 -10.8 -8.4 Q-11.7 -9.65 -14.7 -11.35 L-17.5 -12.75 -17.65 -12.8 -18.0 -12.9 -18.05 -12.9 -19.05 -13.55 -19.25 -13.65 M-2.25 11.65 L-2.0 7.25 Q-2.0 4.8 -2.9 1.35 -3.85 -2.45 -5.15 -4.0 -3.15 -2.7 -1.5 2.75 -0.15 7.35 -0.15 10.1 L0.0 12.15 Q0.05 16.95 -3.0 17.65 L-3.0 16.4 -2.25 11.65" fill="#2d2d2d" fill-rule="evenodd" stroke="none"/>
  </g>
</svg>
