<?xml version="1.0" encoding="UTF-8" standalone="no"?>
<svg xmlns:ffdec="https://www.free-decompiler.com/flash" xmlns:xlink="http://www.w3.org/1999/xlink" ffdec:objectType="shape" height="44.15px" width="68.05px" xmlns="http://www.w3.org/2000/svg">
  <g transform="matrix(1.0, 0.0, 0.0, 1.0, 54.8, 18.65)">
    <path d="M8.75 8.4 L7.85 7.4 7.85 7.5 8.2 7.95 8.9 8.75 6.8 18.7 5.2 19.85 Q4.55 20.5 3.7 20.95 -0.5 22.7 -4.85 23.85 L-11.65 24.95 Q-23.15 25.95 -34.6 25.05 L-43.15 23.6 -47.55 22.45 Q-49.7 21.65 -51.6 20.5 -52.5 19.95 -53.0 19.0 L-53.45 18.0 -53.05 19.6 Q-54.7 15.35 -54.55 12.8 L-54.4 9.7 Q-55.45 3.55 -53.65 -1.6 -51.75 -6.65 -47.4 -10.1 -39.75 -16.25 -30.05 -17.8 L-30.0 -17.75 Q-22.5 -19.7 -15.1 -17.5 -10.2 -17.45 -6.9 -14.75 -4.9 -13.1 -4.4 -11.7 L-2.9 -10.5 Q3.7 -10.2 7.75 -6.5 10.9 -3.6 10.9 -1.4 10.9 1.4 8.35 1.4 L7.9 1.4 13.25 9.05 12.55 10.35 11.5 11.5 8.85 8.55 8.9 8.55 8.75 8.4 M6.75 -6.05 Q3.0 -9.25 -1.45 -9.25 L2.6 -5.0 Q4.3 -3.8 6.6 -0.25 L7.85 0.5 Q10.05 0.5 10.0 -1.4 10.0 -3.35 6.75 -6.05 M-4.7 0.2 Q-1.65 1.25 1.15 2.8 L5.4 5.2 5.7 5.4 5.6 4.7 Q5.05 1.8 4.05 0.15 3.2 -1.35 4.3 -0.45 L2.15 -2.75 0.6 -4.75 -3.6 -8.9 -4.85 -9.9 -5.05 -10.05 -6.0 -10.75 Q-8.95 -12.8 -12.4 -14.4 L-12.45 -14.45 -12.55 -14.45 -12.6 -14.5 Q-14.95 -15.5 -17.5 -16.1 L-17.55 -16.1 -29.75 -15.65 -29.8 -15.65 Q-38.9 -14.4 -46.2 -8.55 -50.0 -5.35 -51.75 -0.9 -53.05 2.8 -53.1 6.5 L-52.15 5.25 Q-50.0 2.35 -44.35 0.45 L-35.2 -2.25 Q-28.1 -3.95 -21.0 -2.8 -14.1 -2.5 -7.5 -0.65 L-4.7 0.2 M-8.35 7.15 L-25.9 9.05 Q-39.8 10.6 -41.4 12.35 -41.0 12.75 -40.6 12.75 -42.4 11.75 -18.25 11.75 L-11.55 11.85 Q-1.5 12.05 1.75 13.15 L-15.8 14.5 -21.95 14.85 Q-33.25 15.5 -33.25 16.7 L-33.0 17.25 -25.35 17.5 -24.95 17.5 -7.05 16.5 -2.0 16.6 Q-4.4 18.4 -9.3 19.15 L-17.15 19.65 -25.05 19.15 -31.05 18.35 Q-39.4 17.1 -50.55 14.55 L-50.9 15.3 -50.95 15.5 -51.15 16.15 -51.3 17.25 Q-51.3 17.95 -50.9 18.55 L-50.35 19.15 -49.9 19.45 -44.85 21.4 -38.45 22.55 -30.4 23.3 -20.85 23.5 -11.8 22.95 -5.35 21.9 Q-0.75 20.9 3.35 18.7 L4.55 17.95 4.75 17.55 Q4.55 16.0 3.5 14.95 L3.45 14.85 2.6 14.0 1.25 12.65 0.2 11.75 -1.25 10.6 -1.3 10.6 Q-3.8 8.95 -6.6 7.8 L-7.4 7.5 -8.35 7.15 M12.0 9.15 L9.45 6.2 7.65 3.65 7.8 5.35 11.5 10.0 12.0 9.15" fill="#333333" fill-rule="evenodd" stroke="none"/>
    <path d="M6.75 -6.05 Q10.0 -3.35 10.0 -1.4 10.05 0.5 7.85 0.5 L6.6 -0.25 Q4.3 -3.8 2.6 -5.0 L-1.45 -9.25 Q3.0 -9.25 6.75 -6.05 M12.0 9.15 L11.5 10.0 7.8 5.35 7.65 3.65 9.45 6.2 12.0 9.15 M-8.35 7.15 L-7.4 7.5 -6.6 7.8 Q-3.8 8.95 -1.3 10.6 L-1.25 10.6 0.2 11.75 1.25 12.65 2.6 14.0 3.45 14.85 3.5 14.95 Q4.55 16.0 4.75 17.55 L4.55 17.95 3.35 18.7 Q-0.75 20.9 -5.35 21.9 L-11.8 22.95 -20.85 23.5 -30.4 23.3 -38.45 22.55 -44.85 21.4 -49.9 19.45 -50.35 19.15 -50.9 18.55 Q-51.3 17.95 -51.3 17.25 L-51.15 16.15 -50.95 15.5 -50.9 15.3 -50.55 14.55 Q-39.4 17.1 -31.05 18.35 L-25.05 19.15 -17.15 19.65 -9.3 19.15 Q-4.4 18.4 -2.0 16.6 L-7.05 16.5 -24.95 17.5 -25.35 17.5 -33.0 17.25 -33.25 16.7 Q-33.25 15.5 -21.95 14.85 L-15.8 14.5 1.75 13.15 Q-1.5 12.05 -11.55 11.85 L-18.25 11.75 Q-42.4 11.75 -40.6 12.75 -41.0 12.75 -41.4 12.35 -39.8 10.6 -25.9 9.05 L-8.35 7.15" fill="#2d2d2d" fill-rule="evenodd" stroke="none"/>
    <path d="M-17.55 -16.1 L-17.5 -16.1 Q-14.95 -15.5 -12.6 -14.5 L-12.55 -14.45 -12.45 -14.45 -12.4 -14.4 Q-8.95 -12.8 -6.0 -10.75 L-5.05 -10.05 -4.85 -9.9 -3.6 -8.9 0.6 -4.75 2.15 -2.75 4.3 -0.45 Q3.2 -1.35 4.05 0.15 5.05 1.8 5.6 4.7 L5.7 5.4 5.4 5.2 1.15 2.8 Q-1.65 1.25 -4.7 0.2 L-4.7 -0.1 Q-4.5 -3.4 -6.65 -6.35 -9.55 -10.55 -17.6 -15.35 L-17.65 -15.7 -17.55 -16.1" fill="#3b3b3b" fill-rule="evenodd" stroke="none"/>
    <path d="M-4.7 0.2 L-7.5 -0.65 Q-14.1 -2.5 -21.0 -2.8 -28.1 -3.95 -35.2 -2.25 L-44.35 0.45 Q-50.0 2.35 -52.15 5.25 L-53.1 6.5 Q-53.05 2.8 -51.75 -0.9 -50.0 -5.35 -46.2 -8.55 -38.9 -14.4 -29.8 -15.65 L-29.75 -15.65 -17.55 -16.1 -17.65 -15.7 -17.6 -15.35 Q-9.55 -10.55 -6.65 -6.35 -4.5 -3.4 -4.7 -0.1 L-4.7 0.2" fill="#464646" fill-rule="evenodd" stroke="none"/>
    <path d="M8.75 8.4 L8.9 8.55 8.85 8.55 8.8 8.5 8.75 8.4" fill="#cccccc" fill-rule="evenodd" stroke="none"/>
  </g>
</svg>
