<?xml version="1.0" encoding="UTF-8" standalone="no"?>
<svg xmlns:ffdec="https://www.free-decompiler.com/flash" xmlns:xlink="http://www.w3.org/1999/xlink" ffdec:objectType="shape" height="85.55px" width="109.35px" xmlns="http://www.w3.org/2000/svg">
  <g transform="matrix(1.0, 0.0, 0.0, 1.0, 50.25, 74.1)">
    <path d="M-32.4 -54.8 L-30.65 -55.3 -24.75 -56.3 -19.2 -57.4 Q-17.7 -57.8 -15.05 -59.1 L-13.95 -59.6 -10.45 -61.3 -13.95 -59.05 Q-20.9 -54.9 -27.5 -53.95 L-34.65 -52.5 -35.4 -52.25 Q-36.7 -51.8 -38.2 -50.7 L-42.65 -46.75 -48.45 -39.85 -47.55 -41.65 Q-43.45 -49.4 -36.8 -52.95 -34.75 -54.1 -32.4 -54.8 M12.55 -34.6 Q10.55 -39.5 5.85 -47.1 L0.25 -55.7 -0.55 -57.05 2.65 -54.5 Q9.35 -48.3 13.85 -37.55 18.7 -25.8 18.7 -15.05 L18.7 -13.0 Q18.5 -6.15 17.5 -2.45 16.95 -0.45 14.2 4.95 L13.75 5.6 10.65 9.35 10.7 9.25 11.8 6.9 Q13.15 3.7 14.65 -1.6 L15.85 -6.35 Q16.8 -10.85 16.8 -13.7 16.8 -16.7 15.55 -23.3 14.15 -30.55 12.55 -34.6 M35.3 -37.65 L34.85 -40.4 Q34.1 -44.7 32.95 -48.4 L35.3 -45.5 35.4 -45.3 35.5 -45.2 35.65 -44.95 Q36.8 -39.7 36.8 -33.9 L36.65 -30.85 36.55 -29.95 35.95 -24.95 Q36.15 -31.3 35.3 -37.65 M10.9 -57.7 L12.85 -56.8 Q21.5 -52.2 25.05 -45.0 27.75 -39.45 28.35 -30.45 L28.5 -25.05 Q28.5 -20.4 27.95 -15.8 27.1 -8.4 24.85 -1.1 L23.6 2.65 21.6 6.65 19.15 11.45 19.0 10.95 20.55 7.55 21.7 4.75 22.85 1.85 Q24.7 -3.9 25.95 -9.1 L26.8 -13.45 Q27.8 -19.2 27.8 -23.2 27.8 -35.25 23.7 -43.5 L23.1 -44.7 Q19.05 -52.05 10.9 -57.7 M-29.35 -59.1 L-27.0 -61.55 -21.15 -64.75 Q-18.6 -65.95 -15.3 -66.4 L-11.25 -66.65 -6.1 -66.0 -3.9 -65.65 -0.05 -64.8 -1.85 -64.4 -4.65 -64.5 -6.65 -64.75 -14.8 -64.45 Q-18.25 -63.8 -23.2 -61.8 L-23.65 -61.6 Q-27.2 -60.25 -29.35 -59.1" fill="#a47620" fill-rule="evenodd" stroke="none"/>
    <path d="M-28.15 -64.75 L-28.1 -64.85 -27.6 -66.4 Q-27.1 -67.35 -25.15 -67.7 L-16.75 -68.55 -4.95 -68.4 Q6.4 -67.3 10.15 -66.1 10.55 -65.9 11.05 -65.65 L16.5 -62.95 Q20.7 -60.85 23.85 -57.85 L26.0 -55.45 31.5 -48.1 Q34.25 -43.8 34.3 -40.6 L31.8 -43.15 Q29.85 -45.1 29.0 -45.1 L28.2 -44.95 28.1 -44.35 30.75 -37.2 32.5 -31.6 32.2 -30.85 30.5 -32.3 23.85 -37.05 Q18.9 -40.0 12.8 -42.6 L11.05 -43.35 Q0.4 -47.5 -10.0 -49.55 -22.2 -52.15 -34.0 -51.3 L-34.25 -51.25 -35.15 -51.2 -35.35 -51.15 -40.3 -50.1 -44.65 -49.05 Q-44.45 -50.0 -39.65 -51.9 L-33.65 -54.1 -32.75 -54.1 -32.35 -54.25 -30.25 -54.85 -25.75 -55.45 Q-24.9 -55.6 -24.9 -56.15 -24.9 -58.0 -35.35 -58.5 L-35.55 -60.75 -35.6 -62.1 -35.7 -62.1 Q-32.05 -63.2 -27.85 -63.6 -23.7 -64.0 -11.4 -62.0 L-10.0 -61.75 Q1.25 -60.1 6.8 -58.55 L0.85 -60.85 Q-3.0 -62.9 -10.0 -63.9 L-19.8 -64.75 -28.15 -64.75 M6.7 -62.25 L6.7 -61.65 Q6.5 -61.15 11.05 -59.0 L13.85 -57.7 Q20.85 -54.45 21.8 -54.55 L22.5 -54.7 22.55 -55.2 Q15.25 -60.35 11.05 -61.95 L7.4 -62.6 Q6.75 -62.55 6.7 -62.25 M8.85 -55.1 Q-0.85 -58.25 -10.0 -59.7 -20.85 -61.65 -30.85 -60.75 L-31.85 -60.5 -32.8 -59.8 Q-20.25 -59.3 -10.0 -57.25 -1.25 -55.7 6.05 -53.25 L11.05 -51.35 Q16.4 -49.05 23.85 -45.0 L26.85 -43.3 Q27.7 -43.65 27.7 -44.65 27.75 -45.95 23.85 -48.4 L22.6 -49.15 Q17.85 -51.85 11.05 -54.35 L8.85 -55.1 M11.05 -47.4 L2.05 -50.95 Q-5.0 -53.65 -10.0 -55.0 -15.45 -56.65 -18.15 -56.4 -19.25 -56.3 -20.0 -55.5 -18.45 -54.8 -10.0 -52.1 L-3.25 -50.2 11.05 -46.15 18.1 -43.7 Q16.7 -44.95 11.05 -47.4 M43.4 -5.9 L45.4 -5.9 45.95 -6.0 45.05 -5.85 43.4 -5.9 M49.0 -7.45 L47.75 -7.4 45.05 -7.4 Q47.65 -8.95 53.4 -14.65 L57.2 -18.5 57.25 -18.85 Q56.85 -15.15 52.55 -10.65 L49.0 -7.45" fill="#415481" fill-rule="evenodd" stroke="none"/>
    <path d="M8.85 -55.1 L11.05 -54.35 Q17.85 -51.85 22.6 -49.15 L23.85 -48.4 Q27.75 -45.95 27.7 -44.65 27.7 -43.65 26.85 -43.3 L23.85 -45.0 Q16.4 -49.05 11.05 -51.35 L6.05 -53.25 Q-1.25 -55.7 -10.0 -57.25 -20.25 -59.3 -32.8 -59.8 L-31.85 -60.5 -30.85 -60.75 Q-20.85 -61.65 -10.0 -59.7 -0.85 -58.25 8.85 -55.1 M6.7 -62.25 Q6.75 -62.55 7.4 -62.6 L11.05 -61.95 Q15.25 -60.35 22.55 -55.2 L22.5 -54.7 21.8 -54.55 Q20.85 -54.45 13.85 -57.7 L11.05 -59.0 Q6.5 -61.15 6.7 -61.65 L6.7 -62.25 M11.05 -47.4 Q16.7 -44.95 18.1 -43.7 L11.05 -46.15 -3.25 -50.2 -10.0 -52.1 Q-18.45 -54.8 -20.0 -55.5 -19.25 -56.3 -18.15 -56.4 -15.45 -56.65 -10.0 -55.0 -5.0 -53.65 2.05 -50.95 L11.05 -47.4" fill="#546ca7" fill-rule="evenodd" stroke="none"/>
    <path d="M32.2 -30.85 L32.5 -31.6 30.75 -37.2 28.1 -44.35 28.2 -44.95 29.0 -45.1 Q29.85 -45.1 31.8 -43.15 L34.3 -40.6 Q34.25 -43.8 31.5 -48.1 L26.0 -55.45 23.85 -57.85 Q20.7 -60.85 16.5 -62.95 L11.05 -65.65 Q10.55 -65.9 10.15 -66.1 6.4 -67.3 -4.95 -68.4 L-16.75 -68.55 -25.15 -67.7 Q-27.1 -67.35 -27.6 -66.4 L-28.1 -64.85 -28.15 -64.75 -29.55 -64.65 Q-34.55 -64.35 -37.65 -63.45 -34.5 -66.25 -33.2 -68.2 -31.65 -70.05 -26.5 -71.1 L-10.0 -72.35 -8.85 -72.4 Q0.15 -72.55 11.05 -68.2 16.55 -65.95 22.5 -62.4 L23.85 -61.6 Q37.45 -52.45 40.35 -32.35 40.95 -30.15 39.4 -28.4 L35.0 -36.75 Q33.5 -39.1 31.0 -41.3 L30.45 -41.8 29.85 -42.25 Q30.75 -40.3 32.2 -37.8 33.65 -35.3 35.65 -32.15 38.65 -26.75 38.85 -22.2 L38.9 -20.95 Q37.85 -25.45 32.9 -30.2 L32.5 -30.55 32.2 -30.85 M-35.7 -62.1 L-35.6 -62.1 -35.55 -60.75 -35.35 -58.5 Q-24.9 -58.0 -24.9 -56.15 -24.9 -55.6 -25.75 -55.45 L-30.25 -54.85 -32.35 -54.25 -32.75 -54.1 -33.65 -54.1 -39.65 -51.9 Q-44.45 -50.0 -44.65 -49.05 L-46.95 -48.4 Q-46.8 -52.55 -39.3 -54.7 L-31.35 -56.95 -29.3 -57.5 -30.0 -57.5 -33.95 -57.25 Q-39.9 -56.4 -46.9 -52.45 -46.55 -57.05 -40.35 -60.25 L-36.8 -61.75 -36.2 -61.95 -35.95 -62.0 -35.85 -62.05 -35.7 -62.1 M23.85 -33.2 Q17.8 -37.25 11.05 -40.3 1.15 -44.6 -10.0 -46.95 L-12.9 -47.6 -23.7 -49.15 Q-30.25 -49.7 -35.2 -48.85 -43.9 -47.35 -46.95 -41.15 -48.05 -41.9 -48.3 -43.3 -48.55 -44.25 -48.35 -45.5 -44.4 -49.05 -39.6 -50.2 L-33.1 -51.05 Q-26.6 -51.65 -11.6 -48.7 L-10.0 -48.35 Q2.25 -46.1 11.05 -42.55 16.85 -40.1 21.1 -37.05 L23.85 -35.0 Q28.65 -31.25 32.0 -27.75 L35.6 -23.4 Q37.4 -20.65 37.5 -18.65 L37.5 -18.2 Q37.45 -16.5 36.5 -14.95 L36.4 -18.65 36.2 -20.6 Q29.25 -29.45 25.85 -31.8 L23.85 -33.2 M43.4 -5.9 L42.6 -6.05 41.2 -6.55 Q39.8 -9.15 39.4 -10.55 L41.6 -9.85 Q44.05 -10.05 51.95 -13.45 L50.65 -13.05 47.25 -12.45 44.15 -12.0 39.8 -12.15 41.2 -13.55 43.95 -13.45 46.5 -13.45 Q51.25 -13.9 57.25 -19.2 L57.25 -18.85 57.2 -18.5 53.4 -14.65 Q47.65 -8.95 45.05 -7.4 L47.75 -7.4 49.0 -7.45 47.75 -6.7 47.7 -6.65 45.95 -6.0 45.4 -5.9 43.4 -5.9 M35.75 -4.4 L37.4 -6.2 38.05 -3.75 38.1 -6.0 41.2 -5.65 41.2 -4.45 41.9 -4.4 41.2 -2.95 41.2 -3.75 Q39.85 -0.9 38.55 0.85 L34.4 5.0 35.75 -4.4" fill="#27334e" fill-rule="evenodd" stroke="none"/>
    <path d="M-28.15 -64.75 L-19.8 -64.75 -10.0 -63.9 Q-3.0 -62.9 0.85 -60.85 L6.8 -58.55 Q1.25 -60.1 -10.0 -61.75 L-11.4 -62.0 Q-23.7 -64.0 -27.85 -63.6 -32.05 -63.2 -35.7 -62.1 L-35.85 -62.05 -35.95 -62.0 -36.2 -61.95 -36.8 -61.75 -40.35 -60.25 Q-46.55 -57.05 -46.9 -52.45 -39.9 -56.4 -33.95 -57.25 L-30.0 -57.5 -29.3 -57.5 -31.35 -56.95 -39.3 -54.7 Q-46.8 -52.55 -46.95 -48.4 L-44.65 -49.05 -40.3 -50.1 -35.35 -51.15 -35.15 -51.2 -34.25 -51.25 -34.0 -51.3 Q-22.2 -52.15 -10.0 -49.55 0.4 -47.5 11.05 -43.35 L12.8 -42.6 Q18.9 -40.0 23.85 -37.05 L30.5 -32.3 32.2 -30.85 32.5 -30.55 32.9 -30.2 Q37.85 -25.45 38.9 -20.95 L38.85 -22.2 Q38.65 -26.75 35.65 -32.15 33.65 -35.3 32.2 -37.8 30.75 -40.3 29.85 -42.25 L30.45 -41.8 31.0 -41.3 Q33.5 -39.1 35.0 -36.75 L39.4 -28.4 Q40.95 -30.15 40.35 -32.35 37.45 -52.45 23.85 -61.6 L22.5 -62.4 Q16.55 -65.95 11.05 -68.2 0.15 -72.55 -8.85 -72.4 L-10.0 -72.35 -26.5 -71.1 Q-31.65 -70.05 -33.2 -68.2 -34.5 -66.25 -37.65 -63.45 -34.55 -64.35 -29.55 -64.65 L-28.15 -64.75 M23.85 -64.0 L24.55 -63.5 Q40.7 -50.45 41.1 -36.6 41.15 -33.5 41.65 -30.8 L40.4 -26.6 Q41.25 -21.05 41.25 -18.65 L41.2 -18.3 41.2 -17.1 Q43.0 -14.65 45.55 -14.7 49.4 -15.05 52.05 -16.95 L59.05 -22.4 Q59.65 -18.4 55.3 -12.5 51.3 -7.05 47.95 -5.65 L44.25 -4.2 Q42.9 -3.45 41.65 -0.6 L41.2 0.2 38.35 3.6 Q35.65 6.4 33.05 8.0 L31.7 8.75 Q34.35 2.4 34.3 -0.65 L33.1 -5.45 Q32.4 -7.2 33.65 -10.55 34.85 -13.9 35.65 -17.05 35.8 -17.75 35.55 -18.65 34.65 -21.85 28.35 -27.8 L23.85 -31.7 Q18.6 -35.7 13.6 -37.8 L0.55 -42.8 Q-4.8 -44.65 -10.0 -45.9 L-15.8 -47.2 -20.65 -47.9 Q-30.35 -49.05 -37.2 -47.45 -44.1 -45.85 -46.25 -38.55 -48.55 -39.25 -49.35 -41.45 -49.95 -42.8 -49.9 -44.75 L-50.25 -50.35 -48.5 -52.55 -47.9 -55.75 -44.9 -58.85 Q-42.55 -61.0 -39.35 -62.95 L-34.8 -69.8 Q-27.8 -73.05 -22.15 -73.5 L-10.0 -74.05 Q1.65 -73.85 11.05 -70.75 18.15 -68.3 23.85 -64.0 M23.85 -33.2 L25.85 -31.8 Q29.25 -29.45 36.2 -20.6 L36.4 -18.65 36.5 -14.95 Q37.45 -16.5 37.5 -18.2 L37.5 -18.65 Q37.4 -20.65 35.6 -23.4 L32.0 -27.75 Q28.65 -31.25 23.85 -35.0 L21.1 -37.05 Q16.85 -40.1 11.05 -42.55 2.25 -46.1 -10.0 -48.35 L-11.6 -48.7 Q-26.6 -51.65 -33.1 -51.05 L-39.6 -50.2 Q-44.4 -49.05 -48.35 -45.5 -48.55 -44.25 -48.3 -43.3 -48.05 -41.9 -46.95 -41.15 -43.9 -47.35 -35.2 -48.85 -30.25 -49.7 -23.7 -49.15 L-12.9 -47.6 -10.0 -46.95 Q1.15 -44.6 11.05 -40.3 17.8 -37.25 23.85 -33.2 M35.75 -4.4 L34.4 5.0 38.55 0.85 Q39.85 -0.9 41.2 -3.75 L41.2 -2.95 41.9 -4.4 41.2 -4.45 41.2 -5.65 38.1 -6.0 38.05 -3.75 37.4 -6.2 35.75 -4.4 M57.25 -18.85 L57.25 -19.2 Q51.25 -13.9 46.5 -13.45 L43.95 -13.45 41.2 -13.55 39.8 -12.15 44.15 -12.0 47.25 -12.45 50.65 -13.05 51.95 -13.45 Q44.05 -10.05 41.6 -9.85 L39.4 -10.55 Q39.8 -9.15 41.2 -6.55 L42.6 -6.05 43.4 -5.9 45.05 -5.85 45.95 -6.0 47.7 -6.65 47.75 -6.7 49.0 -7.45 52.55 -10.65 Q56.85 -15.15 57.25 -18.85" fill="#121723" fill-rule="evenodd" stroke="none"/>
  </g>
</svg>
