<?xml version="1.0" encoding="UTF-8" standalone="no"?>
<svg xmlns:ffdec="https://www.free-decompiler.com/flash" xmlns:xlink="http://www.w3.org/1999/xlink" ffdec:objectType="shape" height="148.4px" width="71.05px" xmlns="http://www.w3.org/2000/svg">
  <g transform="matrix(1.0, 0.0, 0.0, 1.0, 32.1, 139.4)">
    <path d="M-5.4 -16.2 L-4.1 -15.6 Q-3.95 -11.35 -4.05 -3.65 L-5.2 -3.45 -5.4 -16.2 M-5.8 -3.05 Q-6.0 -1.25 -6.15 -1.2 L-6.4 -1.3 -6.5 -2.05 Q-6.5 -2.65 -6.2 -2.9 -5.85 -3.0 -5.8 -3.05" fill="#6e6e6e" fill-rule="evenodd" stroke="none"/>
    <path d="M-5.95 -16.65 L-5.4 -16.2 -5.2 -3.45 -4.05 -3.65 Q-3.95 -11.35 -4.1 -15.6 L-3.75 -15.5 -3.35 -0.7 -0.85 -0.5 -2.75 -0.55 -3.15 -0.55 Q-2.6 0.4 -1.85 3.45 -1.05 6.5 -1.05 7.65 -1.05 8.35 -1.7 8.6 L-5.65 9.0 -6.7 9.0 Q-7.05 8.9 -7.05 8.25 L-6.7 1.0 Q-6.45 0.65 -5.9 0.65 L-6.65 -0.75 Q-7.05 -1.4 -7.05 -2.0 L-5.75 -5.6 -5.95 -16.45 -5.95 -16.65 M-5.8 -3.05 Q-5.85 -3.0 -6.2 -2.9 -6.5 -2.65 -6.5 -2.05 L-6.4 -1.3 -6.15 -1.2 Q-6.0 -1.25 -5.8 -3.05 M-3.85 -2.55 L-3.95 -2.95 -5.3 -2.7 -5.0 2.3 -3.65 2.2 -3.85 -2.55 M-3.05 1.25 Q-3.25 2.5 -3.8 3.2 L-4.65 4.05 -5.55 3.15 -5.7 2.35 -5.85 1.25 Q-6.2 3.6 -6.35 8.15 -6.25 8.25 -6.3 8.3 L-5.65 8.35 Q-1.65 8.35 -1.65 7.4 L-2.05 4.6 Q-2.5 2.1 -3.05 1.25 M-3.0 5.7 Q-2.6 6.0 -2.6 6.4 -2.6 6.8 -3.0 7.1 L-4.05 7.4 -5.05 7.1 -5.5 6.4 -5.05 5.7 Q-4.65 5.4 -4.05 5.4 L-3.0 5.7" fill="#333333" fill-rule="evenodd" stroke="none"/>
    <path d="M-3.85 -2.55 L-3.65 2.2 -5.0 2.3 -5.3 -2.7 -3.95 -2.95 -3.85 -2.55 M-3.0 5.7 L-4.05 5.4 Q-4.65 5.4 -5.05 5.7 L-5.5 6.4 -5.05 7.1 -4.05 7.4 -3.0 7.1 Q-2.6 6.8 -2.6 6.4 -2.6 6.0 -3.0 5.7 M-3.05 1.25 Q-2.5 2.1 -2.05 4.6 L-1.65 7.4 Q-1.65 8.35 -5.65 8.35 L-6.3 8.3 Q-6.25 8.25 -6.35 8.15 -6.2 3.6 -5.85 1.25 L-5.7 2.35 -5.55 3.15 -4.65 4.05 -3.8 3.2 Q-3.25 2.5 -3.05 1.25" fill="#8c8c8c" fill-rule="evenodd" stroke="none"/>
    <path d="M26.95 -132.45 L27.2 -132.25 Q27.8 -130.95 26.9 -129.6 26.35 -128.55 24.55 -128.25 L23.35 -127.8 21.0 -128.8 23.85 -129.95 Q25.0 -130.5 24.7 -131.55 23.65 -133.85 14.4 -135.8 L14.4 -136.9 Q24.85 -135.0 26.95 -132.45 M16.75 -124.05 L16.05 -126.35 15.0 -126.2 14.4 -127.4 15.65 -127.6 16.2 -127.7 16.05 -126.35 16.25 -126.4 21.55 -127.35 21.65 -125.85 Q20.8 -124.6 17.55 -124.15 L16.75 -124.05 M10.1 -127.95 L9.1 -126.65 8.1 -125.35 6.75 -123.6 5.65 -122.25 5.1 -121.55 4.6 -122.55 0.8 -120.3 0.95 -120.85 Q2.5 -121.45 4.25 -122.9 L4.6 -122.55 5.65 -123.9 6.65 -125.25 7.05 -125.85 7.5 -126.45 9.65 -129.95 10.1 -127.95 M-5.5 -19.6 L-5.5 -21.2 -5.55 -48.85 Q-5.55 -58.55 -5.7 -60.75 -6.4 -70.2 -7.65 -74.65 -8.75 -78.4 -8.75 -79.45 -8.75 -82.45 -6.9 -88.8 -4.35 -97.65 -3.75 -100.45 L-2.45 -105.9 -1.0 -112.6 -0.25 -113.25 0.05 -112.55 0.1 -112.4 6.6 -97.4 Q9.1 -91.55 9.1 -90.35 9.1 -88.35 8.75 -86.65 8.0 -83.2 5.9 -82.25 7.15 -81.3 11.05 -80.35 13.8 -79.65 13.8 -77.95 L11.55 -75.25 11.45 -75.15 12.85 -74.55 Q13.5 -74.25 13.5 -72.9 L11.6 -61.55 Q11.6 -61.3 13.15 -59.9 14.65 -58.55 14.65 -56.95 14.65 -54.9 12.25 -52.75 L6.85 -48.3 13.7 -47.35 Q14.2 -44.7 16.2 -39.2 L18.05 -34.2 18.45 -33.2 19.5 -30.45 19.75 -29.8 Q22.15 -23.3 22.15 -22.0 L25.2 -22.7 Q25.15 -20.8 18.15 -19.55 L8.0 -18.65 5.3 -18.7 1.8 -18.85 -4.25 -19.45 -5.45 -19.6 -5.5 -19.6 M20.1 -112.55 L18.7 -117.4 20.6 -116.4 Q21.25 -114.55 20.1 -112.55 M23.45 -32.15 Q26.45 -29.65 26.45 -29.15 26.05 -27.7 25.35 -26.75 L23.45 -32.15 M8.2 -53.85 L7.75 -54.4 Q2.5 -53.05 -1.9 -49.7 L-1.95 -39.3 Q-1.95 -37.1 -1.1 -35.3 1.0 -30.8 6.1 -28.8 L-4.0 -29.2 Q-3.25 -26.35 -3.9 -23.6 -3.6 -23.0 -2.9 -22.75 -0.95 -22.1 1.15 -22.4 L4.9 -22.0 Q12.05 -20.95 17.7 -24.5 L14.85 -31.05 Q12.15 -37.05 10.3 -43.4 8.75 -44.3 7.0 -44.25 5.3 -43.85 4.3 -44.8 L4.35 -45.15 4.85 -46.15 5.15 -46.75 Q6.85 -50.25 8.2 -53.85 M3.65 -77.9 Q2.9 -77.9 2.5 -77.4 L1.9 -76.6 -1.9 -75.3 Q-4.5 -74.15 -4.4 -67.3 L-3.4 -58.5 3.7 -58.25 7.3 -58.55 Q8.45 -59.05 8.45 -61.2 8.45 -63.05 7.9 -63.2 L4.1 -63.05 -2.9 -63.4 -2.7 -63.45 4.85 -68.15 Q8.75 -70.75 8.75 -73.6 8.75 -76.05 7.85 -76.9 6.85 -77.9 3.65 -77.9 M2.1 -87.45 Q4.2 -90.45 4.2 -92.15 4.2 -93.35 3.35 -95.35 1.95 -98.5 -1.35 -102.75 L-2.15 -98.65 -5.35 -87.5 Q-6.4 -83.75 -5.4 -82.7 -0.05 -84.35 2.1 -87.45 M20.4 -30.45 L19.35 -33.2 18.1 -36.3 16.9 -39.2 Q15.05 -43.9 14.55 -47.15 L14.4 -48.05 17.3 -48.45 20.5 -39.2 21.05 -37.55 22.55 -33.2 22.7 -32.8 23.45 -30.45 20.4 -30.45 M-2.3 -10.1 L-0.5 -10.2 0.7 -10.05 1.8 -10.25 1.95 -10.3 17.7 -10.85 27.15 -11.05 27.2 -11.0 27.95 -7.75 28.7 -4.0 21.95 -3.1 21.5 -8.4 19.85 -8.45 20.2 -2.85 15.95 -2.05 15.55 -2.1 15.25 -5.75 14.45 -8.9 13.55 -8.8 13.45 -8.8 13.35 -7.95 13.7 -1.9 8.55 -1.6 8.4 -5.35 8.0 -8.6 7.7 -9.9 7.3 -9.4 7.2 -9.1 6.75 -10.0 6.05 -9.95 5.85 -8.7 5.65 -5.4 5.6 -1.65 1.8 -1.8 -1.1 -1.95 -1.15 -5.8 Q-1.15 -8.55 -1.3 -9.15 L-1.55 -9.15 -2.3 -9.1 -2.3 -10.1 M-10.5 -127.0 L-9.6 -123.35 -9.05 -120.6 -9.35 -116.8 -9.55 -117.15 -9.8 -117.55 -11.65 -119.5 Q-12.35 -120.05 -12.4 -121.85 L-12.4 -122.2 -12.35 -122.3 -11.8 -124.15 -10.75 -126.7 -10.55 -127.05 -10.5 -127.0" fill="#23abab" fill-rule="evenodd" stroke="none"/>
    <path d="M23.35 -127.8 L24.55 -128.25 Q26.35 -128.55 26.9 -129.6 27.8 -130.95 27.2 -132.25 L26.95 -132.45 Q29.0 -131.05 29.75 -129.4 30.4 -127.95 29.2 -125.4 L27.75 -123.0 Q28.0 -122.55 29.2 -121.0 L30.75 -118.95 Q30.15 -113.15 28.75 -111.3 25.9 -107.35 23.8 -105.7 L22.35 -104.95 21.85 -104.75 Q19.2 -117.65 15.0 -126.2 L16.05 -126.35 16.75 -124.05 17.3 -122.15 18.0 -122.15 Q24.75 -122.4 23.2 -127.8 L23.35 -127.8 M14.4 -136.9 L14.4 -135.8 10.15 -136.6 7.8 -137.95 14.4 -136.9 M1.35 -122.3 Q2.2 -125.05 5.3 -129.25 L5.65 -129.6 6.05 -130.7 6.85 -132.25 7.45 -132.95 7.85 -133.3 8.75 -134.0 10.05 -132.7 10.6 -131.55 9.65 -130.05 9.25 -130.75 8.65 -131.6 8.2 -132.15 8.1 -131.8 Q7.4 -129.6 5.75 -126.8 L5.65 -126.6 Q3.45 -123.05 1.35 -122.3 M17.75 -130.5 L12.2 -132.1 11.75 -133.1 10.5 -134.45 10.55 -134.45 Q14.1 -133.5 15.65 -132.8 16.8 -132.1 17.85 -130.65 L17.75 -130.5 M4.5 -118.95 L5.65 -119.95 6.05 -120.35 8.75 -123.6 10.2 -125.6 11.1 -126.9 11.65 -127.75 11.85 -127.1 11.9 -127.0 12.2 -126.25 12.4 -125.85 Q16.1 -117.5 19.2 -104.05 L19.5 -102.65 21.55 -92.5 Q25.0 -70.65 25.9 -66.15 L27.3 -56.6 Q28.5 -49.55 31.35 -41.75 31.75 -40.75 31.9 -37.85 32.05 -34.35 32.15 -33.8 32.35 -32.35 34.7 -29.15 36.95 -26.15 36.95 -24.15 36.95 -21.0 34.0 -19.45 31.7 -18.3 25.8 -17.4 L28.95 -20.85 30.8 -23.35 28.45 -28.9 Q26.1 -34.6 26.15 -36.4 26.25 -39.15 25.05 -43.05 L23.0 -49.85 21.9 -54.8 21.75 -58.75 Q21.7 -60.1 19.3 -62.7 L16.85 -65.45 17.25 -68.55 17.6 -71.7 Q17.6 -73.2 17.05 -75.5 L15.85 -79.35 Q15.55 -80.1 15.55 -86.95 15.55 -89.15 14.85 -91.8 L11.9 -102.35 11.7 -103.1 10.8 -106.2 10.35 -107.75 9.65 -110.3 9.25 -111.7 8.75 -113.5 Q7.7 -116.75 6.8 -117.95 6.3 -118.6 5.65 -118.85 L4.5 -118.95 M20.1 -112.55 L20.95 -109.65 22.0 -111.1 Q24.35 -114.9 22.95 -118.8 L18.0 -119.65 18.7 -117.4 20.1 -112.55 M13.7 -47.35 L13.55 -48.4 17.5 -49.05 23.45 -32.15 25.35 -26.75 26.6 -23.2 25.2 -22.7 22.15 -22.0 Q22.15 -23.3 19.75 -29.8 L19.5 -30.45 18.45 -33.2 18.05 -34.2 16.2 -39.2 Q14.2 -44.7 13.7 -47.35 M23.45 -30.45 L22.7 -32.8 22.55 -33.2 21.05 -37.55 20.5 -39.2 17.3 -48.45 14.4 -48.05 14.55 -47.15 Q15.05 -43.9 16.9 -39.2 L18.1 -36.3 19.35 -33.2 20.4 -30.45 20.6 -29.8 Q21.9 -26.1 22.65 -22.7 L25.25 -23.25 24.7 -26.05 23.65 -29.8 23.45 -30.45 M34.35 -5.4 L33.15 -8.75 32.2 -11.95 31.75 -13.05 24.15 -13.25 9.1 -12.0 3.15 -12.3 1.8 -12.75 1.2 -12.8 -0.85 -12.85 -2.05 -12.95 -2.4 -13.0 -2.45 -14.85 1.8 -14.75 23.1 -15.4 Q33.15 -16.45 35.65 -18.9 L37.4 -10.25 37.65 -8.0 Q37.85 -6.85 37.45 -6.55 37.05 -6.3 34.35 -5.4 M-8.2 -122.05 L-8.6 -125.35 -9.25 -129.0 -9.0 -130.4 -5.9 -135.15 Q-3.9 -137.55 -0.9 -137.55 L-0.1 -137.4 0.0 -137.2 -3.65 -134.75 Q-5.5 -133.45 -6.25 -131.7 -6.8 -130.4 -7.25 -127.25 L-8.1 -122.2 -8.2 -122.05 M-19.7 -17.65 L-19.9 -15.25 Q-25.8 -16.5 -28.2 -18.25 -30.55 -20.0 -30.55 -23.1 -30.55 -26.4 -29.4 -29.15 L-27.45 -32.95 -27.9 -33.95 -25.75 -38.55 -24.45 -40.5 Q-23.85 -49.15 -22.35 -53.1 -20.9 -57.05 -20.9 -59.05 -20.9 -62.6 -25.8 -69.4 -30.75 -76.15 -30.75 -80.95 -30.75 -86.7 -27.4 -93.35 L-16.65 -113.75 Q-15.05 -116.95 -13.7 -118.25 L-13.65 -118.2 -12.05 -116.4 Q-13.35 -115.45 -14.4 -113.65 -16.65 -109.1 -18.1 -107.05 -20.65 -103.8 -23.15 -99.0 -28.25 -89.4 -28.25 -81.8 -28.25 -81.25 -26.6 -79.5 L-24.95 -77.75 Q-24.95 -75.35 -23.5 -73.2 L-20.25 -69.4 Q-15.55 -63.9 -15.55 -56.4 -15.55 -53.05 -18.1 -48.85 -20.7 -44.65 -20.7 -39.95 L-19.2 -34.75 Q-19.2 -34.4 -19.8 -33.6 L-21.05 -32.0 -22.75 -29.45 -24.0 -27.2 Q-24.0 -19.5 -19.7 -17.65 M-24.0 -5.3 Q-26.3 -5.3 -27.95 -6.4 -29.6 -7.5 -29.6 -9.05 L-29.4 -10.9 -29.05 -14.1 -28.85 -17.05 Q-27.9 -16.1 -24.7 -15.25 -21.85 -14.5 -19.95 -14.4 L-20.0 -13.1 -20.15 -12.15 -23.0 -11.65 -24.05 -8.8 -23.9 -6.5 Q-23.8 -5.6 -24.0 -5.3" fill="#125a5a" fill-rule="evenodd" stroke="none"/>
    <path d="M26.95 -132.45 Q24.85 -135.0 14.4 -136.9 L7.8 -137.95 10.15 -136.6 14.4 -135.8 Q23.65 -133.85 24.7 -131.55 25.0 -130.5 23.85 -129.95 L21.0 -128.8 16.2 -127.7 15.65 -127.6 14.4 -127.4 15.0 -126.2 Q19.2 -117.65 21.85 -104.75 L22.35 -104.95 23.8 -105.7 Q25.9 -107.35 28.75 -111.3 30.15 -113.15 30.75 -118.95 L29.2 -121.0 Q28.0 -122.55 27.75 -123.0 L29.2 -125.4 Q30.4 -127.95 29.75 -129.4 29.0 -131.05 26.95 -132.45 M-5.95 -16.65 Q-7.15 -17.9 -7.2 -20.2 L-7.15 -27.75 -7.35 -34.05 -7.45 -41.5 -7.05 -63.25 Q-7.05 -69.1 -8.7 -74.3 -10.35 -79.45 -10.35 -80.55 -10.35 -84.8 -6.7 -97.2 -2.75 -110.7 -2.55 -112.15 -1.55 -119.2 1.7 -125.1 4.65 -130.45 4.65 -131.2 4.65 -132.8 3.55 -133.75 2.45 -134.7 0.6 -134.7 -3.65 -134.7 -5.3 -130.25 -6.45 -124.65 -7.15 -122.35 -8.1 -119.25 -7.85 -117.4 L-8.25 -116.45 Q-8.55 -112.4 -9.5 -110.05 L-9.65 -109.9 -10.45 -112.55 -11.7 -110.5 Q-14.55 -105.75 -18.3 -96.3 -22.7 -85.3 -22.7 -80.65 -22.7 -74.45 -17.9 -69.15 -15.35 -66.3 -14.65 -65.15 -13.15 -62.75 -13.15 -59.9 -13.15 -45.75 -16.2 -35.6 L-18.35 -29.0 Q-19.3 -25.6 -19.3 -22.6 L-18.85 -19.25 -18.3 -16.0 -18.05 -14.85 -19.95 -2.45 Q-29.7 -5.3 -31.25 -8.6 L-29.9 -16.1 -29.7 -17.6 Q-29.7 -18.95 -30.6 -20.8 L-31.5 -23.1 -30.45 -27.05 Q-29.25 -30.7 -28.3 -32.35 -28.6 -32.5 -28.7 -33.6 -28.8 -34.75 -27.95 -36.35 L-25.5 -40.9 -24.15 -48.35 Q-23.45 -52.8 -23.45 -56.15 L-23.65 -59.55 Q-24.05 -63.1 -25.0 -64.5 -28.0 -68.85 -30.2 -74.1 -32.1 -78.8 -32.1 -80.85 -32.1 -85.45 -30.85 -88.9 L-27.75 -95.4 -20.3 -109.5 -14.9 -120.0 Q-15.4 -121.05 -15.35 -122.45 -15.35 -125.15 -12.3 -128.3 L-10.85 -129.85 Q-9.95 -131.7 -9.05 -132.3 -7.05 -135.6 -4.3 -137.3 -2.7 -138.3 -1.0 -138.6 L-1.05 -138.65 Q4.0 -139.75 6.8 -139.2 L6.85 -139.2 10.15 -138.6 14.4 -137.95 23.3 -136.15 Q29.5 -134.25 31.8 -129.5 33.0 -126.8 32.05 -124.95 31.35 -123.85 32.05 -121.45 L33.1 -117.45 33.1 -116.15 Q33.05 -110.75 29.3 -107.1 26.65 -104.65 22.8 -103.4 L22.15 -103.2 23.2 -96.9 Q25.5 -75.2 26.5 -69.1 L27.35 -60.25 Q27.95 -54.95 30.5 -47.3 L32.1 -43.05 Q32.9 -41.05 32.8 -39.6 32.85 -34.95 33.8 -33.0 L36.2 -28.8 Q37.8 -25.95 37.8 -24.9 37.8 -23.8 37.15 -22.25 36.45 -20.6 36.4 -19.75 L37.25 -16.35 Q37.45 -15.05 37.8 -14.0 L38.95 -8.6 Q39.0 -6.0 37.95 -5.05 37.45 -4.6 35.25 -3.95 29.75 -2.25 27.1 -1.95 L20.35 -1.2 11.9 -0.3 6.9 0.05 -0.85 -0.5 -3.35 -0.7 -3.75 -15.5 -4.1 -15.6 -5.4 -16.2 -5.95 -16.65 M10.6 -131.55 L10.05 -132.7 8.75 -134.0 7.85 -133.3 7.45 -132.95 6.85 -132.25 6.05 -130.7 5.65 -129.6 5.3 -129.25 Q2.2 -125.05 1.35 -122.3 L0.95 -120.85 0.8 -120.3 0.5 -119.0 Q2.35 -119.6 3.75 -120.4 5.1 -121.2 5.1 -121.55 L5.65 -122.25 6.75 -123.6 8.1 -125.35 9.1 -126.65 10.1 -127.95 11.3 -128.5 10.6 -131.55 M25.8 -17.4 Q31.7 -18.3 34.0 -19.45 36.95 -21.0 36.95 -24.15 36.95 -26.15 34.7 -29.15 32.35 -32.35 32.15 -33.8 32.05 -34.35 31.9 -37.85 31.75 -40.75 31.35 -41.75 28.5 -49.55 27.3 -56.6 L25.9 -66.15 Q25.0 -70.65 21.55 -92.5 L19.5 -102.65 19.2 -104.05 Q16.1 -117.5 12.4 -125.85 L12.2 -126.25 11.9 -127.0 11.85 -127.1 11.65 -127.75 11.1 -126.9 10.2 -125.6 8.75 -123.6 6.05 -120.35 5.65 -119.95 4.5 -118.95 0.1 -117.5 -1.0 -112.6 -2.45 -105.9 -3.75 -100.45 Q-4.35 -97.65 -6.9 -88.8 -8.75 -82.45 -8.75 -79.45 -8.75 -78.4 -7.65 -74.65 -6.4 -70.2 -5.7 -60.75 -5.55 -58.55 -5.55 -48.85 L-5.5 -21.2 -5.5 -19.6 -5.45 -19.45 Q-5.3 -18.95 -4.15 -17.85 L-4.0 -17.7 -2.5 -16.3 1.8 -16.05 7.75 -15.95 19.5 -16.5 25.8 -17.4 M17.75 -130.5 L17.85 -130.65 Q16.8 -132.1 15.65 -132.8 14.1 -133.5 10.55 -134.45 L10.5 -134.45 11.75 -133.1 12.2 -132.1 17.75 -130.5 M34.35 -5.4 Q37.05 -6.3 37.45 -6.55 37.85 -6.85 37.65 -8.0 L37.4 -10.25 35.65 -18.9 Q33.15 -16.45 23.1 -15.4 L1.8 -14.75 -2.45 -14.85 -2.4 -13.0 -2.3 -10.1 -2.3 -9.1 -2.1 -1.95 -1.1 -1.95 1.8 -1.8 5.6 -1.65 8.55 -1.6 13.7 -1.9 15.55 -2.1 15.95 -2.05 20.2 -2.85 19.85 -2.7 21.95 -3.1 28.7 -4.0 30.5 -4.4 34.35 -5.4 M-8.1 -122.2 L-7.25 -127.25 Q-6.8 -130.4 -6.25 -131.7 -5.5 -133.45 -3.65 -134.75 L0.0 -137.2 -0.1 -137.4 -0.9 -137.55 Q-3.9 -137.55 -5.9 -135.15 L-9.0 -130.4 -9.25 -129.0 -8.6 -125.35 -8.2 -122.05 -8.15 -121.8 -8.1 -122.2 M-11.95 -127.3 L-13.5 -124.85 Q-14.2 -123.5 -14.3 -121.25 L-14.35 -120.15 -13.15 -118.65 -12.3 -117.65 -11.55 -116.75 -10.55 -115.35 -9.8 -113.7 -9.7 -113.35 -9.6 -113.0 -9.3 -114.55 Q-8.85 -117.2 -8.75 -119.75 L-8.75 -121.05 -9.0 -123.6 -9.25 -124.65 -10.05 -128.15 -10.05 -128.25 -10.25 -129.65 -10.75 -128.8 -11.95 -127.3 M-12.05 -116.4 L-13.65 -118.2 -13.7 -118.25 Q-15.05 -116.95 -16.65 -113.75 L-27.4 -93.35 Q-30.75 -86.7 -30.75 -80.95 -30.75 -76.15 -25.8 -69.4 -20.9 -62.6 -20.9 -59.05 -20.9 -57.05 -22.35 -53.1 -23.85 -49.15 -24.45 -40.5 L-25.75 -38.55 -27.9 -33.95 -27.45 -32.95 -29.4 -29.15 Q-30.55 -26.4 -30.55 -23.1 -30.55 -20.0 -28.2 -18.25 -25.8 -16.5 -19.9 -15.25 L-19.7 -17.65 -20.25 -21.95 Q-20.25 -23.55 -19.6 -25.55 -18.55 -28.8 -17.5 -35.05 L-14.75 -52.3 Q-14.15 -56.5 -14.15 -58.65 L-15.2 -63.45 Q-16.6 -68.2 -18.2 -68.2 -18.45 -68.2 -20.7 -71.35 -23.2 -74.8 -23.55 -76.4 L-23.6 -77.3 -23.8 -80.65 Q-23.8 -87.45 -17.55 -101.4 -14.4 -108.35 -11.05 -114.45 L-12.05 -116.4 M-20.15 -12.15 L-20.0 -13.1 -19.95 -14.4 Q-21.85 -14.5 -24.7 -15.25 -27.9 -16.1 -28.85 -17.05 L-29.05 -14.1 -29.4 -10.9 -29.6 -9.05 Q-29.6 -7.5 -27.95 -6.4 -26.3 -5.3 -24.0 -5.3 L-21.15 -3.9 -20.15 -12.15" fill="#0b3131" fill-rule="evenodd" stroke="none"/>
    <path d="M23.2 -127.8 Q24.75 -122.4 18.0 -122.15 L17.3 -122.15 16.75 -124.05 17.55 -124.15 Q20.8 -124.6 21.65 -125.85 L21.55 -127.35 23.2 -127.8 M1.35 -122.3 Q3.45 -123.05 5.65 -126.6 L5.75 -126.8 Q7.4 -129.6 8.1 -131.8 L8.2 -132.15 8.65 -131.6 9.25 -130.75 9.65 -130.05 10.6 -131.55 11.3 -128.5 10.1 -127.95 9.65 -129.95 7.5 -126.45 7.05 -125.85 6.65 -125.25 5.65 -123.9 4.6 -122.55 4.25 -122.9 Q2.5 -121.45 0.95 -120.85 L1.35 -122.3 M25.8 -17.4 L19.5 -16.5 7.75 -15.95 1.8 -16.05 -2.5 -16.3 -4.0 -17.7 -4.15 -17.85 Q-5.3 -18.95 -5.45 -19.45 L-5.5 -19.6 -5.45 -19.6 -4.25 -19.45 1.8 -18.85 5.3 -18.7 8.0 -18.65 18.15 -19.55 Q25.15 -20.8 25.2 -22.7 L26.6 -23.2 25.35 -26.75 Q26.05 -27.7 26.45 -29.15 26.45 -29.65 23.45 -32.15 L17.5 -49.05 13.55 -48.4 13.7 -47.35 6.85 -48.3 12.25 -52.75 Q14.65 -54.9 14.65 -56.95 14.65 -58.55 13.15 -59.9 11.6 -61.3 11.6 -61.55 L13.5 -72.9 Q13.5 -74.25 12.85 -74.55 L11.45 -75.15 11.55 -75.25 13.8 -77.95 Q13.8 -79.65 11.05 -80.35 7.15 -81.3 5.9 -82.25 8.0 -83.2 8.75 -86.65 9.1 -88.35 9.1 -90.35 9.1 -91.55 6.6 -97.4 L0.1 -112.4 0.05 -112.55 -0.25 -113.25 -1.0 -112.6 0.1 -117.5 4.5 -118.95 5.65 -118.85 Q6.3 -118.6 6.8 -117.95 7.7 -116.75 8.75 -113.5 L9.25 -111.7 9.65 -110.3 10.35 -107.75 10.8 -106.2 11.7 -103.1 11.9 -102.35 14.85 -91.8 Q15.55 -89.15 15.55 -86.95 15.55 -80.1 15.85 -79.35 L17.05 -75.5 Q17.6 -73.2 17.6 -71.7 L17.25 -68.55 16.85 -65.45 19.3 -62.7 Q21.7 -60.1 21.75 -58.75 L21.9 -54.8 23.0 -49.85 25.05 -43.05 Q26.25 -39.15 26.15 -36.4 26.1 -34.6 28.45 -28.9 L30.8 -23.35 28.95 -20.85 25.8 -17.4 M18.7 -117.4 L18.0 -119.65 22.95 -118.8 Q24.35 -114.9 22.0 -111.1 L20.95 -109.65 20.1 -112.55 Q21.25 -114.55 20.6 -116.4 L18.7 -117.4 M23.45 -30.45 L23.65 -29.8 24.7 -26.05 25.25 -23.25 22.65 -22.7 Q21.9 -26.1 20.6 -29.8 L20.4 -30.45 23.45 -30.45 M-2.4 -13.0 L-2.05 -12.95 -0.85 -12.85 1.2 -12.8 1.8 -12.75 3.15 -12.3 9.1 -12.0 24.15 -13.25 31.75 -13.05 32.2 -11.95 33.15 -8.75 34.35 -5.4 30.5 -4.4 28.7 -4.0 27.95 -7.75 27.2 -11.0 27.15 -11.05 17.7 -10.85 1.95 -10.3 1.8 -10.25 0.7 -10.05 -0.5 -10.2 -2.3 -10.1 -2.4 -13.0 M-8.2 -122.05 L-8.1 -122.2 -8.15 -121.8 -8.2 -122.05 M-11.95 -127.3 L-10.75 -128.8 -10.25 -129.65 -10.05 -128.25 -10.05 -128.15 -9.25 -124.65 -9.0 -123.6 -8.75 -121.05 -8.75 -119.75 Q-8.85 -117.2 -9.3 -114.55 L-9.6 -113.0 -9.7 -113.35 -9.8 -113.7 -10.55 -115.35 -11.55 -116.75 -12.3 -117.65 -13.15 -118.65 -14.35 -120.15 -14.3 -121.25 Q-14.2 -123.5 -13.5 -124.85 L-11.95 -127.3 M-10.5 -127.0 L-10.55 -127.05 -10.75 -126.7 -11.8 -124.15 -12.35 -122.3 -12.4 -122.2 -12.4 -121.85 Q-12.35 -120.05 -11.65 -119.5 L-9.8 -117.55 -9.55 -117.15 -9.35 -116.8 -9.05 -120.6 -9.6 -123.35 -10.5 -127.0 M-19.7 -17.65 Q-24.0 -19.5 -24.0 -27.2 L-22.75 -29.45 -21.05 -32.0 -19.8 -33.6 Q-19.2 -34.4 -19.2 -34.75 L-20.7 -39.95 Q-20.7 -44.65 -18.1 -48.85 -15.55 -53.05 -15.55 -56.4 -15.55 -63.9 -20.25 -69.4 L-23.5 -73.2 Q-24.95 -75.35 -24.95 -77.75 L-26.6 -79.5 Q-28.25 -81.25 -28.25 -81.8 -28.25 -89.4 -23.15 -99.0 -20.65 -103.8 -18.1 -107.05 -16.65 -109.1 -14.4 -113.65 -13.35 -115.45 -12.05 -116.4 L-11.05 -114.45 Q-14.4 -108.35 -17.55 -101.4 -23.8 -87.45 -23.8 -80.65 L-23.6 -77.3 -23.55 -76.4 Q-23.2 -74.8 -20.7 -71.35 -18.45 -68.2 -18.2 -68.2 -16.6 -68.2 -15.2 -63.45 L-14.15 -58.65 Q-14.15 -56.5 -14.75 -52.3 L-17.5 -35.05 Q-18.55 -28.8 -19.6 -25.55 -20.25 -23.55 -20.25 -21.95 L-19.7 -17.65 M-24.0 -5.3 Q-23.8 -5.6 -23.9 -6.5 L-24.05 -8.8 -23.0 -11.65 -20.15 -12.15 -21.15 -3.9 -24.0 -5.3" fill="#1d8383" fill-rule="evenodd" stroke="none"/>
    <path d="M21.0 -128.8 L23.35 -127.8 23.2 -127.8 21.55 -127.35 16.25 -126.4 16.05 -126.35 16.2 -127.7 21.0 -128.8 M5.1 -121.55 Q5.1 -121.2 3.75 -120.4 2.35 -119.6 0.5 -119.0 L0.8 -120.3 4.6 -122.55 5.1 -121.55 M2.1 -87.45 Q-0.05 -84.35 -5.4 -82.7 -6.4 -83.75 -5.35 -87.5 L-2.15 -98.65 -1.35 -102.75 Q1.95 -98.5 3.35 -95.35 4.2 -93.35 4.2 -92.15 4.2 -90.45 2.1 -87.45 M3.65 -77.9 Q6.85 -77.9 7.85 -76.9 8.75 -76.05 8.75 -73.6 8.75 -70.75 4.85 -68.15 L-2.7 -63.45 -2.9 -63.4 4.1 -63.05 7.9 -63.2 Q8.45 -63.05 8.45 -61.2 8.45 -59.05 7.3 -58.55 L3.7 -58.25 -3.4 -58.5 -4.4 -67.3 Q-4.5 -74.15 -1.9 -75.3 L1.9 -76.6 2.5 -77.4 Q2.9 -77.9 3.65 -77.9 M8.2 -53.85 Q6.85 -50.25 5.15 -46.75 L4.85 -46.15 4.35 -45.15 4.3 -44.8 Q5.3 -43.85 7.0 -44.25 8.75 -44.3 10.3 -43.4 12.15 -37.05 14.85 -31.05 L17.7 -24.5 Q12.05 -20.95 4.9 -22.0 L1.15 -22.4 Q-0.95 -22.1 -2.9 -22.75 -3.6 -23.0 -3.9 -23.6 -3.25 -26.35 -4.0 -29.2 L6.1 -28.8 Q1.0 -30.8 -1.1 -35.3 -1.95 -37.1 -1.95 -39.3 L-1.9 -49.7 Q2.5 -53.05 7.75 -54.4 L8.2 -53.85 M5.6 -1.65 L5.65 -5.4 5.85 -8.7 6.05 -9.95 6.75 -10.0 7.2 -9.1 7.3 -9.4 7.7 -9.9 8.0 -8.6 8.4 -5.35 8.55 -1.6 5.6 -1.65 M13.7 -1.9 L13.35 -7.95 13.45 -8.8 13.55 -8.8 14.45 -8.9 15.25 -5.75 15.55 -2.1 13.7 -1.9 M20.2 -2.85 L19.85 -8.45 21.5 -8.4 21.95 -3.1 19.85 -2.7 20.2 -2.85 M-2.3 -9.1 L-1.55 -9.15 -1.3 -9.15 Q-1.15 -8.55 -1.15 -5.8 L-1.1 -1.95 -2.1 -1.95 -2.3 -9.1" fill="#2cd1d1" fill-rule="evenodd" stroke="none"/>
  </g>
</svg>
