<?xml version="1.0" encoding="UTF-8" standalone="no"?>
<svg xmlns:ffdec="https://www.free-decompiler.com/flash" xmlns:xlink="http://www.w3.org/1999/xlink" ffdec:objectType="shape" height="140.95px" width="75.2px" xmlns="http://www.w3.org/2000/svg">
  <g transform="matrix(1.0, 0.0, 0.0, 1.0, 35.95, 138.9)">
    <path d="M7.75 -132.7 L8.4 -133.55 Q8.55 -133.8 9.0 -133.8 L9.2 -133.85 9.4 -133.8 Q10.3 -133.6 11.15 -131.5 12.15 -129.05 12.35 -125.2 L12.35 -123.8 7.4 -119.35 6.6 -118.2 Q5.35 -116.35 4.6 -114.7 3.8 -113.1 2.3 -106.7 L1.8 -104.55 0.7 -99.45 Q-0.05 -96.0 -0.25 -94.4 -0.7 -90.65 -4.55 -88.15 -5.45 -87.55 -6.5 -87.05 -8.2 -86.3 -10.25 -85.85 L-12.7 -85.45 -16.95 -85.2 -18.45 -85.25 -20.4 -85.55 -20.6 -85.6 Q-23.8 -86.2 -25.3 -87.35 -26.9 -88.6 -29.5 -91.9 -30.75 -93.5 -32.45 -98.7 L-32.05 -100.8 Q-31.7 -102.45 -31.7 -102.95 L-33.2 -105.3 Q-34.7 -107.65 -34.7 -109.35 -34.7 -111.25 -33.8 -113.4 L-33.85 -113.0 Q-33.85 -111.35 -33.0 -110.2 -32.2 -109.05 -31.05 -109.05 L-30.1 -108.8 -30.05 -108.8 Q-29.65 -102.8 -25.0 -103.4 L-21.45 -104.1 Q-19.6 -104.4 -19.0 -103.5 -19.6 -102.5 -23.7 -101.1 -27.55 -99.7 -27.55 -99.3 -27.55 -95.45 -25.25 -92.1 -23.2 -89.05 -20.1 -88.3 L-18.15 -88.05 -17.95 -88.05 -12.6 -88.45 -10.15 -88.95 -8.55 -89.4 Q-7.05 -89.85 -5.9 -90.4 -2.95 -91.85 -2.0 -93.8 -1.45 -94.95 -0.55 -101.3 L0.0 -105.95 Q0.4 -108.2 0.95 -110.2 1.8 -113.55 2.9 -116.2 L0.1 -112.4 -0.4 -111.85 Q-4.55 -107.0 -7.3 -106.8 L-7.5 -106.8 -8.15 -106.9 -8.15 -107.15 -8.2 -107.5 Q-7.65 -107.75 -7.05 -108.1 -4.95 -109.35 -2.9 -111.4 -0.2 -114.15 2.4 -118.25 L3.15 -119.5 3.95 -120.85 4.75 -122.25 5.45 -123.5 Q7.9 -128.35 8.05 -131.15 L8.05 -131.5 8.0 -132.25 7.9 -132.4 7.75 -132.7 M7.2 -117.1 L11.9 -121.7 13.0 -122.85 Q16.95 -108.95 20.25 -101.45 19.65 -107.75 18.4 -112.65 L18.65 -113.2 Q21.8 -107.7 27.6 -98.65 L32.6 -90.85 33.35 -89.4 Q34.05 -87.3 34.05 -83.6 34.05 -77.3 30.95 -73.65 28.35 -70.6 24.95 -70.6 L24.1 -70.65 24.0 -70.75 23.75 -68.15 Q26.95 -46.6 30.5 -39.35 L32.8 -35.25 33.05 -32.55 33.2 -30.2 Q33.4 -29.35 35.3 -25.1 L37.1 -20.75 Q37.1 -19.0 34.7 -16.9 31.75 -14.3 27.05 -13.8 32.15 -17.6 32.15 -19.75 L30.2 -24.75 Q28.2 -30.15 27.9 -32.55 27.5 -35.9 26.45 -38.35 24.7 -42.7 23.8 -45.55 23.55 -46.3 23.35 -50.05 23.2 -52.65 21.45 -54.95 L17.8 -59.05 17.75 -65.55 Q17.75 -70.15 16.55 -73.55 15.35 -77.05 15.2 -82.8 15.1 -88.7 10.7 -106.25 L9.2 -111.1 7.2 -117.05 7.2 -117.1 M-15.5 -13.25 Q-23.55 -12.45 -28.05 -16.1 -31.4 -18.8 -31.4 -21.95 -31.4 -24.1 -30.1 -26.95 L-26.85 -33.25 Q-26.25 -34.5 -24.5 -47.0 L-22.0 -61.9 -20.0 -72.05 Q-19.5 -74.15 -18.5 -84.5 L-12.7 -84.7 -12.9 -80.1 Q-12.9 -79.7 -13.65 -78.25 L-15.0 -75.65 Q-15.7 -74.1 -15.7 -70.1 L-16.45 -65.35 Q-17.2 -60.35 -17.2 -50.2 -17.2 -48.4 -19.4 -44.6 -21.65 -40.8 -21.65 -38.3 -21.65 -37.1 -20.75 -34.8 -19.85 -32.5 -19.85 -31.4 -19.85 -30.6 -22.2 -28.1 -24.55 -25.65 -24.55 -23.9 -24.55 -19.95 -22.2 -17.45 -20.3 -15.4 -15.5 -13.25 M-23.0 -4.3 Q-25.45 -4.3 -27.2 -5.35 -28.95 -6.45 -28.95 -7.95 L-29.3 -15.7 Q-27.65 -13.9 -18.65 -12.4 -8.2 -10.65 5.5 -10.65 L10.05 -10.75 10.05 -10.7 Q19.05 -10.75 27.15 -12.55 35.1 -14.3 36.55 -16.55 L37.3 -7.0 37.3 -5.75 Q37.25 -5.65 33.85 -4.25 L33.2 -7.2 32.6 -9.9 32.3 -11.0 25.25 -10.0 12.6 -8.6 5.5 -8.25 5.5 -8.6 -11.4 -9.9 -22.35 -10.2 -22.95 -9.1 -23.35 -7.5 -23.0 -4.3 M-15.6 -125.7 Q-13.65 -127.3 -12.75 -127.3 L-12.15 -127.15 -12.2 -126.85 Q-13.15 -124.75 -16.85 -121.65 L-26.75 -113.05 -26.95 -113.3 Q-26.5 -115.35 -25.75 -116.5 -24.8 -117.85 -22.05 -120.2 L-15.6 -125.7 M-14.25 -122.6 Q-14.2 -122.0 -15.5 -120.7 L-20.25 -116.6 -20.5 -116.85 Q-18.95 -120.1 -14.25 -122.6" fill="#125a5a" fill-rule="evenodd" stroke="none"/>
    <path d="M1.7 -136.25 L1.7 -135.85 -0.85 -134.55 Q-3.5 -133.15 -4.0 -132.5 -4.55 -131.8 -5.2 -129.25 L-5.75 -126.7 Q-5.75 -124.65 -5.15 -123.7 -4.6 -122.8 -3.4 -122.8 0.85 -122.8 3.75 -129.05 5.3 -132.5 5.95 -133.4 7.35 -135.35 9.25 -135.35 11.0 -135.35 12.1 -132.95 L13.45 -129.3 15.75 -122.15 16.5 -119.95 16.9 -119.95 Q16.75 -119.9 16.85 -119.65 L17.5 -117.8 20.35 -112.75 29.5 -98.25 32.0 -94.4 Q33.2 -92.4 34.2 -89.7 35.6 -85.75 35.6 -82.25 35.6 -75.8 30.95 -70.7 L27.7 -66.95 Q26.25 -64.65 26.25 -61.85 26.25 -60.5 26.85 -59.1 27.6 -57.35 28.05 -53.55 30.3 -43.6 31.95 -40.55 32.95 -38.65 33.5 -35.2 34.05 -31.45 34.7 -29.9 36.25 -26.2 38.1 -23.25 39.25 -21.45 39.25 -20.55 L37.95 -14.5 38.55 -9.65 38.6 -7.7 Q38.65 -2.6 25.1 0.15 15.8 2.05 7.65 2.05 -1.65 2.05 -15.0 -0.8 -31.4 -4.35 -30.5 -8.8 L-30.35 -14.95 Q-30.4 -15.65 -31.7 -18.05 L-32.95 -20.95 Q-32.95 -25.6 -30.45 -29.8 L-27.6 -34.8 Q-26.25 -40.7 -24.55 -53.8 L-23.25 -62.3 -21.35 -76.5 -20.5 -84.55 Q-25.45 -85.0 -28.85 -88.3 -32.2 -91.6 -33.45 -97.1 L-33.85 -100.9 Q-34.1 -103.3 -34.8 -104.35 -35.95 -106.05 -35.95 -109.15 -35.95 -114.8 -32.4 -118.75 -30.35 -121.05 -21.9 -127.05 -13.8 -132.85 -9.15 -135.5 -3.15 -138.9 0.1 -138.9 L0.95 -138.8 1.55 -138.8 1.6 -138.5 2.15 -137.8 2.4 -136.55 1.7 -136.25 M-33.8 -113.4 Q-34.7 -111.25 -34.7 -109.35 -34.7 -107.65 -33.2 -105.3 L-31.7 -102.95 Q-31.7 -102.45 -32.05 -100.8 L-32.45 -98.7 Q-30.75 -93.5 -29.5 -91.9 -26.9 -88.6 -25.3 -87.35 -23.8 -86.2 -20.6 -85.6 L-20.4 -85.55 -18.45 -85.25 -16.95 -85.2 -12.7 -85.45 -10.25 -85.85 Q-8.2 -86.3 -6.5 -87.05 -5.45 -87.55 -4.55 -88.15 -0.7 -90.65 -0.25 -94.4 -0.05 -96.0 0.7 -99.45 L1.8 -104.55 2.3 -106.7 Q3.8 -113.1 4.6 -114.7 5.35 -116.35 6.6 -118.2 L7.4 -119.35 12.35 -123.8 12.35 -125.2 Q12.15 -129.05 11.15 -131.5 10.3 -133.6 9.4 -133.8 L9.2 -133.85 9.0 -133.8 Q8.55 -133.8 8.4 -133.55 L7.75 -132.7 6.2 -130.15 6.15 -130.05 0.5 -121.85 0.2 -121.4 -0.5 -120.35 -0.8 -119.95 -2.05 -118.25 -3.0 -117.0 -3.1 -116.85 Q-5.05 -114.45 -6.1 -113.75 -7.45 -112.85 -9.6 -112.1 -11.9 -111.35 -15.05 -110.8 L-15.6 -110.7 -17.4 -110.45 Q-23.15 -109.8 -28.75 -110.4 L-31.0 -111.2 Q-31.95 -111.5 -31.95 -112.8 -31.95 -116.95 -19.15 -125.6 L-9.25 -131.9 -7.15 -133.2 -1.65 -136.5 -1.65 -136.7 -1.85 -136.95 -2.7 -137.05 -3.65 -136.95 -5.2 -136.45 Q-9.85 -134.8 -19.4 -128.0 -32.85 -118.5 -33.8 -113.4 M27.05 -13.8 Q31.75 -14.3 34.7 -16.9 37.1 -19.0 37.1 -20.75 L35.3 -25.1 Q33.4 -29.35 33.2 -30.2 L33.05 -32.55 32.8 -35.25 30.5 -39.35 Q26.95 -46.6 23.75 -68.15 L24.0 -70.75 24.1 -70.65 24.95 -70.6 Q28.35 -70.6 30.95 -73.65 34.05 -77.3 34.05 -83.6 34.05 -87.3 33.35 -89.4 L32.6 -90.85 27.6 -98.65 Q21.8 -107.7 18.65 -113.2 L18.4 -112.65 Q19.65 -107.75 20.25 -101.45 16.95 -108.95 13.0 -122.85 L11.9 -121.7 7.2 -117.1 6.05 -116.0 Q4.9 -114.85 3.45 -108.55 L2.75 -105.55 1.85 -100.7 1.45 -98.05 0.5 -92.8 Q-0.25 -89.4 -1.8 -87.8 -3.2 -86.35 -6.7 -85.5 L-10.1 -84.95 -12.7 -84.7 -18.5 -84.5 Q-19.5 -74.15 -20.0 -72.05 L-22.0 -61.9 -24.5 -47.0 Q-26.25 -34.5 -26.85 -33.25 L-30.1 -26.95 Q-31.4 -24.1 -31.4 -21.95 -31.4 -18.8 -28.05 -16.1 -23.55 -12.45 -15.5 -13.25 L3.55 -11.75 10.05 -11.95 10.05 -11.85 21.2 -12.9 Q26.2 -13.4 27.05 -13.8 M33.85 -4.25 Q37.25 -5.65 37.3 -5.75 L37.3 -7.0 36.55 -16.55 Q35.1 -14.3 27.15 -12.55 19.05 -10.75 10.05 -10.7 L10.05 -10.75 5.5 -10.65 Q-8.2 -10.65 -18.65 -12.4 -27.65 -13.9 -29.3 -15.7 L-28.95 -7.95 Q-28.95 -6.45 -27.2 -5.35 -25.45 -4.3 -23.0 -4.3 -21.4 -3.2 -18.75 -2.55 L-16.25 -2.1 -12.45 -1.05 -11.15 -0.75 -8.0 -0.2 -6.1 0.05 -1.4 0.45 0.7 0.5 6.3 0.65 9.15 0.65 14.15 0.3 16.0 0.25 20.55 -0.4 20.2 -0.25 22.25 -0.7 25.95 -1.35 28.6 -2.05 30.3 -2.65 Q32.2 -3.4 33.85 -4.25 M-15.6 -125.7 L-22.05 -120.2 Q-24.8 -117.85 -25.75 -116.5 -26.5 -115.35 -26.95 -113.3 L-26.75 -113.05 -16.85 -121.65 Q-13.15 -124.75 -12.2 -126.85 L-12.15 -127.15 -12.75 -127.3 Q-13.65 -127.3 -15.6 -125.7 M-14.25 -122.6 Q-18.95 -120.1 -20.5 -116.85 L-20.25 -116.6 -15.5 -120.7 Q-14.2 -122.0 -14.25 -122.6" fill="#0b3131" fill-rule="evenodd" stroke="none"/>
    <path d="M7.75 -132.7 L7.9 -132.4 8.0 -132.25 8.05 -131.5 8.05 -131.15 Q7.9 -128.35 5.45 -123.5 L4.75 -122.25 3.95 -120.85 3.15 -119.5 2.4 -118.25 Q-0.2 -114.15 -2.9 -111.4 -4.95 -109.35 -7.05 -108.1 -7.65 -107.75 -8.2 -107.5 L-8.15 -107.15 -8.15 -106.9 -7.5 -106.8 -7.3 -106.8 Q-4.55 -107.0 -0.4 -111.85 L0.1 -112.4 2.9 -116.2 Q1.8 -113.55 0.95 -110.2 0.4 -108.2 0.0 -105.95 L-0.55 -101.3 Q-1.45 -94.95 -2.0 -93.8 -2.95 -91.85 -5.9 -90.4 -7.05 -89.85 -8.55 -89.4 L-10.15 -88.95 -12.6 -88.45 -17.95 -88.05 -18.15 -88.05 -20.1 -88.3 Q-23.2 -89.05 -25.25 -92.1 -27.55 -95.45 -27.55 -99.3 -27.55 -99.7 -23.7 -101.1 -19.6 -102.5 -19.0 -103.5 -19.6 -104.4 -21.45 -104.1 L-25.0 -103.4 Q-29.65 -102.8 -30.05 -108.8 L-28.75 -108.6 -28.3 -106.9 Q-27.55 -105.7 -25.15 -105.7 -22.45 -105.7 -18.1 -106.6 L-16.25 -107.05 -12.95 -107.9 -10.15 -108.75 Q-2.95 -111.15 -2.35 -114.0 -2.55 -114.4 -3.1 -114.4 L-0.8 -117.2 0.7 -119.3 1.6 -120.85 1.85 -121.35 2.25 -122.2 2.6 -123.0 Q4.55 -127.45 6.15 -130.05 L6.2 -130.15 7.75 -132.7 M7.2 -117.1 L7.2 -117.05 9.2 -111.1 10.7 -106.25 Q15.1 -88.7 15.2 -82.8 15.35 -77.05 16.55 -73.55 17.75 -70.15 17.75 -65.55 L17.8 -59.05 21.45 -54.95 Q23.2 -52.65 23.35 -50.05 23.55 -46.3 23.8 -45.55 24.7 -42.7 26.45 -38.35 27.5 -35.9 27.9 -32.55 28.2 -30.15 30.2 -24.75 L32.15 -19.75 Q32.15 -17.6 27.05 -13.8 26.2 -13.4 21.2 -12.9 L10.05 -11.85 10.05 -11.95 3.55 -11.75 -15.5 -13.25 Q-20.3 -15.4 -22.2 -17.45 -24.55 -19.95 -24.55 -23.9 -24.55 -25.65 -22.2 -28.1 -19.85 -30.6 -19.85 -31.4 -19.85 -32.5 -20.75 -34.8 -21.65 -37.1 -21.65 -38.3 -21.65 -40.8 -19.4 -44.6 -17.2 -48.4 -17.2 -50.2 -17.2 -60.35 -16.45 -65.35 L-15.7 -70.1 Q-15.7 -74.1 -15.0 -75.65 L-13.65 -78.25 Q-12.9 -79.7 -12.9 -80.1 L-12.7 -84.7 -10.1 -84.95 -9.85 -83.1 -9.35 -79.6 -10.35 -69.2 -11.35 -58.75 Q-11.35 -53.55 -10.2 -52.2 -8.8 -50.55 -2.15 -48.7 -3.95 -48.1 -8.7 -47.45 -10.7 -47.15 -10.95 -45.2 L-11.6 -37.9 -11.8 -33.35 Q-11.8 -33.0 -9.9 -32.15 -7.65 -31.2 -6.5 -29.45 -8.8 -27.75 -12.75 -26.5 -15.3 -25.75 -15.3 -24.35 -15.3 -19.2 -11.05 -16.75 -6.65 -14.2 2.6 -14.2 L19.5 -15.25 Q26.8 -16.4 26.8 -18.6 26.8 -20.85 25.45 -21.7 23.0 -23.2 15.65 -22.65 L15.4 -25.75 Q15.4 -26.45 18.7 -27.95 21.95 -29.5 21.95 -30.0 21.95 -37.2 17.45 -39.85 15.0 -41.25 7.7 -42.15 L8.15 -42.4 Q9.9 -43.25 12.45 -45.55 15.8 -48.5 15.8 -50.35 15.8 -52.3 14.25 -53.7 12.7 -55.15 12.7 -55.4 L13.35 -60.5 14.0 -67.65 Q14.0 -69.1 12.05 -70.2 L14.0 -73.5 Q14.0 -75.85 11.2 -76.8 L6.15 -78.1 Q9.4 -81.1 9.4 -87.2 9.4 -88.45 2.75 -105.55 L3.45 -108.55 Q4.9 -114.85 6.05 -116.0 L7.2 -117.1 M33.85 -4.25 Q32.2 -3.4 30.3 -2.65 L28.6 -2.05 28.35 -5.45 28.15 -7.3 27.95 -8.2 26.5 -8.2 16.25 -7.15 7.6 -6.7 7.3 -6.75 6.85 -6.7 4.2 -6.6 -3.95 -6.35 -13.05 -7.9 -13.95 -7.85 Q-14.8 -7.85 -15.4 -7.15 -16.05 -6.45 -16.05 -5.5 -15.85 -4.45 -15.95 -3.05 L-16.0 -3.05 -16.25 -2.1 -18.75 -2.55 Q-21.4 -3.2 -23.0 -4.3 L-23.35 -7.5 -22.95 -9.1 -22.35 -10.2 -11.4 -9.9 5.5 -8.6 5.5 -8.25 12.6 -8.6 25.25 -10.0 32.3 -11.0 32.6 -9.9 33.2 -7.2 33.85 -4.25 M-18.9 -101.35 L-19.9 -100.95 Q-24.0 -99.25 -25.5 -97.1 -25.5 -94.5 -23.0 -91.95 -21.45 -90.35 -19.95 -89.8 L-18.5 -89.55 -18.05 -89.55 -12.55 -89.7 -11.05 -89.9 -9.95 -90.1 Q-7.8 -90.7 -5.5 -91.95 L-5.05 -92.25 Q-4.05 -92.85 -3.0 -97.35 L-2.0 -101.7 Q-1.55 -101.7 -1.4 -102.25 L-1.3 -103.0 -1.35 -105.1 Q-1.35 -106.4 -2.0 -107.2 L-2.7 -107.3 Q-4.85 -104.75 -7.1 -102.8 L-8.05 -101.95 -11.75 -99.55 Q-13.3 -98.85 -14.65 -98.8 -14.15 -100.25 -12.4 -102.25 L-11.0 -103.85 -10.15 -105.1 -10.2 -105.55 -10.05 -105.65 -10.7 -105.8 Q-14.2 -103.7 -16.85 -102.35 L-18.9 -101.35" fill="#1d8383" fill-rule="evenodd" stroke="none"/>
    <path d="M-30.1 -108.8 L-31.05 -109.05 Q-32.2 -109.05 -33.0 -110.2 -33.85 -111.35 -33.85 -113.0 L-33.8 -113.4 Q-32.85 -118.5 -19.4 -128.0 -9.85 -134.8 -5.2 -136.45 L-3.65 -136.95 -2.7 -137.05 -1.85 -136.95 -1.65 -136.7 -1.65 -136.5 -7.15 -133.2 -9.25 -131.9 -19.15 -125.6 Q-31.95 -116.95 -31.95 -112.8 -31.95 -111.5 -31.0 -111.2 L-28.75 -110.4 -30.1 -108.8 M-10.1 -84.95 L-6.7 -85.5 -6.85 -83.05 Q-6.85 -81.0 -6.35 -79.5 -5.75 -77.7 -4.7 -77.7 -2.25 -77.7 1.0 -81.55 4.35 -85.55 4.35 -89.05 4.35 -91.5 2.4 -96.0 L1.45 -98.05 1.85 -100.7 2.75 -105.55 Q9.4 -88.45 9.4 -87.2 9.4 -81.1 6.15 -78.1 L11.2 -76.8 Q14.0 -75.85 14.0 -73.5 L12.05 -70.2 Q14.0 -69.1 14.0 -67.65 L13.35 -60.5 12.7 -55.4 Q12.7 -55.15 14.25 -53.7 15.8 -52.3 15.8 -50.35 15.8 -48.5 12.45 -45.55 9.9 -43.25 8.15 -42.4 L7.7 -42.15 Q15.0 -41.25 17.45 -39.85 21.95 -37.2 21.95 -30.0 21.95 -29.5 18.7 -27.95 15.4 -26.45 15.4 -25.75 L15.65 -22.65 Q23.0 -23.2 25.45 -21.7 26.8 -20.85 26.8 -18.6 26.8 -16.4 19.5 -15.25 L2.6 -14.2 Q-6.65 -14.2 -11.05 -16.75 -15.3 -19.2 -15.3 -24.35 -15.3 -25.75 -12.75 -26.5 -8.8 -27.75 -6.5 -29.45 -7.65 -31.2 -9.9 -32.15 -11.8 -33.0 -11.8 -33.35 L-11.6 -37.9 -10.95 -45.2 Q-10.7 -47.15 -8.7 -47.45 -3.95 -48.1 -2.15 -48.7 -8.8 -50.55 -10.2 -52.2 -11.35 -53.55 -11.35 -58.75 L-10.35 -69.2 -9.35 -79.6 -9.85 -83.1 -10.1 -84.95 M-3.1 -114.4 Q-2.55 -114.4 -2.35 -114.0 -2.95 -111.15 -10.15 -108.75 L-12.95 -107.9 -16.25 -107.05 -18.1 -106.6 Q-22.45 -105.7 -25.15 -105.7 -27.55 -105.7 -28.3 -106.9 L-28.75 -108.6 -24.7 -108.5 -17.7 -108.95 -15.9 -109.15 Q-12.55 -109.65 -9.85 -110.55 -5.55 -111.95 -3.1 -114.4 M15.1 -18.15 Q18.05 -18.9 19.05 -19.8 L9.35 -21.35 3.35 -22.15 -5.65 -24.65 -9.6 -25.75 -10.8 -25.6 -11.1 -24.95 -11.2 -24.15 Q-11.2 -21.25 -5.95 -19.15 0.2 -16.65 10.05 -17.5 L10.05 -17.45 15.1 -18.15 M11.75 -31.65 Q16.65 -31.65 19.25 -33.7 18.65 -37.0 12.95 -38.85 6.8 -40.8 -4.7 -40.8 -7.05 -40.8 -7.05 -35.7 -7.05 -32.75 -2.95 -32.6 2.45 -32.9 4.9 -32.5 L3.15 -32.05 11.75 -31.65 M5.55 -62.8 Q9.65 -65.9 9.65 -68.15 9.65 -76.55 0.9 -71.35 -2.0 -69.6 -5.15 -66.8 L-7.9 -64.05 -8.0 -57.95 Q-8.0 -55.45 -7.25 -54.35 -5.75 -52.2 3.75 -52.2 L7.9 -52.55 Q9.45 -53.15 9.45 -55.2 L9.4 -57.2 4.9 -57.2 -1.95 -57.55 -1.75 -57.65 5.55 -62.8 M28.6 -2.05 L25.95 -1.35 22.25 -0.7 22.3 -5.45 20.6 -5.45 20.55 -0.4 16.0 0.25 15.9 -2.9 15.25 -5.7 14.35 -5.6 Q14.05 -4.9 14.05 -3.9 L14.15 -2.8 14.15 0.3 9.15 0.65 9.05 -2.6 8.75 -5.4 8.45 -6.4 8.15 -6.2 8.0 -6.3 7.6 -6.7 16.25 -7.15 26.5 -8.2 27.95 -8.2 28.15 -7.3 28.35 -5.45 28.6 -2.05 M6.3 0.65 L0.7 0.5 0.6 -2.85 0.4 -5.7 0.2 -5.75 -1.0 -5.8 Q-1.35 -5.1 -1.45 -3.0 L-1.5 -3.0 -1.4 0.45 -6.1 0.05 -6.3 -5.7 -7.45 -6.15 -8.0 -0.2 -11.15 -0.75 -11.15 -4.55 Q-11.25 -5.3 -11.6 -5.85 L-12.0 -4.75 -11.85 -4.7 -12.05 -4.7 -12.45 -1.05 -16.25 -2.1 -16.0 -3.05 -15.95 -3.05 Q-15.85 -4.45 -16.05 -5.5 -16.05 -6.45 -15.4 -7.15 -14.8 -7.85 -13.95 -7.85 L-13.05 -7.9 -3.95 -6.35 4.2 -6.6 6.85 -6.7 6.65 -6.55 6.65 -6.4 6.3 0.65 M-18.9 -101.35 L-16.85 -102.35 Q-14.2 -103.7 -10.7 -105.8 L-10.05 -105.65 -10.2 -105.55 -10.15 -105.1 -11.0 -103.85 -12.4 -102.25 Q-14.15 -100.25 -14.65 -98.8 -13.3 -98.85 -11.75 -99.55 L-8.05 -101.95 -7.1 -102.8 Q-4.85 -104.75 -2.7 -107.3 L-2.0 -107.2 Q-1.35 -106.4 -1.35 -105.1 L-1.3 -103.0 -1.4 -102.25 Q-1.55 -101.7 -2.0 -101.7 L-3.0 -97.35 Q-4.05 -92.85 -5.05 -92.25 L-5.5 -91.95 Q-7.8 -90.7 -9.95 -90.1 L-11.05 -89.9 -12.55 -89.7 -18.05 -89.55 -18.5 -89.55 -19.95 -89.8 Q-21.45 -90.35 -23.0 -91.95 -25.5 -94.5 -25.5 -97.1 -24.0 -99.25 -19.9 -100.95 L-18.9 -101.35 M-17.0 -101.3 L-19.05 -99.7 -20.1 -98.8 Q-22.15 -96.85 -22.15 -95.1 -22.15 -93.75 -21.05 -92.85 L-19.75 -92.15 -18.05 -91.9 -17.85 -91.9 -12.45 -92.55 Q-10.8 -93.0 -9.4 -93.75 -7.55 -94.7 -6.15 -96.15 -3.25 -99.1 -3.25 -101.75 L-3.35 -102.5 -3.65 -102.5 -8.6 -98.55 -8.7 -98.5 Q-10.45 -97.15 -12.15 -96.4 -14.5 -95.35 -16.75 -95.35 L-17.5 -95.45 -18.35 -96.2 -17.3 -97.85 -16.95 -98.45 Q-16.05 -99.9 -15.7 -101.5 L-16.25 -101.85 -17.0 -101.3" fill="#23abab" fill-rule="evenodd" stroke="none"/>
    <path d="M-30.05 -108.8 L-30.1 -108.8 -28.75 -110.4 Q-23.15 -109.8 -17.4 -110.45 L-15.6 -110.7 -15.05 -110.8 Q-11.9 -111.35 -9.6 -112.1 -7.45 -112.85 -6.1 -113.75 -5.05 -114.45 -3.1 -116.85 L-3.0 -117.0 -2.05 -118.25 -0.8 -119.95 -0.5 -120.35 0.2 -121.4 0.5 -121.85 6.15 -130.05 Q4.55 -127.45 2.6 -123.0 L2.25 -122.2 1.85 -121.35 1.6 -120.85 0.7 -119.3 -0.8 -117.2 -3.1 -114.4 Q-5.55 -111.95 -9.85 -110.55 -12.55 -109.65 -15.9 -109.15 L-17.7 -108.95 -24.7 -108.5 -28.75 -108.6 -30.05 -108.8 M-6.7 -85.5 Q-3.2 -86.35 -1.8 -87.8 -0.25 -89.4 0.5 -92.8 L1.45 -98.05 2.4 -96.0 Q4.35 -91.5 4.35 -89.05 4.35 -85.55 1.0 -81.55 -2.25 -77.7 -4.7 -77.7 -5.75 -77.7 -6.35 -79.5 -6.85 -81.0 -6.85 -83.05 L-6.7 -85.5 M5.55 -62.8 L-1.75 -57.65 -1.95 -57.55 4.9 -57.2 9.4 -57.2 9.45 -55.2 Q9.45 -53.15 7.9 -52.55 L3.75 -52.2 Q-5.75 -52.2 -7.25 -54.35 -8.0 -55.45 -8.0 -57.95 L-7.9 -64.05 -5.15 -66.8 Q-2.0 -69.6 0.9 -71.35 9.65 -76.55 9.65 -68.15 9.65 -65.9 5.55 -62.8 M11.75 -31.65 L3.15 -32.05 4.9 -32.5 Q2.45 -32.9 -2.95 -32.6 -7.05 -32.75 -7.05 -35.7 -7.05 -40.8 -4.7 -40.8 6.8 -40.8 12.95 -38.85 18.65 -37.0 19.25 -33.7 16.65 -31.65 11.75 -31.65 M15.1 -18.15 L10.05 -17.45 10.05 -17.5 Q0.2 -16.65 -5.95 -19.15 -11.2 -21.25 -11.2 -24.15 L-11.1 -24.95 -10.8 -25.6 -9.6 -25.75 -5.65 -24.65 3.35 -22.15 9.35 -21.35 19.05 -19.8 Q18.05 -18.9 15.1 -18.15 M22.25 -0.7 L20.2 -0.25 20.55 -0.4 20.6 -5.45 22.3 -5.45 22.25 -0.7 M16.0 0.25 L14.15 0.3 14.15 -2.8 14.05 -3.9 Q14.05 -4.9 14.35 -5.6 L15.25 -5.7 15.9 -2.9 16.0 0.25 M9.15 0.65 L6.3 0.65 6.65 -6.4 6.65 -6.55 6.85 -6.7 7.3 -6.75 7.6 -6.7 8.0 -6.3 8.15 -6.2 8.45 -6.4 8.75 -5.4 9.05 -2.6 9.15 0.65 M0.7 0.5 L-1.4 0.45 -1.5 -3.0 -1.45 -3.0 Q-1.35 -5.1 -1.0 -5.8 L0.2 -5.75 0.4 -5.7 0.6 -2.85 0.7 0.5 M-6.1 0.05 L-8.0 -0.2 -7.45 -6.15 -6.3 -5.7 -6.1 0.05 M-11.15 -0.75 L-12.45 -1.05 -12.05 -4.7 -11.85 -4.7 -12.0 -4.75 -11.6 -5.85 Q-11.25 -5.3 -11.15 -4.55 L-11.15 -0.75 M-17.0 -101.3 L-16.25 -101.85 -15.7 -101.5 Q-16.05 -99.9 -16.95 -98.45 L-17.3 -97.85 -18.35 -96.2 -17.5 -95.45 -16.75 -95.35 Q-14.5 -95.35 -12.15 -96.4 -10.45 -97.15 -8.7 -98.5 L-8.6 -98.55 -3.65 -102.5 -3.35 -102.5 -3.25 -101.75 Q-3.25 -99.1 -6.15 -96.15 -7.55 -94.7 -9.4 -93.75 -10.8 -93.0 -12.45 -92.55 L-17.85 -91.9 -18.05 -91.9 -19.75 -92.15 -21.05 -92.85 Q-22.15 -93.75 -22.15 -95.1 -22.15 -96.85 -20.1 -98.8 L-19.05 -99.7 -17.0 -101.3" fill="#2cd1d1" fill-rule="evenodd" stroke="none"/>
  </g>
</svg>
