<?xml version="1.0" encoding="UTF-8" standalone="no"?>
<svg xmlns:ffdec="https://www.free-decompiler.com/flash" xmlns:xlink="http://www.w3.org/1999/xlink" ffdec:objectType="shape" height="121.25px" width="66.1px" xmlns="http://www.w3.org/2000/svg">
  <g transform="matrix(1.0, 0.0, 0.0, 1.0, 0.0, 0.0)">
    <path d="M64.55 24.3 Q65.4 26.1 65.4 27.65 L65.2 29.25 65.0 30.85 65.15 32.55 66.1 38.85 65.6 42.75 63.25 46.5 62.55 50.1 58.55 56.5 56.5 60.25 Q54.75 63.25 54.0 63.25 53.7 63.25 53.05 65.5 52.3 68.1 51.3 69.1 50.0 70.45 49.35 74.35 48.85 77.05 48.85 79.5 L49.2 84.25 48.85 88.8 48.2 95.05 48.95 98.75 Q49.7 102.05 49.7 103.85 49.7 109.25 45.85 114.75 41.9 120.45 37.55 120.45 L35.3 120.85 31.7 121.25 29.35 121.0 28.15 120.75 26.3 120.05 Q24.0 119.3 22.25 117.9 L20.55 116.05 18.85 113.9 Q17.75 112.4 16.55 108.65 14.95 103.6 14.95 98.75 14.95 95.0 16.4 90.7 L17.85 86.2 Q17.85 82.15 16.45 75.3 14.95 68.35 13.6 66.1 9.2 58.5 3.3 50.75 1.4 48.3 0.85 47.15 0.0 45.6 0.0 43.8 0.0 34.1 1.0 29.35 2.05 24.05 4.85 21.5 L7.25 19.1 Q8.1 17.95 8.85 16.05 9.45 14.65 11.35 12.65 13.45 10.45 15.45 9.45 23.45 5.4 26.15 4.75 L27.5 4.55 28.75 4.2 32.85 1.85 Q34.55 0.8 37.45 0.25 42.7 -0.7 47.05 1.8 51.95 4.65 53.45 10.9 L55.95 13.15 Q58.7 15.35 61.3 19.1 L64.55 24.3 M51.2 9.5 Q50.55 7.5 49.6 6.15 46.4 1.7 38.35 1.7 36.2 1.7 32.75 3.85 29.35 6.0 28.15 6.0 26.7 6.0 21.4 8.3 16.2 10.55 14.75 11.7 9.9 15.6 8.65 19.85 L7.1 21.5 5.55 22.85 4.15 25.0 2.8 27.2 1.6 32.8 Q1.95 35.35 1.95 38.4 L1.25 43.15 Q1.25 45.7 4.1 49.3 L10.25 57.05 Q19.25 69.65 19.25 87.75 19.25 88.3 17.9 90.95 16.5 94.4 16.5 98.75 L16.7 102.05 Q17.1 105.95 18.3 109.2 22.05 119.65 31.9 119.65 39.4 119.65 43.85 114.6 48.05 109.85 48.05 102.65 48.05 101.2 47.3 98.7 46.55 96.2 46.55 94.5 L47.1 89.65 47.65 84.6 47.2 78.85 47.7 76.65 Q48.25 73.85 48.25 70.55 48.25 70.1 49.55 68.7 L51.35 66.55 51.7 64.8 Q51.85 63.4 52.15 63.05 L54.4 60.65 Q55.85 58.95 56.45 57.15 57.05 55.3 59.3 52.45 61.3 49.9 61.7 47.95 62.45 43.85 63.65 41.8 64.55 40.3 64.55 38.35 L64.0 35.2 Q63.45 32.35 63.45 31.3 L63.65 29.5 63.9 27.7 Q63.9 24.75 59.4 19.2 55.75 14.7 51.95 11.55 L51.2 9.5" fill="#000000" fill-rule="evenodd" stroke="none"/>
    <path d="M51.2 9.5 L51.95 11.55 Q55.75 14.7 59.4 19.2 63.9 24.75 63.9 27.7 L63.65 29.5 63.45 31.3 Q63.45 32.35 64.0 35.2 L64.55 38.35 Q64.55 40.3 63.65 41.8 62.45 43.85 61.7 47.95 61.3 49.9 59.3 52.45 57.05 55.3 56.45 57.15 55.85 58.95 54.4 60.65 L52.15 63.05 Q51.85 63.4 51.7 64.8 L51.35 66.55 49.55 68.7 Q48.25 70.1 48.25 70.55 48.25 73.85 47.7 76.65 L47.2 78.85 47.65 84.6 47.1 89.65 46.55 94.5 Q46.55 96.2 47.3 98.7 48.05 101.2 48.05 102.65 48.05 109.85 43.85 114.6 39.4 119.65 31.9 119.65 22.05 119.65 18.3 109.2 17.1 105.95 16.7 102.05 L16.5 98.75 Q16.5 94.4 17.9 90.95 19.25 88.3 19.25 87.75 19.25 69.65 10.25 57.05 L4.1 49.3 Q1.25 45.7 1.25 43.15 L1.95 38.4 Q1.95 35.35 1.6 32.8 L2.8 27.2 4.15 25.0 5.55 22.85 7.1 21.5 8.65 19.85 Q9.9 15.6 14.75 11.7 16.2 10.55 21.4 8.3 26.7 6.0 28.15 6.0 29.35 6.0 32.75 3.85 36.2 1.7 38.35 1.7 46.4 1.7 49.6 6.15 50.55 7.5 51.2 9.5 M45.65 67.3 L45.15 64.85 44.95 63.7 Q44.95 63.0 48.6 60.75 L53.5 57.7 Q51.55 56.15 54.8 52.7 L57.3 50.1 Q58.6 48.65 58.7 47.9 58.9 45.1 60.65 43.0 62.35 41.05 62.35 39.6 62.35 37.65 61.45 34.15 L60.55 30.55 Q60.55 29.75 61.05 28.55 L61.55 27.15 60.4 24.75 57.6 20.05 Q53.1 13.5 50.05 13.5 49.6 13.5 48.7 13.85 L47.9 14.15 47.55 13.85 47.3 13.4 Q47.3 12.95 47.95 11.5 L48.55 9.95 Q48.55 5.75 45.3 4.2 43.2 3.15 38.35 3.05 32.7 3.05 32.15 5.7 L32.1 7.8 Q32.1 8.95 31.5 9.35 27.95 7.85 27.25 7.85 27.0 7.85 22.8 9.95 18.1 12.35 14.7 14.3 13.85 14.75 9.85 21.5 6.45 27.3 5.65 27.95 L5.65 28.0 4.85 29.25 Q3.8 31.35 3.8 33.8 3.8 39.7 5.65 41.65 L7.45 43.45 8.25 44.75 Q6.6 44.9 6.6 46.7 6.6 47.1 7.55 48.15 8.5 49.3 9.05 49.3 L9.9 49.05 Q11.8 53.5 16.7 58.5 L17.05 58.85 16.9 59.05 Q16.45 59.85 16.45 60.75 16.45 61.3 17.1 61.95 17.75 62.7 18.5 62.7 L19.65 62.55 20.4 62.4 20.45 62.2 Q22.05 63.9 22.05 64.65 L21.65 65.9 Q21.2 66.95 21.2 68.05 22.0 67.6 22.45 67.6 L22.65 67.65 22.7 68.1 21.85 69.9 Q21.0 71.45 21.0 72.65 L21.4 82.45 Q21.4 90.05 21.65 93.85 L21.85 97.3 22.2 99.35 Q22.35 101.2 21.25 101.65 L21.15 101.65 Q20.8 101.2 20.1 93.9 L20.0 94.4 19.05 96.9 Q18.3 99.0 18.3 99.75 L18.4 101.05 18.5 103.2 Q18.55 105.1 19.0 106.25 19.5 107.55 20.35 107.55 21.0 107.55 22.3 105.2 22.4 109.8 25.05 112.45 27.5 114.9 31.7 115.15 L31.7 115.35 Q31.7 115.7 32.3 116.25 32.9 116.85 33.3 116.85 L35.0 116.55 35.25 115.25 35.25 114.95 Q38.5 114.35 41.45 112.4 46.85 108.85 46.85 102.45 46.85 99.9 45.15 96.65 L44.9 104.45 Q44.75 105.8 44.1 105.8 L43.65 105.75 43.55 105.7 43.3 102.35 Q44.0 101.5 44.0 100.45 L43.55 99.5 43.0 99.0 42.75 94.6 Q42.75 92.25 43.75 87.75 L44.65 83.5 44.15 78.4 45.3 75.2 Q46.45 72.15 46.45 70.35 L46.45 70.2 46.8 70.1 47.0 68.75 Q46.85 67.45 45.65 67.3" fill="#954a00" fill-rule="evenodd" stroke="none"/>
    <path d="M35.0 80.85 Q35.55 74.8 36.65 70.65 39.7 59.2 47.2 59.2 48.85 59.2 50.65 55.3 L50.75 55.15 51.7 54.45 Q52.05 53.85 52.05 53.1 L51.85 52.6 52.85 50.25 Q55.05 47.35 56.8 46.6 L57.5 46.15 57.75 45.0 Q57.85 42.6 59.15 40.55 60.4 38.55 60.4 36.8 L58.6 34.35 Q56.8 31.65 56.8 30.2 L58.15 26.45 Q58.15 23.55 54.4 19.4 51.05 15.65 49.85 15.65 48.55 15.65 45.9 17.0 43.2 18.35 41.9 18.35 L41.65 18.15 41.7 17.8 Q42.3 16.7 44.65 13.5 46.55 10.9 46.55 10.35 46.55 9.65 44.85 7.85 42.75 5.6 40.2 5.6 L34.65 6.0 Q33.3 6.55 33.3 8.85 L34.4 13.85 34.3 14.15 34.2 14.2 33.75 14.3 31.65 12.35 Q29.9 10.85 28.6 10.85 25.9 10.85 21.95 13.45 L21.8 13.4 Q20.25 13.4 19.55 14.2 19.1 14.75 19.1 15.45 L19.15 15.6 Q16.5 18.0 15.65 20.65 15.45 21.35 12.55 23.9 9.7 26.4 9.15 28.55 8.5 31.25 7.35 33.75 L6.4 36.0 Q6.4 37.1 9.75 44.45 L10.5 46.1 Q9.7 44.7 8.6 44.7 L8.25 44.75 7.45 43.45 5.65 41.65 Q3.8 39.7 3.8 33.8 3.8 31.35 4.85 29.25 L5.65 28.0 5.65 27.95 Q6.45 27.3 9.85 21.5 13.85 14.75 14.7 14.3 18.1 12.35 22.8 9.95 27.0 7.85 27.25 7.85 27.95 7.85 31.5 9.35 32.1 8.95 32.1 7.8 L32.15 5.7 Q32.7 3.05 38.35 3.05 43.2 3.15 45.3 4.2 48.55 5.75 48.55 9.95 L47.95 11.5 Q47.3 12.95 47.3 13.4 L47.55 13.85 47.9 14.15 48.7 13.85 Q49.6 13.5 50.05 13.5 53.1 13.5 57.6 20.05 L60.4 24.75 61.55 27.15 61.05 28.55 Q60.55 29.75 60.55 30.55 L61.45 34.15 Q62.35 37.65 62.35 39.6 62.35 41.05 60.65 43.0 58.9 45.1 58.7 47.9 58.6 48.65 57.3 50.1 L54.8 52.7 Q51.55 56.15 53.5 57.7 L48.6 60.75 Q44.95 63.0 44.95 63.7 L45.15 64.85 45.65 67.3 45.2 67.25 Q43.5 67.3 43.5 68.65 L43.8 69.65 Q44.25 70.5 45.1 70.5 L46.2 70.3 46.45 70.2 46.45 70.35 Q46.45 72.15 45.3 75.2 L44.15 78.4 44.65 83.5 43.75 87.75 Q42.75 92.25 42.75 94.6 L43.0 99.0 42.15 98.75 Q41.4 98.75 40.85 99.1 40.0 97.05 40.0 94.8 40.0 89.5 41.0 80.35 41.9 71.95 42.8 67.25 L41.35 67.05 40.1 66.85 Q38.95 66.85 38.3 70.8 37.85 73.4 37.4 80.0 L36.6 90.8 Q35.95 96.7 34.85 99.45 L34.5 97.5 34.4 96.25 Q34.4 88.85 34.85 83.1 L35.25 82.9 35.45 82.0 35.0 80.85 M9.9 49.05 L10.45 48.55 Q11.0 47.85 11.0 47.2 13.05 51.55 13.85 52.9 14.75 54.55 17.05 57.1 L18.0 58.15 Q17.4 58.3 17.05 58.85 L16.7 58.5 Q11.8 53.5 9.9 49.05 M20.45 62.2 L20.5 61.05 20.4 60.05 29.0 62.4 30.5 62.75 Q30.8 62.9 30.8 63.35 L29.75 64.4 27.45 66.05 Q24.05 68.6 24.05 70.9 24.05 72.8 24.55 75.6 L25.0 78.05 24.7 80.15 24.45 83.45 Q24.5 88.0 23.75 93.55 22.95 93.55 22.95 94.4 22.95 95.2 23.3 95.85 L23.4 96.0 22.75 99.5 22.95 100.25 Q27.05 99.4 28.75 91.15 L29.6 85.2 29.9 81.9 30.1 82.15 30.4 84.0 Q30.4 91.95 27.5 99.25 L25.5 103.7 Q24.6 105.55 24.6 105.95 24.6 109.5 26.7 110.35 L34.1 110.9 Q37.6 110.9 39.95 107.05 41.2 105.0 41.6 103.15 L41.85 103.15 Q42.5 103.15 43.25 102.35 L43.3 102.35 43.55 105.7 43.65 105.75 44.1 105.8 Q44.75 105.8 44.9 104.45 L45.15 96.65 Q46.85 99.9 46.85 102.45 46.85 108.85 41.45 112.4 38.5 114.35 35.25 114.95 L35.05 114.3 Q34.7 113.5 33.85 113.5 32.4 113.5 32.0 114.0 31.75 114.3 31.7 115.15 27.5 114.9 25.05 112.45 22.4 109.8 22.3 105.2 21.0 107.55 20.35 107.55 19.5 107.55 19.0 106.25 18.55 105.1 18.5 103.2 L18.4 101.05 18.3 99.75 Q18.3 99.0 19.05 96.9 L20.0 94.4 20.1 93.9 Q20.8 101.2 21.15 101.65 L21.25 101.65 Q22.35 101.2 22.2 99.35 L21.85 97.3 21.65 93.85 Q21.4 90.05 21.4 82.45 L21.0 72.65 Q21.0 71.45 21.85 69.9 L22.7 68.1 22.65 67.65 22.45 67.6 Q22.0 67.6 21.2 68.05 21.2 66.95 21.65 65.9 L22.05 64.65 Q22.05 63.9 20.45 62.2" fill="#bb5e00" fill-rule="evenodd" stroke="none"/>
    <path d="M47.45 20.4 L44.55 21.25 41.1 22.5 39.5 22.15 Q38.35 21.75 37.6 20.95 40.75 16.6 42.45 13.45 43.8 10.85 43.8 9.85 43.8 9.15 42.6 8.15 41.25 7.15 39.85 7.15 35.85 7.15 35.85 12.1 L37.15 14.35 Q37.15 16.75 36.15 17.8 35.3 18.7 33.55 18.7 31.25 18.7 29.65 17.05 28.0 15.4 26.65 15.4 25.25 15.4 24.0 15.9 L23.3 14.55 Q22.55 13.5 21.95 13.45 25.9 10.85 28.6 10.85 29.9 10.85 31.65 12.35 L33.75 14.3 34.2 14.2 34.3 14.15 34.4 13.85 33.3 8.85 Q33.3 6.55 34.65 6.0 L40.2 5.6 Q42.75 5.6 44.85 7.85 46.55 9.65 46.55 10.35 46.55 10.9 44.65 13.5 42.3 16.7 41.7 17.8 L41.65 18.15 41.9 18.35 Q43.2 18.35 45.9 17.0 48.55 15.65 49.85 15.65 51.05 15.65 54.4 19.4 58.15 23.55 58.15 26.45 L56.8 30.2 Q56.8 31.65 58.6 34.35 L60.4 36.8 Q60.4 38.55 59.15 40.55 57.85 42.6 57.75 45.0 L57.5 46.15 56.8 46.6 Q55.05 47.35 52.85 50.25 L51.85 52.6 Q51.25 51.95 48.9 51.95 L48.6 53.45 Q49.1 55.15 50.45 55.15 L50.75 55.15 50.65 55.3 Q48.85 59.2 47.2 59.2 39.7 59.2 36.65 70.65 35.55 74.8 35.0 80.85 L34.85 80.6 34.0 79.7 Q33.75 73.0 34.85 68.7 35.75 65.05 41.9 57.8 L45.9 52.95 Q47.65 50.5 47.65 49.15 L47.45 48.6 47.25 48.1 47.5 46.75 47.8 45.35 Q47.8 44.2 45.35 43.3 L45.65 42.85 Q46.05 42.2 46.05 41.45 L44.8 39.8 47.1 40.15 Q51.05 40.15 52.55 35.5 53.1 33.85 53.35 31.35 L54.3 31.55 55.85 31.25 56.1 29.7 Q56.35 28.05 54.25 27.8 L53.6 27.8 53.6 25.8 Q53.6 24.05 52.7 22.2 51.9 20.55 50.8 20.15 L50.85 19.25 Q50.85 17.2 48.85 16.8 46.8 16.45 46.8 18.7 46.8 19.35 47.2 20.05 L47.45 20.4 M20.8 18.0 Q18.55 20.15 17.5 23.65 16.8 25.85 15.45 27.35 L13.0 29.5 Q11.55 30.7 10.95 31.8 10.1 33.35 10.1 35.8 10.1 36.9 11.6 38.4 13.05 39.95 14.0 39.95 15.7 39.95 18.1 37.75 20.6 35.35 20.6 33.2 L20.15 30.8 19.6 29.2 19.9 28.85 20.95 27.9 22.35 29.8 24.25 32.05 26.65 30.9 29.25 29.85 29.45 30.05 29.45 30.4 Q29.45 31.45 27.95 32.9 L24.55 35.65 Q19.6 39.5 19.6 41.8 L19.95 42.9 20.3 44.0 20.05 45.5 19.8 47.0 Q19.8 49.65 23.4 51.65 27.8 54.05 35.6 54.05 L38.1 53.75 41.25 53.25 Q35.95 56.55 33.35 60.6 31.05 64.2 31.05 68.1 L31.65 74.45 32.1 79.8 31.8 79.95 Q31.05 80.5 31.05 81.3 31.05 81.75 31.65 82.45 L32.25 83.0 32.25 83.25 32.1 86.5 31.4 94.8 29.45 100.1 Q27.7 104.4 27.7 106.85 27.7 108.1 28.05 108.45 28.7 109.1 31.0 109.1 33.95 109.1 35.4 108.4 37.1 107.65 37.1 105.85 37.1 103.65 35.2 102.2 L33.9 101.2 Q33.3 100.7 33.3 100.2 33.3 94.65 33.6 91.75 L34.25 87.6 34.15 83.3 34.7 83.15 34.85 83.1 Q34.4 88.85 34.4 96.25 L34.5 97.5 34.85 99.45 Q35.95 96.7 36.6 90.8 L37.4 80.0 Q37.85 73.4 38.3 70.8 38.95 66.85 40.1 66.85 L41.35 67.05 42.8 67.25 Q41.9 71.95 41.0 80.35 40.0 89.5 40.0 94.8 40.0 97.05 40.85 99.1 40.4 99.35 40.1 99.85 39.75 100.4 39.7 101.0 39.7 101.45 40.2 102.15 40.8 103.0 41.6 103.15 41.2 105.0 39.95 107.05 37.6 110.9 34.1 110.9 L26.7 110.35 Q24.6 109.5 24.6 105.95 24.6 105.55 25.5 103.7 L27.5 99.25 Q30.4 91.95 30.4 84.0 L30.1 82.15 29.9 81.9 29.6 85.2 28.75 91.15 Q27.05 99.4 22.95 100.25 L22.75 99.5 23.4 96.0 Q23.8 96.65 24.5 96.65 L25.45 96.45 25.65 96.2 25.8 95.25 Q25.25 93.75 24.1 93.55 L23.75 93.55 Q24.5 88.0 24.45 83.45 L24.7 80.15 25.0 78.05 24.55 75.6 Q24.05 72.8 24.05 70.9 24.05 68.6 27.45 66.05 L29.75 64.4 30.8 63.35 Q30.8 62.9 30.5 62.75 L29.0 62.4 20.4 60.05 Q20.05 58.05 18.6 58.05 L18.0 58.15 17.05 57.1 Q14.75 54.55 13.85 52.9 13.05 51.55 11.0 47.2 L11.0 47.15 10.5 46.1 9.75 44.45 Q6.4 37.1 6.4 36.0 L7.35 33.75 Q8.5 31.25 9.15 28.55 9.7 26.4 12.55 23.9 15.45 21.35 15.65 20.65 16.5 18.0 19.15 15.6 L19.85 17.05 20.8 18.0 M42.65 38.9 Q41.7 39.0 41.05 39.95 40.5 40.8 40.5 41.6 L40.6 42.15 36.55 41.5 Q35.4 41.5 32.75 42.65 L29.6 44.0 29.0 43.9 28.9 43.25 Q29.3 42.4 30.45 41.8 31.15 41.45 32.6 40.85 35.3 39.5 35.3 36.0 L35.05 33.45 34.75 32.4 Q34.75 30.5 36.1 29.15 37.1 28.2 37.55 28.2 38.0 28.2 38.1 28.35 L38.2 29.75 37.9 30.9 Q37.55 32.1 37.55 32.6 37.55 34.75 40.55 37.35 L42.65 38.9 M56.2 40.75 Q55.3 39.85 54.1 39.85 52.9 39.85 52.05 40.75 51.15 41.6 51.15 42.8 51.15 44.0 52.05 44.9 52.9 45.75 54.1 45.75 55.3 45.75 56.2 44.9 57.05 44.0 57.05 42.8 57.05 41.6 56.2 40.75 M18.65 43.95 Q18.0 43.05 17.05 43.05 16.1 43.05 15.45 43.95 14.8 44.85 14.8 46.1 14.8 47.35 15.45 48.25 16.1 49.15 17.05 49.15 18.0 49.15 18.65 48.25 19.3 47.35 19.3 46.1 19.3 44.85 18.65 43.95 M32.6 59.85 Q33.95 59.85 34.75 58.1 34.75 55.5 32.7 55.5 L31.25 55.9 Q30.4 56.4 30.4 57.2 30.4 57.75 31.15 58.75 31.95 59.85 32.6 59.85 M24.65 69.9 Q24.65 70.3 25.1 70.9 25.6 71.55 26.25 71.55 28.35 71.55 28.35 69.8 28.35 68.0 26.5 68.05 24.65 68.15 24.65 69.9 M26.75 85.85 Q26.95 86.6 27.7 86.6 L28.05 86.55 Q27.75 84.95 28.8 78.1 29.7 71.95 28.75 70.65 28.15 71.3 27.3 77.45 26.6 82.8 26.6 83.8 26.6 85.35 26.75 85.85" fill="#e97300" fill-rule="evenodd" stroke="none"/>
    <path d="M24.0 15.9 Q25.25 15.4 26.65 15.4 28.0 15.4 29.65 17.05 31.25 18.7 33.55 18.7 35.3 18.7 36.15 17.8 37.15 16.75 37.15 14.35 L35.85 12.1 Q35.85 7.15 39.85 7.15 41.25 7.15 42.6 8.15 43.8 9.15 43.8 9.85 43.8 10.85 42.45 13.45 40.75 16.6 37.6 20.95 38.35 21.75 39.5 22.15 L41.1 22.5 44.55 21.25 47.45 20.4 Q47.95 21.05 48.8 21.05 L49.9 20.85 50.55 20.6 50.8 20.15 Q51.9 20.55 52.7 22.2 53.6 24.05 53.6 25.8 L53.6 27.8 Q52.2 27.9 52.2 29.55 52.2 30.3 52.7 30.85 L53.35 31.35 Q53.1 33.85 52.55 35.5 51.05 40.15 47.1 40.15 L44.8 39.8 Q43.85 38.85 42.95 38.85 L42.65 38.9 40.55 37.35 Q37.55 34.75 37.55 32.6 37.55 32.1 37.9 30.9 L38.2 29.75 38.1 28.35 Q38.0 28.2 37.55 28.2 37.1 28.2 36.1 29.15 34.75 30.5 34.75 32.4 L35.05 33.45 35.3 36.0 Q35.3 39.5 32.6 40.85 31.15 41.45 30.45 41.8 29.3 42.4 28.9 43.25 L29.0 43.9 29.6 44.0 32.75 42.65 Q35.4 41.5 36.55 41.5 L40.6 42.15 41.1 43.1 Q41.9 44.1 43.1 44.1 44.6 44.1 45.35 43.3 47.8 44.2 47.8 45.35 L47.5 46.75 47.25 48.1 47.45 48.6 47.65 49.15 Q47.65 50.5 45.9 52.95 L41.9 57.8 Q35.75 65.05 34.85 68.7 33.75 73.0 34.0 79.7 L33.3 79.5 32.1 79.8 31.65 74.45 31.05 68.1 Q31.05 64.2 33.35 60.6 35.95 56.55 41.25 53.25 L38.1 53.75 35.6 54.05 Q27.8 54.05 23.4 51.65 19.8 49.65 19.8 47.0 L20.05 45.5 20.3 44.0 19.95 42.9 19.6 41.8 Q19.6 39.5 24.55 35.65 L27.95 32.9 Q29.45 31.45 29.45 30.4 L29.45 30.05 29.25 29.85 26.65 30.9 24.25 32.05 22.35 29.8 20.95 27.9 19.9 28.85 19.6 29.2 20.15 30.8 20.6 33.2 Q20.6 35.35 18.1 37.75 15.7 39.95 14.0 39.95 13.05 39.95 11.6 38.4 10.1 36.9 10.1 35.8 10.1 33.35 10.95 31.8 11.55 30.7 13.0 29.5 L15.45 27.35 Q16.8 25.85 17.5 23.65 18.55 20.15 20.8 18.0 L21.8 18.3 Q24.0 18.3 24.0 16.1 L24.0 15.9 M41.8 11.1 Q41.8 10.25 41.25 9.7 40.7 9.15 39.9 9.15 39.1 9.15 38.55 9.7 37.95 10.25 37.95 11.1 37.95 11.9 38.55 12.45 39.1 13.05 39.9 13.05 40.7 13.05 41.25 12.45 41.8 11.9 41.8 11.1 M48.35 27.15 Q47.4 25.85 45.95 25.85 44.55 25.85 43.55 27.15 42.6 28.45 42.6 30.3 42.6 32.15 43.55 33.5 44.55 34.8 45.95 34.8 47.4 34.8 48.35 33.5 49.35 32.15 49.35 30.3 49.35 28.45 48.35 27.15 M56.2 40.75 Q57.05 41.6 57.05 42.8 57.05 44.0 56.2 44.9 55.3 45.75 54.1 45.75 52.9 45.75 52.05 44.9 51.15 44.0 51.15 42.8 51.15 41.6 52.05 40.75 52.9 39.85 54.1 39.85 55.3 39.85 56.2 40.75 M32.65 25.1 Q33.35 24.15 33.35 22.9 33.35 22.05 32.75 21.55 32.2 21.1 31.2 21.1 28.45 21.1 26.0 23.0 23.75 24.75 23.75 26.2 23.75 27.55 25.45 27.55 28.15 27.55 30.1 26.8 30.5 27.35 31.25 27.35 L32.65 27.15 Q32.85 26.75 32.85 25.65 L32.65 25.1 M13.3 35.15 Q13.9 35.8 14.8 35.8 15.65 35.8 16.3 35.15 16.9 34.5 16.9 33.65 16.9 32.75 16.3 32.1 15.65 31.45 14.8 31.45 13.9 31.45 13.3 32.1 12.65 32.75 12.65 33.65 12.65 34.5 13.3 35.15 M18.65 43.95 Q19.3 44.85 19.3 46.1 19.3 47.35 18.65 48.25 18.0 49.15 17.05 49.15 16.1 49.15 15.45 48.25 14.8 47.35 14.8 46.1 14.8 44.85 15.45 43.95 16.1 43.05 17.05 43.05 18.0 43.05 18.65 43.95 M26.2 45.55 L29.2 40.8 Q32.6 35.45 32.6 34.35 L32.5 34.0 32.45 33.85 31.85 33.8 Q29.2 34.95 26.9 37.45 24.9 39.7 23.75 42.35 22.65 44.9 22.95 46.65 23.25 48.45 25.1 48.45 L25.75 48.35 Q26.45 48.15 26.45 47.45 L26.1 46.95 26.05 46.85 26.1 46.85 26.2 45.55 M39.7 46.6 Q38.1 45.75 35.8 45.75 33.5 45.75 31.9 46.6 30.25 47.4 30.25 48.6 30.25 49.75 31.9 50.55 33.5 51.4 35.8 51.4 38.1 51.4 39.7 50.55 41.35 49.75 41.35 48.6 41.35 47.4 39.7 46.6 M34.15 83.3 L34.25 87.6 33.6 91.75 Q33.3 94.65 33.3 100.2 33.3 100.7 33.9 101.2 L35.2 102.2 Q37.1 103.65 37.1 105.85 37.1 107.65 35.4 108.4 33.95 109.1 31.0 109.1 28.7 109.1 28.05 108.45 27.7 108.1 27.7 106.85 27.7 104.4 29.45 100.1 L31.4 94.8 32.1 86.5 32.25 83.25 32.25 83.0 33.6 83.35 34.15 83.3 M26.75 85.85 Q26.6 85.35 26.6 83.8 26.6 82.8 27.3 77.45 28.15 71.3 28.75 70.65 29.7 71.95 28.8 78.1 27.75 84.95 28.05 86.55 L27.7 86.6 Q26.95 86.6 26.75 85.85 M33.2 103.05 Q32.6 102.4 31.7 102.4 30.85 102.4 30.2 103.05 29.6 103.65 29.6 104.55 29.6 105.45 30.2 106.1 30.85 106.7 31.7 106.7 32.6 106.7 33.2 106.1 33.85 105.45 33.85 104.55 33.85 103.65 33.2 103.05" fill="#ff8d1c" fill-rule="evenodd" stroke="none"/>
    <path d="M41.8 11.1 Q41.8 11.9 41.25 12.45 40.7 13.05 39.9 13.05 39.1 13.05 38.55 12.45 37.95 11.9 37.95 11.1 37.95 10.25 38.55 9.7 39.1 9.15 39.9 9.15 40.7 9.15 41.25 9.7 41.8 10.25 41.8 11.1 M48.35 27.15 Q49.35 28.45 49.35 30.3 49.35 32.15 48.35 33.5 47.4 34.8 45.95 34.8 44.55 34.8 43.55 33.5 42.6 32.15 42.6 30.3 42.6 28.45 43.55 27.15 44.55 25.85 45.95 25.85 47.4 25.85 48.35 27.15 M32.65 25.1 Q32.05 24.45 29.85 24.45 L29.8 24.65 29.7 25.7 29.95 26.55 30.1 26.8 Q28.15 27.55 25.45 27.55 23.75 27.55 23.75 26.2 23.75 24.75 26.0 23.0 28.45 21.1 31.2 21.1 32.2 21.1 32.75 21.55 33.35 22.05 33.35 22.9 33.35 24.15 32.65 25.1 M13.3 35.15 Q12.65 34.5 12.65 33.65 12.65 32.75 13.3 32.1 13.9 31.45 14.8 31.45 15.65 31.45 16.3 32.1 16.9 32.75 16.9 33.65 16.9 34.5 16.3 35.15 15.65 35.8 14.8 35.8 13.9 35.8 13.3 35.15 M26.05 46.85 L26.1 46.95 26.45 47.45 Q26.45 48.15 25.75 48.35 L25.1 48.45 Q23.25 48.45 22.95 46.65 22.65 44.9 23.75 42.35 24.9 39.7 26.9 37.45 29.2 34.95 31.85 33.8 L32.45 33.85 32.5 34.0 32.6 34.35 Q32.6 35.45 29.2 40.8 L26.2 45.55 Q26.2 43.3 23.3 44.15 L23.2 44.35 Q23.05 44.65 23.05 45.35 L23.25 46.4 23.45 46.8 24.65 47.05 26.05 46.85 M39.7 46.6 Q41.35 47.4 41.35 48.6 41.35 49.75 39.7 50.55 38.1 51.4 35.8 51.4 33.5 51.4 31.9 50.55 30.25 49.75 30.25 48.6 30.25 47.4 31.9 46.6 33.5 45.75 35.8 45.75 38.1 45.75 39.7 46.6 M33.2 103.05 Q33.85 103.65 33.85 104.55 33.85 105.45 33.2 106.1 32.6 106.7 31.7 106.7 30.85 106.7 30.2 106.1 29.6 105.45 29.6 104.55 29.6 103.65 30.2 103.05 30.85 102.4 31.7 102.4 32.6 102.4 33.2 103.05" fill="#ffb366" fill-rule="evenodd" stroke="none"/>
    <path d="M47.45 20.4 L47.2 20.05 Q46.8 19.35 46.8 18.7 46.8 16.45 48.85 16.8 50.85 17.2 50.85 19.25 L50.8 20.15 50.55 20.6 49.9 20.85 48.8 21.05 Q47.95 21.05 47.45 20.4 M53.6 27.8 L54.25 27.8 Q56.35 28.05 56.1 29.7 L55.85 31.25 54.3 31.55 53.35 31.35 52.7 30.85 Q52.2 30.3 52.2 29.55 52.2 27.9 53.6 27.8 M44.8 39.8 L46.05 41.45 Q46.05 42.2 45.65 42.85 L45.35 43.3 Q44.6 44.1 43.1 44.1 41.9 44.1 41.1 43.1 L40.6 42.15 40.5 41.6 Q40.5 40.8 41.05 39.95 41.7 39.0 42.65 38.9 L42.95 38.85 Q43.85 38.85 44.8 39.8 M34.0 79.7 L34.85 80.6 35.0 80.85 35.45 82.0 35.25 82.9 34.85 83.1 34.7 83.15 34.15 83.3 33.6 83.35 32.25 83.0 31.65 82.45 Q31.05 81.75 31.05 81.3 31.05 80.5 31.8 79.95 L32.1 79.8 33.3 79.5 34.0 79.7 M50.75 55.15 L50.45 55.15 Q49.1 55.15 48.6 53.45 L48.9 51.95 Q51.25 51.95 51.85 52.6 L52.05 53.1 Q52.05 53.85 51.7 54.45 L50.75 55.15 M21.95 13.45 Q22.55 13.5 23.3 14.55 L24.0 15.9 24.0 16.1 Q24.0 18.3 21.8 18.3 L20.8 18.0 19.85 17.05 19.15 15.6 19.1 15.45 Q19.1 14.75 19.55 14.2 20.25 13.4 21.8 13.4 L21.95 13.45 M8.25 44.75 L8.6 44.7 Q9.7 44.7 10.5 46.1 L11.0 47.15 11.0 47.2 Q11.0 47.85 10.45 48.55 L9.9 49.05 9.05 49.3 Q8.5 49.3 7.55 48.15 6.6 47.1 6.6 46.7 6.6 44.9 8.25 44.75 M30.1 26.8 L29.95 26.55 29.7 25.7 29.8 24.65 29.85 24.45 Q32.05 24.45 32.65 25.1 L32.85 25.65 Q32.85 26.75 32.65 27.15 L31.25 27.35 Q30.5 27.35 30.1 26.8 M26.2 45.55 L26.1 46.85 26.05 46.85 24.65 47.05 23.45 46.8 23.25 46.4 23.05 45.35 Q23.05 44.65 23.2 44.35 L23.3 44.15 Q26.2 43.3 26.2 45.55 M32.6 59.85 Q31.95 59.85 31.15 58.75 30.4 57.75 30.4 57.2 30.4 56.4 31.25 55.9 L32.7 55.5 Q34.75 55.5 34.75 58.1 33.95 59.85 32.6 59.85 M20.4 60.05 L20.5 61.05 20.45 62.2 20.4 62.4 19.65 62.55 18.5 62.7 Q17.75 62.7 17.1 61.95 16.45 61.3 16.45 60.75 16.45 59.85 16.9 59.05 L17.05 58.85 Q17.4 58.3 18.0 58.15 L18.6 58.05 Q20.05 58.05 20.4 60.05 M31.7 115.15 Q31.75 114.3 32.0 114.0 32.4 113.5 33.85 113.5 34.7 113.5 35.05 114.3 L35.25 114.95 35.25 115.25 35.0 116.55 33.3 116.85 Q32.9 116.85 32.3 116.25 31.7 115.7 31.7 115.35 L31.7 115.15 M43.3 102.35 L43.25 102.35 Q42.5 103.15 41.85 103.15 L41.6 103.15 Q40.8 103.0 40.2 102.15 39.7 101.45 39.7 101.0 39.75 100.4 40.1 99.85 40.4 99.35 40.85 99.1 41.4 98.75 42.15 98.75 L43.0 99.0 43.55 99.5 44.0 100.45 Q44.0 101.5 43.3 102.35 M23.4 96.0 L23.3 95.85 Q22.95 95.2 22.95 94.4 22.95 93.55 23.75 93.55 L24.1 93.55 Q25.25 93.75 25.8 95.25 L25.65 96.2 25.45 96.45 24.5 96.65 Q23.8 96.65 23.4 96.0 M24.65 69.9 Q24.65 68.15 26.5 68.05 28.35 68.0 28.35 69.8 28.35 71.55 26.25 71.55 25.6 71.55 25.1 70.9 24.65 70.3 24.65 69.9 M46.45 70.2 L46.2 70.3 45.1 70.5 Q44.25 70.5 43.8 69.65 L43.5 68.65 Q43.5 67.3 45.2 67.25 L45.65 67.3 Q46.85 67.45 47.0 68.75 L46.8 70.1 46.45 70.2" fill="#ba3900" fill-rule="evenodd" stroke="none"/>
  </g>
</svg>
