<?xml version="1.0" encoding="UTF-8" standalone="no"?>
<svg xmlns:ffdec="https://www.free-decompiler.com/flash" xmlns:xlink="http://www.w3.org/1999/xlink" ffdec:objectType="shape" height="20.6px" width="19.45px" xmlns="http://www.w3.org/2000/svg">
  <g transform="matrix(1.0, 0.0, 0.0, 1.0, 0.0, 0.0)">
    <path d="M16.75 7.55 Q16.0 4.55 13.5 3.3 10.95 2.0 8.05 3.25 5.15 4.3 3.6 7.2 L3.2 7.95 Q2.1 10.45 2.7 13.05 3.45 15.95 6.0 17.25 8.5 18.5 11.4 17.35 13.95 16.35 15.45 14.05 L15.85 13.35 Q17.4 10.45 16.75 7.55 M2.85 7.75 L3.2 7.0 Q4.85 3.95 7.95 2.75 L13.75 2.9 Q16.4 4.25 17.15 7.35 17.9 10.5 16.25 13.55 L15.85 14.25 15.8 14.3 Q14.25 16.75 11.5 17.85 L5.75 17.7 Q3.05 16.35 2.3 13.25 1.65 10.45 2.8 7.8 L2.85 7.75" fill="#1d1d1d" fill-rule="evenodd" stroke="none"/>
    <path d="M16.75 7.55 Q17.4 10.45 15.85 13.35 L15.45 14.05 Q13.95 16.35 11.4 17.35 8.5 18.5 6.0 17.25 3.45 15.95 2.7 13.05 2.1 10.45 3.2 7.95 L3.6 7.2 Q5.15 4.3 8.05 3.25 10.95 2.0 13.5 3.3 16.0 4.55 16.75 7.55" fill="#ffffff" fill-rule="evenodd" stroke="none"/>
    <path d="M14.8 0.9 Q18.2 2.6 19.2 6.5 20.1 10.6 18.05 14.45 L17.65 15.15 17.6 15.2 Q15.55 18.5 12.0 19.85 8.05 21.4 4.65 19.7 1.25 18.0 0.25 14.0 -0.55 10.4 1.05 6.9 L1.45 6.15 Q3.5 2.3 7.45 0.65 11.4 -0.8 14.8 0.9 M16.85 14.75 L16.85 14.7 17.25 14.05 Q19.1 10.55 18.3 6.9 17.45 3.35 14.35 1.8 11.25 0.25 7.65 1.55 4.1 3.05 2.25 6.55 L1.85 7.2 1.85 7.25 Q0.4 10.45 1.15 13.6 2.05 17.3 5.15 18.85 8.25 20.4 11.8 18.95 15.0 17.75 16.85 14.75" fill="#000000" fill-rule="evenodd" stroke="none"/>
    <path d="M1.85 7.25 L1.85 7.2 2.25 6.55 Q4.1 3.05 7.65 1.55 11.25 0.25 14.35 1.8 17.45 3.35 18.3 6.9 19.1 10.55 17.25 14.05 L16.85 14.7 16.85 14.75 15.85 14.25 16.25 13.55 Q17.9 10.5 17.15 7.35 16.4 4.25 13.75 2.9 L7.95 2.75 Q4.85 3.95 3.2 7.0 L2.85 7.75 1.85 7.25" fill="#7c2c34" fill-rule="evenodd" stroke="none"/>
    <path d="M1.85 7.25 L2.85 7.75 2.8 7.8 Q1.65 10.45 2.3 13.25 3.05 16.35 5.75 17.7 L11.5 17.85 Q14.25 16.75 15.8 14.3 L15.85 14.25 16.85 14.75 Q15.0 17.75 11.8 18.95 8.25 20.4 5.15 18.85 2.05 17.3 1.15 13.6 0.4 10.45 1.85 7.25" fill="#4f1c21" fill-rule="evenodd" stroke="none"/>
    <path d="M12.35 4.2 L12.85 3.35 12.85 4.1 Q12.8 4.8 12.35 4.2 M10.55 11.2 L9.0 11.3 8.65 9.9 8.7 9.3 9.2 9.15 9.6 9.15 9.95 9.3 10.25 9.6 10.5 10.45 10.55 11.2 M14.3 7.65 L15.4 7.75 Q15.6 8.45 14.5 8.4 13.85 8.5 14.05 8.0 L14.3 7.65 M8.35 4.05 Q8.85 4.85 8.95 5.5 L8.95 5.7 Q7.85 5.65 8.35 4.05 M5.0 8.15 L5.6 8.85 Q5.3 9.35 4.5 8.85 4.1 8.6 4.3 8.2 L5.0 8.15 M4.6 11.8 L4.95 11.85 4.6 12.45 4.35 12.6 3.75 12.35 3.65 12.15 Q4.05 11.9 4.6 11.8 M6.15 15.45 L6.15 15.85 5.6 16.3 Q5.05 15.9 5.5 15.4 L6.15 15.45 M14.2 12.9 Q13.85 11.9 15.2 12.65 15.7 13.8 14.35 12.95 L14.2 12.9 M10.7 15.0 L10.75 15.6 10.7 16.25 10.5 16.5 10.35 16.25 10.25 15.6 10.35 15.0 10.5 14.7 10.7 15.0" fill="#666666" fill-rule="evenodd" stroke="none"/>
  </g>
</svg>
