<?xml version="1.0" encoding="UTF-8" standalone="no"?>
<svg xmlns:ffdec="https://www.free-decompiler.com/flash" xmlns:xlink="http://www.w3.org/1999/xlink" ffdec:objectType="shape" height="121.25px" width="66.1px" xmlns="http://www.w3.org/2000/svg">
  <g transform="matrix(1.0, 0.0, 0.0, 1.0, 0.0, 0.0)">
    <path d="M64.55 24.3 Q65.4 26.1 65.4 27.65 L65.2 29.25 65.0 30.85 65.15 32.55 66.1 38.85 65.6 42.75 63.25 46.5 62.55 50.1 58.55 56.5 56.5 60.25 Q54.75 63.25 54.0 63.25 53.7 63.25 53.05 65.5 52.3 68.1 51.3 69.1 50.0 70.45 49.35 74.35 48.85 77.05 48.85 79.5 L49.2 84.25 48.85 88.8 48.2 95.05 48.95 98.75 Q49.7 102.05 49.7 103.85 49.7 109.25 45.85 114.75 41.9 120.45 37.55 120.45 L35.3 120.85 31.7 121.25 29.35 121.0 28.15 120.75 26.3 120.05 Q24.0 119.3 22.25 117.9 L20.55 116.05 18.85 113.9 Q17.75 112.4 16.55 108.65 14.95 103.6 14.95 98.75 14.95 95.0 16.4 90.7 L17.85 86.2 Q17.85 82.15 16.45 75.3 14.95 68.35 13.6 66.1 9.2 58.5 3.3 50.75 1.4 48.3 0.85 47.15 0.0 45.6 0.0 43.8 0.0 34.1 1.0 29.35 2.05 24.05 4.85 21.5 L7.25 19.1 Q8.1 17.95 8.85 16.05 9.45 14.65 11.35 12.65 13.45 10.45 15.45 9.45 23.45 5.4 26.15 4.75 L27.5 4.55 28.75 4.2 32.85 1.85 Q34.55 0.8 37.45 0.25 42.7 -0.7 47.05 1.8 51.95 4.65 53.45 10.9 L55.95 13.15 Q58.7 15.35 61.3 19.1 L64.55 24.3 M51.2 9.5 Q50.55 7.5 49.6 6.15 46.4 1.7 38.35 1.7 36.2 1.7 32.75 3.85 29.35 6.0 28.15 6.0 26.7 6.0 21.4 8.3 16.2 10.55 14.75 11.7 9.9 15.6 8.65 19.85 L7.1 21.5 5.55 22.85 4.15 25.0 2.8 27.2 1.6 32.8 Q1.95 35.35 1.95 38.4 L1.25 43.15 Q1.25 45.7 4.1 49.3 L10.25 57.05 Q19.25 69.65 19.25 87.75 19.25 88.3 17.9 90.95 16.5 94.4 16.5 98.75 L16.7 102.05 Q17.1 105.95 18.3 109.2 22.05 119.65 31.9 119.65 39.4 119.65 43.85 114.6 48.05 109.85 48.05 102.65 48.05 101.2 47.3 98.7 46.55 96.2 46.55 94.5 L47.1 89.65 47.65 84.6 47.2 78.85 47.7 76.65 Q48.25 73.85 48.25 70.55 48.25 70.1 49.55 68.7 L51.35 66.55 51.7 64.8 Q51.85 63.4 52.15 63.05 L54.4 60.65 Q55.85 58.95 56.45 57.15 57.05 55.3 59.3 52.45 61.3 49.9 61.7 47.95 62.45 43.85 63.65 41.8 64.55 40.3 64.55 38.35 L64.0 35.2 Q63.45 32.35 63.45 31.3 L63.65 29.5 63.9 27.7 Q63.9 24.75 59.4 19.2 55.75 14.7 51.95 11.55 L51.2 9.5" fill="#000000" fill-rule="evenodd" stroke="none"/>
    <path d="M51.2 9.5 L51.95 11.55 Q55.75 14.7 59.4 19.2 63.9 24.75 63.9 27.7 L63.65 29.5 63.45 31.3 Q63.45 32.35 64.0 35.2 L64.55 38.35 Q64.55 40.3 63.65 41.8 62.45 43.85 61.7 47.95 61.3 49.9 59.3 52.45 57.05 55.3 56.45 57.15 55.85 58.95 54.4 60.65 L52.15 63.05 Q51.85 63.4 51.7 64.8 L51.35 66.55 49.55 68.7 Q48.25 70.1 48.25 70.55 48.25 73.85 47.7 76.65 L47.2 78.85 47.65 84.6 47.1 89.65 46.55 94.5 Q46.55 96.2 47.3 98.7 48.05 101.2 48.05 102.65 48.05 109.85 43.85 114.6 39.4 119.65 31.9 119.65 22.05 119.65 18.3 109.2 17.1 105.95 16.7 102.05 L16.5 98.75 Q16.5 94.4 17.9 90.95 19.25 88.3 19.25 87.75 19.25 69.65 10.25 57.05 L4.1 49.3 Q1.25 45.7 1.25 43.15 L1.95 38.4 Q1.95 35.35 1.6 32.8 L2.8 27.2 4.15 25.0 5.55 22.85 7.1 21.5 8.65 19.85 Q9.9 15.6 14.75 11.7 16.2 10.55 21.4 8.3 26.7 6.0 28.15 6.0 29.35 6.0 32.75 3.85 36.2 1.7 38.35 1.7 46.4 1.7 49.6 6.15 50.55 7.5 51.2 9.5 M50.1 59.9 L53.5 57.7 Q51.55 56.15 54.8 52.7 L57.3 50.1 Q58.6 48.65 58.7 47.9 58.9 45.1 60.65 43.0 62.35 41.05 62.35 39.6 62.35 37.65 61.45 34.15 L60.55 30.55 Q60.55 29.75 61.05 28.55 L61.55 27.15 60.4 24.75 57.6 20.05 Q53.1 13.5 50.05 13.5 49.6 13.5 48.7 13.85 L47.9 14.15 47.55 13.85 47.3 13.4 Q47.3 12.95 47.95 11.5 L48.55 9.95 Q48.55 5.75 45.3 4.2 43.2 3.15 38.35 3.05 32.7 3.05 32.15 5.7 L32.1 7.8 Q32.1 8.95 31.5 9.35 L29.15 8.4 Q28.5 7.4 28.0 7.4 L27.2 7.55 27.15 7.9 Q26.5 8.1 22.8 9.95 18.1 12.35 14.7 14.3 13.85 14.75 9.85 21.5 6.45 27.3 5.65 27.95 L5.65 28.0 4.85 29.25 Q3.8 31.35 3.8 33.8 3.8 39.7 5.65 41.65 L7.45 43.45 Q8.55 44.9 9.3 47.4 10.35 50.8 13.25 54.55 12.75 54.75 12.75 55.2 12.75 55.8 13.5 56.3 14.2 56.75 15.15 56.85 L16.7 58.5 20.45 62.2 Q22.05 63.9 22.05 64.65 L21.65 65.9 Q21.2 66.95 21.2 68.05 22.0 67.6 22.45 67.6 L22.65 67.65 22.7 68.1 21.85 69.9 Q21.0 71.45 21.0 72.65 L21.4 82.45 Q21.4 90.05 21.65 93.85 L21.85 97.3 22.2 99.35 Q22.35 101.2 21.25 101.65 L21.15 101.65 Q20.8 101.2 20.1 93.9 L20.0 94.4 19.05 96.9 Q18.3 99.0 18.3 99.75 L18.4 101.05 18.5 103.2 Q18.55 105.1 19.0 106.25 19.5 107.55 20.35 107.55 21.0 107.55 22.3 105.2 22.4 109.8 25.05 112.45 27.75 115.15 32.5 115.15 35.15 115.15 37.65 114.3 37.65 114.7 38.0 115.4 38.4 116.3 39.0 116.3 L39.85 116.15 40.0 115.45 Q39.7 114.15 39.3 113.65 L41.45 112.4 Q46.85 108.85 46.85 102.45 46.85 99.9 45.15 96.65 L45.1 99.3 44.75 99.25 Q44.2 99.25 43.4 99.85 L43.1 100.1 43.0 99.25 42.75 94.6 Q42.75 92.25 43.75 87.75 L44.65 83.5 44.15 78.4 45.3 75.2 Q46.45 72.15 46.45 70.35 L46.35 70.0 45.75 67.7 45.15 64.85 44.95 63.7 Q44.95 63.0 48.6 60.75 48.95 61.15 49.25 61.15 L50.05 61.0 50.1 60.1 50.1 59.9 M45.05 101.45 L44.9 104.45 Q44.75 105.8 44.1 105.8 L43.65 105.75 43.55 105.7 43.25 101.95 43.55 102.0 Q44.4 102.0 45.05 101.45" fill="#8f5703" fill-rule="evenodd" stroke="none"/>
    <path d="M46.15 9.45 Q45.75 6.85 44.85 6.85 44.6 6.85 44.2 7.1 L44.15 7.15 Q42.3 5.6 40.2 5.6 L34.65 6.0 Q33.3 6.55 33.3 8.85 L34.4 13.85 34.3 14.15 34.2 14.2 33.75 14.3 31.65 12.35 Q30.6 11.45 29.7 11.1 L30.1 10.3 Q30.1 9.9 29.35 8.7 L29.15 8.4 31.5 9.35 Q32.1 8.95 32.1 7.8 L32.15 5.7 Q32.7 3.05 38.35 3.05 43.2 3.15 45.3 4.2 48.55 5.75 48.55 9.95 L47.95 11.5 Q47.3 12.95 47.3 13.4 L47.55 13.85 47.9 14.15 48.7 13.85 Q49.6 13.5 50.05 13.5 53.1 13.5 57.6 20.05 L60.4 24.75 61.55 27.15 61.05 28.55 Q60.55 29.75 60.55 30.55 L61.45 34.15 Q62.35 37.65 62.35 39.6 62.35 41.05 60.65 43.0 58.9 45.1 58.7 47.9 58.6 48.65 57.3 50.1 L54.8 52.7 Q51.55 56.15 53.5 57.7 L50.1 59.9 49.25 58.5 48.95 58.2 50.65 55.3 52.85 50.25 Q55.05 47.35 56.8 46.6 L57.5 46.15 57.75 45.0 Q57.85 42.6 59.15 40.55 60.4 38.55 60.4 36.8 L58.6 34.35 Q56.8 31.65 56.8 30.2 L58.15 26.45 Q58.15 23.55 54.4 19.4 51.05 15.65 49.85 15.65 48.55 15.65 45.9 17.0 43.2 18.35 41.9 18.35 L41.65 18.15 41.7 17.8 Q42.3 16.7 44.65 13.5 46.55 10.9 46.55 10.35 L46.15 9.45 M35.7 75.4 Q36.1 72.75 36.65 70.65 39.7 59.2 47.2 59.2 L47.45 59.2 47.75 59.65 48.6 60.75 Q44.95 63.0 44.95 63.7 L45.15 64.85 45.75 67.7 46.35 70.0 46.45 70.35 Q46.45 72.15 45.3 75.2 L44.15 78.4 44.65 83.5 43.75 87.75 Q42.75 92.25 42.75 94.6 L43.0 99.25 43.1 100.1 Q42.5 100.6 42.5 101.0 L42.75 101.65 43.25 101.95 43.55 105.7 43.65 105.75 44.1 105.8 Q44.75 105.8 44.9 104.45 L45.05 101.45 45.35 101.1 45.85 100.05 Q45.85 99.4 45.1 99.3 L45.15 96.65 Q46.85 99.9 46.85 102.45 46.85 108.85 41.45 112.4 L39.3 113.65 Q39.0 113.3 38.7 113.3 L38.15 113.45 Q37.65 113.7 37.65 114.3 35.15 115.15 32.5 115.15 27.75 115.15 25.05 112.45 22.4 109.8 22.3 105.2 21.0 107.55 20.35 107.55 19.5 107.55 19.0 106.25 18.55 105.1 18.5 103.2 L18.4 101.05 18.3 99.75 Q18.3 99.0 19.05 96.9 L20.0 94.4 20.1 93.9 Q20.8 101.2 21.15 101.65 L21.25 101.65 Q22.35 101.2 22.2 99.35 L21.85 97.3 21.65 93.85 Q21.4 90.05 21.4 82.45 L21.0 72.65 Q21.0 71.45 21.85 69.9 L22.7 68.1 22.65 67.65 22.45 67.6 Q22.0 67.6 21.2 68.05 21.2 66.95 21.65 65.9 L22.05 64.65 Q22.05 63.9 20.45 62.2 L16.7 58.5 15.15 56.85 15.55 56.85 16.8 56.8 17.05 57.1 Q19.25 59.65 19.9 59.85 24.7 61.45 29.0 62.4 L30.5 62.75 Q30.8 62.9 30.8 63.35 L29.75 64.4 27.45 66.05 Q24.05 68.6 24.05 70.9 24.05 72.8 24.55 75.6 L25.0 78.05 24.7 80.15 24.5 82.4 Q23.1 83.2 23.1 84.15 23.1 85.45 24.1 85.45 L24.45 85.35 Q24.3 91.55 22.75 99.5 L22.95 100.25 Q27.05 99.4 28.75 91.15 L29.6 85.2 29.9 81.9 30.1 82.15 30.4 84.0 Q30.4 91.95 27.5 99.25 L25.5 103.7 Q24.6 105.55 24.6 105.95 24.6 109.5 26.7 110.35 L34.1 110.9 Q37.6 110.9 39.95 107.05 41.8 104.0 41.8 101.4 L40.9 99.2 Q40.0 97.1 40.0 94.8 40.0 89.5 41.0 80.35 41.9 71.95 42.8 67.25 L41.35 67.05 40.1 66.85 Q38.95 66.85 38.3 70.8 37.85 73.4 37.4 80.0 L36.6 90.8 Q35.95 96.7 34.85 99.45 L34.5 97.5 34.4 96.25 Q34.4 85.65 35.3 78.35 L35.75 78.6 Q36.85 78.6 36.85 77.8 36.85 77.2 35.7 75.4 M27.15 7.9 L27.05 8.3 27.65 9.8 28.35 10.85 Q25.55 11.0 21.5 13.7 16.85 16.95 15.65 20.65 15.45 21.35 12.55 23.9 9.7 26.4 9.15 28.55 L8.7 30.25 7.7 30.25 Q7.2 30.25 6.85 30.6 6.5 30.95 6.5 31.4 6.5 32.1 8.0 32.3 L7.35 33.75 6.4 36.0 Q6.4 37.1 9.75 44.45 L13.85 52.9 14.8 54.35 14.4 54.35 13.25 54.55 Q10.35 50.8 9.3 47.4 8.55 44.9 7.45 43.45 L5.65 41.65 Q3.8 39.7 3.8 33.8 3.8 31.35 4.85 29.25 L5.65 28.0 5.65 27.95 Q6.45 27.3 9.85 21.5 13.85 14.75 14.7 14.3 18.1 12.35 22.8 9.95 26.5 8.1 27.15 7.9" fill="#d38105" fill-rule="evenodd" stroke="none"/>
    <path d="M46.15 9.45 L46.55 10.35 Q46.55 10.9 44.65 13.5 42.3 16.7 41.7 17.8 L41.65 18.15 41.9 18.35 Q43.2 18.35 45.9 17.0 48.55 15.65 49.85 15.65 51.05 15.65 54.4 19.4 58.15 23.55 58.15 26.45 L56.8 30.2 Q56.8 31.65 58.6 34.35 L60.4 36.8 Q60.4 38.55 59.15 40.55 57.85 42.6 57.75 45.0 L57.5 46.15 56.8 46.6 Q55.05 47.35 52.85 50.25 L50.65 55.3 48.95 58.2 Q48.0 57.3 47.0 57.4 L46.9 58.05 47.45 59.2 47.2 59.2 Q39.7 59.2 36.65 70.65 36.1 72.75 35.7 75.4 L35.0 74.4 34.15 73.35 Q34.35 70.75 34.85 68.7 35.75 65.05 41.9 57.8 L45.9 52.95 Q47.65 50.5 47.65 49.15 L47.45 48.6 47.25 48.1 47.5 46.75 47.8 45.35 Q47.8 43.6 42.25 42.4 L36.55 41.5 Q35.4 41.5 32.75 42.65 L29.6 44.0 29.0 43.9 28.9 43.25 Q29.3 42.4 30.45 41.8 31.15 41.45 32.6 40.85 33.9 40.2 34.6 39.05 37.05 38.85 37.05 37.8 37.05 37.5 36.65 37.05 36.2 36.55 35.75 36.55 L35.3 36.55 35.3 36.0 35.05 33.45 34.75 32.4 Q34.75 30.5 36.1 29.15 37.1 28.2 37.55 28.2 38.0 28.2 38.1 28.35 L38.2 29.75 37.9 30.9 Q37.55 32.1 37.55 32.6 37.55 34.75 40.55 37.35 43.75 40.15 47.1 40.15 51.05 40.15 52.55 35.5 L52.7 35.0 53.75 35.35 56.7 35.65 Q57.75 35.65 57.7 34.5 57.7 32.95 53.7 32.95 L53.1 33.15 Q53.6 30.2 53.6 25.8 53.6 24.05 52.7 22.2 51.65 20.0 50.05 20.0 48.3 20.0 44.55 21.25 L41.1 22.5 39.5 22.15 Q38.35 21.75 37.6 20.95 40.75 16.6 42.45 13.45 43.8 10.85 43.8 9.85 43.8 9.15 42.6 8.15 41.25 7.15 39.85 7.15 35.85 7.15 35.85 12.1 L37.15 14.35 Q37.15 16.75 36.15 17.8 35.3 18.7 33.55 18.7 31.25 18.7 29.65 17.05 28.0 15.4 26.65 15.4 23.75 15.4 21.3 17.55 18.65 19.8 17.5 23.65 16.8 25.85 15.45 27.35 L13.0 29.5 Q11.55 30.7 10.95 31.8 10.1 33.35 10.1 35.8 10.1 36.9 11.6 38.4 13.05 39.95 14.0 39.95 15.7 39.95 18.1 37.75 20.6 35.35 20.6 33.2 L20.2 30.85 20.5 30.15 Q20.5 29.45 20.1 28.7 L20.95 27.9 22.35 29.8 24.25 32.05 26.65 30.9 29.25 29.85 29.45 30.05 29.45 30.4 Q29.45 31.45 27.95 32.9 L24.55 35.65 Q19.6 39.5 19.6 41.8 L19.95 42.9 20.3 44.0 20.05 45.5 19.8 47.0 Q19.8 49.65 23.4 51.65 27.8 54.05 35.6 54.05 L38.1 53.75 41.25 53.25 Q35.95 56.55 33.35 60.6 31.05 64.2 31.05 68.1 L31.65 74.45 Q32.25 80.6 32.25 83.25 L32.1 86.5 31.4 94.8 29.45 100.1 Q28.65 102.1 28.2 103.75 26.5 102.55 26.5 104.2 26.5 104.6 27.4 105.55 L27.75 105.9 27.7 106.85 Q27.7 108.1 28.05 108.45 28.7 109.1 31.0 109.1 33.95 109.1 35.4 108.4 37.1 107.65 37.1 105.85 37.1 103.65 35.2 102.2 L33.9 101.2 Q33.3 100.7 33.3 100.2 33.3 94.65 33.6 91.75 L34.25 87.6 34.0 80.0 34.0 76.4 Q34.75 77.85 35.3 78.35 34.4 85.65 34.4 96.25 L34.5 97.5 34.85 99.45 Q35.95 96.7 36.6 90.8 L37.4 80.0 Q37.85 73.4 38.3 70.8 38.95 66.85 40.1 66.85 L41.35 67.05 42.8 67.25 Q41.9 71.95 41.0 80.35 40.0 89.5 40.0 94.8 40.0 97.1 40.9 99.2 L41.8 101.4 Q41.8 104.0 39.95 107.05 37.6 110.9 34.1 110.9 L26.7 110.35 Q24.6 109.5 24.6 105.95 24.6 105.55 25.5 103.7 L27.5 99.25 Q30.4 91.95 30.4 84.0 L30.1 82.15 29.9 81.9 29.6 85.2 28.75 91.15 Q27.05 99.4 22.95 100.25 L22.75 99.5 Q24.3 91.55 24.45 85.35 L25.45 84.45 Q26.45 83.4 26.45 82.75 26.45 81.3 24.8 82.2 L24.5 82.4 24.7 80.15 25.0 78.05 24.55 75.6 Q24.05 72.8 24.05 70.9 24.05 68.6 27.45 66.05 L29.75 64.4 30.8 63.35 Q30.8 62.9 30.5 62.75 L29.0 62.4 Q24.7 61.45 19.9 59.85 19.25 59.65 17.05 57.1 L16.8 56.8 17.05 56.75 Q17.9 56.5 17.9 55.8 17.9 54.9 17.1 54.6 L14.8 54.35 13.85 52.9 9.75 44.45 Q6.4 37.1 6.4 36.0 L7.35 33.75 8.0 32.3 9.4 32.35 Q10.65 32.1 10.65 31.1 10.65 30.45 10.05 30.35 L8.7 30.25 9.15 28.55 Q9.7 26.4 12.55 23.9 15.45 21.35 15.65 20.65 16.85 16.95 21.5 13.7 25.55 11.0 28.35 10.85 28.7 11.25 29.1 11.25 L29.7 11.1 Q30.6 11.45 31.65 12.35 L33.75 14.3 34.2 14.2 34.3 14.15 34.4 13.85 33.3 8.85 Q33.3 6.55 34.65 6.0 L40.2 5.6 Q42.3 5.6 44.15 7.15 43.65 7.5 43.65 7.95 L43.9 8.8 44.15 9.6 44.35 10.6 Q44.65 11.35 45.3 11.35 45.95 11.35 46.15 10.95 L46.25 10.2 46.15 9.45 M56.2 40.75 Q55.3 39.85 54.1 39.85 52.9 39.85 52.05 40.75 51.15 41.6 51.15 42.8 51.15 44.0 52.05 44.9 52.9 45.75 54.1 45.75 55.3 45.75 56.2 44.9 57.05 44.0 57.05 42.8 57.05 41.6 56.2 40.75 M18.65 43.95 Q18.0 43.05 17.05 43.05 16.1 43.05 15.45 43.95 14.8 44.85 14.8 46.1 14.8 47.35 15.45 48.25 16.1 49.15 17.05 49.15 18.0 49.15 18.65 48.25 19.3 47.35 19.3 46.1 19.3 44.85 18.65 43.95 M26.75 85.85 Q26.95 86.6 27.7 86.6 L28.05 86.55 Q27.75 84.95 28.8 78.1 29.7 71.95 28.75 70.65 28.15 71.3 27.3 77.45 26.6 82.8 26.6 83.8 26.6 85.35 26.75 85.85" fill="#f7ad1f" fill-rule="evenodd" stroke="none"/>
    <path d="M41.8 11.1 Q41.8 10.25 41.25 9.7 40.7 9.15 39.9 9.15 39.1 9.15 38.55 9.7 37.95 10.25 37.95 11.1 37.95 11.9 38.55 12.45 39.1 13.05 39.9 13.05 40.7 13.05 41.25 12.45 41.8 11.9 41.8 11.1 M20.2 30.85 L20.6 33.2 Q20.6 35.35 18.1 37.75 15.7 39.95 14.0 39.95 13.05 39.95 11.6 38.4 10.1 36.9 10.1 35.8 10.1 33.35 10.95 31.8 11.55 30.7 13.0 29.5 L15.45 27.35 Q16.8 25.85 17.5 23.65 18.65 19.8 21.3 17.55 23.75 15.4 26.65 15.4 28.0 15.4 29.65 17.05 31.25 18.7 33.55 18.7 35.3 18.7 36.15 17.8 37.15 16.75 37.15 14.35 L35.85 12.1 Q35.85 7.15 39.85 7.15 41.25 7.15 42.6 8.15 43.8 9.15 43.8 9.85 43.8 10.85 42.45 13.45 40.75 16.6 37.6 20.95 38.35 21.75 39.5 22.15 L41.1 22.5 44.55 21.25 Q48.3 20.0 50.05 20.0 51.65 20.0 52.7 22.2 53.6 24.05 53.6 25.8 53.6 30.2 53.1 33.15 L52.65 33.5 Q52.2 34.0 52.2 34.45 L52.7 35.0 52.55 35.5 Q51.05 40.15 47.1 40.15 43.75 40.15 40.55 37.35 37.55 34.75 37.55 32.6 37.55 32.1 37.9 30.9 L38.2 29.75 38.1 28.35 Q38.0 28.2 37.55 28.2 37.1 28.2 36.1 29.15 34.75 30.5 34.75 32.4 L35.05 33.45 35.3 36.0 35.3 36.55 33.45 36.9 Q32.35 37.3 32.35 38.15 L32.55 38.75 Q32.8 39.1 33.25 39.1 L34.6 39.05 Q33.9 40.2 32.6 40.85 31.15 41.45 30.45 41.8 29.3 42.4 28.9 43.25 L29.0 43.9 29.6 44.0 32.75 42.65 Q35.4 41.5 36.55 41.5 L42.25 42.4 Q47.8 43.6 47.8 45.35 L47.5 46.75 47.25 48.1 47.45 48.6 47.65 49.15 Q47.65 50.5 45.9 52.95 L41.9 57.8 Q35.75 65.05 34.85 68.7 34.35 70.75 34.15 73.35 33.15 72.55 33.15 74.75 L34.0 76.4 34.0 80.0 34.25 87.6 33.6 91.75 Q33.3 94.65 33.3 100.2 33.3 100.7 33.9 101.2 L35.2 102.2 Q37.1 103.65 37.1 105.85 37.1 107.65 35.4 108.4 33.95 109.1 31.0 109.1 28.7 109.1 28.05 108.45 27.7 108.1 27.7 106.85 L27.75 105.9 Q28.6 106.65 29.35 106.65 L30.0 106.35 30.2 106.1 Q30.85 106.7 31.7 106.7 32.6 106.7 33.2 106.1 33.85 105.45 33.85 104.55 33.85 103.65 33.2 103.05 32.6 102.4 31.7 102.4 30.85 102.4 30.2 103.05 29.6 103.65 29.6 104.55 L29.65 104.95 28.35 103.85 28.2 103.75 Q28.65 102.1 29.45 100.1 L31.4 94.8 32.1 86.5 32.25 83.25 Q32.25 80.6 31.65 74.45 L31.05 68.1 Q31.05 64.2 33.35 60.6 35.95 56.55 41.25 53.25 L38.1 53.75 35.6 54.05 Q27.8 54.05 23.4 51.65 19.8 49.65 19.8 47.0 L20.05 45.5 20.3 44.0 19.95 42.9 19.6 41.8 Q19.6 39.5 24.55 35.65 L27.95 32.9 Q29.45 31.45 29.45 30.4 L29.45 30.05 29.25 29.85 26.65 30.9 24.25 32.05 22.35 29.8 20.95 27.9 20.1 28.7 19.05 27.35 Q17.6 25.95 17.6 27.7 17.6 28.1 18.25 29.4 19.0 30.95 19.75 30.95 L20.2 30.85 M48.35 27.15 Q47.4 25.85 45.95 25.85 44.55 25.85 43.55 27.15 42.6 28.45 42.6 30.3 42.6 32.15 43.55 33.5 44.55 34.8 45.95 34.8 47.4 34.8 48.35 33.5 49.35 32.15 49.35 30.3 49.35 28.45 48.35 27.15 M56.2 40.75 Q57.05 41.6 57.05 42.8 57.05 44.0 56.2 44.9 55.3 45.75 54.1 45.75 52.9 45.75 52.05 44.9 51.15 44.0 51.15 42.8 51.15 41.6 52.05 40.75 52.9 39.85 54.1 39.85 55.3 39.85 56.2 40.75 M32.75 21.55 Q32.2 21.1 31.2 21.1 28.45 21.1 26.0 23.0 23.75 24.75 23.75 26.2 23.75 27.55 25.45 27.55 28.55 27.55 30.7 26.55 33.35 25.35 33.35 22.9 33.35 22.05 32.75 21.55 M13.3 35.15 Q13.9 35.8 14.8 35.8 15.65 35.8 16.3 35.15 16.9 34.5 16.9 33.65 16.9 32.75 16.3 32.1 15.65 31.45 14.8 31.45 13.9 31.45 13.3 32.1 12.65 32.75 12.65 33.65 12.65 34.5 13.3 35.15 M18.65 43.95 Q19.3 44.85 19.3 46.1 19.3 47.35 18.65 48.25 18.0 49.15 17.05 49.15 16.1 49.15 15.45 48.25 14.8 47.35 14.8 46.1 14.8 44.85 15.45 43.95 16.1 43.05 17.05 43.05 18.0 43.05 18.65 43.95 M32.45 33.85 L31.85 33.8 Q29.2 34.95 26.9 37.45 24.9 39.7 23.75 42.35 22.65 44.9 22.95 46.65 23.25 48.45 25.1 48.45 L25.75 48.35 Q26.45 48.15 26.45 47.45 L26.1 46.95 25.75 46.3 29.2 40.8 Q32.6 35.45 32.6 34.35 L32.5 34.0 32.45 33.85 M39.7 46.6 Q38.1 45.75 35.8 45.75 33.5 45.75 31.9 46.6 30.25 47.4 30.25 48.6 30.25 49.75 31.9 50.55 33.5 51.4 35.8 51.4 38.1 51.4 39.7 50.55 41.35 49.75 41.35 48.6 41.35 47.4 39.7 46.6 M26.75 85.85 Q26.6 85.35 26.6 83.8 26.6 82.8 27.3 77.45 28.15 71.3 28.75 70.65 29.7 71.95 28.8 78.1 27.75 84.95 28.05 86.55 L27.7 86.6 Q26.95 86.6 26.75 85.85" fill="#fcd03a" fill-rule="evenodd" stroke="none"/>
    <path d="M41.8 11.1 Q41.8 11.9 41.25 12.45 40.7 13.05 39.9 13.05 39.1 13.05 38.55 12.45 37.95 11.9 37.95 11.1 37.95 10.25 38.55 9.7 39.1 9.15 39.9 9.15 40.7 9.15 41.25 9.7 41.8 10.25 41.8 11.1 M48.35 27.15 Q49.35 28.45 49.35 30.3 49.35 32.15 48.35 33.5 47.4 34.8 45.95 34.8 44.55 34.8 43.55 33.5 42.6 32.15 42.6 30.3 42.6 28.45 43.55 27.15 44.55 25.85 45.95 25.85 47.4 25.85 48.35 27.15 M32.75 21.55 Q33.35 22.05 33.35 22.9 33.35 25.35 30.7 26.55 28.55 27.55 25.45 27.55 23.75 27.55 23.75 26.2 23.75 24.75 26.0 23.0 28.45 21.1 31.2 21.1 32.2 21.1 32.75 21.55 M29.65 104.95 L29.6 104.55 Q29.6 103.65 30.2 103.05 30.85 102.4 31.7 102.4 32.6 102.4 33.2 103.05 33.85 103.65 33.85 104.55 33.85 105.45 33.2 106.1 32.6 106.7 31.7 106.7 30.85 106.7 30.2 106.1 L30.2 105.9 Q30.2 105.55 29.65 104.95 M13.3 35.15 Q12.65 34.5 12.65 33.65 12.65 32.75 13.3 32.1 13.9 31.45 14.8 31.45 15.65 31.45 16.3 32.1 16.9 32.75 16.9 33.65 16.9 34.5 16.3 35.15 15.65 35.8 14.8 35.8 13.9 35.8 13.3 35.15 M32.45 33.85 L32.5 34.0 32.6 34.35 Q32.6 35.45 29.2 40.8 L25.75 46.3 26.1 46.95 26.45 47.45 Q26.45 48.15 25.75 48.35 L25.1 48.45 Q23.25 48.45 22.95 46.65 22.65 44.9 23.75 42.35 24.9 39.7 26.9 37.45 29.2 34.95 31.85 33.8 L32.45 33.85 M39.7 46.6 Q41.35 47.4 41.35 48.6 41.35 49.75 39.7 50.55 38.1 51.4 35.8 51.4 33.5 51.4 31.9 50.55 30.25 49.75 30.25 48.6 30.25 47.4 31.9 46.6 33.5 45.75 35.8 45.75 38.1 45.75 39.7 46.6" fill="#feeaa5" fill-rule="evenodd" stroke="none"/>
    <path d="M44.15 7.15 L44.2 7.1 Q44.6 6.85 44.85 6.85 45.75 6.85 46.15 9.45 L46.25 10.2 46.15 10.95 Q45.95 11.35 45.3 11.35 44.65 11.35 44.35 10.6 L44.15 9.6 43.9 8.8 43.65 7.95 Q43.65 7.5 44.15 7.15 M48.95 58.2 L49.25 58.5 50.1 59.9 50.1 60.1 50.05 61.0 49.25 61.15 Q48.95 61.15 48.6 60.75 L47.75 59.65 47.45 59.2 46.9 58.05 47.0 57.4 Q48.0 57.3 48.95 58.2 M29.15 8.4 L29.35 8.7 Q30.1 9.9 30.1 10.3 L29.7 11.1 29.1 11.25 Q28.7 11.25 28.35 10.85 L27.65 9.8 27.05 8.3 27.15 7.9 27.2 7.55 28.0 7.4 Q28.5 7.4 29.15 8.4 M53.1 33.15 L53.7 32.95 Q57.7 32.95 57.7 34.5 57.75 35.65 56.7 35.65 L53.75 35.35 52.7 35.0 52.2 34.45 Q52.2 34.0 52.65 33.5 L53.1 33.15 M35.3 36.55 L35.75 36.55 Q36.2 36.55 36.65 37.05 37.05 37.5 37.05 37.8 37.05 38.85 34.6 39.05 L33.25 39.1 Q32.8 39.1 32.55 38.75 L32.35 38.15 Q32.35 37.3 33.45 36.9 L35.3 36.55 M34.15 73.35 L35.0 74.4 35.7 75.4 Q36.85 77.2 36.85 77.8 36.85 78.6 35.75 78.6 L35.3 78.35 Q34.75 77.85 34.0 76.4 L33.15 74.75 Q33.15 72.55 34.15 73.35 M13.25 54.55 L14.4 54.35 14.8 54.35 17.1 54.6 Q17.9 54.9 17.9 55.8 17.9 56.5 17.05 56.75 L16.8 56.8 15.55 56.85 15.15 56.85 Q14.2 56.75 13.5 56.3 12.75 55.8 12.75 55.2 12.75 54.75 13.25 54.55 M8.0 32.3 Q6.5 32.1 6.5 31.4 6.5 30.95 6.85 30.6 7.2 30.25 7.7 30.25 L8.7 30.25 10.05 30.35 Q10.65 30.45 10.65 31.1 10.65 32.1 9.4 32.35 L8.0 32.3 M20.2 30.85 L19.75 30.95 Q19.0 30.95 18.25 29.4 17.6 28.1 17.6 27.7 17.6 25.95 19.05 27.35 L20.1 28.7 Q20.5 29.45 20.5 30.15 L20.2 30.85 M28.2 103.75 L28.35 103.85 29.65 104.95 Q30.2 105.55 30.2 105.9 L30.2 106.1 30.0 106.35 29.35 106.65 Q28.6 106.65 27.75 105.9 L27.4 105.55 Q26.5 104.6 26.5 104.2 26.5 102.55 28.2 103.75 M37.65 114.3 Q37.65 113.7 38.15 113.45 L38.7 113.3 Q39.0 113.3 39.3 113.65 39.7 114.15 40.0 115.45 L39.85 116.15 39.0 116.3 Q38.4 116.3 38.0 115.4 37.65 114.7 37.65 114.3 M45.1 99.3 Q45.85 99.4 45.85 100.05 L45.35 101.1 45.05 101.45 Q44.4 102.0 43.55 102.0 L43.25 101.95 42.75 101.65 42.5 101.0 Q42.5 100.6 43.1 100.1 L43.4 99.85 Q44.2 99.25 44.75 99.25 L45.1 99.3 M24.45 85.35 L24.1 85.45 Q23.1 85.45 23.1 84.15 23.1 83.2 24.5 82.4 L24.8 82.2 Q26.45 81.3 26.45 82.75 26.45 83.4 25.45 84.45 L24.45 85.35" fill="#f3e8da" fill-rule="evenodd" stroke="none"/>
  </g>
</svg>
