<?xml version="1.0" encoding="UTF-8" standalone="no"?>
<svg xmlns:ffdec="https://www.free-decompiler.com/flash" xmlns:xlink="http://www.w3.org/1999/xlink" ffdec:objectType="shape" height="135.5px" width="67.15px" xmlns="http://www.w3.org/2000/svg">
  <g transform="matrix(1.0, 0.0, 0.0, 1.0, 29.35, 136.65)">
    <path d="M-8.6 -131.35 Q-5.5 -137.55 0.5 -136.5 6.45 -135.5 8.7 -131.7 L9.15 -130.95 7.45 -130.6 7.1 -131.15 Q6.05 -132.85 4.3 -133.85 5.45 -133.0 5.7 -131.7 L5.8 -130.3 4.5 -130.2 4.5 -131.4 Q4.1 -132.7 2.4 -133.5 -1.25 -135.25 -3.6 -132.6 L-5.0 -130.5 -5.2 -130.55 -5.45 -130.6 -6.3 -130.75 Q-5.65 -132.25 -4.55 -133.45 L-2.8 -134.9 Q-5.65 -134.1 -7.3 -131.05 L-8.35 -131.4 -8.55 -131.4 -8.6 -131.35 M13.0 -123.8 L17.3 -116.4 16.0 -116.0 15.9 -116.0 15.8 -115.95 14.9 -117.45 11.55 -123.25 11.7 -123.35 12.8 -123.75 13.0 -123.8 M22.3 -108.15 L27.05 -100.35 28.4 -98.05 28.3 -98.2 26.8 -97.7 25.7 -99.6 20.9 -107.4 21.85 -107.9 22.3 -108.15 M32.4 -89.15 Q33.8 -84.6 33.65 -80.7 L33.35 -80.6 32.1 -80.15 Q32.35 -84.0 30.95 -88.55 L31.85 -88.9 32.4 -89.15 M28.45 -69.0 L28.1 -68.7 26.75 -67.5 23.75 -65.45 23.85 -64.9 24.4 -60.75 22.9 -60.2 22.15 -65.6 22.15 -65.7 22.15 -65.8 22.1 -66.2 23.3 -66.95 25.7 -68.6 25.85 -68.65 28.45 -69.0 M25.75 -50.65 L26.45 -46.7 26.7 -45.25 27.1 -43.3 27.05 -43.3 27.1 -43.2 27.65 -41.1 27.0 -40.9 26.15 -40.65 25.65 -42.9 25.55 -43.3 25.6 -43.3 25.3 -44.75 25.1 -45.8 24.3 -50.25 24.5 -50.3 25.75 -50.65 M30.15 -32.15 L31.05 -29.25 33.55 -21.6 33.15 -22.75 31.75 -22.2 29.65 -28.8 28.7 -31.6 28.75 -31.65 30.15 -32.15 M35.8 -13.65 L37.45 -7.25 37.75 -5.8 37.8 -5.65 36.3 -5.15 36.3 -5.2 30.45 -3.55 Q21.2 -1.55 7.9 -1.15 -5.25 -1.25 -17.95 -3.3 -23.75 -4.4 -27.75 -5.7 L-28.45 -5.85 -29.3 -6.1 -29.3 -6.2 -29.3 -6.25 -29.15 -7.15 -29.15 -7.55 -28.9 -9.15 -28.7 -10.35 -28.7 -10.4 -28.45 -11.9 -28.2 -13.6 -28.15 -13.85 -27.7 -13.6 -26.7 -13.1 -26.85 -12.45 -26.95 -11.7 -26.95 -11.65 -27.2 -10.2 -27.15 -10.2 -27.3 -9.0 -27.6 -6.9 Q-20.7 -4.35 -9.7 -3.8 L-0.5 -2.85 9.65 -2.45 15.3 -2.85 23.55 -3.85 Q28.5 -4.65 33.95 -6.1 L36.0 -6.7 34.45 -13.0 35.8 -13.65 M-26.25 -23.2 L-24.45 -31.25 -24.1 -33.1 -23.9 -33.0 -22.65 -32.35 Q-23.55 -27.5 -24.8 -22.55 L-25.9 -23.05 -26.25 -23.2 M-22.5 -42.2 L-22.35 -43.3 -22.3 -43.3 -21.85 -47.8 -21.35 -52.45 -21.45 -51.35 -19.95 -50.75 -20.3 -47.65 -20.75 -43.3 -20.8 -43.3 -21.05 -41.55 -22.15 -42.0 -22.5 -42.2 M-20.5 -61.1 L-20.4 -62.65 -20.35 -63.35 -20.05 -66.3 -19.95 -70.6 -18.45 -70.15 -18.55 -66.25 -18.85 -63.15 -18.85 -62.55 -19.0 -60.45 -20.05 -60.85 -20.5 -61.1 M-19.75 -80.65 L-19.7 -83.0 -19.6 -88.9 -18.1 -88.35 -18.25 -81.8 -18.25 -80.1 -19.15 -80.4 -19.75 -80.65 M-19.2 -96.85 Q-17.9 -111.55 -12.05 -124.3 L-11.85 -124.75 -10.55 -124.0 -10.7 -123.7 -11.9 -120.9 -13.55 -116.45 -14.95 -117.0 Q-16.45 -112.75 -17.4 -108.25 L-17.25 -108.15 -16.05 -107.5 Q-17.05 -102.95 -17.55 -98.2 L-18.1 -98.4 -19.0 -98.85 -19.2 -96.85 M-5.85 -122.45 L-1.45 -121.9 -2.0 -121.75 -2.45 -121.65 -3.7 -121.5 Q-4.8 -121.55 -5.5 -122.15 L-5.85 -122.45" fill="#574d02" fill-rule="evenodd" stroke="none"/>
    <path d="M-7.3 -131.05 Q-5.65 -134.1 -2.8 -134.9 L-4.55 -133.45 Q-5.65 -132.25 -6.3 -130.75 L-7.3 -131.05 M5.8 -130.3 L5.7 -131.7 Q5.45 -133.0 4.3 -133.85 6.05 -132.85 7.1 -131.15 L7.45 -130.6 5.95 -130.35 5.8 -130.3 M14.15 -105.5 L14.85 -105.65 17.8 -106.35 19.45 -106.85 20.9 -107.4 25.7 -99.6 26.8 -97.7 25.8 -97.45 24.15 -97.0 Q20.4 -105.95 17.5 -105.95 15.35 -105.95 15.25 -101.45 15.15 -99.1 15.35 -95.75 L15.1 -95.75 13.1 -95.6 13.6 -100.45 14.1 -105.5 14.15 -105.5 M15.8 -115.95 L15.7 -115.95 Q12.75 -115.15 9.25 -114.75 L9.15 -114.75 7.7 -122.3 9.7 -122.7 11.55 -123.25 14.9 -117.45 15.8 -115.95 M-8.65 -123.2 Q-9.7 -120.45 -10.2 -116.95 L-9.55 -115.4 -11.95 -116.0 -12.4 -116.1 -13.55 -116.45 -11.9 -120.9 -10.7 -123.7 -10.55 -124.0 -9.6 -123.55 -8.9 -123.35 -8.65 -123.2 M30.95 -88.55 Q32.35 -84.0 32.1 -80.15 L29.55 -79.45 28.6 -79.2 Q29.05 -80.45 29.05 -81.65 29.05 -83.15 27.6 -87.6 L28.6 -87.85 30.95 -88.55 M18.5 -86.1 Q20.05 -79.8 20.7 -78.05 L20.7 -78.0 17.65 -77.75 15.35 -77.6 14.8 -80.65 Q14.8 -82.1 15.65 -85.1 L15.9 -85.9 18.2 -86.1 18.5 -86.1 M17.15 -67.85 L21.1 -68.1 25.7 -68.6 23.3 -66.95 22.1 -66.2 22.15 -65.8 22.15 -65.7 22.15 -65.6 22.9 -60.2 21.8 -59.9 20.1 -59.45 19.95 -59.45 19.7 -59.4 18.55 -59.15 17.15 -67.85 M18.35 -49.05 L18.65 -49.1 22.4 -49.8 24.3 -50.25 25.1 -45.8 25.3 -44.75 25.6 -43.3 25.55 -43.3 25.65 -42.9 26.15 -40.65 24.25 -40.2 21.7 -39.65 19.95 -41.65 Q18.6 -42.8 17.4 -43.3 L17.45 -43.3 14.6 -43.6 16.45 -46.55 18.35 -49.05 M21.75 -29.95 L21.9 -30.0 21.95 -30.0 25.0 -30.65 28.7 -31.6 29.65 -28.8 31.75 -22.2 30.9 -21.95 27.2 -20.95 21.9 -19.9 23.2 -21.1 Q24.95 -22.85 24.9 -25.05 24.85 -27.05 24.3 -27.6 L21.75 -29.95 M-16.4 -30.45 Q-16.85 -28.05 -16.9 -24.9 -16.95 -23.1 -16.4 -22.25 L-14.45 -20.0 -19.4 -20.95 -20.95 -21.35 -24.8 -22.55 Q-23.55 -27.5 -22.65 -32.35 -21.35 -31.75 -19.5 -31.25 L-17.15 -30.65 -16.4 -30.45 M29.4 -11.3 L31.65 -11.95 Q33.25 -12.45 34.45 -13.0 L36.0 -6.7 33.95 -6.1 Q28.5 -4.65 23.55 -3.85 L15.3 -2.85 9.65 -2.45 -0.5 -2.85 -9.7 -3.8 Q-20.7 -4.35 -27.6 -6.9 L-27.3 -9.0 -27.15 -10.2 -27.2 -10.2 -26.95 -11.65 -26.95 -11.7 -26.85 -12.45 -26.7 -13.1 Q-25.3 -12.4 -23.15 -11.75 L-21.3 -11.25 Q-20.95 -10.5 -20.45 -10.1 -20.05 -9.7 -14.9 -8.4 -8.5 -6.75 0.65 -6.0 L10.45 -5.6 Q25.4 -5.6 29.4 -11.3 M-16.05 -107.5 L-13.85 -106.65 -12.8 -106.35 -12.1 -106.15 Q-12.55 -103.0 -12.55 -99.4 -12.55 -98.75 -10.45 -97.35 L-8.8 -96.25 -8.85 -96.25 -13.1 -97.0 -13.7 -97.1 -17.55 -98.2 Q-17.05 -102.95 -16.05 -107.5 M-18.1 -88.35 L-15.6 -87.65 -14.4 -87.4 -14.4 -86.25 -14.2 -79.1 -14.25 -79.1 -18.25 -80.1 -18.25 -81.8 -18.1 -88.35 M-18.45 -70.15 L-16.4 -69.65 -14.8 -69.35 -12.65 -68.95 -11.7 -68.8 Q-12.1 -65.95 -13.4 -61.7 L-14.05 -59.2 -15.3 -59.45 -15.85 -59.55 -19.0 -60.45 -18.85 -62.55 -18.85 -63.15 -18.55 -66.25 -18.45 -70.15 M-19.95 -50.75 L-17.65 -50.1 -16.3 -49.8 -15.15 -49.55 -15.25 -46.55 -15.3 -43.8 -15.25 -43.3 -15.3 -43.3 Q-15.25 -41.55 -14.1 -40.2 L-13.5 -39.6 -13.85 -39.65 -16.4 -40.2 -18.05 -40.6 -21.05 -41.55 -20.8 -43.3 -20.75 -43.3 -20.3 -47.65 -19.95 -50.75" fill="#dabf05" fill-rule="evenodd" stroke="none"/>
    <path d="M7.7 -122.3 L9.15 -114.75 6.35 -114.5 Q5.6 -116.0 4.9 -116.0 L1.5 -114.4 -1.55 -114.45 -4.3 -114.65 -7.3 -115.0 -7.65 -115.05 -9.55 -115.4 -10.2 -116.95 Q-9.7 -120.45 -8.65 -123.2 L-7.9 -122.95 -5.95 -122.5 -5.9 -122.5 Q-6.95 -120.0 -6.95 -117.25 L-6.9 -116.15 -4.15 -116.0 1.75 -116.55 Q4.9 -117.25 4.9 -118.7 L4.75 -121.95 5.25 -122.0 7.55 -122.3 7.7 -122.3 M6.8 -104.7 L8.2 -104.8 11.6 -105.1 14.1 -105.5 13.6 -100.45 13.1 -95.6 11.0 -95.5 Q12.0 -100.4 12.6 -104.8 L12.45 -105.2 7.95 -99.7 Q5.05 -96.4 3.3 -95.4 L1.55 -95.4 1.55 -95.55 Q1.55 -96.95 4.65 -101.15 L6.8 -104.7 M15.35 -95.75 Q15.15 -99.1 15.25 -101.45 15.35 -105.95 17.5 -105.95 20.4 -105.95 24.15 -97.0 L24.0 -97.0 23.85 -97.0 23.6 -96.95 21.5 -96.55 20.2 -98.1 19.3 -97.05 19.35 -96.2 15.35 -95.75 M24.8 -87.0 L26.4 -87.35 27.6 -87.6 Q29.05 -83.15 29.05 -81.65 29.05 -80.45 28.6 -79.2 L27.55 -79.0 27.4 -79.0 27.1 -78.95 20.7 -78.0 20.7 -78.05 Q20.05 -79.8 18.5 -86.1 L22.35 -86.6 23.45 -84.25 24.4 -85.0 Q24.8 -85.8 24.8 -86.5 L24.8 -87.0 M9.5 -85.6 L13.65 -85.8 13.7 -85.8 15.9 -85.9 15.65 -85.1 Q14.8 -82.1 14.8 -80.65 L15.35 -77.6 11.2 -77.45 10.35 -81.15 9.5 -85.6 M13.85 -67.7 L16.05 -67.8 16.1 -67.8 17.15 -67.85 18.55 -59.15 14.35 -58.5 13.85 -67.7 M13.55 -48.45 L14.55 -48.55 18.35 -49.05 16.45 -46.55 14.6 -43.6 17.45 -43.3 17.4 -43.3 Q18.6 -42.8 19.95 -41.65 L21.7 -39.65 18.15 -39.1 11.1 -38.45 11.05 -38.45 10.9 -38.45 8.95 -40.45 Q10.2 -41.7 11.25 -43.3 L11.85 -44.35 12.8 -46.55 13.55 -48.45 M15.8 -29.15 L21.75 -29.95 24.3 -27.6 Q24.85 -27.05 24.9 -25.05 24.95 -22.85 23.2 -21.1 L21.9 -19.9 20.3 -19.7 17.45 -19.35 17.4 -19.35 17.65 -19.65 Q20.25 -22.7 20.2 -25.4 20.2 -27.5 18.7 -28.15 17.15 -28.6 15.8 -29.15 M-11.5 -29.55 L-11.7 -24.4 Q-11.75 -23.65 -7.9 -23.3 L6.9 -21.5 7.05 -21.35 8.05 -21.05 Q4.95 -19.8 0.6 -19.1 L-1.35 -18.8 -11.3 -19.55 -14.45 -20.0 -16.4 -22.25 Q-16.95 -23.1 -16.9 -24.9 -16.85 -28.05 -16.4 -30.45 L-14.35 -30.05 -11.5 -29.55 M-10.35 -9.4 L-10.3 -9.4 -8.55 -9.0 2.55 -8.45 9.05 -8.7 12.45 -8.95 16.8 -9.3 Q16.85 -9.1 16.9 -9.3 L25.5 -10.45 28.05 -11.0 29.4 -11.3 Q25.4 -5.6 10.45 -5.6 L0.65 -6.0 Q-8.5 -6.75 -14.9 -8.4 -20.05 -9.7 -20.45 -10.1 -20.95 -10.5 -21.3 -11.25 L-20.2 -11.0 -17.45 -10.45 -14.1 -9.9 -10.35 -9.4 M-12.1 -106.15 L-11.3 -105.95 -10.3 -105.7 Q-10.3 -99.4 -9.45 -98.7 L-1.3 -98.35 -3.45 -95.7 -6.95 -96.0 -7.35 -96.05 -8.8 -96.25 -10.45 -97.35 Q-12.55 -98.75 -12.55 -99.4 -12.55 -103.0 -12.1 -106.15 M-14.4 -87.4 L-14.2 -87.35 -12.25 -86.95 -8.25 -86.35 Q-8.9 -83.25 -8.95 -78.25 L-13.6 -79.0 -14.2 -79.1 -14.4 -86.25 -14.4 -87.4 M-11.7 -68.8 L-8.6 -68.4 -10.55 -66.4 -10.95 -58.65 -14.05 -59.2 -13.4 -61.7 Q-12.1 -65.95 -11.7 -68.8 M-11.25 -48.9 L-11.3 -46.55 -11.3 -46.0 Q-11.3 -44.55 -10.7 -44.0 -10.1 -43.4 -8.75 -43.4 L0.35 -44.8 -0.85 -43.3 Q-2.95 -41.0 -5.95 -38.6 L-10.35 -39.1 -13.5 -39.6 -14.1 -40.2 Q-15.25 -41.55 -15.3 -43.3 L-15.25 -43.3 -15.3 -43.8 -15.25 -46.55 -15.15 -49.55 -14.45 -49.4 -11.25 -48.9" fill="#fadf27" fill-rule="evenodd" stroke="none"/>
    <path d="M4.75 -121.95 L4.9 -118.7 Q4.9 -117.25 1.75 -116.55 L-4.15 -116.0 -6.9 -116.15 -6.95 -117.25 Q-6.95 -120.0 -5.9 -122.5 L-5.85 -122.45 -5.5 -122.15 Q-4.8 -121.55 -3.7 -121.5 L-3.75 -121.0 -3.6 -120.05 -3.55 -120.35 Q-3.55 -120.9 -2.45 -121.65 L-2.0 -121.75 -1.45 -121.9 -1.4 -121.9 1.4 -121.85 1.5 -121.85 -2.85 -120.0 -3.55 -119.95 -2.95 -119.1 Q-2.15 -118.3 -1.0 -118.3 0.15 -118.3 0.95 -119.1 1.75 -119.9 1.75 -121.0 L1.65 -121.85 4.75 -121.95 M1.5 -114.4 L4.9 -116.0 Q5.6 -116.0 6.35 -114.5 L4.75 -114.45 1.95 -114.4 1.5 -114.4 M-0.9 -104.65 L2.5 -104.6 6.8 -104.7 4.65 -101.15 Q1.55 -96.95 1.55 -95.55 L1.55 -95.4 0.75 -95.45 -2.9 -95.65 -3.45 -95.7 -1.3 -98.35 -9.45 -98.7 Q-10.3 -99.4 -10.3 -105.7 L-6.7 -105.1 -7.2 -103.65 -7.0 -102.7 -6.85 -102.3 Q-3.7 -102.85 -0.9 -104.65 M3.3 -95.4 Q5.05 -96.4 7.95 -99.7 L12.45 -105.2 12.6 -104.8 Q12.0 -100.4 11.0 -95.5 L9.05 -95.45 8.4 -95.4 8.55 -96.05 7.7 -96.2 7.0 -95.4 5.35 -95.4 3.3 -95.4 M22.35 -86.6 L22.45 -86.65 24.8 -87.0 24.8 -86.5 Q24.8 -85.8 24.4 -85.0 L23.45 -84.25 22.35 -86.6 M19.35 -96.2 L19.3 -97.05 20.2 -98.1 21.5 -96.55 19.35 -96.2 M4.0 -85.6 L6.15 -85.6 9.5 -85.6 10.35 -81.15 11.2 -77.45 11.0 -77.45 7.55 -77.4 Q7.5 -78.2 7.2 -78.25 L6.6 -78.3 6.15 -77.4 1.75 -77.45 -2.3 -77.65 -2.7 -77.65 Q0.05 -79.85 2.9 -84.0 L4.0 -85.6 M-8.25 -86.35 L-2.8 -85.85 Q-6.8 -81.8 -6.8 -78.35 L-6.8 -78.0 -7.25 -78.05 -8.95 -78.25 Q-8.9 -83.25 -8.25 -86.35 M11.05 -67.6 L13.85 -67.7 14.35 -58.5 11.55 -58.2 11.3 -58.15 11.5 -61.0 11.3 -62.45 10.7 -61.7 Q11.2 -65.4 11.05 -67.6 M-6.0 -48.35 L-5.95 -48.35 Q-5.15 -48.0 -4.05 -48.0 L-3.1 -48.15 2.7 -48.05 Q2.85 -47.75 3.15 -47.7 L3.95 -47.35 Q5.1 -47.35 6.15 -48.05 L10.25 -48.25 10.3 -48.25 13.55 -48.45 12.8 -46.55 11.85 -44.35 11.25 -43.3 Q10.2 -41.7 8.95 -40.45 L10.9 -38.45 5.85 -38.25 Q9.7 -43.2 5.25 -43.2 3.05 -43.2 -2.4 -38.95 L-3.05 -38.4 -5.95 -38.6 Q-2.95 -41.0 -0.85 -43.3 L0.35 -44.8 -8.75 -43.4 Q-10.1 -43.4 -10.7 -44.0 -11.3 -44.55 -11.3 -46.0 L-11.3 -46.55 -11.25 -48.9 -6.0 -48.35 M8.4 -28.7 L12.0 -28.85 15.8 -29.15 Q17.15 -28.6 18.7 -28.15 20.2 -27.5 20.2 -25.4 20.25 -22.7 17.65 -19.65 L17.4 -19.35 10.7 -18.9 Q7.45 -18.75 3.95 -18.75 L0.45 -18.75 -1.35 -18.8 0.6 -19.1 Q4.95 -19.8 8.05 -21.05 L7.05 -21.35 6.9 -21.5 -7.9 -23.3 Q-11.75 -23.65 -11.7 -24.4 L-11.5 -29.55 -11.3 -29.55 -7.85 -29.15 Q-6.2 -27.35 -0.6 -25.15 7.15 -22.05 12.15 -22.05 15.15 -22.05 15.15 -24.75 15.1 -27.1 9.0 -28.55 L8.4 -28.7 M-10.3 -9.4 L-9.3 -9.3 -1.8 -8.85 1.95 -8.75 2.05 -8.75 3.95 -8.75 12.2 -8.95 12.45 -8.95 9.05 -8.7 2.55 -8.45 -8.55 -9.0 -10.3 -9.4 M-8.55 -68.4 L-4.95 -68.05 Q-7.9 -64.6 -7.9 -60.5 -7.9 -58.25 -5.3 -58.25 L-0.05 -58.85 -1.0 -57.85 -2.1 -57.9 -5.55 -58.1 -9.4 -58.45 -9.8 -58.5 -10.95 -58.65 -10.55 -66.4 -8.6 -68.4 -8.55 -68.4" fill="#fbe757" fill-rule="evenodd" stroke="none"/>
    <path d="M1.65 -121.85 L1.75 -121.0 Q1.75 -119.9 0.95 -119.1 0.15 -118.3 -1.0 -118.3 -2.15 -118.3 -2.95 -119.1 L-3.55 -119.95 -2.85 -120.0 1.5 -121.85 1.65 -121.85 M-6.7 -105.1 L-0.9 -104.65 Q-3.7 -102.85 -6.85 -102.3 L-7.0 -102.7 -7.2 -103.65 -6.7 -105.1 M7.0 -95.4 L7.7 -96.2 8.55 -96.05 8.4 -95.4 7.0 -95.4 M4.0 -85.6 L2.9 -84.0 Q0.05 -79.85 -2.7 -77.65 L-6.75 -78.0 -6.8 -78.0 -6.8 -78.35 Q-6.8 -81.8 -2.8 -85.85 L4.0 -85.6 M6.15 -77.4 L6.6 -78.3 7.2 -78.25 Q7.5 -78.2 7.55 -77.4 L6.9 -77.4 6.15 -77.4 M-4.95 -68.05 L7.7 -67.6 11.05 -67.6 Q11.2 -65.4 10.7 -61.7 L11.3 -62.45 11.5 -61.0 11.3 -58.15 5.9 -57.9 2.35 -57.85 -1.0 -57.85 -0.05 -58.85 -5.3 -58.25 Q-7.9 -58.25 -7.9 -60.5 -7.9 -64.6 -4.95 -68.05 M-5.95 -48.35 L-3.1 -48.15 -4.05 -48.0 Q-5.15 -48.0 -5.95 -48.35 M2.7 -48.05 L3.05 -48.05 6.15 -48.05 Q5.1 -47.35 3.95 -47.35 L3.15 -47.7 Q2.85 -47.75 2.7 -48.05 M-3.05 -38.4 L-2.4 -38.95 Q3.05 -43.2 5.25 -43.2 9.7 -43.2 5.85 -38.25 L3.95 -38.25 Q0.25 -38.25 -3.05 -38.4 M8.4 -28.7 L9.0 -28.55 Q15.1 -27.1 15.15 -24.75 15.15 -22.05 12.15 -22.05 7.15 -22.05 -0.6 -25.15 -6.2 -27.35 -7.85 -29.15 L3.95 -28.65 8.4 -28.7 M-2.45 -121.65 Q-3.55 -120.9 -3.55 -120.35 L-3.6 -120.05 -3.75 -121.0 -3.7 -121.5 -2.45 -121.65" fill="#fced87" fill-rule="evenodd" stroke="none"/>
    <path d="M-8.6 -131.35 L-8.55 -131.4 -8.35 -131.4 -7.3 -131.05 -7.75 -130.2 -10.55 -124.0 -11.85 -124.75 -8.6 -131.35 M-6.3 -130.75 L-5.45 -130.6 -5.2 -130.55 -5.0 -130.5 -5.7 -128.25 Q-5.9 -127.05 -5.75 -125.7 L-5.3 -123.85 -4.75 -123.15 Q-4.1 -122.7 -3.0 -122.8 L-2.35 -122.95 Q-1.45 -123.2 -0.6 -123.65 1.45 -124.8 3.1 -127.15 L3.7 -128.1 3.65 -128.1 4.35 -129.7 4.5 -130.2 5.8 -130.3 5.35 -128.65 4.75 -127.45 3.8 -126.0 Q2.5 -124.3 1.05 -123.25 L0.8 -123.05 0.65 -122.95 -0.9 -122.15 -1.4 -121.9 -1.45 -121.9 -5.85 -122.45 -5.9 -122.5 Q-6.85 -123.55 -7.0 -125.6 L-7.05 -126.4 Q-7.15 -128.8 -6.3 -130.75 M7.45 -130.6 L9.15 -130.95 9.55 -130.25 11.8 -125.85 12.55 -124.55 13.0 -123.8 12.8 -123.75 11.7 -123.35 11.55 -123.25 11.0 -124.3 10.1 -125.85 7.45 -130.6 M17.3 -116.4 L22.3 -108.15 21.85 -107.9 20.9 -107.4 15.8 -115.95 15.9 -116.0 16.0 -116.0 17.3 -116.4 M28.4 -98.05 L31.1 -92.65 31.8 -90.85 32.4 -89.15 31.85 -88.9 30.95 -88.55 Q29.6 -92.85 26.8 -97.7 L28.3 -98.2 28.4 -98.05 M33.65 -80.7 L33.55 -79.5 33.5 -78.8 33.4 -78.4 29.4 -70.05 28.45 -69.0 25.85 -68.65 25.7 -68.6 26.35 -69.15 27.65 -70.35 Q31.5 -74.35 32.05 -79.65 L32.1 -80.15 33.35 -80.6 33.65 -80.7 M24.4 -60.75 L24.7 -58.05 24.75 -57.75 25.75 -50.65 24.5 -50.3 24.3 -50.25 Q23.6 -54.25 23.2 -57.85 L22.9 -60.2 24.4 -60.75 M27.65 -41.1 L28.9 -36.25 29.15 -35.5 30.15 -32.15 28.75 -31.65 28.7 -31.6 28.35 -32.75 27.3 -36.25 26.15 -40.65 27.0 -40.9 27.65 -41.1 M33.55 -21.6 L34.6 -17.9 34.7 -17.55 35.05 -16.4 35.3 -15.65 35.2 -15.7 35.65 -14.05 35.8 -13.65 34.45 -13.0 34.2 -13.65 34.15 -13.75 34.0 -14.45 33.7 -15.3 33.7 -15.35 33.5 -16.0 33.5 -16.05 31.75 -22.2 33.15 -22.75 33.55 -21.6 M-28.15 -13.85 L-26.45 -22.35 -26.25 -23.2 -25.9 -23.05 -24.8 -22.55 -24.95 -22.05 -26.7 -13.1 -27.7 -13.6 -28.15 -13.85 M-24.1 -33.1 L-24.05 -33.35 -23.5 -36.25 -22.5 -42.2 -22.15 -42.0 -21.05 -41.55 -21.6 -37.95 -21.9 -36.25 -22.45 -33.4 -22.5 -33.15 -22.65 -32.35 -23.9 -33.0 -24.1 -33.1 M-21.35 -52.45 L-20.6 -60.2 -20.5 -61.1 -20.05 -60.85 -19.0 -60.45 -19.85 -51.85 -19.95 -50.75 -21.45 -51.35 -21.35 -52.45 M-19.95 -70.6 L-19.85 -74.35 -19.75 -80.65 -19.15 -80.4 -18.25 -80.1 -18.45 -70.15 -19.95 -70.6 M-19.6 -88.9 L-19.6 -89.35 -19.55 -90.8 -19.2 -96.85 -19.0 -98.85 -18.1 -98.4 -17.55 -98.2 -18.05 -90.65 -18.1 -89.35 -18.1 -88.35 -19.6 -88.9 M-16.05 -107.5 L-17.25 -108.15 -17.4 -108.25 Q-16.45 -112.75 -14.95 -117.0 L-13.55 -116.45 Q-15.05 -112.1 -16.05 -107.5" fill="#17140f" fill-rule="evenodd" stroke="none"/>
    <path d="M5.8 -130.3 L5.95 -130.35 7.45 -130.6 10.1 -125.85 11.0 -124.3 11.55 -123.25 9.7 -122.7 7.7 -122.3 6.6 -126.35 5.35 -128.65 5.8 -130.3 M14.15 -105.5 L14.35 -107.85 14.7 -111.85 14.7 -111.95 14.7 -112.05 14.7 -112.7 14.65 -112.6 14.25 -112.95 Q13.25 -112.15 11.75 -109.5 10.45 -107.2 10.4 -106.7 L9.15 -114.75 9.25 -114.75 Q12.75 -115.15 15.7 -115.95 L15.8 -115.95 20.9 -107.4 19.45 -106.85 17.8 -106.35 14.85 -105.65 14.15 -105.5 M24.15 -97.0 L25.8 -97.45 26.8 -97.7 Q29.6 -92.85 30.95 -88.55 L28.6 -87.85 27.6 -87.6 25.25 -94.2 25.2 -94.3 24.15 -97.0 M28.6 -79.2 L29.55 -79.45 32.1 -80.15 32.05 -79.65 Q31.5 -74.35 27.65 -70.35 L26.35 -69.15 25.7 -68.6 21.1 -68.1 17.15 -67.85 17.0 -68.65 15.35 -77.6 17.65 -77.75 20.7 -78.0 Q22.1 -74.2 23.95 -74.2 25.4 -74.2 27.2 -76.75 L27.5 -77.2 28.6 -79.2 M15.35 -95.75 Q14.75 -91.7 13.8 -89.25 L12.85 -87.2 Q12.45 -88.8 12.45 -89.8 L13.1 -95.6 15.1 -95.75 15.35 -95.75 M15.9 -85.9 Q16.7 -88.5 17.55 -89.9 L18.5 -86.1 18.2 -86.1 15.9 -85.9 M18.55 -59.15 L19.7 -59.4 19.95 -59.45 20.1 -59.45 21.8 -59.9 22.9 -60.2 23.2 -57.85 Q23.6 -54.25 24.3 -50.25 L22.4 -49.8 18.65 -49.1 18.35 -49.05 18.7 -49.6 Q19.2 -50.55 19.2 -52.15 L18.55 -59.15 M21.7 -39.65 L24.25 -40.2 26.15 -40.65 27.3 -36.25 28.35 -32.75 28.7 -31.6 25.0 -30.65 21.95 -30.0 21.9 -30.0 21.75 -29.95 20.8 -31.0 Q21.8 -32.2 22.5 -33.85 L23.0 -35.4 22.95 -36.25 Q22.7 -38.1 21.7 -39.65 M21.9 -19.9 L27.2 -20.95 30.9 -21.95 31.75 -22.2 33.5 -16.05 33.5 -16.0 33.7 -15.35 33.7 -15.3 34.0 -14.45 34.15 -13.75 34.2 -13.65 34.45 -13.0 Q33.25 -12.45 31.65 -11.95 L29.4 -11.3 30.3 -13.1 Q29.45 -13.9 26.1 -14.7 L21.45 -15.5 17.85 -15.15 17.8 -16.35 21.9 -19.9 M-21.3 -11.25 L-23.15 -11.75 Q-25.3 -12.4 -26.7 -13.1 L-24.95 -22.05 -24.8 -22.55 -20.95 -21.35 -19.4 -20.95 -14.45 -20.0 -13.7 -19.15 Q-21.75 -19.4 -21.85 -15.55 -21.9 -12.75 -21.3 -11.25 M-7.3 -131.05 L-6.3 -130.75 Q-7.15 -128.8 -7.05 -126.4 -7.95 -125.0 -8.65 -123.2 L-8.9 -123.35 -9.6 -123.55 -10.55 -124.0 -7.75 -130.2 -7.3 -131.05 M-13.55 -116.45 L-12.4 -116.1 -11.95 -116.0 -9.55 -115.4 -8.9 -113.75 Q-10.95 -112.95 -11.9 -107.55 L-12.1 -106.15 -12.8 -106.35 -13.85 -106.65 -16.05 -107.5 Q-15.05 -112.1 -13.55 -116.45 M-8.85 -96.25 L-8.2 -95.8 -7.1 -95.05 -7.05 -95.0 -8.35 -94.5 -13.35 -94.65 Q-14.45 -94.3 -14.45 -92.4 L-14.4 -87.4 -15.6 -87.65 -18.1 -88.35 -18.1 -89.35 -18.05 -90.65 -17.55 -98.2 -13.7 -97.1 -13.1 -97.0 -8.85 -96.25 M-14.2 -79.1 L-14.15 -78.4 Q-13.95 -75.85 -12.7 -73.9 -11.55 -72.1 -11.55 -70.9 L-11.7 -68.8 -12.65 -68.95 -14.8 -69.35 -16.4 -69.65 -18.45 -70.15 -18.25 -80.1 -14.25 -79.1 -14.2 -79.1 M-19.0 -60.45 L-15.85 -59.55 -15.3 -59.45 -14.05 -59.2 -14.7 -55.0 -14.75 -54.8 -15.1 -50.95 -15.15 -49.55 -16.3 -49.8 -17.65 -50.1 -19.95 -50.75 -19.85 -51.85 -19.0 -60.45 M-21.05 -41.55 L-18.05 -40.6 -16.4 -40.2 -13.85 -39.65 -13.5 -39.6 Q-12.5 -38.7 -11.1 -38.7 -12.95 -38.0 -14.15 -36.25 -15.7 -34.15 -16.4 -30.45 L-17.15 -30.65 -19.5 -31.25 Q-21.35 -31.75 -22.65 -32.35 L-22.5 -33.15 -22.45 -33.4 -21.9 -36.25 -21.6 -37.95 -21.05 -41.55" fill="#2a251d" fill-rule="evenodd" stroke="none"/>
    <path d="M3.8 -126.0 L4.75 -127.45 5.35 -128.65 6.6 -126.35 7.7 -122.3 7.55 -122.3 5.25 -122.0 4.75 -121.95 Q4.5 -124.4 3.8 -126.0 M9.15 -114.75 L10.4 -106.7 Q10.45 -107.2 11.75 -109.5 13.25 -112.15 14.25 -112.95 L14.65 -112.6 14.7 -112.7 14.7 -112.05 14.7 -111.95 14.7 -111.85 14.35 -107.85 14.15 -105.5 14.1 -105.5 11.6 -105.1 8.2 -104.8 6.8 -104.7 7.3 -106.05 7.7 -108.1 7.7 -108.2 7.7 -108.3 7.7 -108.45 Q7.7 -110.9 6.8 -113.4 L6.35 -114.5 9.15 -114.75 M-5.95 -122.5 L-7.9 -122.95 -8.65 -123.2 Q-7.95 -125.0 -7.05 -126.4 L-7.0 -125.6 Q-6.85 -123.55 -5.9 -122.5 L-5.95 -122.5 M-9.55 -115.4 L-7.65 -115.05 -7.3 -115.0 -4.3 -114.65 -1.55 -114.45 1.5 -114.4 Q-1.7 -113.0 -4.0 -112.35 -7.5 -111.35 -8.95 -109.85 -10.3 -108.45 -10.3 -106.1 L-10.3 -105.7 -11.3 -105.95 -12.1 -106.15 -11.9 -107.55 Q-10.95 -112.95 -8.9 -113.75 L-9.55 -115.4 M11.0 -95.5 L13.1 -95.6 12.45 -89.8 Q12.45 -88.8 12.85 -87.2 L13.8 -89.25 Q14.75 -91.7 15.35 -95.75 L19.35 -96.2 Q19.6 -94.45 21.0 -90.35 L22.35 -86.6 18.5 -86.1 17.55 -89.9 Q16.7 -88.5 15.9 -85.9 L13.7 -85.8 13.65 -85.8 9.5 -85.6 9.2 -87.65 9.1 -88.6 9.1 -88.95 9.15 -89.65 9.3 -89.75 9.55 -89.7 9.2 -89.0 9.3 -88.9 Q9.7 -89.75 10.75 -94.5 L11.0 -95.5 M24.15 -97.0 L25.2 -94.3 25.25 -94.2 27.6 -87.6 26.4 -87.35 24.8 -87.0 Q24.65 -89.15 23.3 -92.7 22.4 -95.15 21.5 -96.55 L23.6 -96.95 23.85 -97.0 24.0 -97.0 24.15 -97.0 M20.7 -78.0 L27.1 -78.95 27.4 -79.0 27.55 -79.0 28.6 -79.2 27.5 -77.2 27.2 -76.75 Q25.4 -74.2 23.95 -74.2 22.1 -74.2 20.7 -78.0 M15.35 -77.6 L17.0 -68.65 17.15 -67.85 16.1 -67.8 16.05 -67.8 13.85 -67.7 Q13.2 -73.35 11.9 -75.0 11.7 -75.3 11.2 -77.45 L15.35 -77.6 M1.55 -95.4 L3.3 -95.4 Q2.6 -95.05 2.05 -95.0 1.6 -94.6 1.55 -95.4 M-3.45 -95.7 Q-6.65 -91.55 -7.7 -88.5 L-8.25 -86.35 -12.25 -86.95 -14.2 -87.35 -14.4 -87.4 -14.45 -92.4 Q-14.45 -94.3 -13.35 -94.65 L-8.35 -94.5 -7.05 -95.0 -7.1 -95.05 -8.2 -95.8 -8.85 -96.25 -8.8 -96.25 -7.35 -96.05 -6.95 -96.0 -3.45 -95.7 M14.35 -58.5 L18.55 -59.15 19.2 -52.15 Q19.2 -50.55 18.7 -49.6 L18.35 -49.05 14.55 -48.55 13.55 -48.45 Q14.35 -51.25 14.35 -54.95 L14.35 -58.5 M21.7 -39.65 Q22.7 -38.1 22.95 -36.25 L23.0 -35.4 22.5 -33.85 Q21.8 -32.2 20.8 -31.0 L21.75 -29.95 15.8 -29.15 15.35 -29.3 14.1 -29.9 12.9 -30.2 16.05 -33.25 17.2 -34.7 Q15.65 -35.4 14.15 -36.25 L13.8 -36.45 13.45 -36.65 11.45 -38.0 10.9 -38.45 11.05 -38.45 11.1 -38.45 18.15 -39.1 21.7 -39.65 M-5.95 -38.6 L-6.55 -38.15 -8.85 -36.25 Q-10.55 -34.85 -10.8 -34.1 -11.3 -33.0 -11.5 -29.55 L-14.35 -30.05 -16.4 -30.45 Q-15.7 -34.15 -14.15 -36.25 -12.95 -38.0 -11.1 -38.7 -12.5 -38.7 -13.5 -39.6 L-10.35 -39.1 -5.95 -38.6 M-14.45 -20.0 L-11.3 -19.55 -1.35 -18.8 -6.1 -17.95 Q-12.85 -16.65 -12.9 -12.0 L-12.9 -11.9 -12.9 -11.85 -12.9 -11.8 -12.9 -11.6 -12.4 -10.55 -12.35 -10.5 -11.25 -9.75 -10.35 -9.4 -14.1 -9.9 -17.45 -10.45 -20.2 -11.0 -21.3 -11.25 Q-21.9 -12.75 -21.85 -15.55 -21.75 -19.4 -13.7 -19.15 L-14.45 -20.0 M12.2 -8.95 L13.9 -9.15 16.7 -9.6 16.75 -9.6 16.8 -9.3 12.45 -8.95 12.2 -8.95 M16.9 -9.3 L16.9 -9.95 Q16.85 -12.2 16.15 -13.55 15.4 -14.9 14.3 -14.9 L13.2 -14.85 13.8 -15.45 16.7 -18.55 17.45 -19.35 20.3 -19.7 21.9 -19.9 17.8 -16.35 17.85 -15.15 21.45 -15.5 26.1 -14.7 Q29.45 -13.9 30.3 -13.1 L29.4 -11.3 28.05 -11.0 25.5 -10.45 16.9 -9.3 M-14.2 -79.1 L-13.6 -79.0 -8.95 -78.25 -8.95 -77.55 Q-8.95 -74.65 -8.45 -73.85 -7.45 -72.35 -3.75 -72.6 L-7.45 -69.4 -7.6 -69.25 -8.1 -68.8 -8.55 -68.4 -8.6 -68.4 -11.7 -68.8 -11.55 -70.9 Q-11.55 -72.1 -12.7 -73.9 -13.95 -75.85 -14.15 -78.4 L-14.2 -79.1 M-10.95 -58.65 L-11.25 -48.9 -14.45 -49.4 -15.15 -49.55 -15.1 -50.95 -14.75 -54.8 -14.7 -55.0 -14.05 -59.2 -10.95 -58.65" fill="#383127" fill-rule="evenodd" stroke="none"/>
    <path d="M-5.9 -122.5 L-5.95 -122.5 -5.9 -122.5 -5.85 -122.45 -5.9 -122.5 M-1.4 -121.9 L-0.9 -122.15 0.65 -122.95 0.8 -123.05 1.05 -123.25 Q2.5 -124.3 3.8 -126.0 4.5 -124.4 4.75 -121.95 L1.65 -121.85 1.6 -121.9 1.5 -121.85 1.4 -121.85 -1.4 -121.9 M1.5 -114.4 L1.95 -114.4 4.75 -114.45 6.35 -114.5 6.8 -113.4 Q7.7 -110.9 7.7 -108.45 L7.7 -108.3 7.7 -108.2 7.7 -108.1 7.3 -106.05 6.8 -104.7 2.5 -104.6 -0.9 -104.65 Q0.75 -105.75 2.25 -107.3 5.45 -110.55 5.45 -111.9 L5.3 -112.65 5.1 -112.85 3.45 -112.95 Q0.2 -112.95 -3.75 -108.85 -5.9 -106.6 -6.7 -105.1 L-10.3 -105.7 -10.3 -106.1 Q-10.3 -108.45 -8.95 -109.85 -7.5 -111.35 -4.0 -112.35 -1.7 -113.0 1.5 -114.4 M3.3 -95.4 L5.35 -95.4 7.0 -95.4 -1.9 -86.75 -2.8 -85.85 -8.25 -86.35 -7.7 -88.5 Q-6.65 -91.55 -3.45 -95.7 L-2.9 -95.65 0.75 -95.45 1.55 -95.4 Q1.6 -94.6 2.05 -95.0 2.6 -95.05 3.3 -95.4 M8.4 -95.4 L9.05 -95.45 11.0 -95.5 10.75 -94.5 Q9.7 -89.75 9.3 -88.9 L9.2 -89.0 9.55 -89.7 9.3 -89.75 9.15 -89.65 9.1 -88.95 9.1 -88.6 9.2 -87.65 9.5 -85.6 6.15 -85.6 4.0 -85.6 4.7 -86.75 8.2 -94.65 8.25 -94.8 8.25 -94.95 8.3 -95.1 8.35 -95.25 8.4 -95.4 M21.5 -96.55 Q22.4 -95.15 23.3 -92.7 24.65 -89.15 24.8 -87.0 L22.45 -86.65 22.35 -86.6 21.0 -90.35 Q19.6 -94.45 19.35 -96.2 L21.5 -96.55 M11.2 -77.45 Q11.7 -75.3 11.9 -75.0 13.2 -73.35 13.85 -67.7 L11.05 -67.6 10.8 -68.95 Q10.6 -69.65 9.5 -69.7 L7.6 -69.65 3.6 -70.1 Q7.2 -74.45 7.6 -76.5 L7.6 -76.55 7.55 -77.4 11.0 -77.45 11.2 -77.45 M-2.7 -77.65 L-2.3 -77.65 1.75 -77.45 6.15 -77.4 Q5.3 -76.1 3.45 -74.7 L-1.4 -71.3 Q-3.55 -69.75 -4.95 -68.05 L-8.55 -68.4 -8.1 -68.8 -7.6 -69.25 -7.45 -69.4 -3.75 -72.6 Q-7.45 -72.35 -8.45 -73.85 -8.95 -74.65 -8.95 -77.55 L-8.95 -78.25 -7.25 -78.05 -6.8 -78.0 -6.55 -76.25 -5.45 -75.95 Q-4.1 -76.55 -2.7 -77.65 M11.3 -58.15 L11.55 -58.2 14.35 -58.5 14.35 -54.95 Q14.35 -51.25 13.55 -48.45 L10.3 -48.25 10.25 -48.25 6.15 -48.05 6.95 -48.7 9.1 -51.75 9.3 -52.15 Q10.8 -55.15 11.3 -58.15 M-1.0 -57.85 L-7.15 -52.0 Q-7.7 -51.55 -7.7 -50.7 -7.7 -49.75 -6.95 -49.0 L-6.5 -48.65 -6.0 -48.35 -11.25 -48.9 -10.95 -58.65 -9.8 -58.5 -9.4 -58.45 -5.55 -58.1 -2.1 -57.9 -1.0 -57.85 M-3.1 -48.15 L-2.55 -48.4 2.85 -52.45 3.05 -52.6 3.2 -52.75 3.75 -53.25 4.3 -53.75 5.3 -54.75 4.75 -53.25 2.6 -48.75 2.7 -48.05 -3.1 -48.15 M10.9 -38.45 L11.45 -38.0 13.45 -36.65 13.8 -36.45 14.15 -36.25 Q15.65 -35.4 17.2 -34.7 L16.05 -33.25 12.9 -30.2 14.1 -29.9 15.35 -29.3 15.8 -29.15 12.0 -28.85 8.4 -28.7 7.95 -28.8 -1.3 -31.4 -2.15 -31.7 -2.2 -31.75 Q0.75 -32.65 4.15 -36.25 L5.6 -37.95 5.85 -38.25 10.9 -38.45 M-7.85 -29.15 L-11.3 -29.55 -11.5 -29.55 Q-11.3 -33.0 -10.8 -34.1 -10.55 -34.85 -8.85 -36.25 L-6.55 -38.15 -5.95 -38.6 -3.05 -38.4 -5.45 -36.25 Q-8.5 -33.15 -8.55 -30.6 L-8.55 -30.55 -8.55 -30.45 Q-8.5 -29.85 -7.85 -29.15 M-1.35 -18.8 L0.45 -18.75 3.95 -18.75 Q7.45 -18.75 10.7 -18.9 L17.4 -19.35 17.45 -19.35 16.7 -18.55 13.8 -15.45 13.2 -14.85 14.3 -14.9 Q15.4 -14.9 16.15 -13.55 16.85 -12.2 16.9 -9.95 L16.9 -9.3 Q16.85 -9.1 16.8 -9.3 L16.75 -9.6 16.7 -9.6 13.9 -9.15 12.2 -8.95 3.95 -8.75 2.05 -8.75 1.95 -8.75 -1.8 -8.85 -9.3 -9.3 -10.3 -9.4 -10.35 -9.4 -11.25 -9.75 -12.35 -10.5 -12.4 -10.55 -12.9 -11.6 -12.9 -11.8 -12.9 -11.85 -12.9 -11.9 -12.9 -12.0 Q-12.85 -16.65 -6.1 -17.95 L-1.35 -18.8 M9.95 -17.0 Q8.2 -17.75 7.65 -17.5 L3.95 -16.7 -7.05 -15.3 Q-8.75 -14.9 -8.75 -13.45 -8.75 -12.35 -7.95 -11.95 L-3.95 -11.45 Q1.2 -11.45 5.25 -12.55 10.15 -13.95 10.15 -16.35 L10.05 -17.1 9.95 -17.0" fill="#473f32" fill-rule="evenodd" stroke="none"/>
    <path d="M1.5 -121.85 L1.6 -121.9 1.65 -121.85 1.5 -121.85 M-6.7 -105.1 Q-5.9 -106.6 -3.75 -108.85 0.2 -112.95 3.45 -112.95 L5.1 -112.85 5.3 -112.65 5.45 -111.9 Q5.45 -110.55 2.25 -107.3 0.75 -105.75 -0.9 -104.65 L-6.7 -105.1 M8.4 -95.4 L8.35 -95.25 8.3 -95.1 8.25 -94.95 8.25 -94.8 8.2 -94.65 4.7 -86.75 4.0 -85.6 -2.8 -85.85 -1.9 -86.75 7.0 -95.4 8.4 -95.4 M7.55 -77.4 L7.6 -76.55 7.6 -76.5 Q7.2 -74.45 3.6 -70.1 L7.6 -69.65 9.5 -69.7 Q10.6 -69.65 10.8 -68.95 L11.05 -67.6 7.7 -67.6 -4.95 -68.05 Q-3.55 -69.75 -1.4 -71.3 L3.45 -74.7 Q5.3 -76.1 6.15 -77.4 L6.9 -77.4 7.55 -77.4 M-1.0 -57.85 L2.35 -57.85 5.9 -57.9 11.3 -58.15 Q10.8 -55.15 9.3 -52.15 L9.1 -51.75 6.95 -48.7 6.15 -48.05 3.05 -48.05 2.7 -48.05 2.6 -48.75 4.75 -53.25 5.3 -54.75 4.3 -53.75 3.75 -53.25 3.2 -52.75 3.05 -52.6 2.85 -52.45 -2.55 -48.4 -3.1 -48.15 -5.95 -48.35 -6.0 -48.35 -6.5 -48.65 -6.95 -49.0 Q-7.7 -49.75 -7.7 -50.7 -7.7 -51.55 -7.15 -52.0 L-1.0 -57.85 M5.85 -38.25 L5.6 -37.95 4.15 -36.25 Q0.75 -32.65 -2.2 -31.75 L-2.15 -31.7 -1.3 -31.4 7.95 -28.8 8.4 -28.7 3.95 -28.65 -7.85 -29.15 Q-8.5 -29.85 -8.55 -30.45 L-8.55 -30.55 -8.55 -30.6 Q-8.5 -33.15 -5.45 -36.25 L-3.05 -38.4 Q0.25 -38.25 3.95 -38.25 L5.85 -38.25 M9.95 -17.0 L10.05 -17.1 10.15 -16.35 Q10.15 -13.95 5.25 -12.55 1.2 -11.45 -3.95 -11.45 L-7.95 -11.95 Q-8.75 -12.35 -8.75 -13.45 -8.75 -14.9 -7.05 -15.3 L3.95 -16.7 7.65 -17.5 Q8.2 -17.75 9.95 -17.0 M-6.8 -78.0 L-6.75 -78.0 -2.7 -77.65 Q-4.1 -76.55 -5.45 -75.95 L-6.55 -76.25 -6.8 -78.0" fill="#544a3b" fill-rule="evenodd" stroke="none"/>
  </g>
</svg>
