<?xml version="1.0" encoding="UTF-8" standalone="no"?>
<svg xmlns:ffdec="https://www.free-decompiler.com/flash" xmlns:xlink="http://www.w3.org/1999/xlink" ffdec:objectType="shape" height="117.95px" width="63.75px" xmlns="http://www.w3.org/2000/svg">
  <g transform="matrix(1.0, 0.0, 0.0, 1.0, -1.25, -1.7)">
    <path d="M42.05 2.3 Q42.45 2.8 42.75 5.3 L43.3 9.5 43.5 12.95 Q43.5 19.5 40.45 22.7 38.65 24.65 33.75 26.55 28.9 28.4 27.05 30.35 24.0 33.65 24.0 40.25 24.0 40.85 24.3 41.75 L24.75 43.25 Q25.9 48.1 26.15 48.1 L26.9 50.35 Q27.5 53.05 27.5 56.0 27.5 62.7 23.5 69.25 20.8 73.65 18.15 75.7 14.2 62.85 7.95 54.25 L3.25 48.3 Q1.25 45.6 1.25 43.15 L1.5 37.4 1.6 32.8 2.95 26.8 Q4.35 23.2 5.95 21.95 L7.85 20.05 Q8.1 19.4 10.7 15.6 13.25 11.8 16.65 10.25 20.05 8.65 24.9 6.95 25.85 6.45 27.35 6.15 L29.9 5.5 33.35 3.5 Q36.5 1.7 38.35 1.7 41.55 1.7 42.05 2.3 M41.7 7.6 L41.3 5.7 Q39.35 3.05 38.35 3.05 34.2 3.05 32.85 4.65 31.65 5.95 31.95 9.15 32.5 9.35 31.5 9.35 30.8 9.35 29.05 8.6 L27.25 7.85 Q26.9 7.85 25.7 8.45 L20.55 11.15 13.65 14.7 Q13.45 15.75 11.7 18.55 9.1 22.85 5.8 27.2 3.8 30.2 3.8 33.8 3.8 36.65 4.3 38.6 L3.85 38.6 3.85 42.45 6.35 42.45 8.5 45.2 10.45 50.15 Q13.05 55.45 16.7 58.5 L17.6 59.45 14.35 60.65 14.5 62.2 15.75 62.7 18.8 60.7 19.35 61.3 Q21.95 64.05 22.05 64.65 L21.35 67.0 21.2 68.05 Q22.5 67.7 22.95 67.0 23.65 65.95 25.2 61.45 25.7 58.95 25.7 52.65 L23.1 43.1 Q22.35 40.25 22.65 37.25 L24.0 31.75 27.85 27.4 32.3 25.5 36.9 23.8 Q38.3 23.2 39.25 22.05 39.8 21.45 40.85 18.45 L42.0 14.35 41.7 7.6 M47.85 24.35 Q46.15 22.7 46.15 20.35 46.15 18.0 47.85 16.35 49.5 14.7 51.85 14.7 54.2 14.7 55.9 16.35 57.55 18.0 57.55 20.35 57.55 22.7 55.9 24.35 54.2 26.0 51.85 26.0 49.5 26.0 47.85 24.35 M51.25 16.3 Q49.9 16.3 48.95 17.5 48.0 18.65 48.0 20.3 47.2 24.5 51.3 24.5 L53.45 24.4 Q54.5 24.4 55.25 23.5 56.0 22.6 56.0 21.35 56.0 19.4 54.8 18.0 L54.75 17.7 54.35 17.55 Q53.0 16.3 51.25 16.3 M61.5 34.8 L60.7 31.1 58.25 33.75 Q57.5 36.1 54.0 38.1 49.1 40.85 46.4 43.75 L45.5 46.05 Q45.0 47.2 45.0 49.9 45.0 51.15 45.75 53.2 L46.85 54.4 Q47.75 55.4 49.0 58.1 L49.75 60.05 Q52.9 58.45 57.85 49.65 62.35 41.6 62.35 39.6 L61.95 36.95 63.7 36.95 63.7 34.8 61.5 34.8 M56.05 34.05 L59.7 30.45 Q63.1 27.2 63.8 26.8 L63.9 27.7 Q63.65 29.95 64.05 32.6 L64.9 37.85 Q65.25 39.75 64.0 42.15 62.7 44.55 62.05 47.05 61.4 49.55 59.1 53.25 L55.65 58.95 Q54.8 60.7 53.15 62.4 51.9 63.7 51.7 64.8 L51.35 66.65 48.65 71.3 Q48.1 73.55 47.2 74.7 45.05 77.5 39.55 77.5 35.0 77.5 32.35 75.4 29.3 73.0 29.3 68.4 29.3 57.75 35.75 57.75 37.0 57.75 39.25 58.5 41.0 59.1 40.85 59.8 40.75 60.2 42.4 60.2 42.9 60.2 45.65 63.25 48.3 66.2 48.8 67.15 L48.55 66.2 48.45 61.45 Q48.3 58.7 47.65 58.7 46.45 58.7 44.85 54.45 43.5 50.8 43.5 49.9 43.5 46.65 44.35 44.5 45.25 42.1 47.5 39.95 48.4 39.15 52.0 37.45 54.95 36.15 56.05 34.05 M38.0 34.55 Q37.85 32.9 36.65 31.7 35.4 30.45 33.75 30.45 31.35 30.45 30.25 31.95 29.3 33.2 29.5 35.15 L30.9 38.05 36.55 37.9 Q37.6 37.3 37.9 36.0 L39.2 35.95 38.8 34.6 38.0 34.55 M37.8 30.4 Q39.45 32.05 39.45 34.4 39.45 36.75 37.8 38.4 36.1 40.05 33.75 40.05 31.4 40.05 29.75 38.4 28.05 36.75 28.05 34.4 28.05 32.05 29.75 30.4 31.4 28.75 33.75 28.75 36.1 28.75 37.8 30.4 M39.8 60.35 L36.55 59.25 Q30.8 59.25 30.8 68.5 30.8 69.95 31.6 71.7 32.55 73.65 34.05 74.75 L35.7 75.45 37.75 75.85 41.5 75.95 Q44.6 75.6 45.7 73.75 46.45 72.55 46.45 70.3 46.45 69.45 44.75 66.15 42.9 62.7 41.5 61.4 L39.8 60.35 M16.75 95.7 L17.3 92.7 Q20.2 93.3 22.3 96.15 24.5 99.15 24.5 102.9 24.5 104.85 23.15 108.2 21.7 111.75 20.15 113.1 18.55 110.9 17.5 106.7 16.5 102.6 16.5 98.4 L16.75 95.7 M20.5 98.3 Q20.1 96.2 19.55 95.65 18.3 98.8 18.3 99.75 18.3 104.6 20.35 107.55 21.05 106.6 22.3 106.05 23.05 105.7 23.05 104.35 23.05 101.15 22.1 98.85 L22.25 100.25 Q21.7 101.25 21.15 101.65 L21.15 101.6 20.5 98.3 M46.55 94.5 L47.3 98.15 48.05 102.25 Q48.05 109.8 43.85 114.6 39.45 119.65 32.1 119.65 31.45 119.65 31.3 117.8 L31.25 115.15 31.2 110.1 Q31.25 105.75 31.85 105.75 L31.95 104.8 Q32.0 103.25 33.7 101.0 L38.0 97.0 40.7 94.7 Q41.9 93.6 44.55 88.15 L47.45 82.0 47.65 84.85 47.0 90.8 46.7 92.95 46.55 94.5 M33.0 110.9 L32.75 115.15 Q39.5 114.8 43.2 111.45 46.85 108.1 46.85 102.45 L46.45 99.45 Q45.9 97.25 45.15 96.65 L45.15 101.9 Q45.05 104.35 44.1 105.8 43.65 105.25 43.35 101.4 L42.75 94.85 40.25 97.05 34.85 101.95 Q34.4 102.9 33.05 109.0 L33.0 110.9" fill="#4d3507" fill-rule="evenodd" stroke="none"/>
    <path d="M25.2 61.45 Q23.65 65.95 22.95 67.0 22.5 67.7 21.2 68.05 L21.35 67.0 22.05 64.65 Q21.95 64.05 19.35 61.3 L18.8 60.7 20.3 59.7 Q22.7 61.25 25.2 61.45 M17.6 59.45 L16.7 58.5 Q13.05 55.45 10.45 50.15 L8.5 45.2 6.35 42.45 7.8 42.45 7.8 40.7 Q9.4 45.05 11.55 49.0 15.2 55.8 19.15 58.9 L17.6 59.45 M4.3 38.6 Q3.8 36.65 3.8 33.8 3.8 30.2 5.8 27.2 9.1 22.85 11.7 18.55 13.45 15.75 13.65 14.7 L20.55 11.15 25.7 8.45 Q26.9 7.85 27.25 7.85 L29.05 8.6 Q30.8 9.35 31.5 9.35 32.5 9.35 31.95 9.15 31.65 5.95 32.85 4.65 34.2 3.05 38.35 3.05 39.35 3.05 41.3 5.7 L35.65 5.95 Q33.3 6.25 33.3 8.85 L33.55 10.0 34.4 14.1 31.9 12.3 Q29.95 10.85 28.6 10.85 27.2 10.85 25.65 11.6 24.6 10.95 23.1 10.9 22.6 10.7 22.4 11.35 22.0 12.65 22.6 13.5 18.95 16.35 14.4 22.3 L12.95 24.25 9.85 21.85 11.85 25.8 Q6.4 33.35 6.4 36.0 6.4 36.6 7.1 38.6 L4.3 38.6 M58.25 33.75 L60.7 31.1 61.5 34.8 59.85 34.8 59.85 35.65 58.25 33.75 M61.95 36.95 L62.35 39.6 Q62.35 41.6 57.85 49.65 52.9 58.45 49.75 60.05 L49.0 58.1 56.45 46.4 Q60.3 39.9 60.4 36.95 L61.95 36.95 M41.5 61.4 Q42.9 62.7 44.75 66.15 46.45 69.45 46.45 70.3 46.45 72.55 45.7 73.75 44.6 75.6 41.5 75.95 L42.1 71.85 44.3 72.85 Q44.2 69.85 42.35 69.75 L42.55 68.1 42.8 67.25 40.1 66.85 Q39.4 66.85 38.55 71.0 L37.75 75.85 35.7 75.45 37.6 67.9 Q38.8 64.4 41.5 61.4 M20.5 98.3 L21.15 101.6 21.15 101.65 Q21.7 101.25 22.25 100.25 L22.1 98.85 Q23.05 101.15 23.05 104.35 23.05 105.7 22.3 106.05 21.05 106.6 20.35 107.55 18.3 104.6 18.3 99.75 18.3 98.8 19.55 95.65 20.1 96.2 20.5 98.3 M40.25 97.05 L42.75 94.85 43.35 101.4 Q43.65 105.25 44.1 105.8 45.05 104.35 45.15 101.9 L45.15 96.65 Q45.9 97.25 46.45 99.45 L46.85 102.45 Q46.85 108.1 43.2 111.45 39.5 114.8 32.75 115.15 L33.0 110.9 Q35.55 110.9 37.5 107.95 L38.15 106.85 38.95 105.1 Q40.25 101.6 40.25 97.05 M42.9 106.3 L41.3 108.35 38.8 107.3 Q38.35 111.0 42.35 109.6 43.6 109.1 43.65 107.75 43.65 106.9 42.9 106.3" fill="#704e0f" fill-rule="evenodd" stroke="none"/>
    <path d="M41.3 5.7 L41.7 7.6 Q39.0 6.85 37.5 7.9 35.85 9.05 35.85 12.1 35.85 12.6 36.55 13.8 L37.2 15.45 Q37.2 17.35 35.9 18.15 L32.65 16.95 32.6 18.15 33.35 18.65 30.6 17.05 28.0 15.8 Q27.55 12.75 25.65 11.6 27.2 10.85 28.6 10.85 29.95 10.85 31.9 12.3 L34.4 14.1 33.55 10.0 33.3 8.85 Q33.3 6.25 35.65 5.95 L41.3 5.7 M24.0 31.75 L22.65 37.25 Q21.5 38.6 20.45 40.25 L19.6 41.8 Q19.6 42.55 19.9 43.65 L19.3 44.0 19.05 44.6 18.65 43.95 Q18.0 43.05 17.05 43.05 16.1 43.05 15.45 43.95 14.8 44.85 14.8 46.1 14.8 47.35 15.45 48.25 16.05 49.05 16.9 49.15 L15.8 51.45 Q19.8 50.6 21.4 47.95 23.2 52.15 25.7 52.65 25.7 58.95 25.2 61.45 22.7 61.25 20.3 59.7 L20.45 59.6 20.4 58.4 19.15 58.9 Q15.2 55.8 11.55 49.0 9.4 45.05 7.8 40.7 L7.8 38.6 7.1 38.6 Q6.4 36.6 6.4 36.0 6.4 33.35 11.85 25.8 L12.3 26.7 13.15 26.0 13.4 24.6 12.95 24.25 14.4 22.3 Q18.95 16.35 22.6 13.5 23.1 14.2 24.25 14.6 L26.5 15.5 Q22.4 18.65 19.35 21.5 L17.5 21.5 17.5 23.25 Q10.1 30.65 10.1 35.8 10.1 36.85 11.6 38.4 13.1 39.95 14.0 39.95 16.2 39.95 18.25 38.1 20.6 36.0 20.6 33.0 L20.35 31.5 19.6 29.2 20.95 27.9 Q21.2 28.55 24.0 31.75 M51.25 16.3 Q53.0 16.3 54.35 17.55 L53.5 17.2 52.8 17.7 52.75 17.65 51.25 16.3 M54.8 18.0 Q56.0 19.4 56.0 21.35 L54.4 19.45 54.9 19.25 54.8 18.0 M58.25 33.75 L59.85 35.65 59.85 36.95 60.4 36.95 Q60.3 39.9 56.45 46.4 L49.0 58.1 Q47.75 55.4 46.85 54.4 L45.75 53.2 Q46.5 52.05 47.05 50.15 47.8 47.75 47.8 45.45 L46.4 43.75 Q49.1 40.85 54.0 38.1 57.5 36.1 58.25 33.75 M56.8 41.6 L56.2 40.75 Q55.3 39.85 54.1 39.85 52.9 39.85 52.05 40.75 51.15 41.6 51.15 42.8 51.15 44.0 52.05 44.9 52.9 45.75 54.1 45.75 55.3 45.75 56.2 44.9 L56.65 44.3 57.5 44.3 57.5 41.6 56.8 41.6 M34.05 74.75 Q34.45 69.95 34.85 68.5 L35.5 67.0 36.85 67.0 36.85 64.7 39.8 60.35 41.5 61.4 Q38.8 64.4 37.6 67.9 L35.7 75.45 34.05 74.75 M41.5 75.95 L37.75 75.85 38.55 71.0 Q39.4 66.85 40.1 66.85 L42.8 67.25 42.55 68.1 42.35 69.75 Q41.35 69.65 39.85 70.45 L39.25 71.25 Q38.4 73.2 40.1 74.25 L41.7 71.65 42.1 71.85 41.5 75.95 M33.0 110.9 L33.05 109.0 Q34.7 109.25 36.5 108.5 L37.5 107.95 Q35.55 110.9 33.0 110.9 M34.85 101.95 L40.25 97.05 Q40.25 101.6 38.95 105.1 38.8 104.35 38.25 103.65 37.2 102.4 34.85 101.95" fill="#ab7913" fill-rule="evenodd" stroke="none"/>
    <path d="M41.85 11.1 Q41.85 10.3 41.3 9.75 40.7 9.15 39.9 9.15 39.1 9.15 38.55 9.75 37.95 10.3 37.95 11.1 37.95 11.9 38.55 12.5 39.1 13.05 39.9 13.05 40.7 13.05 41.3 12.5 41.85 11.9 41.85 11.1 M41.7 7.6 L42.0 14.35 40.85 18.45 Q39.8 21.45 39.25 22.05 38.3 23.2 36.9 23.8 L32.3 25.5 33.35 22.95 Q33.35 21.1 31.2 21.1 28.5 21.1 26.0 23.0 23.75 24.75 23.75 26.2 23.75 26.85 23.9 27.1 L24.2 27.5 27.4 27.5 27.85 27.4 24.0 31.75 Q21.2 28.55 20.95 27.9 L19.6 29.2 20.35 31.5 20.6 33.0 Q20.6 36.0 18.25 38.1 16.2 39.95 14.0 39.95 13.1 39.95 11.6 38.4 10.1 36.85 10.1 35.8 10.1 30.65 17.5 23.25 L17.5 24.15 21.8 24.15 21.8 21.5 19.35 21.5 Q22.4 18.65 26.5 15.5 L27.2 15.85 28.05 16.05 28.0 15.8 30.6 17.05 33.35 18.65 37.3 21.25 38.55 20.75 38.7 19.2 35.9 18.15 Q37.2 17.35 37.2 15.45 L36.55 13.8 Q35.85 12.6 35.85 12.1 35.85 9.05 37.5 7.9 39.0 6.85 41.7 7.6 M22.65 37.25 Q22.35 40.25 23.1 43.1 L25.7 52.65 Q23.2 52.15 21.4 47.95 22.2 46.55 22.35 44.7 22.4 44.15 21.7 43.7 L19.9 43.65 Q19.6 42.55 19.6 41.8 L20.45 40.25 Q21.5 38.6 22.65 37.25 M56.0 21.35 Q56.0 22.6 55.25 23.5 54.5 24.4 53.45 24.4 L51.3 24.5 Q47.2 24.5 48.0 20.3 48.0 18.65 48.95 17.5 49.9 16.3 51.25 16.3 L52.75 17.65 52.8 17.7 48.8 20.3 48.85 21.5 54.4 19.45 56.0 21.35 M45.75 53.2 Q45.0 51.15 45.0 49.9 45.0 47.2 45.5 46.05 L46.4 43.75 47.8 45.45 Q47.8 47.75 47.05 50.15 46.5 52.05 45.75 53.2 M56.65 44.3 L56.2 44.9 Q55.3 45.75 54.1 45.75 52.9 45.75 52.05 44.9 51.15 44.0 51.15 42.8 51.15 41.6 52.05 40.75 52.9 39.85 54.1 39.85 55.3 39.85 56.2 40.75 L56.8 41.6 53.2 41.6 53.2 44.3 56.65 44.3 M13.3 35.15 Q13.9 35.8 14.8 35.8 15.7 35.8 16.35 35.15 16.95 34.5 16.95 33.6 16.95 32.7 16.35 32.05 15.7 31.4 14.8 31.4 13.9 31.4 13.3 32.05 12.65 32.7 12.65 33.6 12.65 34.5 13.3 35.15 M16.9 49.15 Q16.05 49.05 15.45 48.25 14.8 47.35 14.8 46.1 14.8 44.85 15.45 43.95 16.1 43.05 17.05 43.05 18.0 43.05 18.65 43.95 L19.05 44.6 16.9 49.15 M32.2 35.25 L32.6 34.3 32.5 33.75 32.35 33.95 Q32.05 33.85 30.75 34.5 30.15 34.85 29.5 35.15 29.3 33.2 30.25 31.95 31.35 30.45 33.75 30.45 35.4 30.45 36.65 31.7 37.85 32.9 38.0 34.55 L34.15 34.3 32.2 35.25 M30.9 38.05 L31.8 36.1 37.9 36.0 Q37.6 37.3 36.55 37.9 L30.9 38.05 M34.05 74.75 Q32.55 73.65 31.6 71.7 30.8 69.95 30.8 68.5 30.8 59.25 36.55 59.25 L39.8 60.35 36.85 64.7 36.85 61.1 34.35 61.1 34.35 67.0 35.5 67.0 34.85 68.5 Q34.45 69.95 34.05 74.75 M33.05 109.0 Q34.4 102.9 34.85 101.95 37.2 102.4 38.25 103.65 38.8 104.35 38.95 105.1 L38.15 106.85 37.5 107.95 36.5 108.5 Q34.7 109.25 33.05 109.0" fill="#cf8e15" fill-rule="evenodd" stroke="none"/>
    <path d="M41.85 11.1 Q41.85 11.9 41.3 12.5 40.7 13.05 39.9 13.05 39.1 13.05 38.55 12.5 37.95 11.9 37.95 11.1 37.95 10.3 38.55 9.75 39.1 9.15 39.9 9.15 40.7 9.15 41.3 9.75 41.85 10.3 41.85 11.1 M32.3 25.5 L27.85 27.4 27.4 27.5 24.2 27.5 23.9 27.1 Q23.75 26.85 23.75 26.2 23.75 24.75 26.0 23.0 28.5 21.1 31.2 21.1 33.35 21.1 33.35 22.95 L32.3 25.5 M13.3 35.15 Q12.65 34.5 12.65 33.6 12.65 32.7 13.3 32.05 13.9 31.4 14.8 31.4 15.7 31.4 16.35 32.05 16.95 32.7 16.95 33.6 16.95 34.5 16.35 35.15 15.7 35.8 14.8 35.8 13.9 35.8 13.3 35.15 M29.5 35.15 Q30.15 34.85 30.75 34.5 32.05 33.85 32.35 33.95 L32.5 33.75 32.6 34.3 32.2 35.25 30.35 36.1 31.8 36.1 30.9 38.05 29.5 35.15" fill="#f5b438" fill-rule="evenodd" stroke="none"/>
    <path d="M18.8 60.7 L15.75 62.7 14.5 62.2 14.35 60.65 17.6 59.45 19.15 58.9 20.4 58.4 20.45 59.6 20.3 59.7 18.8 60.7 M6.35 42.45 L3.85 42.45 3.85 38.6 4.3 38.6 7.1 38.6 7.8 38.6 7.8 40.7 7.8 42.45 6.35 42.45 M25.65 11.6 Q27.55 12.75 28.0 15.8 L28.05 16.05 27.2 15.85 26.5 15.5 24.25 14.6 Q23.1 14.2 22.6 13.5 22.0 12.65 22.4 11.35 22.6 10.7 23.1 10.9 24.6 10.95 25.65 11.6 M33.35 18.65 L32.6 18.15 32.65 16.95 35.9 18.15 38.7 19.2 38.55 20.75 37.3 21.25 33.35 18.65 M54.35 17.55 L54.75 17.7 54.8 18.0 54.9 19.25 54.4 19.45 48.85 21.5 48.8 20.3 52.8 17.7 53.5 17.2 54.35 17.55 M59.85 35.65 L59.85 34.8 61.5 34.8 63.7 34.8 63.7 36.95 61.95 36.95 60.4 36.95 59.85 36.95 59.85 35.65 M56.8 41.6 L57.5 41.6 57.5 44.3 56.65 44.3 53.2 44.3 53.2 41.6 56.8 41.6 M19.35 21.5 L21.8 21.5 21.8 24.15 17.5 24.15 17.5 23.25 17.5 21.5 19.35 21.5 M12.95 24.25 L13.4 24.6 13.15 26.0 12.3 26.7 11.85 25.8 9.85 21.85 12.95 24.25 M16.9 49.15 L19.05 44.6 19.3 44.0 19.9 43.65 21.7 43.7 Q22.4 44.15 22.35 44.7 22.2 46.55 21.4 47.95 19.8 50.6 15.8 51.45 L16.9 49.15 M32.2 35.25 L34.15 34.3 38.0 34.55 38.8 34.6 39.2 35.95 37.9 36.0 31.8 36.1 30.35 36.1 32.2 35.25 M35.5 67.0 L34.35 67.0 34.35 61.1 36.85 61.1 36.85 64.7 36.85 67.0 35.5 67.0 M42.35 69.75 Q44.2 69.85 44.3 72.85 L42.1 71.85 41.7 71.65 40.1 74.25 Q38.4 73.2 39.25 71.25 L39.85 70.45 Q41.35 69.65 42.35 69.75 M42.9 106.3 Q43.65 106.9 43.65 107.75 43.6 109.1 42.35 109.6 38.35 111.0 38.8 107.3 L41.3 108.35 42.9 106.3" fill="#844317" fill-rule="evenodd" stroke="none"/>
  </g>
</svg>
