<?xml version="1.0" encoding="UTF-8" standalone="no"?>
<svg xmlns:ffdec="https://www.free-decompiler.com/flash" xmlns:xlink="http://www.w3.org/1999/xlink" ffdec:objectType="shape" height="85.95px" width="83.45px" xmlns="http://www.w3.org/2000/svg">
  <g transform="matrix(1.0, 0.0, 0.0, 1.0, 33.4, 57.55)">
    <path d="M5.7 27.7 L6.4 27.6 7.2 27.5 7.7 27.45 5.7 27.7 M31.95 2.95 Q23.15 2.55 19.7 5.65 17.4 7.7 16.8 12.75 16.1 18.5 15.15 20.1 13.05 23.5 6.6 23.5 -3.25 23.5 -7.0 20.5 -10.4 17.75 -14.0 7.6 L-18.05 -0.45 Q-20.45 -5.15 -19.15 -6.75 L-21.65 -15.4 Q-19.5 -15.25 -17.3 -13.25 L-15.5 -11.3 -14.5 -12.5 Q-13.55 -13.8 -13.55 -14.45 -13.55 -14.95 -15.9 -17.1 -18.25 -19.3 -18.25 -19.8 L-18.0 -22.6 -17.65 -25.0 -12.55 -21.9 -11.5 -32.75 -9.7 -28.85 Q-8.35 -26.05 -7.45 -25.3 L-5.65 -25.6 Q-5.3 -27.5 -4.85 -31.7 -4.35 -35.25 -3.55 -36.55 L-2.35 -35.5 -2.95 -21.8 Q-0.2 -22.6 1.05 -28.2 2.55 -35.05 4.85 -37.55 L5.0 -37.4 Q5.75 -35.55 6.1 -32.85 L10.5 -37.7 14.55 -42.4 14.85 -40.65 Q14.85 -38.95 13.95 -35.25 13.0 -31.55 13.0 -30.05 13.0 -28.15 13.6 -24.65 17.8 -28.95 26.2 -34.6 34.55 -40.25 39.4 -42.0 38.85 -40.35 33.2 -32.25 27.8 -24.5 25.85 -22.25 29.25 -21.8 31.15 -16.1 29.65 -12.4 29.65 -10.5 29.65 -10.0 30.8 -3.75 L31.95 2.95 M7.6 -25.4 L6.5 -25.65 Q4.2 -25.65 2.3 -17.85 1.4 -13.95 0.9 -9.95 2.8 -4.4 3.6 -3.8 4.65 -6.35 5.4 -12.65 L6.3 -20.05 6.6 -20.9 Q9.6 -15.65 10.1 -15.2 10.55 -14.8 11.75 -14.85 L12.0 -15.05 12.1 -15.9 10.0 -18.8 Q8.0 -22.0 8.3 -25.15 L7.6 -25.4 M19.8 -18.1 L20.9 -20.25 Q21.15 -18.15 21.4 -17.7 L21.75 -17.5 22.35 -18.45 22.75 -19.85 22.75 -23.75 22.8 -23.9 Q22.8 -24.1 22.2 -24.1 20.95 -24.1 19.35 -21.3 18.0 -18.9 18.0 -18.35 18.0 -17.35 19.0 -16.9 L19.8 -18.1 M7.8 -4.0 L7.5 -0.15 Q7.5 4.1 8.45 7.25 10.0 12.55 14.15 16.15 L13.65 15.15 Q12.65 12.95 12.0 10.85 10.75 7.05 9.3 -2.2 L11.75 -1.95 Q12.9 -1.95 13.6 -2.75 L13.4 -3.0 9.95 -3.8 7.8 -4.0 M26.35 -3.55 Q27.4 -3.55 28.25 -4.3 L28.35 -4.8 Q27.55 -5.9 16.9 -14.25 16.9 -13.2 20.3 -8.65 24.05 -3.55 26.35 -3.55 M3.25 13.7 L1.0 11.25 Q0.75 13.3 2.4 15.05 3.65 16.4 5.0 16.75 L5.75 16.25 3.25 13.7 M-13.1 -6.4 Q-13.5 -6.05 -13.5 -5.5 -13.5 3.15 -10.0 4.9 -8.05 4.2 -8.05 3.75 L-10.5 -3.6 -11.15 -4.8 Q-7.45 -2.45 -6.5 -2.65 -6.0 -2.75 -5.9 -3.5 -11.35 -6.85 -12.45 -6.95 L-13.1 -6.4" fill="#ffffff" fill-rule="evenodd" stroke="none"/>
    <path d="M-2.7 28.4 L-2.05 28.35 -1.0 28.25 -0.9 28.35 -2.7 28.4 M11.8 26.8 L0.0 26.85 -0.5 26.75 -6.65 26.75 Q-8.7 25.45 -11.45 23.05 -14.5 20.45 -16.0 18.6 -17.6 16.7 -19.0 13.9 L-21.0 9.4 Q-22.1 6.9 -22.4 4.9 L-22.65 2.65 -22.85 2.3 -23.05 -1.25 -22.9 -7.75 -24.95 -12.4 -23.35 -13.45 -25.2 -19.6 -24.8 -19.6 Q-23.25 -19.75 -22.35 -21.35 -21.85 -22.25 -21.75 -23.25 L-21.85 -24.3 -22.3 -26.95 -22.8 -29.25 Q-19.2 -31.25 -19.1 -31.5 L-18.4 -35.8 -13.4 -34.3 -14.3 -40.75 Q-13.4 -40.2 -12.5 -38.9 L-11.4 -36.95 -10.9 -35.35 -10.85 -35.0 -10.55 -35.6 -9.55 -38.05 -7.85 -42.4 Q-5.15 -48.25 -3.0 -48.05 -3.15 -47.4 -2.85 -46.95 L-2.5 -46.65 Q-2.4 -46.3 -1.65 -46.0 L-0.95 -45.8 0.55 -43.95 Q1.6 -42.55 3.2 -42.55 L3.45 -42.55 4.1 -42.65 4.1 -42.7 10.75 -45.55 13.35 -45.45 15.7 -45.8 Q16.7 -45.8 18.55 -42.75 L27.75 -48.75 27.3 -47.0 Q27.0 -46.25 27.0 -45.75 27.0 -45.05 25.95 -43.35 25.1 -41.95 24.1 -40.95 L23.6 -40.45 22.6 -39.5 Q21.05 -38.0 19.55 -36.1 L19.15 -35.6 17.85 -33.75 Q17.85 -33.1 18.3 -32.95 L18.8 -32.9 21.35 -34.7 25.95 -38.35 27.45 -39.65 29.1 -41.1 Q35.85 -46.35 43.5 -48.15 L43.85 -45.3 Q43.85 -40.25 40.45 -35.05 L38.45 -32.35 37.35 -31.05 33.35 -27.05 28.25 -22.75 35.95 -24.4 38.1 -21.65 34.05 -19.15 Q31.8 -17.9 31.15 -16.1 29.25 -21.8 25.85 -22.25 27.8 -24.5 33.2 -32.25 38.85 -40.35 39.4 -42.0 34.55 -40.25 26.2 -34.6 17.8 -28.95 13.6 -24.65 13.0 -28.15 13.0 -30.05 13.0 -31.55 13.95 -35.25 14.85 -38.95 14.85 -40.65 L14.55 -42.4 10.5 -37.7 6.1 -32.85 Q5.75 -35.55 5.0 -37.4 L4.85 -37.55 Q2.55 -35.05 1.05 -28.2 -0.2 -22.6 -2.95 -21.8 L-2.35 -35.5 -3.55 -36.55 Q-4.35 -35.25 -4.85 -31.7 -5.3 -27.5 -5.65 -25.6 L-7.45 -25.3 Q-8.35 -26.05 -9.7 -28.85 L-11.5 -32.75 -12.55 -21.9 -17.65 -25.0 -18.0 -22.6 -18.25 -19.8 Q-18.25 -19.3 -15.9 -17.1 -13.55 -14.95 -13.55 -14.45 -13.55 -13.8 -14.5 -12.5 L-15.5 -11.3 -17.3 -13.25 Q-19.5 -15.25 -21.65 -15.4 L-19.15 -6.75 Q-20.45 -5.15 -18.05 -0.45 L-14.0 7.6 Q-10.4 17.75 -7.0 20.5 -3.25 23.5 6.6 23.5 13.05 23.5 15.15 20.1 16.1 18.5 16.8 12.75 17.4 7.7 19.7 5.65 23.15 2.55 31.95 2.95 L31.95 3.25 30.85 4.75 Q26.7 5.0 23.2 7.1 22.15 7.65 21.55 8.7 20.8 9.95 20.3 11.35 19.6 13.35 19.15 15.4 L19.1 15.8 Q18.85 17.1 18.75 18.5 L18.5 22.35 18.35 24.0 Q16.55 25.65 13.9 26.3 L11.8 26.8 M14.45 -50.65 L12.75 -48.2 10.8 -45.9 9.8 -46.35 10.6 -48.3 Q10.85 -49.05 13.3 -50.25 L14.45 -50.65 M1.15 -44.15 L0.75 -46.0 1.95 -47.25 Q2.15 -47.05 2.15 -46.05 L1.85 -45.35 1.15 -44.15 M19.8 -18.1 L19.0 -16.9 Q18.0 -17.35 18.0 -18.35 18.0 -18.9 19.35 -21.3 20.95 -24.1 22.2 -24.1 22.8 -24.1 22.8 -23.9 L22.75 -23.75 22.75 -19.85 22.35 -18.45 21.75 -17.5 21.4 -17.7 Q21.15 -18.15 20.9 -20.25 L19.8 -18.1 M7.6 -25.4 L8.3 -25.15 Q8.0 -22.0 10.0 -18.8 L12.1 -15.9 12.0 -15.05 11.75 -14.85 Q10.55 -14.8 10.1 -15.2 9.6 -15.65 6.6 -20.9 L6.3 -20.05 5.4 -12.65 Q4.65 -6.35 3.6 -3.8 2.8 -4.4 0.9 -9.95 1.4 -13.95 2.3 -17.85 4.2 -25.65 6.5 -25.65 L7.6 -25.4 M7.8 -4.0 L9.95 -3.8 13.4 -3.0 13.6 -2.75 Q12.9 -1.95 11.75 -1.95 L9.3 -2.2 Q10.75 7.05 12.0 10.85 12.65 12.95 13.65 15.15 L14.15 16.15 Q10.0 12.55 8.45 7.25 7.5 4.1 7.5 -0.15 L7.8 -4.0 M26.35 -3.55 Q24.05 -3.55 20.3 -8.65 16.9 -13.2 16.9 -14.25 27.55 -5.9 28.35 -4.8 L28.25 -4.3 Q27.4 -3.55 26.35 -3.55 M3.25 13.7 L5.75 16.25 5.0 16.75 Q3.65 16.4 2.4 15.05 0.75 13.3 1.0 11.25 L3.25 13.7 M-26.2 -21.3 L-26.25 -21.2 -27.2 -19.9 -27.75 -19.25 -28.1 -20.2 -28.35 -21.95 Q-28.35 -23.8 -27.05 -26.15 -25.6 -23.0 -26.15 -21.35 L-26.2 -21.3 M-29.6 -12.95 L-28.2 -10.25 -27.4 -7.95 Q-26.7 -5.65 -26.7 -4.2 L-26.75 -2.2 -27.3 -1.25 Q-28.35 -2.35 -29.05 -3.9 -29.65 -5.15 -30.05 -6.7 L-30.5 -9.15 Q-30.7 -11.5 -30.15 -13.75 L-29.6 -12.95 M-13.1 -6.4 L-12.45 -6.95 Q-11.35 -6.85 -5.9 -3.5 -6.0 -2.75 -6.5 -2.65 -7.45 -2.45 -11.15 -4.8 L-10.5 -3.6 -8.05 3.75 Q-8.05 4.2 -10.0 4.9 -13.5 3.15 -13.5 -5.5 -13.5 -6.05 -13.1 -6.4" fill="#ebe8e0" fill-rule="evenodd" stroke="none"/>
    <path d="M-16.75 27.25 L-17.5 26.55 Q-22.35 21.7 -25.2 16.0 L-25.2 16.1 -25.65 15.05 Q-26.95 11.85 -27.6 7.45 -28.25 3.5 -28.65 3.5 L-28.85 3.55 -29.1 3.9 Q-29.1 4.25 -29.55 4.25 -30.35 4.25 -31.15 -0.6 L-31.3 -1.6 Q-32.05 -6.9 -32.05 -10.2 -32.05 -13.5 -29.95 -17.0 -30.7 -20.9 -29.55 -24.8 L-27.0 -32.15 -27.1 -34.15 -22.8 -35.65 -21.9 -41.95 Q-19.3 -40.75 -18.4 -40.75 -17.95 -40.75 -17.0 -42.35 -15.9 -44.25 -16.0 -46.0 -15.05 -44.85 -13.45 -44.2 L-11.3 -43.7 -9.45 -43.75 Q-8.25 -43.9 -8.25 -44.55 L-2.25 -55.5 -2.15 -54.4 -0.65 -47.0 Q0.65 -48.9 1.2 -48.95 1.8 -49.25 2.65 -50.65 2.55 -47.75 3.8 -47.75 L5.0 -47.8 Q6.9 -48.05 8.55 -48.95 11.15 -50.3 15.2 -54.25 L17.25 -47.45 Q20.35 -47.3 24.7 -49.05 28.5 -50.6 30.0 -52.05 L30.0 -47.5 Q28.5 -46.8 27.75 -45.3 L26.75 -42.45 27.7 -42.6 30.2 -45.1 Q32.0 -47.1 34.0 -47.5 38.55 -49.3 41.25 -50.7 L45.25 -54.0 45.7 -48.6 Q44.35 -40.05 43.7 -38.45 L40.7 -31.75 40.8 -30.8 40.95 -30.6 44.05 -35.1 45.45 -37.55 Q46.7 -39.3 48.5 -40.2 50.25 -36.85 45.65 -31.5 L42.35 -27.8 41.2 -26.7 39.15 -25.1 41.5 -25.75 40.6 -24.2 Q39.75 -23.05 38.1 -21.65 L35.95 -24.4 28.25 -22.75 33.35 -27.05 37.35 -31.05 38.45 -32.35 40.45 -35.05 Q43.85 -40.25 43.85 -45.3 L43.5 -48.15 Q35.85 -46.35 29.1 -41.1 L27.45 -39.65 25.95 -38.35 21.35 -34.7 18.8 -32.9 18.3 -32.95 Q17.85 -33.1 17.85 -33.75 L19.15 -35.6 19.55 -36.1 Q21.05 -38.0 22.6 -39.5 L23.6 -40.45 24.1 -40.95 Q25.1 -41.95 25.95 -43.35 27.0 -45.05 27.0 -45.75 27.0 -46.25 27.3 -47.0 L27.75 -48.75 18.55 -42.75 Q16.7 -45.8 15.7 -45.8 L13.35 -45.45 10.75 -45.55 4.1 -42.7 4.1 -42.65 3.45 -42.55 3.2 -42.55 Q1.6 -42.55 0.55 -43.95 L-0.95 -45.8 -1.65 -46.0 Q-2.4 -46.3 -2.5 -46.65 L-2.85 -46.95 Q-3.15 -47.4 -3.0 -48.05 -5.15 -48.25 -7.85 -42.4 L-9.55 -38.05 -10.55 -35.6 -10.85 -35.0 -10.9 -35.35 -11.4 -36.95 -12.5 -38.9 Q-13.4 -40.2 -14.3 -40.75 L-13.4 -34.3 -18.4 -35.8 -19.1 -31.5 Q-19.2 -31.25 -22.8 -29.25 L-22.3 -26.95 -21.85 -24.3 -21.75 -23.25 Q-21.85 -22.25 -22.35 -21.35 -23.25 -19.75 -24.8 -19.6 L-25.2 -19.6 -23.35 -13.45 -24.95 -12.4 -22.9 -7.75 -23.05 -1.25 -22.85 2.3 -22.65 2.65 -22.4 4.9 Q-22.1 6.9 -21.0 9.4 L-19.0 13.9 Q-17.6 16.7 -16.0 18.6 -14.5 20.45 -11.45 23.05 -8.7 25.45 -6.65 26.75 L-0.5 26.75 0.0 26.85 11.8 26.8 8.5 27.35 7.7 27.45 7.2 27.5 6.4 27.6 5.7 27.7 5.0 27.8 0.25 28.35 -0.9 28.35 -1.0 28.25 -2.05 28.35 -2.7 28.4 -3.35 28.4 -6.8 28.4 -7.15 28.4 -7.45 28.4 -13.5 28.0 -16.75 27.25 M14.45 -50.65 L13.3 -50.25 Q10.85 -49.05 10.6 -48.3 L9.8 -46.35 10.8 -45.9 12.75 -48.2 14.45 -50.65 M1.15 -44.15 L1.85 -45.35 2.15 -46.05 Q2.15 -47.05 1.95 -47.25 L0.75 -46.0 1.15 -44.15 M-29.6 -12.95 L-30.15 -13.75 Q-30.7 -11.5 -30.5 -9.15 L-30.05 -6.7 Q-29.65 -5.15 -29.05 -3.9 -28.35 -2.35 -27.3 -1.25 L-26.75 -2.2 -26.7 -4.2 Q-26.7 -5.65 -27.4 -7.95 L-28.2 -10.25 -29.6 -12.95 M-26.2 -21.3 L-26.15 -21.35 Q-25.6 -23.0 -27.05 -26.15 -28.35 -23.8 -28.35 -21.95 L-28.1 -20.2 -27.75 -19.25 -27.2 -19.9 -26.25 -21.2 -26.2 -21.3" fill="#cbc8c0" fill-rule="evenodd" stroke="none"/>
    <path d="M41.5 -25.75 L39.15 -25.1 41.2 -26.7 42.35 -27.8 45.65 -31.5 Q50.25 -36.85 48.5 -40.2 46.7 -39.3 45.45 -37.55 L44.05 -35.1 40.95 -30.6 40.8 -30.8 40.7 -31.75 43.7 -38.45 Q44.35 -40.05 45.7 -48.6 L45.25 -54.0 41.25 -50.7 Q38.55 -49.3 34.0 -47.5 32.0 -47.1 30.2 -45.1 L27.7 -42.6 26.75 -42.45 27.75 -45.3 Q28.5 -46.8 30.0 -47.5 L30.0 -52.05 Q28.5 -50.6 24.7 -49.05 20.35 -47.3 17.25 -47.45 L15.2 -54.25 Q11.15 -50.3 8.55 -48.95 6.9 -48.05 5.0 -47.8 L3.8 -47.75 Q2.55 -47.75 2.65 -50.65 1.8 -49.25 1.2 -48.95 0.65 -48.9 -0.65 -47.0 L-2.15 -54.4 -2.25 -55.5 -8.25 -44.55 Q-8.25 -43.9 -9.45 -43.75 L-11.3 -43.7 -13.45 -44.2 Q-15.05 -44.85 -16.0 -46.0 -15.9 -44.25 -17.0 -42.35 -17.95 -40.75 -18.4 -40.75 -19.3 -40.75 -21.9 -41.95 L-22.8 -35.65 -27.1 -34.15 -27.0 -32.15 -29.55 -24.8 Q-30.7 -20.9 -29.95 -17.0 -32.05 -13.5 -32.05 -10.2 -32.05 -6.9 -31.3 -1.6 L-31.15 -0.6 Q-30.35 4.25 -29.55 4.25 -29.1 4.25 -29.1 3.9 L-28.85 3.55 -28.65 3.5 Q-28.25 3.5 -27.6 7.45 -26.95 11.85 -25.65 15.05 L-25.2 16.1 -25.2 16.0 Q-22.35 21.7 -17.5 26.55 L-16.75 27.25 -17.95 26.95 -20.9 25.85 Q-24.45 21.85 -26.75 17.35 L-26.8 17.2 -27.6 15.55 Q-29.35 11.75 -30.2 7.7 L-30.9 5.15 Q-33.4 -4.2 -33.4 -7.4 L-32.6 -12.5 -31.25 -19.0 -32.4 -22.9 Q-29.75 -27.8 -28.6 -31.75 -28.05 -33.7 -27.85 -34.75 -26.05 -35.85 -24.9 -37.1 -24.4 -37.6 -23.65 -39.25 -22.6 -41.55 -22.65 -43.3 L-18.7 -42.25 -18.25 -44.45 Q-17.8 -46.25 -16.4 -47.3 L-10.0 -45.0 Q-9.95 -45.6 -9.0 -45.6 -7.7 -45.6 -5.6 -50.6 -3.55 -55.25 -3.4 -57.55 -0.2 -54.35 0.45 -49.95 L1.1 -51.15 Q1.9 -52.4 2.5 -52.4 3.2 -52.4 3.4 -51.95 L4.2 -49.5 5.0 -49.65 Q6.6 -50.0 9.15 -51.3 13.0 -53.25 15.05 -55.7 16.15 -55.3 17.2 -53.4 18.35 -51.2 18.0 -49.0 18.85 -49.2 30.1 -53.75 L31.1 -53.65 31.25 -48.9 Q35.1 -49.2 38.8 -51.0 42.85 -53.0 45.45 -56.25 L46.9 -48.35 46.6 -44.7 45.95 -40.3 49.85 -42.5 50.05 -39.5 Q50.05 -33.7 46.45 -29.5 44.2 -26.9 41.5 -25.75" fill="#97877d" fill-rule="evenodd" stroke="none"/>
  </g>
</svg>
