<?xml version="1.0" encoding="UTF-8" standalone="no"?>
<svg xmlns:ffdec="https://www.free-decompiler.com/flash" xmlns:xlink="http://www.w3.org/1999/xlink" ffdec:objectType="shape" height="105.15px" width="112.5px" xmlns="http://www.w3.org/2000/svg">
  <g transform="matrix(1.0, 0.0, 0.0, 1.0, 56.25, 52.6)">
    <path d="M-1.25 -35.4 L-2.3 -30.7 -4.55 -21.05 -4.5 -20.8 Q-4.45 -20.05 -3.75 -20.05 -2.8 -20.05 -1.8 -22.35 L-1.45 -23.3 Q-0.55 -25.7 -0.25 -27.8 L0.0 -29.9 Q0.1 -31.25 0.35 -31.95 L1.35 -34.45 2.0 -36.1 Q2.0 -37.6 0.85 -37.7 -0.4 -37.75 -1.25 -35.4 M-30.3 1.2 L-24.95 -1.8 Q-30.0 -0.65 -32.4 0.75 L-32.95 1.05 Q-48.15 10.8 -47.05 28.9 -55.1 21.25 -54.2 14.35 -53.3 7.45 -47.2 2.0 -41.1 -3.45 -32.7 -6.55 -24.35 -9.65 -23.0 -11.55 -26.35 -10.4 -32.0 -8.8 L-31.75 -12.2 Q-30.75 -16.85 -29.9 -18.35 L-28.0 -21.6 Q-27.0 -23.3 -23.9 -25.85 -16.95 -31.65 -7.4 -32.55 L-7.4 -22.05 -5.4 -30.0 -5.15 -33.05 Q-3.5 -43.85 8.2 -44.65 L3.0 -33.3 Q4.95 -33.95 5.55 -36.0 9.5 -48.9 22.15 -50.45 36.35 -51.85 43.4 -39.35 L40.4 -39.6 40.0 -39.6 38.65 -39.65 37.5 -39.7 Q23.05 -40.05 13.9 -25.55 L12.75 -23.7 11.7 -21.8 13.65 -23.45 15.4 -25.0 20.3 -29.8 21.75 -31.4 Q24.45 -34.1 27.55 -35.65 30.55 -37.15 34.05 -37.55 L34.8 -37.65 34.9 -37.65 36.5 -37.7 37.3 -37.7 41.3 -37.3 Q45.05 -36.8 47.55 -34.2 57.05 -24.2 52.5 -11.85 L48.5 -6.3 Q46.05 -3.05 37.85 0.4 L35.8 1.2 35.65 1.25 26.25 4.95 25.5 5.25 25.95 7.35 Q27.85 18.45 22.5 25.4 16.3 33.45 8.25 32.45 0.2 31.4 -2.8 26.55 -4.55 23.65 -5.7 20.65 L-6.15 19.55 -6.75 17.65 -6.95 16.9 -7.1 16.3 -7.0 17.75 -6.75 19.8 Q-6.2 23.45 -4.75 26.85 L-2.9 30.4 -3.45 31.4 -4.5 33.15 -6.3 35.65 Q-14.4 46.05 -27.45 44.45 -43.8 41.2 -44.8 31.0 L-44.85 30.2 -44.9 28.3 -44.9 28.15 -44.25 20.45 -44.1 19.6 -44.05 19.45 Q-43.95 25.9 -42.6 29.7 -40.65 35.3 -36.4 37.9 -33.85 39.0 -32.05 39.0 -22.75 39.0 -16.55 36.2 -13.25 34.65 -11.4 32.6 -10.1 31.1 -9.45 28.85 L-9.45 28.7 -8.95 26.7 -8.55 24.75 -8.55 20.8 -8.5 20.45 -8.5 20.0 -8.8 18.45 -9.65 13.35 Q-9.65 8.3 -9.25 5.45 -8.6 0.8 -6.75 -1.5 L-6.3 -1.35 Q-6.15 -1.25 -6.15 -0.85 -8.05 6.6 -8.05 8.15 L-7.6 13.3 -7.8 12.95 Q-7.4 13.65 -7.2 14.75 L-6.75 15.75 -6.05 17.35 -5.0 19.0 -4.95 19.05 Q-1.45 23.7 6.6 23.7 15.1 23.7 19.55 16.75 22.4 12.2 22.4 8.55 22.4 4.95 19.05 1.6 L16.7 -0.95 16.15 -1.7 16.15 -1.75 15.25 -2.5 14.5 -3.2 Q11.7 -5.4 5.75 -5.8 L5.35 -5.95 Q5.2 -6.0 5.2 -6.4 5.2 -8.95 10.95 -6.6 13.75 -5.45 16.1 -4.05 L17.8 -2.95 19.75 -1.5 20.4 -0.95 26.6 -1.05 31.65 -2.9 33.65 -3.75 Q40.35 -6.8 43.6 -10.6 47.5 -15.1 47.5 -22.05 47.5 -27.5 42.8 -31.8 38.6 -35.7 34.5 -35.7 30.85 -35.7 27.15 -34.2 L23.45 -32.55 21.5 -30.2 16.35 -24.55 14.8 -23.0 13.8 -22.05 Q8.3 -16.75 7.15 -16.75 6.15 -16.75 5.95 -17.3 5.8 -17.6 5.9 -17.95 L7.95 -20.3 10.85 -23.9 11.2 -24.55 12.15 -25.85 13.65 -27.7 Q15.55 -29.95 16.25 -31.15 19.05 -36.1 26.85 -39.0 L32.55 -40.9 Q35.5 -41.85 36.5 -42.5 36.5 -43.6 34.5 -44.45 32.25 -45.45 29.0 -45.2 L28.95 -45.25 Q20.45 -44.5 15.05 -39.75 12.95 -37.95 11.55 -35.8 L10.45 -33.75 5.3 -25.15 3.7 -22.55 2.7 -21.0 -1.5 -14.7 Q-4.45 -10.85 -8.4 -8.25 L-8.8 -7.95 -8.65 -8.5 Q-7.8 -11.45 -7.8 -14.15 L-7.85 -15.95 -8.05 -18.3 -8.4 -20.3 Q-9.1 -24.15 -10.25 -25.75 -15.05 -29.95 -19.75 -24.55 -21.3 -22.85 -22.6 -20.35 L-23.6 -17.95 Q-23.6 -16.65 -21.7 -16.2 L-17.6 -15.65 Q-14.7 -15.2 -13.2 -13.8 -12.4 -13.1 -12.0 -12.15 -11.6 -11.1 -11.6 -9.8 L-12.0 -7.65 -16.25 -7.5 -18.9 -7.35 Q-26.65 -6.7 -32.05 -4.9 -36.45 -3.45 -41.35 -0.05 -43.6 1.5 -47.25 5.7 -51.25 10.3 -51.25 12.0 L-51.2 12.8 Q-51.05 13.25 -50.25 13.55 L-49.0 13.55 Q-47.65 12.25 -44.95 8.6 -42.35 5.15 -40.25 3.25 -33.7 -2.65 -20.6 -4.85 L-18.75 -5.15 -13.5 -5.15 Q-15.95 -4.0 -19.3 -3.2 L-20.8 -2.9 -22.05 -2.45 -26.2 -0.6 -30.3 1.2 M41.25 27.45 Q42.95 24.6 44.05 21.65 L44.65 22.45 48.6 26.25 Q47.4 29.5 45.4 32.6 L44.0 31.1 41.25 27.45 M42.45 36.6 L39.65 39.65 Q34.4 44.9 28.85 47.7 L28.3 47.0 25.35 43.1 Q29.4 40.95 33.7 36.8 L34.95 35.55 38.05 32.05 38.35 31.7 42.45 36.6 M24.95 49.3 L23.1 49.85 22.15 50.05 19.45 46.15 19.2 45.8 21.55 44.95 24.95 49.3" fill="#d7d7d7" fill-rule="evenodd" stroke="none"/>
    <path d="M-44.1 19.6 L-44.25 20.45 -44.9 28.15 -44.9 28.3 -44.85 30.2 -44.8 31.0 Q-43.8 41.2 -27.45 44.45 -14.4 46.05 -6.3 35.65 L-4.5 33.15 -3.45 31.4 -2.9 30.4 -4.75 26.85 Q-6.2 23.45 -6.75 19.8 L-7.0 17.75 -7.1 16.3 -6.95 16.9 -6.75 17.65 -6.15 19.55 -5.7 20.65 Q-4.55 23.65 -2.8 26.55 0.2 31.4 8.25 32.45 16.3 33.45 22.5 25.4 27.85 18.45 25.95 7.35 L25.5 5.25 26.25 4.95 35.65 1.25 35.8 1.2 37.85 0.4 Q46.05 -3.05 48.5 -6.3 L52.5 -11.85 Q57.05 -24.2 47.55 -34.2 45.05 -36.8 41.3 -37.3 L37.3 -37.7 36.5 -37.7 34.9 -37.65 34.8 -37.65 34.05 -37.55 Q30.55 -37.15 27.55 -35.65 24.45 -34.1 21.75 -31.4 L20.3 -29.8 15.4 -25.0 13.65 -23.45 11.7 -21.8 12.75 -23.7 13.9 -25.55 Q23.05 -40.05 37.5 -39.7 L38.65 -39.65 40.0 -39.6 40.4 -39.6 43.4 -39.35 Q36.35 -51.85 22.15 -50.45 9.5 -48.9 5.55 -36.0 4.95 -33.95 3.0 -33.3 L8.2 -44.65 Q-3.5 -43.85 -5.15 -33.05 L-5.4 -30.0 -7.4 -22.05 -7.4 -32.55 Q-16.95 -31.65 -23.9 -25.85 -27.0 -23.3 -28.0 -21.6 L-29.9 -18.35 Q-30.75 -16.85 -31.75 -12.2 L-32.0 -8.8 Q-26.35 -10.4 -23.0 -11.55 -24.35 -9.65 -32.7 -6.55 -41.1 -3.45 -47.2 2.0 -53.3 7.45 -54.2 14.35 -55.1 21.25 -47.05 28.9 -48.15 10.8 -32.95 1.05 L-32.4 0.75 Q-30.0 -0.65 -24.95 -1.8 L-30.3 1.2 Q-38.7 6.4 -41.55 12.05 -43.25 15.4 -44.1 19.6 M-2.9 34.65 Q-7.55 43.0 -17.15 45.7 -30.55 49.4 -41.3 40.8 -45.8 37.25 -47.0 31.45 -56.45 25.1 -56.25 13.35 -56.15 7.55 -52.15 3.6 -44.4 -3.85 -34.25 -7.45 -33.65 -20.55 -23.7 -29.0 -16.7 -34.95 -7.35 -34.4 -5.0 -44.95 5.6 -46.8 L9.25 -46.4 Q21.25 -56.9 36.2 -49.6 43.6 -46.05 46.4 -38.35 54.0 -32.3 56.2 -23.0 57.1 -9.5 45.6 -2.0 L39.3 1.7 37.35 2.65 Q34.2 4.1 30.85 5.25 27.35 6.55 28.0 10.2 30.35 23.35 19.85 30.95 12.7 36.1 4.05 33.6 L-1.55 31.85 -1.95 32.8 -2.9 34.65" fill="#515151" fill-rule="evenodd" stroke="none"/>
    <path d="M-1.25 -35.4 Q-0.4 -37.75 0.85 -37.7 2.0 -37.6 2.0 -36.1 L1.35 -34.45 0.35 -31.95 Q0.1 -31.25 0.0 -29.9 L-0.25 -27.8 Q-0.55 -25.7 -1.45 -23.3 L-1.8 -22.35 Q-2.8 -20.05 -3.75 -20.05 -4.45 -20.05 -4.5 -20.8 L-4.55 -21.05 -2.3 -30.7 -1.25 -35.4 M-30.3 1.2 L-26.2 -0.6 -22.05 -2.45 -20.8 -2.9 -19.3 -3.2 Q-15.95 -4.0 -13.5 -5.15 L-18.75 -5.15 -20.6 -4.85 Q-33.7 -2.65 -40.25 3.25 -42.35 5.15 -44.95 8.6 -47.65 12.25 -49.0 13.55 L-50.25 13.55 Q-51.05 13.25 -51.2 12.8 L-51.25 12.0 Q-51.25 10.3 -47.25 5.7 -43.6 1.5 -41.35 -0.05 -36.45 -3.45 -32.05 -4.9 -26.65 -6.7 -18.9 -7.35 L-16.25 -7.5 -12.0 -7.65 -11.6 -9.8 Q-11.6 -11.1 -12.0 -12.15 -12.4 -13.1 -13.2 -13.8 -14.7 -15.2 -17.6 -15.65 L-21.7 -16.2 Q-23.6 -16.65 -23.6 -17.95 L-22.6 -20.35 Q-21.3 -22.85 -19.75 -24.55 -15.05 -29.95 -10.25 -25.75 -9.1 -24.15 -8.4 -20.3 L-8.05 -18.3 -7.85 -15.95 -7.8 -14.15 Q-7.8 -11.45 -8.65 -8.5 L-8.8 -7.95 -8.4 -8.25 Q-4.45 -10.85 -1.5 -14.7 L2.7 -21.0 3.7 -22.55 5.3 -25.15 10.45 -33.75 11.55 -35.8 Q12.95 -37.95 15.05 -39.75 20.45 -44.5 28.95 -45.25 L29.0 -45.2 Q32.25 -45.45 34.5 -44.45 36.5 -43.6 36.5 -42.5 35.5 -41.85 32.55 -40.9 L26.85 -39.0 Q19.05 -36.1 16.25 -31.15 15.55 -29.95 13.65 -27.7 L12.15 -25.85 11.2 -24.55 10.85 -23.9 7.95 -20.3 5.9 -17.95 Q5.8 -17.6 5.95 -17.3 6.15 -16.75 7.15 -16.75 8.3 -16.75 13.8 -22.05 L14.8 -23.0 16.35 -24.55 21.5 -30.2 23.45 -32.55 27.15 -34.2 Q30.85 -35.7 34.5 -35.7 38.6 -35.7 42.8 -31.8 47.5 -27.5 47.5 -22.05 47.5 -15.1 43.6 -10.6 40.35 -6.8 33.65 -3.75 L31.65 -2.9 26.6 -1.05 20.4 -0.95 19.75 -1.5 17.8 -2.95 16.1 -4.05 Q13.75 -5.45 10.95 -6.6 5.2 -8.95 5.2 -6.4 5.2 -6.0 5.35 -5.95 L5.75 -5.8 Q11.7 -5.4 14.5 -3.2 L15.25 -2.5 16.15 -1.75 16.15 -1.7 16.7 -0.95 19.05 1.6 Q22.4 4.95 22.4 8.55 22.4 12.2 19.55 16.75 15.1 23.7 6.6 23.7 -1.45 23.7 -4.95 19.05 L-5.0 19.0 -6.05 17.35 -6.75 15.75 -7.2 14.75 Q-7.4 13.65 -7.8 12.95 L-7.6 13.3 -8.05 8.15 Q-8.05 6.6 -6.15 -0.85 -6.15 -1.25 -6.3 -1.35 L-6.75 -1.5 Q-8.6 0.8 -9.25 5.45 -9.65 8.3 -9.65 13.35 L-8.8 18.45 -8.5 20.0 -8.5 20.45 -8.55 20.8 -8.55 24.75 -8.95 26.7 -9.45 28.7 -9.45 28.85 Q-10.1 31.1 -11.4 32.6 -13.25 34.65 -16.55 36.2 -22.75 39.0 -32.05 39.0 -33.85 39.0 -36.4 37.9 -40.65 35.3 -42.6 29.7 -43.95 25.9 -44.05 19.45 L-44.1 19.6 Q-43.25 15.4 -41.55 12.05 -38.7 6.4 -30.3 1.2 M-0.8 -10.3 Q-2.6 -9.6 -2.6 -8.7 L-2.55 -8.05 Q-2.35 -7.5 -1.35 -7.5 L3.1 -8.5 Q7.75 -9.7 14.25 -10.3 L17.2 -10.55 25.5 -10.95 28.2 -11.2 29.0 -11.65 33.85 -13.75 Q38.05 -15.4 39.95 -18.3 41.4 -20.5 41.4 -22.95 41.4 -25.1 39.95 -27.2 38.2 -29.7 35.0 -30.95 30.75 -31.7 28.5 -30.45 L25.75 -28.15 Q24.5 -27.35 23.45 -25.95 L21.9 -23.95 Q13.55 -15.5 4.3 -12.0 L-0.8 -10.3 M-12.35 -0.95 Q-12.35 -3.05 -16.0 -1.5 -19.6 0.0 -24.1 3.85 -35.85 13.8 -35.85 22.85 -35.85 26.1 -31.75 27.7 -28.45 28.95 -23.35 28.95 -18.5 28.95 -16.7 25.35 -15.35 22.65 -14.6 14.45 -14.5 13.35 -14.55 10.5 L-14.35 6.75 -13.25 3.05 Q-12.35 0.05 -12.35 -0.95 M6.95 -3.6 Q2.6 -4.8 -0.05 -3.1 -3.25 -1.05 -3.25 4.7 -3.35 7.65 -2.5 10.2 -0.75 15.2 4.25 15.2 9.7 15.2 13.85 10.75 17.1 7.25 17.1 5.2 17.1 2.85 13.9 0.1 10.8 -2.55 6.95 -3.6" fill="#f0f0f0" fill-rule="evenodd" stroke="none"/>
    <path d="M-12.35 -0.95 Q-12.35 0.05 -13.25 3.05 L-14.35 6.75 -14.55 10.5 Q-14.5 13.35 -14.6 14.45 -15.35 22.65 -16.7 25.35 -18.5 28.95 -23.35 28.95 -28.45 28.95 -31.75 27.7 -35.85 26.1 -35.85 22.85 -35.85 13.8 -24.1 3.85 -19.6 0.0 -16.0 -1.5 -12.35 -3.05 -12.35 -0.95 M-0.8 -10.3 L4.3 -12.0 Q13.55 -15.5 21.9 -23.95 L23.45 -25.95 Q24.5 -27.35 25.75 -28.15 L28.5 -30.45 Q30.75 -31.7 35.0 -30.95 38.2 -29.7 39.95 -27.2 41.4 -25.1 41.4 -22.95 41.4 -20.5 39.95 -18.3 38.05 -15.4 33.85 -13.75 L29.0 -11.65 28.2 -11.2 25.5 -10.95 17.2 -10.55 14.25 -10.3 Q7.75 -9.7 3.1 -8.5 L-1.35 -7.5 Q-2.35 -7.5 -2.55 -8.05 L-2.6 -8.7 Q-2.6 -9.6 -0.8 -10.3 M6.95 -3.6 Q10.8 -2.55 13.9 0.1 17.1 2.85 17.1 5.2 17.1 7.25 13.85 10.75 9.7 15.2 4.25 15.2 -0.75 15.2 -2.5 10.2 -3.35 7.65 -3.25 4.7 -3.25 -1.05 -0.05 -3.1 2.6 -4.8 6.95 -3.6" fill="#fcfcfc" fill-rule="evenodd" stroke="none"/>
    <path d="M-1.95 32.8 L-1.55 31.85 4.05 33.6 Q12.7 36.1 19.85 30.95 30.35 23.35 28.0 10.2 27.35 6.55 30.85 5.25 34.2 4.1 37.35 2.65 L41.3 6.15 41.35 6.15 42.4 7.0 42.45 7.05 43.6 8.0 Q45.65 11.95 44.25 19.7 43.5 23.5 41.25 27.45 L41.25 27.5 38.05 32.05 34.95 35.55 33.7 36.8 Q29.4 40.95 25.35 43.1 L25.05 43.25 Q22.45 44.5 20.0 45.0 12.85 46.4 9.6 45.8 L9.35 45.45 Q4.25 38.7 -1.95 32.8 M42.0 18.8 Q42.75 16.1 42.75 14.85 42.75 13.85 39.4 11.55 36.4 9.5 35.4 9.2 33.9 8.25 32.6 11.05 31.5 13.3 31.5 14.85 31.5 15.75 32.8 16.7 L35.0 18.5 37.55 20.75 39.75 22.3 Q41.0 22.3 42.0 18.8 M19.95 34.7 L18.5 36.05 14.5 37.45 Q13.5 37.65 13.15 38.5 L14.9 40.6 16.35 42.7 16.3 43.5 Q16.45 43.9 17.5 44.5 L18.75 44.5 Q21.7 43.75 23.95 42.45 26.75 40.9 26.75 39.35 26.75 37.9 25.05 35.8 23.25 33.55 21.9 33.6 21.05 33.65 19.95 34.7 M33.85 24.45 Q30.75 21.35 30.25 22.5 L28.75 26.05 27.25 28.15 26.1 29.6 30.5 36.3 Q31.9 36.3 34.35 33.5 36.9 30.55 36.9 28.45 36.9 27.45 33.85 24.45" fill="#a8a8a8" fill-rule="evenodd" stroke="none"/>
    <path d="M39.3 1.7 L42.6 4.6 43.7 5.5 48.65 9.45 48.75 9.5 Q53.95 14.1 51.55 23.6 49.25 32.75 41.05 41.05 32.75 49.4 23.6 51.8 15.55 53.8 11.05 50.4 L11.0 50.35 9.55 49.05 9.35 48.8 9.25 48.7 7.75 46.65 Q2.9 40.25 -2.9 34.65 L-1.95 32.8 Q4.25 38.7 9.35 45.45 L9.6 45.8 Q12.85 46.4 20.0 45.0 22.45 44.5 25.05 43.25 23.3 44.2 21.55 44.95 L19.2 45.8 17.5 46.3 10.45 46.95 10.85 47.5 12.25 48.8 Q15.85 51.4 22.15 50.05 L23.1 49.85 24.95 49.3 28.85 47.7 Q34.4 44.9 39.65 39.65 L42.45 36.6 45.4 32.6 Q47.4 29.5 48.6 26.25 L49.6 23.1 Q51.65 15.0 47.4 11.0 L45.3 9.4 Q46.4 13.15 45.05 18.5 L44.05 21.65 Q42.95 24.6 41.25 27.45 43.5 23.5 44.25 19.7 45.65 11.95 43.6 8.0 L42.45 7.05 42.4 7.0 41.35 6.15 41.3 6.15 37.35 2.65 39.3 1.7" fill="#58524e" fill-rule="evenodd" stroke="none"/>
    <path d="M44.05 21.65 L45.05 18.5 Q46.4 13.15 45.3 9.4 L47.4 11.0 Q51.65 15.0 49.6 23.1 L48.6 26.25 44.65 22.45 44.05 21.65 M45.4 32.6 L42.45 36.6 38.35 31.7 38.05 32.05 41.25 27.5 41.25 27.45 44.0 31.1 45.4 32.6 M28.85 47.7 L24.95 49.3 21.55 44.95 Q23.3 44.2 25.05 43.25 L25.35 43.1 28.3 47.0 28.85 47.7 M22.15 50.05 Q15.85 51.4 12.25 48.8 L10.85 47.5 10.45 46.95 17.5 46.3 19.2 45.8 19.45 46.15 22.15 50.05 M42.0 18.8 Q41.0 22.3 39.75 22.3 L37.55 20.75 35.0 18.5 32.8 16.7 Q31.5 15.75 31.5 14.85 31.5 13.3 32.6 11.05 33.9 8.25 35.4 9.2 36.4 9.5 39.4 11.55 42.75 13.85 42.75 14.85 42.75 16.1 42.0 18.8 M33.85 24.45 Q36.9 27.45 36.9 28.45 36.9 30.55 34.35 33.5 31.9 36.3 30.5 36.3 L26.1 29.6 27.25 28.15 28.75 26.05 30.25 22.5 Q30.75 21.35 33.85 24.45 M19.95 34.7 Q21.05 33.65 21.9 33.6 23.25 33.55 25.05 35.8 26.75 37.9 26.75 39.35 26.75 40.9 23.95 42.45 21.7 43.75 18.75 44.5 L17.5 44.5 Q16.45 43.9 16.3 43.5 L16.35 42.7 14.9 40.6 13.15 38.5 Q13.5 37.65 14.5 37.45 L18.5 36.05 19.95 34.7" fill="#c4c4c4" fill-rule="evenodd" stroke="none"/>
  </g>
</svg>
