<?xml version="1.0" encoding="UTF-8" standalone="no"?>
<svg xmlns:ffdec="https://www.free-decompiler.com/flash" xmlns:xlink="http://www.w3.org/1999/xlink" ffdec:objectType="shape" height="106.8px" width="120.75px" xmlns="http://www.w3.org/2000/svg">
  <g transform="matrix(1.0, 0.0, 0.0, 1.0, 30.3, 22.9)">
    <path d="M15.1 -15.95 L14.25 -16.25 10.6 -14.85 13.65 -14.35 15.1 -15.95 M-6.75 -9.7 Q-5.55 -12.55 -4.05 -15.05 -3.3 -16.25 -3.3 -17.6 -3.3 -19.6 -0.8 -21.2 1.85 -22.9 5.5 -22.9 L9.15 -22.25 9.05 -20.75 3.85 -16.95 Q0.65 -14.6 -0.65 -12.3 L0.5 -13.4 Q4.0 -16.55 8.65 -16.55 L11.2 -17.1 13.75 -17.7 Q14.75 -17.7 16.5 -16.25 19.85 -18.4 22.0 -19.2 24.9 -20.3 28.8 -20.3 29.85 -20.3 32.15 -19.25 L34.35 -18.2 38.2 -19.0 41.4 -19.85 Q44.2 -19.85 44.95 -18.5 45.35 -17.8 45.3 -15.5 45.3 -13.45 46.05 -12.55 47.25 -11.2 50.8 -11.2 53.45 -11.2 54.4 -9.7 55.0 -8.85 55.65 -6.55 L53.4 -6.6 52.95 -7.4 Q52.15 -9.3 48.8 -10.1 L45.4 -10.55 Q46.1 -10.0 46.6 -9.85 49.3 -8.95 53.05 -6.7 L52.5 -6.9 49.5 -8.0 48.45 -8.0 Q48.15 -7.95 48.15 -7.3 48.15 -5.25 50.75 -3.8 L61.7 0.0 73.45 11.8 Q84.6 23.75 84.6 29.35 84.6 36.65 85.4 37.7 L87.35 39.55 Q88.25 41.0 85.5 42.4 84.45 41.4 83.9 41.25 83.5 41.1 83.15 41.45 83.6 41.45 83.9 44.8 L84.15 48.9 84.0 50.45 Q83.45 53.0 83.45 54.45 L84.65 58.35 85.8 61.75 Q85.8 62.9 82.3 62.9 81.9 62.9 81.1 61.5 79.95 59.4 78.45 54.85 L77.65 57.15 Q79.1 59.4 79.9 62.6 80.45 65.05 80.45 67.1 L80.3 71.7 76.8 71.8 Q77.05 67.75 76.05 64.6 L74.95 62.3 75.25 63.3 Q75.6 64.1 75.25 64.95 L74.5 66.25 73.75 65.95 72.75 61.2 71.95 67.85 Q71.95 68.35 72.65 70.0 L73.3 72.1 72.85 79.0 69.15 75.15 Q69.3 72.15 68.55 70.1 L67.5 67.9 Q66.95 67.05 67.2 65.75 L68.25 61.6 69.0 58.5 Q70.2 61.35 70.2 62.15 L70.3 65.15 70.45 63.65 Q71.25 61.0 71.25 60.25 L71.15 59.4 71.0 59.25 Q71.0 57.4 70.15 55.45 L69.3 53.3 68.8 51.7 68.25 50.85 67.85 51.8 67.45 53.5 Q67.45 54.8 68.6 57.55 L66.9 60.45 65.3 63.35 Q64.25 62.7 63.75 65.45 L63.45 68.4 Q63.45 70.5 65.7 73.55 65.45 74.95 64.55 74.95 L63.5 74.0 61.7 71.05 62.35 67.3 62.65 64.1 Q62.65 60.0 61.65 57.4 L59.95 52.5 59.85 54.1 Q60.05 56.55 61.65 61.05 L59.55 60.95 58.65 58.45 Q58.8 61.65 57.95 71.05 57.95 73.55 57.25 74.7 L56.45 74.4 55.7 70.85 Q55.35 68.85 55.35 68.05 L55.6 63.95 Q54.85 65.65 53.2 72.7 L54.75 76.0 Q56.25 79.5 56.25 80.8 56.25 82.25 55.3 83.2 54.55 83.9 53.75 83.9 53.15 83.9 52.65 83.2 L52.3 82.5 Q52.1 80.8 50.0 77.35 48.15 74.25 48.15 71.0 48.15 69.3 49.2 65.85 50.25 65.0 50.9 62.45 L51.35 59.55 Q51.35 55.9 50.0 54.05 L49.2 54.95 48.55 47.05 47.5 48.15 Q46.45 49.4 46.45 50.0 46.45 50.5 47.55 52.4 L48.6 54.8 Q48.6 56.8 46.4 61.15 43.85 66.2 41.45 66.2 38.85 66.2 38.85 64.95 44.2 56.65 44.2 55.95 44.2 54.4 42.05 51.5 L39.85 48.5 Q39.85 48.15 42.3 46.9 45.2 45.4 46.65 43.5 47.6 42.25 47.35 39.5 46.9 37.0 47.0 36.8 L45.55 36.2 Q44.7 35.85 44.7 35.4 L44.0 32.65 Q43.3 30.35 43.3 29.85 L43.55 27.8 Q36.95 28.1 32.65 24.45 29.1 21.45 29.1 18.3 L29.3 16.8 29.5 16.0 27.25 15.05 25.75 14.7 23.0 15.2 20.25 15.7 Q19.65 15.7 18.1 14.6 L16.65 13.45 15.05 15.55 Q14.75 15.9 14.1 15.9 13.3 15.9 10.4 14.6 7.3 13.2 -1.95 12.85 -2.2 13.7 -7.2 17.55 -9.0 17.7 -9.8 18.1 -10.25 18.3 -10.3 18.5 -10.9 18.35 -12.45 20.3 -14.05 22.35 -14.45 22.4 L-15.2 19.0 Q-15.7 17.1 -18.5 15.65 L-19.1 15.85 Q-19.75 16.15 -19.75 16.75 L-19.75 19.6 Q-19.75 21.85 -20.05 22.65 -20.4 23.7 -22.8 26.3 -24.75 28.4 -24.75 30.95 -24.75 34.1 -22.65 37.8 -20.55 41.5 -20.55 43.2 -20.55 46.5 -22.95 50.2 -25.45 54.05 -27.95 54.05 L-30.2 53.8 -30.3 51.9 Q-30.3 51.0 -29.95 50.75 L-28.35 50.0 Q-25.9 48.85 -24.95 46.9 -24.3 45.5 -24.3 43.2 -24.3 41.4 -27.15 36.7 -30.05 32.05 -30.05 27.05 -30.05 26.4 -27.8 24.35 -25.55 22.35 -25.55 21.05 L-26.4 16.35 -27.25 10.85 Q-27.25 9.45 -24.2 7.5 -20.95 5.45 -20.55 3.9 -20.0 1.9 -17.8 -1.15 -15.3 -4.6 -13.75 -4.6 L-11.4 -4.3 -8.95 -4.1 -8.45 -3.3 -7.65 -2.5 -6.45 -3.85 Q-6.2 -4.4 -6.2 -5.6 -6.2 -6.6 -6.75 -9.7 M50.75 -3.8 L49.9 -3.15 50.75 -1.5 Q51.55 0.6 51.75 4.0 52.35 3.75 52.75 2.75 L53.1 1.0 Q53.1 -1.95 50.75 -3.8 M10.0 -14.85 L9.55 -15.0 Q0.7 -20.4 -4.5 1.9 -4.5 2.5 -2.2 6.7 L0.4 11.4 Q0.0 8.85 -1.35 3.35 L-2.55 -2.0 Q-2.55 -7.0 3.1 -11.25 7.35 -14.45 10.0 -14.85 M4.6 -21.1 L3.05 -20.95 Q-1.6 -17.55 -3.15 -13.95 -3.7 -12.6 -5.45 -4.55 L-5.2 -3.2 Q-5.1 -5.1 -4.2 -6.75 L-3.4 -8.55 Q-3.4 -9.55 -3.8 -10.95 -0.8 -15.85 -0.75 -16.6 L4.6 -21.1 M0.4 -2.05 L0.4 0.4 Q2.6 -2.5 5.0 -4.35 7.1 -5.95 10.45 -10.75 L9.5 -11.3 4.35 -4.65 Q2.7 -2.6 0.4 -2.05 M31.05 -16.55 Q33.3 -15.8 35.05 -15.8 L37.25 -16.3 39.45 -16.85 Q39.85 -16.85 42.45 -13.65 L44.35 -11.55 Q44.65 -13.6 43.95 -15.6 43.05 -18.1 41.5 -18.1 L37.4 -17.3 33.25 -16.55 Q31.8 -16.55 29.65 -17.7 L26.25 -19.6 Q27.9 -17.6 31.05 -16.55 M13.4 -3.35 Q14.9 -6.05 17.8 -8.0 20.4 -9.7 22.0 -9.7 24.35 -9.7 26.55 -8.85 28.3 -8.15 29.0 -7.45 29.75 -6.7 32.25 -5.35 34.5 -3.9 35.05 -1.8 35.9 1.3 40.15 4.1 43.0 6.0 43.8 7.5 42.85 5.3 40.05 1.85 35.65 -3.6 35.0 -7.0 34.65 -8.8 31.65 -9.6 L28.5 -10.1 Q27.3 -10.4 25.8 -11.85 L24.05 -13.25 22.55 -12.65 Q20.65 -11.6 16.1 -10.1 13.15 -9.1 10.85 -6.4 9.15 -4.4 8.15 -1.85 4.8 0.4 3.45 4.15 2.65 6.3 2.65 8.3 2.65 9.0 3.15 10.5 L3.8 12.1 5.45 11.65 Q1.85 5.95 6.15 2.5 L10.15 -0.2 Q12.55 -1.85 13.4 -3.35 M21.8 -1.95 Q16.75 -1.95 13.0 3.25 11.1 6.0 9.45 9.95 L9.75 10.65 10.5 10.85 Q11.5 10.85 12.3 9.5 L14.75 5.3 Q19.35 -1.65 21.0 -0.55 22.35 0.25 26.25 0.9 L28.25 0.55 30.25 0.15 31.2 0.4 31.95 0.65 32.35 1.2 33.2 1.9 Q32.25 -0.5 30.05 -0.55 L26.65 -0.05 Q24.1 0.15 23.3 -0.85 22.45 -1.95 21.8 -1.95 M36.85 -12.15 Q34.05 -13.95 30.25 -13.55 37.3 -11.15 38.0 -9.55 L38.1 -8.1 Q38.1 -7.1 38.75 -6.2 39.9 -4.45 42.5 -3.85 L45.05 -3.6 Q45.8 -3.6 46.05 -2.1 46.35 -0.15 46.8 0.45 L47.4 0.75 47.85 0.65 Q48.4 -1.9 44.95 -4.3 40.65 -7.3 40.2 -8.25 39.05 -10.7 36.85 -12.15 M82.1 33.5 L83.25 29.4 Q82.6 25.25 81.9 23.4 80.75 20.25 76.45 18.1 81.2 22.05 81.2 27.05 L80.25 38.15 Q80.25 54.65 81.25 58.45 81.65 59.9 82.45 60.5 L84.05 61.55 Q82.1 55.6 82.1 53.4 L81.45 36.25 Q81.45 35.7 82.1 33.5 M70.2 9.15 Q68.95 7.9 64.75 5.6 59.8 2.9 57.4 2.9 54.7 2.75 52.95 4.15 L54.6 3.8 58.1 3.65 60.4 5.3 Q63.95 8.45 70.2 9.15 M70.5 22.95 L71.25 23.4 71.5 22.35 Q71.5 21.5 68.45 18.5 64.95 15.05 64.25 13.75 64.6 16.6 66.95 19.4 67.85 20.55 70.5 22.95 M64.9 23.9 Q62.35 22.1 60.4 13.75 53.2 12.55 51.35 11.2 49.9 9.25 48.15 7.6 L47.4 7.5 Q47.65 8.3 49.2 10.65 50.95 13.4 52.05 13.95 54.0 15.0 56.1 15.2 60.2 15.75 60.2 17.4 60.25 20.4 62.95 22.75 68.85 26.4 69.75 27.4 71.55 29.3 71.55 33.5 L70.65 41.75 Q70.65 42.6 71.7 45.55 72.8 48.55 73.3 48.7 72.35 42.75 72.35 38.95 L72.55 32.75 Q72.6 30.85 72.1 28.95 71.1 25.05 68.45 24.5 66.3 24.9 64.9 23.9 M43.75 20.7 L45.4 20.65 43.85 18.05 43.75 20.7 M44.2 9.25 L44.05 8.15 44.05 8.5 43.2 10.7 Q42.35 12.7 42.35 13.5 42.35 15.1 43.3 16.75 L43.95 12.45 44.2 9.25 M73.5 15.4 Q73.0 14.65 73.0 14.0 73.25 11.65 71.25 9.7 L70.8 9.7 Q71.3 10.4 72.25 13.7 72.95 16.1 75.2 17.25 L74.5 16.6 73.5 15.4 M52.25 23.4 Q52.6 23.8 54.5 36.05 L55.05 36.65 Q55.05 25.25 53.95 23.5 53.4 22.65 52.0 22.3 L48.55 21.5 Q50.0 22.95 51.15 23.1 L52.25 23.4 M55.3 20.25 Q56.65 21.05 57.25 21.75 L57.7 22.5 58.5 22.65 Q58.7 20.95 57.5 19.65 56.05 18.05 53.55 19.3 L55.3 20.25 M57.65 44.0 Q57.75 45.1 58.15 46.2 L58.15 42.2 57.65 44.0 M51.9 48.2 Q51.7 48.4 51.85 49.45 L52.05 50.45 51.9 48.2 M47.9 27.7 Q46.15 25.95 41.75 25.0 37.15 24.05 35.6 22.75 32.8 20.4 32.8 14.45 L33.0 5.55 27.3 5.25 Q24.0 5.7 20.65 7.0 14.0 9.5 13.45 13.65 L20.65 8.7 Q23.45 7.2 27.2 7.2 30.55 7.2 31.85 9.25 32.7 10.6 32.7 13.0 L31.7 17.1 30.7 21.0 Q30.7 23.25 33.6 24.15 L40.05 25.35 Q49.4 27.05 49.4 34.95 49.4 39.75 47.75 42.85 46.0 46.15 41.65 48.7 45.4 50.95 45.4 54.35 45.4 56.2 43.35 59.6 L40.5 64.0 43.05 64.05 Q44.05 64.05 46.7 55.45 L46.9 54.0 Q46.9 52.8 45.65 51.35 44.4 49.9 44.4 49.25 L47.55 44.85 Q50.7 40.25 50.7 37.2 50.7 30.5 47.9 27.7 M57.7 36.4 L56.95 34.9 57.75 37.7 58.35 41.1 Q58.55 38.65 57.7 36.4 M75.95 27.6 Q76.35 29.7 75.8 36.45 75.8 37.45 76.55 38.9 L77.15 39.45 Q77.45 37.95 76.75 28.0 L75.95 27.6 M63.75 33.75 Q63.25 35.6 63.25 37.55 63.25 39.2 64.6 42.1 65.9 44.95 65.9 46.2 L64.85 48.25 Q63.8 49.8 63.8 50.3 63.8 51.3 64.25 53.15 L65.25 54.5 66.1 50.55 66.9 47.0 66.6 41.35 Q66.15 37.15 65.5 34.5 65.25 33.5 62.95 30.65 60.5 27.6 59.45 27.3 L63.3 32.1 Q63.95 32.9 63.75 33.75 M60.95 48.65 L59.35 48.65 60.2 50.3 60.95 48.65 M74.95 43.95 L74.5 44.5 74.8 45.7 Q75.55 47.7 76.75 52.9 77.5 51.4 77.5 49.9 L77.4 47.65 Q77.05 45.1 75.75 43.25 75.45 43.35 74.95 43.95 M39.5 10.6 L38.8 8.65 36.85 9.05 Q38.6 10.0 38.1 12.6 L37.25 15.55 37.4 16.6 37.8 17.4 38.4 18.05 39.1 18.55 Q38.3 17.7 38.3 16.7 L39.1 14.65 Q39.9 12.85 39.9 11.95 L39.5 10.6 M76.3 55.25 L76.4 54.95 75.7 57.15 75.3 58.75 Q75.3 60.6 77.05 62.5 78.75 64.4 78.75 65.85 L78.15 68.55 Q77.85 69.4 79.15 70.5 L79.4 67.1 Q79.4 65.35 77.8 62.25 76.15 59.15 76.15 56.3 76.15 55.7 76.3 55.25 M53.5 60.6 L53.2 59.95 50.05 71.95 Q50.05 73.85 52.25 76.65 54.45 79.4 54.4 82.1 L54.6 81.0 54.6 79.9 Q55.2 78.3 53.45 76.05 51.35 73.75 50.9 72.9 50.2 71.5 51.9 67.15 L53.8 61.95 53.5 60.6 M53.8 57.2 L54.1 55.75 Q54.1 54.6 53.6 53.35 51.95 50.1 53.8 57.2 M71.7 70.7 L70.95 68.4 70.6 67.6 71.0 72.05 Q70.8 72.95 71.25 72.2 L71.7 70.7 M59.6 63.15 L59.45 67.15 Q59.1 65.05 59.6 63.15 M59.45 69.05 L61.1 72.65 Q60.4 72.05 59.9 70.65 L59.45 69.05 M-13.45 -0.55 L-15.0 -0.8 Q-15.7 -0.35 -17.15 4.2 L-15.35 4.5 -13.45 -0.55 M-11.05 -2.45 L-11.95 -2.7 -13.0 -2.6 -10.0 1.0 Q-10.4 -2.0 -11.05 -2.45 M-22.55 46.35 L-22.75 44.7 Q-23.1 47.7 -25.75 50.9 L-23.0 47.7 Q-22.55 47.05 -22.55 46.35 M-23.2 8.85 L-25.45 10.45 Q-24.4 15.05 -24.4 17.35 -24.4 24.15 -26.35 26.3 L-27.7 27.5 Q-28.3 28.1 -28.3 29.2 -28.9 29.25 -24.85 37.9 L-25.75 32.9 -26.4 28.85 Q-26.4 27.2 -23.85 23.85 -21.35 20.45 -21.35 19.0 L-21.55 17.6 -21.75 16.9 -22.45 15.2 -22.75 13.85 Q-22.75 12.15 -21.65 10.25 -20.8 8.75 -19.85 8.0 -21.8 7.9 -23.2 8.85 M-17.55 6.75 L-18.2 7.25 Q-14.95 8.45 -12.4 10.65 -9.75 12.9 -8.75 15.55 L-7.9 15.6 Q-7.6 15.6 -7.6 15.0 -7.6 13.2 -10.7 10.0 -14.05 6.55 -16.6 6.55 L-17.55 6.75 M-7.9 7.2 L-7.75 8.5 -6.7 11.25 -5.55 14.0 -4.7 13.05 -7.9 7.2" fill="#37261c" fill-rule="evenodd" stroke="none"/>
    <path d="M15.1 -15.95 L13.65 -14.35 10.6 -14.85 14.25 -16.25 15.1 -15.95 M61.65 61.05 Q60.05 56.55 59.85 54.1 L59.95 52.5 61.65 57.4 Q62.65 60.0 62.65 64.1 L62.35 67.3 61.7 71.05 61.05 68.9 60.95 66.35 61.45 63.45 Q61.8 61.8 61.65 61.05 M68.6 57.55 Q67.45 54.8 67.45 53.5 L67.85 51.8 68.25 50.85 68.8 51.7 69.3 53.3 70.15 55.45 Q71.0 57.4 71.0 59.25 L71.15 59.4 71.25 60.25 Q71.25 61.0 70.45 63.65 L70.3 65.15 70.2 62.15 Q70.2 61.35 69.0 58.5 L69.2 57.5 68.75 57.4 68.6 57.55 M50.75 -3.8 Q53.1 -1.95 53.1 1.0 L52.75 2.75 Q52.35 3.75 51.75 4.0 51.55 0.6 50.75 -1.5 L49.9 -3.15 50.75 -3.8 M53.05 -6.7 Q49.3 -8.95 46.6 -9.85 46.1 -10.0 45.4 -10.55 L48.8 -10.1 Q52.15 -9.3 52.95 -7.4 L53.4 -6.6 53.45 -6.45 53.05 -6.7 M4.6 -21.1 L-0.75 -16.6 Q-0.8 -15.85 -3.8 -10.95 -3.4 -9.55 -3.4 -8.55 L-4.2 -6.75 Q-5.1 -5.1 -5.2 -3.2 L-5.45 -4.55 Q-3.7 -12.6 -3.15 -13.95 -1.6 -17.55 3.05 -20.95 L4.6 -21.1 M10.0 -14.85 Q7.35 -14.45 3.1 -11.25 -2.55 -7.0 -2.55 -2.0 L-1.35 3.35 Q0.0 8.85 0.4 11.4 L-2.2 6.7 Q-4.5 2.5 -4.5 1.9 0.7 -20.4 9.55 -15.0 L10.0 -14.85 M0.4 -2.05 Q2.7 -2.6 4.35 -4.65 L9.5 -11.3 10.45 -10.75 Q7.1 -5.95 5.0 -4.35 2.6 -2.5 0.4 0.4 L0.4 -2.05 M13.4 -3.35 Q12.55 -1.85 10.15 -0.2 L6.15 2.5 Q1.85 5.95 5.45 11.65 L3.8 12.1 3.15 10.5 Q2.65 9.0 2.65 8.3 2.65 6.3 3.45 4.15 4.8 0.4 8.15 -1.85 9.15 -4.4 10.85 -6.4 13.15 -9.1 16.1 -10.1 20.65 -11.6 22.55 -12.65 L24.05 -13.25 25.8 -11.85 Q27.3 -10.4 28.5 -10.1 L31.65 -9.6 Q34.65 -8.8 35.0 -7.0 35.65 -3.6 40.05 1.85 42.85 5.3 43.8 7.5 43.0 6.0 40.15 4.1 35.9 1.3 35.05 -1.8 34.5 -3.9 32.25 -5.35 29.75 -6.7 29.0 -7.45 28.3 -8.15 26.55 -8.85 24.35 -9.7 22.0 -9.7 20.4 -9.7 17.8 -8.0 14.9 -6.05 13.4 -3.35 M31.05 -16.55 Q27.9 -17.6 26.25 -19.6 L29.65 -17.7 Q31.8 -16.55 33.25 -16.55 L37.4 -17.3 41.5 -18.1 Q43.05 -18.1 43.95 -15.6 44.65 -13.6 44.35 -11.55 L42.45 -13.65 Q39.85 -16.85 39.45 -16.85 L37.25 -16.3 35.05 -15.8 Q33.3 -15.8 31.05 -16.55 M36.85 -12.15 Q39.05 -10.7 40.2 -8.25 40.65 -7.3 44.95 -4.3 48.4 -1.9 47.85 0.65 L47.4 0.75 46.8 0.45 Q46.35 -0.15 46.05 -2.1 45.8 -3.6 45.05 -3.6 L42.5 -3.85 Q39.9 -4.45 38.75 -6.2 38.1 -7.1 38.1 -8.1 L38.0 -9.55 Q37.3 -11.15 30.25 -13.55 34.05 -13.95 36.85 -12.15 M21.8 -1.95 Q22.45 -1.95 23.3 -0.85 24.1 0.15 26.65 -0.05 L30.05 -0.55 Q32.25 -0.5 33.2 1.9 L32.35 1.2 31.95 0.65 31.2 0.4 30.25 0.15 28.25 0.55 26.25 0.9 Q22.35 0.25 21.0 -0.55 19.35 -1.65 14.75 5.3 L12.3 9.5 Q11.5 10.85 10.5 10.85 L9.75 10.65 9.45 9.95 Q11.1 6.0 13.0 3.25 16.75 -1.95 21.8 -1.95 M82.1 33.5 Q81.45 35.7 81.45 36.25 L82.1 53.4 Q82.1 55.6 84.05 61.55 L82.45 60.5 Q81.65 59.9 81.25 58.45 80.25 54.65 80.25 38.15 L81.2 27.05 Q81.2 22.05 76.45 18.1 80.75 20.25 81.9 23.4 82.6 25.25 83.25 29.4 L82.1 33.5 M70.2 9.15 Q63.95 8.45 60.4 5.3 L58.1 3.65 54.6 3.8 52.95 4.15 Q54.7 2.75 57.4 2.9 59.8 2.9 64.75 5.6 68.95 7.9 70.2 9.15 M64.9 23.9 Q66.3 24.9 68.45 24.5 71.1 25.05 72.1 28.95 72.6 30.85 72.55 32.75 L72.35 38.95 Q72.35 42.75 73.3 48.7 72.8 48.55 71.7 45.55 70.65 42.6 70.65 41.75 L71.55 33.5 Q71.55 29.3 69.75 27.4 68.85 26.4 62.95 22.75 60.25 20.4 60.2 17.4 60.2 15.75 56.1 15.2 54.0 15.0 52.05 13.95 50.95 13.4 49.2 10.65 47.65 8.3 47.4 7.5 L48.15 7.6 Q49.9 9.25 51.35 11.2 53.2 12.55 60.4 13.75 62.35 22.1 64.9 23.9 M70.5 22.95 Q67.85 20.55 66.95 19.4 64.6 16.6 64.25 13.75 64.95 15.05 68.45 18.5 71.5 21.5 71.5 22.35 L71.25 23.4 70.5 22.95 M73.5 15.4 L74.5 16.6 75.2 17.25 Q72.95 16.1 72.25 13.7 71.3 10.4 70.8 9.7 L71.25 9.7 Q73.25 11.65 73.0 14.0 73.0 14.65 73.5 15.4 M44.2 9.25 L43.95 12.45 43.3 16.75 Q42.35 15.1 42.35 13.5 42.35 12.7 43.2 10.7 L44.05 8.5 44.05 8.15 44.2 9.25 M43.75 20.7 L43.85 18.05 45.4 20.65 43.75 20.7 M55.3 20.25 L53.55 19.3 Q56.05 18.05 57.5 19.65 58.7 20.95 58.5 22.65 L57.7 22.5 57.25 21.75 Q56.65 21.05 55.3 20.25 M52.25 23.4 L51.15 23.1 Q50.0 22.95 48.55 21.5 L52.0 22.3 Q53.4 22.65 53.95 23.5 55.05 25.25 55.05 36.65 L54.5 36.05 Q52.6 23.8 52.25 23.4 M57.7 36.4 Q58.55 38.65 58.35 41.1 L57.75 37.7 56.95 34.9 57.7 36.4 M47.9 27.7 Q50.7 30.5 50.7 37.2 50.7 40.25 47.55 44.85 L44.4 49.25 Q44.4 49.9 45.65 51.35 46.9 52.8 46.9 54.0 L46.7 55.45 Q44.05 64.05 43.05 64.05 L40.5 64.0 43.35 59.6 Q45.4 56.2 45.4 54.35 45.4 50.95 41.65 48.7 46.0 46.15 47.75 42.85 49.4 39.75 49.4 34.95 49.4 27.05 40.05 25.35 L33.6 24.15 Q30.7 23.25 30.7 21.0 L31.7 17.1 32.7 13.0 Q32.7 10.6 31.85 9.25 30.55 7.2 27.2 7.2 23.45 7.2 20.65 8.7 L13.45 13.65 Q14.0 9.5 20.65 7.0 24.0 5.7 27.3 5.25 L33.0 5.55 32.8 14.45 Q32.8 20.4 35.6 22.75 37.15 24.05 41.75 25.0 46.15 25.95 47.9 27.7 M51.9 48.2 L52.05 50.45 51.85 49.45 Q51.7 48.4 51.9 48.2 M57.65 44.0 L58.15 42.2 58.15 46.2 Q57.75 45.1 57.65 44.0 M63.75 33.75 Q63.95 32.9 63.3 32.1 L59.45 27.3 Q60.5 27.6 62.95 30.65 65.25 33.5 65.5 34.5 66.15 37.15 66.6 41.35 L66.9 47.0 66.1 50.55 65.25 54.5 64.25 53.15 Q63.8 51.3 63.8 50.3 63.8 49.8 64.85 48.25 L65.9 46.2 Q65.9 44.95 64.6 42.1 63.25 39.2 63.25 37.55 63.25 35.6 63.75 33.75 M75.95 27.6 L76.75 28.0 Q77.45 37.95 77.15 39.45 L76.55 38.9 Q75.8 37.45 75.8 36.45 76.35 29.7 75.95 27.6 M74.95 43.95 Q75.45 43.35 75.75 43.25 77.05 45.1 77.4 47.65 L77.5 49.9 Q77.5 51.4 76.75 52.9 75.55 47.7 74.8 45.7 L74.5 44.5 74.95 43.95 M60.95 48.65 L60.2 50.3 59.35 48.65 60.95 48.65 M39.5 10.6 L39.9 11.95 Q39.9 12.85 39.1 14.65 L38.3 16.7 Q38.3 17.7 39.1 18.55 L38.4 18.05 37.8 17.4 37.4 16.6 37.25 15.55 38.1 12.6 Q38.6 10.0 36.85 9.05 L38.8 8.65 39.5 10.6 M76.3 55.25 Q76.15 55.7 76.15 56.3 76.15 59.15 77.8 62.25 79.4 65.35 79.4 67.1 L79.15 70.5 Q77.85 69.4 78.15 68.55 L78.75 65.85 Q78.75 64.4 77.05 62.5 75.3 60.6 75.3 58.75 L75.7 57.15 76.4 54.95 76.3 55.25 M71.7 70.7 L71.25 72.2 Q70.8 72.95 71.0 72.05 L70.6 67.6 70.95 68.4 71.7 70.7 M53.8 57.2 Q51.95 50.1 53.6 53.35 54.1 54.6 54.1 55.75 L53.8 57.2 M53.5 60.6 L53.8 61.95 51.9 67.15 Q50.2 71.5 50.9 72.9 51.35 73.75 53.45 76.05 55.2 78.3 54.6 79.9 L54.6 81.0 54.4 82.1 Q54.45 79.4 52.25 76.65 50.05 73.85 50.05 71.95 L53.2 59.95 53.5 60.6 M-11.05 -2.45 Q-10.4 -2.0 -10.0 1.0 L-13.0 -2.6 -11.95 -2.7 -11.05 -2.45 M-13.45 -0.55 L-15.35 4.5 -17.15 4.2 Q-15.7 -0.35 -15.0 -0.8 L-13.45 -0.55 M-7.9 7.2 L-4.7 13.05 -5.55 14.0 -6.7 11.25 -7.75 8.5 -7.9 7.2 M-17.55 6.75 L-16.6 6.55 Q-14.05 6.55 -10.7 10.0 -7.6 13.2 -7.6 15.0 -7.6 15.6 -7.9 15.6 L-8.75 15.55 Q-9.75 12.9 -12.4 10.65 -14.95 8.45 -18.2 7.25 L-17.55 6.75 M-23.2 8.85 Q-21.8 7.9 -19.85 8.0 -20.8 8.75 -21.65 10.25 -22.75 12.15 -22.75 13.85 L-22.45 15.2 -21.75 16.9 -21.55 17.6 -21.35 19.0 Q-21.35 20.45 -23.85 23.85 -26.4 27.2 -26.4 28.85 L-25.75 32.9 -24.85 37.9 Q-28.9 29.25 -28.3 29.2 -28.3 28.1 -27.7 27.5 L-26.35 26.3 Q-24.4 24.15 -24.4 17.35 -24.4 15.05 -25.45 10.45 L-23.2 8.85 M-22.55 46.35 Q-22.55 47.05 -23.0 47.7 L-25.75 50.9 Q-23.1 47.7 -22.75 44.7 L-22.55 46.35" fill="#a47328" fill-rule="evenodd" stroke="none"/>
    <path d="M-6.75 -9.7 Q-6.2 -6.6 -6.2 -5.6 -6.2 -4.4 -6.45 -3.85 L-7.65 -2.5 -8.45 -3.3 -8.95 -4.1 Q-9.9 -6.7 -9.9 -8.05 L-9.4 -9.45 -8.55 -11.35 -7.95 -11.65 -6.75 -9.7 M49.2 54.95 L50.0 54.05 Q51.35 55.9 51.35 59.55 L50.9 62.45 Q50.25 65.0 49.2 65.85 47.3 67.5 46.7 70.85 46.45 72.2 46.45 74.15 46.45 75.0 47.1 76.75 47.7 78.5 47.7 80.25 L47.4 81.75 Q46.9 83.15 45.8 83.15 45.2 83.15 44.7 82.75 L44.35 82.3 Q46.0 80.7 46.0 79.7 L45.55 76.35 45.05 72.95 Q45.05 68.8 47.0 63.65 49.05 58.35 49.2 54.95 M59.55 60.95 L61.65 61.05 Q61.8 61.8 61.45 63.45 L60.95 66.35 61.05 68.9 61.7 71.05 63.5 74.0 Q63.75 77.4 62.95 79.95 62.1 82.6 62.1 81.0 L61.6 76.45 61.1 72.65 59.45 69.05 59.45 67.15 59.6 63.15 Q59.25 62.15 59.35 61.45 L59.55 60.95 M65.3 63.35 L66.9 60.45 68.6 57.55 68.75 57.4 69.2 57.5 69.0 58.5 68.25 61.6 67.2 65.75 Q66.95 67.05 67.5 67.9 L68.55 70.1 Q69.3 72.15 69.15 75.15 L68.2 77.15 66.7 78.65 65.3 63.35 M84.0 50.45 L84.15 48.9 83.9 44.8 Q83.6 41.45 83.15 41.45 83.5 41.1 83.9 41.25 84.45 41.4 85.5 42.4 86.5 44.0 86.65 48.45 L86.75 53.0 Q87.55 55.55 89.2 56.6 90.5 57.45 90.45 57.75 87.9 58.4 86.15 55.8 84.95 54.05 84.0 50.45 M61.7 0.0 L50.75 -3.8 Q48.15 -5.25 48.15 -7.3 48.15 -7.95 48.45 -8.0 L49.5 -8.0 52.5 -6.9 53.05 -6.7 53.45 -6.45 53.4 -6.6 55.65 -6.55 Q59.25 -5.7 62.0 -4.45 67.15 -2.15 68.5 1.15 67.1 1.95 66.1 1.95 65.25 1.95 63.7 1.2 L61.7 0.0" fill="#3a2920" fill-rule="evenodd" stroke="none"/>
  </g>
</svg>
