<?xml version="1.0" encoding="UTF-8" standalone="no"?>
<svg xmlns:ffdec="https://www.free-decompiler.com/flash" xmlns:xlink="http://www.w3.org/1999/xlink" ffdec:objectType="shape" height="172.05px" width="85.15px" xmlns="http://www.w3.org/2000/svg">
  <g transform="matrix(1.0, 0.0, 0.0, 1.0, 41.2, 134.45)">
    <path d="M5.95 -95.55 Q6.1 -107.85 5.9 -111.45 5.65 -115.2 4.7 -115.75 L4.3 -115.55 Q4.3 -113.45 3.5 -109.4 L2.3 -102.85 Q1.35 -95.8 4.7 -95.55 2.85 -95.6 1.45 -94.5 -0.1 -93.4 -0.2 -91.7 -0.3 -90.05 1.1 -88.8 2.5 -87.6 4.6 -87.55 L3.35 -69.2 Q2.45 -54.1 2.45 -39.55 L2.8 -22.2 -5.75 -22.3 -12.6 -22.4 -12.15 -32.05 Q-4.35 -39.75 -3.55 -52.45 -3.1 -59.2 -4.15 -68.4 L-3.6 -95.95 Q-3.0 -115.65 -1.8 -121.2 3.8 -121.2 7.8 -113.55 11.75 -105.9 11.75 -95.05 L5.95 -95.55 M21.25 -74.95 Q20.95 -74.95 20.75 -74.35 L20.55 -72.95 20.75 -71.5 Q20.95 -70.95 21.25 -70.95 L21.75 -71.5 21.95 -72.95 21.75 -74.35 Q21.55 -74.95 21.25 -74.95 M21.1 -77.35 L21.3 -78.75 21.1 -80.1 Q20.9 -80.7 20.6 -80.7 20.3 -80.7 20.1 -80.1 L19.9 -78.75 20.1 -77.35 Q20.3 -76.8 20.6 -76.8 20.9 -76.8 21.1 -77.35 M5.6 -87.15 Q6.9 -86.65 11.65 -87.7 11.35 -86.2 11.8 -83.95 12.2 -81.75 13.65 -80.6 15.05 -79.45 16.65 -80.05 18.2 -80.65 19.55 -83.1 L19.75 -82.75 20.2 -82.65 Q21.7 -80.3 26.2 -59.05 25.7 -54.2 26.05 -52.75 25.8 -52.5 22.3 -51.95 L16.75 -51.2 16.2 -50.7 20.75 -47.5 Q22.9 -46.2 23.85 -45.25 L23.55 -45.35 Q23.3 -45.35 23.3 -44.75 L23.55 -42.65 23.85 -41.25 14.7 -39.7 Q11.3 -38.9 10.65 -38.5 11.9 -37.7 17.7 -35.85 22.75 -34.3 24.25 -32.65 L24.6 -29.25 25.3 -29.1 Q25.55 -29.5 25.35 -31.65 L27.0 -30.2 Q27.75 -29.35 27.75 -28.55 27.75 -27.9 25.8 -25.25 L25.5 -26.95 Q25.35 -27.0 25.15 -27.1 24.65 -27.0 24.75 -24.0 23.55 -21.4 21.95 -21.3 L3.85 -22.15 Q3.45 -32.75 3.45 -39.45 L5.6 -87.15 M24.35 -44.85 L26.85 -42.0 26.8 -41.6 24.45 -41.35 Q24.6 -41.55 24.35 -44.85 M22.95 -57.2 Q22.7 -57.2 22.5 -56.6 L22.3 -55.2 22.5 -53.75 Q22.7 -53.2 22.95 -53.2 L23.4 -53.75 23.6 -55.2 23.4 -56.6 22.95 -57.2 M22.4 -63.2 L21.95 -62.6 21.75 -61.2 21.95 -59.75 Q22.15 -59.2 22.4 -59.2 L22.85 -59.75 23.05 -61.2 22.85 -62.6 22.4 -63.2 M21.9 -69.05 Q21.65 -69.05 21.45 -68.45 L21.25 -67.1 21.45 -65.7 Q21.65 -65.15 21.9 -65.15 L22.35 -65.7 22.55 -67.1 22.35 -68.45 21.9 -69.05 M-8.95 -121.35 L-10.65 -111.7 -11.35 -116.15 -10.25 -118.9 -8.95 -121.35 M-17.65 -32.45 L-15.05 -29.4 -13.2 -31.0 -13.6 -22.6 Q-15.4 -22.85 -16.6 -23.85 -17.95 -25.0 -17.95 -26.8 L-17.8 -29.2 -17.65 -32.45" fill="#cfc2b8" fill-rule="evenodd" stroke="none"/>
    <path d="M9.95 -118.6 L9.9 -118.45 9.85 -118.05 11.95 -117.5 15.0 -109.4 14.95 -100.5 14.8 -97.8 15.0 -96.45 15.5 -94.7 15.05 -94.85 15.55 -94.65 15.6 -94.45 11.75 -95.05 Q11.75 -105.9 7.8 -113.55 3.8 -121.2 -1.8 -121.2 L-0.8 -125.5 2.7 -124.65 5.9 -123.75 7.0 -121.5 Q8.0 -119.6 9.95 -118.6 M-12.6 -22.4 L-5.75 -22.3 2.8 -22.2 3.25 -14.9 Q2.95 -13.05 1.7 -12.35 0.4 -11.6 -2.6 -11.6 -3.4 -11.6 -5.5 -13.7 -7.55 -15.8 -8.1 -15.8 L-12.15 -12.8 -12.8 -12.9 -12.6 -22.4 M16.35 -92.75 L18.8 -89.3 18.8 -88.9 Q18.8 -88.55 18.95 -88.35 L19.3 -88.15 19.65 -88.55 Q24.7 -82.8 28.35 -70.9 31.7 -60.05 31.7 -52.25 L29.7 -46.0 30.75 -44.05 Q31.8 -41.95 31.8 -40.8 31.8 -40.15 30.4 -38.45 L27.85 -35.35 31.3 -31.65 Q33.5 -28.8 33.5 -26.7 33.5 -20.25 31.5 -16.6 30.25 -14.45 28.7 -13.75 L27.1 -15.25 Q26.35 -15.85 26.2 -15.85 25.55 -15.85 23.35 -13.15 20.75 -10.0 19.7 -9.3 19.05 -9.75 18.05 -11.7 L15.85 -15.5 Q15.1 -15.25 13.45 -13.25 L11.9 -11.25 9.3 -13.65 Q6.65 -15.9 4.25 -15.95 L3.85 -22.15 21.95 -21.3 Q23.55 -21.4 24.75 -24.0 L24.8 -23.4 25.6 -23.1 Q25.8 -23.3 25.8 -25.25 27.75 -27.9 27.75 -28.55 27.75 -29.35 27.0 -30.2 L25.35 -31.65 Q25.3 -32.85 24.8 -33.15 L24.25 -32.65 Q22.75 -34.3 17.7 -35.85 11.9 -37.7 10.65 -38.5 11.3 -38.9 14.7 -39.7 L23.85 -41.25 24.45 -41.35 26.8 -41.6 26.85 -42.0 24.35 -44.85 23.85 -45.25 Q22.9 -46.2 20.75 -47.5 L16.2 -50.7 16.75 -51.2 22.3 -51.95 Q25.8 -52.5 26.05 -52.75 25.7 -54.2 26.2 -59.05 21.7 -80.3 20.2 -82.65 L20.45 -82.8 Q20.25 -86.3 19.65 -86.6 L19.35 -86.7 Q19.2 -86.65 19.2 -86.05 L19.55 -83.1 Q18.2 -80.65 16.65 -80.05 15.05 -79.45 13.65 -80.6 12.2 -81.75 11.8 -83.95 11.35 -86.2 11.65 -87.7 L13.85 -88.7 Q16.1 -90.2 16.35 -92.75 M23.4 -51.25 Q23.15 -51.25 22.95 -50.65 L22.75 -49.25 22.95 -47.8 Q23.15 -47.25 23.4 -47.25 23.65 -47.25 23.85 -47.8 L24.05 -49.25 23.85 -50.65 23.4 -51.25 M24.0 -38.65 L23.8 -37.2 24.0 -35.75 Q24.2 -35.15 24.45 -35.15 L24.9 -35.75 25.1 -37.2 24.9 -38.65 24.45 -39.25 Q24.2 -39.25 24.0 -38.65 M26.0 -20.45 L25.55 -21.05 Q25.3 -21.05 25.15 -20.45 L24.95 -19.0 25.15 -17.55 Q25.3 -16.95 25.55 -16.95 L26.0 -17.55 26.15 -19.0 26.0 -20.45 M-8.5 -123.85 L-8.95 -121.35 -10.25 -118.9 -11.35 -116.15 -10.65 -111.7 -12.65 -100.55 -12.75 -109.65 -13.05 -114.5 -11.6 -118.45 Q-9.95 -122.35 -8.5 -123.85 M-13.9 -96.05 L-14.95 -96.2 -14.35 -104.05 -13.65 -108.05 Q-13.45 -102.25 -13.9 -96.05 M-15.65 -89.4 L-14.75 -89.7 -16.8 -79.6 -17.9 -76.75 Q-16.15 -84.2 -15.65 -89.4 M-25.15 -41.4 L-17.65 -32.45 -17.8 -29.2 -17.95 -26.8 Q-17.95 -25.0 -16.6 -23.85 -15.4 -22.85 -13.6 -22.6 L-13.85 -14.3 -18.35 -19.4 Q-19.9 -21.3 -21.8 -23.0 -23.0 -21.75 -23.35 -16.35 L-23.65 -15.8 -25.75 -16.7 -25.9 -26.15 -25.7 -31.9 -25.15 -41.4" fill="#c0afa3" fill-rule="evenodd" stroke="none"/>
    <path d="M4.7 -95.55 Q1.35 -95.8 2.3 -102.85 L3.5 -109.4 Q4.3 -113.45 4.3 -115.55 L4.7 -115.75 Q5.65 -115.2 5.9 -111.45 6.1 -107.85 5.95 -95.55 L4.95 -95.55 4.7 -95.55 M2.8 -22.2 L2.45 -39.55 Q2.45 -54.1 3.35 -69.2 L4.6 -87.55 5.6 -87.15 3.45 -39.45 Q3.45 -32.75 3.85 -22.15 L4.25 -15.95 Q4.45 -13.05 5.0 -8.35 4.35 -7.8 4.0 -7.8 L3.25 -14.9 2.8 -22.2 M16.45 -105.9 Q16.15 -105.9 15.95 -106.4 15.7 -106.95 15.7 -107.7 15.7 -108.45 15.95 -108.95 16.15 -109.5 16.45 -109.5 L17.0 -108.95 17.2 -107.7 17.0 -106.4 Q16.75 -105.9 16.45 -105.9 M17.35 -104.0 Q17.65 -104.0 17.85 -103.4 L18.05 -102.05 17.85 -100.65 Q17.65 -100.1 17.35 -100.1 17.05 -100.1 16.85 -100.65 L16.65 -102.05 16.85 -103.4 Q17.05 -104.0 17.35 -104.0 M18.8 -89.3 L18.5 -91.75 Q18.5 -92.3 18.8 -92.4 L19.4 -92.3 19.65 -88.55 19.3 -88.15 18.95 -88.35 Q18.8 -88.55 18.8 -88.9 L18.8 -89.3 M21.1 -77.35 Q20.9 -76.8 20.6 -76.8 20.3 -76.8 20.1 -77.35 L19.9 -78.75 20.1 -80.1 Q20.3 -80.7 20.6 -80.7 20.9 -80.7 21.1 -80.1 L21.3 -78.75 21.1 -77.35 M21.25 -74.95 Q21.55 -74.95 21.75 -74.35 L21.95 -72.95 21.75 -71.5 21.25 -70.95 Q20.95 -70.95 20.75 -71.5 L20.55 -72.95 20.75 -74.35 Q20.95 -74.95 21.25 -74.95 M18.8 -97.6 L19.0 -96.25 18.8 -94.85 18.25 -94.3 Q17.95 -94.3 17.75 -94.85 17.5 -95.45 17.5 -96.25 17.5 -97.05 17.75 -97.6 17.95 -98.2 18.25 -98.2 L18.8 -97.6 M19.55 -83.1 L19.2 -86.05 Q19.2 -86.65 19.35 -86.7 L19.65 -86.6 Q20.25 -86.3 20.45 -82.8 L20.2 -82.65 19.75 -82.75 19.55 -83.1 M23.85 -45.25 L24.35 -44.85 Q24.6 -41.55 24.45 -41.35 L23.85 -41.25 23.55 -42.65 23.3 -44.75 Q23.3 -45.35 23.55 -45.35 L23.85 -45.25 M24.25 -32.65 L24.8 -33.15 Q25.3 -32.85 25.35 -31.65 25.55 -29.5 25.3 -29.1 L24.6 -29.25 24.25 -32.65 M25.8 -25.25 Q25.8 -23.3 25.6 -23.1 L24.8 -23.4 24.75 -24.0 Q24.65 -27.0 25.15 -27.1 25.35 -27.0 25.5 -26.95 L25.8 -25.25 M21.9 -69.05 L22.35 -68.45 22.55 -67.1 22.35 -65.7 21.9 -65.15 Q21.65 -65.15 21.45 -65.7 L21.25 -67.1 21.45 -68.45 Q21.65 -69.05 21.9 -69.05 M22.4 -63.2 L22.85 -62.6 23.05 -61.2 22.85 -59.75 22.4 -59.2 Q22.15 -59.2 21.95 -59.75 L21.75 -61.2 21.95 -62.6 22.4 -63.2 M22.95 -57.2 L23.4 -56.6 23.6 -55.2 23.4 -53.75 22.95 -53.2 Q22.7 -53.2 22.5 -53.75 L22.3 -55.2 22.5 -56.6 Q22.7 -57.2 22.95 -57.2 M23.4 -51.25 L23.85 -50.65 24.05 -49.25 23.85 -47.8 Q23.65 -47.25 23.4 -47.25 23.15 -47.25 22.95 -47.8 L22.75 -49.25 22.95 -50.65 Q23.15 -51.25 23.4 -51.25 M24.0 -38.65 Q24.2 -39.25 24.45 -39.25 L24.9 -38.65 25.1 -37.2 24.9 -35.75 24.45 -35.15 Q24.2 -35.15 24.0 -35.75 L23.8 -37.2 24.0 -38.65 M-25.4 -11.45 L-26.5 -11.9 -26.8 -21.1 -26.95 -28.0 Q-26.95 -46.45 -22.9 -61.9 -20.8 -69.9 -17.9 -76.75 L-16.8 -79.6 -18.45 -72.35 -24.35 -47.95 -25.5 -43.0 Q-25.65 -41.95 -25.15 -41.4 L-25.7 -31.9 -25.9 -26.15 -25.75 -16.7 -25.4 -11.45 M26.0 -20.45 L26.15 -19.0 26.0 -17.55 25.55 -16.95 Q25.3 -16.95 25.15 -17.55 L24.95 -19.0 25.15 -20.45 Q25.3 -21.05 25.55 -21.05 L26.0 -20.45 M25.85 -14.9 L26.3 -14.3 26.45 -12.85 26.3 -11.4 25.85 -10.8 Q25.6 -10.8 25.45 -11.4 L25.25 -12.85 25.45 -14.3 Q25.6 -14.9 25.85 -14.9 M-12.65 -100.55 L-13.45 -96.0 -13.9 -96.05 Q-13.45 -102.25 -13.65 -108.05 L-13.85 -114.1 Q-13.7 -114.85 -13.05 -114.5 L-12.75 -109.65 -12.65 -100.55" fill="#8b725f" fill-rule="evenodd" stroke="none"/>
    <path d="M11.95 -117.5 L13.8 -117.35 Q16.0 -117.45 17.8 -118.7 20.8 -112.0 29.05 -73.45 37.15 -35.45 39.2 -18.9 39.25 -17.4 38.25 -15.55 37.1 -13.35 35.5 -13.35 33.2 -13.35 26.6 -10.7 20.0 -8.05 10.55 -8.05 10.1 -8.05 10.1 -8.35 L10.1 -8.85 5.0 -8.35 Q4.45 -13.05 4.25 -15.95 6.65 -15.9 9.3 -13.65 L11.9 -11.25 13.45 -13.25 Q15.1 -15.25 15.85 -15.5 L18.05 -11.7 Q19.05 -9.75 19.7 -9.3 20.75 -10.0 23.35 -13.15 25.55 -15.85 26.2 -15.85 26.35 -15.85 27.1 -15.25 L28.7 -13.75 Q30.25 -14.45 31.5 -16.6 33.5 -20.25 33.5 -26.7 33.5 -28.8 31.3 -31.65 L27.85 -35.35 30.4 -38.45 Q31.8 -40.15 31.8 -40.8 31.8 -41.95 30.75 -44.05 L29.7 -46.0 31.7 -52.25 Q31.7 -60.05 28.35 -70.9 24.7 -82.8 19.65 -88.55 L19.4 -92.3 18.8 -92.4 Q18.5 -92.3 18.5 -91.75 L18.8 -89.3 16.35 -92.75 16.0 -94.25 15.5 -94.7 15.0 -96.45 14.8 -97.8 14.95 -100.5 15.0 -109.4 11.95 -117.5 M3.8 -132.6 L-0.6 -130.55 -0.8 -130.3 3.1 -126.85 5.4 -124.75 6.65 -123.55 5.9 -123.75 2.7 -124.65 -0.8 -125.5 -0.4 -127.85 -7.75 -128.25 -8.5 -123.85 Q-9.95 -122.35 -11.6 -118.45 L-13.05 -114.5 Q-13.7 -114.85 -13.85 -114.1 L-13.65 -108.05 -14.35 -104.05 -14.95 -96.2 -19.15 -96.75 Q-17.85 -106.7 -16.9 -117.45 -16.05 -123.95 -13.2 -128.15 -10.15 -128.15 -7.95 -129.55 -5.8 -131.0 -5.8 -133.05 L-0.1 -133.4 3.8 -132.6 M17.35 -104.0 Q17.05 -104.0 16.85 -103.4 L16.65 -102.05 16.85 -100.65 Q17.05 -100.1 17.35 -100.1 17.65 -100.1 17.85 -100.65 L18.05 -102.05 17.85 -103.4 Q17.65 -104.0 17.35 -104.0 M16.45 -105.9 Q16.75 -105.9 17.0 -106.4 L17.2 -107.7 17.0 -108.95 16.45 -109.5 Q16.15 -109.5 15.95 -108.95 15.7 -108.45 15.7 -107.7 15.7 -106.95 15.95 -106.4 16.15 -105.9 16.45 -105.9 M18.8 -97.6 L18.25 -98.2 Q17.95 -98.2 17.75 -97.6 17.5 -97.05 17.5 -96.25 17.5 -95.45 17.75 -94.85 17.95 -94.3 18.25 -94.3 L18.8 -94.85 19.0 -96.25 18.8 -97.6 M3.25 -14.9 L4.0 -7.8 -2.4 -7.85 Q-2.25 -8.4 -3.05 -8.85 L-3.05 -8.95 Q-3.3 -9.35 -4.2 -9.35 L-4.25 -9.35 Q-7.0 -10.25 -12.85 -10.5 L-12.8 -12.9 -12.15 -12.8 -8.1 -15.8 Q-7.55 -15.8 -5.5 -13.7 -3.4 -11.6 -2.6 -11.6 0.4 -11.6 1.7 -12.35 2.95 -13.05 3.25 -14.9 M-23.25 -10.25 Q-24.15 -10.25 -24.75 -10.6 -25.4 -10.95 -25.4 -11.45 L-25.75 -16.7 -23.65 -15.8 -23.35 -16.35 Q-23.0 -21.75 -21.8 -23.0 -19.9 -21.3 -18.35 -19.4 L-13.85 -14.3 -13.85 -10.6 -18.7 -11.4 -21.45 -11.8 Q-22.45 -11.8 -22.9 -11.15 L-23.25 -10.25 M-26.5 -11.9 Q-29.05 -12.7 -32.75 -14.4 -35.65 -15.7 -36.3 -15.7 -36.9 -15.7 -36.9 -16.0 L-36.8 -16.4 Q-36.8 -23.9 -29.95 -51.4 L-20.55 -89.2 -19.4 -88.85 Q-17.85 -88.65 -15.65 -89.4 -16.15 -84.2 -17.9 -76.75 -20.8 -69.9 -22.9 -61.9 -26.95 -46.45 -26.95 -28.0 L-26.8 -21.1 -26.5 -11.9 M25.85 -14.9 Q25.6 -14.9 25.45 -14.3 L25.25 -12.85 25.45 -11.4 Q25.6 -10.8 25.85 -10.8 L26.3 -11.4 26.45 -12.85 26.3 -14.3 25.85 -14.9" fill="#b19c8d" fill-rule="evenodd" stroke="none"/>
    <path d="M17.8 -118.7 L18.6 -119.25 Q21.65 -112.25 27.95 -88.45 37.2 -53.35 39.6 -24.4 L39.0 -24.35 38.7 -24.5 39.2 -18.9 Q37.15 -35.45 29.05 -73.45 20.8 -112.0 17.8 -118.7 M5.95 -132.8 L3.8 -132.6 -0.1 -133.4 -5.8 -133.05 -5.9 -133.55 -8.85 -133.15 -1.75 -134.45 5.95 -132.8 M-12.15 -32.05 L-12.6 -22.4 -12.8 -12.9 -12.85 -10.5 -13.85 -10.6 -13.85 -14.3 -13.6 -22.6 -13.2 -31.0 -12.15 -32.05 M-36.8 -16.4 Q-37.05 -16.9 -36.85 -19.6 -36.65 -22.15 -37.75 -23.75 -37.45 -26.55 -30.75 -52.5 -23.2 -81.85 -21.45 -89.8 L-20.55 -89.2 -29.95 -51.4 Q-36.8 -23.9 -36.8 -16.4 M-14.7 -127.95 L-13.2 -128.15 Q-16.05 -123.95 -16.9 -117.45 -17.85 -106.7 -19.15 -96.75 L-20.15 -96.85 Q-18.85 -107.0 -17.95 -117.4 -17.2 -123.6 -14.7 -127.95" fill="#473930" fill-rule="evenodd" stroke="none"/>
    <path d="M14.1 -121.7 Q13.35 -122.2 11.0 -125.15 8.15 -128.3 4.65 -129.85 L3.5 -129.7 Q8.45 -126.05 10.5 -123.25 12.2 -120.95 12.85 -120.6 13.3 -118.35 14.45 -118.35 15.15 -118.35 15.65 -118.85 16.15 -119.35 16.15 -120.05 16.15 -121.05 15.2 -121.45 L14.1 -121.7 M5.4 -124.75 L5.0 -125.55 Q3.4 -128.2 0.75 -130.35 5.65 -132.7 9.65 -129.75 12.9 -127.35 17.55 -119.6 15.75 -117.7 14.75 -117.7 11.9 -117.7 9.95 -118.6 8.0 -119.6 7.0 -121.5 L5.9 -123.75 6.65 -123.55 5.4 -124.75 M12.5 -91.95 Q13.5 -91.95 14.25 -92.6 L13.6 -93.25 3.55 -93.7 Q3.55 -93.5 2.6 -93.15 L2.75 -92.8 7.4 -92.25 12.5 -91.95 M7.1 -87.7 L4.05 -88.5 Q0.95 -89.4 0.95 -90.05 L1.0 -93.9 15.45 -93.45 Q15.35 -92.45 14.45 -91.25 12.65 -88.85 8.55 -88.0 9.55 -91.05 7.55 -91.05 6.85 -91.05 6.35 -90.55 5.85 -90.05 5.85 -89.35 L6.3 -88.65 7.1 -87.7 M8.15 -4.6 L11.4 -4.9 Q11.4 0.25 9.8 2.5 8.95 3.65 8.15 3.75 L8.15 -4.6 M-2.25 3.4 L6.65 3.35 6.8 4.6 7.5 5.35 12.75 4.65 12.9 2.7 Q20.05 2.25 24.5 1.25 L24.2 5.15 18.65 6.65 Q13.2 7.75 6.2 7.75 -6.45 7.75 -15.5 6.4 L-25.35 5.0 Q-26.7 5.0 -26.55 6.7 -26.55 13.6 -18.25 19.7 -9.0 26.5 4.1 26.5 12.05 26.5 17.3 25.05 L17.2 25.3 14.3 30.1 11.15 35.05 6.05 35.65 1.7 36.1 Q-15.0 36.1 -26.3 24.5 -37.3 13.2 -37.8 -3.3 -35.05 -3.45 -34.1 -2.6 -33.55 -2.1 -33.3 -0.6 -32.75 2.35 -27.65 2.35 -27.0 2.35 -26.9 1.75 L-26.95 -0.05 -23.8 0.8 -23.95 1.75 Q-23.9 2.6 -22.95 3.3 -19.9 5.35 -8.6 5.35 L-2.35 5.0 Q-2.8 4.2 -2.25 3.4 M31.8 -0.3 L31.8 0.0 Q31.85 0.7 32.45 0.7 37.4 0.7 38.9 -1.55 L39.85 -3.55 Q40.35 -4.75 41.15 -5.35 L41.2 -2.3 Q41.2 6.05 37.55 13.55 33.7 21.55 26.05 27.75 L27.55 23.45 Q32.35 18.65 33.95 14.85 35.25 11.75 35.25 6.95 L35.15 4.2 Q34.85 2.5 33.5 2.5 L32.5 2.7 31.6 3.15 31.8 -0.3 M36.4 -10.85 Q36.4 -5.35 34.9 -2.65 L33.4 -1.05 33.3 -9.75 36.4 -10.85 M-14.0 -128.85 L-10.75 -132.9 -7.05 -132.75 Q-7.5 -131.95 -8.55 -131.1 -10.75 -129.4 -14.0 -128.85 M-9.2 -113.0 L-6.8 -127.65 -1.4 -127.05 Q-4.85 -114.95 -5.2 -106.5 L-5.15 -64.8 Q-5.15 -49.15 -5.95 -45.15 -7.6 -36.8 -14.85 -30.6 L-24.9 -42.6 Q-18.05 -67.95 -12.75 -94.25 L-9.6 -110.6 -9.85 -100.9 -9.95 -90.95 Q-10.7 -82.2 -15.85 -35.8 L-15.0 -35.8 Q-13.9 -36.25 -11.7 -39.7 -9.35 -43.4 -9.3 -45.45 L-9.0 -58.8 -8.4 -80.4 Q-7.7 -100.75 -6.6 -107.25 -5.7 -112.6 -5.7 -113.95 -5.7 -114.95 -5.85 -115.55 -6.9 -114.2 -8.05 -113.75 L-9.2 -113.0 M-19.65 -94.35 L-18.05 -94.2 -16.4 -94.35 Q-15.75 -94.55 -15.75 -94.8 L-16.4 -95.2 -18.05 -95.4 -19.65 -95.2 Q-20.35 -95.05 -20.35 -94.8 -20.35 -94.55 -19.65 -94.35 M-17.35 -89.85 Q-17.3 -90.8 -17.7 -91.6 -18.1 -92.4 -18.75 -92.5 -19.4 -92.6 -19.9 -91.9 -20.4 -91.25 -20.45 -90.15 L-21.0 -91.3 Q-21.35 -93.05 -20.25 -96.0 L-13.65 -95.05 Q-13.85 -94.0 -14.45 -92.8 -15.55 -90.45 -17.35 -89.85 M-18.95 -39.55 L-19.7 -42.1 Q-20.4 -43.4 -22.4 -44.1 -21.6 -40.7 -19.0 -39.45 L-18.95 -39.55 M-31.8 -10.1 L-28.4 -9.05 -28.45 0.55 -30.0 -1.1 Q-31.6 -3.95 -31.8 -10.1" fill="#2c261f" fill-rule="evenodd" stroke="none"/>
    <path d="M9.95 -118.6 Q11.9 -117.7 14.75 -117.7 15.75 -117.7 17.55 -119.6 12.9 -127.35 9.65 -129.75 5.65 -132.7 0.75 -130.35 3.4 -128.2 5.0 -125.55 L5.4 -124.75 3.1 -126.85 -0.8 -130.3 -0.6 -130.55 3.8 -132.6 5.95 -132.8 Q11.2 -132.8 14.9 -128.8 18.6 -124.85 18.6 -119.25 L17.8 -118.7 Q16.0 -117.45 13.8 -117.35 L11.95 -117.5 9.85 -118.05 9.9 -118.45 9.95 -118.6 M4.7 -95.55 L4.95 -95.55 5.95 -95.55 11.75 -95.05 15.6 -94.45 15.55 -94.65 15.05 -94.85 15.5 -94.7 16.0 -94.25 16.35 -92.75 Q16.1 -90.2 13.85 -88.7 L11.65 -87.7 Q6.9 -86.65 5.6 -87.15 L4.6 -87.55 Q2.5 -87.6 1.1 -88.8 -0.3 -90.05 -0.2 -91.7 -0.1 -93.4 1.45 -94.5 2.85 -95.6 4.7 -95.55 M-1.8 -121.2 Q-3.0 -115.65 -3.6 -95.95 L-4.15 -68.4 Q-3.1 -59.2 -3.55 -52.45 -4.35 -39.75 -12.15 -32.05 L-13.2 -31.0 -15.05 -29.4 -17.65 -32.45 -25.15 -41.4 Q-25.65 -41.95 -25.5 -43.0 L-24.35 -47.95 -18.45 -72.35 -16.8 -79.6 -14.75 -89.7 -15.65 -89.4 Q-17.85 -88.65 -19.4 -88.85 L-20.55 -89.2 -21.45 -89.8 Q-22.45 -90.5 -21.75 -93.8 L-20.85 -96.95 -20.15 -96.85 -19.15 -96.75 -14.95 -96.2 -13.9 -96.05 -13.45 -96.0 -12.65 -100.55 -10.65 -111.7 -8.95 -121.35 -8.5 -123.85 -7.75 -128.25 -0.4 -127.85 -0.8 -125.5 -1.8 -121.2 M5.0 -8.35 L10.1 -8.85 10.1 -8.35 Q10.1 -8.05 10.55 -8.05 20.0 -8.05 26.6 -10.7 33.2 -13.35 35.5 -13.35 37.1 -13.35 38.25 -15.55 39.25 -17.4 39.2 -18.9 L38.7 -24.5 39.0 -24.35 39.6 -24.4 Q42.45 -22.6 43.2 -21.0 43.95 -19.4 43.95 -14.85 43.95 -10.9 43.35 -8.2 42.7 -5.5 42.7 -2.25 42.7 15.45 29.15 27.1 16.95 37.6 1.75 37.6 -17.25 37.6 -28.7 24.15 -39.2 11.8 -39.2 -6.1 -39.2 -7.1 -40.2 -9.35 -41.2 -11.65 -41.2 -14.45 -41.2 -18.4 -40.7 -20.05 -40.0 -22.35 -37.75 -23.75 -36.65 -22.15 -36.85 -19.6 -37.05 -16.9 -36.8 -16.4 L-36.9 -16.0 Q-36.9 -15.7 -36.3 -15.7 -35.65 -15.7 -32.75 -14.4 -29.05 -12.7 -26.5 -11.9 L-25.4 -11.45 Q-25.4 -10.95 -24.75 -10.6 -24.15 -10.25 -23.25 -10.25 L-23.3 -8.75 -25.55 -9.15 Q-26.4 -9.1 -27.0 -8.4 -26.95 -1.65 -26.0 -1.35 L-23.75 -0.75 -23.8 0.8 -26.95 -0.05 -26.9 1.75 Q-27.0 2.35 -27.65 2.35 -32.75 2.35 -33.3 -0.6 -33.55 -2.1 -34.1 -2.6 -35.05 -3.45 -37.8 -3.3 -37.3 13.2 -26.3 24.5 -15.0 36.1 1.7 36.1 L6.05 35.65 11.15 35.05 Q15.75 33.75 17.55 32.95 21.7 31.15 26.05 27.75 33.7 21.55 37.55 13.55 41.2 6.05 41.2 -2.3 L41.15 -5.35 Q40.35 -4.75 39.85 -3.55 L38.9 -1.55 Q37.4 0.7 32.45 0.7 31.85 0.7 31.8 0.0 L31.8 -0.3 31.8 -0.75 28.0 0.5 24.5 1.25 Q20.05 2.25 12.9 2.7 L12.75 4.65 7.5 5.35 6.8 4.6 6.65 3.35 -2.25 3.4 Q-1.9 2.65 -3.4 2.55 L-20.8 1.7 -20.75 -0.05 -18.45 0.4 -9.25 1.4 6.65 1.95 Q6.65 -4.2 6.1 -4.9 5.1 -6.3 0.95 -6.3 -13.9 -6.3 -20.35 -8.1 L-20.35 -8.5 -15.35 -7.8 -3.65 -7.1 Q-3.0 -7.1 -2.7 -7.35 L-2.4 -7.85 4.0 -7.8 Q4.35 -7.8 5.0 -8.35 M8.55 -88.0 Q12.65 -88.85 14.45 -91.25 15.35 -92.45 15.45 -93.45 L1.0 -93.9 0.95 -90.05 Q0.95 -89.4 4.05 -88.5 L7.1 -87.7 Q7.95 -87.6 8.55 -88.0 M11.4 -4.9 L11.4 -7.2 6.45 -6.95 8.15 -4.6 8.15 3.75 Q8.95 3.65 9.8 2.5 11.4 0.25 11.4 -4.9 M31.75 -9.05 L25.5 -8.75 Q17.5 -7.1 11.85 -6.65 L12.9 -5.35 12.9 1.45 15.8 1.05 18.65 0.8 24.75 -0.35 31.6 -2.25 Q31.8 -2.3 31.85 -5.65 L31.85 -9.0 31.75 -9.05 M42.45 -15.55 Q42.55 -18.25 42.3 -19.2 41.95 -20.6 40.5 -22.0 L40.85 -15.8 Q40.85 -15.5 40.15 -14.75 39.05 -13.6 36.9 -12.35 L37.85 -11.6 37.9 -4.9 Q40.4 -7.4 41.85 -7.95 42.1 -8.35 42.45 -15.55 M36.4 -10.85 Q35.3 -11.65 33.3 -11.45 L31.5 -11.05 33.3 -9.75 33.4 -1.05 34.9 -2.65 Q36.4 -5.35 36.4 -10.85 M-14.7 -127.95 L-14.85 -127.95 -14.35 -128.95 -10.75 -132.9 -8.85 -133.15 -5.9 -133.55 -5.8 -133.05 Q-5.8 -131.0 -7.95 -129.55 -10.15 -128.15 -13.2 -128.15 L-14.7 -127.95 M-14.0 -128.85 Q-10.75 -129.4 -8.55 -131.1 -7.5 -131.95 -7.05 -132.75 L-10.75 -132.9 -14.0 -128.85 M-9.6 -110.6 L-12.75 -94.25 Q-18.05 -67.95 -24.9 -42.6 L-14.85 -30.6 Q-7.6 -36.8 -5.95 -45.15 -5.15 -49.15 -5.15 -64.8 L-5.2 -106.5 Q-4.85 -114.95 -1.4 -127.05 L-6.8 -127.65 -9.2 -113.0 -9.25 -112.95 Q-9.5 -112.55 -9.6 -110.6 M-17.35 -89.85 Q-15.55 -90.45 -14.45 -92.8 -13.85 -94.0 -13.65 -95.05 L-20.25 -96.0 Q-21.35 -93.05 -21.0 -91.3 L-20.45 -90.15 -19.5 -89.3 -18.85 -88.95 Q-18.2 -88.95 -17.85 -89.25 L-17.35 -89.85 M-33.25 -10.7 L-32.35 -11.5 -37.45 -14.55 -38.9 -19.45 -38.75 -21.05 Q-39.7 -19.3 -39.7 -18.2 L-39.65 -15.45 -39.7 -10.65 Q-39.7 -8.6 -37.6 -6.55 -35.55 -4.55 -33.05 -3.9 L-33.25 -10.7 M-28.4 -9.05 L-27.2 -10.5 -28.85 -10.8 Q-30.7 -10.95 -31.8 -10.1 -31.6 -3.95 -30.0 -1.1 L-28.45 0.55 -28.4 -9.05" fill="#1f1b16" fill-rule="evenodd" stroke="none"/>
    <path d="M12.85 -120.6 Q12.2 -120.95 10.5 -123.25 8.45 -126.05 3.5 -129.7 L4.65 -129.85 Q8.15 -128.3 11.0 -125.15 13.35 -122.2 14.1 -121.7 13.3 -121.35 12.85 -120.6 M12.5 -91.95 L7.4 -92.25 2.75 -92.8 2.6 -93.15 Q3.55 -93.5 3.55 -93.7 L13.6 -93.25 14.25 -92.6 Q13.5 -91.95 12.5 -91.95 M8.15 -4.6 L6.45 -6.95 11.4 -7.2 11.4 -4.9 8.15 -4.6 M33.3 -9.75 L31.5 -11.05 33.3 -11.45 Q35.3 -11.65 36.4 -10.85 L33.3 -9.75 M31.5 3.65 L31.55 3.65 31.6 3.15 32.5 2.7 33.5 2.5 Q34.85 2.5 35.15 4.2 L35.25 6.95 Q35.25 11.75 33.95 14.85 32.35 18.65 27.55 23.45 L27.75 22.7 31.5 3.65 M24.2 5.15 L24.2 5.55 Q24.0 7.4 22.35 12.8 20.1 20.15 17.3 25.05 12.05 26.5 4.1 26.5 -9.0 26.5 -18.25 19.7 -26.55 13.6 -26.55 6.7 -26.7 5.0 -25.35 5.0 L-15.5 6.4 Q-6.45 7.75 6.2 7.75 13.2 7.75 18.65 6.65 L24.2 5.15 M-9.6 -110.6 Q-9.5 -112.55 -9.25 -112.95 L-9.2 -113.0 -8.05 -113.75 Q-6.9 -114.2 -5.85 -115.55 -5.7 -114.95 -5.7 -113.95 -5.7 -112.6 -6.6 -107.25 -7.7 -100.75 -8.4 -80.4 L-9.0 -58.8 -9.3 -45.45 Q-9.35 -43.4 -11.7 -39.7 -13.9 -36.25 -15.0 -35.8 L-15.85 -35.8 Q-10.7 -82.2 -9.95 -90.95 L-9.85 -100.9 -9.6 -110.6 M-19.65 -94.35 Q-20.35 -94.55 -20.35 -94.8 -20.35 -95.05 -19.65 -95.2 L-18.05 -95.4 -16.4 -95.2 -15.75 -94.8 Q-15.75 -94.55 -16.4 -94.35 L-18.05 -94.2 -19.65 -94.35 M-18.95 -39.55 L-19.0 -39.45 Q-21.6 -40.7 -22.4 -44.1 -20.4 -43.4 -19.7 -42.1 L-18.95 -39.55 M-31.8 -10.1 Q-30.7 -10.95 -28.85 -10.8 L-27.2 -10.5 -28.4 -9.05 -31.8 -10.1" fill="#3f362c" fill-rule="evenodd" stroke="none"/>
    <path d="M14.1 -121.7 L15.2 -121.45 Q16.15 -121.05 16.15 -120.05 16.15 -119.35 15.65 -118.85 15.15 -118.35 14.45 -118.35 13.3 -118.35 12.85 -120.6 13.3 -121.35 14.1 -121.7 M15.3 -120.9 L14.45 -121.25 Q13.95 -121.25 13.6 -120.9 13.25 -120.55 13.25 -120.05 13.25 -119.55 13.6 -119.2 13.95 -118.85 14.45 -118.85 14.95 -118.85 15.3 -119.2 15.65 -119.55 15.65 -120.05 15.65 -120.55 15.3 -120.9 M8.55 -88.0 Q7.95 -87.6 7.1 -87.7 L6.3 -88.65 5.85 -89.35 Q5.85 -90.05 6.35 -90.55 6.85 -91.05 7.55 -91.05 9.55 -91.05 8.55 -88.0 M6.7 -90.2 Q6.35 -89.85 6.35 -89.35 6.35 -88.85 6.7 -88.5 7.05 -88.15 7.55 -88.15 8.05 -88.15 8.4 -88.5 8.75 -88.85 8.75 -89.35 8.75 -89.85 8.4 -90.2 8.05 -90.55 7.55 -90.55 7.05 -90.55 6.7 -90.2 M-20.45 -90.15 Q-20.4 -91.25 -19.9 -91.9 -19.4 -92.6 -18.75 -92.5 -18.1 -92.4 -17.7 -91.6 -17.3 -90.8 -17.35 -89.85 L-17.85 -89.25 Q-18.2 -88.95 -18.85 -88.95 L-19.5 -89.3 -20.45 -90.15 M-18.85 -91.85 Q-19.35 -91.85 -19.7 -91.5 -20.05 -91.15 -20.05 -90.65 -20.05 -90.15 -19.7 -89.8 -19.35 -89.45 -18.85 -89.45 -18.35 -89.45 -18.0 -89.8 -17.65 -90.15 -17.65 -90.65 -17.65 -91.15 -18.0 -91.5 -18.35 -91.85 -18.85 -91.85" fill="#563607" fill-rule="evenodd" stroke="none"/>
    <path d="M15.3 -120.9 Q15.65 -120.55 15.65 -120.05 15.65 -119.55 15.3 -119.2 14.95 -118.85 14.45 -118.85 13.95 -118.85 13.6 -119.2 13.25 -119.55 13.25 -120.05 13.25 -120.55 13.6 -120.9 13.95 -121.25 14.45 -121.25 L15.3 -120.9 M14.95 -120.65 L14.5 -120.85 14.05 -120.65 13.85 -120.2 14.05 -119.75 14.5 -119.55 14.95 -119.75 15.15 -120.2 14.95 -120.65 M7.6 -90.15 Q7.35 -90.15 7.15 -89.95 L6.95 -89.5 7.15 -89.05 Q7.35 -88.85 7.6 -88.85 L8.05 -89.05 8.25 -89.5 8.05 -89.95 7.6 -90.15 M6.7 -90.2 Q7.05 -90.55 7.55 -90.55 8.05 -90.55 8.4 -90.2 8.75 -89.85 8.75 -89.35 8.75 -88.85 8.4 -88.5 8.05 -88.15 7.55 -88.15 7.05 -88.15 6.7 -88.5 6.35 -88.85 6.35 -89.35 6.35 -89.85 6.7 -90.2 M-18.85 -91.85 Q-18.35 -91.85 -18.0 -91.5 -17.65 -91.15 -17.65 -90.65 -17.65 -90.15 -18.0 -89.8 -18.35 -89.45 -18.85 -89.45 -19.35 -89.45 -19.7 -89.8 -20.05 -90.15 -20.05 -90.65 -20.05 -91.15 -19.7 -91.5 -19.35 -91.85 -18.85 -91.85 M-19.45 -90.8 L-19.25 -90.35 -18.8 -90.15 Q-18.55 -90.15 -18.35 -90.35 L-18.15 -90.8 -18.35 -91.25 Q-18.55 -91.45 -18.8 -91.45 L-19.25 -91.25 -19.45 -90.8 M-3.05 -8.85 Q-3.05 -8.45 -3.3 -8.15 L-3.75 -7.85 -3.1 -8.85 -3.05 -8.95 -3.05 -8.85 M-5.1 -7.85 L-7.6 -7.9 Q-7.1 -8.65 -7.65 -9.4 L-4.25 -9.35 -4.2 -9.35 -4.2 -9.3 -5.1 -7.85 M-10.95 -8.05 L-16.15 -8.6 -14.9 -9.95 -9.8 -9.5 -10.95 -8.05 M-19.45 -9.15 L-21.05 -9.45 -21.15 -7.35 -22.75 -5.0 Q-22.25 -9.45 -22.4 -11.05 -21.45 -10.45 -18.8 -10.55 L-19.55 -9.45 Q-19.7 -9.2 -19.45 -9.15 M-21.4 -2.5 L-21.6 1.6 -18.7 2.15 -19.7 3.5 -23.0 2.7 -23.0 -0.8 -21.4 -2.5 M-14.95 2.65 L-11.05 3.0 -11.75 4.45 -15.8 4.1 -14.95 2.65 M-9.75 3.05 L-3.7 3.05 -3.2 3.1 -2.95 3.8 -3.15 4.5 -10.5 4.55 -9.75 3.05 M-18.4 -2.35 Q-20.55 -2.7 -20.8 -2.95 L-20.95 -3.5 -20.85 -4.25 -16.85 -3.65 Q-17.5 -3.65 -17.95 -3.25 L-18.4 -2.35 M-15.2 -3.15 L-15.05 -2.7 Q-15.15 -1.9 -16.4 -2.0 L-15.2 -3.15" fill="#efb429" fill-rule="evenodd" stroke="none"/>
    <path d="M14.95 -120.65 L15.15 -120.2 14.95 -119.75 14.5 -119.55 14.05 -119.75 13.85 -120.2 14.05 -120.65 14.5 -120.85 14.95 -120.65 M7.6 -90.15 L8.05 -89.95 8.25 -89.5 8.05 -89.05 7.6 -88.85 Q7.35 -88.85 7.15 -89.05 L6.95 -89.5 7.15 -89.95 Q7.35 -90.15 7.6 -90.15 M-19.45 -90.8 L-19.25 -91.25 -18.8 -91.45 Q-18.55 -91.45 -18.35 -91.25 L-18.15 -90.8 -18.35 -90.35 Q-18.55 -90.15 -18.8 -90.15 L-19.25 -90.35 -19.45 -90.8" fill="#fbf0c4" fill-rule="evenodd" stroke="none"/>
    <path d="M-20.35 -8.1 Q-13.9 -6.3 0.95 -6.3 5.1 -6.3 6.1 -4.9 L-18.45 -6.4 -20.4 -6.8 -20.35 -8.1 M-27.0 -8.4 Q-26.4 -9.1 -25.55 -9.15 L-23.3 -8.75 -23.4 -7.45 -26.9 -8.4 -27.0 -8.4 M18.35 -5.95 L12.9 -5.35 11.85 -6.65 Q17.5 -7.1 25.5 -8.75 L31.75 -9.05 24.9 -7.15 18.35 -5.95 M37.85 -11.6 L36.9 -12.35 Q39.05 -13.6 40.15 -14.75 40.85 -15.5 40.85 -15.8 L40.5 -22.0 Q41.95 -20.6 42.3 -19.2 42.55 -18.25 42.45 -15.55 L40.3 -13.2 37.85 -11.6 M-39.65 -15.45 L-39.7 -18.2 Q-39.7 -19.3 -38.75 -21.05 L-38.9 -19.45 -37.45 -14.55 -32.35 -11.5 -33.25 -10.7 -37.1 -12.75 -39.65 -15.45" fill="#564e34" fill-rule="evenodd" stroke="none"/>
    <path d="M-18.45 -6.4 L6.1 -4.9 Q6.65 -4.2 6.65 1.95 L-9.25 1.4 -18.45 0.4 -18.4 -1.6 -15.5 -2.05 Q-14.3 -2.5 -14.3 -3.1 -14.3 -3.7 -15.5 -4.15 L-18.4 -4.6 -18.45 -6.4 M-23.75 -0.75 L-26.0 -1.35 -26.0 -8.1 -26.9 -8.4 -23.4 -7.45 -23.75 -0.75 M12.9 -5.35 L18.35 -5.95 18.65 0.8 15.8 1.05 12.9 1.45 12.9 -5.35 M24.9 -7.15 L31.75 -9.05 31.85 -9.0 31.6 -2.25 24.75 -0.35 24.9 -7.15" fill="#433e27" fill-rule="evenodd" stroke="none"/>
    <path d="M-20.4 -6.8 L-18.45 -6.4 -18.4 -4.6 -20.5 -4.85 -20.4 -6.8 M-18.45 0.4 L-20.75 -0.05 -20.65 -1.95 -18.4 -1.6 -18.45 0.4 M-26.0 -1.35 Q-26.95 -1.65 -27.0 -8.4 L-26.9 -8.4 -26.0 -8.1 -26.0 -1.35 M18.35 -5.95 L24.9 -7.15 24.75 -0.35 18.65 0.8 18.35 -5.95 M37.85 -11.6 L40.3 -13.2 42.45 -15.55 Q42.1 -8.35 41.85 -7.95 40.4 -7.4 37.9 -4.9 L37.85 -11.6 M31.85 -9.0 L31.85 -5.65 Q31.8 -2.3 31.6 -2.25 L31.85 -9.0 M-39.65 -15.45 L-37.1 -12.75 -33.25 -10.7 -33.05 -3.9 Q-35.55 -4.55 -37.6 -6.55 -39.7 -8.6 -39.7 -10.65 L-39.65 -15.45" fill="#34301f" fill-rule="evenodd" stroke="none"/>
    <path d="M24.5 1.25 L28.0 0.5 31.8 -0.75 31.8 -0.3 31.6 3.15 31.55 3.65 31.5 3.65 Q30.3 3.75 27.75 4.55 L24.2 5.55 24.2 5.15 24.5 1.25 M26.05 27.75 Q21.7 31.15 17.55 32.95 15.75 33.75 11.15 35.05 L14.3 30.1 17.2 25.3 Q19.45 25.1 22.75 24.15 L27.75 22.7 27.55 23.45 26.05 27.75" fill="#936811" fill-rule="evenodd" stroke="none"/>
    <path d="M24.2 5.55 L27.75 4.55 Q30.3 3.75 31.5 3.65 L27.75 22.7 22.75 24.15 Q19.45 25.1 17.2 25.3 L17.3 25.05 Q20.1 20.15 22.35 12.8 24.0 7.4 24.2 5.55" fill="#cf9418" fill-rule="evenodd" stroke="none"/>
    <path d="M-20.35 -8.1 L-20.4 -6.8 -20.5 -4.85 -18.4 -4.6 -15.5 -4.15 Q-14.3 -3.7 -14.3 -3.1 -14.3 -2.5 -15.5 -2.05 L-18.4 -1.6 -20.65 -1.95 -20.75 -0.05 -20.8 1.7 -3.4 2.55 Q-1.9 2.65 -2.25 3.4 -2.8 4.2 -2.35 5.0 L-8.6 5.35 Q-19.9 5.35 -22.95 3.3 -23.9 2.6 -23.95 1.75 L-23.8 0.8 -23.75 -0.75 -23.4 -7.45 -23.3 -8.75 -23.25 -10.25 -22.9 -11.15 Q-22.45 -11.8 -21.45 -11.8 L-18.7 -11.4 -13.85 -10.6 -12.85 -10.5 Q-7.0 -10.25 -4.25 -9.35 L-7.65 -9.4 -9.8 -9.5 -14.9 -9.95 -18.8 -10.55 Q-21.45 -10.45 -22.4 -11.05 -22.25 -9.45 -22.75 -5.0 L-23.0 -0.8 -23.0 2.7 -19.7 3.5 -15.8 4.1 -11.75 4.45 -10.5 4.55 -3.15 4.5 -2.95 3.8 -3.2 3.1 -3.7 3.05 -9.75 3.05 -11.05 3.0 -14.95 2.65 -18.7 2.15 -21.6 1.6 -21.4 -2.5 -21.15 -7.35 -21.05 -9.45 -19.45 -9.15 -16.15 -8.6 -10.95 -8.05 -7.6 -7.9 -5.1 -7.85 -3.75 -7.85 -3.3 -8.15 Q-3.05 -8.45 -3.05 -8.85 -2.25 -8.4 -2.4 -7.85 L-2.7 -7.35 Q-3.0 -7.1 -3.65 -7.1 L-15.35 -7.8 -20.35 -8.5 -20.35 -8.1 M-16.85 -3.65 L-20.85 -4.25 -20.95 -3.5 -20.8 -2.95 Q-20.55 -2.7 -18.4 -2.35 L-16.4 -2.0 Q-15.15 -1.9 -15.05 -2.7 L-15.2 -3.15 -16.85 -3.65" fill="#694b07" fill-rule="evenodd" stroke="none"/>
    <path d="M-3.75 -7.85 L-5.1 -7.85 -4.2 -9.3 -4.2 -9.35 Q-3.3 -9.35 -3.05 -8.95 L-3.1 -8.85 -3.75 -7.85 M-7.6 -7.9 L-10.95 -8.05 -9.8 -9.5 -7.65 -9.4 Q-7.1 -8.65 -7.6 -7.9 M-16.15 -8.6 L-19.45 -9.15 Q-19.7 -9.2 -19.55 -9.45 L-18.8 -10.55 -14.9 -9.95 -16.15 -8.6 M-21.15 -7.35 L-21.4 -2.5 -23.0 -0.8 -22.75 -5.0 -21.15 -7.35 M-18.7 2.15 L-14.95 2.65 -15.8 4.1 -19.7 3.5 -18.7 2.15 M-11.05 3.0 L-9.75 3.05 -10.5 4.55 -11.75 4.45 -11.05 3.0 M-16.85 -3.65 L-15.2 -3.15 -16.4 -2.0 -18.4 -2.35 -17.95 -3.25 Q-17.5 -3.65 -16.85 -3.65" fill="#f5dc78" fill-rule="evenodd" stroke="none"/>
  </g>
</svg>
