<?xml version="1.0" encoding="UTF-8" standalone="no"?>
<svg xmlns:ffdec="https://www.free-decompiler.com/flash" xmlns:xlink="http://www.w3.org/1999/xlink" ffdec:objectType="shape" height="23.6px" width="22.65px" xmlns="http://www.w3.org/2000/svg">
  <g transform="matrix(1.0, 0.0, 0.0, 1.0, 0.0, -0.05)">
    <path d="M21.8 3.35 L20.85 4.8 Q19.85 6.2 19.85 6.9 19.85 7.95 20.5 8.85 L21.75 10.55 Q23.35 12.95 22.15 17.75 21.45 20.55 18.8 22.1 16.15 23.65 12.15 23.65 7.85 23.65 4.5 22.05 0.0 19.9 0.0 15.65 L0.6 13.65 1.5 11.05 2.9 8.25 1.65 3.85 Q1.65 3.55 3.45 1.95 5.25 0.4 5.55 0.4 5.85 0.4 6.9 1.15 7.9 1.9 8.55 1.9 L10.9 0.5 12.85 1.1 14.8 1.7 16.0 0.9 Q17.2 0.05 17.5 0.05 21.8 2.6 21.8 3.35 M21.35 14.25 Q21.35 11.75 20.25 9.5 L18.85 7.0 18.75 6.8 Q19.35 5.3 20.6 3.3 L19.35 2.05 Q18.05 1.0 17.55 1.0 L15.95 1.9 14.5 2.8 Q12.1 1.65 11.35 1.65 L8.5 3.05 7.7 2.35 Q7.05 1.6 5.7 1.6 4.45 1.95 3.65 2.8 2.05 4.6 4.0 7.4 L4.05 7.55 2.35 10.4 Q0.85 13.2 0.85 15.75 0.85 17.05 2.9 19.3 5.8 22.45 10.5 22.45 16.65 22.45 19.25 20.05 21.35 18.1 21.35 14.25" fill="#563607" fill-rule="evenodd" stroke="none"/>
    <path d="M19.3 3.75 L17.65 6.4 Q15.65 5.65 13.45 5.4 L16.9 2.45 16.9 2.95 18.0 2.75 19.3 3.75 M12.25 3.5 L12.0 3.2 11.1 3.55 Q10.4 3.85 10.25 4.1 L10.35 4.35 11.1 4.4 Q11.75 4.4 11.95 4.1 L12.25 3.5 M10.2 5.45 L8.75 3.7 Q9.6 3.85 10.4 3.15 11.25 2.5 12.1 2.55 L13.65 3.35 12.6 4.65 Q11.85 5.45 10.2 5.45 M15.1 6.85 L17.0 7.25 Q17.8 7.65 17.8 8.25 L15.2 9.8 Q14.9 9.5 14.35 9.35 L12.75 9.6 12.65 10.05 Q12.5 10.2 12.5 10.75 12.5 11.35 12.6 11.35 L12.95 11.35 Q13.4 10.9 14.55 10.4 13.95 10.7 12.95 11.45 L11.45 12.5 Q11.45 11.45 11.1 10.75 10.75 10.0 10.25 10.0 L13.25 7.8 Q14.55 8.1 15.6 8.8 L15.85 8.55 14.25 7.3 15.1 6.85 M19.2 10.8 Q19.9 12.65 19.85 13.35 L19.15 13.8 Q18.4 13.95 16.8 15.9 15.6 17.3 10.9 17.05 L14.5 13.95 Q15.2 13.85 15.6 13.2 L19.2 10.8 M7.35 15.75 L5.05 14.55 Q4.6 14.55 4.2 14.9 L6.05 13.4 6.15 13.7 6.45 14.1 Q6.8 14.6 6.8 13.6 L6.9 12.8 7.0 12.6 8.45 11.4 Q9.05 11.65 9.95 11.05 L10.7 11.5 10.75 11.85 Q9.85 12.75 8.35 13.55 8.75 13.95 9.35 14.1 L9.45 14.1 7.35 15.75 M3.8 10.7 Q3.8 9.0 5.45 7.85 7.05 6.65 9.35 6.65 L8.05 7.5 7.25 7.75 Q6.9 7.95 6.9 8.25 L6.85 8.3 6.6 8.4 6.65 8.45 3.8 10.7 M19.6 8.9 L19.8 9.1 19.7 9.05 Q19.4 8.75 19.6 8.9 M6.8 3.5 L6.15 3.25 4.9 3.65 5.95 2.6 6.8 3.5 M4.1 4.3 L4.15 4.95 3.85 4.45 4.1 4.3 M4.2 5.15 Q5.05 5.25 6.2 4.15 6.5 4.75 8.05 5.75 L4.9 6.65 4.2 5.15 M8.3 5.7 L7.95 4.85 8.75 5.65 8.3 5.7 M6.8 16.15 L5.65 17.05 4.35 17.95 3.65 16.45 4.95 15.15 6.8 16.15 M7.45 20.0 L8.75 18.65 9.05 19.35 9.45 19.0 9.3 18.65 9.0 18.7 Q8.75 18.8 9.0 18.65 L10.2 17.7 10.0 17.65 Q11.65 17.95 14.2 17.6 L13.35 18.3 Q12.5 18.3 11.9 18.8 11.25 19.25 11.25 19.9 L10.35 20.5 7.45 20.0 M19.45 14.9 L19.55 14.95 Q18.55 16.55 17.8 18.4 16.85 19.6 12.3 20.5 L13.7 19.35 14.8 19.3 14.8 18.65 14.55 18.65 Q16.7 16.85 17.45 16.35 L19.45 14.9 M16.25 17.65 L16.4 18.0 16.75 18.1 17.1 18.0 17.25 17.65 17.1 17.35 16.75 17.2 Q16.55 17.2 16.4 17.35 L16.25 17.65" fill="#f5dc78" fill-rule="evenodd" stroke="none"/>
    <path d="M16.9 2.45 L17.75 1.65 18.4 1.95 19.8 3.1 19.3 3.75 18.0 2.75 16.9 2.95 16.9 2.45 M12.25 3.5 L11.95 4.1 Q11.75 4.4 11.1 4.4 L10.35 4.35 10.25 4.1 Q10.4 3.85 11.1 3.55 L12.0 3.2 12.25 3.5 M9.35 6.65 Q12.9 6.45 15.1 6.65 L15.1 6.85 14.25 7.3 11.85 7.25 8.05 7.5 9.35 6.65 M17.8 8.25 L18.7 9.45 19.2 10.8 15.6 13.2 15.2 9.8 17.8 8.25 M19.85 13.35 L19.8 14.0 19.15 13.8 19.85 13.35 M10.9 17.05 Q9.45 16.8 7.35 15.75 L9.45 14.1 9.35 14.1 10.15 14.1 12.15 13.95 Q13.05 13.7 13.2 13.4 13.3 13.05 11.45 12.5 L12.95 11.45 Q13.95 10.7 14.55 10.4 L14.15 11.0 Q13.75 11.2 13.75 11.75 13.75 12.35 14.2 12.5 L14.75 12.75 13.65 12.9 13.3 13.3 Q13.4 13.95 14.5 13.95 L10.9 17.05 M4.2 14.9 L3.95 15.05 3.3 15.55 3.0 14.9 2.8 13.9 Q2.8 13.3 3.15 12.3 L3.8 10.7 6.65 8.45 7.1 8.45 6.85 8.3 6.9 8.25 13.25 7.8 10.25 10.0 Q8.95 10.55 8.45 11.4 L7.0 12.6 7.3 10.9 7.25 10.45 Q6.7 11.15 6.35 12.2 L6.05 13.4 4.2 14.9 M4.9 3.65 L6.15 3.25 6.8 3.5 7.95 4.85 8.3 5.7 8.05 5.75 Q6.5 4.75 6.2 4.15 5.05 5.25 4.2 5.15 L4.15 4.95 4.1 4.3 Q4.15 3.95 4.6 3.75 L4.9 3.65 M5.95 17.95 L6.2 17.95 6.2 17.45 5.95 17.45 5.95 17.95 M4.35 17.95 L5.65 17.05 6.8 16.15 8.0 17.0 9.75 17.6 10.0 17.65 10.2 17.7 9.0 18.65 8.75 18.65 7.45 20.0 4.35 17.95 M7.8 18.25 Q7.4 18.4 7.4 18.75 L7.7 18.95 Q8.25 18.65 8.15 18.2 L7.8 18.25 M12.3 20.5 L10.35 20.5 11.25 19.9 12.45 19.7 13.7 19.35 12.3 20.5 M19.45 14.9 L17.45 16.35 Q16.7 16.85 14.55 18.65 L13.35 18.3 14.2 17.6 Q15.35 17.2 17.0 16.05 18.3 15.05 19.45 14.9" fill="#fbf0c4" fill-rule="evenodd" stroke="none"/>
    <path d="M21.35 14.25 Q21.35 18.1 19.25 20.05 16.65 22.45 10.5 22.45 5.8 22.45 2.9 19.3 0.85 17.05 0.85 15.75 0.85 13.2 2.35 10.4 L4.05 7.55 4.0 7.4 Q2.05 4.6 3.65 2.8 4.45 1.95 5.7 1.6 7.05 1.6 7.7 2.35 L8.5 3.05 11.35 1.65 Q12.1 1.65 14.5 2.8 L15.95 1.9 17.55 1.0 Q18.05 1.0 19.35 2.05 L20.6 3.3 Q19.35 5.3 18.75 6.8 L18.85 7.0 20.25 9.5 Q21.35 11.75 21.35 14.25 M19.3 3.75 L19.8 3.1 18.4 1.95 17.75 1.65 16.9 2.45 13.45 5.4 Q15.65 5.65 17.65 6.4 L19.3 3.75 M10.2 5.45 Q11.85 5.45 12.6 4.65 L13.65 3.35 12.1 2.55 Q11.25 2.5 10.4 3.15 9.6 3.85 8.75 3.7 L10.2 5.45 M15.1 6.85 L15.1 6.65 Q12.9 6.45 9.35 6.65 7.05 6.65 5.45 7.85 3.8 9.0 3.8 10.7 L3.15 12.3 Q2.8 13.3 2.8 13.9 L3.0 14.9 3.3 15.55 3.95 15.05 4.2 14.9 Q4.6 14.55 5.05 14.55 L7.35 15.75 Q9.45 16.8 10.9 17.05 15.6 17.3 16.8 15.9 18.4 13.95 19.15 13.8 L19.8 14.0 19.85 13.35 Q19.9 12.65 19.2 10.8 L18.7 9.45 17.8 8.25 Q17.8 7.65 17.0 7.25 L15.1 6.85 M8.05 7.5 L11.85 7.25 14.25 7.3 15.85 8.55 15.6 8.8 Q14.55 8.1 13.25 7.8 L6.9 8.25 Q6.9 7.95 7.25 7.75 L8.05 7.5 M9.35 14.1 Q8.75 13.95 8.35 13.55 9.85 12.75 10.75 11.85 L10.7 11.5 9.95 11.05 Q9.05 11.65 8.45 11.4 8.95 10.55 10.25 10.0 10.75 10.0 11.1 10.75 11.45 11.45 11.45 12.5 13.3 13.05 13.2 13.4 13.05 13.7 12.15 13.95 L10.15 14.1 9.35 14.1 M7.0 12.6 L6.9 12.8 6.8 13.6 Q6.8 14.6 6.45 14.1 L6.15 13.7 6.05 13.4 6.35 12.2 Q6.7 11.15 7.25 10.45 L7.3 10.9 7.0 12.6 M14.55 10.4 Q13.4 10.9 12.95 11.35 L12.6 11.35 Q12.5 11.35 12.5 10.75 12.5 10.2 12.65 10.05 L12.75 9.6 14.35 9.35 Q14.9 9.5 15.2 9.8 L15.6 13.2 Q15.2 13.85 14.5 13.95 13.4 13.95 13.3 13.3 L13.65 12.9 14.75 12.75 14.2 12.5 Q13.75 12.35 13.75 11.75 13.75 11.2 14.15 11.0 L14.55 10.4 M19.6 8.9 Q19.4 8.75 19.7 9.05 L19.8 9.1 19.6 8.9 M6.85 8.3 L7.1 8.45 6.65 8.45 6.6 8.4 6.85 8.3 M4.9 3.65 L4.6 3.75 Q4.15 3.95 4.1 4.3 L3.85 4.45 4.15 4.95 4.2 5.15 4.9 6.65 8.05 5.75 8.3 5.7 8.75 5.65 7.95 4.85 6.8 3.5 5.95 2.6 4.9 3.65 M5.95 17.95 L5.95 17.45 6.2 17.45 6.2 17.95 5.95 17.95 M6.8 16.15 L4.95 15.15 3.65 16.45 4.35 17.95 7.45 20.0 10.35 20.5 12.3 20.5 Q16.85 19.6 17.8 18.4 18.55 16.55 19.55 14.95 L19.45 14.9 Q18.3 15.05 17.0 16.05 15.35 17.2 14.2 17.6 11.65 17.95 10.0 17.65 L9.75 17.6 8.0 17.0 6.8 16.15 M8.75 18.65 L9.0 18.65 Q8.75 18.8 9.0 18.7 L9.3 18.65 9.45 19.0 9.05 19.35 8.75 18.65 M7.8 18.25 L8.15 18.2 Q8.25 18.65 7.7 18.95 L7.4 18.75 Q7.4 18.4 7.8 18.25 M16.25 17.65 L16.4 17.35 Q16.55 17.2 16.75 17.2 L17.1 17.35 17.25 17.65 17.1 18.0 16.75 18.1 16.4 18.0 16.25 17.65 M13.35 18.3 L14.55 18.65 14.8 18.65 14.8 19.3 13.7 19.35 12.45 19.7 11.25 19.9 Q11.25 19.25 11.9 18.8 12.5 18.3 13.35 18.3" fill="#efb429" fill-rule="evenodd" stroke="none"/>
  </g>
</svg>
