<?xml version="1.0" encoding="UTF-8" standalone="no"?>
<svg xmlns:ffdec="https://www.free-decompiler.com/flash" xmlns:xlink="http://www.w3.org/1999/xlink" ffdec:objectType="shape" height="239.0px" width="63.0px" xmlns="http://www.w3.org/2000/svg">
  <g transform="matrix(1.0, 0.0, 0.0, 1.0, 0.0, 239.0)">
    <path d="M5.8 -85.45 Q8.9 -63.9 13.3 -47.3 L13.2 -45.15 13.9 -45.2 15.5 -39.65 12.95 -39.55 12.65 -32.7 12.1 -20.75 11.8 -14.15 11.7 -11.35 11.6 -7.3 11.6 -7.05 11.45 -6.9 10.1 -5.95 Q6.25 -3.7 1.3 -6.85 L1.0 -7.05 1.05 -7.35 1.95 -13.55 2.55 -17.2 3.0 -20.75 3.95 -34.25 4.45 -42.55 4.8 -53.85 4.95 -61.1 5.0 -67.45 5.8 -85.45 M17.5 -33.55 L18.25 -31.45 17.85 -26.75 17.25 -21.75 20.6 -20.45 17.0 -19.75 16.1 -13.55 Q20.65 -10.8 24.1 -13.15 L23.9 -17.3 25.6 -13.5 25.6 -13.3 25.6 -13.05 25.45 -12.9 24.1 -11.95 Q20.25 -9.7 15.3 -12.85 L15.0 -13.05 15.05 -13.35 15.95 -19.55 16.55 -23.2 17.0 -26.75 17.5 -33.55 M22.95 -19.45 L23.7 -17.7 19.35 -18.55 22.95 -19.45 M10.75 -45.0 L12.15 -45.1 12.35 -48.25 6.0 -67.45 5.95 -60.25 7.45 -59.1 5.95 -58.65 5.85 -54.55 5.8 -53.85 5.35 -42.55 4.85 -33.9 4.7 -31.75 3.85 -20.75 3.25 -15.75 3.0 -13.75 2.1 -7.55 Q6.65 -4.8 10.1 -7.15 L10.6 -7.5 10.7 -11.55 10.75 -13.9 11.05 -20.75 11.35 -28.8 11.45 -31.7 11.5 -32.45 11.55 -33.05 11.85 -39.45 10.5 -39.4 10.35 -39.9 Q9.85 -41.6 9.85 -42.25 9.8 -42.85 10.1 -43.95 L10.4 -45.0 10.75 -45.0 M13.2 -43.7 L11.0 -43.8 Q10.8 -43.05 10.9 -42.25 10.9 -41.55 11.15 -40.75 L14.2 -40.9 13.2 -43.7" fill="#452e14" fill-rule="evenodd" stroke="none"/>
    <path d="M18.25 -31.45 L19.5 -28.1 22.95 -19.45 19.35 -18.55 23.7 -17.7 23.9 -17.3 24.1 -13.15 Q20.65 -10.8 16.1 -13.55 L17.0 -19.75 20.6 -20.45 17.25 -21.75 17.85 -26.75 18.25 -31.45 M5.8 -53.85 L5.85 -54.55 5.95 -58.65 7.45 -59.1 5.95 -60.25 6.0 -67.45 12.35 -48.25 12.15 -45.1 10.75 -45.0 5.8 -53.85 M10.35 -39.9 L10.5 -39.4 11.85 -39.45 11.55 -33.05 11.5 -32.45 11.45 -31.7 11.35 -28.8 11.05 -20.75 10.75 -13.9 10.7 -11.55 10.6 -7.5 10.1 -7.15 9.85 -11.7 5.35 -12.55 9.75 -13.65 9.65 -20.75 9.8 -29.25 5.45 -30.65 9.9 -32.0 9.95 -32.45 10.0 -33.9 Q10.1 -36.9 10.35 -39.9 M3.0 -13.75 L3.25 -15.75 6.6 -14.45 3.0 -13.75 M4.7 -31.75 L4.85 -33.9 7.7 -32.6 4.7 -31.75" fill="#734d22" fill-rule="evenodd" stroke="none"/>
    <path d="M10.75 -45.0 L10.4 -45.0 10.1 -43.95 Q9.8 -42.85 9.85 -42.25 9.85 -41.6 10.35 -39.9 10.1 -36.9 10.0 -33.9 L9.95 -32.45 9.9 -32.0 5.45 -30.65 9.8 -29.25 9.65 -20.75 9.75 -13.65 5.35 -12.55 9.85 -11.7 10.1 -7.15 Q6.65 -4.8 2.1 -7.55 L3.0 -13.75 6.6 -14.45 3.25 -15.75 3.85 -20.75 4.7 -31.75 7.7 -32.6 4.85 -33.9 5.35 -42.55 5.8 -53.85 10.75 -45.0 M13.2 -43.7 L14.2 -40.9 11.15 -40.75 Q10.9 -41.55 10.9 -42.25 10.8 -43.05 11.0 -43.8 L13.2 -43.7 M8.55 -44.8 L6.45 -47.85 6.45 -34.75 8.55 -33.7 8.55 -44.8 M7.7 -25.6 L5.95 -26.9 5.2 -16.55 7.8 -15.45 7.7 -25.6 M8.9 -8.05 L8.55 -10.45 4.2 -11.15 3.7 -8.1 Q6.3 -7.15 8.9 -8.05" fill="#9b682f" fill-rule="evenodd" stroke="none"/>
    <path d="M8.55 -44.8 L8.55 -33.7 6.45 -34.75 6.45 -47.85 8.55 -44.8 M7.7 -25.6 L7.8 -15.45 5.2 -16.55 5.95 -26.9 7.7 -25.6 M8.9 -8.05 Q6.3 -7.15 3.7 -8.1 L4.2 -11.15 8.55 -10.45 8.9 -8.05" fill="#cb9354" fill-rule="evenodd" stroke="none"/>
    <path d="M23.2 -223.8 Q21.85 -229.8 21.8 -236.15 L21.8 -237.4 Q28.65 -234.9 34.45 -228.6 37.9 -225.15 41.65 -215.7 45.45 -206.25 46.4 -201.0 L41.8 -210.45 Q38.55 -216.55 34.4 -221.55 31.05 -225.35 27.2 -228.05 26.6 -227.75 25.1 -226.1 L23.2 -223.8 M37.4 -144.25 L39.05 -123.15 39.7 -111.7 Q23.2 -113.4 17.55 -131.25 16.45 -134.45 16.2 -137.95 15.25 -151.45 25.0 -156.8 L26.7 -152.05 Q28.9 -146.7 31.15 -144.75 34.15 -142.05 37.4 -144.25 M39.95 -101.55 L40.1 -87.8 Q35.7 -91.15 34.2 -96.0 37.85 -97.9 39.95 -101.55 M21.25 -225.55 Q21.3 -224.95 20.95 -224.35 20.35 -223.8 19.6 -223.8 18.85 -223.8 18.35 -224.35 17.95 -224.9 17.85 -225.65 17.9 -226.25 18.4 -226.7 18.95 -227.2 19.7 -227.2 L20.95 -226.8 Q21.35 -226.3 21.25 -225.55 M18.7 -183.4 L20.2 -182.5 Q21.05 -181.6 21.05 -180.6 21.0 -179.4 20.15 -178.65 19.5 -177.9 18.5 -178.0 L17.9 -178.05 18.7 -183.4 M40.2 -72.75 Q39.3 -72.05 37.95 -72.1 36.3 -72.0 35.05 -73.5 34.05 -75.05 33.95 -76.95 34.0 -78.75 35.15 -80.25 36.45 -81.7 38.1 -81.65 39.2 -81.7 40.15 -81.05 L40.2 -72.75 M35.6 -164.45 Q33.3 -162.4 31.95 -162.35 30.1 -162.4 28.85 -164.1 27.55 -165.7 27.6 -167.9 27.7 -170.1 28.9 -171.8 30.2 -173.35 32.1 -173.45 33.65 -173.3 34.75 -172.2 L35.25 -168.15 35.6 -164.45 M30.8 -191.9 L29.3 -191.6 Q28.1 -191.65 27.25 -192.55 26.45 -193.3 26.55 -194.75 26.5 -196.05 27.4 -197.0 27.95 -197.45 28.8 -197.75 L30.8 -191.9 M29.75 -103.8 Q29.8 -104.8 30.45 -105.7 31.1 -106.35 32.0 -106.35 33.0 -106.3 33.65 -105.55 34.4 -104.7 34.35 -103.7 34.35 -102.45 33.65 -101.7 32.9 -100.9 32.0 -100.95 31.05 -101.0 30.3 -101.8 29.7 -102.55 29.75 -103.8" fill="#a4eee3" fill-rule="evenodd" stroke="none"/>
    <path d="M21.8 -237.4 L21.8 -236.15 Q21.85 -229.8 23.2 -223.8 L20.1 -217.4 17.7 -211.65 Q17.3 -211.55 16.95 -211.25 16.05 -210.4 16.0 -209.05 L16.25 -207.7 14.8 -203.2 13.25 -198.15 Q11.6 -187.0 10.6 -175.2 8.3 -151.45 8.95 -126.9 9.2 -109.75 12.15 -93.05 L15.0 -76.85 15.55 -73.55 16.85 -65.95 18.3 -57.9 19.5 -51.35 20.05 -48.3 22.1 -37.45 22.45 -35.7 23.65 -29.15 25.3 -20.5 23.65 -24.5 21.85 -29.0 21.8 -29.15 Q20.2 -33.1 18.7 -37.5 17.4 -41.25 16.25 -45.3 14.95 -49.7 13.75 -54.45 9.9 -69.9 7.05 -89.2 L4.85 -106.1 Q-0.75 -155.25 2.85 -188.4 6.35 -221.7 20.9 -237.65 L21.8 -237.4 M21.25 -225.55 Q21.35 -226.3 20.95 -226.8 L19.7 -227.2 Q18.95 -227.2 18.4 -226.7 17.9 -226.25 17.85 -225.65 17.95 -224.9 18.35 -224.35 18.85 -223.8 19.6 -223.8 20.35 -223.8 20.95 -224.35 21.3 -224.95 21.25 -225.55 M18.7 -183.4 L20.45 -193.7 21.55 -196.95 23.15 -200.0 26.25 -202.1 27.75 -199.8 28.8 -197.75 Q27.95 -197.45 27.4 -197.0 26.5 -196.05 26.55 -194.75 26.45 -193.3 27.25 -192.55 28.1 -191.65 29.3 -191.6 L30.8 -191.9 Q33.5 -182.2 34.75 -172.2 33.65 -173.3 32.1 -173.45 30.2 -173.35 28.9 -171.8 27.7 -170.1 27.6 -167.9 27.55 -165.7 28.85 -164.1 30.1 -162.4 31.95 -162.35 33.3 -162.4 35.6 -164.45 L37.4 -144.25 Q34.15 -142.05 31.15 -144.75 28.9 -146.7 26.7 -152.05 L25.0 -156.8 Q15.25 -151.45 16.2 -137.95 16.45 -134.45 17.55 -131.25 23.2 -113.4 39.7 -111.7 L39.95 -101.55 Q37.85 -97.9 34.2 -96.0 35.7 -91.15 40.1 -87.8 39.95 -84.5 40.15 -81.05 39.2 -81.7 38.1 -81.65 36.45 -81.7 35.15 -80.25 34.0 -78.75 33.95 -76.95 34.05 -75.05 35.05 -73.5 36.3 -72.0 37.95 -72.1 39.3 -72.05 40.2 -72.75 L40.2 -69.2 40.2 -67.9 40.2 -64.8 40.2 -63.55 40.2 -62.35 Q40.2 -57.3 40.95 -52.6 L41.05 -51.9 41.35 -48.25 Q41.55 -44.05 41.0 -40.15 L40.8 -40.05 Q40.25 -39.15 40.2 -38.1 L40.3 -37.4 39.05 -34.1 Q37.4 -41.1 30.45 -43.65 L27.35 -44.5 24.9 -44.95 23.85 -48.3 Q21.55 -55.9 19.9 -63.55 19.0 -67.65 18.35 -71.7 L17.25 -78.7 Q14.75 -97.5 13.4 -116.75 12.0 -136.1 14.65 -155.4 16.1 -166.6 17.9 -178.05 L18.5 -178.0 Q19.5 -177.9 20.15 -178.65 21.0 -179.4 21.05 -180.6 21.05 -181.6 20.2 -182.5 L18.7 -183.4 M29.75 -103.8 Q29.7 -102.55 30.3 -101.8 31.05 -101.0 32.0 -100.95 32.9 -100.9 33.65 -101.7 34.35 -102.45 34.35 -103.7 34.4 -104.7 33.65 -105.55 33.0 -106.3 32.0 -106.35 31.1 -106.35 30.45 -105.7 29.8 -104.8 29.75 -103.8 M32.9 -32.5 L34.7 -31.15 36.75 -29.7 35.55 -27.65 33.55 -28.3 32.9 -32.5" fill="#ffffff" fill-rule="evenodd" stroke="none"/>
    <path d="M21.8 -237.4 L20.9 -237.65 Q6.35 -221.7 2.85 -188.4 -0.75 -155.25 4.85 -106.1 L7.05 -89.2 Q9.9 -69.9 13.75 -54.45 14.95 -49.7 16.25 -45.3 17.4 -41.25 18.7 -37.5 20.2 -33.1 21.8 -29.15 L21.85 -29.0 23.65 -24.5 25.3 -20.5 25.75 -19.15 Q28.15 -12.75 35.8 -3.05 L33.4 -1.3 Q30.05 -4.15 25.6 -13.5 L23.9 -17.3 23.7 -17.7 22.95 -19.45 19.5 -28.1 18.25 -31.45 17.5 -33.55 15.5 -39.65 13.9 -45.2 13.3 -47.3 Q8.9 -63.9 5.8 -85.45 4.4 -95.1 3.3 -105.7 -1.95 -154.85 1.1 -189.3 3.95 -223.5 20.05 -238.8 L21.6 -239.0 Q21.9 -238.15 21.8 -237.4" fill="#666666" fill-rule="evenodd" stroke="none"/>
    <path d="M46.4 -201.0 Q45.45 -206.25 41.65 -215.7 37.9 -225.15 34.45 -228.6 28.65 -234.9 21.8 -237.4 21.9 -238.15 21.6 -239.0 39.45 -235.15 48.05 -204.75 L49.25 -200.95 51.25 -192.2 Q57.45 -164.6 60.05 -124.2 63.35 -76.5 58.75 -43.65 L56.75 -45.25 Q57.9 -56.15 58.6 -66.95 59.45 -82.1 58.8 -97.15 L57.45 -124.95 Q56.2 -142.0 54.05 -158.6 51.8 -175.45 48.3 -192.4 L47.4 -196.4 46.4 -201.0 M33.4 -1.3 L35.8 -3.05 Q47.05 -3.7 51.25 -13.5 L52.3 -12.6 Q51.7 -9.15 47.7 -5.35 45.9 -3.6 42.05 -1.85 38.55 -0.35 36.5 -0.05 35.15 0.25 33.4 -1.3 M57.45 -35.8 L54.8 -22.2 53.9 -23.4 55.8 -36.75 57.45 -35.8" fill="#115e52" fill-rule="evenodd" stroke="none"/>
    <path d="M23.2 -223.8 L25.1 -226.1 Q26.6 -227.75 27.2 -228.05 31.05 -225.35 34.4 -221.55 38.55 -216.55 41.8 -210.45 L46.4 -201.0 47.4 -196.4 48.3 -192.4 Q51.8 -175.45 54.05 -158.6 56.2 -142.0 57.45 -124.95 54.25 -141.8 52.45 -164.05 51.25 -179.3 45.5 -192.4 L42.65 -198.15 Q41.15 -200.85 37.1 -206.55 L33.25 -211.65 Q41.0 -188.05 46.05 -163.4 58.05 -105.65 51.1 -47.75 L48.35 -48.3 Q48.1 -48.0 47.8 -46.1 L47.6 -44.2 Q43.35 -52.9 44.4 -58.25 45.65 -64.8 47.65 -73.3 49.65 -82.05 43.7 -85.3 41.65 -86.55 40.1 -87.8 L39.95 -101.55 40.85 -105.4 Q41.6 -109.55 41.05 -111.65 L39.7 -111.7 39.05 -123.15 37.4 -144.25 39.05 -146.5 42.05 -151.8 Q46.0 -160.4 44.65 -166.3 40.05 -185.8 30.65 -203.1 25.15 -213.0 23.2 -223.8 M16.25 -207.7 L16.0 -209.05 Q16.05 -210.4 16.95 -211.25 17.3 -211.55 17.7 -211.65 L19.3 -212.05 Q20.65 -212.0 21.65 -211.1 22.85 -210.1 22.8 -208.8 22.8 -207.5 21.6 -206.65 20.55 -205.6 19.2 -205.65 17.9 -205.65 16.95 -206.75 L16.25 -207.7 M30.25 -14.4 L30.15 -15.55 Q30.25 -17.3 31.2 -18.8 32.15 -20.15 33.45 -20.15 34.9 -20.15 35.8 -18.75 36.7 -17.35 36.7 -15.35 36.6 -13.55 35.85 -12.15 32.95 -12.4 30.25 -14.4 M40.3 -37.4 L40.2 -38.1 Q40.25 -39.15 40.8 -40.05 L41.0 -40.15 Q41.4 -40.75 42.3 -40.8 43.3 -40.75 43.9 -40.0 44.5 -39.1 44.45 -37.95 44.45 -36.9 43.8 -36.25 43.25 -35.4 42.2 -35.45 41.25 -35.4 40.7 -36.25 L40.3 -37.4 M28.8 -197.75 L29.4 -197.8 Q30.6 -197.7 31.45 -196.9 32.35 -196.05 32.35 -194.6 32.3 -193.35 31.3 -192.5 L30.8 -191.9 28.8 -197.75 M17.9 -178.05 L16.75 -178.8 Q16.05 -179.45 16.05 -180.7 16.05 -181.7 16.75 -182.55 17.4 -183.05 18.7 -183.4 L17.9 -178.05 M34.75 -172.2 L35.8 -170.5 Q36.6 -168.7 36.6 -167.8 36.5 -165.95 35.6 -164.45 L35.25 -168.15 34.75 -172.2 M40.15 -81.05 Q40.6 -80.85 41.05 -80.25 42.25 -78.7 42.3 -76.8 42.3 -75.0 40.95 -73.55 L40.2 -72.75 40.15 -81.05" fill="#75e6d5" fill-rule="evenodd" stroke="none"/>
    <path d="M25.3 -20.5 L23.65 -29.15 22.45 -35.7 22.1 -37.45 20.05 -48.3 19.5 -51.35 18.3 -57.9 16.85 -65.95 15.55 -73.55 15.0 -76.85 12.15 -93.05 Q9.2 -109.75 8.95 -126.9 8.3 -151.45 10.6 -175.2 11.6 -187.0 13.25 -198.15 L14.8 -203.2 16.25 -207.7 16.95 -206.75 Q17.9 -205.65 19.2 -205.65 20.55 -205.6 21.6 -206.65 22.8 -207.5 22.8 -208.8 22.85 -210.1 21.65 -211.1 20.65 -212.0 19.3 -212.05 L17.7 -211.65 20.1 -217.4 23.2 -223.8 Q25.15 -213.0 30.65 -203.1 40.05 -185.8 44.65 -166.3 46.0 -160.4 42.05 -151.8 L39.05 -146.5 37.4 -144.25 35.6 -164.45 Q36.5 -165.95 36.6 -167.8 36.6 -168.7 35.8 -170.5 L34.75 -172.2 Q33.5 -182.2 30.8 -191.9 L31.3 -192.5 Q32.3 -193.35 32.35 -194.6 32.35 -196.05 31.45 -196.9 30.6 -197.7 29.4 -197.8 L28.8 -197.75 27.75 -199.8 26.25 -202.1 23.15 -200.0 21.55 -196.95 20.45 -193.7 18.7 -183.4 Q17.4 -183.05 16.75 -182.55 16.05 -181.7 16.05 -180.7 16.05 -179.45 16.75 -178.8 L17.9 -178.05 Q16.1 -166.6 14.65 -155.4 12.0 -136.1 13.4 -116.75 14.75 -97.5 17.25 -78.7 L18.35 -71.7 Q19.0 -67.65 19.9 -63.55 21.55 -55.9 23.85 -48.3 L24.9 -44.95 24.95 -40.45 Q25.1 -35.55 25.55 -32.8 L25.7 -30.0 Q25.8 -28.75 26.15 -27.45 26.95 -24.1 29.2 -20.8 L29.85 -23.25 Q31.0 -28.2 30.7 -33.3 L32.9 -32.5 33.55 -28.3 35.55 -27.65 36.75 -29.7 Q37.7 -28.85 39.5 -28.0 39.6 -31.35 39.05 -34.1 L40.3 -37.4 40.7 -36.25 Q41.25 -35.4 42.2 -35.45 43.25 -35.4 43.8 -36.25 44.45 -36.9 44.45 -37.95 44.5 -39.1 43.9 -40.0 43.3 -40.75 42.3 -40.8 41.4 -40.75 41.0 -40.15 41.55 -44.05 41.35 -48.25 L41.05 -51.9 40.95 -52.6 Q40.2 -57.3 40.2 -62.35 L40.2 -63.55 40.2 -64.8 40.2 -67.9 40.2 -69.2 40.2 -72.75 40.95 -73.55 Q42.3 -75.0 42.3 -76.8 42.25 -78.7 41.05 -80.25 40.6 -80.85 40.15 -81.05 39.95 -84.5 40.1 -87.8 41.65 -86.55 43.7 -85.3 49.65 -82.05 47.65 -73.3 45.65 -64.8 44.4 -58.25 43.35 -52.9 47.6 -44.2 L48.05 -38.8 46.5 -28.65 40.95 -30.55 42.25 -15.65 Q42.4 -15.4 39.65 -13.8 36.85 -12.1 35.85 -12.15 36.6 -13.55 36.7 -15.35 36.7 -17.35 35.8 -18.75 34.9 -20.15 33.45 -20.15 32.15 -20.15 31.2 -18.8 30.25 -17.3 30.15 -15.55 L30.25 -14.4 Q28.5 -15.8 25.8 -19.75 L25.3 -20.5 M39.7 -111.7 L41.05 -111.65 Q41.6 -109.55 40.85 -105.4 L39.95 -101.55 39.7 -111.7" fill="#e4e4e4" fill-rule="evenodd" stroke="none"/>
    <path d="M51.1 -47.75 Q58.05 -105.65 46.05 -163.4 41.0 -188.05 33.25 -211.65 L37.1 -206.55 Q41.15 -200.85 42.65 -198.15 L45.5 -192.4 Q51.25 -179.3 52.45 -164.05 54.25 -141.8 57.45 -124.95 L58.8 -97.15 Q59.45 -82.1 58.6 -66.95 57.9 -56.15 56.75 -45.25 54.35 -46.9 51.1 -47.75 M35.85 -12.15 Q34.35 -10.6 33.35 -10.65 32.1 -10.6 31.1 -12.15 30.55 -13.15 30.25 -14.4 32.95 -12.4 35.85 -12.15 M50.65 -37.7 Q53.25 -38.05 55.8 -36.75 L53.9 -23.4 50.9 -26.0 Q52.55 -32.35 50.65 -37.7 M51.25 -13.5 Q47.05 -3.7 35.8 -3.05 40.75 -7.05 44.9 -13.45 L46.2 -15.45 Q49.3 -15.0 51.25 -13.5" fill="#25cbb3" fill-rule="evenodd" stroke="none"/>
    <path d="M47.6 -44.2 L47.8 -46.1 Q48.1 -48.0 48.35 -48.3 L51.1 -47.75 Q54.35 -46.9 56.75 -45.25 L58.75 -43.65 Q60.45 -41.95 61.95 -36.4 L63.0 -31.25 57.45 -35.8 55.8 -36.75 Q53.25 -38.05 50.65 -37.7 L48.95 -37.35 48.4 -38.15 48.05 -38.8 47.6 -44.2 M42.25 -15.65 L40.95 -30.55 46.5 -28.65 Q48.9 -27.55 50.9 -26.0 L53.9 -23.4 54.8 -22.2 Q59.0 -16.75 59.1 -6.6 58.7 -7.35 55.65 -9.75 52.6 -12.15 52.3 -12.6 L51.25 -13.5 Q49.3 -15.0 46.2 -15.45 L42.25 -15.65 M24.9 -44.95 L27.35 -44.5 30.45 -43.65 Q37.4 -41.1 39.05 -34.1 39.6 -31.35 39.5 -28.0 37.7 -28.85 36.75 -29.7 L34.7 -31.15 32.9 -32.5 30.7 -33.3 26.4 -33.05 25.55 -32.8 Q25.1 -35.55 24.95 -40.45 L24.9 -44.95 M27.35 -42.9 L25.6 -43.1 26.7 -34.75 28.45 -34.95 30.55 -35.05 34.65 -32.6 Q38.35 -30.35 38.6 -29.85 L38.05 -32.2 Q35.25 -41.7 27.35 -42.9 M62.2 -33.1 L61.75 -34.85 Q60.65 -38.75 58.35 -41.35 L56.55 -43.2 Q53.55 -45.7 49.2 -46.7 L49.85 -39.2 50.1 -39.2 Q53.3 -39.35 55.95 -38.35 L57.8 -37.4 Q60.3 -35.85 62.2 -33.1 M46.1 -27.2 L42.3 -28.25 43.15 -18.25 Q47.2 -17.4 50.0 -15.6 L57.45 -9.6 Q57.25 -14.35 55.4 -18.1 L54.25 -20.0 53.45 -21.2 Q52.1 -23.15 50.45 -24.55 48.45 -26.15 46.1 -27.2" fill="#252525" fill-rule="evenodd" stroke="none"/>
    <path d="M27.35 -42.9 Q35.25 -41.7 38.05 -32.2 L38.6 -29.85 Q38.35 -30.35 34.65 -32.6 L30.55 -35.05 28.45 -34.95 26.7 -34.75 25.6 -43.1 27.35 -42.9 M62.2 -33.1 Q60.3 -35.85 57.8 -37.4 L55.95 -38.35 Q53.3 -39.35 50.1 -39.2 L49.85 -39.2 49.2 -46.7 Q53.55 -45.7 56.55 -43.2 L58.35 -41.35 Q60.65 -38.75 61.75 -34.85 L62.2 -33.1 M46.1 -27.2 Q48.45 -26.15 50.45 -24.55 52.1 -23.15 53.45 -21.2 L54.25 -20.0 55.4 -18.1 Q57.25 -14.35 57.45 -9.6 L50.0 -15.6 Q47.2 -17.4 43.15 -18.25 L42.3 -28.25 46.1 -27.2" fill="#4a4a4a" fill-rule="evenodd" stroke="none"/>
    <path d="M35.8 -3.05 Q28.15 -12.75 25.75 -19.15 L25.3 -20.5 25.8 -19.75 Q28.5 -15.8 30.25 -14.4 30.55 -13.15 31.1 -12.15 32.1 -10.6 33.35 -10.65 34.35 -10.6 35.85 -12.15 36.85 -12.1 39.65 -13.8 42.4 -15.4 42.25 -15.65 L46.2 -15.45 44.9 -13.45 Q40.75 -7.05 35.8 -3.05 M46.5 -28.65 L48.05 -38.8 48.4 -38.15 48.95 -37.35 50.65 -37.7 Q52.55 -32.35 50.9 -26.0 48.9 -27.55 46.5 -28.65 M25.55 -32.8 L26.4 -33.05 30.7 -33.3 Q31.0 -28.2 29.85 -23.25 L29.2 -20.8 Q26.95 -24.1 26.15 -27.45 25.8 -28.75 25.7 -30.0 L25.55 -32.8" fill="#cdcdcd" fill-rule="evenodd" stroke="none"/>
  </g>
</svg>
