<?xml version="1.0" encoding="UTF-8" standalone="no"?>
<svg xmlns:ffdec="https://www.free-decompiler.com/flash" xmlns:xlink="http://www.w3.org/1999/xlink" ffdec:objectType="shape" height="12.4px" width="15.05px" xmlns="http://www.w3.org/2000/svg">
  <g transform="matrix(1.0, 0.0, 0.0, 1.0, 16.0, 5.7)">
    <path d="M-13.4 -4.3 Q-11.3 -5.8 -8.35 -5.7 L-5.4 -5.15 -5.45 -5.2 Q-4.25 -4.8 -3.3 -4.0 L-3.35 -4.0 Q-2.45 -3.4 -2.0 -2.65 L-2.0 -2.7 Q-0.85 -1.1 -0.95 0.65 -0.85 3.35 -3.45 5.25 -5.7 6.75 -8.6 6.7 -11.65 6.6 -13.65 4.95 -16.2 2.95 -16.0 0.25 -16.1 -2.4 -13.45 -4.3 L-13.4 -4.3" fill="#e4b769" fill-rule="evenodd" stroke="none"/>
    <path d="M-12.6 -3.4 L-12.55 -3.4 Q-10.65 -4.65 -8.0 -4.55 L-5.4 -4.1 -5.4 -4.15 Q-4.3 -3.8 -3.45 -3.15 L-3.5 -3.15 -2.35 -2.0 -2.35 -2.05 Q-1.3 -0.65 -1.35 0.85 -1.3 3.2 -3.6 4.8 L-3.65 4.8 Q-5.65 6.15 -8.25 6.1 -10.95 6.0 -12.75 4.55 -15.0 2.85 -14.85 0.5 -14.9 -1.8 -12.6 -3.4 M-10.95 -0.6 L-10.95 -0.65 Q-11.75 -0.1 -11.8 0.6 -11.8 1.4 -11.0 1.95 L-10.95 1.95 Q-9.8 2.85 -8.15 2.9 -6.45 2.9 -5.3 2.1 -4.5 1.55 -4.4 0.75 -4.4 0.35 -4.75 0.0 L-4.8 -0.05 -5.25 -0.5 Q-5.7 -0.9 -6.3 -1.0 L-6.35 -1.05 -8.05 -1.35 Q-9.75 -1.4 -10.95 -0.6" fill="#3d2618" fill-rule="evenodd" stroke="none"/>
    <path d="M-10.95 -0.6 Q-9.75 -1.4 -8.05 -1.35 L-6.35 -1.05 -6.3 -1.0 Q-5.7 -0.9 -5.25 -0.5 L-4.8 -0.05 -4.75 0.0 Q-4.4 0.35 -4.4 0.75 -4.5 1.55 -5.3 2.1 -6.45 2.9 -8.15 2.9 -9.8 2.85 -10.95 1.95 L-11.0 1.95 Q-11.8 1.4 -11.8 0.6 -11.75 -0.1 -10.95 -0.65 L-10.95 -0.6" fill="#f5e3c5" fill-rule="evenodd" stroke="none"/>
  </g>
</svg>
