<?xml version="1.0" encoding="UTF-8" standalone="no"?>
<svg xmlns:ffdec="https://www.free-decompiler.com/flash" xmlns:xlink="http://www.w3.org/1999/xlink" ffdec:objectType="shape" height="91.05px" width="92.6px" xmlns="http://www.w3.org/2000/svg">
  <g transform="matrix(1.0, 0.0, 0.0, 1.0, 49.55, 26.05)">
    <path d="M-5.6 42.0 L-5.6 40.35 Q-0.4 38.15 5.25 37.15 L5.0 35.55 1.8 36.2 Q-2.05 37.2 -5.6 38.9 -8.55 40.3 -11.35 42.2 -22.2 49.75 -34.55 51.35 -37.95 51.8 -41.0 50.15 -45.15 48.0 -47.8 44.05 -41.5 44.75 -37.85 42.6 L-36.05 40.65 Q-34.25 38.75 -34.0 27.05 L-33.95 23.65 Q-35.05 33.75 -35.6 35.85 -36.75 40.45 -42.0 43.05 L-42.95 40.95 Q-40.75 39.9 -38.55 37.2 -36.3 34.4 -36.7 17.75 -37.1 1.05 -35.3 -7.1 -35.35 -16.5 -33.65 -25.55 L-33.35 -26.05 5.65 -26.05 5.65 2.05 5.65 5.4 7.45 1.7 Q7.8 7.0 6.85 15.75 5.85 24.45 6.3 30.3 L8.0 29.65 Q8.0 35.35 7.35 40.95 7.15 42.5 7.1 44.0 0.95 41.85 -5.6 42.0 M16.55 -26.05 L18.65 -26.05 Q21.05 -21.0 22.0 -15.3 23.2 -7.7 22.85 0.0 22.4 8.0 21.55 16.05 21.35 17.95 21.4 19.95 L21.9 19.95 Q25.8 2.7 23.95 -14.95 23.3 -20.8 20.75 -26.05 L24.45 -26.05 Q25.9 -22.15 26.5 -17.8 27.0 -14.6 26.85 -11.2 26.3 3.35 24.1 17.55 22.65 26.6 24.4 35.5 25.75 42.4 32.4 44.7 37.65 46.5 41.4 42.55 L41.35 44.65 40.65 44.35 Q36.1 47.25 30.8 45.9 29.45 45.6 28.55 44.7 25.35 41.15 22.1 38.4 L23.5 41.7 Q26.85 48.8 34.85 48.3 30.8 51.15 25.85 51.0 L24.1 49.45 23.1 49.35 23.35 50.25 23.7 50.95 Q17.8 43.55 18.6 33.1 L19.8 12.15 Q20.4 0.3 19.4 -11.3 18.8 -18.85 16.55 -26.05 M40.75 46.6 Q38.9 51.7 33.95 53.7 L34.95 52.15 Q36.05 50.4 36.3 48.25 L37.35 48.2 Q39.2 47.75 40.75 46.6 M30.55 52.55 L33.4 51.3 Q30.65 58.7 22.95 58.75 L23.4 60.4 20.1 60.45 19.25 59.6 Q25.15 58.7 29.05 54.4 L30.55 52.55 M25.1 62.2 Q23.65 63.2 21.75 63.1 8.05 62.7 8.9 48.45 11.45 60.25 23.05 62.05 L25.1 62.2 M9.85 27.85 L9.1 25.35 7.8 26.75 Q8.75 17.55 10.15 8.2 L10.5 7.05 Q11.35 16.6 9.85 27.85 M35.8 40.15 L35.55 41.15 Q35.2 42.25 34.45 42.85 L33.65 43.55 Q32.0 43.25 30.5 42.45 27.85 41.05 26.75 38.4 L30.4 37.65 30.3 40.5 35.8 40.15" fill="#b9a99b" fill-rule="evenodd" stroke="none"/>
    <path d="M24.45 -26.05 L26.75 -26.05 Q28.65 -20.3 28.3 -13.85 27.6 -2.55 26.2 8.65 24.75 20.1 25.35 31.65 25.5 34.15 26.1 36.75 27.45 37.15 28.8 36.75 29.65 36.35 30.6 36.2 L31.2 36.15 31.45 36.95 31.45 39.35 35.55 38.8 36.95 38.4 37.45 38.4 37.1 40.35 36.35 41.75 35.35 43.2 35.2 43.5 37.1 43.35 Q39.0 42.5 40.25 40.75 L41.5 39.1 Q44.25 42.95 42.1 47.8 39.65 53.35 33.75 55.4 L32.75 55.7 Q31.7 58.0 29.5 59.1 27.6 60.0 25.45 60.25 L27.95 61.25 Q23.8 66.25 16.75 64.6 11.1 63.1 9.05 57.35 7.1 51.7 7.1 45.6 1.15 43.5 -5.4 43.65 L-5.6 43.65 -5.6 42.0 Q0.95 41.85 7.1 44.0 7.15 42.5 7.35 40.95 8.0 35.35 8.0 29.65 L6.3 30.3 Q5.85 24.45 6.85 15.75 7.8 7.0 7.45 1.7 L5.65 5.4 5.65 2.05 Q6.95 -1.1 7.35 -4.6 L7.65 -5.4 8.35 -5.25 8.85 -1.15 Q9.0 10.75 7.5 22.6 7.15 25.3 6.95 28.0 L7.8 26.75 9.1 25.35 9.85 27.85 8.9 48.45 Q8.05 62.7 21.75 63.1 23.65 63.2 25.1 62.2 L23.4 60.4 22.95 58.75 Q30.65 58.7 33.4 51.3 L30.55 52.55 24.85 52.25 23.7 50.95 23.35 50.25 23.1 49.35 24.1 49.45 25.85 51.0 Q30.8 51.15 34.85 48.3 L35.5 47.95 36.3 48.25 Q36.05 50.4 34.95 52.15 L33.95 53.7 Q38.9 51.7 40.75 46.6 L41.35 44.65 41.4 42.55 Q37.65 46.5 32.4 44.7 25.75 42.4 24.4 35.5 22.65 26.6 24.1 17.55 26.3 3.35 26.85 -11.2 27.0 -14.6 26.5 -17.8 25.9 -22.15 24.45 -26.05 M-5.6 40.35 Q-11.7 42.85 -17.15 47.05 -31.95 58.2 -46.8 48.0 -49.85 45.85 -49.5 42.35 L-42.85 43.3 -44.35 40.4 Q-36.3 38.55 -38.0 22.95 -39.75 7.35 -36.65 -18.1 -36.05 -22.3 -34.65 -26.05 L-33.35 -26.05 -33.65 -25.55 Q-35.35 -16.5 -35.3 -7.1 -37.1 1.05 -36.7 17.75 -36.3 34.4 -38.55 37.2 -40.75 39.9 -42.95 40.95 L-42.0 43.05 Q-36.75 40.45 -35.6 35.85 -35.05 33.75 -33.95 23.65 L-34.0 27.05 Q-34.25 38.75 -36.05 40.65 L-37.85 42.6 Q-41.5 44.75 -47.8 44.05 -45.15 48.0 -41.0 50.15 -37.95 51.8 -34.55 51.35 -22.2 49.75 -11.35 42.2 -8.55 40.3 -5.6 38.9 -2.05 37.2 1.8 36.2 L5.0 35.55 5.25 37.15 Q-0.4 38.15 -5.6 40.35 M35.8 40.15 L30.3 40.5 30.4 37.65 26.75 38.4 Q27.85 41.05 30.5 42.45 32.0 43.25 33.65 43.55 L34.45 42.85 Q35.2 42.25 35.55 41.15 L35.8 40.15" fill="#6f5c4d" fill-rule="evenodd" stroke="none"/>
    <path d="M5.65 -26.05 L16.55 -26.05 Q18.8 -18.85 19.4 -11.3 20.4 0.3 19.8 12.15 L18.6 33.1 Q17.8 43.55 23.7 50.95 L24.85 52.25 30.55 52.55 29.05 54.4 Q25.15 58.7 19.25 59.6 L20.1 60.45 23.4 60.4 25.1 62.2 23.05 62.05 Q11.45 60.25 8.9 48.45 L9.85 27.85 Q11.35 16.6 10.5 7.05 L10.15 8.2 Q8.75 17.55 7.8 26.75 L6.95 28.0 Q7.15 25.3 7.5 22.6 9.0 10.75 8.85 -1.15 L8.35 -5.25 7.65 -5.4 7.35 -4.6 Q6.95 -1.1 5.65 2.05 L5.65 -26.05 M18.65 -26.05 L20.75 -26.05 Q23.3 -20.8 23.95 -14.95 25.8 2.7 21.9 19.95 L21.4 19.95 Q21.35 17.95 21.55 16.05 22.4 8.0 22.85 0.0 23.2 -7.7 22.0 -15.3 21.05 -21.0 18.65 -26.05 M41.35 44.65 L40.75 46.6 Q39.2 47.75 37.35 48.2 L36.3 48.25 35.5 47.95 34.85 48.3 Q26.85 48.8 23.5 41.7 L22.1 38.4 Q25.35 41.15 28.55 44.7 29.45 45.6 30.8 45.9 36.1 47.25 40.65 44.35 L41.35 44.65 M13.55 19.15 L12.05 16.4 11.7 16.75 Q12.3 27.6 10.55 38.55 9.95 42.1 10.5 45.35 L10.85 47.15 Q11.8 51.0 14.35 54.35 18.4 59.7 23.7 55.85 L21.55 54.45 Q18.95 53.0 17.8 50.35 L16.6 46.95 Q14.8 40.9 15.7 34.4 L15.95 32.45 15.9 27.85 Q15.5 23.3 13.55 19.15" fill="#c7baaf" fill-rule="evenodd" stroke="none"/>
    <path d="M13.55 19.15 Q15.5 23.3 15.9 27.85 L15.95 32.45 15.7 34.4 Q14.8 40.9 16.6 46.95 L17.8 50.35 Q18.95 53.0 21.55 54.45 L23.7 55.85 Q18.4 59.7 14.35 54.35 11.8 51.0 10.85 47.15 L10.5 45.35 Q9.95 42.1 10.55 38.55 12.3 27.6 11.7 16.75 L12.05 16.4 13.55 19.15" fill="#d2c8bf" fill-rule="evenodd" stroke="none"/>
  </g>
</svg>
