<?xml version="1.0" encoding="UTF-8" standalone="no"?>
<svg xmlns:ffdec="https://www.free-decompiler.com/flash" xmlns:xlink="http://www.w3.org/1999/xlink" ffdec:objectType="shape" height="25.6px" width="69.4px" xmlns="http://www.w3.org/2000/svg">
  <g transform="matrix(1.0, 0.0, 0.0, 1.0, -15.15, -17.35)">
    <path d="M82.1 29.9 Q81.9 29.6 81.55 29.6 81.2 29.55 80.95 29.8 L80.7 30.3 80.9 30.85 81.45 31.1 82.05 30.95 82.3 30.4 82.1 29.9 M82.6 31.65 L82.15 31.65 82.15 31.7 79.45 31.75 78.95 31.85 75.4 24.7 79.9 24.6 80.15 24.7 80.2 24.7 83.55 31.6 82.6 31.65 M79.3 40.15 L78.65 41.4 Q76.35 42.55 73.65 41.05 L74.3 40.0 74.55 39.6 76.85 40.05 77.0 40.6 Q77.25 40.8 77.5 40.8 L78.0 40.65 78.2 40.1 78.95 40.1 79.3 40.15 M68.8 40.6 Q66.5 41.75 63.85 40.3 L63.9 40.2 64.75 38.85 65.45 39.1 Q64.9 39.4 64.7 40.1 L67.75 39.35 69.6 39.3 68.8 40.6 M58.9 39.8 Q56.65 40.95 53.9 39.5 L54.7 38.2 56.3 38.75 56.4 39.65 Q56.85 40.0 57.4 40.0 57.9 40.05 58.2 39.75 L58.4 39.4 58.9 39.8 M49.05 39.0 Q46.75 40.15 44.1 38.7 L44.4 38.1 Q44.4 38.75 45.6 39.15 L49.05 39.0 M39.1 38.25 Q36.85 39.4 34.2 37.85 L35.5 37.05 38.3 36.7 39.9 37.0 39.55 37.55 39.15 37.9 39.4 37.55 Q38.7 37.5 38.3 37.85 L39.1 38.25 M27.45 37.9 L25.0 37.4 25.4 37.15 25.45 37.2 Q25.75 37.55 27.05 37.8 L27.45 37.9 M18.9 21.05 L19.2 20.4 21.25 20.7 24.7 26.5 24.8 26.6 24.75 26.6 23.25 25.95 22.8 28.05 19.75 33.75 19.6 27.95 19.25 23.25 18.9 21.1 18.9 21.05 M36.55 19.2 L37.25 19.1 37.7 19.15 37.25 19.15 37.25 19.1 36.6 19.2 36.55 19.2 M65.8 24.35 L66.45 24.35 70.55 24.4 70.75 24.8 73.65 30.8 Q72.8 30.35 71.7 30.4 L71.6 30.4 68.85 30.6 65.8 24.35 M41.2 22.55 L43.9 28.15 43.3 28.05 42.45 27.95 Q41.4 27.95 40.15 28.45 L39.2 28.4 35.85 21.5 41.2 22.55 M25.4 35.35 L25.95 35.45 26.25 35.5 26.85 35.65 27.15 35.7 28.2 36.0 27.05 35.95 25.55 36.4 25.45 36.5 25.05 35.9 25.4 35.35 M46.0 22.65 L45.7 22.05 50.35 22.9 50.55 23.45 51.25 23.7 53.6 29.05 53.6 29.1 50.55 29.1 50.5 29.1 49.9 29.4 49.8 29.4 49.35 29.5 46.0 22.65 M59.15 30.25 L55.6 22.95 56.65 22.8 56.7 23.05 Q57.45 23.45 58.0 22.8 L59.05 23.2 59.2 23.95 59.75 24.35 60.35 24.1 60.6 23.5 60.6 23.4 60.7 23.55 63.7 29.95 62.05 29.6 61.85 29.6 Q59.7 29.7 59.3 30.25 L59.15 30.25 M44.75 37.5 L48.2 37.7 44.75 37.5 M78.5 26.25 L80.5 28.6 79.35 24.75 78.5 26.25 M29.5 27.95 L26.0 20.75 31.3 21.85 31.35 21.9 34.05 27.5 32.5 27.2 29.7 27.9 29.5 27.95" fill="#cd9429" fill-rule="evenodd" stroke="none"/>
    <path d="M82.1 29.9 L82.3 30.4 82.05 30.95 81.45 31.1 80.9 30.85 80.7 30.3 80.95 29.8 Q81.2 29.55 81.55 29.6 81.9 29.6 82.1 29.9 M82.15 31.7 L82.15 31.65 82.6 31.65 82.9 32.2 82.55 32.75 82.2 32.75 Q81.95 32.45 82.15 31.7 M81.7 35.2 L81.05 36.6 79.15 39.1 78.5 38.35 81.75 33.15 81.7 35.2 M50.35 38.95 L50.2 38.95 49.6 39.0 49.1 39.0 49.1 38.95 49.05 39.0 45.6 39.15 Q44.4 38.75 44.4 38.1 L44.75 37.5 48.2 37.7 49.85 37.65 49.9 37.65 50.25 37.95 50.8 38.65 50.35 38.95 M39.2 38.2 L39.1 38.25 38.3 37.85 Q38.7 37.5 39.4 37.55 L39.15 37.9 39.55 37.55 39.45 38.0 39.2 38.2 M29.4 37.45 L29.3 37.45 29.35 37.35 27.45 37.9 27.05 37.8 Q25.75 37.55 25.45 37.2 L25.4 37.15 25.0 37.4 24.9 37.35 24.55 37.2 24.35 37.1 23.85 36.9 23.5 36.2 23.85 35.8 25.05 35.9 25.45 36.5 25.55 36.4 27.05 35.95 28.2 36.0 28.45 36.0 29.1 35.85 29.4 36.3 29.5 37.1 29.4 37.45 M19.2 20.4 L19.85 19.0 21.7 18.8 22.1 18.9 22.55 20.4 22.0 20.5 21.25 20.7 19.2 20.4 M67.1 24.1 L66.0 23.75 Q65.55 23.4 65.6 23.0 65.6 22.6 66.1 22.4 L67.2 22.2 Q67.85 22.2 68.3 22.55 68.7 22.85 68.7 23.25 L68.2 23.9 67.1 24.1 M71.1 24.7 Q70.65 24.3 70.6 23.8 L70.95 23.35 71.45 23.0 71.95 23.65 71.9 24.55 71.1 24.7 M71.7 30.4 L72.8 31.35 68.9 32.1 Q66.35 31.9 65.8 31.0 L65.9 30.55 68.85 30.6 71.6 30.4 71.7 30.4 M65.45 39.1 L66.6 38.65 Q67.9 38.0 68.8 36.6 L69.55 36.95 67.75 39.35 64.7 40.1 Q64.9 39.4 65.45 39.1 M43.9 28.15 L44.25 29.75 42.0 29.45 Q42.05 28.1 42.45 27.95 L43.3 28.05 43.9 28.15 M40.15 28.45 L39.9 29.15 Q39.7 29.45 39.4 29.4 L39.05 28.8 39.2 28.4 40.15 28.45 M33.05 28.55 L29.7 28.3 29.7 27.9 32.5 27.2 32.85 27.55 33.2 28.3 33.05 28.55 M43.4 22.8 L43.55 22.05 43.9 21.8 44.2 22.1 44.3 22.85 43.4 22.8 M40.75 20.15 L41.0 22.15 38.5 20.2 39.95 19.95 40.0 19.95 40.75 20.15 M50.35 22.9 L50.5 22.15 50.8 21.55 Q51.05 21.25 51.7 21.3 L52.15 21.6 Q52.65 22.1 53.05 23.1 L51.25 23.7 50.55 23.45 50.35 22.9 M50.55 29.1 L54.55 29.9 54.35 30.3 49.65 30.45 49.55 29.8 49.8 29.4 49.9 29.4 50.5 29.1 50.55 29.1 M58.0 22.8 Q57.45 23.45 56.7 23.05 L56.65 22.8 56.85 22.0 Q57.1 21.65 57.4 21.6 L57.9 21.95 58.0 22.8 M59.05 23.2 Q59.4 22.35 60.1 22.4 L60.5 22.7 60.6 23.4 60.6 23.5 60.35 24.1 59.75 24.35 59.2 23.95 59.05 23.2 M59.55 30.3 L59.3 30.25 Q59.7 29.7 61.85 29.6 L62.05 29.6 62.25 30.3 59.55 30.3 M51.5 34.1 L50.45 34.05 50.55 33.05 51.6 33.1 51.5 34.1 M47.6 36.4 Q47.6 36.05 47.9 35.8 L48.5 35.6 49.1 35.9 49.3 36.5 49.0 37.1 48.4 37.3 Q48.05 37.3 47.8 37.0 47.55 36.75 47.6 36.4 M56.3 38.75 L58.75 36.8 59.7 37.4 58.4 39.4 58.2 39.75 Q57.9 40.05 57.4 40.0 56.85 40.0 56.4 39.65 L56.3 38.75 M78.5 26.25 L79.35 24.75 80.5 28.6 78.5 26.25 M76.85 40.05 L77.55 39.4 78.2 40.1 78.0 40.65 77.5 40.8 Q77.25 40.8 77.0 40.6 L76.85 40.05 M24.8 26.6 L24.9 26.85 24.95 27.1 25.0 27.25 25.0 27.3 24.45 28.45 24.45 28.5 22.05 30.55 22.8 28.05 23.25 25.95 24.75 26.6 24.8 26.6 M29.45 20.3 L28.35 20.35 27.25 20.15 Q26.8 19.9 26.85 19.65 26.85 19.4 27.3 19.3 L28.45 19.15 29.5 19.45 29.95 19.9 29.45 20.3 M35.25 20.2 L35.65 19.4 36.6 19.2 37.25 19.1 37.25 19.15 36.8 20.05 Q36.2 20.9 35.6 20.85 L35.25 20.2 M39.45 33.85 L38.65 35.55 37.95 35.3 38.5 33.45 39.45 33.85" fill="#c26911" fill-rule="evenodd" stroke="none"/>
    <path d="M82.6 31.65 L83.55 31.6 81.7 35.2 81.75 33.15 78.5 38.35 79.15 39.1 81.05 36.6 79.3 40.15 78.95 40.1 78.2 40.1 77.55 39.4 76.85 40.05 74.55 39.6 79.45 31.75 82.15 31.7 Q81.95 32.45 82.2 32.75 L82.55 32.75 82.9 32.2 82.6 31.65 M75.4 24.7 L78.95 31.85 74.7 31.45 69.75 39.1 74.3 40.0 73.65 41.05 Q71.9 40.2 68.95 40.65 L68.75 40.65 68.8 40.6 69.6 39.3 67.75 39.35 69.55 36.95 68.8 36.6 Q67.9 38.0 66.6 38.65 L65.45 39.1 64.75 38.85 68.9 32.1 72.8 31.35 71.7 30.4 Q72.8 30.35 73.65 30.8 L70.75 24.8 71.1 24.7 71.9 24.55 75.05 23.9 75.4 24.7 M63.6 40.15 L63.55 40.15 63.4 40.1 63.25 40.1 61.15 39.75 60.05 39.75 58.9 39.9 58.9 39.8 58.4 39.4 59.7 37.4 58.75 36.8 56.3 38.75 54.7 38.2 53.9 39.5 Q52.45 38.8 50.35 38.95 L50.8 38.65 50.25 37.95 49.9 37.65 53.8 37.2 Q54.95 36.8 55.95 36.15 L56.5 35.75 Q59.35 33.6 59.55 30.3 L62.25 30.3 62.05 29.6 63.7 29.95 60.7 23.55 65.15 23.0 65.8 24.35 68.85 30.6 65.9 30.55 65.8 31.0 64.7 30.55 60.25 38.0 64.75 38.85 63.9 40.2 63.6 40.15 M49.6 39.0 L49.0 39.05 49.05 39.0 49.1 38.95 49.1 39.0 49.6 39.0 M44.1 38.7 L43.95 38.6 43.55 38.5 40.8 38.1 39.45 38.0 39.55 37.55 39.9 37.0 38.3 36.7 35.5 37.05 34.2 37.85 Q32.4 37.0 29.4 37.45 L29.5 37.1 29.4 36.3 29.1 35.85 28.45 36.0 28.2 36.0 27.15 35.7 26.85 35.65 26.25 35.5 25.95 35.45 25.4 35.35 29.7 28.3 33.05 28.55 30.3 35.8 35.35 35.9 39.4 29.4 Q39.7 29.45 39.9 29.15 L40.15 28.45 Q41.4 27.95 42.45 27.95 42.05 28.1 42.0 29.45 L44.25 29.75 43.9 28.15 41.2 22.55 41.15 22.45 43.3 22.8 43.4 22.8 44.3 22.85 46.0 22.65 49.35 29.5 45.1 29.1 40.35 36.25 44.9 37.35 49.55 29.8 49.65 30.45 54.35 30.3 49.85 37.65 48.2 37.7 44.75 37.5 44.4 38.1 44.1 38.7 M23.85 36.9 L19.4 36.7 Q20.05 35.6 19.8 34.1 L19.75 33.75 22.8 28.05 22.05 30.55 24.45 28.5 24.5 28.5 20.4 35.3 23.85 35.8 23.5 36.2 23.85 36.9 M51.25 23.7 L53.05 23.1 55.45 22.65 55.6 22.95 59.15 30.25 54.55 29.9 50.55 29.1 53.6 29.1 53.6 29.05 51.25 23.7 M57.25 27.45 Q57.3 27.05 57.0 26.8 56.75 26.5 56.35 26.45 L56.25 26.45 Q55.9 26.5 55.65 26.7 L55.35 27.25 55.35 27.35 55.35 27.4 Q55.3 27.75 55.55 28.0 L55.55 28.05 Q55.8 28.35 56.2 28.35 L56.25 28.35 56.45 28.35 56.9 28.15 57.05 28.0 57.25 27.45 M54.8 25.6 Q54.85 25.15 54.55 24.85 54.3 24.45 53.85 24.45 53.4 24.4 53.05 24.75 L52.95 24.85 52.75 25.45 52.95 26.3 53.7 26.65 53.8 26.65 54.45 26.4 54.8 25.6 M51.5 34.1 L51.6 33.1 50.55 33.05 50.45 34.05 51.5 34.1 M45.6 27.25 L45.8 26.7 Q45.85 26.3 45.55 26.0 L44.9 25.65 44.8 25.65 Q44.45 25.7 44.2 25.95 L43.9 26.45 43.9 26.55 43.9 26.6 Q43.85 26.95 44.1 27.25 L44.1 27.3 44.75 27.55 44.8 27.55 45.0 27.6 45.45 27.35 45.6 27.25 M47.6 36.4 Q47.55 36.75 47.8 37.0 48.05 37.3 48.4 37.3 L49.0 37.1 49.3 36.5 49.1 35.9 48.5 35.6 47.9 35.8 Q47.6 36.05 47.6 36.4 M75.45 27.35 L75.25 27.2 75.2 27.15 74.75 27.0 Q74.35 27.0 74.1 27.25 L73.8 27.6 73.75 27.95 Q73.7 28.35 74.0 28.65 L74.3 28.95 74.65 29.0 Q75.05 29.05 75.35 28.75 L75.7 28.1 75.45 27.35 M66.05 25.7 L65.95 25.15 65.75 24.9 Q65.5 24.5 65.05 24.5 64.6 24.45 64.2 24.8 L64.0 25.05 63.85 25.55 64.1 26.45 64.9 26.8 64.95 26.8 65.5 26.65 65.65 26.55 Q66.05 26.2 66.05 25.7 M65.05 28.6 L64.05 29.1 64.0 29.1 65.0 29.7 65.05 28.6 M24.2 21.45 Q23.9 21.15 23.55 21.15 L23.2 21.2 22.85 21.4 Q22.55 21.65 22.5 22.05 L22.5 22.3 22.75 22.75 Q23.05 23.0 23.45 23.05 L24.15 22.85 Q24.5 22.6 24.5 22.15 L24.5 22.05 24.25 21.5 24.2 21.45 M21.25 20.7 L22.0 20.5 25.7 20.05 26.0 20.75 29.5 27.95 25.15 28.0 25.0 27.3 25.0 27.25 24.95 27.1 24.9 26.85 24.8 26.6 24.7 26.5 21.25 20.7 M26.3 23.75 Q25.8 23.7 25.4 24.05 L25.05 24.4 25.0 24.85 Q24.95 25.35 25.25 25.75 L26.15 26.15 26.2 26.15 Q26.7 26.15 27.0 25.85 27.45 25.55 27.5 25.05 27.5 24.55 27.15 24.15 26.8 23.8 26.3 23.75 M35.3 24.45 L35.3 24.4 Q35.35 24.05 35.05 23.8 L34.45 23.5 33.8 23.7 33.8 23.75 33.5 24.3 33.7 24.9 34.15 25.2 34.35 25.2 34.95 25.0 35.25 24.65 35.3 24.45 M35.65 20.95 L35.85 21.5 39.2 28.4 39.05 28.8 33.2 28.3 32.85 27.55 32.5 27.2 34.05 27.5 31.35 21.9 35.65 20.95 M36.65 25.95 L36.6 25.95 36.2 26.05 35.95 26.2 35.65 26.75 35.65 26.85 Q35.6 27.15 35.85 27.45 36.15 27.75 36.5 27.75 L37.0 27.65 37.1 27.55 37.4 27.15 37.45 26.9 37.2 26.3 Q36.95 26.0 36.65 25.95 M39.45 33.85 L38.5 33.45 37.95 35.3 38.65 35.55 39.45 33.85" fill="#e2b031" fill-rule="evenodd" stroke="none"/>
    <path d="M80.2 24.7 L80.15 24.7 79.9 24.6 75.4 24.7 75.05 23.9 74.45 22.55 Q77.25 21.55 79.4 23.05 L80.2 24.7 M19.4 36.7 L16.15 27.0 18.9 21.05 18.9 21.1 19.25 23.25 19.6 27.95 19.75 33.75 19.8 34.1 Q20.05 35.6 19.4 36.7 M25.1 18.75 Q27.95 17.75 30.1 19.25 L31.3 21.85 26.0 20.75 25.7 20.05 25.1 18.75 M35.0 19.55 L35.2 19.55 35.5 19.4 36.4 19.15 36.55 19.2 36.6 19.2 35.65 19.4 35.25 20.2 35.0 19.55 M37.7 19.15 L37.9 19.15 38.0 19.2 38.5 19.3 39.9 19.9 40.0 19.95 39.95 19.95 38.5 20.2 41.0 22.15 41.15 22.45 41.2 22.55 35.85 21.5 35.65 20.95 35.6 20.85 Q36.2 20.9 36.8 20.05 L37.25 19.15 37.7 19.15 M44.9 20.3 Q47.65 19.2 49.85 20.8 L50.5 22.15 50.35 22.9 45.7 22.05 44.9 20.3 M54.7 21.05 Q57.5 20.0 59.7 21.5 L60.1 22.4 Q59.4 22.35 59.05 23.2 L58.0 22.8 57.9 21.95 57.4 21.6 Q57.1 21.65 56.85 22.0 L56.65 22.8 55.6 22.95 55.45 22.65 54.7 21.05 M64.6 21.85 L64.75 21.8 65.1 21.75 65.25 21.65 65.35 21.65 67.1 21.4 Q68.4 21.45 69.55 22.3 L70.55 24.4 66.45 24.35 65.8 24.35 65.15 23.0 64.6 21.85 M67.1 24.1 L68.2 23.9 68.7 23.25 Q68.7 22.85 68.3 22.55 67.85 22.2 67.2 22.2 L66.1 22.4 Q65.6 22.6 65.6 23.0 65.55 23.4 66.0 23.75 L67.1 24.1 M29.45 20.3 L29.95 19.9 29.5 19.45 28.45 19.15 27.3 19.3 Q26.85 19.4 26.85 19.65 26.8 19.9 27.25 20.15 L28.35 20.35 29.45 20.3" fill="#b67f17" fill-rule="evenodd" stroke="none"/>
    <path d="M19.85 19.0 L20.15 18.4 21.7 18.8 19.85 19.0 M22.1 18.9 L22.2 18.9 25.1 18.75 25.7 20.05 22.0 20.5 22.55 20.4 22.1 18.9 M30.1 19.25 L30.05 19.15 30.45 19.25 35.0 19.55 35.25 20.2 35.6 20.85 35.65 20.95 31.35 21.9 31.3 21.85 30.1 19.25 M40.0 19.95 L39.95 19.9 40.75 20.15 44.9 20.3 45.7 22.05 46.0 22.65 44.3 22.85 44.2 22.1 43.9 21.8 43.55 22.05 43.4 22.8 43.3 22.8 41.15 22.45 41.0 22.15 40.75 20.15 40.0 19.95 M49.85 20.8 L49.85 20.7 50.2 20.8 54.7 21.05 55.45 22.65 53.05 23.1 Q52.65 22.1 52.15 21.6 L51.7 21.3 Q51.05 21.25 50.8 21.55 L50.5 22.15 49.85 20.8 M59.7 21.5 L59.65 21.4 60.0 21.55 64.6 21.85 65.15 23.0 60.7 23.55 60.6 23.4 60.5 22.7 60.1 22.4 59.7 21.5 M69.55 22.3 L69.5 22.25 69.7 22.3 72.25 22.75 74.45 22.55 75.05 23.9 71.9 24.55 71.95 23.65 71.45 23.0 70.95 23.35 70.6 23.8 Q70.65 24.3 71.1 24.7 L70.75 24.8 70.55 24.4 69.55 22.3" fill="#c69519" fill-rule="evenodd" stroke="none"/>
    <path d="M78.95 31.85 L79.45 31.75 74.55 39.6 74.3 40.0 69.75 39.1 74.7 31.45 78.95 31.85 M63.85 40.3 L63.6 40.15 63.9 40.2 63.85 40.3 M40.8 38.1 L39.5 38.2 39.15 38.25 39.2 38.2 39.45 38.0 40.8 38.1 M68.9 32.1 L64.75 38.85 60.25 38.0 64.7 30.55 65.8 31.0 Q66.35 31.9 68.9 32.1 M39.4 29.4 L35.35 35.9 30.3 35.8 33.05 28.55 33.2 28.3 39.05 28.8 39.4 29.4 M29.7 28.3 L25.4 35.35 25.05 35.9 23.85 35.8 20.4 35.3 24.5 28.5 Q24.5 28.25 24.65 28.1 L24.7 28.1 25.15 28.0 29.5 27.95 29.7 27.9 29.7 28.3 M54.55 29.9 L59.15 30.25 59.3 30.25 59.55 30.3 Q59.35 33.6 56.5 35.75 L55.95 36.15 Q54.95 36.8 53.8 37.2 L49.9 37.65 49.85 37.65 54.35 30.3 54.55 29.9 M57.25 27.45 L57.05 28.0 56.9 28.15 56.45 28.35 56.25 28.35 56.2 28.35 Q55.8 28.35 55.55 28.05 L55.55 28.0 Q55.3 27.75 55.35 27.4 L55.35 27.35 55.35 27.25 55.65 26.7 Q55.9 26.5 56.25 26.45 L56.35 26.45 Q56.75 26.5 57.0 26.8 57.3 27.05 57.25 27.45 M54.8 25.6 L54.45 26.4 53.8 26.65 53.7 26.65 52.95 26.3 52.75 25.45 52.95 24.85 53.05 24.75 Q53.4 24.4 53.85 24.45 54.3 24.45 54.55 24.85 54.85 25.15 54.8 25.6 M53.9 33.35 L53.65 33.55 53.35 34.0 53.25 34.4 53.25 34.5 53.35 35.0 53.55 35.3 Q53.85 35.7 54.35 35.7 L54.4 35.7 55.25 35.4 Q55.65 35.05 55.65 34.55 55.7 34.05 55.35 33.65 55.05 33.25 54.55 33.2 L54.25 33.25 53.9 33.35 M45.6 27.25 L45.45 27.35 45.0 27.6 44.8 27.55 44.75 27.55 44.1 27.3 44.1 27.25 Q43.85 26.95 43.9 26.6 L43.9 26.55 43.9 26.45 44.2 25.95 Q44.45 25.7 44.8 25.65 L44.9 25.65 45.55 26.0 Q45.85 26.3 45.8 26.7 L45.6 27.25 M47.65 30.7 Q47.35 30.35 46.95 30.35 46.55 30.3 46.25 30.6 45.9 30.85 45.9 31.25 45.85 31.65 46.15 32.0 L46.45 32.25 46.8 32.35 47.3 32.25 Q47.45 32.2 47.55 32.1 L47.9 31.4 47.65 30.7 M49.55 29.8 L44.9 37.35 40.35 36.25 45.1 29.1 49.35 29.5 49.8 29.4 49.55 29.8 M43.3 33.55 L43.15 33.55 42.8 33.7 Q42.6 33.9 42.55 34.2 L42.75 34.7 43.2 34.95 43.75 34.8 43.95 34.3 43.8 33.8 Q43.6 33.55 43.3 33.55 M75.45 27.35 L75.7 28.1 75.35 28.75 Q75.05 29.05 74.65 29.0 L74.3 28.95 74.0 28.65 Q73.7 28.35 73.75 27.95 L73.8 27.6 74.1 27.25 Q74.35 27.0 74.75 27.0 L75.2 27.15 75.25 27.2 75.45 27.35 M75.6 33.2 L75.0 33.4 74.75 33.7 74.7 34.0 Q74.65 34.35 74.85 34.6 L74.9 34.6 75.05 34.75 75.15 34.85 75.5 34.9 75.85 34.85 76.1 34.7 76.3 34.3 76.4 34.1 76.2 33.5 Q75.95 33.2 75.6 33.2 M66.05 25.7 Q66.05 26.2 65.65 26.55 L65.5 26.65 64.95 26.8 64.9 26.8 64.1 26.45 63.85 25.55 64.0 25.05 64.2 24.8 Q64.6 24.45 65.05 24.5 65.5 24.5 65.75 24.9 L65.95 25.15 66.05 25.7 M65.05 28.6 L65.0 29.7 64.0 29.1 64.05 29.1 65.05 28.6 M64.0 33.3 Q63.7 33.55 63.65 33.9 L63.65 34.05 Q63.6 34.5 63.9 34.85 64.15 35.2 64.6 35.2 L65.4 34.95 65.75 34.2 65.5 33.4 64.95 33.05 64.75 33.0 Q64.3 33.0 64.0 33.3 M73.65 38.05 L73.65 37.95 73.45 37.35 Q73.2 37.05 72.85 37.05 72.5 37.0 72.2 37.3 L72.1 37.4 71.9 37.9 72.1 38.6 72.1 38.65 72.25 38.75 72.75 38.95 72.85 38.95 73.35 38.7 73.65 38.05 M24.2 21.45 L24.25 21.5 24.5 22.05 24.5 22.15 Q24.5 22.6 24.15 22.85 L23.45 23.05 Q23.05 23.0 22.75 22.75 L22.5 22.3 22.5 22.05 Q22.55 21.65 22.85 21.4 L23.2 21.2 23.55 21.15 Q23.9 21.15 24.2 21.45 M26.3 23.75 Q26.8 23.8 27.15 24.15 27.5 24.55 27.5 25.05 27.45 25.55 27.0 25.85 26.7 26.15 26.2 26.15 L26.15 26.15 25.25 25.75 Q24.95 25.35 25.0 24.85 L25.05 24.4 25.4 24.05 Q25.8 23.7 26.3 23.75 M35.3 24.45 L35.25 24.65 34.95 25.0 34.35 25.2 34.15 25.2 33.7 24.9 33.5 24.3 33.8 23.75 33.8 23.7 34.45 23.5 35.05 23.8 Q35.35 24.05 35.3 24.4 L35.3 24.45 M36.65 25.95 Q36.95 26.0 37.2 26.3 L37.45 26.9 37.4 27.15 37.1 27.55 37.0 27.65 36.5 27.75 Q36.15 27.75 35.85 27.45 35.6 27.15 35.65 26.85 L35.65 26.75 35.95 26.2 36.2 26.05 36.6 25.95 36.65 25.95 M34.65 33.55 Q34.6 33.95 34.85 34.3 L35.05 34.5 35.45 34.55 36.1 34.35 36.3 34.15 36.45 33.7 36.35 33.3 36.15 33.0 35.6 32.65 Q35.25 32.65 34.9 32.95 L34.75 33.05 34.65 33.55 M35.35 30.95 L34.3 31.3 35.3 31.8 35.35 30.95 M25.85 30.85 L25.4 30.65 25.05 30.7 Q24.7 30.75 24.45 30.95 24.1 31.3 24.05 31.8 24.0 32.3 24.35 32.65 L24.75 32.95 25.2 33.05 26.1 32.8 26.5 32.3 26.55 31.95 Q26.6 31.45 26.2 31.1 L25.85 30.85" fill="#e4cf56" fill-rule="evenodd" stroke="none"/>
    <path d="M53.9 33.35 L54.25 33.25 54.55 33.2 Q55.05 33.25 55.35 33.65 55.7 34.05 55.65 34.55 55.65 35.05 55.25 35.4 L54.4 35.7 54.35 35.7 Q53.85 35.7 53.55 35.3 L53.35 35.0 53.25 34.5 53.25 34.4 53.35 34.0 53.65 33.55 53.9 33.35 M47.65 30.7 L47.9 31.4 47.55 32.1 Q47.45 32.2 47.3 32.25 L46.8 32.35 46.45 32.25 46.15 32.0 Q45.85 31.65 45.9 31.25 45.9 30.85 46.25 30.6 46.55 30.3 46.95 30.35 47.35 30.35 47.65 30.7 M43.3 33.55 Q43.6 33.55 43.8 33.8 L43.95 34.3 43.75 34.8 43.2 34.95 42.75 34.7 42.55 34.2 Q42.6 33.9 42.8 33.7 L43.15 33.55 43.3 33.55 M75.6 33.2 Q75.95 33.2 76.2 33.5 L76.4 34.1 76.3 34.3 76.1 34.7 75.85 34.85 75.5 34.9 75.15 34.85 75.05 34.75 74.9 34.6 74.85 34.6 Q74.65 34.35 74.7 34.0 L74.75 33.7 75.0 33.4 75.6 33.2 M64.0 33.3 Q64.3 33.0 64.75 33.0 L64.95 33.05 65.5 33.4 65.75 34.2 65.4 34.95 64.6 35.2 Q64.15 35.2 63.9 34.85 63.6 34.5 63.65 34.05 L63.65 33.9 Q63.7 33.55 64.0 33.3 M73.65 38.05 L73.35 38.7 72.85 38.95 72.75 38.95 72.25 38.75 72.1 38.65 72.1 38.6 71.9 37.9 72.1 37.4 72.2 37.3 Q72.5 37.0 72.85 37.05 73.2 37.05 73.45 37.35 L73.65 37.95 73.65 38.05 M35.35 30.95 L35.3 31.8 34.3 31.3 35.35 30.95 M34.65 33.55 L34.75 33.05 34.9 32.95 Q35.25 32.65 35.6 32.65 L36.15 33.0 36.35 33.3 36.45 33.7 36.3 34.15 36.1 34.35 35.45 34.55 35.05 34.5 34.85 34.3 Q34.6 33.95 34.65 33.55 M25.85 30.85 L26.2 31.1 Q26.6 31.45 26.55 31.95 L26.5 32.3 26.1 32.8 25.2 33.05 24.75 32.95 24.35 32.65 Q24.0 32.3 24.05 31.8 24.1 31.3 24.45 30.95 24.7 30.75 25.05 30.7 L25.4 30.65 25.85 30.85" fill="#fff3b4" fill-rule="evenodd" stroke="none"/>
    <path d="M25.0 27.3 L25.15 28.0 24.7 28.1 24.65 28.1 Q24.5 28.25 24.5 28.5 L24.45 28.5 24.45 28.45 25.0 27.3" fill="#dfac30" fill-rule="evenodd" stroke="none"/>
    <path d="M84.45 31.15 L84.55 31.6 84.4 32.0 79.5 41.85 79.1 42.3 Q76.4 43.7 73.2 42.0 L73.2 41.9 68.95 41.7 Q66.35 42.8 63.35 41.15 L61.1 40.75 61.05 40.75 59.1 40.9 58.9 40.9 Q56.35 41.95 53.45 40.45 51.9 39.65 49.15 40.1 L49.1 40.1 Q46.65 41.15 43.75 39.65 L43.4 39.5 43.35 39.5 40.8 39.1 40.7 39.1 39.35 39.2 Q36.75 40.45 33.7 38.75 L33.65 38.7 29.4 38.5 29.35 38.45 Q26.85 39.55 23.9 38.0 L23.85 37.95 19.55 37.7 18.9 37.55 18.4 37.0 15.15 27.3 Q15.1 26.95 15.2 26.6 L19.2 18.0 19.7 17.5 20.4 17.45 Q23.15 18.3 24.75 17.8 27.85 16.7 30.25 18.15 L30.35 18.2 Q33.0 19.1 34.7 18.6 L35.0 18.55 35.15 18.5 36.25 18.2 36.5 18.15 36.55 18.15 38.0 18.15 38.1 18.2 38.3 18.25 38.8 18.35 38.9 18.4 40.1 18.9 40.25 19.0 Q42.85 19.85 44.55 19.35 47.6 18.1 50.05 19.7 L50.15 19.75 54.45 20.1 Q57.45 19.0 59.8 20.4 L60.0 20.5 Q62.55 21.35 64.25 20.9 L64.4 20.9 Q65.85 20.3 67.15 20.4 L67.2 20.4 Q68.65 20.45 69.9 21.3 L72.3 21.75 74.1 21.65 Q77.4 20.4 79.95 22.25 L80.3 22.6 84.45 31.15 M83.55 31.6 L80.2 24.7 79.4 23.05 Q77.25 21.55 74.45 22.55 L72.25 22.75 69.7 22.3 69.5 22.25 69.55 22.3 Q68.4 21.45 67.1 21.4 L65.35 21.65 65.25 21.65 65.1 21.75 64.75 21.8 64.6 21.85 60.0 21.55 59.65 21.4 59.7 21.5 Q57.5 20.0 54.7 21.05 L50.2 20.8 49.85 20.7 49.85 20.8 Q47.65 19.2 44.9 20.3 L40.75 20.15 39.95 19.9 40.0 19.95 39.9 19.9 38.5 19.3 38.0 19.2 37.9 19.15 37.7 19.15 37.25 19.1 36.55 19.2 36.4 19.15 35.5 19.4 35.2 19.55 35.0 19.55 30.45 19.25 30.05 19.15 30.1 19.25 Q27.95 17.75 25.1 18.75 L22.2 18.9 22.1 18.9 21.7 18.8 20.15 18.4 19.85 19.0 19.2 20.4 18.9 21.05 16.15 27.0 19.4 36.7 23.85 36.9 24.35 37.1 24.55 37.2 24.9 37.35 25.0 37.4 27.45 37.9 29.35 37.35 29.3 37.45 29.4 37.45 Q32.4 37.0 34.2 37.85 36.85 39.4 39.1 38.25 L39.2 38.2 39.15 38.25 39.5 38.2 40.8 38.1 43.55 38.5 43.95 38.6 44.1 38.7 Q46.75 40.15 49.05 39.0 L49.0 39.05 49.6 39.0 50.2 38.95 50.35 38.95 Q52.45 38.8 53.9 39.5 56.65 40.95 58.9 39.8 L58.9 39.9 60.05 39.75 61.15 39.75 63.25 40.1 63.4 40.1 63.55 40.15 63.6 40.15 63.85 40.3 Q66.5 41.75 68.8 40.6 L68.75 40.65 68.95 40.65 Q71.9 40.2 73.65 41.05 76.35 42.55 78.65 41.4 L79.3 40.15 81.05 36.6 81.7 35.2 83.55 31.6" fill="#664609" fill-rule="evenodd" stroke="none"/>
  </g>
</svg>
