<?xml version="1.0" encoding="UTF-8" standalone="no"?>
<svg xmlns:ffdec="https://www.free-decompiler.com/flash" xmlns:xlink="http://www.w3.org/1999/xlink" ffdec:objectType="shape" height="34.9px" width="38.8px" xmlns="http://www.w3.org/2000/svg">
  <g transform="matrix(1.0, 0.0, 0.0, 1.0, 17.5, 3.25)">
    <path d="M-6.5 6.6 L-6.75 6.55 -6.65 6.5 -6.5 6.4 -6.5 6.6 M-8.45 16.25 L-8.4 16.25 -8.45 16.25" fill="#4b3121" fill-rule="evenodd" stroke="none"/>
    <path d="M8.1 18.9 L8.15 19.0 7.95 19.0 8.1 18.9" fill="#724931" fill-rule="evenodd" stroke="none"/>
    <path d="M6.9 -1.85 Q11.35 1.35 11.35 2.3 L17.55 8.1 20.05 10.6 20.95 11.7 Q21.3 12.35 21.3 13.8 21.3 22.4 19.15 24.55 17.9 25.75 11.1 26.9 10.7 29.65 8.9 30.7 7.2 31.65 3.35 31.65 2.0 31.65 -1.15 29.8 L-2.95 29.7 Q-4.4 30.15 -6.4 29.65 -11.55 28.4 -13.2 26.05 L-13.9 23.8 -13.6 22.6 -13.3 22.15 -11.4 16.85 Q-13.75 16.4 -15.6 14.55 -17.5 12.6 -17.5 10.35 -17.5 9.45 -13.7 5.6 L-9.1 1.15 Q-8.5 0.6 -6.7 -0.1 -4.45 -1.0 -2.35 -2.05 L-2.45 -1.95 Q-3.0 -1.25 -3.0 -0.3 -4.05 0.45 -5.2 0.85 -6.5 1.25 -8.35 2.5 -11.2 4.4 -13.35 6.55 -15.95 9.1 -15.95 10.6 -15.95 12.5 -12.85 14.35 -10.75 15.6 -8.45 16.25 L-8.4 16.25 -0.2 17.3 Q2.5 17.3 3.4 16.8 L4.8 15.45 Q5.6 14.05 5.6 12.8 5.6 11.45 3.85 9.95 0.7 7.2 -6.5 6.6 L-6.5 6.4 -3.2 6.0 Q0.05 6.0 1.75 7.0 3.4 7.95 4.9 7.95 L6.55 7.55 8.2 7.15 Q9.25 7.15 11.25 8.2 L14.25 10.25 14.25 10.2 15.4 11.3 Q16.45 12.05 17.3 12.1 L18.05 12.25 18.2 12.35 17.2 12.9 Q16.55 13.15 16.55 13.7 16.55 14.4 16.9 16.4 L17.4 18.45 17.55 18.45 17.25 18.8 17.1 18.85 Q15.05 13.25 14.15 12.1 12.95 10.7 8.2 8.65 7.35 9.15 6.85 9.75 L6.4 10.5 Q6.4 11.4 6.95 13.2 7.55 15.3 8.3 16.15 9.2 17.45 10.3 22.0 11.15 25.7 12.1 25.7 L14.05 25.2 16.7 24.35 16.75 24.35 Q18.55 23.3 19.35 19.55 19.85 17.15 19.85 14.4 L19.55 12.8 18.9 11.55 12.15 5.45 Q8.35 1.8 6.9 -1.85 M-6.35 18.3 L-9.95 17.35 -10.0 17.4 -12.35 23.65 -12.4 23.8 Q-11.35 25.35 -10.0 26.35 L-10.0 26.4 Q-9.1 27.35 -5.75 28.2 L-2.2 27.75 -1.85 21.05 -2.0 19.8 -2.15 18.75 -6.35 18.3 M8.1 18.9 L6.7 17.55 5.65 16.75 Q5.0 16.75 4.1 17.4 3.0 18.2 0.9 18.65 -0.7 19.0 -0.85 22.2 L-0.7 27.8 Q-0.7 28.65 1.1 29.5 2.9 30.45 4.35 30.15 7.35 30.3 8.7 28.85 9.6 27.85 9.6 26.5 9.6 23.35 8.15 19.0 L8.1 18.9" fill="#654425" fill-rule="evenodd" stroke="none"/>
    <path d="M-2.35 -2.05 Q-1.85 -2.65 -1.1 -2.65 L2.8 -3.25 4.35 -2.85 6.9 -1.85 Q8.35 1.8 12.15 5.45 L18.9 11.55 Q19.35 12.55 18.9 15.25 L18.05 18.6 17.95 18.8 17.05 20.65 16.95 20.5 14.9 17.3 Q13.55 14.95 13.55 13.7 13.3 12.05 11.15 12.05 9.9 12.05 9.2 13.25 8.7 14.15 8.3 16.15 7.55 15.3 6.95 13.2 6.4 11.4 6.4 10.5 L6.85 9.75 Q7.35 9.15 8.2 8.65 12.95 10.7 14.15 12.1 15.05 13.25 17.1 18.85 L17.25 18.8 17.55 18.45 17.4 18.45 16.9 16.4 Q16.55 14.4 16.55 13.7 16.55 13.15 17.2 12.9 L18.2 12.35 18.05 12.25 17.3 12.1 Q16.45 12.05 15.4 11.3 L14.25 10.2 14.25 10.25 11.25 8.2 Q9.25 7.15 8.2 7.15 L6.55 7.55 4.9 7.95 Q3.4 7.95 1.75 7.0 0.05 6.0 -3.2 6.0 L-6.5 6.4 -6.65 6.5 -6.75 6.55 -6.5 6.6 Q0.7 7.2 3.85 9.95 5.6 11.45 5.6 12.8 5.6 14.05 4.8 15.45 1.45 10.8 -4.75 10.25 L-8.45 10.0 Q-9.9 9.75 -9.9 8.6 -9.9 7.65 -7.9 5.9 -5.75 4.1 -4.2 4.1 L-1.55 4.55 0.3 5.4 1.7 5.85 3.15 5.15 Q4.8 4.35 7.4 3.95 L9.5 4.3 Q8.75 2.7 7.6 1.8 5.5 0.0 1.1 0.65 1.85 -0.45 1.85 -1.5 L3.6 -1.6 2.5 -1.7 Q0.4 -1.65 -3.0 -0.3 -3.0 -1.25 -2.45 -1.95 L-2.35 -2.05 M-5.75 28.2 Q-9.1 27.35 -10.0 26.4 L-10.0 26.35 Q-11.35 25.35 -12.4 23.8 L-12.35 23.65 -10.0 17.4 -9.95 17.35 -6.35 18.3 -8.25 18.9 Q-9.85 19.9 -9.85 22.3 -9.85 23.0 -9.1 24.4 -7.95 26.5 -5.75 28.2 M4.35 30.15 Q2.9 30.45 1.1 29.5 -0.7 28.65 -0.7 27.8 L-0.85 22.2 Q-0.7 19.0 0.9 18.65 3.0 18.2 4.1 17.4 5.0 16.75 5.65 16.75 L6.7 17.55 8.1 18.9 7.95 19.0 Q4.45 18.8 2.65 21.0 1.35 22.5 1.35 24.05 1.35 24.4 2.25 26.45 3.3 28.9 4.35 30.15" fill="#e79d5a" fill-rule="evenodd" stroke="none"/>
    <path d="M-3.0 -0.3 Q0.4 -1.65 2.5 -1.7 L3.6 -1.6 1.85 -1.5 Q1.85 -0.45 1.1 0.65 5.5 0.0 7.6 1.8 8.75 2.7 9.5 4.3 L7.4 3.95 Q4.8 4.35 3.15 5.15 L1.7 5.85 0.3 5.4 -1.55 4.55 -4.2 4.1 Q-5.75 4.1 -7.9 5.9 -9.9 7.65 -9.9 8.6 -9.9 9.75 -8.45 10.0 L-4.75 10.25 Q1.45 10.8 4.8 15.45 L3.4 16.8 Q2.5 17.3 -0.2 17.3 L-8.4 16.25 -8.45 16.25 Q-10.75 15.6 -12.85 14.35 -15.95 12.5 -15.95 10.6 -15.95 9.1 -13.35 6.55 -11.2 4.4 -8.35 2.5 -6.5 1.25 -5.2 0.85 -4.05 0.45 -3.0 -0.3 M8.3 16.15 Q8.7 14.15 9.2 13.25 9.9 12.05 11.15 12.05 13.3 12.05 13.55 13.7 13.55 14.95 14.9 17.3 L16.95 20.5 17.05 20.65 17.95 18.8 18.05 18.6 18.9 15.25 Q19.35 12.55 18.9 11.55 L19.55 12.8 19.85 14.4 Q19.85 17.15 19.35 19.55 18.55 23.3 16.75 24.35 L16.7 24.35 14.05 25.2 12.1 25.7 Q11.15 25.7 10.3 22.0 9.2 17.45 8.3 16.15 M-6.35 18.3 L-2.15 18.75 -2.0 19.8 -1.85 21.05 -2.2 27.75 -5.75 28.2 Q-7.95 26.5 -9.1 24.4 -9.85 23.0 -9.85 22.3 -9.85 19.9 -8.25 18.9 L-6.35 18.3 M8.15 19.0 Q9.6 23.35 9.6 26.5 9.6 27.85 8.7 28.85 7.35 30.3 4.35 30.15 3.3 28.9 2.25 26.45 1.35 24.4 1.35 24.05 1.35 22.5 2.65 21.0 4.45 18.8 7.95 19.0 L8.15 19.0" fill="#f8b674" fill-rule="evenodd" stroke="none"/>
  </g>
</svg>
