<?xml version="1.0" encoding="UTF-8" standalone="no"?>
<svg xmlns:ffdec="https://www.free-decompiler.com/flash" xmlns:xlink="http://www.w3.org/1999/xlink" ffdec:objectType="shape" height="54.25px" width="21.7px" xmlns="http://www.w3.org/2000/svg">
  <g transform="matrix(1.0, 0.0, 0.0, 1.0, 7.9, 1.55)">
    <path d="M1.15 -1.5 Q1.65 5.25 4.05 23.85 6.7 44.15 8.4 52.7 L-1.5 51.7 Q-1.55 34.05 -3.2 17.75 -4.6 4.25 -5.95 0.15 L-2.35 -1.55 1.15 -1.5" fill="#ea72b0" fill-rule="evenodd" stroke="none"/>
    <path d="M12.4 51.7 Q10.95 38.7 8.0 20.4 6.0 7.7 4.4 -0.7 L4.55 -1.3 5.3 -1.55 Q6.3 -1.55 6.05 -1.3 L7.1 3.9 8.9 14.4 12.7 33.95 Q15.0 48.45 12.4 51.7 M-1.5 51.7 Q-3.4 48.65 -3.95 40.3 L-4.2 31.4 Q-4.35 25.1 -5.95 12.85 -7.4 1.7 -7.9 0.4 L-7.0 0.25 -6.1 -0.4 -5.95 0.15 Q-4.6 4.25 -3.2 17.75 -1.55 34.05 -1.5 51.7" fill="#52233e" fill-rule="evenodd" stroke="none"/>
    <path d="M1.15 -1.5 Q3.7 -1.25 4.4 -0.7 6.0 7.7 8.0 20.4 10.95 38.7 12.4 51.7 L8.4 52.7 Q6.7 44.15 4.05 23.85 1.65 5.25 1.15 -1.5" fill="#d14e86" fill-rule="evenodd" stroke="none"/>
  </g>
</svg>
