<?xml version="1.0" encoding="UTF-8" standalone="no"?>
<svg xmlns:ffdec="https://www.free-decompiler.com/flash" xmlns:xlink="http://www.w3.org/1999/xlink" ffdec:objectType="shape" height="505.35px" width="211.0px" xmlns="http://www.w3.org/2000/svg">
  <g transform="matrix(1.0, 0.0, 0.0, 1.0, 106.0, 320.95)">
    <path d="M1.6 -305.95 L1.6 -301.6 0.3 -301.6 -0.95 -301.55 -0.95 -305.95 1.6 -305.95 M-4.7 143.2 L-4.3 181.1 -5.0 180.3 -4.7 143.2 M0.25 183.35 L1.6 182.85 1.6 183.0 0.25 183.35 M1.6 -251.25 L1.6 178.45 -0.95 179.5 -0.95 -251.65 1.6 -251.25 M1.6 -294.45 L1.6 -262.35 -0.9 -263.35 -0.95 -263.35 -0.95 -294.2 1.6 -294.45" fill="#666666" fill-rule="evenodd" stroke="none"/>
    <path d="M4.5 -306.95 L4.85 -306.8 5.0 -306.45 5.0 181.5 4.85 181.85 Q2.15 184.65 -0.55 184.35 -3.25 184.1 -5.9 180.85 L-6.0 180.5 -5.0 -306.45 -4.85 -306.8 -4.5 -306.95 4.5 -306.95 M1.6 183.0 L3.15 182.05 3.4 181.9 4.0 181.3 4.0 -305.95 1.6 -305.95 -0.95 -305.95 -4.0 -305.95 -4.7 143.2 -5.0 180.3 -4.3 181.1 -3.8 181.6 Q-2.4 182.4 -1.05 183.25 L-0.95 183.25 -0.45 183.35 0.25 183.35 1.6 183.0" fill="#000000" fill-rule="evenodd" stroke="none"/>
    <path d="M1.6 -305.95 L4.0 -305.95 4.0 181.3 3.4 181.9 3.15 182.05 1.6 183.0 1.6 182.85 0.25 183.35 -0.45 183.35 -0.95 183.25 -1.05 183.25 Q-2.4 182.4 -3.8 181.6 L-4.3 181.1 -4.7 143.2 -4.0 -305.95 -0.95 -305.95 -0.95 -301.55 0.3 -301.6 1.6 -301.6 1.6 -305.95 M1.6 -294.45 L-0.95 -294.2 -0.95 -263.35 -0.9 -263.35 1.6 -262.35 1.6 -294.45 M1.6 -251.25 L-0.95 -251.65 -0.95 179.5 1.6 178.45 1.6 -251.25" fill="#525252" fill-rule="evenodd" stroke="none"/>
    <path d="M-96.8 -291.9 L-96.0 -291.95 Q-92.25 -291.95 -89.65 -289.35 -87.0 -286.7 -87.0 -282.95 -87.0 -279.2 -89.65 -276.6 -92.25 -273.95 -96.0 -273.95 -99.75 -273.95 -102.4 -276.6 -105.0 -279.2 -105.0 -282.95 -105.0 -286.55 -102.6 -289.1 -103.5 -287.7 -103.5 -285.95 -103.5 -283.65 -102.05 -281.95 -101.9 -283.25 -100.65 -285.7 -98.35 -290.3 -94.9 -289.35 -91.5 -288.45 -93.25 -290.2 -94.75 -291.7 -96.8 -291.9" fill="#999999" fill-rule="evenodd" stroke="none"/>
    <path d="M-102.6 -289.1 L-101.75 -290.2 Q-100.0 -291.95 -97.5 -291.95 L-96.8 -291.9 Q-94.75 -291.7 -93.25 -290.2 -91.5 -288.45 -94.9 -289.35 -98.35 -290.3 -100.65 -285.7 -101.9 -283.25 -102.05 -281.95 -103.5 -283.65 -103.5 -285.95 -103.5 -287.7 -102.6 -289.1" fill="#cccccc" fill-rule="evenodd" stroke="none"/>
    <path d="M-96.8 -291.9 L-97.5 -291.95 Q-100.0 -291.95 -101.75 -290.2 L-102.6 -289.1 Q-105.0 -286.55 -105.0 -282.95 -105.0 -279.2 -102.4 -276.6 -99.75 -273.95 -96.0 -273.95 -92.25 -273.95 -89.65 -276.6 -87.0 -279.2 -87.0 -282.95 -87.0 -286.7 -89.65 -289.35 -92.25 -291.95 -96.0 -291.95 L-96.8 -291.9 M-86.0 -282.95 Q-86.0 -278.8 -88.95 -275.9 -91.85 -272.95 -96.0 -272.95 -100.15 -272.95 -103.1 -275.9 -106.0 -278.8 -106.0 -282.95 -106.0 -287.1 -103.1 -290.05 -100.15 -292.95 -96.0 -292.95 -91.85 -292.95 -88.95 -290.05 -86.0 -287.1 -86.0 -282.95" fill="#333333" fill-rule="evenodd" stroke="none"/>
    <path d="M83.9 -258.25 L83.45 -257.9 Q81.65 -256.2 81.55 -252.6 L-89.5 -280.45 -89.0 -280.4 -89.2 -280.7 -90.25 -282.65 Q-90.25 -284.0 -88.55 -285.9 L-88.35 -286.1 -88.9 -286.2 83.9 -258.25 M92.55 -250.8 L85.15 -252.0 Q86.0 -255.75 87.85 -257.6 L91.85 -257.0 Q93.4 -253.3 92.55 -250.8" fill="#666666" fill-rule="evenodd" stroke="none"/>
    <path d="M83.9 -258.25 L-88.9 -286.2 -92.3 -286.75 Q-95.2 -284.5 -95.6 -282.25 L-95.65 -281.45 Q-95.55 -279.7 -93.8 -277.85 L90.45 -248.05 Q92.0 -249.2 92.55 -250.8 L93.65 -250.65 Q93.0 -248.5 90.85 -247.1 L90.5 -247.05 -94.1 -276.9 -94.4 -277.05 Q-96.65 -279.35 -96.65 -281.65 L-96.6 -282.4 Q-96.2 -285.05 -92.75 -287.7 L-92.55 -287.75 -92.35 -287.8 92.25 -257.95 92.45 -257.85 92.6 -257.65 Q94.45 -253.5 93.65 -250.65 L92.55 -250.8 Q93.4 -253.3 91.85 -257.0 L87.85 -257.6 87.9 -257.65 83.9 -258.3 83.9 -258.25 M-95.65 -281.45 L-96.65 -281.65 -95.65 -281.45" fill="#000000" fill-rule="evenodd" stroke="none"/>
    <path d="M-88.9 -286.2 L-88.35 -286.1 -88.55 -285.9 Q-90.25 -284.0 -90.25 -282.65 L-89.2 -280.7 -89.0 -280.4 -89.5 -280.45 81.55 -252.6 Q81.65 -256.2 83.45 -257.9 L83.9 -258.25 83.9 -258.3 87.9 -257.65 87.85 -257.6 Q86.0 -255.75 85.15 -252.0 L92.55 -250.8 Q92.0 -249.2 90.45 -248.05 L-93.8 -277.85 Q-95.55 -279.7 -95.65 -281.45 L-95.6 -282.25 Q-95.2 -284.5 -92.3 -286.75 L-88.9 -286.2" fill="#525252" fill-rule="evenodd" stroke="none"/>
    <path d="M-96.65 -281.65 L-95.65 -281.45 M92.55 -250.8 L93.65 -250.65" fill="none" stroke="#000000" stroke-linecap="round" stroke-linejoin="round" stroke-width="1.0"/>
    <path d="M9.0 -310.95 Q9.0 -307.2 6.35 -304.6 3.75 -301.95 0.0 -301.95 -3.75 -301.95 -6.4 -304.6 -9.0 -307.2 -9.0 -310.95 -9.0 -314.7 -6.4 -317.35 -3.75 -319.95 0.0 -319.95 3.75 -319.95 6.35 -317.35 9.0 -314.7 9.0 -310.95 M6.0 -312.7 Q6.0 -315.5 4.0 -317.5 2.05 -319.45 -0.75 -319.45 -3.55 -319.45 -5.55 -317.5 -7.5 -315.5 -7.5 -312.7 -7.5 -309.9 -5.55 -307.95 -3.55 -305.95 -0.75 -305.95 2.05 -305.95 4.0 -307.95 6.0 -309.9 6.0 -312.7 M88.5 -253.45 Q88.5 -250.95 90.25 -249.2 92.0 -247.45 94.5 -247.45 97.0 -247.45 98.75 -249.2 100.5 -250.95 100.5 -253.45 100.5 -255.95 98.75 -257.7 97.0 -259.45 94.5 -259.45 92.0 -259.45 90.25 -257.7 88.5 -255.95 88.5 -253.45 M88.6 -258.35 Q91.25 -260.95 95.0 -260.95 98.75 -260.95 101.35 -258.35 104.0 -255.7 104.0 -251.95 104.0 -248.2 101.35 -245.6 98.75 -242.95 95.0 -242.95 91.25 -242.95 88.6 -245.6 86.0 -248.2 86.0 -251.95 86.0 -255.7 88.6 -258.35" fill="#999999" fill-rule="evenodd" stroke="none"/>
    <path d="M6.0 -312.7 Q6.0 -309.9 4.0 -307.95 2.05 -305.95 -0.75 -305.95 -3.55 -305.95 -5.55 -307.95 -7.5 -309.9 -7.5 -312.7 -7.5 -315.5 -5.55 -317.5 -3.55 -319.45 -0.75 -319.45 2.05 -319.45 4.0 -317.5 6.0 -315.5 6.0 -312.7 M0.7 -313.25 Q1.5 -314.05 1.5 -315.2 1.5 -316.35 0.7 -317.15 -0.1 -317.95 -1.25 -317.95 -2.4 -317.95 -3.2 -317.15 -4.0 -316.35 -4.0 -315.2 -4.0 -314.05 -3.2 -313.25 -2.4 -312.45 -1.25 -312.45 -0.1 -312.45 0.7 -313.25 M88.5 -253.45 Q88.5 -255.95 90.25 -257.7 92.0 -259.45 94.5 -259.45 97.0 -259.45 98.75 -257.7 100.5 -255.95 100.5 -253.45 100.5 -250.95 98.75 -249.2 97.0 -247.45 94.5 -247.45 92.0 -247.45 90.25 -249.2 88.5 -250.95 88.5 -253.45 M95.9 -255.9 Q95.35 -256.45 94.5 -256.45 93.65 -256.45 93.05 -255.9 92.5 -255.3 92.5 -254.45 92.5 -253.6 93.05 -253.05 93.65 -252.45 94.5 -252.45 95.35 -252.45 95.9 -253.05 96.5 -253.6 96.5 -254.45 96.5 -255.3 95.9 -255.9" fill="#cccccc" fill-rule="evenodd" stroke="none"/>
    <path d="M0.7 -313.25 Q-0.1 -312.45 -1.25 -312.45 -2.4 -312.45 -3.2 -313.25 -4.0 -314.05 -4.0 -315.2 -4.0 -316.35 -3.2 -317.15 -2.4 -317.95 -1.25 -317.95 -0.1 -317.95 0.7 -317.15 1.5 -316.35 1.5 -315.2 1.5 -314.05 0.7 -313.25 M95.9 -255.9 Q96.5 -255.3 96.5 -254.45 96.5 -253.6 95.9 -253.05 95.35 -252.45 94.5 -252.45 93.65 -252.45 93.05 -253.05 92.5 -253.6 92.5 -254.45 92.5 -255.3 93.05 -255.9 93.65 -256.45 94.5 -256.45 95.35 -256.45 95.9 -255.9" fill="#ffffff" fill-rule="evenodd" stroke="none"/>
    <path d="M9.0 -310.95 Q9.0 -314.7 6.35 -317.35 3.75 -319.95 0.0 -319.95 -3.75 -319.95 -6.4 -317.35 -9.0 -314.7 -9.0 -310.95 -9.0 -307.2 -6.4 -304.6 -3.75 -301.95 0.0 -301.95 3.75 -301.95 6.35 -304.6 9.0 -307.2 9.0 -310.95 M7.05 -318.05 Q10.0 -315.1 10.0 -310.95 10.0 -306.8 7.05 -303.9 4.15 -300.95 0.0 -300.95 -4.15 -300.95 -7.1 -303.9 -10.0 -306.8 -10.0 -310.95 -10.0 -315.1 -7.1 -318.05 -4.15 -320.95 0.0 -320.95 4.15 -320.95 7.05 -318.05 M85.0 -251.95 Q85.0 -256.1 87.9 -259.05 90.85 -261.95 95.0 -261.95 99.15 -261.95 102.05 -259.05 105.0 -256.1 105.0 -251.95 105.0 -247.8 102.05 -244.9 99.15 -241.95 95.0 -241.95 90.85 -241.95 87.9 -244.9 85.0 -247.8 85.0 -251.95 M88.6 -258.35 Q86.0 -255.7 86.0 -251.95 86.0 -248.2 88.6 -245.6 91.25 -242.95 95.0 -242.95 98.75 -242.95 101.35 -245.6 104.0 -248.2 104.0 -251.95 104.0 -255.7 101.35 -258.35 98.75 -260.95 95.0 -260.95 91.25 -260.95 88.6 -258.35" fill="#333333" fill-rule="evenodd" stroke="none"/>
  </g>
</svg>
