<?xml version="1.0" encoding="UTF-8" standalone="no"?>
<svg xmlns:ffdec="https://www.free-decompiler.com/flash" xmlns:xlink="http://www.w3.org/1999/xlink" ffdec:objectType="shape" height="204.4px" width="20.7px" xmlns="http://www.w3.org/2000/svg">
  <g transform="matrix(1.0, 0.0, 0.0, 1.0, 10.0, 102.0)">
    <path d="M3.25 -82.35 L3.25 84.4 -2.55 84.4 -2.55 -82.35 3.25 -82.35" fill="#666666" fill-rule="evenodd" stroke="none"/>
    <path d="M3.25 -82.35 L3.25 -85.45 -2.55 -85.45 -2.55 -82.35 -2.55 84.4 -2.55 87.05 3.25 87.05 3.25 84.4 3.25 -82.35 M3.65 -86.25 L3.95 -86.15 4.1 -85.85 4.1 87.5 3.95 87.8 3.65 87.9 -2.95 87.9 -3.25 87.8 -3.4 87.5 -3.4 -85.85 -3.25 -86.15 -2.95 -86.25 3.65 -86.25" fill="#000000" fill-rule="evenodd" stroke="none"/>
    <path d="M-2.55 -82.35 L-2.55 -85.45 3.25 -85.45 3.25 -82.35 -2.55 -82.35 M3.25 84.4 L3.25 87.05 -2.55 87.05 -2.55 84.4 3.25 84.4" fill="#333333" fill-rule="evenodd" stroke="none"/>
    <path d="M-7.3 -99.05 Q2.05 -103.65 9.85 -98.1 L8.8 -94.8 -3.65 -94.8 -5.15 -97.05 Q-6.2 -98.35 -7.3 -99.05" fill="#cccccc" fill-rule="evenodd" stroke="none"/>
    <path d="M10.55 -98.6 L10.7 -98.4 10.7 -98.15 8.65 -91.55 8.5 -91.3 8.25 -91.25 4.9 -91.25 4.9 -85.0 4.8 -84.75 Q4.65 -84.6 4.5 -84.6 L-4.2 -84.6 Q-4.4 -84.6 -4.5 -84.75 L-4.65 -85.0 -4.65 -91.25 -7.95 -91.25 -8.2 -91.3 -8.3 -91.55 -10.0 -98.15 -10.0 -98.45 -9.8 -98.6 Q1.45 -105.35 10.55 -98.6 M-7.3 -99.05 L-9.1 -98.1 -7.6 -92.05 7.95 -92.05 8.8 -94.8 9.85 -98.1 Q2.05 -103.65 -7.3 -99.05 M4.1 -85.45 L4.1 -91.25 -3.8 -91.25 -3.8 -85.45 4.1 -85.45" fill="#333333" fill-rule="evenodd" stroke="none"/>
    <path d="M8.8 -94.8 L7.95 -92.05 -7.6 -92.05 -9.1 -98.1 -7.3 -99.05 Q-6.2 -98.35 -5.15 -97.05 L-3.65 -94.8 8.8 -94.8 M4.1 -85.45 L-3.8 -85.45 -3.8 -91.25 4.1 -91.25 4.1 -85.45" fill="#999999" fill-rule="evenodd" stroke="none"/>
    <path d="M8.8 95.25 L9.85 98.55 Q2.05 104.1 -7.3 99.45 L-5.15 97.5 -3.65 95.25 8.8 95.25" fill="#cccccc" fill-rule="evenodd" stroke="none"/>
    <path d="M4.9 85.45 L4.9 91.7 8.25 91.7 8.5 91.75 8.65 91.95 10.7 98.6 10.7 98.85 10.55 99.05 Q1.45 105.8 -9.8 99.05 L-10.0 98.9 -10.0 98.6 -8.3 91.95 -8.2 91.75 -7.95 91.7 -4.65 91.7 -4.65 85.45 -4.5 85.15 -4.2 85.05 4.5 85.05 4.8 85.15 4.9 85.45 M8.8 95.25 L7.95 92.5 -7.6 92.5 -9.1 98.5 -7.3 99.45 Q2.05 104.1 9.85 98.55 L8.8 95.25 M4.1 85.85 L-3.8 85.85 -3.8 91.7 4.1 91.7 4.1 85.85" fill="#333333" fill-rule="evenodd" stroke="none"/>
    <path d="M-7.3 99.45 L-9.1 98.5 -7.6 92.5 7.95 92.5 8.8 95.25 -3.65 95.25 -5.15 97.5 -7.3 99.45 M4.1 85.85 L4.1 91.7 -3.8 91.7 -3.8 85.85 4.1 85.85" fill="#999999" fill-rule="evenodd" stroke="none"/>
  </g>
</svg>
