<?xml version="1.0" encoding="UTF-8" standalone="no"?>
<svg xmlns:ffdec="https://www.free-decompiler.com/flash" xmlns:xlink="http://www.w3.org/1999/xlink" ffdec:objectType="shape" height="129.35px" width="182.6px" xmlns="http://www.w3.org/2000/svg">
  <g transform="matrix(1.0, 0.0, 0.0, 1.0, 88.95, 62.25)">
    <path d="M22.6 -31.7 L23.1 -31.0 23.15 -30.95 24.8 -25.45 32.8 -27.35 Q33.2 -27.55 33.8 -27.35 L33.85 -27.3 34.45 -26.8 34.55 -26.65 34.7 -25.85 34.7 -25.75 34.25 -20.45 42.65 -20.9 42.7 -20.9 43.6 -20.6 44.15 -19.75 44.2 -19.7 44.1 -18.75 44.1 -18.7 41.8 -13.8 49.55 -12.85 49.6 -12.85 50.5 -12.35 50.55 -12.3 50.85 -11.35 Q50.85 -10.75 50.45 -10.35 L46.55 -6.05 53.4 -3.7 53.45 -3.7 54.2 -3.0 Q54.5 -2.55 54.4 -1.95 L54.35 -1.85 53.7 -1.0 48.3 2.35 53.8 5.75 54.45 6.65 54.5 6.75 54.4 7.7 54.35 7.8 53.5 8.45 46.65 10.9 50.75 15.1 Q51.15 15.5 51.15 16.1 L50.9 17.0 50.8 17.15 49.9 17.6 49.85 17.6 42.0 18.65 44.35 23.55 44.45 24.5 44.4 24.65 43.85 25.35 42.95 25.65 42.9 25.65 34.65 25.25 35.1 30.65 35.1 30.7 34.95 31.45 34.95 31.5 34.2 32.15 33.3 32.25 25.15 30.35 23.6 35.85 23.55 36.0 23.15 36.55 22.45 36.95 22.25 36.95 21.65 36.9 21.5 36.85 14.2 33.5 10.4 38.85 10.35 38.95 9.8 39.35 9.65 39.4 9.05 39.45 Q8.6 39.45 8.25 39.15 L2.5 34.7 -3.15 39.2 -3.3 39.3 -3.85 39.5 -4.75 39.4 -5.35 38.9 -9.1 33.55 -16.3 37.05 -16.35 37.05 -17.25 37.15 -17.9 36.9 -18.1 36.7 -18.4 36.05 -18.4 36.1 -20.05 30.45 -28.2 32.45 -28.25 32.45 -29.1 32.35 -29.15 32.35 -29.85 31.8 -29.9 31.7 -30.1 30.9 -30.1 30.85 -29.6 25.55 -38.1 25.9 -39.05 25.6 -39.55 24.75 Q-39.75 24.2 -39.45 23.8 L-39.4 23.7 -39.4 23.65 -37.15 19.0 -45.0 17.95 Q-45.65 17.85 -45.9 17.45 L-45.95 17.4 -46.3 16.45 Q-46.3 15.85 -45.9 15.45 L-41.9 11.2 -48.85 8.75 -48.8 8.75 -49.65 8.1 -49.65 8.05 -49.7 8.0 -49.75 6.95 -49.8 7.05 Q-49.7 6.4 -49.1 6.05 L-49.15 6.05 -43.65 2.7 -49.15 -0.6 -49.2 -0.65 Q-49.85 -1.0 -49.95 -1.6 L-49.9 -1.5 Q-50.1 -2.1 -49.85 -2.55 L-49.8 -2.6 -49.8 -2.65 -48.95 -3.35 -49.0 -3.35 -42.1 -5.7 -46.1 -9.85 -46.1 -9.9 Q-46.5 -10.4 -46.5 -10.9 -46.5 -11.45 -46.15 -11.8 L-45.2 -12.45 -37.35 -13.55 -39.75 -18.35 -39.9 -19.35 Q-39.8 -19.95 -39.35 -20.25 L-38.4 -20.55 -30.0 -20.15 -30.55 -25.55 -30.55 -25.65 -30.35 -26.4 -30.35 -26.45 -29.65 -27.1 -29.6 -27.15 Q-29.1 -27.35 -28.55 -27.15 L-20.45 -25.3 -19.0 -30.8 -18.6 -31.5 Q-18.35 -31.8 -17.85 -31.9 L-16.85 -31.75 -16.95 -31.75 -9.6 -28.4 -5.85 -33.75 -5.25 -34.3 -4.55 -34.45 -4.35 -34.4 -3.7 -34.1 -3.65 -34.1 2.1 -29.5 7.8 -34.1 Q8.05 -34.4 8.45 -34.45 L9.35 -34.35 9.95 -33.85 9.9 -33.85 13.75 -28.45 21.05 -31.85 21.75 -32.05 21.95 -32.0 22.6 -31.7 M21.7 -30.45 L21.75 -30.45 21.7 -30.5 13.85 -26.85 13.3 -26.8 12.9 -27.1 8.75 -32.95 8.25 -32.55 8.1 -32.45 2.55 -27.95 Q2.3 -27.8 2.05 -27.8 L1.75 -27.85 -3.95 -32.4 -4.2 -32.55 -4.6 -32.9 -8.7 -27.05 -9.15 -26.75 -9.65 -26.8 -17.55 -30.4 -17.75 -29.75 -17.8 -29.6 -19.2 -24.25 Q-19.3 -23.95 -19.55 -23.8 L-20.1 -23.7 -28.0 -25.5 -28.25 -25.55 -29.0 -25.7 -29.05 -25.7 -28.95 -24.75 -28.95 -24.7 -28.4 -19.45 -28.45 -19.05 -28.75 -18.75 -28.95 -18.65 -38.4 -19.05 -38.45 -19.05 -38.4 -19.0 -35.55 -13.25 -35.55 -13.2 Q-35.45 -13.05 -35.5 -12.8 L-35.7 -12.4 -36.05 -12.2 -44.95 -10.95 -45.0 -10.9 -40.2 -5.9 -40.0 -5.45 -40.1 -5.0 -40.3 -4.75 -48.45 -1.95 -47.3 -1.25 -47.1 -1.1 -41.8 2.05 -41.5 2.45 -41.5 2.95 -41.8 3.35 -48.3 7.35 -47.05 7.8 -46.85 7.9 -40.35 10.15 Q-40.1 10.25 -39.95 10.45 L-39.85 10.95 -39.9 11.2 -44.8 16.45 -44.75 16.5 -44.75 16.45 -35.95 17.65 -35.5 17.85 -35.3 18.3 -35.35 18.65 -37.55 23.3 -37.55 23.4 -38.1 24.4 -36.95 24.35 -36.85 24.35 -28.8 24.0 -28.4 24.1 -28.1 24.4 -28.05 24.65 -28.1 25.35 -28.1 25.45 -28.6 30.95 -28.55 30.95 -28.5 31.0 -27.65 30.75 -27.55 30.75 -19.55 28.8 -19.15 28.9 -18.85 29.25 -18.8 29.35 -16.95 35.65 -16.95 35.7 -16.9 35.7 -16.9 35.65 -9.05 31.9 -8.7 31.9 -8.5 31.95 -4.6 37.4 -4.55 37.45 -4.15 38.0 -4.1 38.0 -3.65 37.6 -3.5 37.55 2.15 33.05 2.5 32.95 Q2.75 32.95 3.0 33.1 L9.2 37.95 9.25 37.95 13.35 32.1 13.4 32.1 13.75 31.85 14.05 31.8 21.3 35.15 21.5 35.2 22.05 35.45 22.1 35.5 22.1 35.45 22.15 35.4 23.9 29.25 Q23.95 28.95 24.25 28.8 L24.65 28.7 32.6 30.55 32.65 30.55 33.6 30.8 33.6 30.7 33.05 24.5 33.15 24.1 33.45 23.8 33.85 23.7 41.75 24.1 41.85 24.1 42.95 24.15 42.5 23.2 42.45 23.05 40.2 18.4 40.1 17.95 40.35 17.5 Q40.45 17.35 40.65 17.35 L48.2 16.3 48.3 16.3 49.65 16.1 48.75 15.15 48.65 15.05 44.8 11.1 44.55 10.65 Q44.55 10.35 44.7 10.15 44.8 9.95 45.05 9.85 L51.5 7.6 51.7 7.55 53.0 7.05 46.45 3.0 46.4 2.95 46.15 2.6 46.15 2.1 46.35 1.8 51.6 -1.45 51.8 -1.6 52.9 -2.3 51.55 -2.75 51.45 -2.8 44.8 -5.1 44.6 -5.3 44.45 -5.75 44.65 -6.2 48.4 -10.25 48.55 -10.45 49.35 -11.35 40.55 -12.45 40.4 -12.45 40.15 -12.65 39.95 -13.05 40.0 -13.5 42.7 -19.3 42.75 -19.35 42.7 -19.4 33.45 -18.9 33.05 -19.0 32.75 -19.3 32.65 -19.7 33.2 -25.9 32.25 -25.65 32.2 -25.65 24.45 -23.8 23.9 -23.9 Q23.6 -24.05 23.55 -24.35 L21.7 -30.45 M33.6 30.8 L33.65 30.8 33.65 30.75 33.6 30.8" fill="#006600" fill-rule="evenodd" stroke="none"/>
    <path d="M21.7 -30.45 L23.55 -24.35 Q23.6 -24.05 23.9 -23.9 L24.45 -23.8 32.2 -25.65 32.25 -25.65 33.2 -25.9 32.65 -19.7 32.75 -19.3 33.05 -19.0 33.45 -18.9 42.7 -19.4 42.7 -19.3 40.0 -13.5 39.95 -13.05 40.15 -12.65 40.4 -12.45 40.55 -12.45 49.35 -11.35 48.55 -10.45 48.4 -10.25 44.65 -6.2 44.45 -5.75 44.6 -5.3 44.8 -5.1 51.45 -2.8 51.55 -2.75 52.9 -2.3 51.8 -1.6 51.6 -1.45 46.35 1.8 46.15 2.1 46.15 2.6 46.4 2.95 46.45 3.0 53.0 7.05 51.7 7.55 51.5 7.6 45.05 9.85 Q44.8 9.95 44.7 10.15 44.55 10.35 44.55 10.65 L44.8 11.1 48.65 15.05 48.75 15.15 49.65 16.1 48.3 16.3 48.2 16.3 40.65 17.35 Q40.45 17.35 40.35 17.5 L40.1 17.95 40.2 18.4 42.45 23.05 42.5 23.2 42.95 24.15 41.85 24.1 41.75 24.1 33.85 23.7 33.45 23.8 33.15 24.1 33.05 24.5 33.6 30.7 33.6 30.8 32.65 30.55 32.6 30.55 24.65 28.7 24.25 28.8 Q23.95 28.95 23.9 29.25 L22.15 35.4 22.1 35.45 22.1 35.5 22.05 35.45 21.5 35.2 21.3 35.15 14.05 31.8 13.75 31.85 13.4 32.1 13.35 32.1 9.25 37.95 9.2 37.95 3.0 33.1 Q2.75 32.95 2.5 32.95 L2.15 33.05 -3.5 37.55 -3.65 37.6 -4.1 38.0 -4.15 38.0 -4.55 37.45 -4.6 37.4 -8.5 31.95 -8.7 31.9 -9.05 31.9 -16.9 35.65 -16.95 35.65 -18.8 29.35 -18.85 29.25 -19.15 28.9 -19.55 28.8 -27.55 30.75 -27.65 30.75 -28.5 31.0 -28.55 30.95 -28.6 30.95 -28.1 25.45 -28.1 25.35 -28.05 24.65 -28.1 24.4 -28.4 24.1 -28.8 24.0 -36.85 24.35 -36.95 24.35 -38.1 24.4 -37.55 23.4 -37.55 23.3 -35.35 18.65 -35.3 18.3 -35.5 17.85 -35.95 17.65 -44.75 16.45 -44.8 16.45 -39.9 11.2 -39.85 10.95 -39.95 10.45 Q-40.1 10.25 -40.35 10.15 L-46.85 7.9 -47.05 7.8 -48.3 7.35 -41.8 3.35 -41.5 2.95 -41.5 2.45 -41.8 2.05 -47.1 -1.1 -47.3 -1.25 -48.45 -1.95 -40.3 -4.75 -40.1 -5.0 -40.0 -5.45 -40.2 -5.9 -45.0 -10.9 -44.95 -10.95 -36.05 -12.2 -35.7 -12.4 -35.5 -12.8 Q-35.45 -13.05 -35.55 -13.2 L-35.55 -13.25 -38.4 -19.0 -38.4 -19.05 -28.95 -18.65 -28.75 -18.75 -28.45 -19.05 -28.4 -19.45 -28.95 -24.7 -28.95 -24.75 -29.05 -25.7 -29.0 -25.7 -28.25 -25.55 -28.0 -25.5 -20.1 -23.7 -19.55 -23.8 Q-19.3 -23.95 -19.2 -24.25 L-17.8 -29.6 -17.75 -29.75 -17.55 -30.4 -9.65 -26.8 -9.15 -26.75 -8.7 -27.05 -4.6 -32.9 -4.2 -32.55 -3.95 -32.4 1.75 -27.85 2.05 -27.8 Q2.3 -27.8 2.55 -27.95 L8.1 -32.45 8.25 -32.55 8.75 -32.95 12.9 -27.1 13.3 -26.8 13.85 -26.85 21.7 -30.5 21.7 -30.45 M22.25 -23.25 L20.75 -28.45 13.95 -25.2 13.85 -25.2 12.9 -25.1 12.8 -25.15 12.05 -25.7 8.45 -30.8 3.05 -26.4 2.95 -26.35 2.05 -26.1 Q1.55 -26.1 1.15 -26.4 L-4.25 -30.75 -7.8 -25.65 -7.9 -25.55 -8.6 -25.1 -8.75 -25.05 -9.65 -25.15 -9.7 -25.15 -16.6 -28.35 -17.9 -23.15 -17.95 -23.1 -18.6 -22.25 Q-19.1 -21.95 -19.65 -22.05 L-19.7 -22.05 -27.35 -23.8 -26.8 -18.75 -26.8 -18.7 -26.85 -18.1 -27.0 -17.85 -27.45 -17.35 -27.55 -17.3 -28.3 -17.15 -35.95 -17.45 -33.75 -12.95 Q-33.55 -12.55 -33.65 -12.05 L-33.65 -12.0 -34.0 -11.35 -34.15 -11.2 Q-34.5 -10.95 -34.9 -10.85 L-34.95 -10.85 -41.85 -9.85 -38.3 -6.1 Q-37.9 -5.8 -37.9 -5.15 -37.9 -4.7 -38.05 -4.35 L-38.15 -4.25 -38.85 -3.7 -38.9 -3.7 -45.0 -1.55 -39.95 1.4 -39.9 1.45 Q-39.55 1.7 -39.35 2.2 -39.15 2.7 -39.35 3.25 -39.55 3.7 -39.9 3.95 L-39.95 4.0 -44.85 7.0 -38.8 9.1 -38.75 9.1 -38.05 9.65 -37.95 9.8 Q-37.8 10.1 -37.8 10.6 -37.75 11.05 -38.2 11.5 L-41.7 15.35 -34.75 16.25 -34.7 16.3 Q-34.3 16.35 -33.95 16.6 L-33.8 16.75 Q-33.55 17.05 -33.45 17.5 -33.35 17.9 -33.55 18.4 L-33.55 18.45 -35.65 22.8 -28.0 22.45 -27.25 22.65 -27.15 22.7 -26.7 23.15 -26.55 23.45 -26.5 24.05 -26.5 24.15 -26.9 29.05 -19.45 27.25 -18.3 27.35 -18.25 27.35 Q-17.8 27.65 -17.6 28.25 L-17.55 28.25 -16.0 33.55 -9.3 30.35 -8.35 30.25 Q-7.8 30.3 -7.5 30.8 L-7.45 30.9 -3.85 35.9 1.6 31.6 Q2.0 31.2 2.5 31.2 L3.4 31.45 3.5 31.5 8.85 35.75 12.45 30.8 Q12.7 30.35 13.2 30.2 L14.3 30.3 14.35 30.3 21.15 33.4 22.6 28.25 Q22.7 27.6 23.35 27.25 L23.4 27.25 24.5 27.15 31.9 28.85 31.45 23.85 31.45 23.75 31.65 23.0 Q31.8 22.6 32.2 22.4 L33.0 22.15 40.55 22.55 38.4 18.15 Q38.1 17.6 38.25 17.2 38.3 16.75 38.7 16.4 38.95 16.05 39.45 16.0 L39.5 15.95 46.55 15.0 42.9 11.3 Q42.45 10.85 42.45 10.3 42.45 9.8 42.7 9.5 L42.75 9.4 42.75 9.35 Q42.95 9.0 43.45 8.8 L49.5 6.75 44.6 3.65 44.55 3.6 Q44.2 3.35 44.0 2.9 43.8 2.35 44.0 1.85 44.2 1.3 44.7 1.1 L49.5 -1.9 43.35 -4.0 Q42.8 -4.2 42.6 -4.6 L42.35 -5.45 Q42.35 -6.0 42.75 -6.4 L46.3 -10.2 39.3 -11.1 39.25 -11.1 Q38.8 -11.2 38.55 -11.45 38.05 -11.8 38.05 -12.45 38.0 -12.9 38.2 -13.2 L40.3 -17.75 32.6 -17.35 31.8 -17.55 Q31.4 -17.8 31.25 -18.15 L31.05 -18.9 31.05 -18.95 31.5 -23.95 24.1 -22.15 24.05 -22.15 23.05 -22.3 23.0 -22.35 Q22.4 -22.7 22.3 -23.2 L22.3 -23.25 22.25 -23.25" fill="#dfeedd" fill-rule="evenodd" stroke="none"/>
    <path d="M22.3 -23.2 Q22.4 -22.7 23.0 -22.35 L23.05 -22.3 24.05 -22.15 24.1 -22.15 31.5 -23.95 31.05 -18.95 31.05 -18.9 31.25 -18.15 Q31.4 -17.8 31.8 -17.55 L32.6 -17.35 40.3 -17.75 38.2 -13.2 Q38.0 -12.9 38.05 -12.45 38.05 -11.8 38.55 -11.45 38.8 -11.2 39.25 -11.1 L39.3 -11.1 46.3 -10.2 42.75 -6.4 Q42.35 -6.0 42.35 -5.45 L42.6 -4.6 Q42.8 -4.2 43.35 -4.0 L49.5 -1.9 44.7 1.1 Q44.2 1.3 44.0 1.85 43.8 2.35 44.0 2.9 44.2 3.35 44.55 3.6 L44.6 3.65 49.5 6.75 43.45 8.8 Q42.95 9.0 42.75 9.35 L42.75 9.4 42.7 9.5 Q42.45 9.8 42.45 10.3 42.45 10.85 42.9 11.3 L46.55 15.0 39.5 15.95 39.45 16.0 Q38.95 16.05 38.7 16.4 38.3 16.75 38.25 17.2 38.1 17.6 38.4 18.15 L40.55 22.55 33.0 22.15 32.2 22.4 Q31.8 22.6 31.65 23.0 L31.45 23.75 31.45 23.85 31.9 28.85 24.5 27.15 23.4 27.25 23.35 27.25 Q22.7 27.6 22.6 28.25 L21.15 33.4 14.35 30.3 14.3 30.3 13.2 30.2 Q12.7 30.35 12.45 30.8 L8.85 35.75 3.5 31.5 3.4 31.45 2.5 31.2 Q2.0 31.2 1.6 31.6 L-3.85 35.9 -7.45 30.9 -7.5 30.8 Q-7.8 30.3 -8.35 30.25 L-9.3 30.35 -16.0 33.55 -17.55 28.25 -17.6 28.25 Q-17.8 27.65 -18.25 27.35 L-18.3 27.35 -19.45 27.25 -26.9 29.05 -26.5 24.15 -26.5 24.05 -26.55 23.45 -26.7 23.15 -27.15 22.7 -27.25 22.65 -28.0 22.45 -35.65 22.8 -33.55 18.45 -33.55 18.4 Q-33.35 17.9 -33.45 17.5 -33.55 17.05 -33.8 16.75 L-33.95 16.6 Q-34.3 16.35 -34.7 16.3 L-34.75 16.25 -41.7 15.35 -38.2 11.5 Q-37.75 11.05 -37.8 10.6 -37.8 10.1 -37.95 9.8 L-38.05 9.65 -38.75 9.1 -38.8 9.1 -44.85 7.0 -39.95 4.0 -39.9 3.95 Q-39.55 3.7 -39.35 3.25 -39.15 2.7 -39.35 2.2 -39.55 1.7 -39.9 1.45 L-39.95 1.4 -45.0 -1.55 -38.9 -3.7 -38.85 -3.7 -38.15 -4.25 -38.05 -4.35 Q-37.9 -4.7 -37.9 -5.15 -37.9 -5.8 -38.3 -6.1 L-41.85 -9.85 -34.95 -10.85 -34.9 -10.85 Q-34.5 -10.95 -34.15 -11.2 L-34.0 -11.35 -33.65 -12.0 -33.65 -12.05 Q-33.55 -12.55 -33.75 -12.95 L-35.95 -17.45 -28.3 -17.15 -27.55 -17.3 -27.45 -17.35 -27.0 -17.85 -26.85 -18.1 -26.8 -18.7 -26.8 -18.75 -27.35 -23.8 -19.7 -22.05 -19.65 -22.05 Q-19.1 -21.95 -18.6 -22.25 L-17.95 -23.1 -17.9 -23.15 -16.6 -28.35 -9.7 -25.15 -9.65 -25.15 -8.75 -25.05 -8.6 -25.1 -7.9 -25.55 -7.8 -25.65 -4.25 -30.75 1.15 -26.4 Q1.55 -26.1 2.05 -26.1 L2.95 -26.35 3.05 -26.4 8.45 -30.8 12.05 -25.7 12.8 -25.15 12.9 -25.1 13.85 -25.2 13.95 -25.2 20.75 -28.45 22.25 -23.25 22.3 -23.2" fill="#00cc00" fill-rule="evenodd" stroke="none"/>
    <path d="M21.7 -30.5 L21.75 -30.45 21.7 -30.45 21.7 -30.5 M42.7 -19.4 L42.75 -19.35 42.7 -19.3 42.7 -19.4 M33.6 30.8 L33.65 30.75 33.65 30.8 33.6 30.8 M-16.9 35.65 L-16.9 35.7 -16.95 35.7 -16.95 35.65 -16.9 35.65 M-44.75 16.45 L-44.75 16.5 -44.8 16.45 -44.75 16.45 M-38.4 -19.0 L-38.45 -19.05 -38.4 -19.05 -38.4 -19.0 M22.25 -23.25 L22.3 -23.25 22.3 -23.2 22.25 -23.25" fill="#ffffff" fill-rule="evenodd" stroke="none"/>
    <path d="M57.45 -49.75 L57.55 -49.65 58.6 -48.8 58.75 -48.55 59.0 -47.15 59.0 -46.95 58.25 -37.7 72.9 -38.5 73.0 -38.5 Q73.85 -38.5 74.55 -37.95 75.2 -37.55 75.55 -36.5 L75.6 -36.4 Q75.8 -35.6 75.45 -34.75 L75.45 -34.65 71.45 -26.1 84.95 -24.45 85.05 -24.45 Q85.95 -24.25 86.65 -23.55 L86.7 -23.45 Q87.25 -22.75 87.25 -21.8 87.25 -20.75 86.55 -20.05 L79.75 -12.55 91.7 -8.45 91.8 -8.45 Q92.55 -8.1 93.1 -7.2 93.6 -6.45 93.45 -5.4 L93.35 -5.2 Q93.0 -4.25 92.2 -3.7 L82.8 2.15 92.4 8.05 Q93.2 8.6 93.55 9.65 L93.6 9.8 Q93.8 10.7 93.45 11.45 L93.35 11.65 Q92.85 12.45 91.85 12.8 L79.9 17.05 87.05 24.4 Q87.75 25.1 87.75 26.15 L87.3 27.7 87.15 28.0 Q86.45 28.6 85.6 28.75 L85.5 28.75 71.8 30.6 75.9 39.15 Q76.25 39.8 76.05 40.8 L75.95 41.1 75.0 42.3 Q74.3 42.85 73.45 42.85 L58.95 42.15 59.7 51.55 59.7 51.65 59.45 52.95 59.45 53.05 58.15 54.2 56.6 54.35 42.35 51.05 39.65 60.65 39.55 60.9 38.85 61.9 37.6 62.55 37.25 62.55 36.2 62.5 35.95 62.4 23.2 56.55 16.55 65.9 16.5 66.05 15.5 66.75 15.25 66.85 14.2 66.95 Q13.4 66.95 12.8 66.4 L2.75 58.65 -7.1 66.5 -7.35 66.7 -8.3 67.05 -9.9 66.85 Q-10.7 66.5 -10.95 66.0 L-17.5 56.65 -30.1 62.75 -30.15 62.75 -31.75 62.9 -32.85 62.5 -33.2 62.15 -33.75 61.0 -33.75 61.1 -36.65 51.2 -50.85 54.7 -50.95 54.7 -52.45 54.55 -52.5 54.55 -53.75 53.6 -53.85 53.4 Q-54.2 52.8 -54.2 52.0 L-54.2 51.9 -53.3 42.65 -68.15 43.25 Q-69.1 43.25 -69.8 42.75 -70.5 42.2 -70.7 41.25 -71.05 40.3 -70.5 39.6 L-70.45 39.45 -70.45 39.35 -66.5 31.2 -80.2 29.4 Q-81.35 29.2 -81.8 28.5 L-81.85 28.4 Q-82.5 27.65 -82.5 26.75 -82.5 25.7 -81.8 25.0 L-74.8 17.6 -86.95 13.3 -86.85 13.3 Q-88.0 12.95 -88.35 12.15 L-88.35 12.1 -88.45 12.0 Q-88.85 11.15 -88.5 10.15 L-88.6 10.35 Q-88.45 9.2 -87.4 8.6 L-87.45 8.6 -77.85 2.75 -87.45 -3.05 -87.55 -3.1 Q-88.7 -3.7 -88.85 -4.75 L-88.8 -4.6 Q-89.1 -5.65 -88.7 -6.45 L-88.6 -6.5 -88.6 -6.6 Q-88.25 -7.5 -87.1 -7.85 L-87.2 -7.85 -75.15 -11.95 -82.15 -19.2 -82.15 -19.25 Q-82.85 -20.15 -82.85 -21.0 -82.85 -22.0 -82.2 -22.6 -81.7 -23.55 -80.55 -23.75 L-66.85 -25.65 -71.05 -34.05 Q-71.55 -34.9 -71.3 -35.8 -71.15 -36.85 -70.35 -37.35 -69.65 -37.9 -68.7 -37.9 L-54.0 -37.2 -54.95 -46.6 -54.95 -46.8 Q-54.95 -47.55 -54.6 -48.1 L-54.6 -48.2 Q-54.1 -49.05 -53.4 -49.3 L-53.3 -49.4 Q-52.45 -49.75 -51.5 -49.4 L-37.35 -46.2 -34.8 -55.8 Q-34.7 -56.55 -34.1 -57.0 -33.65 -57.55 -32.8 -57.7 -32.1 -58.05 -31.05 -57.45 L-31.2 -57.45 -18.35 -51.6 -11.8 -60.95 -10.75 -61.9 -9.55 -62.15 -9.2 -62.1 Q-8.65 -62.0 -8.05 -61.55 L-8.0 -61.55 2.05 -53.5 12.05 -61.55 Q12.45 -62.1 13.15 -62.15 L14.75 -62.0 Q15.45 -61.75 15.8 -61.1 L15.7 -61.1 22.4 -51.7 35.2 -57.6 36.4 -57.95 36.75 -57.9 37.9 -57.35 Q38.4 -57.1 38.75 -56.15 L38.85 -56.05 41.75 -46.45 55.7 -49.75 Q56.4 -50.1 57.45 -49.75 M36.3 -55.25 L22.6 -48.9 21.65 -48.8 20.95 -49.3 13.7 -59.55 12.8 -58.85 Q12.65 -58.85 12.55 -58.65 L2.85 -50.8 2.0 -50.55 1.45 -50.65 -8.5 -58.6 -8.95 -58.85 -9.65 -59.45 -16.8 -49.25 -17.6 -48.7 -18.45 -48.8 -32.25 -55.1 -32.6 -53.95 -32.7 -53.7 -35.15 -44.35 Q-35.3 -43.8 -35.75 -43.55 L-36.7 -43.4 -50.5 -46.55 -50.95 -46.6 -52.25 -46.9 -52.35 -46.9 -52.2 -45.2 -52.2 -45.15 -51.2 -35.95 -51.3 -35.25 -51.85 -34.75 -52.2 -34.55 -68.7 -35.25 -68.75 -35.25 -68.7 -35.15 -63.7 -25.15 -63.7 -25.05 -63.6 -24.35 -63.95 -23.65 Q-64.3 -23.4 -64.6 -23.3 L-80.15 -21.1 -80.2 -21.0 -71.85 -12.3 Q-71.5 -12.0 -71.5 -11.5 -71.5 -11.05 -71.65 -10.7 L-72.0 -10.3 -86.25 -5.4 -84.25 -4.15 -83.9 -3.9 -74.6 1.6 -74.1 2.3 Q-73.95 2.75 -74.1 3.2 L-74.6 3.85 -86.0 10.85 -83.8 11.65 -83.45 11.8 -72.1 15.75 -71.4 16.3 -71.2 17.15 -71.3 17.6 -79.85 26.75 -79.8 26.85 -79.8 26.75 -64.4 28.85 -63.6 29.2 -63.25 30.0 -63.35 30.6 -67.2 38.75 -67.2 38.9 -68.15 40.65 -66.15 40.55 -66.0 40.55 -51.9 39.95 -51.2 40.15 -50.7 40.65 -50.6 41.1 -50.7 42.3 -50.7 42.5 -51.55 52.1 -51.5 52.1 -51.4 52.2 -49.9 51.75 -49.75 51.75 -35.75 48.35 -35.05 48.5 -34.55 49.1 -34.45 49.3 -31.2 60.3 -31.2 60.4 -31.1 60.4 -31.1 60.3 Q-24.25 57.05 -17.4 53.75 L-16.8 53.75 -16.45 53.85 -9.65 63.35 -9.55 63.45 -8.85 64.4 -8.75 64.4 -8.0 63.7 -7.7 63.6 2.15 55.75 2.75 55.6 Q3.2 55.6 3.65 55.85 L14.45 64.3 14.55 64.3 21.7 54.1 21.8 54.1 22.4 53.65 22.95 53.6 35.6 59.45 35.95 59.5 36.9 59.95 37.0 60.05 37.0 59.95 37.1 59.85 40.15 49.1 Q40.25 48.6 40.75 48.35 L41.45 48.15 55.35 51.4 55.45 51.4 57.1 51.85 57.1 51.65 56.15 40.8 56.3 40.15 Q56.5 39.8 56.85 39.6 L57.55 39.45 71.35 40.15 71.5 40.15 73.45 40.2 72.65 38.55 72.55 38.3 68.65 30.15 Q68.35 29.75 68.45 29.4 68.55 28.95 68.9 28.6 69.05 28.35 69.4 28.35 L82.6 26.5 82.8 26.5 85.15 26.15 83.55 24.5 83.4 24.3 76.65 17.4 76.25 16.65 Q76.25 16.1 76.5 15.75 L77.1 15.25 88.35 11.3 88.7 11.2 91.0 10.35 79.55 3.25 79.45 3.2 79.05 2.55 Q78.85 2.15 79.05 1.7 L79.4 1.15 88.55 -4.5 88.9 -4.75 90.8 -6.0 88.45 -6.8 88.3 -6.85 76.65 -10.9 Q76.4 -10.95 76.3 -11.25 L76.05 -12.0 Q76.05 -12.45 76.4 -12.8 L82.95 -19.9 83.2 -20.25 84.6 -21.8 69.25 -23.75 69.0 -23.75 68.55 -24.1 Q68.2 -24.45 68.2 -24.8 68.0 -25.2 68.3 -25.55 L73.0 -35.7 73.1 -35.8 73.0 -35.85 56.85 -35.0 56.15 -35.15 Q55.8 -35.35 55.6 -35.7 L55.45 -36.4 56.4 -47.25 54.75 -46.8 54.65 -46.8 41.1 -43.55 40.15 -43.75 Q39.65 -44.0 39.55 -44.5 L36.3 -55.15 36.4 -55.15 36.3 -55.25 M57.1 51.85 L57.2 51.85 57.2 51.75 57.1 51.85" fill="#006600" fill-rule="evenodd" stroke="none"/>
    <path d="M-68.7 -35.25 L-52.2 -34.55 -51.85 -34.75 -51.3 -35.25 -51.2 -35.95 -52.2 -45.15 -52.2 -45.2 -52.35 -46.9 -52.25 -46.9 -50.95 -46.6 -50.5 -46.55 -36.7 -43.4 -35.75 -43.55 Q-35.3 -43.8 -35.15 -44.35 L-32.7 -53.7 -32.6 -53.95 -32.25 -55.1 -18.45 -48.8 -17.6 -48.7 -16.8 -49.25 -9.65 -59.45 -8.95 -58.85 -8.5 -58.6 1.45 -50.65 2.0 -50.55 2.85 -50.8 12.55 -58.65 Q12.65 -58.85 12.8 -58.85 L13.7 -59.55 20.95 -49.3 21.65 -48.8 22.6 -48.9 36.3 -55.25 36.3 -55.15 39.55 -44.5 Q39.65 -44.0 40.15 -43.75 L41.1 -43.55 54.65 -46.8 54.75 -46.8 56.4 -47.25 55.45 -36.4 55.6 -35.7 Q55.8 -35.35 56.15 -35.15 L56.85 -35.0 73.0 -35.85 73.0 -35.7 68.3 -25.55 Q68.0 -25.2 68.2 -24.8 68.2 -24.45 68.55 -24.1 L69.0 -23.75 69.25 -23.75 84.6 -21.8 83.2 -20.25 82.95 -19.9 76.4 -12.8 Q76.05 -12.45 76.05 -12.0 L76.3 -11.25 Q76.4 -10.95 76.65 -10.9 L88.3 -6.85 88.45 -6.8 90.8 -6.0 88.9 -4.75 88.55 -4.5 79.4 1.15 79.05 1.7 Q78.85 2.15 79.05 2.55 L79.45 3.2 79.55 3.25 91.0 10.35 88.7 11.2 88.35 11.3 77.1 15.25 76.5 15.75 Q76.25 16.1 76.25 16.65 L76.65 17.4 83.4 24.3 83.55 24.5 85.15 26.15 82.8 26.5 82.6 26.5 69.4 28.35 Q69.05 28.35 68.9 28.6 68.55 28.95 68.45 29.4 68.35 29.75 68.65 30.15 L72.55 38.3 72.65 38.55 73.45 40.2 71.5 40.15 71.35 40.15 57.55 39.45 56.85 39.6 Q56.5 39.8 56.3 40.15 L56.15 40.8 57.1 51.65 57.1 51.85 55.45 51.4 55.35 51.4 41.45 48.15 40.75 48.35 Q40.25 48.6 40.15 49.1 L37.1 59.85 37.0 59.95 37.0 60.05 36.9 59.95 35.95 59.5 35.6 59.45 22.95 53.6 22.4 53.65 21.8 54.1 21.7 54.1 14.55 64.3 14.45 64.3 3.65 55.85 Q3.2 55.6 2.75 55.6 L2.15 55.75 -7.7 63.6 -8.0 63.7 -8.75 64.4 -8.85 64.4 -9.55 63.45 -9.65 63.35 -16.45 53.85 -16.8 53.75 -17.4 53.75 Q-24.25 57.05 -31.1 60.3 L-31.2 60.3 -34.45 49.3 -34.55 49.1 -35.05 48.5 -35.75 48.35 -49.75 51.75 -49.9 51.75 -51.4 52.2 -51.5 52.1 -51.55 52.1 -50.7 42.5 -50.7 42.3 -50.6 41.1 -50.7 40.65 -51.2 40.15 -51.9 39.95 -66.0 40.55 -66.15 40.55 -68.15 40.65 -67.2 38.9 -67.2 38.75 -63.35 30.6 -63.25 30.0 -63.6 29.2 -64.4 28.85 -79.8 26.75 -79.85 26.75 -71.3 17.6 -71.2 17.15 -71.4 16.3 -72.1 15.75 -83.45 11.8 -83.8 11.65 -86.0 10.85 -74.6 3.85 -74.1 3.2 Q-73.95 2.75 -74.1 2.3 L-74.6 1.6 -83.9 -3.9 -84.25 -4.15 -86.25 -5.4 -72.0 -10.3 -71.65 -10.7 Q-71.5 -11.05 -71.5 -11.5 -71.5 -12.0 -71.85 -12.3 L-80.2 -21.0 -80.15 -21.1 -64.6 -23.3 Q-64.3 -23.4 -63.95 -23.65 L-63.6 -24.35 -63.7 -25.05 -63.7 -25.15 -68.7 -35.15 -68.7 -35.25 M37.35 -42.6 L37.25 -42.6 34.65 -51.7 22.75 -46.0 22.6 -46.0 20.95 -45.85 20.75 -45.9 Q19.9 -46.25 19.45 -46.9 L13.15 -55.8 3.75 -48.1 3.55 -48.0 Q2.75 -47.55 2.0 -47.55 1.1 -47.55 0.4 -48.1 L-9.0 -55.7 -15.25 -46.8 -15.4 -46.6 Q-16.0 -46.1 -16.6 -45.85 L-16.9 -45.75 -18.45 -45.9 -18.55 -45.9 -30.6 -51.5 -32.85 -42.4 -32.95 -42.35 Q-33.3 -41.35 -34.1 -40.85 -34.95 -40.3 -35.95 -40.5 L-36.0 -40.5 -49.4 -43.55 -48.4 -34.75 -48.4 -34.65 -48.5 -33.6 -48.75 -33.15 -49.55 -32.3 -49.75 -32.2 -51.05 -31.95 -64.4 -32.45 -60.55 -24.6 Q-60.2 -23.9 -60.4 -23.05 L-60.4 -22.95 -61.0 -21.8 -61.25 -21.55 Q-61.85 -21.1 -62.55 -20.95 L-62.65 -20.95 -74.7 -19.2 -68.5 -12.65 Q-67.8 -12.1 -67.8 -10.95 -67.8 -10.2 -68.05 -9.6 L-68.25 -9.4 Q-68.7 -8.8 -69.45 -8.45 L-69.55 -8.45 -80.2 -4.7 -71.4 0.45 -71.3 0.55 Q-70.7 1.0 -70.35 1.85 -70.0 2.75 -70.35 3.7 -70.7 4.5 -71.3 4.9 L-71.4 5.0 -79.95 10.25 -69.4 13.9 -69.3 13.9 Q-68.5 14.25 -68.05 14.9 L-67.9 15.15 Q-67.65 15.65 -67.65 16.55 -67.55 17.35 -68.35 18.1 L-74.45 24.85 -62.3 26.4 -62.2 26.5 Q-61.5 26.6 -60.9 27.0 L-60.65 27.3 Q-60.2 27.8 -60.05 28.6 -59.85 29.3 -60.2 30.15 L-60.2 30.25 -63.9 37.85 -50.5 37.25 Q-49.9 37.25 -49.2 37.6 -49.1 37.6 -49.05 37.7 L-48.25 38.45 Q-48.05 38.75 -48.0 39.0 L-47.9 40.05 -47.9 40.2 -48.6 48.75 -35.6 45.65 -33.55 45.8 -33.5 45.8 Q-32.7 46.35 -32.35 47.4 L-32.25 47.4 -29.55 56.65 -18.0 51.15 -17.85 51.05 Q-17.15 50.5 -16.2 50.85 -15.25 50.95 -14.7 51.85 L-14.6 52.0 -8.3 60.75 1.2 53.25 Q1.9 52.55 2.75 52.55 L4.35 52.95 4.5 53.05 13.85 60.5 20.15 51.85 Q20.6 51.05 21.45 50.8 L23.4 50.95 23.45 50.95 35.35 56.35 37.9 47.4 Q38.05 46.25 39.2 45.65 L39.3 45.65 Q40.15 45.1 41.2 45.45 L54.15 48.4 53.35 39.7 53.35 39.5 Q53.35 38.75 53.7 38.2 53.95 37.5 54.65 37.15 55.2 36.7 56.05 36.7 L69.25 37.4 65.5 29.75 Q64.95 28.75 65.2 28.05 65.3 27.3 66.0 26.65 66.45 26.05 67.3 25.95 L67.4 25.9 79.75 24.25 73.35 17.75 Q72.55 17.0 72.55 16.0 72.55 15.15 73.0 14.6 L73.1 14.45 73.1 14.35 Q73.45 13.75 74.3 13.4 L84.9 9.8 76.3 4.4 76.25 4.3 Q75.6 3.85 75.25 3.1 74.9 2.15 75.25 1.25 75.6 0.3 76.5 -0.05 L84.9 -5.3 74.15 -8.95 Q73.15 -9.3 72.8 -10.0 72.4 -10.7 72.4 -11.5 72.4 -12.45 73.1 -13.15 L79.3 -19.8 67.05 -21.35 66.95 -21.35 Q66.2 -21.55 65.75 -22.0 64.9 -22.6 64.9 -23.75 64.8 -24.5 65.15 -25.05 L68.8 -33.0 55.35 -32.3 Q54.5 -32.3 53.95 -32.65 53.25 -33.05 53.0 -33.7 52.65 -34.4 52.65 -35.0 L52.65 -35.1 53.45 -43.8 40.5 -40.65 40.4 -40.65 Q39.45 -40.5 38.65 -40.95 L38.6 -41.0 Q37.45 -41.65 37.35 -42.6" fill="#dfeedd" fill-rule="evenodd" stroke="none"/>
    <path d="M37.25 -42.6 L37.35 -42.5 37.35 -42.6 Q37.45 -41.65 38.6 -41.0 L38.65 -40.95 Q39.45 -40.5 40.4 -40.65 L40.5 -40.65 53.45 -43.8 52.65 -35.1 52.65 -35.0 Q52.65 -34.4 53.0 -33.7 53.25 -33.05 53.95 -32.65 54.5 -32.3 55.35 -32.3 L68.8 -33.0 65.15 -25.05 Q64.8 -24.5 64.9 -23.75 64.9 -22.6 65.75 -22.0 66.2 -21.55 66.95 -21.35 L67.05 -21.35 79.3 -19.8 73.1 -13.15 Q72.4 -12.45 72.4 -11.5 72.4 -10.7 72.8 -10.0 73.15 -9.3 74.15 -8.95 L84.9 -5.3 76.5 -0.05 Q75.6 0.3 75.25 1.25 74.9 2.15 75.25 3.1 75.6 3.85 76.25 4.3 L76.3 4.4 84.9 9.8 74.3 13.4 Q73.45 13.75 73.1 14.35 L73.1 14.45 73.0 14.6 Q72.55 15.15 72.55 16.0 72.55 17.0 73.35 17.75 L79.75 24.25 67.4 25.9 67.3 25.95 Q66.45 26.05 66.0 26.65 65.3 27.3 65.2 28.05 64.95 28.75 65.5 29.75 L69.25 37.4 56.05 36.7 Q55.2 36.7 54.65 37.15 53.95 37.5 53.7 38.2 53.35 38.75 53.35 39.5 L53.35 39.7 54.15 48.4 41.2 45.45 Q40.15 45.1 39.3 45.65 L39.2 45.65 Q38.05 46.25 37.9 47.4 L35.35 56.35 23.45 50.95 23.4 50.95 21.45 50.8 Q20.6 51.05 20.15 51.85 L13.85 60.5 4.5 53.05 4.35 52.95 2.75 52.55 Q1.9 52.55 1.2 53.25 L-8.3 60.75 -14.6 52.0 -14.7 51.85 Q-15.25 50.95 -16.2 50.85 -17.15 50.5 -17.85 51.05 L-18.0 51.15 -29.55 56.65 -32.25 47.4 -32.35 47.4 Q-32.7 46.35 -33.5 45.8 L-33.55 45.8 -35.6 45.65 -48.6 48.75 -47.9 40.2 -47.9 40.05 -48.0 39.0 Q-48.05 38.75 -48.25 38.45 L-49.05 37.7 Q-49.1 37.6 -49.2 37.6 -49.9 37.25 -50.5 37.25 L-63.9 37.85 -60.2 30.25 -60.2 30.15 Q-59.85 29.3 -60.05 28.6 -60.2 27.8 -60.65 27.3 L-60.9 27.0 Q-61.5 26.6 -62.2 26.5 L-62.3 26.4 -74.45 24.85 -68.35 18.1 Q-67.55 17.35 -67.65 16.55 -67.65 15.65 -67.9 15.15 L-68.05 14.9 Q-68.5 14.25 -69.3 13.9 L-69.4 13.9 -79.95 10.25 -71.4 5.0 -71.3 4.9 Q-70.7 4.5 -70.35 3.7 -70.0 2.75 -70.35 1.85 -70.7 1.0 -71.3 0.55 L-71.4 0.45 -80.2 -4.7 -69.55 -8.45 -69.45 -8.45 Q-68.7 -8.8 -68.25 -9.4 L-68.05 -9.6 Q-67.8 -10.2 -67.8 -10.95 -67.8 -12.1 -68.5 -12.65 L-74.7 -19.2 -62.65 -20.95 -62.55 -20.95 Q-61.85 -21.1 -61.25 -21.55 L-61.0 -21.8 -60.4 -22.95 -60.4 -23.05 Q-60.2 -23.9 -60.55 -24.6 L-64.4 -32.45 -51.05 -31.95 -49.75 -32.2 -49.55 -32.3 -48.75 -33.15 -48.5 -33.6 -48.4 -34.65 -48.4 -34.75 -49.4 -43.55 -36.0 -40.5 -35.95 -40.5 Q-34.95 -40.3 -34.1 -40.85 -33.3 -41.35 -32.95 -42.35 L-32.85 -42.4 -30.6 -51.5 -18.55 -45.9 -18.45 -45.9 -16.9 -45.75 -16.6 -45.85 Q-16.0 -46.1 -15.4 -46.6 L-15.25 -46.8 -9.0 -55.7 0.4 -48.1 Q1.1 -47.55 2.0 -47.55 2.75 -47.55 3.55 -48.0 L3.75 -48.1 13.15 -55.8 19.45 -46.9 Q19.9 -46.25 20.75 -45.9 L20.95 -45.85 22.6 -46.0 22.75 -46.0 34.65 -51.7 37.25 -42.6" fill="#00cc00" fill-rule="evenodd" stroke="none"/>
    <path d="M36.3 -55.25 L36.4 -55.15 36.3 -55.15 36.3 -55.25 M73.0 -35.85 L73.1 -35.8 73.0 -35.7 73.0 -35.85 M57.1 51.85 L57.2 51.75 57.2 51.85 57.1 51.85 M-31.1 60.3 L-31.1 60.4 -31.2 60.4 -31.2 60.3 -31.1 60.3 M-79.8 26.75 L-79.8 26.85 -79.85 26.75 -79.8 26.75 M-68.7 -35.15 L-68.75 -35.25 -68.7 -35.25 -68.7 -35.15 M37.25 -42.6 L37.35 -42.6 37.35 -42.5 37.25 -42.6" fill="#ffffff" fill-rule="evenodd" stroke="none"/>
  </g>
</svg>
