<?xml version="1.0" encoding="UTF-8" standalone="no"?>
<svg xmlns:ffdec="https://www.free-decompiler.com/flash" xmlns:xlink="http://www.w3.org/1999/xlink" ffdec:objectType="shape" height="374.4px" width="369.6px" xmlns="http://www.w3.org/2000/svg">
  <g transform="matrix(1.0, 0.0, 0.0, 1.0, 12.55, 154.9)">
    <path d="M64.65 -133.9 L64.65 0.3 65.3 0.3 65.55 1.1 65.85 0.3 89.5 0.3 Q99.15 -1.85 106.45 4.0 L106.45 0.3 148.9 0.3 148.9 9.3 157.3 8.8 154.75 0.3 181.3 0.3 181.65 1.45 181.85 0.3 203.15 0.3 203.4 1.55 203.8 0.3 230.3 0.3 230.3 0.4 Q237.8 -1.5 244.85 2.6 246.1 3.3 247.2 4.15 L247.2 0.3 250.6 0.3 267.75 -0.35 276.0 0.25 276.05 0.25 Q277.95 0.7 279.65 1.55 L279.65 -133.9 289.65 -133.9 289.65 14.9 Q290.8 18.7 290.7 22.5 L290.7 31.6 304.85 31.25 315.1 1.65 315.15 1.65 325.7 31.25 357.05 32.05 332.2 51.2 338.4 71.95 Q352.7 91.25 352.65 114.0 L352.65 114.05 Q352.7 149.15 318.45 176.05 310.0 182.7 299.4 188.85 246.6 219.5 171.95 219.5 97.3 219.5 44.5 188.85 33.95 182.7 25.5 176.05 19.0 170.95 13.75 165.55 -8.7 142.5 -8.65 114.05 L-8.65 114.0 Q-8.7 90.55 6.5 70.8 L12.4 51.2 -12.55 32.05 18.9 31.25 29.3 1.65 29.35 1.65 39.75 31.25 51.2 31.55 40.75 0.3 54.65 0.3 54.65 -133.9 64.65 -133.9 M279.65 -141.9 L279.65 -147.9 289.65 -147.9 289.65 -141.9 279.65 -141.9 M64.65 -141.9 L54.65 -141.9 54.65 -147.9 64.65 -147.9 64.65 -141.9" fill="#381628" fill-rule="evenodd" stroke="none"/>
    <path d="M61.65 -154.9 L64.65 -154.9 64.65 -14.7 65.3 -14.7 65.55 -13.9 65.85 -14.7 89.5 -14.7 Q99.15 -16.85 106.45 -11.0 L106.45 -14.7 148.9 -14.7 148.9 -5.7 157.3 -6.2 154.75 -14.7 181.3 -14.7 181.65 -13.55 181.85 -14.7 203.15 -14.7 203.4 -13.45 203.8 -14.7 230.3 -14.7 230.3 -14.6 Q237.8 -16.5 244.85 -12.4 L247.2 -10.85 247.2 -14.7 250.6 -14.7 267.75 -15.35 276.0 -14.75 276.05 -14.75 Q277.95 -14.3 279.65 -13.45 L279.65 -154.9 282.65 -154.9 282.65 -11.4 284.95 -9.05 Q285.55 -8.25 285.65 -7.25 L286.65 -6.55 286.65 -154.9 289.65 -154.9 289.65 -0.1 Q290.8 3.7 290.7 7.5 L290.7 16.6 304.85 16.25 315.1 -13.35 315.15 -13.35 325.7 16.25 357.05 17.05 332.2 36.2 338.4 56.95 Q352.7 76.25 352.65 99.0 L352.65 99.05 Q352.7 134.15 318.45 161.05 310.0 167.7 299.4 173.85 246.6 204.5 171.95 204.5 97.3 204.5 44.5 173.85 33.95 167.7 25.5 161.05 19.0 155.95 13.75 150.55 -8.7 127.5 -8.65 99.05 L-8.65 99.0 Q-8.7 75.55 6.5 55.8 L12.4 36.2 -12.55 17.05 18.9 16.25 29.3 -13.35 29.35 -13.35 39.75 16.25 51.2 16.55 40.75 -14.7 54.65 -14.7 54.65 -154.9 57.65 -154.9 57.65 -14.7 61.65 -14.7 61.65 -154.9 M127.3 -1.85 L127.3 -11.3 109.85 -11.3 109.85 -1.95 108.45 -4.0 108.5 -3.95 Q102.6 -12.0 94.05 -11.9 88.75 -11.95 84.4 -8.8 L85.25 -11.3 68.2 -11.3 65.45 -3.8 62.85 -11.3 45.45 -11.3 55.95 20.05 37.3 19.6 29.35 -3.15 29.3 -3.15 21.3 19.6 -2.85 20.2 4.2 25.6 16.3 34.9 9.8 56.55 Q6.25 61.0 3.5 65.7 -5.6 81.25 -5.65 99.0 L-5.65 99.05 Q-5.55 126.85 16.85 149.35 22.85 155.4 30.45 161.05 37.5 166.3 46.0 171.25 98.2 201.5 171.95 201.5 245.7 201.5 297.9 171.25 306.4 166.3 313.5 161.05 349.55 134.3 349.65 99.05 L349.65 99.0 Q349.6 81.25 340.5 65.7 338.05 61.6 335.05 57.65 L328.25 34.9 340.35 25.6 347.35 20.2 323.25 19.6 315.2 -3.15 315.15 -3.15 307.25 19.6 287.3 20.1 287.3 7.5 Q287.3 -0.55 283.1 -5.8 L283.15 -5.65 Q278.6 -12.0 272.0 -11.9 L268.05 -11.3 250.6 -11.3 250.6 -2.05 249.25 -4.0 249.3 -3.95 Q243.4 -12.0 234.85 -11.9 229.35 -11.95 224.95 -8.6 L225.75 -11.3 206.3 -11.3 204.1 -4.1 201.75 -4.1 200.35 -11.3 184.65 -11.3 183.25 -4.1 180.9 -4.1 178.75 -11.3 159.3 -11.3 161.7 -3.35 158.2 -3.2 148.9 -2.7 145.5 -2.45 145.5 -11.3 128.1 -11.3 128.1 -1.85 127.3 -1.85" fill="#191919" fill-rule="evenodd" stroke="none"/>
    <path d="M282.65 -154.9 L286.65 -154.9 286.65 -6.55 285.65 -7.25 Q285.55 -8.25 284.95 -9.05 L282.65 -11.4 282.65 -154.9 M57.65 -154.9 L61.65 -154.9 61.65 -14.7 57.65 -14.7 57.65 -154.9" fill="#454545" fill-rule="evenodd" stroke="none"/>
    <path d="M4.2 25.6 L-2.85 20.2 21.3 19.6 29.3 -3.15 29.35 -3.15 37.3 19.6 55.95 20.05 45.45 -11.3 62.85 -11.3 65.45 -3.8 68.2 -11.3 85.25 -11.3 84.4 -8.8 Q88.75 -11.95 94.05 -11.9 102.6 -12.0 108.5 -3.95 L108.45 -4.0 109.85 -1.95 109.85 -11.3 127.3 -11.3 127.3 -1.85 127.3 19.3 127.3 19.6 127.45 19.75 127.7 19.9 127.85 19.8 128.15 19.55 128.1 19.3 128.1 -1.85 128.1 -11.3 145.5 -11.3 145.5 -2.45 145.5 1.05 145.5 20.65 Q145.5 23.25 144.9 25.6 L141.4 25.6 Q142.1 23.3 142.1 20.65 L142.1 17.85 142.1 14.85 142.1 9.1 142.1 -7.9 131.5 -7.9 131.5 9.1 131.5 14.85 131.5 17.85 131.5 19.3 Q131.5 21.1 130.35 22.1 129.25 23.3 127.7 23.3 126.15 23.3 125.0 22.1 123.9 21.1 123.9 19.3 L123.9 17.85 123.9 14.85 123.9 9.1 123.9 -7.9 113.25 -7.9 113.25 9.1 113.25 14.85 113.25 17.85 113.25 20.65 Q113.25 23.3 114.0 25.6 L107.95 25.6 Q109.7 22.1 110.3 17.85 L110.55 14.85 110.55 14.1 110.55 13.6 110.25 9.1 Q109.35 2.8 105.75 -1.95 100.95 -8.5 94.05 -8.5 87.2 -8.5 82.3 -1.95 78.7 2.85 77.8 9.1 77.45 11.25 77.45 13.6 L77.45 14.1 77.5 14.85 77.75 17.85 Q78.3 22.05 80.1 25.6 L76.35 25.6 Q75.25 23.0 74.7 20.15 L74.1 21.85 74.1 25.6 70.7 25.6 70.7 21.3 71.85 17.85 72.85 14.85 74.8 9.1 80.5 -7.9 70.55 -7.9 65.35 6.3 60.4 -7.9 50.15 -7.9 55.85 9.1 57.8 14.85 58.8 17.85 60.05 21.65 60.05 25.6 56.65 25.6 56.65 24.7 56.65 23.85 54.4 25.6 48.8 25.6 51.7 23.35 34.85 22.95 29.3 7.05 23.7 22.95 6.85 23.35 9.8 25.6 4.2 25.6 M161.7 -3.35 L159.3 -11.3 178.75 -11.3 180.9 -4.1 182.35 0.65 183.25 -4.1 184.65 -11.3 200.35 -11.3 201.75 -4.1 202.7 0.65 204.1 -4.1 206.3 -11.3 225.75 -11.3 224.95 -8.6 Q229.35 -11.95 234.85 -11.9 243.4 -12.0 249.3 -3.95 L249.25 -4.0 250.6 -2.05 250.6 -11.3 268.05 -11.3 272.0 -11.9 Q278.6 -12.0 283.15 -5.65 L283.1 -5.8 Q287.3 -0.55 287.3 7.5 L287.3 20.1 307.25 19.6 315.15 -3.15 315.2 -3.15 323.25 19.6 347.35 20.2 340.35 25.6 334.75 25.6 337.65 23.35 320.8 22.95 315.2 7.05 309.65 22.95 292.8 23.35 295.75 25.6 290.15 25.6 287.3 23.45 287.3 24.75 287.3 25.6 283.9 25.6 283.9 17.85 283.9 14.85 283.9 9.1 283.9 7.5 Q283.9 0.75 280.4 -3.7 276.95 -8.5 272.0 -8.5 267.95 -8.5 264.65 -5.05 L264.65 -7.9 254.0 -7.9 254.0 9.1 254.0 14.85 254.0 17.85 254.0 25.6 248.75 25.6 Q250.5 22.1 251.1 17.85 L251.35 14.85 251.35 14.1 251.35 13.6 251.05 9.1 Q250.15 2.8 246.55 -1.95 241.75 -8.5 234.85 -8.5 228.0 -8.5 223.1 -1.95 219.5 2.85 218.6 9.1 218.25 11.25 218.25 13.6 L218.25 14.1 218.3 14.85 218.55 17.85 Q219.1 22.05 220.9 25.6 L217.15 25.6 Q216.3 23.7 215.8 21.6 L214.6 25.6 211.05 25.6 213.35 17.85 214.25 14.85 216.0 9.1 221.15 -7.9 208.8 -7.9 203.7 9.1 201.95 14.8 200.85 9.1 197.55 -7.9 187.45 -7.9 184.15 9.1 183.05 14.8 181.35 9.1 176.2 -7.9 163.85 -7.9 169.0 9.1 170.75 14.85 171.65 17.85 174.0 25.6 170.45 25.6 167.8 16.85 162.75 0.15 161.7 -3.35 M273.25 25.6 L269.85 25.6 269.85 22.4 269.85 10.55 Q269.85 9.4 269.45 8.75 L269.3 8.55 268.95 8.1 268.75 8.3 Q268.2 9.0 268.05 10.0 L268.05 22.4 268.05 25.6 264.65 25.6 264.65 17.85 264.65 14.85 264.65 9.8 264.75 9.1 Q265.1 7.35 266.05 6.15 267.3 4.7 268.95 4.7 270.65 4.7 272.0 6.5 272.9 7.5 273.15 9.1 L273.25 10.55 273.25 14.85 273.25 17.85 273.25 25.6 M236.3 10.0 Q235.65 9.2 234.85 9.1 234.0 9.15 233.4 9.9 L233.35 10.0 Q232.3 11.55 232.3 13.6 L232.35 14.1 Q232.45 15.95 233.35 17.2 234.0 18.1 234.8 18.25 L234.85 18.25 235.55 17.95 236.3 17.2 236.35 17.1 Q237.2 15.95 237.3 14.1 L237.3 13.6 Q237.35 11.55 236.3 10.0 M229.95 9.1 L230.6 7.95 Q232.3 5.7 234.85 5.7 237.3 5.7 239.0 7.95 L239.7 9.1 Q240.7 11.1 240.7 13.6 L240.7 14.1 240.65 14.85 Q240.5 16.55 239.9 17.85 L239.0 19.25 Q237.2 21.65 234.85 21.65 232.4 21.65 230.6 19.25 L229.75 17.85 Q229.15 16.5 228.95 14.85 L228.9 14.1 228.9 13.6 Q228.9 11.15 229.95 9.1 M191.1 25.6 L192.5 18.25 193.95 25.6 191.1 25.6 M92.55 10.0 L92.15 10.65 Q91.5 12.0 91.5 13.6 L91.55 14.1 Q91.65 15.95 92.55 17.2 93.2 18.1 94.05 18.25 L95.5 17.2 95.55 17.1 Q96.4 15.95 96.5 14.1 L96.5 13.6 Q96.55 11.55 95.5 10.0 L95.3 9.75 Q94.75 9.2 94.05 9.1 93.2 9.15 92.6 9.9 L92.55 10.0 M89.15 9.1 Q89.4 8.5 89.8 7.95 91.5 5.7 94.05 5.7 96.5 5.7 98.2 7.95 L98.9 9.1 Q99.9 11.1 99.9 13.6 L99.9 14.1 99.85 14.85 Q99.7 16.55 99.1 17.85 L98.2 19.25 Q96.4 21.65 94.05 21.65 91.6 21.65 89.8 19.25 L88.95 17.85 Q88.35 16.5 88.15 14.85 L88.1 14.1 88.1 13.6 Q88.1 11.15 89.15 9.1" fill="#c68600" fill-rule="evenodd" stroke="none"/>
    <path d="M9.8 25.6 L6.85 23.35 23.7 22.95 29.3 7.05 34.85 22.95 51.7 23.35 48.8 25.6 42.9 30.1 15.65 30.1 9.8 25.6 M58.8 17.85 L57.8 14.85 72.85 14.85 71.85 17.85 58.8 17.85 M55.85 9.1 L50.15 -7.9 60.4 -7.9 65.35 6.3 70.55 -7.9 80.5 -7.9 74.8 9.1 55.85 9.1 M77.75 17.85 L77.5 14.85 88.15 14.85 Q88.35 16.5 88.95 17.85 L77.75 17.85 M77.8 9.1 Q78.7 2.85 82.3 -1.95 87.2 -8.5 94.05 -8.5 100.95 -8.5 105.75 -1.95 109.35 2.8 110.25 9.1 L98.9 9.1 98.2 7.95 Q96.5 5.7 94.05 5.7 91.5 5.7 89.8 7.95 89.4 8.5 89.15 9.1 L77.8 9.1 M110.55 14.85 L110.3 17.85 99.1 17.85 Q99.7 16.55 99.85 14.85 L110.55 14.85 M113.25 17.85 L113.25 14.85 123.9 14.85 123.9 17.85 113.25 17.85 M113.25 9.1 L113.25 -7.9 123.9 -7.9 123.9 9.1 113.25 9.1 M131.5 17.85 L131.5 14.85 142.1 14.85 142.1 17.85 131.5 17.85 M131.5 9.1 L131.5 -7.9 142.1 -7.9 142.1 9.1 131.5 9.1 M171.65 17.85 L170.75 14.85 214.25 14.85 213.35 17.85 171.65 17.85 M169.0 9.1 L163.85 -7.9 176.2 -7.9 181.35 9.1 169.0 9.1 M184.15 9.1 L187.45 -7.9 197.55 -7.9 200.85 9.1 184.15 9.1 M203.7 9.1 L208.8 -7.9 221.15 -7.9 216.0 9.1 203.7 9.1 M218.55 17.85 L218.3 14.85 228.95 14.85 Q229.15 16.5 229.75 17.85 L218.55 17.85 M218.6 9.1 Q219.5 2.85 223.1 -1.95 228.0 -8.5 234.85 -8.5 241.75 -8.5 246.55 -1.95 250.15 2.8 251.05 9.1 L239.7 9.1 239.0 7.95 Q237.3 5.7 234.85 5.7 232.3 5.7 230.6 7.95 L229.95 9.1 218.6 9.1 M251.35 14.85 L251.1 17.85 239.9 17.85 Q240.5 16.55 240.65 14.85 L251.35 14.85 M254.0 17.85 L254.0 14.85 264.65 14.85 264.65 17.85 254.0 17.85 M254.0 9.1 L254.0 -7.9 264.65 -7.9 264.65 -5.05 Q267.95 -8.5 272.0 -8.5 276.95 -8.5 280.4 -3.7 283.9 0.75 283.9 7.5 L283.9 9.1 273.15 9.1 Q272.9 7.5 272.0 6.5 270.65 4.7 268.95 4.7 267.3 4.7 266.05 6.15 265.1 7.35 264.75 9.1 L254.0 9.1 M283.9 14.85 L283.9 17.85 273.25 17.85 273.25 14.85 283.9 14.85 M295.75 25.6 L292.8 23.35 309.65 22.95 315.2 7.05 320.8 22.95 337.65 23.35 334.75 25.6 326.25 32.1 304.2 32.1 295.75 25.6" fill="#ffec64" fill-rule="evenodd" stroke="none"/>
    <path d="M4.2 25.6 L9.8 25.6 15.65 30.1 20.2 33.6 15.4 49.65 29.3 40.15 43.15 49.65 38.35 33.6 42.9 30.1 48.8 25.6 54.4 25.6 53.15 26.55 42.3 34.9 49.2 57.9 49.15 57.9 29.3 44.3 19.55 50.95 9.4 57.9 9.8 56.55 16.3 34.9 4.2 25.6 M56.65 25.6 L60.05 25.6 60.05 35.1 70.7 35.1 70.7 25.6 74.1 25.6 74.1 38.5 56.65 38.5 56.65 25.6 M76.35 25.6 L80.1 25.6 Q81.05 27.45 82.3 29.15 87.1 35.55 94.05 35.55 101.0 35.55 105.75 29.15 L107.95 25.6 114.0 25.6 Q115.05 28.8 117.5 31.25 121.65 35.5 127.7 35.5 133.65 35.5 137.9 31.25 140.35 28.8 141.4 25.6 L144.9 25.6 Q143.75 30.2 140.35 33.65 L140.3 33.65 Q135.05 38.9 127.7 38.9 120.25 38.9 115.1 33.65 112.25 30.8 110.95 27.25 L108.5 31.2 108.45 31.2 Q102.6 39.05 94.05 38.95 85.45 39.05 79.6 31.2 77.6 28.6 76.35 25.6 M128.1 -1.85 L128.1 19.3 128.15 19.55 127.85 19.8 127.7 19.9 127.45 19.75 127.3 19.6 127.3 19.3 127.3 -1.85 128.1 -1.85 M170.45 25.6 L174.0 25.6 176.85 35.1 189.3 35.1 191.1 25.6 193.95 25.6 195.8 35.1 208.15 35.1 211.05 25.6 214.6 25.6 214.15 27.0 210.7 38.5 193.0 38.5 192.55 36.2 192.15 38.5 186.9 38.5 184.0 38.5 174.35 38.5 170.45 25.6 M217.15 25.6 L220.9 25.6 Q221.85 27.45 223.1 29.15 227.9 35.55 234.85 35.55 241.8 35.55 246.55 29.15 L248.75 25.6 254.0 25.6 254.0 35.1 264.65 35.1 264.65 25.6 268.05 25.6 268.05 38.5 250.6 38.5 250.6 29.25 249.3 31.2 249.25 31.2 Q243.4 39.05 234.85 38.95 232.0 39.0 229.45 38.15 224.3 36.45 220.4 31.2 218.45 28.65 217.2 25.7 L217.15 25.6 M283.9 25.6 L287.3 25.6 287.3 38.5 269.85 38.5 269.85 25.6 273.25 25.6 273.25 35.1 283.9 35.1 283.9 25.6 M290.15 25.6 L295.75 25.6 304.2 32.1 306.15 33.6 301.35 49.65 315.2 40.15 329.1 49.65 324.3 33.6 326.25 32.1 334.75 25.6 340.35 25.6 328.25 34.9 335.05 57.65 335.1 57.9 319.3 47.1 315.2 44.3 295.35 57.9 300.55 40.45 302.25 34.9 292.85 27.7 290.15 25.6 M204.1 -4.1 L202.7 0.65 201.75 -4.1 204.1 -4.1 M183.25 -4.1 L182.35 0.65 180.9 -4.1 183.25 -4.1 M268.05 22.4 L268.05 10.0 Q268.2 9.0 268.75 8.3 L268.95 8.1 269.3 8.55 269.45 8.75 Q269.85 9.4 269.85 10.55 L269.85 22.4 268.05 22.4 M236.3 10.0 Q237.35 11.55 237.3 13.6 L237.3 14.1 Q237.2 15.95 236.35 17.1 L236.3 17.2 235.55 17.95 234.85 18.25 234.8 18.25 Q234.0 18.1 233.35 17.2 232.45 15.95 232.35 14.1 L232.3 13.6 Q232.3 11.55 233.35 10.0 L233.4 9.9 Q234.0 9.15 234.85 9.1 235.65 9.2 236.3 10.0 M92.55 10.0 L92.6 9.9 Q93.2 9.15 94.05 9.1 94.75 9.2 95.3 9.75 L95.5 10.0 Q96.55 11.55 96.5 13.6 L96.5 14.1 Q96.4 15.95 95.55 17.1 L95.5 17.2 94.05 18.25 Q93.2 18.1 92.55 17.2 91.65 15.95 91.55 14.1 L91.5 13.6 Q91.5 12.0 92.15 10.65 L92.55 10.0" fill="#8a5000" fill-rule="evenodd" stroke="none"/>
    <path d="M54.4 25.6 L56.65 23.85 56.65 24.7 53.15 26.55 54.4 25.6 M60.05 25.6 L60.05 21.65 58.8 17.85 71.85 17.85 70.7 21.3 70.7 25.6 70.7 35.1 60.05 35.1 60.05 25.6 M57.8 14.85 L55.85 9.1 74.8 9.1 72.85 14.85 57.8 14.85 M80.1 25.6 Q78.3 22.05 77.75 17.85 L88.95 17.85 89.8 19.25 Q91.6 21.65 94.05 21.65 96.4 21.65 98.2 19.25 L99.1 17.85 110.3 17.85 Q109.7 22.1 107.95 25.6 L105.75 29.15 Q101.0 35.55 94.05 35.55 87.1 35.55 82.3 29.15 81.05 27.45 80.1 25.6 M77.5 14.85 L77.45 14.1 77.45 13.6 Q77.45 11.25 77.8 9.1 L89.15 9.1 Q88.1 11.15 88.1 13.6 L88.1 14.1 88.15 14.85 77.5 14.85 M110.25 9.1 L110.55 13.6 110.55 14.1 110.55 14.85 99.85 14.85 99.9 14.1 99.9 13.6 Q99.9 11.1 98.9 9.1 L110.25 9.1 M114.0 25.6 Q113.25 23.3 113.25 20.65 L113.25 17.85 123.9 17.85 123.9 19.3 Q123.9 21.1 125.0 22.1 126.15 23.3 127.7 23.3 129.25 23.3 130.35 22.1 131.5 21.1 131.5 19.3 L131.5 17.85 142.1 17.85 142.1 20.65 Q142.1 23.3 141.4 25.6 140.35 28.8 137.9 31.25 133.65 35.5 127.7 35.5 121.65 35.5 117.5 31.25 115.05 28.8 114.0 25.6 M113.25 14.85 L113.25 9.1 123.9 9.1 123.9 14.85 113.25 14.85 M131.5 14.85 L131.5 9.1 142.1 9.1 142.1 14.85 131.5 14.85 M145.5 1.05 L145.5 -2.45 148.9 -2.7 158.2 -3.2 161.7 -3.35 162.75 0.15 159.25 0.25 148.9 0.8 145.5 1.05 M174.0 25.6 L171.65 17.85 213.35 17.85 211.05 25.6 208.15 35.1 195.8 35.1 193.95 25.6 192.5 18.25 191.1 25.6 189.3 35.1 176.85 35.1 174.0 25.6 M170.75 14.85 L169.0 9.1 181.35 9.1 183.05 14.8 184.15 9.1 200.85 9.1 201.95 14.8 203.7 9.1 216.0 9.1 214.25 14.85 170.75 14.85 M220.9 25.6 Q219.1 22.05 218.55 17.85 L229.75 17.85 230.6 19.25 Q232.4 21.65 234.85 21.65 237.2 21.65 239.0 19.25 L239.9 17.85 251.1 17.85 Q250.5 22.1 248.75 25.6 L246.55 29.15 Q241.8 35.55 234.85 35.55 227.9 35.55 223.1 29.15 221.85 27.45 220.9 25.6 M218.3 14.85 L218.25 14.1 218.25 13.6 Q218.25 11.25 218.6 9.1 L229.95 9.1 Q228.9 11.15 228.9 13.6 L228.9 14.1 228.95 14.85 218.3 14.85 M251.05 9.1 L251.35 13.6 251.35 14.1 251.35 14.85 240.65 14.85 240.7 14.1 240.7 13.6 Q240.7 11.1 239.7 9.1 L251.05 9.1 M254.0 25.6 L254.0 17.85 264.65 17.85 264.65 25.6 264.65 35.1 254.0 35.1 254.0 25.6 M254.0 14.85 L254.0 9.1 264.75 9.1 264.65 9.8 264.65 14.85 254.0 14.85 M283.9 9.1 L283.9 14.85 273.25 14.85 273.25 10.55 273.15 9.1 283.9 9.1 M283.9 17.85 L283.9 25.6 283.9 35.1 273.25 35.1 273.25 25.6 273.25 17.85 283.9 17.85 M287.3 24.75 L287.3 23.45 290.15 25.6 292.85 27.7 287.3 24.75 M326.25 32.1 L324.3 33.6 329.1 49.65 315.2 40.15 301.35 49.65 306.15 33.6 304.2 32.1 326.25 32.1 M319.3 47.1 L335.1 57.9 335.05 57.65 Q338.05 61.6 340.5 65.7 349.6 81.25 349.65 99.0 L349.65 99.05 343.95 99.05 344.0 96.0 343.9 92.05 343.75 90.4 333.2 61.65 Q330.9 58.3 328.15 55.05 L327.8 54.65 319.3 47.1 M-5.65 99.05 L-5.65 99.0 Q-5.6 81.25 3.5 65.7 6.25 61.0 9.8 56.55 L9.4 57.9 19.55 50.95 15.85 55.05 Q13.55 57.75 11.6 60.55 0.0 76.95 0.0 96.0 L0.1 99.05 -5.65 99.05 M42.9 30.1 L38.35 33.6 43.15 49.65 29.3 40.15 15.4 49.65 20.2 33.6 15.65 30.1 42.9 30.1" fill="#fbdd37" fill-rule="evenodd" stroke="none"/>
    <path d="M319.3 47.1 L327.8 54.65 328.15 55.05 Q330.9 58.3 333.2 61.65 L343.75 90.4 343.9 92.05 344.0 96.0 343.95 99.05 Q342.15 134.85 298.55 161.05 L293.6 163.9 Q243.2 192.05 171.95 192.05 100.7 192.05 50.3 163.9 L45.4 161.05 Q41.35 158.65 37.75 156.15 86.4 135.35 134.9 114.15 L117.85 171.45 172.05 134.2 226.2 171.45 207.45 108.45 259.65 68.45 239.5 67.95 268.2 55.05 300.55 40.45 295.35 57.9 315.2 44.3 319.3 47.1 M229.45 38.15 L190.0 55.5 184.35 39.6 186.9 38.5 192.15 38.5 192.55 36.2 193.0 38.5 210.7 38.5 214.15 27.0 217.2 25.7 Q218.45 28.65 220.4 31.2 224.3 36.45 229.45 38.15 M112.15 89.7 L12.95 133.35 Q6.7 125.0 3.45 116.05 L95.65 77.05 112.15 89.7 M118.1 67.6 L155.4 51.8 150.1 66.75 118.1 67.6" fill="#f4f4f4" fill-rule="evenodd" stroke="none"/>
    <path d="M349.65 99.05 Q349.55 134.3 313.5 161.05 L298.55 161.05 Q342.15 134.85 343.95 99.05 L349.65 99.05 M30.45 161.05 Q22.85 155.4 16.85 149.35 -5.55 126.85 -5.65 99.05 L0.1 99.05 Q0.5 107.85 3.45 116.05 6.7 125.0 12.95 133.35 17.95 140.0 24.9 146.2 30.65 151.35 37.75 156.15 41.35 158.65 45.4 161.05 L30.45 161.05" fill="#e3c204" fill-rule="evenodd" stroke="none"/>
    <path d="M56.65 24.7 L56.65 25.6 56.65 38.5 74.1 38.5 74.1 25.6 74.1 21.85 74.7 20.15 Q75.25 23.0 76.35 25.6 77.6 28.6 79.6 31.2 85.45 39.05 94.05 38.95 102.6 39.05 108.45 31.2 L108.5 31.2 110.95 27.25 Q112.25 30.8 115.1 33.65 120.25 38.9 127.7 38.9 135.05 38.9 140.3 33.65 L140.35 33.65 Q143.75 30.2 144.9 25.6 145.5 23.25 145.5 20.65 L145.5 1.05 148.9 0.8 159.25 0.25 162.75 0.15 167.8 16.85 155.4 51.8 118.1 67.6 84.4 68.45 95.65 77.05 3.45 116.05 Q0.5 107.85 0.1 99.05 L0.0 96.0 Q0.0 76.95 11.6 60.55 13.55 57.75 15.85 55.05 L19.55 50.95 29.3 44.3 49.15 57.9 49.2 57.9 42.3 34.9 53.15 26.55 56.65 24.7 M214.6 25.6 L215.8 21.6 Q216.3 23.7 217.15 25.6 L217.2 25.7 214.15 27.0 214.6 25.6 M287.3 25.6 L287.3 24.75 292.85 27.7 302.25 34.9 300.55 40.45 268.2 55.05 239.5 67.95 193.95 66.75 190.0 55.5 229.45 38.15 Q232.0 39.0 234.85 38.95 243.4 39.05 249.25 31.2 L249.3 31.2 250.6 29.25 250.6 38.5 268.05 38.5 268.05 25.6 268.05 22.4 269.85 22.4 269.85 25.6 269.85 38.5 287.3 38.5 287.3 25.6 M134.9 114.15 Q86.4 135.35 37.75 156.15 30.65 151.35 24.9 146.2 17.95 140.0 12.95 133.35 L112.15 89.7 136.6 108.45 134.9 114.15 M184.0 38.5 L186.9 38.5 184.35 39.6 184.0 38.5" fill="#ffffff" fill-rule="evenodd" stroke="none"/>
    <path d="M167.8 16.85 L170.45 25.6 174.35 38.5 184.0 38.5 184.35 39.6 155.4 51.8 167.8 16.85 M190.0 55.5 L193.95 66.75 239.5 67.95 Q187.3 91.25 134.9 114.15 L136.6 108.45 112.15 89.7 190.0 55.5 M95.65 77.05 L84.4 68.45 118.1 67.6 95.65 77.05" fill="#fffbbf" fill-rule="evenodd" stroke="none"/>
    <path d="M239.5 67.95 L259.65 68.45 207.45 108.45 226.2 171.45 172.05 134.2 117.85 171.45 134.9 114.15 Q187.3 91.25 239.5 67.95 M184.35 39.6 L190.0 55.5 112.15 89.7 95.65 77.05 118.1 67.6 150.1 66.75 155.4 51.8 184.35 39.6" fill="#fff895" fill-rule="evenodd" stroke="none"/>
    <path d="M313.5 161.05 Q306.4 166.3 297.9 171.25 245.7 201.5 171.95 201.5 98.2 201.5 46.0 171.25 37.5 166.3 30.45 161.05 L45.4 161.05 50.3 163.9 Q100.7 192.05 171.95 192.05 243.2 192.05 293.6 163.9 L298.55 161.05 313.5 161.05" fill="#c7a903" fill-rule="evenodd" stroke="none"/>
  </g>
</svg>
