<?xml version="1.0" encoding="UTF-8" standalone="no"?>
<svg xmlns:ffdec="https://www.free-decompiler.com/flash" xmlns:xlink="http://www.w3.org/1999/xlink" ffdec:objectType="shape" height="50.45px" width="64.85px" xmlns="http://www.w3.org/2000/svg">
  <g transform="matrix(1.0, 0.0, 0.0, 1.0, 0.4, 6.6)">
    <path d="M48.75 7.75 L50.8 8.8 Q55.4 11.45 55.65 14.5 55.85 18.25 48.25 22.85 40.45 27.6 29.9 28.25 23.65 28.65 19.15 28.0 16.05 27.55 13.75 26.55 8.35 24.25 8.2 19.0 8.05 13.7 14.75 9.65 16.8 8.4 19.15 7.45 24.55 5.3 31.45 4.85 L31.5 4.85 34.1 4.75 36.2 4.8 Q43.05 5.05 48.4 7.55 L48.75 7.75" fill="#ffffff" fill-rule="evenodd" stroke="none"/>
    <path d="M37.05 -3.35 Q40.5 -5.45 44.85 -5.05 49.2 -4.65 52.6 -2.55 55.75 -0.6 57.9 1.85 57.1 3.45 55.2 4.95 L54.3 4.4 Q45.8 -0.95 34.4 -0.75 35.05 -2.2 37.05 -3.35 M53.85 5.85 L55.2 6.75 Q62.55 11.95 62.95 17.85 63.2 24.45 53.3 32.6 L49.35 35.45 Q40.5 41.1 29.35 42.1 15.55 43.3 8.35 39.1 1.3 35.0 1.1 25.8 0.9 16.45 9.65 9.3 13.9 5.75 19.15 3.7 24.75 1.45 31.4 0.9 L31.45 0.9 32.55 0.85 34.1 0.75 Q45.2 0.45 53.5 5.65 L53.85 5.85 M52.5 8.2 L50.95 7.35 50.75 7.25 Q44.05 3.85 35.25 3.75 L33.4 3.75 31.35 3.85 31.3 3.85 Q24.6 4.3 19.15 6.35 15.25 7.8 11.95 10.05 4.15 15.3 4.35 22.15 4.5 28.9 10.8 31.95 14.15 33.55 19.15 34.1 23.65 34.55 29.45 34.15 41.7 33.25 50.8 27.15 59.6 21.15 59.35 16.3 59.0 12.0 52.5 8.2" fill="#d3d3d3" fill-rule="evenodd" stroke="none"/>
    <path d="M37.05 -3.35 Q35.05 -2.2 34.4 -0.75 45.8 -0.95 54.3 4.4 L55.2 4.95 Q57.1 3.45 57.9 1.85 55.75 -0.6 52.6 -2.55 49.2 -4.65 44.85 -5.05 40.5 -5.45 37.05 -3.35 M31.3 -0.6 L32.75 -0.7 Q33.35 -2.9 36.3 -4.65 40.1 -6.95 45.0 -6.55 49.7 -6.15 53.4 -3.8 57.0 -1.55 59.35 1.25 L59.5 1.6 59.45 2.0 Q58.7 4.0 56.45 5.85 64.15 11.35 64.45 17.75 64.9 24.95 54.25 33.75 L52.0 35.45 Q42.2 42.45 29.5 43.6 15.15 44.8 7.6 40.4 -0.2 35.9 -0.4 25.85 -0.7 15.85 8.7 8.15 13.35 4.25 19.15 2.1 24.7 -0.05 31.3 -0.6 M53.85 5.85 L53.5 5.65 Q45.2 0.45 34.1 0.75 L32.55 0.85 31.45 0.9 31.4 0.9 Q24.75 1.45 19.15 3.7 13.9 5.75 9.65 9.3 0.9 16.45 1.1 25.8 1.3 35.0 8.35 39.1 15.55 43.3 29.35 42.1 40.5 41.1 49.35 35.45 L53.3 32.6 Q63.2 24.45 62.95 17.85 62.55 11.95 55.2 6.75 L53.85 5.85" fill="#525252" fill-rule="evenodd" stroke="none"/>
    <path d="M52.5 8.2 Q59.0 12.0 59.35 16.3 59.6 21.15 50.8 27.15 41.7 33.25 29.45 34.15 23.65 34.55 19.15 34.1 14.15 33.55 10.8 31.95 4.5 28.9 4.35 22.15 4.15 15.3 11.95 10.05 15.25 7.8 19.15 6.35 24.6 4.3 31.3 3.85 L31.35 3.85 33.4 3.75 35.25 3.75 Q44.05 3.85 50.75 7.25 L50.95 7.35 52.5 8.2 M48.75 7.75 L48.4 7.55 Q43.05 5.05 36.2 4.8 L34.1 4.75 31.5 4.85 31.45 4.85 Q24.55 5.3 19.15 7.45 16.8 8.4 14.75 9.65 8.05 13.7 8.2 19.0 8.35 24.25 13.75 26.55 16.05 27.55 19.15 28.0 23.65 28.65 29.9 28.25 40.45 27.6 48.25 22.85 55.85 18.25 55.65 14.5 55.4 11.45 50.8 8.8 L48.75 7.75" fill="#e9e9e9" fill-rule="evenodd" stroke="none"/>
  </g>
</svg>
