<?xml version="1.0" encoding="UTF-8" standalone="no"?>
<svg xmlns:ffdec="https://www.free-decompiler.com/flash" xmlns:xlink="http://www.w3.org/1999/xlink" ffdec:objectType="shape" height="180.25px" width="144.6px" xmlns="http://www.w3.org/2000/svg">
  <g transform="matrix(1.0, 0.0, 0.0, 1.0, 86.3, 138.25)">
    <path d="M1.8 -125.0 L1.7 -123.3 1.55 -121.1 -1.75 -99.05 -28.1 -91.15 Q-25.5 -99.05 -22.15 -106.7 L-20.75 -109.95 Q-17.7 -116.85 -13.9 -123.3 -11.2 -127.1 -8.15 -130.7 -5.65 -133.6 -7.3 -136.9 L-5.55 -136.85 -3.9 -136.45 -0.45 -135.4 Q1.05 -132.15 1.6 -128.5 L1.8 -126.75 1.8 -125.0 M4.95 -114.2 L6.1 -115.9 Q8.05 -118.5 11.0 -119.9 L12.7 -118.4 Q14.85 -116.7 16.6 -114.65 L18.65 -112.4 Q27.1 -103.25 30.7 -90.9 34.2 -79.05 37.3 -67.05 40.45 -54.95 41.35 -42.45 42.2 -30.85 42.2 -19.35 42.2 -17.1 41.05 -16.0 36.9 -11.85 31.35 -8.95 L29.65 -8.15 21.45 -6.95 14.85 -20.15 14.25 -20.3 13.55 -19.8 9.95 -5.85 -11.15 -5.0 -18.2 -5.05 -34.15 -5.5 -39.15 -5.85 -39.0 -16.7 -38.75 -23.45 Q-38.6 -30.8 -37.9 -38.05 -37.15 -40.85 -35.7 -43.25 L-34.15 -45.9 -33.65 -46.8 -28.75 -56.05 Q-23.95 -65.6 -18.5 -74.65 -14.35 -81.45 -12.4 -88.9 L-1.35 -97.1 -0.15 -97.6 0.95 -103.35 0.85 -102.5 1.85 -102.7 2.3 -103.45 Q4.05 -107.5 4.2 -112.2 L4.85 -111.75 5.15 -112.25 Q5.55 -113.25 4.95 -114.2 M6.45 -106.55 L5.85 -109.45 4.95 -109.6 6.15 -106.3 Q6.6 -105.9 6.45 -106.55 M6.55 -103.75 Q6.1 -103.8 6.0 -103.35 L5.95 -102.2 Q3.15 -95.8 -3.85 -92.45 -6.9 -91.0 -8.55 -88.35 L-8.8 -87.7 -7.55 -86.4 -6.75 -81.1 -15.2 -80.65 -16.5 -74.6 -8.55 -74.3 -13.2 -73.4 Q-13.7 -67.3 -14.5 -61.2 L-14.75 -60.0 Q-6.3 -57.8 3.65 -59.3 4.5 -59.55 5.2 -58.9 L4.85 -57.7 Q-6.0 -55.85 -16.35 -58.6 L-16.4 -63.85 -16.6 -69.05 -17.4 -71.05 Q-24.1 -59.3 -29.1 -46.8 L-32.9 -36.55 Q-33.8 -33.85 -34.15 -30.9 L-34.25 -29.95 Q-35.15 -19.25 -35.35 -8.75 L-34.15 -8.35 Q-32.0 -7.7 -29.75 -7.8 L-31.3 -27.45 -31.15 -27.05 -29.45 -23.55 -1.4 -37.5 Q-1.15 -35.9 -1.9 -34.4 L-2.5 -33.55 -3.0 -35.0 Q-13.85 -30.15 -22.1 -22.85 -22.85 -22.2 -22.85 -21.0 L-22.95 -7.85 -2.3 -8.05 -1.5 -13.1 -0.75 -13.15 -0.2 -12.45 -0.1 -8.05 7.1 -8.4 Q10.75 -15.6 13.3 -23.35 L13.9 -24.4 13.9 -22.4 14.75 -22.05 14.9 -24.5 Q20.8 -19.25 22.85 -11.15 L23.5 -9.45 31.75 -10.95 31.35 -15.95 Q30.2 -30.2 28.65 -44.35 L28.4 -46.8 Q27.8 -51.35 26.8 -55.8 24.85 -64.85 23.4 -74.1 L23.55 -73.5 22.25 -80.05 22.45 -78.85 Q19.5 -93.6 11.45 -106.15 10.0 -108.35 7.75 -110.15 7.55 -106.7 6.55 -103.75 M1.4 -125.15 Q1.35 -129.4 -3.2 -131.5 L-4.5 -132.1 -10.15 -123.3 Q-15.9 -112.75 -21.95 -102.35 -24.25 -98.45 -26.1 -94.1 L-3.65 -100.7 Q-0.8 -111.9 1.05 -123.3 L1.4 -125.15 M25.45 -94.05 L25.75 -94.75 25.45 -95.45 Q25.15 -95.75 24.75 -95.75 L24.05 -95.45 Q23.75 -95.15 23.75 -94.75 23.75 -94.35 24.05 -94.05 24.35 -93.75 24.75 -93.75 25.15 -93.75 25.45 -94.05 M4.45 -77.1 L4.4 -75.3 -15.5 -75.3 -14.5 -79.8 -12.55 -79.9 Q-9.9 -75.25 -3.2 -77.25 L-0.35 -77.3 4.45 -77.1 M5.4 -76.05 Q6.4 -73.5 5.65 -71.1 L5.45 -70.6 5.0 -70.5 Q4.1 -71.25 3.85 -72.3 L3.5 -74.3 5.05 -74.3 5.4 -76.05 M36.0 -63.4 Q36.5 -63.95 36.5 -64.7 36.5 -65.45 36.0 -66.0 35.45 -66.55 34.7 -66.55 33.95 -66.55 33.45 -66.0 32.9 -65.45 32.9 -64.7 32.9 -63.95 33.45 -63.4 33.95 -62.85 34.7 -62.85 35.45 -62.85 36.0 -63.4 M31.8 -55.65 Q31.15 -55.3 31.95 -55.0 L32.9 -55.35 32.25 -56.15 31.8 -55.65 M36.15 -60.55 Q36.4 -60.3 36.75 -60.3 L37.4 -60.55 37.65 -61.15 37.4 -61.75 36.75 -62.0 36.15 -61.75 Q35.85 -61.5 35.85 -61.15 35.85 -60.8 36.15 -60.55 M38.05 -20.55 Q38.6 -21.1 38.6 -21.9 38.6 -22.7 38.05 -23.25 37.45 -23.8 36.65 -23.8 35.85 -23.8 35.3 -23.25 34.7 -22.7 34.7 -21.9 34.7 -21.1 35.3 -20.55 35.85 -20.0 36.65 -20.0 37.45 -20.0 38.05 -20.55 M-41.1 -116.35 Q-42.7 -115.75 -43.55 -113.95 L-46.4 -110.2 -46.4 -109.65 -45.0 -109.0 Q-41.55 -111.55 -40.25 -115.45 L-40.5 -116.4 -41.1 -116.35 M-59.8 -62.8 L-69.65 -10.4 -71.5 -10.9 Q-69.75 -22.1 -67.15 -32.95 -64.6 -43.6 -62.35 -54.4 -61.25 -59.75 -59.8 -62.8 M-28.95 -128.15 L-32.85 -123.3 Q-39.4 -112.95 -44.55 -101.7 L-46.45 -97.6 -49.4 -109.05 Q-43.65 -116.85 -36.15 -123.3 L-33.6 -125.1 -28.95 -128.15 M-16.35 -87.15 L-16.0 -86.35 -37.1 -48.35 -36.7 -51.5 -36.15 -55.15 Q-34.5 -66.05 -32.0 -76.8 L-29.0 -88.45 -28.85 -88.7 -18.35 -92.05 -17.05 -88.85 -26.75 -84.6 Q-29.55 -75.85 -31.85 -66.8 L-34.15 -57.0 Q-30.4 -63.7 -26.9 -70.6 -23.4 -77.5 -18.95 -83.8 L-16.35 -87.15 M-51.5 -89.0 L-51.0 -89.6 Q-48.75 -92.4 -49.5 -95.75 -51.9 -94.25 -52.25 -89.3 L-51.5 -89.0 M-60.55 -79.85 L-66.25 -80.85 -64.1 -85.4 -59.5 -84.65 -60.55 -79.85 M-60.25 -66.85 L-60.15 -66.0 Q-64.2 -54.2 -65.3 -41.65 -65.45 -39.95 -66.3 -38.4 -66.05 -51.7 -61.7 -64.75 L-60.75 -67.25 -60.25 -66.85 M-57.0 -67.7 L-52.7 -96.5 -49.0 -99.35 -47.7 -94.55 -57.0 -67.7 M-69.65 -28.3 L-80.85 -35.45 -80.05 -39.05 -68.8 -31.1 -69.65 -28.3 M-3.2 -38.95 L-2.55 -37.75 -29.1 -24.75 -30.25 -27.55 -24.8 -30.55 -24.4 -29.15 Q-14.0 -34.6 -3.2 -38.95" fill="#381628" fill-rule="evenodd" stroke="none"/>
    <path d="M5.95 -102.2 Q6.0 -100.7 7.1 -100.0 9.1 -100.7 7.0 -103.5 L6.8 -103.75 6.55 -103.75 Q7.55 -106.7 7.75 -110.15 10.0 -108.35 11.45 -106.15 19.5 -93.6 22.45 -78.85 L22.25 -80.05 23.55 -73.5 23.4 -74.1 Q24.85 -64.85 26.8 -55.8 27.8 -51.35 28.4 -46.8 L28.65 -44.35 Q30.2 -30.2 31.35 -15.95 L31.75 -10.95 23.5 -9.45 22.85 -11.15 Q20.8 -19.25 14.9 -24.5 L14.75 -25.75 13.9 -25.4 13.9 -24.4 13.3 -23.35 Q10.75 -15.6 7.1 -8.4 L-0.1 -8.05 -0.2 -12.45 -0.75 -13.15 -1.5 -13.1 -2.3 -8.05 -22.95 -7.85 -22.85 -21.0 Q-22.85 -22.2 -22.1 -22.85 -13.85 -30.15 -3.0 -35.0 L-2.5 -33.55 -1.9 -34.4 Q-1.15 -35.9 -1.4 -37.5 L-4.35 -42.8 -31.35 -27.95 -31.15 -27.05 -31.3 -27.45 -29.75 -7.8 Q-32.0 -7.7 -34.15 -8.35 L-35.35 -8.75 Q-35.15 -19.25 -34.25 -29.95 L-34.15 -30.9 Q-33.8 -33.85 -32.9 -36.55 L-29.1 -46.8 Q-24.1 -59.3 -17.4 -71.05 L-16.6 -69.05 -16.4 -63.85 -16.35 -58.6 Q-6.0 -55.85 4.85 -57.7 L5.2 -58.9 Q4.5 -59.55 3.65 -59.3 -6.3 -57.8 -14.75 -60.0 L-14.5 -61.2 Q-13.7 -67.3 -13.2 -73.4 L-8.55 -74.3 3.5 -74.3 3.85 -72.3 Q4.1 -71.25 5.0 -70.5 L5.45 -70.6 5.65 -71.1 Q6.4 -73.5 5.4 -76.05 L5.55 -81.3 -6.75 -81.1 -7.55 -86.4 -8.8 -87.7 -8.55 -88.35 Q-6.9 -91.0 -3.85 -92.45 3.15 -95.8 5.95 -102.2 M1.4 -125.15 L1.05 -123.3 Q-0.8 -111.9 -3.65 -100.7 L-26.1 -94.1 Q-24.25 -98.45 -21.95 -102.35 -15.9 -112.75 -10.15 -123.3 L-4.5 -132.1 -3.2 -131.5 Q1.35 -129.4 1.4 -125.15 M7.65 -98.0 L8.05 -94.15 8.7 -94.2 8.05 -97.55 7.65 -98.0 M3.45 -89.4 Q3.75 -89.05 4.25 -89.05 4.75 -89.05 5.1 -89.4 L5.4 -90.35 5.1 -91.25 Q4.75 -91.65 4.25 -91.65 3.75 -91.65 3.45 -91.25 3.1 -90.9 3.1 -90.35 3.1 -89.8 3.45 -89.4 M9.25 -88.0 Q11.05 -89.1 9.05 -91.8 6.85 -91.25 9.1 -88.15 L9.25 -88.0 M9.4 -85.8 L10.2 -82.1 10.3 -82.15 10.3 -85.55 9.9 -85.8 9.4 -85.8 M4.55 -79.0 L4.45 -77.1 -0.35 -77.3 -3.2 -77.25 Q-9.9 -75.25 -12.55 -79.9 L-7.55 -80.05 -7.55 -79.95 Q-1.85 -78.1 4.55 -79.0 M11.15 -76.05 Q13.1 -76.8 11.15 -79.55 8.75 -79.6 11.05 -76.05 L11.15 -76.05 M10.9 -73.45 Q10.25 -71.8 11.75 -70.0 13.25 -71.25 11.7 -73.75 11.1 -74.0 10.9 -73.45 M12.75 -67.4 L12.3 -68.0 Q12.05 -68.0 11.85 -67.4 L11.65 -66.0 11.85 -64.55 Q12.05 -64.0 12.3 -64.0 L12.75 -64.55 12.95 -66.0 12.75 -67.4 M12.45 -58.55 Q12.65 -58.0 12.9 -58.0 13.15 -58.0 13.35 -58.55 L13.55 -60.0 13.35 -61.4 12.9 -62.0 Q12.65 -62.0 12.45 -61.4 L12.25 -60.0 12.45 -58.55 M13.8 -55.4 L13.35 -56.0 Q13.1 -56.0 12.95 -55.4 L12.75 -54.0 12.95 -52.55 Q13.1 -52.0 13.35 -52.0 L13.8 -52.55 13.95 -54.0 13.8 -55.4 M10.25 -70.15 Q8.15 -66.6 9.0 -61.75 10.3 -54.25 10.55 -46.8 10.95 -34.75 8.7 -22.8 8.05 -19.3 9.4 -16.9 11.35 -19.4 11.85 -22.85 13.65 -34.4 12.65 -46.05 L12.6 -46.8 10.25 -70.15 M23.75 -51.65 Q24.3 -52.2 24.3 -52.95 24.3 -53.7 23.75 -54.2 23.15 -54.75 22.35 -54.75 21.55 -54.75 21.0 -54.2 20.4 -53.7 20.4 -52.95 20.4 -52.2 21.0 -51.65 21.55 -51.15 22.35 -51.15 23.15 -51.15 23.75 -51.65 M14.35 -48.0 L14.2 -49.4 13.75 -50.0 Q13.5 -50.0 13.35 -49.4 L13.15 -48.0 Q13.15 -47.3 13.3 -46.8 L13.35 -46.55 Q13.5 -46.0 13.75 -46.0 14.0 -46.0 14.2 -46.55 L14.25 -46.8 14.35 -48.0 M14.05 -43.95 Q13.8 -43.95 13.65 -43.35 13.5 -42.8 13.5 -41.95 13.5 -41.1 13.65 -40.5 13.8 -39.95 14.05 -39.95 14.3 -39.95 14.45 -40.5 L14.6 -41.95 14.45 -43.35 14.05 -43.95 M14.25 -38.0 Q14.0 -38.0 13.85 -37.4 13.7 -36.8 13.7 -35.95 13.7 -35.1 13.85 -34.5 14.0 -33.9 14.25 -33.9 L14.65 -34.5 14.8 -35.95 14.65 -37.4 14.25 -38.0 M5.3 -25.1 L5.5 -25.95 5.3 -26.8 4.75 -27.15 Q4.45 -27.15 4.25 -26.8 4.0 -26.45 4.0 -25.95 4.0 -25.45 4.25 -25.1 4.45 -24.75 4.75 -24.75 L5.3 -25.1 M6.0 -43.35 Q6.5 -44.05 6.5 -45.05 6.5 -46.05 6.0 -46.75 L5.95 -46.8 Q5.4 -47.45 4.7 -47.45 4.0 -47.45 3.5 -46.8 L3.45 -46.75 Q2.9 -46.05 2.9 -45.05 2.9 -44.05 3.45 -43.35 3.95 -42.65 4.7 -42.65 5.45 -42.65 6.0 -43.35 M14.4 -31.9 Q14.15 -31.9 14.0 -31.3 13.85 -30.75 13.85 -29.9 13.85 -29.05 14.0 -28.45 14.15 -27.9 14.4 -27.9 14.65 -27.9 14.8 -28.45 L14.95 -29.9 14.8 -31.3 14.4 -31.9 M-41.1 -116.35 L-40.5 -116.4 -40.25 -115.45 Q-41.55 -111.55 -45.0 -109.0 L-46.4 -109.65 -46.4 -110.2 -43.55 -113.95 Q-42.7 -115.75 -41.1 -116.35 M-7.75 -105.5 Q-7.5 -105.8 -7.5 -106.2 L-7.75 -106.85 -8.45 -107.15 Q-8.85 -107.15 -9.1 -106.85 L-9.4 -106.2 -9.1 -105.5 -8.45 -105.25 Q-8.05 -105.25 -7.75 -105.5 M-10.75 -109.45 L-10.55 -109.9 -10.75 -110.35 Q-11.0 -110.55 -11.35 -110.55 L-11.9 -110.35 -12.15 -109.9 -11.9 -109.45 -11.35 -109.25 Q-11.0 -109.25 -10.75 -109.45 M-6.2 -114.9 Q-5.55 -114.9 -5.1 -115.35 -4.65 -115.8 -4.65 -116.45 -4.65 -117.1 -5.1 -117.55 -5.55 -118.0 -6.2 -118.0 -6.85 -118.0 -7.3 -117.55 -7.75 -117.1 -7.75 -116.45 -7.75 -115.8 -7.3 -115.35 -6.85 -114.9 -6.2 -114.9 M-0.05 -121.8 L-0.75 -122.55 Q-2.95 -116.2 -4.5 -109.55 -5.0 -107.35 -6.5 -106.0 -12.85 -100.45 -21.15 -97.9 L-21.15 -97.3 Q-14.6 -97.0 -7.55 -100.9 -6.2 -101.65 -5.5 -102.8 -0.45 -111.45 -0.05 -121.8 M-17.05 -88.85 L-16.35 -87.15 -18.95 -83.8 Q-23.4 -77.5 -26.9 -70.6 -30.4 -63.7 -34.15 -57.0 L-31.85 -66.8 Q-29.55 -75.85 -26.75 -84.6 L-17.05 -88.85 M-21.85 -83.6 L-26.3 -77.75 Q-30.15 -72.9 -29.5 -68.0 L-20.95 -83.25 -20.45 -84.9 -21.85 -83.6 M-17.05 -51.1 Q-17.45 -50.75 -17.45 -50.2 -17.45 -49.65 -17.05 -49.25 -16.7 -48.9 -16.15 -48.9 -15.6 -48.9 -15.2 -49.25 -14.85 -49.65 -14.85 -50.2 -14.85 -50.75 -15.2 -51.1 -15.6 -51.5 -16.15 -51.5 -16.7 -51.5 -17.05 -51.1 M-51.5 -89.0 L-52.25 -89.3 Q-51.9 -94.25 -49.5 -95.75 -48.75 -92.4 -51.0 -89.6 L-51.5 -89.0 M-4.1 -40.65 L-3.2 -38.95 Q-14.0 -34.6 -24.4 -29.15 L-24.8 -30.55 -13.05 -36.95 -12.5 -36.3 -12.15 -36.35 Q-7.9 -38.0 -4.1 -40.65 M-13.8 -19.5 Q-14.35 -20.05 -15.1 -20.05 -15.85 -20.05 -16.4 -19.5 -16.95 -18.95 -16.95 -18.2 -16.95 -17.45 -16.4 -16.9 -15.85 -16.35 -15.1 -16.35 -14.35 -16.35 -13.8 -16.9 -13.25 -17.45 -13.25 -18.2 -13.25 -18.95 -13.8 -19.5" fill="#481c33" fill-rule="evenodd" stroke="none"/>
    <path d="M29.65 -8.15 L31.35 -8.95 Q36.9 -11.85 41.05 -16.0 42.2 -17.1 42.2 -19.35 42.2 -30.85 41.35 -42.45 40.45 -54.95 37.3 -67.05 34.2 -79.05 30.7 -90.9 27.1 -103.25 18.65 -112.4 L16.6 -114.65 Q14.85 -116.7 12.7 -118.4 L11.0 -119.9 Q8.05 -118.5 6.1 -115.9 L4.95 -114.2 4.45 -115.45 3.75 -115.6 4.2 -112.2 Q4.05 -107.5 2.3 -103.45 L1.85 -102.7 0.85 -102.5 0.95 -103.35 3.15 -117.6 3.8 -118.2 4.2 -123.3 4.55 -127.45 Q8.6 -125.6 12.4 -123.3 L15.1 -121.2 Q25.4 -112.7 32.6 -101.25 39.5 -90.3 43.85 -78.0 47.95 -66.3 50.65 -54.15 53.15 -42.9 54.9 -31.85 55.95 -25.0 54.7 -18.45 53.9 -14.35 49.45 -12.8 40.55 -9.85 31.35 -8.4 L29.65 -8.15 M25.45 -94.05 Q25.15 -93.75 24.75 -93.75 24.35 -93.75 24.05 -94.05 23.75 -94.35 23.75 -94.75 23.75 -95.15 24.05 -95.45 L24.75 -95.75 Q25.15 -95.75 25.45 -95.45 L25.75 -94.75 25.45 -94.05 M36.0 -63.4 Q35.45 -62.85 34.7 -62.85 33.95 -62.85 33.45 -63.4 32.9 -63.95 32.9 -64.7 32.9 -65.45 33.45 -66.0 33.95 -66.55 34.7 -66.55 35.45 -66.55 36.0 -66.0 36.5 -65.45 36.5 -64.7 36.5 -63.95 36.0 -63.4 M36.15 -60.55 Q35.85 -60.8 35.85 -61.15 35.85 -61.5 36.15 -61.75 L36.75 -62.0 37.4 -61.75 37.65 -61.15 37.4 -60.55 36.75 -60.3 Q36.4 -60.3 36.15 -60.55 M31.8 -55.65 L32.25 -56.15 32.9 -55.35 31.95 -55.0 Q31.15 -55.3 31.8 -55.65 M-37.9 -38.05 L-37.2 -43.95 -14.0 -85.8 -13.9 -86.25 -16.45 -92.6 -1.35 -97.1 -12.4 -88.9 Q-14.35 -81.45 -18.5 -74.65 -23.95 -65.6 -28.75 -56.05 L-33.65 -46.8 -34.15 -45.9 -35.7 -43.25 Q-37.15 -40.85 -37.9 -38.05 M38.05 -20.55 Q37.45 -20.0 36.65 -20.0 35.85 -20.0 35.3 -20.55 34.7 -21.1 34.7 -21.9 34.7 -22.7 35.3 -23.25 35.85 -23.8 36.65 -23.8 37.45 -23.8 38.05 -23.25 38.6 -22.7 38.6 -21.9 38.6 -21.1 38.05 -20.55 M-71.5 -10.9 Q-79.05 -12.05 -83.9 -17.55 L-84.45 -18.45 Q-82.15 -26.35 -81.0 -34.35 L-69.3 -27.1 -67.75 -31.45 -79.75 -40.1 Q-74.5 -60.45 -66.65 -79.9 L-59.85 -78.9 -58.55 -85.4 -63.6 -86.35 Q-57.9 -96.9 -50.85 -106.6 L-49.55 -101.45 -54.65 -97.2 -59.8 -62.8 Q-61.25 -59.75 -62.35 -54.4 -64.6 -43.6 -67.15 -32.95 -69.75 -22.1 -71.5 -10.9 M-11.25 -130.05 Q-20.15 -128.1 -26.65 -123.3 -31.55 -119.0 -35.05 -112.8 -39.75 -104.4 -44.0 -95.7 -47.6 -88.45 -50.7 -80.85 -43.4 -103.95 -29.55 -123.3 L-21.0 -132.35 Q-19.55 -133.7 -17.55 -134.6 L-13.35 -136.25 Q-6.0 -136.95 -10.55 -130.85 L-11.25 -130.05 M-60.25 -66.85 L-60.75 -67.25 -61.7 -64.75 Q-66.05 -51.7 -66.3 -38.4 -65.45 -39.95 -65.3 -41.65 -64.2 -54.2 -60.15 -66.0 L-60.25 -66.85" fill="#29101e" fill-rule="evenodd" stroke="none"/>
    <path d="M-38.55 -52.65 L-39.05 -48.65 Q-46.55 -48.4 -53.65 -50.6 L-52.95 -55.55 -53.85 -55.8 Q-47.5 -54.35 -41.0 -54.0 L-38.4 -53.9 -38.55 -52.65 M-39.4 -45.65 L-39.85 -41.4 -42.05 -41.5 -42.4 -42.1 -50.0 -42.45 Q-53.25 -42.65 -56.4 -43.55 L-55.85 -47.4 -56.45 -47.6 -52.35 -46.6 Q-45.95 -45.2 -39.4 -45.65 M-40.1 -38.3 L-40.5 -32.3 -58.8 -36.2 -57.35 -40.45 -53.1 -39.55 -40.1 -38.3 M-40.6 -29.15 L-40.7 -26.55 -51.85 -27.3 Q-56.05 -27.75 -60.0 -29.2 L-59.1 -32.3 -57.45 -31.95 Q-49.05 -30.15 -40.6 -29.15 M-40.8 -22.85 L-40.85 -20.6 Q-47.45 -21.5 -53.55 -23.75 L-55.0 -24.2 -40.8 -22.85" fill="#333333" fill-rule="evenodd" stroke="none"/>
    <path d="M1.8 -125.0 L1.8 -126.75 1.6 -128.5 Q1.05 -132.15 -0.45 -135.4 L-3.9 -136.45 -5.55 -136.85 -7.3 -136.9 Q-5.65 -133.6 -8.15 -130.7 -11.2 -127.1 -13.9 -123.3 -17.7 -116.85 -20.75 -109.95 L-22.15 -106.7 Q-25.5 -99.05 -28.1 -91.15 L-1.75 -99.05 1.55 -121.1 1.7 -123.3 1.8 -125.0 M-83.15 -13.5 Q-85.5 -14.9 -86.05 -17.65 -86.65 -20.85 -85.8 -24.05 L-80.3 -46.4 Q-72.1 -80.6 -51.45 -109.05 L-51.65 -109.8 Q-49.65 -112.9 -46.95 -115.85 L-39.25 -123.3 Q-35.5 -126.1 -31.45 -128.6 L-27.6 -131.25 Q-14.95 -141.75 1.15 -136.5 L4.5 -129.35 Q10.5 -126.8 15.8 -123.3 L19.55 -120.05 Q28.05 -112.35 34.3 -102.5 40.1 -93.3 44.05 -83.25 48.6 -71.7 51.45 -59.5 54.25 -47.35 56.05 -35.2 56.55 -31.8 57.5 -28.35 60.25 -18.6 53.55 -13.0 L50.15 -11.25 45.7 -9.8 Q38.6 -7.65 31.35 -6.35 L21.35 -4.9 20.7 -4.8 17.55 -10.35 14.65 -16.35 11.1 -4.05 -11.05 -2.85 Q-22.6 -2.95 -34.1 -3.5 L-34.15 -3.5 -36.5 -3.65 -40.8 -4.2 -41.2 -5.0 -41.1 -10.4 -41.05 -13.05 -41.0 -14.2 -40.65 -15.2 Q-40.05 -17.25 -40.9 -18.95 L-40.85 -20.6 -40.8 -22.85 -40.7 -26.55 -40.6 -29.15 -40.5 -32.3 -40.1 -38.3 -39.85 -41.4 -39.4 -45.65 -39.05 -48.65 -38.55 -52.65 -37.85 -53.85 Q-36.5 -56.0 -37.75 -58.25 -35.7 -70.05 -32.75 -81.7 -29.9 -92.95 -25.3 -104.0 -21.25 -113.8 -16.15 -123.3 L-15.0 -125.05 -12.65 -128.15 Q-18.15 -126.9 -22.65 -124.2 L-23.4 -123.55 -23.65 -123.3 -24.1 -122.8 -24.6 -122.15 -48.6 -80.75 -56.3 -58.65 -55.7 -58.4 -56.35 -56.5 Q-58.75 -51.35 -60.4 -44.95 -63.5 -32.85 -65.4 -20.95 L-65.75 -18.95 Q-66.35 -16.6 -66.45 -14.2 -66.55 -10.4 -68.7 -8.2 L-72.0 -9.1 -79.3 -11.4 -79.95 -11.95 Q-81.45 -13.1 -83.15 -13.5 M29.65 -8.15 L31.35 -8.4 Q40.55 -9.85 49.45 -12.8 53.9 -14.35 54.7 -18.45 55.95 -25.0 54.9 -31.85 53.15 -42.9 50.65 -54.15 47.95 -66.3 43.85 -78.0 39.5 -90.3 32.6 -101.25 25.4 -112.7 15.1 -121.2 L12.4 -123.3 Q8.6 -125.6 4.55 -127.45 L4.2 -123.3 3.8 -118.2 3.15 -117.6 0.95 -103.35 -0.15 -97.6 -1.35 -97.1 -16.45 -92.6 -13.9 -86.25 -14.0 -85.8 -37.2 -43.95 -37.9 -38.05 Q-38.6 -30.8 -38.75 -23.45 L-39.0 -16.7 -39.15 -5.85 -34.15 -5.5 -18.2 -5.05 -11.15 -5.0 9.95 -5.85 13.55 -19.8 14.25 -20.3 14.85 -20.15 21.45 -6.95 29.65 -8.15 M4.2 -112.2 L3.75 -115.6 4.45 -115.45 4.95 -114.2 Q5.55 -113.25 5.15 -112.25 L4.85 -111.75 4.2 -112.2 M5.95 -102.2 L6.0 -103.35 Q6.1 -103.8 6.55 -103.75 L6.8 -103.75 7.0 -103.5 Q9.1 -100.7 7.1 -100.0 6.0 -100.7 5.95 -102.2 M6.45 -106.55 Q6.6 -105.9 6.15 -106.3 L4.95 -109.6 5.85 -109.45 6.45 -106.55 M14.9 -24.5 L14.75 -22.05 13.9 -22.4 13.9 -24.4 13.9 -25.4 14.75 -25.75 14.9 -24.5 M-1.4 -37.5 L-29.45 -23.55 -31.15 -27.05 -31.35 -27.95 -4.35 -42.8 -1.4 -37.5 M-8.55 -74.3 L-16.5 -74.6 -15.2 -80.65 -6.75 -81.1 5.55 -81.3 5.4 -76.05 5.05 -74.3 3.5 -74.3 -8.55 -74.3 M7.65 -98.0 L8.05 -97.55 8.7 -94.2 8.05 -94.15 7.65 -98.0 M9.4 -85.8 L9.9 -85.8 10.3 -85.55 10.3 -82.15 10.2 -82.1 9.4 -85.8 M9.25 -88.0 L9.1 -88.15 Q6.85 -91.25 9.05 -91.8 11.05 -89.1 9.25 -88.0 M4.55 -79.0 L4.6 -80.5 -7.55 -80.05 -12.55 -79.9 -14.5 -79.8 -15.5 -75.3 4.4 -75.3 4.45 -77.1 4.55 -79.0 M13.8 -55.4 L13.95 -54.0 13.8 -52.55 13.35 -52.0 Q13.1 -52.0 12.95 -52.55 L12.75 -54.0 12.95 -55.4 Q13.1 -56.0 13.35 -56.0 L13.8 -55.4 M12.45 -58.55 L12.25 -60.0 12.45 -61.4 Q12.65 -62.0 12.9 -62.0 L13.35 -61.4 13.55 -60.0 13.35 -58.55 Q13.15 -58.0 12.9 -58.0 12.65 -58.0 12.45 -58.55 M12.75 -67.4 L12.95 -66.0 12.75 -64.55 12.3 -64.0 Q12.05 -64.0 11.85 -64.55 L11.65 -66.0 11.85 -67.4 Q12.05 -68.0 12.3 -68.0 L12.75 -67.4 M10.9 -73.45 Q11.1 -74.0 11.7 -73.75 13.25 -71.25 11.75 -70.0 10.25 -71.8 10.9 -73.45 M11.15 -76.05 L11.05 -76.05 Q8.75 -79.6 11.15 -79.55 13.1 -76.8 11.15 -76.05 M14.25 -38.0 L14.65 -37.4 14.8 -35.95 14.65 -34.5 14.25 -33.9 Q14.0 -33.9 13.85 -34.5 13.7 -35.1 13.7 -35.95 13.7 -36.8 13.85 -37.4 14.0 -38.0 14.25 -38.0 M14.05 -43.95 L14.45 -43.35 14.6 -41.95 14.45 -40.5 Q14.3 -39.95 14.05 -39.95 13.8 -39.95 13.65 -40.5 13.5 -41.1 13.5 -41.95 13.5 -42.8 13.65 -43.35 13.8 -43.95 14.05 -43.95 M14.35 -48.0 L14.25 -46.8 14.2 -46.55 Q14.0 -46.0 13.75 -46.0 13.5 -46.0 13.35 -46.55 L13.3 -46.8 Q13.15 -47.3 13.15 -48.0 L13.35 -49.4 Q13.5 -50.0 13.75 -50.0 L14.2 -49.4 14.35 -48.0 M14.4 -31.9 L14.8 -31.3 14.95 -29.9 14.8 -28.45 Q14.65 -27.9 14.4 -27.9 14.15 -27.9 14.0 -28.45 13.85 -29.05 13.85 -29.9 13.85 -30.75 14.0 -31.3 14.15 -31.9 14.4 -31.9 M-59.8 -62.8 L-54.65 -97.2 -49.55 -101.45 -50.85 -106.6 Q-57.9 -96.9 -63.6 -86.35 L-58.55 -85.4 -59.85 -78.9 -66.65 -79.9 Q-74.5 -60.45 -79.75 -40.1 L-67.75 -31.45 -69.3 -27.1 -81.0 -34.35 Q-82.15 -26.35 -84.45 -18.45 L-83.9 -17.55 Q-79.05 -12.05 -71.5 -10.9 L-69.65 -10.4 -59.8 -62.8 M-11.25 -130.05 L-10.55 -130.85 Q-6.0 -136.95 -13.35 -136.25 L-17.55 -134.6 Q-19.55 -133.7 -21.0 -132.35 L-29.55 -123.3 Q-43.4 -103.95 -50.7 -80.85 -47.6 -88.45 -44.0 -95.7 -39.75 -104.4 -35.05 -112.8 -31.55 -119.0 -26.65 -123.3 -20.15 -128.1 -11.25 -130.05 M-28.95 -128.15 L-33.6 -125.1 -36.15 -123.3 Q-43.65 -116.85 -49.4 -109.05 L-46.45 -97.6 -44.55 -101.7 Q-39.4 -112.95 -32.85 -123.3 L-28.95 -128.15 M-16.35 -87.15 L-17.05 -88.85 -18.35 -92.05 -28.85 -88.7 -29.0 -88.45 -32.0 -76.8 Q-34.5 -66.05 -36.15 -55.15 L-36.7 -51.5 -37.1 -48.35 -16.0 -86.35 -16.35 -87.15 M-60.55 -79.85 L-59.5 -84.65 -64.1 -85.4 -66.25 -80.85 -60.55 -79.85 M-57.0 -67.7 L-47.7 -94.55 -49.0 -99.35 -52.7 -96.5 -57.0 -67.7 M-69.65 -28.3 L-68.8 -31.1 -80.05 -39.05 -80.85 -35.45 -69.65 -28.3 M-3.2 -38.95 L-4.1 -40.65 -4.6 -41.6 Q-8.8 -39.3 -13.05 -36.95 L-24.8 -30.55 -30.25 -27.55 -29.1 -24.75 -2.55 -37.75 -3.2 -38.95" fill="#1f0c16" fill-rule="evenodd" stroke="none"/>
    <path d="M3.45 -89.4 Q3.1 -89.8 3.1 -90.35 3.1 -90.9 3.45 -91.25 3.75 -91.65 4.25 -91.65 4.75 -91.65 5.1 -91.25 L5.4 -90.35 5.1 -89.4 Q4.75 -89.05 4.25 -89.05 3.75 -89.05 3.45 -89.4 M-7.55 -80.05 L4.6 -80.5 4.55 -79.0 Q-1.85 -78.1 -7.55 -79.95 L-7.55 -80.05 M10.25 -70.15 L12.6 -46.8 12.65 -46.05 Q13.65 -34.4 11.85 -22.85 11.35 -19.4 9.4 -16.9 8.05 -19.3 8.7 -22.8 10.95 -34.75 10.55 -46.8 10.3 -54.25 9.0 -61.75 8.15 -66.6 10.25 -70.15 M23.75 -51.65 Q23.15 -51.15 22.35 -51.15 21.55 -51.15 21.0 -51.65 20.4 -52.2 20.4 -52.95 20.4 -53.7 21.0 -54.2 21.55 -54.75 22.35 -54.75 23.15 -54.75 23.75 -54.2 24.3 -53.7 24.3 -52.95 24.3 -52.2 23.75 -51.65 M6.0 -43.35 Q5.45 -42.65 4.7 -42.65 3.95 -42.65 3.45 -43.35 2.9 -44.05 2.9 -45.05 2.9 -46.05 3.45 -46.75 L3.5 -46.8 Q4.0 -47.45 4.7 -47.45 5.4 -47.45 5.95 -46.8 L6.0 -46.75 Q6.5 -46.05 6.5 -45.05 6.5 -44.05 6.0 -43.35 M5.3 -25.1 L4.75 -24.75 Q4.45 -24.75 4.25 -25.1 4.0 -25.45 4.0 -25.95 4.0 -26.45 4.25 -26.8 4.45 -27.15 4.75 -27.15 L5.3 -26.8 5.5 -25.95 5.3 -25.1 M-0.05 -121.8 Q-0.45 -111.45 -5.5 -102.8 -6.2 -101.65 -7.55 -100.9 -14.6 -97.0 -21.15 -97.3 L-21.15 -97.9 Q-12.85 -100.45 -6.5 -106.0 -5.0 -107.35 -4.5 -109.55 -2.95 -116.2 -0.75 -122.55 L-0.05 -121.8 M-6.2 -114.9 Q-6.85 -114.9 -7.3 -115.35 -7.75 -115.8 -7.75 -116.45 -7.75 -117.1 -7.3 -117.55 -6.85 -118.0 -6.2 -118.0 -5.55 -118.0 -5.1 -117.55 -4.65 -117.1 -4.65 -116.45 -4.65 -115.8 -5.1 -115.35 -5.55 -114.9 -6.2 -114.9 M-10.75 -109.45 Q-11.0 -109.25 -11.35 -109.25 L-11.9 -109.45 -12.15 -109.9 -11.9 -110.35 -11.35 -110.55 Q-11.0 -110.55 -10.75 -110.35 L-10.55 -109.9 -10.75 -109.45 M-7.75 -105.5 Q-8.05 -105.25 -8.45 -105.25 L-9.1 -105.5 -9.4 -106.2 -9.1 -106.85 Q-8.85 -107.15 -8.45 -107.15 L-7.75 -106.85 -7.5 -106.2 Q-7.5 -105.8 -7.75 -105.5 M-21.85 -83.6 L-20.45 -84.9 -20.95 -83.25 -29.5 -68.0 Q-30.15 -72.9 -26.3 -77.75 L-21.85 -83.6 M-17.05 -51.1 Q-16.7 -51.5 -16.15 -51.5 -15.6 -51.5 -15.2 -51.1 -14.85 -50.75 -14.85 -50.2 -14.85 -49.65 -15.2 -49.25 -15.6 -48.9 -16.15 -48.9 -16.7 -48.9 -17.05 -49.25 -17.45 -49.65 -17.45 -50.2 -17.45 -50.75 -17.05 -51.1 M-13.05 -36.95 Q-8.8 -39.3 -4.6 -41.6 L-4.1 -40.65 Q-7.9 -38.0 -12.15 -36.35 L-12.5 -36.3 -13.05 -36.95 M-13.8 -19.5 Q-13.25 -18.95 -13.25 -18.2 -13.25 -17.45 -13.8 -16.9 -14.35 -16.35 -15.1 -16.35 -15.85 -16.35 -16.4 -16.9 -16.95 -17.45 -16.95 -18.2 -16.95 -18.95 -16.4 -19.5 -15.85 -20.05 -15.1 -20.05 -14.35 -20.05 -13.8 -19.5" fill="#6c2b4e" fill-rule="evenodd" stroke="none"/>
    <path d="M-65.4 -20.95 Q-63.5 -32.85 -60.4 -44.95 -58.75 -51.35 -56.35 -56.5 L-53.85 -55.8 -52.95 -55.55 -53.65 -50.6 Q-46.55 -48.4 -39.05 -48.65 L-39.4 -45.65 Q-45.95 -45.2 -52.35 -46.6 L-56.45 -47.6 -55.85 -47.4 -56.4 -43.55 Q-53.25 -42.65 -50.0 -42.45 L-42.4 -42.1 -42.05 -41.5 -39.85 -41.4 -40.1 -38.3 -53.1 -39.55 -57.35 -40.45 -58.8 -36.2 -40.5 -32.3 -40.6 -29.15 Q-49.05 -30.15 -57.45 -31.95 L-59.1 -32.3 -60.0 -29.2 Q-56.05 -27.75 -51.85 -27.3 L-40.7 -26.55 -40.8 -22.85 -55.0 -24.2 -53.55 -23.75 Q-47.45 -21.5 -40.85 -20.6 L-40.9 -18.95 -40.95 -17.5 -42.15 -17.5 Q-53.75 -18.5 -65.4 -20.95" fill="#282828" fill-rule="evenodd" stroke="none"/>
    <path d="M-65.75 -18.95 L-65.4 -20.95 Q-53.75 -18.5 -42.15 -17.5 L-40.95 -17.5 -40.9 -18.95 Q-40.05 -17.25 -40.65 -15.2 L-41.0 -14.2 -41.0 -15.5 -65.1 -18.7 -65.75 -18.95 M-56.35 -56.5 L-55.7 -58.4 Q-47.05 -56.05 -38.1 -55.9 L-37.85 -57.7 -37.75 -58.25 Q-36.5 -56.0 -37.85 -53.85 L-38.55 -52.65 -38.4 -53.9 -41.0 -54.0 Q-47.5 -54.35 -53.85 -55.8 L-56.35 -56.5" fill="#1b1b1b" fill-rule="evenodd" stroke="none"/>
    <path d="M-15.0 -125.05 L-16.15 -123.3 Q-21.25 -113.8 -25.3 -104.0 -29.9 -92.95 -32.75 -81.7 -35.7 -70.05 -37.75 -58.25 L-37.85 -57.7 -45.85 -57.85 -45.45 -59.55 Q-41.3 -60.7 -43.2 -64.9 L-43.95 -65.95 -41.7 -73.3 Q-37.6 -74.1 -39.0 -78.3 L-39.45 -79.3 -36.45 -87.3 Q-32.6 -88.25 -33.9 -92.25 L-34.35 -93.2 -30.7 -101.4 Q-25.55 -101.35 -27.0 -106.35 L-27.5 -107.35 -25.85 -110.2 Q-21.95 -117.05 -16.8 -123.3 L-15.0 -125.05 M-30.8 -108.2 L-26.5 -115.25 -26.65 -115.95 -22.1 -119.35 -29.2 -108.25 -30.8 -108.2 M-33.3 -104.05 L-32.35 -102.3 -35.9 -94.15 Q-37.65 -94.45 -39.05 -93.5 L-39.65 -93.0 -33.3 -104.05 M-40.25 -91.75 Q-40.6 -89.75 -39.25 -88.35 L-38.6 -87.75 -41.45 -80.25 Q-47.1 -79.05 -44.15 -74.25 L-43.75 -73.8 -46.55 -66.5 Q-50.6 -64.9 -48.5 -60.9 L-48.0 -60.25 -48.35 -58.4 -52.6 -59.3 Q-50.5 -64.55 -49.1 -70.15 -46.2 -81.75 -40.25 -91.75" fill="#e3dbd7" fill-rule="evenodd" stroke="none"/>
    <path d="M-55.7 -58.4 L-56.3 -58.65 -48.6 -80.75 -24.6 -122.15 -24.1 -122.8 -23.65 -123.3 -23.4 -123.55 -22.65 -124.2 Q-18.15 -126.9 -12.65 -128.15 L-15.0 -125.05 -16.8 -123.3 Q-21.95 -117.05 -25.85 -110.2 L-27.5 -107.35 -29.2 -108.25 -22.1 -119.35 -26.65 -115.95 -26.5 -115.25 -30.8 -108.2 Q-31.85 -108.2 -32.55 -106.95 -33.3 -105.75 -33.3 -104.05 L-39.65 -93.0 -40.25 -91.75 Q-46.2 -81.75 -49.1 -70.15 -50.5 -64.55 -52.6 -59.3 L-48.35 -58.4 -48.0 -60.25 -45.45 -59.55 -45.85 -57.85 -37.85 -57.7 -38.1 -55.9 Q-47.05 -56.05 -55.7 -58.4 M-32.35 -102.3 L-30.7 -101.4 -34.35 -93.2 -35.9 -94.15 -32.35 -102.3 M-38.6 -87.75 L-36.45 -87.3 -39.45 -79.3 -41.45 -80.25 -38.6 -87.75 M-46.55 -66.5 L-43.75 -73.8 -41.7 -73.3 -43.95 -65.95 -46.55 -66.5" fill="#beaba3" fill-rule="evenodd" stroke="none"/>
    <path d="M-34.1 -3.5 Q-22.6 -2.95 -11.05 -2.85 L11.1 -4.05 14.65 -16.35 17.55 -10.35 Q15.05 -6.85 13.95 -2.7 L13.45 -1.75 12.75 -0.75 Q-0.6 -0.3 -13.95 -0.2 L-13.95 -0.55 -15.45 -1.75 -16.65 -1.05 -16.9 -0.55 -16.95 0.25 -34.05 -0.4 -34.1 -3.5 M-28.8 -0.35 L-28.8 -0.5 Q-28.65 -1.25 -29.4 -1.2 L-30.85 -0.6 -28.8 -0.35" fill="#985f1f" fill-rule="evenodd" stroke="none"/>
    <path d="M-41.05 -13.05 L-41.1 -10.4 Q-51.25 -11.0 -61.05 -13.75 L-63.3 -3.15 -67.3 -2.4 -66.7 -2.0 -66.1 -2.35 -65.65 -2.35 -65.05 -2.2 -64.7 -1.85 -64.45 -1.4 -64.35 -0.9 -64.35 -0.45 -64.85 0.15 -65.75 0.35 -59.25 13.95 -58.7 13.3 -57.8 13.2 -57.0 13.45 Q-56.75 13.45 -56.55 13.7 L-56.2 14.1 -56.05 14.45 -55.95 14.85 -56.1 15.25 -56.3 15.65 -56.6 16.0 -56.95 16.25 -57.3 16.45 -57.75 16.4 -55.8 18.1 Q-51.65 21.85 -46.4 24.2 L-46.55 23.8 -46.7 23.2 -46.6 22.75 -46.25 22.25 -45.65 21.85 -45.25 21.75 Q-44.9 21.8 -44.6 22.0 -44.35 22.0 -44.2 22.2 -44.0 22.35 -43.9 22.65 -43.8 22.95 -43.85 23.35 L-43.95 24.1 -45.0 24.75 Q-39.55 26.65 -34.15 27.85 -28.05 29.2 -22.1 29.75 L-22.1 28.35 -20.5 28.25 -20.8 29.8 -12.85 30.45 -12.45 29.25 -11.2 28.8 -9.65 29.5 -9.5 30.45 -8.7 30.45 -7.4 30.4 Q0.0 29.9 6.75 26.8 L4.2 30.1 Q-2.15 32.4 -8.7 32.95 -13.5 33.3 -18.45 32.75 L-20.5 32.25 -20.45 32.5 Q-20.75 33.45 -19.7 33.9 L-19.4 34.3 Q-19.1 35.3 -20.1 35.9 L-20.85 36.15 -21.7 36.05 -22.25 34.7 -21.8 33.6 -22.75 33.4 -22.85 31.65 Q-28.5 32.75 -34.15 31.6 L-39.0 30.15 -39.25 31.1 -41.0 31.15 -41.15 29.7 Q-55.7 26.7 -65.1 14.9 -72.45 5.8 -71.15 -5.55 L-65.35 -6.45 Q-65.1 -6.6 -65.15 -6.95 -65.85 -14.6 -59.15 -15.9 L-55.95 -15.45 Q-48.8 -13.4 -41.05 -13.05 M-36.5 -3.65 L-34.15 -3.5 -34.1 -3.5 -34.05 -0.4 -16.95 0.25 -16.9 -0.55 -16.65 -1.05 -15.45 -1.75 -13.95 -0.55 -13.95 -0.2 Q-0.6 -0.3 12.75 -0.75 L13.45 -1.75 13.95 -2.7 Q15.05 -6.85 17.55 -10.35 L20.7 -4.8 21.35 -4.9 21.65 -2.95 20.75 -2.8 20.45 -2.35 18.6 -7.75 14.65 1.95 15.3 3.0 15.05 4.3 14.55 4.75 13.25 4.7 12.9 4.15 13.05 2.4 11.35 2.4 Q12.65 3.2 11.5 4.1 10.0 5.4 9.25 3.5 L9.4 3.1 9.75 2.7 10.05 2.45 10.45 2.3 -4.5 2.0 -8.0 2.25 Q-18.65 2.85 -29.4 2.85 L-30.7 2.85 -31.2 2.7 -31.55 2.75 -34.15 2.45 -36.75 1.8 -36.5 -3.65 M8.45 26.05 L10.55 25.0 11.25 26.25 11.9 25.75 Q12.8 24.95 12.75 23.8 L14.7 22.6 Q13.6 22.45 13.15 21.35 12.65 20.25 13.6 19.5 L13.4 20.65 14.0 21.35 15.15 19.4 Q15.95 19.85 16.3 20.6 L16.45 21.05 16.25 21.6 Q23.1 17.05 27.55 10.65 29.75 7.45 31.35 3.85 L32.9 -0.25 31.35 0.2 Q25.9 1.45 21.35 -0.8 21.65 -0.8 21.9 -1.1 L22.1 -1.8 33.35 -1.45 33.85 -2.9 35.25 -3.25 36.05 -3.05 36.4 -2.9 36.6 -2.7 Q37.6 -1.2 36.3 -0.05 35.65 0.65 34.6 0.4 L34.3 2.25 Q33.45 6.15 31.35 9.5 L30.6 10.65 30.25 11.1 31.35 11.65 30.85 12.85 29.65 12.5 Q23.8 19.65 17.25 24.5 L17.2 25.6 15.55 26.3 15.05 25.45 10.2 27.65 9.2 28.05 6.4 29.1 8.45 26.05 M2.95 33.8 L4.05 32.4 4.95 33.05 4.75 34.25 4.4 34.35 4.0 34.5 3.55 34.45 2.95 33.8 M29.45 -2.3 Q29.0 -2.3 28.7 -2.6 28.4 -2.95 28.4 -3.4 28.4 -3.85 28.7 -4.15 29.0 -4.5 29.45 -4.5 29.9 -4.5 30.2 -4.15 L30.5 -3.4 30.2 -2.6 Q29.9 -2.3 29.45 -2.3 M43.7 -1.45 L44.05 -0.75 Q44.05 -0.35 43.7 -0.05 L42.85 0.25 42.0 -0.05 Q41.65 -0.35 41.65 -0.75 41.65 -1.15 42.0 -1.45 L42.85 -1.75 43.7 -1.45 M34.25 7.25 Q34.25 6.65 34.7 6.25 35.1 5.85 35.7 5.85 36.3 5.85 36.75 6.25 37.15 6.65 37.15 7.25 37.15 7.85 36.75 8.25 36.3 8.65 35.7 8.65 35.1 8.65 34.7 8.25 34.25 7.85 34.25 7.25 M28.25 5.2 Q27.8 5.6 27.2 5.6 26.6 5.6 26.2 5.2 25.75 4.8 25.75 4.2 25.75 3.6 26.2 3.2 26.6 2.8 27.2 2.8 27.8 2.8 28.25 3.2 28.65 3.6 28.65 4.2 28.65 4.8 28.25 5.2 M23.3 10.65 L23.15 9.95 Q23.15 9.3 23.6 8.85 24.05 8.4 24.7 8.4 25.35 8.4 25.8 8.85 26.25 9.3 26.25 9.95 L26.1 10.65 25.8 11.05 Q25.35 11.5 24.7 11.5 24.05 11.5 23.6 11.05 L23.3 10.65 M21.95 22.8 Q22.35 22.4 22.95 22.4 23.55 22.4 23.95 22.8 24.35 23.2 24.35 23.8 24.35 24.4 23.95 24.8 23.55 25.2 22.95 25.2 22.35 25.2 21.95 24.8 21.55 24.4 21.55 23.8 21.55 23.2 21.95 22.8 M17.65 8.35 L16.65 6.8 16.95 6.0 18.9 5.85 19.3 6.5 18.2 6.6 17.65 8.35 M2.5 23.95 Q1.95 24.5 1.25 24.5 0.55 24.5 0.05 23.95 -0.5 23.35 -0.5 22.55 -0.5 21.75 0.05 21.2 0.55 20.6 1.25 20.6 1.95 20.6 2.5 21.2 3.0 21.75 3.0 22.55 3.0 23.35 2.5 23.95 M-73.2 -7.1 L-72.5 -7.4 -71.8 -7.1 Q-71.5 -6.85 -71.5 -6.45 -71.5 -6.05 -71.8 -5.75 -72.1 -5.5 -72.5 -5.5 L-73.2 -5.75 -73.5 -6.45 -73.2 -7.1 M-74.85 -1.5 L-74.0 -1.2 Q-73.7 -0.9 -73.7 -0.5 -73.7 -0.1 -74.0 0.2 L-74.85 0.5 Q-75.35 0.5 -75.65 0.2 -76.0 -0.1 -76.0 -0.5 L-75.65 -1.2 Q-75.35 -1.5 -74.85 -1.5 M-61.4 -3.65 Q-60.8 -3.65 -60.4 -3.25 -60.0 -2.85 -60.0 -2.25 -60.0 -1.65 -60.4 -1.25 -60.8 -0.85 -61.4 -0.85 -62.0 -0.85 -62.4 -1.25 -62.8 -1.65 -62.8 -2.25 -62.8 -2.85 -62.4 -3.25 -62.0 -3.65 -61.4 -3.65 M-55.65 -8.1 Q-56.2 -7.55 -56.95 -7.55 -57.7 -7.55 -58.2 -8.1 -58.75 -8.65 -58.75 -9.4 -58.75 -10.15 -58.2 -10.7 -57.7 -11.25 -56.95 -11.25 -56.2 -11.25 -55.65 -10.7 -55.15 -10.15 -55.15 -9.4 -55.15 -8.65 -55.65 -8.1 M-28.8 -0.35 L-30.85 -0.6 -29.4 -1.2 Q-28.65 -1.25 -28.8 -0.5 L-28.8 -0.35 M-36.65 23.2 Q-35.85 23.2 -35.3 23.75 -34.75 24.3 -34.75 25.1 -34.75 25.9 -35.3 26.45 -35.85 27.0 -36.65 27.0 -37.45 27.0 -38.0 26.45 -38.55 25.9 -38.55 25.1 -38.55 24.3 -38.0 23.75 -37.45 23.2 -36.65 23.2 M-27.0 25.9 Q-27.0 26.5 -27.45 26.95 -27.9 27.4 -28.55 27.4 -29.2 27.4 -29.65 26.95 L-30.1 25.9 Q-30.1 25.3 -29.65 24.85 -29.2 24.4 -28.55 24.4 -27.9 24.4 -27.45 24.85 -27.0 25.3 -27.0 25.9 M-30.75 33.4 Q-30.45 33.7 -30.45 34.15 -30.45 34.6 -30.75 34.95 L-31.6 35.25 Q-32.1 35.25 -32.4 34.95 L-32.75 34.15 Q-32.75 33.7 -32.4 33.4 -32.1 33.05 -31.6 33.05 -31.1 33.05 -30.75 33.4 M-14.75 28.65 Q-15.15 29.0 -15.7 29.0 -16.25 29.0 -16.6 28.65 -17.0 28.25 -17.0 27.7 -17.0 27.15 -16.6 26.8 -16.25 26.4 -15.7 26.4 -15.15 26.4 -14.75 26.8 -14.4 27.15 -14.4 27.7 -14.4 28.25 -14.75 28.65 M-58.95 8.85 Q-58.45 8.85 -58.1 9.2 -57.75 9.5 -57.75 10.0 -57.75 10.5 -58.1 10.85 L-58.95 11.15 -59.8 10.85 -60.15 10.0 Q-60.15 9.5 -59.8 9.2 -59.45 8.85 -58.95 8.85 M-47.9 16.8 Q-47.1 16.8 -46.55 17.35 -46.0 17.9 -46.0 18.7 -46.0 19.5 -46.55 20.05 -47.1 20.6 -47.9 20.6 -48.7 20.6 -49.25 20.05 -49.8 19.5 -49.8 18.7 -49.8 17.9 -49.25 17.35 -48.7 16.8 -47.9 16.8 M-70.5 6.65 L-71.2 6.9 -71.85 6.65 -72.15 5.95 -71.85 5.3 Q-71.6 5.0 -71.2 5.0 -70.8 5.0 -70.5 5.3 -70.25 5.55 -70.25 5.95 L-70.5 6.65" fill="#d5981a" fill-rule="evenodd" stroke="none"/>
    <path d="M-41.1 -10.4 L-41.2 -5.0 -41.65 -5.25 -42.15 -5.35 -43.85 -5.25 -44.15 -4.65 -44.2 -4.05 -43.9 -2.9 -41.45 -2.7 -41.0 -3.05 -40.8 -4.2 -36.5 -3.65 -36.75 1.8 -34.15 2.45 -31.55 2.75 -32.05 3.1 Q-32.4 3.5 -32.4 4.05 L-32.05 5.0 Q-31.7 5.4 -31.2 5.4 -30.7 5.4 -30.35 5.0 -30.0 4.6 -30.0 4.05 -30.0 3.5 -30.35 3.1 L-30.7 2.85 -29.4 2.85 Q-18.65 2.85 -8.0 2.25 -7.95 3.35 -7.4 4.0 -6.85 4.65 -6.1 4.6 L-4.9 3.75 Q-4.45 3.0 -4.5 2.0 L10.45 2.3 10.05 2.45 9.75 2.7 9.4 3.1 9.25 3.5 Q10.0 5.4 11.5 4.1 12.65 3.2 11.35 2.4 L13.05 2.4 12.9 4.15 13.25 4.7 14.55 4.75 15.05 4.3 13.85 9.65 13.65 10.65 Q11.65 19.35 6.75 26.8 0.0 29.9 -7.4 30.4 L-8.7 30.45 -9.5 30.45 -9.65 29.5 -11.2 28.8 -12.45 29.25 -12.85 30.45 -20.8 29.8 -20.5 28.25 -22.1 28.35 -22.1 29.75 Q-28.05 29.2 -34.15 27.85 -39.55 26.65 -45.0 24.75 L-43.95 24.1 -43.85 23.35 Q-43.8 22.95 -43.9 22.65 -44.0 22.35 -44.2 22.2 -44.35 22.0 -44.6 22.0 -44.9 21.8 -45.25 21.75 L-45.65 21.85 -46.25 22.25 -46.6 22.75 -46.7 23.2 -46.55 23.8 -46.4 24.2 Q-51.65 21.85 -55.8 18.1 L-57.75 16.4 -57.3 16.45 -56.95 16.25 -56.6 16.0 -56.3 15.65 -56.1 15.25 -55.95 14.85 -56.05 14.45 -56.2 14.1 -56.55 13.7 Q-56.75 13.45 -57.0 13.45 L-57.8 13.2 -58.7 13.3 -59.25 13.95 -65.75 0.35 -64.85 0.15 -64.35 -0.45 -64.35 -0.9 -64.45 -1.4 -64.7 -1.85 -65.05 -2.2 -65.65 -2.35 -66.1 -2.35 -66.7 -2.0 -67.3 -2.4 -63.3 -3.15 -61.05 -13.75 Q-51.25 -11.0 -41.1 -10.4 M15.1 10.25 L18.9 -5.15 18.25 -6.0 15.3 3.0 14.65 1.95 18.6 -7.75 20.45 -2.35 Q20.45 -1.7 20.75 -1.25 L21.35 -0.8 Q25.9 1.45 31.35 0.2 L32.9 -0.25 31.35 3.85 Q29.75 7.45 27.55 10.65 23.1 17.05 16.25 21.6 L16.45 21.05 16.3 20.6 Q15.95 19.85 15.15 19.4 L15.3 18.5 14.75 18.1 13.6 19.5 Q12.65 20.25 13.15 21.35 13.6 22.45 14.7 22.6 L12.75 23.8 12.75 23.55 Q11.35 23.35 10.55 25.0 L8.45 26.05 9.85 24.05 Q13.35 18.9 14.5 12.85 L16.2 12.85 15.8 14.95 15.85 15.0 Q17.9 14.0 17.5 12.0 L16.6 12.4 16.7 11.2 16.3 10.45 15.1 10.25 M28.25 5.2 Q28.65 4.8 28.65 4.2 28.65 3.6 28.25 3.2 27.8 2.8 27.2 2.8 26.6 2.8 26.2 3.2 25.75 3.6 25.75 4.2 25.75 4.8 26.2 5.2 26.6 5.6 27.2 5.6 27.8 5.6 28.25 5.2 M21.1 3.45 L21.2 2.9 Q21.4 0.85 19.75 -0.1 17.4 -0.15 17.35 2.25 L17.7 2.9 Q19.05 5.1 21.1 3.45 M23.3 10.65 L23.6 11.05 Q24.05 11.5 24.7 11.5 25.35 11.5 25.8 11.05 L26.1 10.65 26.25 9.95 Q26.25 9.3 25.8 8.85 25.35 8.4 24.7 8.4 24.05 8.4 23.6 8.85 23.15 9.3 23.15 9.95 L23.3 10.65 M22.0 13.55 L22.15 12.95 22.05 12.65 Q21.35 11.25 19.75 11.4 19.4 11.7 19.2 12.15 18.55 13.25 19.1 14.4 L19.7 14.7 Q21.0 14.8 22.0 13.55 M19.3 6.5 L18.9 5.85 16.95 6.0 16.65 6.8 17.65 8.35 18.0 9.2 19.2 9.15 19.3 6.5 M3.8 19.8 Q3.9 21.05 4.7 21.9 L5.35 22.35 Q6.7 22.45 7.15 21.05 8.2 17.45 4.55 17.45 L3.75 19.0 3.8 19.8 M2.6 14.8 L3.05 13.6 Q3.05 12.9 2.6 12.45 2.1 11.95 1.45 11.95 0.8 11.95 0.35 12.45 -0.15 12.9 -0.15 13.6 -0.15 14.3 0.35 14.8 0.8 15.25 1.45 15.25 2.1 15.25 2.6 14.8 M6.3 13.4 Q6.3 12.9 5.95 12.55 5.6 12.2 5.1 12.2 4.6 12.2 4.25 12.55 3.9 12.9 3.9 13.4 3.9 13.9 4.25 14.25 4.6 14.6 5.1 14.6 L5.95 14.25 6.3 13.4 M9.75 15.0 Q9.45 15.0 9.25 15.25 L9.0 15.75 9.25 16.3 Q9.45 16.5 9.75 16.5 L10.3 16.3 10.5 15.75 10.3 15.25 9.75 15.0 M7.15 11.4 Q6.8 11.75 6.8 12.25 6.8 12.75 7.15 13.1 7.5 13.45 8.0 13.45 8.5 13.45 8.85 13.1 L9.2 12.25 Q9.2 11.75 8.85 11.4 8.5 11.05 8.0 11.05 7.5 11.05 7.15 11.4 M3.35 7.05 L3.05 7.65 Q2.7 8.6 3.1 9.45 L2.9 9.25 Q1.85 8.65 0.85 9.6 L0.85 10.65 Q1.05 11.5 2.05 11.75 L2.5 11.45 3.15 10.65 3.1 9.45 Q3.85 10.35 4.85 10.15 7.2 9.75 6.4 7.55 4.95 6.4 3.35 7.05 M1.1 4.7 Q0.75 5.0 0.75 5.5 0.75 6.0 1.1 6.35 1.45 6.65 1.95 6.65 L2.8 6.35 3.15 5.5 Q3.15 5.0 2.8 4.7 2.45 4.35 1.95 4.35 1.45 4.35 1.1 4.7 M11.3 9.2 L11.7 8.5 11.9 6.45 Q10.05 5.3 8.2 6.9 L8.0 7.35 8.15 7.95 Q9.05 10.45 11.3 9.2 M2.5 23.95 Q3.0 23.35 3.0 22.55 3.0 21.75 2.5 21.2 1.95 20.6 1.25 20.6 0.55 20.6 0.05 21.2 -0.5 21.75 -0.5 22.55 -0.5 23.35 0.05 23.95 0.55 24.5 1.25 24.5 1.95 24.5 2.5 23.95 M-29.9 -107.3 Q-26.1 -106.15 -28.5 -102.9 L-29.05 -102.45 -30.5 -105.5 -29.9 -107.3 M-36.9 -93.3 Q-33.15 -92.2 -35.5 -88.9 L-36.05 -88.45 -36.5 -89.15 Q-37.55 -91.1 -36.9 -93.3 M-41.05 -74.45 L-42.5 -77.4 -41.9 -79.3 Q-37.85 -77.85 -40.65 -74.75 L-41.05 -74.45 M-45.9 -65.55 Q-41.9 -64.15 -44.75 -60.9 L-45.05 -60.7 -45.5 -61.4 Q-46.65 -63.35 -45.9 -65.55 M-61.4 -3.65 Q-62.0 -3.65 -62.4 -3.25 -62.8 -2.85 -62.8 -2.25 -62.8 -1.65 -62.4 -1.25 -62.0 -0.85 -61.4 -0.85 -60.8 -0.85 -60.4 -1.25 -60.0 -1.65 -60.0 -2.25 -60.0 -2.85 -60.4 -3.25 -60.8 -3.65 -61.4 -3.65 M-55.65 -8.1 Q-55.15 -8.65 -55.15 -9.4 -55.15 -10.15 -55.65 -10.7 -56.2 -11.25 -56.95 -11.25 -57.7 -11.25 -58.2 -10.7 -58.75 -10.15 -58.75 -9.4 -58.75 -8.65 -58.2 -8.1 -57.7 -7.55 -56.95 -7.55 -56.2 -7.55 -55.65 -8.1 M-44.7 -0.75 L-45.45 -0.45 -45.75 0.25 -45.45 0.95 -44.7 1.25 Q-44.25 1.25 -43.95 0.95 -43.65 0.65 -43.65 0.25 -43.65 -0.15 -43.95 -0.45 -44.25 -0.75 -44.7 -0.75 M-50.05 -1.8 Q-50.55 -1.4 -50.55 -0.8 -50.55 -0.2 -50.05 0.2 -49.6 0.6 -48.9 0.6 -48.2 0.6 -47.7 0.2 -47.25 -0.2 -47.25 -0.8 -47.25 -1.4 -47.7 -1.8 -48.2 -2.2 -48.9 -2.2 -49.6 -2.2 -50.05 -1.8 M-56.75 -1.25 Q-56.75 -0.75 -56.35 -0.35 -55.95 0.0 -55.35 0.0 -54.75 0.0 -54.35 -0.35 -53.95 -0.75 -53.95 -1.25 -53.95 -1.75 -54.35 -2.1 -54.75 -2.5 -55.35 -2.5 -55.95 -2.5 -56.35 -2.1 -56.75 -1.75 -56.75 -1.25 M-57.3 -6.9 Q-57.7 -6.9 -57.95 -6.6 L-58.25 -5.95 -57.95 -5.25 -57.3 -5.0 -56.6 -5.25 Q-56.35 -5.55 -56.35 -5.95 L-56.6 -6.6 -57.3 -6.9 M-50.7 -10.7 Q-52.0 -9.45 -51.9 -7.25 L-51.8 -6.5 -51.2 -5.35 -50.75 -4.85 Q-49.55 -4.65 -48.85 -5.7 -46.6 -9.1 -49.95 -11.15 L-50.7 -10.7 M-1.15 8.75 L-0.95 7.75 Q-0.6 4.8 -3.35 5.5 -5.25 6.95 -3.85 8.95 L-4.3 9.4 Q-4.75 10.05 -4.65 10.65 L-4.1 11.7 -2.4 11.65 -1.9 10.8 -1.9 10.65 -2.05 9.35 -1.15 8.75 M-8.7 10.75 L-8.2 10.8 -7.4 10.65 -6.55 10.05 Q-5.9 9.25 -5.9 8.15 -5.9 7.05 -6.55 6.3 -7.25 5.5 -8.2 5.5 -9.15 5.5 -9.8 6.3 -10.5 7.05 -10.5 8.15 -10.5 9.25 -9.8 10.05 L-8.7 10.75 M-25.85 11.35 Q-26.65 11.35 -27.2 11.9 -27.8 12.45 -27.8 13.25 -27.8 14.05 -27.2 14.6 -26.65 15.15 -25.85 15.15 -25.05 15.15 -24.45 14.6 -23.9 14.05 -23.9 13.25 -23.9 12.45 -24.45 11.9 -25.05 11.35 -25.85 11.35 M-28.9 7.7 Q-29.35 7.25 -29.95 7.25 -30.55 7.25 -30.95 7.7 -31.4 8.1 -31.4 8.7 -31.4 9.3 -30.95 9.75 -30.55 10.15 -29.95 10.15 -29.35 10.15 -28.9 9.75 -28.5 9.3 -28.5 8.7 -28.5 8.1 -28.9 7.7 M-25.5 7.95 Q-25.9 7.95 -26.2 8.3 L-26.5 9.1 -26.2 9.95 -25.5 10.25 Q-25.1 10.25 -24.8 9.95 -24.5 9.6 -24.5 9.1 -24.5 8.6 -24.8 8.3 -25.1 7.95 -25.5 7.95 M-23.9 5.7 Q-23.9 5.05 -24.35 4.6 -24.8 4.15 -25.45 4.15 -26.1 4.15 -26.55 4.6 -27.0 5.05 -27.0 5.7 -27.0 6.35 -26.55 6.8 -26.1 7.25 -25.45 7.25 -24.8 7.25 -24.35 6.8 -23.9 6.35 -23.9 5.7 M-1.7 24.4 L-2.85 24.7 -3.55 26.75 -3.15 27.1 -2.75 27.35 Q-1.95 27.4 -1.2 26.75 L-1.7 24.4 M-7.25 20.95 Q-7.25 20.45 -7.55 20.15 -7.9 19.8 -8.4 19.8 L-8.7 19.85 -9.2 20.15 -9.55 20.95 -9.2 21.8 -8.7 22.1 -8.4 22.1 -7.55 21.8 Q-7.25 21.45 -7.25 20.95 M-6.5 14.2 Q-6.5 13.7 -6.8 13.4 -7.15 13.05 -7.65 13.05 -8.15 13.05 -8.45 13.4 L-8.7 13.7 -8.8 14.2 -8.7 14.7 -8.45 15.05 Q-8.15 15.35 -7.65 15.35 L-6.8 15.05 Q-6.5 14.7 -6.5 14.2 M-0.25 16.65 Q-0.7 16.25 -1.3 16.25 -1.9 16.25 -2.3 16.65 -2.75 17.0 -2.75 17.5 L-2.3 18.4 Q-1.9 18.75 -1.3 18.75 -0.7 18.75 -0.25 18.4 0.15 18.0 0.15 17.5 0.15 17.0 -0.25 16.65 M-4.5 18.55 Q-4.5 17.85 -4.95 17.35 -5.4 16.85 -6.0 16.85 -6.6 16.85 -7.05 17.35 -7.5 17.85 -7.5 18.55 -7.5 19.25 -7.05 19.75 -6.6 20.25 -6.0 20.25 -5.4 20.25 -4.95 19.75 -4.5 19.25 -4.5 18.55 M-3.25 13.75 Q-3.25 13.2 -3.6 12.85 -4.0 12.45 -4.5 12.45 -5.0 12.45 -5.35 12.85 -5.75 13.2 -5.75 13.75 -5.75 14.3 -5.35 14.7 -5.0 15.05 -4.5 15.05 -4.0 15.05 -3.6 14.7 -3.25 14.3 -3.25 13.75 M-13.9 21.8 Q-14.3 22.15 -14.3 22.65 -14.3 23.15 -13.9 23.5 -13.55 23.85 -13.05 23.85 L-12.15 23.5 Q-11.8 23.15 -11.8 22.65 -11.8 22.15 -12.15 21.8 -12.55 21.45 -13.05 21.45 -13.55 21.45 -13.9 21.8 M-18.6 23.25 L-18.7 22.8 Q-21.95 18.15 -21.5 23.95 L-18.7 23.85 -18.6 23.25 M-15.35 17.85 Q-15.8 17.85 -16.1 18.2 -16.45 18.5 -16.45 18.95 L-16.1 19.75 Q-15.8 20.05 -15.35 20.05 -14.9 20.05 -14.55 19.75 -14.25 19.4 -14.25 18.95 -14.25 18.5 -14.55 18.2 -14.9 17.85 -15.35 17.85 M-18.2 13.15 L-18.7 13.0 Q-22.45 12.15 -23.35 16.0 L-23.15 16.35 Q-18.55 20.95 -18.2 13.15 M-11.85 17.25 Q-10.95 17.25 -10.3 16.5 -9.7 15.75 -9.7 14.65 -9.7 13.55 -10.3 12.8 -10.95 12.05 -11.85 12.05 -12.75 12.05 -13.35 12.8 -14.0 13.55 -14.0 14.65 -14.0 15.75 -13.35 16.5 -12.75 17.25 -11.85 17.25 M-12.55 8.8 L-12.5 8.3 Q-12.4 5.65 -14.7 5.2 -17.85 6.6 -16.5 9.9 -14.2 10.7 -12.55 8.8 M-19.7 9.25 Q-19.25 7.85 -19.35 6.6 -21.95 2.95 -23.7 7.9 L-23.55 8.35 Q-22.8 10.3 -21.5 11.45 L-20.5 10.95 -20.3 9.95 -19.85 9.7 -19.7 9.25 M-16.7 10.8 Q-17.25 11.3 -17.25 12.05 -17.25 12.8 -16.7 13.35 -16.2 13.85 -15.5 13.85 -14.8 13.85 -14.25 13.35 -13.75 12.8 -13.75 12.05 -13.75 11.3 -14.25 10.8 -14.8 10.25 -15.5 10.25 -16.2 10.25 -16.7 10.8 M-17.8 4.95 Q-17.5 4.65 -17.5 4.25 -17.5 3.85 -17.8 3.55 -18.1 3.25 -18.5 3.25 L-19.2 3.55 -19.5 4.25 -19.2 4.95 -18.5 5.25 Q-18.1 5.25 -17.8 4.95 M-13.15 5.0 Q-13.15 5.5 -12.75 5.85 L-11.8 6.15 Q-11.25 6.15 -10.85 5.85 -10.45 5.5 -10.45 5.0 -10.45 4.5 -10.85 4.2 -11.25 3.85 -11.8 3.85 -12.35 3.85 -12.75 4.2 -13.15 4.5 -13.15 5.0 M-39.25 17.2 Q-38.95 16.9 -38.95 16.45 -38.95 16.0 -39.25 15.7 -39.6 15.4 -40.05 15.4 -40.5 15.4 -40.8 15.7 -41.15 16.0 -41.15 16.45 L-40.8 17.2 Q-40.5 17.5 -40.05 17.5 L-39.25 17.2 M-37.25 14.15 L-37.55 14.8 -37.25 15.5 -36.65 15.75 -36.0 15.5 -35.75 14.8 Q-35.75 14.4 -36.0 14.15 -36.3 13.85 -36.65 13.85 -37.0 13.85 -37.25 14.15 M-30.7 17.6 Q-31.2 17.6 -31.55 17.95 -31.9 18.25 -31.9 18.75 -31.9 19.25 -31.55 19.6 L-30.7 19.9 -29.85 19.6 Q-29.5 19.25 -29.5 18.75 -29.5 18.25 -29.85 17.95 -30.2 17.6 -30.7 17.6 M-33.45 10.25 L-34.15 10.55 -34.85 11.3 Q-36.05 13.5 -34.15 15.05 L-32.2 14.6 -31.7 16.45 -31.1 16.7 -29.4 15.8 -29.5 14.5 -30.3 14.4 -31.8 14.15 -31.55 13.25 Q-31.1 11.6 -32.2 10.5 L-33.45 10.25 M-39.1 11.6 Q-39.1 11.1 -39.5 10.8 -39.95 10.45 -40.55 10.45 -41.15 10.45 -41.55 10.8 -42.0 11.1 -42.0 11.6 L-41.55 12.45 -40.55 12.75 Q-39.95 12.75 -39.5 12.45 -39.1 12.1 -39.1 11.6 M-35.8 10.25 L-35.6 9.7 Q-35.15 5.1 -39.6 5.95 -41.25 10.9 -35.8 10.25 M-40.1 3.05 L-39.9 2.45 -40.1 1.9 Q-40.35 1.65 -40.7 1.65 -41.05 1.65 -41.25 1.9 L-41.5 2.45 -41.25 3.05 -40.7 3.25 -40.1 3.05 M-34.15 5.85 L-33.85 5.65 Q-33.5 5.25 -33.5 4.7 -33.5 4.15 -33.85 3.8 L-34.15 3.55 -34.75 3.4 Q-35.25 3.4 -35.6 3.8 -36.0 4.15 -36.0 4.7 -36.0 5.25 -35.6 5.65 -35.25 6.0 -34.75 6.0 L-34.15 5.85 M-36.65 23.2 Q-37.45 23.2 -38.0 23.75 -38.55 24.3 -38.55 25.1 -38.55 25.9 -38.0 26.45 -37.45 27.0 -36.65 27.0 -35.85 27.0 -35.3 26.45 -34.75 25.9 -34.75 25.1 -34.75 24.3 -35.3 23.75 -35.85 23.2 -36.65 23.2 M-25.4 20.8 Q-25.4 20.25 -25.75 19.85 -26.15 19.45 -26.7 19.45 -27.25 19.45 -27.6 19.85 -28.0 20.25 -28.0 20.8 -28.0 21.35 -27.6 21.75 -27.25 22.15 -26.7 22.15 -26.15 22.15 -25.75 21.75 -25.4 21.35 -25.4 20.8 M-33.1 21.55 Q-33.1 20.75 -33.45 20.2 -33.75 19.7 -34.15 19.65 L-34.3 19.6 Q-34.8 19.6 -35.15 20.2 -35.5 20.75 -35.5 21.55 -35.5 22.35 -35.15 22.95 L-34.3 23.5 -34.15 23.5 -33.45 22.95 Q-33.1 22.35 -33.1 21.55 M-27.0 25.9 Q-27.0 25.3 -27.45 24.85 -27.9 24.4 -28.55 24.4 -29.2 24.4 -29.65 24.85 -30.1 25.3 -30.1 25.9 L-29.65 26.95 Q-29.2 27.4 -28.55 27.4 -27.9 27.4 -27.45 26.95 -27.0 26.5 -27.0 25.9 M-14.75 28.65 Q-14.4 28.25 -14.4 27.7 -14.4 27.15 -14.75 26.8 -15.15 26.4 -15.7 26.4 -16.25 26.4 -16.6 26.8 -17.0 27.15 -17.0 27.7 -17.0 28.25 -16.6 28.65 -16.25 29.0 -15.7 29.0 -15.15 29.0 -14.75 28.65 M-57.25 7.8 Q-57.25 8.5 -56.8 9.0 -56.35 9.5 -55.75 9.5 -55.15 9.5 -54.7 9.0 -54.25 8.5 -54.25 7.8 -54.25 7.1 -54.7 6.6 -55.15 6.1 -55.75 6.1 -56.35 6.1 -56.8 6.6 -57.25 7.1 -57.25 7.8 M-59.45 4.95 Q-59.1 4.6 -59.1 4.1 -59.1 3.6 -59.45 3.3 -59.8 2.95 -60.3 2.95 -60.8 2.95 -61.15 3.3 -61.5 3.6 -61.5 4.1 L-61.15 4.95 -60.3 5.25 Q-59.8 5.25 -59.45 4.95 M-58.15 1.5 Q-57.85 1.2 -57.85 0.75 -57.85 0.3 -58.15 0.0 L-58.9 -0.3 -59.65 0.0 -59.95 0.75 -59.65 1.5 -58.9 1.8 Q-58.45 1.8 -58.15 1.5 M-55.35 3.15 Q-55.0 3.5 -54.5 3.5 -54.0 3.5 -53.6 3.15 -53.25 2.75 -53.25 2.2 -53.25 1.65 -53.6 1.3 -54.0 0.9 -54.5 0.9 -55.0 0.9 -55.35 1.3 -55.75 1.65 -55.75 2.2 -55.75 2.75 -55.35 3.15 M-44.65 10.95 Q-45.0 11.25 -45.0 11.7 L-44.65 12.45 -43.9 12.75 -43.1 12.45 Q-42.8 12.15 -42.8 11.7 -42.8 11.25 -43.1 10.95 -43.45 10.65 -43.9 10.65 -44.35 10.65 -44.65 10.95 M-41.2 8.2 Q-40.85 7.9 -40.85 7.5 -40.85 7.1 -41.2 6.8 -41.55 6.5 -42.05 6.5 -42.55 6.5 -42.9 6.8 L-43.25 7.5 -42.9 8.2 -42.05 8.5 -41.2 8.2 M-49.3 2.8 L-49.75 4.65 Q-49.35 8.0 -46.45 8.35 -43.4 5.1 -47.6 2.4 L-49.3 2.8 M-58.95 8.85 Q-59.45 8.85 -59.8 9.2 -60.15 9.5 -60.15 10.0 L-59.8 10.85 -58.95 11.15 -58.1 10.85 Q-57.75 10.5 -57.75 10.0 -57.75 9.5 -58.1 9.2 -58.45 8.85 -58.95 8.85 M-53.25 12.55 Q-52.8 14.6 -51.0 15.65 L-49.55 15.0 -49.65 13.95 Q-50.1 11.4 -52.75 11.3 L-53.25 12.55 M-47.9 16.8 Q-48.7 16.8 -49.25 17.35 -49.8 17.9 -49.8 18.7 -49.8 19.5 -49.25 20.05 -48.7 20.6 -47.9 20.6 -47.1 20.6 -46.55 20.05 -46.0 19.5 -46.0 18.7 -46.0 17.9 -46.55 17.35 -47.1 16.8 -47.9 16.8" fill="#eec433" fill-rule="evenodd" stroke="none"/>
    <path d="M-41.2 -5.0 L-40.8 -4.2 -41.0 -3.05 -41.45 -2.7 -43.9 -2.9 -44.2 -4.05 -44.15 -4.65 -43.85 -5.25 -42.15 -5.35 -41.65 -5.25 -41.2 -5.0 M15.1 10.25 L16.3 10.45 16.7 11.2 16.6 12.4 16.2 12.85 14.5 12.85 15.1 10.25 M20.8 3.5 L21.1 2.55 20.8 1.65 Q20.5 1.25 20.1 1.25 19.7 1.25 19.4 1.65 19.1 2.0 19.1 2.55 19.1 3.1 19.4 3.5 19.7 3.85 20.1 3.85 20.5 3.85 20.8 3.5 M21.1 3.45 Q19.05 5.1 17.7 2.9 L17.35 2.25 Q17.4 -0.15 19.75 -0.1 21.4 0.85 21.2 2.9 L21.1 3.45 M22.0 13.55 Q21.0 14.8 19.7 14.7 L19.1 14.4 Q18.55 13.25 19.2 12.15 19.4 11.7 19.75 11.4 21.35 11.25 22.05 12.65 L22.15 12.95 22.0 13.55 M-4.5 2.0 Q-4.45 3.0 -4.9 3.75 L-6.1 4.6 Q-6.85 4.65 -7.4 4.0 -7.95 3.35 -8.0 2.25 L-4.5 2.0 M-30.7 2.85 L-30.35 3.1 Q-30.0 3.5 -30.0 4.05 -30.0 4.6 -30.35 5.0 -30.7 5.4 -31.2 5.4 -31.7 5.4 -32.05 5.0 L-32.4 4.05 Q-32.4 3.5 -32.05 3.1 L-31.55 2.75 -31.2 2.7 -30.7 2.85 M11.3 9.2 Q9.05 10.45 8.15 7.95 L8.0 7.35 8.2 6.9 Q10.05 5.3 11.9 6.45 L11.7 8.5 11.3 9.2 M1.1 4.7 Q1.45 4.35 1.95 4.35 2.45 4.35 2.8 4.7 3.15 5.0 3.15 5.5 L2.8 6.35 1.95 6.65 Q1.45 6.65 1.1 6.35 0.75 6.0 0.75 5.5 0.75 5.0 1.1 4.7 M3.35 7.05 Q4.95 6.4 6.4 7.55 7.2 9.75 4.85 10.15 3.85 10.35 3.1 9.45 L3.15 10.65 2.5 11.45 2.05 11.75 Q1.05 11.5 0.85 10.65 L0.85 9.6 Q1.85 8.65 2.9 9.25 L3.1 9.45 Q2.7 8.6 3.05 7.65 L3.35 7.05 M7.15 11.4 Q7.5 11.05 8.0 11.05 8.5 11.05 8.85 11.4 9.2 11.75 9.2 12.25 L8.85 13.1 Q8.5 13.45 8.0 13.45 7.5 13.45 7.15 13.1 6.8 12.75 6.8 12.25 6.8 11.75 7.15 11.4 M9.75 15.0 L10.3 15.25 10.5 15.75 10.3 16.3 9.75 16.5 Q9.45 16.5 9.25 16.3 L9.0 15.75 9.25 15.25 Q9.45 15.0 9.75 15.0 M6.3 13.4 L5.95 14.25 5.1 14.6 Q4.6 14.6 4.25 14.25 3.9 13.9 3.9 13.4 3.9 12.9 4.25 12.55 4.6 12.2 5.1 12.2 5.6 12.2 5.95 12.55 6.3 12.9 6.3 13.4 M2.6 14.8 Q2.1 15.25 1.45 15.25 0.8 15.25 0.35 14.8 -0.15 14.3 -0.15 13.6 -0.15 12.9 0.35 12.45 0.8 11.95 1.45 11.95 2.1 11.95 2.6 12.45 3.05 12.9 3.05 13.6 L2.6 14.8 M3.8 19.8 L3.75 19.0 4.55 17.45 Q8.2 17.45 7.15 21.05 6.7 22.45 5.35 22.35 L4.7 21.9 Q3.9 21.05 3.8 19.8 M-50.7 -10.7 L-49.95 -11.15 Q-46.6 -9.1 -48.85 -5.7 -49.55 -4.65 -50.75 -4.85 L-51.2 -5.35 -51.8 -6.5 -51.9 -7.25 Q-52.0 -9.45 -50.7 -10.7 M-57.3 -6.9 L-56.6 -6.6 -56.35 -5.95 Q-56.35 -5.55 -56.6 -5.25 L-57.3 -5.0 -57.95 -5.25 -58.25 -5.95 -57.95 -6.6 Q-57.7 -6.9 -57.3 -6.9 M-56.75 -1.25 Q-56.75 -1.75 -56.35 -2.1 -55.95 -2.5 -55.35 -2.5 -54.75 -2.5 -54.35 -2.1 -53.95 -1.75 -53.95 -1.25 -53.95 -0.75 -54.35 -0.35 -54.75 0.0 -55.35 0.0 -55.95 0.0 -56.35 -0.35 -56.75 -0.75 -56.75 -1.25 M-50.05 -1.8 Q-49.6 -2.2 -48.9 -2.2 -48.2 -2.2 -47.7 -1.8 -47.25 -1.4 -47.25 -0.8 -47.25 -0.2 -47.7 0.2 -48.2 0.6 -48.9 0.6 -49.6 0.6 -50.05 0.2 -50.55 -0.2 -50.55 -0.8 -50.55 -1.4 -50.05 -1.8 M-44.7 -0.75 Q-44.25 -0.75 -43.95 -0.45 -43.65 -0.15 -43.65 0.25 -43.65 0.65 -43.95 0.95 -44.25 1.25 -44.7 1.25 L-45.45 0.95 -45.75 0.25 -45.45 -0.45 -44.7 -0.75 M-8.7 10.75 L-9.8 10.05 Q-10.5 9.25 -10.5 8.15 -10.5 7.05 -9.8 6.3 -9.15 5.5 -8.2 5.5 -7.25 5.5 -6.55 6.3 -5.9 7.05 -5.9 8.15 -5.9 9.25 -6.55 10.05 L-7.4 10.65 -8.2 10.8 -8.7 10.75 M-1.15 8.75 L-2.05 9.35 -1.9 10.65 -1.9 10.8 -2.4 11.65 -4.1 11.7 -4.65 10.65 Q-4.75 10.05 -4.3 9.4 L-3.85 8.95 Q-5.25 6.95 -3.35 5.5 -0.6 4.8 -0.95 7.75 L-1.15 8.75 M-13.15 5.0 Q-13.15 4.5 -12.75 4.2 -12.35 3.85 -11.8 3.85 -11.25 3.85 -10.85 4.2 -10.45 4.5 -10.45 5.0 -10.45 5.5 -10.85 5.85 -11.25 6.15 -11.8 6.15 L-12.75 5.85 Q-13.15 5.5 -13.15 5.0 M-17.8 4.95 Q-18.1 5.25 -18.5 5.25 L-19.2 4.95 -19.5 4.25 -19.2 3.55 -18.5 3.25 Q-18.1 3.25 -17.8 3.55 -17.5 3.85 -17.5 4.25 -17.5 4.65 -17.8 4.95 M-16.7 10.8 Q-16.2 10.25 -15.5 10.25 -14.8 10.25 -14.25 10.8 -13.75 11.3 -13.75 12.05 -13.75 12.8 -14.25 13.35 -14.8 13.85 -15.5 13.85 -16.2 13.85 -16.7 13.35 -17.25 12.8 -17.25 12.05 -17.25 11.3 -16.7 10.8 M-19.7 9.25 L-19.85 9.7 -20.3 9.95 -20.5 10.95 -21.5 11.45 Q-22.8 10.3 -23.55 8.35 L-23.7 7.9 Q-21.95 2.95 -19.35 6.6 -19.25 7.85 -19.7 9.25 M-12.55 8.8 Q-14.2 10.7 -16.5 9.9 -17.85 6.6 -14.7 5.2 -12.4 5.65 -12.5 8.3 L-12.55 8.8 M-11.85 17.25 Q-12.75 17.25 -13.35 16.5 -14.0 15.75 -14.0 14.65 -14.0 13.55 -13.35 12.8 -12.75 12.05 -11.85 12.05 -10.95 12.05 -10.3 12.8 -9.7 13.55 -9.7 14.65 -9.7 15.75 -10.3 16.5 -10.95 17.25 -11.85 17.25 M-18.2 13.15 Q-18.55 20.95 -23.15 16.35 L-23.35 16.0 Q-22.45 12.15 -18.7 13.0 L-18.2 13.15 M-15.35 17.85 Q-14.9 17.85 -14.55 18.2 -14.25 18.5 -14.25 18.95 -14.25 19.4 -14.55 19.75 -14.9 20.05 -15.35 20.05 -15.8 20.05 -16.1 19.75 L-16.45 18.95 Q-16.45 18.5 -16.1 18.2 -15.8 17.85 -15.35 17.85 M-18.6 23.25 L-18.7 23.85 -21.5 23.95 Q-21.95 18.15 -18.7 22.8 L-18.6 23.25 M-13.9 21.8 Q-13.55 21.45 -13.05 21.45 -12.55 21.45 -12.15 21.8 -11.8 22.15 -11.8 22.65 -11.8 23.15 -12.15 23.5 L-13.05 23.85 Q-13.55 23.85 -13.9 23.5 -14.3 23.15 -14.3 22.65 -14.3 22.15 -13.9 21.8 M-3.25 13.75 Q-3.25 14.3 -3.6 14.7 -4.0 15.05 -4.5 15.05 -5.0 15.05 -5.35 14.7 -5.75 14.3 -5.75 13.75 -5.75 13.2 -5.35 12.85 -5.0 12.45 -4.5 12.45 -4.0 12.45 -3.6 12.85 -3.25 13.2 -3.25 13.75 M-4.5 18.55 Q-4.5 19.25 -4.95 19.75 -5.4 20.25 -6.0 20.25 -6.6 20.25 -7.05 19.75 -7.5 19.25 -7.5 18.55 -7.5 17.85 -7.05 17.35 -6.6 16.85 -6.0 16.85 -5.4 16.85 -4.95 17.35 -4.5 17.85 -4.5 18.55 M-0.25 16.65 Q0.15 17.0 0.15 17.5 0.15 18.0 -0.25 18.4 -0.7 18.75 -1.3 18.75 -1.9 18.75 -2.3 18.4 L-2.75 17.5 Q-2.75 17.0 -2.3 16.65 -1.9 16.25 -1.3 16.25 -0.7 16.25 -0.25 16.65 M-6.5 14.2 Q-6.5 14.7 -6.8 15.05 L-7.65 15.35 Q-8.15 15.35 -8.45 15.05 L-8.7 14.7 -8.8 14.2 -8.7 13.7 -8.45 13.4 Q-8.15 13.05 -7.65 13.05 -7.15 13.05 -6.8 13.4 -6.5 13.7 -6.5 14.2 M-7.25 20.95 Q-7.25 21.45 -7.55 21.8 L-8.4 22.1 -8.7 22.1 -9.2 21.8 -9.55 20.95 -9.2 20.15 -8.7 19.85 -8.4 19.8 Q-7.9 19.8 -7.55 20.15 -7.25 20.45 -7.25 20.95 M-1.7 24.4 L-1.2 26.75 Q-1.95 27.4 -2.75 27.35 L-3.15 27.1 -3.55 26.75 -2.85 24.7 -1.7 24.4 M-23.9 5.7 Q-23.9 6.35 -24.35 6.8 -24.8 7.25 -25.45 7.25 -26.1 7.25 -26.55 6.8 -27.0 6.35 -27.0 5.7 -27.0 5.05 -26.55 4.6 -26.1 4.15 -25.45 4.15 -24.8 4.15 -24.35 4.6 -23.9 5.05 -23.9 5.7 M-25.5 7.95 Q-25.1 7.95 -24.8 8.3 -24.5 8.6 -24.5 9.1 -24.5 9.6 -24.8 9.95 -25.1 10.25 -25.5 10.25 L-26.2 9.95 -26.5 9.1 -26.2 8.3 Q-25.9 7.95 -25.5 7.95 M-28.9 7.7 Q-28.5 8.1 -28.5 8.7 -28.5 9.3 -28.9 9.75 -29.35 10.15 -29.95 10.15 -30.55 10.15 -30.95 9.75 -31.4 9.3 -31.4 8.7 -31.4 8.1 -30.95 7.7 -30.55 7.25 -29.95 7.25 -29.35 7.25 -28.9 7.7 M-25.85 11.35 Q-25.05 11.35 -24.45 11.9 -23.9 12.45 -23.9 13.25 -23.9 14.05 -24.45 14.6 -25.05 15.15 -25.85 15.15 -26.65 15.15 -27.2 14.6 -27.8 14.05 -27.8 13.25 -27.8 12.45 -27.2 11.9 -26.65 11.35 -25.85 11.35 M-34.15 5.85 L-34.75 6.0 Q-35.25 6.0 -35.6 5.65 -36.0 5.25 -36.0 4.7 -36.0 4.15 -35.6 3.8 -35.25 3.4 -34.75 3.4 L-34.15 3.55 -33.85 3.8 Q-33.5 4.15 -33.5 4.7 -33.5 5.25 -33.85 5.65 L-34.15 5.85 M-40.1 3.05 L-40.7 3.25 -41.25 3.05 -41.5 2.45 -41.25 1.9 Q-41.05 1.65 -40.7 1.65 -40.35 1.65 -40.1 1.9 L-39.9 2.45 -40.1 3.05 M-35.8 10.25 Q-41.25 10.9 -39.6 5.95 -35.15 5.1 -35.6 9.7 L-35.8 10.25 M-39.1 11.6 Q-39.1 12.1 -39.5 12.45 -39.95 12.75 -40.55 12.75 L-41.55 12.45 -42.0 11.6 Q-42.0 11.1 -41.55 10.8 -41.15 10.45 -40.55 10.45 -39.95 10.45 -39.5 10.8 -39.1 11.1 -39.1 11.6 M-33.45 10.25 L-32.2 10.5 Q-31.1 11.6 -31.55 13.25 L-31.8 14.15 -30.3 14.4 -29.5 14.5 -29.4 15.8 -31.1 16.7 -31.7 16.45 -32.2 14.6 -34.15 15.05 Q-36.05 13.5 -34.85 11.3 L-34.15 10.55 -33.45 10.25 M-30.7 17.6 Q-30.2 17.6 -29.85 17.95 -29.5 18.25 -29.5 18.75 -29.5 19.25 -29.85 19.6 L-30.7 19.9 -31.55 19.6 Q-31.9 19.25 -31.9 18.75 -31.9 18.25 -31.55 17.95 -31.2 17.6 -30.7 17.6 M-37.25 14.15 Q-37.0 13.85 -36.65 13.85 -36.3 13.85 -36.0 14.15 -35.75 14.4 -35.75 14.8 L-36.0 15.5 -36.65 15.75 -37.25 15.5 -37.55 14.8 -37.25 14.15 M-39.25 17.2 L-40.05 17.5 Q-40.5 17.5 -40.8 17.2 L-41.15 16.45 Q-41.15 16.0 -40.8 15.7 -40.5 15.4 -40.05 15.4 -39.6 15.4 -39.25 15.7 -38.95 16.0 -38.95 16.45 -38.95 16.9 -39.25 17.2 M-33.1 21.55 Q-33.1 22.35 -33.45 22.95 L-34.15 23.5 -34.3 23.5 -35.15 22.95 Q-35.5 22.35 -35.5 21.55 -35.5 20.75 -35.15 20.2 -34.8 19.6 -34.3 19.6 L-34.15 19.65 Q-33.75 19.7 -33.45 20.2 -33.1 20.75 -33.1 21.55 M-25.4 20.8 Q-25.4 21.35 -25.75 21.75 -26.15 22.15 -26.7 22.15 -27.25 22.15 -27.6 21.75 -28.0 21.35 -28.0 20.8 -28.0 20.25 -27.6 19.85 -27.25 19.45 -26.7 19.45 -26.15 19.45 -25.75 19.85 -25.4 20.25 -25.4 20.8 M-49.3 2.8 L-47.6 2.4 Q-43.4 5.1 -46.45 8.35 -49.35 8.0 -49.75 4.65 L-49.3 2.8 M-41.2 8.2 L-42.05 8.5 -42.9 8.2 -43.25 7.5 -42.9 6.8 Q-42.55 6.5 -42.05 6.5 -41.55 6.5 -41.2 6.8 -40.85 7.1 -40.85 7.5 -40.85 7.9 -41.2 8.2 M-44.65 10.95 Q-44.35 10.65 -43.9 10.65 -43.45 10.65 -43.1 10.95 -42.8 11.25 -42.8 11.7 -42.8 12.15 -43.1 12.45 L-43.9 12.75 -44.65 12.45 -45.0 11.7 Q-45.0 11.25 -44.65 10.95 M-55.35 3.15 Q-55.75 2.75 -55.75 2.2 -55.75 1.65 -55.35 1.3 -55.0 0.9 -54.5 0.9 -54.0 0.9 -53.6 1.3 -53.25 1.65 -53.25 2.2 -53.25 2.75 -53.6 3.15 -54.0 3.5 -54.5 3.5 -55.0 3.5 -55.35 3.15 M-58.15 1.5 Q-58.45 1.8 -58.9 1.8 L-59.65 1.5 -59.95 0.75 -59.65 0.0 -58.9 -0.3 -58.15 0.0 Q-57.85 0.3 -57.85 0.75 -57.85 1.2 -58.15 1.5 M-59.45 4.95 Q-59.8 5.25 -60.3 5.25 L-61.15 4.95 -61.5 4.1 Q-61.5 3.6 -61.15 3.3 -60.8 2.95 -60.3 2.95 -59.8 2.95 -59.45 3.3 -59.1 3.6 -59.1 4.1 -59.1 4.6 -59.45 4.95 M-57.25 7.8 Q-57.25 7.1 -56.8 6.6 -56.35 6.1 -55.75 6.1 -55.15 6.1 -54.7 6.6 -54.25 7.1 -54.25 7.8 -54.25 8.5 -54.7 9.0 -55.15 9.5 -55.75 9.5 -56.35 9.5 -56.8 9.0 -57.25 8.5 -57.25 7.8 M-53.25 12.55 L-52.75 11.3 Q-50.1 11.4 -49.65 13.95 L-49.55 15.0 -51.0 15.65 Q-52.8 14.6 -53.25 12.55" fill="#f9ee71" fill-rule="evenodd" stroke="none"/>
    <path d="M-79.3 -11.4 L-72.0 -9.1 -68.7 -8.2 Q-66.55 -10.4 -66.45 -14.2 -66.35 -16.6 -65.75 -18.95 L-65.1 -18.7 -41.0 -15.5 -41.0 -14.2 -41.05 -13.05 Q-48.8 -13.4 -55.95 -15.45 L-59.15 -15.9 Q-65.85 -14.6 -65.15 -6.95 -65.1 -6.6 -65.35 -6.45 L-71.15 -5.55 Q-72.45 5.8 -65.1 14.9 -55.7 26.7 -41.15 29.7 L-41.0 31.15 -39.25 31.1 -39.0 30.15 -34.15 31.6 Q-28.5 32.75 -22.85 31.65 L-22.75 33.4 -21.8 33.6 -22.25 34.7 -21.7 36.05 -20.85 36.15 -20.1 35.9 Q-19.1 35.3 -19.4 34.3 L-19.7 33.9 Q-20.75 33.45 -20.45 32.5 L-20.5 32.25 -18.45 32.75 Q-13.5 33.3 -8.7 32.95 -2.15 32.4 4.2 30.1 L-1.5 36.25 -1.15 36.65 -0.3 36.75 0.05 36.6 Q1.9 35.5 2.95 33.8 L3.55 34.45 4.0 34.5 4.4 34.35 4.75 34.25 4.95 33.05 4.05 32.4 6.4 29.1 9.2 28.05 8.45 30.0 9.0 30.25 9.4 30.0 Q10.6 29.1 10.2 27.65 L15.05 25.45 15.55 26.3 17.2 25.6 17.25 24.5 Q23.8 19.65 29.65 12.5 L30.85 12.85 31.35 11.65 30.25 11.1 30.6 10.65 31.35 9.5 Q33.45 6.15 34.3 2.25 L34.6 0.4 Q35.65 0.65 36.3 -0.05 37.6 -1.2 36.6 -2.7 L36.4 -2.9 36.05 -3.05 35.25 -3.25 33.85 -2.9 33.35 -1.45 22.1 -1.8 21.65 -2.95 21.35 -4.9 31.35 -6.35 Q38.6 -7.65 45.7 -9.8 L50.15 -11.25 50.0 -11.2 50.3 -11.3 Q48.6 -4.55 45.05 1.8 42.45 6.45 39.3 10.65 35.65 15.4 31.35 19.55 L31.25 19.65 Q23.05 27.45 13.05 32.7 2.95 38.05 -8.7 39.3 L-9.25 39.35 Q-21.45 40.85 -33.35 37.7 L-34.15 37.5 Q-45.45 34.35 -55.05 27.4 -63.75 21.0 -70.35 12.3 -78.55 1.5 -80.65 -12.05 L-79.3 -11.4 M29.45 -2.3 Q29.9 -2.3 30.2 -2.6 L30.5 -3.4 30.2 -4.15 Q29.9 -4.5 29.45 -4.5 29.0 -4.5 28.7 -4.15 28.4 -3.85 28.4 -3.4 28.4 -2.95 28.7 -2.6 29.0 -2.3 29.45 -2.3 M34.25 7.25 Q34.25 7.85 34.7 8.25 35.1 8.65 35.7 8.65 36.3 8.65 36.75 8.25 37.15 7.85 37.15 7.25 37.15 6.65 36.75 6.25 36.3 5.85 35.7 5.85 35.1 5.85 34.7 6.25 34.25 6.65 34.25 7.25 M43.7 -1.45 L42.85 -1.75 42.0 -1.45 Q41.65 -1.15 41.65 -0.75 41.65 -0.35 42.0 -0.05 L42.85 0.25 43.7 -0.05 Q44.05 -0.35 44.05 -0.75 L43.7 -1.45 M21.95 22.8 Q21.55 23.2 21.55 23.8 21.55 24.4 21.95 24.8 22.35 25.2 22.95 25.2 23.55 25.2 23.95 24.8 24.35 24.4 24.35 23.8 24.35 23.2 23.95 22.8 23.55 22.4 22.95 22.4 22.35 22.4 21.95 22.8 M6.5 34.4 L7.65 33.15 7.5 32.05 6.25 32.55 Q5.5 33.0 5.7 33.8 L6.5 34.4 M-29.05 -102.45 Q-33.85 -102.85 -30.65 -106.85 L-29.9 -107.3 -30.5 -105.5 -29.05 -102.45 M-36.05 -88.45 Q-41.2 -88.9 -37.7 -92.85 -37.4 -93.15 -36.9 -93.3 -37.55 -91.1 -36.5 -89.15 L-36.05 -88.45 M-41.9 -79.3 L-42.5 -77.4 -41.05 -74.45 Q-46.25 -74.85 -42.6 -78.85 L-41.9 -79.3 M-45.05 -60.7 Q-49.9 -60.9 -46.65 -65.1 L-45.9 -65.55 Q-46.65 -63.35 -45.5 -61.4 L-45.05 -60.7 M-74.85 -1.5 Q-75.35 -1.5 -75.65 -1.2 L-76.0 -0.5 Q-76.0 -0.1 -75.65 0.2 -75.35 0.5 -74.85 0.5 L-74.0 0.2 Q-73.7 -0.1 -73.7 -0.5 -73.7 -0.9 -74.0 -1.2 L-74.85 -1.5 M-73.2 -7.1 L-73.5 -6.45 -73.2 -5.75 -72.5 -5.5 Q-72.1 -5.5 -71.8 -5.75 -71.5 -6.05 -71.5 -6.45 -71.5 -6.85 -71.8 -7.1 L-72.5 -7.4 -73.2 -7.1 M-30.75 33.4 Q-31.1 33.05 -31.6 33.05 -32.1 33.05 -32.4 33.4 -32.75 33.7 -32.75 34.15 L-32.4 34.95 Q-32.1 35.25 -31.6 35.25 L-30.75 34.95 Q-30.45 34.6 -30.45 34.15 -30.45 33.7 -30.75 33.4 M-70.5 6.65 L-70.25 5.95 Q-70.25 5.55 -70.5 5.3 -70.8 5.0 -71.2 5.0 -71.6 5.0 -71.85 5.3 L-72.15 5.95 -71.85 6.65 -71.2 6.9 -70.5 6.65" fill="#b77215" fill-rule="evenodd" stroke="none"/>
    <path d="M-83.15 -13.5 Q-81.45 -13.1 -79.95 -11.95 L-79.3 -11.4 -80.65 -12.05 Q-78.55 1.5 -70.35 12.3 -63.75 21.0 -55.05 27.4 -45.45 34.35 -34.15 37.5 L-33.35 37.7 Q-21.45 40.85 -9.25 39.35 L-8.7 39.3 Q2.95 38.05 13.05 32.7 23.05 27.45 31.25 19.65 L31.35 19.55 Q35.65 15.4 39.3 10.65 42.45 6.45 45.05 1.8 48.6 -4.55 50.3 -11.3 L50.0 -11.2 50.15 -11.25 53.55 -13.0 52.75 -12.5 Q50.35 -2.65 44.95 5.85 L41.7 10.65 Q37.05 17.0 31.35 22.4 L29.5 24.1 Q20.55 32.1 9.6 36.65 0.8 40.25 -8.7 41.45 L-14.2 41.9 Q-24.35 42.4 -34.15 39.75 L-38.15 38.5 Q-49.85 34.5 -59.35 26.8 -68.8 19.05 -75.1 8.55 -81.25 -1.75 -83.15 -13.5 M-30.8 -108.2 L-29.2 -108.25 -27.5 -107.35 -27.0 -106.35 Q-25.55 -101.35 -30.7 -101.4 L-32.35 -102.3 -33.3 -104.05 Q-33.3 -105.75 -32.55 -106.95 -31.85 -108.2 -30.8 -108.2 M-35.9 -94.15 L-34.35 -93.2 -33.9 -92.25 Q-32.6 -88.25 -36.45 -87.3 L-38.6 -87.75 -39.25 -88.35 Q-40.6 -89.75 -40.25 -91.75 L-39.65 -93.0 -39.05 -93.5 Q-37.65 -94.45 -35.9 -94.15 M-29.05 -102.45 L-28.5 -102.9 Q-26.1 -106.15 -29.9 -107.3 L-30.65 -106.85 Q-33.85 -102.85 -29.05 -102.45 M-36.9 -93.3 Q-37.4 -93.15 -37.7 -92.85 -41.2 -88.9 -36.05 -88.45 L-35.5 -88.9 Q-33.15 -92.2 -36.9 -93.3 M-41.45 -80.25 L-39.45 -79.3 -39.0 -78.3 Q-37.6 -74.1 -41.7 -73.3 L-43.75 -73.8 -44.15 -74.25 Q-47.1 -79.05 -41.45 -80.25 M-48.0 -60.25 L-48.5 -60.9 Q-50.6 -64.9 -46.55 -66.5 L-43.95 -65.95 -43.2 -64.9 Q-41.3 -60.7 -45.45 -59.55 L-48.0 -60.25 M-41.9 -79.3 L-42.6 -78.85 Q-46.25 -74.85 -41.05 -74.45 L-40.65 -74.75 Q-37.85 -77.85 -41.9 -79.3 M-45.9 -65.55 L-46.65 -65.1 Q-49.9 -60.9 -45.05 -60.7 L-44.75 -60.9 Q-41.9 -64.15 -45.9 -65.55" fill="#462c09" fill-rule="evenodd" stroke="none"/>
    <path d="M15.3 3.0 L18.25 -6.0 18.9 -5.15 15.1 10.25 14.5 12.85 Q13.35 18.9 9.85 24.05 L8.45 26.05 6.4 29.1 4.05 32.4 2.95 33.8 Q1.9 35.5 0.05 36.6 L-0.3 36.75 -1.15 36.65 -1.5 36.25 4.2 30.1 6.75 26.8 Q11.65 19.35 13.65 10.65 L13.85 9.65 15.05 4.3 15.3 3.0 M16.6 12.4 L17.5 12.0 Q17.9 14.0 15.85 15.0 L15.8 14.95 16.2 12.85 16.6 12.4 M10.55 25.0 Q11.35 23.35 12.75 23.55 L12.75 23.8 Q12.8 24.95 11.9 25.75 L11.25 26.25 10.55 25.0 M13.6 19.5 L14.75 18.1 15.3 18.5 15.15 19.4 14.0 21.35 13.4 20.65 13.6 19.5 M21.35 -0.8 L20.75 -1.25 Q20.45 -1.7 20.45 -2.35 L20.75 -2.8 21.65 -2.95 22.1 -1.8 21.9 -1.1 Q21.65 -0.8 21.35 -0.8 M10.2 27.65 Q10.6 29.1 9.4 30.0 L9.0 30.25 8.45 30.0 9.2 28.05 10.2 27.65 M20.8 3.5 Q20.5 3.85 20.1 3.85 19.7 3.85 19.4 3.5 19.1 3.1 19.1 2.55 19.1 2.0 19.4 1.65 19.7 1.25 20.1 1.25 20.5 1.25 20.8 1.65 L21.1 2.55 20.8 3.5 M19.3 6.5 L19.2 9.15 18.0 9.2 17.65 8.35 18.2 6.6 19.3 6.5 M6.5 34.4 L5.7 33.8 Q5.5 33.0 6.25 32.55 L7.5 32.05 7.65 33.15 6.5 34.4" fill="#6f460f" fill-rule="evenodd" stroke="none"/>
    <path d="M-11.25 -86.35 L-11.15 -86.65 -10.9 -87.0 -10.6 -87.4 Q-10.0 -88.0 -9.15 -88.2 L-9.1 -88.2 -8.45 -88.3 -7.7 -88.2 Q-6.9 -88.0 -6.3 -87.4 L-5.95 -86.95 -5.7 -86.6 -5.45 -85.85 -5.4 -85.25 -5.4 -84.65 -8.3 -84.15 -10.6 -86.0 -11.25 -86.35" fill="#6c2b4e" fill-rule="evenodd" stroke="none"/>
    <path d="M-5.9 -88.35 L-5.6 -88.1 -5.2 -87.65 -5.05 -87.5 -4.65 -86.75 -4.45 -86.0 -4.4 -85.25 -4.5 -84.3 Q-4.7 -83.45 -5.3 -82.75 L-5.6 -82.4 -5.95 -82.05 -6.15 -81.9 Q-6.55 -81.65 -6.9 -81.5 L-7.6 -81.25 -8.45 -81.2 -9.2 -81.25 -9.95 -81.45 -10.65 -81.85 -10.85 -82.0 -11.3 -82.4 -11.55 -82.7 Q-12.2 -83.45 -12.4 -84.35 L-12.5 -85.25 -12.4 -86.0 -12.2 -86.75 -11.8 -87.5 -11.6 -87.7 -11.3 -88.1 -10.95 -88.4 Q-10.25 -89.0 -9.35 -89.2 L-8.45 -89.3 -7.5 -89.2 Q-6.6 -89.0 -5.9 -88.35 M-5.4 -84.65 L-5.4 -85.25 -5.45 -85.85 -5.7 -86.6 -5.95 -86.95 -6.3 -87.4 Q-6.9 -88.0 -7.7 -88.2 L-8.45 -88.3 -9.1 -88.2 -9.15 -88.2 Q-10.0 -88.0 -10.6 -87.4 L-10.9 -87.0 -11.15 -86.65 -11.25 -86.35 -11.4 -85.8 -11.45 -85.7 -11.5 -85.25 -11.4 -84.55 -11.4 -84.5 Q-11.25 -83.75 -10.6 -83.1 L-10.15 -82.7 -9.8 -82.5 -8.95 -82.2 -8.45 -82.2 -7.9 -82.25 -7.0 -82.55 -6.65 -82.75 -6.3 -83.1 Q-5.7 -83.7 -5.45 -84.5 L-5.4 -84.65" fill="#1f0c16" fill-rule="evenodd" stroke="none"/>
    <path d="M0.1 -92.1 L0.45 -91.25 -0.05 -90.35 -0.45 -90.05 -1.0 -90.0 -1.1 -89.7 Q-1.05 -89.65 -1.15 -89.55 -1.5 -90.1 -2.15 -89.45 L-2.75 -89.65 -2.95 -89.1 -2.65 -89.05 -1.9 -88.6 -1.95 -88.3 -2.05 -87.9 Q-2.3 -87.25 -2.9 -86.95 L-4.0 -86.7 -4.05 -86.7 -4.2 -86.7 -4.65 -86.75 -5.05 -87.5 -4.05 -87.1 -3.95 -87.05 -3.8 -87.0 -3.45 -87.2 Q-2.95 -87.6 -2.95 -88.2 L-3.0 -88.4 -3.25 -88.8 -3.8 -88.5 -4.85 -88.95 -5.2 -87.65 -5.6 -88.1 -5.9 -88.35 -5.65 -88.95 -5.45 -89.05 -5.2 -89.7 -5.85 -90.55 -5.95 -90.95 -5.95 -90.75 -6.55 -89.65 -6.05 -89.05 -7.25 -90.25 -6.6 -91.2 -5.9 -91.45 -5.9 -91.5 -5.8 -91.6 -5.65 -91.75 -5.55 -91.8 -5.1 -91.8 -4.5 -91.5 -4.45 -91.45 -4.1 -91.0 -3.8 -90.9 -3.2 -90.8 -2.55 -91.45 -3.6 -92.4 -4.25 -91.95 -3.45 -92.95 -3.15 -92.95 Q-2.4 -92.9 -1.95 -92.15 L-1.85 -92.25 Q-0.8 -93.2 0.1 -92.1 M-3.45 -84.05 L-2.45 -83.45 -2.2 -82.7 -2.15 -82.75 -2.05 -82.65 -1.9 -82.5 -1.85 -82.35 Q-1.8 -82.15 -1.9 -81.9 L-2.15 -81.3 -2.25 -81.25 -2.7 -80.9 -2.8 -80.6 -2.9 -80.0 -2.25 -79.35 -1.25 -80.45 -1.7 -81.1 -0.7 -80.3 -0.75 -79.95 Q-0.8 -79.25 -1.55 -78.75 L-1.45 -78.65 Q-0.5 -77.6 -1.6 -76.7 -1.9 -76.4 -2.4 -76.4 -2.9 -76.5 -3.3 -76.9 L-3.65 -77.25 -3.7 -77.8 -4.0 -77.9 -4.1 -78.0 Q-3.55 -78.35 -4.25 -78.95 L-4.05 -79.6 -4.6 -79.75 -4.65 -79.45 -5.1 -78.7 -5.55 -78.75 -5.8 -78.85 -6.55 -79.45 Q-7.0 -80.0 -6.95 -80.95 L-6.95 -81.05 -6.9 -81.5 Q-6.55 -81.65 -6.15 -81.9 L-6.7 -80.6 -6.3 -80.05 Q-6.05 -79.85 -5.65 -79.8 L-5.6 -79.8 -5.25 -79.85 -4.85 -80.05 -5.15 -80.65 -4.7 -81.7 -5.95 -82.05 -5.6 -82.4 -5.3 -82.75 -4.75 -82.45 -4.65 -82.25 -4.0 -82.0 -3.1 -82.7 -2.75 -82.75 -2.9 -82.8 -4.0 -83.4 -4.0 -83.35 -4.65 -82.85 -3.45 -84.05 M-13.5 -76.9 Q-13.95 -76.45 -14.4 -76.4 -14.95 -76.35 -15.3 -76.7 -16.35 -77.65 -15.45 -78.65 L-15.3 -78.8 Q-16.1 -79.2 -16.15 -79.95 L-16.1 -80.3 -15.15 -81.05 -15.6 -80.4 -14.65 -79.35 -13.95 -80.05 -14.05 -80.65 -14.2 -80.9 -14.65 -81.25 -14.7 -81.3 -15.0 -81.9 -15.0 -82.35 -14.9 -82.5 -14.8 -82.6 -14.65 -82.75 -14.65 -82.7 -14.4 -83.4 -13.4 -84.1 -12.25 -82.85 -12.85 -83.35 -13.95 -82.75 -14.1 -82.8 -13.75 -82.65 -12.9 -82.0 Q-12.55 -82.05 -12.25 -82.25 L-12.1 -82.5 -11.55 -82.7 -11.3 -82.4 -10.85 -82.0 -12.15 -81.65 -11.65 -80.65 -12.0 -80.05 -11.55 -79.85 -11.35 -79.8 Q-10.8 -79.75 -10.4 -80.25 L-10.15 -80.65 -10.2 -80.8 -10.25 -80.85 -10.65 -81.85 -9.95 -81.45 -9.85 -81.05 -9.85 -80.85 -9.85 -80.8 -10.15 -79.65 Q-10.45 -79.15 -11.1 -78.85 L-11.45 -78.75 -11.8 -78.7 -12.2 -79.5 Q-12.1 -79.8 -12.3 -79.8 L-12.8 -79.6 -12.6 -79.0 Q-13.3 -78.3 -12.75 -77.95 L-12.9 -77.9 -13.15 -77.85 -13.25 -77.25 -13.5 -76.9 M-16.75 -90.35 Q-17.2 -90.8 -17.25 -91.25 -17.3 -91.8 -17.0 -92.1 -16.05 -93.15 -15.05 -92.2 L-14.9 -92.1 Q-14.5 -92.95 -13.75 -92.95 L-13.35 -92.95 -12.6 -92.0 -13.25 -92.45 -14.35 -91.45 -13.65 -90.75 -13.05 -90.85 Q-12.9 -90.9 -12.8 -91.0 L-12.75 -91.05 -12.45 -91.45 -12.4 -91.45 -11.8 -91.8 -11.55 -91.85 -11.15 -91.75 -10.9 -91.5 -10.95 -91.45 -10.25 -91.25 -9.6 -90.2 -10.9 -89.0 -10.35 -89.65 -10.3 -89.7 -10.9 -90.8 -10.9 -90.9 -11.0 -90.6 -11.7 -89.7 -11.45 -89.05 -11.2 -88.9 -10.95 -88.4 -11.3 -88.1 -11.6 -87.7 -12.0 -89.0 -13.0 -88.5 -13.6 -88.8 -13.8 -88.4 -13.85 -88.15 Q-13.9 -87.6 -13.45 -87.2 L-13.05 -86.95 -12.9 -87.0 -11.8 -87.5 -12.2 -86.75 -12.6 -86.7 -12.8 -86.7 -12.85 -86.7 -14.0 -86.95 Q-14.55 -87.3 -14.8 -87.9 L-14.95 -88.25 -15.0 -88.6 -14.2 -89.0 -13.85 -89.1 -14.1 -89.65 -14.7 -89.4 Q-15.35 -90.15 -15.7 -89.6 L-15.8 -89.7 -15.85 -89.95 -16.45 -90.05 -16.75 -90.35 M0.3 -91.3 L0.0 -92.0 Q-0.25 -92.25 -0.7 -92.3 L-1.35 -92.05 -1.65 -91.35 -1.35 -90.65 -0.65 -90.35 Q-0.25 -90.35 0.05 -90.65 L0.3 -91.3 M-0.75 -87.05 L0.5 -87.2 0.75 -86.95 Q1.25 -86.4 1.0 -85.55 L1.15 -85.55 Q2.55 -85.45 2.45 -84.05 2.45 -83.6 2.05 -83.25 1.65 -82.95 1.05 -82.95 L0.6 -83.0 0.15 -83.35 -0.1 -83.2 -0.25 -83.15 Q-0.1 -83.8 -1.05 -83.75 L-1.35 -84.35 -1.85 -84.15 -3.15 -84.95 -3.3 -85.35 -3.6 -85.15 -3.75 -85.25 -1.25 -86.85 -1.25 -86.8 -1.3 -86.25 -1.2 -85.95 -0.85 -85.45 0.1 -85.45 0.05 -86.9 -0.75 -87.05 M2.0 -84.75 Q1.75 -85.05 1.35 -85.05 0.95 -85.05 0.65 -84.75 L0.4 -84.05 0.65 -83.35 Q0.95 -83.05 1.35 -83.05 1.75 -83.05 2.0 -83.35 L2.3 -84.05 2.0 -84.75 M-8.65 -93.8 L-10.1 -93.75 -10.25 -92.95 -10.4 -94.2 -10.15 -94.45 Q-9.6 -94.95 -8.75 -94.7 L-8.75 -94.85 Q-8.65 -96.25 -7.25 -96.15 -6.8 -96.15 -6.45 -95.75 -6.15 -95.35 -6.15 -94.75 L-6.2 -94.3 -6.55 -93.85 -6.4 -93.6 -6.35 -93.45 Q-7.0 -93.6 -6.95 -92.65 L-7.55 -92.35 -7.3 -91.8 -8.05 -90.55 -8.55 -90.4 -8.35 -90.0 -8.4 -89.9 Q-9.05 -91.35 -10.05 -92.45 L-10.0 -92.45 -9.45 -92.4 -9.15 -92.5 -8.65 -92.85 -8.65 -93.8 M-8.25 -95.05 L-7.95 -94.35 -7.25 -94.1 Q-6.85 -94.1 -6.55 -94.35 -6.25 -94.65 -6.25 -95.05 -6.25 -95.45 -6.55 -95.7 -6.85 -96.0 -7.25 -96.0 L-7.95 -95.7 -8.25 -95.05 M-15.5 -92.0 L-16.2 -92.3 -16.9 -92.0 -17.2 -91.3 -16.9 -90.6 -16.2 -90.3 Q-15.8 -90.4 -15.55 -90.65 -15.25 -90.95 -15.2 -91.3 L-15.5 -92.0 M-19.35 -84.05 Q-19.45 -85.45 -18.05 -85.55 L-17.9 -85.55 Q-18.15 -86.4 -17.65 -86.95 L-17.4 -87.2 -16.15 -87.05 -16.95 -86.9 -17.0 -85.45 -16.05 -85.45 -15.7 -85.95 -15.6 -86.25 -15.65 -86.8 -15.65 -86.95 -13.05 -85.25 -13.25 -85.15 -13.6 -85.35 -13.75 -84.9 -15.0 -84.1 -15.55 -84.35 -15.85 -83.75 Q-16.8 -83.8 -16.65 -83.15 L-16.8 -83.2 -17.05 -83.35 -17.5 -83.0 -17.95 -82.95 Q-18.55 -82.95 -18.95 -83.25 -19.35 -83.6 -19.35 -84.05 M-17.55 -84.75 L-18.25 -85.05 Q-18.65 -85.05 -18.9 -84.75 L-19.2 -84.05 -18.9 -83.35 Q-18.65 -83.05 -18.25 -83.05 -17.85 -83.05 -17.55 -83.35 -17.3 -83.65 -17.3 -84.05 L-17.55 -84.75 M-15.5 -77.5 L-15.2 -76.8 Q-14.9 -76.5 -14.5 -76.5 -14.1 -76.5 -13.8 -76.8 L-13.5 -77.5 -13.85 -78.15 Q-14.1 -78.4 -14.5 -78.5 -14.95 -78.45 -15.2 -78.2 L-15.5 -77.5 M-7.25 -74.35 Q-8.65 -74.25 -8.75 -75.65 L-8.75 -75.8 Q-9.6 -75.55 -10.15 -76.05 L-10.4 -76.3 -10.25 -77.55 -10.1 -76.75 -8.65 -76.7 -8.65 -77.65 -9.15 -78.0 -9.45 -78.1 -10.0 -78.05 -10.05 -78.05 Q-9.05 -79.2 -8.4 -80.6 L-8.35 -80.45 -8.55 -80.1 -8.05 -79.9 -7.25 -78.65 -7.55 -78.15 -6.95 -77.85 Q-7.0 -76.9 -6.35 -77.05 L-6.4 -76.9 -6.55 -76.65 -6.2 -76.2 -6.15 -75.75 Q-6.15 -75.15 -6.45 -74.75 -6.8 -74.35 -7.25 -74.35 M-8.25 -75.45 L-7.95 -74.8 Q-7.65 -74.5 -7.25 -74.5 -6.85 -74.5 -6.55 -74.8 -6.25 -75.05 -6.25 -75.45 -6.25 -75.85 -6.55 -76.15 L-7.25 -76.4 -7.95 -76.15 -8.25 -75.45 M-1.65 -78.15 L-2.35 -78.45 -3.05 -78.15 -3.35 -77.45 -3.05 -76.75 Q-2.8 -76.45 -2.4 -76.5 -1.95 -76.55 -1.7 -76.8 -1.4 -77.1 -1.4 -77.5 L-1.65 -78.15" fill="#eec433" fill-rule="evenodd" stroke="none"/>
    <path d="M0.1 -92.1 Q-0.8 -93.2 -1.85 -92.25 L-1.95 -92.15 Q-2.4 -92.9 -3.15 -92.95 L-3.45 -92.95 -4.25 -91.95 -4.3 -91.7 -4.5 -91.9 -4.6 -92.0 -5.2 -92.4 -5.3 -92.4 -4.55 -92.95 -3.55 -93.55 -1.95 -93.95 Q-0.25 -93.95 0.1 -92.1 M-3.8 -90.9 L-4.1 -91.0 -4.05 -91.15 -3.8 -90.9 M-5.9 -91.5 L-5.9 -91.45 -6.6 -91.2 -5.95 -91.85 -5.9 -91.5 M-7.25 -90.25 L-6.05 -89.05 -5.95 -88.95 -5.65 -88.95 -5.9 -88.35 Q-6.6 -89.0 -7.5 -89.2 L-7.25 -90.25 M-4.65 -86.75 L-4.2 -86.7 -4.05 -86.7 -4.0 -86.7 -2.9 -86.95 Q-2.3 -87.25 -2.05 -87.9 L-1.95 -88.3 -1.9 -88.6 Q-1.35 -88.65 -1.15 -89.2 L-1.1 -89.45 -1.15 -89.55 Q-1.05 -89.65 -1.1 -89.7 L-1.0 -90.0 -0.45 -90.05 -0.05 -90.35 -0.65 -89.15 -1.3 -88.3 -1.75 -87.85 Q-2.25 -87.3 -2.9 -86.9 L-2.95 -86.85 -4.05 -86.2 -4.45 -86.0 -4.65 -86.75 M-4.5 -84.3 L-3.45 -84.05 -4.65 -82.85 -4.7 -82.8 -4.75 -82.45 -5.3 -82.75 Q-4.7 -83.45 -4.5 -84.3 M-2.45 -83.45 L-1.8 -82.8 -2.15 -82.75 -2.2 -82.7 -2.45 -83.45 M-1.25 -82.1 L-0.7 -81.35 -0.1 -80.4 0.25 -78.75 Q0.25 -77.05 -1.6 -76.7 -0.5 -77.6 -1.45 -78.65 L-1.55 -78.75 Q-0.8 -79.25 -0.75 -79.95 L-0.7 -80.3 -1.7 -81.1 -1.95 -81.15 -1.75 -81.3 -1.65 -81.45 -1.3 -82.0 -1.25 -82.1 M-3.3 -76.9 Q-3.95 -77.15 -4.55 -77.55 L-5.55 -78.3 -5.9 -78.65 -6.6 -79.4 -6.85 -79.75 -7.6 -81.25 -6.9 -81.5 -6.95 -81.05 -6.95 -80.95 Q-7.0 -80.0 -6.55 -79.45 L-5.8 -78.85 -5.55 -78.75 -5.1 -78.7 Q-5.0 -78.2 -4.5 -77.95 L-4.3 -77.85 -4.1 -78.0 -4.0 -77.9 -3.7 -77.8 -3.65 -77.25 -3.3 -76.9 M-9.2 -81.25 L-9.4 -80.85 -10.0 -79.8 -10.05 -79.65 -11.05 -78.5 -11.5 -78.1 -12.35 -77.5 -13.5 -76.9 -13.25 -77.25 -13.15 -77.85 -12.9 -77.9 -12.75 -77.95 -12.6 -77.9 -12.4 -77.95 Q-11.8 -78.2 -11.8 -78.7 L-11.45 -78.75 -11.1 -78.85 Q-10.45 -79.15 -10.15 -79.65 L-9.85 -80.8 -9.85 -80.85 -9.85 -81.05 -9.95 -81.45 -9.2 -81.25 M-15.3 -76.7 Q-17.15 -77.05 -17.15 -78.75 L-16.7 -80.4 -16.15 -81.35 -15.6 -82.1 -15.6 -82.0 -15.2 -81.4 -15.1 -81.3 -14.85 -81.15 -15.15 -81.05 -16.1 -80.3 -16.15 -79.95 Q-16.1 -79.2 -15.3 -78.8 L-15.45 -78.65 Q-16.35 -77.65 -15.3 -76.7 M-15.0 -82.8 L-14.4 -83.4 -14.65 -82.7 -14.65 -82.75 -15.0 -82.8 M-13.4 -84.1 L-12.4 -84.35 Q-12.2 -83.45 -11.55 -82.7 L-12.1 -82.5 -12.15 -82.75 -12.25 -82.85 -13.4 -84.1 M-12.4 -86.0 L-12.85 -86.2 -13.9 -86.8 -14.0 -86.85 -15.15 -87.85 -15.55 -88.35 -16.15 -89.15 -16.75 -90.35 -16.45 -90.05 -15.85 -89.95 -15.8 -89.7 -15.7 -89.6 -15.8 -89.4 -15.7 -89.2 Q-15.45 -88.65 -15.0 -88.6 L-14.95 -88.25 -14.8 -87.9 Q-14.55 -87.3 -14.0 -86.95 L-12.85 -86.7 -12.8 -86.7 -12.6 -86.7 -12.2 -86.75 -12.4 -86.0 M-17.0 -92.1 Q-16.65 -93.95 -14.95 -93.95 L-13.25 -93.55 -12.35 -93.0 -11.55 -92.45 -11.7 -92.4 -12.25 -92.05 -12.4 -91.85 -12.5 -91.7 -12.6 -92.0 -13.35 -92.95 -13.75 -92.95 Q-14.5 -92.95 -14.9 -92.1 L-15.05 -92.2 Q-16.05 -93.15 -17.0 -92.1 M-10.85 -91.85 L-10.25 -91.25 -10.95 -91.45 -10.9 -91.5 -10.85 -91.85 M-9.6 -90.2 L-9.35 -89.2 Q-10.25 -89.0 -10.95 -88.4 L-11.2 -88.9 -10.9 -89.0 -9.6 -90.2 M-0.95 -87.15 L-0.2 -87.95 0.85 -87.7 2.3 -86.8 Q3.5 -85.6 2.45 -84.05 2.55 -85.45 1.15 -85.55 L1.0 -85.55 Q1.25 -86.4 0.75 -86.95 L0.5 -87.2 -0.75 -87.05 -1.0 -86.9 -0.95 -87.15 M1.05 -82.95 L-0.2 -82.55 -0.5 -82.9 -0.3 -83.0 -0.25 -83.15 -0.1 -83.2 0.15 -83.35 0.6 -83.0 1.05 -82.95 M-1.2 -85.95 L-1.3 -86.25 -1.2 -86.35 -1.2 -85.95 M-9.15 -92.5 L-9.45 -92.4 -9.55 -92.5 -9.15 -92.5 M-6.35 -93.45 L-6.4 -93.6 -6.55 -93.85 -6.2 -94.3 -6.15 -94.75 -5.75 -93.5 -6.1 -93.2 -6.2 -93.4 -6.35 -93.45 M-7.25 -96.15 Q-8.65 -96.25 -8.75 -94.85 L-8.75 -94.7 Q-9.6 -94.95 -10.15 -94.45 L-10.4 -94.2 -10.25 -92.95 -10.1 -92.7 -10.3 -92.75 -11.15 -93.5 -10.9 -94.55 -10.0 -96.0 Q-8.8 -97.2 -7.25 -96.15 M-19.35 -84.05 Q-20.4 -85.6 -19.2 -86.8 L-17.75 -87.7 -16.6 -87.95 -15.95 -87.25 -15.9 -86.9 -16.15 -87.05 -17.4 -87.2 -17.65 -86.95 Q-18.15 -86.4 -17.9 -85.55 L-18.05 -85.55 Q-19.45 -85.45 -19.35 -84.05 M-16.35 -82.9 L-16.65 -82.5 -17.95 -82.95 -17.5 -83.0 -17.05 -83.35 -16.8 -83.2 -16.65 -83.15 -16.6 -83.0 -16.35 -82.9 M-15.6 -86.25 L-15.7 -85.95 -15.7 -86.35 -15.6 -86.25 M-12.75 -91.05 L-12.8 -91.0 Q-12.9 -90.9 -13.05 -90.85 L-12.75 -91.15 -12.75 -91.05 M-14.2 -80.9 L-14.05 -80.65 -14.3 -80.9 -14.2 -80.9 M-10.25 -77.55 L-10.4 -76.3 -10.15 -76.05 Q-9.6 -75.55 -8.75 -75.8 L-8.75 -75.65 Q-8.65 -74.25 -7.25 -74.35 -8.8 -73.3 -10.0 -74.5 -10.6 -75.1 -10.9 -75.95 L-11.15 -77.0 -10.35 -77.75 -10.1 -77.8 -10.25 -77.55 M-6.15 -75.75 L-6.2 -76.2 -6.55 -76.65 -6.4 -76.9 -6.35 -77.05 -6.2 -77.1 -6.05 -77.35 -5.7 -77.05 -6.15 -75.75 M-9.45 -78.1 L-9.15 -78.0 -9.55 -78.0 -9.45 -78.1 M-2.8 -80.6 L-2.7 -80.9 -2.5 -80.9 -2.8 -80.6" fill="#b77215" fill-rule="evenodd" stroke="none"/>
    <path d="M-0.05 -90.35 L0.45 -91.25 0.1 -92.1 Q-0.25 -93.95 -1.95 -93.95 L-3.55 -93.55 -4.55 -92.95 -5.3 -92.4 -5.55 -92.45 -5.65 -92.45 -5.95 -92.15 -5.95 -91.85 -6.6 -91.2 -7.25 -90.25 -7.5 -89.2 -8.45 -89.3 -9.35 -89.2 -9.6 -90.2 -10.25 -91.25 -10.85 -91.85 -10.9 -92.15 -10.9 -92.2 -11.15 -92.45 -11.45 -92.45 -11.55 -92.45 -12.35 -93.0 -13.25 -93.55 -14.95 -93.95 Q-16.65 -93.95 -17.0 -92.1 -17.3 -91.8 -17.25 -91.25 -17.2 -90.8 -16.75 -90.35 L-16.15 -89.15 -15.55 -88.35 -15.15 -87.85 -14.0 -86.85 -13.9 -86.8 -12.85 -86.2 -12.4 -86.0 -12.5 -85.25 -12.4 -84.35 -13.4 -84.1 -14.4 -83.4 -15.0 -82.8 -15.15 -82.8 -15.35 -82.75 -15.6 -82.5 -15.65 -82.35 -15.6 -82.1 -16.15 -81.35 -16.7 -80.4 -17.15 -78.75 Q-17.15 -77.05 -15.3 -76.7 -14.95 -76.35 -14.4 -76.4 -13.95 -76.45 -13.5 -76.9 L-12.35 -77.5 -11.5 -78.1 -11.05 -78.5 -10.05 -79.65 -10.0 -79.8 -9.4 -80.85 -9.2 -81.25 -8.45 -81.2 -7.6 -81.25 -6.85 -79.75 -6.6 -79.4 -5.9 -78.65 -5.55 -78.3 -4.55 -77.55 Q-3.95 -77.15 -3.3 -76.9 -2.9 -76.5 -2.4 -76.4 -1.9 -76.4 -1.6 -76.7 0.25 -77.05 0.25 -78.75 L-0.1 -80.4 -0.7 -81.35 -1.25 -82.1 -1.2 -82.35 -1.2 -82.5 -1.5 -82.8 -1.75 -82.8 -1.8 -82.8 -2.45 -83.45 -3.45 -84.05 -4.5 -84.3 -4.4 -85.25 -4.45 -86.0 -4.05 -86.2 -2.95 -86.85 -2.9 -86.9 Q-2.25 -87.3 -1.75 -87.85 L-1.3 -88.3 -0.65 -89.15 -0.05 -90.35 M0.5 -88.9 L2.6 -88.15 Q4.5 -86.8 3.75 -84.65 2.85 -82.2 0.5 -81.55 L1.45 -79.45 Q1.8 -77.2 -0.2 -76.2 L-4.75 -76.35 Q-5.4 -73.95 -7.85 -73.05 -10.0 -72.3 -11.35 -74.2 L-12.1 -76.3 -16.6 -76.2 Q-18.7 -77.2 -18.3 -79.5 L-17.35 -81.55 Q-19.75 -82.2 -20.65 -84.65 -21.4 -86.8 -19.5 -88.15 L-17.3 -88.95 Q-18.55 -91.05 -17.45 -93.45 -16.5 -95.5 -14.2 -95.1 L-12.15 -94.15 -11.35 -96.3 Q-10.0 -98.2 -7.85 -97.45 -5.45 -96.55 -4.75 -94.15 -3.85 -94.75 -2.7 -95.15 -0.4 -95.5 0.65 -93.45 1.7 -91.1 0.5 -88.9 M2.45 -84.05 Q3.5 -85.6 2.3 -86.8 L0.85 -87.7 -0.2 -87.95 -0.95 -87.15 -1.25 -86.85 -3.75 -85.25 -3.6 -85.15 -3.15 -84.95 -1.85 -84.15 -0.5 -82.9 -0.2 -82.55 1.05 -82.95 Q1.65 -82.95 2.05 -83.25 2.45 -83.6 2.45 -84.05 M-10.05 -92.45 Q-9.05 -91.35 -8.4 -89.9 L-8.35 -90.0 -8.05 -90.55 -7.3 -91.8 -6.1 -93.2 -5.75 -93.5 -6.15 -94.75 Q-6.15 -95.35 -6.45 -95.75 -6.8 -96.15 -7.25 -96.15 -8.8 -97.2 -10.0 -96.0 L-10.9 -94.55 -11.15 -93.5 -10.3 -92.75 -10.05 -92.45 M-15.95 -87.25 L-16.6 -87.95 -17.75 -87.7 -19.2 -86.8 Q-20.4 -85.6 -19.35 -84.05 -19.35 -83.6 -18.95 -83.25 -18.55 -82.95 -17.95 -82.95 L-16.65 -82.5 -16.35 -82.9 -15.0 -84.1 -13.75 -84.9 -13.25 -85.15 -13.05 -85.25 -15.65 -86.95 -15.95 -87.25 M-10.35 -77.75 L-11.15 -77.0 -10.9 -75.95 Q-10.6 -75.1 -10.0 -74.5 -8.8 -73.3 -7.25 -74.35 -6.8 -74.35 -6.45 -74.75 -6.15 -75.15 -6.15 -75.75 L-5.7 -77.05 -6.05 -77.35 -7.25 -78.65 -8.05 -79.9 -8.35 -80.45 -8.4 -80.6 Q-9.05 -79.2 -10.05 -78.05 L-10.35 -77.75" fill="#462c09" fill-rule="evenodd" stroke="none"/>
    <path d="M-4.25 -91.95 L-3.6 -92.4 -2.55 -91.45 -3.8 -90.9 -4.05 -91.15 -4.3 -91.7 -4.25 -91.95 M-6.05 -89.05 L-6.55 -89.65 -5.95 -90.75 -5.85 -90.55 -5.2 -89.7 -5.45 -89.05 -5.65 -88.95 -5.95 -88.95 -6.05 -89.05 M-5.2 -87.65 L-4.85 -88.95 -3.8 -88.5 -3.25 -88.8 -3.0 -88.4 -2.95 -88.2 Q-2.95 -87.6 -3.45 -87.2 L-3.8 -87.0 -3.95 -87.05 -4.05 -87.1 -5.05 -87.5 -5.2 -87.65 M0.3 -91.3 L0.05 -90.65 Q-0.25 -90.35 -0.65 -90.35 L-1.35 -90.65 -1.65 -91.35 -1.35 -92.05 -0.7 -92.3 Q-0.25 -92.25 0.0 -92.0 L0.3 -91.3 M-1.0 -86.9 L-0.75 -87.05 0.05 -86.9 0.1 -85.45 -1.2 -85.95 -1.2 -86.35 -1.0 -86.9 M-3.15 -84.95 L-3.6 -85.15 -3.3 -85.35 -3.15 -84.95 M2.0 -84.75 L2.3 -84.05 2.0 -83.35 Q1.75 -83.05 1.35 -83.05 0.95 -83.05 0.65 -83.35 L0.4 -84.05 0.65 -84.75 Q0.95 -85.05 1.35 -85.05 1.75 -85.05 2.0 -84.75 M-8.25 -95.05 L-7.95 -95.7 -7.25 -96.0 Q-6.85 -96.0 -6.55 -95.7 -6.25 -95.45 -6.25 -95.05 -6.25 -94.65 -6.55 -94.35 -6.85 -94.1 -7.25 -94.1 L-7.95 -94.35 -8.25 -95.05 M-10.25 -92.95 L-10.1 -93.75 -8.65 -93.8 -9.15 -92.5 -9.55 -92.5 -10.1 -92.7 -10.25 -92.95 M-8.35 -90.0 L-8.55 -90.4 -8.05 -90.55 -8.35 -90.0 M-12.6 -92.0 L-12.5 -91.7 -12.75 -91.15 -13.05 -90.85 -14.35 -91.45 -13.25 -92.45 -12.6 -92.0 M-15.5 -92.0 L-15.2 -91.3 Q-15.25 -90.95 -15.55 -90.65 -15.8 -90.4 -16.2 -90.3 L-16.9 -90.6 -17.2 -91.3 -16.9 -92.0 -16.2 -92.3 -15.5 -92.0 M-11.8 -87.5 L-12.9 -87.0 -13.05 -86.95 -13.45 -87.2 Q-13.9 -87.6 -13.85 -88.15 L-13.8 -88.4 -13.6 -88.8 -13.0 -88.5 -12.0 -89.0 -11.6 -87.7 -11.8 -87.5 M-11.2 -88.9 L-11.45 -89.05 -11.7 -89.7 -11.0 -90.6 -10.9 -90.8 -10.3 -89.7 -10.35 -89.65 -10.9 -89.0 -11.2 -88.9 M-16.15 -87.05 L-15.9 -86.9 -15.7 -86.35 -15.7 -85.95 -17.0 -85.45 -16.95 -86.9 -16.15 -87.05 M-13.25 -85.15 L-13.75 -84.9 -13.6 -85.35 -13.25 -85.15 M-12.1 -82.5 L-12.25 -82.25 Q-12.55 -82.05 -12.9 -82.0 L-13.75 -82.65 -13.95 -82.75 -12.85 -83.35 -12.25 -82.85 -12.15 -82.75 -12.1 -82.5 M-14.65 -79.35 L-15.6 -80.4 -15.15 -81.05 -14.85 -81.15 -14.3 -80.9 -14.05 -80.65 -14.65 -79.35 M-10.65 -81.85 L-10.25 -80.85 -10.2 -80.8 -10.15 -80.65 -10.4 -80.25 Q-10.8 -79.75 -11.35 -79.8 L-11.55 -79.85 -12.0 -80.05 -11.65 -80.65 -12.15 -81.65 -10.85 -82.0 -10.65 -81.85 M-17.55 -84.75 L-17.3 -84.05 Q-17.3 -83.65 -17.55 -83.35 -17.85 -83.05 -18.25 -83.05 -18.65 -83.05 -18.9 -83.35 L-19.2 -84.05 -18.9 -84.75 Q-18.65 -85.05 -18.25 -85.05 L-17.55 -84.75 M-15.5 -77.5 L-15.2 -78.2 Q-14.95 -78.45 -14.5 -78.5 -14.1 -78.4 -13.85 -78.15 L-13.5 -77.5 -13.8 -76.8 Q-14.1 -76.5 -14.5 -76.5 -14.9 -76.5 -15.2 -76.8 L-15.5 -77.5 M-10.25 -77.55 L-10.1 -77.8 -9.55 -78.0 -9.15 -78.0 -8.65 -76.7 -10.1 -76.75 -10.25 -77.55 M-8.05 -79.9 L-8.55 -80.1 -8.35 -80.45 -8.05 -79.9 M-3.1 -82.7 L-4.0 -82.0 -4.65 -82.25 -4.75 -82.45 -4.7 -82.8 -4.65 -82.85 -4.0 -83.35 -4.0 -83.4 -2.9 -82.8 -3.1 -82.7 M-5.95 -82.05 L-4.7 -81.7 -5.15 -80.65 -4.85 -80.05 -5.25 -79.85 -5.6 -79.8 -5.65 -79.8 Q-6.05 -79.85 -6.3 -80.05 L-6.7 -80.6 -6.15 -81.9 -5.95 -82.05 M-2.8 -80.6 L-2.5 -80.9 -1.95 -81.15 -1.7 -81.1 -1.25 -80.45 -2.25 -79.35 -2.8 -80.6 M-8.25 -75.45 L-7.95 -76.15 -7.25 -76.4 -6.55 -76.15 Q-6.25 -75.85 -6.25 -75.45 -6.25 -75.05 -6.55 -74.8 -6.85 -74.5 -7.25 -74.5 -7.65 -74.5 -7.95 -74.8 L-8.25 -75.45 M-1.65 -78.15 L-1.4 -77.5 Q-1.4 -77.1 -1.7 -76.8 -1.95 -76.55 -2.4 -76.5 -2.8 -76.45 -3.05 -76.75 L-3.35 -77.45 -3.05 -78.15 -2.35 -78.45 -1.65 -78.15" fill="#f9ee71" fill-rule="evenodd" stroke="none"/>
    <path d="M-2.55 -91.45 L-3.2 -90.8 -3.8 -90.9 -2.55 -91.45 M-4.1 -91.0 L-4.45 -91.45 -4.5 -91.5 -5.1 -91.8 -5.55 -91.8 -5.65 -91.75 -5.8 -91.6 -5.9 -91.5 -5.95 -91.85 -5.95 -92.15 -5.65 -92.45 -5.55 -92.45 -5.3 -92.4 -5.2 -92.4 -4.6 -92.0 -4.5 -91.9 -4.3 -91.7 -4.05 -91.15 -4.1 -91.0 M-5.95 -90.75 L-5.95 -90.95 -5.85 -90.55 -5.95 -90.75 M-1.9 -88.6 L-2.65 -89.05 -2.95 -89.1 -2.75 -89.65 -2.15 -89.45 Q-1.5 -90.1 -1.15 -89.55 L-1.1 -89.45 -1.15 -89.2 Q-1.35 -88.65 -1.9 -88.6 M-1.8 -82.8 L-1.75 -82.8 -1.5 -82.8 -1.2 -82.5 -1.2 -82.35 -1.25 -82.1 -1.3 -82.0 -1.65 -81.45 -1.75 -81.3 -1.95 -81.15 -2.5 -80.9 -2.7 -80.9 -2.25 -81.25 -2.15 -81.3 -1.9 -81.9 Q-1.8 -82.15 -1.85 -82.35 L-1.9 -82.5 -2.05 -82.65 -2.15 -82.75 -1.8 -82.8 M-15.6 -82.1 L-15.65 -82.35 -15.6 -82.5 -15.35 -82.75 -15.15 -82.8 -15.0 -82.8 -14.65 -82.75 -14.8 -82.6 -14.9 -82.5 -15.0 -82.35 -15.0 -81.9 -14.7 -81.3 -14.65 -81.25 -14.2 -80.9 -14.3 -80.9 -14.85 -81.15 -15.1 -81.3 -15.2 -81.4 -15.6 -82.0 -15.6 -82.1 M-11.55 -92.45 L-11.45 -92.45 -11.15 -92.45 -10.9 -92.2 -10.9 -92.15 -10.85 -91.85 -10.9 -91.5 -11.15 -91.75 -11.55 -91.85 -11.8 -91.8 -12.4 -91.45 -12.45 -91.45 -12.75 -91.05 -12.75 -91.15 -12.5 -91.7 -12.4 -91.85 -12.25 -92.05 -11.7 -92.4 -11.55 -92.45 M-0.95 -87.15 L-1.0 -86.9 -1.2 -86.35 -1.3 -86.25 -1.25 -86.8 -1.25 -86.85 -0.95 -87.15 M-0.5 -82.9 L-1.85 -84.15 -1.35 -84.35 -1.05 -83.75 Q-0.1 -83.8 -0.25 -83.15 L-0.3 -83.0 -0.5 -82.9 M0.1 -85.45 L-0.85 -85.45 -1.2 -85.95 0.1 -85.45 M-8.65 -93.8 L-8.65 -92.85 -9.15 -92.5 -8.65 -93.8 M-9.45 -92.4 L-10.0 -92.45 -10.05 -92.45 -10.3 -92.75 -10.1 -92.7 -9.55 -92.5 -9.45 -92.4 M-7.3 -91.8 L-7.55 -92.35 -6.95 -92.65 Q-7.0 -93.6 -6.35 -93.45 L-6.2 -93.4 -6.1 -93.2 -7.3 -91.8 M-15.7 -89.6 Q-15.35 -90.15 -14.7 -89.4 L-14.1 -89.65 -13.85 -89.1 -14.2 -89.0 -15.0 -88.6 Q-15.45 -88.65 -15.7 -89.2 L-15.8 -89.4 -15.7 -89.6 M-11.0 -90.6 L-10.9 -90.9 -10.9 -90.8 -11.0 -90.6 M-15.9 -86.9 L-15.95 -87.25 -15.65 -86.95 -15.65 -86.8 -15.6 -86.25 -15.7 -86.35 -15.9 -86.9 M-15.0 -84.1 L-16.35 -82.9 -16.6 -83.0 -16.65 -83.15 Q-16.8 -83.8 -15.85 -83.75 L-15.55 -84.35 -15.0 -84.1 M-15.7 -85.95 L-16.05 -85.45 -17.0 -85.45 -15.7 -85.95 M-13.05 -90.85 L-13.65 -90.75 -14.35 -91.45 -13.05 -90.85 M-13.95 -82.75 L-13.75 -82.65 -14.1 -82.8 -13.95 -82.75 M-14.05 -80.65 L-13.95 -80.05 -14.65 -79.35 -14.05 -80.65 M-12.75 -77.95 Q-13.3 -78.3 -12.6 -79.0 L-12.8 -79.6 -12.3 -79.8 Q-12.1 -79.8 -12.2 -79.5 L-11.8 -78.7 Q-11.8 -78.2 -12.4 -77.95 L-12.6 -77.9 -12.75 -77.95 M-10.1 -77.8 L-10.35 -77.75 -10.05 -78.05 -10.0 -78.05 -9.45 -78.1 -9.55 -78.0 -10.1 -77.8 M-6.35 -77.05 Q-7.0 -76.9 -6.95 -77.85 L-7.55 -78.15 -7.25 -78.65 -6.05 -77.35 -6.2 -77.1 -6.35 -77.05 M-9.15 -78.0 L-8.65 -77.65 -8.65 -76.7 -9.15 -78.0 M-2.9 -82.8 L-2.75 -82.75 -3.1 -82.7 -2.9 -82.8 M-5.1 -78.7 L-4.65 -79.45 -4.6 -79.75 -4.05 -79.6 -4.25 -78.95 Q-3.55 -78.35 -4.1 -78.0 L-4.3 -77.85 -4.5 -77.95 Q-5.0 -78.2 -5.1 -78.7 M-2.25 -79.35 L-2.9 -80.0 -2.8 -80.6 -2.25 -79.35" fill="#d5981a" fill-rule="evenodd" stroke="none"/>
    <path d="M-5.4 -84.65 L-5.45 -84.5 Q-5.7 -83.7 -6.3 -83.1 L-6.65 -82.75 -7.0 -82.55 -7.9 -82.25 -8.45 -82.2 -8.95 -82.2 -9.8 -82.5 -10.15 -82.7 -10.6 -83.1 Q-11.25 -83.75 -11.4 -84.5 L-11.4 -84.55 -11.5 -85.25 -11.45 -85.7 -11.4 -85.8 -11.25 -86.35 -10.6 -86.0 -8.3 -84.15 -5.4 -84.65" fill="#481c33" fill-rule="evenodd" stroke="none"/>
  </g>
</svg>
