<?xml version="1.0" encoding="UTF-8" standalone="no"?>
<svg xmlns:ffdec="https://www.free-decompiler.com/flash" xmlns:xlink="http://www.w3.org/1999/xlink" ffdec:objectType="shape" height="41.8px" width="42.75px" xmlns="http://www.w3.org/2000/svg">
  <g transform="matrix(1.0, 0.0, 0.0, 1.0, 35.25, 15.55)">
    <path d="M-17.85 11.25 L-18.95 11.25 -18.45 9.3 -17.85 11.25" fill="#1f1b16" fill-rule="evenodd" stroke="none"/>
    <path d="M-18.0 0.6 L-17.25 2.5 -17.55 2.65 Q-18.65 3.1 -19.35 3.6 L-20.0 4.05 -20.7 4.8 -20.65 4.8 -20.95 5.45 -18.8 6.6 Q-18.4 6.7 -17.5 5.65 L-16.5 4.3 -16.8 4.25 -17.05 4.05 -17.1 4.0 -17.2 3.65 Q-17.2 3.45 -17.0 3.4 L-16.9 3.3 -16.7 3.35 -15.45 3.75 -15.3 3.8 -15.0 3.85 -14.9 3.85 -14.85 3.85 -11.55 3.4 -11.5 3.4 -8.7 2.35 -7.45 1.8 -7.4 1.8 -6.9 1.6 -6.9 1.55 -7.15 1.45 Q-7.5 1.3 -7.25 0.4 -7.1 -0.55 -7.4 -1.45 L-7.1 -1.4 -6.95 -1.45 -2.15 -0.7 -1.7 -0.45 Q3.95 3.45 5.75 7.85 L6.1 8.6 5.2 8.9 Q2.3 9.75 0.0 11.25 L-2.75 11.25 -1.05 9.8 Q1.0 8.2 3.4 7.4 1.8 4.3 -1.65 2.3 L-4.6 4.2 -6.4 5.2 -8.15 5.65 -8.35 5.7 -8.5 5.75 -8.55 5.75 -8.8 5.7 -8.55 5.55 -8.4 5.45 -7.75 5.1 -6.5 4.35 -5.3 3.45 Q-3.7 2.25 -3.0 0.9 -4.1 0.65 -6.3 1.4 L-6.25 1.4 -5.95 1.65 -5.85 2.0 -6.1 2.3 -6.75 2.65 -6.85 2.7 -8.6 3.4 -10.2 4.05 -11.0 4.3 -12.45 4.7 -11.75 9.35 -10.5 11.25 -11.95 11.25 Q-13.2 8.95 -14.35 5.55 L-14.7 4.6 -18.05 7.45 -18.45 9.3 -18.95 11.25 -20.2 11.25 -20.1 10.65 -18.75 6.75 -21.25 6.15 -23.9 10.4 -23.75 11.25 -25.1 11.25 -25.45 10.05 -22.9 4.75 Q-22.85 3.55 -20.7 2.05 -19.55 1.25 -18.0 0.6" fill="#473930" fill-rule="evenodd" stroke="none"/>
    <path d="M-8.15 5.65 L-6.4 5.2 -4.6 4.2 -1.65 2.3 Q1.8 4.3 3.4 7.4 1.0 8.2 -1.05 9.8 -0.75 6.0 -6.3 5.7 L-8.15 5.65" fill="#c0afa3" fill-rule="evenodd" stroke="none"/>
    <path d="M-20.2 11.25 L-23.75 11.25 -23.9 10.4 -21.25 6.15 -18.75 6.75 -20.1 10.65 -20.2 11.25" fill="#b19c8d" fill-rule="evenodd" stroke="none"/>
    <path d="M-17.25 2.5 L-16.9 3.3 -17.0 3.4 Q-17.2 3.45 -17.2 3.65 L-17.1 4.0 -17.05 4.05 -16.8 4.25 -16.5 4.3 -17.5 5.65 Q-18.4 6.7 -18.8 6.6 L-20.95 5.45 -20.65 4.8 -20.7 4.8 -20.0 4.05 -19.35 3.6 Q-18.65 3.1 -17.55 2.65 L-17.25 2.5 M-2.75 11.25 L-10.5 11.25 -11.75 9.35 -12.45 4.7 -11.0 4.3 -10.2 4.05 -8.6 3.4 -6.85 2.7 -6.75 2.65 -6.1 2.3 -5.85 2.0 -5.95 1.65 -6.25 1.4 -6.3 1.4 Q-4.1 0.65 -3.0 0.9 -3.7 2.25 -5.3 3.45 L-6.5 4.35 -7.75 5.1 -8.4 5.45 -8.55 5.55 -8.8 5.7 -8.55 5.75 -8.5 5.75 -8.35 5.7 -8.15 5.65 -6.3 5.7 Q-0.75 6.0 -1.05 9.8 L-2.75 11.25" fill="#beaba3" fill-rule="evenodd" stroke="none"/>
    <path d="M-11.95 11.25 L-17.85 11.25 -18.45 9.3 -18.05 7.45 -14.7 4.6 -14.35 5.55 Q-13.2 8.95 -11.95 11.25" fill="#462c09" fill-rule="evenodd" stroke="none"/>
    <path d="M-15.45 3.75 L-16.4 -1.55 -16.4 -1.65 -16.4 -1.75 -16.55 -2.1 -16.7 -2.45 -16.85 -2.65 -16.85 -2.7 -21.0 -11.95 -13.65 -13.45 Q-10.9 -13.95 -9.3 -11.8 L-8.45 -10.4 -8.85 -9.15 -8.85 -8.8 -9.1 -6.0 -9.05 -5.35 -9.1 -4.25 -9.15 -2.45 -9.1 -1.85 -8.7 2.35 -11.5 3.4 -11.55 3.4 -14.85 3.85 -14.9 3.85 -15.0 3.85 -15.3 3.8 -15.45 3.75" fill="#e79d5a" fill-rule="evenodd" stroke="none"/>
    <path d="M-18.0 0.6 L-18.4 -0.75 -18.75 -1.75 -20.35 -5.95 -23.3 -12.25 -23.4 -12.8 -23.1 -13.4 -22.6 -13.7 -14.0 -15.4 Q-10.05 -16.1 -7.75 -13.0 L-6.4 -10.85 -6.4 -10.15 -6.95 -8.55 -6.9 -8.5 -7.1 -5.95 -7.1 -5.9 -7.15 -5.75 -7.15 -4.7 -7.1 -1.4 -7.4 -1.45 Q-7.1 -0.55 -7.25 0.4 -7.5 1.3 -7.15 1.45 L-6.9 1.55 -6.9 1.6 -7.4 1.8 -7.45 1.8 -8.7 2.35 -9.1 -1.85 -9.15 -2.45 -9.1 -4.25 -9.05 -5.35 -9.1 -6.0 -8.85 -8.8 -8.85 -9.15 -8.45 -10.4 -9.3 -11.8 Q-10.9 -13.95 -13.65 -13.45 L-21.0 -11.95 -16.85 -2.7 -16.85 -2.65 -16.7 -2.45 -16.55 -2.1 -16.4 -1.75 -16.4 -1.65 -16.4 -1.55 -15.45 3.75 -16.7 3.35 -16.9 3.3 -17.25 2.5 -18.0 0.6" fill="#654425" fill-rule="evenodd" stroke="none"/>
    <path d="M-28.65 -1.2 Q-26.6 -0.7 -24.5 0.25 -22.1 1.4 -20.35 3.5 L-17.8 6.35 -16.9 6.2 -16.5 6.15 -15.7 6.2 Q-14.3 6.35 -13.15 7.2 L-11.85 6.1 Q-4.65 0.4 3.25 0.85 L3.75 1.0 4.1 1.4 4.15 1.55 Q5.6 4.2 6.4 6.65 L6.55 7.15 7.1 9.1 Q7.8 12.5 7.2 15.45 L7.15 15.8 6.6 17.65 Q4.65 22.7 -1.6 26.15 L-2.0 26.25 -2.4 26.2 Q-11.75 23.1 -14.8 17.9 L-16.5 18.1 Q-18.4 18.1 -19.85 17.05 -25.8 21.2 -32.2 20.2 L-32.65 20.0 -32.95 19.6 Q-35.9 12.95 -35.1 7.35 -34.65 2.1 -30.65 -0.8 -29.85 -1.4 -28.65 -1.2 M-20.45 7.7 L-20.05 7.35 -19.7 7.1 Q-23.2 1.4 -29.7 0.2 L-30.15 0.65 Q-31.95 3.75 -33.05 7.35 -33.85 12.3 -31.35 18.3 -26.15 18.85 -21.3 15.7 L-22.15 14.1 -22.45 12.55 -22.5 12.35 -22.5 12.25 -22.5 12.1 Q-22.5 9.65 -20.7 7.9 L-20.45 7.7 M-14.75 8.55 L-16.5 8.15 Q-17.65 8.15 -18.6 8.75 L-19.2 9.2 -19.3 9.3 -19.3 9.35 Q-20.5 10.45 -20.5 12.1 L-20.45 12.6 -20.3 13.35 -19.3 14.95 -18.8 15.4 Q-17.8 16.1 -16.5 16.1 L-15.75 16.05 Q-16.4 14.5 -16.35 13.1 -16.35 10.8 -14.7 8.8 L-14.6 8.65 -14.75 8.55 M5.1 9.3 L4.75 7.9 4.65 7.65 4.55 7.3 4.4 6.9 Q3.7 4.9 2.6 2.85 L1.5 2.85 Q-3.15 3.05 -7.5 5.6 -9.65 6.8 -11.65 8.55 L-11.7 8.6 -12.7 9.5 -12.75 9.55 -13.15 10.0 Q-13.95 11.0 -14.2 12.1 L-14.25 12.2 -14.3 12.7 -14.3 12.8 -14.35 13.45 -13.95 15.15 -13.45 16.15 -13.45 16.2 -13.0 17.0 Q-10.2 21.4 -2.2 24.15 2.85 21.25 4.6 17.15 L5.2 15.35 5.25 15.15 Q5.75 12.55 5.15 9.55 L5.1 9.3" fill="#462c09" fill-rule="evenodd" stroke="none"/>
    <path d="M-5.3 5.55 L-4.85 5.35 Q3.55 2.1 3.55 7.35 3.55 8.5 3.2 9.45 L2.1 11.7 1.25 13.3 1.75 13.25 Q2.6 13.35 2.6 14.0 2.6 14.8 1.65 14.8 0.85 14.8 0.85 14.0 -0.4 15.65 -2.15 15.65 L-3.65 15.65 -2.95 15.65 -2.9 16.2 Q-2.9 16.8 -3.25 17.3 -3.75 18.1 -4.9 18.1 -5.8 18.1 -6.0 17.45 L-6.0 16.8 Q-6.0 16.0 -5.65 15.5 L-7.35 15.3 -7.25 15.35 -7.25 15.45 Q-7.25 16.3 -8.0 16.3 -8.8 16.3 -8.8 15.45 L-8.7 15.05 -8.0 15.2 -10.0 14.75 -11.85 13.6 -13.25 12.3 Q-13.25 10.7 -10.6 8.55 -8.7 7.05 -6.25 5.95 -6.65 6.3 -6.65 7.0 -6.3 9.1 -4.9 9.1 -3.4 9.1 -3.4 7.35 -3.4 5.4 -5.0 5.5 L-5.3 5.55 M-2.5 10.45 Q-3.85 10.65 -3.85 12.3 L-3.55 13.0 Q-3.15 13.45 -2.65 13.45 -1.85 13.45 -1.45 12.7 -1.15 12.15 -1.15 11.7 -1.15 10.25 -2.5 10.45 M-7.7 12.15 Q-7.7 10.5 -9.1 10.55 -10.55 10.6 -10.55 12.0 -10.55 12.5 -10.05 13.0 -9.5 13.55 -8.85 13.55 -8.2 13.55 -7.9 12.95 L-7.7 12.15 M-5.55 12.1 Q-5.55 11.3 -6.35 11.3 -7.15 11.3 -7.15 12.05 -7.15 12.85 -6.35 12.85 L-5.8 12.6 -5.55 12.1 M-7.65 8.7 Q-8.3 8.7 -8.3 9.35 -8.4 9.95 -7.6 9.95 -7.0 9.95 -7.0 9.35 -7.0 8.7 -7.65 8.7 M-18.55 10.5 Q-18.55 11.3 -17.75 11.3 -16.95 11.3 -16.95 10.5 -16.95 9.55 -17.75 9.5 -18.55 9.45 -18.55 10.5 M-16.8 11.3 Q-17.55 12.45 -18.75 12.45 -19.95 12.45 -19.65 11.5 -19.65 10.05 -17.95 9.2 -16.25 8.3 -16.25 9.9 -16.25 10.45 -16.8 11.3 M-0.85 17.4 Q0.0 17.25 0.0 18.25 0.0 19.1 -0.85 19.1 -1.75 19.1 -1.75 18.2 -1.75 17.5 -0.85 17.4 M-27.0 10.25 Q-27.0 8.95 -27.85 8.95 -28.7 8.95 -28.7 10.05 -28.95 10.95 -27.9 10.95 -27.0 10.95 -27.0 10.25 M-25.95 7.15 L-25.9 7.85 Q-25.65 8.55 -24.85 8.55 -24.05 8.55 -23.7 7.8 L-23.45 6.75 Q-23.45 5.35 -24.7 5.5 -25.95 5.65 -25.95 7.15 M-26.9 4.85 Q-26.9 4.05 -27.6 4.15 -28.3 4.3 -28.3 4.8 -28.4 5.55 -27.6 5.55 L-27.0 5.2 -26.9 4.85 M-22.4 8.8 L-23.05 10.15 -23.05 11.55 Q-23.2 12.8 -24.05 12.8 L-24.9 12.8 -24.9 12.9 -25.1 13.5 -25.75 13.85 Q-26.75 13.85 -26.6 12.95 L-26.55 12.6 -27.25 12.45 -29.6 12.4 Q-30.25 12.45 -30.35 9.85 L-30.65 10.2 Q-31.0 10.55 -31.25 10.55 -32.05 10.55 -32.05 9.65 -32.05 8.7 -31.15 8.75 -30.6 8.8 -30.4 9.2 L-30.4 8.55 -30.4 6.85 Q-30.55 7.2 -31.0 7.2 -31.7 7.2 -31.75 6.5 -31.75 5.85 -31.0 5.85 -30.55 5.85 -30.4 6.1 L-30.4 5.5 Q-30.2 3.55 -29.0 2.95 -26.4 1.65 -23.95 4.05 -21.95 6.0 -21.95 7.3 -21.95 7.85 -22.4 8.8 M-24.4 11.25 Q-24.4 10.3 -25.25 10.35 -26.15 10.35 -26.15 11.25 -26.15 12.15 -25.25 12.15 -24.4 12.15 -24.4 11.25 M-27.55 14.8 L-28.25 15.2 Q-29.1 15.2 -29.1 14.35 -29.1 13.5 -28.25 13.5 -27.4 13.5 -27.4 14.35 L-27.55 14.8 M0.35 8.95 Q0.95 8.95 1.35 8.35 L1.6 7.5 Q1.6 6.25 0.55 6.4 -0.55 6.5 -0.55 7.25 -0.55 8.95 0.35 8.95" fill="#eec433" fill-rule="evenodd" stroke="none"/>
    <path d="M-5.3 5.55 Q-5.9 5.6 -6.2 5.9 L-6.25 5.95 Q-8.7 7.05 -10.6 8.55 -13.25 10.7 -13.25 12.3 L-11.85 13.6 -10.0 14.75 -8.0 15.2 -8.7 15.05 -8.8 15.45 Q-8.8 16.3 -8.0 16.3 -7.25 16.3 -7.25 15.45 L-7.25 15.35 -7.35 15.3 -5.65 15.5 Q-6.0 16.0 -6.0 16.8 L-6.0 17.45 Q-5.8 18.1 -4.9 18.1 -3.75 18.1 -3.25 17.3 -2.9 16.8 -2.9 16.2 L-2.95 15.65 -3.65 15.65 -2.15 15.65 Q-0.4 15.65 0.85 14.0 0.85 14.8 1.65 14.8 2.6 14.8 2.6 14.0 2.6 13.35 1.75 13.25 L1.25 13.3 2.1 11.7 3.2 9.45 Q3.55 8.5 3.55 7.35 3.55 2.1 -4.85 5.35 L-5.3 5.55 M-20.45 7.7 L-20.7 7.9 Q-22.5 9.65 -22.5 12.1 L-22.5 12.25 -22.5 12.35 -22.45 12.55 -22.15 14.1 -22.0 14.5 -22.5 14.7 -22.5 14.6 -22.8 15.2 Q-23.35 15.55 -26.0 15.9 L-29.0 15.9 -29.2 15.8 -29.2 16.1 -29.4 16.6 Q-29.65 16.9 -30.0 16.9 -30.8 16.9 -30.8 16.1 -30.8 15.4 -30.2 15.3 L-31.0 14.4 -31.75 12.4 Q-32.1 11.75 -32.15 10.6 L-32.1 8.8 -32.15 6.95 -31.7 5.0 -30.4 3.1 -29.9 2.15 Q-29.3 1.35 -28.2 1.35 L-27.7 1.45 Q-26.95 0.85 -24.15 3.1 -21.15 5.5 -20.45 7.7 M-20.45 12.6 L-20.5 12.1 Q-20.5 10.45 -19.3 9.35 L-19.3 9.3 -19.2 9.2 -18.6 8.75 Q-17.65 8.15 -16.5 8.15 L-14.75 8.55 -14.7 8.8 Q-16.35 10.8 -16.35 13.1 L-17.95 13.45 Q-19.55 13.45 -20.45 12.6 M-16.8 11.3 Q-16.25 10.45 -16.25 9.9 -16.25 8.3 -17.95 9.2 -19.65 10.05 -19.65 11.5 -19.95 12.45 -18.75 12.45 -17.55 12.45 -16.8 11.3 M-14.35 13.45 L-14.3 12.8 -14.3 12.7 -14.25 12.2 -14.2 12.1 Q-13.95 11.0 -13.15 10.0 L-12.75 9.55 -12.7 9.5 -11.7 8.6 -11.65 8.55 Q-9.65 6.8 -7.5 5.6 -3.15 3.05 1.5 2.85 L2.6 2.85 Q3.7 4.9 4.4 6.9 L4.55 7.3 4.65 7.65 4.75 7.9 5.1 9.3 4.8 9.8 Q4.15 10.85 3.7 12.35 L2.95 14.85 Q1.35 19.65 -1.35 19.65 -3.6 19.65 -6.65 18.4 L-6.6 19.25 Q-6.6 19.55 -7.15 19.95 L-7.95 20.3 Q-8.85 20.3 -9.25 18.8 -9.25 17.85 -8.55 17.5 L-9.75 16.8 -10.35 16.25 -11.15 15.75 -12.4 15.35 -13.5 14.9 -14.2 14.25 -14.35 13.45 M-17.0 14.05 Q-17.0 14.7 -17.65 14.7 -18.45 14.7 -18.35 14.1 -18.35 13.55 -17.65 13.5 -17.0 13.45 -17.0 14.05 M-0.85 17.4 Q-1.75 17.5 -1.75 18.2 -1.75 19.1 -0.85 19.1 0.0 19.1 0.0 18.25 0.0 17.25 -0.85 17.4 M-2.1 21.1 Q-2.1 21.85 -2.9 21.85 L-3.55 21.6 -3.75 21.05 Q-3.75 20.3 -2.9 20.3 -2.1 20.3 -2.1 21.1 M-22.4 8.8 Q-21.95 7.85 -21.95 7.3 -21.95 6.0 -23.95 4.05 -26.4 1.65 -29.0 2.95 -30.2 3.55 -30.4 5.5 L-30.4 6.1 Q-30.55 5.85 -31.0 5.85 -31.75 5.85 -31.75 6.5 -31.7 7.2 -31.0 7.2 -30.55 7.2 -30.4 6.85 L-30.4 8.55 -30.4 9.2 Q-30.6 8.8 -31.15 8.75 -32.05 8.7 -32.05 9.65 -32.05 10.55 -31.25 10.55 -31.0 10.55 -30.65 10.2 L-30.35 9.85 Q-30.25 12.45 -29.6 12.4 L-27.25 12.45 -26.55 12.6 -26.6 12.95 Q-26.75 13.85 -25.75 13.85 L-25.1 13.5 -24.9 12.9 -24.9 12.8 -24.05 12.8 Q-23.2 12.8 -23.05 11.55 L-23.05 10.15 -22.4 8.8 M-31.75 15.6 Q-32.25 15.6 -32.25 15.05 -32.25 14.5 -31.7 14.6 -31.15 14.7 -31.15 15.1 -31.15 15.6 -31.75 15.6 M-27.55 14.8 L-27.4 14.35 Q-27.4 13.5 -28.25 13.5 -29.1 13.5 -29.1 14.35 -29.1 15.2 -28.25 15.2 L-27.55 14.8 M-26.3 17.1 L-26.75 17.35 Q-27.25 17.35 -27.35 16.85 -27.35 16.3 -26.8 16.3 -26.25 16.3 -26.25 16.85 L-26.3 17.1 M4.0 13.7 Q4.0 13.25 4.6 13.25 5.2 13.25 5.2 13.75 5.1 14.3 4.65 14.3 3.9 14.3 4.0 13.7 M4.5 16.85 L4.25 17.45 3.5 17.75 Q2.55 17.75 2.6 16.8 2.6 15.9 3.55 15.95 4.5 16.0 4.5 16.85" fill="#d5981a" fill-rule="evenodd" stroke="none"/>
    <path d="M-6.25 5.95 L-6.2 5.9 Q-5.9 5.6 -5.3 5.55 L-5.0 5.5 Q-3.4 5.4 -3.4 7.35 -3.4 9.1 -4.9 9.1 -6.3 9.1 -6.65 7.0 -6.65 6.3 -6.25 5.95 M-7.65 8.7 Q-7.0 8.7 -7.0 9.35 -7.0 9.95 -7.6 9.95 -8.4 9.95 -8.3 9.35 -8.3 8.7 -7.65 8.7 M-5.55 12.1 L-5.8 12.6 -6.35 12.85 Q-7.15 12.85 -7.15 12.05 -7.15 11.3 -6.35 11.3 -5.55 11.3 -5.55 12.1 M-7.7 12.15 L-7.9 12.95 Q-8.2 13.55 -8.85 13.55 -9.5 13.55 -10.05 13.0 -10.55 12.5 -10.55 12.0 -10.55 10.6 -9.1 10.55 -7.7 10.5 -7.7 12.15 M-2.5 10.45 Q-1.15 10.25 -1.15 11.7 -1.15 12.15 -1.45 12.7 -1.85 13.45 -2.65 13.45 -3.15 13.45 -3.55 13.0 L-3.85 12.3 Q-3.85 10.65 -2.5 10.45 M-18.55 10.5 Q-18.55 9.45 -17.75 9.5 -16.95 9.55 -16.95 10.5 -16.95 11.3 -17.75 11.3 -18.55 11.3 -18.55 10.5 M-26.9 4.85 L-27.0 5.2 -27.6 5.55 Q-28.4 5.55 -28.3 4.8 -28.3 4.3 -27.6 4.15 -26.9 4.05 -26.9 4.85 M-25.95 7.15 Q-25.95 5.65 -24.7 5.5 -23.45 5.35 -23.45 6.75 L-23.7 7.8 Q-24.05 8.55 -24.85 8.55 -25.65 8.55 -25.9 7.85 L-25.95 7.15 M-27.0 10.25 Q-27.0 10.95 -27.9 10.95 -28.95 10.95 -28.7 10.05 -28.7 8.95 -27.85 8.95 -27.0 8.95 -27.0 10.25 M-24.4 11.25 Q-24.4 12.15 -25.25 12.15 -26.15 12.15 -26.15 11.25 -26.15 10.35 -25.25 10.35 -24.4 10.3 -24.4 11.25 M0.35 8.95 Q-0.55 8.95 -0.55 7.25 -0.55 6.5 0.55 6.4 1.6 6.25 1.6 7.5 L1.35 8.35 Q0.95 8.95 0.35 8.95" fill="#f9ee71" fill-rule="evenodd" stroke="none"/>
    <path d="M-22.15 14.1 L-21.3 15.7 Q-26.15 18.85 -31.35 18.3 -33.85 12.3 -33.05 7.35 -31.95 3.75 -30.15 0.65 L-29.7 0.2 Q-23.2 1.4 -19.7 7.1 L-20.05 7.35 -20.45 7.7 Q-21.15 5.5 -24.15 3.1 -26.95 0.85 -27.7 1.45 L-28.2 1.35 Q-29.3 1.35 -29.9 2.15 L-30.4 3.1 -31.7 5.0 -32.15 6.95 -32.1 8.8 -32.15 10.6 Q-32.1 11.75 -31.75 12.4 L-31.0 14.4 -30.2 15.3 Q-30.8 15.4 -30.8 16.1 -30.8 16.9 -30.0 16.9 -29.65 16.9 -29.4 16.6 L-29.2 16.1 -29.2 15.8 -29.0 15.9 -26.0 15.9 Q-23.35 15.55 -22.8 15.2 L-22.5 14.6 -22.5 14.7 -22.0 14.5 -22.15 14.1 M-14.75 8.55 L-14.6 8.65 -14.7 8.8 -14.75 8.55 M-16.35 13.1 Q-16.4 14.5 -15.75 16.05 L-16.5 16.1 Q-17.8 16.1 -18.8 15.4 L-19.3 14.95 -20.3 13.35 -20.45 12.6 Q-19.55 13.45 -17.95 13.45 L-16.35 13.1 M5.1 9.3 L5.15 9.55 Q5.75 12.55 5.25 15.15 L5.2 15.35 4.6 17.15 Q2.85 21.25 -2.2 24.15 -10.2 21.4 -13.0 17.0 L-13.45 16.2 -13.45 16.15 -13.95 15.15 -14.35 13.45 -14.2 14.25 -13.5 14.9 -12.4 15.35 -11.15 15.75 -10.35 16.25 -9.75 16.8 -8.55 17.5 Q-9.25 17.85 -9.25 18.8 -8.85 20.3 -7.95 20.3 L-7.15 19.95 Q-6.6 19.55 -6.6 19.25 L-6.65 18.4 Q-3.6 19.65 -1.35 19.65 1.35 19.65 2.95 14.85 L3.7 12.35 Q4.15 10.85 4.8 9.8 L5.1 9.3 M-17.0 14.05 Q-17.0 13.45 -17.65 13.5 -18.35 13.55 -18.35 14.1 -18.45 14.7 -17.65 14.7 -17.0 14.7 -17.0 14.05 M-2.1 21.1 Q-2.1 20.3 -2.9 20.3 -3.75 20.3 -3.75 21.05 L-3.55 21.6 -2.9 21.85 Q-2.1 21.85 -2.1 21.1 M-31.75 15.6 Q-31.15 15.6 -31.15 15.1 -31.15 14.7 -31.7 14.6 -32.25 14.5 -32.25 15.05 -32.25 15.6 -31.75 15.6 M-26.3 17.1 L-26.25 16.85 Q-26.25 16.3 -26.8 16.3 -27.35 16.3 -27.35 16.85 -27.25 17.35 -26.75 17.35 L-26.3 17.1 M4.5 16.85 Q4.5 16.0 3.55 15.95 2.6 15.9 2.6 16.8 2.55 17.75 3.5 17.75 L4.25 17.45 4.5 16.85 M4.0 13.7 Q3.9 14.3 4.65 14.3 5.1 14.3 5.2 13.75 5.2 13.25 4.6 13.25 4.0 13.25 4.0 13.7" fill="#b77215" fill-rule="evenodd" stroke="none"/>
  </g>
</svg>
