<?xml version="1.0" encoding="UTF-8" standalone="no"?>
<svg xmlns:ffdec="https://www.free-decompiler.com/flash" xmlns:xlink="http://www.w3.org/1999/xlink" ffdec:objectType="shape" height="105.2px" width="133.9px" xmlns="http://www.w3.org/2000/svg">
  <g transform="matrix(1.0, 0.0, 0.0, 1.0, 73.9, 76.95)">
    <path d="M30.1 -58.9 L23.0 -44.85 21.75 -45.1 Q24.8 -53.75 26.8 -56.15 27.95 -57.55 30.1 -58.9 M17.35 6.55 L9.5 4.0 9.95 -3.85 10.3 -5.45 10.6 -7.85 Q10.6 -9.8 9.25 -13.4 7.6 -17.65 5.3 -20.0 3.4 -23.55 1.15 -26.0 -1.4 -28.7 -5.25 -31.05 L-10.45 -28.05 -19.5 -61.25 -25.55 -30.5 -29.75 -33.45 -28.65 -34.25 -28.25 -34.75 Q-29.65 -34.75 -32.7 -37.3 L-35.5 -39.85 Q-43.75 -47.65 -51.85 -54.3 -47.9 -49.45 -44.6 -41.05 -41.8 -34.0 -41.4 -30.3 L-42.8 -30.25 -56.95 -60.15 Q-50.45 -56.2 -39.55 -48.2 -29.85 -41.1 -29.1 -40.15 L-27.95 -36.0 Q-28.05 -35.45 -27.35 -34.6 L-19.5 -64.55 Q-13.05 -51.95 -11.5 -47.9 -10.45 -45.2 -8.5 -38.6 -7.5 -35.25 -6.95 -34.55 L-6.8 -34.85 Q-6.55 -35.3 -6.75 -35.35 -5.85 -35.1 -5.0 -32.05 -5.95 -35.9 -7.95 -42.1 -11.3 -52.55 -14.15 -57.75 -11.4 -61.1 -10.3 -63.55 -9.05 -66.3 -7.55 -72.5 L-4.3 -56.25 -3.5 -48.0 -3.2 -42.15 Q-2.95 -39.35 -2.3 -38.75 8.95 -51.35 17.45 -68.75 L17.75 -48.2 14.65 -39.8 Q11.65 -31.35 12.15 -31.3 L15.0 -31.7 17.4 -33.2 20.75 -26.65 34.75 -22.9 22.3 -23.55 14.45 -24.7 Q14.35 -24.05 13.15 -23.25 L12.0 -22.55 16.1 -19.2 16.1 -18.15 16.2 -17.4 16.15 -16.8 16.05 -16.75 39.15 -17.65 Q44.25 -18.3 46.8 -19.05 L51.25 -17.35 17.1 -11.95 Q18.6 -8.55 20.15 -7.2 21.25 -6.25 23.9 -5.35 L26.8 -5.5 30.1 1.6 39.6 22.6 28.05 12.85 19.15 5.55 Q18.55 5.55 18.3 4.3 L18.15 3.05 17.35 6.55 M31.35 -25.4 L23.7 -26.95 21.25 -29.15 21.8 -36.15 52.7 -36.85 31.35 -25.4 M31.9 -30.15 Q34.95 -30.15 37.8 -31.85 L41.4 -34.45 36.8 -34.65 31.3 -34.15 23.15 -32.9 Q25.45 -31.4 31.9 -30.15 M7.6 -23.6 Q8.05 -23.05 8.25 -23.6 7.6 -25.85 7.1 -25.85 7.05 -24.25 7.6 -23.6 M2.15 -34.6 L3.7 -35.3 Q4.6 -30.45 5.3 -28.45 L5.85 -27.4 Q10.35 -36.45 12.25 -42.5 14.65 -50.2 16.35 -62.95 12.2 -56.4 6.9 -46.9 2.15 -38.3 0.15 -34.05 0.55 -33.9 2.15 -34.6 M9.55 -24.5 Q9.55 -22.45 11.0 -20.65 12.4 -20.85 9.85 -28.45 L9.55 -24.5 M12.95 -3.2 L12.5 -2.65 12.5 -2.35 18.15 0.35 12.95 -3.2 M12.5 -10.0 Q13.05 -8.5 14.65 -7.2 16.1 -6.0 17.25 -5.9 L16.55 -7.45 Q15.0 -9.6 13.05 -11.15 L12.5 -10.0 M37.4 -3.8 Q37.85 -4.55 37.6 -6.6 L44.85 1.3 Q44.15 2.25 42.1 2.25 40.4 2.25 37.6 1.05 33.95 -0.5 36.0 -2.35 L37.4 -3.8 M30.95 11.75 Q32.25 11.75 32.25 10.15 32.25 8.05 26.4 1.65 20.45 -4.85 18.2 -4.85 14.65 -4.85 21.2 3.45 27.8 11.75 30.95 11.75 M-37.7 -60.9 L-37.4 -57.65 Q-37.1 -54.4 -37.4 -54.3 L-37.7 -60.9 M-27.05 -56.4 L-28.75 -56.0 -28.25 -50.45 Q-32.05 -53.55 -34.5 -58.0 -37.05 -62.55 -37.75 -67.75 L-26.5 -56.75 -27.05 -56.4 M-1.4 -53.15 L-4.9 -61.7 -4.5 -62.75 -0.35 -53.8 -1.4 -53.15 M-8.55 -50.35 L-7.7 -51.0 -8.25 -66.0 Q-10.25 -60.5 -10.25 -56.9 -10.25 -54.45 -8.55 -50.35 M-56.55 -43.4 L-49.0 -36.3 Q-49.7 -36.1 -67.65 -48.0 -66.55 -48.25 -62.2 -46.9 -58.2 -45.7 -57.0 -45.05 -55.3 -44.1 -56.55 -43.4" fill="#ebe8e0" fill-rule="evenodd" stroke="none"/>
    <path d="M9.5 4.0 L8.9 3.65 9.95 -3.85 9.5 4.0 M5.3 -20.0 L1.3 -22.8 Q-1.0 -24.35 -3.2 -25.15 -9.35 -27.45 -23.75 -26.75 L-32.85 -27.15 -44.35 -29.8 -43.45 -30.25 -42.8 -30.25 -41.4 -30.3 Q-41.8 -34.0 -44.6 -41.05 -47.9 -49.45 -51.85 -54.3 -43.75 -47.65 -35.5 -39.85 L-32.7 -37.3 Q-29.65 -34.75 -28.25 -34.75 L-28.65 -34.25 -29.75 -33.45 -25.55 -30.5 -19.5 -61.25 -10.45 -28.05 -5.25 -31.05 Q-1.4 -28.7 1.15 -26.0 3.4 -23.55 5.3 -20.0 M-45.65 -29.3 L-46.3 -29.05 -46.25 -29.4 -45.65 -29.3 M34.75 -22.9 L46.8 -19.05 Q44.25 -18.3 39.15 -17.65 L16.05 -16.75 16.15 -16.8 16.2 -17.4 16.1 -18.15 16.1 -19.2 12.0 -22.55 13.15 -23.25 Q14.35 -24.05 14.45 -24.7 L22.3 -23.55 34.75 -22.9 M31.9 -30.15 Q25.45 -31.4 23.15 -32.9 L31.3 -34.15 36.8 -34.65 41.4 -34.45 37.8 -31.85 Q34.95 -30.15 31.9 -30.15 M2.15 -34.6 Q0.55 -33.9 0.15 -34.05 2.15 -38.3 6.9 -46.9 12.2 -56.4 16.35 -62.95 14.65 -50.2 12.25 -42.5 10.35 -36.45 5.85 -27.4 L5.3 -28.45 Q4.6 -30.45 3.7 -35.3 L2.15 -34.6 M7.6 -23.6 Q7.05 -24.25 7.1 -25.85 7.6 -25.85 8.25 -23.6 8.05 -23.05 7.6 -23.6 M12.5 -10.0 L13.05 -11.15 Q15.0 -9.6 16.55 -7.45 L17.25 -5.9 Q16.1 -6.0 14.65 -7.2 13.05 -8.5 12.5 -10.0 M12.95 -3.2 L18.15 0.35 12.5 -2.35 12.5 -2.65 12.95 -3.2 M9.55 -24.5 L9.85 -28.45 Q12.4 -20.85 11.0 -20.65 9.55 -22.45 9.55 -24.5 M30.95 11.75 Q27.8 11.75 21.2 3.45 14.65 -4.85 18.2 -4.85 20.45 -4.85 26.4 1.65 32.25 8.05 32.25 10.15 32.25 11.75 30.95 11.75 M-8.55 -50.35 Q-10.25 -54.45 -10.25 -56.9 -10.25 -60.5 -8.25 -66.0 L-7.7 -51.0 -8.55 -50.35" fill="#ffffff" fill-rule="evenodd" stroke="none"/>
    <path d="M19.15 -55.8 L33.35 -62.25 26.65 -40.9 18.8 -40.3 19.15 -55.8 M30.1 -58.9 Q27.95 -57.55 26.8 -56.15 24.8 -53.75 21.75 -45.1 L23.0 -44.85 30.1 -58.9 M20.75 12.85 Q19.75 7.95 17.35 6.55 L18.15 3.05 18.3 4.3 Q18.55 5.55 19.15 5.55 L28.05 12.85 39.6 22.6 40.15 25.75 Q37.25 22.1 29.15 17.15 21.45 12.45 21.2 11.9 L20.75 12.85 M-44.35 -29.8 L-45.65 -29.3 -46.25 -29.4 Q-53.25 -32.85 -61.95 -39.85 -69.05 -45.6 -71.8 -48.9 L-52.45 -47.7 -43.45 -30.25 -44.35 -29.8 M-56.95 -60.15 L-56.95 -60.6 Q-48.4 -56.5 -43.2 -53.55 L-30.45 -44.95 -29.3 -45.1 -28.9 -45.25 -40.25 -53.15 -39.25 -70.5 Q-35.55 -67.1 -30.75 -63.55 L-23.0 -58.25 Q-23.3 -55.0 -24.65 -48.55 -26.25 -40.75 -27.95 -36.0 L-29.1 -40.15 Q-29.85 -41.1 -39.55 -48.2 -50.45 -56.2 -56.95 -60.15 M-14.15 -57.75 L-15.45 -60.5 -7.85 -74.6 Q-3.7 -66.95 0.65 -61.25 L5.15 -55.9 -2.75 -43.5 17.35 -70.0 17.45 -68.75 Q8.95 -51.35 -2.3 -38.75 -2.95 -39.35 -3.2 -42.15 L-3.5 -48.0 -4.3 -56.25 -7.55 -72.5 Q-9.05 -66.3 -10.3 -63.55 -11.4 -61.1 -14.15 -57.75 M17.75 -48.2 L17.35 -33.8 18.6 -38.55 35.05 -38.9 57.4 -37.75 40.5 -22.8 31.35 -25.4 52.7 -36.85 21.8 -36.15 21.25 -29.15 23.7 -26.95 20.75 -26.65 17.4 -33.2 15.0 -31.7 12.15 -31.3 Q11.65 -31.35 14.65 -39.8 L17.75 -48.2 M51.25 -17.35 L52.5 -16.75 25.1 -6.9 23.9 -5.35 Q21.25 -6.25 20.15 -7.2 18.6 -8.55 17.1 -11.95 L51.25 -17.35 M26.8 -5.5 L39.9 -10.25 49.25 4.0 34.4 5.9 30.1 1.6 26.8 -5.5 M37.4 -3.8 L36.0 -2.35 Q33.95 -0.5 37.6 1.05 40.4 2.25 42.1 2.25 44.15 2.25 44.85 1.3 L37.6 -6.6 Q37.85 -4.55 37.4 -3.8 M-1.4 -53.15 L-0.35 -53.8 -4.5 -62.75 -4.9 -61.7 -1.4 -53.15 M-27.05 -56.4 L-26.5 -56.75 -37.75 -67.75 Q-37.05 -62.55 -34.5 -58.0 -32.05 -53.55 -28.25 -50.45 L-28.75 -56.0 -27.05 -56.4 M-37.7 -60.9 L-37.4 -54.3 Q-37.1 -54.4 -37.4 -57.65 L-37.7 -60.9 M-56.55 -43.4 Q-55.3 -44.1 -57.0 -45.05 -58.2 -45.7 -62.2 -46.9 -66.55 -48.25 -67.65 -48.0 -49.7 -36.1 -49.0 -36.3 L-56.55 -43.4" fill="#cbc8c0" fill-rule="evenodd" stroke="none"/>
    <path d="M19.15 -55.8 L18.8 -40.3 26.65 -40.9 33.35 -62.25 19.15 -55.8 M-46.3 -29.05 Q-47.85 -28.05 -59.1 -36.15 -70.65 -44.4 -73.9 -49.3 L-71.25 -49.65 Q-66.05 -49.85 -53.25 -49.4 L-58.5 -61.65 -41.65 -55.45 -39.55 -72.0 -22.6 -59.8 -19.8 -66.25 -16.4 -62.15 -7.35 -76.95 -2.35 -68.55 Q2.5 -60.05 6.25 -57.0 L18.0 -72.3 Q19.65 -62.35 19.15 -57.65 35.4 -64.3 35.85 -63.75 L28.4 -40.9 Q43.9 -41.2 60.0 -38.25 L42.6 -22.0 Q54.5 -17.25 54.55 -16.8 54.3 -15.3 50.65 -13.5 46.8 -11.65 41.75 -10.8 L45.85 -5.05 Q50.0 1.35 50.8 5.25 L34.9 8.05 38.65 17.85 42.2 27.7 Q43.4 29.9 34.55 23.65 25.95 17.6 20.75 12.85 L21.2 11.9 Q21.45 12.45 29.15 17.15 37.25 22.1 40.15 25.75 L39.6 22.6 30.1 1.6 34.4 5.9 49.25 4.0 39.9 -10.25 26.8 -5.5 23.9 -5.35 25.1 -6.9 52.5 -16.75 51.25 -17.35 46.8 -19.05 34.75 -22.9 20.75 -26.65 23.7 -26.95 31.35 -25.4 40.5 -22.8 57.4 -37.75 35.05 -38.9 18.6 -38.55 17.35 -33.8 17.75 -48.2 17.45 -68.75 17.35 -70.0 -2.75 -43.5 5.15 -55.9 0.65 -61.25 Q-3.7 -66.95 -7.85 -74.6 L-15.45 -60.5 -14.15 -57.75 Q-11.3 -52.55 -7.95 -42.1 -5.95 -35.9 -5.0 -32.05 -5.85 -35.1 -6.75 -35.35 -6.55 -35.3 -6.8 -34.85 L-6.95 -34.55 Q-7.5 -35.25 -8.5 -38.6 -10.45 -45.2 -11.5 -47.9 -13.05 -51.95 -19.5 -64.55 L-27.35 -34.6 Q-28.05 -35.45 -27.95 -36.0 -26.25 -40.75 -24.65 -48.55 -23.3 -55.0 -23.0 -58.25 L-30.75 -63.55 Q-35.55 -67.1 -39.25 -70.5 L-40.25 -53.15 -28.9 -45.25 -29.3 -45.1 -30.45 -44.95 -43.2 -53.55 Q-48.4 -56.5 -56.95 -60.6 L-56.95 -60.15 -42.8 -30.25 -43.45 -30.25 -52.45 -47.7 -71.8 -48.9 Q-69.05 -45.6 -61.95 -39.85 -53.25 -32.85 -46.25 -29.4 L-46.3 -29.05" fill="#97877d" fill-rule="evenodd" stroke="none"/>
  </g>
</svg>
