<?xml version="1.0" encoding="UTF-8" standalone="no"?>
<svg xmlns:ffdec="https://www.free-decompiler.com/flash" xmlns:xlink="http://www.w3.org/1999/xlink" ffdec:objectType="shape" height="30.75px" width="41.2px" xmlns="http://www.w3.org/2000/svg">
  <g transform="matrix(1.0, 0.0, 0.0, 1.0, 4.4, 10.65)">
    <path d="M3.9 7.1 Q8.65 7.65 13.6 6.85 L13.65 6.85 Q27.25 4.5 34.25 -6.9 L34.35 -6.1 34.75 -0.7 Q33.25 1.85 30.85 3.6 28.45 5.35 26.05 6.7 23.55 8.15 20.9 8.9 L15.6 9.95 10.2 10.15 Q7.25 10.25 5.0 8.6 L3.4 7.05 3.9 7.1" fill="#e5e5e5" fill-rule="evenodd" stroke="none"/>
    <path d="M34.55 7.3 Q33.9 10.05 31.8 11.85 L28.85 13.95 Q28.8 11.05 29.4 9.8 L30.25 8.2 Q32.15 6.75 34.6 7.1 L34.55 7.3" fill="#b45f50" fill-rule="evenodd" stroke="none"/>
    <path d="M34.8 1.15 L34.8 1.1 34.7 5.65 Q27.7 5.9 27.85 13.2 L27.85 14.45 27.85 14.6 27.9 14.75 27.15 15.2 Q20.6 19.05 11.75 18.05 3.15 16.8 -1.95 5.95 L0.85 6.55 5.15 10.2 5.75 10.4 Q8.5 11.25 11.4 11.3 L16.9 10.9 22.2 9.8 27.3 7.65 Q29.85 6.25 32.1 4.5 33.8 3.15 34.8 1.15" fill="#2c1514" fill-rule="evenodd" stroke="none"/>
    <path d="M34.75 -0.7 L34.8 1.15 Q33.8 3.15 32.1 4.5 29.85 6.25 27.3 7.65 L22.2 9.8 16.9 10.9 11.4 11.3 Q8.5 11.25 5.75 10.4 L5.15 10.2 0.85 6.55 3.9 7.1 3.4 7.05 5.0 8.6 Q7.25 10.25 10.2 10.15 L15.6 9.95 20.9 8.9 Q23.55 8.15 26.05 6.7 28.45 5.35 30.85 3.6 33.25 1.85 34.75 -0.7" fill="#868686" fill-rule="evenodd" stroke="none"/>
    <path d="M34.7 5.65 L34.65 6.55 34.55 7.3 34.6 7.1 Q32.15 6.75 30.25 8.2 L29.4 9.8 Q28.8 11.05 28.85 13.95 L28.75 14.0 27.85 14.6 27.85 14.45 27.85 13.2 Q27.7 5.9 34.7 5.65" fill="#7c362c" fill-rule="evenodd" stroke="none"/>
    <path d="M34.75 -0.7 L34.35 -6.1 34.25 -6.9 Q27.25 4.5 13.65 6.85 L13.6 6.85 Q8.65 7.65 3.9 7.1 L0.85 6.55 -1.95 5.95 Q3.15 16.8 11.75 18.05 20.6 19.05 27.15 15.2 L27.9 14.75 27.85 14.6 28.75 14.0 28.85 13.95 31.8 11.85 Q33.9 10.05 34.55 7.3 L34.65 6.55 34.7 5.65 34.8 1.1 34.8 1.15 34.75 -0.7 M33.75 -10.1 L34.35 -10.6 34.7 -10.65 Q35.55 -8.7 36.35 -4.0 37.2 1.2 36.4 8.7 L35.95 9.7 Q26.9 22.0 11.55 19.75 3.5 18.45 -0.8 10.35 L-4.4 3.8 Q4.75 6.2 13.3 4.9 27.25 2.5 33.75 -10.1" fill="#6c3d28" fill-rule="evenodd" stroke="none"/>
  </g>
</svg>
