<?xml version="1.0" encoding="UTF-8" standalone="no"?>
<svg xmlns:ffdec="https://www.free-decompiler.com/flash" xmlns:xlink="http://www.w3.org/1999/xlink" ffdec:objectType="shape" height="27.45px" width="30.25px" xmlns="http://www.w3.org/2000/svg">
  <g transform="matrix(1.0, 0.0, 0.0, 1.0, -8.0, -1.1)">
    <path d="M31.35 5.35 L31.8 4.55 37.05 7.55 36.8 8.0 Q36.25 9.0 36.55 10.15 36.85 11.3 37.85 11.85 L38.25 12.1 29.35 27.55 28.2 27.7 29.0 26.35 37.0 12.45 Q35.95 11.65 35.65 10.4 L35.6 10.35 Q35.25 9.1 35.8 7.9 L31.35 5.35" fill="#5c3a0c" fill-rule="evenodd" stroke="none"/>
    <path d="M31.8 4.55 L31.35 5.35 26.15 2.35 Q25.35 3.25 24.2 3.6 L22.05 3.55 9.2 25.8 9.95 26.7 10.3 27.6 10.45 28.55 9.5 28.55 9.35 27.85 9.4 27.8 8.75 26.7 8.3 26.3 8.0 26.05 21.7 2.35 22.05 2.5 23.95 2.65 Q25.0 2.4 25.6 1.45 L25.85 1.1 31.8 4.55" fill="#825211" fill-rule="evenodd" stroke="none"/>
    <path d="M30.05 7.55 L33.7 9.65 Q35.5 10.75 34.45 12.5 L31.0 18.5 30.15 18.0 33.6 11.95 Q34.15 11.05 33.2 10.45 L29.6 8.4 30.05 7.55 M26.7 13.4 L29.55 12.05 26.2 18.15 30.25 23.15 23.9 22.2 21.1 26.8 20.15 26.8 20.0 25.0 26.7 13.4 M25.15 26.65 L26.0 25.15 26.85 25.7 26.35 26.6 25.5 28.05 24.25 28.25 25.15 26.65" fill="#6b2c4f" fill-rule="evenodd" stroke="none"/>
    <path d="M29.6 8.4 L25.6 6.05 Q24.65 5.5 24.1 6.45 L22.15 9.85 21.3 9.35 23.2 6.0 Q24.25 4.25 26.1 5.25 L30.05 7.55 29.6 8.4 M20.0 25.0 L19.7 21.4 13.45 20.1 19.4 16.9 19.15 10.15 23.45 14.9 26.7 13.4 20.0 25.0 M11.5 26.75 L11.85 25.7 13.8 22.35 14.65 22.8 12.7 26.15 12.5 26.75 Q12.5 27.3 13.15 27.65 L14.7 28.55 12.75 28.55 12.65 28.5 Q11.4 27.8 11.5 26.75" fill="#8a3765" fill-rule="evenodd" stroke="none"/>
    <path d="M31.35 5.35 L35.8 7.9 Q35.25 9.1 35.6 10.35 L35.65 10.4 Q35.95 11.65 37.0 12.45 L29.0 26.35 28.05 26.5 26.35 26.6 26.85 25.7 26.0 25.15 25.15 26.65 21.1 26.8 23.9 22.2 30.25 23.15 26.2 18.15 29.55 12.05 26.7 13.4 29.6 8.4 33.2 10.45 Q34.15 11.05 33.6 11.95 L30.15 18.0 31.0 18.5 34.45 12.5 Q35.5 10.75 33.7 9.65 L30.05 7.55 31.35 5.35 M18.95 26.8 L20.0 25.0 20.15 26.8 18.95 26.8" fill="#f3cf03" fill-rule="evenodd" stroke="none"/>
    <path d="M9.95 26.7 L9.2 25.8 22.05 3.55 24.2 3.6 Q25.35 3.25 26.15 2.35 L31.35 5.35 30.05 7.55 26.1 5.25 Q24.25 4.25 23.2 6.0 L21.3 9.35 22.15 9.85 24.1 6.45 Q24.65 5.5 25.6 6.05 L29.6 8.4 26.7 13.4 23.45 14.9 19.15 10.15 19.4 16.9 13.45 20.1 19.7 21.4 20.0 25.0 18.95 26.8 18.3 26.8 12.5 26.75 12.7 26.15 14.65 22.8 13.8 22.35 11.85 25.7 11.5 26.75 9.95 26.7" fill="#fcdc25" fill-rule="evenodd" stroke="none"/>
    <path d="M29.0 26.35 L28.2 27.7 25.5 28.05 26.35 26.6 28.05 26.5 29.0 26.35 M10.45 28.55 L10.3 27.6 9.95 26.7 11.5 26.75 Q11.4 27.8 12.65 28.5 L12.75 28.55 10.45 28.55 M21.1 26.8 L25.15 26.65 24.25 28.25 21.75 28.55 14.7 28.55 13.15 27.65 Q12.5 27.3 12.5 26.75 L18.3 26.8 18.95 26.8 20.15 26.8 21.1 26.8" fill="#d5981a" fill-rule="evenodd" stroke="none"/>
  </g>
</svg>
