<?xml version="1.0" encoding="UTF-8" standalone="no"?>
<svg xmlns:ffdec="https://www.free-decompiler.com/flash" xmlns:xlink="http://www.w3.org/1999/xlink" ffdec:objectType="shape" height="21.0px" width="31.15px" xmlns="http://www.w3.org/2000/svg">
  <g transform="matrix(1.0, 0.0, 0.0, 1.0, -0.75, 2.9)">
    <path d="M27.25 10.9 Q24.05 14.8 17.5 15.8 17.7 14.1 18.25 13.1 19.95 10.2 24.7 10.2 L27.25 10.9" fill="#b45f50" fill-rule="evenodd" stroke="none"/>
    <path d="M16.2 15.95 L6.65 15.7 6.45 15.05 Q5.75 12.35 4.55 9.8 L2.75 7.0 3.55 7.25 Q6.85 8.25 10.3 8.25 L15.15 8.1 Q17.55 7.75 20.2 6.7 22.8 5.65 24.6 4.65 L28.15 2.3 31.1 -0.55 31.0 0.1 30.3 4.4 Q29.85 6.8 28.5 9.0 L28.1 9.6 Q25.3 9.05 22.6 9.5 20.05 10.05 18.25 12.35 17.0 14.05 16.2 15.95" fill="#2c1514" fill-rule="evenodd" stroke="none"/>
    <path d="M28.1 9.6 L27.25 10.9 24.7 10.2 Q19.95 10.2 18.25 13.1 17.7 14.1 17.5 15.8 L17.45 15.8 17.5 15.8 16.2 15.95 Q17.0 14.05 18.25 12.35 20.05 10.05 22.6 9.5 25.3 9.05 28.1 9.6" fill="#7c362c" fill-rule="evenodd" stroke="none"/>
    <path d="M31.9 -2.9 L31.9 0.1 Q31.9 5.1 29.4 9.6 24.7 18.1 13.05 18.1 8.9 18.1 7.35 17.35 5.25 16.35 4.4 13.1 3.9 11.25 2.05 7.3 L0.75 5.05 Q10.45 8.35 20.2 5.05 26.95 2.6 31.8 -2.8 L31.9 -2.9 M28.1 9.6 L28.5 9.0 Q29.85 6.8 30.3 4.4 L31.0 0.1 31.1 -0.55 28.15 2.3 24.6 4.65 Q22.8 5.65 20.2 6.7 17.55 7.75 15.15 8.1 L10.3 8.25 Q6.85 8.25 3.55 7.25 L2.75 7.0 4.55 9.8 Q5.75 12.35 6.45 15.05 L6.65 15.7 16.2 15.95 17.5 15.8 17.45 15.8 17.5 15.8 Q24.05 14.8 27.25 10.9 L28.1 9.6" fill="#6c3d28" fill-rule="evenodd" stroke="none"/>
  </g>
</svg>
