<?xml version="1.0" encoding="UTF-8" standalone="no"?>
<svg xmlns:ffdec="https://www.free-decompiler.com/flash" xmlns:xlink="http://www.w3.org/1999/xlink" ffdec:objectType="shape" height="9.1px" width="18.0px" xmlns="http://www.w3.org/2000/svg">
  <g transform="matrix(1.0, 0.0, 0.0, 1.0, -0.9, -7.1)">
    <path d="M16.8 11.95 Q14.05 13.7 10.95 14.35 L5.7 15.1 2.3 14.85 Q1.2 12.1 3.55 10.45 5.85 8.8 8.1 8.85 10.3 8.85 15.15 9.95 L16.4 10.75 Q16.8 11.25 16.8 11.95" fill="#b45f50" fill-rule="evenodd" stroke="none"/>
    <path d="M17.6 12.95 Q15.6 14.4 13.1 15.15 L7.25 16.1 Q4.65 16.45 2.1 15.6 1.1 15.25 0.9 13.2 0.65 11.1 2.95 9.8 5.2 8.5 8.5 8.05 L9.2 8.05 Q12.05 8.1 14.7 9.0 17.9 9.9 17.6 12.95 M16.8 11.95 Q16.8 11.25 16.4 10.75 L15.15 9.95 Q10.3 8.85 8.1 8.85 5.85 8.8 3.55 10.45 1.2 12.1 2.3 14.85 L5.7 15.1 10.95 14.35 Q14.05 13.7 16.8 11.95" fill="#7c362c" fill-rule="evenodd" stroke="none"/>
    <path d="M8.5 8.05 Q9.3 7.1 12.55 7.1 19.3 7.1 18.9 11.1 18.8 12.45 17.6 12.95 17.9 9.9 14.7 9.0 12.05 8.1 9.2 8.05 L8.5 8.05" fill="#6c3d28" fill-rule="evenodd" stroke="none"/>
  </g>
</svg>
