<?xml version="1.0" encoding="UTF-8" standalone="no"?>
<svg xmlns:ffdec="https://www.free-decompiler.com/flash" xmlns:xlink="http://www.w3.org/1999/xlink" ffdec:objectType="shape" height="111.05px" width="385.4px" xmlns="http://www.w3.org/2000/svg">
  <g transform="matrix(1.0, 0.0, 0.0, 1.0, 192.7, 55.5)">
    <path d="M-187.75 0.35 L-187.8 -1.55 -187.8 -1.6 Q-187.8 -19.85 -174.5 -32.8 -161.25 -45.7 -141.45 -46.65 -5.65 -53.15 137.85 -46.7 157.55 -45.7 170.8 -32.8 184.05 -19.85 184.05 -1.6 L184.05 -1.55 184.05 0.35 180.15 0.35 180.2 -1.55 180.2 -1.6 Q180.2 -18.3 168.05 -30.15 155.85 -42.05 137.65 -42.9 -5.65 -49.35 -141.25 -42.85 -159.5 -42.05 -171.7 -30.15 -183.9 -18.3 -183.9 -1.6 L-183.9 -1.55 -183.85 0.35 -187.75 0.35" fill="#84ff84" fill-rule="evenodd" stroke="none"/>
    <path d="M-183.85 0.35 L-183.9 -1.55 -183.9 -1.6 Q-183.9 -18.3 -171.7 -30.15 -159.5 -42.05 -141.25 -42.85 -5.65 -49.35 137.65 -42.9 155.85 -42.05 168.05 -30.15 180.2 -18.3 180.2 -1.6 L180.2 -1.55 180.15 0.35 Q-0.05 21.65 -183.85 0.35" fill="#ffffff" fill-rule="evenodd" stroke="none"/>
    <path d="M184.05 0.35 L184.05 -1.55 184.05 -1.6 Q184.05 -19.85 170.8 -32.8 157.55 -45.7 137.85 -46.7 -5.65 -53.15 -141.45 -46.65 -161.25 -45.7 -174.5 -32.8 -187.8 -19.85 -187.8 -1.6 L-187.8 -1.55 -187.75 0.35 Q-187.1 17.45 -174.5 29.7 L-174.5 29.65 Q-161.3 42.65 -137.55 43.8 L-137.5 43.8 Q-2.45 48.8 138.7 43.1 157.5 42.7 170.8 29.65 L170.8 29.7 Q183.4 17.45 184.05 0.35 M144.85 -51.75 Q165.25 -50.65 178.95 -35.7 192.7 -20.7 192.7 0.35 L192.7 0.45 Q192.7 21.55 178.95 36.5 165.2 51.55 145.65 52.05 -0.6 58.65 -140.55 52.85 L-140.6 52.85 Q-165.25 51.5 -178.9 36.5 -192.7 21.55 -192.7 0.45 L-192.7 0.35 Q-192.7 -20.7 -178.9 -35.7 -165.2 -50.65 -144.65 -51.7 -3.9 -59.25 144.85 -51.75" fill="#000000" fill-opacity="0.49803922" fill-rule="evenodd" stroke="none"/>
    <path d="M-187.75 0.35 L-183.85 0.35 Q-183.25 15.85 -171.7 27.0 -159.45 38.95 -137.35 40.05 -2.45 45.05 138.6 39.35 155.9 38.9 168.05 27.0 179.5 15.85 180.15 0.35 L184.05 0.35 Q183.4 17.45 170.8 29.7 L170.8 29.65 Q157.5 42.7 138.7 43.1 -2.45 48.8 -137.5 43.8 L-137.55 43.8 Q-161.3 42.65 -174.5 29.65 L-174.5 29.7 Q-187.1 17.45 -187.75 0.35" fill="#39ee35" fill-rule="evenodd" stroke="none"/>
    <path d="M180.15 0.35 Q179.5 15.85 168.05 27.0 155.9 38.9 138.6 39.35 -2.45 45.05 -137.35 40.05 -159.45 38.95 -171.7 27.0 -183.25 15.85 -183.85 0.35 -0.05 21.65 180.15 0.35" fill="#f7f7f7" fill-rule="evenodd" stroke="none"/>
  </g>
</svg>
