<?xml version="1.0" encoding="UTF-8" standalone="no"?>
<svg xmlns:ffdec="https://www.free-decompiler.com/flash" xmlns:xlink="http://www.w3.org/1999/xlink" ffdec:objectType="shape" height="72.35px" width="70.25px" xmlns="http://www.w3.org/2000/svg">
  <g transform="matrix(1.0, 0.0, 0.0, 1.0, 0.0, 0.0)">
    <path d="M59.9 9.1 L59.9 9.05 Q70.25 18.2 70.25 31.15 70.25 44.15 59.9 53.3 49.7 62.35 35.1 62.35 L28.1 61.8 9.75 72.35 13.05 55.45 10.3 53.3 Q0.0 44.15 0.0 31.15 0.0 18.2 10.3 9.1 L10.3 9.05 Q20.55 0.0 35.1 0.0 49.7 0.0 59.9 9.1 M69.0 31.15 Q69.0 18.75 59.05 10.0 49.2 1.25 35.1 1.25 21.05 1.25 11.1 10.0 1.25 18.75 1.25 31.15 1.25 43.6 11.1 52.35 L14.4 54.9 11.5 69.9 27.85 60.5 35.1 61.1 Q49.2 61.1 59.05 52.35 69.0 43.6 69.0 31.15" fill="#29101e" fill-rule="evenodd" stroke="none"/>
    <path d="M42.15 21.35 Q41.05 20.45 39.7 20.55 38.55 20.65 37.75 21.4 L37.7 20.8 34.7 21.05 35.4 30.05 38.4 29.8 38.0 24.55 Q37.95 24.1 38.3 23.75 38.6 23.4 39.1 23.4 39.55 23.35 39.95 23.65 L40.4 24.55 40.8 29.65 43.75 29.4 43.3 23.65 Q43.2 22.2 42.15 21.35 M46.55 20.15 L43.55 20.4 44.25 29.4 47.25 29.15 46.85 23.9 Q46.8 23.45 47.15 23.1 47.45 22.75 47.95 22.75 48.4 22.7 48.8 23.0 49.2 23.4 49.25 23.9 L49.65 29.0 52.6 28.75 52.15 23.0 Q52.05 21.55 51.0 20.7 49.9 19.8 48.55 19.9 47.4 20.0 46.6 20.75 L46.55 20.15 M53.1 24.2 Q53.25 26.1 54.7 27.35 56.1 28.55 58.05 28.4 59.1 28.35 59.7 27.55 L59.75 28.15 62.7 27.95 62.0 18.95 59.05 19.15 59.1 19.8 Q58.4 19.15 57.35 19.2 55.45 19.35 54.2 20.8 52.95 22.25 53.1 24.2 M56.5 22.7 Q56.9 22.2 57.6 22.15 58.25 22.1 58.8 22.5 59.35 23.05 59.4 23.7 59.45 24.3 59.0 24.95 58.55 25.45 57.9 25.5 57.2 25.55 56.7 25.15 56.15 24.7 56.1 24.0 56.05 23.25 56.5 22.7 M44.4 41.95 L44.0 42.0 Q42.2 41.95 42.35 40.35 L42.6 37.85 39.2 37.5 38.95 40.0 Q38.75 42.1 40.45 43.5 41.85 44.55 43.6 44.75 43.5 45.4 42.45 45.3 L41.0 44.9 Q40.15 44.55 40.05 44.3 L39.1 47.0 Q40.2 47.75 41.95 48.05 L42.45 48.1 Q44.5 48.35 46.05 46.9 47.45 45.5 47.65 43.35 L48.15 38.4 44.8 38.05 44.4 41.95 M57.95 41.1 Q58.25 39.6 57.05 38.35 56.1 37.5 54.5 37.2 52.55 36.8 51.15 37.6 49.95 38.5 49.45 40.05 L52.35 40.95 Q52.7 39.95 53.05 39.8 53.4 39.45 54.0 39.55 L54.7 39.95 54.85 40.65 54.05 41.45 52.3 42.5 51.7 43.25 Q51.4 43.65 51.3 44.45 L51.2 44.75 54.1 45.25 54.5 44.3 55.65 43.55 57.35 42.3 Q57.9 41.8 57.95 41.1 M52.15 45.5 Q51.35 45.5 50.8 46.05 50.25 46.6 50.25 47.4 50.25 48.2 50.8 48.75 51.35 49.3 52.15 49.3 52.95 49.3 53.5 48.75 54.05 48.2 54.05 47.4 54.05 46.6 53.5 46.05 52.95 45.5 52.15 45.5 M69.0 31.15 Q69.0 43.6 59.05 52.35 49.2 61.1 35.1 61.1 L27.85 60.5 11.5 69.9 14.4 54.9 11.1 52.35 Q1.25 43.6 1.25 31.15 1.25 18.75 11.1 10.0 21.05 1.25 35.1 1.25 49.2 1.25 59.05 10.0 69.0 18.75 69.0 31.15 M21.05 20.95 L19.25 26.45 17.45 21.2 14.25 21.45 13.25 26.95 10.65 21.75 6.8 22.05 11.7 31.95 15.65 31.6 16.3 27.55 17.7 31.45 21.6 31.15 25.0 20.65 21.05 20.95 M25.65 23.05 Q24.4 24.5 24.55 26.45 24.7 28.35 26.15 29.6 27.55 30.8 29.5 30.65 30.55 30.6 31.15 29.8 L31.2 30.4 34.15 30.2 33.45 21.2 30.5 21.4 30.55 22.05 Q29.85 21.4 28.8 21.45 26.9 21.6 25.65 23.05 M12.95 34.85 L11.95 45.05 15.3 45.4 15.55 42.6 17.9 42.85 Q19.35 42.95 20.4 41.95 21.55 40.9 21.7 39.4 21.85 37.95 20.95 36.7 20.1 35.55 18.65 35.45 L12.95 34.85 M16.05 38.0 L17.6 38.15 18.15 38.5 18.35 39.15 18.0 39.75 17.4 40.0 15.85 39.85 16.05 38.0 M30.45 27.2 Q30.0 27.7 29.35 27.75 L28.15 27.4 Q27.6 26.95 27.55 26.25 27.5 25.5 27.95 24.95 28.35 24.45 29.05 24.4 29.7 24.35 30.25 24.75 30.8 25.3 30.85 25.95 30.9 26.55 30.45 27.2 M23.05 34.4 L21.9 46.05 26.9 46.55 27.15 43.75 25.5 43.6 26.4 34.75 23.05 34.4 M27.75 41.5 Q27.55 43.65 28.9 45.35 30.2 47.0 32.45 47.2 33.55 47.35 34.4 46.6 L34.35 47.3 37.75 47.65 38.75 37.45 35.35 37.1 35.3 37.8 Q34.6 36.9 33.5 36.75 31.3 36.55 29.65 37.95 27.95 39.35 27.75 41.5 M34.85 42.2 Q34.75 42.9 34.15 43.5 33.55 44.0 32.85 43.9 32.05 43.85 31.55 43.25 31.05 42.65 31.15 41.85 31.25 41.0 31.85 40.5 32.45 40.05 33.25 40.1 33.95 40.2 34.45 40.75 34.9 41.45 34.85 42.2" fill="#ffffff" fill-rule="evenodd" stroke="none"/>
    <path d="M56.5 22.7 Q56.05 23.25 56.1 24.0 56.15 24.7 56.7 25.15 57.2 25.55 57.9 25.5 58.55 25.45 59.0 24.95 59.45 24.3 59.4 23.7 59.35 23.05 58.8 22.5 58.25 22.1 57.6 22.15 56.9 22.2 56.5 22.7 M53.1 24.2 Q52.95 22.25 54.2 20.8 55.45 19.35 57.35 19.2 58.4 19.15 59.1 19.8 L59.05 19.15 62.0 18.95 62.7 27.95 59.75 28.15 59.7 27.55 Q59.1 28.35 58.05 28.4 56.1 28.55 54.7 27.35 53.25 26.1 53.1 24.2 M46.55 20.15 L46.6 20.75 Q47.4 20.0 48.55 19.9 49.9 19.8 51.0 20.7 52.05 21.55 52.15 23.0 L52.6 28.75 49.65 29.0 49.25 23.9 Q49.2 23.4 48.8 23.0 48.4 22.7 47.95 22.75 47.45 22.75 47.15 23.1 46.8 23.45 46.85 23.9 L47.25 29.15 44.25 29.4 43.55 20.4 46.55 20.15 M42.15 21.35 Q43.2 22.2 43.3 23.65 L43.75 29.4 40.8 29.65 40.4 24.55 39.95 23.65 Q39.55 23.35 39.1 23.4 38.6 23.4 38.3 23.75 37.95 24.1 38.0 24.55 L38.4 29.8 35.4 30.05 34.7 21.05 37.7 20.8 37.75 21.4 Q38.55 20.65 39.7 20.55 41.05 20.45 42.15 21.35 M57.95 41.1 Q57.9 41.8 57.35 42.3 L55.65 43.55 54.5 44.3 54.1 45.25 51.2 44.75 51.3 44.45 Q51.4 43.65 51.7 43.25 L52.3 42.5 54.05 41.45 54.85 40.65 54.7 39.95 54.0 39.55 Q53.4 39.45 53.05 39.8 52.7 39.95 52.35 40.95 L49.45 40.05 Q49.95 38.5 51.15 37.6 52.55 36.8 54.5 37.2 56.1 37.5 57.05 38.35 58.25 39.6 57.95 41.1 M52.15 45.5 Q52.95 45.5 53.5 46.05 54.05 46.6 54.05 47.4 54.05 48.2 53.5 48.75 52.95 49.3 52.15 49.3 51.35 49.3 50.8 48.75 50.25 48.2 50.25 47.4 50.25 46.6 50.8 46.05 51.35 45.5 52.15 45.5 M25.65 23.05 Q26.9 21.6 28.8 21.45 29.85 21.4 30.55 22.05 L30.5 21.4 33.45 21.2 34.15 30.2 31.2 30.4 31.15 29.8 Q30.55 30.6 29.5 30.65 27.55 30.8 26.15 29.6 24.7 28.35 24.55 26.45 24.4 24.5 25.65 23.05 M21.05 20.95 L25.0 20.65 21.6 31.15 17.7 31.45 16.3 27.55 15.65 31.6 11.7 31.95 6.8 22.05 10.65 21.75 13.25 26.95 14.25 21.45 17.45 21.2 19.25 26.45 21.05 20.95 M30.45 27.2 Q30.9 26.55 30.85 25.95 30.8 25.3 30.25 24.75 29.7 24.35 29.05 24.4 28.35 24.45 27.95 24.95 27.5 25.5 27.55 26.25 27.6 26.95 28.15 27.4 L29.35 27.75 Q30.0 27.7 30.45 27.2" fill="#333333" fill-rule="evenodd" stroke="none"/>
    <path d="M44.4 41.95 L44.8 38.05 48.15 38.4 47.65 43.35 Q47.45 45.5 46.05 46.9 44.5 48.35 42.45 48.1 L41.95 48.05 Q40.2 47.75 39.1 47.0 L40.05 44.3 Q40.15 44.55 41.0 44.9 L42.45 45.3 Q43.5 45.4 43.6 44.75 41.85 44.55 40.45 43.5 38.75 42.1 38.95 40.0 L39.2 37.5 42.6 37.85 42.35 40.35 Q42.2 41.95 44.0 42.0 L44.4 41.95 M16.05 38.0 L15.85 39.85 17.4 40.0 18.0 39.75 18.35 39.15 18.15 38.5 17.6 38.15 16.05 38.0 M12.95 34.85 L18.65 35.45 Q20.1 35.55 20.95 36.7 21.85 37.95 21.7 39.4 21.55 40.9 20.4 41.95 19.35 42.95 17.9 42.85 L15.55 42.6 15.3 45.4 11.95 45.05 12.95 34.85 M34.85 42.2 Q34.9 41.45 34.45 40.75 33.95 40.2 33.25 40.1 32.45 40.05 31.85 40.5 31.25 41.0 31.15 41.85 31.05 42.65 31.55 43.25 32.05 43.85 32.85 43.9 33.55 44.0 34.15 43.5 34.75 42.9 34.85 42.2 M27.75 41.5 Q27.95 39.35 29.65 37.95 31.3 36.55 33.5 36.75 34.6 36.9 35.3 37.8 L35.35 37.1 38.75 37.45 37.75 47.65 34.35 47.3 34.4 46.6 Q33.55 47.35 32.45 47.2 30.2 47.0 28.9 45.35 27.55 43.65 27.75 41.5 M23.05 34.4 L26.4 34.75 25.5 43.6 27.15 43.75 26.9 46.55 21.9 46.05 23.05 34.4" fill="#009100" fill-rule="evenodd" stroke="none"/>
  </g>
</svg>
