<?xml version="1.0" encoding="UTF-8" standalone="no"?>
<svg xmlns:ffdec="https://www.free-decompiler.com/flash" xmlns:xlink="http://www.w3.org/1999/xlink" ffdec:objectType="shape" height="69.55px" width="150.55px" xmlns="http://www.w3.org/2000/svg">
  <g transform="matrix(1.0, 0.0, 0.0, 1.0, 75.3, 34.8)">
    <path d="M-49.2 12.55 L-47.75 11.65 -47.7 11.65 -47.5 10.7 -47.35 10.2 -47.05 8.85 -46.75 8.05 -46.7 7.85 -46.2 6.65 Q-43.65 0.1 -37.4 -7.15 -28.6 -17.4 -11.5 -19.95 5.65 -22.65 19.25 -14.05 L19.3 -13.95 21.6 -12.55 21.5 -12.5 25.7 -9.3 25.75 -9.3 25.85 -9.3 26.4 -9.45 26.45 -9.45 Q29.55 -6.6 30.9 -4.7 L34.15 -0.15 Q36.25 2.8 36.95 3.3 35.25 3.9 32.55 5.05 L32.2 5.2 32.15 5.2 Q24.75 2.0 16.45 4.15 9.4 5.7 5.0 11.65 L5.05 11.65 Q4.4 12.95 4.05 14.4 -4.55 16.1 -20.75 17.3 L-28.25 17.45 -36.35 16.7 -40.35 16.2 -43.7 15.4 -48.5 12.9 -49.2 12.55 M10.9 -14.4 Q9.0 -17.25 6.55 -17.55 L2.75 -17.75 -0.55 -17.2 Q-2.65 -16.65 -2.5 -15.5 -2.25 -14.35 -0.2 -13.15 1.9 -11.85 5.0 -11.65 L10.35 -11.55 Q12.6 -11.6 10.9 -14.4 M-29.1 -8.8 Q-32.2 -5.75 -31.3 -2.95 -30.4 -0.2 -26.1 0.55 -21.75 1.3 -16.4 -0.4 -11.1 -2.1 -8.05 -5.15 -4.9 -8.3 -5.8 -11.05 -6.7 -13.85 -11.0 -14.55 -15.4 -15.3 -20.65 -13.6 -26.0 -11.95 -29.1 -8.8 M-37.45 5.05 Q-36.45 4.75 -36.05 3.8 -35.45 2.85 -35.75 1.85 -36.1 0.85 -37.1 0.35 L-39.05 0.2 Q-40.05 0.55 -40.6 1.45 -41.1 2.45 -40.75 3.45 -40.45 4.45 -39.5 4.9 L-37.45 5.05" fill="#1a1a1a" fill-rule="evenodd" stroke="none"/>
    <path d="M10.9 -14.4 Q12.6 -11.6 10.35 -11.55 L5.0 -11.65 Q1.9 -11.85 -0.2 -13.15 -2.25 -14.35 -2.5 -15.5 -2.65 -16.65 -0.55 -17.2 L2.75 -17.75 6.55 -17.55 Q9.0 -17.25 10.9 -14.4 M-29.1 -8.8 Q-26.0 -11.95 -20.65 -13.6 -15.4 -15.3 -11.0 -14.55 -6.7 -13.85 -5.8 -11.05 -4.9 -8.3 -8.05 -5.15 -11.1 -2.1 -16.4 -0.4 -21.75 1.3 -26.1 0.55 -30.4 -0.2 -31.3 -2.95 -32.2 -5.75 -29.1 -8.8 M-37.45 5.05 L-39.5 4.9 Q-40.45 4.45 -40.75 3.45 -41.1 2.45 -40.6 1.45 -40.05 0.55 -39.05 0.2 L-37.1 0.35 Q-36.1 0.85 -35.75 1.85 -35.45 2.85 -36.05 3.8 -36.45 4.75 -37.45 5.05" fill="#292929" fill-rule="evenodd" stroke="none"/>
    <path d="M36.95 3.3 Q36.25 2.8 34.15 -0.15 L30.9 -4.7 Q29.55 -6.6 26.45 -9.45 L26.4 -9.45 25.85 -9.3 25.75 -9.3 25.7 -9.3 21.5 -12.5 21.6 -12.55 19.3 -13.95 19.25 -14.05 Q5.65 -22.65 -11.5 -19.95 -28.6 -17.4 -37.4 -7.15 -43.65 0.1 -46.2 6.65 L-46.7 7.85 -46.75 8.05 -47.05 8.85 -47.35 10.2 -47.5 10.7 -47.7 11.65 -47.75 11.65 -49.2 12.55 -49.9 12.2 -49.75 11.3 -49.8 10.95 -49.5 9.55 -49.5 9.5 -49.45 9.45 -49.35 9.05 -48.9 7.5 -48.35 5.95 Q-46.1 -0.3 -40.9 -5.95 -29.75 -18.45 -11.8 -21.25 6.05 -24.15 20.3 -15.75 L24.15 -13.3 Q25.95 -12.75 30.5 -8.65 38.1 -1.85 38.1 1.55 L38.1 2.45 38.05 2.75 Q37.85 3.4 37.2 3.4 L36.95 3.3" fill="#000000" fill-rule="evenodd" stroke="none"/>
    <path d="M58.35 -1.35 Q58.25 -1.9 58.55 -2.25 58.75 -2.75 59.25 -2.8 L60.2 -2.55 Q60.65 -2.35 60.75 -1.8 60.8 -1.3 60.5 -0.8 60.2 -0.45 59.7 -0.35 L58.8 -0.55 Q58.4 -0.85 58.35 -1.35 M68.75 -21.3 Q70.85 -18.05 72.15 -14.4 77.0 -1.35 66.75 8.45 57.7 17.05 46.1 22.25 45.25 22.65 44.5 23.15 L42.4 24.0 Q35.65 26.6 28.7 27.65 L24.15 28.2 23.55 28.1 Q21.75 27.75 20.45 27.0 L19.25 26.2 17.9 24.9 Q17.0 23.8 16.4 22.35 15.15 19.0 15.3 16.4 15.45 14.65 16.25 13.2 L16.5 12.75 18.0 12.4 17.5 13.0 Q16.4 14.3 16.1 16.25 L16.05 16.9 Q17.3 20.15 20.5 21.7 L22.75 22.65 26.75 23.45 32.2 23.1 34.6 22.65 Q38.5 21.7 42.2 20.35 L44.35 19.45 Q48.85 17.6 52.9 15.0 60.75 10.0 66.55 2.8 75.6 -8.2 68.75 -21.3 M64.85 -4.35 Q65.15 -4.7 65.65 -4.8 L66.45 -4.6 66.95 -3.85 Q67.05 -3.4 66.7 -3.05 66.55 -2.7 66.1 -2.65 L65.1 -2.85 Q64.8 -3.1 64.75 -3.5 64.65 -3.95 64.85 -4.35 M64.35 -18.85 L64.95 -18.75 65.25 -18.25 65.1 -17.65 64.6 -17.35 64.0 -17.45 63.7 -17.95 63.85 -18.5 64.35 -18.85 M26.3 7.7 L20.4 9.9 Q19.35 10.2 18.4 10.6 20.45 8.85 24.0 7.9 L26.3 7.7 M48.6 9.35 L48.15 9.25 47.85 8.65 47.95 8.05 48.3 7.7 Q48.6 7.65 48.85 7.9 L49.1 8.4 49.05 9.05 48.6 9.35 M40.7 7.35 Q41.1 7.3 41.45 7.7 41.85 8.05 41.95 8.65 42.1 9.3 41.8 9.8 L41.25 10.35 Q40.75 10.45 40.4 10.1 L40.0 9.0 Q39.85 8.4 40.05 7.95 40.25 7.4 40.7 7.35 M28.8 16.15 L27.7 16.35 27.65 16.3 26.65 14.25 28.15 14.05 28.8 16.15 M-71.65 -9.55 Q-72.75 -6.1 -72.7 -2.2 L-72.15 2.5 Q-71.4 7.05 -67.95 10.2 L-64.1 13.25 Q-61.1 15.5 -57.45 16.95 L-52.95 18.7 -52.5 18.9 -52.9 22.4 -58.25 20.55 Q-62.25 19.1 -65.7 16.7 -69.2 14.35 -71.55 10.8 -74.2 6.65 -74.1 1.95 -73.95 -3.05 -72.45 -7.4 L-71.65 -9.55 M-67.55 -7.25 L-67.35 -7.9 -66.75 -8.05 -66.2 -7.85 Q-65.95 -7.65 -65.95 -7.25 -65.95 -6.95 -66.2 -6.75 L-66.8 -6.6 Q-67.1 -6.55 -67.3 -6.8 -67.6 -6.95 -67.55 -7.25 M-57.95 5.9 Q-57.5 6.35 -57.5 6.8 -57.55 7.25 -57.85 7.5 -58.25 8.0 -58.7 7.95 L-59.65 7.6 -60.0 6.8 -59.65 6.0 Q-59.2 5.65 -58.8 5.65 L-57.95 5.9 M-64.75 5.2 Q-64.4 5.4 -64.4 5.9 -64.4 6.35 -64.7 6.65 L-65.45 7.05 -66.3 6.7 -66.6 5.95 -66.35 5.2 Q-65.95 4.85 -65.5 4.9 L-64.75 5.2" fill="#ccc5ac" fill-rule="evenodd" stroke="none"/>
    <path d="M-48.9 7.5 L-49.35 9.05 -49.6 9.4 -51.5 12.45 -51.5 12.5 -52.15 15.9 -52.7 15.8 -57.35 14.15 -60.4 12.7 Q-64.65 10.9 -67.65 7.55 L-68.3 6.85 Q-69.45 4.45 -70.2 1.85 L-70.9 -0.5 -71.4 -3.45 Q-71.85 -8.15 -70.45 -12.3 -68.7 -16.0 -65.8 -18.9 L-63.8 -20.9 Q-64.8 -16.55 -64.8 -12.2 -64.8 -9.45 -64.05 -7.0 -62.7 -2.35 -59.3 1.15 L-56.85 3.45 Q-53.1 6.15 -48.9 7.5 M58.35 -1.35 Q58.4 -0.85 58.8 -0.55 L59.7 -0.35 Q60.2 -0.45 60.5 -0.8 60.8 -1.3 60.75 -1.8 60.65 -2.35 60.2 -2.55 L59.25 -2.8 Q58.75 -2.75 58.55 -2.25 58.25 -1.9 58.35 -1.35 M64.35 -18.85 L63.85 -18.5 63.7 -17.95 64.0 -17.45 64.6 -17.35 65.1 -17.65 65.25 -18.25 64.95 -18.75 64.35 -18.85 M64.85 -4.35 Q64.65 -3.95 64.75 -3.5 64.8 -3.1 65.1 -2.85 L66.1 -2.65 Q66.55 -2.7 66.7 -3.05 67.05 -3.4 66.95 -3.85 L66.45 -4.6 65.65 -4.8 Q65.15 -4.7 64.85 -4.35 M67.05 -24.1 Q72.8 -12.2 66.5 -0.6 64.15 3.55 59.8 6.1 52.35 10.55 44.1 13.75 L41.95 14.55 40.8 14.9 37.2 16.05 35.45 16.55 29.9 17.9 27.4 18.3 24.35 18.8 20.95 19.1 Q19.1 17.3 19.05 15.4 19.05 14.35 19.6 13.3 L20.1 12.65 20.15 12.5 Q20.45 12.0 20.9 11.6 L21.55 10.95 Q22.55 9.95 24.05 9.25 L25.25 8.8 32.85 7.3 34.45 7.2 36.85 6.75 41.5 5.6 43.15 5.05 44.65 4.45 Q53.9 0.3 58.65 -8.45 64.8 -20.0 58.9 -32.05 L61.2 -30.35 Q64.65 -27.7 67.05 -24.1 M40.7 7.35 Q40.25 7.4 40.05 7.95 39.85 8.4 40.0 9.0 L40.4 10.1 Q40.75 10.45 41.25 10.35 L41.8 9.8 Q42.1 9.3 41.95 8.65 41.85 8.05 41.45 7.7 41.1 7.3 40.7 7.35 M48.6 9.35 L49.05 9.05 49.1 8.4 48.85 7.9 Q48.6 7.65 48.3 7.7 L47.95 8.05 47.85 8.65 48.15 9.25 48.6 9.35 M28.8 16.15 L28.15 14.05 26.65 14.25 27.65 16.3 27.7 16.35 28.8 16.15 M-67.55 -7.25 Q-67.6 -6.95 -67.3 -6.8 -67.1 -6.55 -66.8 -6.6 L-66.2 -6.75 Q-65.95 -6.95 -65.95 -7.25 -65.95 -7.65 -66.2 -7.85 L-66.75 -8.05 -67.35 -7.9 -67.55 -7.25 M-57.95 5.9 L-58.8 5.65 Q-59.2 5.65 -59.65 6.0 L-60.0 6.8 -59.65 7.6 -58.7 7.95 Q-58.25 8.0 -57.85 7.5 -57.55 7.25 -57.5 6.8 -57.5 6.35 -57.95 5.9 M-64.75 5.2 L-65.5 4.9 Q-65.95 4.85 -66.35 5.2 L-66.6 5.95 -66.3 6.7 -65.45 7.05 -64.7 6.65 Q-64.4 6.35 -64.4 5.9 -64.4 5.4 -64.75 5.2" fill="#f2f0ea" fill-rule="evenodd" stroke="none"/>
    <path d="M-48.35 5.95 L-48.9 7.5 Q-53.1 6.15 -56.85 3.45 L-59.3 1.15 Q-62.7 -2.35 -64.05 -7.0 -64.8 -9.45 -64.8 -12.2 -64.8 -16.55 -63.8 -20.9 L-65.8 -18.9 Q-68.7 -16.0 -70.45 -12.3 L-71.05 -11.2 -71.65 -9.55 -72.45 -7.4 Q-73.95 -3.05 -74.1 1.95 -74.2 6.65 -71.55 10.8 -69.2 14.35 -65.7 16.7 -62.25 19.1 -58.25 20.55 L-52.9 22.4 -53.05 24.5 -53.6 24.3 Q-56.65 23.35 -59.45 22.1 -63.85 20.3 -67.35 17.6 -71.15 14.75 -73.35 10.45 -75.35 6.25 -75.3 1.75 -75.25 -2.8 -73.95 -7.5 -73.35 -9.95 -72.25 -12.15 -70.4 -16.2 -67.0 -19.55 -64.4 -22.05 -61.15 -23.9 -61.95 -21.35 -62.35 -18.85 L-62.9 -14.3 Q-63.05 -12.15 -62.7 -10.0 L-61.95 -7.0 Q-61.6 -5.6 -60.85 -4.15 -59.05 -0.35 -55.5 2.1 -52.85 4.2 -49.5 5.5 L-48.35 5.95 M41.7 3.15 Q45.65 1.8 49.25 -0.4 59.25 -6.7 59.65 -18.05 60.0 -26.95 55.7 -34.8 67.3 -29.85 72.5 -18.25 77.6 -6.75 73.2 2.0 68.7 10.6 58.6 17.35 51.95 21.75 44.5 24.95 L42.4 25.8 36.45 27.85 31.65 28.6 32.3 28.15 26.05 29.1 24.15 28.2 28.7 27.65 Q35.65 26.6 42.4 24.0 L44.5 23.15 Q45.25 22.65 46.1 22.25 57.7 17.05 66.75 8.45 77.0 -1.35 72.15 -14.4 70.85 -18.05 68.75 -21.3 L67.05 -24.1 Q64.65 -27.7 61.2 -30.35 L58.9 -32.05 Q64.8 -20.0 58.65 -8.45 53.9 0.3 44.65 4.45 L43.15 5.05 41.5 5.6 36.85 6.75 34.45 7.2 32.85 7.3 26.3 7.7 24.0 7.9 25.75 6.7 27.35 6.45 29.0 6.55 29.05 6.55 Q31.35 6.6 33.1 5.35 L33.3 5.2 33.5 5.0 35.3 4.75 Q38.65 4.2 41.7 3.15" fill="#635a3d" fill-rule="evenodd" stroke="none"/>
    <path d="M-49.35 9.05 L-49.45 9.45 -49.5 9.5 -49.5 9.55 -49.8 10.95 -49.75 11.3 -49.9 12.2 -50.4 11.95 Q-51.05 11.95 -51.25 12.3 L-51.4 12.25 -51.5 12.5 -51.5 12.45 -49.6 9.4 -49.35 9.05 M67.05 -24.1 L68.75 -21.3 Q75.6 -8.2 66.55 2.8 60.75 10.0 52.9 15.0 48.85 17.6 44.35 19.45 L42.2 20.35 Q38.5 21.7 34.6 22.65 L32.2 23.1 26.75 23.45 22.75 22.65 20.5 21.7 Q17.3 20.15 16.05 16.9 L16.1 16.25 Q16.4 14.3 17.5 13.0 L18.0 12.4 16.5 12.75 16.9 12.2 18.3 10.65 18.4 10.6 Q19.35 10.2 20.4 9.9 L26.3 7.7 32.85 7.3 25.25 8.8 24.05 9.25 Q22.55 9.95 21.55 10.95 L20.9 11.6 Q20.45 12.0 20.15 12.5 L20.1 12.65 19.6 13.3 Q19.05 14.35 19.05 15.4 19.1 17.3 20.95 19.1 L24.35 18.8 27.4 18.3 29.9 17.9 35.45 16.55 37.2 16.05 40.8 14.9 41.95 14.55 44.1 13.75 Q52.35 10.55 59.8 6.1 64.15 3.55 66.5 -0.6 72.8 -12.2 67.05 -24.1 M-70.45 -12.3 Q-71.85 -8.15 -71.4 -3.45 L-70.9 -0.5 -70.2 1.85 Q-69.45 4.45 -68.3 6.85 L-67.65 7.55 Q-64.65 10.9 -60.4 12.7 L-57.35 14.15 -52.7 15.8 -52.15 15.9 -52.45 18.45 -52.5 18.9 -52.95 18.7 -57.45 16.95 Q-61.1 15.5 -64.1 13.25 L-67.95 10.2 Q-71.4 7.05 -72.15 2.5 L-72.7 -2.2 Q-72.75 -6.1 -71.65 -9.55 L-71.05 -11.2 -70.45 -12.3" fill="#e2decf" fill-rule="evenodd" stroke="none"/>
    <path d="M-49.2 12.55 L-48.5 12.9 -43.7 15.4 -40.35 16.2 -36.35 16.7 -28.25 17.45 -20.75 17.3 Q-4.55 16.1 4.05 14.4 4.4 12.95 5.05 11.65 L5.0 11.65 Q9.4 5.7 16.45 4.15 24.75 2.0 32.15 5.2 L32.2 5.2 32.55 5.05 Q35.25 3.9 36.95 3.3 L37.2 3.4 Q37.85 3.4 38.05 2.75 L38.1 2.45 40.35 2.5 41.7 3.15 Q38.65 4.2 35.3 4.75 L33.5 5.0 33.3 5.2 33.1 5.35 Q31.35 6.6 29.05 6.55 L29.0 6.55 27.35 6.45 29.45 6.15 23.45 5.45 Q16.85 6.45 14.1 10.5 13.55 11.05 13.25 11.9 L13.2 12.1 12.6 13.65 12.5 14.15 Q12.15 15.5 12.1 17.0 L12.1 19.55 Q12.3 23.25 14.4 25.95 L15.1 26.8 15.65 27.4 17.6 29.0 17.8 29.15 22.05 30.75 Q25.9 30.9 29.2 29.8 L29.95 29.5 Q30.75 28.95 31.65 28.6 L36.45 27.85 35.3 28.1 35.2 28.25 35.2 28.2 Q23.15 35.1 12.55 31.5 -1.35 34.6 -21.65 34.75 L-33.65 34.15 Q-38.1 33.9 -30.3 34.15 -43.7 33.35 -48.95 31.0 -53.1 29.15 -53.1 25.65 L-53.05 24.5 -52.9 22.4 -52.5 18.9 -52.45 18.45 -52.15 15.9 -51.5 12.5 -51.4 12.25 -51.25 12.3 Q-51.05 11.95 -50.4 11.95 L-49.9 12.2 -49.2 12.55 M24.15 28.2 L26.05 29.1 21.8 28.8 21.75 28.8 Q19.85 28.1 18.2 26.95 L17.9 26.75 16.45 25.35 14.7 23.1 14.1 21.85 Q13.5 19.0 13.75 16.65 13.95 14.95 14.65 13.55 L14.85 13.15 15.5 12.05 16.15 11.25 16.8 10.55 Q18.8 8.45 22.35 7.25 L23.6 6.95 25.75 6.7 24.0 7.9 Q20.45 8.85 18.4 10.6 L18.3 10.65 16.9 12.2 16.5 12.75 16.25 13.2 Q15.45 14.65 15.3 16.4 15.15 19.0 16.4 22.35 17.0 23.8 17.9 24.9 L19.25 26.2 20.45 27.0 Q21.75 27.75 23.55 28.1 L24.15 28.2 M10.7 20.65 Q10.4 18.95 10.55 17.25 10.6 15.9 10.95 14.6 L11.15 14.0 11.7 12.55 11.9 12.05 12.05 11.85 12.75 10.4 Q12.85 10.0 13.05 9.75 L17.0 6.1 Q14.05 6.35 11.5 7.65 L7.9 9.9 7.55 10.3 6.7 11.65 5.45 14.1 5.05 15.2 4.85 16.1 Q4.65 17.15 4.6 18.3 L4.6 20.05 4.8 21.45 5.5 23.65 6.35 25.2 7.45 26.65 8.1 27.35 9.8 28.7 10.05 28.9 Q12.25 30.4 15.1 30.85 L17.35 31.05 19.2 30.9 17.75 30.15 15.95 28.95 14.6 27.7 13.75 26.7 13.3 26.2 12.1 24.75 11.4 23.2 10.7 20.65 M3.65 18.35 L3.75 16.2 3.85 15.4 -2.25 16.4 -3.45 16.6 -4.55 16.7 -12.65 17.9 -21.25 18.85 -29.75 18.95 Q-34.2 19.45 -39.2 18.35 L-39.75 18.25 -42.15 17.55 -42.4 17.5 -44.3 16.85 -45.0 16.6 -45.95 16.3 -46.85 15.9 -46.85 15.95 -49.25 14.8 -50.7 13.85 -51.3 18.15 -51.5 19.25 -52.0 22.7 -52.0 22.85 -51.9 24.9 -51.75 26.55 Q-51.3 28.1 -49.55 29.05 -46.15 30.85 -32.55 32.3 L-29.4 32.55 -25.5 32.55 -25.45 32.55 -21.4 32.65 -18.7 32.7 Q-9.55 32.65 0.25 30.95 L8.45 29.3 6.6 27.65 5.6 26.75 Q4.5 24.85 4.05 22.45 3.65 20.25 3.65 18.35" fill="#363636" fill-rule="evenodd" stroke="none"/>
    <path d="M23.6 6.95 L22.35 7.25 Q18.8 8.45 16.8 10.55 L16.15 11.25 15.5 12.05 14.85 13.15 14.65 13.55 Q13.95 14.95 13.75 16.65 13.5 19.0 14.1 21.85 14.65 23.8 15.6 25.6 L16.25 26.85 16.45 27.15 16.9 27.9 17.7 29.05 17.8 29.15 17.6 29.0 15.65 27.4 15.1 26.8 14.4 25.95 Q12.3 23.25 12.1 19.55 L12.1 17.0 Q12.15 15.5 12.5 14.15 L12.6 13.65 13.2 12.1 13.25 11.9 Q13.55 11.05 14.1 10.5 16.85 6.45 23.45 5.45 L23.6 6.95 M13.05 9.75 Q12.85 10.0 12.75 10.4 L12.05 11.85 11.9 12.05 11.7 12.55 11.15 14.0 10.95 14.6 Q10.6 15.9 10.55 17.25 10.4 18.95 10.7 20.65 L4.8 21.45 4.6 20.05 4.6 18.3 Q4.65 17.15 4.85 16.1 L5.05 15.2 5.45 14.1 6.7 11.65 7.55 10.3 7.9 9.9 13.05 9.75 M11.4 23.2 L12.1 24.75 6.35 25.2 5.5 23.65 11.4 23.2 M3.65 18.35 Q3.65 20.25 4.05 22.45 4.5 24.85 5.6 26.75 L6.6 27.65 5.6 27.85 Q-7.1 30.15 -19.0 30.2 -32.5 30.35 -38.95 28.9 L-38.95 28.2 -39.2 18.35 Q-34.2 19.45 -29.75 18.95 L-21.25 18.85 -12.65 17.9 -32.85 20.2 Q-35.55 20.5 -36.05 21.3 L-36.2 24.35 -36.15 25.05 Q-35.9 25.75 -34.95 25.75 -33.75 25.75 -33.55 24.35 L-33.65 22.5 -23.4 21.7 -12.25 20.65 -7.6 19.5 Q-5.4 18.75 -2.35 18.6 L3.65 18.35 M-21.4 32.65 L-25.45 32.55 -25.5 32.55 -29.4 32.55 -32.55 32.3 -32.5 32.1 -25.45 32.45 -21.4 32.5 -21.4 32.65 M-45.0 16.6 L-44.3 16.85 -42.4 17.5 -42.75 22.7 -42.75 24.4 -42.65 27.6 -44.25 26.35 -45.05 24.95 -45.4 23.35 -45.0 16.6 M-2.25 16.4 L3.85 15.4 3.75 16.2 -2.25 16.4 M-10.3 21.9 Q-11.4 22.15 -11.4 23.2 -11.35 24.15 -10.55 24.15 -9.2 24.15 -9.25 22.95 -9.25 21.65 -10.3 21.9 M-18.1 26.75 Q-17.75 27.45 -16.45 27.45 -15.45 27.45 -15.2 26.95 -15.05 26.7 -15.05 25.95 -15.05 24.7 -16.65 24.6 -18.25 24.5 -18.25 26.0 L-18.1 26.75 M-2.2 27.2 Q-1.6 28.35 -0.3 28.3 1.2 28.3 1.2 26.95 1.2 24.2 -0.7 24.15 -2.6 24.1 -2.6 25.95 L-2.2 27.2 M-29.25 26.55 Q-29.05 27.4 -27.95 27.4 -26.35 27.4 -26.35 26.05 -26.35 24.7 -27.8 24.45 -29.25 24.15 -29.25 25.8 L-29.25 26.55" fill="#cccccc" fill-rule="evenodd" stroke="none"/>
    <path d="M27.35 6.45 L25.75 6.7 23.6 6.95 23.45 5.45 29.45 6.15 27.35 6.45 M14.1 21.85 L14.7 23.1 16.45 25.35 17.9 26.75 18.2 26.95 Q19.85 28.1 21.75 28.8 L21.8 28.8 22.05 30.75 17.8 29.15 17.7 29.05 16.9 27.9 16.45 27.15 16.25 26.85 15.6 25.6 Q14.65 23.8 14.1 21.85 M10.7 20.65 L11.4 23.2 5.5 23.65 4.8 21.45 10.7 20.65 M12.1 24.75 L13.3 26.2 13.75 26.7 14.6 27.7 15.95 28.95 17.75 30.15 19.2 30.9 17.35 31.05 15.1 30.85 Q12.25 30.4 10.05 28.9 L9.8 28.7 8.1 27.35 7.45 26.65 6.35 25.2 12.1 24.75 M7.9 9.9 L11.5 7.65 Q14.05 6.35 17.0 6.1 L13.05 9.75 7.9 9.9 M6.6 27.65 L8.45 29.3 0.25 30.95 Q-9.55 32.65 -18.7 32.7 L-21.4 32.65 -21.4 32.5 -25.45 32.45 -32.5 32.1 -32.55 32.3 Q-46.15 30.85 -49.55 29.05 -51.3 28.1 -51.75 26.55 L-51.9 24.9 -52.0 22.85 -52.0 22.7 -51.5 19.25 -51.3 18.15 -50.7 13.85 -49.25 14.8 -46.85 15.95 -46.85 15.9 -45.95 16.3 -45.0 16.6 -45.4 23.35 -45.05 24.95 -44.25 26.35 -42.65 27.6 -42.75 24.4 -42.75 22.7 -42.4 17.5 -42.15 17.55 -39.75 18.25 -39.2 18.35 -38.95 28.2 -38.95 28.9 Q-32.5 30.35 -19.0 30.2 -7.1 30.15 5.6 27.85 L6.6 27.65" fill="#9f9f9f" fill-rule="evenodd" stroke="none"/>
    <path d="M3.75 16.2 L3.65 18.35 -2.35 18.6 Q-5.4 18.75 -7.6 19.5 L-12.25 20.65 -23.4 21.7 -33.65 22.5 -33.55 24.35 Q-33.75 25.75 -34.95 25.75 -35.9 25.75 -36.15 25.05 L-36.2 24.35 -36.05 21.3 Q-35.55 20.5 -32.85 20.2 L-12.65 17.9 -4.55 16.7 -3.45 16.6 -2.25 16.4 3.75 16.2 M-10.3 21.9 Q-9.25 21.65 -9.25 22.95 -9.2 24.15 -10.55 24.15 -11.35 24.15 -11.4 23.2 -11.4 22.15 -10.3 21.9 M-29.25 26.55 L-29.25 25.8 Q-29.25 24.15 -27.8 24.45 -26.35 24.7 -26.35 26.05 -26.35 27.4 -27.95 27.4 -29.05 27.4 -29.25 26.55 M-2.2 27.2 L-2.6 25.95 Q-2.6 24.1 -0.7 24.15 1.2 24.2 1.2 26.95 1.2 28.3 -0.3 28.3 -1.6 28.35 -2.2 27.2 M-18.1 26.75 L-18.25 26.0 Q-18.25 24.5 -16.65 24.6 -15.05 24.7 -15.05 25.95 -15.05 26.7 -15.2 26.95 -15.45 27.45 -16.45 27.45 -17.75 27.45 -18.1 26.75" fill="#dddddd" fill-rule="evenodd" stroke="none"/>
    <path d="M26.05 29.1 L32.3 28.15 31.65 28.6 Q30.75 28.95 29.95 29.5 L29.2 29.8 Q25.9 30.9 22.05 30.75 L21.8 28.8 26.05 29.1" fill="#757575" fill-rule="evenodd" stroke="none"/>
  </g>
</svg>
