<?xml version="1.0" encoding="UTF-8" standalone="no"?>
<svg xmlns:ffdec="https://www.free-decompiler.com/flash" xmlns:xlink="http://www.w3.org/1999/xlink" ffdec:objectType="shape" height="93.2px" width="93.1px" xmlns="http://www.w3.org/2000/svg">
  <g transform="matrix(1.0, 0.0, 0.0, 1.0, 50.0, 60.05)">
    <path d="M-32.8 20.1 Q-27.65 23.75 -15.7 23.75 -2.65 23.75 6.55 17.1 16.35 10.0 23.3 -5.65 19.85 -1.25 14.1 -1.25 12.55 -1.25 11.05 -2.2 8.85 -3.6 8.85 -6.4 L10.15 -10.65 Q11.45 -15.4 11.45 -18.5 11.45 -22.6 6.6 -27.6 1.95 -32.4 -1.2 -32.4 L-15.5 -31.65 -31.9 -30.9 -36.85 -31.2 Q-39.6 -31.7 -43.5 -33.2 -39.85 -39.6 -36.9 -42.85 L-32.1 -47.55 Q-27.75 -51.55 -19.4 -53.35 -13.95 -54.5 -8.65 -54.5 5.65 -54.5 18.35 -44.9 34.0 -33.1 34.0 -13.45 34.0 1.25 23.0 13.7 10.65 27.65 -7.55 27.65 -19.75 27.65 -27.15 24.0 L-32.1 20.7 -32.8 20.1" fill="#d08857" fill-rule="evenodd" stroke="none"/>
    <path d="M-43.5 -33.2 Q-39.6 -31.7 -36.85 -31.2 L-31.9 -30.9 -15.5 -31.65 -1.2 -32.4 Q1.95 -32.4 6.6 -27.6 11.45 -22.6 11.45 -18.5 11.45 -15.4 10.15 -10.65 L8.85 -6.4 Q8.85 -3.6 11.05 -2.2 12.55 -1.25 14.1 -1.25 19.85 -1.25 23.3 -5.65 16.35 10.0 6.55 17.1 -2.65 23.75 -15.7 23.75 -27.65 23.75 -32.8 20.1 -38.0 15.2 -42.4 6.75 -48.0 -3.9 -48.0 -13.45 -48.0 -17.65 -47.2 -22.35 -46.05 -29.3 -43.5 -33.2" fill="#dd9c71" fill-rule="evenodd" stroke="none"/>
    <path d="M-32.8 20.1 L-32.1 20.7 -27.15 24.0 Q-22.95 26.65 -19.75 28.05 -12.55 31.15 -4.45 31.15 13.2 31.15 26.4 19.75 41.05 7.0 41.05 -13.45 41.05 -33.65 26.4 -46.5 13.3 -58.0 -3.45 -58.0 -9.9 -58.0 -16.75 -56.15 -27.0 -53.45 -32.1 -47.55 L-36.9 -42.85 Q-39.85 -39.6 -43.5 -33.2 -46.05 -29.3 -47.2 -22.35 -48.0 -17.65 -48.0 -13.45 -48.0 -3.9 -42.4 6.75 -38.0 15.2 -32.8 20.1 M43.1 -13.45 Q43.1 5.85 29.5 19.5 15.85 33.15 -3.45 33.15 -22.75 33.15 -36.35 19.5 -50.0 5.85 -50.0 -13.45 -50.0 -32.75 -36.35 -46.4 -22.75 -60.05 -3.45 -60.05 15.85 -60.05 29.5 -46.4 43.1 -32.75 43.1 -13.45" fill="#583218" fill-rule="evenodd" stroke="none"/>
    <path d="M-27.15 24.0 Q-19.75 27.65 -7.55 27.65 10.65 27.65 23.0 13.7 34.0 1.25 34.0 -13.45 34.0 -33.1 18.35 -44.9 5.65 -54.5 -8.65 -54.5 -13.95 -54.5 -19.4 -53.35 -27.75 -51.55 -32.1 -47.55 -27.0 -53.45 -16.75 -56.15 -9.9 -58.0 -3.45 -58.0 13.3 -58.0 26.4 -46.5 41.05 -33.65 41.05 -13.45 41.05 7.0 26.4 19.75 13.2 31.15 -4.45 31.15 -12.55 31.15 -19.75 28.05 -22.95 26.65 -27.15 24.0" fill="#b86934" fill-rule="evenodd" stroke="none"/>
  </g>
</svg>
