<?xml version="1.0" encoding="UTF-8" standalone="no"?>
<svg xmlns:ffdec="https://www.free-decompiler.com/flash" xmlns:xlink="http://www.w3.org/1999/xlink" ffdec:objectType="shape" height="25.9px" width="35.65px" xmlns="http://www.w3.org/2000/svg">
  <g transform="matrix(1.0, 0.0, 0.0, 1.0, -2.35, 6.45)">
    <path d="M10.1 3.3 L20.45 -2.65 Q24.05 -4.4 27.15 -4.4 30.25 -4.4 32.3 -2.9 34.15 -1.5 36.1 1.95 34.55 1.25 33.4 1.25 L27.05 3.25 25.6 3.7 21.9 4.85 Q17.35 6.15 15.1 6.15 11.5 4.95 10.1 3.3" fill="#e5e5e5" fill-rule="evenodd" stroke="none"/>
    <path d="M34.0 13.15 L31.85 14.7 Q31.85 12.95 30.95 11.35 29.9 9.5 28.25 9.5 27.7 9.5 26.55 11.1 L24.9 13.1 Q23.55 13.85 22.1 13.85 L20.3 13.45 18.5 12.5 Q19.4 10.6 21.05 9.35 23.1 7.75 25.9 7.75 33.3 7.75 34.0 13.15" fill="#b45f50" fill-rule="evenodd" stroke="none"/>
    <path d="M31.85 14.7 L30.05 15.65 Q29.95 14.65 29.4 14.15 28.9 13.75 27.35 13.2 L28.1 11.0 28.15 10.2 Q26.95 12.3 24.45 14.1 22.35 15.55 21.6 15.55 L18.55 15.3 Q18.3 13.55 18.5 12.5 L20.3 13.45 22.1 13.85 Q23.55 13.85 24.9 13.1 L26.55 11.1 Q27.7 9.5 28.25 9.5 29.9 9.5 30.95 11.35 31.85 12.95 31.85 14.7" fill="#a05345" fill-rule="evenodd" stroke="none"/>
    <path d="M26.2 17.0 L26.15 17.0 26.2 17.0" fill="#682424" fill-rule="evenodd" stroke="none"/>
    <path d="M36.6 3.55 L36.9 6.75 Q36.9 9.4 35.5 11.3 L35.15 11.75 35.15 11.7 33.45 8.6 Q31.25 6.5 25.9 6.5 22.85 6.5 20.1 8.5 17.05 10.75 17.05 14.0 17.05 15.5 18.05 16.25 18.95 16.95 20.45 16.95 L22.85 16.25 Q25.05 15.45 26.15 14.45 L27.55 15.2 26.1 17.0 26.15 17.0 26.2 17.0 Q25.6 17.45 23.45 17.75 19.35 18.3 8.6 18.1 L8.65 14.7 Q8.65 12.15 8.3 10.75 7.65 8.05 5.75 7.1 L9.3 4.0 11.35 6.0 Q13.25 7.85 14.55 7.85 15.55 7.85 19.9 5.75 L21.9 4.85 25.6 3.7 27.05 3.25 28.35 3.0 32.55 2.55 Q33.75 2.55 36.6 3.55" fill="#2c1514" fill-rule="evenodd" stroke="none"/>
    <path d="M36.1 1.95 L36.6 3.55 Q33.75 2.55 32.55 2.55 L28.35 3.0 27.05 3.25 33.4 1.25 Q34.55 1.25 36.1 1.95 M9.3 4.0 L10.1 3.3 Q11.5 4.95 15.1 6.15 17.35 6.15 21.9 4.85 L19.9 5.75 Q15.55 7.85 14.55 7.85 13.25 7.85 11.35 6.0 L9.3 4.0" fill="#868686" fill-rule="evenodd" stroke="none"/>
    <path d="M35.15 11.7 L34.0 13.15 Q33.3 7.75 25.9 7.75 23.1 7.75 21.05 9.35 19.4 10.6 18.5 12.5 18.3 13.55 18.55 15.3 L21.6 15.55 Q22.35 15.55 24.45 14.1 26.95 12.3 28.15 10.2 L28.1 11.0 27.35 13.2 Q28.9 13.75 29.4 14.15 29.95 14.65 30.05 15.65 L26.2 17.0 26.1 17.0 27.55 15.2 26.15 14.45 Q25.05 15.45 22.85 16.25 L20.45 16.95 Q18.95 16.95 18.05 16.25 17.05 15.5 17.05 14.0 17.05 10.75 20.1 8.5 22.85 6.5 25.9 6.5 31.25 6.5 33.45 8.6 L35.15 11.7" fill="#7c362c" fill-rule="evenodd" stroke="none"/>
    <path d="M18.3 -3.0 Q24.15 -6.45 28.75 -6.45 32.3 -6.45 35.05 -3.3 38.0 0.2 38.0 5.6 38.0 12.2 33.15 15.45 28.2 18.8 17.0 19.45 L7.2 19.45 7.35 11.8 Q7.15 8.1 4.45 8.1 L2.35 8.15 Q14.25 -0.65 18.3 -3.0 M36.1 1.95 Q34.15 -1.5 32.3 -2.9 30.25 -4.4 27.15 -4.4 24.05 -4.4 20.45 -2.65 L10.1 3.3 9.3 4.0 5.75 7.1 Q7.65 8.05 8.3 10.75 8.65 12.15 8.65 14.7 L8.6 18.1 Q19.35 18.3 23.45 17.75 25.6 17.45 26.2 17.0 L30.05 15.65 31.85 14.7 34.0 13.15 35.15 11.7 35.15 11.75 35.5 11.3 Q36.9 9.4 36.9 6.75 L36.6 3.55 36.1 1.95" fill="#4b3121" fill-rule="evenodd" stroke="none"/>
  </g>
</svg>
