<?xml version="1.0" encoding="UTF-8" standalone="no"?>
<svg xmlns:ffdec="https://www.free-decompiler.com/flash" xmlns:xlink="http://www.w3.org/1999/xlink" ffdec:objectType="shape" height="23.8px" width="23.8px" xmlns="http://www.w3.org/2000/svg">
  <g transform="matrix(1.0, 0.0, 0.0, 1.0, 0.0, 0.0)">
    <path d="M20.35 20.35 Q16.85 23.8 11.9 23.8 6.95 23.8 3.5 20.35 0.0 16.85 0.0 11.9 0.0 6.95 3.5 3.5 6.95 0.0 11.9 0.0 16.85 0.0 20.35 3.5 23.8 6.95 23.8 11.9 23.8 16.85 20.35 20.35 M11.9 1.5 Q7.6 1.5 4.55 4.55 1.5 7.6 1.5 11.9 1.5 16.2 4.55 19.25 7.6 22.3 11.9 22.3 16.2 22.3 19.25 19.25 22.3 16.2 22.3 11.9 22.3 7.6 19.25 4.55 16.2 1.5 11.9 1.5" fill="#f5d807" fill-rule="evenodd" stroke="none"/>
    <path d="M11.9 1.5 Q16.2 1.5 19.25 4.55 22.3 7.6 22.3 11.9 22.3 16.2 19.25 19.25 16.2 22.3 11.9 22.3 7.6 22.3 4.55 19.25 1.5 16.2 1.5 11.9 1.5 7.6 4.55 4.55 7.6 1.5 11.9 1.5 M15.65 5.5 Q13.45 2.9 10.4 2.9 7.35 2.9 5.2 5.5 3.0 8.05 3.0 11.65 3.0 15.25 5.2 17.85 7.35 20.4 10.4 20.4 13.45 20.4 15.65 17.85 17.8 15.25 17.8 11.65 17.8 8.05 15.65 5.5" fill="#fff897" fill-rule="evenodd" stroke="none"/>
    <path d="M15.65 5.5 Q17.8 8.05 17.8 11.65 17.8 15.25 15.65 17.85 13.45 20.4 10.4 20.4 7.35 20.4 5.2 17.85 3.0 15.25 3.0 11.65 3.0 8.05 5.2 5.5 7.35 2.9 10.4 2.9 13.45 2.9 15.65 5.5 M8.6 8.1 Q6.8 8.1 5.55 9.35 4.3 10.6 4.3 12.4 4.3 14.2 5.55 15.45 6.8 16.7 8.6 16.7 10.4 16.7 11.65 15.45 12.9 14.2 12.9 12.4 12.9 10.6 11.65 9.35 10.4 8.1 8.6 8.1" fill="#fffcd5" fill-rule="evenodd" stroke="none"/>
    <path d="M8.6 8.1 Q10.4 8.1 11.65 9.35 12.9 10.6 12.9 12.4 12.9 14.2 11.65 15.45 10.4 16.7 8.6 16.7 6.8 16.7 5.55 15.45 4.3 14.2 4.3 12.4 4.3 10.6 5.55 9.35 6.8 8.1 8.6 8.1" fill="#ffffff" fill-rule="evenodd" stroke="none"/>
  </g>
</svg>
