<?xml version="1.0" encoding="UTF-8" standalone="no"?>
<svg xmlns:ffdec="https://www.free-decompiler.com/flash" xmlns:xlink="http://www.w3.org/1999/xlink" ffdec:objectType="shape" height="56.05px" width="87.5px" xmlns="http://www.w3.org/2000/svg">
  <g transform="matrix(1.0, 0.0, 0.0, 1.0, 39.85, 17.35)">
    <path d="M2.05 -8.15 L2.05 -9.9 5.35 -9.85 5.35 -7.55 2.05 -8.15 M26.45 -9.95 L26.3 -11.65 29.2 -12.5 29.3 -11.1 26.45 -9.95 M20.35 7.3 L23.75 24.0 19.65 22.55 19.25 20.9 18.45 17.75 Q15.55 6.5 15.5 5.6 L20.05 3.75 Q20.35 4.55 20.35 7.3 M13.5 4.8 L13.6 5.2 14.8 12.1 16.1 18.95 16.55 20.95 14.65 24.15 14.45 22.8 13.9 19.2 Q13.05 13.55 12.55 7.85 L12.7 6.2 12.9 5.35 Q13.15 4.65 13.5 4.8 M3.9 19.2 L3.9 18.8 Q3.75 16.65 3.75 10.2 L5.3 24.95 4.9 23.85 Q4.1 21.45 3.9 19.2 M4.65 25.65 L1.9 25.65 -3.9 24.3 -4.2 22.85 -6.25 14.75 -6.45 14.0 -9.1 3.9 -15.65 24.1 -17.75 24.1 -16.4 20.5 -15.1 16.5 -14.75 15.2 Q-13.75 11.1 -12.4 2.6 L-12.35 2.65 -12.55 -0.1 -12.3 -0.2 -11.45 -0.3 Q-7.3 -0.3 -6.85 0.9 -6.6 1.6 -4.7 3.15 L-4.75 3.15 4.65 25.65" fill="#f8f8f8" fill-rule="evenodd" stroke="none"/>
    <path d="M5.35 -7.55 L5.45 1.8 2.15 1.5 Q2.3 -1.75 2.05 -2.85 L2.05 -8.15 5.35 -7.55 M5.65 3.25 L5.7 3.35 5.65 3.25 M27.35 -0.4 L26.45 -9.95 29.3 -11.1 30.15 -1.25 27.35 -0.4 M11.55 -1.5 L12.0 -1.1 13.25 -0.95 14.5 -1.1 15.05 -1.5 14.5 -1.9 13.25 -2.1 12.0 -1.9 11.55 -1.5 M17.65 -2.45 L17.7 -1.5 20.95 -1.5 20.9 -2.45 17.65 -2.45 M17.6 -6.1 Q20.2 -6.1 20.9 -3.85 L21.35 1.5 21.4 1.95 21.35 1.95 21.4 2.1 23.15 10.0 23.55 11.7 24.5 15.9 25.5 20.25 26.0 22.5 26.75 25.8 18.7 24.75 16.95 23.2 Q16.0 24.7 14.85 25.35 L13.95 25.65 13.5 23.0 12.9 19.25 10.85 6.05 10.3 2.6 10.2 1.95 10.25 1.95 Q9.55 -0.6 9.5 -3.6 9.5 -4.85 12.1 -5.55 L17.6 -6.1 M29.85 -0.75 L30.45 1.25 30.75 2.4 32.05 7.25 32.55 8.75 34.6 14.05 35.75 16.8 37.75 21.4 35.8 21.8 Q35.3 21.8 34.45 19.9 33.9 18.8 33.3 17.1 L31.7 12.6 31.4 11.75 Q28.65 3.55 27.85 -0.1 L29.85 -0.75 M20.35 7.3 Q20.35 4.55 20.05 3.75 L15.5 5.6 Q15.55 6.5 18.45 17.75 L19.25 20.9 19.65 22.55 23.75 24.0 20.35 7.3 M13.5 4.8 Q13.15 4.65 12.9 5.35 L12.7 6.2 12.55 7.85 Q13.05 13.55 13.9 19.2 L14.45 22.8 14.65 24.15 16.55 20.95 16.1 18.95 14.8 12.1 13.6 5.2 13.5 4.8 M-1.0 -1.15 Q-1.05 1.25 -0.5 3.25 L2.0 13.85 3.25 2.9 Q3.55 2.4 4.55 2.3 L4.7 3.25 5.15 7.35 5.45 15.0 5.6 19.0 6.0 23.8 Q6.2 26.05 6.55 27.75 L4.25 27.8 Q-1.55 27.8 -3.75 26.8 -5.8 25.9 -6.35 23.3 L-6.35 22.05 Q-6.55 18.0 -7.2 13.9 -7.95 9.45 -9.3 5.0 L-9.45 5.9 -10.3 9.7 -12.1 18.3 -12.15 18.5 Q-13.0 21.3 -14.05 23.1 -16.3 26.85 -19.4 25.7 -18.4 23.75 -17.4 20.3 L-17.15 19.55 -15.8 13.5 Q-14.85 8.55 -14.1 2.15 L-15.3 1.9 -16.95 1.55 -25.45 22.25 -29.85 21.55 -26.55 14.6 -25.6 12.65 -23.1 8.05 -21.55 5.55 Q-19.25 2.15 -18.9 1.05 L-18.85 1.1 -17.4 -4.05 Q-16.1 -7.95 -15.7 -7.95 L-8.95 -7.05 Q-2.05 -5.5 -1.0 -2.1 L-2.4 -2.05 -3.05 -1.6 -2.45 -1.5 -1.0 -1.15 M3.9 19.2 Q4.1 21.45 4.9 23.85 L5.3 24.95 3.75 10.2 Q3.75 16.65 3.9 18.8 L3.9 19.2 M4.65 25.65 L-4.75 3.15 -4.7 3.15 Q-6.6 1.6 -6.85 0.9 -7.3 -0.3 -11.45 -0.3 L-12.3 -0.2 -12.55 -0.1 -12.35 2.65 -12.4 2.6 Q-13.75 11.1 -14.75 15.2 L-15.1 16.5 -16.4 20.5 -17.75 24.1 -15.65 24.1 -9.1 3.9 -6.45 14.0 -6.25 14.75 -4.2 22.85 -3.9 24.3 1.9 25.65 4.65 25.65 M-11.85 -3.5 L-15.1 -3.5 -15.2 -2.15 -11.9 -2.15 -11.85 -3.5 M-7.35 -2.7 L-8.6 -2.5 Q-9.15 -2.3 -9.15 -2.1 L-8.6 -1.65 -7.4 -1.45 -6.1 -1.65 Q-5.55 -1.85 -5.55 -2.1 -5.55 -2.3 -6.1 -2.5 L-7.35 -2.7" fill="#d3d3d3" fill-rule="evenodd" stroke="none"/>
    <path d="M5.45 1.8 L5.45 1.85 5.65 3.25 5.7 3.35 6.75 9.75 8.15 19.2 8.8 23.65 9.6 28.75 6.75 28.95 -2.95 28.25 Q-4.5 27.85 -6.0 26.95 -7.3 26.5 -7.8 24.1 L-8.05 21.8 -8.05 21.25 Q-8.3 16.4 -8.7 12.25 L-9.1 8.35 -9.2 10.3 -9.35 11.35 Q-10.1 16.25 -10.8 19.45 -11.6 23.2 -12.3 24.65 L-12.4 24.75 Q-13.7 27.2 -18.0 27.2 L-18.75 27.15 -21.35 26.75 -21.4 26.75 -21.35 26.75 -20.5 24.8 Q-19.25 21.85 -18.2 18.1 L-16.85 12.55 -16.65 11.75 Q-15.3 5.2 -15.3 1.9 L-18.0 8.4 -20.45 14.3 -22.95 20.35 -23.85 22.4 -24.35 23.5 -27.05 23.15 -31.6 21.9 -27.15 12.6 -26.1 10.3 -25.25 8.25 -24.1 4.4 -23.05 0.05 -24.65 -0.65 -24.3 -4.15 Q-23.95 -5.05 -22.65 -5.5 L-23.4 -5.75 Q-23.9 -5.95 -23.9 -6.6 L-23.4 -10.5 -23.35 -10.85 -13.4 -9.35 -0.5 -8.7 -0.5 -5.35 -0.35 -2.05 -1.0 -2.1 Q-2.05 -5.5 -8.95 -7.05 L-15.7 -7.95 Q-16.1 -7.95 -17.4 -4.05 L-18.85 1.1 -18.9 1.05 Q-19.25 2.15 -21.55 5.55 L-23.1 8.05 -25.6 12.65 -26.55 14.6 -29.85 21.55 -25.45 22.25 -16.95 1.55 -15.3 1.9 -14.1 2.15 Q-14.85 8.55 -15.8 13.5 L-17.15 19.55 -17.4 20.3 Q-18.4 23.75 -19.4 25.7 -16.3 26.85 -14.05 23.1 -13.0 21.3 -12.15 18.5 L-12.1 18.3 -10.3 9.7 -9.45 5.9 -9.3 5.0 Q-7.95 9.45 -7.2 13.9 -6.55 18.0 -6.35 22.05 L-6.35 23.3 Q-5.8 25.9 -3.75 26.8 -1.55 27.8 4.25 27.8 L6.55 27.75 Q6.2 26.05 6.0 23.8 L5.6 19.0 5.45 15.0 5.15 7.35 4.7 3.25 4.55 2.3 Q3.55 2.4 3.25 2.9 L2.0 13.85 -0.5 3.25 Q-1.05 1.25 -1.0 -1.15 L0.05 -1.1 0.3 2.8 2.05 2.8 2.15 1.5 5.45 1.8 M25.9 -2.4 L26.15 0.15 27.2 0.1 27.35 -0.4 30.15 -1.25 30.3 -0.95 30.3 -0.9 30.35 -0.9 30.65 -1.05 30.5 -0.8 30.65 -0.95 30.75 -0.7 30.8 -0.65 31.4 1.1 32.9 5.65 34.95 11.15 35.35 12.0 36.5 14.5 40.4 22.2 Q39.6 23.0 37.45 23.4 L35.0 23.65 Q34.15 23.65 33.05 22.35 L31.6 20.15 29.95 16.75 29.2 15.05 28.15 12.4 27.2 9.75 26.2 7.05 24.55 2.15 24.3 1.5 24.05 -1.9 25.9 -2.4 M23.5 1.3 L23.5 2.0 24.6 9.55 Q25.35 13.85 26.4 18.0 L27.2 20.95 28.35 24.85 29.05 26.95 Q27.95 27.6 26.55 27.6 L26.0 27.55 23.15 27.05 22.7 26.95 22.1 26.85 19.75 26.5 19.25 26.45 Q16.2 26.45 12.0 27.55 L7.65 2.2 7.6 2.1 7.65 2.15 8.05 0.45 Q8.45 -1.0 8.85 -1.35 8.4 -1.5 8.25 -1.6 7.9 -1.85 7.9 -2.75 7.85 -5.15 8.25 -6.0 8.7 -6.95 10.2 -7.3 L18.55 -8.6 22.75 -9.15 22.8 -8.6 23.5 1.3 M17.6 -6.1 L12.1 -5.55 Q9.5 -4.85 9.5 -3.6 9.55 -0.6 10.25 1.95 L10.2 1.95 10.3 2.6 10.85 6.05 12.9 19.25 13.5 23.0 13.95 25.65 14.85 25.35 Q16.0 24.7 16.95 23.2 L18.7 24.75 26.75 25.8 26.0 22.5 25.5 20.25 24.5 15.9 23.55 11.7 23.15 10.0 21.4 2.1 21.35 1.95 21.4 1.95 21.35 1.5 20.9 -3.85 Q20.2 -6.1 17.6 -6.1 M29.85 -0.75 L27.85 -0.1 Q28.65 3.55 31.4 11.75 L31.7 12.6 33.3 17.1 Q33.9 18.8 34.45 19.9 35.3 21.8 35.8 21.8 L37.75 21.4 35.75 16.8 34.6 14.05 32.55 8.75 32.05 7.25 30.75 2.4 30.45 1.25 29.85 -0.75 M43.45 18.2 L43.1 18.2 Q42.6 18.1 37.7 7.05 L36.45 4.2 34.5 -0.25 45.0 16.25 44.6 17.5 44.05 18.1 43.45 18.2 M32.3 -3.25 L32.25 -3.1 32.3 -3.85 32.4 -3.35 32.3 -3.25 M-20.1 -5.25 L-20.45 -4.15 -18.3 -3.3 Q-18.0 -3.4 -17.75 -3.6 -17.75 -4.0 -20.1 -5.25 M-27.1 3.4 L-34.35 18.05 -37.05 16.25 -27.3 1.0 -27.1 3.4" fill="#b4b4b4" fill-rule="evenodd" stroke="none"/>
    <path d="M6.75 9.75 Q7.3 12.0 8.1 14.05 L8.6 15.15 7.5 8.0 7.35 7.05 6.85 3.25 6.7 2.3 6.6 1.5 6.6 -8.6 6.6 -9.8 25.0 -11.4 25.9 -3.15 25.9 -2.4 24.05 -1.9 23.5 1.3 22.8 -8.6 22.75 -9.15 18.55 -8.6 10.2 -7.3 Q8.7 -6.95 8.25 -6.0 7.85 -5.15 7.9 -2.75 7.9 -1.85 8.25 -1.6 8.4 -1.5 8.85 -1.35 8.45 -1.0 8.05 0.45 L7.65 2.15 7.6 2.1 7.65 2.2 12.0 27.55 Q16.2 26.45 19.25 26.45 L19.75 26.5 22.1 26.85 22.7 26.95 23.15 27.05 26.0 27.55 26.55 27.6 Q27.95 27.6 29.05 26.95 L28.35 24.85 27.2 20.95 26.4 18.0 Q25.35 13.85 24.6 9.55 L23.5 2.0 24.55 6.1 26.55 12.85 26.9 13.95 27.5 15.8 27.7 16.4 28.55 19.0 29.8 23.0 30.6 25.7 30.95 26.95 28.35 28.2 25.15 28.75 24.8 28.75 22.2 28.45 21.55 28.35 21.1 28.3 17.85 27.9 17.05 27.8 Q16.05 27.8 12.3 28.95 8.55 30.1 2.1 30.1 L-5.05 28.85 -12.15 27.45 -16.6 27.9 -18.1 27.95 -20.55 27.8 -22.55 27.25 -22.0 25.7 -21.3 23.55 -19.05 16.8 -18.75 15.85 -17.15 10.65 Q-15.8 5.65 -15.3 1.9 L-17.5 9.85 -18.95 14.8 -19.4 16.25 Q-20.75 20.7 -21.65 22.95 L-22.5 24.9 -22.95 25.25 Q-28.35 25.25 -30.9 24.25 -32.25 23.7 -33.7 22.25 -31.1 17.8 -29.05 13.8 L-27.5 10.6 -26.45 8.2 -24.45 2.55 -23.8 -0.2 -24.55 2.0 -26.65 6.95 -27.5 8.75 -27.7 9.2 Q-31.0 16.1 -33.9 20.4 -37.7 19.05 -38.85 16.9 L-35.1 11.5 Q-31.35 6.1 -28.45 0.1 L-27.25 -2.55 -27.25 -2.85 -26.95 -7.75 Q-26.65 -12.2 -25.55 -14.1 L-23.15 -12.95 -20.2 -11.85 0.8 -10.4 Q0.65 -10.4 0.8 -4.15 0.95 2.1 1.35 2.25 L2.05 -2.85 Q2.3 -1.75 2.15 1.5 L2.05 2.8 0.3 2.8 0.05 -1.1 -1.0 -1.15 -2.45 -1.5 -3.05 -1.6 -2.4 -2.05 -1.0 -2.1 -0.35 -2.05 -0.5 -5.35 -0.5 -8.7 -13.4 -9.35 -23.35 -10.85 -23.4 -10.5 -23.9 -6.6 Q-23.9 -5.95 -23.4 -5.75 L-22.65 -5.5 Q-23.95 -5.05 -24.3 -4.15 L-24.65 -0.65 -23.05 0.05 -24.1 4.4 -25.25 8.25 -26.1 10.3 -27.15 12.6 -31.6 21.9 -27.05 23.15 -24.35 23.5 -23.85 22.4 -22.95 20.35 -20.45 14.3 -18.0 8.4 -15.3 1.9 Q-15.3 5.2 -16.65 11.75 L-16.85 12.55 -18.2 18.1 Q-19.25 21.85 -20.5 24.8 L-21.35 26.75 -21.4 26.75 -21.35 26.75 -18.75 27.15 -18.0 27.2 Q-13.7 27.2 -12.4 24.75 L-12.3 24.65 Q-11.6 23.2 -10.8 19.45 -10.1 16.25 -9.35 11.35 L-9.2 10.3 -9.1 8.35 -8.7 12.25 Q-8.3 16.4 -8.05 21.25 L-8.05 21.8 -7.8 24.1 Q-7.3 26.5 -6.0 26.95 -4.5 27.85 -2.95 28.25 L6.75 28.95 9.6 28.75 8.8 23.65 8.15 19.2 6.75 9.75 M30.3 -0.95 L30.35 -0.9 30.3 -0.9 30.3 -0.95 M30.8 -0.65 L31.45 0.9 32.95 4.4 35.75 10.5 36.9 12.9 38.6 16.2 41.2 20.75 Q41.8 21.7 41.8 22.25 41.8 23.15 40.3 23.55 L31.55 25.6 31.3 24.8 30.45 22.0 29.25 17.9 27.6 12.45 27.25 11.3 26.25 8.0 24.55 2.2 24.3 1.5 24.55 2.15 26.2 7.05 27.2 9.75 28.15 12.4 29.2 15.05 29.95 16.75 31.6 20.15 33.05 22.35 Q34.15 23.65 35.0 23.65 L37.45 23.4 Q39.6 23.0 40.4 22.2 L36.5 14.5 35.35 12.0 34.95 11.15 32.9 5.65 31.4 1.1 30.8 -0.65 M11.55 -1.5 L12.0 -1.9 13.25 -2.1 14.5 -1.9 15.05 -1.5 14.5 -1.1 13.25 -0.95 12.0 -1.1 11.55 -1.5 M17.65 -2.45 L20.9 -2.45 20.95 -1.5 17.7 -1.5 17.65 -2.45 M33.05 -13.5 Q34.35 -11.5 34.8 -9.4 L35.6 -5.4 35.95 -2.55 35.9 -2.55 36.05 -1.35 Q36.4 0.35 37.75 2.95 L39.8 6.55 46.65 16.65 Q46.8 17.45 45.75 18.45 44.55 19.6 42.1 20.5 40.0 17.05 37.25 11.25 L36.1 8.85 35.95 8.55 32.95 1.85 31.85 -0.9 31.6 -1.55 31.6 -1.6 31.8 -2.2 31.75 -2.7 Q31.25 -3.95 31.2 -4.65 L31.15 -4.65 30.45 -12.85 33.05 -13.5 M32.3 -3.25 L32.4 -3.35 32.3 -3.85 32.25 -3.1 32.3 -3.25 M43.45 18.2 L44.05 18.1 44.6 17.5 45.0 16.25 34.5 -0.25 36.45 4.2 37.7 7.05 Q42.6 18.1 43.1 18.2 L43.45 18.2 M12.0 30.0 L17.05 28.8 21.1 29.3 Q19.85 31.6 18.0 33.2 13.35 37.2 4.1 37.2 -9.15 37.2 -17.1 29.05 L-12.1 28.45 Q-11.25 28.45 -7.0 29.8 -2.7 31.15 2.3 31.15 7.25 31.15 12.0 30.0 M21.85 29.4 L23.8 29.65 21.05 31.8 21.85 29.4 M-20.1 -5.25 Q-17.75 -4.0 -17.75 -3.6 -18.0 -3.4 -18.3 -3.3 L-20.45 -4.15 -20.1 -5.25 M-7.35 -2.7 L-6.1 -2.5 Q-5.55 -2.3 -5.55 -2.1 -5.55 -1.85 -6.1 -1.65 L-7.4 -1.45 -8.6 -1.65 -9.15 -2.1 Q-9.15 -2.3 -8.6 -2.5 L-7.35 -2.7 M-11.85 -3.5 L-11.9 -2.15 -15.2 -2.15 -15.1 -3.5 -11.85 -3.5 M-27.1 3.4 L-27.3 1.0 -37.05 16.25 -34.35 18.05 -27.1 3.4" fill="#868686" fill-rule="evenodd" stroke="none"/>
    <path d="M5.35 -7.55 L5.35 -9.85 2.05 -9.9 2.05 -8.15 2.05 -2.85 1.35 2.25 Q0.95 2.1 0.8 -4.15 0.65 -10.4 0.8 -10.4 L-20.2 -11.85 -23.15 -12.95 -25.55 -14.1 Q-26.65 -12.2 -26.95 -7.75 L-27.25 -2.85 -27.25 -2.55 -28.45 0.1 Q-31.35 6.1 -35.1 11.5 L-38.85 16.9 Q-37.7 19.05 -33.9 20.4 -31.0 16.1 -27.7 9.2 L-27.5 8.75 -26.65 6.95 -24.55 2.0 -23.8 -0.2 -24.45 2.55 -26.45 8.2 -27.5 10.6 -29.05 13.8 Q-31.1 17.8 -33.7 22.25 -32.25 23.7 -30.9 24.25 -28.35 25.25 -22.95 25.25 L-22.5 24.9 -21.65 22.95 Q-20.75 20.7 -19.4 16.25 L-18.95 14.8 -17.5 9.85 -15.3 1.9 Q-15.8 5.65 -17.15 10.65 L-18.75 15.85 -19.05 16.8 -21.3 23.55 -22.0 25.7 -22.55 27.25 -20.55 27.8 -18.1 27.95 -16.6 27.9 -12.15 27.45 -5.05 28.85 2.1 30.1 Q8.55 30.1 12.3 28.95 16.05 27.8 17.05 27.8 L17.85 27.9 21.1 28.3 21.55 28.35 22.2 28.45 24.8 28.75 25.15 28.75 28.35 28.2 30.95 26.95 30.6 25.7 29.8 23.0 28.55 19.0 27.7 16.4 27.5 15.8 26.9 13.95 26.55 12.85 24.55 6.1 23.5 2.0 23.5 1.3 24.05 -1.9 24.3 1.5 24.55 2.2 26.25 8.0 27.25 11.3 27.6 12.45 29.25 17.9 30.45 22.0 31.3 24.8 31.55 25.6 40.3 23.55 Q41.8 23.15 41.8 22.25 41.8 21.7 41.2 20.75 L38.6 16.2 36.9 12.9 35.75 10.5 32.95 4.4 31.45 0.9 30.8 -0.65 30.75 -0.7 30.65 -0.95 30.5 -0.8 30.65 -1.05 30.35 -0.9 30.3 -0.95 30.15 -1.25 29.3 -11.1 29.2 -12.5 26.3 -11.65 26.45 -9.95 27.35 -0.4 27.2 0.1 26.15 0.15 25.9 -2.4 25.9 -3.15 25.0 -11.4 6.6 -9.8 6.6 -8.6 6.6 1.5 6.7 2.3 6.85 3.25 7.35 7.05 7.5 8.0 8.6 15.15 8.1 14.05 Q7.3 12.0 6.75 9.75 L5.7 3.35 5.65 3.25 5.45 1.85 5.45 1.8 5.35 -7.55 M15.65 -11.65 Q21.35 -12.15 29.0 -13.8 L31.6 -14.4 Q32.85 -14.9 33.8 -15.9 L33.95 -16.1 34.4 -16.1 34.45 -15.8 34.4 -15.85 34.8 -14.25 Q36.05 -10.3 37.0 -3.75 L37.05 -3.4 Q37.3 -1.95 38.45 0.65 41.1 6.4 47.55 16.25 L47.6 16.25 47.65 17.0 Q47.65 19.4 45.25 20.45 42.85 21.5 42.85 22.65 42.85 24.3 37.45 25.25 32.0 26.2 32.0 27.15 32.0 27.9 29.65 28.8 L26.9 29.6 26.85 29.65 25.6 30.7 Q16.4 37.95 6.6 38.6 L0.95 38.65 Q-8.35 38.05 -14.8 33.4 L-15.05 33.2 Q-17.45 31.5 -19.4 29.2 L-20.7 28.95 -22.55 28.4 Q-23.4 28.05 -23.55 27.65 L-23.3 26.25 Q-31.05 25.0 -32.65 24.3 -34.35 23.55 -34.35 21.3 -34.35 21.05 -37.1 19.45 -39.85 17.8 -39.85 16.9 L-34.55 9.0 Q-30.8 3.15 -29.6 0.5 -28.95 -0.85 -28.45 -3.0 L-27.95 -9.35 -27.8 -10.6 -27.8 -10.65 -27.6 -12.1 -26.8 -17.35 -26.35 -17.35 -24.7 -15.8 Q-23.85 -15.05 -23.1 -15.05 -20.75 -14.15 -16.25 -13.2 -7.15 -11.35 7.1 -11.3 L15.65 -11.65 M33.05 -13.5 L30.45 -12.85 31.15 -4.65 31.2 -4.65 Q31.25 -3.95 31.75 -2.7 L31.8 -2.2 31.6 -1.6 31.6 -1.55 31.85 -0.9 32.95 1.85 35.95 8.55 36.1 8.85 37.25 11.25 Q40.0 17.05 42.1 20.5 44.55 19.6 45.75 18.45 46.8 17.45 46.65 16.65 L39.8 6.55 37.75 2.95 Q36.4 0.35 36.05 -1.35 L35.9 -2.55 35.95 -2.55 35.6 -5.4 34.8 -9.4 Q34.35 -11.5 33.05 -13.5 M12.0 30.0 Q7.25 31.15 2.3 31.15 -2.7 31.15 -7.0 29.8 -11.25 28.45 -12.1 28.45 L-17.1 29.05 Q-9.15 37.2 4.1 37.2 13.35 37.2 18.0 33.2 19.85 31.6 21.1 29.3 L17.05 28.8 12.0 30.0 M21.85 29.4 L21.05 31.8 23.8 29.65 21.85 29.4" fill="#555555" fill-rule="evenodd" stroke="none"/>
  </g>
</svg>
