<?xml version="1.0" encoding="UTF-8" standalone="no"?>
<svg xmlns:ffdec="https://www.free-decompiler.com/flash" xmlns:xlink="http://www.w3.org/1999/xlink" ffdec:objectType="shape" height="47.2px" width="36.1px" xmlns="http://www.w3.org/2000/svg">
  <g transform="matrix(1.0, 0.0, 0.0, 1.0, 0.45, 0.3)">
    <path d="M30.75 8.15 L32.9 10.5 Q35.2 13.6 35.55 17.45 L35.6 18.65 35.6 18.7 35.6 19.3 35.6 19.35 35.65 19.95 35.65 20.0 35.65 20.25 35.65 24.2 35.65 28.6 35.65 28.65 35.6 30.3 35.6 30.35 35.5 33.1 35.5 33.15 35.1 35.85 35.1 35.95 Q33.95 39.6 30.75 42.55 L30.75 42.6 Q29.0 44.1 27.05 45.1 25.0 46.15 22.7 46.55 L19.1 46.9 18.3 46.85 16.65 46.75 16.55 46.75 15.0 46.45 13.55 46.1 Q10.9 45.25 8.65 43.55 L7.45 42.55 7.1 42.25 7.05 42.2 Q4.1 39.4 3.15 35.9 L2.7 33.1 2.55 24.45 2.55 20.35 2.55 20.05 2.6 19.25 2.6 18.7 2.6 18.65 2.6 18.05 2.65 17.75 Q2.55 17.4 2.7 17.2 3.2 11.95 7.45 8.15 11.65 4.3 17.45 3.85 L17.9 3.75 18.5 3.75 18.95 3.75 19.05 3.75 19.1 3.75 21.6 3.9 Q26.5 4.55 30.3 7.75 L30.35 7.8 30.75 8.15" fill="#999999" fill-rule="evenodd" stroke="none"/>
    <path d="M29.3 6.95 L27.25 4.7 26.8 4.3 27.25 4.7 29.3 6.95 Q30.65 9.55 31.4 14.5 L31.4 14.65 28.9 14.65 31.4 14.65 31.3 15.45 31.3 15.85 31.2 17.2 Q31.6 19.2 31.9 24.6 L31.9 25.3 31.85 26.3 31.9 24.6 31.85 26.3 Q31.6 28.25 30.45 31.55 28.9 36.05 27.65 37.05 L27.4 36.9 Q26.0 38.95 23.7 40.4 21.75 41.4 19.55 41.8 22.5 40.65 26.0 37.05 27.3 35.7 28.2 31.7 28.65 24.8 28.65 15.15 L28.95 15.15 29.0 14.85 28.9 14.65 28.85 14.3 29.15 12.6 Q29.15 10.85 28.05 8.35 26.7 5.35 24.9 4.7 L24.9 4.15 25.5 4.05 26.8 4.3 Q28.2 4.9 29.3 6.95" fill="#cccccc" fill-rule="evenodd" stroke="none"/>
    <path d="M26.8 4.3 L25.5 4.05 24.9 4.15 24.9 4.7 Q26.7 5.35 28.05 8.35 29.15 10.85 29.15 12.6 L28.85 14.3 28.9 14.65 27.0 14.65 28.9 14.65 29.0 14.85 28.95 15.15 28.65 15.15 Q28.65 24.8 28.2 31.7 27.3 35.7 26.0 37.05 22.5 40.65 19.55 41.8 L16.1 42.15 15.4 42.1 13.7 42.0 12.15 41.7 10.75 41.35 13.25 41.55 16.75 41.25 16.9 40.7 15.9 40.5 Q20.05 39.45 21.75 36.05 23.15 33.25 23.15 26.8 L23.25 19.95 Q23.0 19.05 23.0 17.65 L23.05 16.3 5.05 16.45 5.15 15.45 5.05 15.3 23.65 15.3 23.75 14.95 23.85 15.3 23.95 15.3 24.0 14.8 24.5 14.7 24.5 14.65 25.8 14.65 25.9 14.25 23.2 14.25 17.05 14.1 16.1 14.05 16.05 13.9 16.05 13.85 16.35 13.6 16.6 13.55 16.05 13.5 16.05 13.0 16.05 13.5 15.45 13.5 15.35 13.3 Q15.35 13.1 16.05 13.0 L17.15 12.95 17.7 13.0 23.1 12.85 23.6 12.8 26.1 12.9 26.15 12.35 Q26.15 9.9 24.7 7.3 23.2 5.1 19.8 2.95 L19.3 2.65 16.9 2.3 Q16.75 2.6 16.75 1.95 16.75 1.55 17.0 1.35 L16.5 1.05 16.25 0.75 16.05 0.75 15.9 0.7 15.9 0.5 15.9 0.15 16.5 0.05 18.5 0.65 Q23.2 1.25 26.8 4.3 M31.4 14.65 L31.4 14.5 Q30.65 9.55 29.3 6.95 31.45 9.9 31.8 13.5 L31.85 14.65 31.85 15.3 31.85 15.35 31.9 16.0 31.9 16.25 31.9 20.2 31.9 24.6 Q31.6 19.2 31.2 17.2 L31.3 15.85 31.3 15.45 31.4 14.65 31.85 14.65 31.4 14.65 M31.85 26.3 L31.75 29.05 31.35 31.7 Q30.3 35.2 27.25 38.0 L23.7 40.4 Q26.0 38.95 27.4 36.9 L27.65 37.05 Q28.9 36.05 30.45 31.55 31.6 28.25 31.85 26.3 M0.3 16.35 L0.3 16.05 0.35 15.35 0.35 15.3 1.3 15.3 1.15 14.85 1.15 14.65 1.95 14.65 1.75 15.3 1.9 15.3 1.7 15.4 Q1.05 15.4 0.8 16.4 L0.3 16.35 M0.35 14.05 L0.0 13.85 0.4 13.65 1.4 13.45 2.4 13.3 4.0 13.15 13.9 13.15 13.85 12.05 14.25 5.4 14.55 1.95 14.65 1.1 14.7 0.55 14.75 0.0 14.9 0.5 14.95 1.05 15.0 1.8 15.05 4.85 15.25 8.8 15.05 11.95 15.25 13.95 15.05 14.65 14.6 15.15 14.2 14.65 15.05 14.65 14.2 14.65 13.95 13.65 9.9 13.65 2.25 13.7 2.05 13.7 1.5 13.8 1.2 13.95 0.55 14.15 0.35 14.05 0.4 13.65 0.35 14.05 M26.9 14.65 L25.8 14.65 26.9 14.65 27.0 14.65 26.95 14.4 26.9 14.65 M25.85 13.65 L25.75 13.7 26.0 13.7 26.0 13.65 25.85 13.65 M26.1 13.0 L24.8 13.15 26.1 13.05 26.1 13.0 M16.05 0.5 L16.1 0.5 18.5 0.65 16.1 0.5 16.05 0.5 16.05 0.75 16.05 0.5 15.9 0.5 16.05 0.5 M14.7 0.55 L14.9 0.5 14.7 0.55 M23.2 34.4 Q23.8 32.85 23.9 30.7 L23.0 34.95 23.2 34.4" fill="#eeeeee" fill-rule="evenodd" stroke="none"/>
    <path d="M4.55 37.65 Q1.8 35.0 0.85 31.7 L0.45 29.05 0.3 20.45 0.3 16.35 0.8 16.4 Q0.55 17.15 0.55 18.6 L0.4 22.35 Q0.45 26.65 1.25 30.2 2.3 34.9 4.55 37.65 M0.35 14.65 L0.35 14.05 0.55 14.15 1.2 13.95 1.15 14.65 0.35 14.65 M0.4 13.65 L0.4 13.5 Q0.85 8.4 4.95 4.7 9.05 0.95 14.7 0.55 L14.65 1.1 Q7.65 2.15 4.05 6.8 1.65 9.85 1.4 13.45 L0.4 13.65 M14.9 0.5 L15.55 0.5 15.9 0.5 15.9 0.7 16.05 0.75 16.25 0.75 16.5 1.05 17.0 1.35 Q16.75 1.55 16.75 1.95 16.75 2.6 16.9 2.3 L19.3 2.65 19.8 2.95 Q23.2 5.1 24.7 7.3 26.15 9.9 26.15 12.35 L26.1 12.9 23.6 12.8 23.1 12.85 17.7 13.0 17.15 12.95 16.05 13.0 Q15.35 13.1 15.35 13.3 L15.45 13.5 16.05 13.5 16.6 13.55 16.35 13.6 16.05 13.85 16.05 13.9 16.1 14.05 17.05 14.1 23.2 14.25 25.9 14.25 25.8 14.65 24.5 14.65 16.05 14.65 15.05 14.65 15.25 13.95 15.05 11.95 15.25 8.8 15.05 4.85 15.0 1.8 15.8 1.55 15.65 1.2 15.0 1.05 14.95 1.05 14.9 0.5 M22.65 8.15 L21.95 6.95 Q19.3 4.5 18.65 4.5 18.35 4.5 18.35 4.75 L18.85 10.05 21.35 9.85 Q23.1 9.7 23.1 9.25 L22.65 8.15 M22.35 9.1 L22.35 8.75 22.5 9.1 22.35 9.1 M21.85 7.9 L21.85 7.85 Q22.3 8.1 22.3 8.6 L21.85 7.9 M20.35 8.6 L20.85 8.55 20.85 8.5 21.3 8.85 19.7 8.85 Q20.1 8.6 20.35 8.6 M26.1 13.0 L26.1 13.05 24.8 13.15 26.1 13.0 M25.85 13.65 L26.0 13.65 26.0 13.7 25.75 13.7 25.85 13.65 M14.2 14.65 L1.95 14.65 2.25 13.7 9.9 13.65 13.95 13.65 14.2 14.65 M15.9 40.5 Q9.05 38.8 6.65 35.6 4.15 32.3 4.15 24.35 L5.05 16.45 23.05 16.3 23.0 17.65 Q23.0 19.05 23.25 19.95 L23.15 26.8 Q23.15 33.25 21.75 36.05 20.05 39.45 15.9 40.5 M14.55 1.95 L14.25 5.4 13.85 12.05 13.9 13.15 4.0 13.15 2.4 13.3 2.85 11.75 Q3.55 9.4 4.9 7.7 7.9 4.0 14.55 1.95 M10.35 8.35 L10.45 7.95 10.55 7.95 10.35 8.35 M10.85 9.2 L11.55 9.0 11.6 9.0 11.55 9.35 10.7 9.35 10.85 9.2 M13.3 6.1 Q13.35 5.6 12.85 4.9 9.3 6.45 9.1 9.4 L9.1 9.95 10.6 10.2 Q12.7 10.2 13.1 9.2 L13.1 7.25 13.3 6.1 M16.05 13.9 L16.05 14.65 16.05 13.9 M16.05 13.5 L16.05 13.85 16.05 13.5 M16.05 0.75 L16.05 13.0 16.05 0.75 M4.65 35.45 Q3.0 33.55 2.9 32.3 L4.65 35.45" fill="#fbfbfb" fill-rule="evenodd" stroke="none"/>
    <path d="M10.75 41.35 Q7.8 40.75 5.65 38.8 L4.55 37.65 Q2.3 34.9 1.25 30.2 0.45 26.65 0.4 22.35 L0.55 18.6 Q0.55 17.15 0.8 16.4 1.05 15.4 1.7 15.4 L1.9 15.3 1.75 15.3 1.95 14.65 14.2 14.65 14.6 15.15 15.05 14.65 16.05 14.65 24.5 14.65 24.5 14.7 24.0 14.8 23.95 15.3 23.85 15.3 23.75 14.95 23.65 15.3 5.05 15.3 5.15 15.45 5.05 16.45 4.15 24.35 Q4.15 32.3 6.65 35.6 9.05 38.8 15.9 40.5 L16.9 40.7 16.75 41.25 13.25 41.55 10.75 41.35 Q8.25 40.55 6.1 38.95 L4.95 38.0 4.55 37.65 4.95 38.0 6.1 38.95 Q8.25 40.55 10.75 41.35 M0.35 15.3 L0.35 14.65 1.15 14.65 1.15 14.85 1.3 15.3 0.35 15.3 M20.35 8.6 Q20.1 8.6 19.7 8.85 L21.3 8.85 20.85 8.5 20.85 8.55 20.35 8.6 M21.85 7.9 L22.3 8.6 Q22.3 8.1 21.85 7.85 L21.85 7.9 M22.35 9.1 L22.5 9.1 22.35 8.75 22.35 9.1 M22.65 8.15 L23.1 9.25 Q23.1 9.7 21.35 9.85 L18.85 10.05 18.35 4.75 Q18.35 4.5 18.65 4.5 19.3 4.5 21.95 6.95 L22.65 8.15 M26.9 14.65 L26.95 14.4 27.0 14.65 26.9 14.65 M14.95 1.05 L15.0 1.05 15.65 1.2 15.8 1.55 15.0 1.8 14.95 1.05 M2.25 13.7 L1.95 14.65 1.15 14.65 1.2 13.95 1.5 13.8 2.05 13.7 2.25 13.7 M14.65 1.1 L14.55 1.95 Q7.9 4.0 4.9 7.7 3.55 9.4 2.85 11.75 L2.4 13.3 1.4 13.45 Q1.65 9.85 4.05 6.8 7.65 2.15 14.65 1.1 M13.3 6.1 L13.1 7.25 13.1 9.2 Q12.7 10.2 10.6 10.2 L9.1 9.95 9.1 9.4 Q9.3 6.45 12.85 4.9 13.35 5.6 13.3 6.1 M10.85 9.2 L10.7 9.35 11.55 9.35 11.6 9.0 11.55 9.0 10.85 9.2 M10.35 8.35 L10.55 7.95 10.45 7.95 10.35 8.35 M4.65 35.45 L2.9 32.3 Q3.0 33.55 4.65 35.45 M23.2 34.4 L23.0 34.95 23.9 30.7 Q23.8 32.85 23.2 34.4" fill="#ffffff" fill-rule="evenodd" stroke="none"/>
    <path d="M26.8 4.3 L27.25 4.7 29.3 6.95 Q31.45 9.9 31.8 13.5 L31.85 14.65 31.85 15.3 31.85 15.35 31.9 16.0 31.9 16.25 31.9 20.2 31.9 24.6 31.85 26.3 31.75 29.05 31.35 31.7 Q30.3 35.2 27.25 38.0 L23.7 40.4 Q21.75 41.4 19.55 41.8 L16.1 42.15 15.4 42.1 13.7 42.0 12.15 41.7 10.75 41.35 Q8.25 40.55 6.1 38.95 L4.95 38.0 4.55 37.65 Q1.8 35.0 0.85 31.7 L0.45 29.05 0.3 20.45 0.3 16.35 0.3 16.05 0.35 15.35 0.35 15.3 0.35 14.65 0.35 14.05 0.4 13.65 0.4 13.5 Q0.85 8.4 4.95 4.7 9.05 0.95 14.7 0.55 L14.9 0.5 15.55 0.5 15.9 0.5 16.05 0.5 16.05 0.75 16.05 13.0 16.05 13.5 16.05 13.85 16.05 13.9 16.05 14.65 M18.5 0.65 Q23.2 1.25 26.8 4.3 M18.5 0.65 L16.1 0.5 16.05 0.5" fill="none" stroke="#525252" stroke-linecap="round" stroke-linejoin="round" stroke-width="1.5"/>
    <path d="M28.9 14.65 L31.4 14.65 31.85 14.65 M25.8 14.65 L26.9 14.65 27.0 14.65 28.9 14.65 M24.5 14.65 L16.05 14.65 15.05 14.65 14.2 14.65 1.95 14.65 1.15 14.65 0.35 14.65 M25.8 14.65 L24.5 14.65" fill="none" stroke="#525252" stroke-linecap="round" stroke-linejoin="round" stroke-width="1.5"/>
  </g>
</svg>
