<?xml version="1.0" encoding="UTF-8" standalone="no"?>
<svg xmlns:ffdec="https://www.free-decompiler.com/flash" xmlns:xlink="http://www.w3.org/1999/xlink" ffdec:objectType="shape" height="75.25px" width="126.45px" xmlns="http://www.w3.org/2000/svg">
  <g transform="matrix(1.0, 0.0, 0.0, 1.0, 76.45, 53.6)">
    <path d="M12.9 7.9 L19.15 13.95 Q24.1 18.35 28.25 19.35 L27.9 16.5 28.2 15.8 Q29.95 16.6 33.25 17.5 37.45 18.6 40.1 18.6 L43.2 18.15 47.35 17.15 Q37.6 16.35 33.25 7.95 29.25 0.25 28.6 -16.45 28.4 -21.6 24.05 -30.5 19.3 -40.15 14.35 -43.7 7.25 -48.8 4.65 -49.4 L4.25 -49.5 -3.05 -48.95 -4.45 -49.25 -5.9 -49.6 -9.15 -50.5 -13.5 -51.7 -20.05 -52.15 Q-33.2 -52.15 -43.9 -43.8 -52.6 -37.0 -53.1 -30.8 -53.6 -24.65 -56.65 -17.7 -59.75 -10.75 -61.25 -4.45 -62.75 1.8 -68.35 7.05 -63.65 5.85 -62.45 4.25 L-54.7 -1.65 -54.45 -1.95 -54.25 -2.15 -47.2 -10.6 -46.4 -9.75 -46.25 -9.35 Q-46.15 -6.95 -46.95 -4.1 L-47.85 -1.55 Q-46.85 -1.6 -43.05 -4.0 -38.7 -6.75 -36.9 -9.2 L-36.6 -5.8 Q-36.6 -4.5 -37.15 -1.55 L-37.5 0.3 -38.0 2.05 -38.8 3.75 -38.65 3.65 Q-39.9 6.3 -43.15 10.95 -36.55 5.4 -33.25 0.9 -27.8 -6.65 -21.3 -22.25 L-20.7 -21.4 Q-20.0 -20.05 -19.65 -17.55 -18.0 -18.85 -16.3 -19.5 -15.0 -19.95 -14.4 -20.7 -12.8 -22.55 -5.1 -38.85 -5.65 -34.4 -6.9 -31.15 L-8.0 -27.9 -8.8 -20.5 -8.8 -23.2 Q-9.35 -15.55 -12.0 -9.15 -14.4 -3.3 -17.85 -0.45 L-14.1 -3.1 -5.5 -13.95 Q-5.1 -13.6 -4.75 -4.3 L-4.0 -6.75 -2.75 -9.3 Q-0.6 5.35 3.25 12.6 1.5 4.25 1.5 -3.4 L1.5 -3.9 1.85 -9.7 Q2.2 -12.2 2.85 -13.3 L4.65 -15.2 6.25 -16.35 Q7.05 -15.65 6.75 -12.4 6.35 -8.2 6.5 -7.0 L7.4 0.25 Q8.55 6.3 11.9 12.55 L12.1 9.25 12.9 7.9 M3.6 -9.55 Q2.65 -6.6 2.65 -4.4 L3.75 15.45 5.05 15.45 4.2 15.95 Q1.55 14.2 -0.9 7.55 -3.35 0.75 -3.3 -5.1 L-4.8 0.1 Q-6.4 -1.85 -6.75 -5.55 -7.0 -8.35 -6.55 -10.9 -8.55 -6.15 -12.95 -2.4 -17.75 1.7 -23.15 2.5 L-23.7 1.85 Q-19.05 0.45 -14.35 -8.6 -9.7 -17.65 -9.75 -25.05 -9.8 -23.5 -12.1 -20.9 -15.2 -17.45 -20.4 -15.25 L-20.8 -15.95 Q-21.25 -16.95 -21.4 -18.65 -25.5 -5.9 -32.65 3.5 -39.2 12.1 -44.1 12.95 L-45.85 12.6 Q-42.1 7.7 -40.05 2.6 -38.3 -1.65 -38.15 -5.05 L-38.1 -6.7 Q-40.0 -3.7 -43.55 -1.7 -47.1 0.35 -49.7 0.0 L-47.65 -7.35 Q-52.35 0.4 -61.3 5.5 -69.35 10.1 -73.3 8.9 -70.85 7.55 -67.5 3.25 -63.9 -1.45 -62.75 -5.65 L-63.6 -4.85 Q-65.05 -3.7 -69.15 -3.75 -73.3 -3.8 -74.9 -4.85 L-76.45 -5.8 Q-73.75 -6.0 -69.35 -9.0 -64.8 -12.1 -62.25 -15.55 -64.6 -16.7 -66.0 -19.1 -66.9 -20.7 -66.9 -21.4 L-66.75 -24.0 -64.95 -25.45 Q-65.5 -24.95 -65.5 -24.05 -65.5 -23.2 -64.3 -22.1 L-62.7 -21.1 -59.15 -21.7 Q-57.15 -22.3 -55.6 -26.45 L-51.85 -35.9 Q-49.6 -41.2 -45.8 -44.15 -39.95 -48.65 -34.6 -50.85 -27.85 -53.6 -20.05 -53.6 -11.9 -53.6 -7.95 -52.05 -5.25 -51.0 -3.25 -50.9 L-0.6 -51.0 4.65 -50.4 Q13.6 -48.25 20.9 -38.75 31.2 -25.35 31.15 -4.85 34.5 -1.2 40.45 -3.3 L39.35 -0.6 Q37.9 2.3 36.2 3.55 L39.0 3.4 39.9 3.05 40.25 3.1 40.4 3.9 Q40.0 6.1 38.9 7.05 37.7 8.1 34.8 8.7 35.8 11.0 41.55 13.9 46.1 16.15 50.0 17.25 43.4 19.85 39.6 19.85 32.4 19.85 28.95 17.4 L30.95 21.6 Q27.6 22.0 21.15 17.65 15.15 13.55 13.45 10.45 L13.85 15.4 13.45 16.2 Q9.3 14.85 6.6 4.5 4.05 -5.35 5.1 -13.2 L4.65 -12.3 3.6 -9.55 M38.85 -2.2 Q35.4 -1.1 34.15 -1.15 L31.8 -0.85 32.65 2.45 34.05 7.35 Q36.25 7.4 38.25 5.8 L38.6 5.0 35.7 4.4 Q35.2 4.15 34.4 3.1 L36.45 1.2 38.35 -0.8 38.85 -2.2 M-65.5 -20.95 L-64.05 -17.95 Q-63.0 -16.8 -61.0 -16.85 L-60.2 -20.2 Q-61.5 -19.55 -62.3 -19.55 L-64.3 -19.75 Q-64.95 -19.9 -65.5 -20.95 M-66.65 -4.8 Q-62.2 -5.55 -61.2 -14.3 L-66.65 -9.05 Q-67.1 -8.75 -73.2 -5.6 -69.1 -4.4 -66.65 -4.8" fill="#97877d" fill-rule="evenodd" stroke="none"/>
    <path d="M1.2 -45.55 L1.4 -44.7 Q1.75 -44.5 4.65 -43.2 L4.85 -43.15 Q8.0 -41.75 8.4 -41.7 L7.8 -42.65 Q6.6 -43.65 4.65 -44.5 L3.2 -45.1 1.2 -45.55 M-62.45 4.25 Q-57.1 -5.2 -54.45 -16.3 -51.8 -27.3 -46.85 -35.95 -44.7 -39.7 -38.15 -43.4 -28.8 -48.7 -16.75 -48.7 L-9.4 -48.1 Q-10.75 -46.0 -16.95 -43.35 -22.85 -40.85 -24.2 -38.05 L-25.05 -36.8 Q-23.75 -36.9 -21.45 -38.2 -17.35 -40.5 -13.15 -42.4 -14.55 -39.8 -18.25 -36.15 -21.15 -33.25 -21.35 -31.4 -18.85 -32.6 -19.0 -32.15 L-13.05 -37.15 Q-7.3 -41.8 -6.9 -41.1 -12.0 -33.3 -17.1 -28.6 L-20.9 -25.15 -26.8 -14.65 Q-27.9 -11.4 -29.7 -7.95 -32.55 -2.45 -38.65 3.65 L-38.8 3.75 -38.0 2.05 -37.5 0.3 -33.75 -13.75 Q-30.2 -26.65 -26.5 -31.35 L-26.65 -31.95 Q-26.95 -32.55 -27.4 -32.6 -29.1 -30.85 -30.95 -26.6 L-34.45 -18.55 Q-39.45 -7.75 -46.95 -4.1 -46.15 -6.95 -46.25 -9.35 -40.15 -28.65 -38.1 -31.7 -36.85 -33.6 -34.2 -35.65 L-27.25 -41.1 Q-31.2 -41.25 -35.15 -38.55 -40.95 -34.6 -45.15 -25.25 -48.4 -18.05 -50.45 -10.0 -51.6 -5.45 -54.25 -2.15 L-54.45 -1.95 -54.7 -1.65 -62.45 4.25 M1.5 -3.9 L0.95 5.85 0.0 1.25 Q-0.8 -2.85 -0.8 -4.05 L-0.55 -7.55 -0.05 -12.1 0.6 -7.7 2.1 -13.8 1.85 -9.7 1.5 -3.9 M0.5 -15.6 L-0.1 -14.35 Q-1.05 -14.65 -1.2 -15.15 L-3.2 -10.0 Q-4.1 -10.0 -4.25 -10.45 -2.95 -13.5 1.05 -35.55 1.05 -36.55 -0.6 -41.25 2.55 -37.8 4.4 -31.4 L4.65 -30.5 Q5.8 -26.2 5.8 -23.2 5.8 -21.85 4.65 -19.2 L4.6 -19.1 2.35 -13.85 2.25 -14.3 4.45 -24.4 4.55 -25.75 Q4.55 -29.5 2.75 -32.05 L1.4 -32.1 2.15 -27.2 2.4 -23.7 1.7 -19.95 0.5 -15.6 M12.1 9.25 Q9.2 1.45 8.75 -9.2 8.1 -22.95 7.3 -27.2 6.35 -32.3 4.65 -36.35 L4.3 -37.15 Q2.05 -42.1 -2.15 -47.3 0.55 -48.2 4.65 -46.0 L8.1 -43.8 Q14.0 -39.45 15.25 -36.0 16.4 -33.4 17.35 -30.3 19.15 -24.35 19.65 -17.35 L19.9 -10.8 20.2 -5.1 20.35 -0.35 Q20.35 1.6 20.95 1.6 L22.4 7.35 23.85 13.3 Q20.65 9.8 19.0 4.4 17.5 -0.35 17.7 -4.85 L17.1 2.25 Q17.1 5.75 18.75 9.0 20.8 13.1 24.6 14.55 L25.4 15.75 22.2 14.35 Q20.05 13.3 18.55 11.95 14.25 7.85 13.3 -1.65 12.95 -5.5 12.85 -18.55 12.85 -25.15 10.3 -29.9 L10.25 -21.25 Q10.25 -18.9 11.4 -6.35 L12.9 7.9 12.1 9.25 M11.1 -33.95 Q12.7 -31.55 13.35 -28.65 14.1 -25.5 15.5 -3.45 L15.85 -9.35 Q15.85 -28.3 12.4 -33.85 11.45 -35.4 9.4 -36.95 L8.05 -38.1 11.1 -33.95 M17.25 -29.05 Q16.7 -30.85 12.4 -37.15 14.85 -32.05 16.5 -24.0 17.85 -17.35 17.8 -13.95 18.5 -24.9 17.25 -29.05 M22.6 -17.05 L22.1 -16.35 23.45 -7.85 Q23.95 -9.95 23.95 -11.35 L23.45 -14.35 22.6 -17.05 M28.35 3.05 Q28.0 0.7 27.15 -1.85 26.15 -4.9 24.75 -6.95 L24.75 -4.9 Q24.2 -3.6 26.45 1.3 28.45 5.7 29.85 7.3 30.9 10.75 36.25 14.6 L34.8 14.35 29.75 11.8 Q26.85 10.15 25.1 7.7 20.3 1.0 20.3 -17.45 L20.75 -28.95 27.15 -13.65 Q26.8 -13.2 27.55 -5.0 L28.35 3.05 M-17.05 -47.8 L-18.8 -47.1 -21.95 -44.9 -25.0 -42.6 Q-23.8 -42.75 -20.45 -45.2 L-17.05 -47.8 M-53.8 -9.35 Q-50.8 -13.3 -47.65 -20.35 L-42.55 -31.9 Q-36.1 -44.95 -25.4 -46.2 -33.55 -47.2 -41.4 -36.05 -48.05 -26.55 -53.8 -9.35 M-12.85 -27.65 Q-15.5 -23.2 -19.15 -21.4 L-13.1 -31.5 Q-11.2 -34.2 -10.35 -33.1 -12.0 -29.1 -12.85 -27.65 M-5.8 -18.05 Q-6.75 -15.5 -9.0 -11.65 -11.1 -8.1 -11.75 -7.65 L-10.75 -9.75 Q-9.95 -11.35 -9.95 -11.9 -9.95 -12.4 -7.8 -17.9 -5.7 -23.4 -5.7 -25.9 L-5.4 -29.75 -3.4 -36.35 -2.8 -35.05 -2.15 -32.45 Q-1.7 -30.15 -1.7 -28.65 -1.7 -26.9 -2.65 -24.6 L-4.55 -20.75 Q-3.85 -22.3 -2.9 -28.15 -2.9 -29.15 -3.75 -31.15 L-5.3 -24.8 Q-6.55 -19.7 -5.8 -18.05 M-34.85 -3.4 L-33.3 -4.75 Q-29.45 -7.25 -27.3 -15.05 -24.35 -25.8 -23.75 -26.95 -26.7 -24.35 -29.3 -16.5 -32.3 -7.2 -34.85 -3.4 M-29.1 -35.3 Q-35.15 -32.2 -38.0 -26.1 L-43.5 -9.95 Q-40.65 -13.2 -35.45 -23.65 -30.35 -34.0 -29.1 -35.3 M-22.1 -34.05 L-20.35 -36.55 Q-22.2 -35.8 -23.35 -33.65 L-24.15 -31.4 Q-23.85 -31.55 -22.1 -34.05" fill="#ebe8e0" fill-rule="evenodd" stroke="none"/>
    <path d="M-62.45 4.25 Q-63.65 5.85 -68.35 7.05 -62.75 1.8 -61.25 -4.45 -59.75 -10.75 -56.65 -17.7 -53.6 -24.65 -53.1 -30.8 -52.6 -37.0 -43.9 -43.8 -33.2 -52.15 -20.05 -52.15 L-13.5 -51.7 -9.15 -50.5 -5.9 -49.6 -4.45 -49.25 -3.05 -48.95 4.25 -49.5 4.65 -49.4 Q7.25 -48.8 14.35 -43.7 19.3 -40.15 24.05 -30.5 28.4 -21.6 28.6 -16.45 29.25 0.25 33.25 7.95 37.6 16.35 47.35 17.15 L43.2 18.15 40.1 18.6 Q37.45 18.6 33.25 17.5 29.95 16.6 28.2 15.8 L27.9 16.5 28.25 19.35 Q24.1 18.35 19.15 13.95 L12.9 7.9 11.4 -6.35 Q10.25 -18.9 10.25 -21.25 L10.3 -29.9 Q12.85 -25.15 12.85 -18.55 12.95 -5.5 13.3 -1.65 14.25 7.85 18.55 11.95 20.05 13.3 22.2 14.35 L25.4 15.75 24.6 14.55 23.85 13.3 22.4 7.35 20.95 1.6 Q20.35 1.6 20.35 -0.35 L20.2 -5.1 19.9 -10.8 19.65 -17.35 Q19.15 -24.35 17.35 -30.3 16.4 -33.4 15.25 -36.0 14.0 -39.45 8.1 -43.8 L4.65 -46.0 Q0.55 -48.2 -2.15 -47.3 2.05 -42.1 4.3 -37.15 L4.65 -36.35 Q6.35 -32.3 7.3 -27.2 8.1 -22.95 8.75 -9.2 9.2 1.45 12.1 9.25 L11.9 12.55 Q8.55 6.3 7.4 0.25 L6.5 -7.0 Q6.35 -8.2 6.75 -12.4 7.05 -15.65 6.25 -16.35 L4.65 -15.2 2.85 -13.3 Q2.2 -12.2 1.85 -9.7 L2.1 -13.8 2.25 -14.3 2.35 -13.85 4.6 -19.1 4.65 -19.2 Q5.8 -21.85 5.8 -23.2 5.8 -26.2 4.65 -30.5 L4.4 -31.4 Q2.55 -37.8 -0.6 -41.25 1.05 -36.55 1.05 -35.55 -2.95 -13.5 -4.25 -10.45 -4.1 -10.0 -3.2 -10.0 L-1.2 -15.15 Q-1.05 -14.65 -0.1 -14.35 L0.5 -15.6 -0.05 -12.1 -0.55 -7.55 -0.8 -4.05 Q-0.8 -2.85 0.0 1.25 L0.95 5.85 1.5 -3.9 1.5 -3.4 Q1.5 4.25 3.25 12.6 -0.6 5.35 -2.75 -9.3 L-4.0 -6.75 -4.75 -4.3 Q-5.1 -13.6 -5.5 -13.95 L-14.1 -3.1 -17.85 -0.45 Q-14.4 -3.3 -12.0 -9.15 -9.35 -15.55 -8.8 -23.2 L-8.8 -20.5 -8.0 -27.9 -6.9 -31.15 Q-5.65 -34.4 -5.1 -38.85 -12.8 -22.55 -14.4 -20.7 -15.0 -19.95 -16.3 -19.5 -18.0 -18.85 -19.65 -17.55 -20.0 -20.05 -20.7 -21.4 L-21.3 -22.25 Q-27.8 -6.65 -33.25 0.9 -36.55 5.4 -43.15 10.95 -39.9 6.3 -38.65 3.65 -32.55 -2.45 -29.7 -7.95 -27.9 -11.4 -26.8 -14.65 L-20.9 -25.15 -17.1 -28.6 Q-12.0 -33.3 -6.9 -41.1 -7.3 -41.8 -13.05 -37.15 L-19.0 -32.15 Q-18.85 -32.6 -21.35 -31.4 -21.15 -33.25 -18.25 -36.15 -14.55 -39.8 -13.15 -42.4 -17.35 -40.5 -21.45 -38.2 -23.75 -36.9 -25.05 -36.8 L-24.2 -38.05 Q-22.85 -40.85 -16.95 -43.35 -10.75 -46.0 -9.4 -48.1 L-16.75 -48.7 Q-28.8 -48.7 -38.15 -43.4 -44.7 -39.7 -46.85 -35.95 -51.8 -27.3 -54.45 -16.3 -57.1 -5.2 -62.45 4.25 M11.1 -33.95 L8.05 -38.1 9.4 -36.95 Q11.45 -35.4 12.4 -33.85 15.85 -28.3 15.85 -9.35 L15.5 -3.45 Q14.1 -25.5 13.35 -28.65 12.7 -31.55 11.1 -33.95 M22.6 -17.05 L23.45 -14.35 23.95 -11.35 Q23.95 -9.95 23.45 -7.85 L22.1 -16.35 22.6 -17.05 M28.35 3.05 L27.55 -5.0 Q26.8 -13.2 27.15 -13.65 L20.75 -28.95 20.3 -17.45 Q20.3 1.0 25.1 7.7 26.85 10.15 29.75 11.8 L34.8 14.35 36.25 14.6 Q30.9 10.75 29.85 7.3 L28.35 3.05 M38.85 -2.2 L38.35 -0.8 36.45 1.2 34.4 3.1 Q35.2 4.15 35.7 4.4 L38.6 5.0 38.25 5.8 Q36.25 7.4 34.05 7.35 L32.65 2.45 31.8 -0.85 34.15 -1.15 Q35.4 -1.1 38.85 -2.2 M-66.65 -4.8 Q-69.1 -4.4 -73.2 -5.6 -67.1 -8.75 -66.65 -9.05 L-61.2 -14.3 Q-62.2 -5.55 -66.65 -4.8 M-65.5 -20.95 Q-64.95 -19.9 -64.3 -19.75 L-62.3 -19.55 Q-61.5 -19.55 -60.2 -20.2 L-61.0 -16.85 Q-63.0 -16.8 -64.05 -17.95 L-65.5 -20.95 M-54.25 -2.15 Q-51.6 -5.45 -50.45 -10.0 -48.4 -18.05 -45.15 -25.25 -40.95 -34.6 -35.15 -38.55 -31.2 -41.25 -27.25 -41.1 L-34.2 -35.65 Q-36.85 -33.6 -38.1 -31.7 -40.15 -28.65 -46.25 -9.35 L-46.4 -9.75 -47.2 -10.6 -54.25 -2.15 M-46.95 -4.1 Q-39.45 -7.75 -34.45 -18.55 L-30.95 -26.6 Q-29.1 -30.85 -27.4 -32.6 -26.95 -32.55 -26.65 -31.95 L-26.5 -31.35 Q-30.2 -26.65 -33.75 -13.75 L-37.5 0.3 -37.15 -1.55 Q-36.6 -4.5 -36.6 -5.8 L-36.9 -9.2 Q-38.7 -6.75 -43.05 -4.0 -46.85 -1.6 -47.85 -1.55 L-46.95 -4.1 M-12.85 -27.65 Q-12.0 -29.1 -10.35 -33.1 -11.2 -34.2 -13.1 -31.5 L-19.15 -21.4 Q-15.5 -23.2 -12.85 -27.65 M-4.55 -20.75 L-2.65 -24.6 Q-1.7 -26.9 -1.7 -28.65 -1.7 -30.15 -2.15 -32.45 L-2.8 -35.05 -3.4 -36.35 -5.4 -29.75 -5.7 -25.9 Q-5.7 -23.4 -7.8 -17.9 -9.95 -12.4 -9.95 -11.9 -9.95 -11.35 -10.75 -9.75 L-11.75 -7.65 Q-11.1 -8.1 -9.0 -11.65 -6.75 -15.5 -5.8 -18.05 -4.8 -19.55 -4.55 -20.75" fill="#cbc8c0" fill-rule="evenodd" stroke="none"/>
    <path d="M1.2 -45.55 L3.2 -45.1 4.65 -44.5 Q6.6 -43.65 7.8 -42.65 L8.4 -41.7 Q8.0 -41.75 4.85 -43.15 L4.65 -43.2 Q1.75 -44.5 1.4 -44.7 L1.2 -45.55 M-0.05 -12.1 L0.5 -15.6 1.7 -19.95 2.4 -23.7 2.15 -27.2 1.4 -32.1 2.75 -32.05 Q4.55 -29.5 4.55 -25.75 L4.45 -24.4 2.25 -14.3 2.1 -13.8 0.6 -7.7 -0.05 -12.1 M23.85 13.3 L24.6 14.55 Q20.8 13.1 18.75 9.0 17.1 5.75 17.1 2.25 L17.7 -4.85 Q17.5 -0.35 19.0 4.4 20.65 9.8 23.85 13.3 M17.25 -29.05 Q18.5 -24.9 17.8 -13.95 17.85 -17.35 16.5 -24.0 14.85 -32.05 12.4 -37.15 16.7 -30.85 17.25 -29.05 M29.85 7.3 Q28.45 5.7 26.45 1.3 24.2 -3.6 24.75 -4.9 L24.75 -6.95 Q26.15 -4.9 27.15 -1.85 28.0 0.7 28.35 3.05 L29.85 7.3 M-53.8 -9.35 Q-48.05 -26.55 -41.4 -36.05 -33.55 -47.2 -25.4 -46.2 -36.1 -44.95 -42.55 -31.9 L-47.65 -20.35 Q-50.8 -13.3 -53.8 -9.35 M-17.05 -47.8 L-20.45 -45.2 Q-23.8 -42.75 -25.0 -42.6 L-21.95 -44.9 -18.8 -47.1 -17.05 -47.8 M-5.8 -18.05 Q-6.55 -19.7 -5.3 -24.8 L-3.75 -31.15 Q-2.9 -29.15 -2.9 -28.15 -3.85 -22.3 -4.55 -20.75 -4.8 -19.55 -5.8 -18.05 M-22.1 -34.05 Q-23.85 -31.55 -24.15 -31.4 L-23.35 -33.65 Q-22.2 -35.8 -20.35 -36.55 L-22.1 -34.05 M-29.1 -35.3 Q-30.35 -34.0 -35.45 -23.65 -40.65 -13.2 -43.5 -9.95 L-38.0 -26.1 Q-35.15 -32.2 -29.1 -35.3 M-34.85 -3.4 Q-32.3 -7.2 -29.3 -16.5 -26.7 -24.35 -23.75 -26.95 -24.35 -25.8 -27.3 -15.05 -29.45 -7.25 -33.3 -4.75 L-34.85 -3.4" fill="#ffffff" fill-rule="evenodd" stroke="none"/>
  </g>
</svg>
