<?xml version="1.0" encoding="UTF-8" standalone="no"?>
<svg xmlns:ffdec="https://www.free-decompiler.com/flash" xmlns:xlink="http://www.w3.org/1999/xlink" ffdec:objectType="shape" height="82.9px" width="137.95px" xmlns="http://www.w3.org/2000/svg">
  <g transform="matrix(1.0, 0.0, 0.0, 1.0, 69.0, 41.45)">
    <path d="M-62.9 -4.95 Q-58.8 -11.45 -51.4 -12.6 L-49.75 -12.65 -51.35 -10.05 -51.95 -10.7 Q-61.65 -8.2 -63.6 2.2 L-62.9 -4.95 M-44.45 -22.55 Q-38.6 -28.6 -31.45 -32.8 L-28.0 -34.7 -27.8 -30.35 Q-33.9 -28.75 -38.55 -24.3 L-40.4 -22.3 -44.45 -22.55 M-19.0 -37.0 L-12.5 -38.15 -13.15 -34.95 -19.45 -33.5 -19.0 -37.0 M2.6 -37.5 L10.15 -35.25 9.6 -32.65 2.4 -34.7 2.6 -37.5 M13.45 -33.95 L18.6 -31.95 17.8 -29.55 13.55 -31.2 13.45 -33.95 M21.45 -30.75 Q27.6 -27.65 32.7 -22.7 L35.2 -20.2 31.8 -18.5 Q28.55 -24.45 22.25 -27.5 L20.6 -28.35 21.45 -30.75 M43.15 -7.65 Q48.4 -7.65 52.85 -5.7 L54.9 -4.6 55.5 -1.85 52.9 -4.1 50.05 -3.75 Q48.65 -3.55 47.8 -2.3 L43.15 -7.65 M66.2 8.5 Q67.0 15.25 64.9 21.75 64.55 22.4 64.35 23.15 L63.8 22.9 64.3 20.65 Q65.0 16.05 64.7 11.65 L64.75 12.15 66.2 8.5 M-11.3 -17.9 L-11.4 -16.05 Q-11.35 -14.55 -10.7 -11.6 L-10.45 -10.25 Q-11.15 -11.45 -12.55 -11.45 L-12.95 -11.45 Q-15.3 -11.3 -15.45 -8.55 L-15.1 -7.1 Q-14.6 -5.7 -13.0 -5.65 L-12.7 -5.7 -10.65 -6.0 -10.65 -5.95 -10.35 -2.55 -10.05 0.75 -11.55 0.6 -12.0 -1.5 -12.3 -1.15 Q-12.55 -1.0 -12.45 -0.65 L-12.5 -0.05 -12.45 0.65 -13.85 0.55 Q-14.85 -2.65 -16.75 -4.3 L-17.15 -4.7 -17.75 -5.85 Q-18.05 -6.8 -18.0 -8.15 -17.95 -13.5 -14.7 -16.2 L-13.0 -17.2 -11.3 -17.9 M-23.6 -17.85 L-21.5 -15.85 -21.9 -15.05 Q-22.55 -15.2 -24.0 -16.35 L-25.1 -17.15 Q-24.35 -17.25 -23.6 -17.85 M-25.8 -17.4 L-25.95 -17.4 -26.9 -17.15 Q-27.4 -16.8 -27.75 -16.8 -29.3 -16.85 -29.4 -18.0 L-29.4 -18.1 -28.85 -18.95 -27.65 -19.9 -26.55 -18.15 -25.8 -17.4 M-18.55 1.1 Q-18.2 1.6 -18.2 1.85 L-20.6 4.2 Q-22.3 6.0 -22.25 6.3 -22.25 7.3 -21.65 9.05 -23.5 10.1 -24.3 9.2 L-24.85 7.95 -24.55 6.95 -24.25 6.2 -25.75 4.9 Q-26.15 4.5 -26.15 4.05 -26.15 2.75 -24.45 2.75 -24.15 2.8 -23.75 3.05 L-22.85 3.5 -20.8 2.35 Q-19.25 1.3 -18.55 1.1" fill="#d3d3d3" fill-rule="evenodd" stroke="none"/>
    <path d="M-28.0 -34.7 L-19.0 -37.0 -19.45 -33.5 -27.8 -30.35 -28.0 -34.7 M-12.5 -38.15 Q-5.45 -39.45 2.6 -37.5 L2.4 -34.7 Q-3.9 -36.1 -10.35 -35.35 L-13.15 -34.95 -12.5 -38.15 M10.15 -35.25 L13.45 -33.95 13.55 -31.2 9.6 -32.65 10.15 -35.25 M18.6 -31.95 L21.45 -30.75 20.6 -28.35 17.8 -29.55 18.6 -31.95 M54.9 -4.6 Q61.7 -0.5 65.2 6.85 L66.2 8.5 64.75 12.15 64.7 11.65 64.65 11.1 Q62.65 4.0 56.95 -0.55 L55.5 -1.85 54.9 -4.6 M11.85 -21.75 Q12.45 -21.15 12.45 -20.45 L12.05 -19.6 11.7 -18.8 13.2 -17.55 13.65 -16.7 Q13.65 -15.45 12.0 -15.45 11.65 -15.45 11.2 -15.75 L10.25 -16.15 Q9.55 -16.2 8.2 -15.05 6.75 -13.9 6.1 -13.75 5.7 -14.3 5.65 -14.6 L8.15 -16.85 8.1 -16.9 9.75 -18.9 Q9.75 -19.85 9.2 -21.6 L9.6 -21.75 Q11.15 -22.55 11.85 -21.75 M-11.3 -17.9 L-10.95 -17.95 -10.8 -18.05 -9.65 -18.15 -7.55 -18.2 Q-3.35 -17.9 -0.4 -15.4 2.75 -12.65 2.7 -8.7 2.7 -5.35 1.35 -4.5 -1.8 -2.55 -4.45 0.9 L-4.6 0.9 -4.6 0.85 -4.5 0.0 -4.55 -1.3 Q-5.3 -1.15 -5.6 -0.8 L-5.65 -0.65 -5.7 -0.1 -5.5 0.9 -6.15 0.9 -6.4 0.7 -8.4 0.7 -8.35 -0.95 -8.85 -1.5 Q-9.45 -0.95 -9.5 0.05 L-9.4 0.75 -10.05 0.75 -10.35 -2.55 -10.65 -5.95 -10.65 -6.0 -10.35 -6.2 Q-9.95 -6.6 -9.9 -7.65 L-9.95 -8.05 -10.1 -9.3 -10.45 -10.2 -10.45 -10.25 -10.7 -11.6 Q-11.35 -14.55 -11.4 -16.05 L-11.3 -17.9 M9.0 4.65 Q9.05 5.1 8.5 5.4 L6.95 6.65 7.25 7.4 7.65 8.35 Q7.55 9.15 7.0 9.65 6.25 10.55 4.4 9.4 L5.05 6.75 3.45 4.6 1.1 2.15 1.5 1.4 3.65 2.8 Q4.95 3.95 5.7 3.9 L6.6 3.55 7.35 3.25 Q9.0 3.3 9.0 4.65 M-27.65 -19.9 L-27.3 -20.15 -27.65 -21.0 -27.9 -21.9 Q-27.9 -22.7 -27.35 -23.2 -26.5 -24.1 -24.8 -23.0 L-25.35 -20.25 -24.3 -18.7 -23.85 -18.15 -23.6 -17.85 Q-24.35 -17.25 -25.1 -17.15 L-25.75 -17.35 -25.8 -17.4 -26.55 -18.15 -27.65 -19.9 M-3.55 -11.1 L-3.9 -11.1 Q-6.7 -11.5 -6.8 -8.8 -6.8 -7.8 -6.45 -7.0 -6.0 -5.35 -4.55 -5.4 -3.25 -5.3 -2.15 -6.3 -1.1 -7.1 -1.1 -8.05 -1.15 -9.3 -1.65 -9.95 -2.2 -10.9 -3.55 -11.1" fill="#ffffff" fill-rule="evenodd" stroke="none"/>
    <path d="M-62.95 24.6 L-63.65 23.5 Q-65.2 21.15 -65.4 18.05 L-64.7 8.05 -63.6 2.2 Q-61.65 -8.2 -51.95 -10.7 L-51.35 -10.05 -51.6 -6.85 Q-52.8 3.55 -46.8 12.45 -51.15 10.6 -52.35 5.15 -53.85 -2.1 -52.05 -9.6 -54.75 -8.4 -56.8 -5.9 -67.7 7.0 -62.95 24.6 M63.4 24.4 Q61.45 27.6 58.6 30.0 L57.1 31.2 58.9 28.9 Q62.0 24.35 62.75 18.8 L62.55 13.1 Q62.1 6.75 57.7 2.25 L52.45 -2.55 50.3 -2.6 49.5 -1.75 Q50.35 13.6 36.1 17.2 28.85 19.2 23.8 13.75 L22.3 11.8 Q32.2 20.25 42.9 11.75 L43.55 11.1 44.35 9.8 Q47.6 4.2 47.8 -2.3 48.65 -3.55 50.05 -3.75 L52.9 -4.1 55.5 -1.85 56.95 -0.55 Q62.65 4.0 64.65 11.1 L64.7 11.65 Q65.0 16.05 64.3 20.65 L63.8 22.9 63.4 24.4 M20.6 -28.35 L22.25 -27.5 Q28.55 -24.45 31.8 -18.5 L31.85 -17.8 30.4 -16.75 Q17.1 -6.9 20.6 8.65 17.75 2.35 20.55 -5.0 23.6 -13.2 30.8 -17.9 27.4 -21.1 23.95 -23.55 10.7 -33.2 -5.2 -33.15 -21.05 -33.15 -35.45 -26.4 L-39.9 -22.5 -35.05 -16.65 -33.2 -14.45 Q-27.05 -6.1 -29.95 3.6 L-30.1 4.1 Q-34.4 14.45 -45.0 12.85 L-46.4 12.4 -44.95 12.7 Q-32.8 13.35 -30.1 0.5 -30.05 -1.0 -30.25 -2.55 -31.55 -14.5 -40.4 -22.3 L-38.55 -24.3 Q-33.9 -28.75 -27.8 -30.35 L-19.45 -33.5 -13.15 -34.95 -10.35 -35.35 Q-3.9 -36.1 2.4 -34.7 L9.6 -32.65 13.55 -31.2 17.8 -29.55 20.6 -28.35" fill="#1d1d1d" fill-rule="evenodd" stroke="none"/>
    <path d="M29.0 34.15 L22.35 32.0 Q17.65 30.3 13.15 28.95 7.5 27.5 1.95 26.7 L-8.7 25.1 -11.95 25.0 -20.6 25.35 Q-25.65 26.0 -30.75 27.25 -35.0 28.0 -39.15 29.35 L-43.05 30.8 Q-46.55 32.3 -49.4 34.6 L-50.8 35.7 Q-52.2 36.7 -54.05 36.5 L-55.6 35.85 -58.8 34.2 Q-61.1 32.5 -62.7 30.4 -65.85 26.15 -67.35 21.3 -70.95 9.75 -66.75 -1.3 -63.6 -9.95 -55.45 -13.55 -52.2 -14.85 -48.4 -14.0 -47.3 -13.65 -46.5 -13.05 -48.1 -7.05 -47.85 -1.15 -47.8 1.15 -47.05 3.25 L-45.85 5.3 Q-45.3 6.2 -44.2 6.6 L-41.95 7.3 -41.55 7.4 -40.3 6.85 -38.4 5.4 Q-37.5 4.4 -36.95 3.1 -36.3 1.3 -36.1 -0.45 -35.85 -1.65 -36.0 -2.7 -36.2 -4.65 -37.0 -6.1 -38.75 -9.45 -41.1 -12.1 L-44.4 -16.05 Q-46.4 -18.55 -47.55 -21.65 -46.0 -24.7 -43.5 -27.1 L-41.8 -28.55 -34.2 -33.8 Q-30.65 -35.85 -26.9 -37.25 -23.1 -38.9 -19.05 -39.7 L-10.8 -41.3 Q-5.5 -41.6 -3.75 -41.25 L0.3 -40.35 Q5.0 -39.55 9.6 -38.2 13.05 -37.4 16.55 -36.2 L23.15 -33.25 Q27.35 -31.0 31.3 -28.05 35.65 -24.85 38.4 -19.95 L39.75 -16.85 Q33.25 -10.95 27.05 -4.5 25.3 -2.85 24.55 -0.55 24.0 1.1 24.05 2.85 24.1 4.25 24.65 5.5 25.05 6.95 26.1 8.25 L27.1 9.35 Q28.5 10.3 29.95 10.85 L32.8 11.55 Q34.45 11.5 35.8 10.8 37.6 9.8 38.6 7.95 40.65 4.05 40.2 -0.4 L39.6 -4.7 Q39.05 -6.45 38.75 -8.25 L39.05 -8.95 Q43.85 -9.9 48.65 -9.15 52.4 -8.3 55.6 -6.65 L59.75 -4.1 Q61.5 -2.85 62.95 -1.1 L65.6 2.1 66.65 3.95 67.95 8.2 68.75 13.05 Q69.2 16.0 68.6 19.35 67.95 22.85 66.2 26.05 63.65 30.75 59.7 34.2 L56.1 37.0 52.85 39.05 Q47.85 41.75 42.15 41.4 38.7 39.1 35.0 37.1 47.4 41.5 57.1 31.2 L58.6 30.0 Q61.45 27.6 63.4 24.4 L63.0 25.55 64.35 23.15 Q64.55 22.4 64.9 21.75 67.0 15.25 66.2 8.5 L65.2 6.85 Q61.7 -0.5 54.9 -4.6 L52.85 -5.7 Q48.4 -7.65 43.15 -7.65 L41.6 -7.65 42.4 0.05 Q42.6 2.8 41.3 4.9 32.25 20.8 22.15 4.8 L22.45 1.75 Q24.8 -11.55 37.25 -17.35 L35.2 -20.2 32.7 -22.7 Q27.6 -27.65 21.45 -30.75 L18.6 -31.95 13.45 -33.95 10.15 -35.25 2.6 -37.5 Q-5.45 -39.45 -12.5 -38.15 L-19.0 -37.0 -28.0 -34.7 -31.45 -32.8 Q-38.6 -28.6 -44.45 -22.55 L-45.4 -21.5 -43.35 -19.7 Q-40.5 -16.85 -38.35 -13.65 -35.05 -9.35 -35.1 -3.6 -35.15 10.9 -46.75 8.2 -50.9 -1.65 -48.3 -12.2 L-49.75 -12.65 -51.4 -12.6 Q-58.8 -11.45 -62.9 -4.95 L-65.6 0.4 Q-68.1 8.5 -66.15 16.95 L-65.5 19.35 -65.4 18.05 Q-65.2 21.15 -63.65 23.5 L-62.95 24.6 Q-60.35 30.15 -55.5 33.35 -40.55 28.5 -25.4 25.5 -9.4 22.4 6.5 25.45 18.15 27.75 28.2 33.75 L29.0 34.15 M-13.9 -8.3 Q-13.85 -9.75 -13.0 -10.0 L-12.35 -10.1 Q-10.95 -9.95 -11.0 -8.0 -10.95 -6.55 -12.45 -6.5 L-12.75 -6.6 Q-13.65 -6.7 -13.95 -7.55 L-13.9 -8.3 M-2.3 -8.75 Q-2.3 -6.55 -3.8 -6.5 -5.25 -6.6 -5.65 -7.5 L-5.85 -8.55 Q-5.85 -9.9 -4.3 -9.9 L-4.0 -9.95 Q-2.3 -9.9 -2.25 -8.85 L-2.3 -8.75" fill="#000000" fill-rule="evenodd" stroke="none"/>
    <path d="M-65.4 18.05 L-65.5 19.35 -66.15 16.95 Q-68.1 8.5 -65.6 0.4 L-64.7 8.05 -65.4 18.05 M-46.75 8.2 Q-35.15 10.9 -35.1 -3.6 -35.05 -9.35 -38.35 -13.65 L-36.15 -10.9 Q-31.85 -5.95 -30.1 0.5 -32.8 13.35 -44.95 12.7 L-46.4 12.4 -46.75 12.45 -46.75 8.2 M22.15 4.8 Q32.25 20.8 41.3 4.9 42.6 2.8 42.4 0.05 L43.55 11.1 42.9 11.75 Q32.2 20.25 22.3 11.8 L21.1 10.65 22.0 3.9 22.15 4.8 M9.1 -22.5 Q12.55 -25.5 13.2 -21.25 13.25 -19.2 13.85 -18.85 14.5 -18.55 14.5 -17.45 14.5 -15.65 14.0 -15.15 13.2 -14.4 10.5 -14.4 L8.45 -13.0 Q6.6 -11.7 5.9 -11.65 5.15 -11.65 4.25 -13.15 3.45 -14.45 3.8 -14.55 4.25 -14.65 5.9 -16.05 L6.75 -16.7 8.7 -18.6 Q8.2 -20.75 8.25 -21.7 L9.1 -22.5 M11.85 -21.75 Q11.15 -22.55 9.6 -21.75 L9.2 -21.6 Q9.75 -19.85 9.75 -18.9 L8.1 -16.9 8.15 -16.85 5.65 -14.6 Q5.7 -14.3 6.1 -13.75 6.75 -13.9 8.2 -15.05 9.55 -16.2 10.25 -16.15 L11.2 -15.75 Q11.65 -15.45 12.0 -15.45 13.65 -15.45 13.65 -16.7 L13.2 -17.55 11.7 -18.8 12.05 -19.6 12.45 -20.45 Q12.45 -21.15 11.85 -21.75 M-12.9 -19.65 Q-10.65 -20.6 -7.95 -20.4 -3.05 -20.05 0.45 -16.9 4.15 -13.5 4.05 -8.65 4.0 -4.95 2.8 -3.9 -0.2 -1.6 -4.0 2.3 L-6.5 2.3 -6.95 2.15 -12.0 1.9 -14.3 1.9 Q-15.75 -0.65 -18.3 -3.1 L-18.55 -3.4 Q-19.55 -4.3 -19.85 -5.55 -20.25 -6.3 -20.25 -7.2 -20.15 -14.3 -16.25 -17.7 -14.75 -19.05 -12.9 -19.65 M-10.05 0.75 L-9.4 0.75 -9.5 0.05 Q-9.45 -0.95 -8.85 -1.5 L-8.35 -0.95 -8.4 0.7 -6.4 0.7 -6.15 0.9 -5.5 0.9 -5.7 -0.1 -5.65 -0.65 -5.6 -0.8 Q-5.3 -1.15 -4.55 -1.3 L-4.5 0.0 -4.6 0.85 -4.6 0.9 -4.45 0.9 Q-1.8 -2.55 1.35 -4.5 2.7 -5.35 2.7 -8.7 2.75 -12.65 -0.4 -15.4 -3.35 -17.9 -7.55 -18.2 L-9.65 -18.15 -10.8 -18.05 -10.95 -17.95 -11.3 -17.9 -13.0 -17.2 -14.7 -16.2 Q-17.95 -13.5 -18.0 -8.15 -18.05 -6.8 -17.75 -5.85 L-17.15 -4.7 -16.75 -4.3 Q-14.85 -2.65 -13.85 0.55 L-12.45 0.65 -12.5 -0.05 -12.45 -0.65 Q-12.55 -1.0 -12.3 -1.15 L-12.0 -1.5 -11.55 0.6 -10.05 0.75 M-10.45 -10.25 L-10.45 -10.2 -10.1 -9.3 -9.95 -8.05 -9.9 -7.65 Q-9.95 -6.6 -10.35 -6.2 L-10.65 -6.0 -12.7 -5.7 -13.0 -5.65 Q-14.6 -5.7 -15.1 -7.1 L-15.45 -8.55 Q-15.3 -11.3 -12.95 -11.45 L-12.55 -11.45 Q-11.15 -11.45 -10.45 -10.25 M9.0 4.65 Q9.0 3.3 7.35 3.25 L6.6 3.55 5.7 3.9 Q4.95 3.95 3.65 2.8 L1.5 1.4 1.1 2.15 3.45 4.6 5.05 6.75 4.4 9.4 Q6.25 10.55 7.0 9.65 7.55 9.15 7.65 8.35 L7.25 7.4 6.95 6.65 8.5 5.4 Q9.05 5.1 9.0 4.65 M5.1 10.95 L3.4 9.5 Q3.45 8.55 4.05 6.35 L1.25 3.65 -0.7 2.1 Q-0.95 2.05 -0.25 0.7 0.65 -0.7 1.4 -0.8 2.05 -0.7 3.95 0.7 L5.95 2.2 Q8.55 2.2 9.4 3.05 9.9 3.55 9.9 5.3 9.85 6.5 9.2 6.8 8.4 7.15 8.4 9.15 8.2 10.5 7.7 11.05 L5.1 10.95 M-25.95 -24.9 L-23.85 -23.0 Q-23.85 -22.05 -24.4 -19.8 L-23.55 -18.95 -21.6 -17.2 -19.7 -15.8 Q-19.3 -15.65 -20.1 -14.35 L-21.05 -13.15 -21.8 -12.85 Q-22.2 -12.85 -23.15 -13.4 L-24.4 -14.3 -26.3 -15.85 Q-28.95 -15.9 -29.75 -16.55 -30.1 -16.95 -30.1 -18.2 L-30.2 -18.85 Q-30.2 -20.0 -29.5 -20.3 -28.9 -20.6 -28.75 -22.1 L-28.75 -22.75 Q-28.1 -26.0 -25.95 -24.9 M-23.6 -17.85 L-23.85 -18.15 -24.3 -18.7 -25.35 -20.25 -24.8 -23.0 Q-26.5 -24.1 -27.35 -23.2 -27.9 -22.7 -27.9 -21.9 L-27.65 -21.0 -27.3 -20.15 -27.65 -19.9 -28.85 -18.95 -29.4 -18.1 -29.4 -18.0 Q-29.3 -16.85 -27.75 -16.8 -27.4 -16.8 -26.9 -17.15 L-25.95 -17.4 -25.8 -17.4 -25.75 -17.35 -25.1 -17.15 -24.0 -16.35 Q-22.55 -15.2 -21.9 -15.05 L-21.5 -15.85 -23.6 -17.85 M-13.9 -8.3 L-13.95 -7.55 Q-13.65 -6.7 -12.75 -6.6 L-12.45 -6.5 Q-10.95 -6.55 -11.0 -8.0 -10.95 -9.95 -12.35 -10.1 L-13.0 -10.0 Q-13.85 -9.75 -13.9 -8.3 M-2.3 -8.75 L-2.25 -8.85 Q-2.3 -9.9 -4.0 -9.95 L-4.3 -9.9 Q-5.85 -9.9 -5.85 -8.55 L-5.65 -7.5 Q-5.25 -6.6 -3.8 -6.5 -2.3 -6.55 -2.3 -8.75 M-3.55 -11.1 Q-2.2 -10.9 -1.65 -9.95 -1.15 -9.3 -1.1 -8.05 -1.1 -7.1 -2.15 -6.3 -3.25 -5.3 -4.55 -5.4 -6.0 -5.35 -6.45 -7.0 -6.8 -7.8 -6.8 -8.8 -6.7 -11.5 -3.9 -11.1 L-3.55 -11.1 M-18.55 1.1 Q-19.25 1.3 -20.8 2.35 L-22.85 3.5 -23.75 3.05 Q-24.15 2.8 -24.45 2.75 -26.15 2.75 -26.15 4.05 -26.15 4.5 -25.75 4.9 L-24.25 6.2 -24.55 6.95 -24.85 7.95 -24.3 9.2 Q-23.5 10.1 -21.65 9.05 -22.25 7.3 -22.25 6.3 -22.3 6.0 -20.6 4.2 L-18.2 1.85 Q-18.2 1.6 -18.55 1.1 M-22.45 1.35 L-21.0 0.3 Q-19.0 -1.05 -18.45 -1.05 -17.65 -1.0 -16.75 0.55 -16.05 1.8 -16.45 1.85 L-18.35 3.4 -20.2 5.0 -21.25 5.9 -20.95 7.1 Q-20.7 8.5 -20.75 9.15 -24.85 13.45 -25.6 8.7 -25.6 6.55 -26.35 6.2 -27.05 5.9 -26.95 4.7 -27.0 2.95 -26.45 2.45 -25.85 1.95 -24.55 1.8 L-23.15 1.7 -22.45 1.35" fill="#959595" fill-rule="evenodd" stroke="none"/>
    <path d="M6.75 -16.7 L5.9 -16.05 Q4.25 -14.65 3.8 -14.55 3.45 -14.45 4.25 -13.15 5.15 -11.65 5.9 -11.65 6.6 -11.7 8.45 -13.0 L10.5 -14.4 Q13.2 -14.4 14.0 -15.15 14.5 -15.65 14.5 -17.45 14.5 -18.55 13.85 -18.85 13.25 -19.2 13.2 -21.25 12.55 -25.5 9.1 -22.5 L8.75 -22.85 8.35 -23.15 Q4.85 -20.45 6.45 -16.7 L6.75 -16.7 M-12.9 -19.65 Q-12.9 -23.7 -12.5 -27.65 L-10.4 -29.25 Q6.05 -35.4 17.55 -21.3 20.8 -17.55 17.45 -13.0 5.65 2.2 19.75 14.85 28.55 22.7 39.8 17.9 51.6 13.2 51.5 0.15 60.3 4.25 58.85 14.6 56.95 28.9 43.05 27.6 29.1 26.25 15.55 22.1 8.5 19.95 1.35 18.5 -5.1 17.15 -10.15 13.3 L-12.0 1.9 -6.95 2.15 -6.5 2.3 -4.0 2.3 Q-0.2 -1.6 2.8 -3.9 4.0 -4.95 4.05 -8.65 4.15 -13.5 0.45 -16.9 -3.05 -20.05 -7.95 -20.4 -10.65 -20.6 -12.9 -19.65 M-18.3 -3.1 L-18.7 -3.0 Q-19.35 -3.05 -19.7 -3.55 -20.25 -4.0 -20.3 -4.65 L-19.85 -5.55 Q-19.55 -4.3 -18.55 -3.4 L-18.3 -3.1 M52.6 8.9 Q51.8 8.85 51.3 9.35 50.85 9.8 50.9 10.55 50.8 11.3 51.3 11.85 51.8 12.4 52.55 12.4 53.2 12.35 53.6 11.95 54.15 11.4 54.2 10.65 54.25 9.9 53.7 9.45 53.25 8.9 52.6 8.9 M47.0 23.65 Q46.7 23.35 46.25 23.35 L45.4 23.65 Q45.1 23.95 45.1 24.5 45.0 25.0 45.3 25.3 45.65 25.75 46.15 25.65 L47.0 25.35 47.4 24.55 47.0 23.65 M58.3 13.25 Q57.9 12.9 57.4 12.9 56.9 12.9 56.6 13.25 56.25 13.6 56.25 14.1 56.15 14.6 56.65 14.95 56.8 15.25 57.35 15.25 L58.3 14.95 58.65 14.2 58.3 13.25 M32.5 23.0 L33.3 24.3 Q36.3 24.95 36.4 22.0 L36.3 21.0 Q33.9 20.15 32.8 22.35 L32.5 23.0 M7.7 11.05 Q8.2 10.5 8.4 9.15 8.4 7.15 9.2 6.8 9.85 6.5 9.9 5.3 9.9 3.55 9.4 3.05 8.55 2.2 5.95 2.2 L3.95 0.7 Q2.05 -0.7 1.4 -0.8 0.65 -0.7 -0.25 0.7 -0.95 2.05 -0.7 2.1 L1.25 3.65 4.05 6.35 Q3.45 8.55 3.4 9.5 L5.1 10.95 4.6 11.65 Q5.25 13.4 6.85 13.6 L8.45 13.45 8.55 12.75 7.85 11.2 7.7 11.05 M-23.55 -18.95 L-24.4 -19.8 Q-23.85 -22.05 -23.85 -23.0 L-25.95 -24.9 Q-22.85 -27.2 -18.2 -27.05 L-16.75 -24.4 Q-17.4 -23.05 -18.25 -22.15 -20.65 -20.05 -23.55 -18.95 M-28.75 -22.1 Q-28.9 -20.6 -29.5 -20.3 -30.2 -20.0 -30.2 -18.85 L-30.1 -18.2 -30.75 -18.4 -30.0 -20.15 -28.75 -22.1 M-23.15 -13.4 Q-22.2 -12.85 -21.8 -12.85 L-21.05 -13.15 -20.9 -12.75 Q-21.0 -12.3 -21.25 -11.95 -21.7 -11.6 -22.3 -11.65 -22.8 -11.7 -23.05 -11.95 -23.55 -12.35 -23.5 -12.8 L-23.15 -13.4 M-3.8 -23.85 Q-3.8 -23.3 -3.4 -22.95 -3.05 -22.5 -2.5 -22.5 -2.05 -22.5 -1.7 -22.85 -1.3 -23.2 -1.25 -23.75 -1.2 -24.35 -1.65 -24.75 -2.0 -25.1 -2.5 -25.1 -3.05 -25.15 -3.35 -24.75 L-3.8 -23.85 M-20.2 5.0 L-20.0 4.95 Q-19.45 4.95 -18.95 5.35 -18.65 5.75 -18.65 6.3 -18.7 6.85 -19.05 7.25 L-20.0 7.6 -20.85 7.25 -20.95 7.1 -21.25 5.9 -20.2 5.0 M-24.55 1.8 L-24.6 1.75 -24.9 0.95 Q-24.9 0.5 -24.55 0.15 L-23.7 -0.1 -22.7 0.15 Q-22.35 0.6 -22.35 1.1 L-22.45 1.35 -23.15 1.7 -24.55 1.8 M-56.7 15.45 L-55.75 15.85 Q-55.45 16.25 -55.4 16.8 -55.45 17.35 -55.85 17.65 -56.2 18.05 -56.75 17.95 -57.3 18.0 -57.55 17.65 L-58.0 16.7 Q-57.95 16.15 -57.5 15.8 -57.25 15.5 -56.7 15.45 M-59.5 4.1 Q-60.3 0.65 -56.55 0.3 -55.05 3.05 -56.55 5.65 L-57.2 6.15 -57.5 6.1 Q-58.95 5.5 -59.5 4.1" fill="#484848" fill-rule="evenodd" stroke="none"/>
    <path d="M-29.95 3.6 Q-27.05 -6.1 -33.2 -14.45 L-35.05 -16.65 -35.45 -26.4 Q-21.05 -33.15 -5.2 -33.15 10.7 -33.2 23.95 -23.55 27.4 -21.1 30.8 -17.9 23.6 -13.2 20.55 -5.0 17.75 2.35 20.6 8.65 L21.1 10.65 22.3 11.8 23.8 13.75 Q28.85 19.2 36.1 17.2 50.35 13.6 49.5 -1.75 L50.3 -2.6 52.45 -2.55 57.7 2.25 Q62.1 6.75 62.55 13.1 L62.75 18.8 Q55.05 34.4 39.1 30.95 25.25 27.8 11.4 25.4 -4.85 22.85 -19.25 15.55 -26.65 11.65 -29.95 3.6 M9.1 -22.5 L8.25 -21.7 Q8.2 -20.75 8.7 -18.6 L6.75 -16.7 6.45 -16.7 Q4.85 -20.45 8.35 -23.15 L8.75 -22.85 9.1 -22.5 M-12.0 1.9 L-10.15 13.3 Q-5.1 17.15 1.35 18.5 8.5 19.95 15.55 22.1 29.1 26.25 43.05 27.6 56.95 28.9 58.85 14.6 60.3 4.25 51.5 0.15 51.6 13.2 39.8 17.9 28.55 22.7 19.75 14.85 5.65 2.2 17.45 -13.0 20.8 -17.55 17.55 -21.3 6.05 -35.4 -10.4 -29.25 L-12.5 -27.65 Q-12.9 -23.7 -12.9 -19.65 -14.75 -19.05 -16.25 -17.7 -20.15 -14.3 -20.25 -7.2 -20.25 -6.3 -19.85 -5.55 L-20.3 -4.65 Q-20.25 -4.0 -19.7 -3.55 -19.35 -3.05 -18.7 -3.0 L-18.3 -3.1 Q-15.75 -0.65 -14.3 1.9 L-12.0 1.9 M52.6 8.9 Q53.25 8.9 53.7 9.45 54.25 9.9 54.2 10.65 54.15 11.4 53.6 11.95 53.2 12.35 52.55 12.4 51.8 12.4 51.3 11.85 50.8 11.3 50.9 10.55 50.85 9.8 51.3 9.35 51.8 8.85 52.6 8.9 M58.3 13.25 L58.65 14.2 58.3 14.95 57.35 15.25 Q56.8 15.25 56.65 14.95 56.15 14.6 56.25 14.1 56.25 13.6 56.6 13.25 56.9 12.9 57.4 12.9 57.9 12.9 58.3 13.25 M47.0 23.65 L47.4 24.55 47.0 25.35 46.15 25.65 Q45.65 25.75 45.3 25.3 45.0 25.0 45.1 24.5 45.1 23.95 45.4 23.65 L46.25 23.35 Q46.7 23.35 47.0 23.65 M32.5 23.0 L32.8 22.35 Q33.9 20.15 36.3 21.0 L36.4 22.0 Q36.3 24.95 33.3 24.3 L32.5 23.0 M5.1 10.95 L7.7 11.05 7.85 11.2 8.55 12.75 8.45 13.45 6.85 13.6 Q5.25 13.4 4.6 11.65 L5.1 10.95 M-55.5 -5.45 L-54.55 -5.25 -54.6 -2.5 Q-55.05 15.15 -39.8 17.85 -45.3 23.4 -52.95 24.05 -55.45 23.85 -56.5 22.45 -67.05 8.85 -55.5 -5.45 M-23.55 -18.95 Q-20.65 -20.05 -18.25 -22.15 -17.4 -23.05 -16.75 -24.4 L-18.2 -27.05 Q-22.85 -27.2 -25.95 -24.9 -28.1 -26.0 -28.75 -22.75 L-28.75 -22.1 -30.0 -20.15 -30.75 -18.4 -30.1 -18.2 Q-30.1 -16.95 -29.75 -16.55 -28.95 -15.9 -26.3 -15.85 L-24.4 -14.3 -23.15 -13.4 -23.5 -12.8 Q-23.55 -12.35 -23.05 -11.95 -22.8 -11.7 -22.3 -11.65 -21.7 -11.6 -21.25 -11.95 -21.0 -12.3 -20.9 -12.75 L-21.05 -13.15 -20.1 -14.35 Q-19.3 -15.65 -19.7 -15.8 L-21.6 -17.2 -23.55 -18.95 M-3.8 -23.85 L-3.35 -24.75 Q-3.05 -25.15 -2.5 -25.1 -2.0 -25.1 -1.65 -24.75 -1.2 -24.35 -1.25 -23.75 -1.3 -23.2 -1.7 -22.85 -2.05 -22.5 -2.5 -22.5 -3.05 -22.5 -3.4 -22.95 -3.8 -23.3 -3.8 -23.85 M-20.2 5.0 L-18.35 3.4 -16.45 1.85 Q-16.05 1.8 -16.75 0.55 -17.65 -1.0 -18.45 -1.05 -19.0 -1.05 -21.0 0.3 L-22.45 1.35 -22.35 1.1 Q-22.35 0.6 -22.7 0.15 L-23.7 -0.1 -24.55 0.15 Q-24.9 0.5 -24.9 0.95 L-24.6 1.75 -24.55 1.8 Q-25.85 1.95 -26.45 2.45 -27.0 2.95 -26.95 4.7 -27.05 5.9 -26.35 6.2 -25.6 6.55 -25.6 8.7 -24.85 13.45 -20.75 9.15 -20.7 8.5 -20.95 7.1 L-20.85 7.25 -20.0 7.6 -19.05 7.25 Q-18.7 6.85 -18.65 6.3 -18.65 5.75 -18.95 5.35 -19.45 4.95 -20.0 4.95 L-20.2 5.0 M-59.5 4.1 Q-58.95 5.5 -57.5 6.1 L-57.2 6.15 -56.55 5.65 Q-55.05 3.05 -56.55 0.3 -60.3 0.65 -59.5 4.1 M-56.7 15.45 Q-57.25 15.5 -57.5 15.8 -57.95 16.15 -58.0 16.7 L-57.55 17.65 Q-57.3 18.0 -56.75 17.95 -56.2 18.05 -55.85 17.65 -55.45 17.35 -55.4 16.8 -55.45 16.25 -55.75 15.85 L-56.7 15.45" fill="#3b3b3b" fill-rule="evenodd" stroke="none"/>
    <path d="M-65.6 0.4 L-62.9 -4.95 -63.6 2.2 -64.7 8.05 -65.6 0.4 M-49.75 -12.65 L-48.3 -12.2 Q-50.9 -1.65 -46.75 8.2 L-46.75 12.45 -46.8 12.45 Q-52.8 3.55 -51.6 -6.85 L-51.35 -10.05 -49.75 -12.65 M-38.35 -13.65 Q-40.5 -16.85 -43.35 -19.7 L-45.4 -21.5 -44.45 -22.55 -40.4 -22.3 Q-31.55 -14.5 -30.25 -2.55 -30.05 -1.0 -30.1 0.5 -31.85 -5.95 -36.15 -10.9 L-38.35 -13.65 M35.2 -20.2 L37.25 -17.35 Q24.8 -11.55 22.45 1.75 L22.15 4.8 22.0 3.9 21.1 10.65 20.6 8.65 Q17.1 -6.9 30.4 -16.75 L31.85 -17.8 31.8 -18.5 35.2 -20.2 M42.4 0.05 L41.6 -7.65 43.15 -7.65 47.8 -2.3 Q47.6 4.2 44.35 9.8 L43.55 11.1 42.4 0.05" fill="#adadad" fill-rule="evenodd" stroke="none"/>
    <path d="M64.35 23.15 L63.0 25.55 63.4 24.4 63.8 22.9 64.35 23.15" fill="#666666" fill-rule="evenodd" stroke="none"/>
    <path d="M29.0 34.15 L28.2 33.75 Q18.15 27.75 6.5 25.45 -9.4 22.4 -25.4 25.5 -40.55 28.5 -55.5 33.35 -60.35 30.15 -62.95 24.6 -67.7 7.0 -56.8 -5.9 -54.75 -8.4 -52.05 -9.6 -53.85 -2.1 -52.35 5.15 -51.15 10.6 -46.8 12.45 L-46.75 12.45 -46.4 12.4 -45.0 12.85 Q-34.4 14.45 -30.1 4.1 L-29.95 3.6 Q-26.65 11.65 -19.25 15.55 -4.85 22.85 11.4 25.4 25.25 27.8 39.1 30.95 55.05 34.4 62.75 18.8 62.0 24.35 58.9 28.9 L57.1 31.2 Q47.4 41.5 35.0 37.1 L31.7 35.45 29.1 34.2 29.0 34.15 M-35.05 -16.65 L-39.9 -22.5 -35.45 -26.4 -35.05 -16.65 M-55.5 -5.45 Q-67.05 8.85 -56.5 22.45 -55.45 23.85 -52.95 24.05 -45.3 23.4 -39.8 17.85 -55.05 15.15 -54.6 -2.5 L-54.55 -5.25 -55.5 -5.45" fill="#2e2e2e" fill-rule="evenodd" stroke="none"/>
  </g>
</svg>
