<?xml version="1.0" encoding="UTF-8" standalone="no"?>
<svg xmlns:ffdec="https://www.free-decompiler.com/flash" xmlns:xlink="http://www.w3.org/1999/xlink" ffdec:objectType="shape" height="112.55px" width="104.15px" xmlns="http://www.w3.org/2000/svg">
  <g transform="matrix(1.0, 0.0, 0.0, 1.0, 52.05, 56.3)">
    <path d="M18.8 -49.45 L16.55 -50.75 Q7.75 -53.85 3.5 -54.8 L0.45 -55.25 -1.8 -55.25 -4.85 -54.95 -11.5 -54.0 -14.65 -53.5 -18.4 -52.65 -25.35 -50.6 -29.5 -48.75 Q-36.95 -46.3 -37.9 -42.35 -38.7 -41.95 -39.55 -41.6 L-39.65 -41.55 -22.25 -42.05 -20.05 -42.0 -18.95 -41.85 -17.05 -41.6 Q-10.0 -40.6 -3.1 -38.9 L-1.8 -38.55 -1.4 -38.45 -0.85 -38.3 -0.55 -38.25 -0.45 -38.2 0.15 -38.05 3.7 -37.0 3.95 -36.95 4.75 -36.7 9.85 -34.8 9.9 -34.75 10.45 -34.5 19.8 -29.3 21.75 -27.85 21.8 -27.8 24.15 -25.9 24.9 -25.25 25.1 -25.1 25.2 -25.0 25.3 -24.9 25.75 -24.5 27.4 -23.0 Q32.0 -18.7 36.2 -14.0 L36.75 -13.35 36.95 -13.1 37.3 -12.55 Q40.1 -8.3 38.15 -3.0 L38.05 -2.8 37.95 -2.45 37.8 -2.15 37.1 0.35 Q38.45 1.2 39.6 2.2 L41.4 4.0 41.7 4.35 41.75 4.4 41.95 4.65 43.55 7.1 Q46.05 11.9 45.15 18.5 44.2 25.8 41.55 32.5 L41.8 32.05 41.85 32.0 41.85 31.95 46.6 23.1 46.65 23.05 46.95 22.45 48.3 19.9 Q50.75 8.2 49.2 -3.8 L49.15 -4.2 48.8 -6.6 48.65 -7.45 48.65 -7.5 48.6 -7.6 Q47.8 -11.9 46.55 -15.95 L46.45 -16.25 46.15 -17.25 46.2 -17.15 45.65 -18.7 45.65 -18.75 45.65 -18.85 45.6 -18.9 45.6 -18.95 44.4 -23.1 43.05 -27.15 41.65 -31.0 41.4 -31.65 41.1 -32.3 39.45 -36.15 Q38.55 -38.15 36.1 -39.45 L31.55 -41.6 31.2 -41.75 29.85 -42.35 22.2 -47.45 18.8 -49.45 M16.2 -17.9 L16.15 -17.95 15.9 -18.15 13.45 -19.8 12.7 -20.3 12.2 -20.6 4.55 -24.9 3.35 -25.5 3.05 -25.65 1.55 -26.35 1.0 -26.55 0.85 -26.65 -10.55 -30.55 -10.65 -30.6 -21.7 -32.45 -21.75 -32.45 -24.5 -32.65 -24.6 -32.65 -27.8 -32.65 -31.0 -32.4 -31.15 -32.35 -34.6 -31.7 -35.75 -31.4 -35.9 -31.35 -36.15 -31.3 -36.2 -31.3 -36.3 -31.25 -36.35 -31.25 -36.5 -31.2 -36.6 -31.2 -36.7 -31.15 -36.9 -31.05 -44.7 -27.3 -45.15 -27.0 -45.75 -26.55 -45.75 -26.6 -47.25 -25.5 -47.9 -24.75 -48.05 -24.6 -48.05 -24.55 Q-49.25 -23.0 -50.35 -24.85 -54.15 -30.8 -49.4 -36.45 -47.55 -38.65 -45.15 -39.75 L-45.05 -39.8 Q-44.1 -40.25 -43.3 -41.5 L-43.25 -41.6 -42.35 -42.35 Q-38.5 -46.75 -27.9 -50.6 L-21.7 -52.65 -18.4 -53.6 Q-7.45 -56.65 3.5 -56.25 10.2 -55.5 15.6 -53.35 18.15 -52.35 21.4 -50.6 26.95 -47.6 34.55 -42.35 L36.25 -41.6 38.6 -40.1 39.95 -38.75 40.1 -38.6 40.15 -38.5 40.2 -38.45 43.25 -31.15 43.75 -29.6 43.7 -29.6 43.75 -29.55 49.45 -11.45 50.5 -7.9 50.5 -7.85 50.7 -7.1 50.7 -6.9 51.65 -1.9 51.75 -0.9 51.95 1.1 51.95 1.4 52.0 1.75 Q52.45 9.35 50.8 16.6 L50.6 17.55 49.55 21.1 49.1 22.35 Q46.9 28.35 43.7 33.75 45.5 34.65 46.75 36.25 L47.3 37.1 Q48.7 39.4 49.05 42.15 49.25 43.7 49.05 45.3 L48.6 50.05 48.3 50.8 47.2 53.0 Q47.55 55.25 45.15 55.7 42.2 56.45 39.45 55.3 38.5 55.95 37.35 56.1 33.65 56.85 31.75 53.7 L30.7 53.7 Q27.6 50.25 26.1 45.85 25.9 45.2 26.1 44.65 L26.35 43.65 Q26.8 40.85 28.95 38.8 L29.65 35.6 Q31.2 33.65 33.75 33.3 L36.7 32.6 39.5 32.3 40.45 29.6 Q43.85 21.0 42.55 12.0 L42.4 11.15 Q42.05 9.3 41.3 7.8 L40.05 5.9 Q38.6 4.15 36.3 3.05 L36.45 2.65 35.2 4.95 Q31.05 4.8 29.55 3.55 L30.4 -0.9 30.3 -1.1 Q29.75 -2.8 28.2 -5.45 L22.1 -13.15 21.0 -14.1 21.0 -14.15 20.7 -14.4 17.85 -16.7 17.55 -16.9 16.7 -17.5 16.65 -17.6 16.4 -17.8 16.2 -17.9 M25.85 -22.7 L22.15 -25.8 21.6 -26.25 20.85 -26.8 20.05 -27.4 16.65 -29.8 16.35 -30.0 Q13.4 -31.95 10.35 -33.6 L7.45 -35.0 Q3.9 -36.65 0.2 -37.75 L-0.45 -37.95 -1.4 -38.2 -1.65 -38.25 -3.45 -38.7 -5.3 -39.1 -7.75 -39.5 -10.45 -39.85 -19.8 -40.4 -26.75 -40.55 -27.5 -40.55 -28.55 -40.55 -28.95 -40.55 -31.05 -40.55 -32.75 -40.6 -34.0 -40.6 -38.1 -39.9 -39.5 -39.7 -39.65 -39.7 -40.15 -39.6 -40.3 -39.55 -40.4 -39.55 -40.6 -39.5 -43.05 -38.7 Q-44.2 -38.2 -45.15 -37.5 L-46.45 -36.45 -47.1 -35.75 Q-50.2 -34.75 -49.95 -29.1 L-50.0 -28.8 -50.1 -28.1 Q-50.25 -26.95 -49.5 -25.9 L-49.2 -26.15 -48.75 -26.5 -48.0 -27.1 -46.15 -28.4 -45.7 -28.7 -45.15 -29.0 -43.05 -30.15 Q-39.6 -31.8 -35.7 -32.55 L-31.7 -33.05 -31.15 -33.1 -30.6 -33.15 -30.4 -33.15 -28.95 -33.3 -27.75 -33.35 -21.9 -33.4 Q-15.9 -33.2 -9.85 -31.9 L-9.35 -31.8 -5.15 -30.8 -4.0 -30.5 -2.85 -30.15 -0.45 -29.3 -0.35 -29.3 1.6 -28.55 1.6 -28.6 3.1 -27.95 12.95 -22.65 13.65 -22.2 16.65 -20.1 18.85 -18.4 21.45 -16.3 22.05 -15.8 22.5 -15.4 24.6 -13.5 Q27.2 -11.0 29.15 -8.05 L29.7 -7.15 31.75 -3.15 32.65 -0.7 32.7 -0.6 34.0 3.5 Q36.15 -0.4 37.05 -4.75 37.6 -7.5 37.45 -10.3 L37.05 -10.8 36.15 -11.95 33.8 -14.85 33.1 -15.55 29.05 -19.7 25.85 -22.7 M42.75 35.35 L42.6 35.2 Q41.8 34.45 40.7 34.35 L39.8 34.15 39.05 34.0 37.75 34.05 36.9 34.75 34.2 34.7 Q32.9 34.65 31.95 35.45 33.25 35.65 32.7 36.25 L30.6 37.3 30.35 37.9 31.1 38.95 28.95 40.8 28.5 41.7 27.45 45.2 Q28.35 46.05 28.65 47.25 L29.0 48.2 Q30.7 51.55 33.75 53.8 34.5 54.35 35.2 54.55 L38.05 54.2 Q38.85 54.15 39.35 53.5 L41.1 54.45 45.0 54.2 47.0 49.75 47.1 49.05 46.7 46.95 47.7 43.0 46.7 41.2 Q47.15 40.25 46.8 39.25 46.6 38.5 45.85 37.9 L42.75 35.35" fill="#6a4b02" fill-rule="evenodd" stroke="none"/>
    <path d="M16.55 -50.75 L16.35 -50.6 Q15.05 -49.75 12.6 -49.45 L8.7 -49.1 6.0 -49.2 Q1.3 -49.2 -3.35 -47.6 L-11.6 -43.95 -6.0 -50.6 -4.8 -52.05 -1.8 -55.25 0.45 -55.25 3.5 -54.8 Q7.75 -53.85 16.55 -50.75 M15.75 -47.9 L18.8 -49.45 22.2 -47.45 19.5 -46.5 15.75 -47.9 M31.2 -41.75 L31.55 -41.6 36.1 -39.45 Q38.55 -38.15 39.45 -36.15 L41.1 -32.3 41.4 -31.65 41.65 -31.0 39.05 -32.45 37.65 -33.1 34.55 -36.65 Q31.75 -39.6 27.95 -41.6 L27.55 -41.8 31.2 -41.75 M36.2 -14.0 Q32.0 -18.7 27.4 -23.0 29.3 -22.3 30.4 -20.5 L32.25 -21.85 32.55 -21.5 Q36.5 -21.7 38.75 -18.4 41.3 -14.6 43.45 -10.35 L43.6 -10.05 43.7 -9.8 43.95 -9.35 44.05 -9.05 44.55 -7.9 44.65 -7.65 48.25 7.7 48.25 8.2 48.25 8.4 Q48.25 15.05 46.0 21.5 L45.7 21.15 Q48.8 10.0 43.8 -0.25 43.2 -8.85 37.6 -14.35 L36.95 -14.75 36.85 -13.5 36.45 -13.85 36.3 -13.95 36.2 -14.0 M25.75 -24.5 L25.3 -24.9 25.2 -25.0 25.1 -25.1 24.9 -25.25 Q25.4 -26.4 26.2 -27.25 L26.4 -27.1 27.75 -26.05 25.75 -24.5 M21.8 -27.8 L21.75 -27.85 21.8 -27.95 21.8 -27.8 M19.8 -29.3 L10.45 -34.5 9.9 -34.75 10.0 -34.75 11.0 -34.35 11.95 -35.2 18.0 -32.15 21.1 -30.4 19.8 -29.3 M4.75 -36.7 L3.95 -36.95 3.7 -37.0 3.6 -37.15 4.7 -38.35 6.1 -37.8 4.8 -36.75 4.75 -36.7 M-3.1 -38.9 Q-10.0 -40.6 -17.05 -41.6 L-18.95 -41.85 -18.55 -42.35 -18.15 -43.2 -18.15 -43.3 -10.2 -49.2 -16.45 -42.35 -17.25 -41.8 -14.1 -41.4 -13.9 -41.6 -12.95 -42.35 -11.6 -43.95 -7.55 -42.35 -4.85 -41.6 -1.65 -40.6 -2.25 -39.75 Q-2.6 -39.2 -3.1 -38.9 M29.05 -19.7 L33.1 -15.55 32.75 -13.7 32.65 -13.6 Q30.55 -11.1 29.15 -8.05 27.2 -11.0 24.6 -13.5 L22.5 -15.4 22.05 -15.8 23.25 -17.9 25.95 -15.0 26.25 -14.65 29.05 -19.7 M18.85 -18.4 L16.65 -20.1 17.8 -22.4 20.0 -20.75 18.85 -18.4 M13.65 -22.2 L12.95 -22.65 3.1 -27.95 1.6 -28.6 1.95 -29.55 7.7 -27.6 Q11.35 -26.25 14.6 -24.4 L13.65 -22.2 M-2.85 -30.15 L-4.0 -30.5 -5.15 -30.8 -4.85 -31.65 -2.5 -30.95 -2.85 -30.15 M-9.35 -31.8 L-9.85 -31.9 Q-15.9 -33.2 -21.9 -33.4 L-21.8 -35.15 Q-16.9 -34.7 -12.05 -33.5 L-9.1 -32.75 -9.35 -31.8 M-27.75 -33.35 L-28.95 -33.3 -30.4 -33.15 -31.15 -33.25 -30.85 -35.4 -28.95 -35.45 -27.65 -35.45 -27.75 -33.65 -27.75 -33.35 M-38.1 -39.9 L-34.0 -40.6 -32.75 -40.6 -33.65 -40.35 Q-35.2 -37.2 -35.6 -33.8 L-39.3 -33.8 -38.1 -39.9 M37.35 -13.1 L37.3 -13.15 37.35 -13.15 37.35 -13.1 M41.95 36.9 L41.85 37.05 41.5 37.2 41.45 37.2 44.2 38.45 46.2 43.7 Q46.5 46.2 44.85 48.25 43.45 49.95 41.55 50.4 L39.6 50.1 37.75 49.95 35.65 49.2 34.95 48.5 34.15 47.25 32.95 46.05 Q32.1 45.45 32.2 44.5 L33.0 39.25 Q33.15 38.6 33.6 38.05 L34.5 37.05 Q35.3 36.15 36.75 36.2 L38.55 36.15 39.2 36.05 Q40.75 35.9 41.8 36.8 L41.95 36.9 M41.95 39.7 Q41.55 39.7 41.25 40.0 40.95 40.3 40.95 40.7 40.95 41.1 41.25 41.4 41.55 41.7 41.95 41.7 L42.65 41.4 42.95 40.7 42.65 40.0 Q42.35 39.7 41.95 39.7 M41.8 41.9 Q40.8 41.9 40.1 42.6 39.35 43.3 39.35 44.3 39.35 45.3 40.1 46.0 40.8 46.7 41.8 46.7 42.8 46.7 43.55 46.0 44.25 45.3 44.25 44.3 44.25 43.3 43.55 42.6 42.8 41.9 41.8 41.9 M36.1 41.25 Q35.5 41.25 35.1 41.7 34.65 42.1 34.65 42.7 34.65 43.3 35.1 43.75 35.5 44.15 36.1 44.15 36.7 44.15 37.15 43.75 37.55 43.3 37.55 42.7 37.55 42.1 37.15 41.7 36.7 41.25 36.1 41.25 M39.95 38.25 L37.85 38.2 37.7 39.0 38.05 39.4 38.15 39.45 Q39.3 39.8 39.9 38.85 L39.95 38.25 M36.5 47.1 L36.75 47.7 37.35 47.95 37.95 47.7 38.2 47.1 37.95 46.5 Q37.7 46.25 37.35 46.25 37.0 46.25 36.75 46.5 36.5 46.75 36.5 47.1" fill="#ecce00" fill-rule="evenodd" stroke="none"/>
    <path d="M8.7 -49.1 L12.6 -49.45 Q15.05 -49.75 16.35 -50.6 L16.55 -50.75 18.8 -49.45 15.75 -47.9 8.7 -49.1 M-1.8 -55.25 L-4.8 -52.05 -6.0 -50.6 -11.6 -43.95 -12.95 -42.35 -13.9 -41.6 -14.1 -41.4 -17.25 -41.8 -16.45 -42.35 -10.2 -49.2 -4.85 -54.95 -1.8 -55.25 M-1.65 -40.6 L-0.45 -40.2 4.7 -38.35 3.6 -37.15 3.7 -37.0 0.15 -38.05 -0.45 -38.2 -0.55 -38.25 -0.85 -38.3 -1.4 -38.45 -1.8 -38.55 -3.1 -38.9 Q-2.6 -39.2 -2.25 -39.75 L-1.65 -40.6 M19.5 -46.5 L22.2 -47.45 29.85 -42.35 31.2 -41.75 27.55 -41.8 Q26.9 -42.1 26.4 -42.35 L23.6 -44.35 Q21.35 -45.9 19.45 -46.5 L19.5 -46.5 M41.65 -31.0 L43.05 -27.15 44.4 -23.1 45.6 -18.95 45.6 -18.9 Q42.6 -26.85 37.65 -33.1 L39.05 -32.45 41.65 -31.0 M48.3 19.9 L46.95 22.45 46.0 21.5 Q48.25 15.05 48.25 8.4 L48.3 10.4 48.3 19.9 M27.4 -23.0 L25.75 -24.5 27.75 -26.05 32.25 -21.85 30.4 -20.5 Q29.3 -22.3 27.4 -23.0 M24.9 -25.25 L24.15 -25.9 21.8 -27.8 21.8 -27.95 21.75 -27.85 19.8 -29.3 21.1 -30.4 25.2 -27.9 26.2 -27.25 Q25.4 -26.4 24.9 -25.25 M9.9 -34.75 L9.85 -34.8 4.75 -36.7 4.8 -36.75 6.1 -37.8 11.95 -35.2 11.0 -34.35 10.0 -34.75 9.9 -34.75 M-18.95 -41.85 L-20.05 -42.0 -19.3 -42.35 -18.15 -43.2 -18.55 -42.35 -18.95 -41.85 M33.1 -15.55 L33.8 -14.85 32.75 -13.7 33.1 -15.55 M16.65 -20.1 L13.65 -22.2 14.6 -24.4 17.8 -22.4 16.65 -20.1 M1.6 -28.6 L1.6 -28.55 -0.35 -29.3 -0.45 -29.3 -2.85 -30.15 -2.5 -30.95 -0.45 -30.3 1.95 -29.55 1.6 -28.6 M-5.15 -30.8 L-9.35 -31.8 -9.1 -32.75 -4.85 -31.65 -5.15 -30.8 M-21.9 -33.4 L-27.75 -33.35 -27.75 -33.65 -27.65 -35.45 -21.8 -35.15 -21.9 -33.4 M-32.75 -40.6 L-31.05 -40.55 -31.85 -35.35 -30.85 -35.4 -31.15 -33.25 -35.55 -33.8 -35.6 -33.8 Q-35.2 -37.2 -33.65 -40.35 L-32.75 -40.6 M36.85 -13.5 L36.95 -14.75 37.6 -14.35 Q43.2 -8.85 43.8 -0.25 L41.45 -4.4 41.95 -4.95 41.75 -6.0 Q40.7 -10.25 37.35 -13.1 L37.35 -13.15 37.3 -13.15 36.85 -13.5" fill="#dfdfdf" fill-rule="evenodd" stroke="none"/>
    <path d="M8.7 -49.1 L15.75 -47.9 9.55 -42.35 8.3 -41.6 4.7 -38.35 -0.45 -40.2 -1.65 -40.6 -0.9 -41.6 -0.2 -42.35 Q1.05 -44.35 3.0 -46.1 5.85 -48.65 8.7 -49.1 M45.6 -18.9 L45.65 -18.85 45.65 -18.75 45.65 -18.7 46.2 -17.15 46.15 -17.25 44.8 -20.2 Q41.55 -27.4 34.3 -29.7 L31.8 -29.8 Q28.15 -29.45 26.2 -27.25 L25.2 -27.9 21.1 -30.4 Q26.8 -34.9 34.35 -34.0 L37.65 -33.1 Q42.6 -26.85 45.6 -18.9 M48.6 -7.6 L48.65 -7.5 48.65 -7.45 48.65 -7.4 48.8 -6.6 49.15 -4.2 49.2 -3.8 Q50.75 8.2 48.3 19.9 L48.3 10.4 48.25 8.4 48.25 8.2 48.25 7.7 47.95 3.4 47.05 -3.95 Q45.45 -15.45 37.4 -22.2 34.6 -23.05 32.25 -21.85 L27.75 -26.05 30.05 -27.9 34.4 -27.55 Q35.5 -27.55 36.15 -26.8 44.0 -18.25 48.6 -7.6 M27.55 -41.8 L25.35 -41.6 Q22.3 -41.2 19.2 -40.1 16.0 -38.8 13.45 -36.6 L11.95 -35.2 6.1 -37.8 10.95 -41.6 12.4 -42.35 13.95 -43.35 19.45 -46.5 Q21.35 -45.9 23.6 -44.35 L26.4 -42.35 Q26.9 -42.1 27.55 -41.8 M21.6 -26.25 L22.15 -25.8 25.85 -22.7 25.65 -22.45 23.25 -17.9 22.05 -15.8 21.45 -16.3 18.85 -18.4 20.0 -20.75 Q21.1 -23.5 21.6 -26.25 M-31.05 -40.55 L-28.95 -40.55 -28.55 -40.55 -28.95 -39.95 Q-30.35 -37.8 -30.85 -35.4 L-31.85 -35.35 -31.05 -40.55 M-26.75 -40.55 L-19.8 -40.4 -21.55 -36.1 -21.8 -35.15 -27.65 -35.45 Q-27.45 -38.0 -26.75 -40.55 M-7.75 -39.5 L-5.3 -39.1 -5.15 -38.7 Q-4.2 -38.45 -3.45 -38.7 L-1.65 -38.25 -2.5 -37.05 -4.85 -31.65 -9.1 -32.75 Q-8.15 -36.2 -7.75 -39.5 M0.2 -37.75 Q3.9 -36.65 7.45 -35.0 L6.75 -34.9 Q4.0 -34.2 2.65 -31.25 L1.95 -29.55 -0.45 -30.3 -2.5 -30.95 0.05 -36.85 0.15 -37.4 0.2 -37.75 M16.35 -30.0 L16.65 -29.8 20.05 -27.4 20.85 -26.8 Q19.05 -24.7 17.8 -22.4 L14.6 -24.4 Q15.65 -27.15 16.35 -30.0" fill="#ffffff" fill-rule="evenodd" stroke="none"/>
    <path d="M-11.6 -43.95 L-3.35 -47.6 Q1.3 -49.2 6.0 -49.2 L8.7 -49.1 Q5.85 -48.65 3.0 -46.1 1.05 -44.35 -0.2 -42.35 L-0.9 -41.6 -1.65 -40.6 -4.85 -41.6 -7.55 -42.35 -11.6 -43.95 M4.7 -38.35 L8.3 -41.6 9.55 -42.35 15.75 -47.9 19.5 -46.5 19.45 -46.5 13.95 -43.35 12.4 -42.35 10.95 -41.6 6.1 -37.8 4.7 -38.35 M46.15 -17.25 L46.45 -16.25 46.55 -15.95 Q47.8 -11.9 48.6 -7.6 44.0 -18.25 36.15 -26.8 35.5 -27.55 34.4 -27.55 L30.05 -27.9 27.75 -26.05 26.4 -27.1 26.2 -27.25 Q28.15 -29.45 31.8 -29.8 L34.3 -29.7 Q41.55 -27.4 44.8 -20.2 L46.15 -17.25 M48.65 -7.45 L48.8 -6.6 48.65 -7.4 48.65 -7.45 M27.55 -41.8 L27.95 -41.6 Q31.75 -39.6 34.55 -36.65 L37.65 -33.1 34.35 -34.0 Q26.8 -34.9 21.1 -30.4 L18.0 -32.15 11.95 -35.2 13.45 -36.6 Q16.0 -38.8 19.2 -40.1 22.3 -41.2 25.35 -41.6 L27.55 -41.8 M25.85 -22.7 L29.05 -19.7 26.25 -14.65 25.95 -15.0 23.25 -17.9 25.65 -22.45 25.85 -22.7 M-28.55 -40.55 L-27.5 -40.55 -26.75 -40.55 Q-27.45 -38.0 -27.65 -35.45 L-28.95 -35.45 -30.85 -35.4 Q-30.35 -37.8 -28.95 -39.95 L-28.55 -40.55 M-19.8 -40.4 L-10.45 -39.85 -7.75 -39.5 Q-8.15 -36.2 -9.1 -32.75 L-12.05 -33.5 Q-16.9 -34.7 -21.8 -35.15 L-21.55 -36.1 -19.8 -40.4 M-5.3 -39.1 L-3.45 -38.7 Q-4.2 -38.45 -5.15 -38.7 L-5.3 -39.1 M-1.65 -38.25 L-1.4 -38.2 -0.45 -37.95 0.2 -37.75 0.15 -37.4 0.05 -36.85 -2.5 -30.95 -4.85 -31.65 -2.5 -37.05 -1.65 -38.25 M7.45 -35.0 L10.35 -33.6 Q13.4 -31.95 16.35 -30.0 15.65 -27.15 14.6 -24.4 11.35 -26.25 7.7 -27.6 L1.95 -29.55 2.65 -31.25 Q4.0 -34.2 6.75 -34.9 L7.45 -35.0 M20.85 -26.8 L21.6 -26.25 Q21.1 -23.5 20.0 -20.75 L17.8 -22.4 Q19.05 -24.7 20.85 -26.8 M48.25 7.7 L44.65 -7.65 44.55 -7.9 44.05 -9.05 43.95 -9.35 43.7 -9.8 43.6 -10.05 43.45 -10.35 Q41.3 -14.6 38.75 -18.4 36.5 -21.7 32.55 -21.5 L32.25 -21.85 Q34.6 -23.05 37.4 -22.2 45.45 -15.45 47.05 -3.95 L47.95 3.4 48.25 7.7 M36.5 47.1 Q36.5 46.75 36.75 46.5 37.0 46.25 37.35 46.25 37.7 46.25 37.95 46.5 L38.2 47.1 37.95 47.7 37.35 47.95 36.75 47.7 36.5 47.1 M39.95 38.25 L39.9 38.85 Q39.3 39.8 38.15 39.45 L38.05 39.4 37.7 39.0 37.85 38.2 39.95 38.25 M36.1 41.25 Q36.7 41.25 37.15 41.7 37.55 42.1 37.55 42.7 37.55 43.3 37.15 43.75 36.7 44.15 36.1 44.15 35.5 44.15 35.1 43.75 34.65 43.3 34.65 42.7 34.65 42.1 35.1 41.7 35.5 41.25 36.1 41.25 M41.8 41.9 Q42.8 41.9 43.55 42.6 44.25 43.3 44.25 44.3 44.25 45.3 43.55 46.0 42.8 46.7 41.8 46.7 40.8 46.7 40.1 46.0 39.35 45.3 39.35 44.3 39.35 43.3 40.1 42.6 40.8 41.9 41.8 41.9 M41.95 39.7 Q42.35 39.7 42.65 40.0 L42.95 40.7 42.65 41.4 41.95 41.7 Q41.55 41.7 41.25 41.4 40.95 41.1 40.95 40.7 40.95 40.3 41.25 40.0 41.55 39.7 41.95 39.7" fill="#fef878" fill-rule="evenodd" stroke="none"/>
    <path d="M16.2 -17.9 L16.4 -17.8 16.65 -17.6 16.2 -17.9 M43.25 -31.15 L40.2 -38.45 Q41.6 -36.3 43.25 -31.15" fill="#666666" fill-rule="evenodd" stroke="none"/>
    <path d="M41.85 31.95 L41.85 32.0 41.8 32.05 41.55 32.5 Q44.2 25.8 45.15 18.5 46.05 11.9 43.55 7.1 43.95 4.05 43.85 0.9 L43.8 -0.25 Q48.8 10.0 45.7 21.15 L46.0 21.5 44.75 24.65 Q43.15 28.3 41.85 31.95 M41.95 4.65 L41.75 4.4 41.7 4.35 41.4 4.0 39.6 2.2 Q38.95 -0.05 37.8 -2.15 L37.95 -2.45 38.05 -2.8 38.15 -3.0 Q42.6 -0.95 41.95 4.65 M37.3 -12.55 L36.95 -13.1 37.3 -13.15 37.35 -13.1 37.3 -12.55 M36.75 -13.35 L36.2 -14.0 36.3 -13.95 36.45 -13.85 36.85 -13.5 36.85 -13.45 36.75 -13.35 M-22.25 -42.05 L-39.65 -41.55 -39.55 -41.6 Q-38.7 -41.95 -37.9 -42.35 -36.95 -46.3 -29.5 -48.75 L-25.35 -50.6 -18.4 -52.65 -14.65 -53.5 -15.3 -52.05 -16.05 -50.6 -18.15 -47.2 Q-20.35 -43.8 -21.75 -42.35 L-22.25 -42.05 M-11.5 -54.0 L-4.85 -54.95 -10.2 -49.2 -18.15 -43.3 -11.5 -54.0 M36.15 -11.95 L37.05 -10.8 Q36.1 -5.1 32.7 -0.6 L32.65 -0.7 31.75 -3.15 36.15 -11.95 M29.7 -7.15 L29.15 -8.05 Q30.55 -11.1 32.65 -13.6 L32.75 -13.7 Q31.85 -9.95 29.7 -7.15 M-30.4 -33.15 L-30.6 -33.15 -31.15 -33.1 -31.15 -33.25 -30.4 -33.15 M-35.7 -32.55 Q-39.6 -31.8 -43.05 -30.15 L-45.15 -29.0 -45.7 -28.7 -45.15 -31.65 Q-44.5 -34.15 -43.05 -36.4 L-42.55 -37.2 -41.0 -39.25 -40.6 -39.5 -40.4 -39.55 -40.3 -39.55 -40.15 -39.6 -39.65 -39.7 -39.5 -39.7 -38.1 -39.9 -39.3 -33.8 -35.6 -33.8 -35.7 -32.55 M-48.0 -27.1 L-48.75 -26.5 -49.2 -26.15 -49.5 -25.9 Q-50.25 -26.95 -50.1 -28.1 L-50.0 -28.8 -49.95 -29.1 Q-50.2 -34.75 -47.1 -35.75 L-46.45 -36.45 Q-48.0 -31.9 -48.0 -27.1 M42.75 35.35 L45.85 37.9 Q46.6 38.5 46.8 39.25 47.15 40.25 46.7 41.2 L47.7 43.0 46.7 46.95 47.1 49.05 47.0 49.75 45.0 54.2 41.1 54.45 39.35 53.5 Q38.85 54.15 38.05 54.2 L35.2 54.55 Q34.5 54.35 33.75 53.8 30.7 51.55 29.0 48.2 L28.65 47.25 Q28.35 46.05 27.45 45.2 L28.5 41.7 28.95 40.8 31.1 38.95 30.35 37.9 30.6 37.3 32.7 36.25 Q33.25 35.65 31.95 35.45 32.9 34.65 34.2 34.7 L36.9 34.75 37.75 34.05 39.05 34.0 39.8 34.15 40.7 34.35 Q41.8 34.45 42.6 35.2 L42.75 35.35 M41.95 36.9 L41.8 36.8 Q40.75 35.9 39.2 36.05 L38.55 36.15 36.75 36.2 Q35.3 36.15 34.5 37.05 L33.6 38.05 Q33.15 38.6 33.0 39.25 L32.2 44.5 Q32.1 45.45 32.95 46.05 L34.15 47.25 34.95 48.5 35.65 49.2 37.75 49.95 39.6 50.1 41.55 50.4 Q43.45 49.95 44.85 48.25 46.5 46.2 46.2 43.7 L44.2 38.45 41.45 37.2 41.5 37.2 41.85 37.05 41.95 36.9" fill="#b79b00" fill-rule="evenodd" stroke="none"/>
    <path d="M46.95 22.45 L46.65 23.05 46.6 23.1 41.85 31.95 Q43.15 28.3 44.75 24.65 L46.0 21.5 46.95 22.45 M43.55 7.1 L41.95 4.65 Q42.6 -0.95 38.15 -3.0 40.1 -8.3 37.3 -12.55 L37.35 -13.1 Q40.7 -10.25 41.75 -6.0 L41.95 -4.95 41.45 -4.4 43.8 -0.25 43.85 0.9 Q43.95 4.05 43.55 7.1 M39.6 2.2 Q38.45 1.2 37.1 0.35 L37.8 -2.15 Q38.95 -0.05 39.6 2.2 M36.95 -13.1 L36.75 -13.35 36.85 -13.45 36.85 -13.5 37.3 -13.15 36.95 -13.1 M-20.05 -42.0 L-22.25 -42.05 -21.75 -42.35 Q-20.35 -43.8 -18.15 -47.2 L-16.05 -50.6 -15.3 -52.05 -14.65 -53.5 -11.5 -54.0 -18.15 -43.3 -18.15 -43.2 -19.3 -42.35 -20.05 -42.0 M33.8 -14.85 L36.15 -11.95 31.75 -3.15 29.7 -7.15 Q31.85 -9.95 32.75 -13.7 L33.8 -14.85 M37.05 -10.8 L37.45 -10.3 Q37.6 -7.5 37.05 -4.75 36.15 -0.4 34.0 3.5 L32.7 -0.6 Q36.1 -5.1 37.05 -10.8 M-31.15 -33.1 L-31.7 -33.05 -35.7 -32.55 -35.6 -33.8 -35.55 -33.8 -31.15 -33.25 -31.15 -33.1 M-45.7 -28.7 L-46.15 -28.4 -48.0 -27.1 Q-48.0 -31.9 -46.45 -36.45 L-45.15 -37.5 Q-44.2 -38.2 -43.05 -38.7 L-40.6 -39.5 -41.0 -39.25 -42.55 -37.2 -43.05 -36.4 Q-44.5 -34.15 -45.15 -31.65 L-45.7 -28.7" fill="#c3c3c3" fill-rule="evenodd" stroke="none"/>
  </g>
</svg>
