<?xml version="1.0" encoding="UTF-8" standalone="no"?>
<svg xmlns:ffdec="https://www.free-decompiler.com/flash" xmlns:xlink="http://www.w3.org/1999/xlink" ffdec:objectType="shape" height="107.9px" width="93.35px" xmlns="http://www.w3.org/2000/svg">
  <g transform="matrix(1.0, 0.0, 0.0, 1.0, 46.7, 53.95)">
    <path d="M-34.8 -40.75 L-34.75 -40.8 -34.7 -40.9 -34.55 -41.05 -33.2 -42.4 Q-30.85 -44.2 -25.7 -46.25 L-20.0 -48.35 -17.8 -49.1 -16.3 -49.6 -15.7 -49.8 -12.6 -50.75 -7.05 -52.35 Q-1.3 -54.05 4.65 -53.95 L6.75 -53.9 11.05 -53.25 15.9 -52.25 20.9 -50.95 20.9 -51.15 21.45 -51.15 31.05 -44.45 32.5 -42.85 32.35 -42.85 33.65 -41.1 35.95 -37.95 36.35 -37.85 36.7 -37.7 37.65 -37.05 39.45 -35.2 40.1 -34.4 Q43.7 -34.45 45.45 -30.85 46.65 -28.4 46.65 -25.8 L45.8 -23.3 45.8 -23.1 Q45.8 -19.35 41.75 -13.35 37.05 -6.4 29.2 -0.4 8.1 15.75 -23.25 15.75 -33.45 15.75 -35.45 12.1 L-36.05 12.05 -36.4 6.7 -37.0 8.85 -37.15 9.7 Q-38.45 18.7 -35.05 27.3 L-34.1 30.0 -31.3 30.3 -28.35 31.0 Q-25.8 31.35 -24.25 33.3 L-23.55 36.5 Q-21.4 38.55 -20.95 41.35 L-20.7 42.35 Q-20.5 42.9 -20.7 43.55 -22.2 47.95 -25.3 51.4 L-26.35 51.4 Q-28.25 54.55 -31.95 53.8 -33.1 53.65 -34.05 53.0 -36.8 54.15 -39.75 53.4 -42.15 52.95 -41.8 50.7 L-42.9 48.5 -43.2 47.75 Q-43.35 45.4 -43.65 43.0 -43.85 41.4 -43.65 39.85 -43.3 37.1 -41.9 34.8 L-41.35 33.95 Q-40.1 32.35 -38.3 31.45 -41.5 26.05 -43.7 20.05 L-44.15 18.8 -45.2 15.25 -45.4 14.3 Q-47.05 7.05 -46.6 -0.55 L-46.55 -0.9 -46.55 -1.2 -46.35 -3.2 -46.25 -4.2 -45.3 -9.2 -45.3 -9.4 -45.1 -10.15 -45.1 -10.2 -44.05 -13.75 -38.35 -31.85 -38.3 -31.9 -38.35 -31.9 -37.85 -33.45 -34.8 -40.75 M8.0 -52.85 L7.55 -52.85 3.05 -52.85 2.5 -52.85 -10.35 -50.4 -11.15 -50.1 -11.25 -50.05 -11.45 -50.0 -13.4 -49.25 -15.2 -48.55 -16.3 -48.15 -16.3 -48.1 -16.8 -47.95 -25.8 -44.05 -30.7 -41.75 Q-33.15 -40.45 -34.05 -38.45 L-35.5 -35.0 -35.7 -34.6 -36.0 -33.95 -36.25 -33.3 -37.65 -29.45 -39.0 -25.4 -40.2 -21.25 -40.2 -21.15 -40.25 -21.05 -40.25 -21.0 -40.8 -19.45 -40.75 -19.55 -41.05 -18.55 -41.15 -18.25 Q-42.4 -14.2 -43.2 -9.9 L-43.25 -9.8 -43.25 -9.75 -43.4 -8.9 -43.75 -6.5 -43.8 -6.1 Q-45.35 5.9 -42.9 17.6 L-41.55 20.15 -41.25 20.75 -41.2 20.8 -36.45 29.65 -36.45 29.7 -36.4 29.75 -36.15 30.2 Q-38.8 23.5 -39.75 16.2 -40.65 9.6 -38.15 4.8 -37.45 3.5 -36.55 2.35 L-36.35 2.1 -36.3 2.05 -36.0 1.7 -34.2 -0.1 -31.7 -1.95 -31.75 -2.3 -30.85 -2.2 -30.3 -2.45 -30.15 -2.55 Q-27.8 -4.05 -26.8 -3.9 L-24.4 -4.65 -25.4 -2.1 -25.65 -1.3 -26.15 0.05 -26.05 0.1 -26.05 0.2 -26.1 0.65 -27.6 0.85 -28.5 1.0 -28.6 1.2 -28.7 1.05 -29.95 1.35 -30.4 1.5 -31.3 1.85 -31.75 2.0 -32.0 2.15 -31.15 2.25 -28.75 2.55 -28.0 2.65 -27.8 2.7 -27.65 2.7 -24.4 3.05 -23.45 2.9 -23.3 2.9 -22.55 3.0 -19.75 3.4 -19.7 3.4 -18.8 3.55 -17.85 3.65 -16.85 3.65 -16.55 3.65 -16.3 3.65 -13.0 3.5 -5.55 2.55 -4.7 2.35 Q1.95 1.0 8.2 -1.75 11.6 -3.3 14.85 -5.2 L15.75 -5.75 18.9 -7.8 20.3 -8.8 25.55 -13.0 26.05 -13.45 26.35 -13.7 26.55 -13.9 Q30.65 -17.65 35.65 -23.35 L37.85 -25.95 38.4 -26.55 39.0 -27.25 39.9 -28.05 40.55 -28.8 40.75 -29.1 Q40.75 -29.8 36.9 -34.35 L34.65 -37.0 Q33.65 -38.95 31.3 -40.95 L22.8 -47.9 22.95 -47.95 23.75 -48.05 23.2 -48.6 22.6 -48.8 22.3 -48.9 21.9 -49.0 21.5 -49.1 19.3 -49.8 19.15 -49.85 12.25 -51.75 11.65 -51.9 8.15 -52.8 8.0 -52.85 M25.85 -44.3 L26.2 -44.3 26.5 -44.3 27.1 -43.7 25.9 -44.25 25.85 -44.3 M20.25 -5.15 L15.5 -2.35 15.5 -2.3 Q4.9 3.45 -7.5 5.15 L-7.5 5.1 -8.25 5.2 -8.25 5.25 -8.95 5.3 -10.45 5.45 -11.95 5.6 -14.55 5.75 -18.0 5.8 -19.85 5.75 -23.3 5.45 -23.9 5.35 -25.1 5.2 -25.7 5.1 -34.1 3.2 -34.1 3.25 -34.25 6.85 -34.35 10.35 Q-29.85 12.25 -28.6 12.25 L-24.8 12.8 -23.9 12.95 -22.55 13.15 -22.45 13.15 -21.05 13.3 -17.45 13.25 -14.0 13.0 -13.85 13.0 -12.55 12.85 -9.4 12.45 -5.5 11.8 Q5.8 9.5 16.9 3.9 L18.35 3.15 18.75 2.9 22.6 0.75 23.3 0.3 26.0 -1.4 Q29.3 -3.55 32.1 -5.75 L37.05 -10.2 40.35 -13.95 Q41.65 -15.85 42.05 -17.25 L42.9 -18.9 43.0 -19.1 43.15 -19.3 43.8 -20.75 43.85 -20.85 44.35 -21.8 44.5 -22.15 44.6 -22.45 45.0 -23.9 45.05 -25.8 44.95 -26.75 44.9 -27.15 44.6 -28.1 44.55 -28.15 44.5 -28.25 44.3 -28.6 44.3 -28.65 44.25 -28.8 44.25 -29.0 43.85 -30.55 43.55 -30.75 43.55 -30.8 Q43.15 -31.0 42.9 -30.8 L42.6 -30.45 42.55 -30.4 42.5 -30.3 42.35 -29.75 42.2 -28.75 42.15 -28.55 42.0 -28.1 41.7 -27.2 41.65 -27.05 41.5 -26.55 40.55 -25.05 40.45 -24.9 40.05 -24.4 40.05 -24.35 39.95 -24.2 39.35 -23.35 Q35.35 -17.85 29.7 -12.55 L29.0 -11.95 27.45 -10.6 27.4 -10.55 26.15 -9.45 25.35 -8.85 25.15 -8.7 24.2 -7.95 20.25 -5.15 M-28.8 32.4 L-31.5 32.45 -32.35 31.75 -33.65 31.7 -34.4 31.85 -35.3 32.05 Q-36.4 32.15 -37.2 32.9 L-37.35 33.05 -40.45 35.6 Q-41.2 36.2 -41.4 36.95 -41.75 37.95 -41.3 38.9 L-42.3 40.7 -41.3 44.65 -41.7 46.75 -41.6 47.45 -39.6 51.9 -35.7 52.15 -33.95 51.2 Q-33.45 51.85 -32.65 51.9 L-29.8 52.25 -28.35 51.5 Q-25.3 49.25 -23.6 45.9 L-23.25 44.95 Q-22.95 43.75 -22.05 42.9 L-23.1 39.4 -23.55 38.5 Q-24.45 37.55 -25.7 36.65 L-24.95 35.6 -25.2 35.0 -27.3 33.95 Q-27.85 33.35 -26.55 33.15 -27.5 32.35 -28.8 32.4" fill="#6a4b02" fill-rule="evenodd" stroke="none"/>
    <path d="M7.55 -52.85 Q10.75 -51.45 13.7 -49.2 L12.4 -49.6 Q6.25 -51.35 1.8 -51.35 -5.1 -51.35 -11.1 -50.1 L-10.85 -50.0 -11.15 -50.1 -10.35 -50.4 2.5 -52.85 3.05 -52.85 7.55 -52.85 M-16.3 -48.1 L-16.5 -47.9 -16.8 -47.95 -16.3 -48.1 M-25.8 -44.05 L-24.35 -44.1 Q-28.05 -42.4 -31.25 -39.65 L-34.5 -36.45 -35.25 -35.55 -35.5 -35.0 -34.05 -38.45 Q-33.15 -40.45 -30.7 -41.75 L-25.8 -44.05 M-22.3 -44.0 L-22.2 -44.1 -22.15 -44.1 -22.3 -44.0 M-10.55 -48.2 L-10.5 -48.3 -10.35 -48.25 -10.55 -48.2 M14.6 -46.55 L16.0 -46.25 16.5 -46.1 16.0 -46.1 14.6 -46.55 M28.1 -37.7 L28.85 -37.15 39.9 -28.05 39.0 -27.25 38.4 -26.55 34.55 -30.2 31.05 -33.15 30.7 -34.1 Q29.85 -35.8 28.1 -37.7 M40.55 -28.8 Q40.1 -30.7 37.8 -33.0 L32.1 -38.0 25.05 -43.65 Q19.75 -47.5 18.0 -47.5 L17.9 -47.5 15.6 -49.1 23.55 -45.25 23.55 -45.2 23.65 -45.1 24.0 -44.95 25.85 -44.3 25.9 -44.25 Q27.3 -42.75 31.6 -39.35 L34.65 -36.95 34.65 -37.0 36.9 -34.35 Q40.75 -29.8 40.75 -29.1 L40.55 -28.8 M31.85 -26.45 L32.85 -25.4 Q34.15 -24.2 35.65 -23.35 30.65 -17.65 26.55 -13.9 L26.35 -13.7 25.5 -14.55 24.25 -15.65 24.75 -15.95 28.0 -18.65 Q31.35 -22.0 31.85 -26.25 L31.85 -26.45 M5.8 -4.2 L8.2 -1.75 Q1.95 1.0 -4.7 2.35 L-5.55 2.55 -13.0 3.5 -13.1 3.3 Q-13.9 1.95 -15.25 1.05 -16.95 -0.1 -20.4 -0.6 L-21.0 -0.65 -20.8 -0.2 Q-21.25 -1.0 -21.25 -1.95 L-19.25 -6.95 Q-19.25 -8.1 -19.65 -9.0 -20.4 -10.5 -22.05 -10.5 -23.35 -10.5 -28.4 -8.35 -32.05 -6.8 -33.3 -5.6 L-33.35 -5.75 -33.55 -6.2 -32.4 -8.95 Q-29.75 -14.2 -24.25 -16.6 L-24.65 -16.6 -24.75 -16.6 -24.95 -16.75 -24.45 -16.85 -23.9 -16.95 -20.9 -17.35 Q-19.0 -17.35 -15.5 -15.95 L-12.2 -14.65 -12.1 -14.6 -12.05 -14.6 -10.75 -14.4 -10.65 -14.4 -10.6 -14.35 -11.75 -13.0 -11.75 -12.75 -12.05 -11.65 -12.4 -10.65 Q-12.4 -7.0 -10.5 -4.65 -7.7 -1.25 -1.25 -1.25 L-0.1 -1.3 Q2.5 -2.25 4.65 -3.5 L5.55 -4.05 5.8 -4.2 M15.75 -5.75 L14.45 -7.05 12.25 -9.1 12.3 -9.15 15.5 -11.0 15.65 -11.05 15.7 -11.05 17.35 -9.25 18.9 -7.8 15.75 -5.75 M16.3 2.45 L16.8 2.2 16.9 3.9 Q5.8 9.5 -5.5 11.8 L-6.0 10.2 -6.45 9.05 -6.5 9.05 Q0.25 8.25 9.75 4.9 L16.3 2.45 M20.4 0.65 L21.05 0.35 20.5 0.75 20.4 0.65 M40.9 -16.4 L40.3 -14.35 40.35 -13.95 37.05 -10.2 32.1 -5.75 32.1 -5.9 31.5 -7.0 Q38.25 -12.95 40.9 -16.4 M42.35 -18.9 L42.25 -18.65 42.05 -19.15 42.2 -18.5 42.05 -18.15 41.35 -17.1 41.25 -18.3 40.8 -19.8 Q40.35 -20.7 40.35 -21.2 L39.7 -22.65 39.35 -23.35 39.95 -24.2 40.3 -23.75 40.05 -24.35 40.05 -24.4 40.45 -24.9 40.55 -25.05 41.25 -23.0 42.55 -19.55 42.55 -19.5 42.5 -19.45 42.45 -19.3 42.35 -18.9 M41.65 -27.05 L41.7 -27.2 42.0 -28.1 42.0 -28.05 42.2 -26.85 42.05 -27.5 41.85 -27.4 41.9 -26.6 41.65 -27.05 M43.55 -30.75 L43.85 -30.55 44.25 -29.0 44.2 -29.05 43.55 -30.75 M44.6 -28.1 L44.9 -27.15 44.8 -27.45 44.65 -27.9 44.6 -28.1 M25.95 -2.3 L26.1 -2.4 26.0 -1.4 23.3 0.3 22.6 0.75 Q22.5 0.1 21.75 0.0 L25.5 -1.95 25.95 -2.3 M-42.85 6.1 L-42.85 5.9 -42.85 5.4 -39.25 -9.95 -39.15 -10.2 -38.65 -11.35 -38.55 -11.65 -38.3 -12.1 -38.2 -12.35 -38.05 -12.65 Q-35.9 -16.9 -33.35 -20.7 -31.15 -23.95 -27.3 -23.8 L-27.15 -23.8 -27.35 -23.7 Q-31.4 -20.9 -31.9 -18.85 -32.75 -17.55 -33.4 -15.85 L-33.7 -15.0 Q-37.9 -9.9 -38.4 -2.55 -43.4 7.7 -40.3 18.85 L-40.6 19.2 Q-42.85 12.75 -42.85 6.1 M-26.85 -24.15 L-26.75 -24.1 -27.05 -23.9 -26.85 -24.15 M-10.8 9.3 L-10.5 9.3 -10.45 9.3 -9.7 11.65 -9.4 12.45 -12.55 12.85 -12.8 11.9 Q-13.15 10.35 -13.65 9.3 L-13.5 9.3 -10.8 9.3 M-18.6 9.1 L-18.0 11.45 -17.45 13.25 -21.05 13.3 -22.45 13.15 -23.15 12.0 Q-25.0 8.95 -25.0 6.85 L-25.1 5.2 -23.9 5.35 -23.3 5.45 Q-22.4 8.2 -21.1 8.7 L-19.0 9.05 -18.6 9.1 M-28.2 35.75 Q-27.75 36.3 -27.6 36.95 L-26.8 42.2 Q-26.7 43.15 -27.55 43.75 L-28.75 44.95 -29.55 46.2 -30.25 46.9 -32.35 47.65 -34.2 47.8 -36.15 48.1 Q-38.05 47.65 -39.45 45.95 -41.1 43.9 -40.8 41.4 L-38.8 36.15 -36.05 34.9 -36.1 34.9 -36.45 34.75 -36.55 34.6 -36.4 34.5 Q-35.35 33.6 -33.8 33.75 L-33.15 33.85 -31.35 33.9 Q-29.9 33.85 -29.1 34.75 L-28.2 35.75 M-31.35 45.4 L-31.1 44.8 Q-31.1 44.45 -31.35 44.2 -31.6 43.95 -31.95 43.95 -32.3 43.95 -32.55 44.2 L-32.8 44.8 -32.55 45.4 -31.95 45.65 -31.35 45.4 M-35.55 38.4 Q-35.55 38.0 -35.85 37.7 -36.15 37.4 -36.55 37.4 -36.95 37.4 -37.25 37.7 L-37.55 38.4 -37.25 39.1 -36.55 39.4 -35.85 39.1 Q-35.55 38.8 -35.55 38.4 M-31.75 41.45 Q-31.3 41.85 -30.7 41.85 -30.1 41.85 -29.7 41.45 -29.25 41.0 -29.25 40.4 -29.25 39.8 -29.7 39.4 -30.1 38.95 -30.7 38.95 -31.3 38.95 -31.75 39.4 -32.15 39.8 -32.15 40.4 -32.15 41.0 -31.75 41.45 M-33.95 42.0 Q-33.95 41.0 -34.7 40.3 -35.4 39.6 -36.4 39.6 -37.4 39.6 -38.15 40.3 -38.85 41.0 -38.85 42.0 -38.85 43.0 -38.15 43.7 -37.4 44.4 -36.4 44.4 -35.4 44.4 -34.7 43.7 -33.95 43.0 -33.95 42.0 M-34.55 35.95 L-34.5 36.55 Q-33.9 37.5 -32.75 37.15 L-32.65 37.1 -32.3 36.7 -32.45 35.9 -34.55 35.95 M18.75 2.9 L18.35 3.15 18.5 2.55 18.75 2.9" fill="#ecce00" fill-rule="evenodd" stroke="none"/>
    <path d="M8.15 -52.75 L8.0 -52.85 8.15 -52.8 8.15 -52.75 M21.5 -49.1 L20.8 -49.3 20.5 -49.25 Q20.25 -49.25 19.45 -49.6 L19.65 -49.4 19.2 -49.8 19.15 -49.85 19.3 -49.8 21.5 -49.1 M26.2 -44.3 L25.85 -44.3 24.0 -44.95 23.55 -45.2 23.55 -45.25 23.25 -45.65 23.7 -45.4 25.1 -44.7 25.15 -44.7 26.05 -44.35 26.2 -44.3 M43.8 -20.75 Q43.0 -19.3 42.35 -18.9 L42.45 -19.3 42.5 -19.45 42.55 -19.5 42.55 -19.55 42.55 -19.8 42.55 -19.9 43.4 -22.25 43.35 -23.05 43.5 -23.25 43.3 -23.6 43.25 -23.65 43.15 -24.15 42.95 -24.7 42.45 -25.9 42.4 -25.95 42.2 -26.85 42.0 -28.05 42.0 -28.1 42.15 -28.55 42.2 -28.75 42.35 -29.75 42.6 -29.65 Q43.35 -29.3 43.75 -28.25 L44.7 -26.5 45.05 -25.8 45.0 -23.9 44.6 -22.45 44.5 -22.15 44.35 -21.8 43.85 -20.85 43.8 -20.75 M-38.45 -1.8 L-35.4 -3.2 -34.95 -3.7 Q-37.0 -1.55 -36.55 2.35 -37.45 3.5 -38.15 4.8 -38.55 1.75 -38.45 -1.4 L-38.45 -1.8 M-36.45 29.65 L-41.2 20.8 -41.25 20.75 -41.55 20.15 -40.6 19.2 -39.35 22.35 Q-37.75 26.0 -36.45 29.65 M-20.75 -0.15 L-19.65 1.15 -19.6 1.15 -19.1 1.5 -16.25 2.9 -16.15 3.1 -16.65 3.1 -16.8 3.15 -16.1 3.35 -16.1 3.5 -16.3 3.65 -16.55 3.65 -16.85 3.65 -17.85 3.65 -18.8 3.55 -19.7 3.4 -19.75 3.4 -21.65 2.75 -21.7 3.1 -22.55 3.0 -23.3 2.9 -23.45 2.9 -24.4 3.05 -27.65 2.7 -27.8 2.7 -28.0 2.65 -28.75 2.55 -31.15 2.25 -31.5 2.2 -31.15 1.85 -30.15 1.95 -30.4 1.5 -29.95 1.35 -28.35 1.5 -27.55 1.35 -27.65 1.0 -27.6 0.85 -26.1 0.65 -26.05 0.2 -20.75 -0.15" fill="#c3c3c3" fill-rule="evenodd" stroke="none"/>
    <path d="M37.1 -37.65 L37.65 -37.05 36.7 -37.7 37.1 -37.65 M8.0 -52.85 L8.15 -52.75 15.6 -49.1 17.9 -47.5 18.0 -47.5 Q19.75 -47.5 25.05 -43.65 L32.1 -38.0 37.8 -33.0 Q40.1 -30.7 40.55 -28.8 L39.9 -28.05 28.85 -37.15 28.1 -37.7 28.05 -37.75 23.8 -41.75 17.5 -46.1 17.3 -46.1 16.5 -46.1 16.0 -46.25 14.6 -46.55 12.35 -47.25 10.3 -47.75 Q5.1 -49.0 -0.3 -49.1 L-0.9 -49.1 -3.3 -49.05 -10.35 -48.25 -10.5 -48.3 -10.55 -48.2 -13.2 -47.6 -14.1 -47.35 -14.05 -47.35 Q-18.05 -46.2 -21.9 -44.25 L-22.15 -44.1 -22.2 -44.1 -22.3 -44.0 -23.15 -43.55 -28.3 -39.75 -28.95 -39.15 -29.15 -38.95 -29.7 -38.35 -32.05 -35.6 -32.25 -35.4 -33.05 -34.3 -36.05 -29.8 Q-38.45 -25.8 -40.2 -21.15 L-40.2 -21.25 -39.0 -25.4 -37.65 -29.45 -36.25 -33.3 -36.0 -33.95 -35.7 -34.6 -35.5 -35.0 -35.25 -35.55 -34.5 -36.45 -31.25 -39.65 Q-28.05 -42.4 -24.35 -44.1 L-25.8 -44.05 -16.8 -47.95 -16.5 -47.9 -16.3 -48.1 -16.3 -48.15 -15.2 -48.55 -13.4 -49.25 -11.45 -50.0 -11.25 -50.05 -11.15 -50.1 -10.85 -50.0 -11.1 -50.1 Q-5.1 -51.35 1.8 -51.35 6.25 -51.35 12.4 -49.6 L13.7 -49.2 Q10.75 -51.45 7.55 -52.85 L8.0 -52.85 M23.55 -45.2 L24.0 -44.95 23.65 -45.1 23.55 -45.2 M31.85 -26.45 L31.9 -27.75 31.85 -28.4 31.5 -31.05 31.3 -32.5 31.05 -33.15 34.55 -30.2 38.4 -26.55 37.85 -25.95 35.65 -23.35 Q34.15 -24.2 32.85 -25.4 L31.85 -26.45 M24.25 -15.65 L25.5 -14.55 26.35 -13.7 26.05 -13.45 25.55 -13.0 20.3 -8.8 18.9 -7.8 17.35 -9.25 15.7 -11.05 16.8 -11.55 17.1 -11.7 17.25 -11.75 Q20.75 -13.4 23.4 -15.05 L24.15 -15.55 24.25 -15.65 M8.2 -1.75 L5.8 -4.2 6.3 -4.55 6.5 -4.7 10.3 -7.65 11.0 -8.2 11.55 -8.6 12.25 -9.1 14.45 -7.05 15.75 -5.75 14.85 -5.2 Q11.6 -3.3 8.2 -1.75 M-10.65 -14.4 L-10.75 -14.4 -12.05 -14.6 -12.1 -14.6 -12.2 -14.65 -15.5 -15.95 Q-19.0 -17.35 -20.9 -17.35 L-23.9 -16.95 -24.45 -16.85 -24.95 -16.75 -25.7 -16.6 -24.75 -16.6 -24.65 -16.6 -24.25 -16.6 Q-29.75 -14.2 -32.4 -8.95 L-33.55 -6.2 -33.35 -5.75 -33.3 -5.6 -33.8 -5.1 -33.95 -4.65 -34.0 -4.55 -34.1 -4.5 -34.95 -3.7 -35.4 -3.2 -38.45 -1.8 -38.4 -2.55 Q-37.9 -9.9 -33.7 -15.0 L-33.4 -15.85 Q-32.75 -17.55 -31.9 -18.85 L-31.95 -18.6 -31.6 -18.75 -30.05 -19.0 -27.85 -19.2 -27.75 -19.15 -22.65 -19.25 Q-17.8 -19.25 -12.7 -18.0 -10.15 -17.35 -8.5 -16.75 L-8.05 -16.65 -8.0 -16.45 Q-8.25 -15.5 -9.3 -14.8 -9.65 -14.55 -10.25 -14.25 L-10.65 -14.4 M-20.8 -0.2 L-21.0 -0.65 -20.4 -0.6 Q-16.95 -0.1 -15.25 1.05 -13.9 1.95 -13.1 3.3 L-13.0 3.5 -16.3 3.65 -16.1 3.5 -16.1 3.35 -16.1 3.25 -16.15 3.1 -16.25 2.9 -19.1 1.5 -19.6 1.15 -19.65 1.15 -20.75 -0.15 -20.8 -0.2 M16.8 2.2 L20.4 0.65 20.5 0.75 21.05 0.35 21.1 0.35 21.65 0.05 21.75 0.0 Q22.5 0.1 22.6 0.75 L18.75 2.9 18.5 2.55 18.35 3.15 16.9 3.9 16.8 2.2 M31.5 -7.0 L32.1 -5.9 32.1 -5.75 Q29.3 -3.55 26.0 -1.4 L26.1 -2.4 28.95 -4.8 29.15 -4.95 31.5 -7.0 M40.55 -25.05 L41.5 -26.55 41.65 -27.05 41.9 -26.6 41.85 -27.4 42.05 -27.5 42.2 -26.85 42.4 -25.95 42.45 -25.9 42.95 -24.7 43.15 -24.15 43.25 -23.65 43.3 -23.6 43.35 -23.05 43.4 -22.25 42.55 -19.9 42.55 -19.8 42.55 -19.55 41.25 -23.0 40.55 -25.05 M-42.9 17.6 L-42.9 8.1 -42.85 6.1 Q-42.85 12.75 -40.6 19.2 L-41.55 20.15 -42.9 17.6 M-10.45 9.3 L-8.6 9.25 -7.9 9.2 -7.8 9.2 -6.5 9.05 -6.45 9.05 -6.0 10.2 -5.5 11.8 -9.4 12.45 -9.7 11.65 -10.45 9.3 M-17.45 13.25 L-18.0 11.45 -18.6 9.1 -14.9 9.25 -14.65 9.25 -13.65 9.3 Q-13.15 10.35 -12.8 11.9 L-12.55 12.85 -13.85 13.0 -14.0 13.0 -17.45 13.25" fill="#dfdfdf" fill-rule="evenodd" stroke="none"/>
    <path d="M15.6 -49.1 L8.15 -52.75 8.15 -52.8 11.65 -51.9 12.25 -51.75 19.15 -49.85 19.2 -49.8 19.65 -49.4 19.45 -49.6 Q20.25 -49.25 20.5 -49.25 L20.8 -49.3 21.5 -49.1 21.9 -49.0 22.3 -48.9 22.6 -48.8 23.2 -48.6 23.75 -48.05 22.95 -47.95 22.8 -47.9 31.3 -40.95 Q33.65 -38.95 34.65 -37.0 L34.65 -36.95 31.6 -39.35 Q27.3 -42.75 25.9 -44.25 L27.1 -43.7 26.5 -44.3 26.2 -44.3 26.05 -44.35 25.15 -44.7 25.1 -44.7 23.7 -45.4 23.25 -45.65 23.55 -45.25 15.6 -49.1 M-33.3 -5.6 Q-32.05 -6.8 -28.4 -8.35 -23.35 -10.5 -22.05 -10.5 -20.4 -10.5 -19.65 -9.0 -19.25 -8.1 -19.25 -6.95 L-21.25 -1.95 Q-21.25 -1.0 -20.8 -0.2 L-20.75 -0.15 -26.05 0.2 -26.05 0.1 -26.15 0.05 -25.65 -1.3 -25.4 -2.1 -24.4 -4.65 -26.8 -3.9 Q-27.8 -4.05 -30.15 -2.55 L-30.3 -2.45 -30.85 -2.2 -31.75 -2.3 -31.7 -1.95 -34.2 -0.1 -36.0 1.7 -36.3 2.05 -36.35 2.1 -36.55 2.35 Q-37.0 -1.55 -34.95 -3.7 L-34.1 -4.5 -34.0 -4.55 -33.95 -4.65 -33.8 -5.1 -33.3 -5.6 M40.35 -13.95 L40.3 -14.35 40.9 -16.4 42.05 -18.15 42.2 -18.5 42.25 -18.65 42.35 -18.9 Q43.0 -19.3 43.8 -20.75 L43.15 -19.3 43.0 -19.1 42.9 -18.9 42.05 -17.25 Q41.65 -15.85 40.35 -13.95 M42.35 -29.75 L42.5 -30.3 42.55 -30.4 42.6 -30.45 42.9 -30.8 Q43.15 -31.0 43.55 -30.8 L43.55 -30.75 44.2 -29.05 44.25 -29.0 44.25 -28.8 44.3 -28.65 44.3 -28.6 44.5 -28.25 44.55 -28.15 44.6 -28.1 44.65 -27.9 44.8 -27.45 44.9 -27.15 44.95 -26.75 45.05 -25.8 44.7 -26.5 43.75 -28.25 Q43.35 -29.3 42.6 -29.65 L42.35 -29.75 M43.3 -23.6 L43.5 -23.25 43.35 -23.05 43.3 -23.6 M-38.4 -2.55 L-38.45 -1.8 -38.45 -1.4 Q-38.55 1.75 -38.15 4.8 -40.65 9.6 -39.75 16.2 -38.8 23.5 -36.15 30.2 L-36.4 29.75 -36.45 29.7 -36.45 29.65 Q-37.75 26.0 -39.35 22.35 L-40.6 19.2 -40.3 18.85 Q-43.4 7.7 -38.4 -2.55 M-16.15 3.1 L-16.1 3.25 -16.1 3.35 -16.8 3.15 -16.65 3.1 -16.15 3.1 M-19.75 3.4 L-22.55 3.0 -21.7 3.1 -21.65 2.75 -19.75 3.4 M-31.15 2.25 L-32.0 2.15 -31.75 2.0 -31.3 1.85 -31.15 1.85 -31.5 2.2 -31.15 2.25 M-29.95 1.35 L-28.7 1.05 -28.6 1.2 -28.5 1.0 -27.6 0.85 -27.65 1.0 -27.55 1.35 -28.35 1.5 -29.95 1.35 M-25.1 5.2 L-25.0 6.85 Q-25.0 8.95 -23.15 12.0 L-22.45 13.15 -22.55 13.15 -23.9 12.95 -24.8 12.8 -28.6 12.25 Q-29.85 12.25 -34.35 10.35 L-34.25 6.85 -34.1 3.25 -34.1 3.2 -25.7 5.1 -25.1 5.2 M-28.8 32.4 Q-27.5 32.35 -26.55 33.15 -27.85 33.35 -27.3 33.95 L-25.2 35.0 -24.95 35.6 -25.7 36.65 Q-24.45 37.55 -23.55 38.5 L-23.1 39.4 -22.05 42.9 Q-22.95 43.75 -23.25 44.95 L-23.6 45.9 Q-25.3 49.25 -28.35 51.5 L-29.8 52.25 -32.65 51.9 Q-33.45 51.85 -33.95 51.2 L-35.7 52.15 -39.6 51.9 -41.6 47.45 -41.7 46.75 -41.3 44.65 -42.3 40.7 -41.3 38.9 Q-41.75 37.95 -41.4 36.95 -41.2 36.2 -40.45 35.6 L-37.35 33.05 -37.2 32.9 Q-36.4 32.15 -35.3 32.05 L-34.4 31.85 -33.65 31.7 -32.35 31.75 -31.5 32.45 -28.8 32.4 M-28.2 35.75 L-29.1 34.75 Q-29.9 33.85 -31.35 33.9 L-33.15 33.85 -33.8 33.75 Q-35.35 33.6 -36.4 34.5 L-36.55 34.6 -36.45 34.75 -36.1 34.9 -36.05 34.9 -38.8 36.15 -40.8 41.4 Q-41.1 43.9 -39.45 45.95 -38.05 47.65 -36.15 48.1 L-34.2 47.8 -32.35 47.65 -30.25 46.9 -29.55 46.2 -28.75 44.95 -27.55 43.75 Q-26.7 43.15 -26.8 42.2 L-27.6 36.95 Q-27.75 36.3 -28.2 35.75" fill="#b79b00" fill-rule="evenodd" stroke="none"/>
    <path d="M36.35 -37.85 L36.0 -39.0 37.1 -37.65 36.7 -37.7 36.35 -37.85 M-36.05 -29.8 L-33.05 -34.3 -32.25 -35.4 -32.05 -35.6 -29.7 -38.35 -25.0 -40.35 Q-9.85 -46.55 -3.85 -46.55 L1.5 -46.1 3.2 -45.8 4.95 -45.55 8.25 -45.1 11.4 -44.65 Q16.3 -44.65 24.8 -38.65 L30.65 -34.15 30.7 -34.1 31.05 -33.15 31.3 -32.5 31.5 -31.05 31.85 -28.4 31.9 -27.75 31.85 -26.45 31.85 -26.25 25.6 -32.65 Q23.3 -34.65 16.65 -37.8 9.85 -41.0 7.55 -41.0 L1.65 -42.15 Q-14.25 -42.15 -26.15 -36.5 -32.45 -33.45 -36.05 -29.8 M24.75 -15.95 L24.25 -15.65 24.15 -15.55 23.4 -15.05 Q20.75 -13.4 17.25 -11.75 L17.1 -11.7 16.8 -11.55 15.7 -11.05 15.65 -11.05 12.5 -13.8 Q-1.3 -25.25 -16.25 -25.25 L-24.55 -24.75 -26.5 -24.25 -26.75 -24.1 -26.85 -24.15 -27.9 -23.85 -28.15 -24.6 -28.15 -24.65 -32.0 -24.5 Q-40.05 -17.75 -41.65 -6.25 L-42.55 1.1 -42.85 5.4 -42.85 5.9 -42.85 6.1 -42.9 8.1 -42.9 17.6 Q-45.35 5.9 -43.8 -6.1 L-43.75 -6.5 -43.4 -8.9 -43.25 -9.7 -43.25 -9.75 -43.25 -9.8 -43.2 -9.9 Q-38.8 -20.15 -31.3 -28.45 -31.05 -29.55 -29.2 -30.3 -27.15 -31.1 -23.75 -31.35 L-19.45 -32.6 Q-15.85 -33.75 -9.3 -33.75 1.55 -33.75 15.75 -23.6 20.95 -19.9 24.75 -15.95 M12.25 -9.1 L11.55 -8.6 11.0 -8.2 10.3 -7.65 6.5 -4.7 6.3 -4.55 5.8 -4.2 5.55 -4.05 -0.55 -8.75 Q-6.8 -13.25 -10.25 -14.25 -9.65 -14.55 -9.3 -14.8 -8.25 -15.5 -8.0 -16.45 L-8.05 -16.65 -8.5 -16.75 Q-10.15 -17.35 -12.7 -18.0 -17.8 -19.25 -22.65 -19.25 L-27.75 -19.15 -27.85 -19.2 -30.05 -19.0 -31.6 -18.75 -31.95 -18.6 -31.9 -18.85 Q-30.75 -19.6 -28.65 -20.55 -23.4 -22.85 -20.35 -22.15 L-20.35 -22.35 Q-7.95 -20.1 -0.9 -17.15 5.45 -14.45 12.3 -9.15 L12.25 -9.1 M16.3 2.45 Q15.95 1.75 15.75 0.7 L15.5 -2.2 15.5 -2.3 15.5 -2.35 20.25 -5.15 21.05 -2.45 21.65 0.05 21.1 0.35 21.05 0.35 20.4 0.65 16.8 2.2 16.3 2.45 M-7.5 5.15 L-6.5 9.0 -6.5 9.05 -7.8 9.2 -7.95 9.05 -7.9 9.2 -8.6 9.25 -10.45 9.3 -10.5 9.3 -10.8 9.3 -11.05 8.65 -11.95 5.6 -10.45 5.45 -8.95 5.3 -8.4 6.15 -8.25 6.15 -8.25 5.25 -8.25 5.2 -7.5 5.1 -7.5 5.15 M27.4 -10.55 L27.4 -10.45 27.5 -10.45 27.45 -10.6 29.0 -11.95 29.7 -12.55 31.3 -7.7 31.5 -7.0 29.15 -4.95 29.05 -5.0 28.95 -4.85 28.95 -4.8 26.1 -2.4 25.95 -2.3 25.05 -3.75 Q23.8 -5.95 23.8 -6.45 23.8 -6.8 24.1 -6.85 L24.35 -7.25 24.2 -7.95 25.15 -8.7 25.3 -8.1 25.35 -8.85 26.15 -9.45 27.4 -10.55 M-8.1 8.75 L-8.2 8.45 -8.5 7.25 -8.1 8.75 M-19.85 5.75 L-18.0 5.8 -14.55 5.75 Q-14.15 6.45 -13.85 7.8 L-13.5 9.3 -13.65 9.3 -14.65 9.25 -14.9 9.25 -18.6 9.1 -19.0 9.05 -19.2 8.4 -19.85 5.75" fill="#ffffff" fill-rule="evenodd" stroke="none"/>
    <path d="M-40.2 -21.15 Q-38.45 -25.8 -36.05 -29.8 -32.45 -33.45 -26.15 -36.5 -14.25 -42.15 1.65 -42.15 L7.55 -41.0 Q9.85 -41.0 16.65 -37.8 23.3 -34.65 25.6 -32.65 L31.85 -26.25 Q31.35 -22.0 28.0 -18.65 L24.75 -15.95 Q20.95 -19.9 15.75 -23.6 1.55 -33.75 -9.3 -33.75 -15.85 -33.75 -19.45 -32.6 L-23.75 -31.35 Q-27.15 -31.1 -29.2 -30.3 -31.05 -29.55 -31.3 -28.45 -38.8 -20.15 -43.2 -9.9 -42.4 -14.2 -41.15 -18.25 L-41.05 -18.55 -40.75 -19.55 -40.8 -19.45 -40.25 -21.0 -40.25 -21.05 -40.2 -21.15 M-29.7 -38.35 L-29.15 -38.95 -28.95 -39.15 -28.3 -39.75 -23.15 -43.55 -22.3 -44.0 -22.15 -44.1 -21.9 -44.25 Q-18.05 -46.2 -14.05 -47.35 L-14.1 -47.35 -13.2 -47.6 -10.55 -48.2 -10.35 -48.25 -3.3 -49.05 -0.9 -49.1 -0.3 -49.1 Q5.1 -49.0 10.3 -47.75 L12.35 -47.25 14.6 -46.55 16.0 -46.1 16.5 -46.1 17.3 -46.1 17.5 -46.1 23.8 -41.75 28.05 -37.75 28.1 -37.7 Q29.85 -35.8 30.7 -34.1 L30.65 -34.15 24.8 -38.65 Q16.3 -44.65 11.4 -44.65 L8.25 -45.1 4.95 -45.55 3.2 -45.8 1.5 -46.1 -3.85 -46.55 Q-9.85 -46.55 -25.0 -40.35 L-29.7 -38.35 M5.55 -4.05 L4.65 -3.5 Q2.5 -2.25 -0.1 -1.3 L-1.25 -1.25 Q-7.7 -1.25 -10.5 -4.65 -12.4 -7.0 -12.4 -10.65 L-12.05 -11.65 -11.75 -12.75 -11.75 -13.0 -10.6 -14.35 -10.65 -14.4 -10.25 -14.25 Q-6.8 -13.25 -0.55 -8.75 L5.55 -4.05 M-24.95 -16.75 L-24.75 -16.6 -25.7 -16.6 -24.95 -16.75 M15.65 -11.05 L15.5 -11.0 12.3 -9.15 Q5.45 -14.45 -0.9 -17.15 -7.95 -20.1 -20.35 -22.35 L-20.35 -22.15 Q-23.4 -22.85 -28.65 -20.55 -30.75 -19.6 -31.9 -18.85 -31.4 -20.9 -27.35 -23.7 L-27.15 -23.8 -27.3 -23.8 Q-31.15 -23.95 -33.35 -20.7 -35.9 -16.9 -38.05 -12.65 L-38.2 -12.35 -38.3 -12.1 -38.55 -11.65 -38.65 -11.35 -39.15 -10.2 -39.25 -9.95 -42.85 5.4 -42.55 1.1 -41.65 -6.25 Q-40.05 -17.75 -32.0 -24.5 L-28.15 -24.65 -28.15 -24.6 -27.9 -23.85 -26.85 -24.15 -27.05 -23.9 -26.75 -24.1 -26.5 -24.25 -24.55 -24.75 -16.25 -25.25 Q-1.3 -25.25 12.5 -13.8 L15.65 -11.05 M15.5 -2.3 L15.5 -2.2 15.75 0.7 Q15.95 1.75 16.3 2.45 L9.75 4.9 Q0.25 8.25 -6.5 9.05 L-6.5 9.0 -7.5 5.15 Q4.9 3.45 15.5 -2.3 M21.65 0.05 L21.05 -2.45 20.25 -5.15 24.2 -7.95 24.35 -7.25 24.1 -6.85 Q23.8 -6.8 23.8 -6.45 23.8 -5.95 25.05 -3.75 L25.95 -2.3 25.5 -1.95 21.75 0.0 21.65 0.05 M40.9 -16.4 Q38.25 -12.95 31.5 -7.0 L31.3 -7.7 29.7 -12.55 Q35.35 -17.85 39.35 -23.35 L39.7 -22.65 40.35 -21.2 Q40.35 -20.7 40.8 -19.8 L41.25 -18.3 41.35 -17.1 42.05 -18.15 40.9 -16.4 M42.25 -18.65 L42.2 -18.5 42.05 -19.15 42.25 -18.65 M40.05 -24.35 L40.3 -23.75 39.95 -24.2 40.05 -24.35 M27.45 -10.6 L27.5 -10.45 27.4 -10.45 27.4 -10.55 27.45 -10.6 M25.35 -8.85 L25.3 -8.1 25.15 -8.7 25.35 -8.85 M28.95 -4.8 L28.95 -4.85 29.05 -5.0 29.15 -4.95 28.95 -4.8 M-43.25 -9.75 L-43.25 -9.7 -43.4 -8.9 -43.25 -9.75 M-8.25 5.25 L-8.25 6.15 -8.4 6.15 -8.95 5.3 -8.25 5.25 M-11.95 5.6 L-11.05 8.65 -10.8 9.3 -13.5 9.3 -13.85 7.8 Q-14.15 6.45 -14.55 5.75 L-11.95 5.6 M-7.9 9.2 L-7.95 9.05 -7.8 9.2 -7.9 9.2 M-8.1 8.75 L-8.5 7.25 -8.2 8.45 -8.1 8.75 M-31.3 1.85 L-30.4 1.5 -30.15 1.95 -31.15 1.85 -31.3 1.85 M-19.0 9.05 L-21.1 8.7 Q-22.4 8.2 -23.3 5.45 L-19.85 5.75 -19.2 8.4 -19.0 9.05 M-34.55 35.95 L-32.45 35.9 -32.3 36.7 -32.65 37.1 -32.75 37.15 Q-33.9 37.5 -34.5 36.55 L-34.55 35.95 M-33.95 42.0 Q-33.95 43.0 -34.7 43.7 -35.4 44.4 -36.4 44.4 -37.4 44.4 -38.15 43.7 -38.85 43.0 -38.85 42.0 -38.85 41.0 -38.15 40.3 -37.4 39.6 -36.4 39.6 -35.4 39.6 -34.7 40.3 -33.95 41.0 -33.95 42.0 M-31.75 41.45 Q-32.15 41.0 -32.15 40.4 -32.15 39.8 -31.75 39.4 -31.3 38.95 -30.7 38.95 -30.1 38.95 -29.7 39.4 -29.25 39.8 -29.25 40.4 -29.25 41.0 -29.7 41.45 -30.1 41.85 -30.7 41.85 -31.3 41.85 -31.75 41.45 M-35.55 38.4 Q-35.55 38.8 -35.85 39.1 L-36.55 39.4 -37.25 39.1 -37.55 38.4 -37.25 37.7 Q-36.95 37.4 -36.55 37.4 -36.15 37.4 -35.85 37.7 -35.55 38.0 -35.55 38.4 M-31.35 45.4 L-31.95 45.65 -32.55 45.4 -32.8 44.8 -32.55 44.2 Q-32.3 43.95 -31.95 43.95 -31.6 43.95 -31.35 44.2 -31.1 44.45 -31.1 44.8 L-31.35 45.4" fill="#fef878" fill-rule="evenodd" stroke="none"/>
    <path d="M-37.85 -33.45 Q-36.2 -38.6 -34.8 -40.75 L-37.85 -33.45" fill="#666666" fill-rule="evenodd" stroke="none"/>
  </g>
</svg>
