<?xml version="1.0" encoding="UTF-8" standalone="no"?>
<svg xmlns:ffdec="https://www.free-decompiler.com/flash" xmlns:xlink="http://www.w3.org/1999/xlink" ffdec:objectType="shape" height="37.95px" width="38.8px" xmlns="http://www.w3.org/2000/svg">
  <g transform="matrix(1.0, 0.0, 0.0, 1.0, 17.5, 6.3)">
    <path d="M14.2 4.9 L20.2 10.65 Q21.3 11.9 21.3 13.8 21.3 22.3 19.2 24.5 18.1 25.65 11.65 27.2 L11.1 26.9 Q10.7 29.65 8.9 30.7 7.2 31.65 3.35 31.65 2.75 31.65 0.8 30.4 -1.2 29.1 -1.8 29.1 L-9.45 28.55 Q-13.9 27.45 -13.9 23.8 -13.9 22.3 -13.45 21.5 -12.4 19.65 -11.4 16.85 -14.85 16.05 -16.45 13.65 -17.5 12.0 -17.5 10.35 -17.5 9.7 -14.4 6.3 L-10.65 2.35 Q-11.35 4.0 -10.75 4.55 L-15.95 10.6 Q-15.95 12.35 -12.75 14.25 L-9.6 15.9 Q-9.6 16.9 -8.45 16.25 L-0.2 17.3 2.4 16.7 Q4.1 16.05 4.8 15.45 5.6 14.05 5.6 12.8 5.6 11.55 4.25 10.6 3.05 9.8 -1.65 7.6 L3.85 7.8 4.85 7.85 5.7 7.65 8.5 7.15 14.25 10.25 14.5 11.3 Q15.0 12.3 16.6 12.3 L18.2 12.35 17.25 13.35 16.55 13.7 16.95 15.15 17.25 18.6 17.4 18.65 17.25 19.35 14.5 13.2 Q11.8 8.65 8.2 8.65 L6.85 8.8 6.4 10.5 Q7.1 12.45 7.0 14.15 6.85 14.75 7.5 15.25 L8.3 16.15 Q9.2 17.45 10.3 22.0 11.15 25.7 12.1 25.7 L14.05 25.2 16.7 24.35 16.75 24.35 Q18.55 23.3 19.35 19.55 19.85 17.15 19.85 14.4 L19.55 12.8 18.9 11.55 18.7 11.35 16.2 9.1 12.3 5.8 14.2 4.9 M-11.6 22.0 L-12.35 23.65 -12.4 23.8 -11.05 25.5 -10.0 26.35 -10.0 26.4 Q-9.1 27.35 -5.75 28.2 L-2.2 27.75 -1.85 21.05 -2.0 19.8 -2.15 18.75 -5.25 18.5 -6.35 18.3 -9.95 17.35 -10.0 17.4 -11.6 22.0 M8.15 19.0 L6.75 17.65 5.65 16.75 Q5.25 16.75 4.95 17.3 4.6 18.0 0.9 18.7 L0.6 19.2 Q0.15 20.25 -0.25 23.15 L-0.7 27.7 1.3 29.4 Q2.95 30.4 4.35 30.15 7.35 30.3 8.7 28.85 9.6 27.85 9.6 26.5 9.6 23.35 8.15 19.0" fill="#5c4730" fill-rule="evenodd" stroke="none"/>
    <path d="M-8.0 6.0 L-9.35 7.7 -9.9 8.6 Q-9.9 9.75 -8.45 10.0 L-4.75 10.25 Q1.45 10.8 4.8 15.45 4.1 16.05 2.4 16.7 L-0.2 17.3 -8.45 16.25 Q-9.6 16.9 -9.6 15.9 L-12.75 14.25 Q-15.95 12.35 -15.95 10.6 L-10.75 4.55 -8.0 6.0 M-11.6 22.0 L-11.85 22.95 -11.05 25.5 -12.4 23.8 -12.35 23.65 -11.6 22.0 M-5.75 28.2 Q-7.95 26.5 -9.1 24.4 -9.85 23.0 -9.85 22.3 -9.85 19.9 -8.25 18.9 L-6.35 18.3 -5.25 18.5 -2.15 18.75 -2.0 19.8 -1.85 21.05 -2.2 27.75 -5.75 28.2 M8.15 19.0 Q9.6 23.35 9.6 26.5 9.6 27.85 8.7 28.85 7.35 30.3 4.35 30.15 3.3 28.9 2.25 26.45 1.35 24.4 1.35 24.05 1.35 22.0 3.6 20.55 5.6 19.25 8.15 19.0 M16.2 9.1 L18.7 11.35 Q17.65 11.35 16.95 10.7 16.2 10.05 16.2 9.1 M18.9 11.55 L19.55 12.8 19.85 14.4 Q19.85 17.15 19.35 19.55 18.55 23.3 16.75 24.35 L16.7 24.35 14.05 25.2 12.1 25.7 Q11.15 25.7 10.3 22.0 9.2 17.45 8.3 16.15 8.7 14.15 9.2 13.25 9.9 12.05 11.15 12.05 13.3 12.05 13.55 13.7 13.55 14.95 14.9 17.3 L16.95 20.5 17.05 20.65 Q18.1 18.9 18.6 17.4 19.5 14.6 18.9 11.55 M16.95 15.15 L16.55 13.7 17.25 13.35 16.95 15.15" fill="#ffcc99" fill-rule="evenodd" stroke="none"/>
    <path d="M4.8 15.45 Q1.45 10.8 -4.75 10.25 L-8.45 10.0 Q-9.9 9.75 -9.9 8.6 L-9.35 7.7 -8.0 6.0 -6.35 6.6 -1.65 7.6 Q3.05 9.8 4.25 10.6 5.6 11.55 5.6 12.8 5.6 14.05 4.8 15.45 M-11.05 25.5 L-11.85 22.95 -11.6 22.0 -10.0 17.4 -9.95 17.35 -6.35 18.3 -8.25 18.9 Q-9.85 19.9 -9.85 22.3 -9.85 23.0 -9.1 24.4 -7.95 26.5 -5.75 28.2 -9.1 27.35 -10.0 26.4 L-10.0 26.35 -11.05 25.5 M4.35 30.15 Q2.95 30.4 1.3 29.4 L-0.7 27.7 -0.25 23.15 Q0.15 20.25 0.6 19.2 L0.9 18.7 Q4.6 18.0 4.95 17.3 5.25 16.75 5.65 16.75 L6.75 17.65 8.15 19.0 Q5.6 19.25 3.6 20.55 1.35 22.0 1.35 24.05 1.35 24.4 2.25 26.45 3.3 28.9 4.35 30.15 M12.3 5.8 L16.2 9.1 Q16.2 10.05 16.95 10.7 17.65 11.35 18.7 11.35 L18.9 11.55 Q19.5 14.6 18.6 17.4 18.1 18.9 17.05 20.65 L16.95 20.5 14.9 17.3 Q13.55 14.95 13.55 13.7 13.3 12.05 11.15 12.05 9.9 12.05 9.2 13.25 8.7 14.15 8.3 16.15 L7.5 15.25 Q6.85 14.75 7.0 14.15 7.1 12.45 6.4 10.5 L6.85 8.8 8.2 8.65 Q11.8 8.65 14.5 13.2 L17.25 19.35 17.4 18.65 17.25 18.6 16.95 15.15 17.25 13.35 18.2 12.35 16.6 12.3 Q15.0 12.3 14.5 11.3 L14.25 10.25 8.5 7.15 12.3 5.8 M5.7 7.65 L4.85 7.85 3.85 7.8 5.7 7.65" fill="#f1ba87" fill-rule="evenodd" stroke="none"/>
    <path d="M2.4 -4.5 Q2.05 -3.85 1.6 -1.8 1.1 0.55 1.1 2.35 1.1 3.0 1.25 3.2 L1.65 3.75 Q2.05 3.1 3.0 -3.4 L2.4 -4.5 M5.15 -4.25 L4.85 -1.85 5.0 2.3 Q5.2 2.3 5.4 4.0 5.75 3.95 6.1 2.55 L6.4 0.45 Q6.4 -0.6 5.5 -3.25 L5.15 -4.25 M7.0 -3.0 L8.6 0.8 Q9.7 3.45 10.1 3.9 L10.85 4.0 Q11.15 4.15 11.15 3.15 11.15 0.5 9.6 -1.45 8.55 -2.75 7.35 -3.2 L7.0 -3.0 M-1.05 -5.85 L0.75 -6.05 2.4 -6.2 Q6.9 -5.95 10.6 -2.65 13.55 0.05 13.55 1.55 13.55 2.95 11.0 4.2 7.75 5.8 2.0 5.8 -2.35 5.8 -5.6 4.45 -8.75 3.15 -8.75 1.55 -8.75 1.05 -6.55 -1.5 -3.8 -4.7 -1.05 -5.85 M-1.6 -4.5 Q-2.45 -3.65 -2.95 -2.25 L-4.0 0.7 -3.35 1.4 Q-2.5 0.7 -1.75 -1.15 -1.05 -3.05 -1.25 -4.4 L-1.6 -4.5 M-5.75 1.9 Q-5.5 1.4 -5.75 1.1 L-6.65 2.25 -6.35 2.5 -5.75 1.9" fill="#7c370a" fill-rule="evenodd" stroke="none"/>
    <path d="M2.4 -6.2 Q7.15 -6.85 11.9 -3.6 16.55 -0.4 16.55 3.3 16.55 3.55 14.2 4.9 L12.3 5.8 8.5 7.15 5.7 7.65 3.85 7.8 -1.65 7.6 -6.35 6.6 -8.0 6.0 -10.75 4.55 Q-11.35 4.0 -10.65 2.35 -10.1 0.45 -7.2 -2.25 -3.95 -5.3 -1.05 -5.85 -3.8 -4.7 -6.55 -1.5 -8.75 1.05 -8.75 1.55 -8.75 3.15 -5.6 4.45 -2.35 5.8 2.0 5.8 7.75 5.8 11.0 4.2 13.55 2.95 13.55 1.55 13.55 0.05 10.6 -2.65 6.9 -5.95 2.4 -6.2" fill="#431e05" fill-rule="evenodd" stroke="none"/>
    <path d="M7.0 -3.0 L7.35 -3.2 Q8.55 -2.75 9.6 -1.45 11.15 0.5 11.15 3.15 11.15 4.15 10.85 4.0 L10.1 3.9 Q9.7 3.45 8.6 0.8 L7.0 -3.0 M5.15 -4.25 L5.5 -3.25 Q6.4 -0.6 6.4 0.45 L6.1 2.55 Q5.75 3.95 5.4 4.0 5.2 2.3 5.0 2.3 L4.85 -1.85 5.15 -4.25 M2.4 -4.5 L3.0 -3.4 Q2.05 3.1 1.65 3.75 L1.25 3.2 Q1.1 3.0 1.1 2.35 1.1 0.55 1.6 -1.8 2.05 -3.85 2.4 -4.5 M-5.75 1.9 L-6.35 2.5 -6.65 2.25 -5.75 1.1 Q-5.5 1.4 -5.75 1.9 M-1.6 -4.5 L-1.25 -4.4 Q-1.05 -3.05 -1.75 -1.15 -2.5 0.7 -3.35 1.4 L-4.0 0.7 -2.95 -2.25 Q-2.45 -3.65 -1.6 -4.5" fill="#a4490d" fill-rule="evenodd" stroke="none"/>
  </g>
</svg>
