<?xml version="1.0" encoding="UTF-8" standalone="no"?>
<svg xmlns:ffdec="https://www.free-decompiler.com/flash" xmlns:xlink="http://www.w3.org/1999/xlink" ffdec:objectType="shape" height="39.8px" width="120.9px" xmlns="http://www.w3.org/2000/svg">
  <g transform="matrix(1.0, 0.0, 0.0, 1.0, 54.7, -5.85)">
    <path d="M46.95 10.4 L43.8 12.7 46.5 10.95 44.3 13.1 Q46.4 13.0 48.1 13.7 L49.3 14.55 49.2 12.1 46.1 12.1 46.95 10.4 M54.85 24.65 Q52.7 18.0 45.8 16.2 L47.4 17.35 44.0 21.35 Q50.0 27.8 51.1 31.7 L51.05 31.75 47.4 26.15 48.15 27.45 46.55 26.0 Q44.9 24.65 44.75 25.05 43.6 24.4 43.35 23.65 L43.65 23.85 44.7 23.65 Q44.1 23.65 44.0 22.55 L44.0 21.4 41.35 23.75 36.9 26.7 34.95 28.3 Q33.85 28.9 31.05 27.3 32.35 26.55 34.35 24.2 36.7 21.4 37.45 19.05 38.7 15.2 39.5 11.35 40.2 9.5 43.35 9.5 50.25 9.5 55.3 12.7 61.75 16.85 63.15 25.4 L56.1 25.6 54.85 24.65 M44.05 13.6 Q43.1 13.25 42.6 13.6 L43.2 14.0 44.05 13.6 M44.45 28.9 L44.85 29.4 Q45.5 30.75 47.25 37.7 46.05 35.8 45.1 32.8 44.2 29.85 44.45 28.9 M36.25 33.1 L35.7 32.65 37.05 32.95 Q37.05 33.55 37.5 33.55 L36.25 33.1 M36.9 30.25 L36.9 29.15 39.45 34.2 37.3 31.4 37.15 32.2 Q36.85 30.95 36.9 30.25" fill="#b2b2b2" fill-rule="evenodd" stroke="none"/>
    <path d="M51.1 31.7 Q50.0 27.8 44.0 21.35 L47.4 17.35 45.8 16.2 Q52.7 18.0 54.85 24.65 L53.65 23.6 Q56.6 28.8 56.6 34.05 56.6 36.45 55.9 39.35 L51.35 30.0 51.1 31.7 M46.95 10.4 L46.1 12.1 49.2 12.1 49.3 14.55 48.1 13.7 Q46.4 13.0 44.3 13.1 L46.5 10.95 43.8 12.7 46.95 10.4 M31.05 27.3 Q33.85 28.9 34.95 28.3 L36.9 26.7 41.35 23.75 44.0 21.4 44.0 22.55 Q44.1 23.65 44.7 23.65 L43.65 23.85 43.35 23.65 Q43.6 24.4 44.75 25.05 44.9 24.65 46.55 26.0 L48.15 27.45 47.4 26.15 51.05 31.75 Q50.5 37.6 46.15 42.95 L41.2 31.3 Q41.15 34.05 39.0 36.2 37.05 38.25 34.95 38.25 34.45 38.25 33.4 34.95 32.05 30.9 29.6 28.45 L31.05 27.3 M44.05 13.6 L43.2 14.0 42.6 13.6 Q43.1 13.25 44.05 13.6 M44.45 28.9 Q44.2 29.85 45.1 32.8 46.05 35.8 47.25 37.7 45.5 30.75 44.85 29.4 L44.45 28.9 M36.9 30.25 Q36.85 30.95 37.15 32.2 L37.3 31.4 39.45 34.2 36.9 29.15 36.9 30.25 M36.25 33.1 L37.5 33.55 Q37.05 33.55 37.05 32.95 L35.7 32.65 36.25 33.1" fill="#cccccc" fill-rule="evenodd" stroke="none"/>
    <path d="M51.1 31.7 L51.35 30.0 55.9 39.35 Q56.6 36.45 56.6 34.05 56.6 28.8 53.65 23.6 L54.85 24.65 56.1 25.6 63.15 25.4 Q61.75 16.85 55.3 12.7 50.25 9.5 43.35 9.5 40.2 9.5 39.5 11.35 38.7 15.2 37.45 19.05 36.7 21.4 34.35 24.2 32.35 26.55 31.05 27.3 L29.6 28.45 Q32.05 30.9 33.4 34.95 34.45 38.25 34.95 38.25 37.05 38.25 39.0 36.2 41.15 34.05 41.2 31.3 L46.15 42.95 Q50.5 37.6 51.05 31.75 L51.1 31.7 M45.75 5.85 Q52.65 5.85 59.85 13.9 66.9 21.8 66.15 27.8 L58.7 28.15 Q59.05 28.15 59.35 30.05 L59.6 32.7 Q59.6 33.9 58.55 36.65 57.35 39.9 55.9 41.35 L51.6 35.5 46.05 45.65 Q45.45 45.2 43.2 41.7 L40.8 37.8 39.0 40.25 Q37.9 41.3 36.0 41.3 L35.05 41.2 34.1 40.7 32.9 39.9 32.65 39.6 29.2 27.8 Q33.4 24.9 35.45 17.55 36.65 13.15 36.65 10.15 36.65 8.55 39.85 7.15 42.85 5.85 45.75 5.85 M-40.4 37.9 L-39.95 40.8 -47.0 44.4 -48.1 43.7 -46.8 32.4 -52.7 34.95 Q-54.0 33.65 -54.0 32.65 -54.0 30.1 -52.9 28.25 L-48.3 22.3 -54.7 18.4 Q-54.5 15.8 -45.5 11.95 -36.85 8.25 -33.35 8.6 L-35.65 12.2 Q-36.6 12.3 -42.4 14.3 -48.7 16.45 -50.3 17.5 -48.5 18.1 -46.75 19.9 -45.15 21.55 -44.5 23.2 L-52.85 32.0 -45.15 28.9 -43.3 30.15 -47.15 42.15 -40.4 37.9" fill="#5d5d5d" fill-rule="evenodd" stroke="none"/>
    <path d="M-35.65 12.2 Q-38.6 19.45 -39.7 25.25 -40.5 29.35 -40.5 33.9 L-40.4 37.9 -47.15 42.15 -43.3 30.15 -45.15 28.9 -52.85 32.0 -44.5 23.2 Q-45.15 21.55 -46.75 19.9 -48.5 18.1 -50.3 17.5 -48.7 16.45 -42.4 14.3 -36.6 12.3 -35.65 12.2" fill="#b0b0b0" fill-rule="evenodd" stroke="none"/>
  </g>
</svg>
