<?xml version="1.0" encoding="UTF-8" standalone="no"?>
<svg xmlns:ffdec="https://www.free-decompiler.com/flash" xmlns:xlink="http://www.w3.org/1999/xlink" ffdec:objectType="shape" height="135.3px" width="63.05px" xmlns="http://www.w3.org/2000/svg">
  <g transform="matrix(1.0, 0.0, 0.0, 1.0, 0.0, 135.1)">
    <path d="M44.1 -50.45 L44.85 -52.3 45.25 -52.3 41.35 -42.75 41.5 -43.1 41.65 -42.7 41.4 -41.25 40.4 -40.05 40.4 -40.1 40.45 -40.35 40.35 -40.0 39.85 -39.4 39.7 -39.6 39.9 -40.4 40.3 -41.4 41.0 -42.75 42.4 -46.2 42.45 -46.25 44.1 -50.45 M43.8 -52.3 L43.0 -50.4 42.85 -50.0 36.95 -50.0 37.55 -52.3 43.8 -52.3 M13.05 -50.0 L12.1 -52.3 18.35 -52.3 18.9 -50.1 18.95 -50.0 13.05 -50.0 M19.4 -52.3 L21.9 -52.3 24.25 -42.85 24.0 -42.55 24.2 -42.75 24.2 -41.25 24.15 -41.1 24.15 -41.05 24.15 -41.2 22.55 -39.3 22.5 -38.4 Q22.35 -39.1 22.35 -40.05 L22.4 -40.6 22.3 -40.55 19.95 -50.15 19.4 -52.3 M27.45 -52.3 L25.05 -25.5 23.8 -25.5 25.3 -42.7 25.3 -42.8 25.25 -42.95 22.95 -52.3 27.45 -52.3 M44.25 -47.05 L47.45 -25.5 44.85 -25.5 42.35 -42.4 44.25 -47.05" fill="#b3470d" fill-rule="evenodd" stroke="none"/>
    <path d="M54.15 -56.3 L62.05 -83.8 62.05 -89.2 61.85 -92.3 9.75 -92.3 5.4 -77.1 1.2 -62.35 1.0 -61.35 1.0 -53.3 53.15 -53.3 54.15 -56.3 M63.05 -93.3 L63.05 -83.6 54.2 -52.3 47.55 -52.3 51.15 -28.0 48.35 -24.75 48.3 -24.7 48.05 -24.55 48.0 -24.55 47.9 -24.55 45.0 -24.55 48.1 -3.4 45.2 0.0 45.15 0.05 44.9 0.2 44.85 0.2 44.75 0.2 36.85 0.2 33.3 -39.45 33.3 -39.55 33.35 -39.6 36.5 -52.3 30.75 -52.3 28.6 -28.1 28.6 -27.95 25.95 -24.75 25.9 -24.7 25.85 -24.65 25.55 -24.55 25.45 -24.55 23.7 -24.55 21.8 -3.5 21.8 -3.35 19.0 0.0 18.95 0.05 18.9 0.1 18.6 0.2 18.5 0.2 10.5 0.2 16.3 -39.15 11.0 -52.3 0.0 -52.3 0.0 -61.7 8.85 -93.3 63.05 -93.3 M44.85 -52.3 L43.8 -52.3 37.55 -52.3 36.95 -50.0 34.3 -39.5 37.75 -0.8 44.25 -0.8 44.2 -1.2 44.25 -0.85 44.3 -0.8 Q44.7 -0.8 45.15 -1.3 L45.55 -1.9 45.15 -1.45 47.05 -3.7 41.45 -41.3 41.4 -41.25 41.65 -42.7 41.5 -43.1 41.35 -42.75 45.25 -52.3 44.85 -52.3 M18.35 -52.3 L12.1 -52.3 13.05 -50.0 17.35 -39.3 11.65 -0.8 18.1 -0.8 18.15 -1.4 18.15 -0.95 Q18.95 -0.95 19.5 -2.15 L20.85 -3.75 24.15 -41.1 24.2 -41.25 24.2 -42.75 24.0 -42.55 24.25 -42.85 21.9 -52.3 19.4 -52.3 18.35 -52.3 M27.45 -52.3 L22.95 -52.3 25.25 -42.95 25.3 -42.8 25.3 -42.7 23.8 -25.5 25.05 -25.5 27.45 -52.3 M44.25 -47.05 L42.35 -42.4 44.85 -25.5 47.45 -25.5 44.25 -47.05" fill="#6f2d09" fill-rule="evenodd" stroke="none"/>
    <path d="M43.0 -50.4 Q43.15 -49.8 43.5 -49.8 L43.8 -50.0 44.1 -50.45 42.45 -46.25 42.4 -46.2 41.0 -42.75 40.3 -41.4 39.9 -40.4 39.7 -39.6 39.85 -39.4 39.6 -39.1 45.15 -1.45 45.55 -1.9 45.15 -1.3 Q44.7 -0.8 44.3 -0.8 L44.25 -0.85 44.2 -1.2 38.55 -39.15 38.55 -39.2 38.6 -39.4 42.85 -50.0 43.0 -50.4 M19.5 -2.15 Q18.95 -0.95 18.15 -0.95 L18.15 -1.4 18.2 -1.55 21.55 -39.5 18.95 -50.0 18.9 -50.1 19.95 -50.15 22.3 -40.55 22.4 -40.6 22.35 -40.05 Q22.35 -39.1 22.5 -38.4 L22.5 -38.35 19.2 -1.8 19.5 -2.15" fill="#f2925e" fill-rule="evenodd" stroke="none"/>
    <path d="M44.1 -50.45 L43.8 -50.0 43.5 -49.8 Q43.15 -49.8 43.0 -50.4 L43.8 -52.3 44.85 -52.3 44.1 -50.45 M42.85 -50.0 L38.6 -39.4 38.55 -39.2 38.55 -39.15 44.2 -1.2 44.25 -0.8 37.75 -0.8 34.3 -39.5 36.95 -50.0 42.85 -50.0 M18.35 -52.3 L19.4 -52.3 19.95 -50.15 18.9 -50.1 18.35 -52.3 M18.15 -1.4 L18.1 -0.8 11.65 -0.8 17.35 -39.3 13.05 -50.0 18.95 -50.0 21.55 -39.5 18.2 -1.55 18.15 -1.4" fill="#ee671e" fill-rule="evenodd" stroke="none"/>
    <path d="M40.4 -40.05 L40.35 -40.0 40.45 -40.35 40.4 -40.1 40.4 -40.05" fill="#740c0c" fill-rule="evenodd" stroke="none"/>
    <path d="M45.15 -1.45 L39.6 -39.1 39.85 -39.4 40.35 -40.0 40.4 -40.05 41.4 -41.25 41.45 -41.3 47.05 -3.7 45.15 -1.45 M24.15 -41.1 L20.85 -3.75 19.5 -2.15 19.2 -1.8 22.5 -38.35 22.5 -38.4 22.55 -39.3 24.15 -41.2 24.15 -41.05 24.15 -41.1" fill="#c74f0e" fill-rule="evenodd" stroke="none"/>
    <path d="M54.15 -56.3 L53.15 -53.3 53.15 -61.35 1.0 -61.35 1.2 -62.35 53.3 -62.35 57.5 -77.1 61.85 -92.3 62.05 -89.2 54.15 -61.75 54.15 -56.3" fill="#f7aa86" fill-rule="evenodd" stroke="none"/>
    <path d="M62.05 -89.2 L62.05 -83.8 54.15 -56.3 54.15 -61.75 62.05 -89.2 M53.15 -53.3 L1.0 -53.3 1.0 -61.35 53.15 -61.35 53.15 -53.3 M47.35 -91.05 L60.45 -91.05 57.3 -81.3 47.35 -91.05 M12.9 -77.1 L12.85 -77.55 Q12.85 -81.05 18.5 -83.55 24.1 -86.05 32.0 -86.05 39.95 -86.05 45.55 -83.55 51.15 -81.05 51.15 -77.55 L51.15 -77.1 Q50.8 -73.9 45.55 -71.55 39.95 -69.05 32.0 -69.05 24.1 -69.05 18.5 -71.55 13.2 -73.9 12.9 -77.1 M52.6 -63.55 L37.0 -63.55 55.35 -73.3 52.6 -63.55 M51.65 -55.75 L45.45 -60.1 39.5 -55.35 32.9 -60.4 26.25 -55.6 19.9 -60.35 13.25 -55.6 7.3 -60.4 1.8 -55.9 1.65 -55.55 1.65 -55.35 1.75 -55.25 2.0 -55.0 7.3 -59.15 13.25 -54.4 19.9 -59.15 26.25 -54.4 32.9 -59.2 39.5 -54.1 45.5 -58.9 51.65 -54.8 51.65 -55.75 M11.25 -91.05 L24.35 -91.05 8.4 -81.05 11.25 -91.05 M3.0 -63.55 L5.65 -73.05 17.6 -63.55 3.0 -63.55" fill="#b91313" fill-rule="evenodd" stroke="none"/>
    <path d="M1.2 -62.35 L5.4 -77.1 12.9 -77.1 Q13.2 -73.9 18.5 -71.55 24.1 -69.05 32.0 -69.05 39.95 -69.05 45.55 -71.55 50.8 -73.9 51.15 -77.1 L57.5 -77.1 53.3 -62.35 1.2 -62.35 M52.6 -63.55 L55.35 -73.3 37.0 -63.55 52.6 -63.55 M3.0 -63.55 L17.6 -63.55 5.65 -73.05 3.0 -63.55" fill="#fb8739" fill-rule="evenodd" stroke="none"/>
    <path d="M5.4 -77.1 L9.75 -92.3 61.85 -92.3 57.5 -77.1 51.15 -77.1 51.15 -77.55 Q51.15 -81.05 45.55 -83.55 39.95 -86.05 32.0 -86.05 24.1 -86.05 18.5 -83.55 12.85 -81.05 12.85 -77.55 L12.9 -77.1 5.4 -77.1 M47.35 -91.05 L57.3 -81.3 60.45 -91.05 47.35 -91.05 M11.25 -91.05 L8.4 -81.05 24.35 -91.05 11.25 -91.05" fill="#fb7a24" fill-rule="evenodd" stroke="none"/>
    <path d="M51.65 -55.75 L51.65 -54.8 45.5 -58.9 39.5 -54.1 32.9 -59.2 26.25 -54.4 19.9 -59.15 13.25 -54.4 7.3 -59.15 2.0 -55.0 1.75 -55.25 1.65 -55.35 1.65 -55.55 1.8 -55.9 7.3 -60.4 13.25 -55.6 19.9 -60.35 26.25 -55.6 32.9 -60.4 39.5 -55.35 45.45 -60.1 51.65 -55.75" fill="#fb9937" fill-rule="evenodd" stroke="none"/>
    <path d="M36.8 -126.25 L36.1 -124.65 36.15 -124.65 36.8 -124.65 38.3 -124.75 Q38.95 -124.85 39.0 -125.3 39.05 -126.0 38.55 -126.4 L38.5 -126.45 38.05 -126.7 37.1 -126.55 36.85 -126.25 36.8 -126.25 M36.8 -126.7 L36.85 -126.75 Q37.4 -127.25 38.2 -126.95 L38.6 -126.75 39.05 -126.3 39.2 -126.0 39.3 -125.65 39.2 -124.95 38.75 -124.6 38.35 -124.45 36.8 -124.4 35.8 -124.4 35.75 -124.4 35.65 -124.55 36.55 -126.4 36.8 -126.7 M22.15 -110.85 L23.05 -110.3 23.1 -110.3 23.1 -110.15 23.1 -110.1 22.5 -109.8 21.85 -109.5 20.95 -109.1 20.55 -109.0 Q19.75 -109.05 19.4 -109.7 L19.25 -110.15 19.25 -110.5 19.6 -111.25 19.7 -111.3 Q20.1 -111.8 20.8 -111.65 L21.25 -111.45 22.15 -110.85 M22.45 -117.25 L23.4 -117.4 23.85 -117.2 24.45 -116.8 25.7 -116.05 25.7 -115.85 24.9 -115.5 24.25 -115.2 23.55 -114.9 23.15 -114.8 Q22.35 -114.85 22.0 -115.5 L21.85 -116.05 Q21.8 -116.45 22.05 -116.8 L22.2 -117.0 22.45 -117.25 M19.9 -111.1 Q19.25 -110.35 19.85 -109.55 L20.8 -109.45 21.8 -109.8 22.4 -110.1 22.65 -110.2 22.7 -110.2 22.25 -110.45 21.15 -111.2 20.7 -111.4 20.3 -111.4 19.9 -111.1 M30.65 -108.65 Q31.35 -108.75 31.7 -108.2 32.2 -107.45 31.75 -106.75 L31.7 -106.75 Q31.3 -106.15 30.55 -106.15 L30.15 -106.3 29.5 -106.7 29.05 -106.95 Q28.65 -107.15 28.3 -107.4 L28.25 -107.45 28.25 -107.55 29.0 -107.9 30.15 -108.55 30.6 -108.65 30.65 -108.65 M23.75 -116.95 L23.3 -117.15 22.6 -117.0 22.55 -116.95 22.5 -116.9 Q21.85 -116.1 22.45 -115.35 22.8 -114.95 23.4 -115.2 L24.2 -115.5 24.8 -115.8 25.25 -116.0 25.3 -116.0 24.6 -116.4 23.75 -116.95 M28.7 -107.45 L29.05 -107.2 29.6 -106.95 30.35 -106.5 Q30.85 -106.3 31.2 -106.65 31.75 -107.2 31.6 -107.75 L31.45 -108.1 Q31.2 -108.55 30.65 -108.4 L30.6 -108.35 30.2 -108.25 29.0 -107.6 28.7 -107.45 M25.1 -104.65 L25.3 -104.6 25.75 -104.4 27.6 -103.25 27.6 -103.05 26.2 -102.4 25.45 -102.05 25.05 -102.0 Q24.25 -102.0 23.9 -102.65 23.5 -103.5 24.1 -104.2 L24.2 -104.3 24.4 -104.45 25.1 -104.65 M24.65 -104.3 L24.4 -104.05 Q23.75 -103.3 24.35 -102.5 L25.3 -102.4 26.15 -102.7 27.15 -103.15 27.2 -103.15 25.65 -104.15 25.2 -104.35 24.65 -104.3" fill="#143617" fill-rule="evenodd" stroke="none"/>
    <path d="M35.8 -134.1 L36.7 -133.7 37.1 -133.5 37.2 -133.45 37.35 -133.25 Q37.65 -132.95 37.25 -132.45 36.5 -131.45 35.05 -131.6 L34.55 -131.75 34.45 -131.9 Q34.3 -132.05 34.3 -132.35 L34.3 -133.0 34.35 -134.6 35.8 -134.1 M36.8 -133.25 L36.6 -133.35 36.55 -133.35 35.4 -133.9 34.45 -134.4 35.9 -131.8 36.35 -132.0 37.05 -132.5 36.8 -133.25 M32.95 -128.55 L33.45 -128.2 Q34.0 -127.35 33.35 -126.6 L32.4 -126.5 32.0 -126.7 31.7 -126.8 30.5 -127.35 31.9 -128.25 32.1 -128.35 32.6 -128.55 32.95 -128.55 M33.35 -128.1 L33.25 -128.15 32.9 -128.25 32.4 -128.15 31.85 -127.8 30.75 -127.35 33.45 -127.15 33.5 -127.5 33.35 -128.1 M36.8 -126.25 L36.85 -126.25 37.1 -126.55 38.05 -126.7 38.5 -126.45 38.55 -126.4 Q39.05 -126.0 39.0 -125.3 38.95 -124.85 38.3 -124.75 L36.8 -124.65 36.15 -124.65 36.1 -124.65 36.8 -126.25 M37.25 -126.2 L36.85 -125.5 36.3 -124.75 38.75 -125.8 38.55 -126.1 38.25 -126.45 38.0 -126.55 Q37.45 -126.6 37.25 -126.2 M17.75 -123.05 L18.35 -122.85 Q18.95 -122.55 18.7 -121.9 18.25 -120.8 16.75 -120.65 16.0 -120.65 15.85 -121.25 L15.8 -121.45 15.7 -121.7 15.25 -123.5 16.5 -123.3 17.65 -123.05 17.75 -123.05 M17.9 -121.3 L18.5 -121.9 Q18.45 -122.5 17.75 -122.65 L16.8 -122.85 16.3 -123.05 15.4 -123.3 17.5 -121.0 17.9 -121.3 M14.65 -115.35 L14.85 -115.5 15.3 -115.65 15.45 -115.7 16.2 -115.6 16.55 -115.25 Q17.2 -114.15 16.25 -113.25 15.9 -112.85 15.45 -112.95 L15.1 -113.1 14.75 -113.3 Q13.75 -113.75 12.75 -114.35 L14.65 -115.35 M14.65 -114.9 L13.0 -114.35 16.45 -113.95 16.5 -114.3 16.4 -115.15 15.9 -115.35 15.35 -115.25 15.25 -115.2 14.65 -114.9 M19.8 -110.1 L22.45 -110.2 22.35 -110.25 Q21.85 -110.45 21.4 -110.7 L20.85 -111.0 Q20.35 -111.25 20.0 -111.0 L19.8 -110.4 19.8 -110.1 M19.9 -111.1 L20.3 -111.4 20.7 -111.4 21.15 -111.2 22.25 -110.45 22.7 -110.2 22.65 -110.2 22.4 -110.1 21.8 -109.8 20.8 -109.45 19.85 -109.55 Q19.25 -110.35 19.9 -111.1 M17.0 -106.2 L16.95 -106.15 16.5 -105.6 15.4 -104.5 18.7 -105.4 18.55 -105.8 18.05 -106.45 17.5 -106.45 17.0 -106.2 M16.35 -106.1 L16.45 -106.3 16.9 -106.6 16.9 -106.65 17.85 -106.75 18.1 -106.6 Q19.25 -105.85 18.9 -104.7 18.65 -104.05 17.9 -104.15 L17.25 -104.2 16.85 -104.25 15.15 -104.5 15.1 -104.5 16.35 -106.1 M19.0 -99.85 L19.15 -100.1 19.2 -100.2 Q19.6 -100.55 20.15 -100.35 L20.6 -100.1 Q21.15 -99.75 21.15 -99.05 21.1 -98.55 20.55 -98.55 L19.95 -98.45 19.35 -98.35 18.85 -98.35 18.4 -98.3 18.55 -98.6 18.75 -99.15 19.0 -99.85 M19.4 -99.8 L19.35 -99.7 18.95 -98.9 18.9 -98.8 18.6 -98.35 20.85 -99.55 20.65 -99.8 20.35 -100.1 20.1 -100.2 Q19.6 -100.2 19.4 -99.8 M36.05 -121.0 L36.5 -119.5 36.7 -118.75 36.75 -118.55 Q36.75 -118.05 36.15 -117.85 34.8 -117.45 33.75 -118.3 33.2 -118.75 33.6 -119.3 L33.65 -119.35 34.0 -119.65 34.55 -120.0 36.0 -121.0 36.05 -121.0 M34.2 -119.3 Q33.7 -118.95 33.95 -118.4 34.35 -118.15 34.8 -118.0 L35.25 -117.9 36.0 -120.75 35.1 -119.9 34.45 -119.45 34.2 -119.3 M31.95 -114.45 L32.2 -113.75 Q32.3 -113.1 31.65 -112.45 L30.5 -112.35 29.15 -113.0 28.15 -113.55 29.75 -114.45 30.25 -114.7 30.85 -114.9 Q31.6 -115.05 31.95 -114.45 M31.9 -113.55 L31.9 -113.85 31.8 -114.35 30.65 -114.45 29.6 -113.95 28.4 -113.55 31.85 -113.15 31.9 -113.55 M39.7 -114.25 L40.3 -114.1 41.3 -113.95 41.3 -113.9 40.45 -113.0 40.15 -112.7 39.9 -112.45 38.95 -112.35 Q38.1 -112.8 38.15 -113.55 L38.15 -113.75 38.5 -114.3 38.8 -114.4 39.3 -114.35 39.7 -114.25 M39.8 -113.9 L39.15 -114.0 38.6 -114.0 38.3 -113.75 38.35 -113.5 38.45 -113.1 38.6 -112.85 41.1 -113.8 40.35 -113.85 39.8 -113.9 M23.35 -121.8 Q22.7 -121.8 22.6 -121.3 22.7 -120.95 22.95 -120.7 L23.25 -120.35 25.55 -122.1 24.15 -121.9 23.6 -121.8 23.35 -121.8 M23.9 -122.2 L25.7 -122.2 24.95 -120.8 24.7 -120.35 24.6 -120.2 Q24.35 -119.9 23.75 -120.0 22.55 -120.25 22.35 -121.35 22.3 -121.9 22.9 -122.1 L23.05 -122.1 23.45 -122.2 23.9 -122.2 M23.75 -116.95 L24.6 -116.4 25.3 -116.0 25.25 -116.0 24.8 -115.8 24.2 -115.5 23.4 -115.2 Q22.8 -114.95 22.45 -115.35 21.85 -116.1 22.5 -116.9 L22.55 -116.95 22.6 -117.0 23.3 -117.15 23.75 -116.95 M22.95 -116.9 L22.6 -116.75 22.4 -116.2 22.4 -115.85 25.05 -116.0 24.7 -116.1 23.45 -116.75 22.95 -116.9 M29.0 -107.45 L28.85 -107.45 31.4 -107.15 31.45 -107.45 31.4 -107.75 31.3 -107.95 30.55 -108.05 30.5 -108.05 Q29.8 -107.7 29.0 -107.45 M28.7 -107.45 L29.0 -107.6 30.2 -108.25 30.6 -108.35 30.65 -108.4 Q31.2 -108.55 31.45 -108.1 L31.6 -107.75 Q31.75 -107.2 31.2 -106.65 30.85 -106.3 30.35 -106.5 L29.6 -106.95 29.05 -107.2 28.7 -107.45 M24.65 -104.3 L25.2 -104.35 25.65 -104.15 27.2 -103.15 27.15 -103.15 26.15 -102.7 25.3 -102.4 24.35 -102.5 Q23.75 -103.3 24.4 -104.05 L24.65 -104.3 M24.3 -103.05 L26.95 -103.15 25.85 -103.65 25.35 -103.95 Q24.85 -104.2 24.5 -103.95 L24.3 -103.35 24.3 -103.05 M30.35 -100.8 L30.15 -100.55 30.15 -100.45 29.2 -99.15 28.85 -98.8 32.0 -100.0 31.8 -100.4 31.65 -100.6 31.2 -100.95 30.35 -100.8 M30.0 -101.05 L30.3 -101.2 31.2 -101.1 31.95 -100.65 Q32.45 -100.15 32.35 -99.4 32.2 -98.7 31.45 -98.7 L29.8 -98.65 29.35 -98.65 28.6 -98.7 29.1 -99.55 29.65 -100.65 29.85 -100.85 30.0 -101.05 M39.85 -107.0 L40.2 -106.8 40.45 -106.55 41.9 -105.25 41.85 -105.2 40.25 -104.75 39.65 -104.65 39.6 -104.65 39.2 -104.55 Q38.45 -104.35 38.15 -104.95 37.75 -105.7 38.05 -106.35 L38.45 -106.95 38.8 -107.15 39.65 -107.1 39.85 -107.0 M38.6 -106.75 L38.3 -106.3 38.2 -106.05 38.15 -105.6 41.65 -105.3 40.4 -106.1 39.85 -106.5 39.75 -106.6 38.8 -106.8 38.6 -106.75 M37.15 -100.45 L37.3 -100.5 38.15 -100.4 38.3 -100.3 38.5 -100.1 38.5 -100.05 39.25 -98.95 39.5 -98.6 39.45 -98.6 39.2 -98.6 38.1 -98.5 37.2 -98.45 Q36.55 -98.45 36.45 -98.95 36.2 -99.85 37.1 -100.4 L37.15 -100.45 M37.2 -100.35 L36.75 -99.8 36.65 -99.5 39.2 -98.65 39.25 -98.65 39.2 -98.7 38.35 -99.65 38.2 -99.9 38.1 -100.0 37.35 -100.35 37.2 -100.35 M42.7 -132.0 L43.15 -132.1 43.8 -132.1 45.15 -132.1 45.2 -132.1 44.7 -131.0 44.3 -130.4 44.2 -130.25 44.1 -130.15 43.5 -130.1 Q42.4 -130.35 42.2 -131.25 L42.35 -131.75 42.7 -132.0 M42.7 -130.7 L42.95 -130.45 45.0 -131.95 44.05 -131.8 43.55 -131.75 43.05 -131.75 Q42.5 -131.75 42.4 -131.25 L42.7 -130.7 M45.45 -126.35 L45.5 -126.3 45.65 -126.25 46.7 -125.65 47.85 -125.05 47.9 -125.0 46.9 -124.45 45.85 -123.95 45.7 -123.9 45.1 -123.75 Q44.4 -123.55 44.05 -124.2 43.4 -125.25 44.35 -126.2 L44.85 -126.45 45.45 -126.35 M44.1 -125.1 L44.2 -124.3 45.3 -124.2 45.9 -124.4 46.85 -124.8 47.55 -125.1 44.15 -125.5 44.1 -125.1 M45.9 -119.05 L45.95 -119.0 46.85 -118.45 47.65 -117.85 47.6 -117.8 46.75 -117.5 46.05 -117.25 45.7 -117.15 45.2 -117.05 Q44.6 -117.05 44.35 -117.5 44.1 -118.35 44.8 -119.0 L45.15 -118.95 45.15 -119.2 45.9 -119.05 M46.1 -117.6 L46.75 -117.75 47.4 -117.85 44.65 -118.55 44.55 -118.3 44.5 -117.6 Q44.9 -117.2 45.45 -117.4 L46.1 -117.6 M44.0 -111.95 L44.25 -112.05 44.55 -112.05 44.8 -111.95 44.95 -111.85 45.85 -111.2 46.2 -110.9 45.7 -110.7 44.65 -110.3 44.6 -110.25 44.2 -110.2 Q43.7 -110.2 43.55 -110.65 43.25 -111.4 44.0 -111.95 M45.75 -110.85 L46.05 -110.95 43.8 -111.5 43.7 -111.25 43.65 -110.7 44.45 -110.55 44.75 -110.6 45.75 -110.85" fill="#aea486" fill-rule="evenodd" stroke="none"/>
    <path d="M36.8 -133.25 L37.05 -132.5 36.35 -132.0 35.9 -131.8 34.45 -134.4 35.4 -133.9 36.55 -133.35 36.6 -133.35 36.8 -133.25 M33.35 -128.1 L33.5 -127.5 33.45 -127.15 30.75 -127.35 31.85 -127.8 32.4 -128.15 32.9 -128.25 33.25 -128.15 33.35 -128.1 M37.25 -126.2 Q37.45 -126.6 38.0 -126.55 L38.25 -126.45 38.55 -126.1 38.75 -125.8 36.3 -124.75 36.85 -125.5 37.25 -126.2 M17.9 -121.3 L17.5 -121.0 15.4 -123.3 16.3 -123.05 16.8 -122.85 17.75 -122.65 Q18.45 -122.5 18.5 -121.9 L17.9 -121.3 M14.65 -114.9 L15.25 -115.2 15.35 -115.25 15.9 -115.35 16.4 -115.15 16.5 -114.3 16.45 -113.95 13.0 -114.35 14.65 -114.9 M19.8 -110.1 L19.8 -110.4 20.0 -111.0 Q20.35 -111.25 20.85 -111.0 L21.4 -110.7 Q21.85 -110.45 22.35 -110.25 L22.45 -110.2 19.8 -110.1 M17.0 -106.2 L17.5 -106.45 18.05 -106.45 18.55 -105.8 18.7 -105.4 15.4 -104.5 16.5 -105.6 16.95 -106.15 17.0 -106.2 M19.4 -99.8 Q19.6 -100.2 20.1 -100.2 L20.35 -100.1 20.65 -99.8 20.85 -99.55 18.6 -98.35 18.9 -98.8 18.95 -98.9 19.35 -99.7 19.4 -99.8 M34.2 -119.3 L34.45 -119.45 35.1 -119.9 36.0 -120.75 35.25 -117.9 34.8 -118.0 Q34.35 -118.15 33.95 -118.4 33.7 -118.95 34.2 -119.3 M31.9 -113.55 L31.85 -113.15 28.4 -113.55 29.6 -113.95 30.65 -114.45 31.8 -114.35 31.9 -113.85 31.9 -113.55 M39.8 -113.9 L40.35 -113.85 41.1 -113.8 38.6 -112.85 38.45 -113.1 38.35 -113.5 38.3 -113.75 38.6 -114.0 39.15 -114.0 39.8 -113.9 M23.35 -121.8 L23.6 -121.8 24.15 -121.9 25.55 -122.1 23.25 -120.35 22.95 -120.7 Q22.7 -120.95 22.6 -121.3 22.7 -121.8 23.35 -121.8 M22.95 -116.9 L23.45 -116.75 24.7 -116.1 25.05 -116.0 22.4 -115.85 22.4 -116.2 22.6 -116.75 22.95 -116.9 M29.0 -107.45 Q29.8 -107.7 30.5 -108.05 L30.55 -108.05 31.3 -107.95 31.4 -107.75 31.45 -107.45 31.4 -107.15 28.85 -107.45 29.0 -107.45 M24.3 -103.05 L24.3 -103.35 24.5 -103.95 Q24.85 -104.2 25.35 -103.95 L25.85 -103.65 26.95 -103.15 24.3 -103.05 M30.35 -100.8 L31.2 -100.95 31.65 -100.6 31.8 -100.4 32.0 -100.0 28.85 -98.8 29.2 -99.15 30.15 -100.45 30.15 -100.55 30.35 -100.8 M38.6 -106.75 L38.8 -106.8 39.75 -106.6 39.85 -106.5 40.4 -106.1 41.65 -105.3 38.15 -105.6 38.2 -106.05 38.3 -106.3 38.6 -106.75 M37.2 -100.35 L37.35 -100.35 38.1 -100.0 38.2 -99.9 38.35 -99.65 39.2 -98.7 39.25 -98.65 39.2 -98.65 36.65 -99.5 36.75 -99.8 37.2 -100.35 M42.7 -130.7 L42.4 -131.25 Q42.5 -131.75 43.05 -131.75 L43.55 -131.75 44.05 -131.8 45.0 -131.95 42.95 -130.45 42.7 -130.7 M44.1 -125.1 L44.15 -125.5 47.55 -125.1 46.85 -124.8 45.9 -124.4 45.3 -124.2 44.2 -124.3 44.1 -125.1 M46.1 -117.6 L45.45 -117.4 Q44.9 -117.2 44.5 -117.6 L44.55 -118.3 44.65 -118.55 47.4 -117.85 46.75 -117.75 46.1 -117.6 M45.75 -110.85 L44.75 -110.6 44.45 -110.55 43.65 -110.7 43.7 -111.25 43.8 -111.5 46.05 -110.95 45.75 -110.85" fill="#edebe4" fill-rule="evenodd" stroke="none"/>
    <path d="M21.95 -114.7 L21.9 -114.95 21.95 -114.85 21.95 -114.7" fill="#2f8437" fill-rule="evenodd" stroke="none"/>
    <path d="M39.2 -126.0 L39.05 -126.3 39.15 -126.25 39.2 -126.05 39.2 -126.0 M19.25 -110.5 L19.25 -110.95 19.3 -111.15 19.5 -111.25 19.7 -111.3 19.6 -111.25 19.25 -110.5 M32.65 -100.2 L32.75 -100.05 32.75 -99.95 32.65 -100.2 M22.05 -116.8 L22.25 -117.25 22.45 -117.25 22.2 -117.0 22.05 -116.8" fill="#236129" fill-rule="evenodd" stroke="none"/>
    <path d="M45.5 -97.65 L45.65 -97.4 45.5 -97.6 45.5 -97.65" fill="#df915b" fill-rule="evenodd" stroke="none"/>
    <path d="M18.55 -98.1 L19.6 -98.1 19.65 -98.05 19.6 -98.05 19.25 -97.65 19.0 -97.25 18.9 -97.25 17.95 -97.25 18.45 -98.0 18.55 -98.1 M19.95 -97.7 L21.25 -96.65 21.05 -96.6 19.75 -96.0 19.5 -96.6 19.45 -96.85 Q19.45 -97.35 19.95 -97.7 M40.0 -97.3 L40.9 -98.2 41.35 -98.85 Q44.15 -98.05 44.2 -96.85 L44.2 -96.6 43.9 -96.0 42.6 -96.6 41.95 -96.8 40.0 -97.3 M41.55 -99.25 L41.75 -99.6 Q44.3 -98.85 45.25 -97.9 L45.45 -97.7 45.5 -97.65 45.5 -97.6 45.65 -97.4 45.65 -97.3 45.7 -97.25 45.75 -97.0 44.65 -97.1 44.4 -97.7 44.05 -98.05 Q43.25 -98.7 41.55 -99.25 M44.45 -90.45 L41.3 -77.15 41.3 -77.05 Q41.0 -75.9 38.95 -74.95 L38.3 -74.65 38.05 -74.65 37.35 -74.4 36.6 -74.2 35.35 -73.9 34.35 -73.85 34.3 -73.85 33.55 -73.8 31.85 -73.7 31.1 -73.7 30.5 -73.75 29.4 -73.85 28.9 -73.9 28.5 -73.9 27.8 -74.05 27.35 -74.15 25.5 -74.65 24.65 -75.0 Q22.65 -75.9 22.35 -77.05 L22.35 -77.15 19.3 -90.4 21.75 -89.25 25.3 -88.3 25.45 -88.25 26.9 -88.05 28.45 -87.9 28.55 -87.9 29.0 -87.85 29.5 -87.8 31.8 -87.75 34.85 -87.85 35.05 -87.9 35.65 -87.95 36.7 -88.05 38.8 -88.4 40.25 -88.75 41.9 -89.25 Q43.45 -89.8 44.45 -90.45" fill="#3e3533" fill-rule="evenodd" stroke="none"/>
    <path d="M45.75 -93.05 L45.75 -92.9 Q45.65 -91.9 44.55 -91.05 L44.5 -90.95 44.45 -90.9 44.3 -90.8 43.4 -90.3 43.2 -90.2 43.1 -90.15 42.05 -89.7 41.8 -89.6 41.05 -89.35 36.95 -88.45 36.1 -88.3 34.6 -88.2 32.25 -88.1 31.8 -88.1 30.65 -88.1 27.45 -88.35 24.5 -88.8 23.75 -89.0 23.6 -89.05 22.65 -89.3 21.85 -89.6 21.05 -89.9 20.3 -90.25 Q19.7 -90.5 19.25 -90.8 L19.25 -90.85 19.15 -90.95 Q17.95 -91.85 17.85 -92.9 L17.85 -93.05 17.85 -95.55 18.25 -95.05 18.5 -94.8 Q19.15 -94.3 20.2 -93.75 20.6 -93.55 21.2 -93.3 L21.75 -93.1 21.7 -93.1 22.8 -92.75 22.85 -92.75 24.05 -92.4 24.9 -92.25 27.55 -91.85 27.7 -91.8 27.8 -91.8 30.45 -91.65 30.85 -91.65 31.8 -91.6 32.25 -91.6 34.55 -91.7 36.2 -91.85 36.45 -91.85 37.0 -91.95 40.8 -92.75 40.95 -92.8 41.4 -92.9 41.7 -93.05 41.85 -93.1 41.9 -93.1 43.0 -93.55 45.1 -94.8 45.35 -95.05 45.75 -95.5 45.75 -93.05" fill="#594d4a" fill-rule="evenodd" stroke="none"/>
    <path d="M45.75 -97.0 L45.75 -96.85 45.75 -96.4 Q45.6 -95.7 44.9 -95.05 43.85 -94.2 41.8 -93.45 L41.75 -93.45 40.7 -93.1 Q36.9 -91.95 31.8 -91.95 26.7 -91.95 22.95 -93.1 L21.85 -93.45 Q19.75 -94.2 18.75 -95.05 18.0 -95.7 17.85 -96.4 L17.85 -96.85 17.95 -97.25 18.9 -97.25 19.0 -97.25 19.0 -97.2 18.95 -96.85 19.0 -96.6 Q19.05 -96.05 19.5 -95.6 L19.5 -95.5 20.0 -95.05 Q20.95 -94.35 22.8 -93.7 24.95 -93.0 27.6 -92.7 L31.8 -92.45 36.05 -92.7 Q38.7 -93.0 40.8 -93.7 42.65 -94.35 43.65 -95.05 L44.15 -95.5 44.15 -95.55 44.65 -96.6 44.65 -96.85 44.65 -97.1 45.75 -97.0" fill="#7a6965" fill-rule="evenodd" stroke="none"/>
    <path d="M41.95 -99.95 Q46.3 -98.65 46.25 -96.85 L46.25 -93.05 46.25 -92.9 Q46.15 -91.75 44.95 -90.75 L41.75 -77.15 41.7 -77.05 Q41.35 -75.45 38.35 -74.35 35.55 -73.4 31.85 -73.4 28.15 -73.4 25.4 -74.35 22.3 -75.45 22.0 -77.05 L22.0 -77.15 18.8 -90.65 Q17.45 -91.7 17.4 -92.9 L17.4 -93.05 17.4 -96.85 Q17.4 -97.5 18.0 -98.15 L18.05 -98.05 18.1 -98.1 18.55 -98.1 18.45 -98.0 17.95 -97.25 17.85 -96.85 17.85 -96.4 Q18.0 -95.7 18.75 -95.05 19.75 -94.2 21.85 -93.45 L22.95 -93.1 Q26.7 -91.95 31.8 -91.95 36.9 -91.95 40.7 -93.1 L41.75 -93.45 41.8 -93.45 Q43.85 -94.2 44.9 -95.05 45.6 -95.7 45.75 -96.4 L45.75 -96.85 45.75 -97.0 45.7 -97.25 45.65 -97.3 45.65 -97.4 45.5 -97.65 45.45 -97.7 45.25 -97.9 Q44.3 -98.85 41.75 -99.6 L41.95 -99.95 M19.65 -98.05 L19.95 -97.7 Q19.45 -97.35 19.45 -96.85 L19.5 -96.6 19.75 -96.0 21.05 -96.6 21.25 -96.65 21.3 -96.6 21.65 -96.3 20.05 -95.65 20.9 -95.05 21.4 -94.75 Q22.05 -94.45 23.0 -94.15 25.05 -93.45 27.65 -93.15 L31.8 -92.9 35.95 -93.15 40.65 -94.15 Q41.9 -94.55 42.75 -95.0 L42.8 -95.05 43.0 -95.2 43.5 -95.55 43.55 -95.65 41.75 -96.4 41.2 -96.6 39.3 -97.0 40.0 -97.3 41.95 -96.8 42.6 -96.6 43.9 -96.0 44.2 -96.6 44.2 -96.85 Q44.15 -98.05 41.35 -98.85 L41.55 -99.25 Q43.25 -98.7 44.05 -98.05 L44.4 -97.7 44.65 -97.1 44.65 -96.85 44.65 -96.6 44.15 -95.55 44.15 -95.5 43.65 -95.05 Q42.65 -94.35 40.8 -93.7 38.7 -93.0 36.05 -92.7 L31.8 -92.45 27.6 -92.7 Q24.95 -93.0 22.8 -93.7 20.95 -94.35 20.0 -95.05 L19.5 -95.5 19.5 -95.6 Q19.05 -96.05 19.0 -96.6 L18.95 -96.85 19.0 -97.2 19.0 -97.25 19.25 -97.65 19.6 -98.05 19.65 -98.05 M45.75 -93.05 L45.75 -95.5 45.35 -95.05 45.1 -94.8 43.0 -93.55 41.9 -93.1 41.85 -93.1 41.7 -93.05 41.4 -92.9 40.95 -92.8 40.8 -92.75 37.0 -91.95 36.45 -91.85 36.2 -91.85 34.55 -91.7 32.25 -91.6 31.8 -91.6 30.85 -91.65 30.45 -91.65 27.8 -91.8 27.7 -91.8 27.55 -91.85 24.9 -92.25 24.05 -92.4 22.85 -92.75 22.8 -92.75 21.7 -93.1 21.75 -93.1 21.2 -93.3 Q20.6 -93.55 20.2 -93.75 19.15 -94.3 18.5 -94.8 L18.25 -95.05 17.85 -95.55 17.85 -93.05 17.85 -92.9 Q17.95 -91.85 19.15 -90.95 L19.25 -90.85 19.25 -90.8 Q19.7 -90.5 20.3 -90.25 L21.05 -89.9 21.85 -89.6 22.65 -89.3 23.6 -89.05 23.75 -89.0 24.5 -88.8 27.45 -88.35 30.65 -88.1 31.8 -88.1 32.25 -88.1 34.6 -88.2 36.1 -88.3 36.95 -88.45 41.05 -89.35 41.8 -89.6 42.05 -89.7 43.1 -90.15 43.2 -90.2 43.4 -90.3 44.3 -90.8 44.45 -90.9 44.5 -90.95 44.55 -91.05 Q45.65 -91.9 45.75 -92.9 L45.75 -93.05 M44.45 -90.45 Q43.45 -89.8 41.9 -89.25 L40.25 -88.75 38.8 -88.4 36.7 -88.05 35.65 -87.95 35.05 -87.9 34.85 -87.85 31.8 -87.75 29.5 -87.8 29.0 -87.85 28.55 -87.9 28.45 -87.9 26.9 -88.05 25.45 -88.25 25.3 -88.3 21.75 -89.25 19.3 -90.4 22.35 -77.15 22.35 -77.05 Q22.65 -75.9 24.65 -75.0 L25.5 -74.65 27.35 -74.15 27.8 -74.05 28.5 -73.9 28.9 -73.9 29.4 -73.85 30.5 -73.75 31.1 -73.7 31.85 -73.7 33.55 -73.8 34.3 -73.85 34.35 -73.85 35.35 -73.9 36.6 -74.2 37.35 -74.4 38.05 -74.65 38.3 -74.65 38.95 -74.95 Q41.0 -75.9 41.3 -77.05 L41.3 -77.15 44.45 -90.45" fill="#1c1817" fill-rule="evenodd" stroke="none"/>
    <path d="M18.0 -98.15 L17.95 -98.15 18.6 -99.45 Q17.8 -100.7 17.4 -102.2 L16.95 -103.85 14.65 -104.25 14.55 -104.25 14.5 -104.4 16.2 -106.5 16.25 -106.5 15.9 -107.65 Q15.1 -110.2 14.8 -112.8 13.5 -113.5 12.15 -114.3 L12.1 -114.35 12.15 -114.5 Q13.5 -115.1 14.65 -115.8 14.65 -118.45 15.45 -120.95 L15.35 -121.2 Q15.0 -122.5 14.8 -123.75 L14.8 -123.85 14.95 -123.95 16.75 -123.55 Q18.05 -124.8 20.6 -124.3 22.15 -124.1 23.05 -123.15 L23.65 -122.5 26.05 -122.55 26.2 -122.4 25.25 -120.35 Q27.15 -117.35 27.6 -113.75 L27.65 -113.75 Q28.35 -117.2 31.2 -119.75 L31.5 -119.95 Q31.25 -123.2 31.65 -126.45 L30.05 -127.35 30.0 -127.35 30.05 -127.5 32.0 -128.55 Q32.45 -130.55 33.8 -132.35 L33.95 -135.0 34.0 -135.05 34.2 -135.1 Q35.2 -134.6 36.25 -134.25 L38.65 -134.4 41.9 -133.7 43.6 -132.35 45.5 -132.4 45.6 -132.3 45.6 -132.25 44.9 -130.75 Q45.7 -129.5 46.15 -128.05 L46.6 -126.15 48.45 -125.1 48.45 -125.0 48.45 -124.85 46.9 -124.15 Q47.1 -122.15 46.95 -120.05 L46.85 -118.8 48.05 -117.85 48.1 -117.75 48.05 -117.65 46.7 -117.2 46.1 -112.8 45.9 -111.5 46.6 -110.85 46.65 -110.85 46.6 -110.75 45.65 -110.4 44.3 -105.55 Q43.4 -102.65 41.95 -99.95 L41.75 -99.6 41.55 -99.25 41.35 -98.85 40.9 -98.2 40.0 -97.3 39.3 -97.0 38.25 -97.0 38.0 -96.6 Q37.35 -95.65 36.55 -95.05 35.55 -94.4 34.25 -94.25 L33.6 -94.2 Q31.65 -94.1 30.25 -95.05 L29.95 -95.25 29.65 -95.55 28.85 -96.6 28.5 -97.3 27.0 -96.6 Q25.65 -95.95 24.15 -95.8 L22.65 -95.6 21.65 -96.3 21.3 -96.6 21.25 -96.65 19.95 -97.7 19.65 -98.05 19.6 -98.1 18.55 -98.1 18.1 -98.1 18.05 -98.05 18.0 -98.15 M35.8 -134.1 L34.35 -134.6 34.3 -133.0 34.3 -132.35 Q34.3 -132.05 34.45 -131.9 L34.55 -131.75 35.05 -131.6 Q36.5 -131.45 37.25 -132.45 37.65 -132.95 37.35 -133.25 L37.2 -133.45 37.1 -133.5 36.7 -133.7 35.8 -134.1 M37.7 -132.25 Q36.95 -131.3 35.5 -131.2 L34.65 -131.3 34.2 -131.55 33.5 -130.25 33.05 -128.8 33.7 -128.4 33.75 -128.35 33.95 -128.05 Q34.2 -127.4 33.8 -126.75 33.45 -126.1 32.6 -126.1 L32.2 -126.2 32.05 -126.25 Q32.1 -125.75 32.3 -125.25 L32.4 -125.0 32.4 -122.85 32.55 -120.0 33.95 -120.05 36.05 -121.45 36.25 -121.45 36.3 -121.35 37.05 -119.25 38.65 -117.95 Q39.85 -116.6 40.15 -114.95 L40.25 -114.4 41.7 -114.15 41.75 -114.0 41.75 -113.95 40.5 -112.6 40.6 -110.15 40.5 -107.0 42.0 -105.65 42.5 -105.3 42.5 -105.15 42.4 -105.1 41.75 -104.85 40.2 -104.4 39.6 -100.5 39.5 -100.15 39.45 -99.75 39.35 -99.4 39.35 -99.35 39.95 -98.55 39.85 -98.4 39.8 -98.35 39.1 -98.3 38.95 -97.75 39.55 -97.8 40.35 -98.2 40.75 -99.05 40.9 -99.4 41.1 -99.75 41.25 -100.15 43.7 -107.0 44.5 -110.0 44.45 -110.0 44.2 -109.95 Q43.5 -110.0 43.25 -110.6 43.05 -111.1 43.35 -111.65 L43.55 -111.95 Q44.0 -112.35 44.55 -112.3 L44.75 -112.3 45.0 -112.2 45.65 -116.0 45.85 -116.3 46.05 -117.0 45.7 -116.9 45.2 -116.75 Q44.3 -116.75 44.05 -117.4 43.75 -118.15 44.2 -118.8 L44.35 -119.0 44.4 -119.05 Q44.7 -119.45 45.15 -119.5 L45.8 -119.55 45.95 -119.5 45.85 -123.55 45.8 -123.55 45.7 -123.5 45.2 -123.35 Q44.1 -123.2 43.65 -124.0 43.05 -125.0 43.75 -126.05 L44.1 -126.4 44.55 -126.7 45.3 -126.8 45.35 -126.75 45.05 -128.05 44.35 -129.95 44.05 -129.85 43.0 -129.95 Q42.15 -130.3 41.9 -131.0 L41.85 -131.25 41.9 -131.65 42.45 -132.15 Q41.45 -133.0 40.1 -133.5 L37.55 -133.6 37.9 -133.0 37.9 -132.85 37.7 -132.25 M32.95 -128.55 L32.6 -128.55 32.1 -128.35 31.9 -128.25 30.5 -127.35 31.7 -126.8 32.0 -126.7 32.4 -126.5 33.35 -126.6 Q34.0 -127.35 33.45 -128.2 L32.95 -128.55 M19.2 -122.45 L19.2 -121.85 19.15 -121.8 Q18.7 -120.75 17.35 -120.4 16.35 -120.15 15.7 -120.65 15.2 -119.55 15.2 -118.1 L15.3 -116.05 15.4 -116.05 16.65 -115.75 16.75 -115.65 16.95 -115.4 Q17.6 -114.4 16.9 -113.35 16.45 -112.65 15.5 -112.6 L15.75 -111.85 16.0 -110.6 16.8 -107.0 18.4 -106.95 Q19.15 -106.4 19.35 -105.65 L19.4 -105.05 Q19.35 -104.15 18.35 -103.8 L17.8 -103.75 17.45 -103.8 17.7 -103.45 Q18.2 -101.85 19.0 -100.35 L19.0 -100.4 Q19.5 -100.85 20.25 -100.6 21.2 -100.2 21.45 -99.4 L21.5 -99.25 Q21.55 -98.65 20.95 -98.3 L20.55 -98.15 20.25 -98.15 20.45 -97.95 Q20.45 -97.9 20.55 -97.9 L21.35 -96.9 21.85 -96.85 23.4 -96.85 25.2 -97.2 26.4 -97.7 27.5 -98.6 Q28.05 -99.15 28.1 -99.95 L28.05 -100.3 28.05 -100.4 28.05 -100.65 28.0 -101.05 27.45 -105.95 26.8 -111.05 26.35 -114.65 Q26.1 -117.4 24.65 -119.65 L24.7 -119.75 23.2 -119.8 Q22.15 -120.3 22.0 -121.25 21.95 -121.85 22.35 -122.15 L22.6 -122.3 21.55 -123.25 Q20.5 -124.15 19.0 -123.9 L18.0 -123.35 18.55 -123.15 19.2 -122.45 M17.75 -123.05 L17.65 -123.05 16.5 -123.3 15.25 -123.5 15.7 -121.7 15.8 -121.45 15.85 -121.25 Q16.0 -120.65 16.75 -120.65 18.25 -120.8 18.7 -121.9 18.95 -122.55 18.35 -122.85 L17.75 -123.05 M14.65 -115.35 L12.75 -114.35 Q13.75 -113.75 14.75 -113.3 L15.1 -113.1 15.45 -112.95 Q15.9 -112.85 16.25 -113.25 17.2 -114.15 16.55 -115.25 L16.2 -115.6 15.45 -115.7 15.3 -115.65 14.85 -115.5 14.65 -115.35 M16.35 -106.1 L15.1 -104.5 15.15 -104.5 16.85 -104.25 17.25 -104.2 17.9 -104.15 Q18.65 -104.05 18.9 -104.7 19.25 -105.85 18.1 -106.6 L17.85 -106.75 16.9 -106.65 16.9 -106.6 16.45 -106.3 16.35 -106.1 M19.0 -99.85 L18.75 -99.15 18.55 -98.6 18.4 -98.3 18.85 -98.35 19.35 -98.35 19.95 -98.45 20.55 -98.55 Q21.1 -98.55 21.15 -99.05 21.15 -99.75 20.6 -100.1 L20.15 -100.35 Q19.6 -100.55 19.2 -100.2 L19.15 -100.1 19.0 -99.85 M36.05 -121.0 L36.0 -121.0 34.55 -120.0 34.0 -119.65 33.65 -119.35 33.6 -119.3 Q33.2 -118.75 33.75 -118.3 34.8 -117.45 36.15 -117.85 36.75 -118.05 36.75 -118.55 L36.7 -118.75 36.5 -119.5 36.05 -121.0 M38.45 -114.55 L38.75 -114.65 39.3 -114.6 39.6 -114.5 Q38.95 -116.6 37.15 -118.25 L36.95 -117.9 36.8 -117.8 Q36.45 -117.5 35.8 -117.4 34.4 -117.25 33.4 -118.05 L33.05 -118.65 Q32.95 -119.0 33.15 -119.35 L32.85 -119.4 Q29.1 -117.45 28.25 -114.0 L29.9 -114.9 30.15 -115.1 30.8 -115.3 Q31.85 -115.4 32.35 -114.65 L32.6 -114.1 32.65 -113.25 32.3 -112.6 Q31.8 -111.8 30.7 -111.8 30.45 -111.85 30.2 -112.0 L29.3 -112.5 29.25 -112.55 Q28.65 -112.85 28.1 -113.2 L28.0 -111.6 28.3 -104.5 28.75 -101.1 28.8 -100.7 28.9 -100.4 28.95 -100.05 29.3 -100.85 29.65 -101.25 29.7 -101.3 30.2 -101.55 31.45 -101.5 32.5 -100.55 32.5 -100.5 32.65 -100.2 32.75 -99.95 32.75 -99.75 32.75 -99.3 Q32.65 -98.75 31.95 -98.4 L31.4 -98.3 29.9 -98.35 29.45 -98.35 29.55 -98.0 29.65 -97.65 29.75 -97.35 30.1 -96.6 Q30.6 -95.65 31.5 -95.2 L31.85 -95.05 33.95 -94.9 34.0 -94.9 34.55 -95.05 Q35.95 -95.5 36.75 -96.6 L36.9 -96.8 36.95 -96.8 37.3 -97.2 37.6 -97.45 37.65 -97.65 37.8 -97.8 37.95 -98.15 37.25 -98.15 36.85 -98.2 Q36.05 -98.55 36.05 -99.25 36.1 -99.95 36.6 -100.4 L37.0 -100.7 37.35 -100.85 38.35 -100.65 38.4 -100.65 38.65 -100.4 38.75 -100.65 39.6 -104.2 39.5 -104.15 39.4 -104.15 38.85 -104.1 Q37.8 -104.3 37.55 -105.2 37.35 -105.85 37.65 -106.45 L38.05 -107.05 38.15 -107.2 38.8 -107.5 39.85 -107.45 39.9 -107.4 40.0 -111.8 40.15 -112.2 39.85 -112.05 Q39.1 -111.8 38.45 -112.3 L37.95 -112.85 Q37.7 -113.3 37.8 -113.8 37.9 -114.4 38.45 -114.55 M31.95 -114.45 Q31.6 -115.05 30.85 -114.9 L30.25 -114.7 29.75 -114.45 28.15 -113.55 29.15 -113.0 30.5 -112.35 31.65 -112.45 Q32.3 -113.1 32.2 -113.75 L31.95 -114.45 M39.7 -114.25 L39.3 -114.35 38.8 -114.4 38.5 -114.3 38.15 -113.75 38.15 -113.55 Q38.1 -112.8 38.95 -112.35 L39.9 -112.45 40.15 -112.7 40.45 -113.0 41.3 -113.9 41.3 -113.95 40.3 -114.1 39.7 -114.25 M23.9 -122.2 L23.45 -122.2 23.05 -122.1 22.9 -122.1 Q22.3 -121.9 22.35 -121.35 22.55 -120.25 23.75 -120.0 24.35 -119.9 24.6 -120.2 L24.7 -120.35 24.95 -120.8 25.7 -122.2 23.9 -122.2 M30.0 -101.05 L29.85 -100.85 29.65 -100.65 29.1 -99.55 28.6 -98.7 29.35 -98.65 29.8 -98.65 31.45 -98.7 Q32.2 -98.7 32.35 -99.4 32.45 -100.15 31.95 -100.65 L31.2 -101.1 30.3 -101.2 30.0 -101.05 M39.85 -107.0 L39.65 -107.1 38.8 -107.15 38.45 -106.95 38.05 -106.35 Q37.75 -105.7 38.15 -104.95 38.45 -104.35 39.2 -104.55 L39.6 -104.65 39.65 -104.65 40.25 -104.75 41.85 -105.2 41.9 -105.25 40.45 -106.55 40.2 -106.8 39.85 -107.0 M37.15 -100.45 L37.1 -100.4 Q36.2 -99.85 36.45 -98.95 36.55 -98.45 37.2 -98.45 L38.1 -98.5 39.2 -98.6 39.45 -98.6 39.5 -98.6 39.25 -98.95 38.5 -100.05 38.5 -100.1 38.3 -100.3 38.15 -100.4 37.3 -100.5 37.15 -100.45 M42.7 -132.0 L42.35 -131.75 42.2 -131.25 Q42.4 -130.35 43.5 -130.1 L44.1 -130.15 44.2 -130.25 44.3 -130.4 44.7 -131.0 45.2 -132.1 45.15 -132.1 43.8 -132.1 43.15 -132.1 42.7 -132.0 M45.45 -126.35 L44.85 -126.45 44.35 -126.2 Q43.4 -125.25 44.05 -124.2 44.4 -123.55 45.1 -123.75 L45.7 -123.9 45.85 -123.95 46.9 -124.45 47.9 -125.0 47.85 -125.05 46.7 -125.65 45.65 -126.25 45.5 -126.3 45.45 -126.35 M45.9 -119.05 L45.15 -119.2 45.15 -118.95 44.8 -119.0 Q44.1 -118.35 44.35 -117.5 44.6 -117.05 45.2 -117.05 L45.7 -117.15 46.05 -117.25 46.75 -117.5 47.6 -117.8 47.65 -117.85 46.85 -118.45 45.95 -119.0 45.9 -119.05 M44.0 -111.95 Q43.25 -111.4 43.55 -110.65 43.7 -110.2 44.2 -110.2 L44.6 -110.25 44.65 -110.3 45.7 -110.7 46.2 -110.9 45.85 -111.2 44.95 -111.85 44.8 -111.95 44.55 -112.05 44.25 -112.05 44.0 -111.95" fill="#223713" fill-rule="evenodd" stroke="none"/>
    <path d="M34.65 -131.3 L35.5 -131.2 Q36.95 -131.3 37.7 -132.25 L37.7 -131.8 37.4 -130.75 36.9 -129.7 36.55 -128.95 36.2 -128.75 35.75 -129.15 35.45 -129.5 35.15 -129.85 34.95 -130.3 34.75 -130.65 34.75 -130.7 34.65 -131.3 M41.9 -131.0 Q42.15 -130.3 43.0 -129.95 L44.05 -129.85 44.05 -129.75 43.85 -129.3 43.7 -129.05 43.55 -128.7 43.3 -128.35 Q43.15 -127.75 42.6 -127.75 42.3 -127.75 42.2 -128.0 L42.15 -128.45 Q42.0 -128.7 42.0 -129.15 L41.9 -130.55 41.9 -131.0 M44.1 -126.4 L43.75 -126.05 Q43.05 -125.0 43.65 -124.0 44.1 -123.2 45.2 -123.35 L45.7 -123.5 45.65 -123.2 45.25 -122.4 45.15 -122.15 45.1 -122.05 45.0 -122.0 44.8 -121.85 44.7 -121.7 44.4 -121.7 Q43.8 -121.7 43.5 -122.5 L43.3 -123.4 43.25 -124.3 43.25 -124.75 43.1 -125.1 43.45 -125.85 44.0 -126.4 44.1 -126.4 M44.2 -118.8 Q43.75 -118.15 44.05 -117.4 44.3 -116.75 45.2 -116.75 L45.7 -116.9 46.05 -117.0 45.85 -116.3 45.65 -116.0 44.9 -115.15 Q44.6 -114.9 44.35 -114.9 43.95 -114.9 43.95 -115.35 L43.75 -115.85 43.8 -118.1 44.0 -118.45 44.05 -118.7 44.2 -118.8 M43.35 -111.65 Q43.05 -111.1 43.25 -110.6 43.5 -110.0 44.2 -109.95 L44.45 -110.0 44.4 -109.95 44.0 -109.35 43.25 -108.9 Q42.9 -108.9 42.9 -109.0 L42.95 -109.3 42.95 -109.7 Q42.95 -111.05 43.25 -111.55 L43.35 -111.65 M32.4 -125.0 L32.3 -125.25 Q32.1 -125.75 32.05 -126.25 L32.2 -126.2 32.6 -126.1 Q33.45 -126.1 33.8 -126.75 34.2 -127.4 33.95 -128.05 34.35 -127.7 34.2 -126.45 34.15 -123.75 33.5 -123.75 L33.05 -123.9 32.65 -124.5 32.4 -125.0 M36.8 -124.4 L38.35 -124.45 38.75 -124.6 39.2 -124.95 39.05 -123.45 38.7 -122.6 38.45 -122.15 38.0 -121.8 37.95 -121.8 Q37.65 -121.8 37.5 -121.95 L37.3 -122.45 37.0 -123.1 36.9 -123.8 36.85 -123.95 36.8 -124.0 36.8 -124.4 M19.2 -121.85 L19.25 -121.8 19.3 -121.5 19.15 -119.3 18.9 -118.9 18.75 -118.55 18.35 -118.1 Q18.0 -117.8 17.8 -117.8 17.55 -117.8 17.3 -118.05 L17.0 -118.35 16.9 -118.45 16.25 -119.2 15.95 -119.85 15.7 -120.65 Q16.35 -120.15 17.35 -120.4 18.7 -120.75 19.15 -121.8 L19.2 -121.85 M16.75 -115.65 Q17.4 -115.55 17.6 -113.9 L17.65 -111.75 Q17.65 -110.7 17.35 -110.4 L17.05 -110.3 Q16.9 -110.3 16.45 -110.65 L15.75 -111.85 15.5 -112.6 Q16.45 -112.65 16.9 -113.35 17.6 -114.4 16.95 -115.4 L16.75 -115.65 M19.35 -105.65 Q20.1 -104.25 20.1 -102.85 L20.1 -102.8 Q20.1 -101.65 19.75 -101.65 L19.15 -102.05 18.65 -102.45 17.85 -103.35 17.7 -103.45 17.45 -103.8 17.8 -103.75 18.35 -103.8 Q19.35 -104.15 19.4 -105.05 L19.35 -105.65 M22.05 -114.45 L22.0 -114.55 22.0 -114.65 21.95 -114.7 21.95 -114.85 21.9 -114.95 21.9 -115.0 21.85 -115.35 21.8 -115.6 21.8 -115.65 21.85 -116.05 22.0 -115.5 Q22.35 -114.85 23.15 -114.8 L23.55 -114.9 24.25 -115.2 24.35 -114.35 24.3 -113.5 24.2 -113.3 24.15 -112.7 23.85 -112.4 23.4 -112.55 23.1 -112.75 22.7 -113.15 Q22.3 -113.6 22.25 -114.0 L22.05 -114.45 M23.5 -118.85 L22.65 -119.8 22.15 -120.6 21.95 -120.95 21.75 -121.4 21.8 -121.65 21.9 -121.85 22.1 -122.1 22.35 -122.15 Q21.95 -121.85 22.0 -121.25 22.15 -120.3 23.2 -119.8 L24.7 -119.75 24.65 -119.65 24.75 -119.45 24.75 -119.1 24.65 -118.3 24.4 -118.25 23.5 -118.85 M19.25 -110.15 L19.4 -109.7 Q19.75 -109.05 20.55 -109.0 L20.95 -109.1 21.85 -109.5 21.9 -108.7 21.85 -107.75 Q21.7 -107.25 21.15 -107.25 L20.75 -107.25 20.7 -107.45 20.5 -107.65 20.25 -108.05 19.95 -108.4 19.7 -108.8 19.45 -109.25 Q19.3 -109.35 19.3 -109.6 L19.25 -110.15 M21.5 -99.25 L21.7 -98.75 21.85 -98.0 Q21.8 -97.7 22.05 -97.3 L21.8 -97.15 21.15 -97.35 20.8 -97.7 20.65 -97.85 20.55 -97.9 Q20.45 -97.9 20.45 -97.95 L20.25 -98.15 20.55 -98.15 20.95 -98.3 Q21.55 -98.65 21.5 -99.25 M36.8 -117.8 L36.7 -117.5 36.25 -116.6 35.6 -115.7 35.3 -115.35 34.8 -114.95 34.35 -115.15 34.2 -115.35 33.95 -115.7 33.5 -116.5 33.15 -117.3 32.95 -118.1 33.0 -118.4 33.05 -118.65 33.4 -118.05 Q34.4 -117.25 35.8 -117.4 36.45 -117.5 36.8 -117.8 M38.95 -110.35 L38.85 -110.35 Q38.15 -110.35 38.15 -111.95 L38.0 -112.7 37.95 -112.85 38.45 -112.3 Q39.1 -111.8 39.85 -112.05 L40.15 -112.2 40.0 -111.8 39.75 -111.4 38.95 -110.35 M32.65 -113.25 L32.7 -112.6 32.65 -111.9 32.15 -111.05 31.25 -110.35 31.0 -110.1 30.85 -109.95 30.7 -109.75 30.35 -109.7 Q30.0 -109.7 29.95 -110.0 L29.9 -110.45 29.75 -110.65 29.75 -110.85 29.7 -111.3 29.3 -112.5 30.2 -112.0 Q30.45 -111.85 30.7 -111.8 31.8 -111.8 32.3 -112.6 L32.65 -113.25 M31.75 -106.75 L31.6 -106.4 31.25 -105.65 30.85 -104.85 30.6 -104.45 Q30.6 -104.1 30.25 -104.1 L29.9 -104.25 Q29.4 -104.6 29.4 -106.05 L29.5 -106.7 30.15 -106.3 30.55 -106.15 Q31.3 -106.15 31.7 -106.75 L31.75 -106.75 M32.75 -99.3 L32.4 -97.7 31.95 -96.85 31.85 -96.6 31.4 -96.0 30.85 -96.6 30.65 -96.9 30.2 -97.65 29.9 -98.35 31.4 -98.3 31.95 -98.4 Q32.65 -98.75 32.75 -99.3 M36.9 -96.8 L36.6 -96.75 36.2 -96.85 36.2 -97.05 36.0 -97.45 35.75 -98.15 35.75 -98.35 35.9 -98.6 35.9 -99.05 36.0 -99.95 36.4 -100.4 36.6 -100.4 Q36.1 -99.95 36.05 -99.25 36.05 -98.55 36.85 -98.2 L37.25 -98.15 37.95 -98.15 37.8 -97.8 37.65 -97.65 37.6 -97.45 37.3 -97.2 36.95 -96.8 36.9 -96.8 M37.8 -103.55 L37.65 -104.05 Q37.3 -104.95 37.3 -105.4 L37.55 -106.45 37.65 -106.45 Q37.35 -105.85 37.55 -105.2 37.8 -104.3 38.85 -104.1 L39.4 -104.15 39.5 -104.15 39.25 -103.6 38.65 -102.8 38.35 -102.75 Q38.0 -102.75 37.95 -102.9 L37.95 -103.1 Q37.8 -103.2 37.8 -103.4 L37.8 -103.55 M26.2 -102.4 L26.2 -101.5 26.1 -99.5 Q26.05 -99.3 25.65 -99.3 25.3 -99.3 24.5 -100.45 L23.9 -101.65 Q23.6 -102.15 23.6 -104.05 23.6 -104.3 24.2 -104.3 L24.1 -104.2 Q23.5 -103.5 23.9 -102.65 24.25 -102.0 25.05 -102.0 L25.45 -102.05 26.2 -102.4" fill="#3c5f21" fill-rule="evenodd" stroke="none"/>
    <path d="M34.65 -131.3 L34.75 -130.7 34.75 -130.65 33.7 -128.4 33.05 -128.8 33.5 -130.25 34.2 -131.55 34.65 -131.3 M35.75 -129.15 L36.2 -128.75 36.55 -128.95 36.8 -126.7 36.55 -126.4 35.65 -124.55 35.75 -124.4 35.8 -124.4 36.8 -124.4 36.8 -124.0 36.85 -123.95 36.7 -122.4 Q36.45 -120.25 37.9 -120.1 L37.95 -121.8 38.0 -121.8 38.45 -122.15 38.7 -122.6 39.05 -123.45 39.2 -124.95 39.3 -125.65 39.2 -126.0 39.2 -126.05 39.15 -126.25 39.05 -126.3 38.6 -126.75 39.55 -130.2 Q41.55 -127.15 42.05 -123.65 42.8 -118.65 43.0 -113.7 43.2 -109.5 42.0 -105.65 L40.5 -107.0 40.6 -110.15 40.5 -112.6 41.75 -113.95 41.75 -114.0 41.7 -114.15 40.25 -114.4 40.15 -114.95 Q39.85 -116.6 38.65 -117.95 L37.05 -119.25 36.3 -121.35 36.25 -121.45 36.05 -121.45 33.95 -120.05 32.55 -120.0 32.4 -122.85 32.4 -125.0 32.65 -124.5 33.05 -123.9 Q33.15 -121.8 33.85 -120.85 34.7 -124.2 35.15 -127.75 35.25 -128.65 35.75 -129.15 M37.9 -133.0 L37.55 -133.6 40.1 -133.5 Q41.45 -133.0 42.45 -132.15 L41.9 -131.65 Q40.6 -132.55 38.6 -133.0 L37.9 -133.0 M44.05 -129.85 L44.35 -129.95 45.05 -128.05 45.35 -126.75 45.3 -126.8 44.55 -126.7 44.25 -128.05 43.85 -129.3 44.05 -129.75 44.05 -129.85 M45.7 -123.5 L45.8 -123.55 45.85 -123.55 45.95 -119.5 45.8 -119.55 45.15 -119.5 45.15 -120.0 45.1 -122.05 45.15 -122.15 45.25 -122.4 45.65 -123.2 45.7 -123.5 M45.65 -116.0 L45.0 -112.2 44.75 -112.3 44.55 -112.3 44.9 -115.15 45.65 -116.0 M44.45 -110.0 L44.5 -110.0 43.7 -107.0 41.25 -100.15 41.1 -99.75 40.9 -99.4 40.75 -99.05 40.35 -98.2 39.55 -97.8 38.95 -97.75 39.1 -98.3 39.8 -98.35 39.85 -98.4 39.95 -98.55 39.35 -99.35 39.35 -99.4 39.45 -99.75 39.5 -100.15 39.6 -100.5 40.2 -104.4 41.75 -104.85 41.05 -103.15 41.4 -102.65 42.5 -104.9 44.0 -109.35 44.4 -109.95 44.45 -110.0 M21.8 -121.65 Q20.85 -122.8 19.25 -122.5 L19.2 -122.45 18.55 -123.15 18.0 -123.35 19.0 -123.9 Q20.5 -124.15 21.55 -123.25 L22.6 -122.3 22.35 -122.15 22.1 -122.1 21.9 -121.85 21.8 -121.65 M17.0 -118.35 Q16.65 -117.1 16.65 -115.75 L15.4 -116.05 15.3 -116.05 15.2 -118.1 Q15.2 -119.55 15.7 -120.65 L15.95 -119.85 16.25 -119.2 16.9 -118.45 17.0 -118.35 M17.35 -110.4 L17.55 -109.65 18.4 -106.95 16.8 -107.0 16.0 -110.6 15.75 -111.85 16.45 -110.65 Q16.9 -110.3 17.05 -110.3 L17.35 -110.4 M20.1 -102.85 L21.65 -99.95 21.7 -99.95 22.2 -99.9 22.15 -100.1 20.0 -105.6 19.1 -108.3 Q17.4 -112.95 18.85 -117.4 20.9 -115.35 21.65 -112.6 L22.15 -110.85 21.25 -111.45 20.8 -111.65 Q20.1 -111.8 19.7 -111.3 L19.5 -111.25 19.3 -111.15 19.25 -110.95 19.25 -110.5 19.25 -110.15 19.3 -109.6 Q19.3 -109.35 19.45 -109.25 L19.7 -108.8 19.95 -108.4 20.25 -108.05 20.5 -107.65 20.7 -107.45 20.75 -107.25 21.15 -107.25 Q21.7 -107.25 21.85 -107.75 L21.9 -108.7 21.85 -109.5 22.5 -109.8 24.4 -104.45 24.2 -104.3 Q23.6 -104.3 23.6 -104.05 23.6 -102.15 23.9 -101.65 L24.5 -100.45 Q25.3 -99.3 25.65 -99.3 26.05 -99.3 26.1 -99.5 L26.2 -101.5 26.2 -102.4 27.6 -103.05 27.6 -103.25 25.75 -104.4 25.3 -104.6 25.1 -104.65 24.7 -105.7 23.1 -110.15 23.1 -110.3 23.05 -110.3 Q22.4 -112.35 22.05 -114.45 L22.25 -114.0 Q22.3 -113.6 22.7 -113.15 L23.1 -112.75 23.4 -112.55 23.85 -112.4 24.15 -112.7 24.2 -113.3 24.3 -113.5 24.95 -111.1 Q25.25 -109.5 26.35 -109.4 L25.3 -114.1 24.9 -115.5 25.7 -115.85 25.7 -116.05 24.45 -116.8 23.5 -118.85 24.4 -118.25 24.65 -118.3 24.75 -119.1 24.75 -119.45 24.65 -119.65 Q26.1 -117.4 26.35 -114.65 L26.8 -111.05 27.45 -105.95 28.0 -101.05 28.05 -100.65 28.05 -100.4 28.05 -100.3 28.1 -99.95 Q28.05 -99.15 27.5 -98.6 L26.4 -97.7 25.2 -97.2 23.4 -96.85 21.85 -96.85 21.35 -96.9 20.55 -97.9 20.65 -97.85 20.8 -97.7 21.15 -97.35 21.8 -97.15 22.05 -97.3 Q21.8 -97.7 21.85 -98.0 L21.7 -98.75 21.5 -99.25 21.45 -99.4 Q21.2 -100.2 20.25 -100.6 19.5 -100.85 19.0 -100.4 L19.0 -100.35 Q18.2 -101.85 17.7 -103.45 L17.85 -103.35 18.65 -102.45 19.15 -102.05 19.75 -101.65 Q20.1 -101.65 20.1 -102.8 L20.1 -102.85 M21.8 -115.6 L21.35 -118.45 22.4 -117.4 22.45 -117.25 22.25 -117.25 22.05 -116.8 Q21.8 -116.45 21.85 -116.05 L21.8 -115.65 21.8 -115.6 M38.45 -114.55 L37.0 -117.9 36.95 -117.9 37.15 -118.25 Q38.95 -116.6 39.6 -114.5 L39.3 -114.6 38.75 -114.65 38.45 -114.55 M33.0 -118.4 Q31.35 -118.05 30.7 -116.7 L29.9 -114.9 28.25 -114.0 Q29.1 -117.45 32.85 -119.4 L33.15 -119.35 Q32.95 -119.0 33.05 -118.65 L33.0 -118.4 M32.6 -114.1 L33.0 -114.85 Q35.45 -112.05 33.7 -108.35 L33.45 -99.5 33.5 -98.0 33.5 -97.85 33.55 -97.65 34.0 -97.25 34.05 -97.65 34.05 -98.0 34.1 -100.05 34.1 -100.4 34.15 -100.8 34.15 -101.15 34.25 -103.15 34.45 -107.6 Q34.5 -111.5 36.75 -114.7 L37.3 -113.45 Q38.05 -110.95 38.05 -108.2 L38.05 -107.05 37.65 -106.45 37.55 -106.45 37.3 -105.4 Q37.3 -104.95 37.65 -104.05 L37.8 -103.55 37.35 -100.85 37.0 -100.7 36.6 -100.4 36.4 -100.4 36.0 -99.95 35.9 -99.05 35.9 -98.6 35.75 -98.35 35.75 -98.15 36.0 -97.45 36.2 -97.05 36.2 -96.85 36.6 -96.75 36.9 -96.8 36.75 -96.6 Q35.95 -95.5 34.55 -95.05 L34.0 -94.9 33.95 -94.9 31.85 -95.05 31.5 -95.2 Q30.6 -95.65 30.1 -96.6 L29.75 -97.35 29.65 -97.65 29.55 -98.0 29.45 -98.35 29.9 -98.35 30.2 -97.65 30.65 -96.9 30.85 -96.6 31.4 -96.0 31.85 -96.6 31.95 -96.85 32.4 -97.7 32.75 -99.3 32.75 -99.75 32.75 -99.95 32.75 -100.05 32.65 -100.2 32.5 -100.5 32.5 -100.55 31.45 -101.5 30.2 -101.55 29.9 -104.25 30.25 -104.1 Q30.6 -104.1 30.6 -104.45 L30.85 -104.85 31.25 -105.65 31.6 -106.4 31.75 -106.75 Q32.2 -107.45 31.7 -108.2 31.35 -108.75 30.65 -108.65 L31.0 -110.1 31.25 -110.35 32.15 -111.05 32.65 -111.9 32.7 -112.6 32.65 -113.25 32.6 -114.1 M38.8 -107.5 L38.9 -109.65 38.95 -110.35 39.75 -111.4 40.0 -111.8 39.9 -107.4 39.85 -107.45 38.8 -107.5 M29.25 -112.55 Q28.75 -110.3 29.0 -107.9 L28.25 -107.55 28.25 -107.45 28.3 -107.4 Q28.65 -107.15 29.05 -106.95 L29.0 -105.2 Q28.75 -102.95 29.65 -101.25 L29.3 -100.85 28.95 -100.05 28.9 -100.4 28.8 -100.7 28.75 -101.1 28.3 -104.5 28.0 -111.6 28.1 -113.2 Q28.65 -112.85 29.25 -112.55 M39.5 -104.15 L39.6 -104.2 38.75 -100.65 38.65 -100.4 38.4 -100.65 38.35 -100.65 38.35 -100.75 38.65 -102.8 39.25 -103.6 39.5 -104.15" fill="#588e31" fill-rule="evenodd" stroke="none"/>
    <path d="M34.75 -130.65 L34.95 -130.3 35.15 -129.85 35.45 -129.5 35.75 -129.15 Q35.25 -128.65 35.15 -127.75 34.7 -124.2 33.85 -120.85 33.15 -121.8 33.05 -123.9 L33.5 -123.75 Q34.15 -123.75 34.2 -126.45 34.35 -127.7 33.95 -128.05 L33.75 -128.35 33.7 -128.4 34.75 -130.65 M36.55 -128.95 L36.9 -129.7 37.4 -130.75 37.7 -131.8 37.7 -132.25 37.9 -132.85 37.9 -133.0 38.6 -133.0 Q40.6 -132.55 41.9 -131.65 L41.85 -131.25 41.9 -131.0 41.9 -130.55 42.0 -129.15 Q42.0 -128.7 42.15 -128.45 L42.2 -128.0 Q42.3 -127.75 42.6 -127.75 43.15 -127.75 43.3 -128.35 L43.55 -128.7 43.7 -129.05 43.85 -129.3 44.25 -128.05 44.55 -126.7 44.1 -126.4 44.0 -126.4 43.45 -125.85 43.1 -125.1 43.25 -124.75 43.25 -124.3 43.3 -123.4 43.5 -122.5 Q43.8 -121.7 44.4 -121.7 L44.7 -121.7 44.8 -121.85 45.0 -122.0 45.1 -122.05 45.15 -120.0 45.15 -119.5 Q44.7 -119.45 44.4 -119.05 L44.35 -119.0 44.2 -118.8 44.05 -118.7 44.0 -118.45 43.8 -118.1 43.75 -115.85 43.95 -115.35 Q43.95 -114.9 44.35 -114.9 44.6 -114.9 44.9 -115.15 L44.55 -112.3 Q44.0 -112.35 43.55 -111.95 L43.35 -111.65 43.25 -111.55 Q42.95 -111.05 42.95 -109.7 L42.95 -109.3 42.9 -109.0 Q42.9 -108.9 43.25 -108.9 L44.0 -109.35 42.5 -104.9 41.4 -102.65 41.05 -103.15 41.75 -104.85 42.4 -105.1 42.5 -105.15 42.5 -105.3 42.0 -105.65 Q43.2 -109.5 43.0 -113.7 42.8 -118.65 42.05 -123.65 41.55 -127.15 39.55 -130.2 L38.6 -126.75 38.2 -126.95 Q37.4 -127.25 36.85 -126.75 L36.8 -126.7 36.55 -128.95 M36.85 -123.95 L36.9 -123.8 37.0 -123.1 37.3 -122.45 37.5 -121.95 Q37.65 -121.8 37.95 -121.8 L37.9 -120.1 Q36.45 -120.25 36.7 -122.4 L36.85 -123.95 M19.2 -122.45 L19.25 -122.5 Q20.85 -122.8 21.8 -121.65 L21.75 -121.4 21.95 -120.95 22.15 -120.6 22.65 -119.8 23.5 -118.85 24.45 -116.8 23.85 -117.2 23.4 -117.4 22.45 -117.25 22.4 -117.4 21.35 -118.45 21.8 -115.6 21.85 -115.35 21.9 -115.0 21.9 -114.95 21.95 -114.7 22.0 -114.65 22.0 -114.55 22.05 -114.45 Q22.4 -112.35 23.05 -110.3 L22.15 -110.85 21.65 -112.6 Q20.9 -115.35 18.85 -117.4 17.4 -112.95 19.1 -108.3 L20.0 -105.6 22.15 -100.1 22.2 -99.9 21.7 -99.95 21.65 -99.95 20.1 -102.85 Q20.1 -104.25 19.35 -105.65 19.15 -106.4 18.4 -106.95 L17.55 -109.65 17.35 -110.4 Q17.65 -110.7 17.65 -111.75 L17.6 -113.9 Q17.4 -115.55 16.75 -115.65 L16.65 -115.75 Q16.65 -117.1 17.0 -118.35 L17.3 -118.05 Q17.55 -117.8 17.8 -117.8 18.0 -117.8 18.35 -118.1 L18.75 -118.55 18.9 -118.9 19.15 -119.3 19.3 -121.5 19.25 -121.8 19.2 -121.85 19.2 -122.45 M22.5 -109.8 L23.1 -110.1 23.1 -110.15 24.7 -105.7 25.1 -104.65 24.4 -104.45 22.5 -109.8 M36.95 -117.9 L37.0 -117.9 38.45 -114.55 Q37.9 -114.4 37.8 -113.8 37.7 -113.3 37.95 -112.85 L38.0 -112.7 38.15 -111.95 Q38.15 -110.35 38.85 -110.35 L38.95 -110.35 38.9 -109.65 38.8 -107.5 38.15 -107.2 38.05 -107.05 38.05 -108.2 Q38.05 -110.95 37.3 -113.45 L36.75 -114.7 Q34.5 -111.5 34.45 -107.6 L34.25 -103.15 34.15 -101.15 34.15 -100.8 34.1 -100.4 34.1 -100.05 34.05 -98.0 34.05 -97.65 34.0 -97.25 33.55 -97.65 33.5 -97.85 33.5 -98.0 33.45 -99.5 33.7 -108.35 Q35.45 -112.05 33.0 -114.85 L32.6 -114.1 32.35 -114.65 Q31.85 -115.4 30.8 -115.3 L30.15 -115.1 29.9 -114.9 30.7 -116.7 Q31.35 -118.05 33.0 -118.4 L32.95 -118.1 33.15 -117.3 33.5 -116.5 33.95 -115.7 34.2 -115.35 34.35 -115.15 34.8 -114.95 35.3 -115.35 35.6 -115.7 36.25 -116.6 36.7 -117.5 36.8 -117.8 36.95 -117.9 M31.0 -110.1 L30.65 -108.65 30.6 -108.65 30.15 -108.55 29.0 -107.9 Q28.75 -110.3 29.25 -112.55 L29.3 -112.5 29.7 -111.3 29.75 -110.85 29.75 -110.65 29.9 -110.45 29.95 -110.0 Q30.0 -109.7 30.35 -109.7 L30.7 -109.75 30.85 -109.95 31.0 -110.1 M29.9 -104.25 L30.2 -101.55 29.7 -101.3 29.65 -101.25 Q28.75 -102.95 29.0 -105.2 L29.05 -106.95 29.5 -106.7 29.4 -106.05 Q29.4 -104.6 29.9 -104.25 M37.35 -100.85 L37.8 -103.55 37.8 -103.4 Q37.8 -103.2 37.95 -103.1 L37.95 -102.9 Q38.0 -102.75 38.35 -102.75 L38.65 -102.8 38.35 -100.75 38.35 -100.65 37.35 -100.85 M24.25 -115.2 L24.9 -115.5 25.3 -114.1 26.35 -109.4 Q25.25 -109.5 24.95 -111.1 L24.3 -113.5 24.35 -114.35 24.25 -115.2" fill="#6cae3c" fill-rule="evenodd" stroke="none"/>
    <path d="M29.95 -95.25 L30.25 -95.05 Q31.65 -94.1 33.6 -94.2 L34.25 -94.25 35.0 -93.85 36.2 -94.15 Q36.8 -94.45 36.8 -94.8 L36.65 -95.05 39.8 -95.15 39.7 -95.05 39.65 -94.8 39.7 -94.55 Q39.85 -94.3 40.25 -94.3 40.9 -94.3 40.9 -94.8 L40.85 -95.05 40.6 -95.2 41.7 -95.4 42.85 -95.2 42.75 -95.05 42.75 -95.0 Q41.9 -94.55 40.65 -94.15 L35.95 -93.15 31.8 -92.9 27.65 -93.15 Q25.05 -93.45 23.0 -94.15 22.05 -94.45 21.4 -94.75 L22.6 -95.05 28.0 -95.6 29.65 -95.3 29.95 -95.25 M26.35 -94.15 L26.4 -93.8 26.6 -93.7 26.85 -93.65 Q27.4 -93.65 27.4 -94.15 27.4 -94.55 26.9 -94.55 26.35 -94.6 26.35 -94.15 M30.45 -93.7 L30.8 -93.8 30.9 -94.1 30.45 -94.55 Q30.0 -94.5 30.0 -94.05 30.0 -93.7 30.45 -93.7" fill="#d9ac7b" fill-rule="evenodd" stroke="none"/>
    <path d="M21.65 -96.3 L22.65 -95.6 24.15 -95.8 Q25.65 -95.95 27.0 -96.6 L28.5 -97.3 28.85 -96.6 29.65 -95.55 29.95 -95.25 29.65 -95.3 28.0 -95.6 22.6 -95.05 21.4 -94.75 20.9 -95.05 20.05 -95.65 21.65 -96.3 M34.25 -94.25 Q35.55 -94.4 36.55 -95.05 37.35 -95.65 38.0 -96.6 L38.25 -97.0 39.3 -97.0 41.2 -96.6 41.75 -96.4 43.55 -95.65 43.5 -95.55 43.0 -95.2 42.8 -95.05 42.75 -95.0 42.75 -95.05 42.85 -95.2 41.7 -95.4 40.6 -95.2 40.85 -95.05 40.9 -94.8 Q40.9 -94.3 40.25 -94.3 39.85 -94.3 39.7 -94.55 L39.65 -94.8 39.7 -95.05 39.8 -95.15 36.65 -95.05 36.8 -94.8 Q36.8 -94.45 36.2 -94.15 L35.0 -93.85 34.25 -94.25 M30.45 -93.7 Q30.0 -93.7 30.0 -94.05 30.0 -94.5 30.45 -94.55 L30.9 -94.1 30.8 -93.8 30.45 -93.7 M26.35 -94.15 Q26.35 -94.6 26.9 -94.55 27.4 -94.55 27.4 -94.15 27.4 -93.65 26.85 -93.65 L26.6 -93.7 26.4 -93.8 26.35 -94.15" fill="#ae754a" fill-rule="evenodd" stroke="none"/>
  </g>
</svg>
