<?xml version="1.0" encoding="UTF-8" standalone="no"?>
<svg xmlns:ffdec="https://www.free-decompiler.com/flash" xmlns:xlink="http://www.w3.org/1999/xlink" ffdec:objectType="shape" height="47.3px" width="52.75px" xmlns="http://www.w3.org/2000/svg">
  <g transform="matrix(1.0, 0.0, 0.0, 1.0, 29.2, 3.55)">
    <path d="M13.1 16.3 Q14.9 19.95 17.25 22.0 L19.2 23.35 Q21.8 23.35 21.8 20.2 21.8 17.15 13.45 7.1 6.65 -1.05 4.4 -2.9 L3.95 -3.55 Q13.25 2.6 19.05 10.85 23.55 17.25 23.55 20.5 23.55 22.2 22.3 23.65 21.0 25.15 19.5 25.15 L17.7 24.9 Q16.1 24.45 15.4 23.45 L15.7 24.5 Q17.4 32.85 13.35 37.05 10.8 39.7 8.45 39.7 6.85 39.7 5.75 37.3 5.0 35.55 5.0 33.35 2.85 39.5 0.35 41.9 -1.55 43.75 -4.35 43.75 -6.35 43.75 -7.7 42.15 -9.5 40.05 -9.5 35.75 L-8.3 28.4 Q-7.1 21.75 -7.1 19.8 -7.1 19.0 -7.7 17.5 -8.6 15.35 -10.0 15.35 -11.25 15.35 -15.3 19.55 -19.4 23.7 -21.7 23.7 -24.5 23.7 -26.6 22.45 -29.2 20.95 -29.2 18.25 -29.2 14.45 -27.45 12.35 -25.35 9.7 -19.0 7.05 L-15.25 5.6 -11.85 4.05 -7.9 0.3 Q-4.75 -2.45 -0.8 -3.15 L-3.7 -1.75 -7.0 2.35 Q-9.35 5.15 -12.6 6.3 -20.85 9.2 -24.9 13.3 -27.65 16.1 -27.65 18.1 -27.65 19.2 -26.3 20.5 -24.9 21.9 -23.45 21.9 -19.65 21.9 -16.0 17.75 -12.4 13.55 -10.1 13.55 -8.2 13.55 -6.8 15.55 -5.4 17.65 -5.4 20.65 -5.4 21.65 -6.6 28.25 L-7.9 36.45 Q-7.9 38.35 -7.25 39.85 -6.4 41.8 -4.65 41.8 -0.8 41.8 1.1 38.8 3.4 35.15 3.4 26.4 L3.3 20.2 Q3.35 18.0 4.0 17.45 L4.1 17.75 7.35 37.05 Q6.95 37.75 7.95 37.75 13.95 37.75 13.95 27.45 13.95 24.3 13.2 22.0 L9.85 13.35 9.75 12.75 10.4 12.7 13.1 16.3" fill="#5c4730" fill-rule="evenodd" stroke="none"/>
    <path d="M1.9 -3.35 L4.4 -2.9 Q6.65 -1.05 13.45 7.1 21.8 17.15 21.8 20.2 21.8 23.35 19.2 23.35 L17.25 22.0 Q14.9 19.95 13.1 16.3 L19.2 21.95 19.75 21.65 20.0 20.7 Q20.0 19.05 17.6 15.5 14.6 11.1 10.2 8.15 7.65 6.45 5.25 2.05 2.55 -2.75 1.9 -3.35 M-3.7 -1.75 Q-5.15 3.65 -14.1 8.45 L-19.9 11.85 Q-22.45 13.8 -22.45 16.0 -22.6 16.65 -22.25 17.2 -21.6 18.35 -19.15 18.35 -17.35 18.35 -14.45 15.55 -11.6 12.75 -9.6 12.75 -8.1 12.7 -6.65 13.65 -3.8 15.55 -3.8 20.6 L-5.0 25.8 -6.25 32.35 Q-6.25 38.15 -3.65 38.15 -1.2 38.15 0.5 36.0 2.7 33.25 2.7 27.55 2.7 25.75 1.85 22.8 L0.95 19.45 Q0.95 17.7 1.4 16.95 1.7 16.5 2.55 15.95 L4.0 17.45 Q3.35 18.0 3.3 20.2 L3.4 26.4 Q3.4 35.15 1.1 38.8 -0.8 41.8 -4.65 41.8 -6.4 41.8 -7.25 39.85 -7.9 38.35 -7.9 36.45 L-6.6 28.25 Q-5.4 21.65 -5.4 20.65 -5.4 17.65 -6.8 15.55 -8.2 13.55 -10.1 13.55 -12.4 13.55 -16.0 17.75 -19.65 21.9 -23.45 21.9 -24.9 21.9 -26.3 20.5 -27.65 19.2 -27.65 18.1 -27.65 16.1 -24.9 13.3 -20.85 9.2 -12.6 6.3 -9.35 5.15 -7.0 2.35 L-3.7 -1.75 M4.1 17.75 L8.45 30.7 Q9.1 32.65 10.25 32.65 11.45 32.65 12.0 31.65 12.7 30.4 12.7 27.2 12.7 24.75 11.0 21.05 8.2 15.0 7.05 11.75 L9.85 13.35 13.2 22.0 Q13.95 24.3 13.95 27.45 13.95 37.75 7.95 37.75 6.95 37.75 7.35 37.05 L4.1 17.75" fill="#f1ba87" fill-rule="evenodd" stroke="none"/>
    <path d="M1.9 -3.35 Q2.55 -2.75 5.25 2.05 7.65 6.45 10.2 8.15 14.6 11.1 17.6 15.5 20.0 19.05 20.0 20.7 L19.75 21.65 19.2 21.95 13.1 16.3 10.4 12.7 9.75 12.75 9.85 13.35 7.05 11.75 Q8.2 15.0 11.0 21.05 12.7 24.75 12.7 27.2 12.7 30.4 12.0 31.65 11.45 32.65 10.25 32.65 9.1 32.65 8.45 30.7 L4.1 17.75 4.0 17.45 2.55 15.95 Q1.7 16.5 1.4 16.95 0.95 17.7 0.95 19.45 L1.85 22.8 Q2.7 25.75 2.7 27.55 2.7 33.25 0.5 36.0 -1.2 38.15 -3.65 38.15 -6.25 38.15 -6.25 32.35 L-5.0 25.8 -3.8 20.6 Q-3.8 15.55 -6.65 13.65 -8.1 12.7 -9.6 12.75 -11.6 12.75 -14.45 15.55 -17.35 18.35 -19.15 18.35 -21.6 18.35 -22.25 17.2 -22.6 16.65 -22.45 16.0 -22.45 13.8 -19.9 11.85 L-14.1 8.45 Q-5.15 3.65 -3.7 -1.75 L-0.8 -3.15 1.9 -3.35" fill="#ffcc99" fill-rule="evenodd" stroke="none"/>
  </g>
</svg>
