<?xml version="1.0" encoding="UTF-8" standalone="no"?>
<svg xmlns:ffdec="https://www.free-decompiler.com/flash" xmlns:xlink="http://www.w3.org/1999/xlink" ffdec:objectType="shape" height="191.1px" width="113.1px" xmlns="http://www.w3.org/2000/svg">
  <g transform="matrix(1.0, 0.0, 0.0, 1.0, 0.0, 191.1)">
    <path d="M36.4 -83.1 L29.65 -81.4 30.15 -78.35 30.1 -78.1 29.9 -77.85 Q27.0 -76.85 24.75 -76.85 22.45 -76.85 20.75 -77.85 18.8 -78.2 17.35 -79.25 13.8 -81.9 13.15 -89.45 L13.25 -89.85 13.5 -90.0 16.05 -90.6 4.3 -158.4 4.0 -158.45 3.9 -158.55 1.35 -159.5 1.1 -159.6 0.85 -159.9 Q0.0 -163.2 0.0 -165.8 0.0 -169.1 1.35 -171.25 3.7 -175.3 10.25 -175.85 L10.55 -175.75 12.75 -174.65 13.15 -174.7 13.45 -174.6 13.6 -174.25 13.8 -172.95 86.45 -187.05 85.95 -189.9 86.05 -190.2 Q86.05 -190.4 86.2 -190.4 88.85 -191.25 90.95 -191.05 93.0 -191.0 94.6 -189.8 96.4 -189.45 97.75 -188.25 100.95 -185.55 101.55 -178.35 L101.5 -178.1 101.2 -177.85 98.95 -177.4 109.45 -113.15 111.95 -112.35 112.0 -112.35 112.2 -112.35 112.4 -112.0 Q113.1 -109.05 113.1 -106.6 113.1 -103.55 111.95 -101.35 109.9 -97.45 104.15 -96.7 L103.9 -96.8 103.75 -96.95 Q102.05 -97.75 101.55 -97.65 L101.3 -97.75 101.1 -98.0 100.9 -99.3 90.45 -96.65 89.45 -96.4 48.05 -86.0 36.4 -83.1 M88.75 -189.25 L88.85 -189.25 92.2 -189.95 Q89.85 -190.65 86.65 -189.85 L88.75 -189.25 M88.45 -185.85 L86.6 -186.4 14.0 -172.0 14.15 -171.25 88.45 -185.85 M86.95 -186.9 L89.0 -186.4 88.6 -188.7 86.75 -189.05 86.95 -186.9 M97.35 -187.5 L96.15 -188.3 94.4 -188.85 89.4 -188.5 91.35 -176.85 100.75 -178.7 Q100.1 -185.0 97.35 -187.5 M90.75 -175.8 L90.95 -175.85 90.85 -175.9 90.7 -176.05 90.75 -175.8 61.45 -169.9 61.2 -170.1 50.85 -168.0 47.4 -167.35 47.15 -167.05 15.95 -160.7 27.85 -91.8 29.45 -92.2 29.45 -92.15 63.4 -100.45 101.65 -109.85 94.55 -152.85 91.3 -172.45 90.75 -175.8 M90.6 -176.75 L90.0 -180.4 15.15 -165.5 15.75 -161.65 90.6 -176.75 M89.8 -181.35 L89.25 -185.0 14.3 -170.3 14.95 -166.45 89.8 -181.35 M94.5 -176.5 L91.55 -175.9 102.4 -110.0 105.3 -110.7 94.5 -176.5 M98.15 -177.25 L95.2 -176.7 106.05 -110.95 108.95 -111.6 98.15 -177.25 M102.35 -105.3 L101.8 -108.9 28.05 -90.8 28.65 -87.05 102.35 -105.3 M111.4 -101.9 Q113.0 -105.1 111.95 -110.5 L111.8 -111.3 102.55 -109.1 104.4 -97.7 105.65 -97.95 Q109.75 -98.9 111.4 -101.9 M103.1 -100.8 L102.5 -104.4 28.8 -86.15 29.5 -82.35 103.1 -100.8 M103.25 -99.9 L101.65 -99.5 101.8 -98.65 Q102.25 -98.75 103.6 -97.9 L103.25 -99.9 M12.8 -173.7 L12.35 -173.7 Q7.0 -172.95 5.05 -169.55 2.95 -165.95 4.5 -159.45 L4.5 -159.4 14.95 -161.5 14.2 -165.85 14.2 -165.95 14.15 -166.0 12.8 -173.65 12.8 -173.7 M11.4 -174.5 L9.9 -174.85 Q4.15 -174.25 2.1 -170.7 0.0 -167.05 1.55 -160.55 2.55 -159.8 3.6 -159.55 2.0 -166.4 4.3 -170.1 6.25 -173.6 11.4 -174.5 M6.9 -158.9 L5.1 -158.55 16.85 -90.95 18.85 -89.9 6.9 -158.9 M15.1 -160.55 L11.8 -159.9 23.75 -90.8 27.0 -91.55 15.1 -160.55 M11.05 -159.7 L7.75 -159.05 19.35 -92.3 19.35 -92.25 19.75 -89.8 23.0 -90.55 11.05 -159.7 M29.55 -78.65 L27.3 -90.65 16.8 -88.45 17.0 -87.0 Q18.15 -81.65 20.85 -79.3 23.55 -77.15 27.7 -77.9 L29.55 -78.65 M16.05 -88.3 L14.05 -89.15 Q14.7 -82.5 17.8 -80.1 L19.0 -79.4 Q16.6 -82.25 16.05 -88.3 M16.2 -88.85 L16.4 -88.95 18.15 -89.4 16.25 -90.25 14.15 -89.7 16.2 -88.85" fill="#652405" fill-rule="evenodd" stroke="none"/>
    <path d="M97.35 -187.5 Q100.1 -185.0 100.75 -178.7 L91.35 -176.85 89.4 -188.5 94.4 -188.85 96.15 -188.3 97.35 -187.5 M86.95 -186.9 L86.75 -189.05 88.6 -188.7 89.0 -186.4 86.95 -186.9 M88.45 -185.85 L14.15 -171.25 14.0 -172.0 86.6 -186.4 88.45 -185.85 M88.75 -189.25 L86.65 -189.85 Q89.85 -190.65 92.2 -189.95 L88.85 -189.25 88.75 -189.25 M89.8 -181.35 L14.95 -166.45 14.3 -170.3 89.25 -185.0 89.8 -181.35 M96.55 -181.05 Q97.05 -182.05 96.9 -183.2 96.7 -184.35 95.9 -184.95 95.1 -185.65 94.15 -185.5 L93.9 -185.4 Q93.15 -185.15 92.75 -184.35 92.25 -183.45 92.45 -182.3 92.55 -181.75 92.8 -181.25 L93.4 -180.45 Q94.15 -179.8 95.1 -180.0 96.05 -180.2 96.55 -181.05 M98.15 -177.25 L108.95 -111.6 106.05 -110.95 95.2 -176.7 98.15 -177.25 M106.95 -107.4 L106.65 -107.3 Q105.95 -107.0 105.55 -106.2 105.1 -105.25 105.3 -104.1 105.3 -103.55 105.6 -103.05 L106.15 -102.35 Q106.95 -101.75 107.85 -102.0 L108.45 -102.2 109.3 -103.1 Q109.8 -104.1 109.65 -105.2 L109.6 -105.35 Q109.35 -106.4 108.65 -106.95 107.9 -107.6 106.95 -107.4 M103.25 -99.9 L103.6 -97.9 Q102.25 -98.75 101.8 -98.65 L101.65 -99.5 103.25 -99.9 M103.1 -100.8 L29.5 -82.35 28.8 -86.15 102.5 -104.4 103.1 -100.8 M111.4 -101.9 Q109.75 -98.9 105.65 -97.95 L104.4 -97.7 102.55 -109.1 111.8 -111.3 111.95 -110.5 Q113.0 -105.1 111.4 -101.9 M11.4 -174.5 Q6.25 -173.6 4.3 -170.1 2.0 -166.4 3.6 -159.55 2.55 -159.8 1.55 -160.55 0.0 -167.05 2.1 -170.7 4.15 -174.25 9.9 -174.85 L11.4 -174.5 M12.8 -173.7 L12.8 -173.65 14.15 -166.0 14.2 -165.95 14.2 -165.85 14.95 -161.5 4.5 -159.4 4.5 -159.45 Q2.95 -165.95 5.05 -169.55 7.0 -172.95 12.35 -173.7 L12.8 -173.7 M12.0 -167.6 L11.7 -167.95 11.3 -168.35 Q10.45 -169.1 9.45 -168.85 L9.05 -168.75 Q8.25 -168.5 7.8 -167.65 7.25 -166.7 7.5 -165.5 L7.9 -164.35 8.55 -163.55 Q9.35 -162.9 10.45 -163.05 L11.8 -163.95 12.05 -164.2 12.4 -165.5 12.4 -166.5 Q12.3 -166.6 12.35 -166.7 L12.0 -167.6 M6.9 -158.9 L18.85 -89.9 16.85 -90.95 5.1 -158.55 6.9 -158.9 M11.05 -159.7 L23.0 -90.55 19.75 -89.8 19.35 -92.25 19.35 -92.3 7.75 -159.05 11.05 -159.7 M25.75 -82.65 L25.6 -83.7 Q25.35 -84.8 24.6 -85.55 23.85 -86.15 23.1 -86.1 L22.8 -86.1 Q21.85 -85.95 21.45 -85.05 21.0 -84.25 21.15 -83.15 L21.15 -83.0 Q21.45 -81.95 22.35 -81.25 22.85 -80.85 23.45 -80.7 L24.1 -80.8 Q25.0 -80.9 25.55 -81.75 L25.75 -82.65 M29.55 -78.65 L27.7 -77.9 Q23.55 -77.15 20.85 -79.3 18.15 -81.65 17.0 -87.0 L16.8 -88.45 27.3 -90.65 29.55 -78.65 M16.2 -88.85 L14.15 -89.7 16.25 -90.25 18.15 -89.4 16.4 -88.95 16.2 -88.85 M16.05 -88.3 Q16.6 -82.25 19.0 -79.4 L17.8 -80.1 Q14.7 -82.5 14.05 -89.15 L16.05 -88.3" fill="#f7b928" fill-rule="evenodd" stroke="none"/>
    <path d="M90.6 -176.75 L15.75 -161.65 15.15 -165.5 90.0 -180.4 90.6 -176.75 M94.5 -176.5 L105.3 -110.7 102.4 -110.0 91.55 -175.9 94.5 -176.5 M102.35 -105.3 L28.65 -87.05 28.05 -90.8 101.8 -108.9 102.35 -105.3 M15.1 -160.55 L27.0 -91.55 23.75 -90.8 11.8 -159.9 15.1 -160.55" fill="#e49707" fill-rule="evenodd" stroke="none"/>
    <path d="M96.55 -181.05 Q96.05 -180.2 95.1 -180.0 94.15 -179.8 93.4 -180.45 L92.8 -181.25 Q92.55 -181.75 92.45 -182.3 92.25 -183.45 92.75 -184.35 93.15 -185.15 93.9 -185.4 L94.15 -185.5 Q95.1 -185.65 95.9 -184.95 96.7 -184.35 96.9 -183.2 97.05 -182.05 96.55 -181.05 M106.95 -107.4 Q107.9 -107.6 108.65 -106.95 109.35 -106.4 109.6 -105.35 L109.65 -105.2 Q109.8 -104.1 109.3 -103.1 L108.45 -102.2 107.85 -102.0 Q106.95 -101.75 106.15 -102.35 L105.6 -103.05 Q105.3 -103.55 105.3 -104.1 105.1 -105.25 105.55 -106.2 105.95 -107.0 106.65 -107.3 L106.95 -107.4 M12.0 -167.6 L12.35 -166.7 Q12.3 -166.6 12.4 -166.5 L12.4 -165.5 12.05 -164.2 11.8 -163.95 10.45 -163.05 Q9.35 -162.9 8.55 -163.55 L7.9 -164.35 7.5 -165.5 Q7.25 -166.7 7.8 -167.65 8.25 -168.5 9.05 -168.75 L9.45 -168.85 Q10.45 -169.1 11.3 -168.35 L11.7 -167.95 12.0 -167.6 M25.75 -82.65 L25.55 -81.75 Q25.0 -80.9 24.1 -80.8 L23.45 -80.7 Q22.85 -80.85 22.35 -81.25 21.45 -81.95 21.15 -83.0 L21.15 -83.15 Q21.0 -84.25 21.45 -85.05 21.85 -85.95 22.8 -86.1 L23.1 -86.1 Q23.85 -86.15 24.6 -85.55 25.35 -84.8 25.6 -83.7 L25.75 -82.65" fill="#ffe864" fill-rule="evenodd" stroke="none"/>
    <path d="M89.9 -150.8 L89.45 -151.15 84.1 -149.8 83.55 -150.0 88.2 -151.2 89.35 -151.4 Q88.75 -153.45 86.85 -154.65 81.65 -158.05 77.85 -154.95 76.35 -153.8 75.1 -151.7 L74.55 -150.7 Q72.6 -147.0 73.15 -144.1 74.3 -144.95 75.45 -144.7 L76.15 -144.25 80.8 -148.6 80.7 -147.9 76.1 -143.5 75.0 -144.2 74.45 -143.9 Q73.3 -143.15 73.3 -141.65 L74.7 -140.4 76.2 -132.65 Q75.25 -127.75 76.85 -123.05 L76.85 -123.0 76.8 -123.0 76.35 -123.3 75.4 -124.05 73.85 -126.75 72.85 -129.55 72.1 -136.1 70.3 -133.9 69.8 -133.25 68.0 -130.45 67.65 -129.65 67.55 -131.05 Q67.35 -133.7 68.3 -136.35 L68.75 -137.45 72.4 -142.2 72.25 -142.7 Q71.8 -144.95 72.35 -147.15 L72.7 -148.15 72.9 -148.55 Q73.9 -150.85 75.35 -153.1 76.65 -155.0 78.5 -155.85 L79.8 -156.3 Q87.6 -158.1 89.9 -150.8 M85.15 -129.2 L85.85 -128.9 85.95 -128.8 86.15 -128.15 85.6 -127.25 84.7 -126.35 83.55 -126.0 83.05 -126.1 82.85 -127.3 83.85 -127.55 84.6 -128.3 85.15 -129.2 M66.9 -101.45 L66.5 -101.35 66.15 -105.85 64.85 -105.8 64.15 -100.8 63.65 -100.65 64.05 -107.4 64.25 -108.05 65.15 -106.35 66.0 -106.55 66.45 -108.85 66.9 -108.6 66.9 -101.45 M74.5 -139.6 L74.15 -139.95 73.55 -135.15 73.35 -139.95 Q72.2 -136.25 72.6 -132.5 73.15 -127.85 75.95 -124.25 74.8 -131.95 74.5 -139.6 M59.7 -111.6 L60.1 -111.2 59.9 -106.7 61.3 -106.6 61.4 -110.15 61.85 -109.9 61.75 -107.4 61.75 -106.9 62.0 -106.85 62.15 -107.35 62.35 -105.8 62.25 -105.25 62.15 -104.05 62.15 -103.75 62.05 -103.2 61.8 -100.2 59.4 -99.6 56.8 -107.35 59.45 -107.1 59.45 -107.65 59.65 -110.95 59.65 -111.5 59.7 -111.6 M56.75 -141.85 L57.2 -141.7 53.8 -130.35 54.85 -126.45 58.15 -130.4 58.05 -134.35 58.55 -141.2 58.9 -141.15 Q58.15 -135.55 58.5 -130.2 L54.75 -125.75 54.45 -126.65 54.25 -127.1 53.8 -130.35 Q54.2 -135.0 55.9 -139.45 L56.75 -141.85 M46.35 -118.95 L45.75 -117.95 43.65 -118.95 42.15 -118.2 41.7 -118.0 41.5 -117.95 41.2 -118.0 Q39.75 -119.8 40.25 -122.05 L40.9 -122.15 41.3 -122.05 42.35 -121.7 43.7 -121.7 44.75 -122.35 45.15 -122.45 46.1 -121.8 Q46.5 -121.2 46.5 -120.35 L46.35 -118.95 M44.05 -121.4 Q43.8 -120.6 44.05 -119.8 L45.25 -118.5 Q46.5 -120.2 45.3 -121.95 L44.05 -121.4 M40.8 -121.4 L40.4 -120.05 40.85 -119.2 41.45 -118.5 42.45 -119.1 42.35 -119.75 42.4 -119.65 Q42.6 -119.4 42.9 -119.4 43.2 -119.4 43.4 -119.65 L43.6 -120.3 43.4 -120.9 42.9 -121.2 Q42.6 -121.2 42.4 -120.9 L42.25 -120.55 42.15 -121.15 41.25 -121.5 40.8 -121.4" fill="#7a1818" fill-rule="evenodd" stroke="none"/>
    <path d="M74.7 -140.4 L73.3 -141.65 Q73.3 -143.15 74.45 -143.9 L75.0 -144.2 76.1 -143.5 74.7 -140.4 M80.8 -148.6 L76.15 -144.25 75.45 -144.7 Q74.3 -144.95 73.15 -144.1 72.6 -147.0 74.55 -150.7 L75.1 -151.7 Q76.35 -153.8 77.85 -154.95 81.65 -158.05 86.85 -154.65 88.75 -153.45 89.35 -151.4 L88.2 -151.2 83.55 -150.0 81.75 -150.1 80.8 -148.6 M66.5 -101.35 L64.15 -100.8 64.85 -105.8 66.15 -105.85 66.5 -101.35 M60.1 -111.2 L61.4 -110.15 61.3 -106.6 59.9 -106.7 60.1 -111.2 M64.7 -109.0 L66.0 -109.05 66.45 -108.85 66.0 -106.55 65.15 -106.35 64.25 -108.05 64.7 -109.0 M57.2 -141.7 L58.55 -141.2 58.05 -134.35 58.15 -130.4 54.85 -126.45 53.8 -130.35 57.2 -141.7 M44.05 -121.4 L45.3 -121.95 Q46.5 -120.2 45.25 -118.5 L44.05 -119.8 Q43.8 -120.6 44.05 -121.4 M40.8 -121.4 L41.25 -121.5 42.15 -121.15 42.25 -120.55 42.4 -120.9 Q42.6 -121.2 42.9 -121.2 L43.4 -120.9 43.6 -120.3 43.4 -119.65 Q43.2 -119.4 42.9 -119.4 42.6 -119.4 42.4 -119.65 L42.35 -119.75 42.45 -119.1 41.45 -118.5 40.85 -119.2 40.4 -120.05 40.8 -121.4 M56.35 -98.9 L55.6 -98.7 54.4 -104.15 56.35 -98.9" fill="#9f2020" fill-rule="evenodd" stroke="none"/>
    <path d="M90.75 -175.8 L91.3 -172.45 78.5 -155.85 Q76.65 -155.0 75.35 -153.1 73.9 -150.85 72.9 -148.55 L72.6 -148.2 71.2 -149.05 71.85 -152.25 72.2 -151.5 72.6 -152.1 72.9 -152.7 Q73.7 -155.0 72.65 -157.2 L73.3 -157.05 74.3 -156.35 74.7 -156.0 74.8 -155.85 Q74.7 -157.2 74.2 -158.8 73.6 -160.65 72.1 -161.75 L61.45 -169.9 50.85 -168.0 61.2 -170.1 61.45 -169.9 90.75 -175.8 M29.45 -92.2 L27.85 -91.8 15.95 -160.7 47.15 -167.05 47.4 -167.35 46.75 -166.2 Q43.15 -158.1 47.85 -151.35 L48.9 -154.4 49.85 -153.5 50.9 -148.65 49.9 -148.7 Q49.0 -149.85 49.05 -151.2 L49.1 -152.1 Q46.6 -146.55 52.05 -144.65 L53.45 -144.55 55.3 -142.75 Q51.75 -135.4 49.0 -127.65 L47.6 -123.55 47.25 -124.05 46.8 -124.55 46.3 -124.85 45.7 -125.0 44.95 -124.95 44.15 -128.6 45.65 -132.35 Q47.25 -134.05 47.25 -136.2 L47.3 -137.65 48.3 -136.85 Q48.75 -142.65 44.05 -146.0 L45.45 -146.35 Q38.0 -153.1 30.35 -148.0 28.8 -147.0 28.7 -145.0 27.6 -145.85 26.15 -145.6 L25.2 -145.35 Q20.85 -136.7 26.0 -128.7 24.3 -134.2 27.25 -140.8 L29.85 -140.2 29.0 -137.75 Q27.95 -136.7 27.95 -135.3 L28.05 -135.0 28.75 -134.95 Q29.5 -124.4 39.45 -125.0 L41.15 -125.65 42.5 -124.3 Q41.85 -124.3 41.4 -123.65 40.9 -123.05 40.9 -122.15 L40.25 -122.05 Q39.75 -119.8 41.2 -118.0 L40.9 -115.3 Q40.75 -111.3 41.15 -107.4 L29.45 -92.2 M45.1 -124.3 L45.05 -124.35 45.15 -124.35 45.2 -124.3 45.1 -124.3" fill="#dc2c58" fill-rule="evenodd" stroke="none"/>
    <path d="M47.4 -167.35 L50.85 -168.0 61.45 -169.9 72.1 -161.75 Q73.6 -160.65 74.2 -158.8 74.7 -157.2 74.8 -155.85 L74.7 -156.0 74.3 -156.35 73.3 -157.05 72.65 -157.2 Q73.7 -155.0 72.9 -152.7 L72.6 -152.1 72.2 -151.5 71.85 -152.25 71.15 -153.35 69.7 -152.15 69.1 -152.0 68.85 -153.7 Q68.35 -156.3 66.5 -158.3 L64.7 -161.3 Q62.8 -158.85 60.05 -157.8 L57.6 -160.7 56.3 -158.3 57.15 -157.95 Q59.1 -157.25 59.45 -155.4 L58.75 -154.2 57.65 -155.45 56.2 -157.25 55.9 -155.65 Q55.05 -156.7 54.35 -157.85 53.6 -159.05 53.0 -160.35 L51.85 -158.4 52.9 -157.7 53.15 -157.35 53.35 -157.0 52.65 -157.35 51.3 -156.45 51.45 -152.85 50.35 -153.15 49.85 -153.5 48.9 -154.4 47.85 -151.35 Q43.15 -158.1 46.75 -166.2 L47.4 -167.35 M83.55 -150.0 L84.1 -149.8 89.45 -151.15 89.9 -150.8 Q90.85 -150.0 91.1 -148.95 L91.45 -147.65 92.05 -145.3 91.1 -147.1 89.45 -148.8 88.95 -148.8 87.85 -149.55 87.05 -148.9 87.75 -146.25 87.4 -144.65 87.25 -144.25 86.55 -142.9 86.55 -143.05 86.4 -143.5 86.75 -145.4 85.7 -148.15 82.4 -147.35 82.8 -144.95 Q83.9 -142.15 82.55 -139.4 L82.15 -138.2 82.2 -138.1 82.9 -136.15 Q80.1 -138.75 81.35 -143.2 L81.4 -144.2 80.75 -146.9 Q78.8 -144.5 79.3 -141.3 L79.6 -139.75 80.45 -136.1 80.2 -134.6 79.45 -132.9 81.05 -132.1 80.9 -130.7 80.15 -129.7 80.2 -129.4 80.1 -128.55 79.75 -126.75 79.25 -125.3 78.35 -124.1 78.25 -124.2 78.3 -124.55 78.7 -126.15 Q78.85 -127.55 78.4 -128.95 L77.9 -128.5 76.4 -127.85 Q77.4 -130.45 76.5 -133.0 L76.2 -132.65 74.7 -140.4 76.1 -143.5 80.7 -147.9 80.8 -148.6 81.75 -150.1 83.55 -150.0 M92.5 -143.8 L94.25 -137.9 Q92.6 -139.15 92.65 -141.1 L92.5 -143.8 M83.4 -131.65 L87.45 -133.0 Q87.9 -130.9 89.4 -129.1 90.7 -127.55 92.55 -126.95 L88.0 -126.7 88.85 -125.05 88.55 -125.1 86.15 -128.15 85.95 -128.8 85.85 -128.9 85.15 -129.2 83.45 -130.65 83.4 -131.65 M88.95 -134.3 L90.0 -135.7 92.05 -132.0 90.85 -132.7 88.95 -134.3 M53.45 -144.55 L52.05 -144.65 Q46.6 -146.55 49.1 -152.1 L49.05 -151.2 Q49.0 -149.85 49.9 -148.7 L50.9 -148.65 51.3 -148.9 53.4 -150.45 53.7 -150.55 53.85 -150.6 53.9 -150.6 55.35 -150.2 56.25 -150.75 57.85 -150.75 58.2 -150.6 Q59.15 -150.05 60.15 -149.65 61.55 -149.15 62.4 -150.1 L62.7 -152.8 63.1 -151.55 Q64.2 -143.6 56.4 -145.25 L55.5 -146.1 55.25 -146.15 53.95 -144.75 53.45 -144.55 M35.4 -137.2 L33.85 -137.85 33.4 -137.65 33.6 -138.25 Q34.15 -139.2 35.15 -139.35 L33.9 -141.0 32.8 -140.0 32.15 -139.95 31.2 -140.8 30.7 -140.3 30.2 -140.0 29.85 -140.2 27.25 -140.8 Q24.3 -134.2 26.0 -128.7 20.85 -136.7 25.2 -145.35 L26.15 -145.6 Q27.6 -145.85 28.7 -145.0 28.8 -147.0 30.35 -148.0 38.0 -153.1 45.45 -146.35 L44.05 -146.0 Q48.75 -142.65 48.3 -136.85 L47.3 -137.65 47.25 -136.2 Q47.25 -134.05 45.65 -132.35 45.5 -132.3 45.5 -132.25 46.6 -138.4 41.15 -141.4 L40.75 -139.2 40.3 -137.95 39.55 -139.5 38.65 -140.85 38.1 -141.45 38.15 -141.35 38.8 -138.75 Q39.75 -134.85 39.25 -130.75 L38.95 -130.35 Q38.9 -134.25 36.8 -136.2 L36.75 -136.4 Q36.45 -136.95 35.65 -137.15 L35.4 -137.2 M29.45 -138.0 L31.2 -138.05 31.8 -137.25 30.9 -137.05 Q29.6 -136.6 29.05 -135.3 L28.75 -134.95 28.05 -135.0 27.95 -135.3 Q27.95 -136.7 29.0 -137.75 L29.45 -138.0 M39.15 -129.85 L39.1 -129.7 39.1 -129.75 39.15 -129.85 M79.1 -136.05 L78.3 -139.45 78.25 -138.1 79.2 -134.05 79.1 -136.05" fill="#3c2b13" fill-rule="evenodd" stroke="none"/>
    <path d="M87.75 -146.25 L87.05 -148.9 87.85 -149.55 88.95 -148.8 90.15 -146.85 89.6 -146.95 Q88.55 -146.95 87.75 -146.25 M85.15 -132.4 L82.7 -132.9 81.2 -133.75 80.2 -134.6 80.45 -136.1 Q81.4 -134.6 83.0 -133.45 L83.9 -132.9 85.15 -132.4 M81.3 -132.05 L83.1 -131.7 83.55 -129.55 81.2 -129.45 80.8 -129.6 81.3 -132.05 M86.75 -145.4 L82.8 -144.95 82.4 -147.35 85.7 -148.15 86.75 -145.4 M81.4 -144.2 Q80.05 -142.6 79.75 -140.85 L79.6 -139.75 79.3 -141.3 Q78.8 -144.5 80.75 -146.9 L81.4 -144.2 M84.6 -128.3 L83.85 -127.55 82.85 -127.3 81.85 -128.5 81.85 -128.55 82.45 -128.85 Q83.7 -129.15 84.6 -128.3 M83.05 -126.1 L83.55 -126.0 84.7 -126.35 85.6 -127.25 88.1 -124.3 87.5 -124.55 86.35 -122.8 84.0 -123.0 84.0 -123.05 83.85 -124.15 83.2 -124.85 82.85 -125.25 83.0 -125.95 83.05 -126.1 M78.75 -104.35 L76.45 -103.75 75.45 -104.7 Q75.9 -106.05 77.2 -106.15 L77.7 -105.9 Q78.45 -105.4 78.75 -104.35 M66.5 -158.3 Q68.35 -156.3 68.85 -153.7 L69.1 -152.0 69.7 -152.15 69.35 -150.35 Q66.7 -140.15 56.75 -142.6 58.3 -142.25 59.9 -142.95 70.15 -147.15 66.5 -158.3 M40.75 -139.2 L41.15 -141.4 Q44.05 -137.9 43.65 -133.5 42.95 -125.0 35.05 -125.65 L35.95 -125.85 Q45.3 -129.3 40.75 -139.2 M43.45 -123.0 L42.65 -125.4 44.15 -125.95 44.85 -123.35 43.45 -123.0 M78.25 -138.1 L78.3 -139.45 79.1 -136.05 78.25 -138.1 M58.75 -124.9 Q63.85 -129.8 69.2 -125.45 L69.8 -124.8 70.25 -124.5 70.45 -123.9 Q74.5 -114.9 66.45 -110.3 64.85 -109.35 63.05 -109.85 72.55 -112.4 68.85 -122.15 67.1 -126.65 62.2 -125.9 60.45 -125.6 58.75 -124.9 M76.4 -112.45 L76.6 -113.1 77.75 -113.75 79.2 -113.0 77.95 -111.2 77.9 -110.35 76.4 -112.45" fill="#f0a866" fill-rule="evenodd" stroke="none"/>
    <path d="M90.15 -146.85 L88.95 -148.8 89.45 -148.8 90.4 -147.0 90.7 -146.4 Q93.1 -140.9 90.0 -135.7 L88.95 -134.3 87.45 -133.0 83.4 -131.65 83.1 -131.7 81.3 -132.05 81.05 -132.1 79.45 -132.9 80.2 -134.6 81.2 -133.75 82.7 -132.9 85.15 -132.4 Q86.05 -132.8 86.8 -133.4 93.15 -138.4 90.45 -146.0 L90.15 -146.85 M83.45 -130.65 L85.15 -129.2 84.6 -128.3 Q83.7 -129.15 82.45 -128.85 L81.85 -128.55 81.8 -128.5 81.2 -129.45 83.55 -129.55 83.45 -130.65 M86.15 -128.15 L88.55 -125.1 88.7 -124.05 88.7 -123.8 88.65 -123.8 87.55 -124.0 86.5 -122.6 86.15 -122.35 83.95 -123.0 84.0 -123.0 86.35 -122.8 87.5 -124.55 88.1 -124.3 85.6 -127.25 86.15 -128.15 M80.8 -129.65 L80.15 -129.7 80.9 -130.7 80.8 -129.75 80.8 -129.65 M79.75 -104.6 L78.75 -104.35 Q78.45 -105.4 77.7 -105.9 L77.2 -106.15 Q75.9 -106.05 75.45 -104.7 L76.45 -103.75 75.85 -103.65 74.9 -104.35 Q75.05 -106.45 76.6 -107.7 L77.45 -108.4 78.25 -107.3 78.7 -106.55 78.8 -106.35 79.75 -104.6 M49.85 -153.5 L50.35 -153.15 51.3 -148.9 50.9 -148.65 49.85 -153.5 M57.65 -155.45 L58.75 -154.2 58.95 -153.4 Q59.25 -151.85 58.2 -150.6 L57.85 -150.75 58.5 -152.75 Q58.2 -154.15 56.85 -154.4 L56.2 -154.4 55.7 -153.1 Q55.7 -154.05 56.3 -154.75 56.85 -155.45 57.65 -155.45 M69.7 -152.15 L71.15 -153.35 71.85 -152.25 71.2 -149.05 70.95 -148.3 70.5 -147.4 Q66.95 -140.15 58.9 -141.15 L58.55 -141.2 57.2 -141.7 56.75 -141.85 55.7 -142.5 55.3 -142.75 53.45 -144.55 53.95 -144.75 56.65 -142.65 56.75 -142.6 Q66.7 -140.15 69.35 -150.35 L69.7 -152.15 M53.9 -150.6 L53.85 -150.6 53.95 -150.65 53.9 -150.6 M53.7 -150.55 L53.4 -150.45 Q51.15 -152.45 53.0 -154.85 L53.25 -155.1 Q53.95 -155.05 54.4 -154.55 54.95 -153.9 54.9 -152.7 L54.45 -154.1 Q51.5 -154.05 53.05 -150.8 L53.7 -150.55 M35.4 -137.2 L35.65 -137.15 Q36.45 -136.95 36.75 -136.4 L36.8 -136.2 Q37.35 -133.5 35.25 -132.55 36.9 -134.65 35.4 -136.45 L34.85 -136.85 33.6 -135.65 34.1 -137.1 35.4 -137.2 M41.15 -141.4 Q46.6 -138.4 45.5 -132.25 45.5 -132.3 45.65 -132.35 L44.15 -128.6 44.95 -124.95 45.05 -124.35 45.1 -124.3 45.35 -123.6 44.85 -123.35 44.15 -125.95 42.65 -125.4 43.45 -123.0 42.7 -123.7 42.7 -123.75 42.5 -124.3 41.15 -125.65 39.45 -125.0 Q29.5 -124.4 28.75 -134.95 L29.05 -135.3 29.3 -133.35 Q30.15 -127.85 35.05 -125.65 42.95 -125.0 43.65 -133.5 44.05 -137.9 41.15 -141.4 M29.85 -140.2 L30.2 -140.0 29.45 -138.0 29.0 -137.75 29.85 -140.2 M31.65 -131.9 L30.75 -132.2 Q29.75 -133.8 30.35 -135.45 L30.7 -136.0 Q31.65 -136.05 32.15 -135.45 L32.8 -134.35 31.55 -135.7 Q30.3 -134.6 30.65 -133.2 30.85 -132.3 31.65 -131.9 M79.1 -136.05 L79.2 -134.05 78.25 -138.1 79.1 -136.05 M66.25 -129.2 L67.4 -128.95 68.15 -128.65 69.55 -127.6 Q74.35 -123.5 73.6 -117.6 L73.15 -115.55 72.95 -115.0 72.25 -113.5 71.55 -112.4 70.65 -111.35 Q69.9 -110.5 69.05 -109.95 68.05 -109.4 66.9 -109.2 L66.0 -109.05 64.7 -109.0 64.2 -109.1 62.6 -109.55 62.25 -109.7 61.85 -109.9 61.4 -110.15 60.1 -111.2 59.7 -111.6 58.7 -113.15 Q53.5 -123.15 63.1 -128.95 L64.1 -129.25 65.0 -129.3 66.25 -129.2 M63.05 -109.85 Q64.85 -109.35 66.45 -110.3 74.5 -114.9 70.45 -123.9 L70.25 -124.5 69.8 -124.8 69.2 -125.45 Q63.85 -129.8 58.75 -124.9 54.6 -116.55 61.6 -110.75 L63.05 -109.85 M61.25 -118.25 L59.75 -118.15 59.05 -117.2 59.25 -116.55 60.7 -116.1 60.9 -116.25 61.45 -117.65 Q61.7 -116.85 61.35 -116.05 L61.1 -115.5 60.6 -115.3 Q59.5 -115.35 58.8 -116.4 L59.0 -118.05 Q59.75 -118.85 60.75 -118.5 L61.25 -118.25 M53.95 -104.4 L53.9 -104.55 52.65 -105.55 52.75 -106.55 53.15 -105.95 54.55 -104.6 54.9 -104.95 56.85 -99.0 56.35 -98.9 54.4 -104.15 54.2 -104.25 54.15 -104.4 53.95 -104.4 M54.7 -109.35 L55.25 -109.6 56.05 -108.55 56.45 -107.8 56.6 -107.6 56.8 -107.35 59.4 -99.6 58.8 -99.5 57.7 -103.0 Q56.65 -106.55 54.7 -109.35 M75.65 -113.35 L75.8 -114.05 76.2 -115.4 76.95 -115.35 Q79.4 -115.0 79.75 -112.85 L78.95 -111.35 78.95 -111.25 78.75 -111.0 78.6 -110.5 78.35 -109.9 77.9 -110.35 77.95 -111.2 79.2 -113.0 77.75 -113.75 76.6 -113.1 76.4 -112.45 75.65 -113.35 M62.55 -118.45 L62.65 -118.9 63.85 -119.15 62.55 -118.45 M64.4 -119.25 L65.8 -119.55 65.75 -117.9 Q65.6 -116.65 64.25 -116.1 L63.25 -116.75 62.7 -118.0 63.15 -117.35 64.9 -117.3 65.5 -118.25 65.35 -119.2 64.65 -119.3 64.4 -119.25" fill="#e79d5a" fill-rule="evenodd" stroke="none"/>
    <path d="M87.75 -146.25 Q88.55 -146.95 89.6 -146.95 L90.15 -146.85 90.45 -146.0 Q93.15 -138.4 86.8 -133.4 86.05 -132.8 85.15 -132.4 L83.9 -132.9 83.0 -133.45 Q81.4 -134.6 80.45 -136.1 L79.6 -139.75 79.75 -140.85 Q80.05 -142.6 81.4 -144.2 L81.35 -143.2 Q80.1 -138.75 82.9 -136.15 L82.2 -138.1 83.45 -137.1 Q84.1 -136.65 84.75 -136.4 86.9 -135.55 89.15 -136.95 L89.35 -137.7 88.45 -137.2 Q86.7 -136.45 85.0 -136.8 83.55 -137.1 82.15 -138.2 L82.55 -139.4 Q83.9 -142.15 82.8 -144.95 L86.75 -145.4 86.4 -143.5 85.3 -144.75 84.55 -144.6 Q82.8 -142.15 85.0 -140.3 L85.85 -140.4 86.3 -140.85 Q86.95 -141.8 86.55 -142.9 L87.25 -144.25 87.15 -143.0 Q87.05 -142.4 87.35 -141.75 L87.65 -141.25 88.1 -140.95 Q88.6 -140.8 89.0 -141.2 89.4 -141.6 89.5 -142.5 89.65 -143.15 89.4 -143.85 L89.3 -144.05 88.6 -144.75 88.2 -144.8 87.85 -144.95 87.4 -144.65 87.75 -146.25 M50.35 -153.15 L51.45 -152.85 51.3 -156.45 52.65 -157.35 53.35 -157.0 53.15 -157.35 52.9 -157.7 51.85 -158.4 53.0 -160.35 Q53.6 -159.05 54.35 -157.85 55.05 -156.7 55.9 -155.65 L56.2 -157.25 57.65 -155.45 Q56.85 -155.45 56.3 -154.75 55.7 -154.05 55.7 -153.1 L56.25 -150.75 55.35 -150.2 53.9 -150.6 53.95 -150.65 54.4 -151.0 Q54.95 -151.6 54.9 -152.7 54.95 -153.9 54.4 -154.55 53.95 -155.05 53.25 -155.1 L53.0 -154.85 Q51.15 -152.45 53.4 -150.45 L51.3 -148.9 50.35 -153.15 M58.75 -154.2 L59.45 -155.4 Q59.1 -157.25 57.15 -157.95 L56.3 -158.3 57.6 -160.7 60.05 -157.8 Q62.8 -158.85 64.7 -161.3 L66.5 -158.3 Q70.15 -147.15 59.9 -142.95 58.3 -142.25 56.75 -142.6 L56.65 -142.65 53.95 -144.75 55.25 -146.15 55.5 -146.1 56.4 -145.25 Q64.2 -143.6 63.1 -151.55 L62.7 -152.8 62.4 -150.1 Q61.55 -149.15 60.15 -149.65 59.15 -150.05 58.2 -150.6 59.25 -151.85 58.95 -153.4 L58.75 -154.2 M30.2 -140.0 L30.7 -140.3 31.2 -140.8 32.15 -139.95 32.8 -140.0 33.9 -141.0 35.15 -139.35 Q34.15 -139.2 33.6 -138.25 L33.4 -137.65 33.85 -137.85 35.4 -137.2 34.1 -137.1 33.6 -135.65 35.25 -132.55 Q37.35 -133.5 36.8 -136.2 38.9 -134.25 38.95 -130.35 37.05 -127.85 33.9 -127.9 L33.0 -127.95 33.45 -127.35 Q36.25 -126.8 38.2 -128.75 L39.1 -129.75 39.1 -129.7 39.15 -129.85 39.95 -131.65 39.25 -130.75 Q39.75 -134.85 38.8 -138.75 L38.15 -141.35 38.1 -141.45 38.65 -140.85 39.55 -139.5 40.3 -137.95 40.75 -139.2 Q45.3 -129.3 35.95 -125.85 L35.05 -125.65 Q30.15 -127.85 29.3 -133.35 L29.05 -135.3 Q29.6 -136.6 30.9 -137.05 L31.8 -137.25 31.2 -138.05 29.45 -138.0 30.2 -140.0 M32.8 -134.35 L32.15 -135.45 Q31.65 -136.05 30.7 -136.0 L30.35 -135.45 Q29.75 -133.8 30.75 -132.2 L31.65 -131.9 32.35 -132.25 32.8 -134.35 M63.05 -109.85 L61.6 -110.75 Q54.6 -116.55 58.75 -124.9 60.45 -125.6 62.2 -125.9 67.1 -126.65 68.85 -122.15 72.55 -112.4 63.05 -109.85 M60.65 -120.55 L59.6 -121.0 57.75 -119.65 57.65 -118.95 58.05 -118.15 Q60.0 -119.45 60.65 -120.55 M61.45 -117.65 L61.25 -118.25 60.75 -118.5 Q59.75 -118.85 59.0 -118.05 L58.8 -116.4 Q59.5 -115.35 60.6 -115.3 L61.1 -115.5 61.35 -116.05 Q61.7 -116.85 61.45 -117.65 M64.05 -121.55 L62.9 -121.45 62.35 -120.7 64.65 -120.0 65.3 -119.8 65.35 -121.15 Q64.9 -121.65 64.05 -121.55 M63.85 -119.15 L62.65 -118.9 62.55 -118.45 62.7 -118.0 63.25 -116.75 64.25 -116.1 Q65.6 -116.65 65.75 -117.9 L65.8 -119.55 64.4 -119.25 63.85 -119.15 M61.7 -112.9 L61.95 -112.3 67.75 -114.15 61.7 -112.9" fill="#f8b674" fill-rule="evenodd" stroke="none"/>
    <path d="M87.4 -144.65 L87.85 -144.95 88.2 -144.8 87.7 -144.45 Q87.3 -144.0 87.15 -143.0 L87.25 -144.25 87.4 -144.65 M86.55 -143.05 L85.25 -144.0 Q83.3 -142.3 85.45 -140.55 L85.85 -140.4 85.0 -140.3 Q82.8 -142.15 84.55 -144.6 L85.3 -144.75 86.4 -143.5 86.55 -143.05" fill="#b6ad51" fill-rule="evenodd" stroke="none"/>
    <path d="M87.15 -143.0 Q87.3 -144.0 87.7 -144.45 L88.2 -144.8 88.6 -144.75 89.3 -144.05 89.4 -143.85 Q89.65 -143.15 89.5 -142.5 89.4 -141.6 89.0 -141.2 88.6 -140.8 88.1 -140.95 L87.65 -141.25 87.35 -141.75 Q87.05 -142.4 87.15 -143.0 M86.55 -143.05 L86.55 -142.9 Q86.95 -141.8 86.3 -140.85 L85.85 -140.4 85.45 -140.55 Q83.3 -142.3 85.25 -144.0 L86.55 -143.05 M88.05 -143.55 L87.9 -142.85 Q87.9 -142.45 88.05 -142.15 L88.1 -142.0 Q88.2 -141.85 88.35 -141.85 L88.7 -142.15 88.8 -142.85 88.8 -143.2 88.7 -143.55 88.35 -143.85 88.05 -143.55 M85.35 -143.7 Q85.1 -143.7 84.95 -143.3 L84.75 -142.45 84.95 -141.55 Q85.1 -141.2 85.35 -141.2 L85.8 -141.55 85.95 -142.45 85.8 -143.3 85.35 -143.7" fill="#3a2011" fill-rule="evenodd" stroke="none"/>
    <path d="M88.05 -143.55 L88.35 -143.85 88.7 -143.55 88.8 -143.2 88.8 -142.85 88.7 -142.15 88.35 -141.85 Q88.2 -141.85 88.1 -142.0 L88.05 -142.15 Q87.9 -142.45 87.9 -142.85 L88.05 -143.55 M85.35 -143.7 L85.8 -143.3 85.95 -142.45 85.8 -141.55 85.35 -141.2 Q85.1 -141.2 84.95 -141.55 L84.75 -142.45 84.95 -143.3 Q85.1 -143.7 85.35 -143.7" fill="#e7ad74" fill-rule="evenodd" stroke="none"/>
    <path d="M82.15 -138.2 Q83.55 -137.1 85.0 -136.8 86.7 -136.45 88.45 -137.2 L89.35 -137.7 89.15 -136.95 Q86.9 -135.55 84.75 -136.4 84.1 -136.65 83.45 -137.1 L82.2 -138.1 82.15 -138.2" fill="#682424" fill-rule="evenodd" stroke="none"/>
    <path d="M81.05 -132.1 L81.3 -132.05 80.8 -129.6 80.8 -129.65 80.8 -129.75 80.9 -130.7 81.05 -132.1 M83.1 -131.7 L83.4 -131.65 83.45 -130.65 83.55 -129.55 83.1 -131.7" fill="#5c4730" fill-rule="evenodd" stroke="none"/>
    <path d="M72.35 -147.15 Q71.8 -144.95 72.25 -142.7 L72.4 -142.2 68.75 -137.45 68.95 -140.35 68.3 -136.35 Q67.35 -133.7 67.55 -131.05 L67.65 -129.65 67.4 -128.95 66.25 -129.2 Q66.4 -131.45 65.55 -133.45 L65.2 -134.05 Q65.65 -131.55 65.0 -129.3 L64.1 -129.25 Q63.2 -130.55 61.75 -130.9 L60.7 -131.05 63.1 -128.95 Q53.5 -123.15 58.7 -113.15 L59.7 -111.6 59.65 -111.5 56.0 -111.75 56.05 -112.25 54.35 -112.35 53.05 -114.3 53.05 -117.3 52.7 -117.3 52.75 -114.35 Q51.1 -116.0 50.0 -118.0 L49.75 -118.5 Q48.7 -120.5 47.9 -122.8 L48.75 -125.3 Q51.75 -134.1 55.7 -142.5 L56.75 -141.85 55.9 -139.45 Q54.2 -135.0 53.8 -130.35 L54.25 -127.1 53.9 -125.4 54.2 -125.4 54.45 -126.65 54.75 -125.75 58.5 -130.2 Q58.15 -135.55 58.9 -141.15 66.95 -140.15 70.5 -147.4 L70.95 -148.3 72.35 -147.15 M68.0 -130.45 L69.8 -133.25 73.85 -126.75 75.4 -124.05 76.45 -122.4 76.5 -122.25 76.45 -122.25 76.5 -122.2 77.15 -121.15 74.95 -114.0 73.15 -115.55 73.6 -117.6 Q74.35 -123.5 69.55 -127.6 L68.15 -128.65 68.0 -130.45 M70.3 -133.9 L72.1 -136.1 72.85 -129.55 70.3 -133.9 M76.35 -123.3 L76.8 -123.0 76.85 -123.0 76.85 -123.05 Q75.25 -127.75 76.2 -132.65 L76.5 -133.0 Q77.4 -130.45 76.4 -127.85 L77.9 -128.5 78.7 -126.7 77.3 -121.95 76.35 -123.3 M80.2 -129.4 L80.6 -129.35 81.15 -129.2 81.5 -128.7 80.95 -129.05 83.9 -120.95 84.85 -121.25 Q87.55 -122.0 89.35 -124.1 93.3 -119.3 89.95 -114.25 L90.25 -113.35 80.15 -110.65 Q82.8 -118.1 81.6 -126.2 81.7 -119.95 80.8 -113.9 80.3 -115.35 78.95 -116.15 L78.8 -116.25 78.2 -116.55 77.7 -116.75 76.3 -116.8 79.25 -125.3 79.75 -126.75 80.1 -128.55 80.2 -129.4 M92.95 -107.8 L86.95 -106.35 86.3 -108.4 91.6 -109.95 91.6 -110.45 92.95 -107.8 M80.1 -104.65 L79.75 -104.6 78.8 -106.35 78.95 -107.4 80.1 -104.65 M74.0 -103.2 L66.9 -101.45 66.9 -108.6 69.45 -105.8 71.0 -109.5 74.0 -103.2 M63.65 -100.65 L63.5 -100.6 62.15 -100.3 62.7 -104.75 63.1 -103.55 64.05 -107.4 63.65 -100.65 M65.25 -135.25 L65.7 -136.9 64.05 -136.75 63.8 -136.75 Q61.35 -136.7 59.0 -137.45 L59.3 -135.8 62.7 -135.3 63.5 -135.2 65.25 -135.25 M62.6 -109.55 L64.2 -109.1 63.1 -104.65 62.6 -109.55 M66.9 -109.2 Q68.05 -109.4 69.05 -109.95 69.9 -110.5 70.65 -111.35 L71.55 -112.4 69.4 -106.6 66.9 -109.2 M72.25 -113.5 L72.95 -115.0 73.95 -114.2 77.6 -109.85 74.3 -113.65 76.9 -109.65 76.7 -109.7 Q74.8 -108.85 74.15 -106.85 L73.65 -104.8 71.1 -109.75 72.25 -113.5 M78.25 -124.2 L78.35 -124.1 77.9 -123.05 78.25 -124.2 M45.15 -124.35 L46.7 -124.15 46.35 -123.65 Q44.85 -121.9 42.65 -122.35 L41.8 -122.6 42.35 -123.1 Q44.1 -121.9 45.45 -123.65 L45.2 -124.3 45.15 -124.35 M53.65 -122.9 L53.25 -122.9 52.6 -120.3 53.3 -120.3 53.65 -122.9 M46.5 -120.35 Q46.5 -121.2 46.1 -121.8 L45.15 -122.45 47.05 -123.6 47.95 -121.5 46.5 -120.35 M44.75 -122.35 L43.7 -121.7 43.35 -122.1 44.75 -122.35 M42.15 -118.2 L43.65 -118.95 45.75 -117.95 45.85 -113.5 Q46.25 -105.9 48.2 -98.55 L48.6 -97.0 45.15 -96.15 44.2 -99.95 Q43.1 -104.55 42.6 -109.25 42.1 -113.65 42.15 -118.2 M41.0 -111.35 L44.25 -95.95 43.75 -95.8 Q42.0 -101.55 41.3 -107.6 L41.2 -108.5 41.0 -111.35 M67.8 -104.2 L71.55 -104.8 71.6 -105.9 67.4 -105.15 67.8 -104.2" fill="#f2eee6" fill-rule="evenodd" stroke="none"/>
    <path d="M88.55 -125.1 L88.85 -125.05 89.45 -124.65 88.75 -124.9 88.7 -124.05 88.55 -125.1 M82.85 -127.3 L83.05 -126.1 83.0 -125.95 81.5 -128.7 81.15 -129.2 80.6 -129.35 80.2 -129.4 80.15 -129.7 80.8 -129.65 80.8 -129.6 81.2 -129.45 81.8 -128.5 81.85 -128.5 82.85 -127.3 M83.2 -124.85 L83.85 -124.15 84.0 -123.05 83.95 -123.0 86.15 -122.35 Q85.4 -121.75 84.55 -122.05 L83.95 -122.35 83.2 -124.85 M88.65 -123.8 L88.45 -123.55 87.7 -123.85 86.5 -122.6 87.55 -124.0 88.65 -123.8 M55.9 -109.85 L55.05 -109.65 Q51.9 -108.1 52.45 -104.45 L52.4 -104.5 52.45 -104.4 53.35 -104.05 52.6 -103.85 52.05 -104.55 Q51.1 -107.05 52.7 -109.2 L53.6 -110.25 55.45 -110.45 55.9 -109.85 M53.6 -104.1 L53.95 -104.4 54.15 -104.4 54.2 -104.25 53.6 -104.1 M56.05 -108.55 L56.15 -109.45 56.45 -107.8 56.05 -108.55 M75.45 -115.4 Q75.45 -115.95 76.05 -116.3 76.6 -116.7 77.4 -116.7 L78.3 -115.9 Q79.85 -114.3 80.6 -112.2 80.6 -111.7 80.05 -111.35 79.5 -111.0 78.75 -111.0 L78.95 -111.25 79.3 -111.4 79.85 -111.5 79.85 -111.65 80.35 -111.9 80.35 -112.0 80.25 -111.95 80.15 -112.55 Q79.05 -116.35 75.45 -115.4 M75.8 -114.05 L75.65 -113.35 75.4 -115.0 75.8 -114.05 M78.25 -107.3 L78.2 -108.45 78.7 -106.55 78.25 -107.3" fill="#657728" fill-rule="evenodd" stroke="none"/>
    <path d="M81.5 -128.7 L83.0 -125.95 82.85 -125.25 83.2 -124.85 83.95 -122.35 84.55 -122.05 Q85.4 -121.75 86.15 -122.35 L86.5 -122.6 87.7 -123.85 88.45 -123.55 88.65 -123.8 88.7 -123.8 88.7 -124.05 88.75 -124.9 89.45 -124.65 89.35 -124.1 Q87.55 -122.0 84.85 -121.25 L83.9 -120.95 80.95 -129.05 81.5 -128.7 M78.2 -116.55 L78.8 -116.25 78.95 -116.15 79.7 -115.35 Q80.6 -114.05 80.6 -112.2 79.85 -114.3 78.3 -115.9 L77.4 -116.7 78.2 -116.55 M74.65 -103.35 L74.4 -103.3 74.4 -103.35 Q73.1 -106.1 75.25 -108.4 L75.9 -109.0 77.55 -109.35 78.05 -108.7 Q74.7 -107.95 74.65 -104.35 L74.65 -103.35 M65.25 -135.25 L63.5 -135.2 62.7 -135.3 59.3 -135.8 59.35 -136.85 65.25 -136.45 65.25 -135.25 M78.35 -109.9 L78.6 -110.5 78.75 -110.4 78.8 -109.7 78.35 -109.9 M67.8 -104.2 L67.4 -105.15 71.6 -105.9 71.55 -104.8 67.8 -104.2" fill="#7d9432" fill-rule="evenodd" stroke="none"/>
    <path d="M81.85 -128.55 L81.85 -128.5 81.8 -128.5 81.85 -128.55" fill="#bf824a" fill-rule="evenodd" stroke="none"/>
    <path d="M72.7 -148.15 L72.35 -147.15 70.95 -148.3 71.2 -149.05 72.6 -148.2 72.7 -148.15 M68.75 -137.45 L68.3 -136.35 68.95 -140.35 68.75 -137.45 M69.8 -133.25 L70.3 -133.9 72.85 -129.55 73.85 -126.75 69.8 -133.25 M75.4 -124.05 L76.35 -123.3 77.3 -121.95 78.7 -126.7 77.9 -128.5 78.4 -128.95 Q78.85 -127.55 78.7 -126.15 L78.3 -124.55 78.25 -124.2 77.9 -123.05 78.35 -124.1 79.25 -125.3 76.3 -116.8 77.7 -116.75 78.2 -116.55 77.4 -116.7 Q76.6 -116.7 76.05 -116.3 75.45 -115.95 75.45 -115.4 L75.4 -115.0 75.65 -113.35 76.4 -112.45 77.9 -110.35 78.35 -109.9 78.8 -109.7 78.95 -108.9 79.5 -107.4 80.6 -104.8 80.1 -104.65 78.95 -107.4 Q78.95 -108.4 78.55 -109.1 78.15 -109.85 77.6 -109.85 L73.95 -114.2 72.95 -115.0 73.15 -115.55 74.95 -114.0 77.15 -121.15 76.5 -122.2 76.5 -122.25 76.45 -122.4 75.4 -124.05 M78.95 -116.15 Q80.3 -115.35 80.8 -113.9 81.7 -119.95 81.6 -126.2 82.8 -118.1 80.15 -110.65 L78.75 -110.4 78.6 -110.5 78.75 -111.0 Q79.5 -111.0 80.05 -111.35 80.6 -111.7 80.6 -112.2 80.6 -114.05 79.7 -115.35 L78.95 -116.15 M90.25 -113.35 L89.95 -114.25 Q93.3 -119.3 89.35 -124.1 L89.45 -124.65 Q94.0 -119.3 90.4 -114.15 L90.5 -113.65 90.25 -113.35 M91.65 -110.6 L93.35 -107.95 92.95 -107.8 91.6 -110.45 91.65 -110.6 M86.95 -106.35 L86.45 -106.2 85.55 -108.4 86.3 -108.4 86.95 -106.35 M42.5 -124.3 L42.7 -123.75 41.95 -123.6 41.45 -123.3 Q41.3 -123.1 41.45 -122.85 L41.9 -122.5 42.65 -122.35 Q44.85 -121.9 46.35 -123.65 L46.7 -124.15 45.15 -124.35 45.05 -124.35 44.95 -124.95 45.7 -125.0 46.3 -124.85 46.8 -124.55 47.25 -124.05 47.6 -123.55 49.0 -127.65 Q51.75 -135.4 55.3 -142.75 L55.7 -142.5 Q51.75 -134.1 48.75 -125.3 L47.9 -122.8 Q48.7 -120.5 49.75 -118.5 L50.0 -118.0 Q51.1 -116.0 52.75 -114.35 L52.7 -117.3 53.05 -117.3 53.05 -114.3 54.35 -112.35 55.5 -111.05 55.95 -110.65 56.3 -110.05 Q56.95 -109.0 56.7 -107.9 L56.6 -107.6 56.45 -107.8 56.15 -109.45 55.9 -109.85 55.45 -110.45 53.6 -110.25 52.7 -109.2 Q51.1 -107.05 52.05 -104.55 L52.6 -103.85 53.35 -104.05 53.6 -104.1 54.2 -104.25 54.4 -104.15 55.6 -98.7 49.1 -97.1 Q46.8 -105.5 46.35 -114.15 L46.3 -115.2 46.35 -118.95 46.5 -120.35 47.95 -121.5 47.05 -123.6 45.15 -122.45 44.75 -122.35 43.35 -122.1 43.7 -121.7 42.35 -121.7 42.5 -122.1 41.3 -122.05 40.9 -122.15 Q40.9 -123.05 41.4 -123.65 41.85 -124.3 42.5 -124.3 M42.7 -123.7 L43.45 -123.0 44.85 -123.35 45.35 -123.6 45.1 -124.3 45.2 -124.3 45.45 -123.65 Q44.1 -121.9 42.35 -123.1 L42.7 -123.7 M62.25 -109.7 L62.6 -109.55 63.1 -104.65 64.2 -109.1 64.7 -109.0 64.25 -108.05 64.05 -107.4 63.1 -103.55 62.7 -104.75 62.15 -100.3 61.8 -100.2 62.05 -103.2 62.15 -103.75 62.15 -104.05 62.25 -105.25 62.35 -105.8 62.15 -107.35 62.15 -107.4 62.25 -109.7 M66.0 -109.05 L66.9 -109.2 69.4 -106.6 71.55 -112.4 72.25 -113.5 71.1 -109.75 71.0 -109.5 69.45 -105.8 66.9 -108.6 66.45 -108.85 66.0 -109.05 M54.45 -126.65 L54.2 -125.4 53.9 -125.4 54.25 -127.1 54.45 -126.65 M53.65 -122.9 L53.3 -120.3 52.6 -120.3 53.25 -122.9 53.65 -122.9 M40.9 -115.3 L41.0 -111.35 41.2 -108.5 41.3 -107.6 Q42.0 -101.55 43.75 -95.8 L43.5 -95.85 Q41.75 -101.55 41.15 -107.4 40.75 -111.3 40.9 -115.3" fill="#d7cbb3" fill-rule="evenodd" stroke="none"/>
    <path d="M94.55 -152.85 L101.65 -109.85 63.4 -100.45 63.4 -100.5 63.5 -100.6 63.65 -100.65 64.15 -100.8 66.5 -101.35 66.9 -101.45 74.0 -103.2 74.4 -103.3 74.65 -103.35 75.1 -103.45 75.85 -103.65 76.45 -103.75 78.75 -104.35 79.75 -104.6 80.1 -104.65 80.6 -104.8 80.9 -104.9 85.8 -106.1 86.45 -106.2 86.95 -106.35 92.95 -107.8 93.35 -107.95 91.65 -110.6 90.5 -113.65 90.4 -114.15 Q94.0 -119.3 89.45 -124.65 L88.85 -125.05 88.0 -126.7 92.55 -126.95 Q90.7 -127.55 89.4 -129.1 87.9 -130.9 87.45 -133.0 L88.95 -134.3 90.85 -132.7 92.05 -132.0 90.0 -135.7 Q93.1 -140.9 90.7 -146.4 L91.1 -147.1 92.05 -145.3 91.45 -147.65 94.55 -152.85 M92.5 -143.8 L92.65 -141.1 Q92.6 -139.15 94.25 -137.9 L92.5 -143.8" fill="#9c1b3c" fill-rule="evenodd" stroke="none"/>
    <path d="M84.0 -123.05 L84.0 -123.0 83.95 -123.0 84.0 -123.05" fill="#ce9255" fill-rule="evenodd" stroke="none"/>
    <path d="M80.15 -110.65 L90.25 -113.35 90.5 -113.65 91.65 -110.6 91.6 -110.45 91.6 -109.95 86.3 -108.4 85.55 -108.4 79.5 -107.4 78.95 -108.9 78.8 -109.7 78.75 -110.4 80.15 -110.65" fill="#272727" fill-rule="evenodd" stroke="none"/>
    <path d="M86.45 -106.2 L85.8 -106.1 80.9 -104.9 80.6 -104.8 79.5 -107.4 85.55 -108.4 86.45 -106.2" fill="#8a1c1c" fill-rule="evenodd" stroke="none"/>
    <path d="M53.6 -153.8 L53.95 -153.45 54.1 -152.65 53.95 -151.8 53.6 -151.5 53.25 -151.8 Q53.1 -152.15 53.1 -152.65 53.1 -153.15 53.25 -153.45 L53.6 -153.8 M57.2 -153.75 L57.65 -153.35 57.8 -152.5 57.65 -151.6 57.2 -151.25 Q56.95 -151.25 56.8 -151.6 L56.6 -152.5 56.8 -153.35 Q56.95 -153.75 57.2 -153.75 M31.25 -134.7 L31.6 -135.05 31.95 -134.7 32.1 -133.95 31.95 -133.15 31.6 -132.85 Q31.4 -132.85 31.25 -133.15 31.1 -133.5 31.1 -133.95 L31.25 -134.7 M35.75 -134.95 L35.55 -134.05 Q35.35 -133.7 35.05 -133.7 34.75 -133.7 34.55 -134.05 L34.35 -134.95 34.55 -135.8 Q34.75 -136.2 35.05 -136.2 35.35 -136.2 35.55 -135.8 L35.75 -134.95" fill="#ffdbb7" fill-rule="evenodd" stroke="none"/>
    <path d="M57.85 -150.75 L56.25 -150.75 55.7 -153.1 56.2 -154.4 56.85 -154.4 Q58.2 -154.15 58.5 -152.75 L57.85 -150.75 M53.85 -150.6 L53.7 -150.55 53.05 -150.8 Q51.5 -154.05 54.45 -154.1 L54.9 -152.7 Q54.95 -151.6 54.4 -151.0 L53.95 -150.65 53.85 -150.6 M53.6 -153.8 L53.25 -153.45 Q53.1 -153.15 53.1 -152.65 53.1 -152.15 53.25 -151.8 L53.6 -151.5 53.95 -151.8 54.1 -152.65 53.95 -153.45 53.6 -153.8 M57.2 -153.75 Q56.95 -153.75 56.8 -153.35 L56.6 -152.5 56.8 -151.6 Q56.95 -151.25 57.2 -151.25 L57.65 -151.6 57.8 -152.5 57.65 -153.35 57.2 -153.75 M33.6 -135.65 L34.85 -136.85 35.4 -136.45 Q36.9 -134.65 35.25 -132.55 L33.6 -135.65 M35.75 -134.95 L35.55 -135.8 Q35.35 -136.2 35.05 -136.2 34.75 -136.2 34.55 -135.8 L34.35 -134.95 34.55 -134.05 Q34.75 -133.7 35.05 -133.7 35.35 -133.7 35.55 -134.05 L35.75 -134.95 M31.25 -134.7 L31.1 -133.95 Q31.1 -133.5 31.25 -133.15 31.4 -132.85 31.6 -132.85 L31.95 -133.15 32.1 -133.95 31.95 -134.7 31.6 -135.05 31.25 -134.7 M32.8 -134.35 L32.35 -132.25 31.65 -131.9 Q30.85 -132.3 30.65 -133.2 30.3 -134.6 31.55 -135.7 L32.8 -134.35 M60.15 -116.45 L60.9 -117.5 59.4 -117.5 60.15 -116.45 M61.45 -117.65 L60.9 -116.25 60.7 -116.1 59.25 -116.55 59.05 -117.2 59.75 -118.15 61.25 -118.25 61.45 -117.65 M62.55 -118.45 L63.85 -119.15 64.4 -119.25 64.65 -119.3 65.35 -119.2 65.5 -118.25 64.9 -117.3 63.15 -117.35 62.7 -118.0 62.55 -118.45 M64.9 -118.7 L63.2 -118.3 64.1 -117.5 64.5 -117.65 64.9 -118.7" fill="#3d2618" fill-rule="evenodd" stroke="none"/>
    <path d="M38.95 -130.35 L39.25 -130.75 39.95 -131.65 39.15 -129.85 39.1 -129.75 38.2 -128.75 Q36.25 -126.8 33.45 -127.35 L33.0 -127.95 33.9 -127.9 Q37.05 -127.85 38.95 -130.35 M61.7 -112.9 L67.75 -114.15 61.95 -112.3 61.7 -112.9" fill="#6c3d28" fill-rule="evenodd" stroke="none"/>
    <path d="M74.5 -139.6 Q74.8 -131.95 75.95 -124.25 73.15 -127.85 72.6 -132.5 72.2 -136.25 73.35 -139.95 L73.55 -135.15 74.15 -139.95 74.5 -139.6" fill="#8e1c1c" fill-rule="evenodd" stroke="none"/>
    <path d="M59.3 -135.8 L59.0 -137.45 Q61.35 -136.7 63.8 -136.75 L64.05 -136.75 65.7 -136.9 65.25 -135.25 65.25 -136.45 59.35 -136.85 59.3 -135.8" fill="#3c4617" fill-rule="evenodd" stroke="none"/>
    <path d="M67.65 -129.65 L68.0 -130.45 68.15 -128.65 67.4 -128.95 67.65 -129.65 M65.0 -129.3 Q65.65 -131.55 65.2 -134.05 L65.55 -133.45 Q66.4 -131.45 66.25 -129.2 L65.0 -129.3 M64.1 -129.25 L63.1 -128.95 60.7 -131.05 61.75 -130.9 Q63.2 -130.55 64.1 -129.25 M60.65 -120.55 Q60.0 -119.45 58.05 -118.15 L57.65 -118.95 57.75 -119.65 59.6 -121.0 60.65 -120.55 M64.05 -121.55 Q64.9 -121.65 65.35 -121.15 L65.3 -119.8 64.65 -120.0 62.35 -120.7 62.9 -121.45 64.05 -121.55" fill="#7a7a7a" fill-rule="evenodd" stroke="none"/>
    <path d="M60.15 -116.45 L59.4 -117.5 60.9 -117.5 60.15 -116.45 M64.9 -118.7 L64.5 -117.65 64.1 -117.5 63.2 -118.3 64.9 -118.7" fill="#fac48d" fill-rule="evenodd" stroke="none"/>
    <path d="M54.35 -112.35 L56.05 -112.25 56.0 -111.75 59.65 -111.5 59.65 -110.95 56.0 -111.25 55.95 -110.65 55.5 -111.05 54.35 -112.35 M56.7 -107.9 L59.45 -107.65 59.45 -107.1 56.8 -107.35 56.6 -107.6 56.7 -107.9 M62.15 -107.35 L62.0 -106.85 61.75 -106.9 61.75 -107.4 62.15 -107.4 62.15 -107.35" fill="#331a00" fill-rule="evenodd" stroke="none"/>
    <path d="M45.75 -117.95 L46.35 -118.95 46.3 -115.2 46.35 -114.15 Q46.8 -105.5 49.1 -97.1 L48.6 -97.0 48.2 -98.55 Q46.25 -105.9 45.85 -113.5 L45.75 -117.95 M41.2 -118.0 L41.5 -117.95 41.7 -118.0 42.15 -118.2 Q42.1 -113.65 42.6 -109.25 43.1 -104.55 44.2 -99.95 L45.15 -96.15 44.5 -95.95 44.25 -95.95 41.0 -111.35 40.9 -115.3 41.2 -118.0" fill="#526020" fill-rule="evenodd" stroke="none"/>
    <path d="M42.7 -123.75 L42.7 -123.7 42.35 -123.1 41.8 -122.6 42.65 -122.35 41.9 -122.5 41.45 -122.85 Q41.3 -123.1 41.45 -123.3 L41.95 -123.6 42.7 -123.75 M42.35 -121.7 L41.3 -122.05 42.5 -122.1 42.35 -121.7" fill="#beac96" fill-rule="evenodd" stroke="none"/>
    <path d="M61.85 -109.9 L62.25 -109.7 62.15 -107.4 61.75 -107.4 61.85 -109.9 M55.95 -110.65 L56.0 -111.25 59.65 -110.95 59.45 -107.65 56.7 -107.9 Q56.95 -109.0 56.3 -110.05 L55.95 -110.65" fill="#663300" fill-rule="evenodd" stroke="none"/>
    <path d="M75.1 -103.45 L74.65 -103.35 74.65 -104.35 Q74.7 -107.95 78.05 -108.7 L77.55 -109.35 75.9 -109.0 75.25 -108.4 Q73.1 -106.1 74.4 -103.35 L74.4 -103.3 74.0 -103.2 71.0 -109.5 71.1 -109.75 73.65 -104.8 74.15 -106.85 Q74.8 -108.85 76.7 -109.7 L76.9 -109.65 74.3 -113.65 77.6 -109.85 Q78.15 -109.85 78.55 -109.1 78.95 -108.4 78.95 -107.4 L78.8 -106.35 78.7 -106.55 78.2 -108.45 78.25 -107.3 77.45 -108.4 76.6 -107.7 Q75.05 -106.45 74.9 -104.35 L75.1 -103.45 M55.9 -109.85 L56.15 -109.45 56.05 -108.55 55.25 -109.6 54.7 -109.35 54.15 -108.9 Q52.95 -107.95 52.75 -106.55 L52.65 -105.55 53.25 -104.25 53.9 -104.55 53.95 -104.4 53.6 -104.1 53.35 -104.05 52.45 -104.4 52.45 -104.45 Q51.9 -108.1 55.05 -109.65 L55.9 -109.85 M75.4 -115.0 L75.45 -115.4 Q79.05 -116.35 80.15 -112.55 L80.25 -111.95 80.35 -111.9 79.85 -111.65 79.75 -112.85 Q79.4 -115.0 76.95 -115.35 L76.2 -115.4 75.8 -114.05 75.4 -115.0 M78.95 -111.25 L78.95 -111.35 79.3 -111.4 78.95 -111.25" fill="#2e3612" fill-rule="evenodd" stroke="none"/>
    <path d="M52.75 -106.55 Q52.95 -107.95 54.15 -108.9 L54.7 -109.35 Q56.65 -106.55 57.7 -103.0 L58.8 -99.5 58.2 -99.35 Q57.7 -103.6 55.2 -106.85 54.6 -107.6 53.75 -107.0 L53.15 -105.95 52.75 -106.55" fill="#feb86b" fill-rule="evenodd" stroke="none"/>
    <path d="M75.85 -103.65 L75.1 -103.45 74.9 -104.35 75.85 -103.65 M53.9 -104.55 L53.25 -104.25 52.65 -105.55 53.9 -104.55 M78.95 -111.35 L79.75 -112.85 79.85 -111.65 79.85 -111.5 79.3 -111.4 78.95 -111.35" fill="#3f4918" fill-rule="evenodd" stroke="none"/>
    <path d="M53.15 -105.95 L53.75 -107.0 Q54.6 -107.6 55.2 -106.85 57.7 -103.6 58.2 -99.35 L56.85 -99.0 54.9 -104.95 54.55 -104.6 53.15 -105.95" fill="#fec281" fill-rule="evenodd" stroke="none"/>
    <path d="M52.45 -104.45 L52.45 -104.4 52.4 -104.5 52.45 -104.45 M80.25 -111.95 L80.35 -112.0 80.35 -111.9 80.25 -111.95" fill="#2d4316" fill-rule="evenodd" stroke="none"/>
    <path d="M76.5 -122.2 L76.45 -122.25 76.5 -122.25 76.5 -122.2" fill="#443d0b" fill-rule="evenodd" stroke="none"/>
    <path d="M36.4 -83.1 L48.05 -86.0 48.45 -83.95 49.4 -84.2 49.65 -84.25 49.7 -84.25 59.45 -86.9 59.55 -86.95 59.7 -86.95 64.2 -88.15 64.3 -88.2 64.4 -88.2 73.95 -90.8 74.0 -90.8 74.2 -90.85 77.9 -91.8 78.0 -91.85 78.2 -91.9 89.55 -94.95 89.45 -96.4 90.45 -96.65 90.6 -94.2 78.8 -91.05 98.55 -24.95 95.3 -22.95 93.2 -24.25 87.0 -45.25 52.4 -30.5 53.55 -2.35 50.4 0.0 48.1 -1.0 43.9 -83.2 43.0 -83.15 36.6 -25.6 33.1 -24.1 30.6 -26.1 36.4 -83.1 M77.8 -90.8 L75.9 -90.3 87.3 -51.2 87.75 -51.35 89.25 -46.25 88.8 -46.05 95.1 -24.25 95.3 -24.15 97.35 -25.4 77.8 -90.8 M73.8 -89.75 L64.95 -87.35 72.35 -45.15 85.45 -50.45 73.8 -89.75 M63.95 -87.1 L61.4 -86.4 68.85 -43.7 71.4 -44.75 63.95 -87.1 M48.0 -82.85 L46.2 -82.75 50.3 -1.2 52.55 -2.85 51.35 -30.7 51.5 -30.45 51.7 -30.35 51.4 -30.65 51.4 -31.0 51.45 -31.1 51.65 -31.3 87.0 -46.35 87.15 -46.4 88.05 -46.8 87.1 -50.05 86.35 -49.7 86.3 -49.7 86.25 -49.65 51.9 -35.75 51.85 -35.7 51.7 -35.7 51.65 -35.7 51.3 -35.8 51.2 -36.0 51.15 -36.1 49.2 -83.1 48.3 -82.9 48.15 -82.85 48.0 -82.85 M59.25 -85.85 L50.2 -83.35 52.15 -36.9 67.15 -43.0 59.25 -85.85 M52.2 -30.45 L52.05 -30.4 51.9 -30.35 52.2 -30.45" fill="#3f2112" fill-rule="evenodd" stroke="none"/>
    <path d="M48.05 -86.0 L89.45 -96.4 89.55 -94.95 78.2 -91.9 78.0 -91.85 77.9 -91.8 74.2 -90.85 74.0 -90.8 73.95 -90.8 64.4 -88.2 64.3 -88.2 64.2 -88.15 59.7 -86.95 59.55 -86.95 59.45 -86.9 49.7 -84.25 49.65 -84.25 49.4 -84.2 48.45 -83.95 48.05 -86.0 M77.8 -90.8 L97.35 -25.4 95.3 -24.15 95.1 -24.25 88.8 -46.05 89.25 -46.25 87.75 -51.35 87.3 -51.2 75.9 -90.3 77.8 -90.8 M63.95 -87.1 L71.4 -44.75 68.85 -43.7 61.4 -86.4 63.95 -87.1 M48.0 -82.85 L48.15 -82.85 48.3 -82.9 49.2 -83.1 51.15 -36.1 51.2 -36.0 51.3 -35.8 51.65 -35.7 51.7 -35.7 51.85 -35.7 51.9 -35.75 86.25 -49.65 86.3 -49.7 86.35 -49.7 87.1 -50.05 88.05 -46.8 87.15 -46.4 87.0 -46.35 51.65 -31.3 51.45 -31.1 51.4 -31.0 51.4 -30.65 51.7 -30.35 51.5 -30.45 51.35 -30.7 52.55 -2.85 50.3 -1.2 46.2 -82.75 48.0 -82.85" fill="#98512e" fill-rule="evenodd" stroke="none"/>
    <path d="M91.3 -172.45 L94.55 -152.85 91.45 -147.65 91.1 -148.95 Q90.85 -150.0 89.9 -150.8 87.6 -158.1 79.8 -156.3 L78.5 -155.85 91.3 -172.45 M63.4 -100.45 L29.45 -92.15 29.45 -92.2 41.15 -107.4 Q41.75 -101.55 43.5 -95.85 L43.75 -95.8 44.25 -95.95 44.5 -95.95 45.15 -96.15 48.6 -97.0 49.1 -97.1 55.6 -98.7 56.35 -98.9 56.85 -99.0 58.2 -99.35 58.8 -99.5 59.4 -99.6 61.8 -100.2 62.15 -100.3 63.5 -100.6 63.4 -100.5 63.4 -100.45 M72.9 -148.55 L72.7 -148.15 72.6 -148.2 72.9 -148.55 M89.45 -148.8 L91.1 -147.1 90.7 -146.4 90.4 -147.0 89.45 -148.8" fill="#c4224a" fill-rule="evenodd" stroke="none"/>
  </g>
</svg>
