<?xml version="1.0" encoding="UTF-8" standalone="no"?>
<svg xmlns:ffdec="https://www.free-decompiler.com/flash" xmlns:xlink="http://www.w3.org/1999/xlink" ffdec:objectType="shape" height="105.7px" width="125.05px" xmlns="http://www.w3.org/2000/svg">
  <g transform="matrix(1.0, 0.0, 0.0, 1.0, -0.25, 111.15)">
    <path d="M116.3 -7.1 L115.55 -7.0 113.0 -14.85 Q110.8 -21.9 110.7 -24.75 110.1 -35.75 110.15 -40.65 L110.25 -44.05 109.4 -58.35 110.45 -67.8 110.6 -69.05 110.25 -69.05 110.15 -78.9 111.2 -97.7 113.0 -97.7 112.25 -88.65 110.85 -70.75 114.0 -97.8 116.3 -98.05 116.3 -74.5 114.3 -54.35 Q113.25 -44.15 113.25 -34.05 113.25 -25.8 114.4 -21.05 L116.3 -15.6 116.3 -7.1 M114.5 -6.85 Q112.8 -6.65 109.5 -6.8 L110.15 -19.8 110.3 -20.9 112.55 -13.1 114.5 -6.85 M108.5 -6.9 L105.3 -7.55 105.3 -10.4 Q105.9 -12.7 106.65 -20.45 107.5 -28.7 107.5 -33.35 L106.55 -54.75 105.55 -76.8 Q105.55 -83.75 107.45 -98.0 L110.4 -97.7 Q109.85 -91.75 109.1 -76.6 L108.5 -62.2 108.7 -53.55 108.55 -53.55 109.65 -44.1 Q109.65 -23.25 109.3 -19.55 L108.5 -6.9 M18.3 -7.1 L17.55 -7.0 15.0 -14.85 Q12.8 -21.9 12.7 -24.75 12.1 -35.75 12.15 -40.65 L12.25 -44.05 11.4 -58.35 12.45 -67.8 16.0 -97.8 18.3 -98.05 18.3 -74.5 16.3 -54.35 Q15.25 -44.1 15.25 -34.05 15.25 -24.05 18.3 -15.6 L18.3 -7.1 M16.5 -6.85 Q14.8 -6.65 11.5 -6.8 L12.15 -19.8 12.3 -20.9 Q12.6 -19.45 14.55 -13.1 L16.5 -6.85 M10.5 -6.9 L7.3 -7.55 7.3 -10.4 Q7.9 -12.7 8.65 -20.45 9.5 -28.7 9.5 -33.35 L8.55 -54.75 7.55 -76.8 Q7.55 -83.75 9.45 -98.0 L8.45 -98.2 7.3 -91.35 7.3 -98.5 12.4 -97.75 10.5 -62.2 10.55 -53.55 11.65 -44.1 Q11.65 -23.15 11.35 -19.55 10.7 -11.85 10.5 -6.9 M69.2 -7.55 L66.0 -6.9 Q65.95 -12.6 65.35 -18.15 64.9 -22.4 64.85 -35.25 L64.1 -24.95 Q63.7 -20.45 62.15 -16.05 60.1 -10.8 58.95 -7.0 L58.2 -7.1 58.2 -15.6 Q59.2 -17.2 60.25 -23.15 61.25 -29.0 61.25 -32.55 61.25 -39.9 60.3 -47.6 L58.2 -63.55 58.2 -84.4 60.5 -84.1 63.7 -61.0 62.4 -70.45 Q61.45 -76.75 61.5 -84.05 L63.25 -84.05 Q64.35 -71.95 64.35 -67.8 L64.25 -59.25 63.95 -59.25 64.05 -58.5 65.1 -51.05 65.1 -41.3 65.2 -41.8 65.95 -47.0 65.8 -47.0 66.0 -54.9 65.4 -67.85 Q64.7 -80.4 64.1 -84.05 L67.05 -84.35 68.15 -74.25 68.95 -64.7 Q68.95 -60.85 68.0 -45.35 L67.0 -30.55 Q67.0 -21.25 67.6 -17.4 L69.2 -10.4 69.2 -7.55 M65.0 -6.8 Q61.75 -6.65 60.0 -6.85 L64.2 -20.55 64.35 -19.0 65.0 -6.8 M69.2 -84.85 L69.2 -77.7 68.05 -84.55 69.2 -84.85 M69.2 -48.35 L69.2 -14.6 68.55 -21.4 Q68.0 -28.2 68.0 -30.5 L69.2 -48.35 M90.1 -9.9 L89.65 -9.8 Q88.1 -15.3 86.8 -30.1 86.15 -37.55 85.8 -44.0 L86.6 -50.0 Q87.65 -57.85 88.7 -70.25 L90.1 -70.45 90.1 -54.75 89.1 -42.9 Q88.2 -32.1 88.2 -27.8 88.2 -25.85 88.85 -21.5 89.5 -16.85 90.1 -15.55 L90.1 -9.9 M89.0 -9.7 Q87.85 -9.55 85.85 -9.7 86.1 -12.0 86.15 -17.5 L86.35 -19.05 89.0 -9.7 M85.25 -9.75 L83.2 -10.2 83.2 -12.1 84.05 -18.8 84.6 -26.6 84.0 -39.1 83.4 -56.3 Q83.4 -58.25 83.75 -62.85 L84.55 -70.4 83.95 -70.55 83.2 -65.95 83.2 -70.75 83.95 -70.55 86.4 -70.2 Q84.85 -53.25 85.5 -42.45 86.3 -29.0 85.25 -9.75 M58.2 -56.4 L59.45 -44.45 Q60.25 -35.55 60.25 -32.9 L59.45 -26.75 58.2 -19.65 58.2 -56.4 M40.85 -9.9 L40.4 -9.8 Q38.9 -14.7 37.6 -27.7 36.9 -34.25 36.55 -39.9 L37.35 -45.75 Q38.45 -52.45 39.45 -63.05 L40.85 -63.15 40.85 -49.35 39.85 -38.9 Q38.95 -29.35 38.95 -25.65 38.95 -23.95 39.6 -20.1 40.3 -16.1 40.85 -14.85 L40.85 -9.9 M39.75 -9.75 L36.6 -9.7 Q36.85 -11.75 36.9 -16.55 L37.1 -17.95 39.75 -9.75 M36.0 -9.75 L33.95 -10.15 33.95 -11.8 Q34.65 -14.1 35.35 -24.55 L34.75 -36.7 Q34.15 -46.2 34.15 -50.7 34.15 -52.4 34.5 -56.45 L35.3 -63.15 37.15 -62.95 37.15 -62.1 Q35.6 -48.05 36.25 -38.6 37.05 -26.65 36.0 -9.75 M33.95 -63.45 L34.05 -63.4 34.7 -63.25 33.95 -59.25 33.95 -63.45 M40.85 -44.05 L40.85 -17.4 39.6 -25.65 Q39.6 -29.9 40.85 -44.05 M13.45 -97.7 L15.0 -97.7 Q15.55 -91.8 12.3 -69.05 L12.15 -78.9 12.6 -86.55 13.45 -97.7 M7.3 -55.2 L8.5 -32.0 8.0 -21.4 7.3 -14.6 7.3 -55.2 M37.85 -62.95 L38.8 -62.95 Q39.05 -59.45 38.2 -52.9 L37.1 -46.2 37.0 -51.95 37.25 -56.6 37.85 -62.95 M33.95 -38.05 Q34.7 -28.6 34.7 -24.9 L34.5 -19.95 33.95 -14.25 33.95 -38.05 M18.3 -65.45 L18.3 -19.9 Q17.9 -21.6 16.25 -34.0 16.25 -38.5 16.65 -46.0 17.2 -56.95 18.3 -65.45 M105.3 -91.35 L105.3 -98.5 106.45 -98.2 105.3 -91.35 M105.3 -55.2 L106.25 -39.45 106.5 -32.0 106.0 -21.4 105.3 -14.6 105.3 -55.2 M90.1 -48.75 L90.1 -18.4 88.85 -27.8 89.1 -35.75 90.1 -48.75 M87.1 -70.2 L88.05 -70.2 88.05 -67.1 86.35 -51.1 86.25 -57.7 86.5 -62.9 87.1 -70.2 M83.2 -41.9 Q83.95 -30.5 83.95 -26.45 L83.75 -21.35 83.2 -14.9 83.2 -41.9 M116.3 -65.45 L116.3 -19.9 Q115.9 -21.6 114.25 -34.0 L114.65 -46.0 Q115.2 -56.95 116.3 -65.45" fill="#88461a" fill-rule="evenodd" stroke="none"/>
    <path d="M99.6 -102.4 L99.55 -102.6 99.5 -104.0 99.5 -104.05 99.5 -104.15 99.5 -104.25 99.65 -105.1 99.7 -105.3 Q100.35 -106.9 102.95 -108.2 L102.95 -108.15 103.5 -108.4 103.85 -108.55 105.3 -109.05 Q108.15 -109.9 111.75 -109.9 L114.55 -109.75 116.3 -109.5 117.5 -109.25 119.75 -108.55 120.6 -108.15 120.6 -108.2 Q123.15 -106.9 123.8 -105.3 L123.9 -105.1 124.05 -104.25 124.05 -104.15 124.05 -104.05 124.05 -104.0 124.0 -102.65 Q121.5 -100.05 119.55 -99.2 117.15 -98.2 112.45 -98.2 107.6 -98.2 104.6 -99.25 101.85 -100.2 99.6 -102.4 M111.8 -109.2 Q107.2 -109.2 104.0 -107.75 100.75 -106.35 100.75 -104.3 100.75 -102.25 104.0 -100.8 107.2 -99.4 111.8 -99.4 116.4 -99.4 119.65 -100.8 122.85 -102.25 122.85 -104.3 122.85 -106.35 119.65 -107.75 116.4 -109.2 111.8 -109.2 M1.6 -102.4 L1.55 -102.6 1.5 -104.0 1.5 -104.05 1.5 -104.15 1.5 -104.25 1.65 -105.1 1.7 -105.3 Q2.35 -106.9 4.95 -108.2 L4.95 -108.15 5.5 -108.4 5.85 -108.55 7.3 -109.05 13.75 -109.9 16.55 -109.75 18.3 -109.5 19.5 -109.25 21.75 -108.55 22.6 -108.15 22.6 -108.2 Q25.15 -106.9 25.8 -105.3 L25.9 -105.1 26.05 -104.25 26.05 -104.15 26.05 -104.05 26.05 -104.0 26.0 -102.65 Q23.6 -100.05 21.55 -99.2 19.15 -98.2 14.45 -98.2 9.6 -98.2 6.6 -99.25 3.85 -100.2 1.6 -102.4 M2.75 -104.3 Q2.75 -102.25 6.0 -100.8 9.2 -99.4 13.8 -99.4 18.4 -99.4 21.65 -100.8 24.85 -102.25 24.85 -104.3 24.85 -106.35 21.65 -107.75 18.4 -109.2 13.8 -109.2 9.2 -109.2 6.0 -107.75 2.75 -106.35 2.75 -104.3 M50.5 -89.0 L50.45 -90.35 50.45 -90.4 50.45 -90.5 50.45 -90.6 50.6 -91.45 50.7 -91.65 Q51.35 -93.25 53.9 -94.55 L53.9 -94.5 54.75 -94.9 57.0 -95.6 58.2 -95.85 59.95 -96.1 62.75 -96.25 Q66.35 -96.25 69.2 -95.4 L70.65 -94.9 71.0 -94.75 71.55 -94.5 71.55 -94.55 Q74.15 -93.25 74.8 -91.65 L74.85 -91.45 75.0 -90.6 75.0 -90.5 75.0 -90.4 75.0 -90.35 74.95 -88.95 74.9 -88.75 Q72.55 -86.5 69.9 -85.6 67.0 -84.55 62.05 -84.55 59.15 -84.55 55.95 -85.5 51.85 -86.75 50.5 -89.0 M70.6 -94.1 Q67.35 -95.55 62.75 -95.55 58.15 -95.55 54.95 -94.1 51.7 -92.7 51.7 -90.65 51.7 -88.6 54.95 -87.15 58.15 -85.75 62.75 -85.75 67.35 -85.75 70.6 -87.15 73.8 -88.6 73.8 -90.65 73.8 -92.7 70.6 -94.1 M79.65 -73.35 L79.6 -73.45 79.6 -74.4 79.6 -74.5 79.6 -74.55 79.7 -75.1 79.7 -75.25 Q80.1 -76.3 81.75 -77.2 L81.75 -77.15 82.1 -77.3 82.3 -77.4 83.2 -77.75 87.25 -78.3 89.0 -78.2 90.1 -78.05 90.85 -77.9 92.3 -77.4 92.8 -77.15 92.8 -77.2 Q94.4 -76.3 94.8 -75.25 L94.9 -75.1 95.0 -74.55 95.0 -74.5 95.0 -74.4 94.95 -73.5 Q93.0 -71.95 91.95 -71.4 90.3 -70.55 87.7 -70.55 L82.8 -71.15 Q81.05 -71.75 79.65 -73.35 M30.4 -65.7 L30.35 -65.85 30.35 -66.65 30.35 -66.8 30.45 -67.3 30.45 -67.4 Q30.85 -68.35 32.5 -69.1 L32.85 -69.25 33.05 -69.35 33.95 -69.6 38.0 -70.1 39.75 -70.05 40.85 -69.9 41.6 -69.75 43.05 -69.35 43.55 -69.1 Q45.15 -68.35 45.55 -67.4 L45.65 -67.3 45.75 -66.8 45.75 -66.65 45.7 -65.85 Q43.7 -64.6 42.7 -64.1 41.0 -63.25 38.45 -63.25 L34.05 -63.4 33.95 -63.45 33.3 -63.65 33.3 -63.55 32.75 -63.7 32.7 -63.7 32.7 -63.9 31.35 -64.75 30.4 -65.7 M45.0 -66.85 Q45.0 -68.05 43.0 -68.9 40.95 -69.75 38.05 -69.75 35.15 -69.75 33.15 -68.9 31.1 -68.05 31.1 -66.85 31.1 -65.65 33.15 -64.8 35.15 -63.95 38.05 -63.95 40.95 -63.95 43.0 -64.8 45.0 -65.65 45.0 -66.85 M82.4 -76.9 Q80.35 -75.95 80.35 -74.6 80.35 -73.25 82.4 -72.3 84.4 -71.35 87.3 -71.35 90.2 -71.35 92.25 -72.3 94.25 -73.25 94.25 -74.6 94.25 -75.95 92.25 -76.9 90.2 -77.85 87.3 -77.85 84.4 -77.85 82.4 -76.9" fill="#bb6f3d" fill-rule="evenodd" stroke="none"/>
    <path d="M105.45 -101.1 Q107.3 -100.0 111.35 -100.0 116.95 -100.0 119.35 -102.2 120.6 -103.35 120.7 -104.55 120.7 -105.5 119.0 -106.85 117.15 -108.35 115.25 -108.35 L108.9 -108.0 Q105.1 -107.4 102.55 -105.25 L102.7 -105.05 Q104.35 -106.0 108.45 -106.95 L113.15 -107.8 Q115.85 -107.8 118.05 -106.7 120.1 -105.7 120.1 -104.6 120.1 -103.25 117.8 -102.05 115.2 -100.7 111.4 -100.7 L107.7 -101.3 Q105.5 -102.0 104.7 -103.25 107.1 -105.65 112.2 -105.65 113.05 -105.65 114.9 -104.45 114.65 -103.2 112.1 -102.65 L109.95 -102.65 109.45 -103.15 110.45 -103.8 111.45 -104.5 111.4 -104.75 111.0 -104.8 109.4 -104.65 109.15 -104.05 Q108.85 -103.6 108.85 -103.05 L108.9 -102.4 109.1 -102.35 Q109.8 -101.95 111.05 -101.95 113.8 -101.95 114.95 -103.15 115.6 -103.85 115.6 -104.65 115.6 -106.3 110.85 -106.3 108.1 -106.3 105.95 -105.2 104.05 -104.2 104.05 -103.25 104.05 -101.95 105.45 -101.1 M111.8 -109.2 Q116.4 -109.2 119.65 -107.75 122.85 -106.35 122.85 -104.3 122.85 -102.25 119.65 -100.8 116.4 -99.4 111.8 -99.4 107.2 -99.4 104.0 -100.8 100.75 -102.25 100.75 -104.3 100.75 -106.35 104.0 -107.75 107.2 -109.2 111.8 -109.2 M7.45 -101.1 Q9.35 -100.0 13.35 -100.0 18.95 -100.0 21.35 -102.2 22.6 -103.35 22.7 -104.55 22.7 -105.5 21.0 -106.85 19.15 -108.35 17.25 -108.35 L10.9 -108.0 Q7.05 -107.4 4.55 -105.25 L4.7 -105.05 Q6.35 -106.0 10.45 -106.95 L15.15 -107.8 Q17.9 -107.8 20.05 -106.7 22.1 -105.7 22.1 -104.6 22.1 -103.25 19.8 -102.05 17.2 -100.7 13.4 -100.7 L9.75 -101.3 Q7.5 -102.0 6.7 -103.25 9.1 -105.65 14.2 -105.65 15.05 -105.65 16.9 -104.45 16.65 -103.2 14.1 -102.65 L11.95 -102.65 11.45 -103.15 12.45 -103.8 13.45 -104.5 13.4 -104.75 13.0 -104.8 11.4 -104.65 11.15 -104.05 Q10.85 -103.6 10.85 -103.05 L10.9 -102.4 11.1 -102.35 Q11.8 -101.95 13.05 -101.95 15.8 -101.95 16.95 -103.15 17.6 -103.85 17.6 -104.65 17.6 -106.3 12.85 -106.3 10.05 -106.3 7.95 -105.2 6.05 -104.2 6.05 -103.25 6.05 -101.95 7.45 -101.1 M2.75 -104.3 Q2.75 -106.35 6.0 -107.75 9.2 -109.2 13.8 -109.2 18.4 -109.2 21.65 -107.75 24.85 -106.35 24.85 -104.3 24.85 -102.25 21.65 -100.8 18.4 -99.4 13.8 -99.4 9.2 -99.4 6.0 -100.8 2.75 -102.25 2.75 -104.3 M64.8 -90.8 L63.5 -91.15 62.9 -91.1 63.05 -90.85 63.15 -90.55 65.05 -89.5 Q64.85 -89.0 63.55 -89.0 61.55 -89.0 59.6 -90.8 L60.1 -91.4 60.4 -91.9 62.3 -92.0 Q67.4 -92.0 69.8 -89.6 69.0 -88.35 66.9 -87.65 L63.1 -87.05 Q59.3 -87.05 56.7 -88.4 54.4 -89.6 54.4 -90.95 54.4 -92.05 56.45 -93.05 58.65 -94.15 61.35 -94.15 L66.05 -93.35 Q70.15 -92.45 71.8 -91.4 69.95 -93.6 65.55 -94.35 L59.25 -94.7 Q57.4 -94.7 55.5 -93.2 53.8 -91.85 53.8 -90.9 53.8 -89.35 56.25 -87.95 59.0 -86.35 63.15 -86.35 70.45 -86.35 70.45 -89.6 70.45 -90.55 68.55 -91.55 66.45 -92.65 63.65 -92.65 58.9 -92.65 58.9 -90.8 58.9 -90.2 59.65 -89.5 60.9 -88.3 63.5 -88.3 64.25 -88.3 64.8 -88.65 L65.65 -89.4 64.8 -90.8 M70.6 -94.1 Q73.8 -92.7 73.8 -90.65 73.8 -88.6 70.6 -87.15 67.35 -85.75 62.75 -85.75 58.15 -85.75 54.95 -87.15 51.7 -88.6 51.7 -90.65 51.7 -92.7 54.95 -94.1 58.15 -95.55 62.75 -95.55 67.35 -95.55 70.6 -94.1 M45.0 -66.85 Q45.0 -65.65 43.0 -64.8 40.95 -63.95 38.05 -63.95 35.15 -63.95 33.15 -64.8 31.1 -65.65 31.1 -66.85 31.1 -68.05 33.15 -68.9 35.15 -69.75 38.05 -69.75 40.95 -69.75 43.0 -68.9 45.0 -68.05 45.0 -66.85 M43.65 -67.0 Q43.65 -67.5 43.05 -68.15 42.1 -69.2 40.2 -69.2 L36.55 -69.05 34.4 -68.45 38.9 -68.9 40.7 -68.6 Q42.45 -68.1 43.25 -67.0 41.45 -64.75 37.9 -64.75 L35.45 -65.15 Q34.2 -65.55 33.6 -66.2 L34.9 -67.05 Q36.25 -67.65 38.3 -67.65 39.75 -67.55 40.0 -66.9 L39.05 -66.1 37.5 -65.85 36.8 -65.9 36.65 -66.0 36.55 -66.15 37.85 -66.8 37.8 -67.1 37.55 -67.15 36.35 -66.45 36.2 -66.1 Q36.45 -65.45 37.6 -65.45 39.25 -65.45 40.45 -66.9 L39.5 -67.65 37.45 -68.0 35.7 -67.7 Q34.05 -67.2 33.2 -66.2 L34.25 -65.0 Q35.25 -64.3 37.15 -64.3 40.3 -64.3 42.15 -65.25 43.65 -66.05 43.65 -67.0 M85.2 -76.25 L88.15 -76.9 Q89.85 -76.9 91.2 -76.2 92.5 -75.55 92.5 -74.8 92.5 -73.35 90.2 -72.65 L86.55 -72.2 Q85.15 -72.2 84.15 -72.8 L82.85 -73.9 Q83.15 -74.5 84.15 -74.9 85.45 -75.5 87.55 -75.5 L88.75 -75.2 89.25 -74.7 88.3 -73.75 Q87.35 -73.1 86.1 -73.5 L85.8 -73.8 Q86.0 -74.05 87.1 -74.7 L87.1 -74.85 86.9 -74.9 85.8 -74.8 85.45 -73.75 Q85.7 -73.05 86.85 -73.05 88.35 -73.05 89.7 -74.7 L88.7 -75.55 86.7 -75.9 Q85.0 -75.9 83.7 -75.2 82.45 -74.6 82.45 -73.9 82.45 -73.05 83.3 -72.45 84.4 -71.75 86.4 -71.75 89.6 -71.75 91.4 -72.8 92.9 -73.7 92.9 -74.75 92.9 -75.3 92.3 -76.1 91.35 -77.3 89.45 -77.3 L85.8 -77.0 Q83.75 -76.6 81.5 -75.2 L85.2 -76.25 M82.4 -76.9 Q84.4 -77.85 87.3 -77.85 90.2 -77.85 92.25 -76.9 94.25 -75.95 94.25 -74.6 94.25 -73.25 92.25 -72.3 90.2 -71.35 87.3 -71.35 84.4 -71.35 82.4 -72.3 80.35 -73.25 80.35 -74.6 80.35 -75.95 82.4 -76.9" fill="#f9d79f" fill-rule="evenodd" stroke="none"/>
    <path d="M124.0 -102.65 L124.05 -104.0 124.05 -104.05 124.05 -104.15 124.05 -104.25 123.9 -105.1 123.8 -105.3 Q123.15 -106.9 120.6 -108.2 L120.6 -108.15 119.75 -108.55 117.5 -109.25 116.3 -109.5 114.55 -109.75 111.75 -109.9 Q108.15 -109.9 105.3 -109.05 L103.85 -108.55 103.5 -108.4 102.95 -108.15 102.95 -108.2 Q100.35 -106.9 99.7 -105.3 L99.65 -105.1 99.5 -104.25 99.5 -104.15 99.5 -104.05 99.5 -104.0 99.55 -102.6 99.6 -102.4 99.6 -101.6 100.25 -79.9 100.3 -76.75 100.45 -57.1 103.5 -43.3 103.75 -36.45 103.5 -28.95 Q102.3 -20.0 101.5 -17.45 L99.6 -13.3 Q99.75 -11.35 100.7 -9.95 101.85 -8.2 103.5 -8.2 L105.3 -7.55 108.5 -6.9 109.5 -6.8 Q112.8 -6.65 114.5 -6.85 L115.55 -7.0 116.3 -7.1 119.3 -7.95 121.0 -8.7 Q122.35 -9.9 123.6 -10.65 124.2 -11.45 123.9 -15.9 L123.85 -17.4 123.45 -30.3 123.4 -31.9 123.2 -41.85 123.2 -43.05 123.15 -48.15 123.1 -50.55 123.1 -54.35 123.1 -57.5 Q123.25 -76.7 123.7 -95.85 L123.8 -98.65 123.95 -101.55 124.0 -102.65 M98.25 -104.25 L98.3 -105.1 Q98.55 -106.4 99.7 -107.5 100.7 -108.45 102.4 -109.3 L103.5 -109.8 103.85 -109.95 105.3 -110.4 111.75 -111.15 114.55 -111.05 116.3 -110.8 117.5 -110.55 119.75 -109.9 121.15 -109.3 Q122.8 -108.45 123.8 -107.5 124.95 -106.4 125.2 -105.1 L125.3 -104.25 125.3 -104.15 125.3 -104.05 125.3 -103.95 Q123.4 -58.65 125.3 -12.35 125.3 -9.9 122.25 -8.0 L121.15 -7.4 Q120.45 -7.05 119.75 -6.8 118.15 -6.2 116.3 -5.85 L111.75 -5.45 Q108.2 -5.5 105.3 -6.3 L103.5 -6.9 102.4 -7.4 Q101.3 -7.95 100.5 -8.5 98.2 -10.2 98.25 -12.35 99.65 -45.8 99.0 -79.15 L98.25 -103.95 98.25 -104.05 98.25 -104.15 98.25 -104.25 M5.85 -109.95 L7.3 -110.4 13.75 -111.15 16.55 -111.05 18.3 -110.8 19.5 -110.55 21.75 -109.9 23.15 -109.3 25.8 -107.5 Q26.95 -106.4 27.2 -105.1 L27.3 -104.25 27.3 -104.15 27.3 -104.05 27.3 -103.95 Q25.4 -58.65 27.3 -12.35 27.3 -9.9 24.25 -8.0 L23.15 -7.4 21.75 -6.8 18.3 -5.85 13.75 -5.45 Q10.2 -5.5 7.3 -6.3 6.35 -6.55 5.5 -6.9 L4.4 -7.4 2.5 -8.5 Q0.2 -10.2 0.25 -12.35 1.65 -45.8 1.0 -79.15 L0.25 -103.95 0.25 -104.05 0.25 -104.15 0.25 -104.25 0.3 -105.1 Q0.55 -106.4 1.7 -107.5 2.7 -108.45 4.4 -109.3 L5.5 -109.8 5.85 -109.95 M26.0 -102.65 L26.05 -104.0 26.05 -104.05 26.05 -104.15 26.05 -104.25 25.9 -105.1 25.8 -105.3 Q25.15 -106.9 22.6 -108.2 L22.6 -108.15 21.75 -108.55 19.5 -109.25 18.3 -109.5 16.55 -109.75 13.75 -109.9 7.3 -109.05 5.85 -108.55 5.5 -108.4 4.95 -108.15 4.95 -108.2 Q2.35 -106.9 1.7 -105.3 L1.65 -105.1 1.5 -104.25 1.5 -104.15 1.5 -104.05 1.5 -104.0 1.55 -102.6 1.6 -102.4 1.6 -101.6 2.25 -79.9 2.3 -76.75 2.45 -57.1 5.5 -43.3 5.75 -36.45 5.5 -28.95 Q4.3 -20.0 3.5 -17.45 L1.6 -13.3 Q1.75 -11.35 2.7 -9.95 3.85 -8.2 5.5 -8.2 L7.3 -7.55 10.5 -6.9 11.5 -6.8 Q14.8 -6.65 16.5 -6.85 L17.55 -7.0 18.3 -7.1 21.3 -7.95 23.0 -8.7 25.6 -10.65 Q26.2 -11.45 25.9 -15.9 L25.85 -17.4 25.45 -30.3 25.4 -31.9 25.2 -41.85 25.2 -43.05 25.15 -48.15 25.1 -50.55 25.1 -54.35 25.1 -57.5 Q25.25 -76.7 25.7 -95.85 L25.8 -98.65 25.95 -101.55 26.0 -102.65 M74.8 -93.85 Q75.95 -92.75 76.2 -91.45 L76.25 -90.6 76.25 -90.5 76.25 -90.4 76.25 -90.3 75.8 -77.35 75.6 -70.75 75.5 -67.2 Q75.0 -46.95 75.75 -26.6 L75.85 -22.8 76.1 -17.1 76.25 -12.35 Q76.3 -10.2 74.0 -8.5 L72.1 -7.4 71.0 -6.9 69.2 -6.3 Q66.3 -5.5 62.75 -5.45 L58.2 -5.85 Q56.35 -6.2 54.75 -6.8 L53.35 -7.4 52.25 -8.0 Q49.2 -9.9 49.2 -12.35 L49.4 -17.1 49.6 -22.8 49.75 -26.6 Q50.5 -48.85 49.85 -70.75 L49.65 -77.35 49.2 -90.3 49.2 -90.4 49.2 -90.5 49.2 -90.6 49.3 -91.45 Q49.55 -92.75 50.7 -93.85 L53.35 -95.65 54.75 -96.25 57.0 -96.9 58.2 -97.15 59.95 -97.4 62.75 -97.5 69.2 -96.75 70.65 -96.3 71.0 -96.15 72.1 -95.65 Q73.8 -94.8 74.8 -93.85 M74.9 -88.75 L74.95 -88.95 75.0 -90.35 75.0 -90.4 75.0 -90.5 75.0 -90.6 74.85 -91.45 74.8 -91.65 Q74.15 -93.25 71.55 -94.55 L71.55 -94.5 71.0 -94.75 70.65 -94.9 69.2 -95.4 Q66.35 -96.25 62.75 -96.25 L59.95 -96.1 58.2 -95.85 57.0 -95.6 54.75 -94.9 53.9 -94.5 53.9 -94.55 Q51.35 -93.25 50.7 -91.65 L50.6 -91.45 50.45 -90.6 50.45 -90.5 50.45 -90.4 50.45 -90.35 50.5 -89.0 50.55 -87.9 50.7 -85.0 50.8 -82.2 Q51.4 -62.8 51.4 -50.15 L51.4 -47.65 51.4 -44.7 51.35 -42.8 51.3 -38.75 51.3 -37.8 51.1 -30.0 51.05 -28.7 50.65 -17.4 50.6 -15.9 Q50.4 -11.5 50.95 -10.65 51.4 -10.0 53.5 -8.7 L55.2 -7.95 Q56.65 -7.45 58.2 -7.1 L58.95 -7.0 60.0 -6.85 Q61.75 -6.65 65.0 -6.8 L66.0 -6.9 69.2 -7.55 71.0 -8.2 Q72.65 -8.2 73.8 -9.95 74.75 -11.35 74.9 -13.25 73.15 -16.8 72.25 -20.45 71.65 -22.8 71.0 -27.7 L70.65 -34.1 Q70.65 -35.5 71.0 -38.95 L74.05 -49.8 74.2 -65.35 74.25 -67.8 74.9 -87.95 74.9 -88.75 M78.8 -74.55 L78.85 -75.1 Q79.0 -76.0 79.7 -76.7 L81.4 -77.9 82.1 -78.25 82.3 -78.35 83.2 -78.65 87.25 -79.15 89.0 -79.1 90.1 -78.9 90.85 -78.75 92.3 -78.3 93.15 -77.9 94.8 -76.7 Q95.55 -76.0 95.7 -75.1 L95.75 -74.55 95.75 -74.5 95.75 -74.4 95.75 -74.35 Q94.55 -44.2 95.75 -13.4 95.75 -11.75 93.85 -10.5 L93.15 -10.1 92.3 -9.7 Q91.3 -9.3 90.1 -9.05 L87.25 -8.8 Q85.05 -8.8 83.2 -9.35 L82.1 -9.75 81.4 -10.1 80.2 -10.8 Q78.75 -11.95 78.8 -13.4 79.7 -35.65 79.25 -57.85 L78.8 -74.35 78.8 -74.4 78.8 -74.5 78.8 -74.55 M94.95 -73.5 L95.0 -74.4 95.0 -74.5 95.0 -74.55 94.9 -75.1 94.8 -75.25 Q94.4 -76.3 92.8 -77.2 L92.8 -77.15 92.3 -77.4 90.85 -77.9 90.1 -78.05 89.0 -78.2 87.25 -78.3 83.2 -77.75 82.3 -77.4 82.1 -77.3 81.75 -77.15 81.75 -77.2 Q80.1 -76.3 79.7 -75.25 L79.7 -75.1 79.6 -74.55 79.6 -74.5 79.6 -74.4 79.6 -73.45 79.65 -73.35 79.65 -72.8 80.05 -58.35 80.1 -56.25 80.2 -43.15 80.2 -40.7 79.65 -15.3 79.6 -13.95 Q79.6 -12.55 80.35 -11.55 81.05 -10.6 82.1 -10.6 L83.2 -10.2 85.25 -9.75 85.85 -9.7 Q87.85 -9.55 89.0 -9.7 L89.65 -9.8 90.1 -9.9 92.0 -10.45 93.05 -10.95 94.75 -12.25 Q95.15 -12.8 94.9 -15.75 L94.85 -16.75 94.6 -25.35 94.55 -26.4 94.45 -33.0 94.45 -33.8 94.4 -37.2 94.4 -38.8 94.4 -41.35 94.4 -43.45 94.75 -68.95 94.8 -70.85 94.9 -72.75 94.95 -73.5 M43.9 -69.75 L45.55 -68.7 Q46.3 -68.05 46.45 -67.3 L46.5 -66.8 46.5 -66.65 Q45.3 -40.1 46.5 -12.95 46.5 -11.5 44.6 -10.4 L43.9 -10.05 43.05 -9.7 40.85 -9.15 38.0 -8.9 33.95 -9.4 32.85 -9.75 32.15 -10.05 30.95 -10.7 Q29.5 -11.7 29.55 -12.95 30.45 -32.55 30.0 -52.1 L29.55 -66.65 29.55 -66.8 29.6 -67.3 Q29.75 -68.05 30.45 -68.7 L32.15 -69.75 32.85 -70.05 33.05 -70.15 33.95 -70.4 38.0 -70.85 39.75 -70.8 40.85 -70.65 41.6 -70.5 43.05 -70.1 43.9 -69.75 M45.7 -65.85 L45.75 -66.65 45.75 -66.8 45.65 -67.3 45.55 -67.4 Q45.15 -68.35 43.55 -69.1 L43.05 -69.35 41.6 -69.75 40.85 -69.9 39.75 -70.05 38.0 -70.1 33.95 -69.6 33.05 -69.35 32.85 -69.25 32.5 -69.1 Q30.85 -68.35 30.45 -67.4 L30.45 -67.3 30.35 -66.8 30.35 -66.65 30.35 -65.85 30.4 -65.7 30.4 -65.25 30.8 -52.55 30.85 -50.7 30.95 -39.2 30.95 -37.0 30.4 -14.6 30.35 -13.45 Q30.35 -12.25 31.1 -11.35 31.8 -10.5 32.85 -10.5 L33.5 -10.3 33.95 -10.15 36.0 -9.75 36.6 -9.7 39.75 -9.75 40.4 -9.8 40.85 -9.9 42.75 -10.4 43.8 -10.8 45.15 -11.4 Q45.85 -12.05 45.65 -15.05 L45.6 -15.9 45.35 -23.45 45.3 -24.4 45.2 -30.25 45.2 -30.95 45.15 -33.95 45.15 -35.35 45.15 -37.55 45.15 -39.4 Q45.25 -50.65 45.5 -61.9 L45.55 -63.55 45.65 -65.2 45.7 -65.85 M5.1 -37.95 Q5.1 -39.85 4.1 -45.6 L2.45 -53.4 1.6 -15.2 Q2.7 -17.8 3.9 -25.35 5.1 -33.05 5.1 -37.95 M72.5 -39.75 L71.4 -34.05 Q71.4 -29.5 72.75 -23.1 73.85 -18.0 74.9 -15.2 74.3 -30.65 74.05 -46.95 L72.5 -39.75 M103.1 -37.95 Q103.1 -39.85 102.1 -45.6 L100.45 -53.4 99.6 -15.2 Q100.7 -17.8 101.9 -25.35 103.1 -33.05 103.1 -37.95" fill="#42220d" fill-rule="evenodd" stroke="none"/>
    <path d="M123.95 -101.55 L123.8 -98.65 Q123.45 -98.1 121.65 -93.4 L119.75 -88.5 119.75 -99.05 Q120.05 -99.15 121.75 -100.15 L123.95 -101.55 M123.7 -95.85 Q123.25 -76.7 123.1 -57.5 120.65 -66.15 120.3 -67.95 119.75 -71.25 119.75 -79.15 119.75 -82.45 121.1 -88.0 122.4 -93.3 123.7 -95.85 M123.1 -54.35 L123.1 -50.55 Q122.5 -51.4 121.25 -54.25 120.05 -56.95 119.75 -58.0 L119.75 -64.15 121.15 -59.7 123.1 -54.35 M123.15 -48.15 L123.2 -43.05 120.9 -43.85 120.8 -38.9 Q120.8 -36.45 121.6 -33.85 122.4 -31.2 123.45 -30.3 L123.85 -17.4 121.45 -22.2 Q120.25 -24.2 119.75 -25.55 L119.75 -55.35 123.15 -48.15 M123.2 -41.85 L123.4 -31.9 Q122.65 -33.8 122.05 -36.5 121.45 -38.95 121.45 -39.8 L121.6 -42.3 123.2 -41.85 M123.9 -15.9 Q124.2 -11.45 123.6 -10.65 122.35 -9.9 121.0 -8.7 L119.75 -11.1 119.75 -23.7 121.9 -19.6 123.9 -15.9 M103.5 -8.2 Q101.85 -8.2 100.7 -9.95 99.75 -11.35 99.6 -13.3 L101.5 -17.45 Q102.3 -20.0 103.5 -28.95 L103.5 -8.2 M103.5 -43.3 L100.45 -57.1 100.3 -76.75 102.2 -85.65 103.5 -92.5 103.5 -43.3 M100.25 -79.9 L99.6 -101.6 101.75 -100.05 103.25 -98.55 Q103.25 -93.35 100.25 -79.9 M25.95 -101.55 L25.8 -98.65 Q25.45 -98.1 23.65 -93.4 L21.75 -88.5 21.75 -99.05 23.75 -100.15 25.95 -101.55 M25.7 -95.85 Q25.25 -76.7 25.1 -57.5 22.65 -66.0 22.3 -67.95 21.75 -71.2 21.75 -79.15 21.75 -82.5 23.1 -88.0 24.4 -93.3 25.7 -95.85 M25.1 -54.35 L25.1 -50.55 Q24.5 -51.4 23.25 -54.25 22.05 -56.95 21.75 -58.0 L21.75 -64.15 23.15 -59.7 25.1 -54.35 M25.15 -48.15 L25.2 -43.05 22.9 -43.85 22.8 -38.9 Q22.8 -36.7 23.75 -34.0 24.45 -31.9 25.45 -30.3 L25.85 -17.4 23.45 -22.2 Q22.25 -24.2 21.75 -25.55 L21.75 -55.35 25.15 -48.15 M25.2 -41.85 L25.4 -31.9 Q24.65 -33.8 24.05 -36.5 23.45 -38.95 23.45 -39.8 L23.6 -42.3 25.2 -41.85 M25.9 -15.9 Q26.2 -11.45 25.6 -10.65 L23.0 -8.7 21.75 -11.1 21.75 -23.7 23.9 -19.6 25.9 -15.9 M5.5 -8.2 Q3.85 -8.2 2.7 -9.95 1.75 -11.35 1.6 -13.3 L3.5 -17.45 Q4.3 -20.0 5.5 -28.95 L5.5 -8.2 M5.5 -43.3 L2.45 -57.1 2.3 -76.75 4.2 -85.65 5.5 -92.5 5.5 -43.3 M2.25 -79.9 L1.6 -101.6 Q2.9 -100.65 3.75 -100.05 L5.25 -98.55 Q5.25 -93.35 2.25 -79.9 M74.9 -87.95 L74.25 -67.8 Q73.75 -69.8 72.55 -76.6 71.25 -84.1 71.25 -85.6 L72.8 -86.55 74.9 -87.95 M74.2 -65.35 L74.05 -49.8 71.0 -38.95 71.0 -78.85 Q71.95 -73.55 72.75 -70.5 L74.2 -65.35 M71.0 -27.7 Q71.65 -22.8 72.25 -20.45 73.15 -16.8 74.9 -13.25 74.75 -11.35 73.8 -9.95 72.65 -8.2 71.0 -8.2 L71.0 -27.7 M53.5 -8.7 Q51.4 -10.0 50.95 -10.65 50.4 -11.5 50.6 -15.9 L52.25 -18.1 Q53.9 -20.55 54.75 -23.1 L54.75 -11.1 53.5 -8.7 M50.65 -17.4 L51.05 -28.7 Q53.7 -32.4 53.7 -35.5 L53.6 -39.4 51.3 -38.75 51.35 -42.8 54.75 -48.45 54.75 -24.75 52.65 -21.95 Q51.2 -20.2 50.65 -17.4 M51.1 -30.0 L51.3 -37.8 52.9 -38.2 53.1 -36.2 Q53.1 -33.3 51.1 -30.0 M51.4 -44.7 L51.4 -47.65 Q53.05 -49.45 54.75 -55.35 L54.75 -50.55 53.3 -47.6 Q52.05 -45.3 51.4 -44.7 M51.4 -50.15 Q51.4 -62.8 50.8 -82.2 51.55 -80.8 53.15 -74.65 54.75 -68.65 54.75 -67.6 54.75 -60.65 54.3 -58.4 53.95 -56.7 51.4 -50.15 M50.7 -85.0 L50.55 -87.9 52.65 -86.6 54.75 -85.4 54.75 -75.1 Q54.35 -77.8 52.6 -81.55 L50.7 -85.0 M94.9 -72.75 L94.8 -70.85 92.3 -64.05 92.3 -71.1 Q93.4 -71.6 94.9 -72.75 M94.75 -68.95 L94.4 -43.45 Q93.0 -47.95 92.6 -50.5 92.3 -52.5 92.3 -56.5 92.3 -64.4 94.75 -68.95 M94.4 -41.35 L94.4 -38.8 Q93.65 -39.75 92.3 -43.75 L92.3 -47.85 Q93.5 -42.9 94.4 -41.35 M94.4 -37.2 L94.45 -33.8 Q93.75 -34.05 93.0 -34.35 L92.95 -31.05 Q92.95 -28.35 94.6 -25.35 L94.85 -16.75 93.35 -19.95 92.3 -22.15 92.3 -42.0 94.4 -37.2 M94.45 -33.0 L94.55 -26.4 Q93.35 -29.65 93.35 -31.6 L93.45 -33.3 94.45 -33.0 M94.9 -15.75 Q95.15 -12.8 94.75 -12.25 L93.05 -10.95 92.3 -12.55 92.3 -20.95 94.9 -15.75 M82.1 -10.6 Q81.05 -10.6 80.35 -11.55 79.6 -12.55 79.6 -13.95 81.3 -16.7 82.1 -24.45 L82.1 -10.6 M79.65 -15.3 L80.2 -40.7 81.2 -34.55 81.85 -28.55 Q81.85 -24.8 80.9 -20.05 80.15 -16.55 79.65 -15.3 M80.2 -43.15 L80.1 -56.25 81.3 -62.2 82.1 -66.75 82.1 -34.0 80.2 -43.15 M80.05 -58.35 L79.65 -72.8 81.0 -71.95 Q81.95 -71.4 81.95 -70.8 81.95 -67.15 80.05 -58.35 M45.65 -65.2 L45.55 -63.55 43.05 -57.6 43.05 -63.75 Q44.1 -64.15 45.65 -65.2 M45.5 -61.9 Q45.25 -50.65 45.15 -39.4 43.75 -43.5 43.35 -45.6 43.05 -47.45 43.05 -50.9 43.05 -54.0 43.6 -56.85 44.25 -60.05 45.5 -61.9 M45.15 -37.55 L45.15 -35.35 43.9 -37.85 43.05 -39.7 43.05 -43.3 Q44.15 -39.05 45.15 -37.55 M45.15 -33.95 L45.2 -30.95 44.55 -31.2 43.75 -31.4 43.7 -28.5 Q43.7 -26.1 45.35 -23.45 L45.6 -15.9 44.05 -18.7 43.05 -20.7 43.05 -38.15 45.15 -33.95 M45.2 -30.25 L45.3 -24.4 Q44.35 -26.7 44.1 -29.0 L44.3 -29.7 Q44.6 -30.4 45.2 -30.25 M45.65 -15.05 Q45.85 -12.05 45.15 -11.4 L43.8 -10.8 43.05 -12.2 43.05 -19.6 45.65 -15.05 M32.85 -10.5 Q31.8 -10.5 31.1 -11.35 30.35 -12.25 30.35 -13.45 32.05 -16.0 32.85 -22.7 L32.85 -10.5 M30.4 -14.6 L30.95 -37.0 31.95 -31.6 32.6 -26.35 Q32.6 -22.9 31.65 -18.75 L30.4 -14.6 M30.95 -39.2 L30.85 -50.7 32.05 -55.9 32.85 -59.9 32.85 -31.1 30.95 -39.2 M30.8 -52.55 L30.4 -65.25 31.35 -64.75 32.7 -63.9 32.7 -63.7 Q32.7 -60.85 32.05 -59.0 31.2 -56.45 30.8 -52.55 M5.1 -37.95 Q5.1 -33.05 3.9 -25.35 2.7 -17.8 1.6 -15.2 L2.45 -53.4 4.1 -45.6 Q5.1 -39.85 5.1 -37.95 M72.5 -39.75 L74.05 -46.95 Q74.3 -30.65 74.9 -15.2 73.85 -18.0 72.75 -23.1 71.4 -29.5 71.4 -34.05 L72.5 -39.75 M103.1 -37.95 Q103.1 -33.05 101.9 -25.35 100.7 -17.8 99.6 -15.2 L100.45 -53.4 102.1 -45.6 Q103.1 -39.85 103.1 -37.95" fill="#643313" fill-rule="evenodd" stroke="none"/>
    <path d="M124.0 -102.65 L123.95 -101.55 121.75 -100.15 Q120.05 -99.15 119.75 -99.05 119.35 -100.45 118.1 -85.85 L116.3 -65.45 Q115.2 -56.95 114.65 -46.0 L114.25 -34.0 Q115.9 -21.6 116.3 -19.9 116.45 -18.9 117.8 -15.55 L119.75 -11.1 121.0 -8.7 119.3 -7.95 116.3 -15.6 114.4 -21.05 Q113.25 -25.8 113.25 -34.05 113.25 -44.15 114.3 -54.35 L116.3 -74.5 117.05 -82.55 Q117.2 -85.6 117.9 -92.15 L117.9 -98.4 116.3 -98.05 114.0 -97.8 110.85 -70.75 112.25 -88.65 113.0 -97.7 111.2 -97.7 110.15 -78.9 110.25 -69.05 110.6 -69.05 110.45 -67.8 109.4 -58.35 110.25 -44.05 110.15 -40.65 Q110.1 -35.75 110.7 -24.75 110.8 -21.9 113.0 -14.85 L115.55 -7.0 114.5 -6.85 112.55 -13.1 110.3 -20.9 110.15 -19.8 109.5 -6.8 108.5 -6.9 109.3 -19.55 Q109.65 -23.25 109.65 -44.1 L108.55 -53.55 108.7 -53.55 108.5 -62.2 109.1 -76.6 Q109.85 -91.75 110.4 -97.7 L107.45 -98.0 Q105.55 -83.75 105.55 -76.8 L106.55 -54.75 107.5 -33.35 Q107.5 -28.7 106.65 -20.45 105.9 -12.7 105.3 -10.4 L104.55 -7.85 103.55 -8.2 104.8 -11.95 105.3 -14.6 106.0 -21.4 106.5 -32.0 106.25 -39.45 105.3 -55.2 Q104.4 -73.55 104.4 -76.75 L104.7 -83.05 105.3 -91.35 106.45 -98.2 105.3 -98.5 104.25 -98.85 Q104.15 -95.95 103.5 -92.5 L102.2 -85.65 100.3 -76.75 100.25 -79.9 Q103.25 -93.35 103.25 -98.55 L101.75 -100.05 99.6 -101.6 99.6 -102.4 Q101.85 -100.2 104.6 -99.25 107.6 -98.2 112.45 -98.2 117.15 -98.2 119.55 -99.2 121.5 -100.05 124.0 -102.65 M123.8 -98.65 L123.7 -95.85 Q122.4 -93.3 121.1 -88.0 119.75 -82.45 119.75 -79.15 119.75 -71.25 120.3 -67.95 120.65 -66.15 123.1 -57.5 L123.1 -54.35 121.15 -59.7 119.75 -64.15 118.65 -73.95 119.75 -88.5 121.65 -93.4 Q123.45 -98.1 123.8 -98.65 M123.1 -50.55 L123.15 -48.15 119.75 -55.35 118.15 -59.3 118.25 -58.2 118.1 -48.1 117.9 -38.6 Q117.9 -34.05 118.1 -32.6 L119.75 -25.55 Q120.25 -24.2 121.45 -22.2 L123.85 -17.4 123.9 -15.9 121.9 -19.6 119.75 -23.7 Q118.95 -27.6 117.5 -29.65 116.55 -32.7 117.2 -45.75 117.25 -47.7 116.6 -52.5 L116.65 -57.6 Q116.8 -59.85 117.75 -63.5 L119.75 -58.0 Q120.05 -56.95 121.25 -54.25 122.5 -51.4 123.1 -50.55 M123.2 -43.05 L123.2 -41.85 121.6 -42.3 121.45 -39.8 Q121.45 -38.95 122.05 -36.5 122.65 -33.8 123.4 -31.9 L123.45 -30.3 Q122.4 -31.2 121.6 -33.85 120.8 -36.45 120.8 -38.9 L120.9 -43.85 123.2 -43.05 M26.0 -102.65 L25.95 -101.55 23.75 -100.15 21.75 -99.05 21.05 -98.75 Q21.15 -88.15 18.3 -65.45 17.2 -56.95 16.65 -46.0 16.25 -38.5 16.25 -34.0 17.9 -21.6 18.3 -19.9 18.45 -18.9 19.8 -15.55 L21.75 -11.1 23.0 -8.7 21.3 -7.95 18.3 -15.6 Q15.25 -24.05 15.25 -34.05 15.25 -44.1 16.3 -54.35 L18.3 -74.5 19.05 -82.55 Q19.2 -85.6 19.9 -92.15 L19.9 -98.4 18.3 -98.05 16.0 -97.8 12.45 -67.8 11.4 -58.35 12.25 -44.05 12.15 -40.65 Q12.1 -35.75 12.7 -24.75 12.8 -21.9 15.0 -14.85 L17.55 -7.0 16.5 -6.85 14.55 -13.1 Q12.6 -19.45 12.3 -20.9 L12.15 -19.8 11.5 -6.8 10.5 -6.9 Q10.7 -11.85 11.35 -19.55 11.65 -23.15 11.65 -44.1 L10.55 -53.55 10.5 -62.2 12.4 -97.75 7.3 -98.5 6.25 -98.85 Q6.15 -95.95 5.5 -92.5 L4.2 -85.65 2.3 -76.75 2.25 -79.9 Q5.25 -93.35 5.25 -98.55 L3.75 -100.05 Q2.9 -100.65 1.6 -101.6 L1.6 -102.4 Q3.85 -100.2 6.6 -99.25 9.6 -98.2 14.45 -98.2 19.15 -98.2 21.55 -99.2 23.6 -100.05 26.0 -102.65 M25.8 -98.65 L25.7 -95.85 Q24.4 -93.3 23.1 -88.0 21.75 -82.5 21.75 -79.15 21.75 -71.2 22.3 -67.95 22.65 -66.0 25.1 -57.5 L25.1 -54.35 23.15 -59.7 21.75 -64.15 20.65 -73.95 21.75 -88.5 23.65 -93.4 Q25.45 -98.1 25.8 -98.65 M25.1 -50.55 L25.15 -48.15 21.75 -55.35 20.15 -59.3 20.25 -58.2 20.1 -48.1 19.9 -38.6 Q19.9 -34.15 20.15 -32.6 20.3 -31.4 21.75 -25.55 22.25 -24.2 23.45 -22.2 L25.85 -17.4 25.9 -15.9 23.9 -19.6 21.75 -23.7 Q20.95 -27.6 19.5 -29.65 18.55 -32.7 19.2 -45.75 19.25 -47.7 18.6 -52.5 L18.65 -57.6 Q18.8 -59.85 19.75 -63.5 L21.75 -58.0 Q22.05 -56.95 23.25 -54.25 24.5 -51.4 25.1 -50.55 M25.2 -43.05 L25.2 -41.85 23.6 -42.3 23.45 -39.8 Q23.45 -38.95 24.05 -36.5 24.65 -33.8 25.4 -31.9 L25.45 -30.3 Q24.45 -31.9 23.75 -34.0 22.8 -36.7 22.8 -38.9 L22.9 -43.85 25.2 -43.05 M50.5 -89.0 Q51.85 -86.75 55.95 -85.5 59.15 -84.55 62.05 -84.55 67.0 -84.55 69.9 -85.6 72.55 -86.5 74.9 -88.75 L74.9 -87.95 72.8 -86.55 71.25 -85.6 Q71.25 -84.1 72.55 -76.6 73.75 -69.8 74.25 -67.8 L74.2 -65.35 72.75 -70.5 Q71.95 -73.55 71.0 -78.85 70.35 -83.65 70.25 -85.2 L69.2 -84.85 68.05 -84.55 69.2 -77.7 69.8 -70.2 70.1 -64.65 69.8 -58.2 69.2 -48.35 68.0 -30.5 Q68.0 -28.2 68.55 -21.4 L69.2 -14.6 69.7 -11.95 70.95 -8.2 69.95 -7.85 69.2 -10.4 67.6 -17.4 Q67.0 -21.25 67.0 -30.55 L68.0 -45.35 Q68.95 -60.85 68.95 -64.7 L68.15 -74.25 67.05 -84.35 64.1 -84.05 Q64.7 -80.4 65.4 -67.85 L66.0 -54.9 65.8 -47.0 65.95 -47.0 65.2 -41.8 65.1 -41.3 65.1 -51.05 64.05 -58.5 63.95 -59.25 64.25 -59.25 64.35 -67.8 Q64.35 -71.95 63.25 -84.05 L61.5 -84.05 Q61.45 -76.75 62.4 -70.45 L63.7 -61.0 60.5 -84.1 58.2 -84.4 56.6 -84.75 56.6 -78.5 Q57.25 -76.65 57.5 -72.3 L58.2 -63.55 60.3 -47.6 Q61.25 -39.9 61.25 -32.55 61.25 -29.0 60.25 -23.15 59.2 -17.2 58.2 -15.6 L56.25 -10.4 55.2 -7.95 53.5 -8.7 54.75 -11.1 55.9 -13.5 Q57.2 -16.4 58.2 -19.65 L59.45 -26.75 60.25 -32.9 Q60.25 -35.55 59.45 -44.45 L58.2 -56.4 Q57.5 -60.45 56.35 -71.25 55.15 -83.2 55.5 -85.1 L54.75 -85.4 52.65 -86.6 50.55 -87.9 50.5 -89.0 M66.0 -6.9 L65.0 -6.8 64.35 -19.0 64.2 -20.55 60.0 -6.85 58.95 -7.0 Q60.1 -10.8 62.15 -16.05 63.7 -20.45 64.1 -24.95 L64.85 -35.25 Q64.9 -22.4 65.35 -18.15 65.95 -12.6 66.0 -6.9 M50.6 -15.9 L50.65 -17.4 Q51.2 -20.2 52.65 -21.95 L54.75 -24.75 56.5 -29.6 56.6 -32.85 56.4 -41.05 Q56.2 -48.8 56.3 -50.0 L56.35 -51.6 54.75 -48.45 51.35 -42.8 51.4 -44.7 Q52.05 -45.3 53.3 -47.6 L54.75 -50.55 Q56.75 -54.55 56.75 -54.85 56.65 -53.1 57.25 -49.9 L57.9 -46.35 57.65 -43.85 Q57.35 -41.75 57.4 -40.9 58.0 -30.95 56.95 -28.0 55.4 -25.9 54.75 -23.1 53.9 -20.55 52.25 -18.1 L50.6 -15.9 M51.05 -28.7 L51.1 -30.0 Q53.1 -33.3 53.1 -36.2 L52.9 -38.2 51.3 -37.8 51.3 -38.75 53.6 -39.4 53.7 -35.5 Q53.7 -32.4 51.05 -28.7 M51.4 -47.65 L51.4 -50.15 Q53.95 -56.7 54.3 -58.4 54.75 -60.65 54.75 -67.6 54.75 -68.65 53.15 -74.65 51.55 -80.8 50.8 -82.2 L50.7 -85.0 52.6 -81.55 Q54.35 -77.8 54.75 -75.1 L55.4 -69.2 55.85 -64.15 55.4 -59.5 54.75 -55.35 Q53.05 -49.45 51.4 -47.65 M94.95 -73.5 L94.9 -72.75 Q93.4 -71.6 92.3 -71.1 91.45 -69.5 91.05 -62.65 90.55 -52.45 90.1 -48.75 L89.1 -35.75 88.85 -27.8 90.1 -18.4 Q91.75 -13.75 92.3 -12.55 L93.05 -10.95 92.0 -10.45 90.1 -15.55 Q89.5 -16.85 88.85 -21.5 88.2 -25.85 88.2 -27.8 88.2 -32.1 89.1 -42.9 L90.1 -54.75 91.1 -66.5 91.1 -70.65 90.1 -70.45 88.7 -70.25 Q87.65 -57.85 86.6 -50.0 L85.8 -44.0 Q86.15 -37.55 86.8 -30.1 88.1 -15.3 89.65 -9.8 L89.0 -9.7 86.35 -19.05 86.15 -17.5 Q86.1 -12.0 85.85 -9.7 L85.25 -9.75 Q86.3 -29.0 85.5 -42.45 84.85 -53.25 86.4 -70.2 L83.95 -70.55 84.55 -70.4 83.75 -62.85 Q83.4 -58.25 83.4 -56.3 L84.0 -39.1 84.6 -26.6 84.05 -18.8 83.2 -12.1 82.75 -10.4 82.1 -10.6 82.8 -12.55 83.2 -14.9 83.75 -21.35 83.95 -26.45 Q83.95 -30.5 83.2 -41.9 L82.65 -56.25 83.2 -65.95 83.95 -70.55 83.2 -70.75 Q82.55 -71.25 82.3 -69.2 L82.1 -66.75 81.3 -62.2 80.1 -56.25 80.05 -58.35 Q81.95 -67.15 81.95 -70.8 81.95 -71.4 81.0 -71.95 L79.65 -72.8 79.65 -73.35 Q81.05 -71.75 82.8 -71.15 L87.7 -70.55 Q90.3 -70.55 91.95 -71.4 93.0 -71.95 94.95 -73.5 M94.8 -70.85 L94.75 -68.95 Q92.3 -64.4 92.3 -56.5 92.3 -52.5 92.6 -50.5 93.0 -47.95 94.4 -43.45 L94.4 -41.35 Q93.5 -42.9 92.3 -47.85 91.6 -52.45 91.6 -54.4 L91.9 -59.4 92.3 -64.05 94.8 -70.85 M94.4 -38.8 L94.4 -37.2 92.3 -42.0 91.3 -44.65 91.4 -43.3 91.1 -30.85 Q91.1 -29.05 91.5 -26.35 91.85 -23.65 92.3 -22.15 L93.35 -19.95 94.85 -16.75 94.9 -15.75 92.3 -20.95 Q91.8 -23.45 90.9 -24.85 90.35 -26.9 90.7 -35.6 L90.55 -38.3 90.3 -40.1 Q90.3 -41.1 91.05 -47.45 L92.3 -43.75 Q93.65 -39.75 94.4 -38.8 M94.45 -33.8 L94.45 -33.0 93.45 -33.3 93.35 -31.6 Q93.35 -29.65 94.55 -26.4 L94.6 -25.35 Q92.95 -28.35 92.95 -31.05 L93.0 -34.35 Q93.75 -34.05 94.45 -33.8 M79.6 -13.95 L79.65 -15.3 Q80.15 -16.55 80.9 -20.05 81.85 -24.8 81.85 -28.55 L81.2 -34.55 80.2 -40.7 80.2 -43.15 82.1 -34.0 Q82.4 -29.8 82.1 -24.45 81.3 -16.7 79.6 -13.95 M45.7 -65.85 L45.65 -65.2 Q44.1 -64.15 43.05 -63.75 L42.6 -63.6 Q42.65 -57.75 40.85 -44.05 39.6 -29.9 39.6 -25.65 L40.85 -17.4 41.8 -14.85 43.05 -12.2 43.8 -10.8 42.75 -10.4 40.85 -14.85 Q40.3 -16.1 39.6 -20.1 38.95 -23.95 38.95 -25.65 38.95 -29.35 39.85 -38.9 L40.85 -49.35 41.85 -59.7 41.85 -63.4 40.85 -63.15 39.45 -63.05 Q38.45 -52.45 37.35 -45.75 L36.55 -39.9 Q36.9 -34.25 37.6 -27.7 38.9 -14.7 40.4 -9.8 L39.75 -9.75 37.1 -17.95 36.9 -16.55 Q36.85 -11.75 36.6 -9.7 L36.0 -9.75 Q37.05 -26.65 36.25 -38.6 35.6 -48.05 37.15 -62.1 L37.15 -62.95 35.3 -63.15 34.5 -56.45 Q34.15 -52.4 34.15 -50.7 34.15 -46.2 34.75 -36.7 L35.35 -24.55 Q34.65 -14.1 33.95 -11.8 L33.5 -10.3 32.85 -10.5 33.55 -12.25 33.95 -14.25 34.5 -19.95 34.7 -24.9 Q34.7 -28.6 33.95 -38.05 L33.4 -50.7 33.95 -59.25 34.7 -63.25 34.05 -63.4 38.45 -63.25 Q41.0 -63.25 42.7 -64.1 43.7 -64.6 45.7 -65.85 M45.55 -63.55 L45.5 -61.9 Q44.25 -60.05 43.6 -56.85 43.05 -54.0 43.05 -50.9 43.05 -47.45 43.35 -45.6 43.75 -43.5 45.15 -39.4 L45.15 -37.55 Q44.15 -39.05 43.05 -43.3 42.35 -47.35 42.35 -49.05 L42.65 -53.55 43.05 -57.6 45.55 -63.55 M45.15 -35.35 L45.15 -33.95 43.05 -38.15 42.05 -40.45 42.0 -34.15 41.85 -28.35 Q41.85 -24.9 42.0 -23.8 42.2 -22.65 43.05 -20.7 L44.05 -18.7 45.6 -15.9 45.65 -15.05 43.05 -19.6 Q41.75 -22.75 41.25 -29.85 L41.05 -36.5 41.35 -39.0 41.8 -42.95 43.05 -39.7 43.9 -37.85 45.15 -35.35 M45.2 -30.95 L45.2 -30.25 Q44.6 -30.4 44.3 -29.7 L44.1 -29.0 Q44.35 -26.7 45.3 -24.4 L45.35 -23.45 Q43.7 -26.1 43.7 -28.5 L43.75 -31.4 44.55 -31.2 45.2 -30.95 M30.35 -13.45 L30.4 -14.6 31.65 -18.75 Q32.6 -22.9 32.6 -26.35 L31.95 -31.6 30.95 -37.0 30.95 -39.2 32.85 -31.1 Q33.15 -27.35 32.85 -22.7 32.05 -16.0 30.35 -13.45 M30.85 -50.7 L30.8 -52.55 Q31.2 -56.45 32.05 -59.0 32.7 -60.85 32.7 -63.7 L32.75 -63.7 33.3 -63.55 32.85 -59.9 32.05 -55.9 30.85 -50.7 M30.4 -65.25 L30.4 -65.7 31.35 -64.75 30.4 -65.25 M13.45 -97.7 L12.6 -86.55 12.15 -78.9 12.3 -69.05 Q15.55 -91.8 15.0 -97.7 L13.45 -97.7 M7.3 -91.35 L8.45 -98.2 9.45 -98.0 Q7.55 -83.75 7.55 -76.8 L8.55 -54.75 9.5 -33.35 Q9.5 -28.7 8.65 -20.45 7.9 -12.7 7.3 -10.4 L6.55 -7.85 5.55 -8.2 6.8 -11.95 7.3 -14.6 8.0 -21.4 8.5 -32.0 7.3 -55.2 Q6.4 -73.55 6.4 -76.75 L6.7 -83.05 7.3 -91.35 M37.85 -62.95 L37.25 -56.6 37.0 -51.95 37.1 -46.2 38.2 -52.9 Q39.05 -59.45 38.8 -62.95 L37.85 -62.95 M87.1 -70.2 L86.5 -62.9 86.25 -57.7 86.35 -51.1 88.05 -67.1 88.05 -70.2 87.1 -70.2" fill="#542c10" fill-rule="evenodd" stroke="none"/>
    <path d="M119.3 -7.95 L116.3 -7.1 116.3 -15.6 119.3 -7.95 M105.3 -7.55 L103.5 -8.2 103.5 -28.95 103.75 -36.45 103.5 -43.3 103.5 -92.5 Q104.15 -95.95 104.25 -98.85 L105.3 -98.5 105.3 -91.35 104.7 -83.05 104.4 -76.75 Q104.4 -73.55 105.3 -55.2 L105.3 -14.6 104.8 -11.95 103.55 -8.2 104.55 -7.85 105.3 -10.4 105.3 -7.55 M119.75 -99.05 L119.75 -88.5 118.65 -73.95 119.75 -64.15 119.75 -58.0 117.75 -63.5 Q116.8 -59.85 116.65 -57.6 L116.6 -52.5 Q117.25 -47.7 117.2 -45.75 116.55 -32.7 117.5 -29.65 118.95 -27.6 119.75 -23.7 L119.75 -11.1 117.8 -15.55 Q116.45 -18.9 116.3 -19.9 L116.3 -65.45 118.1 -85.85 Q119.35 -100.45 119.75 -99.05 M21.3 -7.95 L18.3 -7.1 18.3 -15.6 21.3 -7.95 M7.3 -7.55 L5.5 -8.2 5.5 -28.95 5.75 -36.45 5.5 -43.3 5.5 -92.5 Q6.15 -95.95 6.25 -98.85 L7.3 -98.5 7.3 -91.35 6.7 -83.05 6.4 -76.75 Q6.4 -73.55 7.3 -55.2 L7.3 -14.6 6.8 -11.95 5.55 -8.2 6.55 -7.85 7.3 -10.4 7.3 -7.55 M21.75 -99.05 L21.75 -88.5 20.65 -73.95 21.75 -64.15 21.75 -58.0 19.75 -63.5 Q18.8 -59.85 18.65 -57.6 L18.6 -52.5 Q19.25 -47.7 19.2 -45.75 18.55 -32.7 19.5 -29.65 20.95 -27.6 21.75 -23.7 L21.75 -11.1 19.8 -15.55 Q18.45 -18.9 18.3 -19.9 L18.3 -65.45 Q21.15 -88.15 21.05 -98.75 L21.75 -99.05 M71.0 -38.95 Q70.65 -35.5 70.65 -34.1 L71.0 -27.7 71.0 -8.2 69.2 -7.55 69.2 -10.4 69.95 -7.85 70.95 -8.2 69.7 -11.95 69.2 -14.6 69.2 -48.35 69.8 -58.2 70.1 -64.65 69.8 -70.2 69.2 -77.7 69.2 -84.85 70.25 -85.2 Q70.35 -83.65 71.0 -78.85 L71.0 -38.95 M58.2 -7.1 Q56.65 -7.45 55.2 -7.95 L56.25 -10.4 58.2 -15.6 58.2 -7.1 M92.0 -10.45 L90.1 -9.9 90.1 -15.55 92.0 -10.45 M83.2 -10.2 L82.1 -10.6 82.75 -10.4 83.2 -12.1 83.2 -10.2 M58.2 -63.55 L57.5 -72.3 Q57.25 -76.65 56.6 -78.5 L56.6 -84.75 58.2 -84.4 58.2 -63.55 M54.75 -75.1 L54.75 -85.4 55.5 -85.1 Q55.15 -83.2 56.35 -71.25 57.5 -60.45 58.2 -56.4 L58.2 -19.65 Q57.2 -16.4 55.9 -13.5 L54.75 -11.1 54.75 -23.1 Q55.4 -25.9 56.95 -28.0 58.0 -30.95 57.4 -40.9 57.35 -41.75 57.65 -43.85 L57.9 -46.35 57.25 -49.9 Q56.65 -53.1 56.75 -54.85 56.75 -54.55 54.75 -50.55 L54.75 -55.35 55.4 -59.5 55.85 -64.15 55.4 -69.2 54.75 -75.1 M42.75 -10.4 L40.85 -9.9 40.85 -14.85 42.75 -10.4 M33.95 -10.15 L33.5 -10.3 33.95 -11.8 33.95 -10.15 M33.3 -63.55 L33.3 -63.65 33.95 -63.45 33.95 -59.25 33.4 -50.7 33.95 -38.05 33.95 -14.25 33.55 -12.25 32.85 -10.5 32.85 -22.7 Q33.15 -27.35 32.85 -31.1 L32.85 -59.9 33.3 -63.55 M40.85 -63.15 L41.85 -63.4 41.85 -59.7 40.85 -49.35 40.85 -63.15 M40.85 -44.05 Q42.65 -57.75 42.6 -63.6 L43.05 -63.75 43.05 -57.6 42.65 -53.55 42.35 -49.05 Q42.35 -47.35 43.05 -43.3 L43.05 -39.7 41.8 -42.95 41.35 -39.0 41.05 -36.5 41.25 -29.85 Q41.75 -22.75 43.05 -19.6 L43.05 -12.2 41.8 -14.85 40.85 -17.4 40.85 -44.05 M54.75 -48.45 L56.35 -51.6 56.3 -50.0 Q56.2 -48.8 56.4 -41.05 L56.6 -32.85 56.5 -29.6 54.75 -24.75 54.75 -48.45 M18.3 -98.05 L19.9 -98.4 19.9 -92.15 Q19.2 -85.6 19.05 -82.55 L18.3 -74.5 18.3 -98.05 M21.75 -25.55 Q20.3 -31.4 20.15 -32.6 19.9 -34.15 19.9 -38.6 L20.1 -48.1 20.25 -58.2 20.15 -59.3 21.75 -55.35 21.75 -25.55 M43.05 -20.7 Q42.2 -22.65 42.0 -23.8 41.85 -24.9 41.85 -28.35 L42.0 -34.15 42.05 -40.45 43.05 -38.15 43.05 -20.7 M116.3 -98.05 L117.9 -98.4 117.9 -92.15 Q117.2 -85.6 117.05 -82.55 L116.3 -74.5 116.3 -98.05 M92.3 -71.1 L92.3 -64.05 91.9 -59.4 91.6 -54.4 Q91.6 -52.45 92.3 -47.85 L92.3 -43.75 91.05 -47.45 Q90.3 -41.1 90.3 -40.1 L90.55 -38.3 90.7 -35.6 Q90.35 -26.9 90.9 -24.85 91.8 -23.45 92.3 -20.95 L92.3 -12.55 Q91.75 -13.75 90.1 -18.4 L90.1 -48.75 Q90.55 -52.45 91.05 -62.65 91.45 -69.5 92.3 -71.1 M90.1 -70.45 L91.1 -70.65 91.1 -66.5 90.1 -54.75 90.1 -70.45 M83.2 -65.95 L82.65 -56.25 83.2 -41.9 83.2 -14.9 82.8 -12.55 82.1 -10.6 82.1 -24.45 Q82.4 -29.8 82.1 -34.0 L82.1 -66.75 82.3 -69.2 Q82.55 -71.25 83.2 -70.75 L83.2 -65.95 M119.75 -25.55 L118.1 -32.6 Q117.9 -34.05 117.9 -38.6 L118.1 -48.1 118.25 -58.2 118.15 -59.3 119.75 -55.35 119.75 -25.55 M92.3 -22.15 Q91.85 -23.65 91.5 -26.35 91.1 -29.05 91.1 -30.85 L91.4 -43.3 91.3 -44.65 92.3 -42.0 92.3 -22.15" fill="#763d16" fill-rule="evenodd" stroke="none"/>
    <path d="M105.45 -101.1 Q104.05 -101.95 104.05 -103.25 104.05 -104.2 105.95 -105.2 108.1 -106.3 110.85 -106.3 115.6 -106.3 115.6 -104.65 115.6 -103.85 114.95 -103.15 113.8 -101.95 111.05 -101.95 109.8 -101.95 109.1 -102.35 L108.9 -102.4 108.85 -103.05 Q108.85 -103.6 109.15 -104.05 L109.4 -104.65 111.0 -104.8 111.4 -104.75 111.45 -104.5 110.45 -103.8 109.45 -103.15 109.95 -102.65 112.1 -102.65 Q114.65 -103.2 114.9 -104.45 113.05 -105.65 112.2 -105.65 107.1 -105.65 104.7 -103.25 105.5 -102.0 107.7 -101.3 L111.4 -100.7 Q115.2 -100.7 117.8 -102.05 120.1 -103.25 120.1 -104.6 120.1 -105.7 118.05 -106.7 115.85 -107.8 113.15 -107.8 L108.45 -106.95 Q104.35 -106.0 102.7 -105.05 L102.55 -105.25 Q105.1 -107.4 108.9 -108.0 L115.25 -108.35 Q117.15 -108.35 119.0 -106.85 120.7 -105.5 120.7 -104.55 120.6 -103.35 119.35 -102.2 116.95 -100.0 111.35 -100.0 107.3 -100.0 105.45 -101.1 M7.45 -101.1 Q6.05 -101.95 6.05 -103.25 6.05 -104.2 7.95 -105.2 10.05 -106.3 12.85 -106.3 17.6 -106.3 17.6 -104.65 17.6 -103.85 16.95 -103.15 15.8 -101.95 13.05 -101.95 11.8 -101.95 11.1 -102.35 L10.9 -102.4 10.85 -103.05 Q10.85 -103.6 11.15 -104.05 L11.4 -104.65 13.0 -104.8 13.4 -104.75 13.45 -104.5 12.45 -103.8 11.45 -103.15 11.95 -102.65 14.1 -102.65 Q16.65 -103.2 16.9 -104.45 15.05 -105.65 14.2 -105.65 9.1 -105.65 6.7 -103.25 7.5 -102.0 9.75 -101.3 L13.4 -100.7 Q17.2 -100.7 19.8 -102.05 22.1 -103.25 22.1 -104.6 22.1 -105.7 20.05 -106.7 17.9 -107.8 15.15 -107.8 L10.45 -106.95 Q6.35 -106.0 4.7 -105.05 L4.55 -105.25 Q7.05 -107.4 10.9 -108.0 L17.25 -108.35 Q19.15 -108.35 21.0 -106.85 22.7 -105.5 22.7 -104.55 22.6 -103.35 21.35 -102.2 18.95 -100.0 13.35 -100.0 9.35 -100.0 7.45 -101.1 M64.8 -90.8 L65.65 -89.4 64.8 -88.65 Q64.25 -88.3 63.5 -88.3 60.9 -88.3 59.65 -89.5 58.9 -90.2 58.9 -90.8 58.9 -92.65 63.65 -92.65 66.45 -92.65 68.55 -91.55 70.45 -90.55 70.45 -89.6 70.45 -86.35 63.15 -86.35 59.0 -86.35 56.25 -87.95 53.8 -89.35 53.8 -90.9 53.8 -91.85 55.5 -93.2 57.4 -94.7 59.25 -94.7 L65.55 -94.35 Q69.95 -93.6 71.8 -91.4 70.15 -92.45 66.05 -93.35 L61.35 -94.15 Q58.65 -94.15 56.45 -93.05 54.4 -92.05 54.4 -90.95 54.4 -89.6 56.7 -88.4 59.3 -87.05 63.1 -87.05 L66.9 -87.65 Q69.0 -88.35 69.8 -89.6 67.4 -92.0 62.3 -92.0 L60.4 -91.9 60.1 -91.4 59.6 -90.8 Q61.55 -89.0 63.55 -89.0 64.85 -89.0 65.05 -89.5 L63.15 -90.55 63.05 -90.85 62.9 -91.1 63.5 -91.15 64.8 -90.8 M43.65 -67.0 Q43.65 -66.05 42.15 -65.25 40.3 -64.3 37.15 -64.3 35.25 -64.3 34.25 -65.0 L33.2 -66.2 Q34.05 -67.2 35.7 -67.7 L37.45 -68.0 39.5 -67.65 40.45 -66.9 Q39.25 -65.45 37.6 -65.45 36.45 -65.45 36.2 -66.1 L36.35 -66.45 37.55 -67.15 37.8 -67.1 37.85 -66.8 36.55 -66.15 36.65 -66.0 36.8 -65.9 37.5 -65.85 39.05 -66.1 40.0 -66.9 Q39.75 -67.55 38.3 -67.65 36.25 -67.65 34.9 -67.05 L33.6 -66.2 Q34.2 -65.55 35.45 -65.15 L37.9 -64.75 Q41.45 -64.75 43.25 -67.0 42.45 -68.1 40.7 -68.6 L38.9 -68.9 34.4 -68.45 36.55 -69.05 40.2 -69.2 Q42.1 -69.2 43.05 -68.15 43.65 -67.5 43.65 -67.0 M85.2 -76.25 L81.5 -75.2 Q83.75 -76.6 85.8 -77.0 L89.45 -77.3 Q91.35 -77.3 92.3 -76.1 92.9 -75.3 92.9 -74.75 92.9 -73.7 91.4 -72.8 89.6 -71.75 86.4 -71.75 84.4 -71.75 83.3 -72.45 82.45 -73.05 82.45 -73.9 82.45 -74.6 83.7 -75.2 85.0 -75.9 86.7 -75.9 L88.7 -75.55 89.7 -74.7 Q88.35 -73.05 86.85 -73.05 85.7 -73.05 85.45 -73.75 L85.8 -74.8 86.9 -74.9 87.1 -74.85 87.1 -74.7 Q86.0 -74.05 85.8 -73.8 L86.1 -73.5 Q87.35 -73.1 88.3 -73.75 L89.25 -74.7 88.75 -75.2 87.55 -75.5 Q85.45 -75.5 84.15 -74.9 83.15 -74.5 82.85 -73.9 L84.15 -72.8 Q85.15 -72.2 86.55 -72.2 L90.2 -72.65 Q92.5 -73.35 92.5 -74.8 92.5 -75.55 91.2 -76.2 89.85 -76.9 88.15 -76.9 L85.2 -76.25" fill="#dfb278" fill-rule="evenodd" stroke="none"/>
  </g>
</svg>
