<?xml version="1.0" encoding="UTF-8" standalone="no"?>
<svg xmlns:ffdec="https://www.free-decompiler.com/flash" xmlns:xlink="http://www.w3.org/1999/xlink" ffdec:objectType="shape" height="50.45px" width="64.75px" xmlns="http://www.w3.org/2000/svg">
  <g transform="matrix(1.0, 0.0, 0.0, 1.0, 0.35, 6.4)">
    <path d="M40.6 26.3 Q32.5 28.5 26.4 28.5 18.15 28.5 13.5 26.3 8.25 23.85 8.25 18.8 8.25 18.3 9.1 16.35 10.05 14.2 11.2 12.35 18.6 10.15 28.75 15.95 37.4 20.9 40.6 26.3" fill="#ffffff" fill-rule="evenodd" stroke="none"/>
    <path d="M34.4 -0.75 Q35.75 -2.25 37.7 -3.4 40.35 -4.95 42.8 -4.95 46.6 -4.95 50.05 -3.85 55.55 -2.15 57.9 1.85 L55.2 4.95 Q49.4 1.65 44.6 0.4 40.35 -0.65 34.4 -0.75 M42.05 31.55 L42.4 39.05 Q38.45 41.1 31.5 41.95 L22.9 42.5 Q11.15 42.5 5.65 37.05 1.15 32.6 1.15 25.05 1.15 19.7 4.7 14.45 L8.65 12.7 Q7.05 14.45 5.85 16.85 4.35 19.9 4.35 22.55 4.35 34.5 26.35 34.5 L34.05 33.35 42.05 31.55" fill="#d3d3d3" fill-rule="evenodd" stroke="none"/>
    <path d="M32.75 -0.7 Q34.05 -3.75 37.65 -5.3 40.2 -6.4 42.65 -6.4 46.4 -6.4 51.9 -4.55 59.45 -2.0 59.45 2.0 59.45 3.45 56.5 5.85 L55.2 4.95 57.9 1.85 Q55.55 -2.15 50.05 -3.85 46.6 -4.95 42.8 -4.95 40.35 -4.95 37.7 -3.4 35.75 -2.25 34.4 -0.75 L32.75 -0.7 M42.4 40.65 Q33.6 44.05 23.7 44.05 11.3 44.05 5.15 38.6 -0.35 33.75 -0.35 25.0 L0.45 20.9 1.45 17.05 4.7 14.45 Q1.15 19.7 1.15 25.05 1.15 32.6 5.65 37.05 11.15 42.5 22.9 42.5 L31.5 41.95 Q38.45 41.1 42.4 39.05 L42.4 40.65" fill="#525252" fill-rule="evenodd" stroke="none"/>
    <path d="M40.6 26.3 L42.05 31.55 34.05 33.35 26.35 34.5 Q4.35 34.5 4.35 22.55 4.35 19.9 5.85 16.85 7.05 14.45 8.65 12.7 L11.2 12.35 Q10.05 14.2 9.1 16.35 8.25 18.3 8.25 18.8 8.25 23.85 13.5 26.3 18.15 28.5 26.4 28.5 32.5 28.5 40.6 26.3" fill="#e9e9e9" fill-rule="evenodd" stroke="none"/>
    <path d="M42.05 31.55 Q50.85 27.05 54.85 23.75 59.3 20.1 59.3 16.8 59.3 12.35 52.9 8.5 45.25 3.85 32.8 3.85 28.75 3.85 21.45 6.55 L19.65 7.2 Q17.3 8.1 15.4 8.95 10.8 11.0 8.65 12.7 L4.7 14.45 Q8.7 9.6 13.5 6.55 22.5 0.8 36.85 0.8 47.2 0.8 55.25 6.65 62.85 12.2 62.85 18.3 62.85 22.8 58.8 27.65 53.5 34.0 42.4 39.05 L42.05 31.55" fill="#235981" fill-rule="evenodd" stroke="none"/>
    <path d="M21.45 6.55 Q28.75 3.85 32.8 3.85 45.25 3.85 52.9 8.5 59.3 12.35 59.3 16.8 59.3 20.1 54.85 23.75 50.85 27.05 42.05 31.55 L40.6 26.3 Q48.3 22.85 51.7 20.3 55.6 17.45 55.6 14.7 55.6 11.55 50.35 8.45 44.1 4.75 34.85 4.75 28.3 4.75 22.25 6.3 L21.45 6.55 M8.65 12.7 Q10.8 11.0 15.4 8.95 12.75 10.4 11.2 12.35 L8.65 12.7" fill="#3585bf" fill-rule="evenodd" stroke="none"/>
    <path d="M21.45 6.55 L22.25 6.3 Q28.3 4.75 34.85 4.75 44.1 4.75 50.35 8.45 55.6 11.55 55.6 14.7 55.6 17.45 51.7 20.3 48.3 22.85 40.6 26.3 37.4 20.9 28.75 15.95 18.6 10.15 11.2 12.35 12.75 10.4 15.4 8.95 17.3 8.1 19.65 7.2 L21.45 6.55" fill="#589ed1" fill-rule="evenodd" stroke="none"/>
    <path d="M32.75 -0.7 L34.4 -0.75 Q40.35 -0.65 44.6 0.4 49.4 1.65 55.2 4.95 L56.5 5.85 Q60.4 9.45 61.55 10.95 64.4 14.55 64.4 18.05 64.4 23.15 59.5 28.9 53.55 35.85 42.4 40.65 L42.4 39.05 Q53.5 34.0 58.8 27.65 62.85 22.8 62.85 18.3 62.85 12.2 55.25 6.65 47.2 0.8 36.85 0.8 22.5 0.8 13.5 6.55 8.7 9.6 4.7 14.45 L1.45 17.05 Q4.15 9.95 15.0 4.3 25.05 -0.9 32.75 -0.7" fill="#15364f" fill-rule="evenodd" stroke="none"/>
  </g>
</svg>
