<?xml version="1.0" encoding="UTF-8" standalone="no"?>
<svg xmlns:ffdec="https://www.free-decompiler.com/flash" xmlns:xlink="http://www.w3.org/1999/xlink" ffdec:objectType="shape" height="83.05px" width="86.75px" xmlns="http://www.w3.org/2000/svg">
  <g transform="matrix(1.0, 0.0, 0.0, 1.0, 27.25, 65.0)">
    <path d="M-22.45 -38.1 Q-21.2 -40.9 -16.4 -48.85 -8.2 -57.55 -0.75 -61.25 6.8 -65.0 16.55 -65.0 29.45 -65.0 39.55 -58.2 50.0 -51.15 55.5 -38.15 54.85 -36.3 54.85 -35.65 L55.0 -32.9 Q50.6 -46.85 40.3 -54.7 29.65 -62.9 14.7 -62.9 10.65 -62.9 4.4 -61.0 -2.35 -58.9 -5.7 -56.25 -12.4 -51.6 -17.15 -43.75 -20.65 -38.0 -21.95 -32.85 L-21.65 -38.0 -22.45 -38.1 M57.15 -14.35 Q55.85 -6.7 49.75 1.2 46.85 4.95 42.15 9.35 L36.3 12.9 30.3 15.95 Q28.45 16.65 22.3 17.4 L17.0 18.0 17.3 18.05 16.55 18.05 Q3.9 17.85 -5.55 12.0 -18.6 3.85 -24.05 -14.3 L-21.75 -13.3 -20.6 -9.8 -18.7 -5.3 Q-13.1 5.0 -3.3 10.8 5.85 16.2 15.35 16.05 L19.8 15.95 Q33.95 14.85 44.7 4.25 53.8 -4.75 54.85 -13.35 L57.15 -14.35" fill="#7a431b" fill-rule="evenodd" stroke="none"/>
    <path d="M-5.7 -56.25 Q-2.35 -58.9 4.4 -61.0 10.65 -62.9 14.7 -62.9 29.65 -62.9 40.3 -54.7 50.6 -46.85 55.0 -32.9 52.9 -31.5 48.05 -30.6 L43.45 -29.95 Q38.4 -43.35 28.85 -50.8 19.45 -58.1 7.7 -58.1 L-5.7 -56.25 M19.8 15.95 Q27.35 15.05 36.1 4.55 44.45 -5.55 43.7 -10.95 L54.85 -13.35 Q53.8 -4.75 44.7 4.25 33.95 14.85 19.8 15.95" fill="#db9159" fill-rule="evenodd" stroke="none"/>
    <path d="M-21.95 -32.85 Q-20.65 -38.0 -17.15 -43.75 -12.4 -51.6 -5.7 -56.25 L7.7 -58.1 Q19.45 -58.1 28.85 -50.8 38.4 -43.35 43.45 -29.95 L20.25 -28.1 Q1.8 -28.1 -6.85 -29.6 L-21.95 -32.85 M15.35 16.05 Q23.45 12.65 29.35 5.8 34.45 -0.1 36.45 -6.6 L35.45 -6.45 27.05 -5.1 15.35 -4.55 -0.65 -5.65 -6.0 -6.85 -14.45 -7.75 -18.7 -5.3 -20.6 -9.8 -21.75 -13.3 Q8.15 -9.25 19.05 -9.25 41.15 -9.25 43.7 -10.95 44.45 -5.55 36.1 4.55 27.35 15.05 19.8 15.95 L15.35 16.05" fill="#f0a873" fill-rule="evenodd" stroke="none"/>
    <path d="M-18.7 -5.3 L-14.45 -7.75 -6.0 -6.85 -0.65 -5.65 15.35 -4.55 27.05 -5.1 35.45 -6.45 36.45 -6.6 Q34.45 -0.1 29.35 5.8 23.45 12.65 15.35 16.05 5.85 16.2 -3.3 10.8 -13.1 5.0 -18.7 -5.3" fill="#ffc58a" fill-rule="evenodd" stroke="none"/>
    <path d="M-22.45 -38.1 L-21.65 -38.0 -21.95 -32.85 -6.85 -29.6 Q1.8 -28.1 20.25 -28.1 L43.45 -29.95 48.05 -30.6 Q52.9 -31.5 55.0 -32.9 L54.85 -35.65 Q54.85 -36.3 55.5 -38.15 58.4 -36.45 59.1 -35.2 59.5 -34.45 59.5 -32.35 58.5 -15.55 57.15 -14.35 L54.85 -13.35 43.7 -10.95 Q41.15 -9.25 19.05 -9.25 8.15 -9.25 -21.75 -13.3 L-24.05 -14.3 Q-26.7 -14.25 -27.0 -20.0 -27.3 -25.75 -27.2 -30.9 -27.15 -36.1 -22.45 -38.1 M57.65 -32.95 Q51.9 -29.1 46.4 -28.0 37.55 -26.2 14.8 -26.2 3.1 -26.2 -8.95 -28.05 -18.6 -29.55 -22.25 -31.15 -19.3 -29.5 -14.0 -27.9 -2.6 -24.5 12.45 -24.5 31.95 -24.5 44.35 -26.8 56.8 -29.15 57.65 -32.95 M56.3 -18.45 Q55.45 -20.4 55.45 -21.05 55.45 -25.3 57.45 -30.2 46.5 -23.8 14.45 -23.8 1.55 -23.8 -10.8 -26.45 -20.75 -28.6 -24.4 -30.8 -23.25 -28.15 -22.85 -25.35 L-22.65 -23.05 -23.45 -20.05 -24.25 -17.05 Q-24.25 -15.7 -13.05 -13.35 -0.7 -10.75 10.2 -10.75 27.2 -10.75 41.35 -12.55 55.25 -14.3 57.1 -16.6 L56.3 -18.45" fill="#1d1124" fill-rule="evenodd" stroke="none"/>
    <path d="M16.45 -21.8 L34.45 -22.2 52.4 -23.3 52.35 -20.0 42.75 -20.0 45.85 -19.4 49.0 -18.35 49.65 -17.8 Q45.25 -16.25 42.2 -15.6 L34.85 -14.7 29.35 -13.85 Q9.35 -13.75 5.4 -14.45 -0.35 -15.55 -13.9 -22.85 -13.5 -23.3 -8.7 -22.95 L1.55 -22.15 16.45 -21.8 M57.65 -32.95 Q56.8 -29.15 44.35 -26.8 31.95 -24.5 12.45 -24.5 -2.6 -24.5 -14.0 -27.9 -19.3 -29.5 -22.25 -31.15 -18.6 -29.55 -8.95 -28.05 3.1 -26.2 14.8 -26.2 37.55 -26.2 46.4 -28.0 51.9 -29.1 57.65 -32.95" fill="#472958" fill-rule="evenodd" stroke="none"/>
    <path d="M16.45 -21.8 L1.55 -22.15 -8.7 -22.95 Q-13.5 -23.3 -13.9 -22.85 -0.35 -15.55 5.4 -14.45 9.35 -13.75 29.35 -13.85 L34.85 -14.7 42.2 -15.6 Q45.25 -16.25 49.65 -17.8 L49.0 -18.35 45.85 -19.4 42.75 -20.0 52.35 -20.0 52.4 -23.3 34.45 -22.2 16.45 -21.8 M56.3 -18.45 L57.1 -16.6 Q55.25 -14.3 41.35 -12.55 27.2 -10.75 10.2 -10.75 -0.7 -10.75 -13.05 -13.35 -24.25 -15.7 -24.25 -17.05 L-23.45 -20.05 -22.65 -23.05 -22.85 -25.35 Q-23.25 -28.15 -24.4 -30.8 -20.75 -28.6 -10.8 -26.45 1.55 -23.8 14.45 -23.8 46.5 -23.8 57.45 -30.2 55.45 -25.3 55.45 -21.05 55.45 -20.4 56.3 -18.45" fill="#331e40" fill-rule="evenodd" stroke="none"/>
  </g>
</svg>
