<?xml version="1.0" encoding="UTF-8" standalone="no"?>
<svg xmlns:ffdec="https://www.free-decompiler.com/flash" xmlns:xlink="http://www.w3.org/1999/xlink" ffdec:objectType="shape" height="56.1px" width="76.15px" xmlns="http://www.w3.org/2000/svg">
  <g transform="matrix(1.0, 0.0, 0.0, 1.0, 17.85, -26.15)">
    <path d="M5.05 45.8 Q4.45 45.8 3.05 43.85 1.6 41.9 0.25 41.9 -2.95 41.9 -8.95 44.25 -11.3 45.45 -13.65 47.2 L-15.7 48.45 Q-17.85 48.35 -17.85 46.35 -17.85 38.9 -4.75 32.25 7.35 26.15 18.0 26.15 38.0 26.15 49.2 39.65 58.3 50.65 58.3 64.65 58.3 70.85 56.65 76.45 55.0 81.9 53.15 82.25 L52.05 82.15 Q51.75 82.0 51.75 81.35 52.1 77.15 51.8 74.25 51.25 68.7 48.05 68.7 47.8 68.7 45.75 70.6 L43.7 72.45 39.0 72.3 Q38.25 65.95 36.25 64.15 34.55 62.65 34.55 60.35 L34.95 57.45 35.3 54.55 Q35.3 51.25 32.4 46.7 28.15 40.05 20.5 40.05 18.1 40.05 11.4 42.95 8.05 44.35 5.05 45.8 M5.15 43.9 Q7.9 42.4 10.1 41.35 14.25 39.35 18.6 39.35 26.3 39.35 30.05 41.25 34.1 43.3 36.35 48.85 37.6 51.9 37.15 57.9 36.75 63.4 37.5 64.4 L39.3 67.2 Q40.2 68.85 40.2 69.55 L40.25 70.35 Q40.5 70.95 41.55 71.55 43.0 71.35 44.55 69.55 46.0 67.8 47.6 67.8 50.7 67.8 52.55 71.5 54.4 75.1 53.75 79.5 55.55 76.45 56.15 70.1 L56.4 64.05 Q56.4 50.35 45.75 39.2 34.4 27.35 18.6 27.35 7.75 27.35 -1.85 32.1 -12.45 37.3 -15.9 45.85 -16.75 48.4 -13.75 46.25 L-8.75 42.75 Q-3.5 40.55 -1.6 40.55 -0.2 40.55 5.15 43.9" fill="#1f1810" fill-rule="evenodd" stroke="none"/>
    <path d="M5.15 43.9 Q-0.2 40.55 -1.6 40.55 -3.5 40.55 -8.75 42.75 L-13.75 46.25 Q-16.75 48.4 -15.9 45.85 -12.45 37.3 -1.85 32.1 7.75 27.35 18.6 27.35 34.4 27.35 45.75 39.2 56.4 50.35 56.4 64.05 L56.15 70.1 Q55.55 76.45 53.75 79.5 54.4 75.1 52.55 71.5 50.7 67.8 47.6 67.8 46.0 67.8 44.55 69.55 43.0 71.35 41.55 71.55 40.5 70.95 40.25 70.35 L40.2 69.55 Q40.2 68.85 39.3 67.2 L37.5 64.4 Q36.75 63.4 37.15 57.9 37.6 51.9 36.35 48.85 34.1 43.3 30.05 41.25 26.3 39.35 18.6 39.35 14.25 39.35 10.1 41.35 7.9 42.4 5.15 43.9" fill="#35291c" fill-rule="evenodd" stroke="none"/>
  </g>
</svg>
