<?xml version="1.0" encoding="UTF-8" standalone="no"?>
<svg xmlns:ffdec="https://www.free-decompiler.com/flash" xmlns:xlink="http://www.w3.org/1999/xlink" ffdec:objectType="shape" height="95.2px" width="70.55px" xmlns="http://www.w3.org/2000/svg">
  <g transform="matrix(1.0, 0.0, 0.0, 1.0, 35.0, 50.0)">
    <path d="M9.75 -48.5 Q10.7 -48.5 15.6 -46.4 20.8 -44.25 21.8 -43.1 29.05 -35.1 31.65 -28.85 33.5 -24.35 33.5 -18.7 33.5 -18.1 32.95 -17.0 32.95 -15.6 34.15 -13.1 L35.4 -10.05 Q35.4 -8.9 34.65 -7.8 33.9 -6.75 33.9 -5.25 L34.75 -3.2 Q35.55 -1.0 35.55 0.0 35.55 1.2 34.4 2.1 33.3 3.0 33.3 4.05 L33.7 5.6 34.05 7.5 Q34.05 9.2 33.4 10.4 L31.95 12.2 Q29.85 14.4 29.85 17.1 29.9 20.15 27.5 22.1 L25.8 23.5 Q25.05 24.45 25.05 25.75 L25.3 27.3 25.5 28.85 Q25.5 30.75 23.75 31.6 L22.05 32.3 Q20.95 32.8 20.15 33.4 19.55 33.85 18.8 36.4 L18.15 39.1 Q17.6 41.05 15.35 41.05 L15.0 41.05 14.9 40.95 Q13.65 40.3 13.2 40.3 12.6 40.3 12.3 41.0 L11.75 42.5 Q10.65 44.7 6.35 44.7 L4.9 44.4 3.2 44.1 -0.05 45.05 -2.15 44.35 -5.45 45.2 Q-7.45 45.2 -8.6 44.25 L-10.1 42.9 -13.75 41.7 -16.55 40.65 Q-19.8 37.7 -23.05 32.15 -26.2 26.75 -26.2 24.4 L-26.05 23.1 -25.85 21.85 -27.5 20.1 Q-29.3 18.4 -29.9 17.05 -30.65 15.3 -30.6 13.55 L-30.4 11.35 -31.0 10.6 -32.35 9.4 Q-34.3 7.4 -34.3 5.15 -34.3 2.75 -33.65 1.3 L-32.95 0.15 Q-32.95 -0.75 -34.0 -2.55 -35.0 -4.4 -35.0 -5.0 -35.0 -7.25 -33.45 -9.3 -31.95 -11.4 -31.95 -12.35 -31.95 -14.1 -32.45 -15.5 L-32.9 -16.9 Q-32.9 -17.8 -31.25 -19.85 -29.55 -21.9 -29.5 -22.55 L-29.5 -24.1 -29.4 -25.35 Q-28.95 -26.8 -25.45 -29.35 -22.8 -32.8 -22.4 -34.35 L-21.95 -36.3 Q-21.55 -37.9 -21.15 -38.3 L-19.85 -39.15 -16.4 -41.75 -12.55 -45.5 Q-11.65 -46.5 -10.85 -46.5 L-9.95 -46.15 -7.55 -45.8 Q-6.95 -45.8 -6.35 -46.45 L-5.15 -47.9 Q-3.15 -50.0 0.7 -50.0 2.05 -50.0 4.2 -48.9 L6.4 -47.8 9.75 -48.5" fill="#ffffff" fill-opacity="0.0" fill-rule="evenodd" stroke="none"/>
  </g>
</svg>
