<?xml version="1.0" encoding="UTF-8" standalone="no"?>
<svg xmlns:ffdec="https://www.free-decompiler.com/flash" xmlns:xlink="http://www.w3.org/1999/xlink" ffdec:objectType="shape" height="30.65px" width="67.45px" xmlns="http://www.w3.org/2000/svg">
  <g transform="matrix(1.0, 0.0, 0.0, 1.0, -0.05, -25.5)">
    <path d="M47.05 44.45 L47.05 49.6 43.75 51.05 43.75 45.95 47.05 44.45 M48.85 48.6 L48.85 43.5 Q50.6 42.8 53.7 40.45 57.45 37.55 59.15 34.95 L59.15 41.2 48.85 48.6 M9.05 46.85 Q12.4 48.65 18.15 49.5 L25.4 49.9 25.4 54.7 14.8 53.55 9.05 51.65 9.05 46.85" fill="#6c3a1c" fill-rule="evenodd" stroke="none"/>
    <path d="M59.15 34.95 L61.8 31.0 64.35 26.6 66.25 26.6 66.25 33.05 64.1 36.45 Q62.85 38.0 59.15 41.2 L59.15 34.95 M1.75 40.6 Q2.3 42.0 4.3 43.9 6.7 46.15 9.05 46.85 L9.05 51.65 Q5.45 50.25 4.0 48.5 1.7 45.85 1.75 40.6" fill="#512c15" fill-rule="evenodd" stroke="none"/>
    <path d="M47.05 44.45 L48.85 43.5 48.85 48.6 47.05 49.6 47.05 44.45 M25.4 49.9 Q28.15 50.0 34.55 48.7 41.25 47.35 43.75 45.95 L43.75 51.05 Q38.05 53.25 33.95 53.95 L25.4 54.7 25.4 49.9" fill="#8c4b24" fill-rule="evenodd" stroke="none"/>
    <path d="M47.05 49.6 L48.85 48.6 59.15 41.2 Q62.85 38.0 64.1 36.45 L66.25 33.05 66.25 26.6 64.35 26.6 64.6 25.5 67.5 25.75 67.5 34.35 63.05 39.4 Q59.1 43.6 54.85 46.7 41.85 56.15 25.4 56.15 L15.05 55.15 Q11.0 54.4 9.05 53.55 L0.65 49.8 Q0.05 49.3 0.05 45.05 0.05 40.7 1.4 39.65 L1.75 40.6 Q1.7 45.85 4.0 48.5 5.45 50.25 9.05 51.65 L14.8 53.55 25.4 54.7 33.95 53.95 Q38.05 53.25 43.75 51.05 L47.05 49.6" fill="#331c0d" fill-rule="evenodd" stroke="none"/>
  </g>
</svg>
