<?xml version="1.0" encoding="UTF-8" standalone="no"?>
<svg xmlns:ffdec="https://www.free-decompiler.com/flash" xmlns:xlink="http://www.w3.org/1999/xlink" ffdec:objectType="shape" height="81.3px" width="60.25px" xmlns="http://www.w3.org/2000/svg">
  <g transform="matrix(1.0, 0.0, 0.0, 1.0, 28.75, 43.8)">
    <path d="M24.5 -24.9 Q24.5 -21.5 21.35 -17.2 17.3 -11.7 11.25 -11.7 5.4 -11.7 -0.65 -15.05 -6.25 -18.15 -6.45 -20.45 -6.95 -25.0 -8.7 -26.9 -10.25 -28.6 -10.25 -30.9 -10.25 -34.4 -7.0 -38.0 -3.0 -42.45 3.25 -42.45 L8.65 -43.6 Q14.45 -44.35 17.05 -42.25 17.9 -41.65 19.2 -39.7 20.55 -37.65 21.0 -36.25 L24.5 -24.9 M29.85 -24.8 L30.5 -23.0 Q29.8 -21.95 28.5 -21.95 27.6 -21.95 27.1 -22.95 26.75 -23.6 26.75 -24.0 26.75 -24.9 29.0 -25.95 L29.85 -24.8 M18.5 -4.25 Q18.5 -10.85 25.0 -11.85 27.55 -12.25 29.45 -11.25 31.5 -10.15 31.5 -8.0 L31.15 -5.65 30.75 -3.35 Q30.75 -2.55 29.3 -0.7 27.6 1.5 26.0 1.5 21.3 1.5 19.5 -1.0 18.5 -2.35 18.5 -4.25 M26.3 16.5 Q26.3 22.85 22.0 26.0 L17.0 26.0 15.75 25.05 13.0 25.0 Q10.1 22.2 9.7 21.5 9.5 21.1 9.5 18.75 9.5 13.8 12.15 11.15 14.4 8.8 17.9 8.85 21.2 8.9 23.7 10.95 26.3 13.15 26.3 16.5 M1.0 6.5 Q-0.5 5.95 -0.9 4.9 L-1.0 3.15 Q-1.0 -1.85 2.4 -0.7 5.75 0.45 5.75 4.05 5.75 5.5 4.0 6.5 L1.0 6.5 M17.25 31.5 Q17.25 33.35 16.25 35.05 14.85 37.5 12.0 37.5 9.5 37.5 8.25 35.55 L7.5 33.5 Q7.5 29.5 12.4 28.15 17.25 26.85 17.25 31.5 M4.95 32.15 Q2.55 35.4 -4.0 37.05 L-7.0 37.05 -17.15 30.3 Q-21.0 27.6 -21.0 23.65 L-20.75 15.05 Q-20.65 12.45 -14.35 11.3 L-6.5 10.8 Q-2.2 11.3 2.35 17.4 6.55 23.05 6.55 26.4 6.55 30.0 4.95 32.15 M-14.2 -31.45 Q-14.2 -29.85 -14.5 -29.25 -15.1 -28.2 -17.0 -28.2 -19.1 -28.2 -19.75 -29.85 L-20.0 -31.65 Q-20.0 -33.25 -19.15 -34.0 -17.9 -35.1 -15.0 -33.95 L-14.3 -32.9 -14.2 -31.45 M-28.05 -6.45 L-28.7 -6.95 -28.75 -8.1 Q-28.75 -9.25 -28.0 -9.65 -26.95 -10.25 -25.2 -8.0 L-25.65 -6.9 Q-25.85 -6.25 -27.0 -6.25 L-28.05 -6.45 M-23.45 -14.5 Q-23.45 -22.25 -16.8 -19.75 -14.3 -18.85 -12.25 -16.8 -10.2 -14.75 -10.2 -13.15 -10.2 -10.6 -10.45 -10.1 -11.1 -8.75 -14.5 -7.2 L-19.5 -7.2 Q-22.55 -8.85 -23.2 -10.55 L-23.45 -14.5 M-7.25 -6.0 Q-7.25 -8.05 -5.35 -8.3 -3.45 -8.55 -3.45 -6.85 -3.45 -6.1 -4.0 -5.25 -4.7 -4.25 -5.75 -4.25 L-6.95 -4.35 -7.2 -4.5 -7.25 -6.0 M-19.65 4.55 Q-19.95 5.35 -21.5 6.0 L-24.5 6.0 -25.6 4.95 -26.0 4.35 Q-26.0 -0.4 -22.75 -0.4 -21.5 -0.4 -20.5 0.45 -19.5 1.35 -19.5 2.6 -19.5 4.2 -19.65 4.55" fill="#d38105" fill-rule="evenodd" stroke="none"/>
    <path d="M-24.2 3.0 L-23.95 1.5 Q-23.5 1.3 -21.5 2.0 L-21.7 3.75 -23.95 3.75 -24.2 3.0 M-21.5 -11.75 Q-21.7 -12.35 -21.7 -14.6 -21.7 -19.35 -16.8 -17.5 -14.95 -16.8 -13.45 -15.45 -11.95 -14.05 -11.95 -12.95 -11.95 -11.0 -12.35 -10.5 -13.65 -8.8 -18.75 -9.0 -20.95 -10.05 -21.5 -11.75 M-18.0 -31.7 Q-17.5 -32.3 -15.95 -31.95 L-16.0 -30.75 -16.95 -30.25 -17.65 -30.7 -18.0 -30.95 -18.0 -31.7 M4.3 26.4 Q4.3 28.9 2.8 31.0 0.15 34.75 -6.2 34.75 L-10.55 31.85 Q-14.9 28.8 -15.5 28.5 -17.5 27.55 -18.45 24.85 -19.2 22.9 -19.2 20.85 -19.2 15.85 -15.55 14.05 L-7.45 13.8 Q-2.75 15.15 0.65 18.5 4.3 22.15 4.3 26.4 M15.75 31.4 Q15.75 32.2 14.75 33.75 13.75 35.3 13.05 35.3 10.85 35.3 10.1 34.75 9.5 34.35 9.5 33.35 9.5 32.7 11.0 30.9 L12.75 28.8 Q13.3 29.5 14.7 30.05 15.75 30.4 15.75 31.4 M3.0 2.45 L4.0 4.25 1.75 4.3 1.0 4.0 Q1.0 2.9 1.35 1.9 1.7 0.9 2.25 0.5 2.25 1.1 3.0 2.45 M24.25 19.75 Q23.75 21.0 21.3 23.75 L17.75 23.8 Q17.0 23.05 13.25 22.8 12.7 22.25 12.1 20.75 11.5 19.2 11.5 18.4 11.5 14.7 13.55 12.75 15.3 11.05 18.05 11.1 20.6 11.15 22.5 12.65 24.55 14.25 24.55 16.6 24.55 18.95 24.25 19.75 M22.5 -2.2 Q20.5 -3.6 20.5 -4.5 20.5 -9.0 25.15 -9.5 27.0 -9.7 28.3 -8.65 29.75 -7.5 29.75 -5.25 29.55 -4.1 29.0 -3.0 27.95 -0.75 26.15 -0.75 24.55 -0.75 22.5 -2.2 M21.6 -28.25 L22.5 -24.9 Q22.5 -22.8 20.05 -19.0 16.6 -13.7 11.15 -13.7 2.9 -13.7 -4.7 -20.95 -5.85 -24.55 -7.65 -26.8 -8.75 -28.15 -8.75 -31.1 -8.75 -34.0 -6.0 -37.0 -2.2 -41.2 4.6 -41.2 13.55 -41.2 15.55 -40.1 16.75 -39.45 19.0 -34.75 20.5 -31.65 21.6 -28.25" fill="#f7ad1f" fill-rule="evenodd" stroke="none"/>
    <path d="M16.05 -33.2 Q18.35 -29.8 18.35 -28.75 18.35 -24.95 14.0 -19.75 L10.75 -19.75 Q7.15 -21.45 5.3 -22.55 2.05 -24.4 1.25 -26.1 L0.9 -27.95 Q0.8 -29.2 0.25 -29.85 L-0.8 -31.8 -1.6 -33.75 Q-1.6 -34.65 0.0 -35.75 L2.35 -37.25 Q4.0 -38.45 4.75 -38.6 12.0 -38.2 13.15 -37.0 L16.05 -33.2 M26.15 -6.25 Q27.65 -6.3 27.65 -5.35 L27.5 -3.5 Q27.25 -2.65 26.35 -2.65 25.45 -2.65 24.95 -3.75 L24.6 -4.85 Q24.6 -6.2 26.15 -6.25 M1.6 25.75 Q1.6 26.7 -0.1 27.4 -1.75 28.15 -3.75 28.15 -9.15 28.15 -12.1 24.9 -14.0 22.8 -14.0 21.15 -14.0 19.95 -13.7 19.45 -13.15 18.6 -11.25 17.75 -6.55 15.5 -4.25 17.85 L0.2 22.05 Q1.6 23.3 1.6 25.75 M21.9 18.4 Q21.9 19.25 21.2 19.75 20.4 20.35 18.85 20.35 17.05 20.35 16.0 19.15 15.25 18.3 15.25 17.45 15.25 13.55 18.6 13.8 21.9 14.0 21.9 18.4 M-15.0 -11.55 Q-15.85 -10.6 -17.25 -10.6 -18.55 -10.6 -19.0 -12.25 L-19.15 -13.65 Q-19.15 -15.9 -16.75 -15.65 -14.4 -15.4 -14.4 -12.95 -14.4 -12.25 -15.0 -11.55" fill="#fcd03a" fill-rule="evenodd" stroke="none"/>
  </g>
</svg>
