<?xml version="1.0" encoding="UTF-8" standalone="no"?>
<svg xmlns:ffdec="https://www.free-decompiler.com/flash" xmlns:xlink="http://www.w3.org/1999/xlink" ffdec:objectType="shape" height="21.25px" width="39.85px" xmlns="http://www.w3.org/2000/svg">
  <g transform="matrix(1.0, 0.0, 0.0, 1.0, 42.1, -0.1)">
    <path d="M-3.75 10.1 Q-3.7 10.8 -4.15 11.4 -4.65 11.95 -5.35 12.0 L-12.95 12.6 Q-13.65 12.65 -14.2 12.2 -14.8 11.7 -14.85 11.0 -14.9 10.3 -14.4 9.75 -13.95 9.15 -13.25 9.1 L-5.65 8.5 Q-4.95 8.45 -4.35 8.95 -3.8 9.4 -3.75 10.1 M-28.0 10.0 Q-27.3 10.0 -26.8 10.5 -26.25 11.0 -26.25 11.75 -26.25 12.45 -26.75 12.95 -27.25 13.5 -27.95 13.5 L-38.2 13.75 Q-38.95 13.75 -39.45 13.25 -40.0 12.75 -40.0 12.05 -40.0 11.3 -39.5 10.8 -39.0 10.25 -38.25 10.25 L-28.0 10.0" fill="#3e2317" fill-rule="evenodd" stroke="none"/>
    <path d="M-2.25 8.9 Q-2.25 12.5 -4.3 15.05 -6.35 17.55 -9.25 17.55 -12.15 17.55 -14.2 15.05 -16.25 12.5 -16.25 8.9 -16.25 5.35 -14.2 2.8 -12.15 0.25 -9.25 0.25 -6.35 0.25 -4.3 2.8 -2.25 5.35 -2.25 8.9 M-3.75 10.1 Q-3.8 9.4 -4.35 8.95 -4.95 8.45 -5.65 8.5 L-13.25 9.1 Q-13.95 9.15 -14.4 9.75 -14.9 10.3 -14.85 11.0 -14.8 11.7 -14.2 12.2 -13.65 12.65 -12.95 12.6 L-5.35 12.0 Q-4.65 11.95 -4.15 11.4 -3.7 10.8 -3.75 10.1 M-24.1 10.75 Q-24.1 15.15 -26.75 18.25 -29.35 21.35 -33.1 21.35 -36.8 21.35 -39.5 18.25 -42.1 15.15 -42.1 10.75 -42.1 6.35 -39.5 3.2 -36.8 0.1 -33.1 0.1 -29.35 0.1 -26.75 3.2 -24.1 6.35 -24.1 10.75 M-28.0 10.0 L-38.25 10.25 Q-39.0 10.25 -39.5 10.8 -40.0 11.3 -40.0 12.05 -40.0 12.75 -39.45 13.25 -38.95 13.75 -38.2 13.75 L-27.95 13.5 Q-27.25 13.5 -26.75 12.95 -26.25 12.45 -26.25 11.75 -26.25 11.0 -26.8 10.5 -27.3 10.0 -28.0 10.0" fill="#db9c64" fill-rule="evenodd" stroke="none"/>
  </g>
</svg>
