<?xml version="1.0" encoding="UTF-8" standalone="no"?>
<svg xmlns:ffdec="https://www.free-decompiler.com/flash" xmlns:xlink="http://www.w3.org/1999/xlink" ffdec:objectType="shape" height="21.25px" width="39.85px" xmlns="http://www.w3.org/2000/svg">
  <g transform="matrix(1.0, 0.0, 0.0, 1.0, 42.1, -0.1)">
    <path d="M-5.0 4.95 L-5.0 5.0 Q-3.65 6.9 -3.65 9.8 -3.65 12.25 -4.7 14.15 L-4.75 14.25 -5.0 14.6 Q-6.7 17.05 -9.05 16.95 -11.4 17.05 -13.0 14.7 L-13.35 14.15 -13.3 14.2 Q-14.4 12.3 -14.4 9.8 -14.4 8.35 -14.05 7.1 -13.8 5.95 -13.05 5.0 L-11.95 3.75 Q-10.65 2.55 -9.05 2.6 -6.7 2.5 -5.0 4.95 M-9.65 6.4 L-9.7 6.45 -10.1 6.9 -10.2 7.05 -10.65 7.9 -10.65 8.0 -10.9 9.8 Q-10.9 11.25 -10.35 12.4 L-10.1 12.65 Q-9.65 13.35 -9.05 13.45 -8.4 13.35 -7.9 12.6 L-7.9 12.65 -7.85 12.6 -7.8 12.5 Q-7.15 11.3 -7.15 9.8 -7.15 8.1 -7.9 6.95 -8.4 6.2 -9.05 6.1 L-9.65 6.4 M-27.4 18.95 Q-29.45 20.65 -32.15 20.65 -35.6 20.65 -38.05 17.95 L-39.05 16.7 Q-40.55 14.45 -40.55 11.55 -40.55 9.45 -39.75 7.8 -39.25 6.4 -38.2 5.3 -37.35 4.25 -36.4 3.7 -34.3 2.3 -32.15 2.85 L-32.05 2.9 Q-30.25 3.3 -28.25 5.8 L-28.25 5.85 Q-26.6 7.95 -25.5 10.9 L-25.5 10.85 Q-24.6 13.1 -24.65 14.55 -24.7 15.4 -25.05 16.0 L-25.1 16.05 -26.25 17.85 -27.4 18.95 M-36.55 9.2 Q-37.05 10.25 -37.05 11.55 -37.05 13.45 -36.05 14.85 L-35.9 15.15 -35.65 15.4 -35.55 15.55 Q-34.15 17.15 -32.15 17.15 -30.3 17.1 -28.9 15.55 L-28.2 14.45 Q-28.1 13.8 -28.75 12.15 -29.7 9.75 -31.0 8.0 -32.1 6.6 -33.0 6.25 -33.75 6.15 -34.5 6.65 L-34.55 6.65 -35.5 7.5 -35.6 7.65 -36.5 9.05 -36.55 9.2" fill="#3e2317" fill-rule="evenodd" stroke="none"/>
    <path d="M-9.65 6.4 L-9.05 6.1 Q-8.4 6.2 -7.9 6.95 -7.15 8.1 -7.15 9.8 -7.15 11.3 -7.8 12.5 L-7.85 12.6 -7.9 12.65 -7.9 12.6 Q-8.4 13.35 -9.05 13.45 -9.65 13.35 -10.1 12.65 L-10.35 12.4 Q-10.9 11.25 -10.9 9.8 L-10.65 8.0 -10.65 7.9 -10.2 7.05 -10.1 6.9 -9.7 6.45 -9.65 6.4 M-36.55 9.2 L-36.5 9.05 -35.6 7.65 -35.5 7.5 -34.55 6.65 -34.5 6.65 Q-33.75 6.15 -33.0 6.25 -32.1 6.6 -31.0 8.0 -29.7 9.75 -28.75 12.15 -28.1 13.8 -28.2 14.45 L-28.9 15.55 Q-30.3 17.1 -32.15 17.15 -34.15 17.15 -35.55 15.55 L-35.65 15.4 -35.9 15.15 -36.05 14.85 Q-37.05 13.45 -37.05 11.55 -37.05 10.25 -36.55 9.2" fill="#ffe6cc" fill-rule="evenodd" stroke="none"/>
    <path d="M-5.0 4.95 Q-6.7 2.5 -9.05 2.6 -10.65 2.55 -11.95 3.75 L-13.05 5.0 Q-13.8 5.95 -14.05 7.1 -14.4 8.35 -14.4 9.8 -14.4 12.3 -13.3 14.2 L-13.35 14.15 -13.0 14.7 Q-11.4 17.05 -9.05 16.95 -6.7 17.05 -5.0 14.6 L-4.75 14.25 -4.7 14.15 Q-3.65 12.25 -3.65 9.8 -3.65 6.9 -5.0 5.0 L-5.0 4.95 M-4.3 2.8 Q-2.25 5.35 -2.25 8.9 -2.25 12.5 -4.3 15.05 -6.35 17.55 -9.25 17.55 -12.15 17.55 -14.2 15.05 -16.25 12.5 -16.25 8.9 -16.25 5.35 -14.2 2.8 -12.15 0.25 -9.25 0.25 -6.35 0.25 -4.3 2.8 M-27.4 18.95 Q-29.8 21.35 -33.1 21.35 -36.8 21.35 -39.5 18.25 -42.1 15.15 -42.1 10.75 -42.1 6.35 -39.5 3.2 -36.8 0.1 -33.1 0.1 -29.35 0.1 -26.75 3.2 -24.1 6.35 -24.1 10.75 -24.1 12.8 -24.65 14.55 -24.6 13.1 -25.5 10.85 L-25.5 10.9 Q-26.6 7.95 -28.25 5.85 L-28.25 5.8 Q-30.25 3.3 -32.05 2.9 L-32.15 2.85 Q-34.3 2.3 -36.4 3.7 -37.35 4.25 -38.2 5.3 -39.25 6.4 -39.75 7.8 -40.55 9.45 -40.55 11.55 -40.55 14.45 -39.05 16.7 L-38.05 17.95 Q-35.6 20.65 -32.15 20.65 -29.45 20.65 -27.4 18.95" fill="#db9c64" fill-rule="evenodd" stroke="none"/>
  </g>
</svg>
