<?xml version="1.0" encoding="UTF-8" standalone="no"?>
<svg xmlns:ffdec="https://www.free-decompiler.com/flash" xmlns:xlink="http://www.w3.org/1999/xlink" ffdec:objectType="shape" height="21.25px" width="39.85px" xmlns="http://www.w3.org/2000/svg">
  <g transform="matrix(1.0, 0.0, 0.0, 1.0, 42.1, -0.1)">
    <path d="M-4.7 6.95 Q-4.1 7.35 -3.95 8.1 -3.85 8.8 -4.25 9.4 L-5.35 10.15 Q-6.1 10.25 -6.7 9.85 -9.45 8.0 -11.9 10.75 -12.4 11.25 -13.1 11.3 -13.85 11.35 -14.35 10.85 -14.9 10.35 -14.95 9.65 -15.0 8.9 -14.5 8.4 -9.95 3.3 -4.7 6.95 M-28.5 12.25 Q-29.25 12.3 -29.8 11.9 -33.25 9.35 -36.8 12.75 -37.35 13.2 -38.05 13.2 -38.75 13.2 -39.25 12.65 -39.75 12.1 -39.75 11.4 -39.75 10.7 -39.2 10.2 -33.35 4.65 -27.65 9.15 -27.1 9.55 -27.0 10.3 -26.95 11.0 -27.35 11.6 -27.8 12.15 -28.5 12.25" fill="#3e2317" fill-rule="evenodd" stroke="none"/>
    <path d="M-4.7 6.95 Q-9.95 3.3 -14.5 8.4 -15.0 8.9 -14.95 9.65 -14.9 10.35 -14.35 10.85 -13.85 11.35 -13.1 11.3 -12.4 11.25 -11.9 10.75 -9.45 8.0 -6.7 9.85 -6.1 10.25 -5.35 10.15 L-4.25 9.4 Q-3.85 8.8 -3.95 8.1 -4.1 7.35 -4.7 6.95 M-4.3 2.8 Q-2.25 5.35 -2.25 8.9 -2.25 12.5 -4.3 15.05 -6.35 17.55 -9.25 17.55 -12.15 17.55 -14.2 15.05 -16.25 12.5 -16.25 8.9 -16.25 5.35 -14.2 2.8 -12.15 0.25 -9.25 0.25 -6.35 0.25 -4.3 2.8 M-28.5 12.25 Q-27.8 12.15 -27.35 11.6 -26.95 11.0 -27.0 10.3 -27.1 9.55 -27.65 9.15 -33.35 4.65 -39.2 10.2 -39.75 10.7 -39.75 11.4 -39.75 12.1 -39.25 12.65 -38.75 13.2 -38.05 13.2 -37.35 13.2 -36.8 12.75 -33.25 9.35 -29.8 11.9 -29.25 12.3 -28.5 12.25 M-24.1 10.75 Q-24.1 15.15 -26.75 18.25 -29.35 21.35 -33.1 21.35 -36.8 21.35 -39.5 18.25 -42.1 15.15 -42.1 10.75 -42.1 6.35 -39.5 3.2 -36.8 0.1 -33.1 0.1 -29.35 0.1 -26.75 3.2 -24.1 6.35 -24.1 10.75" fill="#db9c64" fill-rule="evenodd" stroke="none"/>
  </g>
</svg>
