<?xml version="1.0" encoding="UTF-8" standalone="no"?>
<svg xmlns:ffdec="https://www.free-decompiler.com/flash" xmlns:xlink="http://www.w3.org/1999/xlink" ffdec:objectType="shape" height="25.5px" width="31.35px" xmlns="http://www.w3.org/2000/svg">
  <g transform="matrix(1.0, 0.0, 0.0, 1.0, -26.05, -0.2)">
    <path d="M52.3 10.1 Q52.3 8.85 50.7 7.8 48.9 6.6 45.5 5.95 L46.95 7.4 Q47.65 8.05 49.6 8.8 L52.3 10.1 M51.75 7.75 Q52.75 8.4 53.3 10.4 51.75 10.55 48.3 9.1 45.65 7.95 44.3 6.75 47.05 9.3 49.9 11.0 52.3 12.45 53.15 12.45 56.5 12.45 56.5 10.5 56.5 7.55 51.1 6.0 L41.8 4.45 Q49.65 6.3 51.75 7.75 M27.5 1.2 L26.05 1.5 Q27.5 0.05 31.4 0.2 36.35 0.2 40.25 2.1 L44.85 4.4 Q50.3 5.65 52.55 6.45 57.4 8.25 57.4 10.5 57.4 11.65 56.25 12.45 55.25 13.15 54.05 13.15 52.95 13.15 50.55 12.35 L50.5 12.6 51.3 16.45 Q52.0 19.55 52.0 21.2 52.0 25.65 48.0 25.7 47.35 25.75 47.35 24.75 L47.85 21.2 48.35 17.6 Q48.35 11.6 43.2 8.9 35.05 5.85 29.0 2.75 L29.95 2.5 34.3 2.4 38.0 2.7 36.25 2.1 Q37.2 2.25 39.05 3.1 L41.25 4.0 41.35 3.85 Q38.7 1.0 34.0 0.6 30.65 0.3 27.5 1.2 M46.1 9.6 L46.75 10.3 Q48.0 11.95 49.25 17.6 L48.75 21.35 48.25 25.0 Q50.05 24.3 50.8 22.75 L51.25 21.1 Q51.25 18.3 50.2 15.0 48.7 10.5 46.1 9.6 M43.55 7.9 Q44.55 7.9 44.0 7.75 43.55 6.05 41.85 5.2 39.45 4.05 32.0 2.7 L32.0 2.75 38.0 5.65 Q42.75 7.9 43.55 7.9" fill="#525252" fill-rule="evenodd" stroke="none"/>
    <path d="M51.75 7.75 Q49.65 6.3 41.8 4.45 L51.1 6.0 Q56.5 7.55 56.5 10.5 56.5 12.45 53.15 12.45 52.3 12.45 49.9 11.0 47.05 9.3 44.3 6.75 45.65 7.95 48.3 9.1 51.75 10.55 53.3 10.4 52.75 8.4 51.75 7.75 M27.5 1.2 Q30.65 0.3 34.0 0.6 38.7 1.0 41.35 3.85 L41.25 4.0 39.05 3.1 Q37.2 2.25 36.25 2.1 L32.95 1.5 29.5 1.1 27.5 1.2 M43.55 7.9 Q42.75 7.9 38.0 5.65 L32.0 2.75 32.0 2.7 Q39.45 4.05 41.85 5.2 43.55 6.05 44.0 7.75 44.55 7.9 43.55 7.9 M46.1 9.6 Q48.7 10.5 50.2 15.0 51.25 18.3 51.25 21.1 L50.8 22.75 Q50.05 24.3 48.25 25.0 L48.75 21.35 49.25 17.6 Q48.0 11.95 46.75 10.3 L46.1 9.6" fill="#d3d3d3" fill-rule="evenodd" stroke="none"/>
  </g>
</svg>
