<?xml version="1.0" encoding="UTF-8" standalone="no"?>
<svg xmlns:ffdec="https://www.free-decompiler.com/flash" xmlns:xlink="http://www.w3.org/1999/xlink" ffdec:objectType="shape" height="58.9px" width="53.75px" xmlns="http://www.w3.org/2000/svg">
  <g transform="matrix(1.0, 0.0, 0.0, 1.0, 26.9, 29.45)">
    <path d="M17.4 -27.65 Q18.85 -26.0 18.85 -24.0 18.85 -20.5 18.25 -19.15 L16.4 -16.65 Q17.25 -15.8 19.45 -15.85 L22.0 -16.05 Q24.9 -16.05 26.1 -13.1 26.85 -11.3 26.85 -8.8 26.85 -8.05 23.95 -4.95 L21.0 -1.95 Q21.0 -1.0 23.45 1.15 25.85 3.3 25.85 5.7 25.85 13.0 22.2 13.0 19.1 13.15 16.0 11.05 L19.35 19.3 Q21.0 23.1 21.0 24.05 21.0 27.15 16.9 28.55 14.4 29.45 11.8 29.45 8.65 29.45 6.0 25.35 3.6 20.75 2.6 19.75 L1.7 18.6 Q0.4 25.6 -3.35 25.6 -7.15 25.6 -8.85 23.5 -10.35 21.65 -10.35 18.05 -10.35 14.6 -9.7 13.35 L-9.1 11.85 Q-9.1 8.75 -11.2 7.7 -12.4 7.05 -15.55 6.05 -18.25 4.7 -19.1 2.8 -19.75 1.4 -19.45 -0.8 -20.65 -0.3 -23.15 -0.3 -25.85 -0.3 -26.6 -1.35 -26.9 -1.75 -26.9 -2.95 -26.9 -6.75 -22.7 -6.75 -20.35 -6.75 -19.35 -5.75 L-17.4 -3.05 Q-15.3 -4.0 -11.55 -4.65 -8.4 -5.15 -7.9 -5.65 L-7.85 -6.0 Q-12.2 -7.7 -18.9 -9.8 -21.45 -11.05 -22.6 -12.55 -23.75 -14.05 -23.75 -16.1 -23.75 -20.3 -21.45 -22.6 -19.5 -24.6 -16.45 -24.6 -15.3 -24.6 -11.65 -23.35 -7.15 -21.8 -5.65 -20.05 L-5.3 -19.45 -4.95 -19.2 -4.65 -22.25 Q-4.3 -23.0 -1.6 -23.0 -0.1 -23.0 1.4 -21.7 L3.15 -19.65 Q8.0 -29.8 13.75 -29.45 15.9 -29.35 17.4 -27.65 M9.3 -25.45 Q6.2 -22.7 4.5 -17.7 L-1.1 -20.95 -2.85 -20.95 -2.95 -19.2 -3.0 -17.4 Q-2.95 -16.35 -2.3 -16.35 -1.65 -16.35 -1.5 -15.45 L-1.45 -13.85 Q-1.45 -13.25 -1.6 -13.05 L-1.9 -12.7 Q-4.2 -14.35 -7.95 -18.85 -11.6 -22.5 -15.95 -22.5 -17.95 -22.5 -19.15 -21.9 -20.0 -21.5 -20.0 -21.2 L-21.75 -16.1 Q-21.75 -14.5 -18.15 -12.35 L-14.55 -10.25 -11.8 -9.45 -9.05 -8.7 -5.8 -5.95 Q-5.8 -3.55 -11.7 -2.5 -17.6 -1.4 -17.6 0.45 -17.6 2.65 -15.95 3.4 L-12.3 4.2 Q-7.05 5.3 -7.05 12.15 L-7.7 13.85 Q-8.35 15.55 -8.35 18.05 -8.35 20.5 -7.15 21.4 -6.3 22.0 -4.4 22.0 -2.0 22.0 -1.0 20.35 0.15 17.8 1.2 15.95 3.0 16.4 4.3 18.25 L6.35 21.85 Q9.05 26.65 14.35 26.65 19.0 26.65 19.0 24.25 L16.2 17.35 Q13.4 10.65 13.4 9.2 L13.45 8.35 13.65 8.2 14.45 8.0 17.55 9.5 Q20.8 11.0 21.85 11.0 23.05 11.0 23.55 8.65 L23.85 5.5 Q23.85 4.45 21.45 1.5 19.0 -1.45 19.0 -1.95 19.0 -3.85 21.95 -5.75 24.85 -7.6 24.85 -8.8 24.85 -11.3 24.1 -12.7 23.4 -14.05 22.15 -14.05 L19.25 -13.65 16.35 -13.3 Q14.4 -13.3 14.4 -16.65 L15.65 -20.2 Q16.85 -23.75 16.85 -24.35 16.85 -25.55 15.85 -26.45 14.8 -27.4 13.15 -27.4 11.55 -27.4 9.3 -25.45 M-22.7 -4.75 Q-23.5 -4.75 -24.0 -4.25 L-24.9 -2.95 -24.9 -2.4 -22.55 -2.2 Q-21.0 -2.2 -19.4 -3.15 L-20.4 -4.05 Q-21.05 -4.75 -22.7 -4.75 M-16.15 16.5 Q-14.25 16.5 -12.9 17.65 -11.6 18.8 -11.6 20.4 -11.6 22.0 -12.9 23.15 -14.25 24.3 -16.15 24.3 -18.05 24.3 -19.35 23.15 -20.7 22.0 -20.7 20.4 -20.7 18.8 -19.35 17.65 -18.05 16.5 -16.15 16.5 M-18.7 20.4 Q-18.7 21.2 -17.95 21.75 -17.2 22.3 -16.15 22.3 -15.1 22.3 -14.35 21.75 -13.6 21.2 -13.6 20.4 -13.6 19.6 -14.35 19.05 -15.1 18.5 -16.15 18.5 -17.2 18.5 -17.95 19.05 -18.7 19.6 -18.7 20.4" fill="#de5a03" fill-rule="evenodd" stroke="none"/>
    <path d="M13.45 -24.8 L12.7 -24.85 Q11.3 -24.85 8.7 -20.55 6.1 -16.3 3.5 -16.3 2.3 -16.3 1.25 -17.35 L0.3 -18.5 Q-0.15 -18.3 -0.2 -17.4 0.35 -14.65 0.25 -13.4 0.1 -11.7 -1.25 -11.7 -1.85 -11.7 -6.2 -15.2 -10.55 -18.75 -14.3 -18.75 -15.7 -18.75 -16.9 -17.95 -18.35 -17.0 -18.35 -15.55 -18.35 -13.25 -10.1 -10.5 -1.85 -7.75 -1.85 -6.4 -1.85 -4.1 -6.45 -2.85 -11.1 -1.6 -11.1 1.25 -9.8 1.25 -8.4 1.9 -5.6 3.1 -5.0 6.75 L-5.25 13.75 Q-5.4 18.05 -3.25 18.05 -2.25 18.05 -0.6 16.15 1.1 14.2 1.45 14.2 3.5 14.2 6.35 18.3 9.2 22.4 11.3 22.4 14.55 22.4 14.55 19.4 14.55 18.75 12.3 13.55 10.05 8.3 10.05 6.95 10.05 5.35 11.8 5.35 14.1 5.35 15.3 6.35 L16.6 7.3 Q20.3 7.3 20.3 4.65 20.3 2.45 16.95 0.8 13.55 -0.8 13.55 -2.3 13.55 -4.0 17.45 -5.3 21.3 -6.65 21.3 -8.8 21.3 -10.6 19.9 -11.05 L16.9 -11.35 Q12.45 -11.55 12.45 -16.3 12.45 -17.25 13.25 -20.45 14.05 -23.65 14.05 -24.55 L13.45 -24.8 M9.3 -25.45 Q11.55 -27.4 13.15 -27.4 14.8 -27.4 15.85 -26.45 16.85 -25.55 16.85 -24.35 16.85 -23.75 15.65 -20.2 L14.4 -16.65 Q14.4 -13.3 16.35 -13.3 L19.25 -13.65 22.15 -14.05 Q23.4 -14.05 24.1 -12.7 24.85 -11.3 24.85 -8.8 24.85 -7.6 21.95 -5.75 19.0 -3.85 19.0 -1.95 19.0 -1.45 21.45 1.5 23.85 4.45 23.85 5.5 L23.55 8.65 Q23.05 11.0 21.85 11.0 20.8 11.0 17.55 9.5 L14.45 8.0 13.65 8.2 13.45 8.35 13.4 9.2 Q13.4 10.65 16.2 17.35 L19.0 24.25 Q19.0 26.65 14.35 26.65 9.05 26.65 6.35 21.85 L4.3 18.25 Q3.0 16.4 1.2 15.95 0.15 17.8 -1.0 20.35 -2.0 22.0 -4.4 22.0 -6.3 22.0 -7.15 21.4 -8.35 20.5 -8.35 18.05 -8.35 15.55 -7.7 13.85 L-7.05 12.15 Q-7.05 5.3 -12.3 4.2 L-15.95 3.4 Q-17.6 2.65 -17.6 0.45 -17.6 -1.4 -11.7 -2.5 -5.8 -3.55 -5.8 -5.95 L-9.05 -8.7 -11.8 -9.45 -14.55 -10.25 -18.15 -12.35 Q-21.75 -14.5 -21.75 -16.1 L-20.0 -21.2 Q-20.0 -21.5 -19.15 -21.9 -17.95 -22.5 -15.95 -22.5 -11.6 -22.5 -7.95 -18.85 -4.2 -14.35 -1.9 -12.7 L-1.6 -13.05 Q-1.45 -13.25 -1.45 -13.85 L-1.5 -15.45 Q-1.65 -16.35 -2.3 -16.35 -2.95 -16.35 -3.0 -17.4 L-2.95 -19.2 -2.85 -20.95 -1.1 -20.95 4.5 -17.7 Q6.2 -22.7 9.3 -25.45 M-21.1 -3.15 L-21.45 -3.3 -23.45 -3.25 Q-23.45 -3.05 -22.95 -2.9 L-22.5 -2.85 -21.1 -3.15 M-22.7 -4.75 Q-21.05 -4.75 -20.4 -4.05 L-19.4 -3.15 Q-21.0 -2.2 -22.55 -2.2 L-24.9 -2.4 -24.9 -2.95 -24.0 -4.25 Q-23.5 -4.75 -22.7 -4.75 M-18.7 20.4 Q-18.7 19.6 -17.95 19.05 -17.2 18.5 -16.15 18.5 -15.1 18.5 -14.35 19.05 -13.6 19.6 -13.6 20.4 -13.6 21.2 -14.35 21.75 -15.1 22.3 -16.15 22.3 -17.2 22.3 -17.95 21.75 -18.7 21.2 -18.7 20.4 M-17.3 19.85 Q-17.1 20.85 -17.4 20.95 L-17.45 21.0 Q-16.45 20.3 -16.0 19.85 -17.4 19.15 -17.3 19.85" fill="#ff7900" fill-rule="evenodd" stroke="none"/>
    <path d="M13.45 -24.8 L14.05 -24.55 Q14.05 -23.65 13.25 -20.45 12.45 -17.25 12.45 -16.3 12.45 -11.55 16.9 -11.35 L19.9 -11.05 Q21.3 -10.6 21.3 -8.8 21.3 -6.65 17.45 -5.3 13.55 -4.0 13.55 -2.3 13.55 -0.8 16.95 0.8 20.3 2.45 20.3 4.65 20.3 7.3 16.6 7.3 L15.3 6.35 Q14.1 5.35 11.8 5.35 10.05 5.35 10.05 6.95 10.05 8.3 12.3 13.55 14.55 18.75 14.55 19.4 14.55 22.4 11.3 22.4 9.2 22.4 6.35 18.3 3.5 14.2 1.45 14.2 1.1 14.2 -0.6 16.15 -2.25 18.05 -3.25 18.05 -5.4 18.05 -5.25 13.75 L-5.0 6.75 Q-5.6 3.1 -8.4 1.9 -9.8 1.25 -11.1 1.25 -11.1 -1.6 -6.45 -2.85 -1.85 -4.1 -1.85 -6.4 -1.85 -7.75 -10.1 -10.5 -18.35 -13.25 -18.35 -15.55 -18.35 -17.0 -16.9 -17.95 -15.7 -18.75 -14.3 -18.75 -10.55 -18.75 -6.2 -15.2 -1.85 -11.7 -1.25 -11.7 0.1 -11.7 0.25 -13.4 0.35 -14.65 -0.2 -17.4 -0.15 -18.3 0.3 -18.5 L1.25 -17.35 Q2.3 -16.3 3.5 -16.3 6.1 -16.3 8.7 -20.55 11.3 -24.85 12.7 -24.85 L13.45 -24.8 M9.85 -16.4 Q7.85 -15.8 6.45 -12.6 5.55 -10.6 3.2 -12.55 L1.8 -11.3 Q1.8 -10.8 2.25 -10.2 L2.7 -9.15 Q2.7 -7.75 1.0 -4.85 -0.7 -2.0 -0.7 -0.8 -0.7 0.8 1.15 0.8 3.6 -1.8 6.05 -3.25 L8.25 -1.25 Q8.7 -0.95 10.35 -0.6 L11.3 -0.95 11.15 -4.4 Q11.15 -5.6 14.5 -6.45 17.8 -7.3 17.8 -8.6 17.8 -9.9 16.55 -10.25 L13.75 -10.65 Q9.8 -11.25 10.0 -15.95 L9.85 -16.4 M-21.1 -3.15 L-22.5 -2.85 -22.95 -2.9 Q-23.45 -3.05 -23.45 -3.25 L-21.45 -3.3 -21.1 -3.15 M-13.6 -15.75 Q-13.95 -15.55 -13.95 -14.95 -13.95 -13.8 -10.75 -12.0 -7.5 -10.2 -5.8 -10.6 L-5.5 -10.8 Q-5.35 -10.95 -5.35 -11.6 -5.35 -12.85 -7.6 -14.3 -10.2 -16.0 -13.3 -15.95 L-13.6 -15.75 M-17.3 19.85 Q-17.4 19.15 -16.0 19.85 -16.45 20.3 -17.45 21.0 L-17.4 20.95 Q-17.1 20.85 -17.3 19.85" fill="#ff9900" fill-rule="evenodd" stroke="none"/>
    <path d="M9.85 -16.4 L10.0 -15.95 Q9.8 -11.25 13.75 -10.65 L16.55 -10.25 Q17.8 -9.9 17.8 -8.6 17.8 -7.3 14.5 -6.45 11.15 -5.6 11.15 -4.4 L11.3 -0.95 10.35 -0.6 Q8.7 -0.95 8.25 -1.25 L6.05 -3.25 Q3.6 -1.8 1.15 0.8 -0.7 0.8 -0.7 -0.8 -0.7 -2.0 1.0 -4.85 2.7 -7.75 2.7 -9.15 L2.25 -10.2 Q1.8 -10.8 1.8 -11.3 L3.2 -12.55 Q5.55 -10.6 6.45 -12.6 7.85 -15.8 9.85 -16.4 M-13.6 -15.75 L-13.3 -15.95 Q-10.2 -16.0 -7.6 -14.3 -5.35 -12.85 -5.35 -11.6 -5.35 -10.95 -5.5 -10.8 L-5.8 -10.6 Q-7.5 -10.2 -10.75 -12.0 -13.95 -13.8 -13.95 -14.95 -13.95 -15.55 -13.6 -15.75" fill="#ffc977" fill-rule="evenodd" stroke="none"/>
  </g>
</svg>
