<?xml version="1.0" encoding="UTF-8" standalone="no"?>
<svg xmlns:ffdec="https://www.free-decompiler.com/flash" xmlns:xlink="http://www.w3.org/1999/xlink" ffdec:objectType="shape" height="27.35px" width="29.15px" xmlns="http://www.w3.org/2000/svg">
  <g transform="matrix(1.0, 0.0, 0.0, 1.0, -35.45, 1.2)">
    <path d="M35.45 -1.15 L37.85 -1.2 Q39.9 -1.2 42.65 -0.05 45.75 1.2 46.4 2.8 L46.8 3.45 Q39.3 -0.5 36.95 -0.85 L35.45 -1.15 M53.7 9.8 Q54.7 10.7 56.55 13.45 57.7 15.2 59.05 15.2 L61.1 14.75 61.2 13.8 Q61.2 11.85 58.95 9.25 55.65 5.45 49.6 5.65 L48.1 4.4 Q55.2 5.15 59.05 8.4 62.1 11.0 62.1 13.95 62.1 14.9 61.4 15.55 60.55 16.4 59.1 16.1 L64.6 23.65 64.0 25.15 62.9 26.15 60.2 23.25 60.1 23.1 Q59.15 22.1 59.05 20.05 L62.85 24.65 Q63.35 24.8 63.35 23.8 L58.9 18.35 56.35 13.85 53.7 9.8" fill="#525252" fill-rule="evenodd" stroke="none"/>
    <path d="M49.6 5.65 Q55.65 5.45 58.95 9.25 61.2 11.85 61.2 13.8 L61.1 14.75 59.05 15.2 Q57.7 15.2 56.55 13.45 54.7 10.7 53.7 9.8 L49.6 5.65 M58.9 18.35 L63.35 23.8 Q63.35 24.8 62.85 24.65 L59.05 20.05 58.9 18.35" fill="#d3d3d3" fill-rule="evenodd" stroke="none"/>
  </g>
</svg>
