<?xml version="1.0" encoding="UTF-8" standalone="no"?>
<svg xmlns:ffdec="https://www.free-decompiler.com/flash" xmlns:xlink="http://www.w3.org/1999/xlink" ffdec:objectType="shape" height="32.35px" width="63.05px" xmlns="http://www.w3.org/2000/svg">
  <g transform="matrix(1.0, 0.0, 0.0, 1.0, 3.65, 8.45)">
    <path d="M0.15 23.9 Q-2.2 23.15 -3.05 20.45 -3.65 18.6 -3.65 15.35 -3.65 5.1 4.75 -1.65 13.2 -8.45 26.4 -8.45 43.3 -8.45 52.8 2.7 56.1 6.55 57.95 11.15 59.4 14.7 59.4 16.7 59.4 19.3 58.2 21.35 56.85 23.7 54.7 23.9 L56.55 21.1 Q57.9 18.55 57.9 16.6 57.9 9.25 49.95 1.9 40.45 -6.9 26.35 -6.9 11.7 -6.9 3.9 1.1 -2.2 7.4 -2.2 15.6 -2.2 21.2 0.15 23.9" fill="#525252" fill-rule="evenodd" stroke="none"/>
    <path d="M9.05 -0.9 Q2.45 3.55 3.3 7.4 L3.25 8.65 Q3.3 9.0 3.95 9.0 6.1 7.8 9.65 6.6 16.85 4.2 24.6 4.2 32.55 4.2 43.05 6.9 48.3 8.2 52.3 9.55 L53.0 9.5 53.3 9.15 Q51.5 3.55 47.85 0.4 40.65 -5.75 25.7 -5.75 16.25 -5.75 9.05 -0.9 M54.7 23.9 L0.15 23.9 Q-2.2 21.2 -2.2 15.6 -2.2 7.4 3.9 1.1 11.7 -6.9 26.35 -6.9 40.45 -6.9 49.95 1.9 57.9 9.25 57.9 16.6 57.9 18.55 56.55 21.1 L54.7 23.9" fill="#d3d3d3" fill-rule="evenodd" stroke="none"/>
    <path d="M36.95 -1.05 Q36.25 -1.05 35.75 -0.65 35.25 -0.3 35.25 0.2 35.25 0.7 35.75 1.1 36.25 1.45 36.95 1.45 L38.15 1.1 Q38.65 0.7 38.65 0.2 38.65 -0.3 38.15 -0.65 37.65 -1.05 36.95 -1.05 M28.5 -3.25 Q27.1 -4.15 25.15 -4.15 23.2 -4.15 21.8 -3.25 20.4 -2.4 20.4 -1.15 20.4 0.1 21.8 1.0 23.2 1.85 25.15 1.85 27.1 1.85 28.5 1.0 29.9 0.1 29.9 -1.15 29.9 -2.4 28.5 -3.25 M9.05 -0.9 Q16.25 -5.75 25.7 -5.75 40.65 -5.75 47.85 0.4 51.5 3.55 53.3 9.15 L53.0 9.5 52.3 9.55 Q48.3 8.2 43.05 6.9 32.55 4.2 24.6 4.2 16.85 4.2 9.65 6.6 6.1 7.8 3.95 9.0 3.3 9.0 3.25 8.65 L3.3 7.4 Q2.45 3.55 9.05 -0.9" fill="#e9e9e9" fill-rule="evenodd" stroke="none"/>
    <path d="M28.5 -3.25 Q29.9 -2.4 29.9 -1.15 29.9 0.1 28.5 1.0 27.1 1.85 25.15 1.85 23.2 1.85 21.8 1.0 20.4 0.1 20.4 -1.15 20.4 -2.4 21.8 -3.25 23.2 -4.15 25.15 -4.15 27.1 -4.15 28.5 -3.25 M36.95 -1.05 Q37.65 -1.05 38.15 -0.65 38.65 -0.3 38.65 0.2 38.65 0.7 38.15 1.1 L36.95 1.45 Q36.25 1.45 35.75 1.1 35.25 0.7 35.25 0.2 35.25 -0.3 35.75 -0.65 36.25 -1.05 36.95 -1.05" fill="#ffffff" fill-rule="evenodd" stroke="none"/>
  </g>
</svg>
