<?xml version="1.0" encoding="UTF-8" standalone="no"?>
<svg xmlns:ffdec="https://www.free-decompiler.com/flash" xmlns:xlink="http://www.w3.org/1999/xlink" ffdec:objectType="shape" height="39.1px" width="76.0px" xmlns="http://www.w3.org/2000/svg">
  <g transform="matrix(1.0, 0.0, 0.0, 1.0, 38.0, 14.0)">
    <path d="M35.75 -0.8 L34.25 -2.65 Q32.45 -5.15 29.2 -7.25 19.6 -13.25 -0.1 -13.25 -17.9 -13.25 -28.55 -7.7 -32.8 -5.5 -35.1 -2.7 -37.15 -0.25 -37.15 1.9 -37.15 12.6 -29.75 17.95 -20.85 24.3 -0.1 24.3 12.15 24.3 21.95 20.55 L24.2 19.75 Q28.1 18.3 31.95 15.15 L31.95 15.25 32.4 14.8 33.2 13.15 Q35.2 10.6 35.95 7.55 36.6 4.9 36.3 2.5 L36.3 1.6 35.75 -0.8 M38.0 1.7 Q38.0 12.0 31.95 17.3 23.1 25.1 -0.05 25.1 -21.3 25.1 -30.4 18.45 -38.0 12.9 -38.0 1.75 -38.0 -3.3 -31.35 -7.5 -22.3 -13.2 -3.9 -14.0 20.15 -13.0 30.6 -7.65 38.0 -3.85 38.0 1.7" fill="#000000" fill-rule="evenodd" stroke="none"/>
    <path d="M34.25 -2.65 Q31.1 -5.75 23.5 -8.5 12.45 -12.55 -0.1 -12.55 -13.45 -12.55 -23.4 -8.85 -29.7 -6.5 -35.05 -2.35 L-35.75 -0.95 Q-36.45 0.6 -36.5 1.75 -36.2 3.95 -33.75 6.75 -31.55 9.3 -30.1 9.9 L-29.6 10.15 -29.5 11.0 -30.85 10.25 Q-32.1 9.55 -33.75 8.1 L-35.65 6.25 Q-34.55 11.2 -33.7 13.05 L-32.4 15.0 Q-27.5 18.8 -22.55 20.45 -19.45 21.5 -14.6 22.35 -10.85 23.45 -6.25 23.45 3.2 23.65 7.65 23.3 16.6 22.15 21.95 20.55 12.15 24.3 -0.1 24.3 -20.85 24.3 -29.75 17.95 -37.15 12.6 -37.15 1.9 -37.15 -0.25 -35.1 -2.7 -32.8 -5.5 -28.55 -7.7 -17.9 -13.25 -0.1 -13.25 19.6 -13.25 29.2 -7.25 32.45 -5.15 34.25 -2.65 M36.3 2.5 Q36.6 4.9 35.95 7.55 35.2 10.6 33.2 13.15 L34.35 10.25 35.35 6.4 33.55 8.15 32.6 9.0 31.7 9.65 31.35 9.3 31.05 9.2 33.7 7.2 Q35.05 6.25 35.75 4.4 L36.3 2.5" fill="#734e1c" fill-rule="evenodd" stroke="none"/>
    <path d="M-35.05 -2.35 L-32.65 -2.35 Q-33.75 -1.4 -34.2 1.75 L-36.5 1.75 Q-36.45 0.6 -35.75 -0.95 L-35.05 -2.35 M34.05 -0.75 L35.75 -0.8 36.3 1.6 34.35 1.7 34.05 -0.75 M13.0 15.2 L13.0 15.85 18.15 15.0 22.65 13.7 24.65 13.05 Q22.65 17.1 16.35 19.75 9.6 22.05 7.65 23.3 3.2 23.65 -6.25 23.45 -10.85 23.45 -14.6 22.35 -16.95 21.6 -18.95 20.5 -24.2 17.5 -24.2 13.25 L-22.75 13.75 -14.65 15.6 -14.65 14.95 -11.35 15.45 -14.05 15.8 Q-11.85 19.7 -6.05 21.0 L1.7 21.65 Q4.5 21.65 7.3 20.75 12.15 19.3 12.1 16.05 8.6 16.3 6.95 16.15 L6.1 15.95 13.0 15.2 M-2.7 16.1 L1.75 16.1 Q1.4 16.55 -0.85 16.5 L-3.4 16.1 -2.7 16.1" fill="#d8a663" fill-rule="evenodd" stroke="none"/>
    <path d="M-34.25 2.55 Q-34.25 5.55 -32.15 7.65 -30.0 9.75 -27.0 9.75 L-30.1 9.9 Q-31.55 9.3 -33.75 6.75 -36.2 3.95 -36.5 1.75 L-34.2 1.75 -34.25 2.55 M30.65 7.3 L32.3 6.0 Q34.55 3.55 34.35 1.7 L36.3 1.6 36.3 2.5 35.75 4.4 Q35.05 6.25 33.7 7.2 L30.65 7.3 M1.75 16.1 L6.1 15.95 6.95 16.15 Q8.6 16.3 12.1 16.05 12.15 19.3 7.3 20.75 4.5 21.65 1.7 21.65 L-6.05 21.0 Q-11.85 19.7 -14.05 15.8 L-11.35 15.45 -8.0 15.7 -2.7 16.1 -3.4 16.1 -0.85 16.5 Q1.4 16.55 1.75 16.1" fill="#e2b97a" fill-rule="evenodd" stroke="none"/>
    <path d="M7.65 -8.5 Q5.55 -8.6 5.5 -9.0 7.65 -10.35 8.6 -10.4 9.85 -10.45 9.65 -8.45 L7.65 -8.5 M2.5 -3.55 Q2.5 -3.05 1.9 -2.7 L0.4 -2.4 -1.1 -2.7 Q-1.7 -3.05 -1.7 -3.55 -1.7 -4.05 -1.1 -4.35 L0.4 -4.7 1.9 -4.35 Q2.5 -4.05 2.5 -3.55 M9.0 -5.6 L8.8 -5.0 8.2 -4.8 Q7.85 -4.8 7.65 -5.0 7.4 -5.25 7.4 -5.6 7.4 -5.95 7.65 -6.15 L8.2 -6.4 8.8 -6.15 9.0 -5.6 M17.45 -5.05 Q17.45 -5.5 18.05 -5.75 L19.5 -6.1 20.95 -5.75 Q21.55 -5.5 21.55 -5.05 21.55 -4.65 20.95 -4.35 L19.5 -4.05 Q18.65 -4.05 18.05 -4.35 17.45 -4.65 17.45 -5.05 M-32.65 1.5 L-34.25 2.55 -34.2 1.75 Q-33.75 -1.4 -32.65 -2.35 -30.35 -6.0 -20.1 -8.8 -10.6 -11.45 -2.0 -11.45 14.9 -11.45 23.85 -8.3 31.15 -5.75 34.05 -0.75 L34.35 1.7 Q34.55 3.55 32.3 6.0 L33.05 3.95 Q33.75 2.3 33.75 1.4 33.75 -2.75 25.6 -6.55 16.4 -10.85 3.15 -10.85 L-7.0 -9.95 Q-6.45 -9.65 -6.45 -9.25 -6.45 -8.8 -7.0 -8.55 L-8.35 -8.25 -9.6 -8.55 Q-10.2 -8.8 -10.2 -9.25 L-9.95 -9.7 -13.95 -9.35 -13.1 -9.0 -13.0 -8.35 Q-13.8 -7.95 -14.3 -7.95 L-14.9 -8.65 -14.3 -9.3 Q-22.7 -8.45 -27.7 -3.75 L-31.1 -0.15 -32.5 1.35 -32.7 1.45 -32.65 1.5 M25.6 2.45 L25.4 3.35 Q25.15 3.65 24.9 3.6 24.6 3.55 24.45 3.15 24.2 2.75 24.25 2.3 L25.6 2.45 M17.65 3.35 L18.15 3.35 18.55 3.4 18.65 3.5 18.7 3.95 18.5 4.55 18.0 4.65 17.55 4.4 17.3 3.95 17.65 3.35 M18.05 3.25 L18.5 3.3 18.5 3.35 18.1 3.3 18.05 3.25 M10.9 7.9 L10.1 8.15 9.3 7.9 Q8.95 7.7 8.95 7.35 8.95 7.0 9.3 6.75 9.65 6.5 10.1 6.5 L10.9 6.75 11.2 7.35 10.9 7.9 M0.95 2.85 L1.25 3.35 0.95 3.95 0.25 4.15 -0.45 3.95 -0.75 3.35 -0.45 2.85 0.25 2.6 0.95 2.85 M-23.65 -5.25 L-22.7 -5.0 -24.5 -5.15 -23.65 -5.25 M-13.35 -3.65 L-13.1 -3.1 Q-13.1 -2.8 -13.35 -2.6 L-13.9 -2.35 Q-14.2 -2.35 -14.4 -2.6 L-14.65 -3.1 -14.4 -3.65 -13.9 -3.85 -13.35 -3.65 M-8.0 -6.75 L-7.6 -6.0 -7.9 -5.5 Q-8.35 -5.05 -9.25 -4.8 -9.75 -5.0 -9.75 -5.7 -9.75 -6.1 -9.0 -6.6 L-8.25 -7.0 -8.0 -6.75 M-11.6 9.4 Q-11.3 9.1 -10.9 9.1 -10.45 9.1 -10.15 9.4 -9.85 9.65 -9.85 10.1 -9.85 10.5 -10.15 10.85 L-10.9 11.1 -11.6 10.85 -11.9 10.1 -11.6 9.4 M-24.8 2.3 L-24.45 2.2 -23.75 2.25 -23.4 3.1 -24.15 3.55 -25.15 2.8 -24.8 2.3" fill="#ccae91" fill-rule="evenodd" stroke="none"/>
    <path d="M34.25 -2.65 L35.75 -0.8 34.05 -0.75 Q31.15 -5.75 23.85 -8.3 14.9 -11.45 -2.0 -11.45 -10.6 -11.45 -20.1 -8.8 -30.35 -6.0 -32.65 -2.35 L-35.05 -2.35 Q-29.7 -6.5 -23.4 -8.85 -13.45 -12.55 -0.1 -12.55 12.45 -12.55 23.5 -8.5 31.1 -5.75 34.25 -2.65 M31.95 15.15 Q28.1 18.3 24.2 19.75 L21.95 20.55 Q16.6 22.15 7.65 23.3 9.6 22.05 16.35 19.75 22.65 17.1 24.65 13.05 26.8 12.3 31.7 9.65 L32.6 9.0 31.95 15.15 M13.0 15.2 L21.0 13.3 22.55 13.0 22.65 13.7 18.15 15.0 13.0 15.85 13.0 15.2 M-14.65 14.95 L-14.65 15.6 -22.75 13.75 -23.05 12.9 -14.65 14.95 M-24.2 13.25 Q-24.2 17.5 -18.95 20.5 -16.95 21.6 -14.6 22.35 -19.45 21.5 -22.55 20.45 -27.5 18.8 -32.4 15.0 -32.6 13.95 -31.75 12.0 L-30.85 10.25 -29.5 11.0 -24.2 13.25" fill="#cd8b35" fill-rule="evenodd" stroke="none"/>
    <path d="M2.75 -7.95 L0.7 -7.65 -1.3 -7.95 Q-2.15 -8.2 -2.15 -8.6 -2.15 -9.0 -1.3 -9.25 L0.7 -9.55 2.75 -9.25 Q3.55 -9.0 3.55 -8.6 3.55 -8.2 2.75 -7.95 M3.5 -4.65 Q3.1 -4.65 2.85 -4.85 2.55 -5.05 2.55 -5.35 L2.85 -5.85 3.5 -6.05 4.15 -5.85 4.45 -5.35 4.15 -4.85 3.5 -4.65 M0.8 -1.1 L0.55 -0.6 -0.15 -0.45 -0.85 -0.6 -1.15 -1.1 -0.85 -1.55 -0.15 -1.75 0.55 -1.55 0.8 -1.1 M8.45 -1.4 Q7.95 -1.65 7.95 -2.1 7.95 -2.5 8.45 -2.8 L9.6 -3.05 10.75 -2.8 11.25 -2.1 Q11.25 -1.65 10.75 -1.4 10.25 -1.1 9.6 -1.1 8.95 -1.1 8.45 -1.4 M11.95 -7.5 Q12.45 -7.85 13.25 -7.85 14.0 -7.85 14.55 -7.5 15.1 -7.15 15.1 -6.65 15.1 -6.2 14.55 -5.85 14.0 -5.5 13.25 -5.5 12.45 -5.5 11.95 -5.85 11.4 -6.2 11.4 -6.65 11.4 -7.15 11.95 -7.5 M14.8 -4.15 L15.0 -3.65 14.8 -3.05 14.25 -2.85 13.7 -3.05 13.5 -3.65 13.7 -4.15 Q13.95 -4.4 14.25 -4.4 L14.8 -4.15 M18.6 -1.55 Q18.6 -1.9 18.95 -2.1 L19.85 -2.35 20.75 -2.1 21.1 -1.55 Q21.1 -1.2 20.75 -0.95 L19.85 -0.7 18.95 -0.95 Q18.6 -1.2 18.6 -1.55 M23.65 -5.0 L25.15 -5.25 26.65 -5.0 Q27.25 -4.7 27.25 -4.35 27.25 -3.95 26.65 -3.65 L25.15 -3.4 23.65 -3.65 Q23.0 -3.95 23.0 -4.35 23.0 -4.7 23.65 -5.0 M-32.5 1.35 Q-29.45 -0.5 -23.95 -0.6 L-14.3 -0.25 -11.85 -1.15 -10.55 -0.9 -7.35 -0.35 2.3 0.45 1.75 0.35 8.0 -0.55 10.55 0.0 12.7 0.6 Q12.7 0.95 12.45 0.75 12.2 0.5 12.2 0.85 12.2 1.85 13.0 1.9 15.0 2.2 15.25 1.5 L15.05 0.5 Q15.05 0.05 16.95 0.0 L19.3 0.05 21.05 0.35 30.1 0.7 28.65 0.35 28.75 -0.15 Q28.95 -0.6 29.35 -0.6 L30.55 -0.45 30.75 -0.1 30.75 0.7 32.85 0.7 Q33.3 5.75 22.3 9.55 11.7 13.25 -1.55 13.25 -14.15 13.25 -23.6 8.95 -31.4 5.35 -32.65 1.5 L-32.7 1.45 -32.5 1.35 M25.6 2.45 L24.25 2.3 Q22.35 3.45 22.95 3.9 L25.85 3.4 26.4 3.05 25.85 2.55 25.6 2.45 M21.75 5.55 Q21.4 5.55 21.2 5.8 20.95 6.0 20.95 6.3 20.95 6.65 21.2 6.85 21.4 7.1 21.75 7.1 L22.35 6.85 22.6 6.3 22.35 5.8 Q22.1 5.55 21.75 5.55 M17.65 3.35 L16.0 3.5 Q16.5 5.3 18.7 5.3 19.85 5.35 18.7 3.95 L18.65 3.5 18.55 3.4 18.15 3.35 17.65 3.35 M18.1 3.3 L18.5 3.35 18.5 3.3 18.05 3.25 17.85 3.25 18.1 3.3 M12.65 7.35 Q12.65 6.8 12.0 6.45 11.3 6.05 10.35 6.05 L8.7 6.45 Q8.0 6.8 8.0 7.35 8.0 7.85 8.7 8.25 L10.35 8.6 12.0 8.25 Q12.65 7.85 12.65 7.35 M13.2 9.0 L13.85 9.2 14.5 9.0 14.75 8.5 14.5 8.05 13.85 7.8 Q13.45 7.8 13.2 8.05 12.9 8.25 12.9 8.5 L13.2 9.0 M12.2 3.65 L11.95 3.15 11.35 2.95 Q11.0 2.95 10.75 3.15 10.45 3.35 10.45 3.65 L10.75 4.15 Q11.0 4.35 11.35 4.35 L11.95 4.15 12.2 3.65 M6.0 2.8 L5.6 2.35 4.65 2.15 3.7 2.35 Q3.35 2.55 3.35 2.8 L3.7 3.25 4.65 3.4 5.6 3.25 6.0 2.8 M6.15 8.65 L5.95 9.1 6.15 9.6 Q6.35 9.8 6.6 9.8 L7.1 9.6 7.3 9.1 7.1 8.65 6.6 8.45 Q6.35 8.45 6.15 8.65 M1.35 8.95 Q0.9 8.95 0.6 9.2 0.3 9.4 0.3 9.7 L0.6 10.25 1.35 10.45 2.05 10.25 2.4 9.7 2.05 9.2 1.35 8.95 M1.25 5.1 Q1.8 4.55 1.8 3.7 1.8 2.9 1.25 2.35 0.65 1.75 -0.15 1.75 -1.0 1.75 -1.55 2.35 -2.15 2.9 -2.15 3.7 -2.15 4.55 -1.55 5.1 -1.0 5.7 -0.15 5.7 0.65 5.7 1.25 5.1 M2.2 5.3 Q1.85 5.5 1.85 5.8 1.85 6.15 2.2 6.35 L3.05 6.55 3.9 6.35 4.25 5.8 Q4.25 5.5 3.9 5.3 L3.05 5.1 2.2 5.3 M-26.25 -1.5 L-27.0 -1.3 -27.7 -1.5 -28.0 -1.95 -27.7 -2.35 -27.0 -2.6 -26.25 -2.35 -25.95 -1.95 Q-25.95 -1.7 -26.25 -1.5 M-23.25 -2.95 L-22.7 -3.15 -22.1 -2.95 -21.85 -2.6 -22.1 -2.25 Q-22.35 -2.1 -22.7 -2.1 L-23.25 -2.25 -23.5 -2.6 -23.25 -2.95 M-12.1 -7.3 Q-11.8 -7.3 -11.6 -7.1 L-11.35 -6.55 Q-11.35 -6.25 -11.6 -6.05 -11.8 -5.85 -12.1 -5.85 L-12.65 -6.05 Q-12.85 -6.25 -12.85 -6.55 L-12.65 -7.1 -12.1 -7.3 M-16.25 -6.45 Q-15.45 -6.15 -15.45 -5.75 -15.45 -5.4 -16.25 -5.1 L-18.25 -4.8 -20.25 -5.1 Q-21.05 -5.4 -21.05 -5.75 -21.05 -6.15 -20.25 -6.45 L-18.25 -6.7 -16.25 -6.45 M-18.95 -2.35 L-18.5 -2.8 -17.5 -3.0 -16.5 -2.8 -16.05 -2.35 Q-16.05 -2.05 -16.5 -1.85 L-17.5 -1.65 -18.5 -1.85 Q-18.95 -2.05 -18.95 -2.35 M-3.95 -6.5 L-4.15 -6.15 Q-4.35 -6.0 -4.7 -6.0 L-5.2 -6.15 -5.4 -6.5 -5.2 -6.85 -4.7 -7.0 -4.15 -6.85 -3.95 -6.5 M-5.2 -3.65 Q-4.4 -3.35 -4.4 -2.95 -4.4 -2.5 -5.2 -2.25 L-7.15 -1.95 -9.05 -2.25 Q-9.85 -2.5 -9.85 -2.95 -9.85 -3.35 -9.05 -3.65 L-7.15 -3.9 -5.2 -3.65 M-16.4 7.75 Q-16.75 7.75 -16.95 8.0 L-17.2 8.55 -16.95 9.15 Q-16.75 9.35 -16.4 9.35 L-15.8 9.15 -15.55 8.55 Q-15.55 8.2 -15.8 8.0 -16.05 7.75 -16.4 7.75 M-18.65 6.15 L-18.95 5.75 -19.6 5.6 -20.25 5.75 -20.55 6.15 -20.25 6.55 -19.6 6.7 -18.95 6.55 -18.65 6.15 M-16.25 0.85 Q-16.25 0.5 -16.7 0.3 L-17.8 0.05 -18.85 0.3 Q-19.3 0.5 -19.3 0.85 L-18.85 1.45 -17.8 1.65 -16.7 1.45 -16.25 0.85 M-12.7 4.95 Q-13.2 4.95 -13.5 5.2 -13.85 5.4 -13.85 5.7 L-13.5 6.3 -12.7 6.5 -11.85 6.3 Q-11.55 6.05 -11.55 5.7 -11.55 5.4 -11.85 5.2 -12.2 4.95 -12.7 4.95 M-12.6 3.0 L-11.95 2.85 -11.7 2.45 -11.95 2.1 -12.6 1.95 -13.25 2.1 -13.5 2.45 -13.25 2.85 -12.6 3.0 M-4.95 8.95 L-3.7 8.5 -4.35 8.1 -4.95 8.05 -5.55 8.65 -4.95 8.95 M-8.9 10.15 Q-8.9 9.65 -9.6 9.3 -10.3 8.95 -11.25 8.95 -12.2 8.95 -12.85 9.3 -13.55 9.65 -13.55 10.15 L-12.85 10.95 -11.25 11.3 -9.6 10.95 Q-8.9 10.6 -8.9 10.15 M-4.35 3.25 Q-3.9 3.0 -3.9 2.65 -3.9 2.3 -4.35 2.1 L-5.55 1.85 -6.75 2.1 Q-7.25 2.3 -7.25 2.65 L-6.75 3.25 -5.55 3.45 -4.35 3.25 M-23.75 2.25 L-24.45 2.2 -24.8 2.3 -27.05 2.3 -27.1 3.25 Q-25.5 4.3 -24.65 4.3 -22.75 4.0 -22.0 2.85 -22.35 2.25 -23.75 2.25 M-28.8 1.2 Q-29.2 0.9 -29.8 0.9 -30.4 0.9 -30.85 1.2 -31.25 1.5 -31.25 1.9 L-30.85 2.65 -29.8 2.9 -28.8 2.65 -28.4 1.9 Q-28.4 1.5 -28.8 1.2 M-24.25 6.15 L-24.8 5.95 -25.3 6.15 -25.5 6.65 -25.3 7.2 Q-25.1 7.4 -24.8 7.4 L-24.25 7.2 -24.05 6.65 -24.25 6.15" fill="#e4d3c3" fill-rule="evenodd" stroke="none"/>
    <path d="M7.65 -8.5 L9.65 -8.45 Q9.85 -10.45 8.6 -10.4 7.65 -10.35 5.5 -9.0 5.55 -8.6 7.65 -8.5 M3.5 -4.65 L4.15 -4.85 4.45 -5.35 4.15 -5.85 3.5 -6.05 2.85 -5.85 2.55 -5.35 Q2.55 -5.05 2.85 -4.85 3.1 -4.65 3.5 -4.65 M2.75 -7.95 Q3.55 -8.2 3.55 -8.6 3.55 -9.0 2.75 -9.25 L0.7 -9.55 -1.3 -9.25 Q-2.15 -9.0 -2.15 -8.6 -2.15 -8.2 -1.3 -7.95 L0.7 -7.65 2.75 -7.95 M2.5 -3.55 Q2.5 -4.05 1.9 -4.35 L0.4 -4.7 -1.1 -4.35 Q-1.7 -4.05 -1.7 -3.55 -1.7 -3.05 -1.1 -2.7 L0.4 -2.4 1.9 -2.7 Q2.5 -3.05 2.5 -3.55 M0.8 -1.1 L0.55 -1.55 -0.15 -1.75 -0.85 -1.55 -1.15 -1.1 -0.85 -0.6 -0.15 -0.45 0.55 -0.6 0.8 -1.1 M9.0 -5.6 L8.8 -6.15 8.2 -6.4 7.65 -6.15 Q7.4 -5.95 7.4 -5.6 7.4 -5.25 7.65 -5.0 7.85 -4.8 8.2 -4.8 L8.8 -5.0 9.0 -5.6 M14.8 -4.15 L14.25 -4.4 Q13.95 -4.4 13.7 -4.15 L13.5 -3.65 13.7 -3.05 14.25 -2.85 14.8 -3.05 15.0 -3.65 14.8 -4.15 M11.95 -7.5 Q11.4 -7.15 11.4 -6.65 11.4 -6.2 11.95 -5.85 12.45 -5.5 13.25 -5.5 14.0 -5.5 14.55 -5.85 15.1 -6.2 15.1 -6.65 15.1 -7.15 14.55 -7.5 14.0 -7.85 13.25 -7.85 12.45 -7.85 11.95 -7.5 M8.45 -1.4 Q8.95 -1.1 9.6 -1.1 10.25 -1.1 10.75 -1.4 11.25 -1.65 11.25 -2.1 L10.75 -2.8 9.6 -3.05 8.45 -2.8 Q7.95 -2.5 7.95 -2.1 7.95 -1.65 8.45 -1.4 M17.45 -5.05 Q17.45 -4.65 18.05 -4.35 18.65 -4.05 19.5 -4.05 L20.95 -4.35 Q21.55 -4.65 21.55 -5.05 21.55 -5.5 20.95 -5.75 L19.5 -6.1 18.05 -5.75 Q17.45 -5.5 17.45 -5.05 M-32.65 1.5 Q-31.4 5.35 -23.6 8.95 -14.15 13.25 -1.55 13.25 11.7 13.25 22.3 9.55 33.3 5.75 32.85 0.7 L30.75 0.7 30.75 -0.1 30.55 -0.45 29.35 -0.6 Q28.95 -0.6 28.75 -0.15 L28.65 0.35 30.1 0.7 21.05 0.35 19.3 0.05 16.95 0.0 Q15.05 0.05 15.05 0.5 L15.25 1.5 Q15.0 2.2 13.0 1.9 12.2 1.85 12.2 0.85 12.2 0.5 12.45 0.75 12.7 0.95 12.7 0.6 L10.55 0.0 8.0 -0.55 1.75 0.35 2.3 0.45 -7.35 -0.35 -10.55 -0.9 -11.85 -1.15 -14.3 -0.25 -23.95 -0.6 Q-29.45 -0.5 -32.5 1.35 L-31.1 -0.15 -27.7 -3.75 Q-22.7 -8.45 -14.3 -9.3 L-14.9 -8.65 -14.3 -7.95 Q-13.8 -7.95 -13.0 -8.35 L-13.1 -9.0 -13.95 -9.35 -9.95 -9.7 -10.2 -9.25 Q-10.2 -8.8 -9.6 -8.55 L-8.35 -8.25 -7.0 -8.55 Q-6.45 -8.8 -6.45 -9.25 -6.45 -9.65 -7.0 -9.95 L3.15 -10.85 Q16.4 -10.85 25.6 -6.55 33.75 -2.75 33.75 1.4 33.75 2.3 33.05 3.95 L32.3 6.0 30.65 7.3 Q27.25 10.1 20.1 12.0 11.35 14.2 -0.4 14.2 L-13.45 12.6 Q-23.85 10.95 -27.0 9.75 -30.0 9.75 -32.15 7.65 -34.25 5.55 -34.25 2.55 L-32.65 1.5 M23.65 -5.0 Q23.0 -4.7 23.0 -4.35 23.0 -3.95 23.65 -3.65 L25.15 -3.4 26.65 -3.65 Q27.25 -3.95 27.25 -4.35 27.25 -4.7 26.65 -5.0 L25.15 -5.25 23.65 -5.0 M18.6 -1.55 Q18.6 -1.2 18.95 -0.95 L19.85 -0.7 20.75 -0.95 Q21.1 -1.2 21.1 -1.55 L20.75 -2.1 19.85 -2.35 18.95 -2.1 Q18.6 -1.9 18.6 -1.55 M24.25 2.3 Q24.2 2.75 24.45 3.15 24.6 3.55 24.9 3.6 25.15 3.65 25.4 3.35 L25.6 2.45 25.85 2.55 26.4 3.05 25.85 3.4 22.95 3.9 Q22.35 3.45 24.25 2.3 M21.75 5.55 Q22.1 5.55 22.35 5.8 L22.6 6.3 22.35 6.85 21.75 7.1 Q21.4 7.1 21.2 6.85 20.95 6.65 20.95 6.3 20.95 6.0 21.2 5.8 21.4 5.55 21.75 5.55 M18.7 3.95 Q19.85 5.35 18.7 5.3 16.5 5.3 16.0 3.5 L17.65 3.35 17.3 3.95 17.55 4.4 18.0 4.65 18.5 4.55 18.7 3.95 M18.05 3.25 L18.1 3.3 17.85 3.25 18.05 3.25 M12.2 3.65 L11.95 4.15 11.35 4.35 Q11.0 4.35 10.75 4.15 L10.45 3.65 Q10.45 3.35 10.75 3.15 11.0 2.95 11.35 2.95 L11.95 3.15 12.2 3.65 M13.2 9.0 L12.9 8.5 Q12.9 8.25 13.2 8.05 13.45 7.8 13.85 7.8 L14.5 8.05 14.75 8.5 14.5 9.0 13.85 9.2 13.2 9.0 M12.65 7.35 Q12.65 7.85 12.0 8.25 L10.35 8.6 8.7 8.25 Q8.0 7.85 8.0 7.35 8.0 6.8 8.7 6.45 L10.35 6.05 Q11.3 6.05 12.0 6.45 12.65 6.8 12.65 7.35 M10.9 7.9 L11.2 7.35 10.9 6.75 10.1 6.5 Q9.65 6.5 9.3 6.75 8.95 7.0 8.95 7.35 8.95 7.7 9.3 7.9 L10.1 8.15 10.9 7.9 M6.0 2.8 L5.6 3.25 4.65 3.4 3.7 3.25 3.35 2.8 Q3.35 2.55 3.7 2.35 L4.65 2.15 5.6 2.35 6.0 2.8 M0.95 2.85 L0.25 2.6 -0.45 2.85 -0.75 3.35 -0.45 3.95 0.25 4.15 0.95 3.95 1.25 3.35 0.95 2.85 M2.2 5.3 L3.05 5.1 3.9 5.3 Q4.25 5.5 4.25 5.8 L3.9 6.35 3.05 6.55 2.2 6.35 Q1.85 6.15 1.85 5.8 1.85 5.5 2.2 5.3 M1.25 5.1 Q0.65 5.7 -0.15 5.7 -1.0 5.7 -1.55 5.1 -2.15 4.55 -2.15 3.7 -2.15 2.9 -1.55 2.35 -1.0 1.75 -0.15 1.75 0.65 1.75 1.25 2.35 1.8 2.9 1.8 3.7 1.8 4.55 1.25 5.1 M1.35 8.95 L2.05 9.2 2.4 9.7 2.05 10.25 1.35 10.45 0.6 10.25 0.3 9.7 Q0.3 9.4 0.6 9.2 0.9 8.95 1.35 8.95 M6.15 8.65 Q6.35 8.45 6.6 8.45 L7.1 8.65 7.3 9.1 7.1 9.6 6.6 9.8 Q6.35 9.8 6.15 9.6 L5.95 9.1 6.15 8.65 M-26.25 -1.5 Q-25.95 -1.7 -25.95 -1.95 L-26.25 -2.35 -27.0 -2.6 -27.7 -2.35 -28.0 -1.95 -27.7 -1.5 -27.0 -1.3 -26.25 -1.5 M-23.65 -5.25 L-24.5 -5.15 -22.7 -5.0 -23.65 -5.25 M-18.95 -2.35 Q-18.95 -2.05 -18.5 -1.85 L-17.5 -1.65 -16.5 -1.85 Q-16.05 -2.05 -16.05 -2.35 L-16.5 -2.8 -17.5 -3.0 -18.5 -2.8 -18.95 -2.35 M-16.25 -6.45 L-18.25 -6.7 -20.25 -6.45 Q-21.05 -6.15 -21.05 -5.75 -21.05 -5.4 -20.25 -5.1 L-18.25 -4.8 -16.25 -5.1 Q-15.45 -5.4 -15.45 -5.75 -15.45 -6.15 -16.25 -6.45 M-12.1 -7.3 L-12.65 -7.1 -12.85 -6.55 Q-12.85 -6.25 -12.65 -6.05 L-12.1 -5.85 Q-11.8 -5.85 -11.6 -6.05 -11.35 -6.25 -11.35 -6.55 L-11.6 -7.1 Q-11.8 -7.3 -12.1 -7.3 M-23.25 -2.95 L-23.5 -2.6 -23.25 -2.25 -22.7 -2.1 Q-22.35 -2.1 -22.1 -2.25 L-21.85 -2.6 -22.1 -2.95 -22.7 -3.15 -23.25 -2.95 M-13.35 -3.65 L-13.9 -3.85 -14.4 -3.65 -14.65 -3.1 -14.4 -2.6 Q-14.2 -2.35 -13.9 -2.35 L-13.35 -2.6 Q-13.1 -2.8 -13.1 -3.1 L-13.35 -3.65 M-3.95 -6.5 L-4.15 -6.85 -4.7 -7.0 -5.2 -6.85 -5.4 -6.5 -5.2 -6.15 -4.7 -6.0 Q-4.35 -6.0 -4.15 -6.15 L-3.95 -6.5 M-8.0 -6.75 L-8.25 -7.0 -9.0 -6.6 Q-9.75 -6.1 -9.75 -5.7 -9.75 -5.0 -9.25 -4.8 -8.35 -5.05 -7.9 -5.5 L-7.6 -6.0 -8.0 -6.75 M-5.2 -3.65 L-7.15 -3.9 -9.05 -3.65 Q-9.85 -3.35 -9.85 -2.95 -9.85 -2.5 -9.05 -2.25 L-7.15 -1.95 -5.2 -2.25 Q-4.4 -2.5 -4.4 -2.95 -4.4 -3.35 -5.2 -3.65 M-4.35 3.25 L-5.55 3.45 -6.75 3.25 -7.25 2.65 Q-7.25 2.3 -6.75 2.1 L-5.55 1.85 -4.35 2.1 Q-3.9 2.3 -3.9 2.65 -3.9 3.0 -4.35 3.25 M-8.9 10.15 Q-8.9 10.6 -9.6 10.95 L-11.25 11.3 -12.85 10.95 -13.55 10.15 Q-13.55 9.65 -12.85 9.3 -12.2 8.95 -11.25 8.95 -10.3 8.95 -9.6 9.3 -8.9 9.65 -8.9 10.15 M-4.95 8.95 L-5.55 8.65 -4.95 8.05 -4.35 8.1 -3.7 8.5 -4.95 8.95 M-12.6 3.0 L-13.25 2.85 -13.5 2.45 -13.25 2.1 -12.6 1.95 -11.95 2.1 -11.7 2.45 -11.95 2.85 -12.6 3.0 M-12.7 4.95 Q-12.2 4.95 -11.85 5.2 -11.55 5.4 -11.55 5.7 -11.55 6.05 -11.85 6.3 L-12.7 6.5 -13.5 6.3 -13.85 5.7 Q-13.85 5.4 -13.5 5.2 -13.2 4.95 -12.7 4.95 M-16.25 0.85 L-16.7 1.45 -17.8 1.65 -18.85 1.45 -19.3 0.85 Q-19.3 0.5 -18.85 0.3 L-17.8 0.05 -16.7 0.3 Q-16.25 0.5 -16.25 0.85 M-18.65 6.15 L-18.95 6.55 -19.6 6.7 -20.25 6.55 -20.55 6.15 -20.25 5.75 -19.6 5.6 -18.95 5.75 -18.65 6.15 M-16.4 7.75 Q-16.05 7.75 -15.8 8.0 -15.55 8.2 -15.55 8.55 L-15.8 9.15 -16.4 9.35 Q-16.75 9.35 -16.95 9.15 L-17.2 8.55 -16.95 8.0 Q-16.75 7.75 -16.4 7.75 M-11.6 9.4 L-11.9 10.1 -11.6 10.85 -10.9 11.1 -10.15 10.85 Q-9.85 10.5 -9.85 10.1 -9.85 9.65 -10.15 9.4 -10.45 9.1 -10.9 9.1 -11.3 9.1 -11.6 9.4 M-24.8 2.3 L-25.15 2.8 -24.15 3.55 -23.4 3.1 -23.75 2.25 Q-22.35 2.25 -22.0 2.85 -22.75 4.0 -24.65 4.3 -25.5 4.3 -27.1 3.25 L-27.05 2.3 -24.8 2.3 M-24.25 6.15 L-24.05 6.65 -24.25 7.2 -24.8 7.4 Q-25.1 7.4 -25.3 7.2 L-25.5 6.65 -25.3 6.15 -24.8 5.95 -24.25 6.15 M-28.8 1.2 Q-28.4 1.5 -28.4 1.9 L-28.8 2.65 -29.8 2.9 -30.85 2.65 -31.25 1.9 Q-31.25 1.5 -30.85 1.2 -30.4 0.9 -29.8 0.9 -29.2 0.9 -28.8 1.2" fill="#dac2ad" fill-rule="evenodd" stroke="none"/>
    <path d="M33.2 13.15 L32.4 14.8 31.95 15.25 31.95 15.15 32.6 9.0 33.55 8.15 35.35 6.4 34.35 10.25 33.2 13.15 M31.05 9.2 L31.35 9.3 31.7 9.65 Q26.8 12.3 24.65 13.05 L22.65 13.7 22.55 13.0 31.05 9.2 M-22.75 13.75 L-24.2 13.25 -29.5 11.0 -29.6 10.15 -23.05 12.9 -22.75 13.75 M-30.85 10.25 L-31.75 12.0 Q-32.6 13.95 -32.4 15.0 L-33.7 13.05 Q-34.55 11.2 -35.65 6.25 L-33.75 8.1 Q-32.1 9.55 -30.85 10.25" fill="#ac752b" fill-rule="evenodd" stroke="none"/>
    <path d="M-27.0 9.75 Q-23.85 10.95 -13.45 12.6 L-0.4 14.2 Q11.35 14.2 20.1 12.0 27.25 10.1 30.65 7.3 L33.7 7.2 31.05 9.2 22.55 13.0 21.0 13.3 13.0 15.2 6.1 15.95 1.75 16.1 -2.7 16.1 -8.0 15.7 -11.35 15.45 -14.65 14.95 -23.05 12.9 -29.6 10.15 -30.1 9.9 -27.0 9.75" fill="#eaca8d" fill-rule="evenodd" stroke="none"/>
  </g>
</svg>
