<?xml version="1.0" encoding="UTF-8" standalone="no"?>
<svg xmlns:ffdec="https://www.free-decompiler.com/flash" xmlns:xlink="http://www.w3.org/1999/xlink" ffdec:objectType="shape" height="169.7px" width="67.9px" xmlns="http://www.w3.org/2000/svg">
  <g transform="matrix(1.0, 0.0, 0.0, 1.0, 30.15, 131.7)">
    <path d="M10.2 -125.7 Q18.35 -113.4 21.55 -99.05 24.3 -86.6 24.95 -64.2 L24.1 -63.4 21.1 -65.4 20.85 -71.2 21.05 -79.8 Q21.05 -88.8 20.4 -93.95 19.95 -97.5 19.65 -97.5 L19.15 -101.1 Q18.25 -105.55 16.35 -109.8 L12.5 -118.4 Q12.5 -119.35 11.4 -121.0 L9.85 -123.15 Q10.65 -124.25 10.2 -125.7 M29.95 -38.8 L30.65 -36.7 Q30.65 -36.25 30.1 -35.95 L28.8 -35.65 28.55 -36.2 29.95 -38.8 M-20.95 -31.25 Q-19.55 -36.95 -17.9 -55.8 L-18.25 -59.6 Q-18.6 -62.8 -18.9 -64.3 L-16.75 -64.75 Q-16.3 -63.3 -15.55 -59.4 -14.8 -55.65 -14.8 -54.95 -14.8 -50.8 -16.95 -39.1 -19.0 -28.0 -19.3 -28.0 -19.6 -28.0 -18.6 -26.1 L-17.2 -23.75 Q-18.75 -23.75 -19.85 -25.95 -20.95 -28.15 -20.95 -31.25 M-20.7 -69.85 Q-24.0 -77.3 -28.05 -85.45 -30.35 -90.65 -30.15 -94.8 L-27.8 -96.2 Q-27.7 -89.0 -26.6 -85.4 -25.7 -82.35 -22.05 -75.8 L-19.0 -70.05 -20.7 -69.85 M-29.1 -101.65 Q-27.1 -108.5 -24.8 -113.0 -20.8 -120.9 -14.8 -126.0 L-15.1 -125.5 -15.2 -124.65 -15.05 -123.8 -14.95 -123.7 Q-16.3 -122.45 -18.8 -117.95 -20.55 -114.75 -21.25 -114.15 L-21.45 -114.6 Q-21.75 -115.05 -21.55 -115.15 -22.1 -114.9 -22.8 -113.35 L-24.85 -107.95 -25.1 -107.45 -26.7 -102.6 -28.5 -102.2 -29.1 -101.65 M21.8 -57.65 Q23.55 -55.5 24.8 -52.35 26.0 -49.35 26.0 -47.35 26.0 -45.55 25.4 -43.35 L21.8 -57.65" fill="#1b434b" fill-rule="evenodd" stroke="none"/>
    <path d="M-14.95 -123.7 L-12.45 -122.0 Q-10.65 -120.95 -10.3 -120.85 -12.0 -119.85 -17.3 -114.2 L-22.7 -108.1 -24.85 -107.95 -22.8 -113.35 Q-22.1 -114.9 -21.55 -115.15 -21.75 -115.05 -21.45 -114.6 L-21.25 -114.15 Q-20.55 -114.75 -18.8 -117.95 -16.3 -122.45 -14.95 -123.7 M5.45 -120.8 Q7.95 -121.35 9.85 -123.15 L11.4 -121.0 Q12.5 -119.35 12.5 -118.4 L16.35 -109.8 Q18.25 -105.55 19.15 -101.1 L19.65 -97.5 Q19.95 -97.5 20.4 -93.95 21.05 -88.8 21.05 -79.8 L20.85 -71.2 17.2 -72.3 17.9 -79.2 Q18.6 -85.75 18.6 -90.7 18.6 -99.25 14.05 -108.5 10.25 -116.3 5.45 -120.8 M20.85 -71.2 L21.1 -65.4 19.55 -66.15 20.85 -71.2 M-25.05 -104.2 L-25.05 -104.15 -25.65 -102.8 -26.7 -102.6 -25.1 -107.45 -25.05 -104.2 M23.4 -39.15 Q22.7 -42.5 19.15 -52.1 16.1 -60.35 16.35 -61.05 L19.0 -59.5 21.8 -57.65 25.4 -43.35 23.4 -39.15 M28.1 -35.6 L28.55 -36.2 28.8 -35.65 28.1 -35.6 M14.2 -23.1 Q14.85 -20.9 16.0 -20.9 L19.0 -21.1 11.95 -20.3 11.05 -20.55 9.65 -20.65 9.55 -21.65 11.1 -22.75 14.2 -23.1 M2.55 -22.3 L4.05 -21.35 Q4.8 -20.8 4.85 -20.15 L3.05 -20.15 3.2 -20.4 Q2.75 -20.7 3.0 -21.45 L-3.75 -22.0 2.55 -22.3 M-8.55 -22.65 L-11.0 -22.8 Q-11.0 -22.2 -11.35 -21.9 -13.0 -22.35 -13.0 -23.25 -13.0 -23.85 -16.1 -23.85 L-16.8 -23.7 -17.2 -23.75 -18.6 -26.1 Q-19.6 -28.0 -19.3 -28.0 -19.0 -28.0 -16.95 -39.1 -14.8 -50.8 -14.8 -54.95 -14.8 -55.65 -15.55 -59.4 -16.3 -63.3 -16.75 -64.75 L-15.15 -65.25 -12.7 -60.75 -11.95 -61.05 -12.7 -54.05 -12.75 -54.0 -13.0 -52.6 -13.1 -51.2 -14.65 -42.2 Q-15.3 -38.15 -15.3 -34.5 -15.3 -31.05 -13.65 -27.8 -11.8 -24.1 -8.55 -22.65 M20.9 -22.6 L23.45 -22.75 Q23.5 -21.95 19.95 -21.3 L20.25 -21.45 20.9 -22.6 M-22.05 -75.8 Q-21.15 -75.3 -17.45 -74.1 -13.8 -72.95 -13.15 -72.9 -14.1 -71.75 -16.5 -70.8 L-19.0 -70.05 -22.05 -75.8" fill="#255f6b" fill-rule="evenodd" stroke="none"/>
    <path d="M-10.3 -120.85 L-5.95 -120.1 -2.45 -119.65 1.05 -120.1 5.45 -120.8 Q10.25 -116.3 14.05 -108.5 18.6 -99.25 18.6 -90.7 18.6 -85.75 17.9 -79.2 L17.2 -72.3 15.2 -72.7 13.9 -67.65 11.55 -67.8 11.0 -70.6 10.55 -73.7 13.2 -76.85 Q16.0 -80.5 16.45 -83.4 L13.45 -84.4 Q10.8 -85.15 8.15 -87.2 8.1 -102.3 4.8 -108.05 2.7 -111.75 -1.15 -111.75 -9.1 -111.75 -12.45 -109.9 -16.3 -107.8 -16.55 -102.3 L-19.35 -102.9 -19.4 -107.95 -22.7 -108.1 -17.3 -114.2 Q-12.0 -119.85 -10.3 -120.85 M-3.6 -76.85 L5.15 -80.65 Q6.15 -80.65 5.85 -80.4 L5.9 -79.65 Q4.85 -78.35 2.25 -76.5 0.45 -75.2 0.45 -74.1 0.45 -72.65 1.6 -72.45 L4.95 -72.15 2.95 -71.5 3.7 -68.3 Q1.9 -67.55 0.0 -67.55 L-3.25 -67.7 -3.85 -67.65 -3.9 -67.65 Q-5.1 -67.15 -6.45 -65.9 L-8.0 -64.0 -10.1 -67.75 -7.65 -70.3 -6.95 -71.05 -2.6 -68.4 0.4 -73.2 -4.0 -75.85 -3.6 -76.85 M-25.05 -104.15 L-25.05 -102.9 -25.65 -102.8 -25.05 -104.15 M-27.8 -96.2 L-24.5 -97.2 -25.05 -91.5 Q-25.05 -80.5 -19.45 -76.85 -16.3 -74.8 -10.95 -75.2 -11.3 -74.6 -13.15 -72.9 -13.8 -72.95 -17.45 -74.1 -21.15 -75.3 -22.05 -75.8 -25.7 -82.35 -26.6 -85.4 -27.7 -89.0 -27.8 -96.2 M-22.25 -97.4 L-18.45 -96.9 -21.25 -89.25 -21.6 -91.7 -22.25 -97.4 M11.55 -61.9 L13.9 -61.6 16.35 -61.05 Q16.1 -60.35 19.15 -52.1 22.7 -42.5 23.4 -39.15 L21.85 -37.35 21.05 -36.6 Q20.2 -45.65 13.45 -44.85 L8.9 -43.9 Q6.9 -43.55 6.9 -44.85 6.9 -47.0 10.65 -48.6 L16.85 -50.85 Q14.2 -54.25 7.95 -53.7 1.7 -53.2 -0.1 -55.55 L1.55 -57.65 Q11.2 -57.0 11.55 -61.9 M12.6 -25.05 L13.55 -25.4 14.2 -23.1 11.1 -22.75 Q12.05 -23.8 12.6 -25.05 M2.55 -22.3 L-3.75 -22.0 Q-5.7 -21.9 -8.55 -22.65 -11.8 -24.1 -13.65 -27.8 -15.3 -31.05 -15.3 -34.5 -15.3 -38.15 -14.65 -42.2 L-13.1 -51.2 -10.3 -50.45 -11.6 -44.95 -13.45 -44.55 -12.6 -40.8 Q-12.6 -33.85 -8.65 -28.95 -4.7 -24.05 0.9 -24.05 1.95 -22.7 2.55 -22.3 M-8.3 -63.1 L-9.05 -56.2 -11.85 -56.95 -12.7 -54.05 -11.95 -61.05 -10.8 -61.65 Q-9.4 -62.4 -8.3 -63.1" fill="#307b8b" fill-rule="evenodd" stroke="none"/>
    <path d="M-3.6 -76.85 Q-3.0 -78.65 -2.7 -80.8 L2.35 -80.8 2.5 -82.15 2.5 -86.45 -2.75 -86.45 -3.0 -87.65 -3.7 -90.2 0.8 -92.65 Q0.05 -94.35 -2.0 -97.6 L-6.45 -95.2 -9.6 -98.5 -6.95 -102.8 -11.8 -105.85 -14.45 -101.5 -16.55 -102.3 Q-16.3 -107.8 -12.45 -109.9 -9.1 -111.75 -1.15 -111.75 2.7 -111.75 4.8 -108.05 8.1 -102.3 8.15 -87.2 10.8 -85.15 13.45 -84.4 L16.45 -83.4 Q16.0 -80.5 13.2 -76.85 L10.55 -73.7 11.0 -70.6 11.55 -67.8 9.8 -67.75 8.55 -72.85 4.95 -72.15 1.6 -72.45 Q0.45 -72.65 0.45 -74.1 0.45 -75.2 2.25 -76.5 4.85 -78.35 5.9 -79.65 L5.85 -80.4 Q6.15 -80.65 5.15 -80.65 L-3.6 -76.85 M-18.45 -96.9 Q-13.3 -95.5 -10.55 -91.3 -8.2 -87.8 -8.2 -83.6 -8.2 -82.25 -9.1 -79.4 -10.05 -76.55 -10.95 -75.2 -16.3 -74.8 -19.45 -76.85 -25.05 -80.5 -25.05 -91.5 L-24.5 -97.2 -22.25 -97.4 -21.6 -91.7 -21.25 -89.25 -18.45 -96.9 M3.7 -68.3 Q3.85 -66.65 2.95 -65.3 2.0 -64.0 0.55 -63.85 -0.9 -63.7 -2.0 -64.8 -3.1 -65.95 -3.25 -67.7 L0.0 -67.55 Q1.9 -67.55 3.7 -68.3 M-3.9 -67.65 L-7.8 -64.0 -4.15 -60.15 -6.0 -57.05 -6.75 -55.6 -9.05 -56.2 -8.3 -63.1 -8.0 -64.0 -6.45 -65.9 Q-5.1 -67.15 -3.9 -67.65 M-10.3 -50.45 L-8.25 -49.9 -8.3 -45.75 -11.6 -44.95 -10.3 -50.45 M-12.6 -40.8 L-11.95 -38.8 -6.85 -40.05 -4.6 -36.0 -8.4 -32.35 Q-6.05 -29.55 -4.4 -28.1 L-0.6 -31.65 0.8 -30.65 Q0.0 -28.85 0.0 -27.3 0.0 -26.2 0.9 -24.05 -4.7 -24.05 -8.65 -28.95 -12.6 -33.85 -12.6 -40.8 M7.9 -33.8 Q3.35 -35.2 0.55 -38.8 -2.5 -42.65 -2.5 -47.75 -2.5 -49.25 -2.0 -51.2 -1.35 -53.85 -0.1 -55.55 1.7 -53.2 7.95 -53.7 14.2 -54.25 16.85 -50.85 L10.65 -48.6 Q6.9 -47.0 6.9 -44.85 6.9 -43.55 8.9 -43.9 L13.45 -44.85 Q20.2 -45.65 21.05 -36.6 L19.6 -35.55 Q17.75 -36.65 16.15 -36.2 14.3 -35.75 13.35 -33.3 L9.75 -33.4 8.75 -33.6 7.9 -33.8 M1.55 -57.65 Q3.0 -59.45 6.45 -60.8 9.7 -62.15 11.55 -61.9 11.2 -57.0 1.55 -57.65 M13.25 -27.35 L13.55 -25.4 12.6 -25.05 13.0 -27.35 13.25 -27.35" fill="#3a97ab" fill-rule="evenodd" stroke="none"/>
    <path d="M5.95 -125.8 L6.85 -125.05 8.7 -123.2 7.55 -122.45 Q8.15 -121.45 7.1 -122.25 L6.75 -122.55 4.65 -124.4 5.7 -125.35 5.9 -125.65 5.95 -125.8 M3.3 -123.65 L4.1 -121.15 2.35 -120.8 1.65 -123.05 3.3 -123.65 M0.2 -122.75 L0.4 -120.55 -1.2 -120.45 -1.4 -122.6 -0.65 -122.65 0.2 -122.75 M-16.55 -102.3 L-14.45 -101.5 -11.8 -105.85 -6.95 -102.8 -9.6 -98.5 -6.45 -95.2 -2.0 -97.6 Q0.05 -94.35 0.8 -92.65 L-3.7 -90.2 -3.0 -87.65 -2.75 -86.45 2.5 -86.45 2.5 -82.15 2.35 -80.8 -2.7 -80.8 Q-3.0 -78.65 -3.6 -76.85 -8.25 -75.55 -10.95 -75.2 -10.05 -76.55 -9.1 -79.4 -8.2 -82.25 -8.2 -83.6 -8.2 -87.8 -10.55 -91.3 -13.3 -95.5 -18.45 -96.9 L-16.55 -102.3 M4.95 -72.15 L8.55 -72.85 9.8 -67.75 11.55 -67.8 Q11.95 -65.55 11.55 -61.9 9.7 -62.15 6.45 -60.8 3.0 -59.45 1.55 -57.65 L0.8 -57.65 -0.35 -57.45 -1.05 -56.95 -1.1 -56.3 Q-0.95 -55.95 -0.1 -55.55 -1.35 -53.85 -2.0 -51.2 -2.5 -49.25 -2.5 -47.75 -2.5 -42.65 0.55 -38.8 3.35 -35.2 7.9 -33.8 L7.65 -33.8 8.3 -26.65 4.2 -26.65 4.2 -33.25 Q4.8 -33.4 3.8 -33.4 L2.95 -32.9 0.8 -30.65 -0.6 -31.65 -4.4 -28.1 Q-6.05 -29.55 -8.4 -32.35 L-4.6 -36.0 -6.85 -40.05 -11.95 -38.8 -12.6 -40.8 -11.6 -44.95 -8.3 -45.75 -8.25 -49.9 -10.3 -50.45 -9.05 -56.2 -6.75 -55.6 -6.0 -57.05 -4.15 -60.15 -7.8 -64.0 -3.9 -67.65 -3.85 -67.65 -3.25 -67.7 Q-3.1 -65.95 -2.0 -64.8 -0.9 -63.7 0.55 -63.85 2.0 -64.0 2.95 -65.3 3.85 -66.65 3.7 -68.3 L5.4 -69.65 7.1 -71.35 Q6.45 -71.9 4.95 -72.15 M-24.5 -97.2 L-23.1 -103.3 -22.45 -105.3 -22.25 -97.4 -24.5 -97.2 M21.05 -36.6 L21.0 -35.05 Q20.4 -35.0 19.95 -35.3 L19.6 -35.55 21.05 -36.6 M9.75 -33.4 L13.35 -33.3 13.1 -30.3 Q13.1 -28.7 13.25 -27.35 L13.0 -27.35 Q13.0 -29.95 11.75 -31.75 10.85 -33.05 9.75 -33.4 M11.15 -17.95 L10.3 -17.85 9.85 -18.55 9.75 -19.6 Q11.15 -19.7 12.55 -18.1 L11.15 -17.95 M6.15 -7.25 Q6.5 4.55 5.2 6.15 L4.2 6.85 Q3.75 7.4 3.75 9.6 3.75 11.8 5.2 13.8 6.75 15.95 8.75 15.95 L9.25 15.85 9.1 15.6 8.45 9.15 11.9 8.85 12.6 15.45 12.4 15.5 12.9 15.55 Q14.55 15.55 15.75 13.3 16.8 11.35 16.8 9.65 16.8 7.65 16.4 6.95 L15.2 5.7 Q12.95 3.15 11.0 -7.15 L23.5 -7.3 23.8 1.0 24.25 -8.75 24.3 -10.4 24.35 -10.55 25.4 4.3 25.2 5.25 25.5 5.9 25.65 7.95 Q25.1 7.95 25.1 9.15 25.1 10.25 25.5 10.45 L25.8 10.1 25.85 10.85 25.3 12.35 Q25.1 12.35 25.0 12.55 24.85 12.75 24.85 13.05 24.5 13.5 24.35 15.5 L24.15 20.35 Q24.25 23.5 23.7 25.1 23.45 25.9 22.8 26.6 L22.75 26.2 22.65 24.85 Q22.8 19.3 23.45 7.55 L22.6 15.15 Q18.3 18.15 15.4 19.25 10.75 21.05 4.2 21.05 L-2.35 20.75 Q-5.05 20.25 -6.45 18.5 -9.2 15.1 -9.2 0.95 -9.2 -4.95 -8.4 -6.45 -7.7 -7.85 -4.75 -7.85 L-1.05 -7.6 6.15 -7.25 M-10.85 -125.4 L-9.8 -124.35 -11.75 -122.3 Q-12.65 -122.7 -13.35 -123.2 L-10.85 -125.4 M-8.3 -123.55 L-7.4 -123.25 -6.85 -123.05 -7.95 -121.0 -9.65 -121.45 -9.6 -121.45 -8.3 -123.55 M-4.95 -122.7 L-4.0 -122.6 -3.3 -122.55 -3.75 -120.45 -5.3 -120.55 -4.95 -122.7 M-14.9 -21.05 L-17.15 -21.8 Q-16.0 -22.75 -14.05 -22.05 L-14.85 -21.05 -14.9 -21.05" fill="#3f3f3f" fill-rule="evenodd" stroke="none"/>
    <path d="M-16.55 -102.3 L-18.45 -96.9 -22.25 -97.4 -22.45 -105.3 -23.1 -103.3 -24.5 -97.2 -27.8 -96.2 -27.65 -97.85 -25.65 -102.8 -25.05 -102.9 -25.05 -104.15 -25.05 -104.2 -22.7 -108.1 -19.4 -107.95 -19.35 -102.9 -16.55 -102.3 M-10.95 -75.2 Q-8.25 -75.55 -3.6 -76.85 L-4.0 -75.85 0.4 -73.2 -2.6 -68.4 -6.95 -71.05 -7.65 -70.3 -7.7 -71.4 Q-8.5 -72.4 -13.15 -72.9 -11.3 -74.6 -10.95 -75.2 M11.55 -61.9 Q11.95 -65.55 11.55 -67.8 L13.9 -67.65 15.2 -72.7 17.2 -72.3 Q16.75 -61.85 16.35 -61.05 L13.9 -61.6 11.55 -61.9 M4.95 -72.15 Q6.45 -71.9 7.1 -71.35 L5.4 -69.65 3.7 -68.3 2.95 -71.5 4.95 -72.15 M-9.05 -56.2 L-10.3 -50.45 -13.1 -51.2 -12.75 -54.0 -12.7 -54.05 -11.85 -56.95 -9.05 -56.2 M-11.6 -44.95 L-12.6 -40.8 -13.45 -44.55 -11.6 -44.95 M-0.1 -55.55 Q-0.95 -55.95 -1.1 -56.3 L-1.05 -56.95 -0.35 -57.45 0.8 -57.65 1.55 -57.65 -0.1 -55.55 M21.05 -36.6 L21.85 -37.35 23.4 -39.15 23.95 -35.3 21.0 -35.05 21.05 -36.6 M6.05 -8.25 L6.15 -7.25 -1.05 -7.6 -4.75 -7.85 Q-7.7 -7.85 -8.4 -6.45 -9.2 -4.95 -9.2 0.95 -9.2 15.1 -6.45 18.5 -5.05 20.25 -2.35 20.75 L4.2 21.05 Q10.75 21.05 15.4 19.25 18.3 18.15 22.6 15.15 22.45 17.75 22.45 22.05 20.05 25.6 12.75 28.15 6.15 30.45 0.5 30.45 -7.3 30.45 -11.85 25.25 -17.85 18.45 -17.85 3.05 -17.85 -8.0 -17.5 -9.25 -17.15 -10.35 -16.25 -10.6 L-13.5 -10.75 6.05 -8.25 M11.0 -7.15 L10.9 -8.5 23.35 -10.25 23.5 -7.3 11.0 -7.15 M24.25 -8.75 L24.1 -10.35 24.3 -10.4 24.25 -8.75 M25.85 10.85 Q25.85 11.7 26.6 12.35 27.35 12.95 28.4 12.95 L26.35 16.75 24.15 20.35 24.35 15.5 Q24.5 13.5 24.85 13.05 24.75 13.85 25.3 14.25 L25.3 12.35 25.85 10.85 M30.5 -3.0 L30.05 -9.65 Q30.6 -7.8 30.5 -3.0 M25.55 17.55 Q25.75 17.2 25.6 16.5 L25.05 15.4 Q24.75 15.7 24.7 16.15 L25.1 17.05 25.55 17.55 M-11.95 -61.05 L-12.1 -64.1 Q-12.1 -65.65 -10.1 -67.75 L-8.0 -64.0 -8.3 -63.1 Q-9.4 -62.4 -10.8 -61.65 L-11.95 -61.05" fill="#343434" fill-rule="evenodd" stroke="none"/>
    <path d="M8.7 -123.2 L6.85 -125.05 5.95 -125.8 6.1 -126.7 Q6.1 -128.55 3.4 -129.7 0.85 -130.8 -2.55 -130.8 L-6.05 -130.5 -2.35 -130.95 Q3.3 -130.95 7.05 -127.95 9.75 -125.8 9.75 -124.65 L9.5 -123.75 8.7 -123.2 M4.65 -124.4 L6.75 -122.55 7.1 -122.25 4.1 -121.15 3.3 -123.65 4.65 -124.4 M1.65 -123.05 L2.35 -120.8 0.4 -120.55 0.2 -122.75 1.65 -123.05 M17.2 -72.3 L20.85 -71.2 19.55 -66.15 21.1 -65.4 21.8 -57.65 19.0 -59.5 16.35 -61.05 Q16.75 -61.85 17.2 -72.3 M-22.7 -108.1 L-25.05 -104.2 -25.1 -107.45 -24.85 -107.95 -22.7 -108.1 M-25.65 -102.8 L-27.65 -97.85 -26.7 -102.6 -25.65 -102.8 M-13.15 -72.9 Q-8.5 -72.4 -7.7 -71.4 L-7.65 -70.3 -10.1 -67.75 Q-12.1 -65.65 -12.1 -64.1 L-11.95 -61.05 -12.7 -60.75 -15.15 -65.25 -16.75 -64.75 -19.0 -70.05 -16.5 -70.8 Q-14.1 -71.75 -13.15 -72.9 M25.4 -43.35 L28.55 -36.2 28.1 -35.6 23.95 -35.3 23.4 -39.15 25.4 -43.35 M11.15 -17.95 L12.55 -18.1 Q12.55 -14.45 11.55 -12.85 L10.55 -11.95 10.4 -13.4 Q11.3 -13.85 11.3 -15.9 L11.15 -17.95 M10.4 -16.7 L10.4 -13.65 4.55 -13.65 4.55 -16.7 10.4 -16.7 M2.6 -11.55 L3.15 -12.2 6.05 -8.25 -13.5 -10.75 -16.25 -10.6 Q-17.15 -10.35 -17.5 -9.25 -17.85 -8.0 -17.85 3.05 -17.85 18.45 -11.85 25.25 -7.3 30.45 0.5 30.45 6.15 30.45 12.75 28.15 20.05 25.6 22.45 22.05 L22.65 24.85 22.75 26.2 22.8 26.6 Q23.45 25.9 23.7 25.1 24.25 23.5 24.15 20.35 L26.35 16.75 28.4 12.95 Q29.85 12.95 30.75 12.25 L32.05 11.15 31.15 15.15 Q28.65 24.75 22.75 30.7 L21.95 31.35 Q18.9 36.6 4.7 36.6 -8.25 36.6 -14.7 29.25 -21.95 21.0 -21.95 2.7 L-21.8 -6.4 Q-21.45 -15.7 -20.6 -17.6 L-17.1 -14.1 Q-15.9 -13.2 -14.25 -13.2 -13.75 -13.2 -14.05 -13.9 -14.4 -14.65 -13.9 -14.65 -13.3 -14.65 -12.35 -13.5 L-11.4 -12.25 -10.0 -12.35 -8.9 -12.1 -8.8 -12.2 -6.75 -11.8 -6.55 -11.75 Q-2.65 -10.75 -1.15 -10.75 L1.3 -11.1 1.85 -11.25 2.6 -11.55 M10.9 -8.5 L10.65 -11.0 12.1 -11.35 Q13.55 -11.8 13.6 -12.45 17.95 -12.85 22.6 -13.95 L23.15 -12.0 23.35 -10.25 10.9 -8.5 M24.1 -10.35 Q24.0 -12.45 23.3 -14.15 L24.05 -14.35 24.35 -10.55 24.3 -10.4 24.1 -10.35 M25.4 4.3 L25.5 5.9 25.2 5.25 25.4 4.3 M25.65 7.95 L25.8 10.1 25.5 10.45 Q25.1 10.25 25.1 9.15 25.1 7.95 25.65 7.95 M29.2 -22.05 L29.8 -22.3 29.8 -21.4 Q29.45 -21.2 29.3 -21.6 L29.2 -22.05 M29.6 -15.95 L29.55 -16.8 Q29.75 -16.95 29.75 -16.5 L29.6 -15.95 M24.7 -16.2 L23.2 -16.4 23.0 -18.95 Q25.45 -18.45 29.9 -20.65 L30.0 -18.05 Q30.0 -17.65 27.65 -16.9 L24.7 -16.2 M30.05 -9.65 Q29.2 -14.9 30.05 -16.15 30.65 -17.0 33.05 -18.4 L33.5 -8.5 Q33.5 0.2 32.7 6.95 30.9 2.3 30.5 -3.0 30.6 -7.8 30.05 -9.65 M25.3 12.35 L25.3 14.25 Q24.75 13.85 24.85 13.05 24.85 12.75 25.0 12.55 25.1 12.35 25.3 12.35 M25.55 17.55 L25.1 17.05 24.7 16.15 Q24.75 15.7 25.05 15.4 L25.6 16.5 Q25.75 17.2 25.55 17.55 M-13.35 -123.2 L-14.1 -123.85 Q-14.45 -124.2 -14.45 -124.85 -14.45 -126.45 -10.85 -128.55 L-9.2 -129.4 -9.75 -129.05 Q-11.2 -127.95 -11.2 -126.55 L-11.0 -125.6 -10.85 -125.4 -13.35 -123.2 M-9.8 -124.35 L-8.3 -123.55 -9.6 -121.45 -11.75 -122.3 -9.8 -124.35 M-7.4 -123.25 L-4.95 -122.7 -5.3 -120.55 -7.95 -121.0 -6.85 -123.05 -7.4 -123.25 M-4.0 -122.6 L-0.65 -122.65 -1.4 -122.6 -1.2 -120.45 -3.75 -120.45 -3.3 -122.55 -4.0 -122.6 M-12.75 -54.0 L-13.1 -51.2 -13.0 -52.6 -12.75 -54.0 M-14.9 -21.05 L-15.0 -20.75 -14.9 -14.2 Q-16.2 -14.6 -16.85 -18.2 -17.4 -21.55 -17.15 -21.8 L-14.9 -21.05" fill="#292929" fill-rule="evenodd" stroke="none"/>
    <path d="M5.95 -125.8 L5.9 -125.65 5.7 -125.35 4.65 -124.4 3.3 -123.65 1.65 -123.05 0.2 -122.75 -0.65 -122.65 -4.0 -122.6 -4.95 -122.7 -7.4 -123.25 -8.3 -123.55 -9.8 -124.35 -10.85 -125.4 -11.0 -125.6 -11.2 -126.55 Q-11.2 -127.95 -9.75 -129.05 L-9.2 -129.4 -10.85 -128.55 Q-14.45 -126.45 -14.45 -124.85 -14.45 -124.2 -14.1 -123.85 L-13.35 -123.2 Q-12.65 -122.7 -11.75 -122.3 L-9.6 -121.45 -9.65 -121.45 -7.95 -121.0 -5.3 -120.55 -3.75 -120.45 -1.2 -120.45 0.4 -120.55 2.35 -120.8 4.1 -121.15 7.1 -122.25 Q8.15 -121.45 7.55 -122.45 L8.7 -123.2 9.5 -123.75 9.75 -124.65 Q9.75 -125.8 7.05 -127.95 3.3 -130.95 -2.35 -130.95 L-6.05 -130.5 -2.55 -130.8 Q0.85 -130.8 3.4 -129.7 6.1 -128.55 6.1 -126.7 L5.95 -125.8 M3.05 -129.1 Q0.7 -130.1 -2.55 -130.1 -5.8 -130.1 -8.1 -129.1 -10.45 -128.1 -10.45 -126.7 -10.45 -125.3 -8.1 -124.3 -5.8 -123.3 -2.55 -123.3 0.7 -123.3 3.05 -124.3 5.35 -125.3 5.35 -126.7 5.35 -128.1 3.05 -129.1 M-14.8 -126.0 L-11.7 -128.85 Q-7.6 -131.7 -2.35 -131.7 1.85 -131.7 4.7 -130.4 7.75 -129.0 10.2 -125.7 10.65 -124.25 9.85 -123.15 7.95 -121.35 5.45 -120.8 L1.05 -120.1 -2.45 -119.65 -5.95 -120.1 -10.3 -120.85 Q-10.65 -120.95 -12.45 -122.0 L-14.95 -123.7 -15.05 -123.8 -15.2 -124.65 -15.1 -125.5 -14.8 -126.0 M24.95 -64.2 L29.95 -38.8 28.55 -36.2 25.4 -43.35 Q26.0 -45.55 26.0 -47.35 26.0 -49.35 24.8 -52.35 23.55 -55.5 21.8 -57.65 L21.1 -65.4 24.1 -63.4 24.95 -64.2 M-18.9 -64.3 L-20.7 -69.85 -19.0 -70.05 -16.75 -64.75 -18.9 -64.3 M-30.15 -94.8 L-29.25 -101.25 -29.1 -101.65 -28.5 -102.2 -26.7 -102.6 -27.65 -97.85 -27.8 -96.2 -30.15 -94.8" fill="#1e1e1e" fill-rule="evenodd" stroke="none"/>
    <path d="M3.05 -129.1 Q5.35 -128.1 5.35 -126.7 5.35 -125.3 3.05 -124.3 0.7 -123.3 -2.55 -123.3 -5.8 -123.3 -8.1 -124.3 -10.45 -125.3 -10.45 -126.7 -10.45 -128.1 -8.1 -129.1 -5.8 -130.1 -2.55 -130.1 0.7 -130.1 3.05 -129.1" fill="#d0975e" fill-rule="evenodd" stroke="none"/>
    <path d="M30.65 -36.7 L32.45 -37.05 34.65 -37.25 Q35.9 -37.25 36.8 -33.95 37.6 -31.15 37.6 -28.55 L37.75 -26.3 Q37.75 -24.85 37.1 -24.85 L35.5 -22.45 Q34.05 -20.0 34.05 -19.45 L35.15 -9.15 Q36.25 0.7 36.25 6.5 36.25 24.95 26.85 32.4 19.8 38.0 6.15 38.0 -11.95 38.0 -18.2 26.9 -23.4 17.65 -23.4 -7.15 -23.4 -11.9 -22.3 -18.8 -22.3 -19.65 -23.0 -21.3 -23.7 -22.9 -23.7 -24.85 L-23.45 -28.95 Q-23.0 -30.35 -20.95 -31.25 -20.95 -28.15 -19.85 -25.95 -18.75 -23.75 -17.2 -23.75 L-16.8 -23.7 -16.1 -23.85 Q-13.0 -23.85 -13.0 -23.25 -13.0 -22.35 -11.35 -21.9 -11.0 -22.2 -11.0 -22.8 L-8.55 -22.65 Q-5.7 -21.9 -3.75 -22.0 L3.0 -21.45 Q2.75 -20.7 3.2 -20.4 L3.05 -20.15 4.85 -20.15 Q4.8 -20.8 4.05 -21.35 L2.55 -22.3 Q1.95 -22.7 0.9 -24.05 0.0 -26.2 0.0 -27.3 0.0 -28.85 0.8 -30.65 L2.95 -32.9 3.8 -33.4 Q4.8 -33.4 4.2 -33.25 L4.2 -26.65 8.3 -26.65 7.65 -33.8 7.9 -33.8 8.75 -33.6 9.75 -33.4 Q10.85 -33.05 11.75 -31.75 13.0 -29.95 13.0 -27.35 L12.6 -25.05 Q12.05 -23.8 11.1 -22.75 L9.55 -21.65 9.65 -20.65 11.05 -20.55 11.95 -20.3 19.0 -21.1 16.0 -20.9 Q14.85 -20.9 14.2 -23.1 L13.55 -25.4 13.25 -27.35 Q13.1 -28.7 13.1 -30.3 L13.35 -33.3 Q14.3 -35.75 16.15 -36.2 17.75 -36.65 19.6 -35.55 L19.95 -35.3 Q20.4 -35.0 21.0 -35.05 L23.95 -35.3 28.1 -35.6 28.8 -35.65 30.1 -35.95 Q30.65 -36.25 30.65 -36.7 M18.5 -27.15 L18.45 -25.75 Q18.05 -23.1 17.45 -21.75 L19.65 -22.0 20.8 -23.35 31.0 -23.9 32.7 -23.7 32.55 -23.4 31.9 -23.25 Q32.4 -22.85 33.3 -22.9 34.75 -22.9 35.75 -24.15 36.75 -25.45 36.75 -27.25 L36.8 -28.1 36.65 -30.95 35.9 -34.45 Q35.9 -35.25 34.85 -35.8 33.8 -36.35 32.35 -36.35 L31.3 -36.05 30.5 -35.75 30.75 -35.5 Q30.7 -35.2 29.25 -35.05 L19.95 -34.3 19.8 -34.55 18.4 -35.4 16.5 -35.25 17.2 -34.05 18.05 -31.25 18.45 -28.15 18.5 -27.15 M9.15 -31.75 L9.05 -31.55 9.3 -31.45 Q10.35 -29.2 9.8 -27.65 9.35 -26.3 7.85 -25.9 L7.05 -25.95 5.6 -25.75 4.3 -25.9 4.2 -26.65 3.6 -32.55 Q2.25 -31.3 1.4 -29.3 0.7 -27.7 0.7 -26.85 0.7 -24.8 2.9 -23.3 5.25 -21.7 5.8 -17.1 L7.75 -17.15 9.25 -17.45 9.15 -18.25 Q8.15 -22.2 8.65 -22.65 L10.05 -22.85 Q11.5 -24.35 12.3 -27.0 12.3 -29.85 9.75 -32.3 L8.4 -33.05 9.15 -31.75 M16.15 -34.5 L15.3 -35.2 14.35 -33.7 14.15 -33.35 Q13.55 -33.35 13.65 -32.2 L13.85 -30.35 Q13.85 -26.2 14.6 -24.2 L16.05 -21.65 17.15 -23.0 Q17.8 -24.4 17.8 -27.45 L17.35 -30.6 Q16.8 -33.4 16.15 -34.5 M12.55 -18.1 Q11.15 -19.7 9.75 -19.6 L9.85 -18.55 10.3 -17.85 11.15 -17.95 11.3 -15.9 Q11.3 -13.85 10.4 -13.4 L10.55 -11.95 11.55 -12.85 Q12.55 -14.45 12.55 -18.1 M10.4 -16.7 L4.55 -16.7 4.55 -13.65 10.4 -13.65 10.4 -16.7 M13.6 -18.4 L13.6 -13.55 17.55 -14.05 21.75 -14.85 24.0 -15.4 23.0 -15.45 Q22.2 -15.65 22.2 -19.35 L22.3 -19.8 22.55 -19.9 22.7 -19.9 23.7 -19.7 23.65 -20.1 23.6 -21.0 12.85 -19.3 13.6 -18.4 M2.15 -20.15 L2.5 -20.35 2.6 -20.95 1.8 -21.25 -0.55 -21.25 -2.05 -21.35 -5.55 -21.65 -8.25 -22.1 -10.8 -22.25 -11.0 -18.15 -11.15 -15.15 Q-11.35 -12.9 -11.15 -12.65 L-10.0 -12.35 -11.4 -12.25 -12.35 -13.5 Q-13.3 -14.65 -13.9 -14.65 -14.4 -14.65 -14.05 -13.9 -13.75 -13.2 -14.25 -13.2 -15.9 -13.2 -17.1 -14.1 L-20.6 -17.6 Q-21.45 -15.7 -21.8 -6.4 L-21.95 2.7 Q-21.95 21.0 -14.7 29.25 -8.25 36.6 4.7 36.6 18.9 36.6 21.95 31.35 L22.75 30.7 Q28.65 24.75 31.15 15.15 L32.05 11.15 30.75 12.25 Q29.85 12.95 28.4 12.95 27.35 12.95 26.6 12.35 25.85 11.7 25.85 10.85 L25.8 10.1 25.65 7.95 25.5 5.9 25.4 4.3 24.35 -10.55 24.05 -14.35 23.3 -14.15 Q24.0 -12.45 24.1 -10.35 L24.25 -8.75 23.8 1.0 23.5 -7.3 23.35 -10.25 23.15 -12.0 22.6 -13.95 Q17.95 -12.85 13.6 -12.45 13.55 -11.8 12.1 -11.35 L10.65 -11.0 10.9 -8.5 11.0 -7.15 Q12.95 3.15 15.2 5.7 L16.4 6.95 Q16.8 7.65 16.8 9.65 16.8 11.35 15.75 13.3 14.55 15.55 12.9 15.55 L12.4 15.5 12.6 15.45 11.9 8.85 8.45 9.15 9.1 15.6 9.25 15.85 8.75 15.95 Q6.75 15.95 5.2 13.8 3.75 11.8 3.75 9.6 3.75 7.4 4.2 6.85 L5.2 6.15 Q6.5 4.55 6.15 -7.25 L6.05 -8.25 3.15 -12.2 2.6 -11.55 2.65 -11.9 2.55 -12.5 2.45 -12.45 -2.0 -12.45 -2.9 -12.45 -5.6 -12.7 -8.2 -13.05 -10.2 -13.45 -10.05 -16.35 -9.9 -19.8 -9.8 -21.3 -8.95 -21.15 -6.45 -20.7 -2.85 -20.3 -0.55 -20.2 1.2 -20.15 2.15 -20.15 M-8.0 -14.3 Q-6.3 -14.05 -3.85 -15.1 -2.5 -15.75 -0.05 -17.05 3.55 -18.65 3.85 -13.95 L3.75 -16.9 Q3.75 -17.5 4.1 -17.45 L5.15 -17.15 5.05 -18.05 -0.85 -18.55 -4.5 -18.2 -8.0 -18.5 -8.0 -19.15 -9.1 -19.4 -9.35 -20.3 -9.35 -19.45 -9.45 -18.05 -8.0 -17.85 -5.95 -17.55 Q-5.15 -17.25 -5.15 -16.8 -5.15 -16.35 -5.95 -16.05 L-8.0 -15.75 -9.55 -16.0 -9.6 -14.65 -8.0 -14.3 M10.45 -5.45 L9.65 -13.1 6.8 -12.6 6.3 -12.2 7.2 -3.05 7.35 -1.45 7.6 0.6 7.75 2.15 Q7.8 4.05 6.6 5.4 4.95 7.2 4.45 8.55 4.5 10.05 6.6 14.25 L8.4 15.2 8.15 13.05 Q8.4 9.3 7.5 8.45 8.4 9.05 12.1 8.1 L12.5 8.4 12.65 9.55 13.2 14.7 Q14.0 14.05 14.9 11.7 15.95 9.15 15.7 7.55 L15.45 7.05 13.45 5.2 Q12.0 4.25 11.35 3.35 L11.3 2.85 11.0 -0.1 10.85 -1.55 10.6 -3.95 10.45 -5.45 M1.85 -11.25 L1.3 -11.1 -1.15 -10.75 Q-2.65 -10.75 -6.55 -11.75 L-6.2 -11.7 -3.4 -11.45 -2.55 -11.35 1.85 -11.25 M30.8 -22.85 L30.8 -18.1 33.2 -19.9 Q33.55 -20.35 33.95 -22.15 L33.95 -22.2 32.4 -22.1 31.5 -22.35 Q30.95 -22.8 31.1 -23.0 L30.4 -23.15 30.8 -23.05 Q31.05 -23.05 30.8 -22.85 M29.2 -22.05 L29.3 -21.6 Q29.45 -21.2 29.8 -21.4 L29.8 -22.3 29.2 -22.05 M25.8 -19.85 L27.35 -20.25 28.55 -20.7 28.35 -23.05 24.2 -22.8 24.45 -19.7 25.8 -19.85 M20.9 -22.6 L20.25 -21.45 19.95 -21.3 Q23.5 -21.95 23.45 -22.75 L20.9 -22.6 M24.7 -16.2 L27.65 -16.9 Q30.0 -17.65 30.0 -18.05 L29.9 -20.65 Q25.45 -18.45 23.0 -18.95 L23.2 -16.4 24.7 -16.2 M29.6 -15.95 L29.75 -16.5 Q29.75 -16.95 29.55 -16.8 L29.6 -15.95 M27.65 -15.85 L26.1 -15.5 Q24.6 -17.75 26.65 12.1 L28.65 12.2 30.8 11.95 28.85 -16.4 27.65 -15.85 M30.5 -3.0 Q30.9 2.3 32.7 6.95 33.5 0.2 33.5 -8.5 L33.05 -18.4 Q30.65 -17.0 30.05 -16.15 29.2 -14.9 30.05 -9.65 L30.5 -3.0 M22.45 22.05 Q22.45 17.75 22.6 15.15 L23.45 7.55 Q22.8 19.3 22.65 24.85 L22.45 22.05 M-18.2 -22.2 L-17.6 -22.75 Q-19.65 -23.35 -20.95 -25.3 -22.0 -26.9 -22.1 -28.4 L-22.0 -29.55 Q-22.65 -27.9 -22.65 -25.55 -22.7 -21.2 -22.15 -20.35 -21.85 -19.85 -18.1 -17.35 L-18.2 -22.2 M-6.6 -16.0 Q-6.25 -16.0 -6.0 -16.25 L-5.8 -16.85 -6.9 -17.2 -9.75 -17.1 -9.65 -16.7 -8.05 -16.25 -6.6 -16.0 M-11.45 -19.9 L-11.5 -20.7 Q-11.65 -21.15 -11.95 -21.4 L-12.7 -21.6 -13.45 -21.3 -13.9 -20.55 -13.95 -20.55 Q-13.9 -17.55 -13.55 -16.25 L-13.2 -15.55 -11.65 -15.15 -11.45 -19.9 M-17.15 -21.8 Q-17.4 -21.55 -16.85 -18.2 -16.2 -14.6 -14.9 -14.2 L-15.0 -20.75 -14.9 -21.05 -14.85 -21.05 -14.05 -22.05 Q-16.0 -22.75 -17.15 -21.8" fill="#151515" fill-rule="evenodd" stroke="none"/>
    <path d="M17.55 -14.05 L17.35 -18.8 21.85 -19.7 21.75 -14.85 17.55 -14.05 M-8.0 -18.5 L-8.0 -17.85 -9.45 -18.05 -9.35 -19.45 -9.1 -19.4 -8.0 -19.15 -8.0 -18.5 M-8.0 -15.75 L-8.0 -14.3 -9.6 -14.65 -9.55 -16.0 -8.0 -15.75 M31.1 -23.0 Q30.95 -22.8 31.5 -22.35 L32.4 -22.1 33.95 -22.2 33.95 -22.15 Q33.55 -20.35 33.2 -19.9 L30.8 -18.1 30.8 -22.85 31.1 -23.0 M-22.65 -25.55 L-20.65 -23.85 Q-18.95 -22.55 -18.2 -22.2 L-18.1 -17.35 Q-21.85 -19.85 -22.15 -20.35 -22.7 -21.2 -22.65 -25.55 M-13.9 -20.55 L-13.85 -20.55 Q-13.35 -20.4 -13.3 -19.65 L-13.2 -15.55 -13.55 -16.25 Q-13.9 -17.55 -13.95 -20.55 L-13.9 -20.55" fill="#42171b" fill-rule="evenodd" stroke="none"/>
    <path d="M17.35 -18.8 L13.6 -18.4 12.85 -19.3 23.6 -21.0 23.65 -20.1 22.7 -19.9 22.55 -19.9 22.3 -19.8 21.85 -19.7 17.35 -18.8 M5.05 -18.05 L-0.85 -18.55 5.05 -18.05 M31.1 -23.0 L30.8 -22.85 Q31.05 -23.05 30.8 -23.05 L30.4 -23.15 31.1 -23.0 M-22.65 -25.55 Q-22.65 -27.9 -22.0 -29.55 L-22.1 -28.4 Q-22.0 -26.9 -20.95 -25.3 -19.65 -23.35 -17.6 -22.75 L-18.2 -22.2 Q-18.95 -22.55 -20.65 -23.85 L-22.65 -25.55 M-9.1 -19.4 L-9.35 -19.45 -9.35 -20.3 -9.1 -19.4 M-13.85 -20.55 L-13.9 -20.55 -13.45 -21.3 -12.7 -21.6 -11.95 -21.4 Q-11.65 -21.15 -11.5 -20.7 L-11.45 -19.9 -13.85 -20.55" fill="#97353f" fill-rule="evenodd" stroke="none"/>
    <path d="M17.55 -14.05 L13.6 -13.55 13.6 -18.4 17.35 -18.8 17.55 -14.05 M23.65 -20.1 L23.7 -19.7 22.7 -19.9 23.65 -20.1 M22.3 -19.8 L22.2 -19.35 Q22.2 -15.65 23.0 -15.45 L24.0 -15.4 21.75 -14.85 21.85 -19.7 22.3 -19.8 M5.05 -18.05 L5.15 -17.15 4.1 -17.45 Q3.75 -17.5 3.75 -16.9 L3.85 -13.95 Q3.55 -18.65 -0.05 -17.05 -2.5 -15.75 -3.85 -15.1 -6.3 -14.05 -8.0 -14.3 L-8.0 -15.75 -5.95 -16.05 Q-5.15 -16.35 -5.15 -16.8 -5.15 -17.25 -5.95 -17.55 L-8.0 -17.85 -8.0 -18.5 -4.5 -18.2 -0.85 -18.55 5.05 -18.05 M-13.85 -20.55 L-11.45 -19.9 -11.65 -15.15 -13.2 -15.55 -13.3 -19.65 Q-13.35 -20.4 -13.85 -20.55" fill="#652329" fill-rule="evenodd" stroke="none"/>
    <path d="M21.2 -25.95 L21.25 -27.35 21.2 -28.45 20.55 -32.7 19.95 -34.3 29.25 -35.05 Q30.7 -35.2 30.75 -35.5 L30.5 -35.75 31.3 -36.05 32.35 -36.35 33.5 -34.15 34.3 -30.65 34.4 -27.8 34.4 -27.2 33.7 -24.0 33.3 -22.9 Q32.4 -22.85 31.9 -23.25 L32.55 -23.4 32.7 -23.7 31.0 -23.9 20.8 -23.35 20.75 -23.35 21.2 -25.95 M22.55 -26.8 L25.15 -26.4 28.25 -26.3 31.75 -26.5 31.9 -27.15 Q30.45 -29.55 26.75 -28.7 L22.6 -27.1 22.55 -26.8 M21.35 -29.25 L32.35 -29.25 32.35 -34.15 21.35 -34.15 21.35 -29.25 M16.05 -21.65 L14.6 -24.2 Q13.85 -26.2 13.85 -30.35 L13.65 -32.2 Q13.55 -33.35 14.15 -33.35 L14.35 -33.7 15.3 -35.2 16.15 -34.5 16.05 -21.65 M9.15 -18.25 L9.25 -17.45 7.75 -17.15 9.15 -18.25 M2.6 -20.95 L2.5 -20.35 2.15 -20.15 2.6 -20.95 M1.2 -20.15 L-0.55 -20.2 -0.5 -20.8 Q-0.4 -20.4 -0.3 -20.55 -0.25 -20.8 -0.55 -21.25 L1.8 -21.25 1.2 -20.15 M-2.85 -20.3 L-6.45 -20.7 -5.55 -21.65 -2.05 -21.35 -2.85 -20.3 M-8.95 -21.15 L-9.8 -21.3 -9.9 -19.8 -11.0 -18.15 -10.8 -22.25 -8.25 -22.1 -8.95 -21.15 M-10.05 -16.35 L-10.2 -13.45 -8.2 -13.05 -8.8 -12.2 -8.9 -12.1 -10.0 -12.35 -11.15 -12.65 Q-11.35 -12.9 -11.15 -15.15 L-10.05 -16.35 M-5.6 -12.7 L-2.9 -12.45 -3.4 -11.45 -6.2 -11.7 -5.6 -12.7 M-2.0 -12.45 L2.45 -12.45 2.55 -12.5 2.65 -11.9 2.6 -11.55 1.85 -11.25 -2.55 -11.35 -2.0 -12.45 M7.2 -3.05 L6.3 -12.2 6.8 -12.6 9.65 -13.1 10.45 -5.45 7.2 -3.05 M10.6 -3.95 L10.85 -1.55 7.6 0.6 7.35 -1.45 10.6 -3.95 M11.0 -0.1 L11.3 2.85 Q10.7 3.35 7.45 6.15 L4.45 8.55 Q4.95 7.2 6.6 5.4 7.8 4.05 7.75 2.15 L11.0 -0.1 M15.7 7.55 Q15.95 9.15 14.9 11.7 14.0 14.05 13.2 14.7 L12.65 9.55 15.7 7.55 M8.15 13.05 L8.4 15.2 6.6 14.25 7.25 13.8 8.15 13.05 M27.35 -20.25 L26.7 -20.75 Q25.75 -21.4 25.75 -20.4 L25.8 -19.85 24.45 -19.7 24.2 -22.8 28.35 -23.05 28.55 -20.7 27.35 -20.25 M26.1 -15.5 Q27.5 1.8 27.55 7.05 L28.35 10.35 28.8 10.45 Q29.45 9.95 29.45 8.6 L29.4 6.9 Q29.0 3.45 27.65 -15.85 L28.85 -16.4 30.8 11.95 28.65 12.2 26.65 12.1 Q24.6 -17.75 26.1 -15.5 M-5.8 -16.85 L-6.0 -16.25 Q-6.25 -16.0 -6.6 -16.0 L-5.8 -16.85 M-8.05 -16.25 L-9.65 -16.7 -9.75 -17.1 -6.9 -17.2 -7.7 -16.9 -8.05 -16.25" fill="#6a6a6a" fill-rule="evenodd" stroke="none"/>
    <path d="M26.85 -33.3 L23.6 -32.8 Q22.25 -32.35 22.25 -31.65 22.25 -30.95 23.6 -30.45 L26.85 -30.0 30.1 -30.45 Q31.45 -30.95 31.45 -31.65 31.45 -32.35 30.1 -32.8 L26.85 -33.3 M21.25 -27.35 L18.5 -27.15 18.45 -28.15 21.2 -28.45 21.25 -27.35 M18.45 -25.75 L21.2 -25.95 20.75 -23.35 20.8 -23.35 19.65 -22.0 17.45 -21.75 Q18.05 -23.1 18.45 -25.75 M33.3 -22.9 L33.7 -24.0 34.4 -27.2 36.75 -27.25 Q36.75 -25.45 35.75 -24.15 34.75 -22.9 33.3 -22.9 M34.4 -27.8 L34.3 -30.65 36.65 -30.95 36.8 -28.1 Q36.75 -28.65 36.3 -28.75 L34.45 -28.6 34.4 -27.8 M33.5 -34.15 L32.35 -36.35 Q33.8 -36.35 34.85 -35.8 35.9 -35.25 35.9 -34.45 L33.5 -34.15 M19.95 -34.3 L20.55 -32.7 17.8 -32.3 18.05 -31.25 17.2 -34.05 16.5 -35.25 18.4 -35.4 19.8 -34.55 19.95 -34.3 M21.35 -29.25 L21.35 -34.15 32.35 -34.15 32.35 -29.25 21.35 -29.25 M22.55 -26.8 L22.6 -27.1 26.75 -28.7 Q30.45 -29.55 31.9 -27.15 L31.75 -26.5 28.25 -26.3 25.15 -26.4 22.55 -26.8 M9.75 -32.3 L9.2 -32.05 9.15 -31.75 8.4 -33.05 9.75 -32.3 M9.3 -31.45 Q10.85 -30.8 11.45 -28.7 L11.8 -26.5 Q11.45 -24.85 10.05 -22.85 L8.65 -22.65 Q8.15 -22.2 9.15 -18.25 L7.75 -17.15 5.8 -17.1 Q5.25 -21.7 2.9 -23.3 0.7 -24.8 0.7 -26.85 0.7 -27.7 1.4 -29.3 2.25 -31.3 3.6 -32.55 L4.2 -26.65 4.3 -25.9 5.6 -25.75 5.35 -25.65 Q4.65 -25.4 4.65 -25.05 4.65 -24.7 5.35 -24.4 L7.05 -24.15 8.75 -24.4 Q9.45 -24.7 9.45 -25.05 L8.75 -25.65 7.85 -25.9 Q9.35 -26.3 9.8 -27.65 10.35 -29.2 9.3 -31.45 M16.05 -21.65 L16.15 -34.5 Q16.8 -33.4 17.35 -30.6 L17.8 -27.45 Q17.8 -24.4 17.15 -23.0 L16.05 -21.65 M6.8 -20.25 Q6.8 -19.55 7.05 -19.05 7.25 -18.6 7.55 -18.6 7.85 -18.6 8.1 -19.05 L8.3 -20.25 8.1 -21.4 7.55 -21.9 Q7.25 -21.9 7.05 -21.4 6.8 -20.95 6.8 -20.25 M2.15 -20.15 L1.2 -20.15 1.8 -21.25 2.6 -20.95 2.15 -20.15 M-0.55 -20.2 L-2.85 -20.3 -2.05 -21.35 -0.55 -21.25 Q-0.25 -20.8 -0.3 -20.55 -0.4 -20.4 -0.5 -20.8 L-0.55 -20.2 M-6.45 -20.7 L-8.95 -21.15 -8.25 -22.1 -5.55 -21.65 -6.45 -20.7 M-9.9 -19.8 L-10.05 -16.35 -11.15 -15.15 -11.0 -18.15 -9.9 -19.8 M-8.2 -13.05 L-5.6 -12.7 -6.2 -11.7 -6.55 -11.75 -6.75 -11.8 -8.8 -12.2 -8.2 -13.05 M-2.9 -12.45 L-2.0 -12.45 -2.55 -11.35 -3.4 -11.45 -2.9 -12.45 M7.2 -3.05 L10.45 -5.45 10.6 -3.95 7.35 -1.45 7.2 -3.05 M10.85 -1.55 L11.0 -0.1 7.75 2.15 7.6 0.6 10.85 -1.55 M11.3 2.85 L11.35 3.35 11.0 3.6 10.85 4.1 Q13.3 6.35 15.45 7.05 L15.7 7.55 12.65 9.55 12.5 8.4 12.1 8.1 Q8.4 9.05 7.5 8.45 8.4 9.3 8.15 13.05 L7.25 13.8 6.6 14.25 Q4.5 10.05 4.45 8.55 L7.45 6.15 Q10.7 3.35 11.3 2.85 M25.8 -19.85 L25.75 -20.4 Q25.75 -21.4 26.7 -20.75 L27.35 -20.25 25.8 -19.85 M26.1 -15.5 L27.65 -15.85 Q29.0 3.45 29.4 6.9 L29.45 8.6 Q29.45 9.95 28.8 10.45 L28.35 10.35 27.55 7.05 Q27.5 1.8 26.1 -15.5 M-6.6 -16.0 L-8.05 -16.25 -7.7 -16.9 -6.9 -17.2 -5.8 -16.85 -6.6 -16.0" fill="#aeaeae" fill-rule="evenodd" stroke="none"/>
    <path d="M26.85 -33.3 L30.1 -32.8 Q31.45 -32.35 31.45 -31.65 31.45 -30.95 30.1 -30.45 L26.85 -30.0 23.6 -30.45 Q22.25 -30.95 22.25 -31.65 22.25 -32.35 23.6 -32.8 L26.85 -33.3 M21.25 -27.35 L21.2 -25.95 18.45 -25.75 18.5 -27.15 21.25 -27.35 M34.4 -27.2 L34.4 -27.8 34.45 -28.6 36.3 -28.75 Q36.75 -28.65 36.8 -28.1 L36.75 -27.25 34.4 -27.2 M34.3 -30.65 L33.5 -34.15 35.9 -34.45 36.65 -30.95 34.3 -30.65 M20.55 -32.7 L21.2 -28.45 18.45 -28.15 18.05 -31.25 17.8 -32.3 20.55 -32.7 M9.15 -31.75 L9.2 -32.05 9.75 -32.3 Q12.3 -29.85 12.3 -27.0 11.5 -24.35 10.05 -22.85 11.45 -24.85 11.8 -26.5 L11.45 -28.7 Q10.85 -30.8 9.3 -31.45 L9.05 -31.55 9.15 -31.75 M5.6 -25.75 L7.05 -25.95 7.85 -25.9 8.75 -25.65 9.45 -25.05 Q9.45 -24.7 8.75 -24.4 L7.05 -24.15 5.35 -24.4 Q4.65 -24.7 4.65 -25.05 4.65 -25.4 5.35 -25.65 L5.6 -25.75 M6.8 -20.25 Q6.8 -20.95 7.05 -21.4 7.25 -21.9 7.55 -21.9 L8.1 -21.4 8.3 -20.25 8.1 -19.05 Q7.85 -18.6 7.55 -18.6 7.25 -18.6 7.05 -19.05 6.8 -19.55 6.8 -20.25 M11.35 3.35 Q12.0 4.25 13.45 5.2 L15.45 7.05 Q13.3 6.35 10.85 4.1 L11.0 3.6 11.35 3.35" fill="#d6d6d6" fill-rule="evenodd" stroke="none"/>
  </g>
</svg>
