<?xml version="1.0" encoding="UTF-8" standalone="no"?>
<svg xmlns:ffdec="https://www.free-decompiler.com/flash" xmlns:xlink="http://www.w3.org/1999/xlink" ffdec:objectType="shape" height="120.0px" width="120.0px" xmlns="http://www.w3.org/2000/svg">
  <g transform="matrix(1.0, 0.0, 0.0, 1.0, -3.5, -3.5)">
    <path d="M105.95 21.1 Q123.5 38.65 123.5 63.5 123.5 88.35 105.95 105.95 88.35 123.5 63.5 123.5 38.65 123.5 21.1 105.95 3.5 88.35 3.5 63.5 3.5 38.65 21.1 21.1 38.65 3.5 63.5 3.5 88.35 3.5 105.95 21.1 M89.8 89.85 Q100.7 78.9 100.7 63.5 100.7 48.1 89.8 37.25 78.9 26.3 63.5 26.3 48.1 26.3 37.2 37.25 26.3 48.1 26.3 63.5 26.3 78.9 37.2 89.85 48.1 100.7 63.5 100.7 78.9 100.7 89.8 89.85" fill="#ff0000" fill-rule="evenodd" stroke="none"/>
  </g>
</svg>
