<?xml version="1.0" encoding="UTF-8" standalone="no"?>
<svg xmlns:ffdec="https://www.free-decompiler.com/flash" xmlns:xlink="http://www.w3.org/1999/xlink" ffdec:objectType="shape" height="50.35px" width="50.65px" xmlns="http://www.w3.org/2000/svg">
  <g transform="matrix(1.0, 0.0, 0.0, 1.0, 2.0, -1.5)">
    <path d="M48.35 31.25 Q47.7 35.0 44.9 39.75 L44.85 39.8 Q43.3 42.25 41.05 44.55 33.7 51.85 23.35 51.85 13.0 51.85 5.7 44.55 3.4 42.25 1.9 39.75 -0.95 35.1 -1.5 31.6 L-1.5 31.65 Q-2.0 29.3 -2.0 26.85 -2.0 16.35 5.45 8.95 12.85 1.5 23.35 1.5 33.8 1.5 41.25 8.95 48.65 16.35 48.65 26.85 L48.35 31.2 48.35 31.25" fill="#76a9f9" fill-rule="evenodd" stroke="none"/>
  </g>
</svg>
