<?xml version="1.0" encoding="UTF-8" standalone="no"?>
<svg xmlns:ffdec="https://www.free-decompiler.com/flash" xmlns:xlink="http://www.w3.org/1999/xlink" ffdec:objectType="shape" height="49.85px" width="46.65px" xmlns="http://www.w3.org/2000/svg">
  <g transform="matrix(1.0, 0.0, 0.0, 1.0, 0.0, 0.0)">
    <path d="M46.35 27.25 Q46.25 33.85 42.85 39.15 L39.6 43.1 Q37.4 45.3 34.95 46.8 L34.9 46.8 32.1 48.25 32.05 48.25 Q28.05 49.85 23.35 49.85 16.85 49.85 11.75 46.75 9.3 45.3 7.1 43.1 5.25 41.25 3.85 39.15 L3.85 39.1 Q0.5 33.9 0.35 27.6 0.0 25.5 0.0 23.35 0.0 13.7 6.85 6.85 13.7 0.0 23.35 0.0 32.95 0.0 39.8 6.85 46.65 13.7 46.65 23.35 L46.35 27.25 M1.85 27.45 Q1.95 33.4 5.1 38.3 6.4 40.3 8.15 42.05 10.2 44.1 12.5 45.45 17.3 48.35 23.35 48.35 27.75 48.35 31.5 46.85 L34.15 45.5 Q36.5 44.1 38.55 42.05 L41.6 38.3 Q44.8 33.35 44.85 27.15 L45.15 23.35 Q45.15 14.3 38.75 7.9 32.35 1.5 23.35 1.5 14.3 1.5 7.9 7.9 1.5 14.3 1.5 23.35 1.5 25.45 1.85 27.45" fill="#000000" fill-rule="evenodd" stroke="none"/>
    <path d="M1.85 27.45 Q1.5 25.45 1.5 23.35 1.5 14.3 7.9 7.9 14.3 1.5 23.35 1.5 32.35 1.5 38.75 7.9 45.15 14.3 45.15 23.35 L44.85 27.15 44.85 26.95 Q44.4 30.2 41.85 34.4 40.5 36.6 38.55 38.55 32.25 44.85 23.35 44.85 14.45 44.85 8.15 38.55 6.2 36.6 4.85 34.4 2.3 30.2 1.85 27.1 L1.85 27.45 M41.8 25.25 L41.85 23.35 Q41.85 15.7 36.45 10.25 L35.4 9.3 Q30.3 4.85 23.35 4.85 16.75 4.85 11.75 8.9 L10.25 10.25 Q4.85 15.7 4.85 23.35 L4.95 25.25 Q5.5 31.7 10.25 36.45 15.7 41.85 23.35 41.85 31.0 41.85 36.45 36.45 41.2 31.7 41.8 25.25" fill="#f2f578" fill-rule="evenodd" stroke="none"/>
    <path d="M44.85 27.15 Q44.8 33.35 41.6 38.3 L38.55 42.05 Q36.5 44.1 34.15 45.5 L31.5 46.85 Q27.75 48.35 23.35 48.35 17.3 48.35 12.5 45.45 10.2 44.1 8.15 42.05 6.4 40.3 5.1 38.3 1.95 33.4 1.85 27.45 L1.85 27.1 Q2.3 30.2 4.85 34.4 6.2 36.6 8.15 38.55 14.45 44.85 23.35 44.85 32.25 44.85 38.55 38.55 40.5 36.6 41.85 34.4 44.4 30.2 44.85 26.95 L44.85 27.15 M35.4 9.3 L35.35 9.6 Q35.35 10.3 36.5 14.05 L36.45 14.0 Q31.0 8.6 23.35 8.6 15.8 8.6 10.4 13.9 L10.75 12.6 11.75 8.9 Q16.75 4.85 23.35 4.85 30.3 4.85 35.4 9.3" fill="#c6b80f" fill-rule="evenodd" stroke="none"/>
    <path d="M35.4 9.3 L36.45 10.25 Q41.85 15.7 41.85 23.35 L41.8 25.25 Q41.2 18.75 36.5 14.05 35.35 10.3 35.35 9.6 L35.4 9.3 M4.95 25.25 L4.85 23.35 Q4.85 15.7 10.25 10.25 L11.75 8.9 10.75 12.6 10.4 13.9 10.25 14.0 Q5.5 18.75 4.95 25.25" fill="#988d0c" fill-rule="evenodd" stroke="none"/>
    <path d="M36.5 14.05 Q41.2 18.75 41.8 25.25 41.2 31.7 36.45 36.45 31.0 41.85 23.35 41.85 15.7 41.85 10.25 36.45 5.5 31.7 4.95 25.25 5.5 18.75 10.25 14.0 L10.4 13.9 Q15.8 8.6 23.35 8.6 31.0 8.6 36.45 14.0 L36.5 14.05 M19.3 39.4 Q21.85 40.25 24.4 40.25 32.5 40.25 37.1 32.15 39.4 28.1 40.1 23.9 L39.95 21.95 39.7 20.9 39.25 19.7 Q38.5 17.85 37.05 16.15 L36.85 15.95 36.0 15.0 Q33.45 12.4 29.9 11.25 25.35 9.75 19.15 10.65 12.45 13.1 10.1 17.65 L9.85 18.15 9.65 18.6 9.55 18.75 9.35 19.2 Q7.8 22.45 7.45 24.45 L7.35 25.5 Q7.35 27.05 7.7 28.5 L7.75 28.6 11.0 34.35 12.0 35.3 12.25 35.5 13.95 36.75 16.5 38.25 19.3 39.4" fill="#381c0e" fill-rule="evenodd" stroke="none"/>
    <path d="M39.95 21.95 L40.1 23.9 Q39.4 28.1 37.1 32.15 32.5 40.25 24.4 40.25 21.85 40.25 19.3 39.4 L19.6 39.15 Q25.5 34.55 35.6 25.7 L39.95 21.95 M16.5 38.25 L13.95 36.75 12.25 35.5 12.4 35.35 24.85 25.45 37.05 16.15 Q38.5 17.85 39.25 19.7 L34.5 23.45 21.4 34.45 16.5 38.25 M7.7 28.5 Q7.35 27.05 7.35 25.5 L7.45 24.45 Q7.8 22.45 9.35 19.2 L9.55 18.75 9.65 18.6 9.85 18.15 10.1 17.65 Q12.45 13.1 19.15 10.65 25.35 9.75 29.9 11.25 L25.8 14.1 Q17.9 19.8 10.35 26.2 L7.7 28.5" fill="#643117" fill-rule="evenodd" stroke="none"/>
    <path d="M39.95 21.95 L35.6 25.7 Q25.5 34.55 19.6 39.15 L19.3 39.4 16.5 38.25 21.4 34.45 34.5 23.45 39.25 19.7 39.7 20.9 39.95 21.95 M12.25 35.5 L12.0 35.3 11.0 34.35 7.75 28.6 7.7 28.5 10.35 26.2 Q17.9 19.8 25.8 14.1 L29.9 11.25 Q33.45 12.4 36.0 15.0 L36.85 15.95 37.05 16.15 24.85 25.45 12.4 35.35 12.25 35.5" fill="#af5529" fill-rule="evenodd" stroke="none"/>
    <path d="M24.15 16.0 L23.95 16.45 23.3 16.75 Q22.4 16.75 21.75 15.85 L21.25 14.9 Q21.25 13.35 22.7 14.5 L24.15 16.0 M21.55 24.55 L21.05 25.0 Q20.6 25.0 20.5 24.75 L20.45 24.45 Q20.45 23.45 22.0 22.5 23.5 21.55 23.5 22.85 L23.2 23.3 22.1 23.95 21.55 24.55 M26.6 21.35 Q26.05 21.35 25.9 20.95 L25.85 20.55 Q25.85 19.25 26.8 18.8 27.7 18.3 27.7 19.55 L27.25 20.6 26.6 21.35 M32.9 16.45 Q32.9 15.7 33.6 15.35 34.3 14.95 34.3 15.85 L33.95 16.45 33.15 16.9 32.9 16.45 M32.6 19.95 Q33.05 19.8 33.45 20.35 L34.6 20.95 Q35.15 21.05 35.15 21.4 L35.0 21.7 Q34.8 21.9 34.5 21.9 33.25 21.9 32.65 21.4 32.2 21.0 32.2 20.5 32.2 20.1 32.6 19.95 M9.35 24.05 Q9.35 23.2 10.55 22.8 11.7 22.4 11.7 23.25 L9.75 24.65 9.35 24.35 9.35 24.05 M16.6 15.05 Q17.5 15.25 17.5 15.75 17.5 16.25 16.85 16.25 16.2 16.25 15.9 15.9 L15.7 15.5 Q15.7 14.8 16.6 15.05 M13.6 20.65 Q13.6 19.65 15.15 20.25 16.7 20.8 16.7 21.4 16.7 22.25 15.9 22.25 15.2 22.25 14.35 21.5 L13.6 20.65 M12.25 30.1 Q12.25 29.7 12.6 29.55 L14.45 29.35 Q15.5 29.35 15.5 30.0 15.5 30.8 13.4 30.8 12.5 30.8 12.3 30.45 L12.25 30.1 M17.1 35.4 Q17.1 34.25 18.65 35.2 L20.2 36.35 Q20.2 37.0 19.4 37.0 18.3 37.0 17.6 36.25 L17.1 35.4 M36.6 26.25 L36.35 25.7 Q36.35 24.75 37.4 25.25 38.45 25.7 38.45 26.3 38.45 26.8 37.75 26.8 37.0 26.8 36.6 26.25 M30.6 28.0 L30.5 27.75 Q30.5 26.6 31.45 26.05 32.35 25.5 32.35 26.4 L31.25 28.25 30.6 28.0 M31.6 31.45 Q31.6 30.6 32.95 30.9 34.25 31.15 34.25 31.75 L34.05 32.1 33.25 32.35 Q32.05 32.35 31.7 31.9 L31.6 31.45 M22.85 29.4 Q21.85 32.65 21.4 32.65 21.05 32.65 20.9 32.15 L20.85 31.65 Q20.85 31.05 21.2 29.75 21.35 28.9 22.1 28.85 22.85 28.75 22.85 29.4 M24.7 36.0 Q24.7 34.9 25.85 35.75 27.0 36.55 27.0 37.0 27.0 37.6 26.4 37.6 25.45 37.6 25.0 36.8 L24.7 36.0" fill="#ff0000" fill-rule="evenodd" stroke="none"/>
  </g>
</svg>
