<?xml version="1.0" encoding="UTF-8" standalone="no"?>
<svg xmlns:ffdec="https://www.free-decompiler.com/flash" xmlns:xlink="http://www.w3.org/1999/xlink" ffdec:objectType="shape" height="55.1px" width="46.65px" xmlns="http://www.w3.org/2000/svg">
  <g transform="matrix(1.0, 0.0, 0.0, 1.0, 0.0, 5.0)">
    <path d="M44.85 22.15 L45.15 18.35 Q45.15 9.3 38.75 2.9 32.35 -3.5 23.35 -3.5 14.3 -3.5 7.9 2.9 1.5 9.3 1.5 18.35 1.5 20.45 1.85 22.45 1.95 28.4 5.1 33.3 L5.85 34.35 5.6 34.05 5.25 34.05 Q5.55 35.65 6.15 37.1 7.5 40.4 10.25 43.2 L13.05 45.55 Q15.65 47.3 18.7 48.05 L23.35 48.6 28.0 48.05 Q30.9 47.35 33.4 45.7 L36.45 43.2 Q39.2 40.4 40.55 37.1 L41.5 34.05 41.1 34.05 40.55 34.8 41.6 33.3 Q44.8 28.35 44.85 22.15 M46.35 22.25 Q46.25 28.8 42.9 34.05 L43.05 34.05 Q41.9 39.8 37.55 44.25 L37.5 44.25 Q33.5 48.25 28.4 49.5 L23.35 50.1 18.35 49.5 Q13.2 48.25 9.2 44.25 4.8 39.8 3.75 34.05 L3.85 34.05 Q0.5 28.85 0.35 22.6 0.0 20.5 0.0 18.35 0.0 8.7 6.85 1.85 13.7 -5.0 23.35 -5.0 32.95 -5.0 39.8 1.85 46.65 8.7 46.65 18.35 L46.35 22.25" fill="#000000" fill-rule="evenodd" stroke="none"/>
    <path d="M36.5 9.05 Q41.2 13.75 41.8 20.25 41.2 26.7 36.45 31.45 31.0 36.85 23.35 36.85 15.7 36.85 10.25 31.45 5.5 26.7 4.95 20.25 5.5 13.75 10.25 9.0 L10.4 8.9 Q15.8 3.6 23.35 3.6 31.0 3.6 36.45 9.0 L36.5 9.05 M37.05 11.15 L36.85 10.95 36.0 10.0 Q33.45 7.4 29.9 6.25 25.35 4.75 19.15 5.65 12.45 8.1 10.1 12.65 L9.85 13.15 9.65 13.6 9.55 13.75 9.35 14.2 Q7.8 17.45 7.45 19.45 L7.35 20.5 Q7.35 22.05 7.7 23.5 L7.75 23.6 11.0 29.35 12.0 30.3 12.25 30.5 13.95 31.75 16.5 33.25 19.3 34.4 Q21.85 35.25 24.4 35.25 32.5 35.25 37.1 27.15 39.4 23.1 40.1 18.9 L39.95 16.95 39.7 15.9 39.25 14.7 Q38.5 12.85 37.05 11.15" fill="#381c0e" fill-rule="evenodd" stroke="none"/>
    <path d="M29.9 6.25 L25.8 9.1 Q17.9 14.8 10.35 21.2 L7.7 23.5 Q7.35 22.05 7.35 20.5 L7.45 19.45 Q7.8 17.45 9.35 14.2 L9.55 13.75 9.65 13.6 9.85 13.15 10.1 12.65 Q12.45 8.1 19.15 5.65 25.35 4.75 29.9 6.25 M12.25 30.5 L12.4 30.35 24.85 20.45 37.05 11.15 Q38.5 12.85 39.25 14.7 L34.5 18.45 21.4 29.45 16.5 33.25 13.95 31.75 12.25 30.5 M39.95 16.95 L40.1 18.9 Q39.4 23.1 37.1 27.15 32.5 35.25 24.4 35.25 21.85 35.25 19.3 34.4 L19.6 34.15 Q25.5 29.55 35.6 20.7 L39.95 16.95" fill="#643117" fill-rule="evenodd" stroke="none"/>
    <path d="M29.9 6.25 Q33.45 7.4 36.0 10.0 L36.85 10.95 37.05 11.15 24.85 20.45 12.4 30.35 12.25 30.5 12.0 30.3 11.0 29.35 7.75 23.6 7.7 23.5 10.35 21.2 Q17.9 14.8 25.8 9.1 L29.9 6.25 M39.25 14.7 L39.7 15.9 39.95 16.95 35.6 20.7 Q25.5 29.55 19.6 34.15 L19.3 34.4 16.5 33.25 21.4 29.45 34.5 18.45 39.25 14.7" fill="#af5529" fill-rule="evenodd" stroke="none"/>
    <path d="M44.85 22.15 L44.85 21.95 Q44.4 25.2 41.85 29.4 40.5 31.6 38.55 33.55 32.25 39.85 23.35 39.85 14.45 39.85 8.15 33.55 6.2 31.6 4.85 29.4 2.3 25.2 1.85 22.1 L1.85 22.45 Q1.5 20.45 1.5 18.35 1.5 9.3 7.9 2.9 14.3 -3.5 23.35 -3.5 32.35 -3.5 38.75 2.9 45.15 9.3 45.15 18.35 L44.85 22.15 M41.8 20.25 L41.85 18.35 Q41.85 10.7 36.45 5.25 L35.4 4.3 Q30.3 -0.15 23.35 -0.15 16.75 -0.15 11.75 3.9 L10.25 5.25 Q4.85 10.7 4.85 18.35 L4.95 20.25 Q5.5 26.7 10.25 31.45 15.7 36.85 23.35 36.85 31.0 36.85 36.45 31.45 41.2 26.7 41.8 20.25" fill="#f2f578" fill-rule="evenodd" stroke="none"/>
    <path d="M1.85 22.45 L1.85 22.1 Q2.3 25.2 4.85 29.4 6.2 31.6 8.15 33.55 14.45 39.85 23.35 39.85 32.25 39.85 38.55 33.55 40.5 31.6 41.85 29.4 44.4 25.2 44.85 21.95 L44.85 22.15 Q44.8 28.35 41.6 33.3 L40.55 34.8 38.65 36.95 38.55 37.05 Q36.5 39.1 34.15 40.5 L31.5 41.85 Q27.75 43.35 23.35 43.35 17.3 43.35 12.5 40.45 10.2 39.1 8.15 37.05 L7.95 36.85 7.55 36.4 5.85 34.35 5.1 33.3 Q1.95 28.4 1.85 22.45 M35.4 4.3 L35.35 4.6 Q35.35 5.3 36.5 9.05 L36.45 9.0 Q31.0 3.6 23.35 3.6 15.8 3.6 10.4 8.9 L10.75 7.6 11.75 3.9 Q16.75 -0.15 23.35 -0.15 30.3 -0.15 35.4 4.3" fill="#c6b80f" fill-rule="evenodd" stroke="none"/>
    <path d="M35.4 4.3 L36.45 5.25 Q41.85 10.7 41.85 18.35 L41.8 20.25 Q41.2 13.75 36.5 9.05 35.35 5.3 35.35 4.6 L35.4 4.3 M4.95 20.25 L4.85 18.35 Q4.85 10.7 10.25 5.25 L11.75 3.9 10.75 7.6 10.4 8.9 10.25 9.0 Q5.5 13.75 4.95 20.25 M33.4 45.7 Q30.9 47.35 28.0 48.05 L23.35 48.6 18.7 48.05 Q15.65 47.3 13.05 45.55 L13.0 45.25 12.7 42.45 12.75 42.6 Q18.1 45.15 21.1 45.15 28.2 45.15 32.6 43.6 L33.75 43.15 33.4 45.6 33.4 45.7" fill="#988d0c" fill-rule="evenodd" stroke="none"/>
    <path d="M5.85 34.35 L7.55 36.4 7.95 36.85 8.15 37.05 Q10.2 39.1 12.5 40.45 17.3 43.35 23.35 43.35 27.75 43.35 31.5 41.85 L34.15 40.5 Q36.5 39.1 38.55 37.05 L38.65 36.95 40.55 34.8 41.1 34.05 41.5 34.05 40.55 37.1 Q39.2 40.4 36.45 43.2 L33.4 45.7 33.4 45.6 33.75 43.15 32.6 43.6 Q28.2 45.15 21.1 45.15 18.1 45.15 12.75 42.6 L12.7 42.45 13.0 45.25 13.05 45.55 10.25 43.2 Q7.5 40.4 6.15 37.1 5.55 35.65 5.25 34.05 L5.6 34.05 5.85 34.35" fill="#5a5407" fill-rule="evenodd" stroke="none"/>
    <path d="M32.9 11.45 Q32.9 10.7 33.6 10.35 34.3 9.95 34.3 10.85 L33.95 11.45 33.15 11.9 32.9 11.45 M23.95 11.45 L23.3 11.75 Q22.4 11.75 21.75 10.85 L21.25 9.9 Q21.25 8.35 22.7 9.5 L24.15 11.0 23.95 11.45 M25.85 15.55 Q25.85 14.25 26.8 13.8 27.7 13.3 27.7 14.55 L27.25 15.6 26.6 16.35 Q26.05 16.35 25.9 15.95 L25.85 15.55 M23.5 17.85 L23.2 18.3 22.1 18.95 21.55 19.55 21.05 20.0 Q20.6 20.0 20.5 19.75 L20.45 19.45 Q20.45 18.45 22.0 17.5 23.5 16.55 23.5 17.85 M22.85 24.4 Q21.85 27.65 21.4 27.65 21.05 27.65 20.9 27.15 L20.85 26.65 Q20.85 26.05 21.2 24.75 21.35 23.9 22.1 23.85 22.85 23.75 22.85 24.4 M32.2 15.5 Q32.2 15.1 32.6 14.95 33.05 14.8 33.45 15.35 L34.6 15.95 Q35.15 16.05 35.15 16.4 L35.0 16.7 Q34.8 16.9 34.5 16.9 33.25 16.9 32.65 16.4 32.2 16.0 32.2 15.5 M31.25 23.25 L30.6 23.0 30.5 22.75 Q30.5 21.6 31.45 21.05 32.35 20.5 32.35 21.4 L31.25 23.25 M36.35 20.7 Q36.35 19.75 37.4 20.25 38.45 20.7 38.45 21.3 38.45 21.8 37.75 21.8 37.0 21.8 36.6 21.25 L36.35 20.7 M16.6 10.05 Q17.5 10.25 17.5 10.75 17.5 11.25 16.85 11.25 16.2 11.25 15.9 10.9 L15.7 10.5 Q15.7 9.8 16.6 10.05 M9.35 19.05 Q9.35 18.2 10.55 17.8 11.7 17.4 11.7 18.25 L9.75 19.65 9.35 19.35 9.35 19.05 M14.45 24.35 Q15.5 24.35 15.5 25.0 15.5 25.8 13.4 25.8 12.5 25.8 12.3 25.45 L12.25 25.1 Q12.25 24.7 12.6 24.55 L14.45 24.35 M14.35 16.5 L13.6 15.65 Q13.6 14.65 15.15 15.25 16.7 15.8 16.7 16.4 16.7 17.25 15.9 17.25 15.2 17.25 14.35 16.5 M17.1 30.4 Q17.1 29.25 18.65 30.2 L20.2 31.35 Q20.2 32.0 19.4 32.0 18.3 32.0 17.6 31.25 L17.1 30.4 M34.25 26.75 L34.05 27.1 33.25 27.35 Q32.05 27.35 31.7 26.9 L31.6 26.45 Q31.6 25.6 32.95 25.9 34.25 26.15 34.25 26.75 M25.0 31.8 L24.7 31.0 Q24.7 29.9 25.85 30.75 27.0 31.55 27.0 32.0 27.0 32.6 26.4 32.6 25.45 32.6 25.0 31.8" fill="#ff0000" fill-rule="evenodd" stroke="none"/>
  </g>
</svg>
