<?xml version="1.0" encoding="UTF-8" standalone="no"?>
<svg xmlns:ffdec="https://www.free-decompiler.com/flash" xmlns:xlink="http://www.w3.org/1999/xlink" ffdec:objectType="shape" height="55.1px" width="46.65px" xmlns="http://www.w3.org/2000/svg">
  <g transform="matrix(1.0, 0.0, 0.0, 1.0, 23.25, 33.0)">
    <path d="M21.6 -5.85 L21.6 -6.05 Q21.15 -2.8 18.6 1.4 17.25 3.6 15.3 5.55 9.0 11.85 0.1 11.85 -8.8 11.85 -15.1 5.55 -17.05 3.6 -18.4 1.4 -20.95 -2.8 -21.4 -5.9 L-21.4 -5.55 Q-21.75 -7.55 -21.75 -9.65 -21.75 -18.7 -15.35 -25.1 -8.95 -31.5 0.1 -31.5 9.1 -31.5 15.5 -25.1 21.9 -18.7 21.9 -9.65 L21.6 -5.85 M18.55 -7.75 L18.6 -9.65 Q18.6 -17.3 13.2 -22.75 L12.15 -23.7 Q7.05 -28.15 0.1 -28.15 -6.5 -28.15 -11.5 -24.1 L-13.0 -22.75 Q-18.4 -17.3 -18.4 -9.65 L-18.3 -7.75 Q-17.75 -1.3 -13.0 3.45 -7.55 8.85 0.1 8.85 7.75 8.85 13.2 3.45 17.95 -1.3 18.55 -7.75" fill="#f2f578" fill-rule="evenodd" stroke="none"/>
    <path d="M-21.4 -5.55 L-21.4 -5.9 Q-20.95 -2.8 -18.4 1.4 -17.05 3.6 -15.1 5.55 -8.8 11.85 0.1 11.85 9.0 11.85 15.3 5.55 17.25 3.6 18.6 1.4 21.15 -2.8 21.6 -6.05 L21.6 -5.85 Q21.55 0.35 18.35 5.3 L17.3 6.8 15.4 8.95 15.3 9.05 Q13.25 11.1 10.9 12.5 L8.25 13.85 Q4.5 15.35 0.1 15.35 -5.95 15.35 -10.75 12.45 -13.05 11.1 -15.1 9.05 L-15.3 8.85 -15.7 8.4 -17.4 6.35 -18.15 5.3 Q-21.3 0.4 -21.4 -5.55 M12.15 -23.7 L12.1 -23.4 Q12.1 -22.7 13.25 -18.95 L13.2 -19.0 Q7.75 -24.4 0.1 -24.4 -7.45 -24.4 -12.85 -19.1 L-12.5 -20.4 -11.5 -24.1 Q-6.5 -28.15 0.1 -28.15 7.05 -28.15 12.15 -23.7" fill="#c6b80f" fill-rule="evenodd" stroke="none"/>
    <path d="M21.6 -5.85 L21.9 -9.65 Q21.9 -18.7 15.5 -25.1 9.1 -31.5 0.1 -31.5 -8.95 -31.5 -15.35 -25.1 -21.75 -18.7 -21.75 -9.65 -21.75 -7.55 -21.4 -5.55 -21.3 0.4 -18.15 5.3 L-17.4 6.35 -17.65 6.05 -18.0 6.05 -17.1 9.1 Q-15.75 12.4 -13.0 15.2 L-10.2 17.55 Q-7.6 19.3 -4.55 20.05 L0.1 20.6 4.75 20.05 Q7.65 19.35 10.15 17.7 11.75 16.65 13.2 15.2 15.95 12.4 17.3 9.1 L18.25 6.05 17.85 6.05 17.3 6.8 18.35 5.3 Q21.55 0.35 21.6 -5.85 M19.8 6.05 Q18.65 11.8 14.3 16.25 L14.25 16.25 Q10.25 20.25 5.15 21.5 L0.1 22.1 -4.9 21.5 Q-10.05 20.25 -14.05 16.25 -18.45 11.8 -19.5 6.05 L-19.4 6.05 Q-22.75 0.85 -22.9 -5.4 -23.25 -7.5 -23.25 -9.65 -23.25 -19.3 -16.4 -26.15 -9.55 -33.0 0.1 -33.0 9.7 -33.0 16.55 -26.15 23.4 -19.3 23.4 -9.65 L23.1 -5.75 Q23.0 0.8 19.65 6.05 L19.8 6.05" fill="#000000" fill-rule="evenodd" stroke="none"/>
    <path d="M-17.4 6.35 L-15.7 8.4 -15.3 8.85 -15.1 9.05 Q-13.05 11.1 -10.75 12.45 -5.95 15.35 0.1 15.35 4.5 15.35 8.25 13.85 L10.9 12.5 Q13.25 11.1 15.3 9.05 L15.4 8.95 17.3 6.8 17.85 6.05 18.25 6.05 17.3 9.1 Q15.95 12.4 13.2 15.2 11.75 16.65 10.15 17.7 L10.15 17.6 10.5 15.15 9.35 15.6 Q4.95 17.15 -2.15 17.15 -5.15 17.15 -10.5 14.6 L-10.55 14.3 -10.6 14.0 -10.55 14.25 -10.25 17.25 -10.2 17.55 -13.0 15.2 Q-15.75 12.4 -17.1 9.1 L-18.0 6.05 -17.65 6.05 -17.4 6.35" fill="#5a5407" fill-rule="evenodd" stroke="none"/>
    <path d="M10.15 17.7 Q7.65 19.35 4.75 20.05 L0.1 20.6 -4.55 20.05 Q-7.6 19.3 -10.2 17.55 L-10.25 17.25 -10.55 14.25 -10.6 14.0 -10.55 14.3 -10.5 14.6 Q-5.15 17.15 -2.15 17.15 4.95 17.15 9.35 15.6 L10.5 15.15 10.15 17.6 10.15 17.7 M12.15 -23.7 L13.2 -22.75 Q18.6 -17.3 18.6 -9.65 L18.55 -7.75 Q17.95 -14.25 13.25 -18.95 12.1 -22.7 12.1 -23.4 L12.15 -23.7 M-18.3 -7.75 L-18.4 -9.65 Q-18.4 -17.3 -13.0 -22.75 L-11.5 -24.1 -12.5 -20.4 -12.85 -19.1 -13.0 -19.0 Q-17.75 -14.25 -18.3 -7.75" fill="#988d0c" fill-rule="evenodd" stroke="none"/>
    <path d="M13.8 -16.85 L1.6 -7.55 -10.85 2.35 -11.0 2.5 -11.25 2.3 -12.25 1.35 -15.5 -4.4 -15.55 -4.5 -12.9 -6.8 Q-5.35 -13.2 2.55 -18.9 L6.65 -21.75 Q10.2 -20.6 12.75 -18.0 L13.6 -17.05 13.8 -16.85 M-6.75 5.25 L-1.85 1.45 11.25 -9.55 16.0 -13.3 16.45 -12.1 16.7 -11.05 12.35 -7.3 Q2.25 1.55 -3.65 6.15 L-3.95 6.4 -6.75 5.25" fill="#af5529" fill-rule="evenodd" stroke="none"/>
    <path d="M13.25 -18.95 Q17.95 -14.25 18.55 -7.75 17.95 -1.3 13.2 3.45 7.75 8.85 0.1 8.85 -7.55 8.85 -13.0 3.45 -17.75 -1.3 -18.3 -7.75 -17.75 -14.25 -13.0 -19.0 L-12.85 -19.1 Q-7.45 -24.4 0.1 -24.4 7.75 -24.4 13.2 -19.0 L13.25 -18.95 M16.0 -13.3 Q15.25 -15.15 13.8 -16.85 L13.6 -17.05 12.75 -18.0 Q10.2 -20.6 6.65 -21.75 2.1 -23.25 -4.1 -22.35 -10.8 -19.9 -13.15 -15.35 L-13.4 -14.85 -13.6 -14.4 -13.7 -14.25 -13.9 -13.8 Q-15.45 -10.55 -15.8 -8.55 L-15.9 -7.5 Q-15.9 -5.95 -15.55 -4.5 L-15.5 -4.4 -12.25 1.35 -11.25 2.3 -11.0 2.5 -9.3 3.75 -6.75 5.25 -3.95 6.4 Q-1.4 7.25 1.15 7.25 9.25 7.25 13.85 -0.85 16.15 -4.9 16.85 -9.1 L16.7 -11.05 16.45 -12.1 16.0 -13.3" fill="#381c0e" fill-rule="evenodd" stroke="none"/>
    <path d="M13.8 -16.85 Q15.25 -15.15 16.0 -13.3 L11.25 -9.55 -1.85 1.45 -6.75 5.25 -9.3 3.75 -11.0 2.5 -10.85 2.35 1.6 -7.55 13.8 -16.85 M16.7 -11.05 L16.85 -9.1 Q16.15 -4.9 13.85 -0.85 9.25 7.25 1.15 7.25 -1.4 7.25 -3.95 6.4 L-3.65 6.15 Q2.25 1.55 12.35 -7.3 L16.7 -11.05 M6.65 -21.75 L2.55 -18.9 Q-5.35 -13.2 -12.9 -6.8 L-15.55 -4.5 Q-15.9 -5.95 -15.9 -7.5 L-15.8 -8.55 Q-15.45 -10.55 -13.9 -13.8 L-13.7 -14.25 -13.6 -14.4 -13.4 -14.85 -13.15 -15.35 Q-10.8 -19.9 -4.1 -22.35 2.1 -23.25 6.65 -21.75" fill="#643117" fill-rule="evenodd" stroke="none"/>
    <path d="M0.9 -17.0 L0.7 -16.55 Q0.4 -16.25 0.05 -16.25 -0.85 -16.25 -1.5 -17.15 L-2.0 -18.1 Q-2.0 -19.65 -0.55 -18.5 L0.9 -17.0 M-1.25 -10.5 Q0.25 -11.45 0.25 -10.15 L-0.05 -9.7 -1.15 -9.05 -1.7 -8.45 Q-2.05 -8.0 -2.2 -8.0 -2.65 -8.0 -2.75 -8.25 L-2.8 -8.55 Q-2.8 -9.55 -1.25 -10.5 M3.35 -11.65 L2.65 -12.05 2.6 -12.45 Q2.6 -13.75 3.55 -14.2 4.45 -14.7 4.45 -13.45 L4.0 -12.4 Q3.55 -11.65 3.35 -11.65 M9.65 -16.55 Q9.65 -17.3 10.35 -17.65 11.05 -18.05 11.05 -17.15 L10.7 -16.55 Q10.35 -16.2 9.9 -16.1 9.65 -16.2 9.65 -16.55 M9.35 -13.05 Q9.8 -13.2 10.2 -12.65 10.6 -12.25 11.35 -12.05 L11.9 -11.6 11.75 -11.3 11.25 -11.1 Q10.0 -11.1 9.4 -11.6 8.95 -12.0 8.95 -12.5 8.95 -12.9 9.35 -13.05 M-13.9 -8.95 Q-13.9 -9.8 -12.7 -10.2 -11.55 -10.6 -11.55 -9.75 -13.05 -8.35 -13.5 -8.35 -13.85 -8.35 -13.9 -8.65 L-13.9 -8.95 M-7.55 -17.5 Q-7.55 -18.2 -6.65 -17.95 -5.75 -17.75 -5.75 -17.25 -5.75 -16.75 -6.4 -16.75 -7.05 -16.75 -7.35 -17.1 L-7.55 -17.5 M-9.65 -12.35 Q-9.65 -13.35 -8.1 -12.75 -6.55 -12.2 -6.55 -11.6 -6.55 -10.75 -7.35 -10.75 -8.05 -10.75 -8.9 -11.5 L-9.65 -12.35 M-10.95 -2.55 L-11.0 -2.9 -10.65 -3.45 -8.8 -3.65 Q-7.75 -3.65 -7.75 -3.0 -7.75 -2.2 -9.85 -2.2 -10.75 -2.2 -10.95 -2.55 M-3.05 3.35 Q-3.05 4.0 -3.85 4.0 -4.95 4.0 -5.65 3.25 L-6.15 2.4 Q-6.15 1.25 -4.6 2.2 -3.8 2.65 -3.05 3.35 M15.2 -6.7 Q15.2 -6.2 14.5 -6.2 13.75 -6.2 13.35 -6.75 L13.1 -7.3 Q13.1 -8.25 14.15 -7.75 15.2 -7.3 15.2 -6.7 M7.25 -5.25 Q7.25 -6.4 8.2 -6.95 9.1 -7.5 9.1 -6.6 9.1 -6.15 8.0 -4.75 7.55 -4.75 7.35 -5.0 L7.25 -5.25 M8.35 -1.55 Q8.35 -2.4 9.7 -2.1 11.0 -1.85 11.0 -1.25 L10.8 -0.9 Q10.5 -0.65 10.0 -0.65 8.8 -0.65 8.45 -1.1 L8.35 -1.55 M-0.4 -3.6 Q-1.4 -0.35 -1.85 -0.35 -2.2 -0.35 -2.35 -0.85 L-2.4 -1.35 -2.05 -3.25 Q-1.9 -4.1 -1.15 -4.15 -0.4 -4.25 -0.4 -3.6 M1.45 3.0 Q1.45 1.9 2.6 2.75 3.75 3.55 3.75 4.0 3.75 4.6 3.15 4.6 2.2 4.6 1.75 3.8 L1.45 3.0" fill="#ff0000" fill-rule="evenodd" stroke="none"/>
  </g>
</svg>
