<?xml version="1.0" encoding="UTF-8" standalone="no"?>
<svg xmlns:ffdec="https://www.free-decompiler.com/flash" xmlns:xlink="http://www.w3.org/1999/xlink" ffdec:objectType="shape" height="47.1px" width="52.6px" xmlns="http://www.w3.org/2000/svg">
  <g transform="matrix(1.0, 0.0, 0.0, 1.0, 29.2, 3.55)">
    <path d="M-0.8 -3.15 L2.15 -3.3 Q3.6 -0.1 5.1 2.5 7.95 7.6 13.45 11.0 17.15 13.3 19.0 17.4 19.9 19.45 20.05 21.05 20.05 21.7 19.75 21.85 L18.95 21.95 Q17.7 21.15 15.8 19.2 L13.3 16.6 10.6 13.2 Q10.15 12.7 9.65 12.7 L9.65 12.9 9.85 13.35 Q8.15 12.15 7.4 12.0 L7.0 12.1 Q7.4 13.55 10.2 20.25 12.75 26.3 12.75 27.25 12.75 30.2 11.85 31.65 11.2 32.75 10.45 32.75 9.2 32.75 8.45 30.5 L4.1 17.75 4.0 17.45 2.55 15.95 Q0.9 17.6 0.9 18.95 0.9 20.8 1.85 24.35 2.75 27.9 2.75 30.1 2.75 34.65 -0.25 36.85 -2.1 38.25 -3.75 38.25 -4.4 38.2 -5.05 37.45 -6.3 36.0 -6.3 32.75 -6.3 31.2 -5.1 27.25 -3.95 23.3 -3.95 19.8 -3.95 17.1 -5.8 14.65 -7.55 12.35 -9.25 12.35 L-11.1 12.7 Q-12.75 13.55 -15.8 16.45 -17.95 18.45 -20.05 18.45 -22.45 18.45 -22.45 15.9 -22.45 13.2 -20.15 11.3 -18.8 10.25 -14.7 8.25 -10.2 6.1 -7.45 3.5 -5.85 2.0 -4.85 0.35 L-3.85 -1.65 -0.8 -3.15" fill="#f1ba87" fill-rule="evenodd" stroke="none"/>
    <path d="M2.15 -3.3 L4.4 -2.9 Q11.3 2.3 17.2 12.0 20.15 16.85 21.75 20.75 L21.65 21.85 Q21.5 22.45 21.5 23.0 L18.5 23.25 Q17.25 22.95 16.55 21.95 L13.3 16.6 15.8 19.2 Q17.7 21.15 18.95 21.95 L19.75 21.85 Q20.05 21.7 20.05 21.05 19.9 19.45 19.0 17.4 17.15 13.3 13.45 11.0 7.95 7.6 5.1 2.5 3.6 -0.1 2.15 -3.3 M9.85 13.35 Q12.45 17.8 13.5 23.45 14.1 26.6 14.1 29.4 14.1 32.2 12.45 34.85 10.6 37.85 8.1 37.85 7.55 37.85 7.55 37.65 L7.35 36.5 7.25 36.55 4.1 17.75 8.45 30.5 Q9.2 32.75 10.45 32.75 11.2 32.75 11.85 31.65 12.75 30.2 12.75 27.25 12.75 26.3 10.2 20.25 7.4 13.55 7.0 12.1 L7.4 12.0 Q8.15 12.15 9.85 13.35 M4.0 17.45 Q3.15 18.15 3.3 22.25 L3.6 30.55 Q3.4 41.9 -4.15 41.9 -5.85 41.9 -6.65 41.0 -7.9 39.7 -7.9 36.15 L-6.15 25.95 -5.35 21.3 -5.2 19.8 Q-5.2 17.6 -6.7 15.6 -8.25 13.55 -10.1 13.55 L-16.95 19.25 Q-20.3 21.95 -21.95 21.95 -24.35 21.95 -26.0 20.75 -27.6 19.65 -27.6 18.15 -27.6 12.75 -16.15 7.75 -9.85 4.95 -8.3 4.05 L-7.45 3.5 Q-10.2 6.1 -14.7 8.25 -18.8 10.25 -20.15 11.3 -22.45 13.2 -22.45 15.9 -22.45 18.45 -20.05 18.45 -17.95 18.45 -15.8 16.45 -12.75 13.55 -11.1 12.7 L-9.25 12.35 Q-7.55 12.35 -5.8 14.65 -3.95 17.1 -3.95 19.8 -3.95 23.3 -5.1 27.25 -6.3 31.2 -6.3 32.75 -6.3 36.0 -5.05 37.45 -4.4 38.2 -3.75 38.25 -2.1 38.25 -0.25 36.85 2.75 34.65 2.75 30.1 2.75 27.9 1.85 24.35 0.9 20.8 0.9 18.95 0.9 17.6 2.55 15.95 L4.0 17.45 M-4.85 0.35 L-4.75 -0.4 -4.5 -1.1 -3.85 -1.65 -4.85 0.35 M4.8 20.35 L4.8 20.3 4.75 20.2 4.8 20.35" fill="#db9c64" fill-rule="evenodd" stroke="none"/>
    <path d="M4.4 -2.9 L3.95 -3.55 Q6.4 -2.95 7.75 -1.4 L19.5 11.75 Q21.1 13.45 22.3 16.1 23.4 18.55 23.4 20.0 23.4 22.55 22.6 23.75 21.65 25.15 19.5 25.15 16.9 24.5 15.4 23.45 L15.85 28.55 Q15.85 33.95 13.2 37.1 11.1 39.6 8.85 39.6 6.8 39.6 6.15 38.2 5.4 36.65 5.15 31.3 5.25 36.7 2.55 40.15 -0.15 43.55 -4.2 43.55 -5.9 43.55 -7.3 42.6 -9.5 41.15 -9.5 37.9 L-8.9 32.8 -7.8 25.55 -7.15 20.65 Q-7.15 18.55 -7.95 16.95 -8.8 15.35 -10.0 15.35 -11.8 15.35 -13.5 18.05 -15.65 21.35 -19.3 22.95 L-20.85 23.45 -22.7 23.75 Q-25.55 23.75 -27.45 21.95 -29.2 20.35 -29.2 18.3 -29.2 15.35 -26.65 12.75 -23.75 9.8 -16.25 5.9 -11.9 3.65 -10.45 2.7 -8.55 1.45 -6.95 -0.45 L-4.5 -2.7 -0.7 -3.35 -0.65 -3.25 -0.8 -3.15 -3.85 -1.65 -4.5 -1.1 -4.75 -0.4 -4.85 0.35 Q-5.85 2.0 -7.45 3.5 L-8.3 4.05 Q-9.85 4.95 -16.15 7.75 -27.6 12.75 -27.6 18.15 -27.6 19.65 -26.0 20.75 -24.35 21.95 -21.95 21.95 -20.3 21.95 -16.95 19.25 L-10.1 13.55 Q-8.25 13.55 -6.7 15.6 -5.2 17.6 -5.2 19.8 L-5.35 21.3 -6.15 25.95 -7.9 36.15 Q-7.9 39.7 -6.65 41.0 -5.85 41.9 -4.15 41.9 3.4 41.9 3.6 30.55 L3.3 22.25 Q3.15 18.15 4.0 17.45 L4.1 17.75 7.25 36.55 7.35 36.5 7.55 37.65 Q7.55 37.85 8.1 37.85 10.6 37.85 12.45 34.85 14.1 32.2 14.1 29.4 14.1 26.6 13.5 23.45 12.45 17.8 9.85 13.35 L9.65 12.9 9.65 12.7 Q10.15 12.7 10.6 13.2 L13.3 16.6 16.55 21.95 Q17.25 22.95 18.5 23.25 L21.5 23.0 Q21.5 22.45 21.65 21.85 L21.75 20.75 Q20.15 16.85 17.2 12.0 11.3 2.3 4.4 -2.9" fill="#6c3d28" fill-rule="evenodd" stroke="none"/>
  </g>
</svg>
