<?xml version="1.0" encoding="UTF-8" standalone="no"?>
<svg xmlns:ffdec="https://www.free-decompiler.com/flash" xmlns:xlink="http://www.w3.org/1999/xlink" ffdec:objectType="shape" height="40.75px" width="34.2px" xmlns="http://www.w3.org/2000/svg">
  <g transform="matrix(1.0, 0.0, 0.0, 1.0, 10.5, 9.4)">
    <path d="M15.1 15.55 L7.9 6.3 2.8 -0.8 2.45 -1.3 2.5 -1.3 Q-1.6 -7.35 -4.25 -7.35 -5.85 -7.35 -6.55 -5.9 -7.05 -4.9 -7.05 -3.5 -7.05 -1.5 -5.7 2.35 -4.5 6.5 -2.05 12.65 L-1.65 13.65 Q1.0 20.2 1.8 21.55 -0.35 22.9 -1.8 25.8 L-5.2 14.75 -7.45 7.35 -8.85 2.65 Q-9.75 -0.05 -9.5 -2.95 -9.3 -5.85 -8.5 -6.95 L-7.7 -7.75 Q-7.0 -8.6 -5.9 -8.85 L-4.95 -9.15 Q-2.7 -9.65 0.1 -7.25 2.9 -4.9 3.85 -3.4 L4.6 -2.3 5.1 -1.7 6.15 -0.4 10.25 4.85 11.7 6.75 Q15.8 12.05 18.85 15.05 L20.1 16.25 18.85 15.65 15.1 15.55" fill="#8ebece" fill-rule="evenodd" stroke="none"/>
    <path d="M1.8 21.55 Q1.0 20.2 -1.65 13.65 L-2.05 12.65 Q-4.5 6.5 -5.7 2.35 -7.05 -1.5 -7.05 -3.5 -7.05 -4.9 -6.55 -5.9 -5.85 -7.35 -4.25 -7.35 -1.6 -7.35 2.5 -1.3 L2.45 -1.3 2.8 -0.8 7.9 6.3 15.1 15.55 12.6 16.2 Q11.3 14.6 7.5 8.6 L6.6 7.15 1.2 -0.65 Q-1.8 -4.85 -4.25 -6.1 L-5.65 -5.6 -5.8 -4.85 -5.95 -3.8 Q-5.95 -1.6 -4.05 1.7 L-4.0 1.65 Q-0.9 6.2 0.55 8.9 L1.15 10.1 1.35 10.5 5.05 19.4 1.8 21.55" fill="#a9ceda" fill-rule="evenodd" stroke="none"/>
    <path d="M20.1 16.25 L18.85 15.05 Q15.8 12.05 11.7 6.75 L10.25 4.85 6.15 -0.4 5.1 -1.7 4.6 -2.3 3.85 -3.4 Q2.9 -4.9 0.1 -7.25 -2.7 -9.65 -4.95 -9.15 -2.3 -9.9 0.65 -8.2 L0.6 -8.2 Q3.35 -6.55 5.55 -3.35 7.75 -0.2 9.8 2.1 L12.1 4.8 19.65 13.7 22.2 16.6 23.25 18.05 23.5 18.55 23.7 19.05 Q23.8 21.65 19.8 24.2 L18.4 21.75 18.7 22.25 Q20.15 21.75 19.6 19.5 19.4 19.05 16.6 18.65 8.25 18.85 2.5 24.65 1.7 25.2 1.25 26.5 1.2 26.95 1.7 27.75 2.15 28.5 5.0 28.9 L6.2 31.0 1.7 31.35 Q0.55 31.35 -0.75 30.5 -2.05 29.6 -2.65 28.55 L-9.1 4.7 -9.3 4.15 -9.45 3.75 Q-11.1 -0.2 -10.1 -3.8 -9.55 -5.7 -8.5 -6.95 -9.3 -5.85 -9.5 -2.95 -9.75 -0.05 -8.85 2.65 L-7.45 7.35 -5.2 14.75 -1.8 25.8 -1.35 27.5 Q-1.4 28.35 -0.15 29.5 L4.15 29.65 Q0.75 28.95 0.35 28.45 -0.3 27.7 -0.2 26.9 0.0 24.55 5.1 21.25 10.65 17.4 16.6 17.45 L18.85 17.7 Q19.9 17.95 20.4 18.55 L20.75 19.65 Q20.8 20.9 19.55 22.55 21.6 21.85 21.9 20.05 L21.85 18.55 21.45 17.8 20.1 16.25" fill="#214450" fill-rule="evenodd" stroke="none"/>
    <path d="M-1.35 27.5 Q0.2 23.15 6.7 19.65 12.55 16.45 16.45 16.35 L18.85 16.55 20.5 17.25 21.45 17.8 21.85 18.55 21.9 20.05 Q21.6 21.85 19.55 22.55 20.8 20.9 20.75 19.65 L20.4 18.55 Q19.9 17.95 18.85 17.7 L16.6 17.45 Q10.65 17.4 5.1 21.25 0.0 24.55 -0.2 26.9 -0.3 27.7 0.35 28.45 0.75 28.95 4.15 29.65 L-0.15 29.5 Q-1.4 28.35 -1.35 27.5" fill="#73afc4" fill-rule="evenodd" stroke="none"/>
    <path d="M15.1 15.55 L18.85 15.65 20.1 16.25 21.45 17.8 20.5 17.25 18.85 16.55 16.45 16.35 Q12.55 16.45 6.7 19.65 0.2 23.15 -1.35 27.5 L-1.8 25.8 Q-0.35 22.9 1.8 21.55 L5.05 19.4 Q8.95 17.5 10.4 17.05 L12.6 16.2 15.1 15.55 M18.4 21.75 L16.6 18.65 Q19.4 19.05 19.6 19.5 20.15 21.75 18.7 22.25 L18.4 21.75 M2.5 24.65 L5.0 28.9 Q2.15 28.5 1.7 27.75 1.2 26.95 1.25 26.5 1.7 25.2 2.5 24.65" fill="#346a7c" fill-rule="evenodd" stroke="none"/>
    <path d="M5.05 19.4 L1.35 10.5 1.15 10.1 0.55 8.9 Q-0.9 6.2 -4.0 1.65 L-4.05 1.7 Q-5.95 -1.6 -5.95 -3.8 L-5.8 -4.85 -5.65 -5.6 -4.25 -6.1 Q-1.8 -4.85 1.2 -0.65 L6.6 7.15 7.5 8.6 Q11.3 14.6 12.6 16.2 L10.4 17.05 Q8.95 17.5 5.05 19.4" fill="#bfdbe3" fill-rule="evenodd" stroke="none"/>
  </g>
</svg>
