<?xml version="1.0" encoding="UTF-8" standalone="no"?>
<svg xmlns:ffdec="https://www.free-decompiler.com/flash" xmlns:xlink="http://www.w3.org/1999/xlink" ffdec:objectType="shape" height="103.55px" width="64.4px" xmlns="http://www.w3.org/2000/svg">
  <g transform="matrix(1.0, 0.0, 0.0, 1.0, -1.15, -3.35)">
    <path d="M20.5 6.55 L20.8 6.25 Q21.8 5.25 22.95 5.4 24.1 5.55 26.15 4.45 28.05 3.35 29.05 3.35 L29.8 3.6 30.2 3.85 30.85 9.95 Q30.85 12.5 29.0 14.7 26.9 17.25 23.65 17.25 21.15 17.25 19.45 15.9 17.75 14.6 17.75 12.85 18.75 10.95 19.25 9.1 L19.25 9.55 21.75 9.55 21.75 6.55 20.5 6.55 M29.25 8.7 Q28.85 5.25 28.55 4.9 19.3 11.0 19.3 13.2 L20.1 14.05 22.15 15.6 26.0 15.25 27.25 14.0 28.55 12.45 Q29.25 9.95 29.25 8.7 M5.55 30.3 Q7.7 25.15 9.7 22.7 L9.6 23.1 Q9.6 23.45 10.2 23.45 10.45 23.45 11.2 26.75 12.1 30.6 12.1 33.6 12.1 38.25 10.0 41.55 L5.45 48.05 3.75 48.05 3.75 50.3 3.8 50.3 3.0 51.35 2.8 51.55 2.35 52.1 Q1.55 49.3 1.2 46.1 0.8 42.9 3.9 34.5 L4.35 33.3 6.75 33.3 6.75 30.3 5.55 30.3 M8.75 40.55 Q9.6 39.1 10.15 37.05 L10.6 34.3 10.45 31.2 9.55 27.15 9.35 26.45 Q7.45 35.3 6.3 41.3 L5.3 46.1 7.8 42.3 8.75 40.55 M19.25 40.3 L19.25 42.1 17.65 42.8 15.95 45.95 Q14.75 48.4 14.75 51.45 14.75 52.45 15.45 55.2 L15.75 56.35 16.75 58.15 16.75 59.55 17.7 59.55 18.15 60.05 20.0 61.15 22.9 61.3 26.1 61.0 Q27.6 59.55 27.8 58.9 28.55 55.55 25.35 48.8 23.3 44.5 21.7 42.8 L22.0 42.8 22.0 40.75 23.35 41.05 Q24.1 41.05 24.5 42.45 L25.8 46.2 28.15 49.65 Q30.0 52.3 30.0 53.3 30.0 58.2 28.75 60.4 27.1 63.25 22.7 63.25 L19.4 62.55 Q17.2 61.8 17.2 61.2 L15.85 59.2 Q14.4 57.15 14.0 55.55 L13.25 52.05 16.0 43.2 Q16.85 40.65 19.25 40.3 M47.6 56.55 L49.15 56.4 Q50.5 56.5 57.5 59.55 54.15 63.75 47.65 63.75 45.5 63.75 42.95 62.35 L40.65 60.9 Q40.05 60.9 39.55 59.95 L39.2 59.0 38.5 57.5 Q39.6 57.45 41.0 58.15 L42.9 58.6 45.6 57.3 47.0 56.75 47.0 58.8 49.5 58.8 49.5 56.55 47.6 56.55 M13.35 80.3 L12.45 82.3 11.95 83.65 Q11.95 88.6 18.15 92.3 22.9 95.1 37.1 100.15 L36.4 97.65 35.05 94.6 33.1 91.45 31.85 87.85 30.55 84.5 Q30.15 83.3 25.5 77.95 L22.4 76.7 20.05 75.85 17.6 76.45 16.45 77.05 Q15.15 77.85 13.35 80.3 M26.5 104.9 Q22.4 103.35 17.8 100.5 8.15 94.55 8.15 91.05 8.15 86.45 10.25 81.65 13.5 74.35 20.0 74.35 26.45 74.35 31.05 82.55 33.4 86.65 34.55 91.0 L38.65 99.0 Q40.6 102.9 42.8 106.05 L43.25 106.7 41.45 106.6 39.4 105.6 35.8 106.8 Q32.0 106.8 27.65 105.3 L28.75 105.3 28.75 102.8 26.5 102.8 26.5 104.9 M51.4 61.75 L50.95 61.65 47.55 60.8 Q44.2 60.2 42.8 60.85 44.25 61.5 47.7 62.25 L51.4 61.75 M53.45 71.35 Q56.0 69.1 58.35 69.1 61.95 69.1 63.9 71.7 65.55 73.9 65.55 77.25 65.55 78.75 64.2 82.55 62.8 86.5 62.6 91.65 L59.3 92.0 Q55.15 92.0 52.65 89.3 50.0 86.45 50.0 81.2 L49.85 78.6 Q49.8 76.7 50.4 76.7 50.9 76.7 50.85 75.15 50.8 73.55 51.3 73.55 L53.45 71.35 M56.3 90.0 Q59.5 90.7 61.15 87.95 62.95 84.9 62.95 77.05 62.95 73.45 61.8 72.05 60.8 70.8 58.2 70.55 L56.25 70.85 55.1 71.95 Q53.95 72.85 53.3 73.0 52.6 74.5 51.85 76.9 L51.65 80.35 51.85 83.3 Q51.75 83.5 53.05 87.35 L54.35 88.45 56.3 90.0" fill="#9d8c4a" fill-rule="evenodd" stroke="none"/>
    <path d="M29.25 8.7 Q28.0 9.25 25.75 9.4 26.2 11.2 25.55 12.35 L25.2 12.9 Q24.85 13.05 24.65 13.3 L24.4 13.75 22.15 15.6 20.1 14.05 19.3 13.2 Q19.3 11.0 28.55 4.9 28.85 5.25 29.25 8.7 M8.75 40.55 L7.8 42.3 5.3 46.1 6.3 41.3 Q7.45 35.3 9.35 26.45 L9.55 27.15 10.45 31.2 9.85 34.8 8.75 40.55 M21.7 42.8 Q23.3 44.5 25.35 48.8 28.55 55.55 27.8 58.9 24.05 53.6 21.75 47.75 20.6 44.65 20.2 42.8 L21.7 42.8 M13.35 80.3 L15.15 83.8 Q16.75 87.05 18.2 89.1 L19.25 90.45 19.25 92.55 21.35 92.55 Q25.45 96.05 30.95 96.05 L32.55 95.55 35.05 94.6 36.4 97.65 37.1 100.15 Q22.9 95.1 18.15 92.3 11.95 88.6 11.95 83.65 L12.45 82.3 13.35 80.3 M51.4 61.75 L47.7 62.25 Q44.25 61.5 42.8 60.85 44.2 60.2 47.55 60.8 L50.95 61.65 51.4 61.75 M56.25 70.85 L58.2 70.55 Q60.8 70.8 61.8 72.05 62.95 73.45 62.95 77.05 62.95 84.9 61.15 87.95 59.5 90.7 56.3 90.0 L60.85 80.85 60.75 79.6 56.25 70.85" fill="#c2b57e" fill-rule="evenodd" stroke="none"/>
    <path d="M25.2 12.9 L25.55 12.35 Q26.2 11.2 25.75 9.4 28.0 9.25 29.25 8.7 29.25 9.95 28.55 12.45 L27.6 12.45 25.85 12.65 25.2 12.9 M22.15 15.6 L24.4 13.75 24.45 14.15 Q24.65 14.6 26.0 15.25 L22.15 15.6 M10.45 31.2 L10.6 34.3 10.15 37.05 Q9.6 39.1 8.75 40.55 L9.85 34.8 10.45 31.2 M27.8 58.9 Q27.6 59.55 26.1 61.0 L21.25 56.45 Q20.5 52.5 19.3 50.65 18.35 49.15 18.35 48.3 L18.75 46.95 19.1 45.55 Q19.1 44.95 18.4 43.8 L17.65 42.8 19.25 42.1 19.25 42.8 20.2 42.8 Q20.6 44.65 21.75 47.75 24.05 53.6 27.8 58.9 M19.25 90.45 L18.2 89.1 Q16.75 87.05 15.15 83.8 L13.35 80.3 Q15.15 77.85 16.45 77.05 L17.6 76.45 Q17.95 79.0 23.85 85.45 30.15 92.3 33.1 91.45 L35.05 94.6 32.55 95.55 30.95 96.05 Q25.45 96.05 21.35 92.55 L21.75 92.55 21.75 89.55 19.25 89.55 19.25 90.45 M56.3 90.0 L54.35 88.45 53.05 87.35 54.9 81.3 Q54.9 79.6 54.2 76.45 L53.3 73.0 Q53.95 72.85 55.1 71.95 L56.25 70.85 60.75 79.6 60.85 80.85 56.3 90.0" fill="#e7deb2" fill-rule="evenodd" stroke="none"/>
    <path d="M24.4 13.75 L24.65 13.3 Q24.85 13.05 25.2 12.9 L25.85 12.65 27.6 12.45 28.55 12.45 27.25 14.0 26.0 15.25 Q24.65 14.6 24.45 14.15 L24.4 13.75 M26.1 61.0 L22.9 61.3 20.0 61.15 Q20.0 60.7 19.45 60.4 18.9 60.05 18.15 60.05 L17.7 59.55 19.25 59.55 19.25 57.05 18.45 57.05 18.7 56.8 Q19.25 56.25 19.25 55.3 L19.15 54.35 19.0 53.85 18.2 53.4 17.35 53.25 15.45 55.2 Q14.75 52.45 14.75 51.45 14.75 48.4 15.95 45.95 L17.65 42.8 18.4 43.8 Q19.1 44.95 19.1 45.55 L18.75 46.95 18.35 48.3 Q18.35 49.15 19.3 50.65 20.5 52.5 21.25 56.45 L26.1 61.0 M16.75 58.15 L15.75 56.35 16.35 57.0 16.75 57.25 16.75 58.15 M17.6 76.45 L20.05 75.85 Q19.8 77.05 20.3 79.4 20.75 81.75 21.8 82.7 22.85 83.6 23.9 82.55 24.95 81.5 25.5 77.95 30.15 83.3 30.55 84.5 28.7 84.95 28.7 86.5 28.7 88.35 30.1 88.35 31.1 88.35 31.85 87.85 L33.1 91.45 Q30.15 92.3 23.85 85.45 17.95 79.0 17.6 76.45 M26.75 84.8 L29.0 84.8 29.0 82.3 26.75 82.3 26.75 84.8 M53.05 87.35 Q51.75 83.5 51.85 83.3 52.15 80.8 51.85 76.9 52.6 74.5 53.3 73.0 L54.2 76.45 Q54.9 79.6 54.9 81.3 L53.05 87.35" fill="#f1ecd3" fill-rule="evenodd" stroke="none"/>
    <path d="M20.0 61.15 L18.15 60.05 Q18.9 60.05 19.45 60.4 20.0 60.7 20.0 61.15 M15.75 56.35 L15.45 55.2 17.35 53.25 18.2 53.4 19.0 53.85 19.15 54.35 19.25 55.3 Q19.25 56.25 18.7 56.8 L18.45 57.05 16.75 57.05 16.75 57.25 16.35 57.0 15.75 56.35 M20.05 75.85 L22.4 76.7 25.5 77.95 Q24.95 81.5 23.9 82.55 22.85 83.6 21.8 82.7 20.75 81.75 20.3 79.4 19.8 77.05 20.05 75.85 M30.55 84.5 L31.85 87.85 Q31.1 88.35 30.1 88.35 28.7 88.35 28.7 86.5 28.7 84.95 30.55 84.5 M51.85 83.3 L51.65 80.35 51.85 76.9 Q52.15 80.8 51.85 83.3" fill="#fbf9f0" fill-rule="evenodd" stroke="none"/>
    <path d="M19.25 9.1 Q19.7 7.5 20.5 6.55 L21.75 6.55 21.75 9.55 19.25 9.55 19.25 9.1 M5.45 48.05 L3.8 50.3 3.75 50.3 3.75 48.05 5.45 48.05 M4.35 33.3 L5.55 30.3 6.75 30.3 6.75 33.3 4.35 33.3 M19.25 42.1 L19.25 40.3 20.0 40.25 21.7 40.65 22.0 40.75 22.0 42.8 21.7 42.8 20.2 42.8 19.25 42.8 19.25 42.1 M17.7 59.55 L16.75 59.55 16.75 58.15 16.75 57.25 16.75 57.05 18.45 57.05 19.25 57.05 19.25 59.55 17.7 59.55 M47.0 56.75 L47.6 56.55 49.5 56.55 49.5 58.8 47.0 58.8 47.0 56.75 M21.35 92.55 L19.25 92.55 19.25 90.45 19.25 89.55 21.75 89.55 21.75 92.55 21.35 92.55 M27.65 105.3 L26.5 104.9 26.5 102.8 28.75 102.8 28.75 105.3 27.65 105.3 M26.75 84.8 L26.75 82.3 29.0 82.3 29.0 84.8 26.75 84.8" fill="#3e382d" fill-rule="evenodd" stroke="none"/>
  </g>
</svg>
