<?xml version="1.0" encoding="UTF-8" standalone="no"?>
<svg xmlns:ffdec="https://www.free-decompiler.com/flash" xmlns:xlink="http://www.w3.org/1999/xlink" ffdec:objectType="shape" height="88.0px" width="95.55px" xmlns="http://www.w3.org/2000/svg">
  <g transform="matrix(1.0, 0.0, 0.0, 1.0, 62.75, 87.0)">
    <path d="M23.85 -67.3 Q25.2 -70.7 25.2 -71.4 L25.2 -71.9 Q25.85 -73.6 25.75 -75.6 L25.7 -80.2 Q33.35 -71.6 32.75 -62.65 L31.1 -62.0 31.4 -63.8 31.2 -65.85 Q30.65 -69.95 28.8 -73.75 L26.75 -77.4 Q28.45 -72.25 24.9 -68.25 L23.85 -67.3 M16.8 -72.35 L16.35 -72.8 15.05 -74.15 Q16.5 -80.05 16.55 -86.25 20.25 -81.15 22.2 -75.3 L21.85 -74.8 21.25 -72.55 21.05 -72.2 21.0 -72.5 16.95 -83.6 16.85 -76.85 16.75 -75.5 16.8 -72.35 M4.45 -82.8 L2.25 -85.45 Q4.45 -78.45 1.95 -73.25 L0.95 -75.0 Q3.0 -79.1 2.1 -84.65 L1.65 -87.0 Q8.35 -81.65 11.25 -74.05 L11.25 -73.85 Q11.25 -72.9 10.85 -71.8 L10.55 -71.0 Q9.3 -75.6 6.6 -79.7 L4.8 -82.4 4.45 -82.8 M10.95 -49.4 L10.6 -49.95 10.05 -50.85 13.65 -59.5 14.2 -59.2 Q17.6 -56.25 19.0 -51.65 L18.9 -51.45 18.45 -49.2 18.3 -49.45 14.5 -57.55 13.9 -55.7 13.6 -54.75 Q12.6 -51.9 10.95 -49.4 M0.35 -30.35 L-0.1 -30.85 -0.55 -31.4 Q-1.25 -35.45 0.7 -39.25 L1.35 -39.45 3.55 -36.95 Q5.2 -35.0 7.3 -33.45 L6.75 -32.05 5.6 -32.95 Q3.0 -35.2 1.05 -37.85 L0.5 -36.4 Q0.1 -34.15 0.2 -31.85 L0.35 -30.35 M-9.65 -72.85 Q-12.4 -76.6 -15.95 -79.65 L-18.45 -81.7 -19.1 -82.15 -21.0 -83.6 Q-18.65 -77.75 -18.85 -71.55 L-20.1 -73.2 -20.35 -73.5 Q-20.2 -79.4 -22.3 -85.1 -13.65 -82.0 -8.35 -75.3 L-9.65 -72.85 M-26.1 -66.4 L-26.65 -66.6 -28.1 -66.9 -36.85 -70.1 -36.15 -66.55 -34.3 -60.8 -34.8 -60.95 -36.85 -62.45 -37.3 -62.75 Q-38.9 -68.05 -39.05 -73.65 -33.35 -68.55 -26.35 -67.7 L-26.1 -66.4 M-41.35 -57.15 Q-45.4 -57.8 -48.7 -60.05 L-50.55 -61.35 -51.05 -61.8 Q-51.05 -56.2 -48.95 -51.45 L-49.4 -51.55 -50.85 -51.95 Q-52.3 -57.35 -51.4 -63.15 -46.85 -59.2 -41.3 -58.35 L-41.45 -57.6 -41.35 -57.15 M-10.8 -53.5 L-11.8 -53.65 -11.95 -53.65 Q-12.8 -58.05 -14.75 -62.2 -6.55 -62.45 -1.55 -57.7 -1.5 -57.0 -1.8 -56.3 L-2.1 -56.6 Q-6.8 -60.65 -13.15 -61.0 L-12.5 -59.5 -12.3 -59.0 Q-11.2 -56.25 -10.8 -53.5 M-55.0 -45.05 L-59.85 -42.4 -58.5 -41.4 -57.25 -40.45 -52.2 -36.7 -54.7 -36.35 -62.75 -42.35 Q-58.0 -46.95 -51.7 -47.4 L-50.3 -45.2 -53.5 -45.4 -54.3 -45.35 -55.0 -45.05 M-51.3 -31.55 L-57.8 -29.35 -55.85 -28.5 -50.75 -25.5 -50.6 -25.4 -52.1 -24.65 Q-55.95 -27.6 -60.7 -29.1 -57.35 -31.9 -53.4 -33.45 L-51.9 -32.15 -51.3 -31.55 M-34.15 -14.85 L-35.15 -14.5 -35.25 -14.6 -39.05 -17.5 -39.9 -18.1 -42.15 -19.9 -41.55 -21.5 -39.85 -22.6 Q-34.8 -25.85 -29.15 -25.05 L-28.85 -24.8 -28.6 -24.55 -30.95 -24.1 Q-36.3 -23.55 -40.45 -20.2 L-39.8 -19.7 Q-36.45 -17.95 -34.15 -14.85 M-46.55 -11.2 L-46.65 -11.0 -47.15 -10.25 Q-52.15 -13.15 -57.75 -14.7 -56.05 -19.3 -50.3 -20.1 L-49.5 -20.25 -48.25 -18.7 -50.5 -18.3 -51.95 -18.05 Q-54.85 -17.4 -56.65 -15.2 L-54.8 -14.7 Q-50.3 -13.55 -46.55 -11.2 M-44.7 -6.8 L-46.9 -4.0 -46.95 -3.95 -47.85 -2.2 Q-42.8 -2.1 -38.4 -0.3 L-38.95 1.0 Q-43.45 -0.75 -48.5 -0.85 -49.9 -3.85 -47.0 -6.45 L-46.45 -6.9 -44.7 -6.8 M-11.25 -33.65 L-13.85 -34.0 Q-18.15 -34.3 -22.0 -32.15 L-20.45 -30.95 -18.55 -29.45 Q-16.95 -28.2 -15.85 -26.6 L-16.0 -26.6 -16.9 -26.35 Q-20.35 -29.4 -24.25 -32.1 L-22.0 -33.3 Q-15.6 -36.6 -9.6 -33.95 L-9.7 -33.3 -9.65 -32.85 -11.25 -33.65 M-29.0 -41.25 L-29.5 -41.15 -30.6 -40.8 Q-33.5 -43.05 -37.1 -44.4 L-38.0 -45.45 -36.25 -47.3 -33.95 -48.35 Q-29.75 -50.0 -26.15 -50.0 L-26.2 -49.35 -25.85 -48.55 Q-31.25 -48.35 -36.05 -45.65 L-34.15 -45.0 Q-32.3 -43.85 -30.55 -42.55 L-29.0 -41.25 M-16.7 -14.05 L-18.15 -13.95 Q-20.95 -13.6 -23.3 -12.1 L-21.85 -11.5 -20.0 -10.3 -19.25 -9.5 Q-19.75 -9.4 -20.25 -8.85 L-24.55 -11.65 -23.35 -12.8 Q-19.1 -16.45 -14.05 -14.75 L-13.7 -13.7 -16.7 -14.05 M-14.45 -24.05 L-15.0 -24.6 -14.7 -24.65 -14.45 -24.05" fill="#794813" fill-rule="evenodd" stroke="none"/>
    <path d="M31.1 -62.0 L29.55 -61.6 Q30.8 -62.5 31.4 -63.8 L31.1 -62.0 M26.25 -61.2 L25.55 -61.2 23.7 -61.5 Q22.15 -61.8 21.7 -62.15 L22.95 -63.2 Q26.45 -66.5 28.1 -71.35 27.0 -67.55 26.5 -63.55 L26.25 -61.2 M16.75 -75.5 L16.85 -76.85 21.0 -72.5 21.05 -72.2 Q20.35 -71.2 18.8 -71.2 L18.6 -71.2 Q17.25 -73.15 16.75 -75.5 M4.45 -82.8 L4.8 -82.4 Q5.1 -76.9 6.3 -71.65 L7.15 -68.15 9.0 -67.7 8.9 -67.6 Q7.65 -65.8 6.75 -65.8 5.85 -65.8 3.1 -71.1 4.55 -76.8 4.45 -82.8 M13.6 -54.75 L13.9 -55.7 Q14.3 -51.9 17.15 -49.75 L17.85 -49.2 18.3 -49.45 18.45 -49.2 18.4 -49.2 Q17.6 -47.7 15.3 -47.55 12.65 -49.55 13.6 -54.75 M6.6 -31.75 Q5.75 -30.0 4.55 -29.45 2.25 -30.7 1.25 -33.8 2.8 -32.25 4.65 -31.45 L5.9 -31.05 6.6 -31.75 M-18.45 -81.7 Q-16.45 -75.15 -11.9 -70.35 L-11.6 -70.05 Q-13.5 -67.75 -15.8 -66.15 L-16.3 -67.0 Q-16.95 -74.7 -19.1 -82.15 L-18.45 -81.7 M-26.65 -66.6 L-26.05 -66.3 -25.9 -64.6 -26.0 -64.75 Q-26.75 -66.15 -28.1 -66.9 L-26.65 -66.6 M-49.8 -59.0 Q-47.2 -54.7 -42.85 -52.25 L-41.7 -51.65 -40.5 -52.3 -39.85 -52.05 -39.25 -52.0 -38.7 -50.95 -40.2 -50.7 -46.05 -51.05 Q-47.8 -53.75 -49.05 -56.85 L-49.8 -59.0 M-26.4 -61.6 Q-26.8 -60.05 -27.15 -59.7 L-28.2 -59.7 -31.7 -60.35 -32.2 -60.4 Q-34.65 -62.95 -36.1 -66.45 -32.7 -62.15 -27.3 -61.6 L-26.4 -61.6 M-12.3 -59.0 L-12.5 -59.5 Q-8.05 -57.15 -3.95 -54.0 -5.0 -53.45 -6.4 -53.3 -9.4 -55.8 -12.3 -59.0 M-49.3 -43.6 Q-50.5 -44.35 -52.1 -44.55 L-55.0 -45.05 -54.3 -45.35 -53.5 -45.4 -49.9 -44.6 -49.45 -43.85 -49.3 -43.6 M-58.5 -41.4 L-48.55 -39.9 -47.25 -40.1 -46.45 -38.3 Q-46.45 -37.5 -49.35 -37.0 L-57.25 -40.45 -58.5 -41.4 M-49.5 -26.65 Q-51.75 -28.2 -54.35 -29.3 -52.4 -30.25 -50.55 -30.7 -49.3 -29.05 -49.3 -27.55 L-49.5 -26.65 M-30.95 -24.1 L-28.6 -24.55 Q-27.85 -23.65 -27.85 -22.15 -27.85 -21.3 -28.55 -19.8 L-29.5 -17.95 Q-32.5 -16.4 -37.65 -19.25 -32.6 -19.1 -30.55 -22.8 L-30.35 -23.55 -30.95 -24.1 M-56.65 -15.2 Q-54.85 -17.4 -51.95 -18.05 L-50.5 -18.3 -47.85 -18.1 Q-46.6 -16.35 -46.3 -14.55 L-53.15 -15.2 -56.65 -15.2 M-46.9 -4.0 Q-44.55 -4.1 -42.65 -5.2 L-41.45 -5.9 -41.45 -6.0 Q-40.6 -5.5 -40.1 -5.5 -39.5 -5.5 -38.85 -3.8 L-38.55 -3.0 -46.95 -3.95 -46.9 -4.0 M-11.25 -33.65 L-9.65 -32.85 -9.5 -31.7 Q-9.35 -30.75 -9.55 -30.3 L-10.25 -28.6 -10.4 -28.3 -20.45 -30.95 -22.0 -32.15 Q-18.4 -32.7 -14.8 -32.05 L-12.5 -31.45 -11.2 -32.55 -11.25 -33.65 M-25.25 -46.0 Q-25.3 -44.7 -26.55 -42.85 L-26.9 -42.4 Q-29.95 -42.75 -33.5 -44.95 L-25.25 -46.0 M-16.7 -14.05 L-13.7 -13.7 -13.65 -13.15 -13.9 -11.9 Q-14.15 -11.0 -14.5 -10.55 -15.15 -9.6 -15.9 -9.2 L-16.15 -9.05 Q-18.2 -9.35 -20.0 -10.3 L-21.85 -11.5 -17.05 -12.65 -16.7 -14.05" fill="#e0ac3f" fill-rule="evenodd" stroke="none"/>
    <path d="M29.55 -61.6 L26.25 -61.2 26.5 -63.55 Q27.0 -67.55 28.1 -71.35 L28.8 -73.75 Q30.65 -69.95 31.2 -65.85 L31.4 -63.8 Q30.8 -62.5 29.55 -61.6 M16.85 -76.85 L16.95 -83.6 21.0 -72.5 16.85 -76.85 M4.8 -82.4 L6.6 -79.7 Q9.3 -75.6 10.55 -71.0 L10.1 -69.8 9.0 -67.7 7.15 -68.15 6.3 -71.65 Q5.1 -76.9 4.8 -82.4 M13.9 -55.7 L14.5 -57.55 18.3 -49.45 17.85 -49.2 17.15 -49.75 Q14.3 -51.9 13.9 -55.7 M0.5 -36.4 L1.05 -37.85 Q3.0 -35.2 5.6 -32.95 L6.75 -32.05 6.6 -31.75 5.9 -31.05 4.65 -31.45 Q2.8 -32.25 1.25 -33.8 L0.5 -36.4 M-18.45 -81.7 L-15.95 -79.65 Q-12.4 -76.6 -9.65 -72.85 L-11.6 -70.05 -11.9 -70.35 Q-16.45 -75.15 -18.45 -81.7 M-28.1 -66.9 Q-26.75 -66.15 -26.0 -64.75 L-25.9 -64.6 -25.9 -63.6 -26.35 -61.75 -26.4 -61.6 -27.3 -61.6 Q-32.7 -62.15 -36.1 -66.45 L-36.15 -66.55 -36.85 -70.1 -28.1 -66.9 M-39.25 -52.0 L-39.85 -52.05 -40.5 -52.3 -41.7 -51.65 -42.85 -52.25 Q-47.2 -54.7 -49.8 -59.0 L-50.55 -61.35 -48.7 -60.05 Q-45.4 -57.8 -41.35 -57.15 L-40.2 -54.15 -39.25 -52.0 M-12.5 -59.5 L-13.15 -61.0 Q-6.8 -60.65 -2.1 -56.6 L-1.8 -56.3 -2.25 -55.5 Q-2.9 -54.55 -3.95 -54.0 -8.05 -57.15 -12.5 -59.5 M-49.3 -43.6 L-47.25 -40.1 -48.55 -39.9 -58.5 -41.4 -59.85 -42.4 -55.0 -45.05 -52.1 -44.55 Q-50.5 -44.35 -49.3 -43.6 M-39.8 -19.7 L-40.45 -20.2 Q-36.3 -23.55 -30.95 -24.1 L-30.35 -23.55 -30.55 -22.8 Q-32.6 -19.1 -37.65 -19.25 L-39.8 -19.7 M-44.7 -6.8 L-43.2 -6.8 Q-42.6 -6.8 -41.65 -6.15 L-41.45 -6.0 -41.45 -5.9 -42.65 -5.2 Q-44.55 -4.1 -46.9 -4.0 L-44.7 -6.8 M-22.0 -32.15 Q-18.15 -34.3 -13.85 -34.0 L-11.25 -33.65 -11.2 -32.55 -12.5 -31.45 -14.8 -32.05 Q-18.4 -32.7 -22.0 -32.15 M-25.85 -48.55 Q-25.25 -46.85 -25.25 -46.15 L-25.25 -46.0 -33.5 -44.95 -34.15 -45.0 -36.05 -45.65 Q-31.25 -48.35 -25.85 -48.55 M-21.85 -11.5 L-23.3 -12.1 Q-20.95 -13.6 -18.15 -13.95 L-16.7 -14.05 -17.05 -12.65 -21.85 -11.5" fill="#eac679" fill-rule="evenodd" stroke="none"/>
    <path d="M21.7 -62.15 L21.55 -62.25 23.45 -66.45 23.85 -67.3 24.9 -68.25 Q28.45 -72.25 26.75 -77.4 L28.8 -73.75 28.1 -71.35 Q26.45 -66.5 22.95 -63.2 L21.7 -62.15 M16.8 -72.35 L16.75 -75.5 Q17.25 -73.15 18.6 -71.2 17.8 -71.35 16.8 -72.35 M1.95 -73.25 Q4.45 -78.45 2.25 -85.45 L4.45 -82.8 Q4.55 -76.8 3.1 -71.1 L2.9 -71.45 1.95 -73.25 M10.95 -49.4 Q12.6 -51.9 13.6 -54.75 12.65 -49.55 15.3 -47.55 L14.85 -47.55 Q12.3 -47.55 10.95 -49.4 M0.35 -30.35 L0.2 -31.85 Q0.1 -34.15 0.5 -36.4 L1.25 -33.8 Q2.25 -30.7 4.55 -29.45 L3.4 -29.2 Q1.6 -29.2 0.35 -30.35 M-18.85 -71.55 Q-18.65 -77.75 -21.0 -83.6 L-19.1 -82.15 Q-16.95 -74.7 -16.3 -67.0 L-17.1 -68.25 -18.4 -70.65 -18.85 -71.55 M-26.05 -66.3 L-26.65 -66.6 -26.1 -66.4 -26.05 -66.3 M-34.3 -60.8 L-36.15 -66.55 -36.1 -66.45 Q-34.65 -62.95 -32.2 -60.4 L-34.3 -60.8 M-49.8 -59.0 L-49.05 -56.85 Q-47.8 -53.75 -46.05 -51.05 L-48.95 -51.45 Q-51.05 -56.2 -51.05 -61.8 L-50.55 -61.35 -49.8 -59.0 M-10.8 -53.5 Q-11.2 -56.25 -12.3 -59.0 -9.4 -55.8 -6.4 -53.3 L-8.0 -53.2 -10.8 -53.5 M-49.35 -37.0 L-51.85 -36.75 -52.2 -36.7 -57.25 -40.45 -49.35 -37.0 M-50.3 -45.2 L-49.9 -44.6 -53.5 -45.4 -50.3 -45.2 M-50.6 -25.4 L-50.75 -25.5 -55.85 -28.5 -57.8 -29.35 -51.3 -31.55 -50.55 -30.7 Q-52.4 -30.25 -54.35 -29.3 -51.75 -28.2 -49.5 -26.65 -49.8 -26.0 -50.6 -25.4 M-34.15 -14.85 Q-36.45 -17.95 -39.8 -19.7 L-37.65 -19.25 Q-32.5 -16.4 -29.5 -17.95 L-29.75 -17.5 Q-30.6 -15.7 -33.65 -15.0 L-34.15 -14.85 M-46.55 -11.2 Q-50.3 -13.55 -54.8 -14.7 L-56.65 -15.2 -53.15 -15.2 -46.3 -14.55 -46.2 -13.45 Q-46.2 -12.0 -46.55 -11.2 M-50.5 -18.3 L-48.25 -18.7 -48.15 -18.55 -47.85 -18.1 -50.5 -18.3 M-38.55 -3.0 Q-38.25 -2.0 -38.25 -1.3 -38.25 -0.8 -38.4 -0.3 -42.8 -2.1 -47.85 -2.2 L-46.95 -3.95 -38.55 -3.0 M-15.85 -26.6 Q-16.95 -28.2 -18.55 -29.45 L-20.45 -30.95 -10.4 -28.3 Q-10.9 -27.5 -11.7 -27.35 L-15.85 -26.6 M-26.9 -42.4 Q-27.65 -41.55 -29.0 -41.25 L-30.55 -42.55 Q-32.3 -43.85 -34.15 -45.0 L-33.5 -44.95 Q-29.95 -42.75 -26.9 -42.4 M-19.25 -9.5 L-20.0 -10.3 Q-18.2 -9.35 -16.15 -9.05 -17.35 -8.5 -18.35 -9.3 L-19.25 -9.5" fill="#cb9b38" fill-rule="evenodd" stroke="none"/>
  </g>
</svg>
