<?xml version="1.0" encoding="UTF-8" standalone="no"?>
<svg xmlns:ffdec="https://www.free-decompiler.com/flash" xmlns:xlink="http://www.w3.org/1999/xlink" ffdec:objectType="shape" height="105.5px" width="64.25px" xmlns="http://www.w3.org/2000/svg">
  <g transform="matrix(1.0, 0.0, 0.0, 1.0, -1.3, -1.35)">
    <path d="M22.9 26.25 Q23.3 27.05 23.75 30.55 24.2 34.0 24.05 35.15 L24.0 36.4 Q24.9 33.55 24.9 32.55 L24.5 31.05 24.1 29.5 Q24.1 24.5 29.75 20.85 34.5 17.8 38.55 17.8 41.6 17.8 43.05 15.7 44.25 14.0 44.25 11.2 44.25 7.9 41.95 5.8 39.7 3.8 36.35 3.8 23.25 3.8 13.75 19.55 5.7 32.85 5.45 45.35 L8.05 44.75 Q10.8 43.35 12.1 41.35 14.0 38.3 14.05 32.5 L14.8 27.95 Q16.55 25.9 19.2 24.85 L20.7 25.35 22.9 26.25 M44.2 17.7 Q42.15 19.3 38.1 20.3 34.05 21.25 32.8 21.95 30.1 23.45 29.9 25.65 29.7 27.8 28.05 29.35 L26.2 31.05 Q26.05 31.15 25.05 35.25 L24.1 39.35 Q24.1 40.0 24.4 40.35 L25.05 40.9 25.05 41.8 Q22.4 39.05 22.35 32.75 22.35 27.25 21.75 27.25 21.25 27.25 20.5 26.8 19.7 26.35 19.2 26.35 16.1 26.35 15.5 31.1 L14.7 39.0 Q13.8 42.05 11.65 44.15 8.75 47.0 4.45 47.0 L1.55 47.0 Q0.15 41.85 6.0 29.25 11.85 16.65 14.45 14.55 17.0 12.45 18.95 12.05 L19.6 9.1 Q20.15 6.5 20.95 5.8 21.75 5.05 23.1 5.4 24.45 5.7 24.9 5.2 25.35 4.65 29.55 2.9 33.75 1.1 39.8 1.4 45.85 1.7 46.05 8.9 46.2 16.05 44.2 17.7 M25.25 55.2 L21.55 56.65 20.45 58.6 Q19.6 60.8 20.4 63.65 L21.4 68.6 22.5 70.9 23.75 72.4 26.65 73.6 Q29.8 73.6 32.05 72.45 34.25 71.3 34.25 69.65 L35.3 66.95 35.8 64.3 Q35.8 60.55 32.7 57.9 29.6 55.2 25.25 55.2 M21.35 56.85 Q24.1 53.7 28.0 53.7 31.9 53.7 34.65 56.85 37.4 59.95 37.4 64.4 37.4 68.85 34.65 72.0 31.9 75.1 28.0 75.1 24.1 75.1 21.35 72.0 18.6 68.85 18.6 64.4 18.6 59.95 21.35 56.85 M6.75 57.35 L7.4 61.15 8.05 65.7 Q8.05 66.7 7.3 69.3 L8.15 67.95 8.8 66.2 9.15 64.15 8.7 60.8 Q8.05 58.4 6.75 57.35 M2.55 52.7 Q10.65 56.1 10.65 65.3 10.65 69.5 7.8 71.45 6.65 72.2 3.75 72.95 L3.6 73.0 Q3.75 71.65 3.4 70.9 L2.25 69.1 3.5 63.4 Q2.15 59.8 2.15 59.25 2.15 57.7 2.8 56.8 3.45 55.85 3.2 55.2 L2.55 52.7 M16.7 82.7 Q19.35 82.7 21.2 84.8 23.25 87.15 23.25 91.25 23.25 93.65 21.4 95.0 19.85 96.15 17.85 96.15 13.2 96.15 11.7 95.1 10.1 94.0 10.1 90.5 10.1 86.85 12.15 84.65 14.0 82.65 16.7 82.7 M21.7 91.9 Q21.7 88.7 20.15 86.45 18.6 84.15 16.45 84.15 L13.5 86.15 Q12.75 86.6 12.75 86.75 12.75 87.85 13.95 89.5 15.9 92.1 19.95 94.1 L21.7 91.9 M64.65 73.6 Q65.55 76.15 65.55 77.25 65.55 79.0 64.35 82.7 L62.85 87.95 62.85 88.05 Q62.15 88.4 62.15 87.4 L60.8 83.8 60.7 81.8 Q60.4 79.65 58.8 77.0 58.1 75.9 54.75 74.75 L51.6 73.55 Q51.6 73.15 50.8 73.15 L48.65 73.0 Q45.0 72.25 42.0 67.05 39.3 62.25 40.85 58.7 L40.9 58.4 41.75 58.75 42.2 58.85 44.95 57.65 48.15 56.5 53.15 57.85 Q58.0 59.3 60.55 61.7 63.05 64.05 63.3 65.5 63.55 66.95 63.6 70.4 63.65 70.8 64.65 73.6 M58.35 74.25 Q60.2 75.45 61.4 79.05 62.4 81.95 62.3 83.55 L62.65 82.0 62.95 77.9 Q62.95 68.1 56.65 63.45 51.75 59.85 44.15 59.85 L42.9 60.1 Q41.75 60.6 41.75 61.85 41.75 62.5 42.1 63.5 L42.75 65.15 43.9 67.05 45.15 68.9 Q46.05 69.65 47.75 70.5 50.4 71.9 53.0 72.4 L58.35 74.25 M45.4 85.5 L46.9 88.25 48.6 90.75 51.2 91.6 53.55 92.15 Q54.6 92.15 55.4 91.6 57.35 90.8 57.8 90.3 58.45 89.65 58.0 85.6 58.0 83.45 57.1 81.95 56.2 80.4 54.9 80.4 L52.45 79.95 Q49.55 79.95 47.5 81.6 45.4 83.2 45.4 85.5 M51.8 78.25 Q55.0 78.25 57.3 80.55 59.55 82.8 59.55 86.0 59.55 89.2 57.3 91.5 55.0 93.75 51.8 93.75 48.6 93.75 46.35 91.5 44.05 89.2 44.05 86.0 44.05 82.8 46.35 80.55 48.6 78.25 51.8 78.25 M49.95 96.45 Q52.2 96.45 52.2 97.05 56.5 99.05 57.0 99.05 L57.05 99.1 Q55.65 101.55 53.15 103.55 50.6 105.55 48.75 105.2 46.9 104.85 45.5 106.05 44.05 107.25 42.75 106.7 L39.4 105.6 Q37.25 106.8 35.2 106.85 L31.05 106.35 28.15 105.4 27.25 104.9 Q27.1 104.75 27.7 104.75 L29.3 103.1 Q31.1 100.85 36.0 98.65 L42.25 97.2 46.95 96.6 49.95 96.45 M47.6 98.1 L42.45 98.25 Q38.9 99.6 36.5 100.05 L42.1 100.6 44.3 100.15 51.9 98.5 47.6 98.1" fill="#280702" fill-rule="evenodd" stroke="none"/>
    <path d="M8.05 44.75 L5.45 45.35 Q5.7 32.85 13.75 19.55 23.25 3.8 36.35 3.8 39.7 3.8 41.95 5.8 44.25 7.9 44.25 11.2 44.25 14.0 43.05 15.7 41.6 17.8 38.55 17.8 34.5 17.8 29.75 20.85 24.1 24.5 24.1 29.5 L24.5 31.05 24.9 32.55 Q24.9 33.55 24.0 36.4 L24.05 35.15 Q24.2 34.0 23.75 30.55 23.3 27.05 22.9 26.25 26.2 16.0 34.5 13.5 L39.7 12.4 Q41.9 11.85 41.9 10.45 41.9 8.1 41.35 6.9 40.4 4.75 37.6 4.75 32.55 4.75 30.7 6.85 28.7 9.2 26.2 9.45 25.8 11.65 23.4 14.55 L19.85 18.55 18.1 20.65 17.75 21.1 Q10.25 30.7 8.05 44.75 M25.25 55.2 Q29.6 55.2 32.7 57.9 35.8 60.55 35.8 64.3 33.95 63.65 32.2 62.3 29.4 60.15 25.25 55.2 M6.75 57.35 Q8.05 58.4 8.7 60.8 L9.15 64.15 8.8 66.2 8.15 67.95 7.3 69.3 Q8.05 66.7 8.05 65.7 L7.4 61.15 6.75 57.35 M21.7 91.9 L19.95 94.1 Q15.9 92.1 13.95 89.5 12.75 87.85 12.75 86.75 12.75 86.6 13.5 86.15 L16.45 84.15 Q16.45 87.35 18.0 89.65 19.55 91.9 21.7 91.9 M42.75 65.15 L42.1 63.5 Q41.75 62.5 41.75 61.85 41.75 60.6 42.9 60.1 L44.15 59.85 Q51.75 59.85 56.65 63.45 62.95 68.1 62.95 77.9 L62.65 82.0 62.3 83.55 Q62.4 81.95 61.4 79.05 60.2 75.45 58.35 74.25 58.35 70.5 53.8 67.85 49.2 65.15 42.75 65.15 M58.0 85.6 Q58.45 89.65 57.8 90.3 57.35 90.8 55.4 91.6 56.4 90.2 57.15 88.15 L58.0 85.6 M47.6 98.1 L51.9 98.5 44.3 100.15 42.1 100.6 36.5 100.05 Q38.9 99.6 42.45 98.25 L47.6 98.1" fill="#3d0c04" fill-rule="evenodd" stroke="none"/>
    <path d="M8.05 44.75 Q10.25 30.7 17.75 21.1 L17.75 21.35 Q17.75 22.55 18.6 23.4 19.45 24.25 20.65 24.25 21.85 24.25 22.7 23.4 23.55 22.55 23.55 21.35 23.55 20.15 22.7 19.3 21.85 18.45 20.65 18.45 L19.85 18.55 23.4 14.55 Q25.8 11.65 26.2 9.45 28.7 9.2 30.7 6.85 32.55 4.75 37.6 4.75 40.4 4.75 41.35 6.9 41.9 8.1 41.9 10.45 41.9 11.85 39.7 12.4 L34.5 13.5 Q26.2 16.0 22.9 26.25 L20.7 25.35 19.2 24.85 Q16.55 25.9 14.8 27.95 L14.15 29.0 Q13.85 29.55 13.85 30.15 L14.05 32.5 Q14.0 38.3 12.1 41.35 10.8 43.35 8.05 44.75 M37.65 7.55 Q36.75 6.65 35.45 6.65 34.15 6.65 33.25 7.55 32.35 8.45 32.35 9.7 32.35 10.95 33.25 11.85 34.15 12.75 35.45 12.75 36.75 12.75 37.65 11.85 38.55 10.95 38.55 9.7 38.55 8.45 37.65 7.55 M28.9 12.8 Q28.35 12.2 27.55 12.2 26.75 12.2 26.2 12.8 25.65 13.35 25.65 14.15 25.65 14.95 26.2 15.55 26.75 16.1 27.55 16.1 28.35 16.1 28.9 15.55 29.45 14.95 29.45 14.15 29.45 13.35 28.9 12.8 M21.55 56.65 L25.25 55.2 Q29.4 60.15 32.2 62.3 33.95 63.65 35.8 64.3 L35.3 66.95 Q30.4 65.05 29.15 63.95 L21.55 56.65 M16.45 84.15 Q18.6 84.15 20.15 86.45 21.7 88.7 21.7 91.9 19.55 91.9 18.0 89.65 16.45 87.35 16.45 84.15 M58.35 74.25 L53.0 72.4 Q53.0 70.95 50.7 69.95 48.4 68.9 45.15 68.9 L43.9 67.05 42.75 65.15 Q49.2 65.15 53.8 67.85 58.35 70.5 58.35 74.25 M48.6 90.75 Q51.2 90.75 53.05 87.75 54.9 84.7 54.9 80.4 56.2 80.4 57.1 81.95 58.0 83.45 58.0 85.6 L57.15 88.15 Q56.4 90.2 55.4 91.6 54.6 92.15 53.55 92.15 L51.2 91.6 48.6 90.75" fill="#6e2012" fill-rule="evenodd" stroke="none"/>
    <path d="M17.75 21.1 L18.1 20.65 19.85 18.55 20.65 18.45 Q21.85 18.45 22.7 19.3 23.55 20.15 23.55 21.35 23.55 22.55 22.7 23.4 21.85 24.25 20.65 24.25 19.45 24.25 18.6 23.4 17.75 22.55 17.75 21.35 L17.75 21.1 M14.8 27.95 L14.05 32.5 13.85 30.15 Q13.85 29.55 14.15 29.0 L14.8 27.95 M28.9 12.8 Q29.45 13.35 29.45 14.15 29.45 14.95 28.9 15.55 28.35 16.1 27.55 16.1 26.75 16.1 26.2 15.55 25.65 14.95 25.65 14.15 25.65 13.35 26.2 12.8 26.75 12.2 27.55 12.2 28.35 12.2 28.9 12.8 M37.65 7.55 Q38.55 8.45 38.55 9.7 38.55 10.95 37.65 11.85 36.75 12.75 35.45 12.75 34.15 12.75 33.25 11.85 32.35 10.95 32.35 9.7 32.35 8.45 33.25 7.55 34.15 6.65 35.45 6.65 36.75 6.65 37.65 7.55 M35.3 66.95 L34.25 69.65 Q30.15 67.65 28.15 70.05 27.55 70.75 26.65 73.6 L23.75 72.4 24.7 71.75 25.6 70.85 24.05 69.3 23.2 70.05 22.5 70.9 21.4 68.6 Q23.55 68.35 24.6 67.5 25.6 66.6 25.25 65.6 24.85 64.6 23.35 64.05 L20.4 63.65 Q19.6 60.8 20.45 58.6 L21.55 56.65 29.15 63.95 Q30.4 65.05 35.3 66.95 M53.0 72.4 Q50.4 71.9 47.75 70.5 46.05 69.65 45.15 68.9 48.4 68.9 50.7 69.95 53.0 70.95 53.0 72.4 M45.4 85.5 L47.7 85.85 Q50.35 85.85 51.45 84.05 52.1 82.9 52.45 79.95 L54.9 80.4 Q54.9 84.7 53.05 87.75 51.2 90.75 48.6 90.75 L46.9 88.25 45.4 85.5" fill="#9f321f" fill-rule="evenodd" stroke="none"/>
    <path d="M34.25 69.65 Q34.25 71.3 32.05 72.45 29.8 73.6 26.65 73.6 27.55 70.75 28.15 70.05 30.15 67.65 34.25 69.65 M23.75 72.4 L22.5 70.9 23.2 70.05 24.05 69.3 25.6 70.85 24.7 71.75 23.75 72.4 M21.4 68.6 L20.4 63.65 23.35 64.05 Q24.85 64.6 25.25 65.6 25.6 66.6 24.6 67.5 23.55 68.35 21.4 68.6 M52.45 79.95 Q52.1 82.9 51.45 84.05 50.35 85.85 47.7 85.85 L45.4 85.5 Q45.4 83.2 47.5 81.6 49.55 79.95 52.45 79.95" fill="#b35a4b" fill-rule="evenodd" stroke="none"/>
  </g>
</svg>
