<?xml version="1.0" encoding="UTF-8" standalone="no"?>
<svg xmlns:ffdec="https://www.free-decompiler.com/flash" xmlns:xlink="http://www.w3.org/1999/xlink" ffdec:objectType="shape" height="105.1px" width="64.0px" xmlns="http://www.w3.org/2000/svg">
  <g transform="matrix(1.0, 0.0, 0.0, 1.0, -1.55, -1.7)">
    <path d="M43.9 8.65 L45.3 8.6 45.85 11.5 45.45 15.35 45.1 16.2 44.5 17.25 Q43.2 18.5 40.15 19.35 L38.65 19.7 38.55 19.6 38.45 19.3 38.2 18.2 38.2 18.25 37.6 15.7 37.8 14.0 Q38.4 11.3 41.0 9.8 41.2 9.6 41.45 9.5 L41.4 9.55 Q42.8 8.8 44.0 8.65 L43.9 8.65 M39.25 14.35 Q39.1 15.7 39.65 17.85 40.9 18.0 42.55 16.15 44.45 14.0 44.25 11.2 44.85 9.5 43.7 10.0 L41.9 11.0 40.55 12.6 39.25 14.35 M37.55 1.7 L37.7 1.7 38.7 1.75 41.0 2.25 40.25 2.95 40.1 3.05 40.05 3.05 40.0 3.15 37.3 5.05 Q36.35 5.65 35.1 6.5 L35.15 6.45 34.15 7.1 34.15 7.05 31.75 8.8 31.15 9.3 31.2 9.3 Q28.95 11.2 27.85 13.3 L27.8 13.35 Q27.35 14.0 27.15 14.75 L27.1 14.8 Q26.6 16.15 26.6 17.7 26.6 18.9 27.3 20.3 L27.3 20.35 Q28.0 21.7 29.25 23.3 L30.25 24.45 29.75 25.9 29.5 26.7 28.85 28.1 28.65 28.35 27.5 29.4 26.25 30.75 Q25.6 32.6 24.85 35.55 24.1 38.55 24.1 39.35 24.1 39.95 24.6 40.45 L25.05 40.9 Q25.0 44.25 25.35 45.25 26.1 47.0 28.05 49.7 L28.9 50.85 29.9 52.15 28.5 54.45 26.95 56.8 26.95 56.85 25.45 58.7 25.4 58.75 24.7 59.55 24.6 59.65 Q22.55 61.6 20.45 62.4 L17.25 63.0 16.4 63.0 16.25 63.0 13.3 62.4 13.25 62.4 Q10.1 61.35 6.95 58.75 L5.85 57.8 5.8 57.75 5.25 57.25 5.2 57.2 3.6 55.65 3.6 55.55 2.6 52.8 1.85 50.35 1.6 48.15 1.55 47.7 1.55 47.55 1.55 47.35 Q1.55 38.8 6.75 28.05 8.8 23.85 13.9 15.75 14.7 14.45 16.8 13.35 L18.95 12.05 20.0 8.2 Q20.8 5.7 22.8 5.7 L23.8 6.0 Q24.7 6.0 27.0 4.2 27.9 3.55 31.55 2.65 35.35 1.7 37.55 1.7 M30.8 7.65 L34.3 5.2 36.45 3.8 Q21.0 8.25 12.1 23.75 5.15 35.9 5.15 47.15 L6.5 50.85 6.0 52.65 Q5.5 53.95 5.5 54.45 L6.1 55.55 7.9 57.6 10.65 59.25 13.7 60.95 16.4 61.5 19.9 61.0 23.55 58.55 25.7 55.95 Q27.2 54.65 27.2 53.65 27.2 52.25 25.0 49.2 22.8 46.2 22.8 42.2 22.8 41.45 23.85 37.05 L24.9 32.7 24.5 31.1 24.1 29.5 26.1 27.55 Q28.05 25.6 28.05 24.2 28.05 23.65 27.35 22.8 L25.95 21.0 Q25.1 18.95 25.1 17.7 25.1 16.5 25.7 14.25 L26.5 12.55 30.2 8.15 30.8 7.65 M8.5 42.1 Q10.05 41.05 11.65 40.85 L12.6 40.85 Q13.2 41.6 13.85 41.6 14.55 41.6 14.9 41.3 L15.3 41.55 Q16.2 42.15 16.2 43.05 L16.85 45.8 Q16.85 48.2 15.55 49.95 14.2 51.65 12.3 51.65 L10.55 51.1 8.8 50.4 Q6.25 46.45 6.25 45.5 6.25 44.15 8.5 42.1 M8.0 44.75 L7.7 46.15 7.7 46.25 7.7 46.35 7.7 46.45 Q7.75 47.9 8.85 49.0 9.95 50.1 11.55 50.1 L11.65 50.1 13.1 49.8 14.3 49.0 15.1 47.8 15.4 46.35 15.4 46.25 Q15.4 44.65 14.3 43.55 13.15 42.4 11.55 42.4 L11.45 42.4 10.05 42.7 Q9.35 43.0 8.85 43.55 L8.0 44.75 M39.4 63.9 L38.45 61.45 Q37.55 59.65 35.6 59.65 L32.3 60.0 30.65 61.25 29.9 62.1 Q29.25 62.9 28.9 63.65 28.75 64.6 29.0 65.25 29.35 66.15 31.05 68.55 L32.7 69.2 34.35 69.75 Q35.95 69.65 38.15 68.25 L39.15 66.7 Q39.85 65.2 39.4 63.9 M31.2 59.1 Q31.8 58.65 32.7 58.5 L34.05 58.2 33.95 58.25 35.7 58.15 Q37.3 58.25 38.5 59.15 L38.25 58.45 38.25 58.4 37.9 57.25 39.65 57.95 42.8 58.9 45.2 57.8 Q47.65 56.7 48.6 56.7 49.15 56.7 52.95 57.9 56.9 59.15 57.7 59.65 62.0 62.5 63.1 65.25 63.55 66.35 63.5 69.85 63.65 71.75 65.55 77.05 65.55 78.35 64.2 82.75 62.85 87.1 62.85 87.95 62.9 90.55 62.15 91.85 L58.5 97.05 Q55.4 101.6 52.6 103.55 50.95 104.7 50.0 104.7 L46.15 104.85 Q45.9 104.85 45.35 105.3 L44.85 105.7 43.9 106.45 42.8 106.7 39.4 105.6 Q36.55 106.8 35.8 106.8 L32.7 106.55 Q29.25 105.8 23.55 103.4 15.0 99.8 10.5 94.45 7.0 90.3 7.0 86.95 L7.35 83.4 5.25 81.1 Q3.15 79.1 3.15 78.0 L3.2 77.45 3.2 77.4 3.4 75.35 3.5 74.25 3.65 72.25 Q4.05 72.45 4.45 73.0 L9.6 73.85 13.5 74.7 Q16.05 75.35 18.1 76.2 L18.1 76.25 20.1 77.2 21.4 77.95 21.45 77.95 Q23.25 79.15 24.6 81.0 L24.65 81.05 Q26.0 82.85 26.9 85.3 L26.9 85.45 27.0 85.7 27.05 85.8 Q27.9 88.35 27.9 93.6 L28.0 95.0 28.0 95.1 28.3 96.35 28.4 96.55 Q30.0 98.65 35.05 98.65 L36.55 98.55 Q41.0 98.05 43.85 94.3 L43.9 94.3 45.65 91.35 45.65 91.4 46.15 90.3 Q47.1 87.95 47.7 85.45 48.25 82.6 48.25 79.5 48.25 77.45 47.7 75.35 46.9 72.3 45.05 69.25 L43.1 66.45 42.25 65.3 40.85 63.35 40.9 63.7 40.9 63.75 41.0 65.9 Q41.15 67.15 39.45 69.05 L39.2 69.35 Q37.2 71.3 34.75 71.25 L34.35 71.25 34.3 71.25 Q31.8 71.15 30.1 69.75 L30.1 69.7 Q29.3 69.05 28.65 68.05 L28.5 67.8 Q27.15 64.6 27.25 64.45 L27.45 63.3 Q27.8 61.65 29.5 60.25 L29.75 60.05 Q30.4 59.5 31.2 59.1 M20.55 79.25 L19.4 78.5 17.5 77.6 13.1 76.15 9.3 75.3 11.6 80.1 Q12.0 80.85 12.0 82.0 12.0 87.0 15.15 90.6 18.9 94.95 26.95 97.0 L26.5 95.2 Q26.7 93.6 26.3 90.35 25.95 87.3 25.45 85.8 24.25 83.1 23.4 81.9 L23.25 81.75 23.25 81.5 Q23.25 79.6 21.55 79.2 L20.55 79.25 M37.0 93.55 L36.95 93.5 33.6 92.1 32.6 91.25 31.85 90.4 30.2 86.1 30.15 85.45 30.15 85.35 30.15 85.25 31.8 80.45 32.6 79.5 33.7 78.55 37.6 77.1 37.7 77.1 37.8 77.1 37.9 77.1 38.2 77.05 38.5 77.05 38.6 77.05 38.7 77.05 38.8 77.05 43.2 78.45 44.4 79.5 45.2 80.4 46.85 85.05 46.85 85.35 46.85 85.45 46.85 85.55 46.85 85.65 45.2 90.35 44.4 91.25 43.3 92.2 39.45 93.65 39.35 93.65 39.25 93.65 39.15 93.65 Q38.8 92.85 38.05 92.8 37.3 92.75 37.0 93.55 M43.95 80.85 Q43.15 80.25 40.2 79.65 L36.35 79.3 34.3 80.6 Q32.65 81.75 32.3 82.15 L31.95 82.95 31.35 84.75 Q32.1 86.15 32.05 87.55 L34.7 90.9 Q35.05 91.2 35.8 91.5 L37.15 91.85 Q40.65 91.85 43.15 90.05 45.6 88.2 45.6 85.65 L44.9 83.25 43.95 80.85 M45.05 95.2 L41.6 97.85 Q38.9 99.7 38.0 99.9 L36.7 100.05 42.1 100.6 Q48.65 100.6 53.45 97.7 62.95 92.05 62.95 77.05 62.95 70.05 58.75 65.4 53.7 59.85 44.15 59.85 L43.25 60.45 41.45 61.55 43.45 64.4 46.3 68.45 49.15 74.95 Q49.9 76.5 49.75 80.55 49.6 84.0 49.15 85.75 L47.55 90.85 Q46.4 93.3 45.05 95.2" fill="#48250b" fill-rule="evenodd" stroke="none"/>
    <path d="M41.9 11.0 L43.7 10.0 Q44.85 9.5 44.25 11.2 44.45 14.0 42.55 16.15 40.9 18.0 39.65 17.85 39.1 15.7 39.25 14.35 40.35 14.35 41.15 13.4 41.9 12.4 41.9 11.0 M34.3 5.2 Q31.4 6.65 30.8 7.65 L30.2 8.15 27.95 8.85 25.75 9.4 25.95 10.75 Q24.7 13.15 21.3 16.2 L19.45 17.9 18.9 18.4 15.3 21.8 Q8.05 29.65 8.5 42.1 6.25 44.15 6.25 45.5 6.25 46.45 8.8 50.4 L8.05 52.85 Q7.35 54.65 7.35 55.35 7.35 56.0 7.5 56.4 L7.9 57.6 6.1 55.55 5.5 54.45 Q5.5 53.95 6.0 52.65 L6.5 50.85 5.15 47.15 Q5.15 35.9 12.1 23.75 21.0 8.25 36.45 3.8 L34.3 5.2 M25.95 21.0 L27.35 22.8 Q28.05 23.65 28.05 24.2 28.05 25.6 26.1 27.55 L24.1 29.5 24.5 31.1 24.9 32.7 23.85 37.05 Q22.8 41.45 22.8 42.2 22.8 46.2 25.0 49.2 27.2 52.25 27.2 53.65 27.2 54.65 25.7 55.95 L21.8 48.0 Q20.0 44.35 20.0 41.15 L20.75 37.45 Q21.45 33.85 21.45 32.3 21.45 31.0 23.25 26.5 25.05 22.0 25.95 21.0 M30.65 61.25 L32.3 60.0 35.6 59.65 Q37.55 59.65 38.45 61.45 L39.4 63.9 35.95 64.35 Q35.1 64.35 33.9 63.55 L30.65 61.25 M13.1 76.15 Q13.1 84.05 17.05 89.65 20.95 95.2 26.5 95.2 L26.95 97.0 Q18.9 94.95 15.15 90.6 12.0 87.0 12.0 82.0 12.0 80.85 11.6 80.1 L9.3 75.3 13.1 76.15 M43.45 64.4 L41.45 61.55 43.25 60.45 44.15 59.85 Q53.7 59.85 58.75 65.4 62.95 70.05 62.95 77.05 62.95 92.05 53.45 97.7 48.65 100.6 42.1 100.6 L36.7 100.05 38.0 99.9 Q38.9 99.7 41.6 97.85 L45.05 95.2 Q52.3 94.85 57.15 90.1 62.0 85.35 61.65 79.05 61.25 72.7 55.9 68.4 50.55 64.1 43.45 64.4" fill="#66340f" fill-rule="evenodd" stroke="none"/>
    <path d="M41.9 11.0 Q41.9 12.4 41.15 13.4 40.35 14.35 39.25 14.35 L40.55 12.6 41.9 11.0 M34.3 5.2 L30.8 7.65 Q31.4 6.65 34.3 5.2 M30.2 8.15 L26.5 12.55 26.0 13.45 25.7 14.25 Q25.1 16.5 25.1 17.7 25.1 18.95 25.95 21.0 25.05 22.0 23.25 26.5 21.45 31.0 21.45 32.3 21.45 33.85 20.75 37.45 L20.0 41.15 Q20.0 44.35 21.8 48.0 L25.7 55.95 23.55 58.55 21.5 56.6 Q21.1 56.2 21.1 55.5 21.1 52.6 19.75 50.75 18.35 48.85 18.35 48.3 L18.75 46.9 19.1 45.45 Q19.1 43.8 18.05 42.25 L16.95 40.95 Q16.95 37.65 18.5 33.85 20.0 30.1 20.0 28.4 20.0 27.1 17.35 27.1 15.85 27.1 14.85 27.9 13.85 28.75 13.85 30.15 L13.5 36.0 13.45 36.65 Q11.4 36.25 11.4 38.3 11.4 38.8 12.05 40.05 L12.6 40.85 11.65 40.85 Q10.05 41.05 8.5 42.1 8.05 29.65 15.3 21.8 L18.9 18.4 18.8 19.0 18.8 19.15 18.6 19.3 Q17.75 20.15 17.75 21.35 17.75 22.55 18.6 23.4 19.45 24.25 20.65 24.25 21.85 24.25 22.7 23.4 23.55 22.55 23.55 21.35 23.55 20.15 22.7 19.3 22.0 18.6 21.0 18.5 20.7 18.05 20.05 17.9 L19.45 17.9 21.3 16.2 Q24.7 13.15 25.95 10.75 L25.75 9.4 27.95 8.85 30.2 8.15 M13.7 60.95 L10.65 59.25 7.9 57.6 7.5 56.4 Q7.35 56.0 7.35 55.35 7.35 54.65 8.05 52.85 L8.8 50.4 10.55 51.1 12.3 51.65 11.95 52.95 Q12.15 54.35 13.3 55.75 L14.4 57.0 14.05 59.0 Q13.7 60.5 13.7 60.95 M30.65 61.25 L33.9 63.55 Q35.1 64.35 35.95 64.35 L39.4 63.9 Q39.85 65.2 39.15 66.7 L38.15 68.25 31.95 65.25 Q29.6 64.15 28.9 63.65 29.25 62.9 29.9 62.1 L30.65 61.25 M10.25 57.75 Q11.9 57.75 11.9 55.3 11.9 53.9 10.0 53.6 8.05 53.25 8.05 55.8 8.05 56.4 8.75 57.1 9.5 57.75 10.25 57.75 M17.5 77.6 Q17.55 79.3 19.45 81.15 L19.9 81.6 20.0 82.25 Q20.45 83.85 21.75 83.85 L22.5 83.65 25.45 85.8 Q25.95 87.3 26.3 90.35 26.7 93.6 26.5 95.2 20.95 95.2 17.05 89.65 13.1 84.05 13.1 76.15 L17.5 77.6 M34.7 90.9 L37.15 91.85 35.8 91.5 Q35.05 91.2 34.7 90.9 M43.45 64.4 Q50.55 64.1 55.9 68.4 61.25 72.7 61.65 79.05 62.0 85.35 57.15 90.1 52.3 94.85 45.05 95.2 46.4 93.3 47.55 90.85 L49.65 90.8 Q51.1 90.7 52.05 90.05 54.9 88.15 54.9 80.2 54.9 75.7 53.1 72.7 50.9 69.0 46.3 68.45 L43.45 64.4" fill="#874514" fill-rule="evenodd" stroke="none"/>
    <path d="M26.5 12.55 L25.7 14.25 26.0 13.45 26.5 12.55 M23.55 58.55 L19.9 61.0 Q19.1 60.05 18.25 60.05 17.85 60.05 16.4 61.5 L13.7 60.95 Q13.7 60.5 14.05 59.0 L14.4 57.0 13.3 55.75 Q12.15 54.35 11.95 52.95 L12.3 51.65 Q14.2 51.65 15.55 49.95 16.85 48.2 16.85 45.8 17.2 45.65 17.2 44.65 17.2 43.55 16.2 43.05 16.2 42.15 15.3 41.55 L14.9 41.3 Q15.25 40.95 15.25 40.3 L15.5 39.55 15.75 38.8 Q15.75 37.15 13.6 36.65 L13.45 36.65 13.5 36.0 13.85 30.15 Q13.85 28.75 14.85 27.9 15.85 27.1 17.35 27.1 20.0 27.1 20.0 28.4 20.0 30.1 18.5 33.85 16.95 37.65 16.95 40.95 L18.05 42.25 Q19.1 43.8 19.1 45.45 L18.75 46.9 18.35 48.3 Q18.35 48.85 19.75 50.75 21.1 52.6 21.1 55.5 21.1 56.2 21.5 56.6 L23.55 58.55 M21.0 18.5 Q22.0 18.6 22.7 19.3 23.55 20.15 23.55 21.35 23.55 22.55 22.7 23.4 21.85 24.25 20.65 24.25 19.45 24.25 18.6 23.4 17.75 22.55 17.75 21.35 17.75 20.15 18.6 19.3 L18.8 19.15 19.05 20.65 19.45 20.9 20.0 21.0 Q21.3 21.0 21.3 19.5 21.3 18.85 21.0 18.5 M17.05 35.55 L17.3 34.9 17.05 34.3 Q16.8 34.0 16.45 34.0 16.1 34.0 15.85 34.3 15.6 34.55 15.6 34.9 L15.85 35.55 16.45 35.8 17.05 35.55 M38.15 68.25 Q35.95 69.65 34.35 69.75 32.75 68.8 31.05 68.55 29.35 66.15 29.0 65.25 28.75 64.6 28.9 63.65 29.6 64.15 31.95 65.25 L38.15 68.25 M18.75 53.9 Q18.15 53.3 17.35 53.3 16.55 53.3 16.0 53.9 15.4 54.45 15.4 55.3 15.4 56.15 16.0 56.75 16.55 57.3 17.35 57.3 18.15 57.3 18.75 56.75 19.3 56.15 19.3 55.3 19.3 54.45 18.75 53.9 M19.4 78.5 Q19.4 79.4 19.9 80.1 L19.8 80.8 19.9 81.6 19.45 81.15 Q17.55 79.3 17.5 77.6 L19.4 78.5 M25.45 85.8 L22.5 83.65 Q23.15 83.2 23.25 81.9 L23.4 81.9 Q24.25 83.1 25.45 85.8 M36.35 79.3 L40.2 79.65 Q43.15 80.25 43.95 80.85 43.65 82.95 44.1 84.05 44.45 84.75 45.6 85.65 45.6 88.2 43.15 90.05 40.65 91.85 37.15 91.85 L34.7 90.9 32.05 87.55 Q32.1 86.15 31.35 84.75 L31.95 82.95 32.3 82.15 Q34.0 82.15 35.2 81.35 36.35 80.5 36.35 79.3 M38.0 88.65 L38.35 88.65 Q40.0 88.65 41.15 87.5 42.3 86.3 42.3 84.65 42.3 83.0 41.15 81.85 40.0 80.65 38.35 80.65 36.7 80.65 35.55 81.85 34.4 83.0 34.4 84.65 34.4 85.5 34.7 86.2 L34.5 87.4 Q34.5 89.8 36.6 89.8 37.9 89.8 38.0 88.65 M47.55 90.85 L49.15 85.75 Q52.5 85.15 52.5 79.5 L52.75 79.5 Q54.25 79.5 54.25 78.15 54.25 76.25 52.4 76.1 L51.25 76.2 51.1 76.05 Q50.25 75.25 49.15 74.95 L46.3 68.45 Q50.9 69.0 53.1 72.7 54.9 75.7 54.9 80.2 54.9 88.15 52.05 90.05 51.1 90.7 49.65 90.8 L47.55 90.85" fill="#a8561a" fill-rule="evenodd" stroke="none"/>
    <path d="M19.9 61.0 L16.4 61.5 Q17.85 60.05 18.25 60.05 19.1 60.05 19.9 61.0 M16.2 43.05 Q17.2 43.55 17.2 44.65 17.2 45.65 16.85 45.8 L16.2 43.05 M17.05 35.55 L16.45 35.8 15.85 35.55 15.6 34.9 Q15.6 34.55 15.85 34.3 16.1 34.0 16.45 34.0 16.8 34.0 17.05 34.3 L17.3 34.9 17.05 35.55 M34.35 69.75 L32.7 69.2 31.05 68.55 Q32.75 68.8 34.35 69.75 M18.75 53.9 Q19.3 54.45 19.3 55.3 19.3 56.15 18.75 56.75 18.15 57.3 17.35 57.3 16.55 57.3 16.0 56.75 15.4 56.15 15.4 55.3 15.4 54.45 16.0 53.9 16.55 53.3 17.35 53.3 18.15 53.3 18.75 53.9 M19.9 80.1 Q19.4 79.4 19.4 78.5 L20.55 79.25 Q20.05 79.45 19.9 80.1 M23.25 81.9 L23.25 81.75 23.4 81.9 23.25 81.9 M36.35 79.3 Q36.35 80.5 35.2 81.35 34.0 82.15 32.3 82.15 32.65 81.75 34.3 80.6 L36.35 79.3 M45.6 85.65 Q44.45 84.75 44.1 84.05 43.65 82.95 43.95 80.85 L44.9 83.25 45.6 85.65 M34.7 86.2 Q34.4 85.5 34.4 84.65 34.4 83.0 35.55 81.85 36.7 80.65 38.35 80.65 40.0 80.65 41.15 81.85 42.3 83.0 42.3 84.65 42.3 86.3 41.15 87.5 40.0 88.65 38.35 88.65 L38.0 88.65 38.0 88.5 Q38.0 85.7 36.25 85.45 35.1 85.3 34.7 86.2 M49.15 85.75 Q49.6 84.0 49.75 80.55 49.9 76.5 49.15 74.95 50.25 75.25 51.1 76.05 L51.25 76.2 Q50.5 76.5 50.5 77.5 L50.95 78.45 Q51.55 79.4 52.5 79.5 52.5 85.15 49.15 85.75" fill="#cc6920" fill-rule="evenodd" stroke="none"/>
    <path d="M18.8 19.15 L18.8 19.0 18.9 18.4 19.45 17.9 20.05 17.9 Q20.7 18.05 21.0 18.5 21.3 18.85 21.3 19.5 21.3 21.0 20.0 21.0 L19.45 20.9 19.05 20.65 18.8 19.15 M12.6 40.85 L12.05 40.05 Q11.4 38.8 11.4 38.3 11.4 36.25 13.45 36.65 L13.6 36.65 Q15.75 37.15 15.75 38.8 L15.5 39.55 15.25 40.3 Q15.25 40.95 14.9 41.3 14.55 41.6 13.85 41.6 13.2 41.6 12.6 40.85 M10.25 57.75 Q9.5 57.75 8.75 57.1 8.05 56.4 8.05 55.8 8.05 53.25 10.0 53.6 11.9 53.9 11.9 55.3 11.9 57.75 10.25 57.75 M19.9 80.1 Q20.05 79.45 20.55 79.25 L21.55 79.2 Q23.25 79.6 23.25 81.5 L23.25 81.75 23.25 81.9 Q23.15 83.2 22.5 83.65 L21.75 83.85 Q20.45 83.85 20.0 82.25 L19.9 81.6 19.8 80.8 19.9 80.1 M39.15 93.65 L38.5 93.65 37.0 93.55 Q37.3 92.75 38.05 92.8 38.8 92.85 39.15 93.65 M38.0 88.65 Q37.9 89.8 36.6 89.8 34.5 89.8 34.5 87.4 L34.7 86.2 Q35.1 85.3 36.25 85.45 38.0 85.7 38.0 88.5 L38.0 88.65 M52.5 79.5 Q51.55 79.4 50.95 78.45 L50.5 77.5 Q50.5 76.5 51.25 76.2 L52.4 76.1 Q54.25 76.25 54.25 78.15 54.25 79.5 52.75 79.5 L52.5 79.5" fill="#271d16" fill-rule="evenodd" stroke="none"/>
  </g>
</svg>
