<?xml version="1.0" encoding="UTF-8" standalone="no"?>
<svg xmlns:ffdec="https://www.free-decompiler.com/flash" xmlns:xlink="http://www.w3.org/1999/xlink" ffdec:objectType="shape" height="64.15px" width="42.1px" xmlns="http://www.w3.org/2000/svg">
  <g transform="matrix(1.0, 0.0, 0.0, 1.0, 10.75, 10.0)">
    <path d="M-1.8 -10.0 L-0.65 -8.15 -3.85 -8.65 -4.65 -9.9 -1.8 -10.0 M-7.8 -6.9 L-8.6 -8.2 -6.4 -9.45 -5.7 -8.3 Q-7.05 -7.6 -7.8 -6.9 M24.7 54.1 L24.1 52.8 Q25.8 52.5 26.5 52.0 L27.1 53.3 Q26.0 54.0 24.7 54.1 M27.75 51.05 L29.45 48.65 29.95 50.45 28.35 52.4 27.75 51.05" fill="#4e4e4e" fill-rule="evenodd" stroke="none"/>
    <path d="M27.4 44.25 L29.45 48.65 27.75 51.05 25.85 46.8 26.7 45.45 27.4 44.25 M-0.65 -8.15 L0.95 -5.55 -1.45 -7.15 -3.15 -7.45 -3.85 -8.65 -0.65 -8.15 M24.1 52.8 L22.2 48.55 24.55 47.7 26.5 52.0 Q25.8 52.5 24.1 52.8 M-7.8 -6.9 Q-7.05 -7.6 -5.7 -8.3 L-4.9 -7.0 -6.8 -5.3 -7.8 -6.9" fill="#a3a3a3" fill-rule="evenodd" stroke="none"/>
    <path d="M0.95 -5.55 L0.95 -5.5 7.3 5.25 8.05 6.6 8.25 6.9 9.2 8.6 11.55 12.8 20.75 30.35 19.35 30.6 18.2 30.9 17.45 29.4 19.3 28.35 Q18.9 26.4 16.4 22.7 13.6 18.55 11.5 18.0 L9.8 14.8 Q9.35 12.2 5.0 6.25 L3.2 3.15 3.2 3.1 3.35 3.2 3.4 2.7 2.65 0.85 Q1.25 -1.7 -1.95 -5.55 L-3.15 -7.45 -1.45 -7.15 0.95 -5.55 M-4.9 -7.0 L-4.1 -5.75 -5.9 -3.85 -6.8 -5.3 -4.9 -7.0 M1.9 4.25 L2.75 5.75 0.35 6.55 -0.15 5.7 1.9 4.25 M15.9 29.95 L16.65 31.4 14.25 32.2 13.45 30.65 15.9 29.95 M21.9 38.4 L23.05 37.05 23.2 36.2 23.1 35.15 27.4 44.25 26.7 45.45 25.85 46.8 25.4 45.8 26.15 44.9 26.35 43.9 Q26.35 42.05 25.35 41.1 24.45 40.2 22.8 40.3 L21.9 38.4 M22.2 48.55 L21.55 47.2 Q23.2 47.3 24.1 46.7 L24.55 47.7 22.2 48.55 M19.95 43.8 L18.05 39.9 20.55 39.3 21.4 41.0 20.95 41.65 Q20.4 42.6 19.95 43.8" fill="#d1d1d1" fill-rule="evenodd" stroke="none"/>
    <path d="M-1.95 -5.55 Q1.25 -1.7 2.65 0.85 L3.4 2.7 3.35 3.2 3.2 3.1 -1.95 -5.55 M5.0 6.25 Q9.35 12.2 9.8 14.8 L5.0 6.25 M11.5 18.0 Q13.6 18.55 16.4 22.7 18.9 26.4 19.3 28.35 L17.45 29.4 11.5 18.0 M18.2 30.9 L19.35 30.6 20.75 30.35 23.1 35.1 23.1 35.15 23.2 36.2 23.05 37.05 21.9 38.4 18.2 30.9 M9.65 18.0 L9.85 18.4 15.9 29.95 13.45 30.65 0.35 6.55 2.75 5.75 9.65 18.0 M-4.1 -5.75 L1.9 4.25 -0.15 5.7 -5.9 -3.85 -4.1 -5.75 M18.05 39.9 L14.25 32.2 16.65 31.4 20.55 39.3 18.05 39.9 M22.8 40.3 Q24.45 40.2 25.35 41.1 26.35 42.05 26.35 43.9 L26.15 44.9 25.4 45.8 22.8 40.3 M24.1 46.7 Q23.2 47.3 21.55 47.2 L19.95 43.8 Q20.4 42.6 20.95 41.65 L21.4 41.0 21.4 41.05 24.1 46.7" fill="#f4f4f4" fill-rule="evenodd" stroke="none"/>
    <path d="M29.45 48.65 L29.8 45.45 Q29.8 40.9 25.6 32.2 22.5 25.85 16.3 15.65 L7.25 0.55 Q2.7 -6.5 -0.65 -8.15 L-1.8 -10.0 Q1.15 -9.05 2.55 -7.95 4.75 -6.2 8.25 -1.05 L12.75 6.15 16.95 13.15 Q23.05 23.55 26.2 30.0 31.35 40.7 31.35 45.95 31.35 47.0 30.8 48.45 L29.95 50.45 29.45 48.65 M-7.8 -6.9 L-8.9 -4.2 Q-9.6 -2.05 -9.6 -0.75 -9.6 5.9 -2.15 19.15 1.85 26.35 8.9 37.4 14.2 46.45 15.55 48.2 19.7 53.35 24.1 52.8 L24.7 54.1 Q17.85 54.65 13.6 47.9 9.45 39.35 6.25 36.0 2.8 32.45 -3.35 20.35 -10.75 5.85 -10.75 -1.8 -10.75 -4.75 -9.7 -6.75 -8.15 -9.75 -4.65 -9.9 L-3.85 -8.65 -5.7 -8.3 -6.4 -9.45 -8.6 -8.2 -7.8 -6.9 M28.35 52.4 L27.1 53.3 26.5 52.0 27.75 51.05 28.35 52.4" fill="#230b31" fill-rule="evenodd" stroke="none"/>
    <path d="M0.95 -5.5 L0.95 -5.55 -0.65 -8.15 Q2.7 -6.5 7.25 0.55 L16.3 15.65 Q22.5 25.85 25.6 32.2 29.8 40.9 29.8 45.45 L29.45 48.65 27.4 44.25 Q25.95 39.25 23.75 33.8 21.35 27.95 20.25 27.1 19.4 26.45 11.55 12.8 L9.2 8.6 8.25 6.9 8.05 6.6 7.3 5.25 Q7.35 3.3 5.8 0.75 4.35 -1.65 0.95 -5.5 M-3.85 -8.65 L-3.15 -7.45 -4.9 -7.0 -5.7 -8.3 -3.85 -8.65 M-6.8 -5.3 L-8.05 0.2 Q-8.05 5.15 -5.15 10.4 L3.15 23.15 6.35 28.9 Q9.35 34.15 10.0 34.85 10.95 35.85 15.4 39.3 18.75 41.95 18.75 42.8 18.75 44.2 18.2 44.8 L17.6 45.4 18.8 46.9 20.2 48.25 Q20.65 48.7 22.2 48.55 L24.1 52.8 Q19.7 53.35 15.55 48.2 14.2 46.45 8.9 37.4 1.85 26.35 -2.15 19.15 -9.6 5.9 -9.6 -0.75 -9.6 -2.05 -8.9 -4.2 L-7.8 -6.9 -6.8 -5.3 M24.55 47.7 L25.85 46.8 27.75 51.05 26.5 52.0 24.55 47.7" fill="#5c1d83" fill-rule="evenodd" stroke="none"/>
    <path d="M0.95 -5.5 Q4.35 -1.65 5.8 0.75 7.35 3.3 7.3 5.25 L0.95 -5.5 M11.55 12.8 Q19.4 26.45 20.25 27.1 21.35 27.95 23.75 33.8 25.95 39.25 27.4 44.25 L23.1 35.15 23.1 35.1 22.2 32.9 20.75 30.35 11.55 12.8 M-3.15 -7.45 L-1.95 -5.55 -3.05 -5.8 -4.1 -5.75 -4.9 -7.0 -3.15 -7.45 M3.2 3.15 L5.0 6.25 Q4.15 5.7 2.75 5.75 L1.9 4.25 3.2 3.15 M9.8 14.8 L11.5 18.0 9.85 18.4 9.65 18.0 9.8 14.8 M17.45 29.4 L18.2 30.9 16.65 31.4 15.9 29.95 17.45 29.4 M14.25 32.2 L12.9 32.75 Q15.2 38.9 18.05 39.9 L19.95 43.8 Q19.95 45.2 20.45 46.2 20.9 47.2 21.55 47.2 L22.2 48.55 Q20.65 48.7 20.2 48.25 L18.8 46.9 17.6 45.4 18.2 44.8 Q18.75 44.2 18.75 42.8 18.75 41.95 15.4 39.3 10.95 35.85 10.0 34.85 9.35 34.15 6.35 28.9 L3.15 23.15 -5.15 10.4 Q-8.05 5.15 -8.05 0.2 L-6.8 -5.3 -5.9 -3.85 Q-6.45 -2.0 -6.45 -0.45 -5.5 3.7 -4.25 5.45 L-3.15 6.9 -2.0 6.5 -0.15 5.7 0.35 6.55 Q-2.9 7.65 -2.9 8.4 -2.9 11.8 5.05 24.35 L8.2 29.05 Q9.65 31.0 10.4 31.0 L13.45 30.65 14.25 32.2 M20.55 39.3 L21.9 38.4 22.8 40.3 Q21.4 40.85 21.4 41.05 L21.4 41.0 20.55 39.3 M25.4 45.8 L25.85 46.8 24.55 47.7 24.1 46.7 25.4 45.8" fill="#7c27af" fill-rule="evenodd" stroke="none"/>
    <path d="M3.2 3.1 L3.2 3.15 1.9 4.25 -4.1 -5.75 -3.05 -5.8 -1.95 -5.55 3.2 3.1 M2.75 5.75 Q4.15 5.7 5.0 6.25 L9.8 14.8 9.65 18.0 2.75 5.75 M9.85 18.4 L11.5 18.0 17.45 29.4 15.9 29.95 9.85 18.4 M16.65 31.4 L18.2 30.9 21.9 38.4 20.55 39.3 16.65 31.4 M23.1 35.1 L20.75 30.35 22.2 32.9 23.1 35.1 M-5.9 -3.85 L-0.15 5.7 -2.0 6.5 -3.15 6.9 -4.25 5.45 Q-5.5 3.7 -6.45 -0.45 -6.45 -2.0 -5.9 -3.85 M0.35 6.55 L13.45 30.65 10.4 31.0 Q9.65 31.0 8.2 29.05 L5.05 24.35 Q-2.9 11.8 -2.9 8.4 -2.9 7.65 0.35 6.55 M18.05 39.9 Q15.2 38.9 12.9 32.75 L14.25 32.2 18.05 39.9 M21.55 47.2 Q20.9 47.2 20.45 46.2 19.95 45.2 19.95 43.8 L21.55 47.2 M21.4 41.05 Q21.4 40.85 22.8 40.3 L25.4 45.8 24.1 46.7 21.4 41.05" fill="#9632d1" fill-rule="evenodd" stroke="none"/>
  </g>
</svg>
