<?xml version="1.0" encoding="UTF-8" standalone="no"?>
<svg xmlns:ffdec="https://www.free-decompiler.com/flash" xmlns:xlink="http://www.w3.org/1999/xlink" ffdec:objectType="shape" height="27.1px" width="23.8px" xmlns="http://www.w3.org/2000/svg">
  <g transform="matrix(1.0, 0.0, 0.0, 1.0, 5.85, 17.45)">
    <path d="M16.95 -13.25 L16.95 -13.45 16.95 -13.55 Q16.85 -14.75 13.95 -15.7 L11.85 -16.2 11.85 -15.95 11.85 -15.85 12.8 -15.65 Q16.0 -14.85 15.9 -13.55 16.0 -12.25 14.05 -11.85 L10.8 -11.25 7.65 -11.0 Q-3.85 -10.95 -3.85 -12.9 -3.9 -14.85 -0.65 -15.65 L0.65 -15.95 0.65 -16.05 0.65 -16.35 -1.8 -15.7 -1.85 -15.7 Q-4.25 -14.95 -4.75 -13.95 L-5.0 -13.2 -4.7 -11.85 -2.35 -1.6 -0.85 7.25 -0.65 8.7 -1.35 8.3 -1.75 8.2 -1.95 5.65 -5.7 -12.85 -5.55 -12.5 -5.65 -12.8 -5.7 -12.85 -5.7 -12.9 -5.85 -13.55 Q-5.95 -15.45 -2.15 -16.65 L1.05 -17.45 1.05 -12.05 7.65 -11.7 10.8 -12.0 10.8 -12.05 11.15 -12.05 11.15 -17.3 11.45 -17.35 14.25 -16.65 Q18.05 -15.45 17.95 -13.55 L17.95 -13.45 17.75 -12.6 17.75 -12.5 17.45 -11.5 14.45 -1.85 Q12.65 4.15 7.65 8.85 L6.15 9.3 8.35 6.7 8.8 6.2 Q12.1 2.4 13.5 -2.15 L16.3 -11.15 16.35 -11.3 Q16.85 -12.3 16.95 -13.25 M12.55 -14.7 L11.85 -14.85 11.8 -12.2 12.55 -12.35 Q14.8 -12.95 14.9 -13.55 14.8 -14.15 12.55 -14.7 M0.15 -12.15 L0.65 -14.95 -1.25 -14.5 Q-2.65 -14.15 -2.9 -13.1 -3.1 -12.5 0.15 -12.15" fill="#10382e" fill-rule="evenodd" stroke="none"/>
    <path d="M8.8 6.2 L8.35 6.7 6.3 7.9 3.55 8.55 1.25 8.4 Q-0.9 8.05 -0.85 7.25 L-2.35 -1.6 -4.7 -11.85 -3.4 -10.95 Q-2.95 -7.85 -2.0 -4.3 -0.3 1.9 1.7 3.6 L3.45 -2.1 4.25 -4.65 4.75 -4.15 Q4.2 1.8 4.8 3.55 5.15 4.5 5.95 4.6 7.8 2.25 7.95 2.25 9.0 2.25 11.5 -8.65 L11.55 -8.3 10.9 -4.25 10.1 -0.1 10.55 -0.05 Q13.9 -6.9 14.9 -10.85 L15.5 -11.0 Q13.7 -4.3 11.25 1.35 L8.8 6.2" fill="#20735c" fill-rule="evenodd" stroke="none"/>
    <path d="M-3.4 -10.95 Q-0.5 -9.8 3.1 -9.55 L8.1 -9.35 12.45 -10.3 14.9 -10.85 Q13.9 -6.9 10.55 -0.05 L10.1 -0.1 10.9 -4.25 11.55 -8.3 11.5 -8.65 Q9.0 2.25 7.95 2.25 7.8 2.25 5.95 4.6 5.15 4.5 4.8 3.55 4.2 1.8 4.75 -4.15 L4.25 -4.65 3.45 -2.1 1.7 3.6 Q-0.3 1.9 -2.0 -4.3 -2.95 -7.85 -3.4 -10.95" fill="#2c9a7b" fill-rule="evenodd" stroke="none"/>
    <path d="M-4.7 -11.85 L-5.0 -13.2 -4.75 -13.95 Q-4.25 -14.95 -1.85 -15.7 L-1.8 -15.7 0.65 -16.35 0.65 -16.05 0.65 -15.95 -0.65 -15.65 Q-3.9 -14.85 -3.85 -12.9 -3.85 -10.95 7.65 -11.0 L10.8 -11.25 14.05 -11.85 Q16.0 -12.25 15.9 -13.55 16.0 -14.85 12.8 -15.65 L11.85 -15.85 11.85 -15.95 11.85 -16.2 13.95 -15.7 Q16.85 -14.75 16.95 -13.55 L16.95 -13.45 16.95 -13.25 Q15.75 -11.75 13.75 -10.8 L12.45 -10.3 8.1 -9.35 3.1 -9.55 Q-0.5 -9.8 -3.4 -10.95 L-4.7 -11.85" fill="#35bb96" fill-rule="evenodd" stroke="none"/>
    <path d="M16.95 -13.25 Q16.85 -12.3 16.35 -11.3 L16.3 -11.15 13.5 -2.15 Q12.1 2.4 8.8 6.2 L11.25 1.35 Q13.7 -4.3 15.5 -11.0 L14.9 -10.85 12.45 -10.3 13.75 -10.8 Q15.75 -11.75 16.95 -13.25 M8.35 6.7 L6.15 9.3 2.35 9.55 Q-0.5 9.3 -0.65 8.7 L-0.85 7.25 Q-0.9 8.05 1.25 8.4 L3.55 8.55 6.3 7.9 8.35 6.7 M12.55 -14.7 Q14.8 -14.15 14.9 -13.55 14.8 -12.95 12.55 -12.35 L11.8 -12.2 11.85 -14.85 12.55 -14.7 M0.15 -12.15 Q-3.1 -12.5 -2.9 -13.1 -2.65 -14.15 -1.25 -14.5 L0.65 -14.95 0.15 -12.15" fill="#165040" fill-rule="evenodd" stroke="none"/>
  </g>
</svg>
