<?xml version="1.0" encoding="UTF-8" standalone="no"?>
<svg xmlns:ffdec="https://www.free-decompiler.com/flash" xmlns:xlink="http://www.w3.org/1999/xlink" ffdec:objectType="shape" height="39.7px" width="42.9px" xmlns="http://www.w3.org/2000/svg">
  <g transform="matrix(1.0, 0.0, 0.0, 1.0, 23.05, 23.25)">
    <path d="M-6.05 -9.1 L-6.1 -9.2 -6.05 -9.2 -6.05 -9.1" fill="#83563a" fill-rule="evenodd" stroke="none"/>
    <path d="M-8.45 -9.05 Q-9.6 -11.7 -13.8 -19.2 L-13.95 -19.75 -13.0 -20.55 -9.1 -21.85 Q-4.0 -23.25 -2.95 -23.25 -1.7 -23.25 0.3 -22.35 3.2 -21.0 3.2 -18.75 L2.85 -14.0 2.9 -13.0 2.9 -12.95 3.2 -9.35 3.95 -4.95 5.25 -0.2 3.35 3.05 1.05 -10.55 Q0.9 -13.4 1.15 -18.5 1.15 -19.8 -0.75 -20.65 -2.15 -21.25 -3.0 -21.25 L-11.5 -19.1 Q-8.4 -13.85 -6.1 -9.2 L-6.05 -9.1 Q-4.8 -5.4 -4.05 -0.75 -3.45 2.85 -3.45 4.85 L-4.25 10.6 -4.7 6.1 -5.8 -0.35 Q-7.1 -5.7 -8.05 -8.15 L-8.45 -9.05" fill="#6c3d28" fill-rule="evenodd" stroke="none"/>
    <path d="M2.9 -12.95 L2.9 -13.0 3.05 -13.0 2.9 -12.95" fill="#832201" fill-rule="evenodd" stroke="none"/>
    <path d="M-4.25 10.6 L-3.45 4.85 Q-3.45 2.85 -4.05 -0.75 -4.8 -5.4 -6.05 -9.1 L-6.05 -9.2 -2.85 -9.85 1.05 -10.55 3.35 3.05 -0.45 7.55 Q-0.45 8.55 0.25 9.15 L-4.25 10.6" fill="#f1ba87" fill-rule="evenodd" stroke="none"/>
    <path d="M-4.7 6.1 L-4.25 10.6 0.25 9.15 Q0.05 10.3 -1.9 12.45 -4.05 14.85 -5.55 14.85 -6.55 14.85 -6.45 14.55 L-6.7 13.5 Q-6.85 13.25 -5.9 10.0 L-4.7 6.1 M-6.1 -9.2 Q-8.4 -13.85 -11.5 -19.1 L-3.0 -21.25 Q-2.15 -21.25 -0.75 -20.65 1.15 -19.8 1.15 -18.5 0.9 -13.4 1.05 -10.55 L-2.85 -9.85 -6.05 -9.2 -6.1 -9.2" fill="#db9c64" fill-rule="evenodd" stroke="none"/>
    <path d="M-8.45 -9.05 L-8.05 -8.15 Q-12.25 -5.6 -15.75 -1.6 -19.1 2.3 -19.1 4.3 L-19.1 6.4 Q-17.2 7.75 -14.8 10.4 L-14.75 10.45 Q-13.65 12.35 -11.6 13.9 L-9.35 15.55 Q-9.15 16.05 -9.15 15.05 -9.15 14.75 -10.05 13.65 -11.0 12.55 -11.0 10.85 -11.0 8.3 -10.2 6.15 -9.0 3.05 -5.8 -0.35 L-4.7 6.1 -5.9 10.0 Q-6.85 13.25 -6.7 13.5 L-6.45 14.55 Q-6.55 14.85 -5.55 14.85 -4.05 14.85 -1.9 12.45 0.05 10.3 0.25 9.15 -0.45 8.55 -0.45 7.55 L3.35 3.05 5.25 -0.2 3.95 -4.95 5.55 -4.8 5.55 -4.85 5.85 -4.65 Q6.65 -3.95 6.65 -2.25 6.65 -0.15 5.35 1.45 2.9 4.45 1.75 6.55 4.35 5.65 6.05 3.55 L7.45 1.55 9.7 1.4 11.95 2.0 14.85 3.0 15.0 3.15 17.5 5.6 18.8 -0.8 Q18.8 -6.6 15.4 -9.95 11.2 -14.1 3.05 -13.0 L2.9 -13.0 2.85 -14.0 9.05 -13.4 Q13.3 -12.6 14.65 -11.85 L14.7 -11.85 Q16.35 -10.55 17.9 -7.6 19.85 -4.05 19.85 -0.85 19.85 2.35 18.95 4.05 17.85 6.2 17.6 7.65 17.3 6.8 15.95 5.3 L14.3 3.8 Q12.55 4.8 10.15 7.15 L5.95 11.35 Q0.5 16.45 -5.15 16.45 -7.4 16.45 -10.1 15.55 -13.9 14.25 -15.0 11.8 -14.95 14.2 -17.35 15.45 -19.05 16.3 -20.9 16.3 L-23.05 16.1 -22.6 15.45 Q-21.65 13.9 -20.4 10.75 L-19.3 7.5 -19.4 6.6 -19.5 6.45 -19.55 6.4 -20.0 5.35 -20.1 4.3 -19.15 2.05 -17.3 -1.4 Q-15.95 -3.55 -12.6 -6.2 L-8.45 -9.05" fill="#3f2d44" fill-rule="evenodd" stroke="none"/>
    <path d="M-8.05 -8.15 Q-7.1 -5.7 -5.8 -0.35 -9.0 3.05 -10.2 6.15 -11.0 8.3 -11.0 10.85 -11.0 12.55 -10.05 13.65 -9.15 14.75 -9.15 15.05 -9.15 16.05 -9.35 15.55 L-11.6 13.9 Q-13.65 12.35 -14.75 10.45 L-14.8 10.4 Q-17.2 7.75 -19.1 6.4 L-19.1 4.3 Q-19.1 2.3 -15.75 -1.6 -12.25 -5.6 -8.05 -8.15 M3.95 -4.95 L3.2 -9.35 Q4.15 -9.35 4.85 -8.0 5.55 -6.7 5.55 -4.85 L5.55 -4.8 3.95 -4.95 M3.05 -13.0 Q11.2 -14.1 15.4 -9.95 18.8 -6.6 18.8 -0.8 L17.5 5.6 15.0 3.15 Q17.25 1.4 17.25 -1.6 17.25 -5.85 16.25 -7.2 15.4 -8.45 12.8 -8.45 11.65 -8.45 9.85 -7.65 10.05 -8.8 8.25 -10.4 6.15 -12.3 3.05 -13.0" fill="#584064" fill-rule="evenodd" stroke="none"/>
    <path d="M3.2 -9.35 L2.9 -12.95 3.05 -13.0 Q6.15 -12.3 8.25 -10.4 10.05 -8.8 9.85 -7.65 11.65 -8.45 12.8 -8.45 15.4 -8.45 16.25 -7.2 17.25 -5.85 17.25 -1.6 17.25 1.4 15.0 3.15 L14.85 3.0 11.95 2.0 9.7 1.4 7.45 1.55 6.05 3.55 Q4.35 5.65 1.75 6.55 2.9 4.45 5.35 1.45 6.65 -0.15 6.65 -2.25 6.65 -3.95 5.85 -4.65 L5.55 -4.85 Q5.55 -6.7 4.85 -8.0 4.15 -9.35 3.2 -9.35" fill="#9878a9" fill-rule="evenodd" stroke="none"/>
  </g>
</svg>
