<?xml version="1.0" encoding="UTF-8" standalone="no"?>
<svg xmlns:ffdec="https://www.free-decompiler.com/flash" xmlns:xlink="http://www.w3.org/1999/xlink" ffdec:objectType="shape" height="47.1px" width="52.6px" xmlns="http://www.w3.org/2000/svg">
  <g transform="matrix(1.0, 0.0, 0.0, 1.0, 29.2, 3.55)">
    <path d="M-0.8 -3.15 L2.15 -3.3 Q3.85 -0.35 5.5 2.15 8.65 7.0 11.95 9.5 19.95 15.55 19.95 19.9 19.95 20.75 19.55 21.9 L17.85 21.4 13.35 16.55 13.1 16.3 11.75 14.45 10.35 12.7 9.8 13.05 9.85 13.35 7.05 11.75 10.35 19.85 Q12.8 25.8 12.8 27.6 12.8 30.55 11.7 31.9 11.05 32.75 10.25 32.75 9.3 32.75 8.4 30.95 6.85 27.8 4.1 17.75 L4.0 17.45 Q3.25 16.25 2.55 15.95 L1.45 16.9 Q0.9 17.7 0.9 20.1 0.9 21.15 2.2 25.8 L2.75 30.4 Q2.75 34.0 0.35 36.3 -1.65 38.25 -3.75 38.25 -4.4 38.2 -5.05 37.45 -6.3 36.0 -6.3 32.75 -6.3 31.2 -5.1 27.25 -3.95 23.3 -3.95 19.8 -3.95 17.1 -5.8 14.65 -7.55 12.35 -9.25 12.35 -10.25 12.35 -11.0 12.75 -12.65 13.6 -15.8 16.45 L-17.45 18.05 -20.0 18.5 Q-21.4 18.5 -22.05 17.8 -22.5 17.3 -22.5 16.6 -22.5 14.25 -21.3 12.7 -19.2 10.0 -12.75 7.3 -8.85 5.65 -7.0 4.05 -4.5 1.85 -3.8 -1.6 L-3.7 -1.75 -0.8 -3.15" fill="#f1ba87" fill-rule="evenodd" stroke="none"/>
    <path d="M13.35 16.55 L13.3 16.6 13.1 16.3 13.35 16.55 M-3.85 -1.65 L-3.7 -1.75 -3.8 -1.65 -3.85 -1.65" fill="#724931" fill-rule="evenodd" stroke="none"/>
    <path d="M4.4 -2.9 L3.95 -3.55 Q6.4 -2.95 7.75 -1.4 L19.5 11.75 Q21.1 13.45 22.3 16.1 23.4 18.55 23.4 20.0 23.4 22.55 22.6 23.75 21.65 25.15 19.5 25.15 L17.7 24.9 Q16.1 24.45 15.4 23.45 L15.85 28.55 Q15.85 33.95 13.2 37.1 11.1 39.6 8.85 39.6 6.8 39.6 6.15 38.2 5.4 36.65 5.15 31.3 5.25 36.7 2.55 40.15 -0.15 43.55 -4.2 43.55 -5.9 43.55 -7.3 42.6 -9.5 41.15 -9.5 37.9 L-8.9 32.8 -7.8 25.55 -7.15 20.65 Q-7.15 18.2 -8.1 16.9 -8.6 16.2 -10.0 15.35 L-16.8 20.8 Q-20.35 23.75 -22.7 23.75 -25.55 23.75 -27.45 21.95 -29.2 20.35 -29.2 18.3 -29.2 15.35 -26.65 12.75 -23.75 9.8 -16.25 5.9 -11.9 3.65 -10.45 2.7 -8.55 1.45 -6.95 -0.45 L-4.5 -2.7 -0.7 -3.35 -0.65 -3.25 -0.8 -3.15 -3.7 -1.75 -3.85 -1.65 -4.5 -1.1 -4.75 -0.4 Q-4.75 1.9 -8.3 4.05 -9.85 4.95 -16.15 7.75 -27.6 12.75 -27.6 18.15 -27.6 19.65 -26.0 20.75 -24.35 21.95 -21.95 21.95 L-20.25 21.65 Q-18.8 21.05 -16.95 19.25 -11.1 13.55 -10.1 13.55 -8.25 13.55 -6.7 15.6 -5.2 17.6 -5.2 19.8 L-5.35 21.3 -6.15 25.95 -7.9 36.15 Q-7.9 39.7 -6.65 41.0 -5.85 41.9 -4.15 41.9 3.4 41.9 3.6 30.55 L3.3 22.25 Q3.15 18.15 4.0 17.45 L4.1 17.75 4.5 20.15 4.5 20.2 7.25 36.5 7.25 36.55 7.35 36.5 7.55 37.65 Q7.55 37.85 8.1 37.85 10.6 37.85 12.45 34.85 14.1 32.2 14.1 29.4 14.1 26.6 13.5 23.45 12.45 17.8 9.85 13.35 L9.8 13.05 10.35 12.7 11.75 14.45 13.1 16.3 13.3 16.6 16.55 21.95 Q17.25 22.95 18.5 23.25 L21.5 23.0 Q21.5 22.45 21.65 21.85 L21.75 20.75 Q21.75 17.8 14.4 8.3 7.6 -0.5 4.4 -2.9" fill="#6c3d28" fill-rule="evenodd" stroke="none"/>
    <path d="M7.35 36.5 L7.25 36.55 7.25 36.5 7.35 36.5 M-3.8 -1.6 L-3.85 -1.65 -3.8 -1.65 -3.8 -1.6" fill="#e7964e" fill-rule="evenodd" stroke="none"/>
    <path d="M-3.8 -1.65 L-3.7 -1.75 -3.8 -1.6 -3.8 -1.65" fill="#eaa76a" fill-rule="evenodd" stroke="none"/>
    <path d="M2.15 -3.3 L4.4 -2.9 Q7.6 -0.5 14.4 8.3 21.75 17.8 21.75 20.75 L21.65 21.85 Q21.5 22.45 21.5 23.0 L18.5 23.25 Q17.25 22.95 16.55 21.95 L13.3 16.6 13.35 16.55 17.85 21.4 19.55 21.9 Q19.95 20.75 19.95 19.9 19.95 15.55 11.95 9.5 8.65 7.0 5.5 2.15 3.85 -0.35 2.15 -3.3 M9.85 13.35 Q12.45 17.8 13.5 23.45 14.1 26.6 14.1 29.4 14.1 32.2 12.45 34.85 10.6 37.85 8.1 37.85 7.55 37.85 7.55 37.65 L7.35 36.5 7.25 36.5 4.5 20.2 4.5 20.15 4.1 17.75 Q6.85 27.8 8.4 30.95 9.3 32.75 10.25 32.75 11.05 32.75 11.7 31.9 12.8 30.55 12.8 27.6 12.8 25.8 10.35 19.85 L7.05 11.75 9.85 13.35 M4.0 17.45 Q3.15 18.15 3.3 22.25 L3.6 30.55 Q3.4 41.9 -4.15 41.9 -5.85 41.9 -6.65 41.0 -7.9 39.7 -7.9 36.15 L-6.15 25.95 -5.35 21.3 -5.2 19.8 Q-5.2 17.6 -6.7 15.6 -8.25 13.55 -10.1 13.55 -11.1 13.55 -16.95 19.25 -18.8 21.05 -20.25 21.65 L-21.95 21.95 Q-24.35 21.95 -26.0 20.75 -27.6 19.65 -27.6 18.15 -27.6 12.75 -16.15 7.75 -9.85 4.95 -8.3 4.05 -4.75 1.9 -4.75 -0.4 L-4.5 -1.1 -3.85 -1.65 -3.8 -1.6 Q-4.5 1.85 -7.0 4.05 -8.85 5.65 -12.75 7.3 -19.2 10.0 -21.3 12.7 -22.5 14.25 -22.5 16.6 -22.5 17.3 -22.05 17.8 -21.4 18.5 -20.0 18.5 L-17.45 18.05 -15.8 16.45 Q-12.65 13.6 -11.0 12.75 -10.25 12.35 -9.25 12.35 -7.55 12.35 -5.8 14.65 -3.95 17.1 -3.95 19.8 -3.95 23.3 -5.1 27.25 -6.3 31.2 -6.3 32.75 -6.3 36.0 -5.05 37.45 -4.4 38.2 -3.75 38.25 -1.65 38.25 0.35 36.3 2.75 34.0 2.75 30.4 L2.2 25.8 Q0.9 21.15 0.9 20.1 0.9 17.7 1.45 16.9 L2.55 15.95 Q3.25 16.25 4.0 17.45" fill="#db9c64" fill-rule="evenodd" stroke="none"/>
  </g>
</svg>
