<?xml version="1.0" encoding="UTF-8" standalone="no"?>
<svg xmlns:ffdec="https://www.free-decompiler.com/flash" xmlns:xlink="http://www.w3.org/1999/xlink" ffdec:objectType="shape" height="175.95px" width="60.9px" xmlns="http://www.w3.org/2000/svg">
  <g transform="matrix(1.0, 0.0, 0.0, 1.0, 23.3, 138.25)">
    <path d="M-20.4 -7.8 L-20.0 -10.75 -19.3 -10.4 -20.55 -4.15 -20.65 -4.95 -20.4 -7.8 M2.7 -5.9 L4.7 -5.9 4.05 -1.9 2.15 -1.75 2.7 -5.9 M11.2 -6.35 L14.5 -6.75 14.15 -2.9 10.75 -2.4 11.2 -6.35 M21.85 -7.85 L24.2 -8.45 24.05 -4.7 21.5 -4.15 21.85 -7.85 M29.15 -10.15 Q33.1 -12.0 35.0 -13.35 L35.1 -7.55 29.45 -6.0 29.15 -10.15 M-8.7 -1.35 L-11.0 -3.15 -11.35 -3.55 Q-11.65 -3.85 -12.25 -3.85 L-13.6 -3.45 -15.0 -3.2 -13.95 -8.35 -7.25 -6.85 -7.7 -6.3 -7.9 -5.4 Q-7.9 -4.35 -7.0 -4.0 L-4.6 -3.55 -1.45 -3.25 Q-1.85 0.8 -5.15 0.2 -6.8 -0.1 -8.7 -1.35" fill="#242424" fill-rule="evenodd" stroke="none"/>
    <path d="M36.95 -7.05 Q36.4 16.0 28.3 27.05 20.45 37.7 5.25 37.7 -8.6 37.7 -15.0 28.15 -21.0 19.2 -21.0 0.75 -21.0 -2.4 -20.4 -7.8 L-20.65 -4.95 -20.55 -4.15 -19.3 -10.4 -18.6 -10.05 -18.5 -9.95 -17.55 -9.6 -18.9 -2.25 -17.1 -1.8 -15.7 -8.9 -13.95 -8.35 -15.0 -3.2 -15.3 -1.2 Q-15.5 -0.4 -16.8 0.65 -18.0 2.4 -18.0 6.85 -18.0 13.25 -15.65 20.6 -14.45 24.3 -13.25 26.75 L-13.15 26.9 Q-9.05 31.85 -4.95 33.7 -1.05 35.5 5.2 35.5 19.0 35.5 26.1 25.9 33.4 16.1 35.05 -5.65 L35.2 -7.2 Q35.4 -7.85 36.05 -7.85 L36.8 -7.7 36.9 -7.55 36.95 -7.05 M14.5 -6.75 L16.35 -7.0 15.8 -0.1 Q18.0 -0.65 19.2 -4.1 19.85 -5.8 20.0 -7.45 L21.85 -7.85 21.5 -4.15 21.3 -2.15 Q21.3 -0.45 19.6 0.75 18.6 1.45 17.35 1.75 L15.4 1.95 14.4 2.0 14.0 1.9 Q13.85 1.85 13.85 1.25 L14.0 -0.9 14.15 -2.9 14.5 -6.75 M22.75 2.25 L23.2 2.6 23.35 3.35 Q23.1 6.55 22.1 7.15 21.1 6.45 21.1 5.45 L21.3 4.4 Q21.7 3.3 22.75 2.25 M20.9 22.1 Q20.9 22.7 20.55 23.1 20.2 23.5 19.7 23.5 18.85 22.45 18.85 21.45 18.85 19.55 20.3 18.45 L20.75 19.0 Q21.1 19.95 20.9 22.1 M21.55 10.15 Q22.0 10.15 22.35 10.9 22.65 11.6 22.65 12.65 L22.35 14.45 21.55 15.15 Q21.1 15.15 20.8 14.45 20.45 13.7 20.45 12.65 20.45 11.6 20.8 10.9 21.1 10.15 21.55 10.15 M19.55 27.0 L19.55 31.8 17.6 31.8 17.6 27.0 19.55 27.0" fill="#25150a" fill-rule="evenodd" stroke="none"/>
    <path d="M16.35 -7.0 L20.0 -7.45 Q19.85 -5.8 19.2 -4.1 18.0 -0.65 15.8 -0.1 L16.35 -7.0 M-15.3 -1.2 L-14.6 -1.05 Q-14.95 0.15 -14.6 0.95 -12.3 16.75 -6.1 23.9 -1.05 29.75 6.4 29.75 10.25 29.75 13.45 28.2 16.4 26.75 19.7 23.5 20.2 23.5 20.55 23.1 20.9 22.7 20.9 22.1 23.25 18.5 23.95 16.4 24.7 14.25 24.7 11.15 24.7 7.55 23.35 3.35 L23.2 2.6 22.75 2.25 Q22.55 1.95 21.55 1.8 20.0 1.5 17.35 1.75 18.6 1.45 19.6 0.75 21.3 -0.45 21.3 -2.15 L35.05 -5.65 Q33.4 16.1 26.1 25.9 19.0 35.5 5.2 35.5 -1.05 35.5 -4.95 33.7 -9.05 31.85 -13.15 26.9 L-13.25 26.75 Q-14.45 24.3 -15.65 20.6 -18.0 13.25 -18.0 6.85 -18.0 2.4 -16.8 0.65 -15.5 -0.4 -15.3 -1.2 M1.35 2.45 L1.9 0.2 14.0 -0.9 13.85 1.25 Q13.85 1.85 14.0 1.9 L14.4 2.0 1.35 2.45 M-17.55 -9.6 L-15.7 -8.9 -17.1 -1.8 -18.9 -2.25 -17.55 -9.6 M19.55 27.0 L17.6 27.0 17.6 31.8 19.55 31.8 19.55 27.0" fill="#37200f" fill-rule="evenodd" stroke="none"/>
    <path d="M-14.6 0.95 Q-10.6 2.65 -6.1 3.25 -1.0 3.9 1.35 2.45 L14.4 2.0 15.4 1.95 17.35 1.75 Q20.0 1.5 21.55 1.8 22.55 1.95 22.75 2.25 21.7 3.3 21.3 4.4 L21.1 5.45 Q21.1 6.45 22.1 7.15 23.1 6.55 23.35 3.35 24.7 7.55 24.7 11.15 24.7 14.25 23.95 16.4 23.25 18.5 20.9 22.1 21.1 19.95 20.75 19.0 L20.3 18.45 Q18.85 19.55 18.85 21.45 18.85 22.45 19.7 23.5 16.4 26.75 13.45 28.2 10.25 29.75 6.4 29.75 -1.05 29.75 -6.1 23.9 -12.3 16.75 -14.6 0.95 M-3.5 17.4 Q-0.25 26.2 7.1 26.2 12.95 26.2 15.4 23.2 17.95 20.05 17.95 12.4 L17.7 8.9 17.15 4.3 Q10.9 7.0 1.9 6.6 L-3.15 6.45 Q-5.1 6.55 -5.3 7.55 -5.3 12.45 -3.5 17.4 M21.55 10.15 Q21.1 10.15 20.8 10.9 20.45 11.6 20.45 12.65 20.45 13.7 20.8 14.45 21.1 15.15 21.55 15.15 L22.35 14.45 22.65 12.65 Q22.65 11.6 22.35 10.9 22.0 10.15 21.55 10.15" fill="#482913" fill-rule="evenodd" stroke="none"/>
    <path d="M-3.5 17.4 Q-5.3 12.45 -5.3 7.55 -5.1 6.55 -3.15 6.45 L1.9 6.6 Q10.9 7.0 17.15 4.3 L17.7 8.9 17.95 12.4 Q17.95 20.05 15.4 23.2 12.95 26.2 7.1 26.2 -0.25 26.2 -3.5 17.4" fill="#63391b" fill-rule="evenodd" stroke="none"/>
    <path d="M36.5 -16.35 Q36.75 -16.0 36.95 -7.05 L36.9 -7.55 36.8 -7.7 36.05 -7.85 Q35.4 -7.85 35.2 -7.2 L35.05 -5.65 21.3 -2.15 21.5 -4.15 24.05 -4.7 29.45 -6.0 35.1 -7.55 35.0 -13.35 Q35.8 -13.95 36.5 -16.35 M1.75 -5.95 L2.7 -5.9 2.15 -1.75 4.05 -1.9 10.75 -2.4 14.15 -2.9 14.0 -0.9 1.9 0.2 1.35 2.45 Q-1.0 3.9 -6.1 3.25 -10.6 2.65 -14.6 0.95 -14.95 0.15 -14.6 -1.05 L-15.3 -1.2 -15.0 -3.2 -13.6 -3.45 -12.25 -3.85 Q-11.65 -3.85 -11.35 -3.55 L-11.0 -3.15 -8.7 -1.35 -11.8 0.3 -11.7 -2.0 Q-11.7 -2.9 -11.8 -2.7 L-11.8 -2.75 -12.45 -2.85 Q-13.85 -2.85 -13.85 -0.1 L-13.65 0.65 -13.2 0.75 -0.35 2.4 0.45 2.1 Q0.75 1.9 1.75 -5.95 M-7.25 -6.85 L-4.75 -6.5 -6.0 -6.2 Q-6.95 -5.85 -6.95 -5.35 -6.95 -4.85 -6.0 -4.5 L-3.8 -4.15 -3.55 -4.15 -4.6 -3.55 -7.0 -4.0 Q-7.9 -4.35 -7.9 -5.4 L-7.7 -6.3 -7.25 -6.85 M-1.4 -6.1 L-0.1 -6.0 -0.75 -5.65 -1.4 -6.1" fill="#0d0d0d" fill-rule="evenodd" stroke="none"/>
    <path d="M4.7 -5.9 L11.2 -6.35 10.75 -2.4 4.05 -1.9 4.7 -5.9 M24.2 -8.45 L28.1 -9.65 29.15 -10.15 29.45 -6.0 24.05 -4.7 24.2 -8.45" fill="#363636" fill-rule="evenodd" stroke="none"/>
    <path d="M1.75 -5.95 Q0.75 1.9 0.45 2.1 L-0.35 2.4 -13.2 0.75 -13.65 0.65 -13.85 -0.1 Q-13.85 -2.85 -12.45 -2.85 L-11.8 -2.75 -11.8 -2.7 Q-11.7 -2.9 -11.7 -2.0 L-11.8 0.3 -8.7 -1.35 Q-6.8 -0.1 -5.15 0.2 -1.85 0.8 -1.45 -3.25 L-4.6 -3.55 -3.55 -4.15 -3.8 -4.15 -6.0 -4.5 Q-6.95 -4.85 -6.95 -5.35 -6.95 -5.85 -6.0 -6.2 L-4.75 -6.5 -3.8 -6.55 -1.55 -6.2 -1.4 -6.1 -0.75 -5.65 -0.1 -6.0 1.75 -5.95" fill="#626262" fill-rule="evenodd" stroke="none"/>
    <path d="M10.3 -32.55 L17.35 -34.0 15.6 -30.2 8.3 -28.9 10.3 -32.55 M-9.9 -31.8 L-3.85 -31.5 -5.25 -28.35 -15.6 -29.95 -16.05 -32.55 -16.0 -32.55 -12.65 -32.1 Q-12.7 -31.25 -12.35 -30.5 -12.0 -29.75 -11.4 -29.65 -10.85 -29.55 -10.35 -30.15 -9.9 -30.75 -9.9 -31.8 M28.4 -33.5 L28.35 -33.5 27.7 -36.95 30.45 -37.85 31.25 -34.2 31.2 -34.2 28.4 -33.5 M32.55 -25.25 L32.6 -19.65 Q30.9 -18.8 28.25 -17.8 L28.1 -19.15 Q29.3 -20.1 29.85 -21.85 30.25 -23.15 30.15 -23.95 L32.55 -25.25 M9.05 -17.9 L8.75 -17.2 Q8.9 -15.6 9.65 -14.55 4.75 -14.25 -1.35 -14.7 L1.25 -17.8 Q5.25 -17.5 9.05 -17.9 M27.2 -18.35 L27.3 -17.5 24.65 -16.75 27.2 -18.35 M-18.6 -89.45 L-15.9 -92.05 -16.5 -86.15 Q-16.6 -85.75 -15.6 -85.75 -14.7 -85.75 -12.4 -87.85 L-10.1 -90.05 -10.05 -90.15 -9.65 -87.25 Q-11.4 -77.4 -11.5 -74.95 L-9.65 -74.8 Q-8.35 -72.2 -7.1 -72.2 -6.0 -72.2 -5.4 -73.1 -5.0 -73.8 -4.65 -75.65 L-4.0 -75.75 Q-3.45 -74.5 -2.95 -71.2 -2.5 -68.1 -2.55 -66.65 L-6.95 -65.85 Q-6.95 -66.75 -7.45 -67.45 L-8.75 -68.35 -10.25 -68.25 -11.4 -67.1 Q-11.85 -66.35 -11.8 -65.5 L-16.2 -65.55 -14.85 -71.25 -14.85 -71.3 -14.85 -71.4 Q-14.35 -72.05 -13.85 -73.4 -13.25 -74.95 -13.25 -75.9 -13.25 -78.8 -14.1 -80.7 -15.0 -82.7 -16.45 -82.7 L-17.1 -82.3 -18.35 -81.2 Q-18.25 -83.9 -18.6 -89.4 L-18.6 -89.45 M-2.5 -64.6 Q-3.2 -59.0 -3.65 -57.5 L-6.25 -50.3 Q-6.75 -52.55 -6.75 -63.85 L-2.5 -64.6 M-12.55 -63.5 Q-13.65 -59.2 -13.65 -56.55 L-13.55 -51.9 -14.55 -52.75 -16.75 -54.85 -17.0 -56.9 -17.25 -58.95 -16.65 -63.55 -12.55 -63.5 M-16.95 -78.85 L-16.45 -80.7 -16.5 -80.15 Q-16.55 -79.85 -15.95 -79.85 -15.3 -79.85 -15.35 -79.1 L-15.5 -78.35 -16.95 -78.85 M-7.65 -75.1 L-6.75 -75.25 Q-6.75 -74.9 -7.1 -74.2 L-7.65 -75.1 M-8.85 -15.5 L-11.5 -15.95 -10.8 -19.9 -10.75 -19.75 -10.75 -19.9 -8.35 -19.25 -8.85 -15.5" fill="#8e872b" fill-rule="evenodd" stroke="none"/>
    <path d="M1.05 -132.7 L0.15 -133.4 Q-0.4 -133.75 -0.4 -134.25 -0.4 -135.1 -3.15 -135.8 L-7.15 -136.4 Q-12.8 -136.4 -15.05 -130.95 -16.25 -128.15 -16.25 -124.95 -16.25 -122.75 -15.5 -121.3 -14.5 -119.3 -12.25 -119.3 -8.3 -119.3 -4.7 -121.65 -1.1 -124.0 0.15 -127.3 2.05 -131.4 1.05 -132.7 M20.75 -66.3 L19.2 -74.65 17.6 -82.75 Q17.5 -83.45 15.1 -87.6 12.8 -91.7 12.75 -92.55 10.65 -91.75 9.35 -91.75 7.1 -91.75 4.35 -94.7 0.25 -99.1 0.25 -107.4 0.25 -118.5 3.5 -123.6 5.15 -126.2 8.2 -127.45 L5.9 -129.7 Q5.65 -128.5 2.4 -123.2 -0.7 -118.1 -1.25 -117.6 L-5.0 -114.75 Q-7.4 -113.75 -8.85 -113.6 L-11.45 -113.7 -14.15 -114.1 -16.8 -115.5 -19.65 -117.3 -21.3 -84.45 -22.35 -81.4 -23.3 -102.6 Q-23.3 -121.0 -16.35 -130.9 -11.2 -138.25 -5.45 -138.25 0.2 -138.25 8.75 -130.4 17.25 -122.6 20.05 -115.1 25.8 -99.65 31.0 -72.2 L36.4 -40.05 33.75 -39.05 Q31.0 -71.1 26.85 -80.65 26.5 -81.5 25.95 -86.15 L24.25 -89.7 Q22.75 -93.0 23.4 -95.25 L22.3 -95.5 21.35 -95.75 18.7 -93.8 Q18.7 -89.05 19.0 -86.75 L21.8 -66.95 24.35 -49.25 26.1 -36.45 25.0 -36.1 22.6 -54.1 20.75 -66.3 M4.65 -119.75 Q2.1 -115.35 2.1 -109.2 2.1 -101.3 5.2 -97.05 7.5 -93.9 9.95 -93.9 11.5 -93.9 12.95 -94.45 L14.25 -95.0 Q16.55 -95.0 18.9 -96.55 21.9 -98.55 21.9 -101.9 21.9 -106.15 17.2 -115.15 12.25 -124.65 8.85 -125.2 L4.65 -119.75 M34.15 -35.2 L36.9 -36.6 Q37.5 -32.2 37.6 -28.4 L34.9 -26.65 34.15 -35.2 M26.5 -33.25 L27.75 -22.8 26.8 -22.4 25.45 -33.0 26.5 -33.25 M28.35 -16.3 L28.5 -12.7 Q29.5 -13.1 32.45 -15.15 35.55 -17.25 35.55 -17.75 L35.35 -21.2 37.5 -22.8 Q37.2 -19.25 36.5 -16.35 35.8 -13.95 35.0 -13.35 33.1 -12.0 29.15 -10.15 L28.1 -9.65 24.2 -8.45 21.85 -7.85 20.0 -7.45 16.35 -7.0 14.5 -6.75 11.2 -6.35 4.7 -5.9 2.7 -5.9 1.75 -5.95 -0.1 -6.0 -1.4 -6.1 -1.55 -6.2 -3.8 -6.55 -4.75 -6.5 -7.25 -6.85 -13.95 -8.35 -15.7 -8.9 -17.55 -9.6 -18.5 -9.95 -18.6 -10.05 -19.3 -10.4 -20.0 -10.75 -20.0 -10.8 Q-21.15 -11.65 -21.3 -20.1 -20.55 -19.45 -19.7 -18.9 -20.95 -13.6 -17.5 -11.85 L-10.65 -10.05 Q-4.7 -8.3 -0.25 -7.85 L5.2 -7.75 14.1 -8.35 Q16.8 -8.85 22.1 -10.35 28.45 -12.15 28.5 -12.45 L28.0 -13.5 Q27.45 -14.6 27.4 -15.95 L27.3 -17.5 28.25 -17.8 28.35 -16.3 M-21.15 -24.4 L-20.85 -31.55 -19.65 -31.15 -19.7 -23.6 -21.15 -24.4 M-20.8 -32.75 Q-20.7 -45.15 -21.25 -63.5 -21.15 -62.0 -19.15 -58.25 -19.05 -56.15 -19.3 -45.45 L-19.6 -33.25 -20.8 -33.45 -20.8 -32.75" fill="#202314" fill-rule="evenodd" stroke="none"/>
    <path d="M1.05 -132.7 Q2.05 -131.4 0.15 -127.3 -1.1 -124.0 -4.7 -121.65 -8.3 -119.3 -12.25 -119.3 -14.5 -119.3 -15.5 -121.3 -16.25 -122.75 -16.25 -124.95 -16.25 -128.15 -15.05 -130.95 -12.8 -136.4 -7.15 -136.4 L-3.15 -135.8 Q-0.4 -135.1 -0.4 -134.25 -0.4 -133.75 0.15 -133.4 L1.05 -132.7 M4.65 -119.75 L8.85 -125.2 Q12.25 -124.65 17.2 -115.15 21.9 -106.15 21.9 -101.9 21.9 -98.55 18.9 -96.55 16.55 -95.0 14.25 -95.0 L12.95 -94.45 Q11.5 -93.9 9.95 -93.9 7.5 -93.9 5.2 -97.05 2.1 -101.3 2.1 -109.2 2.1 -115.35 4.65 -119.75" fill="#eba463" fill-rule="evenodd" stroke="none"/>
    <path d="M-1.25 -117.6 Q-0.7 -118.1 2.4 -123.2 5.65 -128.5 5.9 -129.7 L8.2 -127.45 Q5.15 -126.2 3.5 -123.6 0.25 -118.5 0.25 -107.4 0.25 -99.1 4.35 -94.7 7.1 -91.75 9.35 -91.75 10.65 -91.75 12.75 -92.55 12.8 -91.7 15.1 -87.6 17.5 -83.45 17.6 -82.75 L19.2 -74.65 20.75 -66.3 Q19.65 -67.0 18.95 -69.9 18.1 -73.25 17.35 -80.75 L16.5 -79.65 14.85 -79.4 Q12.35 -79.4 11.55 -81.85 10.9 -83.9 11.0 -89.65 4.55 -86.9 0.6 -97.6 -2.25 -105.25 -2.25 -111.1 L-1.9 -114.05 -1.25 -117.6 M21.8 -66.95 L19.0 -86.75 Q18.7 -89.05 18.7 -93.8 L21.35 -95.75 22.3 -95.5 23.4 -95.25 Q22.75 -93.0 24.25 -89.7 L25.95 -86.15 Q26.5 -81.5 26.85 -80.65 31.0 -71.1 33.75 -39.05 L30.45 -37.85 Q27.25 -51.55 22.25 -68.15 L21.8 -66.95 M-21.3 -84.45 L-19.65 -117.3 -16.8 -115.5 -14.15 -114.1 Q-16.75 -108.15 -18.0 -100.95 -18.8 -96.35 -18.8 -93.4 L-18.6 -89.45 -18.6 -89.4 Q-20.45 -86.6 -21.3 -84.45 M31.2 -34.2 L31.25 -34.2 34.15 -35.2 34.9 -26.65 32.55 -25.25 31.2 -34.2 M32.6 -19.65 L35.3 -21.2 35.35 -21.2 35.55 -17.75 Q35.55 -17.25 32.45 -15.15 29.5 -13.1 28.5 -12.7 L28.35 -16.3 31.1 -17.4 Q32.25 -18.05 32.6 -19.65 M27.4 -15.95 Q27.45 -14.6 28.0 -13.5 L28.5 -12.45 Q28.45 -12.15 22.1 -10.35 16.8 -8.85 14.1 -8.35 L5.2 -7.75 -0.25 -7.85 Q-4.7 -8.3 -10.65 -10.05 L-17.5 -11.85 Q-20.95 -13.6 -19.7 -18.9 -19.2 -18.6 -15.45 -17.25 L-11.5 -15.95 Q-10.55 -12.45 -2.7 -10.4 1.2 -9.35 5.0 -9.0 22.7 -14.1 27.4 -15.95 M-16.75 -54.85 Q-16.75 -43.8 -17.0 -41.2 -17.0 -39.65 -16.0 -32.55 L-16.05 -32.55 -19.6 -33.25 -19.3 -45.45 Q-19.05 -56.15 -19.15 -58.25 L-16.75 -54.85 M-19.65 -31.15 L-15.6 -29.95 Q-15.35 -28.3 -13.0 -24.85 -10.75 -21.6 -10.75 -20.4 L-10.75 -19.9 -10.75 -19.75 -10.8 -19.9 -19.7 -23.6 -19.65 -31.15" fill="#30341f" fill-rule="evenodd" stroke="none"/>
    <path d="M-1.25 -117.6 L-1.9 -114.05 -2.25 -111.1 Q-2.25 -105.25 0.6 -97.6 4.55 -86.9 11.0 -89.65 10.9 -83.9 11.55 -81.85 12.35 -79.4 14.85 -79.4 L16.5 -79.65 17.35 -80.75 Q18.1 -73.25 18.95 -69.9 19.65 -67.0 20.75 -66.3 L22.6 -54.1 21.75 -54.55 Q21.1 -53.55 21.05 -52.1 L21.1 -48.65 Q21.1 -45.1 19.6 -40.3 L17.35 -34.0 10.3 -32.55 Q13.7 -36.4 16.4 -44.7 18.85 -52.35 18.85 -57.25 18.85 -60.9 17.75 -62.3 L14.95 -65.0 Q14.7 -66.75 14.8 -69.0 15.0 -72.25 12.45 -73.65 L8.0 -76.1 Q6.3 -77.8 5.45 -82.3 4.55 -86.85 2.45 -89.05 L-0.85 -91.9 Q-2.2 -93.0 -2.7 -94.4 -3.7 -97.15 -4.3 -114.25 L-5.0 -114.75 -1.25 -117.6 M24.35 -49.25 L21.8 -66.95 22.25 -68.15 Q27.25 -51.55 30.45 -37.85 L27.7 -36.95 26.3 -43.6 24.35 -49.25 M-14.15 -114.1 L-11.45 -113.7 -8.85 -113.6 Q-12.45 -106.4 -13.7 -101.4 -14.75 -96.0 -15.9 -92.05 L-18.6 -89.45 -18.8 -93.4 Q-18.8 -96.35 -18.0 -100.95 -16.75 -108.15 -14.15 -114.1 M-9.9 -31.8 Q-7.0 -36.25 -3.4 -45.75 0.9 -54.95 9.3 -62.5 9.4 -59.25 5.65 -50.3 1.75 -41.0 -3.85 -31.5 L-9.9 -31.8 M-13.55 -51.9 L-13.6 -45.75 -13.2 -39.1 -12.65 -32.1 -16.0 -32.55 Q-17.0 -39.65 -17.0 -41.2 -16.75 -43.8 -16.75 -54.85 L-14.55 -52.75 -13.55 -51.9 M28.4 -33.5 L31.2 -34.2 32.55 -25.25 30.15 -23.95 28.4 -33.5 M28.25 -17.8 Q30.9 -18.8 32.6 -19.65 32.25 -18.05 31.1 -17.4 L28.35 -16.3 28.25 -17.8 M8.3 -28.9 L15.6 -30.2 9.05 -17.9 Q5.25 -17.5 1.25 -17.8 L4.05 -21.8 8.3 -28.9 M9.65 -14.55 Q11.0 -13.55 12.5 -13.55 L17.8 -14.6 Q22.5 -15.75 24.65 -16.75 L27.3 -17.5 27.4 -15.95 Q22.7 -14.1 5.0 -9.0 1.2 -9.35 -2.7 -10.4 -10.55 -12.45 -11.5 -15.95 L-8.85 -15.5 Q-8.75 -13.45 -7.8 -12.65 -7.1 -12.05 -5.75 -12.05 -2.95 -12.95 -1.35 -14.7 4.75 -14.25 9.65 -14.55 M-9.65 -74.8 L-9.4 -79.1 Q-9.05 -81.75 -8.3 -83.1 -7.6 -84.5 -6.75 -84.05 -5.95 -83.6 -5.35 -81.55 -4.8 -79.5 -4.65 -75.65 -5.0 -73.8 -5.4 -73.1 -6.0 -72.2 -7.1 -72.2 -8.35 -72.2 -9.65 -74.8 M-2.55 -66.65 L-1.15 -66.4 Q-0.6 -66.1 -0.6 -65.65 -0.6 -65.25 -1.1 -64.9 -1.65 -64.6 -2.5 -64.6 L-6.75 -63.85 -12.55 -63.5 -16.65 -63.55 -18.8 -63.85 Q-19.3 -64.05 -19.45 -64.25 L-19.6 -64.45 -19.5 -64.8 -19.15 -65.05 -17.65 -65.45 -16.2 -65.55 -11.8 -65.5 -6.95 -65.85 -2.55 -66.65 M-18.35 -81.2 L-17.1 -82.3 -16.45 -82.7 Q-15.0 -82.7 -14.1 -80.7 -13.25 -78.8 -13.25 -75.9 -13.25 -74.95 -13.85 -73.4 -14.35 -72.05 -14.85 -71.4 L-14.85 -71.3 -14.85 -71.25 -15.6 -71.2 Q-17.15 -71.2 -18.15 -73.15 -19.0 -74.85 -19.0 -76.9 L-18.75 -79.2 -18.35 -81.2 M-15.5 -78.35 L-15.35 -79.1 Q-15.3 -79.85 -15.95 -79.85 -16.55 -79.85 -16.5 -80.15 L-16.45 -80.7 -16.95 -78.85 -17.0 -77.5 Q-17.0 -75.8 -16.55 -74.6 L-15.85 -73.2 -15.5 -75.45 Q-15.35 -77.3 -15.5 -78.35 M-6.75 -75.25 L-6.5 -79.4 Q-6.55 -80.85 -7.2 -80.85 -7.8 -80.85 -7.75 -81.15 L-7.7 -81.7 -8.25 -78.0 -8.05 -75.1 -7.65 -75.1 -7.1 -74.2 Q-6.75 -74.9 -6.75 -75.25 M-10.75 -19.9 L-10.75 -20.4 Q-10.75 -21.6 -13.0 -24.85 -15.35 -28.3 -15.6 -29.95 L-5.25 -28.35 -6.85 -23.95 -8.35 -19.25 -10.75 -19.9" fill="#3f4529" fill-rule="evenodd" stroke="none"/>
    <path d="M22.6 -54.1 L25.0 -36.1 17.35 -34.0 19.6 -40.3 Q21.1 -45.1 21.1 -48.65 L21.05 -52.1 Q21.1 -53.55 21.75 -54.55 L22.6 -54.1 M26.1 -36.45 L24.35 -49.25 26.3 -43.6 27.7 -36.95 26.1 -36.45 M-8.85 -113.6 Q-7.4 -113.75 -5.0 -114.75 L-4.3 -114.25 Q-3.7 -97.15 -2.7 -94.4 -2.2 -93.0 -0.85 -91.9 L2.45 -89.05 Q4.55 -86.85 5.45 -82.3 6.3 -77.8 8.0 -76.1 L12.45 -73.65 Q15.0 -72.25 14.8 -69.0 14.7 -66.75 14.95 -65.0 L17.75 -62.3 Q18.85 -60.9 18.85 -57.25 18.85 -52.35 16.4 -44.7 13.7 -36.4 10.3 -32.55 L-3.85 -31.5 Q1.75 -41.0 5.65 -50.3 9.4 -59.25 9.3 -62.5 0.9 -54.95 -3.4 -45.75 -7.0 -36.25 -9.9 -31.8 L-12.65 -32.1 -13.2 -39.1 -13.6 -45.75 -13.55 -51.9 Q-12.4 -51.2 -9.9 -50.5 L-6.6 -49.9 Q-0.85 -49.9 2.9 -56.4 6.25 -62.25 6.25 -69.7 6.25 -80.4 0.95 -87.6 -3.8 -94.05 -9.45 -94.05 L-12.75 -93.45 Q-14.65 -92.85 -15.9 -92.05 -14.75 -96.0 -13.7 -101.4 -12.45 -106.4 -8.85 -113.6 M-5.25 -28.35 L8.3 -28.9 4.05 -21.8 1.25 -17.8 Q-3.3 -18.15 -8.35 -19.25 L-6.85 -23.95 -5.25 -28.35 M28.35 -33.5 L28.4 -33.5 30.15 -23.95 27.75 -22.8 26.5 -33.25 28.35 -33.5 M15.6 -30.2 Q22.2 -31.85 25.45 -33.0 L26.8 -22.4 Q24.4 -21.1 19.35 -19.65 13.25 -17.95 9.05 -17.9 L15.6 -30.2 M24.65 -16.75 Q22.5 -15.75 17.8 -14.6 L12.5 -13.55 Q11.0 -13.55 9.65 -14.55 L24.65 -16.75 M-1.35 -14.7 Q-2.95 -12.95 -5.75 -12.05 -7.1 -12.05 -7.8 -12.65 -8.75 -13.45 -8.85 -15.5 L-1.35 -14.7" fill="#4f5735" fill-rule="evenodd" stroke="none"/>
    <path d="M30.45 -37.85 L33.75 -39.05 34.15 -35.2 31.25 -34.2 30.45 -37.85 M32.55 -25.25 L34.9 -26.65 35.3 -21.2 32.6 -19.65 32.55 -25.25 M-11.5 -15.95 L-15.45 -17.25 Q-19.2 -18.6 -19.7 -18.9 L-19.7 -23.6 -10.8 -19.9 -11.5 -15.95 M-18.35 -81.2 L-18.75 -79.2 -19.0 -76.9 Q-19.0 -74.85 -18.15 -73.15 -17.15 -71.2 -15.6 -71.2 L-14.85 -71.25 -16.2 -65.55 -17.65 -65.45 -19.15 -65.05 -19.5 -64.8 -20.35 -73.25 Q-21.35 -81.85 -21.3 -84.45 -20.45 -86.6 -18.6 -89.4 -18.25 -83.9 -18.35 -81.2 M-16.95 -78.85 L-15.5 -78.35 Q-15.35 -77.3 -15.5 -75.45 L-15.85 -73.2 -16.55 -74.6 Q-17.0 -75.8 -17.0 -77.5 L-16.95 -78.85 M-19.45 -64.25 Q-19.3 -64.05 -18.8 -63.85 L-16.65 -63.55 -17.25 -58.95 -17.0 -56.9 -16.75 -54.85 -19.15 -58.25 -19.45 -64.25 M-19.6 -33.25 L-16.05 -32.55 -15.6 -29.95 -19.65 -31.15 -19.6 -33.25" fill="#726b23" fill-rule="evenodd" stroke="none"/>
    <path d="M-3.85 -31.5 L10.3 -32.55 8.3 -28.9 -5.25 -28.35 -3.85 -31.5 M-15.9 -92.05 Q-14.65 -92.85 -12.75 -93.45 L-9.45 -94.05 Q-3.8 -94.05 0.95 -87.6 6.25 -80.4 6.25 -69.7 6.25 -62.25 2.9 -56.4 -0.85 -49.9 -6.6 -49.9 L-9.9 -50.5 Q-12.4 -51.2 -13.55 -51.9 L-13.65 -56.55 Q-13.65 -59.2 -12.55 -63.5 L-6.75 -63.85 Q-6.75 -52.55 -6.25 -50.3 L-3.65 -57.5 Q-3.2 -59.0 -2.5 -64.6 -1.65 -64.6 -1.1 -64.9 -0.6 -65.25 -0.6 -65.65 -0.6 -66.1 -1.15 -66.4 L-2.55 -66.65 Q-2.5 -68.1 -2.95 -71.2 -3.45 -74.5 -4.0 -75.75 L-4.65 -75.65 Q-4.8 -79.5 -5.35 -81.55 -5.95 -83.6 -6.75 -84.05 -7.6 -84.5 -8.3 -83.1 -9.05 -81.75 -9.4 -79.1 L-9.65 -74.8 -11.5 -74.95 Q-11.4 -77.4 -9.65 -87.25 L-10.05 -90.15 -10.1 -90.05 -12.4 -87.85 Q-14.7 -85.75 -15.6 -85.75 -16.6 -85.75 -16.5 -86.15 L-15.9 -92.05 M-12.65 -32.1 L-9.9 -31.8 Q-9.9 -30.75 -10.35 -30.15 -10.85 -29.55 -11.4 -29.65 -12.0 -29.75 -12.35 -30.5 -12.7 -31.25 -12.65 -32.1 M27.7 -36.95 L28.35 -33.5 26.5 -33.25 26.1 -36.45 27.7 -36.95 M27.75 -22.8 L30.15 -23.95 Q30.25 -23.15 29.85 -21.85 29.3 -20.1 28.1 -19.15 L27.75 -22.8 M25.0 -36.1 L25.45 -33.0 Q22.2 -31.85 15.6 -30.2 L17.35 -34.0 25.0 -36.1 M24.65 -16.75 L9.65 -14.55 Q8.9 -15.6 8.75 -17.2 L9.05 -17.9 Q13.25 -17.95 19.35 -19.65 24.4 -21.1 26.8 -22.4 L27.2 -18.35 24.65 -16.75 M1.25 -17.8 L-1.35 -14.7 -8.85 -15.5 -8.35 -19.25 Q-3.3 -18.15 1.25 -17.8 M-11.8 -65.5 Q-11.85 -66.35 -11.4 -67.1 L-10.25 -68.25 -8.75 -68.35 -7.45 -67.45 Q-6.95 -66.75 -6.95 -65.85 L-11.8 -65.5 M-7.65 -75.1 L-8.05 -75.1 -8.25 -78.0 -7.7 -81.7 -7.75 -81.15 Q-7.8 -80.85 -7.2 -80.85 -6.55 -80.85 -6.5 -79.4 L-6.75 -75.25 -7.65 -75.1" fill="#aba334" fill-rule="evenodd" stroke="none"/>
    <path d="M25.0 -36.1 L26.1 -36.45 26.5 -33.25 25.45 -33.0 25.0 -36.1 M33.75 -39.05 L36.4 -40.05 36.45 -40.1 36.9 -36.6 34.15 -35.2 33.75 -39.05 M-22.35 -81.4 L-21.3 -84.45 Q-21.35 -81.85 -20.35 -73.25 L-19.5 -64.8 -19.6 -64.45 -19.45 -64.25 -19.15 -58.25 Q-21.15 -62.0 -21.25 -63.5 -21.3 -67.05 -22.35 -81.4 M35.3 -21.2 L34.9 -26.65 37.6 -28.4 37.5 -22.8 35.35 -21.2 35.3 -21.2 M28.1 -19.15 L28.25 -17.8 27.3 -17.5 27.2 -18.35 26.8 -22.4 27.75 -22.8 28.1 -19.15 M-21.3 -20.1 L-21.15 -24.4 -19.7 -23.6 -19.7 -18.9 Q-20.55 -19.45 -21.3 -20.1 M-20.85 -31.55 L-20.8 -32.75 -20.8 -33.45 -19.6 -33.25 -19.65 -31.15 -20.85 -31.55" fill="#3d3812" fill-rule="evenodd" stroke="none"/>
  </g>
</svg>
