<?xml version="1.0" encoding="UTF-8" standalone="no"?>
<svg xmlns:ffdec="https://www.free-decompiler.com/flash" xmlns:xlink="http://www.w3.org/1999/xlink" ffdec:objectType="shape" height="54.75px" width="39.65px" xmlns="http://www.w3.org/2000/svg">
  <g transform="matrix(1.0, 0.0, 0.0, 1.0, 9.5, 3.85)">
    <path d="M4.85 -3.15 Q7.85 -2.2 8.85 -0.5 15.15 10.1 19.55 18.8 24.05 27.75 28.15 37.95 L29.55 40.8 Q30.15 42.3 30.15 45.55 30.15 47.3 28.1 48.85 25.45 50.9 20.75 50.9 20.05 50.9 15.25 45.2 10.2 39.2 4.95 31.9 -9.5 11.85 -9.5 4.9 -9.5 -2.8 -1.35 -3.75 1.85 -4.15 4.85 -3.15 M-7.45 5.3 Q-7.45 11.0 -1.0 20.9 L11.45 39.3 Q14.15 43.6 15.95 45.55 19.4 49.2 22.95 49.2 28.2 48.05 28.2 45.05 28.2 44.05 24.45 35.85 20.0 26.1 12.0 10.05 5.9 -4.65 -1.25 -2.6 -3.8 -1.85 -5.75 0.85 -7.45 3.3 -7.45 5.3" fill="#1f0c16" fill-rule="evenodd" stroke="none"/>
    <path d="M-7.45 5.3 Q-7.45 3.3 -5.75 0.85 -3.8 -1.85 -1.25 -2.6 5.9 -4.65 12.0 10.05 20.0 26.1 24.45 35.85 28.2 44.05 28.2 45.05 28.2 48.05 22.95 49.2 19.4 49.2 15.95 45.55 14.15 43.6 11.45 39.3 L-1.0 20.9 Q-7.45 11.0 -7.45 5.3 M-2.1 11.75 Q2.9 21.55 13.25 38.4 15.3 41.75 19.1 43.85 21.75 45.3 22.7 45.3 L25.0 45.25 25.1 44.4 Q25.1 42.7 18.6 28.25 L11.35 12.4 Q7.35 3.25 6.55 2.1 4.5 -0.9 0.25 -0.9 -2.05 -0.9 -3.5 0.5 -5.1 2.1 -5.1 5.05 -4.6 6.75 -2.1 11.75" fill="#481c33" fill-rule="evenodd" stroke="none"/>
    <path d="M-2.1 11.75 Q-4.6 6.75 -5.1 5.05 -5.1 2.1 -3.5 0.5 -2.05 -0.9 0.25 -0.9 4.5 -0.9 6.55 2.1 7.35 3.25 11.35 12.4 L18.6 28.25 Q25.1 42.7 25.1 44.4 L25.0 45.25 22.7 45.3 Q21.75 45.3 19.1 43.85 15.3 41.75 13.25 38.4 2.9 21.55 -2.1 11.75 M3.45 4.6 Q-0.05 1.5 -0.05 6.5 -0.05 11.15 3.8 18.65 6.2 23.3 9.6 28.3 L12.4 33.35 Q14.7 36.9 17.55 37.65 L18.45 37.45 18.55 35.9 Q18.55 33.5 15.85 28.4 11.7 20.55 9.05 13.5 6.85 7.6 3.45 4.6" fill="#6c2b4e" fill-rule="evenodd" stroke="none"/>
    <path d="M3.45 4.6 Q6.85 7.6 9.05 13.5 11.7 20.55 15.85 28.4 18.55 33.5 18.55 35.9 L18.45 37.45 17.55 37.65 Q14.7 36.9 12.4 33.35 L9.6 28.3 Q6.2 23.3 3.8 18.65 -0.05 11.15 -0.05 6.5 -0.05 1.5 3.45 4.6" fill="#8a3765" fill-rule="evenodd" stroke="none"/>
  </g>
</svg>
