<?xml version="1.0" encoding="UTF-8" standalone="no"?>
<svg xmlns:ffdec="https://www.free-decompiler.com/flash" xmlns:xlink="http://www.w3.org/1999/xlink" ffdec:objectType="shape" height="171.45px" width="74.55px" xmlns="http://www.w3.org/2000/svg">
  <g transform="matrix(1.0, 0.0, 0.0, 1.0, -0.1, 170.95)">
    <path d="M51.9 -104.1 L74.35 -104.1 74.35 -104.05 74.4 -104.05 74.35 -92.1 72.6 -87.05 72.25 -86.85 64.55 -86.85 63.3 -86.85 61.4 -86.85 59.15 -86.85 55.75 -86.85 52.65 -86.85 51.6 -86.85 50.35 -86.85 23.85 -86.85 22.65 -86.85 20.7 -86.85 18.45 -86.85 15.05 -86.85 11.95 -86.85 10.9 -86.85 9.65 -86.85 0.5 -86.85 0.1 -87.45 0.15 -98.05 2.05 -103.65 2.8 -104.1 28.05 -104.1 31.6 -102.9 3.3 -102.9 1.6 -98.6 72.9 -98.6 72.9 -90.7 73.45 -93.6 73.45 -98.85 73.2 -98.85 73.2 -102.8 69.85 -102.8 69.85 -102.9 51.65 -102.9 51.9 -104.1 M64.55 -16.8 L74.65 -16.8 74.5 -5.25 74.2 -5.05 72.75 0.2 72.25 0.5 0.5 0.45 0.1 -0.1 0.15 -10.8 2.05 -16.35 2.8 -16.8 9.65 -16.8 9.65 -15.55 3.3 -15.55 1.3 -11.3 72.2 -11.3 72.75 -3.9 73.45 -6.35 73.45 -15.55 64.55 -15.55 64.55 -16.8 M51.7 -88.05 L71.55 -88.05 71.55 -97.35 62.1 -97.35 58.45 -97.35 55.15 -97.35 55.1 -97.5 55.05 -97.35 50.4 -97.35 43.35 -97.35 43.15 -97.35 43.1 -97.5 43.05 -97.35 32.85 -97.35 31.4 -97.35 31.35 -97.5 31.3 -97.35 22.3 -97.35 19.65 -97.35 19.6 -97.5 19.55 -97.35 1.35 -97.35 1.35 -88.05 11.05 -88.05 23.0 -88.05 32.35 -88.05 41.5 -88.05 49.25 -88.05 51.7 -88.05 M50.35 -16.8 L50.35 -15.55 23.85 -15.55 23.85 -16.8 50.35 -16.8 M19.45 -10.0 L1.35 -10.0 1.35 -0.8 11.05 -0.8 23.0 -0.8 32.35 -0.8 41.5 -0.8 49.25 -0.8 51.7 -0.8 71.55 -0.8 71.55 -10.0 62.1 -10.0 58.45 -10.0 55.3 -10.0 55.1 -10.5 54.95 -10.0 50.4 -10.0 43.35 -10.0 43.3 -10.0 43.1 -10.5 42.95 -10.0 32.85 -10.0 31.55 -10.0 31.35 -10.5 31.2 -10.0 22.3 -10.0 19.8 -10.0 19.6 -10.5 19.45 -10.0" fill="#530606" fill-rule="evenodd" stroke="none"/>
    <path d="M31.6 -102.9 L34.1 -102.15 41.0 -100.7 47.25 -99.5 50.8 -99.1 51.65 -102.9 69.85 -102.9 69.85 -102.8 73.2 -102.8 72.9 -98.6 1.6 -98.6 3.3 -102.9 31.6 -102.9 M62.1 -97.35 L60.3 -95.8 58.7 -94.45 58.25 -94.05 56.3 -94.1 56.0 -94.95 56.85 -95.8 58.45 -97.35 62.1 -97.35 M52.15 -88.45 L51.7 -88.05 49.25 -88.05 50.0 -88.85 50.35 -89.25 51.35 -90.25 51.7 -90.6 52.95 -91.9 53.15 -91.75 52.15 -88.45 M41.5 -88.05 L32.35 -88.05 33.45 -88.95 34.35 -88.35 34.05 -89.35 34.85 -89.95 34.95 -90.05 36.8 -91.55 39.0 -93.45 41.15 -91.75 40.1 -88.35 43.1 -90.35 43.45 -90.1 42.8 -89.4 41.5 -88.05 M23.0 -88.05 L11.05 -88.05 11.95 -88.9 12.05 -89.0 13.45 -90.25 14.85 -91.45 16.4 -92.75 17.65 -91.75 16.6 -88.35 19.6 -90.35 22.6 -88.35 21.55 -91.75 24.45 -94.0 20.8 -94.1 20.25 -95.75 20.3 -95.8 22.3 -97.35 31.3 -97.35 30.6 -95.4 29.35 -94.3 29.1 -94.05 26.5 -94.0 27.9 -92.9 27.1 -92.15 25.6 -90.65 23.85 -88.95 23.0 -88.05 M31.4 -97.35 L32.85 -97.35 31.75 -96.35 31.4 -97.35 M43.35 -97.35 L50.4 -97.35 48.95 -95.8 47.2 -94.0 44.3 -94.1 43.2 -97.2 43.35 -97.35 M39.65 -94.05 L41.65 -95.8 42.9 -96.95 41.9 -94.1 39.65 -94.05 M50.35 -15.55 L50.35 -12.9 50.45 -12.55 50.55 -12.45 Q50.7 -12.2 51.0 -12.2 L63.95 -12.2 64.4 -12.45 64.45 -12.55 64.55 -12.9 64.55 -15.55 73.45 -15.55 72.2 -11.3 1.3 -11.3 3.3 -15.55 9.65 -15.55 9.65 -12.9 9.65 -12.65 9.85 -12.45 Q10.0 -12.2 10.25 -12.2 L23.25 -12.2 23.65 -12.45 23.8 -12.6 23.85 -12.9 23.85 -15.55 50.35 -15.55 M18.05 -94.1 L18.55 -94.45 18.4 -94.1 18.05 -94.1 M11.05 -0.8 L14.9 -4.15 16.3 -5.35 16.6 -5.55 17.65 -4.75 16.6 -1.35 19.6 -3.35 22.6 -1.35 21.55 -4.75 24.45 -7.0 20.8 -7.1 20.3 -8.5 22.3 -10.0 31.2 -10.0 30.45 -7.85 29.5 -7.05 26.5 -7.0 28.1 -5.75 26.85 -4.55 25.6 -3.35 23.0 -0.8 11.05 -0.8 M31.55 -10.0 L32.85 -10.0 31.85 -9.1 31.55 -10.0 M43.35 -10.0 L50.4 -10.0 47.55 -7.0 44.3 -7.1 43.3 -9.95 43.35 -10.0 M58.45 -10.0 L62.1 -10.0 58.7 -7.15 58.6 -7.05 56.3 -7.1 56.1 -7.75 58.45 -10.0 M51.7 -0.8 L49.25 -0.8 50.0 -1.5 51.15 -2.75 53.1 -4.75 53.15 -4.75 52.1 -1.35 52.75 -1.75 52.3 -1.35 51.7 -0.8 M41.5 -0.8 L32.35 -0.8 33.65 -1.8 34.35 -1.35 34.1 -2.15 34.8 -2.65 34.95 -2.75 36.4 -3.85 39.2 -6.25 41.15 -4.75 40.1 -1.35 43.1 -3.35 43.65 -2.95 42.75 -2.05 41.5 -0.8 M40.1 -7.05 L42.75 -9.4 41.9 -7.1 40.1 -7.05 M45.15 -4.5 L45.05 -4.75 46.35 -5.75 45.7 -5.1 45.15 -4.5" fill="#fc1e1e" fill-rule="evenodd" stroke="none"/>
    <path d="M62.1 -97.35 L71.55 -97.35 71.55 -88.05 51.7 -88.05 52.15 -88.45 52.1 -88.35 55.1 -90.35 58.1 -88.35 57.05 -91.75 59.95 -94.0 58.25 -94.05 58.7 -94.45 60.3 -95.8 62.1 -97.35 M49.25 -88.05 L41.5 -88.05 42.8 -89.4 43.45 -90.1 46.1 -88.35 45.05 -91.75 47.95 -94.0 47.2 -94.0 48.95 -95.8 50.4 -97.35 55.05 -97.35 53.9 -94.1 50.25 -94.0 52.95 -91.9 51.7 -90.6 51.35 -90.25 50.35 -89.25 50.0 -88.85 49.25 -88.05 M32.35 -88.05 L23.0 -88.05 23.85 -88.95 25.6 -90.65 27.1 -92.15 27.9 -92.9 29.4 -91.75 28.35 -88.35 31.35 -90.35 33.45 -88.95 32.35 -88.05 M11.05 -88.05 L1.35 -88.05 1.35 -97.35 19.55 -97.35 18.55 -94.45 18.05 -94.1 14.75 -94.0 16.4 -92.75 14.85 -91.45 13.45 -90.25 12.05 -89.0 11.95 -88.9 11.05 -88.05 M19.65 -97.35 L22.3 -97.35 20.3 -95.8 20.25 -95.75 19.65 -97.35 M32.85 -97.35 L43.05 -97.35 42.9 -96.95 41.65 -95.8 39.65 -94.05 38.25 -94.0 39.0 -93.45 36.8 -91.55 34.95 -90.05 34.85 -89.95 34.05 -89.35 33.3 -91.75 36.2 -94.0 32.55 -94.1 31.75 -96.35 32.85 -97.35 M43.15 -97.35 L43.35 -97.35 43.2 -97.2 43.15 -97.35 M55.15 -97.35 L58.45 -97.35 56.85 -95.8 56.0 -94.95 55.15 -97.35 M30.6 -95.4 L30.15 -94.1 29.1 -94.05 29.35 -94.3 30.6 -95.4 M11.05 -0.8 L1.35 -0.8 1.35 -10.0 19.45 -10.0 18.4 -7.1 14.75 -7.0 16.6 -5.55 16.3 -5.35 14.9 -4.15 11.05 -0.8 M19.8 -10.0 L22.3 -10.0 20.3 -8.5 19.8 -10.0 M32.85 -10.0 L42.95 -10.0 42.75 -9.4 40.1 -7.05 38.25 -7.0 39.2 -6.25 36.4 -3.85 34.95 -2.75 34.8 -2.65 34.1 -2.15 33.3 -4.75 36.2 -7.0 32.55 -7.1 31.85 -9.1 32.85 -10.0 M43.3 -10.0 L43.35 -10.0 43.3 -9.95 43.3 -10.0 M50.4 -10.0 L54.95 -10.0 53.9 -7.1 50.25 -7.0 53.1 -4.75 51.15 -2.75 50.0 -1.5 49.25 -0.8 41.5 -0.8 42.75 -2.05 43.65 -2.95 46.1 -1.35 45.15 -4.5 45.7 -5.1 46.35 -5.75 47.95 -7.0 47.55 -7.0 50.4 -10.0 M55.3 -10.0 L58.45 -10.0 56.1 -7.75 55.3 -10.0 M62.1 -10.0 L71.55 -10.0 71.55 -0.8 51.7 -0.8 52.3 -1.35 52.75 -1.75 55.1 -3.35 58.1 -1.35 57.05 -4.75 59.95 -7.0 58.6 -7.05 58.7 -7.15 62.1 -10.0 M32.35 -0.8 L23.0 -0.8 25.6 -3.35 26.85 -4.55 28.1 -5.75 29.4 -4.75 28.35 -1.35 31.35 -3.35 33.65 -1.8 32.35 -0.8 M30.45 -7.85 L30.15 -7.1 29.5 -7.05 30.45 -7.85" fill="#bb0f0f" fill-rule="evenodd" stroke="none"/>
    <path d="M72.9 -98.6 L73.2 -102.8 73.2 -98.85 73.45 -98.85 73.45 -93.6 72.9 -90.7 72.9 -98.6 M72.2 -11.3 L73.45 -15.55 73.45 -6.35 72.75 -3.9 72.2 -11.3" fill="#920c0c" fill-rule="evenodd" stroke="none"/>
    <path d="M49.15 -166.1 L52.15 -170.6 52.9 -170.85 54.25 -170.8 54.2 -170.0 54.05 -170.05 53.4 -170.1 52.9 -169.75 Q51.3 -168.55 50.5 -166.65 L49.85 -165.75 50.9 -163.55 51.05 -162.9 51.1 -161.45 50.9 -160.45 50.1 -157.3 49.65 -156.4 47.9 -153.95 47.4 -153.5 46.45 -152.8 45.2 -152.1 43.75 -151.8 42.35 -152.35 Q41.6 -152.65 40.95 -153.1 L35.35 -145.95 30.3 -140.0 28.65 -138.05 27.55 -136.85 26.6 -135.9 27.65 -136.7 29.3 -137.4 30.1 -137.45 31.4 -137.3 32.0 -137.05 32.5 -136.7 33.0 -136.1 33.65 -135.0 34.0 -133.15 33.8 -131.9 33.05 -128.05 32.7 -127.4 32.25 -126.65 31.8 -125.95 31.4 -125.55 31.0 -125.0 31.95 -123.8 31.3 -122.65 30.4 -122.9 Q30.1 -123.0 29.9 -123.2 L29.8 -123.9 28.95 -123.3 28.75 -123.25 27.75 -122.85 26.2 -122.65 25.7 -122.75 Q24.1 -123.35 23.4 -124.8 L22.9 -126.6 Q22.65 -130.05 24.65 -133.2 L25.25 -134.4 20.75 -129.6 20.0 -128.85 14.35 -123.25 14.1 -123.2 13.8 -122.75 13.1 -122.15 20.0 -119.05 11.85 -121.9 12.6 -122.35 12.4 -122.45 15.65 -125.55 20.1 -129.95 24.4 -134.45 28.65 -139.15 32.7 -143.85 36.65 -148.75 40.55 -153.75 41.25 -154.0 41.45 -153.65 Q43.95 -151.55 46.6 -154.0 49.35 -156.3 50.15 -159.9 50.9 -162.95 48.95 -165.4 L49.15 -166.1 M51.85 -167.8 L52.3 -168.6 53.0 -168.35 52.95 -168.25 52.9 -167.75 52.35 -167.5 51.85 -167.8 M55.05 -167.85 L54.95 -169.65 56.25 -169.05 56.4 -166.3 55.05 -167.85 M52.1 -115.0 L53.5 -114.75 52.7 -110.25 52.25 -108.8 51.1 -109.35 52.1 -115.0 M55.3 -160.45 L55.2 -163.35 56.5 -163.3 56.65 -153.2 55.95 -154.25 Q54.85 -156.65 56.1 -158.8 L55.3 -160.45 M50.45 -155.35 L50.8 -155.2 50.9 -154.2 50.7 -153.85 50.05 -153.55 49.65 -154.45 49.95 -155.25 50.45 -155.35 M37.95 -145.0 L37.95 -145.1 38.05 -145.3 38.3 -145.9 38.35 -145.9 38.8 -145.85 39.6 -145.45 Q39.85 -144.8 39.75 -144.05 L39.35 -143.35 39.0 -143.25 38.7 -143.4 Q37.75 -144.0 37.95 -145.0 M56.5 -147.95 Q55.65 -149.0 55.35 -150.3 L56.05 -150.8 56.6 -150.6 56.5 -147.95 M34.7 -141.3 Q34.3 -142.3 34.55 -143.3 L34.8 -143.65 35.65 -143.2 34.85 -141.35 34.7 -141.3 M41.4 -130.6 L40.7 -131.2 40.35 -131.85 Q39.05 -134.95 40.15 -138.15 L40.4 -138.85 40.75 -139.7 41.3 -140.6 Q42.15 -142.0 43.25 -143.05 L44.15 -143.8 Q45.55 -144.85 47.2 -144.85 L49.15 -144.15 49.4 -143.85 Q50.15 -143.25 50.35 -142.35 L50.45 -141.75 Q51.0 -138.9 50.0 -136.1 L49.1 -134.15 48.4 -133.1 47.55 -132.2 47.3 -131.9 46.55 -131.25 44.95 -130.35 44.7 -130.2 44.3 -130.15 Q42.8 -129.95 41.55 -130.55 L41.4 -130.6 M34.95 -136.15 L34.55 -135.8 33.95 -135.8 Q33.4 -136.55 33.6 -137.35 L33.9 -137.85 34.3 -137.95 35.05 -137.6 Q35.4 -136.9 34.95 -136.15 M23.7 -126.7 Q23.65 -125.35 24.8 -124.5 27.45 -122.35 29.95 -124.95 32.5 -127.6 33.3 -131.2 33.85 -134.05 32.05 -135.8 31.55 -136.35 30.95 -136.4 27.25 -136.65 25.45 -133.25 23.7 -130.25 23.7 -126.7 M36.3 -130.1 L36.75 -130.0 37.35 -129.8 36.65 -127.2 36.2 -127.35 Q35.0 -128.7 36.05 -129.95 L36.3 -130.1 M18.55 -125.85 L19.15 -126.45 19.8 -126.35 20.3 -125.9 20.15 -125.15 19.75 -124.65 19.0 -124.6 Q18.7 -124.8 18.55 -125.2 L18.55 -125.85 M6.25 -116.55 Q8.45 -115.55 10.25 -113.7 10.95 -113.05 11.9 -112.8 L15.35 -111.6 Q17.1 -110.9 18.6 -109.65 19.9 -108.7 21.2 -108.4 L24.2 -108.25 25.05 -108.35 25.7 -108.05 26.15 -106.75 29.35 -105.85 30.75 -105.15 33.4 -105.3 Q34.35 -105.0 35.1 -104.35 L35.4 -104.75 35.75 -104.7 35.95 -104.7 36.1 -104.55 36.3 -104.4 36.5 -104.2 36.7 -104.1 Q37.95 -103.4 39.35 -103.3 L39.95 -103.9 41.3 -103.7 41.9 -103.05 42.05 -102.9 42.1 -102.55 42.1 -102.25 46.5 -101.9 45.6 -102.9 44.95 -104.1 Q44.4 -105.9 45.8 -108.1 47.2 -110.1 49.35 -109.25 L51.95 -108.1 52.25 -108.0 50.3 -99.9 49.1 -100.4 Q47.95 -99.75 46.8 -100.05 L42.95 -100.9 36.65 -102.3 34.2 -102.9 30.25 -104.1 29.65 -104.3 Q26.7 -105.3 23.85 -106.45 20.5 -107.8 17.35 -109.45 L11.45 -112.15 Q8.1 -113.55 6.25 -116.55 M40.15 -121.75 L39.45 -121.4 39.45 -122.05 39.95 -122.35 40.15 -121.75 M35.35 -118.65 L34.5 -118.4 34.25 -118.7 34.7 -119.5 35.3 -119.2 35.35 -118.65 M56.35 -143.05 L56.2 -138.55 56.05 -137.0 54.75 -137.85 55.05 -142.4 56.35 -143.05 M51.65 -145.6 Q50.4 -145.0 49.65 -146.05 L50.3 -148.35 50.75 -148.65 Q52.55 -147.75 51.8 -145.85 L51.65 -145.6 M49.45 -128.05 L49.3 -128.1 48.8 -128.9 49.35 -130.45 49.65 -130.55 Q51.2 -130.15 50.7 -128.4 L50.45 -128.0 50.0 -127.8 Q49.75 -127.9 49.45 -128.05 M45.7 -146.1 L44.6 -146.6 44.5 -146.95 Q44.95 -147.9 45.7 -148.35 47.0 -147.35 45.7 -146.1 M48.75 -143.15 Q48.1 -143.75 47.35 -143.75 43.8 -143.85 42.0 -140.45 40.25 -137.55 40.4 -134.1 L41.1 -132.25 Q41.75 -130.9 43.05 -130.95 46.65 -131.1 48.35 -134.45 50.25 -137.4 50.1 -140.75 50.0 -142.25 48.75 -143.15 M44.8 -129.05 L45.15 -128.6 45.05 -128.1 44.75 -127.8 44.3 -127.85 Q44.05 -127.9 43.95 -128.2 L43.9 -128.65 44.4 -129.05 44.8 -129.05 M55.9 -134.8 L55.6 -132.1 55.3 -132.65 Q54.65 -133.7 54.7 -134.95 L55.9 -134.8 M55.35 -128.9 L55.05 -125.95 54.9 -125.0 53.6 -125.25 53.75 -126.9 54.35 -127.45 55.35 -128.9 M52.45 -117.55 L52.8 -119.7 54.2 -119.7 53.8 -116.75 52.45 -117.55 M47.75 -122.15 L47.9 -121.6 47.3 -120.2 46.7 -120.0 46.2 -119.9 Q45.3 -121.0 45.5 -122.3 L45.65 -123.0 46.55 -122.95 Q47.35 -122.75 47.75 -122.15 M50.35 -106.15 L49.75 -106.25 49.5 -105.8 49.35 -105.35 49.9 -104.95 50.15 -104.95 50.45 -105.05 50.75 -105.6 50.35 -106.15 M46.6 -105.75 L47.15 -105.7 47.6 -106.15 47.6 -106.7 47.2 -107.1 46.65 -107.1 46.25 -106.75 Q46.1 -106.45 46.25 -106.15 L46.6 -105.75 M49.75 -108.45 L49.05 -108.65 Q48.65 -108.2 48.8 -107.65 L49.3 -107.45 49.75 -108.45 M48.2 -103.35 L48.7 -103.9 47.8 -104.3 47.45 -103.55 47.55 -103.3 47.8 -103.15 47.9 -103.1 48.2 -103.35 M61.4 -86.85 L63.3 -86.85 63.3 -13.5 61.4 -13.5 61.4 -86.85 M51.6 -86.85 L52.65 -86.85 52.65 -13.5 51.6 -13.5 51.6 -86.85 M22.65 -86.85 L22.65 -13.5 20.7 -13.5 20.7 -86.85 22.65 -86.85 M11.95 -13.5 L10.9 -13.5 10.9 -86.85 11.95 -86.85 11.95 -13.5" fill="#df8600" fill-rule="evenodd" stroke="none"/>
    <path d="M49.15 -166.1 L48.95 -165.4 Q50.9 -162.95 50.15 -159.9 49.35 -156.3 46.6 -154.0 43.95 -151.55 41.45 -153.65 L41.25 -154.0 40.55 -153.75 40.45 -154.15 41.35 -155.2 Q43.35 -157.35 44.8 -159.85 46.9 -163.0 48.55 -166.25 L49.15 -166.1 M12.4 -122.45 L12.6 -122.35 11.85 -121.9 9.15 -121.95 Q5.8 -120.35 6.25 -116.55 8.1 -113.55 11.45 -112.15 L17.35 -109.45 Q20.5 -107.8 23.85 -106.45 26.7 -105.3 29.65 -104.3 L30.25 -104.1 34.2 -102.9 36.65 -102.3 42.95 -100.9 46.8 -100.05 Q47.95 -99.75 49.1 -100.4 L50.3 -99.9 52.25 -108.0 51.95 -108.1 52.25 -108.8 52.7 -110.25 53.5 -114.75 54.15 -114.3 51.9 -104.1 51.65 -102.9 50.8 -99.1 47.25 -99.5 41.0 -100.7 34.1 -102.15 31.6 -102.9 28.05 -104.1 27.65 -104.25 21.65 -106.65 Q18.55 -107.85 15.65 -109.45 12.8 -110.95 9.9 -112.1 6.45 -113.45 5.75 -116.7 5.2 -118.8 6.45 -120.35 8.75 -123.9 12.4 -122.45 M54.05 -170.05 L54.2 -170.0 54.25 -170.8 56.95 -169.5 57.2 -165.8 56.4 -166.3 56.25 -169.05 54.95 -169.65 55.05 -167.85 54.6 -168.0 54.25 -167.55 54.05 -170.05 M57.3 -163.1 L57.35 -152.5 56.65 -153.2 56.5 -163.3 57.3 -163.1 M57.35 -150.4 L57.25 -146.9 56.5 -147.95 56.6 -150.6 57.35 -150.4 M57.15 -143.5 L56.75 -136.7 56.05 -137.0 56.2 -138.55 56.35 -143.05 57.15 -143.5 M56.55 -134.55 L56.35 -130.9 55.6 -124.9 54.9 -125.0 55.05 -125.95 55.35 -128.9 55.7 -129.5 Q56.35 -130.8 55.6 -132.1 L55.9 -134.8 56.55 -134.55 M54.95 -119.55 L54.5 -116.4 53.8 -116.75 54.2 -119.7 54.95 -119.55 M64.55 -86.85 L64.55 -16.8 64.55 -15.55 64.55 -12.9 64.45 -12.55 64.4 -12.45 63.95 -12.2 51.0 -12.2 Q50.7 -12.2 50.55 -12.45 L50.45 -12.55 50.35 -12.9 50.35 -15.55 50.35 -16.8 50.35 -86.85 51.6 -86.85 51.6 -13.5 52.65 -13.5 55.75 -13.5 59.15 -13.5 61.4 -13.5 63.3 -13.5 63.3 -86.85 64.55 -86.85 M9.65 -16.8 L9.65 -86.85 10.9 -86.85 10.9 -13.5 11.95 -13.5 15.05 -13.5 18.45 -13.5 20.7 -13.5 22.65 -13.5 22.65 -86.85 23.85 -86.85 23.85 -16.8 23.85 -15.55 23.85 -12.9 23.8 -12.6 23.65 -12.45 23.25 -12.2 10.25 -12.2 Q10.0 -12.2 9.85 -12.45 L9.65 -12.65 9.65 -12.9 9.65 -15.55 9.65 -16.8 M49.55 -114.4 L49.9 -114.45 50.7 -115.25 51.35 -115.1 52.1 -115.0 51.1 -109.35 48.9 -110.75 49.05 -111.6 49.45 -113.8 49.7 -114.2 49.55 -114.4 M55.3 -160.45 L55.2 -161.65 55.2 -163.35 55.3 -160.45 M48.6 -164.5 L48.05 -163.9 46.05 -160.35 Q44.1 -157.2 41.8 -154.7 43.05 -153.6 44.65 -154.15 46.2 -154.6 47.1 -156.05 49.85 -160.0 48.6 -164.5 M28.9 -135.55 Q27.35 -134.95 26.5 -133.5 24.4 -130.5 24.45 -126.95 24.5 -125.8 25.45 -125.35 28.95 -123.75 30.75 -127.45 32.6 -130.4 32.2 -133.7 L31.9 -134.9 Q30.85 -136.75 28.9 -135.55 M23.7 -126.7 Q23.7 -130.25 25.45 -133.25 27.25 -136.65 30.95 -136.4 31.55 -136.35 32.05 -135.8 33.85 -134.05 33.3 -131.2 32.5 -127.6 29.95 -124.95 27.45 -122.35 24.8 -124.5 23.65 -125.35 23.7 -126.7 M54.75 -137.85 L54.6 -138.35 Q54.0 -140.4 55.05 -142.4 L54.75 -137.85 M48.75 -143.15 Q50.0 -142.25 50.1 -140.75 50.25 -137.4 48.35 -134.45 46.65 -131.1 43.05 -130.95 41.75 -130.9 41.1 -132.25 L40.4 -134.1 Q40.25 -137.55 42.0 -140.45 43.8 -143.85 47.35 -143.75 48.1 -143.75 48.75 -143.15 M45.45 -142.4 Q42.55 -140.9 41.1 -137.85 39.25 -133.8 43.2 -132.2 45.1 -131.9 46.5 -133.25 47.7 -134.15 48.3 -135.4 50.25 -138.3 48.75 -141.25 47.6 -143.45 45.45 -142.4 M53.75 -126.9 L53.6 -125.25 53.4 -125.6 Q53.4 -126.35 53.75 -126.9 M55.35 -123.55 L55.5 -123.65 55.5 -123.5 55.35 -123.55 M52.45 -117.55 L52.4 -117.85 Q52.05 -118.65 52.25 -119.5 L52.8 -119.7 52.45 -117.55" fill="#953100" fill-rule="evenodd" stroke="none"/>
    <path d="M28.75 -123.25 L28.95 -123.3 29.2 -121.75 Q28.8 -121.95 28.7 -122.4 L28.75 -123.25 M31.8 -125.95 L32.25 -126.65 Q35.7 -125.45 34.25 -122.1 L33.8 -121.4 Q33.15 -121.25 32.7 -121.65 L32.15 -122.25 32.5 -123.0 Q32.8 -124.45 31.65 -125.4 L31.8 -125.95 M29.3 -137.4 L27.65 -136.7 27.55 -136.85 28.65 -138.05 29.3 -137.4 M46.45 -152.8 L47.4 -153.5 48.05 -152.6 48.35 -152.05 47.9 -151.4 47.3 -151.5 46.45 -152.8 M47.9 -153.95 L49.65 -156.4 50.1 -157.3 50.95 -155.35 49.95 -155.75 49.5 -155.2 Q49.0 -154.1 49.6 -153.15 L48.9 -153.15 47.9 -153.95 M41.1 -149.05 Q40.7 -149.95 40.65 -150.9 L40.65 -151.6 40.9 -151.8 Q42.45 -150.85 42.15 -148.9 L41.65 -149.0 41.1 -149.05 M41.1 -147.9 L41.45 -147.25 Q43.1 -143.7 40.3 -141.4 L38.95 -142.3 39.3 -142.25 39.45 -142.3 39.65 -142.45 39.8 -142.7 Q40.7 -144.8 38.95 -146.3 L39.25 -148.2 40.25 -148.55 40.75 -148.3 41.1 -147.9 M36.3 -131.15 Q35.8 -133.15 36.75 -134.85 L36.9 -134.95 37.1 -134.8 37.3 -134.75 37.4 -134.6 Q37.75 -132.8 37.5 -131.15 L36.3 -131.15 M41.7 -126.9 L41.4 -130.6 41.55 -130.55 42.1 -130.25 43.4 -129.75 43.45 -129.3 43.4 -129.15 43.05 -128.5 41.7 -126.9 M40.7 -131.2 L40.05 -130.6 39.6 -130.3 Q37.45 -130.95 37.7 -133.45 38.0 -135.75 39.25 -137.55 L40.15 -138.15 Q39.05 -134.95 40.35 -131.85 L40.7 -131.2 M40.4 -138.85 Q39.05 -138.55 37.75 -139.25 L37.25 -139.65 37.4 -139.9 40.2 -140.0 40.75 -139.7 40.4 -138.85 M21.35 -125.05 Q23.0 -124.4 23.9 -123.0 L24.0 -122.7 23.7 -122.1 Q21.6 -122.35 20.85 -124.35 L21.3 -125.1 21.35 -125.05 M12.25 -118.65 Q11.85 -116.2 9.45 -117.6 L8.3 -118.55 Q8.4 -119.8 9.4 -120.3 9.55 -120.45 9.75 -120.45 11.35 -120.2 12.1 -119.0 L12.25 -118.65 M20.05 -115.8 Q22.65 -116.95 24.5 -114.25 24.95 -113.6 24.75 -112.7 23.65 -111.65 22.0 -111.95 20.1 -113.05 19.8 -115.2 L20.05 -115.8 M18.9 -114.5 L18.85 -114.25 Q17.2 -113.8 17.05 -115.6 L17.1 -115.95 17.2 -116.15 17.75 -116.4 Q18.95 -115.85 18.9 -114.5 M35.65 -111.85 Q34.35 -109.45 31.8 -110.65 30.45 -111.0 29.6 -112.05 L29.5 -112.35 Q31.8 -114.7 35.1 -112.7 35.7 -112.35 35.65 -111.85 M26.5 -114.6 Q27.75 -114.85 28.4 -114.0 L28.65 -113.7 28.65 -113.3 28.55 -113.05 Q28.0 -112.55 27.15 -112.65 L26.25 -112.75 25.9 -113.95 26.05 -114.55 26.5 -114.6 M39.6 -107.8 L39.95 -108.75 Q42.35 -109.15 42.95 -106.6 43.2 -105.7 42.5 -105.5 41.75 -105.2 41.1 -105.5 40.05 -106.1 39.75 -107.05 L39.6 -107.8 M34.0 -107.95 L34.3 -108.25 34.95 -108.7 36.1 -108.2 35.2 -106.4 34.55 -106.45 33.85 -107.55 34.0 -107.95 M50.35 -142.35 Q50.15 -143.25 49.4 -143.85 L49.15 -144.15 49.6 -144.25 Q49.9 -143.9 50.3 -143.75 50.75 -143.5 51.25 -143.35 L50.35 -142.35 M49.1 -134.15 L50.0 -136.1 50.45 -135.7 Q50.9 -135.15 50.45 -134.5 L50.0 -134.1 49.1 -134.15 M45.65 -119.15 Q42.6 -120.2 43.95 -123.55 44.15 -124.05 44.7 -124.15 L44.3 -122.95 Q43.9 -120.7 45.65 -119.15 M41.4 -120.55 L41.2 -120.65 41.15 -120.85 Q41.7 -123.05 43.2 -122.4 42.85 -121.15 41.8 -120.45 L41.6 -120.4 41.4 -120.55 M55.75 -86.85 L59.15 -86.85 59.15 -13.5 55.75 -13.5 55.75 -86.85 M18.45 -13.5 L15.05 -13.5 15.05 -86.85 18.45 -86.85 18.45 -13.5" fill="#fff1bf" fill-rule="evenodd" stroke="none"/>
    <path d="M11.85 -121.9 L20.0 -119.05 20.85 -118.75 22.25 -118.25 29.0 -116.05 35.35 -114.05 Q38.75 -112.95 42.1 -112.2 L48.9 -110.75 51.1 -109.35 52.25 -108.8 51.95 -108.1 49.35 -109.25 Q47.2 -110.1 45.8 -108.1 44.4 -105.9 44.95 -104.1 L45.6 -102.9 46.5 -101.9 42.1 -102.25 42.1 -102.55 42.05 -102.9 41.9 -103.05 41.3 -103.7 39.95 -103.9 39.35 -103.3 Q37.95 -103.4 36.7 -104.1 L36.5 -104.2 36.3 -104.4 36.1 -104.55 35.95 -104.7 35.75 -104.7 35.4 -104.75 35.1 -104.35 Q34.35 -105.0 33.4 -105.3 L30.75 -105.15 29.35 -105.85 26.15 -106.75 25.7 -108.05 25.05 -108.35 24.2 -108.25 21.2 -108.4 Q19.9 -108.7 18.6 -109.65 17.1 -110.9 15.35 -111.6 L11.9 -112.8 Q10.95 -113.05 10.25 -113.7 8.45 -115.55 6.25 -116.55 5.8 -120.35 9.15 -121.95 L11.85 -121.9 M14.35 -123.25 L20.0 -128.85 20.8 -127.85 20.55 -127.8 19.6 -127.1 19.35 -127.1 Q17.75 -126.6 18.35 -124.8 18.25 -123.8 18.75 -123.15 L17.95 -123.3 17.5 -122.75 17.6 -122.35 16.95 -122.4 Q15.5 -122.55 14.35 -123.25 M22.9 -126.6 L23.4 -124.8 21.95 -125.4 22.55 -126.8 22.9 -126.6 M26.2 -122.65 L27.75 -122.85 27.3 -121.85 27.8 -121.2 27.4 -120.95 27.15 -120.35 27.5 -119.7 Q27.85 -119.55 28.15 -119.45 L28.6 -120.45 28.45 -120.8 29.45 -120.15 Q31.25 -118.9 33.45 -118.45 L33.95 -117.95 34.35 -117.9 34.95 -118.0 35.25 -118.45 35.35 -118.65 35.45 -119.15 36.3 -120.05 Q38.35 -123.6 35.25 -126.35 L36.05 -126.35 37.25 -126.5 37.85 -126.25 Q40.0 -125.55 41.7 -126.9 L43.05 -128.5 Q42.85 -128.05 43.15 -127.65 L44.05 -126.9 43.15 -126.1 Q41.6 -124.65 40.75 -122.65 L40.5 -122.95 Q39.85 -123.45 39.0 -123.25 L38.75 -122.75 38.7 -121.7 38.3 -121.65 Q36.6 -119.9 37.65 -117.7 38.0 -116.9 38.75 -117.15 40.9 -117.8 40.15 -120.05 L40.5 -120.25 40.75 -119.75 Q41.65 -118.3 43.1 -117.6 L42.45 -117.4 41.7 -117.75 41.15 -116.85 41.35 -116.5 41.75 -116.0 42.35 -115.6 40.1 -115.3 39.95 -115.7 39.65 -116.05 39.45 -116.0 38.8 -115.85 38.3 -116.15 37.6 -116.45 37.85 -116.55 37.8 -117.15 37.7 -117.3 Q37.15 -117.5 36.9 -117.05 L36.95 -116.85 37.2 -116.45 35.65 -116.3 35.2 -116.9 Q34.25 -118.25 32.65 -117.5 L32.5 -117.9 31.9 -118.05 31.8 -117.7 31.95 -117.3 31.3 -117.45 Q29.7 -120.0 27.1 -118.6 L26.7 -118.65 25.5 -119.55 25.05 -119.55 24.15 -119.6 24.6 -120.05 Q24.5 -120.65 24.05 -120.85 L23.85 -120.8 23.45 -120.35 22.2 -120.5 Q20.4 -120.55 19.2 -121.9 L19.35 -122.3 19.3 -122.7 20.4 -122.3 23.0 -121.75 25.75 -121.65 26.2 -122.65 M32.7 -127.4 L33.05 -128.05 34.15 -127.4 34.45 -127.5 34.65 -127.0 34.85 -126.65 32.7 -127.4 M34.0 -133.15 L33.65 -135.0 34.2 -134.95 35.1 -135.0 35.8 -130.85 35.25 -130.15 34.75 -131.6 34.0 -133.15 M32.0 -137.05 L31.4 -137.3 31.05 -138.8 30.5 -140.2 30.3 -140.0 35.35 -145.95 35.55 -145.55 36.1 -144.55 35.95 -144.65 Q33.05 -144.05 33.25 -141.15 L33.5 -141.1 34.7 -141.3 34.85 -141.35 35.3 -141.55 Q36.2 -141.95 36.5 -142.7 36.6 -142.15 36.85 -141.65 37.3 -139.75 36.45 -137.9 L36.2 -138.4 Q35.55 -139.8 34.05 -139.5 L33.55 -139.75 33.0 -139.95 32.7 -140.0 32.2 -139.55 32.1 -138.9 32.0 -137.05 M43.75 -151.8 L45.2 -152.1 Q46.15 -149.6 48.55 -148.7 L49.6 -148.45 49.4 -147.5 49.1 -145.9 47.2 -144.85 Q45.55 -144.85 44.15 -143.8 L43.25 -143.05 Q42.75 -146.3 43.35 -149.7 L43.75 -151.8 M49.85 -165.75 L50.5 -166.65 Q51.3 -168.55 52.9 -169.75 L53.0 -168.35 52.3 -168.6 51.85 -167.8 51.55 -167.75 Q50.65 -167.2 51.1 -166.05 51.35 -165.4 52.0 -165.3 L52.75 -167.05 53.0 -167.35 53.05 -166.8 53.5 -167.35 53.85 -167.35 Q54.9 -166.85 55.2 -165.9 57.3 -166.05 58.25 -164.45 L58.2 -164.2 57.7 -163.9 Q55.6 -164.65 53.9 -163.1 L53.15 -163.35 52.95 -162.4 Q52.0 -164.2 50.4 -165.45 L49.85 -165.75 M53.2 -156.95 Q55.6 -154.1 54.4 -150.6 L53.75 -149.55 53.1 -149.4 Q52.1 -151.15 52.8 -153.65 53.0 -154.45 52.8 -155.1 52.25 -156.65 53.2 -156.95 M53.15 -149.1 Q54.6 -148.0 54.35 -145.95 L54.2 -143.85 Q54.05 -142.75 53.25 -142.05 L53.05 -142.0 52.55 -141.85 52.1 -142.2 Q51.9 -143.4 52.35 -144.5 L52.4 -144.8 52.6 -145.5 52.55 -148.8 53.15 -149.1 M52.65 -139.65 Q54.3 -138.5 54.0 -136.65 L53.75 -135.85 Q52.85 -134.9 52.9 -133.5 55.6 -131.7 53.85 -129.2 53.6 -128.7 53.05 -128.5 52.45 -128.1 51.85 -127.9 L51.6 -128.2 51.7 -130.35 51.75 -131.95 51.9 -133.2 Q51.5 -135.85 52.1 -138.7 L52.2 -139.65 52.65 -139.65 M51.45 -126.45 Q53.6 -124.25 51.85 -121.75 L51.4 -121.4 50.95 -121.65 50.85 -121.7 50.8 -121.65 50.75 -121.6 Q47.75 -123.75 46.1 -127.05 L45.45 -127.8 45.55 -128.15 45.85 -128.25 Q48.05 -129.35 47.3 -131.9 L47.55 -132.2 48.8 -128.9 49.3 -128.1 50.2 -127.3 51.45 -126.45 M50.4 -119.65 L50.9 -119.35 50.7 -118.75 50.9 -117.45 Q52.3 -117.15 53.3 -116.4 L53.4 -115.8 Q51.75 -115.55 49.95 -116.6 49.05 -117.65 49.85 -118.95 L50.4 -119.65 M49.9 -116.05 L49.55 -114.4 Q48.55 -114.4 47.6 -113.8 L46.55 -113.45 44.35 -115.55 44.5 -116.85 46.9 -116.25 47.05 -115.75 47.45 -115.7 Q47.8 -115.65 47.95 -116.15 L48.6 -116.0 49.0 -116.05 49.9 -116.05 M53.65 -159.45 L53.9 -159.9 54.45 -159.8 Q54.75 -159.1 54.6 -158.2 L54.15 -157.55 53.6 -157.85 Q53.15 -158.75 53.65 -159.45 M56.1 -152.7 L56.65 -152.5 57.25 -152.25 57.2 -151.85 56.05 -151.75 55.75 -151.85 56.1 -152.7 M38.7 -124.25 L39.25 -124.2 39.6 -124.55 39.65 -125.1 39.25 -125.5 38.75 -125.55 38.35 -125.15 38.3 -124.65 38.7 -124.25 M16.7 -119.1 L13.1 -121.1 12.5 -121.35 Q9.3 -121.9 7.5 -119.0 L6.75 -118.05 7.65 -116.6 9.6 -116.3 11.75 -113.95 18.95 -112.8 19.2 -112.75 21.15 -109.85 Q23.1 -109.9 24.95 -110.5 26.7 -108.25 29.0 -107.35 29.75 -107.05 30.6 -106.9 L33.2 -106.15 Q34.55 -105.45 35.85 -105.2 L38.0 -104.75 Q37.4 -105.45 37.25 -106.35 37.1 -106.75 37.2 -107.2 L37.6 -107.25 Q39.25 -106.5 40.3 -105.1 L40.9 -104.15 44.15 -103.9 44.15 -104.1 Q43.8 -107.05 45.65 -109.35 L45.2 -110.2 Q41.15 -111.1 37.45 -112.4 L34.85 -113.25 28.35 -115.05 Q22.75 -116.65 17.5 -118.85 L19.3 -117.9 16.7 -117.65 16.1 -117.8 16.1 -118.65 16.7 -119.1 M13.85 -119.35 L13.5 -118.25 12.55 -118.6 13.1 -119.55 13.85 -119.35 M14.55 -116.85 Q16.7 -116.9 16.2 -115.05 L15.85 -114.45 15.55 -114.4 14.45 -114.9 14.15 -115.3 14.25 -116.6 14.55 -116.85 M11.1 -115.95 L11.1 -116.4 11.55 -116.8 12.0 -116.8 12.35 -116.35 12.3 -115.85 11.95 -115.6 11.45 -115.65 Q11.2 -115.7 11.1 -115.95 M27.65 -112.05 L28.3 -112.0 Q29.35 -111.25 29.35 -110.05 L29.2 -109.4 28.45 -109.1 27.6 -109.0 Q26.45 -109.8 26.85 -111.2 L27.25 -112.0 27.65 -112.05 M38.4 -110.35 L39.5 -109.8 39.65 -109.65 Q39.3 -108.0 37.45 -108.55 L37.05 -109.0 Q37.1 -110.1 38.05 -110.45 L38.4 -110.35 M32.8 -109.5 L33.2 -109.15 Q33.35 -108.65 32.75 -108.5 L32.2 -108.55 32.05 -108.9 32.3 -109.6 32.8 -109.5 M56.45 -144.75 L55.95 -144.7 Q54.45 -145.2 54.4 -146.8 L54.7 -147.35 54.9 -147.5 Q56.95 -147.65 56.7 -145.55 L56.45 -144.75 M47.0 -146.5 Q47.15 -148.5 46.05 -148.5 L44.9 -148.15 44.65 -148.0 Q43.45 -147.3 43.7 -145.7 L46.75 -145.75 47.0 -146.5 M43.65 -129.7 L44.1 -129.8 44.7 -130.2 44.95 -130.35 44.7 -129.35 43.9 -129.55 43.4 -129.15 43.45 -129.3 43.65 -129.7 M55.35 -123.55 L55.35 -123.4 55.05 -123.2 54.25 -123.55 54.65 -124.0 55.15 -124.0 55.35 -123.55 M56.8 -120.1 L53.65 -120.2 53.3 -120.5 Q52.25 -122.4 54.4 -122.8 L55.9 -122.55 Q57.45 -121.55 56.8 -120.1 M46.35 -115.45 L45.9 -115.05 46.1 -114.4 46.45 -113.95 47.1 -113.75 47.65 -114.85 47.4 -115.1 Q47.0 -115.55 46.35 -115.45 M49.75 -108.45 L49.3 -107.45 48.8 -107.65 Q48.65 -108.2 49.05 -108.65 L49.75 -108.45 M46.6 -105.75 L46.25 -106.15 Q46.1 -106.45 46.25 -106.75 L46.65 -107.1 47.2 -107.1 47.6 -106.7 47.6 -106.15 47.15 -105.7 46.6 -105.75 M50.35 -106.15 L50.75 -105.6 50.45 -105.05 50.15 -104.95 49.9 -104.95 49.35 -105.35 49.5 -105.8 49.75 -106.25 50.35 -106.15 M42.5 -110.0 L42.9 -109.85 43.35 -109.5 43.45 -109.45 Q43.25 -108.9 42.6 -108.85 L42.3 -108.95 42.5 -110.0 M48.2 -103.35 L47.9 -103.1 47.8 -103.15 47.55 -103.3 47.45 -103.55 47.8 -104.3 48.7 -103.9 48.2 -103.35 M58.25 -94.05 L59.95 -94.0 57.05 -91.75 58.1 -88.35 55.1 -90.35 52.1 -88.35 52.15 -88.45 53.15 -91.75 52.95 -91.9 50.25 -94.0 53.9 -94.1 55.05 -97.35 55.1 -97.5 55.15 -97.35 56.0 -94.95 56.3 -94.1 58.25 -94.05 M19.55 -97.35 L19.6 -97.5 19.65 -97.35 20.25 -95.75 20.8 -94.1 24.45 -94.0 21.55 -91.75 22.6 -88.35 19.6 -90.35 16.6 -88.35 17.65 -91.75 16.4 -92.75 14.75 -94.0 18.05 -94.1 18.4 -94.1 18.55 -94.45 19.55 -97.35 M31.3 -97.35 L31.35 -97.5 31.4 -97.35 31.75 -96.35 32.55 -94.1 36.2 -94.0 33.3 -91.75 34.05 -89.35 34.35 -88.35 33.45 -88.95 31.35 -90.35 28.35 -88.35 29.4 -91.75 27.9 -92.9 26.5 -94.0 29.1 -94.05 30.15 -94.1 30.6 -95.4 31.3 -97.35 M43.05 -97.35 L43.1 -97.5 43.15 -97.35 43.2 -97.2 44.3 -94.1 47.2 -94.0 47.95 -94.0 45.05 -91.75 46.1 -88.35 43.45 -90.1 43.1 -90.35 40.1 -88.35 41.15 -91.75 39.0 -93.45 38.25 -94.0 39.65 -94.05 41.9 -94.1 42.9 -96.95 43.05 -97.35 M61.4 -86.85 L61.4 -13.5 59.15 -13.5 59.15 -86.85 61.4 -86.85 M52.65 -13.5 L52.65 -86.85 55.75 -86.85 55.75 -13.5 52.65 -13.5 M20.7 -13.5 L18.45 -13.5 18.45 -86.85 20.7 -86.85 20.7 -13.5 M15.05 -13.5 L11.95 -13.5 11.95 -86.85 15.05 -86.85 15.05 -13.5 M16.6 -5.55 L14.75 -7.0 18.4 -7.1 19.45 -10.0 19.6 -10.5 19.8 -10.0 20.3 -8.5 20.8 -7.1 24.45 -7.0 21.55 -4.75 22.6 -1.35 19.6 -3.35 16.6 -1.35 17.65 -4.75 16.6 -5.55 M31.2 -10.0 L31.35 -10.5 31.55 -10.0 31.85 -9.1 32.55 -7.1 36.2 -7.0 33.3 -4.75 34.1 -2.15 34.35 -1.35 33.65 -1.8 31.35 -3.35 28.35 -1.35 29.4 -4.75 28.1 -5.75 26.5 -7.0 29.5 -7.05 30.15 -7.1 30.45 -7.85 31.2 -10.0 M42.95 -10.0 L43.1 -10.5 43.3 -10.0 43.3 -9.95 44.3 -7.1 47.55 -7.0 47.95 -7.0 46.35 -5.75 45.05 -4.75 45.15 -4.5 46.1 -1.35 43.65 -2.95 43.1 -3.35 40.1 -1.35 41.15 -4.75 39.2 -6.25 38.25 -7.0 40.1 -7.05 41.9 -7.1 42.75 -9.4 42.95 -10.0 M54.95 -10.0 L55.1 -10.5 55.3 -10.0 56.1 -7.75 56.3 -7.1 58.6 -7.05 59.95 -7.0 57.05 -4.75 58.1 -1.35 55.1 -3.35 52.75 -1.75 52.1 -1.35 53.15 -4.75 53.1 -4.75 50.25 -7.0 53.9 -7.1 54.95 -10.0" fill="#ffcb15" fill-rule="evenodd" stroke="none"/>
    <path d="M20.0 -128.85 L20.75 -129.6 25.25 -134.4 24.65 -133.2 Q22.65 -130.05 22.9 -126.6 L22.55 -126.8 21.95 -125.4 23.4 -124.8 Q24.1 -123.35 25.7 -122.75 L26.2 -122.65 25.75 -121.65 23.0 -121.75 20.4 -122.3 19.3 -122.7 19.25 -122.7 19.0 -123.0 18.75 -123.15 Q18.25 -123.8 18.35 -124.8 L18.9 -124.35 19.85 -124.15 Q21.15 -125.15 20.65 -126.6 L19.6 -127.1 20.55 -127.8 20.8 -127.85 20.0 -128.85 M27.75 -122.85 L28.75 -123.25 28.7 -122.4 Q28.8 -121.95 29.2 -121.75 L29.75 -121.35 Q31.4 -120.7 32.15 -122.25 L32.7 -121.65 Q33.15 -121.25 33.8 -121.4 L34.25 -122.1 Q35.7 -125.45 32.25 -126.65 L32.7 -127.4 34.85 -126.65 35.25 -126.35 Q38.35 -123.6 36.3 -120.05 L35.45 -119.15 35.1 -119.5 Q34.55 -119.95 34.05 -119.65 L33.45 -118.45 Q31.25 -118.9 29.45 -120.15 L28.45 -120.8 27.8 -121.2 27.3 -121.85 27.75 -122.85 M31.4 -125.55 L31.8 -125.95 31.65 -125.4 31.4 -125.55 M33.05 -128.05 L33.8 -131.9 34.0 -133.15 34.75 -131.6 35.25 -130.15 34.8 -129.05 34.45 -127.5 34.15 -127.4 33.05 -128.05 M32.5 -136.7 L32.0 -137.05 32.1 -138.9 32.2 -139.55 32.7 -140.0 33.0 -139.95 33.55 -139.75 34.05 -139.5 33.8 -139.3 Q32.55 -138.35 32.5 -136.7 M31.4 -137.3 L30.1 -137.45 29.3 -137.4 28.65 -138.05 30.3 -140.0 30.5 -140.2 31.05 -138.8 31.4 -137.3 M27.65 -136.7 L26.6 -135.9 27.55 -136.85 27.65 -136.7 M35.35 -145.95 L40.95 -153.1 Q41.6 -152.65 42.35 -152.35 L43.75 -151.8 43.35 -149.7 Q42.75 -146.3 43.25 -143.05 42.15 -142.0 41.3 -140.6 L40.75 -139.7 40.2 -140.0 37.4 -139.9 37.25 -139.65 37.75 -139.25 Q39.05 -138.55 40.4 -138.85 L40.15 -138.15 39.25 -137.55 Q38.0 -135.75 37.7 -133.45 37.45 -130.95 39.6 -130.3 L40.05 -130.6 40.7 -131.2 41.4 -130.6 41.7 -126.9 Q40.0 -125.55 37.85 -126.25 L37.25 -126.5 Q39.55 -128.25 38.4 -130.8 L37.5 -131.15 Q37.75 -132.8 37.4 -134.6 L37.3 -134.75 37.1 -134.8 36.9 -134.95 36.75 -134.85 Q35.8 -133.15 36.3 -131.15 L35.8 -130.85 35.1 -135.0 36.45 -137.9 Q37.3 -139.75 36.85 -141.65 36.6 -142.15 36.5 -142.7 L36.65 -143.65 36.1 -144.55 35.55 -145.55 35.35 -145.95 M45.2 -152.1 L46.45 -152.8 47.3 -151.5 47.9 -151.4 48.35 -152.05 48.05 -152.6 47.4 -153.5 47.9 -153.95 48.9 -153.15 49.6 -153.15 50.75 -152.5 Q52.25 -153.5 51.3 -155.2 L50.95 -155.35 50.1 -157.3 50.9 -160.45 51.1 -161.45 51.35 -162.4 51.05 -162.9 50.9 -163.55 49.85 -165.75 50.4 -165.45 Q52.0 -164.2 52.95 -162.4 L53.2 -156.95 Q52.25 -156.65 52.8 -155.1 53.0 -154.45 52.8 -153.65 52.1 -151.15 53.1 -149.4 L53.15 -149.1 52.55 -148.8 52.45 -149.2 52.35 -149.45 52.2 -149.65 51.35 -149.85 50.1 -149.65 49.6 -148.45 48.55 -148.7 Q46.15 -149.6 45.2 -152.1 M52.75 -167.05 L52.0 -165.3 Q51.35 -165.4 51.1 -166.05 50.65 -167.2 51.55 -167.75 L51.85 -167.8 51.8 -167.45 51.85 -167.1 52.1 -166.9 52.45 -166.9 52.75 -167.05 M52.55 -141.85 L52.65 -139.65 52.2 -139.65 52.1 -138.7 Q51.5 -135.85 51.9 -133.2 L51.75 -131.95 51.7 -130.35 51.3 -130.8 Q50.55 -131.45 49.6 -131.1 L49.35 -130.45 48.8 -128.9 47.55 -132.2 48.4 -133.1 49.1 -134.15 50.0 -134.1 50.45 -134.5 Q50.9 -135.15 50.45 -135.7 L50.0 -136.1 Q51.0 -138.9 50.45 -141.75 L50.35 -142.35 51.25 -143.35 51.6 -143.6 52.35 -144.5 Q51.9 -143.4 52.1 -142.2 L52.55 -141.85 M51.6 -128.2 L51.45 -126.45 50.2 -127.3 49.3 -128.1 49.45 -128.05 Q49.9 -127.55 50.7 -127.4 L50.85 -127.4 51.2 -127.75 51.6 -128.2 M50.75 -121.6 L50.4 -119.65 49.85 -118.95 Q49.05 -117.65 49.95 -116.6 L49.9 -116.05 49.0 -116.05 49.0 -116.15 Q48.65 -116.95 48.6 -116.0 L47.95 -116.15 47.75 -116.45 47.05 -116.6 46.9 -116.25 44.5 -116.85 44.35 -115.55 43.7 -115.7 42.35 -115.6 41.75 -116.0 41.35 -116.5 41.9 -116.25 42.45 -116.3 42.9 -116.8 42.8 -117.25 42.45 -117.4 43.1 -117.6 Q41.65 -118.3 40.75 -119.75 L40.5 -120.25 40.8 -120.5 Q41.55 -121.5 40.75 -122.65 41.6 -124.65 43.15 -126.1 L44.05 -126.9 Q44.35 -126.7 44.85 -127.05 45.2 -127.25 45.45 -127.8 L46.1 -127.05 Q47.75 -123.75 50.75 -121.6 M42.15 -148.9 Q42.45 -150.85 40.9 -151.8 L40.65 -151.6 40.65 -150.9 Q40.7 -149.95 41.1 -149.05 L40.75 -148.3 40.25 -148.55 39.25 -148.2 38.95 -146.3 38.55 -146.05 38.35 -145.9 38.3 -145.9 38.05 -145.3 37.95 -145.1 37.95 -145.0 Q37.4 -143.6 38.95 -142.3 L40.3 -141.4 Q43.1 -143.7 41.45 -147.25 L41.1 -147.9 41.75 -147.85 Q41.9 -147.85 42.05 -148.0 L42.2 -148.15 Q42.1 -148.55 42.15 -148.9 M47.2 -144.85 L49.1 -145.9 49.6 -144.25 49.15 -144.15 47.2 -144.85 M21.35 -125.05 L21.3 -125.1 20.85 -124.35 Q21.6 -122.35 23.7 -122.1 L24.0 -122.7 23.9 -123.0 Q23.0 -124.4 21.35 -125.05 M38.7 -124.25 L38.3 -124.65 38.35 -125.15 38.75 -125.55 39.25 -125.5 39.65 -125.1 39.6 -124.55 39.25 -124.2 38.7 -124.25 M16.7 -119.1 L16.1 -118.65 16.1 -117.8 16.7 -117.65 19.3 -117.9 17.5 -118.85 Q22.75 -116.65 28.35 -115.05 L34.85 -113.25 37.45 -112.4 Q41.15 -111.1 45.2 -110.2 L45.65 -109.35 Q43.8 -107.05 44.15 -104.1 L44.15 -103.9 40.9 -104.15 40.3 -105.1 Q39.25 -106.5 37.6 -107.25 L37.2 -107.2 Q37.1 -106.75 37.25 -106.35 37.4 -105.45 38.0 -104.75 L35.85 -105.2 Q34.55 -105.45 33.2 -106.15 L30.6 -106.9 Q29.75 -107.05 29.0 -107.35 26.7 -108.25 24.95 -110.5 23.1 -109.9 21.15 -109.85 L19.2 -112.75 18.95 -112.8 11.75 -113.95 9.6 -116.3 7.65 -116.6 6.75 -118.05 7.5 -119.0 Q9.3 -121.9 12.5 -121.35 L13.1 -121.1 16.7 -119.1 M12.25 -118.65 L12.1 -119.0 Q11.35 -120.2 9.75 -120.45 9.55 -120.45 9.4 -120.3 8.4 -119.8 8.3 -118.55 L9.45 -117.6 Q11.85 -116.2 12.25 -118.65 M11.1 -115.95 Q11.2 -115.7 11.45 -115.65 L11.95 -115.6 12.3 -115.85 12.35 -116.35 12.0 -116.8 11.55 -116.8 11.1 -116.4 11.1 -115.95 M14.55 -116.85 L14.25 -116.6 14.15 -115.3 14.45 -114.9 15.55 -114.4 15.85 -114.45 16.2 -115.05 Q16.7 -116.9 14.55 -116.85 M13.85 -119.35 L13.1 -119.55 12.55 -118.6 13.5 -118.25 13.85 -119.35 M18.9 -114.5 Q18.95 -115.85 17.75 -116.4 L17.2 -116.15 17.1 -115.95 17.05 -115.6 Q17.2 -113.8 18.85 -114.25 L18.9 -114.5 M20.05 -115.8 L19.8 -115.2 Q20.1 -113.05 22.0 -111.95 23.65 -111.65 24.75 -112.7 24.95 -113.6 24.5 -114.25 22.65 -116.95 20.05 -115.8 M40.15 -120.05 Q40.9 -117.8 38.75 -117.15 38.0 -116.9 37.65 -117.7 36.6 -119.9 38.3 -121.65 L38.7 -121.7 Q38.75 -120.6 39.55 -120.2 L40.15 -120.05 M35.65 -111.85 Q35.7 -112.35 35.1 -112.7 31.8 -114.7 29.5 -112.35 L29.6 -112.05 Q30.45 -111.0 31.8 -110.65 34.35 -109.45 35.65 -111.85 M21.25 -122.45 Q20.65 -123.0 21.15 -122.45 L21.25 -122.45 M26.5 -114.6 L26.05 -114.55 25.9 -113.95 26.25 -112.75 27.15 -112.65 Q28.0 -112.55 28.55 -113.05 L28.65 -113.3 28.65 -113.7 28.4 -114.0 Q27.75 -114.85 26.5 -114.6 M38.4 -110.35 L38.05 -110.45 Q37.1 -110.1 37.05 -109.0 L37.45 -108.55 Q39.3 -108.0 39.65 -109.65 L39.5 -109.8 38.4 -110.35 M27.65 -112.05 L27.25 -112.0 26.85 -111.2 Q26.45 -109.8 27.6 -109.0 L28.45 -109.1 29.2 -109.4 29.35 -110.05 Q29.35 -111.25 28.3 -112.0 L27.65 -112.05 M39.6 -107.8 L39.75 -107.05 Q40.05 -106.1 41.1 -105.5 41.75 -105.2 42.5 -105.5 43.2 -105.7 42.95 -106.6 42.35 -109.15 39.95 -108.75 L39.6 -107.8 M32.8 -109.5 L32.3 -109.6 32.05 -108.9 32.2 -108.55 32.75 -108.5 Q33.35 -108.65 33.2 -109.15 L32.8 -109.5 M34.0 -107.95 L33.85 -107.55 34.55 -106.45 35.2 -106.4 36.1 -108.2 34.95 -108.7 34.3 -108.25 34.0 -107.95 M46.05 -148.5 Q47.15 -148.5 47.0 -146.5 L46.9 -147.4 Q46.6 -148.3 46.05 -148.5 M46.75 -145.75 L43.7 -145.7 Q43.45 -147.3 44.65 -148.0 44.3 -147.5 44.4 -146.65 45.0 -144.2 46.75 -145.75 M44.95 -130.35 L46.55 -131.25 47.3 -131.9 Q48.05 -129.35 45.85 -128.25 L45.55 -128.15 45.4 -128.8 44.7 -129.35 44.95 -130.35 M43.4 -129.75 L43.65 -129.7 43.45 -129.3 43.4 -129.75 M45.65 -119.15 Q48.0 -118.3 48.5 -121.0 48.8 -122.25 48.05 -123.3 46.6 -125.4 44.7 -124.15 44.15 -124.05 43.95 -123.55 42.6 -120.2 45.65 -119.15 M41.4 -120.55 L41.6 -120.4 41.8 -120.45 Q42.85 -121.15 43.2 -122.4 41.7 -123.05 41.15 -120.85 L41.2 -120.65 41.4 -120.55 M42.5 -110.0 L42.3 -108.95 42.6 -108.85 Q43.25 -108.9 43.45 -109.45 L43.35 -109.5 42.9 -109.85 42.5 -110.0" fill="#ffdf71" fill-rule="evenodd" stroke="none"/>
    <path d="M13.8 -122.75 L14.1 -123.2 14.35 -123.25 Q15.5 -122.55 16.95 -122.4 L17.6 -122.35 17.9 -121.8 18.75 -121.6 19.2 -121.9 Q20.4 -120.55 22.2 -120.5 L23.45 -120.35 Q23.5 -119.9 23.8 -119.7 L24.15 -119.6 25.05 -119.55 25.5 -119.55 26.7 -118.65 27.1 -118.6 Q29.7 -120.0 31.3 -117.45 L31.95 -117.3 32.25 -117.15 Q32.65 -117.15 32.65 -117.5 34.25 -118.25 35.2 -116.9 L35.65 -116.3 37.2 -116.45 37.6 -116.45 38.3 -116.15 38.8 -115.85 38.75 -115.25 39.45 -114.85 40.1 -115.3 42.35 -115.6 43.7 -115.7 44.35 -115.55 46.55 -113.45 47.6 -113.8 Q48.55 -114.4 49.55 -114.4 L49.9 -116.05 49.95 -116.6 Q51.75 -115.55 53.4 -115.8 L53.3 -116.4 Q52.3 -117.15 50.9 -117.45 L50.7 -118.75 50.9 -119.35 50.4 -119.65 50.75 -121.6 50.8 -121.65 50.85 -121.7 50.95 -121.65 51.4 -121.4 51.85 -121.75 Q53.6 -124.25 51.45 -126.45 L51.6 -128.2 51.85 -127.9 Q52.45 -128.1 53.05 -128.5 53.6 -128.7 53.85 -129.2 55.6 -131.7 52.9 -133.5 52.85 -134.9 53.75 -135.85 L54.0 -136.65 Q54.3 -138.5 52.65 -139.65 L52.55 -141.85 53.05 -142.0 53.25 -142.05 Q54.05 -142.75 54.2 -143.85 L54.35 -145.95 Q54.6 -148.0 53.15 -149.1 L53.1 -149.4 53.75 -149.55 54.4 -150.6 Q55.6 -154.1 53.2 -156.95 L52.95 -162.4 53.15 -163.35 53.9 -163.1 Q55.6 -164.65 57.7 -163.9 L58.2 -164.2 58.25 -164.45 Q57.3 -166.05 55.2 -165.9 54.9 -166.85 53.85 -167.35 L53.5 -167.35 53.05 -166.8 53.0 -167.35 52.75 -167.05 52.45 -166.9 52.1 -166.9 51.85 -167.1 51.8 -167.45 51.85 -167.8 52.35 -167.5 52.9 -167.75 52.95 -168.25 53.0 -168.35 52.9 -169.75 53.4 -170.1 54.05 -170.05 54.25 -167.55 54.6 -168.0 55.05 -167.85 56.4 -166.3 57.2 -165.8 58.35 -165.0 58.55 -164.9 58.55 -163.65 58.35 -163.45 Q57.9 -162.9 57.3 -163.1 L56.5 -163.3 55.2 -163.35 55.2 -161.65 55.3 -160.45 56.1 -158.8 Q54.85 -156.65 55.95 -154.25 L56.65 -153.2 57.35 -152.5 58.45 -151.35 58.05 -150.5 57.35 -150.4 56.6 -150.6 56.05 -150.8 55.35 -150.3 Q55.65 -149.0 56.5 -147.95 L57.25 -146.9 Q58.5 -145.3 57.45 -143.7 L57.15 -143.5 56.35 -143.05 55.05 -142.4 Q54.0 -140.4 54.6 -138.35 L54.75 -137.85 56.05 -137.0 56.75 -136.7 Q57.5 -136.65 58.0 -136.2 L58.3 -135.9 58.0 -134.45 56.55 -134.55 55.9 -134.8 54.7 -134.95 Q54.65 -133.7 55.3 -132.65 L55.6 -132.1 Q56.35 -130.8 55.7 -129.5 L55.35 -128.9 54.35 -127.45 53.75 -126.9 Q53.4 -126.35 53.4 -125.6 L53.6 -125.25 54.9 -125.0 55.6 -124.9 56.75 -124.05 56.95 -123.7 56.65 -122.7 Q58.4 -121.8 59.15 -119.95 58.15 -117.45 56.2 -118.75 L54.95 -119.55 54.2 -119.7 52.8 -119.7 52.25 -119.5 Q52.05 -118.65 52.4 -117.85 L52.45 -117.55 53.8 -116.75 54.5 -116.4 55.15 -115.8 55.4 -115.45 Q55.5 -114.9 55.0 -114.5 L54.65 -114.2 54.15 -114.3 53.5 -114.75 52.1 -115.0 51.35 -115.1 50.7 -115.25 49.9 -114.45 49.55 -114.4 49.7 -114.2 49.45 -113.8 Q46.6 -111.25 44.8 -114.05 L44.55 -114.25 39.85 -113.8 39.45 -113.25 38.6 -113.45 37.9 -114.1 38.0 -115.0 38.2 -115.15 Q37.05 -115.8 35.5 -115.65 35.1 -115.6 34.85 -115.85 34.3 -116.3 33.9 -116.85 31.65 -115.95 29.75 -117.2 L29.75 -117.15 Q29.75 -116.55 29.3 -117.05 L29.2 -117.2 29.65 -117.25 29.0 -117.8 28.5 -117.8 26.75 -117.6 26.4 -117.75 25.1 -118.5 25.05 -118.4 Q24.55 -117.8 23.95 -118.5 L23.3 -119.2 22.85 -119.65 22.4 -119.6 21.55 -119.8 21.15 -119.25 20.85 -119.05 20.4 -119.15 20.35 -119.75 Q19.45 -121.15 17.65 -121.3 L15.0 -122.0 13.8 -122.75 M28.95 -123.3 L29.8 -123.9 29.9 -123.2 Q30.1 -123.0 30.4 -122.9 L31.3 -122.65 31.95 -123.8 31.0 -125.0 31.4 -125.55 31.65 -125.4 Q32.8 -124.45 32.5 -123.0 L32.15 -122.25 Q31.4 -120.7 29.75 -121.35 L29.2 -121.75 28.95 -123.3 M33.65 -135.0 L33.0 -136.1 32.5 -136.7 Q32.55 -138.35 33.8 -139.3 L34.05 -139.5 Q35.55 -139.8 36.2 -138.4 L36.45 -137.9 35.1 -135.0 34.2 -134.95 33.65 -135.0 M51.1 -161.45 L51.05 -162.9 51.35 -162.4 51.1 -161.45 M50.45 -155.35 L49.95 -155.25 49.65 -154.45 50.05 -153.55 50.7 -153.85 50.9 -154.2 50.8 -155.2 50.45 -155.35 M49.6 -153.15 Q49.0 -154.1 49.5 -155.2 L49.95 -155.75 50.95 -155.35 51.3 -155.2 Q52.25 -153.5 50.75 -152.5 L49.6 -153.15 M42.15 -148.9 Q42.1 -148.55 42.2 -148.15 L42.05 -148.0 Q41.9 -147.85 41.75 -147.85 L41.1 -147.9 40.75 -148.3 41.1 -149.05 41.65 -149.0 42.15 -148.9 M38.95 -142.3 Q37.4 -143.6 37.95 -145.0 37.75 -144.0 38.7 -143.4 L39.0 -143.25 39.35 -143.35 39.75 -144.05 Q39.85 -144.8 39.6 -145.45 L38.8 -145.85 38.35 -145.9 38.55 -146.05 38.95 -146.3 Q40.7 -144.8 39.8 -142.7 L39.65 -142.45 39.45 -142.3 39.3 -142.25 38.95 -142.3 M49.6 -148.45 L50.1 -149.65 51.35 -149.85 52.2 -149.65 52.35 -149.45 52.45 -149.2 52.55 -148.8 52.6 -145.5 52.4 -144.8 52.35 -144.5 51.6 -143.6 51.25 -143.35 Q50.75 -143.5 50.3 -143.75 49.9 -143.9 49.6 -144.25 L49.1 -145.9 49.4 -147.5 49.6 -148.45 M53.65 -159.45 Q53.15 -158.75 53.6 -157.85 L54.15 -157.55 54.6 -158.2 Q54.75 -159.1 54.45 -159.8 L53.9 -159.9 53.65 -159.45 M56.1 -152.7 L55.75 -151.85 56.05 -151.75 57.2 -151.85 57.25 -152.25 56.65 -152.5 56.1 -152.7 M36.1 -144.55 L36.65 -143.65 36.5 -142.7 Q36.2 -141.95 35.3 -141.55 L34.85 -141.35 35.65 -143.2 34.8 -143.65 34.55 -143.3 Q34.3 -142.3 34.7 -141.3 L33.5 -141.1 33.25 -141.15 Q33.05 -144.05 35.95 -144.65 L36.1 -144.55 M35.8 -130.85 L36.3 -131.15 37.5 -131.15 38.4 -130.8 Q39.55 -128.25 37.25 -126.5 L36.05 -126.35 35.25 -126.35 34.85 -126.65 34.65 -127.0 34.45 -127.5 34.8 -129.05 35.25 -130.15 35.8 -130.85 M34.95 -136.15 Q35.4 -136.9 35.05 -137.6 L34.3 -137.95 33.9 -137.85 33.6 -137.35 Q33.4 -136.55 33.95 -135.8 L34.55 -135.8 34.95 -136.15 M19.6 -127.1 L20.65 -126.6 Q21.15 -125.15 19.85 -124.15 L18.9 -124.35 18.35 -124.8 Q17.75 -126.6 19.35 -127.1 L19.6 -127.1 M36.3 -130.1 L36.05 -129.95 Q35.0 -128.7 36.2 -127.35 L36.65 -127.2 37.35 -129.8 36.75 -130.0 36.3 -130.1 M18.55 -125.85 L18.55 -125.2 Q18.7 -124.8 19.0 -124.6 L19.75 -124.65 20.15 -125.15 20.3 -125.9 19.8 -126.35 19.15 -126.45 18.55 -125.85 M40.15 -121.75 L39.95 -122.35 39.45 -122.05 39.45 -121.4 40.15 -121.75 M38.7 -121.7 L38.75 -122.75 39.0 -123.25 Q39.85 -123.45 40.5 -122.95 L40.75 -122.65 Q41.55 -121.5 40.8 -120.5 L40.5 -120.25 40.15 -120.05 39.55 -120.2 Q38.75 -120.6 38.7 -121.7 M44.05 -126.9 L43.15 -127.65 Q42.85 -128.05 43.05 -128.5 L43.4 -129.15 43.9 -129.55 44.7 -129.35 45.4 -128.8 45.55 -128.15 45.45 -127.8 Q45.2 -127.25 44.85 -127.05 44.35 -126.7 44.05 -126.9 M35.45 -119.15 L35.35 -118.65 35.25 -118.45 34.95 -118.0 34.35 -117.9 33.95 -117.95 33.45 -118.45 34.05 -119.65 Q34.55 -119.95 35.1 -119.5 L35.45 -119.15 M35.35 -118.65 L35.3 -119.2 34.7 -119.5 34.25 -118.7 34.5 -118.4 35.35 -118.65 M33.85 -116.15 L34.2 -115.9 34.2 -115.5 33.95 -115.3 33.45 -115.25 33.2 -115.6 33.2 -115.95 33.45 -116.25 33.85 -116.15 M56.45 -144.75 L56.7 -145.55 Q56.95 -147.65 54.9 -147.5 L54.7 -147.35 54.4 -146.8 Q54.45 -145.2 55.95 -144.7 L56.45 -144.75 M51.65 -145.6 L51.8 -145.85 Q52.55 -147.75 50.75 -148.65 L50.3 -148.35 49.65 -146.05 Q50.4 -145.0 51.65 -145.6 M51.7 -130.35 L51.6 -128.2 51.2 -127.75 50.85 -127.4 50.7 -127.4 Q49.9 -127.55 49.45 -128.05 49.75 -127.9 50.0 -127.8 L50.45 -128.0 50.7 -128.4 Q51.2 -130.15 49.65 -130.55 L49.35 -130.45 49.6 -131.1 Q50.55 -131.45 51.3 -130.8 L51.7 -130.35 M46.05 -148.5 Q46.6 -148.3 46.9 -147.4 L47.0 -146.5 46.75 -145.75 Q45.0 -144.2 44.4 -146.65 44.3 -147.5 44.65 -148.0 L44.9 -148.15 46.05 -148.5 M45.7 -146.1 Q47.0 -147.35 45.7 -148.35 44.95 -147.9 44.5 -146.95 L44.6 -146.6 45.7 -146.1 M43.4 -129.75 L42.1 -130.25 41.55 -130.55 Q42.8 -129.95 44.3 -130.15 L44.7 -130.2 44.1 -129.8 43.65 -129.7 43.4 -129.75 M44.8 -129.05 L44.4 -129.05 43.9 -128.65 43.95 -128.2 Q44.05 -127.9 44.3 -127.85 L44.75 -127.8 45.05 -128.1 45.15 -128.6 44.8 -129.05 M55.35 -123.55 L55.15 -124.0 54.65 -124.0 54.25 -123.55 55.05 -123.2 55.35 -123.4 55.35 -123.55 55.5 -123.5 55.5 -123.65 55.35 -123.55 M56.8 -120.1 Q57.45 -121.55 55.9 -122.55 L54.4 -122.8 Q52.25 -122.4 53.3 -120.5 L53.65 -120.2 56.8 -120.1 M47.75 -122.15 Q47.35 -122.75 46.55 -122.95 L45.65 -123.0 45.5 -122.3 Q45.3 -121.0 46.2 -119.9 L46.7 -120.0 47.3 -120.2 47.9 -121.6 47.75 -122.15 M44.7 -124.15 Q46.6 -125.4 48.05 -123.3 48.8 -122.25 48.5 -121.0 48.0 -118.3 45.65 -119.15 43.9 -120.7 44.3 -122.95 L44.7 -124.15 M44.2 -112.35 L43.6 -112.45 43.1 -113.0 43.6 -113.55 43.9 -113.45 44.4 -112.9 44.2 -112.35 M47.95 -116.15 Q47.8 -115.65 47.45 -115.7 L47.05 -115.75 46.9 -116.25 47.05 -116.6 47.75 -116.45 47.95 -116.15 M48.05 -112.4 L48.2 -112.6 48.45 -112.55 48.65 -112.4 48.65 -112.1 48.45 -111.9 48.15 -111.9 48.0 -112.1 48.05 -112.4" fill="#e19d00" fill-rule="evenodd" stroke="none"/>
    <path d="M20.0 -119.05 L13.1 -122.15 13.8 -122.75 15.0 -122.0 17.65 -121.3 Q19.45 -121.15 20.35 -119.75 L20.4 -119.15 20.85 -119.05 21.15 -119.25 21.55 -119.8 22.4 -119.6 23.3 -119.2 23.95 -118.5 Q24.55 -117.8 25.05 -118.4 L26.4 -117.75 26.75 -117.6 33.0 -115.35 38.6 -113.45 39.45 -113.25 43.6 -112.45 44.2 -112.35 49.05 -111.6 48.9 -110.75 42.1 -112.2 Q38.75 -112.95 35.35 -114.05 L29.0 -116.05 22.25 -118.25 20.85 -118.75 20.0 -119.05 M47.55 -162.1 L47.2 -161.7 Q46.55 -160.9 47.1 -160.0 L47.4 -159.95 Q48.65 -160.65 48.05 -161.95 L47.55 -162.1 M48.6 -164.5 Q49.85 -160.0 47.1 -156.05 46.2 -154.6 44.65 -154.15 43.05 -153.6 41.8 -154.7 44.1 -157.2 46.05 -160.35 L48.05 -163.9 48.6 -164.5 M45.6 -158.6 L45.75 -158.4 46.05 -158.35 46.2 -158.6 46.3 -158.9 46.05 -159.1 45.85 -159.15 45.65 -158.85 45.6 -158.6 M43.5 -155.85 L43.45 -155.55 43.45 -155.15 43.7 -154.95 44.0 -154.95 44.25 -155.9 44.05 -156.35 43.5 -155.85 M45.45 -157.0 L45.15 -156.25 Q44.95 -155.7 45.25 -155.2 L46.25 -157.15 45.45 -157.0 M30.3 -130.3 L29.8 -130.0 Q28.8 -129.4 28.8 -128.25 L29.05 -127.95 29.35 -127.9 29.5 -127.8 29.75 -127.9 30.2 -128.6 Q30.65 -129.5 30.3 -130.3 M27.45 -131.0 L27.45 -130.85 27.6 -130.55 27.85 -130.6 Q28.9 -130.95 28.95 -132.1 L28.5 -132.45 28.25 -132.35 27.45 -131.0 M28.65 -134.55 L28.45 -134.85 28.05 -134.85 27.75 -134.45 27.7 -134.0 Q27.7 -133.7 27.85 -133.65 L28.3 -133.7 28.6 -134.05 28.65 -134.55 M28.9 -135.55 Q30.85 -136.75 31.9 -134.9 L32.2 -133.7 Q32.6 -130.4 30.75 -127.45 28.95 -123.75 25.45 -125.35 24.5 -125.8 24.45 -126.95 24.4 -130.5 26.5 -133.5 27.35 -134.95 28.9 -135.55 M27.55 -125.8 L27.55 -126.35 27.4 -126.4 27.45 -125.6 27.55 -125.8 M25.9 -129.05 L26.0 -129.85 25.85 -129.85 Q25.15 -129.75 25.25 -129.15 L25.9 -129.05 M27.25 -126.85 Q27.75 -127.55 27.6 -128.45 L27.15 -128.85 26.6 -128.6 26.3 -127.1 26.4 -126.75 26.55 -126.65 26.75 -126.7 27.0 -126.7 27.25 -126.85 M30.5 -134.55 L30.65 -133.9 30.95 -133.7 31.45 -134.65 30.85 -135.0 30.5 -134.55 M46.9 -142.45 L46.45 -142.4 45.95 -141.1 46.4 -140.95 46.65 -141.0 47.1 -141.65 47.15 -142.0 46.9 -142.45 M48.4 -139.5 L48.15 -139.8 47.05 -137.7 47.7 -137.25 48.2 -137.65 48.2 -137.9 48.4 -139.5 M42.15 -137.65 L42.7 -137.35 43.1 -137.55 Q44.25 -138.7 43.55 -140.05 L42.15 -137.65 M45.55 -139.5 L45.2 -139.5 44.85 -139.15 44.85 -138.7 Q44.9 -138.45 45.05 -138.4 L45.35 -138.4 45.7 -138.75 45.75 -139.2 45.55 -139.5 M45.45 -142.4 Q47.6 -143.45 48.75 -141.25 50.25 -138.3 48.3 -135.4 47.7 -134.15 46.5 -133.25 45.1 -131.9 43.2 -132.2 39.25 -133.8 41.1 -137.85 42.55 -140.9 45.45 -142.4 M46.0 -135.95 L45.8 -135.95 Q44.25 -135.3 44.6 -133.2 L44.95 -132.9 45.25 -133.0 45.6 -133.65 Q46.2 -134.65 46.0 -135.95 M42.05 -135.55 L41.95 -135.7 41.7 -135.7 41.55 -135.5 41.45 -135.2 41.6 -134.95 41.8 -135.0 41.95 -135.3 42.05 -135.55 M43.35 -135.75 L43.25 -135.95 43.05 -135.9 Q42.85 -135.85 42.8 -135.7 L42.85 -135.45 Q42.8 -135.3 42.9 -135.25 L43.2 -135.35 43.3 -135.5 43.35 -135.75 M43.1 -133.3 L43.3 -133.75 43.1 -134.0 42.85 -133.95 42.5 -133.6 42.45 -133.15 Q42.4 -132.9 42.55 -132.8 42.7 -132.75 42.85 -132.95 L43.1 -133.3" fill="#df5f00" fill-rule="evenodd" stroke="none"/>
    <path d="M47.55 -162.1 L48.05 -161.95 Q48.65 -160.65 47.4 -159.95 L47.1 -160.0 Q46.55 -160.9 47.2 -161.7 L47.55 -162.1 M45.6 -158.6 L45.65 -158.85 45.85 -159.15 46.05 -159.1 46.3 -158.9 46.2 -158.6 46.05 -158.35 45.75 -158.4 45.6 -158.6 M45.45 -157.0 L46.25 -157.15 45.25 -155.2 Q44.95 -155.7 45.15 -156.25 L45.45 -157.0 M43.5 -155.85 L44.05 -156.35 44.25 -155.9 44.0 -154.95 43.7 -154.95 43.45 -155.15 43.45 -155.55 43.5 -155.85 M28.65 -134.55 L28.6 -134.05 28.3 -133.7 27.85 -133.65 Q27.7 -133.7 27.7 -134.0 L27.75 -134.45 28.05 -134.85 28.45 -134.85 28.65 -134.55 M27.45 -131.0 L28.25 -132.35 28.5 -132.45 28.95 -132.1 Q28.9 -130.95 27.85 -130.6 L27.6 -130.55 27.45 -130.85 27.45 -131.0 M30.3 -130.3 Q30.65 -129.5 30.2 -128.6 L29.75 -127.9 29.5 -127.8 29.35 -127.9 29.05 -127.95 28.8 -128.25 Q28.8 -129.4 29.8 -130.0 L30.3 -130.3 M18.75 -123.15 L19.0 -123.0 19.25 -122.7 19.3 -122.7 19.35 -122.3 19.2 -121.9 18.75 -121.6 17.9 -121.8 17.6 -122.35 17.5 -122.75 17.95 -123.3 18.75 -123.15 M27.25 -126.85 L27.0 -126.7 26.75 -126.7 26.55 -126.65 26.4 -126.75 26.3 -127.1 26.6 -128.6 27.15 -128.85 27.6 -128.45 Q27.75 -127.55 27.25 -126.85 M25.9 -129.05 L25.25 -129.15 Q25.15 -129.75 25.85 -129.85 L26.0 -129.85 25.9 -129.05 M27.55 -125.8 L27.45 -125.6 27.4 -126.4 27.55 -126.35 27.55 -125.8 M30.5 -134.55 L30.85 -135.0 31.45 -134.65 30.95 -133.7 30.65 -133.9 30.5 -134.55 M28.45 -120.8 L28.6 -120.45 28.15 -119.45 Q27.85 -119.55 27.5 -119.7 L27.15 -120.35 27.4 -120.95 27.8 -121.2 28.45 -120.8 M31.95 -117.3 L31.8 -117.7 31.9 -118.05 32.5 -117.9 32.65 -117.5 Q32.65 -117.15 32.25 -117.15 L31.95 -117.3 M37.2 -116.45 L36.95 -116.85 36.9 -117.05 Q37.15 -117.5 37.7 -117.3 L37.8 -117.15 37.85 -116.55 37.6 -116.45 37.2 -116.45 M38.8 -115.85 L39.45 -116.0 39.65 -116.05 39.95 -115.7 40.1 -115.3 39.45 -114.85 38.75 -115.25 38.8 -115.85 M41.35 -116.5 L41.15 -116.85 41.7 -117.75 42.45 -117.4 42.8 -117.25 42.9 -116.8 42.45 -116.3 41.9 -116.25 41.35 -116.5 M33.85 -116.15 L33.45 -116.25 33.2 -115.95 33.2 -115.6 33.45 -115.25 33.95 -115.3 34.2 -115.5 34.2 -115.9 33.85 -116.15 M26.75 -117.6 L28.5 -117.8 29.0 -117.8 29.65 -117.25 29.2 -117.2 29.3 -117.05 Q29.75 -116.55 29.75 -117.15 L29.75 -117.2 Q31.65 -115.95 33.9 -116.85 34.3 -116.3 34.85 -115.85 35.1 -115.6 35.5 -115.65 37.05 -115.8 38.2 -115.15 L38.0 -115.0 37.9 -114.1 38.6 -113.45 33.0 -115.35 26.75 -117.6 M39.45 -113.25 L39.85 -113.8 44.55 -114.25 44.8 -114.05 Q46.6 -111.25 49.45 -113.8 L49.05 -111.6 44.2 -112.35 44.4 -112.9 43.9 -113.45 43.6 -113.55 43.1 -113.0 43.6 -112.45 39.45 -113.25 M24.15 -119.6 L23.8 -119.7 Q23.5 -119.9 23.45 -120.35 L23.85 -120.8 24.05 -120.85 Q24.5 -120.65 24.6 -120.05 L24.15 -119.6 M26.4 -117.75 L25.05 -118.4 25.1 -118.5 26.4 -117.75 M23.3 -119.2 L22.4 -119.6 22.85 -119.65 23.3 -119.2 M21.25 -122.45 L21.15 -122.45 Q20.65 -123.0 21.25 -122.45 M46.9 -142.45 L47.15 -142.0 47.1 -141.65 46.65 -141.0 46.4 -140.95 45.95 -141.1 46.45 -142.4 46.9 -142.45 M45.55 -139.5 L45.75 -139.2 45.7 -138.75 45.35 -138.4 45.05 -138.4 Q44.9 -138.45 44.85 -138.7 L44.85 -139.15 45.2 -139.5 45.55 -139.5 M42.15 -137.65 L43.55 -140.05 Q44.25 -138.7 43.1 -137.55 L42.7 -137.35 42.15 -137.65 M48.4 -139.5 L48.2 -137.9 48.2 -137.65 47.7 -137.25 47.05 -137.7 48.15 -139.8 48.4 -139.5 M46.0 -135.95 Q46.2 -134.65 45.6 -133.65 L45.25 -133.0 44.95 -132.9 44.6 -133.2 Q44.25 -135.3 45.8 -135.95 L46.0 -135.95 M43.1 -133.3 L42.85 -132.95 Q42.7 -132.75 42.55 -132.8 42.4 -132.9 42.45 -133.15 L42.5 -133.6 42.85 -133.95 43.1 -134.0 43.3 -133.75 43.1 -133.3 M43.35 -135.75 L43.3 -135.5 43.2 -135.35 42.9 -135.25 Q42.8 -135.3 42.85 -135.45 L42.8 -135.7 Q42.85 -135.85 43.05 -135.9 L43.25 -135.95 43.35 -135.75 M42.05 -135.55 L41.95 -135.3 41.8 -135.0 41.6 -134.95 41.45 -135.2 41.55 -135.5 41.7 -135.7 41.95 -135.7 42.05 -135.55 M49.0 -116.05 L48.6 -116.0 Q48.65 -116.95 49.0 -116.15 L49.0 -116.05 M46.35 -115.45 Q47.0 -115.55 47.4 -115.1 L47.65 -114.85 47.1 -113.75 46.45 -113.95 46.1 -114.4 45.9 -115.05 46.35 -115.45 M48.05 -112.4 L48.0 -112.1 48.15 -111.9 48.45 -111.9 48.65 -112.1 48.65 -112.4 48.45 -112.55 48.2 -112.6 48.05 -112.4" fill="#ff852b" fill-rule="evenodd" stroke="none"/>
  </g>
</svg>
