<?xml version="1.0" encoding="UTF-8" standalone="no"?>
<svg xmlns:ffdec="https://www.free-decompiler.com/flash" xmlns:xlink="http://www.w3.org/1999/xlink" ffdec:objectType="shape" height="174.4px" width="75.15px" xmlns="http://www.w3.org/2000/svg">
  <g transform="matrix(1.0, 0.0, 0.0, 1.0, 31.55, 138.6)">
    <path d="M19.1 -113.3 L17.3 -118.25 14.3 -124.5 Q14.0 -125.5 10.0 -131.35 6.0 -137.2 1.05 -136.4 -3.9 -135.6 -5.75 -132.2 L-9.95 -124.5 -13.5 -118.25 -16.7 -112.75 -16.25 -116.4 -15.2 -118.25 -11.6 -124.5 Q-9.3 -128.5 -7.15 -132.65 -5.05 -136.8 1.15 -137.45 7.3 -138.15 11.55 -131.8 15.75 -125.4 15.95 -124.5 L18.9 -118.25 19.25 -117.25 19.65 -116.3 19.95 -114.4 Q19.95 -113.8 19.75 -113.65 L19.1 -113.3" fill="#5c4730" fill-rule="evenodd" stroke="none"/>
    <path d="M-14.5 -109.15 L-9.5 -118.25 -5.7 -124.5 Q0.3 -132.45 2.7 -132.45 5.85 -132.45 9.7 -124.5 L11.95 -118.25 14.15 -110.95 Q10.9 -109.5 9.4 -109.1 L7.0 -118.25 5.3 -124.15 5.25 -124.5 Q4.55 -127.65 1.9 -127.55 0.9 -127.55 -1.1 -124.5 L-4.15 -118.25 -8.75 -107.3 -11.55 -108.15 -14.5 -109.15" fill="#ffd5aa" fill-rule="evenodd" stroke="none"/>
    <path d="M14.15 -110.95 L11.95 -118.25 9.7 -124.5 Q5.85 -132.45 2.7 -132.45 0.3 -132.45 -5.7 -124.5 L-9.5 -118.25 -14.5 -109.15 Q-15.4 -109.15 -16.05 -110.2 -16.7 -111.25 -16.7 -112.75 L-13.5 -118.25 -9.95 -124.5 -5.75 -132.2 Q-3.9 -135.6 1.05 -136.4 6.0 -137.2 10.0 -131.35 14.0 -125.5 14.3 -124.5 L17.3 -118.25 19.1 -113.3 Q17.8 -112.45 15.9 -111.65 L14.15 -110.95" fill="#ffc58a" fill-rule="evenodd" stroke="none"/>
    <path d="M-8.75 -107.3 L-4.15 -118.25 -1.1 -124.5 Q0.9 -127.55 1.9 -127.55 4.55 -127.65 5.25 -124.5 L5.3 -124.15 7.0 -118.25 9.4 -109.1 Q9.1 -108.45 7.15 -108.0 L-8.75 -107.3" fill="#ffdfbf" fill-rule="evenodd" stroke="none"/>
    <path d="M14.15 -110.95 L15.9 -111.65 Q17.8 -112.45 19.1 -113.3 L19.75 -113.65 Q19.95 -113.8 19.95 -114.4 L19.65 -116.3 19.25 -117.25 18.9 -118.25 21.05 -117.75 Q22.25 -117.35 24.15 -114.2 26.0 -111.05 26.0 -110.4 L25.55 -109.15 Q25.05 -108.4 25.05 -107.9 L26.7 -101.3 Q28.5 -93.3 28.95 -85.95 29.4 -79.25 30.65 -69.65 31.75 -61.05 32.5 -57.6 L33.1 -55.0 Q35.6 -44.95 39.7 -38.85 L39.9 -38.6 42.5 -35.1 Q43.6 -33.6 43.6 -32.7 40.5 -27.2 36.15 -24.15 L33.85 -22.8 30.7 -21.05 28.65 -20.4 27.8 -20.15 25.9 -19.75 25.4 -19.6 21.75 -18.95 21.25 -18.9 12.55 -18.25 11.9 -18.25 9.15 -18.25 8.25 -18.25 -3.55 -17.85 -5.75 -17.9 -7.8 -17.95 -13.25 -18.7 Q-17.35 -19.55 -21.3 -22.75 L-22.6 -23.7 Q-24.25 -24.9 -27.45 -28.35 -30.55 -31.6 -30.55 -32.0 L-28.1 -36.65 Q-25.45 -41.6 -24.65 -44.3 L-21.35 -54.7 Q-20.45 -57.6 -20.45 -59.1 L-20.8 -65.35 Q-21.55 -71.85 -23.3 -73.1 L-27.95 -76.55 Q-31.55 -80.35 -31.55 -85.9 -31.55 -86.75 -27.2 -96.6 L-22.85 -106.4 Q-22.85 -107.5 -23.3 -108.3 -23.4 -109.0 -21.9 -111.2 L-18.85 -114.9 -16.75 -117.25 -15.2 -118.25 -16.25 -116.4 -16.7 -112.75 Q-16.7 -111.25 -16.05 -110.2 -15.4 -109.15 -14.5 -109.15 L-11.55 -108.15 -8.75 -107.3 7.15 -108.0 Q9.1 -108.45 9.4 -109.1 10.9 -109.5 14.15 -110.95 M-15.3 -103.0 L-14.15 -102.55 Q-8.45 -100.4 -2.75 -100.4 -0.15 -100.4 3.65 -101.35 L7.5 -102.3 Q8.5 -102.3 7.85 -102.15 L7.85 -101.9 Q6.65 -100.95 1.45 -100.1 L-4.25 -99.4 Q-9.9 -99.4 -14.75 -101.15 -19.45 -102.8 -22.0 -105.5 -28.6 -91.6 -29.3 -88.0 -30.4 -86.15 -29.35 -84.0 -29.4 -81.6 -26.9 -78.65 -25.45 -76.85 -23.6 -75.45 -20.2 -73.3 -19.4 -69.95 L-19.2 -65.95 -18.85 -61.4 -18.95 -58.8 Q-18.95 -58.2 -18.35 -58.15 -18.8 -58.15 -19.0 -58.4 L-19.0 -57.9 Q-19.0 -54.65 -23.7 -43.35 L-28.4 -32.0 -26.55 -29.75 Q-24.35 -27.45 -22.15 -25.85 -20.2 -24.4 -15.35 -22.35 -9.05 -19.75 -5.0 -19.75 21.1 -19.75 25.5 -20.65 27.35 -21.05 29.05 -22.25 L33.6 -24.9 Q41.6 -28.45 41.6 -32.45 L38.25 -38.6 Q34.3 -45.9 31.3 -52.05 L23.6 -105.75 22.8 -104.8 22.65 -105.25 22.45 -106.5 Q22.45 -107.85 23.7 -108.95 24.9 -110.1 24.9 -110.4 L24.2 -111.8 Q23.2 -113.3 21.65 -114.7 21.2 -113.6 19.95 -112.5 L18.15 -111.3 14.9 -109.7 Q11.2 -108.2 8.85 -107.5 2.35 -105.55 -3.0 -105.55 -8.5 -105.55 -10.85 -106.35 L-13.95 -107.35 Q-15.85 -108.1 -16.8 -109.15 L-17.3 -109.8 -17.65 -110.45 -17.8 -111.4 -17.45 -115.1 -21.2 -110.35 Q-22.25 -109.05 -22.25 -108.3 -22.25 -107.35 -21.75 -106.9 L-20.8 -106.1 -19.35 -105.05 Q-18.0 -104.2 -16.45 -103.5 L-16.5 -103.45 -15.3 -103.0" fill="#5a1d3c" fill-rule="evenodd" stroke="none"/>
    <path d="M-15.3 -103.0 L-16.5 -103.45 -16.45 -103.5 -13.95 -107.35 -10.85 -106.35 Q-8.5 -105.55 -3.0 -105.55 2.35 -105.55 8.85 -107.5 11.2 -108.2 14.9 -109.7 L15.65 -108.0 Q16.45 -106.35 16.65 -106.4 L5.3 -102.55 Q1.2 -101.1 -2.6 -101.1 L-11.25 -101.95 Q-13.6 -102.4 -15.3 -103.0 M-19.35 -105.05 L-20.8 -106.1 -17.3 -109.8 -16.8 -109.15 -19.35 -105.05 M18.15 -111.3 L19.95 -112.5 22.4 -109.25 19.6 -107.6 19.2 -108.75 18.15 -111.3 M-25.1 -81.75 L-26.6 -85.8 Q-26.3 -86.7 -26.5 -90.55 -25.85 -95.4 -21.3 -102.05 -16.85 -97.85 -4.65 -97.85 1.75 -97.85 6.35 -99.1 L19.3 -102.6 19.4 -100.55 Q19.4 -92.55 13.7 -90.5 11.55 -89.7 7.5 -89.4 L-0.15 -88.8 Q3.0 -86.15 6.7 -84.15 L11.95 -81.45 Q16.55 -78.95 16.55 -74.05 16.55 -70.3 14.15 -65.5 L9.3 -56.45 13.45 -55.0 18.45 -53.05 Q19.75 -52.1 21.7 -46.25 L29.75 -46.75 Q31.5 -45.9 31.5 -45.3 31.5 -43.75 27.25 -41.1 L22.75 -38.6 21.95 -38.15 Q20.2 -36.4 18.15 -35.65 14.5 -34.35 5.75 -35.0 L2.1 -34.95 -0.75 -34.75 -9.75 -35.65 Q-16.9 -36.75 -18.25 -38.25 -17.15 -39.3 -16.7 -39.35 L-14.25 -39.15 6.45 -39.25 3.05 -40.1 0.65 -41.0 Q-3.15 -42.5 -5.65 -44.25 L8.5 -46.1 3.05 -46.8 Q-6.2 -48.25 -12.2 -50.6 L-13.35 -52.25 Q-8.4 -52.15 -3.2 -56.1 2.1 -60.15 2.1 -64.35 2.1 -67.7 -2.0 -70.1 -6.15 -72.55 -13.4 -73.35 -12.15 -74.95 -9.75 -76.45 -6.2 -78.75 -2.05 -79.4 L-2.15 -81.0 -17.5 -80.3 Q-17.85 -88.8 -18.05 -88.8 -17.8 -90.0 -18.0 -91.95 L-18.0 -92.05 -18.6 -92.2 Q-19.75 -92.2 -21.3 -90.05 -23.25 -87.25 -25.1 -81.75 M13.45 -96.35 Q8.75 -96.35 4.75 -95.35 0.8 -94.35 -2.15 -94.35 L-11.3 -95.1 -14.25 -95.9 -15.7 -95.7 -15.85 -95.15 -16.05 -94.25 Q-16.05 -91.05 -5.15 -91.05 2.25 -91.05 8.2 -92.45 14.2 -93.85 14.55 -95.75 14.45 -96.35 13.45 -96.35 M0.15 -81.55 L-0.3 -81.05 2.25 -77.6 Q-0.8 -77.0 -1.55 -75.9 -1.9 -75.4 -1.9 -73.5 -1.9 -71.8 -0.1 -71.8 5.3 -71.8 9.4 -73.4 11.45 -74.25 12.5 -75.05 L13.0 -75.05 Q12.75 -75.35 12.75 -75.85 12.75 -77.55 9.35 -79.75 5.6 -82.25 1.35 -82.3 L0.15 -81.55 M5.25 -60.0 Q4.3 -60.0 1.0 -56.55 -2.3 -53.15 -2.3 -52.25 -2.3 -49.85 1.15 -49.25 L3.05 -48.9 11.9 -47.05 12.8 -46.75 9.55 -44.45 Q7.5 -43.05 7.5 -42.5 7.5 -41.3 8.35 -40.95 L9.9 -40.75 Q13.2 -40.75 16.05 -43.1 19.0 -45.55 19.0 -48.55 19.0 -50.65 16.1 -51.65 11.3 -52.9 7.5 -54.1 L7.7 -54.15 Q7.9 -54.3 7.9 -54.95 L7.9 -55.0 Q7.9 -56.45 6.75 -58.3 5.7 -60.0 5.25 -60.0 M21.75 -32.1 L27.75 -34.45 Q30.7 -35.5 33.0 -35.5 36.35 -35.5 35.95 -33.75 35.55 -32.0 31.95 -29.8 22.65 -24.15 8.95 -24.15 -3.95 -24.15 -12.0 -26.05 -19.05 -27.7 -19.05 -29.85 -19.05 -30.2 -17.75 -31.25 L-10.3 -29.8 1.35 -28.75 Q12.6 -28.75 21.75 -32.1 M30.05 -31.55 L29.35 -31.75 Q28.4 -31.75 24.9 -30.3 21.25 -28.8 20.7 -28.75 L4.0 -27.5 3.65 -27.05 3.5 -26.5 Q3.75 -26.3 4.8 -26.1 L6.6 -25.9 Q16.9 -25.9 23.3 -27.25 30.0 -28.6 30.05 -31.0 L30.05 -31.55 M-12.1 -84.15 L-9.45 -83.75 -6.75 -84.15 Q-5.65 -84.55 -5.65 -85.1 -5.65 -85.65 -6.75 -86.05 L-9.45 -86.45 -12.1 -86.05 Q-13.25 -85.65 -13.25 -85.1 -13.25 -84.55 -12.1 -84.15" fill="#b23875" fill-rule="evenodd" stroke="none"/>
    <path d="M-29.35 -84.0 Q-30.4 -86.15 -29.3 -88.0 -28.6 -91.6 -22.0 -105.5 -19.45 -102.8 -14.75 -101.15 -9.9 -99.4 -4.25 -99.4 L1.45 -100.1 Q6.65 -100.95 7.85 -101.9 L7.85 -102.15 Q8.5 -102.3 7.5 -102.3 L3.65 -101.35 Q-0.15 -100.4 -2.75 -100.4 -8.45 -100.4 -14.15 -102.55 L-15.3 -103.0 Q-13.6 -102.4 -11.25 -101.95 L-2.6 -101.1 Q1.2 -101.1 5.3 -102.55 L16.65 -106.4 Q16.45 -106.35 15.65 -108.0 L14.9 -109.7 18.15 -111.3 19.2 -108.75 19.6 -107.6 22.4 -109.25 19.95 -112.5 Q21.2 -113.6 21.65 -114.7 23.2 -113.3 24.2 -111.8 L24.9 -110.4 Q24.9 -110.1 23.7 -108.95 22.45 -107.85 22.45 -106.5 L22.65 -105.25 22.8 -104.8 23.6 -105.75 31.3 -52.05 Q34.3 -45.9 38.25 -38.6 L41.6 -32.45 Q41.6 -28.45 33.6 -24.9 L29.05 -22.25 Q27.35 -21.05 25.5 -20.65 21.1 -19.75 -5.0 -19.75 -9.05 -19.75 -15.35 -22.35 -20.2 -24.4 -22.15 -25.85 -24.35 -27.45 -26.55 -29.75 L-28.4 -32.0 -23.7 -43.35 Q-19.0 -54.65 -19.0 -57.9 L-19.0 -58.4 Q-18.8 -58.15 -18.35 -58.15 -18.95 -58.2 -18.95 -58.8 L-18.85 -61.4 -17.5 -65.45 -4.0 -57.4 -8.8 -65.15 Q-12.95 -72.0 -13.4 -73.35 -6.15 -72.55 -2.0 -70.1 2.1 -67.7 2.1 -64.35 2.1 -60.15 -3.2 -56.1 -8.4 -52.15 -13.35 -52.25 L-12.2 -50.6 Q-6.2 -48.25 3.05 -46.8 L8.5 -46.1 -5.65 -44.25 Q-3.15 -42.5 0.65 -41.0 L3.05 -40.1 6.45 -39.25 -14.25 -39.15 -16.7 -39.35 Q-17.15 -39.3 -18.25 -38.25 -16.9 -36.75 -9.75 -35.65 L-0.75 -34.75 2.1 -34.95 5.75 -35.0 Q14.5 -34.35 18.15 -35.65 20.2 -36.4 21.95 -38.15 L22.75 -38.6 27.25 -41.1 Q31.5 -43.75 31.5 -45.3 31.5 -45.9 29.75 -46.75 L21.7 -46.25 Q19.75 -52.1 18.45 -53.05 L13.45 -55.0 9.3 -56.45 14.15 -65.5 Q16.55 -70.3 16.55 -74.05 16.55 -78.95 11.95 -81.45 L6.7 -84.15 Q3.0 -86.15 -0.15 -88.8 L7.5 -89.4 Q11.55 -89.7 13.7 -90.5 19.4 -92.55 19.4 -100.55 L19.3 -102.6 6.35 -99.1 Q1.75 -97.85 -4.65 -97.85 -16.85 -97.85 -21.3 -102.05 -25.85 -95.4 -26.5 -90.55 -26.3 -86.7 -26.6 -85.8 L-25.1 -81.75 -29.35 -84.0 M-16.45 -103.5 Q-18.0 -104.2 -19.35 -105.05 L-16.8 -109.15 Q-15.85 -108.1 -13.95 -107.35 L-16.45 -103.5 M-20.8 -106.1 L-21.75 -106.9 Q-22.25 -107.35 -22.25 -108.3 -22.25 -109.05 -21.2 -110.35 L-17.45 -115.1 -17.8 -111.4 -17.65 -110.45 -17.3 -109.8 -20.8 -106.1 M21.75 -32.1 Q12.6 -28.75 1.35 -28.75 L-10.3 -29.8 -17.75 -31.25 Q-19.05 -30.2 -19.05 -29.85 -19.05 -27.7 -12.0 -26.05 -3.95 -24.15 8.95 -24.15 22.65 -24.15 31.95 -29.8 35.55 -32.0 35.95 -33.75 36.35 -35.5 33.0 -35.5 30.7 -35.5 27.75 -34.45 L21.75 -32.1 M-25.1 -81.75 Q-23.25 -87.25 -21.3 -90.05 -19.75 -92.2 -18.6 -92.2 L-18.0 -92.05 -18.0 -91.95 Q-17.8 -90.0 -18.05 -88.8 -17.85 -88.8 -17.5 -80.3 L-2.15 -81.0 -2.05 -79.4 Q-6.2 -78.75 -9.75 -76.45 -12.15 -74.95 -13.4 -73.35 L-15.25 -73.85 -10.75 -78.85 -19.15 -78.3 Q-19.8 -88.8 -20.45 -88.8 L-23.95 -79.55 -25.1 -81.75" fill="#922e60" fill-rule="evenodd" stroke="none"/>
    <path d="M34.75 -20.6 L35.15 -7.0 Q35.15 18.5 25.65 28.7 19.05 35.8 6.85 35.8 -23.7 35.8 -23.7 -7.65 L-23.4 -12.7 -22.6 -23.7 -21.3 -22.75 Q-22.1 -21.45 -22.15 -19.75 L-22.3 -12.7 -22.3 -8.0 Q-22.3 15.25 -12.45 26.05 -4.95 34.2 6.85 34.2 16.25 34.2 22.75 27.35 33.15 16.4 33.15 -9.7 L33.1 -15.4 Q31.75 -14.45 31.0 -14.3 L30.5 -14.35 32.75 -16.55 32.95 -19.2 34.75 -20.6 M11.2 -14.35 Q11.8 -15.85 11.9 -18.25 L12.55 -18.25 12.3 -16.25 11.85 -13.7 11.1 -13.9 11.2 -14.35 M9.15 -18.25 Q9.05 -15.85 8.5 -14.5 L8.35 -13.8 8.05 -14.25 Q7.75 -15.0 8.0 -16.45 L8.25 -18.25 9.15 -18.25 M4.75 -10.65 L4.5 -11.05 Q4.5 -11.35 5.0 -11.55 L6.15 -11.75 7.35 -11.55 7.8 -11.05 7.45 -10.6 7.35 -10.55 6.15 -10.35 5.0 -10.55 4.75 -10.65 M9.2 -10.55 L9.2 -11.3 12.15 -11.3 12.15 -10.45 12.15 -10.15 9.2 -10.15 9.2 -10.55 M14.0 -10.3 Q13.7 -10.45 13.7 -10.65 13.7 -10.9 14.15 -11.05 L15.2 -11.25 16.25 -11.05 16.7 -10.65 16.25 -10.2 15.55 -10.05 15.2 -10.05 14.15 -10.2 14.0 -10.3 M18.1 -10.95 L18.55 -11.45 19.55 -11.65 20.6 -11.45 21.0 -10.95 Q21.0 -10.65 20.6 -10.45 L19.55 -10.25 18.55 -10.45 Q18.1 -10.65 18.1 -10.95 M1.3 -11.05 L0.2 -11.25 Q-0.3 -11.45 -0.3 -11.7 L0.2 -12.15 1.3 -12.35 2.45 -12.15 2.9 -11.7 2.45 -11.25 1.3 -11.05 M28.65 -20.4 L28.65 -19.8 28.35 -17.55 28.05 -15.25 27.35 -15.7 27.8 -20.15 28.65 -20.4 M25.35 -19.15 L25.4 -19.6 25.9 -19.75 25.4 -14.75 Q25.0 -13.9 24.75 -13.95 L24.7 -13.95 24.6 -14.75 25.05 -16.95 25.35 -19.15 M29.95 -17.85 L30.2 -13.6 Q29.75 -13.9 29.65 -16.8 L29.95 -17.85 M26.55 -12.45 L26.4 -12.65 26.45 -12.7 Q27.75 -13.3 29.05 -13.55 L29.2 -13.55 28.15 -12.7 Q27.65 -12.4 27.15 -12.2 L26.55 -12.45 M29.3 -0.6 L29.15 -1.2 29.55 -3.35 30.05 -4.8 29.7 -0.6 29.3 -0.6 M24.9 -12.35 L25.3 -11.8 Q25.3 -11.45 24.9 -11.2 L23.9 -11.0 22.9 -11.2 Q22.5 -11.45 22.5 -11.8 22.5 -12.15 22.9 -12.35 L23.9 -12.6 24.9 -12.35 M29.95 -7.65 Q29.7 -8.3 29.7 -9.15 29.7 -10.0 29.95 -10.6 30.15 -11.25 30.5 -11.25 L31.1 -10.6 31.3 -9.15 31.1 -7.65 30.5 -7.05 Q30.15 -7.05 29.95 -7.65 M-7.35 -12.75 L-10.25 -14.1 -9.9 -14.85 -7.05 -13.5 -7.35 -12.75 M-5.4 -13.05 L-4.75 -13.25 -2.15 -12.7 Q-2.15 -12.1 -3.65 -12.3 -4.65 -12.4 -5.1 -12.7 L-5.4 -13.05 M-15.05 -16.8 L-12.0 -15.4 -12.25 -14.55 Q-14.3 -15.15 -15.15 -16.15 L-15.05 -16.8 M-18.6 -18.15 L-19.95 -19.3 -18.45 -18.45 -16.8 -17.35 Q-17.55 -17.45 -18.6 -18.15 M19.85 27.85 L18.9 29.45 17.7 30.55 17.5 29.8 Q19.45 27.45 19.8 27.7 L19.85 27.85 M22.15 23.25 Q22.4 23.3 22.7 23.7 22.45 24.45 20.95 26.4 L20.55 25.65 22.15 23.25 M24.6 18.4 L24.75 18.45 Q24.55 20.0 23.6 21.35 22.7 22.7 23.05 21.15 24.25 18.55 24.6 18.4 M26.35 13.25 L26.9 13.25 26.75 15.0 Q26.3 15.15 25.75 16.85 25.4 16.8 25.3 16.4 L26.35 13.25 M27.95 7.5 L28.3 7.45 27.95 9.45 27.5 11.35 27.1 10.95 27.5 9.15 27.95 7.5 M29.3 1.4 L29.5 1.45 Q28.7 7.55 28.35 5.0 29.05 1.45 29.3 1.4" fill="#2c6559" fill-rule="evenodd" stroke="none"/>
    <path d="M36.15 -24.15 L35.55 -22.45 34.75 -20.6 32.95 -19.2 28.35 -17.55 28.65 -19.8 Q30.8 -19.8 32.35 -20.65 33.85 -21.55 33.85 -22.8 L36.15 -24.15 M12.3 -16.25 L12.55 -18.25 21.25 -18.9 21.75 -18.95 25.35 -19.15 25.05 -16.95 12.3 -16.25 M8.25 -18.25 L8.0 -16.45 -3.55 -17.85 8.25 -18.25" fill="#333333" fill-rule="evenodd" stroke="none"/>
    <path d="M11.9 -18.25 Q11.8 -15.85 11.2 -14.35 L8.5 -14.5 Q9.05 -15.85 9.15 -18.25 L11.9 -18.25 M4.75 -10.65 L5.0 -10.55 6.15 -10.35 7.35 -10.55 7.45 -10.6 9.2 -10.55 9.2 -10.15 12.15 -10.15 12.15 -10.45 14.0 -10.3 14.15 -10.2 15.2 -10.05 15.55 -10.05 Q19.35 -9.35 21.7 -7.7 21.45 -7.0 20.4 -6.4 18.1 -5.15 11.75 -3.55 L21.8 -0.55 Q22.9 -0.2 22.9 0.4 22.9 1.3 17.25 3.85 11.8 6.3 10.6 6.35 L9.4 6.1 Q15.5 10.05 17.7 12.6 19.15 14.3 19.15 15.9 19.15 17.5 16.05 18.55 13.1 19.55 8.9 19.55 -3.9 19.55 -11.05 13.25 -18.65 6.55 -18.65 -6.45 -18.65 -9.85 -16.65 -11.5 -15.65 -12.35 -14.2 -12.7 L-9.35 -12.7 -7.95 -12.5 -2.25 -11.35 4.75 -10.65 M25.4 -14.75 L25.9 -19.75 27.8 -20.15 27.35 -15.7 25.4 -14.75" fill="#a0d6cb" fill-rule="evenodd" stroke="none"/>
    <path d="M33.85 -22.8 Q33.85 -21.55 32.35 -20.65 30.8 -19.8 28.65 -19.8 L28.65 -20.4 30.7 -21.05 33.85 -22.8 M25.4 -19.6 L25.35 -19.15 21.75 -18.95 25.4 -19.6" fill="#bbbbbb" fill-rule="evenodd" stroke="none"/>
    <path d="M11.2 -14.35 L11.1 -13.9 11.85 -13.7 12.3 -16.25 25.05 -16.95 24.6 -14.75 24.7 -13.95 24.75 -13.95 Q25.0 -13.9 25.4 -14.75 L27.35 -15.7 28.05 -15.25 28.35 -17.55 32.95 -19.2 32.75 -16.55 30.5 -14.35 31.0 -14.3 Q31.75 -14.45 33.1 -15.4 L33.15 -9.7 Q33.15 16.4 22.75 27.35 16.25 34.2 6.85 34.2 -4.95 34.2 -12.45 26.05 -22.3 15.25 -22.3 -8.0 L-22.3 -12.7 -22.15 -19.75 Q-22.1 -21.45 -21.3 -22.75 -17.35 -19.55 -13.25 -18.7 L-7.8 -17.95 -5.75 -17.9 -3.55 -17.85 8.0 -16.45 Q7.75 -15.0 8.05 -14.25 L8.35 -13.8 8.5 -14.5 11.2 -14.35 M7.45 -10.6 L7.8 -11.05 7.35 -11.55 6.15 -11.75 5.0 -11.55 Q4.5 -11.35 4.5 -11.05 L4.75 -10.65 -2.25 -11.35 -7.95 -12.5 -9.35 -12.7 -14.2 -12.7 Q-15.65 -12.35 -16.65 -11.5 -18.65 -9.85 -18.65 -6.45 -18.65 6.55 -11.05 13.25 -3.9 19.55 8.9 19.55 13.1 19.55 16.05 18.55 19.15 17.5 19.15 15.9 19.15 14.3 17.7 12.6 15.5 10.05 9.4 6.1 L10.6 6.35 Q11.8 6.3 17.25 3.85 22.9 1.3 22.9 0.4 22.9 -0.2 21.8 -0.55 L11.75 -3.55 Q18.1 -5.15 20.4 -6.4 21.45 -7.0 21.7 -7.7 19.35 -9.35 15.55 -10.05 L16.25 -10.2 16.7 -10.65 16.25 -11.05 15.2 -11.25 14.15 -11.05 Q13.7 -10.9 13.7 -10.65 13.7 -10.45 14.0 -10.3 L12.15 -10.45 12.15 -11.3 9.2 -11.3 9.2 -10.55 7.45 -10.6 M1.3 -11.05 L2.45 -11.25 2.9 -11.7 2.45 -12.15 1.3 -12.35 0.2 -12.15 -0.3 -11.7 Q-0.3 -11.45 0.2 -11.25 L1.3 -11.05 M18.1 -10.95 Q18.1 -10.65 18.55 -10.45 L19.55 -10.25 20.6 -10.45 Q21.0 -10.65 21.0 -10.95 L20.6 -11.45 19.55 -11.65 18.55 -11.45 18.1 -10.95 M29.95 -17.85 L29.65 -16.8 Q29.75 -13.9 30.2 -13.6 L29.95 -17.85 M26.55 -12.45 L27.15 -12.2 Q27.65 -12.4 28.15 -12.7 L29.2 -13.55 29.05 -13.55 Q27.75 -13.3 26.45 -12.7 L26.4 -12.65 26.55 -12.45 M29.95 -7.65 Q30.15 -7.05 30.5 -7.05 L31.1 -7.65 31.3 -9.15 31.1 -10.6 30.5 -11.25 Q30.15 -11.25 29.95 -10.6 29.7 -10.0 29.7 -9.15 29.7 -8.3 29.95 -7.65 M24.9 -12.35 L23.9 -12.6 22.9 -12.35 Q22.5 -12.15 22.5 -11.8 22.5 -11.45 22.9 -11.2 L23.9 -11.0 24.9 -11.2 Q25.3 -11.45 25.3 -11.8 L24.9 -12.35 M29.3 -0.6 L29.7 -0.6 30.05 -4.8 29.55 -3.35 29.15 -1.2 29.3 -0.6 M-5.4 -13.05 L-5.1 -12.7 Q-4.65 -12.4 -3.65 -12.3 -2.15 -12.1 -2.15 -12.7 L-4.75 -13.25 -5.4 -13.05 M-7.35 -12.75 L-7.05 -13.5 -9.9 -14.85 -10.25 -14.1 -7.35 -12.75 M-18.6 -18.15 Q-17.55 -17.45 -16.8 -17.35 L-18.45 -18.45 -19.95 -19.3 -18.6 -18.15 M-15.05 -16.8 L-15.15 -16.15 Q-14.3 -15.15 -12.25 -14.55 L-12.0 -15.4 -15.05 -16.8 M29.3 1.4 Q29.05 1.45 28.35 5.0 28.7 7.55 29.5 1.45 L29.3 1.4 M27.95 7.5 L27.5 9.15 27.1 10.95 27.5 11.35 27.95 9.45 28.3 7.45 27.95 7.5 M26.35 13.25 L25.3 16.4 Q25.4 16.8 25.75 16.85 26.3 15.15 26.75 15.0 L26.9 13.25 26.35 13.25 M24.6 18.4 Q24.25 18.55 23.05 21.15 22.7 22.7 23.6 21.35 24.55 20.0 24.75 18.45 L24.6 18.4 M22.15 23.25 L20.55 25.65 20.95 26.4 Q22.45 24.45 22.7 23.7 22.4 23.3 22.15 23.25 M19.85 27.85 L19.8 27.7 Q19.45 27.45 17.5 29.8 L17.7 30.55 18.9 29.45 19.85 27.85" fill="#7bc6b7" fill-rule="evenodd" stroke="none"/>
    <path d="M-23.95 -79.55 L-20.45 -88.8 Q-19.8 -88.8 -19.15 -78.3 L-10.75 -78.85 -15.25 -73.85 Q-17.5 -74.7 -20.65 -76.9 -23.4 -78.8 -23.95 -79.55" fill="#cd5f96" fill-rule="evenodd" stroke="none"/>
    <path d="M-19.2 -65.95 L-19.4 -69.95 Q-20.2 -73.3 -23.6 -75.45 L-27.4 -81.1 -24.35 -78.3 -23.95 -79.55 Q-23.4 -78.8 -20.65 -76.9 -17.5 -74.7 -15.25 -73.85 L-15.7 -73.15 -8.45 -61.5 -18.75 -68.6 -19.2 -65.95" fill="#c64686" fill-rule="evenodd" stroke="none"/>
    <path d="M-18.85 -61.4 L-19.2 -65.95 -18.75 -68.6 -8.45 -61.5 -15.7 -73.15 -15.25 -73.85 -13.4 -73.35 Q-12.95 -72.0 -8.8 -65.15 L-4.0 -57.4 -17.5 -65.45 -18.85 -61.4 M-23.6 -75.45 Q-25.45 -76.85 -26.9 -78.65 -29.4 -81.6 -29.35 -84.0 L-25.1 -81.75 -23.95 -79.55 -24.35 -78.3 -27.4 -81.1 -23.6 -75.45" fill="#73244b" fill-rule="evenodd" stroke="none"/>
    <path d="M5.25 -60.0 Q5.7 -60.0 6.75 -58.3 7.9 -56.45 7.9 -55.0 L7.9 -54.95 Q7.9 -54.3 7.7 -54.15 L7.5 -54.1 Q11.3 -52.9 16.1 -51.65 19.0 -50.65 19.0 -48.55 19.0 -45.55 16.05 -43.1 13.2 -40.75 9.9 -40.75 L8.35 -40.95 Q7.5 -41.3 7.5 -42.5 7.5 -43.05 9.55 -44.45 L12.8 -46.75 11.9 -47.05 3.05 -48.9 1.15 -49.25 Q-2.3 -49.85 -2.3 -52.25 -2.3 -53.15 1.0 -56.55 4.3 -60.0 5.25 -60.0 M0.15 -81.55 L1.35 -82.3 Q5.6 -82.25 9.35 -79.75 12.75 -77.55 12.75 -75.85 12.75 -75.35 13.0 -75.05 L12.5 -75.05 Q11.45 -74.25 9.4 -73.4 5.3 -71.8 -0.1 -71.8 -1.9 -71.8 -1.9 -73.5 -1.9 -75.4 -1.55 -75.9 -0.8 -77.0 2.25 -77.6 L-0.3 -81.05 0.15 -81.55 M13.45 -96.35 Q14.45 -96.35 14.55 -95.75 14.2 -93.85 8.2 -92.45 2.25 -91.05 -5.15 -91.05 -16.05 -91.05 -16.05 -94.25 L-15.85 -95.15 -15.7 -95.7 -14.25 -95.9 -11.3 -95.1 -2.15 -94.35 Q0.8 -94.35 4.75 -95.35 8.75 -96.35 13.45 -96.35 M30.05 -31.55 L30.05 -31.0 Q30.0 -28.6 23.3 -27.25 16.9 -25.9 6.6 -25.9 L4.8 -26.1 Q3.75 -26.3 3.5 -26.5 L3.65 -27.05 4.0 -27.5 20.7 -28.75 Q21.25 -28.8 24.9 -30.3 28.4 -31.75 29.35 -31.75 L30.05 -31.55 M-12.1 -84.15 Q-13.25 -84.55 -13.25 -85.1 -13.25 -85.65 -12.1 -86.05 L-9.45 -86.45 -6.75 -86.05 Q-5.65 -85.65 -5.65 -85.1 -5.65 -84.55 -6.75 -84.15 L-9.45 -83.75 -12.1 -84.15" fill="#c44283" fill-rule="evenodd" stroke="none"/>
    <path d="M-2.4 -117.6 L-2.0 -117.3 -1.7 -116.35 -1.95 -115.65 -2.85 -115.25 -3.65 -115.45 -3.85 -115.35 -4.2 -114.75 Q-4.85 -114.1 -6.25 -114.45 L-6.8 -114.95 -7.0 -115.3 -7.05 -116.25 -6.9 -116.65 -6.45 -117.2 -3.8 -117.3 -2.4 -117.6 M-10.05 -120.1 L-9.5 -119.65 -8.95 -118.35 -8.5 -117.35 -8.5 -116.95 -9.65 -115.7 -9.85 -115.65 Q-10.35 -115.9 -10.7 -116.25 L-10.1 -116.1 Q-9.6 -116.1 -9.25 -116.45 -8.95 -116.8 -8.95 -117.3 -8.95 -117.8 -9.25 -118.15 -9.6 -118.5 -10.1 -118.5 -10.6 -118.5 -10.9 -118.15 -11.25 -117.8 -11.25 -117.3 L-11.2 -117.05 Q-11.7 -118.1 -11.55 -119.8 L-11.05 -120.15 -10.05 -120.1 M-6.25 -116.75 L-6.6 -115.9 -6.25 -115.05 Q-5.9 -114.7 -5.4 -114.7 -4.9 -114.7 -4.55 -115.05 -4.2 -115.4 -4.2 -115.9 -4.2 -116.4 -4.55 -116.75 -4.9 -117.1 -5.4 -117.1 -5.9 -117.1 -6.25 -116.75 M-2.3 -117.0 L-2.9 -117.25 -3.5 -117.0 -3.75 -116.45 -3.5 -115.85 -2.9 -115.65 -2.3 -115.85 Q-2.05 -116.1 -2.05 -116.45 L-2.3 -117.0 M-11.25 -119.6 L-11.4 -119.35 -11.3 -118.4 -10.0 -119.6 -10.4 -119.7 -11.25 -119.6" fill="#5a1d3c" fill-rule="evenodd" stroke="none"/>
    <path d="M-2.4 -117.6 Q2.15 -121.05 4.35 -123.7 7.0 -127.0 7.0 -130.1 7.0 -133.8 6.25 -135.15 5.4 -136.65 3.05 -136.65 -0.85 -136.65 -4.25 -132.9 -8.5 -128.25 -9.5 -119.65 L-10.05 -120.1 Q-10.5 -127.15 -5.65 -132.5 -1.45 -137.1 2.55 -137.1 4.95 -137.1 6.3 -135.5 7.55 -134.05 7.55 -131.75 7.55 -127.8 5.7 -124.55 3.35 -120.55 -2.0 -117.3 L-2.4 -117.6 M-8.5 -117.35 L-8.05 -117.0 -8.5 -116.95 -8.5 -117.35 M-11.55 -119.8 Q-10.35 -131.5 -4.1 -136.1 -0.7 -138.6 3.35 -138.6 6.85 -138.6 8.3 -135.35 9.15 -133.5 9.15 -131.3 9.15 -127.05 5.95 -122.5 2.7 -117.95 -1.95 -115.65 L-1.7 -116.35 Q4.8 -120.1 7.35 -125.85 8.7 -128.85 8.7 -131.7 8.7 -134.05 7.6 -135.8 6.1 -138.15 3.05 -138.15 -1.9 -138.15 -6.4 -133.05 -11.35 -127.5 -11.05 -120.15 L-11.55 -119.8 M-2.85 -115.25 L-4.2 -114.75 -3.85 -115.35 -3.65 -115.45 -2.85 -115.25 M-6.25 -114.45 L-7.4 -114.55 -7.15 -115.0 -6.8 -114.95 -6.25 -114.45 M-9.75 -115.55 L-9.85 -115.65 -9.65 -115.7 -9.75 -115.55" fill="#999999" fill-rule="evenodd" stroke="none"/>
    <path d="M-2.0 -117.3 Q3.35 -120.55 5.7 -124.55 7.55 -127.8 7.55 -131.75 7.55 -134.05 6.3 -135.5 4.95 -137.1 2.55 -137.1 -1.45 -137.1 -5.65 -132.5 -10.5 -127.15 -10.05 -120.1 L-11.05 -120.15 Q-11.35 -127.5 -6.4 -133.05 -1.9 -138.15 3.05 -138.15 6.1 -138.15 7.6 -135.8 8.7 -134.05 8.7 -131.7 8.7 -128.85 7.35 -125.85 4.8 -120.1 -1.7 -116.35 L-2.0 -117.3 M-7.0 -115.3 L-6.8 -114.95 -7.15 -115.0 -7.0 -115.3" fill="#ffffff" fill-rule="evenodd" stroke="none"/>
    <path d="M-10.7 -116.25 L-10.9 -116.45 -11.2 -117.05 -11.25 -117.3 Q-11.25 -117.8 -10.9 -118.15 -10.6 -118.5 -10.1 -118.5 -9.6 -118.5 -9.25 -118.15 -8.95 -117.8 -8.95 -117.3 -8.95 -116.8 -9.25 -116.45 -9.6 -116.1 -10.1 -116.1 L-10.7 -116.25 M-6.25 -116.75 Q-5.9 -117.1 -5.4 -117.1 -4.9 -117.1 -4.55 -116.75 -4.2 -116.4 -4.2 -115.9 -4.2 -115.4 -4.55 -115.05 -4.9 -114.7 -5.4 -114.7 -5.9 -114.7 -6.25 -115.05 L-6.6 -115.9 -6.25 -116.75 M-2.3 -117.0 L-2.05 -116.45 Q-2.05 -116.1 -2.3 -115.85 L-2.9 -115.65 -3.5 -115.85 -3.75 -116.45 -3.5 -117.0 -2.9 -117.25 -2.3 -117.0 M-11.25 -119.6 L-10.4 -119.7 -10.0 -119.6 -11.3 -118.4 -11.4 -119.35 -11.25 -119.6" fill="#c44283" fill-rule="evenodd" stroke="none"/>
    <path d="M-8.05 -117.0 L-6.45 -117.2 -6.9 -116.65 -8.65 -116.45 -11.6 -111.25 -9.15 -111.25 -11.6 -104.7 -6.0 -112.8 -8.8 -113.0 -8.15 -114.15 -7.05 -116.25 -7.0 -115.3 -7.15 -115.0 -7.4 -114.55 -8.1 -113.3 -5.35 -113.05 Q-5.45 -112.55 -8.6 -108.35 -11.75 -104.15 -12.15 -104.25 L-9.75 -110.9 -12.3 -110.9 -9.75 -115.55 -9.65 -115.7 -8.5 -116.95 -8.05 -117.0" fill="#2c6559" fill-rule="evenodd" stroke="none"/>
    <path d="M-6.9 -116.65 L-7.05 -116.25 -8.15 -114.15 -8.8 -113.0 -6.0 -112.8 -11.6 -104.7 -9.15 -111.25 -11.6 -111.25 -8.65 -116.45 -6.9 -116.65" fill="#a0d6cb" fill-rule="evenodd" stroke="none"/>
  </g>
</svg>
