<?xml version="1.0" encoding="UTF-8" standalone="no"?>
<svg xmlns:ffdec="https://www.free-decompiler.com/flash" xmlns:xlink="http://www.w3.org/1999/xlink" ffdec:objectType="shape" height="103.55px" width="64.4px" xmlns="http://www.w3.org/2000/svg">
  <g transform="matrix(1.0, 0.0, 0.0, 1.0, -1.15, -3.35)">
    <path d="M22.0 17.1 Q20.55 16.75 19.45 15.9 17.75 14.6 17.75 12.85 L19.15 9.55 19.25 9.1 19.35 8.75 19.45 8.45 19.95 7.4 20.15 7.05 20.8 6.25 Q21.55 5.5 22.4 5.4 L22.95 5.4 Q24.1 5.55 26.15 4.45 28.05 3.35 29.05 3.35 L29.8 3.6 30.2 3.85 30.85 9.95 Q30.85 12.5 29.0 14.7 26.9 17.25 23.7 17.25 L22.5 17.05 22.0 17.1 M29.25 8.7 Q28.85 5.25 28.55 4.9 19.3 11.0 19.3 13.2 L20.1 14.05 22.15 15.6 26.0 15.25 27.25 14.0 28.55 12.45 Q29.25 9.95 29.25 8.7 M9.6 23.1 Q9.6 23.45 10.2 23.45 10.45 23.45 11.2 26.75 12.1 30.6 12.1 33.6 12.1 38.25 10.0 41.55 L3.0 51.35 2.8 51.55 2.35 52.1 1.4 47.7 1.2 46.1 Q0.8 42.9 3.9 34.5 L4.65 32.5 9.7 22.7 9.6 23.1 M10.05 37.4 Q12.05 37.35 12.05 34.55 12.05 32.4 10.55 32.35 L10.45 31.2 9.55 27.15 9.35 26.45 Q7.45 35.3 6.3 41.3 L5.3 46.1 7.8 42.3 8.75 40.55 Q9.55 39.25 10.05 37.4 M20.0 40.25 L21.7 40.65 23.35 41.05 Q24.1 41.05 24.5 42.45 L25.8 46.2 28.15 49.65 Q30.0 52.3 30.0 53.3 30.0 58.2 28.75 60.4 27.1 63.25 22.7 63.25 L19.4 62.55 Q17.2 61.8 17.2 61.2 L15.85 59.2 Q14.4 57.15 14.0 55.55 L13.25 52.05 16.0 43.2 Q16.95 40.25 20.0 40.25 M26.1 61.0 Q27.6 59.55 27.8 58.9 28.45 56.0 26.2 50.65 L26.5 50.35 Q26.9 49.9 26.9 49.25 26.9 46.9 25.05 46.8 L24.4 46.85 Q21.9 42.15 20.05 41.75 L17.65 42.8 15.95 45.95 Q14.75 48.4 14.75 51.45 14.75 52.45 15.45 55.2 L15.75 56.35 Q17.2 59.1 18.15 60.05 L20.0 61.15 22.9 61.3 26.1 61.0 M38.7 57.95 L38.75 57.5 Q39.45 57.5 40.25 57.85 L40.45 57.9 41.0 58.15 42.9 58.6 43.65 58.25 45.1 57.55 45.6 57.3 45.85 57.2 46.45 56.95 47.95 56.5 49.15 56.4 50.2 56.65 57.5 59.55 Q55.2 62.4 51.5 63.35 L50.8 63.1 Q49.4 62.75 49.0 63.7 L47.65 63.75 Q45.5 63.75 42.95 62.35 L40.65 60.9 Q40.05 60.9 39.55 59.95 L39.2 59.0 38.7 57.95 M20.05 75.85 L17.6 76.45 16.45 77.05 Q15.15 77.85 13.35 80.3 L12.45 82.3 11.95 83.65 Q11.95 88.6 18.15 92.3 21.6 94.3 29.95 97.55 29.05 97.9 29.05 99.6 L29.25 100.9 Q29.8 102.35 31.5 102.35 32.8 102.35 32.8 100.65 32.8 99.2 32.35 98.45 L37.1 100.15 36.4 97.65 35.05 94.6 33.1 91.45 31.85 87.85 30.55 84.5 Q30.15 83.3 25.5 77.95 L22.4 76.7 20.05 75.85 M20.0 74.35 Q26.45 74.35 31.05 82.55 33.4 86.65 34.55 91.0 L38.65 99.0 Q40.6 102.9 42.8 106.05 L43.25 106.7 41.9 106.75 41.8 106.75 41.45 106.6 40.25 106.1 39.4 105.6 35.8 106.8 Q28.0 106.8 17.8 100.5 8.15 94.55 8.15 91.05 8.15 86.45 10.25 81.65 13.5 74.35 20.0 74.35 M51.4 61.75 L50.95 61.65 47.55 60.8 Q44.2 60.2 42.8 60.85 44.25 61.5 47.7 62.25 L51.4 61.75 M49.85 79.15 L49.85 78.6 Q49.8 76.7 50.4 76.7 50.9 76.7 50.85 75.15 50.8 73.55 51.3 73.55 L53.45 71.35 Q56.0 69.1 58.35 69.1 61.95 69.1 63.9 71.7 65.55 73.9 65.55 77.25 65.55 78.75 64.2 82.55 62.8 86.5 62.6 91.65 L59.3 92.0 Q55.15 92.0 52.65 89.3 50.8 87.3 50.25 84.1 51.2 83.9 51.5 83.1 L51.55 81.75 Q51.55 79.3 49.85 79.15 M56.3 90.0 Q59.5 90.7 61.15 87.95 62.95 84.9 62.95 77.05 62.95 73.45 61.8 72.05 60.8 70.8 58.2 70.55 L56.25 70.85 55.1 71.95 Q53.95 72.85 53.3 73.0 52.6 74.5 51.85 76.9 L51.65 80.35 51.85 83.3 Q51.75 83.5 53.05 87.35 L54.35 88.45 56.3 90.0" fill="#954a00" fill-rule="evenodd" stroke="none"/>
    <path d="M29.25 8.7 Q28.0 9.25 25.75 9.4 26.2 11.2 25.55 12.35 L25.2 12.9 Q24.85 13.05 24.65 13.3 L24.4 13.75 22.15 15.6 20.1 14.05 19.3 13.2 Q19.3 11.0 28.55 4.9 28.85 5.25 29.25 8.7 M10.3 32.35 L9.9 32.4 Q7.75 32.75 7.75 35.15 L7.85 36.3 Q8.2 37.2 9.4 37.35 L8.75 40.55 7.8 42.3 5.3 46.1 6.3 41.3 Q7.45 35.3 9.35 26.45 L9.55 27.15 10.45 31.2 10.3 32.35 M27.8 58.9 Q24.05 53.6 21.75 47.75 20.2 43.65 20.05 41.75 21.9 42.15 24.4 46.85 23.15 47.15 23.15 48.95 L23.25 49.85 Q23.65 50.85 25.25 50.85 L26.2 50.65 Q28.45 56.0 27.8 58.9 M35.05 94.6 L36.4 97.65 37.1 100.15 32.35 98.45 Q31.85 97.6 30.95 97.45 L29.95 97.55 Q21.6 94.3 18.15 92.3 11.95 88.6 11.95 83.65 L12.45 82.3 13.35 80.3 15.15 83.8 Q16.75 87.05 18.2 89.1 23.2 96.05 30.95 96.05 L32.55 95.55 35.05 94.6 M51.4 61.75 L47.7 62.25 Q44.25 61.5 42.8 60.85 44.2 60.2 47.55 60.8 L50.95 61.65 51.4 61.75 M56.25 70.85 L58.2 70.55 Q60.8 70.8 61.8 72.05 62.95 73.45 62.95 77.05 62.95 84.9 61.15 87.95 59.5 90.7 56.3 90.0 L60.85 80.85 60.75 79.6 56.25 70.85" fill="#bb5e00" fill-rule="evenodd" stroke="none"/>
    <path d="M25.2 12.9 L25.55 12.35 Q26.2 11.2 25.75 9.4 28.0 9.25 29.25 8.7 29.25 9.95 28.55 12.45 L27.6 12.45 25.85 12.65 25.2 12.9 M22.15 15.6 L24.4 13.75 24.45 14.15 Q24.65 14.6 26.0 15.25 L22.15 15.6 M10.55 32.35 L10.3 32.35 10.45 31.2 10.55 32.35 M9.4 37.35 L10.0 37.4 10.05 37.4 Q9.55 39.25 8.75 40.55 L9.4 37.35 M26.1 61.0 L21.25 56.45 Q20.5 52.5 19.3 50.65 18.35 49.15 18.35 48.3 L18.75 46.95 19.1 45.55 Q19.1 44.95 18.4 43.8 L17.65 42.8 20.05 41.75 Q20.2 43.65 21.75 47.75 24.05 53.6 27.8 58.9 27.6 59.55 26.1 61.0 M33.1 91.45 L35.05 94.6 32.55 95.55 30.95 96.05 Q23.2 96.05 18.2 89.1 16.75 87.05 15.15 83.8 L13.35 80.3 Q15.15 77.85 16.45 77.05 L17.6 76.45 Q17.9 78.65 22.4 83.85 21.5 84.3 21.5 85.5 L21.6 86.55 Q21.75 86.9 22.75 87.5 L24.0 87.5 Q24.8 87.25 25.2 86.85 30.45 92.2 33.1 91.45 M56.3 90.0 L54.35 88.45 53.05 87.35 54.9 81.3 Q54.9 79.6 54.2 76.45 L53.3 73.0 Q53.95 72.85 55.1 71.95 L56.25 70.85 60.75 79.6 60.85 80.85 56.3 90.0" fill="#e97300" fill-rule="evenodd" stroke="none"/>
    <path d="M24.4 13.75 L24.65 13.3 Q24.85 13.05 25.2 12.9 L25.85 12.65 27.6 12.45 28.55 12.45 27.25 14.0 26.0 15.25 Q24.65 14.6 24.45 14.15 L24.4 13.75 M17.65 42.8 L18.4 43.8 Q19.1 44.95 19.1 45.55 L18.75 46.95 18.35 48.3 Q18.35 49.15 19.3 50.65 20.5 52.5 21.25 56.45 L26.1 61.0 22.9 61.3 20.0 61.15 Q20.0 60.7 19.45 60.4 18.9 60.05 18.15 60.05 17.2 59.1 15.75 56.35 L16.35 57.0 Q16.7 57.35 17.35 57.35 18.2 57.35 18.7 56.8 19.25 56.25 19.25 55.3 L19.15 54.35 19.0 53.85 18.2 53.4 17.35 53.25 15.45 55.2 Q14.75 52.45 14.75 51.45 14.75 48.4 15.95 45.95 L17.65 42.8 M17.6 76.45 L20.05 75.85 Q19.8 77.05 20.3 79.4 20.75 81.75 21.8 82.7 22.85 83.6 23.9 82.55 24.95 81.5 25.5 77.95 30.15 83.3 30.55 84.5 28.7 84.95 28.7 86.5 28.7 88.35 30.1 88.35 31.1 88.35 31.85 87.85 L33.1 91.45 Q30.45 92.2 25.2 86.85 L25.55 85.9 Q25.55 83.5 23.55 83.55 L22.4 83.85 Q17.9 78.65 17.6 76.45 M53.05 87.35 Q51.75 83.5 51.85 83.3 52.15 80.8 51.85 76.9 52.6 74.5 53.3 73.0 L54.2 76.45 Q54.9 79.6 54.9 81.3 L53.05 87.35" fill="#ff8d1c" fill-rule="evenodd" stroke="none"/>
    <path d="M15.45 55.2 L17.35 53.25 18.2 53.4 19.0 53.85 19.15 54.35 19.25 55.3 Q19.25 56.25 18.7 56.8 18.2 57.35 17.35 57.35 16.7 57.35 16.35 57.0 L15.75 56.35 15.45 55.2 M18.15 60.05 Q18.9 60.05 19.45 60.4 20.0 60.7 20.0 61.15 L18.15 60.05 M20.05 75.85 L22.4 76.7 25.5 77.95 Q24.95 81.5 23.9 82.55 22.85 83.6 21.8 82.7 20.75 81.75 20.3 79.4 19.8 77.05 20.05 75.85 M30.55 84.5 L31.85 87.85 Q31.1 88.35 30.1 88.35 28.7 88.35 28.7 86.5 28.7 84.95 30.55 84.5 M51.85 83.3 L51.65 80.35 51.85 76.9 Q52.15 80.8 51.85 83.3" fill="#ffb366" fill-rule="evenodd" stroke="none"/>
    <path d="M23.7 17.25 L23.65 17.25 22.0 17.1 22.5 17.05 23.7 17.25 M10.3 32.35 L10.55 32.35 Q12.05 32.4 12.05 34.55 12.05 37.35 10.05 37.4 L10.0 37.4 9.4 37.35 Q8.2 37.2 7.85 36.3 L7.75 35.15 Q7.75 32.75 9.9 32.4 L10.3 32.35 M24.4 46.85 L25.05 46.8 Q26.9 46.9 26.9 49.25 26.9 49.9 26.5 50.35 L26.2 50.65 25.25 50.85 Q23.65 50.85 23.25 49.85 L23.15 48.95 Q23.15 47.15 24.4 46.85 M38.75 57.5 L38.7 57.95 38.5 57.5 38.75 57.5 M49.0 63.7 Q49.4 62.75 50.8 63.1 L51.5 63.35 49.0 63.7 M32.35 98.45 Q32.8 99.2 32.8 100.65 32.8 102.35 31.5 102.35 29.8 102.35 29.25 100.9 L29.05 99.6 Q29.05 97.9 29.95 97.55 L30.95 97.45 Q31.85 97.6 32.35 98.45 M22.4 83.85 L23.55 83.55 Q25.55 83.5 25.55 85.9 L25.2 86.85 Q24.8 87.25 24.0 87.5 L22.75 87.5 Q21.75 86.9 21.6 86.55 L21.5 85.5 Q21.5 84.3 22.4 83.85 M50.25 84.1 Q50.0 82.75 50.0 81.2 L49.85 79.15 Q51.55 79.3 51.55 81.75 L51.5 83.1 Q51.2 83.9 50.25 84.1" fill="#ba3900" fill-rule="evenodd" stroke="none"/>
  </g>
</svg>
