<?xml version="1.0" encoding="UTF-8" standalone="no"?>
<svg xmlns:ffdec="https://www.free-decompiler.com/flash" xmlns:xlink="http://www.w3.org/1999/xlink" ffdec:objectType="shape" height="25.9px" width="40.25px" xmlns="http://www.w3.org/2000/svg">
  <g transform="matrix(1.0, 0.0, 0.0, 1.0, 18.7, 17.45)">
    <path d="M15.35 -13.9 L10.2 -15.0 5.6 -15.65 1.75 -16.0 -2.55 -16.3 -8.05 -16.2 -11.55 -15.7 -13.3 -14.95 -13.6 -13.8 -11.9 -14.2 -8.4 -14.65 -2.65 -14.65 1.8 -14.45 5.6 -14.15 10.1 -13.45 15.3 -12.45 19.45 -10.7 Q18.85 -12.1 18.3 -12.55 17.65 -13.1 15.35 -13.9 M6.6 -13.0 L0.45 -13.6 -4.05 -13.75 -7.95 -13.65 Q-11.05 -13.85 -13.9 -12.6 L-14.9 -12.8 Q-14.15 -15.65 -12.45 -16.4 L-10.7 -17.0 -3.8 -17.35 3.3 -16.9 Q14.3 -15.9 17.85 -13.8 20.15 -12.5 20.55 -9.15 L19.6 -9.5 19.2 -9.65 16.45 -10.95 14.7 -11.55 9.4 -12.6 6.6 -13.0 M-0.35 1.8 L5.85 2.4 9.55 2.4 14.75 2.3 20.25 1.05 21.15 0.6 21.55 6.0 Q21.15 7.65 16.05 8.25 10.6 8.75 1.05 7.9 L-9.9 6.45 -15.85 5.3 -17.3 4.3 Q-18.45 3.8 -18.7 2.1 L-17.6 -2.3 -16.65 -2.05 Q-14.3 -0.4 -9.75 0.3 L-5.55 1.15 -0.35 1.8 M15.9 3.2 L11.15 3.4 6.6 3.35 -0.75 2.8 -5.3 2.15 -9.75 1.35 -13.85 0.2 Q-16.25 -0.65 -16.9 -1.0 -17.6 1.25 -17.7 2.25 -17.75 2.8 -15.9 3.8 -13.65 4.95 -10.85 5.2 L-5.65 6.2 -1.3 6.7 6.55 7.4 10.95 7.45 15.75 7.15 19.35 6.85 Q20.7 6.3 20.7 5.5 20.65 4.65 19.25 3.95 17.75 3.25 15.9 3.2" fill="#03152e" fill-rule="evenodd" stroke="none"/>
    <path d="M14.7 -11.55 L16.45 -10.95 19.2 -9.65 19.6 -9.5 20.25 1.05 14.75 2.3 14.7 -11.55 M-13.9 -12.6 Q-11.05 -13.85 -7.95 -13.65 L-9.75 0.3 Q-14.3 -0.4 -16.65 -2.05 L-13.9 -12.6" fill="#bdbdbd" fill-rule="evenodd" stroke="none"/>
    <path d="M15.3 -12.45 L15.35 -13.9 Q17.65 -13.1 18.3 -12.55 18.85 -12.1 19.45 -10.7 L15.3 -12.45 M-8.4 -14.65 L-11.9 -14.2 -13.6 -13.8 -13.3 -14.95 -11.55 -15.7 -8.05 -16.2 -8.4 -14.65 M15.9 3.2 Q17.75 3.25 19.25 3.95 20.65 4.65 20.7 5.5 20.7 6.3 19.35 6.85 L15.75 7.15 15.9 3.2 M-10.85 5.2 Q-13.65 4.95 -15.9 3.8 -17.75 2.8 -17.7 2.25 -17.6 1.25 -16.9 -1.0 -16.25 -0.65 -13.85 0.2 L-9.75 1.35 -10.85 5.2" fill="#093777" fill-rule="evenodd" stroke="none"/>
    <path d="M10.2 -15.0 L15.35 -13.9 15.3 -12.45 10.1 -13.45 10.2 -15.0 M-2.65 -14.65 L-8.4 -14.65 -8.05 -16.2 -2.55 -16.3 -2.65 -14.65 M11.15 3.4 L15.9 3.2 15.75 7.15 10.95 7.45 11.15 3.4 M-5.65 6.2 L-10.85 5.2 -9.75 1.35 -5.3 2.15 -5.65 6.2" fill="#0c4595" fill-rule="evenodd" stroke="none"/>
    <path d="M6.6 -13.0 L9.4 -12.6 Q9.8 -11.3 9.75 -6.45 L9.55 2.4 5.85 2.4 Q6.45 -9.0 6.8 -12.9 L6.6 -13.0 M-4.05 -13.75 L0.45 -13.6 -0.35 1.8 -5.55 1.15 -4.05 -13.75" fill="#eaeaea" fill-rule="evenodd" stroke="none"/>
    <path d="M0.45 -13.6 L6.6 -13.0 6.8 -12.9 Q6.45 -9.0 5.85 2.4 L-0.35 1.8 0.45 -13.6" fill="#fafafa" fill-rule="evenodd" stroke="none"/>
    <path d="M10.2 -15.0 L10.1 -13.45 5.6 -14.15 5.6 -15.65 10.2 -15.0 M1.75 -16.0 L1.8 -14.45 -2.65 -14.65 -2.55 -16.3 1.75 -16.0 M10.95 7.45 L6.55 7.4 6.6 3.35 11.15 3.4 10.95 7.45 M-1.3 6.7 L-5.65 6.2 -5.3 2.15 -0.75 2.8 -1.3 6.7" fill="#1055b6" fill-rule="evenodd" stroke="none"/>
    <path d="M5.6 -14.15 L1.8 -14.45 1.75 -16.0 5.6 -15.65 5.6 -14.15 M6.55 7.4 L-1.3 6.7 -0.75 2.8 6.6 3.35 6.55 7.4" fill="#1965d2" fill-rule="evenodd" stroke="none"/>
    <path d="M19.6 -9.5 L20.55 -9.15 21.15 0.6 20.25 1.05 19.6 -9.5 M-14.9 -12.8 L-13.9 -12.6 -16.65 -2.05 -17.6 -2.3 -14.9 -12.8" fill="#666666" fill-rule="evenodd" stroke="none"/>
    <path d="M9.4 -12.6 L14.7 -11.55 14.75 2.3 9.55 2.4 9.75 -6.45 Q9.8 -11.3 9.4 -12.6 M-7.95 -13.65 L-4.05 -13.75 -5.55 1.15 -9.75 0.3 -7.95 -13.65" fill="#dbdbdb" fill-rule="evenodd" stroke="none"/>
  </g>
</svg>
