<?xml version="1.0" encoding="UTF-8" standalone="no"?>
<svg xmlns:ffdec="https://www.free-decompiler.com/flash" xmlns:xlink="http://www.w3.org/1999/xlink" ffdec:objectType="shape" height="52.5px" width="20.5px" xmlns="http://www.w3.org/2000/svg">
  <g transform="matrix(1.0, 0.0, 0.0, 1.0, 8.0, 2.0)">
    <path d="M2.35 36.4 Q0.4 21.15 -0.85 7.3 -0.85 6.0 -0.45 4.6 -0.05 3.3 0.55 2.5 2.95 3.7 3.6 11.7 L3.9 21.5 5.35 36.15 2.35 36.4 M6.1 37.95 L7.45 38.1 7.7 43.65 7.1 44.3 Q6.55 43.95 6.4 43.95 L6.1 37.95 M5.3 37.95 L5.35 41.65 Q5.2 43.55 4.9 43.8 4.15 43.0 4.15 42.7 L3.95 37.95 5.3 37.95 M2.15 38.15 Q2.45 43.1 2.15 43.8 2.6 43.95 1.6 43.95 L0.85 43.85 0.75 43.7 0.3 38.55 2.15 38.15" fill="#9b5cbc" fill-rule="evenodd" stroke="none"/>
    <path d="M3.05 -2.0 Q3.85 2.35 6.25 26.6 L7.2 36.35 5.35 36.15 3.9 21.5 3.6 11.7 Q2.95 3.7 0.55 2.5 -0.05 3.3 -0.45 4.6 -0.85 6.0 -0.85 7.3 0.4 21.15 2.35 36.4 0.9 36.65 -0.65 37.25 L-1.05 34.5 Q-1.9 28.05 -4.0 -1.1 0.7 -2.15 3.05 -2.0 M7.45 38.1 L8.6 38.3 8.9 45.3 4.9 45.0 0.1 45.35 -0.9 39.0 0.3 38.55 0.75 43.7 0.85 43.85 1.6 43.95 Q2.6 43.95 2.15 43.8 2.45 43.1 2.15 38.15 L3.95 37.95 4.15 42.7 Q4.15 43.0 4.9 43.8 5.2 43.55 5.35 41.65 L5.3 37.95 6.1 37.95 6.4 43.95 Q6.55 43.95 7.1 44.3 L7.7 43.65 7.45 38.1" fill="#8d49b1" fill-rule="evenodd" stroke="none"/>
    <path d="M4.85 -1.7 L4.85 -1.6 7.7 26.1 8.8 36.85 8.65 36.8 7.2 36.35 6.25 26.6 Q3.85 2.35 3.05 -2.0 L4.85 -1.7 M10.0 38.9 L10.85 47.05 Q9.25 46.35 5.3 46.55 1.05 46.75 -1.5 47.95 L-2.3 39.85 -2.2 39.75 Q-1.25 39.0 -0.9 39.0 L0.1 45.35 4.9 45.0 8.9 45.3 8.6 38.3 10.0 38.9 M-1.75 37.7 L-6.55 0.15 -6.85 0.15 -4.0 -1.1 Q-1.9 28.05 -1.05 34.5 L-0.65 37.25 -1.75 37.7" fill="#763e95" fill-rule="evenodd" stroke="none"/>
    <path d="M7.2 36.35 L8.65 36.8 10.0 38.9 8.6 38.3 7.45 38.1 6.1 37.95 5.3 37.95 3.95 37.95 2.15 38.15 0.3 38.55 -0.9 39.0 Q-1.25 39.0 -2.2 39.75 L-2.0 38.6 -1.75 37.8 -1.75 37.7 -0.65 37.25 Q0.9 36.65 2.35 36.4 L5.35 36.15 7.2 36.35" fill="#65347e" fill-rule="evenodd" stroke="none"/>
    <path d="M8.65 36.8 L8.8 36.85 7.7 26.1 4.85 -1.6 4.85 -1.7 Q6.35 -1.35 6.55 -0.8 L10.35 37.5 10.45 37.55 Q11.15 37.95 11.55 38.7 L12.5 48.7 12.2 49.45 11.65 49.55 Q11.25 48.95 10.45 48.55 9.0 47.85 5.45 47.85 2.2 47.85 -0.25 49.15 -1.45 49.8 -2.05 50.5 -2.65 50.4 -2.85 48.9 L-3.8 40.0 -3.35 39.1 -3.2 38.9 -8.0 1.35 Q-7.85 0.8 -6.85 0.15 L-6.55 0.15 -1.75 37.7 -1.75 37.8 -2.0 38.6 -2.2 39.75 -2.3 39.85 -1.5 47.95 Q1.05 46.75 5.3 46.55 9.25 46.35 10.85 47.05 L10.0 38.9 8.65 36.8" fill="#3c1f4b" fill-rule="evenodd" stroke="none"/>
  </g>
</svg>
