<?xml version="1.0" encoding="UTF-8" standalone="no"?>
<svg xmlns:ffdec="https://www.free-decompiler.com/flash" xmlns:xlink="http://www.w3.org/1999/xlink" ffdec:objectType="shape" height="25.5px" width="49.0px" xmlns="http://www.w3.org/2000/svg">
  <g transform="matrix(1.0, 0.0, 0.0, 1.0, 1.0, 1.0)">
    <path d="M2.5 19.55 L5.05 20.0 41.95 20.0 42.95 19.95 42.95 22.0 2.5 22.0 2.5 19.55" fill="#9e4912" fill-rule="evenodd" stroke="none"/>
    <path d="M47.0 15.25 L47.0 18.5 Q47.0 20.75 46.0 22.0 44.95 23.2 42.95 23.45 L41.95 23.5 5.05 23.5 2.5 23.05 Q1.6 22.7 1.05 22.0 0.0 20.75 0.0 18.5 L0.0 15.25 Q0.1 18.55 2.5 19.55 L2.5 22.0 42.95 22.0 42.95 19.95 Q46.9 19.5 47.0 15.25" fill="#77370e" fill-rule="evenodd" stroke="none"/>
    <path d="M47.0 9.5 L33.45 9.5 23.6 3.8 23.6 9.5 22.55 9.5 12.6 3.8 12.6 9.5 0.0 9.5 0.0 5.0 0.05 4.5 Q0.25 0.0 5.05 0.0 L41.95 0.0 Q46.75 0.0 47.0 4.5 L47.0 5.0 47.0 9.5 M31.9 11.5 L47.0 11.5 47.0 13.0 29.25 13.0 31.9 11.5 M0.0 13.0 L0.0 11.5 12.6 11.5 12.6 13.0 0.0 13.0 M21.4 11.5 L23.6 11.5 23.6 13.0 18.6 13.0 21.4 11.5" fill="#e9a101" fill-rule="evenodd" stroke="none"/>
    <path d="M47.0 9.5 L47.0 11.5 31.9 11.5 34.4 10.05 33.45 9.5 47.0 9.5 M47.0 13.0 L47.0 15.25 Q46.9 19.5 42.95 19.95 L41.95 20.0 5.05 20.0 2.5 19.55 Q0.1 18.55 0.0 15.25 L0.0 13.0 12.6 13.0 12.6 16.25 18.6 13.0 23.6 13.0 23.6 16.25 Q26.45 14.65 29.25 13.0 L47.0 13.0 M0.0 11.5 L0.0 9.5 12.6 9.5 12.6 11.5 0.0 11.5 M21.4 11.5 L23.6 10.3 23.6 11.5 21.4 11.5 M22.55 9.5 L23.6 9.5 23.6 10.1 22.55 9.5" fill="#eeaa11" fill-rule="evenodd" stroke="none"/>
    <path d="M33.45 9.5 L34.4 10.05 31.9 11.5 29.25 13.0 Q26.45 14.65 23.6 16.25 L23.6 13.0 23.6 11.5 23.6 10.3 21.4 11.5 18.6 13.0 12.6 16.25 12.6 13.0 12.6 11.5 12.6 9.5 12.6 3.8 22.55 9.5 23.6 10.1 23.6 9.5 23.6 3.8 33.45 9.5" fill="#fffa40" fill-rule="evenodd" stroke="none"/>
    <path d="M5.05 -1.0 L41.95 -1.0 Q47.75 -1.0 48.0 4.45 L48.0 4.5 48.0 5.0 48.0 18.5 Q48.0 21.15 46.8 22.65 L46.75 22.65 Q45.5 24.15 43.1 24.45 L43.05 24.45 41.95 24.5 5.05 24.5 2.1 24.0 2.15 24.0 Q1.0 23.55 0.3 22.65 -1.0 21.15 -1.0 18.5 L-1.0 5.0 -0.95 4.45 Q-0.7 -1.0 5.05 -1.0 M47.0 11.5 L47.0 9.5 47.0 5.0 47.0 4.5 Q46.75 0.0 41.95 0.0 L5.05 0.0 Q0.25 0.0 0.05 4.5 L0.0 5.0 0.0 9.5 0.0 11.5 0.0 13.0 0.0 15.25 0.0 18.5 Q0.0 20.75 1.05 22.0 1.6 22.7 2.5 23.05 L5.05 23.5 41.95 23.5 42.95 23.45 Q44.95 23.2 46.0 22.0 47.0 20.75 47.0 18.5 L47.0 15.25 47.0 13.0 47.0 11.5" fill="#000000" fill-rule="evenodd" stroke="none"/>
  </g>
</svg>
