<?xml version="1.0" encoding="UTF-8" standalone="no"?>
<svg xmlns:ffdec="https://www.free-decompiler.com/flash" xmlns:xlink="http://www.w3.org/1999/xlink" ffdec:objectType="shape" height="105.1px" width="64.0px" xmlns="http://www.w3.org/2000/svg">
  <g transform="matrix(1.0, 0.0, 0.0, 1.0, -1.55, -1.7)">
    <path d="M23.3 47.9 Q22.8 46.05 22.8 42.2 22.8 41.25 24.25 35.25 L24.75 33.65 24.9 32.4 24.5 30.95 24.1 29.5 Q24.1 28.5 25.6 27.2 27.45 25.6 28.2 23.75 29.25 21.05 29.6 20.65 30.5 19.55 33.1 19.3 L33.8 19.05 34.4 18.6 Q35.75 17.75 37.75 17.75 L39.85 17.85 Q41.65 17.45 42.85 15.8 44.25 13.9 44.25 11.2 44.25 7.9 41.95 5.8 39.7 3.8 36.35 3.8 26.2 3.8 22.05 9.3 L17.65 15.5 Q13.95 20.55 12.4 21.9 10.3 23.7 9.3 26.5 8.65 28.3 8.15 31.8 L6.45 40.35 Q5.15 46.4 5.15 47.15 L5.45 48.45 Q5.85 49.85 6.5 50.85 L5.5 54.45 6.4 56.5 Q7.15 58.3 7.1 59.0 6.95 61.05 7.45 63.1 L8.05 65.65 7.7 67.4 7.3 69.15 Q7.3 70.75 8.25 71.0 9.15 71.25 9.05 73.65 9.0 75.4 10.4 78.0 L11.9 80.85 11.95 83.65 Q12.1 85.85 13.3 87.85 L15.85 90.95 Q18.35 93.45 20.8 94.5 L29.45 97.9 Q29.05 98.45 29.05 99.6 L29.25 100.9 Q29.8 102.35 31.5 102.35 32.8 102.35 32.8 100.65 L32.6 99.0 35.3 99.75 42.1 100.6 43.75 100.25 46.85 98.75 48.7 98.7 51.15 98.65 Q53.85 98.4 58.15 92.1 62.95 85.1 62.95 78.7 L62.8 74.7 Q62.4 74.75 61.9 73.4 L60.6 68.75 Q59.7 65.85 57.9 64.65 55.45 63.0 50.1 61.3 45.45 59.85 44.15 59.85 41.9 61.55 41.4 61.55 40.15 61.55 35.6 59.65 30.35 57.45 28.5 55.4 L27.2 53.65 25.8 51.6 25.2 50.85 25.25 50.85 Q26.05 50.85 26.5 50.35 26.9 49.9 26.9 49.25 26.9 46.9 25.05 46.8 23.7 46.75 23.3 47.9 M38.75 57.6 Q42.2 58.9 42.8 58.9 L45.2 57.8 Q47.65 56.7 48.6 56.7 49.15 56.7 52.95 57.9 56.9 59.15 57.7 59.65 62.0 62.5 63.1 65.25 63.55 66.35 63.5 69.85 63.65 71.75 65.55 77.05 65.55 78.35 64.2 82.75 62.85 87.1 62.85 87.95 62.9 90.55 62.15 91.85 L58.5 97.05 Q55.4 101.6 52.6 103.55 50.95 104.7 50.0 104.7 L46.15 104.85 Q45.9 104.85 45.35 105.3 L44.85 105.7 43.9 106.45 42.8 106.7 39.4 105.6 Q36.55 106.8 35.8 106.8 L32.7 106.55 Q29.25 105.8 23.55 103.4 15.0 99.8 10.5 94.45 7.0 90.3 7.0 86.95 L7.35 83.4 5.25 81.1 Q3.15 79.1 3.15 78.0 3.8 72.05 3.55 71.15 L2.85 69.95 2.25 69.1 3.5 63.4 Q2.15 59.9 2.15 59.25 2.15 58.35 2.9 57.3 3.6 56.2 3.6 55.55 L2.6 52.8 Q1.55 50.25 1.55 47.35 1.55 38.8 6.75 28.05 8.8 23.85 13.9 15.75 14.7 14.45 16.8 13.35 L18.95 12.05 20.0 8.2 Q20.8 5.7 22.8 5.7 L23.8 6.0 Q24.7 6.0 27.0 4.2 27.9 3.55 31.55 2.65 35.35 1.7 37.55 1.7 41.3 1.7 43.3 3.7 L44.6 5.75 44.95 6.6 45.85 11.5 45.45 15.35 45.1 16.2 44.5 17.25 Q42.75 18.95 37.6 19.9 32.75 20.75 31.0 23.1 30.15 24.25 29.75 25.9 29.3 27.45 28.65 28.35 L27.5 29.4 26.25 30.75 Q25.6 32.6 24.85 35.55 24.1 38.55 24.1 39.35 24.1 39.95 24.6 40.45 L25.05 40.9 Q25.0 44.25 25.35 45.25 26.1 47.0 28.05 49.7 L30.85 53.3 Q31.8 54.45 34.4 55.7 L34.3 56.55 34.55 57.85 Q35.2 59.1 37.1 59.1 38.15 59.1 38.5 58.5 L38.75 57.6" fill="#954a00" fill-rule="evenodd" stroke="none"/>
    <path d="M29.45 97.9 L20.8 94.5 Q18.35 93.45 15.85 90.95 L13.3 87.85 Q12.1 85.85 11.95 83.65 L11.9 80.85 10.4 78.0 Q9.0 75.4 9.05 73.65 9.15 71.25 8.25 71.0 7.3 70.75 7.3 69.15 L7.7 67.4 8.05 65.65 7.45 63.1 Q6.95 61.05 7.1 59.0 7.15 58.3 6.4 56.5 L5.5 54.45 6.5 50.85 Q5.85 49.85 5.45 48.45 L5.15 47.15 Q5.15 46.4 6.45 40.35 L8.15 31.8 Q8.65 28.3 9.3 26.5 10.3 23.7 12.4 21.9 13.95 20.55 17.65 15.5 L22.05 9.3 Q26.2 3.8 36.35 3.8 39.7 3.8 41.95 5.8 44.25 7.9 44.25 11.2 44.25 13.9 42.85 15.8 41.65 17.45 39.85 17.85 L37.75 17.75 Q35.75 17.75 34.4 18.6 L33.8 19.05 33.1 19.3 Q30.5 19.55 29.6 20.65 29.25 21.05 28.2 23.75 27.45 25.6 25.6 27.2 24.1 28.5 24.1 29.5 L24.5 30.95 24.9 32.4 24.75 33.65 24.25 35.25 Q22.8 41.25 22.8 42.2 22.8 46.05 23.3 47.9 23.15 48.3 23.15 48.95 L23.25 49.85 Q23.65 50.85 25.2 50.85 L25.8 51.6 27.2 53.65 28.5 55.4 Q30.35 57.45 35.6 59.65 40.15 61.55 41.4 61.55 41.9 61.55 44.15 59.85 45.45 59.85 50.1 61.3 55.45 63.0 57.9 64.65 59.7 65.85 60.6 68.75 L61.9 73.4 Q62.4 74.75 62.8 74.7 L62.95 78.7 Q62.95 85.1 58.15 92.1 53.85 98.4 51.15 98.65 L48.7 98.7 46.85 98.75 43.75 100.25 42.1 100.6 35.3 99.75 32.6 99.0 Q32.15 97.7 30.95 97.45 29.9 97.25 29.45 97.9 M49.1 63.55 L48.0 63.5 Q44.7 63.5 43.3 64.45 L42.35 65.4 41.65 64.6 Q41.1 63.8 40.0 63.8 L35.3 64.25 Q33.95 64.0 28.45 59.5 26.5 57.9 23.4 51.85 20.0 45.1 20.0 41.15 20.0 40.3 20.9 38.0 L21.8 35.15 21.55 33.6 Q21.3 32.3 21.55 30.95 21.75 29.6 22.85 26.35 L24.25 22.8 Q30.1 16.0 37.2 14.75 40.05 14.25 40.7 13.75 41.9 12.9 41.9 10.1 41.9 4.75 37.6 4.75 33.3 4.75 31.3 7.1 29.35 9.4 25.75 9.4 26.4 12.15 24.05 14.05 L15.65 20.9 Q13.45 23.0 12.25 25.4 11.15 27.65 10.55 30.7 L10.25 32.35 9.9 32.4 Q7.75 32.75 7.75 35.15 L7.85 36.3 Q8.2 37.15 9.35 37.35 7.8 45.6 7.8 46.45 7.8 47.8 8.4 49.4 L9.0 50.95 Q9.0 51.75 8.2 53.1 7.35 54.4 7.35 55.35 7.35 57.0 9.25 60.5 11.15 64.05 11.15 65.35 L10.75 67.5 10.35 69.6 13.1 75.2 13.05 78.0 Q13.2 80.85 14.0 81.7 L15.0 82.55 16.45 84.15 16.55 85.85 Q16.7 87.55 17.0 87.9 L19.85 90.25 Q21.55 91.45 22.4 92.85 23.3 94.35 27.15 95.35 L30.95 96.05 33.0 95.25 Q35.05 94.45 36.05 94.45 L41.1 96.55 Q42.1 96.55 43.15 95.85 L44.25 95.1 46.4 95.5 48.5 95.85 Q49.05 95.85 49.25 95.4 L49.9 93.6 Q50.4 92.35 55.2 91.55 55.9 91.4 56.15 90.65 L56.55 88.8 Q57.0 86.95 59.0 84.05 60.85 81.4 60.85 80.95 60.85 79.25 59.7 77.95 L58.5 76.85 Q58.5 73.0 57.4 72.1 56.25 71.85 56.25 71.35 56.25 67.9 55.75 66.85 54.8 64.95 52.5 64.15 52.05 63.4 50.8 63.1 49.55 62.8 49.1 63.55" fill="#bb5e00" fill-rule="evenodd" stroke="none"/>
    <path d="M38.55 10.5 Q39.2 11.35 40.5 11.35 41.8 11.35 41.8 9.65 41.8 6.8 39.95 6.45 38.3 6.15 38.1 8.05 L37.75 7.65 Q36.8 6.75 35.45 6.75 34.1 6.75 33.2 7.65 32.25 8.5 32.25 9.7 32.25 10.9 33.2 11.8 34.1 12.65 35.45 12.65 36.8 12.65 37.75 11.8 L38.55 10.5 M10.25 32.35 L10.55 30.7 Q11.15 27.65 12.25 25.4 13.45 23.0 15.65 20.9 L24.05 14.05 Q26.4 12.15 25.75 9.4 29.35 9.4 31.3 7.1 33.3 4.75 37.6 4.75 41.9 4.75 41.9 10.1 41.9 12.9 40.7 13.75 40.05 14.25 37.2 14.75 30.1 16.0 24.25 22.8 L22.85 26.35 Q21.75 29.6 21.55 30.95 21.3 32.3 21.55 33.6 L21.8 35.15 20.9 38.0 Q20.0 40.3 20.0 41.15 20.0 45.1 23.4 51.85 26.5 57.9 28.45 59.5 33.95 64.0 35.3 64.25 L40.0 63.8 Q41.1 63.8 41.65 64.6 L42.35 65.4 43.3 64.45 Q44.7 63.5 48.0 63.5 L49.1 63.55 Q48.8 63.95 48.8 64.8 L49.05 65.85 Q49.55 66.9 50.85 66.9 51.8 66.9 52.35 66.3 52.75 65.8 52.75 65.15 L52.5 64.15 Q54.8 64.95 55.75 66.85 56.25 67.9 56.25 71.35 56.25 71.85 57.4 72.1 58.5 73.0 58.5 76.85 L59.7 77.95 Q60.85 79.25 60.85 80.95 60.85 81.4 59.0 84.05 57.0 86.95 56.55 88.8 L56.15 90.65 Q55.9 91.4 55.2 91.55 50.4 92.35 49.9 93.6 L49.25 95.4 Q49.05 95.85 48.5 95.85 L46.4 95.5 44.25 95.1 43.15 95.85 Q42.1 96.55 41.1 96.55 L36.05 94.45 Q35.05 94.45 33.0 95.25 L30.95 96.05 27.15 95.35 Q23.3 94.35 22.4 92.85 21.55 91.45 19.85 90.25 L17.0 87.9 Q16.7 87.55 16.55 85.85 L16.45 84.15 15.0 82.55 14.0 81.7 Q13.2 80.85 13.05 78.0 L13.1 75.2 10.35 69.6 10.75 67.5 11.15 65.35 Q11.15 64.05 9.25 60.5 7.35 57.0 7.35 55.35 7.35 54.4 8.2 53.1 9.0 51.75 9.0 50.95 L8.4 49.4 Q7.8 47.8 7.8 46.45 7.8 45.6 9.35 37.35 L10.0 37.4 Q12.05 37.4 12.05 34.55 12.05 32.2 10.25 32.35 M25.7 14.15 Q25.7 15.0 26.25 15.6 26.8 16.15 27.55 16.15 28.3 16.15 28.85 15.6 29.4 15.0 29.4 14.15 29.4 13.3 28.85 12.75 28.3 12.15 27.55 12.15 26.8 12.15 26.25 12.75 25.7 13.3 25.7 14.15 M23.45 21.5 L24.5 20.65 Q24.9 20.0 24.9 19.35 24.9 17.05 22.5 17.05 20.75 17.05 20.25 18.4 19.35 18.5 18.7 19.25 17.85 20.1 17.85 21.35 17.85 22.6 18.7 23.5 19.5 24.35 20.65 24.35 21.8 24.35 22.65 23.5 23.4 22.65 23.45 21.5 M25.55 85.9 Q26.8 87.1 28.0 89.85 28.9 92.0 30.65 92.0 L33.05 91.45 34.6 90.9 36.95 91.75 Q38.85 92.55 39.65 92.55 L40.95 91.9 Q42.3 91.05 43.85 90.45 L45.65 90.5 47.45 90.85 Q51.65 90.85 53.7 85.95 L54.9 81.05 Q54.9 74.2 51.75 70.7 49.55 68.3 47.1 68.3 46.2 68.3 44.75 69.05 43.3 69.8 41.45 69.8 33.3 65.95 30.5 64.8 29.7 64.5 27.75 62.55 L21.3 56.45 Q21.0 55.95 21.1 55.15 L21.3 52.55 Q21.3 50.9 19.85 50.25 18.35 49.6 18.35 48.3 L18.75 46.9 19.1 45.45 Q16.95 41.65 16.95 40.95 L19.25 31.55 19.8 29.65 20.0 28.45 19.3 27.7 Q18.45 27.1 17.35 27.1 14.05 27.1 13.85 30.15 13.8 31.75 14.35 33.9 L13.75 36.4 Q13.2 39.15 13.15 40.8 L13.45 43.7 13.75 46.25 13.2 49.55 12.6 50.9 Q11.95 52.35 11.95 52.95 11.95 54.1 13.2 55.2 14.4 56.35 14.4 56.85 L14.05 58.6 13.65 60.3 Q13.65 61.75 14.25 62.7 L14.7 63.5 Q12.5 62.9 12.5 65.15 12.5 66.0 12.8 66.6 13.45 67.85 15.35 67.85 L15.45 67.85 15.2 69.85 Q15.2 70.2 16.05 70.75 17.05 71.45 17.55 73.0 17.8 73.85 17.45 77.9 17.45 80.55 18.6 81.2 L22.7 83.7 Q21.5 84.1 21.5 85.5 L21.6 86.55 Q21.75 86.9 22.75 87.5 L24.0 87.5 Q25.55 87.05 25.55 85.9" fill="#e97300" fill-rule="evenodd" stroke="none"/>
    <path d="M38.55 10.5 L37.75 11.8 Q36.8 12.65 35.45 12.65 34.1 12.65 33.2 11.8 32.25 10.9 32.25 9.7 32.25 8.5 33.2 7.65 34.1 6.75 35.45 6.75 36.8 6.75 37.75 7.65 L38.1 8.05 38.05 8.6 38.25 9.9 38.55 10.5 M25.7 14.15 Q25.7 13.3 26.25 12.75 26.8 12.15 27.55 12.15 28.3 12.15 28.85 12.75 29.4 13.3 29.4 14.15 29.4 15.0 28.85 15.6 28.3 16.15 27.55 16.15 26.8 16.15 26.25 15.6 25.7 15.0 25.7 14.15 M23.45 21.5 Q23.4 22.65 22.65 23.5 21.8 24.35 20.65 24.35 19.5 24.35 18.7 23.5 17.85 22.6 17.85 21.35 17.85 20.1 18.7 19.25 19.35 18.5 20.25 18.4 L20.05 19.65 20.25 20.65 Q20.85 21.55 22.85 21.55 L23.45 21.5 M14.7 63.5 L14.25 62.7 Q13.65 61.75 13.65 60.3 L14.05 58.6 14.4 56.85 Q14.4 56.35 13.2 55.2 11.95 54.1 11.95 52.95 11.95 52.35 12.6 50.9 L13.2 49.55 13.75 46.25 13.45 43.7 13.15 40.8 Q13.2 39.15 13.75 36.4 L14.35 33.9 Q13.8 31.75 13.85 30.15 14.05 27.1 17.35 27.1 18.45 27.1 19.3 27.7 L20.0 28.45 19.8 29.65 19.25 31.55 16.95 40.95 Q16.95 41.65 19.1 45.45 L18.75 46.9 18.35 48.3 Q18.35 49.6 19.85 50.25 21.3 50.9 21.3 52.55 L21.1 55.15 Q21.0 55.95 21.3 56.45 L27.75 62.55 Q29.7 64.5 30.5 64.8 33.3 65.95 41.45 69.8 43.3 69.8 44.75 69.05 46.2 68.3 47.1 68.3 49.55 68.3 51.75 70.7 54.9 74.2 54.9 81.05 L53.7 85.95 Q51.65 90.85 47.45 90.85 L45.65 90.5 43.85 90.45 Q42.3 91.05 40.95 91.9 L39.65 92.55 Q38.85 92.55 36.95 91.75 L34.6 90.9 33.05 91.45 30.65 92.0 Q28.9 92.0 28.0 89.85 26.8 87.1 25.55 85.9 25.55 83.5 23.55 83.55 L22.7 83.7 18.6 81.2 Q17.45 80.55 17.45 77.9 17.8 73.85 17.55 73.0 17.05 71.45 16.05 70.75 15.2 70.2 15.2 69.85 L15.45 67.85 Q17.0 67.8 17.0 66.15 17.0 64.15 14.75 63.5 L14.7 63.5 M15.85 35.55 L16.45 35.8 17.05 35.55 17.3 34.9 17.05 34.3 Q16.8 34.0 16.45 34.0 16.1 34.0 15.85 34.3 15.6 34.55 15.6 34.9 L15.85 35.55 M14.1 44.65 Q14.1 45.35 14.55 45.85 15.0 46.35 15.65 46.35 16.3 46.35 16.75 45.85 17.2 45.35 17.2 44.65 17.2 43.95 16.75 43.45 16.3 42.95 15.65 42.95 15.0 42.95 14.55 43.45 14.1 43.95 14.1 44.65 M24.8 65.8 Q24.8 64.6 24.05 63.75 23.25 62.9 22.15 62.9 21.05 62.9 20.3 63.75 19.5 64.6 19.5 65.8 19.5 67.0 20.3 67.85 21.05 68.7 22.15 68.7 23.25 68.7 24.05 67.85 24.8 67.0 24.8 65.8 M25.15 71.95 Q25.6 71.5 25.6 70.85 25.6 70.2 25.15 69.75 24.7 69.3 24.05 69.3 23.4 69.3 22.95 69.75 22.5 70.2 22.5 70.85 22.5 71.5 22.95 71.95 23.4 72.4 24.05 72.4 24.7 72.4 25.15 71.95 M36.85 76.15 L36.8 75.35 Q36.5 72.6 35.1 70.65 33.6 68.5 31.55 68.5 29.35 68.5 27.95 70.3 26.55 72.1 26.55 75.0 26.55 77.65 28.2 79.9 29.9 82.15 31.9 82.15 34.5 82.15 35.8 80.25 36.6 80.25 37.15 79.35 37.65 78.55 37.65 77.8 37.65 76.5 36.85 76.15 M15.45 55.3 Q15.45 56.15 16.0 56.75 16.55 57.35 17.35 57.35 18.15 57.35 18.7 56.75 19.25 56.15 19.25 55.3 19.25 54.45 18.7 53.85 18.15 53.25 17.35 53.25 16.55 53.25 16.0 53.85 15.45 54.45 15.45 55.3 M18.25 60.05 Q17.45 60.05 16.9 60.7 16.3 61.3 16.3 62.15 16.3 63.0 16.9 63.65 17.45 64.25 18.25 64.25 19.05 64.25 19.65 63.65 20.2 63.0 20.2 62.15 20.2 61.3 19.65 60.7 19.05 60.05 18.25 60.05 M40.0 76.5 Q40.75 77.3 41.85 77.3 42.95 77.3 43.75 76.5 44.5 75.65 44.5 74.45 44.5 73.25 43.75 72.45 42.95 71.6 41.85 71.6 40.75 71.6 40.0 72.45 39.2 73.25 39.2 74.45 39.2 75.65 40.0 76.5 M30.5 84.5 Q29.75 84.5 29.25 85.1 28.7 85.65 28.7 86.5 28.7 87.35 29.25 87.95 29.75 88.5 30.5 88.5 31.25 88.5 31.8 87.95 32.3 87.35 32.3 86.5 32.3 85.65 31.8 85.1 31.25 84.5 30.5 84.5 M35.7 81.75 Q34.55 82.95 34.55 84.65 34.55 86.35 35.7 87.6 36.8 88.8 38.35 88.8 39.9 88.8 41.05 87.6 42.15 86.35 42.15 84.65 42.15 82.95 41.05 81.75 39.9 80.5 38.35 80.5 36.8 80.5 35.7 81.75 M22.45 74.35 Q21.2 74.35 20.3 75.5 19.4 76.6 19.4 78.2 19.4 79.8 20.3 80.95 21.2 82.05 22.45 82.05 23.7 82.05 24.6 80.95 25.5 79.8 25.5 78.2 25.5 76.6 24.6 75.5 23.7 74.35 22.45 74.35 M51.7 76.65 Q50.9 74.9 49.6 74.9 47.5 74.9 45.65 77.15 43.8 79.5 43.8 82.35 43.8 84.2 44.95 85.2 45.9 86.0 47.15 86.0 52.15 86.0 52.45 80.45 52.55 78.3 51.7 76.65" fill="#ff8d1c" fill-rule="evenodd" stroke="none"/>
    <path d="M14.1 44.65 Q14.1 43.95 14.55 43.45 15.0 42.95 15.65 42.95 16.3 42.95 16.75 43.45 17.2 43.95 17.2 44.65 17.2 45.35 16.75 45.85 16.3 46.35 15.65 46.35 15.0 46.35 14.55 45.85 14.1 45.35 14.1 44.65 M15.85 35.55 L15.6 34.9 Q15.6 34.55 15.85 34.3 16.1 34.0 16.45 34.0 16.8 34.0 17.05 34.3 L17.3 34.9 17.05 35.55 16.45 35.8 15.85 35.55 M35.8 80.25 Q34.5 82.15 31.9 82.15 29.9 82.15 28.2 79.9 26.55 77.65 26.55 75.0 26.55 72.1 27.95 70.3 29.35 68.5 31.55 68.5 33.6 68.5 35.1 70.65 36.5 72.6 36.8 75.35 L36.85 76.15 35.9 75.95 Q34.15 76.0 34.15 77.95 L34.2 79.15 Q34.55 80.25 35.75 80.25 L35.8 80.25 M25.15 71.95 Q24.7 72.4 24.05 72.4 23.4 72.4 22.95 71.95 22.5 71.5 22.5 70.85 22.5 70.2 22.95 69.75 23.4 69.3 24.05 69.3 24.7 69.3 25.15 69.75 25.6 70.2 25.6 70.85 25.6 71.5 25.15 71.95 M24.8 65.8 Q24.8 67.0 24.05 67.85 23.25 68.7 22.15 68.7 21.05 68.7 20.3 67.85 19.5 67.0 19.5 65.8 19.5 64.6 20.3 63.75 21.05 62.9 22.15 62.9 23.25 62.9 24.05 63.75 24.8 64.6 24.8 65.8 M18.25 60.05 Q19.05 60.05 19.65 60.7 20.2 61.3 20.2 62.15 20.2 63.0 19.65 63.65 19.05 64.25 18.25 64.25 17.45 64.25 16.9 63.65 16.3 63.0 16.3 62.15 16.3 61.3 16.9 60.7 17.45 60.05 18.25 60.05 M15.45 55.3 Q15.45 54.45 16.0 53.85 16.55 53.25 17.35 53.25 18.15 53.25 18.7 53.85 19.25 54.45 19.25 55.3 19.25 56.15 18.7 56.75 18.15 57.35 17.35 57.35 16.55 57.35 16.0 56.75 15.45 56.15 15.45 55.3 M22.45 74.35 Q23.7 74.35 24.6 75.5 25.5 76.6 25.5 78.2 25.5 79.8 24.6 80.95 23.7 82.05 22.45 82.05 21.2 82.05 20.3 80.95 19.4 79.8 19.4 78.2 19.4 76.6 20.3 75.5 21.2 74.35 22.45 74.35 M35.7 81.75 Q36.8 80.5 38.35 80.5 39.9 80.5 41.05 81.75 42.15 82.95 42.15 84.65 42.15 86.35 41.05 87.6 39.9 88.8 38.35 88.8 36.8 88.8 35.7 87.6 34.55 86.35 34.55 84.65 34.55 82.95 35.7 81.75 M30.5 84.5 Q31.25 84.5 31.8 85.1 32.3 85.65 32.3 86.5 32.3 87.35 31.8 87.95 31.25 88.5 30.5 88.5 29.75 88.5 29.25 87.95 28.7 87.35 28.7 86.5 28.7 85.65 29.25 85.1 29.75 84.5 30.5 84.5 M40.0 76.5 Q39.2 75.65 39.2 74.45 39.2 73.25 40.0 72.45 40.75 71.6 41.85 71.6 42.95 71.6 43.75 72.45 44.5 73.25 44.5 74.45 44.5 75.65 43.75 76.5 42.95 77.3 41.85 77.3 40.75 77.3 40.0 76.5 M51.7 76.65 Q52.55 78.3 52.45 80.45 52.15 86.0 47.15 86.0 45.9 86.0 44.95 85.2 43.8 84.2 43.8 82.35 43.8 79.5 45.65 77.15 47.5 74.9 49.6 74.9 50.9 74.9 51.7 76.65 M51.5 83.1 L51.55 81.75 Q51.55 78.95 49.3 79.15 47.05 79.35 47.05 81.4 47.05 82.25 47.35 82.85 47.95 84.1 49.75 84.1 51.15 84.1 51.5 83.1" fill="#ffb366" fill-rule="evenodd" stroke="none"/>
    <path d="M23.3 47.9 Q23.7 46.75 25.05 46.8 26.9 46.9 26.9 49.25 26.9 49.9 26.5 50.35 26.05 50.85 25.25 50.85 L25.2 50.85 Q23.65 50.85 23.25 49.85 L23.15 48.95 Q23.15 48.3 23.3 47.9 M32.6 99.0 L32.8 100.65 Q32.8 102.35 31.5 102.35 29.8 102.35 29.25 100.9 L29.05 99.6 Q29.05 98.45 29.45 97.9 29.9 97.25 30.95 97.45 32.15 97.7 32.6 99.0 M38.75 57.6 L38.5 58.5 Q38.15 59.1 37.1 59.1 35.2 59.1 34.55 57.85 L34.3 56.55 34.4 55.7 37.65 57.15 38.75 57.6 M38.1 8.05 Q38.3 6.15 39.95 6.45 41.8 6.8 41.8 9.65 41.8 11.35 40.5 11.35 39.2 11.35 38.55 10.5 L38.25 9.9 38.05 8.6 38.1 8.05 M49.1 63.55 Q49.55 62.8 50.8 63.1 52.05 63.4 52.5 64.15 L52.75 65.15 Q52.75 65.8 52.35 66.3 51.8 66.9 50.85 66.9 49.55 66.9 49.05 65.85 L48.8 64.8 Q48.8 63.95 49.1 63.55 M9.35 37.35 Q8.2 37.15 7.85 36.3 L7.75 35.15 Q7.75 32.75 9.9 32.4 L10.25 32.35 Q12.05 32.2 12.05 34.55 12.05 37.4 10.0 37.4 L9.35 37.35 M20.25 18.4 Q20.75 17.05 22.5 17.05 24.9 17.05 24.9 19.35 24.9 20.0 24.5 20.65 L23.45 21.5 22.85 21.55 Q20.85 21.55 20.25 20.65 L20.05 19.65 20.25 18.4 M14.7 63.5 L14.75 63.5 Q17.0 64.15 17.0 66.15 17.0 67.8 15.45 67.85 L15.35 67.85 Q13.45 67.85 12.8 66.6 12.5 66.0 12.5 65.15 12.5 62.9 14.7 63.5 M22.7 83.7 L23.55 83.55 Q25.55 83.5 25.55 85.9 25.55 87.05 24.0 87.5 L22.75 87.5 Q21.75 86.9 21.6 86.55 L21.5 85.5 Q21.5 84.1 22.7 83.7 M35.8 80.25 L35.75 80.25 Q34.55 80.25 34.2 79.15 L34.15 77.95 Q34.15 76.0 35.9 75.95 L36.85 76.15 Q37.65 76.5 37.65 77.8 37.65 78.55 37.15 79.35 36.6 80.25 35.8 80.25 M51.5 83.1 Q51.15 84.1 49.75 84.1 47.95 84.1 47.35 82.85 47.05 82.25 47.05 81.4 47.05 79.35 49.3 79.15 51.55 78.95 51.55 81.75 L51.5 83.1" fill="#ba3900" fill-rule="evenodd" stroke="none"/>
  </g>
</svg>
