<?xml version="1.0" encoding="UTF-8" standalone="no"?>
<svg xmlns:ffdec="https://www.free-decompiler.com/flash" xmlns:xlink="http://www.w3.org/1999/xlink" ffdec:objectType="shape" height="111.55px" width="100.0px" xmlns="http://www.w3.org/2000/svg">
  <g transform="matrix(1.0, 0.0, 0.0, 1.0, 0.0, 0.0)">
    <path d="M1.0 111.05 L0.85 111.4 0.5 111.55 0.15 111.4 0.0 111.05 0.0 0.5 0.15 0.15 Q0.3 0.0 0.5 0.0 L99.5 0.0 Q99.7 0.0 99.85 0.15 L100.0 0.5 100.0 111.05 99.85 111.4 99.5 111.55 99.15 111.4 99.0 111.05 99.0 1.0 1.0 1.0 1.0 111.05 M90.5 9.0 L90.85 9.15 91.0 9.5 91.0 102.05 90.85 102.4 90.5 102.55 9.5 102.55 9.15 102.4 9.0 102.05 9.0 9.5 9.15 9.15 9.5 9.0 90.5 9.0 M10.0 10.0 L10.0 101.55 90.0 101.55 90.0 10.0 10.0 10.0" fill="#000000" fill-rule="evenodd" stroke="none"/>
    <path d="M1.0 111.05 L1.0 1.0 99.0 1.0 99.0 111.05 1.0 111.05 M90.5 9.0 L9.5 9.0 9.15 9.15 9.0 9.5 9.0 102.05 9.15 102.4 9.5 102.55 90.5 102.55 90.85 102.4 91.0 102.05 91.0 9.5 90.85 9.15 90.5 9.0" fill="#b2b4b3" fill-rule="evenodd" stroke="none"/>
  </g>
</svg>
