<?xml version="1.0" encoding="UTF-8" standalone="no"?>
<svg xmlns:ffdec="https://www.free-decompiler.com/flash" xmlns:xlink="http://www.w3.org/1999/xlink" ffdec:objectType="shape" height="54.05px" width="8.6px" xmlns="http://www.w3.org/2000/svg">
  <g transform="matrix(1.0, 0.0, 0.0, 1.0, 0.0, 0.0)">
    <path d="M4.3 0.0 Q6.05 0.0 7.3 1.3 8.6 2.55 8.6 4.3 L8.6 49.7 Q8.6 51.5 7.3 52.75 6.05 54.05 4.3 54.05 2.5 54.05 1.25 52.75 0.0 51.5 0.0 49.7 L0.0 4.3 Q0.0 2.55 1.25 1.3 2.5 0.0 4.3 0.0 M1.95 2.0 Q1.0 2.95 1.0 4.3 L1.0 49.7 Q1.0 51.1 1.95 52.05 2.9 53.05 4.3 53.05 5.65 53.05 6.6 52.05 7.6 51.1 7.6 49.7 L7.6 4.3 Q7.6 2.95 6.6 2.0 5.65 1.0 4.3 1.0 2.9 1.0 1.95 2.0" fill="#000000" fill-rule="evenodd" stroke="none"/>
    <path d="M1.95 2.0 Q2.9 1.0 4.3 1.0 5.65 1.0 6.6 2.0 7.6 2.95 7.6 4.3 L7.6 49.7 Q7.6 51.1 6.6 52.05 5.65 53.05 4.3 53.05 2.9 53.05 1.95 52.05 1.0 51.1 1.0 49.7 L1.0 4.3 Q1.0 2.95 1.95 2.0" fill="#71368e" fill-rule="evenodd" stroke="none"/>
  </g>
</svg>
