<?xml version="1.0" encoding="UTF-8" standalone="no"?>
<svg xmlns:ffdec="https://www.free-decompiler.com/flash" xmlns:xlink="http://www.w3.org/1999/xlink" ffdec:objectType="shape" height="70.3px" width="12.05px" xmlns="http://www.w3.org/2000/svg">
  <g transform="matrix(1.0, 0.0, 0.0, 1.0, 0.0, -5.2)">
    <path d="M11.0 5.2 L12.0 5.2 12.05 6.05 12.05 71.95 12.0 72.9 11.7 74.0 Q5.75 77.05 0.35 74.0 0.15 73.45 0.1 72.9 L0.0 71.95 0.0 6.05 0.05 5.2 1.1 5.2 1.0 6.05 1.0 71.95 1.1 72.9 Q6.05 74.9 11.0 72.9 L11.05 71.95 11.05 6.05 11.0 5.2" fill="#000000" fill-rule="evenodd" stroke="none"/>
    <path d="M11.0 5.2 L11.05 6.05 11.05 71.95 11.0 72.9 Q6.05 74.9 1.1 72.9 L1.0 71.95 1.0 6.05 1.1 5.2 11.0 5.2" fill="#9f50c6" fill-rule="evenodd" stroke="none"/>
  </g>
</svg>
