<?xml version="1.0" encoding="UTF-8" standalone="no"?>
<svg xmlns:ffdec="https://www.free-decompiler.com/flash" xmlns:xlink="http://www.w3.org/1999/xlink" ffdec:objectType="shape" height="136.0px" width="136.0px" xmlns="http://www.w3.org/2000/svg">
  <g transform="matrix(1.0, 0.0, 0.0, 1.0, 0.0, 0.0)">
    <path d="M134.0 68.0 Q134.0 40.65 114.65 21.3 95.35 2.0 68.0 2.0 40.65 2.0 21.3 21.3 2.0 40.65 2.0 68.0 2.0 95.35 21.3 114.65 40.65 134.0 68.0 134.0 95.35 134.0 114.65 114.65 134.0 95.35 134.0 68.0 M116.05 19.9 Q136.0 39.85 136.0 68.0 136.0 96.15 116.05 116.05 96.15 136.0 68.0 136.0 39.85 136.0 19.9 116.05 0.0 96.15 0.0 68.0 0.0 39.85 19.9 19.9 39.85 0.0 68.0 0.0 96.15 0.0 116.05 19.9" fill="#000000" fill-rule="evenodd" stroke="none"/>
    <path d="M131.5 68.0 Q131.5 94.3 112.9 112.9 94.3 131.5 68.0 131.5 41.7 131.5 23.1 112.9 4.5 94.3 4.5 68.0 4.5 41.7 23.1 23.1 41.7 4.5 68.0 4.5 94.3 4.5 112.9 23.1 131.5 41.7 131.5 68.0" fill="#5d2b74" fill-rule="evenodd" stroke="none"/>
    <path d="M131.5 68.0 Q131.5 41.7 112.9 23.1 94.3 4.5 68.0 4.5 41.7 4.5 23.1 23.1 4.5 41.7 4.5 68.0 4.5 94.3 23.1 112.9 41.7 131.5 68.0 131.5 94.3 131.5 112.9 112.9 131.5 94.3 131.5 68.0 M134.0 68.0 Q134.0 95.35 114.65 114.65 95.35 134.0 68.0 134.0 40.65 134.0 21.3 114.65 2.0 95.35 2.0 68.0 2.0 40.65 21.3 21.3 40.65 2.0 68.0 2.0 95.35 2.0 114.65 21.3 134.0 40.65 134.0 68.0" fill="#49225b" fill-rule="evenodd" stroke="none"/>
  </g>
</svg>
