<?xml version="1.0" encoding="UTF-8" standalone="no"?>
<svg xmlns:ffdec="https://www.free-decompiler.com/flash" xmlns:xlink="http://www.w3.org/1999/xlink" ffdec:objectType="shape" height="136.0px" width="136.0px" xmlns="http://www.w3.org/2000/svg">
  <g transform="matrix(1.0, 0.0, 0.0, 1.0, 0.0, 0.0)">
    <path d="M136.0 68.0 L135.85 72.95 Q134.2 97.9 116.05 116.05 96.15 136.0 68.0 136.0 39.85 136.0 19.9 116.05 1.75 97.9 0.15 72.95 L0.0 68.0 Q0.0 39.85 19.9 19.9 39.85 0.0 68.0 0.0 96.15 0.0 116.05 19.9 136.0 39.85 136.0 68.0 M133.85 72.95 L134.0 68.0 Q134.0 40.65 114.65 21.3 95.35 2.0 68.0 2.0 40.65 2.0 21.3 21.3 2.0 40.65 2.0 68.0 L2.2 72.95 Q3.75 97.1 21.3 114.65 40.65 134.0 68.0 134.0 95.35 134.0 114.65 114.65 132.25 97.1 133.85 72.95" fill="#000000" fill-rule="evenodd" stroke="none"/>
    <path d="M104.25 72.95 Q102.75 84.95 93.8 93.8 83.15 104.55 68.0 104.55 52.9 104.55 42.2 93.8 33.3 84.95 31.8 72.95 31.5 70.55 31.5 68.0 31.5 52.9 42.2 42.2 52.9 31.5 68.0 31.5 83.15 31.5 93.8 42.2 104.55 52.9 104.55 68.0 L104.25 72.95" fill="#ffffff" fill-rule="evenodd" stroke="none"/>
    <path d="M30.5 68.7 L30.55 69.45 Q30.6 71.25 30.8 72.95 32.3 85.35 41.5 94.5 52.5 105.55 68.0 105.55 83.55 105.55 94.5 94.5 103.75 85.35 105.25 72.95 L105.55 69.45 105.55 68.7 128.0 68.7 128.0 69.1 127.85 72.95 Q126.2 94.6 110.4 110.4 92.85 128.0 68.0 128.0 43.2 128.0 25.6 110.4 9.8 94.6 8.25 72.95 L8.05 68.7 30.5 68.7" fill="#75cab7" fill-rule="evenodd" stroke="none"/>
    <path d="M129.0 69.65 L129.0 68.0 Q129.0 42.8 111.1 24.9 93.25 7.05 68.0 7.05 42.8 7.05 24.9 24.9 7.05 42.8 7.05 68.0 L7.1 69.65 4.55 69.65 4.5 68.0 Q4.5 41.7 23.1 23.1 41.7 4.5 68.0 4.5 94.3 4.5 112.9 23.1 131.5 41.7 131.5 68.0 L131.5 69.65 129.0 69.65" fill="#83e0cb" fill-rule="evenodd" stroke="none"/>
    <path d="M7.1 69.65 L7.15 71.2 7.25 72.95 Q8.85 95.05 24.9 111.1 42.8 129.0 68.0 129.0 93.25 129.0 111.1 111.1 127.2 95.05 128.85 72.95 L128.95 71.2 129.0 69.65 131.5 69.65 131.45 71.2 131.35 72.95 Q129.7 96.1 112.9 112.9 94.3 131.5 68.0 131.5 41.7 131.5 23.1 112.9 6.3 96.1 4.7 72.95 L4.6 71.2 4.55 69.65 7.1 69.65" fill="#97fae4" fill-rule="evenodd" stroke="none"/>
    <path d="M105.55 68.7 L105.55 68.0 Q105.55 52.5 94.5 41.5 83.55 30.5 68.0 30.5 52.5 30.5 41.5 41.5 30.5 52.5 30.5 68.0 L30.5 68.7 8.05 68.7 8.05 68.0 Q8.05 43.2 25.6 25.6 43.2 8.05 68.0 8.05 92.85 8.05 110.4 25.6 128.0 43.2 128.0 68.0 L128.0 68.7 105.55 68.7" fill="#66b4a2" fill-rule="evenodd" stroke="none"/>
    <path d="M4.55 69.65 L4.6 71.2 4.7 72.95 Q6.3 96.1 23.1 112.9 41.7 131.5 68.0 131.5 94.3 131.5 112.9 112.9 129.7 96.1 131.35 72.95 L131.45 71.2 131.5 69.65 131.5 68.0 Q131.5 41.7 112.9 23.1 94.3 4.5 68.0 4.5 41.7 4.5 23.1 23.1 4.5 41.7 4.5 68.0 L4.55 69.65 M133.85 72.95 Q132.25 97.1 114.65 114.65 95.35 134.0 68.0 134.0 40.65 134.0 21.3 114.65 3.75 97.1 2.2 72.95 L2.0 68.0 Q2.0 40.65 21.3 21.3 40.65 2.0 68.0 2.0 95.35 2.0 114.65 21.3 134.0 40.65 134.0 68.0 L133.85 72.95" fill="#569a8b" fill-rule="evenodd" stroke="none"/>
    <path d="M104.25 72.95 L104.55 68.0 Q104.55 52.9 93.8 42.2 83.15 31.5 68.0 31.5 52.9 31.5 42.2 42.2 31.5 52.9 31.5 68.0 31.5 70.55 31.8 72.95 33.3 84.95 42.2 93.8 52.9 104.55 68.0 104.55 83.15 104.55 93.8 93.8 102.75 84.95 104.25 72.95 M105.55 68.7 L105.55 69.45 105.25 72.95 Q103.75 85.35 94.5 94.5 83.55 105.55 68.0 105.55 52.5 105.55 41.5 94.5 32.3 85.35 30.8 72.95 30.6 71.25 30.55 69.45 L30.5 68.7 30.5 68.0 Q30.5 52.5 41.5 41.5 52.5 30.5 68.0 30.5 83.55 30.5 94.5 41.5 105.55 52.5 105.55 68.0 L105.55 68.7 M8.05 68.7 L8.25 72.95 Q9.8 94.6 25.6 110.4 43.2 128.0 68.0 128.0 92.85 128.0 110.4 110.4 126.2 94.6 127.85 72.95 L128.0 69.1 128.0 68.7 128.0 68.0 Q128.0 43.2 110.4 25.6 92.85 8.05 68.0 8.05 43.2 8.05 25.6 25.6 8.05 43.2 8.05 68.0 L8.05 68.7 M129.0 69.65 L128.95 71.2 128.85 72.95 Q127.2 95.05 111.1 111.1 93.25 129.0 68.0 129.0 42.8 129.0 24.9 111.1 8.85 95.05 7.25 72.95 L7.15 71.2 7.1 69.65 7.05 68.0 Q7.05 42.8 24.9 24.9 42.8 7.05 68.0 7.05 93.25 7.05 111.1 24.9 129.0 42.8 129.0 68.0 L129.0 69.65" fill="#468073" fill-rule="evenodd" stroke="none"/>
    <path d="M101.45 67.15 L99.85 65.9 98.1 64.8 96.75 64.65 95.55 64.3 95.05 63.75 Q94.75 63.45 94.15 63.45 L93.05 63.6 91.45 63.0 88.8 62.4 86.85 62.7 85.8 63.0 84.5 62.7 83.4 62.4 Q82.7 62.4 81.8 62.75 L81.1 63.05 79.75 62.8 Q79.2 62.5 79.1 62.5 L77.45 62.85 75.55 63.15 74.1 62.85 72.9 62.55 70.85 62.75 69.55 62.95 67.8 62.4 63.55 60.65 59.7 59.2 56.9 58.45 56.35 58.55 55.8 58.6 54.7 58.3 53.9 57.65 Q52.9 56.65 51.5 56.65 L50.25 57.05 48.65 57.45 48.0 57.3 47.3 57.15 Q46.55 57.15 46.0 57.8 45.45 58.4 44.8 58.4 L43.9 58.25 43.15 58.1 42.35 58.3 41.75 58.75 Q40.85 59.5 39.4 59.7 L38.55 59.8 38.1 59.95 35.85 61.75 Q34.95 62.5 34.55 63.35 L34.15 64.55 33.25 66.05 Q32.9 66.6 32.9 66.8 L33.1 68.45 32.8 69.85 Q32.8 70.9 33.9 72.8 35.05 74.85 36.15 75.4 37.7 75.75 39.5 76.9 L40.65 77.6 41.55 77.9 42.15 77.8 43.15 77.7 43.55 77.95 43.9 78.45 Q44.4 79.2 45.25 79.2 L46.3 78.85 Q46.95 78.5 47.35 78.5 L48.25 79.0 Q49.25 79.5 50.2 79.5 L50.95 79.3 51.7 79.05 52.4 79.15 53.1 79.2 54.75 78.85 57.05 77.75 58.4 77.95 59.15 77.6 Q59.8 77.25 59.95 77.25 L60.95 77.6 62.4 77.9 63.4 77.65 64.95 77.35 67.2 77.75 68.15 77.5 Q68.9 77.2 69.3 77.2 L70.0 77.4 71.05 77.65 72.15 77.2 73.15 76.75 73.8 76.85 74.5 76.9 75.65 76.45 Q76.65 76.0 77.45 75.9 L79.5 75.45 79.75 75.25 80.1 75.15 80.65 75.45 81.7 75.75 Q82.2 75.75 82.75 75.2 L83.55 74.65 84.15 74.75 84.35 74.85 86.05 74.35 87.35 73.85 87.85 73.95 88.7 74.1 90.3 73.8 91.35 73.55 92.6 73.9 94.0 74.2 95.5 74.05 96.95 74.35 Q98.85 74.35 100.6 72.95 102.45 71.45 102.45 69.65 L102.25 68.05 Q102.05 67.45 101.45 67.15 M102.15 66.9 Q102.65 67.3 102.8 67.95 L103.05 69.9 102.9 70.75 102.4 71.8 101.0 73.3 Q100.8 73.3 100.5 73.55 L99.7 74.1 Q98.5 74.85 96.95 74.85 L96.1 74.7 95.55 74.55 94.55 74.65 93.8 74.75 92.55 74.4 91.4 74.1 89.85 74.45 89.15 74.55 88.8 74.6 88.0 74.5 87.35 74.35 86.25 74.85 84.45 75.35 84.05 75.25 83.55 75.15 83.0 75.7 Q82.35 76.25 81.75 76.25 L80.6 76.0 80.1 75.65 79.65 75.9 77.5 76.4 Q75.9 76.7 75.25 77.1 L74.9 77.35 74.5 77.4 73.15 77.25 72.5 77.6 71.6 78.05 70.9 78.15 69.3 77.7 Q69.05 77.7 68.35 78.0 L67.3 78.3 64.95 77.85 63.55 78.15 62.3 78.45 60.85 78.1 59.95 77.75 59.4 78.05 58.5 78.45 57.15 78.3 54.7 79.45 53.05 79.75 51.7 79.55 50.15 80.0 48.3 79.5 47.35 79.0 46.95 79.1 Q46.6 79.2 46.6 79.3 46.6 79.45 45.4 79.75 44.55 79.75 43.8 79.2 43.1 78.7 43.1 78.2 L43.05 78.15 43.05 78.2 42.6 78.2 42.25 78.3 41.95 78.45 41.5 78.45 Q41.0 78.45 39.95 77.75 L37.15 76.25 Q35.8 75.9 35.2 75.45 34.65 75.05 34.05 74.05 32.75 71.9 32.4 71.0 32.25 70.5 32.25 69.85 L32.55 68.45 32.4 67.7 32.3 66.8 32.45 66.35 32.75 65.8 33.6 64.25 34.15 62.95 Q34.85 61.8 36.1 60.8 L37.5 59.7 38.3 59.45 39.95 59.1 Q40.65 58.95 41.55 58.2 42.25 57.6 43.15 57.6 L44.8 57.9 Q45.05 57.9 45.3 57.7 L45.8 57.25 Q46.5 56.65 47.3 56.65 L47.75 56.8 48.7 56.95 50.15 56.55 51.5 56.15 53.15 56.55 Q53.9 56.85 54.35 57.3 L55.0 57.9 55.2 58.0 55.7 58.1 56.3 58.05 56.9 57.95 58.8 58.4 Q60.75 58.9 62.2 59.5 L65.95 61.1 Q69.05 62.4 69.65 62.4 L71.0 62.25 72.9 62.05 74.15 62.35 75.6 62.65 77.3 62.35 79.15 62.0 79.9 62.25 81.1 62.55 81.9 62.25 Q82.8 61.9 83.4 61.9 L84.6 62.2 85.8 62.5 86.75 62.2 88.8 61.9 89.7 62.05 90.4 62.15 91.85 62.65 93.15 63.05 94.55 62.95 Q95.1 63.0 95.8 63.8 L97.35 64.25 98.8 64.55 100.85 66.05 102.15 66.9" fill="#000000" fill-rule="evenodd" stroke="none"/>
    <path d="M101.45 67.15 Q102.05 67.45 102.25 68.05 L102.45 69.65 Q102.45 71.45 100.6 72.95 98.85 74.35 96.95 74.35 L95.5 74.05 94.0 74.2 92.6 73.9 91.35 73.55 90.3 73.8 88.7 74.1 87.85 73.95 87.35 73.85 86.05 74.35 84.35 74.85 84.15 74.75 83.55 74.65 82.75 75.2 Q82.2 75.75 81.7 75.75 L80.65 75.45 80.1 75.15 79.75 75.25 79.5 75.45 77.45 75.9 Q76.65 76.0 75.65 76.45 L74.5 76.9 73.8 76.85 73.15 76.75 72.15 77.2 71.05 77.65 70.0 77.4 69.3 77.2 Q68.9 77.2 68.15 77.5 L67.2 77.75 64.95 77.35 63.4 77.65 62.4 77.9 60.95 77.6 59.95 77.25 Q59.8 77.25 59.15 77.6 L58.4 77.95 57.05 77.75 54.75 78.85 53.1 79.2 52.4 79.15 51.7 79.05 50.95 79.3 50.2 79.5 Q49.25 79.5 48.25 79.0 L47.35 78.5 Q46.95 78.5 46.3 78.85 L45.25 79.2 Q44.4 79.2 43.9 78.45 L43.55 77.95 43.15 77.7 42.15 77.8 41.55 77.9 40.65 77.6 39.5 76.9 Q37.7 75.75 36.15 75.4 35.05 74.85 33.9 72.8 32.8 70.9 32.8 69.85 L33.1 68.45 32.9 66.8 Q32.9 66.6 33.25 66.05 L34.15 64.55 34.55 63.35 Q34.95 62.5 35.85 61.75 L38.1 59.95 38.55 59.8 39.4 59.7 Q40.85 59.5 41.75 58.75 L42.35 58.3 43.15 58.1 43.9 58.25 44.8 58.4 Q45.45 58.4 46.0 57.8 46.55 57.15 47.3 57.15 L48.0 57.3 48.65 57.45 50.25 57.05 51.5 56.65 Q52.9 56.65 53.9 57.65 L54.7 58.3 55.8 58.6 56.35 58.55 56.9 58.45 59.7 59.2 63.55 60.65 67.8 62.4 69.55 62.95 70.85 62.75 72.9 62.55 74.1 62.85 75.55 63.15 77.45 62.85 79.1 62.5 Q79.2 62.5 79.75 62.8 L81.1 63.05 81.8 62.75 Q82.7 62.4 83.4 62.4 L84.5 62.7 85.8 63.0 86.85 62.7 88.8 62.4 91.45 63.0 93.05 63.6 94.15 63.45 Q94.75 63.45 95.05 63.75 L95.55 64.3 96.75 64.65 98.1 64.8 99.85 65.9 101.45 67.15 M90.85 65.5 L89.65 65.0 Q88.7 64.45 87.65 64.45 L85.2 64.25 82.75 64.05 Q82.45 64.1 81.5 64.9 L80.2 66.05 79.95 66.0 Q79.85 65.1 79.5 64.7 79.1 64.3 78.25 64.3 L74.4 64.75 70.55 65.15 Q70.1 65.15 69.65 65.5 69.5 65.6 69.5 65.1 69.5 64.95 65.3 63.1 61.1 61.25 60.6 61.25 59.8 61.25 58.5 60.65 57.15 60.0 56.55 60.0 L55.1 60.25 53.9 60.3 52.9 59.4 Q52.2 58.65 51.75 58.65 L44.7 60.15 42.35 60.95 40.55 61.75 Q37.6 61.75 36.25 63.6 34.5 66.0 34.5 72.2 34.5 72.8 35.7 73.35 L37.15 74.05 37.3 74.25 37.6 74.4 39.1 74.35 40.55 74.25 Q41.55 74.45 43.8 75.9 45.95 77.2 46.3 77.2 L51.35 77.65 53.75 76.9 Q56.15 76.1 56.7 76.1 L58.15 76.35 59.95 76.25 62.55 75.45 Q64.0 75.05 67.7 73.3 L67.25 74.35 66.7 74.65 Q66.3 74.8 66.3 75.4 66.3 76.0 66.5 76.0 L67.1 75.95 71.1 75.65 76.05 74.7 Q79.75 73.65 89.25 72.55 L91.9 73.0 94.55 73.45 97.95 73.35 Q101.2 72.65 101.2 69.65 98.35 65.3 96.9 65.3 L95.15 65.05 93.7 64.8 Q93.1 64.8 92.05 65.15 L90.85 65.5" fill="#a66946" fill-rule="evenodd" stroke="none"/>
    <path d="M90.9 66.15 Q90.0 66.5 89.6 67.05 L89.25 67.6 88.7 65.9 Q88.45 65.2 88.0 65.2 L85.9 65.3 83.2 65.2 Q82.55 65.1 81.3 66.6 L79.45 68.55 78.7 68.35 78.55 66.6 Q78.25 66.05 77.05 66.05 L76.05 66.45 75.0 66.8 Q74.45 66.8 72.75 65.75 72.45 65.55 70.5 68.75 L70.2 68.45 Q69.65 66.65 67.0 65.15 64.95 63.95 64.35 63.95 62.6 63.95 62.05 63.25 61.45 62.5 60.7 62.5 L59.3 62.8 58.4 62.9 57.85 61.95 Q57.45 61.45 56.9 61.45 56.3 61.45 56.25 61.65 L56.3 61.95 Q56.4 62.65 57.15 63.7 57.85 64.6 57.85 65.55 L57.8 66.1 57.6 66.0 57.3 66.05 Q55.8 65.7 54.15 62.65 52.55 59.7 51.6 59.7 48.7 59.7 47.45 60.8 46.2 61.85 45.55 61.85 42.5 61.85 39.45 63.65 35.4 66.1 35.4 70.45 35.4 71.3 36.5 71.45 38.6 71.75 40.5 72.8 L42.95 74.3 Q44.8 75.25 46.6 75.25 L48.0 75.0 48.4 74.5 47.85 73.85 Q47.4 73.35 47.4 72.75 L47.5 71.7 47.65 71.65 50.35 73.9 Q51.85 75.15 52.4 75.15 L54.7 74.7 56.95 74.2 61.2 74.15 63.4 73.45 68.35 71.3 Q68.95 71.95 69.45 73.15 L69.2 74.15 69.4 74.2 Q72.2 74.0 84.75 71.3 L86.15 71.15 Q86.8 71.15 86.8 71.75 86.8 72.4 89.85 72.45 L93.65 72.35 96.6 72.05 Q98.75 71.4 98.75 69.4 98.75 68.35 98.2 67.65 97.6 66.95 96.7 66.95 L95.5 66.7 Q94.95 66.3 93.5 66.0 L92.6 67.15 91.4 68.7 91.15 68.2 Q91.5 66.5 90.9 66.15 M90.85 65.5 L92.05 65.15 Q93.1 64.8 93.7 64.8 L95.15 65.05 96.9 65.3 Q98.35 65.3 101.2 69.65 101.2 72.65 97.95 73.35 L94.55 73.45 91.9 73.0 89.25 72.55 Q79.75 73.65 76.05 74.7 L71.1 75.65 67.1 75.95 66.5 76.0 Q66.3 76.0 66.3 75.4 66.3 74.8 66.7 74.65 L67.25 74.35 67.7 73.3 Q64.0 75.05 62.55 75.45 L59.95 76.25 58.15 76.35 56.7 76.1 Q56.15 76.1 53.75 76.9 L51.35 77.65 46.3 77.2 Q45.95 77.2 43.8 75.9 41.55 74.45 40.55 74.25 L39.1 74.35 37.6 74.4 37.3 74.25 37.15 74.05 35.7 73.35 Q34.5 72.8 34.5 72.2 34.5 66.0 36.25 63.6 37.6 61.75 40.55 61.75 L42.35 60.95 44.7 60.15 51.75 58.65 Q52.2 58.65 52.9 59.4 L53.9 60.3 55.1 60.25 56.55 60.0 Q57.15 60.0 58.5 60.65 59.8 61.25 60.6 61.25 61.1 61.25 65.3 63.1 69.5 64.95 69.5 65.1 69.5 65.6 69.65 65.5 70.1 65.15 70.55 65.15 L74.4 64.75 78.25 64.3 Q79.1 64.3 79.5 64.7 79.85 65.1 79.95 66.0 L80.2 66.05 81.5 64.9 Q82.45 64.1 82.75 64.05 L85.2 64.25 87.65 64.45 Q88.7 64.45 89.65 65.0 L90.85 65.5" fill="#bf805b" fill-rule="evenodd" stroke="none"/>
    <path d="M90.9 66.15 Q91.5 66.5 91.15 68.2 L91.4 68.7 92.6 67.15 93.5 66.0 Q94.95 66.3 95.5 66.7 L96.7 66.95 Q97.6 66.95 98.2 67.65 98.75 68.35 98.75 69.4 98.75 71.4 96.6 72.05 L93.65 72.35 89.85 72.45 Q86.8 72.4 86.8 71.75 86.8 71.15 86.15 71.15 L84.75 71.3 Q72.2 74.0 69.4 74.2 L69.2 74.15 69.45 73.15 Q68.95 71.95 68.35 71.3 L63.4 73.45 61.2 74.15 56.95 74.2 54.7 74.7 52.4 75.15 Q51.85 75.15 50.35 73.9 L47.65 71.65 47.5 71.7 47.4 72.75 Q47.4 73.35 47.85 73.85 L48.4 74.5 48.0 75.0 46.6 75.25 Q44.8 75.25 42.95 74.3 L40.5 72.8 Q38.6 71.75 36.5 71.45 35.4 71.3 35.4 70.45 35.4 66.1 39.45 63.65 42.5 61.85 45.55 61.85 46.2 61.85 47.45 60.8 48.7 59.7 51.6 59.7 52.55 59.7 54.15 62.65 55.8 65.7 57.3 66.05 L57.6 66.0 57.8 66.1 57.85 65.55 Q57.85 64.6 57.15 63.7 56.4 62.65 56.3 61.95 L56.25 61.65 Q56.3 61.45 56.9 61.45 57.45 61.45 57.85 61.95 L58.4 62.9 59.3 62.8 60.7 62.5 Q61.45 62.5 62.05 63.25 62.6 63.95 64.35 63.95 64.95 63.95 67.0 65.15 69.65 66.65 70.2 68.45 L70.5 68.75 Q72.45 65.55 72.75 65.75 74.45 66.8 75.0 66.8 L76.05 66.45 77.05 66.05 Q78.25 66.05 78.55 66.6 L78.7 68.35 79.45 68.55 81.3 66.6 Q82.55 65.1 83.2 65.2 L85.9 65.3 88.0 65.2 Q88.45 65.2 88.7 65.9 L89.25 67.6 89.6 67.05 Q90.0 66.5 90.9 66.15 M89.05 70.6 L93.1 71.15 96.9 70.7 Q97.2 71.15 97.2 70.15 97.2 69.35 96.25 68.8 95.45 68.35 94.65 68.35 L91.6 69.65 Q90.65 69.65 90.55 68.15 91.1 67.9 90.1 67.9 89.5 67.9 89.3 68.2 L88.95 68.9 Q87.55 65.7 84.15 67.55 80.6 70.2 79.45 70.2 78.7 70.2 78.0 69.15 77.25 68.05 76.55 68.05 72.05 69.55 70.45 71.75 L70.55 72.6 71.4 73.05 Q73.35 73.05 74.55 72.5 75.8 71.95 78.15 71.95 L82.35 71.0 86.2 70.0 89.05 70.6 M65.4 70.85 Q65.9 69.5 68.45 70.1 69.4 69.95 69.4 68.85 69.4 68.05 65.1 66.3 61.1 64.7 60.25 64.7 L58.05 69.35 Q58.05 71.15 60.25 72.0 L62.6 72.45 Q64.8 72.45 65.4 70.85 M51.7 61.65 L51.25 61.0 Q50.75 60.7 50.1 60.7 49.45 60.7 49.0 61.0 48.5 61.25 48.5 61.65 48.5 62.05 49.0 62.35 L50.1 62.6 51.25 62.35 51.7 61.65 M47.1 70.2 Q48.2 70.2 49.65 72.15 51.1 74.05 52.75 74.05 53.95 74.05 55.8 73.25 57.7 72.45 57.7 71.95 57.55 69.65 56.35 67.4 53.95 62.95 48.8 62.95 44.6 62.95 42.45 64.05 40.35 65.5 38.7 66.25 33.4 68.4 44.45 72.9 L45.75 71.55 Q46.75 70.2 47.1 70.2" fill="#d79f7e" fill-rule="evenodd" stroke="none"/>
    <path d="M84.9 67.55 Q84.25 67.55 83.8 67.85 83.35 68.1 83.35 68.45 L83.8 69.1 84.9 69.35 86.0 69.1 86.45 68.45 86.0 67.85 Q85.55 67.55 84.9 67.55 M89.05 70.6 L86.2 70.0 82.35 71.0 78.15 71.95 Q75.8 71.95 74.55 72.5 73.35 73.05 71.4 73.05 L70.55 72.6 70.45 71.75 Q72.05 69.55 76.55 68.05 77.25 68.05 78.0 69.15 78.7 70.2 79.45 70.2 80.6 70.2 84.15 67.55 87.55 65.7 88.95 68.9 L89.3 68.2 Q89.5 67.9 90.1 67.9 91.1 67.9 90.55 68.15 90.65 69.65 91.6 69.65 L94.65 68.35 Q95.45 68.35 96.25 68.8 97.2 69.35 97.2 70.15 97.2 71.15 96.9 70.7 L93.1 71.15 89.05 70.6 M68.15 67.8 L67.6 67.55 Q67.3 67.55 67.1 67.8 66.85 68.0 66.85 68.3 L67.1 68.85 Q67.3 69.05 67.6 69.05 L68.15 68.85 68.35 68.3 68.15 67.8 M94.8 70.15 L95.05 69.8 94.8 69.45 94.15 69.3 93.55 69.45 93.25 69.8 93.55 70.15 94.15 70.3 94.8 70.15 M65.4 70.85 Q64.8 72.45 62.6 72.45 L60.25 72.0 Q58.05 71.15 58.05 69.35 L60.25 64.7 Q61.1 64.7 65.1 66.3 69.4 68.05 69.4 68.85 69.4 69.95 68.45 70.1 65.9 69.5 65.4 70.85 M71.8 71.35 Q71.8 72.35 72.0 71.8 L73.95 71.35 75.65 70.85 77.25 71.0 78.25 70.9 77.75 70.0 Q77.1 69.3 75.05 69.3 73.8 69.3 72.8 69.9 71.8 70.5 71.8 71.35 M61.2 70.7 Q62.35 70.9 63.85 70.0 L65.75 68.3 Q64.95 66.95 63.2 66.65 61.25 66.4 60.1 67.95 L61.05 68.95 61.45 69.2 61.2 70.7 M51.7 61.65 L51.25 62.35 50.1 62.6 49.0 62.35 Q48.5 62.05 48.5 61.65 48.5 61.25 49.0 61.0 49.45 60.7 50.1 60.7 50.75 60.7 51.25 61.0 L51.7 61.65 M50.6 69.2 Q49.8 69.75 49.8 70.5 49.8 71.25 50.6 71.8 51.4 72.35 52.5 72.35 53.6 72.35 54.4 71.8 55.2 71.25 55.2 70.5 55.2 69.75 54.4 69.2 53.6 68.65 52.5 68.65 51.4 68.65 50.6 69.2 M43.55 67.4 Q42.95 66.8 42.1 66.8 41.25 66.8 40.7 67.4 40.1 68.0 40.1 68.85 40.1 69.7 40.7 70.3 41.25 70.9 42.1 70.9 42.95 70.9 43.55 70.3 44.1 69.7 44.1 68.85 44.1 68.0 43.55 67.4 M49.1 65.75 Q48.35 65.1 47.25 65.1 46.15 65.1 45.4 65.75 44.65 66.4 44.65 67.3 44.65 68.2 45.4 68.85 46.15 69.5 47.25 69.5 48.35 69.5 49.1 68.85 49.85 68.2 49.85 67.3 49.85 66.4 49.1 65.75 M47.1 70.2 Q46.75 70.2 45.75 71.55 L44.45 72.9 Q33.4 68.4 38.7 66.25 40.35 65.5 42.45 64.05 44.6 62.95 48.8 62.95 53.95 62.95 56.35 67.4 57.55 69.65 57.7 71.95 57.7 72.45 55.8 73.25 53.95 74.05 52.75 74.05 51.1 74.05 49.65 72.15 48.2 70.2 47.1 70.2 M53.05 65.85 Q52.5 65.85 52.1 66.25 51.7 66.6 51.7 67.15 51.7 67.7 52.1 68.1 52.5 68.45 53.05 68.45 53.6 68.45 54.0 68.1 54.4 67.7 54.4 67.15 54.4 66.6 54.0 66.25 53.6 65.85 53.05 65.85" fill="#e9b596" fill-rule="evenodd" stroke="none"/>
    <path d="M84.9 67.55 Q85.55 67.55 86.0 67.85 L86.45 68.45 86.0 69.1 84.9 69.35 83.8 69.1 83.35 68.45 Q83.35 68.1 83.8 67.85 84.25 67.55 84.9 67.55 M94.8 70.15 L94.15 70.3 93.55 70.15 93.25 69.8 93.55 69.45 94.15 69.3 94.8 69.45 95.05 69.8 94.8 70.15 M68.15 67.8 L68.35 68.3 68.15 68.85 67.6 69.05 Q67.3 69.05 67.1 68.85 L66.85 68.3 Q66.85 68.0 67.1 67.8 67.3 67.55 67.6 67.55 L68.15 67.8 M61.2 70.7 L61.45 69.2 61.05 68.95 60.1 67.95 Q61.25 66.4 63.2 66.65 64.95 66.95 65.75 68.3 L63.85 70.0 Q62.35 70.9 61.2 70.7 M71.8 71.35 Q71.8 70.5 72.8 69.9 73.8 69.3 75.05 69.3 77.1 69.3 77.75 70.0 L78.25 70.9 77.25 71.0 75.65 70.85 73.95 71.35 72.0 71.8 Q71.8 72.35 71.8 71.35 M49.1 65.75 Q49.85 66.4 49.85 67.3 49.85 68.2 49.1 68.85 48.35 69.5 47.25 69.5 46.15 69.5 45.4 68.85 44.65 68.2 44.65 67.3 44.65 66.4 45.4 65.75 46.15 65.1 47.25 65.1 48.35 65.1 49.1 65.75 M43.55 67.4 Q44.1 68.0 44.1 68.85 44.1 69.7 43.55 70.3 42.95 70.9 42.1 70.9 41.25 70.9 40.7 70.3 40.1 69.7 40.1 68.85 40.1 68.0 40.7 67.4 41.25 66.8 42.1 66.8 42.95 66.8 43.55 67.4 M50.6 69.2 Q51.4 68.65 52.5 68.65 53.6 68.65 54.4 69.2 55.2 69.75 55.2 70.5 55.2 71.25 54.4 71.8 53.6 72.35 52.5 72.35 51.4 72.35 50.6 71.8 49.8 71.25 49.8 70.5 49.8 69.75 50.6 69.2 M53.05 65.85 Q53.6 65.85 54.0 66.25 54.4 66.6 54.4 67.15 54.4 67.7 54.0 68.1 53.6 68.45 53.05 68.45 52.5 68.45 52.1 68.1 51.7 67.7 51.7 67.15 51.7 66.6 52.1 66.25 52.5 65.85 53.05 65.85" fill="#ffd1b6" fill-rule="evenodd" stroke="none"/>
    <path d="M68.05 8.1 Q72.7 8.1 76.05 11.45 79.4 14.8 79.4 19.5 L79.4 20.05 Q79.2 24.4 76.05 27.5 72.7 30.85 68.05 30.85 63.35 30.85 60.0 27.5 57.5 25.0 56.9 21.7 L56.7 20.1 56.65 19.5 Q56.65 18.25 56.9 17.15 57.5 13.9 60.0 11.45 63.35 8.1 68.05 8.1" fill="#468073" fill-rule="evenodd" stroke="none"/>
  </g>
</svg>
