<?xml version="1.0" encoding="UTF-8" standalone="no"?>
<svg xmlns:ffdec="https://www.free-decompiler.com/flash" xmlns:xlink="http://www.w3.org/1999/xlink" ffdec:objectType="shape" height="44.65px" width="43.15px" xmlns="http://www.w3.org/2000/svg">
  <g transform="matrix(1.0, 0.0, 0.0, 1.0, 22.35, 9.3)">
    <path d="M2.35 -2.9 L2.5 -2.85 Q11.25 1.25 12.45 2.15 17.25 5.6 19.45 9.0 20.8 11.05 20.8 12.25 20.8 14.15 18.85 16.25 16.7 18.55 14.0 18.85 15.15 22.2 16.3 23.95 16.75 24.6 16.75 26.8 16.75 28.45 13.5 30.75 10.05 33.2 7.05 33.2 L5.2 32.85 3.3 32.45 Q2.55 32.45 0.45 33.9 -1.65 35.35 -2.45 35.35 -5.9 35.35 -8.05 34.5 -11.45 33.2 -11.1 30.0 L-11.15 30.3 -11.85 30.4 Q-19.1 30.4 -21.2 25.95 -22.35 23.5 -22.35 16.1 -22.35 13.15 -20.0 10.45 -18.25 8.45 -11.4 2.65 L-10.65 1.75 -7.75 -0.85 Q-5.2 -3.0 -3.15 -3.3 L-9.0 2.75 Q-13.85 7.65 -19.75 12.95 -20.7 14.0 -20.7 15.6 -20.7 19.05 -20.05 22.0 -19.2 26.1 -17.35 27.2 L-17.3 27.2 -14.35 28.15 -12.15 28.7 Q-10.9 28.7 -10.05 24.65 -8.9 19.55 -7.95 18.05 -6.7 16.65 -6.4 15.95 -5.85 14.65 -5.85 11.8 -5.85 9.75 -7.85 9.75 -10.5 9.75 -13.6 13.05 -17.05 16.7 -17.9 21.65 L-18.0 21.3 -18.05 21.15 -17.9 20.8 -17.5 18.1 -17.15 15.35 Q-17.15 14.8 -17.85 14.45 L-18.95 13.85 -18.0 13.8 -16.45 13.85 -13.1 11.0 Q-10.0 8.1 -7.85 8.1 L-6.35 8.5 -4.9 8.9 Q-3.0 8.9 0.95 7.55 L8.5 7.25 8.8 7.4 Q-0.25 9.7 -3.0 11.55 -4.9 12.8 -4.9 15.15 L-4.6 16.35 -4.05 17.3 Q-3.4 17.95 -1.35 18.65 L1.5 19.35 10.65 18.15 10.65 18.2 Q12.0 18.8 12.0 17.8 L15.55 15.95 Q19.05 13.8 19.05 11.9 19.05 9.85 12.75 5.1 7.45 1.05 4.6 -0.25 L4.05 -0.55 2.9 -1.9 2.35 -2.9 M8.35 20.45 L3.75 21.0 3.6 22.2 3.4 23.55 3.7 31.0 5.45 31.3 7.65 31.5 Q11.45 30.55 12.4 29.45 14.35 27.85 15.05 26.55 L15.05 26.45 12.4 19.5 12.35 19.45 8.35 20.45 M-3.55 33.65 Q-0.55 33.85 1.0 32.55 2.05 31.65 2.05 30.95 L1.95 23.6 Q1.7 21.35 0.3 20.85 -1.45 20.2 -3.25 19.25 -4.2 18.75 -5.0 18.75 L-6.15 19.7 -7.8 21.25 Q-8.15 21.7 -8.7 24.15 -9.4 27.15 -9.4 29.55 -9.4 31.05 -8.3 32.15 -6.75 33.75 -3.55 33.65" fill="#5c4730" fill-rule="evenodd" stroke="none"/>
    <path d="M2.35 -2.9 L2.9 -1.9 4.05 -0.55 0.9 -1.15 -0.4 -1.35 -0.3 -1.15 0.05 0.85 Q-5.0 0.45 -6.95 1.9 -8.1 2.75 -9.3 4.9 L-8.55 4.8 Q-3.7 4.75 -2.25 5.7 L-0.6 6.65 Q4.45 4.7 5.95 4.7 7.7 4.7 10.05 6.7 12.3 8.6 12.3 9.7 12.3 10.95 11.05 11.2 L7.55 11.35 Q1.15 11.8 -4.05 17.3 L-4.6 16.35 -4.9 15.15 Q-4.9 12.8 -3.0 11.55 -0.25 9.7 8.8 7.4 L8.5 7.25 0.95 7.55 Q-3.0 8.9 -4.9 8.9 L-6.35 8.5 -7.85 8.1 Q-10.0 8.1 -13.1 11.0 L-16.45 13.85 -18.0 13.8 -18.95 13.85 -17.85 14.45 Q-17.15 14.8 -17.15 15.35 L-17.5 18.1 -17.9 20.8 -18.05 21.15 -18.0 21.3 -17.9 21.65 Q-17.05 16.7 -13.6 13.05 -10.5 9.75 -7.85 9.75 -5.85 9.75 -5.85 11.8 -5.85 14.65 -6.4 15.95 -6.7 16.65 -7.95 18.05 -8.65 15.55 -9.05 14.75 -9.65 13.55 -11.15 13.55 L-12.65 13.9 Q-14.0 14.4 -14.0 14.95 -14.0 15.6 -15.55 19.0 -17.1 22.5 -17.7 23.1 L-17.75 23.05 Q-18.65 20.55 -18.8 20.55 -19.1 20.55 -19.55 19.2 -20.2 17.4 -20.2 14.7 L-19.95 13.45 -19.75 12.95 Q-13.85 7.65 -9.0 2.75 L-3.15 -3.3 -1.35 -3.4 2.35 -2.9 M7.65 31.5 Q10.35 29.5 11.55 27.25 12.25 25.9 12.25 24.95 12.25 23.55 10.95 22.15 9.75 20.85 8.35 20.45 L12.35 19.45 12.4 19.5 15.05 26.45 15.05 26.55 Q14.35 27.85 12.4 29.45 11.45 30.55 7.65 31.5 M-7.8 21.25 L-6.15 19.7 -5.0 18.75 Q-4.2 18.75 -3.25 19.25 -1.45 20.2 0.3 20.85 1.7 21.35 1.95 23.6 L2.05 30.95 Q2.05 31.65 1.0 32.55 -0.55 33.85 -3.55 33.65 -2.35 32.3 -1.2 29.5 -0.25 27.25 -0.25 26.85 -0.25 24.6 -2.65 23.0 -4.8 21.55 -7.8 21.25" fill="#db9c64" fill-rule="evenodd" stroke="none"/>
    <path d="M4.05 -0.55 L4.6 -0.25 Q7.45 1.05 12.75 5.1 19.05 9.85 19.05 11.9 19.05 13.8 15.55 15.95 L12.0 17.8 Q12.0 18.8 10.65 18.2 L10.65 18.15 1.5 19.35 -1.35 18.65 Q-3.4 17.95 -4.05 17.3 1.15 11.8 7.55 11.35 L11.05 11.2 Q12.3 10.95 12.3 9.7 12.3 8.6 10.05 6.7 7.7 4.7 5.95 4.7 4.45 4.7 -0.6 6.65 L-2.25 5.7 Q-3.7 4.75 -8.55 4.8 L-9.3 4.9 Q-8.1 2.75 -6.95 1.9 -5.0 0.45 0.05 0.85 L-0.3 -1.15 -0.4 -1.35 0.9 -1.15 4.05 -0.55 M-7.95 18.05 Q-8.9 19.55 -10.05 24.65 -10.9 28.7 -12.15 28.7 L-14.35 28.15 -17.3 27.2 -17.35 27.2 Q-19.2 26.1 -20.05 22.0 -20.7 19.05 -20.7 15.6 -20.7 14.0 -19.75 12.95 L-19.95 13.45 -20.2 14.7 Q-20.2 17.4 -19.55 19.2 -19.1 20.55 -18.8 20.55 -18.65 20.55 -17.75 23.05 L-17.7 23.1 Q-17.1 22.5 -15.55 19.0 -14.0 15.6 -14.0 14.95 -14.0 14.4 -12.65 13.9 L-11.15 13.55 Q-9.65 13.55 -9.05 14.75 -8.65 15.55 -7.95 18.05 M7.65 31.5 L5.45 31.3 3.7 31.0 3.4 23.55 3.6 22.2 3.75 21.0 8.35 20.45 Q9.75 20.85 10.95 22.15 12.25 23.55 12.25 24.95 12.25 25.9 11.55 27.25 10.35 29.5 7.65 31.5 M-7.8 21.25 Q-4.8 21.55 -2.65 23.0 -0.25 24.6 -0.25 26.85 -0.25 27.25 -1.2 29.5 -2.35 32.3 -3.55 33.65 -6.75 33.75 -8.3 32.15 -9.4 31.05 -9.4 29.55 -9.4 27.15 -8.7 24.15 -8.15 21.7 -7.8 21.25" fill="#f1ba87" fill-rule="evenodd" stroke="none"/>
    <path d="M12.45 2.15 Q11.25 1.25 2.5 -2.85 L2.35 -2.9 -1.35 -3.4 -3.15 -3.3 Q-5.2 -3.0 -7.75 -0.85 L-10.65 1.75 -10.9 -1.7 Q-10.9 -3.05 -9.0 -5.55 L-7.1 -7.85 Q-7.1 -8.75 1.0 -9.3 10.6 -9.3 12.4 -4.85 13.0 -3.4 12.8 -1.1 L12.45 2.15 M5.55 -7.2 Q3.2 -7.95 1.4 -7.95 -1.45 -7.95 -4.3 -6.9 -7.65 -5.65 -8.75 -3.6 -7.95 -4.6 1.05 -4.95 L10.55 -2.9 10.85 -4.1 Q8.95 -6.15 5.55 -7.2" fill="#7824aa" fill-rule="evenodd" stroke="none"/>
    <path d="M5.55 -7.2 Q8.95 -6.15 10.85 -4.1 L10.55 -2.9 1.05 -4.95 Q-7.95 -4.6 -8.75 -3.6 -7.65 -5.65 -4.3 -6.9 -1.45 -7.95 1.4 -7.95 3.2 -7.95 5.55 -7.2" fill="#b75cf3" fill-rule="evenodd" stroke="none"/>
  </g>
</svg>
