<?xml version="1.0" encoding="UTF-8" standalone="no"?>
<svg xmlns:ffdec="https://www.free-decompiler.com/flash" xmlns:xlink="http://www.w3.org/1999/xlink" ffdec:objectType="shape" height="64.2px" width="42.05px" xmlns="http://www.w3.org/2000/svg">
  <g transform="matrix(1.0, 0.0, 0.0, 1.0, 10.75, 10.05)">
    <path d="M-9.3 -7.45 Q-7.35 -10.05 -2.35 -10.05 1.75 -10.05 6.15 -4.05 8.4 -1.1 10.1 1.8 L12.45 5.55 15.2 10.25 19.4 17.55 Q23.15 24.4 23.75 26.5 23.9 27.0 27.6 34.1 31.3 41.85 31.3 45.95 31.3 48.7 29.4 51.2 27.2 54.15 23.85 54.15 18.2 54.15 14.3 48.8 L10.8 42.3 4.25 33.05 -5.75 14.75 Q-10.75 4.9 -10.75 -1.8 -10.75 -5.55 -9.3 -7.45 M-7.25 -7.4 Q-9.5 -5.6 -9.5 -1.8 -9.9 -0.05 -9.0 4.05 -8.1 8.15 -6.3 11.05 -4.45 13.9 -0.3 22.1 3.85 30.3 7.35 35.2 L10.9 40.3 15.05 47.35 Q19.1 52.8 23.85 52.8 25.65 52.8 27.5 51.25 30.0 49.15 30.0 45.45 30.0 40.8 26.4 33.65 L22.0 25.0 20.35 21.95 Q18.6 19.8 15.5 14.3 L11.7 7.5 10.55 5.35 9.05 3.05 4.75 -3.9 Q1.45 -8.65 -3.8 -8.65 -5.7 -8.65 -7.25 -7.4" fill="#0c0c0c" fill-rule="evenodd" stroke="none"/>
    <path d="M-3.1 -5.95 Q-1.35 -5.95 1.2 -1.65 3.4 2.1 3.4 2.75 3.4 3.15 0.9 4.95 -1.8 6.9 -3.15 6.9 -3.55 6.9 -4.25 5.45 L-6.05 1.4 Q-6.8 -0.25 -6.2 -2.85 -5.5 -5.95 -3.1 -5.95 M17.55 39.9 Q16.6 39.9 15.6 38.45 14.6 36.9 12.9 32.75 14.8 31.8 20.45 30.25 20.95 30.25 21.95 32.0 23.2 34.15 23.2 36.55 23.2 37.2 22.0 38.3 20.25 39.9 17.55 39.9 M-2.9 8.4 Q-2.9 7.7 -1.7 7.2 L1.8 6.0 4.4 5.85 Q5.3 6.25 6.55 8.2 9.45 12.7 9.75 13.85 L9.6 18.45 13.1 18.3 Q14.45 19.15 15.75 22.35 L17.7 25.3 Q19.3 27.65 19.3 28.25 19.3 28.7 16.3 29.8 12.95 31.0 10.5 31.0 8.85 31.0 2.95 20.75 -2.9 10.65 -2.9 8.4 M19.85 44.9 Q19.85 42.25 21.4 41.0 22.5 40.1 24.1 40.1 25.2 40.1 25.85 41.6 26.35 42.75 26.35 43.8 26.35 45.3 24.6 46.4 23.25 47.25 22.45 47.25 20.8 47.25 20.2 46.4 19.85 45.9 19.85 44.9" fill="#3c3c3c" fill-rule="evenodd" stroke="none"/>
    <path d="M-3.1 -5.95 Q-5.5 -5.95 -6.2 -2.85 -6.8 -0.25 -6.05 1.4 L-4.25 5.45 Q-3.55 6.9 -3.15 6.9 -1.8 6.9 0.9 4.95 3.4 3.15 3.4 2.75 3.4 2.1 1.2 -1.65 -1.35 -5.95 -3.1 -5.95 M-0.15 -6.35 Q1.5 -5.25 2.55 -3.9 L5.4 0.15 Q7.2 2.9 7.35 5.8 L10.15 10.05 11.9 13.2 16.2 19.8 Q18.65 23.35 19.25 26.4 21.4 27.2 23.1 31.2 L27.5 43.85 Q26.9 46.55 24.25 47.85 22.5 48.7 20.65 48.7 L17.6 45.4 18.0 44.4 18.75 42.8 Q11.85 37.1 9.2 34.0 6.4 30.8 4.55 26.15 3.4 23.25 1.05 19.85 L-3.1 14.05 Q-8.05 6.95 -8.05 0.2 -8.05 -7.5 -2.4 -7.5 -1.8 -7.5 -0.15 -6.35 M-2.9 8.4 Q-2.9 10.65 2.95 20.75 8.85 31.0 10.5 31.0 12.95 31.0 16.3 29.8 19.3 28.7 19.3 28.25 19.3 27.65 17.7 25.3 L15.75 22.35 Q14.45 19.15 13.1 18.3 L9.6 18.45 9.75 13.85 Q9.45 12.7 6.55 8.2 5.3 6.25 4.4 5.85 L1.8 6.0 -1.7 7.2 Q-2.9 7.7 -2.9 8.4 M17.55 39.9 Q20.25 39.9 22.0 38.3 23.2 37.2 23.2 36.55 23.2 34.15 21.95 32.0 20.95 30.25 20.45 30.25 14.8 31.8 12.9 32.75 14.6 36.9 15.6 38.45 16.6 39.9 17.55 39.9 M19.85 44.9 Q19.85 45.9 20.2 46.4 20.8 47.25 22.45 47.25 23.25 47.25 24.6 46.4 26.35 45.3 26.35 43.8 26.35 42.75 25.85 41.6 25.2 40.1 24.1 40.1 22.5 40.1 21.4 41.0 19.85 42.25 19.85 44.9" fill="#2e2e2e" fill-rule="evenodd" stroke="none"/>
    <path d="M-7.25 -7.4 Q-5.7 -8.65 -3.8 -8.65 1.45 -8.65 4.75 -3.9 L9.05 3.05 10.55 5.35 11.7 7.5 15.5 14.3 Q18.6 19.8 20.35 21.95 L22.0 25.0 26.4 33.65 Q30.0 40.8 30.0 45.45 30.0 49.15 27.5 51.25 25.65 52.8 23.85 52.8 19.1 52.8 15.05 47.35 L10.9 40.3 7.35 35.2 Q3.85 30.3 -0.3 22.1 -4.45 13.9 -6.3 11.05 -8.1 8.15 -9.0 4.05 -9.9 -0.05 -9.5 -1.8 -9.5 -5.6 -7.25 -7.4 M-0.15 -6.35 Q-1.8 -7.5 -2.4 -7.5 -8.05 -7.5 -8.05 0.2 -8.05 6.95 -3.1 14.05 L1.05 19.85 Q3.4 23.25 4.55 26.15 6.4 30.8 9.2 34.0 11.85 37.1 18.75 42.8 L18.0 44.4 17.6 45.4 20.65 48.7 Q22.5 48.7 24.25 47.85 26.9 46.55 27.5 43.85 L23.1 31.2 Q21.4 27.2 19.25 26.4 18.65 23.35 16.2 19.8 L11.9 13.2 10.15 10.05 7.35 5.8 Q7.2 2.9 5.4 0.15 L2.55 -3.9 Q1.5 -5.25 -0.15 -6.35" fill="#232323" fill-rule="evenodd" stroke="none"/>
  </g>
</svg>
