<?xml version="1.0" encoding="UTF-8" standalone="no"?>
<svg xmlns:ffdec="https://www.free-decompiler.com/flash" xmlns:xlink="http://www.w3.org/1999/xlink" ffdec:objectType="shape" height="78.1px" width="82.8px" xmlns="http://www.w3.org/2000/svg">
  <g transform="matrix(1.0, 0.0, 0.0, 1.0, 46.0, 66.65)">
    <path d="M-32.4 -54.8 L-30.65 -55.3 -24.75 -56.3 -19.2 -57.4 Q-17.7 -57.8 -15.05 -59.1 L-13.95 -59.6 -10.45 -61.3 -13.95 -59.05 Q-20.9 -54.9 -27.5 -53.95 L-34.65 -52.5 -35.4 -52.25 Q-36.7 -51.8 -38.2 -50.7 L-42.65 -46.75 -46.0 -42.9 -46.0 -44.3 Q-42.25 -50.05 -36.8 -52.95 -34.75 -54.1 -32.4 -54.8 M12.55 -34.6 Q10.55 -39.5 5.85 -47.1 L0.25 -55.7 -0.55 -57.05 2.65 -54.5 Q9.35 -48.3 13.85 -37.55 18.7 -25.8 18.7 -15.05 L18.7 -13.0 Q18.5 -6.15 17.5 -2.45 16.95 -0.45 14.2 4.95 L13.75 5.6 10.65 9.35 10.7 9.25 11.8 6.9 Q13.15 3.7 14.65 -1.6 L15.85 -6.35 Q16.8 -10.85 16.8 -13.7 16.8 -16.7 15.55 -23.3 14.15 -30.55 12.55 -34.6 M35.3 -37.65 L34.85 -40.4 Q34.1 -44.7 32.95 -48.4 L35.3 -45.5 35.4 -45.3 35.5 -45.2 35.65 -44.95 Q36.8 -39.7 36.8 -33.9 L36.65 -30.85 36.55 -29.95 35.95 -24.95 Q36.15 -31.3 35.3 -37.65 M10.9 -57.7 L12.85 -56.8 Q21.5 -52.2 25.05 -45.0 27.75 -39.45 28.35 -30.45 L28.5 -25.05 Q28.5 -20.4 27.95 -15.8 27.1 -8.4 24.85 -1.1 L23.6 2.65 21.6 6.65 19.15 11.45 19.0 10.95 20.55 7.55 21.7 4.75 22.85 1.85 Q24.7 -3.9 25.95 -9.1 L26.8 -13.45 Q27.8 -19.2 27.8 -23.2 27.8 -35.25 23.7 -43.5 L23.1 -44.7 Q19.05 -52.05 10.9 -57.7 M-29.35 -59.1 L-27.0 -61.55 -21.15 -64.75 Q-18.6 -65.95 -15.3 -66.4 L-11.25 -66.65 -6.1 -66.0 -3.9 -65.65 -0.05 -64.8 -1.85 -64.4 -4.65 -64.5 -6.65 -64.75 -14.8 -64.45 Q-18.25 -63.8 -23.2 -61.8 L-23.65 -61.6 Q-27.2 -60.25 -29.35 -59.1" fill="#a47620" fill-rule="evenodd" stroke="none"/>
  </g>
</svg>
