<?xml version="1.0" encoding="UTF-8" standalone="no"?>
<svg xmlns:ffdec="https://www.free-decompiler.com/flash" xmlns:xlink="http://www.w3.org/1999/xlink" ffdec:objectType="shape" height="4.55px" width="35.25px" xmlns="http://www.w3.org/2000/svg">
  <g transform="matrix(1.0, 0.0, 0.0, 1.0, 18.05, 15.05)">
    <path d="M-17.2 -10.5 L-17.85 -10.9 Q-18.1 -11.25 -18.0 -11.65 L-17.65 -12.3 Q-11.35 -16.9 -4.95 -12.3 L-4.55 -11.65 Q-4.5 -11.25 -4.75 -10.9 L-5.35 -10.5 -6.1 -10.65 Q-11.35 -14.4 -16.45 -10.7 -16.8 -10.45 -17.2 -10.5 M1.0 -10.65 L0.25 -10.5 Q-0.2 -10.6 -0.4 -10.95 L-0.5 -11.7 -0.1 -12.35 Q8.35 -17.75 16.75 -12.35 L17.2 -11.7 17.05 -10.95 Q16.8 -10.6 16.4 -10.5 L15.65 -10.65 Q8.35 -15.35 1.0 -10.65" fill="#342216" fill-rule="evenodd" stroke="none"/>
  </g>
</svg>
