<?xml version="1.0" encoding="UTF-8" standalone="no"?>
<svg xmlns:ffdec="https://www.free-decompiler.com/flash" xmlns:xlink="http://www.w3.org/1999/xlink" ffdec:objectType="shape" height="9.1px" width="33.5px" xmlns="http://www.w3.org/2000/svg">
  <g transform="matrix(1.0, 0.0, 0.0, 1.0, 18.05, 10.1)">
    <path d="M-18.0 -4.95 Q-18.15 -5.4 -17.9 -5.75 L-17.3 -6.2 Q-11.75 -7.8 -5.05 -4.1 L-4.6 -3.5 Q-4.5 -3.15 -4.65 -2.75 L-5.25 -2.3 -6.0 -2.35 Q-11.85 -5.6 -16.75 -4.25 L-17.55 -4.35 -18.0 -4.95 M1.0 -1.4 Q0.75 -1.05 0.35 -1.0 L-0.4 -1.2 -0.8 -1.85 -0.6 -2.6 Q7.15 -13.05 14.9 -8.9 L15.4 -8.3 15.35 -7.55 14.75 -7.05 14.0 -7.1 Q7.55 -10.25 1.0 -1.4" fill="#342216" fill-rule="evenodd" stroke="none"/>
  </g>
</svg>
