<?xml version="1.0" encoding="UTF-8" standalone="no"?>
<svg xmlns:ffdec="https://www.free-decompiler.com/flash" xmlns:xlink="http://www.w3.org/1999/xlink" ffdec:objectType="shape" height="7.3px" width="35.25px" xmlns="http://www.w3.org/2000/svg">
  <g transform="matrix(1.0, 0.0, 0.0, 1.0, 18.05, 11.55)">
    <path d="M-18.0 -5.05 L-17.85 -5.8 Q-14.9 -10.3 -11.55 -10.2 -8.25 -10.3 -4.75 -5.85 -4.5 -5.55 -4.55 -5.1 -4.6 -4.7 -4.9 -4.45 -5.25 -4.2 -5.65 -4.25 -6.1 -4.3 -6.3 -4.6 -9.1 -8.1 -11.55 -8.2 -13.95 -8.1 -16.2 -4.7 -16.45 -4.35 -16.85 -4.25 L-17.6 -4.4 -18.0 -5.05 M1.3 -4.7 Q1.05 -4.35 0.65 -4.25 L-0.1 -4.4 Q-0.45 -4.65 -0.5 -5.05 L-0.35 -5.8 Q3.5 -11.65 7.9 -11.55 12.25 -11.65 17.0 -5.85 L17.2 -5.15 16.85 -4.45 16.1 -4.25 Q15.7 -4.3 15.45 -4.6 11.45 -9.5 7.9 -9.55 4.45 -9.5 1.3 -4.7" fill="#342216" fill-rule="evenodd" stroke="none"/>
  </g>
</svg>
