<?xml version="1.0" encoding="UTF-8" standalone="no"?>
<svg xmlns:ffdec="https://www.free-decompiler.com/flash" xmlns:xlink="http://www.w3.org/1999/xlink" ffdec:objectType="shape" height="10.05px" width="35.25px" xmlns="http://www.w3.org/2000/svg">
  <g transform="matrix(1.0, 0.0, 0.0, 1.0, 18.05, 14.25)">
    <path d="M-7.0 -14.1 L-6.55 -13.45 Q-6.5 -13.05 -6.7 -12.7 -11.2 -5.75 -16.75 -4.25 L-17.55 -4.35 -18.0 -4.95 Q-18.15 -5.4 -17.9 -5.75 L-17.3 -6.2 Q-12.4 -7.65 -8.4 -13.8 L-7.75 -14.2 -7.0 -14.1 M2.75 -9.95 Q2.65 -10.35 2.85 -10.7 L3.45 -11.2 4.2 -11.1 Q8.75 -8.6 16.5 -6.2 L17.1 -5.7 17.15 -4.95 16.65 -4.35 15.9 -4.3 Q7.95 -6.8 3.25 -9.35 2.85 -9.6 2.75 -9.95" fill="#342216" fill-rule="evenodd" stroke="none"/>
  </g>
</svg>
