<?xml version="1.0" encoding="UTF-8" standalone="no"?>
<svg xmlns:ffdec="https://www.free-decompiler.com/flash" xmlns:xlink="http://www.w3.org/1999/xlink" ffdec:objectType="shape" height="18.6px" width="38.6px" xmlns="http://www.w3.org/2000/svg">
  <g transform="matrix(1.0, 0.0, 0.0, 1.0, 12.15, 3.5)">
    <path d="M16.75 0.25 L17.5 1.95 11.3 3.9 Q7.75 4.8 3.55 4.8 L-1.25 4.15 -5.0 2.7 -4.05 1.1 6.15 2.9 10.35 2.1 16.75 0.25" fill="#cfac89" fill-rule="evenodd" stroke="none"/>
    <path d="M20.05 -1.3 L20.55 -0.75 Q18.9 2.3 18.25 1.65 18.45 2.0 18.45 7.1 18.45 7.75 17.1 8.65 15.05 10.0 11.35 10.05 L7.75 10.35 5.3 10.6 -5.55 8.9 Q-5.9 8.65 -5.4 6.45 -4.9 4.3 -4.9 3.15 -4.9 2.6 -5.6 2.3 L-7.15 1.55 -6.1 0.3 -4.05 1.1 -5.0 2.7 -1.25 4.15 3.55 4.8 Q7.75 4.8 11.3 3.9 L17.5 1.95 16.75 0.25 Q18.4 -0.55 20.05 -1.3" fill="#bf9162" fill-rule="evenodd" stroke="none"/>
    <path d="M20.55 -0.75 Q22.55 5.7 22.55 6.65 22.55 9.1 15.3 11.05 9.5 12.6 5.85 12.6 2.15 12.6 -2.45 11.4 -8.2 9.9 -9.55 7.6 L-7.15 1.55 -5.6 2.3 Q-4.9 2.6 -4.9 3.15 -4.9 4.3 -5.4 6.45 -5.9 8.65 -5.55 8.9 L5.3 10.6 7.75 10.35 11.35 10.05 Q15.05 10.0 17.1 8.65 18.45 7.75 18.45 7.1 18.45 2.0 18.25 1.65 18.9 2.3 20.55 -0.75" fill="#b47e49" fill-rule="evenodd" stroke="none"/>
    <path d="M20.55 -0.75 L20.05 -1.3 Q21.05 -1.6 23.1 2.3 24.7 5.2 24.7 6.2 24.7 6.7 21.4 9.0 17.75 11.5 15.05 12.3 L9.5 13.2 4.85 13.8 Q-0.65 13.8 -4.75 12.05 -6.95 11.1 -11.1 8.2 L-7.7 0.2 -6.1 0.3 -7.15 1.55 -9.55 7.6 Q-8.2 9.9 -2.45 11.4 2.15 12.6 5.85 12.6 9.5 12.6 15.3 11.05 22.55 9.1 22.55 6.65 22.55 5.7 20.55 -0.75" fill="#92663a" fill-rule="evenodd" stroke="none"/>
    <path d="M13.4 -0.3 L20.95 -3.5 24.45 2.0 Q26.45 5.25 26.45 6.8 26.45 8.3 20.2 11.45 12.95 15.1 6.1 15.1 -1.0 15.1 -6.75 12.75 -12.15 10.55 -12.15 8.2 L-12.05 7.3 -11.95 7.15 Q-8.95 1.2 -7.5 -2.25 -0.25 1.3 5.55 1.3 9.5 1.3 13.4 -0.3 M-6.1 0.3 L-7.7 0.2 -11.1 8.2 Q-6.95 11.1 -4.75 12.05 -0.65 13.8 4.85 13.8 L9.5 13.2 15.05 12.3 Q17.75 11.5 21.4 9.0 24.7 6.7 24.7 6.2 24.7 5.2 23.1 2.3 21.05 -1.6 20.05 -1.3 18.4 -0.55 16.75 0.25 L10.35 2.1 6.15 2.9 -4.05 1.1 -6.1 0.3" fill="#5f4225" fill-rule="evenodd" stroke="none"/>
  </g>
</svg>
