<?xml version="1.0" encoding="UTF-8" standalone="no"?>
<svg xmlns:ffdec="https://www.free-decompiler.com/flash" xmlns:xlink="http://www.w3.org/1999/xlink" ffdec:objectType="shape" height="4.15px" width="33.15px" xmlns="http://www.w3.org/2000/svg">
  <g transform="matrix(1.0, 0.0, 0.0, 1.0, 17.8, -10.0)">
    <path d="M-17.05 13.3 L-17.45 13.35 -17.75 13.1 -17.75 12.7 -17.5 12.4 Q-11.25 9.3 -5.85 13.25 L-5.65 13.6 -5.75 13.95 -6.05 14.15 -6.45 14.05 Q-11.35 10.5 -17.05 13.3 M15.0 11.05 Q15.2 11.1 15.3 11.3 L15.35 11.65 15.1 11.95 14.7 12.0 Q6.75 9.5 1.25 13.4 L0.9 13.5 0.55 13.3 0.45 12.95 Q0.5 12.7 0.65 12.6 6.55 8.4 15.0 11.05" fill="#311a0b" fill-rule="evenodd" stroke="none"/>
  </g>
</svg>
