<?xml version="1.0" encoding="UTF-8" standalone="no"?>
<svg xmlns:ffdec="https://www.free-decompiler.com/flash" xmlns:xlink="http://www.w3.org/1999/xlink" ffdec:objectType="shape" height="5.7px" width="32.3px" xmlns="http://www.w3.org/2000/svg">
  <g transform="matrix(1.0, 0.0, 0.0, 1.0, 17.15, -6.25)">
    <path d="M-5.7 7.6 L-5.45 7.9 Q-5.4 8.1 -5.5 8.3 L-5.75 8.55 -6.15 8.5 Q-12.9 5.25 -16.2 11.7 L-16.5 11.95 -16.85 11.9 -17.1 11.6 -17.1 11.25 Q-13.4 3.95 -5.7 7.6 M15.05 10.55 L15.15 10.95 15.0 11.3 14.65 11.4 Q14.4 11.4 14.3 11.25 8.3 4.8 1.05 8.9 L0.7 8.95 0.4 8.7 0.35 8.35 0.55 8.05 Q8.5 3.5 15.05 10.55" fill="#311a0b" fill-rule="evenodd" stroke="none"/>
  </g>
</svg>
