<?xml version="1.0" encoding="UTF-8" standalone="no"?>
<svg xmlns:ffdec="https://www.free-decompiler.com/flash" xmlns:xlink="http://www.w3.org/1999/xlink" ffdec:objectType="shape" height="8.9px" width="30.1px" xmlns="http://www.w3.org/2000/svg">
  <g transform="matrix(1.0, 0.0, 0.0, 1.0, 15.25, -5.8)">
    <path d="M-14.65 8.15 L-15.0 8.05 -15.25 7.75 -15.15 7.4 -14.8 7.15 Q-6.8 5.75 -5.15 14.1 -5.1 14.3 -5.2 14.5 L-5.55 14.7 -5.9 14.65 -6.15 14.3 Q-7.6 6.95 -14.65 8.15 M14.5 6.5 L14.8 6.7 14.85 7.1 14.6 7.4 14.2 7.45 Q5.75 4.95 1.6 12.15 L1.3 12.4 0.9 12.35 0.7 12.05 Q0.6 11.85 0.75 11.65 5.25 3.75 14.5 6.5" fill="#311a0b" fill-rule="evenodd" stroke="none"/>
  </g>
</svg>
