<?xml version="1.0" encoding="UTF-8" standalone="no"?>
<svg xmlns:ffdec="https://www.free-decompiler.com/flash" xmlns:xlink="http://www.w3.org/1999/xlink" ffdec:objectType="shape" height="50.45px" width="64.8px" xmlns="http://www.w3.org/2000/svg">
  <g transform="matrix(1.0, 0.0, 0.0, 1.0, 0.35, 6.4)">
    <path d="M11.2 12.35 Q15.25 8.95 16.9 8.15 23.65 4.65 34.1 4.65 43.55 4.65 49.95 8.3 55.5 11.45 55.5 14.85 55.5 16.7 53.0 19.4 48.95 23.7 40.6 26.3 37.1 19.5 29.45 15.45 20.9 10.85 11.2 12.35" fill="#ffffff" fill-rule="evenodd" stroke="none"/>
    <path d="M42.05 31.55 Q51.65 28.55 56.2 23.25 59.3 19.65 59.3 16.5 59.3 13.3 54.1 9.2 47.0 3.65 35.25 3.65 25.05 3.65 16.6 7.6 12.15 9.7 8.65 12.7 L4.7 14.45 Q8.2 9.85 14.15 6.3 23.45 0.8 35.15 0.8 46.8 0.8 55.15 6.7 62.85 12.1 62.85 18.4 62.85 23.05 58.4 28.25 52.85 34.75 42.4 39.05 L42.05 31.55" fill="#d3d3d3" fill-rule="evenodd" stroke="none"/>
    <path d="M32.75 -0.7 L34.4 -0.75 Q40.35 -0.65 44.6 0.4 49.4 1.65 55.2 4.95 L56.5 5.85 Q64.45 12.25 64.45 19.05 64.45 23.0 58.85 29.8 51.95 38.15 42.4 40.65 L42.4 39.05 Q52.85 34.75 58.4 28.25 62.85 23.05 62.85 18.4 62.85 12.1 55.15 6.7 46.8 0.8 35.15 0.8 23.45 0.8 14.15 6.3 8.2 9.85 4.7 14.45 L1.45 17.05 Q4.15 9.95 15.0 4.3 25.05 -0.9 32.75 -0.7" fill="#525252" fill-rule="evenodd" stroke="none"/>
    <path d="M8.65 12.7 Q12.15 9.7 16.6 7.6 25.05 3.65 35.25 3.65 47.0 3.65 54.1 9.2 59.3 13.3 59.3 16.5 59.3 19.65 56.2 23.25 51.65 28.55 42.05 31.55 L40.6 26.3 Q48.95 23.7 53.0 19.4 55.5 16.7 55.5 14.85 55.5 11.45 49.95 8.3 43.55 4.65 34.1 4.65 23.65 4.65 16.9 8.15 15.25 8.95 11.2 12.35 L8.65 12.7" fill="#e9e9e9" fill-rule="evenodd" stroke="none"/>
    <path d="M32.75 -0.7 Q34.05 -3.75 37.65 -5.3 40.2 -6.4 42.65 -6.4 46.4 -6.4 51.9 -4.55 59.45 -2.0 59.45 2.0 59.45 3.45 56.5 5.85 L55.2 4.95 57.9 1.85 Q55.55 -2.15 50.05 -3.85 46.6 -4.95 42.8 -4.95 40.35 -4.95 37.7 -3.4 35.75 -2.25 34.4 -0.75 L32.75 -0.7 M42.4 40.65 Q33.6 44.05 23.7 44.05 11.3 44.05 5.15 38.6 -0.35 33.75 -0.35 25.0 L0.45 20.9 1.45 17.05 4.7 14.45 Q1.15 19.7 1.15 25.05 1.15 32.6 5.65 37.05 11.15 42.5 22.9 42.5 L31.5 41.95 Q38.45 41.1 42.4 39.05 L42.4 40.65" fill="#0d0d0d" fill-rule="evenodd" stroke="none"/>
    <path d="M34.4 -0.75 Q35.75 -2.25 37.7 -3.4 40.35 -4.95 42.8 -4.95 46.6 -4.95 50.05 -3.85 55.55 -2.15 57.9 1.85 L55.2 4.95 Q49.4 1.65 44.6 0.4 40.35 -0.65 34.4 -0.75 M42.05 31.55 L42.4 39.05 Q38.45 41.1 31.5 41.95 L22.9 42.5 Q11.15 42.5 5.65 37.05 1.15 32.6 1.15 25.05 1.15 19.7 4.7 14.45 L8.65 12.7 Q7.05 14.45 5.85 16.85 4.35 19.9 4.35 22.55 4.35 34.5 26.35 34.5 L34.05 33.35 42.05 31.55" fill="#242424" fill-rule="evenodd" stroke="none"/>
    <path d="M8.65 12.7 L11.2 12.35 Q10.05 14.2 9.1 16.35 8.25 18.3 8.25 18.8 8.25 23.85 13.5 26.3 18.15 28.5 26.4 28.5 32.5 28.5 40.6 26.3 L42.05 31.55 34.05 33.35 26.35 34.5 Q4.35 34.5 4.35 22.55 4.35 19.9 5.85 16.85 7.05 14.45 8.65 12.7" fill="#353535" fill-rule="evenodd" stroke="none"/>
    <path d="M40.6 26.3 Q32.5 28.5 26.4 28.5 18.15 28.5 13.5 26.3 8.25 23.85 8.25 18.8 8.25 18.3 9.1 16.35 10.05 14.2 11.2 12.35 20.9 10.85 29.45 15.45 37.1 19.5 40.6 26.3" fill="#454545" fill-rule="evenodd" stroke="none"/>
  </g>
</svg>
