<?xml version="1.0" encoding="UTF-8" standalone="no"?>
<svg xmlns:ffdec="https://www.free-decompiler.com/flash" xmlns:xlink="http://www.w3.org/1999/xlink" ffdec:objectType="shape" height="32.3px" width="62.95px" xmlns="http://www.w3.org/2000/svg">
  <g transform="matrix(1.0, 0.0, 0.0, 1.0, 3.65, 8.4)">
    <path d="M21.8 -3.25 Q20.4 -2.4 20.4 -1.15 20.4 0.1 21.8 1.0 23.2 1.85 25.15 1.85 27.1 1.85 28.5 1.0 29.9 0.1 29.9 -1.15 29.9 -2.4 28.5 -3.25 27.1 -4.15 25.15 -4.15 23.2 -4.15 21.8 -3.25 M36.95 -1.05 Q36.25 -1.05 35.75 -0.65 35.25 -0.3 35.25 0.2 35.25 0.7 35.75 1.1 36.25 1.45 36.95 1.45 L38.15 1.1 Q38.65 0.7 38.65 0.2 38.65 -0.3 38.15 -0.65 37.65 -1.05 36.95 -1.05 M24.85 -5.8 Q34.3 -5.8 41.9 -2.0 49.7 1.9 53.25 8.65 46.95 6.85 38.8 5.7 L22.3 4.5 Q18.25 4.5 12.2 6.2 L3.65 8.9 Q3.4 8.2 3.4 7.2 3.4 2.1 10.8 -2.0 17.7 -5.8 24.85 -5.8" fill="#353535" fill-rule="evenodd" stroke="none"/>
    <path d="M36.95 -1.05 Q37.65 -1.05 38.15 -0.65 38.65 -0.3 38.65 0.2 38.65 0.7 38.15 1.1 L36.95 1.45 Q36.25 1.45 35.75 1.1 35.25 0.7 35.25 0.2 35.25 -0.3 35.75 -0.65 36.25 -1.05 36.95 -1.05 M21.8 -3.25 Q23.2 -4.15 25.15 -4.15 27.1 -4.15 28.5 -3.25 29.9 -2.4 29.9 -1.15 29.9 0.1 28.5 1.0 27.1 1.85 25.15 1.85 23.2 1.85 21.8 1.0 20.4 0.1 20.4 -1.15 20.4 -2.4 21.8 -3.25" fill="#454545" fill-rule="evenodd" stroke="none"/>
    <path d="M0.15 23.9 Q-2.2 24.15 -3.15 19.7 L-3.65 15.1 Q-3.65 6.45 3.2 -0.4 11.25 -8.4 24.55 -8.4 35.5 -8.4 45.6 -3.2 59.3 3.85 59.3 16.75 59.3 18.85 58.4 20.8 57.15 23.35 54.7 23.9 56.6 22.55 57.4 19.45 L57.85 16.45 Q57.85 9.65 50.7 2.55 41.2 -6.85 25.05 -6.85 11.95 -6.85 4.1 1.3 -2.35 8.0 -2.35 15.9 -2.35 19.2 0.15 23.9" fill="#0d0d0d" fill-rule="evenodd" stroke="none"/>
    <path d="M24.85 -5.8 Q17.7 -5.8 10.8 -2.0 3.4 2.1 3.4 7.2 3.4 8.2 3.65 8.9 L12.2 6.2 Q18.25 4.5 22.3 4.5 L38.8 5.7 Q46.95 6.85 53.25 8.65 49.7 1.9 41.9 -2.0 34.3 -5.8 24.85 -5.8 M0.15 23.9 Q-2.35 19.2 -2.35 15.9 -2.35 8.0 4.1 1.3 11.95 -6.85 25.05 -6.85 41.2 -6.85 50.7 2.55 57.85 9.65 57.85 16.45 L57.4 19.45 Q56.6 22.55 54.7 23.9 L0.15 23.9" fill="#242424" fill-rule="evenodd" stroke="none"/>
  </g>
</svg>
