<?xml version="1.0" encoding="UTF-8" standalone="no"?>
<svg xmlns:ffdec="https://www.free-decompiler.com/flash" xmlns:xlink="http://www.w3.org/1999/xlink" ffdec:objectType="shape" height="17.1px" width="35.85px" xmlns="http://www.w3.org/2000/svg">
  <g transform="matrix(1.0, 0.0, 0.0, 1.0, 18.15, 12.95)">
    <path d="M10.0 -11.35 L12.05 -12.65 13.0 -12.95 13.4 -12.9 13.85 -12.7 13.9 -12.7 14.55 -12.05 Q15.25 -10.8 15.55 -9.2 L15.7 -7.4 15.7 -7.35 Q15.7 -4.2 14.15 -1.9 12.3 0.8 9.75 0.7 7.15 0.8 5.3 -1.9 4.6 -2.95 4.25 -4.15 3.5 -4.35 3.15 -4.95 L3.1 -5.05 Q2.8 -5.65 2.95 -6.25 3.15 -7.0 3.75 -7.35 L3.85 -7.4 4.65 -7.9 4.7 -7.95 10.0 -11.35 M-14.5 -6.9 L-14.55 -6.45 Q-14.55 -4.8 -13.8 -3.6 L-13.8 -3.65 Q-13.3 -2.9 -12.65 -2.75 -12.05 -2.9 -11.55 -3.6 -11.0 -4.5 -10.8 -5.65 L-14.5 -6.9 M8.2 -3.85 Q8.85 -2.9 9.75 -2.8 10.6 -2.9 11.25 -3.85 12.2 -5.3 12.2 -7.3 L12.2 -7.35 12.1 -8.5 7.5 -5.55 Q7.7 -4.65 8.2 -3.85 M-14.2 -10.45 L-8.75 -8.6 -8.7 -8.6 -8.2 -8.45 Q-7.5 -8.35 -7.1 -7.7 -6.7 -7.1 -6.8 -6.4 L-7.3 -5.5 Q-7.55 -3.3 -8.65 -1.65 L-8.6 -1.7 Q-10.25 0.75 -12.6 0.75 L-12.7 0.75 Q-15.05 0.75 -16.7 -1.65 -17.8 -3.25 -18.0 -5.4 L-18.05 -6.45 Q-18.05 -7.95 -17.65 -9.1 L-17.25 -10.1 -16.35 -10.8 Q-15.8 -11.0 -15.25 -10.8 L-14.2 -10.45" fill="#3e291e" fill-rule="evenodd" stroke="none"/>
    <path d="M8.2 -3.85 Q7.7 -4.65 7.5 -5.55 L12.1 -8.5 12.2 -7.35 12.2 -7.3 Q12.2 -5.3 11.25 -3.85 10.6 -2.9 9.75 -2.8 8.85 -2.9 8.2 -3.85 M-14.5 -6.9 L-10.8 -5.65 Q-11.0 -4.5 -11.55 -3.6 -12.05 -2.9 -12.65 -2.75 -13.3 -2.9 -13.8 -3.65 L-13.8 -3.6 Q-14.55 -4.8 -14.55 -6.45 L-14.5 -6.9" fill="#f8eee9" fill-rule="evenodd" stroke="none"/>
    <path d="M10.0 -11.35 L4.7 -7.95 4.65 -7.9 3.85 -7.4 Q4.35 -8.35 5.15 -9.2 7.2 -11.2 10.0 -11.35 M3.1 -5.05 L3.15 -4.95 Q3.5 -4.35 4.25 -4.15 4.6 -2.95 5.3 -1.9 7.15 0.8 9.75 0.7 12.3 0.8 14.15 -1.9 15.7 -4.2 15.7 -7.35 L15.7 -7.4 15.55 -9.2 Q17.7 -6.95 17.7 -3.85 17.7 -0.7 15.55 1.45 13.4 3.7 10.35 3.7 7.35 3.7 5.15 1.45 3.0 -0.7 3.0 -3.85 L3.1 -5.05 M-14.2 -10.45 L-12.6 -10.85 Q-10.0 -11.15 -7.85 -9.2 -6.85 -8.2 -6.25 -6.95 -5.65 -5.65 -5.45 -4.1 -5.2 -1.5 -6.25 0.55 L-6.75 1.4 Q-8.4 3.8 -11.0 4.1 -13.6 4.35 -15.7 2.35 -17.8 0.4 -18.1 -2.75 -18.25 -4.15 -18.0 -5.4 -17.8 -3.25 -16.7 -1.65 -15.05 0.75 -12.7 0.75 L-12.6 0.75 Q-10.25 0.75 -8.6 -1.7 L-8.65 -1.65 Q-7.55 -3.3 -7.3 -5.5 L-6.8 -6.4 Q-6.7 -7.1 -7.1 -7.7 -7.5 -8.35 -8.2 -8.45 L-8.7 -8.6 -8.75 -8.6 -14.2 -10.45" fill="#f1ba87" fill-rule="evenodd" stroke="none"/>
  </g>
</svg>
