<?xml version="1.0" encoding="UTF-8" standalone="no"?>
<svg xmlns:ffdec="https://www.free-decompiler.com/flash" xmlns:xlink="http://www.w3.org/1999/xlink" ffdec:objectType="shape" height="12.2px" width="38.0px" xmlns="http://www.w3.org/2000/svg">
  <g transform="matrix(1.0, 0.0, 0.0, 1.0, 19.85, 10.65)">
    <path d="M17.55 -6.0 Q15.75 -8.8 14.1 -9.85 L15.55 -8.95 Q17.15 -7.65 17.55 -6.0" fill="#ddb79f" fill-rule="evenodd" stroke="none"/>
    <path d="M17.65 -3.85 L16.9 -3.75 Q16.5 -3.85 16.3 -4.2 13.75 -8.45 11.85 -8.5 10.05 -8.2 8.5 -3.75 L8.0 -3.2 7.25 -3.15 6.65 -3.65 Q6.45 -4.05 6.6 -4.4 8.7 -10.5 11.7 -10.5 L11.95 -10.5 Q13.1 -10.35 14.1 -9.85 15.75 -8.8 17.55 -6.0 L18.0 -5.25 18.15 -4.5 17.7 -3.9 17.65 -3.85 M-17.15 -7.7 Q-16.3 -8.35 -15.4 -8.3 -13.05 -8.5 -10.6 -4.35 L-10.45 -3.6 -10.95 -3.0 -11.7 -2.85 -12.3 -3.35 Q-14.0 -6.2 -15.35 -6.3 -16.65 -6.1 -17.95 -3.25 L-17.95 -3.2 -18.5 -2.7 -19.25 -2.75 -19.75 -3.3 -19.75 -4.05 -19.5 -4.55 Q-18.4 -6.8 -17.15 -7.7" fill="#3e291e" fill-rule="evenodd" stroke="none"/>
    <path d="M11.95 -10.5 L11.7 -10.5 Q8.7 -10.5 6.6 -4.4 6.45 -4.05 6.65 -3.65 L7.25 -3.15 8.0 -3.2 8.5 -3.75 Q10.05 -8.2 11.85 -8.5 13.75 -8.45 16.3 -4.2 16.5 -3.85 16.9 -3.75 L17.65 -3.85 Q17.3 -1.95 15.55 -0.55 13.4 1.2 10.35 1.2 7.35 1.2 5.15 -0.55 3.0 -2.25 3.0 -4.75 3.0 -7.2 5.15 -8.95 7.35 -10.65 10.35 -10.65 L11.95 -10.5 M-17.15 -7.7 L-16.8 -8.2 Q-15.2 -10.05 -12.6 -10.25 -10.0 -10.5 -7.85 -8.95 -5.8 -7.35 -5.45 -4.95 -5.15 -2.45 -6.75 -0.6 -8.4 1.3 -11.0 1.55 -13.6 1.75 -15.7 0.15 -17.5 -1.2 -17.95 -3.2 L-17.95 -3.25 Q-16.65 -6.1 -15.35 -6.3 -14.0 -6.2 -12.3 -3.35 L-11.7 -2.85 -10.95 -3.0 -10.45 -3.6 -10.6 -4.35 Q-13.05 -8.5 -15.4 -8.3 -16.3 -8.35 -17.15 -7.7" fill="#f1ba87" fill-rule="evenodd" stroke="none"/>
  </g>
</svg>
