<?xml version="1.0" encoding="UTF-8" standalone="no"?>
<svg xmlns:ffdec="https://www.free-decompiler.com/flash" xmlns:xlink="http://www.w3.org/1999/xlink" ffdec:objectType="shape" height="134.55px" width="110.2px" xmlns="http://www.w3.org/2000/svg">
  <g transform="matrix(1.0, 0.0, 0.0, 1.0, 30.55, 70.85)">
    <path d="M9.9 -54.4 Q10.45 -53.5 11.5 -52.35 L11.2 -52.35 Q-4.6 -52.35 -13.4 -41.3 -21.6 -31.05 -21.6 -14.2 -21.6 -10.55 -20.3 -1.25 -19.05 8.05 -19.05 12.7 -19.05 17.9 -21.5 23.15 L-28.0 34.85 -15.7 33.4 -15.5 36.45 Q-15.5 42.05 -18.45 46.75 -21.2 51.1 -27.4 56.0 -18.5 56.9 -11.8 50.1 -5.3 43.5 -5.05 34.15 L-4.65 36.05 -4.35 39.85 Q-4.35 43.6 -5.45 47.3 -6.75 51.5 -7.15 57.85 -3.9 57.15 -0.75 51.4 1.95 46.5 1.9 42.7 2.85 55.5 3.35 58.65 L8.4 52.75 8.2 50.7 Q8.2 49.6 8.35 49.15 L8.65 49.4 Q9.2 51.4 9.2 52.8 L14.2 54.9 18.25 50.9 20.5 51.0 18.2 53.55 14.9 56.2 14.0 56.55 14.2 56.75 13.85 57.0 8.9 54.35 Q5.9 58.95 4.5 60.15 L3.25 60.95 Q2.6 60.85 -0.25 54.5 L-6.75 59.5 -8.25 59.5 -8.3 51.35 Q-9.85 54.5 -14.45 56.25 -18.75 57.9 -24.65 57.9 L-27.55 58.05 Q-30.1 57.9 -30.25 56.55 -24.8 52.5 -21.35 47.3 -17.65 41.7 -16.6 35.35 -17.8 36.3 -19.6 36.55 L-23.1 36.7 -30.55 36.2 Q-25.2 29.45 -23.45 25.4 -20.7 19.1 -20.7 9.6 -20.7 5.75 -21.35 0.5 L-23.4 -7.0 -25.3 -13.55 Q-25.3 -32.8 -13.65 -44.2 -3.85 -53.75 9.9 -54.4" fill="#6f5c4d" fill-rule="evenodd" stroke="none"/>
    <path d="M11.5 -52.35 L11.9 -51.9 Q17.2 -46.25 22.8 -38.65 26.85 -33.15 28.3 -29.6 29.2 -27.5 30.7 -21.25 L33.9 -8.1 Q33.35 10.1 28.15 23.1 22.65 36.9 13.4 40.65 L14.1 41.7 Q23.35 41.8 25.15 41.5 L26.9 40.85 27.85 40.15 Q26.85 42.7 22.35 48.65 L20.5 51.0 18.25 50.9 14.2 54.9 9.2 52.8 Q9.2 51.4 8.65 49.4 L8.35 49.15 Q8.2 49.6 8.2 50.7 L8.4 52.75 3.35 58.65 Q2.85 55.5 1.9 42.7 1.95 46.5 -0.75 51.4 -3.9 57.15 -7.15 57.85 -6.75 51.5 -5.45 47.3 -4.35 43.6 -4.35 39.85 L-4.65 36.05 -5.05 34.15 Q-5.3 43.5 -11.8 50.1 -18.5 56.9 -27.4 56.0 -21.2 51.1 -18.45 46.75 -15.5 42.05 -15.5 36.45 L-15.7 33.4 -28.0 34.85 -21.5 23.15 Q-19.05 17.9 -19.05 12.7 -19.05 8.05 -20.3 -1.25 -21.6 -10.55 -21.6 -14.2 -21.6 -31.05 -13.4 -41.3 -4.6 -52.35 11.2 -52.35 L11.5 -52.35 M-14.75 14.5 L-16.4 21.75 Q-16.65 22.5 -20.25 28.05 L-19.95 29.0 Q-19.85 29.5 -21.0 30.65 L-20.55 31.35 Q-17.4 29.0 -15.7 25.4 -14.2 22.25 -14.2 18.95 L-14.4 16.0 -14.75 14.5 M-10.35 16.05 Q-11.0 28.3 -13.6 36.6 -15.7 43.5 -21.25 53.5 -17.45 51.6 -14.1 47.8 -7.45 40.3 -7.45 29.85 -7.45 25.8 -7.95 22.95 -8.65 19.2 -10.35 16.05 M-3.65 49.35 Q-3.45 49.9 -1.75 36.4 L-2.95 42.75 -3.65 49.35" fill="#b9a99b" fill-rule="evenodd" stroke="none"/>
    <path d="M-3.65 49.35 L-2.95 42.75 -1.75 36.4 Q-3.45 49.9 -3.65 49.35 M-10.35 16.05 Q-8.65 19.2 -7.95 22.95 -7.45 25.8 -7.45 29.85 -7.45 40.3 -14.1 47.8 -17.45 51.6 -21.25 53.5 -15.7 43.5 -13.6 36.6 -11.0 28.3 -10.35 16.05 M-14.75 14.5 L-14.4 16.0 -14.2 18.95 Q-14.2 22.25 -15.7 25.4 -17.4 29.0 -20.55 31.35 L-21.0 30.65 Q-19.85 29.5 -19.95 29.0 L-20.25 28.05 Q-16.65 22.5 -16.4 21.75 L-14.75 14.5" fill="#cbc0b6" fill-rule="evenodd" stroke="none"/>
    <path d="M36.1 -64.9 L36.8 -65.65 37.25 -66.15 38.9 -66.25 Q48.7 -66.25 58.3 -52.75 67.35 -40.05 67.35 -29.55 L67.1 -26.7 66.5 -23.0 Q66.6 -37.3 57.25 -50.4 47.8 -63.75 36.1 -64.9 M64.75 -22.15 L65.8 -16.6 66.5 -10.75 64.15 2.0 Q61.8 15.5 61.8 19.7 61.8 26.65 63.05 32.05 63.9 35.8 68.0 48.35 L66.95 46.95 Q63.0 43.55 61.1 33.6 59.9 27.2 59.9 21.9 59.9 10.6 62.25 -5.7 L64.75 -22.15 M31.75 43.5 Q32.5 45.65 32.5 46.7 L32.5 46.75 Q32.5 48.4 31.85 49.7 30.2 52.9 24.65 53.85 L25.85 52.45 26.8 51.25 Q29.85 47.3 31.75 43.5" fill="#ebe8e0" fill-rule="evenodd" stroke="none"/>
    <path d="M30.7 -21.25 Q28.4 -31.7 27.3 -40.45 26.7 -44.95 26.55 -47.7 L26.5 -49.5 26.55 -50.7 Q26.75 -57.75 29.65 -63.4 32.55 -69.1 35.6 -69.1 48.7 -69.1 58.3 -57.75 69.1 -45.0 69.1 -23.95 69.1 -15.3 66.15 1.4 63.15 18.1 63.15 20.35 63.15 40.8 76.25 53.5 L72.95 53.8 Q70.5 53.8 68.4 53.1 64.6 51.75 62.2 50.45 L60.0 49.4 60.65 50.75 Q60.35 50.4 57.85 49.05 L55.4 47.75 Q49.7 44.6 48.0 44.6 46.75 44.6 44.2 47.05 40.05 51.0 36.25 59.25 37.35 52.85 40.05 41.65 L41.0 37.6 Q42.15 32.35 42.15 31.1 L42.15 30.4 41.9 27.65 Q41.6 24.9 41.35 24.8 41.0 25.05 40.7 27.05 L40.1 31.15 38.85 36.8 38.2 39.55 36.9 44.7 35.35 50.6 Q30.9 53.75 28.2 54.8 25.45 55.85 21.65 55.85 L18.55 55.65 19.85 55.2 Q22.05 54.15 23.7 52.8 L24.7 51.85 25.35 51.2 Q27.0 49.2 28.75 46.1 32.75 38.9 35.5 31.1 38.65 22.4 38.65 17.25 L38.3 12.2 37.5 12.55 Q37.05 13.1 35.95 17.85 34.6 23.8 33.4 27.25 28.9 40.25 20.25 40.25 L17.5 40.1 18.65 39.65 Q22.35 37.7 25.05 33.7 26.6 31.4 29.85 24.7 L32.0 17.9 33.95 11.0 34.85 3.05 Q34.95 1.85 35.45 0.1 L35.9 -2.0 35.7 -3.6 Q34.65 -7.85 33.9 -8.1 L30.7 -21.25 M36.1 -64.9 Q47.8 -63.75 57.25 -50.4 66.6 -37.3 66.5 -23.0 L67.1 -26.7 67.35 -29.55 Q67.35 -40.05 58.3 -52.75 48.7 -66.25 38.9 -66.25 L37.25 -66.15 36.8 -65.65 36.1 -64.9 M64.75 -22.15 L62.25 -5.7 Q59.9 10.6 59.9 21.9 59.9 27.2 61.1 33.6 63.0 43.55 66.95 46.95 L68.0 48.35 Q63.9 35.8 63.05 32.05 61.8 26.65 61.8 19.7 61.8 15.5 64.15 2.0 L66.5 -10.75 65.8 -16.6 64.75 -22.15 M75.0 34.85 L74.35 35.35 Q70.1 36.45 68.2 34.8 67.05 33.75 65.25 29.35 L66.2 30.5 Q67.3 31.55 70.35 32.95 73.8 34.6 74.85 34.05 L75.0 34.85 M31.75 43.5 Q29.85 47.3 26.8 51.25 L25.85 52.45 24.65 53.85 Q30.2 52.9 31.85 49.7 32.5 48.4 32.5 46.75 L32.5 46.7 Q32.5 45.65 31.75 43.5" fill="#cbc8c0" fill-rule="evenodd" stroke="none"/>
    <path d="M9.9 -54.4 Q9.25 -55.45 5.9 -57.4 2.55 -59.4 4.5 -64.75 6.45 -70.1 27.75 -70.8 49.0 -71.5 59.95 -58.35 70.9 -45.2 70.9 -25.15 L70.45 -17.9 Q69.95 -12.2 69.45 -10.65 66.5 -0.95 64.5 18.8 64.5 24.45 68.1 28.35 71.65 32.2 75.4 32.85 L77.85 33.0 Q78.2 34.85 76.4 37.4 74.0 40.65 68.7 40.75 69.45 43.55 72.55 47.35 75.7 51.3 79.65 54.25 79.2 54.7 77.2 55.0 L74.45 55.3 Q67.25 55.3 61.8 52.95 58.65 51.6 49.8 46.0 47.75 45.65 41.85 53.75 36.3 61.35 35.8 63.7 35.05 62.5 34.9 61.6 L34.7 57.95 35.05 53.55 Q31.6 55.7 29.6 56.25 L14.75 57.25 14.2 56.75 14.0 56.55 14.9 56.2 18.2 53.55 20.5 51.0 22.35 48.65 Q26.85 42.7 27.85 40.15 L26.9 40.85 25.15 41.5 Q23.35 41.8 14.1 41.7 L13.4 40.65 Q22.65 36.9 28.15 23.1 33.35 10.1 33.9 -8.1 34.65 -7.85 35.7 -3.6 L35.9 -2.0 35.45 0.1 Q34.95 1.85 34.85 3.05 L33.95 11.0 32.0 17.9 29.85 24.7 Q26.6 31.4 25.05 33.7 22.35 37.7 18.65 39.65 L17.5 40.1 20.25 40.25 Q28.9 40.25 33.4 27.25 34.6 23.8 35.95 17.85 37.05 13.1 37.5 12.55 L38.3 12.2 38.65 17.25 Q38.65 22.4 35.5 31.1 32.75 38.9 28.75 46.1 27.0 49.2 25.35 51.2 L24.7 51.85 23.7 52.8 Q22.05 54.15 19.85 55.2 L18.55 55.65 21.65 55.85 Q25.45 55.85 28.2 54.8 30.9 53.75 35.35 50.6 L36.9 44.7 38.2 39.55 38.85 36.8 40.1 31.15 40.7 27.05 Q41.0 25.05 41.35 24.8 41.6 24.9 41.9 27.65 L42.15 30.4 42.15 31.1 Q42.15 32.35 41.0 37.6 L40.05 41.65 Q37.35 52.85 36.25 59.25 40.05 51.0 44.2 47.05 46.75 44.6 48.0 44.6 49.7 44.6 55.4 47.75 L57.85 49.05 Q60.35 50.4 60.65 50.75 L60.0 49.4 62.2 50.45 Q64.6 51.75 68.4 53.1 70.5 53.8 72.95 53.8 L76.25 53.5 Q63.15 40.8 63.15 20.35 63.15 18.1 66.15 1.4 69.1 -15.3 69.1 -23.95 69.1 -45.0 58.3 -57.75 48.7 -69.1 35.6 -69.1 32.55 -69.1 29.65 -63.4 26.75 -57.75 26.55 -50.7 L26.5 -49.5 26.55 -47.7 Q26.7 -44.95 27.3 -40.45 28.4 -31.7 30.7 -21.25 29.2 -27.5 28.3 -29.6 26.85 -33.15 22.8 -38.65 17.2 -46.25 11.9 -51.9 L11.5 -52.35 Q10.45 -53.5 9.9 -54.4 M75.0 34.85 L74.85 34.05 Q73.8 34.6 70.35 32.95 67.3 31.55 66.2 30.5 L65.25 29.35 Q67.05 33.75 68.2 34.8 70.1 36.45 74.35 35.35 L75.0 34.85" fill="#97877d" fill-rule="evenodd" stroke="none"/>
  </g>
</svg>
