<?xml version="1.0" encoding="UTF-8" standalone="no"?>
<svg xmlns:ffdec="https://www.free-decompiler.com/flash" xmlns:xlink="http://www.w3.org/1999/xlink" ffdec:objectType="shape" height="105.1px" width="64.0px" xmlns="http://www.w3.org/2000/svg">
  <g transform="matrix(1.0, 0.0, 0.0, 1.0, -1.55, -1.7)">
    <path d="M40.7 17.6 Q41.95 17.05 42.85 15.8 44.25 13.9 44.25 11.2 44.25 7.9 41.95 5.8 39.7 3.8 36.35 3.8 26.2 3.8 22.05 9.3 L20.0 12.2 18.9 12.1 18.95 12.05 20.0 8.2 Q20.8 5.7 22.8 5.7 L23.8 6.0 Q24.7 6.0 27.0 4.2 27.9 3.55 31.55 2.65 35.35 1.7 37.55 1.7 41.3 1.7 43.3 3.7 L44.6 5.75 44.95 6.6 45.85 11.5 45.45 15.35 45.1 16.2 44.5 17.25 43.65 17.95 42.8 18.05 40.7 17.6 M27.25 25.45 L28.85 28.1 28.65 28.35 27.5 29.4 26.25 30.75 Q25.6 32.6 24.85 35.55 24.1 38.55 24.1 39.35 24.1 39.95 24.6 40.45 L25.05 40.9 Q25.0 44.25 25.35 45.25 L26.0 46.5 25.6 46.5 23.05 46.7 Q22.8 44.95 22.8 42.2 22.8 41.25 24.25 35.25 L24.75 33.65 24.9 32.4 24.8 31.7 24.3 28.75 25.6 27.2 27.25 25.45 M29.8 25.8 L28.45 23.1 Q29.3 21.0 29.6 20.65 30.5 19.55 33.1 19.3 L33.8 19.05 34.4 18.6 Q35.55 17.85 37.2 17.8 L40.2 19.35 37.75 19.9 37.6 19.9 Q32.75 20.75 31.0 23.1 30.2 24.2 29.8 25.8 M15.55 14.1 L15.6 14.65 18.4 14.5 17.65 15.5 14.45 19.7 Q11.6 19.95 11.1 20.9 L12.3 21.95 12.4 21.9 Q10.3 23.7 9.3 26.5 8.65 28.3 8.15 31.8 L6.45 40.35 Q5.15 46.4 5.15 47.15 L5.45 48.45 5.5 48.5 4.85 49.25 4.75 49.7 5.35 49.85 5.95 49.85 6.5 50.85 5.5 54.45 6.4 56.5 Q7.15 58.3 7.1 59.0 6.95 61.05 7.45 63.1 L8.05 65.65 7.7 67.4 7.3 69.15 Q7.3 70.75 8.25 71.0 9.15 71.25 9.05 73.65 9.0 75.4 10.4 78.0 L11.9 80.85 11.95 83.65 Q12.1 85.85 13.3 87.85 L15.85 90.95 Q17.4 92.5 19.0 93.55 L16.35 93.15 Q15.95 93.15 15.15 93.65 14.15 94.15 13.5 94.95 L13.6 96.15 17.05 95.85 Q19.75 95.85 21.55 99.3 L23.15 103.25 Q14.9 99.65 10.5 94.45 7.0 90.3 7.0 86.95 L7.35 83.4 5.25 81.1 Q3.15 79.1 3.15 78.0 3.8 72.05 3.55 71.15 L2.85 69.95 2.25 69.1 3.5 63.4 Q2.15 59.9 2.15 59.25 2.15 58.35 2.9 57.3 3.6 56.2 3.6 55.55 L2.6 52.8 Q1.55 50.25 1.55 47.35 1.55 38.8 6.75 28.05 8.8 23.85 13.9 15.75 14.45 14.9 15.55 14.1 M27.9 49.45 L28.05 49.7 30.85 53.3 Q32.35 55.05 37.65 57.15 42.1 58.9 42.8 58.9 L45.2 57.8 Q47.65 56.7 48.6 56.7 49.15 56.7 52.95 57.9 56.9 59.15 57.7 59.65 L58.05 59.9 58.0 60.65 Q58.0 63.2 58.45 65.1 L57.9 64.65 Q55.45 63.0 50.1 61.3 45.45 59.85 44.15 59.85 L43.9 60.1 Q41.5 59.25 38.5 59.25 L35.25 59.5 Q30.3 57.4 28.5 55.4 L27.2 53.65 25.8 51.6 24.0 49.35 25.45 49.25 27.9 49.45 M59.9 61.3 Q62.3 63.3 63.1 65.25 63.55 66.35 63.5 69.85 63.65 71.75 65.55 77.05 65.55 78.35 64.2 82.75 62.85 87.1 62.85 87.95 62.9 90.55 62.15 91.85 L58.5 97.05 Q56.25 100.35 54.15 102.3 L54.15 102.25 53.55 97.5 Q55.55 95.9 58.15 92.1 62.95 85.1 62.95 78.7 L62.8 74.7 Q62.4 74.75 61.9 73.4 L60.7 69.0 Q61.3 69.4 61.85 69.25 62.55 69.1 62.55 68.2 L61.25 66.8 Q60.0 65.0 59.9 61.3 M52.15 103.85 Q50.8 104.7 50.0 104.7 L46.15 104.85 Q45.9 104.85 45.35 105.3 L44.85 105.7 43.9 106.45 42.8 106.7 39.4 105.6 Q36.55 106.8 35.8 106.8 L32.7 106.55 Q30.0 105.95 25.95 104.4 24.05 98.3 23.0 96.65 L21.25 94.7 Q30.3 98.45 35.1 99.7 38.25 102.1 40.85 102.1 42.95 102.1 44.6 99.8 45.7 99.2 46.85 98.75 L48.7 98.7 51.15 98.65 51.9 98.5 52.25 101.95 52.15 103.85" fill="#4f5218" fill-rule="evenodd" stroke="none"/>
    <path d="M20.0 12.2 L22.05 9.3 Q26.2 3.8 36.35 3.8 39.7 3.8 41.95 5.8 44.25 7.9 44.25 11.2 44.25 13.9 42.85 15.8 41.95 17.05 40.7 17.6 38.95 16.8 37.05 14.8 L37.2 14.75 Q40.05 14.25 40.7 13.75 41.9 12.9 41.9 10.1 41.9 4.75 37.6 4.75 33.3 4.75 31.3 7.1 29.35 9.4 25.75 9.4 26.4 12.15 24.05 14.05 22.4 12.6 20.0 12.2 M25.45 21.5 L26.55 24.0 27.25 25.45 25.6 27.2 24.3 28.75 Q23.9 27.15 23.15 25.5 L24.25 22.8 25.45 21.5 M28.45 23.1 L27.95 21.75 27.25 19.8 Q30.65 16.75 34.5 15.45 35.45 16.6 36.85 17.55 L37.2 17.8 Q35.55 17.85 34.4 18.6 L33.8 19.05 33.1 19.3 Q30.5 19.55 29.6 20.65 29.3 21.0 28.45 23.1 M18.4 14.5 L19.05 14.4 Q20.75 14.4 22.1 15.6 18.8 18.25 17.15 19.65 L16.75 19.6 14.45 19.7 17.65 15.5 18.4 14.5 M19.0 93.55 Q17.4 92.5 15.85 90.95 L13.3 87.85 Q12.1 85.85 11.95 83.65 L11.9 80.85 10.4 78.0 Q9.0 75.4 9.05 73.65 9.15 71.25 8.25 71.0 7.3 70.75 7.3 69.15 L7.7 67.4 8.05 65.65 7.45 63.1 Q6.95 61.05 7.1 59.0 7.15 58.3 6.4 56.5 L5.5 54.45 6.5 50.85 5.95 49.85 8.45 49.5 9.0 50.95 Q9.0 51.75 8.2 53.1 7.35 54.4 7.35 55.35 7.35 57.0 9.25 60.5 L10.8 63.85 11.1 65.95 10.75 67.5 10.35 69.6 12.75 74.3 13.1 75.3 13.05 78.0 Q13.2 80.85 14.0 81.7 L15.0 82.55 16.45 84.15 16.55 85.85 Q16.7 87.55 17.0 87.9 L19.85 90.25 Q21.55 91.45 22.4 92.85 23.3 94.35 27.15 95.35 L30.95 96.05 31.7 95.8 Q32.8 97.9 34.85 99.5 L35.1 99.7 Q30.3 98.45 21.25 94.7 L19.0 93.55 M5.5 48.5 L5.45 48.45 5.15 47.15 Q5.15 46.4 6.45 40.35 L8.15 31.8 Q8.65 28.3 9.3 26.5 10.3 23.7 12.4 21.9 13.25 21.5 15.15 21.4 13.3 23.25 12.25 25.4 11.15 27.65 10.55 30.7 7.9 44.65 7.8 46.35 L5.5 48.5 M22.1 28.65 L22.65 30.8 Q22.65 32.9 21.75 34.85 L21.55 33.6 Q21.3 32.3 21.55 30.95 21.65 30.15 22.1 28.65 M20.0 41.2 Q24.8 35.35 24.8 32.5 L24.8 31.7 24.9 32.4 24.75 33.65 24.25 35.25 Q22.8 41.25 22.8 42.2 22.8 44.95 23.05 46.7 L21.3 47.1 Q20.0 43.6 20.0 41.2 M43.9 60.1 L44.15 59.85 Q45.45 59.85 50.1 61.3 55.45 63.0 57.9 64.65 L58.45 65.1 Q59.0 67.4 60.3 68.65 L60.7 69.0 61.9 73.4 Q62.4 74.75 62.8 74.7 L62.95 78.7 Q62.95 85.1 58.15 92.1 55.55 95.9 53.55 97.5 L53.3 96.2 52.25 92.2 55.2 91.55 Q55.9 91.4 56.15 90.65 L56.55 88.8 Q57.0 86.95 59.0 84.05 60.85 81.4 60.85 80.95 60.85 79.25 59.7 77.95 L58.5 76.85 Q58.5 73.0 57.4 72.1 56.25 71.85 56.25 71.35 56.25 67.9 55.75 66.85 54.2 63.75 48.85 63.55 46.9 61.1 43.9 60.1 M35.25 59.5 Q32.5 59.95 30.7 61.3 L28.45 59.5 Q26.5 57.9 23.4 51.85 L22.35 49.65 24.0 49.35 25.8 51.6 27.2 53.65 28.5 55.4 Q30.3 57.4 35.25 59.5 M44.6 99.8 L45.9 97.35 46.6 95.55 48.5 95.85 Q49.05 95.85 49.25 95.4 L49.9 93.6 Q50.1 93.1 50.95 92.7 L51.3 94.8 51.9 98.5 51.15 98.65 48.7 98.7 46.85 98.75 Q45.7 99.2 44.6 99.8 M31.85 62.15 Q34.0 61.35 38.5 61.35 43.05 61.35 45.8 63.65 44.2 63.85 43.3 64.45 L42.35 65.4 41.65 64.6 Q41.1 63.8 40.0 63.8 L35.3 64.25 Q34.45 64.1 31.85 62.15 M44.95 95.2 Q43.25 100.1 40.8 100.1 38.0 100.1 34.8 95.95 L34.05 94.9 36.05 94.45 41.1 96.55 Q42.1 96.55 43.15 95.85 L44.25 95.1 44.95 95.2" fill="#7b8026" fill-rule="evenodd" stroke="none"/>
    <path d="M24.05 14.05 Q26.4 12.15 25.75 9.4 29.35 9.4 31.3 7.1 33.3 4.75 37.6 4.75 41.9 4.75 41.9 10.1 41.9 12.9 40.7 13.75 40.05 14.25 37.2 14.75 L37.05 14.8 36.8 14.5 35.35 12.65 35.45 12.65 Q36.8 12.65 37.75 11.8 38.65 10.9 38.65 9.7 38.65 8.5 37.75 7.65 36.8 6.75 35.45 6.75 34.65 6.75 34.0 7.1 L34.05 7.0 34.4 6.1 34.4 5.6 34.35 5.8 33.8 5.55 Q32.25 6.7 32.25 9.0 L32.25 9.5 32.25 9.7 32.35 10.35 Q32.65 13.25 34.5 15.45 30.65 16.75 27.25 19.8 25.85 16.2 25.0 15.1 L24.05 14.05 M28.85 12.75 Q28.3 12.15 27.55 12.15 26.8 12.15 26.25 12.75 25.7 13.3 25.7 14.15 25.7 15.0 26.25 15.6 26.8 16.15 27.55 16.15 28.3 16.15 28.85 15.6 29.4 15.0 29.4 14.15 29.4 13.3 28.85 12.75 M22.1 15.6 L23.55 17.4 25.45 21.5 24.25 22.8 23.15 25.5 22.8 24.75 22.3 23.8 22.65 23.5 Q23.45 22.6 23.45 21.35 23.45 20.1 22.65 19.25 21.8 18.35 20.65 18.35 19.5 18.35 18.7 19.25 L18.25 19.85 17.15 19.65 Q18.8 18.25 22.1 15.6 M15.15 21.4 L16.5 21.35 17.9 21.7 Q17.95 22.7 18.7 23.5 19.4 24.25 20.35 24.35 L21.15 26.0 22.1 28.65 Q21.65 30.15 21.55 30.95 21.3 32.3 21.55 33.6 L21.75 34.85 Q20.4 37.7 17.15 40.15 L19.25 31.55 19.8 29.65 20.0 28.45 19.3 27.7 Q18.45 27.1 17.35 27.1 14.05 27.1 13.85 30.15 13.8 31.75 14.35 33.9 L13.75 36.4 Q13.2 39.15 13.15 40.8 L13.35 42.7 9.95 44.75 7.8 46.35 Q7.9 44.65 10.55 30.7 11.15 27.65 12.25 25.4 13.3 23.25 15.15 21.4 M18.0 43.45 L19.3 42.0 20.0 41.2 Q20.0 43.6 21.3 47.1 19.75 47.6 18.35 48.45 L18.35 48.3 18.75 46.9 19.1 45.45 18.0 43.45 M8.45 49.5 Q11.1 48.85 13.65 47.2 L13.2 49.55 12.6 50.9 Q11.95 52.35 11.95 52.95 11.95 53.8 12.7 54.7 10.75 58.45 10.75 63.45 L10.8 63.85 9.25 60.5 Q7.35 57.0 7.35 55.35 7.35 54.4 8.2 53.1 9.0 51.75 9.0 50.95 L8.45 49.5 M30.7 61.3 L30.25 61.65 Q29.35 62.45 28.75 63.5 L27.75 62.55 21.3 56.45 Q21.0 55.95 21.1 55.15 L21.3 52.55 Q21.3 51.1 20.25 50.45 L22.35 49.65 23.4 51.85 Q26.5 57.9 28.45 59.5 L30.7 61.3 M30.45 92.0 Q30.75 94.05 31.7 95.8 L30.95 96.05 27.15 95.35 Q23.3 94.35 22.4 92.85 21.55 91.45 19.85 90.25 L17.0 87.9 Q16.7 87.55 16.55 85.85 L16.45 84.15 15.0 82.55 14.0 81.7 Q13.2 80.85 13.05 78.0 L13.1 75.3 Q14.25 77.9 15.75 77.9 L16.45 77.85 16.75 77.6 16.8 76.65 Q16.8 74.45 15.05 70.05 13.25 65.65 13.25 63.55 13.25 59.95 14.4 57.1 L14.05 58.6 13.65 60.3 Q13.65 61.75 14.25 62.7 L15.6 65.45 15.5 67.55 15.2 69.85 Q15.2 70.2 16.05 70.75 17.05 71.45 17.55 73.0 17.8 73.85 17.45 77.9 17.45 80.55 18.6 81.2 22.7 83.45 25.3 85.65 26.7 86.85 28.0 89.85 28.85 91.85 30.45 92.0 M46.6 95.55 Q47.4 93.25 47.65 90.85 L50.5 90.1 50.95 92.7 Q50.1 93.1 49.9 93.6 L49.25 95.4 Q49.05 95.85 48.5 95.85 L46.6 95.55 M51.8 70.75 Q51.45 68.5 50.75 66.85 50.0 64.95 48.85 63.55 54.2 63.75 55.75 66.85 56.25 67.9 56.25 71.35 56.25 71.85 57.4 72.1 58.5 73.0 58.5 76.85 L59.7 77.95 Q60.85 79.25 60.85 80.95 60.85 81.4 59.0 84.05 57.0 86.95 56.55 88.8 L56.15 90.65 Q55.9 91.4 55.2 91.55 L52.25 92.2 Q51.6 90.5 50.95 89.8 52.6 88.55 53.7 85.95 L54.9 81.05 Q54.9 74.25 51.8 70.75 M29.65 64.3 Q29.95 63.2 30.9 62.6 31.3 62.35 31.85 62.15 34.45 64.1 35.3 64.25 L40.0 63.8 Q41.1 63.8 41.65 64.6 L42.35 65.4 43.3 64.45 Q44.2 63.85 45.8 63.65 47.2 64.8 48.15 66.5 L49.15 68.75 Q48.15 68.3 47.1 68.3 46.2 68.3 44.75 69.05 43.3 69.8 41.45 69.8 33.3 65.95 30.5 64.8 L29.65 64.3 M46.25 90.65 L45.25 94.2 44.95 95.2 44.25 95.1 43.15 95.85 Q42.1 96.55 41.1 96.55 L36.05 94.45 34.05 94.9 Q32.9 93.25 32.3 91.7 L33.05 91.45 34.6 90.9 36.95 91.75 Q38.85 92.55 39.65 92.55 L40.95 91.9 Q42.3 91.05 43.85 90.45 L45.65 90.5 46.25 90.65 M11.1 65.95 L11.75 70.7 Q12.2 72.8 12.75 74.3 L10.35 69.6 10.75 67.5 11.1 65.95" fill="#a2a832" fill-rule="evenodd" stroke="none"/>
    <path d="M34.0 7.1 Q34.65 6.75 35.45 6.75 36.8 6.75 37.75 7.65 38.65 8.5 38.65 9.7 38.65 10.9 37.75 11.8 36.8 12.65 35.45 12.65 L35.35 12.65 Q33.65 10.15 33.65 7.9 33.65 7.45 34.0 7.1 M32.35 10.35 L32.25 9.7 32.25 9.5 32.35 10.35 M28.85 12.75 Q29.4 13.3 29.4 14.15 29.4 15.0 28.85 15.6 28.3 16.15 27.55 16.15 26.8 16.15 26.25 15.6 25.7 15.0 25.7 14.15 25.7 13.3 26.25 12.75 26.8 12.15 27.55 12.15 28.3 12.15 28.85 12.75 M18.25 19.85 L18.7 19.25 Q19.5 18.35 20.65 18.35 21.8 18.35 22.65 19.25 23.45 20.1 23.45 21.35 23.45 22.6 22.65 23.5 L22.3 23.8 Q20.55 20.6 18.25 19.85 M17.9 21.7 Q19.2 22.35 20.35 24.35 19.4 24.25 18.7 23.5 17.95 22.7 17.9 21.7 M17.15 40.15 L15.8 41.1 13.35 42.7 13.15 40.8 Q13.2 39.15 13.75 36.4 L14.35 33.9 Q13.8 31.75 13.85 30.15 14.05 27.1 17.35 27.1 18.45 27.1 19.3 27.7 L20.0 28.45 19.8 29.65 19.25 31.55 17.15 40.15 M15.85 35.55 L16.45 35.8 17.05 35.55 17.3 34.9 17.05 34.3 Q16.8 34.0 16.45 34.0 16.1 34.0 15.85 34.3 15.6 34.55 15.6 34.9 L15.85 35.55 M13.65 47.2 L15.0 46.2 15.65 46.35 Q16.3 46.35 16.75 45.85 17.2 45.35 17.2 44.65 L17.2 44.3 18.0 43.45 19.1 45.45 18.75 46.9 18.35 48.3 18.35 48.45 Q16.55 49.5 15.05 51.2 13.65 52.8 12.7 54.7 11.95 53.8 11.95 52.95 11.95 52.35 12.6 50.9 L13.2 49.55 13.65 47.2 M28.75 63.5 Q27.55 65.45 27.55 68.3 L27.75 70.65 Q26.55 72.35 26.55 75.0 26.55 77.65 28.2 79.9 29.5 81.6 31.0 82.05 L31.0 82.2 30.95 84.55 30.5 84.5 Q29.75 84.5 29.25 85.1 28.7 85.65 28.7 86.5 28.7 87.35 29.25 87.95 29.75 88.5 30.45 88.5 L30.25 89.3 29.3 91.05 29.35 91.45 29.5 91.55 30.25 90.2 30.45 92.0 Q28.85 91.85 28.0 89.85 26.7 86.85 25.3 85.65 22.7 83.45 18.6 81.2 17.45 80.55 17.45 77.9 17.8 73.85 17.55 73.0 17.05 71.45 16.05 70.75 15.2 70.2 15.2 69.85 L15.5 67.55 15.6 65.45 14.25 62.7 Q13.65 61.75 13.65 60.3 L14.05 58.6 14.4 57.1 15.5 54.95 15.45 55.3 Q15.45 56.15 16.0 56.75 16.55 57.35 17.35 57.35 18.15 57.35 18.7 56.75 19.25 56.15 19.25 55.3 19.25 54.45 18.7 53.85 18.15 53.25 17.35 53.25 L16.55 53.45 16.75 53.2 Q18.3 51.4 20.25 50.45 21.3 51.1 21.3 52.55 L21.1 55.15 Q21.0 55.95 21.3 56.45 L27.75 62.55 28.75 63.5 M47.65 90.85 L47.65 90.6 48.0 90.6 Q49.55 90.6 50.8 84.8 52.3 83.4 52.45 80.45 52.55 78.75 52.0 77.35 L52.15 76.1 Q52.15 73.1 51.8 70.75 54.9 74.25 54.9 81.05 L53.7 85.95 Q52.6 88.55 50.95 89.8 50.65 89.5 50.35 89.35 L50.5 90.1 47.65 90.85 M30.15 68.75 L29.55 66.35 Q29.4 65.15 29.65 64.3 L30.5 64.8 Q33.3 65.95 41.45 69.8 43.3 69.8 44.75 69.05 46.2 68.3 47.1 68.3 48.15 68.3 49.15 68.75 49.8 70.65 49.8 72.6 L49.6 74.9 Q47.5 74.9 45.65 77.15 43.8 79.5 43.8 82.35 43.8 84.2 44.95 85.2 45.85 85.95 47.05 86.0 46.75 87.55 46.75 88.65 L46.25 90.65 45.65 90.5 43.85 90.45 Q42.3 91.05 40.95 91.9 L39.65 92.55 Q38.85 92.55 36.95 91.75 L34.6 90.9 33.05 91.45 32.3 91.7 Q31.65 89.95 31.65 88.3 L31.7 88.1 31.8 87.95 32.3 86.85 32.4 86.2 32.4 85.6 32.35 85.85 32.15 85.7 32.05 85.4 32.4 82.15 Q34.75 81.95 35.95 80.0 37.1 78.15 36.8 75.35 36.5 72.6 35.1 70.65 33.6 68.5 31.55 68.5 L30.15 68.75 M24.05 63.75 Q23.25 62.9 22.15 62.9 21.05 62.9 20.3 63.75 19.5 64.6 19.5 65.8 19.5 67.0 20.3 67.85 21.05 68.7 22.15 68.7 23.25 68.7 24.05 67.85 24.8 67.0 24.8 65.8 24.8 64.6 24.05 63.75 M25.15 71.95 Q25.6 71.5 25.6 70.85 25.6 70.2 25.15 69.75 24.7 69.3 24.05 69.3 23.4 69.3 22.95 69.75 22.5 70.2 22.5 70.85 22.5 71.5 22.95 71.95 23.4 72.4 24.05 72.4 24.7 72.4 25.15 71.95 M18.25 60.05 Q17.45 60.05 16.9 60.7 16.3 61.3 16.3 62.15 16.3 63.0 16.9 63.65 17.45 64.25 18.25 64.25 19.05 64.25 19.65 63.65 20.2 63.0 20.2 62.15 20.2 61.3 19.65 60.7 19.05 60.05 18.25 60.05 M40.0 76.5 Q40.75 77.3 41.85 77.3 42.95 77.3 43.75 76.5 44.5 75.65 44.5 74.45 44.5 73.25 43.75 72.45 42.95 71.6 41.85 71.6 40.75 71.6 40.0 72.45 39.2 73.25 39.2 74.45 39.2 75.65 40.0 76.5 M35.7 81.75 Q34.55 82.95 34.55 84.65 34.55 86.35 35.7 87.6 36.8 88.8 38.35 88.8 39.9 88.8 41.05 87.6 42.15 86.35 42.15 84.65 42.15 82.95 41.05 81.75 39.9 80.5 38.35 80.5 36.8 80.5 35.7 81.75 M20.3 75.5 Q19.4 76.6 19.4 78.2 19.4 79.8 20.3 80.95 21.2 82.05 22.45 82.05 23.7 82.05 24.6 80.95 25.5 79.8 25.5 78.2 25.5 76.6 24.6 75.5 23.7 74.35 22.45 74.35 21.2 74.35 20.3 75.5" fill="#cacf5c" fill-rule="evenodd" stroke="none"/>
    <path d="M15.85 35.55 L15.6 34.9 Q15.6 34.55 15.85 34.3 16.1 34.0 16.45 34.0 16.8 34.0 17.05 34.3 L17.3 34.9 17.05 35.55 16.45 35.8 15.85 35.55 M15.0 46.2 L17.2 44.3 17.2 44.65 Q17.2 45.35 16.75 45.85 16.3 46.35 15.65 46.35 L15.0 46.2 M27.75 70.65 Q28.1 73.35 29.3 76.7 L31.0 82.05 Q29.5 81.6 28.2 79.9 26.55 77.65 26.55 75.0 26.55 72.35 27.75 70.65 M30.95 84.55 L30.75 87.0 30.45 88.5 Q29.75 88.5 29.25 87.95 28.7 87.35 28.7 86.5 28.7 85.65 29.25 85.1 29.75 84.5 30.5 84.5 L30.95 84.55 M50.8 84.8 L52.0 77.35 Q52.55 78.75 52.45 80.45 52.3 83.4 50.8 84.8 M16.55 53.45 L17.35 53.25 Q18.15 53.25 18.7 53.85 19.25 54.45 19.25 55.3 19.25 56.15 18.7 56.75 18.15 57.35 17.35 57.35 16.55 57.35 16.0 56.75 15.45 56.15 15.45 55.3 L15.5 54.95 16.55 53.45 M49.6 74.9 L48.3 80.6 Q47.4 83.8 47.05 86.0 45.85 85.95 44.95 85.2 43.8 84.2 43.8 82.35 43.8 79.5 45.65 77.15 47.5 74.9 49.6 74.9 M31.7 88.1 Q31.75 87.6 32.05 87.25 L32.3 86.85 31.8 87.95 31.7 88.1 M32.15 85.7 L32.0 85.6 32.05 85.4 32.15 85.7 M32.4 82.15 L32.4 81.8 Q32.4 77.65 31.15 72.75 L30.15 68.75 31.55 68.5 Q33.6 68.5 35.1 70.65 36.5 72.6 36.8 75.35 37.1 78.15 35.95 80.0 34.75 81.95 32.4 82.15 M25.15 71.95 Q24.7 72.4 24.05 72.4 23.4 72.4 22.95 71.95 22.5 71.5 22.5 70.85 22.5 70.2 22.95 69.75 23.4 69.3 24.05 69.3 24.7 69.3 25.15 69.75 25.6 70.2 25.6 70.85 25.6 71.5 25.15 71.95 M24.05 63.75 Q24.8 64.6 24.8 65.8 24.8 67.0 24.05 67.85 23.25 68.7 22.15 68.7 21.05 68.7 20.3 67.85 19.5 67.0 19.5 65.8 19.5 64.6 20.3 63.75 21.05 62.9 22.15 62.9 23.25 62.9 24.05 63.75 M18.25 60.05 Q19.05 60.05 19.65 60.7 20.2 61.3 20.2 62.15 20.2 63.0 19.65 63.65 19.05 64.25 18.25 64.25 17.45 64.25 16.9 63.65 16.3 63.0 16.3 62.15 16.3 61.3 16.9 60.7 17.45 60.05 18.25 60.05 M20.3 75.5 Q21.2 74.35 22.45 74.35 23.7 74.35 24.6 75.5 25.5 76.6 25.5 78.2 25.5 79.8 24.6 80.95 23.7 82.05 22.45 82.05 21.2 82.05 20.3 80.95 19.4 79.8 19.4 78.2 19.4 76.6 20.3 75.5 M35.7 81.75 Q36.8 80.5 38.35 80.5 39.9 80.5 41.05 81.75 42.15 82.95 42.15 84.65 42.15 86.35 41.05 87.6 39.9 88.8 38.35 88.8 36.8 88.8 35.7 87.6 34.55 86.35 34.55 84.65 34.55 82.95 35.7 81.75 M40.0 76.5 Q39.2 75.65 39.2 74.45 39.2 73.25 40.0 72.45 40.75 71.6 41.85 71.6 42.95 71.6 43.75 72.45 44.5 73.25 44.5 74.45 44.5 75.65 43.75 76.5 42.95 77.3 41.85 77.3 40.75 77.3 40.0 76.5" fill="#dcdf95" fill-rule="evenodd" stroke="none"/>
    <path d="M40.7 17.6 L42.8 18.05 43.65 17.95 Q42.35 18.7 40.2 19.35 L37.2 17.8 36.85 17.55 Q35.45 16.6 34.5 15.45 32.65 13.25 32.35 10.35 L32.25 9.5 32.25 9.0 Q32.25 6.7 33.8 5.55 L34.35 5.8 34.4 5.6 34.4 6.1 34.05 7.0 34.0 7.1 Q33.65 7.45 33.65 7.9 33.65 10.15 35.35 12.65 L36.8 14.5 37.05 14.8 Q38.95 16.8 40.7 17.6 M18.9 12.1 L20.0 12.2 Q22.4 12.6 24.05 14.05 L25.0 15.1 Q25.85 16.2 27.25 19.8 L27.95 21.75 28.45 23.1 29.8 25.8 29.75 25.9 28.85 28.1 27.25 25.45 26.55 24.0 25.45 21.5 23.55 17.4 22.1 15.6 Q20.75 14.4 19.05 14.4 L18.4 14.5 15.6 14.65 15.55 14.1 16.8 13.35 18.9 12.1 M22.3 23.8 L22.8 24.75 23.15 25.5 Q23.9 27.15 24.3 28.75 L24.8 31.7 24.8 32.5 Q24.8 35.35 20.0 41.2 L19.3 42.0 18.0 43.45 17.2 44.3 15.0 46.2 13.65 47.2 Q11.1 48.85 8.45 49.5 L5.95 49.85 5.35 49.85 4.75 49.7 4.85 49.25 5.5 48.5 7.8 46.35 9.95 44.75 13.35 42.7 15.8 41.1 17.15 40.15 Q20.4 37.7 21.75 34.85 22.65 32.9 22.65 30.8 L22.1 28.65 21.15 26.0 20.35 24.35 Q19.2 22.35 17.9 21.7 L16.5 21.35 15.15 21.4 Q13.25 21.5 12.4 21.9 L12.3 21.95 11.1 20.9 Q11.6 19.95 14.45 19.7 L16.75 19.6 17.15 19.65 18.25 19.85 Q20.55 20.6 22.3 23.8 M23.15 103.25 L21.55 99.3 Q19.75 95.85 17.05 95.85 L13.6 96.15 13.5 94.95 Q14.15 94.15 15.15 93.65 15.95 93.15 16.35 93.15 L19.0 93.55 21.25 94.7 23.0 96.65 Q24.05 98.3 25.95 104.4 L23.55 103.4 23.15 103.25 M18.35 48.45 Q19.75 47.6 21.3 47.1 L23.05 46.7 25.6 46.5 26.0 46.5 27.9 49.45 25.45 49.25 24.0 49.35 22.35 49.65 20.25 50.45 Q18.3 51.4 16.75 53.2 L16.55 53.45 15.5 54.95 14.4 57.1 Q13.25 59.95 13.25 63.55 13.25 65.65 15.05 70.05 16.8 74.45 16.8 76.65 L16.75 77.6 16.45 77.85 15.75 77.9 Q14.25 77.9 13.1 75.3 L12.75 74.3 Q12.2 72.8 11.75 70.7 L11.1 65.95 10.8 63.85 10.75 63.45 Q10.75 58.45 12.7 54.7 13.65 52.8 15.05 51.2 16.55 49.5 18.35 48.45 M58.05 59.9 L59.9 61.3 Q60.0 65.0 61.25 66.8 L62.55 68.2 Q62.55 69.1 61.85 69.25 61.3 69.4 60.7 69.0 L60.3 68.65 Q59.0 67.4 58.45 65.1 58.0 63.2 58.0 60.65 L58.05 59.9 M54.15 102.3 L52.6 103.55 52.15 103.85 52.25 101.95 51.9 98.5 51.3 94.8 50.95 92.7 50.5 90.1 50.35 89.35 Q50.65 89.5 50.95 89.8 51.6 90.5 52.25 92.2 L53.3 96.2 53.55 97.5 54.15 102.25 54.15 102.3 M35.25 59.5 L38.5 59.25 Q41.5 59.25 43.9 60.1 46.9 61.1 48.85 63.55 50.0 64.95 50.75 66.85 51.45 68.5 51.8 70.75 52.15 73.1 52.15 76.1 L52.0 77.35 50.8 84.8 Q49.55 90.6 48.0 90.6 L47.65 90.6 47.65 90.85 Q47.4 93.25 46.6 95.55 L45.9 97.35 44.6 99.8 Q42.95 102.1 40.85 102.1 38.25 102.1 35.1 99.7 L34.85 99.5 Q32.8 97.9 31.7 95.8 30.75 94.05 30.45 92.0 L30.25 90.2 29.5 91.55 29.35 91.45 29.3 91.05 30.25 89.3 30.45 88.5 30.75 87.0 30.95 84.55 31.0 82.2 31.0 82.05 29.3 76.7 Q28.1 73.35 27.75 70.65 L27.55 68.3 Q27.55 65.45 28.75 63.5 29.35 62.45 30.25 61.65 L30.7 61.3 Q32.5 59.95 35.25 59.5 M29.65 64.3 Q29.4 65.15 29.55 66.35 L30.15 68.75 31.15 72.75 Q32.4 77.65 32.4 81.8 L32.4 82.15 32.05 85.4 32.0 85.6 32.15 85.7 32.35 85.85 32.4 85.6 32.4 86.2 32.3 86.85 32.05 87.25 Q31.75 87.6 31.7 88.1 L31.65 88.3 Q31.65 89.95 32.3 91.7 32.9 93.25 34.05 94.9 L34.8 95.95 Q38.0 100.1 40.8 100.1 43.25 100.1 44.95 95.2 L45.25 94.2 46.25 90.65 46.75 88.65 Q46.75 87.55 47.05 86.0 47.4 83.8 48.3 80.6 L49.6 74.9 49.8 72.6 Q49.8 70.65 49.15 68.75 L48.15 66.5 Q47.2 64.8 45.8 63.65 43.05 61.35 38.5 61.35 34.0 61.35 31.85 62.15 31.3 62.35 30.9 62.6 29.95 63.2 29.65 64.3" fill="#517e08" fill-rule="evenodd" stroke="none"/>
  </g>
</svg>
