<?xml version="1.0" encoding="UTF-8" standalone="no"?>
<svg xmlns:ffdec="https://www.free-decompiler.com/flash" xmlns:xlink="http://www.w3.org/1999/xlink" ffdec:objectType="shape" height="96.65px" width="97.6px" xmlns="http://www.w3.org/2000/svg">
  <g transform="matrix(1.0, 0.0, 0.0, 1.0, 42.1, 47.85)">
    <path d="M20.85 -46.4 Q32.6 -43.8 39.2 -36.85 41.1 -36.65 42.35 -35.35 47.9 -29.55 47.4 -25.2 L45.9 -20.35 40.4 -4.35 Q37.6 3.9 39.2 14.85 41.25 29.1 52.75 38.15 49.6 39.85 45.9 38.9 50.1 43.95 55.5 47.5 L55.0 48.75 Q51.15 49.05 47.6 47.5 33.3 41.3 29.1 25.8 29.25 33.95 32.5 41.3 L32.4 41.9 31.75 42.1 Q23.95 34.6 18.25 25.5 L17.45 27.9 17.0 27.9 16.6 27.8 16.15 27.65 Q14.75 27.15 13.25 26.1 12.6 29.2 13.5 32.2 13.95 33.8 13.4 35.35 8.1 34.75 3.7 29.85 L1.65 33.25 Q-3.05 32.35 -7.25 30.0 L-7.95 32.35 -12.35 30.75 -12.85 31.55 -13.6 31.65 -19.0 27.65 -23.1 29.3 -24.3 28.25 Q-26.45 26.65 -27.55 24.2 L-29.45 25.9 -29.55 25.85 -30.05 25.35 Q-31.7 23.25 -32.45 20.4 L-35.1 21.65 -35.65 21.5 -37.0 15.9 -40.5 18.1 Q-42.85 8.75 -41.8 -0.95 -40.85 -9.45 -34.55 -18.3 -31.65 -29.45 -24.9 -36.1 -16.9 -44.35 -4.6 -46.75 7.65 -49.15 20.85 -46.4 M13.0 -5.4 Q12.8 1.95 14.4 9.3 18.15 26.5 30.25 39.1 28.15 27.0 25.65 15.1 21.75 -3.55 30.1 -19.9 L30.5 -19.0 Q23.1 -0.9 27.4 18.15 31.2 34.8 44.25 44.75 47.7 46.4 51.3 47.1 L48.9 45.15 Q45.95 42.15 43.6 38.7 35.0 26.25 35.9 11.3 35.8 -3.35 42.8 -16.7 49.75 -30.05 39.1 -35.25 39.35 -30.6 33.1 -24.8 L37.1 -31.55 Q38.7 -32.55 36.75 -36.7 34.8 -40.85 19.95 -44.5 5.05 -48.2 -6.0 -45.35 -15.3 -42.95 -22.7 -34.55 -27.25 -28.35 -34.7 -14.9 -42.2 -1.5 -40.0 16.25 L-35.9 12.55 -35.0 20.0 -32.85 19.1 Q-34.45 10.6 -34.65 2.0 -35.05 -16.1 -22.05 -28.25 L-21.8 -27.9 -23.5 -26.3 Q-29.65 -17.35 -31.7 -6.75 -34.45 7.65 -30.05 21.5 L-29.3 23.6 -22.75 18.0 -16.75 25.0 -14.85 23.7 Q-19.5 12.65 -20.45 0.6 -21.75 -15.9 -10.65 -27.75 L-10.5 -27.95 -9.8 -27.75 -11.4 -26.2 Q-15.15 -20.75 -16.75 -14.4 L-17.45 -11.45 -18.2 -5.9 Q-20.35 11.3 -11.5 25.85 -9.9 22.9 -7.8 20.0 -6.85 18.75 -5.35 18.1 2.55 27.05 12.2 34.0 L12.2 24.5 12.75 24.35 16.75 26.25 16.95 23.05 16.0 20.95 Q9.85 7.05 12.5 -7.75 L13.0 -5.4 M46.4 37.5 L47.85 37.9 50.75 37.5 45.35 32.85 Q40.85 28.95 36.6 10.4 37.4 22.4 39.45 27.65 41.45 32.85 44.6 37.0 L46.4 37.5 M1.0 31.75 L2.8 28.8 -5.55 19.75 -11.6 28.45 -12.7 27.4 -13.6 26.15 -14.15 25.1 -16.6 26.75 -18.5 26.05 -19.55 25.55 -14.7 29.15 -13.75 30.0 -12.0 29.25 -8.95 31.05 -8.0 29.35 -7.65 28.9 -7.0 28.6 1.0 31.75 M-21.35 24.7 L-22.1 22.0 -25.25 23.0 -22.6 27.35 -21.35 24.7" fill="#97877d" fill-rule="evenodd" stroke="none"/>
    <path d="M12.5 -7.75 Q11.95 -14.8 13.0 -25.45 14.05 -36.15 19.9 -41.65 27.4 -41.3 31.25 -38.8 38.15 -34.25 35.75 -32.4 20.15 -12.25 22.6 13.15 23.2 19.65 24.35 26.05 14.45 11.85 13.0 -5.4 L12.5 -7.75 M48.9 45.15 Q36.15 37.7 31.0 23.25 26.0 9.1 27.75 -5.8 29.4 -19.65 39.25 -29.45 42.5 -18.65 38.05 -6.0 36.15 -0.55 35.9 5.4 L35.9 11.3 Q35.0 26.25 43.6 38.7 45.95 42.15 48.9 45.15 M-21.8 -27.9 Q-16.4 -37.85 -10.25 -39.65 -4.1 -41.45 -9.25 -36.0 -1.25 -43.5 3.75 -44.85 12.35 -44.2 16.55 -42.25 1.7 -12.5 4.1 4.6 5.7 15.85 8.4 26.9 0.4 21.0 -2.95 11.7 -6.05 2.95 -5.05 -6.4 L-3.1 -19.6 Q-8.35 -10.25 -9.1 0.45 -9.65 8.0 -12.7 15.1 -17.75 3.9 -17.55 -8.35 L-17.45 -11.45 -16.75 -14.4 Q-15.15 -20.75 -11.4 -26.2 L-9.8 -27.75 -10.5 -27.95 -10.65 -27.75 -8.25 -32.65 -10.75 -29.25 Q-20.85 -18.8 -22.25 -4.4 -23.3 6.5 -26.8 16.6 -27.8 19.45 -30.05 21.5 -34.45 7.65 -31.7 -6.75 -29.65 -17.35 -23.5 -26.3 L-21.8 -27.9 M22.2 -38.7 Q15.3 -19.9 16.5 -10.0 L17.95 2.6 18.9 2.6 Q20.8 -10.05 24.75 -22.25 26.45 -27.5 32.75 -35.25 24.4 -41.95 21.9 -38.3 L22.2 -38.7 M13.2 -42.1 L8.55 -39.6 Q-2.35 -26.7 -2.6 -9.85 -2.85 6.95 2.05 13.15 L2.75 13.05 3.35 12.35 Q0.95 3.25 2.3 -8.7 3.65 -20.7 10.9 -36.95 L13.2 -42.1 M37.6 -24.05 L37.6 -24.95 Q28.85 -13.5 28.15 1.6 27.6 14.3 34.45 24.85 L35.25 24.75 Q30.55 3.25 36.1 -18.05 L37.6 -24.05 M-17.3 -26.75 Q-30.65 -18.0 -30.35 -0.9 -30.25 6.1 -28.95 12.9 L-28.5 13.0 -27.6 11.9 Q-28.5 -8.95 -16.9 -25.5 L-17.3 -26.75 M-7.3 -34.0 Q-7.35 -32.45 -7.05 -34.4 L-7.3 -34.0 M-11.35 3.25 Q-9.95 -13.85 1.75 -37.75 -13.65 -26.15 -14.7 -8.0 -15.1 -1.4 -11.35 3.25" fill="#ebe8e0" fill-rule="evenodd" stroke="none"/>
    <path d="M13.0 -5.4 Q14.45 11.85 24.35 26.05 23.2 19.65 22.6 13.15 20.15 -12.25 35.75 -32.4 38.15 -34.25 31.25 -38.8 27.4 -41.3 19.9 -41.65 14.05 -36.15 13.0 -25.45 11.95 -14.8 12.5 -7.75 9.85 7.05 16.0 20.95 L16.95 23.05 16.75 26.25 12.75 24.35 12.2 24.5 12.2 34.0 Q2.55 27.05 -5.35 18.1 -6.85 18.75 -7.8 20.0 -9.9 22.9 -11.5 25.85 -20.35 11.3 -18.2 -5.9 L-17.45 -11.45 -17.55 -8.35 Q-17.75 3.9 -12.7 15.1 -9.65 8.0 -9.1 0.45 -8.35 -10.25 -3.1 -19.6 L-5.05 -6.4 Q-6.05 2.95 -2.95 11.7 0.4 21.0 8.4 26.9 5.7 15.85 4.1 4.6 1.7 -12.5 16.55 -42.25 12.35 -44.2 3.75 -44.85 -1.25 -43.5 -9.25 -36.0 -4.1 -41.45 -10.25 -39.65 -16.4 -37.85 -21.8 -27.9 L-22.05 -28.25 Q-35.05 -16.1 -34.65 2.0 -34.45 10.6 -32.85 19.1 L-35.0 20.0 -35.9 12.55 -40.0 16.25 Q-42.2 -1.5 -34.7 -14.9 -27.25 -28.35 -22.7 -34.55 -15.3 -42.95 -6.0 -45.35 5.05 -48.2 19.95 -44.5 34.8 -40.85 36.75 -36.7 38.7 -32.55 37.1 -31.55 L33.1 -24.8 Q39.35 -30.6 39.1 -35.25 49.75 -30.05 42.8 -16.7 35.8 -3.35 35.9 11.3 L35.9 5.4 Q36.15 -0.55 38.05 -6.0 42.5 -18.65 39.25 -29.45 29.4 -19.65 27.75 -5.8 26.0 9.1 31.0 23.25 36.15 37.7 48.9 45.15 L51.3 47.1 Q47.7 46.4 44.25 44.75 31.2 34.8 27.4 18.15 23.1 -0.9 30.5 -19.0 L30.1 -19.9 Q21.75 -3.55 25.65 15.1 28.15 27.0 30.25 39.1 18.15 26.5 14.4 9.3 12.8 1.95 13.0 -5.4 M46.4 37.5 L44.6 37.0 Q41.45 32.85 39.45 27.65 37.4 22.4 36.6 10.4 40.85 28.95 45.35 32.85 L50.75 37.5 47.85 37.9 46.4 37.5 M-30.05 21.5 Q-27.8 19.45 -26.8 16.6 -23.3 6.5 -22.25 -4.4 -20.85 -18.8 -10.75 -29.25 L-8.25 -32.65 -10.65 -27.75 Q-21.75 -15.9 -20.45 0.6 -19.5 12.65 -14.85 23.7 L-16.75 25.0 -22.75 18.0 -29.3 23.6 -30.05 21.5 M-7.3 -34.0 L-7.05 -34.4 Q-7.35 -32.45 -7.3 -34.0" fill="#d0cdc6" fill-rule="evenodd" stroke="none"/>
    <path d="M1.0 31.75 L-7.0 28.6 -7.65 28.9 -8.0 29.35 -8.95 31.05 -12.0 29.25 -13.75 30.0 -14.7 29.15 -19.55 25.55 -18.5 26.05 -16.6 26.75 -14.15 25.1 -13.6 26.15 -12.7 27.4 -11.6 28.45 -5.55 19.75 2.8 28.8 1.0 31.75 M-21.35 24.7 L-22.6 27.35 -25.25 23.0 -22.1 22.0 -21.35 24.7" fill="#bdbab3" fill-rule="evenodd" stroke="none"/>
    <path d="M37.6 -24.05 L36.1 -18.05 Q30.55 3.25 35.25 24.75 L34.45 24.85 Q27.6 14.3 28.15 1.6 28.85 -13.5 37.6 -24.95 L37.6 -24.05 M13.2 -42.1 L10.9 -36.95 Q3.65 -20.7 2.3 -8.7 0.95 3.25 3.35 12.35 L2.75 13.05 2.05 13.15 Q-2.85 6.95 -2.6 -9.85 -2.35 -26.7 8.55 -39.6 L13.2 -42.1 M22.2 -38.7 L21.9 -38.3 Q24.4 -41.95 32.75 -35.25 26.45 -27.5 24.75 -22.25 20.8 -10.05 18.9 2.6 L17.95 2.6 16.5 -10.0 Q15.3 -19.9 22.2 -38.7 M-17.3 -26.75 L-16.9 -25.5 Q-28.5 -8.95 -27.6 11.9 L-28.5 13.0 -28.95 12.9 Q-30.25 6.1 -30.35 -0.9 -30.65 -18.0 -17.3 -26.75 M-11.35 3.25 Q-15.1 -1.4 -14.7 -8.0 -13.65 -26.15 1.75 -37.75 -9.95 -13.85 -11.35 3.25" fill="#ffffff" fill-rule="evenodd" stroke="none"/>
  </g>
</svg>
