<?xml version="1.0" encoding="UTF-8" standalone="no"?>
<svg xmlns:ffdec="https://www.free-decompiler.com/flash" xmlns:xlink="http://www.w3.org/1999/xlink" ffdec:objectType="shape" height="63.15px" width="22.1px" xmlns="http://www.w3.org/2000/svg">
  <g transform="matrix(1.0, 0.0, 0.0, 1.0, 8.6, 1.55)">
    <path d="M8.5 58.5 L7.6 59.25 6.45 59.55 Q5.65 59.55 4.4 58.85 3.2 58.15 2.45 58.15 1.5 58.15 1.1 56.4 0.75 54.9 0.1 48.65 L-0.7 41.1 0.85 41.15 6.15 40.5 Q8.15 56.95 8.5 58.5" fill="#eaa76a" fill-rule="evenodd" stroke="none"/>
    <path d="M6.15 40.5 L8.35 39.65 9.95 56.0 8.5 58.5 Q8.15 56.95 6.15 40.5" fill="#e7964e" fill-rule="evenodd" stroke="none"/>
    <path d="M10.7 38.15 Q11.95 52.75 11.95 56.2 L11.95 57.2 11.2 57.4 9.35 59.5 Q7.35 61.6 6.05 61.6 2.35 61.6 1.3 60.5 0.1 59.15 -0.65 53.55 L-2.05 40.95 -0.7 41.1 0.1 48.65 Q0.75 54.9 1.1 56.4 1.5 58.15 2.45 58.15 3.2 58.15 4.4 58.85 5.65 59.55 6.45 59.55 L7.6 59.25 8.5 58.5 9.95 56.0 8.35 39.65 9.4 39.05 10.7 38.15" fill="#6c3d28" fill-rule="evenodd" stroke="none"/>
    <path d="M4.4 -0.7 L4.55 -1.3 5.3 -1.55 Q6.25 -1.55 7.45 6.35 L11.7 14.6 11.2 16.6 Q10.7 18.1 10.7 18.6 L12.1 20.05 13.5 21.45 Q13.5 23.6 12.5 25.45 L11.45 26.85 Q11.45 27.85 12.2 35.55 12.2 36.85 10.7 38.15 L9.4 39.05 8.35 39.65 6.15 40.5 0.85 41.15 -0.7 41.1 -2.05 40.95 Q-3.3 40.65 -3.7 40.15 -4.4 39.25 -4.45 34.65 -4.5 29.55 -6.15 27.65 -7.85 25.8 -7.85 24.7 L-6.6 21.75 -7.6 20.15 -8.6 18.85 Q-8.6 17.6 -7.95 16.2 L-7.35 14.55 Q-7.85 12.4 -7.75 11.55 -7.65 10.65 -6.4 9.6 L-7.9 0.4 -7.0 0.25 -6.1 -0.4 -5.95 0.15 -4.75 8.5 -4.35 8.25 -4.65 9.25 -5.95 12.5 -6.5 13.75 Q-6.6 13.95 -5.65 14.25 L-4.0 14.65 -5.55 15.1 Q-7.1 15.65 -7.2 16.35 L-7.5 18.65 -5.55 21.55 -6.2 22.55 Q-6.9 23.65 -6.9 24.65 L-6.5 25.05 -5.55 25.95 -5.0 25.85 -4.2 26.45 -3.85 26.6 -2.3 27.1 -0.55 27.4 4.35 27.65 4.55 27.65 7.15 27.5 7.6 27.4 9.7 26.8 10.75 26.1 Q12.3 24.8 12.3 21.7 12.3 21.2 10.95 19.95 10.0 19.15 8.9 18.75 L7.95 18.45 10.65 14.8 9.3 12.4 8.0 10.6 Q6.8 9.1 5.25 7.95 L4.4 -0.45 4.4 -0.7 M9.0 38.1 L10.6 36.65 10.75 36.4 11.25 35.55 10.65 27.45 9.8 27.9 7.25 28.55 4.7 28.8 3.6 28.8 -1.5 28.3 -2.2 28.1 -3.45 27.75 -3.7 27.8 Q-4.35 27.85 -3.9 28.3 L-3.3 39.3 -0.65 39.85 0.5 39.95 0.75 39.95 2.9 39.9 5.0 39.65 6.0 39.4 7.1 39.05 9.0 38.1" fill="#121212" fill-rule="evenodd" stroke="none"/>
    <path d="M1.15 -1.5 Q3.3 -1.35 4.4 -0.7 L4.4 -0.45 5.25 7.95 Q6.8 9.1 8.0 10.6 L9.3 12.4 10.65 14.8 7.95 18.45 8.9 18.75 Q10.0 19.15 10.95 19.95 12.3 21.2 12.3 21.7 12.3 24.8 10.75 26.1 L9.7 26.8 7.6 27.4 7.15 27.5 4.55 27.65 4.35 27.65 -0.55 27.4 -2.3 27.1 -3.85 26.6 -4.2 26.45 -5.0 25.85 -5.55 25.95 -6.5 25.05 -6.9 24.65 Q-6.9 23.65 -6.2 22.55 L-5.55 21.55 -7.5 18.65 -7.2 16.35 Q-7.1 15.65 -5.55 15.1 L-4.0 14.65 -5.65 14.25 Q-6.6 13.95 -6.5 13.75 L-5.95 12.5 -4.65 9.25 -4.35 8.25 -4.15 7.95 Q-3.65 7.7 -3.35 7.6 -2.85 9.05 -4.3 11.8 L-5.4 13.55 -4.05 13.65 1.1 14.15 Q2.0 14.3 2.55 14.6 0.55 15.95 -2.25 16.1 L-3.7 16.25 -5.3 16.6 Q-6.65 17.0 -6.5 17.7 -6.4 18.35 -5.5 18.9 L-4.95 19.0 Q-3.9 19.45 -3.45 21.8 L-4.25 23.7 -4.95 25.05 -4.5 25.15 -4.05 25.2 -2.55 25.25 2.05 25.65 4.25 24.95 5.3 24.55 6.8 24.0 9.35 22.9 10.0 22.55 9.2 21.7 7.1 19.6 6.4 19.75 Q6.0 19.8 5.55 20.0 L4.0 20.35 3.7 20.35 0.35 20.25 -3.15 19.75 -3.1 19.7 2.65 17.85 3.35 17.65 6.1 16.6 8.55 15.3 9.4 14.65 8.4 13.75 5.55 11.2 5.25 10.95 Q2.65 8.5 2.1 7.25 L2.05 7.05 2.0 7.0 2.1 7.0 1.15 -1.5 M-0.65 39.85 L-3.3 39.3 -3.9 28.3 Q-4.35 27.85 -3.7 27.8 L-3.45 27.75 -2.2 28.1 -1.5 28.3 3.6 28.8 4.7 28.8 7.25 28.55 9.8 27.9 10.65 27.45 11.25 35.55 10.75 36.4 10.6 36.65 9.0 38.1 Q7.8 32.2 8.05 29.95 7.95 29.7 7.4 29.7 L7.25 29.7 7.1 39.05 6.0 39.4 5.0 39.65 Q4.95 35.4 5.05 31.35 L5.05 30.05 4.85 29.9 4.75 29.8 3.8 29.55 Q2.8 29.55 3.0 29.75 L2.8 29.95 Q2.55 30.3 2.55 30.9 L2.75 34.2 2.9 39.9 0.75 39.95 0.75 39.45 Q0.75 33.4 0.05 31.3 L-0.55 29.1 Q-1.35 29.25 -1.35 30.6 -1.35 34.1 -0.65 39.85" fill="#1f1f1f" fill-rule="evenodd" stroke="none"/>
    <path d="M-5.95 0.15 L-2.35 -1.55 1.15 -1.5 2.1 7.0 2.0 7.0 2.05 7.05 2.1 7.25 Q2.65 8.5 5.25 10.95 L5.55 11.2 8.4 13.75 9.4 14.65 8.55 15.3 6.1 16.6 3.35 17.65 2.65 17.85 -3.1 19.7 -3.15 19.75 0.35 20.25 3.7 20.35 4.0 20.35 5.55 20.0 Q6.0 19.8 6.4 19.75 L7.1 19.6 9.2 21.7 10.0 22.55 9.35 22.9 6.8 24.0 5.3 24.55 4.25 24.95 2.05 25.65 -2.55 25.25 -4.05 25.2 -4.5 25.15 -4.95 25.05 -4.25 23.7 -3.45 21.8 Q-3.9 19.45 -4.95 19.0 L-5.5 18.9 Q-6.4 18.35 -6.5 17.7 -6.65 17.0 -5.3 16.6 L-3.7 16.25 -2.25 16.1 Q0.55 15.95 2.55 14.6 2.0 14.3 1.1 14.15 L-4.05 13.65 -5.4 13.55 -4.3 11.8 Q-2.85 9.05 -3.35 7.6 -3.65 7.7 -4.15 7.95 L-4.35 8.25 -4.75 8.5 -5.95 0.15 M9.0 38.1 L7.1 39.05 7.25 29.7 7.4 29.7 Q7.95 29.7 8.05 29.95 7.8 32.2 9.0 38.1 M5.0 39.65 L2.9 39.9 2.75 34.2 2.55 30.9 Q2.55 30.3 2.8 29.95 L3.0 29.75 Q2.8 29.55 3.8 29.55 L4.75 29.8 4.85 29.9 5.05 30.05 5.05 31.35 Q4.95 35.4 5.0 39.65 M0.75 39.95 L0.5 39.95 -0.65 39.85 Q-1.35 34.1 -1.35 30.6 -1.35 29.25 -0.55 29.1 L0.05 31.3 Q0.75 33.4 0.75 39.45 L0.75 39.95" fill="#333333" fill-rule="evenodd" stroke="none"/>
  </g>
</svg>
