<?xml version="1.0" encoding="UTF-8" standalone="no"?>
<svg xmlns:ffdec="https://www.free-decompiler.com/flash" xmlns:xlink="http://www.w3.org/1999/xlink" ffdec:objectType="shape" height="110.95px" width="125.3px" xmlns="http://www.w3.org/2000/svg">
  <g transform="matrix(1.0, 0.0, 0.0, 1.0, 0.0, 110.9)">
    <path d="M50.6 -54.6 L50.6 -55.6 59.8 -55.6 59.8 -54.6 50.6 -54.6 M45.6 -55.6 L45.6 -54.6 36.4 -54.6 36.4 -55.6 45.6 -55.6 M50.6 -52.8 L50.6 -53.4 59.8 -53.4 59.8 -52.8 50.6 -52.8 M45.6 -53.4 L45.6 -52.8 36.4 -52.8 36.4 -53.4 45.6 -53.4 M64.8 -54.6 L64.8 -55.6 74.0 -55.6 74.0 -54.6 64.8 -54.6 M64.8 -52.8 L64.8 -53.4 74.0 -53.4 74.0 -52.8 64.8 -52.8 M79.0 -54.6 L79.0 -55.6 88.2 -55.6 88.2 -54.6 79.0 -54.6 M79.0 -52.8 L79.0 -53.4 88.2 -53.4 88.2 -52.8 79.0 -52.8 M93.2 -52.8 L93.2 -53.4 102.65 -53.4 102.65 -52.8 93.2 -52.8 M93.2 -54.6 L93.2 -55.6 102.65 -55.6 102.65 -54.6 93.2 -54.6 M16.35 -54.6 L11.1 -54.6 11.1 -53.4 16.35 -53.4 17.2 -53.4 17.2 -52.8 16.35 -52.8 11.1 -52.8 11.1 -45.8 17.2 -45.8 17.2 -44.8 11.1 -44.8 11.1 -39.6 17.2 -39.6 17.2 -38.6 16.35 -38.6 11.1 -38.6 11.1 -37.4 16.35 -37.4 17.2 -37.4 17.2 -36.8 16.35 -36.8 11.1 -36.8 11.1 -29.8 17.2 -29.8 17.2 -28.8 10.6 -28.8 Q10.4 -28.8 10.25 -28.95 L10.1 -29.3 10.1 -57.25 11.1 -57.25 11.1 -55.6 17.2 -55.6 17.2 -54.6 16.35 -54.6 M22.2 -54.6 L22.2 -55.6 31.4 -55.6 31.4 -54.6 22.2 -54.6 M22.2 -52.8 L22.2 -53.4 31.4 -53.4 31.4 -52.8 22.2 -52.8 M36.4 -44.8 L36.4 -45.8 45.6 -45.8 45.6 -44.8 36.4 -44.8 M31.4 -45.8 L31.4 -44.8 22.2 -44.8 22.2 -45.8 31.4 -45.8 M31.4 -38.6 L22.2 -38.6 22.2 -39.6 31.4 -39.6 31.4 -38.6 M22.2 -37.4 L31.4 -37.4 31.4 -36.8 22.2 -36.8 22.2 -37.4 M36.4 -38.6 L36.4 -39.6 45.6 -39.6 45.6 -38.6 36.4 -38.6 M22.2 -28.8 L22.2 -29.8 31.4 -29.8 31.4 -28.8 22.2 -28.8 M36.4 -36.8 L36.4 -37.4 45.6 -37.4 45.6 -36.8 36.4 -36.8 M36.4 -28.8 L36.4 -29.8 45.6 -29.8 45.6 -28.8 36.4 -28.8 M79.0 -44.8 L79.0 -45.8 88.2 -45.8 88.2 -44.8 79.0 -44.8 M74.0 -45.8 L74.0 -44.8 64.8 -44.8 64.8 -45.8 74.0 -45.8 M107.65 -52.8 L107.65 -53.4 109.1 -53.4 113.85 -53.4 113.85 -54.6 109.1 -54.6 107.65 -54.6 107.65 -55.6 113.85 -55.6 113.85 -57.25 114.85 -57.25 114.85 -29.3 114.7 -28.95 Q114.55 -28.8 114.35 -28.8 L107.65 -28.8 107.65 -29.8 113.85 -29.8 113.85 -36.8 109.1 -36.8 107.65 -36.8 107.65 -37.4 109.1 -37.4 113.85 -37.4 113.85 -38.6 109.1 -38.6 107.65 -38.6 107.65 -39.6 113.85 -39.6 113.85 -44.8 107.65 -44.8 107.65 -45.8 113.85 -45.8 113.85 -52.8 109.1 -52.8 107.65 -52.8 M74.0 -38.6 L64.8 -38.6 64.8 -39.6 74.0 -39.6 74.0 -38.6 M64.8 -37.4 L74.0 -37.4 74.0 -36.8 64.8 -36.8 64.8 -37.4 M79.0 -38.6 L79.0 -39.6 88.2 -39.6 88.2 -38.6 79.0 -38.6 M64.8 -28.8 L64.8 -29.8 74.0 -29.8 74.0 -28.8 64.8 -28.8 M79.0 -36.8 L79.0 -37.4 88.2 -37.4 88.2 -36.8 79.0 -36.8 M79.0 -28.8 L79.0 -29.8 88.2 -29.8 88.2 -28.8 79.0 -28.8 M59.8 -45.8 L59.8 -44.8 50.6 -44.8 50.6 -45.8 59.8 -45.8 M59.8 -39.6 L59.8 -38.6 50.6 -38.6 50.6 -39.6 59.8 -39.6 M50.6 -37.4 L59.8 -37.4 59.8 -36.8 50.6 -36.8 50.6 -37.4 M50.6 -29.8 L59.8 -29.8 59.8 -28.8 50.6 -28.8 50.6 -29.8 M102.65 -45.8 L102.65 -44.8 93.2 -44.8 93.2 -45.8 102.65 -45.8 M102.65 -39.6 L102.65 -38.6 93.2 -38.6 93.2 -39.6 102.65 -39.6 M102.65 -37.4 L102.65 -36.8 93.2 -36.8 93.2 -37.4 102.65 -37.4 M102.65 -29.8 L102.65 -28.8 93.2 -28.8 93.2 -29.8 102.65 -29.8" fill="#4d0100" fill-rule="evenodd" stroke="none"/>
    <path d="M50.6 -52.8 L59.8 -52.8 59.8 -47.3 50.6 -47.3 50.6 -52.8 M36.4 -52.8 L45.6 -52.8 45.6 -47.3 36.4 -47.3 36.4 -52.8 M79.0 -52.8 L88.2 -52.8 88.2 -47.3 79.0 -47.3 79.0 -52.8 M64.8 -52.8 L74.0 -52.8 74.0 -47.3 64.8 -47.3 64.8 -52.8 M16.35 -53.4 L11.1 -53.4 11.1 -54.6 16.35 -54.6 16.35 -53.4 M16.35 -36.8 L17.2 -36.8 17.2 -31.55 16.35 -31.55 16.35 -36.8 M16.35 -37.4 L11.1 -37.4 11.1 -38.6 16.35 -38.6 16.35 -37.4 M16.35 -52.8 L17.2 -52.8 17.2 -47.3 16.35 -47.3 16.35 -52.8 M22.2 -52.8 L31.4 -52.8 31.4 -47.3 22.2 -47.3 22.2 -52.8 M22.2 -36.8 L31.4 -36.8 31.4 -31.55 22.2 -31.55 22.2 -36.8 M36.4 -31.55 L36.4 -36.8 45.6 -36.8 45.6 -31.55 36.4 -31.55 M93.2 -47.3 L93.2 -52.8 102.65 -52.8 102.65 -47.3 93.2 -47.3 M64.8 -36.8 L74.0 -36.8 74.0 -31.55 64.8 -31.55 64.8 -36.8 M79.0 -31.55 L79.0 -36.8 88.2 -36.8 88.2 -31.55 79.0 -31.55 M50.6 -36.8 L59.8 -36.8 59.8 -31.55 50.6 -31.55 50.6 -36.8 M109.1 -53.4 L109.1 -54.6 113.85 -54.6 113.85 -53.4 109.1 -53.4 M107.65 -52.8 L109.1 -52.8 109.1 -47.3 107.65 -47.3 107.65 -52.8 M109.1 -38.6 L113.85 -38.6 113.85 -37.4 109.1 -37.4 109.1 -38.6 M107.65 -36.8 L109.1 -36.8 109.1 -31.55 107.65 -31.55 107.65 -36.8 M102.65 -36.8 L102.65 -31.55 93.2 -31.55 93.2 -36.8 102.65 -36.8" fill="#cb0b06" fill-rule="evenodd" stroke="none"/>
    <path d="M50.6 -55.6 L50.6 -54.6 45.6 -54.6 45.6 -55.6 50.6 -55.6 M59.8 -54.6 L59.8 -55.6 64.8 -55.6 64.8 -54.6 59.8 -54.6 M50.6 -53.4 L50.6 -52.8 45.6 -52.8 45.6 -53.4 50.6 -53.4 M59.8 -52.8 L59.8 -53.4 64.8 -53.4 64.8 -52.8 59.8 -52.8 M36.4 -53.4 L36.4 -52.8 31.4 -52.8 31.4 -53.4 36.4 -53.4 M74.0 -54.6 L74.0 -55.6 79.0 -55.6 79.0 -54.6 74.0 -54.6 M74.0 -52.8 L74.0 -53.4 79.0 -53.4 79.0 -52.8 74.0 -52.8 M88.2 -54.6 L88.2 -55.6 93.2 -55.6 93.2 -54.6 88.2 -54.6 M88.2 -52.8 L88.2 -53.4 93.2 -53.4 93.2 -52.8 88.2 -52.8 M74.0 -45.8 L79.0 -45.8 79.0 -44.8 74.0 -44.8 74.0 -45.8 M17.2 -54.6 L17.2 -55.6 22.2 -55.6 22.2 -54.6 17.2 -54.6 M17.2 -28.8 L17.2 -29.8 22.2 -29.8 22.2 -28.8 17.2 -28.8 M17.2 -36.8 L17.2 -37.4 22.2 -37.4 22.2 -36.8 17.2 -36.8 M17.2 -38.6 L17.2 -39.6 22.2 -39.6 22.2 -38.6 17.2 -38.6 M17.2 -44.8 L17.2 -45.8 22.2 -45.8 22.2 -44.8 17.2 -44.8 M17.2 -52.8 L17.2 -53.4 22.2 -53.4 22.2 -52.8 17.2 -52.8 M31.4 -54.6 L31.4 -55.6 36.4 -55.6 36.4 -54.6 31.4 -54.6 M45.6 -45.8 L50.6 -45.8 50.6 -44.8 45.6 -44.8 45.6 -45.8 M36.4 -45.8 L36.4 -44.8 31.4 -44.8 31.4 -45.8 36.4 -45.8 M31.4 -37.4 L36.4 -37.4 36.4 -36.8 31.4 -36.8 31.4 -37.4 M36.4 -38.6 L31.4 -38.6 31.4 -39.6 36.4 -39.6 36.4 -38.6 M31.4 -28.8 L31.4 -29.8 36.4 -29.8 36.4 -28.8 31.4 -28.8 M45.6 -28.8 L45.6 -29.8 50.6 -29.8 50.6 -28.8 45.6 -28.8 M102.65 -52.8 L102.65 -53.4 107.65 -53.4 107.65 -52.8 102.65 -52.8 M102.65 -54.6 L102.65 -55.6 107.65 -55.6 107.65 -54.6 102.65 -54.6 M88.2 -44.8 L88.2 -45.8 93.2 -45.8 93.2 -44.8 88.2 -44.8 M74.0 -37.4 L79.0 -37.4 79.0 -36.8 74.0 -36.8 74.0 -37.4 M79.0 -38.6 L74.0 -38.6 74.0 -39.6 79.0 -39.6 79.0 -38.6 M64.8 -39.6 L64.8 -38.6 59.8 -38.6 59.8 -39.6 64.8 -39.6 M59.8 -37.4 L64.8 -37.4 64.8 -36.8 59.8 -36.8 59.8 -37.4 M64.8 -45.8 L64.8 -44.8 59.8 -44.8 59.8 -45.8 64.8 -45.8 M64.8 -29.8 L64.8 -28.8 59.8 -28.8 59.8 -29.8 64.8 -29.8 M74.0 -28.8 L74.0 -29.8 79.0 -29.8 79.0 -28.8 74.0 -28.8 M88.2 -28.8 L88.2 -29.8 93.2 -29.8 93.2 -28.8 88.2 -28.8 M50.6 -39.6 L50.6 -38.6 45.6 -38.6 45.6 -39.6 50.6 -39.6 M45.6 -37.4 L50.6 -37.4 50.6 -36.8 45.6 -36.8 45.6 -37.4 M107.65 -45.8 L107.65 -44.8 102.65 -44.8 102.65 -45.8 107.65 -45.8 M107.65 -39.6 L107.65 -38.6 102.65 -38.6 102.65 -39.6 107.65 -39.6 M107.65 -37.4 L107.65 -36.8 102.65 -36.8 102.65 -37.4 107.65 -37.4 M107.65 -29.8 L107.65 -28.8 102.65 -28.8 102.65 -29.8 107.65 -29.8 M93.2 -39.6 L93.2 -38.6 88.2 -38.6 88.2 -39.6 93.2 -39.6 M93.2 -36.8 L88.2 -36.8 88.2 -37.4 93.2 -37.4 93.2 -36.8" fill="#5f4300" fill-rule="evenodd" stroke="none"/>
    <path d="M45.6 -52.8 L50.6 -52.8 50.6 -47.3 45.6 -47.3 45.6 -52.8 M74.0 -52.8 L79.0 -52.8 79.0 -47.3 74.0 -47.3 74.0 -52.8 M59.8 -52.8 L64.8 -52.8 64.8 -47.3 59.8 -47.3 59.8 -52.8 M88.2 -47.3 L88.2 -52.8 93.2 -52.8 93.2 -47.3 88.2 -47.3 M31.4 -52.8 L36.4 -52.8 36.4 -47.3 31.4 -47.3 31.4 -52.8 M17.2 -52.8 L22.2 -52.8 22.2 -47.3 17.2 -47.3 17.2 -52.8 M22.2 -31.55 L17.2 -31.55 17.2 -36.8 22.2 -36.8 22.2 -31.55 M31.4 -31.55 L31.4 -36.8 36.4 -36.8 36.4 -31.55 31.4 -31.55 M45.6 -31.55 L45.6 -36.8 50.6 -36.8 50.6 -31.55 45.6 -31.55 M102.65 -47.3 L102.65 -52.8 107.65 -52.8 107.65 -47.3 102.65 -47.3 M64.8 -31.55 L59.8 -31.55 59.8 -36.8 64.8 -36.8 64.8 -31.55 M74.0 -31.55 L74.0 -36.8 79.0 -36.8 79.0 -31.55 74.0 -31.55 M88.2 -31.55 L88.2 -36.8 93.2 -36.8 93.2 -31.55 88.2 -31.55 M102.65 -36.8 L107.65 -36.8 107.65 -31.55 102.65 -31.55 102.65 -36.8" fill="#f3bf14" fill-rule="evenodd" stroke="none"/>
    <path d="M45.6 -47.3 L50.6 -47.3 50.6 -45.8 45.6 -45.8 45.6 -47.3 M74.0 -47.3 L79.0 -47.3 79.0 -45.8 74.0 -45.8 74.0 -47.3 M36.4 -47.3 L36.4 -45.8 31.4 -45.8 31.4 -47.3 36.4 -47.3 M22.2 -47.3 L22.2 -45.8 17.2 -45.8 17.2 -47.3 22.2 -47.3 M22.2 -31.55 L22.2 -29.8 17.2 -29.8 17.2 -31.55 22.2 -31.55 M36.4 -31.55 L36.4 -29.8 31.4 -29.8 31.4 -31.55 36.4 -31.55 M88.2 -45.8 L88.2 -47.3 93.2 -47.3 93.2 -45.8 88.2 -45.8 M64.8 -47.3 L64.8 -45.8 59.8 -45.8 59.8 -47.3 64.8 -47.3 M64.8 -31.55 L64.8 -29.8 59.8 -29.8 59.8 -31.55 64.8 -31.55 M79.0 -31.55 L79.0 -29.8 74.0 -29.8 74.0 -31.55 79.0 -31.55 M50.6 -31.55 L50.6 -29.8 45.6 -29.8 45.6 -31.55 50.6 -31.55 M107.65 -47.3 L107.65 -45.8 102.65 -45.8 102.65 -47.3 107.65 -47.3 M102.65 -31.55 L107.65 -31.55 107.65 -29.8 102.65 -29.8 102.65 -31.55 M93.2 -31.55 L93.2 -29.8 88.2 -29.8 88.2 -31.55 93.2 -31.55" fill="#d0a30f" fill-rule="evenodd" stroke="none"/>
    <path d="M16.35 -92.75 L11.1 -92.75 11.1 -91.4 16.35 -91.4 109.1 -91.4 113.35 -91.4 113.35 -92.75 109.1 -92.75 16.35 -92.75 M16.35 -90.85 L11.1 -90.85 11.1 -66.05 10.1 -66.05 10.1 -93.15 10.25 -93.5 10.6 -93.65 113.85 -93.65 114.2 -93.5 114.35 -93.15 114.35 -66.05 113.35 -66.05 113.35 -90.85 109.1 -90.85 16.35 -90.85 M10.1 -64.05 L11.1 -64.05 11.1 -61.8 113.35 -61.8 113.35 -64.05 114.35 -64.05 114.35 -63.6 114.7 -63.45 114.85 -63.1 114.85 -61.85 114.35 -61.85 114.35 -61.8 114.7 -61.65 114.85 -61.3 114.85 -60.05 113.85 -60.05 113.85 -60.8 11.1 -60.8 11.1 -60.05 10.1 -60.05 10.1 -64.05" fill="#121212" fill-rule="evenodd" stroke="none"/>
    <path d="M10.1 -66.05 L11.1 -66.05 11.1 -90.85 16.35 -90.85 16.35 -66.05 109.1 -66.05 109.1 -90.85 113.35 -90.85 113.35 -66.05 114.35 -66.05 114.35 -64.05 113.35 -64.05 113.35 -61.8 11.1 -61.8 11.1 -64.05 10.1 -64.05 10.1 -66.05" fill="#272727" fill-rule="evenodd" stroke="none"/>
    <path d="M64.8 -47.3 L74.0 -47.3 74.0 -45.8 64.8 -45.8 64.8 -47.3 M79.0 -45.8 L79.0 -47.3 88.2 -47.3 88.2 -45.8 79.0 -45.8 M17.2 -29.8 L11.1 -29.8 11.1 -36.8 16.35 -36.8 16.35 -31.55 17.2 -31.55 17.2 -29.8 M17.2 -45.8 L11.1 -45.8 11.1 -52.8 16.35 -52.8 16.35 -47.3 17.2 -47.3 17.2 -45.8 M36.4 -47.3 L45.6 -47.3 45.6 -45.8 36.4 -45.8 36.4 -47.3 M50.6 -45.8 L50.6 -47.3 59.8 -47.3 59.8 -45.8 50.6 -45.8 M22.2 -47.3 L31.4 -47.3 31.4 -45.8 22.2 -45.8 22.2 -47.3 M31.4 -29.8 L22.2 -29.8 22.2 -31.55 31.4 -31.55 31.4 -29.8 M36.4 -31.55 L45.6 -31.55 45.6 -29.8 36.4 -29.8 36.4 -31.55 M93.2 -45.8 L93.2 -47.3 102.65 -47.3 102.65 -45.8 93.2 -45.8 M74.0 -29.8 L64.8 -29.8 64.8 -31.55 74.0 -31.55 74.0 -29.8 M59.8 -31.55 L59.8 -29.8 50.6 -29.8 50.6 -31.55 59.8 -31.55 M79.0 -31.55 L88.2 -31.55 88.2 -29.8 79.0 -29.8 79.0 -31.55 M109.1 -52.8 L113.85 -52.8 113.85 -45.8 107.65 -45.8 107.65 -47.3 109.1 -47.3 109.1 -52.8 M109.1 -36.8 L113.85 -36.8 113.85 -29.8 107.65 -29.8 107.65 -31.55 109.1 -31.55 109.1 -36.8 M102.65 -31.55 L102.65 -29.8 93.2 -29.8 93.2 -31.55 102.65 -31.55" fill="#8c0300" fill-rule="evenodd" stroke="none"/>
    <path d="M16.35 -91.4 L11.1 -91.4 11.1 -92.75 16.35 -92.75 16.35 -91.4 M109.1 -92.75 L113.35 -92.75 113.35 -91.4 109.1 -91.4 109.1 -92.75 M16.35 -90.85 L109.1 -90.85 109.1 -66.05 16.35 -66.05 16.35 -90.85" fill="#3c3c3c" fill-rule="evenodd" stroke="none"/>
    <path d="M16.35 -92.75 L109.1 -92.75 109.1 -91.4 16.35 -91.4 16.35 -92.75" fill="#5b5b5b" fill-rule="evenodd" stroke="none"/>
    <path d="M45.6 -54.6 L50.6 -54.6 50.6 -53.4 45.6 -53.4 45.6 -54.6 M59.8 -53.4 L59.8 -54.6 64.8 -54.6 64.8 -53.4 59.8 -53.4 M74.0 -53.4 L74.0 -54.6 79.0 -54.6 79.0 -53.4 74.0 -53.4 M93.2 -53.4 L88.2 -53.4 88.2 -54.6 93.2 -54.6 93.2 -53.4 M17.2 -53.4 L17.2 -54.6 22.2 -54.6 22.2 -53.4 17.2 -53.4 M31.4 -53.4 L31.4 -54.6 36.4 -54.6 36.4 -53.4 31.4 -53.4 M31.4 -37.4 L31.4 -38.6 36.4 -38.6 36.4 -37.4 31.4 -37.4 M22.2 -38.6 L22.2 -37.4 17.2 -37.4 17.2 -38.6 22.2 -38.6 M45.6 -37.4 L45.6 -38.6 50.6 -38.6 50.6 -37.4 45.6 -37.4 M107.65 -53.4 L102.65 -53.4 102.65 -54.6 107.65 -54.6 107.65 -53.4 M74.0 -37.4 L74.0 -38.6 79.0 -38.6 79.0 -37.4 74.0 -37.4 M64.8 -38.6 L64.8 -37.4 59.8 -37.4 59.8 -38.6 64.8 -38.6 M88.2 -37.4 L88.2 -38.6 93.2 -38.6 93.2 -37.4 88.2 -37.4 M102.65 -38.6 L107.65 -38.6 107.65 -37.4 102.65 -37.4 102.65 -38.6" fill="#ffd13a" fill-rule="evenodd" stroke="none"/>
    <path d="M50.6 -54.6 L59.8 -54.6 59.8 -53.4 50.6 -53.4 50.6 -54.6 M45.6 -54.6 L45.6 -53.4 36.4 -53.4 36.4 -54.6 45.6 -54.6 M64.8 -53.4 L64.8 -54.6 74.0 -54.6 74.0 -53.4 64.8 -53.4 M79.0 -53.4 L79.0 -54.6 88.2 -54.6 88.2 -53.4 79.0 -53.4 M16.35 -54.6 L17.2 -54.6 17.2 -53.4 16.35 -53.4 16.35 -54.6 M17.2 -37.4 L16.35 -37.4 16.35 -38.6 17.2 -38.6 17.2 -37.4 M22.2 -53.4 L22.2 -54.6 31.4 -54.6 31.4 -53.4 22.2 -53.4 M31.4 -38.6 L31.4 -37.4 22.2 -37.4 22.2 -38.6 31.4 -38.6 M36.4 -37.4 L36.4 -38.6 45.6 -38.6 45.6 -37.4 36.4 -37.4 M102.65 -53.4 L93.2 -53.4 93.2 -54.6 102.65 -54.6 102.65 -53.4 M74.0 -38.6 L74.0 -37.4 64.8 -37.4 64.8 -38.6 74.0 -38.6 M79.0 -37.4 L79.0 -38.6 88.2 -38.6 88.2 -37.4 79.0 -37.4 M59.8 -38.6 L59.8 -37.4 50.6 -37.4 50.6 -38.6 59.8 -38.6 M107.65 -54.6 L109.1 -54.6 109.1 -53.4 107.65 -53.4 107.65 -54.6 M107.65 -38.6 L109.1 -38.6 109.1 -37.4 107.65 -37.4 107.65 -38.6 M102.65 -38.6 L102.65 -37.4 93.2 -37.4 93.2 -38.6 102.65 -38.6" fill="#ff2620" fill-rule="evenodd" stroke="none"/>
    <path d="M54.6 -62.05 Q56.4 -61.75 59.15 -59.4 69.4 -50.7 71.0 -48.8 73.35 -46.25 78.7 -44.65 81.6 -43.8 86.5 -42.7 L90.95 -42.0 94.35 -41.65 Q98.1 -40.45 99.75 -36.9 100.75 -34.75 100.75 -32.55 100.75 -27.55 97.55 -25.0 94.75 -22.75 90.2 -22.75 84.1 -22.75 80.95 -25.2 77.75 -27.7 69.3 -27.7 63.85 -27.7 56.8 -24.85 49.8 -22.0 49.25 -22.0 46.25 -22.0 40.0 -24.8 39.0 -25.25 37.95 -26.05 36.65 -27.15 36.05 -28.4 L33.15 -32.15 Q30.7 -35.1 30.3 -36.8 29.85 -38.7 29.55 -41.4 L29.3 -44.6 28.65 -47.45 Q28.0 -49.75 28.0 -50.5 28.0 -53.05 30.6 -55.35 32.75 -57.3 35.4 -58.1 38.6 -59.1 42.45 -61.5 45.4 -63.35 47.25 -63.35 L49.4 -62.85 51.15 -62.3 54.6 -62.05 M51.65 -60.8 Q49.65 -60.8 48.85 -61.35 48.05 -61.9 47.3 -61.9 43.85 -61.7 38.7 -58.6 38.0 -58.2 37.55 -57.05 37.2 -56.1 37.25 -55.35 L36.7 -55.05 35.45 -55.85 Q34.3 -56.55 33.55 -56.55 31.2 -56.55 29.75 -53.6 28.65 -51.3 28.65 -49.1 28.65 -47.7 29.2 -47.2 29.7 -46.65 31.55 -46.25 31.8 -46.85 31.8 -45.85 L31.05 -44.6 30.25 -43.45 Q30.25 -39.3 33.15 -34.5 35.55 -30.55 37.55 -29.25 38.6 -28.55 40.15 -26.4 42.15 -24.6 46.35 -24.6 47.4 -24.6 48.6 -25.35 50.0 -26.2 53.1 -26.5 55.4 -26.7 60.3 -29.3 62.7 -30.6 64.75 -31.85 L66.75 -30.8 66.6 -31.65 66.35 -31.7 66.85 -31.75 67.7 -31.55 Q67.7 -31.1 68.0 -30.85 69.7 -29.5 80.75 -27.65 L86.2 -26.95 Q87.3 -26.8 87.6 -25.85 L87.6 -25.8 82.6 -26.3 Q83.6 -25.9 85.15 -24.7 86.9 -23.7 89.75 -23.7 L90.85 -23.85 91.15 -24.55 90.55 -25.45 89.95 -26.0 Q92.6 -24.75 95.2 -26.8 97.95 -28.95 97.95 -33.05 97.95 -37.75 94.95 -40.25 92.5 -42.3 90.2 -41.75 L88.05 -41.45 Q89.0 -41.1 91.55 -40.3 L93.55 -39.45 93.45 -39.1 Q91.85 -39.3 84.4 -41.35 L76.1 -43.8 Q75.4 -44.05 73.75 -45.15 L71.9 -46.15 Q70.1 -45.7 67.8 -46.15 67.2 -46.25 66.25 -49.2 65.3 -52.05 64.5 -52.05 62.95 -52.05 61.5 -53.9 L57.6 -58.35 55.25 -60.35 51.65 -60.8" fill="#8c531c" fill-rule="evenodd" stroke="none"/>
    <path d="M47.1 -59.3 Q46.15 -59.95 45.4 -59.95 43.4 -59.95 40.95 -58.5 38.9 -57.3 38.55 -56.5 38.35 -56.0 39.05 -51.45 L38.9 -50.85 34.7 -55.05 Q32.7 -55.05 31.5 -53.25 30.25 -51.4 30.25 -48.3 30.25 -47.6 31.3 -47.3 L35.2 -46.9 35.25 -46.55 Q35.0 -46.2 33.4 -45.15 32.25 -44.4 32.25 -42.85 32.25 -39.65 37.55 -32.9 42.85 -26.25 45.1 -26.25 47.5 -26.25 56.9 -28.6 59.1 -29.1 61.65 -32.2 63.95 -34.9 64.8 -37.35 L65.25 -37.45 Q65.7 -34.6 66.75 -33.6 67.6 -32.75 70.1 -32.25 80.0 -30.25 87.0 -27.1 86.3 -30.65 82.85 -32.1 78.55 -33.25 76.6 -34.15 L76.5 -34.2 77.1 -34.25 Q80.05 -34.25 85.6 -30.65 91.1 -27.05 92.3 -27.05 93.2 -27.05 94.15 -28.5 95.4 -30.4 95.4 -33.5 95.4 -37.05 92.25 -38.0 L87.6 -38.3 Q86.85 -38.3 81.0 -40.1 74.15 -42.25 69.45 -44.35 L68.8 -42.7 Q69.6 -41.9 77.65 -39.15 86.05 -36.25 88.25 -34.65 73.95 -38.25 71.1 -39.65 65.15 -42.55 65.15 -48.75 65.15 -49.35 62.5 -51.75 59.5 -54.5 58.7 -56.05 L56.1 -58.2 Q53.75 -59.75 53.15 -59.75 52.35 -59.75 50.95 -59.0 49.65 -58.3 48.5 -58.5 48.15 -58.55 47.1 -59.3 M51.65 -60.8 L55.25 -60.35 57.6 -58.35 61.5 -53.9 Q62.95 -52.05 64.5 -52.05 65.3 -52.05 66.25 -49.2 67.2 -46.25 67.8 -46.15 70.1 -45.7 71.9 -46.15 L73.75 -45.15 Q75.4 -44.05 76.1 -43.8 L84.4 -41.35 Q91.85 -39.3 93.45 -39.1 L93.55 -39.45 91.55 -40.3 Q89.0 -41.1 88.05 -41.45 L90.2 -41.75 Q92.5 -42.3 94.95 -40.25 97.95 -37.75 97.95 -33.05 97.95 -28.95 95.2 -26.8 92.6 -24.75 89.95 -26.0 L90.55 -25.45 91.15 -24.55 90.85 -23.85 89.75 -23.7 Q86.9 -23.7 85.15 -24.7 83.6 -25.9 82.6 -26.3 L87.6 -25.8 87.6 -25.85 Q87.3 -26.8 86.2 -26.95 L80.75 -27.65 Q69.7 -29.5 68.0 -30.85 67.7 -31.1 67.7 -31.55 L66.85 -31.75 66.35 -31.7 66.6 -31.65 66.75 -30.8 64.75 -31.85 Q62.7 -30.6 60.3 -29.3 55.4 -26.7 53.1 -26.5 50.0 -26.2 48.6 -25.35 47.4 -24.6 46.35 -24.6 42.15 -24.6 40.15 -26.4 38.6 -28.55 37.55 -29.25 35.55 -30.55 33.15 -34.5 30.25 -39.3 30.25 -43.45 L31.05 -44.6 31.8 -45.85 Q31.8 -46.85 31.55 -46.25 29.7 -46.65 29.2 -47.2 28.65 -47.7 28.65 -49.1 28.65 -51.3 29.75 -53.6 31.2 -56.55 33.55 -56.55 34.3 -56.55 35.45 -55.85 L36.7 -55.05 37.25 -55.35 Q37.2 -56.1 37.55 -57.05 38.0 -58.2 38.7 -58.6 43.85 -61.7 47.3 -61.9 48.05 -61.9 48.85 -61.35 49.65 -60.8 51.65 -60.8" fill="#ac712e" fill-rule="evenodd" stroke="none"/>
    <path d="M47.1 -59.3 Q48.15 -58.55 48.5 -58.5 49.65 -58.3 50.95 -59.0 52.35 -59.75 53.15 -59.75 53.75 -59.75 56.1 -58.2 L58.7 -56.05 Q59.5 -54.5 62.5 -51.75 65.15 -49.35 65.15 -48.75 65.15 -42.55 71.1 -39.65 73.95 -38.25 88.25 -34.65 86.05 -36.25 77.65 -39.15 69.6 -41.9 68.8 -42.7 L69.45 -44.35 Q74.15 -42.25 81.0 -40.1 86.85 -38.3 87.6 -38.3 L92.25 -38.0 Q95.4 -37.05 95.4 -33.5 95.4 -30.4 94.15 -28.5 93.2 -27.05 92.3 -27.05 91.1 -27.05 85.6 -30.65 80.05 -34.25 77.1 -34.25 L76.5 -34.2 76.6 -34.15 Q78.55 -33.25 82.85 -32.1 86.3 -30.65 87.0 -27.1 80.0 -30.25 70.1 -32.25 67.6 -32.75 66.75 -33.6 65.7 -34.6 65.25 -37.45 L64.8 -37.35 Q63.95 -34.9 61.65 -32.2 59.1 -29.1 56.9 -28.6 47.5 -26.25 45.1 -26.25 42.85 -26.25 37.55 -32.9 32.25 -39.65 32.25 -42.85 32.25 -44.4 33.4 -45.15 35.0 -46.2 35.25 -46.55 L35.2 -46.9 31.3 -47.3 Q30.25 -47.6 30.25 -48.3 30.25 -51.4 31.5 -53.25 32.7 -55.05 34.7 -55.05 L38.9 -50.85 39.05 -51.45 Q38.35 -56.0 38.55 -56.5 38.9 -57.3 40.95 -58.5 43.4 -59.95 45.4 -59.95 46.15 -59.95 47.1 -59.3 M41.15 -55.85 Q40.65 -54.8 41.3 -51.6 41.8 -49.05 39.9 -47.95 L36.35 -51.5 33.95 -53.45 Q33.35 -53.45 32.7 -52.95 31.65 -52.2 31.65 -50.5 31.65 -48.4 33.5 -48.3 L35.75 -48.65 Q37.15 -48.65 37.75 -47.5 L38.05 -46.25 Q38.05 -45.4 36.4 -43.65 34.75 -41.85 34.75 -41.05 34.75 -38.6 37.2 -36.45 L40.65 -33.25 Q41.85 -31.35 43.35 -29.95 44.8 -28.6 45.5 -28.6 46.55 -28.6 47.45 -29.5 48.3 -30.3 48.3 -31.05 48.3 -34.85 42.3 -35.55 L41.75 -36.55 Q43.85 -37.15 44.4 -38.15 44.95 -39.15 44.25 -41.45 L44.35 -41.55 Q45.0 -41.0 47.05 -37.7 49.05 -34.35 49.5 -34.0 49.8 -33.75 50.75 -33.7 L52.0 -33.65 53.2 -33.15 54.4 -32.95 Q58.3 -32.95 60.35 -44.1 L60.5 -45.1 60.5 -45.4 Q63.0 -38.6 67.6 -37.15 70.45 -36.25 77.8 -35.4 82.75 -34.05 87.15 -31.25 90.75 -28.95 92.45 -28.95 93.1 -28.95 93.55 -30.1 94.0 -31.25 94.0 -33.05 94.0 -35.15 91.95 -35.15 91.45 -35.15 90.05 -34.35 L88.7 -33.6 Q86.35 -33.6 77.65 -36.35 69.15 -39.0 68.05 -39.95 65.9 -41.8 61.95 -47.25 59.45 -50.7 56.55 -50.7 55.55 -50.7 54.8 -49.25 L52.75 -44.7 Q52.55 -44.2 52.7 -42.3 L53.05 -39.6 52.9 -39.2 Q52.55 -39.55 51.65 -41.7 50.85 -43.5 49.9 -43.9 L46.65 -44.4 Q44.65 -44.85 44.4 -46.85 L44.6 -47.15 46.25 -46.5 47.9 -46.1 Q49.75 -46.1 51.55 -48.1 53.35 -50.1 53.35 -52.15 53.35 -55.05 47.8 -56.6 42.25 -58.2 41.15 -55.85 M57.25 -56.3 Q56.7 -56.85 55.95 -56.85 55.2 -56.85 54.65 -56.3 54.1 -55.75 54.1 -54.95 54.1 -54.15 54.65 -53.6 55.2 -53.05 55.95 -53.05 56.7 -53.05 57.25 -53.6 57.8 -54.15 57.8 -54.95 57.8 -55.75 57.25 -56.3 M69.95 -35.15 L69.35 -35.1 69.45 -35.1 Q73.45 -32.55 78.45 -31.55 L79.15 -31.65 79.2 -32.1 75.05 -33.8 Q71.15 -35.15 69.95 -35.15 M52.5 -32.9 Q51.7 -32.9 51.15 -32.45 50.6 -32.05 50.6 -31.45 50.6 -30.85 51.15 -30.4 51.7 -30.0 52.5 -30.0 53.3 -30.0 53.85 -30.4 54.4 -30.85 54.4 -31.45 54.4 -32.05 53.85 -32.45 L52.5 -32.9" fill="#cc9141" fill-rule="evenodd" stroke="none"/>
    <path d="M45.05 -50.15 Q45.85 -49.5 47.0 -49.5 48.15 -49.5 49.0 -50.15 49.8 -50.8 49.8 -51.75 49.8 -52.7 49.0 -53.35 48.15 -54.0 47.0 -54.0 45.85 -54.0 45.05 -53.35 44.2 -52.7 44.2 -51.75 44.2 -50.8 45.05 -50.15 M41.15 -55.85 Q42.25 -58.2 47.8 -56.6 53.35 -55.05 53.35 -52.15 53.35 -50.1 51.55 -48.1 49.75 -46.1 47.9 -46.1 L46.25 -46.5 44.6 -47.15 44.4 -46.85 Q44.65 -44.85 46.65 -44.4 L49.9 -43.9 Q50.85 -43.5 51.65 -41.7 52.55 -39.55 52.9 -39.2 L53.05 -39.6 52.7 -42.3 Q52.55 -44.2 52.75 -44.7 L54.8 -49.25 Q55.55 -50.7 56.55 -50.7 59.45 -50.7 61.95 -47.25 65.9 -41.8 68.05 -39.95 69.15 -39.0 77.65 -36.35 86.35 -33.6 88.7 -33.6 L90.05 -34.35 Q91.45 -35.15 91.95 -35.15 94.0 -35.15 94.0 -33.05 94.0 -31.25 93.55 -30.1 93.1 -28.95 92.45 -28.95 90.75 -28.95 87.15 -31.25 82.75 -34.05 77.8 -35.4 70.45 -36.25 67.6 -37.15 63.0 -38.6 60.5 -45.4 L60.5 -45.1 60.35 -44.1 Q58.3 -32.95 54.4 -32.95 L53.2 -33.15 52.0 -33.65 50.75 -33.7 Q49.8 -33.75 49.5 -34.0 49.05 -34.35 47.05 -37.7 45.0 -41.0 44.35 -41.55 L44.25 -41.45 Q44.95 -39.15 44.4 -38.15 43.85 -37.15 41.75 -36.55 L42.3 -35.55 Q48.3 -34.85 48.3 -31.05 48.3 -30.3 47.45 -29.5 46.55 -28.6 45.5 -28.6 44.8 -28.6 43.35 -29.95 41.85 -31.35 40.65 -33.25 L37.2 -36.45 Q34.75 -38.6 34.75 -41.05 34.75 -41.85 36.4 -43.65 38.05 -45.4 38.05 -46.25 L37.75 -47.5 Q37.15 -48.65 35.75 -48.65 L33.5 -48.3 Q31.65 -48.4 31.65 -50.5 31.65 -52.2 32.7 -52.95 33.35 -53.45 33.95 -53.45 L36.35 -51.5 39.9 -47.95 Q41.8 -49.05 41.3 -51.6 40.65 -54.8 41.15 -55.85 M57.25 -56.3 Q57.8 -55.75 57.8 -54.95 57.8 -54.15 57.25 -53.6 56.7 -53.05 55.95 -53.05 55.2 -53.05 54.65 -53.6 54.1 -54.15 54.1 -54.95 54.1 -55.75 54.65 -56.3 55.2 -56.85 55.95 -56.85 56.7 -56.85 57.25 -56.3 M33.35 -49.95 Q33.7 -49.6 34.2 -49.6 34.7 -49.6 35.1 -49.95 35.45 -50.3 35.45 -50.8 L35.1 -51.65 Q34.7 -52.0 34.2 -52.0 33.7 -52.0 33.35 -51.65 32.95 -51.3 32.95 -50.8 32.95 -50.3 33.35 -49.95 M39.6 -40.85 Q40.4 -39.2 41.55 -38.5 41.95 -38.8 42.25 -40.0 L42.55 -42.0 Q42.55 -44.15 40.75 -44.8 38.95 -45.45 38.95 -43.05 38.95 -42.2 39.6 -40.85 M69.95 -35.15 Q71.15 -35.15 75.05 -33.8 L79.2 -32.1 79.15 -31.65 78.45 -31.55 Q73.45 -32.55 69.45 -35.1 L69.35 -35.1 69.95 -35.15 M58.0 -46.0 Q54.9 -45.2 54.9 -41.8 54.9 -39.25 56.45 -39.25 57.8 -39.25 58.4 -41.6 L58.75 -43.95 Q58.75 -45.25 58.0 -46.0 M47.15 -42.85 Q48.0 -38.85 50.55 -36.65 52.4 -35.05 53.95 -35.05 54.95 -35.05 54.7 -35.25 L55.05 -35.55 55.15 -36.35 55.05 -36.9 54.9 -36.9 54.1 -36.8 52.25 -38.45 47.25 -42.85 47.15 -42.85 M44.45 -33.25 Q43.9 -33.25 43.5 -32.85 43.1 -32.45 43.1 -31.9 43.1 -31.35 43.5 -30.95 43.9 -30.55 44.45 -30.55 45.0 -30.55 45.4 -30.95 45.8 -31.35 45.8 -31.9 45.8 -32.45 45.4 -32.85 45.0 -33.25 44.45 -33.25 M52.5 -32.9 L53.85 -32.45 Q54.4 -32.05 54.4 -31.45 54.4 -30.85 53.85 -30.4 53.3 -30.0 52.5 -30.0 51.7 -30.0 51.15 -30.4 50.6 -30.85 50.6 -31.45 50.6 -32.05 51.15 -32.45 51.7 -32.9 52.5 -32.9 M90.05 -32.85 Q89.65 -32.45 89.65 -31.9 89.65 -31.35 90.05 -30.95 90.45 -30.55 91.0 -30.55 91.55 -30.55 91.95 -30.95 92.35 -31.35 92.35 -31.9 92.35 -32.45 91.95 -32.85 91.55 -33.25 91.0 -33.25 90.45 -33.25 90.05 -32.85" fill="#dea353" fill-rule="evenodd" stroke="none"/>
    <path d="M45.05 -50.15 Q44.2 -50.8 44.2 -51.75 44.2 -52.7 45.05 -53.35 45.85 -54.0 47.0 -54.0 48.15 -54.0 49.0 -53.35 49.8 -52.7 49.8 -51.75 49.8 -50.8 49.0 -50.15 48.15 -49.5 47.0 -49.5 45.85 -49.5 45.05 -50.15 M39.6 -40.85 Q38.95 -42.2 38.95 -43.05 38.95 -45.45 40.75 -44.8 42.55 -44.15 42.55 -42.0 L42.25 -40.0 Q41.95 -38.8 41.55 -38.5 40.4 -39.2 39.6 -40.85 M33.35 -49.95 Q32.95 -50.3 32.95 -50.8 32.95 -51.3 33.35 -51.65 33.7 -52.0 34.2 -52.0 34.7 -52.0 35.1 -51.65 L35.45 -50.8 Q35.45 -50.3 35.1 -49.95 34.7 -49.6 34.2 -49.6 33.7 -49.6 33.35 -49.95 M44.45 -33.25 Q45.0 -33.25 45.4 -32.85 45.8 -32.45 45.8 -31.9 45.8 -31.35 45.4 -30.95 45.0 -30.55 44.45 -30.55 43.9 -30.55 43.5 -30.95 43.1 -31.35 43.1 -31.9 43.1 -32.45 43.5 -32.85 43.9 -33.25 44.45 -33.25 M47.15 -42.85 L47.25 -42.85 52.25 -38.45 54.1 -36.8 54.9 -36.9 55.05 -36.9 55.15 -36.35 55.05 -35.55 54.7 -35.25 Q54.95 -35.05 53.95 -35.05 52.4 -35.05 50.55 -36.65 48.0 -38.85 47.15 -42.85 M58.0 -46.0 Q58.75 -45.25 58.75 -43.95 L58.4 -41.6 Q57.8 -39.25 56.45 -39.25 54.9 -39.25 54.9 -41.8 54.9 -45.2 58.0 -46.0 M90.05 -32.85 Q90.45 -33.25 91.0 -33.25 91.55 -33.25 91.95 -32.85 92.35 -32.45 92.35 -31.9 92.35 -31.35 91.95 -30.95 91.55 -30.55 91.0 -30.55 90.45 -30.55 90.05 -30.95 89.65 -31.35 89.65 -31.9 89.65 -32.45 90.05 -32.85" fill="#ecb56a" fill-rule="evenodd" stroke="none"/>
    <path d="M63.3 -80.2 Q63.85 -80.75 64.85 -81.0 65.35 -81.0 65.7 -80.5 66.0 -80.0 66.5 -80.0 L69.6 -81.2 71.45 -80.75 Q72.1 -80.25 72.85 -78.8 73.1 -77.85 71.25 -73.7 L70.85 -72.8 Q74.6 -73.25 74.6 -71.45 L74.35 -70.4 74.1 -70.15 Q71.95 -69.1 70.2 -69.2 67.65 -69.3 66.8 -71.85 L67.95 -74.4 Q68.6 -75.75 68.6 -77.5 L67.45 -77.8 Q66.35 -77.8 65.65 -76.6 L62.8 -70.6 Q62.25 -69.3 60.95 -69.3 L60.05 -69.5 59.85 -69.7 59.5 -69.95 59.4 -70.65 59.8 -72.4 59.85 -72.55 62.85 -79.55 63.3 -80.2 M75.5 -72.3 Q75.25 -73.35 75.35 -74.15 75.4 -76.55 77.05 -78.95 77.45 -79.35 78.0 -79.75 80.1 -81.2 81.9 -81.2 L84.65 -80.0 86.7 -81.2 87.65 -80.95 88.15 -80.25 88.1 -79.2 84.45 -70.0 84.05 -69.1 87.2 -68.75 87.7 -68.15 Q87.8 -66.8 87.4 -66.4 86.8 -65.7 82.7 -65.8 L81.5 -63.35 80.1 -60.75 Q79.3 -59.35 77.35 -58.85 L75.35 -58.6 Q73.0 -58.6 71.55 -60.2 70.15 -61.7 70.0 -64.05 70.4 -65.4 71.7 -66.9 72.9 -68.3 73.65 -68.55 L75.75 -69.0 78.55 -69.25 Q80.4 -69.5 80.7 -70.25 L80.2 -70.0 78.85 -69.8 77.4 -70.0 76.9 -70.3 Q75.9 -71.1 75.5 -72.3 M89.8 -76.15 L91.85 -80.65 92.5 -82.15 94.1 -83.05 95.0 -82.8 95.45 -82.1 95.4 -81.0 96.9 -77.55 97.15 -77.05 98.25 -74.4 Q98.25 -72.75 97.8 -71.95 97.25 -71.0 95.95 -70.1 94.2 -69.15 92.9 -69.05 91.1 -68.9 88.6 -69.95 L88.35 -70.15 Q88.25 -70.2 88.25 -70.8 88.25 -72.7 91.2 -72.75 94.3 -72.8 94.6 -74.75 L93.55 -76.9 Q93.45 -75.8 92.5 -75.25 L91.2 -74.7 89.8 -76.15 M102.95 -74.85 Q102.75 -75.35 102.8 -76.1 105.1 -82.1 106.3 -87.15 106.65 -88.8 107.85 -88.8 108.65 -88.8 109.25 -88.25 109.85 -87.75 109.85 -87.1 L109.8 -86.3 109.6 -85.75 Q107.5 -80.05 107.95 -79.25 L105.05 -74.55 102.95 -74.85 M104.75 -71.65 Q104.35 -69.1 102.9 -69.1 101.65 -69.1 101.05 -69.9 L100.7 -70.4 100.6 -71.2 Q100.6 -72.05 101.2 -72.65 101.8 -73.3 102.7 -73.3 L103.6 -72.85 104.75 -71.65 M57.7 -69.6 L57.6 -69.6 Q53.3 -69.1 52.1 -70.05 51.85 -70.25 51.4 -71.95 L54.8 -79.7 Q55.35 -81.0 56.55 -81.0 L57.55 -80.7 58.05 -80.0 58.0 -79.1 55.95 -73.7 55.55 -72.8 58.6 -72.4 59.1 -71.85 Q59.1 -70.9 58.65 -70.25 58.25 -69.65 57.7 -69.6 M56.1 -82.2 L55.75 -82.65 55.55 -83.0 55.45 -83.7 Q55.45 -84.6 56.05 -85.2 56.65 -85.8 57.55 -85.8 58.2 -85.8 59.6 -84.15 59.6 -83.1 59.1 -82.35 58.55 -81.65 57.85 -81.65 56.9 -81.65 56.1 -82.2 M52.45 -86.45 L51.1 -86.45 41.3 -69.7 Q40.25 -68.75 39.05 -68.75 38.1 -68.75 37.45 -69.5 36.75 -70.35 37.0 -71.9 L37.15 -76.4 37.35 -81.55 37.35 -82.2 37.35 -82.1 Q31.45 -69.65 31.15 -69.35 30.55 -68.75 29.2 -68.75 27.2 -68.75 26.9 -77.6 26.6 -86.5 24.4 -86.5 22.35 -86.5 20.85 -83.0 21.2 -80.75 23.1 -80.1 25.3 -79.65 26.0 -79.1 25.3 -76.3 22.8 -76.3 L20.6 -76.55 Q19.4 -77.2 17.85 -78.6 16.9 -80.85 16.8 -82.65 17.7 -86.5 20.85 -88.65 23.15 -90.25 25.05 -90.25 28.55 -90.25 29.65 -87.6 30.45 -85.7 30.7 -81.0 L30.7 -77.5 30.7 -76.6 36.6 -89.45 Q37.1 -90.35 37.55 -90.35 L38.85 -90.25 Q39.75 -90.25 41.15 -88.5 L40.95 -77.25 40.9 -76.35 48.5 -89.2 Q48.9 -89.5 50.1 -89.8 L52.0 -90.05 54.65 -89.7 55.5 -88.95 Q55.6 -87.6 54.7 -86.9 L52.45 -86.45 M65.05 -77.9 L65.75 -77.85 67.25 -78.15 68.9 -78.65 69.6 -78.5 Q69.95 -78.35 69.95 -77.7 69.95 -76.85 69.2 -74.65 L68.3 -71.9 68.55 -70.65 72.75 -70.4 Q74.0 -70.5 74.1 -71.3 L73.85 -71.95 70.05 -72.15 71.45 -77.4 Q71.45 -80.25 68.9 -80.25 L67.35 -79.85 65.75 -79.5 65.05 -79.9 64.65 -80.6 Q63.75 -80.15 62.15 -75.8 60.85 -72.2 60.65 -71.1 L60.75 -70.6 61.5 -70.4 Q62.05 -70.4 62.75 -71.65 63.9 -73.7 64.85 -78.15 L65.05 -77.9 M53.75 -87.35 L53.85 -87.95 Q53.85 -89.5 52.1 -89.5 49.9 -89.5 45.85 -83.1 41.75 -75.9 40.65 -74.45 L40.2 -73.65 40.3 -83.2 Q40.1 -87.8 38.45 -87.8 37.25 -87.8 35.4 -84.75 33.65 -81.85 30.8 -75.35 L30.15 -74.15 Q29.35 -79.25 29.05 -85.3 28.55 -88.85 25.5 -88.85 21.1 -88.85 19.3 -86.45 18.2 -85.0 18.2 -82.85 18.2 -79.7 19.85 -78.25 21.05 -77.25 22.7 -77.25 L24.45 -77.35 24.7 -77.65 24.9 -78.35 21.4 -79.75 Q20.8 -80.1 20.4 -80.9 19.95 -81.8 19.95 -82.85 19.95 -84.8 21.5 -85.95 23.0 -87.05 25.4 -87.05 27.55 -87.05 27.7 -81.75 27.85 -74.3 29.2 -71.1 L29.55 -70.95 Q31.3 -71.45 32.5 -74.3 35.05 -80.65 38.25 -86.1 L38.25 -78.45 38.1 -73.8 Q38.1 -72.35 38.5 -71.55 38.85 -70.8 39.45 -70.8 40.75 -70.8 41.4 -71.75 L42.75 -74.7 44.6 -77.2 48.4 -83.1 50.2 -85.9 52.0 -87.15 53.6 -87.35 53.75 -87.35 M57.25 -84.25 Q56.7 -83.8 56.7 -83.3 L56.8 -82.6 57.05 -82.25 57.4 -82.25 58.5 -84.2 58.05 -84.9 57.25 -84.25 M57.1 -80.45 Q55.4 -79.65 53.8 -76.7 52.2 -73.75 52.2 -71.4 52.2 -69.9 55.2 -69.9 56.95 -69.9 57.75 -70.35 L58.4 -71.0 Q57.55 -71.55 56.1 -71.6 L54.35 -71.6 53.9 -71.9 57.3 -79.8 57.1 -80.45 M79.05 -74.85 L79.1 -73.2 79.7 -72.9 80.45 -72.8 Q81.45 -72.8 81.75 -73.4 L83.45 -77.05 83.35 -77.6 81.15 -77.8 Q79.9 -77.35 79.05 -74.85 M78.05 -73.0 Q77.6 -73.95 78.0 -75.2 79.0 -78.35 83.35 -78.5 84.6 -77.5 84.6 -77.1 84.6 -74.45 82.95 -73.1 81.65 -72.05 79.55 -72.05 78.5 -72.05 78.05 -73.0 M77.95 -70.7 Q79.95 -69.85 81.6 -70.95 L82.05 -71.1 Q82.45 -69.05 81.0 -68.6 L78.0 -68.55 Q74.45 -68.55 72.45 -67.1 70.5 -65.7 70.5 -63.3 70.5 -61.45 72.1 -60.35 73.5 -59.4 75.6 -59.4 79.15 -59.4 81.15 -63.3 L82.0 -65.65 Q82.35 -66.3 84.2 -66.6 L86.7 -67.05 86.9 -67.55 85.7 -68.2 83.0 -68.55 Q87.0 -78.05 87.0 -78.9 L86.95 -79.35 86.85 -79.65 86.15 -79.8 Q85.65 -79.8 85.7 -79.4 85.7 -79.05 85.2 -79.05 L82.25 -80.1 Q80.6 -80.1 78.8 -78.95 76.05 -77.3 76.2 -74.1 75.8 -71.6 77.95 -70.7 M73.9 -65.8 Q75.35 -66.75 77.85 -66.75 L80.4 -66.6 Q79.1 -61.2 75.85 -61.2 L73.85 -61.65 Q72.45 -62.3 72.45 -63.35 72.45 -64.85 73.9 -65.8 M73.5 -64.1 Q73.9 -62.8 74.6 -62.2 74.95 -61.9 75.25 -61.9 77.8 -61.9 78.9 -65.8 L78.5 -65.8 Q75.55 -66.15 74.25 -65.15 L73.5 -64.1 M108.5 -87.05 Q107.5 -86.3 105.5 -81.65 103.35 -76.8 103.65 -75.2 L103.6 -75.1 104.3 -75.0 Q104.85 -75.0 106.1 -77.8 L108.0 -81.6 Q108.95 -83.85 108.95 -86.2 L108.8 -86.95 108.5 -87.05 M90.85 -76.05 Q90.9 -75.9 91.5 -75.9 L92.25 -76.6 93.6 -78.7 93.65 -78.9 95.25 -76.45 95.6 -75.05 Q95.6 -73.35 94.05 -72.85 L89.45 -71.3 Q89.65 -70.4 91.05 -70.4 94.9 -70.4 96.35 -71.8 97.2 -72.6 97.2 -74.1 97.2 -76.0 95.95 -78.4 94.8 -80.7 94.85 -81.85 L94.85 -82.0 94.2 -82.2 Q93.55 -82.2 92.35 -79.8 91.2 -77.6 90.9 -76.2 L90.85 -76.05 M102.7 -72.6 Q102.25 -72.6 101.95 -72.2 101.6 -71.8 101.6 -71.2 101.6 -70.6 101.95 -70.2 102.25 -69.8 102.7 -69.8 103.15 -69.8 103.5 -70.2 L103.8 -71.2 103.5 -72.2 Q103.15 -72.6 102.7 -72.6" fill="#ffe000" fill-rule="evenodd" stroke="none"/>
    <path d="M65.05 -77.9 L64.85 -78.15 Q63.9 -73.7 62.75 -71.65 62.05 -70.4 61.5 -70.4 L60.75 -70.6 60.65 -71.1 Q60.85 -72.2 62.15 -75.8 63.75 -80.15 64.65 -80.6 L65.05 -79.9 65.75 -79.5 67.35 -79.85 68.9 -80.25 Q71.45 -80.25 71.45 -77.4 L70.05 -72.15 73.85 -71.95 74.1 -71.3 Q74.0 -70.5 72.75 -70.4 L68.55 -70.65 68.3 -71.9 69.2 -74.65 Q69.95 -76.85 69.95 -77.7 69.95 -78.35 69.6 -78.5 L68.9 -78.65 67.25 -78.15 65.75 -77.85 65.05 -77.9 M57.25 -84.25 L58.05 -84.9 58.5 -84.2 57.4 -82.25 57.05 -82.25 56.8 -82.6 56.7 -83.3 Q56.7 -83.8 57.25 -84.25 M53.75 -87.35 L53.6 -87.35 52.0 -87.15 50.2 -85.9 48.4 -83.1 44.6 -77.2 42.75 -74.7 41.4 -71.75 Q40.75 -70.8 39.45 -70.8 38.85 -70.8 38.5 -71.55 38.1 -72.35 38.1 -73.8 L38.25 -78.45 38.25 -86.1 Q35.05 -80.65 32.5 -74.3 31.3 -71.45 29.55 -70.95 L29.2 -71.1 Q27.85 -74.3 27.7 -81.75 27.55 -87.05 25.4 -87.05 23.0 -87.05 21.5 -85.95 19.95 -84.8 19.95 -82.85 19.95 -81.8 20.4 -80.9 20.8 -80.1 21.4 -79.75 L24.9 -78.35 24.7 -77.65 24.45 -77.35 22.7 -77.25 Q21.05 -77.25 19.85 -78.25 18.2 -79.7 18.2 -82.85 18.2 -85.0 19.3 -86.45 21.1 -88.85 25.5 -88.85 28.55 -88.85 29.05 -85.3 29.35 -79.25 30.15 -74.15 L30.8 -75.35 Q33.65 -81.85 35.4 -84.75 37.25 -87.8 38.45 -87.8 40.1 -87.8 40.3 -83.2 L40.2 -73.65 40.65 -74.45 Q41.75 -75.9 45.85 -83.1 49.9 -89.5 52.1 -89.5 53.85 -89.5 53.85 -87.95 L53.75 -87.35 M57.1 -80.45 L57.3 -79.8 53.9 -71.9 54.35 -71.6 56.1 -71.6 Q57.55 -71.55 58.4 -71.0 L57.75 -70.35 Q56.95 -69.9 55.2 -69.9 52.2 -69.9 52.2 -71.4 52.2 -73.75 53.8 -76.7 55.4 -79.65 57.1 -80.45 M77.95 -70.7 Q75.8 -71.6 76.2 -74.1 76.05 -77.3 78.8 -78.95 80.6 -80.1 82.25 -80.1 L85.2 -79.05 Q85.7 -79.05 85.7 -79.4 85.65 -79.8 86.15 -79.8 L86.85 -79.65 86.95 -79.35 87.0 -78.9 Q87.0 -78.05 83.0 -68.55 L85.7 -68.2 86.9 -67.55 86.7 -67.05 84.2 -66.6 Q82.35 -66.3 82.0 -65.65 L81.15 -63.3 Q79.15 -59.4 75.6 -59.4 73.5 -59.4 72.1 -60.35 70.5 -61.45 70.5 -63.3 70.5 -65.7 72.45 -67.1 74.45 -68.55 78.0 -68.55 L81.0 -68.6 Q82.45 -69.05 82.05 -71.1 L81.6 -70.95 Q79.95 -69.85 77.95 -70.7 M78.05 -73.0 Q78.5 -72.05 79.55 -72.05 81.65 -72.05 82.95 -73.1 84.6 -74.45 84.6 -77.1 84.6 -77.5 83.35 -78.5 79.0 -78.35 78.0 -75.2 77.6 -73.95 78.05 -73.0 M73.9 -65.8 Q72.45 -64.85 72.45 -63.35 72.45 -62.3 73.85 -61.65 L75.85 -61.2 Q79.1 -61.2 80.4 -66.6 L77.85 -66.75 Q75.35 -66.75 73.9 -65.8 M108.5 -87.05 L108.8 -86.95 108.95 -86.2 Q108.95 -83.85 108.0 -81.6 L106.1 -77.8 Q104.85 -75.0 104.3 -75.0 L103.6 -75.1 103.65 -75.2 Q103.35 -76.8 105.5 -81.65 107.5 -86.3 108.5 -87.05 M90.85 -76.05 L90.9 -76.2 Q91.2 -77.6 92.35 -79.8 93.55 -82.2 94.2 -82.2 L94.85 -82.0 94.85 -81.85 Q94.8 -80.7 95.95 -78.4 97.2 -76.0 97.2 -74.1 97.2 -72.6 96.35 -71.8 94.9 -70.4 91.05 -70.4 89.65 -70.4 89.45 -71.3 L94.05 -72.85 Q95.6 -73.35 95.6 -75.05 L95.25 -76.45 93.65 -78.9 93.6 -78.7 92.25 -76.6 91.5 -75.9 Q90.9 -75.9 90.85 -76.05 M102.7 -72.6 Q103.15 -72.6 103.5 -72.2 L103.8 -71.2 103.5 -70.2 Q103.15 -69.8 102.7 -69.8 102.25 -69.8 101.95 -70.2 101.6 -70.6 101.6 -71.2 101.6 -71.8 101.95 -72.2 102.25 -72.6 102.7 -72.6" fill="#fff793" fill-rule="evenodd" stroke="none"/>
    <path d="M49.15 -60.5 Q46.95 -60.5 44.25 -59.35 42.75 -58.75 38.8 -56.6 L33.75 -53.95 Q31.0 -52.05 31.0 -49.65 31.0 -40.3 35.6 -33.25 40.85 -25.2 49.45 -25.2 51.2 -25.2 59.55 -27.75 67.9 -30.3 69.35 -30.3 73.35 -30.3 75.2 -29.55 86.5 -25.2 89.9 -25.2 93.0 -25.2 95.25 -27.2 97.45 -29.15 97.45 -31.8 97.45 -33.9 96.75 -35.2 95.4 -37.6 91.4 -39.0 L81.6 -41.35 Q73.95 -43.2 70.55 -45.4 69.4 -46.15 67.15 -48.9 L62.75 -53.95 Q56.4 -60.5 49.15 -60.5 M43.25 -57.8 Q46.7 -59.5 49.15 -59.5 50.3 -59.5 53.95 -58.1 58.0 -56.55 59.8 -55.1 61.45 -53.75 65.3 -49.3 68.75 -45.3 70.0 -44.55 74.0 -42.3 81.45 -40.45 L88.65 -38.9 94.95 -36.2 Q96.4 -35.1 96.4 -31.9 96.4 -30.05 94.95 -28.35 93.1 -26.2 89.9 -26.2 L88.6 -26.35 88.05 -26.5 Q81.8 -28.7 75.5 -30.5 72.6 -31.35 70.2 -31.35 67.35 -31.35 59.15 -28.8 51.0 -26.25 49.45 -26.25 42.5 -26.25 37.45 -32.5 32.0 -39.15 32.0 -49.4 32.0 -51.65 34.2 -53.3 35.7 -54.4 39.2 -55.7 L43.25 -57.8 M44.95 -57.65 L39.65 -54.8 Q36.1 -53.25 34.25 -51.3 33.0 -50.05 33.0 -49.5 33.0 -39.5 38.15 -33.1 42.95 -27.2 49.45 -27.2 50.75 -27.2 58.85 -29.75 67.0 -32.3 69.3 -32.3 L72.95 -32.05 Q75.8 -31.75 75.8 -31.45 L75.8 -31.5 88.35 -27.45 89.9 -27.2 Q92.55 -27.2 94.15 -29.05 95.4 -30.5 95.4 -32.1 95.4 -34.85 91.7 -36.75 89.1 -38.05 83.05 -39.55 75.5 -41.4 73.3 -42.15 68.2 -43.9 66.25 -46.25 61.1 -52.5 57.55 -55.25 53.3 -58.45 49.15 -58.45 46.9 -58.45 44.95 -57.65 M59.4 -57.65 Q63.0 -54.9 68.45 -48.3 69.7 -46.8 76.6 -44.3 83.15 -41.95 86.5 -41.55 88.15 -41.35 96.5 -37.4 L97.5 -35.95 Q98.5 -34.05 98.5 -31.55 98.5 -29.35 96.5 -27.0 94.15 -24.2 90.7 -24.2 L88.55 -24.35 81.2 -26.65 73.1 -28.85 69.35 -29.3 Q68.25 -29.3 59.9 -26.75 51.5 -24.2 49.4 -24.2 40.25 -24.2 34.75 -32.65 30.0 -40.0 30.0 -49.6 30.0 -53.95 39.4 -58.15 46.9 -61.5 49.15 -61.5 54.4 -61.5 59.4 -57.65" fill="#ff0700" fill-rule="evenodd" stroke="none"/>
    <path d="M43.25 -57.8 L39.2 -55.7 Q35.7 -54.4 34.2 -53.3 32.0 -51.65 32.0 -49.4 32.0 -39.15 37.45 -32.5 42.5 -26.25 49.45 -26.25 51.0 -26.25 59.15 -28.8 67.35 -31.35 70.2 -31.35 72.6 -31.35 75.5 -30.5 81.8 -28.7 88.05 -26.5 L88.6 -26.35 89.9 -26.2 Q93.1 -26.2 94.95 -28.35 96.4 -30.05 96.4 -31.9 96.4 -35.1 94.95 -36.2 L88.65 -38.9 81.45 -40.45 Q74.0 -42.3 70.0 -44.55 68.75 -45.3 65.3 -49.3 61.45 -53.75 59.8 -55.1 58.0 -56.55 53.95 -58.1 50.3 -59.5 49.15 -59.5 46.7 -59.5 43.25 -57.8 M49.15 -60.5 Q56.4 -60.5 62.75 -53.95 L67.15 -48.9 Q69.4 -46.15 70.55 -45.4 73.95 -43.2 81.6 -41.35 L91.4 -39.0 Q95.4 -37.6 96.75 -35.2 97.45 -33.9 97.45 -31.8 97.45 -29.15 95.25 -27.2 93.0 -25.2 89.9 -25.2 86.5 -25.2 75.2 -29.55 73.35 -30.3 69.35 -30.3 67.9 -30.3 59.55 -27.75 51.2 -25.2 49.45 -25.2 40.85 -25.2 35.6 -33.25 31.0 -40.3 31.0 -49.65 31.0 -52.05 33.75 -53.95 L38.8 -56.6 Q42.75 -58.75 44.25 -59.35 46.95 -60.5 49.15 -60.5" fill="#ff7171" fill-rule="evenodd" stroke="none"/>
    <path d="M63.3 -80.2 L63.4 -80.6 63.8 -81.75 64.85 -81.9 Q65.35 -81.9 65.7 -81.4 66.0 -80.9 66.5 -80.9 L69.6 -82.1 Q71.05 -82.1 71.85 -81.15 72.45 -80.4 72.85 -78.8 72.1 -80.25 71.45 -80.75 L69.6 -81.2 66.5 -80.0 Q66.0 -80.0 65.7 -80.5 65.35 -81.0 64.85 -81.0 63.85 -80.75 63.3 -80.2 M71.25 -73.7 L74.45 -73.6 Q75.0 -72.5 75.5 -72.3 75.9 -71.1 76.9 -70.3 L75.15 -70.25 76.0 -70.1 74.1 -70.15 74.35 -70.4 74.6 -71.45 Q74.6 -73.25 70.85 -72.8 L71.25 -73.7 M77.05 -78.95 L77.35 -79.4 Q79.45 -82.1 81.9 -82.1 L84.65 -80.9 86.7 -82.1 87.65 -81.9 88.1 -81.7 88.15 -80.25 87.65 -80.95 86.7 -81.2 84.65 -80.0 81.9 -81.2 Q80.1 -81.2 78.0 -79.75 77.45 -79.35 77.05 -78.95 M84.45 -70.0 Q86.45 -69.65 87.15 -71.0 L88.8 -74.5 89.8 -76.15 91.2 -74.7 90.65 -73.7 92.55 -73.7 Q93.6 -73.95 94.6 -74.75 94.3 -72.8 91.2 -72.75 88.25 -72.7 88.25 -70.8 88.25 -70.2 88.35 -70.15 L88.6 -69.95 Q88.05 -69.15 87.85 -68.55 L87.7 -68.15 87.2 -68.75 84.05 -69.1 84.45 -70.0 M92.5 -82.15 Q93.4 -83.95 94.1 -83.95 L95.0 -83.75 95.4 -83.55 95.5 -82.55 95.5 -81.95 95.45 -82.1 95.0 -82.8 94.1 -83.05 92.5 -82.15 M97.8 -71.95 Q99.95 -72.0 101.35 -73.15 L102.95 -74.85 105.05 -74.55 104.6 -73.0 104.75 -71.65 103.6 -72.85 102.7 -73.3 Q101.8 -73.3 101.2 -72.65 100.6 -72.05 100.6 -71.2 L100.7 -70.4 101.05 -69.9 95.95 -70.1 Q97.25 -71.0 97.8 -71.95 M102.8 -76.1 Q103.3 -78.45 103.15 -80.85 103.4 -83.2 105.75 -87.75 106.45 -89.15 107.85 -89.7 109.0 -89.7 109.55 -88.75 L109.85 -87.7 111.65 -87.55 Q113.6 -87.35 114.5 -86.6 113.3 -85.5 112.2 -85.5 L109.6 -85.75 109.8 -86.3 109.85 -87.1 Q109.85 -87.75 109.25 -88.25 108.65 -88.8 107.85 -88.8 106.65 -88.8 106.3 -87.15 105.1 -82.1 102.8 -76.1 M70.0 -64.05 Q70.2 -67.5 72.3 -68.9 74.05 -70.1 77.4 -70.0 L78.85 -69.8 80.2 -70.0 80.7 -70.25 Q80.4 -69.5 78.55 -69.25 L75.75 -69.0 73.65 -68.55 Q72.9 -68.3 71.7 -66.9 70.4 -65.4 70.0 -64.05 M66.8 -71.85 L66.9 -73.25 68.6 -77.5 Q68.6 -75.75 67.95 -74.4 L66.8 -71.85 M59.85 -69.7 L57.7 -69.6 Q58.25 -69.65 58.65 -70.25 59.1 -70.9 59.1 -71.85 L58.6 -72.4 55.55 -72.8 55.95 -73.7 Q58.15 -74.2 59.1 -71.85 L59.45 -71.8 59.8 -72.4 59.4 -70.65 59.5 -69.95 59.85 -69.7 M51.4 -71.95 Q50.95 -76.15 51.6 -77.3 L56.1 -82.2 Q56.9 -81.65 57.85 -81.65 L57.95 -80.9 58.05 -80.0 57.55 -80.7 56.55 -81.0 Q55.35 -81.0 54.8 -79.7 L51.4 -71.95 M55.75 -82.65 L52.5 -82.95 52.2 -84.55 52.45 -86.45 54.7 -86.9 54.0 -84.75 55.45 -84.75 56.7 -86.3 Q57.25 -86.7 57.55 -86.7 58.35 -86.7 59.0 -86.1 59.65 -85.5 59.65 -84.8 L59.65 -84.1 59.6 -84.15 Q58.2 -85.8 57.55 -85.8 56.65 -85.8 56.05 -85.2 55.45 -84.6 55.45 -83.7 L55.55 -83.0 55.75 -82.65 M37.35 -81.55 L37.35 -82.1 37.35 -82.2 37.35 -81.55 M20.85 -83.0 Q21.9 -80.95 23.85 -80.9 25.55 -80.8 26.0 -79.1 25.3 -79.65 23.1 -80.1 21.2 -80.75 20.85 -83.0 M20.6 -76.55 L11.35 -76.7 11.1 -77.55 11.5 -78.15 12.05 -78.6 17.85 -78.6 Q19.4 -77.2 20.6 -76.55 M16.8 -82.65 Q16.9 -85.7 19.3 -88.35 21.8 -91.15 25.05 -91.15 28.55 -91.15 29.65 -88.5 30.55 -86.45 30.7 -81.0 30.45 -85.7 29.65 -87.6 28.55 -90.25 25.05 -90.25 23.15 -90.25 20.85 -88.65 17.7 -86.5 16.8 -82.65 M30.7 -77.5 L36.6 -90.35 Q37.1 -91.25 37.55 -91.25 L38.85 -91.15 Q39.85 -91.15 40.55 -90.5 41.2 -89.9 41.2 -89.1 L41.2 -88.4 41.15 -88.5 Q39.75 -90.25 38.85 -90.25 L37.55 -90.35 Q37.1 -90.35 36.6 -89.45 L30.7 -76.6 30.7 -77.5 M40.95 -77.25 L48.5 -90.1 Q48.9 -90.4 50.1 -90.7 L52.0 -90.95 54.75 -90.65 55.5 -88.95 54.65 -89.7 52.0 -90.05 50.1 -89.8 Q48.9 -89.5 48.5 -89.2 L40.9 -76.35 40.95 -77.25 M83.35 -77.6 L83.45 -77.05 81.75 -73.4 Q81.45 -72.8 80.45 -72.8 L79.7 -72.9 79.1 -73.2 79.05 -74.85 80.45 -73.7 Q81.5 -73.7 81.75 -74.3 L83.35 -77.6 M73.5 -64.1 Q74.7 -62.8 75.25 -62.8 76.2 -62.8 76.7 -63.3 L78.5 -65.8 78.9 -65.8 Q77.8 -61.9 75.25 -61.9 74.95 -61.9 74.6 -62.2 73.9 -62.8 73.5 -64.1" fill="#121212" fill-rule="evenodd" stroke="none"/>
    <path d="M7.15 -13.05 L4.8 -13.05 Q4.8 -13.8 5.25 -14.35 5.65 -14.9 6.25 -14.9 6.25 -14.15 6.55 -13.6 6.8 -13.05 7.15 -13.05 M15.35 -13.2 L12.4 -12.95 Q13.05 -12.95 13.55 -13.6 14.0 -14.25 14.0 -15.2 14.6 -15.2 15.05 -14.65 15.45 -14.1 15.45 -13.3 L15.35 -13.2 M7.05 -5.4 L5.85 -6.1 Q5.1 -6.65 5.1 -7.1 L5.15 -11.75 Q6.25 -11.0 7.4 -10.7 L7.05 -5.4 M11.65 -10.45 L13.6 -10.9 15.2 -11.8 15.2 -7.1 14.25 -6.05 Q13.45 -5.35 12.0 -5.05 L12.05 -10.5 11.65 -10.45 M111.25 -14.9 Q111.25 -14.15 111.55 -13.6 111.8 -13.05 112.15 -13.05 L109.8 -13.05 Q109.8 -13.8 110.25 -14.35 110.65 -14.9 111.25 -14.9 M117.4 -12.95 Q118.05 -12.95 118.55 -13.6 119.0 -14.25 119.0 -15.2 119.6 -15.2 120.05 -14.65 120.45 -14.1 120.45 -13.3 L120.35 -13.2 117.4 -12.95 M112.05 -5.4 L110.85 -6.1 Q110.1 -6.65 110.1 -7.1 L110.15 -11.75 Q111.25 -11.0 112.4 -10.7 L112.05 -5.4 M116.65 -10.45 L118.6 -10.9 Q119.0 -11.05 120.2 -11.8 L120.2 -7.1 119.25 -6.05 Q118.45 -5.35 117.0 -5.05 L117.05 -10.5 116.65 -10.45" fill="#cd9207" fill-rule="evenodd" stroke="none"/>
    <path d="M119.0 -16.1 Q120.9 -15.15 121.1 -14.6 L121.2 -11.25 121.35 -10.15 121.2 -10.2 121.1 -6.35 Q120.7 -5.15 120.15 -4.7 119.25 -3.9 115.15 -3.9 113.85 -3.9 112.1 -4.6 110.15 -5.3 109.25 -6.35 109.1 -7.1 109.1 -10.05 109.3 -10.55 109.15 -11.35 L109.1 -13.7 109.65 -14.55 111.25 -16.0 111.25 -14.9 Q110.65 -14.9 110.25 -14.35 109.8 -13.8 109.8 -13.05 110.65 -12.2 111.25 -11.9 112.7 -11.05 114.8 -11.05 118.55 -11.05 120.35 -13.2 L120.45 -13.3 Q120.45 -14.1 120.05 -14.65 119.6 -15.2 119.0 -15.2 L119.0 -16.1 M14.0 -16.1 Q15.9 -15.15 16.1 -14.6 L16.2 -11.25 16.35 -10.15 16.2 -10.2 16.1 -6.35 Q15.7 -5.15 15.15 -4.7 14.25 -3.9 10.15 -3.9 8.85 -3.9 7.1 -4.6 5.15 -5.3 4.25 -6.35 4.1 -7.1 4.1 -10.05 4.3 -10.55 4.15 -11.35 L4.1 -13.7 4.65 -14.55 6.25 -16.0 6.25 -14.9 Q5.65 -14.9 5.25 -14.35 4.8 -13.8 4.8 -13.05 L6.25 -11.9 Q7.7 -11.05 9.8 -11.05 13.55 -11.05 15.35 -13.2 L15.45 -13.3 Q15.45 -14.1 15.05 -14.65 14.6 -15.2 14.0 -15.2 L14.0 -16.1 M7.4 -10.7 Q6.25 -11.0 5.15 -11.75 L5.1 -7.1 Q5.1 -6.65 5.85 -6.1 L7.05 -5.4 12.0 -5.05 Q13.45 -5.35 14.25 -6.05 L15.2 -7.1 15.2 -11.8 13.6 -10.9 11.65 -10.45 7.4 -10.7 M112.4 -10.7 Q111.25 -11.0 110.15 -11.75 L110.1 -7.1 Q110.1 -6.65 110.85 -6.1 L112.05 -5.4 117.0 -5.05 Q118.45 -5.35 119.25 -6.05 L120.2 -7.1 120.2 -11.8 Q119.0 -11.05 118.6 -10.9 L116.65 -10.45 112.4 -10.7" fill="#5f4300" fill-rule="evenodd" stroke="none"/>
    <path d="M7.15 -13.05 Q10.2 -12.5 12.35 -12.95 L12.4 -12.95 15.35 -13.2 Q13.55 -11.05 9.8 -11.05 7.7 -11.05 6.25 -11.9 L4.8 -13.05 7.15 -13.05 M7.05 -5.4 L7.4 -10.7 11.65 -10.45 12.05 -10.5 12.0 -5.05 7.05 -5.4 M109.8 -13.05 L112.15 -13.05 Q115.2 -12.5 117.35 -12.95 L117.4 -12.95 120.35 -13.2 Q118.55 -11.05 114.8 -11.05 112.7 -11.05 111.25 -11.9 110.65 -12.2 109.8 -13.05 M112.05 -5.4 L112.4 -10.7 116.65 -10.45 117.05 -10.5 117.0 -5.05 112.05 -5.4" fill="#f3bf14" fill-rule="evenodd" stroke="none"/>
    <path d="M111.25 -98.5 L110.35 -99.3 Q108.35 -101.3 108.35 -104.1 108.35 -106.9 110.35 -108.9 112.35 -110.9 115.15 -110.9 117.95 -110.9 119.95 -108.9 121.95 -106.9 121.95 -104.1 121.95 -101.3 119.95 -99.3 L119.0 -98.5 118.2 -98.0 Q116.8 -97.3 115.15 -97.3 113.45 -97.3 112.05 -98.0 L111.25 -98.5 M121.2 -11.25 L122.2 -10.85 Q125.35 -9.35 125.3 -7.1 L125.3 -5.15 Q125.35 -2.85 122.2 -1.35 119.3 0.05 115.15 0.05 111.0 0.05 108.1 -1.35 105.3 -2.7 105.05 -4.6 L105.0 -5.0 105.0 -7.1 Q104.95 -9.35 108.1 -10.85 L109.15 -11.25 109.15 -11.35 Q109.3 -10.55 109.1 -10.05 107.8 -10.05 106.9 -8.95 106.0 -7.9 106.0 -6.35 L106.0 -5.55 Q106.45 -3.7 108.55 -2.45 111.1 -0.95 115.15 -0.95 121.0 -0.95 123.1 -2.85 124.1 -3.75 124.3 -5.5 L124.45 -6.35 Q124.45 -7.9 123.55 -9.0 122.65 -10.15 121.35 -10.15 L121.2 -11.25 M111.05 -100.0 L111.25 -99.8 112.05 -99.15 Q113.4 -98.3 115.15 -98.3 116.85 -98.3 118.2 -99.15 L119.0 -99.75 119.25 -100.0 Q120.95 -101.7 120.95 -104.1 120.95 -106.5 119.25 -108.2 117.55 -109.9 115.15 -109.9 112.75 -109.9 111.05 -108.2 109.35 -106.5 109.35 -104.1 109.35 -101.7 111.05 -100.0 M6.05 -100.0 L6.25 -99.8 7.05 -99.15 Q8.4 -98.3 10.15 -98.3 11.85 -98.3 13.2 -99.15 L14.0 -99.75 14.25 -100.0 Q15.95 -101.7 15.95 -104.1 15.95 -106.5 14.25 -108.2 12.55 -109.9 10.15 -109.9 7.75 -109.9 6.05 -108.2 4.35 -106.5 4.35 -104.1 4.35 -101.7 6.05 -100.0 M6.25 -98.5 L5.35 -99.3 Q3.35 -101.3 3.35 -104.1 3.35 -106.9 5.35 -108.9 7.35 -110.9 10.15 -110.9 12.95 -110.9 14.95 -108.9 16.95 -106.9 16.95 -104.1 16.95 -101.3 14.95 -99.3 L14.0 -98.5 13.2 -98.0 Q11.8 -97.3 10.15 -97.3 8.45 -97.3 7.05 -98.0 L6.25 -98.5 M16.2 -11.25 L17.2 -10.85 Q20.35 -9.35 20.3 -7.1 L20.3 -5.15 Q20.35 -2.85 17.2 -1.35 14.3 0.05 10.15 0.05 6.0 0.05 3.1 -1.35 0.3 -2.7 0.05 -4.6 L0.0 -5.0 0.0 -7.1 Q-0.05 -9.35 3.1 -10.85 L4.15 -11.25 4.15 -11.35 Q4.3 -10.55 4.1 -10.05 2.8 -10.05 1.9 -8.95 1.0 -7.9 1.0 -6.35 L1.0 -5.55 Q1.45 -3.7 3.55 -2.45 6.1 -0.95 10.15 -0.95 16.0 -0.95 18.1 -2.85 19.1 -3.75 19.3 -5.5 L19.45 -6.35 Q19.45 -7.9 18.55 -9.0 17.65 -10.15 16.35 -10.15 L16.2 -11.25" fill="#4d0100" fill-rule="evenodd" stroke="none"/>
    <path d="M110.35 -105.6 Q110.35 -107.15 111.75 -108.3 113.15 -109.4 115.1 -109.4 117.05 -109.4 118.45 -108.3 119.85 -107.15 119.85 -105.6 119.85 -104.4 119.0 -103.45 L118.45 -102.95 118.2 -102.75 Q116.9 -101.8 115.1 -101.8 113.35 -101.8 112.05 -102.7 L111.75 -102.95 111.25 -103.4 Q110.35 -104.35 110.35 -105.6 M6.75 -108.3 Q8.15 -109.4 10.1 -109.4 12.05 -109.4 13.45 -108.3 14.85 -107.15 14.85 -105.6 14.85 -104.4 14.0 -103.45 L13.45 -102.95 13.2 -102.75 Q11.9 -101.8 10.1 -101.8 8.35 -101.8 7.05 -102.7 L6.75 -102.95 6.25 -103.4 Q5.35 -104.35 5.35 -105.6 5.35 -107.15 6.75 -108.3 M1.0 -6.35 L4.25 -6.35 Q5.15 -5.3 7.1 -4.6 8.85 -3.9 10.15 -3.9 14.25 -3.9 15.15 -4.7 15.7 -5.15 16.1 -6.35 L19.45 -6.35 19.3 -5.5 Q18.05 -4.4 15.2 -3.45 12.25 -2.45 10.15 -2.45 8.45 -2.45 5.8 -3.25 2.6 -4.15 1.0 -5.55 L1.0 -6.35 M106.0 -6.35 L109.25 -6.35 Q110.15 -5.3 112.1 -4.6 113.85 -3.9 115.15 -3.9 119.25 -3.9 120.15 -4.7 120.7 -5.15 121.1 -6.35 L124.45 -6.35 124.3 -5.5 Q123.05 -4.4 120.2 -3.45 117.25 -2.45 115.15 -2.45 113.45 -2.45 110.8 -3.25 107.6 -4.15 106.0 -5.55 L106.0 -6.35" fill="#f3201a" fill-rule="evenodd" stroke="none"/>
    <path d="M4.25 -6.35 L1.0 -6.35 Q1.0 -7.9 1.9 -8.95 2.8 -10.05 4.1 -10.05 4.1 -7.1 4.25 -6.35 M19.45 -6.35 L16.1 -6.35 16.2 -10.2 16.35 -10.15 Q17.65 -10.15 18.55 -9.0 19.45 -7.9 19.45 -6.35 M106.0 -6.35 Q106.0 -7.9 106.9 -8.95 107.8 -10.05 109.1 -10.05 109.1 -7.1 109.25 -6.35 L106.0 -6.35 M124.45 -6.35 L121.1 -6.35 121.2 -10.2 121.35 -10.15 Q122.65 -10.15 123.55 -9.0 124.45 -7.9 124.45 -6.35" fill="#cb0b06" fill-rule="evenodd" stroke="none"/>
    <path d="M110.35 -105.6 Q110.35 -104.35 111.25 -103.4 L111.75 -102.95 112.05 -102.7 Q113.35 -101.8 115.1 -101.8 116.9 -101.8 118.2 -102.75 L118.45 -102.95 119.0 -103.45 Q119.85 -104.4 119.85 -105.6 119.85 -107.15 118.45 -108.3 117.05 -109.4 115.1 -109.4 113.15 -109.4 111.75 -108.3 110.35 -107.15 110.35 -105.6 M111.05 -100.0 Q109.35 -101.7 109.35 -104.1 109.35 -106.5 111.05 -108.2 112.75 -109.9 115.15 -109.9 117.55 -109.9 119.25 -108.2 120.95 -106.5 120.95 -104.1 120.95 -101.7 119.25 -100.0 L119.0 -99.75 118.2 -99.15 Q116.85 -98.3 115.15 -98.3 113.4 -98.3 112.05 -99.15 L111.25 -99.8 111.05 -100.0 M6.75 -108.3 Q5.35 -107.15 5.35 -105.6 5.35 -104.35 6.25 -103.4 L6.75 -102.95 7.05 -102.7 Q8.35 -101.8 10.1 -101.8 11.9 -101.8 13.2 -102.75 L13.45 -102.95 14.0 -103.45 Q14.85 -104.4 14.85 -105.6 14.85 -107.15 13.45 -108.3 12.05 -109.4 10.1 -109.4 8.15 -109.4 6.75 -108.3 M6.05 -100.0 Q4.35 -101.7 4.35 -104.1 4.35 -106.5 6.05 -108.2 7.75 -109.9 10.15 -109.9 12.55 -109.9 14.25 -108.2 15.95 -106.5 15.95 -104.1 15.95 -101.7 14.25 -100.0 L14.0 -99.75 13.2 -99.15 Q11.85 -98.3 10.15 -98.3 8.4 -98.3 7.05 -99.15 L6.25 -99.8 6.05 -100.0 M1.0 -5.55 Q2.6 -4.15 5.8 -3.25 8.45 -2.45 10.15 -2.45 12.25 -2.45 15.2 -3.45 18.05 -4.4 19.3 -5.5 19.1 -3.75 18.1 -2.85 16.0 -0.95 10.15 -0.95 6.1 -0.95 3.55 -2.45 1.45 -3.7 1.0 -5.55 M106.0 -5.55 Q107.6 -4.15 110.8 -3.25 113.45 -2.45 115.15 -2.45 117.25 -2.45 120.2 -3.45 123.05 -4.4 124.3 -5.5 124.1 -3.75 123.1 -2.85 121.0 -0.95 115.15 -0.95 111.1 -0.95 108.55 -2.45 106.45 -3.7 106.0 -5.55" fill="#8a0b08" fill-rule="evenodd" stroke="none"/>
    <path d="M8.45 -13.2 L8.45 -94.55 12.4 -94.55 12.4 -13.4 10.75 -13.25 8.45 -13.2 M113.45 -13.2 L113.45 -94.55 117.4 -94.55 117.4 -13.4 115.75 -13.25 113.45 -13.2" fill="#3c3c3c" fill-rule="evenodd" stroke="none"/>
    <path d="M112.05 -98.0 Q113.45 -97.3 115.15 -97.3 116.8 -97.3 118.2 -98.0 L118.2 -13.85 117.4 -13.4 117.4 -94.55 113.45 -94.55 113.45 -13.2 112.05 -13.65 112.05 -98.0 M7.05 -98.0 Q8.45 -97.3 10.15 -97.3 11.8 -97.3 13.2 -98.0 L13.2 -13.85 12.4 -13.4 12.4 -94.55 8.45 -94.55 8.45 -13.2 7.05 -13.65 7.05 -98.0" fill="#272727" fill-rule="evenodd" stroke="none"/>
    <path d="M111.25 -98.5 L112.05 -98.0 112.05 -13.65 113.45 -13.2 115.75 -13.25 117.4 -13.4 118.2 -13.85 118.2 -98.0 119.0 -98.5 119.0 -16.1 119.0 -15.2 Q119.0 -14.25 118.55 -13.6 118.05 -12.95 117.4 -12.95 L117.35 -12.95 Q115.2 -12.5 112.15 -13.05 111.8 -13.05 111.55 -13.6 111.25 -14.15 111.25 -14.9 L111.25 -16.0 111.25 -19.3 111.25 -41.8 111.25 -94.55 111.25 -98.5 M6.25 -98.5 L7.05 -98.0 7.05 -13.65 8.45 -13.2 10.75 -13.25 12.4 -13.4 13.2 -13.85 13.2 -98.0 14.0 -98.5 14.0 -16.1 14.0 -15.2 Q14.0 -14.25 13.55 -13.6 13.05 -12.95 12.4 -12.95 L12.35 -12.95 Q10.2 -12.5 7.15 -13.05 6.8 -13.05 6.55 -13.6 6.25 -14.15 6.25 -14.9 L6.25 -16.0 6.25 -19.3 6.25 -41.8 6.25 -94.55 6.25 -98.5" fill="#121212" fill-rule="evenodd" stroke="none"/>
  </g>
</svg>
