<?xml version="1.0" encoding="UTF-8" standalone="no"?>
<svg xmlns:ffdec="https://www.free-decompiler.com/flash" xmlns:xlink="http://www.w3.org/1999/xlink" ffdec:objectType="shape" height="30.25px" width="30.05px" xmlns="http://www.w3.org/2000/svg">
  <g transform="matrix(1.0, 0.0, 0.0, 1.0, 8.25, 2.0)">
    <path d="M18.25 5.45 L18.6 5.1 21.05 4.65 Q17.8 6.85 12.5 12.0 6.4 18.0 3.8 22.3 L4.95 18.9 6.0 17.25 10.55 11.95 12.95 10.0 18.25 5.45 M-1.5 25.95 L-1.05 24.1 -0.85 24.3 0.4 26.95 2.05 25.15 0.4 28.25 -1.5 25.95" fill="#141414" fill-rule="evenodd" stroke="none"/>
    <path d="M16.45 6.15 L18.25 5.45 12.95 10.0 6.95 9.95 10.35 8.55 16.45 6.15 M8.05 12.0 L10.55 11.95 6.0 17.25 6.45 16.65 -0.85 19.15 Q-1.35 19.25 3.0 15.95 L8.05 12.0 M4.95 18.9 L3.8 22.3 2.05 25.15 0.4 26.95 -0.85 24.3 0.8 20.95 4.95 18.9" fill="#333333" fill-rule="evenodd" stroke="none"/>
    <path d="M3.95 5.85 Q8.95 4.7 16.35 4.6 L16.45 6.15 10.35 8.55 Q7.85 8.4 5.15 8.5 -0.25 8.7 -2.85 9.95 L3.95 5.85 M-1.05 24.1 L-3.95 25.05 -0.1 19.55 0.55 19.95 0.8 20.95 -0.85 24.3 -1.05 24.1 M-3.45 21.45 L-6.7 20.5 -5.4 18.6 7.7 11.15 8.05 12.0 3.0 15.95 Q-1.35 19.25 -0.85 19.15 L-0.5 19.35 -3.45 21.45" fill="#adadad" fill-rule="evenodd" stroke="none"/>
    <path d="M18.6 5.1 L19.9 3.7 Q20.6 2.45 20.45 0.05 L17.85 -0.55 15.35 -0.85 Q14.75 -0.85 14.45 0.2 L14.25 1.2 1.6 4.35 2.7 4.95 Q3.85 5.55 3.95 5.85 L-2.85 9.95 -5.1 12.05 -3.5 12.55 Q-1.8 13.2 -1.45 13.8 L-5.4 18.6 -6.7 20.5 -3.45 21.45 Q-4.25 24.6 -3.95 25.05 L-1.05 24.1 -1.5 25.95 -1.75 25.45 -4.7 26.3 Q-5.4 26.3 -5.4 25.25 L-4.85 21.85 Q-8.25 21.65 -8.25 20.65 -8.25 20.05 -6.6 18.1 L-2.9 13.75 -5.35 13.2 Q-6.15 13.0 -6.75 12.2 L-2.4 8.9 Q1.65 5.95 2.15 5.7 L-0.15 4.55 Q3.2 2.1 9.2 1.0 13.75 0.2 14.4 -2.0 L21.1 -1.0 Q21.8 0.9 21.8 1.75 21.8 3.15 21.05 4.65 L18.6 5.1 M12.95 10.0 L10.55 11.95 8.05 12.0 7.7 11.15 6.15 10.3 6.95 9.95 12.95 10.0 M6.0 17.25 L4.95 18.9 0.8 20.95 0.55 19.95 -0.1 19.55 -0.5 19.35 -0.85 19.15 6.45 16.65 6.0 17.25" fill="#919191" fill-rule="evenodd" stroke="none"/>
    <path d="M3.95 5.85 Q3.85 5.55 2.7 4.95 L1.6 4.35 14.25 1.2 14.45 0.2 Q14.75 -0.85 15.35 -0.85 L17.85 -0.55 20.45 0.05 Q20.6 2.45 19.9 3.7 L18.6 5.1 18.25 5.45 16.45 6.15 16.35 4.6 Q8.95 4.7 3.95 5.85 M-3.95 25.05 Q-4.25 24.6 -3.45 21.45 L-0.5 19.35 -0.1 19.55 -3.95 25.05 M-5.4 18.6 L-1.45 13.8 Q-1.8 13.2 -3.5 12.55 L-5.1 12.05 -2.85 9.95 Q-0.25 8.7 5.15 8.5 7.85 8.4 10.35 8.55 L6.95 9.95 6.15 10.3 7.7 11.15 -5.4 18.6" fill="#cccccc" fill-rule="evenodd" stroke="none"/>
  </g>
</svg>
