<?xml version="1.0" encoding="UTF-8" standalone="no"?>
<svg xmlns:ffdec="https://www.free-decompiler.com/flash" xmlns:xlink="http://www.w3.org/1999/xlink" ffdec:objectType="shape" height="14.7px" width="14.85px" xmlns="http://www.w3.org/2000/svg">
  <g transform="matrix(1.0, 0.0, 0.0, 1.0, -2.75, 7.05)">
    <path d="M3.45 -2.75 L3.45 -2.8 Q4.0 -4.05 5.05 -4.95 L6.5 -6.1 6.55 -6.15 Q8.2 -7.05 10.15 -7.05 13.2 -7.05 15.35 -4.95 L15.4 -4.9 Q17.6 -2.8 17.6 0.3 17.6 3.35 15.35 5.6 13.2 7.65 10.15 7.65 7.15 7.65 5.0 5.6 L4.95 5.5 Q2.75 3.35 2.75 0.3 2.75 -1.4 3.4 -2.7 L3.45 -2.75" fill="#7c5136" fill-rule="evenodd" stroke="none"/>
    <path d="M3.3 -1.5 Q3.75 -2.55 4.75 -3.35 L6.0 -4.3 6.05 -4.35 Q7.45 -5.1 9.15 -5.1 11.8 -5.1 13.65 -3.35 L13.7 -3.3 Q15.6 -1.55 15.6 1.05 15.6 3.6 13.65 5.45 11.8 7.15 9.15 7.15 6.55 7.15 4.7 5.45 L4.65 5.4 Q2.75 3.6 2.75 1.05 2.75 -0.45 3.35 -1.55 L3.3 -1.5 M7.0 -0.7 L6.5 -0.1 6.5 0.0 Q6.25 0.45 6.25 1.05 6.25 2.1 7.05 2.85 L7.1 2.9 Q7.95 3.65 9.15 3.65 10.4 3.65 11.25 2.9 12.1 2.1 12.1 1.05 12.1 0.0 11.3 -0.75 L11.25 -0.8 Q10.4 -1.6 9.15 -1.6 L7.7 -1.25 7.65 -1.25 7.1 -0.8 7.0 -0.7" fill="#20150f" fill-rule="evenodd" stroke="none"/>
    <path d="M7.0 -0.7 L7.1 -0.8 7.65 -1.25 7.7 -1.25 9.15 -1.6 Q10.4 -1.6 11.25 -0.8 L11.3 -0.75 Q12.1 0.0 12.1 1.05 12.1 2.1 11.25 2.9 10.4 3.65 9.15 3.65 7.95 3.65 7.1 2.9 L7.05 2.85 Q6.25 2.1 6.25 1.05 6.25 0.45 6.5 0.0 L6.5 -0.1 7.0 -0.7" fill="#a86d4a" fill-rule="evenodd" stroke="none"/>
  </g>
</svg>
