<?xml version="1.0" encoding="UTF-8" standalone="no"?>
<svg xmlns:ffdec="https://www.free-decompiler.com/flash" xmlns:xlink="http://www.w3.org/1999/xlink" ffdec:objectType="shape" height="146.45px" width="100.65px" xmlns="http://www.w3.org/2000/svg">
  <g transform="matrix(1.0, 0.0, 0.0, 1.0, 59.85, 48.95)">
    <path d="M23.85 53.6 Q25.45 56.15 25.45 60.55 L25.2 64.5 24.65 69.45 Q23.0 77.85 23.0 78.6 23.0 81.05 24.3 84.0 L24.75 85.05 Q24.8 83.95 25.95 81.65 27.2 79.3 28.35 78.7 27.9 80.55 29.0 85.65 30.1 90.8 31.3 92.8 L32.75 95.15 33.65 96.05 32.5 93.6 Q32.2 92.85 32.2 92.3 32.2 89.2 35.7 81.5 39.2 73.85 39.2 66.45 39.2 61.9 37.5 57.65 36.6 55.35 33.8 50.4 30.7 44.95 29.35 39.9 28.35 35.05 28.35 30.45 30.55 3.05 30.55 0.5 30.55 -13.3 26.5 -23.7 24.1 -29.8 20.45 -34.3 15.55 -40.3 5.05 -43.9 1.05 -45.25 -2.5 -46.0 L-9.95 -46.8 Q-21.1 -46.8 -27.0 -41.0 L-27.5 -41.25 -23.8 -44.5 -18.4 -47.2 -20.9 -47.25 Q-26.0 -47.25 -29.65 -45.65 L-33.65 -43.55 -37.35 -41.15 -43.1 -37.6 Q-46.9 -35.4 -51.7 -29.9 L-53.1 -28.2 -53.1 -30.35 Q-49.8 -34.2 -44.2 -38.65 -31.3 -48.95 -25.0 -48.95 L-9.95 -48.3 -2.5 -47.6 Q3.05 -46.65 9.05 -44.25 21.85 -39.1 25.6 -30.45 29.8 -20.75 30.9 -15.15 32.05 -9.2 32.05 3.0 32.05 7.65 30.85 16.85 29.65 26.05 29.65 30.0 29.65 34.0 31.1 39.9 32.45 44.4 35.25 50.4 40.8 62.4 40.8 69.55 40.8 76.15 38.05 81.9 L36.15 85.75 33.7 91.2 33.6 92.1 Q33.6 93.0 34.35 94.6 L35.3 96.75 35.3 97.25 34.6 97.5 Q32.6 97.5 30.45 94.6 27.05 89.95 27.6 80.55 L26.7 84.15 Q25.95 87.45 25.95 87.85 23.8 87.05 22.75 83.15 22.0 80.4 22.0 77.5 24.4 67.35 24.4 61.8 L24.1 58.45 Q21.35 66.7 20.05 77.5 L19.45 82.9 Q16.15 80.9 15.8 72.55 L16.05 59.5 Q15.4 53.95 14.4 51.2 16.15 57.5 12.4 67.8 L9.05 76.05 Q7.15 80.6 5.7 82.15 5.1 77.55 5.95 74.65 7.8 68.1 7.8 65.45 7.8 54.55 2.55 45.1 L-0.2 39.9 -1.05 37.35 Q-2.15 33.7 -2.5 29.55 L-2.7 25.0 -2.5 21.4 -2.4 20.6 Q-1.85 16.85 0.1 7.4 0.8 4.1 0.8 0.65 0.8 -5.55 -1.1 -9.8 L-2.5 -12.45 -5.7 -17.3 -5.7 -20.0 -3.9 -18.4 -1.2 -13.35 Q-0.25 -11.5 1.0 -5.05 2.15 0.8 2.15 2.3 -1.45 22.4 -1.45 26.9 -1.45 34.35 0.2 39.9 1.2 42.55 3.85 46.55 6.5 50.6 7.5 53.15 9.15 57.4 9.15 63.1 9.15 67.05 8.55 70.2 L7.8 73.05 7.65 73.4 6.25 78.7 Q10.25 71.2 11.7 66.9 13.35 61.95 13.4 56.35 13.45 53.9 12.45 48.7 L11.5 43.85 10.95 41.65 10.45 39.9 10.35 39.25 Q10.35 37.6 10.85 35.65 L11.15 35.35 11.25 35.25 12.15 39.9 13.15 43.2 Q14.95 49.25 16.1 52.1 17.0 54.35 17.0 57.5 L16.85 66.5 17.25 70.9 18.25 78.4 Q18.5 73.75 20.7 64.55 22.85 55.35 22.95 53.65 L23.85 53.6 M-31.55 -25.8 L-31.05 -27.15 Q-22.3 -27.8 -18.25 -23.6 -17.15 -22.45 -16.3 -20.9 L-17.95 -20.9 -19.8 -22.85 Q-24.5 -26.95 -31.55 -25.8 M-6.7 -20.9 L-9.15 -20.9 Q-11.3 -26.45 -14.75 -28.15 -14.65 -28.75 -13.05 -27.75 L-11.1 -25.5 Q-9.55 -23.55 -6.7 -20.9 M-53.1 -22.25 L-53.05 -22.35 Q-52.05 -24.0 -49.75 -24.35 L-51.95 -22.1 -53.1 -20.2 -53.1 -22.25" fill="#97877d" fill-rule="evenodd" stroke="none"/>
    <path d="M-15.85 -42.55 Q-7.8 -42.7 -2.5 -40.9 1.0 -39.7 3.3 -37.65 L6.95 -34.05 Q8.95 -32.4 11.7 -32.4 15.4 -32.4 20.8 -16.2 25.95 -0.7 25.95 7.55 25.95 9.1 24.0 19.45 23.2 23.8 22.75 28.05 L22.35 32.4 Q22.35 34.65 23.2 39.9 23.95 43.85 25.5 50.0 L28.6 62.5 Q28.6 67.6 26.45 76.25 L24.3 84.0 Q23.0 81.05 23.0 78.6 23.0 77.85 24.65 69.45 L25.2 64.5 25.45 60.55 Q25.45 56.15 23.85 53.6 23.75 51.75 22.5 49.05 L19.9 43.65 18.45 39.9 Q16.2 30.9 16.2 19.6 L17.05 2.05 Q17.05 -13.45 10.45 -24.5 5.6 -32.7 -2.5 -37.45 -8.35 -40.9 -15.85 -42.55 M13.2 -33.0 L11.2 -36.0 Q16.95 -35.8 22.7 -23.8 29.3 -10.0 29.3 9.05 29.3 13.9 28.2 24.85 L27.05 35.6 Q27.05 37.65 27.35 39.9 28.1 45.0 31.15 51.4 35.25 60.05 35.25 64.2 35.25 69.4 34.3 73.8 L31.95 81.7 Q31.55 80.55 30.9 76.6 30.25 72.6 30.25 71.3 L30.9 65.4 31.3 59.5 Q31.3 55.0 28.3 47.5 L25.45 39.9 24.65 36.65 Q24.25 34.6 24.25 32.4 L27.45 7.3 Q22.45 -16.0 20.4 -22.05 19.2 -25.65 16.65 -28.95 L13.2 -33.0 M-27.0 -41.0 Q-27.75 -40.35 -30.4 -35.2 -32.8 -30.6 -37.4 -27.6 -36.6 -27.45 -35.85 -27.85 L-35.2 -28.3 Q-36.0 -27.1 -35.55 -26.35 L-37.75 -26.2 -43.35 -26.4 -45.45 -26.2 -45.65 -26.2 -45.9 -26.1 -46.25 -26.5 -46.15 -25.2 Q-47.2 -27.85 -48.15 -28.5 -48.9 -29.05 -48.9 -29.55 L-45.7 -31.9 -46.5 -31.05 -47.5 -29.25 -46.7 -28.8 -34.65 -31.3 Q-33.85 -31.6 -33.5 -32.15 L-32.45 -33.7 Q-33.65 -34.85 -38.05 -34.25 -41.65 -33.8 -44.5 -32.7 -41.55 -34.75 -40.65 -35.8 L-38.9 -38.1 Q-37.3 -39.95 -35.5 -40.15 -31.75 -40.6 -30.8 -41.15 -27.65 -42.95 -23.8 -44.5 L-27.5 -41.25 -27.0 -41.0 M-31.05 -27.15 Q-30.95 -29.3 -29.8 -32.7 -30.15 -30.9 -29.5 -29.6 -28.95 -28.5 -28.25 -28.5 L-21.1 -28.75 Q-17.25 -28.3 -15.2 -24.2 L-13.45 -20.9 -16.3 -20.9 Q-17.15 -22.45 -18.25 -23.6 -22.3 -27.8 -31.05 -27.15 M-29.65 -33.1 L-27.75 -36.45 Q-22.6 -36.75 -16.85 -34.15 -7.0 -29.65 -2.5 -17.45 L-1.2 -13.35 -3.9 -18.4 -3.4 -17.7 Q-5.7 -23.7 -11.85 -29.5 -17.75 -35.05 -21.2 -35.05 L-22.55 -34.95 -22.65 -33.4 Q-27.1 -33.8 -28.2 -34.45 -28.05 -34.3 -29.65 -33.1 M-27.45 -37.7 Q-26.95 -38.0 -25.55 -40.3 -23.65 -42.35 -20.4 -42.15 L-20.45 -41.35 -20.3 -40.55 -19.9 -40.25 -20.0 -40.65 Q-20.1 -41.0 -19.5 -41.0 -9.6 -41.0 -2.5 -34.45 0.45 -31.7 2.9 -27.85 12.55 -12.6 12.55 17.9 L12.05 25.7 11.15 35.35 10.85 35.65 Q10.3 25.4 10.3 22.45 L10.1 3.85 9.95 3.95 Q8.4 10.15 8.4 18.9 8.4 33.7 9.4 39.9 9.6 41.15 9.95 42.0 12.4 48.0 13.4 56.35 13.35 61.95 11.7 66.9 10.25 71.2 6.25 78.7 L7.65 73.4 7.8 73.05 10.8 66.0 Q11.65 63.45 11.65 60.35 11.65 57.1 8.6 44.3 L7.55 39.9 Q5.5 28.6 5.5 26.0 5.5 20.4 6.6 11.8 L7.7 2.35 Q7.7 -14.5 -2.5 -27.1 L-2.7 -27.35 Q-12.15 -38.85 -22.15 -38.85 L-23.7 -38.55 -27.45 -37.7 M15.5 -21.9 Q13.65 -24.95 14.8 -20.65 L19.25 -6.25 19.75 -6.3 Q19.95 -6.4 19.95 -7.05 19.95 -12.5 15.5 -21.9 M21.25 0.0 L20.8 0.9 21.55 8.35 Q21.55 10.15 20.25 19.3 18.9 28.4 18.9 31.25 18.9 34.7 19.55 36.0 L20.75 37.1 21.0 36.5 21.1 35.65 20.85 33.15 20.55 30.2 21.55 22.45 22.55 14.55 Q22.55 10.45 22.0 5.3 L21.25 0.0 M-31.0 -39.8 L-33.55 -39.9 Q-37.3 -39.9 -38.4 -38.45 -39.0 -37.65 -38.85 -35.65 -36.3 -35.6 -34.55 -36.55 L-30.75 -39.15 -31.0 -39.8" fill="#ebe8e0" fill-rule="evenodd" stroke="none"/>
    <path d="M13.2 -33.0 L16.65 -28.95 Q19.2 -25.65 20.4 -22.05 22.45 -16.0 27.45 7.3 L24.25 32.4 Q24.25 34.6 24.65 36.65 L25.45 39.9 28.3 47.5 Q31.3 55.0 31.3 59.5 L30.9 65.4 30.25 71.3 Q30.25 72.6 30.9 76.6 31.55 80.55 31.95 81.7 L34.3 73.8 Q35.25 69.4 35.25 64.2 35.25 60.05 31.15 51.4 28.1 45.0 27.35 39.9 27.05 37.65 27.05 35.6 L28.2 24.85 Q29.3 13.9 29.3 9.05 29.3 -10.0 22.7 -23.8 16.95 -35.8 11.2 -36.0 L13.2 -33.0 M24.3 84.0 L26.45 76.25 Q28.6 67.6 28.6 62.5 L25.5 50.0 Q23.95 43.85 23.2 39.9 22.35 34.65 22.35 32.4 L22.75 28.05 Q23.2 23.8 24.0 19.45 25.95 9.1 25.95 7.55 25.95 -0.7 20.8 -16.2 15.4 -32.4 11.7 -32.4 8.95 -32.4 6.95 -34.05 L3.3 -37.65 Q1.0 -39.7 -2.5 -40.9 -7.8 -42.7 -15.85 -42.55 L-20.35 -42.15 -20.4 -42.15 Q-23.65 -42.35 -25.55 -40.3 -26.95 -38.0 -27.45 -37.7 L-28.15 -37.2 -27.75 -36.45 -29.65 -33.1 -29.8 -32.7 Q-30.95 -29.3 -31.05 -27.15 L-31.55 -25.8 -32.15 -26.3 Q-32.7 -27.05 -32.75 -29.0 L-35.55 -26.35 Q-36.0 -27.1 -35.2 -28.3 L-35.85 -27.85 Q-36.6 -27.45 -37.4 -27.6 -32.8 -30.6 -30.4 -35.2 -27.75 -40.35 -27.0 -41.0 -21.1 -46.8 -9.95 -46.8 L-2.5 -46.0 Q1.05 -45.25 5.05 -43.9 15.55 -40.3 20.45 -34.3 24.1 -29.8 26.5 -23.7 30.55 -13.3 30.55 0.5 30.55 3.05 28.35 30.45 28.35 35.05 29.35 39.9 30.7 44.95 33.8 50.4 36.6 55.35 37.5 57.65 39.2 61.9 39.2 66.45 39.2 73.85 35.7 81.5 32.2 89.2 32.2 92.3 32.2 92.85 32.5 93.6 L33.65 96.05 32.75 95.15 31.3 92.8 Q30.1 90.8 29.0 85.65 27.9 80.55 28.35 78.7 27.2 79.3 25.95 81.65 24.8 83.95 24.75 85.05 L24.3 84.0 M15.5 -21.9 Q19.95 -12.5 19.95 -7.05 19.95 -6.4 19.75 -6.3 L19.25 -6.25 14.8 -20.65 Q13.65 -24.95 15.5 -21.9 M-5.7 -20.0 L-5.7 -20.9 -6.7 -20.9 Q-9.55 -23.55 -11.1 -25.5 L-13.05 -27.75 Q-14.55 -29.3 -18.35 -31.4 -21.7 -33.25 -22.65 -33.4 L-22.55 -34.95 -21.2 -35.05 Q-17.75 -35.05 -11.85 -29.5 -5.7 -23.7 -3.4 -17.7 L-3.9 -18.4 -5.7 -20.0 M21.25 0.0 L22.0 5.3 Q22.55 10.45 22.55 14.55 L21.55 22.45 20.55 30.2 20.85 33.15 21.1 35.65 21.0 36.5 20.75 37.1 19.55 36.0 Q18.9 34.7 18.9 31.25 18.9 28.4 20.25 19.3 21.55 10.15 21.55 8.35 L20.8 0.9 21.25 0.0 M13.4 56.35 Q12.4 48.0 9.95 42.0 9.6 41.15 9.4 39.9 8.4 33.7 8.4 18.9 8.4 10.15 9.95 3.95 L10.1 3.85 10.3 22.45 Q10.3 25.4 10.85 35.65 10.35 37.6 10.35 39.25 L10.45 39.9 10.95 41.65 11.5 43.85 12.45 48.7 Q13.45 53.9 13.4 56.35 M-53.1 -28.2 L-51.7 -29.9 Q-46.9 -35.4 -43.1 -37.6 L-37.35 -41.15 -33.65 -43.55 -29.65 -45.65 Q-26.0 -47.25 -20.9 -47.25 L-18.4 -47.2 -23.8 -44.5 Q-27.65 -42.95 -30.8 -41.15 -31.75 -40.6 -35.5 -40.15 -37.3 -39.95 -38.9 -38.1 L-40.65 -35.8 Q-41.55 -34.75 -44.5 -32.7 L-44.85 -32.6 -45.7 -31.9 -48.9 -29.55 Q-48.9 -29.05 -48.15 -28.5 -47.2 -27.85 -46.15 -25.2 L-46.25 -26.5 -45.9 -26.1 -45.55 -25.75 -43.15 -23.65 Q-47.2 -24.8 -49.75 -24.35 -52.05 -24.0 -53.05 -22.35 L-53.1 -22.25 -53.1 -28.2" fill="#cbc8c0" fill-rule="evenodd" stroke="none"/>
    <path d="M-15.85 -42.55 Q-8.35 -40.9 -2.5 -37.45 5.6 -32.7 10.45 -24.5 17.05 -13.45 17.05 2.05 L16.2 19.6 Q16.2 30.9 18.45 39.9 L19.9 43.65 22.5 49.05 Q23.75 51.75 23.85 53.6 L22.95 53.65 Q22.85 55.35 20.7 64.55 18.5 73.75 18.25 78.4 L17.25 70.9 16.85 66.5 17.0 57.5 Q17.0 54.35 16.1 52.1 14.95 49.25 13.15 43.2 L12.15 39.9 11.25 35.25 11.15 35.35 12.05 25.7 12.55 17.9 Q12.55 -12.6 2.9 -27.85 0.45 -31.7 -2.5 -34.45 -9.6 -41.0 -19.5 -41.0 -20.1 -41.0 -20.0 -40.65 L-19.9 -40.25 -20.3 -40.55 -20.45 -41.35 -20.4 -42.15 -20.35 -42.15 -15.85 -42.55 M-29.8 -32.7 L-29.65 -33.1 Q-28.05 -34.3 -28.2 -34.45 -27.1 -33.8 -22.65 -33.4 -21.7 -33.25 -18.35 -31.4 -14.55 -29.3 -13.05 -27.75 -14.65 -28.75 -14.75 -28.15 -11.3 -26.45 -9.15 -20.9 L-13.45 -20.9 -15.2 -24.2 Q-17.25 -28.3 -21.1 -28.75 L-28.25 -28.5 Q-28.95 -28.5 -29.5 -29.6 -30.15 -30.9 -29.8 -32.7 M-27.75 -36.45 L-28.15 -37.2 -27.45 -37.7 -23.7 -38.55 -22.15 -38.85 Q-12.15 -38.85 -2.7 -27.35 L-2.5 -27.1 Q7.7 -14.5 7.7 2.35 L6.6 11.8 Q5.5 20.4 5.5 26.0 5.5 28.6 7.55 39.9 L8.6 44.3 Q11.65 57.1 11.65 60.35 11.65 63.45 10.8 66.0 L7.8 73.05 8.55 70.2 Q9.15 67.05 9.15 63.1 9.15 57.4 7.5 53.15 6.5 50.6 3.85 46.55 1.2 42.55 0.2 39.9 -1.45 34.35 -1.45 26.9 -1.45 22.4 2.15 2.3 2.15 0.8 1.0 -5.05 -0.25 -11.5 -1.2 -13.35 L-2.5 -17.45 Q-7.0 -29.65 -16.85 -34.15 -22.6 -36.75 -27.75 -36.45 M-45.7 -31.9 L-44.85 -32.6 -44.5 -32.7 Q-41.65 -33.8 -38.05 -34.25 -33.65 -34.85 -32.45 -33.7 L-33.5 -32.15 Q-33.85 -31.6 -34.65 -31.3 L-46.7 -28.8 -47.5 -29.25 -46.5 -31.05 -45.7 -31.9 M-31.0 -39.8 L-30.75 -39.15 -34.55 -36.55 Q-36.3 -35.6 -38.85 -35.65 -39.0 -37.65 -38.4 -38.45 -37.3 -39.9 -33.55 -39.9 L-31.0 -39.8" fill="#ffffff" fill-rule="evenodd" stroke="none"/>
    <path d="M-6.75 7.45 L-6.75 9.7 Q-2.25 6.4 -0.6 -1.6 L0.6 -7.55 1.3 -9.95 Q1.85 -11.35 2.55 -12.2 3.55 -9.6 5.85 1.75 5.85 3.8 3.85 13.95 L1.8 24.1 1.85 26.8 Q2.6 25.0 4.6 23.2 6.45 21.55 7.2 21.55 L7.9 21.7 8.1 22.2 7.35 25.0 7.0 33.45 Q7.65 37.1 8.45 39.9 9.65 43.3 11.15 45.0 13.85 48.1 18.75 50.2 13.95 46.2 12.65 39.9 12.15 36.8 12.15 33.3 12.15 27.75 13.7 13.15 15.25 -2.0 15.35 -6.9 L16.05 -0.55 16.4 4.4 Q16.4 12.2 15.95 16.4 16.05 17.1 17.05 17.25 L20.45 17.75 22.95 17.45 Q20.8 13.5 19.4 6.7 18.2 1.0 18.3 -1.95 18.7 -2.1 18.95 -7.05 L19.25 -6.2 Q18.65 -2.4 21.6 7.85 L24.8 18.6 22.5 19.15 18.25 18.9 Q17.4 18.65 15.45 17.45 14.25 22.35 13.45 31.25 13.45 36.2 14.4 39.9 L15.3 42.05 Q16.5 44.4 20.85 50.8 L20.7 51.45 Q13.85 52.45 9.25 44.75 7.75 42.3 6.85 39.9 5.5 35.25 5.5 30.75 L5.95 23.8 1.7 30.95 Q1.25 30.05 0.9 27.95 0.5 25.7 0.5 24.0 0.5 22.15 2.4 12.45 4.3 2.7 4.3 0.15 L4.0 -3.05 3.2 -7.35 Q2.8 -4.3 1.3 -0.7 0.2 2.15 -1.6 5.3 -5.95 13.0 -9.4 13.4 L-8.45 8.9 -8.0 5.6 Q-8.0 -0.15 -9.9 -5.7 -11.75 -11.1 -14.5 -13.75 -16.1 -10.55 -17.2 -7.05 -17.6 -5.6 -18.85 -5.2 -20.35 -6.75 -20.7 -6.75 L-23.85 -12.05 -32.6 -2.55 Q-33.15 -3.0 -33.2 -12.25 -37.2 -8.05 -39.2 -6.75 -40.95 -5.65 -42.9 -5.65 -43.75 -5.65 -44.2 -6.15 L-43.55 -8.95 -42.75 -11.75 Q-42.35 -13.3 -44.1 -11.2 -46.95 -7.8 -48.8 -6.8 -54.45 -3.65 -57.8 -3.65 -58.7 -3.65 -59.85 -4.25 -58.25 -5.95 -57.3 -9.35 -56.4 -12.8 -56.85 -14.85 -57.3 -16.95 -56.05 -20.8 -54.8 -24.7 -51.45 -24.3 L-51.4 -24.3 Q-52.65 -24.1 -53.75 -21.1 -54.85 -18.15 -54.85 -15.7 L-54.8 -11.15 Q-54.65 -9.05 -57.6 -5.1 -52.3 -6.0 -50.65 -6.9 -47.7 -8.5 -42.35 -14.75 -41.5 -14.15 -41.5 -12.25 -41.5 -11.4 -42.0 -9.55 L-42.7 -7.2 Q-38.9 -8.2 -35.4 -11.3 L-32.55 -14.2 -31.8 -14.05 -31.7 -13.9 -31.5 -9.95 -31.8 -7.6 -32.1 -6.0 -28.85 -9.75 Q-26.5 -12.3 -24.65 -13.55 L-23.4 -14.2 Q-22.05 -12.9 -20.85 -10.7 L-19.05 -7.2 Q-18.8 -9.65 -17.1 -12.6 -15.7 -15.05 -14.55 -15.95 L-9.35 -8.5 Q-6.5 -3.75 -6.5 3.15 L-6.75 7.45" fill="#97877d" fill-rule="evenodd" stroke="none"/>
    <path d="M8.1 22.2 Q9.85 16.0 9.85 8.3 L9.75 5.7 Q8.15 14.75 7.5 16.5 6.6 18.95 2.95 22.8 4.25 19.55 6.15 10.55 7.95 1.8 7.95 -0.7 7.95 -6.95 4.9 -15.4 L1.3 -26.0 1.1 -26.8 -2.35 -7.25 Q-3.95 0.8 -6.75 7.45 L-6.5 3.15 Q-6.5 -3.75 -9.35 -8.5 L-14.55 -15.95 Q-15.7 -15.05 -17.1 -12.6 -18.8 -9.65 -19.05 -7.2 L-20.85 -10.7 Q-22.05 -12.9 -23.4 -14.2 L-24.65 -13.55 Q-26.5 -12.3 -28.85 -9.75 L-32.1 -6.0 Q-31.6 -7.6 -30.9 -12.7 -30.15 -17.65 -30.15 -18.9 L-30.6 -24.45 Q-31.6 -20.75 -33.1 -17.55 -35.95 -11.4 -40.25 -10.7 L-40.3 -12.0 Q-40.5 -13.35 -41.05 -13.35 -41.6 -13.35 -38.55 -26.7 L-36.0 -26.7 Q-37.9 -22.2 -37.55 -16.5 L-37.5 -16.5 Q-36.4 -16.45 -35.95 -17.1 -35.6 -17.6 -35.1 -19.75 -33.4 -26.65 -30.0 -33.75 -32.55 -32.85 -34.55 -29.55 L-34.55 -35.85 -32.3 -35.95 -27.65 -35.3 -29.8 -30.35 Q-29.5 -29.95 -27.9 -31.75 L-25.2 -34.65 -24.65 -35.0 Q-23.2 -35.75 -19.4 -36.75 -11.7 -37.05 -10.05 -36.85 L-3.15 -35.25 Q-0.75 -33.6 1.3 -31.75 14.55 -20.3 14.55 -2.1 14.55 7.45 12.2 19.4 9.8 31.35 9.8 32.7 9.8 36.25 10.55 39.9 L10.6 40.05 Q11.75 44.25 11.15 45.0 9.65 43.3 8.45 39.9 7.65 37.1 7.0 33.45 L7.35 25.0 8.1 22.2 M0.4 -30.6 L1.3 -28.25 2.85 -25.45 Q5.4 -21.15 6.7 -18.1 10.6 -6.55 10.35 -0.15 10.1 5.85 10.65 7.55 10.95 8.6 12.6 9.8 L13.2 -0.5 Q13.1 -10.95 12.7 -10.95 12.1 -19.4 6.95 -25.6 3.65 -29.65 1.3 -30.4 L0.4 -30.6 M14.2 -16.95 Q14.15 -18.15 14.95 -19.35 L17.3 -16.4 Q18.0 -15.75 18.75 -15.75 20.15 -15.75 20.75 -14.7 21.5 -13.3 21.5 -9.45 L21.35 -5.4 20.15 -5.25 19.25 -6.2 18.95 -7.05 18.5 -10.2 18.35 -10.9 17.95 -11.2 18.3 -1.95 Q18.2 1.0 19.4 6.7 20.8 13.5 22.95 17.45 L20.45 17.75 Q19.35 16.05 18.95 14.65 L17.7 5.95 15.35 -11.35 15.0 -13.75 14.2 -16.95 M-49.75 -26.7 L-46.3 -26.7 Q-49.2 -23.3 -50.1 -22.8 -50.4 -24.8 -49.75 -26.7 M-45.5 -26.7 L-43.5 -26.7 Q-44.45 -24.75 -44.65 -22.3 L-44.45 -17.95 Q-44.15 -22.45 -41.65 -26.7 L-38.55 -26.7 Q-39.7 -26.0 -40.7 -23.5 L-42.4 -18.4 Q-44.9 -11.25 -48.95 -9.7 -48.6 -15.0 -47.65 -19.8 -46.85 -23.9 -45.5 -26.7 M-49.75 -17.25 Q-49.3 -16.0 -49.3 -14.75 -49.3 -12.85 -50.0 -11.3 -51.0 -8.95 -53.1 -9.5 L-49.75 -17.25 M-15.1 -32.7 Q-16.9 -31.85 -17.9 -31.05 L-13.2 -26.8 Q-11.45 -25.05 -10.45 -23.2 -9.0 -20.4 -5.05 -4.75 -1.85 -12.0 -1.85 -19.65 -1.85 -27.0 -4.3 -30.3 -6.75 -33.6 -12.3 -33.6 -13.15 -33.6 -15.1 -32.7 M-24.65 -31.65 Q-26.45 -29.2 -27.75 -24.75 -29.15 -20.0 -29.15 -17.45 L-28.65 -12.5 Q-26.5 -14.0 -24.65 -16.8 L-23.85 -18.05 Q-21.4 -22.05 -21.4 -25.8 -21.4 -28.2 -21.7 -30.15 -22.2 -32.85 -23.15 -33.2 L-24.65 -31.65 M-15.35 -23.8 L-18.5 -28.45 -19.6 -20.4 Q-20.45 -12.55 -19.55 -12.2 -17.75 -13.75 -16.45 -15.75 -14.75 -18.4 -14.75 -20.6 -14.75 -22.75 -15.35 -23.8" fill="#ebe8e0" fill-rule="evenodd" stroke="none"/>
    <path d="M-6.75 7.45 Q-3.95 0.8 -2.35 -7.25 L1.1 -26.8 1.3 -26.0 4.9 -15.4 Q7.95 -6.95 7.95 -0.7 7.95 1.8 6.15 10.55 4.25 19.55 2.95 22.8 6.6 18.95 7.5 16.5 8.15 14.75 9.75 5.7 L9.85 8.3 Q9.85 16.0 8.1 22.2 L7.9 21.7 7.2 21.55 Q6.45 21.55 4.6 23.2 2.6 25.0 1.85 26.8 L1.8 24.1 3.85 13.95 Q5.85 3.8 5.85 1.75 3.55 -9.6 2.55 -12.2 1.85 -11.35 1.3 -9.95 L0.6 -7.55 -0.6 -1.6 Q-2.25 6.4 -6.75 9.7 L-6.75 7.45 M11.15 45.0 Q11.75 44.25 10.6 40.05 L10.55 39.9 Q9.8 36.25 9.8 32.7 9.8 31.35 12.2 19.4 14.55 7.45 14.55 -2.1 14.55 -20.3 1.3 -31.75 -0.75 -33.6 -3.15 -35.25 -0.75 -34.7 1.3 -33.75 5.35 -32.05 8.2 -28.95 12.25 -24.5 14.2 -16.95 L15.0 -13.75 15.35 -11.35 17.7 5.95 18.95 14.65 Q19.35 16.05 20.45 17.75 L17.05 17.25 Q16.05 17.1 15.95 16.4 16.4 12.2 16.4 4.4 L16.05 -0.55 15.35 -6.9 Q15.25 -2.0 13.7 13.15 12.15 27.75 12.15 33.3 12.15 36.8 12.65 39.9 13.95 46.2 18.75 50.2 13.85 48.1 11.15 45.0 M-19.4 -36.75 Q-23.2 -35.75 -24.65 -35.0 L-25.2 -34.65 -27.9 -31.75 Q-29.5 -29.95 -29.8 -30.35 L-27.65 -35.3 -32.3 -35.95 -34.55 -35.85 -34.55 -42.15 Q-33.25 -43.0 -30.05 -44.1 L-28.0 -44.95 -28.35 -44.4 Q-29.05 -43.1 -29.05 -41.35 -29.05 -38.3 -27.05 -37.4 -26.3 -37.05 -24.65 -36.85 L-19.4 -36.75 M-38.55 -26.7 Q-41.6 -13.35 -41.05 -13.35 -40.5 -13.35 -40.3 -12.0 L-40.25 -10.7 Q-35.95 -11.4 -33.1 -17.55 -31.6 -20.75 -30.6 -24.45 L-30.15 -18.9 Q-30.15 -17.65 -30.9 -12.7 -31.6 -7.6 -32.1 -6.0 L-31.8 -7.6 -31.5 -9.95 -31.7 -13.9 -31.8 -14.05 -32.55 -14.2 -35.4 -11.3 Q-38.9 -8.2 -42.7 -7.2 L-42.0 -9.55 Q-41.5 -11.4 -41.5 -12.25 -41.5 -14.15 -42.35 -14.75 -47.7 -8.5 -50.65 -6.9 -52.3 -6.0 -57.6 -5.1 -54.65 -9.05 -54.8 -11.15 L-54.85 -15.7 Q-54.85 -18.15 -53.75 -21.1 -52.65 -24.1 -51.4 -24.3 L-51.0 -24.3 -49.75 -26.7 Q-50.4 -24.8 -50.1 -22.8 -49.2 -23.3 -46.3 -26.7 L-45.5 -26.7 Q-46.85 -23.9 -47.65 -19.8 -48.6 -15.0 -48.95 -9.7 -44.9 -11.25 -42.4 -18.4 L-40.7 -23.5 Q-39.7 -26.0 -38.55 -26.7 M18.3 -1.95 L17.95 -11.2 18.5 -10.2 18.95 -7.05 Q18.7 -2.1 18.3 -1.95 M-49.75 -17.25 L-53.1 -9.5 Q-51.0 -8.95 -50.0 -11.3 -49.3 -12.85 -49.3 -14.75 -49.3 -16.0 -49.75 -17.25" fill="#cbc8c0" fill-rule="evenodd" stroke="none"/>
    <path d="M-34.55 -29.55 Q-32.55 -32.85 -30.0 -33.75 -33.4 -26.65 -35.1 -19.75 -35.6 -17.6 -35.95 -17.1 -36.4 -16.45 -37.5 -16.5 L-37.55 -16.5 Q-37.9 -22.2 -36.0 -26.7 L-34.55 -26.7 -34.55 -29.55 M0.4 -30.6 L1.3 -30.4 Q3.65 -29.65 6.95 -25.6 12.1 -19.4 12.7 -10.95 13.1 -10.95 13.2 -0.5 L12.6 9.8 Q10.95 8.6 10.65 7.55 10.1 5.85 10.35 -0.15 10.6 -6.55 6.7 -18.1 5.4 -21.15 2.85 -25.45 L1.3 -28.25 0.4 -30.6 M-43.5 -26.7 L-41.65 -26.7 Q-44.15 -22.45 -44.45 -17.95 L-44.65 -22.3 Q-44.45 -24.75 -43.5 -26.7 M-15.1 -32.7 Q-13.15 -33.6 -12.3 -33.6 -6.75 -33.6 -4.3 -30.3 -1.85 -27.0 -1.85 -19.65 -1.85 -12.0 -5.05 -4.75 -9.0 -20.4 -10.45 -23.2 -11.45 -25.05 -13.2 -26.8 L-17.9 -31.05 Q-16.9 -31.85 -15.1 -32.7 M-15.35 -23.8 Q-14.75 -22.75 -14.75 -20.6 -14.75 -18.4 -16.45 -15.75 -17.75 -13.75 -19.55 -12.2 -20.45 -12.55 -19.6 -20.4 L-18.5 -28.45 -15.35 -23.8 M-24.65 -31.65 L-23.15 -33.2 Q-22.2 -32.85 -21.7 -30.15 -21.4 -28.2 -21.4 -25.8 -21.4 -22.05 -23.85 -18.05 L-24.65 -16.8 Q-26.5 -14.0 -28.65 -12.5 L-29.15 -17.45 Q-29.15 -20.0 -27.75 -24.75 -26.45 -29.2 -24.65 -31.65" fill="#ffffff" fill-rule="evenodd" stroke="none"/>
  </g>
</svg>
