<?xml version="1.0" encoding="UTF-8" standalone="no"?>
<svg xmlns:ffdec="https://www.free-decompiler.com/flash" xmlns:xlink="http://www.w3.org/1999/xlink" ffdec:objectType="shape" height="71.1px" width="79.75px" xmlns="http://www.w3.org/2000/svg">
  <g transform="matrix(1.0, 0.0, 0.0, 1.0, 53.0, 57.0)">
    <path d="M-29.85 -42.05 L-29.85 -43.85 Q-23.0 -46.45 -15.05 -46.45 2.2 -46.45 14.5 -34.2 26.7 -21.95 26.7 -4.65 26.7 5.6 22.4 14.1 L20.85 13.05 20.75 12.85 Q24.7 4.7 24.7 -4.65 24.7 -18.25 15.85 -29.8 4.7 -44.45 -15.05 -44.45 -20.85 -44.45 -26.65 -43.0 L-29.85 -42.05" fill="#8e7c71" fill-opacity="0.69411767" fill-rule="evenodd" stroke="none"/>
    <path d="M9.5 4.0 Q8.8 3.95 8.75 3.15 L8.7 1.45 9.95 -3.85 9.95 -2.7 Q9.95 1.15 9.5 4.0" fill="#b9a99b" fill-opacity="0.29803923" fill-rule="evenodd" stroke="none"/>
    <path d="M9.95 -3.85 L10.5 -6.3 11.4 -10.9 10.5 -14.0 10.05 -14.95 10.0 -15.0 9.3 -16.8 6.9 -18.8 5.3 -20.0 Q-2.35 -25.9 -9.5 -26.7 -16.65 -27.5 -21.45 -27.0 L-29.85 -26.45 -29.85 -40.2 -29.0 -40.4 -19.75 -41.4 Q-9.1 -41.4 1.45 -35.05 18.55 -24.95 18.55 -3.2 18.55 2.4 17.35 6.55 L14.95 5.85 12.15 5.15 Q11.15 5.0 9.5 4.0 9.95 1.15 9.95 -2.7 L9.95 -3.85" fill="url(#gradient0)" fill-rule="evenodd" stroke="none"/>
    <path d="M-29.85 -40.2 L-29.85 -42.05 -26.65 -43.0 Q-20.85 -44.45 -15.05 -44.45 4.7 -44.45 15.85 -29.8 24.7 -18.25 24.7 -4.65 24.7 4.7 20.75 12.85 20.15 8.3 17.35 6.55 18.55 2.4 18.55 -3.2 18.55 -24.95 1.45 -35.05 -9.1 -41.4 -19.75 -41.4 L-29.0 -40.4 -29.85 -40.2" fill="url(#gradient1)" fill-rule="evenodd" stroke="none"/>
    <path d="M23.65 -50.3 L24.1 -50.45 24.55 -50.8 Q13.1 -52.7 3.2 -54.7 L-17.45 -55.35 Q-31.1 -54.9 -40.2 -53.2 -49.35 -51.5 -51.4 -49.4 L-50.6 -48.9 Q-51.0 -49.1 -51.2 -48.2 L-51.05 -47.3 -51.55 -47.6 Q-50.2 -44.45 -49.5 -41.45 L-47.05 -31.2 -46.0 -28.8 -47.25 -29.0 Q-48.1 -29.35 -48.6 -30.65 -49.4 -32.7 -52.7 -48.1 L-52.9 -48.5 -53.0 -49.25 Q-51.1 -51.45 -49.6 -51.95 L-40.55 -54.6 Q-32.95 -56.7 -15.0 -57.0 L7.55 -55.8 17.95 -54.0 Q26.2 -52.3 26.2 -50.95 L25.55 -28.35 Q25.55 -20.6 26.15 -14.7 L26.75 -9.4 26.6 -7.65 26.4 -6.65 24.55 -9.65 Q24.7 -14.5 24.45 -27.25 L24.7 -49.15 Q24.7 -49.75 23.65 -50.3" fill="#97877d" fill-rule="evenodd" stroke="none"/>
    <path d="M-48.9 -48.2 L-33.85 -52.3 -25.75 -53.65 -14.5 -54.0 -1.15 -52.8 18.35 -49.5 11.1 -48.65 -6.3 -47.2 -10.0 -47.1 -29.15 -46.35 -33.3 -46.3 -42.6 -46.65 -48.9 -48.2 M11.3 -47.25 L12.25 -41.8 Q13.0 -36.85 13.0 -34.0 L12.75 -28.8 Q12.7 -28.5 11.7 -28.5 4.4 -31.3 3.75 -31.3 -2.1 -31.55 -5.05 -32.35 L-5.9 -32.9 -6.7 -33.8 Q-6.9 -34.7 -7.1 -45.65 L-6.55 -45.65 11.3 -47.25 M-29.25 -44.85 L-10.5 -45.45 -9.8 -36.35 Q-9.8 -29.25 -25.4 -29.25 -27.8 -29.25 -28.85 -34.2 -29.5 -37.3 -29.5 -41.2 L-29.45 -44.85 -29.25 -44.85 M-33.3 -44.75 L-32.65 -30.9 Q-32.65 -30.25 -33.0 -30.15 L-33.35 -30.15 Q-39.45 -33.15 -40.65 -35.2 -41.55 -36.7 -42.95 -45.1 L-42.55 -45.05 -33.55 -44.75 -33.3 -44.75 M-47.15 -45.85 Q-46.35 -44.8 -46.5 -44.15 L-47.05 -44.25 Q-47.65 -44.35 -47.75 -44.55 L-47.35 -45.9 -47.15 -45.85 M18.5 -44.65 Q18.75 -44.55 18.8 -42.05 L17.75 -41.7 Q17.5 -42.25 17.9 -43.4 L18.5 -44.65 M14.3 -40.4 Q16.7 -38.75 16.7 -38.0 16.2 -36.8 16.25 -35.2 L15.8 -34.5 Q14.85 -35.1 14.05 -36.4 L14.05 -40.4 14.3 -40.4 M1.1 -38.3 L1.1 -37.25 2.25 -35.35 Q3.2 -33.9 3.5 -33.9 L5.35 -34.2 Q5.35 -35.55 4.0 -36.85 2.65 -38.15 1.1 -38.3 M7.05 -44.75 Q6.5 -44.75 6.15 -44.35 5.75 -43.95 5.75 -43.4 5.75 -42.85 6.15 -42.45 6.5 -42.05 7.05 -42.05 7.6 -42.05 8.0 -42.45 8.35 -42.85 8.35 -43.4 8.35 -43.95 8.0 -44.35 7.6 -44.75 7.05 -44.75 M17.9 -29.35 Q17.65 -29.05 17.3 -29.05 16.95 -29.05 16.75 -29.35 16.5 -29.65 16.5 -30.05 L16.75 -30.75 Q16.95 -31.05 17.3 -31.05 L17.9 -30.75 18.1 -30.05 17.9 -29.35 M-16.95 -50.1 Q-16.95 -50.5 -17.25 -50.8 -17.55 -51.1 -17.95 -51.1 L-18.65 -50.8 -18.95 -50.1 -18.65 -49.4 Q-18.35 -49.1 -17.95 -49.1 -17.55 -49.1 -17.25 -49.4 -16.95 -49.7 -16.95 -50.1 M-0.75 -50.05 L-0.25 -49.55 0.4 -51.0 -0.3 -51.25 -0.75 -50.05 M-33.9 -49.85 L-35.15 -49.95 -35.6 -48.55 -33.85 -48.0 -32.6 -49.0 Q-32.65 -49.6 -33.9 -49.85 M-43.0 -38.25 Q-43.0 -36.75 -44.5 -36.0 -45.5 -37.1 -45.75 -39.0 -45.9 -40.7 -45.5 -41.4 -43.0 -39.25 -43.0 -38.25 M-25.95 -48.85 L-26.2 -49.35 -26.85 -49.55 -27.45 -49.35 -27.75 -48.85 -27.45 -48.35 -26.85 -48.15 -26.2 -48.35 Q-25.95 -48.55 -25.95 -48.85 M-20.15 -34.55 L-20.25 -35.5 -20.7 -36.15 Q-21.75 -35.8 -22.35 -34.15 -22.9 -32.55 -22.4 -32.05 L-20.35 -32.2 -20.15 -34.55 M-16.2 -41.0 L-16.35 -40.35 -14.7 -40.2 -14.25 -40.5 -15.85 -41.9 -16.2 -41.0 M-2.3 -41.7 L-2.1 -40.85 -1.65 -40.55 -1.2 -40.85 -1.0 -41.7 -1.2 -42.5 -1.65 -42.85 -2.1 -42.5 -2.3 -41.7 M-34.55 -37.15 Q-34.85 -37.55 -35.25 -37.55 -35.65 -37.55 -35.95 -37.15 L-36.25 -36.15 -35.95 -35.15 Q-35.65 -34.75 -35.25 -34.75 L-34.55 -35.15 Q-34.25 -35.55 -34.25 -36.15 -34.25 -36.75 -34.55 -37.15 M-36.1 -42.25 Q-36.95 -42.15 -37.75 -41.0 L-37.0 -40.8 Q-36.4 -40.8 -35.5 -41.25 L-36.1 -42.25" fill="#ffffff" fill-rule="evenodd" stroke="none"/>
    <path d="M-50.6 -48.9 L-51.4 -49.4 Q-49.35 -51.5 -40.2 -53.2 -31.1 -54.9 -17.45 -55.35 L3.2 -54.7 Q13.1 -52.7 24.55 -50.8 L24.1 -50.45 23.65 -50.3 18.35 -49.5 -1.15 -52.8 -14.5 -54.0 -25.75 -53.65 -33.85 -52.3 -48.9 -48.2 -50.6 -48.9 M-47.05 -31.2 L-49.5 -41.45 Q-50.2 -44.45 -51.55 -47.6 L-51.05 -47.3 -47.35 -45.9 -47.75 -44.55 Q-47.65 -44.35 -47.05 -44.25 L-46.5 -44.15 Q-46.35 -44.8 -47.15 -45.85 L-42.95 -45.1 Q-41.55 -36.7 -40.65 -35.2 -39.45 -33.15 -33.35 -30.15 L-33.0 -30.15 Q-32.65 -30.25 -32.65 -30.9 L-33.3 -44.75 -29.45 -44.85 -29.5 -41.2 Q-29.5 -37.3 -28.85 -34.2 -27.8 -29.25 -25.4 -29.25 -9.8 -29.25 -9.8 -36.35 L-10.5 -45.45 -29.25 -44.85 -29.15 -46.35 -10.0 -47.1 -10.05 -45.5 -7.1 -45.65 Q-6.9 -34.7 -6.7 -33.8 L-5.9 -32.9 -5.05 -32.35 Q-2.1 -31.55 3.75 -31.3 4.4 -31.3 11.7 -28.5 12.7 -28.5 12.75 -28.8 L13.0 -34.0 Q13.0 -36.85 12.25 -41.8 L11.3 -47.25 19.55 -48.0 21.2 -46.35 Q22.2 -45.1 22.2 -41.55 L21.65 -34.45 20.9 -27.95 Q20.55 -27.6 19.95 -25.15 L15.2 -22.75 14.9 -21.8 Q8.6 -25.0 1.15 -26.85 -7.6 -29.0 -12.85 -27.75 L-16.4 -28.1 -18.7 -28.4 -28.4 -27.05 Q-29.1 -27.05 -34.45 -29.0 L-40.25 -30.95 -43.75 -30.55 Q-45.3 -30.35 -47.05 -31.2 M18.5 -44.65 L17.9 -43.4 Q17.5 -42.25 17.75 -41.7 L18.8 -42.05 Q18.75 -44.55 18.5 -44.65 M11.1 -48.65 L11.3 -47.25 -6.55 -45.65 -6.95 -47.15 -6.3 -47.2 11.1 -48.65 M14.3 -40.4 L14.05 -40.4 14.05 -36.4 Q14.85 -35.1 15.8 -34.5 L16.25 -35.2 Q16.2 -36.8 16.7 -38.0 16.7 -38.75 14.3 -40.4 M7.05 -44.75 Q7.6 -44.75 8.0 -44.35 8.35 -43.95 8.35 -43.4 8.35 -42.85 8.0 -42.45 7.6 -42.05 7.05 -42.05 6.5 -42.05 6.15 -42.45 5.75 -42.85 5.75 -43.4 5.75 -43.95 6.15 -44.35 6.5 -44.75 7.05 -44.75 M1.1 -38.3 Q2.65 -38.15 4.0 -36.85 5.35 -35.55 5.35 -34.2 L3.5 -33.9 Q3.2 -33.9 2.25 -35.35 L1.1 -37.25 1.1 -38.3 M17.9 -29.35 L18.1 -30.05 17.9 -30.75 17.3 -31.05 Q16.95 -31.05 16.75 -30.75 L16.5 -30.05 Q16.5 -29.65 16.75 -29.35 16.95 -29.05 17.3 -29.05 17.65 -29.05 17.9 -29.35 M-33.9 -49.85 Q-32.65 -49.6 -32.6 -49.0 L-33.85 -48.0 -35.6 -48.55 -35.15 -49.95 -33.9 -49.85 M-0.75 -50.05 L-0.3 -51.25 0.4 -51.0 -0.25 -49.55 -0.75 -50.05 M-16.95 -50.1 Q-16.95 -49.7 -17.25 -49.4 -17.55 -49.1 -17.95 -49.1 -18.35 -49.1 -18.65 -49.4 L-18.95 -50.1 -18.65 -50.8 -17.95 -51.1 Q-17.55 -51.1 -17.25 -50.8 -16.95 -50.5 -16.95 -50.1 M-42.55 -45.05 L-42.6 -46.65 -33.3 -46.3 -33.55 -44.75 -42.55 -45.05 M-43.0 -38.25 Q-43.0 -39.25 -45.5 -41.4 -45.9 -40.7 -45.75 -39.0 -45.5 -37.1 -44.5 -36.0 -43.0 -36.75 -43.0 -38.25 M-2.3 -41.7 L-2.1 -42.5 -1.65 -42.85 -1.2 -42.5 -1.0 -41.7 -1.2 -40.85 -1.65 -40.55 -2.1 -40.85 -2.3 -41.7 M-16.2 -41.0 L-15.85 -41.9 -14.25 -40.5 -14.7 -40.2 -16.35 -40.35 -16.2 -41.0 M-20.15 -34.55 L-20.35 -32.2 -22.4 -32.05 Q-22.9 -32.55 -22.35 -34.15 -21.75 -35.8 -20.7 -36.15 L-20.25 -35.5 -20.15 -34.55 M-25.95 -48.85 Q-25.95 -48.55 -26.2 -48.35 L-26.85 -48.15 -27.45 -48.35 -27.75 -48.85 -27.45 -49.35 -26.85 -49.55 -26.2 -49.35 -25.95 -48.85 M-36.1 -42.25 L-35.5 -41.25 Q-36.4 -40.8 -37.0 -40.8 L-37.75 -41.0 Q-36.95 -42.15 -36.1 -42.25 M-34.55 -37.15 Q-34.25 -36.75 -34.25 -36.15 -34.25 -35.55 -34.55 -35.15 L-35.25 -34.75 Q-35.65 -34.75 -35.95 -35.15 L-36.25 -36.15 -35.95 -37.15 Q-35.65 -37.55 -35.25 -37.55 -34.85 -37.55 -34.55 -37.15" fill="#ebe8e0" fill-rule="evenodd" stroke="none"/>
    <path d="M23.65 -50.3 Q24.7 -49.75 24.7 -49.15 L24.45 -27.25 Q24.7 -14.5 24.55 -9.65 L24.5 -8.7 Q24.2 -10.3 22.15 -13.65 19.15 -18.6 14.9 -21.8 L15.2 -22.75 19.95 -25.15 Q20.55 -27.6 20.9 -27.95 L21.65 -34.45 22.2 -41.55 Q22.2 -45.1 21.2 -46.35 L19.55 -48.0 11.3 -47.25 11.1 -48.65 18.35 -49.5 23.65 -50.3 M-46.0 -28.8 L-47.05 -31.2 Q-45.3 -30.35 -43.75 -30.55 L-40.25 -30.95 -34.45 -29.0 Q-29.1 -27.05 -28.4 -27.05 L-18.7 -28.4 -16.4 -28.1 -12.85 -27.75 Q-22.4 -25.6 -27.0 -25.6 L-30.55 -26.25 Q-33.25 -27.0 -35.95 -28.3 L-46.0 -28.8 M-51.05 -47.3 L-51.2 -48.2 Q-51.0 -49.1 -50.6 -48.9 L-48.9 -48.2 -42.6 -46.65 -42.55 -45.05 -42.95 -45.1 -47.15 -45.85 -47.35 -45.9 -51.05 -47.3 M-7.1 -45.65 L-10.05 -45.5 -10.0 -47.1 -6.3 -47.2 -6.95 -47.15 -6.55 -45.65 -7.1 -45.65 M-29.15 -46.35 L-29.25 -44.85 -29.45 -44.85 -33.3 -44.75 -33.55 -44.75 -33.3 -46.3 -29.15 -46.35" fill="#cbc8c0" fill-rule="evenodd" stroke="none"/>
  </g>
  <defs>
    <linearGradient gradientTransform="matrix(0.0, -0.0122, 0.0293, 0.0, 8.3, -12.75)" gradientUnits="userSpaceOnUse" id="gradient0" spreadMethod="pad" x1="-819.2" x2="819.2">
      <stop offset="0.0" stop-color="#b9a99b" stop-opacity="0.4"/>
      <stop offset="1.0" stop-color="#ebe8e0"/>
    </linearGradient>
    <linearGradient gradientTransform="matrix(0.0029, -0.008, 0.0328, 0.0121, 50.9, 6.95)" gradientUnits="userSpaceOnUse" id="gradient1" spreadMethod="pad" x1="-819.2" x2="819.2">
      <stop offset="0.0" stop-color="#8e7c71" stop-opacity="0.4"/>
      <stop offset="1.0" stop-color="#cbc8c0"/>
    </linearGradient>
  </defs>
</svg>
