<?xml version="1.0" encoding="UTF-8" standalone="no"?>
<svg xmlns:ffdec="https://www.free-decompiler.com/flash" xmlns:xlink="http://www.w3.org/1999/xlink" ffdec:objectType="shape" height="250.0px" width="100.0px" xmlns="http://www.w3.org/2000/svg">
  <g transform="matrix(1.0, 0.0, 0.0, 1.0, 0.0, 0.0)">
    <path d="M87.35 250.0 L87.35 39.15 79.8 39.15 Q78.55 29.25 71.2 21.9 62.45 13.1 50.0 13.1 37.55 13.1 28.8 21.9 21.45 29.25 20.25 39.15 L12.65 39.15 12.65 250.0 0.0 250.0 0.0 0.0 100.0 0.0 100.0 250.0 87.35 250.0" fill="#ffde48" fill-rule="evenodd" stroke="none"/>
    <path d="M12.65 250.0 L12.65 39.15 20.25 39.15 Q21.45 29.25 28.8 21.9 37.55 13.1 50.0 13.1 62.45 13.1 71.2 21.9 78.55 29.25 79.8 39.15 L87.35 39.15 87.35 250.0 12.65 250.0" fill="#c62520" fill-rule="evenodd" stroke="none"/>
  </g>
</svg>
