<?xml version="1.0" encoding="UTF-8" standalone="no"?>
<svg xmlns:ffdec="https://www.free-decompiler.com/flash" xmlns:xlink="http://www.w3.org/1999/xlink" ffdec:objectType="shape" height="247.0px" width="100.0px" xmlns="http://www.w3.org/2000/svg">
  <g transform="matrix(1.0, 0.0, 0.0, 1.0, 0.0, 0.0)">
    <path d="M100.0 35.85 Q86.0 21.6 83.05 6.75 75.25 15.05 63.1 22.25 58.0 12.05 57.15 2.4 53.35 9.0 47.35 15.45 41.6 9.95 37.55 4.2 33.6 11.6 26.85 18.9 20.9 13.2 16.8 7.35 13.75 21.95 0.0 35.95 L0.0 0.05 12.45 0.05 12.4 0.0 100.0 0.0 100.0 35.85 M0.0 195.15 Q14.0 215.75 16.95 237.3 24.75 225.25 36.9 214.8 42.0 229.55 42.85 243.5 46.65 234.0 52.65 224.65 58.4 232.65 62.45 240.9 66.4 230.2 73.15 219.7 79.1 227.9 83.2 236.35 86.25 215.25 100.0 195.05 L100.0 246.9 87.55 246.9 87.6 247.0 0.0 247.0 0.0 195.15" fill="#228229" fill-rule="evenodd" stroke="none"/>
    <path d="M0.0 35.95 Q13.75 21.95 16.8 7.35 20.9 13.2 26.85 18.9 33.6 11.6 37.55 4.2 41.6 9.95 47.35 15.45 53.35 9.0 57.15 2.4 58.0 12.05 63.1 22.25 75.25 15.05 83.05 6.75 86.0 21.6 100.0 35.85 L100.0 195.05 Q86.25 215.25 83.2 236.35 79.1 227.9 73.15 219.7 66.4 230.2 62.45 240.9 58.4 232.65 52.65 224.65 46.65 234.0 42.85 243.5 42.0 229.55 36.9 214.8 24.75 225.25 16.95 237.3 14.0 215.75 0.0 195.15 L0.0 35.95 M12.4 0.0 L12.45 0.05 0.0 0.05 0.0 0.0 12.4 0.0 M100.0 246.9 L100.0 247.0 87.6 247.0 87.55 246.9 100.0 246.9" fill="#26932f" fill-rule="evenodd" stroke="none"/>
  </g>
</svg>
