<?xml version="1.0" encoding="UTF-8" standalone="no"?>
<svg xmlns:ffdec="https://www.free-decompiler.com/flash" xmlns:xlink="http://www.w3.org/1999/xlink" ffdec:objectType="shape" height="247.0px" width="100.0px" xmlns="http://www.w3.org/2000/svg">
  <g transform="matrix(1.0, 0.0, 0.0, 1.0, 0.0, 0.0)">
    <path d="M89.3 247.0 L87.3 247.0 87.3 0.0 89.3 0.0 89.3 247.0 M74.75 247.0 L72.75 247.0 72.75 0.0 74.75 0.0 74.75 247.0 M60.2 247.0 L58.2 247.0 58.2 0.0 60.2 0.0 60.2 247.0 M45.65 247.0 L43.65 247.0 43.65 0.0 45.65 0.0 45.65 247.0 M31.1 247.0 L29.1 247.0 29.1 0.0 31.1 0.0 31.1 247.0 M16.55 247.0 L14.55 247.0 14.55 0.0 16.55 0.0 16.55 247.0 M2.0 247.0 L0.0 247.0 0.0 0.0 2.0 0.0 2.0 247.0" fill="#444444" fill-rule="evenodd" stroke="none"/>
    <path d="M89.3 0.0 L100.0 0.0 100.0 247.0 89.3 247.0 89.3 0.0 M87.3 247.0 L74.75 247.0 74.75 0.0 87.3 0.0 87.3 247.0 M72.75 247.0 L60.2 247.0 60.2 0.0 72.75 0.0 72.75 247.0 M58.2 247.0 L45.65 247.0 45.65 0.0 58.2 0.0 58.2 247.0 M43.65 247.0 L31.1 247.0 31.1 0.0 43.65 0.0 43.65 247.0 M29.1 247.0 L16.55 247.0 16.55 0.0 29.1 0.0 29.1 247.0 M14.55 247.0 L2.0 247.0 2.0 0.0 14.55 0.0 14.55 247.0" fill="#333333" fill-rule="evenodd" stroke="none"/>
  </g>
</svg>
