<?xml version="1.0" encoding="UTF-8" standalone="no"?>
<svg xmlns:ffdec="https://www.free-decompiler.com/flash" xmlns:xlink="http://www.w3.org/1999/xlink" ffdec:objectType="shape" height="247.0px" width="100.0px" xmlns="http://www.w3.org/2000/svg">
  <g transform="matrix(1.0, 0.0, 0.0, 1.0, 0.0, 0.0)">
    <path d="M100.0 21.2 L100.0 34.2 0.0 34.2 0.0 21.2 100.0 21.2 M100.0 41.2 L100.0 49.2 0.0 49.2 0.0 41.2 100.0 41.2 M100.0 56.2 L100.0 74.2 0.0 74.2 0.0 56.2 100.0 56.2 M100.0 81.2 L100.0 94.2 0.0 94.2 0.0 81.2 100.0 81.2 M100.0 101.2 L100.0 109.2 0.0 109.2 0.0 101.2 100.0 101.2 M100.0 116.2 L100.0 126.2 0.0 126.2 0.0 116.2 100.0 116.2 M100.0 133.2 L100.0 146.2 0.0 146.2 0.0 133.2 100.0 133.2 M100.0 153.2 L100.0 166.2 0.0 166.2 0.0 153.2 100.0 153.2 M100.0 173.2 L100.0 186.2 0.0 186.2 0.0 173.2 100.0 173.2 M100.0 193.2 L100.0 201.2 0.0 201.2 0.0 193.2 100.0 193.2 M100.0 208.2 L100.0 218.7 0.0 218.7 0.0 208.2 100.0 208.2 M100.0 225.7 L100.0 233.7 0.0 233.7 0.0 225.7 100.0 225.7 M100.0 240.7 L100.0 247.0 0.0 247.0 0.0 240.7 100.0 240.7 M0.0 14.2 L0.0 0.0 100.0 0.0 100.0 14.2 0.0 14.2" fill="#f4ba33" fill-rule="evenodd" stroke="none"/>
    <path d="M100.0 16.2 L100.0 21.2 0.0 21.2 0.0 16.2 100.0 16.2 M100.0 36.2 L100.0 41.2 0.0 41.2 0.0 36.2 100.0 36.2 M100.0 51.2 L100.0 56.2 0.0 56.2 0.0 51.2 100.0 51.2 M100.0 76.2 L100.0 81.2 0.0 81.2 0.0 76.2 100.0 76.2 M100.0 96.2 L100.0 101.2 0.0 101.2 0.0 96.2 100.0 96.2 M100.0 111.2 L100.0 116.2 0.0 116.2 0.0 111.2 100.0 111.2 M100.0 128.2 L100.0 133.2 0.0 133.2 0.0 128.2 100.0 128.2 M100.0 148.2 L100.0 153.2 0.0 153.2 0.0 148.2 100.0 148.2 M100.0 168.2 L100.0 173.2 0.0 173.2 0.0 168.2 100.0 168.2 M100.0 188.2 L100.0 193.2 0.0 193.2 0.0 188.2 100.0 188.2 M100.0 203.2 L100.0 208.2 0.0 208.2 0.0 203.2 100.0 203.2 M100.0 220.7 L100.0 225.7 0.0 225.7 0.0 220.7 100.0 220.7 M100.0 235.7 L100.0 240.7 0.0 240.7 0.0 235.7 100.0 235.7" fill="#f2af13" fill-rule="evenodd" stroke="none"/>
    <path d="M100.0 34.2 L100.0 36.2 0.0 36.2 0.0 34.2 100.0 34.2 M100.0 49.2 L100.0 51.2 0.0 51.2 0.0 49.2 100.0 49.2 M100.0 74.2 L100.0 76.2 0.0 76.2 0.0 74.2 100.0 74.2 M100.0 94.2 L100.0 96.2 0.0 96.2 0.0 94.2 100.0 94.2 M100.0 109.2 L100.0 111.2 0.0 111.2 0.0 109.2 100.0 109.2 M100.0 126.2 L100.0 128.2 0.0 128.2 0.0 126.2 100.0 126.2 M100.0 146.2 L100.0 148.2 0.0 148.2 0.0 146.2 100.0 146.2 M100.0 166.2 L100.0 168.2 0.0 168.2 0.0 166.2 100.0 166.2 M100.0 186.2 L100.0 188.2 0.0 188.2 0.0 186.2 100.0 186.2 M100.0 201.2 L100.0 203.2 0.0 203.2 0.0 201.2 100.0 201.2 M100.0 218.7 L100.0 220.7 0.0 220.7 0.0 218.7 100.0 218.7 M100.0 233.7 L100.0 235.7 0.0 235.7 0.0 233.7 100.0 233.7 M0.0 16.2 L0.0 14.2 100.0 14.2 100.0 16.2 0.0 16.2" fill="#a27409" fill-rule="evenodd" stroke="none"/>
  </g>
</svg>
