<?xml version="1.0" encoding="UTF-8" standalone="no"?>
<svg xmlns:ffdec="https://www.free-decompiler.com/flash" xmlns:xlink="http://www.w3.org/1999/xlink" ffdec:objectType="shape" height="247.0px" width="100.0px" xmlns="http://www.w3.org/2000/svg">
  <g transform="matrix(1.0, 0.0, 0.0, 1.0, 0.0, 0.0)">
    <path d="M97.55 0.05 L97.7 0.05 83.45 15.3 69.2 0.05 69.35 0.05 97.55 0.05 M64.25 0.05 L64.4 0.05 50.2 15.3 40.0 4.4 36.05 0.05 64.25 0.05 M31.0 0.05 L16.8 15.25 6.7 4.35 2.75 0.05 31.0 0.05 M0.0 2.4 L0.1 2.3 14.5 17.75 0.1 33.15 0.0 33.05 0.0 2.4 M0.0 37.8 L0.1 37.7 14.5 53.15 0.3 68.35 0.15 68.2 0.0 68.35 0.0 37.8 M0.0 73.15 L0.1 73.05 14.5 88.5 0.45 103.55 0.15 103.2 0.0 103.35 0.0 73.15 M0.0 108.2 L0.1 108.1 14.5 123.5 0.1 138.95 0.0 138.8 0.0 108.2 M0.0 143.6 L0.1 143.5 14.5 158.9 0.3 174.1 0.15 173.95 0.0 174.1 0.0 143.6 M0.0 178.95 L0.1 178.85 14.5 194.25 0.45 209.3 0.15 209.0 0.0 209.15 0.0 178.95 M0.0 213.95 L0.1 213.85 14.5 229.3 0.1 244.7 0.0 244.6 0.0 213.95 M2.6 247.0 L2.55 246.95 16.75 231.7 31.05 247.0 2.6 247.0 M35.9 247.0 L35.85 246.95 50.05 231.75 64.35 247.0 35.9 247.0 M69.2 247.0 L83.4 231.75 97.65 247.0 69.2 247.0 M100.0 244.55 L99.95 244.65 85.65 229.35 100.0 213.95 100.0 244.55 M100.0 209.15 L99.75 209.4 85.65 194.3 100.0 178.95 100.0 209.15 M100.0 174.1 L99.9 174.2 85.65 158.95 100.0 143.6 100.0 174.1 M100.0 138.75 L99.95 138.85 85.65 123.55 100.0 108.2 100.0 138.75 M100.0 103.35 L99.75 103.65 85.65 88.55 100.0 73.15 100.0 103.35 M100.0 68.35 L99.9 68.45 85.65 53.2 100.0 37.8 100.0 68.35 M100.0 33.0 L99.95 33.1 85.65 17.8 100.0 2.4 100.0 33.0 M83.4 20.2 L97.7 35.5 83.45 50.7 69.2 35.45 83.4 20.2 M97.65 70.85 L83.45 86.05 69.2 70.8 83.4 55.6 97.65 70.85 M50.05 20.2 L64.4 35.5 50.2 50.7 35.85 35.4 50.05 20.2 M66.95 33.05 L66.8 32.9 66.65 33.1 52.3 17.8 66.75 2.35 81.15 17.8 66.95 33.05 M33.45 32.85 L33.3 33.05 19.0 17.75 33.4 2.3 47.8 17.75 33.6 33.0 33.45 32.85 M16.75 20.15 L31.05 35.45 16.8 50.65 2.55 35.4 16.75 20.15 M33.45 68.2 L33.25 68.4 19.0 53.15 33.4 37.7 47.8 53.15 33.6 68.35 33.45 68.2 M2.55 70.75 L16.75 55.55 31.0 70.8 16.8 86.0 2.55 70.75 M33.4 73.05 L47.8 88.5 33.75 103.55 33.45 103.2 33.1 103.6 19.0 88.5 33.4 73.05 M66.75 73.1 L81.15 88.55 67.1 103.6 66.8 103.25 66.45 103.65 52.3 88.55 66.75 73.1 M64.35 70.85 L50.2 86.05 35.85 70.75 50.05 55.6 64.35 70.85 M66.8 68.25 L66.6 68.45 52.3 53.2 66.75 37.75 81.15 53.2 66.95 68.4 66.8 68.25 M66.65 138.85 L52.3 123.55 66.75 108.15 81.15 123.55 66.95 138.8 66.8 138.65 66.65 138.85 M50.2 121.1 L36.0 105.95 50.05 90.95 64.2 106.05 50.2 121.1 M50.05 125.95 L64.4 141.3 50.2 156.5 35.85 141.2 50.05 125.95 M2.7 105.95 L16.75 90.9 30.85 106.0 16.8 121.05 2.7 105.95 M33.45 138.6 L33.3 138.8 19.0 123.5 33.4 108.1 47.8 123.5 33.6 138.75 33.45 138.6 M2.55 141.2 L16.75 125.9 31.05 141.25 16.8 156.45 2.55 141.2 M16.8 191.8 L2.55 176.5 16.75 161.3 31.0 176.6 16.8 191.8 M33.45 173.95 L33.25 174.15 19.0 158.9 33.4 143.5 47.8 158.9 33.6 174.1 33.45 173.95 M33.4 178.85 L47.8 194.25 33.75 209.3 33.45 209.0 33.1 209.35 19.0 194.25 33.4 178.85 M66.75 178.9 L81.15 194.3 67.1 209.35 66.8 209.05 66.45 209.4 52.3 194.3 66.75 178.9 M64.35 176.65 L50.2 191.85 35.85 176.5 50.05 161.35 64.35 176.65 M52.3 158.95 L66.75 143.55 81.15 158.95 66.95 174.15 66.8 174.0 66.6 174.2 52.3 158.95 M83.45 121.1 L69.35 106.0 83.4 90.95 97.5 106.05 83.45 121.1 M83.4 125.95 L97.7 141.3 83.45 156.5 69.2 141.25 83.4 125.95 M83.45 191.85 L69.2 176.6 83.4 161.35 97.65 176.65 83.45 191.85 M83.45 226.85 L69.35 211.75 83.4 196.7 97.5 211.8 83.45 226.85 M66.65 244.65 L52.3 229.35 66.75 213.9 81.15 229.35 66.95 244.6 66.8 244.45 66.65 244.65 M50.2 226.85 L36.0 211.7 50.05 196.7 64.2 211.8 50.2 226.85 M33.6 244.55 L33.45 244.4 33.3 244.6 19.0 229.3 33.4 213.85 47.8 229.3 33.6 244.55 M2.7 211.7 L16.75 196.65 30.85 211.75 16.8 226.8 2.7 211.7" fill="#ffec2e" fill-rule="evenodd" stroke="none"/>
    <path d="M69.35 0.05 L69.2 0.05 83.45 15.3 97.7 0.05 97.55 0.05 97.65 0.0 100.0 0.0 100.0 2.4 85.65 17.8 99.95 33.1 100.0 33.0 100.0 37.8 85.65 53.2 99.9 68.45 100.0 68.35 100.0 73.15 85.65 88.55 99.75 103.65 100.0 103.35 100.0 108.2 85.65 123.55 99.95 138.85 100.0 138.75 100.0 143.6 85.65 158.95 99.9 174.2 100.0 174.1 100.0 178.95 85.65 194.3 99.75 209.4 100.0 209.15 100.0 213.95 85.65 229.35 99.95 244.65 100.0 244.55 100.0 247.0 97.65 247.0 83.4 231.75 69.2 247.0 64.35 247.0 50.05 231.75 35.85 246.95 35.9 247.0 31.05 247.0 16.75 231.7 2.55 246.95 2.6 247.0 0.0 247.0 0.0 244.6 0.1 244.7 14.5 229.3 0.1 213.85 0.0 213.95 0.0 209.15 0.15 209.0 0.45 209.3 14.5 194.25 0.1 178.85 0.0 178.95 0.0 174.1 0.15 173.95 0.3 174.1 14.5 158.9 0.1 143.5 0.0 143.6 0.0 138.8 0.1 138.95 14.5 123.5 0.1 108.1 0.0 108.2 0.0 103.35 0.15 103.2 0.45 103.55 14.5 88.5 0.1 73.05 0.0 73.15 0.0 68.35 0.15 68.2 0.3 68.35 14.5 53.15 0.1 37.7 0.0 37.8 0.0 33.05 0.1 33.15 14.5 17.75 0.1 2.3 0.0 2.4 0.0 0.0 2.7 0.0 2.75 0.05 2.6 0.05 6.7 4.35 16.8 15.25 31.0 0.05 30.95 0.0 36.0 0.0 36.05 0.05 35.9 0.05 40.0 4.4 50.2 15.3 64.4 0.05 64.25 0.05 64.35 0.0 69.3 0.0 69.35 0.05 M83.4 20.2 L69.2 35.45 83.45 50.7 97.7 35.5 83.4 20.2 M97.65 70.85 L83.4 55.6 69.2 70.8 83.45 86.05 97.65 70.85 M66.95 33.05 L81.15 17.8 66.75 2.35 52.3 17.8 66.65 33.1 66.8 32.9 66.95 33.05 M50.05 20.2 L35.85 35.4 50.2 50.7 64.4 35.5 50.05 20.2 M33.45 32.85 L33.6 33.0 47.8 17.75 33.4 2.3 19.0 17.75 33.3 33.05 33.45 32.85 M16.75 20.15 L2.55 35.4 16.8 50.65 31.05 35.45 16.75 20.15 M33.45 68.2 L33.6 68.35 47.8 53.15 33.4 37.7 19.0 53.15 33.25 68.4 33.45 68.2 M2.55 70.75 L16.8 86.0 31.0 70.8 16.75 55.55 2.55 70.75 M66.75 73.1 L52.3 88.55 66.45 103.65 66.8 103.25 67.1 103.6 81.15 88.55 66.75 73.1 M33.4 73.05 L19.0 88.5 33.1 103.6 33.45 103.2 33.75 103.55 47.8 88.5 33.4 73.05 M64.35 70.85 L50.05 55.6 35.85 70.75 50.2 86.05 64.35 70.85 M66.8 68.25 L66.95 68.4 81.15 53.2 66.75 37.75 52.3 53.2 66.6 68.45 66.8 68.25 M50.2 121.1 L64.2 106.05 50.05 90.95 36.0 105.95 50.2 121.1 M66.65 138.85 L66.8 138.65 66.95 138.8 81.15 123.55 66.75 108.15 52.3 123.55 66.65 138.85 M50.05 125.95 L35.85 141.2 50.2 156.5 64.4 141.3 50.05 125.95 M2.7 105.95 L16.8 121.05 30.85 106.0 16.75 90.9 2.7 105.95 M2.55 141.2 L16.8 156.45 31.05 141.25 16.75 125.9 2.55 141.2 M33.45 138.6 L33.6 138.75 47.8 123.5 33.4 108.1 19.0 123.5 33.3 138.8 33.45 138.6 M16.8 191.8 L31.0 176.6 16.75 161.3 2.55 176.5 16.8 191.8 M66.75 178.9 L52.3 194.3 66.45 209.4 66.8 209.05 67.1 209.35 81.15 194.3 66.75 178.9 M33.4 178.85 L19.0 194.25 33.1 209.35 33.45 209.0 33.75 209.3 47.8 194.25 33.4 178.85 M33.45 173.95 L33.6 174.1 47.8 158.9 33.4 143.5 19.0 158.9 33.25 174.15 33.45 173.95 M64.35 176.65 L50.05 161.35 35.85 176.5 50.2 191.85 64.35 176.65 M52.3 158.95 L66.6 174.2 66.8 174.0 66.95 174.15 81.15 158.95 66.75 143.55 52.3 158.95 M83.45 121.1 L97.5 106.05 83.4 90.95 69.35 106.0 83.45 121.1 M83.4 125.95 L69.2 141.25 83.45 156.5 97.7 141.3 83.4 125.95 M83.45 191.85 L97.65 176.65 83.4 161.35 69.2 176.6 83.45 191.85 M50.2 226.85 L64.2 211.8 50.05 196.7 36.0 211.7 50.2 226.85 M66.65 244.65 L66.8 244.45 66.95 244.6 81.15 229.35 66.75 213.9 52.3 229.35 66.65 244.65 M83.45 226.85 L97.5 211.8 83.4 196.7 69.35 211.75 83.45 226.85 M33.6 244.55 L47.8 229.3 33.4 213.85 19.0 229.3 33.3 244.6 33.45 244.4 33.6 244.55 M2.7 211.7 L16.8 226.8 30.85 211.75 16.75 196.65 2.7 211.7" fill="#fffb5b" fill-rule="evenodd" stroke="none"/>
  </g>
</svg>
