<?xml version="1.0" encoding="UTF-8" standalone="no"?>
<svg xmlns:ffdec="https://www.free-decompiler.com/flash" xmlns:xlink="http://www.w3.org/1999/xlink" ffdec:objectType="shape" height="247.0px" width="100.0px" xmlns="http://www.w3.org/2000/svg">
  <g transform="matrix(1.0, 0.0, 0.0, 1.0, 0.0, 0.0)">
    <path d="M100.0 2.2 L100.0 11.0 0.0 11.0 0.0 2.2 100.0 2.2 M100.0 142.2 L100.0 153.2 0.0 153.2 0.0 142.2 100.0 142.2 M100.0 164.2 L100.0 247.0 98.4 247.0 98.4 164.2 100.0 164.2 M95.4 247.0 L83.4 247.0 83.4 164.2 95.4 164.2 95.4 247.0 M80.4 247.0 L64.9 247.0 64.9 164.2 80.4 164.2 80.4 247.0 M61.9 247.0 L47.4 247.0 47.4 164.2 61.9 164.2 61.9 247.0 M44.4 247.0 L30.9 247.0 30.9 164.2 44.4 164.2 44.4 247.0 M27.9 247.0 L14.4 247.0 14.4 164.2 27.9 164.2 27.9 247.0 M11.4 247.0 L0.0 247.0 0.0 164.2 11.4 164.2 11.4 247.0" fill="#363636" fill-rule="evenodd" stroke="none"/>
    <path d="M100.0 2.2 L0.0 2.2 0.0 0.0 100.0 0.0 100.0 2.2 M0.0 11.0 L100.0 11.0 100.0 13.0 0.0 13.0 0.0 11.0 M100.0 153.2 L100.0 155.2 98.4 155.2 95.4 155.2 83.4 155.2 80.4 155.2 64.9 155.2 61.9 155.2 47.4 155.2 44.4 155.2 30.9 155.2 27.9 155.2 14.4 155.2 11.4 155.2 0.0 155.2 0.0 153.2 100.0 153.2" fill="#000000" fill-rule="evenodd" stroke="none"/>
    <path d="M98.4 247.0 L95.4 247.0 95.4 164.2 95.4 155.2 98.4 155.2 98.4 164.2 98.4 247.0 M83.4 247.0 L80.4 247.0 80.4 164.2 80.4 155.2 83.4 155.2 83.4 164.2 83.4 247.0 M64.9 247.0 L61.9 247.0 61.9 164.2 61.9 155.2 64.9 155.2 64.9 164.2 64.9 247.0 M47.4 247.0 L44.4 247.0 44.4 164.2 44.4 155.2 47.4 155.2 47.4 164.2 47.4 247.0 M30.9 247.0 L27.9 247.0 27.9 164.2 27.9 155.2 30.9 155.2 30.9 164.2 30.9 247.0 M14.4 247.0 L11.4 247.0 11.4 164.2 11.4 155.2 14.4 155.2 14.4 164.2 14.4 247.0" fill="#242424" fill-rule="evenodd" stroke="none"/>
    <path d="M100.0 155.2 L100.0 164.2 98.4 164.2 98.4 155.2 100.0 155.2 M0.0 164.2 L0.0 155.2 11.4 155.2 11.4 164.2 0.0 164.2 M27.9 155.2 L27.9 164.2 14.4 164.2 14.4 155.2 27.9 155.2 M30.9 164.2 L30.9 155.2 44.4 155.2 44.4 164.2 30.9 164.2 M64.9 155.2 L80.4 155.2 80.4 164.2 64.9 164.2 64.9 155.2 M83.4 155.2 L95.4 155.2 95.4 164.2 83.4 164.2 83.4 155.2 M61.9 155.2 L61.9 164.2 47.4 164.2 47.4 155.2 61.9 155.2" fill="#2d2d2d" fill-rule="evenodd" stroke="none"/>
    <path d="M100.0 13.0 L100.0 19.7 Q97.45 19.75 95.65 21.5 93.85 23.35 93.85 25.95 93.85 28.55 95.65 30.35 97.45 32.15 100.0 32.2 L100.0 63.7 Q97.45 63.75 95.65 65.5 93.85 67.35 93.85 69.95 93.85 72.55 95.65 74.35 97.45 76.15 100.0 76.2 L100.0 104.7 Q97.45 104.75 95.65 106.5 93.85 108.35 93.85 110.95 93.85 113.55 95.65 115.35 97.45 117.15 100.0 117.2 L100.0 142.2 0.0 142.2 0.0 117.2 0.1 117.2 Q2.7 117.2 4.5 115.35 6.35 113.55 6.35 110.95 6.35 108.35 4.5 106.5 2.7 104.7 0.1 104.7 L0.0 104.7 0.0 76.2 0.1 76.2 Q2.7 76.2 4.5 74.35 6.35 72.55 6.35 69.95 6.35 67.35 4.5 65.5 2.7 63.7 0.1 63.7 L0.0 63.7 0.0 32.2 0.1 32.2 Q2.7 32.2 4.5 30.35 6.35 28.55 6.35 25.95 6.35 23.35 4.5 21.5 2.7 19.7 0.1 19.7 L0.0 19.7 0.0 13.0 100.0 13.0 M11.4 131.45 Q11.4 134.05 13.2 135.85 15.05 137.7 17.65 137.7 20.25 137.7 22.05 135.85 23.9 134.05 23.9 131.45 23.9 128.85 22.05 127.0 20.25 125.2 17.65 125.2 15.05 125.2 13.2 127.0 11.4 128.85 11.4 131.45 M37.55 106.5 Q35.75 104.7 33.15 104.7 30.55 104.7 28.7 106.5 26.9 108.35 26.9 110.95 26.9 113.55 28.7 115.35 30.55 117.2 33.15 117.2 35.75 117.2 37.55 115.35 39.4 113.55 39.4 110.95 39.4 108.35 37.55 106.5 M79.0 127.0 Q77.2 128.85 77.2 131.45 77.2 134.05 79.0 135.85 80.85 137.7 83.45 137.7 86.05 137.7 87.85 135.85 89.7 134.05 89.7 131.45 89.7 128.85 87.85 127.0 86.05 125.2 83.45 125.2 80.85 125.2 79.0 127.0 M56.55 131.45 Q56.55 128.85 54.7 127.0 52.9 125.2 50.3 125.2 47.7 125.2 45.85 127.0 44.05 128.85 44.05 131.45 44.05 134.05 45.85 135.85 47.7 137.7 50.3 137.7 52.9 137.7 54.7 135.85 56.55 134.05 56.55 131.45 M60.9 110.95 Q60.9 113.55 62.7 115.35 64.55 117.2 67.15 117.2 69.75 117.2 71.55 115.35 73.4 113.55 73.4 110.95 73.4 108.35 71.55 106.5 69.75 104.7 67.15 104.7 64.55 104.7 62.7 106.5 60.9 108.35 60.9 110.95 M50.3 96.7 Q52.9 96.7 54.7 94.85 56.55 93.05 56.55 90.45 56.55 87.85 54.7 86.0 52.9 84.2 50.3 84.2 47.7 84.2 45.85 86.0 44.05 87.85 44.05 90.45 44.05 93.05 45.85 94.85 47.7 96.7 50.3 96.7 M62.7 65.5 Q60.9 67.35 60.9 69.95 60.9 72.55 62.7 74.35 64.55 76.2 67.15 76.2 69.75 76.2 71.55 74.35 73.4 72.55 73.4 69.95 73.4 67.35 71.55 65.5 69.75 63.7 67.15 63.7 64.55 63.7 62.7 65.5 M13.2 86.0 Q11.4 87.85 11.4 90.45 11.4 93.05 13.2 94.85 15.05 96.7 17.65 96.7 20.25 96.7 22.05 94.85 23.9 93.05 23.9 90.45 23.9 87.85 22.05 86.0 20.25 84.2 17.65 84.2 15.05 84.2 13.2 86.0 M37.55 65.5 Q35.75 63.7 33.15 63.7 30.55 63.7 28.7 65.5 26.9 67.35 26.9 69.95 26.9 72.55 28.7 74.35 30.55 76.2 33.15 76.2 35.75 76.2 37.55 74.35 39.4 72.55 39.4 69.95 39.4 67.35 37.55 65.5 M17.65 40.2 Q15.05 40.2 13.2 42.0 11.4 43.85 11.4 46.45 11.4 49.05 13.2 50.85 15.05 52.7 17.65 52.7 20.25 52.7 22.05 50.85 23.9 49.05 23.9 46.45 23.9 43.85 22.05 42.0 20.25 40.2 17.65 40.2 M37.55 21.5 Q35.75 19.7 33.15 19.7 30.55 19.7 28.7 21.5 26.9 23.35 26.9 25.95 26.9 28.55 28.7 30.35 30.55 32.2 33.15 32.2 35.75 32.2 37.55 30.35 39.4 28.55 39.4 25.95 39.4 23.35 37.55 21.5 M56.55 46.45 Q56.55 43.85 54.7 42.0 52.9 40.2 50.3 40.2 47.7 40.2 45.85 42.0 44.05 43.85 44.05 46.45 44.05 49.05 45.85 50.85 47.7 52.7 50.3 52.7 52.9 52.7 54.7 50.85 56.55 49.05 56.55 46.45 M71.55 21.5 Q69.75 19.7 67.15 19.7 64.55 19.7 62.7 21.5 60.9 23.35 60.9 25.95 60.9 28.55 62.7 30.35 64.55 32.2 67.15 32.2 69.75 32.2 71.55 30.35 73.4 28.55 73.4 25.95 73.4 23.35 71.55 21.5 M89.7 90.45 Q89.7 87.85 87.85 86.0 86.05 84.2 83.45 84.2 80.85 84.2 79.0 86.0 77.2 87.85 77.2 90.45 77.2 93.05 79.0 94.85 80.85 96.7 83.45 96.7 86.05 96.7 87.85 94.85 89.7 93.05 89.7 90.45 M87.85 42.0 Q86.05 40.2 83.45 40.2 80.85 40.2 79.0 42.0 77.2 43.85 77.2 46.45 77.2 49.05 79.0 50.85 80.85 52.7 83.45 52.7 86.05 52.7 87.85 50.85 89.7 49.05 89.7 46.45 89.7 43.85 87.85 42.0" fill="#fecdfb" fill-rule="evenodd" stroke="none"/>
    <path d="M100.0 19.7 L100.0 32.2 Q97.45 32.15 95.65 30.35 93.85 28.55 93.85 25.95 93.85 23.35 95.65 21.5 97.45 19.75 100.0 19.7 M100.0 63.7 L100.0 76.2 Q97.45 76.15 95.65 74.35 93.85 72.55 93.85 69.95 93.85 67.35 95.65 65.5 97.45 63.75 100.0 63.7 M100.0 104.7 L100.0 117.2 Q97.45 117.15 95.65 115.35 93.85 113.55 93.85 110.95 93.85 108.35 95.65 106.5 97.45 104.75 100.0 104.7 M0.0 117.2 L0.0 104.7 0.1 104.7 Q2.7 104.7 4.5 106.5 6.35 108.35 6.35 110.95 6.35 113.55 4.5 115.35 2.7 117.2 0.1 117.2 L0.0 117.2 M0.0 76.2 L0.0 63.7 0.1 63.7 Q2.7 63.7 4.5 65.5 6.35 67.35 6.35 69.95 6.35 72.55 4.5 74.35 2.7 76.2 0.1 76.2 L0.0 76.2 M0.0 32.2 L0.0 19.7 0.1 19.7 Q2.7 19.7 4.5 21.5 6.35 23.35 6.35 25.95 6.35 28.55 4.5 30.35 2.7 32.2 0.1 32.2 L0.0 32.2 M87.85 42.0 Q89.7 43.85 89.7 46.45 89.7 49.05 87.85 50.85 86.05 52.7 83.45 52.7 80.85 52.7 79.0 50.85 77.2 49.05 77.2 46.45 77.2 43.85 79.0 42.0 80.85 40.2 83.45 40.2 86.05 40.2 87.85 42.0 M89.7 90.45 Q89.7 93.05 87.85 94.85 86.05 96.7 83.45 96.7 80.85 96.7 79.0 94.85 77.2 93.05 77.2 90.45 77.2 87.85 79.0 86.0 80.85 84.2 83.45 84.2 86.05 84.2 87.85 86.0 89.7 87.85 89.7 90.45 M71.55 21.5 Q73.4 23.35 73.4 25.95 73.4 28.55 71.55 30.35 69.75 32.2 67.15 32.2 64.55 32.2 62.7 30.35 60.9 28.55 60.9 25.95 60.9 23.35 62.7 21.5 64.55 19.7 67.15 19.7 69.75 19.7 71.55 21.5 M56.55 46.45 Q56.55 49.05 54.7 50.85 52.9 52.7 50.3 52.7 47.7 52.7 45.85 50.85 44.05 49.05 44.05 46.45 44.05 43.85 45.85 42.0 47.7 40.2 50.3 40.2 52.9 40.2 54.7 42.0 56.55 43.85 56.55 46.45 M37.55 21.5 Q39.4 23.35 39.4 25.95 39.4 28.55 37.55 30.35 35.75 32.2 33.15 32.2 30.55 32.2 28.7 30.35 26.9 28.55 26.9 25.95 26.9 23.35 28.7 21.5 30.55 19.7 33.15 19.7 35.75 19.7 37.55 21.5 M17.65 40.2 Q20.25 40.2 22.05 42.0 23.9 43.85 23.9 46.45 23.9 49.05 22.05 50.85 20.25 52.7 17.65 52.7 15.05 52.7 13.2 50.85 11.4 49.05 11.4 46.45 11.4 43.85 13.2 42.0 15.05 40.2 17.65 40.2 M37.55 65.5 Q39.4 67.35 39.4 69.95 39.4 72.55 37.55 74.35 35.75 76.2 33.15 76.2 30.55 76.2 28.7 74.35 26.9 72.55 26.9 69.95 26.9 67.35 28.7 65.5 30.55 63.7 33.15 63.7 35.75 63.7 37.55 65.5 M13.2 86.0 Q15.05 84.2 17.65 84.2 20.25 84.2 22.05 86.0 23.9 87.85 23.9 90.45 23.9 93.05 22.05 94.85 20.25 96.7 17.65 96.7 15.05 96.7 13.2 94.85 11.4 93.05 11.4 90.45 11.4 87.85 13.2 86.0 M62.7 65.5 Q64.55 63.7 67.15 63.7 69.75 63.7 71.55 65.5 73.4 67.35 73.4 69.95 73.4 72.55 71.55 74.35 69.75 76.2 67.15 76.2 64.55 76.2 62.7 74.35 60.9 72.55 60.9 69.95 60.9 67.35 62.7 65.5 M50.3 96.7 Q47.7 96.7 45.85 94.85 44.05 93.05 44.05 90.45 44.05 87.85 45.85 86.0 47.7 84.2 50.3 84.2 52.9 84.2 54.7 86.0 56.55 87.85 56.55 90.45 56.55 93.05 54.7 94.85 52.9 96.7 50.3 96.7 M60.9 110.95 Q60.9 108.35 62.7 106.5 64.55 104.7 67.15 104.7 69.75 104.7 71.55 106.5 73.4 108.35 73.4 110.95 73.4 113.55 71.55 115.35 69.75 117.2 67.15 117.2 64.55 117.2 62.7 115.35 60.9 113.55 60.9 110.95 M56.55 131.45 Q56.55 134.05 54.7 135.85 52.9 137.7 50.3 137.7 47.7 137.7 45.85 135.85 44.05 134.05 44.05 131.45 44.05 128.85 45.85 127.0 47.7 125.2 50.3 125.2 52.9 125.2 54.7 127.0 56.55 128.85 56.55 131.45 M79.0 127.0 Q80.85 125.2 83.45 125.2 86.05 125.2 87.85 127.0 89.7 128.85 89.7 131.45 89.7 134.05 87.85 135.85 86.05 137.7 83.45 137.7 80.85 137.7 79.0 135.85 77.2 134.05 77.2 131.45 77.2 128.85 79.0 127.0 M37.55 106.5 Q39.4 108.35 39.4 110.95 39.4 113.55 37.55 115.35 35.75 117.2 33.15 117.2 30.55 117.2 28.7 115.35 26.9 113.55 26.9 110.95 26.9 108.35 28.7 106.5 30.55 104.7 33.15 104.7 35.75 104.7 37.55 106.5 M11.4 131.45 Q11.4 128.85 13.2 127.0 15.05 125.2 17.65 125.2 20.25 125.2 22.05 127.0 23.9 128.85 23.9 131.45 23.9 134.05 22.05 135.85 20.25 137.7 17.65 137.7 15.05 137.7 13.2 135.85 11.4 134.05 11.4 131.45" fill="#feb8fb" fill-rule="evenodd" stroke="none"/>
  </g>
</svg>
