<?xml version="1.0" encoding="UTF-8" standalone="no"?>
<svg xmlns:ffdec="https://www.free-decompiler.com/flash" xmlns:xlink="http://www.w3.org/1999/xlink" ffdec:objectType="shape" height="250.0px" width="100.0px" xmlns="http://www.w3.org/2000/svg">
  <g transform="matrix(1.0, 0.0, 0.0, 1.0, 0.0, 0.0)">
    <path d="M100.0 6.9 L100.0 13.0 74.9 13.0 74.9 6.9 100.0 6.9 M100.0 34.0 L100.0 40.0 74.9 40.0 74.9 34.0 100.0 34.0 M100.0 46.9 L100.0 98.0 74.9 98.0 74.9 46.9 100.0 46.9 M100.0 104.9 L100.0 111.0 74.9 111.0 74.9 104.9 100.0 104.9 M100.0 132.0 L100.0 138.0 74.9 138.0 74.9 132.0 100.0 132.0 M100.0 144.9 L100.0 198.0 74.9 198.0 74.9 144.9 100.0 144.9 M100.0 204.9 L100.0 211.0 74.9 211.0 74.9 204.9 100.0 204.9 M100.0 232.0 L100.0 238.0 74.9 238.0 74.9 232.0 100.0 232.0 M100.0 244.9 L100.0 250.0 74.9 250.0 74.9 244.9 100.0 244.9 M68.0 250.0 L62.0 250.0 62.0 244.9 68.0 244.9 68.0 250.0 M41.0 250.0 L34.9 250.0 34.9 244.9 41.0 244.9 41.0 250.0 M28.0 250.0 L0.0 250.0 0.0 244.9 28.0 244.9 28.0 250.0 M0.0 238.0 L0.0 232.0 28.0 232.0 28.0 238.0 0.0 238.0 M0.0 211.0 L0.0 204.9 28.0 204.9 28.0 211.0 0.0 211.0 M0.0 198.0 L0.0 144.9 28.0 144.9 28.0 198.0 0.0 198.0 M0.0 138.0 L0.0 132.0 28.0 132.0 28.0 138.0 0.0 138.0 M0.0 111.0 L0.0 104.9 28.0 104.9 28.0 111.0 0.0 111.0 M0.0 98.0 L0.0 46.9 28.0 46.9 28.0 98.0 0.0 98.0 M0.0 40.0 L0.0 34.0 28.0 34.0 28.0 40.0 0.0 40.0 M0.0 13.0 L0.0 6.9 28.0 6.9 28.0 13.0 0.0 13.0 M62.0 46.9 L68.0 46.9 68.0 98.0 62.0 98.0 62.0 46.9 M41.0 34.0 L41.0 40.0 34.9 40.0 34.9 34.0 41.0 34.0 M41.0 6.9 L41.0 13.0 34.9 13.0 34.9 6.9 41.0 6.9 M62.0 13.0 L62.0 6.9 68.0 6.9 68.0 13.0 62.0 13.0 M62.0 232.0 L68.0 232.0 68.0 238.0 62.0 238.0 62.0 232.0 M41.0 232.0 L41.0 238.0 34.9 238.0 34.9 232.0 41.0 232.0 M41.0 204.9 L41.0 211.0 34.9 211.0 34.9 204.9 41.0 204.9 M62.0 211.0 L62.0 204.9 68.0 204.9 68.0 211.0 62.0 211.0 M34.9 144.9 L41.0 144.9 41.0 198.0 34.9 198.0 34.9 144.9 M62.0 132.0 L68.0 132.0 68.0 138.0 62.0 138.0 62.0 132.0 M62.0 144.9 L68.0 144.9 68.0 198.0 62.0 198.0 62.0 144.9 M41.0 132.0 L41.0 138.0 34.9 138.0 34.9 132.0 41.0 132.0 M41.0 104.9 L41.0 111.0 34.9 111.0 34.9 104.9 41.0 104.9 M68.0 104.9 L68.0 111.0 62.0 111.0 62.0 104.9 68.0 104.9 M34.9 46.9 L41.0 46.9 41.0 98.0 34.9 98.0 34.9 46.9 M62.0 34.0 L68.0 34.0 68.0 40.0 62.0 40.0 62.0 34.0" fill="#3165c6" fill-rule="evenodd" stroke="none"/>
    <path d="M100.0 13.0 L100.0 34.0 74.9 34.0 74.9 40.0 100.0 40.0 100.0 46.9 74.9 46.9 74.9 98.0 100.0 98.0 100.0 104.9 74.9 104.9 74.9 111.0 100.0 111.0 100.0 132.0 74.9 132.0 74.9 138.0 100.0 138.0 100.0 144.9 74.9 144.9 74.9 198.0 100.0 198.0 100.0 204.9 74.9 204.9 74.9 211.0 100.0 211.0 100.0 232.0 74.9 232.0 74.9 238.0 100.0 238.0 100.0 244.9 74.9 244.9 74.9 250.0 68.0 250.0 68.0 244.9 62.0 244.9 62.0 250.0 41.0 250.0 41.0 244.9 34.9 244.9 34.9 250.0 28.0 250.0 28.0 244.9 0.0 244.9 0.0 238.0 28.0 238.0 28.0 232.0 0.0 232.0 0.0 211.0 28.0 211.0 28.0 204.9 0.0 204.9 0.0 198.0 28.0 198.0 28.0 144.9 0.0 144.9 0.0 138.0 28.0 138.0 28.0 132.0 0.0 132.0 0.0 111.0 28.0 111.0 28.0 104.9 0.0 104.9 0.0 98.0 28.0 98.0 28.0 46.9 0.0 46.9 0.0 40.0 28.0 40.0 28.0 34.0 0.0 34.0 0.0 13.0 28.0 13.0 28.0 6.9 0.0 6.9 0.0 0.0 100.0 0.0 100.0 6.9 74.9 6.9 74.9 13.0 100.0 13.0 M62.0 13.0 L68.0 13.0 68.0 6.9 62.0 6.9 62.0 13.0 M41.0 6.9 L34.9 6.9 34.9 13.0 41.0 13.0 41.0 6.9 M41.0 34.0 L34.9 34.0 34.9 40.0 41.0 40.0 41.0 34.0 M62.0 46.9 L62.0 98.0 68.0 98.0 68.0 46.9 62.0 46.9 M62.0 34.0 L62.0 40.0 68.0 40.0 68.0 34.0 62.0 34.0 M34.9 46.9 L34.9 98.0 41.0 98.0 41.0 46.9 34.9 46.9 M68.0 104.9 L62.0 104.9 62.0 111.0 68.0 111.0 68.0 104.9 M41.0 104.9 L34.9 104.9 34.9 111.0 41.0 111.0 41.0 104.9 M41.0 132.0 L34.9 132.0 34.9 138.0 41.0 138.0 41.0 132.0 M62.0 144.9 L62.0 198.0 68.0 198.0 68.0 144.9 62.0 144.9 M62.0 132.0 L62.0 138.0 68.0 138.0 68.0 132.0 62.0 132.0 M34.9 144.9 L34.9 198.0 41.0 198.0 41.0 144.9 34.9 144.9 M62.0 211.0 L68.0 211.0 68.0 204.9 62.0 204.9 62.0 211.0 M41.0 204.9 L34.9 204.9 34.9 211.0 41.0 211.0 41.0 204.9 M41.0 232.0 L34.9 232.0 34.9 238.0 41.0 238.0 41.0 232.0 M62.0 232.0 L62.0 238.0 68.0 238.0 68.0 232.0 62.0 232.0" fill="#2e5fb8" fill-rule="evenodd" stroke="none"/>
  </g>
</svg>
