<?xml version="1.0" encoding="UTF-8" standalone="no"?>
<svg xmlns:ffdec="https://www.free-decompiler.com/flash" xmlns:xlink="http://www.w3.org/1999/xlink" ffdec:objectType="shape" height="250.0px" width="100.0px" xmlns="http://www.w3.org/2000/svg">
  <g transform="matrix(1.0, 0.0, 0.0, 1.0, 0.0, 0.0)">
    <path d="M0.0 2.55 L0.0 0.0 100.0 0.0 100.0 2.45 80.8 2.45 Q80.55 4.35 79.15 5.75 L79.1 5.75 Q77.7 7.15 75.8 7.4 L75.8 24.3 Q77.55 24.6 78.85 25.9 80.1 27.1 80.45 28.7 L100.0 28.7 100.0 38.7 Q98.2 38.45 96.85 37.1 L96.85 37.05 Q95.4 35.65 95.2 33.75 L56.45 33.75 Q56.2 35.65 54.8 37.05 L54.75 37.05 Q53.35 38.45 51.45 38.7 L51.45 55.6 Q53.2 55.9 54.5 57.2 55.75 58.4 56.1 60.0 L95.05 60.0 Q95.4 58.45 96.6 57.25 98.05 55.8 100.0 55.6 L100.0 64.95 80.8 64.95 Q80.55 66.85 79.15 68.25 L79.1 68.25 Q77.7 69.65 75.8 69.9 L75.8 86.8 Q77.55 87.1 78.85 88.4 80.1 89.6 80.45 91.2 L100.0 91.2 100.0 101.2 Q98.2 100.95 96.85 99.6 L96.85 99.55 Q95.4 98.15 95.2 96.25 L56.45 96.25 Q56.2 98.15 54.8 99.55 L54.75 99.55 Q53.35 100.95 51.45 101.2 L51.45 118.1 Q53.2 118.4 54.5 119.7 55.75 120.9 56.1 122.5 L95.05 122.5 Q95.4 120.95 96.6 119.75 98.05 118.3 100.0 118.1 L100.0 127.45 80.8 127.45 Q80.55 129.35 79.15 130.75 L79.1 130.75 Q77.7 132.15 75.8 132.4 L75.8 149.3 Q77.55 149.6 78.85 150.9 80.1 152.1 80.45 153.7 L100.0 153.7 100.0 163.7 Q98.2 163.45 96.85 162.1 L96.85 162.05 Q95.4 160.65 95.2 158.75 L56.45 158.75 Q56.2 160.65 54.8 162.05 L54.75 162.05 Q53.35 163.45 51.45 163.7 L51.45 180.6 Q53.2 180.9 54.5 182.2 55.75 183.4 56.1 185.0 L95.05 185.0 Q95.4 183.45 96.6 182.25 98.05 180.8 100.0 180.6 L100.0 189.95 80.8 189.95 Q80.55 191.85 79.15 193.25 L79.1 193.25 Q77.7 194.65 75.8 194.9 L75.8 211.8 Q77.55 212.1 78.85 213.4 80.1 214.6 80.45 216.2 L100.0 216.2 100.0 226.4 Q98.2 226.15 96.85 224.8 L96.85 224.75 Q95.4 223.35 95.2 221.45 L56.45 221.45 Q56.2 223.35 54.8 224.75 L54.75 224.75 Q53.35 226.15 51.45 226.4 L51.45 243.3 Q53.2 243.6 54.5 244.9 55.75 246.1 56.1 247.7 L95.05 247.7 Q95.4 246.15 96.6 244.95 98.05 243.5 100.0 243.3 L100.0 250.0 0.0 250.0 0.0 216.3 19.4 216.3 Q19.75 214.75 20.95 213.55 22.4 212.1 24.35 211.9 L24.35 195.0 Q22.55 194.75 21.2 193.4 L21.2 193.35 Q19.75 191.95 19.55 190.05 L0.0 190.05 0.0 153.8 19.4 153.8 Q19.75 152.25 20.95 151.05 22.4 149.6 24.35 149.4 L24.35 132.5 Q22.55 132.25 21.2 130.9 L21.2 130.85 Q19.75 129.45 19.55 127.55 L0.0 127.55 0.0 91.3 19.4 91.3 19.55 90.75 0.0 90.75 0.0 90.7 19.6 90.7 Q20.0 89.5 20.95 88.55 22.4 87.1 24.35 86.9 L24.35 70.0 Q22.55 69.75 21.2 68.4 L21.2 68.35 Q19.75 66.95 19.55 65.05 L0.0 65.05 0.0 28.8 19.4 28.8 Q19.75 27.25 20.95 26.05 22.4 24.6 24.35 24.4 L24.35 7.5 Q22.55 7.25 21.2 5.9 L21.2 5.85 Q19.75 4.45 19.55 2.55 L0.0 2.55 M74.35 7.5 Q72.55 7.25 71.2 5.9 L71.2 5.85 Q69.75 4.45 69.55 2.55 L30.8 2.55 Q30.55 4.45 29.15 5.85 L29.1 5.85 Q27.7 7.25 25.8 7.5 L25.8 24.4 Q27.55 24.7 28.85 26.0 30.1 27.2 30.45 28.8 L69.4 28.8 Q69.75 27.25 70.95 26.05 72.4 24.6 74.35 24.4 L74.35 7.5 M46.85 37.05 Q45.4 35.65 45.2 33.75 L6.45 33.75 Q6.2 35.65 4.8 37.05 L4.75 37.05 Q3.35 38.45 1.45 38.7 L1.45 55.6 Q3.2 55.9 4.5 57.2 5.75 58.4 6.1 60.0 L45.05 60.0 Q45.4 58.45 46.6 57.25 48.05 55.8 50.0 55.6 L50.0 38.7 Q48.2 38.45 46.85 37.1 L46.85 37.05 M29.15 68.35 L29.1 68.35 Q27.7 69.75 25.8 70.0 L25.8 86.9 Q27.55 87.2 28.85 88.5 29.85 89.45 30.3 90.7 L69.6 90.7 Q70.0 89.5 70.95 88.55 72.4 87.1 74.35 86.9 L74.35 70.0 Q72.55 69.75 71.2 68.4 L71.2 68.35 Q69.75 66.95 69.55 65.05 L30.8 65.05 Q30.55 66.95 29.15 68.35 M30.45 91.3 L69.4 91.3 69.55 90.75 30.3 90.75 30.45 91.3 M45.2 96.25 L6.45 96.25 Q6.2 98.15 4.8 99.55 L4.75 99.55 Q3.35 100.95 1.45 101.2 L1.45 118.1 Q3.2 118.4 4.5 119.7 5.75 120.9 6.1 122.5 L45.05 122.5 Q45.4 120.95 46.6 119.75 48.05 118.3 50.0 118.1 L50.0 101.2 Q48.2 100.95 46.85 99.6 L46.85 99.55 Q45.4 98.15 45.2 96.25 M71.2 130.85 Q69.75 129.45 69.55 127.55 L30.8 127.55 Q30.55 129.45 29.15 130.85 L29.1 130.85 Q27.7 132.25 25.8 132.5 L25.8 149.4 Q27.55 149.7 28.85 151.0 30.1 152.2 30.45 153.8 L69.4 153.8 Q69.75 152.25 70.95 151.05 72.4 149.6 74.35 149.4 L74.35 132.5 Q72.55 132.25 71.2 130.9 L71.2 130.85 M1.45 163.7 L1.45 180.6 Q3.2 180.9 4.5 182.2 5.75 183.4 6.1 185.0 L45.05 185.0 Q45.4 183.45 46.6 182.25 48.05 180.8 50.0 180.6 L50.0 163.7 Q48.2 163.45 46.85 162.1 L46.85 162.05 Q45.4 160.65 45.2 158.75 L6.45 158.75 Q6.2 160.65 4.8 162.05 L4.75 162.05 Q3.35 163.45 1.45 163.7 M29.1 193.35 Q27.7 194.75 25.8 195.0 L25.8 211.9 Q27.55 212.2 28.85 213.5 30.1 214.7 30.45 216.3 L69.4 216.3 Q69.75 214.75 70.95 213.55 72.4 212.1 74.35 211.9 L74.35 195.0 Q72.55 194.75 71.2 193.4 L71.2 193.35 Q69.75 191.95 69.55 190.05 L30.8 190.05 Q30.55 191.95 29.15 193.35 L29.1 193.35 M46.85 224.8 L46.85 224.75 Q45.4 223.35 45.2 221.45 L6.45 221.45 Q6.2 223.35 4.8 224.75 L4.75 224.75 Q3.35 226.15 1.45 226.4 L1.45 243.3 Q3.2 243.6 4.5 244.9 5.75 246.1 6.1 247.7 L45.05 247.7 Q45.4 246.15 46.6 244.95 48.05 243.5 50.0 243.3 L50.0 226.4 Q48.2 226.15 46.85 224.8" fill="#6b2c4f" fill-rule="evenodd" stroke="none"/>
    <path d="M0.0 2.55 L19.55 2.55 Q19.75 4.45 21.2 5.85 L21.2 5.9 Q22.55 7.25 24.35 7.5 L24.35 24.4 Q22.4 24.6 20.95 26.05 19.75 27.25 19.4 28.8 L0.0 28.8 0.0 22.25 0.05 22.2 8.7 27.65 5.7 18.4 14.1 12.6 3.55 12.35 0.05 3.25 0.0 3.4 0.0 2.55 M0.0 65.05 L19.55 65.05 Q19.75 66.95 21.2 68.35 L21.2 68.4 Q22.55 69.75 24.35 70.0 L24.35 86.9 Q22.4 87.1 20.95 88.55 20.0 89.5 19.6 90.7 L0.0 90.7 0.0 84.75 0.05 84.7 8.7 90.15 5.7 80.9 14.1 75.1 3.55 74.85 0.05 65.75 0.0 65.9 0.0 65.05 M0.0 90.75 L19.55 90.75 19.4 91.3 0.0 91.3 0.0 90.75 M0.0 127.55 L19.55 127.55 Q19.75 129.45 21.2 130.85 L21.2 130.9 Q22.55 132.25 24.35 132.5 L24.35 149.4 Q22.4 149.6 20.95 151.05 19.75 152.25 19.4 153.8 L0.0 153.8 0.0 147.25 0.05 147.2 8.7 152.65 5.7 143.4 14.1 137.6 3.55 137.35 0.05 128.25 0.0 128.4 0.0 127.55 M0.0 190.05 L19.55 190.05 Q19.75 191.95 21.2 193.35 L21.2 193.4 Q22.55 194.75 24.35 195.0 L24.35 211.9 Q22.4 212.1 20.95 213.55 19.75 214.75 19.4 216.3 L0.0 216.3 0.0 209.75 0.05 209.7 8.7 215.15 5.7 205.9 14.1 200.1 3.55 199.85 0.05 190.75 0.0 190.9 0.0 190.05 M100.0 243.3 Q98.05 243.5 96.6 244.95 95.4 246.15 95.05 247.7 L56.1 247.7 Q55.75 246.1 54.5 244.9 53.2 243.6 51.45 243.3 L51.45 226.4 Q53.35 226.15 54.75 224.75 L54.8 224.75 Q56.2 223.35 56.45 221.45 L95.2 221.45 Q95.4 223.35 96.85 224.75 L96.85 224.8 Q98.2 226.15 100.0 226.4 L100.0 243.3 M100.0 216.2 L80.45 216.2 Q80.1 214.6 78.85 213.4 77.55 212.1 75.8 211.8 L75.8 194.9 Q77.7 194.65 79.1 193.25 L79.15 193.25 Q80.55 191.85 80.8 189.95 L100.0 189.95 100.0 190.8 96.5 199.75 85.95 200.0 94.35 205.8 91.35 215.05 100.0 209.65 100.0 216.2 M100.0 180.6 Q98.05 180.8 96.6 182.25 95.4 183.45 95.05 185.0 L56.1 185.0 Q55.75 183.4 54.5 182.2 53.2 180.9 51.45 180.6 L51.45 163.7 Q53.35 163.45 54.75 162.05 L54.8 162.05 Q56.2 160.65 56.45 158.75 L95.2 158.75 Q95.4 160.65 96.85 162.05 L96.85 162.1 Q98.2 163.45 100.0 163.7 L100.0 180.6 M100.0 153.7 L80.45 153.7 Q80.1 152.1 78.85 150.9 77.55 149.6 75.8 149.3 L75.8 132.4 Q77.7 132.15 79.1 130.75 L79.15 130.75 Q80.55 129.35 80.8 127.45 L100.0 127.45 100.0 128.3 96.5 137.25 85.95 137.5 94.35 143.3 91.35 152.55 100.0 147.15 100.0 153.7 M100.0 118.1 Q98.05 118.3 96.6 119.75 95.4 120.95 95.05 122.5 L56.1 122.5 Q55.75 120.9 54.5 119.7 53.2 118.4 51.45 118.1 L51.45 101.2 Q53.35 100.95 54.75 99.55 L54.8 99.55 Q56.2 98.15 56.45 96.25 L95.2 96.25 Q95.4 98.15 96.85 99.55 L96.85 99.6 Q98.2 100.95 100.0 101.2 L100.0 118.1 M100.0 91.2 L80.45 91.2 Q80.1 89.6 78.85 88.4 77.55 87.1 75.8 86.8 L75.8 69.9 Q77.7 69.65 79.1 68.25 L79.15 68.25 Q80.55 66.85 80.8 64.95 L100.0 64.95 100.0 65.8 96.5 74.75 85.95 75.0 94.35 80.8 91.35 90.05 100.0 84.65 100.0 91.2 M100.0 55.6 Q98.05 55.8 96.6 57.25 95.4 58.45 95.05 60.0 L56.1 60.0 Q55.75 58.4 54.5 57.2 53.2 55.9 51.45 55.6 L51.45 38.7 Q53.35 38.45 54.75 37.05 L54.8 37.05 Q56.2 35.65 56.45 33.75 L95.2 33.75 Q95.4 35.65 96.85 37.05 L96.85 37.1 Q98.2 38.45 100.0 38.7 L100.0 55.6 M100.0 28.7 L80.45 28.7 Q80.1 27.1 78.85 25.9 77.55 24.6 75.8 24.3 L75.8 7.4 Q77.7 7.15 79.1 5.75 L79.15 5.75 Q80.55 4.35 80.8 2.45 L100.0 2.45 100.0 3.3 96.5 12.25 85.95 12.5 94.35 18.3 91.35 27.55 100.0 22.15 100.0 28.7 M93.25 5.7 L82.75 5.7 Q79.7 5.7 79.7 8.85 L79.7 22.15 Q79.7 25.3 82.75 25.3 L88.65 25.3 88.65 23.85 82.75 23.85 Q81.1 23.85 81.1 22.15 L81.1 8.85 Q81.1 7.15 82.75 7.15 L93.25 7.15 93.25 5.7 M84.35 58.85 L81.35 49.6 89.75 43.8 79.2 43.55 75.7 34.45 72.15 43.55 61.6 43.8 70.0 49.6 67.0 58.85 75.7 53.4 84.35 58.85 M92.9 38.45 Q94.55 38.45 94.55 40.15 L94.55 53.45 Q94.55 55.15 92.9 55.15 L87.05 55.15 87.05 56.6 92.9 56.6 Q96.0 56.6 96.0 53.45 L96.0 40.15 Q96.0 37.0 92.9 37.0 L81.5 37.0 81.5 38.45 92.9 38.45 M82.75 69.65 L93.25 69.65 93.25 68.2 82.75 68.2 Q79.7 68.2 79.7 71.35 L79.7 84.65 Q79.7 87.8 82.75 87.8 L88.65 87.8 88.65 86.35 82.75 86.35 Q81.1 86.35 81.1 84.65 L81.1 71.35 Q81.1 69.65 82.75 69.65 M74.35 7.5 L74.35 24.4 Q72.4 24.6 70.95 26.05 69.75 27.25 69.4 28.8 L30.45 28.8 Q30.1 27.2 28.85 26.0 27.55 24.7 25.8 24.4 L25.8 7.5 Q27.7 7.25 29.1 5.85 L29.15 5.85 Q30.55 4.45 30.8 2.55 L69.55 2.55 Q69.75 4.45 71.2 5.85 L71.2 5.9 Q72.55 7.25 74.35 7.5 M70.35 8.95 Q70.35 5.8 67.25 5.8 L55.85 5.8 55.85 7.25 67.25 7.25 Q68.9 7.25 68.9 8.95 L68.9 22.25 Q68.9 23.95 67.25 23.95 L61.4 23.95 61.4 25.4 67.25 25.4 Q70.35 25.4 70.35 22.25 L70.35 8.95 M43.25 5.8 L32.75 5.8 Q29.7 5.8 29.7 8.95 L29.7 22.25 Q29.7 25.4 32.75 25.4 L38.65 25.4 38.65 23.95 32.75 23.95 Q31.1 23.95 31.1 22.25 L31.1 8.95 Q31.1 7.25 32.75 7.25 L43.25 7.25 43.25 5.8 M53.55 12.35 L50.05 3.25 46.5 12.35 35.95 12.6 44.35 18.4 41.35 27.65 50.05 22.2 58.7 27.65 55.7 18.4 64.1 12.6 53.55 12.35 M46.85 37.05 L46.85 37.1 Q48.2 38.45 50.0 38.7 L50.0 55.6 Q48.05 55.8 46.6 57.25 45.4 58.45 45.05 60.0 L6.1 60.0 Q5.75 58.4 4.5 57.2 3.2 55.9 1.45 55.6 L1.45 38.7 Q3.35 38.45 4.75 37.05 L4.8 37.05 Q6.2 35.65 6.45 33.75 L45.2 33.75 Q45.4 35.65 46.85 37.05 M42.9 38.45 Q44.55 38.45 44.55 40.15 L44.55 53.45 Q44.55 55.15 42.9 55.15 L37.05 55.15 37.05 56.6 42.9 56.6 Q46.0 56.6 46.0 53.45 L46.0 40.15 Q46.0 37.0 42.9 37.0 L31.5 37.0 31.5 38.45 42.9 38.45 M58.4 38.45 L68.9 38.45 68.9 37.0 58.4 37.0 Q55.35 37.0 55.35 40.15 L55.35 53.45 Q55.35 56.6 58.4 56.6 L64.3 56.6 64.3 55.15 58.4 55.15 Q56.75 55.15 56.75 53.45 L56.75 40.15 Q56.75 38.45 58.4 38.45 M20.35 22.25 L20.35 8.95 Q20.35 5.8 17.25 5.8 L5.85 5.8 5.85 7.25 17.25 7.25 Q18.9 7.25 18.9 8.95 L18.9 22.25 Q18.9 23.95 17.25 23.95 L11.4 23.95 11.4 25.4 17.25 25.4 Q20.35 25.4 20.35 22.25 M8.4 38.45 L18.9 38.45 18.9 37.0 8.4 37.0 Q5.35 37.0 5.35 40.15 L5.35 53.45 Q5.35 56.6 8.4 56.6 L14.3 56.6 14.3 55.15 8.4 55.15 Q6.75 55.15 6.75 53.45 L6.75 40.15 Q6.75 38.45 8.4 38.45 M25.7 34.45 L22.15 43.55 11.6 43.8 20.0 49.6 17.0 58.85 25.7 53.4 34.35 58.85 31.35 49.6 39.75 43.8 29.2 43.55 25.7 34.45 M29.15 68.35 Q30.55 66.95 30.8 65.05 L69.55 65.05 Q69.75 66.95 71.2 68.35 L71.2 68.4 Q72.55 69.75 74.35 70.0 L74.35 86.9 Q72.4 87.1 70.95 88.55 70.0 89.5 69.6 90.7 L30.3 90.7 Q29.85 89.45 28.85 88.5 27.55 87.2 25.8 86.9 L25.8 70.0 Q27.7 69.75 29.1 68.35 L29.15 68.35 M32.75 69.75 L43.25 69.75 43.25 68.3 32.75 68.3 Q29.7 68.3 29.7 71.45 L29.7 84.75 Q29.7 87.9 32.75 87.9 L38.65 87.9 38.65 86.45 32.75 86.45 Q31.1 86.45 31.1 84.75 L31.1 71.45 Q31.1 69.75 32.75 69.75 M5.85 68.3 L5.85 69.75 17.25 69.75 Q18.9 69.75 18.9 71.45 L18.9 84.75 Q18.9 86.45 17.25 86.45 L11.4 86.45 11.4 87.9 17.25 87.9 Q20.35 87.9 20.35 84.75 L20.35 71.45 Q20.35 68.3 17.25 68.3 L5.85 68.3 M30.45 91.3 L30.3 90.75 69.55 90.75 69.4 91.3 30.45 91.3 M50.05 84.7 L58.7 90.15 55.7 80.9 64.1 75.1 53.55 74.85 50.05 65.75 46.5 74.85 35.95 75.1 44.35 80.9 41.35 90.15 50.05 84.7 M67.25 69.75 Q68.9 69.75 68.9 71.45 L68.9 84.75 Q68.9 86.45 67.25 86.45 L61.4 86.45 61.4 87.9 67.25 87.9 Q70.35 87.9 70.35 84.75 L70.35 71.45 Q70.35 68.3 67.25 68.3 L55.85 68.3 55.85 69.75 67.25 69.75 M45.2 96.25 Q45.4 98.15 46.85 99.55 L46.85 99.6 Q48.2 100.95 50.0 101.2 L50.0 118.1 Q48.05 118.3 46.6 119.75 45.4 120.95 45.05 122.5 L6.1 122.5 Q5.75 120.9 4.5 119.7 3.2 118.4 1.45 118.1 L1.45 101.2 Q3.35 100.95 4.75 99.55 L4.8 99.55 Q6.2 98.15 6.45 96.25 L45.2 96.25 M64.3 117.65 L58.4 117.65 Q56.75 117.65 56.75 115.95 L56.75 102.65 Q56.75 100.95 58.4 100.95 L68.9 100.95 68.9 99.5 58.4 99.5 Q55.35 99.5 55.35 102.65 L55.35 115.95 Q55.35 119.1 58.4 119.1 L64.3 119.1 64.3 117.65 M50.05 128.25 L46.5 137.35 35.95 137.6 44.35 143.4 41.35 152.65 50.05 147.2 58.7 152.65 55.7 143.4 64.1 137.6 53.55 137.35 50.05 128.25 M55.85 130.8 L55.85 132.25 67.25 132.25 Q68.9 132.25 68.9 133.95 L68.9 147.25 Q68.9 148.95 67.25 148.95 L61.4 148.95 61.4 150.4 67.25 150.4 Q70.35 150.4 70.35 147.25 L70.35 133.95 Q70.35 130.8 67.25 130.8 L55.85 130.8 M43.25 132.25 L43.25 130.8 32.75 130.8 Q29.7 130.8 29.7 133.95 L29.7 147.25 Q29.7 150.4 32.75 150.4 L38.65 150.4 38.65 148.95 32.75 148.95 Q31.1 148.95 31.1 147.25 L31.1 133.95 Q31.1 132.25 32.75 132.25 L43.25 132.25 M42.9 100.95 Q44.55 100.95 44.55 102.65 L44.55 115.95 Q44.55 117.65 42.9 117.65 L37.05 117.65 37.05 119.1 42.9 119.1 Q46.0 119.1 46.0 115.95 L46.0 102.65 Q46.0 99.5 42.9 99.5 L31.5 99.5 31.5 100.95 42.9 100.95 M61.6 106.3 L70.0 112.1 67.0 121.35 75.7 115.9 84.35 121.35 81.35 112.1 89.75 106.3 79.2 106.05 75.7 96.95 72.15 106.05 61.6 106.3 M71.2 130.85 L71.2 130.9 Q72.55 132.25 74.35 132.5 L74.35 149.4 Q72.4 149.6 70.95 151.05 69.75 152.25 69.4 153.8 L30.45 153.8 Q30.1 152.2 28.85 151.0 27.55 149.7 25.8 149.4 L25.8 132.5 Q27.7 132.25 29.1 130.85 L29.15 130.85 Q30.55 129.45 30.8 127.55 L69.55 127.55 Q69.75 129.45 71.2 130.85 M39.75 106.3 L29.2 106.05 25.7 96.95 22.15 106.05 11.6 106.3 20.0 112.1 17.0 121.35 25.7 115.9 34.35 121.35 31.35 112.1 39.75 106.3 M79.7 133.85 L79.7 147.15 Q79.7 150.3 82.75 150.3 L88.65 150.3 88.65 148.85 82.75 148.85 Q81.1 148.85 81.1 147.15 L81.1 133.85 Q81.1 132.15 82.75 132.15 L93.25 132.15 93.25 130.7 82.75 130.7 Q79.7 130.7 79.7 133.85 M18.9 99.5 L8.4 99.5 Q5.35 99.5 5.35 102.65 L5.35 115.95 Q5.35 119.1 8.4 119.1 L14.3 119.1 14.3 117.65 8.4 117.65 Q6.75 117.65 6.75 115.95 L6.75 102.65 Q6.75 100.95 8.4 100.95 L18.9 100.95 18.9 99.5 M17.25 132.25 Q18.9 132.25 18.9 133.95 L18.9 147.25 Q18.9 148.95 17.25 148.95 L11.4 148.95 11.4 150.4 17.25 150.4 Q20.35 150.4 20.35 147.25 L20.35 133.95 Q20.35 130.8 17.25 130.8 L5.85 130.8 5.85 132.25 17.25 132.25 M25.7 159.45 L22.15 168.55 11.6 168.8 20.0 174.6 17.0 183.85 25.7 178.4 34.35 183.85 31.35 174.6 39.75 168.8 29.2 168.55 25.7 159.45 M31.5 162.0 L31.5 163.45 42.9 163.45 Q44.55 163.45 44.55 165.15 L44.55 178.45 Q44.55 180.15 42.9 180.15 L37.05 180.15 37.05 181.6 42.9 181.6 Q46.0 181.6 46.0 178.45 L46.0 165.15 Q46.0 162.0 42.9 162.0 L31.5 162.0 M1.45 163.7 Q3.35 163.45 4.75 162.05 L4.8 162.05 Q6.2 160.65 6.45 158.75 L45.2 158.75 Q45.4 160.65 46.85 162.05 L46.85 162.1 Q48.2 163.45 50.0 163.7 L50.0 180.6 Q48.05 180.8 46.6 182.25 45.4 183.45 45.05 185.0 L6.1 185.0 Q5.75 183.4 4.5 182.2 3.2 180.9 1.45 180.6 L1.45 163.7 M6.75 165.15 Q6.75 163.45 8.4 163.45 L18.9 163.45 18.9 162.0 8.4 162.0 Q5.35 162.0 5.35 165.15 L5.35 178.45 Q5.35 181.6 8.4 181.6 L14.3 181.6 14.3 180.15 8.4 180.15 Q6.75 180.15 6.75 178.45 L6.75 165.15 M5.85 193.3 L5.85 194.75 17.25 194.75 Q18.9 194.75 18.9 196.45 L18.9 209.75 Q18.9 211.45 17.25 211.45 L11.4 211.45 11.4 212.9 17.25 212.9 Q20.35 212.9 20.35 209.75 L20.35 196.45 Q20.35 193.3 17.25 193.3 L5.85 193.3 M29.1 193.35 L29.15 193.35 Q30.55 191.95 30.8 190.05 L69.55 190.05 Q69.75 191.95 71.2 193.35 L71.2 193.4 Q72.55 194.75 74.35 195.0 L74.35 211.9 Q72.4 212.1 70.95 213.55 69.75 214.75 69.4 216.3 L30.45 216.3 Q30.1 214.7 28.85 213.5 27.55 212.2 25.8 211.9 L25.8 195.0 Q27.7 194.75 29.1 193.35 M32.75 194.75 L43.25 194.75 43.25 193.3 32.75 193.3 Q29.7 193.3 29.7 196.45 L29.7 209.75 Q29.7 212.9 32.75 212.9 L38.65 212.9 38.65 211.45 32.75 211.45 Q31.1 211.45 31.1 209.75 L31.1 196.45 Q31.1 194.75 32.75 194.75 M68.9 162.0 L58.4 162.0 Q55.35 162.0 55.35 165.15 L55.35 178.45 Q55.35 181.6 58.4 181.6 L64.3 181.6 64.3 180.15 58.4 180.15 Q56.75 180.15 56.75 178.45 L56.75 165.15 Q56.75 163.45 58.4 163.45 L68.9 163.45 68.9 162.0 M96.0 102.65 Q96.0 99.5 92.9 99.5 L81.5 99.5 81.5 100.95 92.9 100.95 Q94.55 100.95 94.55 102.65 L94.55 115.95 Q94.55 117.65 92.9 117.65 L87.05 117.65 87.05 119.1 92.9 119.1 Q96.0 119.1 96.0 115.95 L96.0 102.65 M55.85 193.3 L55.85 194.75 67.25 194.75 Q68.9 194.75 68.9 196.45 L68.9 209.75 Q68.9 211.45 67.25 211.45 L61.4 211.45 61.4 212.9 67.25 212.9 Q70.35 212.9 70.35 209.75 L70.35 196.45 Q70.35 193.3 67.25 193.3 L55.85 193.3 M79.2 168.55 L75.7 159.45 72.15 168.55 61.6 168.8 70.0 174.6 67.0 183.85 75.7 178.4 84.35 183.85 81.35 174.6 89.75 168.8 79.2 168.55 M81.1 196.35 Q81.1 194.65 82.75 194.65 L93.25 194.65 93.25 193.2 82.75 193.2 Q79.7 193.2 79.7 196.35 L79.7 209.65 Q79.7 212.8 82.75 212.8 L88.65 212.8 88.65 211.35 82.75 211.35 Q81.1 211.35 81.1 209.65 L81.1 196.35 M81.5 162.0 L81.5 163.45 92.9 163.45 Q94.55 163.45 94.55 165.15 L94.55 178.45 Q94.55 180.15 92.9 180.15 L87.05 180.15 87.05 181.6 92.9 181.6 Q96.0 181.6 96.0 178.45 L96.0 165.15 Q96.0 162.0 92.9 162.0 L81.5 162.0 M84.35 246.55 L81.35 237.3 89.75 231.5 79.2 231.25 75.7 222.15 72.15 231.25 61.6 231.5 70.0 237.3 67.0 246.55 75.7 241.1 84.35 246.55 M92.9 226.15 Q94.55 226.15 94.55 227.85 L94.55 241.15 Q94.55 242.85 92.9 242.85 L87.05 242.85 87.05 244.3 92.9 244.3 Q96.0 244.3 96.0 241.15 L96.0 227.85 Q96.0 224.7 92.9 224.7 L81.5 224.7 81.5 226.15 92.9 226.15 M44.35 205.9 L41.35 215.15 50.05 209.7 58.7 215.15 55.7 205.9 64.1 200.1 53.55 199.85 50.05 190.75 46.5 199.85 35.95 200.1 44.35 205.9 M55.35 227.85 L55.35 241.15 Q55.35 244.3 58.4 244.3 L64.3 244.3 64.3 242.85 58.4 242.85 Q56.75 242.85 56.75 241.15 L56.75 227.85 Q56.75 226.15 58.4 226.15 L68.9 226.15 68.9 224.7 58.4 224.7 Q55.35 224.7 55.35 227.85 M42.9 226.15 Q44.55 226.15 44.55 227.85 L44.55 241.15 Q44.55 242.85 42.9 242.85 L37.05 242.85 37.05 244.3 42.9 244.3 Q46.0 244.3 46.0 241.15 L46.0 227.85 Q46.0 224.7 42.9 224.7 L31.5 224.7 31.5 226.15 42.9 226.15 M46.85 224.8 Q48.2 226.15 50.0 226.4 L50.0 243.3 Q48.05 243.5 46.6 244.95 45.4 246.15 45.05 247.7 L6.1 247.7 Q5.75 246.1 4.5 244.9 3.2 243.6 1.45 243.3 L1.45 226.4 Q3.35 226.15 4.75 224.75 L4.8 224.75 Q6.2 223.35 6.45 221.45 L45.2 221.45 Q45.4 223.35 46.85 224.75 L46.85 224.8 M18.9 224.7 L8.4 224.7 Q5.35 224.7 5.35 227.85 L5.35 241.15 Q5.35 244.3 8.4 244.3 L14.3 244.3 14.3 242.85 8.4 242.85 Q6.75 242.85 6.75 241.15 L6.75 227.85 Q6.75 226.15 8.4 226.15 L18.9 226.15 18.9 224.7 M17.0 246.55 L25.7 241.1 34.35 246.55 31.35 237.3 39.75 231.5 29.2 231.25 25.7 222.15 22.15 231.25 11.6 231.5 20.0 237.3 17.0 246.55" fill="#fcdc25" fill-rule="evenodd" stroke="none"/>
    <path d="M100.0 3.3 L100.0 22.15 91.35 27.55 94.35 18.3 85.95 12.5 96.5 12.25 100.0 3.3 M93.25 5.7 L93.25 7.15 82.75 7.15 Q81.1 7.15 81.1 8.85 L81.1 22.15 Q81.1 23.85 82.75 23.85 L88.65 23.85 88.65 25.3 82.75 25.3 Q79.7 25.3 79.7 22.15 L79.7 8.85 Q79.7 5.7 82.75 5.7 L93.25 5.7 M92.9 38.45 L81.5 38.45 81.5 37.0 92.9 37.0 Q96.0 37.0 96.0 40.15 L96.0 53.45 Q96.0 56.6 92.9 56.6 L87.05 56.6 87.05 55.15 92.9 55.15 Q94.55 55.15 94.55 53.45 L94.55 40.15 Q94.55 38.45 92.9 38.45 M84.35 58.85 L75.7 53.4 67.0 58.85 70.0 49.6 61.6 43.8 72.15 43.55 75.7 34.45 79.2 43.55 89.75 43.8 81.35 49.6 84.35 58.85 M82.75 69.65 Q81.1 69.65 81.1 71.35 L81.1 84.65 Q81.1 86.35 82.75 86.35 L88.65 86.35 88.65 87.8 82.75 87.8 Q79.7 87.8 79.7 84.65 L79.7 71.35 Q79.7 68.2 82.75 68.2 L93.25 68.2 93.25 69.65 82.75 69.65 M100.0 84.65 L91.35 90.05 94.35 80.8 85.95 75.0 96.5 74.75 100.0 65.8 100.0 84.65 M70.35 8.95 L70.35 22.25 Q70.35 25.4 67.25 25.4 L61.4 25.4 61.4 23.95 67.25 23.95 Q68.9 23.95 68.9 22.25 L68.9 8.95 Q68.9 7.25 67.25 7.25 L55.85 7.25 55.85 5.8 67.25 5.8 Q70.35 5.8 70.35 8.95 M43.25 5.8 L43.25 7.25 32.75 7.25 Q31.1 7.25 31.1 8.95 L31.1 22.25 Q31.1 23.95 32.75 23.95 L38.65 23.95 38.65 25.4 32.75 25.4 Q29.7 25.4 29.7 22.25 L29.7 8.95 Q29.7 5.8 32.75 5.8 L43.25 5.8 M53.55 12.35 L64.1 12.6 55.7 18.4 58.7 27.65 50.05 22.2 41.35 27.65 44.35 18.4 35.95 12.6 46.5 12.35 50.05 3.25 53.55 12.35 M42.9 38.45 L31.5 38.45 31.5 37.0 42.9 37.0 Q46.0 37.0 46.0 40.15 L46.0 53.45 Q46.0 56.6 42.9 56.6 L37.05 56.6 37.05 55.15 42.9 55.15 Q44.55 55.15 44.55 53.45 L44.55 40.15 Q44.55 38.45 42.9 38.45 M58.4 38.45 Q56.75 38.45 56.75 40.15 L56.75 53.45 Q56.75 55.15 58.4 55.15 L64.3 55.15 64.3 56.6 58.4 56.6 Q55.35 56.6 55.35 53.45 L55.35 40.15 Q55.35 37.0 58.4 37.0 L68.9 37.0 68.9 38.45 58.4 38.45 M20.35 22.25 Q20.35 25.4 17.25 25.4 L11.4 25.4 11.4 23.95 17.25 23.95 Q18.9 23.95 18.9 22.25 L18.9 8.95 Q18.9 7.25 17.25 7.25 L5.85 7.25 5.85 5.8 17.25 5.8 Q20.35 5.8 20.35 8.95 L20.35 22.25 M0.0 3.4 L0.05 3.25 3.55 12.35 14.1 12.6 5.7 18.4 8.7 27.65 0.05 22.2 0.0 22.25 0.0 3.4 M8.4 38.45 Q6.75 38.45 6.75 40.15 L6.75 53.45 Q6.75 55.15 8.4 55.15 L14.3 55.15 14.3 56.6 8.4 56.6 Q5.35 56.6 5.35 53.45 L5.35 40.15 Q5.35 37.0 8.4 37.0 L18.9 37.0 18.9 38.45 8.4 38.45 M25.7 34.45 L29.2 43.55 39.75 43.8 31.35 49.6 34.35 58.85 25.7 53.4 17.0 58.85 20.0 49.6 11.6 43.8 22.15 43.55 25.7 34.45 M32.75 69.75 Q31.1 69.75 31.1 71.45 L31.1 84.75 Q31.1 86.45 32.75 86.45 L38.65 86.45 38.65 87.9 32.75 87.9 Q29.7 87.9 29.7 84.75 L29.7 71.45 Q29.7 68.3 32.75 68.3 L43.25 68.3 43.25 69.75 32.75 69.75 M0.0 65.9 L0.05 65.75 3.55 74.85 14.1 75.1 5.7 80.9 8.7 90.15 0.05 84.7 0.0 84.75 0.0 65.9 M5.85 68.3 L17.25 68.3 Q20.35 68.3 20.35 71.45 L20.35 84.75 Q20.35 87.9 17.25 87.9 L11.4 87.9 11.4 86.45 17.25 86.45 Q18.9 86.45 18.9 84.75 L18.9 71.45 Q18.9 69.75 17.25 69.75 L5.85 69.75 5.85 68.3 M67.25 69.75 L55.85 69.75 55.85 68.3 67.25 68.3 Q70.35 68.3 70.35 71.45 L70.35 84.75 Q70.35 87.9 67.25 87.9 L61.4 87.9 61.4 86.45 67.25 86.45 Q68.9 86.45 68.9 84.75 L68.9 71.45 Q68.9 69.75 67.25 69.75 M50.05 84.7 L41.35 90.15 44.35 80.9 35.95 75.1 46.5 74.85 50.05 65.75 53.55 74.85 64.1 75.1 55.7 80.9 58.7 90.15 50.05 84.7 M64.3 117.65 L64.3 119.1 58.4 119.1 Q55.35 119.1 55.35 115.95 L55.35 102.65 Q55.35 99.5 58.4 99.5 L68.9 99.5 68.9 100.95 58.4 100.95 Q56.75 100.95 56.75 102.65 L56.75 115.95 Q56.75 117.65 58.4 117.65 L64.3 117.65 M61.6 106.3 L72.15 106.05 75.7 96.95 79.2 106.05 89.75 106.3 81.35 112.1 84.35 121.35 75.7 115.9 67.0 121.35 70.0 112.1 61.6 106.3 M42.9 100.95 L31.5 100.95 31.5 99.5 42.9 99.5 Q46.0 99.5 46.0 102.65 L46.0 115.95 Q46.0 119.1 42.9 119.1 L37.05 119.1 37.05 117.65 42.9 117.65 Q44.55 117.65 44.55 115.95 L44.55 102.65 Q44.55 100.95 42.9 100.95 M43.25 132.25 L32.75 132.25 Q31.1 132.25 31.1 133.95 L31.1 147.25 Q31.1 148.95 32.75 148.95 L38.65 148.95 38.65 150.4 32.75 150.4 Q29.7 150.4 29.7 147.25 L29.7 133.95 Q29.7 130.8 32.75 130.8 L43.25 130.8 43.25 132.25 M55.85 130.8 L67.25 130.8 Q70.35 130.8 70.35 133.95 L70.35 147.25 Q70.35 150.4 67.25 150.4 L61.4 150.4 61.4 148.95 67.25 148.95 Q68.9 148.95 68.9 147.25 L68.9 133.95 Q68.9 132.25 67.25 132.25 L55.85 132.25 55.85 130.8 M50.05 128.25 L53.55 137.35 64.1 137.6 55.7 143.4 58.7 152.65 50.05 147.2 41.35 152.65 44.35 143.4 35.95 137.6 46.5 137.35 50.05 128.25 M79.7 133.85 Q79.7 130.7 82.75 130.7 L93.25 130.7 93.25 132.15 82.75 132.15 Q81.1 132.15 81.1 133.85 L81.1 147.15 Q81.1 148.85 82.75 148.85 L88.65 148.85 88.65 150.3 82.75 150.3 Q79.7 150.3 79.7 147.15 L79.7 133.85 M39.75 106.3 L31.35 112.1 34.35 121.35 25.7 115.9 17.0 121.35 20.0 112.1 11.6 106.3 22.15 106.05 25.7 96.95 29.2 106.05 39.75 106.3 M18.9 99.5 L18.9 100.95 8.4 100.95 Q6.75 100.95 6.75 102.65 L6.75 115.95 Q6.75 117.65 8.4 117.65 L14.3 117.65 14.3 119.1 8.4 119.1 Q5.35 119.1 5.35 115.95 L5.35 102.65 Q5.35 99.5 8.4 99.5 L18.9 99.5 M17.25 132.25 L5.85 132.25 5.85 130.8 17.25 130.8 Q20.35 130.8 20.35 133.95 L20.35 147.25 Q20.35 150.4 17.25 150.4 L11.4 150.4 11.4 148.95 17.25 148.95 Q18.9 148.95 18.9 147.25 L18.9 133.95 Q18.9 132.25 17.25 132.25 M0.0 128.4 L0.05 128.25 3.55 137.35 14.1 137.6 5.7 143.4 8.7 152.65 0.05 147.2 0.0 147.25 0.0 128.4 M31.5 162.0 L42.9 162.0 Q46.0 162.0 46.0 165.15 L46.0 178.45 Q46.0 181.6 42.9 181.6 L37.05 181.6 37.05 180.15 42.9 180.15 Q44.55 180.15 44.55 178.45 L44.55 165.15 Q44.55 163.45 42.9 163.45 L31.5 163.45 31.5 162.0 M25.7 159.45 L29.2 168.55 39.75 168.8 31.35 174.6 34.35 183.85 25.7 178.4 17.0 183.85 20.0 174.6 11.6 168.8 22.15 168.55 25.7 159.45 M6.75 165.15 L6.75 178.45 Q6.75 180.15 8.4 180.15 L14.3 180.15 14.3 181.6 8.4 181.6 Q5.35 181.6 5.35 178.45 L5.35 165.15 Q5.35 162.0 8.4 162.0 L18.9 162.0 18.9 163.45 8.4 163.45 Q6.75 163.45 6.75 165.15 M0.0 190.9 L0.05 190.75 3.55 199.85 14.1 200.1 5.7 205.9 8.7 215.15 0.05 209.7 0.0 209.75 0.0 190.9 M5.85 193.3 L17.25 193.3 Q20.35 193.3 20.35 196.45 L20.35 209.75 Q20.35 212.9 17.25 212.9 L11.4 212.9 11.4 211.45 17.25 211.45 Q18.9 211.45 18.9 209.75 L18.9 196.45 Q18.9 194.75 17.25 194.75 L5.85 194.75 5.85 193.3 M68.9 162.0 L68.9 163.45 58.4 163.45 Q56.75 163.45 56.75 165.15 L56.75 178.45 Q56.75 180.15 58.4 180.15 L64.3 180.15 64.3 181.6 58.4 181.6 Q55.35 181.6 55.35 178.45 L55.35 165.15 Q55.35 162.0 58.4 162.0 L68.9 162.0 M32.75 194.75 Q31.1 194.75 31.1 196.45 L31.1 209.75 Q31.1 211.45 32.75 211.45 L38.65 211.45 38.65 212.9 32.75 212.9 Q29.7 212.9 29.7 209.75 L29.7 196.45 Q29.7 193.3 32.75 193.3 L43.25 193.3 43.25 194.75 32.75 194.75 M79.2 168.55 L89.75 168.8 81.35 174.6 84.35 183.85 75.7 178.4 67.0 183.85 70.0 174.6 61.6 168.8 72.15 168.55 75.7 159.45 79.2 168.55 M55.85 193.3 L67.25 193.3 Q70.35 193.3 70.35 196.45 L70.35 209.75 Q70.35 212.9 67.25 212.9 L61.4 212.9 61.4 211.45 67.25 211.45 Q68.9 211.45 68.9 209.75 L68.9 196.45 Q68.9 194.75 67.25 194.75 L55.85 194.75 55.85 193.3 M96.0 102.65 L96.0 115.95 Q96.0 119.1 92.9 119.1 L87.05 119.1 87.05 117.65 92.9 117.65 Q94.55 117.65 94.55 115.95 L94.55 102.65 Q94.55 100.95 92.9 100.95 L81.5 100.95 81.5 99.5 92.9 99.5 Q96.0 99.5 96.0 102.65 M100.0 128.3 L100.0 147.15 91.35 152.55 94.35 143.3 85.95 137.5 96.5 137.25 100.0 128.3 M81.5 162.0 L92.9 162.0 Q96.0 162.0 96.0 165.15 L96.0 178.45 Q96.0 181.6 92.9 181.6 L87.05 181.6 87.05 180.15 92.9 180.15 Q94.55 180.15 94.55 178.45 L94.55 165.15 Q94.55 163.45 92.9 163.45 L81.5 163.45 81.5 162.0 M81.1 196.35 L81.1 209.65 Q81.1 211.35 82.75 211.35 L88.65 211.35 88.65 212.8 82.75 212.8 Q79.7 212.8 79.7 209.65 L79.7 196.35 Q79.7 193.2 82.75 193.2 L93.25 193.2 93.25 194.65 82.75 194.65 Q81.1 194.65 81.1 196.35 M100.0 190.8 L100.0 209.65 91.35 215.05 94.35 205.8 85.95 200.0 96.5 199.75 100.0 190.8 M92.9 226.15 L81.5 226.15 81.5 224.7 92.9 224.7 Q96.0 224.7 96.0 227.85 L96.0 241.15 Q96.0 244.3 92.9 244.3 L87.05 244.3 87.05 242.85 92.9 242.85 Q94.55 242.85 94.55 241.15 L94.55 227.85 Q94.55 226.15 92.9 226.15 M84.35 246.55 L75.7 241.1 67.0 246.55 70.0 237.3 61.6 231.5 72.15 231.25 75.7 222.15 79.2 231.25 89.75 231.5 81.35 237.3 84.35 246.55 M44.35 205.9 L35.95 200.1 46.5 199.85 50.05 190.75 53.55 199.85 64.1 200.1 55.7 205.9 58.7 215.15 50.05 209.7 41.35 215.15 44.35 205.9 M55.35 227.85 Q55.35 224.7 58.4 224.7 L68.9 224.7 68.9 226.15 58.4 226.15 Q56.75 226.15 56.75 227.85 L56.75 241.15 Q56.75 242.85 58.4 242.85 L64.3 242.85 64.3 244.3 58.4 244.3 Q55.35 244.3 55.35 241.15 L55.35 227.85 M42.9 226.15 L31.5 226.15 31.5 224.7 42.9 224.7 Q46.0 224.7 46.0 227.85 L46.0 241.15 Q46.0 244.3 42.9 244.3 L37.05 244.3 37.05 242.85 42.9 242.85 Q44.55 242.85 44.55 241.15 L44.55 227.85 Q44.55 226.15 42.9 226.15 M17.0 246.55 L20.0 237.3 11.6 231.5 22.15 231.25 25.7 222.15 29.2 231.25 39.75 231.5 31.35 237.3 34.35 246.55 25.7 241.1 17.0 246.55 M18.9 224.7 L18.9 226.15 8.4 226.15 Q6.75 226.15 6.75 227.85 L6.75 241.15 Q6.75 242.85 8.4 242.85 L14.3 242.85 14.3 244.3 8.4 244.3 Q5.35 244.3 5.35 241.15 L5.35 227.85 Q5.35 224.7 8.4 224.7 L18.9 224.7" fill="#8a3765" fill-rule="evenodd" stroke="none"/>
  </g>
</svg>
