<?xml version="1.0" encoding="UTF-8" standalone="no"?>
<svg xmlns:ffdec="https://www.free-decompiler.com/flash" xmlns:xlink="http://www.w3.org/1999/xlink" ffdec:objectType="shape" height="221.0px" width="100.0px" xmlns="http://www.w3.org/2000/svg">
  <g transform="matrix(1.0, 0.0, 0.0, 1.0, 0.0, 0.0)">
    <path d="M48.9 221.0 L0.0 221.0 0.0 0.0 48.9 0.0 48.9 221.0" fill="#79db0d" fill-rule="evenodd" stroke="none"/>
    <path d="M48.9 0.0 L100.0 0.0 100.0 221.0 48.9 221.0 48.9 0.0" fill="#72cd0c" fill-rule="evenodd" stroke="none"/>
    <path d="M97.45 4.65 L97.3 10.65 96.5 11.3 Q94.1 10.3 94.4 7.8 L94.55 6.5 97.45 4.65 M86.0 9.0 Q85.6 9.0 85.3 8.35 85.0 7.7 85.0 6.75 85.0 5.8 85.3 5.15 85.6 4.5 86.0 4.5 86.4 4.5 86.7 5.15 L87.0 6.75 86.7 8.35 86.0 9.0 M87.5 19.3 L86.8 18.8 Q86.5 18.25 86.5 17.55 86.5 16.85 86.8 16.35 87.1 15.8 87.5 15.8 87.9 15.8 88.2 16.35 L88.5 17.55 88.2 18.8 Q87.9 19.3 87.5 19.3 M95.6 23.55 Q94.5 25.8 92.2 26.75 L90.8 27.35 90.6 26.35 94.5 22.55 95.6 23.55 M81.25 31.35 L79.7 31.25 78.85 27.55 79.75 27.5 81.25 30.8 81.25 31.35 M87.25 37.7 L84.5 44.25 83.25 44.1 Q83.75 40.25 86.75 37.5 L87.25 37.7 M93.5 43.75 L91.85 44.3 91.75 43.5 94.15 41.5 94.15 43.0 93.5 43.75 M86.35 61.55 L85.5 62.0 85.2 61.35 84.7 59.3 Q84.3 55.95 86.0 53.25 L87.1 53.3 86.35 61.55 M94.75 65.55 L95.25 66.3 93.5 70.75 92.2 70.25 Q92.35 68.05 93.75 66.6 L94.75 65.55 M87.25 81.75 L85.3 82.1 85.4 80.55 Q85.6 78.8 87.25 77.55 L87.65 78.0 87.25 81.75 M81.7 90.85 Q81.25 90.85 80.95 90.15 80.6 89.45 80.6 88.45 80.6 87.45 80.95 86.75 81.25 86.05 81.7 86.05 82.15 86.05 82.5 86.75 L82.8 88.45 82.5 90.15 Q82.15 90.85 81.7 90.85 M92.85 98.4 Q91.65 97.3 91.6 95.45 91.5 92.85 93.5 91.1 L94.15 91.25 92.85 98.4 M73.35 11.0 Q72.85 11.0 72.5 10.5 72.1 9.95 72.1 9.25 72.1 8.55 72.5 8.05 72.85 7.5 73.35 7.5 L74.25 8.05 Q74.6 8.55 74.6 9.25 L74.25 10.5 Q73.85 11.0 73.35 11.0 M74.75 15.5 Q75.5 16.7 75.05 18.5 74.65 20.2 73.5 21.75 L72.25 21.5 Q72.15 18.8 73.65 16.85 L74.75 15.5 M60.5 3.45 L63.25 7.4 Q60.35 7.6 59.85 4.55 L59.75 3.75 60.5 3.45 M54.95 5.9 L55.25 7.0 54.95 8.1 Q54.65 8.55 54.25 8.55 53.85 8.55 53.55 8.1 53.25 7.65 53.25 7.0 53.25 6.35 53.55 5.9 53.85 5.45 54.25 5.45 54.65 5.45 54.95 5.9 M59.5 19.8 Q59.15 19.8 58.9 19.2 58.6 18.55 58.6 17.65 58.6 16.75 58.9 16.15 59.15 15.5 59.5 15.5 L60.15 16.15 60.4 17.65 60.15 19.2 59.5 19.8 M55.9 27.8 L57.75 30.4 Q56.3 30.95 54.95 29.9 52.9 28.3 54.1 26.15 L55.9 27.8 M59.25 47.0 L57.85 47.0 57.85 41.75 59.25 41.75 59.25 47.0 M67.1 27.8 L67.85 27.95 Q68.45 28.2 68.95 28.6 70.3 29.55 70.1 31.3 L69.1 31.55 67.1 27.8 M70.0 47.75 L72.25 44.05 72.95 44.95 72.7 46.6 Q72.3 48.6 70.25 48.75 L70.0 47.75 M63.9 59.45 L66.1 63.25 65.75 63.65 64.5 63.75 63.3 61.25 63.5 59.8 63.9 59.45 M74.9 73.35 Q74.9 74.45 74.55 75.25 74.2 76.0 73.7 76.0 73.2 76.0 72.85 75.25 72.5 74.45 72.5 73.35 72.5 72.25 72.85 71.5 73.2 70.7 73.7 70.7 74.2 70.7 74.55 71.5 74.9 72.25 74.9 73.35 M56.25 74.0 L58.25 77.3 58.0 78.25 57.1 78.55 Q56.4 77.45 56.0 76.25 55.6 75.05 55.5 73.8 L56.25 74.0 M53.25 56.75 L53.85 55.2 55.5 58.5 53.25 56.75 M56.25 94.0 L54.05 93.8 54.55 90.75 56.25 94.0 M68.3 85.9 L69.0 90.85 68.0 91.5 Q66.15 90.1 66.35 87.55 66.55 84.65 65.95 82.15 67.95 83.45 68.3 85.9 M77.9 105.05 L76.8 105.15 Q76.75 102.2 78.95 100.0 L80.35 98.65 Q81.0 100.0 80.4 101.35 79.45 103.55 77.9 105.05 M66.0 106.1 Q65.65 106.1 65.4 105.35 65.1 104.6 65.1 103.55 65.1 102.5 65.4 101.75 65.65 101.0 66.0 101.0 66.35 101.0 66.65 101.75 L66.9 103.55 66.65 105.35 Q66.35 106.1 66.0 106.1 M70.6 112.25 Q72.4 115.3 72.8 119.0 72.95 120.35 72.25 121.6 L71.25 121.2 Q70.05 117.95 70.3 114.45 L70.6 112.25 M58.1 118.35 L57.75 119.05 Q55.35 118.15 53.8 115.85 L51.8 112.6 52.75 112.1 Q54.65 115.9 58.1 118.35 M54.15 139.85 L54.15 138.2 59.7 140.35 58.0 140.75 54.15 139.85 M66.4 134.15 L64.8 134.2 Q62.75 132.55 62.5 130.05 62.4 129.2 62.6 128.35 65.65 130.3 66.4 133.6 L66.4 134.15 M73.4 145.6 Q73.65 144.95 74.0 144.95 L74.65 145.6 74.9 147.15 74.65 148.7 74.0 149.35 Q73.65 149.35 73.4 148.7 73.1 148.05 73.1 147.15 73.1 146.25 73.4 145.6 M69.65 167.25 L71.8 167.25 71.8 171.75 69.65 171.75 69.65 167.25 M55.5 155.0 Q54.85 153.1 55.35 151.3 L55.55 150.75 58.85 156.55 56.5 156.5 55.95 155.8 55.5 155.0 M60.6 177.25 L64.85 184.85 64.6 185.8 Q62.7 186.05 61.8 184.3 L61.25 183.05 60.6 180.4 60.6 177.25 M72.1 193.75 L71.5 199.35 69.75 199.8 Q68.7 196.5 71.4 194.25 L72.1 193.75 M88.0 115.0 L87.35 114.75 87.7 112.85 Q88.2 110.85 90.25 110.6 L89.65 113.25 88.0 115.0 M92.8 127.8 L93.25 125.05 95.1 125.35 94.0 128.0 92.8 127.8 M83.75 132.55 L81.9 131.75 81.8 130.3 Q81.85 128.15 83.1 126.25 L84.1 131.85 83.75 132.55 M87.95 139.65 Q89.1 143.1 86.7 146.05 L86.0 146.85 85.15 145.7 Q84.95 142.55 87.3 140.3 L87.95 139.65 M85.3 185.8 L84.1 185.75 83.25 184.25 Q82.05 181.85 83.6 179.75 L85.3 185.8 M87.3 167.85 L87.1 167.05 91.6 161.25 Q90.8 165.05 88.0 167.5 L87.3 167.85 M84.25 209.05 L84.55 210.5 84.25 212.0 Q83.9 212.6 83.4 212.6 82.9 212.6 82.6 212.0 82.25 211.35 82.25 210.5 82.25 209.65 82.6 209.05 82.9 208.4 83.4 208.4 83.9 208.4 84.25 209.05 M90.25 201.35 Q89.75 197.25 95.1 193.75 94.0 198.5 90.6 201.15 L90.25 201.35 M60.0 212.5 L59.7 213.35 57.25 212.85 57.75 207.6 59.05 209.7 60.0 212.5" fill="#79db0d" fill-rule="evenodd" stroke="none"/>
    <path d="M40.75 7.3 Q40.15 7.3 39.7 7.0 39.25 6.7 39.25 6.3 39.25 5.9 39.7 5.6 40.15 5.3 40.75 5.3 41.35 5.3 41.8 5.6 42.25 5.9 42.25 6.3 L41.8 7.0 40.75 7.3 M41.7 42.25 Q41.95 40.85 42.5 39.55 43.1 38.25 44.0 37.05 L44.75 37.45 43.4 42.4 41.7 42.25 M28.6 3.5 Q28.65 7.0 26.0 9.55 L25.3 9.5 26.2 5.85 28.6 3.5 M38.55 24.0 Q38.0 23.15 37.95 22.3 37.65 16.9 41.65 14.75 L39.5 23.8 38.55 24.0 M13.65 14.05 Q10.85 12.95 10.3 9.55 L12.25 8.85 Q14.5 11.1 13.7 13.95 L13.65 14.05 M11.8 38.1 L14.75 41.3 14.25 42.5 11.05 38.85 11.8 38.1 M3.85 27.5 L2.0 26.05 3.4 25.95 5.5 27.75 Q4.9 28.15 3.85 27.5 M23.45 30.85 L22.75 31.55 Q22.35 31.55 22.05 30.85 21.75 30.15 21.75 29.15 21.75 28.15 22.05 27.45 22.35 26.75 22.75 26.75 23.15 26.75 23.45 27.45 L23.75 29.15 23.45 30.85 M27.8 47.55 Q27.3 47.55 26.95 46.95 26.55 46.3 26.55 45.4 26.55 44.5 26.95 43.9 27.3 43.25 27.8 43.25 28.3 43.25 28.7 43.9 29.05 44.5 29.05 45.4 L28.7 46.95 27.8 47.55 M39.65 56.0 L38.4 57.95 36.65 57.85 36.6 56.65 39.3 54.15 39.65 56.0 M11.95 57.95 L12.4 58.4 13.1 59.5 13.85 62.0 12.4 62.7 9.0 58.3 9.0 57.25 Q10.65 57.0 11.95 57.95 M14.45 92.55 L14.55 93.3 13.3 93.4 9.8 87.05 9.95 86.45 11.0 85.85 Q13.55 88.85 14.45 92.55 M34.75 95.85 L33.25 101.1 32.25 101.1 32.1 99.5 Q32.0 96.7 34.25 95.1 L34.75 95.85 M30.3 75.65 L27.9 84.4 26.35 84.45 Q25.9 81.6 27.45 79.2 28.7 77.3 30.3 75.65 M23.7 121.85 Q23.2 121.85 22.9 120.95 22.55 120.0 22.55 118.65 22.55 117.3 22.9 116.4 23.2 115.45 23.7 115.45 24.2 115.45 24.55 116.4 L24.85 118.65 24.55 120.95 Q24.2 121.85 23.7 121.85 M38.5 117.8 Q39.45 114.55 42.65 114.1 43.0 117.35 39.85 118.85 L39.05 119.15 38.5 117.8 M9.0 100.6 L9.55 101.0 9.75 101.85 9.55 102.75 9.0 103.1 8.5 102.75 8.25 101.85 Q8.25 101.35 8.5 101.0 8.7 100.6 9.0 100.6 M3.25 105.85 L4.25 105.35 Q5.35 106.0 5.45 107.3 L5.45 108.0 3.45 106.8 3.25 105.85 M11.05 141.75 Q13.8 142.2 14.1 145.2 12.05 146.65 11.15 142.5 L11.05 141.75 M9.15 144.95 Q12.85 147.65 10.8 151.55 8.05 149.25 7.85 145.0 L9.15 144.95 M40.15 143.1 Q39.95 146.65 37.35 148.7 L37.8 145.1 40.15 143.1 M11.75 170.55 L12.35 170.75 Q14.45 171.4 14.5 173.6 L13.8 174.45 11.0 170.5 11.75 170.55 M34.75 176.4 L33.0 182.85 32.35 180.55 Q31.8 177.1 34.75 176.4 M28.1 186.3 L26.3 186.25 26.0 183.45 Q25.75 180.45 27.5 178.1 L28.1 186.3 M41.8 201.35 L39.5 210.1 39.0 210.35 38.15 209.55 Q38.0 207.4 38.55 205.45 38.85 204.35 39.4 203.35 40.2 201.8 41.4 200.65 L41.8 201.35 M27.05 209.75 Q28.85 211.85 28.0 214.2 L27.5 215.35 Q25.7 212.9 26.65 210.3 L27.05 209.75 M9.55 211.75 L8.55 207.25 9.2 208.8 9.55 211.75 M14.75 207.7 L14.25 208.1 Q11.5 205.4 12.4 201.75 L12.6 201.8 Q14.95 203.7 14.8 206.85 L14.75 207.7" fill="#72cd0c" fill-rule="evenodd" stroke="none"/>
  </g>
</svg>
