<?xml version="1.0" encoding="UTF-8" standalone="no"?>
<svg xmlns:ffdec="https://www.free-decompiler.com/flash" xmlns:xlink="http://www.w3.org/1999/xlink" ffdec:objectType="shape" height="221.0px" width="100.0px" xmlns="http://www.w3.org/2000/svg">
  <g transform="matrix(1.0, 0.0, 0.0, 1.0, 0.0, 0.0)">
    <path d="M88.15 24.55 L88.15 12.3 100.0 12.3 100.0 24.55 88.15 24.55 M75.0 12.3 L63.15 12.3 50.0 12.3 50.0 0.0 75.0 0.0 75.0 12.3 M100.0 73.65 L100.0 85.95 88.15 85.95 75.0 85.95 75.0 73.65 88.15 73.65 100.0 73.65 M100.0 110.5 L100.0 122.8 88.15 122.8 88.15 110.5 100.0 110.5 M100.0 171.9 L100.0 184.15 88.15 184.15 75.0 184.15 75.0 171.9 88.15 171.9 100.0 171.9 M100.0 208.7 L100.0 221.0 88.15 221.0 88.15 208.7 100.0 208.7 M13.15 221.0 L0.0 221.0 0.0 208.7 13.15 208.7 13.15 221.0 M0.0 159.6 L0.0 147.35 13.15 147.35 25.0 147.35 25.0 159.6 13.15 159.6 0.0 159.6 M0.0 122.8 L0.0 110.5 13.15 110.5 13.15 122.8 0.0 122.8 M0.0 61.4 L0.0 49.1 13.15 49.1 25.0 49.1 25.0 61.4 13.15 61.4 0.0 61.4 M0.0 24.55 L0.0 12.3 13.15 12.3 13.15 24.55 0.0 24.55 M63.15 36.85 L63.15 49.1 50.0 49.1 38.15 49.1 38.15 36.85 50.0 36.85 63.15 36.85 M50.0 61.4 L63.15 61.4 63.15 73.65 50.0 73.65 38.15 73.65 38.15 61.4 50.0 61.4 M25.0 85.95 L38.15 85.95 38.15 98.2 25.0 98.2 13.15 98.2 13.15 85.95 25.0 85.95 M63.15 98.2 L75.0 98.2 75.0 110.5 63.15 110.5 50.0 110.5 50.0 98.2 63.15 98.2 M75.0 147.35 L63.15 147.35 63.15 135.05 75.0 135.05 88.15 135.05 88.15 147.35 75.0 147.35 M50.0 159.6 L63.15 159.6 63.15 171.9 50.0 171.9 38.15 171.9 38.15 159.6 50.0 159.6 M13.15 184.15 L25.0 184.15 38.15 184.15 38.15 196.45 25.0 196.45 13.15 196.45 13.15 184.15 M63.15 196.45 L75.0 196.45 75.0 208.7 63.15 208.7 50.0 208.7 50.0 196.45 63.15 196.45" fill="#8e4228" fill-rule="evenodd" stroke="none"/>
    <path d="M88.15 12.3 L88.15 24.55 75.0 24.55 63.15 24.55 63.15 12.3 75.0 12.3 88.15 12.3 M100.0 49.1 L100.0 61.4 88.15 61.4 75.0 61.4 75.0 49.1 88.15 49.1 100.0 49.1 M100.0 85.95 L100.0 98.2 88.15 98.2 88.15 85.95 100.0 85.95 M100.0 147.35 L100.0 159.6 88.15 159.6 75.0 159.6 75.0 147.35 88.15 147.35 100.0 147.35 M100.0 184.15 L100.0 196.45 88.15 196.45 88.15 184.15 100.0 184.15 M88.15 221.0 L63.15 221.0 63.15 208.7 75.0 208.7 88.15 208.7 88.15 221.0 M0.0 196.45 L0.0 184.15 13.15 184.15 13.15 196.45 0.0 196.45 M0.0 135.05 L0.0 122.8 13.15 122.8 25.0 122.8 25.0 135.05 13.15 135.05 0.0 135.05 M0.0 98.2 L0.0 85.95 13.15 85.95 13.15 98.2 0.0 98.2 M0.0 36.85 L0.0 24.55 13.15 24.55 25.0 24.55 25.0 36.85 13.15 36.85 0.0 36.85 M25.0 0.0 L50.0 0.0 50.0 12.3 38.15 12.3 25.0 12.3 25.0 0.0 M75.0 73.65 L75.0 85.95 63.15 85.95 50.0 85.95 50.0 73.65 63.15 73.65 75.0 73.65 M25.0 61.4 L38.15 61.4 38.15 73.65 25.0 73.65 13.15 73.65 13.15 61.4 25.0 61.4 M25.0 98.2 L38.15 98.2 50.0 98.2 50.0 110.5 38.15 110.5 25.0 110.5 25.0 98.2 M63.15 110.5 L75.0 110.5 88.15 110.5 88.15 122.8 75.0 122.8 63.15 122.8 63.15 110.5 M63.15 135.05 L63.15 147.35 50.0 147.35 38.15 147.35 38.15 135.05 50.0 135.05 63.15 135.05 M25.0 159.6 L38.15 159.6 38.15 171.9 25.0 171.9 13.15 171.9 13.15 159.6 25.0 159.6 M25.0 196.45 L38.15 196.45 50.0 196.45 50.0 208.7 38.15 208.7 25.0 208.7 25.0 196.45 M63.15 171.9 L75.0 171.9 75.0 184.15 63.15 184.15 50.0 184.15 50.0 171.9 63.15 171.9" fill="#c05936" fill-rule="evenodd" stroke="none"/>
    <path d="M88.15 24.55 L100.0 24.55 100.0 36.85 88.15 36.85 75.0 36.85 75.0 24.55 88.15 24.55 M63.15 12.3 L63.15 24.55 50.0 24.55 38.15 24.55 38.15 12.3 50.0 12.3 63.15 12.3 M100.0 61.4 L100.0 73.65 88.15 73.65 88.15 61.4 100.0 61.4 M100.0 122.8 L100.0 135.05 88.15 135.05 75.0 135.05 75.0 122.8 88.15 122.8 100.0 122.8 M100.0 159.6 L100.0 171.9 88.15 171.9 88.15 159.6 100.0 159.6 M63.15 221.0 L38.15 221.0 38.15 208.7 50.0 208.7 63.15 208.7 63.15 221.0 M0.0 208.7 L0.0 196.45 13.15 196.45 25.0 196.45 25.0 208.7 13.15 208.7 0.0 208.7 M0.0 171.9 L0.0 159.6 13.15 159.6 13.15 171.9 0.0 171.9 M0.0 110.5 L0.0 98.2 13.15 98.2 25.0 98.2 25.0 110.5 13.15 110.5 0.0 110.5 M0.0 73.65 L0.0 61.4 13.15 61.4 13.15 73.65 0.0 73.65 M0.0 12.3 L0.0 0.0 25.0 0.0 25.0 12.3 13.15 12.3 0.0 12.3 M75.0 49.1 L75.0 61.4 63.15 61.4 50.0 61.4 50.0 49.1 63.15 49.1 75.0 49.1 M75.0 85.95 L88.15 85.95 88.15 98.2 75.0 98.2 63.15 98.2 63.15 85.95 75.0 85.95 M25.0 36.85 L38.15 36.85 38.15 49.1 25.0 49.1 13.15 49.1 13.15 36.85 25.0 36.85 M38.15 73.65 L50.0 73.65 50.0 85.95 38.15 85.95 25.0 85.95 25.0 73.65 38.15 73.65 M50.0 110.5 L63.15 110.5 63.15 122.8 50.0 122.8 38.15 122.8 38.15 110.5 50.0 110.5 M63.15 147.35 L75.0 147.35 75.0 159.6 63.15 159.6 50.0 159.6 50.0 147.35 63.15 147.35 M25.0 135.05 L38.15 135.05 38.15 147.35 25.0 147.35 13.15 147.35 13.15 135.05 25.0 135.05 M25.0 171.9 L38.15 171.9 50.0 171.9 50.0 184.15 38.15 184.15 25.0 184.15 25.0 171.9 M63.15 184.15 L75.0 184.15 88.15 184.15 88.15 196.45 75.0 196.45 63.15 196.45 63.15 184.15" fill="#9f492d" fill-rule="evenodd" stroke="none"/>
    <path d="M100.0 12.3 L88.15 12.3 75.0 12.3 75.0 0.0 100.0 0.0 100.0 12.3 M63.15 24.55 L75.0 24.55 75.0 36.85 63.15 36.85 50.0 36.85 50.0 24.55 63.15 24.55 M100.0 36.85 L100.0 49.1 88.15 49.1 88.15 36.85 100.0 36.85 M100.0 98.2 L100.0 110.5 88.15 110.5 75.0 110.5 75.0 98.2 88.15 98.2 100.0 98.2 M100.0 135.05 L100.0 147.35 88.15 147.35 88.15 135.05 100.0 135.05 M100.0 196.45 L100.0 208.7 88.15 208.7 75.0 208.7 75.0 196.45 88.15 196.45 100.0 196.45 M38.15 221.0 L13.15 221.0 13.15 208.7 25.0 208.7 38.15 208.7 38.15 221.0 M0.0 184.15 L0.0 171.9 13.15 171.9 25.0 171.9 25.0 184.15 13.15 184.15 0.0 184.15 M0.0 147.35 L0.0 135.05 13.15 135.05 13.15 147.35 0.0 147.35 M0.0 85.95 L0.0 73.65 13.15 73.65 25.0 73.65 25.0 85.95 13.15 85.95 0.0 85.95 M0.0 49.1 L0.0 36.85 13.15 36.85 13.15 49.1 0.0 49.1 M75.0 61.4 L88.15 61.4 88.15 73.65 75.0 73.65 63.15 73.65 63.15 61.4 75.0 61.4 M50.0 49.1 L50.0 61.4 38.15 61.4 25.0 61.4 25.0 49.1 38.15 49.1 50.0 49.1 M38.15 12.3 L38.15 24.55 25.0 24.55 13.15 24.55 13.15 12.3 25.0 12.3 38.15 12.3 M38.15 85.95 L50.0 85.95 63.15 85.95 63.15 98.2 50.0 98.2 38.15 98.2 38.15 85.95 M63.15 122.8 L75.0 122.8 75.0 135.05 63.15 135.05 50.0 135.05 50.0 122.8 63.15 122.8 M50.0 147.35 L50.0 159.6 38.15 159.6 25.0 159.6 25.0 147.35 38.15 147.35 50.0 147.35 M63.15 159.6 L75.0 159.6 88.15 159.6 88.15 171.9 75.0 171.9 63.15 171.9 63.15 159.6 M38.15 122.8 L25.0 122.8 13.15 122.8 13.15 110.5 25.0 110.5 38.15 110.5 38.15 122.8 M38.15 196.45 L38.15 184.15 50.0 184.15 63.15 184.15 63.15 196.45 50.0 196.45 38.15 196.45" fill="#af5232" fill-rule="evenodd" stroke="none"/>
    <path d="M88.15 49.1 L75.0 49.1 63.15 49.1 63.15 36.85 75.0 36.85 88.15 36.85 88.15 49.1" fill="#b75433" fill-rule="evenodd" stroke="none"/>
    <path d="M50.0 24.55 L50.0 36.85 38.15 36.85 25.0 36.85 25.0 24.55 38.15 24.55 50.0 24.55 M50.0 122.8 L50.0 135.05 38.15 135.05 25.0 135.05 25.0 122.8 38.15 122.8 50.0 122.8" fill="#853e25" fill-rule="evenodd" stroke="none"/>
  </g>
</svg>
