<?xml version="1.0" encoding="UTF-8" standalone="no"?>
<svg xmlns:ffdec="https://www.free-decompiler.com/flash" xmlns:xlink="http://www.w3.org/1999/xlink" ffdec:objectType="shape" height="221.0px" width="100.0px" xmlns="http://www.w3.org/2000/svg">
  <g transform="matrix(1.0, 0.0, 0.0, 1.0, 0.0, 0.0)">
    <path d="M96.65 20.85 L96.65 16.5 96.65 2.65 100.0 0.0 100.0 39.6 50.0 39.6 53.05 37.2 53.15 37.2 70.0 37.2 78.15 37.2 96.65 37.2 96.65 20.85 M82.95 11.7 Q82.0 12.65 80.65 12.65 79.3 12.65 78.35 11.7 77.4 10.75 77.4 9.4 77.4 8.05 78.35 7.1 79.3 6.15 80.65 6.15 82.0 6.15 82.95 7.1 83.9 8.05 83.9 9.4 83.9 10.75 82.95 11.7 M92.4 33.45 Q92.4 34.15 91.85 34.65 91.35 35.2 90.65 35.2 89.95 35.2 89.4 34.65 88.9 34.15 88.9 33.45 88.9 32.75 89.4 32.2 89.95 31.7 90.65 31.7 91.35 31.7 91.85 32.2 92.4 32.75 92.4 33.45 M96.65 95.7 L96.65 81.85 100.0 79.2 100.0 118.8 50.0 118.8 53.05 116.4 53.15 116.4 70.0 116.4 78.15 116.4 96.65 116.4 96.65 100.05 96.65 95.7 M70.3 102.75 L70.85 103.2 Q71.9 104.25 71.9 105.7 71.9 107.15 70.85 108.15 69.85 109.2 68.4 109.2 66.95 109.2 65.9 108.15 65.35 107.6 65.1 106.85 L64.9 105.7 Q64.9 104.25 65.9 103.2 66.95 102.2 68.4 102.2 69.45 102.2 70.3 102.75 M80.9 23.95 Q80.9 24.65 80.35 25.15 79.85 25.7 79.15 25.7 78.45 25.7 77.9 25.15 77.4 24.65 77.4 23.95 77.4 23.25 77.9 22.7 78.45 22.2 79.15 22.2 79.85 22.2 80.35 22.7 80.9 23.25 80.9 23.95 M46.65 42.25 L50.0 39.6 50.0 79.2 0.0 79.2 3.05 76.75 3.15 76.75 20.0 76.75 28.15 76.75 46.65 76.75 46.65 60.4 46.65 56.1 46.65 42.25 M60.05 25.85 Q60.7 25.2 61.65 25.2 62.6 25.2 63.25 25.85 63.9 26.5 63.9 27.45 63.9 28.4 63.25 29.05 62.6 29.7 61.65 29.7 60.7 29.7 60.05 29.05 59.4 28.4 59.4 27.45 59.4 26.5 60.05 25.85 M9.1 44.55 L9.35 45.45 Q9.35 46.15 8.8 46.65 8.3 47.2 7.6 47.2 L6.45 46.75 6.35 46.65 Q5.85 46.15 5.85 45.45 5.85 44.75 6.35 44.2 6.9 43.7 7.6 43.7 8.3 43.7 8.8 44.2 L9.1 44.55 M50.0 118.8 L50.0 158.4 0.0 158.4 3.05 155.95 3.15 155.95 20.0 155.95 28.15 155.95 46.65 155.95 46.65 139.6 46.65 135.25 46.65 121.45 50.0 118.8 M100.0 158.4 L100.0 198.0 50.0 198.0 53.05 195.6 53.15 195.6 57.25 195.6 56.45 195.1 Q55.9 194.55 55.9 193.7 L55.95 193.3 Q56.05 192.7 56.45 192.25 57.05 191.7 57.9 191.7 L57.95 191.7 Q58.75 191.7 59.3 192.25 59.9 192.85 59.9 193.7 59.9 194.55 59.3 195.1 L58.55 195.6 70.0 195.6 78.15 195.6 96.65 195.6 96.65 179.25 96.65 174.85 96.65 161.05 100.0 158.4 M50.0 221.0 L46.65 221.0 46.65 218.75 46.65 214.45 46.65 200.65 50.0 198.0 50.0 221.0 M38.4 51.2 Q39.65 51.2 40.5 52.05 41.4 52.95 41.4 54.2 41.4 55.45 40.5 56.3 39.65 57.2 38.4 57.2 37.15 57.2 36.25 56.3 35.4 55.45 35.4 54.2 35.4 52.95 36.25 52.05 37.15 51.2 38.4 51.2 M18.25 64.8 Q19.0 64.95 19.55 65.5 20.35 66.3 20.35 67.45 20.35 68.6 19.55 69.4 18.75 70.2 17.6 70.2 16.45 70.2 15.65 69.4 14.85 68.6 14.85 67.45 14.85 66.3 15.65 65.5 16.45 64.7 17.6 64.7 L18.25 64.8 M59.8 89.6 Q59.25 90.2 58.4 90.2 57.55 90.2 56.95 89.6 56.4 89.05 56.4 88.2 56.4 87.35 56.95 86.75 57.55 86.2 58.4 86.2 59.25 86.2 59.8 86.75 60.4 87.35 60.4 88.2 60.4 89.05 59.8 89.6 M79.15 90.2 Q78.45 90.2 77.9 89.65 77.4 89.15 77.4 88.45 77.4 87.75 77.9 87.2 78.45 86.7 79.15 86.7 79.85 86.7 80.35 87.2 80.9 87.75 80.9 88.45 80.9 89.15 80.35 89.65 79.85 90.2 79.15 90.2 M35.55 130.25 L34.85 131.15 Q34.15 131.9 33.2 132.15 L32.4 132.2 Q30.95 132.2 29.9 131.15 28.9 130.15 28.9 128.7 28.9 127.25 29.9 126.2 30.95 125.2 32.4 125.2 33.85 125.2 34.85 126.2 35.9 127.25 35.9 128.7 L35.55 130.25 M13.35 139.2 Q14.6 139.2 15.45 140.05 16.35 140.95 16.35 142.2 16.35 143.45 15.45 144.3 14.6 145.2 13.35 145.2 12.1 145.2 11.2 144.3 10.35 143.45 10.35 142.2 10.35 140.95 11.2 140.05 12.1 139.2 13.35 139.2 M37.45 147.75 L37.4 147.45 Q37.4 146.75 37.9 146.2 38.45 145.7 39.15 145.7 L39.7 145.8 40.35 146.2 Q40.9 146.75 40.9 147.45 40.9 148.15 40.35 148.65 39.85 149.2 39.15 149.2 38.45 149.2 37.9 148.65 37.5 148.25 37.45 147.75 M74.1 162.2 Q75.2 162.25 76.0 163.05 76.9 163.95 76.9 165.2 76.9 166.45 76.0 167.3 75.15 168.2 73.9 168.2 72.65 168.2 71.75 167.3 70.9 166.45 70.9 165.2 L70.95 164.85 Q71.05 163.8 71.75 163.05 72.65 162.2 73.9 162.2 L74.1 162.2 M88.3 102.2 Q89.15 102.25 89.75 102.85 90.4 103.5 90.4 104.45 90.4 105.4 89.75 106.05 89.1 106.7 88.15 106.7 87.2 106.7 86.55 106.05 85.9 105.4 85.9 104.45 L85.95 104.05 Q86.05 103.35 86.55 102.85 87.2 102.2 88.15 102.2 L88.3 102.2 M88.1 181.55 L87.45 181.1 Q86.9 180.55 86.9 179.7 86.9 178.85 87.45 178.25 88.05 177.7 88.9 177.7 89.75 177.7 90.3 178.25 L90.9 179.35 90.9 179.7 Q90.9 180.55 90.3 181.1 89.75 181.7 88.9 181.7 L88.1 181.55 M22.45 210.45 Q22.45 211.4 21.75 212.05 21.1 212.75 20.15 212.75 19.2 212.75 18.5 212.05 17.85 211.4 17.85 210.45 17.85 209.5 18.5 208.8 19.2 208.15 20.15 208.15 21.1 208.15 21.75 208.8 22.45 209.5 22.45 210.45" fill="#c1b791" fill-rule="evenodd" stroke="none"/>
    <path d="M96.65 16.5 L96.65 20.85 78.15 37.2 70.0 37.2 96.65 16.5 M82.95 11.7 Q83.9 10.75 83.9 9.4 83.9 8.05 82.95 7.1 82.0 6.15 80.65 6.15 79.3 6.15 78.35 7.1 77.4 8.05 77.4 9.4 77.4 10.75 78.35 11.7 79.3 12.65 80.65 12.65 82.0 12.65 82.95 11.7 M96.65 95.7 L96.65 100.05 78.15 116.4 70.0 116.4 85.95 104.05 85.9 104.45 Q85.9 105.4 86.55 106.05 87.2 106.7 88.15 106.7 89.1 106.7 89.75 106.05 90.4 105.4 90.4 104.45 90.4 103.5 89.75 102.85 89.15 102.25 88.3 102.2 L96.65 95.7 M96.65 81.85 L70.3 102.75 Q69.45 102.2 68.4 102.2 66.95 102.2 65.9 103.2 64.9 104.25 64.9 105.7 L65.1 106.85 53.15 116.3 53.15 100.45 75.45 81.85 96.65 81.85 M61.8 2.65 L53.15 10.0 53.15 2.65 61.8 2.65 M53.15 21.25 L75.45 2.65 96.65 2.65 53.15 37.1 53.15 21.25 M46.65 56.1 L46.65 60.4 28.15 76.75 20.0 76.75 46.65 56.1 M60.05 25.85 Q59.4 26.5 59.4 27.45 59.4 28.4 60.05 29.05 60.7 29.7 61.65 29.7 62.6 29.7 63.25 29.05 63.9 28.4 63.9 27.45 63.9 26.5 63.25 25.85 62.6 25.2 61.65 25.2 60.7 25.2 60.05 25.85 M9.1 44.55 L8.8 44.2 Q8.3 43.7 7.6 43.7 6.9 43.7 6.35 44.2 5.85 44.75 5.85 45.45 5.85 46.15 6.35 46.65 L6.45 46.75 3.15 49.55 3.15 42.25 11.8 42.25 9.1 44.55 M3.15 60.8 L25.45 42.25 46.65 42.25 18.25 64.8 17.6 64.7 Q16.45 64.7 15.65 65.5 14.85 66.3 14.85 67.45 L3.15 76.7 3.15 60.8 M44.15 221.0 L38.25 221.0 46.65 214.45 46.65 218.75 44.15 221.0 M21.0 221.0 L3.15 221.0 3.15 219.15 25.45 200.65 46.65 200.65 21.0 221.0 M46.65 135.25 L46.65 139.6 39.7 145.8 39.15 145.7 Q38.45 145.7 37.9 146.2 37.4 146.75 37.4 147.45 L37.45 147.75 28.15 155.95 20.0 155.95 46.65 135.25 M96.65 174.85 L96.65 179.25 78.15 195.6 70.0 195.6 88.1 181.55 88.9 181.7 Q89.75 181.7 90.3 181.1 90.9 180.55 90.9 179.7 L90.9 179.35 96.65 174.85 M57.95 191.7 L57.9 191.7 Q57.05 191.7 56.45 192.25 56.05 192.7 55.95 193.3 L53.15 195.5 53.15 179.6 70.95 164.85 70.9 165.2 Q70.9 166.45 71.75 167.3 72.65 168.2 73.9 168.2 75.15 168.2 76.0 167.3 76.9 166.45 76.9 165.2 76.9 163.95 76.0 163.05 75.2 162.25 74.1 162.2 L75.45 161.05 96.65 161.05 57.95 191.7 M53.15 89.2 L53.15 81.85 61.8 81.85 53.15 89.2 M79.15 90.2 Q79.85 90.2 80.35 89.65 80.9 89.15 80.9 88.45 80.9 87.75 80.35 87.2 79.85 86.7 79.15 86.7 78.45 86.7 77.9 87.2 77.4 87.75 77.4 88.45 77.4 89.15 77.9 89.65 78.45 90.2 79.15 90.2 M3.15 128.75 L3.15 121.45 11.8 121.45 3.15 128.75 M25.45 121.45 L46.65 121.45 35.55 130.25 35.9 128.7 Q35.9 127.25 34.85 126.2 33.85 125.2 32.4 125.2 30.95 125.2 29.9 126.2 28.9 127.25 28.9 128.7 28.9 130.15 29.9 131.15 30.95 132.2 32.4 132.2 L33.2 132.15 3.15 155.9 3.15 140.0 25.45 121.45 M13.35 139.2 Q12.1 139.2 11.2 140.05 10.35 140.95 10.35 142.2 10.35 143.45 11.2 144.3 12.1 145.2 13.35 145.2 14.6 145.2 15.45 144.3 16.35 143.45 16.35 142.2 16.35 140.95 15.45 140.05 14.6 139.2 13.35 139.2 M61.8 161.05 L53.15 168.4 53.15 161.05 61.8 161.05 M22.45 210.45 Q22.45 209.5 21.75 208.8 21.1 208.15 20.15 208.15 19.2 208.15 18.5 208.8 17.85 209.5 17.85 210.45 17.85 211.4 18.5 212.05 19.2 212.75 20.15 212.75 21.1 212.75 21.75 212.05 22.45 211.4 22.45 210.45 M3.15 207.95 L3.15 200.65 11.8 200.65 3.15 207.95" fill="#cdc4a5" fill-rule="evenodd" stroke="none"/>
    <path d="M96.65 20.85 L96.65 37.2 78.15 37.2 96.65 20.85 M70.0 37.2 L53.15 37.2 53.15 37.1 96.65 2.65 96.65 16.5 70.0 37.2 M92.4 33.45 Q92.4 32.75 91.85 32.2 91.35 31.7 90.65 31.7 89.95 31.7 89.4 32.2 88.9 32.75 88.9 33.45 88.9 34.15 89.4 34.65 89.95 35.2 90.65 35.2 91.35 35.2 91.85 34.65 92.4 34.15 92.4 33.45 M96.65 81.85 L96.65 95.7 88.3 102.2 88.15 102.2 Q87.2 102.2 86.55 102.85 86.05 103.35 85.95 104.05 L70.0 116.4 53.15 116.4 53.15 116.3 65.1 106.85 Q65.35 107.6 65.9 108.15 66.95 109.2 68.4 109.2 69.85 109.2 70.85 108.15 71.9 107.15 71.9 105.7 71.9 104.25 70.85 103.2 L70.3 102.75 96.65 81.85 M96.65 100.05 L96.65 116.4 78.15 116.4 96.65 100.05 M80.9 23.95 Q80.9 23.25 80.35 22.7 79.85 22.2 79.15 22.2 78.45 22.2 77.9 22.7 77.4 23.25 77.4 23.95 77.4 24.65 77.9 25.15 78.45 25.7 79.15 25.7 79.85 25.7 80.35 25.15 80.9 24.65 80.9 23.95 M61.8 2.65 L75.45 2.65 53.15 21.25 53.15 10.0 61.8 2.65 M46.65 42.25 L46.65 56.1 20.0 76.75 3.15 76.75 3.15 76.7 14.85 67.45 Q14.85 68.6 15.65 69.4 16.45 70.2 17.6 70.2 18.75 70.2 19.55 69.4 20.35 68.6 20.35 67.45 20.35 66.3 19.55 65.5 19.0 64.95 18.25 64.8 L46.65 42.25 M46.65 60.4 L46.65 76.75 28.15 76.75 46.65 60.4 M6.45 46.75 L7.6 47.2 Q8.3 47.2 8.8 46.65 9.35 46.15 9.35 45.45 L9.1 44.55 11.8 42.25 25.45 42.25 3.15 60.8 3.15 49.55 6.45 46.75 M46.65 221.0 L44.15 221.0 46.65 218.75 46.65 221.0 M38.25 221.0 L21.0 221.0 46.65 200.65 46.65 214.45 38.25 221.0 M46.65 121.45 L46.65 135.25 20.0 155.95 3.15 155.95 3.15 155.9 33.2 132.15 Q34.15 131.9 34.85 131.15 L35.55 130.25 46.65 121.45 M46.65 139.6 L46.65 155.95 28.15 155.95 37.45 147.75 Q37.5 148.25 37.9 148.65 38.45 149.2 39.15 149.2 39.85 149.2 40.35 148.65 40.9 148.15 40.9 147.45 40.9 146.75 40.35 146.2 L39.7 145.8 46.65 139.6 M96.65 161.05 L96.65 174.85 90.9 179.35 90.3 178.25 Q89.75 177.7 88.9 177.7 88.05 177.7 87.45 178.25 86.9 178.85 86.9 179.7 86.9 180.55 87.45 181.1 L88.1 181.55 70.0 195.6 58.55 195.6 59.3 195.1 Q59.9 194.55 59.9 193.7 59.9 192.85 59.3 192.25 58.75 191.7 57.95 191.7 L96.65 161.05 M96.65 179.25 L96.65 195.6 78.15 195.6 96.65 179.25 M55.95 193.3 L55.9 193.7 Q55.9 194.55 56.45 195.1 L57.25 195.6 53.15 195.6 53.15 195.5 55.95 193.3 M38.4 51.2 Q37.15 51.2 36.25 52.05 35.4 52.95 35.4 54.2 35.4 55.45 36.25 56.3 37.15 57.2 38.4 57.2 39.65 57.2 40.5 56.3 41.4 55.45 41.4 54.2 41.4 52.95 40.5 52.05 39.65 51.2 38.4 51.2 M59.8 89.6 Q60.4 89.05 60.4 88.2 60.4 87.35 59.8 86.75 59.25 86.2 58.4 86.2 57.55 86.2 56.95 86.75 56.4 87.35 56.4 88.2 56.4 89.05 56.95 89.6 57.55 90.2 58.4 90.2 59.25 90.2 59.8 89.6 M61.8 81.85 L75.45 81.85 53.15 100.45 53.15 89.2 61.8 81.85 M11.8 121.45 L25.45 121.45 3.15 140.0 3.15 128.75 11.8 121.45 M70.95 164.85 L53.15 179.6 53.15 168.4 61.8 161.05 75.45 161.05 74.1 162.2 73.9 162.2 Q72.65 162.2 71.75 163.05 71.05 163.8 70.95 164.85 M11.8 200.65 L25.45 200.65 3.15 219.15 3.15 207.95 11.8 200.65" fill="#c9bf9e" fill-rule="evenodd" stroke="none"/>
    <path d="M53.15 37.2 L53.05 37.2 50.0 39.6 50.0 0.0 100.0 0.0 96.65 2.65 75.45 2.65 61.8 2.65 53.15 2.65 53.15 10.0 53.15 21.25 53.15 37.1 53.15 37.2 M50.0 79.2 L100.0 79.2 96.65 81.85 75.45 81.85 61.8 81.85 53.15 81.85 53.15 89.2 53.15 100.45 53.15 116.3 53.15 116.4 53.05 116.4 50.0 118.8 50.0 79.2 M0.0 39.6 L50.0 39.6 46.65 42.25 25.45 42.25 11.8 42.25 3.15 42.25 3.15 49.55 3.15 60.8 3.15 76.7 3.15 76.75 3.05 76.75 0.0 79.2 0.0 39.6 M3.15 221.0 L0.0 221.0 0.0 198.0 50.0 198.0 46.65 200.65 25.45 200.65 11.8 200.65 3.15 200.65 3.15 207.95 3.15 219.15 3.15 221.0 M0.0 158.4 L0.0 118.8 50.0 118.8 46.65 121.45 25.45 121.45 11.8 121.45 3.15 121.45 3.15 128.75 3.15 140.0 3.15 155.9 3.15 155.95 3.05 155.95 0.0 158.4 M50.0 158.4 L100.0 158.4 96.65 161.05 75.45 161.05 61.8 161.05 53.15 161.05 53.15 168.4 53.15 179.6 53.15 195.5 53.15 195.6 53.05 195.6 50.0 198.0 50.0 158.4" fill="#d5cdb3" fill-rule="evenodd" stroke="none"/>
    <path d="M89.2 48.2 L88.9 48.2 Q88.3 48.2 87.85 47.75 87.4 47.3 87.4 46.7 87.4 46.1 87.85 45.65 88.3 45.2 88.9 45.2 89.5 45.2 89.95 45.65 90.4 46.1 90.4 46.7 L90.3 47.3 89.95 47.75 89.2 48.2 M96.65 42.25 L100.0 39.6 100.0 79.2 50.0 79.2 53.05 76.75 53.15 76.75 70.0 76.75 78.15 76.75 96.65 76.75 96.65 60.4 96.65 56.1 96.65 42.25 M85.05 70.65 L85.0 70.6 Q83.9 69.5 83.9 67.95 83.9 66.4 85.0 65.3 86.1 64.2 87.65 64.2 89.2 64.2 90.3 65.3 L90.65 65.7 Q91.4 66.65 91.4 67.95 91.4 69.5 90.3 70.6 89.2 71.7 87.65 71.7 86.15 71.7 85.05 70.65 M46.65 20.85 L46.65 16.5 46.65 2.65 50.0 0.0 50.0 39.6 0.0 39.6 3.05 37.2 3.15 37.2 20.0 37.2 28.15 37.2 46.65 37.2 46.65 20.85 M30.8 13.05 Q29.7 14.15 28.15 14.15 26.6 14.15 25.5 13.05 24.4 11.95 24.4 10.4 24.4 8.85 25.5 7.75 26.6 6.65 28.15 6.65 29.7 6.65 30.8 7.75 31.9 8.85 31.9 10.4 31.9 11.95 30.8 13.05 M9.35 10.65 Q9.35 11.25 8.9 11.7 8.45 12.15 7.85 12.15 7.25 12.15 6.8 11.7 6.35 11.25 6.35 10.65 6.35 10.05 6.8 9.6 7.25 9.15 7.85 9.15 8.45 9.15 8.9 9.6 9.35 10.05 9.35 10.65 M16.8 26.35 L17.6 26.9 Q18.45 27.75 18.45 28.9 18.45 30.05 17.6 30.85 16.8 31.7 15.65 31.7 14.5 31.7 13.65 30.85 13.05 30.25 12.9 29.4 L12.85 28.9 Q12.85 27.75 13.65 26.9 14.5 26.1 15.65 26.1 L16.8 26.35 M36.65 29.7 Q37.55 29.8 38.15 30.4 38.9 31.15 38.9 32.2 38.9 33.25 38.15 33.95 37.45 34.7 36.4 34.7 35.35 34.7 34.6 33.95 33.9 33.25 33.9 32.2 L33.9 32.1 Q33.95 31.1 34.6 30.4 35.35 29.7 36.4 29.7 L36.65 29.7 M0.0 118.8 L3.05 116.4 3.15 116.4 20.0 116.4 28.15 116.4 46.65 116.4 46.65 100.05 46.65 95.7 46.65 81.85 50.0 79.2 50.0 118.8 0.0 118.8 M50.0 158.4 L53.05 155.95 53.15 155.95 70.0 155.95 78.15 155.95 96.65 155.95 96.65 139.6 96.65 135.25 96.65 121.45 100.0 118.8 100.0 158.4 50.0 158.4 50.0 198.0 0.0 198.0 3.05 195.6 3.15 195.6 20.0 195.6 28.15 195.6 46.65 195.6 46.65 179.25 46.65 174.85 46.65 161.05 50.0 158.4 M100.0 198.0 L100.0 221.0 94.15 221.0 96.65 218.75 96.65 214.45 96.65 200.65 100.0 198.0 M12.8 85.7 Q13.35 86.25 13.35 86.95 13.35 87.65 12.8 88.15 12.3 88.7 11.6 88.7 10.9 88.7 10.35 88.15 9.85 87.65 9.85 86.95 9.85 86.25 10.35 85.7 10.9 85.2 11.6 85.2 12.3 85.2 12.8 85.7 M25.9 95.7 Q24.25 95.7 23.05 94.5 21.9 93.35 21.9 91.7 21.9 90.05 23.05 88.85 24.25 87.7 25.9 87.7 27.55 87.7 28.7 88.85 29.9 90.05 29.9 91.7 29.9 93.35 28.7 94.5 27.55 95.7 25.9 95.7 M73.65 53.7 Q74.8 53.7 75.6 54.5 76.4 55.3 76.4 56.45 76.4 57.6 75.6 58.4 74.8 59.2 73.65 59.2 72.5 59.2 71.7 58.4 70.9 57.6 70.9 56.45 70.9 55.3 71.7 54.5 72.5 53.7 73.65 53.7 M62.85 61.7 Q63.4 62.25 63.4 62.95 63.4 63.65 62.85 64.15 62.35 64.7 61.65 64.7 60.95 64.7 60.4 64.15 59.9 63.65 59.9 62.95 59.9 62.25 60.4 61.7 60.95 61.2 61.65 61.2 62.35 61.2 62.85 61.7 M65.4 142.7 Q64.8 142.7 64.35 142.25 63.9 141.8 63.9 141.2 63.9 140.6 64.35 140.15 64.8 139.7 65.4 139.7 66.0 139.7 66.45 140.15 66.9 140.6 66.9 141.2 L66.45 142.25 65.4 142.7 M39.3 114.1 Q38.75 114.7 37.9 114.7 37.05 114.7 36.45 114.1 35.9 113.55 35.9 112.7 35.9 111.85 36.45 111.25 37.05 110.7 37.9 110.7 38.75 110.7 39.3 111.25 39.9 111.85 39.9 112.7 39.9 113.55 39.3 114.1 M12.75 108.7 L12.85 109.45 Q12.85 110.4 12.2 111.05 11.55 111.7 10.6 111.7 L9.4 111.35 9.0 111.05 Q8.35 110.4 8.35 109.45 8.35 108.5 9.0 107.85 9.65 107.2 10.6 107.2 11.55 107.2 12.2 107.85 L12.75 108.7 M36.15 167.2 Q35.45 167.2 34.9 166.65 34.4 166.15 34.4 165.45 34.4 164.75 34.9 164.2 35.45 163.7 36.15 163.7 36.85 163.7 37.35 164.2 37.9 164.75 37.9 165.45 37.9 166.15 37.35 166.65 36.85 167.2 36.15 167.2 M9.9 174.0 L8.8 173.25 Q7.85 172.3 7.85 170.95 7.85 169.6 8.8 168.65 9.75 167.7 11.1 167.7 12.45 167.7 13.4 168.65 14.1 169.35 14.3 170.35 L14.35 170.95 Q14.35 172.3 13.4 173.25 12.45 174.2 11.1 174.2 L9.9 174.0 M15.5 185.75 L15.35 184.7 Q15.35 183.25 16.35 182.2 17.4 181.2 18.85 181.2 19.85 181.2 20.65 181.7 L21.3 182.2 Q22.35 183.25 22.35 184.7 22.35 186.15 21.3 187.15 20.3 188.2 18.85 188.2 17.4 188.2 16.35 187.15 15.75 186.55 15.5 185.75 M39.35 180.55 L39.4 180.95 Q39.4 181.65 38.85 182.15 38.35 182.7 37.65 182.7 L36.85 182.5 36.4 182.15 Q35.9 181.65 35.9 180.95 35.9 180.25 36.4 179.7 36.95 179.2 37.65 179.2 38.35 179.2 38.85 179.7 L39.35 180.55 M81.9 133.15 L81.65 132.95 Q80.4 131.7 80.4 129.95 80.4 128.2 81.65 126.95 82.9 125.7 84.65 125.7 86.4 125.7 87.65 126.95 L88.45 128.0 Q88.9 128.85 88.9 129.95 88.9 131.7 87.65 132.95 86.4 134.2 84.65 134.2 83.05 134.2 81.9 133.15 M85.9 149.1 L85.05 148.55 Q84.4 147.9 84.4 146.95 84.4 146.0 85.05 145.35 85.7 144.7 86.65 144.7 87.6 144.7 88.25 145.35 88.75 145.85 88.85 146.5 L88.9 146.95 Q88.9 147.9 88.25 148.55 87.6 149.2 86.65 149.2 L85.9 149.1" fill="#a89b60" fill-rule="evenodd" stroke="none"/>
    <path d="M50.0 39.6 L100.0 39.6 96.65 42.25 75.45 42.25 61.8 42.25 53.15 42.25 53.15 49.55 53.15 60.8 53.15 76.7 53.15 76.75 53.05 76.75 50.0 79.2 50.0 39.6 M50.0 118.8 L100.0 118.8 96.65 121.45 75.45 121.45 61.8 121.45 53.15 121.45 53.15 128.75 53.15 140.0 53.15 155.9 53.15 155.95 53.05 155.95 50.0 158.4 50.0 118.8 M3.15 37.2 L3.05 37.2 0.0 39.6 0.0 0.0 50.0 0.0 46.65 2.65 25.45 2.65 11.8 2.65 3.15 2.65 3.15 10.0 3.15 21.25 3.15 37.1 3.15 37.2 M0.0 79.2 L50.0 79.2 46.65 81.85 25.45 81.85 11.8 81.85 3.15 81.85 3.15 89.2 3.15 100.45 3.15 116.3 3.15 116.4 3.05 116.4 0.0 118.8 0.0 79.2 M53.15 221.0 L50.0 221.0 50.0 198.0 100.0 198.0 96.65 200.65 75.45 200.65 61.8 200.65 53.15 200.65 53.15 207.95 53.15 219.15 53.15 221.0 M0.0 198.0 L0.0 158.4 50.0 158.4 46.65 161.05 25.45 161.05 11.8 161.05 3.15 161.05 3.15 168.4 3.15 179.6 3.15 195.5 3.15 195.6 3.05 195.6 0.0 198.0" fill="#b7ac7b" fill-rule="evenodd" stroke="none"/>
    <path d="M90.3 47.3 L96.65 42.25 96.65 56.1 70.0 76.75 53.15 76.75 53.15 76.7 89.2 48.2 89.95 47.75 90.3 47.3 M75.45 42.25 L53.15 60.8 53.15 49.55 61.8 42.25 75.45 42.25 M96.65 60.4 L96.65 76.75 78.15 76.75 85.05 70.65 Q86.15 71.7 87.65 71.7 89.2 71.7 90.3 70.6 91.4 69.5 91.4 67.95 91.4 66.65 90.65 65.7 L96.65 60.4 M46.65 20.85 L46.65 37.2 28.15 37.2 33.9 32.1 33.9 32.2 Q33.9 33.25 34.6 33.95 35.35 34.7 36.4 34.7 37.45 34.7 38.15 33.95 38.9 33.25 38.9 32.2 38.9 31.15 38.15 30.4 37.55 29.8 36.65 29.7 L46.65 20.85 M20.0 37.2 L3.15 37.2 3.15 37.1 12.9 29.4 Q13.05 30.25 13.65 30.85 14.5 31.7 15.65 31.7 16.8 31.7 17.6 30.85 18.45 30.05 18.45 28.9 18.45 27.75 17.6 26.9 L16.8 26.35 46.65 2.65 46.65 16.5 20.0 37.2 M9.35 10.65 Q9.35 10.05 8.9 9.6 8.45 9.15 7.85 9.15 7.25 9.15 6.8 9.6 6.35 10.05 6.35 10.65 6.35 11.25 6.8 11.7 7.25 12.15 7.85 12.15 8.45 12.15 8.9 11.7 9.35 11.25 9.35 10.65 M11.8 2.65 L25.45 2.65 3.15 21.25 3.15 10.0 Q7.5 6.35 11.8 2.65 M3.15 116.4 L3.15 116.3 9.4 111.35 10.6 111.7 Q11.55 111.7 12.2 111.05 12.85 110.4 12.85 109.45 L12.75 108.7 46.65 81.85 46.65 95.7 20.0 116.4 3.15 116.4 M3.15 100.45 L3.15 89.2 Q7.5 85.55 11.8 81.85 L25.45 81.85 3.15 100.45 M53.15 155.95 L53.15 155.9 81.9 133.15 Q83.05 134.2 84.65 134.2 86.4 134.2 87.65 132.95 88.9 131.7 88.9 129.95 88.9 128.85 88.45 128.0 L96.65 121.45 96.65 135.25 70.0 155.95 53.15 155.95 M53.15 140.0 L53.15 128.75 61.8 121.45 75.45 121.45 53.15 140.0 M94.15 221.0 L88.25 221.0 96.65 214.45 96.65 218.75 94.15 221.0 M70.95 221.0 L53.15 221.0 53.15 219.15 75.45 200.65 96.65 200.65 70.95 221.0 M12.8 85.7 Q12.3 85.2 11.6 85.2 10.9 85.2 10.35 85.7 9.85 86.25 9.85 86.95 9.85 87.65 10.35 88.15 10.9 88.7 11.6 88.7 12.3 88.7 12.8 88.15 13.35 87.65 13.35 86.95 13.35 86.25 12.8 85.7 M46.65 100.05 L46.65 116.4 28.15 116.4 46.65 100.05 M39.3 114.1 Q39.9 113.55 39.9 112.7 39.9 111.85 39.3 111.25 38.75 110.7 37.9 110.7 37.05 110.7 36.45 111.25 35.9 111.85 35.9 112.7 35.9 113.55 36.45 114.1 37.05 114.7 37.9 114.7 38.75 114.7 39.3 114.1 M3.15 168.4 Q7.5 164.75 11.8 161.05 L25.45 161.05 14.3 170.35 Q14.1 169.35 13.4 168.65 12.45 167.7 11.1 167.7 9.75 167.7 8.8 168.65 7.85 169.6 7.85 170.95 7.85 172.3 8.8 173.25 L9.9 174.0 3.15 179.6 3.15 168.4 M3.15 195.5 L15.5 185.75 Q15.75 186.55 16.35 187.15 17.4 188.2 18.85 188.2 20.3 188.2 21.3 187.15 22.35 186.15 22.35 184.7 22.35 183.25 21.3 182.2 L20.65 181.7 46.65 161.05 46.65 174.85 39.35 180.55 38.85 179.7 Q38.35 179.2 37.65 179.2 36.95 179.2 36.4 179.7 35.9 180.25 35.9 180.95 35.9 181.65 36.4 182.15 L36.85 182.5 20.0 195.6 3.15 195.6 3.15 195.5 M46.65 179.25 L46.65 195.6 28.15 195.6 46.65 179.25 M96.65 139.6 L96.65 155.95 78.15 155.95 85.9 149.1 86.65 149.2 Q87.6 149.2 88.25 148.55 88.9 147.9 88.9 146.95 L88.85 146.5 96.65 139.6 M53.15 207.95 L53.15 200.65 61.8 200.65 53.15 207.95" fill="#afa36d" fill-rule="evenodd" stroke="none"/>
    <path d="M90.3 47.3 L90.4 46.7 Q90.4 46.1 89.95 45.65 89.5 45.2 88.9 45.2 88.3 45.2 87.85 45.65 87.4 46.1 87.4 46.7 87.4 47.3 87.85 47.75 88.3 48.2 88.9 48.2 L89.2 48.2 53.15 76.7 53.15 60.8 75.45 42.25 96.65 42.25 90.3 47.3 M96.65 56.1 L96.65 60.4 90.65 65.7 90.3 65.3 Q89.2 64.2 87.65 64.2 86.1 64.2 85.0 65.3 83.9 66.4 83.9 67.95 83.9 69.5 85.0 70.6 L85.05 70.65 78.15 76.75 70.0 76.75 96.65 56.1 M46.65 16.5 L46.65 20.85 36.65 29.7 36.4 29.7 Q35.35 29.7 34.6 30.4 33.95 31.1 33.9 32.1 L28.15 37.2 20.0 37.2 46.65 16.5 M61.8 42.25 L53.15 49.55 53.15 42.25 61.8 42.25 M30.8 13.05 Q31.9 11.95 31.9 10.4 31.9 8.85 30.8 7.75 29.7 6.65 28.15 6.65 26.6 6.65 25.5 7.75 24.4 8.85 24.4 10.4 24.4 11.95 25.5 13.05 26.6 14.15 28.15 14.15 29.7 14.15 30.8 13.05 M3.15 10.0 L3.15 2.65 11.8 2.65 Q7.5 6.35 3.15 10.0 M25.45 2.65 L46.65 2.65 16.8 26.35 15.65 26.1 Q14.5 26.1 13.65 26.9 12.85 27.75 12.85 28.9 L12.9 29.4 3.15 37.1 3.15 21.25 25.45 2.65 M3.15 116.3 L3.15 100.45 25.45 81.85 46.65 81.85 12.75 108.7 12.2 107.85 Q11.55 107.2 10.6 107.2 9.65 107.2 9.0 107.85 8.35 108.5 8.35 109.45 8.35 110.4 9.0 111.05 L9.4 111.35 3.15 116.3 M3.15 89.2 L3.15 81.85 11.8 81.85 Q7.5 85.55 3.15 89.2 M53.15 155.9 L53.15 140.0 75.45 121.45 96.65 121.45 88.45 128.0 87.65 126.95 Q86.4 125.7 84.65 125.7 82.9 125.7 81.65 126.95 80.4 128.2 80.4 129.95 80.4 131.7 81.65 132.95 L81.9 133.15 53.15 155.9 M53.15 128.75 L53.15 121.45 61.8 121.45 53.15 128.75 M88.25 221.0 L70.95 221.0 96.65 200.65 96.65 214.45 88.25 221.0 M25.9 95.7 Q27.55 95.7 28.7 94.5 29.9 93.35 29.9 91.7 29.9 90.05 28.7 88.85 27.55 87.7 25.9 87.7 24.25 87.7 23.05 88.85 21.9 90.05 21.9 91.7 21.9 93.35 23.05 94.5 24.25 95.7 25.9 95.7 M62.85 61.7 Q62.35 61.2 61.65 61.2 60.95 61.2 60.4 61.7 59.9 62.25 59.9 62.95 59.9 63.65 60.4 64.15 60.95 64.7 61.65 64.7 62.35 64.7 62.85 64.15 63.4 63.65 63.4 62.95 63.4 62.25 62.85 61.7 M73.65 53.7 Q72.5 53.7 71.7 54.5 70.9 55.3 70.9 56.45 70.9 57.6 71.7 58.4 72.5 59.2 73.65 59.2 74.8 59.2 75.6 58.4 76.4 57.6 76.4 56.45 76.4 55.3 75.6 54.5 74.8 53.7 73.65 53.7 M46.65 95.7 L46.65 100.05 28.15 116.4 20.0 116.4 46.65 95.7 M65.4 142.7 L66.45 142.25 66.9 141.2 Q66.9 140.6 66.45 140.15 66.0 139.7 65.4 139.7 64.8 139.7 64.35 140.15 63.9 140.6 63.9 141.2 63.9 141.8 64.35 142.25 64.8 142.7 65.4 142.7 M36.15 167.2 Q36.85 167.2 37.35 166.65 37.9 166.15 37.9 165.45 37.9 164.75 37.35 164.2 36.85 163.7 36.15 163.7 35.45 163.7 34.9 164.2 34.4 164.75 34.4 165.45 34.4 166.15 34.9 166.65 35.45 167.2 36.15 167.2 M3.15 168.4 L3.15 161.05 11.8 161.05 Q7.5 164.75 3.15 168.4 M25.45 161.05 L46.65 161.05 20.65 181.7 Q19.85 181.2 18.85 181.2 17.4 181.2 16.35 182.2 15.35 183.25 15.35 184.7 L15.5 185.75 3.15 195.5 3.15 179.6 9.9 174.0 11.1 174.2 Q12.45 174.2 13.4 173.25 14.35 172.3 14.35 170.95 L14.3 170.35 25.45 161.05 M46.65 174.85 L46.65 179.25 28.15 195.6 20.0 195.6 36.85 182.5 37.65 182.7 Q38.35 182.7 38.85 182.15 39.4 181.65 39.4 180.95 L39.35 180.55 46.65 174.85 M78.15 155.95 L70.0 155.95 96.65 135.25 96.65 139.6 88.85 146.5 Q88.75 145.85 88.25 145.35 87.6 144.7 86.65 144.7 85.7 144.7 85.05 145.35 84.4 146.0 84.4 146.95 84.4 147.9 85.05 148.55 L85.9 149.1 78.15 155.95 M61.8 200.65 L75.45 200.65 53.15 219.15 53.15 207.95 61.8 200.65" fill="#b4a976" fill-rule="evenodd" stroke="none"/>
  </g>
</svg>
