<?xml version="1.0" encoding="UTF-8" standalone="no"?>
<svg xmlns:ffdec="https://www.free-decompiler.com/flash" xmlns:xlink="http://www.w3.org/1999/xlink" ffdec:objectType="shape" height="221.0px" width="100.0px" xmlns="http://www.w3.org/2000/svg">
  <g transform="matrix(1.0, 0.0, 0.0, 1.0, 0.0, 0.0)">
    <path d="M81.9 27.2 Q81.9 26.6 81.45 26.15 81.0 25.7 80.4 25.7 79.8 25.7 79.35 26.15 78.9 26.6 78.9 27.2 78.9 27.8 79.35 28.25 79.8 28.7 80.4 28.7 81.0 28.7 81.45 28.25 L81.9 27.2 M92.4 31.95 Q92.4 32.9 93.05 33.55 93.7 34.2 94.65 34.2 95.6 34.2 96.25 33.55 96.9 32.9 96.9 31.95 96.9 31.0 96.25 30.35 95.6 29.7 94.65 29.7 93.7 29.7 93.05 30.35 92.4 31.0 92.4 31.95 M88.6 20.9 Q89.4 20.1 89.4 18.95 89.4 17.8 88.6 17.0 87.8 16.2 86.65 16.2 85.5 16.2 84.7 17.0 83.9 17.8 83.9 18.95 83.9 20.1 84.7 20.9 85.5 21.7 86.65 21.7 87.8 21.7 88.6 20.9 M96.65 6.45 Q97.4 5.75 97.4 4.7 97.4 3.65 96.65 2.9 95.95 2.2 94.9 2.2 93.85 2.2 93.1 2.9 92.4 3.65 92.4 4.7 92.4 5.75 93.1 6.45 93.85 7.2 94.9 7.2 95.95 7.2 96.65 6.45 M50.0 0.0 L100.0 0.0 100.0 36.85 50.0 36.85 50.0 0.0 M100.0 86.85 L100.0 136.85 50.0 136.85 50.0 186.85 0.0 186.85 0.0 136.85 50.0 136.85 50.0 86.85 0.0 86.85 0.0 36.85 50.0 36.85 50.0 86.85 100.0 86.85 M100.0 186.85 L100.0 221.0 50.0 221.0 50.0 186.85 100.0 186.85 M77.3 92.6 Q77.9 92.05 77.9 91.2 77.9 90.35 77.3 89.75 76.75 89.2 75.9 89.2 75.05 89.2 74.45 89.75 73.9 90.35 73.9 91.2 73.9 92.05 74.45 92.6 75.05 93.2 75.9 93.2 76.75 93.2 77.3 92.6 M63.7 96.4 Q64.5 97.2 65.65 97.2 66.8 97.2 67.6 96.4 68.4 95.6 68.4 94.45 68.4 93.3 67.6 92.5 66.8 91.7 65.65 91.7 64.5 91.7 63.7 92.5 62.9 93.3 62.9 94.45 62.9 95.6 63.7 96.4 M45.35 58.75 Q45.8 59.2 46.4 59.2 47.0 59.2 47.45 58.75 47.9 58.3 47.9 57.7 47.9 57.1 47.45 56.65 47.0 56.2 46.4 56.2 45.8 56.2 45.35 56.65 44.9 57.1 44.9 57.7 44.9 58.3 45.35 58.75 M24.95 78.75 Q24.4 79.35 24.4 80.2 24.4 81.05 24.95 81.6 25.55 82.2 26.4 82.2 27.25 82.2 27.8 81.6 28.4 81.05 28.4 80.2 28.4 79.35 27.8 78.75 27.25 78.2 26.4 78.2 25.55 78.2 24.95 78.75 M8.35 79.75 Q7.75 79.15 6.9 79.15 6.05 79.15 5.45 79.75 4.85 80.35 4.85 81.2 4.85 82.05 5.45 82.65 6.05 83.25 6.9 83.25 7.75 83.25 8.35 82.65 8.95 82.05 8.95 81.2 8.95 80.35 8.35 79.75 M6.75 58.6 Q7.35 58.05 7.35 57.2 7.35 56.35 6.75 55.75 6.2 55.2 5.35 55.2 4.5 55.2 3.9 55.75 3.35 56.35 3.35 57.2 3.35 58.05 3.9 58.6 4.5 59.2 5.35 59.2 6.2 59.2 6.75 58.6 M38.15 72.7 Q37.0 72.7 36.2 73.5 35.4 74.3 35.4 75.45 35.4 76.6 36.2 77.4 37.0 78.2 38.15 78.2 39.3 78.2 40.1 77.4 40.9 76.6 40.9 75.45 40.9 74.3 40.1 73.5 39.3 72.7 38.15 72.7 M22.4 65.95 Q22.4 65.0 21.75 64.35 21.1 63.7 20.15 63.7 19.2 63.7 18.55 64.35 17.9 65.0 17.9 65.95 17.9 66.9 18.55 67.55 19.2 68.2 20.15 68.2 21.1 68.2 21.75 67.55 22.4 66.9 22.4 65.95 M34.45 60.65 Q34.0 60.2 33.4 60.2 32.8 60.2 32.35 60.65 31.9 61.1 31.9 61.7 31.9 62.3 32.35 62.75 32.8 63.2 33.4 63.2 34.0 63.2 34.45 62.75 L34.9 61.7 Q34.9 61.1 34.45 60.65 M37.9 46.7 Q37.05 46.7 36.45 47.25 35.9 47.85 35.9 48.7 35.9 49.55 36.45 50.1 37.05 50.7 37.9 50.7 38.75 50.7 39.3 50.1 39.9 49.55 39.9 48.7 39.9 47.85 39.3 47.25 38.75 46.7 37.9 46.7 M28.4 42.2 Q28.4 43.05 28.95 43.6 29.55 44.2 30.4 44.2 31.25 44.2 31.8 43.6 32.4 43.05 32.4 42.2 32.4 41.35 31.8 40.75 31.25 40.2 30.4 40.2 29.55 40.2 28.95 40.75 28.4 41.35 28.4 42.2 M14.75 45.85 Q14.1 45.2 13.15 45.2 12.2 45.2 11.55 45.85 10.9 46.5 10.9 47.45 10.9 48.4 11.55 49.05 12.2 49.7 13.15 49.7 14.1 49.7 14.75 49.05 15.4 48.4 15.4 47.45 15.4 46.5 14.75 45.85 M62.4 31.95 Q62.4 32.9 63.05 33.55 63.7 34.2 64.65 34.2 65.6 34.2 66.25 33.55 66.9 32.9 66.9 31.95 66.9 31.0 66.25 30.35 65.6 29.7 64.65 29.7 63.7 29.7 63.05 30.35 62.4 31.0 62.4 31.95 M54.15 28.2 Q54.65 28.2 55.0 27.8 55.4 27.45 55.4 26.95 55.4 26.45 55.0 26.05 54.65 25.7 54.15 25.7 53.65 25.7 53.25 26.05 52.9 26.45 52.9 26.95 52.9 27.45 53.25 27.8 53.65 28.2 54.15 28.2 M57.35 5.15 Q57.9 4.65 57.9 3.95 57.9 3.25 57.35 2.7 56.85 2.2 56.15 2.2 55.45 2.2 54.9 2.7 54.4 3.25 54.4 3.95 54.4 4.65 54.9 5.15 55.45 5.7 56.15 5.7 56.85 5.7 57.35 5.15 M69.15 17.95 Q69.9 17.25 69.9 16.2 69.9 15.15 69.15 14.4 68.45 13.7 67.4 13.7 66.35 13.7 65.6 14.4 64.9 15.15 64.9 16.2 64.9 17.25 65.6 17.95 66.35 18.7 67.4 18.7 68.45 18.7 69.15 17.95 M67.0 7.8 Q67.4 7.45 67.4 6.95 67.4 6.45 67.0 6.05 66.65 5.7 66.15 5.7 65.65 5.7 65.25 6.05 64.9 6.45 64.9 6.95 64.9 7.45 65.25 7.8 65.65 8.2 66.15 8.2 66.65 8.2 67.0 7.8 M76.15 6.2 Q76.85 6.2 77.35 5.65 77.9 5.15 77.9 4.45 77.9 3.75 77.35 3.2 76.85 2.7 76.15 2.7 75.45 2.7 74.9 3.2 74.4 3.75 74.4 4.45 74.4 5.15 74.9 5.65 75.45 6.2 76.15 6.2 M86.5 98.8 Q87.4 97.95 87.4 96.7 87.4 95.45 86.5 94.55 85.65 93.7 84.4 93.7 83.15 93.7 82.25 94.55 81.4 95.45 81.4 96.7 81.4 97.95 82.25 98.8 83.15 99.7 84.4 99.7 85.65 99.7 86.5 98.8 M77.35 188.7 Q76.85 188.2 76.15 188.2 75.45 188.2 74.9 188.7 74.4 189.25 74.4 189.95 74.4 190.65 74.9 191.15 75.45 191.7 76.15 191.7 76.85 191.7 77.35 191.15 77.9 190.65 77.9 189.95 77.9 189.25 77.35 188.7 M64.9 192.45 Q64.9 192.95 65.25 193.3 65.65 193.7 66.15 193.7 66.65 193.7 67.0 193.3 67.4 192.95 67.4 192.45 67.4 191.95 67.0 191.55 66.65 191.2 66.15 191.2 65.65 191.2 65.25 191.55 64.9 191.95 64.9 192.45 M56.15 191.2 Q56.85 191.2 57.35 190.65 57.9 190.15 57.9 189.45 57.9 188.75 57.35 188.2 56.85 187.7 56.15 187.7 55.45 187.7 54.9 188.2 54.4 188.75 54.4 189.45 54.4 190.15 54.9 190.65 55.45 191.2 56.15 191.2 M45.35 158.75 Q45.8 159.2 46.4 159.2 47.0 159.2 47.45 158.75 47.9 158.3 47.9 157.7 47.9 157.1 47.45 156.65 47.0 156.2 46.4 156.2 45.8 156.2 45.35 156.65 44.9 157.1 44.9 157.7 44.9 158.3 45.35 158.75 M26.4 182.2 Q27.25 182.2 27.8 181.6 28.4 181.05 28.4 180.2 28.4 179.35 27.8 178.75 27.25 178.2 26.4 178.2 25.55 178.2 24.95 178.75 24.4 179.35 24.4 180.2 24.4 181.05 24.95 181.6 25.55 182.2 26.4 182.2 M36.2 173.5 Q35.4 174.3 35.4 175.45 35.4 176.6 36.2 177.4 37.0 178.2 38.15 178.2 39.3 178.2 40.1 177.4 40.9 176.6 40.9 175.45 40.9 174.3 40.1 173.5 39.3 172.7 38.15 172.7 37.0 172.7 36.2 173.5 M8.35 179.75 Q7.75 179.15 6.9 179.15 6.05 179.15 5.45 179.75 4.85 180.35 4.85 181.2 4.85 182.05 5.45 182.65 6.05 183.25 6.9 183.25 7.75 183.25 8.35 182.65 8.95 182.05 8.95 181.2 8.95 180.35 8.35 179.75 M7.35 157.2 Q7.35 156.35 6.75 155.75 6.2 155.2 5.35 155.2 4.5 155.2 3.9 155.75 3.35 156.35 3.35 157.2 3.35 158.05 3.9 158.6 4.5 159.2 5.35 159.2 6.2 159.2 6.75 158.6 7.35 158.05 7.35 157.2 M21.75 167.55 Q22.4 166.9 22.4 165.95 22.4 165.0 21.75 164.35 21.1 163.7 20.15 163.7 19.2 163.7 18.55 164.35 17.9 165.0 17.9 165.95 17.9 166.9 18.55 167.55 19.2 168.2 20.15 168.2 21.1 168.2 21.75 167.55 M34.45 160.65 Q34.0 160.2 33.4 160.2 32.8 160.2 32.35 160.65 31.9 161.1 31.9 161.7 31.9 162.3 32.35 162.75 32.8 163.2 33.4 163.2 34.0 163.2 34.45 162.75 L34.9 161.7 Q34.9 161.1 34.45 160.65 M37.9 146.7 Q37.05 146.7 36.45 147.25 35.9 147.85 35.9 148.7 35.9 149.55 36.45 150.1 37.05 150.7 37.9 150.7 38.75 150.7 39.3 150.1 39.9 149.55 39.9 148.7 39.9 147.85 39.3 147.25 38.75 146.7 37.9 146.7 M28.95 140.75 Q28.4 141.35 28.4 142.2 28.4 143.05 28.95 143.6 29.55 144.2 30.4 144.2 31.25 144.2 31.8 143.6 32.4 143.05 32.4 142.2 32.4 141.35 31.8 140.75 31.25 140.2 30.4 140.2 29.55 140.2 28.95 140.75 M15.4 147.45 Q15.4 146.5 14.75 145.85 14.1 145.2 13.15 145.2 12.2 145.2 11.55 145.85 10.9 146.5 10.9 147.45 10.9 148.4 11.55 149.05 12.2 149.7 13.15 149.7 14.1 149.7 14.75 149.05 15.4 148.4 15.4 147.45 M64.65 134.2 Q65.6 134.2 66.25 133.55 66.9 132.9 66.9 131.95 66.9 131.0 66.25 130.35 65.6 129.7 64.65 129.7 63.7 129.7 63.05 130.35 62.4 131.0 62.4 131.95 62.4 132.9 63.05 133.55 63.7 134.2 64.65 134.2 M79.35 126.15 Q78.9 126.6 78.9 127.2 78.9 127.8 79.35 128.25 79.8 128.7 80.4 128.7 81.0 128.7 81.45 128.25 L81.9 127.2 Q81.9 126.6 81.45 126.15 81.0 125.7 80.4 125.7 79.8 125.7 79.35 126.15 M54.15 128.2 Q54.65 128.2 55.0 127.8 55.4 127.45 55.4 126.95 55.4 126.45 55.0 126.05 54.65 125.7 54.15 125.7 53.65 125.7 53.25 126.05 52.9 126.45 52.9 126.95 52.9 127.45 53.25 127.8 53.65 128.2 54.15 128.2 M57.35 105.15 Q57.9 104.65 57.9 103.95 57.9 103.25 57.35 102.7 56.85 102.2 56.15 102.2 55.45 102.2 54.9 102.7 54.4 103.25 54.4 103.95 54.4 104.65 54.9 105.15 55.45 105.7 56.15 105.7 56.85 105.7 57.35 105.15 M67.4 118.7 Q68.45 118.7 69.15 117.95 69.9 117.25 69.9 116.2 69.9 115.15 69.15 114.4 68.45 113.7 67.4 113.7 66.35 113.7 65.6 114.4 64.9 115.15 64.9 116.2 64.9 117.25 65.6 117.95 66.35 118.7 67.4 118.7 M67.0 107.8 Q67.4 107.45 67.4 106.95 67.4 106.45 67.0 106.05 66.65 105.7 66.15 105.7 65.65 105.7 65.25 106.05 64.9 106.45 64.9 106.95 64.9 107.45 65.25 107.8 65.65 108.2 66.15 108.2 66.65 108.2 67.0 107.8 M77.35 103.2 Q76.85 102.7 76.15 102.7 75.45 102.7 74.9 103.2 74.4 103.75 74.4 104.45 74.4 105.15 74.9 105.65 75.45 106.2 76.15 106.2 76.85 106.2 77.35 105.65 77.9 105.15 77.9 104.45 77.9 103.75 77.35 103.2 M97.4 190.2 Q97.4 189.15 96.65 188.4 95.95 187.7 94.9 187.7 93.85 187.7 93.1 188.4 92.4 189.15 92.4 190.2 92.4 191.25 93.1 191.95 93.85 192.7 94.9 192.7 95.95 192.7 96.65 191.95 97.4 191.25 97.4 190.2 M94.65 134.2 Q95.6 134.2 96.25 133.55 96.9 132.9 96.9 131.95 96.9 131.0 96.25 130.35 95.6 129.7 94.65 129.7 93.7 129.7 93.05 130.35 92.4 131.0 92.4 131.95 92.4 132.9 93.05 133.55 93.7 134.2 94.65 134.2 M86.65 121.7 Q87.8 121.7 88.6 120.9 89.4 120.1 89.4 118.95 89.4 117.8 88.6 117.0 87.8 116.2 86.65 116.2 85.5 116.2 84.7 117.0 83.9 117.8 83.9 118.95 83.9 120.1 84.7 120.9 85.5 121.7 86.65 121.7 M94.9 102.2 Q93.85 102.2 93.1 102.9 92.4 103.65 92.4 104.7 92.4 105.75 93.1 106.45 93.85 107.2 94.9 107.2 95.95 107.2 96.65 106.45 97.4 105.75 97.4 104.7 97.4 103.65 96.65 102.9 95.95 102.2 94.9 102.2 M54.15 213.7 Q54.65 213.7 55.0 213.3 55.4 212.95 55.4 212.45 55.4 211.95 55.0 211.55 54.65 211.2 54.15 211.2 53.65 211.2 53.25 211.55 52.9 211.95 52.9 212.45 52.9 212.95 53.25 213.3 53.65 213.7 54.15 213.7 M62.4 217.45 Q62.4 218.4 63.05 219.05 63.7 219.7 64.65 219.7 65.6 219.7 66.25 219.05 66.9 218.4 66.9 217.45 66.9 216.5 66.25 215.85 65.6 215.2 64.65 215.2 63.7 215.2 63.05 215.85 62.4 216.5 62.4 217.45 M67.4 204.2 Q68.45 204.2 69.15 203.45 69.9 202.75 69.9 201.7 69.9 200.65 69.15 199.9 68.45 199.2 67.4 199.2 66.35 199.2 65.6 199.9 64.9 200.65 64.9 201.7 64.9 202.75 65.6 203.45 66.35 204.2 67.4 204.2 M93.05 219.05 Q93.7 219.7 94.65 219.7 95.6 219.7 96.25 219.05 96.9 218.4 96.9 217.45 96.9 216.5 96.25 215.85 95.6 215.2 94.65 215.2 93.7 215.2 93.05 215.85 92.4 216.5 92.4 217.45 92.4 218.4 93.05 219.05 M81.9 212.7 Q81.9 212.1 81.45 211.65 81.0 211.2 80.4 211.2 79.8 211.2 79.35 211.65 78.9 212.1 78.9 212.7 78.9 213.3 79.35 213.75 79.8 214.2 80.4 214.2 81.0 214.2 81.45 213.75 L81.9 212.7 M86.65 207.2 Q87.8 207.2 88.6 206.4 89.4 205.6 89.4 204.45 89.4 203.3 88.6 202.5 87.8 201.7 86.65 201.7 85.5 201.7 84.7 202.5 83.9 203.3 83.9 204.45 83.9 205.6 84.7 206.4 85.5 207.2 86.65 207.2" fill="#eec433" fill-rule="evenodd" stroke="none"/>
    <path d="M100.0 36.85 L100.0 86.85 50.0 86.85 50.0 36.85 100.0 36.85 M100.0 136.85 L100.0 186.85 50.0 186.85 50.0 221.0 0.0 221.0 0.0 186.85 50.0 186.85 50.0 136.85 100.0 136.85 M0.0 136.85 L0.0 86.85 50.0 86.85 50.0 136.85 0.0 136.85 M0.0 36.85 L0.0 0.0 50.0 0.0 50.0 36.85 0.0 36.85" fill="#e6aa2f" fill-rule="evenodd" stroke="none"/>
    <path d="M96.65 6.45 Q95.95 7.2 94.9 7.2 93.85 7.2 93.1 6.45 92.4 5.75 92.4 4.7 92.4 3.65 93.1 2.9 93.85 2.2 94.9 2.2 95.95 2.2 96.65 2.9 97.4 3.65 97.4 4.7 97.4 5.75 96.65 6.45 M88.6 20.9 Q87.8 21.7 86.65 21.7 85.5 21.7 84.7 20.9 83.9 20.1 83.9 18.95 83.9 17.8 84.7 17.0 85.5 16.2 86.65 16.2 87.8 16.2 88.6 17.0 89.4 17.8 89.4 18.95 89.4 20.1 88.6 20.9 M92.4 31.95 Q92.4 31.0 93.05 30.35 93.7 29.7 94.65 29.7 95.6 29.7 96.25 30.35 96.9 31.0 96.9 31.95 96.9 32.9 96.25 33.55 95.6 34.2 94.65 34.2 93.7 34.2 93.05 33.55 92.4 32.9 92.4 31.95 M81.9 27.2 L81.45 28.25 Q81.0 28.7 80.4 28.7 79.8 28.7 79.35 28.25 78.9 27.8 78.9 27.2 78.9 26.6 79.35 26.15 79.8 25.7 80.4 25.7 81.0 25.7 81.45 26.15 81.9 26.6 81.9 27.2 M86.5 98.8 Q85.65 99.7 84.4 99.7 83.15 99.7 82.25 98.8 81.4 97.95 81.4 96.7 81.4 95.45 82.25 94.55 83.15 93.7 84.4 93.7 85.65 93.7 86.5 94.55 87.4 95.45 87.4 96.7 87.4 97.95 86.5 98.8 M76.15 6.2 Q75.45 6.2 74.9 5.65 74.4 5.15 74.4 4.45 74.4 3.75 74.9 3.2 75.45 2.7 76.15 2.7 76.85 2.7 77.35 3.2 77.9 3.75 77.9 4.45 77.9 5.15 77.35 5.65 76.85 6.2 76.15 6.2 M67.0 7.8 Q66.65 8.2 66.15 8.2 65.65 8.2 65.25 7.8 64.9 7.45 64.9 6.95 64.9 6.45 65.25 6.05 65.65 5.7 66.15 5.7 66.65 5.7 67.0 6.05 67.4 6.45 67.4 6.95 67.4 7.45 67.0 7.8 M69.15 17.95 Q68.45 18.7 67.4 18.7 66.35 18.7 65.6 17.95 64.9 17.25 64.9 16.2 64.9 15.15 65.6 14.4 66.35 13.7 67.4 13.7 68.45 13.7 69.15 14.4 69.9 15.15 69.9 16.2 69.9 17.25 69.15 17.95 M57.35 5.15 Q56.85 5.7 56.15 5.7 55.45 5.7 54.9 5.15 54.4 4.65 54.4 3.95 54.4 3.25 54.9 2.7 55.45 2.2 56.15 2.2 56.85 2.2 57.35 2.7 57.9 3.25 57.9 3.95 57.9 4.65 57.35 5.15 M54.15 28.2 Q53.65 28.2 53.25 27.8 52.9 27.45 52.9 26.95 52.9 26.45 53.25 26.05 53.65 25.7 54.15 25.7 54.65 25.7 55.0 26.05 55.4 26.45 55.4 26.95 55.4 27.45 55.0 27.8 54.65 28.2 54.15 28.2 M62.4 31.95 Q62.4 31.0 63.05 30.35 63.7 29.7 64.65 29.7 65.6 29.7 66.25 30.35 66.9 31.0 66.9 31.95 66.9 32.9 66.25 33.55 65.6 34.2 64.65 34.2 63.7 34.2 63.05 33.55 62.4 32.9 62.4 31.95 M14.75 45.85 Q15.4 46.5 15.4 47.45 15.4 48.4 14.75 49.05 14.1 49.7 13.15 49.7 12.2 49.7 11.55 49.05 10.9 48.4 10.9 47.45 10.9 46.5 11.55 45.85 12.2 45.2 13.15 45.2 14.1 45.2 14.75 45.85 M28.4 42.2 Q28.4 41.35 28.95 40.75 29.55 40.2 30.4 40.2 31.25 40.2 31.8 40.75 32.4 41.35 32.4 42.2 32.4 43.05 31.8 43.6 31.25 44.2 30.4 44.2 29.55 44.2 28.95 43.6 28.4 43.05 28.4 42.2 M37.9 46.7 Q38.75 46.7 39.3 47.25 39.9 47.85 39.9 48.7 39.9 49.55 39.3 50.1 38.75 50.7 37.9 50.7 37.05 50.7 36.45 50.1 35.9 49.55 35.9 48.7 35.9 47.85 36.45 47.25 37.05 46.7 37.9 46.7 M34.45 60.65 Q34.9 61.1 34.9 61.7 L34.45 62.75 Q34.0 63.2 33.4 63.2 32.8 63.2 32.35 62.75 31.9 62.3 31.9 61.7 31.9 61.1 32.35 60.65 32.8 60.2 33.4 60.2 34.0 60.2 34.45 60.65 M22.4 65.95 Q22.4 66.9 21.75 67.55 21.1 68.2 20.15 68.2 19.2 68.2 18.55 67.55 17.9 66.9 17.9 65.95 17.9 65.0 18.55 64.35 19.2 63.7 20.15 63.7 21.1 63.7 21.75 64.35 22.4 65.0 22.4 65.95 M38.15 72.7 Q39.3 72.7 40.1 73.5 40.9 74.3 40.9 75.45 40.9 76.6 40.1 77.4 39.3 78.2 38.15 78.2 37.0 78.2 36.2 77.4 35.4 76.6 35.4 75.45 35.4 74.3 36.2 73.5 37.0 72.7 38.15 72.7 M6.75 58.6 Q6.2 59.2 5.35 59.2 4.5 59.2 3.9 58.6 3.35 58.05 3.35 57.2 3.35 56.35 3.9 55.75 4.5 55.2 5.35 55.2 6.2 55.2 6.75 55.75 7.35 56.35 7.35 57.2 7.35 58.05 6.75 58.6 M8.35 79.75 Q8.95 80.35 8.95 81.2 8.95 82.05 8.35 82.65 7.75 83.25 6.9 83.25 6.05 83.25 5.45 82.65 4.85 82.05 4.85 81.2 4.85 80.35 5.45 79.75 6.05 79.15 6.9 79.15 7.75 79.15 8.35 79.75 M24.95 78.75 Q25.55 78.2 26.4 78.2 27.25 78.2 27.8 78.75 28.4 79.35 28.4 80.2 28.4 81.05 27.8 81.6 27.25 82.2 26.4 82.2 25.55 82.2 24.95 81.6 24.4 81.05 24.4 80.2 24.4 79.35 24.95 78.75 M45.35 58.75 Q44.9 58.3 44.9 57.7 44.9 57.1 45.35 56.65 45.8 56.2 46.4 56.2 47.0 56.2 47.45 56.65 47.9 57.1 47.9 57.7 47.9 58.3 47.45 58.75 47.0 59.2 46.4 59.2 45.8 59.2 45.35 58.75 M63.7 96.4 Q62.9 95.6 62.9 94.45 62.9 93.3 63.7 92.5 64.5 91.7 65.65 91.7 66.8 91.7 67.6 92.5 68.4 93.3 68.4 94.45 68.4 95.6 67.6 96.4 66.8 97.2 65.65 97.2 64.5 97.2 63.7 96.4 M77.3 92.6 Q76.75 93.2 75.9 93.2 75.05 93.2 74.45 92.6 73.9 92.05 73.9 91.2 73.9 90.35 74.45 89.75 75.05 89.2 75.9 89.2 76.75 89.2 77.3 89.75 77.9 90.35 77.9 91.2 77.9 92.05 77.3 92.6 M77.35 103.2 Q77.9 103.75 77.9 104.45 77.9 105.15 77.35 105.65 76.85 106.2 76.15 106.2 75.45 106.2 74.9 105.65 74.4 105.15 74.4 104.45 74.4 103.75 74.9 103.2 75.45 102.7 76.15 102.7 76.85 102.7 77.35 103.2 M67.0 107.8 Q66.65 108.2 66.15 108.2 65.65 108.2 65.25 107.8 64.9 107.45 64.9 106.95 64.9 106.45 65.25 106.05 65.65 105.7 66.15 105.7 66.65 105.7 67.0 106.05 67.4 106.45 67.4 106.95 67.4 107.45 67.0 107.8 M67.4 118.7 Q66.35 118.7 65.6 117.95 64.9 117.25 64.9 116.2 64.9 115.15 65.6 114.4 66.35 113.7 67.4 113.7 68.45 113.7 69.15 114.4 69.9 115.15 69.9 116.2 69.9 117.25 69.15 117.95 68.45 118.7 67.4 118.7 M57.35 105.15 Q56.85 105.7 56.15 105.7 55.45 105.7 54.9 105.15 54.4 104.65 54.4 103.95 54.4 103.25 54.9 102.7 55.45 102.2 56.15 102.2 56.85 102.2 57.35 102.7 57.9 103.25 57.9 103.95 57.9 104.65 57.35 105.15 M54.15 128.2 Q53.65 128.2 53.25 127.8 52.9 127.45 52.9 126.95 52.9 126.45 53.25 126.05 53.65 125.7 54.15 125.7 54.65 125.7 55.0 126.05 55.4 126.45 55.4 126.95 55.4 127.45 55.0 127.8 54.65 128.2 54.15 128.2 M79.35 126.15 Q79.8 125.7 80.4 125.7 81.0 125.7 81.45 126.15 81.9 126.6 81.9 127.2 L81.45 128.25 Q81.0 128.7 80.4 128.7 79.8 128.7 79.35 128.25 78.9 127.8 78.9 127.2 78.9 126.6 79.35 126.15 M64.65 134.2 Q63.7 134.2 63.05 133.55 62.4 132.9 62.4 131.95 62.4 131.0 63.05 130.35 63.7 129.7 64.65 129.7 65.6 129.7 66.25 130.35 66.9 131.0 66.9 131.95 66.9 132.9 66.25 133.55 65.6 134.2 64.65 134.2 M15.4 147.45 Q15.4 148.4 14.75 149.05 14.1 149.7 13.15 149.7 12.2 149.7 11.55 149.05 10.9 148.4 10.9 147.45 10.9 146.5 11.55 145.85 12.2 145.2 13.15 145.2 14.1 145.2 14.75 145.85 15.4 146.5 15.4 147.45 M28.95 140.75 Q29.55 140.2 30.4 140.2 31.25 140.2 31.8 140.75 32.4 141.35 32.4 142.2 32.4 143.05 31.8 143.6 31.25 144.2 30.4 144.2 29.55 144.2 28.95 143.6 28.4 143.05 28.4 142.2 28.4 141.35 28.95 140.75 M37.9 146.7 Q38.75 146.7 39.3 147.25 39.9 147.85 39.9 148.7 39.9 149.55 39.3 150.1 38.75 150.7 37.9 150.7 37.05 150.7 36.45 150.1 35.9 149.55 35.9 148.7 35.9 147.85 36.45 147.25 37.05 146.7 37.9 146.7 M34.45 160.65 Q34.9 161.1 34.9 161.7 L34.45 162.75 Q34.0 163.2 33.4 163.2 32.8 163.2 32.35 162.75 31.9 162.3 31.9 161.7 31.9 161.1 32.35 160.65 32.8 160.2 33.4 160.2 34.0 160.2 34.45 160.65 M21.75 167.55 Q21.1 168.2 20.15 168.2 19.2 168.2 18.55 167.55 17.9 166.9 17.9 165.95 17.9 165.0 18.55 164.35 19.2 163.7 20.15 163.7 21.1 163.7 21.75 164.35 22.4 165.0 22.4 165.95 22.4 166.9 21.75 167.55 M7.35 157.2 Q7.35 158.05 6.75 158.6 6.2 159.2 5.35 159.2 4.5 159.2 3.9 158.6 3.35 158.05 3.35 157.2 3.35 156.35 3.9 155.75 4.5 155.2 5.35 155.2 6.2 155.2 6.75 155.75 7.35 156.35 7.35 157.2 M8.35 179.75 Q8.95 180.35 8.95 181.2 8.95 182.05 8.35 182.65 7.75 183.25 6.9 183.25 6.05 183.25 5.45 182.65 4.85 182.05 4.85 181.2 4.85 180.35 5.45 179.75 6.05 179.15 6.9 179.15 7.75 179.15 8.35 179.75 M36.2 173.5 Q37.0 172.7 38.15 172.7 39.3 172.7 40.1 173.5 40.9 174.3 40.9 175.45 40.9 176.6 40.1 177.4 39.3 178.2 38.15 178.2 37.0 178.2 36.2 177.4 35.4 176.6 35.4 175.45 35.4 174.3 36.2 173.5 M26.4 182.2 Q25.55 182.2 24.95 181.6 24.4 181.05 24.4 180.2 24.4 179.35 24.95 178.75 25.55 178.2 26.4 178.2 27.25 178.2 27.8 178.75 28.4 179.35 28.4 180.2 28.4 181.05 27.8 181.6 27.25 182.2 26.4 182.2 M45.35 158.75 Q44.9 158.3 44.9 157.7 44.9 157.1 45.35 156.65 45.8 156.2 46.4 156.2 47.0 156.2 47.45 156.65 47.9 157.1 47.9 157.7 47.9 158.3 47.45 158.75 47.0 159.2 46.4 159.2 45.8 159.2 45.35 158.75 M56.15 191.2 Q55.45 191.2 54.9 190.65 54.4 190.15 54.4 189.45 54.4 188.75 54.9 188.2 55.45 187.7 56.15 187.7 56.85 187.7 57.35 188.2 57.9 188.75 57.9 189.45 57.9 190.15 57.35 190.65 56.85 191.2 56.15 191.2 M64.9 192.45 Q64.9 191.95 65.25 191.55 65.65 191.2 66.15 191.2 66.65 191.2 67.0 191.55 67.4 191.95 67.4 192.45 67.4 192.95 67.0 193.3 66.65 193.7 66.15 193.7 65.65 193.7 65.25 193.3 64.9 192.95 64.9 192.45 M77.35 188.7 Q77.9 189.25 77.9 189.95 77.9 190.65 77.35 191.15 76.85 191.7 76.15 191.7 75.45 191.7 74.9 191.15 74.4 190.65 74.4 189.95 74.4 189.25 74.9 188.7 75.45 188.2 76.15 188.2 76.85 188.2 77.35 188.7 M94.9 102.2 Q95.95 102.2 96.65 102.9 97.4 103.65 97.4 104.7 97.4 105.75 96.65 106.45 95.95 107.2 94.9 107.2 93.85 107.2 93.1 106.45 92.4 105.75 92.4 104.7 92.4 103.65 93.1 102.9 93.85 102.2 94.9 102.2 M86.65 121.7 Q85.5 121.7 84.7 120.9 83.9 120.1 83.9 118.95 83.9 117.8 84.7 117.0 85.5 116.2 86.65 116.2 87.8 116.2 88.6 117.0 89.4 117.8 89.4 118.95 89.4 120.1 88.6 120.9 87.8 121.7 86.65 121.7 M94.65 134.2 Q93.7 134.2 93.05 133.55 92.4 132.9 92.4 131.95 92.4 131.0 93.05 130.35 93.7 129.7 94.65 129.7 95.6 129.7 96.25 130.35 96.9 131.0 96.9 131.95 96.9 132.9 96.25 133.55 95.6 134.2 94.65 134.2 M97.4 190.2 Q97.4 191.25 96.65 191.95 95.95 192.7 94.9 192.7 93.85 192.7 93.1 191.95 92.4 191.25 92.4 190.2 92.4 189.15 93.1 188.4 93.85 187.7 94.9 187.7 95.95 187.7 96.65 188.4 97.4 189.15 97.4 190.2 M86.65 207.2 Q85.5 207.2 84.7 206.4 83.9 205.6 83.9 204.45 83.9 203.3 84.7 202.5 85.5 201.7 86.65 201.7 87.8 201.7 88.6 202.5 89.4 203.3 89.4 204.45 89.4 205.6 88.6 206.4 87.8 207.2 86.65 207.2 M81.9 212.7 L81.45 213.75 Q81.0 214.2 80.4 214.2 79.8 214.2 79.35 213.75 78.9 213.3 78.9 212.7 78.9 212.1 79.35 211.65 79.8 211.2 80.4 211.2 81.0 211.2 81.45 211.65 81.9 212.1 81.9 212.7 M93.05 219.05 Q92.4 218.4 92.4 217.45 92.4 216.5 93.05 215.85 93.7 215.2 94.65 215.2 95.6 215.2 96.25 215.85 96.9 216.5 96.9 217.45 96.9 218.4 96.25 219.05 95.6 219.7 94.65 219.7 93.7 219.7 93.05 219.05 M67.4 204.2 Q66.35 204.2 65.6 203.45 64.9 202.75 64.9 201.7 64.9 200.65 65.6 199.9 66.35 199.2 67.4 199.2 68.45 199.2 69.15 199.9 69.9 200.65 69.9 201.7 69.9 202.75 69.15 203.45 68.45 204.2 67.4 204.2 M62.4 217.45 Q62.4 216.5 63.05 215.85 63.7 215.2 64.65 215.2 65.6 215.2 66.25 215.85 66.9 216.5 66.9 217.45 66.9 218.4 66.25 219.05 65.6 219.7 64.65 219.7 63.7 219.7 63.05 219.05 62.4 218.4 62.4 217.45 M54.15 213.7 Q53.65 213.7 53.25 213.3 52.9 212.95 52.9 212.45 52.9 211.95 53.25 211.55 53.65 211.2 54.15 211.2 54.65 211.2 55.0 211.55 55.4 211.95 55.4 212.45 55.4 212.95 55.0 213.3 54.65 213.7 54.15 213.7" fill="#f9ee71" fill-rule="evenodd" stroke="none"/>
  </g>
</svg>
