<?xml version="1.0" encoding="UTF-8" standalone="no"?>
<svg xmlns:ffdec="https://www.free-decompiler.com/flash" xmlns:xlink="http://www.w3.org/1999/xlink" ffdec:objectType="shape" height="221.0px" width="100.0px" xmlns="http://www.w3.org/2000/svg">
  <g transform="matrix(1.0, 0.0, 0.0, 1.0, 0.0, 0.0)">
    <path d="M100.0 0.0 L100.0 221.0 0.0 221.0 0.0 0.0 100.0 0.0" fill="#a23e02" fill-rule="evenodd" stroke="none"/>
    <path d="M50.0 0.0 L100.0 0.0 100.0 39.1 50.0 39.1 50.0 37.1 50.0 0.0 M100.0 87.1 L100.0 136.85 50.0 135.35 50.0 136.85 50.0 184.6 0.0 185.85 0.0 135.35 50.0 133.85 50.0 87.1 100.0 87.1" fill="#b74602" fill-rule="evenodd" stroke="none"/>
    <path d="M50.0 40.35 L100.0 40.35 100.0 87.1 50.0 87.1 50.0 133.85 0.0 135.35 0.0 86.85 50.0 86.85 50.0 85.35 50.0 40.35 M50.0 136.85 L100.0 138.35 100.0 188.1 50.0 186.85 50.0 221.0 0.0 221.0 0.0 186.85 50.0 186.85 50.0 184.6 50.0 136.85 M0.0 37.1 L0.0 0.0 50.0 0.0 50.0 37.1 0.0 37.1" fill="#c14a02" fill-rule="evenodd" stroke="none"/>
    <path d="M50.0 39.1 L50.0 40.35 50.0 85.35 0.0 85.35 0.0 37.1 50.0 37.1 50.0 39.1 M100.0 188.1 L100.0 221.0 50.0 221.0 50.0 186.85 100.0 188.1" fill="#a84102" fill-rule="evenodd" stroke="none"/>
    <path d="M90.5 55.25 Q89.85 55.9 88.9 55.9 87.95 55.9 87.3 55.25 86.65 54.6 86.65 53.65 86.65 52.7 87.3 52.05 87.95 51.4 88.9 51.4 89.85 51.4 90.5 52.05 91.15 52.7 91.15 53.65 91.15 54.6 90.5 55.25 M17.65 10.15 Q18.2 10.7 18.2 11.4 18.2 12.1 17.65 12.6 17.15 13.15 16.45 13.15 15.75 13.15 15.2 12.6 14.7 12.1 14.7 11.4 14.7 10.7 15.2 10.15 15.75 9.65 16.45 9.65 17.15 9.65 17.65 10.15 M36.95 31.15 Q35.4 31.15 34.3 30.05 33.2 28.95 33.2 27.4 33.2 25.85 34.3 24.75 35.4 23.65 36.95 23.65 38.5 23.65 39.6 24.75 40.7 25.85 40.7 27.4 40.7 28.95 39.6 30.05 38.5 31.15 36.95 31.15 M33.7 98.15 Q33.7 99.0 33.1 99.55 32.55 100.15 31.7 100.15 30.85 100.15 30.25 99.55 29.7 99.0 29.7 98.15 29.7 97.3 30.25 96.7 30.85 96.15 31.7 96.15 32.55 96.15 33.1 96.7 33.7 97.3 33.7 98.15 M64.95 55.85 Q63.6 55.85 62.65 54.9 61.7 53.95 61.7 52.6 61.7 51.25 62.65 50.3 63.6 49.35 64.95 49.35 66.3 49.35 67.25 50.3 68.2 51.25 68.2 52.6 68.2 53.95 67.25 54.9 66.3 55.85 64.95 55.85 M72.0 73.05 Q72.65 73.7 72.65 74.65 72.65 75.6 72.0 76.25 71.35 76.9 70.4 76.9 69.45 76.9 68.8 76.25 68.15 75.6 68.15 74.65 68.15 73.7 68.8 73.05 69.45 72.4 70.4 72.4 71.35 72.4 72.0 73.05 M65.6 148.2 Q66.2 148.8 66.2 149.65 66.2 150.5 65.6 151.05 65.05 151.65 64.2 151.65 63.35 151.65 62.75 151.05 62.2 150.5 62.2 149.65 62.2 148.8 62.75 148.2 63.35 147.65 64.2 147.65 65.05 147.65 65.6 148.2 M14.7 106.4 Q14.7 107.35 14.05 108.0 13.4 108.65 12.45 108.65 11.5 108.65 10.85 108.0 10.2 107.35 10.2 106.4 10.2 105.45 10.85 104.8 11.5 104.15 12.45 104.15 13.4 104.15 14.05 104.8 14.7 105.45 14.7 106.4 M28.3 128.0 Q28.7 128.4 28.7 128.9 28.7 129.4 28.3 129.75 27.95 130.15 27.45 130.15 26.95 130.15 26.55 129.75 26.2 129.4 26.2 128.9 26.2 128.4 26.55 128.0 26.95 127.65 27.45 127.65 27.95 127.65 28.3 128.0 M63.75 171.65 Q63.3 172.1 62.7 172.1 62.1 172.1 61.65 171.65 61.2 171.2 61.2 170.6 61.2 170.0 61.65 169.55 62.1 169.1 62.7 169.1 63.3 169.1 63.75 169.55 64.2 170.0 64.2 170.6 L63.75 171.65 M78.9 169.15 Q77.75 169.15 76.95 168.35 76.15 167.55 76.15 166.4 76.15 165.25 76.95 164.45 77.75 163.65 78.9 163.65 80.05 163.65 80.85 164.45 81.65 165.25 81.65 166.4 81.65 167.55 80.85 168.35 80.05 169.15 78.9 169.15 M43.75 196.7 Q43.3 197.15 42.7 197.15 42.1 197.15 41.65 196.7 41.2 196.25 41.2 195.65 41.2 195.05 41.65 194.6 42.1 194.15 42.7 194.15 43.3 194.15 43.75 194.6 44.2 195.05 44.2 195.65 L43.75 196.7 M86.65 146.4 Q86.65 146.9 86.25 147.25 85.9 147.65 85.4 147.65 84.9 147.65 84.5 147.25 84.15 146.9 84.15 146.4 84.15 145.9 84.5 145.5 84.9 145.15 85.4 145.15 85.9 145.15 86.25 145.5 86.65 145.9 86.65 146.4 M30.2 212.65 Q30.2 213.7 29.45 214.4 28.75 215.15 27.7 215.15 26.65 215.15 25.9 214.4 25.2 213.7 25.2 212.65 25.2 211.6 25.9 210.85 26.65 210.15 27.7 210.15 28.75 210.15 29.45 210.85 30.2 211.6 30.2 212.65 M9.7 203.15 Q9.7 204.2 8.95 204.9 8.25 205.65 7.2 205.65 6.15 205.65 5.4 204.9 4.7 204.2 4.7 203.15 4.7 202.1 5.4 201.35 6.15 200.65 7.2 200.65 8.25 200.65 8.95 201.35 9.7 202.1 9.7 203.15" fill="#b74602" fill-rule="evenodd" stroke="none"/>
    <path d="M82.7 29.2 Q82.25 29.65 81.65 29.65 81.05 29.65 80.6 29.2 80.15 28.75 80.15 28.15 80.15 27.55 80.6 27.1 81.05 26.65 81.65 26.65 82.25 26.65 82.7 27.1 83.15 27.55 83.15 28.15 83.15 28.75 82.7 29.2 M74.85 17.85 Q74.05 18.65 72.9 18.65 71.75 18.65 70.95 17.85 70.15 17.05 70.15 15.9 70.15 14.75 70.95 13.95 71.75 13.15 72.9 13.15 74.05 13.15 74.85 13.95 75.65 14.75 75.65 15.9 75.65 17.05 74.85 17.85 M56.55 31.0 Q55.9 31.65 54.95 31.65 54.0 31.65 53.35 31.0 52.7 30.35 52.7 29.4 52.7 28.45 53.35 27.8 54.0 27.15 54.95 27.15 55.9 27.15 56.55 27.8 57.2 28.45 57.2 29.4 57.2 30.35 56.55 31.0 M71.15 108.15 Q70.3 108.15 69.7 107.55 69.15 107.0 69.15 106.15 69.15 105.3 69.7 104.7 70.3 104.15 71.15 104.15 72.0 104.15 72.55 104.7 73.15 105.3 73.15 106.15 73.15 107.0 72.55 107.55 72.0 108.15 71.15 108.15 M67.85 122.9 Q67.15 122.2 67.15 121.15 67.15 120.1 67.85 119.35 68.6 118.65 69.65 118.65 70.7 118.65 71.4 119.35 72.15 120.1 72.15 121.15 72.15 122.2 71.4 122.9 70.7 123.65 69.65 123.65 68.6 123.65 67.85 122.9 M39.1 145.55 Q38.55 146.15 37.7 146.15 36.85 146.15 36.25 145.55 35.7 145.0 35.7 144.15 35.7 143.3 36.25 142.7 36.85 142.15 37.7 142.15 38.55 142.15 39.1 142.7 39.7 143.3 39.7 144.15 39.7 145.0 39.1 145.55 M15.55 159.3 Q16.2 159.95 16.2 160.9 16.2 161.85 15.55 162.5 14.9 163.15 13.95 163.15 13.0 163.15 12.35 162.5 11.7 161.85 11.7 160.9 11.7 159.95 12.35 159.3 13.0 158.65 13.95 158.65 14.9 158.65 15.55 159.3 M35.75 179.7 Q34.8 180.65 33.45 180.65 32.1 180.65 31.15 179.7 30.2 178.75 30.2 177.4 30.2 176.05 31.15 175.1 32.1 174.15 33.45 174.15 34.8 174.15 35.75 175.1 36.7 176.05 36.7 177.4 36.7 178.75 35.75 179.7 M84.15 109.15 L83.7 110.2 Q83.25 110.65 82.65 110.65 82.05 110.65 81.6 110.2 81.15 109.75 81.15 109.15 81.15 108.55 81.6 108.1 82.05 107.65 82.65 107.65 83.25 107.65 83.7 108.1 84.15 108.55 84.15 109.15" fill="#a84102" fill-rule="evenodd" stroke="none"/>
    <path d="M37.4 55.85 Q36.6 56.65 35.45 56.65 34.3 56.65 33.5 55.85 32.7 55.05 32.7 53.9 32.7 52.75 33.5 51.95 34.3 51.15 35.45 51.15 36.6 51.15 37.4 51.95 38.2 52.75 38.2 53.9 38.2 55.05 37.4 55.85 M24.7 68.9 Q24.7 69.6 24.15 70.1 23.65 70.65 22.95 70.65 22.25 70.65 21.7 70.1 21.2 69.6 21.2 68.9 21.2 68.2 21.7 67.65 22.25 67.15 22.95 67.15 23.65 67.15 24.15 67.65 24.7 68.2 24.7 68.9 M19.05 55.0 Q18.4 55.65 17.45 55.65 16.5 55.65 15.85 55.0 15.2 54.35 15.2 53.4 15.2 52.45 15.85 51.8 16.5 51.15 17.45 51.15 18.4 51.15 19.05 51.8 19.7 52.45 19.7 53.4 19.7 54.35 19.05 55.0 M37.4 77.9 Q36.7 77.2 36.7 76.15 36.7 75.1 37.4 74.35 38.15 73.65 39.2 73.65 40.25 73.65 40.95 74.35 41.7 75.1 41.7 76.15 41.7 77.2 40.95 77.9 40.25 78.65 39.2 78.65 38.15 78.65 37.4 77.9 M74.8 195.3 Q75.45 194.65 76.4 194.65 77.35 194.65 78.0 195.3 78.65 195.95 78.65 196.9 78.65 197.85 78.0 198.5 77.35 199.15 76.4 199.15 75.45 199.15 74.8 198.5 74.15 197.85 74.15 196.9 74.15 195.95 74.8 195.3 M92.55 202.05 Q92.0 202.65 91.15 202.65 90.3 202.65 89.7 202.05 89.15 201.5 89.15 200.65 89.15 199.8 89.7 199.2 90.3 198.65 91.15 198.65 92.0 198.65 92.55 199.2 93.15 199.8 93.15 200.65 93.15 201.5 92.55 202.05 M83.4 214.4 Q82.7 215.15 81.65 215.15 80.6 215.15 79.85 214.4 79.15 213.7 79.15 212.65 79.15 211.6 79.85 210.85 80.6 210.15 81.65 210.15 82.7 210.15 83.4 210.85 84.15 211.6 84.15 212.65 84.15 213.7 83.4 214.4 M63.7 200.65 Q63.7 201.9 62.8 202.75 61.95 203.65 60.7 203.65 59.45 203.65 58.55 202.75 57.7 201.9 57.7 200.65 57.7 199.4 58.55 198.5 59.45 197.65 60.7 197.65 61.95 197.65 62.8 198.5 63.7 199.4 63.7 200.65 M59.15 214.6 Q58.65 215.15 57.95 215.15 57.25 215.15 56.7 214.6 56.2 214.1 56.2 213.4 56.2 212.7 56.7 212.15 57.25 211.65 57.95 211.65 58.65 211.65 59.15 212.15 59.7 212.7 59.7 213.4 59.7 214.1 59.15 214.6" fill="#a23e02" fill-rule="evenodd" stroke="none"/>
  </g>
</svg>
