<?xml version="1.0" encoding="UTF-8" standalone="no"?>
<svg xmlns:ffdec="https://www.free-decompiler.com/flash" xmlns:xlink="http://www.w3.org/1999/xlink" ffdec:objectType="shape" height="221.0px" width="100.0px" xmlns="http://www.w3.org/2000/svg">
  <g transform="matrix(1.0, 0.0, 0.0, 1.0, 0.0, 0.0)">
    <path d="M89.75 0.0 L90.4 8.1 Q91.45 12.75 93.05 17.3 93.6 18.85 93.7 20.65 93.95 25.7 94.55 30.6 95.8 40.45 96.1 50.35 L96.15 58.5 Q95.95 64.5 95.2 70.45 L94.8 74.25 Q93.6 88.35 87.65 101.4 87.0 102.85 86.65 104.2 83.0 89.85 77.2 76.1 75.5 72.05 73.25 68.35 71.5 65.55 70.7 62.35 69.3 56.85 67.5 51.3 L66.85 49.05 66.1 46.35 Q63.45 35.5 61.15 24.45 59.75 17.65 60.75 10.8 L61.05 8.1 61.75 0.0 74.75 0.0 75.15 8.1 Q75.6 11.05 76.45 13.9 80.05 26.2 84.15 38.5 86.8 46.6 86.1 54.95 L85.4 58.5 Q78.9 52.05 77.2 43.4 L73.9 28.3 Q72.85 30.45 73.25 33.45 73.8 37.45 74.65 41.25 76.15 48.2 79.5 54.75 81.1 57.95 84.1 60.45 L86.85 60.5 87.7 59.1 Q89.55 53.75 88.45 48.1 85.7 34.25 81.15 20.55 79.6 15.75 79.45 10.8 L79.5 10.65 78.75 0.0 89.75 0.0 M54.75 0.0 L53.85 8.1 Q54.15 13.85 55.45 19.7 L58.05 31.7 59.95 40.75 60.4 42.35 61.35 45.05 Q65.55 55.1 68.95 65.45 L70.6 70.4 Q72.9 77.05 75.9 83.2 L77.4 86.75 78.55 89.5 Q81.85 97.4 83.9 105.7 86.1 114.55 87.75 123.4 90.0 135.75 90.5 148.2 91.5 172.45 89.85 196.75 89.3 204.4 89.15 212.1 88.9 214.1 89.3 216.0 L89.75 220.9 92.55 220.9 93.25 220.9 96.75 220.9 96.4 216.0 Q96.7 213.7 96.6 211.35 L95.4 196.15 Q94.6 187.75 94.5 179.3 L94.0 163.15 93.15 149.45 Q92.5 141.4 92.25 133.4 92.0 125.4 91.35 117.3 90.9 112.05 91.15 106.8 91.35 103.35 92.3 100.25 94.55 92.95 96.3 85.65 L98.75 73.45 Q99.75 67.0 99.95 60.6 L99.95 54.35 Q99.75 47.0 99.0 39.6 L97.4 21.95 96.25 8.1 96.75 0.0 100.0 0.0 100.0 221.0 59.65 221.0 60.35 220.9 61.75 220.9 61.6 216.0 Q61.65 213.85 61.1 211.65 58.9 203.15 59.5 194.45 60.75 175.8 59.1 157.15 L58.45 149.4 57.75 139.85 Q57.0 128.2 53.55 116.95 51.9 111.7 50.95 106.3 49.85 100.0 47.65 93.8 L46.55 94.25 Q46.95 108.6 46.2 122.7 L46.1 126.75 45.8 152.8 45.75 158.2 45.8 163.8 Q45.75 175.1 44.05 186.4 L41.65 202.1 Q40.9 206.75 39.5 211.3 L38.4 216.0 37.75 220.9 43.75 220.9 43.4 216.0 Q43.65 209.25 44.8 202.45 L47.15 186.65 48.75 171.1 Q49.45 162.6 48.8 154.25 48.1 145.5 48.4 136.85 L48.55 127.45 Q48.45 122.35 50.55 117.75 55.25 142.5 56.05 167.6 56.65 186.8 56.55 206.1 L56.2 210.15 Q55.7 213.1 55.6 216.0 L54.75 220.9 58.45 220.9 59.1 221.0 0.0 221.0 0.0 0.0 8.7 0.0 8.75 8.1 Q11.2 31.65 11.25 55.3 11.25 60.0 10.9 64.7 9.95 76.95 8.6 89.2 6.9 104.45 6.3 119.65 6.15 123.3 6.6 127.0 L6.95 124.45 9.65 105.7 12.0 85.95 Q13.0 76.2 12.95 66.5 12.95 56.8 13.55 48.5 14.0 42.1 13.7 35.8 13.25 27.45 12.2 19.15 11.55 13.65 12.4 8.1 L12.7 0.0 20.7 0.0 20.15 8.1 20.5 11.2 21.7 24.05 Q22.45 32.8 23.5 41.5 24.15 46.85 23.9 52.3 L22.65 74.2 20.6 101.15 19.65 110.8 Q17.0 132.25 11.65 153.25 L10.5 158.75 Q9.35 165.95 8.95 173.1 8.4 183.8 8.45 194.55 L8.45 201.5 Q8.45 208.75 7.85 216.0 L8.7 220.9 12.7 220.9 12.9 216.0 Q13.55 206.8 12.65 197.65 11.95 190.65 12.15 183.7 12.4 176.25 13.2 168.85 L13.5 164.9 Q13.85 155.45 15.9 146.3 L20.3 127.75 Q21.95 120.95 22.6 113.95 L24.35 95.7 25.4 81.15 26.2 59.55 Q26.45 52.8 26.1 46.15 25.55 35.95 24.45 25.8 23.55 17.05 22.95 8.45 L22.9 8.1 23.7 0.0 37.75 0.0 37.45 8.1 37.55 8.8 39.1 16.4 Q41.3 25.75 43.75 34.95 45.8 42.5 48.45 50.0 L53.15 64.4 57.65 80.05 61.75 95.95 Q68.05 121.05 72.15 146.3 75.1 164.7 75.25 183.35 75.4 199.65 74.9 216.0 L74.75 220.9 78.75 220.9 78.15 216.0 Q79.25 205.7 78.6 195.35 78.4 192.7 78.35 189.95 L77.9 172.15 Q77.65 166.35 76.7 160.4 L74.85 148.75 70.45 120.95 Q69.55 115.45 68.3 109.9 L65.2 97.15 61.3 82.95 55.65 64.4 52.6 54.9 Q51.7 52.1 51.45 49.1 50.85 42.35 48.75 35.95 47.0 30.5 45.9 25.0 44.6 18.4 44.05 11.75 L43.65 8.1 43.75 0.0 54.75 0.0 M29.65 37.2 L30.25 41.9 31.05 50.25 33.55 72.75 Q35.55 91.6 35.15 110.35 L34.7 127.15 34.5 133.75 Q34.3 139.75 33.7 145.8 L32.3 157.35 31.0 165.3 30.15 170.05 28.6 178.25 21.9 209.8 20.65 216.0 20.7 220.9 23.7 220.9 23.95 216.0 33.8 169.1 35.45 160.45 36.5 153.0 Q37.25 145.55 37.5 137.95 L38.1 111.25 Q38.25 100.1 37.75 88.9 37.3 79.2 36.35 69.45 L34.4 52.8 32.45 38.5 30.9 27.4 Q28.75 31.75 29.65 37.2" fill="#67170a" fill-rule="evenodd" stroke="none"/>
    <path d="M89.75 0.0 L96.75 0.0 96.25 8.1 97.4 21.95 99.0 39.6 Q99.75 47.0 99.95 54.35 L99.95 60.6 Q99.75 67.0 98.75 73.45 L96.3 85.65 Q94.55 92.95 92.3 100.25 91.35 103.35 91.15 106.8 90.9 112.05 91.35 117.3 92.0 125.4 92.25 133.4 92.5 141.4 93.15 149.45 L94.0 163.15 94.5 179.3 Q94.6 187.75 95.4 196.15 L96.6 211.35 Q96.7 213.7 96.4 216.0 L96.75 220.9 93.25 220.9 92.55 220.9 89.75 220.9 89.3 216.0 Q88.9 214.1 89.15 212.1 89.3 204.4 89.85 196.75 91.5 172.45 90.5 148.2 90.0 135.75 87.75 123.4 86.1 114.55 83.9 105.7 81.85 97.4 78.55 89.5 L77.4 86.75 75.9 83.2 Q72.9 77.05 70.6 70.4 L68.95 65.45 Q65.55 55.1 61.35 45.05 L60.4 42.35 59.95 40.75 58.05 31.7 55.45 19.7 Q54.15 13.85 53.85 8.1 L54.75 0.0 61.75 0.0 61.05 8.1 60.75 10.8 Q59.75 17.65 61.15 24.45 63.45 35.5 66.1 46.35 L66.85 49.05 67.5 51.3 Q69.3 56.85 70.7 62.35 71.5 65.55 73.25 68.35 75.5 72.05 77.2 76.1 83.0 89.85 86.65 104.2 87.0 102.85 87.65 101.4 93.6 88.35 94.8 74.25 L95.2 70.45 Q95.95 64.5 96.15 58.5 L96.1 50.35 Q95.8 40.45 94.55 30.6 93.95 25.7 93.7 20.65 93.6 18.85 93.05 17.3 91.45 12.75 90.4 8.1 L89.75 0.0 M59.65 221.0 L59.1 221.0 58.45 220.9 54.75 220.9 55.6 216.0 Q55.7 213.1 56.2 210.15 L56.55 206.1 Q56.65 186.8 56.05 167.6 55.25 142.5 50.55 117.75 48.45 122.35 48.55 127.45 L48.4 136.85 Q48.1 145.5 48.8 154.25 49.45 162.6 48.75 171.1 L47.15 186.65 44.8 202.45 Q43.65 209.25 43.4 216.0 L43.75 220.9 37.75 220.9 38.4 216.0 39.5 211.3 Q40.9 206.75 41.65 202.1 L44.05 186.4 Q45.75 175.1 45.8 163.8 L45.75 158.2 45.8 152.8 46.1 126.75 46.2 122.7 Q46.95 108.6 46.55 94.25 L47.65 93.8 Q49.85 100.0 50.95 106.3 51.9 111.7 53.55 116.95 57.0 128.2 57.75 139.85 L58.45 149.4 59.1 157.15 Q60.75 175.8 59.5 194.45 58.9 203.15 61.1 211.65 61.65 213.85 61.6 216.0 L61.75 220.9 60.35 220.9 59.65 221.0 M8.7 0.0 L12.7 0.0 12.4 8.1 Q11.55 13.65 12.2 19.15 13.25 27.45 13.7 35.8 14.0 42.1 13.55 48.5 12.95 56.8 12.95 66.5 13.0 76.2 12.0 85.95 L9.65 105.7 6.95 124.45 6.6 127.0 Q6.15 123.3 6.3 119.65 6.9 104.45 8.6 89.2 9.95 76.95 10.9 64.7 11.25 60.0 11.25 55.3 11.2 31.65 8.75 8.1 L8.7 0.0 M20.7 0.0 L23.7 0.0 22.9 8.1 22.95 8.45 Q23.55 17.05 24.45 25.8 25.55 35.95 26.1 46.15 26.45 52.8 26.2 59.55 L25.4 81.15 24.35 95.7 22.6 113.95 Q21.95 120.95 20.3 127.75 L15.9 146.3 Q13.85 155.45 13.5 164.9 L13.2 168.85 Q12.4 176.25 12.15 183.7 11.95 190.65 12.65 197.65 13.55 206.8 12.9 216.0 L12.7 220.9 8.7 220.9 7.85 216.0 Q8.45 208.75 8.45 201.5 L8.45 194.55 Q8.4 183.8 8.95 173.1 9.35 165.95 10.5 158.75 L11.65 153.25 Q17.0 132.25 19.65 110.8 L20.6 101.15 22.65 74.2 23.9 52.3 Q24.15 46.85 23.5 41.5 22.45 32.8 21.7 24.05 L20.5 11.2 20.15 8.1 20.7 0.0 M37.75 0.0 L43.75 0.0 43.65 8.1 44.05 11.75 Q44.6 18.4 45.9 25.0 47.0 30.5 48.75 35.95 50.85 42.35 51.45 49.1 51.7 52.1 52.6 54.9 L55.65 64.4 61.3 82.95 65.2 97.15 68.3 109.9 Q69.55 115.45 70.45 120.95 L74.85 148.75 76.7 160.4 Q77.65 166.35 77.9 172.15 L78.35 189.95 Q78.4 192.7 78.6 195.35 79.25 205.7 78.15 216.0 L78.75 220.9 74.75 220.9 74.9 216.0 Q75.4 199.65 75.25 183.35 75.1 164.7 72.15 146.3 68.05 121.05 61.75 95.95 L57.65 80.05 53.15 64.4 48.45 50.0 Q45.8 42.5 43.75 34.95 41.3 25.75 39.1 16.4 L37.55 8.8 37.45 8.1 37.75 0.0 M78.75 0.0 L79.5 10.65 79.45 10.8 Q79.6 15.75 81.15 20.55 85.7 34.25 88.45 48.1 89.55 53.75 87.7 59.1 L86.85 60.5 84.1 60.45 Q81.1 57.95 79.5 54.75 76.15 48.2 74.65 41.25 73.8 37.45 73.25 33.45 72.85 30.45 73.9 28.3 L77.2 43.4 Q78.9 52.05 85.4 58.5 L86.1 54.95 Q86.8 46.6 84.15 38.5 80.05 26.2 76.45 13.9 75.6 11.05 75.15 8.1 L74.75 0.0 78.75 0.0 M29.65 37.2 Q28.75 31.75 30.9 27.4 L32.45 38.5 34.4 52.8 36.35 69.45 Q37.3 79.2 37.75 88.9 38.25 100.1 38.1 111.25 L37.5 137.95 Q37.25 145.55 36.5 153.0 L35.45 160.45 33.8 169.1 23.95 216.0 23.7 220.9 20.7 220.9 20.65 216.0 21.9 209.8 28.6 178.25 30.15 170.05 31.0 165.3 32.3 157.35 33.7 145.8 Q34.3 139.75 34.5 133.75 L34.7 127.15 35.15 110.35 Q35.55 91.6 33.55 72.75 L31.05 50.25 30.25 41.9 29.65 37.2" fill="#491107" fill-rule="evenodd" stroke="none"/>
  </g>
</svg>
