<?xml version="1.0" encoding="UTF-8" standalone="no"?>
<svg xmlns:ffdec="https://www.free-decompiler.com/flash" xmlns:xlink="http://www.w3.org/1999/xlink" ffdec:objectType="shape" height="208.0px" width="707.55px" xmlns="http://www.w3.org/2000/svg">
  <g transform="matrix(1.0, 0.0, 0.0, 1.0, 0.0, 0.0)">
    <path d="M707.55 203.4 L707.1 203.4 707.1 204.4 706.85 204.4 706.85 207.85 458.9 207.85 458.9 208.0 456.1 205.35 456.1 12.9 234.6 12.9 235.0 205.05 232.25 207.75 232.2 207.85 0.0 207.9 0.1 196.9 221.6 196.9 221.65 0.1 469.4 0.0 469.45 196.95 707.1 196.95 707.1 198.9 707.55 198.9 707.55 203.4 M569.35 23.15 L569.1 169.4 634.6 169.4 634.75 23.3 569.35 23.15 M558.65 10.05 L647.75 9.95 647.7 182.75 558.55 182.75 558.65 10.05 M132.4 182.65 L43.1 182.75 43.1 9.9 132.45 9.9 132.45 169.45 132.6 169.4 132.4 182.65 M122.1 168.9 L121.6 168.9 121.6 22.9 56.1 22.9 56.1 169.4 122.1 169.4 122.1 168.9" fill="#f79740" fill-rule="evenodd" stroke="none"/>
  </g>
</svg>
