<?xml version="1.0" encoding="UTF-8" standalone="no"?>
<svg xmlns:ffdec="https://www.free-decompiler.com/flash" xmlns:xlink="http://www.w3.org/1999/xlink" ffdec:objectType="shape" height="47.6px" width="39.4px" xmlns="http://www.w3.org/2000/svg">
  <g transform="matrix(1.0, 0.0, 0.0, 1.0, 15.55, 5.75)">
    <path d="M2.95 2.0 Q2.95 3.65 0.8 5.9 L-1.65 7.85 Q-3.25 9.0 -3.8 9.7 L-5.25 13.2 Q-6.45 16.5 -6.45 17.15 L-6.8 18.6 -7.2 20.4 -7.35 20.8 -7.7 22.7 Q-7.7 23.4 -8.2 24.5 -8.85 25.95 -9.9 25.95 -10.95 25.95 -11.0 23.55 L-10.85 20.2 Q-10.5 19.0 -10.5 18.55 L-9.95 16.8 Q-9.95 16.25 -9.35 14.65 L-8.8 12.65 -8.25 9.5 -7.65 7.8 -7.05 5.9 -6.9 5.05 -6.55 4.0 Q-6.55 2.8 -4.8 1.2 -2.6 -0.8 0.35 -0.8 1.95 -0.8 2.6 0.45 2.95 1.15 2.95 2.0" fill="#ffffff" fill-rule="evenodd" stroke="none"/>
    <path d="M5.8 -2.4 L7.35 -3.8 13.3 4.15 Q14.85 6.2 15.15 6.2 15.9 6.2 19.75 11.35 23.85 16.85 23.85 19.25 23.85 25.7 19.4 25.7 17.65 25.7 15.85 24.6 L13.0 22.75 12.45 22.65 Q13.15 25.35 13.15 26.95 L13.1 28.4 Q12.95 29.1 12.3 29.1 L10.6 30.8 Q8.8 32.45 7.8 32.45 6.2 32.45 4.0 31.45 L1.8 34.35 Q0.0 36.35 -0.4 37.25 -1.5 39.7 -2.65 40.75 -3.85 41.85 -5.45 41.85 -8.95 41.85 -11.9 37.8 -15.55 32.85 -15.55 24.55 -15.55 12.75 -10.65 3.8 -6.4 -4.1 -1.0 -5.75 L-0.05 -3.55 Q-3.05 -3.95 -5.3 -1.7 L-5.9 -1.0 -5.95 -0.95 -8.35 3.3 -8.5 3.65 -9.5 6.35 -12.05 14.45 Q-13.5 19.9 -13.5 24.3 L-13.25 28.8 -13.3 28.75 Q-13.45 32.4 -10.75 36.1 -8.05 39.7 -5.5 39.7 -3.3 39.7 -2.5 37.45 -1.95 35.9 -1.95 32.6 L-2.9 21.4 Q-2.9 18.5 0.1 16.95 L5.0 14.75 Q5.1 13.8 5.55 12.45 7.05 11.2 7.95 11.95 8.8 12.7 13.9 20.8 L16.7 22.8 Q18.3 23.65 19.3 23.65 20.15 23.65 20.95 23.05 22.05 22.2 22.05 20.55 22.05 15.7 16.4 9.15 L13.15 5.75 13.05 5.6 Q11.3 3.05 7.4 -0.85 L5.65 -2.35 5.8 -2.4 M1.1 18.45 L0.35 18.75 Q-0.75 24.5 -0.65 26.2 L0.05 32.9 1.2 32.2 1.9 31.4 2.2 30.25 Q2.2 25.25 1.75 21.85 L1.1 18.45 M3.4 21.5 L3.15 23.4 Q3.15 27.2 4.1 28.7 5.1 30.3 7.65 30.3 8.8 30.25 9.85 29.65 11.9 28.5 11.9 26.0 L11.8 21.1 Q10.5 18.15 8.55 15.65 6.6 13.1 5.0 16.35 4.1 17.35 3.7 19.9 L3.4 21.5" fill="#6f5342" fill-rule="evenodd" stroke="none"/>
    <path d="M5.8 -2.4 L5.65 -2.35 7.4 -0.85 Q7.4 2.75 4.1 6.15 L0.8 9.0 0.35 10.85 -0.15 12.5 -1.2 12.1 -2.65 11.85 Q-4.65 11.85 -5.0 23.65 -5.35 35.45 -7.65 35.45 -8.4 35.45 -9.45 34.6 -11.4 33.0 -13.25 28.8 L-13.5 24.3 Q-13.5 19.9 -12.05 14.45 L-9.5 6.35 -8.5 3.65 Q-7.8 3.25 -6.65 1.8 L-4.9 -0.55 -1.5 -2.0 Q0.15 -2.7 0.85 -3.2 3.3 -2.25 3.95 -2.25 L5.8 -2.4 M13.9 20.8 Q8.8 12.7 7.95 11.95 7.05 11.2 5.55 12.45 5.35 11.75 5.3 9.9 L5.15 8.2 8.15 4.15 Q9.65 6.65 14.65 11.65 18.3 15.3 18.3 17.7 18.3 19.75 17.45 20.7 L13.9 20.8 M2.95 2.0 Q2.95 1.15 2.6 0.45 1.95 -0.8 0.35 -0.8 -2.6 -0.8 -4.8 1.2 -6.55 2.8 -6.55 4.0 L-6.9 5.05 -7.05 5.9 -7.65 7.8 -8.25 9.5 -8.8 12.65 -9.35 14.65 Q-9.95 16.25 -9.95 16.8 L-10.5 18.55 Q-10.5 19.0 -10.85 20.2 L-11.0 23.55 Q-10.95 25.95 -9.9 25.95 -8.85 25.95 -8.2 24.5 -7.7 23.4 -7.7 22.7 L-7.35 20.8 -7.2 20.4 -6.8 18.6 -6.45 17.15 Q-6.45 16.5 -5.25 13.2 L-3.8 9.7 Q-3.25 9.0 -1.65 7.85 L0.8 5.9 Q2.95 3.65 2.95 2.0 M9.15 27.75 Q8.25 28.7 7.3 28.7 6.2 28.7 6.2 27.0 6.2 26.35 6.7 25.65 7.4 24.6 8.75 24.6 9.95 24.6 9.95 26.25 9.95 26.9 9.15 27.75" fill="#faf2ed" fill-rule="evenodd" stroke="none"/>
    <path d="M7.4 -0.85 Q11.3 3.05 13.05 5.6 L13.15 5.75 16.4 9.15 Q22.05 15.7 22.05 20.55 22.05 22.2 20.95 23.05 20.15 23.65 19.3 23.65 18.3 23.65 16.7 22.8 L13.9 20.8 17.45 20.7 Q18.3 19.75 18.3 17.7 18.3 15.3 14.65 11.65 9.65 6.65 8.15 4.15 L5.15 8.2 5.3 9.9 Q5.35 11.75 5.55 12.45 5.1 13.8 5.0 14.75 L0.1 16.95 Q-2.9 18.5 -2.9 21.4 L-1.95 32.6 Q-1.95 35.9 -2.5 37.45 -3.3 39.7 -5.5 39.7 -8.05 39.7 -10.75 36.1 -13.45 32.4 -13.3 28.75 L-13.25 28.8 Q-11.4 33.0 -9.45 34.6 -8.4 35.45 -7.65 35.45 -5.35 35.45 -5.0 23.65 -4.65 11.85 -2.65 11.85 L-1.2 12.1 -0.15 12.5 0.35 10.85 0.8 9.0 4.1 6.15 Q7.4 2.75 7.4 -0.85 M-8.5 3.65 L-8.35 3.3 -5.95 -0.95 -5.9 -1.0 -5.3 -1.7 Q-3.05 -3.95 -0.05 -3.55 L0.85 -3.2 Q0.15 -2.7 -1.5 -2.0 L-4.9 -0.55 -6.65 1.8 Q-7.8 3.25 -8.5 3.65 M1.1 18.45 L1.75 21.85 Q2.2 25.25 2.2 30.25 L1.9 31.4 1.2 32.2 0.05 32.9 -0.65 26.2 Q-0.75 24.5 0.35 18.75 L1.1 18.45 M3.4 21.5 L3.7 19.9 Q4.1 17.35 5.0 16.35 6.6 13.1 8.55 15.65 10.5 18.15 11.8 21.1 L11.9 26.0 Q11.9 28.5 9.85 29.65 8.8 30.25 7.65 30.3 5.1 30.3 4.1 28.7 3.15 27.2 3.15 23.4 L3.4 21.5 M9.15 27.75 Q9.95 26.9 9.95 26.25 9.95 24.6 8.75 24.6 7.4 24.6 6.7 25.65 6.2 26.35 6.2 27.0 6.2 28.7 7.3 28.7 8.25 28.7 9.15 27.75" fill="#e1bfae" fill-rule="evenodd" stroke="none"/>
  </g>
</svg>
