<?xml version="1.0" encoding="UTF-8" standalone="no"?>
<svg xmlns:ffdec="https://www.free-decompiler.com/flash" xmlns:xlink="http://www.w3.org/1999/xlink" ffdec:objectType="shape" height="43.2px" width="34.2px" xmlns="http://www.w3.org/2000/svg">
  <g transform="matrix(1.0, 0.0, 0.0, 1.0, 8.05, 32.75)">
    <path d="M0.2 -11.15 L1.05 -7.35 Q-1.4 -4.55 -3.85 -2.8 -5.0 -2.0 -5.0 -0.7 L-5.75 3.15 Q-5.75 6.45 -1.5 7.2 -1.2 6.95 1.75 -0.05 L3.0 -1.65 3.2 -1.5 3.35 -1.3 3.4 -1.6 3.45 -1.6 Q3.1 -2.5 3.65 -2.1 L4.95 -1.25 Q5.55 1.3 4.85 4.75 4.9 7.25 9.25 8.45 11.65 8.2 14.45 4.7 14.8 4.7 15.5 5.5 16.15 6.25 16.7 6.25 18.6 6.25 20.1 5.35 20.45 5.15 21.65 2.35 22.9 -0.5 24.25 -1.35 24.25 -5.1 20.35 -7.7 16.45 -10.35 10.9 -10.35 L10.15 -13.1 Q18.75 -12.8 22.8 -9.55 26.15 -6.85 26.15 -2.45 26.15 -1.0 24.9 -0.1 23.65 0.8 23.65 1.45 23.65 3.6 22.65 5.3 21.05 8.05 17.3 8.05 15.95 8.05 13.35 9.25 10.75 10.45 9.6 10.45 6.45 10.45 5.5 9.0 4.3 7.25 3.65 0.5 L2.1 3.75 1.15 5.85 Q1.15 7.85 -0.15 9.05 -1.35 10.15 -3.1 10.15 -4.05 10.15 -5.85 7.9 -8.05 5.15 -8.05 2.1 L-5.35 -3.7 Q-2.2 -9.75 0.2 -11.15" fill="#8f836b" fill-rule="evenodd" stroke="none"/>
    <path d="M-1.5 7.2 Q-2.2 6.0 -3.7 1.75 L-3.4 -0.9 Q-2.7 -3.4 -0.35 -4.3 L1.2 -5.25 0.05 -3.2 -0.25 -1.95 -0.2 0.3 Q0.75 0.65 1.75 -0.05 -1.2 6.95 -1.5 7.2 M9.25 8.45 Q8.2 4.6 7.7 0.55 11.3 0.2 13.85 -2.2 16.05 -4.25 16.05 -5.95 16.05 -6.95 14.75 -7.45 16.7 -6.85 19.0 -5.7 23.05 -3.65 24.25 -1.35 22.9 -0.5 21.65 2.35 20.45 5.15 20.1 5.35 18.6 6.25 16.7 6.25 16.15 6.25 15.5 5.5 14.8 4.7 14.45 4.7 11.65 8.2 9.25 8.45" fill="#e1ded7" fill-rule="evenodd" stroke="none"/>
    <path d="M1.05 -7.35 Q1.6 -3.65 1.1 -2.65 L2.55 -1.85 3.0 -1.65 1.75 -0.05 Q0.75 0.65 -0.2 0.3 L-0.25 -1.95 0.05 -3.2 1.2 -5.25 -0.35 -4.3 Q-2.7 -3.4 -3.4 -0.9 L-3.7 1.75 Q-2.2 6.0 -1.5 7.2 -5.75 6.45 -5.75 3.15 L-5.0 -0.7 Q-5.0 -2.0 -3.85 -2.8 -1.4 -4.55 1.05 -7.35 M11.2 -3.25 L11.55 -3.5 11.9 -2.2 11.7 -3.6 11.6 -4.0 11.55 -4.2 11.95 -3.15 Q12.6 -4.75 13.15 -5.35 12.4 -6.1 11.65 -7.75 11.05 -9.25 10.9 -10.35 16.45 -10.35 20.35 -7.7 24.25 -5.1 24.25 -1.35 23.05 -3.65 19.0 -5.7 16.7 -6.85 14.75 -7.45 16.05 -6.95 16.05 -5.95 16.05 -4.25 13.85 -2.2 11.3 0.2 7.7 0.55 8.2 4.6 9.25 8.45 4.9 7.25 4.85 4.75 5.55 1.3 4.95 -1.25 6.85 -1.2 10.55 -2.9 L10.7 -2.7 11.2 -3.25" fill="#cec8bd" fill-rule="evenodd" stroke="none"/>
    <path d="M0.2 -11.15 Q-2.2 -19.4 -5.65 -22.35 -7.05 -23.5 -7.4 -24.35 -8.05 -25.75 -8.05 -29.2 L-7.8 -30.0 -7.4 -30.1 -0.1 -32.3 2.95 -32.75 Q7.55 -32.75 8.3 -28.0 8.8 -19.85 10.15 -13.1 L10.9 -10.35 Q11.05 -9.25 11.65 -7.75 12.4 -6.1 13.15 -5.35 12.6 -4.75 11.95 -3.15 L11.55 -4.2 11.5 -4.3 11.5 -4.2 11.6 -4.0 11.7 -3.6 11.9 -2.2 11.55 -3.5 11.2 -3.25 11.0 -3.45 10.45 -3.55 8.7 -11.35 6.95 -19.85 6.7 -24.95 Q6.7 -28.2 6.05 -29.35 5.25 -30.75 2.9 -30.75 1.85 -30.75 -5.6 -28.55 -2.7 -23.7 -0.2 -18.65 0.6 -16.8 1.6 -9.65 L2.55 -1.85 1.1 -2.65 Q1.6 -3.65 1.05 -7.35 L0.2 -11.15" fill="#362418" fill-rule="evenodd" stroke="none"/>
    <path d="M-0.2 -18.65 Q-2.7 -23.7 -5.6 -28.55 1.85 -30.75 2.9 -30.75 5.25 -30.75 6.05 -29.35 6.7 -28.2 6.7 -24.95 L6.95 -19.85 Q6.05 -19.4 3.15 -19.0 L-0.2 -18.65 M10.45 -3.55 L11.0 -3.45 11.2 -3.25 10.7 -2.7 10.55 -2.9 10.45 -3.55 M11.6 -4.0 L11.5 -4.2 11.5 -4.3 11.55 -4.2 11.6 -4.0" fill="#563a27" fill-rule="evenodd" stroke="none"/>
    <path d="M2.55 -1.85 L1.6 -9.65 Q0.6 -16.8 -0.2 -18.65 L3.15 -19.0 Q6.05 -19.4 6.95 -19.85 L8.7 -11.35 10.45 -3.55 10.55 -2.9 Q6.85 -1.2 4.95 -1.25 L3.65 -2.1 Q3.1 -2.5 3.45 -1.6 L3.4 -1.6 3.35 -1.3 3.2 -1.5 3.0 -1.65 2.55 -1.85" fill="#744d34" fill-rule="evenodd" stroke="none"/>
  </g>
</svg>
