<?xml version="1.0" encoding="UTF-8" standalone="no"?>
<svg xmlns:ffdec="https://www.free-decompiler.com/flash" xmlns:xlink="http://www.w3.org/1999/xlink" ffdec:objectType="shape" height="8.55px" width="13.45px" xmlns="http://www.w3.org/2000/svg">
  <g transform="matrix(1.0, 0.0, 0.0, 1.0, 14.0, 3.55)">
    <path d="M-12.0 -2.35 L-12.05 -2.25 Q-11.35 -2.8 -10.5 -3.05 L-7.35 -3.55 Q-4.55 -3.55 -2.6 -2.35 -0.55 -1.1 -0.55 0.7 -0.55 2.5 -2.6 3.8 -4.55 5.0 -7.35 5.0 -10.05 5.0 -12.0 3.8 L-12.05 3.75 Q-14.0 2.45 -14.0 0.7 -14.0 -0.25 -13.45 -1.0 L-12.0 -2.35" fill="#a76c38" fill-rule="evenodd" stroke="none"/>
    <path d="M-7.55 -0.15 L-7.7 -0.15 -8.0 0.05 -8.05 0.05 -8.4 0.4 -8.45 0.45 -8.65 1.0 Q-8.65 1.55 -8.05 1.95 L-6.4 2.4 -4.7 2.0 -4.65 1.95 Q-4.05 1.55 -4.05 1.0 -4.05 0.45 -4.65 0.05 L-6.4 -0.35 -7.55 -0.15 M-10.4 -1.7 L-10.45 -1.6 Q-9.85 -2.1 -9.1 -2.3 L-9.2 -2.25 -6.4 -2.75 Q-4.0 -2.75 -2.3 -1.7 -0.55 -0.55 -0.55 1.0 -0.55 2.55 -2.3 3.7 -4.0 4.75 -6.4 4.75 -8.75 4.75 -10.4 3.7 L-10.45 3.7 Q-12.15 2.55 -12.15 1.0 -12.15 0.15 -11.65 -0.5 L-10.4 -1.7" fill="#3a2011" fill-rule="evenodd" stroke="none"/>
    <path d="M-7.55 -0.15 L-6.4 -0.35 -4.65 0.05 Q-4.05 0.45 -4.05 1.0 -4.05 1.55 -4.65 1.95 L-4.7 2.0 -6.4 2.4 -8.05 1.95 Q-8.65 1.55 -8.65 1.0 L-8.45 0.45 -8.4 0.4 -8.05 0.05 -8.0 0.05 -7.7 -0.15 -7.55 -0.15" fill="#ddb388" fill-rule="evenodd" stroke="none"/>
  </g>
</svg>
