<?xml version="1.0" encoding="UTF-8" standalone="no"?>
<svg xmlns:ffdec="https://www.free-decompiler.com/flash" xmlns:xlink="http://www.w3.org/1999/xlink" ffdec:objectType="shape" height="127.3px" width="111.2px" xmlns="http://www.w3.org/2000/svg">
  <g transform="matrix(1.0, 0.0, 0.0, 1.0, 56.6, 53.15)">
    <path d="M33.4 -25.1 L32.1 -28.15 Q34.15 -28.6 37.0 -31.55 L40.5 -35.25 Q42.3 -33.95 43.45 -31.45 44.4 -29.3 44.25 -28.0 L48.25 -31.2 51.9 -34.65 52.65 -34.35 Q53.0 -28.95 49.4 -23.15 45.8 -17.4 41.45 -16.35 40.5 -16.7 39.55 -17.2 43.2 -19.2 45.2 -21.6 46.2 -22.8 48.2 -26.5 L48.6 -27.75 Q47.05 -26.55 44.1 -25.6 L40.75 -24.8 39.3 -25.1 35.6 -26.0 33.4 -25.1 M40.85 -31.25 Q39.25 -27.95 38.7 -28.1 40.25 -27.55 42.05 -27.55 L40.85 -31.25" fill="#141e21" fill-rule="evenodd" stroke="none"/>
    <path d="M35.05 -20.25 L33.4 -25.1 35.6 -26.0 39.3 -25.1 40.75 -24.8 44.1 -25.6 Q47.05 -26.55 48.6 -27.75 L48.2 -26.5 Q46.2 -22.8 45.2 -21.6 43.2 -19.2 39.55 -17.2 L37.65 -18.4 35.05 -20.25 M40.85 -31.25 L42.05 -27.55 Q40.25 -27.55 38.7 -28.1 39.25 -27.95 40.85 -31.25" fill="#2e4850" fill-rule="evenodd" stroke="none"/>
    <path d="M32.1 -28.15 L33.4 -25.1 35.05 -20.25 32.75 -21.35 Q32.4 -24.95 29.5 -29.9 26.4 -35.2 21.65 -39.75 9.7 -51.25 -4.4 -51.25 -16.95 -51.25 -26.7 -46.2 -39.3 -39.65 -44.35 -25.65 -46.7 -19.3 -47.1 -12.55 -46.9 2.95 -43.6 6.25 L-41.7 9.7 Q-41.9 9.7 -47.7 0.15 L-48.6 -6.1 -49.0 -10.75 Q-49.0 -26.65 -38.75 -38.65 -26.4 -53.15 -4.3 -53.15 6.8 -53.15 16.2 -46.3 24.65 -40.15 32.1 -28.15" fill="#603f2b" fill-rule="evenodd" stroke="none"/>
    <path d="M-43.6 6.25 Q-46.9 2.95 -47.1 -12.55 L-43.65 -12.75 -43.65 -12.05 Q-34.75 -15.5 -19.5 -16.75 L-5.9 -17.35 14.3 -15.8 13.75 -16.55 25.2 -12.85 27.55 -13.0 Q26.35 -24.8 10.35 -28.0 L-2.8 -29.2 -13.3 -29.1 -28.35 -27.35 -44.55 -25.05 -44.35 -25.65 Q-39.3 -39.65 -26.7 -46.2 -16.95 -51.25 -4.4 -51.25 9.7 -51.25 21.65 -39.75 26.4 -35.2 29.5 -29.9 32.4 -24.95 32.75 -21.35 L32.55 -21.4 Q32.1 -20.55 32.65 -17.45 L30.2 -17.55 Q30.2 -17.15 30.75 -15.2 31.3 -13.15 31.6 -12.75 L30.0 -12.55 Q28.5 -12.25 28.7 -11.85 27.9 -9.95 27.9 -8.95 27.9 -8.3 29.3 -5.9 L30.7 -3.6 26.05 -5.6 25.4 -4.85 Q24.85 -3.95 25.15 -1.1 23.25 -0.75 22.75 0.65 22.2 2.2 22.4 7.6 L21.0 6.5 Q20.0 5.65 19.1 5.7 L18.95 9.75 Q17.9 9.45 16.45 8.3 14.65 6.85 13.95 5.25 12.95 6.0 12.25 8.15 11.2 11.25 12.0 14.85 L9.45 13.65 Q9.35 13.95 8.8 14.05 8.35 14.95 8.55 19.85 L4.1 18.35 Q4.3 21.95 3.45 24.05 2.8 25.65 1.95 25.65 1.45 25.65 -0.15 25.05 L-2.4 24.35 Q-2.15 26.2 -3.45 27.85 -3.7 26.4 -5.3 24.9 -7.0 23.35 -8.75 23.05 L-9.8 26.05 Q-10.1 27.1 -11.2 28.3 L-13.15 26.7 Q-15.2 25.15 -15.65 25.1 L-16.15 27.05 -19.35 27.05 -20.75 24.1 Q-21.25 23.15 -21.85 23.15 -22.35 23.15 -23.25 23.85 -24.2 24.5 -24.7 24.5 L-25.3 23.5 Q-26.05 22.35 -27.25 21.9 -28.3 21.5 -31.85 18.8 -35.15 16.3 -35.65 16.3 -36.2 16.3 -37.05 14.55 -37.9 12.85 -38.2 13.0 -39.95 12.75 -40.1 12.0 L-39.85 9.65 Q-40.0 9.4 -40.75 9.4 L-41.55 9.5 -43.6 6.25 M-22.9 20.6 L-22.6 20.8 Q-19.25 23.15 -18.0 25.45 -17.0 25.5 -17.05 24.8 -17.0 23.7 -16.6 23.3 -16.25 23.0 -15.4 23.0 -14.75 23.0 -12.7 24.6 L-10.75 26.15 Q-10.9 23.9 -9.55 22.3 -8.6 21.15 -8.1 21.15 -7.6 21.15 -5.7 22.5 -3.8 23.85 -3.3 23.85 -2.8 23.85 -2.5 23.25 -2.2 22.65 -1.7 22.65 0.05 22.65 1.85 23.65 L2.85 19.3 Q3.35 16.65 4.6 16.65 5.6 16.65 6.85 17.7 8.7 14.85 11.0 7.8 12.55 3.1 14.6 3.1 15.0 3.1 18.15 6.8 18.9 2.95 20.05 1.95 20.9 1.2 20.9 -0.4 20.9 -1.15 22.6 -1.75 24.5 -2.4 25.0 -6.05 18.95 -6.3 17.15 -7.0 16.3 -7.3 7.0 -6.8 5.45 -3.75 0.7 -1.6 -3.75 0.4 -8.05 0.4 -14.3 0.4 -17.8 -3.0 L-20.6 -5.4 Q-22.45 -6.45 -25.3 -6.45 L-41.5 1.8 Q-41.5 2.8 -42.85 2.55 -39.1 10.3 -29.4 16.5 L-24.7 19.4 -23.7 20.85 -22.9 20.6 M9.35 -1.45 L10.05 -2.05 11.0 -2.45 12.1 -2.2 Q12.6 -1.65 12.75 -0.75 L11.55 0.95 Q10.65 0.95 10.0 0.25 9.35 -0.45 9.35 -1.45 M17.4 0.55 Q17.75 0.9 17.75 1.45 L17.4 2.4 Q17.0 2.75 16.45 2.75 15.9 2.75 15.55 2.4 15.15 2.0 15.15 1.45 15.15 0.9 15.55 0.55 15.9 0.15 16.45 0.15 17.0 0.15 17.4 0.55 M5.85 4.2 Q6.25 4.6 6.25 5.2 6.25 5.8 5.85 6.2 5.45 6.6 4.85 6.6 4.25 6.6 3.85 6.2 3.45 5.8 3.45 5.2 3.45 4.6 3.85 4.2 4.25 3.8 4.85 3.8 5.45 3.8 5.85 4.2" fill="#a76d4b" fill-rule="evenodd" stroke="none"/>
    <path d="M-41.7 9.7 L-43.6 6.25 -41.55 9.5 -41.7 9.7 M-47.1 -12.55 Q-46.7 -19.3 -44.35 -25.65 L-44.55 -25.05 -28.35 -27.35 -13.3 -29.1 -2.8 -29.2 10.35 -28.0 Q26.35 -24.8 27.55 -13.0 L25.2 -12.85 13.75 -16.55 Q5.65 -22.8 2.5 -24.25 -2.45 -26.55 -10.5 -26.55 -30.3 -26.55 -37.8 -21.65 -40.55 -19.85 -41.95 -17.15 L-43.65 -12.75 -47.1 -12.55 M-24.7 19.4 L-29.4 16.5 Q-39.1 10.3 -42.85 2.55 -41.5 2.8 -41.5 1.8 L-25.3 -6.45 Q-22.45 -6.45 -20.6 -5.4 L-17.8 -3.0 Q-14.3 0.4 -8.05 0.4 -3.75 0.4 0.7 -1.6 5.45 -3.75 7.0 -6.8 16.3 -7.3 17.15 -7.0 18.95 -6.3 25.0 -6.05 24.5 -2.4 22.6 -1.75 20.9 -1.15 20.9 -0.4 20.9 1.2 20.05 1.95 18.9 2.95 18.15 6.8 15.0 3.1 14.6 3.1 12.55 3.1 11.0 7.8 8.7 14.85 6.85 17.7 5.6 16.65 4.6 16.65 3.35 16.65 2.85 19.3 L1.85 23.65 Q0.05 22.65 -1.7 22.65 -2.2 22.65 -2.5 23.25 -2.8 23.85 -3.3 23.85 -3.8 23.85 -5.7 22.5 -7.6 21.15 -8.1 21.15 -8.6 21.15 -9.55 22.3 -10.9 23.9 -10.75 26.15 L-12.7 24.6 Q-14.75 23.0 -15.4 23.0 -16.25 23.0 -16.6 23.3 -17.0 23.7 -17.05 24.8 -17.0 25.5 -18.0 25.45 -19.25 23.15 -22.6 20.8 L-22.9 20.6 Q-19.85 19.5 -18.8 19.5 -18.45 19.5 -18.15 19.8 L-17.25 21.1 Q-16.2 20.05 -15.0 20.05 L-13.85 20.9 -12.15 22.45 -9.4 18.7 Q-9.1 18.35 -8.65 18.35 -6.15 18.35 -5.3 19.9 -4.4 21.45 -0.45 21.45 -0.3 18.5 0.45 15.45 1.35 12.0 2.35 12.0 4.95 12.0 5.9 9.45 6.9 6.9 7.35 6.9 8.35 6.9 9.15 7.5 10.05 4.1 11.55 0.95 L12.75 -0.75 14.25 -1.65 16.35 -0.3 Q18.1 -1.4 18.1 -2.4 18.1 -3.4 16.9 -2.75 L12.1 -2.2 11.0 -2.45 10.05 -2.05 9.35 -1.45 -0.5 2.35 Q-4.75 3.9 -6.9 3.9 -12.0 3.9 -17.6 1.6 -23.2 -0.75 -25.25 -0.75 L-30.35 1.35 Q-35.7 3.65 -38.1 4.9 -35.3 8.25 -30.0 13.35 -26.9 16.35 -24.7 19.4 M17.4 0.55 Q17.0 0.15 16.45 0.15 15.9 0.15 15.55 0.55 15.15 0.9 15.15 1.45 15.15 2.0 15.55 2.4 15.9 2.75 16.45 2.75 17.0 2.75 17.4 2.4 L17.75 1.45 Q17.75 0.9 17.4 0.55" fill="#c18753" fill-rule="evenodd" stroke="none"/>
    <path d="M13.75 -16.55 L14.3 -15.8 -5.9 -17.35 -19.5 -16.75 Q-34.75 -15.5 -43.65 -12.05 L-43.65 -12.75 -41.95 -17.15 Q-40.55 -19.85 -37.8 -21.65 -30.3 -26.55 -10.5 -26.55 -2.45 -26.55 2.5 -24.25 5.65 -22.8 13.75 -16.55 M-24.7 19.4 Q-26.9 16.35 -30.0 13.35 -35.3 8.25 -38.1 4.9 -35.7 3.65 -30.35 1.35 L-25.25 -0.75 Q-23.2 -0.75 -17.6 1.6 -12.0 3.9 -6.9 3.9 -4.75 3.9 -0.5 2.35 L9.35 -1.45 Q9.35 -0.45 10.0 0.25 10.65 0.95 11.55 0.95 10.05 4.1 9.15 7.5 8.35 6.9 7.35 6.9 6.9 6.9 5.9 9.45 4.95 12.0 2.35 12.0 1.35 12.0 0.45 15.45 -0.3 18.5 -0.45 21.45 -4.4 21.45 -5.3 19.9 -6.15 18.35 -8.65 18.35 -9.1 18.35 -9.4 18.7 L-12.15 22.45 -13.85 20.9 -15.0 20.05 Q-16.2 20.05 -17.25 21.1 L-18.15 19.8 Q-18.45 19.5 -18.8 19.5 -19.85 19.5 -22.9 20.6 L-23.7 20.85 -24.7 19.4 M12.1 -2.2 L16.9 -2.75 Q18.1 -3.4 18.1 -2.4 18.1 -1.4 16.35 -0.3 L14.25 -1.65 12.75 -0.75 Q12.6 -1.65 12.1 -2.2 M5.85 4.2 Q5.45 3.8 4.85 3.8 4.25 3.8 3.85 4.2 3.45 4.6 3.45 5.2 3.45 5.8 3.85 6.2 4.25 6.6 4.85 6.6 5.45 6.6 5.85 6.2 6.25 5.8 6.25 5.2 6.25 4.6 5.85 4.2" fill="#ce9255" fill-rule="evenodd" stroke="none"/>
    <path d="M-47.7 0.15 Q-41.9 9.7 -41.7 9.7 L-41.55 9.5 -40.75 9.4 Q-40.0 9.4 -39.85 9.65 L-40.1 12.0 Q-39.95 12.75 -38.2 13.0 -37.9 12.85 -37.05 14.55 -36.2 16.3 -35.65 16.3 -35.15 16.3 -31.85 18.8 -28.3 21.5 -27.25 21.9 -26.05 22.35 -25.3 23.5 L-24.7 24.5 Q-24.2 24.5 -23.25 23.85 -22.35 23.15 -21.85 23.15 -21.25 23.15 -20.75 24.1 L-19.35 27.05 -16.15 27.05 -15.65 25.1 Q-15.2 25.15 -13.15 26.7 L-11.2 28.3 Q-10.1 27.1 -9.8 26.05 L-8.75 23.05 Q-7.0 23.35 -5.3 24.9 -3.7 26.4 -3.45 27.85 -2.15 26.2 -2.4 24.35 L-0.15 25.05 Q1.45 25.65 1.95 25.65 2.8 25.65 3.45 24.05 4.3 21.95 4.1 18.35 L8.55 19.85 Q8.35 14.95 8.8 14.05 9.35 13.95 9.45 13.65 L12.0 14.85 Q11.2 11.25 12.25 8.15 12.95 6.0 13.95 5.25 14.65 6.85 16.45 8.3 17.9 9.45 18.95 9.75 L19.1 5.7 Q20.0 5.65 21.0 6.5 L22.4 7.6 Q22.2 2.2 22.75 0.65 23.25 -0.75 25.15 -1.1 24.85 -3.95 25.4 -4.85 L26.05 -5.6 30.7 -3.6 29.3 -5.9 Q27.9 -8.3 27.9 -8.95 27.9 -9.95 28.7 -11.85 28.5 -12.25 30.0 -12.55 L31.6 -12.75 Q31.3 -13.15 30.75 -15.2 30.2 -17.15 30.2 -17.55 L32.65 -17.45 Q32.1 -20.55 32.55 -21.4 L32.75 -21.35 35.05 -20.25 37.65 -18.4 Q37.85 -18.25 37.3 -17.75 39.75 -15.6 40.75 -15.0 42.45 -14.0 44.7 -14.0 L46.25 -14.4 48.65 -15.25 49.8 -16.0 51.45 -18.0 51.85 -18.95 51.85 -19.25 52.1 -18.8 52.6 -18.1 52.85 -17.95 52.95 -15.55 Q52.95 -13.1 50.75 -11.0 48.6 -9.0 46.7 -9.3 47.05 -7.15 47.65 -6.7 48.65 -5.9 52.4 -5.85 L51.35 -5.4 49.65 -4.55 Q48.7 -3.95 48.7 -3.35 48.7 -2.65 49.25 -2.0 L51.3 -0.1 50.75 0.55 49.15 1.25 47.95 1.7 45.85 1.7 Q44.95 1.75 44.8 2.0 L44.95 0.25 44.6 -3.15 40.4 -0.2 Q38.35 1.2 37.75 1.2 L36.3 0.7 34.45 -0.1 Q34.95 0.8 36.25 1.6 37.8 2.5 39.3 2.5 L40.85 1.95 43.05 0.45 43.75 -0.65 43.35 1.35 Q42.85 2.95 42.15 3.55 38.25 3.55 35.0 4.7 L41.3 4.55 39.45 5.8 37.55 7.4 Q41.45 6.75 43.2 5.05 44.35 3.9 44.75 2.15 L45.2 2.55 Q45.4 3.35 46.35 4.85 47.5 6.9 48.65 7.6 46.15 8.25 45.15 9.0 L44.6 9.6 Q46.8 9.65 49.45 11.9 L51.85 14.3 48.55 14.6 45.35 15.25 Q48.25 19.15 48.25 20.15 48.25 21.15 43.2 20.8 43.35 22.65 44.85 24.75 46.05 26.4 47.05 27.05 L41.7 28.7 42.0 29.1 Q43.05 29.85 43.8 31.45 L44.6 33.65 Q42.95 33.0 40.6 33.6 L38.1 34.3 Q38.05 33.1 37.65 32.05 36.9 29.95 32.8 30.7 L35.3 33.9 Q37.2 36.2 37.2 37.7 L32.9 33.0 Q33.8 35.35 36.0 38.55 L36.65 40.2 Q37.1 38.95 37.15 37.9 L37.35 38.5 Q38.3 39.1 38.95 40.25 L39.8 42.15 33.1 42.8 33.7 44.35 34.45 45.85 28.35 45.5 Q28.5 46.7 30.7 49.9 L33.25 53.35 29.4 52.8 30.0 52.25 Q28.6 51.1 25.85 46.6 23.7 43.05 23.2 43.75 23.5 45.75 25.45 49.3 27.0 52.0 27.8 52.7 L24.75 51.95 21.1 51.05 21.9 56.3 Q21.3 55.9 19.7 55.2 L18.1 54.55 16.3 54.85 Q14.5 55.25 14.5 55.95 14.5 57.4 15.55 58.75 L17.7 60.85 14.15 61.2 Q11.9 61.2 9.25 60.4 L6.85 59.55 7.75 65.55 3.9 60.2 4.3 59.8 4.45 58.85 Q4.45 57.95 2.8 56.1 0.6 53.5 -2.6 53.2 L-3.5 53.9 Q-1.1 55.35 -0.15 56.05 1.6 57.35 2.7 58.6 1.5 57.4 -0.35 56.75 -2.6 55.9 -3.9 56.35 L3.8 63.25 Q2.9 64.05 1.9 68.0 1.1 71.25 -1.7 72.0 -0.05 69.1 -1.05 65.85 -2.55 62.4 -2.8 60.65 -4.25 61.7 -5.3 63.55 -6.45 65.5 -6.45 67.2 L-6.35 69.1 -10.4 66.8 Q-9.7 69.35 -12.25 71.55 L-13.05 68.45 -14.0 65.3 -12.8 66.65 Q-12.45 65.25 -13.2 63.5 -13.95 61.7 -15.25 60.75 L-16.0 60.25 Q-15.5 62.5 -14.65 64.3 L-18.05 61.1 -18.8 61.85 -16.35 65.1 Q-19.25 67.3 -19.4 72.95 L-24.55 66.65 -25.5 68.15 -26.25 69.5 Q-28.55 66.65 -28.7 66.05 -28.4 65.95 -28.65 65.55 L-30.7 68.9 -33.15 64.85 Q-34.5 66.65 -35.85 67.4 -36.5 67.8 -36.9 67.8 -36.45 67.8 -37.05 65.7 L-38.0 63.1 Q-38.9 64.15 -41.45 64.6 L-43.85 64.9 -43.8 65.25 -44.05 65.25 Q-45.5 65.25 -47.75 61.4 L-43.55 61.55 Q-42.55 60.75 -42.55 58.95 L-42.85 57.95 -43.7 56.3 -46.15 57.3 Q-46.35 55.55 -46.75 54.65 L-47.1 54.1 -49.35 54.85 -51.25 55.3 Q-52.15 55.3 -52.9 54.75 -53.75 54.0 -53.95 52.65 -52.05 53.3 -50.45 51.5 -49.1 50.05 -49.1 48.85 -49.1 48.5 -49.7 47.85 L-51.15 46.7 -49.45 43.9 Q-49.65 43.35 -49.9 43.25 L-52.05 42.55 -50.6 41.95 Q-50.25 41.75 -50.25 41.05 -50.25 40.05 -51.8 39.15 -53.65 38.05 -54.15 37.1 -50.65 36.7 -49.45 35.2 -48.7 34.2 -48.7 32.05 -48.7 31.6 -49.25 30.55 -49.9 29.3 -50.6 29.3 -51.6 29.3 -53.2 30.0 L-52.45 28.45 -49.85 26.8 Q-48.3 25.6 -48.5 22.25 -50.35 23.1 -53.4 20.8 -50.65 19.65 -49.8 18.95 -48.0 17.4 -48.75 15.1 -51.1 14.7 -53.15 12.8 -55.45 10.6 -55.65 10.5 L-54.55 9.05 -51.6 10.5 -49.85 10.85 Q-47.3 10.85 -47.3 6.8 L-47.4 5.45 -50.45 5.6 Q-49.25 4.65 -48.6 2.85 L-48.2 0.95 -48.35 -0.9 -47.7 0.15 M40.6 -6.75 Q33.55 -11.55 33.1 -11.0 L36.2 -8.0 Q38.5 -6.25 40.55 -6.35 L41.25 -5.55 Q43.0 -7.3 43.0 -9.1 L42.9 -10.75 42.75 -10.85 42.25 -11.55 Q41.55 -10.25 40.55 -10.25 39.1 -10.25 37.55 -11.15 L37.45 -11.05 38.25 -10.1 Q39.25 -9.35 41.6 -9.25 L40.6 -6.75 M41.8 13.7 L43.1 14.0 40.1 17.05 40.75 17.9 43.0 16.5 Q44.5 15.25 44.5 13.7 L44.25 12.0 42.35 12.5 41.8 12.4 40.25 12.4 40.4 13.3 37.75 15.3 39.1 16.8 39.45 16.25 41.8 13.7 M31.2 0.85 Q30.7 -0.15 28.3 -1.6 28.65 0.1 29.6 0.8 L31.25 1.5 31.2 0.85 M33.75 16.9 L34.5 11.85 Q34.5 9.0 31.5 9.0 L29.8 9.3 28.75 9.6 Q33.45 9.3 33.95 11.75 34.25 13.05 33.5 15.8 32.95 14.65 31.8 13.65 30.7 12.75 30.0 12.75 L28.1 12.8 27.5 13.6 Q26.9 14.2 26.8 14.55 L28.45 14.65 Q31.1 14.65 32.35 16.15 33.7 17.75 33.2 20.85 33.8 21.95 35.35 23.05 36.9 24.15 38.0 24.25 L39.0 24.0 Q37.0 24.8 35.8 24.8 34.0 24.8 33.1 23.4 L31.8 20.25 Q30.05 15.7 24.85 15.7 L23.75 15.75 23.25 16.45 Q26.55 17.5 28.65 22.2 30.45 26.15 35.4 26.15 40.7 26.15 40.65 22.65 L36.15 23.1 35.1 21.45 Q34.1 19.7 33.85 18.95 L33.75 16.9 M25.35 4.25 Q24.25 3.4 24.15 3.75 24.9 5.4 25.45 5.75 L26.9 5.9 Q26.45 5.1 25.35 4.25 M26.75 23.9 L26.85 22.95 Q24.1 23.05 22.6 21.45 20.9 19.65 18.5 13.6 L17.35 12.3 Q18.6 19.35 20.05 21.6 21.15 23.3 24.1 24.35 L25.85 24.35 26.75 23.9 M8.9 23.1 Q8.6 23.7 8.6 24.45 8.6 25.15 9.35 26.05 10.3 27.25 12.0 27.7 L10.2 25.4 Q9.35 23.9 9.6 22.4 9.2 22.5 8.9 23.1 M25.6 33.8 Q21.5 34.7 18.0 31.95 15.0 29.65 14.65 27.15 L15.15 25.75 14.5 25.9 Q13.9 26.15 13.85 26.8 12.5 30.4 14.9 32.2 16.35 33.35 21.0 34.45 25.85 35.65 27.55 36.75 30.5 38.65 29.95 42.25 L30.0 43.4 Q32.0 40.5 32.0 38.35 32.0 35.35 31.25 34.15 30.75 33.35 29.0 32.65 23.85 30.45 19.75 24.75 L19.55 25.05 19.35 26.05 Q19.35 26.55 22.05 28.9 25.45 31.8 29.15 33.35 25.5 32.7 20.8 29.8 L15.8 26.2 Q16.1 28.45 18.8 31.0 21.95 33.9 25.6 33.8 M16.3 41.05 Q18.8 41.55 16.2 42.8 13.1 44.25 10.5 43.85 8.45 44.95 13.5 45.15 16.45 45.15 18.15 44.05 20.15 42.7 21.65 39.15 L21.0 38.25 18.9 39.35 Q17.7 39.95 16.3 39.95 15.45 39.95 14.5 39.35 13.15 38.45 12.25 36.5 L11.95 36.4 Q11.6 36.4 11.6 37.0 11.6 39.05 13.9 40.15 L16.0 41.1 14.55 41.25 12.25 40.95 Q10.75 40.45 9.9 38.95 L9.25 37.95 8.9 38.25 Q8.5 38.7 8.5 39.3 8.5 41.2 10.8 42.3 12.0 42.85 13.25 43.0 15.05 43.0 16.9 42.1 L16.3 41.05 M5.65 32.15 Q4.05 33.5 4.25 35.6 L3.5 33.65 Q2.7 31.7 2.4 31.8 L2.65 34.7 Q3.15 37.6 4.25 38.75 L7.05 33.4 8.35 30.6 Q6.2 31.7 5.65 32.15 M1.6 41.4 Q1.6 42.55 3.6 43.75 5.65 44.95 7.25 44.75 7.3 44.05 4.6 42.5 1.95 40.9 1.6 41.4 M2.75 47.95 L4.2 48.1 Q1.1 46.15 0.05 45.0 -1.85 42.85 -1.7 39.65 -2.25 38.4 -2.7 40.6 L-3.0 43.15 Q-3.0 43.8 -2.2 45.1 L-0.6 47.15 Q-2.7 46.35 -3.7 44.55 L-5.25 41.75 -5.35 46.1 -3.65 48.1 Q-1.15 49.95 3.0 49.7 L-0.15 50.25 Q-3.25 50.25 -5.05 48.9 -6.9 47.5 -7.75 44.35 L-8.05 43.25 -8.9 43.8 -9.05 44.9 Q-9.05 47.3 -6.8 49.0 -3.2 51.75 5.5 51.9 5.5 52.5 5.85 52.95 6.2 53.35 6.7 53.35 7.6 55.25 7.9 57.5 L9.7 57.5 9.95 55.4 Q9.95 52.75 8.05 51.05 L7.2 50.25 8.15 51.95 Q8.65 52.9 8.5 53.75 L6.9 51.35 5.45 49.7 Q4.05 48.45 2.75 47.95 M15.6 47.9 L14.9 48.35 Q15.25 49.05 16.75 49.85 17.9 50.45 18.6 50.65 19.4 50.45 19.8 48.55 L19.25 46.85 Q18.8 46.9 18.3 47.85 L17.4 49.0 15.6 47.9 M27.35 26.45 Q27.8 29.85 29.25 29.3 L29.9 28.7 27.35 26.45 M13.75 52.5 L14.3 52.3 12.95 51.25 11.6 50.35 Q12.6 51.75 13.75 52.5 M-40.8 18.35 L-40.2 18.1 -40.0 17.7 -42.3 17.8 -44.65 17.15 -43.05 16.65 -41.9 15.4 -44.45 15.5 Q-46.35 15.75 -46.8 16.75 -44.85 19.4 -42.6 19.4 -41.55 19.4 -40.8 18.35 M-34.1 22.4 L-34.4 23.0 -34.1 23.6 -33.35 23.85 -32.6 23.6 Q-32.3 23.35 -32.3 23.0 -32.3 22.65 -32.6 22.4 -32.9 22.15 -33.35 22.15 -33.8 22.15 -34.1 22.4 M-35.25 21.35 L-36.2 22.1 -38.3 24.8 Q-36.95 26.8 -34.75 26.7 L-34.0 26.4 -33.7 26.1 -36.25 25.1 -35.65 23.6 -35.15 22.15 -35.25 21.35 M-27.0 29.0 L-26.8 29.65 -26.65 31.0 Q-26.65 34.05 -28.7 35.75 -28.05 36.4 -27.05 36.95 L-25.95 37.45 -24.15 37.1 -22.75 36.0 -26.9 36.0 Q-24.65 31.95 -26.0 29.0 L-27.0 29.0 M-40.1 26.7 L-41.15 27.2 Q-42.45 28.0 -43.6 29.3 -42.85 29.55 -41.65 28.7 L-40.15 27.35 -40.1 26.7 M-32.9 31.05 L-33.75 30.85 Q-38.85 30.85 -39.05 38.3 -39.2 42.35 -39.45 43.4 -40.1 45.7 -42.3 45.7 L-44.55 45.55 Q-46.25 45.5 -46.7 46.05 -45.05 49.7 -43.65 51.15 -42.2 52.65 -40.15 52.65 L-36.95 52.1 Q-34.05 51.2 -33.3 49.15 L-40.25 50.95 Q-42.9 50.95 -44.55 48.55 L-45.05 47.65 Q-40.85 48.2 -39.45 46.85 -38.5 45.95 -38.35 42.95 -38.15 39.1 -37.55 37.3 -36.35 33.75 -32.8 31.25 L-32.9 31.05 M-35.8 35.5 L-35.0 40.8 Q-35.0 43.9 -36.35 45.55 -37.9 47.35 -41.6 48.05 L-41.6 49.6 -40.05 50.0 Q-36.45 49.3 -35.6 48.4 -34.7 47.45 -35.05 44.75 -35.4 42.1 -33.85 38.05 -32.3 34.05 -32.4 33.5 -35.85 34.1 -35.8 35.5 M-30.2 40.95 L-30.2 50.7 -26.45 50.7 -26.45 40.95 -30.2 40.95 M-22.45 59.4 L-24.95 60.75 Q-23.65 59.95 -22.7 57.6 -21.8 55.4 -21.8 53.2 -22.85 48.55 -23.55 47.15 L-24.55 47.25 Q-23.05 50.55 -23.05 52.2 -23.05 56.45 -24.15 58.1 -25.55 60.25 -29.55 60.45 L-30.4 60.4 -31.4 60.2 Q-30.65 61.4 -29.2 61.95 L-27.9 62.25 Q-22.55 62.25 -19.7 58.3 -17.7 55.5 -17.7 52.55 L-18.2 49.4 -18.9 46.1 -20.15 46.1 -19.55 48.6 -19.1 50.95 -19.5 53.6 -20.2 56.2 Q-20.1 54.4 -20.5 51.2 -21.15 46.85 -22.5 47.25 L-21.5 54.7 Q-21.5 56.3 -22.45 59.4 M-3.75 31.1 L-4.1 32.05 -4.45 36.55 Q-4.0 36.75 -2.8 32.9 L-3.75 31.1 M-18.55 34.75 Q-18.85 36.05 -18.6 37.35 -18.75 38.5 -21.3 40.65 -20.95 41.15 -19.8 41.45 L-17.9 41.7 Q-15.7 41.7 -13.9 40.85 -12.25 40.05 -11.5 38.75 -11.2 38.1 -11.05 37.3 L-11.75 36.6 Q-11.95 37.3 -14.2 38.9 -16.6 40.6 -17.65 40.25 L-18.9 40.25 Q-17.3 39.15 -17.3 38.15 L-17.5 34.85 -18.55 34.75 M-13.3 34.15 Q-14.9 35.5 -15.65 37.5 L-16.0 39.15 Q-13.25 36.15 -13.25 35.15 L-13.3 34.15 M-8.0 37.25 Q-8.25 36.7 -8.55 36.7 -8.85 36.7 -9.05 37.25 L-9.3 38.6 -9.05 39.95 -8.55 40.5 Q-8.25 40.5 -8.0 39.95 L-7.8 38.6 -8.0 37.25 M-43.35 28.2 L-43.55 26.75 Q-43.95 26.0 -44.45 27.3 -45.45 29.65 -46.95 31.25 L-40.95 30.5 Q-39.8 30.1 -40.2 29.4 L-45.0 30.35 -43.35 28.2 M-44.55 36.7 L-48.25 36.6 Q-48.25 38.2 -47.0 40.1 -45.45 42.6 -43.15 42.1 -41.9 42.0 -41.8 41.25 L-46.4 38.75 Q-45.75 38.55 -44.65 37.65 -43.25 36.4 -42.95 35.15 -43.55 35.4 -44.55 36.7 M-11.25 55.05 Q-9.9 57.9 -11.7 58.3 L-14.05 59.0 -14.05 59.1 -7.0 59.75 -6.75 59.25 Q-6.85 58.85 -9.25 56.25 -11.35 53.9 -11.2 51.6 L-11.35 51.1 Q-11.7 50.55 -12.45 50.45 -12.75 51.1 -11.8 53.45 -11.0 55.45 -11.4 54.75 L-11.4 54.7 Q-12.45 53.75 -13.05 52.45 L-13.25 51.5 -13.65 51.65 Q-14.1 51.9 -14.1 52.5 -14.1 54.35 -13.25 55.15 L-11.25 55.05 M-37.25 58.55 Q-35.8 58.65 -35.1 57.65 L-34.5 56.2 -34.85 54.85 -35.35 55.45 -36.95 57.65 -37.25 57.85 -37.25 58.55 M-37.4 57.95 L-40.3 59.8 Q-39.15 60.55 -36.55 61.4 L-35.45 61.3 -34.25 60.85 -33.8 60.15 Q-34.25 59.65 -35.05 59.7 L-36.8 60.0 Q-37.65 59.85 -37.5 58.55 L-37.4 57.95" fill="#33261c" fill-rule="evenodd" stroke="none"/>
    <path d="M39.55 -17.2 Q40.5 -16.7 41.45 -16.35 45.2 -15.35 46.75 -15.2 L48.65 -15.25 46.25 -14.4 44.7 -14.0 Q42.45 -14.0 40.75 -15.0 39.75 -15.6 37.3 -17.75 37.85 -18.25 37.65 -18.4 L39.55 -17.2 M40.55 -6.35 L40.6 -6.75 41.6 -9.25 Q39.25 -9.35 38.25 -10.1 L37.45 -11.05 37.55 -11.15 Q39.1 -10.25 40.55 -10.25 41.55 -10.25 42.25 -11.55 L42.75 -10.85 42.9 -10.75 43.0 -9.1 Q43.0 -7.3 41.25 -5.55 L40.55 -6.35 M51.85 -18.95 L51.45 -18.0 49.8 -16.0 Q50.65 -17.45 50.65 -18.7 L50.35 -19.7 49.7 -20.25 Q50.1 -19.9 51.85 -18.95 M52.1 -18.8 L52.75 -18.45 Q54.0 -17.8 54.0 -15.65 54.0 -9.6 47.5 -8.65 L48.4 -7.5 54.05 -6.8 Q54.0 -6.0 49.7 -2.85 L51.15 -1.65 52.65 -0.3 Q52.2 1.3 50.6 2.1 49.4 2.7 48.2 2.7 L46.9 2.55 46.3 2.35 46.8 3.55 Q47.15 5.25 48.9 5.8 L50.65 6.0 52.2 5.8 53.5 5.85 53.2 7.05 Q52.95 7.75 51.95 8.45 50.65 9.3 48.85 9.55 L54.6 15.55 47.55 16.2 Q49.45 18.9 49.45 20.3 49.45 22.15 47.25 22.45 L44.95 22.35 49.55 26.75 Q48.7 28.15 46.65 29.0 L43.9 29.55 Q45.05 30.55 45.65 32.65 L46.0 34.8 Q46.0 36.65 44.5 38.45 L43.45 35.75 Q42.8 34.1 41.95 34.1 41.1 34.1 40.1 34.65 39.0 35.2 39.0 35.9 L40.35 39.2 Q41.75 42.75 41.9 44.15 41.55 44.35 40.85 43.85 40.05 43.3 39.55 43.3 L36.85 43.6 34.85 43.85 36.2 46.4 Q36.1 46.7 34.9 47.0 L33.0 47.3 29.85 46.85 30.3 47.95 32.75 51.0 Q34.85 53.25 35.65 53.35 32.95 54.6 31.3 54.6 L27.3 54.05 Q24.95 52.9 22.95 52.35 L22.7 58.85 Q21.9 58.75 20.2 57.3 18.6 55.9 17.75 55.9 16.45 55.9 16.05 56.2 15.6 56.45 15.4 57.5 L18.9 61.05 16.05 62.0 13.3 62.45 11.45 62.05 8.65 61.25 9.3 64.95 9.55 67.75 Q9.55 68.75 8.5 70.25 L3.9 64.5 Q4.85 68.75 1.9 71.35 -0.6 73.55 -3.35 73.1 -2.9 73.1 -2.6 71.1 L-2.4 68.35 Q-2.4 66.8 -3.2 64.6 L-4.45 68.0 Q-5.2 70.6 -5.5 71.1 L-9.6 68.15 Q-9.25 69.85 -10.5 71.45 -11.5 72.75 -12.7 73.15 -13.65 70.1 -14.05 69.35 L-16.5 65.95 -17.9 69.35 -18.55 72.0 -18.5 74.15 Q-20.3 73.9 -22.4 71.7 -24.15 69.8 -24.7 68.25 L-25.65 70.75 Q-27.6 70.65 -29.05 67.35 L-29.4 71.0 Q-29.95 71.0 -33.15 66.7 -34.25 68.2 -34.9 68.45 L-36.45 68.65 Q-37.75 68.5 -37.9 65.4 -40.6 66.8 -42.55 66.8 -44.2 66.6 -45.75 65.85 -48.8 64.4 -48.8 61.6 L-48.6 59.4 -47.55 60.25 -46.4 60.9 Q-45.7 60.9 -44.7 59.75 -43.75 58.7 -43.75 58.2 L-46.85 57.8 -48.0 57.25 Q-47.55 56.7 -47.5 56.15 L-47.5 55.7 Q-49.6 56.6 -51.35 56.6 -53.95 56.6 -54.75 54.6 -55.15 53.7 -55.2 51.2 L-51.95 50.95 Q-49.85 50.45 -49.85 49.75 L-49.95 47.9 -53.05 48.25 -50.8 43.95 -53.5 43.1 Q-53.35 42.4 -52.3 41.4 L-51.25 40.55 Q-52.9 40.45 -54.35 38.8 -55.65 37.3 -55.55 36.3 -54.0 36.25 -51.85 34.7 -49.85 33.2 -49.85 32.5 -49.85 31.85 -50.0 31.45 L-50.6 30.55 Q-53.6 32.05 -54.2 31.95 -54.55 29.45 -52.65 27.0 L-49.35 23.35 Q-50.9 24.05 -52.95 22.7 -54.9 21.45 -54.9 20.3 -54.9 19.85 -52.35 18.4 -49.75 16.9 -49.65 16.15 -52.0 15.75 -53.5 13.65 L-54.7 11.6 -55.9 11.8 Q-56.45 11.9 -56.55 11.4 -56.85 10.35 -55.7 9.15 L-54.5 8.15 -52.4 9.45 -51.0 10.0 Q-50.5 10.0 -49.65 9.25 -48.75 8.5 -48.2 7.6 L-48.35 6.85 -52.2 5.8 -52.95 5.25 Q-48.45 4.2 -48.85 -1.0 L-48.35 -0.9 -48.2 0.95 -48.6 2.85 Q-49.25 4.65 -50.45 5.6 L-47.4 5.45 -47.3 6.8 Q-47.3 10.85 -49.85 10.85 L-51.6 10.5 -54.55 9.05 -55.65 10.5 Q-55.45 10.6 -53.15 12.8 -51.1 14.7 -48.75 15.1 -48.0 17.4 -49.8 18.95 -50.65 19.65 -53.4 20.8 -50.35 23.1 -48.5 22.25 -48.3 25.6 -49.85 26.8 L-52.45 28.45 -53.2 30.0 Q-51.6 29.3 -50.6 29.3 -49.9 29.3 -49.25 30.55 -48.7 31.6 -48.7 32.05 -48.7 34.2 -49.45 35.2 -50.65 36.7 -54.15 37.1 -53.65 38.05 -51.8 39.15 -50.25 40.05 -50.25 41.05 -50.25 41.75 -50.6 41.95 L-52.05 42.55 -49.9 43.25 Q-49.65 43.35 -49.45 43.9 L-51.15 46.7 -49.7 47.85 Q-49.1 48.5 -49.1 48.85 -49.1 50.05 -50.45 51.5 -52.05 53.3 -53.95 52.65 -53.75 54.0 -52.9 54.75 -52.15 55.3 -51.25 55.3 L-49.35 54.85 -47.1 54.1 -46.75 54.65 Q-46.35 55.55 -46.15 57.3 L-43.7 56.3 -42.85 57.95 -42.55 58.95 Q-42.55 60.75 -43.55 61.55 L-47.75 61.4 Q-45.5 65.25 -44.05 65.25 L-43.8 65.25 -43.85 64.9 -41.45 64.6 Q-38.9 64.15 -38.0 63.1 L-37.05 65.7 Q-36.45 67.8 -36.9 67.8 -36.5 67.8 -35.85 67.4 -34.5 66.65 -33.15 64.85 L-30.7 68.9 -28.65 65.55 Q-28.4 65.95 -28.7 66.05 -28.55 66.65 -26.25 69.5 L-25.5 68.15 -24.55 66.65 -19.4 72.95 Q-19.25 67.3 -16.35 65.1 L-18.8 61.85 -18.05 61.1 -14.65 64.3 -14.0 65.3 -13.05 68.45 -12.25 71.55 Q-9.7 69.35 -10.4 66.8 L-6.35 69.1 -6.45 67.2 Q-6.45 65.5 -5.3 63.55 -4.25 61.7 -2.8 60.65 -2.55 62.4 -1.05 65.85 -0.05 69.1 -1.7 72.0 1.1 71.25 1.9 68.0 2.9 64.05 3.8 63.25 L-3.9 56.35 Q-2.6 55.9 -0.35 56.75 1.5 57.4 2.7 58.6 L3.5 59.65 3.9 60.2 7.75 65.55 6.85 59.55 9.25 60.4 Q11.9 61.2 14.15 61.2 L17.7 60.85 15.55 58.75 Q14.5 57.4 14.5 55.95 14.5 55.25 16.3 54.85 L18.1 54.55 19.7 55.2 Q21.3 55.9 21.9 56.3 L21.1 51.05 24.75 51.95 27.8 52.7 28.55 52.8 29.4 52.8 33.25 53.35 30.7 49.9 Q28.5 46.7 28.35 45.5 L34.45 45.85 33.7 44.35 33.1 42.8 39.8 42.15 38.95 40.25 Q38.3 39.1 37.35 38.5 L37.2 37.7 Q37.2 36.2 35.3 33.9 L32.8 30.7 Q36.9 29.95 37.65 32.05 38.05 33.1 38.1 34.3 L40.6 33.6 Q42.95 33.0 44.6 33.65 L43.8 31.45 Q43.05 29.85 42.0 29.1 L41.7 28.7 47.05 27.05 Q46.05 26.4 44.85 24.75 43.35 22.65 43.2 20.8 48.25 21.15 48.25 20.15 48.25 19.15 45.35 15.25 L48.55 14.6 51.85 14.3 49.45 11.9 Q46.8 9.65 44.6 9.6 L45.15 9.0 Q46.15 8.25 48.65 7.6 47.5 6.9 46.35 4.85 45.4 3.35 45.2 2.55 L44.75 2.15 Q44.35 3.9 43.2 5.05 41.45 6.75 37.55 7.4 L39.45 5.8 41.3 4.55 42.15 3.55 Q42.85 2.95 43.35 1.35 L43.75 -0.65 43.05 0.45 40.85 1.95 39.3 2.5 Q37.8 2.5 36.25 1.6 34.95 0.8 34.45 -0.1 L36.3 0.7 37.75 1.2 Q38.35 1.2 40.4 -0.2 L44.6 -3.15 44.95 0.25 44.8 2.0 Q44.95 1.75 45.85 1.7 L47.95 1.7 49.15 1.25 50.75 0.55 51.3 -0.1 49.25 -2.0 Q48.7 -2.65 48.7 -3.35 48.7 -3.95 49.65 -4.55 L51.35 -5.4 52.4 -5.85 Q48.65 -5.9 47.65 -6.7 47.05 -7.15 46.7 -9.3 48.6 -9.0 50.75 -11.0 52.95 -13.1 52.95 -15.55 L52.85 -17.95 52.6 -18.1 52.1 -18.8 M42.35 12.5 L44.25 12.0 44.5 13.7 Q44.5 15.25 43.0 16.5 L40.75 17.9 40.1 17.05 43.1 14.0 41.8 13.7 42.35 12.5 M40.4 13.3 L40.25 12.4 41.8 12.4 40.4 13.3 M33.5 15.8 Q34.25 13.05 33.95 11.75 33.45 9.3 28.75 9.6 L29.8 9.3 31.5 9.0 Q34.5 9.0 34.5 11.85 L33.75 16.9 33.5 15.8 M33.85 18.95 Q34.1 19.7 35.1 21.45 L36.15 23.1 40.65 22.65 Q40.7 26.15 35.4 26.15 30.45 26.15 28.65 22.2 26.55 17.5 23.25 16.45 L23.75 15.75 24.85 15.7 Q30.05 15.7 31.8 20.25 L33.1 23.4 Q34.0 24.8 35.8 24.8 37.0 24.8 39.0 24.0 L38.0 24.25 Q36.9 24.15 35.35 23.05 33.8 21.95 33.2 20.85 L33.3 20.9 33.85 18.95 M29.15 33.35 Q25.45 31.8 22.05 28.9 19.35 26.55 19.35 26.05 L19.55 25.05 19.75 24.75 Q23.85 30.45 29.0 32.65 30.75 33.35 31.25 34.15 32.0 35.35 32.0 38.35 32.0 40.5 30.0 43.4 L29.95 42.25 Q30.5 38.65 27.55 36.75 25.85 35.65 21.0 34.45 16.35 33.35 14.9 32.2 12.5 30.4 13.85 26.8 13.9 26.15 14.5 25.9 L15.15 25.75 14.65 27.15 Q15.0 29.65 18.0 31.95 21.5 34.7 25.6 33.8 27.1 34.5 30.35 37.75 L30.6 37.75 Q30.95 37.35 30.95 36.35 30.95 34.45 29.15 33.35 M16.0 41.1 L13.9 40.15 Q11.6 39.05 11.6 37.0 11.6 36.4 11.95 36.4 L12.25 36.5 Q13.15 38.45 14.5 39.35 15.45 39.95 16.3 39.95 17.7 39.95 18.9 39.35 L21.0 38.25 21.65 39.15 Q20.15 42.7 18.15 44.05 16.45 45.15 13.5 45.15 8.45 44.95 10.5 43.85 13.1 44.25 16.2 42.8 18.8 41.55 16.3 41.05 L16.1 41.05 16.0 41.1 M5.65 32.15 Q6.2 31.7 8.35 30.6 L7.05 33.4 4.25 38.75 Q3.15 37.6 2.65 34.7 L2.4 31.8 Q2.7 31.7 3.5 33.65 L4.25 35.6 Q4.05 33.5 5.65 32.15 M-0.6 47.15 L-2.2 45.1 Q-3.0 43.8 -3.0 43.15 L-2.7 40.6 Q-2.25 38.4 -1.7 39.65 -1.85 42.85 0.05 45.0 1.1 46.15 4.2 48.1 L2.75 47.95 -0.6 47.15 M6.9 51.35 L8.5 53.75 Q8.65 52.9 8.15 51.95 L7.2 50.25 8.05 51.05 Q9.95 52.75 9.95 55.4 L9.7 57.5 7.9 57.5 Q7.6 55.25 6.7 53.35 L6.9 51.35 M5.5 51.9 Q-3.2 51.75 -6.8 49.0 -9.05 47.3 -9.05 44.9 L-8.9 43.8 -8.05 43.25 -7.75 44.35 Q-6.9 47.5 -5.05 48.9 -3.25 50.25 -0.15 50.25 L3.0 49.7 Q4.05 49.7 4.8 50.35 5.5 51.0 5.5 51.9 M15.6 47.9 L17.4 49.0 18.3 47.85 Q18.8 46.9 19.25 46.85 L19.8 48.55 Q19.4 50.45 18.6 50.65 17.9 50.45 16.75 49.85 15.25 49.05 14.9 48.35 L15.6 47.9 M-42.3 17.8 Q-41.85 18.3 -40.8 18.35 -41.55 19.4 -42.6 19.4 -44.85 19.4 -46.8 16.75 -46.35 15.75 -44.45 15.5 L-41.9 15.4 -43.05 16.65 -44.65 17.15 -42.3 17.8 M-27.0 29.0 L-26.0 29.0 Q-24.65 31.95 -26.9 36.0 L-22.75 36.0 -24.15 37.1 -25.95 37.45 -27.05 36.95 Q-28.05 36.4 -28.7 35.75 -26.65 34.05 -26.65 31.0 L-26.8 29.65 -27.0 29.0 M-35.25 21.35 L-35.15 22.15 -35.65 23.6 -36.25 25.1 -33.7 26.1 -34.0 26.4 -34.75 26.7 Q-36.95 26.8 -38.3 24.8 L-36.2 22.1 -35.25 21.35 M-32.9 31.05 L-32.8 31.25 Q-36.35 33.75 -37.55 37.3 -38.15 39.1 -38.35 42.95 -38.5 45.95 -39.45 46.85 -40.85 48.2 -45.05 47.65 L-44.55 48.55 Q-42.9 50.95 -40.25 50.95 L-33.3 49.15 Q-34.05 51.2 -36.95 52.1 L-40.15 52.65 Q-42.2 52.65 -43.65 51.15 -45.05 49.7 -46.7 46.05 -46.25 45.5 -44.55 45.55 L-42.3 45.7 Q-40.1 45.7 -39.45 43.4 -39.2 42.35 -39.05 38.3 -38.85 30.85 -33.75 30.85 L-32.9 31.05 M-20.2 56.2 L-19.5 53.6 -19.1 50.95 -19.55 48.6 -20.15 46.1 -18.9 46.1 -18.2 49.4 -17.7 52.55 Q-17.7 55.5 -19.7 58.3 -22.55 62.25 -27.9 62.25 L-29.2 61.95 Q-30.65 61.4 -31.4 60.2 L-30.4 60.4 -29.55 60.45 Q-25.55 60.25 -24.15 58.1 -23.05 56.45 -23.05 52.2 -23.05 50.55 -24.55 47.25 L-23.55 47.15 Q-22.85 48.55 -21.8 53.2 -21.8 55.4 -22.7 57.6 -23.65 59.95 -24.95 60.75 L-22.45 59.4 Q-21.5 59.4 -20.85 58.5 -20.2 57.55 -20.2 56.2 M-30.2 40.95 L-26.45 40.95 -26.45 50.7 -30.2 50.7 -30.2 40.95 M-18.55 34.75 L-17.5 34.85 -17.3 38.15 Q-17.3 39.15 -18.9 40.25 L-17.65 40.25 Q-16.6 40.6 -14.2 38.9 -11.95 37.3 -11.75 36.6 L-11.05 37.3 Q-11.2 38.1 -11.5 38.75 -12.25 40.05 -13.9 40.85 -15.7 41.7 -17.9 41.7 L-19.8 41.45 Q-20.95 41.15 -21.3 40.65 -18.75 38.5 -18.6 37.35 -18.85 36.05 -18.55 34.75 M-11.4 54.75 Q-11.0 55.45 -11.8 53.45 -12.75 51.1 -12.45 50.45 -11.7 50.55 -11.35 51.1 L-11.2 51.6 Q-11.35 53.9 -9.25 56.25 -6.85 58.85 -6.75 59.25 L-7.0 59.75 -14.05 59.1 -14.05 59.0 -11.7 58.3 Q-9.9 57.9 -11.25 55.05 L-11.4 54.75 M-44.55 36.7 Q-43.55 35.4 -42.95 35.15 -43.25 36.4 -44.65 37.65 -45.75 38.55 -46.4 38.75 L-41.8 41.25 Q-41.9 42.0 -43.15 42.1 -45.45 42.6 -47.0 40.1 -48.25 38.2 -48.25 36.6 L-44.55 36.7 M-43.35 28.2 L-45.0 30.35 -40.2 29.4 Q-39.8 30.1 -40.95 30.5 L-46.95 31.25 Q-45.45 29.65 -44.45 27.3 -43.95 26.0 -43.55 26.75 L-43.35 28.2 M-36.95 57.65 L-37.25 58.55 -37.25 57.85 -36.95 57.65 M-37.4 57.95 L-37.5 58.55 Q-37.65 59.85 -36.8 60.0 L-35.05 59.7 Q-34.25 59.65 -33.8 60.15 L-34.25 60.85 -35.45 61.3 -36.55 61.4 Q-39.15 60.55 -40.3 59.8 L-37.4 57.95" fill="#1c150f" fill-rule="evenodd" stroke="none"/>
    <path d="M40.55 -6.35 Q38.5 -6.25 36.2 -8.0 L33.1 -11.0 Q33.55 -11.55 40.6 -6.75 L40.55 -6.35 M42.15 3.55 L41.3 4.55 35.0 4.7 Q38.25 3.55 42.15 3.55 M37.2 37.7 L37.35 38.5 37.15 37.9 Q37.1 38.95 36.65 40.2 L36.0 38.55 Q33.8 35.35 32.9 33.0 L37.2 37.7 M29.4 52.8 L28.55 52.8 27.8 52.7 Q27.0 52.0 25.45 49.3 23.5 45.75 23.2 43.75 23.7 43.05 25.85 46.6 28.6 51.1 30.0 52.25 L29.4 52.8 M3.9 60.2 L3.5 59.65 2.7 58.6 Q1.6 57.35 -0.15 56.05 -1.1 55.35 -3.5 53.9 L-2.6 53.2 Q0.6 53.5 2.8 56.1 4.45 57.95 4.45 58.85 L4.3 59.8 3.9 60.2 M-14.0 65.3 L-14.65 64.3 Q-15.5 62.5 -16.0 60.25 L-15.25 60.75 Q-13.95 61.7 -13.2 63.5 -12.45 65.25 -12.8 66.65 L-14.0 65.3 M42.35 12.5 L41.8 13.7 39.45 16.25 39.1 16.8 37.75 15.3 40.4 13.3 41.8 12.4 42.35 12.5 M31.2 0.85 L31.25 1.5 29.6 0.8 Q28.65 0.1 28.3 -1.6 30.7 -0.15 31.2 0.85 M33.5 15.8 L33.75 16.9 33.85 18.95 33.3 20.9 33.2 20.85 Q33.7 17.75 32.35 16.15 31.1 14.65 28.45 14.65 L26.8 14.55 Q26.9 14.2 27.5 13.6 L28.1 12.8 30.0 12.75 Q30.7 12.75 31.8 13.65 32.95 14.65 33.5 15.8 M26.75 23.9 L25.85 24.35 24.1 24.35 Q21.15 23.3 20.05 21.6 18.6 19.35 17.35 12.3 L18.5 13.6 Q20.9 19.65 22.6 21.45 24.1 23.05 26.85 22.95 L26.75 23.9 M25.35 4.25 Q26.45 5.1 26.9 5.9 L25.45 5.75 Q24.9 5.4 24.15 3.75 24.25 3.4 25.35 4.25 M8.9 23.1 Q9.2 22.5 9.6 22.4 9.35 23.9 10.2 25.4 L12.0 27.7 Q10.3 27.25 9.35 26.05 8.6 25.15 8.6 24.45 8.6 23.7 8.9 23.1 M29.15 33.35 Q30.95 34.45 30.95 36.35 30.95 37.35 30.6 37.75 L30.35 37.75 Q27.1 34.5 25.6 33.8 21.95 33.9 18.8 31.0 16.1 28.45 15.8 26.2 L20.8 29.8 Q25.5 32.7 29.15 33.35 M16.0 41.1 L16.1 41.05 16.3 41.05 16.9 42.1 Q15.05 43.0 13.25 43.0 12.0 42.85 10.8 42.3 8.5 41.2 8.5 39.3 8.5 38.7 8.9 38.25 L9.25 37.95 9.9 38.95 Q10.75 40.45 12.25 40.95 L14.55 41.25 16.0 41.1 M1.6 41.4 Q1.95 40.9 4.6 42.5 7.3 44.05 7.25 44.75 5.65 44.95 3.6 43.75 1.6 42.55 1.6 41.4 M-0.6 47.15 L2.75 47.95 Q4.05 48.45 5.45 49.7 L6.9 51.35 6.7 53.35 Q6.2 53.35 5.85 52.95 5.5 52.5 5.5 51.9 5.5 51.0 4.8 50.35 4.05 49.7 3.0 49.7 -1.15 49.95 -3.65 48.1 L-5.35 46.1 -5.25 41.75 -3.7 44.55 Q-2.7 46.35 -0.6 47.15 M13.75 52.5 Q12.6 51.75 11.6 50.35 L12.95 51.25 14.3 52.3 13.75 52.5 M27.35 26.45 L29.9 28.7 29.25 29.3 Q27.8 29.85 27.35 26.45 M-42.3 17.8 L-40.0 17.7 -40.2 18.1 -40.8 18.35 Q-41.85 18.3 -42.3 17.8 M-34.1 22.4 Q-33.8 22.15 -33.35 22.15 -32.9 22.15 -32.6 22.4 -32.3 22.65 -32.3 23.0 -32.3 23.35 -32.6 23.6 L-33.35 23.85 -34.1 23.6 -34.4 23.0 -34.1 22.4 M-40.1 26.7 L-40.15 27.35 -41.65 28.7 Q-42.85 29.55 -43.6 29.3 -42.45 28.0 -41.15 27.2 L-40.1 26.7 M-35.8 35.5 Q-35.85 34.1 -32.4 33.5 -32.3 34.05 -33.85 38.05 -35.4 42.1 -35.05 44.75 -34.7 47.45 -35.6 48.4 -36.45 49.3 -40.05 50.0 L-41.6 49.6 -41.6 48.05 Q-37.9 47.35 -36.35 45.55 -35.0 43.9 -35.0 40.8 L-35.8 35.5 M-20.2 56.2 Q-20.2 57.55 -20.85 58.5 -21.5 59.4 -22.45 59.4 -21.5 56.3 -21.5 54.7 L-22.5 47.25 Q-21.15 46.85 -20.5 51.2 -20.1 54.4 -20.2 56.2 M-3.75 31.1 L-2.8 32.9 Q-4.0 36.75 -4.45 36.55 L-4.1 32.05 -3.75 31.1 M-8.0 37.25 L-7.8 38.6 -8.0 39.95 Q-8.25 40.5 -8.55 40.5 L-9.05 39.95 -9.3 38.6 -9.05 37.25 Q-8.85 36.7 -8.55 36.7 -8.25 36.7 -8.0 37.25 M-13.3 34.15 L-13.25 35.15 Q-13.25 36.15 -16.0 39.15 L-15.65 37.5 Q-14.9 35.5 -13.3 34.15 M-11.4 54.75 L-11.25 55.05 -13.25 55.15 Q-14.1 54.35 -14.1 52.5 -14.1 51.9 -13.65 51.65 L-13.25 51.5 -13.05 52.45 Q-12.45 53.75 -11.4 54.7 L-11.4 54.75 M-36.95 57.65 L-35.35 55.45 -34.85 54.85 -34.5 56.2 -35.1 57.65 Q-35.8 58.65 -37.25 58.55 L-36.95 57.65" fill="#473527" fill-rule="evenodd" stroke="none"/>
  </g>
</svg>
