<?xml version="1.0" encoding="UTF-8" standalone="no"?>
<svg xmlns:ffdec="https://www.free-decompiler.com/flash" xmlns:xlink="http://www.w3.org/1999/xlink" ffdec:objectType="shape" height="19.25px" width="22.95px" xmlns="http://www.w3.org/2000/svg">
  <g transform="matrix(1.0, 0.0, 0.0, 1.0, -4.75, 4.65)">
    <path d="M10.45 12.15 L10.5 12.45 20.1 9.55 Q26.65 7.3 26.65 5.0 L25.65 1.5 24.05 -3.25 Q23.6 -2.35 21.5 -0.7 18.65 0.85 15.25 1.8 L10.75 2.25 7.7 2.25 7.55 2.4 7.5 2.6 Q6.95 5.65 6.55 9.05 L5.85 14.6 4.75 14.6 5.55 5.8 Q6.0 1.5 8.5 1.3 20.2 0.25 23.45 -4.65 24.75 -3.7 26.15 -0.55 27.7 2.8 27.7 5.35 27.7 6.95 21.35 10.1 14.7 13.45 10.2 13.45 9.6 13.45 9.5 13.15 L9.3 11.95 Q8.2 9.7 7.75 5.8 7.75 5.2 7.9 5.15 L8.0 5.2 8.05 5.25 Q9.25 6.45 10.45 12.15" fill="#0c0c0c" fill-rule="evenodd" stroke="none"/>
    <path d="M9.3 11.95 L7.75 13.05 5.85 14.6 6.55 9.05 Q6.95 5.65 7.5 2.6 L7.65 4.0 8.0 5.2 7.9 5.15 Q7.75 5.2 7.75 5.8 8.2 9.7 9.3 11.95" fill="#1b1b1b" fill-rule="evenodd" stroke="none"/>
    <path d="M22.2 -0.35 L22.9 1.8 Q23.4 3.85 24.2 5.55 L17.4 8.7 Q15.8 9.4 14.6 10.0 L14.75 9.2 Q14.75 8.35 14.1 7.7 13.55 7.15 12.85 7.1 L12.6 6.2 Q11.85 4.35 14.35 3.35 L18.0 2.25 Q20.7 1.3 22.2 -0.35 M11.95 11.25 Q10.75 11.85 10.45 12.15 9.25 6.45 8.05 5.25 L8.0 5.2 7.65 4.0 7.5 2.6 7.55 2.4 7.7 2.25 Q9.2 3.45 10.1 6.55 L10.7 8.3 Q10.45 8.7 10.5 9.2 10.45 10.05 11.1 10.7 L11.95 11.25 M15.25 1.8 L12.55 2.25 10.75 2.25 15.25 1.8" fill="#2e2e2e" fill-rule="evenodd" stroke="none"/>
    <path d="M21.5 -0.7 L22.2 -0.35 Q20.7 1.3 18.0 2.25 L14.35 3.35 Q11.85 4.35 12.6 6.2 L12.85 7.1 12.6 7.1 Q11.75 7.05 11.1 7.7 L10.7 8.3 10.1 6.55 Q9.2 3.45 7.7 2.25 L10.75 2.25 12.55 2.25 15.25 1.8 Q18.65 0.85 21.5 -0.7" fill="#3c3c3c" fill-rule="evenodd" stroke="none"/>
    <path d="M22.2 -0.35 L21.5 -0.7 Q23.6 -2.35 24.05 -3.25 L25.65 1.5 26.65 5.0 Q26.65 7.3 20.1 9.55 L10.5 12.45 10.45 12.15 Q10.75 11.85 11.95 11.25 L12.6 11.35 Q13.45 11.35 14.05 10.7 L14.1 10.65 14.6 10.0 Q15.8 9.4 17.4 8.7 L24.2 5.55 Q23.4 3.85 22.9 1.8 L22.2 -0.35" fill="#232323" fill-rule="evenodd" stroke="none"/>
    <path d="M14.6 10.0 L14.1 10.65 14.05 10.7 Q13.45 11.35 12.6 11.35 L11.95 11.25 11.1 10.7 Q10.45 10.05 10.5 9.2 10.45 8.7 10.7 8.3 L11.1 7.7 Q11.75 7.05 12.6 7.1 L12.85 7.1 Q13.55 7.15 14.1 7.7 14.75 8.35 14.75 9.2 L14.6 10.0 M13.55 8.25 Q13.25 7.95 12.9 7.9 L12.6 7.85 Q12.05 7.85 11.65 8.2 L11.6 8.25 Q11.25 8.65 11.25 9.2 11.25 9.7 11.6 10.1 L11.65 10.15 Q12.05 10.55 12.6 10.6 13.15 10.55 13.55 10.15 13.95 9.75 14.0 9.2 13.95 8.65 13.55 8.25" fill="#121212" fill-rule="evenodd" stroke="none"/>
    <path d="M13.55 8.25 Q13.95 8.65 14.0 9.2 13.95 9.75 13.55 10.15 13.15 10.55 12.6 10.6 12.05 10.55 11.65 10.15 L11.6 10.1 Q11.25 9.7 11.25 9.2 11.25 8.65 11.6 8.25 L11.65 8.2 Q12.05 7.85 12.6 7.85 L12.9 7.9 Q13.25 7.95 13.55 8.25" fill="#6e6e6e" fill-rule="evenodd" stroke="none"/>
  </g>
</svg>
