<?xml version="1.0" encoding="UTF-8" standalone="no"?>
<svg xmlns:ffdec="https://www.free-decompiler.com/flash" xmlns:xlink="http://www.w3.org/1999/xlink" ffdec:objectType="shape" height="17.6px" width="65.65px" xmlns="http://www.w3.org/2000/svg">
  <g transform="matrix(1.0, 0.0, 0.0, 1.0, 29.2, 17.3)">
    <path d="M7.1 -7.95 L7.25 -7.95 7.35 -0.75 17.1 -1.45 Q21.2 -1.75 23.1 -2.4 L23.2 -6.55 23.15 -9.55 25.15 -9.8 Q25.85 -5.9 25.95 -1.85 24.65 -1.35 15.1 -0.4 L6.6 0.1 6.6 -7.95 7.1 -7.95 M0.7 -7.95 L0.95 0.3 Q-12.55 -0.3 -20.7 -2.55 -28.75 -4.8 -29.2 -8.05 L-27.95 -16.05 -27.2 -14.6 -26.7 -13.75 Q-26.7 -10.1 -27.2 -8.95 L-27.75 -7.45 Q-27.75 -5.25 -20.9 -3.55 L-11.15 -1.8 -1.45 -0.7 -0.5 -0.75 Q-0.65 -5.45 -0.4 -7.95 L-0.3 -7.95 0.7 -7.95 M31.2 -11.75 L31.65 -4.35 32.7 -4.95 32.85 -5.05 Q34.05 -5.7 34.65 -6.45 35.1 -7.1 35.1 -8.15 L34.6 -10.65 Q34.1 -12.6 34.1 -13.95 34.1 -14.45 34.55 -14.95 L35.1 -15.9 36.45 -8.2 Q36.15 -6.9 34.55 -5.35 L32.85 -4.0 32.7 -3.9 31.4 -3.2 31.05 -4.5 30.55 -11.3 31.2 -11.75" fill="#0c0c0c" fill-rule="evenodd" stroke="none"/>
    <path d="M7.15 -8.7 L7.1 -7.95 6.6 -7.95 6.6 -8.75 7.15 -8.7 M7.25 -7.95 L8.4 -8.0 Q8.25 -4.5 8.4 -3.15 8.65 -1.55 9.4 -1.55 L17.55 -2.4 21.5 -3.4 21.5 -9.3 21.45 -9.3 23.15 -9.55 23.2 -6.55 23.1 -2.4 Q21.2 -1.75 17.1 -1.45 L7.35 -0.75 7.25 -7.95 M22.85 -10.2 L25.1 -10.55 25.15 -9.8 23.15 -9.55 22.85 -10.2 M-0.35 -8.7 L0.7 -8.65 0.7 -7.95 -0.3 -7.95 -0.35 -8.7 M-27.95 -16.05 L-27.65 -16.95 -27.55 -17.2 -26.65 -17.3 -27.05 -15.05 -25.95 -13.85 -26.65 -13.7 Q-25.05 -12.55 -22.3 -11.4 L-23.0 -6.05 Q-23.0 -5.35 -15.85 -3.75 -8.5 -2.05 -4.45 -2.05 -2.7 -2.05 -2.5 -2.9 L-2.3 -8.0 -0.4 -7.95 Q-0.65 -5.45 -0.5 -0.75 L-1.45 -0.7 -11.15 -1.8 -20.9 -3.55 Q-27.75 -5.25 -27.75 -7.45 L-27.2 -8.95 Q-26.7 -10.1 -26.7 -13.75 L-27.2 -14.6 -27.95 -16.05 M33.2 -13.85 Q33.75 -14.5 34.15 -15.5 L34.3 -16.1 35.1 -16.1 35.1 -15.9 34.55 -14.95 Q34.1 -14.45 34.1 -13.95 34.1 -12.6 34.6 -10.65 L35.1 -8.15 Q35.1 -7.1 34.65 -6.45 34.05 -5.7 32.85 -5.05 L32.7 -4.95 31.65 -4.35 31.2 -11.75 32.7 -12.85 32.85 -12.95 34.0 -13.85 33.2 -13.85 M30.55 -11.3 L30.5 -11.95 31.2 -12.35 31.2 -11.75 30.55 -11.3" fill="#1b1b1b" fill-rule="evenodd" stroke="none"/>
    <path d="M21.45 -9.3 L21.5 -9.3 21.5 -3.4 17.55 -2.4 9.4 -1.55 Q8.65 -1.55 8.4 -3.15 8.25 -4.5 8.4 -8.0 L21.45 -9.3 M-2.3 -8.0 L-2.5 -2.9 Q-2.7 -2.05 -4.45 -2.05 -8.5 -2.05 -15.85 -3.75 -23.0 -5.35 -23.0 -6.05 L-22.3 -11.4 Q-19.0 -9.8 -13.55 -9.0 L-2.35 -8.0 -2.3 -8.0" fill="#2e2e2e" fill-rule="evenodd" stroke="none"/>
    <path d="M7.15 -8.7 L9.4 -8.75 8.4 -8.0 7.25 -7.95 7.1 -7.95 7.15 -8.7 M20.6 -9.85 L22.85 -10.2 23.15 -9.55 21.45 -9.3 Q21.05 -9.55 20.6 -9.85 M-25.95 -13.85 Q-24.0 -12.6 -22.35 -12.0 L-19.15 -10.85 -22.3 -11.4 Q-25.05 -12.55 -26.65 -13.7 L-25.95 -13.85 M-3.95 -8.85 L-0.35 -8.7 -0.3 -7.95 -0.4 -7.95 -2.3 -8.0 -2.35 -8.0 -3.95 -8.85 M33.2 -13.85 L34.0 -13.85 32.85 -12.95 32.7 -12.85 31.2 -11.75 31.2 -12.35 32.7 -13.5 32.85 -13.6 33.2 -13.85" fill="#3c3c3c" fill-rule="evenodd" stroke="none"/>
    <path d="M8.4 -8.0 L9.4 -8.75 20.6 -9.85 Q21.05 -9.55 21.45 -9.3 L8.4 -8.0 M-19.15 -10.85 L-14.8 -10.0 -3.95 -8.85 -2.35 -8.0 -13.55 -9.0 Q-19.0 -9.8 -22.3 -11.4 L-19.15 -10.85" fill="#4e4e4e" fill-rule="evenodd" stroke="none"/>
    <path d="M8.4 -8.0 L9.4 -8.75 12.3 -9.0 12.3 -8.4 8.4 -8.0 M12.8 -8.45 L12.8 -9.05 17.15 -9.5 17.15 -8.85 12.8 -8.45 M17.65 -8.9 L17.65 -9.55 20.6 -9.85 Q21.05 -9.55 21.45 -9.3 L17.65 -8.9 M-22.3 -11.4 L-21.65 -11.25 -21.65 -11.1 -22.3 -11.4 M-21.15 -10.9 L-21.15 -11.2 -19.15 -10.85 -16.8 -10.35 -16.8 -9.55 Q-19.25 -10.15 -21.15 -10.9 M-11.45 -8.7 L-11.45 -9.5 -7.1 -9.1 -7.1 -8.25 -11.45 -8.7 M-11.95 -8.75 L-13.55 -9.0 -16.3 -9.45 -16.3 -10.25 -14.8 -10.0 -11.95 -9.55 -11.95 -8.75 M-6.6 -8.2 L-6.6 -9.05 -3.95 -8.85 -2.35 -8.0 -6.6 -8.2" fill="#eeeeee" fill-rule="evenodd" stroke="none"/>
    <path d="M7.15 -8.7 L7.45 -8.7 7.45 -7.95 7.25 -7.95 7.1 -7.95 7.15 -8.7 M9.4 -8.75 L8.4 -8.0 7.95 -7.95 7.95 -8.7 9.4 -8.75 M-1.75 -7.95 L-1.75 -8.75 -0.35 -8.7 -0.3 -7.95 -0.4 -7.95 -1.75 -7.95 M20.6 -9.85 L22.0 -10.05 22.0 -9.35 21.45 -9.3 Q21.05 -9.55 20.6 -9.85 M33.2 -13.85 L34.0 -13.85 32.85 -12.95 32.7 -12.85 32.2 -12.4 32.2 -13.05 32.7 -13.5 32.85 -13.6 33.2 -13.85 M22.85 -10.2 L23.15 -9.55 22.5 -9.45 22.5 -10.15 22.85 -10.2 M31.7 -12.05 L31.2 -11.75 31.2 -12.35 31.7 -12.65 31.7 -12.05 M-26.5 -13.7 L-26.5 -13.6 -26.65 -13.7 -26.5 -13.7 M-26.0 -13.85 L-25.95 -13.85 Q-24.0 -12.6 -22.35 -12.0 L-21.65 -11.75 -21.65 -11.25 -22.3 -11.4 Q-24.55 -12.35 -26.0 -13.25 L-26.0 -13.85 M-21.15 -11.2 L-21.15 -11.55 -19.15 -10.85 -21.15 -11.2 M-3.95 -8.85 L-2.25 -8.75 -2.25 -8.0 -2.3 -8.0 -2.35 -8.0 -3.95 -8.85" fill="#bdbdbd" fill-rule="evenodd" stroke="none"/>
    <path d="M8.4 -8.0 L12.3 -8.4 12.3 -4.65 8.35 -4.4 8.4 -8.0 M8.35 -3.9 L12.3 -4.1 12.3 -1.65 9.4 -1.55 Q8.65 -1.55 8.4 -3.15 L8.35 -3.9 M17.15 -8.85 L17.15 -5.1 12.8 -4.65 12.8 -8.45 17.15 -8.85 M21.5 -5.8 L17.65 -5.15 17.65 -8.9 21.45 -9.3 21.5 -9.3 21.5 -5.8 M12.8 -1.7 L12.8 -4.15 17.15 -4.6 17.15 -2.3 12.8 -1.7 M17.65 -2.4 L17.65 -4.65 21.5 -5.25 21.5 -3.4 17.65 -2.4 M-21.65 -11.1 L-21.65 -7.85 -22.75 -8.25 -22.3 -11.4 -21.65 -11.1 M-16.8 -9.55 L-16.8 -6.45 -19.5 -7.2 -21.15 -7.7 -21.15 -10.9 Q-19.25 -10.15 -16.8 -9.55 M-22.8 -7.75 L-21.65 -7.3 -21.65 -5.25 -23.0 -6.05 -22.8 -7.75 M-21.15 -5.1 L-21.15 -7.15 -19.65 -6.7 -16.8 -5.95 -16.8 -3.95 -21.15 -5.1 M-7.1 -8.25 L-7.1 -4.85 -11.45 -5.4 -11.45 -8.7 -7.1 -8.25 M-16.3 -9.45 L-13.55 -9.0 -11.95 -8.75 -11.95 -5.5 -16.3 -6.35 -16.3 -9.45 M-16.3 -3.85 L-16.3 -5.8 -11.95 -4.95 -11.95 -2.9 -15.85 -3.75 -16.3 -3.85 M-11.45 -2.8 L-11.45 -4.9 -7.1 -4.35 -7.1 -2.2 -11.45 -2.8 M-2.45 -4.5 L-6.6 -4.8 -6.6 -8.2 -2.35 -8.0 -2.3 -8.0 -2.45 -4.5 M-6.6 -2.15 L-6.6 -4.3 -2.45 -4.0 -2.5 -2.9 Q-2.7 -2.05 -4.45 -2.05 L-6.6 -2.15" fill="#939393" fill-rule="evenodd" stroke="none"/>
    <path d="M7.45 -7.95 L7.45 -4.4 7.25 -4.4 7.25 -7.95 7.45 -7.95 M6.6 -7.95 L6.6 -8.75 7.15 -8.7 7.1 -7.95 6.6 -7.95 M7.95 -7.95 L8.4 -8.0 8.35 -4.4 7.95 -4.4 7.95 -7.95 M-0.35 -8.7 L0.7 -8.65 0.7 -7.95 -0.3 -7.95 -0.35 -8.7 M-0.55 -4.45 L-1.75 -4.5 -1.75 -7.95 -0.4 -7.95 -0.55 -4.45 M7.95 -0.8 L7.95 -3.9 8.35 -3.9 8.4 -3.15 Q8.65 -1.55 9.4 -1.55 L12.3 -1.65 12.3 -1.15 7.95 -0.8 M7.25 -3.9 L7.45 -3.9 7.45 -0.75 7.35 -0.75 7.25 -3.9 M22.0 -9.35 L22.0 -5.9 21.5 -5.8 21.5 -9.3 21.45 -9.3 22.0 -9.35 M12.8 -1.15 L12.8 -1.7 17.15 -2.3 17.15 -1.45 17.1 -1.45 12.8 -1.15 M17.65 -2.4 L21.5 -3.4 21.5 -5.25 22.0 -5.35 22.0 -2.1 17.65 -1.5 17.65 -2.4 M33.2 -13.85 Q33.75 -14.5 34.15 -15.5 L34.3 -16.1 35.1 -16.1 35.1 -15.9 34.55 -14.95 Q34.1 -14.45 34.1 -13.95 34.1 -12.6 34.6 -10.65 L34.7 -10.35 Q33.65 -9.6 32.2 -8.95 L32.2 -12.4 32.7 -12.85 32.85 -12.95 34.0 -13.85 33.2 -13.85 M23.15 -9.55 L22.85 -10.2 25.1 -10.55 25.15 -9.8 23.15 -9.55 23.2 -6.55 23.2 -6.15 22.5 -6.0 22.5 -9.45 23.15 -9.55 M22.5 -2.2 L22.5 -5.45 23.2 -5.6 23.1 -2.4 22.5 -2.2 M34.8 -9.8 L35.1 -8.15 Q35.1 -7.1 34.65 -6.45 34.05 -5.7 32.85 -5.05 L32.7 -4.95 32.2 -4.65 32.2 -8.4 34.8 -9.8 M31.2 -11.75 L31.7 -12.05 31.7 -8.7 31.45 -8.6 31.2 -11.75 30.55 -11.3 30.5 -11.95 31.2 -12.35 31.2 -11.75 M31.45 -8.05 L31.7 -8.15 31.7 -4.35 31.65 -4.35 31.45 -8.05 M-1.75 -0.7 L-1.75 -3.95 -0.55 -3.9 -0.5 -0.75 -1.45 -0.7 -1.75 -0.7 M-27.95 -16.05 L-27.85 -16.4 -26.85 -17.25 -26.65 -17.3 -27.05 -15.05 -26.5 -14.55 -26.5 -13.7 -26.65 -13.7 -26.5 -13.6 -26.5 -10.15 -26.85 -10.4 Q-26.7 -11.7 -26.7 -13.75 L-27.2 -14.6 -27.95 -16.05 M-25.95 -13.85 L-26.0 -13.85 -26.0 -13.9 -25.95 -13.85 M-26.0 -13.25 Q-24.55 -12.35 -22.3 -11.4 L-22.75 -8.25 Q-24.65 -9.0 -26.0 -9.8 L-26.0 -13.25 M-21.65 -5.25 L-21.65 -3.75 Q-24.5 -4.5 -26.0 -5.35 L-26.0 -9.2 Q-24.65 -8.45 -22.8 -7.75 L-23.0 -6.05 -21.65 -5.25 M-26.5 -5.65 Q-27.75 -6.5 -27.75 -7.45 L-27.2 -8.95 -26.95 -9.8 -26.5 -9.5 -26.5 -5.65 M-21.15 -3.6 L-21.15 -5.1 -16.8 -3.95 -16.8 -2.7 -20.9 -3.55 -21.15 -3.6 M-11.95 -1.9 L-16.3 -2.6 -16.3 -3.85 -15.85 -3.75 -11.95 -2.9 -11.95 -1.9 M-11.45 -2.8 L-7.1 -2.2 -7.1 -1.25 -11.15 -1.8 -11.45 -1.85 -11.45 -2.8 M-2.25 -8.0 L-2.25 -4.5 -2.45 -4.5 -2.3 -8.0 -2.25 -8.0 M-6.6 -2.15 L-4.45 -2.05 Q-2.7 -2.05 -2.5 -2.9 L-2.45 -4.0 -2.25 -4.0 -2.25 -0.7 -6.6 -1.2 -6.6 -2.15" fill="#6f6f6f" fill-rule="evenodd" stroke="none"/>
    <path d="M7.25 -4.4 L6.6 -4.35 6.6 -7.95 7.1 -7.95 7.25 -7.95 7.25 -4.4 M0.7 -7.95 L0.8 -4.4 -0.55 -4.45 -0.4 -7.95 -0.3 -7.95 0.7 -7.95 M12.3 -1.15 L12.3 -0.1 7.95 0.15 7.95 -0.8 12.3 -1.15 M7.25 -3.9 L7.35 -0.75 7.45 -0.75 7.45 0.15 6.6 0.1 6.6 -3.85 7.25 -3.9 M17.15 -1.45 L17.15 -0.6 15.1 -0.4 12.8 -0.15 12.8 -1.15 17.1 -1.45 17.15 -1.45 M22.0 -2.1 L22.0 -1.15 17.65 -0.65 17.65 -1.5 22.0 -2.1 M34.7 -10.35 L34.6 -10.65 Q34.1 -12.6 34.1 -13.95 34.1 -14.45 34.55 -14.95 L35.1 -15.9 35.9 -11.4 34.7 -10.35 M23.15 -9.55 L25.15 -9.8 25.6 -6.7 23.2 -6.15 23.2 -6.55 23.15 -9.55 M23.2 -5.6 L25.65 -6.2 25.95 -1.85 22.5 -1.2 22.5 -2.2 23.1 -2.4 23.2 -5.6 M34.8 -9.8 L36.0 -10.8 36.45 -8.2 Q36.15 -6.9 34.55 -5.35 L32.85 -4.0 32.7 -3.9 32.2 -3.55 32.2 -4.65 32.7 -4.95 32.85 -5.05 Q34.05 -5.7 34.65 -6.45 35.1 -7.1 35.1 -8.15 L34.8 -9.8 M31.2 -11.75 L31.45 -8.6 30.75 -8.3 30.55 -11.3 31.2 -11.75 M31.7 -4.35 L31.7 -3.3 31.4 -3.2 31.05 -4.5 30.8 -7.8 31.45 -8.05 31.65 -4.35 31.7 -4.35 M-0.55 -3.9 L0.85 -3.85 0.95 0.3 -1.75 0.15 -1.75 -0.7 -1.45 -0.7 -0.5 -0.75 -0.55 -3.9 M-26.85 -10.4 Q-28.0 -11.25 -28.55 -12.15 L-27.95 -16.05 -27.2 -14.6 -26.7 -13.75 Q-26.7 -11.7 -26.85 -10.4 M-21.65 -3.75 L-21.65 -2.8 Q-24.3 -3.65 -26.0 -4.55 L-26.0 -5.35 Q-24.5 -4.5 -21.65 -3.75 M-26.95 -9.8 L-27.2 -8.95 -27.75 -7.45 Q-27.75 -6.5 -26.5 -5.65 L-26.5 -4.8 Q-28.95 -6.3 -29.2 -8.05 L-28.65 -11.4 -26.95 -9.8 M-16.8 -2.7 L-16.8 -1.6 -20.7 -2.55 -21.15 -2.65 -21.15 -3.6 -20.9 -3.55 -16.8 -2.7 M-11.95 -1.9 L-11.95 -0.8 -16.3 -1.5 -16.3 -2.6 -11.95 -1.9 M-7.1 -1.25 L-7.1 -0.25 -11.45 -0.75 -11.45 -1.85 -11.15 -1.8 -7.1 -1.25 M-2.25 -0.7 L-2.25 0.15 -6.6 -0.2 -6.6 -1.2 -2.25 -0.7" fill="#525252" fill-rule="evenodd" stroke="none"/>
  </g>
</svg>
