<?xml version="1.0" encoding="UTF-8" standalone="no"?>
<svg xmlns:ffdec="https://www.free-decompiler.com/flash" xmlns:xlink="http://www.w3.org/1999/xlink" ffdec:objectType="shape" height="149.25px" width="125.0px" xmlns="http://www.w3.org/2000/svg">
  <g transform="matrix(1.0, 0.0, 0.0, 1.0, 60.05, 60.45)">
    <path d="M27.3 -11.45 L29.2 -11.55 Q28.6 -9.05 28.35 -6.35 L28.3 -5.4 28.15 -1.85 28.15 -1.5 28.3 3.3 28.45 5.25 Q29.0 11.95 30.5 19.65 32.9 31.6 32.9 32.95 32.9 36.6 32.1 40.35 30.95 45.75 31.55 46.7 28.85 50.65 23.95 53.35 30.55 46.25 30.55 33.55 30.55 28.0 29.0 13.4 L28.2 5.35 28.05 3.55 27.6 -2.1 27.4 -5.25 27.35 -6.65 27.15 -5.2 26.9 -2.85 26.65 -0.3 26.65 0.15 26.3 4.65 26.3 4.85 26.3 5.9 Q26.35 12.8 26.75 16.65 26.65 17.35 25.65 17.5 L22.25 18.0 Q23.35 16.3 23.75 14.9 L25.0 6.35 25.0 6.2 25.15 5.15 25.75 0.6 25.9 -0.35 26.3 -3.45 26.55 -5.15 27.0 -8.4 27.35 -11.1 Q27.25 -10.9 27.3 -11.45 M36.85 -12.2 L39.0 -12.45 38.2 -9.2 37.85 -7.25 37.65 -6.1 Q37.0 -2.2 36.85 2.0 36.85 4.05 38.85 14.2 L40.9 24.35 40.85 27.05 Q40.1 25.25 38.1 23.45 36.25 21.8 35.5 21.8 L34.8 21.95 34.6 22.45 Q32.85 16.25 32.85 8.55 L32.95 5.95 Q34.55 15.0 35.2 16.75 36.1 19.2 39.75 23.05 38.45 19.8 36.55 10.8 34.75 2.05 34.75 -0.45 34.75 -3.85 35.65 -7.85 L35.9 -8.95 36.5 -11.05 36.85 -12.2 M43.25 -13.15 L45.5 -13.8 45.6 -13.8 Q48.3 -7.6 52.55 -6.15 L51.8 -12.65 53.15 -12.6 52.95 -11.2 Q52.95 -9.3 53.75 -7.75 54.9 -5.4 57.25 -5.95 L54.1 -12.55 57.95 -12.35 57.95 -12.3 Q57.75 -9.6 58.4 -7.55 59.05 -5.5 62.35 -1.55 56.4 -2.45 54.55 -3.35 51.15 -4.95 45.05 -11.2 44.1 -10.6 44.1 -8.7 44.1 -7.85 44.65 -6.0 45.1 -4.45 45.5 -3.65 42.3 -4.4 39.35 -6.25 L39.75 -8.15 Q41.15 -7.35 42.7 -7.15 L42.75 -8.45 Q42.95 -9.8 43.6 -9.8 43.95 -9.8 43.25 -13.15 M18.55 19.1 L18.45 23.35 Q18.35 24.0 17.55 24.65 15.25 26.45 9.45 27.5 L2.0 28.3 Q-4.7 28.6 -13.5 28.0 L-17.0 28.05 Q-19.95 28.15 -21.4 26.9 -22.85 25.6 -23.95 23.6 L-25.25 20.85 -29.5 12.35 Q-32.25 5.05 -32.25 -4.6 -32.25 -11.45 -30.5 -17.3 L-29.7 -17.0 -22.9 -15.25 Q-23.2 -14.35 -23.4 -14.2 L-23.8 -12.2 -20.15 -14.7 -8.6 -12.6 Q-13.0 -7.8 -14.0 -5.4 L-15.5 -0.5 Q-16.35 -1.4 -16.65 -2.25 L-16.55 -1.9 Q-20.0 6.0 -20.0 20.35 -20.0 24.85 -15.95 25.9 L-10.25 26.5 -11.1 25.9 Q-12.1 25.0 -12.3 24.15 -12.25 23.2 -11.35 23.1 -8.85 23.85 -6.5 25.1 -4.1 26.0 1.15 26.25 L-0.1 25.35 -2.65 23.15 -4.3 21.35 Q-4.25 20.5 -3.5 20.35 -0.65 22.05 2.0 23.35 L3.8 24.15 Q7.75 25.95 9.55 25.95 L13.1 25.4 Q15.6 24.65 15.6 23.25 L13.65 20.15 16.3 18.05 17.15 17.0 Q17.15 16.4 16.35 15.0 L15.5 13.55 20.9 8.85 19.9 12.3 Q18.95 14.5 18.7 16.25 L17.9 18.85 18.55 19.1 M24.4 -1.7 Q24.05 -1.85 23.85 -5.65 L23.8 -6.35 23.75 -6.8 24.2 -9.95 24.75 -10.95 24.4 -1.7 M21.7 5.95 L21.1 8.1 20.95 8.75 Q19.55 8.2 18.75 7.55 19.6 6.55 21.7 5.95 M2.0 23.35 L2.0 28.3 2.0 23.35" fill="#cbc8c0" fill-rule="evenodd" stroke="none"/>
    <path d="M39.0 -12.45 L40.7 -12.7 39.75 -8.15 39.35 -6.25 Q42.3 -4.4 45.5 -3.65 45.1 -4.45 44.65 -6.0 44.1 -7.85 44.1 -8.7 44.1 -10.6 45.05 -11.2 51.15 -4.95 54.55 -3.35 56.4 -2.45 62.35 -1.55 59.05 -5.5 58.4 -7.55 57.75 -9.6 57.95 -12.3 L57.95 -12.35 58.7 -12.3 59.9 -12.2 59.95 -11.7 Q60.15 -9.45 61.4 -6.45 63.15 -2.4 64.95 -0.7 L62.65 -0.1 Q58.8 -0.1 52.4 -3.25 50.3 -4.25 47.05 -7.65 45.05 -9.75 45.55 -8.2 L46.4 -5.4 47.2 -2.6 Q46.7 -2.1 45.7 -2.1 43.45 -2.1 41.5 -3.2 L39.1 -4.9 38.7 -2.8 38.4 0.4 Q38.4 2.95 40.3 12.7 42.2 22.4 42.2 24.25 42.2 25.95 41.8 28.2 L41.0 31.2 36.75 24.05 37.2 31.0 Q37.2 38.5 33.45 46.4 28.85 56.2 22.0 54.95 L21.85 54.1 Q26.2 45.9 27.4 42.9 29.25 38.4 29.25 31.5 28.45 22.6 27.25 17.7 25.3 18.9 24.45 19.15 L20.2 19.4 18.55 19.1 17.9 18.85 18.7 16.25 Q18.95 14.5 19.9 12.3 L20.9 8.85 20.95 8.75 21.1 8.1 21.7 5.95 22.7 1.85 23.2 -0.65 Q23.7 -3.7 23.5 -5.55 L23.45 -5.95 23.75 -6.8 23.8 -6.35 23.85 -5.65 Q24.05 -1.85 24.4 -1.7 L24.4 -0.5 24.25 1.3 23.6 5.5 23.3 6.95 Q21.9 13.75 19.75 17.7 L22.25 18.0 25.65 17.5 Q26.65 17.35 26.75 16.65 26.35 12.8 26.3 5.9 L26.3 4.85 26.3 4.65 26.65 0.15 26.65 -0.3 26.9 -2.85 27.15 -5.2 27.35 -6.65 27.4 -5.25 27.6 -2.1 28.05 3.55 28.2 5.35 29.0 13.4 Q30.55 28.0 30.55 33.55 30.55 46.25 23.95 53.35 28.85 50.65 31.55 46.7 34.0 43.1 35.7 33.7 L35.35 25.25 34.6 22.45 34.8 21.95 35.5 21.8 Q36.25 21.8 38.1 23.45 40.1 25.25 40.85 27.05 L40.9 24.35 38.85 14.2 Q36.85 4.05 36.85 2.0 37.0 -2.2 37.65 -6.1 L37.85 -7.25 38.2 -9.2 39.0 -12.45 M-13.5 28.0 L-13.0 28.5 -13.75 29.15 -20.25 29.15 Q-26.5 24.5 -30.2 14.9 -33.75 5.7 -33.75 -4.65 -33.75 -11.65 -31.65 -18.0 L-30.8 -17.5 -30.5 -17.3 Q-32.25 -11.45 -32.25 -4.6 -32.25 5.05 -29.5 12.35 L-25.25 20.85 -23.95 23.6 Q-22.85 25.6 -21.4 26.9 -19.95 28.15 -17.0 28.05 L-13.5 28.0 M-28.25 -24.95 L-28.6 -25.1 -28.6 -25.15 -28.25 -24.95" fill="#97877d" fill-rule="evenodd" stroke="none"/>
    <path d="M2.0 -5.3 L9.0 -4.0 8.8 -3.5 Q6.45 -2.25 4.35 -2.75 3.15 -3.0 2.0 -3.85 L2.0 -5.3 2.0 -3.85 0.5 -5.25 0.6 -5.75 1.45 -5.4 2.0 -5.3 M-5.05 -12.05 L-8.05 -10.0 Q-5.05 -7.65 -3.75 -7.0 -4.1 -6.65 -5.15 -6.35 L-6.95 -6.05 -9.8 -6.25 Q-8.3 -3.0 -2.85 2.3 1.3 6.25 2.0 7.3 L2.0 8.3 2.0 7.3 2.15 7.6 2.0 8.3 1.4 8.25 2.0 9.0 2.45 9.55 2.3 10.2 2.0 10.15 -1.5 6.75 -6.0 2.0 Q-7.35 0.45 -13.15 -2.8 L-13.95 0.55 Q-14.7 3.2 -15.0 3.6 -15.9 2.7 -16.4 1.6 -17.05 3.25 -17.65 3.7 -17.9 4.3 -17.9 8.8 -17.9 16.6 -16.95 19.25 L-14.7 23.9 -14.7 23.25 -14.65 20.4 Q-14.55 18.1 -13.75 17.25 L-11.05 19.35 -8.15 21.65 -8.0 21.5 Q-8.0 19.05 -9.35 15.15 -10.75 11.3 -10.75 9.4 -10.75 7.9 -10.25 7.4 -8.95 8.75 -7.65 11.35 L-5.85 14.8 Q-5.05 16.0 0.3 19.65 L2.0 20.8 Q6.05 23.4 7.2 23.4 L12.6 22.9 9.25 20.15 Q5.7 17.05 3.35 14.25 L4.25 13.85 8.7 15.05 Q13.1 16.25 13.85 16.25 8.85 12.35 8.6 11.55 9.75 10.6 16.0 9.35 L15.9 9.25 8.85 5.6 9.85 4.75 17.75 3.15 22.7 1.85 21.7 5.95 Q19.6 6.55 18.75 7.55 19.55 8.2 20.95 8.75 L20.9 8.85 15.5 13.55 16.35 15.0 Q17.15 16.4 17.15 17.0 L16.3 18.05 13.65 20.15 15.6 23.25 Q15.6 24.65 13.1 25.4 L9.55 25.95 Q7.75 25.95 3.8 24.15 L2.0 23.35 2.0 20.8 2.0 23.35 Q-0.65 22.05 -3.5 20.35 -4.25 20.5 -4.3 21.35 L-2.65 23.15 -0.1 25.35 1.15 26.25 Q-4.1 26.0 -6.5 25.1 -8.85 23.85 -11.35 23.1 -12.25 23.2 -12.3 24.15 -12.1 25.0 -11.1 25.9 L-10.25 26.5 -15.95 25.9 Q-20.0 24.85 -20.0 20.35 -20.0 6.0 -16.55 -1.9 L-16.65 -2.25 Q-16.35 -1.4 -15.5 -0.5 L-14.0 -5.4 Q-13.0 -7.8 -8.6 -12.6 L-7.75 -12.45 -5.05 -12.05 M21.3 -11.2 L27.3 -11.45 Q27.25 -10.9 27.35 -11.1 L27.0 -8.4 26.55 -5.15 26.3 -3.45 25.9 -0.35 25.75 0.6 25.15 5.15 25.0 6.2 25.0 6.35 23.75 14.9 Q23.35 16.3 22.25 18.0 L19.75 17.7 Q21.9 13.75 23.3 6.95 L23.6 5.5 24.25 1.3 24.4 -0.5 24.4 -1.7 24.75 -10.95 24.2 -9.95 23.75 -6.8 23.45 -5.95 22.85 -5.3 23.5 -5.55 Q23.7 -3.7 23.2 -0.65 L21.5 -0.75 16.8 -0.05 13.5 0.65 12.65 0.5 12.5 0.0 Q13.3 -0.8 16.0 -2.25 18.75 -3.7 22.2 -5.05 L21.35 -5.15 21.3 -6.6 16.35 -6.7 Q12.7 -6.8 12.1 -8.05 12.65 -8.45 16.45 -9.5 L21.25 -10.85 21.3 -11.2 M29.2 -11.55 L30.1 -11.6 30.0 -10.7 Q29.85 -10.7 29.8 -9.6 29.55 -7.35 29.5 -0.25 L29.5 0.0 29.6 1.8 29.75 4.9 30.1 10.05 Q31.75 8.85 32.05 7.8 32.6 6.1 32.35 0.1 L32.35 -0.6 32.5 -3.4 32.75 -5.35 32.85 -5.95 33.85 -10.65 34.2 -11.95 36.85 -12.2 36.5 -11.05 35.9 -8.95 35.65 -7.85 Q34.75 -3.85 34.75 -0.45 34.75 2.05 36.55 10.8 38.45 19.8 39.75 23.05 36.1 19.2 35.2 16.75 34.55 15.0 32.95 5.95 L32.85 8.55 Q32.85 16.25 34.6 22.45 L35.35 25.25 35.7 33.7 Q34.0 43.1 31.55 46.7 30.95 45.75 32.1 40.35 32.9 36.6 32.9 32.95 32.9 31.6 30.5 19.65 29.0 11.95 28.45 5.25 L28.3 3.3 28.15 -1.5 28.15 -1.85 28.3 -5.4 28.35 -6.35 Q28.6 -9.05 29.2 -11.55 M40.7 -12.7 L42.35 -12.95 43.25 -13.15 Q43.95 -9.8 43.6 -9.8 42.95 -9.8 42.75 -8.45 L42.7 -7.15 Q41.15 -7.35 39.75 -8.15 L40.7 -12.7 M45.6 -13.8 L47.45 -14.45 47.6 -14.5 48.9 -14.8 49.75 -14.45 50.0 -14.0 Q50.25 -13.0 50.85 -12.75 L50.95 -12.7 51.8 -12.65 52.55 -6.15 Q48.3 -7.6 45.6 -13.8 M53.15 -12.6 L54.1 -12.55 57.25 -5.95 Q54.9 -5.4 53.75 -7.75 52.95 -9.3 52.95 -11.2 L53.15 -12.6 M-22.9 -15.25 L-20.15 -14.7 -23.8 -12.2 -23.4 -14.2 Q-23.2 -14.35 -22.9 -15.25 M2.0 9.0 L2.0 10.15 2.0 9.0 M-16.25 6.5 Q-16.25 5.65 -15.75 4.75 L-13.75 10.1 -13.15 12.55 -13.65 12.5 -15.6 8.4 -16.25 6.5" fill="#ebe8e0" fill-rule="evenodd" stroke="none"/>
    <path d="M2.0 -3.85 Q3.15 -3.0 4.35 -2.75 6.45 -2.25 8.8 -3.5 L9.0 -4.0 2.0 -5.3 1.45 -5.4 0.6 -5.75 0.5 -5.25 2.0 -3.85 2.0 7.3 2.0 -3.85 M2.0 -11.35 L2.0 -5.3 2.0 -11.35 Q8.5 -10.95 16.7 -11.1 L19.75 -11.15 19.8 -11.15 21.3 -11.2 21.25 -10.85 16.45 -9.5 Q12.65 -8.45 12.1 -8.05 12.7 -6.8 16.35 -6.7 L21.3 -6.6 21.35 -5.15 22.2 -5.05 Q18.75 -3.7 16.0 -2.25 13.3 -0.8 12.5 0.0 L12.65 0.5 13.5 0.65 16.8 -0.05 21.5 -0.75 23.2 -0.65 22.7 1.85 17.75 3.15 9.85 4.75 8.85 5.6 15.9 9.25 16.0 9.35 Q9.75 10.6 8.6 11.55 8.85 12.35 13.85 16.25 13.1 16.25 8.7 15.05 L4.25 13.85 3.35 14.25 Q5.7 17.05 9.25 20.15 L12.6 22.9 7.2 23.4 Q6.05 23.4 2.0 20.8 L2.0 10.15 2.0 20.8 0.3 19.65 Q-5.05 16.0 -5.85 14.8 L-7.65 11.35 Q-8.95 8.75 -10.25 7.4 -10.75 7.9 -10.75 9.4 -10.75 11.3 -9.35 15.15 -8.0 19.05 -8.0 21.5 L-8.15 21.65 -11.05 19.35 -13.75 17.25 Q-14.55 18.1 -14.65 20.4 L-14.7 23.25 -14.7 23.9 -16.95 19.25 Q-17.9 16.6 -17.9 8.8 -17.9 4.3 -17.65 3.7 -17.05 3.25 -16.4 1.6 -15.9 2.7 -15.0 3.6 -14.7 3.2 -13.95 0.55 L-13.15 -2.8 Q-7.35 0.45 -6.0 2.0 L-1.5 6.75 2.0 10.15 2.3 10.2 2.45 9.55 2.0 9.0 1.4 8.25 2.0 8.3 2.15 7.6 2.0 7.3 Q1.3 6.25 -2.85 2.3 -8.3 -3.0 -9.8 -6.25 L-6.95 -6.05 -5.15 -6.35 Q-4.1 -6.65 -3.75 -7.0 -5.05 -7.65 -8.05 -10.0 L-5.05 -12.05 2.0 -11.35 M30.1 -11.6 L34.2 -11.95 33.85 -10.65 32.85 -5.95 32.75 -5.35 32.5 -3.4 32.35 -0.6 32.35 0.1 Q32.6 6.1 32.05 7.8 31.75 8.85 30.1 10.05 L29.75 4.9 29.6 1.8 29.5 0.0 29.5 -0.25 Q29.55 -7.35 29.8 -9.6 29.85 -10.7 30.0 -10.7 L30.1 -11.6 M23.45 -5.95 L23.5 -5.55 22.85 -5.3 23.45 -5.95 M2.0 9.0 L2.0 8.3 2.0 9.0 M-16.25 6.5 L-15.6 8.4 -13.65 12.5 -13.15 12.55 -13.75 10.1 -15.75 4.75 Q-16.25 5.65 -16.25 6.5" fill="#ffffff" fill-rule="evenodd" stroke="none"/>
    <path d="M42.9 -60.45 L43.45 -60.35 42.85 -60.35 42.9 -60.45" fill="#ff0000" fill-rule="evenodd" stroke="none"/>
    <path d="M-24.6 -20.95 Q-21.5 -20.95 -21.5 -18.85 -21.5 -18.25 -21.95 -17.1 L-22.5 -15.65 Q-21.25 -15.9 -19.75 -16.65 L-17.25 -16.65 Q-17.25 -16.1 -18.6 -12.85 L-20.75 -7.5 -20.5 -7.5 -17.85 -8.65 -16.6 -8.5 -15.95 -8.35 Q-15.75 -8.6 -15.75 -7.6 -17.25 -4.1 -18.75 0.65 -21.75 10.2 -21.75 19.45 -21.75 24.25 -19.3 34.15 -16.85 44.05 -16.85 49.1 -16.85 51.25 -17.45 53.85 -18.2 57.2 -19.65 59.05 -19.95 55.55 -21.4 52.85 -22.6 50.6 -23.8 50.1 L-23.6 51.35 Q-24.0 64.5 -30.25 71.75 -36.3 78.8 -49.55 82.1 -46.05 75.1 -43.1 67.95 -37.2 53.8 -37.95 48.75 -39.75 52.65 -43.15 61.05 -46.3 67.5 -49.5 67.5 -50.5 67.5 -50.25 67.1 -45.05 62.55 -40.95 49.7 -37.35 38.4 -37.35 30.95 L-37.85 24.15 -38.95 13.45 -40.9 -3.55 Q-40.9 -10.45 -35.45 -15.85 -30.3 -20.95 -24.6 -20.95 M-28.75 -18.25 Q-29.4 -16.9 -31.15 -15.2 L-34.0 -12.0 Q-37.5 -6.95 -37.5 4.95 -37.5 9.75 -35.25 43.0 -35.25 51.3 -38.1 61.55 -40.95 71.7 -44.4 75.8 L-44.35 76.25 Q-44.75 76.4 -43.75 76.4 -41.0 76.4 -36.15 70.1 -31.6 64.2 -29.95 59.3 L-27.5 51.85 Q-27.15 50.35 -27.15 48.6 -27.15 45.3 -27.55 44.05 L-28.4 42.0 Q-29.65 37.95 -29.65 19.35 L-29.35 13.75 -29.0 13.75 Q-29.65 21.25 -26.35 31.8 -23.2 41.85 -19.65 45.25 L-22.0 34.55 Q-24.3 22.9 -24.3 14.65 L-22.45 6.65 Q-20.65 -0.95 -20.65 -2.85 L-20.6 -3.1 -21.25 -3.25 -22.3 -2.95 -23.3 -2.25 -22.1 -9.1 -21.4 -13.7 -21.35 -13.85 -22.1 -14.0 Q-22.95 -14.0 -28.55 -9.5 L-28.4 -14.65 -28.15 -17.05 Q-28.15 -17.55 -28.5 -17.15 -28.9 -16.8 -28.9 -17.3 L-28.65 -17.95 Q-28.55 -18.0 -28.75 -18.25" fill="#ebe8e0" fill-rule="evenodd" stroke="none"/>
    <path d="M-24.6 -20.95 Q-30.3 -20.95 -35.45 -15.85 -40.9 -10.45 -40.9 -3.55 L-38.95 13.45 -37.85 24.15 -37.35 30.95 Q-37.35 38.4 -40.95 49.7 -45.05 62.55 -50.25 67.1 -50.5 67.5 -49.5 67.5 -46.3 67.5 -43.15 61.05 -39.75 52.65 -37.95 48.75 -37.2 53.8 -43.1 67.95 -46.05 75.1 -49.55 82.1 -36.3 78.8 -30.25 71.75 -24.0 64.5 -23.6 51.35 L-23.8 50.1 Q-22.6 50.6 -21.4 52.85 -19.95 55.55 -19.65 59.05 -18.2 57.2 -17.45 53.85 -16.85 51.25 -16.85 49.1 -16.85 44.05 -19.3 34.15 -21.75 24.25 -21.75 19.45 -21.75 10.2 -18.75 0.65 -17.25 -4.1 -15.75 -7.6 -15.75 -8.6 -15.95 -8.35 L-16.6 -8.5 -17.85 -8.65 -20.5 -7.5 -20.75 -7.5 -18.6 -12.85 Q-17.25 -16.1 -17.25 -16.65 L-19.75 -16.65 Q-21.25 -15.9 -22.5 -15.65 L-21.95 -17.1 Q-21.5 -18.25 -21.5 -18.85 -21.5 -20.95 -24.6 -20.95 M-25.8 -22.05 Q-19.45 -21.05 -15.15 -16.1 -12.4 -5.4 -16.3 6.15 -17.7 10.5 -17.8 15.15 -18.1 27.1 -15.7 38.95 -13.35 50.65 -16.5 62.05 -17.1 64.35 -18.0 66.55 -18.95 63.8 -21.05 62.15 L-21.55 61.95 Q-24.1 69.5 -29.55 75.4 -33.3 79.5 -38.65 81.75 -46.55 85.05 -55.05 86.65 -48.55 79.65 -45.9 70.35 -45.6 69.25 -45.7 68.0 -48.25 68.15 -50.6 68.95 L-54.45 69.95 -57.2 70.25 Q-48.65 64.4 -44.9 54.7 -40.15 42.2 -40.05 28.7 -39.95 16.8 -41.8 4.9 -44.35 -11.0 -32.2 -20.55 -29.4 -22.85 -25.8 -22.05 M-46.15 51.3 L-49.7 59.55 -54.45 56.4 -50.2 54.0 -46.15 51.3" fill="#cbc8c0" fill-rule="evenodd" stroke="none"/>
    <path d="M-28.75 -18.25 Q-28.55 -18.0 -28.65 -17.95 L-28.9 -17.3 Q-28.9 -16.8 -28.5 -17.15 -28.15 -17.55 -28.15 -17.05 L-28.4 -14.65 -28.55 -9.5 Q-22.95 -14.0 -22.1 -14.0 L-21.35 -13.85 -21.4 -13.7 -22.1 -9.1 -23.3 -2.25 -22.3 -2.95 -21.25 -3.25 -20.6 -3.1 -20.65 -2.85 Q-20.65 -0.95 -22.45 6.65 L-24.3 14.65 Q-24.3 22.9 -22.0 34.55 L-19.65 45.25 Q-23.2 41.85 -26.35 31.8 -29.65 21.25 -29.0 13.75 L-29.35 13.75 -29.65 19.35 Q-29.65 37.95 -28.4 42.0 L-27.55 44.05 Q-27.15 45.3 -27.15 48.6 -27.15 50.35 -27.5 51.85 L-29.95 59.3 Q-31.6 64.2 -36.15 70.1 -41.0 76.4 -43.75 76.4 -44.75 76.4 -44.35 76.25 L-44.4 75.8 Q-40.95 71.7 -38.1 61.55 -35.25 51.3 -35.25 43.0 -37.5 9.75 -37.5 4.95 -37.5 -6.95 -34.0 -12.0 L-31.15 -15.2 Q-29.4 -16.9 -28.75 -18.25" fill="#ffffff" fill-rule="evenodd" stroke="none"/>
    <path d="M-25.8 -22.05 Q-29.4 -22.85 -32.2 -20.55 -44.35 -11.0 -41.8 4.9 -39.95 16.8 -40.05 28.7 -40.15 42.2 -44.9 54.7 -48.65 64.4 -57.2 70.25 L-54.45 69.95 -50.6 68.95 Q-48.25 68.15 -45.7 68.0 -45.6 69.25 -45.9 70.35 -48.55 79.65 -55.05 86.65 -46.55 85.05 -38.65 81.75 -33.3 79.5 -29.55 75.4 -24.1 69.5 -21.55 61.95 L-21.05 62.15 Q-18.95 63.8 -18.0 66.55 -17.1 64.35 -16.5 62.05 -13.35 50.65 -15.7 38.95 -18.1 27.1 -17.8 15.15 -17.7 10.5 -16.3 6.15 -12.4 -5.4 -15.15 -16.1 -19.45 -21.05 -25.8 -22.05 M-39.6 -15.2 Q-33.7 -26.0 -21.15 -23.15 -19.1 -22.65 -17.2 -21.75 -14.5 -20.5 -13.4 -17.9 -10.25 -10.7 -13.0 -2.35 -18.05 12.6 -15.15 28.2 -13.1 39.35 -12.5 50.5 -11.9 62.45 -19.15 70.05 L-19.15 69.9 Q-19.45 67.15 -20.7 64.5 L-21.05 63.85 Q-22.75 74.1 -31.75 79.45 -44.55 87.1 -59.45 88.8 L-59.6 87.65 Q-50.15 81.5 -46.9 70.0 -50.75 72.0 -55.4 72.0 -58.3 72.5 -60.0 70.6 L-60.05 70.15 -58.15 68.8 Q-53.6 65.65 -50.55 60.85 L-51.75 60.35 Q-54.6 59.2 -56.25 57.0 L-56.8 55.8 Q-55.3 55.2 -53.95 54.4 -49.2 51.7 -45.05 47.8 -42.95 40.45 -42.05 33.05 -40.55 20.7 -42.95 8.7 -45.6 -4.1 -39.6 -15.2 M-46.15 51.3 L-50.2 54.0 -54.45 56.4 -49.7 59.55 -46.15 51.3" fill="#97877d" fill-rule="evenodd" stroke="none"/>
    <path d="M-13.2 -30.9 L-12.9 -28.6 -8.55 -30.8 -7.4 -29.05 -6.8 -29.0 -6.3 -28.25 -4.35 -28.45 -3.85 -26.05 -3.1 -25.55 Q-2.2 -24.85 -1.85 -23.65 L-1.3 -21.65 -4.7 -21.55 Q-10.85 -21.5 -16.65 -23.65 L-16.6 -24.9 Q-16.2 -28.65 -13.2 -30.9" fill="#ebe8e0" fill-rule="evenodd" stroke="none"/>
    <path d="M-20.25 -29.4 Q-17.4 -32.05 -14.15 -32.6 -8.55 -33.55 -4.4 -30.65 0.1 -27.45 1.5 -20.35 -3.8 -19.8 -11.4 -21.15 L-24.25 -23.65 -24.2 -23.7 Q-22.85 -27.0 -20.25 -29.4 M-13.2 -30.9 Q-16.2 -28.65 -16.6 -24.9 L-16.65 -23.65 Q-10.85 -21.5 -4.7 -21.55 L-1.3 -21.65 -1.85 -23.65 Q-2.2 -24.85 -3.1 -25.55 L-3.85 -26.05 -4.35 -28.45 -6.3 -28.25 -6.8 -29.0 -7.4 -29.05 -8.55 -30.8 -12.9 -28.6 -13.2 -30.9" fill="#cbc8c0" fill-rule="evenodd" stroke="none"/>
  </g>
</svg>
