<?xml version="1.0" encoding="UTF-8" standalone="no"?>
<svg xmlns:ffdec="https://www.free-decompiler.com/flash" xmlns:xlink="http://www.w3.org/1999/xlink" ffdec:objectType="shape" height="1457.8px" width="1943.45px" xmlns="http://www.w3.org/2000/svg">
  <g transform="matrix(1.0, 0.0, 0.0, 1.0, 639.75, 476.75)">
    <path d="M328.1 240.15 Q330.45 237.8 330.45 234.55 330.45 231.25 328.1 229.0 325.8 226.65 322.55 226.65 319.25 226.65 316.95 229.0 314.6 231.25 314.6 234.55 314.6 237.8 316.95 240.15 319.25 242.45 322.55 242.45 325.8 242.45 328.1 240.15 M1303.2 980.55 L-639.25 980.55 -639.25 -476.25 1303.2 -476.25 1303.2 980.55" fill="#000000" fill-rule="evenodd" stroke="none"/>
    <path d="M328.1 240.15 Q325.8 242.45 322.55 242.45 319.25 242.45 316.95 240.15 314.6 237.8 314.6 234.55 314.6 231.25 316.95 229.0 319.25 226.65 322.55 226.65 325.8 226.65 328.1 229.0 330.45 231.25 330.45 234.55 330.45 237.8 328.1 240.15 M1303.2 980.55 L-639.25 980.55 -639.25 -476.25 1303.2 -476.25 1303.2 980.55 Z" fill="none" stroke="#000000" stroke-linecap="round" stroke-linejoin="round" stroke-width="1.0"/>
  </g>
</svg>
