<?xml version="1.0" encoding="UTF-8" standalone="no"?>
<svg xmlns:ffdec="https://www.free-decompiler.com/flash" xmlns:xlink="http://www.w3.org/1999/xlink" ffdec:objectType="shape" height="1457.8px" width="1943.45px" xmlns="http://www.w3.org/2000/svg">
  <g transform="matrix(1.0, 0.0, 0.0, 1.0, 639.75, 476.75)">
    <path d="M1303.2 -476.25 L1303.2 980.55 -639.25 980.55 -639.25 -476.25 1303.2 -476.25 M341.3 235.05 Q341.3 227.5 335.95 222.2 330.65 216.85 323.1 216.85 315.55 216.85 310.2 222.2 304.85 227.5 304.85 235.05 304.85 242.6 310.2 247.95 315.55 253.3 323.1 253.3 330.65 253.3 335.95 247.95 341.3 242.6 341.3 235.05 341.3 242.6 335.95 247.95 330.65 253.3 323.1 253.3 315.55 253.3 310.2 247.95 304.85 242.6 304.85 235.05 304.85 227.5 310.2 222.2 315.55 216.85 323.1 216.85 330.65 216.85 335.95 222.2 341.3 227.5 341.3 235.05" fill="#000000" fill-rule="evenodd" stroke="none"/>
    <path d="M1303.2 -476.25 L1303.2 980.55 -639.25 980.55 -639.25 -476.25 1303.2 -476.25 M341.3 235.05 Q341.3 242.6 335.95 247.95 330.65 253.3 323.1 253.3 315.55 253.3 310.2 247.95 304.85 242.6 304.85 235.05 304.85 227.5 310.2 222.2 315.55 216.85 323.1 216.85 330.65 216.85 335.95 222.2 341.3 227.5 341.3 235.05 Z" fill="none" stroke="#000000" stroke-linecap="round" stroke-linejoin="round" stroke-width="1.0"/>
  </g>
</svg>
