<?xml version="1.0" encoding="UTF-8" standalone="no"?>
<svg xmlns:ffdec="https://www.free-decompiler.com/flash" xmlns:xlink="http://www.w3.org/1999/xlink" ffdec:objectType="shape" height="121.25px" width="66.1px" xmlns="http://www.w3.org/2000/svg">
  <g transform="matrix(1.0, 0.0, 0.0, 1.0, 30.0, 60.0)">
    <path d="M34.55 -35.7 Q35.4 -33.9 35.4 -32.35 L35.2 -30.75 35.0 -29.15 35.15 -27.45 36.1 -21.15 35.6 -17.25 33.25 -13.5 32.55 -9.9 Q31.9 -8.45 28.55 -3.5 L26.5 0.25 Q24.75 3.25 24.0 3.25 23.7 3.25 23.05 5.5 22.3 8.1 21.3 9.1 20.0 10.45 19.35 14.35 18.85 17.05 18.85 19.5 L19.2 24.25 18.85 28.8 18.2 35.05 18.95 38.75 Q19.7 42.05 19.7 43.85 19.7 49.25 15.85 54.75 11.9 60.45 7.55 60.45 L5.3 60.85 1.7 61.25 -0.65 61.0 -1.85 60.75 -3.7 60.05 Q-6.0 59.3 -7.75 57.9 L-9.45 56.05 -11.15 53.9 Q-12.25 52.4 -13.45 48.65 -15.05 43.6 -15.05 38.75 -15.05 35.0 -13.6 30.7 L-12.15 26.2 Q-12.15 22.15 -13.55 15.3 -15.05 8.35 -16.4 6.1 -20.8 -1.5 -26.7 -9.25 L-29.15 -12.85 Q-30.0 -14.4 -30.0 -16.2 -30.0 -25.9 -29.0 -30.65 -27.95 -35.95 -25.15 -38.5 L-22.75 -40.9 Q-21.9 -42.05 -21.15 -43.95 -20.55 -45.35 -18.65 -47.35 -16.55 -49.55 -14.55 -50.55 -6.55 -54.6 -3.85 -55.25 L-2.5 -55.45 -1.25 -55.8 2.85 -58.15 Q4.55 -59.2 7.45 -59.75 12.7 -60.7 17.05 -58.2 21.95 -55.35 23.45 -49.1 23.65 -48.65 25.95 -46.85 28.7 -44.65 31.3 -40.9 L34.55 -35.7" fill="#ffffff" fill-opacity="0.0" fill-rule="evenodd" stroke="none"/>
  </g>
</svg>
