<?xml version="1.0" encoding="UTF-8" standalone="no"?>
<svg xmlns:ffdec="https://www.free-decompiler.com/flash" xmlns:xlink="http://www.w3.org/1999/xlink" ffdec:objectType="shape" height="112.2px" width="58.35px" xmlns="http://www.w3.org/2000/svg">
  <g transform="matrix(1.0, 0.0, 0.0, 1.0, 25.45, 57.7)">
    <path d="M12.15 -57.7 Q16.15 -57.7 18.8 -53.7 20.8 -50.65 20.8 -48.4 20.8 -45.3 19.3 -42.45 17.05 -38.2 12.4 -38.2 7.5 -38.2 5.05 -43.0 3.55 -45.95 3.55 -48.15 3.55 -50.2 5.75 -53.5 8.5 -57.7 12.15 -57.7 M23.05 -43.65 Q24.15 -44.25 25.65 -42.0 L25.4 -40.95 25.05 -40.6 Q24.65 -40.25 23.9 -40.25 L22.9 -40.45 22.3 -40.95 Q22.15 -40.85 22.15 -42.1 22.15 -43.2 23.05 -43.65 M32.9 -26.65 Q32.9 -19.75 32.4 -17.75 30.7 -10.95 24.15 -10.95 11.55 -10.95 11.55 -19.75 11.55 -22.0 13.7 -27.15 16.25 -33.25 19.05 -34.95 25.7 -39.1 29.85 -34.4 32.9 -30.85 32.9 -26.65 M17.35 -3.2 Q18.35 -4.15 20.65 -2.25 L19.95 -0.6 Q19.3 0.5 17.9 0.75 L17.0 0.3 Q16.65 -0.05 16.65 -0.9 16.65 -2.55 17.35 -3.2 M3.8 -4.05 L3.75 -5.25 Q3.75 -7.8 7.2 -8.1 10.65 -8.35 10.65 -6.0 10.65 -2.95 6.25 -2.95 4.3 -2.95 3.8 -4.05 M7.75 -21.15 Q0.0 -3.5 -9.0 -3.5 -15.3 -3.5 -20.95 -12.25 -25.45 -19.25 -25.45 -22.1 -25.45 -32.35 -20.25 -37.5 -15.65 -42.1 -8.85 -41.3 -2.2 -40.55 2.55 -35.3 7.75 -29.5 7.75 -21.15 M7.75 11.1 Q10.4 11.75 12.3 14.25 14.4 16.95 14.4 20.5 14.4 22.1 12.45 24.55 10.25 27.3 8.0 27.3 3.05 27.3 1.55 23.05 L1.05 18.35 Q1.05 14.0 3.15 12.1 5.0 10.4 7.75 11.1 M11.15 36.3 Q10.4 36.8 9.9 36.8 8.05 36.8 8.05 35.1 8.05 33.1 10.05 33.1 12.05 33.15 12.05 35.0 12.05 35.75 11.15 36.3 M9.85 43.35 Q11.4 43.5 12.65 44.6 13.9 45.75 13.9 47.15 13.9 48.85 11.7 51.0 9.55 53.05 8.25 53.05 6.2 53.05 5.8 51.2 L5.8 49.25 Q5.8 43.05 9.85 43.35 M4.3 44.35 Q4.3 47.65 3.25 50.35 1.6 54.5 -2.0 54.5 -6.5 54.5 -8.95 49.75 -10.5 46.65 -10.5 44.4 -10.5 38.25 -8.2 35.35 -6.15 32.85 -3.1 33.45 -0.15 34.05 2.0 37.0 4.3 40.2 4.3 44.35 M-1.95 -45.8 Q-3.2 -43.95 -6.0 -43.95 -8.5 -43.95 -9.25 -45.2 L-9.5 -46.65 Q-9.5 -49.75 -5.35 -50.8 -1.2 -51.85 -1.2 -48.4 -1.2 -46.95 -1.95 -45.8 M-3.45 24.15 Q-3.45 26.05 -5.25 26.05 -6.8 26.05 -7.2 24.75 L-7.25 23.75 Q-7.25 21.3 -5.35 21.8 -3.45 22.3 -3.45 24.15 M-9.95 7.8 L-10.75 3.85 Q-10.75 -0.5 -5.2 0.6 -3.15 1.05 -1.45 2.05 0.3 3.15 0.3 4.0 0.3 6.5 -0.95 8.75 -2.7 11.8 -6.0 11.8 -8.6 11.8 -9.95 7.8" fill="#251f15" fill-rule="evenodd" stroke="none"/>
    <path d="M13.0 -55.6 Q15.45 -55.5 17.3 -54.05 19.25 -52.55 19.25 -50.4 L19.15 -44.85 Q18.25 -40.5 14.0 -40.5 9.45 -40.5 7.7 -44.65 6.75 -46.8 6.75 -49.35 6.75 -52.6 8.7 -54.3 10.4 -55.75 13.0 -55.6 M24.3 -33.95 Q26.15 -33.9 27.4 -33.0 L29.05 -31.7 Q30.25 -30.45 30.25 -29.85 30.3 -26.95 30.65 -25.75 31.0 -24.55 31.0 -22.8 31.0 -19.05 30.25 -17.25 28.45 -12.9 22.5 -12.9 18.55 -12.9 16.4 -15.85 14.9 -17.9 14.9 -19.7 14.9 -22.7 16.6 -27.25 18.55 -32.4 20.75 -33.35 22.5 -34.05 24.3 -33.95 M4.35 -27.1 L4.5 -23.45 Q4.5 -19.6 2.0 -14.25 -1.75 -6.15 -8.65 -6.15 -15.2 -6.15 -19.45 -14.15 -22.5 -19.8 -22.5 -22.75 L-22.25 -26.65 -20.9 -31.0 -19.15 -35.15 Q-18.2 -37.35 -15.85 -37.9 L-11.5 -38.5 Q-7.85 -39.35 -3.65 -36.75 -0.35 -34.75 1.75 -31.85 L4.35 -27.1 M9.0 -4.25 Q8.4 -3.4 7.5 -3.4 L5.65 -5.6 Q5.65 -6.2 6.3 -6.55 L8.75 -6.85 Q9.5 -6.25 9.5 -5.65 9.5 -4.95 9.0 -4.25 M8.4 13.25 Q10.35 14.35 11.9 16.45 13.5 18.6 13.5 20.4 13.5 21.5 12.2 23.0 10.45 25.0 8.0 25.0 4.85 25.0 3.75 21.0 L3.25 17.0 Q3.25 10.35 8.4 13.25 M11.0 45.15 Q11.65 45.55 12.05 46.5 L12.35 47.65 Q12.35 48.05 11.4 49.15 L10.0 50.4 8.0 50.4 7.4 49.35 7.25 48.7 Q7.25 47.25 7.75 46.7 8.45 45.9 11.0 45.15 M2.25 43.4 Q2.25 46.8 1.6 49.45 0.75 52.95 -1.0 53.5 L-2.5 53.5 Q-5.9 52.85 -7.2 48.55 -8.0 46.05 -8.0 42.65 -8.0 37.9 -6.4 35.7 -5.0 33.75 -2.85 34.35 -0.85 34.85 0.65 37.3 2.25 39.95 2.25 43.4 M-5.75 -45.65 Q-7.1 -46.4 -7.1 -47.3 -7.1 -48.65 -4.55 -49.4 -2.0 -50.15 -2.0 -47.95 -2.0 -47.2 -2.55 -46.55 -3.2 -45.8 -4.25 -45.65 L-5.75 -45.65 M-6.5 2.1 Q-3.25 1.55 -2.35 3.65 -2.1 4.3 -2.1 6.25 L-2.2 8.1 Q-2.45 9.0 -3.75 10.0 L-5.0 10.0 Q-7.3 8.85 -8.1 7.6 -8.75 6.55 -8.75 4.65 L-8.6 3.35 Q-8.25 2.8 -6.5 2.1" fill="#3c3221" fill-rule="evenodd" stroke="none"/>
    <path d="M17.4 -49.55 Q17.4 -48.5 16.75 -47.1 15.9 -45.15 14.5 -45.15 L12.75 -45.25 Q11.95 -45.9 11.4 -47.0 10.85 -48.0 10.85 -48.9 10.85 -52.6 14.15 -52.6 17.4 -52.55 17.4 -49.55 M28.75 -26.9 Q28.75 -24.3 27.85 -21.9 26.5 -18.1 23.5 -18.1 18.25 -18.1 18.25 -20.75 18.25 -23.15 19.0 -25.75 20.4 -30.4 23.5 -30.4 25.85 -30.4 27.5 -28.85 28.75 -27.65 28.75 -26.9 M9.25 22.1 Q7.1 22.1 6.05 19.7 L5.35 17.1 Q5.35 14.15 8.35 15.6 11.35 17.1 11.35 20.4 L11.2 21.65 Q10.85 22.1 9.25 22.1 M0.5 45.35 Q-0.55 47.4 -2.75 47.4 -4.75 47.4 -5.4 45.25 L-5.65 43.05 Q-5.65 36.6 -2.25 37.5 -0.95 37.8 0.1 39.2 1.15 40.7 1.15 42.3 1.15 44.0 0.5 45.35 M-9.9 -34.1 Q-9.65 -33.75 -9.75 -33.6 -6.65 -34.25 -3.3 -30.95 -0.35 -28.0 -0.35 -26.05 -0.35 -24.05 -3.85 -22.0 -7.05 -20.1 -8.85 -20.35 L-12.0 -20.1 -13.25 -19.9 Q-16.7 -19.9 -17.75 -21.95 L-18.15 -24.0 Q-18.15 -30.05 -13.25 -33.85 L-9.9 -34.1 M-8.75 -16.5 L-8.15 -16.35 -8.0 -16.6 -6.6 -16.55 -4.75 -16.7 Q-1.75 -16.55 -1.75 -14.45 -1.75 -13.2 -2.75 -11.55 -4.15 -9.25 -6.4 -9.25 -10.1 -9.25 -10.1 -12.3 L-10.0 -14.5 Q-9.75 -16.5 -8.75 -16.5 M-4.15 7.6 Q-6.65 7.6 -6.65 5.75 -6.65 4.7 -4.75 4.3 -2.9 3.9 -2.9 7.0 -2.9 7.6 -3.0 7.5 L-4.15 7.6 M-3.1 50.75 L-3.35 49.75 Q-3.35 49.05 -1.75 49.05 -0.15 49.05 -0.15 49.75 L-0.25 51.1 Q-0.55 52.0 -1.4 52.0 -2.55 52.0 -3.1 50.75" fill="#53452e" fill-rule="evenodd" stroke="none"/>
  </g>
</svg>
