<?xml version="1.0" encoding="UTF-8" standalone="no"?>
<svg xmlns:ffdec="https://www.free-decompiler.com/flash" xmlns:xlink="http://www.w3.org/1999/xlink" ffdec:objectType="shape" height="47.05px" width="52.7px" xmlns="http://www.w3.org/2000/svg">
  <g transform="matrix(1.0, 0.0, 0.0, 1.0, 29.35, 3.55)">
    <path d="M-0.8 -3.15 L2.15 -3.3 Q4.85 2.5 7.4 5.55 9.35 7.85 11.95 9.3 15.2 11.1 17.9 16.15 19.25 18.65 19.95 20.85 L19.85 21.6 19.55 21.9 Q18.65 21.85 16.7 20.15 L13.35 16.55 13.1 16.3 10.35 12.7 9.8 13.05 9.85 13.35 7.05 11.75 Q8.2 15.0 11.0 21.05 12.7 24.75 12.7 27.2 12.7 30.4 12.0 31.65 11.45 32.65 10.25 32.65 9.1 32.65 8.45 30.7 L4.1 17.75 4.0 17.45 2.55 15.95 1.7 16.35 Q1.1 17.05 1.1 19.5 1.1 21.85 1.95 25.2 2.75 28.55 2.75 29.6 2.75 34.25 -0.05 36.6 -1.95 38.2 -3.8 38.2 -5.3 38.2 -5.95 35.45 -6.3 33.95 -6.3 32.3 L-5.0 26.9 Q-3.7 22.3 -3.7 21.7 -3.7 17.5 -5.65 14.65 -7.25 12.3 -8.9 12.3 -12.55 12.3 -15.2 15.4 -17.85 18.45 -19.4 18.45 -21.15 18.45 -21.85 17.85 -22.45 17.35 -22.45 16.0 -22.45 13.8 -19.9 11.85 L-14.1 8.45 Q-5.15 3.7 -3.8 -1.6 L-3.7 -1.75 -0.8 -3.15" fill="#f1ba87" fill-rule="evenodd" stroke="none"/>
    <path d="M13.35 16.55 L13.3 16.6 13.1 16.3 13.35 16.55 M-3.85 -1.65 L-3.7 -1.75 -3.8 -1.65 -3.85 -1.65" fill="#724931" fill-rule="evenodd" stroke="none"/>
    <path d="M4.4 -2.9 L3.95 -3.55 Q7.4 -2.7 15.3 6.75 23.35 16.3 23.35 20.0 23.35 22.3 22.3 23.65 21.25 25.0 19.3 25.0 17.9 25.0 16.3 24.15 L15.4 23.45 15.95 28.1 Q15.95 33.15 13.25 36.6 10.95 39.6 8.4 39.6 6.6 39.6 6.3 38.05 L5.1 32.15 Q2.65 43.5 -3.4 43.5 -6.65 43.5 -8.05 42.05 -9.55 40.55 -9.55 36.85 -9.55 34.9 -8.3 28.3 -7.1 21.7 -7.1 19.8 -7.1 18.4 -8.05 16.9 -9.05 15.35 -10.0 15.35 L-17.3 21.9 Q-17.8 22.4 -19.75 23.1 L-22.15 23.75 Q-25.3 23.75 -27.5 21.65 -29.35 19.95 -29.35 18.45 -29.35 15.85 -28.45 14.25 -26.05 10.0 -18.1 6.9 -15.3 5.8 -9.5 1.35 -4.45 -2.5 -0.8 -3.15 L-3.7 -1.75 -3.85 -1.65 Q-6.15 2.1 -10.5 4.85 L-18.3 8.85 Q-22.95 11.0 -24.85 12.75 -27.55 15.25 -27.55 19.05 -27.55 20.25 -25.45 21.15 L-22.95 21.85 -20.1 21.2 -18.35 20.5 Q-10.25 13.55 -10.1 13.55 -8.5 13.55 -7.05 15.3 -5.5 17.15 -5.5 19.4 -5.5 23.05 -6.6 27.4 -7.75 31.7 -7.75 36.85 -7.75 39.1 -7.1 40.25 -6.25 41.8 -4.15 41.8 -1.4 41.8 0.7 39.4 3.45 36.2 3.45 29.9 L2.65 22.15 Q2.3 18.85 4.0 17.45 L4.1 17.75 4.5 20.15 4.5 20.2 7.25 36.5 7.25 36.55 7.35 36.5 7.55 37.65 Q7.55 37.85 8.1 37.85 10.2 37.85 12.05 35.35 14.2 32.45 14.2 28.15 14.2 26.0 13.6 23.65 12.65 19.95 9.85 13.35 L9.8 13.05 10.35 12.7 13.1 16.3 13.3 16.6 Q13.85 17.95 15.35 20.0 17.05 22.3 18.5 23.25 20.7 23.05 21.45 21.65 L21.8 20.2 Q21.8 15.35 4.4 -2.9" fill="#6c3d28" fill-rule="evenodd" stroke="none"/>
    <path d="M7.35 36.5 L7.25 36.55 7.25 36.5 7.35 36.5 M4.5 20.2 L4.5 20.15 4.65 20.15 4.5 20.2 M-3.8 -1.6 L-3.85 -1.65 -3.8 -1.65 -3.8 -1.6" fill="#e7964e" fill-rule="evenodd" stroke="none"/>
    <path d="M-3.8 -1.65 L-3.7 -1.75 -3.8 -1.6 -3.8 -1.65" fill="#eaa76a" fill-rule="evenodd" stroke="none"/>
    <path d="M2.15 -3.3 L4.4 -2.9 Q21.8 15.35 21.8 20.2 L21.45 21.65 Q20.7 23.05 18.5 23.25 17.05 22.3 15.35 20.0 13.85 17.95 13.3 16.6 L13.35 16.55 16.7 20.15 Q18.65 21.85 19.55 21.9 L19.85 21.6 19.95 20.85 Q19.25 18.65 17.9 16.15 15.2 11.1 11.95 9.3 9.35 7.85 7.4 5.55 4.85 2.5 2.15 -3.3 M9.85 13.35 Q12.65 19.95 13.6 23.65 14.2 26.0 14.2 28.15 14.2 32.45 12.05 35.35 10.2 37.85 8.1 37.85 7.55 37.85 7.55 37.65 L7.35 36.5 7.25 36.5 4.5 20.2 4.65 20.15 4.5 20.15 4.1 17.75 8.45 30.7 Q9.1 32.65 10.25 32.65 11.45 32.65 12.0 31.65 12.7 30.4 12.7 27.2 12.7 24.75 11.0 21.05 8.2 15.0 7.05 11.75 L9.85 13.35 M4.0 17.45 Q2.3 18.85 2.65 22.15 L3.45 29.9 Q3.45 36.2 0.7 39.4 -1.4 41.8 -4.15 41.8 -6.25 41.8 -7.1 40.25 -7.75 39.1 -7.75 36.85 -7.75 31.7 -6.6 27.4 -5.5 23.05 -5.5 19.4 -5.5 17.15 -7.05 15.3 -8.5 13.55 -10.1 13.55 -10.25 13.55 -18.35 20.5 L-20.1 21.2 -22.95 21.85 -25.45 21.15 Q-27.55 20.25 -27.55 19.05 -27.55 15.25 -24.85 12.75 -22.95 11.0 -18.3 8.85 L-10.5 4.85 Q-6.15 2.1 -3.85 -1.65 L-3.8 -1.6 Q-5.15 3.7 -14.1 8.45 L-19.9 11.85 Q-22.45 13.8 -22.45 16.0 -22.45 17.35 -21.85 17.85 -21.15 18.45 -19.4 18.45 -17.85 18.45 -15.2 15.4 -12.55 12.3 -8.9 12.3 -7.25 12.3 -5.65 14.65 -3.7 17.5 -3.7 21.7 -3.7 22.3 -5.0 26.9 L-6.3 32.3 Q-6.3 33.95 -5.95 35.45 -5.3 38.2 -3.8 38.2 -1.95 38.2 -0.05 36.6 2.75 34.25 2.75 29.6 2.75 28.55 1.95 25.2 1.1 21.85 1.1 19.5 1.1 17.05 1.7 16.35 L2.55 15.95 4.0 17.45" fill="#db9c64" fill-rule="evenodd" stroke="none"/>
  </g>
</svg>
