<?xml version="1.0" encoding="UTF-8" standalone="no"?>
<svg xmlns:ffdec="https://www.free-decompiler.com/flash" xmlns:xlink="http://www.w3.org/1999/xlink" ffdec:objectType="shape" height="61.5px" width="49.0px" xmlns="http://www.w3.org/2000/svg">
  <g transform="matrix(1.0, 0.0, 0.0, 1.0, 0.0, 0.0)">
    <path d="M42.25 12.15 L41.3 10.55 41.3 10.5 40.5 9.4 34.4 9.4 35.95 12.15 42.25 12.15 M43.35 9.25 L43.35 9.2 Q49.0 18.15 49.0 30.75 49.0 43.35 43.35 52.3 37.95 60.7 30.6 61.45 L29.4 61.5 20.35 61.5 20.2 61.5 20.15 61.5 20.0 61.5 Q11.55 61.6 5.7 52.3 0.0 43.35 0.0 30.75 0.0 18.15 5.7 9.2 11.4 0.25 19.4 0.05 L19.45 0.05 20.0 0.0 21.45 0.1 26.9 0.2 29.05 0.0 31.15 0.2 31.2 0.2 31.4 0.2 32.25 0.4 32.2 0.4 Q38.6 1.75 43.35 9.25 M44.1 16.15 L42.6 12.85 36.3 12.85 37.65 16.15 44.1 16.15 M45.45 20.5 L44.35 16.85 37.9 16.85 38.9 20.5 45.45 20.5 M43.35 47.1 L45.0 42.6 38.55 42.6 37.0 47.1 43.35 47.1 M45.2 41.9 L46.1 37.55 39.5 37.55 38.7 41.9 45.2 41.9 M46.2 36.85 L46.6 31.65 39.95 31.65 39.65 36.85 46.2 36.85 M46.3 25.4 L45.6 21.2 39.05 21.2 39.7 25.4 46.3 25.4 M46.6 30.95 L46.6 30.75 46.35 26.05 39.75 26.05 39.95 30.75 39.95 30.95 46.6 30.95 M32.55 6.8 L33.95 8.7 40.0 8.7 38.4 6.8 32.55 6.8 M34.55 3.85 Q33.5 3.3 32.45 2.95 L28.75 2.95 29.8 3.85 34.55 3.85 M37.7 6.1 L35.75 4.55 30.55 4.55 32.0 6.1 37.7 6.1 M33.3 12.35 L32.25 10.55 Q28.65 4.9 24.1 3.15 L22.05 2.6 19.4 2.5 18.85 2.55 18.2 2.6 16.3 3.05 Q11.45 4.65 7.75 10.55 2.4 18.9 2.45 30.75 2.45 34.65 3.0 38.2 3.5 41.3 4.5 44.1 L5.55 46.85 6.05 47.95 7.3 50.3 7.75 51.0 Q12.8 59.0 20.0 59.1 L20.15 59.1 20.25 59.1 24.0 58.4 24.1 58.35 24.7 58.1 25.8 57.55 26.1 57.35 26.2 57.25 Q26.25 57.15 26.4 57.15 29.6 55.1 32.25 51.0 37.55 42.6 37.55 30.75 L37.3 25.95 36.55 21.2 35.85 18.5 Q35.15 16.1 34.1 13.95 L33.8 13.35 33.3 12.35 M12.8 9.15 Q15.75 6.4 19.4 6.4 25.25 6.35 29.35 13.55 L30.5 15.7 30.65 16.0 Q31.8 18.65 32.5 21.7 L32.95 24.25 33.35 28.05 33.35 28.25 33.4 29.35 33.4 30.5 Q33.4 40.4 29.35 47.45 25.25 54.6 19.4 54.55 L18.15 54.5 16.9 54.2 Q13.1 53.1 10.15 48.6 L9.45 47.45 9.45 47.4 8.9 46.45 8.9 46.4 8.1 44.7 7.05 42.05 Q6.15 39.15 5.75 35.9 5.4 33.3 5.4 30.5 5.4 20.7 9.3 13.75 L9.45 13.55 Q11.0 10.8 12.8 9.15 M31.95 22.4 Q31.2 18.9 29.8 15.85 L28.75 13.9 Q24.85 7.15 19.4 7.1 L18.85 7.1 17.65 7.3 Q15.75 7.7 14.1 8.95 11.9 10.65 10.05 13.9 6.1 20.75 6.1 30.5 L6.2 33.7 6.2 33.75 6.25 34.25 7.6 41.4 8.45 43.75 8.55 44.0 9.5 46.1 9.55 46.15 9.75 46.6 9.8 46.7 10.05 47.1 10.25 47.45 Q14.0 53.7 19.2 53.85 L19.4 53.85 19.9 53.85 Q25.05 53.5 28.75 47.1 32.7 40.2 32.7 30.5 L32.65 27.75 32.6 27.4 32.35 24.75 32.3 24.3 31.95 22.4 M35.45 57.15 L37.85 55.25 32.15 55.25 30.35 57.15 35.45 57.15 M31.05 58.9 L34.2 57.85 29.6 57.85 28.25 58.9 31.05 58.9 M34.3 52.3 L32.7 54.55 38.55 54.55 40.9 51.6 34.75 51.6 34.3 52.3 M43.05 47.8 L36.7 47.8 35.15 50.9 41.35 50.9 43.05 47.8" fill="#996600" fill-rule="evenodd" stroke="none"/>
    <path d="M42.25 12.15 L35.95 12.15 34.4 9.4 40.5 9.4 41.3 10.5 41.3 10.55 42.25 12.15 M44.1 16.15 L37.65 16.15 36.3 12.85 42.6 12.85 44.1 16.15 M45.2 41.9 L38.7 41.9 39.5 37.55 46.1 37.55 45.2 41.9 M43.35 47.1 L37.0 47.1 38.55 42.6 45.0 42.6 43.35 47.1" fill="#d6c970" fill-rule="evenodd" stroke="none"/>
    <path d="M37.7 6.1 L32.0 6.1 30.55 4.55 35.75 4.55 37.7 6.1 M34.55 3.85 L29.8 3.85 28.75 2.95 32.45 2.95 Q33.5 3.3 34.55 3.85 M32.55 6.8 L38.4 6.8 40.0 8.7 33.95 8.7 32.55 6.8 M34.3 52.3 L34.75 51.6 40.9 51.6 38.55 54.55 32.7 54.55 34.3 52.3 M31.05 58.9 L28.25 58.9 29.6 57.85 34.2 57.85 31.05 58.9 M35.45 57.15 L30.35 57.15 32.15 55.25 37.85 55.25 35.45 57.15 M43.05 47.8 L41.35 50.9 35.15 50.9 36.7 47.8 43.05 47.8" fill="#c7b63f" fill-rule="evenodd" stroke="none"/>
    <path d="M33.3 12.35 L33.8 13.35 34.1 13.95 Q35.15 16.1 35.85 18.5 L32.5 21.7 Q31.8 18.65 30.65 16.0 L30.5 15.7 31.45 14.5 33.3 12.35 M36.55 21.2 L37.3 25.95 35.95 27.2 33.4 29.35 33.35 28.25 33.55 28.05 33.35 28.05 32.95 24.25 36.55 21.2 M27.25 16.65 L28.85 21.15 28.95 21.4 28.95 21.5 29.1 22.05 Q26.25 22.55 23.1 24.1 18.5 26.25 14.7 29.8 11.3 32.85 9.55 36.0 L9.5 35.75 9.35 34.65 9.1 30.95 9.3 28.55 9.35 28.3 9.5 26.95 11.5 24.8 Q18.65 17.75 26.95 16.05 L27.1 16.4 27.15 16.4 27.2 16.65 27.25 16.65 M29.5 23.65 L29.55 23.85 29.55 23.95 29.6 24.2 29.95 25.95 30.15 27.2 27.0 28.55 Q21.95 30.85 20.6 32.45 13.55 39.7 13.55 40.3 L13.9 40.75 Q12.7 41.6 11.95 42.95 L11.65 43.5 11.55 43.25 11.4 42.9 11.25 42.55 11.25 42.5 10.55 40.3 10.5 40.15 10.45 40.1 10.3 39.45 14.9 33.6 Q21.05 26.75 29.5 23.65" fill="#fcfbcd" fill-rule="evenodd" stroke="none"/>
    <path d="M18.85 2.55 L19.4 2.5 22.05 2.6 24.1 3.15 Q28.65 4.9 32.25 10.55 L33.3 12.35 31.45 14.5 30.5 15.7 29.35 13.55 Q25.25 6.35 19.4 6.4 15.75 6.4 12.8 9.15 14.25 7.1 16.0 5.3 L18.85 2.55 M35.85 18.5 L36.55 21.2 32.95 24.25 32.5 21.7 35.85 18.5 M37.3 25.95 L37.55 30.75 Q37.55 42.6 32.25 51.0 29.6 55.1 26.4 57.15 26.25 57.15 26.2 57.25 L26.1 57.35 25.8 57.55 Q21.2 56.45 18.15 54.5 L19.4 54.55 Q25.25 54.6 29.35 47.45 33.4 40.4 33.4 30.5 L33.4 29.35 35.95 27.2 37.3 25.95 M27.15 16.4 L27.25 16.65 27.2 16.65 27.15 16.4 M26.95 15.95 L26.95 16.05 Q18.65 17.75 11.5 24.8 L9.5 26.95 10.6 18.75 Q11.95 13.95 15.25 9.9 L17.4 7.55 Q23.2 7.75 26.95 15.95 M19.4 7.1 L19.35 7.2 18.85 7.1 19.4 7.1 M29.1 22.05 L29.5 23.65 Q21.05 26.75 14.9 33.6 L10.3 39.45 9.55 36.0 Q11.3 32.85 14.7 29.8 18.5 26.25 23.1 24.1 26.25 22.55 29.1 22.05 M9.2 22.4 L9.1 22.4 9.2 22.15 9.2 22.4 M9.45 21.2 L9.4 21.2 9.55 20.5 9.45 21.2 M33.35 28.25 L33.35 28.05 33.55 28.05 33.35 28.25 M11.65 43.5 L11.95 42.95 Q12.7 41.6 13.9 40.75 L13.55 40.3 Q13.55 39.7 20.6 32.45 21.95 30.85 27.0 28.55 L30.15 27.2 30.2 27.45 30.55 31.95 30.55 31.65 Q30.2 36.7 27.75 41.5 23.85 48.95 16.5 48.95 15.1 48.95 14.2 48.15 L13.75 47.75 Q12.85 46.3 12.1 44.6 L11.75 43.7 11.65 43.5" fill="#f4f05b" fill-rule="evenodd" stroke="none"/>
    <path d="M28.85 21.15 L29.05 21.3 28.95 21.4 28.85 21.15 M29.1 22.05 L29.1 22.1 30.25 22.2 31.9 22.4 31.95 22.4 32.3 24.3 30.05 23.8 29.55 23.85 29.5 23.65 29.1 22.05 M29.8 15.85 L28.7 15.8 26.95 15.95 Q23.2 7.75 17.4 7.55 L17.65 7.3 18.85 7.1 19.35 7.2 19.4 7.1 Q24.85 7.15 28.75 13.9 L29.8 15.85 M30.2 27.45 L32.65 27.75 32.7 30.5 Q32.7 40.2 28.75 47.1 25.05 53.5 19.9 53.85 L17.0 51.8 16.6 51.4 15.9 50.65 Q14.75 49.35 13.75 47.75 L14.2 48.15 Q15.1 48.95 16.5 48.95 23.85 48.95 27.75 41.5 30.2 36.7 30.55 31.65 L30.55 31.95 30.2 27.45" fill="#e6d831" fill-rule="evenodd" stroke="none"/>
    <path d="M27.25 16.65 L27.15 16.4 27.1 16.4 26.95 16.05 26.95 15.95 28.7 15.8 29.8 15.85 Q31.2 18.9 31.95 22.4 L31.9 22.4 30.25 22.2 29.1 22.1 29.1 22.05 28.95 21.5 28.95 21.4 29.05 21.3 28.85 21.15 27.25 16.65 M29.55 23.85 L30.05 23.8 32.3 24.3 32.35 24.75 32.6 27.4 32.65 27.75 30.2 27.45 30.15 27.2 29.95 25.95 29.6 24.2 29.55 23.95 29.55 23.85" fill="#eade51" fill-rule="evenodd" stroke="none"/>
    <path d="M45.45 20.5 L38.9 20.5 37.9 16.85 44.35 16.85 45.45 20.5 M46.2 36.85 L39.65 36.85 39.95 31.65 46.6 31.65 46.2 36.85" fill="#f2efb3" fill-rule="evenodd" stroke="none"/>
    <path d="M46.6 30.95 L39.95 30.95 39.95 30.75 39.75 26.05 46.35 26.05 46.6 30.75 46.6 30.95 M46.3 25.4 L39.7 25.4 39.05 21.2 45.6 21.2 46.3 25.4" fill="#fbfcd1" fill-rule="evenodd" stroke="none"/>
    <path d="M25.8 57.55 L24.7 58.1 24.1 58.35 24.0 58.4 20.25 59.1 20.15 59.1 20.0 59.1 Q12.8 59.0 7.75 51.0 L7.3 50.3 8.7 49.55 10.15 48.6 Q13.1 53.1 16.9 54.2 L18.15 54.5 Q21.2 56.45 25.8 57.55 M5.55 46.85 L4.5 44.1 7.05 42.05 8.1 44.7 Q6.45 45.9 5.55 46.85 M3.0 38.2 Q2.45 34.65 2.45 30.75 2.4 18.9 7.75 10.55 11.45 4.65 16.3 3.05 L18.2 2.6 18.85 2.55 16.0 5.3 Q14.25 7.1 12.8 9.15 11.0 10.8 9.45 13.55 L9.3 13.75 Q5.4 20.7 5.4 30.5 5.4 33.3 5.75 35.9 L3.0 38.2 M17.65 7.3 L17.4 7.55 15.25 9.9 Q11.95 13.95 10.6 18.75 L9.5 26.95 9.35 28.3 9.2 27.35 6.2 33.7 6.1 30.5 Q6.1 20.75 10.05 13.9 11.9 10.65 14.1 8.95 15.75 7.7 17.65 7.3 M9.45 21.2 L9.55 20.5 9.4 21.2 9.45 21.2 M9.2 22.4 L9.2 22.15 9.1 22.4 9.2 22.4 M8.9 46.4 L8.9 46.45 9.45 47.4 8.0 48.15 8.15 48.05 9.2 47.05 8.9 46.45 8.75 46.55 8.9 46.4 M9.5 35.75 L9.55 36.0 10.3 39.45 10.45 40.1 9.35 42.05 8.45 43.75 7.6 41.4 9.5 35.75 M5.1 40.85 Q5.45 40.5 5.6 40.5 L5.75 40.45 5.1 40.85 M10.25 47.45 L11.75 43.7 12.1 44.6 Q12.85 46.3 13.75 47.75 14.75 49.35 15.9 50.65 L16.6 51.4 17.0 51.8 19.9 53.85 19.4 53.85 19.2 53.85 Q14.0 53.7 10.25 47.45" fill="#f7f388" fill-rule="evenodd" stroke="none"/>
    <path d="M7.3 50.3 L6.05 47.95 5.55 46.85 Q6.45 45.9 8.1 44.7 L8.9 46.4 8.75 46.55 8.9 46.45 9.2 47.05 8.15 48.05 8.0 48.15 9.45 47.4 9.45 47.45 10.15 48.6 8.7 49.55 7.3 50.3 M4.5 44.1 Q3.5 41.3 3.0 38.2 L5.75 35.9 Q6.15 39.15 7.05 42.05 L4.5 44.1 M6.2 33.7 L9.2 27.35 9.35 28.3 9.3 28.55 9.1 30.95 9.35 34.65 9.5 35.75 7.6 41.4 6.25 34.25 6.2 33.75 6.2 33.7 M5.1 40.85 L5.75 40.45 5.6 40.5 Q5.45 40.5 5.1 40.85 M10.25 47.45 L10.05 47.1 9.8 46.7 9.75 46.6 9.55 46.15 9.5 46.1 8.55 44.0 8.45 43.75 9.35 42.05 10.45 40.1 10.5 40.15 10.55 40.3 11.25 42.5 11.25 42.55 11.4 42.9 11.55 43.25 11.65 43.5 11.75 43.7 10.25 47.45" fill="#ffffff" fill-rule="evenodd" stroke="none"/>
  </g>
</svg>
