<?xml version="1.0" encoding="UTF-8" standalone="no"?>
<svg xmlns:ffdec="https://www.free-decompiler.com/flash" xmlns:xlink="http://www.w3.org/1999/xlink" ffdec:objectType="shape" height="103.1px" width="68.85px" xmlns="http://www.w3.org/2000/svg">
  <g transform="matrix(1.0, 0.0, 0.0, 1.0, 30.3, 104.25)">
    <path d="M0.45 -100.1 L3.0 -100.15 3.0 -96.1 0.7 -96.05 0.45 -100.1 M-6.0 -100.2 L-1.95 -100.1 -1.85 -96.05 -6.1 -96.1 -6.0 -100.2" fill="#f7f7f7" fill-rule="evenodd" stroke="none"/>
    <path d="M12.1 -95.1 L11.9 -94.45 9.55 -86.85 Q8.2 -83.15 6.35 -81.3 2.35 -77.25 -10.2 -77.25 -16.3 -77.25 -18.4 -78.5 -20.15 -79.5 -20.15 -82.25 -20.15 -86.65 -19.4 -87.55 -18.25 -88.9 -12.65 -89.55 L-1.75 -91.05 Q-0.7 -92.3 3.25 -94.45 L3.5 -94.6 8.05 -94.8 7.5 -94.45 -2.65 -88.25 -10.4 -87.4 Q-14.25 -87.2 -15.75 -86.55 -17.8 -85.7 -17.8 -83.4 -17.8 -81.6 -16.65 -81.25 L-13.05 -81.1 Q-6.4 -81.1 -2.3 -82.05 2.95 -83.25 2.95 -85.8 4.2 -86.6 5.6 -88.15 8.3 -91.05 9.1 -94.45 L9.15 -94.85 12.1 -95.1 M-1.1 -94.55 L-1.1 -94.45 Q-1.6 -92.95 -3.15 -92.45 L-8.6 -92.0 -15.6 -92.7 Q-18.95 -93.3 -20.05 -93.95 L-16.8 -94.35 -11.65 -94.45 -7.9 -94.6 -1.1 -94.55 M3.65 -62.95 Q6.95 -65.3 7.75 -69.1 8.7 -73.5 12.0 -76.8 L13.0 -76.7 13.1 -75.35 Q13.1 -73.35 11.8 -69.55 L9.45 -63.5 8.65 -63.5 7.5 -63.25 7.0 -62.75 Q6.95 -62.45 7.35 -62.2 L8.8 -61.85 7.2 -57.75 14.55 -59.35 Q16.1 -59.35 17.15 -56.95 18.35 -54.1 18.35 -48.8 18.35 -47.85 17.3 -47.35 15.9 -46.7 11.05 -45.85 13.75 -43.4 18.05 -40.25 21.0 -37.65 21.0 -34.95 21.0 -31.95 17.55 -30.95 14.1 -29.9 14.1 -27.1 14.1 -25.35 20.4 -20.55 26.65 -15.7 26.65 -11.9 26.65 -9.35 23.2 -8.55 L9.9 -7.8 Q-13.4 -7.8 -13.4 -10.45 -10.5 -19.05 -10.25 -21.6 -9.85 -25.4 -9.25 -26.15 -8.05 -27.65 -3.15 -28.25 L-1.7 -28.55 Q-3.7 -30.1 -8.75 -33.0 -11.15 -34.4 -11.15 -36.2 -11.15 -36.7 -9.4 -37.65 -6.1 -39.4 2.05 -41.6 -5.3 -45.7 -6.75 -46.95 -8.55 -48.4 -8.55 -53.05 -8.55 -53.75 -6.3 -55.45 L1.7 -61.5 5.7 -61.6 Q5.85 -61.2 5.85 -62.2 L5.75 -62.9 5.6 -63.0 3.65 -62.95 M7.25 -55.05 L0.05 -55.7 Q-2.95 -55.7 -3.85 -54.45 -4.3 -53.8 -4.3 -51.9 -4.3 -50.55 -3.65 -50.2 -2.4 -49.45 2.25 -49.45 12.25 -49.45 12.25 -51.25 12.25 -52.55 11.25 -53.55 10.45 -54.4 9.75 -54.4 L7.25 -55.05 M9.85 -38.6 L-5.2 -36.9 Q-6.2 -36.3 -7.2 -36.1 -6.4 -34.25 5.3 -25.3 L5.5 -25.15 -0.4 -24.75 Q-3.85 -23.85 -4.5 -23.0 -3.75 -22.4 -0.75 -21.5 L2.8 -20.7 7.0 -21.2 12.7 -21.55 13.75 -21.75 Q14.1 -22.3 14.1 -23.3 14.1 -23.9 12.25 -26.65 L8.15 -32.4 Q15.8 -34.2 15.8 -36.4 15.8 -38.6 12.5 -40.95 9.25 -43.25 4.5 -44.55 6.1 -38.9 9.85 -38.6 M14.35 -16.9 L4.45 -15.55 -4.65 -15.9 Q-8.3 -16.0 -9.45 -14.7 -7.65 -12.2 -3.15 -11.15 0.75 -10.2 7.4 -10.2 L17.9 -11.05 Q23.25 -12.15 23.25 -14.6 23.25 -17.65 14.35 -16.9" fill="#f59ee4" fill-rule="evenodd" stroke="none"/>
    <path d="M9.15 -94.85 L9.1 -94.45 Q8.3 -91.05 5.6 -88.15 4.2 -86.6 2.95 -85.8 2.95 -83.25 -2.3 -82.05 -6.4 -81.1 -13.05 -81.1 L-16.65 -81.25 Q-17.8 -81.6 -17.8 -83.4 -17.8 -85.7 -15.75 -86.55 -14.25 -87.2 -10.4 -87.4 L-2.65 -88.25 7.5 -94.45 8.05 -94.8 9.15 -94.85 M9.85 -38.6 Q6.1 -38.9 4.5 -44.55 9.25 -43.25 12.5 -40.95 15.8 -38.6 15.8 -36.4 15.8 -34.2 8.15 -32.4 L12.25 -26.65 Q14.1 -23.9 14.1 -23.3 14.1 -22.3 13.75 -21.75 L12.7 -21.55 7.0 -21.2 2.8 -20.7 -0.75 -21.5 Q-3.75 -22.4 -4.5 -23.0 -3.85 -23.85 -0.4 -24.75 L5.5 -25.15 5.3 -25.3 Q-6.4 -34.25 -7.2 -36.1 -6.2 -36.3 -5.2 -36.9 L9.85 -38.6 M7.25 -55.05 L9.75 -54.4 Q10.45 -54.4 11.25 -53.55 12.25 -52.55 12.25 -51.25 12.25 -49.45 2.25 -49.45 -2.4 -49.45 -3.65 -50.2 -4.3 -50.55 -4.3 -51.9 -4.3 -53.8 -3.85 -54.45 -2.95 -55.7 0.05 -55.7 L7.25 -55.05 M14.35 -16.9 Q23.25 -17.65 23.25 -14.6 23.25 -12.15 17.9 -11.05 L7.4 -10.2 Q0.75 -10.2 -3.15 -11.15 -7.65 -12.2 -9.45 -14.7 -8.3 -16.0 -4.65 -15.9 L4.45 -15.55 14.35 -16.9" fill="#f8baeb" fill-rule="evenodd" stroke="none"/>
    <path d="M18.2 -95.95 L20.25 -96.45 20.55 -94.45 20.9 -91.1 20.9 -90.7 22.7 -69.7 22.85 -67.7 23.4 -64.65 23.45 -64.1 23.5 -63.95 Q24.55 -56.6 25.85 -49.25 L26.3 -46.6 26.55 -45.25 28.35 -36.55 28.9 -34.75 Q30.25 -29.4 32.2 -24.05 L34.65 -15.75 35.2 -13.9 35.2 -13.85 35.55 -12.5 35.5 -12.5 35.8 -11.2 36.7 -6.85 34.45 -6.2 Q28.95 -4.7 23.9 -3.9 L15.55 -2.9 9.75 -2.45 -0.6 -2.9 -10.0 -3.85 Q-21.1 -4.4 -27.95 -6.95 L-26.7 -12.05 -26.7 -12.15 -26.7 -12.2 -26.35 -13.6 -26.35 -13.65 -26.2 -14.35 -26.15 -14.4 Q-24.6 -21.45 -22.75 -27.3 L-22.75 -27.45 -21.9 -29.75 -22.3 -29.1 -20.45 -36.55 -19.7 -41.55 Q-18.6 -49.7 -18.25 -56.45 L-18.25 -56.6 -18.05 -60.05 -17.75 -63.95 -17.7 -64.45 -17.7 -64.55 -17.7 -64.65 -17.7 -64.85 -17.7 -65.05 -18.95 -65.7 Q-20.3 -66.4 -21.45 -67.2 L-22.9 -68.3 Q-27.55 -72.15 -28.55 -77.8 -29.7 -84.75 -25.25 -94.45 L-24.15 -96.8 -21.6 -96.05 -22.45 -94.45 Q-24.1 -91.2 -25.0 -87.55 -25.8 -84.5 -25.8 -82.95 -25.8 -76.2 -21.2 -74.4 -17.9 -73.1 -6.05 -73.1 -3.95 -73.1 2.35 -74.5 2.95 -74.5 2.9 -74.1 L2.8 -72.55 Q3.5 -70.55 0.8 -67.15 -2.05 -63.55 -6.35 -61.9 -6.25 -62.35 -6.55 -62.6 L-10.05 -63.0 -10.8 -62.85 -10.9 -62.3 -10.7 -61.55 -7.95 -61.3 -10.1 -60.85 Q-11.55 -60.8 -12.0 -59.0 -12.3 -57.9 -12.3 -55.05 -12.35 -48.2 -12.8 -41.15 L-8.8 -41.45 Q-6.35 -41.55 -5.2 -40.6 L-12.4 -37.7 Q-17.65 -35.6 -17.65 -33.3 -17.65 -32.65 -17.45 -32.45 L-16.95 -32.2 -16.0 -32.1 Q-15.35 -32.1 -12.9 -33.05 -12.0 -33.4 -8.65 -31.15 -9.55 -30.45 -9.55 -30.05 L-13.7 -29.9 Q-13.7 -28.25 -19.95 -9.25 -16.2 -6.65 -7.8 -6.6 L2.35 -6.05 15.0 -5.55 Q22.4 -5.55 26.65 -7.6 28.95 -8.7 31.55 -10.5 30.5 -11.35 29.45 -14.5 L28.4 -17.95 Q26.2 -22.3 24.9 -26.45 L21.95 -26.55 Q20.8 -26.7 19.85 -27.3 L20.1 -27.3 23.4 -27.75 Q25.4 -28.75 25.4 -32.95 L25.0 -34.75 24.6 -36.55 22.85 -42.35 19.3 -41.6 Q18.15 -41.6 17.95 -42.0 L17.85 -42.8 Q18.45 -43.65 19.85 -44.35 21.2 -45.0 22.4 -45.05 20.55 -53.0 19.05 -63.95 L19.0 -64.3 Q18.0 -71.5 17.8 -74.5 L17.6 -73.5 16.4 -70.55 14.8 -67.35 13.9 -67.55 13.7 -68.45 Q15.95 -77.8 15.95 -84.9 15.9 -85.8 15.7 -85.65 L15.5 -85.3 Q12.25 -79.4 11.2 -78.6 10.8 -78.65 10.1 -79.8 13.15 -85.55 14.05 -88.05 L15.15 -92.1 14.65 -95.4 18.2 -95.95 M19.0 -64.3 L19.65 -64.2 Q20.3 -64.2 21.4 -64.95 L22.75 -66.1 22.6 -66.65 22.1 -66.95 Q21.55 -66.95 20.55 -66.2 L19.0 -64.65 19.0 -64.3 M3.65 -62.95 L5.6 -63.0 5.75 -62.9 5.85 -62.2 Q5.85 -61.2 5.7 -61.6 L1.7 -61.5 1.35 -62.1 Q1.45 -62.75 3.65 -62.95 M8.8 -61.85 L7.35 -62.2 Q6.95 -62.45 7.0 -62.75 L7.5 -63.25 8.65 -63.5 9.45 -63.5 11.55 -63.65 11.7 -63.6 11.85 -62.9 Q11.85 -61.9 11.7 -62.25 L8.8 -61.85 M14.05 -64.5 L15.5 -64.8 17.0 -64.5 Q17.6 -64.2 17.6 -63.75 17.6 -63.3 17.0 -63.0 L15.5 -62.7 14.05 -63.0 Q13.4 -63.3 13.4 -63.75 13.4 -64.2 14.05 -64.5 M-15.4 -92.0 L-15.55 -91.2 -17.7 -91.05 -18.9 -91.25 -18.2 -92.05 -15.55 -92.45 -15.4 -92.0 M-4.15 -62.6 L-2.55 -62.85 -0.95 -62.6 Q-0.3 -62.4 -0.3 -62.05 -0.3 -61.7 -0.95 -61.45 L-2.55 -61.25 -4.15 -61.45 -4.8 -62.05 -4.15 -62.6 M-15.75 -63.95 Q-16.8 -64.3 -17.05 -63.25 L-16.35 -62.55 Q-15.3 -61.85 -13.1 -61.85 L-12.5 -61.95 -12.4 -62.65 -12.55 -63.05 Q-13.5 -63.15 -15.75 -63.95" fill="#ee62d2" fill-rule="evenodd" stroke="none"/>
    <path d="M-22.75 -27.45 L-22.3 -29.1 -21.9 -29.75 -22.75 -27.45 M-21.6 -96.05 L-21.2 -95.95 Q-19.5 -95.3 -14.75 -94.9 L-7.9 -94.6 -11.65 -94.45 -16.8 -94.35 -20.05 -93.95 Q-18.95 -93.3 -15.6 -92.7 L-8.6 -92.0 -3.15 -92.45 Q-1.6 -92.95 -1.1 -94.45 L-1.1 -94.55 3.5 -94.6 3.25 -94.45 Q-0.7 -92.3 -1.75 -91.05 L-12.65 -89.55 Q-18.25 -88.9 -19.4 -87.55 -20.15 -86.65 -20.15 -82.25 -20.15 -79.5 -18.4 -78.5 -16.3 -77.25 -10.2 -77.25 2.35 -77.25 6.35 -81.3 8.2 -83.15 9.55 -86.85 L11.9 -94.45 12.1 -95.1 14.65 -95.4 15.15 -92.1 14.05 -88.05 Q13.15 -85.55 10.1 -79.8 10.8 -78.65 11.2 -78.6 12.25 -79.4 15.5 -85.3 L15.7 -85.65 Q15.9 -85.8 15.95 -84.9 15.95 -77.8 13.7 -68.45 L13.9 -67.55 14.8 -67.35 16.4 -70.55 17.6 -73.5 17.8 -74.5 Q18.0 -71.5 19.0 -64.3 L19.05 -63.95 Q20.55 -53.0 22.4 -45.05 21.2 -45.0 19.85 -44.35 18.45 -43.65 17.85 -42.8 L17.95 -42.0 Q18.15 -41.6 19.3 -41.6 L22.85 -42.35 24.6 -36.55 25.0 -34.75 25.4 -32.95 Q25.4 -28.75 23.4 -27.75 L20.1 -27.3 19.85 -27.3 Q20.8 -26.7 21.95 -26.55 L24.9 -26.45 Q26.2 -22.3 28.4 -17.95 L29.45 -14.5 Q30.5 -11.35 31.55 -10.5 28.95 -8.7 26.65 -7.6 22.4 -5.55 15.0 -5.55 L2.35 -6.05 -7.8 -6.6 Q-16.2 -6.65 -19.95 -9.25 -13.7 -28.25 -13.7 -29.9 L-9.55 -30.05 Q-9.55 -30.45 -8.65 -31.15 -12.0 -33.4 -12.9 -33.05 -15.35 -32.1 -16.0 -32.1 L-16.95 -32.2 -17.45 -32.45 Q-17.65 -32.65 -17.65 -33.3 -17.65 -35.6 -12.4 -37.7 L-5.2 -40.6 Q-6.35 -41.55 -8.8 -41.45 L-12.8 -41.15 Q-12.35 -48.2 -12.3 -55.05 -12.3 -57.9 -12.0 -59.0 -11.55 -60.8 -10.1 -60.85 L-7.95 -61.3 Q-6.45 -61.35 -6.35 -61.9 -2.05 -63.55 0.8 -67.15 3.5 -70.55 2.8 -72.55 L2.9 -74.1 Q2.95 -74.5 2.35 -74.5 -3.95 -73.1 -6.05 -73.1 -17.9 -73.1 -21.2 -74.4 -25.8 -76.2 -25.8 -82.95 -25.8 -84.5 -25.0 -87.55 -24.1 -91.2 -22.45 -94.45 L-21.6 -96.05 M9.45 -63.5 L11.8 -69.55 Q13.1 -73.35 13.1 -75.35 L13.0 -76.7 12.0 -76.8 Q8.7 -73.5 7.75 -69.1 6.95 -65.3 3.65 -62.95 1.45 -62.75 1.35 -62.1 L1.7 -61.5 -6.3 -55.45 Q-8.55 -53.75 -8.55 -53.05 -8.55 -48.4 -6.75 -46.95 -5.3 -45.7 2.05 -41.6 -6.1 -39.4 -9.4 -37.65 -11.15 -36.7 -11.15 -36.2 -11.15 -34.4 -8.75 -33.0 -3.7 -30.1 -1.7 -28.55 L-3.15 -28.25 Q-8.05 -27.65 -9.25 -26.15 -9.85 -25.4 -10.25 -21.6 -10.5 -19.05 -13.4 -10.45 -13.4 -7.8 9.9 -7.8 L23.2 -8.55 Q26.65 -9.35 26.65 -11.9 26.65 -15.7 20.4 -20.55 14.1 -25.35 14.1 -27.1 14.1 -29.9 17.55 -30.95 21.0 -31.95 21.0 -34.95 21.0 -37.65 18.05 -40.25 13.75 -43.4 11.05 -45.85 15.9 -46.7 17.3 -47.35 18.35 -47.85 18.35 -48.8 18.35 -54.1 17.15 -56.95 16.1 -59.35 14.55 -59.35 L7.2 -57.75 8.8 -61.85 11.7 -62.25 Q11.85 -61.9 11.85 -62.9 L11.7 -63.6 11.55 -63.65 9.45 -63.5 M14.05 -64.5 Q13.4 -64.2 13.4 -63.75 13.4 -63.3 14.05 -63.0 L15.5 -62.7 17.0 -63.0 Q17.6 -63.3 17.6 -63.75 17.6 -64.2 17.0 -64.5 L15.5 -64.8 14.05 -64.5 M-4.15 -62.6 L-4.8 -62.05 -4.15 -61.45 -2.55 -61.25 -0.95 -61.45 Q-0.3 -61.7 -0.3 -62.05 -0.3 -62.4 -0.95 -62.6 L-2.55 -62.85 -4.15 -62.6 M-15.4 -92.0 L-15.55 -92.45 -18.2 -92.05 -18.9 -91.25 -17.7 -91.05 -15.55 -91.2 -15.4 -92.0" fill="#ef87da" fill-rule="evenodd" stroke="none"/>
    <path d="M20.2 -98.0 L18.2 -95.95 14.65 -95.4 12.1 -95.1 9.15 -94.85 8.05 -94.8 3.5 -94.6 -1.1 -94.55 -7.9 -94.6 -14.75 -94.9 Q-19.5 -95.3 -21.2 -95.95 L-23.4 -98.0 -18.7 -97.05 -17.35 -96.85 -15.6 -96.65 -13.05 -96.45 -10.4 -96.25 -6.1 -96.1 -1.85 -96.05 0.7 -96.05 3.0 -96.1 7.05 -96.25 10.5 -96.45 13.4 -96.75 Q17.75 -97.2 20.2 -98.0 M19.0 -64.3 L19.0 -64.65 20.55 -66.2 Q21.55 -66.95 22.1 -66.95 L22.6 -66.65 22.75 -66.1 21.4 -64.95 Q20.3 -64.2 19.65 -64.2 L19.0 -64.3 M-7.95 -61.3 L-10.7 -61.55 -10.9 -62.3 -10.8 -62.85 -10.05 -63.0 -6.55 -62.6 Q-6.25 -62.35 -6.35 -61.9 -6.45 -61.35 -7.95 -61.3 M-15.75 -63.95 Q-13.5 -63.15 -12.55 -63.05 L-12.4 -62.65 -12.5 -61.95 -13.1 -61.85 Q-15.3 -61.85 -16.35 -62.55 L-17.05 -63.25 Q-16.8 -64.3 -15.75 -63.95" fill="#ea3ec8" fill-rule="evenodd" stroke="none"/>
    <path d="M3.0 -100.15 L0.45 -100.1 -1.95 -100.1 -6.0 -100.2 -9.8 -100.35 -12.0 -100.5 -14.8 -100.85 -15.85 -101.0 -17.3 -101.2 -18.5 -101.4 -18.55 -101.4 -18.7 -101.45 -19.3 -101.55 -21.25 -102.2 -23.4 -98.0 -21.2 -95.95 -21.6 -96.05 -24.15 -96.8 -25.25 -94.45 Q-29.7 -84.75 -28.55 -77.8 -27.55 -72.15 -22.9 -68.3 L-21.45 -67.2 Q-20.3 -66.4 -18.95 -65.7 L-17.7 -65.05 -17.7 -64.85 -17.7 -64.65 -17.7 -64.55 -17.7 -64.45 -17.75 -63.95 -18.05 -60.05 -18.25 -56.6 -18.25 -56.45 Q-18.6 -49.7 -19.7 -41.55 L-20.45 -36.55 -22.3 -29.1 -22.75 -27.45 -22.75 -27.3 Q-24.6 -21.45 -26.15 -14.4 L-26.2 -14.35 -26.35 -13.65 -26.35 -13.6 -26.7 -12.2 -26.7 -12.15 -26.7 -12.05 -27.95 -6.95 Q-21.1 -4.4 -10.0 -3.85 L-0.6 -2.9 9.75 -2.45 15.55 -2.9 23.9 -3.9 Q28.95 -4.7 34.45 -6.2 L36.7 -6.85 35.8 -11.2 35.5 -12.5 35.55 -12.5 35.2 -13.85 35.2 -13.9 34.65 -15.75 32.2 -24.05 Q30.25 -29.4 28.9 -34.75 L28.35 -36.55 26.55 -45.25 26.3 -46.6 25.85 -49.25 Q24.55 -56.6 23.5 -63.95 L23.45 -64.1 23.4 -64.65 22.85 -67.7 22.7 -69.7 20.9 -90.7 20.9 -91.1 20.55 -94.45 20.25 -96.45 18.2 -95.95 20.2 -98.0 19.2 -101.85 18.9 -101.75 14.55 -101.0 9.65 -100.45 6.8 -100.25 3.0 -100.15 M14.35 -102.5 Q18.0 -102.95 19.4 -103.55 L19.55 -103.6 20.35 -104.2 20.4 -104.25 20.4 -104.2 20.75 -102.65 20.8 -102.45 Q21.6 -98.55 22.05 -94.45 L22.4 -90.8 22.7 -87.4 23.2 -81.7 24.4 -67.85 24.85 -64.95 24.95 -64.3 25.0 -63.95 25.95 -58.0 27.35 -49.5 27.7 -47.6 28.15 -45.0 29.9 -36.55 30.35 -35.05 Q31.75 -29.8 33.65 -24.4 L35.0 -20.15 36.65 -14.25 37.05 -12.8 37.05 -12.75 37.35 -11.45 38.2 -7.4 38.5 -5.95 38.55 -5.75 37.05 -5.3 37.0 -5.35 Q34.25 -4.35 30.95 -3.6 21.6 -1.55 7.95 -1.15 -5.5 -1.25 -18.45 -3.35 -24.2 -4.45 -28.2 -5.7 L-29.8 -6.0 -29.75 -6.25 -29.5 -7.55 -28.25 -12.35 -28.1 -13.2 -27.85 -13.9 -27.9 -13.85 -27.7 -14.65 Q-26.1 -21.7 -24.25 -27.65 L-22.8 -33.15 -22.0 -36.55 -21.65 -38.5 -21.2 -41.75 -20.15 -50.7 -19.75 -56.7 -19.3 -63.95 -19.3 -64.2 -21.8 -65.6 -23.25 -66.65 Q-28.95 -71.0 -30.0 -77.55 -31.25 -84.7 -26.95 -94.45 L-24.85 -98.8 -24.25 -99.95 -22.9 -102.45 -22.8 -102.65 -22.1 -104.05 -17.7 -102.8 -15.65 -102.5 -15.6 -102.5 -11.55 -102.0 -6.25 -101.7 -0.65 -101.6 9.55 -101.95 14.3 -102.5 14.35 -102.5" fill="#9d1182" fill-rule="evenodd" stroke="none"/>
    <path d="M6.8 -100.25 L9.65 -100.45 14.55 -101.0 18.9 -101.75 19.2 -101.85 20.2 -98.0 Q17.75 -97.2 13.4 -96.75 L12.65 -100.7 9.8 -100.45 10.5 -96.45 7.05 -96.25 6.8 -100.25 M-23.4 -98.0 L-21.25 -102.2 -19.3 -101.55 -18.7 -101.45 -18.55 -101.4 -18.5 -101.4 -17.3 -101.2 -15.85 -101.0 -14.8 -100.85 -15.6 -96.65 -17.35 -96.85 -16.35 -100.1 -16.1 -101.0 -17.3 -101.2 -18.7 -97.05 -23.4 -98.0 M-12.0 -100.5 L-9.8 -100.35 -10.4 -96.25 -13.05 -96.45 Q-12.15 -99.6 -12.0 -100.5" fill="#d2d2d2" fill-rule="evenodd" stroke="none"/>
    <path d="M3.0 -100.15 L6.8 -100.25 7.05 -96.25 3.0 -96.1 3.0 -100.15 M-14.8 -100.85 L-12.0 -100.5 Q-12.15 -99.6 -13.05 -96.45 L-15.6 -96.65 -14.8 -100.85 M-9.8 -100.35 L-6.0 -100.2 -6.1 -96.1 -10.4 -96.25 -9.8 -100.35 M-1.95 -100.1 L0.45 -100.1 0.7 -96.05 -1.85 -96.05 -1.95 -100.1 M10.5 -96.45 L9.8 -100.45 12.65 -100.7 13.4 -96.75 10.5 -96.45 M-18.7 -97.05 L-17.3 -101.2 -16.1 -101.0 -16.35 -100.1 -17.35 -96.85 -18.7 -97.05" fill="#e7e7e7" fill-rule="evenodd" stroke="none"/>
  </g>
</svg>
