<?xml version="1.0" encoding="UTF-8" standalone="no"?>
<svg xmlns:ffdec="https://www.free-decompiler.com/flash" xmlns:xlink="http://www.w3.org/1999/xlink" ffdec:objectType="shape" height="32.85px" width="63.0px" xmlns="http://www.w3.org/2000/svg">
  <g transform="matrix(1.0, 0.0, 0.0, 1.0, 3.45, 5.75)">
    <path d="M45.4 5.55 Q37.6 -0.7 26.6 -0.7 17.35 -0.7 11.8 2.7 6.35 6.05 6.35 11.55 6.35 13.0 6.8 13.75 7.15 14.3 7.65 14.3 L16.95 13.4 29.05 12.5 Q33.6 12.5 49.25 15.1 50.2 15.1 50.8 14.7 51.45 14.3 51.45 13.6 51.45 12.55 49.95 10.35 48.2 7.8 45.4 5.55 M49.65 18.75 L45.1 17.75 Q40.1 16.7 30.4 16.7 L14.5 17.7 5.3 18.65 3.25 18.4 Q1.75 17.6 1.75 14.35 1.75 8.35 6.8 3.6 13.35 -2.5 25.65 -2.5 38.6 -2.5 47.65 4.55 55.1 10.4 55.1 15.6 55.1 17.3 54.0 18.0 52.8 18.75 49.65 18.75" fill="#2b8059" fill-rule="evenodd" stroke="none"/>
    <path d="M45.4 5.55 Q48.2 7.8 49.95 10.35 51.45 12.55 51.45 13.6 51.45 14.3 50.8 14.7 50.2 15.1 49.25 15.1 33.6 12.5 29.05 12.5 L16.95 13.4 7.65 14.3 Q7.15 14.3 6.8 13.75 6.35 13.0 6.35 11.55 6.35 6.05 11.8 2.7 17.35 -0.7 26.6 -0.7 37.6 -0.7 45.4 5.55" fill="#36a06f" fill-rule="evenodd" stroke="none"/>
    <path d="M54.9 27.1 L0.35 27.1 Q-2.0 24.55 -2.0 18.8 -2.0 10.6 4.1 4.3 11.9 -3.7 26.55 -3.7 40.9 -3.7 50.35 5.3 58.1 12.7 58.1 19.95 58.1 21.7 56.75 24.25 L54.9 27.1 M37.1 -3.7 L40.25 -4.35 Q49.9 -4.35 55.95 4.05 54.75 5.65 53.55 6.5 51.35 3.7 46.95 0.8 41.95 -2.5 37.1 -3.7 M49.65 18.75 Q52.8 18.75 54.0 18.0 55.1 17.3 55.1 15.6 55.1 10.4 47.65 4.55 38.6 -2.5 25.65 -2.5 13.35 -2.5 6.8 3.6 1.75 8.35 1.75 14.35 1.75 17.6 3.25 18.4 L5.3 18.65 14.5 17.7 30.4 16.7 Q40.1 16.7 45.1 17.75 L49.65 18.75" fill="#236949" fill-rule="evenodd" stroke="none"/>
    <path d="M0.35 27.1 Q-1.95 26.35 -2.85 23.65 -3.45 21.75 -3.45 18.55 -3.45 8.3 4.95 1.55 13.45 -5.25 26.6 -5.25 L30.65 -4.75 34.7 -4.3 Q36.1 -4.3 38.25 -5.0 40.4 -5.75 41.6 -5.75 46.2 -5.75 52.0 -2.05 57.6 1.55 57.6 3.95 L57.05 5.15 Q56.15 6.4 54.5 7.65 56.4 9.05 57.9 12.6 59.55 16.4 59.55 20.1 59.55 22.5 58.45 24.55 57.1 26.95 54.9 27.1 L56.75 24.25 Q58.1 21.7 58.1 19.95 58.1 12.7 50.35 5.3 40.9 -3.7 26.55 -3.7 11.9 -3.7 4.1 4.3 -2.0 10.6 -2.0 18.8 -2.0 24.55 0.35 27.1 M37.1 -3.7 Q41.95 -2.5 46.95 0.8 51.35 3.7 53.55 6.5 54.75 5.65 55.95 4.05 49.9 -4.35 40.25 -4.35 L37.1 -3.7" fill="#143f2c" fill-rule="evenodd" stroke="none"/>
  </g>
</svg>
