<?xml version="1.0" encoding="UTF-8" standalone="no"?>
<svg xmlns:ffdec="https://www.free-decompiler.com/flash" xmlns:xlink="http://www.w3.org/1999/xlink" ffdec:objectType="shape" height="12.0px" width="12.0px" xmlns="http://www.w3.org/2000/svg">
  <g transform="matrix(1.0, 0.0, 0.0, 1.0, 6.0, 6.0)">
    <path d="M3.5 -3.55 Q5.0 -2.05 5.0 0.0 5.0 2.05 3.5 3.5 2.05 5.0 0.0 5.0 -2.05 5.0 -3.55 3.5 -5.0 2.05 -5.0 0.0 -5.0 -2.05 -3.55 -3.55 -2.05 -5.0 0.0 -5.0 2.05 -5.0 3.5 -3.55" fill="#ff9900" fill-rule="evenodd" stroke="none"/>
    <path d="M3.5 -3.55 Q5.0 -2.05 5.0 0.0 5.0 2.05 3.5 3.5 2.05 5.0 0.0 5.0 -2.05 5.0 -3.55 3.5 -5.0 2.05 -5.0 0.0 -5.0 -2.05 -3.55 -3.55 -2.05 -5.0 0.0 -5.0 2.05 -5.0 3.5 -3.55 Z" fill="none" stroke="#de5a03" stroke-linecap="round" stroke-linejoin="round" stroke-width="2.0"/>
  </g>
</svg>
