<?xml version="1.0" encoding="UTF-8" standalone="no"?>
<svg xmlns:ffdec="https://www.free-decompiler.com/flash" xmlns:xlink="http://www.w3.org/1999/xlink" ffdec:objectType="shape" height="99.8px" width="108.4px" xmlns="http://www.w3.org/2000/svg">
  <g transform="matrix(1.0, 0.0, 0.0, 1.0, 60.8, 74.05)">
    <path d="M-46.6 -28.9 L-45.6 -30.05 -44.85 -29.6 -46.6 -28.9 M5.85 -57.65 Q3.6 -57.65 1.85 -55.25 0.0 -52.75 0.0 -49.15 0.0 -47.5 2.6 -46.45 4.65 -45.65 6.5 -45.65 8.2 -45.65 10.1 -48.2 12.0 -50.7 12.0 -52.65 12.0 -53.95 9.45 -55.85 7.05 -57.65 5.85 -57.65 M12.9 -49.5 Q12.25 -48.7 12.25 -47.5 12.25 -46.3 12.9 -45.45 13.55 -44.65 14.5 -44.65 15.45 -44.65 16.1 -45.45 16.75 -46.3 16.75 -47.5 16.75 -48.7 16.1 -49.5 15.45 -50.35 14.5 -50.35 13.55 -50.35 12.9 -49.5 M19.75 -53.45 L19.5 -52.2 18.9 -51.0 Q23.35 -48.65 24.6 -47.05 25.2 -46.25 25.95 -43.4 26.5 -41.15 29.65 -40.55 32.85 -39.95 33.25 -38.65 L33.1 -37.4 Q32.25 -37.9 31.2 -38.05 L30.8 -37.75 Q30.65 -37.65 30.65 -37.0 30.65 -36.8 31.95 -35.3 33.1 -34.0 32.5 -32.25 34.0 -33.0 35.1 -33.0 L35.95 -32.95 36.1 -32.75 36.25 -32.0 Q36.25 -30.9 35.25 -29.7 34.1 -28.35 32.7 -28.8 L33.35 -27.25 33.85 -25.55 Q33.85 -24.8 32.6 -21.75 L31.35 -18.8 Q31.35 -18.3 31.85 -16.85 L32.35 -14.9 Q32.35 -13.0 30.7 -12.0 28.6 -10.75 27.65 -8.55 26.3 -5.35 23.75 -2.3 L19.0 2.75 17.15 1.9 17.0 1.75 17.0 2.25 Q17.0 2.9 17.3 3.25 L18.0 3.9 Q13.2 3.0 12.65 2.5 11.5 1.45 11.5 -3.85 L12.4 -13.25 Q12.4 -14.45 10.15 -17.45 5.65 -23.3 2.75 -27.7 L2.75 -30.5 Q3.25 -31.1 2.25 -31.1 -0.3 -30.6 -1.4 -27.9 -6.15 -29.3 -23.05 -30.75 L-40.95 -32.15 Q-44.0 -32.55 -47.15 -36.7 -48.75 -38.8 -49.75 -40.9 L-48.75 -42.35 -45.9 -45.65 Q-44.95 -46.6 -44.5 -48.75 L-43.75 -51.4 -41.15 -54.65 Q-38.95 -56.95 -37.25 -57.25 -34.25 -57.8 -33.55 -58.3 -33.1 -58.6 -31.55 -61.0 -25.2 -62.0 -21.95 -63.5 L-18.9 -64.75 Q-17.8 -64.75 -15.45 -63.75 L-13.25 -62.8 -11.25 -63.25 -9.3 -63.75 Q-5.05 -63.75 -1.75 -61.8 -0.05 -60.8 3.9 -63.25 5.8 -60.35 8.25 -59.9 10.55 -59.4 12.7 -57.35 L15.35 -54.2 Q15.95 -54.7 16.85 -55.2 17.85 -55.7 18.4 -55.75 L19.45 -55.45 19.75 -53.45 M26.0 -34.0 Q26.0 -37.0 22.9 -40.65 20.3 -43.75 19.65 -43.75 L16.5 -43.4 13.8 -43.05 Q11.5 -39.35 11.5 -37.85 11.5 -35.05 14.25 -33.2 16.55 -31.65 18.95 -31.65 L24.6 -32.25 Q26.0 -32.8 26.0 -34.0 M26.1 -27.3 L21.55 -27.45 Q20.5 -26.95 15.25 -26.45 12.4 -26.2 12.4 -22.65 12.4 -19.6 16.0 -17.7 18.95 -16.15 22.15 -16.15 25.9 -16.15 27.5 -17.9 28.6 -19.1 28.6 -20.8 L28.2 -23.15 27.8 -25.5 Q27.8 -26.35 26.1 -27.3 M39.2 -29.75 L40.3 -29.3 40.75 -28.25 Q40.75 -27.65 40.3 -27.2 39.85 -26.75 39.2 -26.75 38.55 -26.75 38.1 -27.2 37.65 -27.65 37.65 -28.25 37.65 -28.85 38.1 -29.3 38.55 -29.75 39.2 -29.75 M6.85 -37.0 Q6.1 -37.75 5.05 -37.75 4.0 -37.75 3.3 -37.0 2.55 -36.3 2.55 -35.25 2.55 -34.2 3.3 -33.45 4.0 -32.75 5.05 -32.75 6.1 -32.75 6.85 -33.45 7.55 -34.2 7.55 -35.25 7.55 -36.3 6.85 -37.0 M15.9 -5.7 Q17.25 -4.5 19.2 -4.5 21.15 -4.5 22.55 -5.7 23.9 -6.9 23.9 -8.6 23.9 -10.3 22.55 -11.5 21.15 -12.7 19.2 -12.7 17.25 -12.7 15.9 -11.5 14.5 -10.3 14.5 -8.6 14.5 -6.9 15.9 -5.7 M38.4 -22.55 L38.7 -21.8 38.4 -21.05 Q38.05 -20.75 37.6 -20.75 37.15 -20.75 36.85 -21.05 36.5 -21.35 36.5 -21.8 36.5 -22.25 36.85 -22.55 L37.6 -22.85 38.4 -22.55 M30.4 -14.4 L29.3 -14.85 Q28.65 -14.85 28.2 -14.4 27.75 -13.95 27.75 -13.3 27.75 -12.65 28.2 -12.2 28.65 -11.75 29.3 -11.75 29.95 -11.75 30.4 -12.2 30.85 -12.65 30.85 -13.3 30.85 -13.95 30.4 -14.4 M-23.65 -65.75 Q-23.35 -65.45 -23.35 -65.0 -23.35 -64.55 -23.65 -64.2 -24.0 -63.9 -24.45 -63.9 -24.9 -63.9 -25.2 -64.2 -25.55 -64.55 -25.55 -65.0 L-25.2 -65.75 Q-24.9 -66.1 -24.45 -66.1 -24.0 -66.1 -23.65 -65.75 M38.25 -1.25 Q38.25 -0.75 37.9 -0.35 37.5 0.0 37.0 0.0 36.5 0.0 36.15 -0.35 35.75 -0.75 35.75 -1.25 35.75 -1.75 36.15 -2.1 36.5 -2.5 37.0 -2.5 37.5 -2.5 37.9 -2.1 L38.25 -1.25 M37.1 -13.85 Q38.2 -13.85 39.0 -13.05 39.8 -12.3 39.8 -11.2 39.8 -10.1 39.0 -9.3 38.2 -8.55 37.1 -8.55 36.0 -8.55 35.2 -9.3 34.4 -10.1 34.4 -11.2 34.4 -12.3 35.2 -13.05 36.0 -13.85 37.1 -13.85 M-37.45 -55.0 Q-38.4 -55.0 -39.1 -54.3 -39.8 -53.6 -39.8 -52.6 -39.8 -51.6 -39.1 -50.9 -38.4 -50.2 -37.45 -50.2 -36.5 -50.2 -35.8 -50.9 -35.1 -51.6 -35.1 -52.6 -35.1 -53.6 -35.8 -54.3 -36.5 -55.0 -37.45 -55.0 M-22.65 -54.3 Q-24.5 -57.75 -25.75 -57.75 -27.7 -57.75 -32.5 -52.15 L-36.9 -46.5 Q-36.9 -42.5 -29.0 -42.5 -24.45 -42.5 -22.25 -46.25 -21.15 -48.15 -21.0 -50.05 -21.0 -51.2 -22.65 -54.3 M-17.25 -69.0 L-16.0 -68.6 Q-15.5 -68.25 -15.5 -67.75 -15.5 -67.25 -16.0 -66.85 -16.55 -66.5 -17.25 -66.5 -17.95 -66.5 -18.45 -66.85 -19.0 -67.25 -19.0 -67.75 -19.0 -68.25 -18.45 -68.6 -17.95 -69.0 -17.25 -69.0 M-7.85 -66.95 Q-7.25 -67.5 -6.4 -67.5 -5.55 -67.5 -4.9 -66.95 -4.3 -66.45 -4.3 -65.75 -4.3 -65.05 -4.9 -64.5 -5.55 -64.0 -6.4 -64.0 -7.25 -64.0 -7.85 -64.5 -8.5 -65.05 -8.5 -65.75 -8.5 -66.45 -7.85 -66.95 M-13.3 -58.35 Q-14.85 -58.35 -16.1 -57.25 -17.25 -56.2 -17.55 -54.8 -18.2 -51.25 -13.1 -51.25 -11.15 -51.25 -10.45 -51.85 -10.0 -52.2 -10.0 -53.0 -10.0 -56.9 -11.0 -57.9 L-13.3 -58.35 M-4.8 -57.55 Q-5.45 -56.95 -5.45 -56.05 -5.45 -55.15 -4.8 -54.5 -4.2 -53.9 -3.3 -53.9 -2.4 -53.9 -1.75 -54.5 -1.15 -55.15 -1.15 -56.05 -1.15 -56.95 -1.75 -57.55 -2.4 -58.2 -3.3 -58.2 -4.2 -58.2 -4.8 -57.55 M-8.5 -59.65 L-8.0 -60.45 -8.05 -61.35 -8.45 -61.55 -10.35 -60.8 Q-10.6 -60.6 -10.0 -58.25 -9.15 -58.8 -8.5 -59.65 M-45.2 -52.1 Q-44.4 -51.3 -44.4 -50.15 -44.4 -49.0 -45.2 -48.2 -46.0 -47.4 -47.15 -47.4 -48.3 -47.4 -49.1 -48.2 -49.9 -49.0 -49.9 -50.15 -49.9 -51.3 -49.1 -52.1 -48.3 -52.9 -47.15 -52.9 -46.0 -52.9 -45.2 -52.1 M-43.15 -44.3 Q-44.75 -42.1 -44.75 -39.8 -44.75 -36.5 -41.15 -36.5 -38.25 -36.5 -36.75 -37.85 -35.5 -39.05 -35.5 -40.9 -35.5 -43.9 -38.05 -45.4 -39.35 -46.15 -40.75 -46.3 -41.75 -46.3 -43.15 -44.3 M-52.3 -40.75 Q-52.8 -40.3 -53.5 -40.3 -54.2 -40.3 -54.65 -40.75 -55.15 -41.25 -55.15 -41.95 -55.15 -42.65 -54.65 -43.1 -54.2 -43.6 -53.5 -43.6 -52.8 -43.6 -52.3 -43.1 -51.85 -42.65 -51.85 -41.95 -51.85 -41.25 -52.3 -40.75 M-8.1 -49.15 Q-12.85 -49.15 -15.9 -45.85 L-18.0 -42.4 -17.6 -40.95 Q-17.25 -40.0 -17.25 -38.6 -17.25 -35.85 -14.65 -35.0 L-10.85 -34.65 Q1.15 -34.65 -0.8 -41.9 -1.55 -44.55 -3.9 -46.9 -6.25 -49.15 -8.1 -49.15 M-19.45 -39.25 Q-20.25 -40.05 -21.35 -40.05 -22.45 -40.05 -23.25 -39.25 -24.05 -38.45 -24.05 -37.35 -24.05 -36.25 -23.25 -35.45 -22.45 -34.65 -21.35 -34.65 -20.25 -34.65 -19.45 -35.45 -18.65 -36.25 -18.65 -37.35 -18.65 -38.45 -19.45 -39.25 M-27.95 -33.6 Q-27.6 -33.25 -27.05 -33.25 -26.5 -33.25 -26.1 -33.6 -25.75 -34.0 -25.75 -34.55 -25.75 -35.1 -26.1 -35.45 -26.5 -35.85 -27.05 -35.85 -27.6 -35.85 -27.95 -35.45 -28.35 -35.1 -28.35 -34.55 -28.35 -34.0 -27.95 -33.6 M29.95 14.5 L30.25 15.3 29.95 16.15 Q29.6 16.45 29.1 16.45 L28.3 16.15 Q27.95 15.8 27.95 15.3 27.95 14.8 28.3 14.5 28.6 14.15 29.1 14.15 29.6 14.15 29.95 14.5 M31.9 1.2 Q32.85 2.3 32.85 3.9 32.85 5.5 31.9 6.65 30.9 7.75 29.55 7.75 28.2 7.75 27.25 6.65 26.25 5.5 26.25 3.9 26.25 2.3 27.25 1.2 28.2 0.05 29.55 0.05 30.9 0.05 31.9 1.2" fill="#ebe8e0" fill-rule="evenodd" stroke="none"/>
    <path d="M5.85 -57.65 Q7.05 -57.65 9.45 -55.85 12.0 -53.95 12.0 -52.65 12.0 -50.7 10.1 -48.2 8.2 -45.65 6.5 -45.65 4.65 -45.65 2.6 -46.45 0.0 -47.5 0.0 -49.15 0.0 -52.75 1.85 -55.25 3.6 -57.65 5.85 -57.65 M26.1 -27.3 Q27.8 -26.35 27.8 -25.5 L28.2 -23.15 28.6 -20.8 Q28.6 -19.1 27.5 -17.9 25.9 -16.15 22.15 -16.15 18.95 -16.15 16.0 -17.7 12.4 -19.6 12.4 -22.65 12.4 -26.2 15.25 -26.45 20.5 -26.95 21.55 -27.45 L26.1 -27.3 M26.0 -34.0 Q26.0 -32.8 24.6 -32.25 L18.95 -31.65 Q16.55 -31.65 14.25 -33.2 11.5 -35.05 11.5 -37.85 11.5 -39.35 13.8 -43.05 L16.5 -43.4 19.65 -43.75 Q20.3 -43.75 22.9 -40.65 26.0 -37.0 26.0 -34.0 M15.9 -5.7 Q14.5 -6.9 14.5 -8.6 14.5 -10.3 15.9 -11.5 17.25 -12.7 19.2 -12.7 21.15 -12.7 22.55 -11.5 23.9 -10.3 23.9 -8.6 23.9 -6.9 22.55 -5.7 21.15 -4.5 19.2 -4.5 17.25 -4.5 15.9 -5.7 M6.85 -37.0 Q7.55 -36.3 7.55 -35.25 7.55 -34.2 6.85 -33.45 6.1 -32.75 5.05 -32.75 4.0 -32.75 3.3 -33.45 2.55 -34.2 2.55 -35.25 2.55 -36.3 3.3 -37.0 4.0 -37.75 5.05 -37.75 6.1 -37.75 6.85 -37.0 M-22.65 -54.3 Q-21.0 -51.2 -21.0 -50.05 -21.15 -48.15 -22.25 -46.25 -24.45 -42.5 -29.0 -42.5 -36.9 -42.5 -36.9 -46.5 L-32.5 -52.15 Q-27.7 -57.75 -25.75 -57.75 -24.5 -57.75 -22.65 -54.3 M-4.8 -57.55 Q-4.2 -58.2 -3.3 -58.2 -2.4 -58.2 -1.75 -57.55 -1.15 -56.95 -1.15 -56.05 -1.15 -55.15 -1.75 -54.5 -2.4 -53.9 -3.3 -53.9 -4.2 -53.9 -4.8 -54.5 -5.45 -55.15 -5.45 -56.05 -5.45 -56.95 -4.8 -57.55 M-13.3 -58.35 L-11.0 -57.9 Q-10.0 -56.9 -10.0 -53.0 -10.0 -52.2 -10.45 -51.85 -11.15 -51.25 -13.1 -51.25 -18.2 -51.25 -17.55 -54.8 -17.25 -56.2 -16.1 -57.25 -14.85 -58.35 -13.3 -58.35 M-43.15 -44.3 Q-41.75 -46.3 -40.75 -46.3 -39.35 -46.15 -38.05 -45.4 -35.5 -43.9 -35.5 -40.9 -35.5 -39.05 -36.75 -37.85 -38.25 -36.5 -41.15 -36.5 -44.75 -36.5 -44.75 -39.8 -44.75 -42.1 -43.15 -44.3 M-8.1 -49.15 Q-6.25 -49.15 -3.9 -46.9 -1.55 -44.55 -0.8 -41.9 1.15 -34.65 -10.85 -34.65 L-14.65 -35.0 Q-17.25 -35.85 -17.25 -38.6 -17.25 -40.0 -17.6 -40.95 L-18.0 -42.4 -15.9 -45.85 Q-12.85 -49.15 -8.1 -49.15" fill="#ffffff" fill-rule="evenodd" stroke="none"/>
    <path d="M-45.6 -30.05 L-45.55 -30.5 -48.15 -30.4 Q-50.0 -30.4 -54.15 -33.65 -59.05 -37.5 -59.05 -41.3 -59.05 -43.2 -56.2 -46.45 -53.15 -49.9 -52.85 -51.6 -52.55 -53.1 -50.2 -54.5 L-47.5 -55.8 Q-46.15 -56.65 -43.15 -60.5 -41.55 -62.6 -36.15 -63.15 -33.25 -63.45 -31.35 -66.65 -29.55 -69.75 -27.15 -69.75 L-25.05 -69.3 -23.0 -68.9 Q-22.8 -68.9 -19.65 -70.55 -16.55 -72.25 -15.75 -72.25 -14.85 -72.25 -13.05 -71.0 -11.25 -69.8 -9.25 -69.8 -8.7 -69.8 -6.8 -70.55 L-4.8 -71.3 Q-4.15 -71.3 -3.75 -70.7 L-2.55 -69.1 Q0.3 -65.85 1.35 -67.05 L2.45 -68.45 Q3.25 -69.25 4.45 -69.25 5.7 -69.25 6.55 -68.05 L8.5 -65.4 Q9.7 -64.2 12.55 -63.35 L17.25 -62.4 Q17.3 -58.45 21.6 -58.0 L24.9 -57.55 Q26.55 -57.1 27.1 -55.75 L27.3 -54.2 Q27.3 -53.0 27.45 -52.5 27.6 -52.0 29.15 -51.15 L30.7 -50.4 Q31.5 -49.6 32.35 -47.4 32.95 -45.75 35.35 -44.45 37.0 -43.55 37.05 -42.2 L36.6 -39.85 Q36.05 -36.9 42.75 -35.5 L42.55 -31.0 42.75 -31.1 43.7 -31.2 Q45.25 -31.2 45.35 -29.3 L45.0 -27.65 44.6 -26.05 45.9 -21.05 Q45.9 -19.75 45.05 -16.45 L44.15 -13.35 Q44.15 -12.85 44.65 -11.1 L45.15 -8.9 43.9 -2.95 44.3 -1.05 44.65 0.85 Q44.65 7.35 36.2 15.45 27.4 23.9 19.2 23.9 L17.85 23.85 17.35 23.25 Q17.5 22.6 19.45 20.25 L21.5 17.95 Q22.0 17.95 21.6 18.45 21.15 18.95 21.65 18.95 22.0 18.95 23.4 15.45 L23.15 13.75 22.5 12.5 Q22.0 12.6 21.9 13.55 L21.2 11.8 20.75 12.85 Q20.75 9.35 17.65 6.9 14.55 4.4 10.2 4.4 L9.5 4.0 Q9.15 3.85 8.9 3.05 L8.7 1.45 Q8.7 0.95 10.05 -4.7 L11.4 -10.9 Q11.4 -17.65 1.55 -22.6 -7.45 -27.15 -17.5 -27.15 L-23.55 -26.7 Q-29.35 -26.3 -31.6 -26.5 -33.75 -26.65 -38.35 -28.35 L-42.55 -30.0 -44.85 -29.6 -45.6 -30.05 M19.75 -53.45 L19.45 -55.45 18.4 -55.75 Q17.85 -55.7 16.85 -55.2 15.95 -54.7 15.35 -54.2 L12.7 -57.35 Q10.55 -59.4 8.25 -59.9 5.8 -60.35 3.9 -63.25 -0.05 -60.8 -1.75 -61.8 -5.05 -63.75 -9.3 -63.75 L-11.25 -63.25 -13.25 -62.8 -15.45 -63.75 Q-17.8 -64.75 -18.9 -64.75 L-21.95 -63.5 Q-25.2 -62.0 -31.55 -61.0 -33.1 -58.6 -33.55 -58.3 -34.25 -57.8 -37.25 -57.25 -38.95 -56.95 -41.15 -54.65 L-43.75 -51.4 -44.5 -48.75 Q-44.95 -46.6 -45.9 -45.65 L-48.75 -42.35 -49.75 -40.9 Q-48.75 -38.8 -47.15 -36.7 -44.0 -32.55 -40.95 -32.15 L-23.05 -30.75 Q-6.15 -29.3 -1.4 -27.9 -0.3 -30.6 2.25 -31.1 3.25 -31.1 2.75 -30.5 L2.75 -27.7 Q5.65 -23.3 10.15 -17.45 12.4 -14.45 12.4 -13.25 L11.5 -3.85 Q11.5 1.45 12.65 2.5 13.2 3.0 18.0 3.9 L17.3 3.25 Q17.0 2.9 17.0 2.25 L17.0 1.75 17.15 1.9 19.0 2.75 23.75 -2.3 Q26.3 -5.35 27.65 -8.55 28.6 -10.75 30.7 -12.0 32.35 -13.0 32.35 -14.9 L31.85 -16.85 Q31.35 -18.3 31.35 -18.8 L32.6 -21.75 Q33.85 -24.8 33.85 -25.55 L33.35 -27.25 32.7 -28.8 Q34.1 -28.35 35.25 -29.7 36.25 -30.9 36.25 -32.0 L36.1 -32.75 35.95 -32.95 35.1 -33.0 Q34.0 -33.0 32.5 -32.25 33.1 -34.0 31.95 -35.3 30.65 -36.8 30.65 -37.0 30.65 -37.65 30.8 -37.75 L31.2 -38.05 Q32.25 -37.9 33.1 -37.4 L33.25 -38.65 Q32.85 -39.95 29.65 -40.55 26.5 -41.15 25.95 -43.4 25.2 -46.25 24.6 -47.05 23.35 -48.65 18.9 -51.0 L19.5 -52.2 19.75 -53.45 M12.9 -49.5 Q13.55 -50.35 14.5 -50.35 15.45 -50.35 16.1 -49.5 16.75 -48.7 16.75 -47.5 16.75 -46.3 16.1 -45.45 15.45 -44.65 14.5 -44.65 13.55 -44.65 12.9 -45.45 12.25 -46.3 12.25 -47.5 12.25 -48.7 12.9 -49.5 M39.2 -29.75 Q38.55 -29.75 38.1 -29.3 37.65 -28.85 37.65 -28.25 37.65 -27.65 38.1 -27.2 38.55 -26.75 39.2 -26.75 39.85 -26.75 40.3 -27.2 40.75 -27.65 40.75 -28.25 L40.3 -29.3 39.2 -29.75 M38.4 -22.55 L37.6 -22.85 36.85 -22.55 Q36.5 -22.25 36.5 -21.8 36.5 -21.35 36.85 -21.05 37.15 -20.75 37.6 -20.75 38.05 -20.75 38.4 -21.05 L38.7 -21.8 38.4 -22.55 M30.4 -14.4 Q30.85 -13.95 30.85 -13.3 30.85 -12.65 30.4 -12.2 29.95 -11.75 29.3 -11.75 28.65 -11.75 28.2 -12.2 27.75 -12.65 27.75 -13.3 27.75 -13.95 28.2 -14.4 28.65 -14.85 29.3 -14.85 L30.4 -14.4 M37.1 -13.85 Q36.0 -13.85 35.2 -13.05 34.4 -12.3 34.4 -11.2 34.4 -10.1 35.2 -9.3 36.0 -8.55 37.1 -8.55 38.2 -8.55 39.0 -9.3 39.8 -10.1 39.8 -11.2 39.8 -12.3 39.0 -13.05 38.2 -13.85 37.1 -13.85 M38.25 -1.25 L37.9 -2.1 Q37.5 -2.5 37.0 -2.5 36.5 -2.5 36.15 -2.1 35.75 -1.75 35.75 -1.25 35.75 -0.75 36.15 -0.35 36.5 0.0 37.0 0.0 37.5 0.0 37.9 -0.35 38.25 -0.75 38.25 -1.25 M-23.65 -65.75 Q-24.0 -66.1 -24.45 -66.1 -24.9 -66.1 -25.2 -65.75 L-25.55 -65.0 Q-25.55 -64.55 -25.2 -64.2 -24.9 -63.9 -24.45 -63.9 -24.0 -63.9 -23.65 -64.2 -23.35 -64.55 -23.35 -65.0 -23.35 -65.45 -23.65 -65.75 M-37.45 -55.0 Q-36.5 -55.0 -35.8 -54.3 -35.1 -53.6 -35.1 -52.6 -35.1 -51.6 -35.8 -50.9 -36.5 -50.2 -37.45 -50.2 -38.4 -50.2 -39.1 -50.9 -39.8 -51.6 -39.8 -52.6 -39.8 -53.6 -39.1 -54.3 -38.4 -55.0 -37.45 -55.0 M-7.85 -66.95 Q-8.5 -66.45 -8.5 -65.75 -8.5 -65.05 -7.85 -64.5 -7.25 -64.0 -6.4 -64.0 -5.55 -64.0 -4.9 -64.5 -4.3 -65.05 -4.3 -65.75 -4.3 -66.45 -4.9 -66.95 -5.55 -67.5 -6.4 -67.5 -7.25 -67.5 -7.85 -66.95 M-17.25 -69.0 Q-17.95 -69.0 -18.45 -68.6 -19.0 -68.25 -19.0 -67.75 -19.0 -67.25 -18.45 -66.85 -17.95 -66.5 -17.25 -66.5 -16.55 -66.5 -16.0 -66.85 -15.5 -67.25 -15.5 -67.75 -15.5 -68.25 -16.0 -68.6 L-17.25 -69.0 M-8.5 -59.65 Q-9.15 -58.8 -10.0 -58.25 -10.6 -60.6 -10.35 -60.8 L-8.45 -61.55 -8.05 -61.35 -8.0 -60.45 -8.5 -59.65 M-45.2 -52.1 Q-46.0 -52.9 -47.15 -52.9 -48.3 -52.9 -49.1 -52.1 -49.9 -51.3 -49.9 -50.15 -49.9 -49.0 -49.1 -48.2 -48.3 -47.4 -47.15 -47.4 -46.0 -47.4 -45.2 -48.2 -44.4 -49.0 -44.4 -50.15 -44.4 -51.3 -45.2 -52.1 M-52.3 -40.75 Q-51.85 -41.25 -51.85 -41.95 -51.85 -42.65 -52.3 -43.1 -52.8 -43.6 -53.5 -43.6 -54.2 -43.6 -54.65 -43.1 -55.15 -42.65 -55.15 -41.95 -55.15 -41.25 -54.65 -40.75 -54.2 -40.3 -53.5 -40.3 -52.8 -40.3 -52.3 -40.75 M-27.95 -33.6 Q-28.35 -34.0 -28.35 -34.55 -28.35 -35.1 -27.95 -35.45 -27.6 -35.85 -27.05 -35.85 -26.5 -35.85 -26.1 -35.45 -25.75 -35.1 -25.75 -34.55 -25.75 -34.0 -26.1 -33.6 -26.5 -33.25 -27.05 -33.25 -27.6 -33.25 -27.95 -33.6 M-19.45 -39.25 Q-18.65 -38.45 -18.65 -37.35 -18.65 -36.25 -19.45 -35.45 -20.25 -34.65 -21.35 -34.65 -22.45 -34.65 -23.25 -35.45 -24.05 -36.25 -24.05 -37.35 -24.05 -38.45 -23.25 -39.25 -22.45 -40.05 -21.35 -40.05 -20.25 -40.05 -19.45 -39.25 M31.9 1.2 Q30.9 0.05 29.55 0.05 28.2 0.05 27.25 1.2 26.25 2.3 26.25 3.9 26.25 5.5 27.25 6.65 28.2 7.75 29.55 7.75 30.9 7.75 31.9 6.65 32.85 5.5 32.85 3.9 32.85 2.3 31.9 1.2 M29.95 14.5 Q29.6 14.15 29.1 14.15 28.6 14.15 28.3 14.5 27.95 14.8 27.95 15.3 27.95 15.8 28.3 16.15 L29.1 16.45 Q29.6 16.45 29.95 16.15 L30.25 15.3 29.95 14.5" fill="#cbc8c0" fill-rule="evenodd" stroke="none"/>
    <path d="M20.75 12.85 L21.2 11.8 21.9 13.55 Q22.0 12.6 22.5 12.5 L23.15 13.75 23.4 15.45 Q22.0 18.95 21.65 18.95 21.15 18.95 21.6 18.45 22.0 17.95 21.5 17.95 L19.45 20.25 Q17.5 22.6 17.35 23.25 L17.85 23.85 19.2 23.9 Q27.4 23.9 36.2 15.45 44.65 7.35 44.65 0.85 L44.3 -1.05 43.9 -2.95 45.15 -8.9 44.65 -11.1 Q44.15 -12.85 44.15 -13.35 L45.05 -16.45 Q45.9 -19.75 45.9 -21.05 L44.6 -26.05 45.0 -27.65 45.35 -29.3 Q45.25 -31.2 43.7 -31.2 L42.75 -31.1 42.55 -31.0 42.75 -35.5 Q36.05 -36.9 36.6 -39.85 L37.05 -42.2 Q37.0 -43.55 35.35 -44.45 32.95 -45.75 32.35 -47.4 31.5 -49.6 30.7 -50.4 L29.15 -51.15 Q27.6 -52.0 27.45 -52.5 27.3 -53.0 27.3 -54.2 L27.1 -55.75 Q26.55 -57.1 24.9 -57.55 L21.6 -58.0 Q17.3 -58.45 17.25 -62.4 L12.55 -63.35 Q9.7 -64.2 8.5 -65.4 L6.55 -68.05 Q5.7 -69.25 4.45 -69.25 3.25 -69.25 2.45 -68.45 L1.35 -67.05 Q0.3 -65.85 -2.55 -69.1 L-3.75 -70.7 Q-4.15 -71.3 -4.8 -71.3 L-6.8 -70.55 Q-8.7 -69.8 -9.25 -69.8 -11.25 -69.8 -13.05 -71.0 -14.85 -72.25 -15.75 -72.25 -16.55 -72.25 -19.65 -70.55 -22.8 -68.9 -23.0 -68.9 L-25.05 -69.3 -27.15 -69.75 Q-29.55 -69.75 -31.35 -66.65 -33.25 -63.45 -36.15 -63.15 -41.55 -62.6 -43.15 -60.5 -46.15 -56.65 -47.5 -55.8 L-50.2 -54.5 Q-52.55 -53.1 -52.85 -51.6 -53.15 -49.9 -56.2 -46.45 -59.05 -43.2 -59.05 -41.3 -59.05 -37.5 -54.15 -33.65 -50.0 -30.4 -48.15 -30.4 L-45.55 -30.5 -45.6 -30.05 -46.6 -28.9 Q-49.5 -27.8 -54.85 -31.55 -60.8 -35.7 -60.8 -41.25 -60.8 -43.1 -58.0 -46.5 L-55.2 -49.6 -54.5 -52.9 Q-54.0 -54.9 -53.05 -55.7 L-49.85 -57.5 Q-47.75 -58.6 -47.3 -59.25 -45.25 -62.15 -43.45 -63.05 -41.6 -64.0 -36.2 -64.8 -32.35 -65.4 -31.45 -68.6 -30.65 -71.5 -27.0 -71.5 L-25.0 -71.05 -23.0 -70.65 Q-21.85 -70.65 -19.4 -72.35 -17.0 -74.05 -15.1 -74.05 -14.25 -74.05 -12.75 -72.8 -11.3 -71.55 -10.25 -71.55 -8.7 -71.55 -7.25 -72.3 -5.75 -73.05 -4.85 -73.05 -2.75 -73.05 -1.85 -71.7 L-1.25 -70.4 Q1.45 -70.4 4.45 -71.25 5.9 -71.65 7.85 -70.45 L8.55 -69.35 9.0 -67.85 Q10.05 -65.85 14.9 -65.15 17.8 -64.75 18.7 -63.95 19.7 -63.05 20.25 -60.25 25.65 -59.25 27.25 -58.3 28.4 -57.6 29.15 -55.6 29.9 -53.65 31.05 -52.7 L32.95 -51.55 34.6 -49.05 Q36.1 -46.7 36.9 -46.1 38.4 -45.0 38.9 -42.65 39.15 -40.3 39.35 -39.8 40.0 -38.05 42.65 -37.2 45.0 -36.45 45.0 -35.4 L44.4 -32.7 Q44.55 -32.25 45.9 -31.15 47.1 -30.2 47.1 -29.4 L46.75 -27.7 46.35 -26.05 47.0 -24.1 Q47.6 -22.25 47.6 -21.1 47.6 -19.55 46.75 -17.1 45.9 -14.6 45.9 -13.25 L46.35 -11.0 46.75 -8.8 Q46.75 -7.4 45.5 -3.15 L45.9 -1.15 46.25 0.85 Q46.25 2.5 45.4 5.25 44.0 9.55 41.05 13.65 L37.95 15.4 Q35.05 17.0 34.2 18.9 33.2 21.1 28.7 23.35 23.9 25.75 19.75 25.75 17.8 25.75 16.6 25.15 15.35 24.5 15.35 23.3 15.35 22.65 17.5 19.6 L20.2 15.95 21.9 13.75 20.75 12.85" fill="#97877d" fill-rule="evenodd" stroke="none"/>
  </g>
</svg>
