<?xml version="1.0" encoding="UTF-8" standalone="no"?>
<svg xmlns:ffdec="https://www.free-decompiler.com/flash" xmlns:xlink="http://www.w3.org/1999/xlink" ffdec:objectType="shape" height="43.95px" width="43.15px" xmlns="http://www.w3.org/2000/svg">
  <g transform="matrix(1.0, 0.0, 0.0, 1.0, 22.35, 8.6)">
    <path d="M-7.75 21.15 L-7.55 21.25 -7.8 21.25 -7.75 21.15" fill="#724931" fill-rule="evenodd" stroke="none"/>
    <path d="M8.5 7.25 L8.8 7.4 8.5 7.45 8.5 7.25 M10.65 18.2 L10.65 18.15 10.65 18.2" fill="#4b3121" fill-rule="evenodd" stroke="none"/>
    <path d="M-7.25 -1.3 L-6.25 -0.35 Q-7.5 1.95 -19.75 12.95 -20.7 14.0 -20.7 15.6 -20.7 19.05 -20.05 22.0 -19.2 26.1 -17.35 27.2 L-17.3 27.2 -14.35 28.15 -12.15 28.7 Q-10.9 28.7 -10.05 24.65 -8.9 19.55 -7.95 18.05 -6.7 16.65 -6.4 15.95 -5.85 14.65 -5.85 11.8 -5.85 9.75 -7.85 9.75 -10.4 9.75 -13.6 13.0 -17.1 16.6 -17.75 21.1 L-17.9 21.05 -18.0 21.1 -17.9 20.8 -17.5 18.1 -17.15 15.35 Q-17.15 14.8 -17.85 14.45 L-18.95 13.85 -18.0 13.8 -16.45 13.85 -13.1 11.0 Q-10.0 8.1 -7.85 8.1 L-6.35 8.5 -4.9 8.9 Q-3.0 8.9 0.95 7.55 L8.5 7.25 8.5 7.45 Q3.3 7.45 -0.35 10.35 -4.05 13.2 -4.05 17.3 L-2.55 18.85 1.5 19.35 10.65 18.15 10.65 18.2 Q13.25 17.45 15.65 16.05 19.05 14.0 19.05 11.9 19.05 9.25 4.7 -0.2 L7.05 -0.8 Q10.9 -0.3 16.15 5.65 20.8 10.9 20.8 12.25 20.8 14.15 18.85 16.25 16.7 18.55 14.0 18.85 15.15 22.2 16.3 23.95 16.75 24.6 16.75 26.8 16.75 27.85 14.35 30.15 11.15 33.2 7.05 33.2 L5.2 32.85 3.3 32.45 Q2.55 32.45 0.45 33.9 -1.65 35.35 -2.45 35.35 -6.95 35.35 -9.25 33.85 -11.5 32.4 -11.1 30.0 -18.4 29.05 -20.05 27.4 -22.35 25.05 -22.35 16.1 -22.35 12.85 -18.4 9.25 -9.75 1.45 -7.25 -1.3 M-3.55 33.65 Q-0.55 33.85 1.0 32.55 2.05 31.65 2.05 30.95 L1.95 23.6 Q1.7 21.35 0.3 20.85 -1.45 20.2 -3.25 19.25 -4.2 18.75 -5.0 18.75 L-6.15 19.65 -7.75 21.15 -7.8 21.25 Q-8.15 21.7 -8.7 24.15 -9.4 27.15 -9.4 29.55 -9.4 31.05 -8.3 32.15 -6.75 33.75 -3.55 33.65 M8.35 20.45 L7.1 20.65 3.75 21.0 3.6 22.2 3.4 23.55 3.7 31.0 5.45 31.3 7.65 31.5 Q11.45 30.55 12.4 29.45 14.35 27.85 15.05 26.55 L15.05 26.45 12.4 19.5 12.35 19.45 8.35 20.45" fill="#6c3d28" fill-rule="evenodd" stroke="none"/>
    <path d="M-6.25 -0.35 L-5.2 -0.15 Q-4.85 -0.15 -4.1 -0.75 L-3.05 -1.95 -2.05 -0.75 Q-1.2 0.0 -0.5 0.0 L0.05 0.85 Q-4.75 0.2 -7.1 2.1 -8.4 3.1 -9.3 4.9 L-8.4 4.75 Q-6.7 4.65 -3.5 5.65 L-0.6 6.65 5.95 4.7 Q7.7 4.7 10.05 6.7 12.3 8.6 12.3 9.7 12.3 10.95 11.05 11.2 L7.55 11.35 Q1.15 11.8 -4.05 17.3 -4.05 13.2 -0.35 10.35 3.3 7.45 8.5 7.45 L8.8 7.4 8.5 7.25 0.95 7.55 Q-3.0 8.9 -4.9 8.9 L-6.35 8.5 -7.85 8.1 Q-10.0 8.1 -13.1 11.0 L-16.45 13.85 -18.0 13.8 -18.95 13.85 -17.85 14.45 Q-17.15 14.8 -17.15 15.35 L-17.5 18.1 -17.9 20.8 -18.0 21.1 -17.9 21.05 -17.75 21.1 Q-17.1 16.6 -13.6 13.0 -10.4 9.75 -7.85 9.75 -5.85 9.75 -5.85 11.8 -5.85 14.65 -6.4 15.95 -6.7 16.65 -7.95 18.05 -8.65 15.55 -9.05 14.75 -9.65 13.55 -11.15 13.55 -12.5 13.55 -13.25 14.35 -13.8 14.9 -13.8 15.35 -13.8 17.8 -14.75 19.5 -15.5 20.9 -17.7 23.1 L-18.8 20.9 -18.8 20.8 -19.65 17.4 -20.2 14.7 -20.1 13.75 -19.75 12.95 Q-7.5 1.95 -6.25 -0.35 M-7.75 21.15 L-6.15 19.65 -5.0 18.75 Q-4.2 18.75 -3.25 19.25 -1.45 20.2 0.3 20.85 1.7 21.35 1.95 23.6 L2.05 30.95 Q2.05 31.65 1.0 32.55 -0.55 33.85 -3.55 33.65 -2.35 32.3 -1.2 29.5 -0.25 27.25 -0.25 26.85 -0.25 25.1 -1.55 23.45 -3.55 20.95 -7.55 21.25 L-7.75 21.15 M7.65 31.5 Q10.35 29.5 11.55 27.25 12.25 25.9 12.25 24.95 12.25 23.55 10.95 22.15 9.75 20.85 8.35 20.45 L12.35 19.45 12.4 19.5 15.05 26.45 15.05 26.55 Q14.35 27.85 12.4 29.45 11.45 30.55 7.65 31.5" fill="#e7964e" fill-rule="evenodd" stroke="none"/>
    <path d="M-0.5 0.0 L1.4 -1.4 2.1 -1.2 Q2.55 -0.8 3.5 -0.45 L4.7 -0.2 Q19.05 9.25 19.05 11.9 19.05 14.0 15.65 16.05 13.25 17.45 10.65 18.2 L10.65 18.15 1.5 19.35 -2.55 18.85 -4.05 17.3 Q1.15 11.8 7.55 11.35 L11.05 11.2 Q12.3 10.95 12.3 9.7 12.3 8.6 10.05 6.7 7.7 4.7 5.95 4.7 L-0.6 6.65 -3.5 5.65 Q-6.7 4.65 -8.4 4.75 L-9.3 4.9 Q-8.4 3.1 -7.1 2.1 -4.75 0.2 0.05 0.85 L-0.5 0.0 M-7.55 21.25 Q-3.55 20.95 -1.55 23.45 -0.25 25.1 -0.25 26.85 -0.25 27.25 -1.2 29.5 -2.35 32.3 -3.55 33.65 -6.75 33.75 -8.3 32.15 -9.4 31.05 -9.4 29.55 -9.4 27.15 -8.7 24.15 -8.15 21.7 -7.8 21.25 L-7.55 21.25 M7.65 31.5 L5.45 31.3 3.7 31.0 3.4 23.55 3.6 22.2 3.75 21.0 7.1 20.65 8.35 20.45 Q9.75 20.85 10.95 22.15 12.25 23.55 12.25 24.95 12.25 25.9 11.55 27.25 10.35 29.5 7.65 31.5 M-19.75 12.95 L-20.1 13.75 -20.2 14.7 -19.65 17.4 -18.8 20.8 -18.8 20.9 -17.7 23.1 Q-15.5 20.9 -14.75 19.5 -13.8 17.8 -13.8 15.35 -13.8 14.9 -13.25 14.35 -12.5 13.55 -11.15 13.55 -9.65 13.55 -9.05 14.75 -8.65 15.55 -7.95 18.05 -8.9 19.55 -10.05 24.65 -10.9 28.7 -12.15 28.7 L-14.35 28.15 -17.3 27.2 -17.35 27.2 Q-19.2 26.1 -20.05 22.0 -20.7 19.05 -20.7 15.6 -20.7 14.0 -19.75 12.95" fill="#eaa76a" fill-rule="evenodd" stroke="none"/>
    <path d="M7.2 -6.85 Q7.75 -6.15 8.0 -3.2 L7.3 -2.05 6.85 -6.2 5.95 -6.1 5.15 -7.25 Q6.7 -7.5 7.2 -6.85 M5.0 -6.75 Q5.5 -6.5 5.5 -3.35 5.5 -2.4 4.7 -1.4 L4.45 -5.5 Q4.9 -5.65 3.9 -5.65 3.3 -5.65 3.35 -4.95 L3.7 -1.2 Q3.15 -1.35 2.65 -2.25 2.1 -3.25 2.1 -4.45 2.15 -6.4 3.4 -7.0 4.15 -6.55 5.0 -6.75 M0.3 -6.05 Q0.9 -5.35 0.9 -4.25 L0.55 -2.9 Q0.15 -1.65 -0.25 -1.1 L-0.55 -4.7 Q-0.7 -5.4 -1.05 -5.5 L-1.55 -5.25 -1.25 -1.15 -1.8 -1.7 Q-2.4 -2.9 -2.4 -3.9 L-2.5 -5.35 Q-2.5 -6.1 -1.9 -6.1 -1.3 -6.1 -1.2 -6.4 L-0.8 -6.9 0.3 -6.05 M-5.5 -6.6 L-5.1 -7.05 Q-3.4 -6.45 -3.75 -4.2 -4.05 -2.4 -5.0 -1.25 L-5.05 -4.85 Q-5.1 -5.55 -5.45 -5.65 L-6.0 -5.5 -5.95 -1.35 -6.6 -2.6 -6.9 -4.2 -6.95 -5.65 Q-6.9 -6.35 -6.25 -6.35 -5.7 -6.35 -5.5 -6.6" fill="#e4dbc9" fill-rule="evenodd" stroke="none"/>
    <path d="M7.2 -6.85 Q6.7 -7.5 5.15 -7.25 L5.95 -6.1 6.85 -6.2 7.3 -2.05 8.0 -3.2 Q7.75 -6.15 7.2 -6.85 M-7.25 -1.3 L-7.6 -2.45 -7.9 -4.25 Q-7.9 -5.75 -7.05 -6.9 -6.2 -8.05 -5.05 -8.05 -4.3 -8.05 -3.65 -7.3 L-2.9 -6.25 -0.8 -7.9 Q-0.1 -7.9 0.6 -7.2 L1.4 -6.25 Q3.0 -7.95 3.55 -7.95 L4.7 -8.25 5.85 -8.6 Q6.7 -8.6 7.65 -7.7 9.0 -6.5 9.0 -4.4 9.0 -1.6 7.05 -0.8 L4.7 -0.2 3.5 -0.45 Q2.55 -0.8 2.1 -1.2 L1.4 -1.4 -0.5 0.0 Q-1.2 0.0 -2.05 -0.75 L-3.05 -1.95 -4.1 -0.75 Q-4.85 -0.15 -5.2 -0.15 L-6.25 -0.35 -7.25 -1.3 M5.0 -6.75 Q4.15 -6.55 3.4 -7.0 2.15 -6.4 2.1 -4.45 2.1 -3.25 2.65 -2.25 3.15 -1.35 3.7 -1.2 L3.35 -4.95 Q3.3 -5.65 3.9 -5.65 4.9 -5.65 4.45 -5.5 L4.7 -1.4 Q5.5 -2.4 5.5 -3.35 5.5 -6.5 5.0 -6.75 M0.3 -6.05 L-0.8 -6.9 -1.2 -6.4 Q-1.3 -6.1 -1.9 -6.1 -2.5 -6.1 -2.5 -5.35 L-2.4 -3.9 Q-2.4 -2.9 -1.8 -1.7 L-1.25 -1.15 -1.55 -5.25 -1.05 -5.5 Q-0.7 -5.4 -0.55 -4.7 L-0.25 -1.1 Q0.15 -1.65 0.55 -2.9 L0.9 -4.25 Q0.9 -5.35 0.3 -6.05 M-5.5 -6.6 Q-5.7 -6.35 -6.25 -6.35 -6.9 -6.35 -6.95 -5.65 L-6.9 -4.2 -6.6 -2.6 -5.95 -1.35 -6.0 -5.5 -5.45 -5.65 Q-5.1 -5.55 -5.05 -4.85 L-5.0 -1.25 Q-4.05 -2.4 -3.75 -4.2 -3.4 -6.45 -5.1 -7.05 L-5.5 -6.6" fill="#846b37" fill-rule="evenodd" stroke="none"/>
  </g>
</svg>
