<?xml version="1.0" encoding="UTF-8" standalone="no"?>
<svg xmlns:ffdec="https://www.free-decompiler.com/flash" xmlns:xlink="http://www.w3.org/1999/xlink" ffdec:objectType="shape" height="47.2px" width="53.0px" xmlns="http://www.w3.org/2000/svg">
  <g transform="matrix(1.0, 0.0, 0.0, 1.0, 29.45, 3.55)">
    <path d="M1.9 -3.35 L3.45 0.5 Q5.0 4.05 8.4 6.55 13.55 10.35 16.85 14.55 19.7 18.15 19.95 20.35 19.75 21.9 18.95 21.95 17.3 20.9 15.2 18.65 L13.1 16.3 11.5 13.55 10.3 12.7 9.8 13.05 9.85 13.35 7.05 11.75 10.35 19.85 Q12.8 25.8 12.8 27.6 12.8 30.55 11.7 31.9 11.05 32.75 10.25 32.75 9.2 32.75 4.1 17.75 L4.0 17.45 2.55 15.95 Q0.9 17.6 0.9 18.95 0.9 20.8 1.85 24.35 2.75 27.9 2.75 30.1 2.75 34.65 -0.25 36.85 -2.1 38.25 -3.75 38.25 -4.4 38.2 -5.05 37.45 -6.3 36.0 -6.3 32.75 -6.3 31.2 -5.1 27.25 -3.95 23.3 -3.95 19.8 -3.95 17.1 -5.8 14.65 -7.55 12.35 -9.25 12.35 L-11.1 12.7 Q-12.75 13.55 -15.8 16.45 -17.95 18.45 -20.05 18.45 -22.45 18.45 -22.45 15.9 -22.45 13.2 -20.15 11.3 -18.8 10.25 -14.7 8.3 -5.95 4.05 -3.7 -1.75 L-0.8 -3.15 1.9 -3.35" fill="#f1ba87" fill-rule="evenodd" stroke="none"/>
    <path d="M13.1 16.3 Q16.35 23.35 19.45 23.35 L20.9 23.0 Q21.7 22.45 21.7 20.75 21.7 16.8 13.3 6.8 7.15 -0.55 4.4 -2.9 L3.95 -3.55 Q5.8 -3.4 7.75 -1.2 L17.95 9.95 Q21.15 13.2 22.6 16.7 23.55 18.95 23.55 20.4 23.55 22.5 22.35 23.8 21.15 25.1 19.25 25.1 16.6 24.4 15.4 23.45 17.2 29.9 14.5 34.95 12.0 39.65 7.8 39.65 6.45 39.65 5.85 37.35 5.45 35.8 5.15 31.15 L5.1 32.55 Q4.15 38.15 1.85 40.85 -0.6 43.65 -4.75 43.65 -9.6 43.65 -9.6 36.05 L-8.7 29.35 Q-6.95 21.55 -6.95 20.5 -6.95 18.55 -7.95 16.9 -8.95 15.35 -10.0 15.35 -10.5 15.35 -14.15 19.55 -18.4 23.75 -21.8 23.75 -24.75 23.75 -27.0 22.25 -29.45 20.65 -29.45 18.3 -29.45 16.2 -27.55 13.4 -24.6 9.0 -18.5 6.95 -11.0 4.45 -8.25 1.15 -5.65 -2.0 -1.15 -3.35 -0.75 -3.25 -0.8 -3.15 L-3.7 -1.75 -7.6 2.25 Q-11.1 5.6 -12.9 6.55 -21.5 11.05 -23.55 12.45 -27.6 15.2 -27.6 17.75 -27.6 19.3 -26.2 20.6 -24.7 22.0 -22.7 22.0 L-20.8 21.7 -18.65 20.85 -10.1 13.55 Q-8.65 13.55 -7.1 15.1 -5.1 17.15 -5.1 20.45 L-6.3 28.7 -7.55 36.9 Q-7.55 39.9 -6.65 41.05 -6.0 41.9 -4.6 41.9 -1.55 41.9 0.7 39.3 3.55 36.0 3.55 29.5 3.55 23.05 2.85 19.2 2.7 18.5 2.9 18.3 L4.0 17.45 4.1 17.75 7.35 37.05 7.55 37.2 Q7.95 37.75 8.85 37.8 11.2 37.1 12.75 34.0 14.1 31.35 14.1 28.85 14.1 26.45 13.35 23.55 12.4 19.7 9.85 13.35 L9.8 13.05 10.3 12.7 11.5 13.55 13.1 16.3" fill="#6c3d28" fill-rule="evenodd" stroke="none"/>
    <path d="M1.9 -3.35 L4.4 -2.9 Q7.15 -0.55 13.3 6.8 21.7 16.8 21.7 20.75 21.7 22.45 20.9 23.0 L19.45 23.35 Q16.35 23.35 13.1 16.3 L15.2 18.65 Q17.3 20.9 18.95 21.95 19.75 21.9 19.95 20.35 19.7 18.15 16.85 14.55 13.55 10.35 8.4 6.55 5.0 4.05 3.45 0.5 L1.9 -3.35 M-3.7 -1.75 Q-5.95 4.05 -14.7 8.3 -18.8 10.25 -20.15 11.3 -22.45 13.2 -22.45 15.9 -22.45 18.45 -20.05 18.45 -17.95 18.45 -15.8 16.45 -12.75 13.55 -11.1 12.7 L-9.25 12.35 Q-7.55 12.35 -5.8 14.65 -3.95 17.1 -3.95 19.8 -3.95 23.3 -5.1 27.25 -6.3 31.2 -6.3 32.75 -6.3 36.0 -5.05 37.45 -4.4 38.2 -3.75 38.25 -2.1 38.25 -0.25 36.85 2.75 34.65 2.75 30.1 2.75 27.9 1.85 24.35 0.9 20.8 0.9 18.95 0.9 17.6 2.55 15.95 L4.0 17.45 2.9 18.3 Q2.7 18.5 2.85 19.2 3.55 23.05 3.55 29.5 3.55 36.0 0.7 39.3 -1.55 41.9 -4.6 41.9 -6.0 41.9 -6.65 41.05 -7.55 39.9 -7.55 36.9 L-6.3 28.7 -5.1 20.45 Q-5.1 17.15 -7.1 15.1 -8.65 13.55 -10.1 13.55 L-18.65 20.85 -20.8 21.7 -22.7 22.0 Q-24.7 22.0 -26.2 20.6 -27.6 19.3 -27.6 17.75 -27.6 15.2 -23.55 12.45 -21.5 11.05 -12.9 6.55 -11.1 5.6 -7.6 2.25 L-3.7 -1.75 M4.1 17.75 Q9.2 32.75 10.25 32.75 11.05 32.75 11.7 31.9 12.8 30.55 12.8 27.6 12.8 25.8 10.35 19.85 L7.05 11.75 9.85 13.35 Q12.4 19.7 13.35 23.55 14.1 26.45 14.1 28.85 14.1 31.35 12.75 34.0 11.2 37.1 8.85 37.8 7.95 37.75 7.55 37.2 L7.35 37.05 4.1 17.75" fill="#db9c64" fill-rule="evenodd" stroke="none"/>
  </g>
</svg>
