<?xml version="1.0" encoding="UTF-8" standalone="no"?>
<svg xmlns:ffdec="https://www.free-decompiler.com/flash" xmlns:xlink="http://www.w3.org/1999/xlink" ffdec:objectType="shape" height="38.7px" width="43.1px" xmlns="http://www.w3.org/2000/svg">
  <g transform="matrix(1.0, 0.0, 0.0, 1.0, 22.45, 3.35)">
    <path d="M4.05 -0.55 L4.6 -0.25 4.65 -0.25 Q7.2 0.95 12.7 5.25 19.05 10.3 19.05 12.25 19.05 13.85 16.95 15.55 14.5 17.45 10.65 18.15 L3.3 19.35 -2.65 19.0 Q-3.0 18.2 -4.05 17.3 -1.6 14.3 4.9 12.45 11.4 10.6 12.25 9.5 12.35 8.15 10.1 6.45 7.85 4.7 5.8 4.7 L2.6 5.7 Q-0.1 6.65 -0.6 6.65 -5.95 5.0 -8.4 4.75 L-9.2 4.55 Q-7.8 2.6 -6.7 1.85 -4.85 0.55 0.05 0.85 L-0.6 -0.3 Q-1.55 -1.5 -2.75 -1.65 2.0 -1.8 4.05 -0.55 M-17.9 14.95 L-17.15 15.35 -17.6 16.95 -17.9 14.95 M-6.5 15.85 L-6.5 16.25 -7.05 17.05 -6.5 15.85 M-7.95 18.05 L-9.55 23.0 Q-10.95 27.75 -11.0 28.7 -16.8 28.2 -18.1 27.1 -20.8 24.75 -20.8 15.65 -20.8 14.55 -19.75 12.95 L-20.1 16.05 Q-20.1 18.1 -19.0 20.5 L-17.7 23.1 -15.75 19.2 Q-13.85 15.2 -14.0 14.95 L-12.9 14.0 Q-12.45 13.65 -11.85 13.65 -9.6 13.65 -7.95 18.05 M-19.5 12.7 L-16.75 10.2 -17.6 11.35 Q-18.6 12.5 -19.5 12.7 M7.65 31.5 L3.7 31.4 3.3 24.15 Q3.3 22.6 3.8 21.85 4.9 20.1 8.35 20.45 9.5 20.85 10.6 21.75 12.1 23.0 12.1 24.4 12.1 25.35 11.05 27.1 9.85 29.1 7.65 31.5 M14.2 24.6 L15.05 26.5 13.6 28.45 Q14.45 26.2 14.2 24.6 M0.3 20.9 L0.95 21.5 1.45 23.45 0.3 20.9 M1.9 28.25 L2.05 30.8 1.85 30.05 1.9 28.25 M-3.55 33.65 Q-7.35 33.6 -8.55 31.7 -9.2 30.6 -9.2 27.65 L-8.5 24.1 -7.8 21.25 Q-4.45 21.9 -2.8 22.85 -0.2 24.4 -0.2 27.3 L-1.15 29.75 Q-2.3 32.3 -3.55 33.65" fill="#f1ba87" fill-rule="evenodd" stroke="none"/>
    <path d="M-4.05 17.3 Q-3.0 18.2 -2.65 19.0 L3.3 19.35 10.65 18.15 Q14.5 17.45 16.95 15.55 19.05 13.85 19.05 12.25 19.05 10.3 12.7 5.25 7.2 0.95 4.65 -0.25 L4.6 -0.25 4.05 -0.55 2.5 -2.85 Q10.65 -0.1 16.4 6.05 20.65 10.6 20.65 12.25 20.65 14.3 18.8 16.2 16.85 18.2 14.0 18.85 L16.0 24.65 16.4 25.45 16.75 27.05 Q16.75 28.3 13.85 30.6 10.6 33.2 7.55 33.2 L4.5 33.15 Q2.8 33.25 1.7 34.1 1.05 34.6 -0.7 35.0 L-3.85 35.35 -5.8 35.1 -7.4 34.7 Q-9.65 33.6 -10.6 31.75 L-11.2 30.1 Q-16.05 30.1 -18.1 28.65 -22.45 25.55 -22.45 15.45 -22.45 13.2 -21.35 12.2 L-15.4 6.45 Q-8.85 -0.95 -7.05 -2.0 -5.35 -2.15 -3.15 -3.3 L-6.8 0.25 Q-8.45 1.8 -10.7 4.65 -12.25 6.65 -16.75 10.2 L-19.5 12.7 -19.75 12.95 Q-20.8 14.55 -20.8 15.65 -20.8 24.75 -18.1 27.1 -16.8 28.2 -11.0 28.7 -10.95 27.75 -9.55 23.0 L-7.95 18.05 -7.05 17.05 -6.5 16.25 -6.5 15.85 -6.3 13.5 -6.1 11.35 Q-6.1 10.75 -6.25 10.4 L-6.4 10.15 -7.85 9.85 Q-10.55 9.8 -13.6 13.15 -16.85 16.7 -17.9 21.65 -18.15 20.6 -17.6 16.95 L-17.15 15.35 -17.9 14.95 -18.75 13.7 -16.45 13.85 Q-16.05 13.85 -13.35 10.95 -10.65 8.05 -6.6 8.05 -6.1 8.05 -5.25 8.5 L-3.9 8.95 5.75 6.8 7.5 7.05 8.65 7.35 Q0.35 8.25 -3.0 11.2 -4.85 12.8 -4.85 14.7 -4.85 15.7 -4.05 17.3 M8.35 20.45 Q4.9 20.1 3.8 21.85 3.3 22.6 3.3 24.15 L3.7 31.4 7.65 31.5 Q9.35 31.45 10.85 30.55 L13.6 28.45 15.05 26.5 14.2 24.6 12.4 19.5 12.35 19.4 8.35 20.45 M0.3 20.9 L0.3 20.85 Q-1.8 20.5 -3.3 19.6 -4.6 18.75 -5.0 18.75 L-6.35 19.6 -7.8 21.25 -8.5 24.1 -9.2 27.65 Q-9.2 30.6 -8.55 31.7 -7.35 33.6 -3.55 33.65 -1.25 33.65 0.4 32.85 2.05 32.0 2.05 30.8 L1.9 28.25 1.45 23.45 0.95 21.5 0.3 20.9" fill="#6c3d28" fill-rule="evenodd" stroke="none"/>
    <path d="M-4.05 17.3 Q-4.85 15.7 -4.85 14.7 -4.85 12.8 -3.0 11.2 0.35 8.25 8.65 7.35 L7.5 7.05 5.75 6.8 -3.9 8.95 -5.25 8.5 Q-6.1 8.05 -6.6 8.05 -10.65 8.05 -13.35 10.95 -16.05 13.85 -16.45 13.85 L-18.75 13.7 -17.9 14.95 -17.6 16.95 Q-18.15 20.6 -17.9 21.65 -16.85 16.7 -13.6 13.15 -10.55 9.8 -7.85 9.85 L-6.4 10.15 -6.25 10.4 Q-6.1 10.75 -6.1 11.35 L-6.3 13.5 -6.5 15.85 -7.05 17.05 -7.95 18.05 Q-9.6 13.65 -11.85 13.65 -12.45 13.65 -12.9 14.0 L-14.0 14.95 Q-13.85 15.2 -15.75 19.2 L-17.7 23.1 -19.0 20.5 Q-20.1 18.1 -20.1 16.05 L-19.75 12.95 -19.5 12.7 Q-18.6 12.5 -17.6 11.35 L-16.75 10.2 Q-12.25 6.65 -10.7 4.65 -8.45 1.8 -6.8 0.25 L-3.15 -3.3 2.5 -2.85 4.05 -0.55 Q2.0 -1.8 -2.75 -1.65 -1.55 -1.5 -0.6 -0.3 L0.05 0.85 Q-4.85 0.55 -6.7 1.85 -7.8 2.6 -9.2 4.55 L-8.4 4.75 Q-5.95 5.0 -0.6 6.65 -0.1 6.65 2.6 5.7 L5.8 4.7 Q7.85 4.7 10.1 6.45 12.35 8.15 12.25 9.5 11.4 10.6 4.9 12.45 -1.6 14.3 -4.05 17.3 M8.35 20.45 L12.35 19.4 12.4 19.5 14.2 24.6 Q14.45 26.2 13.6 28.45 L10.85 30.55 Q9.35 31.45 7.65 31.5 9.85 29.1 11.05 27.1 12.1 25.35 12.1 24.4 12.1 23.0 10.6 21.75 9.5 20.85 8.35 20.45 M-7.8 21.25 L-6.35 19.6 -5.0 18.75 Q-4.6 18.75 -3.3 19.6 -1.8 20.5 0.3 20.85 L0.3 20.9 1.45 23.45 1.9 28.25 1.85 30.05 2.05 30.8 Q2.05 32.0 0.4 32.85 -1.25 33.65 -3.55 33.65 -2.3 32.3 -1.15 29.75 L-0.2 27.3 Q-0.2 24.4 -2.8 22.85 -4.45 21.9 -7.8 21.25" fill="#db9c64" fill-rule="evenodd" stroke="none"/>
  </g>
</svg>
