<?xml version="1.0" encoding="UTF-8" standalone="no"?>
<svg xmlns:ffdec="https://www.free-decompiler.com/flash" xmlns:xlink="http://www.w3.org/1999/xlink" ffdec:objectType="shape" height="23.75px" width="23.15px" xmlns="http://www.w3.org/2000/svg">
  <g transform="matrix(1.0, 0.0, 0.0, 1.0, -5.0, 7.55)">
    <path d="M5.35 5.2 L6.8 13.3 6.45 12.85 Q5.55 17.0 5.0 10.25 L5.35 5.2" fill="#17110d" fill-rule="evenodd" stroke="none"/>
    <path d="M21.15 -0.6 L20.5 -0.3 20.2 0.3 20.5 0.95 21.15 1.2 21.85 0.95 22.1 0.3 21.85 -0.3 Q21.55 -0.6 21.15 -0.6 M24.85 -1.55 Q24.85 -1.25 24.65 -1.05 L24.15 -0.85 Q23.85 -0.85 23.65 -1.05 L23.45 -1.55 23.65 -2.05 24.15 -2.25 24.65 -2.05 24.85 -1.55 M6.55 3.65 Q8.85 2.3 14.85 0.4 21.3 -1.65 22.5 -2.25 L23.9 1.45 24.4 3.05 Q24.4 5.6 23.65 6.4 22.45 7.65 18.45 7.65 17.65 7.65 17.5 8.55 17.4 9.05 17.45 9.6 16.8 11.25 9.8 12.95 9.3 12.95 8.05 10.45 6.4 7.25 6.55 3.65 M25.65 4.6 L25.85 5.05 25.65 5.5 25.2 5.7 Q24.95 5.7 24.75 5.5 L24.55 5.05 24.75 4.6 Q24.95 4.4 25.2 4.4 L25.65 4.6 M22.4 5.2 Q22.2 4.95 21.9 4.95 21.6 4.95 21.4 5.2 L21.2 5.7 21.4 6.25 21.9 6.45 Q22.2 6.45 22.4 6.25 L22.6 5.7 22.4 5.2 M18.75 2.65 Q18.4 2.65 18.15 2.95 17.9 3.2 17.9 3.55 L18.15 4.2 18.75 4.45 19.35 4.2 19.6 3.55 19.35 2.95 Q19.1 2.65 18.75 2.65 M13.3 2.5 Q12.9 2.85 12.9 3.4 12.9 3.95 13.3 4.35 13.65 4.7 14.2 4.7 L15.15 4.35 Q15.5 3.95 15.5 3.4 15.5 2.85 15.15 2.5 14.75 2.1 14.2 2.1 13.65 2.1 13.3 2.5 M10.35 4.5 Q9.95 4.05 9.45 4.05 8.95 4.05 8.6 4.5 8.2 4.95 8.2 5.55 8.2 6.15 8.6 6.6 8.95 7.05 9.45 7.05 9.95 7.05 10.35 6.6 L10.7 5.55 Q10.7 4.95 10.35 4.5 M13.3 5.9 Q12.9 5.9 12.6 6.2 12.3 6.45 12.3 6.85 12.3 7.25 12.6 7.55 L13.3 7.8 14.0 7.55 14.3 6.85 14.0 6.2 Q13.7 5.9 13.3 5.9 M10.35 8.3 Q10.05 8.0 9.7 8.0 9.35 8.0 9.1 8.3 8.8 8.55 8.8 8.95 8.8 9.35 9.1 9.65 L9.7 9.9 10.35 9.65 10.6 8.95 10.35 8.3 M12.4 10.1 L12.6 10.55 Q12.75 10.75 13.0 10.75 L13.45 10.55 13.6 10.1 13.45 9.65 13.0 9.45 Q12.75 9.45 12.6 9.65 L12.4 10.1 M17.15 6.3 L16.7 6.1 16.25 6.3 16.05 6.75 16.25 7.2 16.7 7.4 Q16.95 7.4 17.15 7.2 L17.35 6.75 17.15 6.3" fill="#6f3c15" fill-rule="evenodd" stroke="none"/>
    <path d="M5.35 5.2 Q6.1 2.05 8.95 0.75 10.45 0.1 14.75 -0.55 18.65 -1.15 20.35 -2.2 23.0 -3.8 23.5 -7.55 L24.35 -6.8 Q25.5 -5.65 26.85 -1.4 28.15 2.75 28.15 5.05 28.15 6.1 27.6 6.9 26.5 8.4 23.15 10.5 L14.9 14.7 10.4 16.2 Q9.15 16.4 7.85 14.9 L6.8 13.3 5.35 5.2 M6.55 3.65 Q5.65 6.35 7.15 11.0 8.35 14.8 8.9 15.25 20.55 10.45 23.45 8.65 26.45 6.75 26.45 4.0 L25.85 -0.6 24.8 -4.65 Q24.5 -3.8 23.55 -3.0 L22.5 -2.25 Q21.3 -1.65 14.85 0.4 8.85 2.3 6.55 3.65" fill="#2e1908" fill-rule="evenodd" stroke="none"/>
    <path d="M21.15 -0.6 Q21.55 -0.6 21.85 -0.3 L22.1 0.3 21.85 0.95 21.15 1.2 20.5 0.95 20.2 0.3 20.5 -0.3 21.15 -0.6 M10.35 8.3 L10.6 8.95 10.35 9.65 9.7 9.9 9.1 9.65 Q8.8 9.35 8.8 8.95 8.8 8.55 9.1 8.3 9.35 8.0 9.7 8.0 10.05 8.0 10.35 8.3 M13.3 5.9 Q13.7 5.9 14.0 6.2 L14.3 6.85 14.0 7.55 13.3 7.8 12.6 7.55 Q12.3 7.25 12.3 6.85 12.3 6.45 12.6 6.2 12.9 5.9 13.3 5.9 M10.35 4.5 Q10.7 4.95 10.7 5.55 L10.35 6.6 Q9.95 7.05 9.45 7.05 8.95 7.05 8.6 6.6 8.2 6.15 8.2 5.55 8.2 4.95 8.6 4.5 8.95 4.05 9.45 4.05 9.95 4.05 10.35 4.5 M13.3 2.5 Q13.65 2.1 14.2 2.1 14.75 2.1 15.15 2.5 15.5 2.85 15.5 3.4 15.5 3.95 15.15 4.35 L14.2 4.7 Q13.65 4.7 13.3 4.35 12.9 3.95 12.9 3.4 12.9 2.85 13.3 2.5 M18.75 2.65 Q19.1 2.65 19.35 2.95 L19.6 3.55 19.35 4.2 18.75 4.45 18.15 4.2 17.9 3.55 Q17.9 3.2 18.15 2.95 18.4 2.65 18.75 2.65 M17.15 6.3 L17.35 6.75 17.15 7.2 Q16.95 7.4 16.7 7.4 L16.25 7.2 16.05 6.75 16.25 6.3 16.7 6.1 17.15 6.3" fill="#95501b" fill-rule="evenodd" stroke="none"/>
    <path d="M24.85 -1.55 L24.65 -2.05 24.15 -2.25 23.65 -2.05 23.45 -1.55 23.65 -1.05 Q23.85 -0.85 24.15 -0.85 L24.65 -1.05 Q24.85 -1.25 24.85 -1.55 M22.5 -2.25 L23.55 -3.0 Q24.5 -3.8 24.8 -4.65 L25.85 -0.6 26.45 4.0 Q26.45 6.75 23.45 8.65 20.55 10.45 8.9 15.25 8.35 14.8 7.15 11.0 5.65 6.35 6.55 3.65 6.4 7.25 8.05 10.45 9.3 12.95 9.8 12.95 16.8 11.25 17.45 9.6 17.4 9.05 17.5 8.55 17.65 7.65 18.45 7.65 22.45 7.65 23.65 6.4 24.4 5.6 24.4 3.05 L23.9 1.45 22.5 -2.25 M25.65 4.6 L25.2 4.4 Q24.95 4.4 24.75 4.6 L24.55 5.05 24.75 5.5 Q24.95 5.7 25.2 5.7 L25.65 5.5 25.85 5.05 25.65 4.6 M22.4 5.2 L22.6 5.7 22.4 6.25 Q22.2 6.45 21.9 6.45 L21.4 6.25 21.2 5.7 21.4 5.2 Q21.6 4.95 21.9 4.95 22.2 4.95 22.4 5.2 M12.4 10.1 L12.6 9.65 Q12.75 9.45 13.0 9.45 L13.45 9.65 13.6 10.1 13.45 10.55 13.0 10.75 Q12.75 10.75 12.6 10.55 L12.4 10.1" fill="#562e0f" fill-rule="evenodd" stroke="none"/>
  </g>
</svg>
