<?xml version="1.0" encoding="UTF-8" standalone="no"?>
<svg xmlns:ffdec="https://www.free-decompiler.com/flash" xmlns:xlink="http://www.w3.org/1999/xlink" ffdec:objectType="shape" height="151.8px" width="94.55px" xmlns="http://www.w3.org/2000/svg">
  <g transform="matrix(1.0, 0.0, 0.0, 1.0, 33.75, 48.5)">
    <path d="M9.5 -30.95 Q4.1 -27.6 3.9 -25.2 5.15 -26.65 8.3 -28.65 13.35 -31.95 19.85 -33.9 L19.3 -34.1 17.95 -34.2 Q14.75 -34.2 9.5 -30.95 M22.85 -37.65 Q25.75 -37.45 27.95 -36.65 30.05 -35.9 34.35 -33.5 L24.75 -32.25 Q21.8 -31.9 15.0 -28.75 L19.85 -28.6 Q24.75 -28.25 29.75 -26.0 L22.8 -22.0 Q20.45 -20.55 19.85 -19.55 L20.7 -19.35 Q25.25 -19.45 27.35 -18.25 20.85 -14.1 17.1 -12.75 18.55 -11.85 18.55 -11.55 L22.65 -11.25 22.6 -11.2 17.3 -9.65 12.1 -8.05 12.35 -7.7 Q13.8 -6.65 17.45 -6.7 L24.75 -6.0 Q16.65 -3.0 12.5 0.0 L12.65 0.5 12.75 0.65 13.35 0.65 16.9 -0.05 21.5 -0.75 27.15 -0.25 26.5 0.25 Q25.55 1.0 21.0 2.25 L8.85 5.6 16.0 9.35 Q11.5 10.3 8.6 11.55 L10.6 13.55 Q12.65 15.5 13.85 16.25 L13.3 16.2 10.35 15.35 3.35 14.25 Q7.25 18.85 12.6 22.9 L10.45 23.25 8.15 23.4 Q1.75 23.4 -4.35 16.1 -7.5 12.35 -10.25 7.4 L-10.6 8.15 -10.75 9.4 Q-10.75 10.7 -9.35 16.1 L-8.0 21.5 -8.45 21.45 -13.75 17.25 -14.35 17.8 -14.7 23.9 -15.4 22.5 Q-16.3 20.6 -17.55 10.2 -18.8 -0.2 -18.8 -6.0 -18.8 -8.45 -17.1 -22.05 L-16.5 -21.8 Q-13.75 -17.65 -13.2 -17.25 L-12.9 -18.1 Q-13.6 -25.55 -4.45 -31.7 0.15 -34.75 4.95 -36.35 5.2 -36.35 8.15 -37.75 L11.15 -39.15 17.35 -38.45 22.85 -37.65 M13.1 -23.9 L12.95 -24.05 Q8.85 -24.4 3.35 -21.55 L4.55 -21.25 Q7.3 -21.25 13.1 -23.9 M1.2 -15.2 Q-3.5 -15.2 -7.2 -13.8 -11.05 -12.35 -11.05 -10.4 -11.05 -9.25 -10.4 -7.55 L-9.45 -5.7 Q-7.2 -6.95 -2.05 -10.2 L5.15 -14.35 5.25 -14.55 3.5 -15.0 1.2 -15.2 M5.45 -2.55 Q7.0 -2.55 9.0 -4.0 L1.95 -5.35 0.5 -5.25 Q1.6 -3.85 3.45 -3.05 L5.45 -2.55 M-7.8 -0.45 L-8.1 2.75 0.75 3.25 Q-0.05 2.45 -2.75 0.95 -5.8 -0.7 -7.1 -0.75 L-7.8 -0.45 M-15.75 4.75 L-16.1 5.65 -16.25 6.5 Q-16.0 8.1 -15.05 10.05 -14.05 12.25 -13.15 12.55 L-13.15 12.25 -14.25 8.75 -15.75 4.75 M-4.55 -28.7 Q-6.15 -27.4 -8.45 -24.4 L0.0 -32.25 -4.55 -28.7" fill="#ffffff" fill-rule="evenodd" stroke="none"/>
    <path d="M37.95 -31.4 Q37.95 -30.15 33.4 -30.15 L30.7 -30.3 Q31.0 -30.05 30.65 -29.4 30.75 -28.75 31.65 -27.85 L34.5 -25.3 28.1 -22.8 Q29.8 -21.1 30.9 -20.55 L28.55 -17.95 24.15 -13.9 Q24.55 -12.9 25.25 -12.55 L27.1 -11.9 25.4 -10.1 Q26.85 -8.75 27.85 -7.2 L28.65 -5.55 Q26.5 -4.8 25.65 -4.25 L30.25 0.85 Q28.0 4.65 24.7 5.3 20.4 6.2 18.75 7.55 19.35 8.05 21.0 8.75 L15.5 13.55 17.15 17.0 16.6 17.65 13.65 20.15 15.6 23.25 Q14.2 25.95 9.55 25.95 8.05 25.95 5.85 24.85 -0.35 21.75 -3.5 20.35 L-4.3 21.35 Q-2.1 24.05 1.15 26.25 L-0.1 26.2 -4.8 25.55 Q-7.15 25.05 -11.35 23.1 L-11.95 23.3 Q-12.3 23.5 -12.3 24.15 -12.3 24.8 -11.6 25.5 L-10.25 26.5 -11.9 26.5 Q-16.85 27.55 -18.6 20.9 L-20.2 13.55 Q-21.35 8.45 -22.95 4.6 L-24.35 4.95 -25.2 5.1 -25.3 4.65 -24.4 2.35 -24.5 2.2 -25.3 2.1 -26.75 2.2 -27.7 1.95 -26.6 -0.6 -24.8 -4.5 -26.1 -5.3 -28.85 -5.95 -27.4 -8.15 -25.1 -10.8 Q-25.9 -11.6 -28.25 -13.0 L-28.15 -13.1 Q-27.55 -13.7 -25.95 -14.2 -24.05 -14.85 -23.4 -15.2 -20.5 -16.9 -21.4 -22.5 L-21.85 -22.2 Q-24.6 -19.95 -25.0 -19.85 L-25.4 -20.3 Q-25.1 -22.0 -22.5 -25.45 -19.8 -29.0 -18.7 -29.0 -16.25 -33.1 -11.85 -37.2 -3.05 -45.45 7.25 -45.45 L10.5 -45.25 Q3.7 -42.8 -1.9 -39.7 -12.95 -33.6 -13.15 -26.1 L-12.75 -26.0 Q-7.9 -33.5 -0.25 -37.85 7.6 -42.3 16.4 -42.3 25.5 -42.3 32.05 -38.5 37.95 -35.1 37.95 -31.4 M22.85 -37.65 L17.35 -38.45 11.15 -39.15 8.15 -37.75 Q5.2 -36.35 4.95 -36.35 0.15 -34.75 -4.45 -31.7 -13.6 -25.55 -12.9 -18.1 L-13.2 -17.25 Q-13.75 -17.65 -16.5 -21.8 L-17.1 -22.05 Q-18.8 -8.45 -18.8 -6.0 -18.8 -0.2 -17.55 10.2 -16.3 20.6 -15.4 22.5 L-14.7 23.9 -14.35 17.8 -13.75 17.25 -8.45 21.45 -8.0 21.5 -9.35 16.1 Q-10.75 10.7 -10.75 9.4 L-10.6 8.15 -10.25 7.4 Q-7.5 12.35 -4.35 16.1 1.75 23.4 8.15 23.4 L10.45 23.25 12.6 22.9 Q7.25 18.85 3.35 14.25 L10.35 15.35 13.3 16.2 13.85 16.25 Q12.65 15.5 10.6 13.55 L8.6 11.55 Q11.5 10.3 16.0 9.35 L8.85 5.6 21.0 2.25 Q25.55 1.0 26.5 0.25 L27.15 -0.25 21.5 -0.75 16.9 -0.05 13.35 0.65 12.75 0.65 12.65 0.5 12.5 0.0 Q16.65 -3.0 24.75 -6.0 L17.45 -6.7 Q13.8 -6.65 12.35 -7.7 L12.1 -8.05 17.3 -9.65 22.6 -11.2 22.65 -11.25 18.55 -11.55 Q18.55 -11.85 17.1 -12.75 20.85 -14.1 27.35 -18.25 25.25 -19.45 20.7 -19.35 L19.85 -19.55 Q20.45 -20.55 22.8 -22.0 L29.75 -26.0 Q24.75 -28.25 19.85 -28.6 L15.0 -28.75 Q21.8 -31.9 24.75 -32.25 L34.35 -33.5 Q30.05 -35.9 27.95 -36.65 25.75 -37.45 22.85 -37.65 M9.5 -30.95 Q14.75 -34.2 17.95 -34.2 L19.3 -34.1 19.85 -33.9 Q13.35 -31.95 8.3 -28.65 5.15 -26.65 3.9 -25.2 4.1 -27.6 9.5 -30.95 M13.1 -23.9 Q7.3 -21.25 4.55 -21.25 L3.35 -21.55 Q8.85 -24.4 12.95 -24.05 L13.1 -23.9 M1.2 -15.2 L3.5 -15.0 5.25 -14.55 5.15 -14.35 -2.05 -10.2 Q-7.2 -6.95 -9.45 -5.7 L-10.4 -7.55 Q-11.05 -9.25 -11.05 -10.4 -11.05 -12.35 -7.2 -13.8 -3.5 -15.2 1.2 -15.2 M5.45 -2.55 L3.45 -3.05 Q1.6 -3.85 0.5 -5.25 L1.95 -5.35 9.0 -4.0 Q7.0 -2.55 5.45 -2.55 M-7.8 -0.45 L-7.1 -0.75 Q-5.8 -0.7 -2.75 0.95 -0.05 2.45 0.75 3.25 L-8.1 2.75 -7.8 -0.45 M-4.55 -28.7 L0.0 -32.25 -8.45 -24.4 Q-6.15 -27.4 -4.55 -28.7 M-15.75 4.75 L-14.25 8.75 -13.15 12.25 -13.15 12.55 Q-14.05 12.25 -15.05 10.05 -16.0 8.1 -16.25 6.5 L-16.1 5.65 -15.75 4.75" fill="#ebe8e0" fill-rule="evenodd" stroke="none"/>
    <path d="M37.95 -31.4 Q37.95 -35.1 32.05 -38.5 25.5 -42.3 16.4 -42.3 7.6 -42.3 -0.25 -37.85 -7.9 -33.5 -12.75 -26.0 L-13.15 -26.1 Q-12.95 -33.6 -1.9 -39.7 3.7 -42.8 10.5 -45.25 L7.25 -45.45 Q-3.05 -45.45 -11.85 -37.2 -16.25 -33.1 -18.7 -29.0 -19.8 -29.0 -22.5 -25.45 -25.1 -22.0 -25.4 -20.3 L-25.0 -19.85 Q-24.6 -19.95 -21.85 -22.2 L-21.4 -22.5 Q-20.5 -16.9 -23.4 -15.2 -24.05 -14.85 -25.95 -14.2 -27.55 -13.7 -28.15 -13.1 L-28.25 -13.0 Q-25.9 -11.6 -25.1 -10.8 L-27.4 -8.15 -28.85 -5.95 -26.1 -5.3 -24.8 -4.5 -26.6 -0.6 -27.7 1.95 -26.75 2.2 -25.3 2.1 -24.5 2.2 -24.4 2.35 -25.3 4.65 -25.2 5.1 -24.35 4.95 -22.95 4.6 Q-21.35 8.45 -20.2 13.55 L-18.6 20.9 Q-16.85 27.55 -11.9 26.5 L-10.25 26.5 -11.6 25.5 Q-12.3 24.8 -12.3 24.15 -12.3 23.5 -11.95 23.3 L-11.35 23.1 Q-7.15 25.05 -4.8 25.55 L-0.1 26.2 1.15 26.25 Q-2.1 24.05 -4.3 21.35 L-3.5 20.35 Q-0.35 21.75 5.85 24.85 8.05 25.95 9.55 25.95 14.2 25.95 15.6 23.25 L13.65 20.15 16.6 17.65 17.15 17.0 15.5 13.55 21.0 8.75 Q19.35 8.05 18.75 7.55 20.4 6.2 24.7 5.3 28.0 4.65 30.25 0.85 L25.65 -4.25 Q26.5 -4.8 28.65 -5.55 L27.85 -7.2 Q26.85 -8.75 25.4 -10.1 L27.1 -11.9 25.25 -12.55 Q24.55 -12.9 24.15 -13.9 L28.55 -17.95 30.9 -20.55 Q29.8 -21.1 28.1 -22.8 L34.5 -25.3 31.65 -27.85 Q30.75 -28.75 30.65 -29.4 31.0 -30.05 30.7 -30.3 L33.4 -30.15 Q37.95 -30.15 37.95 -31.4 M-13.5 28.0 L-17.0 28.05 Q-19.95 28.15 -21.4 26.9 -22.85 25.6 -23.95 23.6 L-25.25 20.85 -29.5 12.35 Q-32.25 5.05 -32.25 -4.6 -32.25 -26.1 -15.15 -37.8 -2.05 -46.75 13.4 -46.75 24.75 -46.75 33.75 -42.35 42.5 -38.05 42.5 -33.0 42.5 -30.55 41.9 -28.55 L41.25 -26.7 41.3 -26.05 41.3 -26.2 41.65 -26.2 Q40.1 -22.85 34.25 -18.8 29.65 -15.55 29.65 -10.5 29.65 -10.1 30.8 -3.95 L31.95 2.8 31.0 4.6 29.95 4.85 Q22.65 6.9 21.75 7.75 L20.3 11.35 Q18.8 14.55 18.65 16.75 L18.45 23.35 Q18.35 24.0 17.55 24.65 15.25 26.45 9.45 27.5 0.7 29.0 -13.5 28.0" fill="#cbc8c0" fill-rule="evenodd" stroke="none"/>
    <path d="M-13.5 28.0 L-13.0 28.5 -13.75 29.15 -20.25 29.15 Q-26.5 24.5 -30.2 14.9 -33.75 5.7 -33.75 -4.65 -33.75 -21.5 -21.8 -34.6 -9.15 -48.45 9.0 -48.4 L13.5 -48.5 Q21.15 -48.5 30.9 -45.35 44.65 -40.95 44.65 -33.3 44.65 -28.85 43.5 -27.4 L41.65 -26.2 41.3 -26.2 41.3 -26.05 41.25 -26.7 41.9 -28.55 Q42.5 -30.55 42.5 -33.0 42.5 -38.05 33.75 -42.35 24.75 -46.75 13.4 -46.75 -2.05 -46.75 -15.15 -37.8 -32.25 -26.1 -32.25 -4.6 -32.25 5.05 -29.5 12.35 L-25.25 20.85 -23.95 23.6 Q-22.85 25.6 -21.4 26.9 -19.95 28.15 -17.0 28.05 L-13.5 28.0" fill="#97877d" fill-rule="evenodd" stroke="none"/>
    <path d="M29.85 -14.5 L36.75 -23.35 37.55 -24.05 Q37.95 -23.1 37.95 -22.1 37.95 -21.4 35.8 -18.0 L32.15 -12.55 Q30.7 -10.55 29.3 -6.1 27.55 -0.45 27.5 5.2 L27.5 5.3 26.05 -5.1 Q26.05 -8.1 28.25 -11.6 29.4 -13.4 30.7 -15.0 L29.85 -14.5 M43.7 -26.4 L45.85 -29.35 47.7 -30.85 47.95 -28.7 Q47.95 -25.3 46.5 -22.75 44.45 -19.2 43.3 -13.9 L41.1 -10.6 Q39.4 -7.8 38.45 -4.0 L38.45 -3.95 35.85 10.45 Q34.95 0.15 34.95 -1.15 34.95 -6.15 37.05 -10.7 41.7 -20.85 43.7 -26.4" fill="#ffffff" fill-rule="evenodd" stroke="none"/>
    <path d="M27.5 5.2 Q27.55 -0.45 29.3 -6.1 30.7 -10.55 32.15 -12.55 L35.8 -18.0 Q37.95 -21.4 37.95 -22.1 37.95 -23.1 37.55 -24.05 L36.75 -23.35 29.85 -14.5 Q27.5 -12.35 26.05 -8.9 24.65 -5.55 24.65 -2.2 L25.1 0.45 25.5 3.05 24.45 5.05 22.7 7.25 22.55 -4.8 Q22.55 -7.9 23.2 -9.0 26.5 -11.55 31.65 -20.6 32.2 -21.55 36.75 -25.05 L42.75 -29.75 43.7 -32.6 44.45 -35.65 45.35 -35.3 Q49.1 -34.35 49.1 -27.5 49.1 -22.95 47.25 -19.9 44.7 -16.5 43.3 -13.9 44.45 -19.2 46.5 -22.75 47.95 -25.3 47.95 -28.7 L47.7 -30.85 45.85 -29.35 43.7 -26.4 44.3 -28.1 Q40.05 -22.05 36.4 -16.1 29.15 -4.3 29.15 0.3 L30.1 13.75 Q30.1 18.35 29.05 21.0 28.25 23.1 26.6 24.2 L28.3 16.6 28.6 12.7 27.5 5.2 M38.45 -3.95 Q37.8 0.3 37.8 1.65 38.2 4.6 39.2 7.7 40.9 12.85 43.25 14.5 L41.05 13.4 39.7 13.45 41.75 19.1 Q43.9 24.35 45.45 26.65 41.15 23.65 39.75 21.35 38.25 18.85 35.85 10.45 L38.45 -3.95" fill="#ebe8e0" fill-rule="evenodd" stroke="none"/>
    <path d="M27.5 5.2 L28.6 12.7 28.3 16.6 26.6 24.2 Q28.25 23.1 29.05 21.0 30.1 18.35 30.1 13.75 L29.15 0.3 Q29.15 -4.3 36.4 -16.1 40.05 -22.05 44.3 -28.1 L43.7 -26.4 Q41.7 -20.85 37.05 -10.7 34.95 -6.15 34.95 -1.15 34.95 0.15 35.85 10.45 38.25 18.85 39.75 21.35 41.15 23.65 45.45 26.65 43.9 24.35 41.75 19.1 L39.7 13.45 41.05 13.4 43.25 14.5 Q40.9 12.85 39.2 7.7 38.2 4.6 37.8 1.65 37.8 0.3 38.45 -3.95 L38.45 -4.0 Q39.4 -7.8 41.1 -10.6 L43.3 -13.9 Q44.7 -16.5 47.25 -19.9 49.1 -22.95 49.1 -27.5 49.1 -34.35 45.35 -35.3 L44.45 -35.65 43.7 -32.6 42.75 -29.75 Q43.3 -32.25 43.55 -37.45 48.65 -35.55 49.25 -34.8 50.45 -33.4 50.45 -27.55 50.45 -23.8 48.8 -20.4 47.95 -18.65 45.15 -14.6 39.8 -6.85 39.8 0.75 39.8 5.1 41.2 8.35 42.95 12.35 47.0 15.5 L46.2 16.3 45.25 16.45 Q42.0 15.45 40.9 14.8 L41.15 15.95 Q41.4 16.8 44.25 21.75 47.15 26.7 47.8 27.35 L47.15 27.6 Q41.15 29.1 37.0 17.65 33.5 8.1 33.5 -1.6 L33.95 -8.2 33.1 -7.5 Q31.4 -6.6 30.45 -3.15 29.8 -0.8 29.8 0.85 29.8 3.8 30.45 10.9 L31.05 18.2 Q31.05 26.0 25.35 26.0 L24.65 25.85 24.6 25.55 Q26.3 23.05 27.75 12.6 L27.65 11.5 27.1 8.2 22.7 9.35 22.7 7.25 24.45 5.05 25.5 3.05 25.1 0.45 24.65 -2.2 Q24.65 -5.55 26.05 -8.9 27.5 -12.35 29.85 -14.5 L30.7 -15.0 Q29.4 -13.4 28.25 -11.6 26.05 -8.1 26.05 -5.1 L27.5 5.3 27.5 5.2" fill="#97877d" fill-rule="evenodd" stroke="none"/>
    <path d="M55.1 29.6 L55.7 30.8 Q56.8 40.2 52.8 44.75 49.9 48.0 45.8 48.0 L41.8 47.65 Q44.25 51.25 45.6 57.4 L48.2 71.3 Q49.25 76.45 51.25 80.2 54.85 86.95 60.8 87.65 56.35 89.85 54.35 89.85 46.55 89.85 40.6 80.95 36.6 74.9 32.1 62.0 L29.9 72.5 Q29.05 77.0 29.05 81.75 29.05 88.75 34.15 95.05 39.65 101.9 47.1 101.95 L46.9 102.25 46.2 102.7 45.8 103.15 43.15 103.3 Q37.15 103.3 32.1 99.2 25.3 93.55 21.15 80.8 17.35 85.65 14.45 87.85 10.75 90.65 6.85 90.65 4.4 90.65 2.85 89.85 L-2.1 86.85 Q3.35 85.35 8.0 78.25 13.0 70.7 13.0 62.25 L12.8 59.9 12.2 60.5 Q7.8 64.45 3.4 64.45 1.4 64.45 -0.7 63.2 -2.85 61.95 -3.75 60.1 -3.7 59.2 -1.9 59.35 L0.35 59.7 Q2.15 59.7 4.4 57.65 6.75 54.85 8.1 49.75 9.2 45.35 9.2 41.2 L8.75 35.65 8.05 30.75 4.5 17.65 Q4.5 15.55 4.9 12.8 5.3 10.0 5.75 9.0 L9.3 2.05 Q10.55 -1.65 16.35 -1.65 17.95 -1.65 20.7 0.3 23.65 2.45 23.65 4.25 L23.25 7.1 22.8 9.95 Q22.8 12.0 24.4 16.5 26.25 21.7 29.1 26.25 37.0 39.05 47.25 39.05 51.6 39.05 53.75 35.75 55.6 32.85 54.8 29.25 L55.1 29.6 M51.15 43.95 Q54.85 40.8 55.35 34.9 52.75 38.5 51.75 39.5 50.25 40.9 47.4 40.9 39.5 40.9 31.65 31.85 23.75 22.65 20.55 9.4 L19.15 10.45 18.3 10.45 18.3 12.75 Q18.0 18.5 20.4 23.3 21.85 26.25 25.9 31.2 30.05 36.25 31.6 39.3 34.25 44.4 34.25 50.5 L33.95 54.85 Q33.7 58.55 33.95 61.7 34.75 71.6 40.4 79.2 43.0 82.7 47.9 85.65 53.35 88.9 56.2 87.7 49.35 81.5 48.1 79.2 46.8 76.8 45.15 67.3 L43.05 55.4 Q42.25 51.85 40.0 45.5 L44.85 46.4 Q48.3 46.4 51.15 43.95 M13.85 10.3 L11.85 8.9 9.75 6.35 8.4 9.45 Q7.6 11.1 7.6 14.8 7.6 18.8 10.15 24.0 11.55 26.8 15.8 33.5 24.0 46.4 24.0 53.65 24.0 56.1 22.75 64.05 21.45 72.0 21.45 76.2 21.45 77.8 23.25 82.5 25.4 88.0 28.25 92.5 31.25 97.2 34.3 99.3 36.8 101.05 41.45 102.2 32.8 97.35 30.0 91.8 28.15 88.1 28.15 81.35 28.15 79.55 30.3 65.4 32.45 51.25 32.45 48.45 32.45 44.2 31.35 41.6 30.2 38.85 25.05 31.2 18.35 21.2 17.7 18.0 18.05 14.75 17.35 10.8 L14.95 10.55 13.85 10.3 M9.7 26.45 L13.05 37.55 Q14.95 45.1 14.95 51.95 14.95 68.5 8.8 78.95 4.65 86.0 0.6 87.25 L1.45 87.65 7.55 89.05 Q11.7 89.05 16.1 85.1 20.6 81.05 20.4 77.05 20.35 75.75 21.3 65.3 22.3 54.5 22.3 52.5 22.3 47.75 19.65 43.15 14.6 35.25 9.7 26.45 M12.6 44.05 L9.5 32.55 Q10.5 48.9 8.55 54.95 6.6 61.1 0.25 61.1 -1.0 61.1 -1.95 60.45 L-0.75 61.3 2.1 62.55 3.95 62.9 Q8.65 62.9 11.3 59.4 13.7 56.3 13.7 51.5 13.7 48.4 12.6 44.05" fill="#97877d" fill-rule="evenodd" stroke="none"/>
    <path d="M48.85 43.75 L44.05 44.15 Q38.25 44.15 33.3 38.8 27.05 32.1 21.55 16.55 L22.2 18.1 Q23.7 21.35 27.65 27.35 33.3 35.95 36.65 37.35 L40.6 39.35 45.8 41.85 Q48.85 43.4 48.85 43.75 M11.85 8.9 L11.25 12.05 10.95 14.95 Q10.95 20.55 13.65 26.0 14.9 28.55 19.5 35.35 23.55 41.35 25.25 45.65 27.75 52.05 27.45 59.35 28.8 58.2 29.45 56.7 30.4 54.5 30.4 50.65 30.4 46.5 28.55 42.75 L21.9 30.85 15.7 21.2 Q13.35 17.1 13.85 10.3 L14.95 10.55 17.35 10.8 Q18.05 14.75 17.7 18.0 18.35 21.2 25.05 31.2 30.2 38.85 31.35 41.6 32.45 44.2 32.45 48.45 32.45 51.25 30.3 65.4 28.15 79.55 28.15 81.35 28.15 88.1 30.0 91.8 32.8 97.35 41.45 102.2 36.8 101.05 34.3 99.3 31.25 97.2 28.25 92.5 25.4 88.0 23.25 82.5 21.45 77.8 21.45 76.2 21.45 72.0 22.75 64.05 24.0 56.1 24.0 53.65 24.0 46.4 15.8 33.5 11.55 26.8 10.15 24.0 7.6 18.8 7.6 14.8 7.6 11.1 8.4 9.45 L9.75 6.35 11.85 8.9 M9.7 26.45 Q14.6 35.25 19.65 43.15 22.3 47.75 22.3 52.5 22.3 54.5 21.3 65.3 20.35 75.75 20.4 77.05 20.6 81.05 16.1 85.1 11.7 89.05 7.55 89.05 L1.45 87.65 0.6 87.25 Q4.65 86.0 8.8 78.95 14.95 68.5 14.95 51.95 14.95 45.1 13.05 37.55 L9.7 26.45 M15.8 43.15 L16.85 49.05 17.25 53.25 Q17.25 63.3 13.0 74.15 9.7 82.65 5.7 87.7 9.35 87.5 13.4 82.6 19.6 75.15 19.6 61.05 18.2 50.3 17.8 48.7 L15.8 43.15 M35.35 48.7 L36.1 49.25 Q37.8 50.3 38.95 53.65 L41.0 61.55 Q44.15 75.35 49.15 84.3 L48.0 84.0 Q40.85 79.5 38.3 68.8 37.4 65.1 36.65 58.95 L35.35 48.7 M24.1 73.1 Q24.1 75.75 24.6 79.5 25.0 82.55 25.3 83.5 L25.6 84.3 26.7 82.35 Q27.05 81.2 26.95 77.6 L27.0 64.9 Q27.05 61.2 26.1 60.6 24.8 62.45 24.3 67.7 L24.1 73.1 M11.05 50.65 L11.4 52.85 Q11.4 54.6 10.55 56.55 9.7 58.55 8.55 59.15 L7.85 58.55 11.05 50.65" fill="#ebe8e0" fill-rule="evenodd" stroke="none"/>
    <path d="M48.85 43.75 Q48.85 43.4 45.8 41.85 L40.6 39.35 36.65 37.35 Q33.3 35.95 27.65 27.35 23.7 21.35 22.2 18.1 L21.55 16.55 Q27.05 32.1 33.3 38.8 38.25 44.15 44.05 44.15 L48.85 43.75 M51.15 43.95 Q48.3 46.4 44.85 46.4 L40.0 45.5 Q42.25 51.85 43.05 55.4 L45.15 67.3 Q46.8 76.8 48.1 79.2 49.35 81.5 56.2 87.7 53.35 88.9 47.9 85.65 43.0 82.7 40.4 79.2 34.75 71.6 33.95 61.7 33.7 58.55 33.95 54.85 L34.25 50.5 Q34.25 44.4 31.6 39.3 30.05 36.25 25.9 31.2 21.85 26.25 20.4 23.3 18.0 18.5 18.3 12.75 L18.3 10.45 19.15 10.45 20.55 9.4 Q23.75 22.65 31.65 31.85 39.5 40.9 47.4 40.9 50.25 40.9 51.75 39.5 52.75 38.5 55.35 34.9 54.85 40.8 51.15 43.95 M12.6 44.05 Q13.7 48.4 13.7 51.5 13.7 56.3 11.3 59.4 8.65 62.9 3.95 62.9 L2.1 62.55 -0.75 61.3 -1.95 60.45 Q-1.0 61.1 0.25 61.1 6.6 61.1 8.55 54.95 10.5 48.9 9.5 32.55 L12.6 44.05 M35.35 48.7 L36.65 58.95 Q37.4 65.1 38.3 68.8 40.85 79.5 48.0 84.0 L49.15 84.3 Q44.15 75.35 41.0 61.55 L38.95 53.65 Q37.8 50.3 36.1 49.25 L35.35 48.7 M11.05 50.65 L7.85 58.55 8.55 59.15 Q9.7 58.55 10.55 56.55 11.4 54.6 11.4 52.85 L11.05 50.65" fill="#cbc8c0" fill-rule="evenodd" stroke="none"/>
    <path d="M13.85 10.3 Q13.35 17.1 15.7 21.2 L21.9 30.85 28.55 42.75 Q30.4 46.5 30.4 50.65 30.4 54.5 29.45 56.7 28.8 58.2 27.45 59.35 27.75 52.05 25.25 45.65 23.55 41.35 19.5 35.35 14.9 28.55 13.65 26.0 10.95 20.55 10.95 14.95 L11.25 12.05 11.85 8.9 13.85 10.3 M15.8 43.15 L17.8 48.7 Q18.2 50.3 19.6 61.05 19.6 75.15 13.4 82.6 9.35 87.5 5.7 87.7 9.7 82.65 13.0 74.15 17.25 63.3 17.25 53.25 L16.85 49.05 15.8 43.15 M24.1 73.1 L24.3 67.7 Q24.8 62.45 26.1 60.6 27.05 61.2 27.0 64.9 L26.95 77.6 Q27.05 81.2 26.7 82.35 L25.6 84.3 25.3 83.5 Q25.0 82.55 24.6 79.5 24.1 75.75 24.1 73.1" fill="#ffffff" fill-rule="evenodd" stroke="none"/>
  </g>
</svg>
