<?xml version="1.0" encoding="UTF-8" standalone="no"?>
<svg xmlns:ffdec="https://www.free-decompiler.com/flash" xmlns:xlink="http://www.w3.org/1999/xlink" ffdec:objectType="shape" height="77.05px" width="77.05px" xmlns="http://www.w3.org/2000/svg">
  <g transform="matrix(1.0, 0.0, 0.0, 1.0, 28.25, 52.5)">
    <path d="M-15.3 -40.25 L-15.35 -40.25 -15.3 -40.25" fill="#c18753" fill-rule="evenodd" stroke="none"/>
    <path d="M13.3 22.6 Q26.1 21.65 35.6 12.55 L35.55 12.65 36.2 11.95 39.4 8.35 Q46.95 -1.3 46.95 -13.95 46.95 -29.15 36.2 -39.9 25.45 -50.65 10.3 -50.65 L10.15 -50.65 Q-0.45 -50.6 -9.25 -45.15 L-10.35 -44.4 -12.25 -43.0 -15.3 -40.25 -18.75 -36.35 -18.8 -36.35 Q-22.5 -31.7 -24.35 -26.3 -26.1 -21.35 -26.35 -15.7 L-26.4 -13.95 -26.35 -12.25 Q-25.8 1.85 -15.65 11.95 -11.45 16.15 -6.5 18.75 -3.85 20.1 -0.95 21.05 3.8 22.55 9.2 22.7 L10.3 22.7 13.3 22.6 M-15.3 -40.25 L-15.35 -40.25 -15.3 -40.25 M10.3 -52.5 Q26.2 -52.5 37.5 -41.2 48.8 -29.9 48.8 -13.95 48.8 -0.65 40.85 9.5 L37.5 13.25 36.95 13.85 36.9 13.9 Q25.75 24.55 10.3 24.55 L10.0 24.55 9.9 24.55 6.15 24.35 6.1 24.35 4.7 24.2 Q1.45 23.75 -1.5 22.8 -4.6 21.8 -7.4 20.35 -12.55 17.65 -16.95 13.25 -27.65 2.65 -28.2 -12.15 L-28.25 -13.95 -28.2 -15.8 Q-27.65 -28.15 -20.25 -37.55 L-16.65 -41.55 -16.45 -41.7 -16.45 -41.75 Q-5.45 -52.5 10.3 -52.5" fill="#654425" fill-rule="evenodd" stroke="none"/>
    <path d="M-10.35 -44.4 L-9.25 -45.15 Q-0.45 -50.6 10.15 -50.65 L10.3 -50.65 Q25.45 -50.65 36.2 -39.9 46.95 -29.15 46.95 -13.95 46.95 -1.3 39.4 8.35 L36.2 11.95 35.55 12.65 35.6 12.55 Q26.1 21.65 13.3 22.6 19.95 20.15 25.45 14.9 L25.4 15.0 26.0 14.3 29.15 10.85 Q36.4 1.55 36.4 -10.7 36.4 -25.4 26.0 -35.8 15.65 -46.15 1.0 -46.15 -5.05 -46.15 -10.35 -44.4" fill="#e79d5a" fill-rule="evenodd" stroke="none"/>
    <path d="M13.3 22.6 L10.3 22.7 9.2 22.7 Q14.9 20.3 19.7 15.75 L19.75 15.7 20.35 15.1 23.35 11.7 Q28.6 5.0 30.0 -3.25 28.5 -7.2 28.05 -10.5 27.6 -13.8 24.9 -17.05 22.15 -20.35 19.8 -21.95 17.4 -23.55 14.75 -24.6 L7.65 -24.9 1.65 -24.0 -7.45 -23.75 Q-9.35 -23.9 -11.2 -24.55 -11.9 -24.8 -12.35 -25.25 L-15.15 -27.4 Q-17.2 -28.7 -19.55 -28.2 -22.05 -27.65 -24.35 -26.3 -22.5 -31.7 -18.8 -36.35 L-18.75 -36.35 -15.3 -40.25 -12.25 -43.0 -10.35 -44.4 Q-5.05 -46.15 1.0 -46.15 15.65 -46.15 26.0 -35.8 36.4 -25.4 36.4 -10.7 36.4 1.55 29.15 10.85 L26.0 14.3 25.4 15.0 25.45 14.9 Q19.95 20.15 13.3 22.6" fill="#f0a866" fill-rule="evenodd" stroke="none"/>
    <path d="M9.2 22.7 Q3.8 22.55 -0.95 21.05 -3.85 20.1 -6.5 18.75 -11.45 16.15 -15.65 11.95 -25.8 1.85 -26.35 -12.25 L-26.4 -13.95 -26.35 -15.7 Q-26.1 -21.35 -24.35 -26.3 -22.05 -27.65 -19.55 -28.2 -17.2 -28.7 -15.15 -27.4 L-12.35 -25.25 Q-11.9 -24.8 -11.2 -24.55 -9.35 -23.9 -7.45 -23.75 L1.65 -24.0 7.65 -24.9 14.75 -24.6 Q17.4 -23.55 19.8 -21.95 22.15 -20.35 24.9 -17.05 27.6 -13.8 28.05 -10.5 28.5 -7.2 30.0 -3.25 28.6 5.0 23.35 11.7 L20.35 15.1 19.75 15.7 19.7 15.75 Q14.9 20.3 9.2 22.7" fill="#f8b674" fill-rule="evenodd" stroke="none"/>
  </g>
</svg>
