<?xml version="1.0" encoding="UTF-8" standalone="no"?>
<svg xmlns:ffdec="https://www.free-decompiler.com/flash" xmlns:xlink="http://www.w3.org/1999/xlink" ffdec:objectType="shape" height="131.0px" width="131.0px" xmlns="http://www.w3.org/2000/svg">
  <g transform="matrix(1.0, 0.0, 0.0, 1.0, 65.5, 65.5)">
    <path d="M0.0 -65.5 Q27.1 -65.5 46.3 -46.3 65.5 -27.1 65.5 0.0 65.5 27.1 46.3 46.3 27.1 65.5 0.0 65.5 -27.1 65.5 -46.3 46.3 -65.5 27.1 -65.5 0.0 -65.5 -27.1 -46.35 -46.3 L-46.3 -46.35 Q-27.1 -65.5 0.0 -65.5 M39.25 -39.25 Q23.0 -55.5 0.0 -55.5 -22.95 -55.5 -39.25 -39.25 -55.5 -22.95 -55.5 0.0 -55.5 23.0 -39.25 39.25 -23.0 55.5 0.0 55.5 22.95 55.5 39.2 39.25 L39.25 39.2 Q55.5 22.95 55.5 0.0 55.5 -23.0 39.25 -39.25" fill="#ffffff" fill-rule="evenodd" stroke="none"/>
    <path d="M39.25 -39.25 Q55.5 -23.0 55.5 0.0 55.5 22.95 39.25 39.2 L39.2 39.25 Q22.95 55.5 0.0 55.5 -23.0 55.5 -39.25 39.25 -55.5 23.0 -55.5 0.0 -55.5 -22.95 -39.25 -39.25 -22.95 -55.5 0.0 -55.5 23.0 -55.5 39.25 -39.25" fill="#000000" fill-opacity="0.49803922" fill-rule="evenodd" stroke="none"/>
  </g>
</svg>
