<?xml version="1.0" encoding="UTF-8" standalone="no"?>
<svg xmlns:ffdec="https://www.free-decompiler.com/flash" xmlns:xlink="http://www.w3.org/1999/xlink" ffdec:objectType="shape" height="63.55px" width="40.1px" xmlns="http://www.w3.org/2000/svg">
  <g transform="matrix(1.0, 0.0, 0.0, 1.0, 10.4, 12.55)">
    <path d="M-4.0 -12.45 Q0.8 -9.7 14.85 8.8 28.5 26.75 28.5 29.15 28.5 32.6 26.65 35.55 L26.1 34.7 Q27.45 29.5 25.15 26.0 23.15 22.85 19.8 22.85 L17.4 23.1 15.6 23.35 Q9.25 24.9 5.8 30.6 3.3 34.75 3.35 38.25 3.15 38.25 3.9 40.45 L4.7 42.65 Q6.45 46.15 10.05 46.15 L13.55 45.4 13.6 45.5 14.4 46.15 11.6 47.4 9.25 48.0 Q6.75 48.0 5.1 46.55 3.3 44.9 2.0 40.95 L-9.05 3.9 -10.4 -5.15 -10.15 -7.95 Q-9.75 -2.1 -7.3 5.85 -2.45 20.75 2.5 36.7 1.8 34.15 6.5 28.95 11.2 23.85 15.5 22.4 L21.8 21.95 4.05 -2.95 -4.0 -12.45" fill="#40362d" fill-rule="evenodd" stroke="none"/>
    <path d="M15.6 23.35 L17.4 23.1 19.8 22.85 Q23.15 22.85 25.15 26.0 27.45 29.5 26.1 34.7 L25.4 33.35 24.65 31.5 Q25.85 29.9 25.85 28.6 25.85 27.9 24.5 26.9 23.15 25.95 22.35 25.95 18.05 25.95 12.55 29.15 L10.45 30.6 13.1 27.6 Q15.05 25.3 15.6 23.35 M4.7 42.65 Q4.55 39.75 5.85 36.9 5.55 38.05 5.55 39.3 L5.8 41.45 6.25 43.3 6.1 43.45 7.1 44.95 Q7.9 45.65 10.4 45.65 L11.55 45.4 12.85 44.7 13.75 45.5 13.85 45.65 Q12.9 44.75 13.55 45.4 L10.05 46.15 Q6.45 46.15 4.7 42.65" fill="#657728" fill-rule="evenodd" stroke="none"/>
    <path d="M-4.1 -12.55 L-4.0 -12.45 4.05 -2.95 21.8 21.95 15.5 22.4 Q0.7 -5.0 -4.1 -12.55" fill="#d9ceb7" fill-rule="evenodd" stroke="none"/>
    <path d="M-10.15 -7.95 Q-10.15 -9.85 -8.35 -11.2 -6.6 -12.55 -4.1 -12.55 0.7 -5.0 15.5 22.4 11.2 23.85 6.5 28.95 1.8 34.15 2.5 36.7 -2.45 20.75 -7.3 5.85 -9.75 -2.1 -10.15 -7.95" fill="#f2eee6" fill-rule="evenodd" stroke="none"/>
    <path d="M15.6 23.35 Q15.05 25.3 13.1 27.6 L10.45 30.6 9.35 31.7 Q7.0 34.3 5.85 36.9 4.55 39.75 4.7 42.65 L3.9 40.45 Q3.15 38.25 3.35 38.25 3.3 34.75 5.8 30.6 9.25 24.9 15.6 23.35" fill="#7d9432" fill-rule="evenodd" stroke="none"/>
    <path d="M5.85 36.9 Q7.0 34.3 9.35 31.7 L10.45 30.6 12.55 29.15 Q18.05 25.95 22.35 25.95 23.15 25.95 24.5 26.9 25.85 27.9 25.85 28.6 25.85 29.9 24.65 31.5 L23.6 29.55 Q23.6 28.5 23.15 27.8 22.65 27.05 22.0 27.05 L19.65 27.55 Q15.2 27.55 12.05 30.0 8.85 32.45 8.85 35.9 L7.9 39.45 Q8.15 43.35 8.4 44.0 8.6 44.75 9.6 44.8 L12.45 44.25 12.5 44.3 12.85 44.7 11.55 45.4 10.4 45.65 Q7.9 45.65 7.1 44.95 L6.1 43.45 6.25 43.3 5.8 41.45 5.55 39.3 Q5.55 38.05 5.85 36.9" fill="#2e3612" fill-rule="evenodd" stroke="none"/>
    <path d="M22.0 27.05 Q22.65 27.05 23.15 27.8 23.6 28.5 23.6 29.55 L22.0 27.05 M7.9 39.45 L9.9 40.95 12.6 44.2 12.45 44.25 9.6 44.8 Q8.6 44.75 8.4 44.0 8.15 43.35 7.9 39.45" fill="#3f4918" fill-rule="evenodd" stroke="none"/>
    <path d="M26.65 35.55 Q28.35 37.1 29.2 40.9 L29.7 44.45 Q29.7 47.8 26.5 49.65 24.2 51.0 22.15 51.0 21.05 51.0 18.75 49.75 15.9 48.25 14.4 46.15 L13.6 45.5 13.55 45.4 Q12.9 44.75 13.85 45.65 L13.75 45.5 12.85 44.7 12.5 44.3 12.6 44.2 9.9 40.95 7.9 39.45 8.85 35.9 10.4 38.6 17.6 46.6 Q19.75 49.0 22.25 49.0 23.8 49.0 25.35 48.0 27.75 47.0 27.75 44.45 27.75 43.05 25.75 38.45 23.25 32.75 19.65 27.55 L22.0 27.05 23.6 29.55 24.65 31.5 25.4 33.35 26.1 34.7 26.65 35.55" fill="#654425" fill-rule="evenodd" stroke="none"/>
    <path d="M12.6 44.2 L12.5 44.3 12.45 44.25 12.6 44.2" fill="#684e35" fill-rule="evenodd" stroke="none"/>
    <path d="M10.4 38.6 Q11.7 36.7 13.75 35.25 16.05 33.6 18.0 33.6 21.35 33.6 23.15 37.9 24.5 41.1 25.35 48.0 23.8 49.0 22.25 49.0 19.75 49.0 17.6 46.6 L10.4 38.6" fill="#f0a866" fill-rule="evenodd" stroke="none"/>
    <path d="M8.85 35.9 Q8.85 32.45 12.05 30.0 15.2 27.55 19.65 27.55 23.25 32.75 25.75 38.45 27.75 43.05 27.75 44.45 27.75 47.0 25.35 48.0 24.5 41.1 23.15 37.9 21.35 33.6 18.0 33.6 16.05 33.6 13.75 35.25 11.7 36.7 10.4 38.6 L8.85 35.9" fill="#e79d5a" fill-rule="evenodd" stroke="none"/>
  </g>
</svg>
