<?xml version="1.0" encoding="UTF-8" standalone="no"?>
<svg xmlns:ffdec="https://www.free-decompiler.com/flash" xmlns:xlink="http://www.w3.org/1999/xlink" ffdec:objectType="shape" height="151.55px" width="77.75px" xmlns="http://www.w3.org/2000/svg">
  <g transform="matrix(1.0, 0.0, 0.0, 1.0, 37.6, 136.6)">
    <path d="M-3.55 -101.4 L-3.0 -102.75 1.05 -118.85 1.9 -116.6 1.95 -116.1 3.25 -113.15 -4.95 -97.6 -3.55 -101.4 M1.2 -119.25 L3.0 -123.3 6.5 -129.9 9.65 -128.0 7.75 -123.75 Q6.8 -121.75 5.45 -120.15 L4.25 -118.9 2.75 -117.75 1.75 -120.25 1.2 -119.25 M3.2 -116.6 L3.4 -116.7 3.15 -116.45 3.2 -116.6 M-1.65 -100.95 L-0.95 -102.2 Q2.05 -98.3 3.35 -95.35 4.2 -93.35 4.2 -92.15 4.2 -90.45 2.1 -87.45 -0.05 -84.35 -5.4 -82.7 -6.0 -83.3 -5.85 -84.8 L-4.5 -84.4 -4.25 -84.4 -4.0 -84.45 Q-3.35 -84.6 -2.85 -85.1 L-2.8 -85.15 Q-2.15 -85.8 -2.1 -86.8 -2.1 -87.8 -2.8 -88.5 -3.5 -89.2 -4.5 -89.15 L-4.85 -89.1 -2.15 -98.65 -1.65 -100.95 M-4.1 -64.8 L-4.4 -67.3 Q-4.5 -74.15 -1.9 -75.3 L1.9 -76.6 2.5 -77.4 Q2.9 -77.9 3.65 -77.9 6.85 -77.9 7.85 -76.9 8.75 -76.05 8.75 -73.6 8.75 -70.75 4.85 -68.15 L-1.15 -64.5 Q-1.85 -65.2 -2.85 -65.15 L-4.1 -64.8 M-0.5 -63.25 L4.1 -63.05 7.9 -63.2 Q8.45 -63.05 8.45 -61.2 8.45 -59.05 7.3 -58.55 L3.7 -58.25 -3.4 -58.5 -3.6 -60.5 -2.85 -60.4 -2.6 -60.4 -2.35 -60.45 Q-1.7 -60.6 -1.2 -61.1 L-1.15 -61.15 Q-0.5 -61.8 -0.45 -62.8 L-0.5 -63.25 M10.05 -52.75 L7.7 -52.5 4.4 -52.25 4.15 -53.1 4.1 -53.15 Q3.8 -53.5 3.45 -53.5 L3.0 -54.25 14.4 -55.55 21.15 -56.5 21.85 -56.45 Q22.6 -56.25 23.85 -55.3 L21.9 -54.9 16.5 -54.2 13.15 -53.65 10.05 -52.75 M4.05 -20.15 L5.85 -20.25 13.35 -21.0 16.55 -21.4 17.85 -19.5 Q18.65 -18.0 18.95 -16.45 L19.05 -15.05 19.05 -15.0 Q19.05 -14.25 13.1 -12.25 L11.45 -11.75 6.75 -10.4 Q2.1 -9.25 -1.3 -9.15 L-1.4 -9.15 -1.8 -9.15 -2.0 -9.15 Q-2.15 -9.15 -2.3 -9.3 -2.65 -9.7 -2.85 -11.0 L-3.05 -12.45 -2.0 -12.25 -1.75 -12.25 -1.5 -12.3 Q-0.85 -12.45 -0.35 -12.95 L-0.3 -13.0 Q0.35 -13.65 0.4 -14.65 0.4 -15.65 -0.3 -16.35 L-0.7 -16.65 -0.4 -16.75 Q1.25 -17.1 2.9 -18.8 L4.05 -20.15 M0.95 -51.6 L1.5 -31.65 Q-0.15 -33.2 -1.1 -35.3 L-1.6 -36.75 -1.2 -37.1 -1.15 -37.15 Q-0.5 -37.8 -0.45 -38.8 -0.45 -39.8 -1.15 -40.5 -1.5 -40.85 -1.95 -41.0 L-1.9 -49.7 Q-0.55 -50.75 0.95 -51.6 M1.55 -28.95 L1.55 -27.95 1.7 -23.35 -0.85 -22.3 -2.9 -22.75 Q-3.6 -23.0 -3.9 -23.6 -3.25 -26.35 -4.0 -29.2 L1.55 -28.95 M16.75 -44.1 Q13.15 -43.5 10.65 -44.0 L9.8 -44.05 Q9.15 -44.1 8.85 -44.3 L8.45 -44.8 Q6.65 -47.15 6.45 -49.5 L6.4 -50.25 6.7 -51.55 7.25 -51.4 9.7 -50.7 Q18.8 -48.25 21.75 -48.1 L22.05 -46.85 22.5 -45.85 Q21.15 -45.1 18.0 -44.35 L17.9 -44.35 17.0 -44.15 Q17.5 -44.25 17.9 -44.6 L18.05 -44.8 18.1 -44.85 Q18.7 -45.5 18.75 -46.5 18.75 -47.5 18.1 -48.2 17.45 -48.9 16.55 -48.85 15.6 -48.85 15.0 -48.2 14.6 -47.75 14.5 -47.15 L14.4 -46.5 Q14.35 -45.5 15.0 -44.8 15.6 -44.1 16.55 -44.1 L16.75 -44.1 M25.75 -27.1 Q23.95 -25.45 21.9 -24.9 L16.85 -24.25 13.6 -24.25 10.0 -24.4 Q8.55 -24.5 7.6 -25.2 L7.1 -25.65 7.1 -25.7 Q6.9 -26.0 7.25 -26.2 L6.15 -34.2 Q6.3 -37.0 8.3 -36.85 L13.5 -34.2 16.55 -32.5 20.35 -30.35 25.75 -27.1 M8.25 -6.4 L13.55 -4.55 15.4 -3.9 19.15 -2.6 19.85 -2.35 20.05 -1.15 20.35 1.5 Q13.9 2.05 7.55 3.55 2.4 4.75 -1.3 4.75 -2.15 4.75 -2.55 -0.65 L-2.65 -1.8 Q-2.65 -4.1 -2.2 -5.55 -1.85 -6.8 -1.15 -7.45 -0.3 -8.4 1.1 -8.4 L5.75 -7.2 8.25 -6.4" fill="#f9f8f7" fill-rule="evenodd" stroke="none"/>
    <path d="M-3.55 -101.4 L-2.45 -105.9 -2.1 -107.35 -0.15 -116.9 0.35 -119.55 Q0.65 -121.1 1.85 -123.95 3.0 -126.85 4.6 -129.15 6.15 -131.45 4.45 -134.45 5.6 -134.05 6.55 -133.45 L7.5 -132.8 10.95 -128.15 10.35 -126.85 Q8.35 -122.6 5.35 -118.9 L3.4 -116.7 3.2 -116.6 2.75 -117.75 4.25 -118.9 5.45 -120.15 Q6.8 -121.75 7.75 -123.75 L9.65 -128.0 6.5 -129.9 3.0 -123.3 1.2 -119.25 1.05 -118.85 -3.0 -102.75 -3.55 -101.4 M-5.4 -6.75 L-5.6 -16.35 -5.8 -21.05 -5.5 -21.05 -5.55 -48.85 Q-5.55 -58.55 -5.7 -60.75 -6.4 -70.2 -7.65 -74.65 -8.75 -78.4 -8.75 -79.45 -8.75 -82.45 -6.9 -88.8 L-5.3 -94.4 -1.65 -100.95 -2.15 -98.65 -4.85 -89.1 Q-5.65 -89.05 -6.2 -88.5 -6.85 -87.8 -6.85 -86.8 -6.9 -85.8 -6.2 -85.1 L-5.85 -84.8 Q-6.0 -83.3 -5.4 -82.7 -0.05 -84.35 2.1 -87.45 4.2 -90.45 4.2 -92.15 4.2 -93.35 3.35 -95.35 2.05 -98.3 -0.95 -102.2 L2.15 -107.7 6.6 -97.4 Q9.1 -91.55 9.1 -90.35 9.1 -88.35 8.75 -86.65 8.0 -83.2 5.9 -82.25 7.15 -81.3 11.05 -80.35 13.8 -79.65 13.8 -77.95 L11.55 -75.25 11.45 -75.15 12.85 -74.55 Q13.5 -74.25 13.5 -72.9 L11.6 -61.55 Q11.6 -61.3 13.15 -59.9 14.55 -58.65 14.65 -57.1 L6.85 -56.05 Q0.85 -55.15 0.85 -53.85 L0.95 -51.6 Q-0.55 -50.75 -1.9 -49.7 L-1.95 -41.0 -2.85 -41.15 Q-3.85 -41.15 -4.55 -40.5 -5.2 -39.8 -5.2 -38.8 -5.25 -37.8 -4.55 -37.1 -3.85 -36.4 -2.85 -36.4 L-2.6 -36.4 -2.35 -36.45 Q-1.95 -36.55 -1.6 -36.75 L-1.1 -35.3 Q-0.15 -33.2 1.5 -31.65 L1.55 -28.95 -4.0 -29.2 Q-3.25 -26.35 -3.9 -23.6 -3.6 -23.0 -2.9 -22.75 L-0.85 -22.3 1.7 -23.35 1.9 -20.05 1.9 -20.0 4.05 -20.15 2.9 -18.8 Q1.25 -17.1 -0.4 -16.75 L-0.7 -16.65 Q-1.3 -17.05 -2.0 -17.0 -3.0 -17.0 -3.7 -16.35 -4.35 -15.65 -4.35 -14.65 -4.4 -13.65 -3.7 -12.95 L-3.05 -12.45 -2.85 -11.0 Q-2.65 -9.7 -2.3 -9.3 -2.15 -9.15 -2.0 -9.15 L-1.8 -9.15 -1.4 -9.15 -1.3 -9.15 Q2.1 -9.25 6.75 -10.4 L11.45 -11.75 13.1 -12.25 Q19.05 -14.25 19.05 -15.0 L19.05 -15.05 18.95 -16.45 Q18.65 -18.0 17.85 -19.5 L16.55 -21.4 20.45 -21.85 21.2 -20.2 22.3 -17.3 22.5 -16.8 23.0 -15.35 23.65 -13.2 23.8 -12.05 23.55 -11.05 Q22.8 -9.75 20.0 -8.45 L19.85 -8.4 Q16.35 -7.0 15.15 -6.25 L14.8 -6.05 15.25 -5.9 Q18.05 -5.0 20.15 -3.7 L21.3 -2.95 22.95 -1.55 23.0 -1.5 Q24.65 0.3 25.0 2.1 L15.1 4.55 Q5.95 6.45 0.2 6.45 L-3.15 6.4 -5.4 -6.75 M-1.15 -64.5 L4.85 -68.15 Q8.75 -70.75 8.75 -73.6 8.75 -76.05 7.85 -76.9 6.85 -77.9 3.65 -77.9 2.9 -77.9 2.5 -77.4 L1.9 -76.6 -1.9 -75.3 Q-4.5 -74.15 -4.4 -67.3 L-4.1 -64.8 -4.55 -64.5 Q-5.2 -63.8 -5.2 -62.8 -5.25 -61.8 -4.55 -61.1 -4.15 -60.7 -3.6 -60.5 L-3.4 -58.5 3.7 -58.25 7.3 -58.55 Q8.45 -59.05 8.45 -61.2 8.45 -63.05 7.9 -63.2 L4.1 -63.05 -0.5 -63.25 Q-0.65 -64.0 -1.15 -64.5 M24.25 -54.25 L24.3 -54.05 Q27.4 -45.9 27.55 -44.3 L24.8 -43.85 18.45 -43.15 16.05 -42.95 10.55 -42.55 5.8 -42.45 5.7 -44.15 5.4 -47.3 4.9 -50.85 4.4 -52.25 7.7 -52.5 10.05 -52.75 12.15 -52.65 15.7 -52.9 20.9 -53.5 22.15 -53.65 24.15 -54.0 24.15 -54.35 24.25 -54.25 M17.0 -44.15 L17.9 -44.35 18.0 -44.35 Q21.15 -45.1 22.5 -45.85 L22.05 -46.85 21.75 -48.1 Q18.8 -48.25 9.7 -50.7 L7.25 -51.4 6.7 -51.55 6.4 -50.25 6.45 -49.5 Q6.65 -47.15 8.45 -44.8 L8.85 -44.3 Q9.15 -44.1 9.8 -44.05 L10.65 -44.0 Q13.15 -43.5 16.75 -44.1 L17.0 -44.15 M25.65 -39.4 L26.0 -39.45 26.1 -36.9 Q26.3 -32.7 26.75 -29.2 L26.8 -28.95 27.4 -25.5 25.25 -25.05 18.1 -23.7 14.9 -23.1 12.85 -22.75 6.5 -22.1 Q6.0 -22.15 5.55 -22.5 4.85 -23.1 4.35 -24.45 3.75 -26.1 3.35 -28.9 L3.15 -30.35 Q2.65 -34.3 2.55 -40.15 L3.65 -38.45 Q3.85 -38.2 4.35 -38.15 L10.25 -38.45 11.85 -38.55 19.4 -39.05 25.65 -39.4 M25.75 -27.1 L20.35 -30.35 16.55 -32.5 13.5 -34.2 8.3 -36.85 Q6.3 -37.0 6.15 -34.2 L7.25 -26.2 Q6.9 -26.0 7.1 -25.7 L7.1 -25.65 7.6 -25.2 Q8.55 -24.5 10.0 -24.4 L13.6 -24.25 16.85 -24.25 21.9 -24.9 Q23.95 -25.45 25.75 -27.1 M8.25 -6.4 L5.75 -7.2 1.1 -8.4 Q-0.3 -8.4 -1.15 -7.45 -1.85 -6.8 -2.2 -5.55 -2.65 -4.1 -2.65 -1.8 L-2.55 -0.65 Q-2.15 4.75 -1.3 4.75 2.4 4.75 7.55 3.55 13.9 2.05 20.35 1.5 L20.05 -1.15 19.85 -2.35 19.15 -2.6 15.4 -3.9 13.55 -4.55 8.25 -6.4 M-8.65 -119.7 L-13.7 -119.45 -8.1 -129.95 -6.2 -129.95 Q-8.25 -122.8 -8.65 -119.7 M-13.1 -118.05 L-8.95 -118.75 -9.2 -118.3 -9.55 -117.6 -12.65 -111.4 -17.95 -99.95 -17.6 -114.25 -13.1 -118.05 M-19.8 -28.45 Q-19.85 -26.15 -20.95 -18.75 L-21.0 -18.4 -21.3 -15.55 -21.4 -14.55 -21.5 -12.0 -21.6 -4.1 -21.6 -3.9 -21.5 -1.6 Q-21.5 -0.8 -21.85 1.6 L-22.65 5.6 -23.4 5.5 Q-23.1 2.0 -22.95 -3.4 L-22.9 -4.7 -22.8 -11.7 -22.8 -14.8 -22.8 -15.95 -22.8 -16.4 -22.2 -19.65 -21.0 -28.05 -19.95 -29.55 Q-19.75 -29.6 -19.8 -28.45" fill="#e3dfdb" fill-rule="evenodd" stroke="none"/>
    <path d="M6.75 -118.0 Q8.1 -119.45 8.95 -121.1 L10.7 -124.8 10.95 -125.5 13.0 -121.35 Q16.3 -115.15 21.55 -92.5 25.0 -70.65 25.9 -66.15 L27.3 -56.6 28.3 -51.85 28.4 -51.35 29.0 -48.55 34.75 -20.5 Q38.15 -4.2 38.15 1.9 38.15 5.6 29.6 9.2 19.05 13.65 2.5 13.65 L-0.55 13.35 Q-2.45 12.85 -3.35 12.1 -4.75 11.0 -5.15 8.85 L-1.15 9.75 1.7 10.15 Q19.75 10.15 26.75 6.1 30.55 3.95 30.55 1.1 L30.05 -0.7 28.4 -3.85 28.05 -4.55 27.5 -5.8 Q26.55 -7.85 26.55 -8.5 26.55 -9.2 27.5 -9.85 L28.0 -10.2 28.05 -10.2 Q29.45 -11.05 29.45 -11.95 29.45 -18.7 29.15 -20.0 28.85 -21.1 28.05 -22.2 L27.75 -22.6 29.25 -22.8 30.5 -23.2 Q30.3 -24.15 30.35 -25.25 30.45 -26.7 29.5 -31.3 L26.8 -43.15 28.85 -43.9 28.85 -44.05 26.05 -51.7 Q24.35 -56.6 23.5 -56.6 L21.8 -56.9 21.75 -58.75 Q21.7 -60.1 19.3 -62.7 L16.85 -65.45 17.25 -68.55 17.6 -71.7 Q17.6 -73.2 17.05 -75.5 L15.85 -79.35 Q15.55 -80.1 15.55 -86.95 15.55 -89.15 14.85 -91.8 L9.25 -111.7 Q7.95 -116.45 6.8 -117.95 L6.75 -118.0 M14.65 -57.1 L18.2 -57.6 19.2 -57.4 Q21.1 -56.95 21.15 -56.5 L14.4 -55.55 3.0 -54.25 3.45 -53.5 3.6 -52.95 4.75 -45.95 4.95 -44.35 5.15 -41.75 10.9 -41.5 14.85 -41.65 18.75 -41.85 25.1 -42.45 25.95 -42.65 Q26.3 -42.2 27.7 -33.85 L29.15 -24.0 26.8 -23.65 19.75 -22.65 15.9 -22.15 7.75 -21.25 4.5 -20.85 2.55 -20.4 1.9 -20.05 1.7 -23.35 1.55 -27.95 1.55 -28.95 1.5 -31.65 0.95 -51.6 0.85 -53.85 Q0.85 -55.15 6.85 -56.05 L14.65 -57.1 M24.25 -54.25 L24.15 -54.35 24.15 -54.0 22.15 -53.65 20.9 -53.5 15.7 -52.9 12.15 -52.65 10.05 -52.75 13.15 -53.65 16.5 -54.2 21.9 -54.9 23.85 -55.3 24.35 -54.05 24.25 -54.25 M25.65 -39.4 L19.4 -39.05 11.85 -38.55 10.25 -38.45 4.35 -38.15 Q3.85 -38.2 3.65 -38.45 L2.55 -40.15 Q2.65 -34.3 3.15 -30.35 L3.35 -28.9 Q3.75 -26.1 4.35 -24.45 4.85 -23.1 5.55 -22.5 6.0 -22.15 6.5 -22.1 L12.85 -22.75 14.9 -23.1 18.1 -23.7 25.25 -25.05 27.4 -25.5 26.8 -28.95 26.75 -29.2 Q26.3 -32.7 26.1 -36.9 L26.0 -39.45 25.65 -39.4 M-9.55 -117.6 L-9.2 -118.3 -9.25 -117.65 -9.55 -117.6 M-18.1 -48.8 Q-17.55 -51.1 -17.6 -52.35 -17.5 -55.15 -19.95 -56.6 L-20.65 -57.05 -21.1 -57.3 -20.9 -59.05 Q-20.9 -62.6 -25.8 -69.4 -30.75 -76.15 -30.75 -80.95 -30.75 -86.7 -27.4 -93.35 L-18.7 -109.85 -19.1 -105.7 Q-21.15 -102.85 -23.15 -99.0 -28.25 -89.4 -28.25 -81.8 -28.25 -81.25 -26.6 -79.5 L-24.95 -77.75 Q-24.95 -75.35 -23.5 -73.2 L-20.25 -69.4 Q-15.55 -63.9 -15.55 -56.4 -15.55 -53.05 -18.1 -48.85 L-18.1 -48.8 M-19.8 8.8 L-19.15 12.15 Q-19.35 11.8 -21.75 11.15 L-24.1 10.55 -27.55 9.65 -30.6 8.45 Q-34.25 6.25 -34.95 5.5 -36.0 4.25 -36.0 1.35 -36.0 -1.8 -35.15 -6.25 L-32.1 -20.45 -31.5 -23.05 -31.4 -23.35 Q-28.85 -21.45 -26.1 -20.8 L-27.25 -17.65 -27.7 -16.3 -28.5 -13.9 -29.45 -8.2 -29.75 -6.8 Q-30.5 -3.4 -31.35 -1.4 -32.5 1.3 -32.5 3.55 -32.5 4.4 -26.95 6.5 L-19.8 8.8 M-24.5 -22.9 L-23.95 -25.55 Q-23.8 -23.2 -23.15 -21.5 L-23.3 -20.6 -24.5 -22.9 M-23.25 -28.7 L-20.6 -39.65 -19.2 -34.75 Q-19.2 -34.4 -19.8 -33.6 L-21.05 -32.0 -22.75 -29.45 -23.25 -28.7 M-27.75 -48.3 L-28.8 -49.55 -25.75 -55.65 Q-24.55 -58.15 -24.0 -57.8 L-23.8 -57.6 -23.5 -57.6 Q-22.6 -57.55 -22.1 -57.05 L-21.35 -56.15 -18.5 -53.0 -19.2 -52.3 -23.45 -55.6 -23.45 -55.55 -25.5 -52.45 -27.75 -48.3 M-25.3 -44.75 L-25.05 -44.7 -24.2 -44.6 Q-21.0 -46.25 -18.9 -49.85 L-19.45 -46.25 -20.7 -40.05 -21.7 -35.6 -23.65 -28.0 -24.0 -26.8 -24.95 -23.75 -25.45 -22.6 Q-29.65 -24.0 -31.05 -24.8 -31.75 -25.2 -31.75 -25.45 L-31.15 -29.15 -28.8 -38.3 -26.95 -45.6 -26.6 -45.3 Q-26.05 -44.95 -25.3 -44.75 M-24.4 -43.8 Q-24.95 -43.9 -25.45 -43.5 -26.55 -42.55 -27.25 -39.05 L-28.35 -34.4 -29.95 -27.3 -29.9 -26.6 -29.8 -26.3 -27.75 -26.1 Q-26.4 -26.15 -24.4 -33.1 -22.7 -39.3 -22.6 -41.3 -22.6 -43.4 -24.4 -43.8" fill="#a29993" fill-rule="evenodd" stroke="none"/>
    <path d="M1.05 -118.85 L1.2 -119.25 1.75 -120.25 2.75 -117.75 3.2 -116.6 3.15 -116.45 2.1 -116.7 1.9 -116.6 1.05 -118.85 M-5.15 8.85 L-5.4 -6.75 -3.15 6.4 0.2 6.45 Q5.95 6.45 15.1 4.55 L25.0 2.1 Q24.65 0.3 23.0 -1.5 L22.95 -1.55 21.3 -2.95 20.15 -3.7 Q18.05 -5.0 15.25 -5.9 L14.8 -6.05 15.15 -6.25 Q16.35 -7.0 19.85 -8.4 L20.0 -8.45 Q22.8 -9.75 23.55 -11.05 L23.8 -12.05 23.65 -13.2 23.0 -15.35 22.5 -16.8 22.3 -17.3 21.2 -20.2 20.45 -21.85 23.1 -22.15 27.75 -22.6 28.05 -22.2 Q28.85 -21.1 29.15 -20.0 29.45 -18.7 29.45 -11.95 29.45 -11.05 28.05 -10.2 L28.0 -10.2 27.5 -9.85 Q26.55 -9.2 26.55 -8.5 26.55 -7.85 27.5 -5.8 L28.05 -4.55 28.4 -3.85 30.05 -0.7 30.55 1.1 Q30.55 3.95 26.75 6.1 19.75 10.15 1.7 10.15 L-1.15 9.75 -5.15 8.85 M2.15 -107.7 L4.65 -112.15 3.55 -115.55 Q5.4 -116.65 6.75 -118.0 L6.8 -117.95 Q7.95 -116.45 9.25 -111.7 L14.85 -91.8 Q15.55 -89.15 15.55 -86.95 15.55 -80.1 15.85 -79.35 L17.05 -75.5 Q17.6 -73.2 17.6 -71.7 L17.25 -68.55 16.85 -65.45 19.3 -62.7 Q21.7 -60.1 21.75 -58.75 L21.8 -56.9 19.2 -57.4 18.2 -57.6 14.65 -57.1 Q14.55 -58.65 13.15 -59.9 11.6 -61.3 11.6 -61.55 L13.5 -72.9 Q13.5 -74.25 12.85 -74.55 L11.45 -75.15 11.55 -75.25 13.8 -77.95 Q13.8 -79.65 11.05 -80.35 7.15 -81.3 5.9 -82.25 8.0 -83.2 8.75 -86.65 9.1 -88.35 9.1 -90.35 9.1 -91.55 6.6 -97.4 L2.15 -107.7 M-6.2 -129.95 L-8.1 -129.95 -13.7 -119.45 -8.65 -119.7 -8.95 -118.75 -13.1 -118.05 Q-13.1 -118.5 -13.5 -118.4 L-13.9 -118.3 -14.9 -117.75 -8.85 -130.3 Q-6.5 -132.95 -4.2 -134.1 L-6.05 -130.45 -6.2 -129.95 M-9.25 -117.65 L-12.65 -111.4 -9.55 -117.6 -9.25 -117.65 M-19.1 -105.7 L-19.3 -103.35 Q-19.65 -99.1 -20.35 -94.9 L-20.4 -94.6 -20.25 -94.85 Q-23.8 -85.75 -23.8 -80.65 L-23.6 -77.3 -23.55 -76.4 Q-23.2 -74.8 -20.7 -71.35 -18.45 -68.2 -18.2 -68.2 -16.6 -68.2 -15.2 -63.45 L-14.15 -58.65 Q-14.15 -56.5 -14.75 -52.3 L-17.5 -35.05 -17.8 -33.35 -17.9 -32.65 -18.65 -27.85 -19.25 -22.25 Q-19.7 -17.45 -19.55 -13.9 -19.35 -10.35 -19.3 -6.5 -19.3 0.65 -19.8 8.8 L-26.95 6.5 Q-32.5 4.4 -32.5 3.55 -32.5 1.3 -31.35 -1.4 -30.5 -3.4 -29.75 -6.8 L-29.45 -8.2 -28.5 -13.9 -27.7 -16.3 -27.25 -17.65 -26.1 -20.8 -25.6 -20.7 -25.05 -20.55 -24.5 -22.9 -23.3 -20.6 -23.15 -21.5 Q-23.8 -23.2 -23.95 -25.55 L-23.25 -28.7 -22.75 -29.45 -21.05 -32.0 -19.8 -33.6 Q-19.2 -34.4 -19.2 -34.75 L-20.6 -39.65 -18.6 -47.05 -18.1 -48.8 -18.1 -48.85 Q-15.55 -53.05 -15.55 -56.4 -15.55 -63.9 -20.25 -69.4 L-23.5 -73.2 Q-24.95 -75.35 -24.95 -77.75 L-26.6 -79.5 Q-28.25 -81.25 -28.25 -81.8 -28.25 -89.4 -23.15 -99.0 -21.15 -102.85 -19.1 -105.7 M-27.75 -48.3 L-25.5 -52.45 -23.45 -55.55 -23.45 -55.6 -19.2 -52.3 Q-21.15 -48.75 -22.5 -47.05 L-23.6 -46.1 -24.6 -46.15 Q-25.4 -46.35 -26.05 -46.85 L-26.1 -46.9 -27.75 -48.3 M-19.8 -28.45 Q-19.75 -29.6 -19.95 -29.55 L-21.0 -28.05 -22.2 -19.65 -22.8 -16.4 -22.8 -15.95 -22.8 -14.8 -22.8 -11.7 -22.9 -4.7 -22.95 -3.4 Q-23.1 2.0 -23.4 5.5 L-22.65 5.6 -21.85 1.6 Q-21.5 -0.8 -21.5 -1.6 L-21.6 -3.9 -21.6 -4.1 -21.5 -12.0 -21.4 -14.55 -21.3 -15.55 -21.0 -18.4 -20.95 -18.75 Q-19.85 -26.15 -19.8 -28.45 M-24.4 -43.8 Q-22.6 -43.4 -22.6 -41.3 -22.7 -39.3 -24.4 -33.1 -26.4 -26.15 -27.75 -26.1 L-29.8 -26.3 -29.9 -26.6 -29.95 -27.3 -28.35 -34.4 -27.25 -39.05 Q-26.55 -42.55 -25.45 -43.5 -24.95 -43.9 -24.4 -43.8" fill="#c5beba" fill-rule="evenodd" stroke="none"/>
    <path d="M5.65 -134.8 L7.85 -133.95 11.65 -128.6 11.55 -127.5 13.25 -124.65 Q17.4 -117.1 23.2 -96.9 25.5 -75.2 26.5 -69.1 L27.35 -60.25 Q27.8 -56.3 29.35 -51.05 L29.5 -50.55 Q31.65 -45.25 34.85 -25.4 L38.95 -5.95 40.1 -0.1 Q40.25 1.35 39.85 4.1 39.45 6.8 29.55 10.9 19.6 14.95 3.1 14.95 L0.3 14.7 -3.45 14.05 Q-6.1 13.3 -6.25 10.05 L-7.2 -19.9 -7.2 -20.2 -7.2 -20.5 -7.15 -27.75 -7.35 -34.05 -7.45 -41.5 -7.05 -63.25 Q-7.05 -69.1 -8.7 -74.3 -10.35 -79.45 -10.35 -80.55 -10.35 -84.8 -6.7 -97.2 -2.75 -110.7 -2.55 -112.15 -1.55 -119.2 1.7 -125.1 4.65 -130.45 4.65 -131.2 4.65 -132.8 3.55 -133.75 2.45 -134.7 0.6 -134.7 -3.65 -134.7 -5.3 -130.25 -6.45 -124.65 -7.15 -122.35 -8.1 -119.25 -7.85 -117.4 -7.8 -117.05 -11.7 -110.5 -14.55 -105.75 -18.3 -96.3 -22.7 -85.3 -22.7 -80.65 -22.7 -74.45 -17.9 -69.15 -15.35 -66.3 -14.65 -65.15 -13.15 -62.75 -13.15 -59.9 -13.15 -46.2 -16.0 -36.25 -17.45 -28.4 -17.75 -18.2 L-18.2 -1.85 Q-18.3 4.25 -18.0 12.85 L-19.85 12.9 -22.5 12.45 -30.95 9.75 Q-35.15 8.35 -36.6 6.0 -37.6 4.35 -37.6 1.05 -37.6 -7.45 -32.7 -25.1 L-32.8 -25.3 Q-32.75 -29.45 -30.5 -37.6 -28.25 -45.75 -28.2 -46.55 -28.15 -47.8 -29.55 -48.8 -29.55 -50.55 -27.3 -54.6 -25.7 -57.5 -24.6 -58.45 L-23.55 -58.35 -23.65 -59.55 Q-24.05 -63.1 -25.0 -64.5 -28.0 -68.85 -30.2 -74.1 -32.1 -78.8 -32.1 -80.85 -32.1 -85.45 -30.85 -88.9 L-27.75 -95.4 -20.3 -109.5 -18.3 -113.3 -18.2 -113.7 Q-17.8 -114.9 -17.0 -115.9 L-15.45 -118.9 Q-15.05 -121.55 -13.75 -124.2 L-10.5 -129.15 -8.15 -132.35 Q-6.25 -134.3 -2.1 -135.95 2.0 -137.6 5.55 -134.9 L5.65 -134.8 M3.4 -116.7 L5.35 -118.9 Q8.35 -122.6 10.35 -126.85 L10.95 -128.15 7.5 -132.8 6.55 -133.45 Q5.6 -134.05 4.45 -134.45 6.15 -131.45 4.6 -129.15 3.0 -126.85 1.85 -123.95 0.65 -121.1 0.35 -119.55 L-0.15 -116.9 -2.1 -107.35 -2.45 -105.9 -3.55 -101.4 -4.95 -97.6 3.25 -113.15 1.95 -116.1 1.9 -116.6 2.1 -116.7 3.15 -116.45 3.4 -116.7 M-5.15 8.85 Q-4.75 11.0 -3.35 12.1 -2.45 12.85 -0.55 13.35 L2.5 13.65 Q19.05 13.65 29.6 9.2 38.15 5.6 38.15 1.9 38.15 -4.2 34.75 -20.5 L29.0 -48.55 28.4 -51.35 28.3 -51.85 27.3 -56.6 25.9 -66.15 Q25.0 -70.65 21.55 -92.5 16.3 -115.15 13.0 -121.35 L10.95 -125.5 10.7 -124.8 8.95 -121.1 Q8.1 -119.45 6.75 -118.0 5.4 -116.65 3.55 -115.55 L4.65 -112.15 2.15 -107.7 -0.95 -102.2 -1.65 -100.95 -5.3 -94.4 -6.9 -88.8 Q-8.75 -82.45 -8.75 -79.45 -8.75 -78.4 -7.65 -74.65 -6.4 -70.2 -5.7 -60.75 -5.55 -58.55 -5.55 -48.85 L-5.5 -21.05 -5.8 -21.05 -5.6 -16.35 -5.4 -6.75 -5.15 8.85 M21.8 -56.9 L23.5 -56.6 Q24.35 -56.6 26.05 -51.7 L28.85 -44.05 28.85 -43.9 26.8 -43.15 29.5 -31.3 Q30.45 -26.7 30.35 -25.25 30.3 -24.15 30.5 -23.2 L29.25 -22.8 27.75 -22.6 23.1 -22.15 20.45 -21.85 16.55 -21.4 13.35 -21.0 5.85 -20.25 4.05 -20.15 1.9 -20.0 1.9 -20.05 2.55 -20.4 4.5 -20.85 7.75 -21.25 15.9 -22.15 19.75 -22.65 26.8 -23.65 29.15 -24.0 27.7 -33.85 Q26.3 -42.2 25.95 -42.65 L25.1 -42.45 18.75 -41.85 14.85 -41.65 10.9 -41.5 5.15 -41.75 4.95 -44.35 4.75 -45.95 3.6 -52.95 3.45 -53.5 Q3.8 -53.5 4.1 -53.15 L4.15 -53.1 4.4 -52.25 4.9 -50.85 5.4 -47.3 5.7 -44.15 5.8 -42.45 10.55 -42.55 16.05 -42.95 18.45 -43.15 24.8 -43.85 27.55 -44.3 Q27.4 -45.9 24.3 -54.05 L24.25 -54.25 24.35 -54.05 23.85 -55.3 Q22.6 -56.25 21.85 -56.45 L21.15 -56.5 Q21.1 -56.95 19.2 -57.4 L21.8 -56.9 M-6.2 -129.95 L-6.05 -130.45 -4.2 -134.1 Q-6.5 -132.95 -8.85 -130.3 L-14.9 -117.75 -13.9 -118.3 -13.5 -118.4 Q-13.1 -118.5 -13.1 -118.05 L-17.6 -114.25 -17.95 -99.95 -12.65 -111.4 -9.25 -117.65 -9.2 -118.3 -8.95 -118.75 -8.65 -119.7 Q-8.25 -122.8 -6.2 -129.95 M-19.1 -105.7 L-18.7 -109.85 -27.4 -93.35 Q-30.75 -86.7 -30.75 -80.95 -30.75 -76.15 -25.8 -69.4 -20.9 -62.6 -20.9 -59.05 L-21.1 -57.3 -20.65 -57.05 -19.95 -56.6 Q-17.5 -55.15 -17.6 -52.35 -17.55 -51.1 -18.1 -48.8 L-18.6 -47.05 -20.6 -39.65 -23.25 -28.7 -23.95 -25.55 -24.5 -22.9 -25.05 -20.55 -25.6 -20.7 -26.1 -20.8 Q-28.85 -21.45 -31.4 -23.35 L-31.5 -23.05 -32.1 -20.45 -35.15 -6.25 Q-36.0 -1.8 -36.0 1.35 -36.0 4.25 -34.95 5.5 -34.25 6.25 -30.6 8.45 L-27.55 9.65 -24.1 10.55 -21.75 11.15 Q-19.35 11.8 -19.15 12.15 L-19.8 8.8 Q-19.3 0.65 -19.3 -6.5 -19.35 -10.35 -19.55 -13.9 -19.7 -17.45 -19.25 -22.25 L-18.65 -27.85 -17.9 -32.65 -17.8 -33.35 -17.5 -35.05 -14.75 -52.3 Q-14.15 -56.5 -14.15 -58.65 L-15.2 -63.45 Q-16.6 -68.2 -18.2 -68.2 -18.45 -68.2 -20.7 -71.35 -23.2 -74.8 -23.55 -76.4 L-23.6 -77.3 -23.8 -80.65 Q-23.8 -85.75 -20.25 -94.85 L-20.4 -94.6 -20.35 -94.9 Q-19.65 -99.1 -19.3 -103.35 L-19.1 -105.7 M-19.2 -52.3 L-18.5 -53.0 -21.35 -56.15 -22.1 -57.05 Q-22.6 -57.55 -23.5 -57.6 L-23.8 -57.6 -24.0 -57.8 Q-24.55 -58.15 -25.75 -55.65 L-28.8 -49.55 -27.75 -48.3 -26.1 -46.9 -26.05 -46.85 Q-25.4 -46.35 -24.6 -46.15 L-23.6 -46.1 -22.5 -47.05 Q-21.15 -48.75 -19.2 -52.3 M-25.3 -44.75 Q-26.05 -44.95 -26.6 -45.3 L-26.95 -45.6 -28.8 -38.3 -31.15 -29.15 -31.75 -25.45 Q-31.75 -25.2 -31.05 -24.8 -29.65 -24.0 -25.45 -22.6 L-24.95 -23.75 -24.0 -26.8 -23.65 -28.0 -21.7 -35.6 -20.7 -40.05 -19.45 -46.25 -18.9 -49.85 Q-21.0 -46.25 -24.2 -44.6 L-25.05 -44.7 -25.3 -44.75" fill="#514a46" fill-rule="evenodd" stroke="none"/>
    <path d="M-5.85 -84.8 L-6.2 -85.1 Q-6.9 -85.8 -6.85 -86.8 -6.85 -87.8 -6.2 -88.5 -5.65 -89.05 -4.85 -89.1 L-4.5 -89.15 Q-3.5 -89.2 -2.8 -88.5 -2.1 -87.8 -2.1 -86.8 -2.15 -85.8 -2.8 -85.15 L-2.85 -85.1 Q-3.35 -84.6 -4.0 -84.45 L-4.25 -84.4 -4.5 -84.4 -5.85 -84.8 M-1.15 -64.5 Q-0.65 -64.0 -0.5 -63.25 L-0.45 -62.8 Q-0.5 -61.8 -1.15 -61.15 L-1.2 -61.1 Q-1.7 -60.6 -2.35 -60.45 L-2.6 -60.4 -2.85 -60.4 -3.6 -60.5 Q-4.15 -60.7 -4.55 -61.1 -5.25 -61.8 -5.2 -62.8 -5.2 -63.8 -4.55 -64.5 L-4.1 -64.8 -2.85 -65.15 Q-1.85 -65.2 -1.15 -64.5 M17.0 -44.15 L16.75 -44.1 16.55 -44.1 Q15.6 -44.1 15.0 -44.8 14.35 -45.5 14.4 -46.5 L14.5 -47.15 Q14.6 -47.75 15.0 -48.2 15.6 -48.85 16.55 -48.85 17.45 -48.9 18.1 -48.2 18.75 -47.5 18.75 -46.5 18.7 -45.5 18.1 -44.85 L18.05 -44.8 17.9 -44.6 Q17.5 -44.25 17.0 -44.15 M15.5 -47.7 L15.45 -47.65 15.1 -47.0 15.05 -46.5 Q15.05 -45.8 15.5 -45.35 15.9 -44.9 16.55 -44.85 17.1 -44.85 17.55 -45.25 L17.6 -45.35 Q18.05 -45.8 18.05 -46.5 L17.6 -47.65 Q17.15 -48.1 16.55 -48.1 15.9 -48.15 15.5 -47.7 M-3.05 -12.45 L-3.7 -12.95 Q-4.4 -13.65 -4.35 -14.65 -4.35 -15.65 -3.7 -16.35 -3.0 -17.0 -2.0 -17.0 -1.3 -17.05 -0.7 -16.65 L-0.3 -16.35 Q0.4 -15.65 0.4 -14.65 0.35 -13.65 -0.3 -13.0 L-0.35 -12.95 Q-0.85 -12.45 -1.5 -12.3 L-1.75 -12.25 -2.0 -12.25 -3.05 -12.45 M-5.1 -88.3 L-5.65 -88.0 -5.7 -87.95 Q-6.15 -87.5 -6.1 -86.8 -6.1 -86.2 -5.75 -85.75 L-5.65 -85.65 Q-5.2 -85.2 -4.5 -85.15 -3.8 -85.15 -3.35 -85.65 -2.85 -86.1 -2.85 -86.8 -2.9 -87.5 -3.35 -87.95 -3.8 -88.4 -4.5 -88.4 L-5.1 -88.3 M-4.0 -64.0 L-4.05 -63.95 Q-4.5 -63.5 -4.45 -62.8 -4.45 -62.1 -4.0 -61.65 L-3.7 -61.4 -2.85 -61.15 Q-2.15 -61.15 -1.7 -61.65 -1.2 -62.1 -1.2 -62.8 L-1.3 -63.3 -1.7 -63.95 -1.85 -64.05 -2.85 -64.4 Q-3.55 -64.45 -4.0 -64.0 M-1.95 -41.0 Q-1.5 -40.85 -1.15 -40.5 -0.45 -39.8 -0.45 -38.8 -0.5 -37.8 -1.15 -37.15 L-1.2 -37.1 -1.6 -36.75 Q-1.95 -36.55 -2.35 -36.45 L-2.6 -36.4 -2.85 -36.4 Q-3.85 -36.4 -4.55 -37.1 -5.25 -37.8 -5.2 -38.8 -5.2 -39.8 -4.55 -40.5 -3.85 -41.15 -2.85 -41.15 L-1.95 -41.0 M-4.0 -40.0 L-4.05 -39.95 Q-4.5 -39.5 -4.45 -38.8 -4.45 -38.1 -4.0 -37.65 -3.55 -37.2 -2.85 -37.15 -2.25 -37.15 -1.8 -37.55 L-1.7 -37.65 Q-1.2 -38.1 -1.2 -38.8 -1.25 -39.5 -1.7 -39.95 L-1.95 -40.15 -2.85 -40.4 Q-3.55 -40.45 -4.0 -40.0 M-2.0 -16.25 L-2.5 -16.2 -3.15 -15.85 -3.2 -15.8 Q-3.65 -15.35 -3.6 -14.65 -3.6 -13.95 -3.15 -13.5 L-3.1 -13.45 Q-2.65 -13.05 -2.0 -13.0 -1.3 -13.0 -0.85 -13.5 -0.35 -13.95 -0.35 -14.65 -0.4 -15.35 -0.85 -15.8 -1.3 -16.25 -2.0 -16.25" fill="#5d5d5b" fill-rule="evenodd" stroke="none"/>
    <path d="M15.5 -47.7 Q15.9 -48.15 16.55 -48.1 17.15 -48.1 17.6 -47.65 L18.05 -46.5 Q18.05 -45.8 17.6 -45.35 L17.55 -45.25 Q17.1 -44.85 16.55 -44.85 15.9 -44.9 15.5 -45.35 15.05 -45.8 15.05 -46.5 L15.1 -47.0 15.45 -47.65 15.5 -47.7 M-5.1 -88.3 L-4.5 -88.4 Q-3.8 -88.4 -3.35 -87.95 -2.9 -87.5 -2.85 -86.8 -2.85 -86.1 -3.35 -85.65 -3.8 -85.15 -4.5 -85.15 -5.2 -85.2 -5.65 -85.65 L-5.75 -85.75 Q-6.1 -86.2 -6.1 -86.8 -6.15 -87.5 -5.7 -87.95 L-5.65 -88.0 -5.1 -88.3 M-4.0 -64.0 Q-3.55 -64.45 -2.85 -64.4 L-1.85 -64.05 -1.7 -63.95 -1.3 -63.3 -1.2 -62.8 Q-1.2 -62.1 -1.7 -61.65 -2.15 -61.15 -2.85 -61.15 L-3.7 -61.4 -4.0 -61.65 Q-4.45 -62.1 -4.45 -62.8 -4.5 -63.5 -4.05 -63.95 L-4.0 -64.0 M-4.0 -40.0 Q-3.55 -40.45 -2.85 -40.4 L-1.95 -40.15 -1.7 -39.95 Q-1.25 -39.5 -1.2 -38.8 -1.2 -38.1 -1.7 -37.65 L-1.8 -37.55 Q-2.25 -37.15 -2.85 -37.15 -3.55 -37.2 -4.0 -37.65 -4.45 -38.1 -4.45 -38.8 -4.5 -39.5 -4.05 -39.95 L-4.0 -40.0 M-2.0 -16.25 Q-1.3 -16.25 -0.85 -15.8 -0.4 -15.35 -0.35 -14.65 -0.35 -13.95 -0.85 -13.5 -1.3 -13.0 -2.0 -13.0 -2.65 -13.05 -3.1 -13.45 L-3.15 -13.5 Q-3.6 -13.95 -3.6 -14.65 -3.65 -15.35 -3.2 -15.8 L-3.15 -15.85 -2.5 -16.2 -2.0 -16.25" fill="#faf9f5" fill-rule="evenodd" stroke="none"/>
  </g>
</svg>
