<?xml version="1.0" encoding="UTF-8" standalone="no"?>
<svg xmlns:ffdec="https://www.free-decompiler.com/flash" xmlns:xlink="http://www.w3.org/1999/xlink" ffdec:objectType="shape" height="64.65px" width="109.0px" xmlns="http://www.w3.org/2000/svg">
  <g transform="matrix(1.0, 0.0, 0.0, 1.0, 0.0, 0.0)">
    <path d="M88.65 0.0 L109.0 52.6 Q92.9 44.4 93.85 29.5 86.4 47.75 92.05 64.65 78.85 58.5 78.45 42.65 67.45 50.7 70.3 59.0 58.45 51.95 56.95 45.75 L56.95 45.8 Q56.65 44.15 56.95 42.65 52.1 50.0 40.75 53.2 42.0 46.85 37.65 45.7 32.6 50.35 22.0 53.05 29.9 40.35 27.35 38.5 19.6 40.4 10.05 37.4 13.25 36.25 22.95 25.1 5.05 28.75 0.0 19.7 12.3 20.45 17.1 16.45 21.3 21.3 26.35 24.45 29.15 26.2 32.25 27.5 37.95 29.75 44.5 30.3 61.2 31.6 73.95 20.7 83.9 12.2 86.9 0.2 L88.65 0.0" fill="#231810" fill-rule="evenodd" stroke="none"/>
  </g>
</svg>
