<?xml version="1.0" encoding="UTF-8" standalone="no"?>
<svg xmlns:ffdec="https://www.free-decompiler.com/flash" xmlns:xlink="http://www.w3.org/1999/xlink" ffdec:objectType="shape" height="41.2px" width="201.0px" xmlns="http://www.w3.org/2000/svg">
  <g transform="matrix(1.0, 0.0, 0.0, 1.0, 100.5, 20.6)">
    <path d="M-94.95 0.7 Q-96.35 -0.05 -97.5 -1.2 -100.5 -4.25 -100.5 -8.6 L-100.5 -10.1 -100.5 -10.2 -100.4 -11.5 Q-100.0 -15.0 -97.5 -17.55 -94.4 -20.6 -90.05 -20.6 L90.05 -20.6 Q94.35 -20.6 97.4 -17.55 100.0 -15.0 100.45 -11.5 L100.5 -10.2 100.5 -10.1 100.5 -8.6 Q100.5 -4.25 97.4 -1.2 L94.95 0.7 92.05 0.7 Q94.7 0.15 96.7 -1.9 99.5 -4.65 99.5 -8.6 L99.5 -10.1 99.5 -10.2 99.45 -11.35 Q99.0 -14.5 96.7 -16.85 93.95 -19.6 90.05 -19.6 L-90.05 -19.6 Q-94.0 -19.6 -96.8 -16.85 -99.05 -14.55 -99.4 -11.4 L-99.4 -11.35 -99.5 -10.2 -99.5 -10.1 -99.5 -8.6 Q-99.5 -4.65 -96.8 -1.9 -94.75 0.15 -92.05 0.7 L-94.95 0.7 M-0.15 20.6 L-0.2 20.55 -0.45 20.3 -8.1 1.95 -7.0 1.95 -0.15 18.5 -0.15 20.6" fill="#a98e67" fill-rule="evenodd" stroke="none"/>
    <path d="M-92.05 0.7 Q-94.75 0.15 -96.8 -1.9 -99.5 -4.65 -99.5 -8.6 L-99.5 -10.1 -99.5 -10.2 -97.9 -10.2 -97.95 -9.6 Q-97.95 -6.0 -95.4 -3.45 -92.8 -0.85 -89.2 -0.85 L89.3 -0.85 Q92.9 -0.85 95.45 -3.45 98.05 -6.0 98.05 -9.6 L98.05 -10.2 99.5 -10.2 99.5 -10.1 99.5 -8.6 Q99.5 -4.65 96.7 -1.9 94.7 0.15 92.05 0.7 L90.05 0.9 7.8 0.9 7.55 1.0 7.35 1.2 0.0 18.85 -0.15 18.5 -7.0 1.95 -7.35 1.2 -7.5 1.0 -7.8 0.9 -90.05 0.9 -92.05 0.7" fill="#fee65a" fill-rule="evenodd" stroke="none"/>
    <path d="M-99.5 -10.2 L-99.4 -11.35 -99.4 -11.4 Q-99.05 -14.55 -96.8 -16.85 -94.0 -19.6 -90.05 -19.6 L90.05 -19.6 Q93.95 -19.6 96.7 -16.85 99.0 -14.5 99.45 -11.35 L99.5 -10.2 98.05 -10.2 98.0 -10.65 97.9 -11.45 Q97.35 -13.9 95.45 -15.8 92.9 -18.35 89.3 -18.35 L-89.2 -18.35 Q-92.8 -18.35 -95.4 -15.8 -97.25 -13.9 -97.75 -11.45 L-97.9 -10.3 -97.9 -10.2 -99.5 -10.2" fill="#ffffff" fill-rule="evenodd" stroke="none"/>
    <path d="M-97.9 -10.2 L-97.9 -10.3 -97.75 -11.45 Q-97.25 -13.9 -95.4 -15.8 -92.8 -18.35 -89.2 -18.35 L89.3 -18.35 Q92.9 -18.35 95.45 -15.8 97.35 -13.9 97.9 -11.45 L98.0 -10.65 98.05 -10.2 98.05 -9.6 Q98.05 -6.0 95.45 -3.45 92.9 -0.85 89.3 -0.85 L-89.2 -0.85 Q-92.8 -0.85 -95.4 -3.45 -97.95 -6.0 -97.95 -9.6 L-97.9 -10.2" fill="#ffff93" fill-rule="evenodd" stroke="none"/>
    <path d="M-94.95 0.7 L-92.05 0.7 -90.05 0.9 -7.8 0.9 -7.5 1.0 -7.35 1.2 -7.0 1.95 -8.1 1.95 -8.1 1.9 -90.05 1.9 Q-92.75 1.9 -94.95 0.7 M92.05 0.7 L94.95 0.7 Q92.75 1.9 90.05 1.9 L8.15 1.9 8.1 1.95 0.45 20.3 0.2 20.55 -0.15 20.6 -0.15 18.5 0.0 18.85 7.35 1.2 7.55 1.0 7.8 0.9 90.05 0.9 92.05 0.7" fill="#87704b" fill-rule="evenodd" stroke="none"/>
  </g>
</svg>
