<?xml version="1.0" encoding="UTF-8" standalone="no"?>
<svg xmlns:ffdec="https://www.free-decompiler.com/flash" xmlns:xlink="http://www.w3.org/1999/xlink" ffdec:objectType="shape" height="25.9px" width="35.65px" xmlns="http://www.w3.org/2000/svg">
  <g transform="matrix(1.0, 0.0, 0.0, 1.0, -2.35, 6.45)">
    <path d="M10.1 3.3 L20.45 -2.65 Q24.05 -4.4 27.15 -4.4 30.25 -4.4 32.3 -2.9 34.15 -1.5 36.1 1.95 34.55 1.25 33.4 1.25 30.2 1.25 24.65 3.7 19.15 6.15 15.1 6.15 11.5 4.95 10.1 3.3" fill="#e5e5e5" fill-rule="evenodd" stroke="none"/>
    <path d="M34.0 13.15 L31.85 14.7 Q31.85 12.95 30.95 11.35 29.9 9.5 28.25 9.5 27.7 9.5 26.55 11.1 L24.9 13.1 Q23.55 13.85 22.1 13.85 L20.3 13.45 18.5 12.5 Q19.0 9.8 21.8 8.55 23.65 7.75 25.9 7.75 30.65 7.75 32.45 9.85 33.45 11.05 34.0 13.15" fill="#b45f50" fill-rule="evenodd" stroke="none"/>
    <path d="M31.85 14.7 L30.05 15.65 Q29.95 14.65 29.4 14.15 28.9 13.75 27.35 13.2 28.05 11.8 28.15 10.2 L27.65 11.2 Q26.5 13.1 24.85 14.3 23.15 15.55 21.6 15.55 L18.55 15.3 Q18.25 13.8 18.5 12.5 L20.3 13.45 22.1 13.85 Q23.55 13.85 24.9 13.1 L26.55 11.1 Q27.7 9.5 28.25 9.5 29.9 9.5 30.95 11.35 31.85 12.95 31.85 14.7" fill="#a05345" fill-rule="evenodd" stroke="none"/>
    <path d="M36.1 1.95 Q34.15 -1.5 32.3 -2.9 30.25 -4.4 27.15 -4.4 24.05 -4.4 20.45 -2.65 L10.1 3.3 9.3 4.0 9.25 3.95 5.75 7.1 Q7.5 7.7 8.3 11.15 9.05 14.3 8.6 17.85 L15.15 18.1 21.45 18.0 Q24.15 17.8 26.2 17.0 L30.05 15.65 31.85 14.7 34.0 13.15 35.5 11.3 Q36.2 10.0 36.6 7.35 36.95 4.6 36.6 3.55 L36.1 1.95 M18.3 -3.0 Q24.15 -6.45 28.75 -6.45 32.3 -6.45 35.05 -3.3 38.0 0.2 38.0 5.6 38.0 12.2 33.15 15.45 28.2 18.8 17.0 19.45 L7.2 19.45 7.35 11.8 Q7.15 8.1 4.45 8.1 L2.35 8.15 Q14.25 -0.65 18.3 -3.0 M26.15 17.0 L26.2 17.0 26.15 17.0" fill="#682424" fill-rule="evenodd" stroke="none"/>
    <path d="M36.6 3.55 Q36.95 4.6 36.6 7.35 36.2 10.0 35.5 11.3 34.75 9.95 33.4 8.75 30.65 6.5 25.9 6.5 22.85 6.5 20.1 8.5 17.05 10.75 17.05 14.0 17.05 16.95 20.45 16.95 L22.2 16.8 Q22.8 16.6 24.3 15.45 25.6 14.45 26.15 14.45 27.15 14.45 27.55 15.2 L26.1 17.0 26.15 17.0 26.2 17.0 Q24.15 17.8 21.45 18.0 L15.15 18.1 8.6 17.85 Q9.05 14.3 8.3 11.15 7.5 7.7 5.75 7.1 L9.25 3.95 9.3 4.0 11.35 6.0 Q13.25 7.85 14.55 7.85 15.55 7.85 19.9 5.75 24.55 3.5 28.35 3.0 L32.55 2.55 Q33.75 2.55 36.6 3.55" fill="#2c1514" fill-rule="evenodd" stroke="none"/>
    <path d="M36.1 1.95 L36.6 3.55 Q33.75 2.55 32.55 2.55 L28.35 3.0 Q24.55 3.5 19.9 5.75 15.55 7.85 14.55 7.85 13.25 7.85 11.35 6.0 L9.3 4.0 10.1 3.3 Q11.5 4.95 15.1 6.15 19.15 6.15 24.65 3.7 30.2 1.25 33.4 1.25 34.55 1.25 36.1 1.95" fill="#868686" fill-rule="evenodd" stroke="none"/>
    <path d="M35.5 11.3 L34.0 13.15 Q33.45 11.05 32.45 9.85 30.65 7.75 25.9 7.75 23.65 7.75 21.8 8.55 19.0 9.8 18.5 12.5 18.25 13.8 18.55 15.3 L21.6 15.55 Q23.15 15.55 24.85 14.3 26.5 13.1 27.65 11.2 L28.15 10.2 Q28.05 11.8 27.35 13.2 28.9 13.75 29.4 14.15 29.95 14.65 30.05 15.65 L26.2 17.0 26.1 17.0 27.55 15.2 Q27.15 14.45 26.15 14.45 25.6 14.45 24.3 15.45 22.8 16.6 22.2 16.8 L20.45 16.95 Q17.05 16.95 17.05 14.0 17.05 10.75 20.1 8.5 22.85 6.5 25.9 6.5 30.65 6.5 33.4 8.75 34.75 9.95 35.5 11.3" fill="#7c362c" fill-rule="evenodd" stroke="none"/>
  </g>
</svg>
