<?xml version="1.0" encoding="UTF-8" standalone="no"?>
<svg xmlns:ffdec="https://www.free-decompiler.com/flash" xmlns:xlink="http://www.w3.org/1999/xlink" ffdec:objectType="shape" height="42.55px" width="33.55px" xmlns="http://www.w3.org/2000/svg">
  <g transform="matrix(1.0, 0.0, 0.0, 1.0, -3.45, 19.7)">
    <path d="M32.65 -13.8 L33.35 -15.8 34.1 -16.2 34.0 -14.15 Q33.25 -10.4 33.6 -6.45 L33.8 -4.35 32.65 -4.55 32.0 1.45 30.55 0.7 30.05 1.6 29.35 4.65 29.2 5.7 27.4 5.0 25.1 11.0 24.75 12.1 23.95 14.7 22.9 13.8 20.1 18.15 18.45 15.45 17.4 16.7 17.35 16.75 Q16.35 19.9 13.45 21.45 L12.85 18.75 12.4 18.75 11.95 19.2 11.5 19.6 11.05 19.95 10.5 20.15 9.9 20.2 10.75 17.65 10.35 16.75 10.4 16.7 10.5 16.2 10.2 16.95 7.7 17.95 7.25 15.0 Q9.9 14.2 11.5 11.9 L12.2 10.7 11.95 9.95 11.15 10.3 9.15 13.15 Q9.55 11.75 9.25 10.2 L8.8 8.25 6.85 10.75 Q7.1 6.55 5.35 3.0 L4.6 3.45 Q4.05 -3.25 4.85 -10.05 L5.3 -13.45 5.05 -13.8 4.5 -13.3 Q4.15 -13.65 4.5 -14.2 L4.85 -14.6 5.5 -14.5 6.0 -2.55 7.35 -2.4 7.75 -0.9 Q8.25 1.25 8.0 3.55 L10.5 1.45 10.75 2.95 Q11.15 5.1 10.95 7.35 L13.0 6.7 13.15 7.3 Q13.85 12.1 12.0 16.7 L11.75 17.5 12.15 17.1 12.6 16.7 14.25 15.2 14.55 16.7 14.7 18.2 15.55 16.7 17.1 12.5 17.5 11.0 18.35 11.15 20.1 16.25 20.95 16.35 Q21.45 12.3 22.7 8.65 L23.6 12.4 24.75 9.65 25.35 7.2 Q25.9 4.3 25.75 1.4 L28.25 4.15 29.0 4.2 29.05 3.05 Q29.05 0.35 29.7 -2.35 L31.45 0.45 31.5 0.2 Q31.6 -3.35 31.0 -6.95 L31.3 -7.3 32.45 -7.25 32.65 -13.8 M36.2 -9.5 L34.2 -8.75 34.2 -12.5 36.2 -9.5 M11.25 18.0 L11.4 17.85 11.3 17.85 11.25 18.0" fill="#b9a99b" fill-rule="evenodd" stroke="none"/>
    <path d="M30.5 -9.1 L31.1 -8.55 32.65 -13.8 32.45 -7.25 31.3 -7.3 31.0 -6.95 Q31.6 -3.35 31.5 0.2 L31.45 0.45 29.7 -2.35 Q29.05 0.35 29.05 3.05 L29.0 4.2 28.25 4.15 25.75 1.4 Q25.9 4.3 25.35 7.2 L24.75 9.65 23.6 12.4 22.7 8.65 Q21.45 12.3 20.95 16.35 L20.1 16.25 18.35 11.15 17.5 11.0 17.1 12.5 15.55 16.7 14.7 18.2 14.55 16.7 14.25 15.2 12.6 16.7 12.15 17.1 11.75 17.5 12.0 16.7 Q13.85 12.1 13.15 7.3 L13.0 6.7 10.95 7.35 Q11.15 5.1 10.75 2.95 L10.5 1.45 8.0 3.55 Q8.25 1.25 7.75 -0.9 L7.35 -2.4 6.0 -2.55 5.5 -14.5 9.05 -14.2 9.65 -13.85 6.95 -9.55 8.3 -8.65 10.5 -8.6 10.8 -8.15 8.45 -0.3 12.65 -0.2 11.95 3.7 16.3 2.05 16.5 8.2 16.85 7.0 19.85 11.7 21.8 5.65 23.05 6.55 25.1 0.35 27.55 1.8 27.95 0.95 Q28.95 -1.85 28.9 -4.85 L30.0 -3.1 30.45 -3.0 30.65 -5.2 30.5 -9.1 M14.6 -3.9 L17.1 -4.15 17.45 -3.5 16.1 -3.05 13.55 -2.8 Q12.8 -7.25 14.65 -11.25 14.9 -8.35 14.7 -5.3 L14.6 -3.9 M19.85 -1.6 L20.25 1.85 22.0 -0.2 22.0 -0.9 22.85 -1.25 23.1 -1.15 23.35 -0.65 20.35 3.8 19.65 3.55 19.4 -1.55 19.85 -1.6 M16.55 -0.25 L17.85 -0.7 18.35 -0.55 17.45 0.15 16.25 0.55 16.05 -0.1 15.95 -0.8 16.0 -0.85 16.55 -0.25 M11.25 18.0 L11.3 17.85 11.4 17.85 11.25 18.0" fill="#ebe8e0" fill-rule="evenodd" stroke="none"/>
    <path d="M4.85 -14.6 Q8.95 -19.3 15.05 -19.7 L16.8 -19.7 15.6 -16.4 17.35 -16.25 18.95 -15.8 17.1 -8.65 20.35 -8.8 20.7 -5.6 20.7 -4.65 23.15 -6.2 23.65 -3.3 24.75 -4.65 25.1 -4.9 Q25.45 -4.9 26.0 -3.35 L26.25 -3.75 26.65 -3.55 27.35 -2.65 Q28.2 -6.2 30.5 -9.1 L30.65 -5.2 30.45 -3.0 30.0 -3.1 28.9 -4.85 Q28.95 -1.85 27.95 0.95 L27.55 1.8 25.1 0.35 23.05 6.55 21.8 5.65 19.85 11.7 16.85 7.0 16.5 8.2 16.3 2.05 11.95 3.7 12.65 -0.2 8.45 -0.3 10.8 -8.15 10.5 -8.6 8.3 -8.65 6.95 -9.55 9.65 -13.85 9.05 -14.2 5.5 -14.5 4.85 -14.6 M16.55 -0.25 L16.0 -0.85 15.95 -0.8 16.05 -0.1 16.25 0.55 17.45 0.15 18.35 -0.55 17.85 -0.7 16.55 -0.25 M19.85 -1.6 L19.4 -1.55 19.65 3.55 20.35 3.8 23.35 -0.65 23.1 -1.15 22.85 -1.25 22.0 -0.9 22.0 -0.2 20.25 1.85 19.85 -1.6 M14.6 -3.9 L14.7 -5.3 Q14.9 -8.35 14.65 -11.25 12.8 -7.25 13.55 -2.8 L16.1 -3.05 17.45 -3.5 17.1 -4.15 14.6 -3.9" fill="#ffffff" fill-rule="evenodd" stroke="none"/>
    <path d="M34.0 -14.15 L36.4 -10.65 37.0 -9.3 34.35 -7.85 34.8 -3.0 34.3 -2.85 33.1 -3.45 Q33.5 -0.05 33.0 3.3 L32.3 2.5 30.65 1.7 30.1 4.8 29.3 6.75 27.65 5.95 Q26.75 9.8 25.15 13.45 L24.75 14.3 24.05 15.7 23.5 15.65 23.2 15.3 21.95 16.7 Q21.25 18.15 19.95 19.25 L19.85 19.1 18.8 17.45 18.55 16.7 18.5 16.65 18.45 16.7 Q17.0 19.7 14.55 21.65 L12.85 22.85 12.7 22.45 12.6 22.0 12.5 21.5 12.5 20.35 8.95 20.9 9.35 19.1 9.8 17.95 7.5 18.85 7.0 17.35 6.85 16.7 6.6 14.95 8.45 13.7 8.7 9.5 6.6 11.95 6.2 11.8 5.15 3.95 4.35 4.7 Q3.4 0.4 3.45 -4.0 L3.7 -8.0 4.5 -13.3 5.05 -13.8 5.3 -13.45 4.85 -10.05 Q4.05 -3.25 4.6 3.45 L5.35 3.0 Q7.1 6.55 6.85 10.75 L8.8 8.25 9.25 10.2 Q9.55 11.75 9.15 13.15 L11.15 10.3 11.95 9.95 12.2 10.7 11.5 11.9 Q9.9 14.2 7.25 15.0 L7.7 17.95 10.2 16.95 10.5 16.2 10.4 16.7 10.35 16.75 10.75 17.65 9.9 20.2 10.5 20.15 11.05 19.95 11.5 19.6 11.95 19.2 12.4 18.75 12.85 18.75 13.45 21.45 Q16.35 19.9 17.35 16.75 L17.4 16.7 18.45 15.45 20.1 18.15 22.9 13.8 23.95 14.7 24.75 12.1 25.1 11.0 27.4 5.0 29.2 5.7 29.35 4.65 30.05 1.6 30.55 0.7 32.0 1.45 32.65 -4.55 33.8 -4.35 33.6 -6.45 Q33.25 -10.4 34.0 -14.15 M36.2 -9.5 L34.2 -12.5 34.2 -8.75 36.2 -9.5" fill="#907e73" fill-rule="evenodd" stroke="none"/>
  </g>
</svg>
