<?xml version="1.0" encoding="UTF-8" standalone="no"?>
<svg xmlns:ffdec="https://www.free-decompiler.com/flash" xmlns:xlink="http://www.w3.org/1999/xlink" ffdec:objectType="shape" height="40.95px" width="77.5px" xmlns="http://www.w3.org/2000/svg">
  <g transform="matrix(1.0, 0.0, 0.0, 1.0, 47.2, 18.35)">
    <path d="M18.55 -14.55 L18.9 -5.2 17.3 -6.95 18.55 -14.55 M15.8 -7.8 L16.1 2.05 15.55 1.9 13.7 -0.8 11.95 -2.85 14.7 -1.55 15.8 -7.8 M11.8 -2.8 Q12.15 -1.0 11.95 0.9 L11.8 2.05 10.85 1.1 Q10.2 0.35 9.9 -0.65 L11.35 -0.1 11.8 -2.8 M4.95 6.9 Q4.4 9.55 5.35 12.0 L5.75 12.7 6.8 12.2 9.5 0.4 Q9.75 5.25 10.8 10.05 L11.1 11.35 Q12.35 8.5 12.45 5.6 L13.65 6.7 13.05 6.25 Q13.5 10.4 15.75 13.55 L16.1 7.65 16.75 7.85 17.3 7.85 17.95 7.85 18.2 7.65 18.35 1.85 21.55 1.9 20.7 -4.15 23.6 -4.1 20.2 -16.65 21.75 -16.5 Q24.7 -16.0 27.1 -14.25 26.45 -11.2 26.8 -8.2 L27.05 -6.15 Q26.05 -8.6 24.35 -10.65 L23.15 -12.0 Q25.45 -6.9 27.2 -1.75 L27.7 0.15 26.45 0.25 Q25.6 2.55 25.35 5.05 L25.15 6.7 22.05 6.45 20.45 4.05 Q20.2 6.0 20.4 7.95 L20.65 10.7 17.25 10.55 16.45 14.7 14.5 14.75 14.3 13.75 14.1 13.05 13.8 12.35 13.05 11.15 13.7 14.35 12.2 16.6 10.8 18.7 10.2 18.75 7.5 16.5 7.7 14.4 7.65 12.2 7.0 15.0 6.8 16.3 4.35 17.85 Q3.45 15.9 3.15 13.95 L2.85 11.65 4.95 6.9 M19.6 -16.45 L19.55 -16.45 19.6 -16.45 M23.05 -14.35 Q23.7 -12.25 25.3 -11.15 L25.35 -11.2 Q25.85 -13.2 24.1 -14.9 L23.35 -14.8 23.05 -14.35 M23.65 -8.7 Q23.5 -5.6 25.0 -3.15 25.5 -2.3 26.35 -1.7 25.75 -4.5 24.5 -7.05 L23.65 -8.7 M22.55 -1.8 Q22.25 1.5 24.85 3.15 L23.6 -2.05 23.2 -2.3 22.55 -1.8 M10.2 15.7 L9.45 9.05 Q6.65 12.1 10.1 15.75 L10.2 15.7 M-42.6 -15.85 L-41.3 -10.5 -40.7 -11.0 -41.05 -7.1 -41.0 -4.9 -40.55 -5.0 -39.35 -6.65 Q-39.6 -3.7 -38.75 -0.85 L-38.4 0.05 -35.85 -1.25 -34.2 5.05 -32.9 4.2 Q-32.6 7.4 -31.4 10.4 -30.2 9.2 -29.15 7.55 L-28.05 5.85 Q-27.0 10.35 -24.45 14.25 -24.25 10.9 -24.45 6.65 L-24.45 4.15 -22.55 9.5 -23.35 9.1 Q-23.9 9.75 -23.45 10.45 L-23.15 17.2 -24.0 16.25 -25.95 14.25 -26.15 14.7 -26.6 17.2 -27.45 15.4 Q-28.65 12.9 -28.95 9.8 L-29.45 9.75 -29.55 9.8 -29.8 9.85 -30.5 10.1 -30.05 9.95 -30.2 11.3 Q-30.35 12.95 -31.4 14.4 L-31.85 14.95 -32.7 15.0 -32.65 12.95 Q-32.65 9.9 -34.0 7.15 L-35.1 10.85 Q-36.2 8.35 -36.55 5.55 -36.9 2.65 -36.6 -0.25 L-39.25 2.35 -40.0 2.35 -39.95 1.2 Q-39.8 -1.5 -40.3 -4.25 L-42.25 -1.55 -42.3 -1.8 Q-42.2 -5.35 -41.3 -8.9 L-41.65 -9.25 -42.8 -9.3 -42.6 -15.85" fill="#ebe8e0" fill-rule="evenodd" stroke="none"/>
    <path d="M27.1 -14.25 L27.35 -14.05 Q27.45 -9.0 28.65 -3.85 L29.45 0.8 Q27.3 2.8 27.1 6.0 L27.1 7.5 25.65 7.95 24.9 8.25 24.05 8.2 22.55 12.85 19.65 13.2 Q19.0 14.7 18.65 16.35 L18.45 17.45 13.85 16.95 11.1 21.3 8.4 19.5 5.65 21.45 4.75 19.6 4.35 19.35 0.5 20.05 Q1.5 18.5 2.0 16.65 L2.35 15.4 2.15 15.0 1.75 14.75 2.85 11.65 3.15 13.95 Q3.45 15.9 4.35 17.85 L6.8 16.3 7.0 15.0 7.65 12.2 7.7 14.4 7.5 16.5 10.2 18.75 10.8 18.7 12.2 16.6 13.7 14.35 13.05 11.15 13.8 12.35 14.1 13.05 14.3 13.75 14.5 14.75 16.45 14.7 17.25 10.55 20.65 10.7 20.4 7.95 Q20.2 6.0 20.45 4.05 L22.05 6.45 25.15 6.7 25.35 5.05 Q25.6 2.55 26.45 0.25 L27.7 0.15 27.2 -1.75 Q25.45 -6.9 23.15 -12.0 L24.35 -10.65 Q26.05 -8.6 27.05 -6.15 L26.8 -8.2 Q26.45 -11.2 27.1 -14.25 M-43.9 -16.3 L-43.9 -18.35 -43.15 -17.9 -42.6 -15.85 -42.8 -9.3 -41.65 -9.25 -41.3 -8.9 Q-42.2 -5.35 -42.3 -1.8 L-42.25 -1.55 -40.3 -4.25 Q-39.8 -1.5 -39.95 1.2 L-40.0 2.35 -39.25 2.35 -36.6 -0.25 Q-36.9 2.65 -36.55 5.55 -36.2 8.35 -35.1 10.85 L-34.0 7.15 Q-32.65 9.9 -32.65 12.95 L-32.7 15.0 -31.85 14.95 -31.4 14.4 Q-30.35 12.95 -30.2 11.3 L-30.05 9.95 -30.5 10.1 -29.8 9.85 -29.55 9.8 -29.45 9.75 -28.95 9.8 Q-28.65 12.9 -27.45 15.4 L-26.6 17.2 -26.15 14.7 -25.95 14.25 -24.0 16.25 -23.15 17.2 -23.45 10.45 -21.55 12.5 Q-20.45 13.65 -18.95 14.45 L-19.6 17.35 -22.05 16.2 -22.3 15.45 -22.15 16.0 -22.6 16.9 -21.9 19.5 -22.5 19.4 -23.05 19.15 -23.5 18.8 -23.9 18.35 -24.35 17.9 -24.8 17.85 -25.55 20.5 Q-28.35 18.8 -29.15 15.6 -29.4 14.6 -30.15 14.25 L-31.95 16.85 -34.5 12.25 -35.6 13.1 -36.5 9.35 Q-37.4 6.2 -38.45 3.25 L-40.3 3.8 -40.35 2.75 -40.9 -0.3 -41.3 -1.25 -42.85 -0.6 -43.15 -6.6 -44.3 -6.45 -44.0 -8.55 Q-43.4 -12.45 -43.9 -16.3 M-46.4 -11.75 L-44.2 -14.65 -44.45 -10.9 -46.4 -11.75" fill="#b9a99b" fill-rule="evenodd" stroke="none"/>
    <path d="M1.75 14.75 L2.15 15.0 2.35 15.4 2.0 16.65 Q1.5 18.5 0.5 20.05 L4.35 19.35 4.75 19.6 5.65 21.45 8.4 19.5 11.1 21.3 13.85 16.95 18.45 17.45 18.65 16.35 Q19.0 14.7 19.65 13.2 L22.55 12.85 24.05 8.2 24.9 8.25 25.65 7.95 27.1 7.5 27.1 6.0 Q27.3 2.8 29.45 0.8 L28.65 -3.85 Q27.45 -9.0 27.35 -14.05 L29.05 -7.45 Q30.15 -3.0 30.3 1.45 27.85 4.25 27.85 7.95 L27.25 8.3 24.65 9.0 22.95 13.65 19.95 14.25 19.75 15.75 19.3 17.05 18.55 18.35 14.1 17.8 13.6 19.05 Q12.8 21.0 11.3 22.2 L8.1 20.35 7.45 20.9 6.2 21.9 5.05 22.6 4.25 20.45 -0.45 20.6 0.2 19.2 Q1.15 17.05 1.75 14.75" fill="#8e7c71" fill-rule="evenodd" stroke="none"/>
    <path d="M18.55 -14.55 L19.55 -16.45 19.6 -16.45 20.2 -16.65 23.6 -4.1 20.7 -4.15 21.55 1.9 18.35 1.85 18.2 7.65 17.95 7.85 17.3 7.85 16.75 7.85 16.1 7.65 15.75 13.55 Q13.5 10.4 13.05 6.25 L13.65 6.7 12.45 5.6 Q12.35 8.5 11.1 11.35 L10.8 10.05 Q9.75 5.25 9.5 0.4 L6.8 12.2 5.75 12.7 5.35 12.0 Q4.4 9.55 4.95 6.9 6.3 2.6 8.75 -1.0 L9.9 -0.65 Q10.2 0.35 10.85 1.1 L11.8 2.05 11.95 0.9 Q12.15 -1.0 11.8 -2.8 L11.95 -2.85 13.7 -0.8 15.55 1.9 16.1 2.05 15.8 -7.8 17.3 -6.95 18.9 -5.2 18.55 -14.55 M23.05 -14.35 L23.35 -14.8 24.1 -14.9 Q25.85 -13.2 25.35 -11.2 L25.3 -11.15 Q23.7 -12.25 23.05 -14.35 M22.55 -1.8 L23.2 -2.3 23.6 -2.05 24.85 3.15 Q22.25 1.5 22.55 -1.8 M23.65 -8.7 L24.5 -7.05 Q25.75 -4.5 26.35 -1.7 25.5 -2.3 25.0 -3.15 23.5 -5.6 23.65 -8.7 M10.2 15.7 L10.1 15.75 Q6.65 12.1 9.45 9.05 L10.2 15.7 M-40.7 -11.0 Q-38.55 -7.95 -37.95 -4.4 L-37.2 -5.25 -36.75 -5.4 -33.25 0.8 -32.15 -0.35 -31.15 -1.65 Q-29.8 -0.75 -28.9 0.85 L-28.35 1.9 -28.0 1.05 -27.5 0.4 -27.25 0.35 -24.45 4.15 -24.45 6.65 Q-24.25 10.9 -24.45 14.25 -27.0 10.35 -28.05 5.85 L-29.15 7.55 Q-30.2 9.2 -31.4 10.4 -32.6 7.4 -32.9 4.2 L-34.2 5.05 -35.85 -1.25 -38.4 0.05 -38.75 -0.85 Q-39.6 -3.7 -39.35 -6.65 L-40.55 -5.0 -41.0 -4.9 -41.05 -7.1 -40.7 -11.0" fill="#ffffff" fill-rule="evenodd" stroke="none"/>
    <path d="M-22.55 9.5 L-21.95 10.75 Q-20.65 13.0 -18.3 14.45 L-18.85 16.8 -19.45 18.3 Q-20.55 17.8 -21.7 17.25 L-21.3 18.4 -21.0 20.25 -24.5 19.45 -24.6 20.6 -24.7 21.1 -24.85 21.55 -25.0 21.95 -26.65 20.65 Q-29.0 18.5 -30.25 15.35 L-30.65 16.2 -31.9 17.95 Q-33.15 16.7 -33.75 15.15 -34.15 14.15 -34.9 13.8 L-35.2 14.15 -35.75 14.15 -36.7 11.8 Q-38.1 8.05 -38.75 4.15 L-40.45 4.85 -41.1 2.85 -41.55 -0.25 -43.25 0.45 -43.95 1.2 Q-44.25 -2.15 -43.65 -5.55 L-44.9 -5.0 -45.4 -5.2 -44.65 -10.0 -47.2 -11.6 -46.5 -12.9 -43.9 -16.3 Q-43.4 -12.45 -44.0 -8.55 L-44.3 -6.45 -43.15 -6.6 -42.85 -0.6 -41.3 -1.25 -40.9 -0.3 -40.35 2.75 -40.3 3.8 -38.45 3.25 Q-37.4 6.2 -36.5 9.35 L-35.6 13.1 -34.5 12.25 -31.95 16.85 -30.15 14.25 Q-29.4 14.6 -29.15 15.6 -28.35 18.8 -25.55 20.5 L-24.8 17.85 -24.35 17.9 -23.9 18.35 -23.5 18.8 -23.05 19.15 -22.5 19.4 -21.9 19.5 -22.6 16.9 -22.15 16.0 -22.3 15.45 -22.05 16.2 -19.6 17.35 -18.95 14.45 Q-20.45 13.65 -21.55 12.5 L-23.45 10.45 Q-23.9 9.75 -23.35 9.1 L-22.55 9.5 M-46.4 -11.75 L-44.45 -10.9 -44.2 -14.65 -46.4 -11.75" fill="#907e73" fill-rule="evenodd" stroke="none"/>
  </g>
</svg>
