<?xml version="1.0" encoding="UTF-8" standalone="no"?>
<svg xmlns:ffdec="https://www.free-decompiler.com/flash" xmlns:xlink="http://www.w3.org/1999/xlink" ffdec:objectType="shape" height="85.95px" width="104.25px" xmlns="http://www.w3.org/2000/svg">
  <g transform="matrix(1.0, 0.0, 0.0, 1.0, -0.05, 0.0)">
    <path d="M81.35 0.9 L79.1 2.45 79.4 1.5 50.85 12.7 41.05 16.5 35.7 18.6 35.6 18.7 35.05 19.1 34.35 19.35 Q8.65 5.95 5.75 4.0 L6.05 4.6 4.15 3.8 4.5 4.6 Q3.6 3.45 3.6 2.45 L3.7 1.75 4.1 1.65 Q4.6 1.75 34.15 17.8 L79.6 0.0 81.35 0.9 M75.95 7.4 Q64.0 11.2 60.95 12.55 57.85 13.85 41.95 17.6 48.0 16.0 55.6 13.35 64.3 10.25 68.1 8.4 L75.95 7.4 M84.5 80.1 L86.55 79.85 83.3 80.4 84.5 80.1 M68.65 83.8 L67.3 83.95 67.8 83.85 68.65 83.8" fill="#666666" fill-rule="evenodd" stroke="none"/>
    <path d="M79.05 2.6 Q84.3 1.85 79.4 4.7 74.4 7.55 75.95 7.4 L68.1 8.4 52.8 13.8 46.05 15.0 Q44.45 15.65 41.05 16.5 L45.95 16.1 35.9 18.95 35.7 18.6 41.05 16.5 50.85 12.7 Q56.6 11.95 61.25 10.15 L65.8 8.0 77.45 3.1 79.05 2.6" fill="#a0a0a0" fill-rule="evenodd" stroke="none"/>
    <path d="M79.1 2.45 L79.05 2.6 77.45 3.1 Q72.2 4.35 65.8 8.0 L61.25 10.15 Q56.6 11.95 50.85 12.7 L79.4 1.5 79.1 2.45 M41.95 17.6 L40.25 18.05 37.6 18.65 35.9 19.15 35.9 18.95 45.95 16.1 52.8 13.8 68.1 8.4 Q64.3 10.25 55.6 13.35 48.0 16.0 41.95 17.6 M35.7 19.15 L31.85 20.05 Q29.4 19.2 28.7 19.1 23.35 15.55 6.05 4.6 L5.75 4.0 Q8.65 5.95 34.35 19.35 L35.05 19.1 35.6 18.7 35.7 19.15" fill="#d4d4d4" fill-rule="evenodd" stroke="none"/>
    <path d="M77.45 3.1 L65.8 8.0 Q72.2 4.35 77.45 3.1 M41.05 16.5 Q44.45 15.65 46.05 15.0 L52.8 13.8 45.95 16.1 41.05 16.5" fill="#c8c8c8" fill-rule="evenodd" stroke="none"/>
    <path d="M36.4 20.45 Q48.45 19.4 62.15 14.45 77.7 8.85 85.9 1.25 L90.0 28.05 Q87.55 29.9 76.3 33.95 L52.5 42.0 51.9 41.25 36.4 20.45" fill="#595959" fill-rule="evenodd" stroke="none"/>
    <path d="M17.7 36.95 Q5.55 12.45 1.35 5.4 8.15 8.55 20.25 15.6 29.85 21.15 31.05 21.15 32.05 21.15 31.55 21.7 L39.0 41.75 17.7 36.95 M39.95 40.35 L33.1 21.85 36.4 20.45 51.9 41.25 39.95 40.35" fill="#3f3f3f" fill-rule="evenodd" stroke="none"/>
    <path d="M90.0 28.05 Q95.8 50.95 95.4 51.8 91.65 54.75 80.1 57.6 L69.3 59.85 Q66.15 59.85 61.5 53.9 55.9 45.95 52.5 42.0 L76.3 33.95 Q87.55 29.9 90.0 28.05" fill="#ee8ac1" fill-rule="evenodd" stroke="none"/>
    <path d="M24.6 53.15 L23.4 50.8 17.7 36.95 39.0 41.75 45.75 59.95 24.6 53.15 M95.4 51.8 Q100.8 69.85 103.6 76.2 L95.95 78.1 84.4 80.1 84.5 80.1 83.3 80.4 Q78.25 81.7 69.7 82.2 61.1 82.7 51.25 82.4 L51.25 76.6 50.65 73.5 Q48.15 61.35 47.5 60.7 L39.95 40.35 51.9 41.25 52.5 42.0 Q55.9 45.95 61.5 53.9 66.15 59.85 69.3 59.85 L80.1 57.6 Q91.65 54.75 95.4 51.8" fill="#e4479d" fill-rule="evenodd" stroke="none"/>
    <path d="M25.3 61.35 L25.3 61.25 Q25.25 55.55 24.6 53.15 L45.75 59.95 47.85 71.35 49.65 81.8 Q34.15 78.85 28.75 72.8 L28.3 72.5 25.3 61.35" fill="#dd2088" fill-rule="evenodd" stroke="none"/>
    <path d="M81.35 0.9 L82.35 1.65 Q82.55 1.85 83.05 1.85 L84.8 1.2 86.1 0.5 Q88.45 2.2 89.3 11.65 90.65 25.75 92.3 32.55 L97.95 55.75 Q99.35 59.6 102.95 71.9 103.7 70.55 104.1 73.25 L104.3 76.3 Q104.3 80.8 51.8 85.95 L51.15 85.9 51.25 85.8 Q51.1 85.55 28.95 74.45 L28.75 72.8 Q34.15 78.85 49.65 81.8 L47.85 71.35 45.75 59.95 39.0 41.75 31.55 21.7 Q32.05 21.15 31.05 21.15 29.85 21.15 20.25 15.6 8.15 8.55 1.35 5.4 5.55 12.45 17.7 36.95 L23.4 50.8 24.6 53.15 Q25.25 55.55 25.3 61.25 L25.3 61.35 Q22.9 54.35 18.9 44.05 7.95 15.95 0.25 6.6 L0.05 4.5 Q0.05 3.9 0.2 3.85 L0.6 3.75 Q1.0 3.8 4.85 5.4 L4.5 4.6 4.15 3.8 6.05 4.6 Q23.35 15.55 28.7 19.1 29.4 19.2 31.85 20.05 L35.7 19.15 35.9 19.15 37.6 18.65 40.25 18.05 41.95 17.6 Q57.85 13.85 60.95 12.55 64.0 11.2 75.95 7.4 74.4 7.55 79.4 4.7 84.3 1.85 79.05 2.6 L79.1 2.45 81.35 0.9 M90.0 28.05 L85.9 1.25 Q77.7 8.85 62.15 14.45 48.45 19.4 36.4 20.45 L33.1 21.85 39.95 40.35 47.5 60.7 Q48.15 61.35 50.65 73.5 L51.25 76.6 51.25 82.4 Q61.1 82.7 69.7 82.2 78.25 81.7 83.3 80.4 L86.55 79.85 84.5 80.1 84.4 80.1 95.95 78.1 103.6 76.2 Q100.8 69.85 95.4 51.8 95.8 50.95 90.0 28.05 M68.65 83.8 L67.8 83.85 67.3 83.95 68.65 83.8" fill="#30071e" fill-rule="evenodd" stroke="none"/>
  </g>
</svg>
