<?xml version="1.0" encoding="UTF-8" standalone="no"?>
<svg xmlns:ffdec="https://www.free-decompiler.com/flash" xmlns:xlink="http://www.w3.org/1999/xlink" ffdec:objectType="shape" height="75.15px" width="113.25px" xmlns="http://www.w3.org/2000/svg">
  <g transform="matrix(1.0, 0.0, 0.0, 1.0, 62.05, 81.45)">
    <path d="M4.4 -80.25 Q7.65 -80.15 9.5 -77.7 11.0 -75.75 10.9 -73.8 10.85 -72.25 17.6 -67.8 27.55 -61.25 34.0 -55.55 44.4 -46.25 48.85 -36.95 51.05 -32.3 51.2 -29.4 51.05 -26.65 47.7 -24.65 44.35 -22.65 41.05 -23.3 41.75 -19.25 39.7 -14.3 38.05 -10.1 36.15 -8.5 L33.65 -6.3 35.4 -9.4 Q36.25 -11.55 36.3 -12.65 36.35 -13.8 35.2 -16.7 33.75 -20.15 31.95 -21.95 L30.7 -23.15 15.25 -34.4 13.0 -35.6 Q0.75 -41.05 -8.05 -43.35 -17.05 -45.75 -27.3 -46.0 -34.9 -46.2 -38.55 -43.85 -41.1 -42.25 -42.3 -38.65 -43.9 -33.9 -44.2 -33.45 -45.8 -31.05 -49.9 -31.15 -53.8 -31.25 -57.6 -36.05 -62.5 -42.1 -62.0 -51.85 -61.45 -63.3 -51.2 -71.85 -39.05 -81.95 -18.95 -81.45 -16.2 -81.35 -11.05 -79.4 -5.85 -77.35 -1.25 -77.2 -1.2 -77.2 1.2 -78.75 3.75 -80.25 4.4 -80.25 M2.4 -76.4 Q2.35 -75.2 3.4 -74.3 4.4 -73.35 6.0 -73.35 7.55 -73.3 8.7 -74.15 9.85 -75.0 9.9 -76.2 9.95 -77.4 8.9 -78.25 7.85 -79.2 6.3 -79.25 4.7 -79.25 3.6 -78.4 2.45 -77.6 2.4 -76.4 M32.85 -52.25 L31.7 -53.3 Q21.6 -64.3 4.7 -72.05 -9.55 -78.65 -18.3 -78.85 -32.75 -79.25 -44.45 -71.95 -56.6 -64.35 -57.15 -53.3 -57.55 -45.1 -54.2 -41.55 -52.35 -39.55 -50.15 -39.5 -48.7 -39.45 -46.1 -42.0 L-40.9 -47.5 Q-33.3 -55.6 -28.2 -55.5 -2.0 -54.8 16.0 -45.15 23.2 -41.25 31.75 -32.7 L33.35 -31.05 30.95 -32.85 27.9 -35.2 25.15 -37.1 22.4 -38.85 19.9 -40.35 12.1 -44.2 9.05 -45.5 5.1 -47.0 -3.6 -49.95 -6.9 -50.85 -12.15 -52.0 -17.75 -52.85 -21.1 -53.15 -24.25 -53.3 -27.65 -53.2 -29.2 -53.1 Q-31.9 -52.95 -34.95 -51.55 -39.65 -49.45 -40.05 -46.05 -35.95 -47.55 -29.95 -48.25 L-29.6 -48.2 -26.2 -48.25 -22.6 -48.05 -19.45 -47.7 -14.3 -46.85 -8.85 -45.65 -5.65 -44.8 3.1 -41.8 7.0 -40.3 9.45 -39.3 17.4 -35.4 20.1 -33.85 23.45 -31.75 25.85 -30.05 29.4 -27.25 Q31.7 -25.65 34.1 -22.85 36.8 -19.55 38.1 -16.55 L38.65 -19.75 Q38.95 -25.1 35.35 -29.1 39.35 -25.4 40.2 -25.4 44.2 -25.3 46.65 -28.0 48.2 -29.85 48.3 -30.95 48.4 -33.25 46.3 -37.4 43.45 -43.0 38.2 -47.2 L32.85 -52.25" fill="#121212" fill-rule="evenodd" stroke="none"/>
    <path d="M31.6 -53.2 L32.85 -52.25 38.2 -47.2 46.35 -32.55 Q46.35 -32.0 44.75 -30.55 43.1 -29.0 42.0 -29.05 30.9 -36.75 17.25 -44.55 -9.95 -60.15 -22.6 -60.5 -25.6 -60.6 -35.75 -57.15 -45.9 -53.75 -48.85 -53.8 -49.8 -53.85 -51.0 -55.2 -52.65 -57.05 -52.5 -60.2 -52.15 -67.25 -39.15 -72.55 -27.85 -77.2 -18.85 -77.0 -11.2 -76.8 -0.15 -72.25 15.05 -66.05 31.6 -53.2 M30.95 -32.85 L29.4 -27.25 25.85 -30.05 27.9 -35.2 30.95 -32.85 M25.15 -37.1 L23.45 -31.75 20.1 -33.85 21.0 -35.3 Q21.8 -36.65 22.4 -38.85 L25.15 -37.1 M12.1 -44.2 L19.9 -40.35 17.4 -35.4 9.45 -39.3 12.1 -44.2 M9.05 -45.5 L6.4 -40.6 7.0 -40.3 3.1 -41.8 5.1 -47.0 9.05 -45.5 M43.0 -36.9 Q43.15 -39.1 36.7 -44.9 30.0 -50.95 20.45 -57.0 -4.75 -72.85 -23.95 -73.35 -33.1 -73.6 -41.3 -69.35 -49.95 -64.85 -51.3 -58.4 L-50.5 -57.5 -50.2 -57.2 Q-46.85 -60.25 -41.9 -63.2 -32.0 -69.15 -23.85 -68.95 -8.15 -68.55 7.55 -61.45 27.0 -52.7 41.5 -35.55 42.95 -35.9 43.0 -36.9 M-27.65 -53.2 L-29.6 -48.2 -29.95 -48.25 Q-28.65 -52.1 -29.2 -53.1 L-27.65 -53.2 M-26.2 -48.25 L-24.25 -53.3 -21.1 -53.15 -22.6 -48.05 -26.2 -48.25 M-17.75 -52.85 L-12.15 -52.0 -14.3 -46.85 -19.45 -47.7 -17.75 -52.85 M-6.9 -50.85 L-3.6 -49.95 -5.65 -44.8 -8.85 -45.65 -6.9 -50.85" fill="#333333" fill-rule="evenodd" stroke="none"/>
    <path d="M32.85 -52.25 L31.6 -53.2 31.7 -53.3 32.85 -52.25" fill="#232323" fill-rule="evenodd" stroke="none"/>
    <path d="M31.7 -53.3 L31.6 -53.2 Q15.05 -66.05 -0.15 -72.25 -11.2 -76.8 -18.85 -77.0 -27.85 -77.2 -39.15 -72.55 -52.15 -67.25 -52.5 -60.2 -52.65 -57.05 -51.0 -55.2 -49.8 -53.85 -48.85 -53.8 -45.9 -53.75 -35.75 -57.15 -25.6 -60.6 -22.6 -60.5 -9.95 -60.15 17.25 -44.55 30.9 -36.75 42.0 -29.05 43.1 -29.0 44.75 -30.55 46.35 -32.0 46.35 -32.55 L38.2 -47.2 Q43.45 -43.0 46.3 -37.4 48.4 -33.25 48.3 -30.95 48.2 -29.85 46.65 -28.0 44.2 -25.3 40.2 -25.4 39.35 -25.4 35.35 -29.1 38.95 -25.1 38.65 -19.75 L38.1 -16.55 Q36.8 -19.55 34.1 -22.85 31.7 -25.65 29.4 -27.25 L30.95 -32.85 33.35 -31.05 31.75 -32.7 Q23.2 -41.25 16.0 -45.15 -2.0 -54.8 -28.2 -55.5 -33.3 -55.6 -40.9 -47.5 L-46.1 -42.0 Q-48.7 -39.45 -50.15 -39.5 -52.35 -39.55 -54.2 -41.55 -57.55 -45.1 -57.15 -53.3 -56.6 -64.35 -44.45 -71.95 -32.75 -79.25 -18.3 -78.85 -9.55 -78.65 4.7 -72.05 21.6 -64.3 31.7 -53.3 M27.9 -35.2 L25.85 -30.05 23.45 -31.75 25.15 -37.1 27.9 -35.2 M22.4 -38.85 Q21.8 -36.65 21.0 -35.3 L20.1 -33.85 17.4 -35.4 19.9 -40.35 22.4 -38.85 M-27.65 -53.2 L-24.25 -53.3 -26.2 -48.25 -29.6 -48.2 -27.65 -53.2 M-21.1 -53.15 L-17.75 -52.85 -19.45 -47.7 -22.6 -48.05 -21.1 -53.15 M-29.2 -53.1 Q-28.65 -52.1 -29.95 -48.25 -35.95 -47.55 -40.05 -46.05 -39.65 -49.45 -34.95 -51.55 -31.9 -52.95 -29.2 -53.1" fill="#202020" fill-rule="evenodd" stroke="none"/>
    <path d="M2.4 -76.4 Q2.45 -77.6 3.6 -78.4 4.7 -79.25 6.3 -79.25 7.85 -79.2 8.9 -78.25 9.95 -77.4 9.9 -76.2 9.85 -75.0 8.7 -74.15 7.55 -73.3 6.0 -73.35 4.4 -73.35 3.4 -74.3 2.35 -75.2 2.4 -76.4 M12.1 -44.2 L9.45 -39.3 7.0 -40.3 6.4 -40.6 9.05 -45.5 12.1 -44.2 M5.1 -47.0 L3.1 -41.8 -5.65 -44.8 -3.6 -49.95 5.1 -47.0 M43.0 -36.9 Q42.95 -35.9 41.5 -35.55 27.0 -52.7 7.55 -61.45 -8.15 -68.55 -23.85 -68.95 -32.0 -69.15 -41.9 -63.2 -46.85 -60.25 -50.2 -57.2 L-50.5 -57.5 -51.3 -58.4 Q-49.95 -64.85 -41.3 -69.35 -33.1 -73.6 -23.95 -73.35 -4.75 -72.85 20.45 -57.0 30.0 -50.95 36.7 -44.9 43.15 -39.1 43.0 -36.9 M-12.15 -52.0 L-6.9 -50.85 -8.85 -45.65 -14.3 -46.85 -12.15 -52.0" fill="#4e4e4e" fill-rule="evenodd" stroke="none"/>
  </g>
</svg>
