<?xml version="1.0" encoding="UTF-8" standalone="no"?>
<svg xmlns:ffdec="https://www.free-decompiler.com/flash" xmlns:xlink="http://www.w3.org/1999/xlink" ffdec:objectType="shape" height="12.2px" width="48.6px" xmlns="http://www.w3.org/2000/svg">
  <g transform="matrix(1.0, 0.0, 0.0, 1.0, 27.3, 17.65)">
    <path d="M19.9 -13.1 Q21.4 -11.0 21.3 -9.6 21.3 -7.85 19.65 -6.9 L19.6 -6.85 Q18.45 -6.15 15.95 -7.45 L15.9 -7.45 Q15.3 -7.75 11.55 -10.1 7.2 -12.8 4.65 -12.65 L4.65 -12.7 3.4 -12.25 3.35 -12.25 Q2.0 -11.55 1.65 -10.75 L1.35 -10.35 0.8 -10.25 0.35 -10.55 Q0.15 -10.75 0.2 -11.05 0.3 -12.85 0.7 -13.45 1.5 -15.25 3.8 -16.5 6.65 -18.25 12.0 -17.3 17.6 -16.2 19.9 -13.1 M2.55 -13.55 L2.6 -13.55 Q3.45 -14.1 4.55 -14.15 L4.5 -14.2 Q7.4 -14.45 12.35 -11.4 16.15 -9.05 16.6 -8.85 L16.65 -8.8 Q18.2 -8.0 18.9 -8.2 19.75 -8.75 19.8 -9.55 19.75 -10.6 18.65 -12.2 16.6 -14.85 11.7 -15.75 7.05 -16.65 4.5 -15.15 3.2 -14.5 2.55 -13.55 M-21.8 -6.4 L-21.8 -6.35 Q-24.35 -5.0 -25.55 -5.65 -27.25 -6.6 -27.3 -8.3 -27.45 -9.75 -25.95 -11.85 -23.8 -15.15 -18.2 -16.3 L-13.65 -16.75 Q-11.5 -16.65 -9.9 -15.8 -7.7 -14.65 -6.75 -12.85 -6.4 -12.3 -6.2 -10.45 L-6.35 -9.95 -6.85 -9.65 -7.35 -9.7 -7.7 -10.15 Q-8.05 -10.9 -9.45 -11.6 L-10.7 -11.95 -10.75 -11.95 -13.65 -11.3 Q-15.35 -10.6 -17.5 -9.1 L-21.8 -6.4 M-24.65 -11.05 Q-25.75 -9.45 -25.75 -8.35 -25.7 -7.55 -24.8 -7.05 -24.15 -6.8 -22.55 -7.7 L-22.55 -7.75 -18.4 -10.4 -13.65 -12.95 -10.7 -13.5 -10.7 -13.45 Q-9.6 -13.45 -8.75 -12.95 L-8.7 -12.95 Q-9.4 -13.8 -10.6 -14.45 -11.9 -15.15 -13.65 -15.25 L-17.9 -14.85 Q-22.8 -13.8 -24.65 -11.05" fill="#000000" fill-rule="evenodd" stroke="none"/>
    <path d="M2.55 -13.55 Q3.2 -14.5 4.5 -15.15 7.05 -16.65 11.7 -15.75 16.6 -14.85 18.65 -12.2 19.75 -10.6 19.8 -9.55 19.75 -8.75 18.9 -8.2 18.2 -8.0 16.65 -8.8 L16.6 -8.85 Q16.15 -9.05 12.35 -11.4 7.4 -14.45 4.5 -14.2 L4.55 -14.15 Q3.45 -14.1 2.6 -13.55 L2.55 -13.55 M-24.65 -11.05 Q-22.8 -13.8 -17.9 -14.85 L-13.65 -15.25 Q-11.9 -15.15 -10.6 -14.45 -9.4 -13.8 -8.7 -12.95 L-8.75 -12.95 Q-9.6 -13.45 -10.7 -13.45 L-10.7 -13.5 -13.65 -12.95 -18.4 -10.4 -22.55 -7.75 -22.55 -7.7 Q-24.15 -6.8 -24.8 -7.05 -25.7 -7.55 -25.75 -8.35 -25.75 -9.45 -24.65 -11.05" fill="#3a281b" fill-rule="evenodd" stroke="none"/>
  </g>
</svg>
