<?xml version="1.0" encoding="UTF-8" standalone="no"?>
<svg xmlns:ffdec="https://www.free-decompiler.com/flash" xmlns:xlink="http://www.w3.org/1999/xlink" ffdec:objectType="shape" height="17.45px" width="49.2px" xmlns="http://www.w3.org/2000/svg">
  <g transform="matrix(1.0, 0.0, 0.0, 1.0, 27.6, 18.55)">
    <path d="M4.35 -14.6 Q4.05 -14.6 3.85 -14.8 L3.6 -15.3 3.75 -15.8 Q4.8 -17.3 5.4 -17.6 7.1 -18.7 9.65 -18.55 13.05 -18.5 17.1 -14.9 21.3 -11.05 21.6 -7.15 21.75 -4.6 20.95 -3.4 20.05 -1.95 18.1 -2.0 L18.05 -2.0 Q16.7 -2.0 15.25 -4.45 L15.2 -4.5 12.9 -9.0 Q10.6 -13.6 8.4 -14.8 L8.4 -14.85 7.15 -15.15 7.1 -15.15 4.85 -14.8 4.35 -14.6 M7.15 -16.7 Q8.15 -16.7 9.1 -16.15 L9.1 -16.2 Q11.7 -14.9 14.25 -9.7 L16.55 -5.3 16.55 -5.25 Q17.45 -3.7 18.15 -3.55 19.15 -3.55 19.65 -4.2 20.15 -5.15 20.05 -7.05 19.75 -10.4 16.05 -13.75 12.55 -16.95 9.6 -17.05 L7.1 -16.7 7.15 -16.7 M-26.0 -6.15 Q-26.15 -4.25 -25.6 -3.3 -25.15 -2.65 -24.15 -2.65 -23.45 -2.8 -22.5 -4.35 L-22.5 -4.4 -20.25 -8.8 Q-17.7 -14.0 -15.1 -15.3 L-15.1 -15.25 Q-14.15 -15.8 -13.15 -15.8 L-13.05 -15.8 Q-14.15 -16.25 -15.55 -16.15 -18.55 -16.05 -22.05 -12.85 -25.75 -9.5 -26.0 -6.15 M-21.2 -3.6 L-21.2 -3.55 Q-22.7 -1.1 -24.05 -1.1 -26.05 -1.05 -26.9 -2.5 -27.75 -3.7 -27.55 -6.25 -27.3 -10.15 -23.05 -14.0 -19.05 -17.6 -15.6 -17.65 -13.1 -17.8 -11.4 -16.7 -10.8 -16.4 -9.7 -14.9 L-9.6 -14.4 -9.85 -13.9 Q-10.05 -13.7 -10.35 -13.7 L-10.85 -13.9 Q-11.55 -14.4 -13.1 -14.25 L-14.35 -13.95 -14.4 -13.9 Q-16.6 -12.7 -18.85 -8.1 L-21.2 -3.6" fill="#000000" fill-rule="evenodd" stroke="none"/>
    <path d="M7.15 -16.7 L7.1 -16.7 9.6 -17.05 Q12.55 -16.95 16.05 -13.75 19.75 -10.4 20.05 -7.05 20.15 -5.15 19.65 -4.2 19.15 -3.55 18.15 -3.55 17.45 -3.7 16.55 -5.25 L16.55 -5.3 14.25 -9.7 Q11.7 -14.9 9.1 -16.2 L9.1 -16.15 Q8.15 -16.7 7.15 -16.7 M-26.0 -6.15 Q-25.75 -9.5 -22.05 -12.85 -18.55 -16.05 -15.55 -16.15 -14.15 -16.25 -13.05 -15.8 L-13.15 -15.8 Q-14.15 -15.8 -15.1 -15.25 L-15.1 -15.3 Q-17.7 -14.0 -20.25 -8.8 L-22.5 -4.4 -22.5 -4.35 Q-23.45 -2.8 -24.15 -2.65 -25.15 -2.65 -25.6 -3.3 -26.15 -4.25 -26.0 -6.15" fill="#3a281b" fill-rule="evenodd" stroke="none"/>
  </g>
</svg>
