<?xml version="1.0" encoding="UTF-8" standalone="no"?>
<svg xmlns:ffdec="https://www.free-decompiler.com/flash" xmlns:xlink="http://www.w3.org/1999/xlink" ffdec:objectType="shape" height="15.6px" width="51.7px" xmlns="http://www.w3.org/2000/svg">
  <g transform="matrix(1.0, 0.0, 0.0, 1.0, 28.5, 17.8)">
    <path d="M4.05 -15.35 Q5.35 -16.9 7.8 -17.5 11.1 -18.45 16.0 -16.15 21.15 -13.75 22.6 -10.1 23.5 -7.75 23.05 -6.3 22.65 -4.7 20.75 -4.15 19.45 -3.75 17.3 -5.65 L17.3 -5.7 13.75 -9.3 13.7 -9.3 Q10.2 -13.05 7.75 -13.55 L6.45 -13.5 6.4 -13.5 Q4.85 -13.15 4.35 -12.5 L3.95 -12.15 3.4 -12.2 3.05 -12.6 3.0 -13.15 Q3.55 -14.85 4.05 -15.35 M5.95 -15.0 L6.0 -15.0 8.0 -15.05 Q10.85 -14.6 14.85 -10.35 L18.3 -6.85 18.3 -6.8 Q19.65 -5.6 20.35 -5.65 21.35 -5.9 21.6 -6.7 21.8 -7.75 21.15 -9.55 19.85 -12.65 15.35 -14.75 11.05 -16.8 8.2 -16.05 6.85 -15.7 5.95 -15.0 M-26.8 -4.7 Q-26.45 -3.95 -25.45 -3.8 -24.75 -3.8 -23.55 -5.2 L-23.55 -5.25 -20.55 -9.15 Q-17.15 -13.85 -14.35 -14.7 L-14.4 -14.7 -12.35 -14.9 -12.3 -14.85 Q-13.3 -15.45 -14.7 -15.65 -17.65 -16.0 -21.65 -13.45 -25.85 -10.8 -26.7 -7.55 -27.15 -5.7 -26.8 -4.7 M-25.6 -2.25 Q-27.6 -2.5 -28.2 -4.1 -28.8 -5.45 -28.2 -7.9 -27.25 -11.7 -22.45 -14.75 -17.9 -17.65 -14.5 -17.15 -12.0 -16.85 -10.5 -15.45 -9.95 -15.05 -9.15 -13.4 L-9.1 -12.9 -9.45 -12.45 Q-9.7 -12.3 -9.95 -12.3 L-10.4 -12.6 Q-11.0 -13.2 -12.55 -13.35 L-12.6 -13.35 -13.9 -13.25 -13.9 -13.2 Q-16.3 -12.4 -19.3 -8.25 L-22.35 -4.2 -22.4 -4.2 Q-24.3 -2.0 -25.6 -2.25" fill="#000000" fill-rule="evenodd" stroke="none"/>
    <path d="M5.95 -15.0 Q6.85 -15.7 8.2 -16.05 11.05 -16.8 15.35 -14.75 19.85 -12.65 21.15 -9.55 21.8 -7.75 21.6 -6.7 21.35 -5.9 20.35 -5.65 19.65 -5.6 18.3 -6.8 L18.3 -6.85 14.85 -10.35 Q10.85 -14.6 8.0 -15.05 L6.0 -15.0 5.95 -15.0 M-26.8 -4.7 Q-27.15 -5.7 -26.7 -7.55 -25.85 -10.8 -21.65 -13.45 -17.65 -16.0 -14.7 -15.65 -13.3 -15.45 -12.3 -14.85 L-12.35 -14.9 -14.4 -14.7 -14.35 -14.7 Q-17.15 -13.85 -20.55 -9.15 L-23.55 -5.25 -23.55 -5.2 Q-24.75 -3.8 -25.45 -3.8 -26.45 -3.95 -26.8 -4.7" fill="#3a281b" fill-rule="evenodd" stroke="none"/>
  </g>
</svg>
