<?xml version="1.0" encoding="UTF-8" standalone="no"?>
<svg xmlns:ffdec="https://www.free-decompiler.com/flash" xmlns:xlink="http://www.w3.org/1999/xlink" ffdec:objectType="shape" height="15.45px" width="45.35px" xmlns="http://www.w3.org/2000/svg">
  <g transform="matrix(1.0, 0.0, 0.0, 1.0, 24.95, 12.45)">
    <path d="M3.35 -9.75 Q4.3 -10.0 5.35 -9.75 8.2 -9.25 12.1 -4.95 L15.5 -1.35 Q16.8 -0.1 17.55 -0.15 18.5 -0.4 18.8 -1.2 19.05 -2.25 18.4 -4.0 17.15 -7.15 12.7 -9.35 8.45 -11.45 5.55 -10.75 4.2 -10.4 3.25 -9.7 L3.35 -9.75 M0.3 -7.95 Q0.9 -9.65 1.4 -10.1 2.75 -11.65 5.2 -12.2 8.5 -13.1 13.4 -10.7 18.5 -8.2 19.85 -4.55 20.7 -2.15 20.25 -0.75 19.8 0.9 17.9 1.35 L17.85 1.35 Q16.9 1.65 15.5 0.65 L14.45 -0.2 12.1 -2.7 10.95 -3.9 Q7.5 -7.7 5.05 -8.25 L3.75 -8.25 3.7 -8.25 Q2.15 -7.9 1.65 -7.25 L1.25 -6.95 0.7 -7.0 0.3 -7.4 0.3 -7.95 M-10.2 -7.8 L-10.2 -7.75 Q-12.65 -7.0 -15.7 -2.9 L-15.75 -2.9 -18.9 1.1 -18.9 1.05 Q-20.8 3.2 -22.15 2.95 L-22.15 2.9 Q-24.15 2.6 -24.7 1.05 -25.25 -0.35 -24.6 -2.75 -23.6 -6.55 -18.7 -9.5 -14.1 -12.3 -10.7 -11.7 -8.25 -11.35 -6.75 -9.95 -6.2 -9.5 -5.45 -7.85 -5.35 -7.6 -5.4 -7.35 L-5.75 -6.9 -6.3 -6.8 Q-6.6 -6.85 -6.75 -7.05 -7.3 -7.65 -8.85 -7.85 L-8.9 -7.9 -10.2 -7.8 M-10.65 -9.25 L-8.65 -9.4 -8.55 -9.4 Q-9.55 -10.0 -10.95 -10.2 -13.9 -10.6 -17.95 -8.15 -22.2 -5.6 -23.1 -2.35 -23.65 -0.55 -23.3 0.5 -22.95 1.25 -21.95 1.4 -21.25 1.4 -20.05 0.05 L-20.0 0.0 -16.95 -3.85 Q-13.45 -8.5 -10.65 -9.25" fill="#000000" fill-rule="evenodd" stroke="none"/>
    <path d="M3.35 -9.75 L3.25 -9.7 Q4.2 -10.4 5.55 -10.75 8.45 -11.45 12.7 -9.35 17.15 -7.15 18.4 -4.0 19.05 -2.25 18.8 -1.2 18.5 -0.4 17.55 -0.15 16.8 -0.1 15.5 -1.35 L12.1 -4.95 Q8.2 -9.25 5.35 -9.75 4.3 -10.0 3.35 -9.75 M-10.65 -9.25 Q-13.45 -8.5 -16.95 -3.85 L-20.0 0.0 -20.05 0.05 Q-21.25 1.4 -21.95 1.4 -22.95 1.25 -23.3 0.5 -23.65 -0.55 -23.1 -2.35 -22.2 -5.6 -17.95 -8.15 -13.9 -10.6 -10.95 -10.2 -9.55 -10.0 -8.55 -9.4 L-8.65 -9.4 -10.65 -9.25" fill="#3a281b" fill-rule="evenodd" stroke="none"/>
  </g>
</svg>
