<?xml version="1.0" encoding="UTF-8" standalone="no"?>
<svg xmlns:ffdec="https://www.free-decompiler.com/flash" xmlns:xlink="http://www.w3.org/1999/xlink" ffdec:objectType="shape" height="31.65px" width="40.2px" xmlns="http://www.w3.org/2000/svg">
  <g transform="matrix(1.0, 0.0, 0.0, 1.0, 0.95, 2.45)">
    <path d="M-0.95 15.1 Q-0.15 12.35 3.2 10.2 6.5 8.05 9.8 8.05 14.7 8.05 19.4 11.15 24.15 14.25 27.5 14.25 30.45 14.25 32.65 12.4 36.1 9.5 36.15 2.95 37.25 5.9 37.25 8.5 37.25 15.95 31.5 21.45 25.45 27.3 16.25 27.3 9.85 27.3 4.15 23.0 0.3 20.1 -0.9 17.75 L-0.95 15.1" fill="#3c2b13" fill-rule="evenodd" stroke="none"/>
    <path d="M-0.95 15.1 Q0.1 10.3 2.85 8.1 5.45 6.0 10.05 6.0 15.1 6.0 20.9 9.15 26.65 12.25 27.1 12.25 31.45 12.25 33.15 7.7 34.55 3.9 34.05 -2.45 36.3 -1.4 37.85 1.55 39.25 4.25 39.25 6.85 39.25 17.5 32.1 23.65 25.65 29.2 16.05 29.2 9.8 29.2 4.8 25.2 0.8 22.0 -0.9 17.75 0.3 20.1 4.15 23.0 9.85 27.3 16.25 27.3 25.45 27.3 31.5 21.45 37.25 15.95 37.25 8.5 37.25 5.9 36.15 2.95 36.1 9.5 32.65 12.4 30.45 14.25 27.5 14.25 24.15 14.25 19.4 11.15 14.7 8.05 9.8 8.05 6.5 8.05 3.2 10.2 -0.15 12.35 -0.95 15.1" fill="#271f16" fill-rule="evenodd" stroke="none"/>
  </g>
</svg>
