<?xml version="1.0" encoding="UTF-8" standalone="no"?>
<svg xmlns:ffdec="https://www.free-decompiler.com/flash" xmlns:xlink="http://www.w3.org/1999/xlink" ffdec:objectType="shape" height="27.8px" width="15.85px" xmlns="http://www.w3.org/2000/svg">
  <g transform="matrix(1.0, 0.0, 0.0, 1.0, 2.55, 26.2)">
    <path d="M-1.25 1.6 L-2.15 1.6 -1.9 0.6 Q-1.0 -3.55 -0.8 -7.75 L-0.75 -8.8 Q-0.65 -13.45 -1.4 -18.2 L-2.55 -25.05 -2.45 -25.6 -2.1 -26.05 -1.55 -26.2 7.2 -25.55 Q11.2 -25.2 12.65 -21.6 L13.3 -19.15 13.15 -18.5 12.2 -17.15 12.2 -17.1 11.35 -14.65 11.35 -14.6 10.1 -10.1 9.9 -9.1 9.85 -9.0 9.2 -5.2 8.85 -1.0 8.8 0.05 8.8 1.6 6.4 1.6 6.65 -0.5 6.75 -1.5 7.5 -6.5 7.95 -9.1 8.15 -10.15 8.4 -11.7 8.45 -11.85 9.45 -15.25 10.4 -17.85 10.55 -18.2 11.25 -19.25 10.8 -20.9 Q9.8 -23.35 7.0 -23.6 L-0.35 -24.15 1.15 -14.1 1.2 -13.8 1.25 -13.4 1.3 -13.0 0.95 -9.15 0.8 -8.1 0.75 -7.6 Q0.2 -3.25 -0.7 -0.05 L-1.1 1.25 -1.15 1.35 -1.25 1.6" fill="#4b3121" fill-rule="evenodd" stroke="none"/>
    <path d="M6.4 1.6 L-1.25 1.6 -1.15 1.35 -1.1 1.25 -0.7 -0.05 Q0.2 -3.25 0.75 -7.6 L0.8 -8.1 0.95 -9.15 1.3 -13.0 Q4.9 -11.75 7.2 -11.9 L8.45 -11.85 8.4 -11.7 8.15 -10.15 7.95 -9.1 7.5 -6.5 6.75 -1.5 6.65 -0.5 6.4 1.6" fill="#d0975e" fill-rule="evenodd" stroke="none"/>
    <path d="M1.3 -13.0 L1.25 -13.4 1.2 -13.8 1.15 -14.1 -0.35 -24.15 7.0 -23.6 Q9.8 -23.35 10.8 -20.9 L11.25 -19.25 10.55 -18.2 10.4 -17.85 9.45 -15.25 8.45 -11.85 7.2 -11.9 Q4.9 -11.75 1.3 -13.0" fill="#ba8350" fill-rule="evenodd" stroke="none"/>
  </g>
</svg>
