<?xml version="1.0" encoding="UTF-8" standalone="no"?>
<svg xmlns:ffdec="https://www.free-decompiler.com/flash" xmlns:xlink="http://www.w3.org/1999/xlink" ffdec:objectType="shape" height="28.75px" width="70.85px" xmlns="http://www.w3.org/2000/svg">
  <g transform="matrix(1.0, 0.0, 0.0, 1.0, 39.05, -2.15)">
    <path d="M31.8 9.95 L31.05 10.05 10.65 11.75 Q11.45 14.75 11.45 16.15 11.45 22.35 7.1 25.85 3.1 29.1 -3.2 29.1 -9.0 29.1 -13.3 24.0 -17.65 18.9 -16.4 13.45 L-18.15 13.5 Q-17.45 16.6 -17.45 18.7 -17.45 25.5 -21.35 28.6 -24.25 30.9 -28.75 30.9 -32.15 30.9 -35.2 27.4 -39.05 23.0 -39.05 15.5 -39.05 10.95 -36.45 7.45 -33.9 3.95 -30.55 3.95 -28.95 3.95 -27.2 4.6 L-21.7 5.25 Q-16.4 5.25 -12.05 3.7 -7.7 2.15 -4.85 2.15 -3.35 2.15 -1.25 2.85 1.15 3.65 3.65 3.85 L26.3 5.4 29.85 5.45 31.8 9.95 M19.1 9.7 L29.75 9.0 28.75 6.5 17.8 6.0 16.15 5.9 14.5 5.8 14.5 5.85 10.85 5.7 10.85 5.65 9.65 5.65 4.45 5.4 Q3.95 5.05 -0.1 3.95 L-4.25 2.95 -7.55 3.35 Q-10.3 4.0 -12.0 5.65 L-13.8 5.9 -21.2 6.75 -23.95 6.8 Q-25.05 6.0 -26.7 5.45 -28.35 4.9 -29.5 4.9 L-31.0 5.35 -33.1 6.25 -36.15 9.75 Q-37.9 12.35 -37.9 15.7 -37.9 21.55 -36.1 23.85 L-35.5 24.9 -33.8 27.0 Q-30.95 29.5 -28.05 29.35 L-28.5 29.4 -26.65 29.75 Q-24.65 29.75 -22.85 28.45 L-22.7 28.25 -21.1 26.95 -20.0 26.25 Q-19.75 25.9 -19.55 24.4 L-19.35 24.05 Q-18.1 21.9 -18.1 18.0 -18.1 17.5 -18.85 13.75 L-18.9 12.85 -15.45 12.6 -15.0 15.15 Q-14.55 20.35 -12.8 22.15 L-12.0 23.2 -9.8 25.3 Q-8.0 26.5 -3.15 27.6 L-0.55 27.35 3.15 26.85 Q5.0 26.25 6.2 25.15 L6.05 25.35 Q10.5 21.5 10.5 16.1 L10.2 13.95 9.85 12.35 9.15 10.35 11.35 10.2 12.5 10.15 15.95 9.9 17.55 9.8 19.1 9.7" fill="#632c07" fill-rule="evenodd" stroke="none"/>
    <path d="M17.8 6.0 L28.75 6.5 29.75 9.0 19.1 9.7 17.8 6.0 M17.55 9.8 L15.95 9.9 14.5 5.85 14.5 5.8 16.15 5.9 17.55 9.8 M12.5 10.15 L11.35 10.2 9.65 5.65 10.85 5.65 10.85 5.7 12.5 10.15 M-0.55 27.35 L-3.15 27.6 Q-8.0 26.5 -9.8 25.3 L-8.7 24.3 -8.25 24.6 -7.4 25.1 -5.3 25.75 -3.1 26.05 Q1.0 26.05 3.85 23.35 6.75 20.55 6.75 16.35 6.75 14.6 5.85 11.8 L7.0 10.9 Q8.25 13.75 8.25 16.1 8.25 20.85 5.4 23.25 3.75 24.65 -0.55 27.35 M-12.0 23.2 L-12.8 22.15 -11.75 21.2 -11.0 22.2 -12.0 23.2 M-28.05 29.35 Q-30.95 29.5 -33.8 27.0 L-32.95 26.05 -32.7 26.3 Q-30.25 27.85 -28.7 27.85 -26.2 27.85 -24.1 25.85 -21.5 23.4 -21.5 19.2 -21.5 17.0 -22.3 13.7 L-21.45 12.8 -20.7 13.9 Q-20.35 14.7 -20.35 18.0 -20.35 23.45 -23.1 26.7 -25.35 29.25 -28.05 29.35 M-35.5 24.9 L-36.1 23.85 -35.3 22.9 -34.9 23.7 -34.75 23.9 -35.5 24.9 M-23.95 6.8 L-21.2 6.75 -20.75 7.85 -23.15 7.75 -24.4 6.75 -23.95 6.8 M-13.8 5.9 L-12.0 5.65 -12.65 6.35 Q-12.65 6.8 -13.15 7.1 L-14.45 7.4 -13.8 5.9 M3.75 8.6 L2.8 7.65 3.85 6.65 4.8 7.55 3.75 8.6 M-16.2 11.8 Q-16.45 10.95 -15.1 10.1 -15.1 10.8 -15.4 11.3 -15.75 11.8 -16.2 11.8 M-19.25 10.2 L-18.9 11.85 Q-20.15 11.9 -21.0 11.15 L-21.65 10.4 -21.6 10.3 -19.25 10.2 M-24.65 9.5 L-23.9 8.55 -23.2 9.45 -23.95 10.45 -24.65 9.5" fill="#ecbd00" fill-rule="evenodd" stroke="none"/>
    <path d="M19.1 9.7 L17.55 9.8 16.15 5.9 17.8 6.0 19.1 9.7 M15.95 9.9 L12.5 10.15 10.85 5.7 14.5 5.85 15.95 9.9 M11.35 10.2 L9.15 10.35 Q8.05 10.0 6.3 7.8 4.55 5.6 3.85 5.4 L4.45 5.4 9.65 5.65 11.35 10.2 M-9.8 25.3 L-12.0 23.2 -11.0 22.2 -10.65 22.6 -10.6 22.6 -8.7 24.3 -9.8 25.3 M-12.8 22.15 Q-14.55 20.35 -15.0 15.15 L-14.6 12.4 -14.05 10.25 -13.8 9.8 Q-13.0 8.2 -11.1 6.45 -8.1 3.65 -4.8 3.65 0.85 3.65 3.85 6.65 L2.8 7.65 2.05 7.05 -0.2 5.75 Q-5.15 4.25 -9.15 6.65 -13.5 9.25 -13.5 15.2 -13.5 18.95 -13.3 19.25 L-11.95 20.85 -11.75 21.2 -12.8 22.15 M-33.8 27.0 L-35.5 24.9 -34.75 23.9 -33.6 25.4 -32.95 26.05 -33.8 27.0 M-36.1 23.85 Q-37.9 21.55 -37.9 15.7 -37.9 12.35 -36.15 9.75 L-33.1 6.25 -31.6 5.65 -30.35 5.45 -27.25 5.4 Q-26.55 5.65 -23.9 8.55 L-24.65 9.5 -25.9 8.3 Q-26.65 7.8 -28.1 7.35 L-30.25 6.95 Q-32.3 6.95 -34.25 9.0 -36.8 11.6 -36.8 15.9 -36.8 18.3 -36.4 20.15 L-35.3 22.9 -36.1 23.85 M-21.2 6.75 L-13.8 5.9 -14.45 7.4 -20.75 7.85 -21.2 6.75 M4.45 9.35 L3.75 8.6 4.8 7.55 5.5 8.35 6.55 9.95 7.0 10.9 5.85 11.8 5.25 10.55 4.45 9.35 M-16.2 11.8 L-18.9 11.85 -19.25 10.2 -15.1 10.1 Q-16.45 10.95 -16.2 11.8 M-23.2 9.45 Q-22.75 9.85 -22.1 11.3 L-21.45 12.8 -22.3 13.7 -22.4 13.3 -22.95 12.0 -23.8 10.65 -23.95 10.45 -23.2 9.45" fill="#ffd942" fill-rule="evenodd" stroke="none"/>
    <path d="M9.85 12.35 L10.2 13.95 10.5 16.1 Q10.5 21.5 6.05 25.35 L6.2 25.15 7.55 23.45 Q8.35 22.3 9.05 19.55 L9.7 16.05 Q9.7 14.95 8.95 11.85 9.65 11.8 9.85 12.35 M-18.85 13.75 Q-18.1 17.5 -18.1 18.0 -18.1 21.9 -19.35 24.05 L-19.55 24.4 -19.35 17.45 Q-19.35 16.15 -19.95 13.5 L-18.95 13.5 -18.85 13.75" fill="#d7ac00" fill-rule="evenodd" stroke="none"/>
    <path d="M9.15 10.35 L9.85 12.35 Q9.65 11.8 8.95 11.85 9.7 14.95 9.7 16.05 L9.05 19.55 Q8.35 22.3 7.55 23.45 L6.2 25.15 Q5.0 26.25 3.15 26.85 L-0.55 27.35 Q3.75 24.65 5.4 23.25 8.25 20.85 8.25 16.1 8.25 13.75 7.0 10.9 L6.55 9.95 5.5 8.35 4.8 7.55 3.85 6.65 Q0.85 3.65 -4.8 3.65 -8.1 3.65 -11.1 6.45 -13.0 8.2 -13.8 9.8 L-14.05 10.25 -14.6 12.4 -15.0 15.15 -15.45 12.6 -18.9 12.85 -18.85 13.75 -18.95 13.5 -19.95 13.5 Q-19.35 16.15 -19.35 17.45 L-19.55 24.4 Q-19.75 25.9 -20.0 26.25 L-21.1 26.95 -22.7 28.25 -22.85 28.45 Q-24.65 29.75 -26.65 29.75 L-28.5 29.4 -28.05 29.35 Q-25.35 29.25 -23.1 26.7 -20.35 23.45 -20.35 18.0 -20.35 14.7 -20.7 13.9 L-21.45 12.8 -22.1 11.3 Q-22.75 9.85 -23.2 9.45 L-23.9 8.55 Q-26.55 5.65 -27.25 5.4 L-30.35 5.45 -31.6 5.65 -33.1 6.25 -31.0 5.35 -29.5 4.9 Q-28.35 4.9 -26.7 5.45 -25.05 6.0 -23.95 6.8 L-24.4 6.75 -23.15 7.75 -20.75 7.85 -14.45 7.4 -13.15 7.1 Q-12.65 6.8 -12.65 6.35 L-12.0 5.65 Q-10.3 4.0 -7.55 3.35 L-4.25 2.95 -0.1 3.95 Q3.95 5.05 4.45 5.4 L3.85 5.4 Q4.55 5.6 6.3 7.8 8.05 10.0 9.15 10.35 M-18.9 11.85 L-16.2 11.8 Q-15.75 11.8 -15.4 11.3 -15.1 10.8 -15.1 10.1 L-19.25 10.2 -21.6 10.3 -21.65 10.4 -21.0 11.15 Q-20.15 11.9 -18.9 11.85" fill="#c58101" fill-rule="evenodd" stroke="none"/>
    <path d="M2.05 7.05 L2.7 7.6 -8.5 20.0 -10.6 22.6 -10.65 22.6 -11.0 22.2 -11.75 21.2 -11.95 20.85 Q-10.65 18.35 -6.2 12.9 L-0.2 5.75 2.05 7.05 M-8.25 24.6 L-2.4 17.5 4.45 9.35 5.25 10.55 -3.1 19.8 -7.4 25.1 -8.25 24.6 M-25.9 8.3 L-24.65 9.5 -23.95 10.45 -23.8 10.65 -34.9 23.7 -35.3 22.9 -36.4 20.15 Q-32.6 15.4 -25.9 8.3 M-33.6 25.4 L-30.4 20.7 -22.95 12.0 -22.4 13.3 Q-28.55 19.85 -30.15 22.25 L-32.7 26.3 -32.95 26.05 -33.6 25.4" fill="#ffffff" fill-opacity="0.4509804" fill-rule="evenodd" stroke="none"/>
    <path d="M-10.6 22.6 L-8.5 20.0 2.7 7.6 2.05 7.05 2.8 7.65 3.75 8.6 4.45 9.35 -2.4 17.5 -8.25 24.6 -8.7 24.3 -10.6 22.6 M-0.2 5.75 L-6.2 12.9 Q-10.65 18.35 -11.95 20.85 L-13.3 19.25 Q-13.5 18.95 -13.5 15.2 -13.5 9.25 -9.15 6.65 -5.15 4.25 -0.2 5.75 M5.25 10.55 L5.85 11.8 Q6.75 14.6 6.75 16.35 6.75 20.55 3.85 23.35 1.0 26.05 -3.1 26.05 L-5.3 25.75 -7.4 25.1 -3.1 19.8 5.25 10.55" fill="url(#gradient0)" fill-rule="evenodd" stroke="none"/>
    <path d="M-36.4 20.15 Q-36.8 18.3 -36.8 15.9 -36.8 11.6 -34.25 9.0 -32.3 6.95 -30.25 6.95 L-28.1 7.35 Q-26.65 7.8 -25.9 8.3 -32.6 15.4 -36.4 20.15 M-23.8 10.65 L-22.95 12.0 -30.4 20.7 -33.6 25.4 -34.75 23.9 -34.9 23.7 -23.8 10.65 M-22.4 13.3 L-22.3 13.7 Q-21.5 17.0 -21.5 19.2 -21.5 23.4 -24.1 25.85 -26.2 27.85 -28.7 27.85 -30.25 27.85 -32.7 26.3 L-30.15 22.25 Q-28.55 19.85 -22.4 13.3" fill="url(#gradient1)" fill-rule="evenodd" stroke="none"/>
  </g>
  <defs>
    <linearGradient gradientTransform="matrix(-5.0E-4, -0.0083, 0.0127, -7.0E-4, -3.35, 15.0)" gradientUnits="userSpaceOnUse" id="gradient0" spreadMethod="pad" x1="-819.2" x2="819.2">
      <stop offset="0.0" stop-color="#ffffff" stop-opacity="0.30980393"/>
      <stop offset="1.0" stop-color="#873e07" stop-opacity="0.7882353"/>
    </linearGradient>
    <linearGradient gradientTransform="matrix(-2.0E-4, -0.0069, 0.0092, -2.0E-4, -29.5, 16.35)" gradientUnits="userSpaceOnUse" id="gradient1" spreadMethod="pad" x1="-819.2" x2="819.2">
      <stop offset="0.0" stop-color="#ffffff" stop-opacity="0.30980393"/>
      <stop offset="1.0" stop-color="#873e07" stop-opacity="0.7882353"/>
    </linearGradient>
  </defs>
</svg>
