<?xml version="1.0" encoding="UTF-8" standalone="no"?>
<svg xmlns:ffdec="https://www.free-decompiler.com/flash" xmlns:xlink="http://www.w3.org/1999/xlink" ffdec:objectType="shape" height="135.0px" width="68.8px" xmlns="http://www.w3.org/2000/svg">
  <g transform="matrix(1.0, 0.0, 0.0, 1.0, 30.25, 136.15)">
    <path d="M4.5 -131.4 Q4.1 -132.7 2.4 -133.5 -1.25 -135.25 -3.6 -132.6 -6.15 -129.8 -5.75 -125.7 -5.6 -123.85 -4.75 -123.15 L-2.35 -122.95 -2.2 -123.0 Q1.25 -124.1 3.7 -128.1 L3.65 -128.1 4.5 -130.15 4.5 -131.4 M5.5 -129.0 L4.75 -127.45 Q3.1 -124.75 1.05 -123.25 -0.4 -122.2 -2.0 -121.75 L-2.45 -121.65 -3.0 -121.55 Q-4.55 -121.35 -5.5 -122.15 -6.8 -123.1 -7.0 -125.6 -7.4 -129.9 -5.05 -132.85 -6.25 -131.9 -7.0 -130.55 L-7.3 -130.0 -9.55 -125.3 -11.55 -121.2 -12.05 -120.2 -23.5 -98.1 Q-27.8 -90.0 -28.6 -83.6 -28.95 -80.7 -28.6 -78.1 L-28.55 -77.8 Q-27.55 -72.15 -22.9 -68.3 L-21.45 -67.2 Q-20.3 -66.4 -18.95 -65.7 L-17.7 -65.05 -17.7 -64.85 -17.7 -64.65 -17.7 -64.55 -17.7 -64.45 -17.75 -63.95 -18.05 -60.05 -18.25 -56.6 -18.25 -56.45 Q-18.6 -49.7 -19.7 -41.55 L-20.45 -36.55 -22.3 -29.1 -22.75 -27.45 -22.75 -27.3 Q-24.6 -21.45 -26.15 -14.4 L-26.2 -14.35 -26.35 -13.65 -26.35 -13.6 -26.7 -12.2 -26.7 -12.15 -26.7 -12.05 -27.95 -6.95 Q-21.1 -4.4 -10.0 -3.85 L-0.6 -2.9 9.75 -2.45 15.55 -2.9 23.9 -3.9 Q28.95 -4.7 34.45 -6.2 L36.7 -6.85 35.8 -11.2 35.5 -12.5 35.55 -12.5 35.2 -13.85 35.2 -13.9 34.65 -15.75 32.2 -24.05 Q30.25 -29.4 28.9 -34.75 L28.35 -36.55 26.55 -45.25 26.3 -46.6 25.85 -49.25 Q24.55 -56.6 23.5 -63.95 L23.45 -64.1 23.4 -64.65 22.85 -67.7 22.7 -69.7 20.9 -90.7 20.9 -91.1 19.95 -98.5 Q18.6 -106.85 15.8 -114.4 14.55 -117.9 12.95 -121.2 12.6 -122.4 8.6 -129.05 6.55 -132.4 4.3 -133.85 5.45 -133.0 5.7 -131.7 6.05 -130.55 5.5 -129.0 M-28.6 -90.2 Q-27.25 -94.25 -24.85 -98.8 L-13.25 -121.2 -10.25 -127.25 -8.75 -130.5 Q-6.9 -134.6 -2.0 -135.75 L-0.35 -136.05 Q5.85 -136.85 10.15 -129.55 14.4 -122.3 14.6 -121.2 21.1 -107.35 22.4 -90.8 L22.7 -87.4 23.2 -81.7 24.4 -67.85 24.85 -64.95 24.95 -64.3 25.0 -63.95 25.95 -58.0 27.35 -49.5 27.7 -47.6 28.15 -45.0 29.9 -36.55 30.35 -35.05 Q31.75 -29.8 33.65 -24.4 L35.0 -20.15 36.65 -14.25 37.05 -12.8 37.05 -12.75 37.35 -11.45 38.2 -7.4 38.5 -5.95 38.55 -5.75 37.05 -5.3 37.0 -5.35 Q34.25 -4.35 30.95 -3.6 21.6 -1.55 7.95 -1.15 -5.5 -1.25 -18.45 -3.35 -24.2 -4.45 -28.2 -5.7 L-29.8 -6.0 -29.75 -6.25 -29.5 -7.55 -28.25 -12.35 -28.1 -13.2 -27.85 -13.9 -27.9 -13.85 -27.7 -14.65 Q-26.1 -21.7 -24.25 -27.65 L-22.8 -33.15 -22.0 -36.55 -21.65 -38.5 -21.2 -41.75 -20.15 -50.7 -19.75 -56.7 -19.3 -63.95 -19.3 -64.2 -21.8 -65.6 -23.25 -66.65 Q-28.6 -70.75 -29.85 -76.75 L-28.6 -76.75 -28.6 -78.1 -28.6 -76.75 -29.85 -76.75 -30.0 -77.55 Q-30.95 -83.1 -28.6 -90.2 L-28.6 -83.6 -28.6 -90.2" fill="#3c1f4b" fill-rule="evenodd" stroke="none"/>
    <path d="M1.7 -121.95 L3.9 -123.95 6.5 -127.25 5.5 -129.0 Q6.05 -130.55 5.7 -131.7 5.45 -133.0 4.3 -133.85 6.55 -132.4 8.6 -129.05 12.6 -122.4 12.95 -121.2 14.55 -117.9 15.8 -114.4 18.6 -106.85 19.95 -98.5 L20.9 -91.1 20.9 -90.7 22.7 -69.7 22.85 -67.7 23.4 -64.65 23.45 -64.1 23.5 -63.95 Q24.55 -56.6 25.85 -49.25 L26.3 -46.6 26.55 -45.25 28.35 -36.55 28.9 -34.75 Q30.25 -29.4 32.2 -24.05 L34.65 -15.75 35.2 -13.9 35.2 -13.85 35.55 -12.5 35.5 -12.5 35.8 -11.2 36.7 -6.85 34.45 -6.2 Q28.95 -4.7 23.9 -3.9 L15.55 -2.9 9.75 -2.45 -0.6 -2.9 -10.0 -3.85 Q-21.1 -4.4 -27.95 -6.95 L-26.7 -12.05 -26.7 -12.15 -26.7 -12.2 -26.35 -13.6 -26.35 -13.65 -26.2 -14.35 -26.15 -14.4 Q-24.6 -21.45 -22.75 -27.3 L-22.75 -27.45 -21.9 -29.75 -22.3 -29.1 -20.45 -36.55 -19.7 -41.55 Q-18.6 -49.7 -18.25 -56.45 L-18.25 -56.6 -18.05 -60.05 -17.75 -63.95 -17.7 -64.45 -17.7 -64.55 -17.7 -64.65 -17.7 -64.85 -17.7 -65.05 -18.95 -65.7 Q-20.3 -66.4 -21.45 -67.2 L-22.9 -68.3 Q-27.55 -72.15 -28.55 -77.8 L-28.6 -78.1 Q-28.95 -80.7 -28.6 -83.6 -27.8 -90.0 -23.5 -98.1 L-12.05 -120.2 -11.55 -121.2 -9.55 -125.3 -7.3 -130.0 -7.0 -130.55 Q-6.25 -131.9 -5.05 -132.85 -7.4 -129.9 -7.0 -125.6 -6.8 -123.1 -5.5 -122.15 -4.55 -121.35 -3.0 -121.55 L-3.85 -119.95 -3.55 -119.95 -3.45 -119.95 -2.85 -120.0 1.7 -121.95 M3.9 -122.9 Q-0.55 -118.95 -4.0 -118.95 L-4.4 -118.95 -4.9 -118.05 -9.4 -108.0 Q-11.5 -103.15 -12.75 -102.45 L-13.7 -102.75 -13.8 -103.7 -12.75 -106.8 Q-11.6 -110.2 -11.05 -112.85 L-10.9 -114.05 Q-15.05 -107.95 -18.7 -101.5 -25.8 -88.9 -25.8 -82.95 -25.8 -76.2 -21.2 -74.4 -17.75 -73.1 -4.7 -73.1 L-1.65 -73.6 2.35 -74.5 Q2.8 -73.75 2.8 -72.55 2.8 -68.05 -2.35 -64.25 -7.3 -60.55 -12.3 -60.8 -12.3 -48.8 -12.8 -41.15 L-9.6 -41.5 -6.3 -41.75 -5.2 -40.6 Q-6.85 -39.1 -12.2 -37.35 L-14.1 -36.55 -14.15 -36.55 Q-16.75 -35.3 -17.65 -33.3 L-17.6 -32.65 Q-17.1 -32.1 -16.15 -32.1 L-14.5 -32.4 -12.95 -32.8 -10.8 -32.35 -8.85 -31.75 -8.65 -31.15 Q-10.4 -29.6 -13.7 -29.9 -13.6 -29.3 -19.95 -9.25 -16.45 -6.85 -9.6 -6.7 L9.3 -5.75 Q21.4 -4.95 27.25 -7.85 33.0 -10.75 31.0 -10.65 28.6 -16.35 28.6 -17.35 L27.7 -19.35 Q26.4 -22.05 24.9 -26.45 L20.55 -26.3 Q19.95 -26.95 19.85 -27.3 L21.55 -27.35 Q23.15 -27.45 24.4 -28.6 L25.0 -30.3 Q25.4 -31.95 25.35 -33.95 L24.6 -36.55 24.65 -36.55 22.85 -42.35 19.25 -41.6 18.15 -41.75 Q17.85 -41.8 17.85 -42.8 17.85 -44.8 22.4 -45.05 L19.8 -57.95 Q17.65 -68.95 17.9 -73.3 L17.8 -74.5 Q17.4 -72.65 16.4 -70.25 15.4 -67.9 14.8 -67.35 L13.9 -67.55 Q13.7 -67.7 13.7 -68.45 L14.85 -74.05 Q15.95 -79.75 15.95 -84.9 L15.85 -86.35 Q15.2 -84.4 13.45 -81.65 11.9 -79.1 11.2 -78.6 L10.4 -79.1 Q10.1 -79.35 10.1 -79.8 L12.65 -84.9 Q15.15 -90.3 15.15 -92.4 13.55 -102.0 11.3 -111.5 8.95 -121.4 7.0 -126.1 5.95 -124.75 3.9 -122.9 M-18.9 -91.25 Q-19.15 -92.0 -18.25 -92.25 L-15.55 -92.45 -15.4 -92.15 -15.4 -91.85 -15.75 -91.2 -17.55 -90.95 Q-18.4 -90.95 -18.9 -91.35 L-18.9 -91.25 M-6.75 -98.1 Q-5.75 -97.9 -5.45 -97.6 -6.95 -95.35 -13.9 -95.35 -16.95 -95.35 -18.55 -96.95 L-18.4 -97.05 -15.4 -97.75 -8.55 -98.35 -6.75 -98.1 M-15.3 -58.8 L-15.25 -58.25 -15.2 -59.45 -15.3 -58.8" fill="#65347e" fill-rule="evenodd" stroke="none"/>
    <path d="M5.5 -129.0 L6.5 -127.25 3.9 -123.95 1.7 -121.95 1.95 -122.6 Q1.95 -123.35 1.05 -123.25 3.1 -124.75 4.75 -127.45 L5.5 -129.0 M-3.55 -119.95 L-3.85 -119.95 -3.0 -121.55 -2.45 -121.65 Q-3.55 -120.9 -3.55 -120.35 L-3.55 -119.95 M-22.3 -29.1 L-21.9 -29.75 -22.75 -27.45 -22.3 -29.1 M1.15 -116.15 Q-1.4 -109.1 -5.15 -104.3 -5.8 -103.5 -9.35 -102.2 -13.3 -100.75 -15.4 -101.1 L-16.05 -100.5 Q-14.45 -98.6 -2.45 -98.6 10.35 -98.6 9.3 -109.9 8.9 -113.8 7.0 -117.7 5.25 -121.25 4.25 -121.25 3.0 -121.25 1.15 -116.15 M11.9 -100.2 L11.3 -100.35 4.9 -95.6 Q-1.75 -90.85 -3.25 -90.7 -16.65 -89.35 -18.35 -88.5 -19.7 -87.85 -20.0 -86.35 L-20.15 -82.25 Q-20.15 -79.4 -17.9 -78.25 -15.9 -77.25 -11.5 -77.25 -0.95 -77.25 2.85 -79.0 6.65 -80.7 9.3 -86.6 12.0 -92.6 12.15 -94.75 11.8 -96.6 11.8 -98.25 L11.85 -100.05 11.9 -100.2 M3.9 -122.9 Q5.95 -124.75 7.0 -126.1 8.95 -121.4 11.3 -111.5 13.55 -102.0 15.15 -92.4 15.15 -90.3 12.65 -84.9 L10.1 -79.8 Q10.1 -79.35 10.4 -79.1 L11.2 -78.6 Q11.9 -79.1 13.45 -81.65 15.2 -84.4 15.85 -86.35 L15.95 -84.9 Q15.95 -79.75 14.85 -74.05 L13.7 -68.45 Q13.7 -67.7 13.9 -67.55 L14.8 -67.35 Q15.4 -67.9 16.4 -70.25 17.4 -72.65 17.8 -74.5 L17.9 -73.3 Q17.65 -68.95 19.8 -57.95 L22.4 -45.05 Q17.85 -44.8 17.85 -42.8 17.85 -41.8 18.15 -41.75 L19.25 -41.6 22.85 -42.35 24.65 -36.55 24.6 -36.55 25.35 -33.95 Q25.4 -31.95 25.0 -30.3 L24.4 -28.6 Q23.15 -27.45 21.55 -27.35 L19.85 -27.3 Q19.95 -26.95 20.55 -26.3 L24.9 -26.45 Q26.4 -22.05 27.7 -19.35 L28.6 -17.35 Q28.6 -16.35 31.0 -10.65 33.0 -10.75 27.25 -7.85 21.4 -4.95 9.3 -5.75 L-9.6 -6.7 Q-16.45 -6.85 -19.95 -9.25 -13.6 -29.3 -13.7 -29.9 -10.4 -29.6 -8.65 -31.15 L-8.85 -31.75 -10.8 -32.35 -12.95 -32.8 -14.5 -32.4 -16.15 -32.1 Q-17.1 -32.1 -17.6 -32.65 L-17.65 -33.3 Q-16.75 -35.3 -14.15 -36.55 L-14.1 -36.55 -12.2 -37.35 Q-6.85 -39.1 -5.2 -40.6 L-6.3 -41.75 -9.6 -41.5 -12.8 -41.15 Q-12.3 -48.8 -12.3 -60.8 -7.3 -60.55 -2.35 -64.25 2.8 -68.05 2.8 -72.55 2.8 -73.75 2.35 -74.5 L-1.65 -73.6 -4.7 -73.1 Q-17.75 -73.1 -21.2 -74.4 -25.8 -76.2 -25.8 -82.95 -25.8 -88.9 -18.7 -101.5 -15.05 -107.95 -10.9 -114.05 L-11.05 -112.85 Q-11.6 -110.2 -12.75 -106.8 L-13.8 -103.7 -13.7 -102.75 -12.75 -102.45 Q-11.5 -103.15 -9.4 -108.0 L-4.9 -118.05 -4.4 -118.95 -4.0 -118.95 Q-0.55 -118.95 3.9 -122.9 M13.05 -76.5 L12.0 -76.8 Q11.35 -76.8 8.65 -71.0 L5.95 -64.95 Q5.3 -63.95 -1.95 -59.0 -8.55 -54.45 -8.55 -53.05 -8.55 -48.0 -7.1 -47.0 -5.75 -46.0 2.05 -41.6 -5.35 -39.45 -8.8 -37.85 -10.5 -37.05 -10.95 -36.55 L-11.0 -36.55 -11.15 -36.2 Q-11.2 -34.4 -8.3 -32.85 -3.7 -30.35 -1.7 -28.55 -7.95 -27.55 -9.05 -26.6 -10.15 -25.75 -10.25 -21.85 L-11.75 -16.65 Q-13.25 -12.0 -13.4 -10.45 -13.7 -8.9 -5.6 -8.3 2.45 -7.75 16.35 -7.85 30.1 -8.0 25.4 -15.0 20.8 -21.85 17.45 -22.85 14.1 -23.9 14.1 -27.1 14.05 -30.05 17.6 -30.95 21.1 -31.85 21.0 -35.35 L20.75 -36.55 Q20.1 -38.65 17.25 -40.85 11.5 -45.35 11.05 -45.85 13.0 -46.55 16.8 -47.3 18.35 -47.6 18.35 -48.8 18.35 -53.45 17.4 -56.3 16.4 -59.35 14.55 -59.35 L11.6 -58.75 7.2 -57.75 11.9 -70.05 Q13.1 -73.6 13.1 -75.35 L13.05 -76.5 M-2.2 -92.65 Q-1.45 -92.9 -0.8 -93.85 L-1.5 -95.15 Q-1.85 -95.5 -2.55 -95.5 L-6.3 -94.85 -9.7 -94.25 -14.85 -94.55 Q-19.35 -94.85 -19.65 -94.65 L-20.05 -93.95 Q-19.25 -93.35 -16.9 -92.8 -13.7 -92.0 -9.95 -92.0 L-2.2 -92.65 M-6.75 -98.1 L-8.55 -98.35 -15.4 -97.75 -18.4 -97.05 -18.55 -96.95 Q-16.95 -95.35 -13.9 -95.35 -6.95 -95.35 -5.45 -97.6 -5.75 -97.9 -6.75 -98.1 M-18.9 -91.25 L-18.9 -91.35 Q-18.4 -90.95 -17.55 -90.95 L-15.75 -91.2 -15.4 -91.85 -15.4 -92.15 -15.55 -92.45 -18.25 -92.25 Q-19.15 -92.0 -18.9 -91.25 M-15.3 -58.8 L-15.2 -59.45 -15.25 -58.25 -15.3 -58.8" fill="#763e95" fill-rule="evenodd" stroke="none"/>
    <path d="M1.05 -123.25 Q1.95 -123.35 1.95 -122.6 L1.7 -121.95 -2.85 -120.0 -3.45 -119.95 -3.55 -119.95 -3.55 -120.35 Q-3.55 -120.9 -2.45 -121.65 L-2.0 -121.75 Q-0.4 -122.2 1.05 -123.25 M1.15 -116.15 Q3.0 -121.25 4.25 -121.25 5.25 -121.25 7.0 -117.7 8.9 -113.8 9.3 -109.9 10.35 -98.6 -2.45 -98.6 -14.45 -98.6 -16.05 -100.5 L-15.4 -101.1 Q-13.3 -100.75 -9.35 -102.2 -5.8 -103.5 -5.15 -104.3 -1.4 -109.1 1.15 -116.15 M4.95 -112.9 L4.2 -113.05 Q3.25 -113.05 0.9 -109.0 -1.45 -104.9 -1.45 -102.95 -1.45 -102.25 -1.05 -101.85 -0.7 -101.5 -0.15 -101.5 1.45 -101.5 3.1 -103.85 5.2 -106.75 5.2 -111.25 L5.05 -112.75 4.95 -112.9 M11.9 -100.2 L11.85 -100.05 11.8 -98.25 Q11.8 -96.6 12.15 -94.75 12.0 -92.6 9.3 -86.6 6.65 -80.7 2.85 -79.0 -0.95 -77.25 -11.5 -77.25 -15.9 -77.25 -17.9 -78.25 -20.15 -79.4 -20.15 -82.25 L-20.0 -86.35 Q-19.7 -87.85 -18.35 -88.5 -16.65 -89.35 -3.25 -90.7 -1.75 -90.85 4.9 -95.6 L11.3 -100.35 11.9 -100.2 M3.0 -91.65 Q-2.65 -88.1 -4.2 -87.85 L-14.1 -87.05 Q-17.8 -86.65 -17.8 -83.4 -17.8 -81.65 -16.9 -81.35 L-12.9 -81.1 Q-5.6 -81.1 -1.2 -82.4 3.6 -83.9 2.8 -86.45 4.5 -86.75 6.9 -89.95 9.2 -93.05 9.1 -94.6 L9.1 -94.95 8.5 -95.1 3.0 -91.65 M13.05 -76.5 L13.1 -75.35 Q13.1 -73.6 11.9 -70.05 L7.2 -57.75 11.6 -58.75 14.55 -59.35 Q16.4 -59.35 17.4 -56.3 18.35 -53.45 18.35 -48.8 18.35 -47.6 16.8 -47.3 13.0 -46.55 11.05 -45.85 11.5 -45.35 17.25 -40.85 20.1 -38.65 20.75 -36.55 L21.0 -35.35 Q21.1 -31.85 17.6 -30.95 14.05 -30.05 14.1 -27.1 14.1 -23.9 17.45 -22.85 20.8 -21.85 25.4 -15.0 30.1 -8.0 16.35 -7.85 2.45 -7.75 -5.6 -8.3 -13.7 -8.9 -13.4 -10.45 -13.25 -12.0 -11.75 -16.65 L-10.25 -21.85 Q-10.15 -25.75 -9.05 -26.6 -7.95 -27.55 -1.7 -28.55 -3.7 -30.35 -8.3 -32.85 -11.2 -34.4 -11.15 -36.2 L-11.0 -36.55 -10.95 -36.55 Q-10.5 -37.05 -8.8 -37.85 -5.35 -39.45 2.05 -41.6 -5.75 -46.0 -7.1 -47.0 -8.55 -48.0 -8.55 -53.05 -8.55 -54.45 -1.95 -59.0 5.3 -63.95 5.95 -64.95 L8.65 -71.0 Q11.35 -76.8 12.0 -76.8 L13.05 -76.5 M4.5 -44.55 Q4.7 -43.0 5.85 -41.3 7.45 -38.8 9.85 -38.6 L-1.15 -37.6 -6.2 -36.55 -6.25 -36.55 -7.2 -36.1 Q-7.0 -34.6 -2.6 -31.3 L5.5 -25.15 4.4 -25.2 Q1.75 -25.45 -1.15 -24.55 -3.6 -23.85 -4.5 -23.0 -3.5 -21.95 -0.75 -21.25 L3.25 -20.7 Q6.1 -20.75 9.7 -21.75 L12.7 -21.55 Q14.1 -21.6 14.1 -23.3 14.05 -24.5 12.05 -27.2 L8.15 -32.4 Q15.85 -34.95 15.8 -36.2 L15.75 -36.55 15.8 -36.55 Q15.6 -38.6 13.1 -40.45 10.85 -42.2 5.25 -44.65 L4.5 -44.55 M11.05 -50.15 Q13.7 -50.75 10.45 -54.5 L5.7 -55.0 Q-3.55 -56.9 -4.15 -53.8 -4.8 -50.75 -3.65 -50.2 -2.1 -49.45 1.7 -49.45 L11.05 -50.15 M6.25 -15.6 L-0.15 -15.75 -4.75 -15.95 -8.9 -15.65 -9.15 -15.45 -9.45 -14.7 Q-9.5 -13.15 -5.8 -11.85 -1.1 -10.2 7.65 -10.2 20.45 -10.2 22.9 -13.65 23.85 -15.0 22.25 -16.05 20.5 -17.15 16.95 -17.1 L10.45 -16.35 Q8.2 -15.6 6.25 -15.6 M-2.2 -92.65 L-9.95 -92.0 Q-13.7 -92.0 -16.9 -92.8 -19.25 -93.35 -20.05 -93.95 L-19.65 -94.65 Q-19.35 -94.85 -14.85 -94.55 L-9.7 -94.25 -6.3 -94.85 -2.55 -95.5 Q-1.85 -95.5 -1.5 -95.15 L-0.8 -93.85 Q-1.45 -92.9 -2.2 -92.65" fill="#8d49b1" fill-rule="evenodd" stroke="none"/>
    <path d="M4.95 -112.9 L5.05 -112.75 5.2 -111.25 Q5.2 -106.75 3.1 -103.85 1.45 -101.5 -0.15 -101.5 -0.7 -101.5 -1.05 -101.85 -1.45 -102.25 -1.45 -102.95 -1.45 -104.9 0.9 -109.0 3.25 -113.05 4.2 -113.05 L4.95 -112.9 M3.0 -91.65 L8.5 -95.1 9.1 -94.95 9.1 -94.6 Q9.2 -93.05 6.9 -89.95 4.5 -86.75 2.8 -86.45 3.6 -83.9 -1.2 -82.4 -5.6 -81.1 -12.9 -81.1 L-16.9 -81.35 Q-17.8 -81.65 -17.8 -83.4 -17.8 -86.65 -14.1 -87.05 L-4.2 -87.85 Q-2.65 -88.1 3.0 -91.65 M11.05 -50.15 L1.7 -49.45 Q-2.1 -49.45 -3.65 -50.2 -4.8 -50.75 -4.15 -53.8 -3.55 -56.9 5.7 -55.0 L10.45 -54.5 Q13.7 -50.75 11.05 -50.15 M4.5 -44.55 L5.25 -44.65 Q10.85 -42.2 13.1 -40.45 15.6 -38.6 15.8 -36.55 L15.75 -36.55 15.8 -36.2 Q15.85 -34.95 8.15 -32.4 L12.05 -27.2 Q14.05 -24.5 14.1 -23.3 14.1 -21.6 12.7 -21.55 L9.7 -21.75 Q6.1 -20.75 3.25 -20.7 L-0.75 -21.25 Q-3.5 -21.95 -4.5 -23.0 -3.6 -23.85 -1.15 -24.55 1.75 -25.45 4.4 -25.2 L5.5 -25.15 -2.6 -31.3 Q-7.0 -34.6 -7.2 -36.1 L-6.25 -36.55 -6.2 -36.55 -1.15 -37.6 9.85 -38.6 Q7.45 -38.8 5.85 -41.3 4.7 -43.0 4.5 -44.55 M6.25 -15.6 Q8.2 -15.6 10.45 -16.35 L16.95 -17.1 Q20.5 -17.15 22.25 -16.05 23.85 -15.0 22.9 -13.65 20.45 -10.2 7.65 -10.2 -1.1 -10.2 -5.8 -11.85 -9.5 -13.15 -9.45 -14.7 L-9.15 -15.45 -8.9 -15.65 -4.75 -15.95 -0.15 -15.75 6.25 -15.6" fill="#9b5cbc" fill-rule="evenodd" stroke="none"/>
    <path d="M-3.1 -102.65 L3.9 -103.05 3.75 -101.45 Q3.2 -99.9 2.15 -98.45 L0.0 -99.15 1.6 -100.4 2.85 -101.85 3.0 -102.15 2.35 -102.35 -3.2 -101.85 -3.1 -102.65 M-10.5 -99.75 L-10.9 -99.6 -10.7 -100.9 Q-10.35 -102.15 -8.3 -102.05 L-8.1 -101.25 Q-8.9 -101.4 -9.6 -100.95 -10.3 -100.55 -10.5 -99.75 M-20.15 -105.45 L-18.5 -107.75 -17.9 -106.65 -18.5 -106.4 Q-19.15 -106.55 -19.8 -105.85 L-20.15 -105.45 M-16.0 -104.0 L-14.85 -102.55 -15.65 -101.7 Q-15.5 -102.35 -15.65 -102.85 -15.9 -103.4 -16.3 -103.45 L-16.0 -104.0 M-18.95 -87.55 L-18.85 -88.0 -17.8 -87.45 -15.85 -86.8 -14.8 -86.9 -14.45 -87.15 -14.1 -86.05 Q-12.75 -84.1 -8.5 -81.0 L-8.2 -81.25 -7.8 -82.25 Q-7.2 -84.4 -8.75 -85.45 L-9.45 -86.15 -8.1 -85.75 Q-6.35 -85.4 -4.9 -86.5 -3.7 -87.5 -3.5 -88.8 L-3.2 -90.85 -4.25 -91.15 Q-5.7 -91.4 -6.5 -90.7 -7.2 -90.1 -8.25 -87.9 L-9.05 -87.25 -8.65 -88.05 -7.75 -90.75 -10.6 -91.75 -1.75 -92.2 -2.05 -85.3 Q-3.15 -83.3 -4.25 -83.45 -4.9 -83.6 -5.35 -83.9 L-8.6 -85.8 -6.55 -82.95 Q-4.95 -80.45 -4.8 -79.8 L-7.15 -77.95 Q-8.75 -79.8 -17.95 -86.75 L-18.95 -87.55 M-12.95 -91.9 L-14.95 -89.85 -14.75 -91.25 -18.5 -92.0 Q-18.2 -90.3 -18.5 -90.05 L-19.1 -91.7 -19.75 -93.4 -16.45 -92.55 -15.65 -92.35 -12.95 -91.9" fill="#c6bfc0" fill-rule="evenodd" stroke="none"/>
    <path d="M-3.2 -101.85 L2.35 -102.35 3.0 -102.15 2.85 -101.85 1.6 -100.4 0.0 -99.15 -4.65 -100.15 Q-3.75 -100.75 -3.2 -101.85 M-7.3 -100.25 L-10.5 -99.75 Q-10.3 -100.55 -9.6 -100.95 -8.9 -101.4 -8.1 -101.25 L-7.25 -100.35 -7.3 -100.25 M-15.65 -101.7 L-16.65 -100.6 -19.25 -102.35 Q-20.4 -103.25 -20.8 -104.05 L-20.8 -104.1 -20.2 -105.4 -20.15 -105.45 -19.8 -105.85 Q-19.15 -106.55 -18.5 -106.4 -19.15 -105.95 -19.35 -104.95 -19.75 -103.7 -18.85 -103.0 L-17.95 -102.65 Q-17.7 -102.6 -17.2 -102.9 L-16.3 -103.45 Q-15.9 -103.4 -15.65 -102.85 -15.5 -102.35 -15.65 -101.7 M-10.6 -91.75 L-7.75 -90.75 -8.65 -88.05 -9.05 -87.25 -8.25 -87.9 Q-7.2 -90.1 -6.5 -90.7 -5.7 -91.4 -4.25 -91.15 L-3.2 -90.85 -3.5 -88.8 Q-3.7 -87.5 -4.9 -86.5 -6.35 -85.4 -8.1 -85.75 L-9.45 -86.15 -8.75 -85.45 Q-7.2 -84.4 -7.8 -82.25 L-8.2 -81.25 -8.5 -81.0 Q-12.75 -84.1 -14.1 -86.05 L-14.45 -87.15 -14.8 -86.9 -15.85 -86.8 -17.8 -87.45 -18.85 -88.0 -18.95 -87.55 -19.25 -87.7 Q-18.35 -88.55 -17.45 -88.7 L-17.1 -88.7 -12.6 -87.6 -11.1 -87.1 Q-12.25 -88.15 -14.4 -88.8 L-17.2 -89.7 -18.5 -90.05 Q-18.2 -90.3 -18.5 -92.0 L-14.75 -91.25 -14.95 -89.85 -12.95 -91.9 -10.6 -91.75" fill="#e5e1e1" fill-rule="evenodd" stroke="none"/>
    <path d="M-3.1 -102.65 L-3.2 -101.85 Q-3.75 -100.75 -4.65 -100.15 L-7.15 -100.25 -7.25 -100.35 -8.1 -101.25 -8.3 -102.05 -3.1 -102.65 M4.6 -90.2 Q4.95 -89.6 4.45 -89.7 3.55 -89.85 3.1 -91.05 2.55 -92.7 -0.35 -94.45 L-2.85 -95.5 -5.45 -96.2 -8.75 -96.8 -6.95 -97.8 -1.0 -97.45 Q1.6 -96.95 4.35 -95.75 7.85 -94.25 7.45 -92.85 L7.3 -90.5 7.3 -88.85 Q5.8 -90.45 4.75 -90.65 4.3 -90.7 4.6 -90.2 M-17.9 -106.65 L-16.0 -104.0 -16.3 -103.45 -17.2 -102.9 Q-17.7 -102.6 -17.95 -102.65 L-18.85 -103.0 Q-19.75 -103.7 -19.35 -104.95 -19.15 -105.95 -18.5 -106.4 L-17.9 -106.65 M-19.3 -99.55 L-18.35 -98.95 -22.25 -98.55 -23.7 -98.2 -22.25 -101.25 -19.3 -99.55 M-18.5 -90.05 L-17.2 -89.7 -14.4 -88.8 Q-12.25 -88.15 -11.1 -87.1 L-12.6 -87.6 -17.1 -88.7 -17.45 -88.7 Q-18.35 -88.55 -19.25 -87.7 L-23.9 -89.45 -23.2 -89.6 Q-22.45 -89.95 -21.7 -91.6 -21.45 -92.45 -21.8 -94.1 L-19.75 -93.4 -19.1 -91.7 -18.5 -90.05 M-4.8 -79.8 Q-4.95 -80.45 -6.55 -82.95 L-8.6 -85.8 -5.35 -83.9 Q-4.9 -83.6 -4.25 -83.45 -3.15 -83.3 -2.05 -85.3 L-3.15 -82.55 -4.8 -79.8" fill="#161616" fill-rule="evenodd" stroke="none"/>
    <path d="M0.0 -99.15 L2.15 -98.45 Q3.2 -99.9 3.75 -101.45 L3.9 -103.05 -3.1 -102.65 -8.3 -102.05 Q-10.35 -102.15 -10.7 -100.9 L-10.9 -99.6 -10.5 -99.75 -7.3 -100.25 -7.15 -100.25 -4.65 -100.15 0.0 -99.15 M9.2 -102.0 L7.1 -102.65 Q5.2 -103.0 4.75 -102.15 4.15 -100.05 3.0 -98.05 L5.7 -95.95 6.95 -94.6 Q4.8 -95.9 3.55 -97.2 2.1 -98.05 -3.65 -99.15 L-9.15 -99.4 -14.9 -97.6 -13.35 -98.6 Q-11.7 -99.8 -11.7 -100.65 L-11.15 -101.0 Q-10.8 -101.35 -11.5 -101.5 -11.4 -101.45 -9.4 -102.4 -6.55 -103.3 -2.2 -103.6 L3.75 -104.05 7.95 -102.85 9.2 -102.0 M-20.15 -105.45 L-20.2 -105.4 -20.8 -104.1 -20.8 -104.05 Q-20.4 -103.25 -19.25 -102.35 L-16.65 -100.6 -15.65 -101.7 -14.85 -102.55 -16.0 -104.0 -17.9 -106.65 -18.5 -107.75 -20.15 -105.45 M-18.35 -109.45 Q-14.75 -103.5 -13.9 -102.85 L-15.3 -101.4 Q-16.25 -100.3 -16.45 -99.45 L-21.75 -102.35 -19.3 -107.35 -19.1 -107.65 -18.65 -108.75 -18.35 -109.45 M-10.6 -91.75 L-12.95 -91.9 -15.65 -92.35 -16.45 -92.55 -19.75 -93.4 -21.8 -94.1 Q-21.45 -92.45 -21.7 -91.6 -22.45 -89.95 -23.2 -89.6 L-23.9 -89.45 -19.25 -87.7 -18.95 -87.55 -17.95 -86.75 Q-8.75 -79.8 -7.15 -77.95 L-4.8 -79.8 -3.15 -82.55 -2.05 -85.3 -1.75 -92.2 -10.6 -91.75 M-12.2 -92.55 L-12.0 -92.55 Q-8.35 -92.1 -4.75 -92.45 L0.15 -93.2 Q-1.2 -90.9 -1.0 -89.1 -0.9 -86.3 -1.7 -83.35 -2.05 -81.85 -3.4 -80.05 -4.95 -78.0 -6.6 -77.3 L-5.1 -74.85 Q-5.6 -75.35 -6.9 -76.05 -12.75 -83.15 -18.15 -86.05 L-18.15 -86.1 Q-20.9 -87.75 -25.75 -88.7 L-25.05 -88.8 -24.5 -89.0 -27.6 -89.5 -27.2 -90.15 Q-23.0 -89.5 -22.4 -91.75 -22.25 -92.35 -22.65 -93.7 L-22.95 -95.05 -22.95 -95.6 Q-20.05 -94.2 -16.3 -93.3 L-14.5 -92.95 -12.2 -92.55 M-29.45 -84.9 L-27.75 -84.15 -20.65 -81.15 Q-23.75 -82.4 -29.45 -83.95 L-29.45 -84.9" fill="#3c1f4b" fill-rule="evenodd" stroke="none"/>
    <path d="M-12.0 -92.55 L-12.2 -92.55 -12.1 -92.6 -12.0 -92.55" fill="#ffffff" fill-rule="evenodd" stroke="none"/>
    <path d="M-27.6 -89.5 L-24.5 -89.0 -25.05 -88.8 -25.75 -88.7 Q-20.9 -87.75 -18.15 -86.1 L-18.15 -86.05 Q-12.75 -83.15 -6.9 -76.05 -7.0 -75.9 -7.15 -75.9 L-14.35 -78.45 Q-16.0 -80.7 -18.85 -83.05 L-20.85 -84.7 Q-24.75 -87.8 -27.35 -88.3 L-28.1 -88.4 -27.6 -89.5" fill="#9b5cbc" fill-rule="evenodd" stroke="none"/>
    <path d="M-16.25 -79.55 L-19.35 -81.05 Q-27.1 -85.05 -29.2 -85.3 L-29.45 -85.3 -29.45 -85.95 -28.1 -88.4 -27.35 -88.3 Q-24.75 -87.8 -20.85 -84.7 L-18.85 -83.05 Q-16.0 -80.7 -14.35 -78.45 L-14.6 -78.2 -16.25 -79.55" fill="#8d49b1" fill-rule="evenodd" stroke="none"/>
    <path d="M-29.45 -85.3 L-29.2 -85.3 Q-27.1 -85.05 -19.35 -81.05 L-16.25 -79.55 -20.65 -81.15 -27.75 -84.15 -29.45 -84.9 -29.45 -85.3" fill="#763e95" fill-rule="evenodd" stroke="none"/>
  </g>
</svg>
