<?xml version="1.0" encoding="UTF-8" standalone="no"?>
<svg xmlns:ffdec="https://www.free-decompiler.com/flash" xmlns:xlink="http://www.w3.org/1999/xlink" ffdec:objectType="shape" height="62.8px" width="116.55px" xmlns="http://www.w3.org/2000/svg">
  <g transform="matrix(1.0, 0.0, 0.0, 1.0, 35.5, 7.0)">
    <path d="M-33.15 24.85 L-29.4 24.85 -29.3 25.55 -29.3 25.65 Q-28.3 34.85 -14.7 41.6 -2.15 47.8 14.7 49.0 L29.5 49.1 29.5 49.05 30.55 48.95 Q47.3 47.8 59.75 41.6 L59.8 41.6 Q73.4 34.85 74.45 25.6 L74.5 24.85 78.25 24.85 78.2 25.95 78.2 26.0 Q77.3 37.1 60.65 45.2 43.95 53.3 18.5 52.75 -4.65 50.8 -16.3 44.95 -32.2 37.1 -33.05 26.0 L-33.0 26.1 -33.15 24.85" fill="#cccccc" fill-rule="evenodd" stroke="none"/>
    <path d="M74.5 24.85 L74.45 25.6 Q73.4 34.85 59.8 41.6 L59.75 41.6 Q47.3 47.8 30.55 48.95 L29.5 49.05 29.5 49.1 14.7 49.0 Q-2.15 47.8 -14.7 41.6 -28.3 34.85 -29.3 25.65 L-29.3 25.55 -29.4 24.85 Q24.35 41.1 74.5 24.85" fill="#f7f7f7" fill-rule="evenodd" stroke="none"/>
    <path d="M81.05 24.4 L81.05 24.85 81.0 26.05 81.0 26.1 Q80.05 38.35 63.5 46.9 50.35 53.7 33.0 55.25 22.5 56.35 12.05 55.25 L12.05 55.3 Q-5.0 53.6 -17.85 46.9 -34.5 38.35 -35.4 26.1 L-35.35 26.2 -35.5 24.85 -35.5 24.4 Q-35.75 11.05 -17.9 1.8 -1.1 -7.0 22.8 -7.0 46.7 -7.0 63.5 1.8 81.3 11.05 81.05 24.4 M78.25 24.85 L78.25 24.4 Q78.5 12.25 61.45 3.8 45.35 -4.2 22.55 -4.2 -0.3 -4.2 -16.35 3.8 -33.4 12.25 -33.15 24.4 L-33.15 24.85 -33.0 26.1 -33.05 26.0 Q-32.2 37.1 -16.3 44.95 -4.65 50.8 18.5 52.75 43.95 53.3 60.65 45.2 77.3 37.1 78.2 26.0 L78.2 25.95 78.25 24.85" fill="#000000" fill-opacity="0.49803922" fill-rule="evenodd" stroke="none"/>
    <path d="M-33.15 24.85 L-33.15 24.4 Q-33.4 12.25 -16.35 3.8 -0.3 -4.2 22.55 -4.2 45.35 -4.2 61.45 3.8 78.5 12.25 78.25 24.4 L78.25 24.85 74.5 24.85 74.5 24.4 Q74.25 14.4 59.75 7.2 44.35 -0.45 22.55 -0.45 0.75 -0.45 -14.7 7.2 -29.2 14.4 -29.4 24.4 L-29.4 24.85 -33.15 24.85" fill="#dadada" fill-rule="evenodd" stroke="none"/>
    <path d="M-29.4 24.85 L-29.4 24.4 Q-29.2 14.4 -14.7 7.2 0.75 -0.45 22.55 -0.45 44.35 -0.45 59.75 7.2 74.25 14.4 74.5 24.4 L74.5 24.85 Q24.35 41.1 -29.4 24.85" fill="#ffffff" fill-rule="evenodd" stroke="none"/>
  </g>
</svg>
