<?xml version="1.0" encoding="UTF-8" standalone="no"?>
<svg xmlns:ffdec="https://www.free-decompiler.com/flash" xmlns:xlink="http://www.w3.org/1999/xlink" ffdec:objectType="shape" height="29.4px" width="20.75px" xmlns="http://www.w3.org/2000/svg">
  <g transform="matrix(1.0, 0.0, 0.0, 1.0, 12.55, 26.75)">
    <path d="M-4.7 -12.65 Q-7.2 -17.7 -10.1 -22.55 -2.65 -24.75 -1.6 -24.75 0.75 -24.75 1.55 -23.35 2.2 -22.2 2.2 -18.95 L2.45 -14.05 -0.3 -13.05 Q-2.75 -12.3 -4.7 -12.65" fill="#db9c64" fill-rule="evenodd" stroke="none"/>
    <path d="M-2.05 2.1 L-2.9 2.25 Q-3.65 -3.35 -5.25 -8.3 -6.2 -11.3 -9.75 -15.95 -12.55 -19.6 -12.55 -23.2 L-12.3 -24.0 -11.9 -24.1 Q-5.8 -26.4 -1.55 -26.75 1.55 -26.75 3.0 -24.65 4.15 -23.0 4.15 -20.3 4.15 -9.25 8.2 0.25 L5.45 0.75 4.1 -5.2 Q2.85 -11.0 2.45 -14.05 L2.2 -18.95 Q2.2 -22.2 1.55 -23.35 0.75 -24.75 -1.6 -24.75 -2.65 -24.75 -10.1 -22.55 -7.2 -17.7 -4.7 -12.65 -3.35 -8.0 -2.6 -3.6 -2.0 0.15 -2.05 2.1" fill="#5c4730" fill-rule="evenodd" stroke="none"/>
    <path d="M5.45 0.75 Q4.0 1.8 2.45 2.3 L-2.05 2.1 Q-2.0 0.15 -2.6 -3.6 -3.35 -8.0 -4.7 -12.65 -2.75 -12.3 -0.3 -13.05 L2.45 -14.05 Q2.85 -11.0 4.1 -5.2 L5.45 0.75" fill="#f1ba87" fill-rule="evenodd" stroke="none"/>
  </g>
</svg>
