<?xml version="1.0" encoding="UTF-8" standalone="no"?>
<svg xmlns:ffdec="https://www.free-decompiler.com/flash" xmlns:xlink="http://www.w3.org/1999/xlink" ffdec:objectType="shape" height="180.05px" width="97.95px" xmlns="http://www.w3.org/2000/svg">
  <g transform="matrix(1.0, 0.0, 0.0, 1.0, 43.35, 136.05)">
    <path d="M-25.85 -17.0 L-25.4 -19.25 -24.85 -18.8 -24.85 -18.55 -25.85 -17.0 M-21.55 -38.15 L-20.4 -48.6 -19.4 -59.35 Q-18.2 -56.8 -19.2 -50.25 L-21.45 -38.45 -21.55 -38.15" fill="#654425" fill-rule="evenodd" stroke="none"/>
    <path d="M-11.35 -9.75 L-10.15 -9.85 -10.15 -9.75 -11.35 -9.75" fill="#eba463" fill-rule="evenodd" stroke="none"/>
    <path d="M-12.4 -100.9 L-14.45 -96.6 -16.7 -91.35 -18.55 -91.25 -19.9 -90.8 -20.4 -90.45 Q-21.15 -89.85 -21.2 -89.1 -21.25 -88.5 -20.8 -87.95 L-21.25 -86.3 Q-22.35 -81.75 -22.35 -79.05 -21.55 -74.6 -21.15 -73.55 L-26.6 -74.2 Q-24.9 -76.8 -24.8 -80.7 -24.7 -85.55 -21.9 -92.0 -20.1 -96.2 -12.7 -110.2 -6.8 -121.4 -6.75 -123.25 L-7.0 -123.3 Q-11.75 -114.35 -16.95 -106.5 L-24.05 -96.15 Q-27.15 -91.5 -28.35 -87.85 -29.75 -83.5 -29.75 -77.25 L-29.55 -75.3 -31.1 -76.75 -32.55 -78.5 -32.75 -81.0 Q-32.4 -85.3 -23.55 -100.1 -14.7 -114.9 -14.2 -117.25 -9.45 -122.25 -5.15 -127.2 L-7.45 -118.15 Q-8.8 -116.0 -8.5 -114.75 L-11.95 -105.75 Q-13.55 -103.5 -13.4 -102.6 L-18.65 -93.45 -15.9 -96.75 -15.95 -96.65 -12.75 -101.5 -12.3 -101.15 -12.4 -100.9 M-18.45 -86.65 Q-19.45 -80.1 -18.95 -77.55 -18.15 -75.8 -17.9 -74.85 -18.65 -74.85 -19.2 -73.85 -19.75 -72.9 -19.75 -71.5 -21.7 -75.45 -21.7 -81.2 L-21.15 -85.15 -20.7 -87.8 -20.55 -87.7 Q-19.9 -87.05 -18.45 -86.65 M-15.0 -71.25 Q-12.85 -69.9 -8.5 -68.7 -4.6 -67.65 -2.9 -67.65 3.2 -67.65 6.05 -69.25 8.95 -70.95 8.75 -74.5 L13.05 -71.15 Q14.65 -70.05 15.4 -70.05 19.1 -70.05 21.1 -71.85 23.0 -73.55 23.0 -76.3 L16.5 -103.05 Q9.15 -129.65 4.7 -129.65 0.35 -129.65 -2.3 -125.95 -5.0 -120.95 -6.85 -118.4 L-7.15 -118.3 Q-2.35 -135.0 0.9 -135.0 8.9 -135.0 16.1 -116.25 22.1 -100.7 23.1 -87.65 L22.6 -87.65 22.5 -86.95 Q22.5 -86.7 23.65 -83.15 24.75 -79.6 24.75 -78.4 L23.7 -71.0 Q23.15 -68.75 20.75 -66.7 18.7 -64.95 17.6 -64.95 14.15 -64.95 11.9 -67.55 L9.6 -70.25 10.15 -68.55 Q10.25 -67.7 8.85 -66.35 7.7 -65.2 3.7 -64.2 -0.45 -63.2 -4.55 -63.2 -11.5 -63.2 -15.9 -66.7 -17.9 -68.3 -19.2 -70.5 -18.35 -69.85 -17.4 -69.85 -16.9 -69.85 -15.0 -71.25 M47.4 12.6 L47.9 12.6 Q51.0 21.4 52.7 24.95 52.9 25.35 52.9 27.5 52.9 28.0 51.7 28.7 50.2 29.55 49.45 30.95 L48.45 28.25 Q46.0 31.05 44.8 31.95 42.9 33.3 40.45 33.35 L37.45 32.6 35.05 31.85 Q34.45 31.85 31.65 34.55 26.8 37.55 26.05 37.75 24.6 38.2 21.15 37.25 14.25 34.4 12.95 34.95 11.95 36.55 9.55 37.3 L7.15 38.65 5.55 39.4 Q5.3 39.4 3.1 38.25 L0.4 36.8 Q-0.6 36.05 -2.25 35.2 L-3.9 34.45 -9.1 35.55 Q-11.25 36.85 -14.25 35.65 -16.9 34.65 -17.9 33.0 -19.4 30.2 -21.85 29.3 -24.05 28.5 -29.15 28.55 L-35.55 28.25 -36.3 30.85 Q-41.9 27.1 -41.9 25.2 -40.65 22.35 -37.6 12.95 L-35.55 12.7 -33.3 12.55 -36.8 21.55 -37.95 24.5 -37.8 25.25 -37.25 25.3 Q-36.6 24.55 -34.35 19.9 -32.05 15.15 -31.1 12.5 L-30.45 12.55 Q-31.7 15.1 -33.15 19.65 -34.4 23.7 -35.05 26.7 L-29.25 27.0 -26.75 27.0 Q-24.8 26.95 -20.45 29.4 -16.5 31.65 -14.8 33.35 L-12.7 34.4 -10.7 34.15 -8.5 33.4 -5.95 32.8 Q-3.35 32.7 -1.0 33.55 L1.2 34.55 4.15 37.0 5.8 37.2 6.65 37.05 7.4 36.45 9.6 34.85 14.3 33.2 16.9 34.4 Q19.85 35.6 23.85 36.05 L26.9 35.8 29.7 34.15 31.65 32.45 Q32.3 31.6 33.45 30.85 34.45 30.2 34.8 30.2 L38.15 30.5 41.8 31.7 Q42.7 31.6 43.95 30.75 L46.6 27.75 47.6 26.1 Q45.85 21.35 42.2 14.5 L43.25 13.85 Q47.45 23.5 48.6 23.9 L48.7 23.4 48.05 20.3 Q47.2 17.45 45.1 13.0 L47.4 12.6 M-8.25 -114.35 L-8.05 -114.1 -10.65 -105.9 -8.25 -114.35 M-15.4 6.6 Q-12.9 0.25 -11.35 -9.75 L-10.15 -9.75 Q-10.95 2.7 -10.85 10.55 -12.4 9.8 -15.55 7.1 L-15.4 6.6" fill="#b4b09e" fill-rule="evenodd" stroke="none"/>
    <path d="M23.1 -87.65 Q22.1 -100.7 16.1 -116.25 8.9 -135.0 0.9 -135.0 -2.35 -135.0 -7.15 -118.3 L-7.45 -118.15 -5.15 -127.2 Q-4.8 -128.5 -3.2 -131.4 L-1.05 -134.75 -0.7 -135.15 Q-4.2 -134.6 -9.3 -126.2 L-14.2 -117.25 Q-14.7 -114.9 -23.55 -100.1 -32.4 -85.3 -32.75 -81.0 L-32.55 -78.5 Q-31.65 -71.7 -27.8 -67.5 -24.3 -63.7 -20.2 -63.7 -16.55 -63.7 -15.05 -65.1 -15.65 -66.0 -18.1 -68.5 -20.4 -71.1 -21.15 -73.55 -21.55 -74.6 -22.35 -79.05 -22.35 -81.75 -21.25 -86.3 L-20.8 -87.95 -20.35 -89.6 -20.7 -87.8 -21.15 -85.15 -21.7 -81.2 Q-21.7 -75.45 -19.75 -71.5 L-19.2 -70.5 Q-17.9 -68.3 -15.9 -66.7 -11.5 -63.2 -4.55 -63.2 -0.45 -63.2 3.7 -64.2 7.7 -65.2 8.85 -66.35 10.25 -67.7 10.15 -68.55 L9.6 -70.25 11.9 -67.55 Q14.15 -64.95 17.6 -64.95 18.7 -64.95 20.75 -66.7 23.15 -68.75 23.7 -71.0 L24.3 -71.0 24.35 -70.2 Q24.35 -68.8 23.05 -67.45 L23.4 -67.25 24.5 -67.05 Q29.7 -67.05 29.7 -70.5 29.7 -72.95 26.5 -80.35 L23.1 -87.65 M-21.7 -63.0 Q-27.9 -65.25 -30.8 -69.55 -33.55 -73.7 -33.55 -80.15 -33.55 -84.8 -29.3 -92.05 L-20.15 -107.45 Q-14.0 -118.8 -8.55 -130.3 -6.7 -133.55 -5.0 -134.8 -3.2 -136.05 -0.35 -136.05 6.55 -136.05 12.05 -128.4 18.85 -118.85 22.45 -98.6 23.7 -91.6 25.1 -88.1 27.35 -82.35 28.2 -79.4 L29.85 -74.45 Q30.5 -72.45 30.5 -70.85 30.5 -68.65 29.85 -67.75 29.1 -66.65 26.65 -66.2 L24.4 -65.65 22.35 -65.05 21.15 -64.6 15.9 -64.45 Q12.05 -66.3 10.05 -66.2 L4.25 -63.75 1.2 -63.05 -1.7 -62.5 Q-6.1 -62.3 -9.1 -62.65 L-10.3 -62.95 -12.6 -63.85 Q-14.1 -64.65 -15.2 -64.2 -17.55 -63.2 -18.55 -63.05 L-20.2 -62.85 -21.7 -63.0 M49.75 12.95 L53.95 23.75 54.6 26.4 Q54.6 29.0 50.5 33.4 46.75 37.4 45.8 37.4 40.35 35.85 38.45 35.85 36.75 35.85 35.8 36.85 L34.4 39.05 Q32.3 42.25 26.3 42.25 L21.6 41.3 16.4 40.35 Q15.65 40.35 12.1 42.2 8.5 44.0 6.25 44.0 4.05 44.0 -1.45 42.2 L-6.65 40.35 -9.9 40.75 -13.2 41.1 Q-15.8 41.1 -21.55 37.05 -27.25 32.95 -32.75 32.95 -36.1 32.95 -39.5 30.85 -43.25 28.55 -43.25 25.7 -43.25 24.2 -39.6 13.45 L-37.6 12.95 Q-40.65 22.35 -41.9 25.2 -41.9 27.1 -36.3 30.85 L-31.0 31.25 Q-28.05 31.1 -23.65 33.45 -21.4 34.7 -19.3 36.2 -15.85 37.8 -14.45 38.95 L-9.65 38.8 -7.75 38.6 -3.7 39.15 Q-0.95 39.7 0.2 40.3 1.85 41.2 6.7 42.1 L8.0 41.55 Q9.35 40.95 10.2 40.35 11.45 39.8 16.4 38.55 20.8 38.55 22.15 39.6 L25.8 40.35 Q28.65 40.35 30.0 39.5 L33.25 37.35 Q34.7 35.2 36.95 34.4 39.1 33.6 41.0 34.4 43.3 35.55 44.8 35.55 46.65 35.55 47.6 34.5 48.35 33.7 49.45 30.95 50.2 29.55 51.7 28.7 52.9 28.0 52.9 27.5 52.9 25.35 52.7 24.95 51.0 21.4 47.9 12.6 L49.75 12.95 M-8.5 -114.75 L-8.25 -114.35 -10.65 -105.9 -11.95 -105.75 -8.5 -114.75 M-13.4 -102.6 L-12.95 -101.75 -15.9 -96.75 -18.65 -93.45 -13.4 -102.6" fill="#484640" fill-rule="evenodd" stroke="none"/>
    <path d="M-17.1 -86.7 Q-16.9 -81.05 -13.8 -76.9 -10.45 -72.4 -5.4 -72.4 6.45 -72.4 12.1 -76.25 16.5 -79.25 16.5 -83.85 16.5 -92.6 15.4 -93.9 14.8 -94.7 12.95 -95.35 L8.25 -97.1 12.35 -100.95 14.15 -103.05 Q14.15 -104.25 13.35 -105.95 L12.25 -108.5 8.5 -105.3 7.95 -107.4 7.35 -110.3 7.75 -113.75 8.1 -117.25 8.1 -119.2 Q8.0 -120.45 7.35 -120.45 5.75 -120.45 5.55 -123.8 5.4 -127.15 3.85 -127.15 2.5 -127.15 0.0 -125.3 -3.65 -122.5 -4.45 -117.7 -5.55 -118.3 -6.85 -118.4 -5.0 -120.95 -2.3 -125.95 0.35 -129.65 4.7 -129.65 9.15 -129.65 16.5 -103.05 L23.0 -76.3 Q23.0 -73.55 21.1 -71.85 19.1 -70.05 15.4 -70.05 14.65 -70.05 13.05 -71.15 L8.75 -74.5 Q8.95 -70.95 6.05 -69.25 3.2 -67.65 -2.9 -67.65 -4.6 -67.65 -8.5 -68.7 -12.85 -69.9 -15.0 -71.25 -15.0 -72.75 -15.85 -73.8 -16.7 -74.85 -17.9 -74.85 -18.15 -75.8 -18.95 -77.55 -19.45 -80.1 -18.45 -86.65 L-17.1 -86.7 M-6.35 -113.4 L-8.1 -109.3 -9.8 -105.65 -10.65 -105.9 -8.05 -114.1 Q-7.2 -113.55 -6.35 -113.4 M-12.25 -101.15 L-12.4 -100.9 -12.3 -101.15 -12.25 -101.15 M-14.45 -96.6 Q-14.55 -95.9 -15.4 -93.7 L-16.4 -91.2 -16.7 -91.35 -14.45 -96.6 M38.2 18.25 L42.2 14.5 Q45.85 21.35 47.6 26.1 L46.6 27.75 43.95 30.75 Q43.6 29.0 42.75 27.15 L38.2 18.25 M43.25 13.85 L45.1 13.0 Q47.2 17.45 48.05 20.3 L48.7 23.4 48.6 23.9 Q47.45 23.5 43.25 13.85 M-29.55 -75.3 L-29.75 -77.25 Q-29.75 -83.5 -28.35 -87.85 -27.15 -91.5 -24.05 -96.15 L-16.95 -106.5 Q-11.75 -114.35 -7.0 -123.3 L-6.75 -123.25 Q-6.8 -121.4 -12.7 -110.2 -20.1 -96.2 -21.9 -92.0 -24.7 -85.55 -24.8 -80.7 -24.9 -76.8 -26.6 -74.2 L-29.55 -75.3 M-12.95 -101.75 L-12.75 -101.5 -15.95 -96.65 -15.9 -96.75 -12.95 -101.75 M-29.35 12.6 L-23.7 13.75 -29.25 27.0 -35.05 26.7 Q-34.4 23.7 -33.15 19.65 -31.7 15.1 -30.45 12.55 L-29.35 12.6 M-16.95 10.5 L-15.75 7.6 -15.55 7.1 Q-12.4 9.8 -10.85 10.55 -10.5 12.8 -9.6 14.85 -8.35 17.7 -6.55 18.7 L-8.5 33.4 -10.7 34.15 -12.7 34.4 -10.4 22.85 -10.5 21.1 Q-10.5 14.05 -16.95 10.5 M-33.3 12.55 L-31.1 12.5 Q-32.05 15.15 -34.35 19.9 -36.6 24.55 -37.25 25.3 L-37.8 25.25 -37.95 24.5 -36.8 21.55 -33.3 12.55 M-36.3 30.85 L-35.55 28.25 -29.15 28.55 -31.0 31.25 -36.3 30.85 M29.7 34.15 L26.9 35.8 Q25.0 30.85 24.25 28.35 L20.45 16.6 25.15 19.2 29.7 34.15 M7.4 36.45 L6.65 37.05 5.8 37.2 4.15 37.0 2.95 19.05 5.5 17.8 Q5.25 19.8 6.55 26.95 7.8 33.9 7.4 36.45" fill="#d0ccb9" fill-rule="evenodd" stroke="none"/>
    <path d="M-4.45 -117.7 Q-3.65 -122.5 0.0 -125.3 2.5 -127.15 3.85 -127.15 5.4 -127.15 5.55 -123.8 5.75 -120.45 7.35 -120.45 8.0 -120.45 8.1 -119.2 L8.1 -117.25 7.75 -113.75 7.35 -110.3 7.95 -107.4 8.5 -105.3 12.25 -108.5 13.35 -105.95 Q14.15 -104.25 14.15 -103.05 L12.35 -100.95 8.25 -97.1 12.95 -95.35 Q14.8 -94.7 15.4 -93.9 16.5 -92.6 16.5 -83.85 16.5 -79.25 12.1 -76.25 6.45 -72.4 -5.4 -72.4 -10.45 -72.4 -13.8 -76.9 -16.9 -81.05 -17.1 -86.7 -15.35 -88.7 -15.35 -89.1 -15.35 -89.7 -16.4 -91.2 L-15.4 -93.7 Q-14.55 -95.9 -14.45 -96.6 L-12.4 -100.9 -12.25 -101.15 -10.6 -101.1 Q-9.65 -101.2 -9.35 -101.4 L-11.5 -92.7 Q-12.45 -88.7 -12.45 -84.7 -12.45 -83.1 -9.7 -82.65 L-2.1 -82.4 5.2 -82.7 Q7.5 -83.2 7.5 -85.05 L5.95 -92.1 Q4.25 -91.3 1.0 -90.05 -2.5 -88.7 -3.7 -88.5 L-3.9 -89.3 1.0 -95.4 3.1 -98.4 -1.15 -96.55 Q-1.9 -96.15 -2.55 -96.15 -3.65 -96.15 -4.5 -96.9 L0.55 -104.05 Q2.6 -106.85 2.6 -108.2 L1.8 -113.05 Q1.0 -118.3 1.0 -120.8 L1.05 -121.45 -3.55 -113.15 -8.45 -103.85 -8.8 -104.45 -9.8 -105.65 -8.1 -109.3 -6.35 -113.4 -4.4 -113.5 Q-3.4 -113.85 -2.95 -114.65 -2.55 -115.5 -2.95 -116.3 -3.35 -117.15 -4.45 -117.7 M1.4 -122.05 L2.7 -123.15 Q3.45 -124.05 3.65 -125.4 L1.4 -122.05 M6.5 -79.5 L6.3 -79.55 -0.65 -79.3 -10.5 -78.4 -10.0 -78.1 Q-9.4 -77.75 -7.2 -77.3 L-4.6 -76.9 -0.1 -77.15 Q4.6 -77.8 6.5 -79.5 M11.75 -87.15 Q11.15 -87.15 10.7 -86.7 10.25 -86.25 10.25 -85.65 10.25 -85.05 10.7 -84.6 11.15 -84.15 11.75 -84.15 12.35 -84.15 12.8 -84.6 13.25 -85.05 13.25 -85.65 13.25 -86.25 12.8 -86.7 12.35 -87.15 11.75 -87.15 M36.3 19.85 L38.2 18.25 42.75 27.15 Q43.6 29.0 43.95 30.75 42.7 31.6 41.8 31.7 L39.9 26.75 36.3 19.85 M-23.7 13.75 Q-22.15 14.5 -21.55 14.35 L-23.85 19.45 -26.75 27.0 -29.25 27.0 -23.7 13.75 M-18.25 12.45 L-16.95 10.5 Q-10.5 14.05 -10.5 21.1 L-10.4 22.85 -12.7 34.4 -14.8 33.35 Q-12.9 23.05 -12.9 20.55 -12.9 17.7 -13.85 16.3 -14.75 15.0 -18.25 12.45 M-6.55 18.7 L-4.4 19.4 -5.1 26.2 -5.95 32.8 -8.5 33.4 -6.55 18.7 M0.65 19.4 L1.25 19.35 2.95 19.05 4.15 37.0 1.2 34.55 0.65 19.4 M-17.9 33.0 Q-16.9 34.65 -14.25 35.65 -11.25 36.85 -9.1 35.55 L-9.65 38.8 -14.45 38.95 Q-15.85 37.8 -19.3 36.2 L-17.9 33.0 M0.4 36.8 L3.1 38.25 Q5.3 39.4 5.55 39.4 L7.15 38.65 9.55 37.3 10.2 40.35 Q9.35 40.95 8.0 41.55 L6.7 42.1 Q1.85 41.2 0.2 40.3 L0.4 36.8 M21.15 37.25 Q24.6 38.2 26.05 37.75 26.8 37.55 31.65 34.55 L33.25 37.35 30.0 39.5 Q28.65 40.35 25.8 40.35 L22.15 39.6 21.15 37.25 M40.45 33.35 Q42.9 33.3 44.8 31.95 46.0 31.05 48.45 28.25 L49.45 30.95 Q48.35 33.7 47.6 34.5 46.65 35.55 44.8 35.55 43.3 35.55 41.0 34.4 L40.45 33.35 M31.65 32.45 L29.7 34.15 25.15 19.2 26.65 19.95 27.5 20.3 31.65 32.45 M26.9 35.8 L23.85 36.05 20.15 24.05 Q17.65 16.45 16.95 15.05 L20.45 16.6 24.25 28.35 Q25.0 30.85 26.9 35.8 M9.6 34.85 L7.4 36.45 Q7.8 33.9 6.55 26.95 5.25 19.8 5.5 17.8 L6.9 16.9 8.2 16.15 8.0 18.4 Q8.0 20.15 9.6 34.85" fill="#e1ddc8" fill-rule="evenodd" stroke="none"/>
    <path d="M-8.45 -103.85 L-3.55 -113.15 1.05 -121.45 1.0 -120.8 Q1.0 -118.3 1.8 -113.05 L2.6 -108.2 Q2.6 -106.85 0.55 -104.05 L-4.5 -96.9 Q-3.65 -96.15 -2.55 -96.15 -1.9 -96.15 -1.15 -96.55 L3.1 -98.4 1.0 -95.4 -3.9 -89.3 -3.7 -88.5 Q-2.5 -88.7 1.0 -90.05 4.25 -91.3 5.95 -92.1 L7.5 -85.05 Q7.5 -83.2 5.2 -82.7 L-2.1 -82.4 -9.7 -82.65 Q-12.45 -83.1 -12.45 -84.7 -12.45 -88.7 -11.5 -92.7 L-9.35 -101.4 Q-8.55 -102.35 -8.45 -103.85 M1.4 -122.05 L3.65 -125.4 Q3.45 -124.05 2.7 -123.15 L1.4 -122.05 M11.75 -87.15 Q12.35 -87.15 12.8 -86.7 13.25 -86.25 13.25 -85.65 13.25 -85.05 12.8 -84.6 12.35 -84.15 11.75 -84.15 11.15 -84.15 10.7 -84.6 10.25 -85.05 10.25 -85.65 10.25 -86.25 10.7 -86.7 11.15 -87.15 11.75 -87.15 M6.5 -79.5 Q4.6 -77.8 -0.1 -77.15 L-4.6 -76.9 -7.2 -77.3 Q-9.4 -77.75 -10.0 -78.1 L-10.5 -78.4 -0.65 -79.3 6.3 -79.55 6.5 -79.5 M34.2 21.05 L36.3 19.85 39.9 26.75 41.8 31.7 38.15 30.5 34.8 30.2 Q34.45 30.2 33.45 30.85 32.3 31.6 31.65 32.45 L27.5 20.3 Q32.45 21.35 34.2 21.05 M-21.55 14.35 L-18.25 12.45 Q-14.75 15.0 -13.85 16.3 -12.9 17.7 -12.9 20.55 -12.9 23.05 -14.8 33.35 -16.5 31.65 -20.45 29.4 -24.8 26.95 -26.75 27.0 L-23.85 19.45 -21.55 14.35 M-4.4 19.4 Q-1.95 19.7 0.65 19.4 L1.2 34.55 -1.0 33.55 Q-3.35 32.7 -5.95 32.8 L-5.1 26.2 -4.4 19.4 M-29.15 28.55 Q-24.05 28.5 -21.85 29.3 -19.4 30.2 -17.9 33.0 L-19.3 36.2 Q-21.4 34.7 -23.65 33.45 -28.05 31.1 -31.0 31.25 L-29.15 28.55 M-9.1 35.55 L-3.9 34.45 -2.25 35.2 Q-0.6 36.05 0.4 36.8 L0.2 40.3 Q-0.95 39.7 -3.7 39.15 L-7.75 38.6 -9.65 38.8 -9.1 35.55 M9.55 37.3 Q11.95 36.55 12.95 34.95 14.25 34.4 21.15 37.25 L22.15 39.6 Q20.8 38.55 16.4 38.55 11.45 39.8 10.2 40.35 L9.55 37.3 M31.65 34.55 Q34.45 31.85 35.05 31.85 L37.45 32.6 40.45 33.35 41.0 34.4 Q39.1 33.6 36.95 34.4 34.7 35.2 33.25 37.35 L31.65 34.55 M23.85 36.05 Q19.85 35.6 16.9 34.4 L14.3 33.2 9.6 34.85 Q8.0 20.15 8.0 18.4 L8.2 16.15 Q10.15 15.55 12.55 15.2 L16.95 15.05 Q17.65 16.45 20.15 24.05 L23.85 36.05" fill="#eeebda" fill-rule="evenodd" stroke="none"/>
    <path d="M27.5 -45.2 Q27.75 -43.25 28.15 -41.6 29.2 -36.35 30.85 -29.85 L27.6 -28.5 26.2 -28.7 23.65 -41.45 23.3 -43.65 22.75 -47.8 Q21.95 -54.35 21.15 -64.6 L22.35 -65.05 Q26.2 -53.15 26.85 -49.0 L27.5 -45.2 M-18.55 -63.05 Q-17.55 -63.2 -15.2 -64.2 -14.1 -64.65 -12.6 -63.85 L-12.15 -61.2 Q-12.8 -59.95 -12.4 -57.25 L-12.65 -56.9 -12.75 -56.1 Q-12.0 -47.95 -12.0 -46.95 -12.0 -44.1 -13.0 -38.55 L-14.0 -32.0 Q-14.0 -31.25 -13.55 -31.0 L-12.6 -30.65 -12.85 -29.3 -14.3 -29.4 -16.4 -28.95 -18.4 -28.2 -19.05 -28.35 -19.2 -28.55 -18.0 -34.3 -18.0 -34.35 -17.4 -37.8 -17.85 -35.35 Q-17.5 -38.3 -17.25 -42.75 L-17.0 -47.55 Q-17.0 -50.25 -17.75 -57.75 L-17.9 -59.15 -17.9 -59.2 -18.55 -63.05 M-1.7 -62.5 L1.2 -63.05 4.25 -63.75 4.45 -56.9 -1.55 -56.9 -1.7 -62.5 M10.05 -66.2 Q12.05 -66.3 15.9 -64.45 L15.65 -57.9 9.7 -56.9 10.05 -66.2 M-0.8 -29.15 L5.2 -29.2 5.3 -26.2 5.05 -26.05 -0.7 -26.15 -0.8 -29.15 M28.4 -18.95 L28.05 -17.5 Q27.4 -16.2 25.4 -15.3 L25.4 -18.3 28.4 -18.95 M17.65 -30.05 L18.2 -26.8 12.25 -26.3 11.6 -29.9 17.65 -30.05 M-1.05 -12.25 L4.95 -11.55 4.7 -7.05 -1.35 -6.9 -1.05 -12.25 M10.1 -16.5 Q10.1 -15.7 9.65 -15.05 8.7 -13.75 6.05 -13.6 L6.2 -16.4 10.1 -16.5 M15.8 -8.15 L15.0 -11.8 20.9 -12.9 21.9 -8.3 15.8 -8.15 M30.85 -16.05 L33.2 -17.5 39.3 -8.65 Q42.4 -4.2 42.7 -3.15 L48.75 7.55 Q49.9 9.6 50.3 11.25 L48.95 10.95 Q48.95 9.95 47.8 9.25 46.65 8.55 45.05 8.55 L30.85 -16.05 M-13.3 -52.4 L-13.6 -54.85 Q-13.85 -56.0 -15.75 -46.3 L-16.35 -42.95 Q-17.6 -35.65 -17.5 -33.55 L-17.4 -33.75 -15.35 -39.15 Q-13.3 -45.8 -13.3 -52.4 M-21.45 -18.55 L-21.35 -16.7 -22.6 -18.35 Q-23.85 -21.15 -23.9 -26.95 L-22.2 -20.05 -21.45 -18.55 M-22.3 -15.1 Q-21.95 -15.15 -18.5 -13.15 L-18.5 -12.95 -18.1 -12.95 -16.95 -12.3 -18.7 -8.05 Q-22.25 -6.85 -23.95 -3.95 -24.85 -2.45 -26.0 1.55 -27.05 5.1 -28.35 6.6 -30.3 8.95 -34.4 9.35 -33.25 7.65 -27.9 -3.3 -22.6 -14.05 -22.3 -15.1" fill="#242424" fill-rule="evenodd" stroke="none"/>
    <path d="M9.65 -54.6 L9.7 -56.9 15.65 -57.9 15.65 -54.9 9.65 -54.6 M4.45 -56.9 L4.5 -54.5 Q1.1 -54.1 0.6 -46.0 L0.7 -34.3 Q0.7 -32.1 2.1 -31.7 L5.15 -31.55 5.2 -29.2 -0.8 -29.15 -1.55 -56.9 4.45 -56.9 M28.4 -26.4 L28.4 -18.95 25.4 -18.3 25.35 -25.5 28.4 -26.4 M17.3 -32.35 L17.65 -30.05 11.6 -29.9 11.05 -33.65 Q11.8 -36.15 12.0 -40.65 13.55 -37.7 15.4 -34.9 L17.3 -32.35 M10.0 -23.25 L10.1 -16.5 6.2 -16.4 6.55 -23.7 10.0 -23.25 M4.7 -7.05 L4.65 -2.55 Q2.45 2.9 2.15 7.8 L2.75 14.15 6.05 12.4 6.45 14.85 2.9 17.0 Q1.65 17.7 0.95 17.85 0.15 14.2 -0.6 7.75 -1.5 -0.55 -1.35 -6.9 L4.7 -7.05 M45.05 8.55 Q46.65 8.55 47.8 9.25 48.95 9.95 48.95 10.95 L46.45 11.0 45.05 8.55 M21.9 -8.3 L23.15 -3.75 Q22.0 1.6 26.65 9.75 29.7 15.0 32.05 17.35 L33.2 19.35 30.3 18.7 25.1 17.05 Q20.95 8.6 18.2 0.35 16.2 -5.6 15.8 -8.15 L21.9 -8.3 M-12.4 -57.25 L-12.1 -56.2 Q-11.85 -55.75 -11.45 -55.75 L-11.1 -50.25 -11.6 -48.5 -11.9 -46.55 Q-11.9 -45.5 -11.05 -44.75 L-11.35 -39.3 Q-12.2 -38.35 -12.45 -37.6 L-12.7 -35.5 Q-12.7 -34.5 -12.05 -33.7 L-12.6 -30.65 -13.55 -31.0 Q-14.0 -31.25 -14.0 -32.0 L-13.0 -38.55 Q-12.0 -44.1 -12.0 -46.95 -12.0 -47.95 -12.75 -56.1 L-12.65 -56.9 -12.4 -57.25 M-17.85 -35.35 L-17.4 -37.8 -18.0 -34.35 -17.85 -35.35 M-13.3 -52.4 Q-13.3 -45.8 -15.35 -39.15 L-17.4 -33.75 -17.5 -33.55 Q-17.6 -35.65 -16.35 -42.95 L-15.75 -46.3 Q-13.85 -56.0 -13.6 -54.85 L-13.3 -52.4 M-21.75 -26.75 Q-21.55 -24.65 -21.45 -18.55 L-22.2 -20.05 -23.9 -26.95 -23.9 -28.0 Q-23.0 -27.25 -21.75 -26.75 M-18.7 -8.05 Q-27.5 9.75 -28.4 11.05 L-35.4 11.05 -34.4 9.35 Q-30.3 8.95 -28.35 6.6 -27.05 5.1 -26.0 1.55 -24.85 -2.45 -23.95 -3.95 -22.25 -6.85 -18.7 -8.05" fill="#353535" fill-rule="evenodd" stroke="none"/>
    <path d="M26.65 -66.2 L26.55 -60.4 Q26.55 -51.3 27.5 -45.2 L26.85 -49.0 Q26.2 -53.15 22.35 -65.05 L24.4 -65.65 26.65 -66.2 M28.15 -41.6 L28.55 -40.1 Q30.7 -35.35 30.9 -33.95 L30.45 -34.1 31.2 -31.5 Q31.4 -30.55 31.2 -29.85 L30.85 -29.85 Q29.2 -36.35 28.15 -41.6 M33.85 -19.65 Q48.3 1.05 50.8 7.4 51.4 8.95 51.5 10.5 51.55 11.75 52.35 13.1 L51.85 14.15 49.75 12.95 47.9 12.6 47.4 12.6 46.45 11.0 48.95 10.95 50.3 11.25 Q49.9 9.6 48.75 7.55 L42.7 -3.15 Q42.4 -4.2 39.3 -8.65 L33.2 -17.5 30.85 -16.05 30.05 -17.45 Q30.75 -17.6 32.25 -18.55 L33.85 -19.65 M-21.65 -37.75 L-21.55 -38.15 -21.45 -38.45 -21.65 -37.75 M26.2 -28.7 L27.6 -28.5 28.5 -27.75 29.25 -27.1 29.4 -18.3 29.4 -17.2 Q29.4 -16.2 28.85 -15.45 L28.55 -15.2 25.55 -14.15 24.5 -14.15 24.4 -15.8 24.4 -16.9 Q24.35 -25.25 24.0 -25.6 L23.05 -26.45 22.65 -26.7 22.45 -27.4 Q22.65 -27.65 26.2 -28.7 M28.4 -26.4 L26.9 -27.85 25.45 -27.55 23.9 -27.0 24.55 -26.45 25.35 -25.5 25.4 -18.3 25.4 -15.3 Q27.4 -16.2 28.05 -17.5 L28.4 -18.95 28.4 -26.4 M5.3 -26.2 L10.1 -26.2 10.5 -25.2 10.95 -23.95 11.1 -15.2 11.1 -14.1 Q11.1 -13.05 10.65 -12.3 10.2 -11.6 9.65 -11.55 L9.6 -11.55 Q8.35 -11.25 7.2 -11.55 6.15 -12.05 5.05 -12.9 L4.95 -11.55 -1.05 -12.25 -0.95 -13.0 -0.45 -14.0 5.05 -13.95 5.1 -15.0 5.55 -23.8 5.1 -25.1 5.05 -26.05 5.3 -26.2 M10.0 -23.25 L10.0 -25.4 6.1 -25.25 6.55 -23.7 6.2 -16.4 6.05 -13.6 Q8.7 -13.75 9.65 -15.05 10.1 -15.7 10.1 -16.5 L10.0 -23.25 M14.5 -14.35 L20.45 -15.05 20.9 -12.9 15.0 -11.8 14.5 -14.35 M0.95 17.85 Q1.65 17.7 2.9 17.0 L6.45 14.85 6.9 16.9 5.5 17.8 2.95 19.05 1.25 19.35 0.95 17.85 M33.2 19.35 L34.2 21.05 Q32.45 21.35 27.5 20.3 L26.65 19.95 25.1 17.05 30.3 18.7 33.2 19.35 M-19.2 -28.55 L-19.05 -28.35 Q-19.05 -28.0 -19.2 -27.7 -19.35 -27.45 -19.6 -27.45 L-20.35 -26.8 Q-20.8 -26.4 -20.4 -17.95 L-20.1 -16.95 -19.45 -16.55 -18.55 -14.35 -18.5 -14.25 -18.5 -13.15 Q-21.95 -15.15 -22.3 -15.1 L-22.0 -15.85 -24.55 -16.95 Q-24.9 -17.2 -24.85 -18.55 L-24.85 -18.8 -24.85 -20.1 -24.65 -29.0 -23.75 -29.45 -22.85 -29.9 -22.75 -29.95 -20.9 -29.35 -19.2 -28.55 M-21.75 -26.75 L-20.45 -28.05 -21.1 -28.5 -21.7 -28.85 -22.5 -28.95 Q-23.5 -28.95 -23.9 -28.0 L-23.9 -26.95 Q-23.85 -21.15 -22.6 -18.35 L-21.35 -16.7 -21.45 -18.55 Q-21.55 -24.65 -21.75 -26.75 M-18.1 -12.95 L-17.05 -12.95 -16.8 -12.75 -16.95 -12.3 -18.1 -12.95 M-35.4 11.05 L-28.4 11.05 -29.35 12.6 -30.45 12.55 -31.1 12.5 -33.3 12.55 -35.55 12.7 -35.4 11.05 M-15.75 7.6 L-15.4 6.6 -15.55 7.1 -15.75 7.6" fill="#0d0d0d" fill-rule="evenodd" stroke="none"/>
    <path d="M9.65 -54.6 L15.65 -54.9 17.3 -32.35 15.4 -34.9 Q13.55 -37.7 12.0 -40.65 11.8 -36.15 11.05 -33.65 L9.65 -54.6 M5.15 -31.55 L2.1 -31.7 Q0.7 -32.1 0.7 -34.3 L0.6 -46.0 Q1.1 -54.1 4.5 -54.5 L5.15 -31.55 M25.35 -25.5 L24.55 -26.45 23.9 -27.0 25.45 -27.55 26.9 -27.85 28.4 -26.4 25.35 -25.5 M6.55 -23.7 L6.1 -25.25 10.0 -25.4 10.0 -23.25 6.55 -23.7 M6.05 12.4 L2.75 14.15 2.15 7.8 Q2.45 2.9 4.65 -2.55 L4.65 -2.5 6.05 12.4 M32.05 17.35 Q29.7 15.0 26.65 9.75 22.0 1.6 23.15 -3.75 L32.05 17.35 M-23.9 -28.0 Q-23.5 -28.95 -22.5 -28.95 L-21.7 -28.85 -21.1 -28.5 -20.45 -28.05 -21.75 -26.75 Q-23.0 -27.25 -23.9 -28.0" fill="#454545" fill-rule="evenodd" stroke="none"/>
    <path d="M-39.6 13.45 Q-40.45 14.0 -41.45 13.95 -42.5 13.85 -43.35 13.1 L-35.3 -3.6 Q-33.8 -6.35 -25.85 -17.0 L-24.85 -18.55 Q-24.9 -17.2 -24.55 -16.95 L-22.0 -15.85 -22.3 -15.1 -24.4 -16.45 -31.35 -6.45 Q-38.0 3.4 -41.8 12.7 L-39.75 11.95 -37.55 11.25 -35.4 11.05 -35.55 12.7 -37.6 12.95 -39.6 13.45 M-22.75 -34.05 L-21.65 -37.75 -21.45 -38.45 -19.2 -50.25 Q-18.2 -56.8 -19.4 -59.35 L-21.7 -63.0 -20.2 -62.85 -18.8 -60.8 -17.9 -59.2 -17.9 -59.15 -17.75 -57.75 Q-18.85 -43.4 -19.5 -41.1 -20.8 -38.05 -22.75 -29.95 L-22.85 -29.9 -23.25 -30.05 -23.4 -30.85 -23.05 -32.55 -22.75 -34.05 M-10.3 -62.95 L-9.1 -62.65 -8.9 -61.9 -9.9 -61.8 -10.3 -62.95 M24.4 -15.8 L24.5 -14.15 25.55 -14.15 20.9 -12.9 20.45 -15.05 24.4 -15.8 M28.55 -15.2 L28.85 -15.45 Q29.4 -16.2 29.4 -17.2 L30.05 -17.45 30.85 -16.05 28.55 -15.2 M-0.95 -13.0 L-1.05 -12.25 -1.8 -12.2 -0.95 -13.0 M4.95 -11.55 L5.05 -12.9 Q6.15 -12.05 7.2 -11.55 L4.95 -11.55 M9.65 -11.55 Q10.2 -11.6 10.65 -12.3 11.1 -13.05 11.1 -14.1 L14.5 -14.35 15.0 -11.8 9.65 -11.55 M46.45 11.0 L47.4 12.6 45.1 13.0 43.25 13.85 42.2 14.5 38.2 18.25 36.3 19.85 34.2 21.05 33.2 19.35 Q34.65 19.05 39.1 15.4 43.6 11.7 46.45 11.0 M-7.9 -29.3 L-7.95 -28.95 -8.7 -29.0 -8.3 -33.05 -7.45 -33.0 -7.9 -29.3 M-9.4 -60.3 L-8.5 -60.45 -7.7 -57.4 -8.5 -57.3 -8.7 -58.05 -8.7 -58.8 -8.7 -58.85 -8.7 -59.1 -9.1 -59.45 -9.4 -60.3 M-8.2 -55.85 L-7.4 -55.95 -6.6 -50.55 -7.5 -50.55 -8.2 -55.85 M-6.4 -45.95 L-7.4 -45.95 -7.45 -49.05 -6.45 -49.05 -6.4 -45.95 M-7.4 -44.45 L-6.4 -44.45 -6.8 -39.05 -7.75 -39.15 -7.4 -44.45 M-6.95 -37.55 L-7.25 -34.55 -8.15 -34.6 -7.85 -37.65 -6.95 -37.55 M-16.8 -12.75 L-12.6 -12.05 -5.3 -11.5 Q-6.35 -11.5 -7.1 -10.35 -7.85 -9.2 -7.85 -7.6 L-8.25 -4.75 -8.8 1.3 -8.95 8.6 Q-8.95 12.45 -6.05 15.15 -3.15 17.85 0.95 17.85 L1.25 19.35 0.65 19.4 Q-1.95 19.7 -4.4 19.4 L-6.55 18.7 Q-8.35 17.7 -9.6 14.85 -10.5 12.8 -10.85 10.55 -10.95 2.7 -10.15 -9.75 L-10.15 -9.85 -11.35 -9.75 Q-12.9 0.25 -15.4 6.6 L-15.75 7.6 -16.95 10.5 -18.25 12.45 -21.55 14.35 Q-22.15 14.5 -23.7 13.75 L-29.35 12.6 -28.4 11.05 -22.0 12.75 -20.5 12.5 Q-19.8 12.2 -19.55 11.9 -15.5 3.45 -13.7 -5.85 L-13.15 -8.05 Q-13.15 -9.8 -14.25 -11.05 -15.4 -12.3 -16.95 -12.3 L-16.8 -12.75 M25.15 19.2 L20.45 16.6 16.95 15.05 12.55 15.2 Q10.15 15.55 8.2 16.15 L6.9 16.9 6.45 14.85 Q8.65 13.05 13.75 12.5 L16.65 13.0 Q20.45 14.05 25.1 17.05 L26.65 19.95 25.15 19.2" fill="#231407" fill-rule="evenodd" stroke="none"/>
    <path d="M-20.2 -62.85 L-18.55 -63.05 -17.9 -59.2 -18.8 -60.8 -20.2 -62.85 M-12.6 -63.85 L-10.3 -62.95 -9.9 -61.8 -12.15 -61.2 -12.6 -63.85 M-9.1 -62.65 Q-6.1 -62.3 -1.7 -62.5 L-1.55 -56.9 -4.0 -56.8 -2.45 -48.75 Q-2.15 -47.4 -2.15 -44.05 -2.15 -35.45 -2.6 -32.25 L-3.25 -29.15 -0.8 -29.15 -0.7 -26.15 -0.75 -26.15 -1.15 -26.65 -1.15 -27.9 -3.2 -27.9 Q-5.5 -28.95 -7.95 -28.95 L-7.9 -29.3 -5.1 -29.15 -4.4 -34.15 Q-3.9 -38.95 -3.9 -45.35 L-3.95 -47.6 Q-3.95 -49.05 -4.3 -49.85 L-5.0 -53.0 -5.75 -56.25 -5.45 -56.6 -4.8 -57.45 Q-4.55 -57.85 -4.65 -58.8 -4.75 -59.7 -5.15 -60.6 L-5.55 -61.05 -5.65 -61.15 -5.75 -61.25 -5.8 -61.3 -6.6 -61.95 -8.9 -61.9 -9.1 -62.65 M4.25 -63.75 L10.05 -66.2 9.7 -56.9 4.45 -56.9 4.25 -63.75 M15.9 -64.45 L21.15 -64.6 Q21.95 -54.35 22.75 -47.8 L21.9 -51.45 Q20.3 -56.7 16.6 -58.25 L15.65 -57.9 15.9 -64.45 M23.3 -43.65 L23.65 -41.45 26.2 -28.7 Q22.65 -27.65 22.45 -27.4 L18.2 -26.8 17.65 -30.05 Q21.2 -29.95 22.65 -30.7 23.75 -31.25 23.75 -32.5 23.75 -38.95 23.3 -43.65 M25.55 -14.15 L28.55 -15.2 30.85 -16.05 45.05 8.55 Q43.3 9.05 42.15 9.8 L41.25 10.5 Q35.7 -2.35 33.1 -5.4 30.55 -8.35 25.15 -8.35 L21.9 -8.3 20.9 -12.9 25.55 -14.15 M11.6 -29.9 L12.25 -26.3 10.1 -26.2 5.3 -26.2 5.2 -29.2 11.6 -29.9 M7.2 -11.55 Q8.35 -11.25 9.6 -11.55 L9.65 -11.55 15.0 -11.8 15.8 -8.15 4.7 -7.05 4.95 -11.55 7.2 -11.55 M-9.1 -59.45 L-9.7 -59.4 -10.8 -59.3 Q-11.8 -59.3 -11.1 -59.35 L-11.25 -59.5 -10.75 -59.65 Q-10.25 -59.7 -9.4 -60.3 L-9.1 -59.45 M-8.5 -60.45 L-6.4 -60.55 -6.05 -57.95 Q-6.3 -57.6 -7.7 -57.4 L-8.5 -60.45 M-8.5 -57.3 L-10.35 -57.1 -10.65 -57.7 -8.7 -58.05 -8.5 -57.3 M-10.1 -55.6 L-8.2 -55.85 -7.5 -50.55 -7.9 -50.55 -8.4 -50.55 -8.7 -50.55 -9.7 -50.55 -10.1 -55.6 M-17.75 -57.75 Q-17.0 -50.25 -17.0 -47.55 L-17.25 -42.75 Q-17.5 -38.3 -17.85 -35.35 L-18.0 -34.35 -18.0 -34.3 -19.2 -28.55 -20.9 -29.35 -22.75 -29.95 Q-20.8 -38.05 -19.5 -41.1 -18.85 -43.4 -17.75 -57.75 M-12.85 -29.3 L-12.6 -30.65 Q-11.95 -30.65 -11.5 -31.4 -11.05 -32.2 -11.05 -33.3 L-8.3 -33.05 -8.7 -29.0 -12.85 -29.3 M-7.4 -45.95 L-9.4 -45.95 -9.4 -46.6 -8.05 -46.85 Q-7.55 -47.1 -7.6 -47.45 L-8.2 -48.0 -9.5 -48.15 -9.55 -49.05 -7.45 -49.05 -7.4 -45.95 M-9.45 -44.45 L-7.4 -44.45 -7.75 -39.15 -10.0 -39.35 Q-9.6 -41.9 -9.45 -44.45 M-10.2 -37.85 L-7.85 -37.65 -8.15 -34.6 -10.7 -34.85 -10.55 -35.45 -9.25 -35.65 Q-8.5 -35.9 -8.3 -36.1 L-8.35 -36.35 -10.3 -36.95 -10.2 -37.85 M-37.55 11.25 L-39.75 11.95 -41.8 12.7 Q-38.0 3.4 -31.35 -6.45 L-24.4 -16.45 -22.3 -15.1 Q-22.6 -14.05 -27.9 -3.3 -33.25 7.65 -34.4 9.35 L-35.35 9.7 -37.55 11.25 M-5.3 -11.5 L-3.4 -11.75 -1.8 -12.2 -1.05 -12.25 -1.35 -6.9 -7.85 -7.6 Q-7.85 -9.2 -7.1 -10.35 -6.35 -11.5 -5.3 -11.5 M-13.15 -8.05 L-18.7 -8.05 -16.95 -12.3 Q-15.4 -12.3 -14.25 -11.05 -13.15 -9.8 -13.15 -8.05" fill="#512c15" fill-rule="evenodd" stroke="none"/>
    <path d="M9.7 -56.9 L9.65 -54.6 4.5 -54.5 4.45 -56.9 9.7 -56.9 M15.65 -54.9 L15.65 -57.9 16.6 -58.25 Q20.3 -56.7 21.9 -51.45 L22.75 -47.8 23.3 -43.65 Q23.75 -38.95 23.75 -32.5 23.75 -31.25 22.65 -30.7 21.2 -29.95 17.65 -30.05 L17.3 -32.35 Q18.85 -31.95 19.25 -32.6 19.8 -33.45 19.8 -37.2 19.8 -44.7 18.95 -48.65 18.0 -53.15 15.65 -54.9 M-1.55 -56.9 L-0.8 -29.15 -3.25 -29.15 -2.6 -32.25 Q-2.15 -35.45 -2.15 -44.05 -2.15 -47.4 -2.45 -48.75 L-4.0 -56.8 -1.55 -56.9 M5.2 -29.2 L5.15 -31.55 Q5.95 -31.55 8.2 -32.35 10.45 -33.15 11.05 -33.65 L11.6 -29.9 5.2 -29.2 M4.65 -2.55 L4.7 -7.05 15.8 -8.15 Q16.2 -5.6 18.2 0.35 20.95 8.6 25.1 17.05 20.45 14.05 16.65 13.0 L13.75 12.5 Q8.65 13.05 6.45 14.85 L6.05 12.4 Q7.35 11.8 11.15 10.7 L15.1 9.7 17.7 10.2 18.7 10.55 Q17.7 7.5 14.45 1.5 10.8 -5.25 9.45 -5.25 8.65 -5.25 6.9 -4.25 5.05 -3.2 4.65 -2.5 L4.65 -2.55 M-1.35 -6.9 Q-1.5 -0.55 -0.6 7.75 0.15 14.2 0.95 17.85 -3.15 17.85 -6.05 15.15 -8.95 12.45 -8.95 8.6 -7.7 3.5 -6.55 0.35 -5.95 -1.35 -5.95 -2.4 -5.95 -3.55 -6.7 -3.95 L-8.25 -4.75 -7.85 -7.6 -1.35 -6.9 M21.9 -8.3 L25.15 -8.35 Q30.55 -8.35 33.1 -5.4 35.7 -2.35 41.25 10.5 L42.15 9.8 Q43.3 9.05 45.05 8.55 L46.45 11.0 Q43.6 11.7 39.1 15.4 34.65 19.05 33.2 19.35 L32.05 17.35 Q35.8 16.3 37.25 14.4 37.25 13.05 32.1 4.75 26.65 -3.95 24.2 -5.55 L23.15 -3.75 21.9 -8.3 M-5.75 -56.25 L-5.0 -53.0 -4.3 -49.85 Q-5.4 -50.45 -6.6 -50.55 L-7.4 -55.95 -5.75 -56.25 M-3.95 -47.6 L-3.9 -45.35 Q-3.9 -38.95 -4.4 -34.15 L-5.1 -29.15 -7.9 -29.3 -7.45 -33.0 -6.3 -33.15 Q-5.35 -33.3 -5.1 -33.9 L-4.85 -34.3 Q-4.45 -35.3 -4.95 -38.05 L-5.2 -38.3 -6.0 -38.75 -6.8 -39.05 -6.4 -44.45 -5.55 -44.75 Q-5.0 -44.75 -4.6 -45.2 -4.25 -45.65 -4.25 -46.3 L-3.95 -47.6 M-10.35 -57.1 L-10.6 -57.45 -10.6 -57.25 -10.75 -57.3 -10.65 -57.7 -10.35 -57.1 M-11.45 -55.75 L-10.1 -55.6 -9.7 -50.55 -11.1 -50.25 -11.45 -55.75 M-12.6 -30.65 L-12.05 -33.7 -11.05 -33.3 Q-11.05 -32.2 -11.5 -31.4 -11.95 -30.65 -12.6 -30.65 M-11.35 -39.3 L-11.05 -44.75 -9.45 -44.45 Q-9.6 -41.9 -10.0 -39.35 L-11.35 -39.3 M-10.35 -46.2 L-10.4 -46.2 -10.0 -46.35 -9.4 -46.6 -9.4 -45.95 -10.35 -46.2 M-6.45 -49.05 Q-5.45 -48.95 -5.45 -47.9 L-5.55 -45.95 -6.4 -45.95 -6.45 -49.05 M-9.55 -49.05 L-9.5 -48.15 -10.35 -48.15 -10.15 -48.55 Q-9.85 -48.65 -9.55 -49.05 M-6.2 -37.55 L-6.15 -37.55 -6.1 -37.45 -6.1 -37.2 -6.4 -34.45 -7.25 -34.55 -6.95 -37.55 -6.2 -37.55 M-11.1 -37.45 L-10.85 -37.7 -10.75 -37.75 -10.2 -37.85 -10.3 -36.95 Q-10.7 -36.95 -10.9 -37.1 L-11.1 -37.45 M-37.55 11.25 L-35.35 9.7 -34.4 9.35 -35.4 11.05 -37.55 11.25 M-18.7 -8.05 L-13.15 -8.05 -13.7 -5.85 Q-17.85 -5.35 -20.95 -0.5 -22.45 1.7 -25.4 8.7 -23.5 9.25 -19.55 11.9 -19.8 12.2 -20.5 12.5 L-22.0 12.75 -28.4 11.05 Q-27.5 9.75 -18.7 -8.05" fill="#6c3a1c" fill-rule="evenodd" stroke="none"/>
    <path d="M4.5 -54.5 L9.65 -54.6 11.05 -33.65 Q10.45 -33.15 8.2 -32.35 5.95 -31.55 5.15 -31.55 L4.5 -54.5 M15.65 -54.9 Q18.0 -53.15 18.95 -48.65 19.8 -44.7 19.8 -37.2 19.8 -33.45 19.25 -32.6 18.85 -31.95 17.3 -32.35 L15.65 -54.9 M4.65 -2.5 Q5.05 -3.2 6.9 -4.25 8.65 -5.25 9.45 -5.25 10.8 -5.25 14.45 1.5 17.7 7.5 18.7 10.55 L17.7 10.2 15.1 9.7 11.15 10.7 Q7.35 11.8 6.05 12.4 L4.65 -2.5 M23.15 -3.75 L24.2 -5.55 Q26.65 -3.95 32.1 4.75 37.25 13.05 37.25 14.4 35.8 16.3 32.05 17.35 L23.15 -3.75 M-19.55 11.9 Q-23.5 9.25 -25.4 8.7 -22.45 1.7 -20.95 -0.5 -17.85 -5.35 -13.7 -5.85 -15.5 3.45 -19.55 11.9 M-8.95 8.6 L-8.8 1.3 -8.25 -4.75 -6.7 -3.95 Q-5.95 -3.55 -5.95 -2.4 -5.95 -1.35 -6.55 0.35 -7.7 3.5 -8.95 8.6" fill="#8c4b24" fill-rule="evenodd" stroke="none"/>
    <path d="M30.9 -33.95 Q32.6 -32.85 33.8 -28.4 34.85 -24.6 34.85 -21.7 34.85 -20.35 33.85 -19.65 L32.25 -18.55 Q30.75 -17.6 30.05 -17.45 L29.4 -17.2 29.4 -18.3 31.05 -18.5 Q32.2 -18.5 32.75 -19.0 34.5 -20.65 33.1 -29.6 L32.4 -31.0 32.4 -30.45 Q32.4 -29.8 31.3 -29.0 30.15 -28.15 28.5 -27.75 L27.6 -28.5 30.85 -29.85 31.2 -29.85 Q31.4 -30.55 31.2 -31.5 L30.45 -34.1 30.9 -33.95 M-25.4 -19.25 L-26.85 -22.05 Q-26.85 -25.25 -25.7 -28.95 -24.45 -33.0 -22.75 -34.05 L-23.05 -32.55 -23.4 -30.85 -23.25 -30.05 -22.85 -29.9 -23.75 -29.45 -23.85 -31.15 -23.8 -32.45 -24.25 -31.8 Q-24.8 -31.0 -25.15 -29.6 L-25.85 -22.05 Q-25.85 -21.1 -24.85 -20.1 L-24.85 -18.8 -25.4 -19.25 M22.45 -27.4 L22.65 -26.7 23.05 -26.45 Q15.95 -25.2 10.5 -25.2 L10.1 -26.2 12.25 -26.3 18.2 -26.8 22.45 -27.4 M24.4 -16.9 L24.4 -15.8 20.45 -15.05 14.5 -14.35 11.1 -14.1 11.1 -15.2 12.95 -15.3 22.85 -16.6 24.4 -16.9 M5.05 -26.05 L5.1 -25.1 -0.35 -25.15 -0.75 -26.15 -0.7 -26.15 5.05 -26.05 M5.1 -15.0 L5.05 -13.95 -0.45 -14.0 -0.15 -15.05 1.65 -15.0 3.6 -15.0 5.1 -15.0 M-19.05 -28.35 L-18.4 -28.2 -18.95 -27.3 -19.6 -27.45 Q-19.35 -27.45 -19.2 -27.7 -19.05 -28.0 -19.05 -28.35 M-19.55 -17.7 L-19.45 -16.55 -20.1 -16.95 -20.4 -17.95 -19.55 -17.7" fill="#330809" fill-rule="evenodd" stroke="none"/>
    <path d="M24.0 -25.6 Q24.35 -25.25 24.4 -16.9 L22.85 -16.6 22.85 -25.35 24.0 -25.6 M29.4 -18.3 L29.25 -27.1 Q31.45 -27.95 32.15 -28.6 L33.1 -29.6 Q34.5 -20.65 32.75 -19.0 32.2 -18.5 31.05 -18.5 L29.4 -18.3 M5.55 -23.8 L5.1 -15.0 3.6 -15.0 Q3.6 -20.6 3.25 -23.8 L5.55 -23.8 M11.1 -15.2 L10.95 -23.95 12.8 -24.1 12.95 -15.3 11.1 -15.2 M1.45 -23.8 L1.65 -15.0 -0.15 -15.05 Q0.05 -17.55 -0.05 -23.85 L1.45 -23.8 M-19.3 -26.45 L-19.55 -17.7 -20.4 -17.95 Q-20.8 -26.4 -20.35 -26.8 L-19.3 -26.45 M-3.2 -22.7 L-3.25 -16.9 -3.8 -16.35 Q-4.5 -15.8 -5.15 -15.8 L-15.9 -16.1 -15.7 -16.7 Q-15.3 -17.3 -15.75 -17.9 L-15.85 -18.45 -11.85 -18.0 Q-9.2 -18.1 -9.2 -20.1 -9.2 -21.35 -10.15 -21.85 -11.5 -22.6 -15.85 -22.75 -15.9 -24.15 -15.5 -24.65 -15.15 -25.1 -13.95 -25.1 L-8.7 -24.6 Q-4.1 -23.9 -3.2 -22.7 M-25.15 -29.6 L-24.65 -29.0 -24.85 -20.1 Q-25.85 -21.1 -25.85 -22.05 L-25.15 -29.6 M-6.55 -23.45 Q-9.2 -23.45 -8.75 -21.95 -8.45 -20.95 -5.25 -16.6 -4.8 -17.6 -4.55 -17.6 L-4.45 -19.8 Q-4.45 -23.45 -6.55 -23.45" fill="#510c0f" fill-rule="evenodd" stroke="none"/>
    <path d="M23.05 -26.45 L24.0 -25.6 22.85 -25.35 12.8 -24.1 10.95 -23.95 10.5 -25.2 Q15.95 -25.2 23.05 -26.45 M29.25 -27.1 L28.5 -27.75 Q30.15 -28.15 31.3 -29.0 32.4 -29.8 32.4 -30.45 L32.4 -31.0 33.1 -29.6 32.15 -28.6 Q31.45 -27.95 29.25 -27.1 M5.1 -25.1 L5.55 -23.8 3.25 -23.8 1.45 -23.8 -0.05 -23.85 -0.35 -25.15 5.1 -25.1 M-18.95 -27.3 L-19.3 -26.45 -20.35 -26.8 -19.6 -27.45 -18.95 -27.3 M-25.15 -29.6 Q-24.8 -31.0 -24.25 -31.8 L-23.8 -32.45 -23.85 -31.15 -23.75 -29.45 -24.65 -29.0 -25.15 -29.6" fill="#a61c21" fill-rule="evenodd" stroke="none"/>
    <path d="M22.85 -25.35 L22.85 -16.6 12.95 -15.3 12.8 -24.1 22.85 -25.35 M1.45 -23.8 L3.25 -23.8 Q3.6 -20.6 3.6 -15.0 L1.65 -15.0 1.45 -23.8 M-6.55 -23.45 Q-4.45 -23.45 -4.45 -19.8 L-4.55 -17.6 Q-4.8 -17.6 -5.25 -16.6 -8.45 -20.95 -8.75 -21.95 -9.2 -23.45 -6.55 -23.45" fill="#661013" fill-rule="evenodd" stroke="none"/>
    <path d="M23.1 -87.65 L26.5 -80.35 Q29.7 -72.95 29.7 -70.5 29.7 -67.05 24.5 -67.05 L23.4 -67.25 23.05 -67.45 Q24.35 -68.8 24.35 -70.2 L24.3 -71.0 23.7 -71.0 24.75 -78.4 Q24.75 -79.6 23.65 -83.15 22.5 -86.7 22.5 -86.95 L22.6 -87.65 23.1 -87.65 M-21.15 -73.55 Q-20.4 -71.1 -18.1 -68.5 -15.65 -66.0 -15.05 -65.1 -16.55 -63.7 -20.2 -63.7 -24.3 -63.7 -27.8 -67.5 -31.65 -71.7 -32.55 -78.5 L-31.1 -76.75 -29.55 -75.3 -26.6 -74.2 -21.15 -73.55 M-14.2 -117.25 L-9.3 -126.2 Q-4.2 -134.6 -0.7 -135.15 L-1.05 -134.75 -3.2 -131.4 Q-4.8 -128.5 -5.15 -127.2 -9.45 -122.25 -14.2 -117.25" fill="#9a9789" fill-rule="evenodd" stroke="none"/>
    <path d="M-4.45 -117.7 Q-3.35 -117.15 -2.95 -116.3 -2.55 -115.5 -2.95 -114.65 -3.4 -113.85 -4.4 -113.5 L-6.35 -113.4 Q-7.2 -113.55 -8.05 -114.1 L-8.25 -114.35 -8.5 -114.75 Q-8.8 -116.0 -7.45 -118.15 L-7.15 -118.3 -6.85 -118.4 Q-5.55 -118.3 -4.45 -117.7 M-9.8 -105.65 L-8.8 -104.45 -8.45 -103.85 Q-8.55 -102.35 -9.35 -101.4 -9.65 -101.2 -10.6 -101.1 L-12.25 -101.15 -12.3 -101.15 -12.75 -101.5 -12.95 -101.75 -13.4 -102.6 Q-13.55 -103.5 -11.95 -105.75 L-10.65 -105.9 -9.8 -105.65 M-16.4 -91.2 Q-15.35 -89.7 -15.35 -89.1 -15.35 -88.7 -17.1 -86.7 L-18.45 -86.65 Q-19.9 -87.05 -20.55 -87.7 L-20.7 -87.8 -20.35 -89.6 -20.8 -87.95 Q-21.25 -88.5 -21.2 -89.1 -21.15 -89.85 -20.4 -90.45 L-19.9 -90.8 -18.55 -91.25 -16.7 -91.35 -16.4 -91.2 M-17.9 -74.85 Q-16.7 -74.85 -15.85 -73.8 -15.0 -72.75 -15.0 -71.25 -16.9 -69.85 -17.4 -69.85 -18.35 -69.85 -19.2 -70.5 L-19.75 -71.5 Q-19.75 -72.9 -19.2 -73.85 -18.65 -74.85 -17.9 -74.85 M-0.45 -14.0 L-0.95 -13.0 -1.8 -12.2 -3.4 -11.75 -5.3 -11.5 -12.6 -12.05 -16.8 -12.75 -17.05 -12.95 -1.15 -12.95 -1.15 -26.65 -0.75 -26.15 -0.35 -25.15 -0.05 -23.85 Q0.05 -17.55 -0.15 -15.05 L-0.45 -14.0 M-8.15 -115.85 Q-6.65 -114.0 -6.35 -114.0 L-5.65 -114.45 -4.3 -115.85 Q-4.25 -116.7 -4.8 -117.25 -5.4 -117.85 -6.2 -117.85 -7.0 -117.85 -7.55 -117.25 -8.15 -116.7 -8.15 -115.85 M-12.9 -103.3 L-12.25 -102.0 Q-11.85 -101.45 -10.8 -101.45 -10.5 -101.45 -9.05 -103.3 -9.0 -104.15 -9.55 -104.7 -10.15 -105.3 -10.95 -105.3 -11.75 -105.3 -12.3 -104.7 -12.9 -104.15 -12.9 -103.3 M-15.95 -89.05 Q-15.9 -89.9 -16.45 -90.45 -17.05 -91.05 -17.85 -91.05 -18.65 -91.05 -19.2 -90.45 -19.8 -89.9 -19.8 -89.05 L-19.3 -87.8 Q-19.0 -87.2 -17.9 -87.2 -17.35 -87.2 -15.95 -89.05 M-8.9 -61.9 L-6.6 -61.95 -8.95 -61.7 Q-11.05 -61.35 -12.2 -60.6 L-12.5 -59.5 -12.3 -57.25 Q-11.8 -55.75 -10.05 -55.75 L-7.6 -56.05 Q-5.9 -56.35 -5.45 -56.6 L-5.75 -56.25 -7.4 -55.95 -8.2 -55.85 -10.1 -55.6 -11.45 -55.75 Q-11.85 -55.75 -12.1 -56.2 L-12.4 -57.25 Q-12.8 -59.95 -12.15 -61.2 L-9.9 -61.8 -8.9 -61.9 M-5.15 -60.6 Q-4.75 -59.7 -4.65 -58.8 -4.55 -57.85 -4.8 -57.45 L-4.95 -59.1 -5.15 -60.6 M-4.3 -49.85 Q-3.95 -49.05 -3.95 -47.6 L-4.25 -46.3 Q-4.0 -48.5 -4.45 -49.1 L-6.25 -49.95 -7.9 -50.55 -7.5 -50.55 -6.6 -50.55 Q-5.4 -50.45 -4.3 -49.85 M-7.95 -28.95 Q-5.5 -28.95 -3.2 -27.9 L-18.5 -27.9 -18.5 -14.25 -18.55 -14.35 -19.45 -16.55 -19.55 -17.7 -19.3 -26.45 -18.95 -27.3 -18.4 -28.2 -16.4 -28.95 -14.3 -29.4 -12.85 -29.3 -8.7 -29.0 -7.95 -28.95 M-15.35 -72.3 Q-15.3 -73.15 -15.85 -73.7 -16.45 -74.3 -17.25 -74.3 -18.05 -74.3 -18.6 -73.7 -19.2 -73.15 -19.2 -72.3 L-17.8 -70.75 Q-17.55 -70.45 -17.3 -70.45 -16.75 -70.45 -15.35 -72.3 M-11.6 -59.05 Q-11.45 -59.85 -11.75 -60.4 L-6.3 -60.9 -6.2 -60.9 -6.15 -60.8 Q-5.8 -57.9 -5.9 -57.45 L-6.0 -57.4 -10.05 -56.6 -11.25 -56.45 -11.25 -56.7 -11.2 -56.9 Q-11.1 -57.3 -11.45 -57.65 L-11.8 -57.7 -11.95 -58.25 Q-11.85 -58.95 -11.6 -59.05 M-9.4 -60.3 Q-10.25 -59.7 -10.75 -59.65 L-11.25 -59.5 -11.1 -59.35 Q-11.8 -59.3 -10.8 -59.3 L-9.7 -59.4 -9.1 -59.45 -8.7 -59.1 -11.55 -59.1 -11.55 -58.05 -8.7 -58.05 -10.65 -57.7 -10.75 -57.3 -10.6 -57.25 -10.6 -57.45 -10.35 -57.1 -8.5 -57.3 -7.7 -57.4 Q-6.3 -57.6 -6.05 -57.95 L-6.4 -60.55 -8.5 -60.45 -9.4 -60.3 M-12.05 -33.7 Q-12.7 -34.5 -12.7 -35.5 L-12.45 -37.6 Q-12.2 -38.35 -11.35 -39.3 L-10.0 -39.35 -7.75 -39.15 -6.8 -39.05 -6.0 -38.75 -10.3 -39.2 -11.2 -38.75 -12.1 -38.15 Q-12.6 -36.95 -12.45 -35.5 L-12.1 -34.2 Q-11.55 -33.7 -10.65 -33.4 L-6.9 -33.15 -6.3 -33.15 -7.45 -33.0 -8.3 -33.05 -11.05 -33.3 -12.05 -33.7 M-11.05 -44.75 Q-11.9 -45.5 -11.9 -46.55 L-11.6 -48.5 -11.1 -50.25 -9.7 -50.55 -8.7 -50.55 -10.45 -49.95 Q-11.25 -49.35 -11.35 -48.65 L-11.7 -46.55 Q-11.7 -45.3 -10.9 -44.95 L-5.55 -44.75 -6.4 -44.45 -7.4 -44.45 -9.45 -44.45 -11.05 -44.75 M-5.4 -49.2 L-5.2 -47.6 -5.35 -45.85 -8.05 -45.7 -10.0 -45.9 -10.35 -46.2 -9.4 -45.95 -7.4 -45.95 -6.4 -45.95 -5.55 -45.95 -5.45 -47.9 Q-5.45 -48.95 -6.45 -49.05 L-7.45 -49.05 -9.55 -49.05 Q-9.85 -48.65 -10.15 -48.55 L-10.35 -48.15 -9.5 -48.15 -8.2 -48.0 -7.6 -47.45 Q-7.55 -47.1 -8.05 -46.85 L-9.4 -46.6 -10.0 -46.35 -10.4 -46.2 -10.85 -46.65 -11.1 -46.7 -11.2 -47.35 -11.05 -48.0 -10.8 -48.05 Q-10.4 -48.4 -10.55 -49.2 L-10.25 -49.35 -8.8 -49.45 -6.7 -49.35 -5.4 -49.25 -5.4 -49.2 M-8.35 -47.8 L-9.45 -47.95 -10.55 -47.8 -11.0 -47.4 -10.55 -47.0 -9.45 -46.85 -8.35 -47.0 -7.9 -47.4 -8.35 -47.8 M-4.95 -38.05 Q-4.45 -35.3 -4.85 -34.3 L-5.1 -33.9 Q-4.75 -34.65 -4.95 -38.05 M-6.1 -37.45 Q-5.75 -36.95 -5.75 -35.85 L-5.75 -35.7 -5.85 -34.55 -5.95 -34.25 -7.9 -34.2 -9.4 -34.2 -10.4 -34.3 -11.25 -34.7 -11.65 -35.6 -11.85 -35.6 -11.95 -36.35 Q-11.95 -37.35 -11.75 -37.0 L-11.5 -37.0 -11.1 -37.45 -10.9 -37.1 Q-10.7 -36.95 -10.3 -36.95 L-8.35 -36.35 -8.3 -36.1 Q-8.5 -35.9 -9.25 -35.65 L-10.55 -35.45 -10.7 -34.85 -8.15 -34.6 -7.25 -34.55 -6.4 -34.45 -6.1 -37.2 -6.1 -37.45 M-10.85 -37.7 L-10.8 -37.8 -10.4 -38.15 -6.45 -37.7 -6.2 -37.55 -6.95 -37.55 -7.85 -37.65 -10.2 -37.85 -10.75 -37.75 -10.85 -37.7 M-11.25 -36.65 L-11.75 -36.2 -11.25 -35.75 -10.15 -35.55 -9.0 -35.75 Q-8.55 -35.95 -8.55 -36.2 L-9.0 -36.65 -10.15 -36.85 -11.25 -36.65 M-16.95 -18.75 L-18.0 -20.8 -18.0 -20.85 -17.75 -21.75 -16.95 -22.65 -15.7 -24.65 -14.5 -25.8 Q-7.25 -25.8 -4.7 -24.65 -3.45 -24.05 -3.2 -22.7 -4.1 -23.9 -8.7 -24.6 L-13.95 -25.1 Q-15.15 -25.1 -15.5 -24.65 -15.9 -24.15 -15.85 -22.75 -11.5 -22.6 -10.15 -21.85 -9.2 -21.35 -9.2 -20.1 -9.2 -18.1 -11.85 -18.0 L-15.85 -18.45 -15.75 -17.9 Q-15.3 -17.3 -15.7 -16.7 L-15.9 -16.1 -5.15 -15.8 Q-4.5 -15.8 -3.8 -16.35 L-3.25 -16.9 -3.7 -15.6 Q-3.95 -15.1 -4.6 -15.1 L-16.95 -15.75 Q-17.25 -16.0 -16.95 -16.85 -16.6 -17.9 -16.95 -18.75 M-13.5 -22.15 L-16.3 -21.65 Q-17.45 -21.15 -17.45 -20.45 -17.45 -19.75 -16.3 -19.25 -15.15 -18.75 -13.5 -18.75 -11.85 -18.75 -10.7 -19.25 -9.55 -19.75 -9.55 -20.45 -9.55 -21.15 -10.7 -21.65 L-13.5 -22.15" fill="#563d07" fill-rule="evenodd" stroke="none"/>
    <path d="M-4.3 -115.85 L-5.65 -114.45 -6.35 -114.0 Q-6.65 -114.0 -8.15 -115.85 L-7.35 -115.35 -6.25 -115.1 Q-5.05 -115.1 -4.3 -115.85 M-9.05 -103.3 Q-10.5 -101.45 -10.8 -101.45 -11.85 -101.45 -12.25 -102.0 L-12.9 -103.3 Q-11.05 -102.8 -9.05 -103.3 M-15.95 -89.05 Q-17.35 -87.2 -17.9 -87.2 -19.0 -87.2 -19.3 -87.8 L-19.8 -89.05 -17.65 -88.8 -15.95 -89.05 M-6.6 -61.95 L-5.8 -61.3 Q-6.25 -61.7 -7.15 -61.7 L-9.45 -61.35 -12.2 -60.6 Q-11.05 -61.35 -8.95 -61.7 L-6.6 -61.95 M-5.65 -61.15 L-5.55 -61.05 -5.15 -60.6 -4.95 -59.1 -4.8 -57.45 -5.45 -56.6 Q-5.9 -56.35 -7.6 -56.05 L-10.05 -55.75 Q-11.8 -55.75 -12.3 -57.25 L-12.5 -59.5 Q-12.25 -57.4 -11.85 -56.75 -11.3 -55.95 -9.9 -55.95 -6.75 -55.95 -5.7 -56.65 -5.0 -57.15 -5.0 -58.4 -5.0 -60.45 -5.65 -61.15 M-3.2 -27.9 L-1.15 -27.9 -1.15 -26.65 -1.15 -12.95 -17.05 -12.95 -18.1 -12.95 -18.5 -12.95 -18.5 -13.15 -18.5 -14.25 -18.5 -27.9 -3.2 -27.9 M-19.2 -72.3 L-18.2 -71.75 -17.0 -71.55 Q-16.35 -71.55 -15.95 -71.8 L-15.35 -72.3 Q-16.75 -70.45 -17.3 -70.45 -17.55 -70.45 -17.8 -70.75 L-19.2 -72.3 M-6.3 -60.9 L-11.75 -60.4 Q-11.45 -59.85 -11.6 -59.05 -11.6 -59.7 -11.95 -60.4 -10.0 -61.1 -7.1 -61.1 L-6.3 -60.9 M-11.45 -57.65 Q-11.1 -57.3 -11.2 -56.9 L-11.25 -56.7 -11.4 -56.8 -11.45 -57.65 M-10.05 -56.6 L-6.0 -57.4 -7.8 -56.9 -10.0 -56.6 -10.05 -56.6 M-5.9 -57.45 Q-5.8 -57.9 -6.15 -60.8 L-6.05 -60.65 Q-5.6 -60.05 -5.6 -58.35 L-5.65 -57.6 -5.9 -57.45 M-8.7 -58.05 L-11.55 -58.05 -11.55 -59.1 -8.7 -59.1 -8.7 -58.85 Q-8.7 -59.3 -11.5 -58.35 L-11.15 -58.1 -8.9 -58.5 -8.7 -58.8 -8.7 -58.05 M-8.7 -50.55 L-8.4 -50.55 -10.45 -49.95 -8.7 -50.55 M-11.35 -48.65 L-11.45 -46.5 Q-11.45 -45.4 -10.55 -45.1 L-7.7 -44.9 Q-4.8 -44.9 -4.55 -45.7 -4.3 -46.3 -4.45 -49.1 -4.0 -48.5 -4.25 -46.3 -4.25 -45.65 -4.6 -45.2 -5.0 -44.75 -5.55 -44.75 L-10.9 -44.95 Q-11.7 -45.3 -11.7 -46.55 L-11.35 -48.65 M-5.4 -49.2 L-5.05 -49.2 -5.0 -47.9 Q-5.0 -46.05 -5.3 -45.75 L-7.7 -45.5 -10.8 -45.7 -10.85 -46.65 -10.4 -46.2 -10.35 -46.2 -10.0 -45.9 -8.05 -45.7 -5.35 -45.85 -5.2 -47.6 -5.4 -49.2 M-10.8 -48.05 L-10.6 -49.3 -10.25 -49.35 -10.55 -49.2 Q-10.4 -48.4 -10.8 -48.05 M-8.8 -49.45 L-7.9 -49.5 -6.7 -49.35 -8.8 -49.45 M-8.35 -47.8 L-7.9 -47.4 -8.35 -47.0 -9.45 -46.85 -10.55 -47.0 -11.0 -47.4 -10.55 -47.8 -9.45 -47.95 -8.35 -47.8 M-8.1 -47.35 L-9.1 -47.45 -10.75 -47.15 -8.2 -47.25 -8.1 -47.35 M-6.0 -38.75 L-5.2 -38.3 -4.95 -38.05 Q-4.75 -34.65 -5.1 -33.9 -5.35 -33.3 -6.3 -33.15 L-6.9 -33.15 -10.65 -33.4 -6.25 -33.45 Q-5.05 -33.65 -5.05 -36.55 -5.05 -38.05 -6.0 -38.5 L-10.35 -38.95 -11.2 -38.75 -10.3 -39.2 -6.0 -38.75 M-6.1 -37.45 L-6.15 -37.55 -6.2 -37.55 -6.45 -37.7 -10.4 -38.15 -10.8 -37.8 -10.85 -37.7 -11.1 -37.45 -11.5 -37.0 -10.95 -37.95 Q-10.7 -38.35 -10.4 -38.35 L-5.85 -38.0 -5.65 -36.55 -5.75 -35.7 -5.75 -35.85 Q-5.75 -36.95 -6.1 -37.45 M-11.25 -36.65 L-10.15 -36.85 -9.0 -36.65 -8.55 -36.2 Q-8.55 -35.95 -9.0 -35.75 L-10.15 -35.55 -11.25 -35.75 -11.75 -36.2 -11.25 -36.65 M-11.1 -36.45 L-11.5 -36.2 -11.1 -35.9 -10.15 -35.8 -9.2 -35.9 Q-8.8 -36.05 -8.8 -36.2 L-9.2 -36.45 -10.15 -36.6 -11.1 -36.45 M-11.65 -35.6 L-11.25 -34.7 -11.75 -35.0 -11.65 -35.6 M-9.4 -34.2 L-7.9 -34.2 -5.95 -34.25 -5.85 -34.55 -5.9 -34.15 -7.45 -34.0 -9.4 -34.2 M-16.95 -22.65 L-16.6 -25.15 Q-16.15 -26.45 -14.75 -26.45 -5.85 -26.45 -4.2 -25.5 -2.65 -24.6 -2.65 -19.7 -2.65 -16.35 -2.8 -15.75 -3.1 -14.45 -4.5 -14.45 L-16.9 -15.15 Q-17.4 -15.5 -17.15 -16.45 -16.85 -17.9 -16.95 -18.75 -16.6 -17.9 -16.95 -16.85 -17.25 -16.0 -16.95 -15.75 L-4.6 -15.1 Q-3.95 -15.1 -3.7 -15.6 L-3.25 -16.9 -3.2 -22.7 Q-3.45 -24.05 -4.7 -24.65 -7.25 -25.8 -14.5 -25.8 L-15.7 -24.65 -16.95 -22.65 M-18.0 -20.8 L-18.0 -13.55 -1.75 -13.55 -1.75 -27.5 -18.0 -27.5 -18.0 -20.85 -18.0 -20.8 M-13.5 -22.15 L-10.7 -21.65 Q-9.55 -21.15 -9.55 -20.45 -9.55 -19.75 -10.7 -19.25 -11.85 -18.75 -13.5 -18.75 -15.15 -18.75 -16.3 -19.25 -17.45 -19.75 -17.45 -20.45 -17.45 -21.15 -16.3 -21.65 L-13.5 -22.15 M-10.3 -19.6 L-11.65 -20.9 Q-12.8 -21.45 -15.0 -21.45 L-16.65 -21.25 -16.95 -20.4 Q-16.5 -19.95 -14.15 -19.6 L-10.55 -19.45 -10.3 -19.6" fill="#bc8410" fill-rule="evenodd" stroke="none"/>
    <path d="M-8.15 -115.85 Q-8.15 -116.7 -7.55 -117.25 -7.0 -117.85 -6.2 -117.85 -5.4 -117.85 -4.8 -117.25 -4.25 -116.7 -4.3 -115.85 -5.05 -115.1 -6.25 -115.1 L-7.35 -115.35 -8.15 -115.85 M-12.9 -103.3 Q-12.9 -104.15 -12.3 -104.7 -11.75 -105.3 -10.95 -105.3 -10.15 -105.3 -9.55 -104.7 -9.0 -104.15 -9.05 -103.3 -11.05 -102.8 -12.9 -103.3 M-19.8 -89.05 Q-19.8 -89.9 -19.2 -90.45 -18.65 -91.05 -17.85 -91.05 -17.05 -91.05 -16.45 -90.45 -15.9 -89.9 -15.95 -89.05 L-17.65 -88.8 -19.8 -89.05 M-5.8 -61.3 L-5.75 -61.25 -5.65 -61.15 Q-5.0 -60.45 -5.0 -58.4 -5.0 -57.15 -5.7 -56.65 -6.75 -55.95 -9.9 -55.95 -11.3 -55.95 -11.85 -56.75 -12.25 -57.4 -12.5 -59.5 L-12.2 -60.6 -9.45 -61.35 -7.15 -61.7 Q-6.25 -61.7 -5.8 -61.3 M-15.35 -72.3 L-15.95 -71.8 Q-16.35 -71.55 -17.0 -71.55 L-18.2 -71.75 -19.2 -72.3 Q-19.2 -73.15 -18.6 -73.7 -18.05 -74.3 -17.25 -74.3 -16.45 -74.3 -15.85 -73.7 -15.3 -73.15 -15.35 -72.3 M-6.3 -60.9 L-7.1 -61.1 Q-10.0 -61.1 -11.95 -60.4 -11.6 -59.7 -11.6 -59.05 -11.85 -58.95 -11.95 -58.25 L-11.8 -57.7 -11.45 -57.65 -11.4 -56.8 -11.25 -56.7 -11.25 -56.45 -10.05 -56.6 -10.0 -56.6 -7.8 -56.9 -6.0 -57.4 -5.9 -57.45 -5.65 -57.6 -5.6 -58.35 Q-5.6 -60.05 -6.05 -60.65 L-6.15 -60.8 -6.2 -60.9 -6.3 -60.9 M-8.7 -58.8 L-8.9 -58.5 -11.15 -58.1 -11.5 -58.35 Q-8.7 -59.3 -8.7 -58.85 L-8.7 -58.8 M-8.4 -50.55 L-7.9 -50.55 -6.25 -49.95 -4.45 -49.1 Q-4.3 -46.3 -4.55 -45.7 -4.8 -44.9 -7.7 -44.9 L-10.55 -45.1 Q-11.45 -45.4 -11.45 -46.5 L-11.35 -48.65 Q-11.25 -49.35 -10.45 -49.95 L-8.4 -50.55 M-10.85 -46.65 L-10.8 -45.7 -7.7 -45.5 -5.3 -45.75 Q-5.0 -46.05 -5.0 -47.9 L-5.05 -49.2 -5.4 -49.2 -5.4 -49.25 -6.7 -49.35 -7.9 -49.5 -8.8 -49.45 -10.25 -49.35 -10.6 -49.3 -10.8 -48.05 -11.05 -48.0 -11.2 -47.35 -11.1 -46.7 -10.85 -46.65 M-8.1 -47.35 L-8.2 -47.25 -10.75 -47.15 -9.1 -47.45 -8.1 -47.35 M-5.75 -35.7 L-5.65 -36.55 -5.85 -38.0 -10.4 -38.35 Q-10.7 -38.35 -10.95 -37.95 L-11.5 -37.0 -11.75 -37.0 Q-11.95 -37.35 -11.95 -36.35 L-11.85 -35.6 -11.65 -35.6 -11.75 -35.0 -11.25 -34.7 -10.4 -34.3 -9.4 -34.2 -7.45 -34.0 -5.9 -34.15 -5.85 -34.55 -5.75 -35.7 M-11.2 -38.75 L-10.35 -38.95 -6.0 -38.5 Q-5.05 -38.05 -5.05 -36.55 -5.05 -33.65 -6.25 -33.45 L-10.65 -33.4 Q-11.55 -33.7 -12.1 -34.2 L-12.45 -35.5 Q-12.6 -36.95 -12.1 -38.15 L-11.2 -38.75 M-11.1 -36.45 L-10.15 -36.6 -9.2 -36.45 -8.8 -36.2 Q-8.8 -36.05 -9.2 -35.9 L-10.15 -35.8 -11.1 -35.9 -11.5 -36.2 -11.1 -36.45 M-16.95 -18.75 Q-16.85 -17.9 -17.15 -16.45 -17.4 -15.5 -16.9 -15.15 L-4.5 -14.45 Q-3.1 -14.45 -2.8 -15.75 -2.65 -16.35 -2.65 -19.7 -2.65 -24.6 -4.2 -25.5 -5.85 -26.45 -14.75 -26.45 -16.15 -26.45 -16.6 -25.15 L-16.95 -22.65 -17.75 -21.75 -18.0 -20.85 -18.0 -27.5 -1.75 -27.5 -1.75 -13.55 -18.0 -13.55 -18.0 -20.8 -16.95 -18.75 M-10.3 -19.6 L-10.55 -19.45 -14.15 -19.6 Q-16.5 -19.95 -16.95 -20.4 L-16.65 -21.25 -15.0 -21.45 Q-12.8 -21.45 -11.65 -20.9 L-10.3 -19.6" fill="#f5b52f" fill-rule="evenodd" stroke="none"/>
  </g>
</svg>
