<?xml version="1.0" encoding="UTF-8" standalone="no"?>
<svg xmlns:ffdec="https://www.free-decompiler.com/flash" xmlns:xlink="http://www.w3.org/1999/xlink" ffdec:objectType="shape" height="34.65px" width="29.5px" xmlns="http://www.w3.org/2000/svg">
  <g transform="matrix(1.0, 0.0, 0.0, 1.0, 14.65, 14.0)">
    <path d="M10.5 -2.4 Q14.85 1.55 14.85 7.15 14.85 12.75 10.5 16.7 6.2 20.65 0.1 20.65 -6.0 20.65 -10.35 16.7 -14.65 12.75 -14.65 7.15 -14.65 1.55 -10.35 -2.4 -6.0 -6.35 0.1 -6.35 6.2 -6.35 10.5 -2.4" fill="#000000" fill-opacity="0.16078432" fill-rule="evenodd" stroke="none"/>
    <path d="M14.0 -1.15 Q14.6 4.65 10.7 9.25 7.0 13.75 1.2 14.0 -4.6 14.55 -9.0 10.9 -13.35 7.05 -13.95 1.25 -14.35 -4.4 -10.75 -8.9 -6.85 -13.4 -1.05 -14.0 4.7 -14.25 9.1 -10.6 13.6 -6.8 14.0 -1.15 M2.8 4.05 L2.15 5.9 Q1.1 8.55 -1.3 8.85 L-2.8 8.4 Q-4.0 8.05 -5.1 7.3 L-6.3 4.3 -5.65 2.35 Q-5.2 0.5 -2.6 -0.05 L-0.7 0.5 Q2.05 1.0 2.8 4.05 M3.65 12.1 Q10.85 9.55 11.75 1.35 12.5 -6.7 5.6 -10.5 0.95 -12.95 -4.05 -11.85 -8.4 -10.35 -10.55 -5.65 -13.95 1.5 -9.55 7.55 -4.65 13.9 3.65 12.1" fill="#010c54" fill-rule="evenodd" stroke="none"/>
    <path d="M5.6 -1.15 L2.3 -3.85 Q-1.7 -5.8 -1.35 -8.55 5.7 -8.9 8.95 -2.6 12.05 3.1 7.6 6.45 L7.5 2.3 5.6 -1.15" fill="#3f63f5" fill-rule="evenodd" stroke="none"/>
    <path d="M5.6 -1.15 L7.5 2.3 7.6 6.45 Q12.05 3.1 8.95 -2.6 5.7 -8.9 -1.35 -8.55 -1.7 -5.8 2.3 -3.85 L5.6 -1.15 M-4.05 -11.85 Q0.95 -12.95 5.6 -10.5 12.5 -6.7 11.75 1.35 10.85 9.55 3.65 12.1 L-3.45 9.5 Q4.65 8.55 2.65 1.0 2.55 -0.15 1.4 -0.95 -0.2 -2.05 -2.05 -1.5 -4.45 -0.6 -7.65 0.15 -8.8 -6.8 -4.05 -11.85" fill="#0b35df" fill-rule="evenodd" stroke="none"/>
    <path d="M2.8 4.05 Q2.05 1.0 -0.7 0.5 L-2.6 -0.05 Q-5.2 0.5 -5.65 2.35 L-6.3 4.3 -5.1 7.3 Q-4.0 8.05 -2.8 8.4 L-1.3 8.85 Q1.1 8.55 2.15 5.9 L2.8 4.05 M3.65 12.1 Q-4.65 13.9 -9.55 7.55 -13.95 1.5 -10.55 -5.65 -8.4 -10.35 -4.05 -11.85 -8.8 -6.8 -7.65 0.15 -4.45 -0.6 -2.05 -1.5 -0.2 -2.05 1.4 -0.95 2.55 -0.15 2.65 1.0 4.65 8.55 -3.45 9.5 L3.65 12.1" fill="#0a2db8" fill-rule="evenodd" stroke="none"/>
  </g>
</svg>
