<?xml version="1.0" encoding="UTF-8" standalone="no"?>
<svg xmlns:ffdec="https://www.free-decompiler.com/flash" xmlns:xlink="http://www.w3.org/1999/xlink" ffdec:objectType="shape" height="18.15px" width="13.35px" xmlns="http://www.w3.org/2000/svg">
  <g transform="matrix(1.0, 0.0, 0.0, 1.0, 13.9, 8.95)">
    <path d="M-7.85 -8.95 Q-3.95 -7.25 -2.3 -4.95 -0.6 -2.6 -0.55 0.75 L-0.55 0.85 Q-0.6 4.1 -2.3 6.45 L-2.25 6.4 Q-4.3 9.3 -7.25 9.2 -10.15 9.3 -12.25 6.45 -13.75 4.45 -13.9 1.7 L-7.85 -8.95" fill="#7c5136" fill-rule="evenodd" stroke="none"/>
    <path d="M-5.0 -2.35 Q-4.1 -1.0 -4.05 0.95 -4.1 2.85 -5.0 4.2 L-5.0 4.25 Q-5.6 5.15 -6.35 5.25 -7.2 5.15 -7.8 4.25 L-7.8 4.2 Q-8.5 3.1 -8.65 1.7 L-8.35 0.9 Q-7.05 -2.7 -6.05 -3.3 -5.5 -3.1 -5.0 -2.4 L-5.0 -2.35" fill="#a86d4a" fill-rule="evenodd" stroke="none"/>
    <path d="M-5.0 -2.35 L-5.0 -2.4 Q-5.5 -3.1 -6.05 -3.3 -7.05 -2.7 -8.35 0.9 L-8.65 1.7 Q-8.5 3.1 -7.8 4.2 L-7.8 4.25 Q-7.2 5.15 -6.35 5.25 -5.6 5.15 -5.0 4.25 L-5.0 4.2 Q-4.1 2.85 -4.05 0.95 -4.1 -1.0 -5.0 -2.35 M-6.9 -8.05 Q-3.5 -6.5 -2.1 -4.35 -0.6 -2.2 -0.55 0.95 L-0.55 1.0 Q-0.6 4.05 -2.1 6.2 L-2.05 6.15 Q-3.8 8.85 -6.35 8.75 -8.9 8.85 -10.7 6.2 -12.0 4.35 -12.15 1.8 L-6.9 -8.05" fill="#20150f" fill-rule="evenodd" stroke="none"/>
  </g>
</svg>
