<?xml version="1.0" encoding="UTF-8" standalone="no"?>
<svg xmlns:ffdec="https://www.free-decompiler.com/flash" xmlns:xlink="http://www.w3.org/1999/xlink" ffdec:objectType="shape" height="74.9px" width="86.45px" xmlns="http://www.w3.org/2000/svg">
  <g transform="matrix(1.0, 0.0, 0.0, 1.0, 56.85, 60.8)">
    <path d="M22.75 -29.4 Q24.15 -27.05 24.15 -25.2 L23.85 -23.45 23.5 -22.5 22.9 -23.15 21.8 -24.55 Q21.2 -26.2 22.75 -29.4 M-35.05 -26.0 Q-43.45 -32.55 -47.25 -38.3 -50.65 -43.5 -50.65 -48.55 L-50.3 -51.4 Q-42.65 -49.6 -35.9 -44.35 -29.1 -38.4 -25.6 -36.15 L-25.1 -36.2 Q-24.65 -36.35 -24.65 -37.0 L-26.35 -39.35 Q-28.35 -41.85 -30.4 -43.7 -31.65 -44.85 -32.75 -46.6 -33.8 -48.3 -33.8 -49.0 -33.8 -49.5 -34.1 -50.25 L-34.55 -52.0 -25.35 -46.0 Q-23.5 -49.05 -22.5 -49.05 L-20.15 -48.7 -17.55 -48.8 -10.85 -45.95 -9.85 -45.8 Q-8.15 -45.8 -7.0 -47.2 L-5.4 -49.05 -4.65 -49.25 Q-3.85 -49.55 -3.75 -49.9 L-3.35 -50.2 Q-3.0 -50.65 -3.2 -51.3 -0.85 -51.5 2.05 -45.65 L5.25 -38.25 Q5.7 -40.45 7.05 -42.15 8.05 -43.45 9.0 -44.0 L8.0 -37.55 13.4 -39.05 Q14.0 -34.9 14.15 -34.75 14.3 -34.5 18.15 -32.5 17.0 -27.5 17.0 -26.5 17.15 -25.5 17.7 -24.6 18.75 -22.8 20.75 -22.85 L18.75 -16.7 20.5 -15.65 18.25 -11.0 18.45 -4.5 18.15 0.05 17.35 6.55 Q13.1 5.45 9.5 4.0 15.75 -9.6 15.65 -10.15 L14.25 -10.0 16.9 -18.65 13.25 -18.4 10.3 -14.55 8.2 -17.7 13.25 -23.05 Q13.15 -28.15 12.6 -28.25 L7.1 -25.15 6.0 -36.0 3.0 -30.05 2.55 -29.1 Q2.25 -28.55 1.6 -28.55 L0.25 -28.8 -0.35 -28.9 -0.65 -33.95 Q-1.15 -38.25 -2.6 -39.8 -3.9 -39.3 -3.9 -38.3 -3.3 -30.35 -3.25 -25.05 L-6.05 -26.0 Q-6.3 -32.85 -7.5 -35.7 -8.4 -37.8 -11.65 -40.8 L-12.05 -40.15 Q-12.55 -38.95 -12.9 -36.1 L-15.55 -38.7 Q-17.75 -40.95 -21.35 -45.65 L-21.65 -43.9 -20.65 -38.05 -19.8 -33.3 Q-19.8 -31.0 -20.4 -27.9 -23.2 -31.05 -30.8 -36.4 -39.55 -42.55 -46.2 -45.25 -45.3 -41.6 -39.55 -34.05 L-32.65 -25.5 -35.05 -26.0 M-7.25 -49.25 L-7.65 -47.4 -8.4 -48.6 -8.75 -49.3 -8.5 -50.5 -7.25 -49.25 M-17.4 -51.55 L-16.6 -49.6 -17.6 -49.15 -19.55 -51.45 -21.25 -53.9 -20.1 -53.5 Q-17.65 -52.3 -17.4 -51.55 M22.35 -7.45 Q22.35 -8.9 23.1 -11.2 24.15 -14.4 26.1 -17.0 27.0 -13.6 26.0 -9.95 25.05 -6.5 23.0 -4.5 22.65 -5.45 22.4 -5.45 L22.35 -7.45" fill="#ebe8e0" fill-rule="evenodd" stroke="none"/>
    <path d="M-3.25 -25.05 Q-3.3 -30.35 -3.9 -38.3 -3.9 -39.3 -2.6 -39.8 -1.15 -38.25 -0.65 -33.95 L-0.35 -28.9 0.25 -28.8 1.6 -28.55 Q2.25 -28.55 2.55 -29.1 L3.0 -30.05 6.0 -36.0 7.1 -25.15 12.6 -28.25 Q13.15 -28.15 13.25 -23.05 L8.2 -17.7 Q6.35 -19.8 1.4 -22.65 -1.1 -24.05 -3.25 -25.05 M10.3 -14.55 L13.25 -18.4 16.9 -18.65 14.25 -10.0 15.65 -10.15 Q15.75 -9.6 9.5 4.0 9.15 3.8 9.35 2.25 L9.95 -0.9 10.45 -5.35 10.65 -8.85 10.3 -14.55 M-32.65 -25.5 L-39.55 -34.05 Q-45.3 -41.6 -46.2 -45.25 -39.55 -42.55 -30.8 -36.4 -23.2 -31.05 -20.4 -27.9 -19.8 -31.0 -19.8 -33.3 L-20.65 -38.05 -21.65 -43.9 -21.35 -45.65 Q-17.75 -40.95 -15.55 -38.7 L-12.9 -36.1 Q-12.55 -38.95 -12.05 -40.15 L-11.65 -40.8 Q-8.4 -37.8 -7.5 -35.7 -6.3 -32.85 -6.05 -26.0 -15.7 -26.55 -32.65 -25.5" fill="#ffffff" fill-rule="evenodd" stroke="none"/>
    <path d="M22.75 -29.4 Q21.2 -26.2 21.8 -24.55 L22.9 -23.15 23.5 -22.5 23.85 -23.45 24.15 -25.2 Q24.15 -27.05 22.75 -29.4 M-45.95 -28.35 Q-47.9 -29.4 -52.45 -34.75 -57.05 -40.1 -55.3 -43.45 -53.5 -42.55 -52.25 -40.8 L-50.85 -38.35 -47.75 -33.85 -47.6 -34.05 -47.5 -35.0 -50.5 -41.7 Q-51.15 -43.3 -52.5 -51.85 L-52.05 -57.25 -48.05 -53.95 Q-45.35 -52.55 -40.8 -50.75 -38.8 -50.35 -37.0 -48.35 L-34.5 -45.85 -33.55 -45.7 -34.55 -48.55 Q-35.3 -50.05 -36.8 -50.75 L-36.8 -55.3 Q-35.3 -53.85 -31.5 -52.3 -27.15 -50.55 -24.05 -50.7 L-22.0 -57.5 Q-17.95 -53.55 -15.35 -52.2 -13.15 -51.0 -10.5 -51.0 -9.15 -51.0 -9.3 -53.9 -8.35 -52.5 -7.7 -52.2 -7.15 -52.15 -5.7 -50.25 -4.65 -54.55 -4.1 -57.65 L-4.0 -58.75 2.45 -47.8 Q2.45 -47.15 3.75 -47.0 L5.75 -46.95 Q6.75 -46.95 8.1 -47.45 9.8 -48.1 10.85 -49.25 10.7 -47.5 11.9 -45.6 12.95 -44.0 13.4 -44.0 14.4 -44.0 17.2 -45.2 L18.15 -38.9 22.8 -37.4 22.7 -35.4 25.45 -28.05 Q26.7 -24.15 25.85 -20.25 28.15 -16.75 28.15 -13.45 28.15 -10.15 27.3 -4.85 26.35 1.0 25.45 1.0 24.95 1.0 24.95 0.65 24.95 0.25 24.45 0.25 24.05 0.25 23.35 4.2 22.5 9.35 20.75 12.85 20.9 11.2 19.2 8.8 L17.35 6.55 18.15 0.05 18.45 -4.5 18.25 -11.0 20.5 -15.65 18.75 -16.7 20.75 -22.85 Q18.75 -22.8 17.7 -24.6 17.15 -25.5 17.0 -26.5 17.0 -27.5 18.15 -32.5 14.3 -34.5 14.15 -34.75 14.0 -34.9 13.4 -39.05 L8.0 -37.55 9.0 -44.0 Q8.05 -43.45 7.05 -42.15 5.7 -40.45 5.25 -38.25 L2.05 -45.65 Q-0.85 -51.5 -3.2 -51.3 -3.0 -50.65 -3.35 -50.2 L-3.75 -49.9 Q-3.85 -49.55 -4.65 -49.25 L-5.4 -49.05 -7.0 -47.2 Q-8.15 -45.8 -9.85 -45.8 L-10.85 -45.95 -17.55 -48.8 -20.15 -48.7 -22.5 -49.05 Q-23.5 -49.05 -25.35 -46.0 L-34.55 -52.0 -34.1 -50.25 Q-33.8 -49.5 -33.8 -49.0 -33.8 -48.3 -32.75 -46.6 -31.65 -44.85 -30.4 -43.7 -28.35 -41.85 -26.35 -39.35 L-24.65 -37.0 Q-24.65 -36.35 -25.1 -36.2 L-25.6 -36.15 Q-29.1 -38.4 -35.9 -44.35 -42.65 -49.6 -50.3 -51.4 L-50.65 -48.55 Q-50.65 -43.5 -47.25 -38.3 -43.45 -32.55 -35.05 -26.0 L-45.95 -28.35 M22.35 -7.45 L22.4 -5.45 Q22.65 -5.45 23.0 -4.5 25.05 -6.5 26.0 -9.95 27.0 -13.6 26.1 -17.0 24.15 -14.4 23.1 -11.2 22.35 -8.9 22.35 -7.45 M-17.4 -51.55 Q-17.65 -52.3 -20.1 -53.5 L-21.25 -53.9 -19.55 -51.45 -17.6 -49.15 -16.6 -49.6 -17.4 -51.55 M-7.25 -49.25 L-8.5 -50.5 -8.75 -49.3 -8.4 -48.6 -7.65 -47.4 -7.25 -49.25" fill="#cbc8c0" fill-rule="evenodd" stroke="none"/>
    <path d="M20.75 12.85 Q22.5 9.35 23.35 4.2 24.05 0.25 24.45 0.25 24.95 0.25 24.95 0.65 24.95 1.0 25.45 1.0 26.35 1.0 27.3 -4.85 28.15 -10.15 28.15 -13.45 28.15 -16.75 25.85 -20.25 26.7 -24.15 25.45 -28.05 L22.7 -35.4 22.8 -37.4 18.15 -38.9 17.2 -45.2 Q14.4 -44.0 13.4 -44.0 12.95 -44.0 11.9 -45.6 10.7 -47.5 10.85 -49.25 9.8 -48.1 8.1 -47.45 6.75 -46.95 5.75 -46.95 L3.75 -47.0 Q2.45 -47.15 2.45 -47.8 L-4.0 -58.75 -4.1 -57.65 Q-4.65 -54.55 -5.7 -50.25 -7.15 -52.15 -7.7 -52.2 -8.35 -52.5 -9.3 -53.9 -9.15 -51.0 -10.5 -51.0 -13.15 -51.0 -15.35 -52.2 -17.95 -53.55 -22.0 -57.5 L-24.05 -50.7 Q-27.15 -50.55 -31.5 -52.3 -35.3 -53.85 -36.8 -55.3 L-36.8 -50.75 Q-35.3 -50.05 -34.55 -48.55 L-33.55 -45.7 -34.5 -45.85 -37.0 -48.35 Q-38.8 -50.35 -40.8 -50.75 -45.35 -52.55 -48.05 -53.95 L-52.05 -57.25 -52.5 -51.85 Q-51.15 -43.3 -50.5 -41.7 L-47.5 -35.0 -47.6 -34.05 -47.75 -33.85 -50.85 -38.35 -52.25 -40.8 Q-53.5 -42.55 -55.3 -43.45 -57.05 -40.1 -52.45 -34.75 -47.9 -29.4 -45.95 -28.35 -50.1 -29.05 -53.25 -32.75 -56.85 -36.95 -56.85 -42.75 L-56.65 -45.75 -52.75 -43.55 -53.4 -47.95 -53.7 -51.6 -52.25 -59.5 Q-49.65 -56.25 -45.6 -54.25 -41.9 -52.45 -38.05 -52.15 L-37.9 -56.9 -36.9 -57.0 Q-25.65 -52.45 -24.8 -52.25 -25.15 -54.45 -24.0 -56.65 -22.95 -58.55 -21.85 -58.95 -19.8 -56.5 -15.95 -54.55 -12.7 -52.9 -10.95 -52.75 L-10.1 -55.2 Q-9.85 -55.65 -9.1 -55.65 -8.45 -55.65 -7.6 -54.4 L-6.9 -53.2 Q-6.2 -57.6 -2.75 -60.8 -2.6 -58.5 -0.4 -53.85 1.9 -48.85 3.3 -48.85 4.3 -48.85 4.35 -48.25 L11.25 -50.55 Q12.75 -49.5 13.25 -47.7 L13.75 -45.5 18.0 -46.55 Q17.95 -44.8 19.1 -42.5 19.9 -40.85 20.4 -40.35 21.65 -39.1 23.6 -38.0 L24.4 -35.0 Q25.65 -31.05 28.5 -26.15 L27.25 -22.25 Q27.75 -20.95 28.7 -15.75 L29.6 -10.65 Q29.6 -7.45 26.9 1.9 24.2 11.35 22.4 14.1 L20.75 12.85" fill="#97877d" fill-rule="evenodd" stroke="none"/>
  </g>
</svg>
