<?xml version="1.0" encoding="UTF-8" standalone="no"?>
<svg xmlns:ffdec="https://www.free-decompiler.com/flash" xmlns:xlink="http://www.w3.org/1999/xlink" ffdec:objectType="shape" height="178.45px" width="63.45px" xmlns="http://www.w3.org/2000/svg">
  <g transform="matrix(1.0, 0.0, 0.0, 1.0, 28.1, 144.8)">
    <path d="M2.2 -22.9 L5.1 -22.85 4.95 -15.9 6.95 -15.85 7.0 -18.9 15.2 -19.3 21.4 -20.1 23.5 -17.6 23.25 -25.1 26.0 -25.8 Q26.1 -19.0 26.35 -17.0 L26.35 -16.9 27.1 -16.8 27.95 -17.0 28.2 -17.2 28.15 -21.55 29.65 -22.0 29.45 -19.9 Q29.45 -16.55 31.05 -10.4 32.6 -4.25 32.6 1.75 32.6 12.3 27.85 20.95 23.75 28.4 19.6 29.45 20.15 28.7 19.9 28.15 L19.3 27.25 Q16.85 28.6 15.8 30.7 14.2 32.2 6.45 32.2 -3.0 32.2 -12.55 25.9 -26.7 16.5 -26.7 -1.95 L-24.3 -20.45 Q-22.55 -18.0 -19.2 -16.75 -16.35 -15.7 -12.9 -15.7 -10.3 -15.7 -8.45 -16.6 L-4.75 -19.15 -2.85 -19.05 -3.4 -19.05 -3.95 -8.65 Q-3.95 -6.7 2.7 -4.7 10.6 -2.4 22.15 -2.4 L26.65 -2.5 Q26.7 -0.7 26.85 -0.45 L27.5 0.1 28.5 -0.2 28.6 -4.85 27.65 -5.15 26.75 -4.85 Q26.7 -4.35 24.85 -3.9 L22.25 -3.5 10.25 -4.3 Q7.8 -4.35 2.95 -5.7 -2.95 -7.35 -2.95 -9.0 -2.95 -11.65 -1.85 -19.0 L0.0 -18.95 -0.1 -16.45 1.9 -16.35 2.2 -22.9 M27.65 -13.6 Q27.2 -13.6 26.9 -12.8 26.55 -12.05 26.55 -10.95 26.55 -9.85 26.9 -9.05 27.2 -8.3 27.65 -8.3 28.1 -8.3 28.45 -9.05 L28.75 -10.95 28.45 -12.8 Q28.1 -13.6 27.65 -13.6 M20.6 23.6 Q20.6 24.4 20.75 24.55 L21.6 24.75 Q22.7 24.65 23.45 24.0 24.95 22.7 23.8 20.05 L21.3 19.85 Q20.6 20.2 20.6 23.6 M26.1 16.15 Q26.5 15.4 26.5 14.35 26.5 13.3 26.1 12.55 25.65 11.8 25.05 11.8 24.45 11.8 24.05 12.55 23.6 13.3 23.6 14.35 23.6 15.4 24.05 16.15 24.45 16.9 25.05 16.9 25.65 16.9 26.1 16.15 M25.6 6.0 Q25.6 7.1 25.95 7.9 26.3 8.65 26.8 8.65 27.3 8.65 27.65 7.9 28.0 7.1 28.0 6.0 28.0 4.9 27.65 4.15 27.3 3.35 26.8 3.35 26.3 3.35 25.95 4.15 25.6 4.9 25.6 6.0 M11.6 1.05 Q2.45 -1.4 -6.35 -5.05 L-6.1 -8.7 Q-6.1 -10.8 -7.2 -11.35 L-10.35 -11.6 Q-17.1 -11.45 -22.45 -14.75 L-23.0 -7.75 -23.25 -2.55 Q-23.25 9.4 -17.1 17.95 -11.2 26.15 -3.6 26.15 5.1 26.15 11.1 20.35 16.4 15.25 16.4 9.55 16.4 5.75 15.3 3.9 14.3 2.15 11.6 1.05" fill="#414a63" fill-rule="evenodd" stroke="none"/>
    <path d="M-3.2 -23.05 L0.15 -22.95 0.1 -20.9 -3.65 -21.05 -3.2 -23.05 M7.1 -22.9 Q9.0 -22.95 12.15 -28.05 L14.95 -33.15 17.5 -29.1 Q17.15 -26.45 16.25 -23.9 15.45 -21.8 14.9 -21.3 L7.05 -20.9 7.1 -22.9" fill="#735944" fill-rule="evenodd" stroke="none"/>
    <path d="M0.15 -22.95 L2.2 -22.9 1.9 -16.35 -0.1 -16.45 0.0 -18.95 0.1 -20.9 0.15 -22.95 M5.1 -22.85 L5.75 -22.85 5.75 -22.9 7.1 -22.9 7.05 -20.9 7.0 -18.9 6.95 -15.85 4.95 -15.9 5.1 -22.85 M21.25 -24.7 L23.25 -25.1 23.5 -17.6 21.4 -20.1 21.35 -22.1 21.25 -24.7 M26.0 -25.8 L27.95 -26.55 28.05 -23.6 28.15 -21.55 28.2 -17.2 27.95 -17.0 27.1 -16.8 26.35 -16.9 26.35 -17.0 Q26.1 -19.0 26.0 -25.8 M33.2 -23.95 L34.65 -16.1 Q35.35 -10.45 35.35 -2.0 35.35 18.15 27.45 26.55 20.75 33.65 6.75 33.65 -6.9 33.65 -16.25 25.55 -28.1 15.3 -28.1 -5.05 L-25.8 -22.6 -24.3 -20.45 -26.7 -1.95 Q-26.7 16.5 -12.55 25.9 -3.0 32.2 6.45 32.2 14.2 32.2 15.8 30.7 16.85 28.6 19.3 27.25 L19.9 28.15 Q20.15 28.7 19.6 29.45 23.75 28.4 27.85 20.95 32.6 12.3 32.6 1.75 32.6 -4.25 31.05 -10.4 29.45 -16.55 29.45 -19.9 L29.65 -22.0 Q31.7 -22.55 33.2 -23.95 M-1.85 -19.0 Q-2.95 -11.65 -2.95 -9.0 -2.95 -7.35 2.95 -5.7 7.8 -4.35 10.25 -4.3 L22.25 -3.5 24.85 -3.9 Q26.7 -4.35 26.75 -4.85 L27.65 -5.15 28.6 -4.85 28.5 -0.2 27.5 0.1 26.85 -0.45 Q26.7 -0.7 26.65 -2.5 L22.15 -2.4 Q10.6 -2.4 2.7 -4.7 -3.95 -6.7 -3.95 -8.65 L-3.4 -19.05 -2.85 -19.05 -1.85 -19.0 M27.65 -13.6 Q28.1 -13.6 28.45 -12.8 L28.75 -10.95 28.45 -9.05 Q28.1 -8.3 27.65 -8.3 27.2 -8.3 26.9 -9.05 26.55 -9.85 26.55 -10.95 26.55 -12.05 26.9 -12.8 27.2 -13.6 27.65 -13.6 M25.6 6.0 Q25.6 4.9 25.95 4.15 26.3 3.35 26.8 3.35 27.3 3.35 27.65 4.15 28.0 4.9 28.0 6.0 28.0 7.1 27.65 7.9 27.3 8.65 26.8 8.65 26.3 8.65 25.95 7.9 25.6 7.1 25.6 6.0 M26.1 16.15 Q25.65 16.9 25.05 16.9 24.45 16.9 24.05 16.15 23.6 15.4 23.6 14.35 23.6 13.3 24.05 12.55 24.45 11.8 25.05 11.8 25.65 11.8 26.1 12.55 26.5 13.3 26.5 14.35 26.5 15.4 26.1 16.15 M20.6 23.6 Q20.6 20.2 21.3 19.85 L23.8 20.05 Q24.95 22.7 23.45 24.0 22.7 24.65 21.6 24.75 L20.75 24.55 Q20.6 24.4 20.6 23.6" fill="#2c3243" fill-rule="evenodd" stroke="none"/>
    <path d="M11.6 1.05 Q14.3 2.15 15.3 3.9 16.4 5.75 16.4 9.55 16.4 15.25 11.1 20.35 5.1 26.15 -3.6 26.15 -11.2 26.15 -17.1 17.95 -23.25 9.4 -23.25 -2.55 L-23.0 -7.75 -22.45 -14.75 Q-17.1 -11.45 -10.35 -11.6 L-7.2 -11.35 Q-6.1 -10.8 -6.1 -8.7 L-6.35 -5.05 Q2.45 -1.4 11.6 1.05" fill="#48536f" fill-rule="evenodd" stroke="none"/>
    <path d="M-25.55 -32.45 L-24.55 -31.1 -26.0 -29.15 -25.55 -32.45 M30.95 -28.35 Q31.85 -29.5 32.2 -30.6 L33.1 -28.2 33.85 -25.5 Q33.85 -24.5 33.2 -23.95 31.7 -22.55 29.65 -22.0 L28.15 -21.55 28.05 -23.6 Q29.25 -23.6 30.1 -25.0 30.95 -26.4 30.95 -28.35 M7.0 -18.9 L7.05 -20.9 14.9 -21.3 21.35 -22.1 21.4 -20.1 15.2 -19.3 7.0 -18.9 M0.1 -20.9 L0.0 -18.95 -1.85 -19.0 -2.85 -19.05 -4.75 -19.15 -3.65 -21.05 0.1 -20.9" fill="#3e3024" fill-rule="evenodd" stroke="none"/>
    <path d="M17.5 -29.1 Q19.3 -26.25 20.45 -25.2 21.05 -24.65 21.25 -24.7 L21.35 -22.1 14.9 -21.3 Q15.45 -21.8 16.25 -23.9 17.15 -26.45 17.5 -29.1 M27.95 -26.55 Q29.75 -27.5 30.95 -28.35 30.95 -26.4 30.1 -25.0 29.25 -23.6 28.05 -23.6 L27.95 -26.55" fill="#513e2f" fill-rule="evenodd" stroke="none"/>
    <path d="M-24.55 -31.1 L-23.1 -29.7 Q-24.05 -28.7 -24.1 -28.05 L-24.35 -27.05 Q-24.35 -23.2 -20.95 -20.45 -17.55 -17.7 -12.75 -17.7 -9.6 -17.7 -7.4 -19.3 -5.2 -20.95 -5.2 -23.25 L-3.2 -23.05 -3.65 -21.05 -4.75 -19.15 -8.45 -16.6 Q-10.3 -15.7 -12.9 -15.7 -16.35 -15.7 -19.2 -16.75 -22.55 -18.0 -24.3 -20.45 L-25.8 -22.6 Q-26.5 -24.5 -26.5 -26.2 -26.5 -27.65 -26.0 -29.15 L-24.55 -31.1" fill="#333333" fill-rule="evenodd" stroke="none"/>
    <path d="M-23.1 -29.7 Q-20.95 -28.05 -15.55 -26.15 -10.25 -24.25 -5.2 -23.25 -5.2 -20.95 -7.4 -19.3 -9.6 -17.7 -12.75 -17.7 -12.75 -21.55 -16.15 -24.3 -19.55 -27.05 -24.35 -27.05 L-24.1 -28.05 Q-24.05 -28.7 -23.1 -29.7" fill="#a4a4a4" fill-rule="evenodd" stroke="none"/>
    <path d="M-12.75 -17.7 Q-17.55 -17.7 -20.95 -20.45 -24.35 -23.2 -24.35 -27.05 -19.55 -27.05 -16.15 -24.3 -12.75 -21.55 -12.75 -17.7" fill="#cccccc" fill-rule="evenodd" stroke="none"/>
    <path d="M-25.55 -32.45 L-25.8 -32.7 -25.95 -33.6 Q-25.95 -40.9 -22.25 -54.2 -18.55 -67.5 -18.55 -76.95 -18.55 -77.35 -22.5 -82.35 -26.45 -87.35 -26.45 -89.65 -26.45 -90.7 -19.4 -106.65 -12.35 -122.55 -12.35 -125.9 -12.35 -126.4 -13.15 -126.85 -13.95 -127.35 -13.95 -127.85 L-14.1 -129.25 Q-14.1 -129.9 -13.5 -129.9 L-8.25 -137.35 Q-1.95 -144.8 3.8 -144.8 5.85 -144.8 7.8 -143.7 10.6 -141.75 13.15 -140.2 14.5 -139.35 14.9 -138.4 15.25 -137.45 15.6 -134.25 17.05 -121.2 19.85 -106.9 L27.45 -71.65 Q33.3 -43.35 33.3 -33.4 33.3 -32.2 32.8 -31.35 L32.2 -30.6 Q31.85 -29.5 30.95 -28.35 29.75 -27.5 27.95 -26.55 L26.0 -25.8 23.25 -25.1 21.25 -24.7 Q21.05 -24.65 20.45 -25.2 19.3 -26.25 17.5 -29.1 L14.95 -33.15 12.15 -28.05 Q9.0 -22.95 7.1 -22.9 L5.75 -22.9 5.75 -22.85 5.1 -22.85 2.2 -22.9 0.15 -22.95 -3.2 -23.05 -5.2 -23.25 Q-10.25 -24.25 -15.55 -26.15 -20.95 -28.05 -23.1 -29.7 L-24.55 -31.1 -25.55 -32.45 M5.85 -140.05 Q7.85 -139.25 7.85 -137.75 L6.2 -133.6 3.75 -128.45 Q5.25 -127.95 5.75 -128.6 6.4 -128.25 11.3 -121.3 L14.65 -135.1 Q13.25 -138.05 9.3 -140.4 5.4 -142.7 2.0 -142.7 0.25 -142.7 -1.65 -141.55 L-5.15 -138.95 Q-9.1 -135.6 -11.1 -132.7 -12.7 -130.4 -12.7 -129.05 L-12.55 -128.0 Q-12.05 -127.0 -10.3 -126.7 -6.45 -138.1 1.0 -140.15 3.7 -140.9 5.85 -140.05 M-7.2 -111.6 L0.25 -125.2 Q6.1 -135.55 6.1 -137.55 6.1 -138.55 5.7 -138.4 1.25 -138.45 -1.5 -136.45 -3.1 -135.35 -5.75 -131.85 -9.5 -122.8 -9.8 -121.2 -10.95 -113.7 -14.15 -98.15 -10.65 -104.5 -7.2 -111.6 M20.75 -92.8 L13.65 -125.05 Q12.1 -119.75 11.65 -119.55 L10.7 -120.55 5.5 -127.0 Q4.1 -126.5 1.3 -122.15 L-0.85 -119.05 Q-4.0 -114.2 -8.75 -105.45 -14.5 -94.85 -15.3 -91.2 L-15.25 -91.2 Q-15.25 -86.45 -13.35 -82.8 -11.45 -79.1 -11.45 -76.05 -11.45 -65.15 -14.05 -49.7 L-18.0 -29.5 -14.55 -28.55 -5.65 -27.15 4.45 -26.65 Q7.1 -26.75 11.15 -31.35 13.2 -33.6 14.7 -35.9 18.6 -31.1 21.9 -29.6 23.55 -28.85 24.45 -29.1 L24.5 -29.1 24.5 -29.05 Q27.75 -30.3 29.35 -31.4 30.75 -32.35 31.25 -33.5 29.8 -34.1 29.4 -34.7 28.85 -35.45 28.55 -37.9 27.65 -47.95 25.75 -61.35 L25.15 -66.25 21.9 -87.25 20.75 -92.8 M-15.45 -104.5 L-11.3 -123.2 Q-13.8 -116.5 -20.25 -102.5 -24.35 -93.65 -24.35 -89.85 -24.35 -86.45 -20.55 -83.0 -16.75 -79.55 -16.75 -77.85 -16.75 -74.0 -24.0 -33.55 -24.0 -32.6 -21.65 -31.0 L-18.85 -29.75 Q-17.85 -34.95 -15.25 -52.85 -12.4 -72.45 -12.4 -75.6 -12.4 -77.25 -14.35 -81.25 -16.3 -85.2 -16.3 -89.3 -16.3 -93.95 -15.45 -104.5" fill="#4d2020" fill-rule="evenodd" stroke="none"/>
    <path d="M5.85 -140.05 Q3.7 -140.9 1.0 -140.15 -6.45 -138.1 -10.3 -126.7 -12.05 -127.0 -12.55 -128.0 L-12.7 -129.05 Q-12.7 -130.4 -11.1 -132.7 -9.1 -135.6 -5.15 -138.95 L-1.65 -141.55 Q0.25 -142.7 2.0 -142.7 5.4 -142.7 9.3 -140.4 13.25 -138.05 14.65 -135.1 L11.3 -121.3 Q6.4 -128.25 5.75 -128.6 5.25 -127.95 3.75 -128.45 L6.2 -133.6 7.85 -137.75 Q7.85 -139.25 5.85 -140.05 M-0.3 -110.1 Q1.6 -110.95 2.65 -110.95 4.05 -110.95 4.05 -109.6 L-0.1 -99.5 -1.3 -99.6 -0.3 -110.1 M6.05 -97.6 Q8.75 -97.15 8.75 -95.75 6.75 -90.95 4.5 -88.6 L-1.9 -88.65 -1.85 -90.45 2.1 -95.2 4.0 -95.95 Q5.95 -96.8 6.05 -97.6 M14.95 -47.75 L14.9 -46.65 Q14.65 -41.05 11.75 -36.95 8.55 -32.5 4.0 -32.5 L2.6 -50.95 Q9.55 -51.9 14.9 -53.85 L14.95 -47.75 M13.1 -82.85 L13.5 -79.15 6.25 -79.95 -1.5 -81.25 -1.9 -84.0 Q3.2 -84.0 9.5 -84.3 L13.1 -82.85 M1.15 -70.85 Q5.4 -71.15 8.75 -69.55 11.9 -68.0 14.55 -64.65 L14.75 -60.0 9.0 -58.65 5.55 -58.3 2.1 -57.75 1.15 -70.85 M-3.0 -71.1 L-3.45 -57.3 -10.9 -57.1 Q-11.05 -61.85 -10.25 -67.45 -9.45 -73.0 -8.45 -74.35 -5.85 -71.75 -3.0 -71.1 M-12.25 -49.35 L-3.95 -50.1 Q-4.5 -50.1 -5.15 -32.9 L-11.4 -34.15 Q-13.8 -34.85 -13.8 -35.75 L-12.0 -38.4 -10.2 -41.1 Q-10.2 -43.55 -13.15 -46.4 L-12.25 -49.35 M-5.15 -100.05 L-7.0 -100.25 -6.95 -98.95 Q-6.7 -97.45 -5.75 -96.45 L-6.5 -89.05 -11.85 -89.45 Q-11.55 -96.2 -9.5 -99.3 -5.9 -104.85 -4.85 -107.65 L-3.5 -108.45 -5.15 -100.05 M-11.15 -81.85 L-11.7 -84.15 -6.75 -82.35 Q-7.5 -82.6 -9.1 -82.35 L-11.15 -81.85" fill="#ebe0bc" fill-rule="evenodd" stroke="none"/>
    <path d="M-5.75 -131.85 Q-3.1 -135.35 -1.5 -136.45 1.25 -138.45 5.7 -138.4 6.1 -138.55 6.1 -137.55 6.1 -135.55 0.25 -125.2 L-7.2 -111.6 -12.25 -105.05 -5.75 -131.85" fill="#f1ba87" fill-rule="evenodd" stroke="none"/>
    <path d="M10.7 -120.55 L11.65 -119.55 Q12.1 -119.75 13.65 -125.05 L20.75 -92.8 19.7 -91.05 Q18.45 -89.8 16.2 -89.5 L14.55 -99.25 10.7 -120.55 M21.9 -87.25 L25.15 -66.25 22.75 -64.15 20.3 -62.2 16.95 -85.05 Q18.05 -85.1 19.75 -85.9 L21.9 -87.25 M25.75 -61.35 Q27.65 -47.95 28.55 -37.9 28.85 -35.45 29.4 -34.7 29.8 -34.1 31.25 -33.5 30.75 -32.35 29.35 -31.4 27.75 -30.3 24.5 -29.05 L24.5 -29.1 24.45 -29.1 21.05 -56.65 23.05 -58.45 Q25.2 -60.4 25.75 -61.35 M14.7 -35.9 Q13.2 -33.6 11.15 -31.35 7.1 -26.75 4.45 -26.65 L4.0 -32.5 Q8.55 -32.5 11.75 -36.95 14.65 -41.05 14.9 -46.65 L14.7 -35.9 M-5.65 -27.15 L-14.55 -28.55 Q-15.3 -30.65 -15.3 -32.35 -15.3 -37.25 -14.9 -39.05 L-13.15 -46.4 Q-10.2 -43.55 -10.2 -41.1 L-12.0 -38.4 -13.8 -35.75 Q-13.8 -34.85 -11.4 -34.15 L-5.15 -32.9 -5.65 -27.15 M1.3 -122.15 Q4.1 -126.5 5.5 -127.0 L12.45 -88.9 4.5 -88.6 Q6.75 -90.95 8.75 -95.75 8.75 -97.15 6.05 -97.6 L6.2 -98.8 -0.1 -99.5 4.05 -109.6 Q4.05 -110.95 2.65 -110.95 1.6 -110.95 -0.3 -110.1 L1.3 -122.15 M2.1 -95.2 L-1.85 -90.45 -1.65 -94.55 Q-0.55 -94.4 2.1 -95.2 M13.5 -79.15 L14.55 -64.65 Q11.9 -68.0 8.75 -69.55 5.4 -71.15 1.15 -70.85 1.35 -77.35 0.45 -78.55 L-0.45 -79.4 Q-1.1 -80.0 -1.5 -81.25 L6.25 -79.95 13.5 -79.15 M-6.7 -82.3 L-4.7 -79.1 Q-2.95 -75.85 -3.0 -71.1 -5.85 -71.75 -8.45 -74.35 L-8.2 -74.55 Q-7.95 -74.8 -7.95 -75.4 -7.95 -76.45 -9.4 -78.85 L-11.15 -81.85 -9.1 -82.35 Q-7.5 -82.6 -6.75 -82.35 L-6.7 -82.3 M-21.65 -31.0 Q-24.0 -32.6 -24.0 -33.55 -16.75 -74.0 -16.75 -77.85 -16.75 -79.55 -20.55 -83.0 -24.35 -86.45 -24.35 -89.85 -24.35 -93.65 -20.25 -102.5 -13.8 -116.5 -11.3 -123.2 L-15.45 -104.5 Q-18.95 -97.2 -18.95 -90.9 -18.95 -84.65 -16.8 -79.95 -14.65 -75.25 -14.65 -74.3 -14.65 -64.3 -17.9 -50.6 -21.45 -35.4 -21.75 -31.65 L-21.65 -31.0" fill="#dcca8d" fill-rule="evenodd" stroke="none"/>
    <path d="M10.7 -120.55 L14.55 -99.25 16.2 -89.5 Q18.45 -89.8 19.7 -91.05 L20.75 -92.8 21.9 -87.25 19.75 -85.9 Q18.05 -85.1 16.95 -85.05 L20.3 -62.2 22.75 -64.15 25.15 -66.25 25.75 -61.35 Q25.2 -60.4 23.05 -58.45 L21.05 -56.65 24.45 -29.1 Q23.55 -28.85 21.9 -29.6 18.6 -31.1 14.7 -35.9 L14.9 -46.65 14.95 -47.75 Q18.05 -53.95 18.05 -56.1 18.05 -58.25 17.0 -60.2 L14.55 -64.65 13.5 -79.15 15.95 -79.3 16.15 -79.4 Q16.35 -79.5 16.35 -80.1 L15.9 -81.05 Q15.1 -82.05 13.1 -82.85 L12.95 -84.55 9.5 -84.3 1.55 -85.1 4.5 -88.6 12.45 -88.9 5.5 -127.0 10.7 -120.55 M4.45 -26.65 L-5.65 -27.15 -5.15 -32.9 0.0 -32.55 4.0 -32.5 4.45 -26.65 M-0.85 -119.05 L1.3 -122.15 -0.3 -110.1 -3.5 -108.45 -1.9 -115.7 -0.85 -119.05 M-1.5 -81.25 Q-1.1 -80.0 -0.45 -79.4 L0.45 -78.55 Q1.35 -77.35 1.15 -70.85 L-3.0 -71.1 Q-2.95 -75.85 -4.7 -79.1 L-6.7 -82.3 -1.5 -81.25" fill="#a6c4a6" fill-rule="evenodd" stroke="none"/>
    <path d="M-0.3 -110.1 L-1.3 -99.6 -5.15 -100.05 -3.5 -108.45 -0.3 -110.1 M-1.85 -90.45 L-1.9 -88.65 4.5 -88.6 1.55 -85.1 9.5 -84.3 Q3.2 -84.0 -1.9 -84.0 L-1.5 -81.25 -6.7 -82.3 -6.75 -82.35 -11.7 -84.15 -11.85 -89.45 -6.5 -89.05 -5.75 -96.45 Q-4.25 -94.9 -1.65 -94.55 L-1.85 -90.45 M13.1 -82.85 Q15.1 -82.05 15.9 -81.05 L16.35 -80.1 Q16.35 -79.5 16.15 -79.4 L15.95 -79.3 13.5 -79.15 13.1 -82.85 M14.55 -64.65 L17.0 -60.2 Q18.05 -58.25 18.05 -56.1 18.05 -53.95 14.95 -47.75 L14.9 -53.85 Q9.55 -51.9 2.6 -50.95 L4.0 -32.5 0.0 -32.55 -5.15 -32.9 Q-4.5 -50.1 -3.95 -50.1 L-12.25 -49.35 -11.55 -51.35 Q-10.95 -53.5 -10.9 -57.1 L-3.45 -57.3 -3.0 -71.1 1.15 -70.85 2.1 -57.75 5.55 -58.3 9.0 -58.65 14.75 -60.0 14.55 -64.65" fill="#cbdccb" fill-rule="evenodd" stroke="none"/>
    <path d="M9.5 -84.3 L12.95 -84.55 13.1 -82.85 9.5 -84.3 M-1.9 -115.7 L-3.5 -108.45 -4.85 -107.65 Q-3.85 -109.85 -1.9 -115.7" fill="#e1d29d" fill-rule="evenodd" stroke="none"/>
    <path d="M-14.55 -28.55 L-18.0 -29.5 -14.05 -49.7 Q-11.45 -65.15 -11.45 -76.05 -11.45 -79.1 -13.35 -82.8 -15.25 -86.45 -15.25 -91.2 L-15.3 -91.2 Q-14.5 -94.85 -8.75 -105.45 -4.0 -114.2 -0.85 -119.05 L-1.9 -115.7 Q-3.85 -109.85 -4.85 -107.65 -5.9 -104.85 -9.5 -99.3 -11.55 -96.2 -11.85 -89.45 L-11.7 -84.15 -11.15 -81.85 -9.4 -78.85 Q-7.95 -76.45 -7.95 -75.4 -7.95 -74.8 -8.2 -74.55 L-8.45 -74.35 Q-9.45 -73.0 -10.25 -67.45 -11.05 -61.85 -10.9 -57.1 -10.95 -53.5 -11.55 -51.35 L-12.25 -49.35 -13.15 -46.4 -14.9 -39.05 Q-15.3 -37.25 -15.3 -32.35 -15.3 -30.65 -14.55 -28.55 M-1.3 -99.6 L-0.1 -99.5 6.2 -98.8 6.05 -97.6 Q5.95 -96.8 4.0 -95.95 L2.1 -95.2 Q-0.55 -94.4 -1.65 -94.55 -4.25 -94.9 -5.75 -96.45 -6.7 -97.45 -6.95 -98.95 L-7.0 -100.25 -5.15 -100.05 -1.3 -99.6 M-21.65 -31.0 L-21.75 -31.65 Q-21.45 -35.4 -17.9 -50.6 -14.65 -64.3 -14.65 -74.3 -14.65 -75.25 -16.8 -79.95 -18.95 -84.65 -18.95 -90.9 -18.95 -97.2 -15.45 -104.5 -16.3 -93.95 -16.3 -89.3 -16.3 -85.2 -14.35 -81.25 -12.4 -77.25 -12.4 -75.6 -12.4 -72.45 -15.25 -52.85 -17.85 -34.95 -18.85 -29.75 L-21.65 -31.0" fill="#783227" fill-rule="evenodd" stroke="none"/>
    <path d="M-7.2 -111.6 Q-10.65 -104.5 -14.15 -98.15 -10.95 -113.7 -9.8 -121.2 -9.5 -122.8 -5.75 -131.85 L-12.25 -105.05 -7.2 -111.6" fill="#db9c64" fill-rule="evenodd" stroke="none"/>
  </g>
</svg>
