<?xml version="1.0" encoding="UTF-8" standalone="no"?>
<svg xmlns:ffdec="https://www.free-decompiler.com/flash" xmlns:xlink="http://www.w3.org/1999/xlink" ffdec:objectType="shape" height="13.55px" width="14.8px" xmlns="http://www.w3.org/2000/svg">
  <g transform="matrix(1.0, 0.0, 0.0, 1.0, 15.75, 5.3)">
    <path d="M-15.75 -2.0 Q-15.8 -2.8 -15.2 -3.5 -14.65 -4.1 -13.75 -4.2 L-3.7 -5.3 Q-2.85 -5.4 -2.15 -4.8 -1.4 -4.3 -1.3 -3.4 L-1.15 -2.65 -1.1 -2.3 Q-0.7 1.55 -2.35 4.45 L-2.25 4.35 Q-4.05 8.0 -7.3 8.2 -10.45 8.7 -13.05 5.65 -15.25 3.2 -15.7 -0.65 L-15.75 -2.0" fill="#6f8887" fill-rule="evenodd" stroke="none"/>
    <path d="M-3.85 -1.05 Q-3.95 1.15 -4.9 2.95 L-4.9 3.0 Q-5.7 4.65 -6.9 4.85 -8.25 4.9 -9.45 3.55 L-9.45 3.5 Q-10.85 1.95 -11.3 -0.2 L-3.85 -1.05" fill="#a86d4a" fill-rule="evenodd" stroke="none"/>
    <path d="M-13.85 -1.4 Q-13.9 -2.2 -13.4 -2.75 -12.9 -3.3 -12.15 -3.4 L-3.3 -4.35 Q-2.55 -4.45 -1.9 -3.9 -1.3 -3.4 -1.2 -2.65 L-1.05 -1.95 -1.0 -1.7 Q-0.7 1.7 -2.1 4.25 L-2.05 4.2 Q-3.65 7.4 -6.45 7.6 -9.25 8.05 -11.5 5.3 -13.45 3.15 -13.85 -0.25 L-13.85 -1.4 M-3.85 -1.05 L-11.3 -0.2 Q-10.85 1.95 -9.45 3.5 L-9.45 3.55 Q-8.25 4.9 -6.9 4.85 -5.7 4.65 -4.9 3.0 L-4.9 2.95 Q-3.95 1.15 -3.85 -1.05" fill="#20150f" fill-rule="evenodd" stroke="none"/>
  </g>
</svg>
