<?xml version="1.0" encoding="UTF-8" standalone="no"?>
<svg xmlns:ffdec="https://www.free-decompiler.com/flash" xmlns:xlink="http://www.w3.org/1999/xlink" ffdec:objectType="shape" height="61.5px" width="33.8px" xmlns="http://www.w3.org/2000/svg">
  <g transform="matrix(1.0, 0.0, 0.0, 1.0, -5.0, 0.0)">
    <path d="M32.0 6.1 L30.8 4.55 23.4 4.55 24.25 6.1 32.0 6.1 M35.4 9.25 L35.4 9.2 Q38.8 18.15 38.8 30.75 38.8 43.35 35.4 52.3 32.15 60.7 27.7 61.45 L27.0 61.5 25.5 61.5 25.25 61.5 17.25 61.5 17.15 61.5 17.05 61.5 Q11.95 61.6 8.45 52.3 5.0 43.35 5.0 30.75 5.0 18.15 8.45 9.2 11.85 0.25 16.7 0.05 L17.05 0.0 17.9 0.1 21.2 0.2 21.75 0.05 22.5 0.0 22.75 0.0 22.8 0.1 23.0 0.05 23.05 0.05 23.55 0.0 23.75 0.0 24.0 0.0 24.1 0.1 24.25 0.05 24.3 0.05 24.25 0.05 24.4 0.05 25.05 0.0 25.3 0.0 25.5 0.0 25.75 0.0 25.8 0.05 25.9 0.1 26.0 0.05 26.05 0.05 26.8 0.0 28.05 0.2 28.1 0.2 28.2 0.2 28.7 0.4 Q32.55 1.75 35.4 9.25 M32.5 6.9 L32.4 6.8 24.6 6.8 25.45 8.7 33.4 8.7 32.5 6.9 M31.2 6.95 L31.25 7.0 31.25 7.05 31.2 6.95 M34.15 10.5 L33.85 9.75 33.7 9.4 25.7 9.4 26.65 12.15 34.7 12.15 34.15 10.55 34.15 10.5 M30.1 3.85 L29.85 3.65 29.1 3.1 28.85 2.95 22.3 2.95 22.95 3.85 30.1 3.85 M25.05 12.35 L24.4 10.55 Q22.25 4.9 19.5 3.15 L18.25 2.6 16.7 2.5 16.35 2.55 15.95 2.6 14.8 3.05 Q11.9 4.65 9.65 10.55 6.45 18.9 6.45 30.75 6.45 34.65 6.8 38.2 7.1 41.3 7.7 44.1 L8.35 46.85 8.65 47.95 9.4 50.3 9.65 51.0 Q12.7 59.0 17.05 59.1 L17.15 59.1 17.2 59.1 Q18.35 59.0 19.45 58.4 L19.5 58.35 Q19.65 58.25 19.85 58.1 L20.5 57.55 20.7 57.35 20.75 57.25 Q20.8 57.15 20.9 57.15 22.8 55.1 24.4 51.0 27.6 42.6 27.6 30.75 L27.45 25.95 27.0 21.2 26.6 18.5 25.55 13.95 25.35 13.35 25.05 12.35 M12.7 9.15 Q14.5 6.4 16.7 6.4 20.2 6.35 22.65 13.55 L23.35 15.7 23.45 16.0 24.55 21.7 24.85 24.25 25.05 28.05 25.1 28.25 25.1 29.35 25.1 30.5 Q25.1 40.4 22.65 47.45 20.2 54.6 16.7 54.55 L15.95 54.5 15.9 54.5 15.15 54.2 Q12.85 53.1 11.1 48.6 L10.7 47.45 10.7 47.4 10.35 46.45 10.35 46.4 9.85 44.7 9.25 42.05 Q8.7 39.15 8.45 35.9 L8.25 30.5 Q8.25 20.7 10.6 13.75 L10.7 13.55 Q11.6 10.8 12.7 9.15 M26.85 12.85 L27.65 16.15 35.85 16.15 34.95 12.85 26.85 12.85 M24.2 22.4 Q23.75 18.9 22.95 15.85 L22.3 13.9 Q19.95 7.15 16.7 7.1 L16.35 7.1 15.65 7.3 Q14.5 7.7 13.5 8.95 12.15 10.65 11.05 13.9 8.65 20.75 8.65 30.5 L8.75 33.7 8.75 33.75 8.75 34.25 9.55 41.4 10.1 43.75 10.15 44.0 10.7 46.1 10.75 46.15 10.9 46.6 10.9 46.7 11.05 47.1 11.15 47.45 Q13.4 53.7 16.55 53.85 L16.7 53.85 17.0 53.85 Q20.1 53.5 22.3 47.1 24.7 40.2 24.7 30.5 L24.65 27.75 24.65 27.4 24.45 24.75 24.45 24.3 24.2 22.4 M27.8 16.85 L28.4 20.5 36.65 20.5 36.0 16.85 27.8 16.85 M36.75 21.2 L28.5 21.2 28.9 25.4 37.15 25.4 36.75 21.2 M37.35 30.95 L37.35 30.75 37.2 26.05 28.95 26.05 29.05 30.75 29.05 30.95 37.35 30.95 M37.1 36.85 L37.35 31.65 29.05 31.65 28.85 36.85 37.1 36.85 M28.2 42.6 L27.25 47.1 35.4 47.1 35.5 46.6 36.4 42.6 28.2 42.6 M28.8 37.55 L28.3 41.9 36.5 41.9 36.65 40.95 36.95 38.8 37.05 37.55 28.8 37.55 M23.95 58.1 L23.4 58.8 23.3 58.9 26.25 58.9 26.75 58.7 26.7 58.85 26.7 58.9 28.0 58.9 Q28.95 58.6 29.9 57.85 L24.1 57.85 23.95 58.1 M23.75 58.1 L23.95 57.85 22.8 57.85 22.0 58.9 23.1 58.9 23.75 58.1 M30.65 57.15 L30.85 56.95 32.1 55.25 24.35 55.25 23.55 56.75 23.3 57.15 24.55 57.15 24.85 56.75 24.6 57.15 25.8 57.15 26.1 56.75 25.85 57.15 27.55 57.15 27.85 56.75 27.6 57.15 30.65 57.15 M33.8 51.9 L33.9 51.6 25.9 51.6 25.65 52.3 24.7 54.55 32.5 54.55 33.8 51.9 M35.2 47.8 L27.1 47.8 26.15 50.9 34.2 50.9 35.2 47.8" fill="#996600" fill-rule="evenodd" stroke="none"/>
    <path d="M34.15 10.5 L34.15 10.55 34.7 12.15 26.65 12.15 25.7 9.4 33.7 9.4 33.85 9.75 34.15 10.5 M26.85 12.85 L34.95 12.85 35.85 16.15 27.65 16.15 26.85 12.85 M28.8 37.55 L37.05 37.55 36.95 38.8 36.65 40.95 36.5 41.9 28.3 41.9 28.8 37.55 M28.2 42.6 L36.4 42.6 35.5 46.6 35.4 47.1 27.25 47.1 28.2 42.6" fill="#d6c970" fill-rule="evenodd" stroke="none"/>
    <path d="M27.8 16.85 L36.0 16.85 36.65 20.5 28.4 20.5 27.8 16.85 M37.1 36.85 L28.85 36.85 29.05 31.65 37.35 31.65 37.1 36.85" fill="#f2efb3" fill-rule="evenodd" stroke="none"/>
    <path d="M36.75 21.2 L37.15 25.4 28.9 25.4 28.5 21.2 36.75 21.2 M37.35 30.95 L29.05 30.95 29.05 30.75 28.95 26.05 37.2 26.05 37.35 30.75 37.35 30.95" fill="#fbfcd1" fill-rule="evenodd" stroke="none"/>
    <path d="M32.0 6.1 L24.25 6.1 23.4 4.55 30.8 4.55 32.0 6.1 M32.5 6.9 L33.4 8.7 25.45 8.7 24.6 6.8 32.4 6.8 32.5 6.9 M31.2 6.95 L31.25 7.05 31.25 7.0 31.2 6.95 M30.1 3.85 L22.95 3.85 22.3 2.95 28.85 2.95 29.1 3.1 29.85 3.65 30.1 3.85 M35.2 47.8 L34.2 50.9 26.15 50.9 27.1 47.8 35.2 47.8 M33.8 51.9 L32.5 54.55 24.7 54.55 25.65 52.3 25.9 51.6 33.9 51.6 33.8 51.9 M30.65 57.15 L27.6 57.15 27.85 56.75 27.55 57.15 25.85 57.15 26.1 56.75 25.8 57.15 24.6 57.15 24.85 56.75 24.55 57.15 23.3 57.15 23.55 56.75 24.35 55.25 32.1 55.25 30.85 56.95 30.65 57.15 M23.75 58.1 L23.1 58.9 22.0 58.9 22.8 57.85 23.95 57.85 23.75 58.1 M23.95 58.1 L24.1 57.85 29.9 57.85 Q28.95 58.6 28.0 58.9 L26.7 58.9 26.7 58.85 26.75 58.7 26.25 58.9 23.3 58.9 23.4 58.8 23.95 58.1" fill="#c7b63f" fill-rule="evenodd" stroke="none"/>
    <path d="M16.35 2.55 L16.7 2.5 18.25 2.6 19.5 3.15 Q22.25 4.9 24.4 10.55 L25.05 12.35 23.95 14.5 23.35 15.7 22.65 13.55 Q20.2 6.35 16.7 6.4 14.5 6.4 12.7 9.15 13.55 7.1 14.65 5.3 L16.35 2.55 M26.6 18.5 L27.0 21.2 24.85 24.25 24.55 21.7 26.6 18.5 M27.45 25.95 L27.6 30.75 Q27.6 42.6 24.4 51.0 22.8 55.1 20.9 57.15 20.8 57.15 20.75 57.25 L20.7 57.35 20.5 57.55 Q17.75 56.45 15.95 54.5 L16.7 54.55 Q20.2 54.6 22.65 47.45 25.1 40.4 25.1 30.5 L25.1 29.35 26.65 27.2 27.45 25.95 M22.5 22.05 L22.5 22.1 22.75 23.65 Q17.65 26.75 14.0 33.6 12.25 37.05 11.2 39.45 L10.75 36.0 Q11.8 32.85 13.85 29.8 16.15 26.25 18.9 24.1 20.8 22.55 22.5 22.05 M21.2 15.95 L21.25 16.05 Q16.2 17.75 11.9 24.8 L10.7 26.95 11.4 18.75 Q12.2 13.95 14.2 9.9 L15.5 7.55 Q18.95 7.75 21.2 15.95 M16.7 7.1 L16.65 7.2 16.35 7.1 16.7 7.1 M12.0 43.5 L12.2 42.95 Q12.65 41.6 13.4 40.75 L13.15 40.3 Q13.15 39.7 17.4 32.45 18.2 30.85 21.25 28.55 L23.15 27.2 23.15 27.45 23.4 31.65 23.4 31.75 Q23.15 36.8 21.7 41.5 19.35 48.95 14.95 48.95 14.1 48.95 13.55 48.15 L13.3 47.75 12.3 44.6 12.05 43.7 12.0 43.5 M10.55 22.15 L10.55 22.4 10.5 22.4 10.55 22.15 M10.75 20.5 L10.7 21.2 10.65 21.2 10.75 20.5 M25.1 28.25 L25.05 28.05 25.2 28.05 25.1 28.25" fill="#f4f05b" fill-rule="evenodd" stroke="none"/>
    <path d="M22.35 21.15 L21.4 16.65 21.35 16.4 21.3 16.4 21.25 16.05 21.2 15.95 22.25 15.8 22.95 15.85 Q23.75 18.9 24.2 22.4 L23.2 22.2 22.5 22.1 22.5 22.05 22.45 21.5 22.4 21.4 22.5 21.3 22.35 21.15 M23.15 27.2 L23.05 25.95 22.8 24.2 22.8 23.95 22.8 23.85 23.1 23.8 Q23.6 23.8 24.45 24.3 L24.45 24.75 24.65 27.4 24.65 27.75 23.15 27.45 23.15 27.2" fill="#eade51" fill-rule="evenodd" stroke="none"/>
    <path d="M25.05 12.35 L25.35 13.35 25.55 13.95 26.6 18.5 24.55 21.7 23.45 16.0 23.35 15.7 23.95 14.5 25.05 12.35 M27.0 21.2 L27.45 25.95 26.65 27.2 25.1 29.35 25.1 28.25 25.2 28.05 25.05 28.05 24.85 24.25 27.0 21.2 M21.25 16.05 L21.3 16.4 21.35 16.4 21.4 16.65 22.35 21.15 22.4 21.4 22.45 21.5 22.5 22.05 Q20.8 22.55 18.9 24.1 16.15 26.25 13.85 29.8 11.8 32.85 10.75 36.0 L10.75 35.75 10.6 34.65 10.5 30.95 10.6 28.55 10.6 28.3 10.7 26.95 11.9 24.8 Q16.2 17.75 21.25 16.05 M22.75 23.65 L22.8 23.85 22.8 23.95 22.8 24.2 23.05 25.95 23.15 27.2 21.25 28.55 Q18.2 30.85 17.4 32.45 13.15 39.7 13.15 40.3 L13.4 40.75 Q12.65 41.6 12.2 42.95 L12.0 43.5 11.95 43.25 11.85 42.9 11.8 42.55 11.8 42.5 11.35 40.3 11.3 40.15 11.3 40.1 11.2 39.45 Q12.25 37.05 14.0 33.6 17.65 26.75 22.75 23.65" fill="#fcfbcd" fill-rule="evenodd" stroke="none"/>
    <path d="M22.35 21.15 L22.5 21.3 22.4 21.4 22.35 21.15 M22.5 22.1 L23.2 22.2 24.2 22.4 24.45 24.3 Q23.6 23.8 23.1 23.8 L22.8 23.85 22.75 23.65 22.5 22.1 M22.95 15.85 L22.25 15.8 21.2 15.95 Q18.95 7.75 15.5 7.55 L15.65 7.3 16.35 7.1 16.65 7.2 16.7 7.1 Q19.95 7.15 22.3 13.9 L22.95 15.85 M13.3 47.75 L13.55 48.15 Q14.1 48.95 14.95 48.95 19.35 48.95 21.7 41.5 23.15 36.8 23.4 31.75 L23.4 31.65 23.15 27.45 24.65 27.75 24.7 30.5 Q24.7 40.2 22.3 47.1 20.1 53.5 17.0 53.85 L15.25 51.8 15.0 51.4 14.55 50.65 13.3 47.75" fill="#e6d831" fill-rule="evenodd" stroke="none"/>
    <path d="M20.5 57.55 L19.85 58.1 Q19.65 58.25 19.5 58.35 L19.45 58.4 Q18.35 59.0 17.2 59.1 L17.15 59.1 17.05 59.1 Q12.7 59.0 9.65 51.0 L9.4 50.3 10.25 49.55 11.1 48.6 Q12.85 53.1 15.15 54.2 L15.9 54.5 15.95 54.5 Q17.75 56.45 20.5 57.55 M8.35 46.85 L7.7 44.1 9.25 42.05 9.85 44.7 8.35 46.85 M6.8 38.2 Q6.45 34.65 6.45 30.75 6.45 18.9 9.65 10.55 11.9 4.65 14.8 3.05 L15.95 2.6 16.35 2.55 14.65 5.3 Q13.55 7.1 12.7 9.15 11.6 10.8 10.7 13.55 L10.6 13.75 Q8.25 20.7 8.25 30.5 L8.45 35.9 6.8 38.2 M10.7 26.95 L10.6 28.3 10.55 27.35 8.75 33.7 8.65 30.5 Q8.65 20.75 11.05 13.9 12.15 10.65 13.5 8.95 14.5 7.7 15.65 7.3 L15.5 7.55 14.2 9.9 Q12.2 13.95 11.4 18.75 L10.7 26.95 M10.75 35.75 L10.75 36.0 11.2 39.45 11.3 40.1 10.6 42.05 10.1 43.75 9.55 41.4 10.75 35.75 M10.75 20.5 L10.65 21.2 10.7 21.2 10.75 20.5 M10.55 22.15 L10.5 22.4 10.55 22.4 10.55 22.15 M10.35 46.4 L10.35 46.45 10.7 47.4 9.85 48.15 9.9 48.05 10.55 47.05 10.35 46.45 10.3 46.55 10.35 46.4 M8.1 40.85 L8.35 40.5 8.45 40.45 8.1 40.85 M11.15 47.45 L12.05 43.7 12.3 44.6 13.3 47.75 14.55 50.65 15.0 51.4 15.25 51.8 17.0 53.85 16.7 53.85 16.55 53.85 Q13.4 53.7 11.15 47.45" fill="#f7f388" fill-rule="evenodd" stroke="none"/>
    <path d="M9.4 50.3 L8.65 47.95 8.35 46.85 9.85 44.7 10.35 46.4 10.3 46.55 10.35 46.45 10.55 47.05 9.9 48.05 9.85 48.15 10.7 47.4 10.7 47.45 11.1 48.6 10.25 49.55 9.4 50.3 M7.7 44.1 Q7.1 41.3 6.8 38.2 L8.45 35.9 Q8.7 39.15 9.25 42.05 L7.7 44.1 M10.6 28.3 L10.6 28.55 10.5 30.95 10.6 34.65 10.75 35.75 9.55 41.4 8.75 34.25 8.75 33.75 8.75 33.7 10.55 27.35 10.6 28.3 M11.3 40.1 L11.3 40.15 11.35 40.3 11.8 42.5 11.8 42.55 11.85 42.9 11.95 43.25 12.0 43.5 12.05 43.7 11.15 47.45 11.05 47.1 10.9 46.7 10.9 46.6 10.75 46.15 10.7 46.1 10.15 44.0 10.1 43.75 10.6 42.05 11.3 40.1 M8.1 40.85 L8.45 40.45 8.35 40.5 8.1 40.85" fill="#ffffff" fill-rule="evenodd" stroke="none"/>
  </g>
</svg>
