<?xml version="1.0" encoding="UTF-8" standalone="no"?>
<svg xmlns:ffdec="https://www.free-decompiler.com/flash" xmlns:xlink="http://www.w3.org/1999/xlink" ffdec:objectType="shape" height="61.5px" width="33.75px" xmlns="http://www.w3.org/2000/svg">
  <g transform="matrix(1.0, 0.0, 0.0, 1.0, -5.05, 0.0)">
    <path d="M37.0 38.2 Q37.35 34.65 37.35 30.75 37.35 18.9 34.15 10.55 31.9 4.65 29.0 3.05 L27.9 2.6 27.5 2.55 27.15 2.5 25.55 2.6 Q24.9 2.8 24.35 3.15 21.55 4.9 19.4 10.55 L18.75 12.35 18.45 13.35 18.3 13.95 Q17.65 16.1 17.25 18.5 L16.8 21.2 Q16.5 23.5 16.35 25.95 L16.25 30.75 Q16.2 42.6 19.4 51.0 21.0 55.1 22.95 57.15 L23.05 57.25 23.1 57.35 23.3 57.55 23.95 58.1 24.35 58.35 24.35 58.4 26.65 59.1 26.7 59.1 26.8 59.1 Q31.1 59.0 34.15 51.0 L34.4 50.3 35.2 47.95 35.5 46.85 36.1 44.1 37.0 38.2 M31.1 9.15 Q32.2 10.8 33.15 13.55 L33.2 13.75 Q35.55 20.7 35.55 30.5 L35.35 35.9 34.55 42.05 33.95 44.7 33.45 46.4 33.45 46.45 33.15 47.4 33.15 47.45 32.7 48.6 Q30.95 53.1 28.65 54.2 L27.9 54.5 27.15 54.55 Q23.6 54.6 21.15 47.45 18.7 40.4 18.7 30.5 L18.75 29.35 18.75 28.25 18.75 28.05 Q18.8 26.1 19.0 24.25 L19.25 21.7 Q19.65 18.65 20.4 16.0 L20.45 15.7 21.15 13.55 Q23.6 6.35 27.15 6.4 29.3 6.4 31.1 9.15 M26.8 0.0 L27.1 0.05 27.15 0.05 Q31.95 0.25 35.4 9.2 38.8 18.15 38.8 30.75 38.8 43.35 35.4 52.3 31.85 61.6 26.8 61.5 L26.7 61.5 26.65 61.5 26.6 61.5 18.6 61.5 18.3 61.5 16.85 61.5 16.1 61.45 Q11.65 60.7 8.45 52.3 5.0 43.35 5.05 30.75 5.0 18.15 8.45 9.2 L8.45 9.25 Q11.25 1.75 15.15 0.4 L15.1 0.4 15.6 0.2 15.65 0.2 15.75 0.2 17.05 0.0 17.8 0.05 17.9 0.1 18.05 0.05 18.1 0.0 18.35 0.0 18.55 0.0 18.8 0.0 19.45 0.05 19.55 0.05 19.75 0.1 19.85 0.0 20.05 0.0 20.1 0.0 20.3 0.0 20.8 0.05 20.85 0.05 21.0 0.1 21.1 0.0 21.35 0.0 22.1 0.05 22.65 0.2 25.9 0.1 26.8 0.0 M21.55 2.95 L15.0 2.95 14.75 3.1 Q14.35 3.3 13.95 3.65 L13.7 3.85 20.9 3.85 21.55 2.95 M27.15 7.1 Q23.85 7.15 21.5 13.9 L20.9 15.85 Q20.05 18.9 19.6 22.4 L19.4 24.3 19.35 24.75 19.2 27.4 19.2 27.75 19.15 30.5 Q19.1 40.2 21.5 47.1 23.75 53.5 26.85 53.85 L27.15 53.85 27.25 53.85 Q30.4 53.7 32.65 47.45 L32.8 47.1 32.9 46.7 32.95 46.6 33.1 46.15 33.1 46.1 33.7 44.0 33.75 43.75 34.25 41.4 35.05 34.25 35.1 33.75 35.1 33.7 35.15 30.5 Q35.15 20.75 32.8 13.9 31.65 10.65 30.35 8.95 29.3 7.7 28.2 7.3 L27.45 7.1 27.15 7.1 M11.85 6.1 L19.55 6.1 20.45 4.55 13.0 4.55 11.85 6.1 M10.45 8.7 L18.4 8.7 19.25 6.8 11.4 6.8 11.35 6.9 10.45 8.7 M12.6 6.95 L12.55 7.05 12.55 7.0 12.6 6.95 M18.15 9.4 L10.15 9.4 10.0 9.75 9.7 10.5 9.7 10.55 9.1 12.15 17.2 12.15 Q17.6 10.7 18.15 9.4 M7.2 20.5 L15.4 20.5 16.0 16.85 7.85 16.85 Q7.45 18.6 7.2 20.5 M8.0 16.15 L16.15 16.15 16.95 12.85 8.9 12.85 8.0 16.15 M7.05 21.2 L6.65 25.4 14.95 25.4 Q15.05 23.25 15.3 21.2 L7.05 21.2 M14.9 26.05 L6.6 26.05 6.5 30.75 6.5 30.95 14.75 30.95 14.75 30.75 Q14.75 28.35 14.9 26.05 M14.75 31.65 L6.5 31.65 6.7 36.85 14.95 36.85 14.75 31.65 M8.3 46.6 L8.45 47.1 16.55 47.1 15.65 42.6 7.45 42.6 8.3 46.6 M7.3 41.9 L15.5 41.9 15.05 37.55 6.75 37.55 6.9 38.8 7.15 40.95 7.3 41.9 M8.6 47.8 L9.65 50.9 17.7 50.9 16.75 47.8 8.6 47.8 M20.3 56.75 L19.45 55.25 11.75 55.25 13.0 56.95 13.2 57.15 16.25 57.15 16.0 56.75 16.3 57.15 18.0 57.15 17.75 56.75 18.05 57.15 19.25 57.15 19.0 56.75 19.3 57.15 20.55 57.15 20.3 56.75 M21.85 58.9 L21.0 57.85 19.85 57.85 20.05 58.1 20.7 58.9 21.85 58.9 M20.45 58.8 L19.9 58.1 19.7 57.85 13.95 57.85 Q14.85 58.6 15.85 58.9 L17.15 58.9 17.1 58.85 17.05 58.7 17.6 58.9 20.55 58.9 20.45 58.8 M18.2 52.3 L17.9 51.6 9.9 51.6 10.05 51.9 11.35 54.55 19.15 54.55 18.2 52.3" fill="#996600" fill-rule="evenodd" stroke="none"/>
    <path d="M18.15 9.4 Q17.6 10.7 17.2 12.15 L9.1 12.15 9.7 10.55 9.7 10.5 10.0 9.75 10.15 9.4 18.15 9.4 M8.0 16.15 L8.9 12.85 16.95 12.85 16.15 16.15 8.0 16.15 M7.3 41.9 L7.15 40.95 6.9 38.8 6.75 37.55 15.05 37.55 15.5 41.9 7.3 41.9 M8.3 46.6 L7.45 42.6 15.65 42.6 16.55 47.1 8.45 47.1 8.3 46.6" fill="#d6c970" fill-rule="evenodd" stroke="none"/>
    <path d="M7.2 20.5 Q7.45 18.6 7.85 16.85 L16.0 16.85 15.4 20.5 7.2 20.5 M14.75 31.65 L14.95 36.85 6.7 36.85 6.5 31.65 14.75 31.65" fill="#f2efb3" fill-rule="evenodd" stroke="none"/>
    <path d="M7.05 21.2 L15.3 21.2 Q15.05 23.25 14.95 25.4 L6.65 25.4 7.05 21.2 M14.9 26.05 Q14.75 28.35 14.75 30.75 L14.75 30.95 6.5 30.95 6.5 30.75 6.6 26.05 14.9 26.05" fill="#fbfcd1" fill-rule="evenodd" stroke="none"/>
    <path d="M21.55 2.95 L20.9 3.85 13.7 3.85 13.95 3.65 Q14.35 3.3 14.75 3.1 L15.0 2.95 21.55 2.95 M10.45 8.7 L11.35 6.9 11.4 6.8 19.25 6.8 18.4 8.7 10.45 8.7 M11.85 6.1 L13.0 4.55 20.45 4.55 19.55 6.1 11.85 6.1 M12.6 6.95 L12.55 7.0 12.55 7.05 12.6 6.95 M8.6 47.8 L16.75 47.8 17.7 50.9 9.65 50.9 8.6 47.8 M20.45 58.8 L20.55 58.9 17.6 58.9 17.05 58.7 17.1 58.85 17.15 58.9 15.85 58.9 Q14.85 58.6 13.95 57.85 L19.7 57.85 19.9 58.1 20.45 58.8 M21.85 58.9 L20.7 58.9 20.05 58.1 19.85 57.85 21.0 57.85 21.85 58.9 M20.3 56.75 L20.55 57.15 19.3 57.15 19.0 56.75 19.25 57.15 18.05 57.15 17.75 56.75 18.0 57.15 16.3 57.15 16.0 56.75 16.25 57.15 13.2 57.15 13.0 56.95 11.75 55.25 19.45 55.25 20.3 56.75 M18.2 52.3 L19.15 54.55 11.35 54.55 10.05 51.9 9.9 51.6 17.9 51.6 18.2 52.3" fill="#c7b63f" fill-rule="evenodd" stroke="none"/>
    <path d="M27.5 2.55 L29.2 5.3 Q30.25 7.1 31.1 9.15 29.3 6.4 27.15 6.4 23.6 6.35 21.15 13.55 L20.45 15.7 19.9 14.5 18.75 12.35 19.4 10.55 Q21.55 4.9 24.35 3.15 24.9 2.8 25.55 2.6 L27.15 2.5 27.5 2.55 M23.3 57.55 L23.1 57.35 23.05 57.25 22.95 57.15 Q21.0 55.1 19.4 51.0 16.2 42.6 16.25 30.75 L16.35 25.95 17.2 27.2 18.75 29.35 18.7 30.5 Q18.7 40.4 21.15 47.45 23.6 54.6 27.15 54.55 L27.9 54.5 Q26.05 56.45 23.3 57.55 M16.8 21.2 L17.25 18.5 19.25 21.7 19.0 24.25 16.8 21.2 M27.45 7.1 L27.15 7.2 27.15 7.1 27.45 7.1 M22.6 15.95 Q24.85 7.75 28.35 7.55 L29.65 9.9 Q31.6 13.95 32.45 18.75 L33.1 26.95 31.9 24.8 Q27.6 17.75 22.6 16.05 L22.6 15.95 M21.3 22.05 Q23.0 22.55 24.9 24.1 27.65 26.25 30.0 29.8 32.0 32.85 33.1 36.0 L32.65 39.45 29.85 33.6 Q26.15 26.75 21.1 23.65 L21.3 22.1 21.3 22.05 M18.75 28.05 L18.75 28.25 18.65 28.05 18.75 28.05 M20.7 27.2 L22.6 28.55 Q25.6 30.85 26.45 32.45 30.65 39.7 30.65 40.3 L30.45 40.75 Q31.15 41.6 31.65 42.95 L31.8 43.5 31.75 43.7 31.55 44.6 30.55 47.75 30.3 48.15 Q29.7 48.95 28.9 48.95 24.45 48.95 22.15 41.5 20.65 36.8 20.45 31.75 L20.45 31.65 20.65 27.45 20.7 27.2 M33.3 22.15 L33.35 22.4 33.3 22.4 33.3 22.15 M33.05 20.5 L33.1 20.5 33.15 21.2 33.05 20.5" fill="#f4f05b" fill-rule="evenodd" stroke="none"/>
    <path d="M20.9 15.85 L21.55 15.8 22.6 15.95 22.6 16.05 22.5 16.4 22.45 16.65 21.45 21.15 21.35 21.3 21.4 21.4 21.4 21.5 21.3 22.05 21.3 22.1 20.6 22.2 19.6 22.4 Q20.05 18.9 20.9 15.85 M19.4 24.3 Q20.2 23.8 20.75 23.8 L21.05 23.85 21.05 23.95 21.0 24.2 20.8 25.95 20.7 27.2 20.65 27.45 19.2 27.75 19.2 27.4 19.35 24.75 19.4 24.3" fill="#eade51" fill-rule="evenodd" stroke="none"/>
    <path d="M16.35 25.95 Q16.5 23.5 16.8 21.2 L19.0 24.25 Q18.8 26.1 18.75 28.05 L18.65 28.05 18.75 28.25 18.75 29.35 17.2 27.2 16.35 25.95 M17.25 18.5 Q17.65 16.1 18.3 13.95 L18.45 13.35 18.75 12.35 19.9 14.5 20.45 15.7 20.4 16.0 Q19.65 18.65 19.25 21.7 L17.25 18.5 M33.1 26.95 L33.2 28.3 33.25 28.55 33.35 30.95 33.2 34.65 33.1 35.75 33.1 36.0 Q32.0 32.85 30.0 29.8 27.65 26.25 24.9 24.1 23.0 22.55 21.3 22.05 L21.4 21.5 21.4 21.4 21.45 21.15 22.45 16.65 22.5 16.4 22.6 16.05 Q27.6 17.75 31.9 24.8 L33.1 26.95 M21.1 23.65 Q26.15 26.75 29.85 33.6 L32.65 39.45 32.5 40.1 32.5 40.15 32.5 40.3 32.05 42.5 32.05 42.55 31.95 42.9 31.85 43.25 31.8 43.5 31.65 42.95 Q31.15 41.6 30.45 40.75 L30.65 40.3 Q30.65 39.7 26.45 32.45 25.6 30.85 22.6 28.55 L20.7 27.2 20.8 25.95 21.0 24.2 21.05 23.95 21.05 23.85 21.1 23.65" fill="#fcfbcd" fill-rule="evenodd" stroke="none"/>
    <path d="M27.15 7.1 L27.15 7.2 27.45 7.1 28.2 7.3 28.35 7.55 Q24.85 7.75 22.6 15.95 L21.55 15.8 20.9 15.85 21.5 13.9 Q23.85 7.15 27.15 7.1 M21.45 21.15 L21.4 21.4 21.35 21.3 21.45 21.15 M21.3 22.1 L21.1 23.65 21.05 23.85 20.75 23.8 Q20.2 23.8 19.4 24.3 L19.6 22.4 20.6 22.2 21.3 22.1 M19.2 27.75 L20.65 27.45 20.45 31.65 20.45 31.75 Q20.65 36.8 22.15 41.5 24.45 48.95 28.9 48.95 29.7 48.95 30.3 48.15 L30.55 47.75 29.25 50.65 28.8 51.4 28.6 51.8 26.85 53.85 Q23.75 53.5 21.5 47.1 19.1 40.2 19.15 30.5 L19.2 27.75" fill="#e6d831" fill-rule="evenodd" stroke="none"/>
    <path d="M27.5 2.55 L27.9 2.6 29.0 3.05 Q31.9 4.65 34.15 10.55 37.35 18.9 37.35 30.75 37.35 34.65 37.0 38.2 L35.35 35.9 35.55 30.5 Q35.55 20.7 33.2 13.75 L33.15 13.55 Q32.2 10.8 31.1 9.15 30.25 7.1 29.2 5.3 L27.5 2.55 M36.1 44.1 L35.5 46.85 33.95 44.7 34.55 42.05 36.1 44.1 M34.4 50.3 L34.15 51.0 Q31.1 59.0 26.8 59.1 L26.7 59.1 26.65 59.1 24.35 58.4 24.35 58.35 23.95 58.1 23.3 57.55 Q26.05 56.45 27.9 54.5 L28.65 54.2 Q30.95 53.1 32.7 48.6 L33.6 49.55 34.4 50.3 M28.35 7.55 L28.2 7.3 Q29.3 7.7 30.35 8.95 31.65 10.65 32.8 13.9 35.15 20.75 35.15 30.5 L35.1 33.7 33.3 27.35 33.2 28.3 33.1 26.95 32.45 18.75 Q31.6 13.95 29.65 9.9 L28.35 7.55 M33.1 36.0 L33.1 35.75 34.25 41.4 33.75 43.75 33.2 42.05 32.5 40.1 32.65 39.45 33.1 36.0 M33.15 47.4 L33.45 46.45 33.45 46.4 33.55 46.55 33.45 46.45 33.3 47.05 33.9 48.05 34.0 48.15 33.15 47.4 M33.05 20.5 L33.15 21.2 33.1 20.5 33.05 20.5 M33.3 22.15 L33.3 22.4 33.35 22.4 33.3 22.15 M32.65 47.45 Q30.4 53.7 27.25 53.85 L27.15 53.85 26.85 53.85 28.6 51.8 28.8 51.4 29.25 50.65 30.55 47.75 31.55 44.6 31.75 43.7 32.65 47.45 M35.75 40.85 L35.35 40.45 35.45 40.5 35.75 40.85" fill="#f7f388" fill-rule="evenodd" stroke="none"/>
    <path d="M35.35 35.9 L37.0 38.2 36.1 44.1 34.55 42.05 35.35 35.9 M35.5 46.85 L35.2 47.95 34.4 50.3 33.6 49.55 32.7 48.6 33.15 47.45 33.15 47.4 34.0 48.15 33.9 48.05 33.3 47.05 33.45 46.45 33.55 46.55 33.45 46.4 33.95 44.7 35.5 46.85 M33.2 28.3 L33.3 27.35 35.1 33.7 35.1 33.75 35.05 34.25 34.25 41.4 33.1 35.75 33.2 34.65 33.35 30.95 33.25 28.55 33.2 28.3 M31.8 43.5 L31.85 43.25 31.95 42.9 32.05 42.55 32.05 42.5 32.5 40.3 32.5 40.15 32.5 40.1 33.2 42.05 33.75 43.75 33.7 44.0 33.1 46.1 33.1 46.15 32.95 46.6 32.9 46.7 32.8 47.1 32.65 47.45 31.75 43.7 31.8 43.5 M35.75 40.85 L35.45 40.5 35.35 40.45 35.75 40.85" fill="#ffffff" fill-rule="evenodd" stroke="none"/>
  </g>
</svg>
