<?xml version="1.0" encoding="UTF-8" standalone="no"?>
<svg xmlns:ffdec="https://www.free-decompiler.com/flash" xmlns:xlink="http://www.w3.org/1999/xlink" ffdec:objectType="shape" height="61.5px" width="49.0px" xmlns="http://www.w3.org/2000/svg">
  <g transform="matrix(1.0, 0.0, 0.0, 1.0, 0.0, 0.0)">
    <path d="M7.7 10.5 L8.5 9.4 14.6 9.4 Q13.75 10.7 13.05 12.15 L6.75 12.15 7.7 10.55 7.7 10.5 M5.65 9.25 L5.65 9.2 Q0.0 18.15 0.0 30.75 0.0 43.35 5.65 52.3 11.05 60.7 18.4 61.45 L19.6 61.5 28.65 61.5 28.8 61.5 28.85 61.5 29.0 61.5 Q37.45 61.6 43.3 52.3 49.0 43.35 49.0 30.75 49.0 18.15 43.3 9.2 37.6 0.25 29.6 0.05 L29.55 0.05 29.0 0.0 27.55 0.1 22.1 0.2 19.95 0.0 17.85 0.2 17.8 0.2 17.6 0.2 16.75 0.4 16.8 0.4 Q10.4 1.75 5.65 9.25 M4.9 16.15 L6.4 12.85 12.7 12.85 Q11.95 14.45 11.35 16.15 L4.9 16.15 M3.55 20.5 L4.65 16.85 11.1 16.85 10.1 20.5 3.55 20.5 M3.8 41.9 L2.9 37.55 9.5 37.55 10.3 41.9 3.8 41.9 M5.65 47.1 Q4.65 44.9 4.0 42.6 L10.45 42.6 12.0 47.1 5.65 47.1 M2.4 30.95 L2.4 30.75 Q2.4 28.35 2.65 26.05 L9.25 26.05 9.05 30.75 9.05 30.95 2.4 30.95 M2.8 36.85 L2.4 31.65 9.05 31.65 9.35 36.85 2.8 36.85 M2.7 25.4 L3.4 21.2 9.95 21.2 Q9.55 23.25 9.3 25.4 L2.7 25.4 M16.45 6.8 L15.05 8.7 9.0 8.7 10.6 6.8 16.45 6.8 M14.45 3.85 L16.55 2.95 20.25 2.95 19.2 3.85 14.45 3.85 M11.3 6.1 L13.25 4.55 18.45 4.55 17.0 6.1 11.3 6.1 M15.7 12.35 L16.75 10.55 Q20.35 4.9 24.9 3.15 25.9 2.8 26.95 2.6 L29.6 2.5 30.15 2.55 30.8 2.6 32.7 3.05 Q37.55 4.65 41.25 10.55 46.6 18.9 46.55 30.75 46.55 34.65 46.0 38.2 45.5 41.3 44.5 44.1 L43.45 46.85 42.95 47.95 41.7 50.3 41.25 51.0 Q36.2 59.0 29.0 59.1 L28.85 59.1 28.75 59.1 25.0 58.4 24.9 58.35 24.3 58.1 23.2 57.55 22.9 57.35 22.8 57.25 22.6 57.15 Q19.4 55.1 16.75 51.0 11.45 42.6 11.45 30.75 11.45 28.25 11.7 25.95 11.95 23.5 12.45 21.2 L13.15 18.5 Q13.85 16.1 14.9 13.95 L15.2 13.35 15.7 12.35 M36.2 9.15 Q33.25 6.4 29.6 6.4 23.75 6.35 19.65 13.55 L18.5 15.7 18.35 16.0 Q17.2 18.65 16.5 21.7 L16.05 24.25 15.65 28.05 15.65 28.25 15.6 29.35 15.6 30.5 Q15.6 40.4 19.65 47.45 23.75 54.6 29.6 54.55 L30.85 54.5 32.1 54.2 Q35.9 53.1 38.85 48.6 L39.55 47.45 39.55 47.4 40.1 46.45 40.1 46.4 40.9 44.7 41.95 42.05 Q42.85 39.15 43.25 35.9 43.6 33.3 43.6 30.5 43.6 20.7 39.7 13.75 L39.55 13.55 Q38.0 10.8 36.2 9.15 M17.05 22.4 Q17.8 18.9 19.2 15.85 L20.25 13.9 Q24.15 7.15 29.6 7.1 L30.15 7.1 31.35 7.3 Q33.25 7.7 34.9 8.95 37.1 10.65 38.95 13.9 42.9 20.75 42.9 30.5 L42.8 33.7 42.8 33.75 42.75 34.25 41.4 41.4 40.55 43.75 40.45 44.0 39.5 46.1 39.45 46.15 39.25 46.6 39.2 46.7 38.95 47.1 38.75 47.45 Q35.0 53.7 29.8 53.85 L29.6 53.85 29.1 53.85 Q23.95 53.5 20.25 47.1 16.3 40.2 16.3 30.5 L16.35 27.75 16.4 27.4 16.65 24.75 16.7 24.3 17.05 22.4 M11.15 55.25 L16.85 55.25 18.65 57.15 13.55 57.15 11.15 55.25 M17.95 58.9 Q16.35 58.6 14.8 57.85 L19.4 57.85 20.75 58.9 17.95 58.9 M14.25 51.6 L14.7 52.3 16.3 54.55 10.45 54.55 8.1 51.6 14.25 51.6 M7.65 50.9 L5.95 47.8 12.3 47.8 13.85 50.9 7.65 50.9" fill="#996600" fill-rule="evenodd" stroke="none"/>
    <path d="M7.7 10.5 L7.7 10.55 6.75 12.15 13.05 12.15 Q13.75 10.7 14.6 9.4 L8.5 9.4 7.7 10.5 M4.9 16.15 L11.35 16.15 Q11.95 14.45 12.7 12.85 L6.4 12.85 4.9 16.15 M5.65 47.1 L12.0 47.1 10.45 42.6 4.0 42.6 Q4.65 44.9 5.65 47.1 M3.8 41.9 L10.3 41.9 9.5 37.55 2.9 37.55 3.8 41.9" fill="#d6c970" fill-rule="evenodd" stroke="none"/>
    <path d="M3.55 20.5 L10.1 20.5 11.1 16.85 4.65 16.85 3.55 20.5 M2.8 36.85 L9.35 36.85 9.05 31.65 2.4 31.65 2.8 36.85" fill="#f2efb3" fill-rule="evenodd" stroke="none"/>
    <path d="M2.4 30.95 L9.05 30.95 9.05 30.75 9.25 26.05 2.65 26.05 Q2.4 28.35 2.4 30.75 L2.4 30.95 M2.7 25.4 L9.3 25.4 Q9.55 23.25 9.95 21.2 L3.4 21.2 2.7 25.4" fill="#fbfcd1" fill-rule="evenodd" stroke="none"/>
    <path d="M11.3 6.1 L17.0 6.1 18.45 4.55 13.25 4.55 11.3 6.1 M14.45 3.85 L19.2 3.85 20.25 2.95 16.55 2.95 14.45 3.85 M16.45 6.8 L10.6 6.8 9.0 8.7 15.05 8.7 16.45 6.8 M14.25 51.6 L8.1 51.6 10.45 54.55 16.3 54.55 14.7 52.3 14.25 51.6 M17.95 58.9 L20.75 58.9 19.4 57.85 14.8 57.85 Q16.35 58.6 17.95 58.9 M11.15 55.25 L13.55 57.15 18.65 57.15 16.85 55.25 11.15 55.25 M7.65 50.9 L13.85 50.9 12.3 47.8 5.95 47.8 7.65 50.9" fill="#c7b63f" fill-rule="evenodd" stroke="none"/>
    <path d="M30.15 2.55 L29.6 2.5 26.95 2.6 Q25.9 2.8 24.9 3.15 20.35 4.9 16.75 10.55 L15.7 12.35 17.55 14.5 18.5 15.7 19.65 13.55 Q23.75 6.35 29.6 6.4 33.25 6.4 36.2 9.15 L33.0 5.3 30.15 2.55 M13.15 18.5 L12.45 21.2 16.05 24.25 16.5 21.7 13.15 18.5 M11.7 25.95 Q11.45 28.25 11.45 30.75 11.45 42.6 16.75 51.0 19.4 55.1 22.6 57.15 L22.8 57.25 22.9 57.35 23.2 57.55 Q27.8 56.45 30.85 54.5 L29.6 54.55 Q23.75 54.6 19.65 47.45 15.6 40.4 15.6 30.5 L15.6 29.35 13.05 27.2 11.7 25.95 M21.85 16.4 L21.75 16.65 21.8 16.65 21.85 16.4 M22.05 15.95 L22.05 16.05 Q30.35 17.75 37.5 24.8 L39.5 26.95 38.4 18.75 Q37.05 13.95 33.75 9.9 L31.6 7.55 Q25.8 7.75 22.05 15.95 M29.6 7.1 L29.65 7.2 30.15 7.1 29.6 7.1 M19.9 22.05 L19.5 23.65 Q27.95 26.75 34.1 33.6 L38.7 39.45 39.45 36.0 Q37.7 32.85 34.3 29.8 30.5 26.25 25.9 24.1 22.75 22.55 19.9 22.05 M18.85 27.2 L18.8 27.45 Q18.55 29.65 18.45 31.95 L18.45 31.65 Q18.8 36.7 21.25 41.5 25.15 48.95 32.5 48.95 33.9 48.95 34.8 48.15 35.05 47.9 35.25 47.75 L36.9 44.6 37.25 43.7 37.35 43.5 37.05 42.95 Q36.3 41.6 35.1 40.75 L35.45 40.3 Q35.45 39.7 28.4 32.45 27.05 30.85 22.0 28.55 L18.85 27.2 M39.8 22.15 L39.8 22.4 39.9 22.4 39.8 22.15 M39.45 20.5 L39.55 21.2 39.6 21.2 39.45 20.5 M15.65 28.25 L15.65 28.05 15.45 28.05 15.65 28.25" fill="#f4f05b" fill-rule="evenodd" stroke="none"/>
    <path d="M21.75 16.65 L21.85 16.4 21.9 16.4 22.05 16.05 22.05 15.95 20.3 15.8 19.2 15.85 Q17.8 18.9 17.05 22.4 L17.1 22.4 18.75 22.2 19.9 22.1 19.9 22.05 20.05 21.5 20.05 21.4 19.95 21.3 20.15 21.15 21.75 16.65 M19.45 23.85 L18.95 23.8 Q18.05 23.8 16.7 24.3 L16.65 24.75 16.4 27.4 16.35 27.75 18.8 27.45 18.85 27.2 19.05 25.95 19.4 24.2 19.45 23.95 19.45 23.85" fill="#eade51" fill-rule="evenodd" stroke="none"/>
    <path d="M15.7 12.35 L15.2 13.35 14.9 13.95 Q13.85 16.1 13.15 18.5 L16.5 21.7 Q17.2 18.65 18.35 16.0 L18.5 15.7 17.55 14.5 15.7 12.35 M12.45 21.2 Q11.95 23.5 11.7 25.95 L13.05 27.2 15.6 29.35 15.65 28.25 15.45 28.05 15.65 28.05 16.05 24.25 12.45 21.2 M21.85 16.4 L21.8 16.65 21.75 16.65 20.15 21.15 20.05 21.4 20.05 21.5 19.9 22.05 Q22.75 22.55 25.9 24.1 30.5 26.25 34.3 29.8 37.7 32.85 39.45 36.0 L39.5 35.75 39.65 34.65 39.9 30.95 39.7 28.55 39.65 28.3 39.5 26.95 37.5 24.8 Q30.35 17.75 22.05 16.05 L21.9 16.4 21.85 16.4 M19.5 23.65 L19.45 23.85 19.45 23.95 19.4 24.2 19.05 25.95 18.85 27.2 22.0 28.55 Q27.05 30.85 28.4 32.45 35.45 39.7 35.45 40.3 L35.1 40.75 Q36.3 41.6 37.05 42.95 L37.35 43.5 37.45 43.25 37.6 42.9 37.75 42.55 37.75 42.5 38.45 40.3 38.5 40.15 38.55 40.1 38.7 39.45 34.1 33.6 Q27.95 26.75 19.5 23.65" fill="#fcfbcd" fill-rule="evenodd" stroke="none"/>
    <path d="M20.15 21.15 L19.95 21.3 20.05 21.4 20.15 21.15 M19.9 22.05 L19.9 22.1 18.75 22.2 17.1 22.4 17.05 22.4 16.7 24.3 Q18.05 23.8 18.95 23.8 L19.45 23.85 19.5 23.65 19.9 22.05 M19.2 15.85 L20.3 15.8 22.05 15.95 Q25.8 7.75 31.6 7.55 L31.35 7.3 30.15 7.1 29.65 7.2 29.6 7.1 Q24.15 7.15 20.25 13.9 L19.2 15.85 M18.8 27.45 L16.35 27.75 16.3 30.5 Q16.3 40.2 20.25 47.1 23.95 53.5 29.1 53.85 30.65 53.05 32.0 51.8 L32.4 51.4 33.1 50.65 35.25 47.75 Q35.05 47.9 34.8 48.15 33.9 48.95 32.5 48.95 25.15 48.95 21.25 41.5 18.8 36.7 18.45 31.65 L18.45 31.95 Q18.55 29.65 18.8 27.45" fill="#e6d831" fill-rule="evenodd" stroke="none"/>
    <path d="M23.2 57.55 L24.3 58.1 24.9 58.35 25.0 58.4 28.75 59.1 28.85 59.1 29.0 59.1 Q36.2 59.0 41.25 51.0 L41.7 50.3 40.3 49.55 38.85 48.6 Q35.9 53.1 32.1 54.2 L30.85 54.5 Q27.8 56.45 23.2 57.55 M43.45 46.85 L44.5 44.1 41.95 42.05 40.9 44.7 Q42.55 45.9 43.45 46.85 M46.0 38.2 Q46.55 34.65 46.55 30.75 46.6 18.9 41.25 10.55 37.55 4.65 32.7 3.05 L30.8 2.6 30.15 2.55 33.0 5.3 36.2 9.15 Q38.0 10.8 39.55 13.55 L39.7 13.75 Q43.6 20.7 43.6 30.5 43.6 33.3 43.25 35.9 L46.0 38.2 M31.35 7.3 L31.6 7.55 33.75 9.9 Q37.05 13.95 38.4 18.75 L39.5 26.95 39.65 28.3 39.8 27.35 42.8 33.7 42.9 30.5 Q42.9 20.75 38.95 13.9 37.1 10.65 34.9 8.95 33.25 7.7 31.35 7.3 M39.45 36.0 L38.7 39.45 38.55 40.1 39.65 42.05 40.55 43.75 41.4 41.4 39.5 35.75 39.45 36.0 M39.45 20.5 L39.6 21.2 39.55 21.2 39.45 20.5 M39.8 22.15 L39.9 22.4 39.8 22.4 39.8 22.15 M43.9 40.85 Q43.55 40.5 43.4 40.5 L43.25 40.45 43.9 40.85 M40.1 46.45 L39.55 47.4 41.0 48.15 40.85 48.05 39.8 47.05 40.1 46.45 40.25 46.55 40.1 46.4 40.1 46.45 M38.75 47.45 L37.25 43.7 36.9 44.6 35.25 47.75 33.1 50.65 32.4 51.4 32.0 51.8 Q30.65 53.05 29.1 53.85 L29.6 53.85 29.8 53.85 Q35.0 53.7 38.75 47.45" fill="#f7f388" fill-rule="evenodd" stroke="none"/>
    <path d="M41.7 50.3 L42.95 47.95 43.45 46.85 Q42.55 45.9 40.9 44.7 L40.1 46.4 40.25 46.55 40.1 46.45 39.8 47.05 40.85 48.05 41.0 48.15 39.55 47.4 39.55 47.45 38.85 48.6 40.3 49.55 41.7 50.3 M44.5 44.1 Q45.5 41.3 46.0 38.2 L43.25 35.9 Q42.85 39.15 41.95 42.05 L44.5 44.1 M42.8 33.7 L39.8 27.35 39.65 28.3 39.7 28.55 39.9 30.95 39.65 34.65 39.5 35.75 41.4 41.4 42.75 34.25 42.8 33.75 42.8 33.7 M43.9 40.85 L43.25 40.45 43.4 40.5 Q43.55 40.5 43.9 40.85 M38.75 47.45 L38.95 47.1 39.2 46.7 39.25 46.6 39.45 46.15 39.5 46.1 40.45 44.0 40.55 43.75 39.65 42.05 38.55 40.1 38.5 40.15 38.45 40.3 37.75 42.5 37.75 42.55 37.6 42.9 37.45 43.25 37.35 43.5 37.25 43.7 38.75 47.45" fill="#ffffff" fill-rule="evenodd" stroke="none"/>
  </g>
</svg>
