<?xml version="1.0" encoding="UTF-8" standalone="no"?>
<svg xmlns:ffdec="https://www.free-decompiler.com/flash" xmlns:xlink="http://www.w3.org/1999/xlink" ffdec:objectType="shape" height="61.35px" width="57.4px" xmlns="http://www.w3.org/2000/svg">
  <g transform="matrix(1.0, 0.0, 0.0, 1.0, 4.3, -0.25)">
    <path d="M49.55 32.8 L49.55 32.7 Q49.75 30.0 49.5 27.45 L49.5 27.2 Q48.65 19.4 43.9 12.75 38.8 5.6 30.95 3.4 28.8 2.75 26.5 2.55 L22.05 2.95 Q12.2 4.25 6.1 12.35 L2.5 18.5 1.7 20.55 1.5 21.2 1.0 23.1 1.05 22.35 0.05 28.6 0.0 28.85 -0.2 31.15 0.0 30.7 -0.2 31.95 -0.45 33.4 -0.1 35.1 0.45 37.65 0.15 37.05 0.0 36.15 0.15 36.95 0.15 37.05 Q-0.4 35.9 0.5 38.55 L1.6 42.1 1.65 42.1 2.4 43.75 3.85 46.25 3.95 46.35 2.5 43.7 Q8.2 52.5 16.7 57.55 20.4 59.1 24.5 59.1 35.6 59.05 42.75 50.3 L45.25 46.85 46.6 44.35 46.7 44.1 46.75 44.05 Q47.8 41.8 48.5 39.35 L48.8 38.2 49.55 32.8 M45.25 27.05 L45.2 27.05 45.25 27.45 45.4 30.5 45.35 32.6 45.35 32.65 44.95 35.9 44.2 39.05 44.2 39.1 43.1 42.05 42.5 43.2 42.45 43.3 42.4 43.4 41.65 44.7 40.5 46.4 40.45 46.45 39.75 47.4 39.7 47.45 38.75 48.6 Q34.55 53.1 29.25 54.2 L27.45 54.5 25.7 54.55 Q17.45 54.6 11.65 47.45 L9.6 44.5 9.35 44.1 9.3 44.0 7.75 40.75 7.65 40.55 6.65 37.15 6.65 37.1 Q5.95 33.95 5.95 30.5 L6.0 29.35 6.0 28.3 6.0 28.25 6.05 28.05 Q6.2 26.1 6.6 24.25 6.85 22.95 7.25 21.7 8.2 18.65 9.85 16.0 L10.05 15.7 11.65 13.55 Q17.45 6.35 25.7 6.4 L30.15 6.95 Q32.7 7.65 35.0 9.15 37.5 10.8 39.7 13.55 L39.9 13.75 Q44.4 19.45 45.25 27.05 M44.35 32.9 L44.35 32.85 44.4 32.55 44.45 30.5 44.3 27.4 44.3 27.15 Q43.45 19.55 38.9 13.9 36.25 10.65 33.15 8.95 30.75 7.7 28.15 7.3 L26.45 7.1 25.7 7.1 Q17.95 7.15 12.5 13.9 L11.05 15.85 Q9.05 18.9 8.05 22.4 L7.55 24.3 7.45 24.75 7.1 27.0 7.05 27.4 7.05 27.75 6.95 30.5 Q6.9 33.95 7.65 37.1 L7.75 37.5 8.2 39.2 8.4 39.7 Q9.1 41.75 10.15 43.65 L10.2 43.75 10.3 43.85 10.35 44.0 12.5 47.1 Q17.7 53.5 24.95 53.85 L25.7 53.85 25.95 53.85 29.3 53.45 Q34.55 52.25 38.6 47.45 L38.9 47.1 39.2 46.7 39.3 46.6 39.6 46.15 39.65 46.1 41.0 44.0 41.15 43.75 41.75 42.65 42.35 41.4 43.05 38.6 44.2 34.25 44.3 33.75 44.3 33.7 44.35 32.9 M-2.5 24.35 Q-0.7 18.2 0.25 16.4 5.05 6.95 14.0 2.75 23.5 -1.75 33.6 1.85 43.1 5.15 48.45 14.0 53.95 23.25 52.95 33.9 52.0 44.4 45.05 52.35 38.15 60.3 27.8 61.45 16.45 62.6 7.8 55.1 -0.8 47.8 -2.85 36.85 L-2.9 36.7 -3.3 31.95 -3.35 30.6 -2.5 24.35 M-3.4 27.3 L-3.35 27.2 -3.4 28.25 -3.4 27.3 M-3.3 27.05 L-3.3 27.0 -3.3 27.45 -3.3 27.05" fill="#996600" fill-rule="evenodd" stroke="none"/>
    <path d="M49.5 27.2 L49.5 27.45 Q49.75 30.0 49.55 32.7 L49.55 32.8 45.35 32.65 45.35 32.6 45.4 30.5 45.25 27.45 45.2 27.05 45.25 27.05 49.5 27.2 M48.5 39.35 Q47.8 41.8 46.75 44.05 L46.7 44.1 46.6 44.35 45.75 44.15 43.4 43.7 42.4 43.4 42.45 43.3 42.5 43.2 43.1 42.05 44.2 39.1 44.2 39.05 48.5 39.3 48.5 39.35 M44.3 27.15 L44.3 27.4 44.45 30.5 44.4 32.55 44.35 32.85 44.35 32.9 44.3 32.95 40.15 30.35 40.1 29.7 40.05 29.25 39.95 28.55 39.85 28.3 39.65 26.95 39.35 25.2 39.3 25.0 39.35 25.0 Q42.25 25.25 44.3 27.15 M43.05 38.6 L42.35 41.4 41.75 42.65 41.4 43.25 41.05 42.85 40.35 41.9 39.8 41.6 39.6 41.45 39.55 41.4 Q38.8 40.9 38.0 40.75 L38.2 40.3 38.25 40.15 38.3 40.15 38.3 40.1 38.35 39.95 38.55 39.45 39.35 37.05 39.4 36.75 39.4 36.7 40.2 36.7 40.35 36.85 40.4 36.9 Q41.7 37.45 42.85 38.4 L43.05 38.6 M41.35 30.8 Q41.65 31.2 42.15 31.35 L41.7 31.1 41.4 30.85 41.35 30.8 M40.55 30.3 L40.85 30.5 41.0 30.55 40.6 30.3 40.55 30.3 M42.6 31.45 L42.2 31.1 42.4 31.3 42.4 31.4 42.45 31.4 42.6 31.45" fill="#ffffff" fill-rule="evenodd" stroke="none"/>
    <path d="M16.7 57.55 Q8.2 52.5 2.5 43.7 6.45 45.3 9.1 44.6 L9.6 44.5 11.65 47.45 Q17.45 54.6 25.7 54.55 L25.95 55.15 Q22.05 56.65 16.7 57.55 M0.45 37.65 L-0.1 35.1 -0.45 33.4 -0.2 31.95 -0.2 32.15 Q3.75 37.1 6.65 37.15 L7.65 40.55 7.0 40.45 Q6.85 40.45 6.85 40.55 L6.0 40.55 Q5.15 40.5 2.55 38.7 L1.0 37.55 0.45 37.65 M1.7 20.55 L2.5 18.5 6.1 12.35 Q12.2 4.25 22.05 2.95 L26.5 2.55 Q28.8 2.75 30.95 3.4 L30.5 5.3 30.15 6.95 25.7 6.4 Q17.45 6.35 11.65 13.55 L10.05 15.7 9.85 16.0 Q8.2 18.65 7.25 21.7 6.85 22.95 6.6 24.25 6.2 26.1 6.05 28.05 L6.0 28.25 6.0 28.2 Q3.85 28.1 2.8 27.0 1.65 25.9 1.75 22.0 L1.7 20.55 M29.3 53.45 L25.95 53.85 25.7 53.85 24.95 53.85 Q27.15 53.05 29.05 51.8 L29.3 53.45 M10.35 44.0 L10.3 43.85 10.2 43.75 10.15 43.65 Q9.1 41.75 8.4 39.7 L8.2 39.2 8.25 39.15 Q8.35 39.0 8.55 38.95 9.75 37.65 11.3 36.85 10.7 35.5 10.4 34.15 L9.9 34.3 9.55 34.4 7.75 37.5 7.65 37.1 Q6.9 33.95 6.95 30.5 L7.05 27.75 7.05 27.4 7.1 27.0 7.2 26.45 8.2 25.7 8.65 25.3 10.0 25.0 10.15 24.95 11.0 25.05 10.85 25.25 10.8 25.35 11.0 25.35 10.8 25.95 10.55 27.2 10.5 27.45 Q10.05 29.65 9.95 31.95 L10.0 31.65 10.25 33.45 11.2 33.4 Q15.05 30.25 22.2 28.65 29.25 27.05 40.15 30.4 L40.2 30.95 39.85 34.65 39.65 35.75 39.5 35.9 39.6 36.0 39.45 36.55 34.85 35.7 Q27.5 34.6 20.0 35.3 L17.85 35.75 Q14.6 36.25 11.55 37.2 L11.45 37.2 11.45 37.3 11.55 37.5 11.65 37.65 13.1 40.3 13.25 40.55 13.4 40.75 13.4 40.8 13.55 40.95 12.6 41.6 12.4 41.7 Q11.95 41.65 11.5 42.15 L11.15 42.9 11.05 42.95 10.9 43.05 10.9 43.15 10.8 43.35 10.75 43.4 10.5 43.55 10.35 43.95 10.35 44.0 M28.15 7.3 Q30.75 7.7 33.15 8.95 L31.85 10.2 Q36.25 14.15 38.1 18.75 L38.65 21.45 38.9 22.65 39.25 24.55 39.3 24.9 38.5 24.7 Q24.25 21.4 11.5 24.6 L11.4 24.65 11.3 24.2 11.35 23.95 11.5 23.65 12.0 22.1 12.05 22.05 12.2 21.5 12.25 21.4 12.35 21.15 Q13.3 18.85 14.65 16.65 L14.8 16.4 15.05 16.05 15.05 15.95 Q19.4 9.15 25.8 7.85 L28.5 7.55 28.15 7.3 M42.6 31.45 L42.45 31.4 42.4 31.4 42.4 31.3 42.2 31.1 42.6 31.45 M40.55 30.3 L40.6 30.3 41.0 30.55 40.85 30.5 40.55 30.3 M41.35 30.8 L41.4 30.85 41.7 31.1 42.15 31.35 Q41.65 31.2 41.35 30.8 M13.7 41.15 L15.6 40.35 16.0 40.25 16.1 40.2 16.1 40.15 16.15 40.05 31.55 39.55 Q34.85 39.9 38.0 40.75 L37.15 42.5 37.15 42.55 36.95 42.9 36.75 43.25 36.6 43.5 36.5 43.7 35.95 44.6 33.65 47.75 33.05 48.15 Q31.7 48.95 29.75 48.95 19.4 48.95 13.95 41.5 L13.7 41.15 M11.1 33.45 L10.25 33.55 10.35 33.85 10.4 34.1 11.1 33.45" fill="#f7f388" fill-rule="evenodd" stroke="none"/>
    <path d="M24.95 53.85 Q17.7 53.5 12.5 47.1 L10.35 44.0 10.35 43.95 10.5 43.55 10.75 43.4 10.8 43.35 10.9 43.15 10.9 43.05 11.05 42.95 11.15 42.9 11.5 42.15 Q11.95 41.65 12.4 41.7 L12.6 41.6 13.55 40.95 13.7 41.15 13.95 41.5 Q19.4 48.95 29.75 48.95 31.7 48.95 33.05 48.15 L33.65 47.75 31.05 50.3 30.65 50.65 29.6 51.4 29.05 51.8 Q27.15 53.05 24.95 53.85 M8.2 39.2 L7.75 37.5 9.55 34.4 9.9 34.3 10.4 34.15 Q10.7 35.5 11.3 36.85 9.75 37.65 8.55 38.95 8.35 39.0 8.25 39.15 L8.2 39.2 M7.1 27.0 L7.45 24.75 7.55 24.3 8.05 22.4 Q9.05 18.9 11.05 15.85 L12.5 13.9 Q17.95 7.15 25.7 7.1 L26.45 7.1 25.75 7.2 25.7 7.1 25.8 7.85 Q19.4 9.15 15.05 15.95 L15.05 16.05 14.8 16.4 14.65 16.65 Q13.3 18.85 12.35 21.15 L12.25 21.4 12.2 21.5 12.05 22.05 12.0 22.1 11.5 23.65 11.35 23.95 11.3 24.2 11.4 24.65 11.15 24.7 11.0 25.05 10.15 24.95 10.0 25.0 8.65 25.3 8.2 25.7 7.2 26.45 7.1 27.0 M39.95 28.55 L40.05 29.25 39.95 29.25 39.95 28.55 M27.45 54.5 L25.95 55.15 25.7 54.55 27.45 54.5 M30.5 5.3 L35.0 9.15 Q32.7 7.65 30.15 6.95 L30.5 5.3 M39.6 20.5 L39.8 21.2 39.7 21.2 39.55 20.5 39.6 20.5 M40.1 22.15 L40.2 22.4 40.05 22.4 40.1 22.15 M14.65 40.4 L14.4 40.5 13.5 40.7 13.75 40.6 14.2 40.4 14.25 40.4 14.65 40.4" fill="#f4f05b" fill-rule="evenodd" stroke="none"/>
    <path d="M26.45 7.1 L28.15 7.3 28.5 7.55 25.8 7.85 25.7 7.1 25.75 7.2 26.45 7.1" fill="#e6d831" fill-rule="evenodd" stroke="none"/>
    <path d="M15.05 15.95 L15.05 16.05 15.05 15.95" fill="#eade51" fill-rule="evenodd" stroke="none"/>
    <path d="M49.5 27.2 L45.25 27.05 Q44.4 19.45 39.9 13.75 L39.7 13.55 Q37.5 10.8 35.0 9.15 L30.5 5.3 30.95 3.4 Q38.8 5.6 43.9 12.75 48.65 19.4 49.5 27.2 M45.35 32.65 L49.55 32.8 48.8 38.2 48.5 39.35 48.5 39.3 44.2 39.05 44.95 35.9 45.35 32.65 M46.6 44.35 L45.25 46.85 42.75 50.3 Q35.6 59.05 24.5 59.1 20.4 59.1 16.7 57.55 22.05 56.65 25.95 55.15 L27.45 54.5 29.25 54.2 Q34.55 53.1 38.75 48.6 L39.7 47.45 39.75 47.4 40.45 46.45 40.5 46.4 41.65 44.7 42.4 43.4 43.4 43.7 45.75 44.15 46.6 44.35 M2.5 43.7 L3.95 46.35 3.85 46.25 2.4 43.75 1.65 42.1 1.6 42.1 0.5 38.55 Q-0.4 35.9 0.15 37.05 L0.15 36.95 0.0 36.15 0.15 37.05 0.45 37.65 1.0 37.55 2.55 38.7 Q5.15 40.5 6.0 40.55 L6.85 40.55 Q6.85 40.45 7.0 40.45 L7.65 40.55 7.75 40.75 9.3 44.0 9.35 44.1 9.6 44.5 9.1 44.6 Q6.45 45.3 2.5 43.7 M-0.2 31.95 L0.0 30.7 -0.2 31.15 0.0 28.85 0.05 28.6 1.05 22.35 1.0 23.1 1.5 21.2 1.7 20.55 1.75 22.0 Q1.65 25.9 2.8 27.0 3.85 28.1 6.0 28.2 L6.0 28.25 6.0 28.3 6.0 29.35 5.95 30.5 Q5.95 33.95 6.65 37.1 L6.65 37.15 Q3.75 37.1 -0.2 32.15 L-0.2 31.95 M44.35 32.9 L44.3 33.7 44.3 33.75 44.2 34.25 43.05 38.6 42.85 38.4 Q41.7 37.45 40.4 36.9 L40.35 36.85 40.2 36.7 39.4 36.7 39.4 36.75 39.35 37.05 38.55 39.45 38.35 39.95 38.3 40.1 38.3 40.15 38.25 40.15 38.2 40.3 38.0 40.75 Q38.8 40.9 39.55 41.4 L39.6 41.45 39.8 41.6 40.35 41.9 41.05 42.85 41.4 43.25 41.75 42.65 41.15 43.75 41.0 44.0 39.65 46.1 39.6 46.15 39.3 46.6 39.2 46.7 38.9 47.1 38.6 47.45 Q34.55 52.25 29.3 53.45 L29.05 51.8 29.6 51.4 30.65 50.65 31.05 50.3 33.65 47.75 35.95 44.6 36.5 43.7 36.6 43.5 36.75 43.25 36.95 42.9 37.15 42.55 37.15 42.5 38.0 40.75 Q34.85 39.9 31.55 39.55 L16.15 40.05 16.1 40.15 16.1 40.2 16.0 40.25 15.6 40.35 13.7 41.15 13.55 40.95 13.4 40.8 13.4 40.75 13.25 40.55 13.1 40.3 11.65 37.65 11.55 37.5 11.45 37.3 11.45 37.2 11.55 37.2 Q14.6 36.25 17.85 35.75 L20.0 35.3 Q27.5 34.6 34.85 35.7 L39.45 36.55 39.6 36.0 39.5 35.9 39.65 35.75 39.85 34.65 40.2 30.95 40.15 30.4 Q29.25 27.05 22.2 28.65 15.05 30.25 11.2 33.4 L10.25 33.45 10.0 31.65 9.95 31.95 Q10.05 29.65 10.5 27.45 L10.55 27.2 10.8 25.95 11.0 25.35 10.8 25.35 10.85 25.25 11.0 25.05 11.15 24.7 11.4 24.65 11.5 24.6 Q24.25 21.4 38.5 24.7 L39.3 24.9 39.25 24.55 38.9 22.65 38.65 21.45 38.1 18.75 Q36.25 14.15 31.85 10.2 L33.15 8.95 Q36.25 10.65 38.9 13.9 43.45 19.55 44.3 27.15 42.25 25.25 39.35 25.0 L39.3 25.0 39.35 25.2 39.65 26.95 39.85 28.3 39.95 28.55 39.95 29.25 40.05 29.25 40.1 29.7 40.15 30.35 44.3 32.95 44.35 32.9 M40.1 22.15 L40.05 22.4 40.2 22.4 40.1 22.15 M39.6 20.5 L39.55 20.5 39.7 21.2 39.8 21.2 39.6 20.5 M11.1 33.45 L10.4 34.1 10.35 33.85 10.25 33.55 11.1 33.45 M14.65 40.4 L14.25 40.4 14.2 40.4 13.75 40.6 13.5 40.7 14.4 40.5 14.65 40.4" fill="#fcfbcd" fill-rule="evenodd" stroke="none"/>
    <path d="M-3.3 31.95 L-2.9 36.7 -3.15 36.85 -3.25 36.75 -3.3 36.7 -3.3 31.95" fill="#f2efb3" fill-rule="evenodd" stroke="none"/>
    <path d="M-2.5 24.35 L-3.35 30.6 -3.4 28.25 -3.35 27.2 -3.4 27.3 -3.3 21.2 -1.75 19.7 -2.5 24.35 M-3.3 27.05 L-3.3 27.45 -3.3 27.0 -3.3 27.05 M-3.5 30.6 L-3.6 31.3 -4.3 35.8 -3.45 28.45 -3.5 30.6" fill="#fbfcd1" fill-rule="evenodd" stroke="none"/>
  </g>
</svg>
