<?xml version="1.0" encoding="UTF-8" standalone="no"?>
<svg xmlns:ffdec="https://www.free-decompiler.com/flash" xmlns:xlink="http://www.w3.org/1999/xlink" ffdec:objectType="shape" height="149.35px" width="215.35px" xmlns="http://www.w3.org/2000/svg">
  <g transform="matrix(1.0, 0.0, 0.0, 1.0, 215.35, 74.65)">
    <path d="M-8.8 12.45 L-7.05 13.25 -7.05 13.35 -49.25 23.7 Q-55.35 37.1 -68.65 48.05 -93.0 68.3 -127.45 68.3 -161.9 68.3 -186.25 48.05 -210.9 27.65 -210.85 -1.25 L-210.85 -1.95 -205.75 -1.6 -205.75 -1.25 Q-205.65 25.35 -182.95 44.1 -160.0 63.15 -127.45 63.15 -94.95 63.15 -71.9 44.1 -59.15 33.5 -53.5 20.4 L-52.9 19.25 -22.65 11.9 -23.2 11.65 -8.45 12.65 -8.8 12.45" fill="#cccccc" fill-rule="evenodd" stroke="none"/>
    <path d="M-210.85 -1.95 L-210.85 -1.25 Q-210.9 27.65 -186.25 48.05 -161.9 68.3 -127.45 68.3 -93.0 68.3 -68.65 48.05 -55.35 37.1 -49.25 23.7 L-7.05 13.35 -7.05 13.25 -8.8 12.45 -44.05 -3.4 Q-44.9 -31.05 -68.65 -50.65 -93.0 -70.8 -127.45 -70.8 -161.9 -70.8 -186.25 -50.65 -210.6 -30.45 -210.85 -1.95 M-215.35 -0.75 Q-215.1 -31.35 -189.2 -53.05 -163.3 -74.65 -126.7 -74.65 -90.05 -74.65 -64.15 -53.05 -38.95 -31.95 -39.3 -6.05 L0.0 14.95 -43.55 26.85 Q-50.05 41.2 -64.15 53.0 -90.05 74.7 -126.7 74.7 -163.3 74.7 -189.2 53.0 -215.4 31.05 -215.35 0.0 L-215.35 -0.75" fill="#000000" fill-opacity="0.49803922" fill-rule="evenodd" stroke="none"/>
    <path d="M-23.2 11.65 L-22.65 11.9 -52.9 19.25 -53.5 20.4 Q-59.15 33.5 -71.9 44.1 -94.95 63.15 -127.45 63.15 -160.0 63.15 -182.95 44.1 -205.65 25.35 -205.75 -1.25 L-205.75 -1.6 Q-205.55 -27.95 -182.95 -46.7 -160.0 -65.65 -127.45 -65.65 -94.95 -65.65 -71.9 -46.7 -49.45 -28.0 -49.2 -1.65 L-49.15 0.0 -23.2 11.65 M-174.5 -42.85 Q-194.2 -26.9 -194.2 -4.45 -194.2 -1.6 -193.85 1.15 -191.7 20.05 -174.5 33.85 -154.75 49.75 -126.8 49.75 -98.9 49.75 -79.2 33.85 -67.95 24.8 -63.05 13.55 -59.45 5.15 -59.45 -4.45 -59.45 -26.9 -79.2 -42.85 -98.9 -58.7 -126.8 -58.7 -154.75 -58.7 -174.5 -42.85" fill="#f7f7f7" fill-rule="evenodd" stroke="none"/>
    <path d="M-8.8 12.45 L-8.45 12.65 -23.2 11.65 -49.15 0.0 -49.2 -1.65 Q-49.45 -28.0 -71.9 -46.7 -94.95 -65.65 -127.45 -65.65 -160.0 -65.65 -182.95 -46.7 -205.55 -27.95 -205.75 -1.6 L-210.85 -1.95 Q-210.6 -30.45 -186.25 -50.65 -161.9 -70.8 -127.45 -70.8 -93.0 -70.8 -68.65 -50.65 -44.9 -31.05 -44.05 -3.4 L-8.8 12.45" fill="#dadada" fill-rule="evenodd" stroke="none"/>
    <path d="M-174.5 -42.85 Q-154.75 -58.7 -126.8 -58.7 -98.9 -58.7 -79.2 -42.85 -59.45 -26.9 -59.45 -4.45 -59.45 5.15 -63.05 13.55 -67.95 24.8 -79.2 33.85 -98.9 49.75 -126.8 49.75 -154.75 49.75 -174.5 33.85 -191.7 20.05 -193.85 1.15 -194.2 -1.6 -194.2 -4.45 -194.2 -26.9 -174.5 -42.85" fill="#ffffff" fill-rule="evenodd" stroke="none"/>
  </g>
</svg>
