<?xml version="1.0" encoding="UTF-8" standalone="no"?>
<svg xmlns:ffdec="https://www.free-decompiler.com/flash" xmlns:xlink="http://www.w3.org/1999/xlink" ffdec:objectType="shape" height="109.75px" width="63.0px" xmlns="http://www.w3.org/2000/svg">
  <g transform="matrix(1.0, 0.0, 0.0, 1.0, 0.0, 109.75)">
    <path d="M31.05 -106.5 L32.0 -109.75 49.6 -109.75 49.6 -94.05 59.2 -94.05 Q63.85 -94.05 62.8 -89.75 L62.8 -80.6 62.3 -78.8 Q63.35 -75.4 62.2 -68.5 L61.8 -66.35 62.2 -66.05 62.65 -65.0 Q62.65 -64.4 62.2 -63.95 61.8 -63.5 61.15 -63.5 L60.45 -60.55 Q59.7 -57.7 58.3 -51.2 56.35 -41.1 56.7 -33.85 L57.5 -27.85 Q57.65 -27.25 57.3 -26.7 57.0 -26.2 56.4 -26.05 L55.25 -26.2 54.8 -26.65 53.9 -26.05 52.75 -26.2 Q52.25 -26.55 52.1 -27.15 L51.45 -31.45 51.05 -34.55 Q46.8 -18.25 47.3 -7.85 L48.1 -1.85 Q48.25 -1.25 47.9 -0.7 47.6 -0.2 47.0 -0.05 L45.85 -0.2 45.4 -0.65 44.5 -0.05 43.35 -0.2 Q42.85 -0.55 42.7 -1.15 L42.15 -4.8 41.8 -7.6 41.8 -7.65 Q41.25 -18.4 45.65 -35.3 L46.15 -37.6 45.7 -37.95 Q45.25 -38.4 45.25 -39.0 45.25 -39.6 45.7 -40.05 46.1 -40.45 46.6 -40.5 L46.7 -42.5 Q46.7 -49.85 40.9 -52.6 L40.55 -52.85 21.8 -52.85 22.1 -51.2 Q24.05 -41.0 23.65 -33.65 L23.65 -33.6 23.3 -30.8 22.75 -27.15 Q22.6 -26.55 22.1 -26.2 L20.95 -26.05 20.05 -26.65 19.6 -26.2 18.45 -26.05 Q17.85 -26.2 17.55 -26.7 17.2 -27.25 17.35 -27.85 L18.05 -32.15 18.15 -33.85 Q18.5 -41.1 16.55 -51.2 L16.25 -52.85 15.5 -52.85 15.15 -52.6 Q9.35 -49.85 9.35 -42.5 L9.45 -40.5 10.35 -40.05 Q10.8 -39.6 10.8 -39.0 10.8 -38.4 10.35 -37.95 L9.9 -37.6 10.4 -35.3 Q14.8 -18.4 14.25 -7.65 L14.15 -5.85 13.35 -1.15 Q13.2 -0.55 12.7 -0.2 L11.55 -0.05 Q10.95 -0.2 10.65 -0.65 L10.2 -0.2 9.05 -0.05 Q8.45 -0.2 8.15 -0.7 7.8 -1.25 7.95 -1.85 L8.65 -6.15 8.75 -7.85 Q9.25 -18.25 5.0 -34.55 L4.3 -37.5 Q3.65 -37.5 3.25 -37.95 2.8 -38.4 2.8 -39.0 2.8 -39.6 3.25 -40.05 L3.65 -40.35 3.25 -42.5 Q2.1 -49.45 3.15 -52.85 1.05 -53.05 0.35 -54.45 L0.35 -62.65 Q-0.35 -64.9 0.3 -67.05 L6.15 -88.4 6.3 -89.05 Q7.4 -92.6 10.2 -93.6 L11.05 -93.85 11.05 -94.05 16.6 -94.05 Q16.85 -95.0 18.35 -96.15 L19.85 -96.85 22.4 -97.45 Q23.9 -97.45 26.55 -96.2 28.05 -95.0 28.3 -94.05 L29.45 -94.05 29.45 -101.25 30.6 -105.0 31.05 -106.5 M31.9 -106.5 L29.95 -100.75 46.7 -100.75 48.1 -106.5 48.7 -109.0 32.75 -109.0 31.9 -106.5 M47.3 -100.65 L47.3 -79.95 48.85 -85.25 48.85 -106.0 47.3 -100.65 M46.3 -86.4 L46.3 -100.25 30.3 -100.25 30.3 -86.4 30.3 -77.0 46.3 -77.0 46.3 -86.4 M30.65 -86.4 L30.6 -87.75 30.75 -92.35 30.9 -93.45 30.95 -94.05 Q31.25 -96.25 31.85 -98.35 L44.8 -98.3 45.35 -94.05 45.4 -93.45 45.5 -92.35 45.55 -87.75 45.5 -86.4 45.45 -85.35 44.85 -79.0 44.8 -78.9 Q44.75 -78.8 31.85 -78.85 L31.85 -79.0 Q31.05 -82.2 30.75 -85.3 L30.65 -86.4 M53.0 -54.95 L53.65 -55.35 54.5 -56.25 55.15 -57.15 62.15 -80.95 62.1 -87.0 55.05 -64.0 Q54.3 -62.85 53.0 -62.05 L50.95 -61.25 1.8 -61.25 Q1.05 -58.05 1.8 -54.5 L51.95 -54.5 53.0 -54.95 M62.0 -76.3 L61.7 -76.8 60.45 -72.35 Q59.65 -66.75 59.75 -66.55 L59.8 -66.5 60.95 -66.5 61.5 -69.5 62.0 -73.5 62.0 -76.3 M44.55 -87.75 L44.5 -92.35 44.4 -93.45 44.35 -94.05 43.9 -97.75 32.7 -97.75 31.95 -94.05 31.9 -93.45 31.75 -92.35 Q31.55 -90.1 31.6 -87.75 L31.65 -86.4 31.75 -85.3 Q32.0 -82.45 32.7 -79.5 L43.85 -79.5 44.45 -85.35 44.5 -86.4 44.55 -87.75 M16.55 -92.35 L16.55 -93.45 13.5 -93.45 11.05 -93.0 10.2 -92.6 Q8.05 -91.45 7.1 -88.45 L1.1 -67.05 Q-0.35 -62.05 4.65 -62.05 L48.95 -62.05 Q52.85 -62.05 54.65 -65.1 L61.9 -88.45 Q63.5 -93.45 58.5 -93.45 L49.6 -93.45 49.6 -92.35 49.6 -85.35 49.6 -84.3 47.15 -76.35 29.45 -76.35 29.45 -84.05 29.45 -92.35 29.45 -93.45 28.35 -93.45 28.35 -92.35 28.35 -82.7 28.35 -79.65 28.25 -79.0 Q27.9 -78.2 26.45 -77.6 L22.45 -76.9 19.15 -77.35 18.4 -77.65 Q17.0 -78.2 16.65 -79.0 L16.55 -79.65 16.55 -82.3 16.55 -92.35 M58.5 -65.75 L58.1 -64.25 61.15 -64.25 61.65 -64.45 61.9 -65.0 61.65 -65.5 61.15 -65.75 58.5 -65.75 M59.4 -62.7 L58.8 -62.6 58.5 -62.15 57.6 -58.5 56.25 -52.4 56.0 -51.2 Q55.25 -47.4 54.85 -44.0 54.2 -38.3 54.45 -33.7 L54.6 -31.25 55.3 -27.3 Q55.4 -27.0 55.65 -26.85 L56.2 -26.75 56.7 -27.1 56.75 -27.65 56.1 -31.25 55.95 -33.8 Q55.7 -38.35 56.4 -44.0 56.8 -47.4 57.55 -51.2 L57.75 -52.4 59.15 -58.5 59.95 -61.85 59.85 -62.4 59.4 -62.7 M46.1 -52.85 Q49.9 -49.2 49.75 -42.5 51.15 -50.2 49.6 -52.85 L46.1 -52.85 M48.35 -47.5 Q47.8 -49.25 46.8 -50.65 46.65 -50.9 46.35 -50.95 L45.75 -50.85 45.45 -50.4 45.55 -49.8 Q46.3 -48.75 46.7 -47.5 47.25 -46.05 47.45 -41.75 L47.55 -40.5 48.7 -40.5 48.95 -41.75 Q48.8 -46.05 48.35 -47.5 M52.7 -53.35 L53.0 -52.4 53.3 -53.75 52.7 -53.4 52.7 -53.35 M52.6 -47.5 L52.6 -50.3 52.3 -50.8 51.75 -51.0 Q51.45 -50.95 51.25 -50.7 51.05 -50.5 51.1 -50.15 L51.1 -47.5 50.4 -41.75 Q50.2 -40.9 50.35 -40.55 L50.4 -40.5 51.55 -40.5 51.9 -41.75 52.6 -47.5 M54.15 -54.4 L53.35 -50.3 Q53.6 -47.25 52.8 -42.5 L52.4 -40.35 52.8 -40.05 53.25 -39.0 Q53.25 -38.4 52.8 -37.95 52.45 -37.55 51.9 -37.5 51.85 -35.5 51.95 -33.7 L52.1 -31.25 52.8 -27.3 Q52.9 -27.0 53.15 -26.85 L53.7 -26.75 Q54.05 -26.85 54.2 -27.1 L54.25 -27.65 53.6 -31.25 53.45 -33.8 Q53.2 -38.35 53.9 -44.0 54.3 -47.4 55.05 -51.2 L57.5 -62.2 56.2 -57.85 Q55.5 -55.65 54.15 -54.4 M27.35 -92.95 L27.35 -93.7 27.25 -94.05 26.3 -95.1 25.95 -95.4 Q24.45 -96.45 22.4 -96.45 20.5 -96.45 19.15 -95.5 L18.95 -95.35 17.7 -94.05 17.55 -93.65 17.55 -92.9 18.6 -92.35 19.15 -92.15 21.25 -91.7 21.25 -94.05 21.75 -91.2 23.25 -91.2 23.75 -94.05 23.75 -91.7 26.15 -92.3 27.35 -92.95 M23.75 -90.7 L21.25 -90.7 21.25 -91.2 19.15 -91.6 17.55 -92.3 18.3 -91.6 19.15 -91.1 Q20.55 -90.6 22.45 -90.6 24.6 -90.6 26.05 -91.25 L27.35 -92.35 26.35 -91.85 26.3 -91.85 Q25.2 -91.35 23.75 -91.2 L23.75 -90.7 M26.3 -80.1 L27.35 -80.75 27.35 -90.75 26.3 -90.25 Q24.7 -89.6 22.45 -89.6 L19.15 -90.05 17.55 -90.75 17.55 -80.7 19.15 -79.85 Q20.55 -79.35 22.45 -79.35 23.9 -79.35 26.3 -80.1 M22.45 -78.85 L20.45 -79.0 19.15 -79.3 17.55 -80.1 17.55 -79.65 18.15 -79.0 19.15 -78.4 Q20.55 -77.9 22.45 -77.9 24.6 -77.9 26.05 -78.55 L26.75 -79.0 27.35 -79.65 27.35 -80.1 26.35 -79.55 26.3 -79.55 Q25.45 -79.15 24.4 -79.0 L22.45 -78.85 M4.95 -47.5 L4.95 -50.15 4.8 -50.7 4.3 -51.0 3.75 -50.8 3.45 -50.3 3.45 -47.5 4.15 -41.75 4.35 -40.85 4.5 -40.5 5.65 -40.5 5.7 -40.55 5.8 -41.15 5.65 -41.75 4.95 -47.5 M10.0 -52.85 L6.5 -52.85 Q4.9 -50.2 6.3 -42.5 6.15 -49.2 10.0 -52.85 M9.35 -47.5 Q9.75 -48.75 10.5 -49.8 L10.6 -50.4 10.3 -50.85 9.7 -50.95 Q9.4 -50.9 9.25 -50.65 8.25 -49.25 7.7 -47.5 7.25 -46.05 7.1 -41.75 L7.15 -40.95 7.35 -40.5 8.5 -40.5 8.65 -41.05 8.6 -41.75 Q8.8 -46.05 9.35 -47.5 M18.55 -52.85 L17.0 -52.85 17.35 -51.2 18.45 -44.0 Q19.15 -38.35 18.9 -33.8 L18.75 -31.25 18.1 -27.65 Q18.0 -27.35 18.15 -27.1 18.3 -26.85 18.65 -26.75 L19.2 -26.85 19.55 -27.3 20.25 -31.25 20.4 -33.7 Q20.65 -38.3 20.0 -44.0 L18.85 -51.2 18.55 -52.85 M19.85 -51.2 L20.95 -44.0 Q21.65 -38.35 21.4 -33.8 L21.25 -31.25 20.6 -27.65 20.65 -27.1 21.15 -26.75 21.7 -26.85 22.05 -27.3 22.75 -31.25 22.9 -33.7 Q23.15 -38.3 22.5 -44.0 L21.35 -51.2 21.05 -52.85 19.5 -52.85 19.85 -51.2 M4.3 -38.25 L9.3 -38.25 9.85 -38.45 10.05 -39.0 9.85 -39.5 9.3 -39.75 4.3 -39.75 3.8 -39.5 3.55 -39.0 3.8 -38.45 4.3 -38.25 M9.15 -36.6 L8.55 -36.7 Q8.25 -36.65 8.1 -36.4 7.9 -36.15 8.0 -35.85 L8.8 -32.5 Q10.8 -24.5 11.55 -18.0 12.25 -12.35 12.0 -7.8 L11.85 -5.25 11.2 -1.65 Q11.1 -1.35 11.25 -1.1 11.4 -0.85 11.75 -0.75 L12.3 -0.85 12.65 -1.3 13.35 -5.25 13.5 -7.7 Q13.75 -12.3 13.1 -18.0 12.3 -24.5 10.35 -32.5 L9.45 -36.15 9.15 -36.6 M6.65 -36.6 L6.05 -36.7 Q5.75 -36.65 5.6 -36.4 5.4 -36.15 5.5 -35.85 L6.3 -32.5 Q8.3 -24.5 9.05 -18.0 9.75 -12.35 9.5 -7.8 L9.35 -5.25 8.7 -1.65 Q8.6 -1.35 8.75 -1.1 L9.25 -0.75 9.8 -0.85 10.15 -1.3 10.85 -5.25 11.0 -7.7 Q11.25 -12.3 10.6 -18.0 9.8 -24.5 7.85 -32.5 L6.95 -36.15 6.65 -36.6 M51.75 -38.25 L51.95 -38.25 52.25 -38.45 52.5 -39.0 52.25 -39.5 52.0 -39.7 51.75 -39.75 46.75 -39.75 46.2 -39.5 46.0 -39.0 46.2 -38.45 46.75 -38.25 51.75 -38.25 M46.9 -36.6 L46.6 -36.15 45.7 -32.5 Q43.75 -24.5 42.95 -18.0 42.3 -12.3 42.55 -7.7 L42.7 -5.25 43.4 -1.3 Q43.5 -1.0 43.75 -0.85 L44.3 -0.75 44.8 -1.1 44.85 -1.65 44.2 -5.25 44.05 -7.8 Q43.8 -12.35 44.5 -18.0 45.25 -24.5 47.25 -32.5 L48.05 -35.85 47.95 -36.4 Q47.8 -36.65 47.5 -36.7 L46.9 -36.6 M50.0 -36.7 L49.4 -36.6 49.1 -36.15 48.2 -32.5 Q46.25 -24.5 45.45 -18.0 44.8 -12.3 45.05 -7.7 L45.2 -5.25 45.9 -1.3 Q46.0 -1.0 46.25 -0.85 L46.8 -0.75 Q47.15 -0.85 47.3 -1.1 L47.35 -1.65 46.7 -5.25 46.55 -7.8 Q46.3 -12.35 47.0 -18.0 47.75 -24.5 49.75 -32.5 L50.55 -35.85 50.45 -36.4 50.0 -36.7" fill="#2a2a2a" fill-rule="evenodd" stroke="none"/>
    <path d="M47.3 -100.65 L48.85 -106.0 48.85 -85.25 47.3 -79.95 47.3 -100.65 M53.0 -62.05 Q54.3 -62.85 55.05 -64.0 L62.1 -87.0 62.15 -80.95 55.15 -57.15 54.5 -56.25 53.65 -55.35 53.0 -54.95 53.0 -56.35 55.4 -58.9 61.8 -80.5 54.9 -59.5 53.0 -57.7 53.0 -58.75 55.0 -61.0 60.1 -78.35 54.85 -61.9 53.0 -60.15 53.0 -62.05" fill="#858585" fill-rule="evenodd" stroke="none"/>
    <path d="M62.0 -76.3 L62.0 -73.5 61.5 -69.5 60.95 -66.5 59.8 -66.5 59.75 -66.55 Q59.65 -66.75 60.45 -72.35 L61.7 -76.8 62.0 -76.3 M59.4 -62.7 L59.85 -62.4 59.95 -61.85 59.15 -58.5 57.75 -52.4 57.55 -51.2 Q56.8 -47.4 56.4 -44.0 55.7 -38.35 55.95 -33.8 L56.1 -31.25 56.75 -27.65 56.7 -27.1 56.2 -26.75 55.65 -26.85 Q55.4 -27.0 55.3 -27.3 L54.6 -31.25 54.45 -33.7 Q54.2 -38.3 54.85 -44.0 55.25 -47.4 56.0 -51.2 L56.25 -52.4 57.6 -58.5 58.5 -62.15 58.8 -62.6 59.4 -62.7 M58.5 -65.75 L61.15 -65.75 61.65 -65.5 61.9 -65.0 61.65 -64.45 61.15 -64.25 58.1 -64.25 58.5 -65.75 M54.15 -54.4 Q55.5 -55.65 56.2 -57.85 L57.5 -62.2 55.05 -51.2 Q54.3 -47.4 53.9 -44.0 53.2 -38.35 53.45 -33.8 L53.6 -31.25 54.25 -27.65 54.2 -27.1 Q54.05 -26.85 53.7 -26.75 L53.15 -26.85 Q52.9 -27.0 52.8 -27.3 L52.1 -31.25 51.95 -33.7 Q51.85 -35.5 51.9 -37.5 52.45 -37.55 52.8 -37.95 53.25 -38.4 53.25 -39.0 L52.8 -40.05 52.4 -40.35 52.8 -42.5 Q53.6 -47.25 53.35 -50.3 L54.15 -54.4 M19.85 -51.2 L19.5 -52.85 21.05 -52.85 21.35 -51.2 22.5 -44.0 Q23.15 -38.3 22.9 -33.7 L22.75 -31.25 22.05 -27.3 21.7 -26.85 21.15 -26.75 20.65 -27.1 20.6 -27.65 21.25 -31.25 21.4 -33.8 Q21.65 -38.35 20.95 -44.0 L19.85 -51.2 M18.55 -52.85 L18.85 -51.2 20.0 -44.0 Q20.65 -38.3 20.4 -33.7 L20.25 -31.25 19.55 -27.3 19.2 -26.85 18.65 -26.75 Q18.3 -26.85 18.15 -27.1 18.0 -27.35 18.1 -27.65 L18.75 -31.25 18.9 -33.8 Q19.15 -38.35 18.45 -44.0 L17.35 -51.2 17.0 -52.85 18.55 -52.85" fill="#7d7d7d" fill-rule="evenodd" stroke="none"/>
    <path d="M48.1 -106.5 L46.7 -100.75 29.95 -100.75 31.9 -106.5 48.1 -106.5 M44.55 -87.75 L44.5 -86.4 44.45 -85.35 43.85 -79.5 32.7 -79.5 Q32.0 -82.45 31.75 -85.3 L31.65 -86.4 31.6 -87.75 36.95 -87.3 44.55 -87.75 M49.6 -92.35 L49.6 -93.45 58.5 -93.45 Q63.5 -93.45 61.9 -88.45 L54.65 -65.1 Q52.85 -62.05 48.95 -62.05 L4.65 -62.05 Q-0.35 -62.05 1.1 -67.05 L7.1 -88.45 Q8.05 -91.45 10.2 -92.6 L11.05 -93.0 13.5 -93.45 16.55 -93.45 16.55 -92.35 14.35 -92.35 Q12.4 -92.3 11.05 -91.5 L10.2 -90.9 Q8.75 -89.65 8.1 -87.35 L5.65 -79.0 2.45 -68.15 Q1.05 -63.15 6.05 -63.15 L48.4 -63.15 Q53.4 -63.15 54.8 -68.15 L58.0 -79.0 60.45 -87.35 Q61.9 -92.35 56.9 -92.35 L49.6 -92.35 M28.35 -92.35 L28.35 -93.45 29.45 -93.45 29.45 -92.35 28.35 -92.35 M53.0 -57.7 L53.0 -56.35 3.35 -56.15 2.65 -57.65 53.0 -57.7 M53.0 -60.15 L53.0 -58.75 3.15 -58.85 2.65 -60.15 53.0 -60.15 M26.3 -90.25 L27.35 -90.75 27.35 -80.75 26.3 -80.1 26.3 -90.25 M19.15 -79.85 L17.55 -80.7 17.55 -90.75 19.15 -90.05 19.15 -79.85" fill="#dddddd" fill-rule="evenodd" stroke="none"/>
    <path d="M30.3 -86.4 L30.3 -100.25 46.3 -100.25 46.3 -86.4 45.5 -86.4 45.55 -87.75 45.5 -92.35 45.4 -93.45 45.35 -94.05 44.8 -98.3 31.85 -98.35 Q31.25 -96.25 30.95 -94.05 L30.9 -93.45 30.75 -92.35 30.6 -87.75 30.65 -86.4 30.3 -86.4 M53.0 -54.95 L51.95 -54.5 1.8 -54.5 Q1.05 -58.05 1.8 -61.25 L50.95 -61.25 53.0 -62.05 53.0 -60.15 2.65 -60.15 3.15 -58.85 53.0 -58.75 53.0 -57.7 2.65 -57.65 3.35 -56.15 53.0 -56.35 53.0 -54.95 M46.7 -47.5 Q46.3 -48.75 45.55 -49.8 L45.45 -50.4 45.75 -50.85 46.35 -50.95 Q46.65 -50.9 46.8 -50.65 47.8 -49.25 48.35 -47.5 L46.7 -47.5 M48.95 -41.75 L48.7 -40.5 47.55 -40.5 47.45 -41.75 48.95 -41.75 M51.1 -47.5 L51.1 -50.15 Q51.05 -50.5 51.25 -50.7 51.45 -50.95 51.75 -51.0 L52.3 -50.8 52.6 -50.3 52.6 -47.5 51.1 -47.5 M51.9 -41.75 L51.55 -40.5 50.4 -40.5 50.35 -40.55 Q50.2 -40.9 50.4 -41.75 L51.9 -41.75 M23.75 -90.7 L23.75 -91.2 Q25.2 -91.35 26.3 -91.85 L26.35 -91.85 27.35 -92.35 26.05 -91.25 Q24.6 -90.6 22.45 -90.6 20.55 -90.6 19.15 -91.1 L18.3 -91.6 17.55 -92.3 19.15 -91.6 21.25 -91.2 21.25 -90.7 23.75 -90.7 M22.45 -78.85 L24.4 -79.0 Q25.45 -79.15 26.3 -79.55 L26.35 -79.55 27.35 -80.1 27.35 -79.65 26.75 -79.0 26.05 -78.55 Q24.6 -77.9 22.45 -77.9 20.55 -77.9 19.15 -78.4 L18.15 -79.0 17.55 -79.65 17.55 -80.1 19.15 -79.3 20.45 -79.0 22.45 -78.85 M3.45 -47.5 L3.45 -50.3 3.75 -50.8 4.3 -51.0 4.8 -50.7 4.95 -50.15 4.95 -47.5 3.45 -47.5 M5.65 -41.75 L5.8 -41.15 5.7 -40.55 5.65 -40.5 4.5 -40.5 4.35 -40.85 4.15 -41.75 5.65 -41.75 M7.7 -47.5 Q8.25 -49.25 9.25 -50.65 9.4 -50.9 9.7 -50.95 L10.3 -50.85 10.6 -50.4 10.5 -49.8 Q9.75 -48.75 9.35 -47.5 L7.7 -47.5 M8.6 -41.75 L8.65 -41.05 8.5 -40.5 7.35 -40.5 7.15 -40.95 7.1 -41.75 8.6 -41.75 M6.65 -36.6 L6.95 -36.15 7.85 -32.5 Q9.8 -24.5 10.6 -18.0 11.25 -12.3 11.0 -7.7 L10.85 -5.25 10.15 -1.3 9.8 -0.85 9.25 -0.75 8.75 -1.1 Q8.6 -1.35 8.7 -1.65 L9.35 -5.25 9.5 -7.8 Q9.75 -12.35 9.05 -18.0 8.3 -24.5 6.3 -32.5 L5.5 -35.85 Q5.4 -36.15 5.6 -36.4 5.75 -36.65 6.05 -36.7 L6.65 -36.6 M9.15 -36.6 L9.45 -36.15 10.35 -32.5 Q12.3 -24.5 13.1 -18.0 13.75 -12.3 13.5 -7.7 L13.35 -5.25 12.65 -1.3 12.3 -0.85 11.75 -0.75 Q11.4 -0.85 11.25 -1.1 11.1 -1.35 11.2 -1.65 L11.85 -5.25 12.0 -7.8 Q12.25 -12.35 11.55 -18.0 10.8 -24.5 8.8 -32.5 L8.0 -35.85 Q7.9 -36.15 8.1 -36.4 8.25 -36.65 8.55 -36.7 L9.15 -36.6 M50.0 -36.7 L50.45 -36.4 50.55 -35.85 49.75 -32.5 Q47.75 -24.5 47.0 -18.0 46.3 -12.35 46.55 -7.8 L46.7 -5.25 47.35 -1.65 47.3 -1.1 Q47.15 -0.85 46.8 -0.75 L46.25 -0.85 Q46.0 -1.0 45.9 -1.3 L45.2 -5.25 45.05 -7.7 Q44.8 -12.3 45.45 -18.0 46.25 -24.5 48.2 -32.5 L49.1 -36.15 49.4 -36.6 50.0 -36.7 M46.9 -36.6 L47.5 -36.7 Q47.8 -36.65 47.95 -36.4 L48.05 -35.85 47.25 -32.5 Q45.25 -24.5 44.5 -18.0 43.8 -12.35 44.05 -7.8 L44.2 -5.25 44.85 -1.65 44.8 -1.1 44.3 -0.75 43.75 -0.85 Q43.5 -1.0 43.4 -1.3 L42.7 -5.25 42.55 -7.7 Q42.3 -12.3 42.95 -18.0 43.75 -24.5 45.7 -32.5 L46.6 -36.15 46.9 -36.6" fill="#999999" fill-rule="evenodd" stroke="none"/>
    <path d="M53.0 -60.15 L54.85 -61.9 60.1 -78.35 55.0 -61.0 53.0 -58.75 53.0 -60.15 M53.0 -57.7 L54.9 -59.5 61.8 -80.5 55.4 -58.9 53.0 -56.35 53.0 -57.7" fill="#b4b4b4" fill-rule="evenodd" stroke="none"/>
    <path d="M48.35 -47.5 Q48.8 -46.05 48.95 -41.75 L47.45 -41.75 Q47.25 -46.05 46.7 -47.5 L48.35 -47.5 M52.6 -47.5 L51.9 -41.75 50.4 -41.75 51.1 -47.5 52.6 -47.5 M3.45 -47.5 L4.95 -47.5 5.65 -41.75 4.15 -41.75 3.45 -47.5 M7.7 -47.5 L9.35 -47.5 Q8.8 -46.05 8.6 -41.75 L7.1 -41.75 Q7.25 -46.05 7.7 -47.5 M4.3 -38.25 L3.8 -38.45 3.55 -39.0 3.8 -39.5 4.3 -39.75 9.3 -39.75 9.85 -39.5 10.05 -39.0 9.85 -38.45 9.3 -38.25 4.3 -38.25 M51.75 -38.25 L46.75 -38.25 46.2 -38.45 46.0 -39.0 46.2 -39.5 46.75 -39.75 51.75 -39.75 52.0 -39.7 52.25 -39.5 52.5 -39.0 52.25 -38.45 51.95 -38.25 51.75 -38.25" fill="#c7c7c7" fill-rule="evenodd" stroke="none"/>
    <path d="M31.9 -106.5 L32.75 -109.0 48.7 -109.0 48.1 -106.5 31.9 -106.5 M27.35 -92.95 L26.15 -92.3 23.75 -91.7 23.75 -94.05 23.25 -91.2 21.75 -91.2 21.25 -94.05 21.25 -91.7 19.15 -92.15 18.6 -92.35 17.55 -92.9 17.55 -93.65 17.7 -94.05 18.95 -95.35 19.15 -95.5 Q20.5 -96.45 22.4 -96.45 24.45 -96.45 25.95 -95.4 L26.3 -95.1 27.25 -94.05 27.35 -93.7 27.35 -92.95" fill="#c8c8c8" fill-rule="evenodd" stroke="none"/>
    <path d="M31.6 -87.75 Q31.55 -90.1 31.75 -92.35 L31.9 -93.45 31.95 -94.05 32.7 -97.75 43.9 -97.75 44.35 -94.05 44.4 -93.45 44.5 -92.35 44.55 -87.75 36.95 -87.3 31.6 -87.75 M26.3 -80.1 Q23.9 -79.35 22.45 -79.35 20.55 -79.35 19.15 -79.85 L19.15 -90.05 22.45 -89.6 Q24.7 -89.6 26.3 -90.25 L26.3 -80.1" fill="#ffffff" fill-rule="evenodd" stroke="none"/>
    <path d="M30.3 -86.4 L30.65 -86.4 30.75 -85.3 Q31.05 -82.2 31.85 -79.0 L31.85 -78.85 Q44.75 -78.8 44.8 -78.9 L44.85 -79.0 45.45 -85.35 45.5 -86.4 46.3 -86.4 46.3 -77.0 30.3 -77.0 30.3 -86.4" fill="#727272" fill-rule="evenodd" stroke="none"/>
    <path d="M58.0 -79.0 L54.8 -68.15 Q53.4 -63.15 48.4 -63.15 L6.05 -63.15 Q1.05 -63.15 2.45 -68.15 L5.65 -79.0 14.3 -79.0 Q14.75 -77.9 16.7 -77.05 19.3 -75.9 22.95 -75.9 25.5 -75.9 27.5 -76.45 L27.15 -75.1 48.85 -75.1 49.85 -79.0 58.0 -79.0" fill="#fb8cc7" fill-rule="evenodd" stroke="none"/>
    <path d="M16.55 -92.35 L16.55 -82.3 Q14.15 -81.2 14.15 -79.7 14.15 -79.35 14.3 -79.0 L5.65 -79.0 8.1 -87.35 Q8.75 -89.65 10.2 -90.9 L11.05 -91.5 Q12.4 -92.3 14.35 -92.35 L16.55 -92.35 M28.35 -82.7 L28.35 -92.35 29.45 -92.35 29.45 -84.05 29.05 -82.45 28.35 -82.7 M49.6 -85.35 L49.6 -92.35 56.9 -92.35 Q61.9 -92.35 60.45 -87.35 L58.0 -79.0 49.85 -79.0 51.4 -85.35 49.6 -85.35" fill="#fa56ac" fill-rule="evenodd" stroke="none"/>
    <path d="M16.55 -82.3 L16.55 -79.65 16.65 -79.0 Q17.0 -78.2 18.4 -77.65 L19.15 -77.35 22.45 -76.9 26.45 -77.6 Q27.9 -78.2 28.25 -79.0 L28.35 -79.65 28.35 -82.7 29.05 -82.45 29.45 -84.05 29.45 -76.35 47.15 -76.35 49.6 -84.3 49.6 -85.35 51.4 -85.35 49.85 -79.0 48.85 -75.1 27.15 -75.1 27.5 -76.45 Q25.5 -75.9 22.95 -75.9 19.3 -75.9 16.7 -77.05 14.75 -77.9 14.3 -79.0 14.15 -79.35 14.15 -79.7 14.15 -81.2 16.55 -82.3" fill="#f01c8b" fill-rule="evenodd" stroke="none"/>
  </g>
</svg>
