<?xml version="1.0" encoding="UTF-8" standalone="no"?>
<svg xmlns:ffdec="https://www.free-decompiler.com/flash" xmlns:xlink="http://www.w3.org/1999/xlink" ffdec:objectType="shape" height="23.5px" width="408.95px" xmlns="http://www.w3.org/2000/svg">
  <g transform="matrix(1.0, 0.0, 0.0, 1.0, 408.95, 0.0)">
    <path d="M0.0 0.55 L0.0 11.05 -2.95 14.0 -13.45 14.0 0.0 0.55 M-408.95 14.0 L-408.95 10.5 -398.45 0.0 -387.95 0.0 -401.95 14.0 -408.95 14.0 M-377.45 0.0 L-366.95 0.0 -380.95 14.0 -391.45 14.0 -377.45 0.0 M-356.45 0.0 L-345.95 0.0 -359.95 14.0 -370.45 14.0 -356.45 0.0 M-335.45 0.0 L-324.95 0.0 -338.95 14.0 -349.45 14.0 -335.45 0.0 M-314.45 0.0 L-303.95 0.0 -317.95 14.0 -328.45 14.0 -314.45 0.0 M-293.45 0.0 L-282.95 0.0 -296.95 14.0 -307.45 14.0 -293.45 0.0 M-272.45 0.0 L-261.95 0.0 -275.95 14.0 -286.45 14.0 -272.45 0.0 M-251.45 0.0 L-240.95 0.0 -254.95 14.0 -265.45 14.0 -251.45 0.0 M-230.45 0.0 L-219.95 0.0 -233.95 14.0 -244.45 14.0 -230.45 0.0 M-209.45 0.0 L-198.95 0.0 -212.95 14.0 -223.45 14.0 -209.45 0.0 M-188.45 0.0 L-177.95 0.0 -191.95 14.0 -202.45 14.0 -188.45 0.0 M-167.45 0.0 L-156.95 0.0 -170.95 14.0 -181.45 14.0 -167.45 0.0 M-146.45 0.0 L-135.95 0.0 -149.95 14.0 -160.45 14.0 -146.45 0.0 M-125.45 0.0 L-114.95 0.0 -128.95 14.0 -139.45 14.0 -125.45 0.0 M-104.45 0.0 L-93.95 0.0 -107.95 14.0 -118.45 14.0 -104.45 0.0 M-83.45 0.0 L-72.95 0.0 -86.95 14.0 -97.45 14.0 -83.45 0.0 M-62.45 0.0 L-51.95 0.0 -65.95 14.0 -76.45 14.0 -62.45 0.0 M-41.45 0.0 L-30.95 0.0 -44.95 14.0 -55.45 14.0 -41.45 0.0 M-20.45 0.0 L-9.95 0.0 -23.95 14.0 -34.45 14.0 -20.45 0.0" fill="#fbe64f" fill-rule="evenodd" stroke="none"/>
    <path d="M0.0 11.05 L0.0 14.0 -2.95 14.0 0.0 11.05 M-408.95 10.5 L-408.95 0.0 -398.45 0.0 -408.95 10.5 M-387.95 0.0 L-377.45 0.0 -391.45 14.0 -401.95 14.0 -387.95 0.0 M-366.95 0.0 L-356.45 0.0 -370.45 14.0 -380.95 14.0 -366.95 0.0 M-345.95 0.0 L-335.45 0.0 -349.45 14.0 -359.95 14.0 -345.95 0.0 M-324.95 0.0 L-314.45 0.0 -328.45 14.0 -338.95 14.0 -324.95 0.0 M-303.95 0.0 L-293.45 0.0 -307.45 14.0 -317.95 14.0 -303.95 0.0 M-282.95 0.0 L-272.45 0.0 -286.45 14.0 -296.95 14.0 -282.95 0.0 M-261.95 0.0 L-251.45 0.0 -265.45 14.0 -275.95 14.0 -261.95 0.0 M-240.95 0.0 L-230.45 0.0 -244.45 14.0 -254.95 14.0 -240.95 0.0 M-219.95 0.0 L-209.45 0.0 -223.45 14.0 -233.95 14.0 -219.95 0.0 M-198.95 0.0 L-188.45 0.0 -202.45 14.0 -212.95 14.0 -198.95 0.0 M-177.95 0.0 L-167.45 0.0 -181.45 14.0 -191.95 14.0 -177.95 0.0 M-156.95 0.0 L-146.45 0.0 -160.45 14.0 -170.95 14.0 -156.95 0.0 M-135.95 0.0 L-125.45 0.0 -139.45 14.0 -149.95 14.0 -135.95 0.0 M-114.95 0.0 L-104.45 0.0 -118.45 14.0 -128.95 14.0 -114.95 0.0 M-93.95 0.0 L-83.45 0.0 -97.45 14.0 -107.95 14.0 -93.95 0.0 M-72.95 0.0 L-62.45 0.0 -76.45 14.0 -86.95 14.0 -72.95 0.0 M-51.95 0.0 L-41.45 0.0 -55.45 14.0 -65.95 14.0 -51.95 0.0 M-30.95 0.0 L-20.45 0.0 -34.45 14.0 -44.95 14.0 -30.95 0.0 M-9.95 0.0 L0.0 0.0 0.0 0.55 -13.45 14.0 -23.95 14.0 -9.95 0.0" fill="#f3c901" fill-rule="evenodd" stroke="none"/>
    <path d="M0.0 21.55 L0.0 23.5 -1.95 23.5 0.0 21.55 M-12.45 23.5 L-22.95 23.5 -13.45 14.0 -2.95 14.0 -12.45 23.5 M-33.45 23.5 L-43.95 23.5 -34.45 14.0 -23.95 14.0 -33.45 23.5 M-54.45 23.5 L-64.95 23.5 -55.45 14.0 -44.95 14.0 -54.45 23.5 M-75.45 23.5 L-85.95 23.5 -76.45 14.0 -65.95 14.0 -75.45 23.5 M-96.45 23.5 L-106.95 23.5 -97.45 14.0 -86.95 14.0 -96.45 23.5 M-117.45 23.5 L-127.95 23.5 -118.45 14.0 -107.95 14.0 -117.45 23.5 M-138.45 23.5 L-148.95 23.5 -139.45 14.0 -128.95 14.0 -138.45 23.5 M-159.45 23.5 L-169.95 23.5 -160.45 14.0 -149.95 14.0 -159.45 23.5 M-180.45 23.5 L-190.95 23.5 -181.45 14.0 -170.95 14.0 -180.45 23.5 M-201.45 23.5 L-211.95 23.5 -202.45 14.0 -191.95 14.0 -201.45 23.5 M-222.45 23.5 L-232.95 23.5 -223.45 14.0 -212.95 14.0 -222.45 23.5 M-243.45 23.5 L-253.95 23.5 -244.45 14.0 -233.95 14.0 -243.45 23.5 M-264.45 23.5 L-274.95 23.5 -265.45 14.0 -254.95 14.0 -264.45 23.5 M-285.45 23.5 L-295.95 23.5 -286.45 14.0 -275.95 14.0 -285.45 23.5 M-306.45 23.5 L-316.95 23.5 -307.45 14.0 -296.95 14.0 -306.45 23.5 M-327.45 23.5 L-337.95 23.5 -328.45 14.0 -317.95 14.0 -327.45 23.5 M-348.45 23.5 L-358.95 23.5 -349.45 14.0 -338.95 14.0 -348.45 23.5 M-369.45 23.5 L-379.95 23.5 -370.45 14.0 -359.95 14.0 -369.45 23.5 M-390.45 23.5 L-400.95 23.5 -391.45 14.0 -380.95 14.0 -390.45 23.5 M-408.95 21.0 L-408.95 14.0 -401.95 14.0 -408.95 21.0" fill="#f7ca00" fill-rule="evenodd" stroke="none"/>
    <path d="M0.0 14.0 L0.0 21.55 -1.95 23.5 -12.45 23.5 -2.95 14.0 0.0 14.0 M-22.95 23.5 L-33.45 23.5 -23.95 14.0 -13.45 14.0 -22.95 23.5 M-43.95 23.5 L-54.45 23.5 -44.95 14.0 -34.45 14.0 -43.95 23.5 M-64.95 23.5 L-75.45 23.5 -65.95 14.0 -55.45 14.0 -64.95 23.5 M-85.95 23.5 L-96.45 23.5 -86.95 14.0 -76.45 14.0 -85.95 23.5 M-106.95 23.5 L-117.45 23.5 -107.95 14.0 -97.45 14.0 -106.95 23.5 M-127.95 23.5 L-138.45 23.5 -128.95 14.0 -118.45 14.0 -127.95 23.5 M-148.95 23.5 L-159.45 23.5 -149.95 14.0 -139.45 14.0 -148.95 23.5 M-169.95 23.5 L-180.45 23.5 -170.95 14.0 -160.45 14.0 -169.95 23.5 M-190.95 23.5 L-201.45 23.5 -191.95 14.0 -181.45 14.0 -190.95 23.5 M-211.95 23.5 L-222.45 23.5 -212.95 14.0 -202.45 14.0 -211.95 23.5 M-232.95 23.5 L-243.45 23.5 -233.95 14.0 -223.45 14.0 -232.95 23.5 M-253.95 23.5 L-264.45 23.5 -254.95 14.0 -244.45 14.0 -253.95 23.5 M-274.95 23.5 L-285.45 23.5 -275.95 14.0 -265.45 14.0 -274.95 23.5 M-295.95 23.5 L-306.45 23.5 -296.95 14.0 -286.45 14.0 -295.95 23.5 M-316.95 23.5 L-327.45 23.5 -317.95 14.0 -307.45 14.0 -316.95 23.5 M-337.95 23.5 L-348.45 23.5 -338.95 14.0 -328.45 14.0 -337.95 23.5 M-358.95 23.5 L-369.45 23.5 -359.95 14.0 -349.45 14.0 -358.95 23.5 M-379.95 23.5 L-390.45 23.5 -380.95 14.0 -370.45 14.0 -379.95 23.5 M-400.95 23.5 L-408.95 23.5 -408.95 21.0 -401.95 14.0 -391.45 14.0 -400.95 23.5" fill="#dbb300" fill-rule="evenodd" stroke="none"/>
  </g>
</svg>
