<?xml version="1.0" encoding="UTF-8" standalone="no"?>
<svg xmlns:ffdec="https://www.free-decompiler.com/flash" xmlns:xlink="http://www.w3.org/1999/xlink" ffdec:objectType="shape" height="170.0px" width="69.2px" xmlns="http://www.w3.org/2000/svg">
  <g transform="matrix(1.0, 0.0, 0.0, 1.0, 35.45, 134.4)">
    <path d="M-19.85 19.8 L-20.2 19.65 -20.05 19.45 -19.85 19.8" fill="#000000" fill-rule="evenodd" stroke="none"/>
    <path d="M-18.4 -6.6 L-18.55 -6.55 -18.55 -6.65 -18.4 -6.6 M20.25 16.35 L20.0 16.6 20.0 16.4 20.25 16.35" fill="#5b5b5b" fill-rule="evenodd" stroke="none"/>
    <path d="M-6.6 -35.25 Q-3.35 -35.15 6.25 -35.6 L19.65 -36.4 Q15.95 -35.4 9.85 -35.0 2.2 -34.55 -6.6 -35.25" fill="#b81216" fill-rule="evenodd" stroke="none"/>
    <path d="M-14.65 -28.95 Q-10.4 -30.8 -5.85 -30.65 L8.35 -30.15 21.1 -31.15 Q22.25 -31.15 23.95 -30.05 21.15 -28.7 14.65 -27.95 L4.05 -27.35 -5.75 -28.05 -14.65 -28.95 M-18.4 -22.0 Q-5.75 -19.55 2.65 -19.55 L15.1 -20.3 Q20.35 -21.05 27.0 -23.15 27.5 -19.65 27.5 -15.2 21.75 -13.3 16.0 -12.5 L3.1 -11.8 -9.75 -12.7 Q-15.35 -13.45 -18.85 -14.4 L-18.4 -22.0 M-18.4 -6.6 Q-14.7 -5.1 -6.85 -4.45 L3.4 -4.05 Q18.9 -4.05 27.1 -7.2 26.8 -2.9 26.1 0.7 L16.7 2.5 3.7 3.45 Q-11.2 3.45 -17.6 1.05 L-18.55 -6.55 -18.4 -6.6 M24.25 8.3 Q22.75 13.05 20.25 16.35 L20.0 16.4 3.6 17.75 -11.3 16.65 -11.35 16.6 -15.55 8.7 -7.85 9.9 3.75 10.65 Q19.1 10.65 24.25 8.3 M12.55 23.0 L8.65 24.4 4.35 24.85 -3.5 23.1 Q6.2 23.45 12.55 23.0" fill="#fd8111" fill-rule="evenodd" stroke="none"/>
    <path d="M2.4 -132.55 L8.35 -130.7 -1.6 -121.0 Q-8.9 -113.95 -12.75 -109.3 L-4.55 -128.7 Q-2.95 -129.1 -1.2 -132.15 -1.7 -132.65 2.4 -132.6 L2.4 -132.55 M-24.1 -35.7 L-22.3 -35.5 Q-22.15 -34.15 -19.95 -33.1 L-17.8 -32.3 -17.35 -34.95 Q-16.55 -35.0 -16.15 -35.35 L-16.1 -35.35 -16.1 -35.4 -16.0 -35.55 -15.8 -36.05 -6.6 -35.25 Q2.2 -34.55 9.85 -35.0 15.95 -35.4 19.65 -36.4 L24.75 -37.4 27.0 -38.0 28.6 -32.0 26.2 -30.95 23.95 -30.05 Q22.25 -31.15 21.1 -31.15 L8.35 -30.15 -5.85 -30.65 Q-10.4 -30.8 -14.65 -28.95 -20.2 -29.9 -24.4 -32.7 L-24.1 -35.7 M27.0 -23.15 L30.1 -24.75 31.25 -17.0 27.5 -15.2 Q27.5 -19.65 27.0 -23.15 M27.1 -7.2 L31.75 -9.25 31.55 -1.5 Q26.25 0.65 26.1 0.7 26.8 -2.9 27.1 -7.2 M-18.55 -6.55 L-17.6 1.05 -20.7 0.1 Q-23.65 -0.95 -25.2 -2.05 L-25.5 -9.6 Q-23.0 -8.1 -21.65 -7.6 L-18.55 -6.65 -18.55 -6.55 M24.25 8.3 L27.65 7.05 30.75 5.8 29.3 13.55 Q27.85 14.3 25.6 14.95 L20.25 16.35 Q22.75 13.05 24.25 8.3 M27.45 19.6 Q26.75 21.95 25.1 24.35 L23.05 26.9 23.0 26.9 Q20.2 28.5 14.75 29.35 L3.6 30.1 -7.05 29.1 Q-11.7 28.3 -14.25 27.5 L-19.85 19.8 Q-17.95 20.75 -13.25 21.75 L-3.5 23.1 4.35 24.85 8.65 24.4 12.55 23.0 Q21.45 22.15 27.45 19.6 M-25.45 -17.3 L-25.05 -24.85 Q-23.25 -23.3 -18.4 -22.0 L-18.85 -14.4 -25.45 -17.3 M-24.35 5.25 L-20.6 7.2 -15.55 8.7 -11.35 16.6 -11.35 16.65 -18.65 14.9 Q-20.4 14.35 -22.55 13.3 L-24.35 5.25" fill="#d06402" fill-rule="evenodd" stroke="none"/>
    <path d="M28.85 -38.7 L30.25 -33.45 28.6 -32.0 27.0 -38.0 28.85 -38.7 M31.8 -26.7 L33.05 -18.85 Q32.75 -18.2 31.25 -17.0 L30.1 -24.75 31.8 -26.7 M33.7 -11.15 L33.65 -3.25 31.55 -1.5 31.75 -9.25 32.45 -9.8 33.7 -11.15 M33.05 3.55 L31.75 11.85 29.3 13.55 30.75 5.8 31.9 4.75 33.05 3.55 M30.2 17.9 Q28.65 22.15 27.35 24.5 L23.05 26.9 25.1 24.35 Q26.75 21.95 27.45 19.6 L28.4 19.1 30.2 17.9 M-18.55 25.65 L-21.85 20.35 -22.95 17.9 Q-21.45 19.05 -20.2 19.65 L-19.85 19.8 -14.25 27.5 Q-16.4 26.75 -18.55 25.65 M-25.3 10.75 L-26.65 3.3 -24.35 5.25 -22.55 13.3 -25.3 10.75 M-27.4 -5.1 L-27.55 -12.65 -26.55 -11.05 -25.5 -9.6 -25.2 -2.05 Q-27.0 -4.3 -27.4 -5.1 M-27.35 -20.15 L-26.85 -27.65 -25.95 -26.2 -25.05 -24.85 -25.45 -17.3 -26.4 -18.6 -27.35 -20.15 M-26.15 -35.2 L-25.95 -37.1 Q-25.95 -36.5 -25.4 -36.1 -24.85 -35.7 -24.1 -35.7 L-24.4 -32.7 -26.15 -35.2" fill="#813e01" fill-rule="evenodd" stroke="none"/>
    <path d="M23.95 -30.05 Q24.65 -29.6 25.65 -27.75 26.8 -25.45 27.0 -23.15 20.35 -21.05 15.1 -20.3 L2.65 -19.55 Q-5.75 -19.55 -18.4 -22.0 -18.4 -24.9 -17.3 -26.9 -16.2 -28.95 -14.65 -28.95 L-5.75 -28.05 4.05 -27.35 14.65 -27.95 Q21.15 -28.7 23.95 -30.05 M-18.85 -14.4 Q-15.35 -13.45 -9.75 -12.7 L3.1 -11.8 16.0 -12.5 Q21.75 -13.3 27.5 -15.2 L27.1 -7.2 Q18.9 -4.05 3.4 -4.05 L-6.85 -4.45 Q-14.7 -5.1 -18.4 -6.6 L-18.55 -6.65 -18.85 -14.4 M-17.6 1.05 Q-11.2 3.45 3.7 3.45 L16.7 2.5 26.1 0.7 24.25 8.3 Q19.1 10.65 3.75 10.65 L-7.85 9.9 -15.55 8.7 -17.6 1.05 M20.0 16.4 L20.0 16.6 16.4 19.9 12.55 23.0 Q6.2 23.45 -3.5 23.1 L-7.55 19.9 -11.3 16.65 3.6 17.75 20.0 16.4" fill="#eddc03" fill-rule="evenodd" stroke="none"/>
    <path d="M28.6 -32.0 L30.1 -24.75 27.0 -23.15 Q26.8 -25.45 25.65 -27.75 24.65 -29.6 23.95 -30.05 L26.2 -30.95 28.6 -32.0 M-14.65 -28.95 Q-16.2 -28.95 -17.3 -26.9 -18.4 -24.9 -18.4 -22.0 -23.25 -23.3 -25.05 -24.85 L-24.4 -32.7 Q-20.2 -29.9 -14.65 -28.95 M27.5 -15.2 L31.25 -17.0 31.75 -9.25 27.1 -7.2 27.5 -15.2 M31.55 -1.5 L30.75 5.8 27.65 7.05 24.25 8.3 26.1 0.7 Q26.25 0.65 31.55 -1.5 M20.25 16.35 L25.6 14.95 Q27.85 14.3 29.3 13.55 L27.45 19.6 Q21.45 22.15 12.55 23.0 L16.4 19.9 20.0 16.6 20.25 16.35 M-3.5 23.1 L-13.25 21.75 Q-17.95 20.75 -19.85 19.8 L-20.05 19.45 -22.55 13.3 Q-20.4 14.35 -18.65 14.9 L-11.35 16.65 -11.3 16.65 -7.55 19.9 -3.5 23.1 M-14.25 27.5 Q-11.7 28.3 -7.05 29.1 L3.6 30.1 14.75 29.35 Q20.2 28.5 23.0 26.9 L23.0 26.95 Q21.45 29.45 15.9 31.35 9.35 33.6 0.7 33.6 -2.6 33.6 -7.15 31.7 -11.55 29.85 -14.25 27.5 M-25.45 -17.3 L-18.85 -14.4 -18.55 -6.65 -21.65 -7.6 Q-23.0 -8.1 -25.5 -9.6 L-25.45 -17.3 M-25.2 -2.05 Q-23.65 -0.95 -20.7 0.1 L-17.6 1.05 -15.55 8.7 -20.6 7.2 -24.35 5.25 -25.2 -2.05" fill="#c8b902" fill-rule="evenodd" stroke="none"/>
    <path d="M30.25 -33.45 L31.8 -26.7 30.1 -24.75 28.6 -32.0 30.25 -33.45 M33.05 -18.85 L33.7 -11.15 32.45 -9.8 31.75 -9.25 31.25 -17.0 Q32.75 -18.2 33.05 -18.85 M33.65 -3.25 L33.05 3.55 31.9 4.75 30.75 5.8 31.55 -1.5 33.65 -3.25 M31.75 11.85 L30.2 17.9 28.4 19.1 27.45 19.6 29.3 13.55 31.75 11.85 M27.35 24.5 Q24.4 30.1 17.35 32.9 10.55 35.6 0.4 35.6 -4.65 35.6 -8.65 33.9 -14.2 31.55 -18.55 25.65 -16.4 26.75 -14.25 27.5 -11.55 29.85 -7.15 31.7 -2.6 33.6 0.7 33.6 9.35 33.6 15.9 31.35 21.45 29.45 23.0 26.95 L23.05 26.9 27.35 24.5 M-22.95 17.9 Q-24.3 14.5 -25.3 10.75 L-22.55 13.3 -20.05 19.45 -20.2 19.65 Q-21.45 19.05 -22.95 17.9 M-26.65 3.3 L-27.4 -5.1 Q-27.0 -4.3 -25.2 -2.05 L-24.35 5.25 -26.65 3.3 M-27.55 -12.65 L-27.35 -20.15 -26.4 -18.6 -25.45 -17.3 -25.5 -9.6 -26.55 -11.05 -27.55 -12.65 M-26.85 -27.65 L-26.15 -35.2 -24.4 -32.7 -25.05 -24.85 -25.95 -26.2 -26.85 -27.65" fill="#6d6501" fill-rule="evenodd" stroke="none"/>
    <path d="M-1.95 -107.65 Q-1.5 -108.4 -0.25 -108.7 0.3 -108.85 0.3 -112.2 0.3 -112.85 -0.1 -113.0 L-0.8 -113.1 0.0 -115.7 2.0 -115.6 Q2.75 -116.0 2.75 -118.8 2.75 -119.45 2.35 -119.6 L1.7 -119.65 Q2.75 -121.5 4.85 -122.05 6.2 -122.45 6.2 -125.05 L6.15 -125.95 6.8 -126.9 12.3 -123.7 12.35 -122.1 Q12.45 -120.75 12.95 -120.0 13.45 -119.3 14.05 -119.6 14.6 -119.95 15.05 -122.0 L16.25 -120.7 11.1 -112.35 Q7.85 -105.65 7.85 -97.85 7.85 -89.0 9.9 -85.5 10.6 -84.35 11.75 -83.35 L13.45 -81.75 14.7 -57.9 0.2 -55.8 Q-0.35 -55.5 -0.35 -54.05 L-2.0 -54.15 -5.15 -53.85 -5.4 -48.15 -5.5 -44.45 -9.95 -44.3 -18.05 -45.3 -18.9 -45.1 -18.85 -45.4 -18.6 -47.7 -18.6 -48.5 -18.55 -50.85 -18.3 -55.0 -18.0 -57.2 -18.0 -61.35 -18.2 -63.6 -18.55 -68.05 -18.8 -69.55 -18.8 -73.85 -18.8 -75.85 -18.8 -78.2 -18.8 -79.9 -18.8 -82.75 -18.7 -84.5 -17.35 -88.6 -16.2 -90.25 -12.75 -93.25 -12.05 -94.05 -11.2 -95.35 -10.65 -96.15 -7.6 -99.6 -6.25 -101.0 -3.5 -103.7 -2.05 -105.15 Q-0.75 -106.6 -0.75 -107.6 -0.75 -108.1 -1.0 -108.3 L-1.95 -107.65 M8.9 -128.55 L9.65 -129.3 Q10.3 -130.55 15.45 -124.3 12.65 -126.6 8.9 -128.55 M-22.3 -35.5 L-21.0 -35.35 -21.05 -34.5 -18.85 -34.05 -18.6 -35.1 -17.35 -34.95 -17.8 -32.3 -19.95 -33.1 Q-22.15 -34.15 -22.3 -35.5 M17.9 -103.45 L17.1 -103.65 Q16.25 -103.65 15.45 -101.5 13.95 -97.45 13.2 -87.05 9.8 -91.3 9.8 -98.75 9.8 -103.3 11.45 -108.55 13.85 -116.0 18.5 -119.55 L23.2 -107.7 Q25.95 -100.5 25.95 -93.5 25.95 -85.45 24.25 -83.2 23.35 -82.0 20.45 -82.0 18.4 -82.0 16.8 -83.1 15.55 -83.95 15.55 -84.3 15.55 -97.95 16.15 -99.55 L16.9 -100.45 Q17.55 -101.1 18.05 -103.1 L17.9 -103.45 M5.4 -90.8 L4.95 -98.25 Q4.95 -109.3 9.05 -120.2 4.45 -109.6 1.15 -103.65 -4.85 -92.85 -13.05 -90.75 -15.2 -71.6 -15.2 -58.2 -15.2 -49.2 -14.55 -48.85 -12.55 -49.5 -9.95 -47.45 -7.2 -49.25 -8.45 -59.6 -4.8 -60.45 1.85 -62.4 10.8 -65.05 10.8 -65.95 10.8 -84.1 6.35 -88.6 L7.5 -79.95 Q8.6 -72.1 8.95 -70.7 8.0 -71.1 7.1 -71.45 L4.75 -83.45 4.0 -83.75 Q3.3 -83.45 3.3 -80.2 3.3 -78.75 4.05 -75.0 4.75 -71.65 5.2 -70.25 1.6 -68.25 -4.85 -67.1 L-5.15 -68.5 -4.45 -69.15 Q-4.25 -69.45 -4.25 -70.7 L-4.3 -72.65 -4.5 -72.75 -5.25 -72.9 -6.1 -72.6 -6.25 -72.1 -6.8 -73.2 -8.15 -75.5 Q-8.15 -77.7 -8.95 -79.25 -9.8 -80.8 -11.0 -80.8 L-8.8 -82.2 -7.9 -80.75 -7.2 -81.1 -7.0 -81.2 -5.1 -82.15 -3.9 -82.8 -2.25 -83.7 -1.1 -84.35 0.0 -85.0 3.15 -86.8 3.2 -86.85 5.55 -88.25 5.7 -88.45 5.85 -88.65 Q6.4 -89.35 6.25 -89.95 6.1 -90.55 5.4 -90.8 M0.4 -88.55 Q1.95 -89.85 2.15 -89.4 L1.9 -89.25 0.4 -88.55 M16.9 -56.5 L15.9 -64.8 Q15.1 -72.4 15.1 -77.1 L15.35 -80.8 18.15 -80.1 20.6 -79.8 22.65 -80.15 Q24.0 -80.5 24.8 -81.05 24.15 -78.05 25.3 -67.3 26.45 -56.65 28.35 -47.85 L18.65 -45.2 Q17.45 -52.4 17.2 -54.6 L18.05 -55.3 17.5 -56.45 16.9 -56.5 M15.25 -53.95 L15.3 -53.5 Q7.85 -52.1 5.05 -51.0 L3.1 -49.75 2.85 -49.8 2.45 -50.2 1.15 -52.3 -1.1 -51.9 Q-1.2 -46.1 -0.6 -45.5 L0.7 -45.4 Q0.8 -43.4 2.4 -42.9 L6.7 -42.6 Q9.8 -42.6 12.7 -43.4 15.5 -44.2 15.5 -45.0 15.5 -46.0 13.75 -49.7 L10.4 -49.5 Q9.8 -48.35 10.4 -46.7 L2.15 -45.65 2.6 -46.15 Q3.05 -47.0 3.15 -48.65 L3.15 -49.4 15.55 -51.8 16.9 -43.65 Q15.45 -43.35 15.25 -42.35 15.05 -41.55 12.1 -41.55 L11.5 -41.95 10.9 -42.4 Q7.15 -42.4 7.15 -41.0 7.15 -40.5 7.3 -40.35 L3.9 -40.1 Q4.4 -40.7 4.1 -41.15 3.8 -41.55 3.15 -41.55 L-0.15 -41.35 Q-0.8 -41.15 -0.8 -40.5 L-0.8 -40.35 Q-0.85 -39.85 -1.15 -40.05 -1.55 -40.35 -0.8 -40.35 L-3.15 -40.7 Q-2.8 -43.35 -2.8 -47.0 -2.8 -51.25 -3.45 -51.25 -4.45 -51.25 -3.55 -52.0 -0.05 -52.45 0.45 -53.15 0.25 -53.95 1.6 -53.8 L3.0 -52.65 4.35 -51.9 5.8 -52.25 7.7 -52.65 8.65 -52.85 10.4 -53.15 11.9 -53.45 13.6 -53.7 15.25 -53.95 M6.6 -68.35 L7.75 -68.75 9.2 -69.6 9.75 -67.6 Q7.45 -66.5 3.85 -65.15 -0.8 -63.45 -4.05 -62.75 L-4.1 -63.4 Q-1.35 -63.8 1.4 -65.0 4.5 -66.35 6.6 -68.35 M-6.1 -63.6 L-6.05 -62.25 -6.75 -62.0 -8.2 -61.8 Q-8.8 -61.8 -9.2 -66.35 L-9.5 -70.95 -9.55 -74.3 -9.35 -74.4 -7.7 -65.85 -7.95 -65.55 -7.95 -65.5 Q-7.95 -64.75 -7.4 -64.15 -6.85 -63.6 -6.1 -63.6 M-10.35 -74.75 L-10.75 -75.85 -10.6 -76.75 -9.95 -78.5 Q-9.6 -78.0 -9.4 -77.15 -9.2 -76.25 -9.3 -75.7 -9.3 -75.3 -9.6 -75.0 -9.9 -74.75 -10.35 -74.75 M19.05 -41.25 Q19.85 -43.35 23.6 -44.5 L28.7 -46.1 29.65 -41.5 Q27.95 -40.05 22.85 -38.85 14.35 -36.9 0.0 -36.9 L-8.0 -37.0 -11.5 -37.6 -15.8 -38.05 -15.8 -43.25 Q-15.8 -42.9 -12.3 -42.5 L-8.05 -42.2 -5.35 -40.3 -9.3 -41.35 -13.35 -41.35 -13.6 -39.05 Q-13.6 -38.35 -11.4 -37.8 L-9.05 -37.4 Q-8.8 -37.4 -7.45 -37.9 -5.85 -38.5 -4.85 -39.2 -3.5 -38.4 -2.25 -38.1 L0.0 -37.95 Q1.4 -37.95 2.95 -38.95 2.95 -38.5 3.35 -38.15 3.75 -37.85 4.3 -37.85 L5.0 -39.4 Q11.35 -38.6 16.95 -40.95 L17.0 -39.7 18.5 -39.4 19.0 -39.9 Q19.4 -40.3 19.05 -41.25 M1.55 -49.3 Q2.15 -48.1 1.55 -46.55 L0.15 -46.85 0.1 -48.8 0.25 -49.8 1.55 -49.3 M23.0 26.9 L23.05 26.9 23.0 26.95 23.0 26.9 M-7.2 -130.15 Q-5.8 -131.05 -2.9 -132.25 -8.85 -124.0 -14.7 -110.2 -19.8 -98.3 -20.85 -92.45 L-22.6 -99.65 -24.2 -106.7 -10.45 -126.95 Q-9.0 -128.95 -7.2 -130.15 M-21.45 -106.75 Q-22.4 -106.75 -23.05 -106.35 -23.7 -106.0 -23.7 -105.45 L-23.55 -104.05 Q-23.3 -103.25 -22.8 -103.0 -22.3 -102.75 -21.85 -103.2 -21.4 -103.65 -21.25 -104.75 L-21.0 -99.95 Q-20.85 -99.05 -20.15 -99.05 -19.5 -99.05 -18.5 -104.7 L-17.6 -110.35 Q-18.1 -110.7 -19.45 -109.1 -20.85 -107.5 -21.0 -106.45 L-21.45 -106.75 M-26.2 -101.15 L-25.8 -100.0 -25.05 -97.85 -24.8 -96.05 -24.4 -94.5 -24.0 -92.55 -23.7 -91.1 -23.6 -89.85 Q-23.6 -89.05 -23.25 -88.5 -22.95 -87.95 -22.45 -87.95 L-21.85 -51.05 -21.9 -51.65 -22.5 -47.3 -24.45 -48.15 -28.75 -48.45 Q-28.05 -52.0 -27.2 -59.7 -26.2 -68.85 -26.2 -73.85 -26.2 -76.3 -29.65 -82.85 -33.15 -89.4 -33.15 -94.35 -33.15 -95.5 -29.85 -100.95 L-23.65 -111.05 -26.15 -104.4 -26.75 -104.75 Q-27.2 -103.35 -26.2 -101.15 M-3.9 -110.8 L-3.45 -112.25 Q-3.1 -113.85 -3.75 -114.5 -9.4 -109.25 -11.7 -105.85 L-15.5 -98.75 Q-14.8 -98.3 -13.45 -99.55 -11.5 -101.25 -5.55 -107.9 -4.8 -107.9 -4.25 -108.2 -3.7 -108.5 -3.7 -108.9 L-3.9 -110.8 M-5.6 -114.65 Q-3.55 -116.2 -1.65 -118.8 -1.65 -109.9 -6.65 -104.05 -8.2 -102.25 -12.05 -98.8 L-18.6 -92.5 Q-12.55 -108.35 -8.75 -112.15 L-5.6 -114.65 M-5.95 -79.3 L-6.25 -77.75 -5.95 -76.2 Q-5.65 -75.55 -5.2 -75.55 -4.75 -75.55 -4.45 -76.2 -4.15 -76.85 -4.15 -77.75 -4.15 -78.65 -4.45 -79.3 -4.75 -79.95 -5.2 -79.95 -5.65 -79.95 -5.95 -79.3 M-26.35 -96.8 Q-27.1 -98.25 -28.15 -98.25 -29.2 -98.25 -29.9 -96.8 -30.65 -95.4 -30.65 -93.4 -30.65 -91.4 -29.9 -89.95 -29.2 -88.55 -28.15 -88.55 -27.1 -88.55 -26.35 -89.95 -25.65 -91.4 -25.65 -93.4 -25.65 -95.4 -26.35 -96.8 M-24.0 -71.95 Q-24.05 -72.85 -24.6 -74.05 L-24.0 -71.35 -24.0 -71.95 M-3.95 -58.25 Q-4.3 -58.9 -4.75 -58.9 -5.2 -58.9 -5.5 -58.25 -5.85 -57.6 -5.85 -56.7 -5.85 -55.8 -5.5 -55.15 -5.2 -54.5 -4.75 -54.5 -4.3 -54.5 -3.95 -55.15 -3.65 -55.8 -3.65 -56.7 -3.65 -57.6 -3.95 -58.25 M-19.6 -41.2 L-19.3 -42.6 -18.0 -42.5 -18.0 -41.0 -19.6 -41.2 M-19.45 -38.45 L-19.5 -38.85 -18.15 -38.7 Q-17.95 -38.8 -17.95 -38.3 L-19.45 -38.45 M-18.05 -37.9 L-18.0 -38.05 Q-18.05 -37.9 -17.95 -38.05 L-18.05 -37.9 M-26.25 -44.7 L-25.75 -42.9 Q-25.5 -42.15 -24.6 -42.15 -24.05 -42.15 -23.7 -42.45 L-22.95 -43.0 -23.35 -39.0 Q-30.35 -39.85 -30.35 -41.65 L-29.9 -44.15 -29.1 -47.0 Q-26.6 -45.6 -25.3 -45.3 L-25.8 -44.85 Q-26.05 -44.65 -26.25 -44.7 M-11.35 16.65 L-11.35 16.6 -11.3 16.65 -11.35 16.65" fill="#363636" fill-rule="evenodd" stroke="none"/>
    <path d="M12.3 -123.7 L6.8 -126.9 6.15 -125.95 6.2 -125.05 Q6.2 -122.45 4.85 -122.05 2.75 -121.5 1.7 -119.65 L2.35 -119.6 Q2.75 -119.45 2.75 -118.8 2.75 -116.0 2.0 -115.6 L0.0 -115.7 -0.8 -113.1 -0.1 -113.0 Q0.3 -112.85 0.3 -112.2 0.3 -108.85 -0.25 -108.7 -1.5 -108.4 -1.95 -107.65 L-3.6 -106.05 -4.7 -105.0 -7.65 -102.0 -9.0 -100.6 -10.55 -98.9 -12.2 -96.85 -13.5 -95.3 -14.75 -93.95 -17.35 -91.35 -18.45 -90.1 Q-19.0 -89.75 -20.45 -84.8 L-20.6 -82.7 -20.65 -79.3 -20.65 -78.15 -20.7 -74.35 -20.7 -73.3 -20.7 -69.5 -20.45 -67.65 -20.1 -63.3 -19.95 -61.0 -19.95 -57.25 -20.2 -55.05 -20.45 -50.7 -20.4 -48.4 -20.35 -47.8 -20.6 -45.55 -20.65 -45.1 -18.9 -44.9 -18.9 -45.1 -18.05 -45.3 -9.95 -44.3 -5.5 -44.45 -5.4 -48.15 -5.15 -53.85 -2.0 -54.15 -0.35 -54.05 Q-0.35 -55.5 0.2 -55.8 L14.7 -57.9 13.45 -81.75 11.75 -83.35 Q10.6 -84.35 9.9 -85.5 7.85 -89.0 7.85 -97.85 7.85 -105.65 11.1 -112.35 L16.25 -120.7 15.05 -122.0 15.1 -123.4 Q14.95 -124.4 14.45 -124.9 13.95 -125.45 13.4 -125.2 12.8 -125.0 12.3 -123.7 M8.9 -128.55 Q12.65 -126.6 15.45 -124.3 10.3 -130.55 9.65 -129.3 L8.9 -128.55 M2.4 -132.55 L2.4 -132.6 Q-1.7 -132.65 -1.2 -132.15 -2.95 -129.1 -4.55 -128.7 L-12.75 -109.3 Q-8.9 -113.95 -1.6 -121.0 L8.35 -130.7 2.4 -132.55 M-25.95 -37.1 L-29.35 -38.3 Q-32.35 -39.65 -32.35 -41.65 L-30.2 -49.15 Q-28.1 -57.95 -28.1 -64.75 -28.1 -72.75 -31.75 -79.1 -35.45 -85.5 -35.45 -95.1 -35.45 -101.05 -27.45 -111.1 -22.9 -116.85 -12.9 -127.65 -9.55 -131.5 -7.05 -132.8 -4.0 -134.4 1.25 -134.4 8.0 -133.8 14.7 -128.4 28.0 -117.65 28.0 -93.55 28.0 -87.05 27.35 -83.45 26.7 -79.85 26.7 -76.55 26.7 -74.45 27.2 -69.05 27.85 -62.2 28.8 -56.65 29.45 -52.95 30.85 -48.55 31.65 -46.0 31.65 -41.35 31.65 -41.0 31.25 -40.45 30.5 -39.5 28.85 -38.7 L27.0 -38.0 24.75 -37.4 19.65 -36.4 6.25 -35.6 Q-3.35 -35.15 -6.6 -35.25 L-15.8 -36.05 -16.0 -35.55 -16.1 -35.4 -16.2 -36.05 -16.25 -42.8 Q-16.4 -44.65 -17.1 -44.9 L-19.75 -44.75 Q-22.4 -44.45 -25.2 -44.85 L-25.35 -44.35 Q-25.3 -43.0 -24.95 -42.75 L-24.55 -42.75 -24.65 -43.25 Q-24.75 -43.65 -24.15 -43.65 L-17.4 -43.05 -17.35 -36.65 Q-24.2 -37.45 -24.2 -37.9 L-24.15 -38.35 -24.75 -38.5 -25.15 -38.35 -25.4 -36.95 -25.25 -36.35 -16.8 -35.45 -16.15 -35.35 Q-16.55 -35.0 -17.35 -34.95 L-18.6 -35.1 -21.0 -35.35 -22.3 -35.5 -24.1 -35.7 Q-24.85 -35.7 -25.4 -36.1 -25.95 -36.5 -25.95 -37.1 M17.9 -103.45 L18.05 -103.1 Q17.55 -101.1 16.9 -100.45 L16.15 -99.55 Q15.55 -97.95 15.55 -84.3 15.55 -83.95 16.8 -83.1 18.4 -82.0 20.45 -82.0 23.35 -82.0 24.25 -83.2 25.95 -85.45 25.95 -93.5 25.95 -100.5 23.2 -107.7 L18.5 -119.55 Q13.85 -116.0 11.45 -108.55 9.8 -103.3 9.8 -98.75 9.8 -91.3 13.2 -87.05 13.95 -97.45 15.45 -101.5 16.25 -103.65 17.1 -103.65 L17.9 -103.45 M-8.45 -59.6 L-10.95 -65.65 Q-12.8 -69.9 -13.45 -72.6 -15.45 -80.95 -8.8 -83.8 L-8.1 -83.0 -8.5 -82.5 -8.8 -82.2 -11.0 -80.8 Q-11.7 -80.35 -10.75 -75.85 L-10.35 -74.75 -10.2 -74.25 -9.5 -70.95 -9.2 -66.35 Q-8.8 -61.8 -8.2 -61.8 L-6.75 -62.0 -6.05 -62.25 -6.1 -63.6 -5.7 -63.75 Q-4.9 -63.3 -4.1 -63.4 L-4.05 -62.75 Q-0.8 -63.45 3.85 -65.15 7.45 -66.5 9.75 -67.6 L9.2 -69.6 8.95 -70.7 Q8.6 -72.1 7.5 -79.95 L6.35 -88.6 Q10.8 -84.1 10.8 -65.95 10.8 -65.05 1.85 -62.4 -4.8 -60.45 -8.45 -59.6 M-6.25 -72.1 L-6.1 -72.6 -5.25 -72.9 -4.5 -72.75 -4.3 -72.65 -4.25 -70.7 Q-4.25 -69.45 -4.45 -69.15 L-5.15 -68.5 -6.25 -72.1 M17.2 -54.6 Q17.45 -52.4 18.65 -45.2 L28.35 -47.85 Q26.45 -56.65 25.3 -67.3 24.15 -78.05 24.8 -81.05 24.0 -80.5 22.65 -80.15 L20.6 -79.8 18.15 -80.1 15.35 -80.8 15.1 -77.1 Q15.1 -72.4 15.9 -64.8 L16.9 -56.5 16.3 -56.55 14.7 -56.35 13.4 -56.2 11.65 -55.9 10.05 -55.65 8.15 -55.3 7.3 -55.1 5.3 -54.7 3.5 -54.25 1.65 -53.8 1.6 -53.8 Q0.25 -53.95 0.45 -53.15 -0.05 -52.45 -3.55 -52.0 -4.45 -51.25 -3.45 -51.25 -2.8 -51.25 -2.8 -47.0 -2.8 -43.35 -3.15 -40.7 L-0.8 -40.35 Q-1.55 -40.35 -1.15 -40.05 -0.85 -39.85 -0.8 -40.35 L-0.8 -40.5 Q-0.8 -41.15 -0.15 -41.35 L3.15 -41.55 Q3.8 -41.55 4.1 -41.15 4.4 -40.7 3.9 -40.1 L7.3 -40.35 Q7.15 -40.5 7.15 -41.0 7.15 -42.4 10.9 -42.4 L11.5 -41.95 12.1 -41.55 Q15.05 -41.55 15.25 -42.35 15.45 -43.35 16.9 -43.65 L15.55 -51.8 3.15 -49.4 3.1 -49.75 5.05 -51.0 Q7.85 -52.1 15.3 -53.5 L15.25 -53.95 16.6 -54.15 17.2 -54.6 M-5.35 -40.3 L-8.05 -42.2 -12.3 -42.5 Q-15.8 -42.9 -15.8 -43.25 L-15.8 -38.05 -11.5 -37.6 -8.0 -37.0 0.0 -36.9 Q14.35 -36.9 22.85 -38.85 27.95 -40.05 29.65 -41.5 L28.7 -46.1 23.6 -44.5 Q19.85 -43.35 19.05 -41.25 18.1 -41.9 16.95 -40.95 11.35 -38.6 5.0 -39.4 L3.9 -39.25 2.95 -38.95 Q1.4 -37.95 0.0 -37.95 L-2.25 -38.1 Q-3.5 -38.4 -4.85 -39.2 L-5.05 -39.45 -5.35 -40.3 M-7.2 -130.15 Q-9.0 -128.95 -10.45 -126.95 L-24.2 -106.7 -22.6 -99.65 -20.85 -92.45 Q-19.8 -98.3 -14.7 -110.2 -8.85 -124.0 -2.9 -132.25 -5.8 -131.05 -7.2 -130.15 M-24.35 -100.35 L-25.0 -102.3 -26.15 -104.4 -23.65 -111.05 -29.85 -100.95 Q-33.15 -95.5 -33.15 -94.35 -33.15 -89.4 -29.65 -82.85 -26.2 -76.3 -26.2 -73.85 -26.2 -68.85 -27.2 -59.7 -28.05 -52.0 -28.75 -48.45 L-24.45 -48.15 -22.5 -47.3 -21.9 -51.65 -21.85 -51.05 -22.45 -87.95 -22.1 -88.45 Q-21.75 -89.15 -21.9 -89.9 L-22.25 -92.25 -22.45 -93.15 -22.85 -94.65 -23.55 -96.9 -23.8 -98.5 -24.35 -100.35 M-5.6 -114.65 L-8.75 -112.15 Q-12.55 -108.35 -18.6 -92.5 L-12.05 -98.8 Q-8.2 -102.25 -6.65 -104.05 -1.65 -109.9 -1.65 -118.8 -3.55 -116.2 -5.6 -114.65 M-5.95 -79.3 Q-5.65 -79.95 -5.2 -79.95 -4.75 -79.95 -4.45 -79.3 -4.15 -78.65 -4.15 -77.75 -4.15 -76.85 -4.45 -76.2 -4.75 -75.55 -5.2 -75.55 -5.65 -75.55 -5.95 -76.2 L-6.25 -77.75 -5.95 -79.3 M-3.95 -58.25 Q-3.65 -57.6 -3.65 -56.7 -3.65 -55.8 -3.95 -55.15 -4.3 -54.5 -4.75 -54.5 -5.2 -54.5 -5.5 -55.15 -5.85 -55.8 -5.85 -56.7 -5.85 -57.6 -5.5 -58.25 -5.2 -58.9 -4.75 -58.9 -4.3 -58.9 -3.95 -58.25 M-19.3 -42.6 L-20.55 -42.5 Q-21.25 -42.35 -21.4 -42.05 -21.6 -41.75 -21.15 -41.5 L-19.6 -41.2 -18.0 -41.0 -18.0 -42.5 -19.3 -42.6 M-18.2 -40.55 L-19.65 -40.8 -21.05 -40.55 -21.65 -40.05 Q-21.65 -39.75 -21.05 -39.5 L-19.65 -39.3 -18.2 -39.5 Q-17.65 -39.75 -17.65 -40.05 -17.65 -40.35 -18.2 -40.55 M-18.0 -38.05 L-19.45 -38.3 -19.45 -38.45 -17.95 -38.3 Q-17.95 -38.8 -18.15 -38.7 L-19.5 -38.85 -21.45 -39.1 -21.3 -38.7 -21.45 -38.05 -18.05 -37.9 -17.95 -38.05 Q-18.05 -37.9 -18.0 -38.05 M-26.25 -44.7 Q-26.05 -44.65 -25.8 -44.85 L-25.3 -45.3 Q-26.6 -45.6 -29.1 -47.0 L-29.9 -44.15 -30.35 -41.65 Q-30.35 -39.85 -23.35 -39.0 L-22.95 -43.0 -23.7 -42.45 Q-24.05 -42.15 -24.6 -42.15 -25.5 -42.15 -25.75 -42.9 L-26.25 -44.7" fill="#1a1a1a" fill-rule="evenodd" stroke="none"/>
    <path d="M-1.95 -107.65 L-1.0 -108.3 Q-0.75 -108.1 -0.75 -107.6 -0.75 -106.6 -2.05 -105.15 L-3.1 -106.5 -3.6 -106.05 -1.95 -107.65 M-3.5 -103.7 L-6.25 -101.0 -7.65 -102.0 -4.7 -105.0 -3.5 -103.7 M-7.6 -99.6 L-10.65 -96.15 Q-10.1 -96.85 -10.55 -98.9 L-9.0 -100.6 -7.6 -99.6 M-11.2 -95.35 L-12.05 -94.05 -13.5 -95.3 -12.2 -96.85 -11.2 -95.35 M-12.75 -93.25 L-16.2 -90.25 -17.35 -91.35 -14.75 -93.95 -13.35 -92.8 -12.75 -93.25 M-17.35 -88.6 L-18.7 -84.5 -18.75 -84.75 -20.45 -84.8 Q-19.0 -89.75 -18.45 -90.1 L-17.35 -88.6 M-18.8 -82.75 L-18.8 -79.9 -20.65 -80.05 -20.65 -79.3 -20.6 -82.7 -18.8 -82.75 M-18.8 -78.2 L-18.8 -75.85 Q-19.95 -75.6 -20.45 -74.95 L-20.7 -74.35 -20.65 -78.15 -18.8 -78.2 M-18.8 -73.85 L-18.8 -69.55 -20.7 -69.5 -20.7 -73.3 -18.8 -73.85 M-18.55 -68.05 L-18.2 -63.6 -20.1 -63.3 -20.45 -67.65 -18.55 -68.05 M-18.0 -61.35 L-18.0 -57.2 -19.95 -57.25 -19.95 -61.0 -18.0 -61.35 M-18.3 -55.0 L-18.55 -50.85 -20.45 -50.7 -20.2 -55.05 -18.3 -55.0 M-18.6 -48.5 L-18.6 -47.7 -20.35 -47.8 -20.4 -48.4 -18.6 -48.5 M-18.85 -45.4 L-18.9 -45.1 -18.9 -44.9 -20.65 -45.1 -20.6 -45.55 -18.85 -45.4 M15.05 -122.0 Q14.6 -119.95 14.05 -119.6 13.45 -119.3 12.95 -120.0 12.45 -120.75 12.35 -122.1 L12.3 -123.7 Q12.8 -125.0 13.4 -125.2 13.95 -125.45 14.45 -124.9 14.95 -124.4 15.1 -123.4 L15.05 -122.0 M-21.0 -35.35 L-18.6 -35.1 -18.85 -34.05 -21.05 -34.5 -21.0 -35.35 M-16.15 -35.35 L-16.8 -35.45 -25.25 -36.35 -25.4 -36.95 -25.15 -38.35 -24.75 -38.5 -24.15 -38.35 -24.2 -37.9 Q-24.2 -37.45 -17.35 -36.65 L-17.4 -43.05 -24.15 -43.65 Q-24.75 -43.65 -24.65 -43.25 L-24.55 -42.75 -24.95 -42.75 Q-25.3 -43.0 -25.35 -44.35 L-25.2 -44.85 Q-22.4 -44.45 -19.75 -44.75 L-17.1 -44.9 Q-16.4 -44.65 -16.25 -42.8 L-16.2 -36.05 -16.1 -35.4 -16.1 -35.35 -16.15 -35.35 M-8.8 -83.8 L-8.0 -84.3 -7.0 -81.2 -7.2 -81.1 -8.5 -82.5 -8.1 -83.0 -8.8 -83.8 M-6.1 -85.4 L-5.55 -85.65 -3.9 -82.8 -5.1 -82.15 Q-5.95 -83.45 -6.1 -85.4 M-3.75 -86.55 L-3.1 -86.85 -1.1 -84.35 -2.25 -83.7 -3.75 -86.55 M-1.4 -87.7 Q-0.65 -88.05 0.15 -88.45 L1.85 -86.2 3.15 -86.8 0.0 -85.0 0.45 -85.6 -1.4 -87.7 M2.15 -89.4 L3.8 -90.15 4.2 -87.45 3.65 -87.1 1.9 -89.25 2.15 -89.4 M4.65 -90.55 L5.4 -90.8 Q6.1 -90.55 6.25 -89.95 6.4 -89.35 5.85 -88.65 L4.65 -90.55 M5.7 -88.45 L5.55 -88.25 5.45 -88.2 5.7 -88.45 M-11.0 -80.8 Q-9.8 -80.8 -8.95 -79.25 -8.15 -77.7 -8.15 -75.5 L-9.35 -74.4 -9.55 -74.3 -10.2 -74.25 -10.35 -74.75 Q-9.9 -74.75 -9.6 -75.0 -9.3 -75.3 -9.3 -75.7 L-8.85 -76.7 -8.55 -77.8 Q-8.95 -78.85 -9.8 -79.35 -10.5 -78.35 -10.6 -76.75 L-10.75 -75.85 Q-11.7 -80.35 -11.0 -80.8 M7.1 -71.45 Q8.0 -71.1 8.95 -70.7 L9.2 -69.6 7.75 -68.75 6.6 -68.35 5.9 -68.4 Q5.65 -68.5 5.65 -69.1 5.65 -70.1 7.1 -71.45 M16.9 -56.5 L17.5 -56.45 18.05 -55.3 17.2 -54.6 16.6 -54.15 16.3 -56.55 16.9 -56.5 M3.5 -54.25 L5.3 -54.7 5.3 -54.65 5.8 -52.25 4.35 -51.9 3.5 -54.25 M7.3 -55.1 L8.15 -55.3 8.65 -52.85 7.7 -52.65 7.3 -55.1 M10.05 -55.65 L11.65 -55.9 11.9 -53.45 10.4 -53.15 10.05 -55.65 M13.4 -56.2 L14.7 -56.35 14.65 -54.1 15.25 -53.95 13.6 -53.7 13.4 -56.2 M-5.7 -63.75 L-6.1 -63.6 Q-6.85 -63.6 -7.4 -64.15 -7.95 -64.75 -7.95 -65.5 -7.95 -64.95 -7.2 -64.5 -6.5 -64.05 -5.45 -64.05 L-5.7 -63.75 M1.15 -52.3 L2.45 -50.2 2.85 -49.8 3.15 -48.65 Q3.05 -47.0 2.6 -46.15 L2.15 -45.65 1.55 -45.5 1.55 -46.55 Q2.15 -48.1 1.55 -49.3 L1.15 -52.3 M19.05 -41.25 Q19.4 -40.3 19.0 -39.9 L18.85 -40.85 17.7 -40.85 17.7 -39.65 18.5 -39.4 17.0 -39.7 16.95 -40.95 Q18.1 -41.9 19.05 -41.25 M4.3 -37.85 Q3.75 -37.85 3.35 -38.15 2.95 -38.5 2.95 -38.95 L3.9 -39.25 4.3 -37.85 M-0.6 -45.5 Q-1.2 -46.1 -1.1 -51.9 L-0.6 -45.5 M-23.7 -105.45 Q-22.75 -105.45 -22.1 -105.8 -21.45 -106.2 -21.45 -106.75 L-21.0 -106.45 Q-20.9 -105.65 -21.05 -105.15 L-21.25 -104.75 Q-21.4 -103.65 -21.85 -103.2 -22.3 -102.75 -22.8 -103.0 -23.3 -103.25 -23.55 -104.05 L-23.7 -105.45 M-25.8 -100.0 L-24.35 -100.35 -23.8 -98.5 -25.05 -97.85 -25.8 -100.0 M-25.0 -102.3 L-26.2 -101.15 Q-27.2 -103.35 -26.75 -104.75 L-26.15 -104.4 -25.0 -102.3 M-22.45 -87.95 Q-22.95 -87.95 -23.25 -88.5 -23.6 -89.05 -23.6 -89.85 L-21.9 -89.9 Q-21.75 -89.15 -22.1 -88.45 L-22.45 -87.95 M-23.7 -91.1 L-24.0 -92.55 -22.45 -93.15 -22.25 -92.25 -23.7 -91.1 M-24.4 -94.5 L-24.8 -96.05 -23.55 -96.9 -22.85 -94.65 -24.4 -94.5 M-5.55 -107.9 L-5.9 -108.6 Q-6.15 -109.6 -5.5 -110.85 L-5.7 -109.7 -3.7 -108.9 Q-3.7 -108.5 -4.25 -108.2 -4.8 -107.9 -5.55 -107.9 M-18.2 -40.55 Q-17.65 -40.35 -17.65 -40.05 -17.65 -39.75 -18.2 -39.5 L-19.65 -39.3 -21.05 -39.5 Q-21.65 -39.75 -21.65 -40.05 L-21.05 -40.55 -19.65 -40.8 -18.2 -40.55 M-19.45 -38.45 L-19.45 -38.3 -18.0 -38.05 -18.05 -37.9 -21.45 -38.05 -21.3 -38.7 -21.45 -39.1 -19.5 -38.85 -19.45 -38.45" fill="#cccccc" fill-rule="evenodd" stroke="none"/>
    <path d="M-8.45 -59.6 Q-7.2 -49.25 -9.95 -47.45 -12.55 -49.5 -14.55 -48.85 -15.2 -49.2 -15.2 -58.2 -15.2 -71.6 -13.05 -90.75 -4.85 -92.85 1.15 -103.65 4.45 -109.6 9.05 -120.2 4.95 -109.3 4.95 -98.25 L5.4 -90.8 4.65 -90.55 3.8 -90.15 2.15 -89.4 Q1.95 -89.85 0.4 -88.55 L0.15 -88.45 Q-0.65 -88.05 -1.4 -87.7 L-3.1 -86.85 -3.75 -86.55 -5.55 -85.65 -6.1 -85.4 -8.0 -84.3 -8.8 -83.8 Q-15.45 -80.95 -13.45 -72.6 -12.8 -69.9 -10.95 -65.65 L-8.45 -59.6 M5.55 -88.25 L3.2 -86.85 3.65 -87.1 4.2 -87.45 5.45 -88.2 5.55 -88.25 M-8.15 -75.5 L-6.8 -73.2 -6.25 -72.1 -5.15 -68.5 -4.85 -67.1 Q1.6 -68.25 5.2 -70.25 4.75 -71.65 4.05 -75.0 3.3 -78.75 3.3 -80.2 3.3 -83.45 4.0 -83.75 L4.75 -83.45 7.1 -71.45 Q5.65 -70.1 5.65 -69.1 5.65 -68.5 5.9 -68.4 L6.6 -68.35 Q4.5 -66.35 1.4 -65.0 -1.35 -63.8 -4.1 -63.4 -4.9 -63.3 -5.7 -63.75 L-5.45 -64.05 Q-5.45 -64.8 -6.1 -65.3 -6.75 -65.85 -7.7 -65.85 L-9.35 -74.4 -8.15 -75.5 M-9.5 -70.95 L-10.2 -74.25 -9.55 -74.3 -9.5 -70.95 M-4.85 -39.2 Q-5.85 -38.5 -7.45 -37.9 -8.8 -37.4 -9.05 -37.4 L-11.4 -37.8 Q-13.6 -38.35 -13.6 -39.05 L-13.35 -41.35 -9.3 -41.35 -5.35 -40.3 -5.05 -39.45 -4.85 -39.2 M2.15 -45.65 L10.4 -46.7 Q9.8 -48.35 10.4 -49.5 L13.75 -49.7 Q15.5 -46.0 15.5 -45.0 15.5 -44.2 12.7 -43.4 9.8 -42.6 6.7 -42.6 L2.4 -42.9 Q0.8 -43.4 0.7 -45.4 L1.55 -45.5 2.15 -45.65 M-21.0 -106.45 Q-20.85 -107.5 -19.45 -109.1 -18.1 -110.7 -17.6 -110.35 L-18.5 -104.7 Q-19.5 -99.05 -20.15 -99.05 -20.85 -99.05 -21.0 -99.95 L-21.25 -104.75 -21.05 -105.15 Q-20.9 -105.65 -21.0 -106.45 M-5.55 -107.9 Q-11.5 -101.25 -13.45 -99.55 -14.8 -98.3 -15.5 -98.75 L-11.7 -105.85 Q-9.4 -109.25 -3.75 -114.5 -3.1 -113.85 -3.45 -112.25 L-3.9 -110.8 -5.5 -110.85 Q-6.15 -109.6 -5.9 -108.6 L-5.55 -107.9 M-26.35 -96.8 Q-25.65 -95.4 -25.65 -93.4 -25.65 -91.4 -26.35 -89.95 -27.1 -88.55 -28.15 -88.55 -29.2 -88.55 -29.9 -89.95 -30.65 -91.4 -30.65 -93.4 -30.65 -95.4 -29.9 -96.8 -29.2 -98.25 -28.15 -98.25 -27.1 -98.25 -26.35 -96.8 M-24.0 -71.95 L-24.0 -71.35 -24.6 -74.05 Q-24.05 -72.85 -24.0 -71.95" fill="#535353" fill-rule="evenodd" stroke="none"/>
    <path d="M-2.05 -105.15 L-3.5 -103.7 -4.7 -105.0 -3.6 -106.05 -3.1 -106.5 -2.05 -105.15 M-6.25 -101.0 L-7.6 -99.6 -9.0 -100.6 -7.65 -102.0 -6.25 -101.0 M-10.65 -96.15 L-11.2 -95.35 -12.2 -96.85 -10.55 -98.9 Q-10.1 -96.85 -10.65 -96.15 M-12.05 -94.05 L-12.75 -93.25 -13.35 -92.8 -14.75 -93.95 -13.5 -95.3 -12.05 -94.05 M-16.2 -90.25 L-17.35 -88.6 -18.45 -90.1 -17.35 -91.35 -16.2 -90.25 M-18.7 -84.5 L-18.8 -82.75 -20.6 -82.7 -20.45 -84.8 -18.75 -84.75 -18.7 -84.5 M-18.8 -79.9 L-18.8 -78.2 -20.65 -78.15 -20.65 -79.3 -20.65 -80.05 -18.8 -79.9 M-18.8 -75.85 L-18.8 -73.85 -20.7 -73.3 -20.7 -74.35 -20.45 -74.95 Q-19.95 -75.6 -18.8 -75.85 M-18.8 -69.55 L-18.55 -68.05 -20.45 -67.65 -20.7 -69.5 -18.8 -69.55 M-18.2 -63.6 L-18.0 -61.35 -19.95 -61.0 -20.1 -63.3 -18.2 -63.6 M-18.0 -57.2 L-18.3 -55.0 -20.2 -55.05 -19.95 -57.25 -18.0 -57.2 M-18.55 -50.85 L-18.6 -48.5 -20.4 -48.4 -20.45 -50.7 -18.55 -50.85 M-18.6 -47.7 L-18.85 -45.4 -20.6 -45.55 -20.35 -47.8 -18.6 -47.7 M-8.0 -84.3 L-6.1 -85.4 Q-5.95 -83.45 -5.1 -82.15 L-7.0 -81.2 -8.0 -84.3 M-5.55 -85.65 L-3.75 -86.55 -2.25 -83.7 -3.9 -82.8 -5.55 -85.65 M-3.1 -86.85 L-1.4 -87.7 0.45 -85.6 0.0 -85.0 -1.1 -84.35 -3.1 -86.85 M0.15 -88.45 L0.4 -88.55 1.9 -89.25 3.65 -87.1 3.2 -86.85 3.15 -86.8 1.85 -86.2 0.15 -88.45 M3.8 -90.15 L4.65 -90.55 5.85 -88.65 5.7 -88.45 5.45 -88.2 4.2 -87.45 3.8 -90.15 M-7.2 -81.1 L-7.9 -80.75 -8.8 -82.2 -8.5 -82.5 -7.2 -81.1 M16.6 -54.15 L15.25 -53.95 14.65 -54.1 14.7 -56.35 16.3 -56.55 16.6 -54.15 M3.1 -49.75 L3.15 -49.4 3.15 -48.65 2.85 -49.8 3.1 -49.75 M1.6 -53.8 L1.65 -53.8 3.5 -54.25 4.35 -51.9 3.0 -52.65 1.6 -53.8 M5.3 -54.7 L7.3 -55.1 7.7 -52.65 5.8 -52.25 5.3 -54.65 5.3 -54.7 M8.15 -55.3 L10.05 -55.65 10.4 -53.15 8.65 -52.85 8.15 -55.3 M11.65 -55.9 L13.4 -56.2 13.6 -53.7 11.9 -53.45 11.65 -55.9 M19.0 -39.9 L18.5 -39.4 17.7 -39.65 17.7 -40.85 18.85 -40.85 19.0 -39.9 M5.0 -39.4 L4.3 -37.85 3.9 -39.25 5.0 -39.4 M0.7 -45.4 L-0.6 -45.5 -1.1 -51.9 1.15 -52.3 1.55 -49.3 0.25 -49.8 0.1 -48.8 0.15 -46.85 1.55 -46.55 1.55 -45.5 0.7 -45.4 M-23.7 -105.45 Q-23.7 -106.0 -23.05 -106.35 -22.4 -106.75 -21.45 -106.75 -21.45 -106.2 -22.1 -105.8 -22.75 -105.45 -23.7 -105.45 M-25.8 -100.0 L-26.2 -101.15 -25.0 -102.3 -24.35 -100.35 -25.8 -100.0 M-23.6 -89.85 L-23.7 -91.1 -22.25 -92.25 -21.9 -89.9 -23.6 -89.85 M-24.0 -92.55 L-24.4 -94.5 -22.85 -94.65 -22.45 -93.15 -24.0 -92.55 M-24.8 -96.05 L-25.05 -97.85 -23.8 -98.5 -23.55 -96.9 -24.8 -96.05 M-5.5 -110.85 L-3.9 -110.8 -3.7 -108.9 -5.7 -109.7 -5.5 -110.85 M-10.6 -76.75 Q-10.5 -78.35 -9.8 -79.35 -8.95 -78.85 -8.55 -77.8 L-8.85 -76.7 -9.3 -75.7 Q-9.2 -76.25 -9.4 -77.15 -9.6 -78.0 -9.95 -78.5 L-10.6 -76.75 M-7.7 -65.85 Q-6.75 -65.85 -6.1 -65.3 -5.45 -64.8 -5.45 -64.05 -6.5 -64.05 -7.2 -64.5 -7.95 -64.95 -7.95 -65.5 L-7.95 -65.55 -7.7 -65.85 M-19.3 -42.6 L-19.6 -41.2 -21.15 -41.5 Q-21.6 -41.75 -21.4 -42.05 -21.25 -42.35 -20.55 -42.5 L-19.3 -42.6" fill="#8d8d8d" fill-rule="evenodd" stroke="none"/>
  </g>
</svg>
