<?xml version="1.0" encoding="UTF-8" standalone="no"?>
<svg xmlns:ffdec="https://www.free-decompiler.com/flash" xmlns:xlink="http://www.w3.org/1999/xlink" ffdec:objectType="shape" height="80.85px" width="88.0px" xmlns="http://www.w3.org/2000/svg">
  <g transform="matrix(1.0, 0.0, 0.0, 1.0, 46.75, 39.0)">
    <path d="M23.3 -3.2 L24.85 -3.15 Q30.3 -0.7 35.85 2.3 L35.85 2.35 Q38.45 3.9 41.1 6.35 L41.25 6.65 41.15 7.0 40.85 7.2 35.7 8.2 35.75 8.2 Q25.65 10.75 15.75 15.2 5.25 19.95 -4.0 27.7 -14.75 36.55 -26.95 40.45 -39.85 44.5 -45.0 36.85 L-46.55 33.8 -46.55 33.75 -46.7 33.4 -46.7 33.1 Q-41.65 20.25 -41.35 3.65 L-40.35 4.2 Q-40.7 20.55 -45.7 33.25 L-45.65 33.3 -45.6 33.4 Q-45.05 34.95 -44.15 36.3 -39.35 43.3 -27.25 39.5 -15.25 35.65 -4.65 26.95 4.75 19.15 15.35 14.3 25.35 9.85 35.5 7.25 L35.5 7.2 39.65 6.4 Q37.5 4.5 35.35 3.2 29.45 -0.05 23.55 -2.65 L23.3 -2.9 23.3 -3.2" fill="#7b1109" fill-rule="evenodd" stroke="none"/>
    <path d="M23.3 -3.2 L23.3 -2.9 23.55 -2.65 Q29.45 -0.05 35.35 3.2 37.5 4.5 39.65 6.4 L35.5 7.2 35.5 7.25 Q25.35 9.85 15.35 14.3 4.75 19.15 -4.65 26.95 -15.25 35.65 -27.25 39.5 -39.35 43.3 -44.15 36.3 -45.05 34.95 -45.6 33.4 L-45.65 33.3 -45.7 33.25 Q-40.7 20.55 -40.35 4.2 -21.7 14.1 -6.6 5.05 8.15 -3.8 23.3 -3.2" fill="url(#gradient0)" fill-rule="evenodd" stroke="none"/>
    <path d="M24.85 -3.15 L23.3 -3.2 23.3 -3.25 23.5 -3.5 Q29.4 -7.0 35.4 -9.8 37.5 -10.65 39.65 -11.9 L35.45 -13.6 Q25.4 -17.2 15.5 -18.75 5.0 -20.45 -4.25 -18.4 -15.0 -16.05 -27.25 -19.6 -39.2 -23.15 -44.4 -32.8 -40.0 -12.45 -40.35 4.2 L-41.35 3.65 Q-41.05 -15.0 -46.7 -38.35 L-46.65 -38.75 -46.35 -38.95 -46.0 -38.9 -45.75 -38.65 Q-41.6 -24.9 -26.95 -20.55 -15.0 -17.05 -4.45 -19.4 5.0 -21.45 15.65 -19.75 25.6 -18.2 35.8 -14.55 L40.95 -12.45 41.2 -12.2 41.25 -11.85 41.0 -11.55 Q38.35 -9.95 35.8 -8.9 L35.85 -8.9 Q30.3 -6.3 24.85 -3.15" fill="#757575" fill-rule="evenodd" stroke="none"/>
    <path d="M-40.35 4.2 Q-40.0 -12.45 -44.4 -32.8 -39.2 -23.15 -27.25 -19.6 -15.0 -16.05 -4.25 -18.4 5.0 -20.45 15.5 -18.75 25.4 -17.2 35.45 -13.6 L39.65 -11.9 Q37.5 -10.65 35.4 -9.8 29.4 -7.0 23.5 -3.5 L23.3 -3.25 23.3 -3.2 Q8.15 -3.8 -6.6 5.05 -21.7 14.1 -40.35 4.2" fill="url(#gradient1)" fill-rule="evenodd" stroke="none"/>
  </g>
  <defs>
    <linearGradient gradientTransform="matrix(0.0827, 0.0, 0.0, 0.0487, -30.1, -1.05)" gradientUnits="userSpaceOnUse" id="gradient0" spreadMethod="pad" x1="-819.2" x2="819.2">
      <stop offset="0.0" stop-color="#e20000"/>
      <stop offset="0.16862745098039217" stop-color="#8a0000"/>
      <stop offset="0.3411764705882353" stop-color="#e20000"/>
      <stop offset="0.5058823529411764" stop-color="#8a0000"/>
      <stop offset="0.6784313725490196" stop-color="#e20000"/>
      <stop offset="0.8431372549019608" stop-color="#8a0000"/>
      <stop offset="1.0" stop-color="#e20000"/>
    </linearGradient>
    <linearGradient gradientTransform="matrix(0.0827, 0.0, 0.0, 0.0487, -30.2, 1.05)" gradientUnits="userSpaceOnUse" id="gradient1" spreadMethod="pad" x1="-819.2" x2="819.2">
      <stop offset="0.0" stop-color="#f9f9f9"/>
      <stop offset="0.16862745098039217" stop-color="#999999"/>
      <stop offset="0.3411764705882353" stop-color="#f9f9f9"/>
      <stop offset="0.5058823529411764" stop-color="#999999"/>
      <stop offset="0.6784313725490196" stop-color="#f9f9f9"/>
      <stop offset="0.8431372549019608" stop-color="#999999"/>
      <stop offset="1.0" stop-color="#f9f9f9"/>
    </linearGradient>
  </defs>
</svg>
