<?xml version="1.0" encoding="UTF-8" standalone="no"?>
<svg xmlns:ffdec="https://www.free-decompiler.com/flash" xmlns:xlink="http://www.w3.org/1999/xlink" ffdec:objectType="shape" height="73.5px" width="87.0px" xmlns="http://www.w3.org/2000/svg">
  <g transform="matrix(1.0, 0.0, 0.0, 1.0, 46.75, 39.0)">
    <path d="M23.65 5.75 L23.45 5.9 23.25 6.25 23.35 6.6 23.65 6.8 26.25 7.3 32.0 8.4 32.05 8.4 35.7 8.85 38.8 8.65 Q37.5 11.2 35.4 12.85 L31.85 15.25 26.1 18.85 18.5 23.1 12.2 25.95 12.25 25.95 Q7.35 27.85 2.1 28.75 L2.05 28.75 -3.85 29.2 Q-10.4 29.0 -19.75 30.3 L-27.1 31.6 -27.1 31.65 Q-38.25 34.3 -44.45 33.15 L-45.5 32.95 Q-38.05 18.35 -37.3 2.5 L-4.15 6.0 Q4.25 7.0 23.65 5.75" fill="url(#gradient0)" fill-rule="evenodd" stroke="none"/>
    <path d="M25.75 5.35 L24.95 6.0 26.45 6.3 32.2 7.4 35.75 7.85 Q38.2 8.0 39.55 7.3 L39.8 7.25 Q39.95 7.25 40.1 7.4 L40.25 7.65 40.25 7.95 Q38.75 11.55 36.0 13.65 L32.4 16.1 Q29.85 17.65 26.65 19.7 L18.95 24.0 12.6 26.9 Q7.65 28.85 2.25 29.75 L-3.9 30.2 Q-10.4 30.0 -19.6 31.3 L-26.9 32.6 -26.85 32.6 Q-38.25 35.3 -44.6 34.15 L-44.65 34.15 -46.4 33.75 -46.6 33.6 -46.75 33.3 -46.7 33.05 Q-39.05 18.35 -38.3 2.4 L-37.3 2.5 Q-38.05 18.35 -45.5 32.95 L-44.45 33.15 Q-38.25 34.3 -27.1 31.65 L-27.1 31.6 -19.75 30.3 Q-10.4 29.0 -3.85 29.2 L2.05 28.75 2.1 28.75 Q7.35 27.85 12.25 25.95 L12.2 25.95 18.5 23.1 26.1 18.85 31.85 15.25 35.4 12.85 Q37.5 11.2 38.8 8.65 L35.7 8.85 32.05 8.4 32.0 8.4 26.25 7.3 23.65 6.8 23.35 6.6 23.25 6.25 23.45 5.9 23.65 5.75 24.9 5.65 25.75 5.35" fill="#7b1109" fill-rule="evenodd" stroke="none"/>
    <path d="M-38.3 2.4 L-38.25 1.95 Q-39.1 -19.9 -46.6 -38.1 L-46.7 -38.3 -46.7 -38.6 -46.55 -38.9 -46.2 -39.0 -45.9 -38.85 Q-39.5 -33.05 -26.8 -28.35 -23.05 -26.9 -19.45 -25.2 -10.15 -20.8 -3.6 -16.6 L2.35 -13.4 Q7.65 -11.1 12.5 -10.1 L18.75 -9.05 26.35 -8.75 32.1 -8.8 35.65 -9.05 Q38.1 -9.4 39.45 -10.35 L39.75 -10.45 40.05 -10.35 40.25 -10.05 40.25 -9.75 Q38.8 -6.1 36.05 -3.5 L32.45 -0.25 26.7 4.55 25.75 5.35 24.9 5.65 23.65 5.75 24.25 5.25 26.05 3.8 31.8 -1.0 35.35 -4.2 Q37.4 -6.2 38.7 -8.75 L35.8 -8.05 32.1 -7.8 26.4 -7.75 26.35 -7.75 18.65 -8.05 12.3 -9.1 Q7.35 -10.1 1.95 -12.5 -1.0 -13.75 -4.15 -15.75 -10.65 -19.9 -19.9 -24.3 -23.45 -26.0 -27.15 -27.4 -38.55 -31.6 -44.95 -36.75 -36.45 -16.25 -37.3 2.5 L-38.3 2.4" fill="#757575" fill-rule="evenodd" stroke="none"/>
    <path d="M-37.3 2.5 Q-36.45 -16.25 -44.95 -36.75 -38.55 -31.6 -27.15 -27.4 -23.45 -26.0 -19.9 -24.3 -10.65 -19.9 -4.15 -15.75 -1.0 -13.75 1.95 -12.5 7.35 -10.1 12.3 -9.1 L18.65 -8.05 26.35 -7.75 26.4 -7.75 32.1 -7.8 35.8 -8.05 38.7 -8.75 Q37.4 -6.2 35.35 -4.2 L31.8 -1.0 26.05 3.8 24.25 5.25 23.65 5.75 Q4.25 7.0 -4.15 6.0 L-37.3 2.5" fill="url(#gradient1)" fill-rule="evenodd" stroke="none"/>
  </g>
  <defs>
    <linearGradient gradientTransform="matrix(0.0827, 0.0, 0.0, 0.0487, -13.25, 0.4)" gradientUnits="userSpaceOnUse" id="gradient0" spreadMethod="pad" x1="-819.2" x2="819.2">
      <stop offset="0.0" stop-color="#e20000"/>
      <stop offset="0.16862745098039217" stop-color="#8a0000"/>
      <stop offset="0.3411764705882353" stop-color="#e20000"/>
      <stop offset="0.5058823529411764" stop-color="#8a0000"/>
      <stop offset="0.6784313725490196" stop-color="#e20000"/>
      <stop offset="0.8431372549019608" stop-color="#8a0000"/>
      <stop offset="1.0" stop-color="#e20000"/>
    </linearGradient>
    <linearGradient gradientTransform="matrix(0.0827, 0.0, 0.0, 0.0487, -13.25, 0.4)" gradientUnits="userSpaceOnUse" id="gradient1" spreadMethod="pad" x1="-819.2" x2="819.2">
      <stop offset="0.0" stop-color="#f9f9f9"/>
      <stop offset="0.16862745098039217" stop-color="#999999"/>
      <stop offset="0.3411764705882353" stop-color="#f9f9f9"/>
      <stop offset="0.5058823529411764" stop-color="#999999"/>
      <stop offset="0.6784313725490196" stop-color="#f9f9f9"/>
      <stop offset="0.8431372549019608" stop-color="#999999"/>
      <stop offset="1.0" stop-color="#f9f9f9"/>
    </linearGradient>
  </defs>
</svg>
