<?xml version="1.0" encoding="UTF-8" standalone="no"?>
<svg xmlns:ffdec="https://www.free-decompiler.com/flash" xmlns:xlink="http://www.w3.org/1999/xlink" ffdec:objectType="shape" height="79.55px" width="88.9px" xmlns="http://www.w3.org/2000/svg">
  <g transform="matrix(1.0, 0.0, 0.0, 1.0, 46.75, 39.0)">
    <path d="M22.6 -17.85 L22.65 -17.85 22.65 -17.8 22.6 -17.8 22.6 -17.85 M34.9 -5.05 L34.9 -5.0 34.8 -5.0 34.9 -5.05 M25.4 -2.4 L24.85 -2.2 28.45 0.1 29.6 0.85 29.65 0.85 Q33.95 2.9 36.4 4.45 38.85 6.0 41.3 11.0 L33.35 11.65 29.45 11.75 28.2 11.95 22.05 13.15 22.05 12.05 22.05 13.15 16.1 15.3 Q7.9 18.55 -1.6 25.45 L-5.25 28.05 -10.0 31.55 -10.0 30.4 -10.0 31.55 Q-18.1 36.2 -25.2 38.6 -29.0 39.85 -32.25 40.35 L-36.25 40.5 -36.25 39.5 -36.25 40.5 Q-41.85 40.3 -44.95 36.4 L-46.55 33.75 -46.5 33.85 -46.7 33.4 -46.7 33.1 Q-41.65 20.25 -41.35 3.65 L-40.35 4.2 Q-40.7 20.5 -45.7 33.25 L-45.65 33.3 -45.65 33.35 -44.15 35.8 Q-41.35 39.3 -36.25 39.5 L-32.45 39.35 Q-29.3 38.85 -25.55 37.6 -18.25 35.2 -10.0 30.4 L-5.8 27.3 Q-3.95 25.9 -2.15 24.65 7.5 17.7 15.8 14.35 L15.85 14.35 Q19.3 13.05 22.05 12.05 L28.2 10.9 30.2 10.65 33.55 10.55 39.5 10.0 Q39.55 7.3 35.7 5.05 31.85 2.75 30.3 2.1 L28.4 1.2 23.5 -1.9 23.3 -2.1 23.3 -2.5 23.55 -2.8 23.6 -2.8 23.7 -2.8 24.3 -2.65 25.4 -2.4 M22.6 -16.85 L22.6 -17.8 22.6 -16.85" fill="#7b1109" fill-rule="evenodd" stroke="none"/>
    <path d="M-40.35 4.2 L-35.6 6.45 -35.55 5.05 -35.6 6.45 -36.25 39.5 Q-41.35 39.3 -44.15 35.8 L-45.65 33.35 -45.65 33.3 -45.7 33.25 Q-40.7 20.5 -40.35 4.2" fill="url(#gradient0)" fill-rule="evenodd" stroke="none"/>
    <path d="M-35.6 6.45 Q-21.5 12.65 -9.55 7.55 L-10.0 30.4 Q-18.25 35.2 -25.55 37.6 -29.3 38.85 -32.45 39.35 L-36.25 39.5 -35.6 6.45" fill="url(#gradient1)" fill-rule="evenodd" stroke="none"/>
    <path d="M-9.55 7.55 L-9.5 6.3 -9.55 7.5 -6.6 5.65 Q7.85 -4.35 22.2 -3.2 L22.35 -3.15 22.05 12.05 Q19.3 13.05 15.85 14.35 L15.8 14.35 Q7.5 17.7 -2.15 24.65 -3.95 25.9 -5.8 27.3 L-10.0 30.4 -9.55 7.55 M22.6 -16.8 L22.6 -16.85 22.6 -16.8" fill="url(#gradient2)" fill-rule="evenodd" stroke="none"/>
    <path d="M22.35 -3.15 L23.6 -2.8 23.55 -2.8 23.3 -2.5 23.3 -2.1 23.5 -1.9 28.4 1.2 30.3 2.1 Q31.85 2.75 35.7 5.05 39.55 7.3 39.5 10.0 L33.55 10.55 30.2 10.65 28.2 10.9 22.05 12.05 22.35 -3.15" fill="url(#gradient3)" fill-rule="evenodd" stroke="none"/>
    <path d="M22.6 -17.85 L22.6 -17.8 22.65 -17.8 24.55 -17.0 29.05 -15.05 Q29.05 -15.05 29.15 -15.0 L29.3 -14.9 29.55 -14.8 33.05 -12.8 33.85 -12.25 42.15 -7.9 Q38.25 -5.85 35.75 -5.25 L34.9 -5.05 34.8 -5.0 30.55 -4.0 Q27.9 -3.4 25.45 -2.4 L25.4 -2.4 24.3 -2.65 23.7 -2.8 25.95 -3.7 26.65 -4.0 29.2 -4.9 Q31.55 -5.7 33.7 -5.9 L33.75 -5.9 34.95 -6.2 40.6 -7.9 35.0 -10.45 33.8 -11.1 32.95 -11.7 29.15 -13.9 22.6 -16.8 22.6 -16.85 22.6 -17.8 22.6 -16.85 15.8 -18.5 -1.85 -19.15 -5.5 -18.75 -9.05 -18.25 -9.05 -19.15 -9.05 -18.15 Q-17.8 -18.3 -25.5 -20.45 -29.3 -21.5 -32.55 -22.95 -33.85 -23.55 -35.0 -24.25 L-35.0 -25.4 -35.0 -24.3 Q-41.25 -27.8 -44.65 -33.7 -40.0 -12.8 -40.35 4.2 L-41.35 3.65 Q-41.05 -14.95 -46.65 -38.2 L-46.7 -38.3 -46.7 -38.35 -46.65 -38.75 -46.4 -38.95 -46.0 -38.95 -45.75 -38.65 Q-42.75 -30.0 -35.0 -25.45 L-35.0 -25.4 -32.15 -23.85 Q-29.0 -22.4 -25.25 -21.35 -17.65 -19.25 -9.05 -19.15 L-9.05 -19.25 -5.55 -19.75 -1.9 -20.15 Q7.8 -21.2 16.1 -19.45 L22.6 -17.85" fill="#757575" fill-rule="evenodd" stroke="none"/>
    <path d="M-40.35 4.2 Q-40.0 -12.8 -44.65 -33.7 -41.25 -27.8 -35.0 -24.3 L-35.0 -25.4 -35.0 -24.25 Q-33.85 -23.55 -32.55 -22.95 -29.3 -21.5 -25.5 -20.45 -17.8 -18.3 -9.05 -18.15 L-9.05 -19.15 -9.05 -18.25 -5.5 -18.75 -1.85 -19.15 15.8 -18.5 22.6 -16.85 22.6 -16.8 29.15 -13.9 32.95 -11.7 33.8 -11.1 35.0 -10.45 40.6 -7.9 34.95 -6.2 33.75 -5.9 33.7 -5.9 Q31.55 -5.7 29.2 -4.9 L26.65 -4.0 25.95 -3.7 23.7 -2.8 23.6 -2.8 22.35 -3.15 22.2 -3.2 Q7.85 -4.35 -6.6 5.65 L-9.55 7.5 -9.5 6.3 -9.55 7.55 Q-21.5 12.65 -35.6 6.45 L-35.55 5.05 -35.6 6.45 -40.35 4.2" fill="url(#gradient4)" fill-rule="evenodd" stroke="none"/>
  </g>
  <defs>
    <linearGradient gradientTransform="matrix(0.0827, 0.0, 0.0, 0.0487, -31.25, -0.1)" gradientUnits="userSpaceOnUse" id="gradient0" spreadMethod="pad" x1="-819.2" x2="819.2">
      <stop offset="0.0" stop-color="#e20000"/>
      <stop offset="0.16862745098039217" stop-color="#8a0000"/>
      <stop offset="0.3411764705882353" stop-color="#e20000"/>
      <stop offset="0.5058823529411764" stop-color="#8a0000"/>
      <stop offset="0.6784313725490196" stop-color="#e20000"/>
      <stop offset="0.8431372549019608" stop-color="#8a0000"/>
      <stop offset="1.0" stop-color="#e20000"/>
    </linearGradient>
    <linearGradient gradientTransform="matrix(0.0827, 0.0029, 0.0, 0.0487, -31.25, 0.05)" gradientUnits="userSpaceOnUse" id="gradient1" spreadMethod="pad" x1="-819.2" x2="819.2">
      <stop offset="0.0" stop-color="#e20000"/>
      <stop offset="0.16862745098039217" stop-color="#8a0000"/>
      <stop offset="0.3411764705882353" stop-color="#e20000"/>
      <stop offset="0.5058823529411764" stop-color="#8a0000"/>
      <stop offset="0.6784313725490196" stop-color="#e20000"/>
      <stop offset="0.8431372549019608" stop-color="#8a0000"/>
      <stop offset="1.0" stop-color="#e20000"/>
    </linearGradient>
    <linearGradient gradientTransform="matrix(0.0827, -0.0075, 0.0, 0.0487, -31.25, 2.7)" gradientUnits="userSpaceOnUse" id="gradient2" spreadMethod="pad" x1="-819.2" x2="819.2">
      <stop offset="0.0" stop-color="#e20000"/>
      <stop offset="0.16862745098039217" stop-color="#8a0000"/>
      <stop offset="0.3411764705882353" stop-color="#e20000"/>
      <stop offset="0.5058823529411764" stop-color="#8a0000"/>
      <stop offset="0.6784313725490196" stop-color="#e20000"/>
      <stop offset="0.8431372549019608" stop-color="#8a0000"/>
      <stop offset="1.0" stop-color="#e20000"/>
    </linearGradient>
    <linearGradient gradientTransform="matrix(0.0827, 0.0052, 0.0, 0.0487, -31.25, -5.5)" gradientUnits="userSpaceOnUse" id="gradient3" spreadMethod="pad" x1="-819.2" x2="819.2">
      <stop offset="0.0" stop-color="#e20000"/>
      <stop offset="0.16862745098039217" stop-color="#8a0000"/>
      <stop offset="0.3411764705882353" stop-color="#e20000"/>
      <stop offset="0.5058823529411764" stop-color="#8a0000"/>
      <stop offset="0.6784313725490196" stop-color="#e20000"/>
      <stop offset="0.8431372549019608" stop-color="#8a0000"/>
      <stop offset="1.0" stop-color="#e20000"/>
    </linearGradient>
    <linearGradient gradientTransform="matrix(0.0827, -0.0075, 0.0, 0.0487, -30.6, -43.45)" gradientUnits="userSpaceOnUse" id="gradient4" spreadMethod="pad" x1="-819.2" x2="819.2">
      <stop offset="0.0" stop-color="#f9f9f9"/>
      <stop offset="0.16862745098039217" stop-color="#999999"/>
      <stop offset="0.3411764705882353" stop-color="#f9f9f9"/>
      <stop offset="0.5058823529411764" stop-color="#999999"/>
      <stop offset="0.6784313725490196" stop-color="#f9f9f9"/>
      <stop offset="0.8431372549019608" stop-color="#999999"/>
      <stop offset="1.0" stop-color="#f9f9f9"/>
    </linearGradient>
  </defs>
</svg>
