<?xml version="1.0" encoding="UTF-8" standalone="no"?>
<svg xmlns:ffdec="https://www.free-decompiler.com/flash" xmlns:xlink="http://www.w3.org/1999/xlink" ffdec:objectType="shape" height="29.45px" width="37.85px" xmlns="http://www.w3.org/2000/svg">
  <g transform="matrix(1.0, 0.0, 0.0, 1.0, 14.0, 18.95)">
    <path d="M12.0 -8.35 L12.75 -11.65 Q13.5 -14.4 14.8 -15.55 L15.8 -13.95 16.2 -12.1 Q19.6 -12.35 20.9 -10.95 21.75 -10.05 21.75 -8.25 21.75 -6.9 20.8 -4.75 19.95 -2.8 19.25 -2.2 L17.1 -4.05 Q15.1 -5.35 12.4 -5.35 11.75 -5.35 9.95 -3.8 8.05 -2.15 6.25 -1.8 9.15 -4.4 10.7 -6.3 L11.95 -8.15 11.95 -8.25 12.0 -8.35 M14.45 -6.05 Q17.5 -6.05 18.75 -4.85 L20.55 -8.6 Q20.55 -9.2 18.0 -10.3 15.2 -11.55 14.55 -12.95 12.5 -6.85 11.95 -6.3 L11.5 -5.85 14.45 -6.05 M-3.5 -13.55 L-3.35 -13.3 -5.25 -11.1 Q-6.95 -9.0 -6.95 -8.15 -6.95 -6.65 -6.0 -3.7 L-4.95 -0.2 -5.0 0.1 -5.15 0.15 Q-8.25 -6.05 -8.25 -8.75 -8.25 -9.45 -6.95 -11.1 -5.4 -13.15 -3.5 -13.55" fill="#ee5b00" fill-rule="evenodd" stroke="none"/>
    <path d="M6.25 -1.8 Q5.6 -1.3 5.55 0.35 L5.6 3.75 5.7 10.15 6.45 9.8 Q8.15 6.95 14.05 -1.8 L13.1 -3.05 Q8.3 -0.65 6.8 -0.2 8.65 -1.5 10.25 -3.45 11.3 -4.75 12.1 -4.75 14.2 -4.75 16.35 -3.05 18.0 -1.75 20.1 1.0 21.2 -0.4 22.1 -3.2 22.85 -5.75 22.85 -7.35 22.85 -11.25 20.7 -13.9 18.05 -17.25 12.5 -17.95 L11.85 -10.65 11.9 -10.65 11.95 -10.45 12.0 -8.35 11.95 -8.25 11.95 -8.15 10.7 -6.3 Q9.15 -4.4 6.25 -1.8 M11.95 -18.95 Q18.4 -17.1 20.85 -14.95 23.85 -12.3 23.85 -7.1 23.85 -3.55 22.15 -0.4 21.05 1.6 19.75 2.85 19.95 1.95 18.1 -0.3 L15.5 -2.9 Q14.55 -1.1 11.9 2.55 9.15 6.35 6.7 10.5 L5.15 10.5 5.05 10.45 5.1 1.85 4.65 1.0 Q4.3 -1.8 6.1 -3.6 7.05 -4.55 8.3 -5.15 L9.8 -6.5 11.05 -8.15 11.05 -8.3 11.1 -8.55 11.55 -18.9 11.95 -18.95 M0.55 -17.65 Q1.25 -13.4 1.35 -8.15 L1.3 -3.55 1.35 -3.7 1.3 -3.5 1.3 -3.3 1.25 -3.35 Q-0.8 4.55 -0.55 5.6 L-0.5 9.55 -1.85 9.6 -7.6 -1.1 -9.95 1.15 Q-10.35 1.6 -11.15 1.6 L-13.3 1.45 -14.0 0.45 Q-11.1 -2.4 -10.45 -5.7 -10.1 -7.5 -9.9 -9.75 -8.9 -11.95 -6.85 -13.3 L0.0 -17.45 0.25 -17.6 0.55 -17.65 M-1.1 0.95 L0.15 -3.2 Q0.75 -5.5 0.25 -8.15 L0.25 -16.45 -0.25 -16.2 Q-3.6 -15.1 -6.5 -12.6 -9.45 -10.15 -9.25 -9.2 -10.2 -3.35 -11.2 -1.85 L-12.95 0.45 Q-11.1 0.05 -10.0 -2.45 -9.2 -4.3 -9.05 -6.65 -5.65 2.35 -1.5 8.4 L-1.2 8.8 -1.2 8.85 Q-1.0 8.8 -0.95 8.55 L-1.1 8.25 -1.1 7.7 -1.1 3.35 -1.1 0.95 M-8.7 -0.35 Q-8.15 -1.05 -8.15 -1.95 -8.15 -2.75 -8.95 -4.45 -9.35 -2.95 -11.5 0.75 -9.6 0.7 -8.7 -0.35" fill="#5a1c01" fill-rule="evenodd" stroke="none"/>
    <path d="M6.45 9.8 Q6.35 2.75 6.8 -0.2 8.3 -0.65 13.1 -3.05 L14.05 -1.8 Q8.15 6.95 6.45 9.8 M-0.25 -16.2 L0.25 -16.45 0.25 -8.15 Q0.75 -5.5 0.15 -3.2 L-1.1 0.95 Q-3.35 -4.9 -3.35 -5.9 L-2.05 -7.8 Q-0.7 -9.45 -0.65 -9.8 L-0.25 -16.2 M-8.7 -0.35 Q-9.6 0.7 -11.5 0.75 -9.35 -2.95 -8.95 -4.45 -8.15 -2.75 -8.15 -1.95 -8.15 -1.05 -8.7 -0.35" fill="#8a2b02" fill-rule="evenodd" stroke="none"/>
    <path d="M6.25 -1.8 Q8.05 -2.15 9.95 -3.8 11.75 -5.35 12.4 -5.35 15.1 -5.35 17.1 -4.05 L19.25 -2.2 Q19.95 -2.8 20.8 -4.75 21.75 -6.9 21.75 -8.25 21.75 -10.05 20.9 -10.95 19.6 -12.35 16.2 -12.1 L15.8 -13.95 14.8 -15.55 Q13.5 -14.4 12.75 -11.65 L12.0 -8.35 11.95 -10.45 11.9 -10.65 11.85 -10.65 12.5 -17.95 Q18.05 -17.25 20.7 -13.9 22.85 -11.25 22.85 -7.35 22.85 -5.75 22.1 -3.2 21.2 -0.4 20.1 1.0 18.0 -1.75 16.35 -3.05 14.2 -4.75 12.1 -4.75 11.3 -4.75 10.25 -3.45 8.65 -1.5 6.8 -0.2 6.35 2.75 6.45 9.8 L5.7 10.15 5.6 3.75 5.55 0.35 Q5.6 -1.3 6.25 -1.8 M-0.25 -16.2 L-0.65 -9.8 Q-0.7 -9.45 -2.05 -7.8 L-3.35 -5.9 Q-3.35 -4.9 -1.1 0.95 L-1.1 3.35 -1.1 7.7 -1.1 8.25 -0.95 8.55 Q-1.0 8.8 -1.2 8.85 L-1.2 8.8 -1.5 8.4 Q-5.65 2.35 -9.05 -6.65 -9.2 -4.3 -10.0 -2.45 -11.1 0.05 -12.95 0.45 L-11.2 -1.85 Q-10.2 -3.35 -9.25 -9.2 -9.45 -10.15 -6.5 -12.6 -3.6 -15.1 -0.25 -16.2 M-3.5 -13.55 Q-5.4 -13.15 -6.95 -11.1 -8.25 -9.45 -8.25 -8.75 -8.25 -6.05 -5.15 0.15 L-5.0 0.1 -4.95 -0.2 -6.0 -3.7 Q-6.95 -6.65 -6.95 -8.15 -6.95 -9.0 -5.25 -11.1 L-3.35 -13.3 -3.5 -13.55" fill="#d24400" fill-rule="evenodd" stroke="none"/>
    <path d="M14.45 -6.05 L11.5 -5.85 11.95 -6.3 Q12.5 -6.85 14.55 -12.95 15.2 -11.55 18.0 -10.3 20.55 -9.2 20.55 -8.6 L18.75 -4.85 Q17.5 -6.05 14.45 -6.05" fill="#ff6c00" fill-rule="evenodd" stroke="none"/>
    <path d="M22.1 -11.55 Q22.45 -12.0 23.0 -11.95 23.85 -9.9 23.85 -7.1 23.85 -3.55 22.15 -0.4 21.05 1.6 19.75 2.85 19.95 1.95 18.1 -0.3 L17.85 -0.6 18.0 -1.05 18.15 -1.35 20.1 1.0 Q21.2 -0.4 22.1 -3.2 22.85 -5.75 22.85 -7.35 22.85 -9.7 22.1 -11.55 M-9.5 -7.7 L-9.95 -7.8 -10.1 -7.8 -9.9 -9.75 Q-8.9 -11.95 -6.85 -13.3 L-4.9 -14.4 -4.55 -14.1 -6.5 -12.6 Q-9.45 -10.15 -9.25 -9.2 L-9.5 -7.7" fill="#763f01" fill-rule="evenodd" stroke="none"/>
    <path d="M-2.95 -6.6 L-3.2 -5.8 -3.35 -5.55 -3.35 -5.9 -2.95 -6.6" fill="#995202" fill-rule="evenodd" stroke="none"/>
    <path d="M21.5 -9.95 L21.8 -11.1 22.1 -11.55 Q22.85 -9.7 22.85 -7.35 22.85 -5.75 22.1 -3.2 21.2 -0.4 20.1 1.0 L18.15 -1.35 18.35 -2.55 18.3 -3.05 19.25 -2.2 Q19.95 -2.8 20.8 -4.75 21.75 -6.9 21.75 -8.25 L21.5 -9.95 M-3.7 -12.85 L-3.65 -11.4 -3.7 -10.3 -3.6 -9.25 Q-2.95 -7.75 -2.95 -7.05 L-2.95 -6.6 -3.35 -5.9 -3.35 -5.55 Q-3.95 -4.6 -5.4 -4.6 L-6.3 -4.75 -6.95 -8.15 Q-6.95 -9.0 -5.25 -11.1 L-3.7 -12.85 M-7.7 -5.8 L-7.95 -6.2 Q-8.75 -7.45 -9.5 -7.7 L-9.25 -9.2 Q-9.45 -10.15 -6.5 -12.6 L-4.55 -14.1 -4.0 -13.6 -3.9 -13.45 Q-5.55 -12.9 -6.95 -11.1 -8.25 -9.45 -8.25 -8.75 -8.25 -7.6 -7.7 -5.8" fill="#d67203" fill-rule="evenodd" stroke="none"/>
    <path d="M20.15 -9.15 L21.1 -9.15 21.5 -9.95 21.75 -8.25 Q21.75 -6.9 20.8 -4.75 19.95 -2.8 19.25 -2.2 L18.3 -3.05 Q18.0 -4.45 15.9 -4.7 L15.85 -4.7 14.1 -5.2 Q13.6 -5.5 13.35 -5.95 L14.45 -6.05 Q17.5 -6.05 18.75 -4.85 L20.55 -8.6 20.15 -9.15 M-3.9 -13.45 L-3.7 -12.85 -5.25 -11.1 Q-6.95 -9.0 -6.95 -8.15 L-6.3 -4.75 Q-7.1 -5.05 -7.7 -5.8 -8.25 -7.6 -8.25 -8.75 -8.25 -9.45 -6.95 -11.1 -5.55 -12.9 -3.9 -13.45" fill="#fb9d20" fill-rule="evenodd" stroke="none"/>
    <path d="M13.35 -5.95 L13.15 -6.85 Q13.15 -7.55 13.65 -8.35 14.4 -9.65 16.0 -9.65 L17.5 -9.35 19.9 -9.15 20.15 -9.15 20.55 -8.6 18.75 -4.85 Q17.5 -6.05 14.45 -6.05 L13.35 -5.95" fill="#fdb51e" fill-rule="evenodd" stroke="none"/>
  </g>
</svg>
