<?xml version="1.0" encoding="UTF-8" standalone="no"?>
<svg xmlns:ffdec="https://www.free-decompiler.com/flash" xmlns:xlink="http://www.w3.org/1999/xlink" ffdec:objectType="shape" height="19.75px" width="35.5px" xmlns="http://www.w3.org/2000/svg">
  <g transform="matrix(1.0, 0.0, 0.0, 1.0, 26.45, 1.0)">
    <path d="M5.7 14.55 Q4.15 16.9 1.9 16.95 -0.3 16.9 -1.9 14.55 -3.45 12.2 -3.45 8.85 -3.5 7.0 -3.0 5.45 -2.6 4.15 -1.9 3.15 L-0.75 1.8 Q0.45 0.75 1.9 0.75 4.15 0.75 5.7 3.15 7.3 5.5 7.3 8.85 7.3 12.2 5.7 14.55 M-16.75 14.9 Q-18.1 16.95 -20.0 17.0 -21.95 16.95 -23.35 14.9 -24.7 12.9 -24.7 10.0 -24.7 8.35 -24.25 7.0 L-23.35 5.0 -22.35 3.85 Q-21.3 2.95 -20.0 2.95 -18.1 2.95 -16.75 5.0 -15.35 7.05 -15.3 10.0 -15.35 12.9 -16.75 14.9 Z" fill="none" stroke="#000000" stroke-linecap="round" stroke-linejoin="round" stroke-width="3.5"/>
  </g>
</svg>
