<?xml version="1.0" encoding="UTF-8" standalone="no"?>
<svg xmlns:ffdec="https://www.free-decompiler.com/flash" xmlns:xlink="http://www.w3.org/1999/xlink" ffdec:objectType="shape" height="16.7px" width="32.35px" xmlns="http://www.w3.org/2000/svg">
  <g transform="matrix(1.0, 0.0, 0.0, 1.0, 24.65, -2.0)">
    <path d="M-1.35 4.4 Q-3.35 7.6 -2.95 11.4 -2.65 13.9 -0.85 15.8 0.55 17.3 2.6 16.85 4.1 16.45 5.0 15.2 6.5 13.1 5.65 10.65 L4.6 8.65 3.75 7.55 Q1.6 5.15 -1.1 3.8 L-1.35 3.75 -1.35 4.4 Z" fill="none" stroke="#000000" stroke-linecap="round" stroke-linejoin="round" stroke-width="3.5"/>
    <path d="M-15.25 4.7 L-15.45 4.35 -15.9 4.3 -22.35 9.35 Q-23.3 10.75 -22.6 13.25 -22.15 14.95 -21.05 15.95 -19.4 17.65 -17.45 16.35 L-16.15 15.15 Q-15.05 13.85 -14.95 12.2 -14.75 9.1 -15.0 6.25 -15.05 5.45 -15.25 4.7 Z" fill="none" stroke="#000000" stroke-linecap="round" stroke-linejoin="round" stroke-width="3.5"/>
  </g>
</svg>
