<?xml version="1.0" encoding="UTF-8" standalone="no"?>
<svg xmlns:ffdec="https://www.free-decompiler.com/flash" xmlns:xlink="http://www.w3.org/1999/xlink" ffdec:objectType="shape" height="14.85px" width="32.8px" xmlns="http://www.w3.org/2000/svg">
  <g transform="matrix(1.0, 0.0, 0.0, 1.0, 24.7, -3.9)">
    <path d="M5.3 5.65 Q6.35 7.45 6.35 9.95 6.35 12.85 4.95 14.9 3.6 16.95 1.65 16.95 -0.25 16.95 -1.65 14.9 -2.8 13.2 -2.95 10.95 M-14.85 10.45 L-14.8 10.95 Q-14.85 13.45 -16.05 15.2 -17.2 17.0 -18.85 17.0 -20.55 17.0 -21.75 15.2 -22.95 13.45 -22.95 10.95 -22.95 9.5 -22.55 8.35 L-22.4 7.9" fill="none" stroke="#000000" stroke-linecap="round" stroke-linejoin="round" stroke-width="3.5"/>
    <path d="M-2.95 10.95 L-4.05 11.6 M-2.95 10.95 L5.3 5.65 M-22.4 7.9 L-14.85 10.45 -14.3 10.6" fill="none" stroke="#000000" stroke-linecap="round" stroke-linejoin="round" stroke-width="3.5"/>
  </g>
</svg>
