<?xml version="1.0" encoding="UTF-8" standalone="no"?>
<svg xmlns:ffdec="https://www.free-decompiler.com/flash" xmlns:xlink="http://www.w3.org/1999/xlink" ffdec:objectType="shape" height="17.3px" width="35.2px" xmlns="http://www.w3.org/2000/svg">
  <g transform="matrix(1.0, 0.0, 0.0, 1.0, 24.65, -1.45)">
    <path d="M-17.5 7.6 Q-18.0 6.9 -18.55 6.7 -19.55 7.3 -20.85 10.9 L-21.15 11.7 Q-21.0 13.1 -20.3 14.2 L-20.3 14.25 Q-19.7 15.15 -18.85 15.25 -18.1 15.15 -17.5 14.25 L-17.5 14.2 Q-16.6 12.85 -16.55 10.95 -16.6 9.0 -17.5 7.65 L-17.5 7.6 M-17.25 2.65 Q-16.0 3.5 -14.6 5.65 -13.1 7.8 -13.05 10.95 L-13.05 11.0 Q-13.1 14.05 -14.6 16.2 L-14.55 16.15 Q-16.3 18.85 -18.85 18.75 -21.4 18.85 -23.2 16.2 -24.5 14.35 -24.65 11.8 L-19.4 1.95 -17.25 2.65 M-0.9 7.45 L-0.9 7.5 Q-1.25 8.6 -1.25 9.95 -1.25 12.05 -0.4 13.6 2.35 11.85 4.65 11.4 L4.75 10.0 4.9 9.45 3.05 7.3 Q1.25 5.0 0.85 5.1 L0.45 5.2 -0.15 5.95 -0.2 6.05 -0.9 7.45 M-1.75 2.5 L-1.8 2.55 Q-0.75 1.3 0.75 1.45 2.15 1.6 7.9 7.75 L8.1 9.95 8.15 11.1 Q8.75 11.1 10.55 12.7 L9.2 13.0 Q5.85 13.85 -4.3 17.8 L-4.45 17.55 Q-4.75 17.0 -4.55 16.4 -4.4 15.8 -3.85 15.55 L-3.45 15.35 Q-4.75 13.05 -4.75 9.95 -4.75 8.1 -4.25 6.5 L-4.3 6.55 Q-3.9 5.2 -3.1 4.05 L-3.05 4.0 Q-2.5 3.1 -1.75 2.5" fill="#000000" fill-rule="evenodd" stroke="none"/>
  </g>
</svg>
