<?xml version="1.0" encoding="UTF-8" standalone="no"?>
<svg xmlns:ffdec="https://www.free-decompiler.com/flash" xmlns:xlink="http://www.w3.org/1999/xlink" ffdec:objectType="shape" height="55.1px" width="46.65px" xmlns="http://www.w3.org/2000/svg">
  <g transform="matrix(1.0, 0.0, 0.0, 1.0, 0.0, 5.0)">
    <path d="M44.85 22.15 L45.15 18.35 Q45.15 9.3 38.75 2.9 32.35 -3.5 23.35 -3.5 14.3 -3.5 7.9 2.9 1.5 9.3 1.5 18.35 1.5 20.45 1.85 22.45 1.95 28.4 5.1 33.3 L5.85 34.35 5.6 34.05 5.25 34.05 Q5.55 35.65 6.15 37.1 7.5 40.4 10.25 43.2 L13.05 45.55 Q15.65 47.3 18.7 48.05 L23.35 48.6 28.0 48.05 Q30.9 47.35 33.4 45.7 L36.45 43.2 Q39.2 40.4 40.55 37.1 L41.5 34.05 41.1 34.05 40.55 34.8 41.6 33.3 Q44.8 28.35 44.85 22.15 M46.35 22.25 Q46.25 28.8 42.9 34.05 L43.05 34.05 Q41.9 39.8 37.55 44.25 L37.5 44.25 Q33.5 48.25 28.4 49.5 L23.35 50.1 18.35 49.5 Q13.2 48.25 9.2 44.25 4.8 39.8 3.75 34.05 L3.85 34.05 Q0.5 28.85 0.35 22.6 0.0 20.5 0.0 18.35 0.0 8.7 6.85 1.85 13.7 -5.0 23.35 -5.0 32.95 -5.0 39.8 1.85 46.65 8.7 46.65 18.35 L46.35 22.25" fill="#000000" fill-rule="evenodd" stroke="none"/>
    <path d="M36.85 10.95 L37.05 11.15 Q38.5 12.85 39.25 14.7 L39.7 15.9 39.95 16.95 40.1 18.9 Q39.4 23.1 37.1 27.15 32.5 35.25 24.4 35.25 21.85 35.25 19.3 34.4 L16.5 33.25 13.95 31.75 12.25 30.5 12.0 30.3 11.0 29.35 7.75 23.6 7.7 23.5 Q7.35 22.05 7.35 20.5 L7.45 19.45 Q7.8 17.45 9.35 14.2 L9.55 13.75 9.65 13.6 9.85 13.15 10.1 12.65 Q12.45 8.1 19.15 5.65 25.35 4.75 29.9 6.25 33.45 7.4 36.0 10.0 L36.85 10.95" fill="#a0d66b" fill-rule="evenodd" stroke="none"/>
    <path d="M36.5 9.05 Q41.2 13.75 41.8 20.25 41.2 26.7 36.45 31.45 31.0 36.85 23.35 36.85 15.7 36.85 10.25 31.45 5.5 26.7 4.95 20.25 5.5 13.75 10.25 9.0 L10.4 8.9 Q15.8 3.6 23.35 3.6 31.0 3.6 36.45 9.0 L36.5 9.05 M36.85 10.95 L36.0 10.0 Q33.45 7.4 29.9 6.25 25.35 4.75 19.15 5.65 12.45 8.1 10.1 12.65 L9.85 13.15 9.65 13.6 9.55 13.75 9.35 14.2 Q7.8 17.45 7.45 19.45 L7.35 20.5 Q7.35 22.05 7.7 23.5 L7.75 23.6 11.0 29.35 12.0 30.3 12.25 30.5 13.95 31.75 16.5 33.25 19.3 34.4 Q21.85 35.25 24.4 35.25 32.5 35.25 37.1 27.15 39.4 23.1 40.1 18.9 L39.95 16.95 39.7 15.9 39.25 14.7 Q38.5 12.85 37.05 11.15 L36.85 10.95" fill="#74b632" fill-rule="evenodd" stroke="none"/>
    <path d="M44.85 22.15 L44.85 21.95 Q44.4 25.2 41.85 29.4 40.5 31.6 38.55 33.55 32.25 39.85 23.35 39.85 14.45 39.85 8.15 33.55 6.2 31.6 4.85 29.4 2.3 25.2 1.85 22.1 L1.85 22.45 Q1.5 20.45 1.5 18.35 1.5 9.3 7.9 2.9 14.3 -3.5 23.35 -3.5 32.35 -3.5 38.75 2.9 45.15 9.3 45.15 18.35 L44.85 22.15 M41.8 20.25 L41.85 18.35 Q41.85 10.7 36.45 5.25 L35.4 4.3 Q30.3 -0.15 23.35 -0.15 16.75 -0.15 11.75 3.9 L10.25 5.25 Q4.85 10.7 4.85 18.35 L4.95 20.25 Q5.5 26.7 10.25 31.45 15.7 36.85 23.35 36.85 31.0 36.85 36.45 31.45 41.2 26.7 41.8 20.25" fill="#f54f45" fill-rule="evenodd" stroke="none"/>
    <path d="M1.85 22.45 L1.85 22.1 Q2.3 25.2 4.85 29.4 6.2 31.6 8.15 33.55 14.45 39.85 23.35 39.85 32.25 39.85 38.55 33.55 40.5 31.6 41.85 29.4 44.4 25.2 44.85 21.95 L44.85 22.15 Q44.8 28.35 41.6 33.3 L40.55 34.8 38.65 36.95 38.55 37.05 Q36.5 39.1 34.15 40.5 L31.5 41.85 Q27.75 43.35 23.35 43.35 17.3 43.35 12.5 40.45 10.2 39.1 8.15 37.05 L7.95 36.85 7.55 36.4 5.85 34.35 5.1 33.3 Q1.95 28.4 1.85 22.45 M35.4 4.3 L35.35 4.6 Q35.35 5.3 36.5 9.05 L36.45 9.0 Q31.0 3.6 23.35 3.6 15.8 3.6 10.4 8.9 L10.75 7.6 11.75 3.9 Q16.75 -0.15 23.35 -0.15 30.3 -0.15 35.4 4.3" fill="#9f251e" fill-rule="evenodd" stroke="none"/>
    <path d="M35.4 4.3 L36.45 5.25 Q41.85 10.7 41.85 18.35 L41.8 20.25 Q41.2 13.75 36.5 9.05 35.35 5.3 35.35 4.6 L35.4 4.3 M4.95 20.25 L4.85 18.35 Q4.85 10.7 10.25 5.25 L11.75 3.9 10.75 7.6 10.4 8.9 10.25 9.0 Q5.5 13.75 4.95 20.25 M33.4 45.7 Q30.9 47.35 28.0 48.05 L23.35 48.6 18.7 48.05 Q15.65 47.3 13.05 45.55 L13.0 45.25 12.7 42.45 12.75 42.6 Q18.1 45.15 21.1 45.15 28.2 45.15 32.6 43.6 L33.75 43.15 33.4 45.6 33.4 45.7" fill="#661410" fill-rule="evenodd" stroke="none"/>
    <path d="M5.85 34.35 L7.55 36.4 7.95 36.85 8.15 37.05 Q10.2 39.1 12.5 40.45 17.3 43.35 23.35 43.35 27.75 43.35 31.5 41.85 L34.15 40.5 Q36.5 39.1 38.55 37.05 L38.65 36.95 40.55 34.8 41.1 34.05 41.5 34.05 40.55 37.1 Q39.2 40.4 36.45 43.2 L33.4 45.7 33.4 45.6 33.75 43.15 32.6 43.6 Q28.2 45.15 21.1 45.15 18.1 45.15 12.75 42.6 L12.7 42.45 13.0 45.25 13.05 45.55 10.25 43.2 Q7.5 40.4 6.15 37.1 5.55 35.65 5.25 34.05 L5.6 34.05 5.85 34.35" fill="#510c08" fill-rule="evenodd" stroke="none"/>
    <path d="M30.8 12.65 L31.35 13.5 32.45 13.4 33.55 13.05 33.55 12.15 32.75 11.4 33.9 11.4 34.2 11.8 34.2 12.65 31.75 15.3 30.85 15.2 Q30.25 14.5 30.3 13.75 L30.45 13.2 30.8 12.65 M32.9 11.25 Q30.95 10.7 30.25 8.85 L30.7 7.75 Q32.6 8.0 33.45 9.85 L33.6 10.55 32.9 11.25 M23.6 7.85 Q23.6 7.4 24.1 7.1 24.55 6.8 25.25 6.8 25.95 6.8 26.45 7.1 26.9 7.4 26.9 7.85 L26.45 8.6 25.25 8.9 24.1 8.6 Q23.6 8.3 23.6 7.85 M21.65 11.15 Q25.2 11.25 25.3 14.35 L24.25 15.25 21.1 12.35 21.25 11.6 21.65 11.15 M30.0 11.4 L30.4 11.85 Q29.85 14.0 27.25 14.05 L26.2 14.2 26.3 13.3 Q27.45 11.8 29.2 11.4 L30.0 11.4 M23.9 19.35 L25.15 19.0 Q25.65 18.65 25.65 18.15 L27.3 18.0 27.45 19.2 23.6 22.25 22.95 22.15 22.45 21.55 22.5 21.0 22.8 20.4 23.9 19.35 M20.25 17.2 L19.25 17.75 Q17.3 16.75 16.0 14.9 L16.55 13.7 Q18.85 14.65 20.35 16.75 L20.25 17.2 M18.35 10.65 Q16.9 11.55 15.05 11.4 L14.7 11.2 14.3 10.45 Q16.3 8.05 19.45 7.9 L20.15 8.45 Q20.25 9.2 19.7 9.65 L18.85 10.35 18.35 10.65 M24.3 25.0 Q23.25 24.25 23.5 23.1 L23.7 22.5 24.55 22.15 Q26.35 22.2 25.95 23.85 L25.65 24.4 26.05 24.7 25.9 25.9 25.0 26.25 24.8 25.4 Q24.6 25.0 24.3 25.0 M24.5 27.55 L24.6 28.75 22.1 28.85 22.15 27.65 22.6 27.25 23.3 27.7 24.5 27.55 M22.05 26.5 L20.1 26.4 19.5 25.9 20.6 25.0 21.5 25.35 22.05 26.5 M29.2 21.8 L30.5 22.6 31.8 21.6 31.85 20.9 32.75 21.0 31.2 18.7 31.85 17.8 Q34.2 18.05 35.75 19.75 L36.55 20.7 36.2 22.2 33.4 21.6 33.3 22.9 31.2 24.15 30.65 23.75 Q29.9 23.2 28.7 23.15 L28.1 23.4 Q28.1 22.75 28.45 22.3 28.75 21.8 29.2 21.8 M37.0 20.5 L36.5 20.35 36.05 19.7 36.5 18.4 38.9 18.55 39.65 18.85 39.8 19.85 39.2 20.3 38.8 20.5 37.75 20.5 37.0 20.5 M36.8 14.6 L36.45 15.0 Q35.95 15.65 36.45 16.5 L33.7 16.4 33.6 15.95 Q34.0 14.95 35.2 14.85 L36.8 14.6 M12.4 18.85 L12.35 16.75 10.25 16.7 9.35 15.95 9.6 14.75 10.4 14.55 Q11.7 14.5 12.6 15.2 L13.1 14.55 14.6 14.95 Q14.85 17.5 14.1 19.9 L13.7 20.7 Q13.7 19.95 13.35 19.4 12.95 18.85 12.4 18.85 M11.15 21.35 L11.4 22.0 Q10.3 23.45 8.55 23.4 L7.85 23.15 7.6 22.45 Q8.5 20.8 10.45 20.9 L11.15 21.35 M11.45 25.1 L12.15 24.6 12.45 23.35 Q13.45 22.1 14.8 21.6 L15.5 21.65 Q15.5 24.85 12.5 26.85 L11.6 26.55 11.45 25.1 M18.7 21.5 L16.85 19.45 17.3 18.4 18.5 19.05 Q19.6 19.8 20.5 20.9 L20.1 21.65 19.65 21.65 18.7 21.5 M14.8 28.95 L14.35 28.75 14.15 28.7 14.25 28.9 14.2 29.9 Q12.5 31.55 10.55 29.9 10.75 26.95 13.8 28.35 13.7 26.55 16.0 26.85 15.5 26.85 15.15 27.5 14.8 28.1 14.8 28.95 M16.15 31.45 Q17.95 28.95 21.0 29.25 L21.6 29.5 21.7 30.65 Q20.1 32.85 17.25 32.65 16.35 32.4 16.15 31.45 M35.35 26.85 Q35.85 27.75 35.5 28.85 L35.15 29.45 Q32.0 29.0 32.85 25.75 L33.15 25.35 Q33.15 25.95 33.8 26.4 34.45 26.85 35.35 26.85 M29.75 30.75 Q31.2 29.9 32.25 31.1 L32.5 31.45 32.25 32.25 30.7 32.55 Q30.1 32.45 29.6 32.0 L29.5 31.45 29.75 30.75 M27.4 30.75 L25.9 30.9 25.45 30.3 Q26.15 28.3 27.95 27.55 L28.85 27.35 Q29.05 27.35 29.1 27.5 L29.5 28.45 28.7 29.6 27.7 29.75 27.4 30.75 M22.45 33.65 L22.7 35.0 22.1 35.55 20.6 35.25 20.65 33.7 21.5 33.4 22.45 33.65 M27.25 33.15 Q28.25 33.15 29.0 33.6 29.7 34.0 29.7 34.6 29.7 35.2 29.0 35.65 L27.25 36.05 Q26.25 36.05 25.55 35.65 24.8 35.2 24.8 34.6 24.8 34.0 25.55 33.6 26.25 33.15 27.25 33.15" fill="#307039" fill-rule="evenodd" stroke="none"/>
    <path d="M26.35 11.25 L25.45 11.0 Q25.55 7.85 28.55 8.6 28.55 10.15 26.95 10.9 L26.35 11.25 M25.35 17.3 L23.6 17.3 23.15 17.8 Q22.7 17.2 23.0 16.35 L23.2 15.85 23.6 15.65 Q25.25 15.7 25.35 17.3 M18.85 10.35 L21.4 13.4 21.3 13.9 20.5 14.55 Q19.85 14.45 19.45 14.1 17.7 12.8 18.35 10.65 L18.85 10.35 M24.3 25.0 Q24.6 25.0 24.8 25.4 L25.0 26.25 24.5 27.55 23.3 27.7 22.6 27.25 22.05 26.5 21.5 25.35 22.0 24.45 24.3 25.0 M31.2 18.7 L29.35 18.85 29.3 17.25 31.05 16.45 31.7 16.9 31.85 17.8 31.2 18.7 M31.2 24.15 L31.05 25.75 28.5 25.8 Q27.9 25.3 27.75 24.5 L28.1 23.4 28.7 23.15 Q29.9 23.2 30.65 23.75 L31.2 24.15 M13.7 20.7 Q13.05 21.65 11.8 21.55 L11.15 21.35 10.45 20.9 10.05 19.1 12.4 18.85 Q12.95 18.85 13.35 19.4 13.7 19.95 13.7 20.7 M19.05 24.25 L17.3 25.35 16.3 24.9 Q15.55 22.6 17.85 21.85 L17.5 23.05 17.65 23.4 Q18.1 24.45 19.05 24.25 M33.15 25.35 L33.65 24.4 Q35.1 24.1 36.2 24.8 L36.8 25.5 36.7 26.05 35.35 26.85 Q34.45 26.85 33.8 26.4 33.15 25.95 33.15 25.35 M21.5 33.4 Q20.65 30.8 23.3 30.3 L23.9 30.45 24.2 30.85 Q24.15 32.8 22.45 33.65 L21.5 33.4" fill="#d7efb6" fill-rule="evenodd" stroke="none"/>
    <path d="M30.8 12.65 Q30.8 12.15 31.4 11.8 31.95 11.4 32.75 11.4 L33.55 12.15 33.55 13.05 32.45 13.4 31.35 13.5 30.8 12.65 M22.8 7.85 L21.85 8.15 20.9 7.85 Q20.5 7.5 20.5 7.0 20.5 6.5 20.9 6.2 21.3 5.85 21.85 5.85 22.4 5.85 22.8 6.2 23.2 6.5 23.2 7.0 23.2 7.5 22.8 7.85 M25.35 17.3 L25.65 18.15 Q25.65 18.65 25.15 19.0 L23.9 19.35 23.15 17.8 23.6 17.3 25.35 17.3 M29.2 21.8 Q28.7 21.2 29.05 20.45 L29.3 20.05 31.1 19.95 31.85 20.9 31.8 21.6 30.5 22.6 29.2 21.8 M36.55 20.7 L37.0 20.5 37.75 20.5 38.3 21.95 38.0 22.45 36.85 22.7 36.2 22.2 36.55 20.7 M36.45 16.5 Q35.95 15.65 36.45 15.0 L36.8 14.6 37.9 14.5 38.75 15.8 38.1 16.9 36.9 16.9 36.45 16.5 M13.1 14.55 L13.05 12.95 Q14.05 11.55 15.35 12.5 L15.65 12.75 Q16.1 13.95 15.05 14.75 L14.6 14.95 13.1 14.55 M11.45 25.1 L10.35 24.75 10.35 23.6 Q10.7 22.9 11.55 22.95 L12.45 23.35 12.15 24.6 11.45 25.1 M19.65 21.65 Q20.2 22.45 19.95 23.3 L19.75 23.9 19.05 24.25 Q18.1 24.45 17.65 23.4 L17.5 23.05 17.85 21.85 18.7 21.5 19.65 21.65 M16.0 26.85 L17.85 27.25 Q19.0 30.15 15.95 30.1 15.15 29.8 14.8 28.95 14.8 28.1 15.15 27.5 15.5 26.85 16.0 26.85 M29.5 31.45 L29.15 31.7 27.95 31.65 27.4 30.75 27.7 29.75 28.7 29.6 Q29.15 29.6 29.45 29.95 L29.75 30.75 29.5 31.45" fill="#bb4f2b" fill-rule="evenodd" stroke="none"/>
  </g>
</svg>
