<?xml version="1.0" encoding="UTF-8" standalone="no"?>
<svg xmlns:ffdec="https://www.free-decompiler.com/flash" xmlns:xlink="http://www.w3.org/1999/xlink" ffdec:objectType="shape" height="172.3px" width="110.7px" xmlns="http://www.w3.org/2000/svg">
  <g transform="matrix(1.0, 0.0, 0.0, 1.0, 66.3, 52.25)">
    <path d="M11.3 39.4 Q8.3 37.0 6.75 31.3 6.25 25.35 6.35 23.5 6.5 22.3 8.55 14.95 10.55 7.9 10.6 6.35 11.5 1.3 10.3 -3.6 L8.15 -10.55 7.35 -13.65 6.55 -16.45 4.65 -18.95 4.45 -19.2 3.35 -20.65 4.35 -21.7 4.5 -21.85 5.45 -21.7 Q7.6 -21.15 9.45 -18.95 10.55 -17.65 11.5 -15.8 14.85 -9.45 14.85 0.35 14.85 7.0 11.9 15.25 8.9 23.55 8.9 30.9 8.9 32.35 10.0 35.8 L11.3 39.4 M5.4 2.9 L5.25 3.6 3.5 6.95 Q1.7 9.75 -0.4 11.75 L1.8 7.4 Q3.1 4.65 3.1 1.15 3.1 -2.9 1.05 -8.7 -0.95 -14.3 -1.05 -18.95 L-1.05 -19.35 -0.9 -21.5 -0.85 -21.7 -0.8 -23.7 -0.8 -23.9 -0.6 -23.7 0.3 -21.7 0.45 -21.1 0.9 -18.95 1.1 -16.05 Q1.1 -13.65 3.25 -6.0 5.4 1.65 5.4 2.8 L5.4 2.9 M-58.65 -11.75 Q-47.65 -17.65 -38.8 -18.95 L-33.65 -19.8 Q-31.2 -20.45 -29.05 -22.25 -27.35 -23.1 -26.3 -23.1 L-25.5 -22.9 -25.15 -22.25 Q-28.9 -19.45 -31.65 -18.6 L-41.25 -16.8 Q-42.6 -16.6 -50.3 -13.2 -57.85 -9.9 -58.2 -9.9 L-58.85 -10.0 -59.0 -10.3 -59.0 -10.8 Q-58.5 -11.25 -58.5 -11.6 L-58.65 -11.75 M-45.0 -21.5 Q-44.75 -21.75 -44.6 -22.15 L-44.55 -22.65 -44.7 -22.7 -32.4 -28.45 -30.3 -28.3 -19.35 -31.15 -8.5 -34.15 Q-8.5 -34.75 -7.0 -34.7 L-5.25 -34.5 -5.05 -34.5 -6.2 -35.35 Q-0.4 -35.8 1.7 -35.3 -3.1 -32.65 -8.8 -29.9 -20.2 -24.35 -27.8 -24.35 L-30.75 -24.05 Q-32.95 -23.9 -32.95 -24.5 L-43.15 -21.45 -43.65 -21.3 -43.9 -21.3 -45.0 -21.5 M1.25 -27.15 Q1.9 -28.4 3.75 -29.15 L7.15 -29.8 Q15.05 -29.8 19.4 -23.7 L20.65 -21.7 21.1 -20.75 21.9 -18.95 Q23.9 -13.7 23.9 -7.1 21.65 14.3 21.65 19.25 21.65 24.25 23.05 31.7 L24.4 40.0 23.65 49.25 Q22.55 58.35 20.85 58.35 20.2 58.35 20.1 58.05 L20.1 57.0 21.2 49.2 21.85 42.8 Q21.85 40.45 19.55 31.8 17.25 23.15 17.25 20.8 17.25 18.5 19.65 9.1 22.0 -0.3 22.0 -4.75 22.0 -12.85 17.1 -18.8 L17.0 -18.95 13.95 -21.7 Q12.2 -22.9 10.05 -23.7 5.65 -25.35 5.2 -25.9 L5.4 -26.75 1.35 -26.75 1.25 -27.15 M17.1 112.75 Q15.15 110.15 13.95 107.85 12.85 105.7 12.85 104.65 L14.9 99.45 Q16.9 94.45 16.9 88.4 16.9 86.2 13.7 81.3 9.9 75.5 8.5 69.95 L9.0 67.0 10.0 69.0 10.5 70.55 Q11.2 69.9 11.6 70.75 L13.75 76.4 Q14.4 78.0 16.8 81.95 18.9 86.0 18.9 89.7 18.9 91.2 17.15 97.45 15.4 103.7 15.4 107.0 15.4 108.0 16.3 110.3 L17.5 113.1 17.1 112.75 M-42.7 -26.85 L-44.25 -25.05 Q-45.25 -25.05 -45.1 -25.3 -44.85 -30.45 -38.1 -32.45 L-28.85 -33.95 -23.5 -36.85 Q-19.4 -39.25 -15.0 -39.25 -4.7 -39.25 -3.9 -38.0 L-4.4 -37.35 -4.6 -37.05 -5.25 -37.0 -15.35 -37.35 Q-17.9 -36.95 -29.9 -31.4 -31.0 -30.9 -34.3 -30.7 L-38.5 -30.15 Q-41.1 -29.0 -42.7 -26.85 M-0.7 -41.45 L-0.9 -41.4 -9.6 -42.65 -20.95 -40.8 -32.5 -38.75 -33.15 -39.5 Q-31.4 -40.85 -23.65 -41.7 L-19.45 -43.25 Q-15.15 -44.65 -9.9 -44.65 -0.4 -44.65 -0.4 -42.4 -0.4 -41.75 -0.55 -41.55 L-0.7 -41.45" fill="#ffffff" fill-rule="evenodd" stroke="none"/>
    <path d="M32.3 98.25 Q34.35 90.65 39.15 84.0 43.0 78.6 43.0 74.7 43.0 69.35 40.75 64.7 39.65 62.35 35.9 57.05 32.45 52.15 31.0 48.55 28.75 43.0 28.75 36.1 28.75 28.7 32.95 19.45 37.15 10.2 37.15 4.4 37.15 -6.45 33.3 -16.0 L32.0 -18.95 30.65 -21.7 29.55 -23.7 Q26.85 -28.35 23.15 -33.4 L22.5 -34.0 Q14.0 -40.0 12.0 -40.0 L5.9 -39.7 Q5.3 -39.55 3.0 -38.05 L2.75 -38.2 2.4 -38.5 3.45 -39.1 Q4.05 -39.5 4.05 -40.15 4.05 -40.8 7.65 -40.95 L12.0 -41.0 19.35 -37.65 13.7 -43.75 Q12.7 -44.6 8.45 -46.15 7.75 -46.4 2.6 -49.2 0.1 -50.55 -4.65 -50.55 -15.05 -50.55 -33.5 -47.0 -38.65 -44.95 -41.3 -42.55 -44.75 -39.35 -45.15 -34.5 L-45.35 -34.2 -46.05 -33.6 Q-42.65 -35.35 -39.25 -36.65 L-35.4 -37.4 -31.65 -37.7 -28.95 -37.45 -26.0 -37.0 -32.95 -36.5 Q-40.05 -35.55 -45.3 -32.0 -51.35 -29.2 -55.7 -23.8 -59.25 -19.4 -59.5 -16.75 L-59.35 -16.3 -56.1 -18.35 -52.75 -20.3 -44.7 -22.7 -44.55 -22.65 -44.6 -22.15 Q-44.75 -21.75 -45.0 -21.5 L-49.5 -20.15 Q-53.5 -19.1 -55.95 -16.9 L-60.2 -12.05 -58.95 -12.9 Q-52.95 -16.95 -41.7 -19.5 -30.65 -22.0 -29.75 -22.65 L-29.1 -22.35 -29.05 -22.25 Q-31.2 -20.45 -33.65 -19.8 L-38.8 -18.95 Q-47.65 -17.65 -58.65 -11.75 L-62.85 -9.15 Q-65.05 -6.9 -65.05 -1.1 L-64.85 1.35 -64.25 3.9 -64.4 3.35 Q-64.55 2.8 -63.95 2.8 -63.5 4.25 -61.5 5.7 L-57.65 7.75 -55.6 8.7 -56.05 6.95 -58.65 3.7 Q-59.35 2.75 -60.45 -1.75 L-61.6 0.1 Q-61.2 -0.65 -61.6 -3.25 -56.75 -9.25 -48.5 -12.8 -43.1 -15.1 -33.6 -17.15 -23.7 -19.3 -20.95 -20.4 L-20.35 -20.65 Q-19.2 -21.15 -18.25 -21.7 -15.15 -23.6 -14.5 -26.4 L-14.2 -26.15 -14.05 -25.8 Q-14.25 -23.55 -16.05 -21.7 -17.6 -20.1 -20.35 -18.8 -22.9 -17.6 -26.4 -16.65 -23.3 -16.15 -20.35 -16.6 -14.65 -17.45 -9.55 -21.7 L-9.2 -22.0 Q-5.15 -25.45 -2.25 -29.85 L-1.75 -29.75 -1.4 -28.75 -0.8 -23.9 -0.8 -23.7 -0.85 -21.7 -0.9 -21.5 -1.05 -19.35 -1.05 -18.95 Q-0.95 -14.3 1.05 -8.7 3.1 -2.9 3.1 1.15 3.1 4.65 1.8 7.4 L-0.4 11.75 Q1.7 9.75 3.5 6.95 L5.25 3.6 5.4 2.9 Q6.25 -1.0 6.25 -3.5 6.25 -4.7 4.9 -8.55 3.5 -12.4 3.5 -14.55 3.5 -16.25 4.35 -17.0 L4.55 -12.3 Q4.7 -10.05 5.3 -10.05 5.75 -10.05 8.25 -3.95 11.0 2.8 10.6 6.35 10.55 7.9 8.55 14.95 6.5 22.3 6.35 23.5 L6.15 26.75 6.75 31.3 Q8.3 37.0 11.3 39.4 12.85 40.5 13.65 40.75 11.4 39.45 10.15 33.55 9.35 29.7 9.35 27.3 9.35 24.2 12.2 17.7 15.7 9.7 16.95 4.15 18.1 -2.25 17.35 -6.25 L15.75 -13.75 18.3 -6.35 19.65 -1.8 19.55 0.35 19.6 0.25 Q19.3 3.35 17.1 14.3 15.0 24.6 15.0 26.1 15.0 28.5 17.4 34.65 19.75 40.8 19.75 46.0 19.75 47.3 18.0 56.15 16.25 65.0 16.25 67.15 16.25 72.7 19.25 77.1 L19.1 75.15 Q18.4 72.0 19.95 65.8 21.35 60.25 23.35 56.45 L24.0 58.55 Q23.5 60.65 23.25 60.6 L23.05 60.9 22.0 63.85 Q23.5 67.25 24.25 71.4 25.1 76.05 25.25 82.85 L25.4 84.5 Q28.75 78.5 29.35 76.4 29.85 74.65 30.25 68.55 L30.15 68.55 Q29.6 62.1 29.25 60.65 L28.35 58.9 28.75 58.85 Q29.8 59.55 31.4 63.65 33.6 69.1 33.6 75.0 33.6 76.8 30.2 84.65 26.75 92.45 26.75 98.9 26.75 105.85 29.45 111.2 31.35 115.05 33.25 116.1 L32.55 114.4 Q31.25 110.2 31.25 105.75 L31.6 101.35 32.3 98.25 M25.3 -31.75 L28.2 -29.25 Q30.15 -27.05 31.85 -23.7 L32.8 -21.7 33.95 -18.95 35.6 -14.25 Q38.75 -4.05 38.75 4.5 38.75 11.2 34.5 20.05 30.25 28.9 30.25 36.15 30.25 45.75 37.35 57.0 41.1 62.95 42.2 65.3 44.4 70.1 44.4 74.7 44.4 78.3 42.6 81.65 L38.6 87.65 Q32.75 96.15 32.75 107.3 L32.95 110.5 Q33.1 111.45 34.0 114.45 34.55 116.35 36.45 118.05 37.4 118.85 38.25 119.35 38.25 120.35 38.1 119.9 L37.65 120.0 34.65 118.4 Q32.25 117.1 30.65 115.3 25.65 109.9 25.65 98.9 25.65 92.0 29.0 84.2 32.35 76.35 32.35 75.0 L31.65 69.1 Q31.25 75.15 30.15 78.4 28.85 82.15 24.75 88.15 L23.35 86.0 Q23.35 73.2 21.0 67.45 20.4 70.9 20.4 72.4 20.4 78.35 21.1 79.7 L21.75 81.1 Q21.75 81.8 21.45 81.95 L20.55 81.95 22.1 90.3 Q22.1 93.9 19.8 100.5 L17.5 107.15 Q17.5 107.85 17.85 109.4 L18.5 111.6 Q18.8 112.3 22.0 115.9 L21.9 116.5 21.6 116.5 Q18.5 115.85 15.2 112.2 11.6 108.2 11.6 104.4 L13.6 99.1 Q15.6 93.4 15.6 91.05 15.6 85.8 11.3 80.25 7.0 74.7 7.0 70.25 7.0 66.2 11.05 58.25 15.3 49.85 15.85 42.85 12.45 43.9 8.75 39.15 4.75 34.0 4.75 26.7 4.75 22.15 7.1 13.75 9.4 5.4 9.4 3.5 L8.65 1.25 7.25 -2.35 Q7.2 4.3 3.9 9.6 0.75 14.6 -2.75 14.6 L-3.4 14.45 -3.3 13.8 Q1.85 5.9 1.85 0.4 L0.0 -7.2 Q-1.85 -14.3 -2.0 -17.55 L-2.0 -18.95 -2.1 -21.7 -2.15 -23.7 -2.25 -28.0 -2.6 -27.05 Q-3.3 -24.35 -5.55 -23.0 L-5.6 -23.05 -5.7 -23.25 -7.05 -21.7 Q-9.05 -19.6 -11.35 -18.5 -13.5 -17.5 -19.65 -16.0 L-20.35 -15.9 -37.45 -13.5 Q-44.65 -13.5 -51.3 -10.15 -55.3 -8.1 -57.2 -6.2 L-55.95 -6.1 -55.9 -5.7 -56.0 -1.3 -55.8 -1.25 -56.35 -1.25 -57.6 -1.75 Q-58.8 -2.65 -58.6 -4.85 L-59.6 -3.35 Q-59.15 0.75 -56.65 4.65 L-55.9 5.75 -54.5 7.4 -53.3 11.0 Q-53.95 11.95 -55.5 11.0 -63.3 6.9 -64.25 6.0 -66.3 4.05 -66.3 -1.25 -66.3 -6.55 -63.4 -10.1 -60.5 -13.65 -60.5 -15.05 -60.5 -15.55 -60.85 -15.75 -61.25 -16.0 -61.25 -16.5 -61.25 -18.5 -59.65 -20.85 -58.0 -23.3 -52.85 -28.65 -50.4 -31.2 -48.0 -32.85 -46.8 -33.7 -46.65 -34.8 -46.15 -39.0 -43.2 -42.5 -40.65 -45.55 -34.65 -47.8 -29.05 -49.95 -22.7 -50.6 L-10.55 -51.9 -3.1 -52.25 Q0.7 -52.25 5.45 -49.8 L11.0 -46.85 Q13.35 -46.05 15.0 -44.75 16.95 -43.2 20.45 -38.95 L21.8 -36.9 22.35 -35.65 Q23.6 -33.15 25.3 -31.75 M23.95 -19.75 L23.85 -20.15 23.7 -20.7 Q23.6 -21.25 23.75 -21.3 25.15 -20.45 26.15 -18.95 28.5 -15.3 28.5 -7.75 28.5 -2.25 26.45 5.8 24.4 13.85 24.4 17.55 L25.9 26.9 Q27.4 36.25 27.4 41.05 27.4 45.0 26.85 49.05 25.95 55.4 24.0 58.55 23.55 56.95 24.65 52.3 26.0 46.4 26.0 41.1 26.0 35.85 24.5 26.95 L23.0 17.65 Q23.0 12.65 25.0 5.5 27.0 -1.7 27.0 -7.3 27.0 -10.25 26.5 -11.95 25.4 -14.9 24.2 -18.95 L23.95 -19.75 M15.1 13.55 L12.35 17.6 Q10.6 20.95 10.6 27.35 10.6 31.8 12.3 35.95 13.95 40.0 16.0 40.95 L16.0 39.55 14.75 33.2 Q13.5 26.95 13.5 26.0 L15.1 13.55 M19.45 83.25 L18.4 80.4 18.65 80.4 18.35 80.25 18.1 79.5 18.05 79.8 Q17.35 78.5 16.25 74.55 14.75 68.95 14.75 67.05 14.75 63.5 15.7 59.4 17.15 53.3 17.75 48.95 L17.3 50.05 13.95 56.4 10.9 62.25 9.0 67.0 8.5 69.95 Q9.9 75.5 13.7 81.3 16.9 86.2 16.9 88.4 16.9 94.45 14.9 99.45 L12.85 104.65 Q12.85 105.7 13.95 107.85 15.15 110.15 17.1 112.75 L18.15 113.6 Q17.75 112.85 17.05 110.0 L16.4 107.2 Q16.4 104.3 18.65 97.4 L20.85 90.3 20.55 86.75 Q20.1 84.1 19.45 83.25 M-6.2 -35.35 L-5.05 -34.5 -5.25 -34.5 -7.0 -34.7 Q-8.5 -34.75 -8.5 -34.15 L-19.35 -31.15 -30.3 -28.3 -32.4 -28.45 Q-33.8 -28.6 -34.15 -29.0 -26.5 -29.3 -19.7 -32.55 -13.15 -35.65 -8.35 -35.65 L-6.2 -35.35" fill="#97877d" fill-rule="evenodd" stroke="none"/>
    <path d="M32.3 98.25 L31.6 101.35 31.5 102.0 Q30.95 101.25 30.55 99.95 30.25 98.9 30.25 98.35 30.25 92.55 33.6 83.85 36.9 75.15 36.9 70.95 36.9 68.0 33.85 61.6 L29.35 52.7 29.5 52.1 Q28.75 51.15 28.75 50.15 L28.95 49.25 29.35 49.05 30.25 49.15 Q29.8 50.25 31.2 52.25 L35.15 57.7 Q36.9 60.15 38.55 66.0 40.1 71.6 40.1 74.85 40.1 77.7 36.1 85.75 32.1 93.8 32.1 95.0 L32.3 98.25 M24.0 58.55 L23.35 56.45 Q21.35 60.25 19.95 65.8 18.4 72.0 19.1 75.15 L19.25 77.1 Q16.25 72.7 16.25 67.15 16.25 65.0 18.0 56.15 19.75 47.3 19.75 46.0 19.75 40.8 17.4 34.65 15.0 28.5 15.0 26.1 15.0 24.6 17.1 14.3 19.3 3.35 19.6 0.25 L20.15 -4.35 Q20.15 -7.25 18.6 -11.75 16.5 -18.05 13.1 -18.05 12.5 -18.05 12.4 -17.85 L12.35 -17.3 16.65 -6.75 Q17.5 -4.5 17.5 -1.85 L17.0 0.9 16.5 3.6 Q16.5 4.2 16.65 4.2 L16.95 4.15 Q15.7 9.7 12.2 17.7 9.35 24.2 9.35 27.3 9.35 29.7 10.15 33.55 11.4 39.45 13.65 40.75 12.85 40.5 11.3 39.4 L10.0 35.8 Q8.9 32.35 8.9 30.9 8.9 23.55 11.9 15.25 14.85 7.0 14.85 0.35 14.85 -9.45 11.5 -15.8 10.55 -17.65 9.45 -18.95 7.6 -21.15 5.45 -21.7 L4.5 -21.85 4.35 -21.7 3.35 -20.65 4.45 -19.2 4.65 -18.95 6.55 -16.45 7.35 -13.65 8.15 -10.55 10.3 -3.6 Q11.5 1.3 10.6 6.35 11.0 2.8 8.25 -3.95 5.75 -10.05 5.3 -10.05 4.7 -10.05 4.55 -12.3 L4.35 -17.0 Q3.5 -16.25 3.5 -14.55 3.5 -12.4 4.9 -8.55 6.25 -4.7 6.25 -3.5 6.25 -1.0 5.4 2.9 L5.4 2.8 Q5.4 1.65 3.25 -6.0 1.1 -13.65 1.1 -16.05 L0.9 -18.95 0.45 -21.1 0.3 -21.7 -0.6 -23.7 -0.8 -23.9 -1.4 -28.75 Q1.25 -31.7 3.5 -33.2 7.15 -35.75 11.0 -35.75 17.85 -35.75 20.9 -32.8 L23.8 -29.0 27.25 -23.7 27.3 -23.6 28.6 -21.7 30.3 -18.95 Q33.0 -14.35 34.3 -10.35 35.85 -5.45 35.85 0.8 35.85 5.45 32.9 15.65 29.85 26.35 28.0 26.35 L27.2 26.15 27.1 25.4 Q27.5 22.75 29.9 11.95 31.5 4.55 31.5 -0.05 31.5 -10.15 27.25 -18.95 L25.8 -21.7 24.6 -23.7 24.45 -23.95 Q17.8 -34.25 11.0 -34.25 L9.7 -34.0 8.55 -33.55 Q12.85 -34.0 18.25 -28.15 L21.85 -23.7 23.05 -21.7 23.95 -19.75 24.2 -18.95 Q25.4 -14.9 26.5 -11.95 27.0 -10.25 27.0 -7.3 27.0 -1.7 25.0 5.5 23.0 12.65 23.0 17.65 L24.5 26.95 Q26.0 35.85 26.0 41.1 26.0 46.4 24.65 52.3 23.55 56.95 24.0 58.55 M6.75 31.3 L6.15 26.75 6.35 23.5 Q6.25 25.35 6.75 31.3 M-14.05 -25.8 L-14.2 -26.15 -14.5 -26.4 Q-15.15 -23.6 -18.25 -21.7 -19.2 -21.15 -20.35 -20.65 L-20.95 -20.4 Q-23.7 -19.3 -33.6 -17.15 -43.1 -15.1 -48.5 -12.8 -56.75 -9.25 -61.6 -3.25 L-61.8 -2.95 -63.4 1.1 -63.5 -0.8 Q-61.65 -8.15 -59.0 -10.8 L-59.0 -10.3 -58.85 -10.0 -58.2 -9.9 Q-57.85 -9.9 -50.3 -13.2 -42.6 -16.6 -41.25 -16.8 L-31.65 -18.6 Q-28.9 -19.45 -25.15 -22.25 L-25.5 -22.9 -26.3 -23.1 Q-27.35 -23.1 -29.05 -22.25 L-29.1 -22.35 -27.6 -23.4 -27.9 -23.3 Q-32.7 -23.3 -40.95 -21.85 L-43.15 -21.45 -32.95 -24.5 Q-32.95 -23.9 -30.75 -24.05 L-27.8 -24.35 Q-20.2 -24.35 -8.8 -29.9 -3.1 -32.65 1.7 -35.3 -0.4 -35.8 -6.2 -35.35 L-8.35 -35.65 Q-13.15 -35.65 -19.7 -32.55 -26.5 -29.3 -34.15 -29.0 -33.8 -28.6 -32.4 -28.45 L-44.7 -22.7 -52.75 -20.3 -52.9 -21.2 Q-52.15 -23.6 -49.3 -26.85 -46.05 -30.5 -45.3 -32.0 -40.05 -35.55 -32.95 -36.5 L-26.0 -37.0 -28.95 -37.45 -31.65 -37.7 -35.4 -37.4 -39.25 -36.65 Q-34.9 -39.25 -35.45 -40.75 -35.65 -41.3 -29.9 -42.2 -29.0 -42.35 -21.2 -45.25 -14.6 -47.7 -8.2 -47.7 -3.0 -47.7 0.9 -45.85 4.25 -44.25 4.25 -42.85 2.35 -39.75 1.15 -40.0 2.5 -39.3 2.5 -35.05 2.5 -34.6 -4.1 -31.9 -11.45 -28.85 -14.05 -25.8 M-49.5 -20.15 L-45.0 -21.5 -43.9 -21.3 -49.5 -20.15 M0.6 -44.45 L2.15 -42.75 Q2.8 -42.4 1.55 -43.6 L-0.15 -44.95 0.6 -44.45 M6.55 -45.75 L9.25 -43.75 Q9.25 -43.3 9.05 -43.15 L8.1 -43.0 Q7.45 -43.0 4.9 -44.75 2.4 -46.45 2.4 -46.8 2.4 -47.45 2.65 -47.6 L3.15 -47.75 Q3.95 -47.6 6.55 -45.75 M11.7 -42.75 L11.95 -43.15 12.5 -43.35 13.1 -43.15 13.3 -42.75 13.1 -42.3 12.5 -42.15 11.95 -42.3 11.7 -42.75 M1.25 -27.15 L1.35 -26.75 5.4 -26.75 5.2 -25.9 Q5.65 -25.35 10.05 -23.7 12.2 -22.9 13.95 -21.7 L17.0 -18.95 17.1 -18.8 Q22.0 -12.85 22.0 -4.75 22.0 -0.3 19.65 9.1 17.25 18.5 17.25 20.8 17.25 23.15 19.55 31.8 21.85 40.45 21.85 42.8 L21.2 49.2 20.1 57.0 20.1 58.05 Q20.2 58.35 20.85 58.35 22.55 58.35 23.65 49.25 L24.4 40.0 23.05 31.7 Q21.65 24.25 21.65 19.25 21.65 14.3 23.9 -7.1 23.9 -13.7 21.9 -18.95 L21.1 -20.75 20.65 -21.7 19.4 -23.7 Q15.05 -29.8 7.15 -29.8 L3.75 -29.15 Q1.9 -28.4 1.25 -27.15 M26.75 54.25 L27.15 55.6 27.45 59.9 Q27.45 61.0 28.0 63.95 L28.5 68.6 Q28.5 71.05 27.95 73.5 27.35 76.35 26.5 76.35 L25.8 76.25 25.85 76.15 25.6 75.4 Q26.1 72.25 25.75 68.75 25.25 63.75 25.25 62.4 25.25 59.9 25.7 57.8 L26.75 54.25 M19.45 83.25 Q20.1 84.1 20.55 86.75 L20.85 90.3 18.65 97.4 Q16.4 104.3 16.4 107.2 L17.05 110.0 Q17.75 112.85 18.15 113.6 L17.1 112.75 17.5 113.1 16.3 110.3 Q15.4 108.0 15.4 107.0 15.4 103.7 17.15 97.45 18.9 91.2 18.9 89.7 18.9 86.0 16.8 81.95 14.4 78.0 13.75 76.4 L11.6 70.75 Q11.2 69.9 10.5 70.55 L10.0 69.0 9.0 67.0 10.9 62.25 Q11.8 66.85 12.45 69.1 L14.1 74.55 Q14.5 76.0 15.7 77.25 17.0 78.55 17.3 79.45 L18.0 82.2 Q18.1 82.55 19.45 83.25 M-42.7 -26.85 Q-41.1 -29.0 -38.5 -30.15 L-34.3 -30.7 Q-31.0 -30.9 -29.9 -31.4 -17.9 -36.95 -15.35 -37.35 L-5.25 -37.0 -4.6 -37.05 -4.4 -37.35 -3.9 -38.0 Q-4.7 -39.25 -15.0 -39.25 -19.4 -39.25 -23.5 -36.85 L-28.85 -33.95 -38.1 -32.45 Q-44.85 -30.45 -45.1 -25.3 -45.25 -25.05 -44.25 -25.05 L-42.7 -26.85 M-0.7 -41.45 L-0.55 -41.55 Q-0.4 -41.75 -0.4 -42.4 -0.4 -44.65 -9.9 -44.65 -15.15 -44.65 -19.45 -43.25 L-23.65 -41.7 Q-31.4 -40.85 -33.15 -39.5 L-32.5 -38.75 -20.95 -40.8 -9.6 -42.65 -0.9 -41.4 -0.7 -41.45" fill="#ebe8e0" fill-rule="evenodd" stroke="none"/>
    <path d="M-39.25 -36.65 Q-42.65 -35.35 -46.05 -33.6 L-45.35 -34.2 -45.15 -34.5 Q-44.75 -39.35 -41.3 -42.55 -38.65 -44.95 -33.5 -47.0 -15.05 -50.55 -4.65 -50.55 0.1 -50.55 2.6 -49.2 7.75 -46.4 8.45 -46.15 12.7 -44.6 13.7 -43.75 L19.35 -37.65 12.0 -41.0 7.65 -40.95 Q4.05 -40.8 4.05 -40.15 4.05 -39.5 3.45 -39.1 L2.4 -38.5 2.75 -38.2 3.0 -38.05 Q5.3 -39.55 5.9 -39.7 L12.0 -40.0 Q14.0 -40.0 22.5 -34.0 L23.15 -33.4 Q26.85 -28.35 29.55 -23.7 L30.65 -21.7 32.0 -18.95 33.3 -16.0 Q37.15 -6.45 37.15 4.4 37.15 10.2 32.95 19.45 28.75 28.7 28.75 36.1 28.75 43.0 31.0 48.55 32.45 52.15 35.9 57.05 39.65 62.35 40.75 64.7 43.0 69.35 43.0 74.7 43.0 78.6 39.15 84.0 34.35 90.65 32.3 98.25 L32.1 95.0 Q32.1 93.8 36.1 85.75 40.1 77.7 40.1 74.85 40.1 71.6 38.55 66.0 36.9 60.15 35.15 57.7 L31.2 52.25 Q29.8 50.25 30.25 49.15 L29.35 49.05 28.95 49.25 28.75 50.15 Q28.75 51.15 29.5 52.1 L29.35 52.7 33.85 61.6 Q36.9 68.0 36.9 70.95 36.9 75.15 33.6 83.85 30.25 92.55 30.25 98.35 30.25 98.9 30.55 99.95 30.95 101.25 31.5 102.0 L31.6 101.35 31.25 105.75 Q31.25 110.2 32.55 114.4 L33.25 116.1 Q31.35 115.05 29.45 111.2 26.75 105.85 26.75 98.9 26.75 92.45 30.2 84.65 33.6 76.8 33.6 75.0 33.6 69.1 31.4 63.65 29.8 59.55 28.75 58.85 L28.35 58.9 29.25 60.65 Q29.6 62.1 30.15 68.55 L30.25 68.55 Q29.85 74.65 29.35 76.4 28.75 78.5 25.4 84.5 L25.25 82.85 Q25.1 76.05 24.25 71.4 23.5 67.25 22.0 63.85 L23.05 60.9 23.25 60.6 Q23.5 60.65 24.0 58.55 25.95 55.4 26.85 49.05 27.4 45.0 27.4 41.05 27.4 36.25 25.9 26.9 L24.4 17.55 Q24.4 13.85 26.45 5.8 28.5 -2.25 28.5 -7.75 28.5 -15.3 26.15 -18.95 25.15 -20.45 23.75 -21.3 23.6 -21.25 23.7 -20.7 L23.85 -20.15 23.95 -19.75 23.05 -21.7 21.85 -23.7 18.25 -28.15 Q12.85 -34.0 8.55 -33.55 L9.7 -34.0 11.0 -34.25 Q17.8 -34.25 24.45 -23.95 L24.6 -23.7 25.8 -21.7 27.25 -18.95 Q31.5 -10.15 31.5 -0.05 31.5 4.55 29.9 11.95 27.5 22.75 27.1 25.4 L27.2 26.15 28.0 26.35 Q29.85 26.35 32.9 15.65 35.85 5.45 35.85 0.8 35.85 -5.45 34.3 -10.35 33.0 -14.35 30.3 -18.95 L28.6 -21.7 27.3 -23.6 27.25 -23.7 23.8 -29.0 20.9 -32.8 Q17.85 -35.75 11.0 -35.75 7.15 -35.75 3.5 -33.2 1.25 -31.7 -1.4 -28.75 L-1.75 -29.75 -2.25 -29.85 Q-5.15 -25.45 -9.2 -22.0 L-9.55 -21.7 Q-14.65 -17.45 -20.35 -16.6 -23.3 -16.15 -26.4 -16.65 -22.9 -17.6 -20.35 -18.8 -17.6 -20.1 -16.05 -21.7 -14.25 -23.55 -14.05 -25.8 -11.45 -28.85 -4.1 -31.9 2.5 -34.6 2.5 -35.05 2.5 -39.3 1.15 -40.0 2.35 -39.75 4.25 -42.85 4.25 -44.25 0.9 -45.85 -3.0 -47.7 -8.2 -47.7 -14.6 -47.7 -21.2 -45.25 -29.0 -42.35 -29.9 -42.2 -35.65 -41.3 -35.45 -40.75 -34.9 -39.25 -39.25 -36.65 M19.6 0.25 L19.55 0.35 19.65 -1.8 18.3 -6.35 15.75 -13.75 17.35 -6.25 Q18.1 -2.25 16.95 4.15 L16.65 4.2 Q16.5 4.2 16.5 3.6 L17.0 0.9 17.5 -1.85 Q17.5 -4.5 16.65 -6.75 L12.35 -17.3 12.4 -17.85 Q12.5 -18.05 13.1 -18.05 16.5 -18.05 18.6 -11.75 20.15 -7.25 20.15 -4.35 L19.6 0.25 M-61.6 -3.25 Q-61.2 -0.65 -61.6 0.1 L-60.45 -1.75 Q-59.35 2.75 -58.65 3.7 L-56.05 6.95 -55.6 8.7 -57.65 7.75 -61.5 5.7 Q-63.5 4.25 -63.95 2.8 -64.55 2.8 -64.4 3.35 L-64.25 3.9 -64.85 1.35 -65.05 -1.1 Q-65.05 -6.9 -62.85 -9.15 L-58.65 -11.75 -58.5 -11.6 Q-58.5 -11.25 -59.0 -10.8 -61.65 -8.15 -63.5 -0.8 L-63.4 1.1 -61.8 -2.95 -61.6 -3.25 M-29.1 -22.35 L-29.75 -22.65 Q-30.65 -22.0 -41.7 -19.5 -52.95 -16.95 -58.95 -12.9 L-60.2 -12.05 -55.95 -16.9 Q-53.5 -19.1 -49.5 -20.15 L-43.9 -21.3 -43.65 -21.3 -43.15 -21.45 -40.95 -21.85 Q-32.7 -23.3 -27.9 -23.3 L-27.6 -23.4 -29.1 -22.35 M-52.75 -20.3 L-56.1 -18.35 -59.35 -16.3 -59.5 -16.75 Q-59.25 -19.4 -55.7 -23.8 -51.35 -29.2 -45.3 -32.0 -46.05 -30.5 -49.3 -26.85 -52.15 -23.6 -52.9 -21.2 L-52.75 -20.3 M11.7 -42.75 L11.95 -42.3 12.5 -42.15 13.1 -42.3 13.3 -42.75 13.1 -43.15 12.5 -43.35 11.95 -43.15 11.7 -42.75 M6.55 -45.75 Q3.95 -47.6 3.15 -47.75 L2.65 -47.6 Q2.4 -47.45 2.4 -46.8 2.4 -46.45 4.9 -44.75 7.45 -43.0 8.1 -43.0 L9.05 -43.15 Q9.25 -43.3 9.25 -43.75 L6.55 -45.75 M0.6 -44.45 L-0.15 -44.95 1.55 -43.6 Q2.8 -42.4 2.15 -42.75 L0.6 -44.45 M26.75 54.25 L25.7 57.8 Q25.25 59.9 25.25 62.4 25.25 63.75 25.75 68.75 26.1 72.25 25.6 75.4 L25.85 76.15 25.8 76.25 26.5 76.35 Q27.35 76.35 27.95 73.5 28.5 71.05 28.5 68.6 L28.0 63.95 Q27.45 61.0 27.45 59.9 L27.15 55.6 26.75 54.25 M10.9 62.25 L13.95 56.4 17.3 50.05 17.75 48.95 Q17.15 53.3 15.7 59.4 14.75 63.5 14.75 67.05 14.75 68.95 16.25 74.55 17.35 78.5 18.05 79.8 L18.1 79.5 18.35 80.25 18.65 80.4 18.4 80.4 19.45 83.25 Q18.1 82.55 18.0 82.2 L17.3 79.45 Q17.0 78.55 15.7 77.25 14.5 76.0 14.1 74.55 L12.45 69.1 Q11.8 66.85 10.9 62.25" fill="#cbc8c0" fill-rule="evenodd" stroke="none"/>
  </g>
</svg>
