<?xml version="1.0" encoding="UTF-8" standalone="no"?>
<svg xmlns:ffdec="https://www.free-decompiler.com/flash" xmlns:xlink="http://www.w3.org/1999/xlink" ffdec:objectType="shape" height="70.7px" width="105.55px" xmlns="http://www.w3.org/2000/svg">
  <g transform="matrix(1.0, 0.0, 0.0, 1.0, 33.0, 41.7)">
    <path d="M-14.7 -13.35 Q-15.3 -15.5 -18.35 -18.25 -21.75 -21.35 -26.1 -23.05 L13.2 -18.7 -5.35 -25.55 Q-5.6 -26.65 -7.75 -30.35 L-10.0 -34.2 0.25 -31.85 11.2 -27.7 2.65 -34.25 3.05 -35.85 Q3.4 -37.75 3.25 -39.3 L4.8 -39.1 Q8.9 -37.3 15.5 -33.15 23.5 -28.15 27.45 -24.2 L24.1 -31.9 25.15 -33.95 26.2 -36.55 38.95 -21.45 Q39.5 -22.15 39.9 -23.8 40.35 -25.95 39.9 -27.55 L40.35 -28.1 42.8 -24.05 44.95 -19.7 50.45 -20.2 48.7 -15.2 53.95 -13.55 Q56.8 -12.8 59.85 -12.8 L62.4 -12.95 Q60.5 2.75 56.7 7.8 54.6 10.6 49.2 11.4 49.45 11.3 49.7 9.85 L49.95 7.5 Q49.95 0.9 44.95 0.9 L43.05 1.25 41.9 1.6 Q41.7 -5.9 46.85 -12.35 L41.05 -12.65 33.2 -11.8 Q30.0 -11.0 23.4 -8.55 23.05 -10.5 21.8 -11.9 20.75 -13.1 20.05 -13.1 19.35 -13.1 12.75 -10.45 6.2 -7.8 -1.0 -7.8 -3.35 -7.8 -7.75 -9.65 -11.7 -11.35 -14.7 -13.35" fill="#7a5036" fill-rule="evenodd" stroke="none"/>
    <path d="M62.6 26.6 L62.75 28.65 62.55 28.85 61.7 29.0 Q61.55 29.0 61.45 27.25 61.25 24.5 58.35 20.95 L55.5 18.15 Q55.0 17.6 55.0 14.5 L54.95 12.6 54.85 12.15 Q52.1 13.7 50.3 13.7 L46.65 12.55 47.4 10.0 47.9 7.65 Q47.9 5.25 47.3 4.2 46.65 3.0 44.85 3.0 43.35 3.0 40.15 5.0 L39.9 0.55 Q39.9 -3.05 40.9 -5.8 L43.15 -10.65 Q38.1 -11.0 31.75 -9.35 26.0 -7.9 21.5 -5.4 L21.55 -7.65 Q21.0 -10.9 19.95 -10.9 L11.3 -8.3 Q2.35 -5.75 -1.15 -5.75 -8.25 -5.75 -12.5 -8.35 -15.55 -10.2 -16.25 -12.55 L-15.55 -12.4 Q-15.3 -12.45 -15.0 -12.8 L-14.7 -13.35 Q-11.7 -11.35 -7.75 -9.65 -3.35 -7.8 -1.0 -7.8 6.2 -7.8 12.75 -10.45 19.35 -13.1 20.05 -13.1 20.75 -13.1 21.8 -11.9 23.05 -10.5 23.4 -8.55 30.0 -11.0 33.2 -11.8 L41.05 -12.65 46.85 -12.35 Q41.7 -5.9 41.9 1.6 L43.05 1.25 44.95 0.9 Q49.95 0.9 49.95 7.5 L49.7 9.85 Q49.45 11.3 49.2 11.4 54.6 10.6 56.7 7.8 60.5 2.75 62.4 -12.95 L59.85 -12.8 Q56.8 -12.8 53.95 -13.55 L48.7 -15.2 50.45 -20.2 44.95 -19.7 42.8 -24.05 40.35 -28.1 42.7 -30.95 Q45.7 -28.55 48.4 -25.4 50.35 -23.1 50.8 -23.1 52.2 -23.1 54.25 -24.5 55.35 -20.35 54.35 -18.5 L56.95 -18.0 59.65 -17.65 62.4 -17.95 Q65.35 -18.4 66.75 -19.35 L66.6 -10.75 67.15 -2.45 Q67.25 -0.7 68.7 1.3 70.1 3.25 70.1 3.55 70.1 4.9 67.55 10.15 L64.1 17.45 61.9 23.8 Q61.45 24.95 61.45 25.55 61.45 25.9 61.75 26.1 L62.6 26.6 M-26.1 -23.05 L-26.8 -23.35 -5.15 -24.9 -5.35 -25.55 13.2 -18.7 -26.1 -23.05 M-10.0 -34.2 L-4.35 -34.75 -0.95 -34.25 2.3 -33.55 2.65 -34.25 11.2 -27.7 0.25 -31.85 -10.0 -34.2 M4.8 -39.1 Q9.85 -38.4 15.6 -35.95 20.6 -33.8 23.65 -31.45 L24.1 -31.9 27.45 -24.2 Q23.5 -28.15 15.5 -33.15 8.9 -37.3 4.8 -39.1 M26.2 -36.55 Q28.95 -35.45 31.95 -33.6 36.4 -30.85 39.7 -27.3 L39.9 -27.55 Q40.35 -25.95 39.9 -23.8 39.5 -22.15 38.95 -21.45 L26.2 -36.55" fill="#603f2b" fill-rule="evenodd" stroke="none"/>
    <path d="M-16.25 -12.55 Q-18.15 -14.8 -22.5 -18.2 -28.8 -23.0 -33.0 -23.5 -12.6 -27.25 -7.85 -27.1 -8.4 -28.4 -10.8 -30.9 L-13.5 -33.4 -13.5 -35.2 -9.75 -36.1 -6.05 -36.7 -2.05 -36.55 Q1.15 -36.3 1.15 -35.9 L1.3 -36.3 1.45 -37.45 Q1.45 -38.65 0.15 -41.7 5.65 -41.35 11.8 -39.45 18.7 -37.3 23.3 -34.1 L23.7 -35.8 Q23.95 -37.7 23.15 -39.75 27.45 -38.5 31.65 -36.1 36.05 -33.6 39.55 -30.25 L42.3 -33.55 Q45.85 -31.3 47.85 -27.8 49.45 -25.15 50.4 -25.15 L52.15 -25.4 Q53.9 -25.9 54.65 -27.45 56.1 -25.8 56.55 -24.1 57.0 -22.35 56.65 -20.0 L57.65 -19.85 59.35 -19.7 63.65 -20.7 Q67.2 -21.8 68.75 -22.65 L68.6 -10.75 69.15 -2.85 Q72.55 2.15 72.55 3.15 72.55 4.05 68.2 14.75 63.7 25.8 62.6 26.6 L61.75 26.1 Q61.45 25.9 61.45 25.55 61.45 24.95 61.9 23.8 L64.1 17.45 67.55 10.15 Q70.1 4.9 70.1 3.55 70.1 3.25 68.7 1.3 67.25 -0.7 67.15 -2.45 L66.6 -10.75 66.75 -19.35 Q65.35 -18.4 62.4 -17.95 L59.65 -17.65 56.95 -18.0 54.35 -18.5 Q55.35 -20.35 54.25 -24.5 52.2 -23.1 50.8 -23.1 50.35 -23.1 48.4 -25.4 45.7 -28.55 42.7 -30.95 L40.35 -28.1 39.9 -27.55 39.7 -27.3 Q36.4 -30.85 31.95 -33.6 28.95 -35.45 26.2 -36.55 L25.15 -33.95 24.1 -31.9 23.65 -31.45 Q20.6 -33.8 15.6 -35.95 9.85 -38.4 4.8 -39.1 L3.25 -39.3 Q3.4 -37.75 3.05 -35.85 L2.65 -34.25 2.3 -33.55 -0.95 -34.25 -4.35 -34.75 -10.0 -34.2 -7.75 -30.35 Q-5.6 -26.65 -5.35 -25.55 L-5.15 -24.9 -26.8 -23.35 -26.1 -23.05 Q-21.75 -21.35 -18.35 -18.25 -15.3 -15.5 -14.7 -13.35 L-15.0 -12.8 Q-15.3 -12.45 -15.55 -12.4 L-16.25 -12.55" fill="#4d2e11" fill-rule="evenodd" stroke="none"/>
  </g>
</svg>
