<?xml version="1.0" encoding="UTF-8" standalone="no"?>
<svg xmlns:ffdec="https://www.free-decompiler.com/flash" xmlns:xlink="http://www.w3.org/1999/xlink" ffdec:objectType="shape" height="61.35px" width="42.85px" xmlns="http://www.w3.org/2000/svg">
  <g transform="matrix(1.0, 0.0, 0.0, 1.0, 13.15, 10.35)">
    <path d="M23.65 48.75 Q19.55 49.2 14.1 43.75 8.95 38.6 8.95 35.6 8.95 34.6 -6.55 10.25 L-10.35 1.95 Q-11.05 0.5 -11.05 -1.1 L-10.2 -4.35 Q-8.85 -7.6 -6.45 -7.6 L-5.4 -7.5 -5.15 -7.4 Q-5.6 -6.8 -5.65 -5.95 L9.05 21.65 23.65 48.75 M26.15 47.4 L26.1 47.45 26.15 47.4 M25.75 47.65 L25.5 47.9 23.85 48.7 25.75 47.65 M-0.6 -3.7 Q7.7 6.85 17.25 25.1 26.25 42.3 26.05 45.8 L-0.6 -3.7" fill="#593924" fill-rule="evenodd" stroke="none"/>
    <path d="M-5.15 -7.4 L-5.4 -7.5 -6.45 -7.6 Q-8.85 -7.6 -10.2 -4.35 L-11.05 -1.1 Q-11.05 0.5 -10.35 1.95 L-6.55 10.25 -11.7 2.1 Q-12.2 1.2 -12.2 -0.15 -12.2 -5.85 -9.2 -8.15 -7.35 -9.6 -4.55 -9.6 0.65 -9.6 3.55 -4.35 13.75 15.35 25.15 35.25 27.2 38.8 27.55 40.15 27.75 41.0 27.75 44.45 27.75 45.7 27.25 46.45 L26.15 47.4 Q26.45 47.05 26.25 46.4 L26.05 45.8 Q26.25 42.3 17.25 25.1 7.7 6.85 -0.6 -3.7 -0.6 -5.25 -1.9 -6.3 -3.25 -7.4 -5.15 -7.4" fill="#432b1b" fill-rule="evenodd" stroke="none"/>
    <path d="M5.35 -5.25 L24.65 31.5 27.35 36.4 Q29.7 41.25 29.7 44.45 29.7 47.8 26.5 49.65 24.2 51.0 22.1 51.0 20.25 51.0 17.45 49.0 15.4 47.5 13.7 45.65 L13.8 45.65 13.65 45.05 Q13.5 44.7 12.85 44.7 L10.4 41.65 -11.9 4.15 Q-13.15 2.9 -13.15 -0.3 -13.15 -3.8 -11.05 -6.65 -8.3 -10.35 -3.2 -10.35 0.0 -10.35 1.9 -8.85 L5.35 -5.25 M-6.55 10.25 Q8.95 34.6 8.95 35.6 8.95 38.6 14.1 43.75 19.55 49.2 23.65 48.75 L23.85 48.7 25.5 47.9 25.75 47.65 26.1 47.45 26.15 47.4 27.25 46.45 Q27.75 45.7 27.75 44.45 27.75 41.0 27.55 40.15 27.2 38.8 25.15 35.25 13.75 15.35 3.55 -4.35 0.65 -9.6 -4.55 -9.6 -7.35 -9.6 -9.2 -8.15 -12.2 -5.85 -12.2 -0.15 -12.2 1.2 -11.7 2.1 L-6.55 10.25" fill="#332115" fill-rule="evenodd" stroke="none"/>
    <path d="M23.65 48.75 L9.05 21.65 -5.65 -5.95 Q-5.6 -6.8 -5.15 -7.4 -3.25 -7.4 -1.9 -6.3 -0.6 -5.25 -0.6 -3.7 L26.05 45.8 26.25 46.4 Q26.45 47.05 26.15 47.4 L26.1 47.45 25.75 47.65 23.85 48.7 23.65 48.75" fill="#cccccc" fill-rule="evenodd" stroke="none"/>
  </g>
</svg>
