<?xml version="1.0" encoding="UTF-8" standalone="no"?>
<svg xmlns:ffdec="https://www.free-decompiler.com/flash" xmlns:xlink="http://www.w3.org/1999/xlink" ffdec:objectType="shape" height="420.5px" width="420.5px" xmlns="http://www.w3.org/2000/svg">
  <g transform="matrix(1.0, 0.0, 0.0, 1.0, 210.25, 210.25)">
    <path d="M123.6 -170.1 L29.35 -29.4 170.1 -123.6 37.0 -18.9 199.95 -64.95 41.0 -6.5 210.25 0.0 41.0 6.45 199.95 64.95 37.0 18.85 170.1 123.6 29.35 29.35 123.6 170.1 18.85 37.0 64.95 199.95 6.45 41.0 0.0 210.25 -6.5 41.0 -65.0 199.95 -18.9 37.0 -123.65 170.1 -29.4 29.35 -170.1 123.6 -37.05 18.85 -199.95 64.95 -41.05 6.45 -210.25 0.0 -41.05 -6.5 -199.95 -64.95 -37.05 -18.9 -170.1 -123.6 -29.4 -29.4 -123.65 -170.1 -18.9 -37.05 -65.0 -199.95 -6.5 -41.05 -0.05 -210.25 6.45 -41.05 64.95 -199.95 18.85 -37.05 123.6 -170.1" fill="url(#gradient0)" fill-rule="evenodd" stroke="none"/>
  </g>
  <defs>
    <radialGradient cx="0" cy="0" gradientTransform="matrix(0.2567, 0.0, 0.0, 0.2567, 0.0, 0.0)" gradientUnits="userSpaceOnUse" id="gradient0" r="819.2" spreadMethod="pad">
      <stop offset="0.16470588235294117" stop-color="#000000"/>
      <stop offset="1.0" stop-color="#464646"/>
    </radialGradient>
  </defs>
</svg>
