<?xml version="1.0" encoding="UTF-8" standalone="no"?>
<svg xmlns:ffdec="https://www.free-decompiler.com/flash" xmlns:xlink="http://www.w3.org/1999/xlink" ffdec:objectType="shape" height="77.7px" width="68.0px" xmlns="http://www.w3.org/2000/svg">
  <g transform="matrix(1.0, 0.0, 0.0, 1.0, 86.0, 53.0)">
    <path d="M-18.1 -31.85 Q-22.95 -40.4 -28.1 -44.65 -33.45 -48.95 -41.35 -50.65 -57.55 -54.2 -69.9 -43.6 -80.3 -34.6 -83.25 -20.9 -85.35 -11.2 -83.35 -1.35 -81.8 7.05 -77.75 13.1 L-77.1 11.35 Q-76.35 14.9 -73.55 18.55 -71.05 21.95 -69.35 22.45 -69.95 16.95 -69.95 14.75 -69.95 10.6 -68.85 5.65 L-67.85 1.85 -65.8 9.95 Q-65.75 1.85 -58.5 -8.9 -52.0 -18.55 -49.35 -18.75 L-49.15 -18.0 -50.65 -11.95 -45.8 -16.85 Q-43.55 -18.95 -41.45 -20.0 -36.3 -22.4 -19.25 -23.3 -18.3 -23.45 -20.65 -22.4 L-28.35 -21.75 Q-33.85 -21.5 -41.7 -17.05 -49.5 -12.65 -51.65 -8.6 L-52.55 -9.1 Q-52.7 -10.0 -52.5 -10.9 L-51.7 -13.6 Q-56.25 -8.95 -59.15 -4.65 -60.45 -2.85 -64.95 9.25 L-65.6 13.05 -67.4 10.15 -67.9 24.7 Q-77.3 19.2 -82.2 8.75 -88.15 -3.95 -84.75 -19.6 -80.35 -40.1 -65.35 -48.35 -53.35 -55.0 -39.9 -52.1 -29.85 -49.9 -22.65 -42.3 -18.35 -37.9 -18.1 -31.85 M-19.15 -23.6 L-22.55 -28.6 -18.45 -26.55 Q-18.65 -25.1 -19.15 -23.6 M-18.3 -27.55 Q-18.75 -29.2 -20.0 -30.9 L-23.45 -34.9 Q-23.15 -35.15 -18.1 -31.8 -17.9 -29.75 -18.3 -27.55" fill="#6f5c4d" fill-rule="evenodd" stroke="none"/>
    <path d="M-19.25 -23.3 Q-36.3 -22.4 -41.45 -20.0 -43.55 -18.95 -45.8 -16.85 L-50.65 -11.95 -49.15 -18.0 -49.35 -18.75 Q-52.0 -18.55 -58.5 -8.9 -65.75 1.85 -65.8 9.95 L-67.85 1.85 -68.85 5.65 Q-69.95 10.6 -69.95 14.75 -69.95 16.95 -69.35 22.45 -71.05 21.95 -73.55 18.55 -76.35 14.9 -77.1 11.35 L-77.75 13.1 Q-81.8 7.05 -83.35 -1.35 -85.35 -11.2 -83.25 -20.9 -80.3 -34.6 -69.9 -43.6 -57.55 -54.2 -41.35 -50.65 -33.45 -48.95 -28.1 -44.65 -22.95 -40.4 -18.1 -31.85 L-18.05 -31.75 -18.1 -31.8 Q-23.15 -35.15 -23.45 -34.9 L-20.0 -30.9 Q-18.75 -29.2 -18.3 -27.55 L-18.0 -26.4 -18.45 -26.55 -22.55 -28.6 -19.15 -23.6 -19.25 -23.3 M-69.7 -1.7 L-68.65 -0.25 -67.75 -0.2 -67.55 -0.3 Q-65.8 -12.05 -58.45 -19.3 -52.8 -24.85 -46.8 -26.0 L-47.8 -19.7 Q-43.7 -23.9 -37.65 -25.95 -31.8 -27.85 -26.9 -26.75 L-24.5 -26.1 Q-25.65 -28.05 -28.45 -30.15 -31.0 -32.0 -31.35 -32.8 L-25.1 -31.5 -33.95 -40.8 -32.3 -40.55 -24.6 -37.15 Q-30.95 -44.8 -41.1 -47.0 -54.1 -49.8 -65.25 -42.5 -77.8 -34.25 -81.7 -16.4 -83.65 -7.35 -80.95 -0.45 -80.05 1.8 -78.45 4.1 L-76.35 7.2 -71.4 -4.45 -69.7 -1.7" fill="#b9a99b" fill-rule="evenodd" stroke="none"/>
    <path d="M-59.1 -31.5 Q-63.25 -29.1 -67.15 -23.45 -70.35 -18.75 -70.9 -16.05 L-71.3 -13.4 Q-71.5 -10.55 -70.6 -9.25 -69.5 -15.6 -58.5 -26.2 -47.0 -37.3 -36.4 -41.15 L-41.9 -42.85 -38.15 -44.15 -41.15 -44.85 Q-56.1 -48.1 -67.75 -36.45 -72.05 -32.1 -75.2 -26.4 -77.85 -21.6 -78.65 -17.7 -80.75 -8.0 -79.35 -0.35 -72.75 -17.0 -67.95 -24.25 -64.2 -29.85 -60.55 -30.9 L-59.1 -31.5 M-49.0 -30.1 L-49.05 -29.4 -48.6 -29.2 -33.15 -30.5 -33.45 -31.05 -33.9 -32.3 Q-34.4 -34.25 -32.95 -34.9 L-35.25 -35.55 Q-37.75 -36.1 -42.45 -34.8 -48.3 -33.35 -49.0 -30.1 M-69.7 -1.7 L-71.4 -4.45 -76.35 7.2 -78.45 4.1 Q-80.05 1.8 -80.95 -0.45 -83.65 -7.35 -81.7 -16.4 -77.8 -34.25 -65.25 -42.5 -54.1 -49.8 -41.1 -47.0 -30.95 -44.8 -24.6 -37.15 L-32.3 -40.55 -33.95 -40.8 -25.1 -31.5 -31.35 -32.8 Q-31.0 -32.0 -28.45 -30.15 -25.65 -28.05 -24.5 -26.1 L-26.9 -26.75 Q-31.8 -27.85 -37.65 -25.95 -43.7 -23.9 -47.8 -19.7 L-46.8 -26.0 Q-52.8 -24.85 -58.45 -19.3 -65.8 -12.05 -67.55 -0.3 L-67.75 -0.2 -68.65 -0.25 -69.7 -1.7" fill="#ccc1b7" fill-rule="evenodd" stroke="none"/>
    <path d="M-49.0 -30.1 Q-48.3 -33.35 -42.45 -34.8 -37.75 -36.1 -35.25 -35.55 L-32.95 -34.9 Q-34.4 -34.25 -33.9 -32.3 L-33.45 -31.05 -33.15 -30.5 -48.6 -29.2 -49.05 -29.4 -49.0 -30.1 M-59.1 -31.5 L-60.55 -30.9 Q-64.2 -29.85 -67.95 -24.25 -72.75 -17.0 -79.35 -0.35 -80.75 -8.0 -78.65 -17.7 -77.85 -21.6 -75.2 -26.4 -72.05 -32.1 -67.75 -36.45 -56.1 -48.1 -41.15 -44.85 L-38.15 -44.15 -41.9 -42.85 -36.4 -41.15 Q-47.0 -37.3 -58.5 -26.2 -69.5 -15.6 -70.6 -9.25 -71.5 -10.55 -71.3 -13.4 L-70.9 -16.05 Q-70.35 -18.75 -67.15 -23.45 -63.25 -29.1 -59.1 -31.5" fill="#e0d5cb" fill-rule="evenodd" stroke="none"/>
  </g>
</svg>
