<?xml version="1.0" encoding="UTF-8" standalone="no"?>
<svg xmlns:ffdec="https://www.free-decompiler.com/flash" xmlns:xlink="http://www.w3.org/1999/xlink" ffdec:objectType="shape" height="18.5px" width="18.5px" xmlns="http://www.w3.org/2000/svg">
  <g transform="matrix(1.0, 0.0, 0.0, 1.0, 0.0, 0.0)">
    <path d="M18.5 9.25 L18.4 10.65 Q18.2 12.3 17.4 13.75 L15.8 15.8 Q13.1 18.5 9.25 18.5 5.4 18.5 2.7 15.8 L1.15 13.75 Q0.3 12.3 0.1 10.65 L0.0 9.25 Q0.0 5.4 2.7 2.7 5.4 0.0 9.25 0.0 13.1 0.0 15.8 2.7 18.5 5.4 18.5 9.25 M17.9 10.55 L18.0 9.25 Q18.0 5.6 15.45 3.05 12.9 0.5 9.25 0.5 5.6 0.5 3.05 3.05 0.5 5.6 0.5 9.25 L0.6 10.55 0.6 10.6 Q0.8 12.1 1.6 13.5 L3.05 15.45 Q5.6 18.0 9.25 18.0 12.9 18.0 15.45 15.45 L16.95 13.5 Q17.7 12.1 17.9 10.6 L17.9 10.55" fill="#000000" fill-rule="evenodd" stroke="none"/>
    <path d="M17.9 10.55 L17.9 10.6 Q17.7 12.1 16.95 13.5 L15.45 15.45 Q12.9 18.0 9.25 18.0 5.6 18.0 3.05 15.45 L1.6 13.5 Q0.8 12.1 0.6 10.6 L0.6 10.55 0.5 9.25 Q0.5 5.6 3.05 3.05 5.6 0.5 9.25 0.5 12.9 0.5 15.45 3.05 18.0 5.6 18.0 9.25 L17.9 10.55" fill="#ffffff" fill-rule="evenodd" stroke="none"/>
    <path d="M14.4 9.75 L14.6 9.45 14.95 9.3 15.3 9.5 15.4 9.85 14.75 11.95 13.65 13.3 Q11.85 15.15 9.25 15.15 6.7 15.15 4.85 13.3 L3.8 11.95 3.85 11.95 Q3.25 10.95 3.1 9.9 L3.2 9.5 Q3.3 9.35 3.55 9.3 L3.9 9.4 4.1 9.75 Q4.25 10.65 4.7 11.45 L4.7 11.5 5.55 12.6 Q7.1 14.15 9.25 14.15 11.45 14.15 12.95 12.6 L13.9 11.45 14.4 9.75" fill="#000000" fill-rule="evenodd" stroke="none"/>
    <path d="M14.25 6.4 Q14.25 7.25 13.7 7.75 13.15 8.35 12.35 8.35 11.55 8.35 10.95 7.75 10.4 7.25 10.4 6.4 10.4 5.6 10.95 5.05 11.55 4.5 12.35 4.5 13.15 4.5 13.7 5.05 14.25 5.6 14.25 6.4 M6.05 8.35 Q5.25 8.35 4.65 7.75 4.1 7.25 4.1 6.4 4.1 5.6 4.65 5.05 5.25 4.5 6.05 4.5 6.85 4.5 7.4 5.05 7.95 5.6 7.95 6.4 7.95 7.25 7.4 7.75 6.85 8.35 6.05 8.35" fill="#000000" fill-rule="evenodd" stroke="none"/>
  </g>
</svg>
