<?xml version="1.0" encoding="UTF-8" standalone="no"?>
<svg xmlns:ffdec="https://www.free-decompiler.com/flash" xmlns:xlink="http://www.w3.org/1999/xlink" ffdec:objectType="shape" height="53.2px" width="74.45px" xmlns="http://www.w3.org/2000/svg">
  <g transform="matrix(1.0, 0.0, 0.0, 1.0, 6.25, 5.6)">
    <path d="M45.95 30.6 L50.0 38.9 39.75 35.8 38.4 42.15 31.5 38.75 27.15 47.1 22.45 39.0 15.75 42.75 14.0 36.45 3.25 40.2 7.4 31.6 -0.65 30.55 3.65 25.1 -5.75 21.85 3.35 18.0 -1.45 12.75 6.6 11.35 2.85 3.3 12.75 6.15 14.05 -0.2 21.0 3.2 25.15 -5.1 30.0 2.95 36.7 -0.8 38.5 5.5 48.5 2.35 45.1 10.35 53.2 11.4 48.85 16.85 58.7 20.25 49.2 23.95 67.7 32.2 45.95 30.6" fill="#b3ff31" fill-rule="evenodd" stroke="none"/>
    <path d="M45.95 30.6 L50.0 38.9 39.75 35.8 38.4 42.15 31.5 38.75 27.15 47.1 22.45 39.0 15.75 42.75 14.0 36.45 3.25 40.2 7.4 31.6 -0.65 30.55 3.65 25.1 -5.75 21.85 3.35 18.0 -1.45 12.75 6.6 11.35 2.85 3.3 12.75 6.15 14.05 -0.2 21.0 3.2 25.15 -5.1 30.0 2.95 36.7 -0.8 38.5 5.5 48.5 2.35 45.1 10.35 53.2 11.4 48.85 16.85 58.7 20.25 49.2 23.95 67.7 32.2 45.95 30.6 Z" fill="none" stroke="#000000" stroke-linecap="round" stroke-linejoin="round" stroke-width="1.0"/>
  </g>
</svg>
