<?xml version="1.0" encoding="UTF-8" standalone="no"?>
<svg xmlns:ffdec="https://www.free-decompiler.com/flash" xmlns:xlink="http://www.w3.org/1999/xlink" ffdec:objectType="shape" height="84.0px" width="64.0px" xmlns="http://www.w3.org/2000/svg">
  <g transform="matrix(1.0, 0.0, 0.0, 1.0, 0.0, 0.0)">
    <path d="M53.35 7.8 Q52.85 8.3 52.85 9.05 52.85 9.8 53.35 10.3 53.85 10.8 54.6 10.8 55.35 10.8 55.85 10.3 56.35 9.8 56.35 9.05 56.35 8.3 55.85 7.8 55.35 7.3 54.6 7.3 53.85 7.3 53.35 7.8 M50.85 9.05 Q50.85 7.5 51.95 6.4 53.05 5.3 54.6 5.3 56.15 5.3 57.25 6.4 58.35 7.5 58.35 9.05 58.35 10.6 57.25 11.7 56.15 12.8 54.6 12.8 53.05 12.8 51.95 11.7 50.85 10.6 50.85 9.05 M40.85 22.8 Q40.35 22.3 39.6 22.3 38.85 22.3 38.35 22.8 37.85 23.3 37.85 24.05 37.85 24.8 38.35 25.3 38.85 25.8 39.6 25.8 40.35 25.8 40.85 25.3 41.35 24.8 41.35 24.05 41.35 23.3 40.85 22.8 M43.35 24.05 Q43.35 25.6 42.25 26.7 41.15 27.8 39.6 27.8 38.05 27.8 36.95 26.7 35.85 25.6 35.85 24.05 35.85 22.5 36.95 21.4 38.05 20.3 39.6 20.3 41.15 20.3 42.25 21.4 43.35 22.5 43.35 24.05 M55.85 39.3 Q55.35 38.8 54.6 38.8 53.85 38.8 53.35 39.3 52.85 39.8 52.85 40.55 52.85 41.3 53.35 41.8 53.85 42.3 54.6 42.3 55.35 42.3 55.85 41.8 56.35 41.3 56.35 40.55 56.35 39.8 55.85 39.3 M58.35 40.55 Q58.35 42.1 57.25 43.2 56.15 44.3 54.6 44.3 53.05 44.3 51.95 43.2 50.85 42.1 50.85 40.55 50.85 39.0 51.95 37.9 53.05 36.8 54.6 36.8 56.15 36.8 57.25 37.9 58.35 39.0 58.35 40.55 M63.0 11.0 Q63.0 1.0 53.0 1.0 L11.0 1.0 Q7.0 1.0 4.6 2.6 L61.4 59.4 Q63.0 57.0 63.0 53.0 L63.0 11.0 M24.6 10.8 Q25.35 10.8 25.85 10.3 26.35 9.8 26.35 9.05 26.35 8.3 25.85 7.8 25.35 7.3 24.6 7.3 23.85 7.3 23.35 7.8 22.85 8.3 22.85 9.05 22.85 9.8 23.35 10.3 23.85 10.8 24.6 10.8 M21.95 6.4 Q23.05 5.3 24.6 5.3 26.15 5.3 27.25 6.4 28.35 7.5 28.35 9.05 28.35 10.6 27.25 11.7 26.15 12.8 24.6 12.8 23.05 12.8 21.95 11.7 20.85 10.6 20.85 9.05 20.85 7.5 21.95 6.4 M0.0 0.0 L64.0 0.0 64.0 64.0 0.0 0.0" fill="#54290a" fill-rule="evenodd" stroke="none"/>
    <path d="M50.85 9.05 Q50.85 10.6 51.95 11.7 53.05 12.8 54.6 12.8 56.15 12.8 57.25 11.7 58.35 10.6 58.35 9.05 58.35 7.5 57.25 6.4 56.15 5.3 54.6 5.3 53.05 5.3 51.95 6.4 50.85 7.5 50.85 9.05 M42.0 8.3 Q42.0 7.15 41.05 6.15 40.15 5.15 39.0 5.0 36.0 4.65 36.0 10.05 36.0 12.3 38.75 12.3 40.3 12.3 41.3 10.25 L42.0 8.3 M46.5 15.5 Q47.45 15.5 47.75 14.85 L47.85 14.15 Q47.85 12.85 46.55 12.85 45.25 12.85 45.25 14.2 45.25 14.7 45.55 15.1 45.95 15.5 46.5 15.5 M43.35 24.05 Q43.35 22.5 42.25 21.4 41.15 20.3 39.6 20.3 38.05 20.3 36.95 21.4 35.85 22.5 35.85 24.05 35.85 25.6 36.95 26.7 38.05 27.8 39.6 27.8 41.15 27.8 42.25 26.7 43.35 25.6 43.35 24.05 M53.6 21.55 Q53.6 22.45 54.1 23.55 L54.6 25.15 Q54.6 25.8 55.15 26.35 55.8 27.0 57.0 27.0 58.4 27.0 58.95 24.55 L59.25 22.05 Q59.25 19.45 56.4 18.55 53.6 17.65 53.6 21.55 M44.65 33.95 Q45.35 35.3 46.9 35.3 49.1 35.3 50.1 33.3 L50.6 31.4 Q50.6 28.85 47.35 28.55 44.15 28.2 44.15 31.95 44.15 33.05 44.65 33.95 M45.85 41.3 Q45.85 42.4 47.25 42.4 48.3 42.4 48.6 41.85 L48.7 41.3 Q48.7 40.25 47.25 40.25 45.85 40.25 45.85 41.3 M58.35 40.55 Q58.35 39.0 57.25 37.9 56.15 36.8 54.6 36.8 53.05 36.8 51.95 37.9 50.85 39.0 50.85 40.55 50.85 42.1 51.95 43.2 53.05 44.3 54.6 44.3 56.15 44.3 57.25 43.2 58.35 42.1 58.35 40.55 M54.35 46.85 Q53.85 46.4 53.35 46.4 52.3 46.4 52.1 47.9 52.1 48.75 53.2 50.1 54.35 51.5 55.25 51.5 57.0 51.5 59.25 49.75 61.25 48.15 61.25 47.45 61.25 44.55 58.9 45.55 L55.1 47.3 54.35 46.85 M63.0 11.0 L63.0 53.0 Q63.0 57.0 61.4 59.4 L4.6 2.6 Q7.0 1.0 11.0 1.0 L53.0 1.0 Q63.0 1.0 63.0 11.0 M21.95 6.4 Q20.85 7.5 20.85 9.05 20.85 10.6 21.95 11.7 23.05 12.8 24.6 12.8 26.15 12.8 27.25 11.7 28.35 10.6 28.35 9.05 28.35 7.5 27.25 6.4 26.15 5.3 24.6 5.3 23.05 5.3 21.95 6.4 M20.5 14.0 Q20.5 11.75 19.1 11.45 17.75 11.1 17.75 13.05 L17.8 14.35 17.95 14.65 18.3 15.1 19.0 15.25 Q19.85 15.25 20.25 14.65 L20.5 14.0 M28.6 19.5 L28.65 18.65 Q28.65 17.05 27.25 17.05 25.9 17.05 25.9 18.7 25.9 20.3 27.25 20.3 28.3 20.3 28.6 19.5 M11.8 6.75 Q11.8 8.2 13.65 8.2 15.1 8.2 17.15 6.65 19.05 5.25 19.05 4.75 19.05 4.0 17.9 3.35 16.8 2.65 15.4 2.6 11.8 2.55 11.8 6.75 M37.4 32.1 L38.0 32.35 Q39.0 32.35 39.0 31.5 39.0 30.5 38.05 30.5 37.1 30.5 37.1 31.45 37.1 31.85 37.4 32.1" fill="#71370d" fill-rule="evenodd" stroke="none"/>
    <path d="M46.5 15.5 Q45.95 15.5 45.55 15.1 45.25 14.7 45.25 14.2 45.25 12.85 46.55 12.85 47.85 12.85 47.85 14.15 L47.75 14.85 Q47.45 15.5 46.5 15.5 M42.0 8.3 L41.3 10.25 Q40.3 12.3 38.75 12.3 36.0 12.3 36.0 10.05 36.0 4.65 39.0 5.0 40.15 5.15 41.05 6.15 42.0 7.15 42.0 8.3 M45.85 41.3 Q45.85 40.25 47.25 40.25 48.7 40.25 48.7 41.3 L48.6 41.85 Q48.3 42.4 47.25 42.4 45.85 42.4 45.85 41.3 M44.65 33.95 Q44.15 33.05 44.15 31.95 44.15 28.2 47.35 28.55 50.6 28.85 50.6 31.4 L50.1 33.3 Q49.1 35.3 46.9 35.3 45.35 35.3 44.65 33.95 M53.6 21.55 Q53.6 17.65 56.4 18.55 59.25 19.45 59.25 22.05 L58.95 24.55 Q58.4 27.0 57.0 27.0 55.8 27.0 55.15 26.35 54.6 25.8 54.6 25.15 L54.1 23.55 Q53.6 22.45 53.6 21.55 M54.35 46.85 L55.1 47.3 58.9 45.55 Q61.25 44.55 61.25 47.45 61.25 48.15 59.25 49.75 57.0 51.5 55.25 51.5 54.35 51.5 53.2 50.1 52.1 48.75 52.1 47.9 52.3 46.4 53.35 46.4 53.85 46.4 54.35 46.85 M11.8 6.75 Q11.8 2.55 15.4 2.6 16.8 2.65 17.9 3.35 19.05 4.0 19.05 4.75 19.05 5.25 17.15 6.65 15.1 8.2 13.65 8.2 11.8 8.2 11.8 6.75 M28.6 19.5 Q28.3 20.3 27.25 20.3 25.9 20.3 25.9 18.7 25.9 17.05 27.25 17.05 28.65 17.05 28.65 18.65 L28.6 19.5 M20.5 14.0 L20.25 14.65 Q19.85 15.25 19.0 15.25 L18.3 15.1 17.95 14.65 17.8 14.35 17.75 13.05 Q17.75 11.1 19.1 11.45 20.5 11.75 20.5 14.0 M37.4 32.1 Q37.1 31.85 37.1 31.45 37.1 30.5 38.05 30.5 39.0 30.5 39.0 31.5 39.0 32.35 38.0 32.35 L37.4 32.1" fill="#7e3d0f" fill-rule="evenodd" stroke="none"/>
    <path d="M53.35 7.8 Q53.85 7.3 54.6 7.3 55.35 7.3 55.85 7.8 56.35 8.3 56.35 9.05 56.35 9.8 55.85 10.3 55.35 10.8 54.6 10.8 53.85 10.8 53.35 10.3 52.85 9.8 52.85 9.05 52.85 8.3 53.35 7.8 M40.85 22.8 Q41.35 23.3 41.35 24.05 41.35 24.8 40.85 25.3 40.35 25.8 39.6 25.8 38.85 25.8 38.35 25.3 37.85 24.8 37.85 24.05 37.85 23.3 38.35 22.8 38.85 22.3 39.6 22.3 40.35 22.3 40.85 22.8 M55.85 39.3 Q56.35 39.8 56.35 40.55 56.35 41.3 55.85 41.8 55.35 42.3 54.6 42.3 53.85 42.3 53.35 41.8 52.85 41.3 52.85 40.55 52.85 39.8 53.35 39.3 53.85 38.8 54.6 38.8 55.35 38.8 55.85 39.3 M24.6 10.8 Q23.85 10.8 23.35 10.3 22.85 9.8 22.85 9.05 22.85 8.3 23.35 7.8 23.85 7.3 24.6 7.3 25.35 7.3 25.85 7.8 26.35 8.3 26.35 9.05 26.35 9.8 25.85 10.3 25.35 10.8 24.6 10.8 M2.05 7.05 L2.05 4.55 62.35 64.85 62.35 67.35 2.05 7.05 M62.35 77.35 L62.35 79.85 2.05 19.55 2.05 17.05 62.35 77.35" fill="#432107" fill-rule="evenodd" stroke="none"/>
    <path d="M62.35 67.35 L62.35 64.85 2.05 4.55 2.05 7.05 0.0 5.0 0.0 1.55 64.0 65.55 64.0 69.0 62.35 67.35 M64.0 82.45 L0.0 18.45 0.0 15.0 2.05 17.05 2.05 19.55 62.35 79.85 62.35 77.35 64.0 79.0 64.0 82.45" fill="#381b05" fill-rule="evenodd" stroke="none"/>
    <path d="M2.05 7.05 L62.35 67.35 64.0 69.0 64.0 79.0 62.35 77.35 2.05 17.05 0.0 15.0 0.0 5.0 2.05 7.05 M1.2 7.4 L1.15 15.15 62.95 76.95 63.05 76.5 63.05 69.25 1.2 7.4" fill="#9c9992" fill-rule="evenodd" stroke="none"/>
    <path d="M64.0 65.55 L0.0 1.55 0.0 0.0 64.0 64.0 64.0 65.55 M64.0 82.45 L64.0 84.0 0.0 20.0 0.0 18.45 64.0 82.45" fill="#321805" fill-rule="evenodd" stroke="none"/>
    <path d="M13.75 21.75 Q12.4 21.55 11.8 22.05 11.35 22.4 11.35 22.9 L12.15 24.15 Q13.1 25.3 14.1 25.3 L15.25 25.05 15.5 24.3 14.9 23.0 13.75 21.75 M5.25 17.65 Q6.25 17.65 6.25 16.55 6.25 15.65 5.0 15.4 3.75 15.1 3.75 16.25 4.2 17.65 5.25 17.65 M1.2 7.4 L63.05 69.25 63.05 76.5 62.95 76.95 1.15 15.15 1.2 7.4 M19.5 32.15 L20.1 31.9 20.35 31.25 Q20.35 30.3 19.45 30.3 18.5 30.35 18.5 31.3 18.5 32.15 19.5 32.15 M57.9 65.8 Q57.9 64.9 56.6 64.6 55.25 64.35 55.25 65.65 L55.3 66.1 Q55.5 66.8 56.35 66.8 57.9 66.8 57.9 65.8 M45.15 58.35 L45.45 58.6 46.0 58.65 46.75 58.15 47.0 57.5 Q47.0 56.85 46.05 56.7 45.05 56.6 45.05 57.7 L45.15 58.35 M61.25 72.85 L61.5 72.0 Q61.5 71.1 60.5 71.05 59.5 71.0 59.5 72.0 L59.55 72.55 Q59.75 73.25 60.5 73.25 60.95 73.25 61.25 72.85 M40.35 52.0 L40.35 52.75 Q40.55 53.6 41.6 53.6 L42.5 53.4 Q43.15 53.15 43.15 52.55 43.15 50.8 41.75 50.55 40.35 50.25 40.35 52.0 M34.0 41.9 Q34.0 40.45 32.65 40.4 31.25 40.35 31.25 42.15 L31.3 42.75 Q31.45 43.3 32.25 43.3 33.35 43.3 33.75 42.85 L34.0 41.9 M26.0 39.05 L26.75 39.75 Q27.3 39.5 27.35 39.05 27.25 38.6 26.75 38.35 26.0 38.3 26.0 39.05" fill="#b6b2ac" fill-rule="evenodd" stroke="none"/>
    <path d="M5.25 17.65 Q4.2 17.65 3.75 16.25 3.75 15.1 5.0 15.4 6.25 15.65 6.25 16.55 6.25 17.65 5.25 17.65 M13.75 21.75 L14.9 23.0 15.5 24.3 15.25 25.05 14.1 25.3 Q13.1 25.3 12.15 24.15 L11.35 22.9 Q11.35 22.4 11.8 22.05 12.4 21.55 13.75 21.75 M19.5 32.15 Q18.5 32.15 18.5 31.3 18.5 30.35 19.45 30.3 20.35 30.3 20.35 31.25 L20.1 31.9 19.5 32.15 M26.0 39.05 Q26.0 38.3 26.75 38.35 27.25 38.6 27.35 39.05 27.3 39.5 26.75 39.75 L26.0 39.05 M34.0 41.9 L33.75 42.85 Q33.35 43.3 32.25 43.3 31.45 43.3 31.3 42.75 L31.25 42.15 Q31.25 40.35 32.65 40.4 34.0 40.45 34.0 41.9 M40.35 52.0 Q40.35 50.25 41.75 50.55 43.15 50.8 43.15 52.55 43.15 53.15 42.5 53.4 L41.6 53.6 Q40.55 53.6 40.35 52.75 L40.35 52.0 M61.25 72.85 Q60.95 73.25 60.5 73.25 59.75 73.25 59.55 72.55 L59.5 72.0 Q59.5 71.0 60.5 71.05 61.5 71.1 61.5 72.0 L61.25 72.85 M45.15 58.35 L45.05 57.7 Q45.05 56.6 46.05 56.7 47.0 56.85 47.0 57.5 L46.75 58.15 46.0 58.65 45.45 58.6 45.15 58.35 M57.9 65.8 Q57.9 66.8 56.35 66.8 55.5 66.8 55.3 66.1 L55.25 65.65 Q55.25 64.35 56.6 64.6 57.9 64.9 57.9 65.8" fill="#cdc9c2" fill-rule="evenodd" stroke="none"/>
  </g>
</svg>
