<?xml version="1.0" encoding="UTF-8" standalone="no"?>
<svg xmlns:ffdec="https://www.free-decompiler.com/flash" xmlns:xlink="http://www.w3.org/1999/xlink" ffdec:objectType="shape" height="84.0px" width="64.0px" xmlns="http://www.w3.org/2000/svg">
  <g transform="matrix(1.0, 0.0, 0.0, 1.0, 0.0, 0.0)">
    <path d="M53.0 1.0 Q57.0 1.0 59.4 2.6 L2.6 59.4 Q1.0 57.0 1.0 53.0 L1.0 11.0 Q1.0 1.0 11.0 1.0 L53.0 1.0 M43.35 9.05 Q43.35 7.5 42.25 6.4 41.15 5.3 39.6 5.3 38.05 5.3 36.95 6.4 35.85 7.5 35.85 9.05 35.85 10.6 36.95 11.7 38.05 12.8 39.6 12.8 41.15 12.8 42.25 11.7 43.35 10.6 43.35 9.05 M46.85 6.65 Q48.9 8.2 50.35 8.2 52.2 8.2 52.2 6.75 52.2 2.55 48.6 2.6 47.2 2.65 46.1 3.35 44.95 4.0 44.95 4.75 44.95 5.25 46.85 6.65 M45.0 15.25 Q45.95 15.25 46.2 14.35 L46.25 13.05 Q46.25 11.1 44.9 11.45 43.5 11.75 43.5 14.0 L43.75 14.65 Q44.15 15.25 45.0 15.25 M25.25 12.3 Q28.0 12.3 28.0 10.05 28.0 4.65 25.0 5.0 23.85 5.15 22.95 6.15 22.0 7.15 22.0 8.3 L22.7 10.25 Q23.7 12.3 25.25 12.3 M24.6 20.3 Q23.05 20.3 21.95 21.4 20.85 22.5 20.85 24.05 20.85 25.6 21.95 26.7 23.05 27.8 24.6 27.8 26.15 27.8 27.25 26.7 28.35 25.6 28.35 24.05 28.35 22.5 27.25 21.4 26.15 20.3 24.6 20.3 M35.4 19.5 Q35.7 20.3 36.75 20.3 38.1 20.3 38.1 18.7 38.1 17.05 36.75 17.05 35.35 17.05 35.35 18.65 L35.4 19.5 M12.25 6.4 Q11.15 5.3 9.6 5.3 8.05 5.3 6.95 6.4 5.85 7.5 5.85 9.05 5.85 10.6 6.95 11.7 8.05 12.8 9.6 12.8 11.15 12.8 12.25 11.7 13.35 10.6 13.35 9.05 13.35 7.5 12.25 6.4 M13.4 31.4 L13.9 33.3 Q14.9 35.3 17.1 35.3 18.65 35.3 19.35 33.95 19.85 33.05 19.85 31.95 19.85 28.2 16.65 28.55 13.4 28.85 13.4 31.4 M18.75 14.2 Q18.75 12.85 17.45 12.85 16.15 12.85 16.15 14.15 L16.25 14.85 Q16.55 15.5 17.5 15.5 18.05 15.5 18.45 15.1 L18.75 14.2 M4.75 22.05 L5.05 24.55 Q5.6 27.0 7.0 27.0 8.2 27.0 8.85 26.35 9.4 25.8 9.4 25.15 9.4 24.65 9.9 23.55 10.4 22.45 10.4 21.55 10.4 17.65 7.6 18.55 4.75 19.45 4.75 22.05 M5.85 40.55 Q5.85 42.1 6.95 43.2 8.05 44.3 9.6 44.3 11.15 44.3 12.25 43.2 13.35 42.1 13.35 40.55 13.35 39.0 12.25 37.9 11.15 36.8 9.6 36.8 8.05 36.8 6.95 37.9 5.85 39.0 5.85 40.55 M26.6 32.1 L26.9 31.45 Q26.9 30.5 25.95 30.5 25.0 30.5 25.0 31.5 25.0 32.35 26.0 32.35 L26.6 32.1 M15.4 41.85 Q15.7 42.4 16.75 42.4 18.15 42.4 18.15 41.3 18.15 40.25 16.75 40.25 15.3 40.25 15.3 41.3 L15.4 41.85 M9.65 46.85 L8.9 47.3 5.1 45.55 Q2.75 44.55 2.75 47.45 2.75 48.15 4.75 49.75 7.0 51.5 8.75 51.5 9.65 51.5 10.8 50.1 11.9 48.75 11.9 47.9 11.7 46.4 10.65 46.4 10.15 46.4 9.65 46.85" fill="#71370d" fill-rule="evenodd" stroke="none"/>
    <path d="M0.0 64.0 L0.0 0.0 64.0 0.0 0.0 64.0 M53.0 1.0 L11.0 1.0 Q1.0 1.0 1.0 11.0 L1.0 53.0 Q1.0 57.0 2.6 59.4 L59.4 2.6 Q57.0 1.0 53.0 1.0 M43.35 9.05 Q43.35 10.6 42.25 11.7 41.15 12.8 39.6 12.8 38.05 12.8 36.95 11.7 35.85 10.6 35.85 9.05 35.85 7.5 36.95 6.4 38.05 5.3 39.6 5.3 41.15 5.3 42.25 6.4 43.35 7.5 43.35 9.05 M40.85 10.3 Q41.35 9.8 41.35 9.05 41.35 8.3 40.85 7.8 40.35 7.3 39.6 7.3 38.85 7.3 38.35 7.8 37.85 8.3 37.85 9.05 37.85 9.8 38.35 10.3 38.85 10.8 39.6 10.8 40.35 10.8 40.85 10.3 M25.85 22.8 Q25.35 22.3 24.6 22.3 23.85 22.3 23.35 22.8 22.85 23.3 22.85 24.05 22.85 24.8 23.35 25.3 23.85 25.8 24.6 25.8 25.35 25.8 25.85 25.3 26.35 24.8 26.35 24.05 26.35 23.3 25.85 22.8 M24.6 20.3 Q26.15 20.3 27.25 21.4 28.35 22.5 28.35 24.05 28.35 25.6 27.25 26.7 26.15 27.8 24.6 27.8 23.05 27.8 21.95 26.7 20.85 25.6 20.85 24.05 20.85 22.5 21.95 21.4 23.05 20.3 24.6 20.3 M12.25 6.4 Q13.35 7.5 13.35 9.05 13.35 10.6 12.25 11.7 11.15 12.8 9.6 12.8 8.05 12.8 6.95 11.7 5.85 10.6 5.85 9.05 5.85 7.5 6.95 6.4 8.05 5.3 9.6 5.3 11.15 5.3 12.25 6.4 M10.85 10.3 Q11.35 9.8 11.35 9.05 11.35 8.3 10.85 7.8 10.35 7.3 9.6 7.3 8.85 7.3 8.35 7.8 7.85 8.3 7.85 9.05 7.85 9.8 8.35 10.3 8.85 10.8 9.6 10.8 10.35 10.8 10.85 10.3 M8.35 39.3 Q7.85 39.8 7.85 40.55 7.85 41.3 8.35 41.8 8.85 42.3 9.6 42.3 10.35 42.3 10.85 41.8 11.35 41.3 11.35 40.55 11.35 39.8 10.85 39.3 10.35 38.8 9.6 38.8 8.85 38.8 8.35 39.3 M5.85 40.55 Q5.85 39.0 6.95 37.9 8.05 36.8 9.6 36.8 11.15 36.8 12.25 37.9 13.35 39.0 13.35 40.55 13.35 42.1 12.25 43.2 11.15 44.3 9.6 44.3 8.05 44.3 6.95 43.2 5.85 42.1 5.85 40.55" fill="#54290a" fill-rule="evenodd" stroke="none"/>
    <path d="M45.1 30.9 L44.85 30.25 Q44.85 29.3 45.75 29.3 46.7 29.35 46.7 30.3 46.7 31.15 45.7 31.15 L45.1 30.9 M59.95 16.65 Q58.95 16.65 58.95 15.55 58.95 14.65 60.2 14.4 61.45 14.1 61.45 15.25 61.0 16.65 59.95 16.65 M49.95 24.05 Q49.7 23.85 49.7 23.3 49.7 22.9 50.3 22.0 50.9 21.1 51.45 20.75 52.8 20.55 53.4 21.05 53.85 21.4 53.85 21.9 L53.05 23.15 Q52.1 24.3 51.1 24.3 L49.95 24.05 M4.7 72.25 Q4.25 72.25 3.95 71.85 3.7 71.5 3.7 71.0 3.7 70.1 4.7 70.05 5.7 70.0 5.7 71.0 L5.65 71.55 Q5.45 72.25 4.7 72.25 M8.85 65.8 Q7.3 65.8 7.3 64.8 7.3 63.9 8.6 63.6 9.95 63.35 9.95 64.65 L9.9 65.1 Q9.7 65.8 8.85 65.8 M20.15 56.7 L20.05 57.35 19.75 57.6 19.2 57.65 18.45 57.15 18.2 56.5 Q18.2 55.85 19.15 55.7 20.15 55.6 20.15 56.7 M24.85 51.0 L24.85 51.75 Q24.65 52.6 23.6 52.6 L22.7 52.4 Q22.05 52.15 22.05 51.55 22.05 49.8 23.45 49.55 24.85 49.25 24.85 51.0 M31.2 40.9 Q31.2 39.45 32.55 39.4 33.95 39.35 33.95 41.15 L33.9 41.75 Q33.75 42.3 32.95 42.3 31.85 42.3 31.45 41.85 31.2 41.55 31.2 40.9 M38.45 38.75 Q37.9 38.5 37.85 38.05 L38.45 37.35 Q39.2 37.3 39.2 38.05 L38.45 38.75" fill="#cdc9c2" fill-rule="evenodd" stroke="none"/>
    <path d="M64.0 0.0 L64.0 1.55 0.0 65.55 0.0 64.0 64.0 0.0 M64.0 18.45 L64.0 20.0 0.0 84.0 0.0 82.45 64.0 18.45" fill="#321805" fill-rule="evenodd" stroke="none"/>
    <path d="M64.0 1.55 L64.0 5.0 61.95 7.05 61.95 4.55 1.65 64.85 1.65 67.35 0.0 69.0 0.0 65.55 64.0 1.55 M64.0 15.0 L64.0 18.45 0.0 82.45 0.0 79.0 1.65 77.35 1.65 79.85 61.95 19.55 61.95 17.05 64.0 15.0" fill="#381b05" fill-rule="evenodd" stroke="none"/>
    <path d="M64.0 5.0 L64.0 15.0 61.95 17.05 1.65 77.35 0.0 79.0 0.0 69.0 1.65 67.35 61.95 7.05 64.0 5.0 M62.8 7.4 L0.95 69.25 0.95 76.5 1.05 76.95 62.85 15.15 62.8 7.4" fill="#9c9992" fill-rule="evenodd" stroke="none"/>
    <path d="M1.65 67.35 L1.65 64.85 61.95 4.55 61.95 7.05 1.65 67.35 M61.95 17.05 L61.95 19.55 1.65 79.85 1.65 77.35 61.95 17.05 M40.85 10.3 Q40.35 10.8 39.6 10.8 38.85 10.8 38.35 10.3 37.85 9.8 37.85 9.05 37.85 8.3 38.35 7.8 38.85 7.3 39.6 7.3 40.35 7.3 40.85 7.8 41.35 8.3 41.35 9.05 41.35 9.8 40.85 10.3 M25.85 22.8 Q26.35 23.3 26.35 24.05 26.35 24.8 25.85 25.3 25.35 25.8 24.6 25.8 23.85 25.8 23.35 25.3 22.85 24.8 22.85 24.05 22.85 23.3 23.35 22.8 23.85 22.3 24.6 22.3 25.35 22.3 25.85 22.8 M10.85 10.3 Q10.35 10.8 9.6 10.8 8.85 10.8 8.35 10.3 7.85 9.8 7.85 9.05 7.85 8.3 8.35 7.8 8.85 7.3 9.6 7.3 10.35 7.3 10.85 7.8 11.35 8.3 11.35 9.05 11.35 9.8 10.85 10.3 M8.35 39.3 Q8.85 38.8 9.6 38.8 10.35 38.8 10.85 39.3 11.35 39.8 11.35 40.55 11.35 41.3 10.85 41.8 10.35 42.3 9.6 42.3 8.85 42.3 8.35 41.8 7.85 41.3 7.85 40.55 7.85 39.8 8.35 39.3" fill="#432107" fill-rule="evenodd" stroke="none"/>
    <path d="M62.8 7.4 L62.85 15.15 1.05 76.95 0.95 76.5 0.95 69.25 62.8 7.4 M49.95 24.05 L51.1 24.3 Q52.1 24.3 53.05 23.15 L53.85 21.9 Q53.85 21.4 53.4 21.05 52.8 20.55 51.45 20.75 50.9 21.1 50.3 22.0 49.7 22.9 49.7 23.3 49.7 23.85 49.95 24.05 M59.95 16.65 Q61.0 16.65 61.45 15.25 61.45 14.1 60.2 14.4 58.95 14.65 58.95 15.55 58.95 16.65 59.95 16.65 M45.1 30.9 L45.7 31.15 Q46.7 31.15 46.7 30.3 46.7 29.35 45.75 29.3 44.85 29.3 44.85 30.25 L45.1 30.9 M38.45 38.75 L39.2 38.05 Q39.2 37.3 38.45 37.35 L37.85 38.05 Q37.9 38.5 38.45 38.75 M31.2 40.9 Q31.2 41.55 31.45 41.85 31.85 42.3 32.95 42.3 33.75 42.3 33.9 41.75 L33.95 41.15 Q33.95 39.35 32.55 39.4 31.2 39.45 31.2 40.9 M24.85 51.0 Q24.85 49.25 23.45 49.55 22.05 49.8 22.05 51.55 22.05 52.15 22.7 52.4 L23.6 52.6 Q24.65 52.6 24.85 51.75 L24.85 51.0 M20.15 56.7 Q20.15 55.6 19.15 55.7 18.2 55.85 18.2 56.5 L18.45 57.15 19.2 57.65 19.75 57.6 20.05 57.35 20.15 56.7 M8.85 65.8 Q9.7 65.8 9.9 65.1 L9.95 64.65 Q9.95 63.35 8.6 63.6 7.3 63.9 7.3 64.8 7.3 65.8 8.85 65.8 M4.7 72.25 Q5.45 72.25 5.65 71.55 L5.7 71.0 Q5.7 70.0 4.7 70.05 3.7 70.1 3.7 71.0 3.7 71.5 3.95 71.85 4.25 72.25 4.7 72.25" fill="#b6b2ac" fill-rule="evenodd" stroke="none"/>
    <path d="M46.85 6.65 Q44.95 5.25 44.95 4.75 44.95 4.0 46.1 3.35 47.2 2.65 48.6 2.6 52.2 2.55 52.2 6.75 52.2 8.2 50.35 8.2 48.9 8.2 46.85 6.65 M45.0 15.25 Q44.15 15.25 43.75 14.65 L43.5 14.0 Q43.5 11.75 44.9 11.45 46.25 11.1 46.25 13.05 L46.2 14.35 Q45.95 15.25 45.0 15.25 M25.25 12.3 Q23.7 12.3 22.7 10.25 L22.0 8.3 Q22.0 7.15 22.95 6.15 23.85 5.15 25.0 5.0 28.0 4.65 28.0 10.05 28.0 12.3 25.25 12.3 M35.4 19.5 L35.35 18.65 Q35.35 17.05 36.75 17.05 38.1 17.05 38.1 18.7 38.1 20.3 36.75 20.3 35.7 20.3 35.4 19.5 M4.75 22.05 Q4.75 19.45 7.6 18.55 10.4 17.65 10.4 21.55 10.4 22.45 9.9 23.55 9.4 24.65 9.4 25.15 9.4 25.8 8.85 26.35 8.2 27.0 7.0 27.0 5.6 27.0 5.05 24.55 L4.75 22.05 M18.75 14.2 L18.45 15.1 Q18.05 15.5 17.5 15.5 16.55 15.5 16.25 14.85 L16.15 14.15 Q16.15 12.85 17.45 12.85 18.75 12.85 18.75 14.2 M13.4 31.4 Q13.4 28.85 16.65 28.55 19.85 28.2 19.85 31.95 19.85 33.05 19.35 33.95 18.65 35.3 17.1 35.3 14.9 35.3 13.9 33.3 L13.4 31.4 M9.65 46.85 Q10.15 46.4 10.65 46.4 11.7 46.4 11.9 47.9 11.9 48.75 10.8 50.1 9.65 51.5 8.75 51.5 7.0 51.5 4.75 49.75 2.75 48.15 2.75 47.45 2.75 44.55 5.1 45.55 L8.9 47.3 9.65 46.85 M15.4 41.85 L15.3 41.3 Q15.3 40.25 16.75 40.25 18.15 40.25 18.15 41.3 18.15 42.4 16.75 42.4 15.7 42.4 15.4 41.85 M26.6 32.1 L26.0 32.35 Q25.0 32.35 25.0 31.5 25.0 30.5 25.95 30.5 26.9 30.5 26.9 31.45 L26.6 32.1" fill="#7e3d0f" fill-rule="evenodd" stroke="none"/>
  </g>
</svg>
