<?xml version="1.0" encoding="UTF-8" standalone="no"?>
<svg xmlns:ffdec="https://www.free-decompiler.com/flash" xmlns:xlink="http://www.w3.org/1999/xlink" ffdec:objectType="shape" height="84.0px" width="64.0px" xmlns="http://www.w3.org/2000/svg">
  <g transform="matrix(1.0, 0.0, 0.0, 1.0, 0.0, 0.0)">
    <path d="M32.6 72.55 L32.65 73.15 Q32.9 73.65 33.75 73.65 34.55 73.65 35.0 73.25 35.5 72.85 35.5 72.3 35.5 71.05 34.05 71.0 32.6 71.0 32.6 72.55 M5.25 76.55 Q5.65 76.55 6.5 76.05 7.55 75.45 7.55 74.8 7.55 73.45 5.8 73.6 4.0 73.75 4.0 75.15 L4.1 75.85 Q4.35 76.55 5.25 76.55 M16.75 73.05 L16.85 73.6 Q17.1 74.3 18.0 74.3 18.65 74.3 19.0 73.8 L19.25 73.05 Q19.25 71.8 18.0 71.8 16.75 71.8 16.75 73.05 M1.05 78.0 L0.95 77.45 0.95 70.2 62.8 70.2 62.85 78.0 1.05 78.0 M27.25 74.95 Q26.0 75.1 26.0 76.3 L26.1 76.85 Q26.4 77.55 27.25 77.55 27.9 77.55 28.25 77.05 L28.5 76.3 Q28.5 74.75 27.25 74.95 M36.85 76.65 Q37.15 77.25 38.0 77.25 38.55 77.25 38.85 76.85 L39.15 75.95 Q39.15 74.65 37.95 74.65 36.75 74.65 36.75 76.0 L36.85 76.65 M57.65 75.8 Q57.65 74.3 56.15 74.4 54.6 74.5 54.6 75.8 L54.75 76.55 Q55.15 77.25 56.25 77.25 57.05 77.25 57.4 76.6 L57.65 75.8 M48.85 71.25 Q46.75 71.6 46.75 73.05 L46.85 73.7 Q47.2 74.3 48.35 74.3 49.35 74.3 50.1 73.9 50.9 73.45 50.9 72.75 50.9 70.9 48.85 71.25" fill="#cdc9c2" fill-rule="evenodd" stroke="none"/>
    <path d="M32.6 72.55 Q32.6 71.0 34.05 71.0 35.5 71.05 35.5 72.3 35.5 72.85 35.0 73.25 34.55 73.65 33.75 73.65 32.9 73.65 32.65 73.15 L32.6 72.55 M16.75 73.05 Q16.75 71.8 18.0 71.8 19.25 71.8 19.25 73.05 L19.0 73.8 Q18.65 74.3 18.0 74.3 17.1 74.3 16.85 73.6 L16.75 73.05 M5.25 76.55 Q4.35 76.55 4.1 75.85 L4.0 75.15 Q4.0 73.75 5.8 73.6 7.55 73.45 7.55 74.8 7.55 75.45 6.5 76.05 5.65 76.55 5.25 76.55 M36.85 76.65 L36.75 76.0 Q36.75 74.65 37.95 74.65 39.15 74.65 39.15 75.95 L38.85 76.85 Q38.55 77.25 38.0 77.25 37.15 77.25 36.85 76.65 M27.25 74.95 Q28.5 74.75 28.5 76.3 L28.25 77.05 Q27.9 77.55 27.25 77.55 26.4 77.55 26.1 76.85 L26.0 76.3 Q26.0 75.1 27.25 74.95 M48.85 71.25 Q50.9 70.9 50.9 72.75 50.9 73.45 50.1 73.9 49.35 74.3 48.35 74.3 47.2 74.3 46.85 73.7 L46.75 73.05 Q46.75 71.6 48.85 71.25 M57.65 75.8 L57.4 76.6 Q57.05 77.25 56.25 77.25 55.15 77.25 54.75 76.55 L54.6 75.8 Q54.6 74.5 56.15 74.4 57.65 74.3 57.65 75.8" fill="#ded9d2" fill-rule="evenodd" stroke="none"/>
    <path d="M0.0 69.0 L1.65 69.0 61.95 69.0 64.0 69.0 64.0 79.0 61.95 79.0 1.65 79.0 0.0 79.0 0.0 69.0 M1.05 78.0 L62.85 78.0 62.8 70.2 0.95 70.2 0.95 77.45 1.05 78.0" fill="#b6b2ac" fill-rule="evenodd" stroke="none"/>
    <path d="M8.15 24.7 Q7.65 24.2 7.65 23.45 7.65 22.7 8.15 22.2 8.65 21.7 9.4 21.7 10.15 21.7 10.65 22.2 11.15 22.7 11.15 23.45 11.15 24.2 10.65 24.7 10.15 25.2 9.4 25.2 8.65 25.2 8.15 24.7 M25.65 38.7 Q26.15 39.2 26.15 39.95 26.15 40.7 25.65 41.2 25.15 41.7 24.4 41.7 23.65 41.7 23.15 41.2 22.65 40.7 22.65 39.95 22.65 39.2 23.15 38.7 23.65 38.2 24.4 38.2 25.15 38.2 25.65 38.7 M39.4 56.7 Q38.65 56.7 38.15 56.2 37.65 55.7 37.65 54.95 37.65 54.2 38.15 53.7 38.65 53.2 39.4 53.2 40.15 53.2 40.65 53.7 41.15 54.2 41.15 54.95 41.15 55.7 40.65 56.2 40.15 56.7 39.4 56.7 M11.15 54.95 Q11.15 55.7 10.65 56.2 10.15 56.7 9.4 56.7 8.65 56.7 8.15 56.2 7.65 55.7 7.65 54.95 7.65 54.2 8.15 53.7 8.65 53.2 9.4 53.2 10.15 53.2 10.65 53.7 11.15 54.2 11.15 54.95 M0.0 69.0 L0.0 65.55 64.0 65.55 64.0 69.0 61.95 69.0 61.95 66.5 1.65 66.5 1.65 69.0 0.0 69.0 M0.0 79.0 L1.65 79.0 1.65 81.5 61.95 81.5 61.95 79.0 64.0 79.0 64.0 82.45 0.0 82.45 0.0 79.0" fill="#432107" fill-rule="evenodd" stroke="none"/>
    <path d="M2.6 4.6 Q1.0 7.0 1.0 11.0 L1.0 53.0 Q1.0 63.0 11.0 63.0 L53.0 63.0 Q57.0 63.0 59.4 61.4 L2.6 4.6 M8.15 24.7 Q8.65 25.2 9.4 25.2 10.15 25.2 10.65 24.7 11.15 24.2 11.15 23.45 11.15 22.7 10.65 22.2 10.15 21.7 9.4 21.7 8.65 21.7 8.15 22.2 7.65 22.7 7.65 23.45 7.65 24.2 8.15 24.7 M9.4 19.7 Q10.95 19.7 12.05 20.8 13.15 21.9 13.15 23.45 13.15 25.0 12.05 26.1 10.95 27.2 9.4 27.2 7.85 27.2 6.75 26.1 5.65 25.0 5.65 23.45 5.65 21.9 6.75 20.8 7.85 19.7 9.4 19.7 M25.65 38.7 Q25.15 38.2 24.4 38.2 23.65 38.2 23.15 38.7 22.65 39.2 22.65 39.95 22.65 40.7 23.15 41.2 23.65 41.7 24.4 41.7 25.15 41.7 25.65 41.2 26.15 40.7 26.15 39.95 26.15 39.2 25.65 38.7 M28.15 39.95 Q28.15 41.5 27.05 42.6 25.95 43.7 24.4 43.7 22.85 43.7 21.75 42.6 20.65 41.5 20.65 39.95 20.65 38.4 21.75 37.3 22.85 36.2 24.4 36.2 25.95 36.2 27.05 37.3 28.15 38.4 28.15 39.95 M39.4 56.7 Q40.15 56.7 40.65 56.2 41.15 55.7 41.15 54.95 41.15 54.2 40.65 53.7 40.15 53.2 39.4 53.2 38.65 53.2 38.15 53.7 37.65 54.2 37.65 54.95 37.65 55.7 38.15 56.2 38.65 56.7 39.4 56.7 M39.4 51.2 Q40.95 51.2 42.05 52.3 43.15 53.4 43.15 54.95 43.15 56.5 42.05 57.6 40.95 58.7 39.4 58.7 37.85 58.7 36.75 57.6 35.65 56.5 35.65 54.95 35.65 53.4 36.75 52.3 37.85 51.2 39.4 51.2 M11.15 54.95 Q11.15 54.2 10.65 53.7 10.15 53.2 9.4 53.2 8.65 53.2 8.15 53.7 7.65 54.2 7.65 54.95 7.65 55.7 8.15 56.2 8.65 56.7 9.4 56.7 10.15 56.7 10.65 56.2 11.15 55.7 11.15 54.95 M13.15 54.95 Q13.15 56.5 12.05 57.6 10.95 58.7 9.4 58.7 7.85 58.7 6.75 57.6 5.65 56.5 5.65 54.95 5.65 53.4 6.75 52.3 7.85 51.2 9.4 51.2 10.95 51.2 12.05 52.3 13.15 53.4 13.15 54.95 M1.65 69.0 L1.65 66.5 61.95 66.5 61.95 69.0 1.65 69.0 M0.0 64.0 L0.0 0.0 64.0 64.0 0.0 64.0 M1.65 79.0 L61.95 79.0 61.95 81.5 1.65 81.5 1.65 79.0" fill="#54290a" fill-rule="evenodd" stroke="none"/>
    <path d="M64.0 65.55 L0.0 65.55 0.0 64.0 64.0 64.0 64.0 65.55 M64.0 82.45 L64.0 84.0 0.0 84.0 0.0 82.45 64.0 82.45" fill="#321805" fill-rule="evenodd" stroke="none"/>
    <path d="M45.0 48.75 L45.7 48.9 46.05 49.35 46.2 49.65 46.25 50.95 Q46.25 52.9 44.9 52.55 43.5 52.25 43.5 50.0 L43.75 49.35 Q44.15 48.75 45.0 48.75 M9.65 17.15 L8.9 16.7 5.1 18.45 Q2.75 19.45 2.75 16.55 2.75 15.85 4.75 14.25 7.0 12.5 8.75 12.5 9.65 12.5 10.8 13.9 11.9 15.25 11.9 16.1 11.7 17.6 10.65 17.6 10.15 17.6 9.65 17.15 M25.0 32.5 Q25.0 31.65 26.0 31.65 26.35 31.65 26.6 31.9 L26.9 32.55 Q26.9 33.5 25.95 33.5 25.0 33.5 25.0 32.5 M17.5 48.5 Q18.05 48.5 18.45 48.9 L18.75 49.8 Q18.75 51.15 17.45 51.15 16.15 51.15 16.15 49.85 L16.25 49.15 Q16.55 48.5 17.5 48.5 M7.6 45.45 Q4.75 44.55 4.75 41.95 L5.05 39.45 Q5.6 37.0 7.0 37.0 8.2 37.0 8.85 37.65 9.4 38.2 9.4 38.85 9.4 39.35 9.9 40.45 10.4 41.55 10.4 42.45 10.4 46.35 7.6 45.45 M19.35 30.05 Q19.85 30.95 19.85 32.05 19.85 35.8 16.65 35.45 13.4 35.15 13.4 32.6 L13.9 30.7 Q14.9 28.7 17.1 28.7 18.65 28.7 19.35 30.05 M16.75 21.6 Q18.15 21.6 18.15 22.7 18.15 23.75 16.75 23.75 15.3 23.75 15.3 22.7 L15.4 22.15 Q15.7 21.6 16.75 21.6 M35.4 44.5 Q35.7 43.7 36.75 43.7 38.1 43.7 38.1 45.3 38.1 46.95 36.75 46.95 35.35 46.95 35.35 45.35 L35.4 44.5 M28.0 53.95 Q28.0 59.35 25.0 59.0 23.85 58.85 22.95 57.85 22.0 56.85 22.0 55.7 L22.7 53.75 Q23.7 51.7 25.25 51.7 28.0 51.7 28.0 53.95 M46.85 57.35 Q48.9 55.8 50.35 55.8 52.2 55.8 52.2 57.25 52.2 61.45 48.6 61.4 47.2 61.35 46.1 60.65 44.95 60.0 44.95 59.25 44.95 58.75 46.85 57.35" fill="#7e3d0f" fill-rule="evenodd" stroke="none"/>
    <path d="M45.0 48.75 Q44.15 48.75 43.75 49.35 L43.5 50.0 Q43.5 52.25 44.9 52.55 46.25 52.9 46.25 50.95 L46.2 49.65 46.05 49.35 45.7 48.9 45.0 48.75 M2.6 4.6 L59.4 61.4 Q57.0 63.0 53.0 63.0 L11.0 63.0 Q1.0 63.0 1.0 53.0 L1.0 11.0 Q1.0 7.0 2.6 4.6 M9.65 17.15 Q10.15 17.6 10.65 17.6 11.7 17.6 11.9 16.1 11.9 15.25 10.8 13.9 9.65 12.5 8.75 12.5 7.0 12.5 4.75 14.25 2.75 15.85 2.75 16.55 2.75 19.45 5.1 18.45 L8.9 16.7 9.65 17.15 M9.4 19.7 Q7.85 19.7 6.75 20.8 5.65 21.9 5.65 23.45 5.65 25.0 6.75 26.1 7.85 27.2 9.4 27.2 10.95 27.2 12.05 26.1 13.15 25.0 13.15 23.45 13.15 21.9 12.05 20.8 10.95 19.7 9.4 19.7 M16.75 21.6 Q15.7 21.6 15.4 22.15 L15.3 22.7 Q15.3 23.75 16.75 23.75 18.15 23.75 18.15 22.7 18.15 21.6 16.75 21.6 M19.35 30.05 Q18.65 28.7 17.1 28.7 14.9 28.7 13.9 30.7 L13.4 32.6 Q13.4 35.15 16.65 35.45 19.85 35.8 19.85 32.05 19.85 30.95 19.35 30.05 M7.6 45.45 Q10.4 46.35 10.4 42.45 10.4 41.55 9.9 40.45 9.4 39.35 9.4 38.85 9.4 38.2 8.85 37.65 8.2 37.0 7.0 37.0 5.6 37.0 5.05 39.45 L4.75 41.95 Q4.75 44.55 7.6 45.45 M17.5 48.5 Q16.55 48.5 16.25 49.15 L16.15 49.85 Q16.15 51.15 17.45 51.15 18.75 51.15 18.75 49.8 L18.45 48.9 Q18.05 48.5 17.5 48.5 M25.0 32.5 Q25.0 33.5 25.95 33.5 26.9 33.5 26.9 32.55 L26.6 31.9 Q26.35 31.65 26.0 31.65 25.0 31.65 25.0 32.5 M28.15 39.95 Q28.15 38.4 27.05 37.3 25.95 36.2 24.4 36.2 22.85 36.2 21.75 37.3 20.65 38.4 20.65 39.95 20.65 41.5 21.75 42.6 22.85 43.7 24.4 43.7 25.95 43.7 27.05 42.6 28.15 41.5 28.15 39.95 M35.4 44.5 L35.35 45.35 Q35.35 46.95 36.75 46.95 38.1 46.95 38.1 45.3 38.1 43.7 36.75 43.7 35.7 43.7 35.4 44.5 M39.4 51.2 Q37.85 51.2 36.75 52.3 35.65 53.4 35.65 54.95 35.65 56.5 36.75 57.6 37.85 58.7 39.4 58.7 40.95 58.7 42.05 57.6 43.15 56.5 43.15 54.95 43.15 53.4 42.05 52.3 40.95 51.2 39.4 51.2 M28.0 53.95 Q28.0 51.7 25.25 51.7 23.7 51.7 22.7 53.75 L22.0 55.7 Q22.0 56.85 22.95 57.85 23.85 58.85 25.0 59.0 28.0 59.35 28.0 53.95 M13.15 54.95 Q13.15 53.4 12.05 52.3 10.95 51.2 9.4 51.2 7.85 51.2 6.75 52.3 5.65 53.4 5.65 54.95 5.65 56.5 6.75 57.6 7.85 58.7 9.4 58.7 10.95 58.7 12.05 57.6 13.15 56.5 13.15 54.95 M46.85 57.35 Q44.95 58.75 44.95 59.25 44.95 60.0 46.1 60.65 47.2 61.35 48.6 61.4 52.2 61.45 52.2 57.25 52.2 55.8 50.35 55.8 48.9 55.8 46.85 57.35" fill="#71370d" fill-rule="evenodd" stroke="none"/>
  </g>
</svg>
