<?xml version="1.0" encoding="UTF-8" standalone="no"?>
<svg xmlns:ffdec="https://www.free-decompiler.com/flash" xmlns:xlink="http://www.w3.org/1999/xlink" ffdec:objectType="shape" height="84.0px" width="64.0px" xmlns="http://www.w3.org/2000/svg">
  <g transform="matrix(1.0, 0.0, 0.0, 1.0, 0.0, 0.0)">
    <path d="M32.6 72.55 L32.65 73.15 Q32.9 73.65 33.75 73.65 34.55 73.65 35.0 73.25 35.5 72.85 35.5 72.3 35.5 71.05 34.05 71.0 32.6 71.0 32.6 72.55 M5.25 76.55 Q5.65 76.55 6.5 76.05 7.55 75.45 7.55 74.8 7.55 73.45 5.8 73.6 4.0 73.75 4.0 75.15 L4.1 75.85 Q4.35 76.55 5.25 76.55 M16.75 73.05 L16.85 73.6 Q17.1 74.3 18.0 74.3 18.65 74.3 19.0 73.8 L19.25 73.05 Q19.25 71.8 18.0 71.8 16.75 71.8 16.75 73.05 M1.05 78.0 L0.95 77.45 0.95 70.2 62.8 70.2 62.85 78.0 1.05 78.0 M27.25 74.95 Q26.0 75.1 26.0 76.3 L26.1 76.85 Q26.4 77.55 27.25 77.55 27.9 77.55 28.25 77.05 L28.5 76.3 Q28.5 74.75 27.25 74.95 M36.85 76.65 Q37.15 77.25 38.0 77.25 38.55 77.25 38.85 76.85 L39.15 75.95 Q39.15 74.65 37.95 74.65 36.75 74.65 36.75 76.0 L36.85 76.65 M57.65 75.8 Q57.65 74.3 56.15 74.4 54.6 74.5 54.6 75.8 L54.75 76.55 Q55.15 77.25 56.25 77.25 57.05 77.25 57.4 76.6 L57.65 75.8 M48.85 71.25 Q46.75 71.6 46.75 73.05 L46.85 73.7 Q47.2 74.3 48.35 74.3 49.35 74.3 50.1 73.9 50.9 73.45 50.9 72.75 50.9 70.9 48.85 71.25" fill="#cdc9c2" fill-rule="evenodd" stroke="none"/>
    <path d="M32.6 72.55 Q32.6 71.0 34.05 71.0 35.5 71.05 35.5 72.3 35.5 72.85 35.0 73.25 34.55 73.65 33.75 73.65 32.9 73.65 32.65 73.15 L32.6 72.55 M16.75 73.05 Q16.75 71.8 18.0 71.8 19.25 71.8 19.25 73.05 L19.0 73.8 Q18.65 74.3 18.0 74.3 17.1 74.3 16.85 73.6 L16.75 73.05 M5.25 76.55 Q4.35 76.55 4.1 75.85 L4.0 75.15 Q4.0 73.75 5.8 73.6 7.55 73.45 7.55 74.8 7.55 75.45 6.5 76.05 5.65 76.55 5.25 76.55 M36.85 76.65 L36.75 76.0 Q36.75 74.65 37.95 74.65 39.15 74.65 39.15 75.95 L38.85 76.85 Q38.55 77.25 38.0 77.25 37.15 77.25 36.85 76.65 M27.25 74.95 Q28.5 74.75 28.5 76.3 L28.25 77.05 Q27.9 77.55 27.25 77.55 26.4 77.55 26.1 76.85 L26.0 76.3 Q26.0 75.1 27.25 74.95 M48.85 71.25 Q50.9 70.9 50.9 72.75 50.9 73.45 50.1 73.9 49.35 74.3 48.35 74.3 47.2 74.3 46.85 73.7 L46.75 73.05 Q46.75 71.6 48.85 71.25 M57.65 75.8 L57.4 76.6 Q57.05 77.25 56.25 77.25 55.15 77.25 54.75 76.55 L54.6 75.8 Q54.6 74.5 56.15 74.4 57.65 74.3 57.65 75.8" fill="#ded9d2" fill-rule="evenodd" stroke="none"/>
    <path d="M0.0 69.0 L1.65 69.0 61.95 69.0 64.0 69.0 64.0 79.0 61.95 79.0 1.65 79.0 0.0 79.0 0.0 69.0 M1.05 78.0 L62.85 78.0 62.8 70.2 0.95 70.2 0.95 77.45 1.05 78.0" fill="#b6b2ac" fill-rule="evenodd" stroke="none"/>
    <path d="M54.6 21.7 Q55.35 21.7 55.85 22.2 56.35 22.7 56.35 23.45 56.35 24.2 55.85 24.7 55.35 25.2 54.6 25.2 53.85 25.2 53.35 24.7 52.85 24.2 52.85 23.45 52.85 22.7 53.35 22.2 53.85 21.7 54.6 21.7 M41.35 39.95 Q41.35 40.7 40.85 41.2 40.35 41.7 39.6 41.7 38.85 41.7 38.35 41.2 37.85 40.7 37.85 39.95 37.85 39.2 38.35 38.7 38.85 38.2 39.6 38.2 40.35 38.2 40.85 38.7 41.35 39.2 41.35 39.95 M26.35 54.95 Q26.35 55.7 25.85 56.2 25.35 56.7 24.6 56.7 23.85 56.7 23.35 56.2 22.85 55.7 22.85 54.95 22.85 54.2 23.35 53.7 23.85 53.2 24.6 53.2 25.35 53.2 25.85 53.7 26.35 54.2 26.35 54.95 M0.0 69.0 L0.0 65.55 64.0 65.55 64.0 69.0 61.95 69.0 61.95 66.5 1.65 66.5 1.65 69.0 0.0 69.0 M0.0 79.0 L1.65 79.0 1.65 81.5 61.95 81.5 61.95 79.0 64.0 79.0 64.0 82.45 0.0 82.45 0.0 79.0 M56.35 54.95 Q56.35 55.7 55.85 56.2 55.35 56.7 54.6 56.7 53.85 56.7 53.35 56.2 52.85 55.7 52.85 54.95 52.85 54.2 53.35 53.7 53.85 53.2 54.6 53.2 55.35 53.2 55.85 53.7 56.35 54.2 56.35 54.95" fill="#432107" fill-rule="evenodd" stroke="none"/>
    <path d="M61.4 4.6 L4.6 61.4 Q7.0 63.0 11.0 63.0 L53.0 63.0 Q63.0 63.0 63.0 53.0 L63.0 11.0 Q63.0 7.0 61.4 4.6 M51.95 20.8 Q53.05 19.7 54.6 19.7 56.15 19.7 57.25 20.8 58.35 21.9 58.35 23.45 58.35 25.0 57.25 26.1 56.15 27.2 54.6 27.2 53.05 27.2 51.95 26.1 50.85 25.0 50.85 23.45 50.85 21.9 51.95 20.8 M54.6 21.7 Q53.85 21.7 53.35 22.2 52.85 22.7 52.85 23.45 52.85 24.2 53.35 24.7 53.85 25.2 54.6 25.2 55.35 25.2 55.85 24.7 56.35 24.2 56.35 23.45 56.35 22.7 55.85 22.2 55.35 21.7 54.6 21.7 M41.35 39.95 Q41.35 39.2 40.85 38.7 40.35 38.2 39.6 38.2 38.85 38.2 38.35 38.7 37.85 39.2 37.85 39.95 37.85 40.7 38.35 41.2 38.85 41.7 39.6 41.7 40.35 41.7 40.85 41.2 41.35 40.7 41.35 39.95 M43.35 39.95 Q43.35 41.5 42.25 42.6 41.15 43.7 39.6 43.7 38.05 43.7 36.95 42.6 35.85 41.5 35.85 39.95 35.85 38.4 36.95 37.3 38.05 36.2 39.6 36.2 41.15 36.2 42.25 37.3 43.35 38.4 43.35 39.95 M26.35 54.95 Q26.35 54.2 25.85 53.7 25.35 53.2 24.6 53.2 23.85 53.2 23.35 53.7 22.85 54.2 22.85 54.95 22.85 55.7 23.35 56.2 23.85 56.7 24.6 56.7 25.35 56.7 25.85 56.2 26.35 55.7 26.35 54.95 M27.25 52.3 Q28.35 53.4 28.35 54.95 28.35 56.5 27.25 57.6 26.15 58.7 24.6 58.7 23.05 58.7 21.95 57.6 20.85 56.5 20.85 54.95 20.85 53.4 21.95 52.3 23.05 51.2 24.6 51.2 26.15 51.2 27.25 52.3 M1.65 69.0 L1.65 66.5 61.95 66.5 61.95 69.0 1.65 69.0 M0.0 64.0 L64.0 0.0 64.0 64.0 0.0 64.0 M1.65 79.0 L61.95 79.0 61.95 81.5 1.65 81.5 1.65 79.0 M57.25 52.3 Q58.35 53.4 58.35 54.95 58.35 56.5 57.25 57.6 56.15 58.7 54.6 58.7 53.05 58.7 51.95 57.6 50.85 56.5 50.85 54.95 50.85 53.4 51.95 52.3 53.05 51.2 54.6 51.2 56.15 51.2 57.25 52.3 M56.35 54.95 Q56.35 54.2 55.85 53.7 55.35 53.2 54.6 53.2 53.85 53.2 53.35 53.7 52.85 54.2 52.85 54.95 52.85 55.7 53.35 56.2 53.85 56.7 54.6 56.7 55.35 56.7 55.85 56.2 56.35 55.7 56.35 54.95" fill="#54290a" fill-rule="evenodd" stroke="none"/>
    <path d="M64.0 65.55 L0.0 65.55 0.0 64.0 64.0 64.0 64.0 65.55 M64.0 82.45 L64.0 84.0 0.0 84.0 0.0 82.45 64.0 82.45" fill="#321805" fill-rule="evenodd" stroke="none"/>
    <path d="M61.4 4.6 Q63.0 7.0 63.0 11.0 L63.0 53.0 Q63.0 63.0 53.0 63.0 L11.0 63.0 Q7.0 63.0 4.6 61.4 L61.4 4.6 M54.35 17.15 Q54.85 16.7 55.1 16.7 L58.9 18.45 Q61.25 19.45 61.25 16.55 61.25 15.85 59.25 14.25 57.0 12.5 55.25 12.5 54.35 12.5 53.2 13.9 52.1 15.25 52.1 16.1 52.3 17.6 53.35 17.6 53.85 17.6 54.35 17.15 M45.85 22.7 Q45.85 23.75 47.25 23.75 48.7 23.75 48.7 22.7 L48.6 22.15 Q48.3 21.6 47.25 21.6 45.85 21.6 45.85 22.7 M51.95 20.8 Q50.85 21.9 50.85 23.45 50.85 25.0 51.95 26.1 53.05 27.2 54.6 27.2 56.15 27.2 57.25 26.1 58.35 25.0 58.35 23.45 58.35 21.9 57.25 20.8 56.15 19.7 54.6 19.7 53.05 19.7 51.95 20.8 M46.9 28.7 Q45.35 28.7 44.65 30.05 44.15 30.95 44.15 32.05 44.15 35.8 47.35 35.45 50.6 35.15 50.6 32.6 L50.1 30.7 Q49.1 28.7 46.9 28.7 M43.35 39.95 Q43.35 38.4 42.25 37.3 41.15 36.2 39.6 36.2 38.05 36.2 36.95 37.3 35.85 38.4 35.85 39.95 35.85 41.5 36.95 42.6 38.05 43.7 39.6 43.7 41.15 43.7 42.25 42.6 43.35 41.5 43.35 39.95 M38.75 51.7 Q36.0 51.7 36.0 53.95 36.0 59.35 39.0 59.0 40.15 58.85 41.05 57.85 42.0 56.85 42.0 55.7 L41.3 53.75 Q40.3 51.7 38.75 51.7 M27.25 46.95 Q28.65 46.95 28.65 45.35 L28.6 44.5 Q28.3 43.7 27.25 43.7 25.9 43.7 25.9 45.3 25.9 46.95 27.25 46.95 M38.05 33.5 Q39.0 33.5 39.0 32.5 39.0 31.65 38.0 31.65 37.65 31.65 37.4 31.9 37.1 32.15 37.1 32.55 37.1 33.5 38.05 33.5 M18.3 48.9 Q18.05 49.05 17.95 49.35 L17.8 49.65 17.75 50.95 Q17.75 52.9 19.1 52.55 20.5 52.25 20.5 50.0 L20.25 49.35 Q19.85 48.75 19.0 48.75 L18.3 48.9 M59.25 41.95 L58.95 39.45 Q58.4 37.0 57.0 37.0 55.8 37.0 55.15 37.65 54.6 38.2 54.6 38.85 L54.1 40.45 Q53.6 41.55 53.6 42.45 53.6 46.35 56.4 45.45 59.25 44.55 59.25 41.95 M46.5 48.5 Q45.95 48.5 45.55 48.9 45.25 49.3 45.25 49.8 45.25 51.15 46.55 51.15 47.85 51.15 47.85 49.85 L47.75 49.15 Q47.45 48.5 46.5 48.5 M27.25 52.3 Q26.15 51.2 24.6 51.2 23.05 51.2 21.95 52.3 20.85 53.4 20.85 54.95 20.85 56.5 21.95 57.6 23.05 58.7 24.6 58.7 26.15 58.7 27.25 57.6 28.35 56.5 28.35 54.95 28.35 53.4 27.25 52.3 M13.65 55.8 Q11.8 55.8 11.8 57.25 11.8 61.45 15.4 61.4 16.8 61.35 17.9 60.65 19.05 60.0 19.05 59.25 19.05 58.75 17.15 57.35 15.1 55.8 13.65 55.8 M57.25 52.3 Q56.15 51.2 54.6 51.2 53.05 51.2 51.95 52.3 50.85 53.4 50.85 54.95 50.85 56.5 51.95 57.6 53.05 58.7 54.6 58.7 56.15 58.7 57.25 57.6 58.35 56.5 58.35 54.95 58.35 53.4 57.25 52.3" fill="#71370d" fill-rule="evenodd" stroke="none"/>
    <path d="M45.85 22.7 Q45.85 21.6 47.25 21.6 48.3 21.6 48.6 22.15 L48.7 22.7 Q48.7 23.75 47.25 23.75 45.85 23.75 45.85 22.7 M54.35 17.15 Q53.85 17.6 53.35 17.6 52.3 17.6 52.1 16.1 52.1 15.25 53.2 13.9 54.35 12.5 55.25 12.5 57.0 12.5 59.25 14.25 61.25 15.85 61.25 16.55 61.25 19.45 58.9 18.45 L55.1 16.7 Q54.85 16.7 54.35 17.15 M46.9 28.7 Q49.1 28.7 50.1 30.7 L50.6 32.6 Q50.6 35.15 47.35 35.45 44.15 35.8 44.15 32.05 44.15 30.95 44.65 30.05 45.35 28.7 46.9 28.7 M46.5 48.5 Q47.45 48.5 47.75 49.15 L47.85 49.85 Q47.85 51.15 46.55 51.15 45.25 51.15 45.25 49.8 45.25 49.3 45.55 48.9 45.95 48.5 46.5 48.5 M59.25 41.95 Q59.25 44.55 56.4 45.45 53.6 46.35 53.6 42.45 53.6 41.55 54.1 40.45 L54.6 38.85 Q54.6 38.2 55.15 37.65 55.8 37.0 57.0 37.0 58.4 37.0 58.95 39.45 L59.25 41.95 M18.3 48.9 L19.0 48.75 Q19.85 48.75 20.25 49.35 L20.5 50.0 Q20.5 52.25 19.1 52.55 17.75 52.9 17.75 50.95 L17.8 49.65 17.95 49.35 Q18.05 49.05 18.3 48.9 M38.05 33.5 Q37.1 33.5 37.1 32.55 37.1 32.15 37.4 31.9 37.65 31.65 38.0 31.65 39.0 31.65 39.0 32.5 39.0 33.5 38.05 33.5 M27.25 46.95 Q25.9 46.95 25.9 45.3 25.9 43.7 27.25 43.7 28.3 43.7 28.6 44.5 L28.65 45.35 Q28.65 46.95 27.25 46.95 M38.75 51.7 Q40.3 51.7 41.3 53.75 L42.0 55.7 Q42.0 56.85 41.05 57.85 40.15 58.85 39.0 59.0 36.0 59.35 36.0 53.95 36.0 51.7 38.75 51.7 M13.65 55.8 Q15.1 55.8 17.15 57.35 19.05 58.75 19.05 59.25 19.05 60.0 17.9 60.65 16.8 61.35 15.4 61.4 11.8 61.45 11.8 57.25 11.8 55.8 13.65 55.8" fill="#7e3d0f" fill-rule="evenodd" stroke="none"/>
  </g>
</svg>
