<?xml version="1.0" encoding="UTF-8" standalone="no"?>
<svg xmlns:ffdec="https://www.free-decompiler.com/flash" xmlns:xlink="http://www.w3.org/1999/xlink" ffdec:objectType="shape" height="151.8px" width="73.8px" xmlns="http://www.w3.org/2000/svg">
  <g transform="matrix(1.0, 0.0, 0.0, 1.0, 33.65, 136.85)">
    <path d="M3.45 -136.55 Q5.2 -136.25 7.0 -135.55 L7.6 -135.3 9.15 -134.6 Q11.8 -130.25 13.35 -125.15 L16.3 -118.95 Q18.85 -113.65 20.25 -109.1 21.65 -104.6 23.8 -89.9 25.95 -75.2 25.55 -70.2 25.15 -65.2 28.7 -49.6 L34.1 -26.1 Q37.4 -15.7 40.1 -0.1 40.25 1.35 39.85 4.1 39.45 6.8 29.55 10.9 19.6 14.95 3.1 14.95 L0.3 14.7 -3.45 14.05 Q-6.1 13.3 -6.25 10.05 L-7.2 -19.9 -7.2 -20.2 -7.2 -20.5 -7.15 -27.75 -7.35 -34.05 -7.45 -41.5 -7.1 -59.4 -8.4 -64.5 Q-9.25 -67.3 -10.15 -79.4 L-10.35 -80.55 -10.3 -81.4 -10.35 -81.9 Q-10.45 -84.1 -8.7 -92.1 -6.5 -100.25 -4.85 -104.75 L-3.5 -108.25 -2.55 -112.15 Q-1.55 -119.2 1.7 -125.1 4.25 -129.7 4.6 -130.9 4.5 -131.85 3.75 -132.75 L3.1 -133.35 Q1.7 -134.4 -0.95 -134.5 -3.95 -133.85 -5.3 -130.25 L-6.75 -122.45 -7.45 -118.65 Q-7.75 -117.2 -10.65 -112.25 L-11.55 -110.05 -12.6 -107.45 -14.45 -103.25 -15.45 -100.95 -16.75 -98.15 -19.75 -90.9 -20.7 -88.45 -21.2 -87.15 -22.2 -84.4 -22.25 -84.2 -22.7 -80.65 Q-22.7 -74.45 -17.9 -69.15 -15.35 -66.3 -14.65 -65.15 -13.2 -62.8 -13.15 -60.05 -13.0 -58.2 -13.2 -56.25 -13.55 -44.85 -16.0 -36.25 -17.45 -28.4 -17.75 -18.2 L-18.2 -1.85 Q-18.3 4.25 -18.0 12.85 L-19.85 12.9 -20.5 12.9 -21.3 12.7 -30.95 6.75 Q-34.1 5.3 -33.55 0.2 -31.1 -6.25 -29.15 -13.8 L-29.9 -14.25 -27.85 -22.0 -27.3 -22.05 Q-24.45 -36.05 -23.05 -53.3 L-22.65 -57.45 Q-22.5 -59.4 -23.25 -61.5 -24.0 -63.6 -26.0 -66.2 -28.0 -68.85 -30.2 -74.1 -32.1 -78.8 -32.1 -80.85 -32.1 -85.45 -30.85 -88.9 L-28.1 -93.7 -26.8 -95.9 -26.05 -98.05 -25.2 -100.6 -24.8 -101.9 -24.4 -103.25 -21.95 -105.2 -19.8 -109.6 -16.45 -116.65 -16.6 -116.9 -15.9 -118.6 -14.0 -125.2 -11.3 -132.5 Q-10.6 -133.85 -4.35 -136.05 -1.95 -136.9 0.55 -136.85 L3.45 -136.55 M-0.55 -113.5 L-0.6 -113.2 Q-0.6 -112.55 0.05 -112.1 L0.65 -111.8 6.45 -114.45 8.55 -118.75 10.8 -122.75 12.25 -125.3 Q11.55 -129.5 8.5 -133.35 3.65 -135.95 4.95 -133.35 5.75 -132.3 5.75 -130.8 L5.75 -130.7 5.7 -130.55 5.7 -130.45 5.65 -130.3 5.6 -130.2 5.55 -130.1 5.2 -129.2 4.1 -126.7 4.15 -126.7 1.75 -120.15 -0.55 -113.5 M34.8 6.5 Q38.15 4.2 38.15 1.9 38.15 -4.2 34.85 -16.35 31.55 -28.55 27.85 -45.9 24.1 -63.3 24.05 -66.95 23.95 -70.65 21.55 -92.5 19.65 -102.8 16.7 -114.45 L12.55 -123.4 12.15 -122.9 10.2 -120.5 8.85 -117.7 7.25 -114.5 Q6.75 -113.8 4.3 -112.45 L1.6 -110.95 Q1.2 -110.75 1.35 -110.75 4.5 -107.1 5.2 -106.8 L7.15 -104.25 4.15 -94.5 Q2.35 -89.65 1.1 -84.95 -2.35 -72.65 -2.4 -66.55 L-3.0 -57.45 -3.1 -56.85 -4.2 -48.8 -5.45 -36.85 -5.55 -36.8 -5.55 -30.4 -5.5 -21.05 -5.8 -21.05 -5.6 -16.35 -5.4 -6.75 -5.15 8.85 Q-4.75 11.0 -3.35 12.1 -2.45 12.85 -0.55 13.35 L2.5 13.65 Q19.05 13.65 29.6 9.2 31.85 8.25 33.5 7.3 L33.65 7.25 33.85 7.1 34.8 6.5 M0.6 -110.0 L0.0 -110.95 -0.25 -111.3 -0.7 -111.5 -1.15 -111.85 -1.25 -112.05 -1.35 -110.95 Q-2.45 -106.6 -3.9 -103.2 L-6.6 -96.0 Q-10.15 -88.5 -8.45 -73.5 L-7.05 -64.25 -5.65 -57.45 -6.0 -42.0 -5.55 -45.3 -5.15 -48.0 -4.35 -53.9 -3.8 -57.45 -3.35 -68.6 Q-3.15 -73.55 -1.4 -81.6 0.05 -88.25 2.95 -95.6 5.85 -102.95 5.65 -103.5 5.65 -104.0 4.2 -105.45 2.1 -107.35 0.6 -110.0 M27.45 -23.1 Q27.8 -23.05 28.6 -20.15 29.4 -17.35 29.4 -16.5 29.4 -16.1 28.75 -15.65 L28.05 -15.25 24.25 -13.65 Q21.45 -12.75 18.8 -12.45 L18.7 -12.45 18.7 -12.5 15.15 -12.15 14.1 -12.05 9.45 -11.75 5.85 -11.95 Q4.65 -12.15 4.35 -12.55 3.9 -13.2 3.9 -16.3 3.7 -17.65 3.65 -19.45 L4.8 -17.6 4.8 -17.05 Q4.7 -14.6 6.1 -13.5 7.1 -12.7 8.45 -12.7 L15.0 -13.05 18.6 -13.6 20.0 -13.95 24.05 -15.15 27.85 -16.45 28.35 -16.65 27.65 -20.0 27.25 -22.0 27.45 -23.1 M-7.95 -122.2 L-7.9 -122.95 Q-7.7 -126.75 -6.85 -129.55 L-5.85 -132.15 -5.15 -133.35 Q-4.05 -135.0 -6.9 -134.15 L-9.15 -133.35 -10.95 -131.45 -13.75 -123.5 -14.35 -121.25 -14.8 -118.6 -15.5 -116.75 -12.5 -112.85 -11.5 -113.6 Q-10.35 -114.95 -8.6 -118.6 L-8.5 -119.25 -7.95 -122.2 M-20.95 -105.0 L-21.8 -104.2 Q-23.05 -103.05 -23.85 -101.4 L-24.05 -100.95 -24.25 -100.35 -24.5 -99.6 -25.2 -97.55 -26.1 -94.8 -26.45 -93.55 -27.25 -90.95 -27.9 -88.55 -28.6 -85.85 -29.2 -82.95 -29.25 -81.35 Q-29.15 -79.45 -28.55 -77.8 L-27.0 -74.4 -25.3 -71.6 -23.05 -68.95 -20.7 -66.35 -18.35 -63.4 Q-16.95 -61.25 -16.85 -58.75 L-16.75 -56.25 Q-16.65 -54.35 -16.85 -52.65 L-16.8 -51.15 -16.8 -50.75 -16.7 -49.4 -16.6 -47.65 -16.25 -42.65 -15.95 -45.0 -15.6 -47.3 -15.3 -49.65 -14.7 -54.05 -14.3 -58.15 -14.25 -59.25 -14.6 -61.75 Q-14.85 -62.8 -15.25 -63.7 L-16.0 -65.05 -17.9 -67.65 -20.05 -70.15 -20.85 -71.45 -21.05 -71.85 -22.3 -74.3 Q-23.65 -76.8 -23.7 -79.7 L-23.55 -82.65 -23.1 -84.15 -22.1 -86.75 -20.75 -90.6 -19.75 -93.15 -18.2 -96.7 -17.8 -97.5 -16.65 -100.25 -16.45 -100.75 -15.15 -103.85 -14.1 -106.25 -13.6 -107.45 -13.05 -108.65 -11.5 -112.35 -20.95 -105.0 M-16.65 -113.75 L-19.7 -107.05 Q-16.6 -109.6 -13.55 -112.1 L-15.8 -115.7 -16.65 -113.75 M-17.7 -33.9 L-17.5 -35.05 -16.7 -39.7 -16.85 -41.2 -17.05 -43.9 -17.3 -46.8 -17.7 -52.05 -17.85 -54.0 -17.85 -55.8 Q-17.9 -58.0 -18.25 -60.15 -18.5 -61.9 -19.35 -63.4 L-21.55 -66.25 -23.95 -68.8 -26.1 -71.4 -28.0 -74.2 -28.85 -75.75 Q-30.0 -78.4 -30.2 -81.15 L-30.1 -82.9 -29.35 -86.6 -28.7 -89.15 -28.5 -89.95 Q-30.6 -85.55 -30.65 -81.45 -30.75 -76.15 -25.7 -69.6 -20.65 -63.1 -20.3 -60.65 -20.0 -58.25 -20.7 -53.85 -22.85 -37.3 -26.1 -22.0 L-24.9 -21.7 -23.95 -21.4 -23.55 -20.75 -24.9 -14.65 Q-25.1 -13.6 -25.65 -13.6 L-26.75 -13.6 -28.0 -13.65 Q-29.7 -6.5 -31.7 0.4 -32.85 3.5 -29.95 5.95 L-21.3 11.35 -20.5 11.55 Q-19.3 11.9 -19.8 8.8 -19.3 0.65 -19.3 -6.5 L-19.45 -12.05 -19.55 -13.9 Q-19.7 -17.45 -19.25 -22.25 L-18.65 -27.85 -17.9 -32.65 -17.8 -33.35 -17.7 -33.9 M-25.15 -18.5 L-24.65 -20.5 -26.95 -21.05 -27.5 -18.75 -28.35 -15.05 -26.15 -14.7 -25.15 -18.5" fill="#0b0d15" fill-rule="evenodd" stroke="none"/>
    <path d="M-3.1 -56.85 L-3.0 -57.45 -2.4 -66.55 Q-2.35 -72.65 1.1 -84.95 2.35 -89.65 4.15 -94.5 L7.15 -104.25 5.2 -106.8 Q4.5 -107.1 1.35 -110.75 1.2 -110.75 1.6 -110.95 L4.3 -112.45 Q6.75 -113.8 7.25 -114.5 L8.85 -117.7 10.2 -120.5 12.15 -122.9 12.55 -123.4 16.7 -114.45 Q19.65 -102.8 21.55 -92.5 23.95 -70.65 24.05 -66.95 24.1 -63.3 27.85 -45.9 31.55 -28.55 34.85 -16.35 38.15 -4.2 38.15 1.9 38.15 4.2 34.8 6.5 L34.85 4.9 Q34.85 3.6 34.15 3.35 L29.7 3.2 31.5 1.85 Q33.3 -0.05 33.3 -1.85 33.3 -11.75 27.75 -35.75 22.65 -57.9 22.1 -57.9 L14.55 -53.8 13.6 -53.55 Q16.7 -56.5 21.1 -74.85 L21.0 -75.95 Q20.6 -76.3 19.6 -76.3 19.15 -76.3 16.55 -74.7 13.75 -73.0 13.1 -72.8 16.1 -83.75 16.1 -87.35 L15.6 -87.95 Q14.75 -88.35 14.0 -89.05 13.95 -90.0 14.45 -95.95 14.45 -99.65 11.3 -99.65 6.35 -99.65 2.6 -83.95 -0.45 -68.45 -3.1 -56.85 M17.6 -20.75 L22.9 -21.85 26.75 -22.9 27.45 -23.1 27.25 -22.0 26.9 -21.9 23.05 -21.05 17.7 -19.9 15.45 -19.5 14.3 -19.45 4.7 -18.95 4.8 -17.6 3.65 -19.45 11.65 -20.0 14.25 -20.25 17.6 -20.75 M-16.65 -113.75 L-15.8 -115.7 -13.55 -112.1 Q-16.6 -109.6 -19.7 -107.05 L-16.65 -113.75 M-24.9 -21.7 L-26.1 -22.0 Q-22.85 -37.3 -20.7 -53.85 -20.0 -58.25 -20.3 -60.65 -20.65 -63.1 -25.7 -69.6 -30.75 -76.15 -30.65 -81.45 -30.6 -85.55 -28.5 -89.95 L-28.7 -89.15 -29.35 -86.6 -30.1 -82.9 -30.2 -81.15 Q-30.0 -78.4 -28.85 -75.75 L-28.0 -74.2 -26.1 -71.4 -23.95 -68.8 -21.55 -66.25 -19.35 -63.4 Q-18.5 -61.9 -18.25 -60.15 -17.9 -58.0 -17.85 -55.8 L-17.85 -54.0 -17.7 -52.05 -17.3 -46.8 -17.05 -43.9 -16.85 -41.2 -16.7 -39.7 -17.5 -35.05 -17.7 -33.9 Q-17.2 -41.35 -17.3 -43.45 L-17.1 -43.5 -17.65 -43.6 Q-20.1 -43.6 -21.8 -36.65 L-22.4 -33.5 -22.6 -33.35 Q-23.25 -32.65 -23.25 -31.65 -23.3 -31.0 -23.0 -30.5 L-24.9 -21.7 M-19.45 -12.05 L-19.3 -6.5 Q-19.3 0.65 -19.8 8.8 -19.3 11.9 -20.5 11.55 L-21.3 11.35 -29.95 5.95 Q-32.85 3.5 -31.7 0.4 -29.7 -6.5 -28.0 -13.65 L-26.75 -13.6 -28.4 -5.7 -29.75 2.1 Q-29.75 3.55 -27.7 4.65 -24.5 6.35 -22.25 9.0 -21.2 7.1 -19.45 -12.05 M-19.95 -35.95 L-19.8 -35.95 -20.0 -34.3 -20.05 -34.3 -19.95 -35.95" fill="#131724" fill-rule="evenodd" stroke="none"/>
    <path d="M34.8 6.5 L33.85 7.1 32.75 5.9 Q30.8 5.9 28.35 6.85 L23.3 9.0 Q15.3 12.1 3.35 12.1 -1.5 12.1 -1.5 10.9 L-2.65 6.35 Q-3.8 0.05 -3.8 -8.9 L-3.25 -28.8 -3.55 -30.95 Q-3.8 -32.3 -4.0 -32.5 L-4.45 -31.75 -5.55 -30.4 -5.55 -36.8 -5.45 -36.85 -4.2 -48.8 -3.1 -56.85 Q-0.45 -68.45 2.6 -83.95 6.35 -99.65 11.3 -99.65 14.45 -99.65 14.45 -95.95 13.95 -90.0 14.0 -89.05 14.75 -88.35 15.6 -87.95 L16.1 -87.35 Q16.1 -83.75 13.1 -72.8 13.75 -73.0 16.55 -74.7 19.15 -76.3 19.6 -76.3 20.6 -76.3 21.0 -75.95 L21.1 -74.85 Q16.7 -56.5 13.6 -53.55 L14.55 -53.8 22.1 -57.9 Q22.65 -57.9 27.75 -35.75 33.3 -11.75 33.3 -1.85 33.3 -0.05 31.5 1.85 L29.7 3.2 34.15 3.35 Q34.85 3.6 34.85 4.9 L34.8 6.5 M17.6 -20.75 Q15.65 -33.2 13.4 -42.95 L13.65 -44.45 Q9.65 -44.05 7.95 -45.5 7.05 -46.2 7.0 -47.0 L9.4 -52.55 Q11.95 -58.4 12.65 -64.55 10.4 -62.55 8.6 -61.6 7.5 -61.05 7.1 -61.05 6.45 -61.05 6.3 -61.2 L6.1 -61.6 Q6.1 -62.4 7.4 -67.0 8.65 -71.6 8.65 -73.05 L8.5 -74.05 Q6.0 -71.1 4.3 -69.7 L3.15 -68.5 Q2.85 -65.0 -0.4 -53.5 -1.2 -50.6 -2.1 -42.45 L-2.9 -34.7 -2.25 -32.05 Q-1.65 -29.95 -1.65 -28.0 -1.65 -2.75 -2.2 4.45 L-1.75 5.1 Q-0.9 5.9 0.3 10.35 -0.65 10.5 0.8 10.65 L3.35 10.75 13.25 9.75 21.45 8.2 19.2 -9.5 19.3 -9.55 18.7 -12.45 18.8 -12.45 Q21.45 -12.75 24.25 -13.65 L28.05 -15.25 28.75 -15.65 Q29.4 -16.1 29.4 -16.5 29.4 -17.35 28.6 -20.15 27.8 -23.05 27.45 -23.1 L26.75 -22.9 24.4 -36.45 Q23.55 -41.95 22.65 -44.05 21.55 -46.65 19.6 -46.65 L19.0 -46.6 19.1 -46.6 Q18.5 -46.0 18.5 -44.95 L22.9 -21.85 17.6 -20.75 M28.35 -13.6 Q27.6 -11.65 25.75 -10.85 L24.65 -10.6 25.4 -3.85 Q26.25 0.25 28.75 0.25 30.3 0.25 30.0 -1.35 30.0 -4.15 28.4 -13.2 L28.35 -13.6 M-10.95 -131.45 L-9.15 -133.35 -6.9 -134.15 Q-4.05 -135.0 -5.15 -133.35 L-5.85 -132.15 -6.85 -129.55 Q-7.7 -126.75 -7.9 -122.95 L-7.95 -122.2 -10.95 -131.45 M-17.7 -33.9 L-17.8 -33.35 -17.9 -32.65 -18.65 -27.85 -19.25 -22.25 Q-19.7 -17.45 -19.55 -13.9 L-19.45 -12.05 Q-21.2 7.1 -22.25 9.0 -24.5 6.35 -27.7 4.65 -29.75 3.55 -29.75 2.1 L-28.4 -5.7 -26.75 -13.6 -25.65 -13.6 Q-25.1 -13.6 -24.9 -14.65 L-23.55 -20.75 -23.95 -21.4 -24.9 -21.7 -23.0 -30.5 -22.6 -29.95 Q-21.9 -29.25 -20.9 -29.25 L-20.3 -29.35 -19.25 -29.95 -19.2 -30.0 Q-18.55 -30.65 -18.5 -31.65 -18.5 -32.65 -19.2 -33.35 -19.7 -33.85 -20.3 -33.95 L-20.9 -34.0 Q-21.75 -34.0 -22.4 -33.5 L-21.8 -36.65 Q-20.1 -43.6 -17.65 -43.6 L-17.1 -43.5 -17.3 -43.45 Q-17.2 -41.35 -17.7 -33.9 M-19.95 -35.95 L-20.05 -34.3 -20.0 -34.3 -19.8 -35.95 -19.95 -35.95 M-27.5 -18.75 L-26.85 -18.6 -25.65 -18.5 -25.15 -18.5 -26.15 -14.7 -28.35 -15.05 -27.5 -18.75 M-20.45 -11.6 Q-21.15 -12.3 -22.15 -12.25 -23.15 -12.25 -23.85 -11.6 -24.5 -10.9 -24.5 -9.9 -24.55 -8.9 -23.85 -8.2 -23.15 -7.5 -22.15 -7.5 -21.15 -7.55 -20.5 -8.2 L-20.45 -8.25 -20.3 -8.4 Q-19.8 -9.05 -19.75 -9.9 -19.75 -10.8 -20.3 -11.4 L-20.45 -11.6" fill="#1b1f31" fill-rule="evenodd" stroke="none"/>
    <path d="M4.15 -126.7 L4.1 -126.7 5.2 -129.2 5.55 -130.1 5.6 -130.2 5.65 -130.3 5.7 -130.45 5.7 -130.55 5.75 -130.7 5.75 -130.8 Q5.75 -132.3 4.95 -133.35 3.65 -135.95 8.5 -133.35 11.55 -129.5 12.25 -125.3 L10.8 -122.75 8.55 -118.75 6.45 -114.45 0.65 -111.8 0.05 -112.1 Q-0.6 -112.55 -0.6 -113.2 L-0.55 -113.5 Q2.7 -114.35 4.35 -115.6 5.6 -116.55 6.45 -118.25 L10.75 -126.35 8.6 -131.65 8.05 -131.05 6.6 -129.4 4.15 -126.7 M33.85 7.1 L33.65 7.25 33.5 7.3 Q31.85 8.25 29.6 9.2 19.05 13.65 2.5 13.65 L-0.55 13.35 Q-2.45 12.85 -3.35 12.1 -4.75 11.0 -5.15 8.85 L-5.4 -6.75 -5.6 -16.35 -5.8 -21.05 -5.5 -21.05 -5.55 -30.4 -4.45 -31.75 -4.0 -32.5 Q-3.8 -32.3 -3.55 -30.95 L-3.25 -28.8 -3.8 -8.9 Q-3.8 0.05 -2.65 6.35 L-1.5 10.9 Q-1.5 12.1 3.35 12.1 15.3 12.1 23.3 9.0 L28.35 6.85 Q30.8 5.9 32.75 5.9 L33.85 7.1 M-4.35 -53.9 L-5.15 -48.0 -5.55 -45.3 -6.0 -42.0 -5.65 -57.45 -7.05 -64.25 -8.45 -73.5 Q-10.15 -88.5 -6.6 -96.0 L-3.9 -103.2 Q-2.45 -106.6 -1.35 -110.95 L-1.25 -112.05 -1.15 -111.85 -0.7 -111.5 -0.25 -111.3 0.0 -110.95 0.6 -110.0 -0.5 -106.9 Q-2.55 -101.2 -3.2 -98.7 L-5.15 -91.75 -6.95 -84.8 Q-7.75 -81.25 -6.9 -73.1 L-4.85 -60.25 -4.4 -57.45 -4.35 -53.9 M18.7 -12.45 L19.3 -9.55 19.2 -9.5 21.45 8.2 13.25 9.75 3.35 10.75 0.8 10.65 Q-0.65 10.5 0.3 10.35 -0.9 5.9 -1.75 5.1 L-2.2 4.45 Q-1.65 -2.75 -1.65 -28.0 -1.65 -29.95 -2.25 -32.05 L-2.9 -34.7 -2.1 -42.45 Q-1.2 -50.6 -0.4 -53.5 2.85 -65.0 3.15 -68.5 L4.3 -69.7 Q6.0 -71.1 8.5 -74.05 L8.65 -73.05 Q8.65 -71.6 7.4 -67.0 6.1 -62.4 6.1 -61.6 L6.3 -61.2 Q6.45 -61.05 7.1 -61.05 7.5 -61.05 8.6 -61.6 10.4 -62.55 12.65 -64.55 11.95 -58.4 9.4 -52.55 L7.0 -47.0 Q7.05 -46.2 7.95 -45.5 9.65 -44.05 13.65 -44.45 L13.4 -42.95 Q15.65 -33.2 17.6 -20.75 L14.25 -20.25 Q13.9 -25.15 14.05 -32.25 14.15 -38.35 11.85 -39.25 6.6 -41.35 3.85 -34.9 1.0 -28.35 1.0 -13.6 L2.25 -2.9 Q3.6 7.85 4.0 7.85 14.25 7.85 16.5 6.5 17.35 6.0 17.4 5.15 L17.25 3.65 16.8 -0.7 15.5 -9.65 Q11.3 -8.0 7.7 -10.4 6.6 -11.1 5.85 -11.95 L9.45 -11.75 14.1 -12.05 15.15 -12.15 18.7 -12.5 18.7 -12.45 M22.9 -21.85 L18.5 -44.95 Q18.5 -46.0 19.1 -46.6 L19.0 -46.6 19.6 -46.65 Q21.55 -46.65 22.65 -44.05 23.55 -41.95 24.4 -36.45 L26.75 -22.9 22.9 -21.85 M8.5 -57.5 Q4.4 -57.0 1.8 -48.2 L0.0 -39.4 0.1 -38.6 Q0.0 -38.25 1.0 -38.25 1.75 -38.25 4.55 -45.45 7.2 -52.2 8.65 -57.4 L8.5 -57.5 M27.65 -20.0 L28.35 -16.65 27.85 -16.45 24.05 -15.15 20.0 -13.95 18.6 -13.6 15.0 -13.05 8.45 -12.7 Q7.1 -12.7 6.1 -13.5 4.7 -14.6 4.8 -17.05 10.05 -16.85 14.5 -17.2 L18.05 -17.55 23.45 -18.55 Q25.5 -19.1 27.25 -19.8 L27.65 -20.0 M28.35 -13.6 L28.4 -13.2 Q30.0 -4.15 30.0 -1.35 30.3 0.25 28.75 0.25 26.25 0.25 25.4 -3.85 L24.65 -10.6 25.75 -10.85 Q27.6 -11.65 28.35 -13.6 M-11.85 -124.35 Q-12.75 -123.35 -13.5 -120.4 L-13.75 -119.5 -13.6 -118.6 Q-13.65 -117.6 -13.05 -116.75 -12.3 -115.75 -11.6 -115.75 L-11.0 -115.8 -10.2 -118.6 -10.15 -120.55 Q-10.15 -123.05 -10.3 -123.6 -10.55 -124.45 -11.55 -124.7 L-11.85 -124.35 M-7.95 -122.2 L-8.5 -119.25 -8.6 -118.6 Q-10.35 -114.95 -11.5 -113.6 L-12.5 -112.85 -15.5 -116.75 -14.8 -118.6 -14.35 -121.25 -13.75 -123.5 -10.95 -131.45 -7.95 -122.2 M-20.95 -105.0 L-11.5 -112.35 -13.05 -108.65 -13.6 -107.45 -14.1 -106.25 -15.15 -103.85 -16.45 -100.75 -16.65 -100.25 -17.8 -97.5 -18.2 -96.7 -19.75 -93.15 -20.75 -90.6 -22.1 -86.75 -23.1 -84.15 -23.55 -82.65 -23.7 -79.7 Q-23.65 -76.8 -22.3 -74.3 L-21.05 -71.85 -20.85 -71.45 -20.05 -70.15 -17.9 -67.65 -16.0 -65.05 -15.25 -63.7 Q-14.85 -62.8 -14.6 -61.75 L-14.25 -59.25 -14.3 -58.15 -14.7 -54.05 -15.3 -49.65 -15.6 -47.3 -15.95 -45.0 -16.25 -42.65 -16.6 -47.65 -16.7 -49.4 -16.8 -50.75 -16.8 -51.15 -16.85 -52.65 Q-16.65 -54.35 -16.75 -56.25 L-16.85 -58.75 Q-16.95 -61.25 -18.35 -63.4 L-20.7 -66.35 -23.05 -68.95 -25.3 -71.6 -27.0 -74.4 -28.55 -77.8 Q-29.15 -79.45 -29.25 -81.35 L-29.2 -82.95 -28.6 -85.85 -27.9 -88.55 -27.25 -90.95 -26.45 -93.55 -26.1 -94.8 -25.2 -97.55 -24.5 -99.6 -24.25 -100.35 -24.05 -100.95 -23.85 -101.4 Q-23.05 -103.05 -21.8 -104.2 L-20.95 -105.0 M-20.8 -102.3 L-21.7 -101.05 -23.0 -98.2 -24.35 -94.4 -25.05 -91.9 -25.7 -89.3 -26.3 -86.75 -26.9 -84.15 -27.2 -82.95 -27.25 -82.7 -26.7 -79.75 Q-26.25 -77.7 -25.4 -75.75 L-24.15 -73.65 -25.05 -75.8 -25.55 -77.7 -25.85 -79.75 -25.8 -82.65 -25.45 -84.15 -24.5 -86.75 -23.6 -89.3 -22.65 -91.9 -21.4 -95.1 -20.55 -97.1 -19.7 -99.05 -18.05 -102.2 -16.35 -104.85 -15.05 -106.7 -14.45 -107.55 -14.7 -107.4 -15.9 -106.65 -18.55 -104.6 -20.8 -102.3 M-27.5 -18.75 L-26.95 -21.05 -24.65 -20.5 -25.15 -18.5 -25.65 -18.5 -26.85 -18.6 -27.5 -18.75" fill="#21273c" fill-rule="evenodd" stroke="none"/>
    <path d="M4.15 -126.7 L6.6 -129.4 8.05 -131.05 8.6 -131.65 10.75 -126.35 6.45 -118.25 Q5.6 -116.55 4.35 -115.6 2.7 -114.35 -0.55 -113.5 L1.75 -120.15 4.15 -126.7 M-4.35 -53.9 L-4.4 -57.45 -4.85 -60.25 -6.9 -73.1 Q-7.75 -81.25 -6.95 -84.8 L-5.15 -91.75 -3.2 -98.7 Q-2.55 -101.2 -0.5 -106.9 L0.6 -110.0 Q2.1 -107.35 4.2 -105.45 5.65 -104.0 5.65 -103.5 5.85 -102.95 2.95 -95.6 0.05 -88.25 -1.4 -81.6 -3.15 -73.55 -3.35 -68.6 L-3.8 -57.45 -4.35 -53.9 M5.85 -11.95 Q6.6 -11.1 7.7 -10.4 11.3 -8.0 15.5 -9.65 L16.8 -0.7 17.25 3.65 17.4 5.15 Q17.35 6.0 16.5 6.5 14.25 7.85 4.0 7.85 3.6 7.85 2.25 -2.9 L1.0 -13.6 Q1.0 -28.35 3.85 -34.9 6.6 -41.35 11.85 -39.25 14.15 -38.35 14.05 -32.25 13.9 -25.15 14.25 -20.25 L11.65 -20.0 3.65 -19.45 Q3.7 -17.65 3.9 -16.3 3.9 -13.2 4.35 -12.55 4.65 -12.15 5.85 -11.95 M8.5 -57.5 L8.65 -57.4 Q7.2 -52.2 4.55 -45.45 1.75 -38.25 1.0 -38.25 0.0 -38.25 0.1 -38.6 L0.0 -39.4 1.8 -48.2 Q4.4 -57.0 8.5 -57.5 M4.8 -17.6 L4.7 -18.95 14.3 -19.45 15.45 -19.5 17.7 -19.9 23.05 -21.05 26.9 -21.9 27.25 -22.0 27.65 -20.0 27.25 -19.8 Q25.5 -19.1 23.45 -18.55 L18.05 -17.55 14.5 -17.2 Q10.05 -16.85 4.8 -17.05 L4.8 -17.6 M-11.85 -124.35 L-11.55 -124.7 Q-10.55 -124.45 -10.3 -123.6 -10.15 -123.05 -10.15 -120.55 L-10.2 -118.6 -11.0 -115.8 -11.6 -115.75 Q-12.3 -115.75 -13.05 -116.75 -13.65 -117.6 -13.6 -118.6 L-13.75 -119.5 -13.5 -120.4 Q-12.75 -123.35 -11.85 -124.35 M-20.8 -102.3 L-18.55 -104.6 -15.9 -106.65 -14.7 -107.4 -14.45 -107.55 -15.05 -106.7 -16.35 -104.85 -18.05 -102.2 -19.7 -99.05 -20.55 -97.1 -21.4 -95.1 -22.65 -91.9 -23.6 -89.3 -24.5 -86.75 -25.45 -84.15 -25.8 -82.65 -25.85 -79.75 -25.55 -77.7 -25.05 -75.8 -24.15 -73.65 -25.4 -75.75 Q-26.25 -77.7 -26.7 -79.75 L-27.25 -82.7 -27.2 -82.95 -26.9 -84.15 -26.3 -86.75 -25.7 -89.3 -25.05 -91.9 -24.35 -94.4 -23.0 -98.2 -21.7 -101.05 -20.8 -102.3" fill="#2c334e" fill-rule="evenodd" stroke="none"/>
    <path d="M-23.0 -30.5 Q-23.3 -31.0 -23.25 -31.65 -23.25 -32.65 -22.6 -33.35 L-22.4 -33.5 Q-21.75 -34.0 -20.9 -34.0 L-20.3 -33.95 Q-19.7 -33.85 -19.2 -33.35 -18.5 -32.65 -18.5 -31.65 -18.55 -30.65 -19.2 -30.0 L-19.25 -29.95 -20.3 -29.35 -20.9 -29.25 Q-21.9 -29.25 -22.6 -29.95 L-23.0 -30.5 M-19.25 -31.65 Q-19.3 -32.35 -19.75 -32.8 L-20.3 -33.15 -20.9 -33.25 Q-21.6 -33.3 -22.05 -32.85 L-22.1 -32.8 Q-22.55 -32.35 -22.5 -31.65 -22.5 -30.95 -22.05 -30.5 -21.6 -30.05 -20.9 -30.0 L-20.3 -30.1 -19.75 -30.5 Q-19.25 -30.95 -19.25 -31.65 M-20.45 -11.6 L-20.3 -11.4 Q-19.75 -10.8 -19.75 -9.9 -19.8 -9.05 -20.3 -8.4 L-20.45 -8.25 -20.5 -8.2 Q-21.15 -7.55 -22.15 -7.5 -23.15 -7.5 -23.85 -8.2 -24.55 -8.9 -24.5 -9.9 -24.5 -10.9 -23.85 -11.6 -23.15 -12.25 -22.15 -12.25 -21.15 -12.3 -20.45 -11.6 M-20.5 -9.9 Q-20.55 -10.6 -21.0 -11.05 -21.45 -11.5 -22.15 -11.5 -22.85 -11.55 -23.3 -11.1 L-23.35 -11.05 Q-23.8 -10.6 -23.75 -9.9 -23.75 -9.2 -23.3 -8.75 L-22.15 -8.25 Q-21.45 -8.25 -21.0 -8.75 -20.5 -9.2 -20.5 -9.9" fill="#4d3109" fill-rule="evenodd" stroke="none"/>
    <path d="M-19.25 -31.65 Q-19.25 -30.95 -19.75 -30.5 L-20.3 -30.1 -20.9 -30.0 Q-21.6 -30.05 -22.05 -30.5 -22.5 -30.95 -22.5 -31.65 -22.55 -32.35 -22.1 -32.8 L-22.05 -32.85 Q-21.6 -33.3 -20.9 -33.25 L-20.3 -33.15 -19.75 -32.8 Q-19.3 -32.35 -19.25 -31.65 M-20.5 -9.9 Q-20.5 -9.2 -21.0 -8.75 -21.45 -8.25 -22.15 -8.25 L-23.3 -8.75 Q-23.75 -9.2 -23.75 -9.9 -23.8 -10.6 -23.35 -11.05 L-23.3 -11.1 Q-22.85 -11.55 -22.15 -11.5 -21.45 -11.5 -21.0 -11.05 -20.55 -10.6 -20.5 -9.9" fill="#c88217" fill-rule="evenodd" stroke="none"/>
  </g>
</svg>
