<?xml version="1.0" encoding="UTF-8" standalone="no"?>
<svg xmlns:ffdec="https://www.free-decompiler.com/flash" xmlns:xlink="http://www.w3.org/1999/xlink" ffdec:objectType="shape" height="230.0px" width="127.0px" xmlns="http://www.w3.org/2000/svg">
  <g transform="matrix(1.0, 0.0, 0.0, 1.0, 0.0, 230.0)">
    <path d="M122.45 -215.2 L125.9 -229.0 8.8 -229.0 5.4 -215.2 1.1 -198.0 118.2 -198.0 122.45 -215.2 M126.5 -230.0 L126.85 -229.85 126.95 -229.75 127.0 -229.5 127.0 -32.35 119.05 -0.5 118.95 -0.15 118.9 -0.15 118.8 -0.05 118.55 0.0 0.0 0.0 0.0 -197.55 0.05 -197.7 8.0 -230.0 126.5 -230.0 M1.25 -1.0 L118.05 -1.0 118.05 -197.0 115.1 -197.0 94.4 -197.0 61.15 -197.0 0.95 -197.0 0.95 -112.25 0.95 -54.9 0.95 -1.0 1.25 -1.0 M112.8 -193.0 L114.1 -193.0 114.1 -153.75 90.1 -153.75 89.3 -153.75 89.3 -152.3 89.3 -34.75 114.1 -34.75 114.1 -5.0 4.95 -5.0 4.95 -7.3 4.95 -61.05 4.95 -117.85 4.95 -193.0 58.3 -193.0 91.7 -193.0 112.8 -193.0 M113.1 -190.8 L113.1 -192.0 88.7 -192.0 68.1 -192.0 60.35 -192.0 58.3 -192.0 57.3 -192.0 5.95 -192.0 5.95 -116.85 5.95 -63.8 5.95 -7.25 5.95 -6.0 41.5 -6.0 59.25 -6.0 72.8 -6.0 113.1 -6.0 113.1 -33.75 95.9 -33.75 88.3 -33.75 88.3 -78.85 88.3 -148.65 88.3 -154.75 91.85 -154.75 113.1 -154.75 113.1 -190.8 M113.1 -142.7 L113.1 -148.75 94.25 -148.75 94.25 -142.7 94.25 -130.25 113.1 -130.25 113.1 -142.7 M93.25 -149.75 L114.1 -149.75 114.1 -121.25 93.25 -121.25 93.25 -149.75 M94.25 -116.25 L94.25 -107.25 113.1 -107.25 113.1 -116.25 94.25 -116.25 M113.1 -106.25 L94.25 -106.25 94.25 -97.25 113.1 -97.25 113.1 -106.25 M93.25 -117.25 L114.1 -117.25 114.1 -56.25 93.25 -56.25 93.25 -117.25 M113.1 -122.25 L113.1 -129.25 94.25 -129.25 94.25 -122.25 113.1 -122.25 M75.65 -57.25 L83.55 -57.25 83.55 -19.75 67.85 -19.75 51.25 -19.75 35.45 -19.75 35.45 -57.25 62.25 -57.25 75.65 -57.25 M77.6 -51.25 L41.4 -51.25 41.4 -25.75 77.6 -25.75 77.6 -51.25 M36.45 -56.25 L36.45 -20.75 82.6 -20.75 82.6 -56.25 36.45 -56.25 M40.4 -24.75 L40.4 -52.25 78.6 -52.25 78.6 -24.75 40.4 -24.75 M113.1 -77.25 L113.1 -86.25 94.25 -86.25 94.25 -77.25 113.1 -77.25 M113.1 -87.25 L113.1 -96.25 94.25 -96.25 94.25 -87.25 113.1 -87.25 M94.25 -57.25 L113.1 -57.25 113.1 -66.25 94.25 -66.25 94.25 -57.25 M93.25 -52.25 L114.1 -52.25 114.1 -38.75 93.25 -38.75 93.25 -52.25 M113.1 -51.25 L94.25 -51.25 94.25 -39.75 113.1 -39.75 113.1 -51.25 M94.25 -67.25 L113.1 -67.25 113.1 -76.25 94.25 -76.25 94.25 -67.25 M119.05 -4.5 L126.0 -32.5 126.0 -225.45 119.05 -197.5 119.05 -4.5" fill="#1f1f1f" fill-rule="evenodd" stroke="none"/>
    <path d="M5.4 -215.2 L8.8 -229.0 125.9 -229.0 122.45 -215.2 5.4 -215.2 M0.95 -54.9 L0.95 -112.25 4.95 -117.85 4.95 -61.05 0.95 -54.9 M61.15 -197.0 L94.4 -197.0 91.7 -193.0 58.3 -193.0 61.15 -197.0" fill="#5b5b5b" fill-rule="evenodd" stroke="none"/>
    <path d="M122.45 -215.2 L118.2 -198.0 1.1 -198.0 5.4 -215.2 122.45 -215.2" fill="#696969" fill-rule="evenodd" stroke="none"/>
    <path d="M115.1 -197.0 L118.05 -197.0 118.05 -1.0 1.25 -1.0 4.95 -7.3 4.95 -5.0 114.1 -5.0 114.1 -34.75 89.3 -34.75 89.3 -152.3 90.1 -153.75 114.1 -153.75 114.1 -193.0 112.8 -193.0 115.1 -197.0 M93.25 -149.75 L93.25 -121.25 114.1 -121.25 114.1 -149.75 93.25 -149.75 M111.05 -133.7 L96.15 -133.7 96.15 -138.7 111.05 -138.7 111.05 -133.7 M93.25 -117.25 L93.25 -56.25 114.1 -56.25 114.1 -117.25 93.25 -117.25 M106.85 -124.65 L106.85 -122.9 99.9 -122.9 99.9 -124.65 106.85 -124.65 M40.4 -24.75 L78.6 -24.75 78.6 -52.25 40.4 -52.25 40.4 -24.75 M36.45 -56.25 L82.6 -56.25 82.6 -20.75 36.45 -20.75 36.45 -56.25 M93.25 -52.25 L93.25 -38.75 114.1 -38.75 114.1 -52.25 93.25 -52.25" fill="#333333" fill-rule="evenodd" stroke="none"/>
    <path d="M88.7 -192.0 L113.1 -192.0 113.1 -190.8 91.85 -154.75 88.3 -154.75 88.3 -148.65 82.5 -138.75 82.5 -138.7 82.1 -139.3 Q81.65 -139.75 81.05 -139.75 80.45 -139.75 80.0 -139.3 79.55 -138.85 79.55 -138.25 79.55 -137.65 80.0 -137.2 80.45 -136.75 81.05 -136.75 L81.3 -136.75 74.35 -124.9 Q70.2 -145.3 68.45 -160.7 L88.7 -192.0 M5.95 -7.25 L5.95 -63.8 16.0 -79.45 16.4 -72.5 Q16.45 -69.8 18.25 -67.95 19.9 -66.05 22.45 -65.95 L33.9 -65.95 39.95 -65.95 15.0 -22.9 13.8 -22.0 Q12.15 -20.3 12.1 -17.9 L5.95 -7.25 M5.95 -116.85 L5.95 -192.0 57.3 -192.0 47.15 -177.15 46.4 -180.05 Q45.05 -182.95 42.6 -184.45 39.9 -186.2 37.4 -185.95 L36.95 -185.95 33.9 -185.5 32.45 -184.95 Q30.2 -184.05 28.55 -182.0 26.95 -180.4 26.15 -178.25 25.35 -176.25 24.95 -173.7 24.3 -168.45 27.0 -164.65 29.5 -161.45 33.9 -161.05 L34.55 -161.0 36.25 -161.2 36.25 -161.15 31.95 -154.9 28.4 -158.45 27.7 -159.0 27.1 -159.2 26.55 -159.3 Q25.7 -159.4 24.8 -158.55 23.95 -157.9 23.65 -156.7 L23.6 -155.95 Q22.8 -148.6 22.5 -141.1 L5.95 -116.85 M95.45 -185.8 Q94.0 -187.25 91.95 -187.25 89.9 -187.25 88.45 -185.8 87.0 -184.3 87.0 -182.25 87.0 -180.2 88.45 -178.75 89.9 -177.25 91.95 -177.25 94.0 -177.25 95.45 -178.75 96.9 -180.2 96.9 -182.25 96.9 -184.3 95.45 -185.8 M83.05 -166.5 Q83.05 -168.05 81.95 -169.15 80.85 -170.25 79.3 -170.25 77.75 -170.25 76.7 -169.15 75.6 -168.05 75.6 -166.5 75.6 -164.95 76.7 -163.85 77.75 -162.75 79.3 -162.75 80.85 -162.75 81.95 -163.85 83.05 -164.95 83.05 -166.5 M105.85 -125.7 L100.9 -125.7 100.9 -128.2 105.85 -128.2 105.85 -125.7 M94.25 -116.25 L113.1 -116.25 113.1 -107.25 94.25 -107.25 94.25 -116.25 M33.9 -170.75 L33.5 -170.95 Q32.6 -171.75 32.5 -172.2 32.1 -173.05 32.3 -173.7 32.3 -174.7 32.8 -175.3 L33.9 -176.25 34.2 -176.5 35.15 -176.8 36.25 -176.95 37.1 -176.95 Q38.3 -176.7 39.0 -176.1 39.6 -175.35 39.6 -174.4 L39.75 -174.1 39.7 -173.7 Q39.45 -172.55 38.4 -171.45 37.15 -170.6 35.5 -170.4 L34.35 -170.55 33.9 -170.75 M19.15 -165.15 Q20.0 -166.0 20.0 -167.25 20.0 -168.5 19.15 -169.4 18.3 -170.25 17.05 -170.25 15.8 -170.25 14.9 -169.4 14.05 -168.5 14.05 -167.25 14.05 -166.0 14.9 -165.15 15.8 -164.25 17.05 -164.25 18.3 -164.25 19.15 -165.15 M15.3 -176.75 Q17.7 -176.75 19.35 -178.45 21.0 -180.1 21.0 -182.5 21.0 -184.9 19.35 -186.6 17.7 -188.25 15.3 -188.25 12.95 -188.25 11.25 -186.6 9.6 -184.9 9.6 -182.5 9.6 -180.1 11.25 -178.45 12.95 -176.75 15.3 -176.75 M44.4 -123.4 L55.2 -140.1 Q56.2 -121.5 59.65 -99.8 L59.65 -99.75 47.4 -78.8 46.45 -78.85 38.35 -78.85 37.3 -86.0 Q36.8 -88.3 35.25 -89.8 L33.9 -90.75 Q32.75 -91.4 31.7 -91.35 L31.55 -91.35 Q29.6 -91.45 28.6 -89.75 27.45 -88.5 27.65 -86.1 L28.4 -78.85 25.15 -78.85 24.45 -87.35 23.9 -89.5 23.3 -90.7 25.7 -94.4 Q26.5 -94.05 27.45 -94.05 L33.9 -94.05 43.65 -94.0 Q45.75 -94.05 47.1 -95.75 48.15 -97.4 47.75 -99.9 L47.7 -99.9 Q47.15 -102.4 45.6 -103.95 43.9 -105.65 41.75 -105.6 L33.9 -105.6 32.9 -105.6 36.65 -111.35 40.0 -108.6 Q40.3 -108.55 40.4 -108.35 40.55 -108.1 40.9 -108.05 L41.85 -107.7 42.75 -107.65 Q44.0 -107.6 44.85 -108.6 45.55 -109.65 45.5 -111.15 44.7 -117.25 44.4 -123.4 M27.15 -59.05 Q26.45 -58.3 26.45 -57.25 26.45 -56.2 27.15 -55.5 27.9 -54.75 28.95 -54.75 30.0 -54.75 30.7 -55.5 31.45 -56.2 31.45 -57.25 31.45 -58.3 30.7 -59.05 30.0 -59.75 28.95 -59.75 27.9 -59.75 27.15 -59.05 M24.5 -41.75 Q24.5 -43.6 23.15 -44.95 21.85 -46.25 20.0 -46.25 18.2 -46.25 16.85 -44.95 15.55 -43.6 15.55 -41.75 15.55 -39.9 16.85 -38.6 18.2 -37.25 20.0 -37.25 21.85 -37.25 23.15 -38.6 24.5 -39.9 24.5 -41.75" fill="#e63333" fill-rule="evenodd" stroke="none"/>
    <path d="M115.1 -197.0 L112.8 -193.0 91.7 -193.0 94.4 -197.0 115.1 -197.0 M90.1 -153.75 L89.3 -152.3 89.3 -153.75 90.1 -153.75 M4.95 -7.3 L1.25 -1.0 0.95 -1.0 0.95 -54.9 4.95 -61.05 4.95 -7.3 M0.95 -112.25 L0.95 -197.0 61.15 -197.0 58.3 -193.0 4.95 -193.0 4.95 -117.85 0.95 -112.25" fill="#454545" fill-rule="evenodd" stroke="none"/>
    <path d="M68.45 -160.7 Q70.2 -145.3 74.35 -124.9 L66.7 -111.85 Q62.4 -131.5 60.55 -148.45 L60.55 -148.5 68.45 -160.7 M81.3 -136.75 L81.05 -136.75 Q80.45 -136.75 80.0 -137.2 79.55 -137.65 79.55 -138.25 79.55 -138.85 80.0 -139.3 80.45 -139.75 81.05 -139.75 81.65 -139.75 82.1 -139.3 L82.5 -138.7 81.3 -136.75 M95.45 -185.8 Q96.9 -184.3 96.9 -182.25 96.9 -180.2 95.45 -178.75 94.0 -177.25 91.95 -177.25 89.9 -177.25 88.45 -178.75 87.0 -180.2 87.0 -182.25 87.0 -184.3 88.45 -185.8 89.9 -187.25 91.95 -187.25 94.0 -187.25 95.45 -185.8 M83.05 -166.5 Q83.05 -164.95 81.95 -163.85 80.85 -162.75 79.3 -162.75 77.75 -162.75 76.7 -163.85 75.6 -164.95 75.6 -166.5 75.6 -168.05 76.7 -169.15 77.75 -170.25 79.3 -170.25 80.85 -170.25 81.95 -169.15 83.05 -168.05 83.05 -166.5 M15.3 -176.75 Q12.95 -176.75 11.25 -178.45 9.6 -180.1 9.6 -182.5 9.6 -184.9 11.25 -186.6 12.95 -188.25 15.3 -188.25 17.7 -188.25 19.35 -186.6 21.0 -184.9 21.0 -182.5 21.0 -180.1 19.35 -178.45 17.7 -176.75 15.3 -176.75 M19.15 -165.15 Q18.3 -164.25 17.05 -164.25 15.8 -164.25 14.9 -165.15 14.05 -166.0 14.05 -167.25 14.05 -168.5 14.9 -169.4 15.8 -170.25 17.05 -170.25 18.3 -170.25 19.15 -169.4 20.0 -168.5 20.0 -167.25 20.0 -166.0 19.15 -165.15 M27.15 -59.05 Q27.9 -59.75 28.95 -59.75 30.0 -59.75 30.7 -59.05 31.45 -58.3 31.45 -57.25 31.45 -56.2 30.7 -55.5 30.0 -54.75 28.95 -54.75 27.9 -54.75 27.15 -55.5 26.45 -56.2 26.45 -57.25 26.45 -58.3 27.15 -59.05 M24.5 -41.75 Q24.5 -39.9 23.15 -38.6 21.85 -37.25 20.0 -37.25 18.2 -37.25 16.85 -38.6 15.55 -39.9 15.55 -41.75 15.55 -43.6 16.85 -44.95 18.2 -46.25 20.0 -46.25 21.85 -46.25 23.15 -44.95 24.5 -43.6 24.5 -41.75 M12.1 -17.9 Q12.15 -20.3 13.8 -22.0 L15.0 -22.9 12.1 -17.9" fill="#25cbb3" fill-rule="evenodd" stroke="none"/>
    <path d="M113.1 -190.8 L113.1 -154.75 91.85 -154.75 113.1 -190.8 M88.3 -148.65 L88.3 -78.85 Q79.65 -100.05 75.45 -119.7 L74.35 -124.9 81.3 -136.75 82.1 -137.2 Q82.55 -137.65 82.55 -138.25 L82.55 -138.5 82.5 -138.7 82.5 -138.75 88.3 -148.65 M41.5 -6.0 L5.95 -6.0 5.95 -7.25 12.1 -17.9 12.1 -17.75 Q12.1 -15.25 13.8 -13.5 15.55 -11.75 18.05 -11.75 20.5 -11.75 22.25 -13.5 24.0 -15.25 24.0 -17.75 24.0 -20.25 22.25 -22.0 20.5 -23.75 18.05 -23.75 16.35 -23.75 15.0 -22.9 L39.95 -65.95 48.8 -65.95 Q51.35 -66.0 52.8 -67.9 54.05 -69.8 53.65 -72.5 L53.55 -72.5 Q53.0 -75.25 51.1 -77.0 49.4 -78.55 47.4 -78.8 L59.65 -99.75 60.2 -96.4 Q63.8 -75.1 62.25 -57.25 L35.45 -57.25 35.45 -19.75 51.25 -19.75 Q47.1 -12.35 41.5 -6.0 M100.4 -167.75 Q99.9 -167.2 99.9 -166.5 99.9 -165.8 100.4 -165.3 100.95 -164.75 101.65 -164.75 102.35 -164.75 102.8 -165.3 103.35 -165.8 103.35 -166.5 103.35 -167.2 102.8 -167.75 102.35 -168.25 101.65 -168.25 100.95 -168.25 100.4 -167.75 M33.45 -12.7 Q33.9 -13.15 33.9 -13.75 33.9 -14.35 33.45 -14.8 33.0 -15.25 32.45 -15.25 31.85 -15.25 31.4 -14.8 30.95 -14.35 30.95 -13.75 30.95 -13.15 31.4 -12.7 31.85 -12.25 32.45 -12.25 33.0 -12.25 33.45 -12.7" fill="#e01d1d" fill-rule="evenodd" stroke="none"/>
    <path d="M88.3 -78.85 L88.3 -33.75 95.9 -33.75 72.8 -6.0 59.25 -6.0 Q64.35 -12.35 67.85 -19.75 L83.55 -19.75 83.55 -57.25 75.65 -57.25 Q75.7 -75.1 70.35 -96.4 L70.2 -97.1 66.7 -111.8 66.7 -111.85 74.35 -124.9 75.45 -119.7 Q79.65 -100.05 88.3 -78.85 M100.4 -167.75 Q100.95 -168.25 101.65 -168.25 102.35 -168.25 102.8 -167.75 103.35 -167.2 103.35 -166.5 103.35 -165.8 102.8 -165.3 102.35 -164.75 101.65 -164.75 100.95 -164.75 100.4 -165.3 99.9 -165.8 99.9 -166.5 99.9 -167.2 100.4 -167.75 M82.5 -138.7 L82.55 -138.5 82.55 -138.25 Q82.55 -137.65 82.1 -137.2 L81.3 -136.75 82.5 -138.7 M113.1 -106.25 L113.1 -97.25 94.25 -97.25 94.25 -106.25 113.1 -106.25 M15.0 -22.9 Q16.35 -23.75 18.05 -23.75 20.5 -23.75 22.25 -22.0 24.0 -20.25 24.0 -17.75 24.0 -15.25 22.25 -13.5 20.5 -11.75 18.05 -11.75 15.55 -11.75 13.8 -13.5 12.1 -15.25 12.1 -17.75 L12.1 -17.9 15.0 -22.9 M33.45 -12.7 Q33.0 -12.25 32.45 -12.25 31.85 -12.25 31.4 -12.7 30.95 -13.15 30.95 -13.75 30.95 -14.35 31.4 -14.8 31.85 -15.25 32.45 -15.25 33.0 -15.25 33.45 -14.8 33.9 -14.35 33.9 -13.75 33.9 -13.15 33.45 -12.7" fill="#23c2ab" fill-rule="evenodd" stroke="none"/>
    <path d="M94.25 -142.7 L94.25 -148.75 113.1 -148.75 113.1 -142.7 94.25 -142.7" fill="#b1ca51" fill-rule="evenodd" stroke="none"/>
    <path d="M105.85 -125.7 L105.85 -128.2 100.9 -128.2 100.9 -125.7 105.85 -125.7 M109.8 -127.4 Q109.2 -127.4 108.8 -126.95 108.35 -126.5 108.35 -125.9 108.35 -125.3 108.8 -124.85 109.2 -124.4 109.8 -124.4 110.4 -124.4 110.85 -124.85 111.3 -125.3 111.3 -125.9 L110.85 -126.95 Q110.4 -127.4 109.8 -127.4 M113.1 -122.25 L94.25 -122.25 94.25 -129.25 113.1 -129.25 113.1 -122.25 M106.85 -124.65 L99.9 -124.65 99.9 -122.9 106.85 -122.9 106.85 -124.65" fill="#858585" fill-rule="evenodd" stroke="none"/>
    <path d="M109.8 -127.4 Q110.4 -127.4 110.85 -126.95 L111.3 -125.9 Q111.3 -125.3 110.85 -124.85 110.4 -124.4 109.8 -124.4 109.2 -124.4 108.8 -124.85 108.35 -125.3 108.35 -125.9 108.35 -126.5 108.8 -126.95 109.2 -127.4 109.8 -127.4" fill="#cccccc" fill-rule="evenodd" stroke="none"/>
    <path d="M113.1 -142.7 L113.1 -130.25 94.25 -130.25 94.25 -142.7 113.1 -142.7 M111.05 -133.7 L111.05 -138.7 96.15 -138.7 96.15 -133.7 111.05 -133.7" fill="#769b31" fill-rule="evenodd" stroke="none"/>
    <path d="M5.95 -63.8 L5.95 -116.85 22.5 -141.1 22.45 -139.7 Q22.3 -137.8 23.35 -136.5 24.3 -135.25 25.85 -135.2 27.25 -135.3 28.45 -136.6 29.65 -138.05 29.85 -139.75 29.8 -142.1 30.1 -144.5 L33.9 -140.8 38.85 -136.05 39.1 -135.75 39.45 -135.5 40.3 -135.2 41.15 -135.1 Q42.25 -135.25 43.3 -136.0 44.15 -137.0 44.35 -138.4 44.65 -147.35 45.3 -156.15 45.4 -158.05 44.35 -159.15 43.4 -160.55 41.6 -160.4 39.9 -160.65 38.6 -159.1 37.2 -157.9 37.15 -156.1 36.85 -153.35 36.7 -150.25 L33.9 -152.9 31.95 -154.9 36.25 -161.15 37.95 -161.6 42.5 -164.15 42.65 -164.3 42.8 -164.45 43.1 -164.75 Q46.75 -168.5 47.25 -173.7 L47.2 -173.7 Q47.4 -175.6 47.15 -177.15 L57.3 -192.0 58.3 -192.0 Q53.55 -169.95 55.2 -140.1 L44.4 -123.4 Q44.25 -126.85 44.25 -130.35 44.2 -132.2 43.1 -133.5 41.95 -134.95 40.2 -134.85 38.5 -134.85 37.15 -133.45 35.9 -132.05 35.85 -130.25 L35.9 -123.9 33.9 -125.7 26.85 -132.7 26.2 -133.3 25.6 -133.55 25.0 -133.65 Q24.0 -133.75 23.2 -132.85 22.25 -132.25 22.25 -130.7 21.85 -121.7 22.2 -112.55 22.2 -110.7 23.35 -109.1 24.4 -107.8 26.2 -107.7 27.65 -107.75 28.7 -109.2 29.85 -110.65 29.8 -112.55 L29.55 -117.8 33.9 -113.7 36.65 -111.35 32.9 -105.6 26.6 -105.6 Q24.75 -105.65 23.65 -103.9 22.25 -102.5 22.45 -99.95 22.5 -97.55 23.95 -95.75 24.8 -94.85 25.7 -94.4 L23.3 -90.7 22.95 -91.25 21.4 -92.4 Q20.3 -93.1 19.85 -92.85 18.9 -93.0 18.3 -92.4 17.3 -92.0 16.9 -91.25 16.15 -90.55 15.95 -89.5 15.55 -88.6 15.75 -87.35 L16.0 -79.45 5.95 -63.8 M68.1 -192.0 L88.7 -192.0 68.45 -160.7 Q66.25 -180.2 68.05 -191.7 L68.1 -192.0 M12.05 -99.9 L12.05 -99.25 Q11.9 -98.5 12.5 -97.4 L13.4 -95.65 15.0 -94.3 Q15.6 -93.95 16.95 -93.85 L18.85 -94.3 Q19.45 -94.6 20.4 -95.55 L21.25 -97.25 21.55 -99.3 21.5 -99.9 21.15 -102.2 20.05 -104.2 18.8 -105.3 17.25 -105.9 16.85 -105.9 15.0 -105.5 Q13.95 -105.1 13.5 -104.15 12.65 -103.25 12.35 -102.15 12.0 -100.9 12.05 -99.9" fill="#ed6767" fill-rule="evenodd" stroke="none"/>
    <path d="M60.35 -192.0 L68.1 -192.0 68.05 -191.7 Q66.25 -180.2 68.45 -160.7 L60.55 -148.5 Q57.9 -173.1 60.35 -192.0" fill="#56e0cc" fill-rule="evenodd" stroke="none"/>
    <path d="M47.15 -177.15 L36.25 -161.2 34.55 -161.0 33.9 -161.05 33.9 -170.75 34.35 -170.55 35.5 -170.4 Q37.15 -170.6 38.4 -171.45 39.45 -172.55 39.7 -173.7 L39.75 -174.1 39.6 -174.4 Q39.6 -175.35 39.0 -176.1 38.3 -176.7 37.1 -176.95 L36.25 -176.95 35.15 -176.8 34.2 -176.5 33.9 -176.25 33.9 -185.5 36.95 -185.95 37.4 -185.95 Q39.9 -186.2 42.6 -184.45 45.05 -182.95 46.4 -180.05 L47.15 -177.15 M44.4 -123.4 Q44.7 -117.25 45.5 -111.15 45.55 -109.65 44.85 -108.6 44.0 -107.6 42.75 -107.65 L41.85 -107.7 40.9 -108.05 Q40.55 -108.1 40.4 -108.35 40.3 -108.55 40.0 -108.6 L36.65 -111.35 44.4 -123.4 M33.9 -105.6 L41.75 -105.6 Q43.9 -105.65 45.6 -103.95 47.15 -102.4 47.7 -99.9 L47.75 -99.9 Q48.15 -97.4 47.1 -95.75 45.75 -94.05 43.65 -94.0 L33.9 -94.05 33.9 -105.6 M33.9 -90.75 L35.25 -89.8 Q36.8 -88.3 37.3 -86.0 L38.35 -78.85 46.45 -78.85 47.4 -78.8 39.95 -65.95 33.9 -65.95 33.9 -90.75" fill="#a4eee3" fill-rule="evenodd" stroke="none"/>
    <path d="M58.3 -192.0 L60.35 -192.0 Q57.9 -173.1 60.55 -148.5 L60.55 -148.45 Q62.4 -131.5 66.7 -111.85 L66.7 -111.8 59.65 -99.8 Q56.2 -121.5 55.2 -140.1 53.55 -169.95 58.3 -192.0 M31.95 -154.9 L33.9 -152.9 33.9 -140.8 30.1 -144.5 Q29.8 -142.1 29.85 -139.75 29.65 -138.05 28.45 -136.6 27.25 -135.3 25.85 -135.2 24.3 -135.25 23.35 -136.5 22.3 -137.8 22.45 -139.7 L22.5 -141.1 Q22.8 -148.6 23.6 -155.95 L23.65 -156.7 Q23.95 -157.9 24.8 -158.55 25.7 -159.4 26.55 -159.3 L27.1 -159.2 27.7 -159.0 28.4 -158.45 31.95 -154.9 M33.9 -161.05 Q29.5 -161.45 27.0 -164.65 24.3 -168.45 24.95 -173.7 25.35 -176.25 26.15 -178.25 26.95 -180.4 28.55 -182.0 30.2 -184.05 32.45 -184.95 L33.9 -185.5 33.9 -176.25 32.8 -175.3 Q32.3 -174.7 32.3 -173.7 32.1 -173.05 32.5 -172.2 32.6 -171.75 33.5 -170.95 L33.9 -170.75 33.9 -161.05 M33.9 -113.7 L29.55 -117.8 29.8 -112.55 Q29.85 -110.65 28.7 -109.2 27.65 -107.75 26.2 -107.7 24.4 -107.8 23.35 -109.1 22.2 -110.7 22.2 -112.55 21.85 -121.7 22.25 -130.7 22.25 -132.25 23.2 -132.85 24.0 -133.75 25.0 -133.65 L25.6 -133.55 26.2 -133.3 26.85 -132.7 33.9 -125.7 33.9 -113.7 M12.05 -99.9 Q12.0 -100.9 12.35 -102.15 12.65 -103.25 13.5 -104.15 13.95 -105.1 15.0 -105.5 L16.85 -105.9 17.25 -105.9 18.8 -105.3 20.05 -104.2 21.15 -102.2 21.5 -99.9 21.55 -99.3 21.25 -97.25 20.4 -95.55 Q19.45 -94.6 18.85 -94.3 L16.95 -93.85 Q15.6 -93.95 15.0 -94.3 L13.4 -95.65 12.5 -97.4 Q11.9 -98.5 12.05 -99.25 L12.05 -99.9 M25.7 -94.4 Q24.8 -94.85 23.95 -95.75 22.5 -97.55 22.45 -99.95 22.25 -102.5 23.65 -103.9 24.75 -105.65 26.6 -105.6 L32.9 -105.6 33.9 -105.6 33.9 -94.05 27.45 -94.05 Q26.5 -94.05 25.7 -94.4 M23.3 -90.7 L23.9 -89.5 24.45 -87.35 25.15 -78.85 28.4 -78.85 27.65 -86.1 Q27.45 -88.5 28.6 -89.75 29.6 -91.45 31.55 -91.35 L31.7 -91.35 Q32.75 -91.4 33.9 -90.75 L33.9 -65.95 22.45 -65.95 Q19.9 -66.05 18.25 -67.95 16.45 -69.8 16.4 -72.5 L16.0 -79.45 15.75 -87.35 Q15.55 -88.6 15.95 -89.5 16.15 -90.55 16.9 -91.25 17.3 -92.0 18.3 -92.4 18.9 -93.0 19.85 -92.85 20.3 -93.1 21.4 -92.4 L22.95 -91.25 23.3 -90.7" fill="#ffffff" fill-rule="evenodd" stroke="none"/>
    <path d="M47.15 -177.15 Q47.4 -175.6 47.2 -173.7 L47.25 -173.7 Q46.75 -168.5 43.1 -164.75 L42.8 -164.45 42.65 -164.3 42.5 -164.15 37.95 -161.6 36.25 -161.15 36.25 -161.2 47.15 -177.15 M33.9 -152.9 L36.7 -150.25 Q36.85 -153.35 37.15 -156.1 37.2 -157.9 38.6 -159.1 39.9 -160.65 41.6 -160.4 43.4 -160.55 44.35 -159.15 45.4 -158.05 45.3 -156.15 44.65 -147.35 44.35 -138.4 44.15 -137.0 43.3 -136.0 42.25 -135.25 41.15 -135.1 L40.3 -135.2 39.45 -135.5 39.1 -135.75 38.85 -136.05 33.9 -140.8 33.9 -152.9 M33.9 -113.7 L33.9 -125.7 35.9 -123.9 35.85 -130.25 Q35.9 -132.05 37.15 -133.45 38.5 -134.85 40.2 -134.85 41.95 -134.95 43.1 -133.5 44.2 -132.2 44.25 -130.35 44.25 -126.85 44.4 -123.4 L36.65 -111.35 33.9 -113.7" fill="#caf4ee" fill-rule="evenodd" stroke="none"/>
    <path d="M59.25 -6.0 L41.5 -6.0 Q47.1 -12.35 51.25 -19.75 L67.85 -19.75 Q64.35 -12.35 59.25 -6.0 M59.65 -99.75 L59.65 -99.8 66.7 -111.8 70.2 -97.1 70.35 -96.4 Q75.7 -75.1 75.65 -57.25 L62.25 -57.25 Q63.8 -75.1 60.2 -96.4 L59.65 -99.75" fill="#efefef" fill-rule="evenodd" stroke="none"/>
    <path d="M47.4 -78.8 Q49.4 -78.55 51.1 -77.0 53.0 -75.25 53.55 -72.5 L53.65 -72.5 Q54.05 -69.8 52.8 -67.9 51.35 -66.0 48.8 -65.95 L39.95 -65.95 47.4 -78.8" fill="#7ee7d7" fill-rule="evenodd" stroke="none"/>
    <path d="M77.6 -51.25 L77.6 -25.75 41.4 -25.75 41.4 -51.25 77.6 -51.25 M113.1 -51.25 L113.1 -39.75 94.25 -39.75 94.25 -51.25 113.1 -51.25" fill="#000000" fill-rule="evenodd" stroke="none"/>
    <path d="M113.1 -87.25 L94.25 -87.25 94.25 -96.25 113.1 -96.25 113.1 -87.25" fill="#7ed50b" fill-rule="evenodd" stroke="none"/>
    <path d="M113.1 -77.25 L94.25 -77.25 94.25 -86.25 113.1 -86.25 113.1 -77.25" fill="#9b682f" fill-rule="evenodd" stroke="none"/>
    <path d="M94.25 -57.25 L94.25 -66.25 113.1 -66.25 113.1 -57.25 94.25 -57.25" fill="#fdb74d" fill-rule="evenodd" stroke="none"/>
    <path d="M94.25 -67.25 L94.25 -76.25 113.1 -76.25 113.1 -67.25 94.25 -67.25" fill="#be89e1" fill-rule="evenodd" stroke="none"/>
    <path d="M95.9 -33.75 L113.1 -33.75 113.1 -6.0 72.8 -6.0 95.9 -33.75" fill="#20ae99" fill-rule="evenodd" stroke="none"/>
    <path d="M119.05 -4.5 L119.05 -197.5 126.0 -225.45 126.0 -32.5 119.05 -4.5" fill="#232323" fill-rule="evenodd" stroke="none"/>
  </g>
</svg>
