<?xml version="1.0" encoding="UTF-8" standalone="no"?>
<svg xmlns:ffdec="https://www.free-decompiler.com/flash" xmlns:xlink="http://www.w3.org/1999/xlink" ffdec:objectType="shape" height="44.5px" width="16.85px" xmlns="http://www.w3.org/2000/svg">
  <g transform="matrix(1.0, 0.0, 0.0, 1.0, 0.0, 0.0)">
    <path d="M13.65 3.3 L12.9 2.85 12.65 2.75 10.9 1.95 10.0 1.5 8.65 1.05 7.65 1.0 7.1 1.1 6.95 1.1 6.1 1.1 2.65 1.0 2.1 1.1 Q1.0 1.4 1.0 2.65 L1.0 41.85 Q1.0 42.95 2.0 43.35 L6.05 43.35 6.95 43.35 7.1 43.4 7.65 43.5 8.65 43.45 10.0 43.0 10.9 42.6 12.65 41.8 12.9 41.65 13.65 41.2 15.05 39.8 Q15.85 38.75 15.85 37.75 L15.85 6.75 Q15.85 5.7 15.05 4.6 L13.65 3.3 M10.4 0.6 L13.3 1.95 13.65 2.15 Q14.9 2.8 15.85 4.0 16.85 5.4 16.85 6.75 L16.85 37.75 Q16.85 39.05 15.85 40.4 14.95 41.65 13.65 42.4 L13.35 42.55 13.3 42.55 10.4 43.9 Q9.45 44.35 8.65 44.45 L7.65 44.5 6.9 44.35 1.9 44.35 1.75 44.35 Q0.0 43.7 0.0 41.85 L0.0 2.65 Q0.0 0.7 1.8 0.15 L1.85 0.15 2.65 0.0 6.9 0.1 7.65 0.0 8.65 0.05 Q9.45 0.2 10.4 0.6" fill="#000000" fill-rule="evenodd" stroke="none"/>
    <path d="M12.65 2.75 L12.9 2.85 13.65 3.3 13.65 41.2 12.9 41.65 12.65 41.8 12.65 2.75 M10.9 42.6 L10.0 43.0 8.65 43.45 8.65 1.05 10.0 1.5 10.9 1.95 10.9 42.6 M7.65 43.5 L7.1 43.4 6.95 43.35 6.05 43.35 5.9 43.15 Q5.5 42.65 5.5 41.85 L5.5 2.65 Q5.5 1.85 5.85 1.35 L6.1 1.1 6.95 1.1 7.1 1.1 7.65 1.0 7.65 43.5" fill="#999999" fill-rule="evenodd" stroke="none"/>
    <path d="M13.65 3.3 L15.05 4.6 Q15.85 5.7 15.85 6.75 L15.85 37.75 Q15.85 38.75 15.05 39.8 L13.65 41.2 13.65 3.3 M12.65 41.8 L10.9 42.6 10.9 1.95 12.65 2.75 12.65 41.8 M8.65 43.45 L7.65 43.5 7.65 1.0 8.65 1.05 8.65 43.45" fill="#808080" fill-rule="evenodd" stroke="none"/>
    <path d="M6.05 43.35 L2.0 43.35 Q1.0 42.95 1.0 41.85 L1.0 2.65 Q1.0 1.4 2.1 1.1 L2.65 1.0 6.1 1.1 5.85 1.35 Q5.5 1.85 5.5 2.65 L5.5 41.85 Q5.5 42.65 5.9 43.15 L6.05 43.35" fill="#cdcdcd" fill-rule="evenodd" stroke="none"/>
  </g>
</svg>
