<?xml version="1.0" encoding="UTF-8" standalone="no"?>
<svg xmlns:ffdec="https://www.free-decompiler.com/flash" xmlns:xlink="http://www.w3.org/1999/xlink" ffdec:objectType="shape" height="17.0px" width="118.15px" xmlns="http://www.w3.org/2000/svg">
  <g transform="matrix(1.0, 0.0, 0.0, 1.0, 0.0, 0.0)">
    <path d="M117.05 10.5 L117.1 10.5 Q118.15 11.65 118.15 13.2 118.15 14.75 117.1 15.9 L117.05 15.95 Q115.9 17.0 114.35 17.0 L114.15 17.0 7.25 14.5 7.0 14.5 Q4.15 14.4 2.1 12.35 0.0 10.25 0.0 7.25 0.0 4.25 2.1 2.1 4.15 0.1 7.0 0.0 L7.05 0.0 7.25 0.0 8.85 0.15 8.9 0.15 114.35 9.4 114.4 9.4 Q115.95 9.45 117.05 10.5 M9.7 13.55 L114.15 16.0 114.35 16.0 Q115.5 16.0 116.35 15.2 117.15 14.35 117.15 13.2 117.15 12.05 116.35 11.2 L116.35 11.25 Q115.5 10.4 114.35 10.4 L114.3 10.4 10.5 1.3 8.75 1.15 8.65 1.15 7.05 1.0 6.95 1.0 Q4.55 1.1 2.8 2.8 1.0 4.65 1.0 7.25 1.0 9.85 2.8 11.65 4.55 13.4 7.05 13.5 L7.25 13.5 9.7 13.55" fill="#000000" fill-rule="evenodd" stroke="none"/>
    <path d="M10.5 1.3 L114.3 10.4 114.35 10.4 Q115.5 10.4 116.35 11.25 L116.35 11.2 Q117.15 12.05 117.15 13.2 117.15 14.35 116.35 15.2 115.5 16.0 114.35 16.0 L114.15 16.0 9.7 13.55 Q10.95 13.05 12.0 12.0 14.0 10.05 14.0 7.25 14.0 4.45 12.0 2.45 L10.5 1.3" fill="#999999" fill-rule="evenodd" stroke="none"/>
    <path d="M9.7 13.55 L7.25 13.5 7.05 13.5 Q4.55 13.4 2.8 11.65 1.0 9.85 1.0 7.25 1.0 4.65 2.8 2.8 4.55 1.1 6.95 1.0 L7.05 1.0 8.65 1.15 8.75 1.15 10.5 1.3 12.0 2.45 Q14.0 4.45 14.0 7.25 14.0 10.05 12.0 12.0 10.95 13.05 9.7 13.55" fill="#cdcdcd" fill-rule="evenodd" stroke="none"/>
  </g>
</svg>
