<?xml version="1.0" encoding="UTF-8" standalone="no"?>
<svg xmlns:ffdec="https://www.free-decompiler.com/flash" xmlns:xlink="http://www.w3.org/1999/xlink" ffdec:objectType="shape" height="31.05px" width="44.6px" xmlns="http://www.w3.org/2000/svg">
  <g transform="matrix(1.0, 0.0, 0.0, 1.0, 15.5, 19.75)">
    <path d="M12.05 -16.05 L12.0 -16.3 11.9 -16.8 11.9 -17.15 11.8 -19.2 Q11.8 -19.85 12.1 -19.75 L12.15 -19.75 20.8 -18.7 Q27.4 -17.35 27.3 -15.2 L27.3 -15.1 Q29.65 -11.85 27.75 -2.9 L29.1 4.05 29.1 4.15 29.1 4.55 Q29.2 7.5 22.4 9.45 16.0 11.3 6.95 11.3 L-2.7 10.65 -8.5 9.45 Q-14.6 7.65 -15.1 5.2 L-15.2 4.65 -15.2 4.6 -13.7 -4.9 Q-16.3 -12.65 -15.15 -14.95 L-15.2 -15.15 -15.2 -15.2 Q-15.25 -17.35 -8.75 -18.7 L-2.7 -19.55 0.1 -19.75 0.2 -19.75 0.45 -18.7 0.5 -18.6 Q1.05 -14.6 2.0 -14.6 L2.2 -14.6 6.55 -14.2 10.05 -14.4 10.1 -14.4 Q11.35 -14.4 11.85 -14.8 13.2 -15.15 13.3 -15.45 13.2 -15.75 12.05 -16.05 M13.75 -16.4 Q14.35 -15.95 14.3 -15.45 14.45 -14.4 11.8 -13.75 L10.65 -13.5 10.5 -13.45 10.45 -13.45 6.55 -13.2 1.75 -13.65 1.5 -13.75 Q-1.35 -14.4 -1.35 -15.35 -1.35 -15.85 -0.75 -16.4 L0.2 -17.05 0.25 -16.85 0.15 -17.3 0.15 -17.25 Q0.2 -17.05 0.4 -17.0 L0.45 -17.2 Q0.45 -18.6 -0.25 -18.8 L-0.25 -18.7 -2.7 -18.55 -8.55 -17.7 Q-11.5 -17.1 -12.9 -16.4 -14.15 -15.8 -14.2 -15.15 L-14.15 -15.05 -13.7 -14.25 Q-13.45 -13.8 -11.2 -13.15 L-7.4 -12.15 -6.2 -11.9 -2.7 -11.35 6.55 -11.1 15.85 -11.9 20.6 -12.7 22.45 -13.1 Q25.85 -14.0 26.3 -15.0 L26.3 -15.2 Q26.25 -15.8 25.05 -16.4 23.65 -17.1 20.6 -17.7 L12.25 -18.75 11.9 -17.15 13.75 -16.4 M1.25 -14.25 L0.35 -16.35 Q-0.7 -15.95 -0.7 -15.45 -0.7 -14.75 1.25 -14.25 M-5.05 -11.1 L-8.4 -11.6 -8.75 -11.7 -8.8 -11.7 -8.85 -11.7 Q-13.1 -12.6 -14.45 -13.8 -14.8 -11.65 -13.15 -6.5 L-13.2 -6.5 -13.05 -6.15 -13.0 -6.0 -12.7 -5.1 -12.7 -4.85 -14.05 3.8 -14.05 4.8 Q-13.95 5.7 -7.95 8.05 -5.55 9.0 -2.7 9.55 L6.95 10.35 12.5 10.15 Q28.9 7.0 27.65 2.05 L26.7 -2.8 Q25.35 -1.55 26.9 -5.6 28.45 -9.7 26.8 -14.0 25.7 -12.85 22.2 -12.0 L22.15 -12.0 21.8 -11.9 20.8 -11.7 Q14.7 -10.45 6.05 -10.45 L-2.7 -10.8 -5.05 -11.1 M-0.1 -18.1 L-0.15 -18.3 -0.05 -18.3 -0.1 -18.1" fill="#543925" fill-rule="evenodd" stroke="none"/>
    <path d="M-0.75 -16.4 Q-1.35 -15.85 -1.35 -15.35 -1.35 -14.4 1.5 -13.75 L1.75 -13.65 6.55 -13.2 10.45 -13.45 10.5 -13.45 10.65 -13.5 11.8 -13.75 Q14.45 -14.4 14.3 -15.45 14.35 -15.95 13.75 -16.4 L25.05 -16.4 Q26.25 -15.8 26.3 -15.2 L26.3 -15.0 Q25.85 -14.0 22.45 -13.1 L-11.2 -13.15 Q-13.45 -13.8 -13.7 -14.25 L-14.15 -15.05 -14.2 -15.15 Q-14.15 -15.8 -12.9 -16.4 L-0.75 -16.4 M5.05 -8.4 L0.3 -8.4 -2.65 -8.65 -2.7 -8.65 -4.4 -8.9 -6.05 -9.2 -6.65 -9.3 Q-7.2 -9.3 -7.3 -8.55 L-7.3 -7.6 Q-7.3 -6.5 -7.1 -6.3 -6.75 -5.9 -4.95 -5.4 L-2.7 -4.9 -1.2 -4.65 3.5 -3.85 14.85 -3.8 18.8 -4.5 Q19.85 -4.8 20.6 -5.55 L21.8 -7.15 Q22.55 -8.35 22.55 -8.9 22.55 -9.8 21.15 -9.95 L17.8 -10.2 Q16.9 -10.2 16.65 -9.75 L10.1 -9.0 5.05 -8.4 M21.8 -11.9 L23.15 -11.15 Q24.0 -10.35 24.0 -8.2 24.0 -5.8 22.75 -4.05 21.4 -2.15 17.75 0.0 L18.5 0.1 20.6 0.05 23.55 -0.45 Q24.3 -0.6 24.8 -1.0 L24.8 -0.55 Q24.25 2.65 22.7 3.95 L20.0 6.05 Q18.2 7.05 14.45 7.65 L13.25 7.85 10.25 7.9 10.1 7.85 8.6 7.85 2.85 7.35 2.0 7.2 1.2 7.15 -1.65 6.8 -2.7 6.6 Q-5.5 5.9 -8.1 4.25 -11.15 2.25 -11.15 0.65 -11.15 -0.65 -10.65 -1.35 -9.9 -2.45 -7.65 -3.0 L-6.4 -3.2 Q-6.0 -3.2 -6.0 -3.4 L-6.05 -3.5 Q-7.85 -3.95 -9.5 -4.65 L-9.2 -4.5 -9.2 -4.65 -9.95 -5.8 Q-10.7 -6.9 -10.7 -8.05 -10.7 -9.05 -10.05 -9.85 -9.1 -11.0 -7.15 -11.0 L-5.55 -10.8 Q-5.15 -10.8 -5.05 -11.1 L-2.7 -10.8 6.05 -10.45 Q14.7 -10.45 20.8 -11.7 L21.8 -11.9 M22.3 2.05 L21.85 1.55 19.4 1.55 18.7 1.4 -1.25 -0.4 -2.7 -0.55 -4.9 -0.95 -8.4 -1.3 -9.05 0.05 -9.2 1.05 Q-9.2 2.65 -5.45 3.8 L-2.7 4.45 3.35 5.45 15.6 5.45 19.5 4.2 Q22.3 3.05 22.3 2.05" fill="#c4a577" fill-rule="evenodd" stroke="none"/>
    <path d="M11.85 -14.8 L12.15 -15.5 12.05 -16.05 Q13.2 -15.75 13.3 -15.45 13.2 -15.15 11.85 -14.8 M13.75 -16.4 L11.9 -17.15 12.25 -18.75 20.6 -17.7 Q23.65 -17.1 25.05 -16.4 L13.75 -16.4 M-12.9 -16.4 Q-11.5 -17.1 -8.55 -17.7 L-2.7 -18.55 -0.25 -18.7 -0.25 -18.8 Q0.45 -18.6 0.45 -17.2 L0.4 -17.0 Q0.2 -17.05 0.15 -17.25 L0.15 -17.3 0.25 -16.85 0.2 -17.05 -0.75 -16.4 -12.9 -16.4 M1.25 -14.25 Q-0.7 -14.75 -0.7 -15.45 -0.7 -15.95 0.35 -16.35 L1.25 -14.25 M-5.05 -11.1 Q-5.15 -10.8 -5.55 -10.8 L-7.15 -11.0 Q-9.1 -11.0 -10.05 -9.85 -10.7 -9.05 -10.7 -8.05 -10.7 -6.9 -9.95 -5.8 L-9.2 -4.65 -9.2 -4.5 -9.5 -4.65 Q-7.85 -3.95 -6.05 -3.5 L-6.0 -3.4 Q-6.0 -3.2 -6.4 -3.2 L-7.65 -3.0 Q-9.9 -2.45 -10.65 -1.35 -11.15 -0.65 -11.15 0.65 -11.15 2.25 -8.1 4.25 -5.5 5.9 -2.7 6.6 L-1.65 6.8 1.2 7.15 2.0 7.2 2.85 7.35 8.6 7.85 10.1 7.85 10.25 7.9 13.25 7.85 14.45 7.65 Q18.2 7.05 20.0 6.05 L22.7 3.95 Q24.25 2.65 24.8 -0.55 L24.8 -1.0 Q24.3 -0.6 23.55 -0.45 L20.6 0.05 18.5 0.1 17.75 0.0 Q21.4 -2.15 22.75 -4.05 24.0 -5.8 24.0 -8.2 24.0 -10.35 23.15 -11.15 L21.8 -11.9 22.15 -12.0 22.2 -12.0 Q25.7 -12.85 26.8 -14.0 28.45 -9.7 26.9 -5.6 25.35 -1.55 26.7 -2.8 L27.65 2.05 Q28.9 7.0 12.5 10.15 L6.95 10.35 -2.7 9.55 Q-5.55 9.0 -7.95 8.05 -13.95 5.7 -14.05 4.8 L-14.05 3.8 -12.7 -4.85 -12.7 -5.1 -13.0 -6.0 -13.05 -6.15 -13.2 -6.5 -13.15 -6.5 Q-14.8 -11.65 -14.45 -13.8 -13.1 -12.6 -8.85 -11.7 L-8.8 -11.7 -8.75 -11.7 -8.4 -11.6 -5.05 -11.1 M-0.1 -18.1 L-0.05 -18.3 -0.15 -18.3 -0.1 -18.1" fill="#ad864b" fill-rule="evenodd" stroke="none"/>
    <path d="M22.45 -13.1 L20.6 -12.7 15.85 -11.9 6.55 -11.1 -2.7 -11.35 -6.2 -11.9 -7.4 -12.15 -11.2 -13.15 22.45 -13.1 M5.05 -8.4 L10.1 -9.0 16.65 -9.75 Q16.9 -10.2 17.8 -10.2 L21.15 -9.95 Q22.55 -9.8 22.55 -8.9 22.55 -8.35 21.8 -7.15 L20.6 -5.55 Q19.85 -4.8 18.8 -4.5 L14.85 -3.8 3.5 -3.85 -1.2 -4.65 -2.7 -4.9 -4.95 -5.4 Q-6.75 -5.9 -7.1 -6.3 -7.3 -6.5 -7.3 -7.6 L-7.3 -8.55 Q-7.2 -9.3 -6.65 -9.3 L-6.05 -9.2 -4.4 -8.9 -2.7 -8.65 -2.65 -8.65 0.3 -8.4 5.05 -8.4 M22.3 2.05 Q22.3 3.05 19.5 4.2 L15.6 5.45 3.35 5.45 -2.7 4.45 -5.45 3.8 Q-9.2 2.65 -9.2 1.05 L-9.05 0.05 -8.4 -1.3 -4.9 -0.95 -2.7 -0.55 -1.25 -0.4 18.7 1.4 19.4 1.55 21.85 1.55 22.3 2.05" fill="#d2bb97" fill-rule="evenodd" stroke="none"/>
    <path d="M8.55 1.45 L8.55 1.35 8.55 -0.95 8.2 -5.15 7.95 -6.9 7.35 -10.15 7.35 -10.45 8.4 -10.45 9.0 -7.1 9.2 -5.25 9.35 -2.3 16.0 -2.95 15.95 -1.75 9.45 -0.95 9.55 1.15 9.45 3.05 9.3 4.75 9.15 6.55 8.4 10.35 7.4 10.35 8.1 6.55 8.1 6.4 8.3 6.35 8.35 5.05 8.3 5.05 8.35 4.85 8.45 3.1 8.45 3.0 8.5 2.5 8.55 1.45 M21.75 -3.85 L26.6 -4.75 26.2 -3.45 21.75 -2.65 21.75 -3.85 M-0.4 -1.75 L8.45 -2.0 8.55 -0.95 -0.4 -0.55 -0.4 -1.75 M20.25 -3.65 L20.3 -2.45 17.55 -1.9 17.55 -3.2 20.25 -3.65 M-7.0 -1.4 L-13.1 -2.3 -12.9 -3.45 -7.0 -2.55 -7.0 -1.4 M-5.3 -1.2 L-5.25 -2.35 -2.2 -2.0 -2.15 -0.7 -5.3 -1.2" fill="#de3d3d" fill-rule="evenodd" stroke="none"/>
    <path d="M8.55 1.45 L8.5 2.5 8.45 3.0 -0.35 3.4 -0.1 5.1 Q2.85 5.45 8.3 5.05 L8.35 5.05 8.3 6.35 8.1 6.4 0.2 6.85 0.85 10.1 -0.85 9.85 -1.5 6.75 -4.65 6.35 -4.05 9.25 -5.75 8.8 -6.4 6.1 -13.9 5.05 -14.05 4.8 -14.05 3.8 -13.95 3.3 -6.55 4.35 -6.8 2.7 -13.7 1.65 -13.45 -0.05 -7.05 0.85 -7.0 -1.4 -7.0 -2.55 -6.8 -6.0 -13.4 -7.3 -13.95 -9.3 -13.95 -9.4 -6.55 -7.85 -5.8 -11.2 -5.05 -11.1 -3.9 -10.95 -4.8 -7.6 -1.55 -7.1 Q-1.3 -8.95 -0.65 -10.65 L1.25 -10.55 1.25 -10.5 0.15 -6.75 Q3.0 -6.3 7.95 -6.6 L8.2 -5.15 -0.05 -4.9 -0.4 -1.75 -0.4 -0.55 -0.35 1.7 8.55 1.45 M9.15 6.55 L9.3 4.75 15.6 3.95 Q15.65 3.1 15.85 2.2 L9.45 3.05 9.55 1.15 15.9 0.55 15.95 -1.75 16.0 -2.95 15.8 -6.1 9.2 -5.25 9.0 -7.1 15.6 -8.1 15.0 -10.85 16.7 -11.0 17.2 -8.35 19.95 -8.9 19.45 -11.45 20.8 -11.7 21.1 -11.75 21.5 -9.2 27.6 -10.65 27.6 -8.65 21.65 -7.3 21.75 -3.85 21.75 -2.65 21.7 -0.4 27.0 -1.25 27.35 0.45 21.45 1.5 21.25 3.1 27.65 2.05 Q27.9 2.95 27.5 3.85 L21.0 4.9 20.25 8.25 18.75 8.7 19.5 5.15 16.8 5.55 16.0 9.4 14.5 9.75 15.3 5.7 9.15 6.55 M20.25 -3.65 L20.1 -7.0 17.35 -6.4 17.55 -3.2 17.55 -1.9 17.45 0.3 20.2 -0.1 20.3 -2.45 20.25 -3.65 M17.1 3.8 L19.8 3.3 20.05 1.65 17.3 2.05 17.1 3.8 M-5.25 -2.35 L-5.3 -1.2 -5.2 1.1 -2.15 1.45 -2.15 -0.7 -2.2 -2.0 -1.85 -5.2 -5.0 -5.75 -5.25 -2.35 M-2.05 3.2 L-5.15 2.85 -4.9 4.55 -1.9 4.95 -2.05 3.2" fill="#4d4538" fill-rule="evenodd" stroke="none"/>
  </g>
</svg>
