<?xml version="1.0" encoding="UTF-8" standalone="no"?>
<svg xmlns:ffdec="https://www.free-decompiler.com/flash" xmlns:xlink="http://www.w3.org/1999/xlink" ffdec:objectType="shape" height="111.35px" width="58.2px" xmlns="http://www.w3.org/2000/svg">
  <g transform="matrix(1.0, 0.0, 0.0, 1.0, 48.65, 32.4)">
    <path d="M-43.95 -2.9 Q-44.55 -3.05 -44.9 -3.5 L-45.25 -3.9 -41.1 -7.85 Q-38.5 -10.5 -37.65 -13.95 L-37.25 -16.75 Q-37.05 -19.3 -37.35 -21.75 L-37.35 -21.9 Q-36.5 -33.6 -27.6 -32.25 L-27.55 -32.25 -5.4 -32.25 Q-4.25 -26.85 -5.35 -21.75 -5.95 -19.0 -6.75 -16.75 -7.65 -14.2 -8.8 -12.35 L-8.5 -12.35 Q-7.45 -12.15 -6.8 -11.0 L-6.4 -9.7 Q-3.65 -7.25 -2.3 -3.5 -0.35 2.0 -2.2 7.9 -5.95 19.65 -2.6 29.4 0.7 39.15 9.55 36.85 9.75 38.8 7.4 40.8 4.35 43.15 -0.3 42.15 L-2.65 41.35 -6.05 39.25 Q-6.3 47.45 -0.65 54.25 4.05 59.9 9.55 61.45 6.1 64.3 3.55 65.05 1.05 65.75 -2.2 65.0 -3.3 64.75 -6.9 62.45 -11.05 59.8 -12.4 57.95 -15.6 69.25 -22.1 74.95 -27.9 79.95 -33.75 78.7 L-34.75 78.35 -35.0 78.1 -33.25 77.55 Q-27.65 76.35 -23.7 71.2 -20.65 67.3 -19.75 63.4 -19.2 60.6 -20.0 56.2 -20.85 52.05 -23.85 42.45 -26.65 57.15 -33.65 63.8 -39.3 69.25 -45.5 67.85 L-48.65 66.7 Q-39.55 62.1 -38.25 56.55 -36.95 51.0 -36.35 43.5 L-35.75 38.5 Q-34.35 31.8 -33.1 30.5 L-37.05 31.35 -39.5 31.35 Q-44.35 30.25 -46.8 25.45 -48.7 21.55 -48.0 18.0 -47.55 16.3 -47.15 15.9 L-47.0 17.0 Q-47.0 19.3 -45.65 21.2 -44.35 23.05 -42.15 23.55 -36.85 24.75 -30.3 19.4 -22.15 12.9 -19.4 0.05 -18.9 -1.6 -18.75 -3.2 -19.35 -5.75 -21.1 -7.0 L-23.2 -7.9 -25.3 -8.65 -25.75 -8.8 -26.2 -8.9 -27.1 -5.3 -27.15 -0.35 Q-26.95 5.15 -25.4 7.35 -25.6 7.9 -26.45 7.55 -30.25 6.75 -30.7 2.5 -30.9 -0.15 -29.55 -6.75 -28.0 -13.85 -27.95 -16.75 L-27.95 -16.8 Q-27.95 -22.15 -31.05 -24.65 -31.0 -20.3 -31.4 -16.75 -31.6 -14.95 -31.95 -13.35 -33.35 -6.9 -36.3 -1.0 -41.25 9.25 -47.0 7.0 -44.4 5.05 -41.95 1.15 -39.9 -2.2 -39.55 -4.05 L-40.5 -3.4 Q-43.0 -2.7 -43.95 -2.9 M-27.35 -16.75 L-27.4 -16.4 Q-27.6 -13.05 -29.45 -4.05 L-29.6 0.15 Q-29.55 2.15 -28.35 4.65 L-28.0 5.25 -27.1 5.95 -27.8 1.65 Q-28.2 -2.2 -27.95 -4.55 -27.9 -5.4 -26.85 -9.25 L-26.3 -11.7 -26.3 -11.6 -26.05 -12.3 -25.0 -16.0 -24.8 -16.75 Q-26.55 -25.45 -27.35 -16.75 M-10.5 -3.6 Q-12.0 -2.8 -13.7 -2.85 L-13.7 -2.35 Q-13.45 2.65 -13.75 3.7 -14.35 6.6 -19.4 15.3 -24.5 24.0 -25.0 26.1 -25.4 28.05 -24.85 33.4 -24.3 38.75 -22.05 44.9 -19.85 51.1 -18.95 55.7 -18.05 60.25 -19.4 66.25 -20.8 72.25 -29.6 77.6 -22.35 74.85 -19.3 70.75 -16.25 66.65 -15.0 63.1 -13.8 59.55 -13.4 57.5 -13.05 55.45 -15.35 45.4 -17.65 35.35 -15.85 26.95 -15.4 25.2 -11.05 17.3 -6.6 9.3 -5.5 4.45 -5.05 2.4 -5.0 -0.9 -5.0 -4.2 -5.45 -5.25 L-7.0 -7.2 Q-7.6 -6.05 -8.6 -5.0 L-8.7 -4.9 -10.5 -3.6 M-35.4 -16.75 L-35.5 -15.9 Q-35.75 -13.85 -37.95 -9.8 -40.15 -5.75 -42.55 -4.1 -39.9 -5.15 -38.25 -6.05 -37.8 -3.05 -44.75 6.55 -39.75 4.3 -37.7 -0.1 L-34.45 -7.6 -33.2 -14.0 -32.7 -16.75 Q-33.9 -26.6 -35.4 -16.75 M-16.8 -3.85 Q-16.75 -2.0 -17.1 -0.35 L-17.25 0.25 Q-18.75 6.1 -24.15 14.25 -32.9 27.2 -43.1 25.0 -43.7 24.85 -45.1 23.35 L-47.25 20.75 -47.0 22.6 Q-46.25 25.2 -43.35 27.55 -41.05 29.3 -40.0 29.5 L-35.75 29.9 -31.55 29.3 Q-33.2 31.25 -33.75 33.85 L-34.65 38.75 -35.1 45.6 Q-35.35 50.6 -36.15 54.45 -37.0 58.25 -38.95 61.1 -40.9 63.9 -45.8 66.55 -39.35 68.3 -33.85 62.85 -28.35 57.4 -26.1 47.3 -24.75 41.1 -26.2 35.15 -26.6 33.55 -26.65 30.65 L-26.5 27.7 Q-25.65 24.05 -23.5 20.2 L-21.2 16.7 -17.2 10.7 Q-15.9 8.55 -15.15 5.2 -14.35 1.7 -14.5 -1.1 L-14.55 -2.9 -15.15 -3.0 -15.25 -3.05 Q-16.05 -3.2 -16.8 -3.85 M-4.95 15.35 L-6.05 19.9 Q-8.7 31.85 -6.4 36.45 -4.85 39.75 0.7 40.95 2.9 41.5 5.25 40.15 L7.65 38.55 Q6.2 39.85 2.65 39.05 -1.0 38.25 -2.55 34.65 -4.7 29.4 -4.95 15.35 M-13.65 25.15 Q-15.0 28.35 -15.4 30.05 -15.6 31.2 -15.45 32.75 L-14.2 41.4 -12.25 52.85 -11.2 57.6 Q-9.8 60.25 -5.95 62.2 -3.45 63.5 -1.5 63.9 0.45 64.35 3.6 63.45 5.75 62.75 7.05 61.95 3.35 61.45 -0.25 56.95 -3.9 52.35 -6.15 45.35 -11.6 28.35 -5.55 10.1 -10.9 18.55 -13.65 25.15" fill="#6f5c4d" fill-rule="evenodd" stroke="none"/>
    <path d="M-27.35 -16.75 Q-26.55 -25.45 -24.8 -16.75 L-25.0 -16.0 -26.05 -12.3 -26.3 -11.6 -26.3 -11.7 -26.85 -9.25 Q-27.9 -5.4 -27.95 -4.55 -28.2 -2.2 -27.8 1.65 L-27.1 5.95 -28.0 5.25 -28.35 4.65 Q-29.55 2.15 -29.6 0.15 L-29.45 -4.05 Q-27.6 -13.05 -27.4 -16.4 L-27.35 -16.75 M-35.4 -16.75 Q-33.9 -26.6 -32.7 -16.75 L-33.2 -14.0 -34.45 -7.6 -37.7 -0.1 Q-39.75 4.3 -44.75 6.55 -37.8 -3.05 -38.25 -6.05 -39.9 -5.15 -42.55 -4.1 -40.15 -5.75 -37.95 -9.8 -35.75 -13.85 -35.5 -15.9 L-35.4 -16.75 M-8.7 -4.9 L-8.6 -5.0 Q-7.6 -6.05 -7.0 -7.2 L-5.45 -5.25 Q-5.0 -4.2 -5.0 -0.9 -5.05 2.4 -5.5 4.45 -6.6 9.3 -11.05 17.3 -15.4 25.2 -15.85 26.95 -17.65 35.35 -15.35 45.4 -13.05 55.45 -13.4 57.5 -13.8 59.55 -15.0 63.1 -16.25 66.65 -19.3 70.75 -22.35 74.85 -29.6 77.6 -20.8 72.25 -19.4 66.25 -18.05 60.25 -18.95 55.7 -19.85 51.1 -22.05 44.9 -24.3 38.75 -24.85 33.4 -25.4 28.05 -25.0 26.1 -24.5 24.0 -19.4 15.3 -14.35 6.6 -13.75 3.7 -13.45 2.65 -13.7 -2.35 L-13.7 -2.85 Q-12.0 -2.8 -10.5 -3.6 -10.8 -1.1 -10.4 3.1 -10.7 4.2 -14.85 11.65 -16.85 15.3 -19.85 21.45 L-22.8 28.0 Q-23.35 30.6 -22.75 34.3 -22.05 38.75 -19.7 39.8 L-19.25 29.4 Q-18.8 27.55 -17.0 23.85 -14.5 18.2 -10.15 11.65 -9.2 10.3 -8.35 7.75 L-7.5 4.7 Q-7.15 3.2 -7.45 0.3 -7.7 -2.8 -8.7 -4.9 M-16.8 -3.85 Q-16.05 -3.2 -15.25 -3.05 L-15.15 -3.0 -14.55 -2.9 -14.5 -1.1 Q-14.35 1.7 -15.15 5.2 -15.9 8.55 -17.2 10.7 L-21.2 16.7 -23.5 20.2 Q-25.65 24.05 -26.5 27.7 L-26.65 30.65 Q-26.6 33.55 -26.2 35.15 -24.75 41.1 -26.1 47.3 -28.35 57.4 -33.85 62.85 -39.35 68.3 -45.8 66.55 -40.9 63.9 -38.95 61.1 -37.0 58.25 -36.15 54.45 -35.35 50.6 -35.1 45.6 L-34.65 38.75 -33.75 33.85 Q-33.2 31.25 -31.55 29.3 L-35.75 29.9 -40.0 29.5 Q-41.05 29.3 -43.35 27.55 -46.25 25.2 -47.0 22.6 L-47.25 20.75 -45.1 23.35 Q-43.7 24.85 -43.1 25.0 -32.9 27.2 -24.15 14.25 -18.75 6.1 -17.25 0.25 L-17.1 -0.35 Q-16.75 -2.0 -16.8 -3.85 M-19.8 8.45 Q-22.55 14.0 -26.35 18.45 -28.8 21.45 -35.0 24.6 -38.0 26.2 -40.6 27.2 L-40.6 27.85 -39.7 27.9 Q-32.25 28.55 -27.2 23.55 -21.15 17.55 -17.25 2.45 -18.05 5.0 -19.8 8.45 M-4.95 15.35 Q-4.7 29.4 -2.55 34.65 -1.0 38.25 2.65 39.05 6.2 39.85 7.65 38.55 L5.25 40.15 Q2.9 41.5 0.7 40.95 -4.85 39.75 -6.4 36.45 -8.7 31.85 -6.05 19.9 L-4.95 15.35 M-28.2 40.1 Q-27.7 33.35 -27.75 31.25 -30.25 32.9 -31.35 38.0 L-34.65 55.25 Q-35.45 59.1 -38.1 63.05 -33.7 61.65 -31.3 56.35 -30.3 54.0 -28.95 47.95 -28.7 46.75 -28.2 40.1 M-4.75 35.1 Q-3.85 37.4 -2.2 38.25 -1.7 38.05 -1.6 37.65 L-5.15 31.1 Q-5.55 32.9 -4.75 35.1 M-13.65 25.15 Q-10.9 18.55 -5.55 10.1 -11.6 28.35 -6.15 45.35 -3.9 52.35 -0.25 56.95 3.35 61.45 7.05 61.95 5.75 62.75 3.6 63.45 0.45 64.35 -1.5 63.9 -3.45 63.5 -5.95 62.2 -9.8 60.25 -11.2 57.6 L-12.25 52.85 -14.2 41.4 -15.45 32.75 Q-15.6 31.2 -15.4 30.05 -15.0 28.35 -13.65 25.15 M-18.7 41.05 L-19.15 41.65 Q-18.15 47.45 -18.0 53.15 L-17.9 55.1 -17.9 56.25 -17.5 59.0 Q-17.05 61.3 -16.25 61.25 -15.2 58.45 -15.6 52.35 -15.95 45.25 -18.4 40.85 L-18.7 41.05 M-10.05 24.95 L-11.5 29.9 Q-13.9 40.85 -9.95 51.15 -5.7 61.95 2.4 62.7 -2.85 56.4 -6.3 49.3 -12.4 36.45 -10.05 24.95" fill="#b9a99b" fill-rule="evenodd" stroke="none"/>
    <path d="M-10.5 -3.6 L-8.7 -4.9 Q-7.7 -2.8 -7.45 0.3 -7.15 3.2 -7.5 4.7 L-8.35 7.75 Q-9.2 10.3 -10.15 11.65 -14.5 18.2 -17.0 23.85 -18.8 27.55 -19.25 29.4 L-19.7 39.8 Q-22.05 38.75 -22.75 34.3 -23.35 30.6 -22.8 28.0 L-19.85 21.45 Q-16.85 15.3 -14.85 11.65 -10.7 4.2 -10.4 3.1 -10.8 -1.1 -10.5 -3.6 M-19.8 8.45 Q-18.05 5.0 -17.25 2.45 -21.15 17.55 -27.2 23.55 -32.25 28.55 -39.7 27.9 L-40.6 27.85 -40.6 27.2 Q-38.0 26.2 -35.0 24.6 -28.8 21.45 -26.35 18.45 -22.55 14.0 -19.8 8.45 M-4.75 35.1 Q-5.55 32.9 -5.15 31.1 L-1.6 37.65 Q-1.7 38.05 -2.2 38.25 -3.85 37.4 -4.75 35.1 M-28.2 40.1 Q-28.7 46.75 -28.95 47.95 -30.3 54.0 -31.3 56.35 -33.7 61.65 -38.1 63.05 -35.45 59.1 -34.65 55.25 L-31.35 38.0 Q-30.25 32.9 -27.75 31.25 -27.7 33.35 -28.2 40.1 M-10.05 24.95 Q-12.4 36.45 -6.3 49.3 -2.85 56.4 2.4 62.7 -5.7 61.95 -9.95 51.15 -13.9 40.85 -11.5 29.9 L-10.05 24.95 M-18.7 41.05 L-18.4 40.85 Q-15.95 45.25 -15.6 52.35 -15.2 58.45 -16.25 61.25 -17.05 61.3 -17.5 59.0 L-17.9 56.25 -17.9 55.1 -18.0 53.15 Q-18.15 47.45 -19.15 41.65 L-18.7 41.05" fill="#ccc1b7" fill-rule="evenodd" stroke="none"/>
  </g>
</svg>
