<?xml version="1.0" encoding="UTF-8" standalone="no"?>
<svg xmlns:ffdec="https://www.free-decompiler.com/flash" xmlns:xlink="http://www.w3.org/1999/xlink" ffdec:objectType="shape" height="86.1px" width="86.1px" xmlns="http://www.w3.org/2000/svg">
  <g transform="matrix(1.0, 0.0, 0.0, 1.0, 35.0, 58.05)">
    <path d="M-30.65 -28.7 Q-27.45 -29.55 -23.4 -32.4 -20.0 -34.75 -18.7 -36.4 -16.75 -32.1 -9.95 -31.35 L4.05 -30.2 Q14.45 -28.45 20.9 -16.15 26.1 -6.25 26.1 2.85 26.1 8.75 22.65 14.15 17.7 21.9 6.8 25.95 -12.55 23.95 -23.35 11.35 -32.95 0.25 -32.95 -14.95 -32.95 -17.05 -31.9 -22.65 L-30.65 -28.7" fill="#926041" fill-rule="evenodd" stroke="none"/>
    <path d="M6.8 25.95 Q17.7 21.9 22.65 14.15 26.1 8.75 26.1 2.85 26.1 -6.25 20.9 -16.15 14.45 -28.45 4.05 -30.2 L-9.95 -31.35 Q-16.75 -32.1 -18.7 -36.4 -20.0 -34.75 -23.4 -32.4 -27.45 -29.55 -30.65 -28.7 -28.2 -34.65 -23.9 -40.15 -19.75 -45.5 -15.05 -48.95 L-2.95 -50.7 Q14.65 -50.7 26.35 -38.45 37.3 -26.95 37.3 -11.3 37.3 0.8 30.35 10.55 23.65 20.0 11.4 25.85 L6.8 25.95" fill="#83563a" fill-rule="evenodd" stroke="none"/>
    <path d="M11.4 25.85 Q23.65 20.0 30.35 10.55 37.3 0.8 37.3 -11.3 37.3 -26.95 26.35 -38.45 14.65 -50.7 -2.95 -50.7 L-15.05 -48.95 Q-11.1 -51.9 -4.85 -53.85 1.65 -55.9 7.95 -55.9 23.45 -55.9 35.45 -45.4 48.95 -33.6 48.95 -14.95 48.95 -6.55 46.35 -0.05 44.5 4.5 36.25 14.75 L27.85 21.05 Q23.05 24.15 11.4 25.85" fill="#754b33" fill-rule="evenodd" stroke="none"/>
    <path d="M-30.65 -28.7 L-31.9 -22.65 Q-32.95 -17.05 -32.95 -14.95 -32.95 0.25 -23.35 11.35 -12.55 23.95 6.8 25.95 L11.4 25.85 Q23.05 24.15 27.85 21.05 L36.25 14.75 Q44.5 4.5 46.35 -0.05 48.95 -6.55 48.95 -14.95 48.95 -33.6 35.45 -45.4 23.45 -55.9 7.95 -55.9 1.65 -55.9 -4.85 -53.85 -11.1 -51.9 -15.05 -48.95 -19.75 -45.5 -23.9 -40.15 -28.2 -34.65 -30.65 -28.7 M38.5 -45.45 Q51.1 -32.85 51.1 -15.0 51.1 2.85 38.5 15.45 25.9 28.05 8.05 28.05 -9.8 28.05 -22.4 15.45 -35.0 2.85 -35.0 -15.0 -35.0 -32.85 -22.4 -45.45 -9.8 -58.05 8.05 -58.05 25.9 -58.05 38.5 -45.45" fill="#322116" fill-rule="evenodd" stroke="none"/>
  </g>
</svg>
