<?xml version="1.0" encoding="UTF-8" standalone="no"?>
<svg xmlns:ffdec="https://www.free-decompiler.com/flash" xmlns:xlink="http://www.w3.org/1999/xlink" ffdec:objectType="shape" height="177.35px" width="103.0px" xmlns="http://www.w3.org/2000/svg">
  <g transform="matrix(1.0, 0.0, 0.0, 1.0, 0.0, 0.0)">
    <path d="M85.0 18.0 L85.0 35.5 60.5 35.5 60.5 18.0 85.0 18.0 M85.0 53.0 L85.0 96.0 60.5 96.0 60.5 53.0 85.0 53.0 M43.0 18.0 L43.0 35.5 18.0 35.5 18.0 18.0 43.0 18.0 M18.0 53.0 L43.0 53.0 43.0 96.0 18.0 96.0 18.0 53.0 M43.0 159.0 L18.0 159.0 18.0 113.5 43.0 113.5 43.0 159.0 M60.5 159.0 L60.5 113.5 85.0 113.5 85.0 159.0 60.5 159.0" fill="#9a5a21" fill-rule="evenodd" stroke="none"/>
    <path d="M85.0 18.0 L60.5 18.0 60.5 35.5 85.0 35.5 85.0 18.0 M85.0 53.0 L60.5 53.0 60.5 96.0 85.0 96.0 85.0 53.0 M90.5 96.25 Q86.75 96.25 84.1 98.85 81.5 101.5 81.5 105.25 81.5 109.0 84.1 111.6 86.75 114.25 90.5 114.25 94.25 114.25 96.85 111.6 99.5 109.0 99.5 105.25 99.5 101.5 96.85 98.85 94.25 96.25 90.5 96.25 M43.0 18.0 L18.0 18.0 18.0 35.5 43.0 35.5 43.0 18.0 M18.0 53.0 L18.0 96.0 43.0 96.0 43.0 53.0 18.0 53.0 M60.5 159.0 L85.0 159.0 85.0 113.5 60.5 113.5 60.5 159.0 M43.0 159.0 L43.0 113.5 18.0 113.5 18.0 159.0 43.0 159.0 M102.0 176.0 L1.0 176.0 1.0 1.0 102.0 1.0 102.0 176.0" fill="#8a511e" fill-rule="evenodd" stroke="none"/>
    <path d="M102.5 0.0 L102.85 0.15 103.0 0.5 103.0 176.5 102.85 176.85 102.85 176.95 102.85 177.25 102.8 177.35 102.1 177.35 102.1 177.25 102.05 177.0 0.5 177.0 0.15 176.85 0.0 176.5 0.0 0.5 0.15 0.15 Q0.3 0.0 0.5 0.0 L102.5 0.0 M102.0 176.0 L102.0 1.0 1.0 1.0 1.0 176.0 102.0 176.0" fill="#3c230d" fill-rule="evenodd" stroke="none"/>
    <path d="M90.5 96.25 Q94.25 96.25 96.85 98.85 99.5 101.5 99.5 105.25 99.5 109.0 96.85 111.6 94.25 114.25 90.5 114.25 86.75 114.25 84.1 111.6 81.5 109.0 81.5 105.25 81.5 101.5 84.1 98.85 86.75 96.25 90.5 96.25 M84.0 100.55 L83.95 100.55 Q82.5 102.6 82.5 105.25 82.5 108.6 84.8 110.9 87.15 113.25 90.5 113.25 93.85 113.25 96.15 110.9 98.15 108.95 98.45 106.2 L98.5 105.25 Q98.5 101.9 96.15 99.55 93.85 97.25 90.5 97.25 87.15 97.25 84.8 99.55 L84.0 100.55" fill="#4b2c0f" fill-rule="evenodd" stroke="none"/>
    <path d="M98.45 106.2 Q98.15 108.95 96.15 110.9 93.85 113.25 90.5 113.25 87.15 113.25 84.8 110.9 82.5 108.6 82.5 105.25 82.5 102.6 83.95 100.55 L84.0 100.55 Q83.65 101.75 83.65 102.45 83.65 105.5 87.6 107.9 90.75 109.85 92.8 109.85 95.8 109.85 97.5 107.5 L98.45 106.2" fill="#d68710" fill-rule="evenodd" stroke="none"/>
    <path d="M96.9 104.0 Q96.9 100.55 91.85 99.8 86.75 99.1 86.75 101.4 86.75 101.95 87.65 102.55 88.5 103.15 89.25 103.25 90.55 103.35 92.55 104.25 94.55 105.15 95.25 105.15 96.9 105.15 96.9 104.0 M98.45 106.2 L97.5 107.5 Q95.8 109.85 92.8 109.85 90.75 109.85 87.6 107.9 83.65 105.5 83.65 102.45 83.65 101.75 84.0 100.55 L84.8 99.55 Q87.15 97.25 90.5 97.25 93.85 97.25 96.15 99.55 98.5 101.9 98.5 105.25 L98.45 106.2" fill="#edbd2e" fill-rule="evenodd" stroke="none"/>
    <path d="M96.9 104.0 Q96.9 105.15 95.25 105.15 94.55 105.15 92.55 104.25 90.55 103.35 89.25 103.25 88.5 103.15 87.65 102.55 86.75 101.95 86.75 101.4 86.75 99.1 91.85 99.8 96.9 100.55 96.9 104.0" fill="#f8e2a3" fill-rule="evenodd" stroke="none"/>
  </g>
</svg>
