<?xml version="1.0" encoding="UTF-8" standalone="no"?>
<svg xmlns:ffdec="https://www.free-decompiler.com/flash" xmlns:xlink="http://www.w3.org/1999/xlink" ffdec:objectType="shape" height="179.45px" width="96.0px" xmlns="http://www.w3.org/2000/svg">
  <g transform="matrix(1.0, 0.0, 0.0, 1.0, 0.0, 0.9)">
    <path d="M95.95 -0.8 L96.0 -0.65 96.0 -0.4 96.0 178.15 96.0 178.45 95.95 178.55 94.15 178.55 94.1 178.45 94.1 178.3 0.5 177.0 0.2 176.85 0.05 176.5 0.05 95.9 0.0 95.75 0.0 0.5 0.15 0.15 0.45 0.0 94.5 -0.9 94.75 -0.8 95.95 -0.8 M94.1 95.05 L94.05 95.05 94.05 0.1 0.9 1.0 0.9 95.95 0.95 95.95 0.95 176.0 94.1 177.3 94.1 95.05" fill="#3c230d" fill-rule="evenodd" stroke="none"/>
    <path d="M94.1 95.05 L94.1 177.3 0.95 176.0 0.95 95.95 0.9 95.95 0.9 1.0 94.05 0.1 94.05 95.05 94.1 95.05 M82.85 96.2 Q79.15 96.2 76.55 98.8 74.0 101.5 74.0 105.25 74.0 109.0 76.55 111.65 79.15 114.3 82.85 114.3 86.5 114.3 89.05 111.65 91.65 109.0 91.65 105.25 91.65 101.5 89.05 98.8 86.5 96.2 82.85 96.2 M78.35 34.75 L78.35 17.25 55.75 17.45 55.75 34.95 78.35 34.75 M39.65 35.1 L39.65 17.6 16.6 17.85 16.6 35.35 39.65 35.1 M16.65 95.8 L16.65 96.25 39.7 96.55 39.7 95.55 39.65 95.55 39.65 52.6 16.6 52.85 16.6 95.8 16.65 95.8 M78.4 95.2 L78.35 95.2 78.35 52.25 55.75 52.45 55.75 95.4 55.85 95.4 55.85 96.75 78.4 97.1 78.4 95.2 M55.85 114.25 L55.85 159.75 78.4 160.1 78.4 114.6 55.85 114.25 M16.65 113.75 L16.65 159.25 39.7 159.55 39.7 114.05 16.65 113.75" fill="#824c1c" fill-rule="evenodd" stroke="none"/>
    <path d="M78.4 95.2 L78.4 97.1 55.85 96.75 55.85 95.4 55.75 95.4 55.75 52.45 78.35 52.25 78.35 95.2 78.4 95.2 M16.65 95.8 L16.6 95.8 16.6 52.85 39.65 52.6 39.65 95.55 39.7 95.55 39.7 96.55 16.65 96.25 16.65 95.8 M39.65 35.1 L16.6 35.35 16.6 17.85 39.65 17.6 39.65 35.1 M78.35 34.75 L55.75 34.95 55.75 17.45 78.35 17.25 78.35 34.75 M16.65 113.75 L39.7 114.05 39.7 159.55 16.65 159.25 16.65 113.75 M55.85 114.25 L78.4 114.6 78.4 160.1 55.85 159.75 55.85 114.25" fill="#91541f" fill-rule="evenodd" stroke="none"/>
    <path d="M82.85 96.2 Q86.5 96.2 89.05 98.8 91.65 101.5 91.65 105.25 91.65 109.0 89.05 111.65 86.5 114.3 82.85 114.3 79.15 114.3 76.55 111.65 74.0 109.0 74.0 105.25 74.0 101.5 76.55 98.8 79.15 96.2 82.85 96.2 M90.6 106.2 L90.65 105.25 Q90.65 101.9 88.35 99.5 86.1 97.2 82.85 97.2 79.55 97.2 77.25 99.5 L76.45 100.5 76.4 100.5 Q75.0 102.6 75.0 105.25 75.0 108.6 77.25 110.95 79.55 113.3 82.85 113.3 86.1 113.3 88.35 110.95 90.35 108.95 90.6 106.2" fill="#4b2c0f" fill-rule="evenodd" stroke="none"/>
    <path d="M79.15 101.4 Q79.15 101.95 80.05 102.55 80.85 103.15 81.6 103.25 82.9 103.35 84.85 104.25 86.8 105.15 87.5 105.15 89.1 105.15 89.1 104.0 89.1 100.5 84.15 99.75 79.15 99.05 79.15 101.4 M90.6 106.2 L89.7 107.5 Q88.0 109.85 85.1 109.85 83.05 109.85 80.0 107.9 76.1 105.5 76.1 102.45 76.1 101.75 76.45 100.5 L77.25 99.5 Q79.55 97.2 82.85 97.2 86.1 97.2 88.35 99.5 90.65 101.9 90.65 105.25 L90.6 106.2" fill="#edbd2e" fill-rule="evenodd" stroke="none"/>
    <path d="M79.15 101.4 Q79.15 99.05 84.15 99.75 89.1 100.5 89.1 104.0 89.1 105.15 87.5 105.15 86.8 105.15 84.85 104.25 82.9 103.35 81.6 103.25 80.85 103.15 80.05 102.55 79.15 101.95 79.15 101.4" fill="#f8e2a3" fill-rule="evenodd" stroke="none"/>
    <path d="M76.45 100.5 Q76.1 101.75 76.1 102.45 76.1 105.5 80.0 107.9 83.05 109.85 85.1 109.85 88.0 109.85 89.7 107.5 L90.6 106.2 Q90.35 108.95 88.35 110.95 86.1 113.3 82.85 113.3 79.55 113.3 77.25 110.95 75.0 108.6 75.0 105.25 75.0 102.6 76.4 100.5 L76.45 100.5" fill="#d68710" fill-rule="evenodd" stroke="none"/>
  </g>
</svg>
