<?xml version="1.0" encoding="UTF-8" standalone="no"?>
<svg xmlns:ffdec="https://www.free-decompiler.com/flash" xmlns:xlink="http://www.w3.org/1999/xlink" ffdec:objectType="shape" height="182.5px" width="87.55px" xmlns="http://www.w3.org/2000/svg">
  <g transform="matrix(1.0, 0.0, 0.0, 1.0, 0.0, 2.45)">
    <path d="M87.3 -1.5 L84.45 -1.5 84.45 179.15 87.3 179.15 87.3 -1.5 M87.45 -2.3 L87.55 -2.15 87.55 -1.9 87.55 179.55 87.55 179.8 87.45 179.95 84.7 179.95 84.45 180.05 0.4 177.0 0.1 176.85 0.0 176.5 0.0 0.5 0.1 0.15 Q0.25 0.0 0.4 0.0 L84.45 -2.45 84.75 -2.3 87.45 -2.3 M0.8 1.0 L0.8 176.05 84.05 179.05 84.05 -1.4 0.8 1.0" fill="#3c230d" fill-rule="evenodd" stroke="none"/>
    <path d="M70.05 33.5 L70.05 16.0 49.85 16.55 49.85 34.05 70.05 33.5 M35.45 34.5 L35.45 17.0 14.85 17.55 14.85 35.05 35.45 34.5 M14.85 52.55 L14.85 96.55 35.45 97.3 35.45 52.0 14.85 52.55 M70.05 96.7 L70.05 51.0 49.85 51.55 49.85 97.8 67.4 98.4 67.0 98.8 Q64.5 101.45 64.5 105.25 64.5 109.05 67.0 111.7 69.5 114.35 73.1 114.35 76.7 114.35 79.2 111.7 81.7 109.05 81.7 105.25 81.7 101.45 79.2 98.8 76.7 96.15 73.1 96.15 71.45 96.15 70.05 96.7 M49.85 115.3 L49.85 160.8 70.05 161.5 70.05 116.0 49.85 115.3 M14.85 114.05 L14.85 159.55 35.45 160.3 35.45 114.8 14.85 114.05 M0.8 1.0 L84.05 -1.4 84.05 179.05 0.8 176.05 0.8 1.0" fill="#7a481a" fill-rule="evenodd" stroke="none"/>
    <path d="M35.45 34.5 L14.85 35.05 14.85 17.55 35.45 17.0 35.45 34.5 M70.05 33.5 L49.85 34.05 49.85 16.55 70.05 16.0 70.05 33.5 M14.85 52.55 L35.45 52.0 35.45 97.3 14.85 96.55 14.85 52.55 M70.05 96.7 Q68.6 97.25 67.4 98.4 L49.85 97.8 49.85 51.55 70.05 51.0 70.05 96.7 M14.85 114.05 L35.45 114.8 35.45 160.3 14.85 159.55 14.85 114.05 M49.85 115.3 L70.05 116.0 70.05 161.5 49.85 160.8 49.85 115.3" fill="#874f1c" fill-rule="evenodd" stroke="none"/>
    <path d="M87.3 -1.5 L87.3 179.15 84.45 179.15 84.45 -1.5 87.3 -1.5" fill="#492b10" fill-rule="evenodd" stroke="none"/>
    <path d="M67.4 98.4 Q68.6 97.25 70.05 96.7 71.45 96.15 73.1 96.15 76.7 96.15 79.2 98.8 81.7 101.45 81.7 105.25 81.7 109.05 79.2 111.7 76.7 114.35 73.1 114.35 69.5 114.35 67.0 111.7 64.5 109.05 64.5 105.25 64.5 101.45 67.0 98.8 L67.4 98.4 M80.7 106.2 L80.75 105.25 Q80.75 101.85 78.5 99.5 76.3 97.15 73.1 97.15 71.45 97.15 70.05 97.8 69.45 98.05 68.85 98.45 L67.65 99.5 66.9 100.5 66.85 100.5 Q65.45 102.55 65.45 105.25 65.45 108.65 67.65 110.95 69.9 113.35 73.1 113.35 76.3 113.35 78.5 110.95 80.45 109.0 80.7 106.2" fill="#4b2c0f" fill-rule="evenodd" stroke="none"/>
    <path d="M66.9 100.5 L67.65 99.5 68.85 98.45 Q69.45 98.05 70.05 97.8 71.45 97.15 73.1 97.15 76.3 97.15 78.5 99.5 80.75 101.85 80.75 105.25 L80.7 106.2 79.8 107.55 Q78.2 109.9 75.3 109.9 73.35 109.9 70.35 107.95 66.55 105.5 66.55 102.4 66.55 101.7 66.9 100.5 M77.65 105.15 Q79.25 105.15 79.25 104.0 79.25 100.5 74.4 99.75 69.5 99.05 69.5 101.35 69.5 101.9 70.4 102.5 71.2 103.15 71.9 103.25 73.15 103.35 75.05 104.25 77.0 105.15 77.65 105.15" fill="#edbd2e" fill-rule="evenodd" stroke="none"/>
    <path d="M77.65 105.15 Q77.0 105.15 75.05 104.25 73.15 103.35 71.9 103.25 71.2 103.15 70.4 102.5 69.5 101.9 69.5 101.35 69.5 99.05 74.4 99.75 79.25 100.5 79.25 104.0 79.25 105.15 77.65 105.15" fill="#f8e2a3" fill-rule="evenodd" stroke="none"/>
    <path d="M80.7 106.2 Q80.45 109.0 78.5 110.95 76.3 113.35 73.1 113.35 69.9 113.35 67.65 110.95 65.45 108.65 65.45 105.25 65.45 102.55 66.85 100.5 L66.9 100.5 Q66.55 101.7 66.55 102.4 66.55 105.5 70.35 107.95 73.35 109.9 75.3 109.9 78.2 109.9 79.8 107.55 L80.7 106.2" fill="#d68710" fill-rule="evenodd" stroke="none"/>
  </g>
</svg>
