<?xml version="1.0" encoding="UTF-8" standalone="no"?>
<svg xmlns:ffdec="https://www.free-decompiler.com/flash" xmlns:xlink="http://www.w3.org/1999/xlink" ffdec:objectType="shape" height="186.25px" width="75.65px" xmlns="http://www.w3.org/2000/svg">
  <g transform="matrix(1.0, 0.0, 0.0, 1.0, 0.0, 4.3)">
    <path d="M75.25 -3.5 L70.65 -3.5 70.65 181.15 75.25 181.15 75.25 -3.5 M75.45 -4.3 L75.6 -4.2 75.65 -3.9 75.65 181.55 75.6 181.85 75.45 181.95 70.45 181.95 70.3 181.85 0.35 177.0 0.1 176.85 0.0 176.5 0.0 0.5 0.1 0.15 0.35 0.0 70.35 -4.25 70.45 -4.3 75.45 -4.3 M70.15 91.7 L70.0 91.7 70.0 -3.25 0.7 0.95 0.7 176.05 70.15 180.8 70.15 91.7" fill="#3c230d" fill-rule="evenodd" stroke="none"/>
    <path d="M58.35 32.0 L58.35 14.5 41.5 15.5 41.5 33.0 58.35 32.0 M29.5 33.7 L29.5 16.2 12.35 17.25 12.35 34.75 29.5 33.7 M29.55 98.05 L29.55 94.15 29.5 94.15 29.5 51.2 12.35 52.25 12.35 95.2 12.4 95.2 12.4 96.85 29.55 98.05 M58.45 96.15 L58.45 92.45 58.35 92.45 58.35 49.5 41.5 50.5 41.5 93.45 41.6 93.45 41.6 98.85 53.05 99.65 Q51.35 102.05 51.35 105.25 51.35 109.05 53.75 111.7 56.2 114.4 59.65 114.4 63.1 114.4 65.5 111.7 67.95 109.05 67.95 105.25 67.95 101.4 65.5 98.7 63.1 96.05 59.65 96.05 L58.45 96.15 M70.15 91.7 L70.15 180.8 0.7 176.05 0.7 0.95 70.0 -3.25 70.0 91.7 70.15 91.7 M41.6 116.35 L41.6 161.85 58.45 163.0 58.45 117.5 41.6 116.35 M12.4 114.35 L12.4 159.85 29.55 161.05 29.55 115.55 12.4 114.35" fill="#724318" fill-rule="evenodd" stroke="none"/>
    <path d="M29.55 98.05 L12.4 96.85 12.4 95.2 12.35 95.2 12.35 52.25 29.5 51.2 29.5 94.15 29.55 94.15 29.55 98.05 M29.5 33.7 L12.35 34.75 12.35 17.25 29.5 16.2 29.5 33.7 M58.35 32.0 L41.5 33.0 41.5 15.5 58.35 14.5 58.35 32.0 M53.05 99.65 L41.6 98.85 41.6 93.45 41.5 93.45 41.5 50.5 58.35 49.5 58.35 92.45 58.45 92.45 58.45 96.15 Q55.75 96.5 53.75 98.7 L53.05 99.65 M12.4 114.35 L29.55 115.55 29.55 161.05 12.4 159.85 12.4 114.35 M41.6 116.35 L58.45 117.5 58.45 163.0 41.6 161.85 41.6 116.35" fill="#7d491b" fill-rule="evenodd" stroke="none"/>
    <path d="M75.25 -3.5 L75.25 181.15 70.65 181.15 70.65 -3.5 75.25 -3.5" fill="#543012" fill-rule="evenodd" stroke="none"/>
    <path d="M58.45 96.15 L59.65 96.05 Q63.1 96.05 65.5 98.7 67.95 101.4 67.95 105.25 67.95 109.05 65.5 111.7 63.1 114.4 59.65 114.4 56.2 114.4 53.75 111.7 51.35 109.05 51.35 105.25 51.35 102.05 53.05 99.65 L53.75 98.7 Q55.75 96.5 58.45 96.15 M67.0 106.2 L67.05 105.25 Q67.05 101.8 64.85 99.4 62.75 97.05 59.65 97.05 L58.45 97.15 Q56.1 97.5 54.4 99.4 L54.2 99.7 53.65 100.45 53.6 100.45 Q52.25 102.55 52.25 105.25 52.25 108.65 54.4 111.0 56.55 113.4 59.65 113.4 62.75 113.4 64.85 111.0 66.7 109.0 67.0 106.2" fill="#4b2c0f" fill-rule="evenodd" stroke="none"/>
    <path d="M67.0 106.2 Q66.7 109.0 64.85 111.0 62.75 113.4 59.65 113.4 56.55 113.4 54.4 111.0 52.25 108.65 52.25 105.25 52.25 102.55 53.6 100.45 L53.65 100.45 Q53.35 101.65 53.35 102.4 53.35 105.5 57.0 107.95 59.9 109.95 61.8 109.95 64.55 109.95 66.1 107.55 L67.0 106.2" fill="#d68710" fill-rule="evenodd" stroke="none"/>
    <path d="M53.65 100.45 L54.2 99.7 54.4 99.4 Q56.1 97.5 58.45 97.15 L59.65 97.05 Q62.75 97.05 64.85 99.4 67.05 101.8 67.05 105.25 L67.0 106.2 66.1 107.55 Q64.55 109.95 61.8 109.95 59.9 109.95 57.0 107.95 53.35 105.5 53.35 102.4 53.35 101.65 53.65 100.45 M65.55 103.95 Q65.55 100.45 60.9 99.65 L58.45 99.5 57.0 99.9 Q56.2 100.35 56.2 101.3 56.2 101.85 57.05 102.5 57.8 103.1 58.5 103.2 59.7 103.3 61.55 104.2 63.4 105.15 64.05 105.15 65.55 105.15 65.55 103.95" fill="#edbd2e" fill-rule="evenodd" stroke="none"/>
    <path d="M65.55 103.95 Q65.55 105.15 64.05 105.15 63.4 105.15 61.55 104.2 59.7 103.3 58.5 103.2 57.8 103.1 57.05 102.5 56.2 101.85 56.2 101.3 56.2 100.35 57.0 99.9 L58.45 99.5 60.9 99.65 Q65.55 100.45 65.55 103.95" fill="#f8e2a3" fill-rule="evenodd" stroke="none"/>
  </g>
</svg>
