<?xml version="1.0" encoding="UTF-8" standalone="no"?>
<svg xmlns:ffdec="https://www.free-decompiler.com/flash" xmlns:xlink="http://www.w3.org/1999/xlink" ffdec:objectType="shape" height="197.8px" width="43.75px" xmlns="http://www.w3.org/2000/svg">
  <g transform="matrix(1.0, 0.0, 0.0, 1.0, 0.0, 10.05)">
    <path d="M41.65 112.6 L41.65 187.35 41.55 187.65 41.25 187.75 30.85 187.75 30.55 187.65 30.4 187.45 30.35 187.45 0.15 177.05 0.05 176.85 0.0 176.5 0.0 0.5 0.05 0.15 0.15 -0.05 30.35 -9.95 30.45 -9.85 30.45 -9.8 30.55 -9.95 30.85 -10.05 41.25 -10.05 41.55 -9.95 41.65 -9.65 41.65 97.9 41.65 99.4 41.65 105.15 41.65 111.05 41.65 112.6 M40.8 -9.25 L31.3 -9.25 31.3 186.9 40.8 186.9 40.8 -9.25 M30.2 105.0 L30.2 -8.9 0.3 0.9 0.3 176.1 30.2 186.4 30.2 105.5 30.2 105.0" fill="#3c230d" fill-rule="evenodd" stroke="none"/>
    <path d="M5.35 16.25 L5.35 33.75 12.75 31.35 12.75 13.85 5.35 16.25 M25.15 96.25 L25.15 44.75 17.9 47.15 17.9 98.4 17.75 98.55 Q15.65 101.3 15.65 105.25 15.65 109.2 17.75 111.95 19.9 114.75 22.9 114.75 25.95 114.75 28.05 111.95 30.15 109.3 30.2 105.5 L30.2 186.4 0.3 176.1 0.3 0.9 30.2 -8.9 30.2 105.0 Q30.15 101.2 28.05 98.55 26.8 96.9 25.15 96.25 M17.9 12.15 L17.9 29.65 25.15 27.25 25.15 9.75 17.9 12.15 M5.35 97.85 L12.75 100.4 12.75 48.85 5.35 51.25 5.35 97.85 M5.35 115.35 L5.35 160.85 12.75 163.4 12.75 117.9 5.35 115.35 M17.9 119.65 L17.9 165.15 25.15 167.65 25.15 122.15 17.9 119.65" fill="#633a16" fill-rule="evenodd" stroke="none"/>
    <path d="M17.9 98.4 L17.9 47.15 25.15 44.75 25.15 96.25 22.9 95.8 Q20.0 95.8 17.9 98.4 M5.35 16.25 L12.75 13.85 12.75 31.35 5.35 33.75 5.35 16.25 M5.35 97.85 L5.35 51.25 12.75 48.85 12.75 100.4 5.35 97.85 M17.9 12.15 L25.15 9.75 25.15 27.25 17.9 29.65 17.9 12.15 M17.9 119.65 L25.15 122.15 25.15 167.65 17.9 165.15 17.9 119.65 M5.35 115.35 L12.75 117.9 12.75 163.4 5.35 160.85 5.35 115.35" fill="#6b3f17" fill-rule="evenodd" stroke="none"/>
    <path d="M40.8 -9.25 L40.8 186.9 31.3 186.9 31.3 -9.25 40.8 -9.25" fill="#744319" fill-rule="evenodd" stroke="none"/>
    <path d="M41.65 112.6 L41.65 111.05 Q43.05 108.65 43.05 105.25 43.05 102.4 42.05 100.15 L42.0 100.15 41.65 99.4 41.65 97.9 41.95 98.3 Q43.75 101.2 43.75 105.25 43.75 109.3 41.95 112.15 L41.65 112.6 M17.9 98.4 Q20.0 95.8 22.9 95.8 L25.15 96.25 Q26.8 96.9 28.05 98.55 30.15 101.2 30.2 105.0 L30.2 105.5 Q30.15 109.3 28.05 111.95 25.95 114.75 22.9 114.75 19.9 114.75 17.75 111.95 15.65 109.2 15.65 105.25 15.65 101.3 17.75 98.55 L17.9 98.4 M29.35 106.25 L29.4 105.25 Q29.4 101.75 27.5 99.25 26.45 97.9 25.15 97.35 24.1 96.85 22.9 96.85 20.2 96.85 18.3 99.25 L17.9 99.9 17.65 100.3 Q16.45 102.5 16.45 105.25 16.45 108.8 18.3 111.2 20.2 113.7 22.9 113.7 25.6 113.7 27.5 111.2 29.1 109.15 29.35 106.25" fill="#4b2c0f" fill-rule="evenodd" stroke="none"/>
    <path d="M41.65 111.05 L41.65 105.15 Q42.25 103.75 42.25 102.2 L42.0 100.15 42.05 100.15 Q43.05 102.4 43.05 105.25 43.05 108.65 41.65 111.05 M17.65 100.3 L17.4 102.3 Q17.4 105.55 20.6 108.05 23.1 110.1 24.8 110.1 27.2 110.1 28.55 107.65 L29.35 106.25 Q29.1 109.15 27.5 111.2 25.6 113.7 22.9 113.7 20.2 113.7 18.3 111.2 16.45 108.8 16.45 105.25 16.45 102.5 17.65 100.3" fill="#d68710" fill-rule="evenodd" stroke="none"/>
    <path d="M41.65 105.15 L41.65 99.4 42.0 100.15 42.25 102.2 Q42.25 103.75 41.65 105.15 M17.65 100.3 L17.9 99.9 18.3 99.25 Q20.2 96.85 22.9 96.85 24.1 96.85 25.15 97.35 26.45 97.9 27.5 99.25 29.4 101.75 29.4 105.25 L29.35 106.25 28.55 107.65 Q27.2 110.1 24.8 110.1 23.1 110.1 20.6 108.05 17.4 105.55 17.4 102.3 L17.65 100.3 M26.75 105.15 Q28.1 105.15 28.1 103.95 28.1 100.85 25.15 99.85 L24.0 99.55 Q19.9 98.8 19.9 101.2 19.9 101.8 20.6 102.45 21.3 103.05 21.9 103.15 22.95 103.25 24.55 104.2 L25.15 104.55 Q26.3 105.15 26.75 105.15" fill="#edbd2e" fill-rule="evenodd" stroke="none"/>
    <path d="M26.75 105.15 Q26.3 105.15 25.15 104.55 L24.55 104.2 Q22.95 103.25 21.9 103.15 21.3 103.05 20.6 102.45 19.9 101.8 19.9 101.2 19.9 98.8 24.0 99.55 L25.15 99.85 Q28.1 100.85 28.1 103.95 28.1 105.15 26.75 105.15" fill="#f8e2a3" fill-rule="evenodd" stroke="none"/>
  </g>
</svg>
