<?xml version="1.0" encoding="UTF-8" standalone="no"?>
<svg xmlns:ffdec="https://www.free-decompiler.com/flash" xmlns:xlink="http://www.w3.org/1999/xlink" ffdec:objectType="shape" height="214.95px" width="31.45px" xmlns="http://www.w3.org/2000/svg">
  <g transform="matrix(1.0, 0.0, 0.0, 1.0, 30.95, 18.55)">
    <path d="M-14.45 -17.65 L-24.8 -17.65 -24.8 195.45 -14.45 195.45 -14.45 -17.65 M-25.7 95.6 L-25.7 -18.1 -25.6 -18.4 -25.25 -18.55 -13.95 -18.55 -13.65 -18.4 -13.5 -18.1 -13.5 -18.05 0.45 0.85 0.5 1.05 0.5 1.5 0.5 102.55 0.5 102.7 0.5 176.65 0.5 177.1 0.45 177.3 -13.5 195.95 -13.65 196.25 -13.95 196.4 -25.25 196.4 -25.6 196.25 -25.7 195.95 -25.7 114.9 -25.7 113.8 -25.7 109.05 -25.7 103.1 -25.7 99.2 -25.7 96.75 -25.7 95.6 M-13.5 83.95 L-13.5 194.95 0.35 176.35 0.35 1.8 -13.5 -16.95 -13.5 83.8 -13.5 83.95" fill="#3c230d" fill-rule="evenodd" stroke="none"/>
    <path d="M-14.45 -17.65 L-14.45 195.45 -24.8 195.45 -24.8 -17.65 -14.45 -17.65" fill="#8a511e" fill-rule="evenodd" stroke="none"/>
    <path d="M-13.5 83.8 L-13.5 -16.95 0.35 1.8 0.35 176.35 -13.5 194.95 -13.5 83.95 -13.45 83.85 -13.5 83.8 M-7.95 95.8 L-7.95 91.25 -7.8 91.45 -7.8 45.9 -11.2 41.35 -11.2 86.9 -11.35 86.7 -11.35 99.2 Q-12.7 101.8 -12.7 105.25 -12.7 109.3 -10.85 112.15 -9.0 115.0 -6.35 115.0 -3.7 115.0 -1.85 112.15 0.0 109.3 0.0 105.25 0.0 101.2 -1.85 98.3 L-2.0 98.1 -2.0 53.85 -5.4 49.15 -5.4 94.7 -5.5 94.6 -5.5 95.6 -6.35 95.5 -7.95 95.8 M-2.0 16.7 L-5.4 12.0 -5.4 30.55 -2.0 35.25 -2.0 16.7 M-7.8 8.75 L-11.2 4.2 -11.2 22.75 -7.8 27.3 -7.8 8.75 M-2.0 113.1 L-5.5 117.8 -5.5 166.15 -2.0 161.45 -2.0 113.1 M-7.95 121.05 L-11.35 125.65 -11.35 174.0 -7.95 169.4 -7.95 121.05" fill="#512f11" fill-rule="evenodd" stroke="none"/>
    <path d="M-7.8 8.75 L-7.8 27.3 -11.2 22.75 -11.2 4.2 -7.8 8.75 M-2.0 16.7 L-2.0 35.25 -5.4 30.55 -5.4 12.0 -2.0 16.7 M-11.35 99.2 L-11.35 86.7 -11.2 86.9 -11.2 41.35 -7.8 45.9 -7.8 91.45 -7.95 91.25 -7.95 95.8 Q-9.6 96.4 -10.85 98.3 L-11.35 99.2 M-5.5 95.6 L-5.5 94.6 -5.4 94.7 -5.4 49.15 -2.0 53.85 -2.0 98.1 Q-3.5 95.95 -5.5 95.6 M-2.0 113.1 L-2.0 161.45 -5.5 166.15 -5.5 117.8 -2.0 113.1 M-7.95 121.05 L-7.95 169.4 -11.35 174.0 -11.35 125.65 -7.95 121.05" fill="#553211" fill-rule="evenodd" stroke="none"/>
    <path d="M-25.7 95.6 L-25.7 96.75 Q-27.4 97.15 -28.65 99.05 L-29.2 100.15 -29.25 100.15 Q-30.25 102.4 -30.25 105.25 -30.25 108.9 -28.65 111.35 -27.4 113.35 -25.7 113.8 L-25.7 114.9 Q-27.65 114.45 -29.15 112.15 -30.95 109.3 -30.95 105.25 -30.95 101.2 -29.15 98.3 -27.65 96.05 -25.7 95.6 M-7.95 95.8 L-6.35 95.5 -5.5 95.6 Q-3.5 95.95 -2.0 98.1 L-1.85 98.3 Q0.0 101.2 0.0 105.25 0.0 109.3 -1.85 112.15 -3.7 115.0 -6.35 115.0 -9.0 115.0 -10.85 112.15 -12.7 109.3 -12.7 105.25 -12.7 101.8 -11.35 99.2 L-10.85 98.3 Q-9.6 96.4 -7.95 95.8 M-1.75 100.15 L-2.35 99.05 Q-3.15 97.9 -4.05 97.3 -4.75 96.85 -5.5 96.7 L-6.35 96.6 -7.95 96.95 Q-9.3 97.5 -10.35 99.05 -10.95 100.0 -11.35 101.1 -12.0 102.95 -12.0 105.25 L-11.95 106.3 Q-11.75 109.25 -10.35 111.35 -8.7 113.9 -6.35 113.9 -4.0 113.9 -2.35 111.35 -0.7 108.9 -0.7 105.25 -0.7 102.4 -1.75 100.15" fill="#4b2c0f" fill-rule="evenodd" stroke="none"/>
    <path d="M-25.7 96.75 L-25.7 99.2 Q-27.3 99.4 -27.3 101.1 -27.3 101.65 -26.7 102.3 L-25.7 103.1 -25.7 109.05 -26.75 108.1 Q-29.45 105.5 -29.45 102.2 L-29.2 100.15 -28.65 99.05 Q-27.4 97.15 -25.7 96.75 M-11.95 106.3 L-12.0 105.25 Q-12.0 102.95 -11.35 101.1 -10.95 100.0 -10.35 99.05 -9.3 97.5 -7.95 96.95 L-6.35 96.6 -5.5 96.7 Q-4.75 96.85 -4.05 97.3 -3.15 97.9 -2.35 99.05 L-1.75 100.15 -1.5 102.2 Q-1.5 105.5 -4.3 108.1 -6.55 110.25 -7.95 110.25 -10.1 110.25 -11.3 107.7 L-11.95 106.3 M-3.7 101.1 Q-3.7 99.35 -5.5 99.2 L-7.3 99.35 -7.95 99.55 Q-10.85 100.5 -10.85 103.9 -10.85 105.0 -9.9 105.15 L-9.7 105.15 Q-9.2 105.15 -7.8 104.15 -6.4 103.2 -5.45 103.1 L-4.35 102.3 Q-3.7 101.65 -3.7 101.1" fill="#edbd2e" fill-rule="evenodd" stroke="none"/>
    <path d="M-25.7 109.05 L-25.7 113.8 Q-27.4 113.35 -28.65 111.35 -30.25 108.9 -30.25 105.25 -30.25 102.4 -29.25 100.15 L-29.2 100.15 -29.45 102.2 Q-29.45 105.5 -26.75 108.1 L-25.7 109.05 M-11.95 106.3 L-11.3 107.7 Q-10.1 110.25 -7.95 110.25 -6.55 110.25 -4.3 108.1 -1.5 105.5 -1.5 102.2 L-1.75 100.15 Q-0.7 102.4 -0.7 105.25 -0.7 108.9 -2.35 111.35 -4.0 113.9 -6.35 113.9 -8.7 113.9 -10.35 111.35 -11.75 109.25 -11.95 106.3" fill="#d68710" fill-rule="evenodd" stroke="none"/>
    <path d="M-25.7 99.2 L-25.7 103.1 -26.7 102.3 Q-27.3 101.65 -27.3 101.1 -27.3 99.4 -25.7 99.2 M-3.7 101.1 Q-3.7 101.65 -4.35 102.3 L-5.45 103.1 Q-6.4 103.2 -7.8 104.15 -9.2 105.15 -9.7 105.15 L-9.9 105.15 Q-10.85 105.0 -10.85 103.9 -10.85 100.5 -7.95 99.55 L-7.3 99.35 -5.5 99.2 Q-3.7 99.35 -3.7 101.1" fill="#f8e2a3" fill-rule="evenodd" stroke="none"/>
  </g>
</svg>
