<?xml version="1.0" encoding="UTF-8" standalone="no"?>
<svg xmlns:ffdec="https://www.free-decompiler.com/flash" xmlns:xlink="http://www.w3.org/1999/xlink" ffdec:objectType="shape" height="216.65px" width="35.85px" xmlns="http://www.w3.org/2000/svg">
  <g transform="matrix(1.0, 0.0, 0.0, 1.0, 35.1, 19.4)">
    <path d="M-19.6 -18.5 L-30.05 -18.5 -30.05 196.2 -19.6 196.2 -19.6 -18.5 M-30.95 96.05 L-30.95 -18.95 -30.85 -19.3 -30.5 -19.4 -19.15 -19.4 -18.8 -19.3 -18.65 -19.0 0.6 0.3 0.65 0.5 0.7 0.95 0.7 66.75 0.75 66.5 0.75 177.95 0.7 178.35 0.65 178.55 -19.0 197.25 -19.05 197.15 -19.15 197.15 -30.5 197.15 -30.85 197.0 -30.95 196.65 -30.95 114.5 -30.95 113.3 -30.95 108.05 -30.95 102.2 -30.95 99.7 -30.95 97.2 -30.95 96.05 M-18.65 85.2 L-18.65 195.85 0.55 177.6 0.55 104.3 0.5 104.25 0.5 1.3 -18.65 -17.9 -18.65 85.05 -18.65 85.2" fill="#3c230d" fill-rule="evenodd" stroke="none"/>
    <path d="M-19.6 -18.5 L-19.6 196.2 -30.05 196.2 -30.05 -18.5 -19.6 -18.5" fill="#8a511e" fill-rule="evenodd" stroke="none"/>
    <path d="M-18.65 85.05 L-18.65 -17.9 0.5 1.3 0.5 104.25 0.55 104.3 0.55 177.6 -18.65 195.85 -18.65 85.2 -18.55 85.15 -18.65 85.05 M-10.9 95.5 L-10.9 92.8 -10.85 92.85 -10.85 46.25 -15.55 41.55 -15.55 88.15 -15.6 88.1 -15.6 99.05 Q-17.05 101.7 -17.05 105.25 -17.05 109.3 -15.15 112.15 -13.25 115.0 -10.55 115.0 -7.85 115.0 -5.95 112.15 -4.1 109.3 -4.1 105.25 -4.1 101.55 -5.65 98.8 L-5.25 98.45 -2.75 101.0 -2.75 54.4 -7.5 49.6 -7.5 96.2 -7.55 96.15 -7.55 96.55 Q-8.9 95.5 -10.55 95.5 L-10.9 95.5 M-2.75 16.45 L-7.5 11.65 -7.5 30.65 -2.75 35.45 -2.75 16.45 M-10.85 8.3 L-15.55 3.6 -15.55 22.6 -10.85 27.3 -10.85 8.3 M-2.7 114.5 L-7.55 119.1 -7.55 167.3 -2.7 162.7 -2.7 114.5 M-10.9 122.3 L-15.6 126.8 -15.6 175.0 -10.9 170.5 -10.9 122.3" fill="#553212" fill-rule="evenodd" stroke="none"/>
    <path d="M-10.85 8.3 L-10.85 27.3 -15.55 22.6 -15.55 3.6 -10.85 8.3 M-2.75 16.45 L-2.75 35.45 -7.5 30.65 -7.5 11.65 -2.75 16.45 M-15.6 99.05 L-15.6 88.1 -15.55 88.15 -15.55 41.55 -10.85 46.25 -10.85 92.85 -10.9 92.8 -10.9 95.5 Q-13.35 95.7 -15.15 98.3 L-15.6 99.05 M-7.55 96.55 L-7.55 96.15 -7.5 96.2 -7.5 49.6 -2.75 54.4 -2.75 101.0 -5.25 98.45 -5.65 98.8 -5.95 98.3 Q-6.7 97.2 -7.55 96.55 M-2.7 114.5 L-2.7 162.7 -7.55 167.3 -7.55 119.1 -2.7 114.5 M-10.9 122.3 L-10.9 170.5 -15.6 175.0 -15.6 126.8 -10.9 122.3" fill="#5a3513" fill-rule="evenodd" stroke="none"/>
    <path d="M-30.95 96.05 L-30.95 97.2 Q-31.95 97.8 -32.8 99.05 L-33.35 100.15 -33.4 100.15 Q-34.4 102.4 -34.4 105.25 -34.4 108.9 -32.8 111.35 -31.95 112.65 -30.95 113.3 L-30.95 114.5 Q-32.25 113.75 -33.3 112.15 -35.1 109.3 -35.1 105.25 -35.1 101.2 -33.3 98.3 -32.25 96.7 -30.95 96.05 M-10.9 95.5 L-10.55 95.5 Q-8.9 95.5 -7.55 96.55 -6.7 97.2 -5.95 98.3 L-5.65 98.8 Q-4.1 101.55 -4.1 105.25 -4.1 109.3 -5.95 112.15 -7.85 115.0 -10.55 115.0 -13.25 115.0 -15.15 112.15 -17.05 109.3 -17.05 105.25 -17.05 101.7 -15.6 99.05 L-15.15 98.3 Q-13.35 95.7 -10.9 95.5 M-5.9 100.15 L-6.25 99.4 -6.45 99.05 -7.55 97.8 Q-8.9 96.6 -10.55 96.6 L-10.9 96.65 Q-13.1 96.8 -14.65 99.05 L-15.6 100.95 Q-16.3 102.85 -16.3 105.25 L-16.3 106.3 Q-16.05 109.25 -14.65 111.35 -13.0 113.9 -10.55 113.9 -8.15 113.9 -6.45 111.35 -4.8 108.9 -4.8 105.25 -4.8 102.4 -5.85 100.15 L-5.9 100.15" fill="#4b2c0f" fill-rule="evenodd" stroke="none"/>
    <path d="M-30.95 97.2 L-30.95 99.7 Q-31.45 100.15 -31.45 101.1 L-30.95 102.2 -30.95 108.05 Q-33.6 105.45 -33.6 102.2 L-33.35 100.15 -32.8 99.05 Q-31.95 97.8 -30.95 97.2 M-16.3 106.3 L-16.3 105.25 Q-16.3 102.85 -15.6 100.95 L-14.65 99.05 Q-13.1 96.8 -10.9 96.65 L-10.55 96.6 Q-8.9 96.6 -7.55 97.8 L-6.45 99.05 -6.25 99.4 -5.9 100.15 -5.65 102.2 Q-5.65 105.5 -8.5 108.1 -10.75 110.25 -12.2 110.25 -14.2 110.25 -15.4 108.1 L-15.6 107.7 -16.3 106.3 M-8.5 102.3 Q-7.85 101.65 -7.85 101.1 -7.85 98.85 -10.9 99.25 L-11.55 99.35 Q-15.15 100.15 -15.15 103.9 -15.15 105.15 -14.0 105.15 -13.5 105.15 -12.05 104.15 -11.45 103.75 -10.9 103.5 L-9.65 103.1 -8.5 102.3" fill="#edbd2e" fill-rule="evenodd" stroke="none"/>
    <path d="M-30.95 99.7 L-30.95 102.2 -31.45 101.1 Q-31.45 100.15 -30.95 99.7 M-8.5 102.3 L-9.65 103.1 -10.9 103.5 Q-11.45 103.75 -12.05 104.15 -13.5 105.15 -14.0 105.15 -15.15 105.15 -15.15 103.9 -15.15 100.15 -11.55 99.35 L-10.9 99.25 Q-7.85 98.85 -7.85 101.1 -7.85 101.65 -8.5 102.3" fill="#f8e2a3" fill-rule="evenodd" stroke="none"/>
    <path d="M-30.95 108.05 L-30.95 113.3 Q-31.95 112.65 -32.8 111.35 -34.4 108.9 -34.4 105.25 -34.4 102.4 -33.4 100.15 L-33.35 100.15 -33.6 102.2 Q-33.6 105.45 -30.95 108.05 M-16.3 106.3 L-15.6 107.7 -15.4 108.1 Q-14.2 110.25 -12.2 110.25 -10.75 110.25 -8.5 108.1 -5.65 105.5 -5.65 102.2 L-5.9 100.15 -5.85 100.15 Q-4.8 102.4 -4.8 105.25 -4.8 108.9 -6.45 111.35 -8.15 113.9 -10.55 113.9 -13.0 113.9 -14.65 111.35 -16.05 109.25 -16.3 106.3" fill="#d68710" fill-rule="evenodd" stroke="none"/>
  </g>
</svg>
