<?xml version="1.0" encoding="UTF-8" standalone="no"?>
<svg xmlns:ffdec="https://www.free-decompiler.com/flash" xmlns:xlink="http://www.w3.org/1999/xlink" ffdec:objectType="shape" height="7.3px" width="20.05px" xmlns="http://www.w3.org/2000/svg">
  <g transform="matrix(1.0, 0.0, 0.0, 1.0, 11.4, -5.55)">
    <path d="M-6.95 6.1 L-8.6 5.95 -9.9 6.1 Q2.9 11.85 6.6 11.95 7.25 12.35 8.35 11.7 L7.85 12.55 6.85 12.85 Q3.35 12.85 -3.65 9.9 -10.0 7.2 -11.4 5.75 -10.8 5.1 -4.75 6.4 L-6.95 6.1" fill="#8e7c71" fill-rule="evenodd" stroke="none"/>
    <path d="M5.25 8.6 L4.55 9.05 3.65 9.2 -0.75 8.4 -5.95 7.2 Q-5.55 7.95 -1.2 9.3 L2.9 10.5 5.0 10.9 Q6.15 10.9 6.55 10.4 7.1 9.85 7.15 8.15 L8.45 8.2 Q8.1 8.75 8.0 9.8 L7.8 11.9 6.6 11.95 Q2.9 11.85 -9.9 6.1 L-8.6 5.95 -6.95 6.1 Q1.95 8.4 3.95 8.4 L5.25 8.6" fill="#ebe8e0" fill-rule="evenodd" stroke="none"/>
    <path d="M3.95 8.4 Q1.95 8.4 -6.95 6.1 L-4.75 6.4 -0.55 7.4 Q2.45 8.2 3.95 8.4 M6.6 11.95 L7.8 11.9 8.0 9.8 Q8.1 8.75 8.45 8.2 8.85 9.9 8.35 11.7 7.25 12.35 6.6 11.95" fill="#b9a99b" fill-rule="evenodd" stroke="none"/>
    <path d="M7.15 8.15 Q7.1 9.85 6.55 10.4 6.15 10.9 5.0 10.9 L2.9 10.5 -1.2 9.3 Q-5.55 7.95 -5.95 7.2 L-0.75 8.4 3.65 9.2 4.55 9.05 5.25 8.6 6.55 8.4 7.15 8.15" fill="#ffffff" fill-rule="evenodd" stroke="none"/>
  </g>
</svg>
