<?xml version="1.0" encoding="UTF-8" standalone="no"?>
<svg xmlns:ffdec="https://www.free-decompiler.com/flash" xmlns:xlink="http://www.w3.org/1999/xlink" ffdec:objectType="shape" height="11.75px" width="31.5px" xmlns="http://www.w3.org/2000/svg">
  <g transform="matrix(1.0, 0.0, 0.0, 1.0, 18.05, 12.25)">
    <path d="M-17.55 -4.35 L-18.0 -4.95 Q-18.15 -5.4 -17.9 -5.75 L-17.3 -6.2 Q-11.65 -7.85 -4.9 -2.25 L-4.55 -1.6 Q-4.5 -1.2 -4.75 -0.85 -5.05 -0.55 -5.45 -0.5 L-6.2 -0.7 Q-11.95 -5.55 -16.75 -4.25 L-17.55 -4.35 M12.7 -8.5 L11.95 -8.65 Q8.15 -10.9 5.15 -9.95 2.1 -8.95 -0.15 -4.75 L-0.75 -4.3 -1.5 -4.35 -2.0 -4.95 -1.9 -5.7 Q0.85 -10.8 4.55 -11.9 8.3 -13.1 12.95 -10.35 L13.45 -9.75 13.3 -9.0 12.7 -8.5" fill="#c28127" fill-rule="evenodd" stroke="none"/>
  </g>
</svg>
