<?xml version="1.0" encoding="UTF-8" standalone="no"?>
<svg xmlns:ffdec="https://www.free-decompiler.com/flash" xmlns:xlink="http://www.w3.org/1999/xlink" ffdec:objectType="shape" height="35.65px" width="37.6px" xmlns="http://www.w3.org/2000/svg">
  <g transform="matrix(1.0, 0.0, 0.0, 1.0, -14.85, 45.25)">
    <path d="M38.25 -41.5 L33.85 -40.95 33.2 -40.75 31.5 -40.35 Q27.8 -39.35 25.7 -37.85 L25.45 -37.65 Q23.5 -36.25 23.3 -34.6 L22.55 -34.75 22.3 -35.55 22.9 -37.2 23.65 -37.85 28.85 -40.4 31.25 -41.0 32.9 -41.4 34.6 -41.7 42.2 -42.35 42.4 -41.65 34.5 -37.1 33.35 -36.4 32.95 -35.9 Q31.0 -33.5 31.0 -30.6 31.0 -28.25 32.4 -24.95 L33.3 -23.05 31.65 -25.15 31.8 -25.1 30.25 -28.4 Q29.0 -31.25 29.0 -31.9 29.0 -34.15 31.0 -36.05 L32.55 -37.3 34.05 -38.4 39.4 -41.6 38.25 -41.5 M21.85 -42.7 L22.35 -43.6 23.2 -45.25 24.6 -45.25 21.85 -40.2 21.85 -42.7 M16.85 -45.25 L16.3 -44.9 14.9 -43.45 14.85 -43.5 15.95 -45.25 16.85 -45.25 M44.0 -31.35 L44.9 -32.9 48.35 -30.75 50.4 -29.1 Q44.15 -26.7 41.55 -25.05 L38.8 -22.75 36.25 -18.6 35.45 -18.05 34.8 -17.8 34.9 -19.8 38.05 -23.6 38.15 -23.7 Q39.65 -25.65 43.65 -27.65 L47.5 -29.35 47.0 -29.7 45.75 -30.45 44.0 -31.35 M48.3 -43.5 L44.25 -45.25 49.05 -45.25 Q51.0 -44.1 52.45 -42.35 L43.15 -36.15 42.25 -37.0 49.55 -42.4 48.3 -43.5" fill="#794813" fill-rule="evenodd" stroke="none"/>
    <path d="M30.6 -45.25 L30.95 -45.25 30.05 -44.65 30.6 -45.25 M33.85 -40.95 L27.6 -36.25 27.95 -35.5 Q28.4 -35.55 30.55 -36.95 L32.3 -38.05 33.9 -39.0 Q35.95 -40.25 38.25 -41.5 L39.4 -41.6 34.05 -38.4 32.55 -37.3 31.0 -36.05 Q29.0 -34.15 29.0 -31.9 29.0 -31.25 30.25 -28.4 L31.8 -25.1 31.65 -25.15 33.3 -23.05 Q29.6 -23.6 28.2 -24.8 L27.6 -25.4 23.3 -34.6 Q23.5 -36.25 25.45 -37.65 L25.7 -37.85 Q27.8 -39.35 31.5 -40.35 L33.2 -40.75 33.85 -40.95 M23.2 -45.25 L22.35 -43.6 21.85 -42.7 Q20.2 -45.15 17.95 -45.15 L16.8 -45.0 16.3 -44.9 16.85 -45.25 23.2 -45.25 M38.05 -23.6 L36.9 -23.35 37.8 -25.15 44.0 -31.35 45.75 -30.45 Q43.85 -29.7 43.45 -29.0 L43.35 -28.45 45.1 -29.05 47.0 -29.7 47.5 -29.35 43.65 -27.65 Q39.65 -25.65 38.15 -23.7 L38.05 -23.6 M43.95 -41.45 Q44.55 -43.7 44.05 -45.25 L44.25 -45.25 48.3 -43.5 43.95 -41.45 M42.25 -37.0 L42.0 -36.8 36.55 -36.8 Q39.45 -37.55 40.9 -38.45 42.55 -39.4 43.8 -41.2 L44.5 -40.4 49.55 -42.4 42.25 -37.0" fill="#e0ac3f" fill-rule="evenodd" stroke="none"/>
    <path d="M38.25 -41.5 Q35.95 -40.25 33.9 -39.0 L32.3 -38.05 30.55 -36.95 Q28.4 -35.55 27.95 -35.5 L27.6 -36.25 33.85 -40.95 38.25 -41.5 M47.0 -29.7 L45.1 -29.05 43.35 -28.45 43.45 -29.0 Q43.85 -29.7 45.75 -30.45 L47.0 -29.7 M43.95 -41.45 L48.3 -43.5 49.55 -42.4 44.5 -40.4 43.8 -41.2 43.95 -41.45" fill="#eac679" fill-rule="evenodd" stroke="none"/>
    <path d="M22.6 -33.55 L22.9 -29.6 Q22.55 -31.1 22.45 -33.65 L22.6 -33.55" fill="#eaa76a" fill-rule="evenodd" stroke="none"/>
    <path d="M23.25 -16.7 L22.85 -15.2 22.8 -15.4 Q22.95 -13.4 23.15 -13.0 L23.75 -12.35 Q24.15 -12.1 24.6 -12.0 L25.8 -11.75 Q26.55 -11.6 27.45 -12.8 28.45 -14.1 27.9 -15.9 L28.7 -16.1 Q29.1 -15.1 29.1 -14.3 29.1 -12.85 27.75 -11.6 L27.4 -11.3 Q26.35 -10.55 25.5 -10.55 L25.35 -10.55 Q23.9 -10.65 22.85 -11.9 21.75 -13.3 21.75 -15.4 21.75 -16.65 22.6 -17.7 L23.35 -16.85 23.25 -16.7" fill="#cccccc" fill-rule="evenodd" stroke="none"/>
    <path d="M22.9 -18.15 L23.5 -17.7 24.25 -16.65 23.85 -16.2 23.75 -15.95 23.55 -14.65 Q23.55 -13.3 24.65 -12.75 25.2 -12.45 25.8 -12.45 L25.95 -12.45 Q26.35 -12.5 26.75 -13.0 27.2 -13.6 27.2 -14.5 L27.15 -15.7 27.0 -16.2 Q27.8 -17.4 29.35 -17.1 L29.65 -16.35 30.05 -14.3 Q30.05 -12.4 28.45 -10.95 27.7 -10.25 26.95 -9.9 L25.5 -9.6 25.0 -9.6 Q22.95 -9.85 21.8 -11.8 20.8 -13.45 20.8 -15.45 20.9 -17.4 21.95 -18.4 L22.0 -18.4 22.2 -18.65 22.9 -18.15 M23.25 -16.7 L23.35 -16.85 22.6 -17.7 Q21.75 -16.65 21.75 -15.4 21.75 -13.3 22.85 -11.9 23.9 -10.65 25.35 -10.55 L25.5 -10.55 Q26.35 -10.55 27.4 -11.3 L27.75 -11.6 Q29.1 -12.85 29.1 -14.3 29.1 -15.1 28.7 -16.1 L27.9 -15.9 Q28.45 -14.1 27.45 -12.8 26.55 -11.6 25.8 -11.75 L24.6 -12.0 Q24.15 -12.1 23.75 -12.35 L23.15 -13.0 Q22.95 -13.4 22.8 -15.4 L22.85 -15.2 23.25 -16.7" fill="#333333" fill-rule="evenodd" stroke="none"/>
  </g>
</svg>
