<?xml version="1.0" encoding="UTF-8" standalone="no"?>
<svg xmlns:ffdec="https://www.free-decompiler.com/flash" xmlns:xlink="http://www.w3.org/1999/xlink" ffdec:objectType="shape" height="108.45px" width="117.9px" xmlns="http://www.w3.org/2000/svg">
  <g transform="matrix(1.0, 0.0, 0.0, 1.0, 58.95, 54.25)">
    <path d="M36.15 -43.6 Q31.05 -46.05 29.15 -46.6 21.85 -48.9 6.65 -50.75 L6.45 -52.55 19.2 -50.0 Q31.5 -47.5 37.1 -45.8 L36.1 -43.65 36.15 -43.6 M4.1 -52.7 L3.75 -49.3 -4.05 -53.0 4.1 -52.7 M12.75 -34.7 L11.85 -34.55 Q11.35 -34.6 11.1 -34.9 10.8 -35.3 10.85 -35.8 10.95 -36.25 11.3 -36.5 L12.15 -36.75 Q12.65 -36.7 12.95 -36.3 L13.2 -35.5 Q13.15 -35.0 12.75 -34.7 M12.3 -13.35 Q12.55 -13.65 12.95 -13.6 13.35 -13.55 13.65 -13.15 L13.85 -12.55 13.5 -11.8 12.7 -11.65 Q12.3 -11.7 12.15 -12.0 11.8 -12.35 11.9 -12.8 11.95 -13.15 12.3 -13.35 M20.95 -20.5 Q21.1 -21.3 21.8 -21.85 22.5 -22.4 23.35 -22.3 24.25 -22.15 24.75 -21.5 25.3 -20.75 25.15 -19.95 25.05 -19.05 24.35 -18.45 23.7 -17.95 22.8 -18.1 21.95 -18.2 21.4 -18.8 20.85 -19.6 20.95 -20.5 M36.15 42.35 Q41.55 43.0 44.4 42.55 45.8 42.45 46.2 42.15 L57.65 44.0 Q54.75 50.3 15.9 45.25 -13.75 41.4 -35.95 34.5 -54.85 28.75 -56.9 24.9 L-37.0 26.85 Q-36.45 31.4 -26.8 34.5 -15.8 38.05 12.05 41.7 L29.2 43.65 36.15 42.35 M17.55 12.1 L16.7 11.6 Q16.45 11.25 16.5 10.7 16.55 10.2 16.9 9.9 17.35 9.6 17.85 9.65 18.4 9.7 18.65 10.1 18.95 10.5 18.9 11.0 18.85 11.55 18.45 11.8 18.1 12.15 17.55 12.1 M-8.45 -2.1 Q-7.75 -2.05 -7.25 -1.25 -6.95 -0.6 -7.1 0.4 -7.2 1.35 -7.7 2.0 -8.35 2.55 -9.05 2.5 -9.75 2.4 -10.1 1.7 -10.55 0.9 -10.45 -0.05 -10.3 -1.05 -9.65 -1.55 -9.15 -2.2 -8.45 -2.1" fill="#6c2b4e" fill-rule="evenodd" stroke="none"/>
    <path d="M-8.95 21.2 Q-9.1 19.1 -5.3 6.7 -0.95 -7.55 -0.35 -10.45 L4.2 -34.6 6.85 -49.95 4.1 -50.3 3.7 -46.5 Q1.55 -29.7 -4.2 -6.85 -8.75 11.4 -12.0 20.5 L-17.9 19.2 -4.15 -38.85 -3.45 -49.25 -11.6 -49.3 -11.75 -52.6 -4.05 -53.0 3.75 -49.3 4.1 -52.7 6.45 -52.55 6.65 -50.75 Q21.85 -48.9 29.15 -46.6 31.05 -46.05 36.15 -43.6 22.75 2.75 20.5 20.05 L20.0 25.85 7.15 23.95 -8.95 21.2 M36.1 -43.65 L37.1 -45.8 Q37.85 -45.6 46.6 -41.25 L45.2 -38.6 44.85 -38.05 36.1 -43.65 M14.75 -44.55 L14.5 -45.45 Q14.1 -45.9 13.6 -45.95 13.1 -46.05 12.7 -45.7 12.25 -45.4 12.2 -44.9 12.15 -44.4 12.5 -43.9 12.8 -43.55 13.3 -43.45 L14.3 -43.65 Q14.7 -44.05 14.75 -44.55 M29.05 -40.6 Q29.3 -42.5 28.4 -43.95 27.5 -45.4 25.95 -45.6 24.4 -45.8 23.2 -44.6 21.9 -43.45 21.65 -41.55 21.4 -39.65 22.35 -38.2 23.2 -36.75 24.75 -36.55 26.3 -36.35 27.55 -37.55 28.8 -38.7 29.05 -40.6 M12.3 -13.35 Q11.95 -13.15 11.9 -12.8 11.8 -12.35 12.15 -12.0 12.3 -11.7 12.7 -11.65 L13.5 -11.8 13.85 -12.55 13.65 -13.15 Q13.35 -13.55 12.95 -13.6 12.55 -13.65 12.3 -13.35 M12.75 -34.7 Q13.15 -35.0 13.2 -35.5 L12.95 -36.3 Q12.65 -36.7 12.15 -36.75 L11.3 -36.5 Q10.95 -36.25 10.85 -35.8 10.8 -35.3 11.1 -34.9 11.35 -34.6 11.85 -34.55 L12.75 -34.7 M12.65 -7.5 Q11.55 -7.65 10.65 -6.95 9.75 -6.25 9.6 -5.15 9.45 -4.0 10.15 -3.1 10.85 -2.15 11.95 -2.0 13.05 -1.85 13.95 -2.6 14.85 -3.3 15.0 -4.45 15.15 -5.55 14.45 -6.45 13.75 -7.35 12.65 -7.5 M6.75 -20.1 Q6.65 -19.45 7.0 -19.0 7.4 -18.55 7.9 -18.5 L8.95 -18.75 Q9.4 -19.1 9.5 -19.75 9.55 -20.35 9.2 -20.75 8.85 -21.25 8.25 -21.35 7.75 -21.4 7.25 -21.0 6.8 -20.7 6.75 -20.1 M20.95 -20.5 Q20.85 -19.6 21.4 -18.8 21.95 -18.2 22.8 -18.1 23.7 -17.95 24.35 -18.45 25.05 -19.05 25.15 -19.95 25.3 -20.75 24.75 -21.5 24.25 -22.15 23.35 -22.3 22.5 -22.4 21.8 -21.85 21.1 -21.3 20.95 -20.5 M57.65 44.0 L46.2 42.15 Q45.8 42.45 44.4 42.55 41.55 43.0 36.15 42.35 38.45 41.45 38.9 38.05 39.05 37.15 38.7 35.5 44.0 36.5 49.85 39.0 56.45 41.7 57.65 44.0 M-37.0 26.85 L-56.9 24.9 Q-55.45 23.9 -50.6 23.2 L-35.8 22.75 -37.0 26.85 M25.1 51.75 L16.45 50.75 17.45 46.6 26.35 47.5 25.1 51.75 M7.65 49.55 L-16.65 45.25 -15.35 41.15 8.6 45.35 7.65 49.55 M-19.55 44.6 L-28.1 42.65 -26.95 38.5 -18.3 40.5 -19.55 44.6 M17.55 12.1 Q18.1 12.15 18.45 11.8 18.85 11.55 18.9 11.0 18.95 10.5 18.65 10.1 18.4 9.7 17.85 9.65 17.35 9.6 16.9 9.9 16.55 10.2 16.5 10.7 16.45 11.25 16.7 11.6 L17.55 12.1 M15.35 16.75 Q14.85 15.85 14.05 15.75 13.25 15.65 12.55 16.4 11.95 17.15 11.8 18.3 11.65 19.5 12.05 20.35 12.5 21.25 13.3 21.35 14.1 21.45 14.85 20.7 15.45 20.0 15.6 18.8 15.75 17.65 15.35 16.75 M0.35 11.7 Q0.75 11.75 1.15 11.25 L1.65 9.95 Q1.75 9.2 1.5 8.6 1.25 8.0 0.85 7.95 0.5 7.9 0.05 8.4 L-0.4 9.7 -0.3 11.05 Q0.0 11.65 0.35 11.7 M-5.95 -13.95 L-6.75 -13.65 Q-7.2 -13.45 -7.25 -12.95 -7.35 -12.4 -7.0 -12.0 L-6.25 -11.6 -5.45 -11.8 Q-5.1 -12.1 -5.0 -12.65 -4.95 -13.15 -5.2 -13.45 -5.5 -13.9 -5.95 -13.95 M-8.45 -2.1 Q-9.15 -2.2 -9.65 -1.55 -10.3 -1.05 -10.45 -0.05 -10.55 0.9 -10.1 1.7 -9.75 2.4 -9.05 2.5 -8.35 2.55 -7.7 2.0 -7.2 1.35 -7.1 0.4 -6.95 -0.6 -7.25 -1.25 -7.75 -2.05 -8.45 -2.1" fill="#481c33" fill-rule="evenodd" stroke="none"/>
    <path d="M-12.0 20.5 Q-8.75 11.4 -4.2 -6.85 1.55 -29.7 3.7 -46.5 L4.1 -50.3 6.85 -49.95 4.2 -34.6 -0.35 -10.45 Q-0.95 -7.55 -5.3 6.7 -9.1 19.1 -8.95 21.2 L-12.0 20.5 M20.0 25.85 L20.5 20.05 Q22.75 2.75 36.15 -43.6 L36.1 -43.65 44.85 -38.05 Q35.1 -13.35 32.75 -5.45 29.5 5.85 26.75 26.55 L20.0 25.85 M-11.75 -52.6 L-11.6 -49.3 -3.45 -49.25 -4.15 -38.85 -17.9 19.2 -23.85 17.65 -21.2 10.5 -22.0 10.1 Q-19.6 1.0 -11.7 -40.3 -11.35 -42.95 -11.7 -49.2 L-21.45 -46.0 Q-21.05 -49.2 -18.25 -51.15 -15.35 -53.05 -11.75 -52.6 M46.6 -41.25 Q48.25 -41.05 49.15 -38.8 50.0 -36.5 49.6 -33.45 L45.2 -38.6 46.6 -41.25 M29.05 -40.6 Q28.8 -38.7 27.55 -37.55 26.3 -36.35 24.75 -36.55 23.2 -36.75 22.35 -38.2 21.4 -39.65 21.65 -41.55 21.9 -43.45 23.2 -44.6 24.4 -45.8 25.95 -45.6 27.5 -45.4 28.4 -43.95 29.3 -42.5 29.05 -40.6 M14.75 -44.55 Q14.7 -44.05 14.3 -43.65 L13.3 -43.45 Q12.8 -43.55 12.5 -43.9 12.15 -44.4 12.2 -44.9 12.25 -45.4 12.7 -45.7 13.1 -46.05 13.6 -45.95 14.1 -45.9 14.5 -45.45 L14.75 -44.55 M6.75 -20.1 Q6.8 -20.7 7.25 -21.0 7.75 -21.4 8.25 -21.35 8.85 -21.25 9.2 -20.75 9.55 -20.35 9.5 -19.75 9.4 -19.1 8.95 -18.75 L7.9 -18.5 Q7.4 -18.55 7.0 -19.0 6.65 -19.45 6.75 -20.1 M12.65 -7.5 Q13.75 -7.35 14.45 -6.45 15.15 -5.55 15.0 -4.45 14.85 -3.3 13.95 -2.6 13.05 -1.85 11.95 -2.0 10.85 -2.15 10.15 -3.1 9.45 -4.0 9.6 -5.15 9.75 -6.25 10.65 -6.95 11.55 -7.65 12.65 -7.5 M44.75 48.35 L43.8 52.75 39.3 52.55 39.95 48.4 44.75 48.35 M36.2 52.4 L25.1 51.75 26.35 47.5 36.9 48.25 36.2 52.4 M16.45 50.75 L7.65 49.55 8.6 45.35 17.45 46.6 16.45 50.75 M-16.65 45.25 L-19.55 44.6 -18.3 40.5 -15.35 41.15 -16.65 45.25 M-28.1 42.65 L-40.35 39.2 -39.4 34.95 -26.95 38.5 -28.1 42.65 M-43.5 38.25 L-49.45 36.1 -49.0 31.8 -42.85 34.05 -43.5 38.25 M0.35 11.7 Q0.0 11.65 -0.3 11.05 L-0.4 9.7 0.05 8.4 Q0.5 7.9 0.85 7.95 1.25 8.0 1.5 8.6 1.75 9.2 1.65 9.95 L1.15 11.25 Q0.75 11.75 0.35 11.7 M15.35 16.75 Q15.75 17.65 15.6 18.8 15.45 20.0 14.85 20.7 14.1 21.45 13.3 21.35 12.5 21.25 12.05 20.35 11.65 19.5 11.8 18.3 11.95 17.15 12.55 16.4 13.25 15.65 14.05 15.75 14.85 15.85 15.35 16.75 M-5.95 -13.95 Q-5.5 -13.9 -5.2 -13.45 -4.95 -13.15 -5.0 -12.65 -5.1 -12.1 -5.45 -11.8 L-6.25 -11.6 -7.0 -12.0 Q-7.35 -12.4 -7.25 -12.95 -7.2 -13.45 -6.75 -13.65 L-5.95 -13.95" fill="#381628" fill-rule="evenodd" stroke="none"/>
    <path d="M-12.0 20.5 L-8.95 21.2 7.15 23.95 20.0 25.85 26.75 26.55 32.5 26.7 38.35 26.5 Q38.5 21.8 39.0 13.25 L39.65 4.55 Q41.35 -8.25 43.7 -14.0 47.15 -22.35 49.6 -33.45 50.0 -36.5 49.15 -38.8 48.25 -41.05 46.6 -41.25 37.85 -45.6 37.1 -45.8 31.5 -47.5 19.2 -50.0 L6.45 -52.55 4.1 -52.7 -4.05 -53.0 -11.75 -52.6 Q-15.35 -53.05 -18.25 -51.15 -21.05 -49.2 -21.45 -46.0 -20.95 -43.6 -22.0 -31.3 -22.85 -21.25 -23.95 -12.75 -24.65 -7.7 -27.85 2.4 -30.8 11.7 -32.2 14.3 L-29.9 15.85 Q-27.5 16.9 -23.85 17.65 L-17.9 19.2 -12.0 20.5 M51.35 -36.35 L49.6 -26.15 Q46.65 -14.35 44.05 -2.5 41.0 11.35 39.2 25.45 L40.8 26.25 40.0 33.65 43.7 34.85 Q44.35 35.95 45.4 36.35 L51.8 38.8 Q56.2 40.6 57.95 42.55 59.05 43.75 58.95 44.6 58.45 48.6 57.75 49.85 56.55 52.3 52.9 53.3 44.45 55.65 14.65 51.75 -26.95 46.3 -46.5 38.65 -59.4 33.55 -58.95 30.0 -58.45 26.15 -57.8 24.65 -56.95 23.0 -55.15 22.45 L-49.65 21.9 -39.8 21.35 Q-39.3 21.3 -38.95 21.05 L-35.6 21.05 -34.0 13.25 -32.8 12.45 Q-29.4 -1.25 -27.2 -15.1 -25.25 -27.7 -23.75 -40.35 L-22.55 -48.3 Q-22.15 -51.15 -16.8 -52.85 -7.65 -55.6 12.8 -52.95 34.05 -50.15 44.65 -43.75 51.75 -39.35 51.35 -36.35 M57.65 44.0 Q56.45 41.7 49.85 39.0 44.0 36.5 38.7 35.5 39.05 37.15 38.9 38.05 38.45 41.45 36.15 42.35 L29.2 43.65 12.05 41.7 Q-15.8 38.05 -26.8 34.5 -36.45 31.4 -37.0 26.85 L-35.8 22.75 -50.6 23.2 Q-55.45 23.9 -56.9 24.9 -54.85 28.75 -35.95 34.5 -13.75 41.4 15.9 45.25 54.75 50.3 57.65 44.0 M43.8 52.75 Q53.55 52.3 54.85 51.45 L56.0 49.75 57.4 46.7 51.35 47.9 44.75 48.35 39.95 48.4 36.9 48.25 26.35 47.5 17.45 46.6 8.6 45.35 -15.35 41.15 -18.3 40.5 -26.95 38.5 -39.4 34.95 -42.85 34.05 -49.0 31.8 -54.9 28.85 -57.25 27.1 -57.75 31.15 -49.45 36.1 -43.5 38.25 -40.35 39.2 -28.1 42.65 -19.55 44.6 -16.65 45.25 7.65 49.55 16.45 50.75 25.1 51.75 36.2 52.4 39.3 52.55 43.8 52.75 M14.8 40.7 L27.15 41.75 37.0 41.1 38.15 29.1 38.3 27.65 35.65 28.1 30.15 27.95 18.15 26.8 Q0.1 24.45 -11.8 22.0 -21.75 19.85 -29.35 17.05 L-32.6 15.5 -33.15 17.55 -36.2 28.15 Q-35.15 30.25 -31.05 31.55 L-26.75 32.5 -16.6 35.3 -4.15 37.85 -2.15 38.15 14.8 40.7" fill="#1f0c16" fill-rule="evenodd" stroke="none"/>
    <path d="M49.6 -33.45 Q47.15 -22.35 43.7 -14.0 41.35 -8.25 39.65 4.55 L39.0 13.25 Q38.5 21.8 38.35 26.5 L32.5 26.7 26.75 26.55 Q29.5 5.85 32.75 -5.45 35.1 -13.35 44.85 -38.05 L45.2 -38.6 49.6 -33.45 M44.75 48.35 L51.35 47.9 57.4 46.7 56.0 49.75 54.85 51.45 Q53.55 52.3 43.8 52.75 L44.75 48.35 M39.3 52.55 L36.2 52.4 36.9 48.25 39.95 48.4 39.3 52.55 M-40.35 39.2 L-43.5 38.25 -42.85 34.05 -39.4 34.95 -40.35 39.2 M-49.45 36.1 L-57.75 31.15 -57.25 27.1 -54.9 28.85 -49.0 31.8 -49.45 36.1 M-21.45 -46.0 L-11.7 -49.2 Q-11.35 -42.95 -11.7 -40.3 -19.6 1.0 -22.0 10.1 L-21.2 10.5 -23.85 17.65 Q-27.5 16.9 -29.9 15.85 L-32.2 14.3 Q-30.8 11.7 -27.85 2.4 -24.65 -7.7 -23.95 -12.75 -22.85 -21.25 -22.0 -31.3 -20.95 -43.6 -21.45 -46.0" fill="#29101e" fill-rule="evenodd" stroke="none"/>
    <path d="M12.05 28.9 Q11.25 28.75 10.65 29.2 10.1 29.7 10.0 30.5 9.9 31.2 10.35 31.85 10.75 32.4 11.55 32.55 12.3 32.65 12.95 32.2 13.55 31.65 13.65 30.95 13.75 30.15 13.25 29.55 12.8 29.0 12.05 28.9 M18.35 29.5 L16.55 35.4 18.05 35.1 19.95 35.8 20.0 36.1 19.95 36.9 Q19.6 39.65 17.4 39.4 16.7 39.3 16.3 38.9 L15.7 38.1 14.8 40.7 -2.15 38.15 -1.65 37.6 -1.45 36.65 -1.4 35.9 -1.5 35.85 -1.65 35.7 Q-1.85 35.4 -2.5 35.3 -3.7 35.15 -4.1 35.75 L-4.3 36.45 Q-4.45 37.45 -4.15 37.85 L-16.6 35.3 -16.6 32.35 Q-16.35 29.4 -15.7 29.5 -16.4 29.4 -16.55 28.2 L-16.55 26.2 -15.9 25.65 Q-14.9 24.95 -13.85 23.75 L18.35 29.5 M9.5 36.15 Q9.0 36.1 8.65 36.35 8.3 36.65 8.2 37.15 8.15 37.55 8.45 37.85 8.75 38.25 9.25 38.3 L10.0 38.05 10.45 37.4 Q10.55 36.9 10.2 36.55 L9.5 36.15 M4.9 34.75 Q5.0 34.1 4.6 33.65 4.25 33.25 3.6 33.15 3.0 33.1 2.55 33.4 2.05 33.75 1.95 34.4 1.9 35.0 2.3 35.45 L3.25 35.95 4.35 35.7 Q4.85 35.35 4.9 34.75 M1.9 28.05 Q1.25 27.25 0.2 27.15 -0.85 27.0 -1.7 27.6 -2.55 28.25 -2.65 29.3 -2.8 30.4 -2.15 31.25 -1.5 32.05 -0.45 32.2 0.6 32.3 1.45 31.7 2.3 31.05 2.45 29.95 2.55 28.9 1.9 28.05 M35.65 28.1 L38.3 27.65 38.15 29.1 34.3 29.4 34.95 29.0 35.4 28.75 35.65 28.1 M24.9 31.45 Q25.55 31.5 26.0 32.0 26.4 32.6 26.3 33.2 26.25 33.9 25.75 34.25 L24.5 34.6 Q23.85 34.5 23.5 34.0 23.05 33.45 23.1 32.75 23.2 32.15 23.75 31.75 24.25 31.35 24.9 31.45 M25.65 38.8 L25.25 39.65 24.3 39.8 23.55 39.45 Q23.2 39.05 23.3 38.5 23.35 38.0 23.75 37.75 24.1 37.4 24.6 37.5 25.15 37.55 25.45 37.95 L25.65 38.8 M-33.15 17.55 L-32.6 15.5 -29.35 17.05 Q-29.25 18.2 -26.95 19.8 -29.85 19.35 -33.15 17.55 M-20.45 23.6 Q-20.05 23.65 -19.7 24.0 L-19.55 24.8 -19.9 25.45 -20.7 25.65 -21.4 25.3 -21.55 24.55 -21.2 23.85 Q-20.85 23.55 -20.45 23.6 M-22.1 29.7 Q-21.5 29.25 -20.85 29.3 -20.2 29.4 -19.85 30.0 -19.4 30.45 -19.5 31.15 -19.55 31.8 -20.15 32.25 -20.65 32.65 -21.3 32.55 -21.95 32.5 -22.4 31.95 -22.7 31.4 -22.65 30.75 -22.55 30.05 -22.1 29.7 M-9.25 33.3 L-8.3 33.1 Q-7.95 32.75 -7.85 32.2 -7.8 31.75 -8.05 31.3 -8.4 30.85 -8.9 30.75 -9.45 30.7 -9.8 31.05 -10.2 31.4 -10.25 31.85 -10.35 32.4 -10.05 32.85 -9.8 33.25 -9.25 33.3 M-7.45 27.1 Q-7.75 26.7 -8.15 26.65 -8.55 26.6 -8.95 26.9 L-9.3 27.55 -9.15 28.3 -8.45 28.7 -7.65 28.5 -7.3 27.85 Q-7.25 27.45 -7.45 27.1" fill="#eec433" fill-rule="evenodd" stroke="none"/>
    <path d="M12.05 28.9 Q12.8 29.0 13.25 29.55 13.75 30.15 13.65 30.95 13.55 31.65 12.95 32.2 12.3 32.65 11.55 32.55 10.75 32.4 10.35 31.85 9.9 31.2 10.0 30.5 10.1 29.7 10.65 29.2 11.25 28.75 12.05 28.9 M29.9 29.85 L18.35 29.5 -13.85 23.75 -23.45 21.2 -26.95 19.8 Q-29.25 18.2 -29.35 17.05 -21.75 19.85 -11.8 22.0 0.1 24.45 18.15 26.8 L30.15 27.95 35.65 28.1 35.4 28.75 34.95 29.0 29.9 29.85 M-4.15 37.85 Q-4.45 37.45 -4.3 36.45 L-4.1 35.75 Q-3.7 35.15 -2.5 35.3 -1.85 35.4 -1.65 35.7 L-1.5 35.85 -1.4 35.9 -1.45 36.65 -1.65 37.6 -2.15 38.15 -4.15 37.85 M1.9 28.05 Q2.55 28.9 2.45 29.95 2.3 31.05 1.45 31.7 0.6 32.3 -0.45 32.2 -1.5 32.05 -2.15 31.25 -2.8 30.4 -2.65 29.3 -2.55 28.25 -1.7 27.6 -0.85 27.0 0.2 27.15 1.25 27.25 1.9 28.05 M4.9 34.75 Q4.85 35.35 4.35 35.7 L3.25 35.95 2.3 35.45 Q1.9 35.0 1.95 34.4 2.05 33.75 2.55 33.4 3.0 33.1 3.6 33.15 4.25 33.25 4.6 33.65 5.0 34.1 4.9 34.75 M9.5 36.15 L10.2 36.55 Q10.55 36.9 10.45 37.4 L10.0 38.05 9.25 38.3 Q8.75 38.25 8.45 37.85 8.15 37.55 8.2 37.15 8.3 36.65 8.65 36.35 9.0 36.1 9.5 36.15 M-7.45 27.1 Q-7.25 27.45 -7.3 27.85 L-7.65 28.5 -8.45 28.7 -9.15 28.3 -9.3 27.55 -8.95 26.9 Q-8.55 26.6 -8.15 26.65 -7.75 26.7 -7.45 27.1 M-9.25 33.3 Q-9.8 33.25 -10.05 32.85 -10.35 32.4 -10.25 31.85 -10.2 31.4 -9.8 31.05 -9.45 30.7 -8.9 30.75 -8.4 30.85 -8.05 31.3 -7.8 31.75 -7.85 32.2 -7.95 32.75 -8.3 33.1 L-9.25 33.3" fill="#f9ee71" fill-rule="evenodd" stroke="none"/>
    <path d="M14.8 40.7 L15.7 38.1 16.3 38.9 Q16.7 39.3 17.4 39.4 19.6 39.65 19.95 36.9 L20.0 36.1 19.95 35.8 18.05 35.1 16.55 35.4 18.35 29.5 29.9 29.85 29.1 35.85 29.75 35.7 30.9 36.15 Q31.75 36.7 31.65 37.6 31.35 40.0 27.9 38.8 L27.15 41.75 14.8 40.7 M-13.85 23.75 Q-14.9 24.95 -15.9 25.65 L-16.55 26.2 -16.55 28.2 Q-16.4 29.4 -15.7 29.5 -16.35 29.4 -16.6 32.35 L-16.6 35.3 -26.75 32.5 -23.45 21.2 -13.85 23.75 M33.35 34.25 L32.4 34.55 Q31.85 34.45 31.6 34.0 31.3 33.65 31.35 33.15 31.45 32.65 31.8 32.3 32.2 31.95 32.75 32.05 33.25 32.1 33.55 32.55 33.85 32.95 33.75 33.45 L33.35 34.25 M25.65 38.8 L25.45 37.95 Q25.15 37.55 24.6 37.5 24.1 37.4 23.75 37.75 23.35 38.0 23.3 38.5 23.2 39.05 23.55 39.45 L24.3 39.8 25.25 39.65 25.65 38.8 M24.9 31.45 Q24.25 31.35 23.75 31.75 23.2 32.15 23.1 32.75 23.05 33.45 23.5 34.0 23.85 34.5 24.5 34.6 L25.75 34.25 Q26.25 33.9 26.3 33.2 26.4 32.6 26.0 32.0 25.55 31.5 24.9 31.45 M35.0 39.2 L34.4 39.3 33.95 39.05 33.7 38.45 Q33.75 38.15 34.1 37.95 34.3 37.75 34.6 37.75 L35.15 38.1 35.25 38.65 35.0 39.2 M-31.9 23.65 Q-31.5 23.3 -30.95 23.35 -30.45 23.45 -30.2 23.9 -29.85 24.35 -29.9 24.85 -29.95 25.35 -30.4 25.7 -30.75 26.0 -31.25 25.9 L-32.1 25.45 -32.35 24.5 Q-32.3 24.0 -31.9 23.65 M-26.65 23.1 Q-26.4 23.45 -26.45 23.85 L-26.85 24.5 -27.55 24.7 -28.2 24.35 -28.4 23.6 -28.0 22.95 Q-27.75 22.65 -27.3 22.75 -26.9 22.8 -26.65 23.1 M-20.45 23.6 Q-20.85 23.55 -21.2 23.85 L-21.55 24.55 -21.4 25.3 -20.7 25.65 -19.9 25.45 -19.55 24.8 -19.7 24.0 Q-20.05 23.65 -20.45 23.6 M-22.1 29.7 Q-22.55 30.05 -22.65 30.75 -22.7 31.4 -22.4 31.95 -21.95 32.5 -21.3 32.55 -20.65 32.65 -20.15 32.25 -19.55 31.8 -19.5 31.15 -19.4 30.45 -19.85 30.0 -20.2 29.4 -20.85 29.3 -21.5 29.25 -22.1 29.7 M-29.05 27.7 Q-28.45 27.2 -27.7 27.3 -27.0 27.4 -26.55 28.0 -26.05 28.6 -26.15 29.35 -26.25 30.0 -26.85 30.5 L-28.2 30.85 Q-28.95 30.75 -29.35 30.2 -29.85 29.5 -29.75 28.85 -29.65 28.1 -29.05 27.7" fill="#d5981a" fill-rule="evenodd" stroke="none"/>
    <path d="M27.15 41.75 L27.9 38.8 Q31.35 40.0 31.65 37.6 31.75 36.7 30.9 36.15 L29.75 35.7 29.1 35.85 29.9 29.85 34.95 29.0 34.3 29.4 38.15 29.1 37.0 41.1 27.15 41.75 M33.35 34.25 L33.75 33.45 Q33.85 32.95 33.55 32.55 33.25 32.1 32.75 32.05 32.2 31.95 31.8 32.3 31.45 32.65 31.35 33.15 31.3 33.65 31.6 34.0 31.85 34.45 32.4 34.55 L33.35 34.25 M35.0 39.2 L35.25 38.65 35.15 38.1 34.6 37.75 Q34.3 37.75 34.1 37.95 33.75 38.15 33.7 38.45 L33.95 39.05 34.4 39.3 35.0 39.2 M-31.9 23.65 Q-32.3 24.0 -32.35 24.5 L-32.1 25.45 -31.25 25.9 Q-30.75 26.0 -30.4 25.7 -29.95 25.35 -29.9 24.85 -29.85 24.35 -30.2 23.9 -30.45 23.45 -30.95 23.35 -31.5 23.3 -31.9 23.65 M-33.15 17.55 Q-29.85 19.35 -26.95 19.8 L-23.45 21.2 -26.75 32.5 -31.05 31.55 Q-35.15 30.25 -36.2 28.15 L-33.15 17.55 M-26.65 23.1 Q-26.9 22.8 -27.3 22.75 -27.75 22.65 -28.0 22.95 L-28.4 23.6 -28.2 24.35 -27.55 24.7 -26.85 24.5 -26.45 23.85 Q-26.4 23.45 -26.65 23.1 M-29.05 27.7 Q-29.65 28.1 -29.75 28.85 -29.85 29.5 -29.35 30.2 -28.95 30.75 -28.2 30.85 L-26.85 30.5 Q-26.25 30.0 -26.15 29.35 -26.05 28.6 -26.55 28.0 -27.0 27.4 -27.7 27.3 -28.45 27.2 -29.05 27.7" fill="#b77215" fill-rule="evenodd" stroke="none"/>
  </g>
</svg>
