<?xml version="1.0" encoding="UTF-8" standalone="no"?>
<svg xmlns:ffdec="https://www.free-decompiler.com/flash" xmlns:xlink="http://www.w3.org/1999/xlink" ffdec:objectType="shape" height="58.25px" width="51.2px" xmlns="http://www.w3.org/2000/svg">
  <g transform="matrix(1.0, 0.0, 0.0, 1.0, 22.0, 7.05)">
    <path d="M-8.9 -7.0 L-1.7 -6.35 Q4.3 -5.1 5.2 -3.3 17.4 18.65 22.9 29.55 28.7 41.0 29.1 44.1 29.45 46.2 28.2 48.15 26.65 50.65 23.15 51.15 21.75 51.35 18.75 50.2 15.5 48.85 13.35 46.9 14.1 47.25 13.05 46.4 L10.8 44.55 Q4.45 39.0 -4.55 30.45 L-19.3 16.3 -21.05 13.85 Q-21.75 12.45 -21.85 11.7 -22.35 8.35 -21.35 4.65 -20.5 1.45 -18.9 -1.0 -19.65 0.55 -20.25 3.8 -20.8 6.8 -20.65 7.85 -20.25 10.35 -18.95 11.5 -15.15 14.65 -9.55 21.85 4.3 34.65 14.9 45.45 17.75 48.15 19.15 48.85 20.45 49.5 22.3 49.2 24.1 48.95 26.0 47.1 L26.1 47.1 Q27.4 46.2 27.2 45.05 24.6 37.3 19.95 30.15 14.1 21.05 9.8 11.0 5.95 2.2 1.95 -3.3 0.8 -4.8 -3.35 -6.15 -6.45 -7.15 -8.9 -7.0" fill="#603f2b" fill-rule="evenodd" stroke="none"/>
    <path d="M26.0 47.1 L26.05 46.0 26.1 47.1 26.0 47.1" fill="#c18753" fill-rule="evenodd" stroke="none"/>
    <path d="M-9.55 21.85 Q-13.05 16.95 -17.35 7.0 -17.8 3.8 -14.4 -0.1 -11.6 -3.35 -10.3 -3.55 -7.45 -3.95 -5.15 -2.3 -2.8 -0.5 0.8 4.9 L26.0 47.1 Q24.1 48.95 22.3 49.2 20.45 49.5 19.15 48.85 17.75 48.15 14.9 45.45 4.3 34.65 -9.55 21.85" fill="#f1ba87" fill-rule="evenodd" stroke="none"/>
    <path d="M-18.9 -1.0 Q-13.8 -5.85 -10.9 -6.75 L-8.9 -7.0 Q-6.45 -7.15 -3.35 -6.15 0.8 -4.8 1.95 -3.3 5.95 2.2 9.8 11.0 14.1 21.05 19.95 30.15 24.6 37.3 27.2 45.05 27.4 46.2 26.1 47.1 L26.05 46.0 26.0 47.1 0.8 4.9 Q-2.8 -0.5 -5.15 -2.3 -7.45 -3.95 -10.3 -3.55 -11.6 -3.35 -14.4 -0.1 -17.8 3.8 -17.35 7.0 -13.05 16.95 -9.55 21.85 -15.15 14.65 -18.95 11.5 -20.25 10.35 -20.65 7.85 -20.8 6.8 -20.25 3.8 -19.65 0.55 -18.9 -1.0" fill="#db9c64" fill-rule="evenodd" stroke="none"/>
  </g>
</svg>
