<?xml version="1.0" encoding="UTF-8" standalone="no"?>
<svg xmlns:ffdec="https://www.free-decompiler.com/flash" xmlns:xlink="http://www.w3.org/1999/xlink" ffdec:objectType="shape" height="84.85px" width="89.85px" xmlns="http://www.w3.org/2000/svg">
  <g transform="matrix(1.0, 0.0, 0.0, 1.0, 44.95, 42.45)">
    <path d="M20.5 -40.4 Q21.8 -40.05 22.15 -38.8 22.55 -37.55 21.7 -36.9 20.7 -36.7 20.05 -37.4 19.25 -38.4 19.85 -39.45 L20.5 -40.4 M39.85 -29.8 Q40.25 -28.55 39.4 -27.9 38.4 -27.7 37.75 -28.4 36.95 -29.4 37.55 -30.45 L38.2 -31.4 Q39.5 -31.05 39.85 -29.8 M16.35 -22.8 L17.6 -22.05 18.0 -21.2 Q18.4 -19.95 17.55 -19.3 L17.4 -19.25 16.3 -19.5 15.9 -19.8 15.55 -20.4 Q15.3 -21.1 15.7 -21.85 L16.35 -22.8 M16.85 -12.95 L16.9 -13.25 16.9 -13.7 17.85 -14.0 18.0 -13.75 18.8 -8.0 19.6 -1.75 Q20.4 2.55 20.8 6.2 21.35 11.3 20.5 11.55 L20.4 11.55 Q19.45 8.85 18.15 0.45 L18.1 0.25 18.0 -0.5 18.0 -0.7 17.9 -1.7 17.25 -10.2 17.2 -10.2 16.9 -12.65 16.85 -12.95 M9.25 3.05 L15.35 8.25 16.2 10.45 18.7 15.65 18.8 15.75 19.1 17.95 19.8 21.8 18.95 22.2 Q17.25 19.8 14.4 14.75 10.35 7.75 9.55 5.15 L9.2 3.05 9.25 3.05 M15.75 24.0 L14.25 24.65 11.45 20.3 6.85 11.8 2.95 5.35 Q0.0 0.5 -0.7 -1.85 L-1.8 -4.2 -2.45 -5.45 -1.9 -5.75 -1.4 -6.0 -0.05 -4.75 -0.05 -4.7 3.65 0.45 Q13.95 15.35 15.75 21.25 L15.75 22.65 15.75 24.0 M25.55 31.15 Q24.3 31.95 23.0 32.7 21.95 30.75 20.4 27.0 L19.4 23.25 20.15 22.85 20.6 22.55 21.55 22.0 22.3 23.25 25.55 31.15 M20.7 33.85 L20.4 34.05 Q20.0 34.2 19.75 34.4 L18.3 35.0 16.7 31.1 14.7 25.65 Q15.2 25.35 15.8 25.15 L16.75 24.65 17.25 24.4 17.3 24.5 Q19.25 29.05 20.05 31.85 L20.7 33.85 M-3.1 -35.9 Q-1.8 -35.55 -1.45 -34.3 -1.05 -33.05 -1.9 -32.4 -2.9 -32.2 -3.55 -32.9 -4.35 -33.9 -3.75 -34.95 L-3.1 -35.9 M-24.05 -23.7 Q-23.65 -22.45 -24.5 -21.8 -25.5 -21.6 -26.15 -22.3 -26.95 -23.3 -26.35 -24.35 L-25.7 -25.3 Q-24.4 -24.95 -24.05 -23.7 M-38.4 -7.4 Q-39.2 -8.4 -38.6 -9.45 L-37.95 -10.4 Q-36.65 -10.05 -36.3 -8.8 -35.9 -7.55 -36.75 -6.9 -37.75 -6.7 -38.4 -7.4 M-25.75 -1.1 L-26.2 -2.2 -25.95 -3.15 -25.3 -4.1 Q-24.35 -3.85 -23.9 -3.1 L-23.65 -2.5 Q-23.45 -1.85 -23.55 -1.3 L-24.1 -0.6 Q-25.1 -0.4 -25.75 -1.1 M-4.15 -14.2 Q-2.85 -13.85 -2.5 -12.6 -2.1 -11.35 -2.95 -10.7 -3.95 -10.5 -4.6 -11.2 -5.4 -12.2 -4.8 -13.25 L-4.15 -14.2 M-39.55 5.05 L-38.9 4.1 Q-37.6 4.45 -37.25 5.7 -37.05 6.3 -37.15 6.8 -37.25 7.25 -37.7 7.6 L-38.3 7.65 Q-38.9 7.6 -39.35 7.1 -40.15 6.1 -39.55 5.05" fill="#fff1bf" fill-rule="evenodd" stroke="none"/>
    <path d="M20.5 -40.4 L19.85 -39.45 Q19.25 -38.4 20.05 -37.4 20.7 -36.7 21.7 -36.9 22.55 -37.55 22.15 -38.8 21.8 -40.05 20.5 -40.4 M18.2 -40.5 Q20.15 -41.4 22.05 -40.45 23.65 -39.5 24.15 -37.65 23.85 -36.3 22.8 -36.05 20.55 -35.55 18.85 -37.0 17.2 -38.5 18.2 -40.5 M35.9 -31.5 Q37.85 -32.4 39.75 -31.45 41.35 -30.5 41.85 -28.65 41.55 -27.3 40.5 -27.05 38.25 -26.55 36.55 -28.0 34.9 -29.5 35.9 -31.5 M39.85 -29.8 Q39.5 -31.05 38.2 -31.4 L37.55 -30.45 Q36.95 -29.4 37.75 -28.4 38.4 -27.7 39.4 -27.9 40.25 -28.55 39.85 -29.8 M-5.4 -36.0 Q-3.45 -36.9 -1.55 -35.95 0.05 -35.0 0.55 -33.15 0.25 -31.8 -0.8 -31.55 L-2.9 -31.5 Q-3.9 -31.75 -4.75 -32.5 L-5.05 -32.8 Q-6.3 -34.2 -5.4 -36.0 M14.05 -22.9 Q15.85 -23.75 17.65 -22.95 L17.9 -22.85 19.2 -21.7 20.0 -20.05 Q19.75 -18.9 19.0 -18.55 L18.65 -18.45 17.35 -18.3 17.05 -18.35 Q15.75 -18.5 14.7 -19.4 13.05 -20.9 14.05 -22.9 M16.35 -22.8 L15.7 -21.85 Q15.3 -21.1 15.55 -20.4 L15.9 -19.8 16.3 -19.5 17.4 -19.25 17.55 -19.3 Q18.4 -19.95 18.0 -21.2 L17.6 -22.05 16.35 -22.8 M20.4 11.55 L20.5 11.55 Q21.35 11.3 20.8 6.2 20.4 2.55 19.6 -1.75 L18.8 -8.0 18.0 -13.75 17.85 -14.0 20.45 -10.05 20.55 -9.95 20.85 -9.55 21.5 -0.95 Q22.1 9.35 22.65 11.15 23.3 13.25 23.95 19.25 L21.2 20.95 Q20.2 17.4 19.3 11.6 L19.75 11.95 Q19.95 12.15 20.3 12.15 L20.6 12.05 20.4 11.55 M-0.7 -16.75 L1.3 -13.6 1.55 -13.2 Q5.0 -7.75 5.7 -7.95 L5.85 -7.9 6.15 -7.4 Q3.95 -6.6 1.95 -5.6 L0.75 -7.15 0.55 -8.35 0.8 -9.1 Q1.45 -11.3 0.3 -13.3 L-0.5 -14.5 -0.9 -16.65 -0.7 -16.75 M-0.05 -4.7 L0.65 -4.05 0.7 -4.05 9.25 3.05 9.2 3.05 9.55 5.15 Q10.35 7.75 14.4 14.75 17.25 19.8 18.95 22.2 L18.1 22.75 15.75 24.0 15.75 22.65 15.75 21.25 Q13.95 15.35 3.65 0.45 L-0.05 -4.7 M15.35 8.25 L17.75 10.2 17.75 10.25 18.8 15.75 18.7 15.65 16.2 10.45 15.35 8.25 M5.45 -5.95 Q6.25 -3.9 7.4 -1.5 7.0 -1.35 7.55 -0.7 L7.8 -0.35 2.45 -4.7 5.45 -5.95 M14.25 24.65 L10.45 26.3 9.0 26.8 8.45 27.0 4.5 20.8 0.8 15.5 0.8 15.4 -2.85 -5.3 -2.45 -5.45 -1.8 -4.2 -0.7 -1.85 Q0.0 0.5 2.95 5.35 L6.85 11.8 11.45 20.3 14.25 24.65 M5.5 28.0 L4.7 28.3 3.45 28.65 3.4 28.65 3.4 28.7 1.55 29.15 Q-0.9 27.05 -3.6 23.9 L-9.55 16.15 Q-14.05 10.5 -20.45 6.3 L-23.25 4.45 -23.05 4.35 Q-21.9 3.75 -21.15 2.75 -18.75 4.15 -15.6 6.25 L-15.5 6.35 -8.35 11.7 -2.55 16.8 Q4.0 23.15 5.45 27.95 L5.5 28.0 M28.4 29.15 L25.7 31.1 25.55 31.15 22.3 23.25 21.55 22.0 21.6 21.95 24.95 19.85 25.55 20.8 26.9 23.9 28.4 29.15 M23.0 32.7 L20.7 33.85 20.05 31.85 Q19.25 29.05 17.3 24.5 L17.25 24.4 18.55 23.8 19.4 23.25 20.4 27.0 Q21.95 30.75 23.0 32.7 M18.3 35.0 L14.9 36.5 14.65 36.6 12.6 37.4 11.2 34.3 9.2 29.25 8.8 28.05 11.2 27.2 14.7 25.65 16.7 31.1 18.3 35.0 M9.95 38.25 L9.05 38.6 7.25 39.05 5.65 39.5 4.45 36.9 1.65 30.25 6.0 29.0 7.8 32.55 9.95 38.25 M-34.3 -7.65 Q-34.6 -6.3 -35.65 -6.05 -37.9 -5.55 -39.6 -7.0 -41.25 -8.5 -40.25 -10.5 -38.3 -11.4 -36.4 -10.45 -34.8 -9.5 -34.3 -7.65 M-3.1 -35.9 L-3.75 -34.95 Q-4.35 -33.9 -3.55 -32.9 -2.9 -32.2 -1.9 -32.4 -1.05 -33.05 -1.45 -34.3 -1.8 -35.55 -3.1 -35.9 M-28.0 -25.4 Q-26.05 -26.3 -24.15 -25.35 -22.55 -24.4 -22.05 -22.55 -22.35 -21.2 -23.4 -20.95 -25.65 -20.45 -27.35 -21.9 -29.0 -23.4 -28.0 -25.4 M-24.05 -23.7 Q-24.4 -24.95 -25.7 -25.3 L-26.35 -24.35 Q-26.95 -23.3 -26.15 -22.3 -25.5 -21.6 -24.5 -21.8 -23.65 -22.45 -24.05 -23.7 M-38.4 -7.4 Q-37.75 -6.7 -36.75 -6.9 -35.9 -7.55 -36.3 -8.8 -36.65 -10.05 -37.95 -10.4 L-38.6 -9.45 Q-39.2 -8.4 -38.4 -7.4 M-21.65 -1.35 L-21.85 -0.7 Q-22.25 0.05 -23.0 0.25 L-23.95 0.4 Q-25.6 0.45 -26.95 -0.7 L-27.35 -1.15 Q-27.95 -1.9 -27.95 -2.7 L-27.6 -4.15 -27.6 -4.2 Q-25.65 -5.1 -23.75 -4.15 -22.7 -3.55 -22.15 -2.55 L-21.65 -1.35 M-25.75 -1.1 Q-25.1 -0.4 -24.1 -0.6 L-23.55 -1.3 Q-23.45 -1.85 -23.65 -2.5 L-23.9 -3.1 Q-24.35 -3.85 -25.3 -4.1 L-25.95 -3.15 -26.2 -2.2 -25.75 -1.1 M-6.45 -14.3 Q-4.5 -15.2 -2.6 -14.25 L-2.05 -13.9 Q-0.9 -13.0 -0.5 -11.45 -0.75 -10.45 -1.35 -10.05 L-1.85 -9.85 -3.45 -9.75 -5.2 -10.35 -5.8 -10.8 Q-7.45 -12.3 -6.45 -14.3 M-4.15 -14.2 L-4.8 -13.25 Q-5.4 -12.2 -4.6 -11.2 -3.95 -10.5 -2.95 -10.7 -2.1 -11.35 -2.5 -12.6 -2.85 -13.85 -4.15 -14.2 M-39.55 5.05 Q-40.15 6.1 -39.35 7.1 -38.9 7.6 -38.3 7.65 L-37.7 7.6 Q-37.25 7.25 -37.15 6.8 -37.05 6.3 -37.25 5.7 -37.6 4.45 -38.9 4.1 L-39.55 5.05 M-35.25 6.85 L-35.45 7.55 Q-35.85 8.25 -36.6 8.45 L-37.55 8.6 Q-39.25 8.6 -40.55 7.5 -42.2 6.0 -41.2 4.0 -39.25 3.1 -37.35 4.05 -35.75 5.0 -35.25 6.85" fill="#ffdf71" fill-rule="evenodd" stroke="none"/>
    <path d="M24.95 -39.5 Q26.1 -37.5 25.45 -35.3 24.8 -33.05 22.75 -31.95 21.8 -31.45 20.85 -31.25 L29.45 -14.3 34.9 -23.0 Q33.6 -23.75 32.9 -25.2 31.75 -27.2 32.4 -29.45 33.05 -31.65 35.1 -32.75 37.15 -33.85 39.4 -33.2 41.6 -32.55 42.65 -30.5 43.8 -28.5 43.15 -26.3 42.5 -24.05 40.45 -22.95 39.05 -22.2 37.65 -22.2 37.75 -12.85 39.7 -5.7 L40.55 -4.25 41.95 -1.2 42.05 -0.95 41.95 -0.9 41.95 -0.75 43.55 2.6 43.65 2.95 43.85 3.2 43.95 3.45 44.05 3.9 44.35 4.3 Q45.0 6.35 44.9 8.95 44.45 17.35 34.5 26.4 24.6 35.3 11.05 39.65 -2.6 44.1 -11.85 41.4 -16.15 40.2 -18.3 37.95 L-18.55 37.55 -18.9 37.3 Q-20.2 35.65 -20.75 33.6 L-20.8 33.45 -21.0 33.1 -23.6 28.45 -23.7 28.05 -24.0 27.7 -24.7 25.55 -35.3 11.6 Q-35.9 12.15 -36.65 12.55 -38.7 13.7 -40.9 13.05 -43.15 12.4 -44.2 10.3 -45.35 8.3 -44.7 6.05 -44.05 3.85 -42.0 2.75 -39.95 1.65 -37.7 2.3 -35.5 2.95 -34.45 5.0 -33.55 6.6 -33.75 8.35 L-28.0 11.0 Q-30.6 5.2 -35.3 -2.15 L-35.7 -1.95 Q-37.75 -0.8 -39.95 -1.45 -42.2 -2.1 -43.25 -4.2 -44.4 -6.2 -43.75 -8.45 -43.1 -10.65 -41.05 -11.75 -39.0 -12.85 -36.75 -12.2 -34.55 -11.55 -33.5 -9.5 -32.35 -7.5 -33.0 -5.3 L-33.0 -5.2 -29.6 -4.55 Q-29.1 -5.1 -28.4 -5.45 -26.35 -6.55 -24.1 -5.9 -21.9 -5.25 -20.85 -3.2 L-20.3 -1.9 -20.05 -1.8 Q-22.65 -11.55 -24.85 -16.25 L-27.7 -16.35 Q-29.95 -17.0 -31.0 -19.1 -32.15 -21.1 -31.5 -23.35 -30.85 -25.55 -28.8 -26.65 -26.75 -27.75 -24.5 -27.1 -22.3 -26.45 -21.25 -24.4 -20.1 -22.4 -20.75 -20.2 -21.0 -19.4 -21.4 -18.7 -15.9 -16.4 -10.0 -12.05 L-9.95 -12.25 Q-9.3 -14.45 -7.25 -15.55 -5.2 -16.65 -2.95 -16.0 L-2.4 -15.8 -4.45 -26.8 -5.1 -26.95 Q-7.35 -27.6 -8.4 -29.7 -9.55 -31.7 -8.9 -33.95 -8.25 -36.15 -6.2 -37.25 -4.15 -38.35 -1.9 -37.7 0.3 -37.05 1.35 -35.0 2.5 -33.0 1.85 -30.8 1.45 -29.5 0.65 -28.55 L10.35 -18.85 Q10.25 -19.85 10.55 -20.85 11.2 -23.05 13.25 -24.15 15.3 -25.25 17.55 -24.6 L17.75 -24.5 18.25 -31.5 Q16.2 -32.2 15.2 -34.2 14.05 -36.2 14.7 -38.45 15.35 -40.65 17.4 -41.75 19.45 -42.85 21.7 -42.2 23.9 -41.55 24.95 -39.5 M24.15 -37.65 Q23.65 -39.5 22.05 -40.45 20.15 -41.4 18.2 -40.5 L17.3 -39.9 Q15.2 -37.65 16.55 -34.95 17.1 -33.7 18.35 -33.1 L18.95 -32.9 20.15 -32.7 Q21.15 -32.7 22.1 -33.25 23.1 -33.75 23.65 -34.9 L24.05 -35.8 24.15 -37.65 M41.85 -28.65 Q41.35 -30.5 39.75 -31.45 37.85 -32.4 35.9 -31.5 L35.0 -30.9 Q32.9 -28.65 34.25 -25.95 34.75 -24.85 35.7 -24.3 36.15 -24.05 36.65 -23.9 L37.65 -23.7 Q38.75 -23.65 39.8 -24.25 40.8 -24.75 41.35 -25.9 L41.75 -26.8 41.85 -28.65 M0.45 -31.3 L0.55 -33.15 Q0.05 -35.0 -1.55 -35.95 -3.45 -36.9 -5.4 -36.0 L-6.3 -35.4 Q-8.4 -33.15 -7.05 -30.45 -6.35 -28.95 -4.75 -28.4 L-4.65 -28.4 -3.05 -28.2 Q-2.25 -28.3 -1.5 -28.75 L-1.2 -28.9 -0.45 -29.55 0.05 -30.4 0.45 -31.3 M25.55 -18.85 L19.95 -31.2 19.9 -31.2 19.35 -23.7 Q20.25 -23.0 20.8 -21.9 21.95 -19.9 21.3 -17.7 20.75 -15.85 19.3 -14.8 L21.7 -11.1 27.05 -11.25 31.7 -10.45 33.15 -9.95 35.05 -21.25 30.4 -12.55 29.85 -12.25 29.3 -12.25 29.25 -12.3 28.75 -12.35 Q28.45 -12.5 28.3 -12.8 L25.55 -18.85 M20.0 -20.05 L19.2 -21.7 17.9 -22.85 17.65 -22.95 Q15.85 -23.75 14.05 -22.9 L13.15 -22.3 Q11.05 -20.05 12.4 -17.35 13.1 -15.8 14.8 -15.3 L14.95 -15.25 16.6 -15.15 17.1 -15.25 17.95 -15.65 18.8 -16.25 19.5 -17.3 19.9 -18.2 20.0 -20.05 M16.9 -13.7 L16.75 -13.7 16.85 -12.95 16.9 -12.65 17.2 -10.2 17.25 -10.2 17.9 -1.7 18.0 -0.7 18.0 -0.5 18.1 0.25 18.15 0.45 Q19.45 8.85 20.4 11.55 L20.6 12.05 20.3 12.15 Q19.95 12.15 19.75 11.95 L19.3 11.6 17.75 10.25 17.75 10.2 15.35 8.25 9.25 3.05 0.7 -4.05 0.65 -4.05 -0.05 -4.7 -0.05 -4.75 -1.4 -6.0 -1.9 -5.75 -2.45 -5.45 -2.85 -5.3 0.8 15.4 0.8 15.5 1.3 18.6 1.25 19.1 0.9 19.4 0.7 19.45 -2.55 16.8 -8.35 11.7 -15.5 6.35 -15.6 6.25 Q-18.75 4.15 -21.15 2.75 -21.9 3.75 -23.05 4.35 L-23.25 4.45 -23.45 4.55 Q-21.45 7.95 -20.2 11.45 L-19.7 13.1 -19.45 13.75 -18.2 18.1 -17.1 22.4 -17.05 22.75 -16.45 25.6 -16.9 25.7 -17.35 25.55 -24.85 19.7 -24.9 19.6 -32.3 12.8 -23.35 24.7 -23.2 24.95 -23.0 25.35 -22.9 25.6 -22.55 25.85 -22.3 26.25 -21.2 27.95 -20.0 28.5 -16.05 30.05 -11.9 30.65 -10.35 30.75 -10.25 30.75 -6.1 30.6 -3.95 30.25 -2.65 30.1 1.55 29.15 3.4 28.7 3.45 28.65 4.7 28.3 5.5 28.0 6.0 27.85 8.45 27.0 9.0 26.8 10.45 26.3 14.25 24.65 15.75 24.0 18.1 22.75 18.95 22.2 19.8 21.8 21.2 20.95 23.95 19.25 27.9 16.3 29.05 15.35 29.2 15.2 30.4 14.05 32.6 12.0 32.7 11.9 33.3 11.25 33.9 10.6 33.95 10.55 34.65 9.65 Q38.75 4.75 39.35 0.1 L39.4 -0.15 39.35 -0.25 39.3 -2.15 39.0 -3.1 38.75 -4.0 38.5 -4.45 Q36.95 -9.2 36.3 -15.15 L36.1 -17.7 34.55 -8.85 34.0 -1.85 33.75 0.15 33.6 4.9 33.2 4.65 27.9 -1.5 24.15 -5.75 20.85 -9.55 20.55 -9.95 20.45 -10.05 17.85 -14.0 16.9 -13.7 M-0.9 -16.65 L-0.5 -14.5 0.3 -13.3 Q1.45 -11.3 0.8 -9.1 L0.55 -8.35 0.75 -7.15 1.95 -5.6 Q3.95 -6.6 6.15 -7.4 L6.65 -7.55 7.7 -7.9 8.75 -8.3 9.05 -8.35 10.5 -8.8 15.45 -10.4 15.35 -11.5 15.05 -11.5 14.6 -11.8 Q6.6 -21.9 -0.1 -27.9 L-0.85 -27.45 Q-1.8 -26.9 -2.8 -26.75 L-2.65 -26.0 -1.7 -20.9 -1.6 -20.85 -1.45 -19.45 -1.1 -17.35 -0.9 -16.65 M5.45 -5.95 L2.45 -4.7 7.8 -0.35 7.55 -0.7 Q7.0 -1.35 7.4 -1.5 7.6 -0.5 8.1 -0.3 L9.5 -0.45 9.55 -0.5 9.65 -0.55 10.0 -0.8 10.15 -0.85 10.2 -0.9 10.25 -1.0 10.35 -1.0 12.25 -1.75 12.7 -1.9 14.9 -2.45 15.05 -2.5 15.45 -2.75 15.95 -2.9 15.9 -3.05 16.15 -3.15 15.65 -9.35 10.85 -7.75 9.35 -7.3 5.45 -5.95 M10.95 -0.05 L9.3 1.0 13.7 4.9 17.9 8.4 18.15 8.2 Q17.45 6.15 16.9 2.35 L16.15 -2.25 Q13.35 -1.3 10.95 -0.05 M29.1 -5.65 L29.15 -5.65 31.65 -5.25 32.45 -4.95 32.55 -4.85 32.9 -8.9 31.45 -9.4 28.35 -10.0 Q25.6 -10.3 22.55 -10.05 L26.1 -6.0 26.1 -5.85 26.2 -5.85 26.5 -5.5 26.6 -5.55 27.25 -5.75 27.3 -5.7 29.1 -5.65 M27.15 -4.55 L27.65 -4.05 29.45 -2.05 31.2 0.1 Q32.35 1.7 32.65 1.55 L32.9 1.35 Q32.6 0.35 32.5 -2.75 L32.45 -3.6 32.45 -3.65 32.45 -4.15 28.8 -4.5 27.15 -4.55 M31.8 -0.4 L31.8 -0.3 31.75 -0.4 31.8 -0.4 M36.55 22.05 L38.0 20.4 Q42.8 14.45 43.25 8.85 43.4 6.55 42.75 4.9 L42.75 4.55 42.5 4.2 42.45 4.1 42.4 4.1 40.55 0.15 40.45 0.0 40.45 0.15 Q39.85 5.6 34.65 11.4 L33.45 12.7 30.5 15.5 29.75 16.15 28.1 17.5 24.95 19.85 21.6 21.95 21.55 22.0 20.6 22.55 20.15 22.85 19.4 23.25 18.55 23.8 17.25 24.4 16.75 24.65 15.8 25.15 Q15.2 25.35 14.7 25.65 L11.2 27.2 8.8 28.05 6.25 28.9 6.0 29.0 1.65 30.25 -2.6 31.2 -5.05 31.55 -5.65 31.65 -10.05 31.85 -11.75 31.75 -16.35 31.1 Q-18.6 30.45 -20.3 29.55 -17.9 33.65 -17.15 35.35 -16.45 37.15 -15.0 38.3 -13.6 39.45 -13.25 39.25 L-11.45 39.85 -6.45 40.75 -5.1 40.85 -1.25 40.7 -1.1 40.65 0.4 40.5 1.25 40.4 5.65 39.5 7.25 39.05 9.05 38.6 9.95 38.25 10.5 38.05 12.6 37.4 14.65 36.6 14.9 36.5 18.3 35.0 19.75 34.4 Q20.0 34.2 20.4 34.05 L20.7 33.85 23.0 32.7 Q24.3 31.95 25.55 31.15 L25.7 31.1 28.4 29.15 31.9 26.5 33.35 25.2 34.15 24.45 36.55 22.05 M18.2 8.5 L18.15 8.5 18.25 8.7 18.2 8.5 M-34.4 -5.8 L-34.3 -7.65 Q-34.8 -9.5 -36.4 -10.45 -38.3 -11.4 -40.25 -10.5 L-41.15 -9.9 Q-43.25 -7.65 -41.9 -4.95 -41.2 -3.4 -39.5 -2.9 -37.85 -2.4 -36.35 -3.25 L-36.05 -3.4 Q-35.25 -3.9 -34.8 -4.9 L-34.55 -5.4 -34.4 -5.8 M-28.0 -25.4 L-28.9 -24.8 Q-31.0 -22.55 -29.65 -19.85 -28.95 -18.3 -27.25 -17.8 L-25.55 -17.65 -24.7 -17.85 -24.45 -17.95 -24.25 -18.05 -24.1 -18.15 -22.8 -19.3 -22.55 -19.8 -22.15 -20.7 -22.05 -22.55 Q-22.55 -24.4 -24.15 -25.35 -26.05 -26.3 -28.0 -25.4 M-23.75 -16.7 L-23.9 -16.6 Q-19.5 -9.45 -18.15 -0.65 L-18.1 -0.45 Q-18.05 -0.15 -18.15 0.25 -18.35 0.5 -18.7 0.55 L-19.25 0.55 -19.7 0.15 -20.15 0.0 -20.35 1.0 -20.7 1.95 -14.85 4.8 -14.35 4.45 Q-11.95 2.35 -9.05 0.45 L-6.3 -1.4 -6.2 -1.5 -5.25 -2.05 -4.25 -2.6 -4.2 -2.6 -4.25 -2.8 -4.55 -5.0 -6.15 -5.25 Q-8.4 -5.9 -9.45 -8.0 -10.05 -9.05 -10.15 -10.2 -16.6 -15.05 -22.55 -17.4 -22.95 -17.1 -23.45 -16.85 L-23.75 -16.7 M-31.25 0.35 Q-31.45 -0.85 -31.1 -2.15 L-30.55 -3.4 -33.5 -4.0 -34.2 -3.05 -32.75 -1.0 -27.15 8.95 -26.75 9.75 -25.9 11.85 -25.75 12.2 -25.55 12.7 -25.55 13.2 -25.75 13.65 -26.25 13.8 -26.7 13.75 -32.25 10.55 -25.75 16.6 -24.5 17.65 -24.4 17.1 -24.3 16.95 -24.3 16.8 -24.15 16.7 -22.9 13.2 -22.35 11.95 -21.85 11.0 Q-23.4 7.35 -24.75 5.0 L-27.3 4.85 -27.7 4.75 Q-29.65 4.0 -30.6 2.1 L-31.25 0.35 M-27.6 -4.2 L-28.5 -3.6 -28.95 -3.0 Q-30.45 -1.0 -29.25 1.35 -28.55 2.9 -26.85 3.4 L-25.65 3.6 -24.2 3.3 -23.7 3.05 -22.5 2.0 -22.15 1.4 -22.1 1.25 -21.75 0.5 -21.65 -1.35 -22.15 -2.55 Q-22.7 -3.55 -23.75 -4.15 -25.65 -5.1 -27.6 -4.2 M-6.45 -14.3 L-7.35 -13.7 Q-8.5 -12.45 -8.6 -11.05 -8.7 -9.95 -8.1 -8.75 L-7.95 -8.5 Q-7.3 -7.25 -5.85 -6.75 L-5.7 -6.7 -3.1 -6.75 -2.55 -7.05 Q-1.8 -7.4 -1.3 -8.15 L-1.1 -8.5 -1.0 -8.7 -0.6 -9.6 -0.5 -11.45 Q-0.9 -13.0 -2.05 -13.9 L-2.6 -14.25 Q-4.5 -15.2 -6.45 -14.3 M-7.15 8.3 L-5.55 7.1 -2.8 5.6 -3.95 -1.55 Q-6.85 0.15 -9.2 1.9 -11.65 3.55 -13.7 5.3 L-13.7 5.35 -13.9 5.45 -13.85 5.5 -8.35 9.65 -7.15 8.3 M-6.2 8.6 Q-7.6 9.75 -7.35 10.4 L-5.1 12.75 -1.15 16.25 -0.85 16.15 -1.4 14.05 -2.05 10.75 -2.7 7.5 Q-2.9 7.1 -3.65 7.25 -4.9 7.65 -6.2 8.6 M-21.3 12.5 Q-23.05 16.05 -23.65 18.45 L-20.95 20.65 -20.85 20.65 -20.9 20.6 Q-21.1 19.55 -19.8 18.7 L-19.6 18.55 -19.35 18.5 -19.55 17.9 -21.25 12.45 -21.3 12.5 M-18.9 22.2 Q-18.3 22.0 -18.85 18.95 L-18.95 18.55 -19.75 19.6 -20.5 20.9 -18.9 22.2 M-18.2 22.65 L-18.25 22.7 -18.2 22.75 -18.2 22.65 M-35.25 6.85 Q-35.75 5.0 -37.35 4.05 -39.25 3.1 -41.2 4.0 L-42.1 4.6 Q-44.2 6.85 -42.85 9.55 -42.15 11.1 -40.45 11.6 -38.8 12.1 -37.3 11.25 L-36.2 10.4 -35.75 9.6 -35.35 8.7 -35.25 6.85" fill="#953100" fill-rule="evenodd" stroke="none"/>
    <path d="M24.05 -35.8 L23.65 -34.9 Q23.1 -33.75 22.1 -33.25 21.15 -32.7 20.15 -32.7 L18.95 -32.9 18.35 -33.1 Q17.1 -33.7 16.55 -34.95 15.2 -37.65 17.3 -39.9 L16.8 -37.5 Q18.1 -35.0 21.15 -34.7 23.0 -34.25 24.05 -35.8 M41.75 -26.8 L41.35 -25.9 Q40.8 -24.75 39.8 -24.25 38.75 -23.65 37.65 -23.7 L36.65 -23.9 Q36.15 -24.05 35.7 -24.3 34.75 -24.85 34.25 -25.95 32.9 -28.65 35.0 -30.9 L34.5 -28.5 Q35.35 -26.9 36.9 -26.2 L37.65 -25.9 38.85 -25.7 Q40.7 -25.25 41.75 -26.8 M0.45 -31.3 L0.05 -30.4 -0.45 -29.55 -1.2 -28.9 -1.5 -28.75 Q-2.25 -28.3 -3.05 -28.2 L-4.65 -28.4 -4.75 -28.4 Q-6.35 -28.95 -7.05 -30.45 -8.4 -33.15 -6.3 -35.4 L-6.8 -33.0 Q-6.2 -31.85 -5.25 -31.15 L-3.45 -30.35 -2.75 -30.25 -2.45 -30.2 -1.15 -30.15 Q-0.2 -30.35 0.45 -31.3 M27.05 -11.25 L21.7 -11.1 19.3 -14.8 Q20.75 -15.85 21.3 -17.7 21.95 -19.9 20.8 -21.9 20.25 -23.0 19.35 -23.7 L19.9 -31.2 19.95 -31.2 25.55 -18.85 25.45 -16.0 Q26.65 -11.95 27.05 -11.25 M19.9 -18.2 L19.5 -17.3 18.8 -16.25 17.95 -15.65 17.1 -15.25 16.6 -15.15 14.95 -15.25 14.8 -15.3 Q13.1 -15.8 12.4 -17.35 11.05 -20.05 13.15 -22.3 L12.65 -19.9 Q13.4 -18.45 14.8 -17.7 15.75 -17.2 17.0 -17.1 L18.9 -17.25 Q19.45 -17.55 19.9 -18.2 M-0.7 -16.75 L-0.9 -16.65 -1.1 -17.35 -0.7 -16.75 M6.15 -7.4 L5.85 -7.9 6.65 -7.55 6.15 -7.4 M10.5 -8.8 L10.4 -9.4 Q9.75 -11.45 3.25 -19.3 L-2.65 -26.0 -2.8 -26.75 Q-1.8 -26.9 -0.85 -27.45 L-0.1 -27.9 Q6.6 -21.9 14.6 -11.8 L15.05 -11.5 15.35 -11.5 15.45 -10.4 10.5 -8.8 M-1.6 -20.85 L-1.1 -19.85 -1.45 -19.45 -1.6 -20.85 M12.7 -1.9 L10.85 -7.75 15.65 -9.35 16.15 -3.15 15.9 -3.05 15.45 -2.75 15.05 -2.5 14.9 -2.45 12.7 -1.9 M36.3 -15.15 Q36.95 -9.2 38.5 -4.45 L38.75 -4.0 39.0 -3.1 39.3 -2.15 39.35 -0.25 39.4 -0.15 39.35 0.1 Q38.75 4.75 34.65 9.65 L33.95 10.55 36.3 -15.15 M30.4 14.05 L29.2 15.2 29.05 15.35 27.9 16.3 26.2 9.75 Q25.6 7.7 25.15 4.85 L24.45 -0.3 Q23.65 -3.15 24.15 -5.75 L27.9 -1.5 28.1 -0.1 28.9 6.7 Q29.85 10.15 30.4 14.05 M-2.65 30.1 L-3.95 30.25 -6.1 30.6 -10.5 24.9 -15.45 20.55 -18.2 18.1 -19.45 13.75 -19.7 13.1 Q-17.95 14.25 -14.95 16.9 -8.1 22.65 -2.65 30.1 M-10.25 30.75 L-10.35 30.75 -11.9 30.65 -16.05 30.05 -20.0 28.5 -21.2 27.95 -22.3 26.25 -22.55 25.85 -22.9 25.6 -23.0 25.35 -23.2 24.95 -23.35 24.7 -32.3 12.8 -24.9 19.6 -24.85 19.7 -17.35 25.55 -16.9 25.7 -16.45 25.6 -17.05 22.75 Q-15.05 23.0 -12.75 26.25 -11.25 28.25 -10.25 30.7 L-10.25 30.75 M29.1 -5.65 L27.3 -5.7 27.25 -5.75 26.6 -5.55 26.5 -5.5 26.2 -5.85 26.1 -6.0 22.55 -10.05 Q25.6 -10.3 28.35 -10.0 28.3 -8.6 29.1 -5.65 M40.55 0.15 L42.4 4.1 42.45 4.1 42.5 4.2 42.75 4.55 42.75 4.9 Q43.4 6.55 43.25 8.85 42.8 14.45 38.0 20.4 L36.55 22.05 35.85 20.3 34.45 16.3 33.45 12.7 34.65 11.4 Q39.85 5.6 40.45 0.15 L40.55 0.15 M34.15 24.45 L33.35 25.2 31.9 26.5 30.85 24.35 28.95 20.4 28.35 18.45 28.1 17.5 29.75 16.15 30.5 15.5 Q31.45 18.1 34.05 23.05 L34.15 24.45 M1.25 40.4 L0.4 40.5 -1.1 40.65 -1.25 40.7 -2.0 40.7 -3.1 38.05 -5.65 31.65 -5.05 31.55 -2.6 31.2 Q-1.8 32.45 -1.5 34.05 L0.2 37.75 1.25 40.4 M-5.1 40.85 L-6.45 40.75 -11.45 39.85 -13.25 39.25 Q-13.6 39.45 -15.0 38.3 -16.45 37.15 -17.15 35.35 -17.9 33.65 -20.3 29.55 -18.6 30.45 -16.35 31.1 L-11.75 31.75 -10.05 31.85 -6.75 37.5 -5.1 40.85 M18.2 8.5 L18.25 8.7 18.15 8.5 18.2 8.5 M-41.15 -9.9 L-41.65 -7.5 Q-40.35 -5.0 -37.3 -4.7 L-36.85 -4.6 Q-35.55 -4.45 -34.65 -5.45 L-34.4 -5.8 -34.55 -5.4 -34.8 -4.9 Q-35.25 -3.9 -36.05 -3.4 L-36.35 -3.25 Q-37.85 -2.4 -39.5 -2.9 -41.2 -3.4 -41.9 -4.95 -43.25 -7.65 -41.15 -9.9 M-22.15 -20.7 L-22.55 -19.8 -22.8 -19.3 -24.1 -18.15 -24.25 -18.05 -24.45 -17.95 -24.7 -17.85 -25.55 -17.65 -27.25 -17.8 Q-28.95 -18.3 -29.65 -19.85 -31.0 -22.55 -28.9 -24.8 L-29.4 -22.4 Q-28.65 -20.95 -27.35 -20.25 -26.35 -19.75 -25.05 -19.6 L-23.6 -19.55 Q-22.75 -19.8 -22.15 -20.7 M-9.05 0.45 Q-11.95 2.35 -14.35 4.45 L-14.85 4.8 -20.7 1.95 -20.35 1.0 -20.15 0.0 -19.7 0.15 -19.25 0.55 -18.7 0.55 Q-18.35 0.5 -18.15 0.25 -18.05 -0.15 -18.1 -0.45 L-18.15 -0.65 Q-19.5 -9.45 -23.9 -16.6 L-23.75 -16.7 Q-21.95 -13.95 -16.55 -7.75 L-9.05 0.45 M-4.25 -2.8 L-4.2 -2.6 -4.25 -2.6 -4.25 -2.8 M-6.2 -1.5 L-6.3 -1.4 -6.4 -1.7 -6.3 -1.5 -6.2 -1.5 M-31.25 0.35 L-33.15 -1.65 -32.75 -1.0 -34.2 -3.05 -33.5 -4.0 -30.55 -3.4 -31.1 -2.15 Q-31.45 -0.85 -31.25 0.35 M-25.75 16.6 L-24.4 17.1 -24.5 17.65 -25.75 16.6 M-22.35 11.95 Q-25.4 7.7 -27.7 4.75 L-27.3 4.85 -24.75 5.0 Q-23.4 7.35 -21.85 11.0 L-22.35 11.95 M-28.5 -3.6 L-29.0 -1.2 Q-28.35 0.0 -27.35 0.7 -26.55 1.25 -25.45 1.5 L-24.65 1.6 -23.2 1.65 Q-22.75 1.5 -22.3 1.15 L-21.75 0.5 -22.1 1.25 -22.15 1.4 -22.5 2.0 -23.7 3.05 -24.2 3.3 -25.65 3.6 -26.85 3.4 Q-28.55 2.9 -29.25 1.35 -30.45 -1.0 -28.95 -3.0 L-28.5 -3.6 M-0.6 -9.6 L-1.0 -8.7 -1.1 -8.5 -1.3 -8.15 Q-1.8 -7.4 -2.55 -7.05 L-3.1 -6.75 -5.7 -6.7 -5.85 -6.75 Q-7.3 -7.25 -7.95 -8.5 L-8.1 -8.75 Q-8.7 -9.95 -8.6 -11.05 -8.5 -12.45 -7.35 -13.7 L-7.85 -11.3 Q-6.95 -9.55 -5.15 -8.85 L-3.5 -8.5 -1.85 -8.55 -1.15 -8.95 -0.6 -9.6 M-9.2 1.9 L-8.0 6.3 -7.5 7.7 -7.15 8.3 -8.35 9.65 -13.85 5.5 -13.7 5.35 -13.7 5.3 Q-11.65 3.55 -9.2 1.9 M-19.6 18.55 Q-19.55 18.4 -19.65 18.2 -19.75 17.4 -20.35 15.55 L-21.3 12.5 -21.25 12.45 -19.55 17.9 -19.35 18.5 -19.6 18.55 M-18.2 22.65 L-18.2 22.75 -18.25 22.7 -18.2 22.65 M-42.1 4.6 L-42.6 7.0 Q-41.3 9.5 -38.25 9.8 -37.35 10.0 -36.65 9.8 L-35.35 8.7 -35.75 9.6 -36.2 10.4 -37.3 11.25 Q-38.8 12.1 -40.45 11.6 -42.15 11.1 -42.85 9.55 -44.2 6.85 -42.1 4.6" fill="#df8600" fill-rule="evenodd" stroke="none"/>
    <path d="M24.15 -37.65 L24.05 -35.8 Q23.0 -34.25 21.15 -34.7 18.1 -35.0 16.8 -37.5 L17.3 -39.9 18.2 -40.5 Q17.2 -38.5 18.85 -37.0 20.55 -35.55 22.8 -36.05 23.85 -36.3 24.15 -37.65 M41.85 -28.65 L41.75 -26.8 Q40.7 -25.25 38.85 -25.7 L37.65 -25.9 36.9 -26.2 Q35.35 -26.9 34.5 -28.5 L35.0 -30.9 35.9 -31.5 Q34.9 -29.5 36.55 -28.0 38.25 -26.55 40.5 -27.05 41.55 -27.3 41.85 -28.65 M0.55 -33.15 L0.45 -31.3 Q-0.2 -30.35 -1.15 -30.15 L-2.45 -30.2 -2.75 -30.25 -3.45 -30.35 -5.25 -31.15 Q-6.2 -31.85 -6.8 -33.0 L-6.3 -35.4 -5.4 -36.0 Q-6.3 -34.2 -5.05 -32.8 L-4.75 -32.5 Q-3.9 -31.75 -2.9 -31.5 L-0.8 -31.55 Q0.25 -31.8 0.55 -33.15 M20.0 -20.05 L19.9 -18.2 Q19.45 -17.55 18.9 -17.25 L17.0 -17.1 Q15.75 -17.2 14.8 -17.7 13.4 -18.45 12.65 -19.9 L13.15 -22.3 14.05 -22.9 Q13.05 -20.9 14.7 -19.4 15.75 -18.5 17.05 -18.35 L17.35 -18.3 18.65 -18.45 19.0 -18.55 Q19.75 -18.9 20.0 -20.05 M16.9 -13.7 L16.9 -13.25 16.85 -12.95 16.75 -13.7 16.9 -13.7 M5.85 -7.9 L5.7 -7.95 Q5.0 -7.75 1.55 -13.2 L1.3 -13.6 -0.7 -16.75 -1.1 -17.35 -1.45 -19.45 -1.1 -19.85 -1.6 -20.85 -1.7 -20.9 -2.65 -26.0 3.25 -19.3 Q9.75 -11.45 10.4 -9.4 L10.5 -8.8 9.05 -8.35 8.75 -8.3 7.7 -7.9 6.65 -7.55 5.85 -7.9 M17.75 10.25 L19.3 11.6 Q20.2 17.4 21.2 20.95 L19.8 21.8 19.1 17.95 18.8 15.75 17.75 10.25 M7.4 -1.5 Q6.25 -3.9 5.45 -5.95 L9.35 -7.3 10.85 -7.75 12.7 -1.9 Q11.65 -1.8 10.25 -1.0 L10.2 -0.9 10.15 -0.85 10.0 -0.8 9.65 -0.55 9.55 -0.5 9.5 -0.45 8.1 -0.3 Q7.6 -0.5 7.4 -1.5 M27.9 -1.5 L33.2 4.65 33.6 4.9 33.75 0.15 34.0 -1.85 34.55 -8.85 36.1 -17.7 36.3 -15.15 33.95 10.55 33.9 10.6 33.3 11.25 32.7 11.9 32.6 12.0 30.4 14.05 Q29.85 10.15 28.9 6.7 L28.1 -0.1 27.9 -1.5 M27.9 16.3 L23.95 19.25 Q23.3 13.25 22.65 11.15 22.1 9.35 21.5 -0.95 L20.85 -9.55 24.15 -5.75 Q23.65 -3.15 24.45 -0.3 L25.15 4.85 Q25.6 7.7 26.2 9.75 L27.9 16.3 M8.45 27.0 L6.0 27.85 5.5 28.0 5.45 27.95 Q4.0 23.15 -2.55 16.8 L0.7 19.45 0.9 19.4 1.25 19.1 1.3 18.6 0.8 15.5 4.5 20.8 8.45 27.0 M3.45 28.65 L3.4 28.7 3.4 28.65 3.45 28.65 M1.55 29.15 L-2.65 30.1 Q-8.1 22.65 -14.95 16.9 -17.95 14.25 -19.7 13.1 L-20.2 11.45 Q-21.45 7.95 -23.45 4.55 L-23.25 4.45 -20.45 6.3 Q-14.05 10.5 -9.55 16.15 L-3.6 23.9 Q-0.9 27.05 1.55 29.15 M-6.1 30.6 L-10.25 30.75 -10.25 30.7 Q-11.25 28.25 -12.75 26.25 -15.05 23.0 -17.05 22.75 L-17.1 22.4 -18.2 18.1 -15.45 20.55 -10.5 24.9 -6.1 30.6 M33.45 12.7 L34.45 16.3 35.85 20.3 36.55 22.05 34.15 24.45 34.05 23.05 Q31.45 18.1 30.5 15.5 L33.45 12.7 M31.9 26.5 L28.4 29.15 26.9 23.9 25.55 20.8 24.95 19.85 28.1 17.5 28.35 18.45 28.95 20.4 30.85 24.35 31.9 26.5 M12.6 37.4 L10.5 38.05 9.95 38.25 7.8 32.55 6.0 29.0 6.25 28.9 8.8 28.05 9.2 29.25 11.2 34.3 12.6 37.4 M5.65 39.5 L1.25 40.4 0.2 37.75 -1.5 34.05 Q-1.8 32.45 -2.6 31.2 L1.65 30.25 4.45 36.9 5.65 39.5 M-1.25 40.7 L-5.1 40.85 -6.75 37.5 -10.05 31.85 -5.65 31.65 -3.1 38.05 -2.0 40.7 -1.25 40.7 M-34.4 -5.8 L-34.65 -5.45 Q-35.55 -4.45 -36.85 -4.6 L-37.3 -4.7 Q-40.35 -5.0 -41.65 -7.5 L-41.15 -9.9 -40.25 -10.5 Q-41.25 -8.5 -39.6 -7.0 -37.9 -5.55 -35.65 -6.05 -34.6 -6.3 -34.3 -7.65 L-34.4 -5.8 M-28.9 -24.8 L-28.0 -25.4 Q-29.0 -23.4 -27.35 -21.9 -25.65 -20.45 -23.4 -20.95 -22.35 -21.2 -22.05 -22.55 L-22.15 -20.7 Q-22.75 -19.8 -23.6 -19.55 L-25.05 -19.6 Q-26.35 -19.75 -27.35 -20.25 -28.65 -20.95 -29.4 -22.4 L-28.9 -24.8 M-9.05 0.45 L-16.55 -7.75 Q-21.95 -13.95 -23.75 -16.7 L-23.45 -16.85 Q-22.95 -17.1 -22.55 -17.4 -16.6 -15.05 -10.15 -10.2 -10.05 -9.05 -9.45 -8.0 -8.4 -5.9 -6.15 -5.25 L-4.55 -5.0 -4.25 -2.8 -4.25 -2.6 -5.25 -2.05 -6.2 -1.5 -6.3 -1.5 -6.4 -1.7 -6.3 -1.4 -9.05 0.45 M-27.6 -4.2 L-27.6 -4.15 -27.95 -2.7 Q-27.95 -1.9 -27.35 -1.15 L-26.95 -0.7 Q-25.6 0.45 -23.95 0.4 L-23.0 0.25 Q-22.25 0.05 -21.85 -0.7 L-21.65 -1.35 -21.75 0.5 -22.3 1.15 Q-22.75 1.5 -23.2 1.65 L-24.65 1.6 -25.45 1.5 Q-26.55 1.25 -27.35 0.7 -28.35 0.0 -29.0 -1.2 L-28.5 -3.6 -27.6 -4.2 M-7.35 -13.7 L-6.45 -14.3 Q-7.45 -12.3 -5.8 -10.8 L-5.2 -10.35 -3.45 -9.75 -1.85 -9.85 -1.35 -10.05 Q-0.75 -10.45 -0.5 -11.45 L-0.6 -9.6 -1.15 -8.95 -1.85 -8.55 -3.5 -8.5 -5.15 -8.85 Q-6.95 -9.55 -7.85 -11.3 L-7.35 -13.7 M-7.15 8.3 L-7.5 7.7 -8.0 6.3 -9.2 1.9 Q-6.85 0.15 -3.95 -1.55 L-2.8 5.6 -5.55 7.1 -7.15 8.3 M-41.2 4.0 Q-42.2 6.0 -40.55 7.5 -39.25 8.6 -37.55 8.6 L-36.6 8.45 Q-35.85 8.25 -35.45 7.55 L-35.25 6.85 -35.35 8.7 -36.65 9.8 Q-37.35 10.0 -38.25 9.8 -41.3 9.5 -42.6 7.0 L-42.1 4.6 -41.2 4.0" fill="#ffcb15" fill-rule="evenodd" stroke="none"/>
    <path d="M10.25 -1.0 Q11.65 -1.8 12.7 -1.9 L12.25 -1.75 10.35 -1.0 10.25 -1.0 M15.45 -2.75 L15.9 -3.05 15.95 -2.9 15.45 -2.75 M26.2 -5.85 L26.1 -5.85 26.1 -6.0 26.2 -5.85" fill="#461600" fill-rule="evenodd" stroke="none"/>
    <path d="M10.95 -0.05 Q13.35 -1.3 16.15 -2.25 L16.9 2.35 Q17.45 6.15 18.15 8.2 L17.9 8.4 13.7 4.9 9.3 1.0 10.95 -0.05 M27.15 -4.55 L28.8 -4.5 32.45 -4.15 32.45 -3.65 32.45 -3.6 32.5 -2.75 Q32.6 0.35 32.9 1.35 L32.65 1.55 Q32.35 1.7 31.2 0.1 L29.45 -2.05 27.65 -4.05 27.15 -4.55 M31.8 -0.4 L31.75 -0.4 31.8 -0.3 31.8 -0.4 M-6.2 8.6 Q-4.9 7.65 -3.65 7.25 -2.9 7.1 -2.7 7.5 L-2.05 10.75 -1.4 14.05 -0.85 16.15 -1.15 16.25 -5.1 12.75 -7.35 10.4 Q-7.6 9.75 -6.2 8.6 M-18.9 22.2 L-20.5 20.9 -19.75 19.6 -18.95 18.55 -18.85 18.95 Q-18.3 22.0 -18.9 22.2" fill="#6a2300" fill-rule="evenodd" stroke="none"/>
    <path d="M27.05 -11.25 Q26.65 -11.95 25.45 -16.0 L25.55 -18.85 28.3 -12.8 Q28.45 -12.5 28.75 -12.35 L29.25 -12.3 29.3 -12.25 29.85 -12.25 30.4 -12.55 35.05 -21.25 33.15 -9.95 31.7 -10.45 27.05 -11.25 M28.35 -10.0 L31.45 -9.4 32.9 -8.9 32.55 -4.85 32.45 -4.95 31.65 -5.25 29.15 -5.65 29.1 -5.65 Q28.3 -8.6 28.35 -10.0 M-32.75 -1.0 L-33.15 -1.65 -31.25 0.35 -30.6 2.1 Q-29.65 4.0 -27.7 4.75 -25.4 7.7 -22.35 11.95 L-22.9 13.2 -24.15 16.7 -24.3 16.8 -24.3 16.95 -24.4 17.1 -25.75 16.6 -32.25 10.55 -26.7 13.75 -26.25 13.8 -25.75 13.65 -25.55 13.2 -25.55 12.7 -25.75 12.2 -25.9 11.85 -26.75 9.75 -27.15 8.95 -32.75 -1.0 M-21.3 12.5 L-20.35 15.55 Q-19.75 17.4 -19.65 18.2 -19.55 18.4 -19.6 18.55 L-19.8 18.7 Q-21.1 19.55 -20.9 20.6 L-20.85 20.65 -20.95 20.65 -23.65 18.45 Q-23.05 16.05 -21.3 12.5" fill="#c96501" fill-rule="evenodd" stroke="none"/>
  </g>
</svg>
