<?xml version="1.0" encoding="UTF-8" standalone="no"?>
<svg xmlns:ffdec="https://www.free-decompiler.com/flash" xmlns:xlink="http://www.w3.org/1999/xlink" ffdec:objectType="shape" height="63.15px" width="20.7px" xmlns="http://www.w3.org/2000/svg">
  <g transform="matrix(1.0, 0.0, 0.0, 1.0, 7.9, 1.55)">
    <path d="M4.4 -0.7 L4.55 -1.3 5.3 -1.55 Q6.25 0.05 9.1 25.45 L10.55 38.6 8.2 38.0 4.4 -0.45 4.4 -0.7 M11.85 53.85 L11.95 56.7 Q11.95 57.35 9.35 59.5 6.8 61.6 6.05 61.6 2.35 61.6 1.55 60.8 0.35 59.7 -0.4 54.45 L-0.35 54.45 Q-0.25 54.5 -0.25 53.9 -0.25 51.5 0.7 50.85 L1.0 50.7 1.1 51.7 Q1.55 57.3 2.4 58.45 3.15 59.55 6.45 59.55 L8.5 58.5 9.95 56.0 9.45 50.7 10.05 50.85 Q11.45 51.4 11.45 51.85 L11.45 53.9 11.85 53.85 M-2.15 38.9 Q-4.35 21.55 -7.9 0.4 -6.5 0.05 -6.1 -0.4 L-5.95 0.15 Q-2.4 19.15 -0.25 38.1 -1.15 38.3 -1.8 38.65 L-2.15 38.9" fill="#5c4730" fill-rule="evenodd" stroke="none"/>
    <path d="M-5.95 0.15 Q-5.55 -0.4 -4.65 -0.8 -3.0 -1.55 1.15 -1.5 L4.55 27.05 5.85 37.5 5.75 37.45 -0.25 38.1 Q-2.4 19.15 -5.95 0.15 M8.5 58.5 L6.45 59.55 Q3.15 59.55 2.4 58.45 1.55 57.3 1.1 51.7 L1.0 50.7 5.1 50.2 7.45 50.4 8.5 58.5" fill="#ffdfbf" fill-rule="evenodd" stroke="none"/>
    <path d="M1.15 -1.5 L4.4 -0.7 4.4 -0.45 8.2 38.0 5.85 37.5 4.55 27.05 1.15 -1.5 M9.45 50.7 L9.95 56.0 8.5 58.5 7.45 50.4 7.6 50.4 9.45 50.7" fill="#ffd5aa" fill-rule="evenodd" stroke="none"/>
    <path d="M8.25 38.85 L9.2 39.05 9.9 48.7 9.2 48.5 7.15 48.1 2.75 48.3 2.7 46.8 6.9 46.25 7.55 46.0 Q7.7 45.45 8.0 45.2 L8.35 45.1 8.3 45.1 8.9 46.8 9.05 46.9 Q9.25 46.9 9.25 46.15 9.25 40.15 8.25 38.85 M2.3 38.55 L6.0 38.5 6.95 38.55 6.3 38.75 Q6.15 38.8 6.05 38.9 L4.65 39.35 4.6 39.35 3.4 39.4 2.35 39.65 2.3 38.55 M8.0 42.8 L8.1 43.25 8.05 43.25 8.0 42.8 M2.45 41.4 L6.1 41.15 6.0 41.95 Q5.95 42.9 6.4 44.2 L6.15 44.6 4.45 44.8 4.25 43.55 Q4.0 43.0 3.65 43.0 3.45 42.75 3.05 42.6 L2.5 42.5 2.45 41.4" fill="#6c3a1c" fill-rule="evenodd" stroke="none"/>
    <path d="M10.55 38.6 L10.65 38.6 Q11.9 39.5 11.95 40.4 L12.8 52.35 12.55 53.3 12.0 53.8 11.85 53.85 11.45 53.9 11.45 51.85 Q11.45 51.4 10.05 50.85 L9.45 50.7 7.6 50.4 7.45 50.4 5.1 50.2 1.0 50.7 0.7 50.85 Q-0.25 51.5 -0.25 53.9 -0.25 54.5 -0.35 54.45 L-0.4 54.45 -0.65 54.4 -2.4 53.0 -2.95 47.05 -3.35 40.75 Q-3.35 39.65 -2.15 38.9 L-1.8 38.65 Q-1.15 38.3 -0.25 38.1 L5.75 37.45 5.85 37.5 8.2 38.0 10.55 38.6 M9.2 39.05 L8.25 38.85 7.05 38.55 6.95 38.55 6.0 38.5 2.3 38.55 0.3 38.95 0.4 39.9 0.0 40.05 -0.6 40.3 -0.7 39.25 Q-1.6 39.55 -2.0 40.1 L-2.05 40.1 -2.35 40.8 -1.8 47.85 -1.1 47.5 -0.35 47.05 -0.15 46.7 0.7 47.0 0.9 47.0 1.05 49.7 5.75 49.05 7.3 49.5 9.35 50.0 11.65 50.55 11.7 50.55 10.95 40.5 10.7 40.25 9.2 39.05 M8.35 45.1 L8.0 45.2 Q8.2 44.55 8.05 43.25 L8.1 43.25 8.65 43.45 8.75 43.5 8.85 44.2 8.85 44.55 8.65 45.0 8.35 45.1 M3.65 43.0 Q4.0 43.0 4.25 43.55 L4.45 44.8 2.45 45.05 2.1 44.35 Q2.75 44.35 3.2 43.95 3.65 43.55 3.65 43.0 M0.5 41.8 L0.55 42.75 0.4 42.2 0.5 41.8 M-1.35 42.75 L-2.1 43.45 -2.2 42.6 -1.7 42.65 Q-1.45 42.85 -1.45 42.15 L-1.35 42.75 M-0.1 47.85 L-1.7 48.95 -1.55 50.85 -1.1 50.55 0.1 50.0 -0.1 47.85" fill="#231407" fill-rule="evenodd" stroke="none"/>
    <path d="M8.25 38.85 Q9.25 40.15 9.25 46.15 9.25 46.9 9.05 46.9 L8.9 46.8 8.3 45.1 8.35 45.1 8.65 45.0 8.85 44.55 8.85 44.2 8.75 43.5 8.65 43.45 8.1 43.25 8.0 42.8 7.9 41.5 7.35 40.0 6.1 39.45 4.65 39.35 6.05 38.9 Q6.15 38.8 6.3 38.75 L6.95 38.55 7.05 38.55 8.25 38.85" fill="#8c4b24" fill-rule="evenodd" stroke="none"/>
    <path d="M8.0 45.2 Q7.7 45.45 7.55 46.0 L6.9 46.25 2.7 46.8 0.9 47.0 0.7 47.0 -0.15 46.7 -0.7 46.15 Q-1.2 45.3 -1.35 42.75 L-1.45 42.15 -1.15 41.15 -0.6 40.3 0.0 40.05 0.4 39.9 2.35 39.65 Q1.25 39.95 0.25 40.55 L0.05 40.7 Q-1.15 41.45 -1.15 42.0 -1.15 44.45 -0.5 45.65 -0.05 46.55 0.65 46.7 L0.85 46.7 Q5.25 46.7 6.85 45.9 L7.05 45.8 Q7.9 45.3 7.9 44.1 7.9 40.75 6.15 39.75 L4.65 39.35 6.1 39.45 7.35 40.0 7.9 41.5 8.0 42.8 8.05 43.25 Q8.2 44.55 8.0 45.2 M4.45 44.8 L6.15 44.6 6.4 44.2 Q5.95 42.9 6.0 41.95 L6.1 41.15 2.45 41.4 0.5 41.8 0.4 42.2 0.55 42.75 0.75 42.7 0.3 42.85 0.3 42.9 Q-0.25 43.1 -0.25 43.45 -0.25 43.8 0.3 44.05 L0.4 44.1 1.6 44.3 2.9 44.05 3.45 43.45 Q3.45 43.1 2.9 42.85 L1.6 42.6 1.5 42.6 2.5 42.5 3.05 42.6 Q3.45 42.75 3.65 43.0 3.65 43.55 3.2 43.95 2.75 44.35 2.1 44.35 L1.4 44.5 Q0.7 44.7 0.7 45.0 L2.45 45.05 4.45 44.8 M-0.1 42.85 L-0.05 41.8 -0.25 41.25 0.05 41.0 0.1 41.0 5.3 40.7 Q6.1 40.7 6.25 41.2 L6.65 44.0 6.65 44.05 6.5 44.8 1.05 45.45 0.5 45.3 0.4 45.2 0.3 45.0 0.05 44.5 -0.25 44.45 Q-0.45 44.35 -0.45 43.75 L-0.3 43.0 -0.1 42.85" fill="#563d07" fill-rule="evenodd" stroke="none"/>
    <path d="M0.4 45.2 L0.5 45.3 1.05 45.45 6.5 44.8 6.65 44.05 6.65 44.0 6.25 41.2 Q6.1 40.7 5.3 40.7 L0.1 41.0 0.05 41.0 -0.25 41.25 -0.05 41.8 -0.1 42.85 Q-0.65 41.85 -0.45 41.4 L-0.9 42.2 Q-0.9 44.2 -0.4 45.4 0.0 46.35 0.65 46.5 L0.85 46.5 Q5.05 46.5 6.5 45.8 L6.85 45.65 Q7.6 45.1 7.6 44.1 7.6 41.35 6.2 40.35 5.15 39.6 3.35 39.8 1.8 39.95 0.45 40.75 L0.1 41.0 5.25 40.5 6.25 40.8 6.45 41.05 Q6.9 41.8 6.9 44.1 L6.75 44.75 6.3 45.1 1.1 45.75 0.55 45.5 0.5 45.45 0.4 45.2 M2.35 39.65 L3.4 39.4 4.6 39.35 4.65 39.35 6.15 39.75 Q7.9 40.75 7.9 44.1 7.9 45.3 7.05 45.8 L6.85 45.9 Q5.25 46.7 0.85 46.7 L0.65 46.7 Q-0.05 46.55 -0.5 45.65 -1.15 44.45 -1.15 42.0 -1.15 41.45 0.05 40.7 L0.25 40.55 Q1.25 39.95 2.35 39.65 M0.75 42.7 L1.5 42.6 1.6 42.6 2.9 42.85 Q3.45 43.1 3.45 43.45 L2.9 44.05 1.6 44.3 0.4 44.1 0.3 44.05 Q-0.25 43.8 -0.25 43.45 -0.25 43.1 0.3 42.9 L0.3 42.85 0.75 42.7 M3.15 43.25 L2.95 43.0 0.35 43.5 0.05 43.65 0.3 44.0 0.4 44.0 Q3.0 43.55 3.15 43.25" fill="#bc8410" fill-rule="evenodd" stroke="none"/>
    <path d="M-0.1 42.85 L-0.3 43.0 -0.45 43.75 Q-0.45 44.35 -0.25 44.45 L0.05 44.5 0.3 45.0 0.4 45.2 0.5 45.45 0.55 45.5 1.1 45.75 6.3 45.1 6.75 44.75 6.9 44.1 Q6.9 41.8 6.45 41.05 L6.25 40.8 5.25 40.5 0.1 41.0 0.45 40.75 Q1.8 39.95 3.35 39.8 5.15 39.6 6.2 40.35 7.6 41.35 7.6 44.1 7.6 45.1 6.85 45.65 L6.5 45.8 Q5.05 46.5 0.85 46.5 L0.65 46.5 Q0.0 46.35 -0.4 45.4 -0.9 44.2 -0.9 42.2 L-0.45 41.4 Q-0.65 41.85 -0.1 42.85 M3.15 43.25 Q3.0 43.55 0.4 44.0 L0.3 44.0 0.05 43.65 0.35 43.5 2.95 43.0 3.15 43.25" fill="#f5b52f" fill-rule="evenodd" stroke="none"/>
    <path d="M2.7 46.8 L2.75 48.3 7.15 48.1 9.2 48.5 9.9 48.7 9.2 39.05 10.7 40.25 10.95 40.5 11.7 50.55 11.65 50.55 9.35 50.0 7.3 49.5 5.75 49.05 1.05 49.7 0.9 47.0 2.7 46.8 M-0.15 46.7 L-0.35 47.05 -1.1 47.5 -1.8 47.85 -2.35 40.8 -2.05 40.1 -2.0 40.1 Q-1.6 39.55 -0.7 39.25 L-0.6 40.3 -1.15 41.15 -1.45 42.15 Q-1.45 42.85 -1.7 42.65 L-2.2 42.6 -2.1 43.45 -1.35 42.75 Q-1.2 45.3 -0.7 46.15 L-0.15 46.7 M0.4 39.9 L0.3 38.95 2.3 38.55 2.35 39.65 0.4 39.9 M2.45 41.4 L2.5 42.5 1.5 42.6 0.75 42.7 0.55 42.75 0.5 41.8 2.45 41.4 M2.45 45.05 L0.7 45.0 Q0.7 44.7 1.4 44.5 L2.1 44.35 2.45 45.05 M-0.1 47.85 L0.1 50.0 -1.1 50.55 -1.55 50.85 -1.7 48.95 -0.1 47.85" fill="#512c15" fill-rule="evenodd" stroke="none"/>
  </g>
</svg>
