<?xml version="1.0" encoding="UTF-8" standalone="no"?>
<svg xmlns:ffdec="https://www.free-decompiler.com/flash" xmlns:xlink="http://www.w3.org/1999/xlink" ffdec:objectType="shape" height="49.7px" width="55.15px" xmlns="http://www.w3.org/2000/svg">
  <g transform="matrix(1.0, 0.0, 0.0, 1.0, 26.7, 3.5)">
    <path d="M5.05 -2.7 L5.1 -2.7 5.05 -2.7 M15.5 24.25 L15.5 24.2 15.55 24.2 15.5 24.25 M12.8 10.45 L12.75 10.2 13.0 10.35 13.15 10.45 12.8 10.45" fill="#4b3121" fill-rule="evenodd" stroke="none"/>
    <path d="M7.8 0.65 L7.8 0.6 7.85 0.65 7.8 0.65" fill="#83563a" fill-rule="evenodd" stroke="none"/>
    <path d="M5.1 -2.7 Q28.45 9.05 28.45 15.85 28.45 19.2 26.05 21.85 23.6 24.5 19.8 25.1 21.6 31.35 22.15 32.4 22.45 33.0 22.45 32.35 23.1 32.35 23.25 33.45 L23.3 35.25 Q23.3 37.4 19.15 40.35 14.8 43.45 10.95 43.45 L8.55 43.0 6.1 42.5 Q5.8 42.5 3.65 44.35 1.45 46.2 -1.25 46.2 -7.15 46.2 -9.7 44.25 -11.65 42.75 -12.3 39.35 L-12.5 39.7 -13.3 39.85 Q-21.75 39.85 -24.5 35.25 -26.7 31.65 -26.7 21.6 -26.7 19.55 -19.7 12.8 -12.7 6.05 -12.7 4.35 -12.7 3.6 -9.85 0.85 -6.2 -2.65 -2.1 -3.3 -10.45 5.3 -23.4 17.55 L-24.25 19.0 Q-24.6 19.8 -24.6 20.9 -24.6 25.3 -23.8 29.05 -22.65 34.25 -20.3 35.75 L-20.25 35.75 -16.65 36.95 -14.05 37.7 Q-12.0 37.7 -10.85 32.5 -9.35 25.7 -8.3 24.05 -7.8 23.55 -6.8 23.0 -6.2 22.65 -6.2 22.1 L-5.9 19.15 Q-5.6 17.25 -5.6 15.75 -5.6 14.75 -6.2 14.1 -6.9 13.4 -8.15 13.4 -11.45 13.4 -15.5 17.55 -20.05 22.15 -20.8 27.95 L-21.05 27.9 -21.35 27.35 -21.3 27.25 -21.2 27.4 -20.45 23.25 -20.05 20.6 -22.4 18.7 -22.1 18.5 Q-22.4 18.35 -21.4 18.35 -20.25 18.35 -16.1 14.85 -11.9 11.3 -8.15 11.3 -6.45 11.3 -5.2 11.85 L-3.4 12.4 Q-1.35 12.4 2.25 11.0 5.8 9.55 8.15 9.55 L10.45 9.75 12.75 10.2 12.8 10.45 Q6.15 10.45 1.45 14.15 -3.25 17.85 -3.25 23.1 -2.45 23.85 0.1 24.8 2.65 25.75 3.8 25.75 L15.5 24.2 15.5 24.25 15.55 24.25 Q20.2 22.85 23.3 20.4 26.25 18.1 26.25 16.15 26.25 15.25 18.85 8.95 11.35 2.5 7.85 0.65 L7.8 0.6 7.8 0.65 7.05 0.25 Q6.75 0.05 6.0 -1.1 L5.05 -2.7 5.1 -2.7 M11.7 41.25 Q16.5 40.1 17.8 38.65 L19.9 36.65 21.2 34.95 21.15 34.8 20.25 32.8 17.8 25.9 17.7 25.75 16.05 26.3 12.55 27.15 11.0 27.4 Q7.75 27.85 6.7 29.45 6.15 30.25 6.25 31.05 L6.65 40.6 11.7 41.25 M-2.65 44.0 Q1.4 43.95 3.1 42.65 4.5 41.6 4.5 39.5 4.5 29.2 2.25 27.7 L-0.4 27.2 Q-1.65 26.95 -3.15 25.95 L-4.5 24.95 -6.05 26.15 -8.05 28.15 -9.15 31.95 Q-10.15 35.85 -10.15 38.8 -10.15 41.35 -7.65 42.85 -5.45 44.15 -2.65 44.0" fill="#654425" fill-rule="evenodd" stroke="none"/>
    <path d="M7.05 0.25 L7.8 0.65 7.85 0.65 Q11.35 2.5 18.85 8.95 26.25 15.25 26.25 16.15 26.25 18.1 23.3 20.4 20.2 22.85 15.55 24.25 L15.55 24.2 15.5 24.2 3.8 25.75 Q2.65 25.75 0.1 24.8 -2.45 23.85 -3.25 23.1 3.25 16.05 11.5 15.5 L16.0 15.2 Q17.65 14.9 17.65 13.15 17.65 11.95 14.8 9.55 11.75 6.95 9.5 6.95 L1.1 9.45 -1.8 8.1 Q-4.75 6.75 -7.0 6.7 L-10.0 7.25 Q-8.85 4.95 -7.25 3.6 -4.2 1.1 1.95 2.0 1.3 1.2 1.4 -0.5 1.25 -1.3 0.0 -1.35 L2.95 -0.9 7.05 0.25 M-8.3 24.05 Q-9.35 25.7 -10.85 32.5 -12.0 37.7 -14.05 37.7 L-16.65 36.95 -20.25 35.75 -20.3 35.75 Q-22.65 34.25 -23.8 29.05 -24.6 25.3 -24.6 20.9 -24.6 19.8 -24.25 19.0 L-23.4 17.55 Q-23.95 18.8 -23.95 19.75 L-22.2 27.55 -22.15 27.7 -20.85 30.4 -20.8 30.45 Q-19.6 29.5 -17.7 24.75 -16.0 20.6 -16.0 20.05 -16.0 19.35 -14.25 18.75 L-12.35 18.3 Q-10.45 18.3 -9.7 19.95 L-8.3 24.05 M12.55 27.15 Q14.55 27.65 16.05 29.35 17.55 31.05 17.55 32.85 17.55 33.95 16.6 35.8 15.05 38.75 11.7 41.25 L6.65 40.6 6.25 31.05 Q6.15 30.25 6.7 29.45 7.75 27.85 11.0 27.4 L12.55 27.15 M-8.05 28.15 Q-3.35 28.4 -0.7 30.6 1.6 32.55 1.6 35.35 1.6 37.1 0.9 39.05 -0.2 42.05 -2.65 44.0 -5.45 44.15 -7.65 42.85 -10.15 41.35 -10.15 38.8 -10.15 35.85 -9.15 31.95 L-8.05 28.15" fill="#f0a866" fill-rule="evenodd" stroke="none"/>
    <path d="M-2.1 -3.3 L-0.45 -3.5 5.1 -2.7 5.05 -2.7 6.0 -1.1 Q6.75 0.05 7.05 0.25 L2.95 -0.9 0.0 -1.35 Q1.25 -1.3 1.4 -0.5 1.3 1.2 1.95 2.0 -4.2 1.1 -7.25 3.6 -8.85 4.95 -10.0 7.25 L-7.0 6.7 Q-4.75 6.75 -1.8 8.1 L1.1 9.45 9.5 6.95 Q11.75 6.95 14.8 9.55 17.65 11.95 17.65 13.15 17.65 14.9 16.0 15.2 L11.5 15.5 Q3.25 16.05 -3.25 23.1 -3.25 17.85 1.45 14.15 6.15 10.45 12.8 10.45 L13.15 10.45 13.0 10.35 12.75 10.2 10.45 9.75 8.15 9.55 Q5.8 9.55 2.25 11.0 -1.35 12.4 -3.4 12.4 L-5.2 11.85 Q-6.45 11.3 -8.15 11.3 -11.9 11.3 -16.1 14.85 -20.25 18.35 -21.4 18.35 -22.4 18.35 -22.1 18.5 L-22.4 18.7 -20.05 20.6 -20.45 23.25 -21.2 27.4 -21.3 27.25 -21.35 27.35 -21.05 27.9 -20.8 27.95 Q-20.05 22.15 -15.5 17.55 -11.45 13.4 -8.15 13.4 -6.9 13.4 -6.2 14.1 -5.6 14.75 -5.6 15.75 -5.6 17.25 -5.9 19.15 L-6.2 22.1 Q-6.2 22.65 -6.8 23.0 -7.8 23.55 -8.3 24.05 L-9.7 19.95 Q-10.45 18.3 -12.35 18.3 L-14.25 18.75 Q-16.0 19.35 -16.0 20.05 -16.0 20.6 -17.7 24.75 -19.6 29.5 -20.8 30.45 L-20.85 30.4 -22.15 27.7 -22.2 27.55 -23.95 19.75 Q-23.95 18.8 -23.4 17.55 -10.45 5.3 -2.1 -3.3 M12.55 27.15 L16.05 26.3 17.7 25.75 17.8 25.9 20.25 32.8 21.15 34.8 21.2 34.95 19.9 36.65 17.8 38.65 Q16.5 40.1 11.7 41.25 15.05 38.75 16.6 35.8 17.55 33.95 17.55 32.85 17.55 31.05 16.05 29.35 14.55 27.65 12.55 27.15 M-8.05 28.15 L-6.05 26.15 -4.5 24.95 -3.15 25.95 Q-1.65 26.95 -0.4 27.2 L2.25 27.7 Q4.5 29.2 4.5 39.5 4.5 41.6 3.1 42.65 1.4 43.95 -2.65 44.0 -0.2 42.05 0.9 39.05 1.6 37.1 1.6 35.35 1.6 32.55 -0.7 30.6 -3.35 28.4 -8.05 28.15" fill="#e79d5a" fill-rule="evenodd" stroke="none"/>
  </g>
</svg>
