<?xml version="1.0" encoding="UTF-8" standalone="no"?>
<svg xmlns:ffdec="https://www.free-decompiler.com/flash" xmlns:xlink="http://www.w3.org/1999/xlink" ffdec:objectType="shape" height="180.45px" width="105.85px" xmlns="http://www.w3.org/2000/svg">
  <g transform="matrix(1.0, 0.0, 0.0, 1.0, -45.05, 111.9)">
    <path d="M91.9 62.6 L91.7 64.6 Q88.75 60.95 82.6 58.5 77.4 56.4 74.45 56.6 75.65 55.4 76.95 53.25 78.2 51.75 80.8 51.75 85.25 51.75 88.5 54.8 91.9 58.0 91.9 62.6" fill="#930000" fill-rule="evenodd" stroke="none"/>
    <path d="M89.65 47.55 Q94.45 45.6 95.2 44.6 95.45 47.95 93.3 51.05 91.6 53.5 90.4 53.85 89.55 53.1 85.95 51.45 82.5 49.85 81.9 49.8 L83.7 49.6 89.65 47.55 M79.05 49.9 L77.05 50.6 76.9 49.8 79.05 49.9" fill="#6c0000" fill-rule="evenodd" stroke="none"/>
    <path d="M97.25 45.25 Q97.25 48.3 95.9 50.55 94.75 52.55 91.65 55.4 92.35 56.55 93.1 58.9 93.95 61.5 93.95 63.0 L92.65 68.55 Q89.95 63.4 82.0 59.9 74.0 56.4 71.6 58.5 72.95 54.8 73.5 53.85 L75.3 51.8 74.35 47.5 78.5 47.95 Q83.95 47.95 87.95 46.5 92.55 44.85 96.75 40.8 L97.25 45.25 M89.65 47.55 L83.7 49.6 81.9 49.8 Q82.5 49.85 85.95 51.45 89.55 53.1 90.4 53.85 91.6 53.5 93.3 51.05 95.45 47.95 95.2 44.6 94.45 45.6 89.65 47.55 M91.9 62.6 Q91.9 58.0 88.5 54.8 85.25 51.75 80.8 51.75 78.2 51.75 76.95 53.25 75.65 55.4 74.45 56.6 77.4 56.4 82.6 58.5 88.75 60.95 91.7 64.6 L91.9 62.6 M79.05 49.9 L76.9 49.8 77.05 50.6 79.05 49.9" fill="#550000" fill-rule="evenodd" stroke="none"/>
    <path d="M55.3 -101.5 Q50.1 -96.9 50.1 -92.3 50.1 -88.0 55.15 -84.5 61.65 -80.0 78.95 -74.6 86.75 -72.15 92.1 -66.0 94.45 -63.3 95.8 -62.45 98.05 -61.0 101.5 -61.0 117.1 -61.0 122.6 -65.75 125.95 -68.65 125.95 -74.6 125.95 -80.35 121.65 -83.55 118.25 -86.1 114.25 -86.1 109.3 -86.1 106.8 -83.15 105.05 -81.05 104.05 -76.6 L102.35 -70.1 Q101.1 -67.15 98.2 -67.15 95.7 -67.15 94.3 -69.15 L93.35 -71.25 94.2 -80.2 Q94.2 -87.4 87.2 -96.0 78.8 -106.4 67.2 -106.4 60.8 -106.4 55.3 -101.5 M74.2 -110.05 Q84.85 -110.05 92.95 -103.95 101.3 -97.7 101.3 -89.1 101.3 -83.15 99.6 -78.2 98.75 -75.75 97.8 -74.3 98.55 -75.3 99.1 -76.55 99.95 -78.4 101.05 -82.1 103.6 -88.45 114.85 -88.45 124.35 -88.45 128.35 -80.5 130.4 -76.5 130.5 -72.3 130.5 -69.55 129.65 -66.2 128.3 -60.8 125.1 -55.25 127.2 -56.75 129.65 -59.65 132.1 -62.5 132.35 -63.75 137.55 -64.7 143.65 -59.1 149.6 -53.6 149.6 -48.35 149.6 -43.95 146.25 -41.0 142.75 -37.9 137.1 -37.9 129.8 -37.9 126.8 -39.5 123.55 -41.95 120.05 -43.9 125.9 -40.5 128.15 -34.9 L129.15 -30.5 Q128.95 -30.45 128.85 -30.65 129.95 -27.7 126.1 -21.7 121.8 -15.0 115.95 -15.0 109.35 -15.0 105.65 -20.85 102.65 -25.65 102.65 -31.9 L103.15 -35.55 103.65 -39.2 103.6 -42.25 103.4 -42.45 Q103.1 -42.85 102.75 -43.85 L102.15 -42.1 Q101.4 -40.65 99.95 -40.65 97.6 -40.65 88.95 -46.55 79.05 -53.3 75.3 -54.7 L78.2 -57.45 78.5 -57.8 73.5 -55.7 Q69.1 -53.95 64.8 -53.95 60.05 -53.95 57.3 -56.4 54.9 -58.55 54.9 -61.45 54.9 -68.05 63.15 -71.45 69.7 -74.2 73.1 -73.4 L74.9 -73.6 Q60.95 -76.1 55.1 -79.5 46.85 -84.3 46.85 -93.8 46.85 -99.25 52.5 -103.9 60.05 -110.05 74.2 -110.05 M135.85 -56.65 Q134.0 -56.65 126.5 -54.8 116.85 -52.5 106.3 -48.9 L130.3 -42.9 135.05 -41.85 Q140.55 -41.85 143.25 -44.75 145.15 -46.8 145.15 -49.25 145.15 -52.5 141.95 -54.7 139.15 -56.65 135.85 -56.65 M95.5 -72.35 L94.55 -71.5 96.45 -72.85 95.5 -72.35" fill="#ded9cb" fill-rule="evenodd" stroke="none"/>
    <path d="M74.2 -110.05 Q60.05 -110.05 52.5 -103.9 46.85 -99.25 46.85 -93.8 46.85 -84.3 55.1 -79.5 60.95 -76.1 74.9 -73.6 L73.1 -73.4 Q69.7 -74.2 63.15 -71.45 54.9 -68.05 54.9 -61.45 54.9 -58.55 57.3 -56.4 60.05 -53.95 64.8 -53.95 69.1 -53.95 73.5 -55.7 L78.5 -57.8 78.2 -57.45 75.3 -54.7 Q79.05 -53.3 88.95 -46.55 97.6 -40.65 99.95 -40.65 101.4 -40.65 102.15 -42.1 L102.75 -43.85 Q103.1 -42.85 103.4 -42.45 L103.6 -42.25 103.65 -39.2 103.15 -35.55 102.65 -31.9 Q102.65 -25.65 105.65 -20.85 109.35 -15.0 115.95 -15.0 121.8 -15.0 126.1 -21.7 129.95 -27.7 128.85 -30.65 128.95 -30.45 129.15 -30.5 L128.15 -34.9 Q125.9 -40.5 120.05 -43.9 123.55 -41.95 126.8 -39.5 129.8 -37.9 137.1 -37.9 142.75 -37.9 146.25 -41.0 149.6 -43.95 149.6 -48.35 149.6 -53.6 143.65 -59.1 137.55 -64.7 132.35 -63.75 132.1 -62.5 129.65 -59.65 127.2 -56.75 125.1 -55.25 128.3 -60.8 129.65 -66.2 130.5 -69.55 130.5 -72.3 130.4 -76.5 128.35 -80.5 124.35 -88.45 114.85 -88.45 103.6 -88.45 101.05 -82.1 99.95 -78.4 99.1 -76.55 98.55 -75.3 97.8 -74.3 98.75 -75.75 99.6 -78.2 101.3 -83.15 101.3 -89.1 101.3 -97.7 92.95 -103.95 84.85 -110.05 74.2 -110.05 M50.2 -103.55 Q58.1 -111.9 75.25 -111.9 85.2 -111.9 93.6 -105.75 103.25 -98.7 103.3 -87.75 105.4 -89.25 108.5 -89.8 L113.55 -90.1 Q119.95 -90.1 125.55 -85.5 132.3 -80.0 132.3 -71.05 L131.8 -66.7 Q139.7 -64.55 144.9 -59.7 150.9 -54.15 150.9 -46.9 150.9 -42.55 147.1 -39.35 142.9 -35.85 136.15 -35.85 134.15 -35.85 130.45 -36.7 132.6 -25.5 127.25 -19.2 122.75 -13.9 115.3 -13.9 111.5 -13.9 106.85 -17.45 100.65 -22.2 100.65 -30.0 L100.85 -35.1 Q100.85 -37.0 99.8 -38.2 98.35 -39.95 84.5 -47.55 L75.25 -52.55 Q73.25 -53.5 72.0 -53.5 L68.45 -52.7 64.9 -51.95 Q59.95 -51.95 56.5 -54.55 53.15 -57.1 53.15 -60.75 53.15 -65.0 55.85 -68.55 58.6 -72.2 63.5 -74.1 56.2 -75.35 51.15 -79.45 45.05 -84.35 45.05 -91.5 45.05 -98.1 50.2 -103.55 M95.5 -72.35 L96.45 -72.85 94.55 -71.5 95.5 -72.35" fill="#58524e" fill-rule="evenodd" stroke="none"/>
    <path d="M55.3 -101.5 Q60.8 -106.4 67.2 -106.4 78.8 -106.4 87.2 -96.0 94.2 -87.4 94.2 -80.2 L93.35 -71.25 94.3 -69.15 Q95.7 -67.15 98.2 -67.15 101.1 -67.15 102.35 -70.1 L104.05 -76.6 Q105.05 -81.05 106.8 -83.15 109.3 -86.1 114.25 -86.1 118.25 -86.1 121.65 -83.55 125.95 -80.35 125.95 -74.6 125.95 -68.65 122.6 -65.75 117.1 -61.0 101.5 -61.0 98.05 -61.0 95.8 -62.45 94.45 -63.3 92.1 -66.0 86.75 -72.15 78.95 -74.6 61.65 -80.0 55.15 -84.5 50.1 -88.0 50.1 -92.3 50.1 -96.9 55.3 -101.5 M135.85 -56.65 Q139.15 -56.65 141.95 -54.7 145.15 -52.5 145.15 -49.25 145.15 -46.8 143.25 -44.75 140.55 -41.85 135.05 -41.85 L130.3 -42.9 106.3 -48.9 Q116.85 -52.5 126.5 -54.8 134.0 -56.65 135.85 -56.65" fill="#f2efea" fill-rule="evenodd" stroke="none"/>
  </g>
</svg>
