<?xml version="1.0" encoding="UTF-8" standalone="no"?>
<svg xmlns:ffdec="https://www.free-decompiler.com/flash" xmlns:xlink="http://www.w3.org/1999/xlink" ffdec:objectType="shape" height="47.05px" width="52.7px" xmlns="http://www.w3.org/2000/svg">
  <g transform="matrix(1.0, 0.0, 0.0, 1.0, 29.35, 3.55)">
    <path d="M4.4 -2.9 L3.95 -3.55 Q7.4 -2.7 15.3 6.75 23.35 16.3 23.35 20.0 23.35 22.3 22.3 23.65 21.25 25.0 19.3 25.0 17.9 25.0 16.3 24.15 L15.4 23.45 15.95 28.1 Q15.95 33.15 13.25 36.6 10.95 39.6 8.4 39.6 6.6 39.6 6.3 38.05 L5.1 32.15 Q2.65 43.5 -3.4 43.5 -6.65 43.5 -8.05 42.05 -9.55 40.55 -9.55 36.85 -9.55 34.9 -8.3 28.3 -7.1 21.7 -7.1 19.8 -7.1 18.4 -8.05 16.9 -9.05 15.35 -10.0 15.35 L-17.3 21.9 Q-17.8 22.4 -19.75 23.1 L-22.15 23.75 Q-25.3 23.75 -27.5 21.65 -29.35 19.95 -29.35 18.45 -29.35 12.8 -18.1 6.9 L-14.65 5.45 -10.15 2.85 Q-7.9 1.0 -6.35 -1.8 -6.0 -2.45 -0.8 -3.15 L-3.85 -1.65 Q-6.15 2.1 -10.5 4.85 L-18.3 8.85 Q-22.95 11.0 -24.85 12.75 -27.55 15.25 -27.55 19.05 -27.55 20.25 -25.45 21.15 L-22.95 21.85 -20.1 21.2 -18.35 20.5 Q-10.25 13.55 -10.1 13.55 -8.5 13.55 -7.05 15.3 -5.5 17.15 -5.5 19.4 -5.5 23.05 -6.6 27.4 -7.75 31.7 -7.75 36.85 -7.75 39.1 -7.1 40.25 -6.25 41.8 -4.15 41.8 -1.4 41.8 0.7 39.4 3.45 36.2 3.45 29.9 L2.65 22.15 Q2.3 18.85 4.0 17.45 L4.1 17.75 7.25 36.55 7.35 36.5 7.55 37.65 Q7.55 37.85 8.1 37.85 10.2 37.85 12.05 35.35 14.2 32.45 14.2 28.15 14.2 26.0 13.6 23.65 12.65 19.95 9.85 13.35 L9.8 13.05 10.35 12.7 13.3 16.6 Q14.45 20.0 16.35 21.8 L18.5 23.25 Q20.85 22.9 21.45 22.15 L21.7 20.7 Q21.7 17.05 15.75 9.75 L4.4 -2.9" fill="#5c4730" fill-rule="evenodd" stroke="none"/>
    <path d="M-0.8 -3.15 L2.15 -3.3 Q3.45 -0.1 6.85 3.8 L14.3 11.75 Q18.1 15.75 19.3 17.7 20.1 18.95 20.1 20.2 L19.9 21.25 19.2 21.95 13.3 16.6 10.35 12.7 9.8 13.05 9.85 13.35 7.15 11.45 7.45 12.9 Q8.1 14.8 10.95 20.5 12.8 24.15 12.8 27.25 12.8 29.75 12.4 30.9 11.8 32.7 10.1 32.7 8.5 32.7 7.2 28.65 L4.1 17.75 4.0 17.45 2.55 15.95 Q0.8 17.1 0.8 18.7 L1.0 20.35 1.9 24.85 Q2.55 28.75 2.55 30.95 2.55 34.2 0.4 36.35 -1.5 38.25 -3.75 38.25 -4.9 38.25 -5.65 36.2 -6.25 34.5 -6.25 32.55 L-5.9 29.65 -4.55 22.75 Q-4.0 20.5 -4.0 20.05 -4.0 17.7 -5.2 15.2 -6.7 12.1 -8.95 12.1 -11.15 12.1 -13.85 15.3 -16.55 18.5 -20.45 18.5 L-21.4 18.25 Q-22.35 17.6 -22.35 15.7 -22.35 13.35 -20.4 11.8 L-12.9 7.45 Q-6.85 4.25 -4.95 1.8 -3.9 0.45 -3.85 -1.65 L-0.8 -3.15" fill="#f1ba87" fill-rule="evenodd" stroke="none"/>
    <path d="M2.15 -3.3 L4.4 -2.9 15.75 9.75 Q21.7 17.05 21.7 20.7 L21.45 22.15 Q20.85 22.9 18.5 23.25 L16.35 21.8 Q14.45 20.0 13.3 16.6 L19.2 21.95 19.9 21.25 20.1 20.2 Q20.1 18.95 19.3 17.7 18.1 15.75 14.3 11.75 L6.85 3.8 Q3.45 -0.1 2.15 -3.3 M9.85 13.35 Q12.65 19.95 13.6 23.65 14.2 26.0 14.2 28.15 14.2 32.45 12.05 35.35 10.2 37.85 8.1 37.85 7.55 37.85 7.55 37.65 L7.35 36.5 7.25 36.55 4.1 17.75 7.2 28.65 Q8.5 32.7 10.1 32.7 11.8 32.7 12.4 30.9 12.8 29.75 12.8 27.25 12.8 24.15 10.95 20.5 8.1 14.8 7.45 12.9 L7.15 11.45 9.85 13.35 M4.0 17.45 Q2.3 18.85 2.65 22.15 L3.45 29.9 Q3.45 36.2 0.7 39.4 -1.4 41.8 -4.15 41.8 -6.25 41.8 -7.1 40.25 -7.75 39.1 -7.75 36.85 -7.75 31.7 -6.6 27.4 -5.5 23.05 -5.5 19.4 -5.5 17.15 -7.05 15.3 -8.5 13.55 -10.1 13.55 -10.25 13.55 -18.35 20.5 L-20.1 21.2 -22.95 21.85 -25.45 21.15 Q-27.55 20.25 -27.55 19.05 -27.55 15.25 -24.85 12.75 -22.95 11.0 -18.3 8.85 L-10.5 4.85 Q-6.15 2.1 -3.85 -1.65 -3.9 0.45 -4.95 1.8 -6.85 4.25 -12.9 7.45 L-20.4 11.8 Q-22.35 13.35 -22.35 15.7 -22.35 17.6 -21.4 18.25 L-20.45 18.5 Q-16.55 18.5 -13.85 15.3 -11.15 12.1 -8.95 12.1 -6.7 12.1 -5.2 15.2 -4.0 17.7 -4.0 20.05 -4.0 20.5 -4.55 22.75 L-5.9 29.65 -6.25 32.55 Q-6.25 34.5 -5.65 36.2 -4.9 38.25 -3.75 38.25 -1.5 38.25 0.4 36.35 2.55 34.2 2.55 30.95 2.55 28.75 1.9 24.85 L1.0 20.35 0.8 18.7 Q0.8 17.1 2.55 15.95 L4.0 17.45 M4.75 20.2 L4.8 20.35 4.8 20.3 4.75 20.2" fill="#db9c64" fill-rule="evenodd" stroke="none"/>
  </g>
</svg>
