<?xml version="1.0" encoding="UTF-8" standalone="no"?>
<svg xmlns:ffdec="https://www.free-decompiler.com/flash" xmlns:xlink="http://www.w3.org/1999/xlink" ffdec:objectType="shape" height="123.8px" width="108.7px" xmlns="http://www.w3.org/2000/svg">
  <g transform="matrix(1.0, 0.0, 0.0, 1.0, 60.65, 50.9)">
    <path d="M-27.55 -31.3 L-31.3 -30.5 -34.15 -30.15 -41.15 -31.0 -45.65 -31.9 Q-49.05 -31.9 -51.85 -27.7 -53.6 -26.15 -55.1 -23.65 -59.25 -16.85 -58.65 -8.4 L-50.65 -7.35 Q-49.75 -7.4 -47.35 -9.15 L-45.15 -10.95 Q-43.25 -10.05 -42.9 -9.0 L-42.8 -6.85 -33.5 -6.55 Q-32.6 -6.55 -30.8 -11.7 -29.2 -16.35 -29.1 -15.95 -27.95 -14.95 -26.6 -11.75 -25.45 -9.05 -25.45 -8.35 -25.45 -6.15 -19.45 -6.15 -16.55 -6.15 -13.35 -7.2 L-10.35 -8.35 -7.0 -5.45 -0.3 -5.6 Q2.9 -8.75 3.4 -9.95 4.6 -12.9 4.85 -22.25 L4.9 -21.9 4.9 -21.8 4.9 -18.35 5.95 -6.75 Q7.0 -0.35 4.9 11.2 L4.15 15.0 6.05 12.1 Q7.95 9.85 9.25 5.5 L10.95 -0.8 11.7 -0.6 12.2 3.65 Q12.65 10.0 11.5 22.65 L10.25 34.15 11.1 32.85 12.5 31.4 13.25 34.0 12.3 55.55 Q12.4 63.45 15.65 67.1 19.0 70.85 26.2 70.85 27.8 70.85 29.2 69.9 L27.45 68.05 26.95 66.3 Q31.8 66.05 34.2 64.15 36.2 62.6 37.9 58.5 L34.9 59.8 29.3 59.15 Q28.25 58.85 27.75 58.15 L27.15 56.5 27.65 56.4 29.3 57.4 Q30.7 58.25 31.3 58.25 L35.15 57.25 Q38.1 56.25 39.4 55.4 L40.45 55.25 40.95 55.35 Q40.8 56.8 40.0 58.45 L38.45 61.05 39.7 60.5 Q40.6 60.0 42.9 57.3 45.15 54.65 45.6 53.6 L46.2 51.55 46.25 49.35 Q45.25 50.95 43.1 51.7 L40.15 52.2 Q27.5 52.2 27.5 32.65 L29.3 16.9 Q31.05 -0.4 31.05 -8.6 31.05 -29.05 14.6 -40.2 1.95 -48.8 -12.95 -48.8 -29.3 -48.8 -37.85 -44.2 -45.05 -40.4 -44.9 -34.8 L-37.7 -32.4 Q-32.1 -30.75 -28.6 -31.25 L-27.55 -31.3 M4.9 -11.1 Q4.55 -9.95 3.1 -8.1 1.1 -5.4 0.0 -4.65 L-7.75 -4.35 -10.5 -6.85 Q-11.55 -6.35 -14.75 -5.75 L-19.1 -5.1 -21.65 -5.3 -24.2 -5.65 Q-26.85 -6.2 -27.55 -8.75 L-28.9 -13.0 Q-29.1 -11.15 -30.25 -9.0 -32.25 -5.4 -35.65 -5.4 -39.65 -5.4 -42.4 -6.55 -45.05 -7.7 -45.15 -9.35 -45.6 -7.35 -47.9 -6.65 L-52.25 -6.2 Q-56.65 -6.2 -58.8 -7.2 -60.65 -8.0 -60.65 -9.4 -60.65 -22.05 -55.3 -27.7 -51.9 -33.55 -46.25 -34.75 -46.3 -38.5 -42.8 -42.05 -40.3 -44.65 -37.4 -46.0 -31.75 -48.65 -22.65 -50.0 L-11.35 -50.9 Q-1.75 -50.9 6.95 -46.7 15.85 -42.35 25.25 -32.9 30.95 -22.8 31.15 -21.9 L32.2 -16.6 32.65 -12.75 Q32.65 -6.8 31.0 11.25 29.35 29.35 29.35 31.95 L29.65 37.0 30.25 43.3 Q31.65 45.6 33.6 48.15 36.9 50.65 39.25 50.75 L40.4 50.6 40.6 50.6 Q41.5 50.45 43.4 49.15 45.75 47.5 46.35 45.75 48.15 47.5 48.05 51.3 48.05 53.9 45.9 57.0 43.5 60.4 39.8 62.25 L35.15 65.75 Q32.35 67.95 29.6 67.85 L32.2 68.9 31.7 69.6 Q30.3 71.0 27.45 72.05 25.15 72.9 24.05 72.9 17.25 72.9 13.8 67.6 10.4 62.35 10.4 52.15 L11.35 35.85 9.55 36.55 9.45 33.35 Q9.45 26.55 10.2 20.15 10.9 13.7 10.9 10.55 L10.75 6.65 Q8.9 11.55 4.9 16.15 L2.75 18.4 2.05 17.75 Q3.6 13.35 4.45 6.1 L4.9 0.95 5.0 -1.4 4.9 -1.0 4.9 -11.1" fill="#97877d" fill-rule="evenodd" stroke="none"/>
    <path d="M4.9 -21.9 L4.9 -24.05 Q3.6 -26.15 1.25 -27.6 L1.05 -27.7 Q-3.1 -31.65 -10.25 -32.35 L0.5 -32.05 Q5.0 -32.05 10.05 -25.0 14.1 -19.45 14.8 -16.3 15.1 -6.0 15.75 3.25 17.05 21.35 22.0 29.75 L22.55 26.4 22.8 22.95 Q22.8 13.05 18.05 -22.15 L15.45 -29.3 Q14.65 -30.85 12.7 -33.3 6.65 -40.8 -4.9 -40.8 -9.25 -40.8 -13.15 -39.5 -19.1 -37.45 -21.15 -32.95 L-16.2 -33.85 Q-13.3 -34.6 -11.25 -35.95 L-11.6 -32.6 Q-10.35 -32.6 -6.35 -33.75 -2.2 -34.95 -10.8 -32.4 L-13.85 -32.5 Q-17.95 -32.5 -20.9 -31.15 -23.9 -29.85 -24.05 -29.85 L-25.4 -30.3 -27.55 -31.3 -28.6 -31.25 Q-26.95 -35.05 -24.2 -37.6 -18.3 -43.1 -8.35 -43.1 9.5 -43.1 19.4 -30.55 28.65 -18.75 28.65 0.8 28.65 10.75 27.85 17.75 26.95 25.7 25.35 25.75 L26.2 15.85 Q26.95 7.45 26.95 0.85 26.95 -9.0 24.65 -16.6 22.25 -24.55 17.0 -31.25 23.9 -19.1 23.9 8.35 23.9 13.55 23.15 28.6 L22.35 42.25 Q22.35 44.35 24.15 49.95 26.1 55.8 27.75 58.15 28.25 58.85 29.3 59.15 L34.9 59.8 Q33.5 62.2 30.65 64.2 27.7 66.3 24.65 66.95 L23.1 67.2 24.0 67.65 27.45 68.05 29.2 69.9 Q22.95 69.8 18.4 66.15 13.6 62.25 12.3 55.55 L13.25 34.0 Q14.35 24.4 14.35 20.05 14.35 16.35 13.95 12.25 13.3 14.55 11.1 32.85 L10.25 34.15 11.5 22.65 Q12.65 10.0 12.2 3.65 L12.95 -3.75 Q12.95 -11.6 11.65 -15.4 10.65 -18.3 8.15 -20.4 8.0 -17.95 8.9 -13.2 9.95 -8.05 9.95 -4.8 9.95 3.7 6.05 12.1 L4.15 15.0 4.9 11.2 Q7.0 -0.35 5.95 -6.75 6.45 -9.8 6.45 -12.2 6.45 -17.75 4.9 -21.8 L4.9 -21.9 M2.35 -13.75 Q-0.05 -7.35 -5.55 -7.45 -6.2 -7.85 -5.9 -9.4 L-5.45 -11.55 -5.7 -13.75 -6.5 -17.1 Q-7.05 -13.25 -9.35 -10.8 -12.25 -7.75 -17.5 -7.75 -20.8 -7.75 -23.3 -9.8 -27.15 -12.9 -28.0 -20.2 L-28.75 -20.45 Q-31.35 -17.15 -33.15 -12.0 -34.45 -8.4 -35.65 -8.4 L-41.8 -8.4 -42.25 -12.2 -42.7 -16.2 Q-44.7 -14.75 -47.15 -11.55 -49.05 -9.15 -51.65 -8.15 -51.0 -22.75 -37.4 -27.7 L-37.05 -27.9 -37.1 -27.7 -40.25 -22.8 Q-38.85 -22.6 -38.05 -23.35 -36.4 -24.9 -32.5 -26.45 -31.0 -27.05 -26.95 -27.7 L-23.05 -28.6 Q-15.75 -30.2 -11.75 -30.2 -4.65 -30.2 -1.45 -27.7 L-1.35 -27.65 Q1.45 -26.2 3.15 -22.2 4.45 -19.2 2.35 -13.75 M46.2 51.55 L45.6 53.6 Q44.2 54.9 40.95 55.35 L40.45 55.25 39.4 55.4 Q32.75 54.65 31.2 53.45 29.5 52.1 26.1 45.0 31.1 49.55 33.2 52.6 33.95 53.35 38.6 53.35 L41.9 52.45 46.2 51.55 M18.9 31.95 Q18.05 25.55 15.55 22.0 L15.25 28.8 14.8 39.5 13.7 49.75 Q13.7 57.3 18.0 61.7 21.15 64.95 23.85 64.95 L26.45 64.7 Q26.45 64.15 27.75 63.25 23.75 62.3 21.2 57.05 18.55 51.7 19.1 45.2 19.75 37.8 18.9 31.95 M-41.25 -29.65 L-43.35 -27.7 Q-47.55 -25.0 -50.8 -20.45 -54.15 -15.7 -54.2 -12.95 L-55.3 -13.05 -55.3 -14.85 Q-55.0 -21.25 -51.5 -25.25 -50.15 -26.75 -48.55 -27.7 -46.0 -30.1 -42.75 -30.1 L-41.6 -29.85 -41.25 -29.65 M-44.9 -20.55 Q-46.75 -17.7 -46.75 -14.9 -46.75 -13.25 -46.4 -13.05 L-46.15 -13.0 -44.45 -17.7 Q-42.65 -22.2 -41.05 -23.85 -43.1 -23.35 -44.9 -20.55 M-14.75 -44.3 Q-14.7 -43.7 -19.15 -41.85 L-23.9 -40.0 Q-26.6 -38.35 -32.15 -33.95 L-32.1 -34.85 Q-31.75 -37.4 -28.9 -40.6 -24.9 -45.0 -19.1 -45.0 L-14.75 -44.3 M-19.2 -27.5 L-22.85 -26.75 -21.35 -14.6 -19.05 -14.6 -19.05 -15.4 Q-18.0 -10.3 -17.05 -9.5 -14.5 -9.9 -12.3 -12.7 -10.15 -15.35 -9.7 -15.35 -8.9 -15.35 -7.95 -16.75 -6.65 -18.75 -6.65 -22.5 -6.65 -24.75 -8.9 -26.2 -10.8 -27.35 -13.85 -27.7 L-16.35 -27.9 -17.85 -27.7 -19.2 -27.5 M-35.4 -39.45 L-33.65 -40.65 Q-33.35 -40.35 -35.4 -38.4 -37.4 -36.45 -37.75 -36.8 -36.85 -38.3 -35.4 -39.45 M-26.7 -26.7 Q-30.9 -27.35 -34.55 -22.4 -38.05 -17.7 -38.05 -12.35 L-38.0 -10.95 Q-36.05 -12.9 -32.4 -18.0 -28.45 -23.55 -26.25 -25.9 L-26.7 -26.7 M-3.9 -11.35 Q-2.5 -11.95 -1.2 -14.45 0.05 -16.85 0.05 -18.5 0.05 -21.45 -1.75 -23.5 L-5.6 -27.05 -3.9 -19.95 Q-2.8 -14.65 -3.9 -11.35 M-4.4 -25.2 Q-2.9 -24.0 -3.0 -22.85 L-4.4 -25.2" fill="#ebe8e0" fill-rule="evenodd" stroke="none"/>
    <path d="M-10.25 -32.35 Q-3.1 -31.65 1.05 -27.7 L1.25 -27.6 Q3.6 -26.15 4.9 -24.05 L4.9 -21.9 4.85 -22.25 Q4.6 -12.9 3.4 -9.95 2.9 -8.75 -0.3 -5.6 L-7.0 -5.45 -10.35 -8.35 -13.35 -7.2 Q-16.55 -6.15 -19.45 -6.15 -25.45 -6.15 -25.45 -8.35 -25.45 -9.05 -26.6 -11.75 -27.95 -14.95 -29.1 -15.95 -29.2 -16.35 -30.8 -11.7 -32.6 -6.55 -33.5 -6.55 L-42.8 -6.85 -42.9 -9.0 Q-43.25 -10.05 -45.15 -10.95 L-47.35 -9.15 Q-49.75 -7.4 -50.65 -7.35 L-58.65 -8.4 Q-59.25 -16.85 -55.1 -23.65 -53.6 -26.15 -51.85 -27.7 -49.05 -31.9 -45.65 -31.9 L-41.15 -31.0 -34.15 -30.15 -31.3 -30.5 -27.55 -31.3 -25.4 -30.3 -24.05 -29.85 Q-23.9 -29.85 -20.9 -31.15 -17.95 -32.5 -13.85 -32.5 L-10.8 -32.4 -10.25 -32.35 M4.9 -21.8 Q6.45 -17.75 6.45 -12.2 6.45 -9.8 5.95 -6.75 L4.9 -18.35 4.9 -21.8 M6.05 12.1 Q9.95 3.7 9.95 -4.8 9.95 -8.05 8.9 -13.2 8.0 -17.95 8.15 -20.4 10.65 -18.3 11.65 -15.4 12.95 -11.6 12.95 -3.75 L12.2 3.65 11.7 -0.6 10.95 -0.8 9.25 5.5 Q7.95 9.85 6.05 12.1 M11.1 32.85 Q13.3 14.55 13.95 12.25 14.35 16.35 14.35 20.05 14.35 24.4 13.25 34.0 L12.5 31.4 11.1 32.85 M12.3 55.55 Q13.6 62.25 18.4 66.15 22.95 69.8 29.2 69.9 27.8 70.85 26.2 70.85 19.0 70.85 15.65 67.1 12.4 63.45 12.3 55.55 M27.45 68.05 L24.0 67.65 23.1 67.2 24.65 66.95 Q27.7 66.3 30.65 64.2 33.5 62.2 34.9 59.8 L37.9 58.5 Q36.2 62.6 34.2 64.15 31.8 66.05 26.95 66.3 L27.45 68.05 M27.75 58.15 Q26.1 55.8 24.15 49.95 22.35 44.35 22.35 42.25 L23.15 28.6 Q23.9 13.55 23.9 8.35 23.9 -19.1 17.0 -31.25 22.25 -24.55 24.65 -16.6 26.95 -9.0 26.95 0.85 26.95 7.45 26.2 15.85 L25.35 25.75 Q26.95 25.7 27.85 17.75 28.65 10.75 28.65 0.8 28.65 -18.75 19.4 -30.55 9.5 -43.1 -8.35 -43.1 -18.3 -43.1 -24.2 -37.6 -26.95 -35.05 -28.6 -31.25 -32.1 -30.75 -37.7 -32.4 L-44.9 -34.8 Q-45.05 -40.4 -37.85 -44.2 -29.3 -48.8 -12.95 -48.8 1.95 -48.8 14.6 -40.2 31.05 -29.05 31.05 -8.6 31.05 -0.4 29.3 16.9 L27.5 32.65 Q27.5 52.2 40.15 52.2 L43.1 51.7 Q45.25 50.95 46.25 49.35 L46.2 51.55 41.9 52.45 38.6 53.35 Q33.95 53.35 33.2 52.6 31.1 49.55 26.1 45.0 29.5 52.1 31.2 53.45 32.75 54.65 39.4 55.4 38.1 56.25 35.15 57.25 L31.3 58.25 Q30.7 58.25 29.3 57.4 L27.65 56.4 27.15 56.5 27.75 58.15 M2.35 -13.75 Q4.45 -19.2 3.15 -22.2 1.45 -26.2 -1.35 -27.65 L-1.45 -27.7 Q-4.65 -30.2 -11.75 -30.2 -15.75 -30.2 -23.05 -28.6 L-26.95 -27.7 Q-31.0 -27.05 -32.5 -26.45 -36.4 -24.9 -38.05 -23.35 -38.85 -22.6 -40.25 -22.8 L-37.1 -27.7 -37.05 -27.9 -37.4 -27.7 Q-51.0 -22.75 -51.65 -8.15 -49.05 -9.15 -47.15 -11.55 -44.7 -14.75 -42.7 -16.2 L-42.25 -12.2 -41.8 -8.4 -35.65 -8.4 Q-34.45 -8.4 -33.15 -12.0 -31.35 -17.15 -28.75 -20.45 L-28.0 -20.2 Q-27.15 -12.9 -23.3 -9.8 -20.8 -7.75 -17.5 -7.75 -12.25 -7.75 -9.35 -10.8 -7.05 -13.25 -6.5 -17.1 L-5.7 -13.75 -5.45 -11.55 -5.9 -9.4 Q-6.2 -7.85 -5.55 -7.45 -0.05 -7.35 2.35 -13.75 M45.6 53.6 Q45.15 54.65 42.9 57.3 40.6 60.0 39.7 60.5 L38.45 61.05 40.0 58.45 Q40.8 56.8 40.95 55.35 44.2 54.9 45.6 53.6 M-41.25 -29.65 L-41.6 -29.85 -42.75 -30.1 Q-46.0 -30.1 -48.55 -27.7 -50.15 -26.75 -51.5 -25.25 -55.0 -21.25 -55.3 -14.85 L-55.3 -13.05 -54.2 -12.95 Q-54.15 -15.7 -50.8 -20.45 -47.55 -25.0 -43.35 -27.7 L-41.25 -29.65 M-14.75 -44.3 L-19.1 -45.0 Q-24.9 -45.0 -28.9 -40.6 -31.75 -37.4 -32.1 -34.85 L-32.15 -33.95 Q-26.6 -38.35 -23.9 -40.0 L-19.15 -41.85 Q-14.7 -43.7 -14.75 -44.3 M-35.4 -39.45 Q-36.85 -38.3 -37.75 -36.8 -37.4 -36.45 -35.4 -38.4 -33.35 -40.35 -33.65 -40.65 L-35.4 -39.45" fill="#cbc8c0" fill-rule="evenodd" stroke="none"/>
    <path d="M-10.25 -32.35 L-10.8 -32.4 Q-2.2 -34.95 -6.35 -33.75 -10.35 -32.6 -11.6 -32.6 L-11.25 -35.95 Q-13.3 -34.6 -16.2 -33.85 L-21.15 -32.95 Q-19.1 -37.45 -13.15 -39.5 -9.25 -40.8 -4.9 -40.8 6.65 -40.8 12.7 -33.3 14.65 -30.85 15.45 -29.3 L18.05 -22.15 Q22.8 13.05 22.8 22.95 L22.55 26.4 22.0 29.75 Q17.05 21.35 15.75 3.25 15.1 -6.0 14.8 -16.3 14.1 -19.45 10.05 -25.0 5.0 -32.05 0.5 -32.05 L-10.25 -32.35 M18.9 31.95 Q19.75 37.8 19.1 45.2 18.55 51.7 21.2 57.05 23.75 62.3 27.75 63.25 26.45 64.15 26.45 64.7 L23.85 64.95 Q21.15 64.95 18.0 61.7 13.7 57.3 13.7 49.75 L14.8 39.5 15.25 28.8 15.55 22.0 Q18.05 25.55 18.9 31.95 M-44.9 -20.55 Q-43.1 -23.35 -41.05 -23.85 -42.65 -22.2 -44.45 -17.7 L-46.15 -13.0 -46.4 -13.05 Q-46.75 -13.25 -46.75 -14.9 -46.75 -17.7 -44.9 -20.55 M-19.2 -27.5 L-17.85 -27.7 -16.35 -27.9 -13.85 -27.7 Q-10.8 -27.35 -8.9 -26.2 -6.65 -24.75 -6.65 -22.5 -6.65 -18.75 -7.95 -16.75 -8.9 -15.35 -9.7 -15.35 -10.15 -15.35 -12.3 -12.7 -14.5 -9.9 -17.05 -9.5 -18.0 -10.3 -19.05 -15.4 L-19.05 -14.6 -21.35 -14.6 -22.85 -26.75 -19.2 -27.5 M-4.4 -25.2 L-3.0 -22.85 Q-2.9 -24.0 -4.4 -25.2 M-3.9 -11.35 Q-2.8 -14.65 -3.9 -19.95 L-5.6 -27.05 -1.75 -23.5 Q0.05 -21.45 0.05 -18.5 0.05 -16.85 -1.2 -14.45 -2.5 -11.95 -3.9 -11.35 M-26.7 -26.7 L-26.25 -25.9 Q-28.45 -23.55 -32.4 -18.0 -36.05 -12.9 -38.0 -10.95 L-38.05 -12.35 Q-38.05 -17.7 -34.55 -22.4 -30.9 -27.35 -26.7 -26.7" fill="#ffffff" fill-rule="evenodd" stroke="none"/>
  </g>
</svg>
