<?xml version="1.0" encoding="UTF-8" standalone="no"?>
<svg xmlns:ffdec="https://www.free-decompiler.com/flash" xmlns:xlink="http://www.w3.org/1999/xlink" ffdec:objectType="shape" height="137.05px" width="101.15px" xmlns="http://www.w3.org/2000/svg">
  <g transform="matrix(1.0, 0.0, 0.0, 1.0, 43.7, 47.45)">
    <path d="M-20.75 52.4 L-20.6 49.1 Q-20.6 48.5 -20.75 47.95 L-21.25 46.0 Q-22.15 57.5 -23.0 62.9 -24.55 72.75 -26.75 72.75 L-30.35 72.35 Q-32.9 72.25 -36.9 69.6 -41.4 66.65 -42.2 63.55 L-42.5 62.25 Q-39.45 65.3 -37.1 65.3 -33.35 65.3 -29.7 60.0 -25.5 53.9 -25.5 45.2 -25.5 38.4 -28.95 20.6 -32.45 2.8 -32.45 0.0 -32.45 -22.6 -17.95 -35.1 -5.25 -46.05 13.95 -46.05 L20.4 -45.4 Q25.2 -44.65 25.75 -44.05 26.2 -41.15 27.1 -39.9 L28.1 -39.1 29.95 -40.35 Q31.0 -40.95 31.5 -40.95 L32.25 -40.9 Q35.95 -40.85 40.85 -38.35 46.6 -35.45 49.2 -31.65 50.8 -29.4 52.25 -26.55 54.2 -22.9 54.6 -20.95 L55.5 -17.4 56.3 -12.0 Q54.35 -10.15 53.35 -9.75 51.05 -20.95 47.35 -28.1 42.2 -38.0 35.2 -38.0 33.6 -38.0 32.25 -36.85 30.95 -36.35 29.8 -35.4 L27.85 -33.2 Q29.95 -19.55 30.6 -16.45 31.1 -14.15 32.25 -10.8 L32.25 -15.15 33.25 -12.75 32.55 -18.1 32.25 -20.05 32.25 -22.1 Q32.5 -22.9 33.1 -23.95 34.0 -17.85 39.25 -6.85 L34.85 -12.35 Q33.8 -11.15 33.05 -7.85 32.1 -2.15 31.95 -5.0 L31.1 -10.65 30.35 -14.0 29.45 -12.3 Q28.35 -29.8 24.15 -36.05 20.25 -41.8 10.75 -41.8 4.2 -41.8 -1.9 -39.2 -8.15 -36.5 -16.3 -30.15 -23.3 -24.7 -25.45 -20.25 -28.3 -14.35 -28.3 -1.55 -28.3 8.4 -25.55 24.0 -24.45 18.65 -24.7 10.4 L-25.1 -3.35 Q-24.8 -19.75 -14.45 -29.65 -15.2 -26.75 -16.75 -23.35 L-19.4 -17.55 Q-22.5 -10.05 -22.5 0.4 L-20.55 49.2 -20.75 52.4 M50.65 -9.0 L49.6 -8.85 47.75 -11.65 45.65 -14.15 Q44.2 -13.15 43.95 -12.4 L43.3 -7.9 Q43.95 -21.9 42.1 -25.85 L43.05 -25.8 Q43.0 -25.1 46.5 -17.8 L50.65 -9.0 M23.05 64.3 L21.5 40.5 Q25.35 59.65 32.8 68.25 38.05 74.3 44.15 74.3 46.85 74.3 49.15 73.45 L53.5 71.35 Q52.5 74.7 48.0 77.55 43.6 80.4 39.9 80.15 40.25 79.45 40.6 77.15 L40.9 75.0 Q28.95 74.0 26.4 71.35 25.45 70.3 25.0 68.25 L24.0 64.05 23.05 64.3 M41.4 71.05 Q31.25 65.8 29.15 58.3 25.6 45.9 23.85 33.95 21.75 19.6 21.75 3.5 22.05 -14.65 22.75 -19.5 24.15 -7.0 27.05 1.7 30.85 13.25 36.6 15.65 L37.15 16.35 33.4 13.75 Q29.8 10.85 28.15 8.8 L25.35 4.1 Q23.75 1.3 24.15 3.3 25.6 38.6 29.3 52.4 32.7 65.25 41.4 71.05 M-18.65 76.3 Q-15.45 74.65 -13.95 72.2 -10.0 65.95 -10.0 52.4 L-11.45 14.5 Q-11.2 14.35 -11.6 7.9 L-12.1 0.7 Q-12.1 -9.65 -8.75 -18.6 -5.75 -26.75 -2.0 -28.85 -8.45 -14.15 -8.45 -1.7 -8.45 3.65 -6.7 24.25 -5.0 44.9 -5.0 54.55 -5.0 59.8 -6.3 66.35 -7.65 72.9 -8.95 74.1 -8.15 72.05 -7.15 65.55 -6.25 59.35 -6.25 56.7 L-6.65 51.45 Q-7.2 46.6 -7.95 43.65 L-7.65 66.35 Q-7.65 70.85 -10.9 73.6 -13.9 76.1 -18.65 76.3 M-17.2 77.9 L-11.6 80.9 Q-10.4 81.45 -8.5 81.45 0.7 81.45 3.3 72.55 4.25 69.15 5.0 62.2 L6.5 48.5 7.5 55.8 7.9 60.8 Q7.9 66.0 7.3 69.75 6.6 73.85 4.45 80.8 3.3 81.6 0.15 82.5 -3.45 83.5 -6.2 83.5 -12.85 83.5 -19.45 78.7 L-19.85 78.0 -17.2 77.9 M9.1 85.95 Q12.3 83.6 13.9 79.25 15.25 75.7 15.25 71.85 15.05 66.15 15.2 62.9 18.6 75.65 21.15 79.0 23.15 81.7 27.9 81.7 L30.8 80.8 34.0 79.2 38.55 76.2 39.4 76.15 Q39.25 80.05 35.1 82.55 31.55 84.65 27.75 84.65 25.95 84.65 22.2 82.55 18.5 80.4 17.95 80.4 13.1 83.2 9.1 85.95 M-21.3 78.85 L-20.15 80.45 -19.95 80.7 -18.55 81.8 -21.85 82.65 -26.05 83.15 -30.05 82.3 Q-34.05 81.0 -36.0 78.55 L-30.6 79.45 -26.75 79.75 -23.65 79.3 -21.3 78.85" fill="#cbc8c0" fill-rule="evenodd" stroke="none"/>
    <path d="M32.25 -41.9 L36.4 -41.35 Q41.6 -40.2 46.05 -37.05 57.35 -29.15 57.45 -14.15 L57.45 -13.9 57.45 -13.2 Q57.0 -7.5 49.15 -7.5 L45.6 -12.1 45.2 -6.55 38.5 -5.75 34.85 -10.35 32.25 -1.35 32.25 -0.8 31.5 -1.9 Q31.75 2.5 34.85 9.2 L38.75 17.45 Q36.05 17.7 32.15 14.75 28.6 12.15 26.25 8.7 26.1 45.3 35.75 61.25 38.95 66.5 42.85 68.9 45.3 70.4 47.0 70.4 48.85 70.4 50.9 69.45 52.85 68.6 54.35 67.15 55.25 68.0 55.3 69.5 55.65 73.1 51.85 76.6 49.0 79.2 45.25 80.8 L38.05 83.8 Q31.0 86.55 28.45 86.55 25.3 86.55 22.6 85.6 19.05 84.3 17.25 81.6 14.85 85.25 9.95 87.6 5.7 89.6 2.25 89.6 -0.3 89.35 -1.55 88.3 L1.0 85.45 -3.55 85.7 -8.15 85.5 -16.8 82.85 -25.4 85.05 Q-29.95 85.05 -34.3 81.9 -37.45 79.6 -38.4 77.75 -37.1 77.05 -32.95 76.1 -29.55 75.25 -28.25 74.05 L-29.35 74.5 Q-35.65 73.25 -39.8 69.65 -43.7 66.2 -43.7 62.55 L-43.5 60.35 -43.05 60.3 Q-41.55 60.8 -39.6 62.3 -37.9 63.6 -37.1 63.6 -33.85 63.6 -31.25 60.3 -27.25 55.2 -27.25 43.7 -27.25 40.65 -30.45 19.6 -33.95 -3.4 -33.95 -5.95 -33.95 -21.9 -21.6 -34.1 -8.15 -47.45 12.4 -47.45 19.15 -47.45 24.05 -45.6 29.0 -43.75 28.35 -41.4 L32.25 -41.9 M53.35 -9.75 Q54.35 -10.15 56.3 -12.0 L55.5 -17.4 54.6 -20.95 Q54.2 -22.9 52.25 -26.55 50.8 -29.4 49.2 -31.65 46.6 -35.45 40.85 -38.35 35.95 -40.85 32.25 -40.9 L31.5 -40.95 Q31.0 -40.95 29.95 -40.35 L28.1 -39.1 27.1 -39.9 Q26.2 -41.15 25.75 -44.05 25.2 -44.65 20.4 -45.4 L13.95 -46.05 Q-5.25 -46.05 -17.95 -35.1 -32.45 -22.6 -32.45 0.0 -32.45 2.8 -28.95 20.6 -25.5 38.4 -25.5 45.2 -25.5 53.9 -29.7 60.0 -33.35 65.3 -37.1 65.3 -39.45 65.3 -42.5 62.25 L-42.2 63.55 Q-41.4 66.65 -36.9 69.6 -32.9 72.25 -30.35 72.35 L-26.75 72.75 Q-24.55 72.75 -23.0 62.9 -22.15 57.5 -21.25 46.0 L-20.75 47.95 Q-20.6 48.5 -20.6 49.1 L-20.75 52.4 Q-20.85 65.3 -23.85 70.9 -27.2 77.1 -36.0 78.55 -34.05 81.0 -30.05 82.3 L-26.05 83.15 -21.85 82.65 -18.55 81.8 -19.95 80.7 -20.15 80.45 -21.3 78.85 -18.65 76.3 Q-13.9 76.1 -10.9 73.6 -7.65 70.85 -7.65 66.35 L-7.95 43.65 Q-7.2 46.6 -6.65 51.45 L-6.25 56.7 Q-6.25 59.35 -7.15 65.55 -8.15 72.05 -8.95 74.1 -10.0 75.85 -13.05 76.85 L-17.2 77.9 -19.85 78.0 -19.45 78.7 Q-12.85 83.5 -6.2 83.5 -3.45 83.5 0.15 82.5 3.3 81.6 4.45 80.8 4.3 82.4 2.5 85.25 L0.6 88.0 2.2 88.15 4.75 88.0 Q7.4 87.6 8.65 86.25 L9.1 85.95 Q13.1 83.2 17.95 80.4 18.5 80.4 22.2 82.55 25.95 84.65 27.75 84.65 31.55 84.65 35.1 82.55 39.25 80.05 39.4 76.15 L38.55 76.2 Q33.4 77.8 29.0 75.45 24.95 73.35 23.4 69.1 L23.05 64.3 24.0 64.05 25.0 68.25 Q25.45 70.3 26.4 71.35 28.95 74.0 40.9 75.0 L40.6 77.15 Q40.25 79.45 39.9 80.15 43.6 80.4 48.0 77.55 52.5 74.7 53.5 71.35 L53.9 69.9 Q51.9 72.05 47.15 72.3 L41.4 71.05 Q32.7 65.25 29.3 52.4 25.6 38.6 24.15 3.3 23.75 1.3 25.35 4.1 L28.15 8.8 Q29.8 10.85 33.4 13.75 L37.15 16.35 36.6 15.65 Q32.8 9.45 31.15 3.2 29.55 -3.15 29.45 -12.3 L30.35 -14.0 31.1 -10.65 31.95 -5.0 Q32.1 -2.15 33.05 -7.85 33.8 -11.15 34.85 -12.35 L39.25 -6.85 Q42.85 -7.35 43.3 -7.9 L43.95 -12.4 Q44.2 -13.15 45.65 -14.15 L47.75 -11.65 49.6 -8.85 50.65 -9.0 53.35 -9.75" fill="#97877d" fill-rule="evenodd" stroke="none"/>
    <path d="M-20.75 52.4 L-20.55 49.2 -22.5 0.4 Q-22.5 -10.05 -19.4 -17.55 L-16.75 -23.35 Q-15.2 -26.75 -14.45 -29.65 -24.8 -19.75 -25.1 -3.35 L-24.7 10.4 Q-24.45 18.65 -25.55 24.0 -28.3 8.4 -28.3 -1.55 -28.3 -14.35 -25.45 -20.25 -23.3 -24.7 -16.3 -30.15 -8.15 -36.5 -1.9 -39.2 4.2 -41.8 10.75 -41.8 20.25 -41.8 24.15 -36.05 28.35 -29.8 29.45 -12.3 29.55 -3.15 31.15 3.2 32.8 9.45 36.6 15.65 30.85 13.25 27.05 1.7 24.15 -7.0 22.75 -19.5 22.05 -14.65 21.75 3.5 21.75 19.6 23.85 33.95 25.6 45.9 29.15 58.3 31.25 65.8 41.4 71.05 L47.15 72.3 Q51.9 72.05 53.9 69.9 L53.5 71.35 49.15 73.45 Q46.85 74.3 44.15 74.3 38.05 74.3 32.8 68.25 25.35 59.65 21.5 40.5 L23.05 64.3 23.4 69.1 Q23.0 68.3 20.95 61.4 L18.85 53.85 Q18.7 52.1 16.9 4.5 16.9 -1.7 19.1 -15.25 21.15 -27.55 22.65 -32.75 18.8 -32.2 14.45 -20.05 9.35 -5.7 9.35 12.8 9.35 14.2 10.1 22.6 10.85 31.0 10.85 44.8 10.85 59.35 9.85 67.55 9.0 74.05 6.4 84.1 7.0 83.6 7.45 83.8 L8.0 83.9 Q8.4 83.5 10.7 75.15 13.8 63.9 13.0 50.5 17.95 69.65 18.5 70.95 19.3 72.9 22.1 75.45 23.7 77.7 27.05 78.7 L34.0 79.2 30.8 80.8 27.9 81.7 Q23.15 81.7 21.15 79.0 18.6 75.65 15.2 62.9 15.05 66.15 15.25 71.85 15.25 75.7 13.9 79.25 12.3 83.6 9.1 85.95 L8.65 86.25 Q7.4 87.6 4.75 88.0 L2.2 88.15 0.6 88.0 2.5 85.25 Q4.3 82.4 4.45 80.8 6.6 73.85 7.3 69.75 7.9 66.0 7.9 60.8 L7.5 55.8 6.5 48.5 5.0 62.2 Q4.25 69.15 3.3 72.55 0.7 81.45 -8.5 81.45 -10.4 81.45 -11.6 80.9 L-17.2 77.9 -13.05 76.85 Q-10.0 75.85 -8.95 74.1 -7.65 72.9 -6.3 66.35 -5.0 59.8 -5.0 54.55 -5.0 44.9 -6.7 24.25 -8.45 3.65 -8.45 -1.7 -8.45 -14.15 -2.0 -28.85 -5.75 -26.75 -8.75 -18.6 -12.1 -9.65 -12.1 0.7 L-11.6 7.9 Q-11.2 14.35 -11.45 14.5 L-10.0 52.4 Q-10.0 65.95 -13.95 72.2 -15.45 74.65 -18.65 76.3 L-21.3 78.85 -23.65 79.3 -26.75 79.75 -30.6 79.45 -36.0 78.55 Q-27.2 77.1 -23.85 70.9 -20.85 65.3 -20.75 52.4 M39.25 -6.85 Q34.0 -17.85 33.1 -23.95 32.5 -22.9 32.25 -22.1 L32.25 -20.05 32.55 -18.1 33.25 -12.75 32.25 -15.15 32.25 -10.8 Q31.1 -14.15 30.6 -16.45 29.95 -19.55 27.85 -33.2 L29.8 -35.4 Q30.95 -36.35 32.25 -36.85 33.6 -38.0 35.2 -38.0 42.2 -38.0 47.35 -28.1 51.05 -20.95 53.35 -9.75 L50.65 -9.0 46.5 -17.8 Q43.0 -25.1 43.05 -25.8 L42.1 -25.85 Q43.95 -21.9 43.3 -7.9 42.85 -7.35 39.25 -6.85 M32.25 -33.75 L31.5 -33.05 Q32.2 -32.45 31.95 -32.0 L31.05 -31.25 30.65 -30.0 30.4 -28.25 Q30.4 -27.9 31.6 -27.2 L32.25 -26.7 32.25 -28.8 Q33.7 -27.8 35.2 -25.05 L37.1 -21.2 Q38.65 -17.15 38.8 -12.1 L40.0 -12.0 Q40.55 -13.7 40.95 -16.5 L41.25 -19.75 Q41.25 -21.5 40.35 -24.65 38.95 -29.65 36.25 -32.15 40.9 -30.95 45.35 -24.65 47.6 -21.5 49.05 -18.35 L49.5 -18.5 49.65 -19.15 Q49.65 -23.6 45.25 -29.25 40.25 -35.7 34.55 -35.7 33.4 -35.7 32.25 -33.75 M16.1 -36.4 L15.85 -38.3 14.8 -38.4 Q8.3 -38.4 1.95 -24.25 -4.4 -10.0 -4.4 4.85 -4.45 33.95 -4.1 45.75 L-3.35 55.7 Q-2.75 60.55 -2.75 62.5 -2.75 65.5 -4.05 69.9 -5.9 76.25 -9.25 77.85 L-7.7 78.3 Q-2.65 78.3 1.45 69.7 4.8 62.6 4.8 57.8 4.8 53.0 3.2 35.2 1.6 17.4 1.6 10.3 1.6 -0.15 4.8 -11.4 7.2 -19.95 10.1 -25.15 L14.2 -31.95 Q16.1 -35.15 16.1 -36.4 M6.55 -36.75 L7.25 -37.3 7.2 -37.6 6.5 -38.55 Q-1.6 -36.9 -5.65 -33.95 -10.7 -30.3 -14.1 -22.0 -13.6 -21.85 -12.1 -23.4 L-9.05 -26.7 -4.3 -30.7 6.75 -35.9 6.55 -36.75 M-20.05 10.1 Q-19.9 10.1 -19.1 18.8 -18.5 27.45 -18.05 44.8 -18.05 57.15 -19.45 64.45 -20.85 71.75 -24.05 75.75 -21.15 76.65 -17.35 71.7 -13.05 66.05 -13.05 57.8 -13.05 51.35 -14.0 44.65 L-15.9 32.55 Q-18.35 15.45 -16.9 -10.15 -20.1 -2.7 -20.1 4.65 L-20.05 10.1" fill="#ebe8e0" fill-rule="evenodd" stroke="none"/>
    <path d="M6.55 -36.75 L6.75 -35.9 -4.3 -30.7 -9.05 -26.7 -12.1 -23.4 Q-13.6 -21.85 -14.1 -22.0 -10.7 -30.3 -5.65 -33.95 -1.6 -36.9 6.5 -38.55 L7.2 -37.6 7.25 -37.3 6.55 -36.75 M16.1 -36.4 Q16.1 -35.15 14.2 -31.95 L10.1 -25.15 Q7.2 -19.95 4.8 -11.4 1.6 -0.15 1.6 10.3 1.6 17.4 3.2 35.2 4.8 53.0 4.8 57.8 4.8 62.6 1.45 69.7 -2.65 78.3 -7.7 78.3 L-9.25 77.85 Q-5.9 76.25 -4.05 69.9 -2.75 65.5 -2.75 62.5 -2.75 60.55 -3.35 55.7 L-4.1 45.75 Q-4.45 33.95 -4.4 4.85 -4.4 -10.0 1.95 -24.25 8.3 -38.4 14.8 -38.4 L15.85 -38.3 16.1 -36.4 M32.25 -33.75 Q33.4 -35.7 34.55 -35.7 40.25 -35.7 45.25 -29.25 49.65 -23.6 49.65 -19.15 L49.5 -18.5 49.05 -18.35 Q47.6 -21.5 45.35 -24.65 40.9 -30.95 36.25 -32.15 38.95 -29.65 40.35 -24.65 41.25 -21.5 41.25 -19.75 L40.95 -16.5 Q40.55 -13.7 40.0 -12.0 L38.8 -12.1 Q38.65 -17.15 37.1 -21.2 L35.2 -25.05 Q33.7 -27.8 32.25 -28.8 L32.25 -26.7 31.6 -27.2 Q30.4 -27.9 30.4 -28.25 L30.65 -30.0 31.05 -31.25 31.95 -32.0 Q32.2 -32.45 31.5 -33.05 L32.25 -33.75 M34.0 79.2 L27.05 78.7 Q23.7 77.7 22.1 75.45 19.3 72.9 18.5 70.95 17.95 69.65 13.0 50.5 13.8 63.9 10.7 75.15 8.4 83.5 8.0 83.9 L7.45 83.8 Q7.0 83.6 6.4 84.1 9.0 74.05 9.85 67.55 10.85 59.35 10.85 44.8 10.85 31.0 10.1 22.6 9.35 14.2 9.35 12.8 9.35 -5.7 14.45 -20.05 18.8 -32.2 22.65 -32.75 21.15 -27.55 19.1 -15.25 16.9 -1.7 16.9 4.5 18.7 52.1 18.85 53.85 L20.95 61.4 Q23.0 68.3 23.4 69.1 24.95 73.35 29.0 75.45 33.4 77.8 38.55 76.2 L34.0 79.2 M-20.05 10.1 L-20.1 4.65 Q-20.1 -2.7 -16.9 -10.15 -18.35 15.45 -15.9 32.55 L-14.0 44.65 Q-13.05 51.35 -13.05 57.8 -13.05 66.05 -17.35 71.7 -21.15 76.65 -24.05 75.75 -20.85 71.75 -19.45 64.45 -18.05 57.15 -18.05 44.8 -18.5 27.45 -19.1 18.8 -19.9 10.1 -20.05 10.1" fill="#ffffff" fill-rule="evenodd" stroke="none"/>
  </g>
</svg>
