<?xml version="1.0" encoding="UTF-8" standalone="no"?>
<svg xmlns:ffdec="https://www.free-decompiler.com/flash" xmlns:xlink="http://www.w3.org/1999/xlink" ffdec:objectType="shape" height="56.05px" width="87.5px" xmlns="http://www.w3.org/2000/svg">
  <g transform="matrix(1.0, 0.0, 0.0, 1.0, 39.85, 17.35)">
    <path d="M23.15 23.8 L19.65 22.55 19.25 20.9 18.45 17.75 17.95 15.9 19.2 15.75 Q20.95 15.75 22.3 16.85 L23.6 23.15 23.15 23.8 M3.8 15.4 L3.75 10.2 4.3 15.5 3.8 15.4 M15.05 23.5 Q14.2 22.3 14.2 20.75 14.2 18.7 15.65 17.2 L15.75 17.15 16.1 18.95 16.55 20.95 15.05 23.5 M-11.85 -0.25 L-11.45 -0.3 Q-7.3 -0.3 -6.85 0.9 L-6.75 1.05 -5.6 2.4 -7.3 2.65 Q-9.35 2.65 -10.85 1.15 L-11.85 -0.25 M-5.7 16.8 L-5.5 17.0 Q-4.0 18.5 -4.0 20.55 -4.0 21.5 -4.3 22.35 L-5.35 18.15 -5.4 17.9 -5.45 17.75 -5.5 17.65 -5.55 17.45 -5.7 16.8" fill="#f8f8f8" fill-rule="evenodd" stroke="none"/>
    <path d="M20.05 3.75 Q18.4 3.55 17.15 2.3 15.7 0.85 15.7 -1.2 15.7 -3.25 17.15 -4.75 17.95 -5.55 19.0 -5.9 20.4 -5.45 20.9 -3.85 L21.35 1.5 21.4 1.95 21.35 1.95 21.4 2.1 21.75 3.7 20.7 3.8 20.05 3.75 M15.95 24.5 L15.65 24.25 15.05 23.5 16.55 20.95 16.1 18.95 15.75 17.15 Q16.75 16.2 17.95 15.9 L18.45 17.75 19.25 20.9 19.65 22.55 23.15 23.8 22.7 24.25 21.6 25.15 18.7 24.75 16.95 23.2 15.95 24.5 M17.65 -2.45 L17.7 -1.5 20.95 -1.5 20.9 -2.45 17.65 -2.45 M32.0 7.05 L32.05 7.25 32.55 8.75 34.6 14.05 35.55 16.25 Q34.5 16.9 33.25 16.95 L31.7 12.6 31.4 11.75 30.15 7.85 Q31.0 7.25 32.0 7.05 M22.3 16.85 L22.7 17.2 Q24.2 18.7 24.2 20.75 24.2 22.05 23.6 23.15 L22.3 16.85 M2.9 6.05 Q3.85 5.55 5.0 5.55 L5.15 7.35 5.45 15.0 5.5 15.55 5.05 15.55 4.3 15.5 3.75 10.2 3.8 15.4 Q2.5 15.05 1.5 14.05 0.05 12.6 0.05 10.55 0.05 9.25 0.65 8.15 L2.0 13.85 2.9 6.05 M-2.35 -1.5 Q-2.6 0.0 -3.8 1.15 L-5.6 2.4 -6.75 1.05 -6.85 0.9 Q-7.3 -0.3 -11.45 -0.3 L-11.85 -0.25 -12.3 -2.15 -11.9 -2.15 -11.85 -3.5 -12.15 -3.5 Q-11.9 -4.85 -10.85 -5.9 L-9.0 -7.05 -8.95 -7.05 Q-4.85 -6.15 -2.8 -4.55 -2.3 -3.55 -2.3 -2.35 L-2.3 -2.05 -2.4 -2.05 -3.05 -1.6 -2.45 -1.5 -2.35 -1.5 M-4.3 22.4 Q-4.7 23.3 -5.5 24.05 L-5.95 24.5 -6.35 23.3 -6.35 22.05 -6.7 17.55 -6.85 16.0 -5.7 16.8 -5.55 17.45 -5.5 17.65 -5.45 17.75 -5.4 17.9 -5.35 18.15 -4.3 22.35 -4.3 22.4 M-22.0 6.25 L-20.85 6.1 -18.95 6.45 -22.75 15.75 -24.4 14.6 Q-25.25 13.75 -25.6 12.7 L-25.6 12.65 -23.1 8.05 -22.0 6.25 M-13.65 22.4 L-14.0 20.55 Q-14.0 18.5 -12.55 17.0 L-11.7 16.35 -12.1 18.3 -12.15 18.5 Q-12.85 20.8 -13.65 22.4 M-7.35 -2.7 L-8.6 -2.5 Q-9.15 -2.3 -9.15 -2.1 L-8.6 -1.65 -7.4 -1.45 -6.1 -1.65 Q-5.55 -1.85 -5.55 -2.1 -5.55 -2.3 -6.1 -2.5 L-7.35 -2.7" fill="#d3d3d3" fill-rule="evenodd" stroke="none"/>
    <path d="M21.75 3.7 L21.4 2.1 21.35 1.95 21.4 1.95 21.35 1.5 20.9 -3.85 Q20.4 -5.45 19.0 -5.9 L20.7 -6.2 Q22.0 -6.2 23.05 -5.6 L23.5 1.3 23.5 2.0 23.6 2.85 Q22.75 3.5 21.75 3.7 M24.05 -1.9 Q24.0 -2.1 25.6 -2.35 L25.7 -1.2 Q25.7 0.65 24.5 2.05 L24.3 1.5 24.05 -1.9 M28.0 12.0 L28.0 11.95 Q28.0 9.9 29.45 8.4 29.75 8.1 30.15 7.85 L31.4 11.75 31.7 12.6 33.25 16.95 33.0 16.95 Q30.95 16.95 29.45 15.45 L29.3 15.3 29.2 15.05 28.15 12.4 28.0 12.0 M32.0 7.05 L33.0 6.95 33.35 6.95 33.4 6.95 33.85 8.25 34.85 10.95 34.95 11.15 35.35 12.0 36.5 14.5 36.85 15.15 36.5 15.45 35.55 16.25 34.6 14.05 32.55 8.75 32.05 7.25 32.0 7.05 M44.95 16.6 Q44.0 16.25 43.2 15.45 41.75 14.0 41.75 11.95 L41.8 11.25 45.0 16.25 44.95 16.6 M9.5 12.85 L9.45 12.9 8.45 6.9 8.55 7.0 Q10.05 8.5 10.05 10.55 10.05 11.8 9.5 12.85 M21.6 25.15 Q20.5 25.75 19.2 25.75 17.35 25.75 15.95 24.5 L16.95 23.2 18.7 24.75 21.6 25.15 M5.0 5.55 L5.05 5.55 6.05 5.65 6.75 9.75 7.5 14.9 5.5 15.55 5.45 15.0 5.15 7.35 5.0 5.55 M0.65 8.15 Q1.0 7.55 1.5 7.0 2.15 6.4 2.9 6.05 L2.0 13.85 0.65 8.15 M-21.45 -10.55 L-21.25 -10.35 Q-19.75 -8.85 -19.75 -6.8 -19.75 -5.95 -20.0 -5.2 L-20.1 -5.25 -20.35 -4.4 -21.25 -3.3 Q-22.65 -1.85 -24.6 -1.8 L-24.35 -4.05 -24.3 -4.1 -24.3 -4.15 Q-23.95 -5.05 -22.65 -5.5 L-23.4 -5.75 Q-23.9 -5.95 -23.9 -6.6 L-23.4 -10.5 -23.35 -10.85 -21.45 -10.55 M-6.9 16.0 L-6.85 16.0 -6.7 17.55 -6.35 22.05 -6.35 23.3 -5.95 24.5 -7.45 25.3 -7.8 24.1 -8.05 21.8 -8.05 21.25 -8.4 15.6 Q-7.6 15.65 -6.9 16.0 M-9.0 -7.05 L-7.3 -7.35 Q-5.25 -7.35 -3.8 -5.9 L-2.8 -4.55 Q-4.85 -6.15 -8.95 -7.05 L-9.0 -7.05 M-16.15 9.3 Q-15.85 10.15 -15.85 11.1 -15.85 13.1 -17.3 14.55 L-16.85 12.55 -16.65 11.75 -16.15 9.3 M-17.55 7.35 L-18.0 8.4 -20.45 14.3 -21.2 16.1 -22.75 15.75 -18.95 6.45 Q-18.2 6.75 -17.55 7.35 M-25.6 12.65 L-25.85 11.1 Q-25.85 9.05 -24.4 7.55 -23.35 6.5 -22.0 6.25 L-23.1 8.05 -25.6 12.65 M-13.65 22.4 Q-12.85 20.8 -12.15 18.5 L-12.1 18.3 -11.7 16.35 Q-10.95 15.85 -10.05 15.65 L-10.5 18.0 -10.75 19.25 -10.8 19.45 -10.9 20.0 -10.95 20.2 Q-11.6 23.05 -12.2 24.4 L-12.55 24.05 Q-13.3 23.3 -13.65 22.4 M-32.1 8.55 L-32.0 8.65 Q-31.05 9.6 -30.7 10.75 L-33.75 16.9 -35.5 17.2 -35.6 17.2 -37.05 16.25 -32.1 8.55" fill="#b4b4b4" fill-rule="evenodd" stroke="none"/>
    <path d="M23.05 -5.6 L24.2 -4.75 Q25.25 -3.7 25.6 -2.35 24.0 -2.1 24.05 -1.9 L23.5 1.3 23.05 -5.6 M17.65 -2.45 L20.9 -2.45 20.95 -1.5 17.7 -1.5 17.65 -2.45 M36.15 -0.85 Q34.65 -1.1 33.45 -2.3 32.0 -3.75 32.0 -5.8 32.0 -7.85 33.45 -9.35 L34.6 -10.2 34.8 -9.4 35.6 -5.4 35.95 -2.55 35.9 -2.55 36.05 -1.35 36.15 -0.85 M44.95 16.6 L45.0 16.25 41.8 11.25 42.1 10.05 46.65 16.65 46.7 16.95 44.95 16.6 M33.4 6.95 L34.15 7.1 35.75 10.5 36.9 12.9 37.3 13.65 37.5 14.1 36.85 15.15 36.5 14.5 35.35 12.0 34.95 11.15 34.85 10.95 33.85 8.25 33.4 6.95 M37.95 12.75 L37.7 12.2 37.25 11.25 36.1 8.85 35.95 8.55 35.55 7.65 36.5 8.4 Q38.0 9.9 38.0 11.95 L37.95 12.75 M23.7 2.8 L23.6 2.85 23.5 2.0 23.7 2.8 M9.45 12.9 L8.55 14.05 8.45 14.2 7.5 8.0 7.35 7.05 7.2 6.05 8.45 6.9 9.45 12.9 M8.25 14.35 L7.5 14.9 6.75 9.75 Q7.3 12.0 8.1 14.05 L8.25 14.35 M-7.45 25.3 L-9.0 25.55 Q-10.8 25.55 -12.2 24.4 -11.6 23.05 -10.95 20.2 L-10.9 20.0 -10.8 19.45 -10.75 19.25 -10.5 18.0 -10.05 15.65 -9.0 15.55 -8.4 15.6 -8.05 21.25 -8.05 21.8 -7.8 24.1 -7.45 25.3 M-17.3 14.55 L-17.35 14.6 -18.65 15.6 -17.15 10.65 -16.6 8.5 -16.15 9.25 -16.15 9.3 -16.65 11.75 -16.85 12.55 -17.3 14.55 M-16.95 8.0 L-17.5 9.85 -18.95 14.8 -19.25 15.85 -20.85 16.1 -21.2 16.1 -20.45 14.3 -18.0 8.4 -17.55 7.35 -17.35 7.55 -16.95 8.0 M-24.6 -1.8 L-24.75 -1.8 Q-26.15 -1.8 -27.25 -2.5 L-27.25 -2.55 -27.25 -2.85 -26.95 -7.75 -26.9 -8.25 -26.45 -11.5 -24.75 -11.8 Q-22.85 -11.8 -21.45 -10.55 L-23.35 -10.85 -23.4 -10.5 -23.9 -6.6 Q-23.9 -5.95 -23.4 -5.75 L-22.65 -5.5 Q-23.95 -5.05 -24.3 -4.15 L-24.3 -4.1 -24.35 -4.05 -24.6 -1.8 M-32.8 8.0 L-32.1 8.55 -37.05 16.25 -35.6 17.2 Q-37.15 17.15 -38.4 16.3 L-35.1 11.5 -32.8 8.0 M-30.7 10.75 L-30.5 12.2 Q-30.5 14.25 -32.0 15.7 -32.8 16.55 -33.75 16.9 L-30.7 10.75 M29.3 15.3 Q28.0 13.9 28.0 12.0 L28.15 12.4 29.2 15.05 29.3 15.3 M-20.35 -4.45 L-20.35 -4.4 -20.1 -5.25 -20.0 -5.2 -20.35 -4.45 M-12.15 -3.5 L-11.85 -3.5 -11.9 -2.15 -12.3 -2.15 -12.3 -2.35 -12.15 -3.5 M-7.35 -2.7 L-6.1 -2.5 Q-5.55 -2.3 -5.55 -2.1 -5.55 -1.85 -6.1 -1.65 L-7.4 -1.45 -8.6 -1.65 -9.15 -2.1 Q-9.15 -2.3 -8.6 -2.5 L-7.35 -2.7 M-2.3 -2.05 L-2.35 -1.5 -2.45 -1.5 -3.05 -1.6 -2.4 -2.05 -2.3 -2.05" fill="#868686" fill-rule="evenodd" stroke="none"/>
    <path d="M6.05 5.65 L7.2 6.05 7.35 7.05 7.5 8.0 8.45 14.2 8.25 14.35 8.1 14.05 Q7.3 12.0 6.75 9.75 L6.05 5.65 M34.15 7.1 Q34.9 7.25 35.55 7.65 L35.95 8.55 36.1 8.85 37.25 11.25 37.7 12.2 37.95 12.75 37.5 14.1 37.3 13.65 36.9 12.9 35.75 10.5 34.15 7.1 M34.6 -10.2 L35.8 -10.65 37.0 -3.75 37.05 -3.4 Q37.2 -2.4 37.85 -0.85 L37.0 -0.8 36.15 -0.85 36.05 -1.35 35.9 -2.55 35.95 -2.55 35.6 -5.4 34.8 -9.4 34.6 -10.2 M-27.75 -10.8 L-26.45 -11.5 -26.9 -8.25 -26.95 -7.75 -27.25 -2.85 -27.25 -2.55 -27.25 -2.5 -28.3 -3.3 -28.45 -3.45 -27.95 -9.35 -27.8 -10.6 -27.8 -10.65 -27.75 -10.8 M23.5 1.3 L24.05 -1.9 24.3 1.5 24.5 2.05 24.2 2.3 23.7 2.8 23.5 2.0 23.5 1.3 M42.85 8.8 L43.15 9.3 46.2 14.2 47.3 15.9 47.55 16.25 47.6 16.25 47.65 16.9 46.75 16.95 46.7 16.95 46.65 16.65 42.1 10.05 42.85 8.8 M-38.8 15.45 L-35.55 10.6 -34.55 9.0 -33.6 7.55 -32.8 8.0 -35.1 11.5 -38.4 16.3 -39.0 15.75 -38.8 15.45 M-18.65 15.6 L-19.25 15.85 -18.95 14.8 -17.5 9.85 -16.95 8.0 -16.6 8.5 -17.15 10.65 -18.65 15.6" fill="#555555" fill-rule="evenodd" stroke="none"/>
    <path d="M2.05 -8.15 L2.05 -9.9 5.35 -9.85 5.35 -7.55 2.05 -8.15 M26.45 -9.95 L26.3 -11.65 29.2 -12.5 29.3 -11.1 26.45 -9.95 M15.05 23.5 L14.65 24.15 14.45 22.8 13.9 19.2 Q13.05 13.55 12.55 7.85 L12.7 6.2 12.9 5.35 Q13.15 4.65 13.5 4.8 L13.6 5.2 14.8 12.1 15.75 17.15 15.65 17.2 Q14.2 18.7 14.2 20.75 14.2 22.3 15.05 23.5 M17.95 15.9 Q15.55 6.45 15.5 5.6 L20.05 3.75 Q20.35 4.55 20.35 7.3 L22.3 16.85 Q20.95 15.75 19.2 15.75 L17.95 15.9 M23.6 23.15 L23.75 24.0 23.15 23.8 23.6 23.15 M-5.6 2.4 L-4.7 3.15 -4.75 3.15 4.65 25.65 1.9 25.65 -3.9 24.3 -4.2 22.85 -4.3 22.4 -4.3 22.35 Q-4.0 21.5 -4.0 20.55 -4.0 18.5 -5.5 17.0 L-5.7 16.8 -6.25 14.75 -6.45 14.0 -9.1 3.9 -15.65 24.1 -17.75 24.1 -16.4 20.5 -15.1 16.5 -14.75 15.2 Q-13.75 11.1 -12.4 2.6 L-12.35 2.65 -12.55 -0.1 -12.3 -0.2 -11.85 -0.25 -10.85 1.15 Q-9.35 2.65 -7.3 2.65 L-5.6 2.4 M4.3 15.5 L5.3 24.95 4.9 23.85 Q4.1 21.45 3.9 19.2 L3.9 18.8 3.8 15.4 4.3 15.5" fill="#f5e77a" fill-rule="evenodd" stroke="none"/>
    <path d="M5.35 -7.55 L5.45 1.8 2.15 1.5 Q2.3 -1.75 2.05 -2.85 L2.05 -8.15 5.35 -7.55 M5.65 3.25 L5.7 3.35 5.65 3.25 M27.35 -0.4 L26.45 -9.95 29.3 -11.1 30.15 -1.25 27.35 -0.4 M12.0 -1.1 L13.25 -0.95 14.5 -1.1 15.05 -1.5 14.5 -1.9 13.25 -2.1 12.0 -1.9 11.55 -1.5 12.0 -1.1 M19.0 -5.9 Q17.95 -5.55 17.15 -4.75 15.7 -3.25 15.7 -1.2 15.7 0.85 17.15 2.3 18.4 3.55 20.05 3.75 L15.5 5.6 Q15.55 6.45 17.95 15.9 16.75 16.2 15.75 17.15 L14.8 12.1 13.6 5.2 13.5 4.8 Q13.15 4.65 12.9 5.35 L12.7 6.2 12.55 7.85 Q13.05 13.55 13.9 19.2 L14.45 22.8 14.65 24.15 15.05 23.5 15.65 24.25 15.95 24.5 14.85 25.35 13.95 25.65 13.5 23.0 12.9 19.25 10.85 6.05 10.3 2.6 10.2 1.95 10.25 1.95 Q9.55 -0.6 9.5 -3.6 9.5 -4.85 12.1 -5.55 L17.6 -6.1 19.0 -5.9 M20.05 3.75 L20.7 3.8 21.75 3.7 23.15 10.0 23.55 11.7 24.5 15.9 25.5 20.25 26.0 22.5 26.75 25.8 21.6 25.15 22.7 24.25 23.15 23.8 23.75 24.0 23.6 23.15 Q24.2 22.05 24.2 20.75 24.2 18.7 22.7 17.2 L22.3 16.85 20.35 7.3 Q20.35 4.55 20.05 3.75 M30.15 7.85 Q28.45 2.6 27.85 -0.1 L29.85 -0.75 30.45 1.25 30.75 2.4 32.0 7.05 Q31.0 7.25 30.15 7.85 M35.55 16.25 L35.75 16.8 37.75 21.4 35.8 21.8 Q35.3 21.8 34.45 19.9 33.9 18.8 33.3 17.1 L33.25 16.95 Q34.5 16.9 35.55 16.25 M2.9 6.05 L3.25 2.9 Q3.55 2.4 4.55 2.3 L4.7 3.25 5.0 5.55 Q3.85 5.55 2.9 6.05 M0.65 8.15 Q0.05 9.25 0.05 10.55 0.05 12.6 1.5 14.05 2.5 15.05 3.8 15.4 L3.9 18.8 3.9 19.2 Q4.1 21.45 4.9 23.85 L5.3 24.95 4.3 15.5 5.05 15.55 5.5 15.55 5.6 19.0 6.0 23.8 Q6.2 26.05 6.55 27.75 L4.25 27.8 Q-1.55 27.8 -3.75 26.8 -5.3 26.15 -5.95 24.5 L-5.5 24.05 Q-4.7 23.3 -4.3 22.4 L-4.2 22.85 -3.9 24.3 1.9 25.65 4.65 25.65 -4.75 3.15 -4.7 3.15 -5.6 2.4 -3.8 1.15 Q-2.6 0.0 -2.35 -1.5 L-1.0 -1.15 Q-1.05 1.25 -0.5 3.25 L0.65 8.15 M-9.0 -7.05 L-10.85 -5.9 Q-11.9 -4.85 -12.15 -3.5 L-15.1 -3.5 -15.2 -2.15 -12.3 -2.15 -11.85 -0.25 -12.3 -0.2 -12.55 -0.1 -12.35 2.65 -12.4 2.6 Q-13.75 11.1 -14.75 15.2 L-15.1 16.5 -16.4 20.5 -17.75 24.1 -15.65 24.1 -9.1 3.9 -6.45 14.0 -6.25 14.75 -5.7 16.8 -6.85 16.0 -6.9 16.0 -7.2 13.9 Q-7.95 9.45 -9.3 5.0 L-9.45 5.9 -10.3 9.7 -11.7 16.35 -12.55 17.0 Q-14.0 18.5 -14.0 20.55 L-13.65 22.4 -14.05 23.1 Q-16.3 26.85 -19.4 25.7 -18.4 23.75 -17.4 20.3 L-17.15 19.55 -15.8 13.5 Q-14.85 8.55 -14.1 2.15 L-15.3 1.9 -16.95 1.55 -18.95 6.45 -20.85 6.1 -22.0 6.25 -21.55 5.55 Q-19.25 2.15 -18.9 1.05 L-18.85 1.1 -17.4 -4.05 Q-16.1 -7.95 -15.7 -7.95 L-9.0 -7.05 M-2.8 -4.55 Q-1.4 -3.45 -1.0 -2.1 L-2.3 -2.05 -2.3 -2.35 Q-2.3 -3.55 -2.8 -4.55 M-22.75 15.75 L-25.45 22.25 -29.85 21.55 -26.55 14.6 -25.6 12.7 Q-25.25 13.75 -24.4 14.6 L-22.75 15.75" fill="#f0da39" fill-rule="evenodd" stroke="none"/>
    <path d="M5.45 1.8 L5.45 1.85 5.65 3.25 5.7 3.35 6.05 5.65 5.05 5.55 5.0 5.55 4.7 3.25 4.55 2.3 Q3.55 2.4 3.25 2.9 L2.9 6.05 Q2.15 6.4 1.5 7.0 1.0 7.55 0.65 8.15 L-0.5 3.25 Q-1.05 1.25 -1.0 -1.15 L0.05 -1.1 0.3 2.8 2.05 2.8 2.15 1.5 5.45 1.8 M25.9 -2.4 L26.15 0.15 27.2 0.1 27.35 -0.4 30.15 -1.25 30.3 -0.95 30.3 -0.9 30.35 -0.9 30.65 -1.05 30.5 -0.8 30.65 -0.95 30.75 -0.7 30.8 -0.65 31.4 1.1 32.9 5.65 33.35 6.95 33.0 6.95 32.0 7.05 30.75 2.4 30.45 1.25 29.85 -0.75 27.85 -0.1 Q28.45 2.6 30.15 7.85 29.75 8.1 29.45 8.4 28.0 9.9 28.0 11.95 L28.0 12.0 27.2 9.75 26.2 7.05 24.55 2.15 24.5 2.05 Q25.7 0.65 25.7 -1.2 L25.6 -2.35 25.9 -2.4 M8.45 6.9 L7.65 2.2 7.6 2.1 7.65 2.15 8.05 0.45 Q8.45 -1.0 8.85 -1.35 8.4 -1.5 8.25 -1.6 7.9 -1.85 7.9 -2.75 7.85 -5.15 8.25 -6.0 8.7 -6.95 10.2 -7.3 L18.55 -8.6 22.75 -9.15 22.8 -8.6 23.05 -5.6 Q22.0 -6.2 20.7 -6.2 L19.0 -5.9 17.6 -6.1 12.1 -5.55 Q9.5 -4.85 9.5 -3.6 9.55 -0.6 10.25 1.95 L10.2 1.95 10.3 2.6 10.85 6.05 12.9 19.25 13.5 23.0 13.95 25.65 14.85 25.35 15.95 24.5 Q17.35 25.75 19.2 25.75 20.5 25.75 21.6 25.15 L26.75 25.8 26.0 22.5 25.5 20.25 24.5 15.9 23.55 11.7 23.15 10.0 21.75 3.7 Q22.75 3.5 23.6 2.85 L24.6 9.55 Q25.35 13.85 26.4 18.0 L27.2 20.95 28.35 24.85 29.05 26.95 Q27.95 27.6 26.55 27.6 L26.0 27.55 23.15 27.05 22.7 26.95 22.1 26.85 19.75 26.5 19.25 26.45 Q16.2 26.45 12.0 27.55 L9.5 12.85 Q10.05 11.8 10.05 10.55 10.05 8.5 8.55 7.0 L8.45 6.9 M32.3 -3.25 L32.25 -3.1 32.3 -3.85 32.4 -3.35 32.3 -3.25 M41.8 11.25 L41.75 11.95 Q41.75 14.0 43.2 15.45 44.0 16.25 44.95 16.6 L44.6 17.5 44.05 18.1 43.45 18.2 43.1 18.2 Q42.6 18.1 37.7 7.05 L36.45 4.2 34.5 -0.25 41.8 11.25 M35.55 16.25 L36.5 15.45 36.85 15.15 40.4 22.2 Q39.6 23.0 37.45 23.4 L35.0 23.65 Q34.15 23.65 33.05 22.35 L31.6 20.15 29.95 16.75 29.3 15.3 29.45 15.45 Q30.95 16.95 33.0 16.95 L33.25 16.95 33.3 17.1 Q33.9 18.8 34.45 19.9 35.3 21.8 35.8 21.8 L37.75 21.4 35.75 16.8 35.55 16.25 M7.5 14.9 L8.15 19.2 8.8 23.65 9.6 28.75 6.75 28.95 -2.95 28.25 Q-4.5 27.85 -6.0 26.95 -6.95 26.65 -7.45 25.3 L-5.95 24.5 Q-5.3 26.15 -3.75 26.8 -1.55 27.8 4.25 27.8 L6.55 27.75 Q6.2 26.05 6.0 23.8 L5.6 19.0 5.5 15.55 7.5 14.9 M-12.2 24.4 L-12.3 24.65 -12.4 24.75 Q-13.7 27.2 -18.0 27.2 L-18.75 27.15 -21.35 26.75 -21.4 26.75 -21.35 26.75 -20.5 24.8 Q-19.25 21.85 -18.2 18.1 L-17.3 14.55 Q-15.85 13.1 -15.85 11.1 -15.85 10.15 -16.15 9.3 L-16.15 9.25 Q-15.3 4.55 -15.3 1.9 L-17.55 7.35 Q-18.2 6.75 -18.95 6.45 L-16.95 1.55 -15.3 1.9 -14.1 2.15 Q-14.85 8.55 -15.8 13.5 L-17.15 19.55 -17.4 20.3 Q-18.4 23.75 -19.4 25.7 -16.3 26.85 -14.05 23.1 L-13.65 22.4 Q-13.3 23.3 -12.55 24.05 L-12.2 24.4 M-21.2 16.1 L-22.95 20.35 -23.85 22.4 -24.35 23.5 -27.05 23.15 -31.6 21.9 -27.15 12.6 -26.1 10.3 -25.25 8.25 -24.1 4.4 -23.05 0.05 -24.65 -0.65 -24.6 -1.8 Q-22.65 -1.85 -21.25 -3.3 L-20.35 -4.4 -20.35 -4.45 -20.45 -4.15 -18.3 -3.3 Q-18.0 -3.4 -17.75 -3.6 -17.75 -4.0 -20.0 -5.2 -19.75 -5.95 -19.75 -6.8 -19.75 -8.85 -21.25 -10.35 L-21.45 -10.55 -13.4 -9.35 -0.5 -8.7 -0.5 -5.35 -0.35 -2.05 -1.0 -2.1 Q-1.4 -3.45 -2.8 -4.55 L-3.8 -5.9 Q-5.25 -7.35 -7.3 -7.35 L-9.0 -7.05 -15.7 -7.95 Q-16.1 -7.95 -17.4 -4.05 L-18.85 1.1 -18.9 1.05 Q-19.25 2.15 -21.55 5.55 L-22.0 6.25 Q-23.35 6.5 -24.4 7.55 -25.85 9.05 -25.85 11.1 L-25.6 12.65 -25.6 12.7 -26.55 14.6 -29.85 21.55 -25.45 22.25 -22.75 15.75 -21.2 16.1 M-32.1 8.55 L-27.3 1.0 -27.1 3.4 -30.7 10.75 Q-31.05 9.6 -32.0 8.65 L-32.1 8.55 M-33.75 16.9 L-34.35 18.05 -35.6 17.2 -35.5 17.2 -33.75 16.9 M-11.7 16.35 L-10.3 9.7 -9.45 5.9 -9.3 5.0 Q-7.95 9.45 -7.2 13.9 L-6.9 16.0 Q-7.6 15.65 -8.4 15.6 L-8.7 12.25 -9.1 8.35 -9.2 10.3 -9.35 11.35 -10.05 15.65 Q-10.95 15.85 -11.7 16.35" fill="#c8a20b" fill-rule="evenodd" stroke="none"/>
    <path d="M7.2 6.05 L6.85 3.25 6.7 2.3 6.6 1.5 6.6 -8.6 6.6 -9.8 25.0 -11.4 25.9 -3.15 25.9 -2.4 25.6 -2.35 Q25.25 -3.7 24.2 -4.75 L23.05 -5.6 22.8 -8.6 22.75 -9.15 18.55 -8.6 10.2 -7.3 Q8.7 -6.95 8.25 -6.0 7.85 -5.15 7.9 -2.75 7.9 -1.85 8.25 -1.6 8.4 -1.5 8.85 -1.35 8.45 -1.0 8.05 0.45 L7.65 2.15 7.6 2.1 7.65 2.2 8.45 6.9 7.2 6.05 M30.3 -0.95 L30.35 -0.9 30.3 -0.9 30.3 -0.95 M30.8 -0.65 L31.45 0.9 32.95 4.4 34.15 7.1 33.4 6.95 33.35 6.95 32.9 5.65 31.4 1.1 30.8 -0.65 M35.55 7.65 L32.95 1.85 31.85 -0.9 31.6 -1.55 31.6 -1.6 31.8 -2.2 31.75 -2.7 Q31.25 -3.95 31.2 -4.65 L31.15 -4.65 30.45 -12.85 33.05 -13.5 Q34.1 -11.85 34.6 -10.2 L33.45 -9.35 Q32.0 -7.85 32.0 -5.8 32.0 -3.75 33.45 -2.3 34.65 -1.1 36.15 -0.85 36.6 0.7 37.75 2.95 L39.8 6.55 42.1 10.05 41.8 11.25 34.5 -0.25 36.45 4.2 37.7 7.05 Q42.6 18.1 43.1 18.2 L43.45 18.2 44.05 18.1 44.6 17.5 44.95 16.6 46.7 16.95 Q46.6 17.65 45.75 18.45 44.55 19.6 42.1 20.5 L37.95 12.75 38.0 11.95 Q38.0 9.9 36.5 8.4 L35.55 7.65 M-26.45 -11.5 Q-26.1 -13.15 -25.55 -14.1 L-23.15 -12.95 -20.2 -11.85 0.8 -10.4 Q0.65 -10.4 0.8 -4.15 0.95 2.1 1.35 2.25 L2.05 -2.85 Q2.3 -1.75 2.15 1.5 L2.05 2.8 0.3 2.8 0.05 -1.1 -1.0 -1.15 -2.35 -1.5 -2.3 -2.05 -1.0 -2.1 -0.35 -2.05 -0.5 -5.35 -0.5 -8.7 -13.4 -9.35 -21.45 -10.55 Q-22.85 -11.8 -24.75 -11.8 L-26.45 -11.5 M12.0 -1.1 L11.55 -1.5 12.0 -1.9 13.25 -2.1 14.5 -1.9 15.05 -1.5 14.5 -1.1 13.25 -0.95 12.0 -1.1 M24.5 2.05 L24.55 2.15 26.2 7.05 27.2 9.75 28.0 12.0 Q28.0 13.9 29.3 15.3 L29.95 16.75 31.6 20.15 33.05 22.35 Q34.15 23.65 35.0 23.65 L37.45 23.4 Q39.6 23.0 40.4 22.2 L36.85 15.15 37.5 14.1 38.6 16.2 41.2 20.75 Q41.8 21.7 41.8 22.25 41.8 23.15 40.3 23.55 L31.55 25.6 31.3 24.8 30.45 22.0 29.25 17.9 27.6 12.45 27.25 11.3 26.25 8.0 24.55 2.2 24.5 2.05 M32.3 -3.25 L32.4 -3.35 32.3 -3.85 32.25 -3.1 32.3 -3.25 M23.7 2.8 L24.55 6.1 26.55 12.85 26.9 13.95 27.5 15.8 27.7 16.4 28.55 19.0 29.8 23.0 30.6 25.7 30.95 26.95 28.35 28.2 25.15 28.75 24.8 28.75 22.2 28.45 21.55 28.35 21.1 28.3 17.85 27.9 17.05 27.8 Q16.05 27.8 12.3 28.95 8.55 30.1 2.1 30.1 L-5.05 28.85 -12.15 27.45 -16.6 27.9 -18.1 27.95 -20.55 27.8 -22.55 27.25 -22.0 25.7 -21.3 23.55 -19.05 16.8 -18.75 15.85 -18.65 15.6 -17.35 14.6 -17.3 14.55 -18.2 18.1 Q-19.25 21.85 -20.5 24.8 L-21.35 26.75 -21.4 26.75 -21.35 26.75 -18.75 27.15 -18.0 27.2 Q-13.7 27.2 -12.4 24.75 L-12.3 24.65 -12.2 24.4 Q-10.8 25.55 -9.0 25.55 L-7.45 25.3 Q-6.95 26.65 -6.0 26.95 -4.5 27.85 -2.95 28.25 L6.75 28.95 9.6 28.75 8.8 23.65 8.15 19.2 7.5 14.9 8.25 14.35 8.6 15.15 8.45 14.2 8.55 14.05 9.45 12.9 9.5 12.85 12.0 27.55 Q16.2 26.45 19.25 26.45 L19.75 26.5 22.1 26.85 22.7 26.95 23.15 27.05 26.0 27.55 26.55 27.6 Q27.95 27.6 29.05 26.95 L28.35 24.85 27.2 20.95 26.4 18.0 Q25.35 13.85 24.6 9.55 L23.6 2.85 23.7 2.8 M-19.25 15.85 L-19.4 16.25 Q-20.75 20.7 -21.65 22.95 L-22.5 24.9 -22.95 25.25 Q-28.35 25.25 -30.9 24.25 -32.25 23.7 -33.7 22.25 -31.1 17.8 -29.05 13.8 L-27.5 10.6 -26.45 8.2 -24.45 2.55 -23.8 -0.2 -24.55 2.0 -26.65 6.95 -27.5 8.75 -27.7 9.2 Q-31.0 16.1 -33.9 20.4 -37.7 19.05 -38.85 16.9 L-38.4 16.3 Q-37.15 17.15 -35.6 17.2 L-34.35 18.05 -33.75 16.9 Q-32.8 16.55 -32.0 15.7 -30.5 14.25 -30.5 12.2 L-30.7 10.75 -27.1 3.4 -27.3 1.0 -32.1 8.55 -32.8 8.0 Q-30.45 4.15 -28.45 0.1 L-27.25 -2.5 Q-26.15 -1.8 -24.75 -1.8 L-24.6 -1.8 -24.65 -0.65 -23.05 0.05 -24.1 4.4 -25.25 8.25 -26.1 10.3 -27.15 12.6 -31.6 21.9 -27.05 23.15 -24.35 23.5 -23.85 22.4 -22.95 20.35 -21.2 16.1 -20.85 16.1 -19.25 15.85 M-20.0 -5.2 Q-17.75 -4.0 -17.75 -3.6 -18.0 -3.4 -18.3 -3.3 L-20.45 -4.15 -20.35 -4.45 -20.0 -5.2 M-12.3 -2.15 L-15.2 -2.15 -15.1 -3.5 -12.15 -3.5 -12.3 -2.35 -12.3 -2.15 M-10.05 15.65 L-9.35 11.35 -9.2 10.3 -9.1 8.35 -8.7 12.25 -8.4 15.6 -9.0 15.55 -10.05 15.65 M-16.95 8.0 L-17.35 7.55 -17.55 7.35 -15.3 1.9 -16.95 8.0 M-16.15 9.25 L-16.6 8.5 Q-15.7 4.8 -15.3 1.9 -15.3 4.55 -16.15 9.25" fill="#a87602" fill-rule="evenodd" stroke="none"/>
    <path d="M21.85 29.4 L23.8 29.65 21.05 31.8 21.85 29.4 M12.0 30.0 L17.05 28.8 21.1 29.3 Q19.85 31.6 18.0 33.2 13.35 37.2 4.1 37.2 -9.15 37.2 -17.1 29.05 L-12.1 28.45 Q-11.25 28.45 -7.0 29.8 -2.7 31.15 2.3 31.15 7.25 31.15 12.0 30.0" fill="#895901" fill-rule="evenodd" stroke="none"/>
    <path d="M5.35 -7.55 L5.35 -9.85 2.05 -9.9 2.05 -8.15 2.05 -2.85 1.35 2.25 Q0.95 2.1 0.8 -4.15 0.65 -10.4 0.8 -10.4 L-20.2 -11.85 -23.15 -12.95 -25.55 -14.1 Q-26.1 -13.15 -26.45 -11.5 L-27.75 -10.8 -27.6 -12.1 -26.8 -17.35 -26.35 -17.35 -24.7 -15.8 Q-23.85 -15.05 -23.1 -15.05 -20.75 -14.15 -16.25 -13.2 -7.15 -11.35 7.1 -11.3 L15.65 -11.65 Q21.35 -12.15 29.0 -13.8 L31.6 -14.4 Q32.85 -14.9 33.8 -15.9 L33.95 -16.1 34.4 -16.1 34.45 -15.8 34.4 -15.85 34.8 -14.25 35.8 -10.65 34.6 -10.2 Q34.1 -11.85 33.05 -13.5 L30.45 -12.85 31.15 -4.65 31.2 -4.65 Q31.25 -3.95 31.75 -2.7 L31.8 -2.2 31.6 -1.6 31.6 -1.55 31.85 -0.9 32.95 1.85 35.55 7.65 Q34.9 7.25 34.15 7.1 L32.95 4.4 31.45 0.9 30.8 -0.65 30.75 -0.7 30.65 -0.95 30.5 -0.8 30.65 -1.05 30.35 -0.9 30.3 -0.95 30.15 -1.25 29.3 -11.1 29.2 -12.5 26.3 -11.65 26.45 -9.95 27.35 -0.4 27.2 0.1 26.15 0.15 25.9 -2.4 25.9 -3.15 25.0 -11.4 6.6 -9.8 6.6 -8.6 6.6 1.5 6.7 2.3 6.85 3.25 7.2 6.05 6.05 5.65 5.7 3.35 5.65 3.25 5.45 1.85 5.45 1.8 5.35 -7.55 M36.15 -0.85 L37.0 -0.8 37.85 -0.85 38.45 0.65 Q40.0 4.0 42.85 8.8 L42.1 10.05 39.8 6.55 37.75 2.95 Q36.6 0.7 36.15 -0.85 M47.65 16.9 L47.65 17.0 Q47.65 19.4 45.25 20.45 42.85 21.5 42.85 22.65 42.85 24.3 37.45 25.25 32.0 26.2 32.0 27.15 32.0 27.9 29.65 28.8 L26.9 29.6 26.85 29.65 25.6 30.7 Q16.4 37.95 6.6 38.6 L0.95 38.65 Q-8.35 38.05 -14.8 33.4 L-15.05 33.2 Q-17.45 31.5 -19.4 29.2 L-20.7 28.95 -22.55 28.4 Q-23.4 28.05 -23.55 27.65 L-23.3 26.25 Q-31.05 25.0 -32.65 24.3 -34.35 23.55 -34.35 21.3 -34.35 21.05 -37.1 19.45 -39.85 17.8 -39.85 16.9 L-38.8 15.45 -39.0 15.75 -38.4 16.3 -38.85 16.9 Q-37.7 19.05 -33.9 20.4 -31.0 16.1 -27.7 9.2 L-27.5 8.75 -26.65 6.95 -24.55 2.0 -23.8 -0.2 -24.45 2.55 -26.45 8.2 -27.5 10.6 -29.05 13.8 Q-31.1 17.8 -33.7 22.25 -32.25 23.7 -30.9 24.25 -28.35 25.25 -22.95 25.25 L-22.5 24.9 -21.65 22.95 Q-20.75 20.7 -19.4 16.25 L-19.25 15.85 -18.65 15.6 -18.75 15.85 -19.05 16.8 -21.3 23.55 -22.0 25.7 -22.55 27.25 -20.55 27.8 -18.1 27.95 -16.6 27.9 -12.15 27.45 -5.05 28.85 2.1 30.1 Q8.55 30.1 12.3 28.95 16.05 27.8 17.05 27.8 L17.85 27.9 21.1 28.3 21.55 28.35 22.2 28.45 24.8 28.75 25.15 28.75 28.35 28.2 30.95 26.95 30.6 25.7 29.8 23.0 28.55 19.0 27.7 16.4 27.5 15.8 26.9 13.95 26.55 12.85 24.55 6.1 23.7 2.8 24.2 2.3 24.5 2.05 24.55 2.2 26.25 8.0 27.25 11.3 27.6 12.45 29.25 17.9 30.45 22.0 31.3 24.8 31.55 25.6 40.3 23.55 Q41.8 23.15 41.8 22.25 41.8 21.7 41.2 20.75 L38.6 16.2 37.5 14.1 37.95 12.75 42.1 20.5 Q44.55 19.6 45.75 18.45 46.6 17.65 46.7 16.95 L46.75 16.95 47.65 16.9 M-33.6 7.55 Q-30.65 2.8 -29.6 0.5 -28.95 -0.85 -28.45 -3.0 L-28.45 -3.45 -28.3 -3.3 -27.25 -2.5 -28.45 0.1 Q-30.45 4.15 -32.8 8.0 L-33.6 7.55 M8.45 14.2 L8.6 15.15 8.25 14.35 8.45 14.2 M-16.6 8.5 L-16.95 8.0 -15.3 1.9 Q-15.7 4.8 -16.6 8.5 M12.0 30.0 Q7.25 31.15 2.3 31.15 -2.7 31.15 -7.0 29.8 -11.25 28.45 -12.1 28.45 L-17.1 29.05 Q-9.15 37.2 4.1 37.2 13.35 37.2 18.0 33.2 19.85 31.6 21.1 29.3 L17.05 28.8 12.0 30.0 M21.85 29.4 L21.05 31.8 23.8 29.65 21.85 29.4" fill="#6a3800" fill-rule="evenodd" stroke="none"/>
  </g>
</svg>
