<?xml version="1.0" encoding="UTF-8" standalone="no"?>
<svg xmlns:ffdec="https://www.free-decompiler.com/flash" xmlns:xlink="http://www.w3.org/1999/xlink" ffdec:objectType="shape" height="22.0px" width="19.15px" xmlns="http://www.w3.org/2000/svg">
  <g transform="matrix(1.0, 0.0, 0.0, 1.0, 9.55, 8.2)">
    <path d="M5.35 -4.0 L3.8 -5.2 Q2.15 -6.2 0.05 -6.2 -1.8 -6.2 -3.35 -5.4 -4.35 -4.9 -5.25 -4.0 -7.45 -1.8 -7.45 1.3 -7.45 4.4 -5.25 6.6 -3.05 8.8 0.05 8.8 3.15 8.8 5.35 6.6 7.55 4.4 7.55 1.3 7.55 -1.8 5.35 -4.0 M-9.4 2.25 L-9.45 1.3 Q-9.45 -2.6 -6.65 -5.4 -3.85 -8.2 0.05 -8.2 3.95 -8.2 6.75 -5.4 9.55 -2.6 9.55 1.3 L9.5 2.5 Q9.1 5.65 6.75 8.0 3.95 10.8 0.05 10.8 -3.85 10.8 -6.65 8.0 -9.1 5.55 -9.4 2.25" fill="#600606" fill-rule="evenodd" stroke="none"/>
    <path d="M5.35 -4.0 Q7.55 -1.8 7.55 1.3 7.55 4.4 5.35 6.6 3.15 8.8 0.05 8.8 -3.05 8.8 -5.25 6.6 -7.45 4.4 -7.45 1.3 -7.45 -1.8 -5.25 -4.0 -4.35 -4.9 -3.35 -5.4 -1.8 -6.2 0.05 -6.2 2.15 -6.2 3.8 -5.2 L5.35 -4.0 M2.3 -1.65 Q2.3 -2.7 1.55 -3.45 0.85 -4.15 -0.2 -4.15 -1.25 -4.15 -2.0 -3.45 -2.7 -2.7 -2.7 -1.65 -2.7 -0.6 -2.0 0.1 -1.25 0.85 -0.2 0.85 0.85 0.85 1.55 0.1 2.3 -0.6 2.3 -1.65" fill="#f00f0f" fill-rule="evenodd" stroke="none"/>
    <path d="M2.3 -1.65 Q2.3 -0.6 1.55 0.1 0.85 0.85 -0.2 0.85 -1.25 0.85 -2.0 0.1 -2.7 -0.6 -2.7 -1.65 -2.7 -2.7 -2.0 -3.45 -1.25 -4.15 -0.2 -4.15 0.85 -4.15 1.55 -3.45 2.3 -2.7 2.3 -1.65" fill="#ff7e7e" fill-rule="evenodd" stroke="none"/>
    <path d="M-9.4 2.25 Q-9.1 5.55 -6.65 8.0 -3.85 10.8 0.05 10.8 3.95 10.8 6.75 8.0 9.1 5.65 9.5 2.5 L9.6 4.1 Q9.6 8.3 6.75 11.25 L5.35 12.5 3.95 12.95 1.45 13.8 -2.75 13.8 Q-5.05 13.1 -6.8 11.25 -9.55 8.3 -9.55 4.1 L-9.4 2.25" fill="#000000" fill-opacity="0.16078432" fill-rule="evenodd" stroke="none"/>
  </g>
</svg>
