<?xml version="1.0" encoding="UTF-8" standalone="no"?>
<svg xmlns:ffdec="https://www.free-decompiler.com/flash" xmlns:xlink="http://www.w3.org/1999/xlink" ffdec:objectType="shape" height="16.15px" width="19.15px" xmlns="http://www.w3.org/2000/svg">
  <g transform="matrix(1.0, 0.0, 0.0, 1.0, 9.55, 2.2)">
    <path d="M9.5 8.5 L9.6 10.1 9.6 10.55 9.1 10.95 8.8 11.1 Q9.35 9.9 9.5 8.5 M-8.85 10.6 L-9.55 10.15 -9.55 10.1 -9.4 8.25 -8.85 10.6" fill="#000000" fill-opacity="0.16078432" fill-rule="evenodd" stroke="none"/>
    <path d="M1.55 6.1 Q2.3 5.4 2.3 4.35 2.3 3.3 1.55 2.55 0.85 1.85 -0.2 1.85 -1.25 1.85 -2.0 2.55 -2.7 3.3 -2.7 4.35 -2.7 5.4 -2.0 6.1 -1.25 6.85 -0.2 6.85 0.85 6.85 1.55 6.1 M5.3 12.7 L5.2 12.7 1.1 13.95 -1.5 13.95 -4.75 13.05 -5.25 12.6 Q-7.45 10.4 -7.45 7.3 -7.45 4.2 -5.25 2.0 -4.35 1.1 -3.35 0.6 -1.8 -0.2 0.05 -0.2 2.15 -0.2 3.8 0.8 L5.35 2.0 Q7.55 4.2 7.55 7.3 7.55 10.4 5.35 12.6 L5.3 12.7" fill="#d20d0d" fill-rule="evenodd" stroke="none"/>
    <path d="M1.55 6.1 Q0.85 6.85 -0.2 6.85 -1.25 6.85 -2.0 6.1 -2.7 5.4 -2.7 4.35 -2.7 3.3 -2.0 2.55 -1.25 1.85 -0.2 1.85 0.85 1.85 1.55 2.55 2.3 3.3 2.3 4.35 2.3 5.4 1.55 6.1" fill="#ff6262" fill-rule="evenodd" stroke="none"/>
    <path d="M-9.4 8.25 L-9.45 7.3 Q-9.45 3.4 -6.65 0.6 -3.85 -2.2 0.05 -2.2 3.95 -2.2 6.75 0.6 9.55 3.4 9.55 7.3 L9.5 8.5 Q9.35 9.9 8.8 11.1 L5.3 12.7 5.35 12.6 Q7.55 10.4 7.55 7.3 7.55 4.2 5.35 2.0 L3.8 0.8 Q2.15 -0.2 0.05 -0.2 -1.8 -0.2 -3.35 0.6 -4.35 1.1 -5.25 2.0 -7.45 4.2 -7.45 7.3 -7.45 10.4 -5.25 12.6 L-4.75 13.05 -6.35 12.35 -8.45 10.85 -8.85 10.6 -9.4 8.25" fill="#500505" fill-rule="evenodd" stroke="none"/>
  </g>
</svg>
