<?xml version="1.0" encoding="UTF-8" standalone="no"?>
<svg xmlns:ffdec="https://www.free-decompiler.com/flash" xmlns:xlink="http://www.w3.org/1999/xlink" ffdec:objectType="shape" height="11.3px" width="18.6px" xmlns="http://www.w3.org/2000/svg">
  <g transform="matrix(1.0, 0.0, 0.0, 1.0, 9.25, -2.8)">
    <path d="M7.6 11.65 Q7.45 9.1 5.35 7.0 L3.8 5.8 Q2.15 4.8 0.05 4.8 -1.8 4.8 -3.35 5.6 -4.35 6.1 -5.25 7.0 -7.1 8.85 -7.4 11.35 L-9.25 10.3 Q-8.7 7.65 -6.65 5.6 -3.85 2.8 0.05 2.8 3.95 2.8 6.75 5.6 8.75 7.6 9.35 10.25 L8.35 11.05 Q7.9 11.4 7.6 11.65" fill="#420404" fill-rule="evenodd" stroke="none"/>
    <path d="M-7.4 11.35 Q-7.1 8.85 -5.25 7.0 -4.35 6.1 -3.35 5.6 -1.8 4.8 0.05 4.8 2.15 4.8 3.8 5.8 L5.35 7.0 Q7.45 9.1 7.6 11.65 L7.5 11.8 7.45 11.85 Q6.4 12.65 4.7 13.15 L2.15 13.75 -2.05 13.95 Q-3.35 13.75 -5.4 12.85 L-7.35 11.65 -7.4 11.35 M1.55 11.1 Q2.3 10.4 2.3 9.35 2.3 8.3 1.55 7.55 0.85 6.85 -0.2 6.85 -1.25 6.85 -2.0 7.55 -2.7 8.3 -2.7 9.35 -2.7 10.4 -2.0 11.1 -1.25 11.85 -0.2 11.85 0.85 11.85 1.55 11.1" fill="#be0c0c" fill-rule="evenodd" stroke="none"/>
    <path d="M1.55 11.1 Q0.85 11.85 -0.2 11.85 -1.25 11.85 -2.0 11.1 -2.7 10.4 -2.7 9.35 -2.7 8.3 -2.0 7.55 -1.25 6.85 -0.2 6.85 0.85 6.85 1.55 7.55 2.3 8.3 2.3 9.35 2.3 10.4 1.55 11.1" fill="#ff2424" fill-rule="evenodd" stroke="none"/>
  </g>
</svg>
