<?xml version="1.0" encoding="UTF-8" standalone="no"?>
<svg xmlns:ffdec="https://www.free-decompiler.com/flash" xmlns:xlink="http://www.w3.org/1999/xlink" ffdec:objectType="shape" height="6.25px" width="15.1px" xmlns="http://www.w3.org/2000/svg">
  <g transform="matrix(1.0, 0.0, 0.0, 1.0, 7.4, -7.8)">
    <path d="M-5.7 12.55 L-7.4 11.45 -6.65 10.6 Q-3.85 7.8 0.05 7.8 3.95 7.8 6.75 10.6 L7.7 11.65 7.3 11.85 5.9 12.6 5.35 12.0 3.8 10.8 Q2.15 9.8 0.05 9.8 -1.8 9.8 -3.35 10.6 -4.35 11.1 -5.25 12.0 L-5.7 12.55" fill="#320303" fill-rule="evenodd" stroke="none"/>
    <path d="M-5.7 12.55 L-5.25 12.0 Q-4.35 11.1 -3.35 10.6 -1.8 9.8 0.05 9.8 2.15 9.8 3.8 10.8 L5.35 12.0 5.9 12.6 2.3 14.05 Q2.2 13.2 1.55 12.55 0.85 11.85 -0.2 11.85 -1.25 11.85 -2.0 12.55 -2.5 13.05 -2.6 13.75 -4.3 13.25 -5.7 12.55" fill="#960a0a" fill-rule="evenodd" stroke="none"/>
    <path d="M2.3 14.05 L2.15 14.05 -1.4 14.05 -2.6 13.75 Q-2.5 13.05 -2.0 12.55 -1.25 11.85 -0.2 11.85 0.85 11.85 1.55 12.55 2.2 13.2 2.3 14.05" fill="#df0000" fill-rule="evenodd" stroke="none"/>
  </g>
</svg>
