<?xml version="1.0" encoding="UTF-8" standalone="no"?>
<svg xmlns:ffdec="https://www.free-decompiler.com/flash" xmlns:xlink="http://www.w3.org/1999/xlink" ffdec:objectType="shape" height="80.0px" width="80.0px" xmlns="http://www.w3.org/2000/svg">
  <g transform="matrix(1.0, 0.0, 0.0, 1.0, 39.85, 39.7)">
    <path d="M15.0 -14.6 Q8.9 -20.7 0.15 -20.7 -8.55 -20.7 -14.7 -14.6 L-14.75 -14.55 Q-20.85 -8.4 -20.85 0.3 -20.85 9.05 -14.75 15.15 -8.6 21.3 0.15 21.3 8.85 21.3 15.0 15.15 21.15 9.0 21.15 0.3 21.15 -8.45 15.0 -14.6 M0.15 -23.7 Q10.1 -23.7 17.1 -16.7 24.15 -9.65 24.15 0.3 24.15 10.25 17.15 17.25 L17.1 17.3 Q10.1 24.3 0.15 24.3 -9.8 24.3 -16.85 17.25 -23.85 10.25 -23.85 0.3 -23.85 -9.65 -16.85 -16.7 -9.8 -23.7 0.15 -23.7" fill="#39bd8b" fill-rule="evenodd" stroke="none"/>
    <path d="M0.15 -23.7 Q-9.8 -23.7 -16.85 -16.7 -23.85 -9.65 -23.85 0.3 -23.85 10.25 -16.85 17.25 -9.8 24.3 0.15 24.3 10.1 24.3 17.1 17.3 L17.15 17.25 Q24.15 10.25 24.15 0.3 24.15 -9.65 17.1 -16.7 10.1 -23.7 0.15 -23.7 M20.65 -20.25 Q29.15 -11.75 29.15 0.3 29.15 12.3 20.65 20.8 12.15 29.3 0.15 29.3 -11.9 29.3 -20.4 20.8 -28.85 12.35 -28.85 0.3 -28.85 -11.7 -20.4 -20.2 L-20.35 -20.25 Q-11.85 -28.7 0.15 -28.7 12.2 -28.7 20.65 -20.25" fill="#ffffff" fill-rule="evenodd" stroke="none"/>
    <path d="M15.0 -14.6 Q21.15 -8.45 21.15 0.3 21.15 9.0 15.0 15.15 8.85 21.3 0.15 21.3 -8.6 21.3 -14.75 15.15 -20.85 9.05 -20.85 0.3 -20.85 -8.4 -14.75 -14.55 L-14.7 -14.6 Q-8.55 -20.7 0.15 -20.7 8.9 -20.7 15.0 -14.6 M0.15 -16.2 Q-6.65 -16.2 -11.5 -11.35 -16.35 -6.5 -16.35 0.3 -16.35 2.95 -15.6 5.25 -14.7 8.2 -12.6 10.75 L-11.5 11.95 Q-6.65 16.8 0.15 16.8 6.95 16.8 11.8 11.95 L12.9 10.75 Q15.0 8.2 15.95 5.25 16.65 2.95 16.65 0.3 16.65 -6.5 11.8 -11.35 6.95 -16.2 0.15 -16.2 M26.3 -25.9 Q37.15 -15.05 37.15 0.3 37.15 15.6 26.3 26.45 15.45 37.3 0.15 37.3 -15.2 37.3 -26.05 26.45 -36.85 15.65 -36.85 0.3 -36.85 -15.0 -26.05 -25.85 L-26.0 -25.9 Q-15.15 -36.7 0.15 -36.7 15.5 -36.7 26.3 -25.9 M0.15 -31.7 Q-13.1 -31.7 -22.5 -22.35 -31.85 -12.95 -31.85 0.3 -31.85 13.55 -22.5 22.9 -13.1 32.3 0.15 32.3 13.4 32.3 22.75 22.95 L22.8 22.9 Q32.15 13.55 32.15 0.3 32.15 -12.95 22.75 -22.35 13.4 -31.7 0.15 -31.7" fill="#a6e3cc" fill-rule="evenodd" stroke="none"/>
    <path d="M0.15 -16.2 Q6.95 -16.2 11.8 -11.35 16.65 -6.5 16.65 0.3 16.65 2.95 15.95 5.25 15.0 8.2 12.9 10.75 L11.8 11.95 Q6.95 16.8 0.15 16.8 -6.65 16.8 -11.5 11.95 L-12.6 10.75 Q-14.7 8.2 -15.6 5.25 -16.35 2.95 -16.35 0.3 -16.35 -6.5 -11.5 -11.35 -6.65 -16.2 0.15 -16.2 M13.5 2.4 L13.65 0.3 Q13.65 -5.3 9.7 -9.25 5.75 -13.2 0.15 -13.2 -5.45 -13.2 -9.4 -9.25 -13.35 -5.3 -13.35 0.3 L-13.2 2.4 -12.75 4.35 Q-12.05 6.7 -10.4 8.7 L-10.3 8.85 -9.4 9.85 Q-5.45 13.8 0.15 13.8 5.75 13.8 9.7 9.85 L10.6 8.85 10.75 8.7 Q12.35 6.7 13.1 4.35 L13.5 2.4" fill="#26a676" fill-rule="evenodd" stroke="none"/>
    <path d="M13.5 2.4 Q12.45 0.4 10.75 -1.3 6.35 -5.7 0.15 -5.7 -6.05 -5.7 -10.45 -1.3 -12.15 0.4 -13.2 2.4 L-13.35 0.3 Q-13.35 -5.3 -9.4 -9.25 -5.45 -13.2 0.15 -13.2 5.75 -13.2 9.7 -9.25 13.65 -5.3 13.65 0.3 L13.5 2.4" fill="#462206" fill-rule="evenodd" stroke="none"/>
    <path d="M-13.2 2.4 Q-12.15 0.4 -10.45 -1.3 -6.05 -5.7 0.15 -5.7 6.35 -5.7 10.75 -1.3 12.45 0.4 13.5 2.4 L13.1 4.35 Q12.35 6.7 10.75 8.7 6.35 4.3 0.15 4.3 -6.05 4.3 -10.4 8.7 -12.05 6.7 -12.75 4.35 L-13.2 2.4" fill="#2e1604" fill-rule="evenodd" stroke="none"/>
    <path d="M26.3 -25.9 Q15.5 -36.7 0.15 -36.7 -15.15 -36.7 -26.0 -25.9 L-26.05 -25.85 Q-36.85 -15.0 -36.85 0.3 -36.85 15.65 -26.05 26.45 -15.2 37.3 0.15 37.3 15.45 37.3 26.3 26.45 37.15 15.6 37.15 0.3 37.15 -15.05 26.3 -25.9 M0.15 -39.7 Q16.7 -39.7 28.4 -28.0 40.15 -16.25 40.15 0.3 40.15 16.85 28.45 28.55 L28.4 28.6 Q16.7 40.3 0.15 40.3 -16.4 40.3 -28.15 28.55 -39.85 16.85 -39.85 0.3 -39.85 -16.25 -28.15 -28.0 -16.4 -39.7 0.15 -39.7" fill="#4bc99a" fill-rule="evenodd" stroke="none"/>
    <path d="M0.15 -31.7 Q13.4 -31.7 22.75 -22.35 32.15 -12.95 32.15 0.3 32.15 13.55 22.8 22.9 L22.75 22.95 Q13.4 32.3 0.15 32.3 -13.1 32.3 -22.5 22.9 -31.85 13.55 -31.85 0.3 -31.85 -12.95 -22.5 -22.35 -13.1 -31.7 0.15 -31.7 M20.65 -20.25 Q12.2 -28.7 0.15 -28.7 -11.85 -28.7 -20.35 -20.25 L-20.4 -20.2 Q-28.85 -11.7 -28.85 0.3 -28.85 12.35 -20.4 20.8 -11.9 29.3 0.15 29.3 12.15 29.3 20.65 20.8 29.15 12.3 29.15 0.3 29.15 -11.75 20.65 -20.25" fill="#45cb99" fill-rule="evenodd" stroke="none"/>
    <path d="M-10.4 8.7 Q-6.05 4.3 0.15 4.3 6.35 4.3 10.75 8.7 L10.6 8.85 9.7 9.85 Q5.75 13.8 0.15 13.8 -5.45 13.8 -9.4 9.85 L-10.3 8.85 -10.4 8.7" fill="#1e0e03" fill-rule="evenodd" stroke="none"/>
  </g>
</svg>
