<?xml version="1.0" encoding="UTF-8" standalone="no"?>
<svg xmlns:ffdec="https://www.free-decompiler.com/flash" xmlns:xlink="http://www.w3.org/1999/xlink" ffdec:objectType="shape" height="552.0px" width="706.05px" xmlns="http://www.w3.org/2000/svg">
  <g transform="matrix(1.0, 0.0, 0.0, 1.0, 25.85, 40.0)">
    <path d="M6.85 -5.35 Q-7.8 9.3 -7.8 30.0 L-7.8 170.0 Q-7.8 190.7 6.85 205.35 21.5 220.0 42.2 220.0 L613.15 220.0 Q633.85 220.0 648.5 205.35 663.15 190.7 663.15 170.0 L663.15 30.0 Q663.15 9.3 648.5 -5.35 633.85 -20.0 613.15 -20.0 L42.2 -20.0 Q21.5 -20.0 6.85 -5.35 M680.2 238.5 L-25.85 238.5 -25.85 -40.0 680.2 -40.0 680.2 238.5" fill="#f5f5f5" fill-rule="evenodd" stroke="none"/>
    <path d="M6.85 -5.35 Q21.5 -20.0 42.2 -20.0 L613.15 -20.0 Q633.85 -20.0 648.5 -5.35 663.15 9.3 663.15 30.0 L663.15 170.0 Q663.15 190.7 648.5 205.35 633.85 220.0 613.15 220.0 L42.2 220.0 Q21.5 220.0 6.85 205.35 -7.8 190.7 -7.8 170.0 L-7.8 30.0 Q-7.8 9.3 6.85 -5.35" fill="#ffffff" fill-rule="evenodd" stroke="none"/>
    <path d="M182.7 249.5 L-25.85 249.5 -25.85 248.5 680.2 248.5 680.2 249.5 477.15 249.5 182.7 249.5 M680.2 238.5 L680.2 239.5 -25.85 239.5 -25.85 238.5 680.2 238.5" fill="#666666" fill-rule="evenodd" stroke="none"/>
    <path d="M-25.85 239.5 L680.2 239.5 680.2 248.5 -25.85 248.5 -25.85 239.5" fill="#cccccc" fill-rule="evenodd" stroke="none"/>
    <path d="M182.7 249.5 L182.7 252.5 477.15 252.5 477.15 249.5 680.2 249.5 680.2 512.0 -25.85 512.0 -25.85 249.5 182.7 249.5" fill="url(#gradient0)" fill-rule="evenodd" stroke="none"/>
    <path d="M477.15 249.5 L477.15 252.5 182.7 252.5 182.7 249.5 477.15 249.5" fill="url(#gradient1)" fill-rule="evenodd" stroke="none"/>
  </g>
  <defs>
    <linearGradient gradientTransform="matrix(0.0, 0.1447, -0.1447, 0.0, 318.25, 361.5)" gradientUnits="userSpaceOnUse" id="gradient0" spreadMethod="pad" x1="-819.2" x2="819.2">
      <stop offset="0.0" stop-color="#c0c0c0"/>
      <stop offset="0.12156862745098039" stop-color="#e6e6e6"/>
      <stop offset="1.0" stop-color="#f8f8f8"/>
    </linearGradient>
    <linearGradient gradientTransform="matrix(0.0, 0.1447, -3.4082, 0.0, 3375.7, 361.5)" gradientUnits="userSpaceOnUse" id="gradient1" spreadMethod="pad" x1="-819.2" x2="819.2">
      <stop offset="0.0" stop-color="#c0c0c0"/>
      <stop offset="0.12156862745098039" stop-color="#e6e6e6"/>
      <stop offset="1.0" stop-color="#f8f8f8"/>
    </linearGradient>
  </defs>
</svg>
