<?xml version="1.0" encoding="UTF-8" standalone="no"?>
<svg xmlns:ffdec="https://www.free-decompiler.com/flash" xmlns:xlink="http://www.w3.org/1999/xlink" ffdec:objectType="shape" height="38.5px" width="46.3px" xmlns="http://www.w3.org/2000/svg">
  <g transform="matrix(1.0, 0.0, 0.0, 1.0, 20.1, 25.35)">
    <path d="M12.65 -14.65 Q15.35 -14.25 19.55 -11.85 L23.55 -9.55 24.75 -7.9 Q25.75 -6.05 25.9 -4.6 L26.2 -1.35 Q26.2 4.45 21.95 9.4 L21.3 10.1 Q21.4 9.45 20.4 7.45 19.4 5.55 19.15 5.55 18.6 5.55 18.05 4.95 L16.7 3.65 Q14.7 6.6 12.6 10.15 10.95 12.4 7.7 13.15 L8.3 5.8 5.0 6.0 6.5 13.15 5.5 13.15 4.15 7.05 Q4.15 4.95 5.5 3.45 6.85 1.95 8.75 1.95 10.5 -0.45 11.3 -0.25 L11.4 -5.65 12.9 -5.1 13.25 -4.6 13.5 -3.35 Q13.5 -0.05 11.4 1.7 L6.3 4.9 Q8.95 4.7 10.9 3.1 L12.95 1.55 Q13.95 1.55 16.3 2.55 19.1 3.7 20.0 5.05 L21.75 8.05 Q23.1 6.4 24.2 2.85 25.15 -0.3 25.15 -1.85 25.15 -5.8 23.35 -8.2 20.45 -12.05 12.6 -13.65 L12.45 -13.65 12.65 -14.65 M0.2 2.8 Q-1.4 4.1 -4.95 12.4 L-9.45 12.4 Q-9.95 9.5 -11.25 5.65 -13.1 8.0 -16.45 8.7 L-19.4 8.5 -19.5 8.2 Q-19.65 7.9 -20.1 7.75 -15.35 3.8 -14.5 1.6 L-14.4 -1.8 Q-14.4 -7.05 0.5 -12.8 L0.65 -11.8 Q-6.5 -9.4 -10.35 -6.25 -13.4 -3.75 -13.4 -1.8 L-11.75 1.9 Q-9.9 6.35 -8.8 10.5 -8.7 7.35 -5.6 2.55 -2.35 -2.5 0.8 -3.7 L0.2 2.8 M-16.3 7.7 Q-14.55 7.55 -13.3 6.65 -10.8 4.8 -13.45 1.05 L-15.9 4.45 -18.25 7.4 -16.3 7.7" fill="#224a60" fill-rule="evenodd" stroke="none"/>
    <path d="M12.45 -13.65 L12.6 -13.65 Q15.45 -12.15 16.95 -9.8 18.2 -7.8 17.8 -6.7 L20.95 -6.5 Q23.9 -5.75 23.9 -2.9 23.9 3.25 20.0 5.05 19.1 3.7 16.3 2.55 13.95 1.55 12.95 1.55 L10.9 3.1 Q8.95 4.7 6.3 4.9 L11.4 1.7 Q13.5 -0.05 13.5 -3.35 L13.25 -4.6 12.9 -5.1 13.1 -6.95 Q13.1 -8.75 11.85 -10.1 L12.45 -13.65" fill="#89a0b2" fill-rule="evenodd" stroke="none"/>
    <path d="M0.65 -11.8 Q0.95 -9.05 0.8 -3.7 -2.35 -2.5 -5.6 2.55 -8.7 7.35 -8.8 10.5 -9.9 6.35 -11.75 1.9 L-13.4 -1.8 Q-13.4 -3.75 -10.35 -6.25 -6.5 -9.4 0.65 -11.8 M12.6 -13.65 Q20.45 -12.05 23.35 -8.2 25.15 -5.8 25.15 -1.85 25.15 -0.3 24.2 2.85 23.1 6.4 21.75 8.05 L20.0 5.05 Q23.9 3.25 23.9 -2.9 23.9 -5.75 20.95 -6.5 L17.8 -6.7 Q18.2 -7.8 16.95 -9.8 15.45 -12.15 12.6 -13.65 M12.9 -5.1 L11.4 -5.65 11.85 -10.1 Q13.1 -8.75 13.1 -6.95 L12.9 -5.1" fill="#5e788e" fill-rule="evenodd" stroke="none"/>
    <path d="M7.7 13.15 L6.5 13.15 5.0 6.0 8.3 5.8 7.7 13.15 M-16.3 7.7 L-18.25 7.4 -15.9 4.45 -13.45 1.05 Q-10.8 4.8 -13.3 6.65 -14.55 7.55 -16.3 7.7" fill="#3d4d5a" fill-rule="evenodd" stroke="none"/>
    <path d="M0.5 -12.8 L-1.15 -20.4 -2.05 -24.3 Q-2.05 -25.15 -1.1 -25.25 L7.6 -25.35 Q9.75 -25.35 11.8 -23.9 14.25 -22.2 14.25 -19.55 L13.8 -17.8 12.65 -14.65 12.45 -13.65 11.85 -10.1 11.4 -5.65 11.3 -0.25 Q10.5 -0.45 8.75 1.95 L10.05 -11.8 12.2 -19.45 Q12.2 -21.8 10.05 -22.8 8.85 -23.4 7.6 -23.4 L0.15 -23.3 1.8 -18.8 Q2.8 -15.85 2.8 -12.3 L2.85 -10.15 Q2.85 -2.7 1.7 1.5 1.05 3.9 -0.55 7.25 L0.2 2.8 0.8 -3.7 Q0.95 -9.05 0.65 -11.8 L0.5 -12.8" fill="#4b3121" fill-rule="evenodd" stroke="none"/>
    <path d="M2.8 -12.3 Q2.8 -15.85 1.8 -18.8 L0.15 -23.3 7.6 -23.4 Q8.85 -23.4 10.05 -22.8 12.2 -21.8 12.2 -19.45 L10.05 -11.8 2.8 -12.3" fill="#724931" fill-rule="evenodd" stroke="none"/>
    <path d="M4.15 7.05 L-0.55 7.25 Q1.05 3.9 1.7 1.5 2.85 -2.7 2.85 -10.15 L2.8 -12.3 10.05 -11.8 8.75 1.95 Q6.85 1.95 5.5 3.45 4.15 4.95 4.15 7.05" fill="#83563a" fill-rule="evenodd" stroke="none"/>
  </g>
</svg>
