<?xml version="1.0" encoding="UTF-8" standalone="no"?>
<svg xmlns:ffdec="https://www.free-decompiler.com/flash" xmlns:xlink="http://www.w3.org/1999/xlink" ffdec:objectType="shape" height="178.5px" width="95.0px" xmlns="http://www.w3.org/2000/svg">
  <g transform="matrix(1.0, 0.0, 0.0, 1.0, 0.0, 178.5)">
    <path d="M22.15 -52.8 L22.0 -50.45 22.0 -50.3 21.85 -48.4 21.8 -47.5 72.85 -49.4 72.6 -51.45 72.45 -52.8 82.6 -52.8 82.7 -51.45 82.8 -49.7 82.85 -48.45 82.95 -46.9 83.7 -49.5 84.35 -49.7 84.7 -49.85 86.05 -50.1 Q86.65 -49.95 87.5 -48.85 L87.8 -48.4 87.8 -48.3 87.5 -47.35 87.3 -46.65 84.7 -37.85 83.55 -33.9 83.6 -32.65 83.6 -32.4 83.65 -30.3 83.75 -26.25 84.25 -25.9 Q87.7 -23.55 92.25 -26.3 L91.4 -32.4 91.35 -32.5 91.1 -34.5 89.65 -47.9 89.5 -49.55 89.35 -51.45 89.05 -55.8 87.0 -55.8 89.55 -64.8 Q89.5 -62.3 89.95 -55.8 L90.3 -51.45 90.4 -49.8 Q91.4 -38.3 91.8 -35.95 L92.4 -32.4 92.4 -32.3 93.3 -26.1 93.35 -25.8 93.05 -25.6 Q88.1 -22.45 84.25 -24.7 L83.5 -25.2 Q84.4 -14.45 84.8 -12.2 L85.4 -8.55 86.3 -2.35 86.35 -2.05 86.05 -1.85 Q81.1 1.3 77.25 -0.95 L75.9 -1.9 75.75 -2.05 75.75 -2.3 75.65 -6.35 75.55 -9.15 74.75 -24.65 74.4 -31.3 20.95 -29.4 20.85 -26.05 20.85 -25.8 20.7 -25.65 19.35 -24.7 Q17.25 -23.45 14.8 -23.85 L14.05 -9.15 13.95 -6.35 13.85 -2.3 13.85 -2.05 13.7 -1.9 12.35 -0.95 Q8.5 1.3 3.55 -1.85 L3.25 -2.05 3.3 -2.35 4.2 -8.55 4.8 -12.2 Q5.2 -14.55 6.2 -26.05 7.15 -37.55 7.05 -41.05 L7.2 -46.6 7.25 -51.45 7.25 -52.8 22.15 -52.8 M12.9 -33.4 L14.35 -33.45 14.95 -41.05 15.3 -44.7 12.8 -45.15 12.7 -45.2 12.8 -45.2 15.5 -46.45 15.55 -46.85 15.9 -50.3 16.0 -51.45 8.25 -51.45 8.2 -45.95 9.7 -45.05 8.2 -44.7 8.05 -41.05 7.1 -25.8 6.95 -24.15 5.5 -10.75 5.25 -8.75 4.35 -2.55 Q8.9 0.2 12.35 -2.15 L12.85 -2.5 12.95 -6.55 13.0 -8.9 13.6 -21.9 13.7 -24.1 13.75 -24.7 13.8 -25.15 14.05 -29.15 12.5 -29.1 11.15 -29.05 11.05 -29.25 Q10.2 -30.75 10.2 -31.25 10.15 -31.7 10.55 -32.55 L11.0 -33.35 11.3 -33.35 12.9 -33.4 M18.95 -33.65 L20.05 -33.7 20.45 -43.15 20.5 -44.15 20.6 -45.65 20.65 -46.5 20.7 -47.05 20.7 -47.45 20.75 -48.45 20.9 -50.3 16.9 -50.3 16.55 -46.95 16.55 -46.6 15.95 -41.05 15.4 -33.5 18.95 -33.65 M21.8 -46.55 L21.65 -44.2 73.15 -46.05 73.05 -46.95 72.95 -48.35 21.8 -46.55 M21.6 -43.2 L21.1 -33.7 74.1 -35.65 73.65 -41.05 73.25 -45.05 21.6 -43.2 M75.3 -34.65 L13.1 -32.45 11.85 -32.4 Q11.55 -31.85 11.7 -31.25 11.7 -30.7 12.05 -30.1 L76.8 -32.4 76.85 -32.45 Q77.25 -33.1 77.15 -33.65 77.1 -34.2 76.65 -34.7 L75.3 -34.65 M19.15 -29.35 L15.15 -29.2 14.9 -24.9 Q17.3 -24.5 19.35 -25.9 L19.85 -26.25 19.95 -29.35 19.15 -29.35 M81.55 -41.05 L81.55 -42.05 81.4 -44.7 79.9 -45.05 81.4 -45.95 81.4 -46.35 81.4 -48.65 81.35 -49.7 81.35 -51.45 73.6 -51.45 73.85 -49.4 73.95 -48.4 74.1 -46.45 76.9 -45.2 76.85 -45.15 74.3 -44.7 74.65 -41.05 75.1 -35.65 76.5 -35.7 77.35 -35.75 78.0 -34.9 78.25 -34.55 78.65 -33.7 78.35 -32.55 77.6 -31.45 76.95 -31.4 75.45 -31.35 75.85 -24.7 76.0 -21.9 76.6 -8.9 76.65 -6.55 76.75 -2.5 77.25 -2.15 Q80.7 0.2 85.25 -2.55 L84.35 -8.75 84.1 -10.75 82.65 -24.15 82.5 -25.8 Q82.2 -29.05 82.05 -32.2 L82.0 -32.2 82.05 -32.25 82.0 -32.4 81.8 -35.7 81.65 -39.0 81.55 -41.05 M82.6 -38.35 L82.8 -34.85 86.65 -47.95 Q86.2 -48.55 85.6 -48.65 L84.45 -48.5 84.45 -48.45 84.05 -47.2 82.55 -42.0 82.55 -41.05 82.6 -38.35" fill="#452e14" fill-rule="evenodd" stroke="none"/>
    <path d="M87.0 -55.8 L89.05 -55.8 89.35 -51.45 84.25 -51.45 84.35 -49.7 83.7 -49.5 82.95 -46.9 82.85 -48.45 82.8 -49.7 82.7 -51.45 82.6 -52.8 86.15 -52.8 87.0 -55.8 M89.5 -49.55 L89.65 -47.9 87.8 -48.3 87.8 -48.4 87.5 -48.85 89.5 -49.55 M91.1 -34.5 L91.35 -32.5 87.75 -33.2 91.1 -34.5 M84.25 -25.9 L83.75 -26.25 83.65 -30.3 83.6 -32.4 83.6 -32.65 83.55 -33.9 84.7 -37.85 84.6 -32.4 89.0 -31.3 84.5 -30.45 84.25 -25.9 M87.3 -46.65 L87.5 -47.35 88.9 -47.05 87.3 -46.65 M16.55 -46.6 L16.55 -46.95 16.9 -50.3 20.9 -50.3 20.75 -48.45 20.7 -47.45 20.7 -47.05 20.65 -46.5 20.6 -45.65 20.5 -44.15 20.45 -43.15 20.05 -33.7 18.95 -33.65 Q18.8 -38.4 18.95 -43.1 L19.0 -44.1 19.05 -46.0 16.55 -46.6 M19.15 -29.35 L19.95 -29.35 19.85 -26.25 19.35 -25.9 19.15 -29.35" fill="#64431e" fill-rule="evenodd" stroke="none"/>
    <path d="M89.35 -51.45 L89.5 -49.55 87.5 -48.85 Q86.65 -49.95 86.05 -50.1 L84.7 -49.85 84.35 -49.7 84.25 -51.45 89.35 -51.45 M89.65 -47.9 L91.1 -34.5 87.75 -33.2 91.35 -32.5 91.4 -32.4 92.25 -26.3 Q87.7 -23.55 84.25 -25.9 L84.5 -30.45 89.0 -31.3 84.6 -32.4 84.7 -37.85 87.3 -46.65 88.9 -47.05 87.5 -47.35 87.8 -48.3 89.65 -47.9 M18.95 -33.65 L15.4 -33.5 15.95 -41.05 16.55 -46.6 19.05 -46.0 19.0 -44.1 18.95 -43.1 Q18.8 -38.4 18.95 -33.65 M19.35 -25.9 Q17.3 -24.5 14.9 -24.9 L15.15 -29.2 19.15 -29.35 19.35 -25.9" fill="#835727" fill-rule="evenodd" stroke="none"/>
    <path d="M12.9 -33.4 L11.3 -33.35 11.7 -39.3 9.2 -38.55 8.7 -26.45 10.8 -25.65 11.05 -29.25 11.15 -29.05 12.5 -29.1 12.25 -25.8 12.2 -24.7 12.15 -24.35 7.7 -23.3 12.05 -22.25 Q11.75 -15.45 12.0 -8.65 L7.6 -7.55 12.1 -6.7 12.35 -2.15 Q8.9 0.2 4.35 -2.55 L5.25 -8.75 8.85 -9.45 5.5 -10.75 6.95 -24.15 9.95 -24.8 7.1 -25.8 8.05 -41.05 13.85 -41.05 12.9 -33.4 M14.2 -46.7 L8.95 -46.05 9.45 -47.55 14.7 -48.4 14.2 -46.7 M9.95 -19.45 L8.2 -20.45 7.45 -11.55 10.05 -10.45 9.95 -19.45 M6.45 -6.15 L5.95 -3.1 Q8.55 -2.15 11.15 -3.05 L10.8 -5.45 6.45 -6.15 M76.5 -35.7 L75.75 -41.05 81.55 -41.05 81.65 -39.0 81.8 -35.7 82.0 -32.4 82.05 -32.25 82.0 -32.2 82.05 -32.2 Q82.2 -29.05 82.5 -25.8 L79.65 -24.8 82.65 -24.15 84.1 -10.75 80.75 -9.45 84.35 -8.75 85.25 -2.55 Q80.7 0.2 77.25 -2.15 L77.5 -6.7 82.0 -7.55 77.6 -8.65 Q77.85 -15.45 77.55 -22.25 L81.9 -23.3 77.45 -24.35 76.95 -31.4 77.6 -31.45 78.35 -32.55 78.8 -25.65 80.9 -26.45 80.4 -38.55 77.9 -39.3 78.25 -34.55 78.0 -34.9 77.35 -35.75 76.5 -35.7 M80.15 -47.55 L80.65 -46.05 75.4 -46.7 74.9 -48.4 80.15 -47.55 M78.45 -3.05 Q81.05 -2.15 83.65 -3.1 L83.15 -6.15 78.8 -5.45 78.45 -3.05 M79.55 -10.45 L82.15 -11.55 81.4 -20.45 79.65 -19.45 79.55 -10.45" fill="#9b682f" fill-rule="evenodd" stroke="none"/>
    <path d="M8.05 -41.05 L8.2 -44.7 9.7 -45.05 8.2 -45.95 8.25 -51.45 16.0 -51.45 15.9 -50.3 15.55 -46.85 15.5 -46.45 12.8 -45.2 12.7 -45.2 12.8 -45.15 15.3 -44.7 14.95 -41.05 14.35 -33.45 12.9 -33.4 13.85 -41.05 8.05 -41.05 M12.5 -29.1 L14.05 -29.15 13.8 -25.15 13.75 -24.7 13.7 -24.1 13.6 -21.9 13.0 -8.9 12.95 -6.55 12.85 -2.5 12.35 -2.15 12.1 -6.7 7.6 -7.55 12.0 -8.65 Q11.75 -15.45 12.05 -22.25 L7.7 -23.3 12.15 -24.35 12.2 -24.7 12.25 -25.8 12.5 -29.1 M5.25 -8.75 L5.5 -10.75 8.85 -9.45 5.25 -8.75 M6.95 -24.15 L7.1 -25.8 9.95 -24.8 6.95 -24.15 M14.2 -46.7 L14.7 -48.4 9.45 -47.55 8.95 -46.05 14.2 -46.7 M76.5 -35.7 L75.1 -35.65 74.65 -41.05 74.3 -44.7 76.85 -45.15 76.9 -45.2 74.1 -46.45 73.95 -48.4 73.85 -49.4 73.6 -51.45 81.35 -51.45 81.35 -49.7 81.4 -48.65 81.4 -46.35 81.4 -45.95 79.9 -45.05 81.4 -44.7 81.55 -42.05 81.55 -41.05 75.75 -41.05 76.5 -35.7 M82.5 -25.8 L82.65 -24.15 79.65 -24.8 82.5 -25.8 M84.1 -10.75 L84.35 -8.75 80.75 -9.45 84.1 -10.75 M77.25 -2.15 L76.75 -2.5 76.65 -6.55 76.6 -8.9 76.0 -21.9 75.85 -24.7 75.45 -31.35 76.95 -31.4 77.45 -24.35 81.9 -23.3 77.55 -22.25 Q77.85 -15.45 77.6 -8.65 L82.0 -7.55 77.5 -6.7 77.25 -2.15 M80.15 -47.55 L74.9 -48.4 75.4 -46.7 80.65 -46.05 80.15 -47.55" fill="#734d22" fill-rule="evenodd" stroke="none"/>
    <path d="M11.3 -33.35 L11.0 -33.35 10.55 -32.55 Q10.15 -31.7 10.2 -31.25 10.2 -30.75 11.05 -29.25 L10.8 -25.65 8.7 -26.45 9.2 -38.55 11.7 -39.3 11.3 -33.35 M9.95 -19.45 L10.05 -10.45 7.45 -11.55 8.2 -20.45 9.95 -19.45 M6.45 -6.15 L10.8 -5.45 11.15 -3.05 Q8.55 -2.15 5.95 -3.1 L6.45 -6.15 M78.35 -32.55 L78.65 -33.7 78.25 -34.55 77.9 -39.3 80.4 -38.55 80.9 -26.45 78.8 -25.65 78.35 -32.55 M78.45 -3.05 L78.8 -5.45 83.15 -6.15 83.65 -3.1 Q81.05 -2.15 78.45 -3.05 M79.55 -10.45 L79.65 -19.45 81.4 -20.45 82.15 -11.55 79.55 -10.45" fill="#cb9354" fill-rule="evenodd" stroke="none"/>
    <path d="M75.3 -34.65 L75.4 -33.55 13.2 -31.35 13.1 -32.45 75.3 -34.65" fill="#75e6d5" fill-rule="evenodd" stroke="none"/>
    <path d="M80.25 -86.85 L84.45 -87.8 84.9 -87.65 Q77.4 -83.7 68.3 -84.6 L55.45 -85.3 Q46.4 -86.7 37.25 -86.6 L27.55 -85.75 12.35 -84.65 12.35 -85.45 Q27.75 -88.4 43.5 -87.85 L57.65 -86.5 71.8 -85.95 80.25 -86.85 M43.5 -76.35 L39.5 -76.75 27.15 -76.2 4.7 -72.65 Q11.0 -74.8 17.45 -76.25 28.35 -78.7 39.5 -78.2 L52.7 -76.7 Q60.25 -75.65 67.9 -76.95 L82.6 -79.25 84.9 -79.4 64.6 -75.6 Q57.2 -74.75 49.95 -75.5 L43.5 -76.35 M58.9 -69.25 L54.15 -69.95 49.75 -70.7 47.5 -71.05 45.5 -71.2 40.1 -70.95 32.05 -69.75 Q29.75 -69.15 27.15 -68.9 L27.1 -68.9 23.3 -67.9 21.45 -67.75 13.8 -67.95 16.6 -68.1 21.3 -68.65 Q24.05 -69.0 26.7 -69.85 L29.15 -70.6 34.45 -71.65 39.95 -72.45 45.2 -72.45 47.95 -72.05 53.15 -71.25 Q58.35 -70.2 63.75 -69.9 L81.75 -71.6 82.25 -71.4 Q80.4 -70.6 78.2 -70.35 L69.45 -69.05 60.95 -69.15 58.9 -69.25" fill="#be56fc" fill-rule="evenodd" stroke="none"/>
    <path d="M42.3 -62.35 L47.35 -62.35 48.2 -58.95 49.3 -62.35 79.35 -61.95 80.45 -57.45 81.15 -61.95 85.1 -61.85 85.1 -55.45 67.55 -55.45 66.5 -58.45 65.5 -55.45 29.0 -55.45 27.75 -58.95 26.6 -55.45 6.6 -55.45 5.5 -58.55 4.45 -55.45 1.0 -55.45 1.0 -61.85 2.85 -61.9 7.35 -62.0 8.45 -57.45 9.15 -62.05 14.05 -62.1 22.75 -62.25 37.6 -62.35 40.35 -62.35 41.45 -57.45 42.3 -62.35 M40.35 -62.85 L42.6 -67.45 42.3 -62.85 40.35 -62.85 M49.3 -62.85 L47.35 -62.85 48.95 -65.45 49.3 -62.85 M79.35 -62.85 L81.6 -67.45 81.15 -62.85 79.35 -62.85 M7.35 -62.8 L9.6 -67.45 9.15 -62.8 7.35 -62.8" fill="#ae2efc" fill-rule="evenodd" stroke="none"/>
    <path d="M42.3 -62.85 L42.3 -62.35 41.45 -57.45 40.35 -62.35 40.35 -62.85 42.3 -62.85 M47.35 -62.35 L47.35 -62.85 49.3 -62.85 49.3 -62.35 48.2 -58.95 47.35 -62.35 M79.35 -61.95 L79.35 -62.85 81.15 -62.85 81.15 -61.95 80.45 -57.45 79.35 -61.95 M85.1 -55.45 L85.1 -53.8 82.55 -53.8 72.35 -53.9 37.6 -54.05 22.25 -53.95 7.25 -53.85 2.85 -53.8 1.0 -53.8 1.0 -55.45 4.45 -55.45 5.5 -58.55 6.6 -55.45 26.6 -55.45 27.75 -58.95 29.0 -55.45 65.5 -55.45 66.5 -58.45 67.55 -55.45 85.1 -55.45 M7.35 -62.0 L7.35 -62.8 9.15 -62.8 9.15 -62.05 8.45 -57.45 7.35 -62.0 M92.1 -77.65 L86.1 -56.8 86.1 -62.25 92.1 -83.1 92.1 -77.65" fill="#9203e7" fill-rule="evenodd" stroke="none"/>
    <path d="M42.3 -62.35 L42.3 -62.85 47.35 -62.85 47.35 -62.35 42.3 -62.35 M49.3 -62.35 L49.3 -62.85 79.35 -62.85 79.35 -61.95 49.3 -62.35 M81.15 -62.85 L85.25 -62.85 93.8 -92.8 9.75 -92.8 1.2 -62.85 7.35 -62.8 7.35 -62.0 2.85 -61.9 1.0 -61.85 1.0 -55.45 1.0 -53.8 2.85 -53.8 7.25 -53.85 22.25 -53.95 37.6 -54.05 72.35 -53.9 82.55 -53.8 85.1 -53.8 85.1 -55.45 85.1 -61.85 81.15 -61.95 81.15 -62.85 M9.15 -62.8 L40.35 -62.85 40.35 -62.35 37.6 -62.35 22.75 -62.25 14.05 -62.1 9.15 -62.05 9.15 -62.8 M72.45 -52.8 L22.15 -52.8 7.25 -52.8 0.0 -52.8 0.0 -62.2 1.5 -67.5 8.85 -93.8 95.0 -93.8 95.0 -84.1 89.55 -64.8 87.0 -55.8 86.15 -52.8 82.6 -52.8 72.45 -52.8 M92.1 -77.65 L92.1 -83.1 86.1 -62.25 86.1 -56.8 92.1 -77.65" fill="#50027d" fill-rule="evenodd" stroke="none"/>
    <path d="M21.8 -46.55 L72.95 -48.35 73.05 -46.95 73.15 -46.05 21.65 -44.2 21.8 -46.55 M84.05 -47.2 L84.45 -48.45 84.45 -48.5 85.6 -48.65 Q86.2 -48.55 86.65 -47.95 L82.8 -34.85 82.6 -38.35 85.15 -46.95 84.05 -47.2" fill="#1c9381" fill-rule="evenodd" stroke="none"/>
    <path d="M13.1 -32.45 L13.2 -31.35 75.4 -33.55 75.3 -34.65 76.65 -34.7 Q77.1 -34.2 77.15 -33.65 77.25 -33.1 76.85 -32.45 L76.8 -32.4 12.05 -30.1 Q11.7 -30.7 11.7 -31.25 11.55 -31.85 11.85 -32.4 L13.1 -32.45 M82.6 -38.35 L82.55 -41.05 82.55 -42.0 84.05 -47.2 85.15 -46.95 82.6 -38.35" fill="#22b59e" fill-rule="evenodd" stroke="none"/>
    <path d="M43.5 -76.35 L49.95 -75.5 Q57.2 -74.75 64.6 -75.6 L84.9 -79.4 82.6 -79.25 67.9 -76.95 Q60.25 -75.65 52.7 -76.7 L39.5 -78.2 Q28.35 -78.7 17.45 -76.25 11.0 -74.8 4.7 -72.65 L27.15 -76.2 39.5 -76.75 43.5 -76.35 M80.25 -86.85 L71.8 -85.95 57.65 -86.5 43.5 -87.85 Q27.75 -88.4 12.35 -85.45 L12.35 -84.65 27.55 -85.75 37.25 -86.6 Q46.4 -86.7 55.45 -85.3 L68.3 -84.6 Q77.4 -83.7 84.9 -87.65 L84.45 -87.8 80.25 -86.85 M58.9 -69.25 L60.95 -69.15 69.45 -69.05 78.2 -70.35 Q80.4 -70.6 82.25 -71.4 L81.75 -71.6 63.75 -69.9 Q58.35 -70.2 53.15 -71.25 L47.95 -72.05 45.2 -72.45 39.95 -72.45 34.45 -71.65 29.15 -70.6 26.7 -69.85 Q24.05 -69.0 21.3 -68.65 L16.6 -68.1 13.8 -67.95 21.45 -67.75 23.3 -67.9 27.1 -68.9 27.15 -68.9 Q29.75 -69.15 32.05 -69.75 L40.1 -70.95 45.5 -71.2 47.5 -71.05 49.75 -70.7 54.15 -69.95 58.9 -69.25 M47.35 -62.85 L42.3 -62.85 42.6 -67.45 40.35 -62.85 9.15 -62.8 9.6 -67.45 7.35 -62.8 1.2 -62.85 9.75 -92.8 93.8 -92.8 85.25 -62.85 81.15 -62.85 81.6 -67.45 79.35 -62.85 49.3 -62.85 48.95 -65.45 47.35 -62.85" fill="#cf84fd" fill-rule="evenodd" stroke="none"/>
    <path d="M41.7 -175.25 L41.6 -175.75 Q41.45 -176.35 41.8 -176.85 42.1 -177.4 42.7 -177.5 L43.75 -177.3 44.45 -176.35 44.55 -175.8 41.7 -175.25 M45.25 -172.85 L45.9 -169.8 Q46.0 -169.2 45.65 -168.75 L44.8 -168.05 Q44.15 -167.95 43.65 -168.3 43.15 -168.65 43.05 -169.15 L42.3 -172.4 45.25 -172.85 M49.15 -175.1 L49.2 -175.2 Q49.45 -175.75 50.05 -175.95 L51.15 -175.9 Q51.7 -175.7 51.9 -175.1 52.1 -174.55 51.85 -174.0 L51.75 -173.8 49.15 -175.1 M50.35 -170.65 L49.15 -168.15 Q48.9 -167.6 48.35 -167.4 L47.25 -167.45 Q46.7 -167.7 46.5 -168.3 46.3 -168.85 46.55 -169.35 L47.95 -172.35 50.35 -170.65 M39.9 -171.2 L41.55 -168.85 Q41.85 -168.4 41.8 -167.75 41.65 -167.15 41.15 -166.85 40.65 -166.5 40.1 -166.6 39.45 -166.75 39.15 -167.2 L37.8 -169.1 39.9 -171.2 M36.4 -171.1 L36.25 -171.35 Q35.85 -171.85 36.0 -172.4 36.1 -173.05 36.6 -173.35 37.05 -173.75 37.7 -173.6 L38.55 -173.05 36.4 -171.1 M35.3 -145.0 Q36.35 -148.7 37.85 -152.55 L40.0 -149.9 Q39.0 -147.15 38.3 -144.5 36.95 -145.2 35.3 -145.0 M46.05 -88.15 L46.3 -85.25 43.95 -85.45 43.95 -88.35 46.05 -88.15 M46.4 -84.25 L46.55 -81.5 41.6 -81.8 41.6 -84.7 42.1 -84.65 43.95 -84.45 46.4 -84.25 M46.55 -80.55 L46.5 -79.75 46.55 -79.8 46.45 -78.55 43.5 -79.05 43.5 -80.65 46.55 -80.55 M24.95 -93.4 L24.9 -93.5 24.95 -93.5 24.95 -93.4 M26.15 -92.45 Q27.55 -91.3 29.25 -90.7 L30.35 -90.45 30.35 -88.75 29.95 -88.95 Q28.35 -89.75 27.4 -90.7 L26.75 -91.4 26.15 -92.45 M34.85 -91.1 Q36.55 -91.95 37.8 -93.45 L36.65 -94.45 39.4 -95.0 40.6 -95.15 42.5 -95.35 42.5 -92.5 40.35 -92.2 35.05 -91.05 34.85 -91.1 M35.7 -95.35 L34.2 -96.9 34.85 -97.15 40.6 -98.45 40.6 -96.15 38.35 -95.85 35.7 -95.35 M33.45 -97.7 L31.4 -99.95 33.75 -100.85 Q37.9 -102.15 43.0 -102.75 L43.0 -99.75 Q38.35 -99.3 34.6 -98.05 L33.45 -97.7 M36.1 -127.6 Q36.6 -117.05 42.7 -109.45 L42.15 -105.45 Q33.45 -114.45 33.0 -127.7 L36.1 -127.6 M53.75 -99.2 L57.4 -98.95 64.5 -97.5 62.15 -95.1 Q58.5 -96.05 54.1 -96.3 L53.75 -99.2 M65.45 -98.5 L57.85 -99.85 53.65 -100.15 53.25 -103.1 Q61.45 -102.85 67.55 -100.95 L65.45 -98.5 M69.0 -90.75 Q71.15 -91.55 72.75 -93.1 L73.25 -93.5 71.85 -91.25 71.2 -90.2 70.6 -89.3 70.1 -88.7 69.65 -88.05 69.0 -87.8 69.0 -90.75 M68.4 -86.6 L66.6 -84.8 66.6 -86.05 68.05 -86.5 68.4 -86.6 M54.9 -89.7 L54.65 -91.8 Q59.85 -91.5 64.15 -90.45 L57.65 -89.35 54.9 -89.7 M54.5 -92.75 L54.2 -95.35 61.3 -94.3 60.35 -93.45 62.05 -91.9 54.5 -92.75 M75.1 -88.0 L75.15 -86.85 75.15 -86.6 Q75.15 -85.05 74.0 -83.7 L72.95 -82.75 71.85 -82.05 Q73.3 -84.1 74.4 -86.45 L75.1 -88.0 M70.55 -80.3 Q71.4 -80.65 72.05 -81.05 71.15 -79.9 69.35 -78.9 L70.55 -80.3 M36.9 -90.55 L40.35 -91.2 40.35 -89.8 36.9 -90.55 M27.75 -78.55 Q23.2 -80.7 23.25 -83.7 L23.25 -83.95 Q23.15 -85.15 23.9 -86.2 25.35 -83.25 27.7 -80.2 L27.75 -80.1 27.75 -78.55" fill="#734d22" fill-rule="evenodd" stroke="none"/>
    <path d="M40.7 -175.25 L40.6 -175.55 Q40.4 -176.5 40.95 -177.4 41.5 -178.2 42.5 -178.45 43.5 -178.65 44.3 -178.1 L45.2 -177.15 45.35 -176.6 45.65 -175.3 45.9 -174.3 46.3 -172.5 46.5 -171.6 47.0 -172.55 47.65 -174.05 47.95 -174.75 48.35 -175.65 48.75 -176.2 49.7 -176.9 51.55 -176.8 Q52.45 -176.35 52.8 -175.45 53.15 -174.5 52.75 -173.6 L52.15 -172.2 51.6 -171.1 50.2 -168.05 50.1 -167.75 49.45 -166.95 Q49.1 -166.65 48.7 -166.5 L46.85 -166.6 Q46.15 -166.9 45.8 -167.45 45.4 -167.2 45.0 -167.1 43.95 -166.95 43.15 -167.45 L42.75 -167.75 42.7 -167.6 Q42.5 -166.65 41.75 -166.05 41.15 -165.65 40.55 -165.6 L39.9 -165.65 39.65 -165.7 Q38.8 -165.95 38.35 -166.65 L38.15 -166.95 37.55 -167.75 36.6 -169.1 35.4 -170.75 Q34.85 -171.65 35.0 -172.6 35.2 -173.6 36.05 -174.15 36.85 -174.75 37.85 -174.55 38.6 -174.4 39.15 -173.85 L39.4 -173.55 40.1 -172.5 41.7 -170.3 41.85 -170.15 41.8 -170.35 41.1 -173.35 40.7 -175.25 M44.55 -175.8 L44.45 -176.35 43.75 -177.3 42.7 -177.5 Q42.1 -177.4 41.8 -176.85 41.45 -176.35 41.6 -175.75 L41.7 -175.25 42.3 -172.4 43.05 -169.15 Q43.15 -168.65 43.65 -168.3 44.15 -167.95 44.8 -168.05 L45.65 -168.75 Q46.0 -169.2 45.9 -169.8 L45.25 -172.85 44.55 -175.8 M51.75 -173.8 L51.85 -174.0 Q52.1 -174.55 51.9 -175.1 51.7 -175.7 51.15 -175.9 L50.05 -175.95 Q49.45 -175.75 49.2 -175.2 L49.15 -175.1 47.95 -172.35 46.55 -169.35 Q46.3 -168.85 46.5 -168.3 46.7 -167.7 47.25 -167.45 L48.35 -167.4 Q48.9 -167.6 49.15 -168.15 L50.35 -170.65 51.75 -173.8 M53.15 -104.05 Q61.75 -103.8 68.05 -101.8 L68.05 -101.75 68.15 -101.7 67.55 -100.95 Q61.45 -102.85 53.25 -103.1 L53.15 -104.05 M75.6 -89.4 Q76.25 -88.2 76.1 -86.85 L76.15 -86.6 Q76.3 -84.15 73.85 -82.25 72.95 -79.1 67.3 -76.95 L69.35 -78.9 Q71.15 -79.9 72.05 -81.05 71.4 -80.65 70.55 -80.3 L71.15 -81.05 71.85 -82.05 72.95 -82.75 74.0 -83.7 Q75.15 -85.05 75.15 -86.6 L75.15 -86.85 75.1 -88.0 75.2 -88.35 75.6 -89.4 M31.2 -76.2 L30.85 -76.3 30.9 -76.3 Q29.15 -76.9 27.75 -77.45 22.1 -80.05 22.35 -83.7 L22.35 -83.95 Q22.15 -85.75 23.4 -87.3 L23.9 -86.2 Q23.15 -85.15 23.25 -83.95 L23.25 -83.7 Q23.2 -80.7 27.75 -78.55 28.65 -78.1 29.7 -77.7 L31.2 -76.2 M23.15 -87.75 Q22.75 -88.45 22.6 -89.2 L22.9 -88.35 23.15 -87.75 M30.8 -100.75 L33.45 -101.75 33.5 -101.8 Q37.55 -103.1 42.55 -103.65 31.35 -114.3 32.0 -131.0 33.75 -128.8 37.05 -129.8 37.0 -117.8 44.0 -109.45 L44.35 -106.2 46.05 -88.15 43.95 -88.35 41.2 -88.7 38.1 -89.25 35.05 -90.05 34.6 -90.2 33.45 -90.55 33.35 -90.6 33.85 -90.75 34.85 -91.1 35.05 -91.05 40.35 -92.2 42.5 -92.5 42.5 -95.35 40.6 -95.15 39.4 -95.0 36.65 -94.45 35.7 -95.35 38.35 -95.85 40.6 -96.15 40.6 -98.45 34.85 -97.15 34.2 -96.9 33.45 -97.7 34.6 -98.05 Q38.35 -99.3 43.0 -99.75 L43.0 -102.75 Q37.9 -102.15 33.75 -100.85 L31.4 -99.95 30.8 -100.75 M34.25 -144.8 Q35.75 -150.3 38.3 -156.3 40.35 -152.85 40.55 -152.8 L41.3 -150.7 Q40.0 -147.2 39.1 -143.85 L38.3 -144.5 Q39.0 -147.15 40.0 -149.9 L37.85 -152.55 Q36.35 -148.7 35.3 -145.0 L34.25 -144.8 M37.8 -169.1 L39.15 -167.2 Q39.45 -166.75 40.1 -166.6 40.65 -166.5 41.15 -166.85 41.65 -167.15 41.8 -167.75 41.85 -168.4 41.55 -168.85 L39.9 -171.2 38.6 -173.0 38.55 -173.05 37.7 -173.6 Q37.05 -173.75 36.6 -173.35 36.1 -173.05 36.0 -172.4 35.85 -171.85 36.25 -171.35 L36.4 -171.1 37.8 -169.1 M46.3 -85.25 L46.4 -84.25 43.95 -84.45 42.1 -84.65 41.6 -84.7 Q36.4 -85.25 32.2 -86.55 L31.65 -86.75 30.25 -87.25 29.6 -87.55 28.75 -87.9 28.5 -88.05 28.0 -88.7 27.55 -89.3 26.95 -90.2 26.25 -91.25 24.95 -93.4 24.95 -93.5 25.4 -93.1 26.15 -92.45 26.75 -91.4 27.4 -90.7 Q28.35 -89.75 29.95 -88.95 L30.35 -88.75 30.95 -88.45 32.25 -87.95 33.75 -87.45 33.8 -87.4 Q37.6 -86.2 42.25 -85.65 L43.95 -85.45 46.3 -85.25 M46.55 -81.5 L46.55 -80.75 46.55 -80.55 43.5 -80.65 41.6 -80.8 35.4 -81.7 33.4 -83.15 41.6 -81.8 46.55 -81.5 M36.1 -127.6 L33.0 -127.7 Q33.45 -114.45 42.15 -105.45 L42.7 -109.45 Q36.6 -117.05 36.1 -127.6 M53.75 -99.2 L53.65 -100.15 57.85 -99.85 65.45 -98.5 64.5 -97.5 57.4 -98.95 53.75 -99.2 M69.0 -87.8 L69.65 -88.05 68.4 -86.6 68.05 -86.5 66.6 -86.05 Q61.7 -84.7 55.55 -84.3 L55.45 -85.3 Q60.25 -85.6 64.3 -86.45 L66.6 -87.05 67.8 -87.45 69.0 -87.8 M65.5 -83.8 L63.2 -82.05 59.15 -81.3 55.95 -80.9 55.85 -81.85 59.3 -82.35 Q62.6 -82.85 65.4 -83.8 L65.5 -83.8 M55.1 -88.15 L54.9 -89.7 57.65 -89.35 64.15 -90.45 Q59.85 -91.5 54.65 -91.8 L54.5 -92.75 62.05 -91.9 Q63.05 -91.15 64.3 -90.75 L67.6 -90.45 67.5 -90.4 66.9 -90.2 66.0 -89.9 60.9 -88.8 57.65 -88.35 55.1 -88.15 M54.2 -95.35 L54.1 -96.3 Q58.5 -96.05 62.15 -95.1 L61.3 -94.3 54.2 -95.35 M36.9 -90.55 L40.35 -89.8 40.35 -91.2 36.9 -90.55" fill="#452e14" fill-rule="evenodd" stroke="none"/>
    <path d="M40.7 -175.25 L41.1 -173.35 40.1 -172.5 39.4 -173.55 39.15 -173.85 40.7 -175.25 M41.8 -170.35 L41.85 -170.15 41.7 -170.3 41.8 -170.35 M36.6 -169.1 L37.55 -167.75 37.2 -166.65 37.15 -166.4 37.5 -161.8 39.5 -156.35 40.15 -160.85 40.1 -160.9 40.1 -161.05 40.05 -161.3 39.8 -162.6 Q39.5 -164.1 39.6 -164.9 L39.65 -165.7 39.9 -165.65 40.55 -165.6 Q40.1 -163.65 41.4 -161.9 43.0 -163.35 45.4 -163.4 47.55 -163.6 49.35 -162.65 49.35 -163.4 49.65 -164.35 49.8 -165.75 49.45 -166.95 L50.1 -167.75 50.2 -168.05 Q51.15 -166.25 51.05 -164.25 51.0 -162.7 50.35 -161.05 L50.65 -158.8 Q50.85 -156.7 50.55 -155.95 52.5 -158.4 53.15 -161.3 L53.2 -161.55 Q53.6 -163.5 53.35 -165.5 52.95 -168.4 51.6 -171.1 L52.15 -172.2 Q54.0 -169.5 54.35 -167.15 54.75 -164.6 54.4 -161.85 53.85 -156.4 49.1 -152.5 49.1 -148.35 49.55 -144.9 51.25 -144.85 52.95 -145.55 54.8 -146.3 56.35 -146.0 58.5 -145.75 60.1 -143.7 L63.7 -143.45 63.8 -143.35 Q64.95 -141.9 64.95 -138.55 64.95 -135.2 62.9 -134.0 L60.9 -133.95 Q59.5 -132.25 57.6 -131.9 L50.45 -131.7 49.9 -131.0 53.15 -104.05 53.25 -103.1 53.65 -100.15 53.75 -99.2 54.1 -96.3 54.2 -95.35 54.5 -92.75 54.65 -91.8 54.9 -89.7 55.1 -88.15 55.45 -85.3 55.55 -84.3 55.85 -81.85 55.95 -80.9 56.0 -80.35 56.45 -79.7 56.9 -79.05 57.25 -78.5 61.75 -81.05 61.85 -81.1 63.2 -82.05 65.5 -83.8 66.6 -84.8 68.4 -86.6 69.65 -88.05 70.1 -88.7 70.6 -89.3 71.2 -90.2 71.85 -91.25 73.25 -93.5 72.75 -93.1 Q71.15 -91.55 69.0 -90.75 L68.9 -90.7 67.7 -90.45 67.6 -90.45 64.3 -90.75 Q63.05 -91.15 62.05 -91.9 L60.35 -93.45 61.3 -94.3 62.15 -95.1 64.5 -97.5 65.45 -98.5 67.55 -100.95 68.15 -101.7 Q73.4 -108.3 78.55 -117.5 L78.85 -118.15 Q82.95 -95.05 77.25 -84.55 L75.95 -90.2 Q76.05 -90.85 75.7 -89.8 L75.6 -89.4 75.2 -88.35 75.1 -88.0 74.4 -86.45 Q73.3 -84.1 71.85 -82.05 L71.15 -81.05 70.55 -80.3 69.35 -78.9 67.3 -76.95 64.25 -74.55 64.15 -74.5 60.0 -71.9 59.75 -71.75 Q59.65 -71.1 59.25 -70.75 58.15 -69.45 56.9 -68.7 L55.6 -68.15 50.6 -68.35 48.4 -69.05 Q37.35 -71.3 34.1 -73.7 32.65 -74.75 31.2 -76.2 L29.7 -77.7 27.75 -80.1 27.7 -80.2 Q25.35 -83.25 23.9 -86.2 L23.4 -87.3 23.15 -87.75 22.9 -88.35 22.6 -89.2 22.45 -89.8 Q22.1 -90.85 22.2 -90.2 L20.85 -84.55 Q15.2 -95.05 19.25 -118.15 24.9 -107.9 30.8 -100.75 L31.4 -99.95 33.45 -97.7 34.2 -96.9 35.7 -95.35 36.65 -94.45 37.8 -93.45 Q36.55 -91.95 34.85 -91.1 L33.85 -90.75 33.35 -90.6 30.35 -90.45 29.25 -90.7 Q27.55 -91.3 26.15 -92.45 L25.4 -93.1 24.95 -93.5 24.9 -93.5 24.95 -93.4 26.25 -91.25 26.95 -90.2 27.55 -89.3 28.0 -88.7 28.5 -88.05 Q30.6 -85.45 33.4 -83.15 L35.4 -81.7 36.4 -81.05 Q37.7 -80.25 43.5 -79.05 L46.45 -78.55 46.55 -79.8 46.5 -79.75 46.55 -80.55 46.55 -80.75 46.55 -81.5 46.4 -84.25 46.3 -85.25 46.05 -88.15 44.35 -106.2 44.0 -109.45 41.85 -130.8 40.2 -132.6 Q39.45 -130.65 37.85 -130.15 L37.05 -129.8 Q33.75 -128.8 32.0 -131.0 L31.35 -132.1 27.3 -132.35 Q26.6 -132.6 25.95 -133.45 23.6 -137.0 24.55 -141.2 L25.1 -142.9 26.05 -143.6 32.05 -143.6 33.95 -144.7 34.25 -144.8 35.3 -145.0 Q36.95 -145.2 38.3 -144.5 L39.1 -143.85 39.25 -143.7 Q40.5 -144.2 41.8 -144.85 42.0 -148.05 41.3 -150.7 L40.55 -152.8 Q40.35 -152.85 38.3 -156.3 L36.85 -158.55 Q34.8 -163.85 36.6 -169.1 M48.75 -176.2 L48.35 -175.65 47.95 -174.75 46.75 -175.35 45.65 -175.3 45.35 -176.6 45.2 -177.15 Q47.05 -177.4 48.3 -176.55 L48.75 -176.2 M45.85 -161.7 Q44.85 -161.7 43.85 -161.05 L43.05 -160.4 Q41.6 -159.25 41.05 -157.95 40.65 -156.95 40.9 -155.9 41.15 -154.65 42.25 -153.25 L42.65 -152.75 Q42.8 -149.75 43.1 -146.85 L43.3 -145.1 48.25 -145.25 47.95 -148.25 47.7 -151.2 45.25 -153.65 Q48.65 -152.4 49.7 -155.8 50.75 -159.25 48.45 -160.85 47.1 -161.75 45.85 -161.7 M39.35 -134.8 Q39.65 -137.7 38.9 -140.65 L38.7 -141.3 38.55 -141.7 37.85 -142.85 Q36.75 -143.95 34.95 -143.75 L33.9 -143.5 33.8 -143.5 33.9 -143.4 34.55 -142.65 34.65 -142.45 35.25 -141.15 Q36.2 -138.95 36.25 -136.7 L36.05 -134.65 Q35.75 -133.0 34.85 -131.3 L37.05 -131.4 Q38.35 -131.9 39.1 -133.3 L39.35 -134.8 M33.65 -142.45 L33.1 -143.1 33.55 -142.15 33.95 -141.05 34.2 -140.35 Q34.7 -138.5 34.6 -136.7 34.45 -134.15 33.1 -131.55 L33.8 -132.35 Q35.1 -134.55 35.35 -136.7 35.55 -138.95 34.5 -141.05 L34.4 -141.25 33.65 -142.45 M33.75 -137.2 L33.7 -137.95 33.15 -140.3 32.85 -141.05 32.2 -142.25 29.65 -142.3 29.8 -141.05 29.95 -137.35 29.6 -133.6 32.1 -132.75 32.45 -132.55 32.85 -133.15 Q33.65 -134.95 33.75 -136.7 L33.75 -137.2 M43.2 -137.3 Q43.35 -140.1 41.45 -141.55 L39.7 -142.55 40.0 -141.35 40.55 -137.45 40.5 -135.4 40.3 -134.15 40.3 -134.05 Q41.05 -132.9 41.25 -132.85 L41.75 -132.55 41.95 -132.5 42.65 -134.55 43.2 -137.3 M29.1 -139.15 L28.85 -140.55 28.55 -141.25 27.7 -142.2 Q26.9 -142.9 25.75 -141.15 L25.4 -138.95 Q24.9 -134.8 28.25 -133.25 28.7 -134.2 28.8 -135.35 29.25 -137.0 29.1 -139.15 M19.8 -116.05 L19.75 -116.2 Q17.2 -100.15 20.75 -87.85 L21.85 -92.6 22.3 -91.9 22.6 -91.4 23.5 -89.8 23.55 -89.75 24.6 -87.5 24.85 -86.95 25.7 -85.3 26.4 -83.95 27.05 -82.8 28.1 -81.3 30.55 -78.55 32.5 -76.8 34.65 -75.3 35.25 -74.9 Q37.35 -73.75 48.05 -70.7 L49.4 -72.65 49.75 -73.95 49.65 -74.95 49.6 -75.0 48.85 -76.35 48.4 -76.9 48.15 -77.1 46.75 -77.1 46.65 -77.1 40.5 -78.5 Q35.6 -79.8 34.05 -81.05 L32.2 -82.5 30.3 -84.1 29.55 -84.85 Q28.6 -85.7 27.95 -86.4 L26.7 -88.1 25.45 -90.35 24.35 -93.05 23.9 -94.2 23.8 -94.45 23.1 -96.3 22.3 -98.6 23.3 -97.05 24.65 -94.95 24.7 -94.9 25.9 -94.0 Q28.1 -92.4 30.35 -91.95 L30.6 -91.9 32.95 -91.85 Q34.75 -92.1 36.5 -93.1 L35.4 -94.15 35.0 -94.5 34.5 -95.05 33.1 -96.5 32.45 -97.25 30.45 -99.55 29.8 -100.3 28.75 -101.6 27.35 -103.45 27.3 -103.55 Q23.0 -109.4 19.8 -116.05 M63.95 -139.5 L63.75 -140.65 Q63.2 -142.75 62.65 -142.9 L61.65 -142.9 61.1 -142.75 60.8 -142.75 61.1 -141.55 61.1 -141.3 61.35 -139.2 Q61.5 -137.35 61.25 -135.4 L62.3 -135.95 Q62.85 -136.25 63.55 -137.45 64.1 -138.2 63.95 -139.5 M55.0 -143.5 L54.1 -143.8 53.35 -143.8 Q56.9 -138.75 54.8 -132.85 L55.15 -133.15 Q58.7 -138.75 55.0 -143.5 M54.45 -138.3 L54.4 -138.85 53.85 -141.05 52.35 -143.5 50.75 -143.45 51.4 -142.1 Q52.25 -140.0 52.2 -137.85 52.15 -135.75 51.2 -133.5 L53.85 -133.1 54.25 -134.7 Q54.7 -136.4 54.45 -138.3 M60.05 -136.1 L60.25 -138.4 Q60.0 -144.0 55.35 -144.5 58.3 -140.6 57.35 -135.7 57.1 -134.25 56.45 -132.7 L56.4 -132.6 Q58.15 -132.95 59.65 -134.35 L60.05 -136.1 M50.0 -134.45 Q51.35 -139.1 48.9 -143.05 L48.8 -143.35 44.25 -143.95 45.3 -142.2 Q47.25 -138.4 45.95 -134.2 L44.8 -131.35 Q47.0 -131.15 49.35 -132.55 L49.7 -133.6 50.0 -134.45 M42.5 -143.45 L41.6 -143.5 42.85 -141.75 43.5 -140.5 Q44.6 -136.05 42.75 -131.65 L43.6 -131.5 44.25 -132.75 Q46.7 -137.35 44.45 -141.85 L44.25 -141.95 43.3 -143.1 Q42.8 -143.15 42.5 -143.45 M49.05 -128.0 L48.85 -130.4 48.85 -130.5 43.2 -130.15 43.9 -122.45 45.3 -108.1 46.7 -91.85 46.9 -89.95 47.05 -88.1 47.2 -85.2 47.3 -84.2 47.5 -81.5 47.55 -80.55 47.55 -78.5 48.5 -77.85 49.25 -77.15 49.5 -76.9 49.6 -76.75 Q50.3 -75.95 50.45 -75.0 L50.45 -74.95 50.6 -73.95 50.6 -73.15 49.7 -70.65 Q52.2 -69.2 54.9 -69.4 L55.35 -69.5 Q56.25 -69.75 56.9 -70.3 57.5 -70.85 57.75 -71.7 L57.9 -72.15 57.8 -74.6 57.6 -75.5 57.0 -77.15 56.45 -78.1 55.9 -78.9 54.7 -80.3 49.05 -128.0 M62.35 -79.7 L61.0 -78.65 59.3 -77.4 58.15 -76.65 58.6 -75.65 59.0 -74.75 59.45 -73.4 Q60.4 -73.6 62.85 -74.9 L63.9 -75.5 64.7 -76.05 66.75 -77.75 67.6 -78.55 68.55 -79.5 69.85 -81.05 71.1 -82.8 73.3 -86.95 74.45 -89.35 74.65 -89.8 74.9 -90.25 75.85 -91.9 76.3 -92.6 77.4 -87.85 Q80.95 -100.15 78.4 -116.2 L78.35 -116.05 78.05 -115.45 74.65 -109.6 71.0 -104.0 69.05 -101.4 68.4 -100.65 66.85 -98.8 66.35 -98.2 65.45 -97.15 63.3 -94.75 62.6 -94.0 61.65 -93.1 Q64.75 -91.3 68.0 -91.95 L69.15 -92.3 Q70.3 -92.7 71.55 -93.45 L72.8 -94.4 73.45 -94.95 75.7 -98.35 75.45 -97.65 75.15 -96.85 75.05 -96.5 73.0 -91.15 72.1 -89.2 71.2 -87.6 Q70.25 -86.35 69.1 -85.2 L68.65 -84.8 66.45 -82.9 62.35 -79.7" fill="#333333" fill-rule="evenodd" stroke="none"/>
    <path d="M41.7 -175.25 L44.55 -175.8 45.25 -172.85 42.3 -172.4 41.7 -175.25 M49.15 -175.1 L51.75 -173.8 50.35 -170.65 47.95 -172.35 49.15 -175.1 M39.9 -171.2 L37.8 -169.1 36.4 -171.1 38.55 -173.05 38.6 -173.0 39.9 -171.2 M43.5 -79.05 Q37.7 -80.25 36.4 -81.05 L35.4 -81.7 41.6 -80.8 43.5 -80.65 43.5 -79.05 M33.4 -83.15 Q30.6 -85.45 28.5 -88.05 L28.75 -87.9 29.6 -87.55 30.25 -87.25 31.65 -86.75 32.2 -86.55 Q36.4 -85.25 41.6 -84.7 L41.6 -81.8 33.4 -83.15 M30.35 -90.45 L33.35 -90.6 33.45 -90.55 34.6 -90.2 35.05 -90.05 38.1 -89.25 41.2 -88.7 43.95 -88.35 43.95 -85.45 42.25 -85.65 Q37.6 -86.2 33.8 -87.4 L33.75 -87.45 32.25 -87.95 30.95 -88.45 30.35 -88.75 30.35 -90.45 M69.0 -90.75 L69.0 -87.8 67.8 -87.45 66.6 -87.05 64.3 -86.45 Q60.25 -85.6 55.45 -85.3 L55.1 -88.15 57.65 -88.35 60.9 -88.8 66.0 -89.9 66.9 -90.2 67.5 -90.4 67.6 -90.45 67.7 -90.45 68.9 -90.7 69.0 -90.75 M66.6 -84.8 L65.5 -83.8 65.4 -83.8 Q62.6 -82.85 59.3 -82.35 L55.85 -81.85 55.55 -84.3 Q61.7 -84.7 66.6 -86.05 L66.6 -84.8 M63.2 -82.05 L61.85 -81.1 61.75 -81.05 57.25 -78.5 56.9 -79.05 56.45 -79.7 56.0 -80.35 55.95 -80.9 59.15 -81.3 63.2 -82.05 M27.75 -78.55 L27.75 -80.1 29.7 -77.7 Q28.65 -78.1 27.75 -78.55" fill="#9b682f" fill-rule="evenodd" stroke="none"/>
    <path d="M47.65 -174.05 L47.0 -172.55 46.3 -172.5 45.9 -174.3 47.65 -174.05 M48.5 -156.85 Q48.5 -156.45 48.0 -155.8 47.35 -154.9 46.35 -154.9 45.05 -154.9 45.05 -157.3 L45.1 -158.3 Q45.35 -159.1 46.6 -159.1 48.5 -159.1 48.5 -156.85 M37.55 -141.75 L37.7 -141.55 38.3 -140.55 39.0 -138.75 Q39.0 -138.15 38.25 -137.5 L37.85 -138.25 37.1 -139.65 36.4 -141.45 Q36.4 -143.6 37.55 -141.75 M31.55 -140.7 Q32.65 -140.6 32.65 -139.6 L32.55 -138.95 Q32.3 -138.3 31.65 -138.3 30.8 -138.3 30.5 -139.65 30.5 -140.8 31.55 -140.7 M28.75 -101.6 L29.7 -100.2 30.15 -99.45 30.45 -98.6 30.25 -97.9 Q29.9 -97.25 29.25 -97.25 L27.95 -98.05 27.35 -98.8 24.85 -102.2 Q21.7 -106.9 21.7 -107.8 L21.75 -108.25 21.85 -108.4 Q23.85 -108.0 27.3 -103.55 L27.35 -103.45 28.75 -101.6 M58.65 -138.1 Q58.2 -138.45 57.8 -139.65 57.5 -140.8 57.5 -141.45 57.5 -143.05 58.45 -141.5 59.4 -139.9 59.4 -139.25 59.4 -138.85 58.65 -138.1 M48.9 -136.5 Q48.3 -136.5 47.75 -138.2 47.35 -139.6 47.35 -140.45 47.35 -142.5 48.65 -140.75 49.95 -139.0 49.95 -138.15 L49.9 -137.3 Q49.7 -136.5 48.9 -136.5 M47.6 -119.75 L47.7 -120.2 47.8 -120.4 Q49.65 -119.6 50.1 -116.4 L50.5 -111.35 51.4 -104.1 51.5 -103.1 51.55 -102.85 51.7 -101.45 52.0 -98.95 52.3 -96.45 52.35 -95.45 52.65 -92.85 52.7 -92.5 52.8 -91.9 53.05 -89.85 53.25 -88.1 53.55 -85.2 53.65 -84.2 53.8 -81.8 53.8 -81.7 53.75 -81.15 53.35 -80.65 52.8 -80.6 52.5 -80.6 Q52.1 -80.8 51.85 -81.55 51.5 -82.45 51.4 -84.15 L51.35 -85.0 51.35 -85.15 51.25 -88.05 51.05 -89.95 50.85 -91.95 50.75 -92.9 50.7 -93.3 50.5 -95.55 50.4 -96.5 50.25 -98.3 50.0 -101.25 49.75 -104.1 48.9 -110.25 48.05 -117.45 47.8 -118.6 47.6 -119.75 M69.6 -100.15 L70.2 -101.0 71.35 -102.45 Q75.3 -107.5 75.9 -107.8 L75.95 -107.15 73.35 -101.6 72.4 -99.95 71.85 -99.15 70.05 -96.85 Q69.3 -96.2 68.7 -96.2 67.45 -96.2 67.45 -97.4 L67.75 -97.8 69.6 -100.15 M53.45 -77.65 L53.5 -77.9 53.55 -78.1 53.65 -78.2 54.85 -78.0 55.45 -77.05 55.5 -76.5 Q55.5 -75.6 54.75 -75.45 54.4 -75.55 53.95 -76.55 L53.75 -76.95 53.45 -77.65" fill="#cccccc" fill-rule="evenodd" stroke="none"/>
    <path d="M41.1 -173.35 L41.8 -170.35 41.7 -170.3 40.1 -172.5 41.1 -173.35 M38.15 -166.95 L38.35 -166.65 Q38.8 -165.95 39.65 -165.7 L39.6 -164.9 Q39.5 -164.1 39.8 -162.6 L40.05 -161.3 39.9 -161.85 39.45 -161.3 38.55 -163.0 Q37.85 -164.7 37.85 -165.3 L38.15 -166.95 M50.2 -168.05 L51.6 -171.1 Q52.95 -168.4 53.35 -165.5 53.6 -163.5 53.2 -161.55 L51.15 -164.15 51.05 -164.25 Q51.15 -166.25 50.2 -168.05 M47.95 -174.75 L47.65 -174.05 45.9 -174.3 45.65 -175.3 46.75 -175.35 47.95 -174.75 M47.0 -172.55 L46.5 -171.6 46.3 -172.5 47.0 -172.55 M45.85 -161.7 Q47.1 -161.75 48.45 -160.85 50.75 -159.25 49.7 -155.8 48.65 -152.4 45.25 -153.65 L47.7 -151.2 47.95 -148.25 45.3 -147.9 Q45.05 -150.0 43.8 -152.15 L43.8 -152.5 43.3 -154.15 43.0 -154.95 Q42.75 -155.6 42.75 -156.3 42.75 -158.0 43.85 -159.55 L45.0 -160.85 45.85 -161.7 M48.5 -156.85 Q48.5 -159.1 46.6 -159.1 45.35 -159.1 45.1 -158.3 L45.05 -157.3 Q45.05 -154.9 46.35 -154.9 47.35 -154.9 48.0 -155.8 48.5 -156.45 48.5 -156.85 M36.05 -134.65 L36.25 -136.7 Q36.2 -138.95 35.25 -141.15 L34.65 -142.45 34.55 -142.65 33.9 -143.4 33.8 -143.5 33.9 -143.5 34.95 -143.75 Q36.75 -143.95 37.85 -142.85 L38.55 -141.7 38.7 -141.3 38.9 -140.65 Q39.65 -137.7 39.35 -134.8 L37.35 -134.9 36.15 -134.7 36.05 -134.65 M29.95 -137.35 L29.8 -141.05 29.65 -142.3 32.2 -142.25 32.85 -141.05 33.15 -140.3 33.7 -137.95 33.75 -137.2 33.6 -137.2 32.65 -137.35 30.75 -137.4 29.95 -137.35 M31.55 -140.7 Q30.5 -140.8 30.5 -139.65 30.8 -138.3 31.65 -138.3 32.3 -138.3 32.55 -138.95 L32.65 -139.6 Q32.65 -140.6 31.55 -140.7 M37.55 -141.75 Q36.4 -143.6 36.4 -141.45 L37.1 -139.65 37.85 -138.25 38.25 -137.5 Q39.0 -138.15 39.0 -138.75 L38.3 -140.55 37.7 -141.55 37.55 -141.75 M40.55 -137.45 L40.0 -141.35 39.7 -142.55 41.45 -141.55 Q43.35 -140.1 43.2 -137.3 L40.9 -137.5 40.55 -137.45 M49.6 -75.0 L49.4 -74.95 48.95 -74.85 47.6 -74.55 41.45 -75.25 41.35 -75.25 Q36.6 -76.35 32.8 -79.3 L30.75 -81.05 29.85 -81.95 28.15 -83.95 27.0 -85.65 26.35 -86.55 Q24.75 -89.15 23.65 -91.75 L23.1 -93.1 Q22.1 -95.95 21.6 -98.85 L19.4 -112.35 19.8 -115.85 19.8 -116.05 Q23.0 -109.4 27.3 -103.55 23.85 -108.0 21.85 -108.4 L21.75 -108.25 21.7 -107.8 Q21.7 -106.9 24.85 -102.2 L27.35 -98.8 27.95 -98.05 29.25 -97.25 Q29.9 -97.25 30.25 -97.9 L30.45 -98.6 30.15 -99.45 29.7 -100.2 28.75 -101.6 29.8 -100.3 30.45 -99.55 32.45 -97.25 33.1 -96.5 34.5 -95.05 35.0 -94.5 31.55 -94.15 31.35 -94.15 29.85 -94.5 29.0 -94.85 Q27.85 -95.3 26.25 -96.05 L26.0 -96.2 25.35 -96.45 23.3 -97.05 22.3 -98.6 23.1 -96.3 23.8 -94.45 23.9 -94.2 24.35 -93.05 25.45 -90.35 26.7 -88.1 27.95 -86.4 Q28.6 -85.7 29.55 -84.85 L30.3 -84.1 32.2 -82.5 34.05 -81.05 Q35.6 -79.8 40.5 -78.5 L46.65 -77.1 46.75 -77.1 48.15 -77.1 48.4 -76.9 48.85 -76.35 49.6 -75.0 M61.35 -139.2 L61.1 -141.3 61.1 -141.55 60.8 -142.75 61.1 -142.75 61.65 -142.9 62.65 -142.9 Q63.2 -142.75 63.75 -140.65 L63.95 -139.5 62.5 -139.4 61.35 -139.2 M52.2 -137.85 Q52.25 -140.0 51.4 -142.1 L50.75 -143.45 52.35 -143.5 53.85 -141.05 54.4 -138.85 54.45 -138.3 52.65 -138.0 52.2 -137.85 M58.65 -138.1 Q59.4 -138.85 59.4 -139.25 59.4 -139.9 58.45 -141.5 57.5 -143.05 57.5 -141.45 57.5 -140.8 57.8 -139.65 58.2 -138.45 58.65 -138.1 M57.35 -135.7 Q58.3 -140.6 55.35 -144.5 60.0 -144.0 60.25 -138.4 L60.05 -136.1 57.55 -135.75 57.35 -135.7 M45.95 -134.2 Q47.25 -138.4 45.3 -142.2 L44.25 -143.95 48.8 -143.35 48.9 -143.05 Q51.35 -139.1 50.0 -134.45 L47.55 -134.4 45.95 -134.2 M48.9 -136.5 Q49.7 -136.5 49.9 -137.3 L49.95 -138.15 Q49.95 -139.0 48.65 -140.75 47.35 -142.5 47.35 -140.45 47.35 -139.6 47.75 -138.2 48.3 -136.5 48.9 -136.5 M57.9 -72.15 L53.3 -71.9 Q52.7 -72.9 52.35 -74.05 L52.0 -75.05 51.85 -75.55 51.35 -76.9 50.6 -77.85 49.5 -78.75 45.6 -124.85 49.05 -128.0 54.7 -80.3 55.9 -78.9 56.45 -78.1 57.0 -77.15 57.6 -75.5 57.8 -74.6 57.9 -72.15 M47.6 -119.75 L47.8 -118.6 48.05 -117.45 48.9 -110.25 49.75 -104.1 50.0 -101.25 50.25 -98.3 50.4 -96.5 50.5 -95.55 50.7 -93.3 50.75 -92.9 50.85 -91.95 51.05 -89.95 51.25 -88.05 51.35 -85.15 51.35 -85.0 51.4 -84.15 Q51.5 -82.45 51.85 -81.55 52.1 -80.8 52.5 -80.6 L52.8 -80.6 53.35 -80.65 53.75 -81.15 53.8 -81.7 53.8 -81.8 53.65 -84.2 53.55 -85.2 53.25 -88.1 53.05 -89.85 52.8 -91.9 52.7 -92.5 52.65 -92.85 52.35 -95.45 52.3 -96.45 52.0 -98.95 51.7 -101.45 51.55 -102.85 51.5 -103.1 51.4 -104.1 50.5 -111.35 50.1 -116.4 Q49.65 -119.6 47.8 -120.4 L47.7 -120.2 47.6 -119.75 M62.35 -79.7 L66.45 -82.9 68.65 -84.8 69.1 -85.2 Q70.25 -86.35 71.2 -87.6 L72.1 -89.2 73.0 -91.15 75.05 -96.5 75.15 -96.85 75.45 -97.65 75.7 -98.35 Q75.25 -98.9 74.55 -98.55 L74.2 -98.4 73.6 -98.0 70.95 -96.35 69.55 -95.5 69.0 -95.15 Q67.85 -94.45 66.55 -94.15 L65.7 -94.0 62.85 -94.25 62.6 -94.0 63.3 -94.75 65.45 -97.15 66.35 -98.2 66.85 -98.8 68.4 -100.65 69.05 -101.4 71.0 -104.0 74.65 -109.6 78.05 -115.45 77.65 -109.75 76.7 -98.6 76.35 -96.8 76.25 -96.4 75.65 -94.65 75.55 -94.45 73.6 -90.2 72.55 -88.3 71.6 -86.85 71.1 -86.1 69.7 -84.1 68.5 -82.65 68.2 -82.35 66.0 -79.7 64.7 -78.4 63.3 -77.05 62.35 -79.7 M69.6 -100.15 L67.75 -97.8 67.45 -97.4 Q67.45 -96.2 68.7 -96.2 69.3 -96.2 70.05 -96.85 L71.85 -99.15 72.4 -99.95 73.35 -101.6 75.95 -107.15 75.9 -107.8 Q75.3 -107.5 71.35 -102.45 L70.2 -101.0 69.6 -100.15 M53.45 -77.65 L53.75 -76.95 53.95 -76.55 Q54.4 -75.55 54.75 -75.45 55.5 -75.6 55.5 -76.5 L55.45 -77.05 54.85 -78.0 53.65 -78.2 53.55 -78.1 53.5 -77.9 53.45 -77.65" fill="#a2a2a2" fill-rule="evenodd" stroke="none"/>
    <path d="M37.55 -167.75 L38.15 -166.95 37.85 -165.3 Q37.85 -164.7 38.55 -163.0 L39.45 -161.3 39.9 -161.85 40.05 -161.3 40.1 -161.05 40.1 -160.9 40.15 -160.85 39.5 -156.35 37.5 -161.8 37.15 -166.4 37.2 -166.65 37.55 -167.75 M53.2 -161.55 L53.15 -161.3 Q52.5 -158.4 50.55 -155.95 50.85 -156.7 50.65 -158.8 L50.35 -161.05 Q51.0 -162.7 51.05 -164.25 L51.15 -164.15 53.2 -161.55 M47.95 -148.25 L48.25 -145.25 43.3 -145.1 43.1 -146.85 Q42.8 -149.75 42.65 -152.75 L42.25 -153.25 Q41.15 -154.65 40.9 -155.9 40.65 -156.95 41.05 -157.95 41.6 -159.25 43.05 -160.4 L43.85 -161.05 Q44.85 -161.7 45.85 -161.7 L45.0 -160.85 43.85 -159.55 Q42.75 -158.0 42.75 -156.3 42.75 -155.6 43.0 -154.95 L43.3 -154.15 43.8 -152.5 43.8 -152.15 Q45.05 -150.0 45.3 -147.9 L47.95 -148.25 M39.35 -134.8 L39.1 -133.3 Q38.35 -131.9 37.05 -131.4 L34.85 -131.3 Q35.75 -133.0 36.05 -134.65 L36.15 -134.7 37.35 -134.9 39.35 -134.8 M33.65 -142.45 L34.4 -141.25 34.5 -141.05 Q35.55 -138.95 35.35 -136.7 35.1 -134.55 33.8 -132.35 L33.1 -131.55 Q34.45 -134.15 34.6 -136.7 34.7 -138.5 34.2 -140.35 L33.95 -141.05 33.55 -142.15 33.1 -143.1 33.65 -142.45 M33.75 -137.2 L33.75 -136.7 Q33.65 -134.95 32.85 -133.15 L32.45 -132.55 32.1 -132.75 29.6 -133.6 29.95 -137.35 30.75 -137.4 32.65 -137.35 33.6 -137.2 33.75 -137.2 M43.2 -137.3 L42.65 -134.55 41.95 -132.5 41.75 -132.55 41.25 -132.85 Q41.05 -132.9 40.3 -134.05 L40.3 -134.15 40.5 -135.4 40.55 -137.45 40.9 -137.5 43.2 -137.3 M29.1 -139.15 Q29.25 -137.0 28.8 -135.35 28.7 -134.2 28.25 -133.25 24.9 -134.8 25.4 -138.95 L25.75 -141.15 Q26.9 -142.9 27.7 -142.2 L28.55 -141.25 28.85 -140.55 29.1 -139.15 M19.8 -116.05 L19.8 -115.85 19.4 -112.35 21.6 -98.85 Q22.1 -95.95 23.1 -93.1 L23.65 -91.75 Q24.75 -89.15 26.35 -86.55 L27.0 -85.65 28.15 -83.95 29.85 -81.95 30.75 -81.05 32.8 -79.3 Q36.6 -76.35 41.35 -75.25 L41.45 -75.25 47.6 -74.55 48.95 -74.85 49.4 -74.95 49.6 -75.0 49.65 -74.95 49.75 -73.95 49.4 -72.65 48.05 -70.7 Q37.35 -73.75 35.25 -74.9 L34.65 -75.3 32.5 -76.8 30.55 -78.55 28.1 -81.3 27.05 -82.8 26.4 -83.95 25.7 -85.3 24.85 -86.95 24.6 -87.5 23.55 -89.75 23.5 -89.8 22.6 -91.4 22.3 -91.9 21.85 -92.6 20.75 -87.85 Q17.2 -100.15 19.75 -116.2 L19.8 -116.05 M23.3 -97.05 L25.35 -96.45 26.0 -96.2 26.25 -96.05 Q27.85 -95.3 29.0 -94.85 L29.85 -94.5 31.35 -94.15 31.55 -94.15 35.0 -94.5 35.4 -94.15 36.5 -93.1 Q34.75 -92.1 32.95 -91.85 L30.6 -91.9 30.35 -91.95 Q28.1 -92.4 25.9 -94.0 L24.7 -94.9 24.65 -94.95 23.3 -97.05 M63.95 -139.5 Q64.1 -138.2 63.55 -137.45 62.85 -136.25 62.3 -135.95 L61.25 -135.4 Q61.5 -137.35 61.35 -139.2 L62.5 -139.4 63.95 -139.5 M55.0 -143.5 Q58.7 -138.75 55.15 -133.15 L54.8 -132.85 Q56.9 -138.75 53.35 -143.8 L54.1 -143.8 55.0 -143.5 M54.45 -138.3 Q54.7 -136.4 54.25 -134.7 L53.85 -133.1 51.2 -133.5 Q52.15 -135.75 52.2 -137.85 L52.65 -138.0 54.45 -138.3 M60.05 -136.1 L59.65 -134.35 Q58.15 -132.95 56.4 -132.6 L56.45 -132.7 Q57.1 -134.25 57.35 -135.7 L57.55 -135.75 60.05 -136.1 M50.0 -134.45 L49.7 -133.6 49.35 -132.55 Q47.0 -131.15 44.8 -131.35 L45.95 -134.2 47.55 -134.4 50.0 -134.45 M42.5 -143.45 Q42.8 -143.15 43.3 -143.1 L44.25 -141.95 44.45 -141.85 Q46.7 -137.35 44.25 -132.75 L43.6 -131.5 42.75 -131.65 Q44.6 -136.05 43.5 -140.5 L42.85 -141.75 41.6 -143.5 42.5 -143.45 M57.9 -72.15 L57.75 -71.7 Q57.5 -70.85 56.9 -70.3 56.25 -69.75 55.35 -69.5 L54.9 -69.4 Q52.2 -69.2 49.7 -70.65 L50.6 -73.15 50.6 -73.95 50.45 -74.95 50.45 -75.0 Q50.3 -75.95 49.6 -76.75 L49.5 -76.9 49.25 -77.15 48.5 -77.85 47.55 -78.5 47.55 -80.55 47.5 -81.5 47.3 -84.2 47.2 -85.2 47.05 -88.1 46.9 -89.95 46.7 -91.85 45.3 -108.1 43.9 -122.45 43.2 -130.15 48.85 -130.5 48.85 -130.4 49.05 -128.0 45.6 -124.85 49.5 -78.75 50.6 -77.85 51.35 -76.9 51.85 -75.55 52.0 -75.05 52.35 -74.05 Q52.7 -72.9 53.3 -71.9 L57.9 -72.15 M78.05 -115.45 L78.35 -116.05 78.4 -116.2 Q80.95 -100.15 77.4 -87.85 L76.3 -92.6 75.85 -91.9 74.9 -90.25 74.65 -89.8 74.45 -89.35 73.3 -86.95 71.1 -82.8 69.85 -81.05 68.55 -79.5 67.6 -78.55 66.75 -77.75 64.7 -76.05 63.9 -75.5 62.85 -74.9 Q60.4 -73.6 59.45 -73.4 L59.0 -74.75 58.6 -75.65 58.15 -76.65 59.3 -77.4 61.0 -78.65 62.35 -79.7 63.3 -77.05 64.7 -78.4 66.0 -79.7 68.2 -82.35 68.5 -82.65 69.7 -84.1 71.1 -86.1 71.6 -86.85 72.55 -88.3 73.6 -90.2 75.55 -94.45 75.65 -94.65 76.25 -96.4 76.35 -96.8 76.7 -98.6 77.65 -109.75 78.05 -115.45 M75.7 -98.35 L73.45 -94.95 72.8 -94.4 71.55 -93.45 Q70.3 -92.7 69.15 -92.3 L68.0 -91.95 Q64.75 -91.3 61.65 -93.1 L62.6 -94.0 62.85 -94.25 65.7 -94.0 66.55 -94.15 Q67.85 -94.45 69.0 -95.15 L69.55 -95.5 70.95 -96.35 73.6 -98.0 74.2 -98.4 74.55 -98.55 Q75.25 -98.9 75.7 -98.35" fill="#747474" fill-rule="evenodd" stroke="none"/>
  </g>
</svg>
