<?xml version="1.0" encoding="UTF-8" standalone="no"?>
<svg xmlns:ffdec="https://www.free-decompiler.com/flash" xmlns:xlink="http://www.w3.org/1999/xlink" ffdec:objectType="shape" height="17.7px" width="19.1px" xmlns="http://www.w3.org/2000/svg">
  <g transform="matrix(1.0, 0.0, 0.0, 1.0, 8.25, -1.45)">
    <path d="M5.6 2.1 Q6.55 2.05 8.1 2.8 10.15 3.8 10.15 5.45 L9.85 6.25 Q9.5 6.55 9.5 6.85 L6.55 7.05 1.2 6.4 4.6 7.5 Q2.6 7.7 2.1 7.1 1.5 6.4 -0.05 6.4 -3.5 6.4 -5.4 8.8 -6.45 10.1 -7.5 12.1 L-7.7 11.55 Q-6.95 6.35 -6.25 5.2 -4.6 2.55 0.25 3.35 1.75 3.6 5.6 2.1 M-4.2 8.45 L-4.45 9.35 -4.85 13.0 -4.9 15.2 -5.1 15.15 Q-5.85 14.1 -5.85 12.55 L-5.65 10.85 Q-5.25 9.15 -4.2 8.45 M-3.5 8.5 Q-3.25 8.15 -2.8 8.05 -2.7 8.3 -2.9 8.75 L-3.25 9.25 -3.4 9.05 -3.5 8.5" fill="#2d251e" fill-rule="evenodd" stroke="none"/>
    <path d="M5.6 2.1 Q1.75 3.6 0.25 3.35 -4.6 2.55 -6.25 5.2 -6.95 6.35 -7.7 11.55 L-7.5 12.1 Q-6.45 10.1 -5.4 8.8 -3.5 6.4 -0.05 6.4 1.5 6.4 2.1 7.1 2.6 7.7 4.6 7.5 L1.2 6.4 6.55 7.05 9.5 6.85 Q9.5 6.55 9.85 6.25 L10.15 5.45 Q10.15 3.8 8.1 2.8 6.55 2.05 5.6 2.1 M4.35 10.0 L-0.05 9.4 Q-2.05 9.4 -2.95 12.75 -3.7 15.6 -3.25 17.9 L-3.1 19.15 Q-6.3 17.85 -6.75 13.85 L-6.9 14.5 -7.1 14.65 -7.85 12.25 Q-8.25 10.6 -8.25 9.55 -8.25 6.3 -7.65 4.7 -6.8 2.55 -4.6 2.05 L6.95 1.45 Q10.0 1.45 10.65 4.75 11.25 7.8 9.9 8.95 8.25 10.35 4.35 10.0 M-3.5 8.5 L-3.4 9.05 -3.25 9.25 -2.9 8.75 Q-2.7 8.3 -2.8 8.05 -3.25 8.15 -3.5 8.5 M-4.2 8.45 Q-5.25 9.15 -5.65 10.85 L-5.85 12.55 Q-5.85 14.1 -5.1 15.15 L-4.9 15.2 -4.85 13.0 -4.45 9.35 -4.2 8.45" fill="#16120e" fill-rule="evenodd" stroke="none"/>
  </g>
</svg>
