<?xml version="1.0" encoding="UTF-8" standalone="no"?>
<svg xmlns:ffdec="https://www.free-decompiler.com/flash" xmlns:xlink="http://www.w3.org/1999/xlink" ffdec:objectType="shape" height="46.9px" width="38.05px" xmlns="http://www.w3.org/2000/svg">
  <g transform="matrix(1.0, 0.0, 0.0, 1.0, 17.45, 25.75)">
    <path d="M-3.1 3.75 L-5.3 8.5 -7.3 13.0 Q-7.95 8.15 -6.05 2.75 -4.95 -0.35 -3.8 -2.1 -2.75 3.05 -3.1 3.75" fill="#360c05" fill-rule="evenodd" stroke="none"/>
    <path d="M5.35 -7.3 Q13.55 -5.1 17.65 -0.85 20.6 2.25 20.6 5.1 20.6 12.25 17.65 17.0 15.1 21.15 12.15 21.15 11.3 21.15 10.35 20.2 9.0 18.85 5.6 14.25 L3.8 11.75 -4.85 20.15 -6.05 19.0 Q-1.85 13.95 4.35 8.7 7.5 6.05 8.55 1.7 L8.55 1.55 Q9.4 -2.75 5.9 -5.15 L5.35 -7.3 M-7.3 13.0 Q-7.15 14.3 -9.05 17.8 L-9.1 12.7 -16.05 19.45 -17.1 19.4 Q-18.8 14.2 -12.0 4.6 -8.55 -0.25 -4.4 -4.45 L-3.8 -2.1 Q-4.95 -0.35 -6.05 2.75 -7.95 8.15 -7.3 13.0 M10.45 -3.1 L10.6 -1.7 Q10.9 3.55 8.6 6.9 7.35 8.65 5.2 10.35 L11.5 19.05 Q13.85 18.5 15.95 15.25 18.5 11.35 18.5 6.05 18.5 3.05 16.75 1.15 15.2 -0.55 10.45 -3.1 M-8.95 7.55 Q-9.2 3.9 -8.25 2.2 -10.95 5.4 -13.1 9.85 -15.1 13.9 -15.1 15.65 -9.55 11.4 -8.95 7.55" fill="#430e06" fill-rule="evenodd" stroke="none"/>
    <path d="M5.6 14.25 Q3.55 16.65 1.15 17.7 L-4.85 20.15 3.8 11.75 5.6 14.25 M10.45 -3.1 Q15.2 -0.55 16.75 1.15 18.5 3.05 18.5 6.05 18.5 11.35 15.95 15.25 13.85 18.5 11.5 19.05 L5.2 10.35 Q7.35 8.65 8.6 6.9 10.9 3.55 10.6 -1.7 L10.45 -3.1 M-8.95 7.55 Q-9.55 11.4 -15.1 15.65 -15.1 13.9 -13.1 9.85 -10.95 5.4 -8.25 2.2 -9.2 3.9 -8.95 7.55" fill="#782727" fill-rule="evenodd" stroke="none"/>
    <path d="M-4.4 -4.45 Q-5.85 -9.35 -7.55 -12.85 L-10.55 -18.2 Q-12.55 -21.65 -12.55 -22.2 L-12.3 -23.0 -11.9 -23.1 Q-5.8 -25.4 -1.55 -25.75 1.55 -25.75 3.0 -23.65 4.15 -22.0 4.15 -19.3 4.15 -18.25 4.5 -14.45 4.9 -9.85 5.35 -7.3 L5.9 -5.15 5.9 -5.1 5.95 -4.95 Q6.55 -0.2 8.55 1.55 L8.55 1.7 Q7.9 2.6 7.45 3.85 L7.05 2.8 7.0 2.7 7.0 2.8 7.1 3.0 7.2 3.4 7.4 4.8 Q7.05 3.5 6.8 3.7 L6.7 3.75 Q4.55 1.6 3.8 -2.7 L2.45 -13.05 Q2.2 -16.55 2.55 -20.95 2.55 -22.65 0.55 -23.35 L-1.6 -23.75 Q-2.65 -23.75 -10.1 -21.55 L-4.7 -11.65 Q-2.85 -5.25 -2.25 -0.1 -2.05 1.45 -1.95 5.15 -2.45 5.15 -2.75 4.75 -3.1 4.35 -3.1 3.75 -2.75 3.05 -3.8 -2.1 L-4.4 -4.45" fill="#5c4730" fill-rule="evenodd" stroke="none"/>
    <path d="M-4.7 -11.65 L-10.1 -21.55 Q-2.65 -23.75 -1.6 -23.75 L0.55 -23.35 Q2.55 -22.65 2.55 -20.95 2.2 -16.55 2.45 -13.05 L-0.3 -12.05 Q-2.75 -11.3 -4.7 -11.65" fill="#a76d4b" fill-rule="evenodd" stroke="none"/>
    <path d="M6.7 3.75 L6.05 4.1 Q2.35 5.8 0.4 5.8 -1.0 5.8 -1.0 5.0 L-0.95 5.5 -1.1 5.4 -1.15 5.7 -1.3 5.5 -1.95 5.15 Q-2.05 1.45 -2.25 -0.1 -2.85 -5.25 -4.7 -11.65 -2.75 -11.3 -0.3 -12.05 L2.45 -13.05 3.8 -2.7 Q4.55 1.6 6.7 3.75" fill="#c18753" fill-rule="evenodd" stroke="none"/>
    <path d="M7.05 2.8 L7.1 3.0 7.0 2.8 7.0 2.7 7.05 2.8" fill="#ffcc99" fill-rule="evenodd" stroke="none"/>
  </g>
</svg>
