<?xml version="1.0" encoding="UTF-8" standalone="no"?>
<svg xmlns:ffdec="https://www.free-decompiler.com/flash" xmlns:xlink="http://www.w3.org/1999/xlink" ffdec:objectType="shape" height="112.2px" width="127.0px" xmlns="http://www.w3.org/2000/svg">
  <g transform="matrix(1.0, 0.0, 0.0, 1.0, 0.0, 112.2)">
    <path d="M81.85 -109.75 Q81.35 -109.45 80.65 -109.45 79.95 -109.45 79.5 -109.75 L79.3 -109.9 79.1 -110.3 79.5 -110.85 Q79.95 -111.2 80.65 -111.2 81.35 -111.2 81.85 -110.85 L82.2 -110.3 81.85 -109.75 M83.1 -105.35 Q83.1 -104.8 82.35 -104.4 81.65 -104.0 80.6 -104.0 L78.8 -104.4 Q78.1 -104.8 78.1 -105.35 78.1 -105.9 78.8 -106.3 L80.6 -106.7 Q81.65 -106.7 82.35 -106.3 83.1 -105.9 83.1 -105.35 M71.1 -106.5 L69.7 -100.75 52.95 -100.75 54.9 -106.5 71.1 -106.5 M73.8 -92.35 L72.6 -92.35 72.6 -93.45 73.8 -93.45 73.8 -92.35 M67.55 -87.75 L67.5 -86.4 67.45 -85.35 66.85 -79.5 55.7 -79.5 Q55.0 -82.45 54.75 -85.3 L54.65 -86.4 54.6 -87.75 59.95 -87.3 67.55 -87.75 M5.65 -79.0 L2.45 -68.15 Q1.05 -63.15 6.05 -63.15 L112.4 -63.15 Q117.4 -63.15 118.8 -68.15 L122.0 -79.0 124.45 -87.35 Q125.9 -92.35 120.9 -92.35 L87.55 -92.35 87.55 -93.45 122.5 -93.45 Q127.5 -93.45 125.9 -88.45 L118.65 -65.1 Q116.85 -62.05 112.95 -62.05 L4.65 -62.05 Q-0.35 -62.05 1.1 -67.05 L7.1 -88.45 Q8.65 -93.45 13.65 -93.45 L39.55 -93.45 39.55 -92.35 14.55 -92.35 Q9.55 -92.35 8.1 -87.35 L5.65 -79.0 M51.35 -92.35 L51.35 -93.45 52.45 -93.45 52.45 -92.35 51.35 -92.35 M42.15 -79.85 L40.55 -80.7 40.55 -90.75 42.15 -90.05 42.15 -79.85 M49.3 -90.25 L50.35 -90.75 50.35 -80.75 49.3 -80.1 49.3 -90.25 M117.0 -56.35 L3.35 -56.15 2.65 -57.65 117.0 -57.7 117.0 -56.35 M117.0 -58.75 L3.15 -58.85 2.65 -60.15 117.0 -60.15 117.0 -58.75" fill="#dddddd" fill-rule="evenodd" stroke="none"/>
    <path d="M82.55 -109.05 L82.4 -108.95 Q81.3 -108.45 80.65 -108.45 L79.55 -108.7 78.9 -108.95 78.8 -109.05 Q77.45 -108.75 76.4 -108.0 L76.45 -108.0 Q74.8 -106.7 74.75 -104.85 L74.75 -104.0 74.8 -103.95 Q74.95 -103.7 76.05 -103.1 L77.4 -102.45 80.65 -102.05 Q82.9 -102.05 84.55 -102.7 L85.5 -103.2 86.5 -103.95 86.55 -104.0 86.55 -104.85 Q86.5 -106.7 84.85 -108.0 83.8 -108.75 82.55 -109.05 M81.85 -109.75 L82.2 -110.3 81.85 -110.85 Q81.35 -111.2 80.65 -111.2 79.95 -111.2 79.5 -110.85 L79.1 -110.3 79.3 -109.9 79.5 -109.75 Q79.95 -109.45 80.65 -109.45 81.35 -109.45 81.85 -109.75 M83.15 -109.95 Q84.4 -109.6 85.45 -108.8 87.5 -107.2 87.55 -104.85 L87.55 -94.05 123.2 -94.05 Q127.85 -94.05 126.8 -89.75 L126.8 -80.6 126.3 -78.8 Q127.35 -75.4 126.2 -68.5 L125.8 -66.35 126.2 -66.05 Q126.65 -65.6 126.65 -65.0 126.65 -64.4 126.2 -63.95 125.8 -63.5 125.15 -63.5 L124.45 -60.55 122.3 -51.2 Q120.35 -41.1 120.7 -33.85 L121.5 -27.85 Q121.65 -27.25 121.3 -26.7 121.0 -26.2 120.4 -26.05 L119.25 -26.2 118.8 -26.65 117.9 -26.05 116.75 -26.2 Q116.25 -26.55 116.1 -27.15 L115.45 -31.45 115.05 -34.55 Q110.8 -18.25 111.3 -7.85 L112.1 -1.85 Q112.25 -1.25 111.9 -0.7 111.6 -0.2 111.0 -0.05 L109.85 -0.2 109.4 -0.65 108.5 -0.05 107.35 -0.2 Q106.85 -0.55 106.7 -1.15 L106.15 -4.8 105.8 -7.6 105.8 -7.65 Q105.25 -18.4 109.65 -35.3 L110.15 -37.6 109.7 -37.95 Q109.25 -38.4 109.25 -39.0 109.25 -39.6 109.7 -40.05 110.1 -40.45 110.6 -40.5 L110.7 -42.5 Q110.7 -49.85 104.9 -52.6 L104.55 -52.85 21.8 -52.85 22.1 -51.2 Q24.05 -41.0 23.65 -33.65 L23.65 -33.6 23.3 -30.8 22.75 -27.15 Q22.6 -26.55 22.1 -26.2 L20.95 -26.05 20.05 -26.65 19.6 -26.2 18.45 -26.05 Q17.85 -26.2 17.55 -26.7 17.2 -27.25 17.35 -27.85 L18.05 -32.15 18.15 -33.85 Q18.5 -41.1 16.55 -51.2 L16.25 -52.85 15.5 -52.85 15.15 -52.6 Q9.35 -49.85 9.35 -42.5 L9.45 -40.5 10.35 -40.05 Q10.8 -39.6 10.8 -39.0 10.8 -38.4 10.35 -37.95 L9.9 -37.6 10.4 -35.3 Q14.8 -18.4 14.25 -7.65 L14.15 -5.85 13.35 -1.15 Q13.2 -0.55 12.7 -0.2 L11.55 -0.05 Q10.95 -0.2 10.65 -0.65 L10.2 -0.2 9.05 -0.05 Q8.45 -0.2 8.15 -0.7 7.8 -1.25 7.95 -1.85 L8.65 -6.15 8.75 -7.85 Q9.25 -18.25 5.0 -34.55 L4.3 -37.5 Q3.65 -37.5 3.25 -37.95 2.8 -38.4 2.8 -39.0 2.8 -39.6 3.25 -40.05 L3.65 -40.35 3.25 -42.5 Q2.1 -49.45 3.15 -52.85 1.05 -53.05 0.35 -54.45 L0.35 -62.65 Q-0.35 -64.9 0.3 -67.05 L6.15 -88.4 6.3 -89.05 Q7.85 -94.05 12.85 -94.05 L39.6 -94.05 Q39.85 -95.0 41.35 -96.15 L42.85 -96.85 45.4 -97.45 Q46.9 -97.45 49.55 -96.2 51.05 -95.0 51.3 -94.05 L52.45 -94.05 52.45 -101.25 53.6 -105.0 54.05 -106.5 55.0 -109.75 72.6 -109.75 72.6 -94.05 73.8 -94.05 73.75 -104.85 Q73.8 -107.2 75.8 -108.8 76.85 -109.6 78.15 -109.95 L78.1 -110.3 Q78.1 -111.15 78.95 -111.7 79.65 -112.2 80.65 -112.2 L82.4 -111.7 Q83.2 -111.15 83.2 -110.3 L83.15 -109.95 M84.55 -100.15 L81.05 -99.55 77.4 -99.95 76.0 -100.55 74.75 -101.25 74.8 -80.75 Q75.2 -80.2 76.2 -79.7 L77.4 -79.25 80.65 -78.85 Q82.9 -78.85 84.55 -79.5 L85.5 -80.0 86.5 -80.75 86.55 -80.8 86.55 -101.3 Q85.8 -100.65 84.55 -100.15 M84.55 -100.7 L85.05 -100.9 Q86.15 -101.4 86.55 -102.05 L86.55 -103.25 85.25 -102.45 84.55 -102.15 Q82.9 -101.55 80.65 -101.55 L77.4 -101.95 76.0 -102.45 74.75 -103.25 74.75 -102.0 Q75.15 -101.4 76.2 -100.9 L77.4 -100.5 81.05 -100.05 Q83.05 -100.1 84.55 -100.7 M71.1 -106.5 L71.7 -109.0 55.75 -109.0 54.9 -106.5 52.95 -100.75 69.7 -100.75 71.1 -106.5 M70.3 -100.65 L70.3 -79.95 71.85 -85.25 71.85 -106.0 70.3 -100.65 M69.3 -86.4 L69.3 -100.25 53.3 -100.25 53.3 -86.4 53.3 -77.0 69.3 -77.0 69.3 -86.4 M53.65 -86.4 L53.6 -87.75 Q53.55 -90.1 53.75 -92.35 L53.9 -93.45 53.95 -94.05 Q54.25 -96.25 54.85 -98.35 L67.8 -98.3 68.35 -94.05 68.4 -93.45 68.5 -92.35 68.55 -87.75 68.5 -86.4 68.45 -85.35 67.8 -78.9 Q67.75 -78.8 54.85 -78.85 54.05 -82.15 53.75 -85.3 L53.65 -86.4 M73.8 -92.35 L73.8 -93.45 72.6 -93.45 72.6 -92.35 72.6 -85.35 72.6 -84.3 70.15 -76.35 52.45 -76.35 52.45 -84.05 52.45 -92.35 52.45 -93.45 51.35 -93.45 51.35 -92.35 51.35 -82.7 51.35 -79.65 Q51.45 -78.45 49.45 -77.6 46.95 -76.9 45.45 -76.9 L42.15 -77.35 41.4 -77.65 Q39.45 -78.45 39.55 -79.65 L39.55 -82.3 39.55 -92.35 39.55 -93.45 13.65 -93.45 Q8.65 -93.45 7.1 -88.45 L1.1 -67.05 Q-0.35 -62.05 4.65 -62.05 L112.95 -62.05 Q116.85 -62.05 118.65 -65.1 L125.9 -88.45 Q127.5 -93.45 122.5 -93.45 L87.55 -93.45 87.55 -92.35 87.55 -81.85 87.55 -79.15 Q87.25 -77.9 85.35 -77.05 L85.4 -77.05 84.55 -76.7 Q82.85 -76.1 80.65 -76.1 L77.4 -76.5 Q76.6 -76.7 75.9 -77.05 74.15 -77.85 73.85 -79.0 L73.8 -85.4 73.8 -92.35 M67.55 -87.75 L67.5 -92.35 67.4 -93.45 67.35 -94.05 66.9 -97.75 55.7 -97.75 54.95 -94.05 54.9 -93.45 54.75 -92.35 Q54.55 -90.1 54.6 -87.75 L54.65 -86.4 54.75 -85.3 Q55.0 -82.45 55.7 -79.5 L66.85 -79.5 67.45 -85.35 67.5 -86.4 67.55 -87.75 M77.4 -78.75 L76.0 -79.25 74.8 -80.0 74.8 -79.2 Q75.1 -78.5 76.3 -77.95 L76.35 -77.95 Q76.85 -77.7 77.4 -77.55 L80.65 -77.1 Q82.9 -77.1 84.55 -77.75 L84.95 -77.95 Q86.25 -78.55 86.55 -79.35 L86.55 -80.05 85.25 -79.25 84.55 -78.95 Q82.9 -78.35 80.65 -78.35 L77.4 -78.75 M50.35 -92.95 L50.35 -93.7 50.25 -94.05 49.3 -95.1 48.95 -95.4 Q47.45 -96.45 45.4 -96.45 43.5 -96.45 42.15 -95.5 L41.95 -95.35 40.7 -94.05 40.55 -93.65 40.55 -92.9 41.6 -92.35 42.15 -92.15 44.25 -91.7 44.25 -94.05 44.75 -91.2 46.25 -91.2 46.75 -94.05 46.75 -91.7 49.15 -92.3 50.35 -92.95 M44.25 -90.7 L44.25 -91.2 42.15 -91.6 40.55 -92.3 41.3 -91.6 42.15 -91.1 Q43.55 -90.6 45.45 -90.6 47.6 -90.6 49.05 -91.25 L50.35 -92.35 49.35 -91.85 49.3 -91.85 Q48.2 -91.35 46.75 -91.2 L46.75 -90.7 44.25 -90.7 M42.15 -90.05 L40.55 -90.75 40.55 -80.7 42.15 -79.85 Q43.55 -79.35 45.45 -79.35 46.9 -79.35 49.3 -80.1 L50.35 -80.75 50.35 -90.75 49.3 -90.25 Q47.7 -89.6 45.45 -89.6 L42.15 -90.05 M42.15 -79.3 L40.55 -80.1 40.55 -79.65 Q40.6 -79.25 42.15 -78.4 43.55 -77.9 45.45 -77.9 47.6 -77.9 49.05 -78.55 L50.35 -79.65 50.35 -80.1 49.35 -79.55 49.3 -79.55 Q47.7 -78.85 45.45 -78.85 L42.15 -79.3 M117.0 -62.05 Q115.55 -61.4 114.95 -61.25 L1.8 -61.25 Q1.05 -58.05 1.8 -54.5 L115.95 -54.5 117.0 -54.95 117.65 -55.35 118.5 -56.25 119.15 -57.15 126.15 -80.95 126.1 -87.0 119.05 -64.0 Q118.3 -62.85 117.0 -62.05 M4.95 -47.5 L4.95 -50.15 4.8 -50.7 4.3 -51.0 3.75 -50.8 3.45 -50.3 3.45 -47.5 4.15 -41.75 4.35 -40.85 4.5 -40.5 5.65 -40.5 5.7 -40.55 5.8 -41.15 5.65 -41.75 4.95 -47.5 M9.35 -47.5 Q9.75 -48.75 10.5 -49.8 L10.6 -50.4 10.3 -50.85 9.7 -50.95 Q9.4 -50.9 9.25 -50.65 8.25 -49.25 7.7 -47.5 7.25 -46.05 7.1 -41.75 L7.15 -40.95 7.35 -40.5 8.5 -40.5 8.65 -41.05 8.6 -41.75 Q8.8 -46.05 9.35 -47.5 M10.0 -52.85 L6.5 -52.85 Q4.9 -50.2 6.3 -42.5 6.15 -49.2 10.0 -52.85 M18.85 -51.2 L18.55 -52.85 17.0 -52.85 17.35 -51.2 18.45 -44.0 Q19.15 -38.35 18.9 -33.8 L18.75 -31.25 18.1 -27.65 Q18.0 -27.35 18.15 -27.1 18.3 -26.85 18.65 -26.75 L19.2 -26.85 19.55 -27.3 20.25 -31.25 20.4 -33.7 Q20.65 -38.3 20.0 -44.0 L18.85 -51.2 M19.85 -51.2 L20.95 -44.0 Q21.65 -38.35 21.4 -33.8 L21.25 -31.25 20.6 -27.65 20.65 -27.1 21.15 -26.75 21.7 -26.85 22.05 -27.3 22.75 -31.25 22.9 -33.7 Q23.15 -38.3 22.5 -44.0 L21.35 -51.2 21.05 -52.85 19.5 -52.85 19.85 -51.2 M3.8 -38.45 L4.3 -38.25 9.3 -38.25 9.85 -38.45 10.05 -39.0 9.85 -39.5 9.3 -39.75 4.3 -39.75 3.8 -39.5 3.55 -39.0 3.8 -38.45 M9.15 -36.6 L8.55 -36.7 Q8.25 -36.65 8.1 -36.4 7.9 -36.15 8.0 -35.85 L8.8 -32.5 Q10.8 -24.5 11.55 -18.0 12.25 -12.35 12.0 -7.8 L11.85 -5.25 11.2 -1.65 Q11.1 -1.35 11.25 -1.1 11.4 -0.85 11.75 -0.75 L12.3 -0.85 12.65 -1.3 13.35 -5.25 13.5 -7.7 Q13.75 -12.3 13.1 -18.0 12.3 -24.5 10.35 -32.5 L9.45 -36.15 9.15 -36.6 M6.65 -36.6 L6.05 -36.7 Q5.75 -36.65 5.6 -36.4 5.4 -36.15 5.5 -35.85 L6.3 -32.5 Q8.3 -24.5 9.05 -18.0 9.75 -12.35 9.5 -7.8 L9.35 -5.25 8.7 -1.65 Q8.6 -1.35 8.75 -1.1 L9.25 -0.75 9.8 -0.85 10.15 -1.3 10.85 -5.25 11.0 -7.7 Q11.25 -12.3 10.6 -18.0 9.8 -24.5 7.85 -32.5 L6.95 -36.15 6.65 -36.6 M126.0 -76.3 L125.7 -76.8 124.45 -72.35 Q123.65 -66.75 123.75 -66.55 L123.8 -66.5 124.95 -66.5 125.5 -69.5 126.0 -73.5 126.0 -76.3 M122.8 -62.6 L122.5 -62.15 121.6 -58.5 120.25 -52.4 120.0 -51.2 Q119.25 -47.4 118.85 -44.0 118.2 -38.3 118.45 -33.7 L118.6 -31.25 119.3 -27.3 Q119.4 -27.0 119.65 -26.85 L120.2 -26.75 Q120.55 -26.85 120.7 -27.1 L120.75 -27.65 120.1 -31.25 119.95 -33.8 Q119.7 -38.35 120.4 -44.0 120.8 -47.4 121.55 -51.2 L121.75 -52.4 123.15 -58.5 123.95 -61.85 123.85 -62.4 Q123.7 -62.65 123.4 -62.7 L122.8 -62.6 M125.9 -65.0 L125.65 -65.5 125.15 -65.75 122.5 -65.75 122.1 -64.25 125.15 -64.25 125.65 -64.45 125.9 -65.0 M112.35 -47.5 Q111.8 -49.25 110.8 -50.65 110.65 -50.9 110.35 -50.95 L109.75 -50.85 109.45 -50.4 109.55 -49.8 Q110.3 -48.75 110.7 -47.5 111.25 -46.05 111.45 -41.75 L111.55 -40.5 112.7 -40.5 112.95 -41.75 Q112.8 -46.05 112.35 -47.5 M116.6 -47.5 L116.6 -50.3 116.3 -50.8 115.75 -51.0 Q115.45 -50.95 115.25 -50.7 115.05 -50.5 115.1 -50.15 L115.1 -47.5 114.4 -41.75 Q114.2 -40.9 114.35 -40.55 L114.4 -40.5 115.55 -40.5 115.9 -41.75 116.6 -47.5 M118.15 -54.4 L117.35 -50.3 Q117.6 -47.25 116.8 -42.5 L116.4 -40.35 116.8 -40.05 117.25 -39.0 Q117.25 -38.4 116.8 -37.95 116.45 -37.55 115.9 -37.5 115.85 -35.5 115.95 -33.7 L116.1 -31.25 116.8 -27.3 117.15 -26.85 117.7 -26.75 118.2 -27.1 118.25 -27.65 117.6 -31.25 117.45 -33.8 Q117.2 -38.35 117.9 -44.0 118.3 -47.4 119.05 -51.2 L121.5 -62.2 120.2 -57.85 Q119.5 -55.65 118.15 -54.4 M116.7 -53.35 L117.0 -52.4 117.3 -53.75 116.7 -53.4 116.7 -53.35 M110.1 -52.85 Q113.9 -49.2 113.75 -42.5 115.15 -50.2 113.6 -52.85 L110.1 -52.85 M116.25 -39.5 L116.0 -39.7 115.75 -39.75 110.75 -39.75 110.2 -39.5 110.0 -39.0 110.2 -38.45 110.75 -38.25 115.75 -38.25 115.95 -38.25 116.25 -38.45 116.5 -39.0 116.25 -39.5 M114.55 -35.85 L114.45 -36.4 114.0 -36.7 113.4 -36.6 113.1 -36.15 112.2 -32.5 Q110.25 -24.5 109.45 -18.0 108.8 -12.3 109.05 -7.7 L109.2 -5.25 109.9 -1.3 Q110.0 -1.0 110.25 -0.85 L110.8 -0.75 111.3 -1.1 111.35 -1.65 110.7 -5.25 110.55 -7.8 Q110.3 -12.35 111.0 -18.0 111.75 -24.5 113.75 -32.5 L114.55 -35.85 M110.6 -36.15 L109.7 -32.5 Q107.75 -24.5 106.95 -18.0 106.3 -12.3 106.55 -7.7 L106.7 -5.25 107.4 -1.3 Q107.5 -1.0 107.75 -0.85 L108.3 -0.75 Q108.65 -0.85 108.8 -1.1 L108.85 -1.65 108.2 -5.25 108.05 -7.8 Q107.8 -12.35 108.5 -18.0 109.25 -24.5 111.25 -32.5 L112.05 -35.85 111.95 -36.4 111.5 -36.7 110.9 -36.6 110.6 -36.15" fill="#2a2a2a" fill-rule="evenodd" stroke="none"/>
    <path d="M84.55 -102.15 L84.55 -100.7 Q83.05 -100.1 81.05 -100.05 L77.4 -100.5 77.4 -101.95 80.65 -101.55 Q82.9 -101.55 84.55 -102.15 M53.3 -86.4 L53.3 -100.25 69.3 -100.25 69.3 -86.4 68.5 -86.4 68.55 -87.75 68.5 -92.35 68.4 -93.45 68.35 -94.05 67.8 -98.3 54.85 -98.35 Q54.25 -96.25 53.95 -94.05 L53.9 -93.45 53.75 -92.35 Q53.55 -90.1 53.6 -87.75 L53.65 -86.4 53.3 -86.4 M77.4 -78.75 L80.65 -78.35 Q82.9 -78.35 84.55 -78.95 L84.55 -77.75 Q82.9 -77.1 80.65 -77.1 L77.4 -77.55 77.4 -78.75 M44.25 -90.7 L46.75 -90.7 46.75 -91.2 Q48.2 -91.35 49.3 -91.85 L49.35 -91.85 50.35 -92.35 49.05 -91.25 Q47.6 -90.6 45.45 -90.6 43.55 -90.6 42.15 -91.1 L41.3 -91.6 40.55 -92.3 42.15 -91.6 44.25 -91.2 44.25 -90.7 M42.15 -79.3 L45.45 -78.85 Q47.7 -78.85 49.3 -79.55 L49.35 -79.55 50.35 -80.1 50.35 -79.65 49.05 -78.55 Q47.6 -77.9 45.45 -77.9 43.55 -77.9 42.15 -78.4 40.6 -79.25 40.55 -79.65 L40.55 -80.1 42.15 -79.3 M117.0 -57.7 L2.65 -57.65 3.35 -56.15 117.0 -56.35 117.0 -54.95 115.95 -54.5 1.8 -54.5 Q1.05 -58.05 1.8 -61.25 L114.95 -61.25 Q115.55 -61.4 117.0 -62.05 L117.0 -60.15 2.65 -60.15 3.15 -58.85 117.0 -58.75 117.0 -57.7 M3.45 -47.5 L3.45 -50.3 3.75 -50.8 4.3 -51.0 4.8 -50.7 4.95 -50.15 4.95 -47.5 3.45 -47.5 M5.65 -41.75 L5.8 -41.15 5.7 -40.55 5.65 -40.5 4.5 -40.5 4.35 -40.85 4.15 -41.75 5.65 -41.75 M7.7 -47.5 Q8.25 -49.25 9.25 -50.65 9.4 -50.9 9.7 -50.95 L10.3 -50.85 10.6 -50.4 10.5 -49.8 Q9.75 -48.75 9.35 -47.5 L7.7 -47.5 M8.6 -41.75 L8.65 -41.05 8.5 -40.5 7.35 -40.5 7.15 -40.95 7.1 -41.75 8.6 -41.75 M6.65 -36.6 L6.95 -36.15 7.85 -32.5 Q9.8 -24.5 10.6 -18.0 11.25 -12.3 11.0 -7.7 L10.85 -5.25 10.15 -1.3 9.8 -0.85 9.25 -0.75 8.75 -1.1 Q8.6 -1.35 8.7 -1.65 L9.35 -5.25 9.5 -7.8 Q9.75 -12.35 9.05 -18.0 8.3 -24.5 6.3 -32.5 L5.5 -35.85 Q5.4 -36.15 5.6 -36.4 5.75 -36.65 6.05 -36.7 L6.65 -36.6 M9.15 -36.6 L9.45 -36.15 10.35 -32.5 Q12.3 -24.5 13.1 -18.0 13.75 -12.3 13.5 -7.7 L13.35 -5.25 12.65 -1.3 12.3 -0.85 11.75 -0.75 Q11.4 -0.85 11.25 -1.1 11.1 -1.35 11.2 -1.65 L11.85 -5.25 12.0 -7.8 Q12.25 -12.35 11.55 -18.0 10.8 -24.5 8.8 -32.5 L8.0 -35.85 Q7.9 -36.15 8.1 -36.4 8.25 -36.65 8.55 -36.7 L9.15 -36.6 M110.7 -47.5 Q110.3 -48.75 109.55 -49.8 L109.45 -50.4 109.75 -50.85 110.35 -50.95 Q110.65 -50.9 110.8 -50.65 111.8 -49.25 112.35 -47.5 L110.7 -47.5 M112.95 -41.75 L112.7 -40.5 111.55 -40.5 111.45 -41.75 112.95 -41.75 M115.1 -47.5 L115.1 -50.15 Q115.05 -50.5 115.25 -50.7 115.45 -50.95 115.75 -51.0 L116.3 -50.8 116.6 -50.3 116.6 -47.5 115.1 -47.5 M115.9 -41.75 L115.55 -40.5 114.4 -40.5 114.35 -40.55 Q114.2 -40.9 114.4 -41.75 L115.9 -41.75 M110.6 -36.15 L110.9 -36.6 111.5 -36.7 111.95 -36.4 112.05 -35.85 111.25 -32.5 Q109.25 -24.5 108.5 -18.0 107.8 -12.35 108.05 -7.8 L108.2 -5.25 108.85 -1.65 108.8 -1.1 Q108.65 -0.85 108.3 -0.75 L107.75 -0.85 Q107.5 -1.0 107.4 -1.3 L106.7 -5.25 106.55 -7.7 Q106.3 -12.3 106.95 -18.0 107.75 -24.5 109.7 -32.5 L110.6 -36.15 M114.55 -35.85 L113.75 -32.5 Q111.75 -24.5 111.0 -18.0 110.3 -12.35 110.55 -7.8 L110.7 -5.25 111.35 -1.65 111.3 -1.1 110.8 -0.75 110.25 -0.85 Q110.0 -1.0 109.9 -1.3 L109.2 -5.25 109.05 -7.7 Q108.8 -12.3 109.45 -18.0 110.25 -24.5 112.2 -32.5 L113.1 -36.15 113.4 -36.6 114.0 -36.7 114.45 -36.4 114.55 -35.85" fill="#999999" fill-rule="evenodd" stroke="none"/>
    <path d="M18.85 -51.2 L20.0 -44.0 Q20.65 -38.3 20.4 -33.7 L20.25 -31.25 19.55 -27.3 19.2 -26.85 18.65 -26.75 Q18.3 -26.85 18.15 -27.1 18.0 -27.35 18.1 -27.65 L18.75 -31.25 18.9 -33.8 Q19.15 -38.35 18.45 -44.0 L17.35 -51.2 17.0 -52.85 18.55 -52.85 18.85 -51.2 M19.85 -51.2 L19.5 -52.85 21.05 -52.85 21.35 -51.2 22.5 -44.0 Q23.15 -38.3 22.9 -33.7 L22.75 -31.25 22.05 -27.3 21.7 -26.85 21.15 -26.75 20.65 -27.1 20.6 -27.65 21.25 -31.25 21.4 -33.8 Q21.65 -38.35 20.95 -44.0 L19.85 -51.2 M126.0 -76.3 L126.0 -73.5 125.5 -69.5 124.95 -66.5 123.8 -66.5 123.75 -66.55 Q123.65 -66.75 124.45 -72.35 L125.7 -76.8 126.0 -76.3 M125.9 -65.0 L125.65 -64.45 125.15 -64.25 122.1 -64.25 122.5 -65.75 125.15 -65.75 125.65 -65.5 125.9 -65.0 M122.8 -62.6 L123.4 -62.7 Q123.7 -62.65 123.85 -62.4 L123.95 -61.85 123.15 -58.5 121.75 -52.4 121.55 -51.2 Q120.8 -47.4 120.4 -44.0 119.7 -38.35 119.95 -33.8 L120.1 -31.25 120.75 -27.65 120.7 -27.1 Q120.55 -26.85 120.2 -26.75 L119.65 -26.85 Q119.4 -27.0 119.3 -27.3 L118.6 -31.25 118.45 -33.7 Q118.2 -38.3 118.85 -44.0 119.25 -47.4 120.0 -51.2 L120.25 -52.4 121.6 -58.5 122.5 -62.15 122.8 -62.6 M118.15 -54.4 Q119.5 -55.65 120.2 -57.85 L121.5 -62.2 119.05 -51.2 Q118.3 -47.4 117.9 -44.0 117.2 -38.35 117.45 -33.8 L117.6 -31.25 118.25 -27.65 118.2 -27.1 117.7 -26.75 117.15 -26.85 116.8 -27.3 116.1 -31.25 115.95 -33.7 Q115.85 -35.5 115.9 -37.5 116.45 -37.55 116.8 -37.95 117.25 -38.4 117.25 -39.0 L116.8 -40.05 116.4 -40.35 116.8 -42.5 Q117.6 -47.25 117.35 -50.3 L118.15 -54.4" fill="#7d7d7d" fill-rule="evenodd" stroke="none"/>
    <path d="M3.45 -47.5 L4.95 -47.5 5.65 -41.75 4.15 -41.75 3.45 -47.5 M7.7 -47.5 L9.35 -47.5 Q8.8 -46.05 8.6 -41.75 L7.1 -41.75 Q7.25 -46.05 7.7 -47.5 M3.8 -38.45 L3.55 -39.0 3.8 -39.5 4.3 -39.75 9.3 -39.75 9.85 -39.5 10.05 -39.0 9.85 -38.45 9.3 -38.25 4.3 -38.25 3.8 -38.45 M112.35 -47.5 Q112.8 -46.05 112.95 -41.75 L111.45 -41.75 Q111.25 -46.05 110.7 -47.5 L112.35 -47.5 M116.6 -47.5 L115.9 -41.75 114.4 -41.75 115.1 -47.5 116.6 -47.5 M116.25 -39.5 L116.5 -39.0 116.25 -38.45 115.95 -38.25 115.75 -38.25 110.75 -38.25 110.2 -38.45 110.0 -39.0 110.2 -39.5 110.75 -39.75 115.75 -39.75 116.0 -39.7 116.25 -39.5" fill="#c7c7c7" fill-rule="evenodd" stroke="none"/>
    <path d="M70.3 -100.65 L71.85 -106.0 71.85 -85.25 70.3 -79.95 70.3 -100.65 M117.0 -57.7 L117.0 -58.75 119.0 -61.0 124.1 -78.35 118.85 -61.9 117.0 -60.15 117.0 -62.05 Q118.3 -62.85 119.05 -64.0 L126.1 -87.0 126.15 -80.95 119.15 -57.15 118.5 -56.25 117.65 -55.35 117.0 -54.95 117.0 -56.35 119.4 -58.9 125.8 -80.5 118.9 -59.5 117.0 -57.7" fill="#858585" fill-rule="evenodd" stroke="none"/>
    <path d="M117.0 -56.35 L117.0 -57.7 118.9 -59.5 125.8 -80.5 119.4 -58.9 117.0 -56.35 M117.0 -60.15 L118.85 -61.9 124.1 -78.35 119.0 -61.0 117.0 -58.75 117.0 -60.15" fill="#b4b4b4" fill-rule="evenodd" stroke="none"/>
    <path d="M82.55 -109.05 Q83.8 -108.75 84.85 -108.0 86.5 -106.7 86.55 -104.85 L86.55 -104.0 86.5 -103.95 85.5 -103.2 84.55 -102.7 Q82.9 -102.05 80.65 -102.05 L77.4 -102.45 76.05 -103.1 Q74.95 -103.7 74.8 -103.95 L74.75 -104.0 74.75 -104.85 Q74.8 -106.7 76.45 -108.0 L76.4 -108.0 Q77.45 -108.75 78.8 -109.05 L78.9 -108.95 79.55 -108.7 80.65 -108.45 Q81.3 -108.45 82.4 -108.95 L82.55 -109.05 M83.1 -105.35 Q83.1 -105.9 82.35 -106.3 81.65 -106.7 80.6 -106.7 L78.8 -106.3 Q78.1 -105.9 78.1 -105.35 78.1 -104.8 78.8 -104.4 L80.6 -104.0 Q81.65 -104.0 82.35 -104.4 83.1 -104.8 83.1 -105.35 M54.9 -106.5 L55.75 -109.0 71.7 -109.0 71.1 -106.5 54.9 -106.5 M50.35 -92.95 L49.15 -92.3 46.75 -91.7 46.75 -94.05 46.25 -91.2 44.75 -91.2 44.25 -94.05 44.25 -91.7 42.15 -92.15 41.6 -92.35 40.55 -92.9 40.55 -93.65 40.7 -94.05 41.95 -95.35 42.15 -95.5 Q43.5 -96.45 45.4 -96.45 47.45 -96.45 48.95 -95.4 L49.3 -95.1 50.25 -94.05 50.35 -93.7 50.35 -92.95" fill="#c8c8c8" fill-rule="evenodd" stroke="none"/>
    <path d="M84.55 -100.15 Q85.8 -100.65 86.55 -101.3 L86.55 -80.8 86.5 -80.75 85.5 -80.0 84.55 -79.5 Q82.9 -78.85 80.65 -78.85 L77.4 -79.25 76.2 -79.7 Q75.2 -80.2 74.8 -80.75 L74.75 -101.25 76.0 -100.55 77.4 -99.95 81.05 -99.55 84.55 -100.15 M84.9 -99.5 L84.9 -80.25 85.95 -80.75 85.95 -100.05 84.9 -99.5 M75.1 -100.3 L75.2 -81.05 76.15 -80.75 76.15 -99.6 75.1 -100.3 M54.6 -87.75 Q54.55 -90.1 54.75 -92.35 L54.9 -93.45 54.95 -94.05 55.7 -97.75 66.9 -97.75 67.35 -94.05 67.4 -93.45 67.5 -92.35 67.55 -87.75 59.95 -87.3 54.6 -87.75 M77.4 -79.85 L78.45 -79.75 78.65 -98.85 77.55 -99.15 77.4 -79.85 M80.0 -79.65 L81.0 -79.7 81.0 -98.85 80.0 -98.9 80.0 -79.65 M42.15 -90.05 L45.45 -89.6 Q47.7 -89.6 49.3 -90.25 L49.3 -80.1 Q46.9 -79.35 45.45 -79.35 43.55 -79.35 42.15 -79.85 L42.15 -90.05 M83.55 -79.85 L83.5 -99.15 82.4 -98.85 82.45 -79.7 83.55 -79.85" fill="#ffffff" fill-rule="evenodd" stroke="none"/>
    <path d="M84.55 -100.7 L84.55 -102.15 85.25 -102.45 86.55 -103.25 86.55 -102.05 Q86.15 -101.4 85.05 -100.9 L84.55 -100.7 M77.4 -101.95 L77.4 -100.5 76.2 -100.9 Q75.15 -101.4 74.75 -102.0 L74.75 -103.25 76.0 -102.45 77.4 -101.95 M53.3 -86.4 L53.65 -86.4 53.75 -85.3 Q54.05 -82.15 54.85 -78.85 67.75 -78.8 67.8 -78.9 L68.45 -85.35 68.5 -86.4 69.3 -86.4 69.3 -77.0 53.3 -77.0 53.3 -86.4 M77.4 -77.55 Q76.85 -77.7 76.35 -77.95 L76.3 -77.95 Q75.1 -78.5 74.8 -79.2 L74.8 -80.0 76.0 -79.25 77.4 -78.75 77.4 -77.55 M84.55 -78.95 L85.25 -79.25 86.55 -80.05 86.55 -79.35 Q86.25 -78.55 84.95 -77.95 L84.55 -77.75 84.55 -78.95" fill="#727272" fill-rule="evenodd" stroke="none"/>
    <path d="M84.9 -99.5 L85.95 -100.05 85.95 -80.75 84.9 -80.25 84.9 -99.5 M75.1 -100.3 L76.15 -99.6 76.15 -80.75 75.2 -81.05 75.1 -100.3 M37.3 -79.0 Q37.75 -77.9 39.7 -77.05 42.3 -75.9 45.95 -75.9 L50.5 -76.45 50.15 -75.1 71.85 -75.1 72.75 -77.5 Q73.4 -76.8 74.6 -76.25 77.2 -75.0 80.8 -75.0 84.4 -75.0 86.95 -76.25 89.4 -77.4 89.55 -79.0 L122.0 -79.0 118.8 -68.15 Q117.4 -63.15 112.4 -63.15 L6.05 -63.15 Q1.05 -63.15 2.45 -68.15 L5.65 -79.0 37.3 -79.0 M77.4 -79.85 L77.55 -99.15 78.65 -98.85 78.45 -79.75 77.4 -79.85 M80.0 -79.65 L80.0 -98.9 81.0 -98.85 81.0 -79.7 80.0 -79.65 M83.55 -79.85 L82.45 -79.7 82.4 -98.85 83.5 -99.15 83.55 -79.85" fill="#4fddf7" fill-rule="evenodd" stroke="none"/>
    <path d="M72.6 -92.35 L73.8 -92.35 73.8 -85.4 72.6 -85.35 72.6 -92.35 M37.3 -79.0 L5.65 -79.0 8.1 -87.35 Q9.55 -92.35 14.55 -92.35 L39.55 -92.35 39.55 -82.3 Q37.15 -81.2 37.15 -79.7 L37.3 -79.0 M122.0 -79.0 L89.55 -79.0 89.55 -79.2 Q89.55 -80.75 87.55 -81.85 L87.55 -92.35 120.9 -92.35 Q125.9 -92.35 124.45 -87.35 L122.0 -79.0 M52.45 -92.35 L52.45 -84.05 52.05 -82.45 51.35 -82.7 51.35 -92.35 52.45 -92.35" fill="#09c0e1" fill-rule="evenodd" stroke="none"/>
    <path d="M72.6 -85.35 L73.8 -85.4 73.85 -79.0 Q74.15 -77.85 75.9 -77.05 76.6 -76.7 77.4 -76.5 L80.65 -76.1 Q82.85 -76.1 84.55 -76.7 L85.4 -77.05 85.35 -77.05 Q87.25 -77.9 87.55 -79.15 L87.55 -81.85 Q89.55 -80.75 89.55 -79.2 L89.55 -79.0 Q89.4 -77.4 86.95 -76.25 84.4 -75.0 80.8 -75.0 77.2 -75.0 74.6 -76.25 73.4 -76.8 72.75 -77.5 L71.85 -75.1 50.15 -75.1 50.5 -76.45 45.95 -75.9 Q42.3 -75.9 39.7 -77.05 37.75 -77.9 37.3 -79.0 L37.15 -79.7 Q37.15 -81.2 39.55 -82.3 L39.55 -79.65 Q39.45 -78.45 41.4 -77.65 L42.15 -77.35 45.45 -76.9 Q46.95 -76.9 49.45 -77.6 51.45 -78.45 51.35 -79.65 L51.35 -82.7 52.05 -82.45 52.45 -84.05 52.45 -76.35 70.15 -76.35 72.6 -84.3 72.6 -85.35" fill="#07a7c2" fill-rule="evenodd" stroke="none"/>
  </g>
</svg>
