<?xml version="1.0" encoding="UTF-8" standalone="no"?>
<svg xmlns:ffdec="https://www.free-decompiler.com/flash" xmlns:xlink="http://www.w3.org/1999/xlink" ffdec:objectType="shape" height="21.0px" width="31.15px" xmlns="http://www.w3.org/2000/svg">
  <g transform="matrix(1.0, 0.0, 0.0, 1.0, -0.75, 2.9)">
    <path d="M27.25 10.9 Q26.45 12.2 23.9 13.75 20.7 15.6 17.5 15.8 19.1 8.35 27.25 10.9" fill="#b45f50" fill-rule="evenodd" stroke="none"/>
    <path d="M16.2 15.95 L6.65 15.7 4.75 11.0 2.75 7.0 3.55 7.25 Q6.2 8.1 11.55 8.35 16.35 8.35 21.1 6.5 27.15 4.15 31.1 -0.55 30.6 5.1 28.1 9.6 22.05 8.85 19.55 10.9 18.9 11.4 16.2 15.95" fill="#2c1514" fill-rule="evenodd" stroke="none"/>
    <path d="M17.5 15.8 L16.2 15.95 Q18.9 11.4 19.55 10.9 22.05 8.85 28.1 9.6 L27.25 10.9 Q19.1 8.35 17.5 15.8" fill="#7c362c" fill-rule="evenodd" stroke="none"/>
    <path d="M17.5 15.8 Q20.7 15.6 23.9 13.75 26.45 12.2 27.25 10.9 L28.1 9.6 Q30.6 5.1 31.1 -0.55 27.15 4.15 21.1 6.5 16.35 8.35 11.55 8.35 6.2 8.1 3.55 7.25 L2.75 7.0 4.75 11.0 6.65 15.7 16.2 15.95 17.5 15.8 M5.75 16.05 Q5.1 15.2 0.75 5.05 L10.5 6.7 Q17.55 6.7 24.45 3.3 30.7 0.2 31.9 -2.9 31.55 8.1 26.7 13.25 22.1 18.1 12.85 18.1 7.4 18.1 5.75 16.05" fill="#6c3d28" fill-rule="evenodd" stroke="none"/>
  </g>
</svg>
