<?xml version="1.0" encoding="UTF-8" standalone="no"?>
<svg xmlns:ffdec="https://www.free-decompiler.com/flash" xmlns:xlink="http://www.w3.org/1999/xlink" ffdec:objectType="shape" height="22.65px" width="12.5px" xmlns="http://www.w3.org/2000/svg">
  <g transform="matrix(1.0, 0.0, 0.0, 1.0, -20.8, 32.25)">
    <path d="M33.3 -23.05 L31.65 -25.15 31.8 -25.1 30.25 -28.4 Q29.0 -31.25 29.0 -31.9 L29.0 -32.25 31.2 -32.25 31.0 -30.6 Q31.0 -28.25 32.4 -24.95 L33.3 -23.05" fill="#794813" fill-rule="evenodd" stroke="none"/>
    <path d="M29.0 -32.25 L29.0 -31.9 Q29.0 -31.25 30.25 -28.4 L31.8 -25.1 31.65 -25.15 33.3 -23.05 Q29.6 -23.6 28.2 -24.8 L27.6 -25.4 24.45 -32.25 29.0 -32.25" fill="#e0ac3f" fill-rule="evenodd" stroke="none"/>
    <path d="M23.25 -16.7 L22.85 -15.2 22.8 -15.4 Q22.95 -13.4 23.15 -13.0 L23.75 -12.35 Q24.15 -12.1 24.6 -12.0 L25.8 -11.75 Q26.55 -11.6 27.45 -12.8 28.45 -14.1 27.9 -15.9 L28.7 -16.1 Q29.1 -15.1 29.1 -14.3 29.1 -12.85 27.75 -11.6 L27.4 -11.3 Q26.35 -10.55 25.5 -10.55 L25.35 -10.55 Q23.9 -10.65 22.85 -11.9 21.75 -13.3 21.75 -15.4 21.75 -16.65 22.6 -17.7 L23.35 -16.85 23.25 -16.7" fill="#cccccc" fill-rule="evenodd" stroke="none"/>
    <path d="M23.25 -16.7 L23.35 -16.85 22.6 -17.7 Q21.75 -16.65 21.75 -15.4 21.75 -13.3 22.85 -11.9 23.9 -10.65 25.35 -10.55 L25.5 -10.55 Q26.35 -10.55 27.4 -11.3 L27.75 -11.6 Q29.1 -12.85 29.1 -14.3 29.1 -15.1 28.7 -16.1 L27.9 -15.9 Q28.45 -14.1 27.45 -12.8 26.55 -11.6 25.8 -11.75 L24.6 -12.0 Q24.15 -12.1 23.75 -12.35 L23.15 -13.0 Q22.95 -13.4 22.8 -15.4 L22.85 -15.2 23.25 -16.7 M22.9 -18.15 L23.5 -17.7 24.25 -16.65 23.85 -16.2 23.75 -15.95 23.55 -14.65 Q23.55 -13.3 24.65 -12.75 25.2 -12.45 25.8 -12.45 L25.95 -12.45 Q26.35 -12.5 26.75 -13.0 27.2 -13.6 27.2 -14.5 L27.15 -15.7 27.0 -16.2 Q27.8 -17.4 29.35 -17.1 L29.65 -16.35 30.05 -14.3 Q30.05 -12.4 28.45 -10.95 27.7 -10.25 26.95 -9.9 L25.5 -9.6 25.0 -9.6 Q22.95 -9.85 21.8 -11.8 20.8 -13.45 20.8 -15.45 20.9 -17.4 21.95 -18.4 L22.0 -18.4 22.2 -18.65 22.9 -18.15" fill="#333333" fill-rule="evenodd" stroke="none"/>
  </g>
</svg>
