<?xml version="1.0" encoding="UTF-8" standalone="no"?>
<svg xmlns:ffdec="https://www.free-decompiler.com/flash" xmlns:xlink="http://www.w3.org/1999/xlink" ffdec:objectType="shape" height="30.0px" width="50.35px" xmlns="http://www.w3.org/2000/svg">
  <g transform="matrix(1.0, 0.0, 0.0, 1.0, 60.35, 29.0)">
    <path d="M-50.6 -25.4 L-52.1 -24.65 Q-55.8 -27.5 -60.35 -29.0 L-56.95 -29.0 -55.85 -28.5 -50.75 -25.5 -50.6 -25.4 M-34.15 -14.85 L-35.15 -14.5 -35.25 -14.6 -39.05 -17.5 -39.9 -18.1 -42.15 -19.9 -41.55 -21.5 -39.85 -22.6 Q-34.8 -25.85 -29.15 -25.05 L-28.85 -24.8 -28.6 -24.55 -30.95 -24.1 Q-36.3 -23.55 -40.45 -20.2 L-39.8 -19.7 Q-36.45 -17.95 -34.15 -14.85 M-46.55 -11.2 L-46.65 -11.0 -47.15 -10.25 Q-52.15 -13.15 -57.75 -14.7 -56.05 -19.3 -50.3 -20.1 L-49.5 -20.25 -48.25 -18.7 -50.5 -18.3 -51.95 -18.05 Q-54.85 -17.4 -56.65 -15.2 L-54.8 -14.7 Q-50.3 -13.55 -46.55 -11.2 M-44.7 -6.8 L-46.9 -4.0 -46.95 -3.95 -47.85 -2.2 Q-42.8 -2.1 -38.4 -0.3 L-38.95 1.0 Q-43.45 -0.75 -48.5 -0.85 -49.9 -3.85 -47.0 -6.45 L-46.45 -6.9 -44.7 -6.8 M-15.85 -26.6 L-16.0 -26.6 -16.9 -26.35 -20.05 -29.0 -18.0 -29.0 -15.85 -26.6 M-16.7 -14.05 L-18.15 -13.95 Q-20.95 -13.6 -23.3 -12.1 L-21.85 -11.5 -20.0 -10.3 -19.25 -9.5 Q-19.75 -9.4 -20.25 -8.85 L-24.55 -11.65 -23.35 -12.8 Q-19.1 -16.45 -14.05 -14.75 L-13.7 -13.7 -16.7 -14.05 M-15.0 -24.6 L-14.7 -24.65 -14.45 -24.05 -15.0 -24.6" fill="#794813" fill-rule="evenodd" stroke="none"/>
    <path d="M-53.65 -29.0 L-49.55 -29.0 -49.3 -27.55 -49.5 -26.65 Q-51.45 -28.0 -53.65 -29.0 M-30.95 -24.1 L-28.6 -24.55 Q-27.85 -23.65 -27.85 -22.15 -27.85 -21.3 -28.55 -19.8 L-29.5 -17.95 Q-32.5 -16.4 -37.65 -19.25 -32.6 -19.1 -30.55 -22.8 L-30.35 -23.55 -30.95 -24.1 M-56.65 -15.2 Q-54.85 -17.4 -51.95 -18.05 L-50.5 -18.3 -47.85 -18.1 Q-46.6 -16.35 -46.3 -14.55 L-53.15 -15.2 -56.65 -15.2 M-46.9 -4.0 Q-44.55 -4.1 -42.65 -5.2 L-41.45 -5.9 -41.45 -6.0 Q-40.6 -5.5 -40.1 -5.5 -39.5 -5.5 -38.85 -3.8 L-38.55 -3.0 -46.95 -3.95 -46.9 -4.0 M-13.05 -29.0 L-10.0 -29.0 -10.25 -28.6 -10.4 -28.3 -13.05 -29.0 M-16.7 -14.05 L-13.7 -13.7 -13.65 -13.15 -13.9 -11.9 Q-14.15 -11.0 -14.5 -10.55 -15.15 -9.6 -15.9 -9.2 L-16.15 -9.05 Q-18.2 -9.35 -20.0 -10.3 L-21.85 -11.5 -17.05 -12.65 -16.7 -14.05" fill="#e0ac3f" fill-rule="evenodd" stroke="none"/>
    <path d="M-39.8 -19.7 L-40.45 -20.2 Q-36.3 -23.55 -30.95 -24.1 L-30.35 -23.55 -30.55 -22.8 Q-32.6 -19.1 -37.65 -19.25 L-39.8 -19.7 M-44.7 -6.8 L-43.2 -6.8 Q-42.6 -6.8 -41.65 -6.15 L-41.45 -6.0 -41.45 -5.9 -42.65 -5.2 Q-44.55 -4.1 -46.9 -4.0 L-44.7 -6.8 M-21.85 -11.5 L-23.3 -12.1 Q-20.95 -13.6 -18.15 -13.95 L-16.7 -14.05 -17.05 -12.65 -21.85 -11.5" fill="#eac679" fill-rule="evenodd" stroke="none"/>
    <path d="M-50.6 -25.4 L-50.75 -25.5 -55.85 -28.5 -56.95 -29.0 -53.65 -29.0 Q-51.45 -28.0 -49.5 -26.65 -49.8 -26.0 -50.6 -25.4 M-34.15 -14.85 Q-36.45 -17.95 -39.8 -19.7 L-37.65 -19.25 Q-32.5 -16.4 -29.5 -17.95 L-29.75 -17.5 Q-30.6 -15.7 -33.65 -15.0 L-34.15 -14.85 M-46.55 -11.2 Q-50.3 -13.55 -54.8 -14.7 L-56.65 -15.2 -53.15 -15.2 -46.3 -14.55 -46.2 -13.45 Q-46.2 -12.0 -46.55 -11.2 M-50.5 -18.3 L-48.25 -18.7 -48.15 -18.55 -47.85 -18.1 -50.5 -18.3 M-38.55 -3.0 Q-38.25 -2.0 -38.25 -1.3 -38.25 -0.8 -38.4 -0.3 -42.8 -2.1 -47.85 -2.2 L-46.95 -3.95 -38.55 -3.0 M-15.85 -26.6 L-18.0 -29.0 -13.05 -29.0 -10.4 -28.3 Q-10.9 -27.5 -11.7 -27.35 L-15.85 -26.6 M-19.25 -9.5 L-20.0 -10.3 Q-18.2 -9.35 -16.15 -9.05 -17.35 -8.5 -18.35 -9.3 L-19.25 -9.5" fill="#cb9b38" fill-rule="evenodd" stroke="none"/>
  </g>
</svg>
