<?xml version="1.0" encoding="UTF-8" standalone="no"?>
<svg xmlns:ffdec="https://www.free-decompiler.com/flash" xmlns:xlink="http://www.w3.org/1999/xlink" ffdec:objectType="shape" height="9.85px" width="65.5px" xmlns="http://www.w3.org/2000/svg">
  <g transform="matrix(1.0, 0.0, 0.0, 1.0, -386.75, -249.4)">
    <path d="M445.0 252.25 L436.0 252.25 Q435.0 252.3 434.35 252.9 433.75 253.4 433.75 254.1 433.75 255.1 434.25 255.5 435.9 256.75 441.5 256.75 445.7 256.75 447.0 256.05 447.75 255.65 447.75 254.6 447.75 253.7 446.6 253.0 L445.0 252.25 M433.25 251.1 Q436.4 249.65 441.0 249.45 445.55 249.25 448.75 250.3 452.25 251.5 452.25 253.65 452.25 255.0 451.05 255.9 450.0 256.7 447.0 257.75 L432.5 257.75 Q431.1 257.7 430.35 256.8 429.75 256.1 429.75 255.25 429.75 252.7 433.25 251.1 M404.35 254.4 L404.25 254.85 404.3 255.55 Q404.75 256.0 408.0 256.75 L409.0 256.5 409.15 256.0 409.25 255.1 409.15 254.2 409.0 254.0 406.2 253.8 406.5 253.7 Q411.25 252.6 411.25 255.85 411.25 257.4 410.5 258.1 409.15 259.25 405.0 259.25 402.7 259.25 402.0 258.25 L401.75 257.25 Q401.75 255.5 404.35 254.4 M393.25 256.75 L392.5 256.75 Q388.6 256.75 387.3 255.55 L386.75 254.25 Q386.75 250.3 393.25 250.5 395.8 250.6 397.7 251.45 399.75 252.35 399.75 253.5 399.75 254.55 398.0 255.55 L394.8 256.6 396.3 255.9 398.25 254.25 Q395.3 251.15 392.35 251.7 389.75 252.25 389.75 254.25 389.75 254.9 390.3 255.55 391.2 256.6 393.25 256.75" fill="#f7ad1f" fill-rule="evenodd" stroke="none"/>
    <path d="M445.0 252.25 L446.6 253.0 Q447.75 253.7 447.75 254.6 447.75 255.65 447.0 256.05 445.7 256.75 441.5 256.75 435.9 256.75 434.25 255.5 433.75 255.1 433.75 254.1 433.75 253.4 434.35 252.9 435.0 252.3 436.0 252.25 L445.0 252.25 M406.2 253.8 L409.0 254.0 409.15 254.2 409.25 255.1 409.15 256.0 409.0 256.5 408.0 256.75 Q404.75 256.0 404.3 255.55 L404.25 254.85 404.35 254.4 Q404.5 253.95 405.1 253.85 L406.2 253.8 M393.25 256.75 Q391.2 256.6 390.3 255.55 389.75 254.9 389.75 254.25 389.75 252.25 392.35 251.7 395.3 251.15 398.25 254.25 L396.3 255.9 394.8 256.6 393.75 256.75 393.25 256.75" fill="#fcd03a" fill-rule="evenodd" stroke="none"/>
  </g>
</svg>
