<?xml version="1.0" encoding="UTF-8" standalone="no"?>
<svg xmlns:ffdec="https://www.free-decompiler.com/flash" xmlns:xlink="http://www.w3.org/1999/xlink" ffdec:objectType="shape" height="23.55px" width="97.55px" xmlns="http://www.w3.org/2000/svg">
  <g transform="matrix(1.0, 0.0, 0.0, 1.0, 1.4, 2.6)">
    <path d="M92.1 3.65 L92.05 3.55 92.1 3.55 92.1 3.65 M92.05 3.25 L90.55 3.45 90.4 2.7 91.9 2.45 92.05 3.25 M93.15 10.35 L91.65 10.55 91.5 9.8 93.0 9.55 93.15 10.35 M93.15 10.7 L93.2 10.7 93.2 10.8 93.15 10.7 M91.3 10.6 L91.35 10.6 91.2 10.65 91.3 10.6 M90.2 3.5 L90.1 3.55 90.2 3.5 M90.0 2.75 L90.05 2.75 90.0 2.75 M83.6 3.45 Q82.3 2.5 80.65 2.75 79.0 2.95 78.05 4.25 77.0 5.55 77.25 7.25 77.45 8.9 78.85 9.95 L78.9 10.0 Q80.15 10.9 81.8 10.7 83.5 10.45 84.5 9.1 85.4 7.75 85.2 6.1 84.95 4.4 83.6 3.45 M84.0 1.4 L84.3 0.8 85.85 0.55 87.65 12.05 Q88.0 14.55 86.5 16.25 L86.45 16.3 Q85.15 17.5 83.3 17.85 L80.75 17.75 80.8 16.35 82.35 16.5 82.45 16.5 83.3 16.45 83.25 16.45 Q86.85 16.05 86.1 11.9 L85.7 11.1 Q85.35 10.75 84.9 10.7 L84.05 10.8 Q83.6 10.95 83.35 11.35 82.9 12.05 82.05 12.2 L82.0 12.2 Q79.75 12.5 77.95 11.15 76.1 9.8 75.75 7.55 75.4 5.3 76.75 3.45 L76.8 3.45 Q78.1 1.6 80.4 1.25 81.2 1.1 81.85 1.6 L82.95 1.95 Q83.6 1.9 84.0 1.4 M66.2 4.65 Q65.05 4.8 64.15 5.75 L64.1 5.8 Q63.25 6.85 63.35 8.1 L63.4 8.2 64.35 14.7 62.85 14.95 61.2 4.35 62.85 4.1 63.25 4.5 Q63.65 4.85 64.25 4.8 64.8 4.75 65.2 4.35 66.05 3.4 67.3 3.25 68.7 3.0 69.9 3.9 71.1 4.8 71.35 6.25 L72.45 13.5 70.95 13.7 70.0 7.45 70.0 7.5 Q69.8 6.0 68.65 5.25 67.55 4.45 66.2 4.65 M57.2 5.85 L58.7 15.55 57.2 15.8 55.7 6.1 57.2 5.85 M56.6 1.85 L55.15 2.05 55.05 1.65 56.55 1.4 56.6 1.85 M56.7 2.25 L56.65 2.2 56.7 2.2 56.7 2.25 M54.8 2.1 L54.7 2.15 54.8 2.1 M51.05 6.8 L46.95 7.25 46.2 7.55 Q45.9 7.8 45.75 8.2 L45.6 8.95 45.95 12.0 Q46.15 13.85 47.1 14.7 48.1 15.75 49.9 15.6 L50.05 15.6 50.55 15.5 50.65 15.45 51.65 15.15 52.4 16.45 Q51.35 16.9 50.15 17.05 48.3 17.25 46.75 16.35 L46.75 16.3 Q44.75 15.1 44.5 12.6 L43.65 4.9 45.15 4.75 45.2 5.1 Q45.25 5.75 45.75 6.15 46.25 6.5 46.85 6.45 L51.0 6.0 51.05 6.8 M38.25 3.15 L39.8 3.05 39.8 3.5 38.3 3.65 38.25 3.15 M33.25 7.1 L34.85 7.15 34.75 17.85 33.15 17.85 33.0 17.5 32.3 16.95 31.4 16.9 30.65 17.35 Q30.1 17.95 29.25 17.95 26.95 17.95 25.35 16.3 23.75 14.7 23.75 12.4 23.75 10.1 25.4 8.45 L25.4 8.5 Q27.0 6.9 29.35 6.9 30.15 6.9 30.75 7.55 31.05 7.9 31.5 8.0 L32.4 7.95 33.1 7.4 33.25 7.1 M40.05 7.6 L40.7 17.35 39.2 17.45 38.55 7.7 40.05 7.6 M26.45 9.6 Q25.25 10.8 25.25 12.45 25.25 14.1 26.45 15.3 L26.5 15.35 Q27.65 16.45 29.3 16.45 30.9 16.45 32.1 15.35 L32.1 15.3 Q33.3 14.1 33.3 12.45 33.3 10.8 32.1 9.6 30.9 8.4 29.3 8.4 27.65 8.4 26.45 9.6 M13.15 5.5 L14.45 11.65 14.9 12.45 Q15.25 12.8 15.75 12.85 L16.65 12.65 17.25 12.0 20.1 5.8 22.1 5.9 17.25 16.4 14.25 16.25 13.35 12.0 12.85 11.2 Q12.45 10.85 11.95 10.8 11.4 10.8 11.0 11.1 10.55 11.4 10.45 11.9 L9.2 16.05 6.1 15.9 2.3 5.0 4.25 5.1 6.5 11.45 7.05 12.2 7.95 12.45 8.8 12.15 9.35 11.4 11.2 5.4 13.15 5.5" fill="#31af05" fill-rule="evenodd" stroke="none"/>
    <path d="M79.9 -1.7 L79.95 -1.7 81.8 -1.65 82.45 -1.9 86.9 -2.6 88.0 -2.35 Q88.5 -2.0 88.6 -1.35 L88.8 0.0 89.65 -0.25 89.6 -0.2 91.9 -0.55 91.8 -0.55 Q92.9 -0.8 93.8 -0.15 94.65 0.45 94.8 1.6 L94.8 1.5 95.05 3.1 95.05 3.2 Q95.15 4.15 94.65 4.95 L94.6 5.05 Q94.0 5.9 93.0 6.15 L92.9 6.15 90.6 6.5 90.55 6.5 89.8 6.5 89.9 7.1 90.75 6.85 90.7 6.9 93.0 6.55 92.9 6.55 Q94.05 6.25 95.0 7.05 L94.95 7.05 Q95.65 7.6 95.9 8.6 L95.9 8.65 96.15 10.25 96.15 10.35 Q96.25 11.35 95.7 12.2 95.1 13.0 94.1 13.25 L94.0 13.25 91.7 13.6 91.65 13.6 90.7 13.55 Q90.55 16.3 88.65 18.35 L88.6 18.4 Q86.6 20.3 83.8 20.8 L83.75 20.8 Q81.15 21.15 78.65 20.3 L77.9 19.7 Q77.6 19.25 77.65 18.75 L77.9 14.6 76.2 13.6 76.15 13.55 75.4 12.95 75.65 14.55 75.4 15.65 74.4 16.25 69.95 16.9 Q69.3 16.95 68.85 16.6 68.3 16.25 68.25 15.65 L67.05 7.9 67.0 7.85 67.0 7.75 66.85 7.65 66.65 7.6 66.4 7.7 66.35 7.85 66.35 7.75 67.55 15.75 Q67.6 16.35 67.25 16.85 L66.3 17.45 61.85 18.15 61.2 18.1 60.65 18.3 56.2 19.0 Q55.55 19.05 55.1 18.7 L54.85 18.5 Q52.8 19.8 50.5 20.05 L50.45 20.05 Q47.6 20.35 45.2 18.9 44.35 18.45 43.75 17.85 L43.8 18.65 43.45 19.75 Q43.0 20.2 42.4 20.25 L37.9 20.55 37.3 20.45 Q36.85 20.85 36.25 20.85 L31.75 20.8 31.05 20.65 29.25 20.95 Q25.65 20.95 23.2 18.4 21.75 16.95 21.2 15.15 L19.6 18.6 19.0 19.25 18.15 19.45 12.95 19.2 Q12.45 19.2 12.05 18.85 L11.6 18.25 11.15 18.85 10.2 19.1 4.95 18.85 4.1 18.55 3.6 17.85 -1.3 3.9 Q-1.5 3.4 -1.3 2.95 L-0.75 2.15 Q-0.35 1.85 0.2 1.9 L5.45 2.15 6.25 2.45 6.8 3.15 7.85 6.15 8.7 3.4 Q8.85 2.9 9.25 2.65 9.65 2.35 10.2 2.35 L14.5 2.55 Q15.0 2.55 15.4 2.9 L15.9 3.75 16.45 6.6 17.8 3.65 18.4 3.0 19.25 2.75 24.5 3.0 25.4 3.35 25.9 4.2 25.9 4.6 Q27.5 3.9 29.35 3.9 30.35 3.9 31.2 4.25 L31.9 4.1 35.3 4.15 35.25 3.0 Q35.15 1.75 36.0 1.0 L36.1 0.9 Q36.7 0.25 37.65 0.2 L39.95 0.0 40.05 0.0 Q41.0 0.0 41.75 0.55 L41.85 0.6 Q42.45 1.15 42.7 1.95 L46.35 1.55 Q46.95 1.5 47.45 1.9 47.95 2.25 48.0 2.9 L48.05 3.3 52.15 2.85 52.2 2.85 52.05 1.7 52.05 1.8 Q51.75 0.6 52.55 -0.3 53.25 -1.2 54.3 -1.3 L54.25 -1.25 56.55 -1.6 56.45 -1.6 Q57.6 -1.9 58.55 -1.1 L58.5 -1.1 Q59.2 -0.55 59.45 0.45 L59.45 0.55 59.6 1.6 63.75 0.95 64.6 1.05 Q65.6 0.45 66.85 0.3 69.5 -0.1 71.7 1.5 72.75 2.25 73.4 3.3 L74.35 1.7 74.35 1.65 Q76.4 -1.15 79.9 -1.7 M83.6 3.45 Q84.95 4.4 85.2 6.1 85.4 7.75 84.5 9.1 83.5 10.45 81.8 10.7 80.15 10.9 78.9 10.0 L78.85 9.95 Q77.45 8.9 77.25 7.25 77.0 5.55 78.05 4.25 79.0 2.95 80.65 2.75 82.3 2.5 83.6 3.45 M90.0 2.75 L90.05 2.75 90.0 2.75 M90.2 3.5 L90.1 3.55 90.2 3.5 M91.3 10.6 L91.2 10.65 91.35 10.6 91.3 10.6 M93.15 10.7 L93.2 10.8 93.2 10.7 93.15 10.7 M93.15 10.35 L93.0 9.55 91.5 9.8 91.65 10.55 93.15 10.35 M92.05 3.25 L91.9 2.45 90.4 2.7 90.55 3.45 92.05 3.25 M92.1 3.65 L92.1 3.55 92.05 3.55 92.1 3.65 M81.8 5.85 L81.05 5.7 Q80.65 5.75 80.45 6.1 L80.4 6.15 Q80.1 6.45 80.2 6.85 80.25 7.25 80.65 7.55 L81.4 7.75 82.05 7.35 82.25 6.5 81.85 5.9 81.8 5.85 M54.8 2.1 L54.7 2.15 54.8 2.1 M56.7 2.25 L56.7 2.2 56.65 2.2 56.7 2.25 M56.6 1.85 L56.55 1.4 55.05 1.65 55.15 2.05 56.6 1.85 M57.2 5.85 L55.7 6.1 57.2 15.8 58.7 15.55 57.2 5.85 M66.2 4.65 Q67.55 4.45 68.65 5.25 69.8 6.0 70.0 7.5 L70.0 7.45 70.95 13.7 72.45 13.5 71.35 6.25 Q71.1 4.8 69.9 3.9 68.7 3.0 67.3 3.25 66.05 3.4 65.2 4.35 64.8 4.75 64.25 4.8 63.65 4.85 63.25 4.5 L62.85 4.1 61.2 4.35 62.85 14.95 64.35 14.7 63.4 8.2 63.35 8.1 Q63.25 6.85 64.1 5.8 L64.15 5.75 Q65.05 4.8 66.2 4.65 M84.0 1.4 Q83.6 1.9 82.95 1.95 L81.85 1.6 Q81.2 1.1 80.4 1.25 78.1 1.6 76.8 3.45 L76.75 3.45 Q75.4 5.3 75.75 7.55 76.1 9.8 77.95 11.15 79.75 12.5 82.0 12.2 L82.05 12.2 Q82.9 12.05 83.35 11.35 83.6 10.95 84.05 10.8 L84.9 10.7 Q85.35 10.75 85.7 11.1 L86.1 11.9 Q86.85 16.05 83.25 16.45 L83.3 16.45 82.45 16.5 82.35 16.5 80.8 16.35 80.75 17.75 83.3 17.85 Q85.15 17.5 86.45 16.3 L86.5 16.25 Q88.0 14.55 87.65 12.05 L85.85 0.55 84.3 0.8 84.0 1.4 M51.65 11.9 L52.75 11.85 53.6 12.5 53.7 12.65 53.25 9.6 52.85 9.65 48.8 10.1 48.95 11.65 48.95 11.7 49.2 12.6 49.6 12.6 49.85 12.55 49.95 12.55 51.65 11.9 M40.05 7.6 L38.55 7.7 39.2 17.45 40.7 17.35 40.05 7.6 M33.25 7.1 L33.1 7.4 32.4 7.95 31.5 8.0 Q31.05 7.9 30.75 7.55 30.15 6.9 29.35 6.9 27.0 6.9 25.4 8.5 L25.4 8.45 Q23.75 10.1 23.75 12.4 23.75 14.7 25.35 16.3 26.95 17.95 29.25 17.95 30.1 17.95 30.65 17.35 L31.4 16.9 32.3 16.95 33.0 17.5 33.15 17.85 34.75 17.85 34.85 7.15 33.25 7.1 M38.25 3.15 L38.3 3.65 39.8 3.5 39.8 3.05 38.25 3.15 M51.05 6.8 L51.0 6.0 46.85 6.45 Q46.25 6.5 45.75 6.15 45.25 5.75 45.2 5.1 L45.15 4.75 43.65 4.9 44.5 12.6 Q44.75 15.1 46.75 16.3 L46.75 16.35 Q48.3 17.25 50.15 17.05 51.35 16.9 52.4 16.45 L51.65 15.15 50.65 15.45 50.55 15.5 50.05 15.6 49.9 15.6 Q48.1 15.75 47.1 14.7 46.15 13.85 45.95 12.0 L45.6 8.95 45.75 8.2 Q45.9 7.8 46.2 7.55 L46.95 7.25 51.05 6.8 M29.3 11.4 Q28.85 11.4 28.55 11.7 28.25 12.0 28.25 12.45 28.25 12.9 28.55 13.2 L28.55 13.15 Q28.85 13.45 29.3 13.45 29.7 13.45 30.05 13.15 L30.0 13.2 30.3 12.45 30.0 11.7 Q29.7 11.4 29.3 11.4 M13.15 5.5 L11.2 5.4 9.35 11.4 8.8 12.15 7.95 12.45 7.05 12.2 6.5 11.45 4.25 5.1 2.3 5.0 6.1 15.9 9.2 16.05 10.45 11.9 Q10.55 11.4 11.0 11.1 11.4 10.8 11.95 10.8 12.45 10.85 12.85 11.2 L13.35 12.0 14.25 16.25 17.25 16.4 22.1 5.9 20.1 5.8 17.25 12.0 16.65 12.65 15.75 12.85 Q15.25 12.8 14.9 12.45 L14.45 11.65 13.15 5.5 M26.45 9.6 Q27.65 8.4 29.3 8.4 30.9 8.4 32.1 9.6 33.3 10.8 33.3 12.45 33.3 14.1 32.1 15.3 L32.1 15.35 Q30.9 16.45 29.3 16.45 27.65 16.45 26.5 15.35 L26.45 15.3 Q25.25 14.1 25.25 12.45 25.25 10.8 26.45 9.6" fill="#ffffff" fill-rule="evenodd" stroke="none"/>
    <path d="M87.1 -1.15 L89.1 11.8 Q89.6 15.1 87.55 17.3 85.9 18.9 83.55 19.3 81.3 19.6 79.15 18.85 L79.4 14.65 82.45 15.0 83.0 14.95 Q85.05 14.65 84.6 12.15 83.8 13.4 82.25 13.65 79.35 14.1 77.05 12.35 74.7 10.65 74.25 7.75 73.8 4.9 75.55 2.55 77.25 0.2 80.15 -0.25 81.65 -0.5 82.8 0.45 L82.65 -0.45 87.1 -1.15 M93.3 1.75 L93.55 3.35 93.35 4.15 92.65 4.65 90.35 5.0 89.5 4.75 Q89.15 4.5 89.1 4.05 L88.85 2.45 Q88.8 2.0 89.05 1.65 89.35 1.3 89.8 1.25 L92.1 0.9 92.9 1.05 93.3 1.75 M93.75 11.75 L91.45 12.1 90.6 11.9 Q90.25 11.65 90.2 11.2 L89.95 9.6 Q89.85 9.15 90.15 8.8 90.45 8.4 90.9 8.35 L93.2 8.0 94.0 8.2 94.4 8.9 94.65 10.5 94.45 11.3 93.75 11.75 M83.25 8.2 Q83.85 7.35 83.7 6.3 83.55 5.25 82.7 4.65 81.9 4.05 80.85 4.2 79.8 4.35 79.2 5.2 78.55 6.0 78.7 7.05 78.85 8.1 79.75 8.75 80.55 9.35 81.6 9.2 82.65 9.05 83.25 8.2 M64.1 3.3 Q65.35 2.0 67.05 1.75 69.1 1.45 70.8 2.7 72.5 3.95 72.8 6.0 L74.15 14.75 69.7 15.4 68.5 7.65 Q68.4 6.85 67.75 6.45 67.15 6.0 66.4 6.1 65.75 6.2 65.25 6.75 64.8 7.3 64.85 7.95 L66.05 15.95 61.6 16.65 59.5 3.1 63.95 2.4 64.1 3.3 M58.15 2.0 L57.95 2.8 57.25 3.25 54.95 3.6 54.1 3.4 Q53.75 3.15 53.7 2.7 L53.5 1.45 Q53.4 1.0 53.7 0.65 54.0 0.25 54.45 0.2 L56.75 -0.15 57.55 0.05 57.95 0.75 58.15 2.0 M52.7 8.15 L47.1 8.75 47.45 11.85 Q47.7 14.3 49.75 14.1 L50.25 14.0 52.3 13.25 54.45 16.95 Q52.55 18.3 50.3 18.55 47.95 18.8 45.95 17.6 43.35 16.05 43.0 12.75 L42.0 3.55 46.5 3.05 46.7 4.95 52.3 4.35 52.7 8.15 M58.45 4.15 L60.4 16.8 55.95 17.5 54.0 4.85 58.45 4.15 M41.3 3.8 Q41.35 4.25 41.0 4.55 L40.3 4.95 38.0 5.15 Q37.55 5.15 37.2 4.85 36.85 4.55 36.8 4.1 L36.75 2.85 Q36.7 2.35 37.05 2.05 37.3 1.7 37.75 1.7 L40.05 1.5 40.85 1.75 41.25 2.55 41.3 3.8 M42.3 18.75 L37.8 19.05 36.95 6.3 41.45 6.0 42.3 18.75 M31.85 5.6 L36.35 5.65 36.25 19.35 31.75 19.3 31.75 18.35 Q30.75 19.45 29.25 19.45 26.3 19.45 24.25 17.35 22.25 15.3 22.25 12.4 22.25 9.5 24.35 7.4 26.4 5.4 29.35 5.4 30.85 5.4 31.85 6.55 L31.85 5.6 M27.5 10.65 Q26.75 11.4 26.75 12.45 26.75 13.5 27.5 14.25 28.25 14.95 29.3 14.95 30.3 14.95 31.05 14.25 31.8 13.5 31.8 12.45 31.8 11.4 31.05 10.65 30.3 9.9 29.3 9.9 28.25 9.9 27.5 10.65 M19.15 4.25 L24.4 4.5 18.2 17.95 13.0 17.7 11.85 12.3 10.25 17.6 5.0 17.35 0.1 3.4 5.35 3.65 7.9 10.95 10.1 3.85 14.4 4.05 15.9 11.35 19.15 4.25" fill="#31af05" fill-rule="evenodd" stroke="none"/>
  </g>
</svg>
