<?xml version="1.0" encoding="UTF-8" standalone="no"?>
<svg xmlns:ffdec="https://www.free-decompiler.com/flash" xmlns:xlink="http://www.w3.org/1999/xlink" ffdec:objectType="shape" height="34.65px" width="78.8px" xmlns="http://www.w3.org/2000/svg">
  <g transform="matrix(1.0, 0.0, 0.0, 1.0, 7.7, 3.7)">
    <path d="M-1.1 2.25 L-1.35 3.4 Q-1.5 4.0 -1.15 4.5 L-0.2 5.1 3.55 5.95 3.35 6.7 -0.4 5.9 Q-1.0 5.75 -1.5 6.1 -2.05 6.45 -2.15 7.05 L-2.9 10.4 -4.4 10.05 -2.05 -0.4 4.6 1.1 4.4 1.85 0.65 1.05 -0.1 1.1 Q-0.55 1.2 -0.8 1.55 L-1.1 2.25 M62.5 11.45 L62.2 23.05 Q62.15 25.6 60.35 26.95 58.85 28.0 57.0 27.95 L54.45 27.45 54.8 26.05 56.2 26.45 56.3 26.5 57.15 26.55 Q58.95 26.6 59.85 25.45 60.7 24.5 60.7 22.6 L60.45 21.75 59.75 21.2 58.85 21.15 58.1 21.6 Q57.6 22.15 56.75 22.15 54.4 22.1 52.85 20.45 51.25 18.75 51.3 16.5 51.4 14.2 53.05 12.6 54.7 11.0 57.0 11.1 L57.05 11.1 Q57.85 11.1 58.35 11.75 58.7 12.2 59.35 12.3 L60.45 12.0 60.9 11.4 62.5 11.45 M66.6 14.8 L66.6 14.05 68.1 14.05 68.1 14.8 66.6 14.8 M60.85 16.7 Q60.9 15.05 59.75 13.85 58.6 12.6 57.05 12.6 L56.95 12.6 Q55.3 12.55 54.1 13.7 52.9 14.8 52.8 16.5 L52.8 16.55 Q52.8 18.2 53.95 19.45 L54.0 19.45 Q55.1 20.55 56.75 20.65 L56.8 20.65 Q58.35 20.65 59.6 19.6 L59.65 19.55 Q60.8 18.45 60.85 16.8 L60.85 16.7 M68.1 21.25 L68.1 22.0 66.6 22.0 66.6 21.25 68.1 21.25 M44.3 10.5 Q45.7 10.65 46.6 11.85 47.5 13.05 47.3 14.55 L46.4 21.8 44.95 21.6 45.75 15.3 Q45.95 13.95 45.05 12.8 L45.0 12.75 Q44.1 11.7 42.8 11.55 41.55 11.35 40.55 12.1 39.4 12.85 39.15 14.1 L39.1 14.25 38.3 20.75 36.8 20.55 38.15 9.9 39.75 10.1 40.0 10.6 40.9 11.2 42.0 11.0 Q43.05 10.35 44.3 10.5 M34.85 6.0 L34.8 6.4 33.3 6.1 33.4 5.75 34.85 6.0 M34.95 5.65 L34.9 5.7 34.95 5.65 M34.7 6.8 L34.7 6.9 34.7 6.8 M33.95 10.45 L32.1 20.05 30.65 19.75 32.5 10.2 33.95 10.45 M20.6 11.7 Q19.1 10.15 19.6 8.15 L20.05 6.3 21.5 6.65 21.05 8.45 Q20.6 10.35 21.55 11.45 22.3 12.55 24.25 12.9 L24.85 13.0 25.9 12.75 26.5 11.9 27.4 8.1 28.85 8.45 27.6 13.5 Q27.05 15.75 25.35 17.05 L25.4 17.05 Q23.7 18.2 21.7 17.8 L20.95 17.6 Q19.75 17.15 18.95 16.6 L19.25 16.05 Q20.4 16.7 21.5 16.95 L21.45 16.9 Q24.6 17.7 24.85 15.3 25.0 14.7 24.7 14.2 L23.8 13.5 Q21.85 12.95 20.6 11.7 M15.85 6.0 Q16.5 7.25 16.05 8.7 L15.5 10.4 14.1 9.95 14.5 8.7 14.5 8.65 Q14.8 7.5 14.35 6.65 L14.3 6.6 Q13.8 5.65 12.8 5.25 L12.7 5.25 10.6 5.45 10.75 5.35 Q9.55 5.85 9.25 7.05 L9.25 7.0 7.15 13.5 5.7 13.05 8.95 2.85 10.65 3.4 10.75 3.65 Q11.05 4.2 11.65 4.4 L12.8 4.3 13.7 4.2 13.8 4.2 Q15.15 4.6 15.8 5.95 L15.85 6.0" fill="#ff8600" fill-rule="evenodd" stroke="none"/>
    <path d="M6.75 -1.5 Q7.35 -1.35 7.7 -0.85 L7.85 -0.55 8.5 -0.45 12.8 0.95 13.15 1.1 14.7 1.35 14.65 1.35 Q16.6 1.9 17.85 3.55 L18.2 3.25 19.35 3.05 23.7 4.1 24.6 4.8 Q24.9 5.3 24.75 5.9 L23.95 9.15 23.95 9.6 24.0 9.6 24.85 5.95 Q25.0 5.35 25.55 5.05 26.05 4.7 26.7 4.85 L30.35 5.75 30.55 4.65 30.5 4.85 Q30.65 3.7 31.55 3.1 L31.6 3.05 Q32.55 2.45 33.6 2.7 L35.9 3.15 Q36.95 3.35 37.45 4.2 L37.45 4.25 37.5 4.3 Q38.0 5.05 37.9 6.05 L37.9 6.1 37.75 6.9 41.5 7.35 42.25 7.65 44.65 7.5 Q47.3 7.85 49.0 10.05 L49.9 11.65 50.95 10.45 51.0 10.45 Q53.5 8.0 57.05 8.1 L57.1 8.1 58.95 8.5 59.6 8.35 64.1 8.45 Q64.7 8.45 65.15 8.95 65.55 9.35 65.55 10.0 L65.55 11.15 66.2 11.05 68.5 11.05 Q69.65 11.05 70.35 11.8 71.1 12.5 71.1 13.6 L71.1 15.25 Q71.1 16.35 70.35 17.05 69.65 17.8 68.5 17.8 L66.2 17.8 65.35 17.65 65.35 18.4 66.2 18.25 68.5 18.25 Q69.65 18.25 70.35 19.0 71.1 19.7 71.1 20.8 L71.1 22.4 Q71.1 23.55 70.35 24.25 69.65 25.0 68.5 25.0 L66.2 25.0 65.05 24.75 Q64.5 27.7 62.1 29.4 59.75 31.0 56.95 30.95 54.25 30.9 51.95 29.55 51.5 29.3 51.35 28.85 51.15 28.35 51.25 27.9 L52.25 23.8 50.7 22.5 49.55 21.0 49.2 23.65 Q49.1 24.25 48.65 24.65 48.15 25.0 47.55 24.95 L43.1 24.4 Q42.45 24.3 42.1 23.85 41.7 23.3 41.75 22.7 L42.75 14.9 42.8 14.9 42.65 14.65 42.7 14.65 Q42.6 14.5 42.4 14.5 L42.3 14.5 42.2 14.6 42.1 14.7 41.1 22.6 40.55 23.6 Q40.05 23.95 39.45 23.9 L34.95 23.35 34.15 23.05 33.05 23.3 28.65 22.45 Q28.0 22.3 27.7 21.8 27.3 21.3 27.45 20.7 L27.75 19.0 27.15 19.45 27.1 19.5 Q24.25 21.45 20.85 20.65 L20.75 20.65 20.35 20.55 20.05 20.45 Q17.35 19.45 16.0 18.05 15.65 17.7 15.6 17.25 15.5 16.75 15.75 16.35 L17.1 13.65 Q16.95 13.75 16.75 13.8 L16.0 13.75 11.75 12.35 Q11.15 12.15 10.9 11.65 L9.55 15.85 Q9.35 16.45 8.8 16.75 L7.65 16.85 3.35 15.45 Q2.75 15.25 2.5 14.7 2.2 14.15 2.4 13.55 L3.6 9.85 0.45 9.15 -0.3 12.55 -1.0 13.5 Q-1.55 13.8 -2.1 13.7 L-6.5 12.7 Q-7.15 12.55 -7.45 12.0 -7.8 11.5 -7.65 10.9 L-4.65 -2.5 Q-4.55 -3.15 -4.0 -3.45 L-2.85 -3.65 6.75 -1.5 M44.3 10.5 Q43.05 10.35 42.0 11.0 L40.9 11.2 40.0 10.6 39.75 10.1 38.15 9.9 36.8 20.55 38.3 20.75 39.1 14.25 39.15 14.1 Q39.4 12.85 40.55 12.1 41.55 11.35 42.8 11.55 44.1 11.7 45.0 12.75 L45.05 12.8 Q45.95 13.95 45.75 15.3 L44.95 21.6 46.4 21.8 47.3 14.55 Q47.5 13.05 46.6 11.85 45.7 10.65 44.3 10.5 M68.1 21.25 L66.6 21.25 66.6 22.0 68.1 22.0 68.1 21.25 M60.85 16.7 L60.85 16.8 Q60.8 18.45 59.65 19.55 L59.6 19.6 Q58.35 20.65 56.8 20.65 L56.75 20.65 Q55.1 20.55 54.0 19.45 L53.95 19.45 Q52.8 18.2 52.8 16.55 L52.8 16.5 Q52.9 14.8 54.1 13.7 55.3 12.55 56.95 12.6 L57.05 12.6 Q58.6 12.6 59.75 13.85 60.9 15.05 60.85 16.7 M66.6 14.8 L68.1 14.8 68.1 14.05 66.6 14.05 66.6 14.8 M62.5 11.45 L60.9 11.4 60.45 12.0 59.35 12.3 Q58.7 12.2 58.35 11.75 57.85 11.1 57.05 11.1 L57.0 11.1 Q54.7 11.0 53.05 12.6 51.4 14.2 51.3 16.5 51.25 18.75 52.85 20.45 54.4 22.1 56.75 22.15 57.6 22.15 58.1 21.6 L58.85 21.15 59.75 21.2 60.45 21.75 60.7 22.6 Q60.7 24.5 59.85 25.45 58.95 26.6 57.15 26.55 L56.3 26.5 56.2 26.45 54.8 26.05 54.45 27.45 57.0 27.95 Q58.85 28.0 60.35 26.95 62.15 25.6 62.2 23.05 L62.5 11.45 M-1.1 2.25 L-0.8 1.55 Q-0.55 1.2 -0.1 1.1 L0.65 1.05 4.4 1.85 4.6 1.1 -2.05 -0.4 -4.4 10.05 -2.9 10.4 -2.15 7.05 Q-2.05 6.45 -1.5 6.1 -1.0 5.75 -0.4 5.9 L3.35 6.7 3.55 5.95 -0.2 5.1 -1.15 4.5 Q-1.5 4.0 -1.35 3.4 L-1.1 2.25 M57.85 16.7 L57.85 16.65 57.55 15.9 Q57.3 15.6 56.95 15.6 L56.9 15.6 Q56.45 15.6 56.15 15.9 55.85 16.15 55.8 16.55 L55.8 16.65 56.15 17.4 56.1 17.35 Q56.4 17.6 56.8 17.65 L56.9 17.65 57.6 17.35 57.85 16.7 M15.85 6.0 L15.8 5.95 Q15.15 4.6 13.8 4.2 L13.7 4.2 12.8 4.3 11.65 4.4 Q11.05 4.2 10.75 3.65 L10.65 3.4 8.95 2.85 5.7 13.05 7.15 13.5 9.25 7.0 9.25 7.05 Q9.55 5.85 10.75 5.35 L10.6 5.45 12.7 5.25 12.8 5.25 Q13.8 5.65 14.3 6.6 L14.35 6.65 Q14.8 7.5 14.5 8.65 L14.5 8.7 14.1 9.95 15.5 10.4 16.05 8.7 Q16.5 7.25 15.85 6.0 M20.6 11.7 Q21.85 12.95 23.8 13.5 L24.7 14.2 Q25.0 14.7 24.85 15.3 24.6 17.7 21.45 16.9 L21.5 16.95 Q20.4 16.7 19.25 16.05 L18.95 16.6 Q19.75 17.15 20.95 17.6 L21.7 17.8 Q23.7 18.2 25.4 17.05 L25.35 17.05 Q27.05 15.75 27.6 13.5 L28.85 8.45 27.4 8.1 26.5 11.9 25.9 12.75 24.85 13.0 24.25 12.9 Q22.3 12.55 21.55 11.45 20.6 10.35 21.05 8.45 L21.5 6.65 20.05 6.3 19.6 8.15 Q19.1 10.15 20.6 11.7 M33.95 10.45 L32.5 10.2 30.65 19.75 32.1 20.05 33.95 10.45 M34.7 6.8 L34.7 6.9 34.7 6.8 M34.95 5.65 L34.9 5.7 34.95 5.65 M34.85 6.0 L33.4 5.75 33.3 6.1 34.8 6.4 34.85 6.0" fill="#ffffff" fill-rule="evenodd" stroke="none"/>
    <path d="M-6.2 11.2 L-3.2 -2.2 6.4 -0.05 5.55 3.65 0.35 2.5 0.1 3.65 5.3 4.8 4.5 8.5 -0.7 7.35 -1.8 12.2 -6.2 11.2 M68.5 12.55 Q69.0 12.55 69.3 12.85 L69.6 13.6 69.6 15.25 69.3 16.0 68.5 16.3 66.2 16.3 Q65.75 16.3 65.45 16.0 65.1 15.7 65.1 15.25 L65.1 13.6 Q65.1 13.15 65.45 12.85 65.75 12.55 66.2 12.55 L68.5 12.55 M65.45 20.05 Q65.75 19.75 66.2 19.75 L68.5 19.75 Q69.0 19.75 69.3 20.05 L69.6 20.8 69.6 22.4 69.3 23.2 68.5 23.5 66.2 23.5 Q65.75 23.5 65.45 23.2 65.1 22.9 65.1 22.4 L65.1 20.8 Q65.1 20.35 65.45 20.05 M63.7 23.05 Q63.65 26.4 61.2 28.15 59.3 29.5 56.95 29.45 54.65 29.4 52.7 28.25 L53.7 24.1 56.6 25.0 57.15 25.05 Q59.2 25.1 59.2 22.6 58.25 23.65 56.7 23.65 53.75 23.55 51.75 21.45 49.75 19.35 49.8 16.45 49.9 13.55 52.0 11.5 54.1 9.5 57.05 9.6 58.55 9.6 59.5 10.8 L59.55 9.85 64.05 9.95 63.7 23.05 M47.8 10.95 Q49.05 12.6 48.8 14.7 L47.7 23.45 43.25 22.9 44.25 15.1 Q44.35 14.35 43.85 13.7 43.35 13.1 42.6 13.0 41.9 12.9 41.35 13.35 40.75 13.75 40.6 14.4 L39.6 22.4 35.1 21.85 36.8 8.25 41.3 8.8 41.2 9.7 Q42.7 8.8 44.45 9.0 46.5 9.25 47.8 10.95 M59.35 16.7 Q59.4 15.65 58.65 14.85 57.95 14.1 56.95 14.1 55.9 14.05 55.1 14.8 54.35 15.5 54.3 16.55 54.3 17.6 55.05 18.4 55.75 19.1 56.8 19.15 57.8 19.15 58.6 18.45 59.35 17.75 59.35 16.7 M36.4 5.85 L36.15 7.1 35.7 7.8 34.9 7.95 32.6 7.5 31.9 7.05 Q31.65 6.7 31.75 6.25 L32.0 5.0 Q32.05 4.55 32.4 4.3 L33.25 4.15 35.55 4.6 36.2 5.05 36.4 5.85 M35.7 9.25 L33.3 21.8 28.9 20.95 31.3 8.4 35.7 9.25 M26.3 6.3 L30.65 7.35 29.05 13.85 Q28.4 16.65 26.25 18.25 23.95 19.85 21.2 19.2 L20.55 19.05 Q18.25 18.2 17.05 17.0 L18.75 13.7 19.9 14.7 21.8 15.45 Q23.2 15.8 23.4 14.95 21.0 14.3 19.5 12.7 17.45 10.55 18.15 7.75 L18.95 4.5 23.3 5.55 22.5 8.8 Q22.0 10.95 24.5 11.4 L25.05 11.5 26.3 6.3 M12.1 2.95 L14.2 2.75 Q16.2 3.35 17.15 5.3 18.1 7.15 17.45 9.15 L16.45 12.3 12.2 10.9 13.05 8.2 Q13.2 7.7 13.0 7.3 L12.25 6.65 11.3 6.75 Q10.8 6.95 10.65 7.45 L8.1 15.4 3.8 14.0 8.0 0.95 12.3 2.35 12.1 2.95" fill="#ff8600" fill-rule="evenodd" stroke="none"/>
  </g>
</svg>
