<?xml version="1.0" encoding="UTF-8" standalone="no"?>
<svg xmlns:ffdec="https://www.free-decompiler.com/flash" xmlns:xlink="http://www.w3.org/1999/xlink" ffdec:objectType="shape" height="121.25px" width="66.1px" xmlns="http://www.w3.org/2000/svg">
  <g transform="matrix(1.0, 0.0, 0.0, 1.0, 30.0, 60.0)">
    <path d="M12.1 -42.85 L14.65 -46.5 Q16.55 -49.1 16.55 -49.65 16.55 -50.35 14.85 -52.15 12.75 -54.4 10.2 -54.4 L4.65 -54.0 Q3.3 -53.45 3.3 -51.15 L4.4 -46.15 4.3 -45.85 4.2 -45.8 3.75 -45.7 1.65 -47.65 Q-0.1 -49.15 -1.4 -49.15 -4.25 -49.15 -8.5 -46.3 L-10.3 -44.9 -10.55 -44.9 Q-11.7 -44.9 -12.5 -44.4 -13.35 -43.95 -13.35 -43.25 -13.35 -42.7 -12.8 -42.25 -13.85 -40.85 -14.35 -39.35 -14.55 -38.65 -17.45 -36.1 -20.3 -33.6 -20.85 -31.45 L-21.65 -28.7 -22.0 -28.75 Q-22.75 -28.75 -23.3 -28.0 -23.85 -27.25 -23.85 -26.15 -23.85 -25.2 -23.4 -24.45 L-23.6 -24.0 Q-23.6 -22.9 -20.25 -15.55 L-17.4 -9.45 -18.1 -8.45 -16.85 -8.35 -16.15 -7.1 Q-15.25 -5.45 -12.95 -2.9 -10.75 -0.35 -10.1 -0.15 L-6.45 1.0 -6.6 1.35 Q-6.9 2.6 -6.15 3.85 -5.3 5.3 -3.55 5.4 L-2.45 3.9 Q-3.15 2.55 -3.8 1.75 L-1.0 2.4 0.5 2.75 Q0.8 2.9 0.8 3.35 L-0.25 4.4 -2.55 6.05 Q-5.95 8.6 -5.95 10.9 L-5.45 15.6 -5.0 18.05 -5.3 20.15 -5.55 22.85 -7.3 23.6 -6.25 25.55 -5.55 25.05 Q-5.65 31.4 -7.25 39.5 L-7.05 40.25 Q-2.95 39.4 -1.25 31.15 -0.7 28.6 -0.4 25.2 L-0.1 21.9 0.1 22.15 0.4 24.0 Q0.4 31.95 -2.5 39.25 L-4.5 43.7 -5.4 45.95 Q-5.4 49.5 -3.3 50.35 L4.1 50.9 Q7.6 50.9 9.95 47.05 11.8 44.0 11.8 41.4 L10.9 39.2 Q10.0 37.1 10.0 34.8 L10.05 33.1 10.95 33.2 Q12.05 33.2 12.9 32.65 L12.75 34.6 13.0 39.25 13.5 44.85 10.5 46.25 10.9 47.75 13.55 45.7 13.65 45.75 14.1 45.8 Q14.75 45.8 14.9 44.45 L14.95 44.25 15.1 44.05 14.95 44.15 15.15 36.65 Q16.85 39.9 16.85 42.45 16.85 48.85 11.45 52.4 8.45 54.35 5.15 54.95 L1.7 52.35 Q1.55 53.0 3.05 55.15 L2.5 55.15 Q-2.25 55.15 -4.95 52.45 -7.6 49.8 -7.7 45.2 -9.0 47.55 -9.65 47.55 -10.5 47.55 -11.0 46.25 -11.45 45.1 -11.5 43.2 L-11.6 41.05 -11.7 39.75 -11.65 39.2 -11.25 39.6 -9.65 40.05 -9.2 40.05 -8.85 41.65 -8.75 41.65 Q-7.65 41.2 -7.8 39.4 -7.4 38.95 -7.4 38.4 -7.4 37.7 -8.05 37.25 L-8.15 37.2 -8.35 33.85 -8.6 22.45 -9.0 12.65 Q-9.0 11.45 -8.15 9.9 L-7.3 8.1 -7.35 7.65 Q-7.1 7.6 -7.55 7.6 -8.0 7.6 -8.8 8.05 -8.8 6.95 -8.35 5.9 L-7.95 4.65 Q-7.95 3.9 -9.55 2.2 L-13.3 -1.5 Q-19.1 -7.45 -20.7 -12.6 -21.45 -15.1 -22.55 -16.55 L-24.35 -18.35 Q-26.2 -20.3 -26.2 -26.2 -26.2 -28.65 -25.15 -30.75 L-24.35 -32.0 -24.35 -32.05 Q-23.55 -32.7 -20.15 -38.5 -16.15 -45.25 -15.3 -45.7 L-7.2 -50.05 -2.75 -52.15 Q-2.05 -52.15 1.5 -50.65 2.1 -51.05 2.1 -52.2 L2.15 -54.3 Q2.7 -56.95 8.35 -56.95 13.2 -56.85 15.3 -55.8 18.55 -54.25 18.55 -50.05 L17.95 -48.5 17.3 -46.6 17.55 -46.15 17.9 -45.85 18.7 -46.15 20.05 -46.5 Q23.1 -46.5 27.6 -39.95 L28.3 -38.9 27.35 -39.1 Q26.6 -39.1 26.0 -38.65 L24.4 -40.6 Q21.05 -44.35 19.85 -44.35 18.55 -44.35 15.9 -43.0 14.2 -42.15 13.1 -41.85 L12.35 -42.7 12.1 -42.85 M29.65 -36.6 L30.4 -35.25 31.55 -32.85 31.05 -31.45 Q30.55 -30.25 30.55 -29.45 L31.45 -25.85 Q32.35 -22.35 32.35 -20.4 32.35 -18.95 30.65 -17.0 28.9 -14.9 28.7 -12.1 L28.1 -10.85 27.3 -11.6 25.0 -12.1 24.95 -12.1 26.8 -13.4 27.5 -13.85 27.75 -15.0 Q27.85 -17.4 29.15 -19.45 30.4 -21.45 30.4 -23.2 L28.6 -25.65 Q26.8 -28.35 26.8 -29.8 L28.15 -33.55 28.05 -34.5 29.0 -35.1 Q29.6 -35.75 29.65 -36.6 M26.25 -8.8 L24.8 -7.3 Q21.55 -3.85 23.5 -2.3 L18.6 0.75 Q15.6 2.6 15.1 3.4 L14.4 2.6 13.85 3.05 15.0 4.05 15.15 4.85 15.75 7.7 16.35 10.0 16.45 10.35 Q16.45 12.15 15.3 15.2 L14.15 18.4 14.65 23.5 13.75 27.75 13.4 29.45 13.1 29.2 Q12.2 28.5 10.95 28.5 L10.25 28.55 11.0 20.35 Q11.9 11.95 12.8 7.25 L11.35 7.05 10.1 6.85 Q8.95 6.85 8.3 10.8 7.85 13.4 7.4 20.0 L6.6 30.8 Q5.95 36.7 4.85 39.45 L4.5 37.5 4.4 36.25 Q4.4 22.0 6.0 13.65 L6.5 13.4 Q7.05 12.95 7.05 12.35 7.05 11.75 6.5 11.35 L6.65 10.65 Q9.7 -0.8 17.2 -0.8 18.85 -0.8 20.65 -4.7 L22.65 -9.25 22.75 -9.2 Q23.65 -8.7 25.0 -8.7 L26.25 -8.8 M-9.6 36.75 L-9.65 36.75 Q-10.45 36.75 -11.0 37.1 L-10.95 36.9 -10.0 34.4 -9.9 33.9 -9.6 36.75" fill="#6a0000" fill-rule="evenodd" stroke="none"/>
    <path d="M2.75 -56.15 Q6.2 -58.3 8.35 -58.3 16.4 -58.3 19.6 -53.85 20.55 -52.5 21.2 -50.5 21.8 -48.6 21.95 -48.45 25.75 -45.3 29.4 -40.8 33.9 -35.25 33.9 -32.3 L33.65 -30.5 33.45 -28.7 Q33.45 -27.65 34.0 -24.8 L34.55 -21.65 Q34.55 -19.7 33.65 -18.2 32.45 -16.15 31.7 -12.05 31.3 -10.1 29.3 -7.55 27.05 -4.7 26.45 -2.85 25.85 -1.05 24.4 0.65 L22.15 3.05 Q21.85 3.4 21.7 4.8 L21.35 6.55 19.55 8.7 Q18.25 10.1 18.25 10.55 18.25 13.85 17.7 16.65 L17.2 18.85 17.65 24.6 17.1 29.65 16.55 34.5 Q16.55 36.2 17.3 38.7 18.05 41.2 18.05 42.65 18.05 49.85 13.85 54.6 9.4 59.65 1.9 59.65 -7.95 59.65 -11.7 49.2 -12.9 45.95 -13.3 42.05 L-13.5 38.75 Q-13.5 34.4 -12.1 30.95 -10.75 28.3 -10.75 27.75 -10.75 9.65 -19.75 -2.95 L-25.9 -10.7 Q-28.75 -14.3 -28.75 -16.85 L-28.05 -21.6 Q-28.05 -24.65 -28.4 -27.2 L-27.2 -32.8 -25.85 -35.0 -24.45 -37.15 -22.9 -38.5 Q-21.5 -39.7 -21.35 -40.15 -20.1 -44.4 -15.25 -48.3 -13.8 -49.45 -8.6 -51.7 -3.3 -54.0 -1.85 -54.0 -0.65 -54.0 2.75 -56.15 M28.3 -38.9 L27.6 -39.95 Q23.1 -46.5 20.05 -46.5 L18.7 -46.15 17.9 -45.85 17.55 -46.15 17.3 -46.6 17.95 -48.5 18.55 -50.05 Q18.55 -54.25 15.3 -55.8 13.2 -56.85 8.35 -56.95 2.7 -56.95 2.15 -54.3 L2.1 -52.2 Q2.1 -51.05 1.5 -50.65 -2.05 -52.15 -2.75 -52.15 L-7.2 -50.05 -15.3 -45.7 Q-16.15 -45.25 -20.15 -38.5 -23.55 -32.7 -24.35 -32.05 L-24.35 -32.0 -25.15 -30.75 Q-26.2 -28.65 -26.2 -26.2 -26.2 -20.3 -24.35 -18.35 L-22.55 -16.55 Q-21.45 -15.1 -20.7 -12.6 -19.1 -7.45 -13.3 -1.5 L-9.55 2.2 Q-7.95 3.9 -7.95 4.65 L-8.35 5.9 Q-8.8 6.95 -8.8 8.05 -8.0 7.6 -7.55 7.6 -7.1 7.6 -7.35 7.65 L-7.3 8.1 -8.15 9.9 Q-9.0 11.45 -9.0 12.65 L-8.6 22.45 -8.35 33.85 -8.15 37.2 Q-8.75 36.75 -9.6 36.75 L-9.9 33.9 -10.0 34.4 -10.95 36.9 -11.0 37.1 -11.25 37.25 Q-11.9 37.7 -11.9 38.4 L-11.65 39.2 -11.7 39.75 -11.6 41.05 -11.5 43.2 Q-11.45 45.1 -11.0 46.25 -10.5 47.55 -9.65 47.55 -9.0 47.55 -7.7 45.2 -7.6 49.8 -4.95 52.45 -2.25 55.15 2.5 55.15 L3.05 55.15 4.8 57.55 6.05 55.6 5.15 54.95 Q8.45 54.35 11.45 52.4 16.85 48.85 16.85 42.45 16.85 39.9 15.15 36.65 L14.95 44.15 13.5 44.85 13.0 39.25 12.75 34.6 12.9 32.65 13.1 32.5 Q14.0 31.8 14.0 30.85 14.0 30.05 13.4 29.45 L13.75 27.75 14.65 23.5 14.15 18.4 15.3 15.2 Q16.45 12.15 16.45 10.35 L16.35 10.0 15.75 7.7 15.15 4.85 15.0 4.05 17.05 5.8 15.1 3.4 Q15.6 2.6 18.6 0.75 L23.5 -2.3 Q21.55 -3.85 24.8 -7.3 L26.25 -8.8 27.3 -9.2 Q28.2 -9.7 28.2 -10.4 L28.1 -10.85 28.7 -12.1 Q28.9 -14.9 30.65 -17.0 32.35 -18.95 32.35 -20.4 32.35 -22.35 31.45 -25.85 L30.55 -29.45 Q30.55 -30.25 31.05 -31.45 L31.55 -32.85 30.4 -35.25 29.65 -36.6 29.65 -36.75 Q29.65 -37.7 29.0 -38.4 L28.3 -38.9 M-7.8 39.4 Q-7.65 41.2 -8.75 41.65 L-8.85 41.65 -9.2 40.05 -8.05 39.6 -7.8 39.4 M14.95 44.25 L14.9 44.45 Q14.75 45.8 14.1 45.8 L13.65 45.75 13.55 45.7 14.95 44.25" fill="#510000" fill-rule="evenodd" stroke="none"/>
    <path d="M9.9 -50.85 Q9.1 -50.85 8.55 -50.3 7.95 -49.75 7.95 -48.9 7.95 -48.1 8.55 -47.55 9.1 -46.95 9.9 -46.95 10.7 -46.95 11.25 -47.55 11.8 -48.1 11.8 -48.9 11.8 -49.75 11.25 -50.3 10.7 -50.85 9.9 -50.85 M-7.75 -43.2 Q-5.7 -44.6 -3.35 -44.6 -2.0 -44.6 -0.35 -42.95 1.25 -41.3 3.55 -41.3 5.3 -41.3 6.15 -42.2 7.15 -43.25 7.15 -45.65 L5.85 -47.9 Q5.85 -52.85 9.85 -52.85 11.25 -52.85 12.6 -51.85 13.8 -50.85 13.8 -50.15 13.8 -49.15 12.45 -46.55 L10.45 -43.2 Q9.45 -43.2 8.7 -42.7 7.95 -42.25 7.95 -41.55 7.95 -40.9 8.6 -40.4 L7.6 -39.05 Q8.35 -38.25 9.5 -37.85 10.35 -37.5 11.1 -37.5 L14.55 -38.75 Q18.3 -40.0 20.05 -40.0 21.65 -40.0 22.7 -37.8 23.6 -35.95 23.6 -34.2 23.6 -27.75 22.55 -24.5 21.05 -19.85 17.1 -19.85 13.75 -19.85 10.55 -22.65 7.55 -25.25 7.55 -27.4 L7.9 -29.1 8.2 -30.25 8.1 -31.65 7.55 -31.8 Q7.1 -31.8 6.1 -30.85 4.75 -29.5 4.75 -27.6 L5.05 -26.55 5.3 -24.0 Q5.3 -20.5 2.6 -19.15 L0.45 -18.2 Q-0.7 -17.6 -1.1 -16.75 L-1.0 -16.1 -0.4 -16.0 2.75 -17.35 Q5.4 -18.5 6.55 -18.5 L12.25 -17.6 Q17.8 -16.4 17.8 -14.65 L17.5 -13.25 17.25 -11.9 17.45 -11.4 17.65 -10.85 Q17.65 -9.5 15.9 -7.05 L11.9 -2.2 Q5.75 5.05 4.85 8.7 L4.4 11.0 3.75 11.35 Q3.15 11.75 3.15 12.35 3.15 12.95 3.75 13.4 L4.1 13.6 Q3.85 16.45 4.0 20.0 L4.25 27.6 3.6 31.75 Q3.3 34.65 3.3 40.2 3.3 40.7 3.9 41.2 L5.2 42.2 Q7.1 43.65 7.1 45.85 7.1 47.65 5.4 48.4 3.95 49.1 1.0 49.1 -1.3 49.1 -1.95 48.45 -2.3 48.1 -2.3 46.85 -2.3 44.4 -0.55 40.1 L1.4 34.8 2.1 26.5 2.25 23.25 Q2.25 20.6 1.65 14.45 L1.05 8.1 Q1.05 4.2 3.35 0.6 5.1 -2.1 8.0 -4.45 8.9 -4.45 9.55 -4.9 10.2 -5.4 10.2 -6.05 L11.25 -6.75 10.15 -6.55 9.55 -7.25 Q8.9 -7.75 7.95 -7.75 7.0 -7.75 6.35 -7.25 5.7 -6.8 5.7 -6.1 L5.7 -5.95 5.6 -5.95 Q-2.2 -5.95 -6.6 -8.35 -10.2 -10.35 -10.2 -13.0 L-9.95 -14.5 -9.7 -16.0 -10.05 -17.1 -10.4 -18.2 Q-10.4 -20.5 -5.45 -24.35 L-4.55 -23.85 -4.5 -25.1 -2.05 -27.1 Q-0.55 -28.55 -0.55 -29.6 L-0.55 -29.95 -0.75 -30.15 -3.35 -29.1 -5.75 -27.95 -7.65 -30.2 -9.05 -32.1 Q-9.9 -31.3 -10.1 -31.15 L-10.4 -30.8 -9.85 -29.2 Q-9.4 -27.5 -9.4 -26.8 L-9.4 -26.6 -9.6 -26.65 -9.4 -26.55 Q-9.55 -24.5 -11.9 -22.25 -14.3 -20.05 -16.0 -20.05 -16.95 -20.05 -18.4 -21.6 -19.9 -23.1 -19.9 -24.2 -19.9 -26.65 -19.05 -28.2 -18.45 -29.3 -17.0 -30.5 L-14.55 -32.65 Q-13.2 -34.15 -12.5 -36.35 -11.55 -39.6 -9.5 -41.7 -9.0 -41.8 -8.55 -42.05 -7.8 -42.55 -7.75 -43.2 M19.35 -29.7 Q19.35 -31.55 18.35 -32.85 17.4 -34.15 15.95 -34.15 14.55 -34.15 13.55 -32.85 12.6 -31.55 12.6 -29.7 12.6 -27.85 13.55 -26.5 14.55 -25.2 15.95 -25.2 17.4 -25.2 18.35 -26.5 19.35 -27.85 19.35 -29.7 M2.5 -26.0 L2.45 -26.15 1.85 -26.2 Q-0.8 -25.05 -3.1 -22.55 -5.1 -20.3 -6.25 -17.65 -7.35 -15.1 -7.05 -13.35 -6.75 -11.55 -4.9 -11.55 L-4.25 -11.65 Q-3.55 -11.85 -3.55 -12.55 L-3.9 -13.05 -4.25 -13.7 -0.8 -19.2 Q2.6 -24.55 2.6 -25.65 L2.5 -26.0 M2.75 -38.45 Q2.2 -38.9 1.2 -38.9 -1.55 -38.9 -4.0 -37.0 -6.25 -35.25 -6.25 -33.8 -6.25 -32.45 -4.55 -32.45 -1.45 -32.45 0.7 -33.45 3.35 -34.65 3.35 -37.1 3.35 -37.95 2.75 -38.45 M9.7 -13.4 Q8.1 -14.25 5.8 -14.25 3.5 -14.25 1.9 -13.4 0.25 -12.6 0.25 -11.4 0.25 -10.25 1.9 -9.45 3.5 -8.6 5.8 -8.6 8.1 -8.6 9.7 -9.45 11.35 -10.25 11.35 -11.4 11.35 -12.6 9.7 -13.4 M22.05 -19.25 Q22.9 -20.15 24.1 -20.15 25.3 -20.15 26.2 -19.25 27.05 -18.4 27.05 -17.2 27.05 -16.0 26.2 -15.1 25.3 -14.25 24.1 -14.25 22.9 -14.25 22.05 -15.1 21.15 -16.0 21.15 -17.2 21.15 -18.4 22.05 -19.25 M3.2 43.05 Q2.6 42.4 1.7 42.4 0.85 42.4 0.2 43.05 -0.4 43.65 -0.4 44.55 -0.4 45.45 0.2 46.1 0.85 46.7 1.7 46.7 2.6 46.7 3.2 46.1 3.85 45.45 3.85 44.55 3.85 43.65 3.2 43.05 M-15.2 -28.55 Q-16.1 -28.55 -16.7 -27.9 -17.35 -27.25 -17.35 -26.35 -17.35 -25.5 -16.7 -24.85 -16.1 -24.2 -15.2 -24.2 -14.35 -24.2 -13.7 -24.85 -13.1 -25.5 -13.1 -26.35 -13.1 -27.25 -13.7 -27.9 -14.35 -28.55 -15.2 -28.55 M-15.2 -13.9 Q-15.2 -15.15 -14.55 -16.05 -13.9 -16.95 -12.95 -16.95 -12.0 -16.95 -11.35 -16.05 -10.7 -15.15 -10.7 -13.9 -10.7 -12.65 -11.35 -11.75 -12.0 -10.85 -12.95 -10.85 -13.9 -10.85 -14.55 -11.75 -15.2 -12.65 -15.2 -13.9 M-3.35 23.35 Q-2.35 22.45 -2.5 22.15 L-3.25 22.1 -2.7 17.45 Q-1.85 11.3 -1.25 10.65 -0.3 11.95 -1.2 18.1 -2.25 24.95 -1.95 26.55 L-2.3 26.6 Q-3.05 26.6 -3.25 25.85 L-3.4 23.8 -3.35 23.35" fill="#ce0000" fill-rule="evenodd" stroke="none"/>
    <path d="M9.9 -50.85 Q10.7 -50.85 11.25 -50.3 11.8 -49.75 11.8 -48.9 11.8 -48.1 11.25 -47.55 10.7 -46.95 9.9 -46.95 9.1 -46.95 8.55 -47.55 7.95 -48.1 7.95 -48.9 7.95 -49.75 8.55 -50.3 9.1 -50.85 9.9 -50.85 M2.75 -38.45 Q3.35 -37.95 3.35 -37.1 3.35 -34.65 0.7 -33.45 -1.45 -32.45 -4.55 -32.45 -6.25 -32.45 -6.25 -33.8 -6.25 -35.25 -4.0 -37.0 -1.55 -38.9 1.2 -38.9 2.2 -38.9 2.75 -38.45 M2.5 -26.0 L2.6 -25.65 Q2.6 -24.55 -0.8 -19.2 L-4.25 -13.7 -3.9 -13.05 -3.55 -12.55 Q-3.55 -11.85 -4.25 -11.65 L-4.9 -11.55 Q-6.75 -11.55 -7.05 -13.35 -7.35 -15.1 -6.25 -17.65 -5.1 -20.3 -3.1 -22.55 -0.8 -25.05 1.85 -26.2 L2.45 -26.15 2.5 -26.0 M19.35 -29.7 Q19.35 -27.85 18.35 -26.5 17.4 -25.2 15.95 -25.2 14.55 -25.2 13.55 -26.5 12.6 -27.85 12.6 -29.7 12.6 -31.55 13.55 -32.85 14.55 -34.15 15.95 -34.15 17.4 -34.15 18.35 -32.85 19.35 -31.55 19.35 -29.7 M9.7 -13.4 Q11.35 -12.6 11.35 -11.4 11.35 -10.25 9.7 -9.45 8.1 -8.6 5.8 -8.6 3.5 -8.6 1.9 -9.45 0.25 -10.25 0.25 -11.4 0.25 -12.6 1.9 -13.4 3.5 -14.25 5.8 -14.25 8.1 -14.25 9.7 -13.4 M3.2 43.05 Q3.85 43.65 3.85 44.55 3.85 45.45 3.2 46.1 2.6 46.7 1.7 46.7 0.85 46.7 0.2 46.1 -0.4 45.45 -0.4 44.55 -0.4 43.65 0.2 43.05 0.85 42.4 1.7 42.4 2.6 42.4 3.2 43.05 M-15.2 -28.55 Q-14.35 -28.55 -13.7 -27.9 -13.1 -27.25 -13.1 -26.35 -13.1 -25.5 -13.7 -24.85 -14.35 -24.2 -15.2 -24.2 -16.1 -24.2 -16.7 -24.85 -17.35 -25.5 -17.35 -26.35 -17.35 -27.25 -16.7 -27.9 -16.1 -28.55 -15.2 -28.55" fill="#ff5353" fill-rule="evenodd" stroke="none"/>
    <path d="M2.75 -56.15 Q-0.65 -54.0 -1.85 -54.0 -3.3 -54.0 -8.6 -51.7 -13.8 -49.45 -15.25 -48.3 -20.1 -44.4 -21.35 -40.15 -21.5 -39.7 -22.9 -38.5 L-24.45 -37.15 -25.85 -35.0 -27.2 -32.8 -28.4 -27.2 Q-28.05 -24.65 -28.05 -21.6 L-28.75 -16.85 Q-28.75 -14.3 -25.9 -10.7 L-19.75 -2.95 Q-10.75 9.65 -10.75 27.75 -10.75 28.3 -12.1 30.95 -13.5 34.4 -13.5 38.75 L-13.3 42.05 Q-12.9 45.95 -11.7 49.2 -7.95 59.65 1.9 59.65 9.4 59.65 13.85 54.6 18.05 49.85 18.05 42.65 18.05 41.2 17.3 38.7 16.55 36.2 16.55 34.5 L17.1 29.65 17.65 24.6 17.2 18.85 17.7 16.65 Q18.25 13.85 18.25 10.55 18.25 10.1 19.55 8.7 L21.35 6.55 21.7 4.8 Q21.85 3.4 22.15 3.05 L24.4 0.65 Q25.85 -1.05 26.45 -2.85 27.05 -4.7 29.3 -7.55 31.3 -10.1 31.7 -12.05 32.45 -16.15 33.65 -18.2 34.55 -19.7 34.55 -21.65 L34.0 -24.8 Q33.45 -27.65 33.45 -28.7 L33.65 -30.5 33.9 -32.3 Q33.9 -35.25 29.4 -40.8 25.75 -45.3 21.95 -48.45 21.8 -48.6 21.2 -50.5 20.55 -52.5 19.6 -53.85 16.4 -58.3 8.35 -58.3 6.2 -58.3 2.75 -56.15 M7.45 -59.75 Q12.7 -60.7 17.05 -58.2 21.95 -55.35 23.45 -49.1 23.65 -48.65 25.95 -46.85 28.7 -44.65 31.3 -40.9 L34.55 -35.7 Q35.4 -33.9 35.4 -32.35 L35.2 -30.75 35.0 -29.15 35.15 -27.45 36.1 -21.15 35.6 -17.25 33.25 -13.5 32.55 -9.9 Q31.9 -8.45 28.55 -3.5 L26.5 0.25 Q24.75 3.25 24.0 3.25 23.7 3.25 23.05 5.5 22.3 8.1 21.3 9.1 20.0 10.45 19.35 14.35 18.85 17.05 18.85 19.5 L19.2 24.25 18.85 28.8 18.2 35.05 18.95 38.75 Q19.7 42.05 19.7 43.85 19.7 49.25 15.85 54.75 11.9 60.45 7.55 60.45 L5.3 60.85 1.7 61.25 -0.65 61.0 -1.85 60.75 -3.7 60.05 Q-6.0 59.3 -7.75 57.9 L-9.45 56.05 -11.15 53.9 Q-12.25 52.4 -13.45 48.65 -15.05 43.6 -15.05 38.75 -15.05 35.0 -13.6 30.7 L-12.15 26.2 Q-12.15 22.15 -13.55 15.3 -15.05 8.35 -16.4 6.1 -20.8 -1.5 -26.7 -9.25 L-29.15 -12.85 Q-30.0 -14.4 -30.0 -16.2 -30.0 -25.9 -29.0 -30.65 -27.95 -35.95 -25.15 -38.5 L-22.75 -40.9 Q-21.9 -42.05 -21.15 -43.95 -20.55 -45.35 -18.65 -47.35 -16.55 -49.55 -14.55 -50.55 -6.55 -54.6 -3.85 -55.25 L-2.5 -55.45 -1.25 -55.8 2.85 -58.15 Q4.55 -59.2 7.45 -59.75" fill="#000000" fill-rule="evenodd" stroke="none"/>
    <path d="M-10.3 -44.9 L-8.5 -46.3 Q-4.25 -49.15 -1.4 -49.15 -0.1 -49.15 1.65 -47.65 L3.75 -45.7 4.2 -45.8 4.3 -45.85 4.4 -46.15 3.3 -51.15 Q3.3 -53.45 4.65 -54.0 L10.2 -54.4 Q12.75 -54.4 14.85 -52.15 16.55 -50.35 16.55 -49.65 16.55 -49.1 14.65 -46.5 L12.1 -42.85 10.5 -43.2 10.45 -43.2 12.45 -46.55 Q13.8 -49.15 13.8 -50.15 13.8 -50.85 12.6 -51.85 11.25 -52.85 9.85 -52.85 5.85 -52.85 5.85 -47.9 L7.15 -45.65 Q7.15 -43.25 6.15 -42.2 5.3 -41.3 3.55 -41.3 1.25 -41.3 -0.35 -42.95 -2.0 -44.6 -3.35 -44.6 -5.7 -44.6 -7.75 -43.2 L-7.75 -43.25 Q-7.75 -43.95 -8.55 -44.4 -9.3 -44.85 -10.3 -44.9 M13.1 -41.85 Q14.2 -42.15 15.9 -43.0 18.55 -44.35 19.85 -44.35 21.05 -44.35 24.4 -40.6 L26.0 -38.65 25.75 -38.4 Q25.05 -37.7 25.05 -36.75 25.05 -35.8 25.75 -35.1 26.4 -34.4 27.35 -34.4 L28.05 -34.5 28.15 -33.55 26.8 -29.8 Q26.8 -28.35 28.6 -25.65 L30.4 -23.2 Q30.4 -21.45 29.15 -19.45 27.85 -17.4 27.75 -15.0 L27.5 -13.85 26.8 -13.4 24.95 -12.1 Q23.6 -12.1 22.75 -11.6 21.8 -11.1 21.8 -10.4 21.8 -9.75 22.65 -9.25 L20.65 -4.7 Q18.85 -0.8 17.2 -0.8 9.7 -0.8 6.65 10.65 L6.5 11.35 Q5.9 10.9 5.1 10.9 L4.4 11.0 4.85 8.7 Q5.75 5.05 11.9 -2.2 L15.9 -7.05 Q17.65 -9.5 17.65 -10.85 L17.45 -11.4 17.25 -11.9 17.5 -13.25 17.8 -14.65 Q17.8 -16.4 12.25 -17.6 L6.55 -18.5 Q5.4 -18.5 2.75 -17.35 L-0.4 -16.0 -1.0 -16.1 -1.1 -16.75 Q-0.7 -17.6 0.45 -18.2 L2.6 -19.15 Q5.3 -20.5 5.3 -24.0 L5.05 -26.55 4.75 -27.6 Q4.75 -29.5 6.1 -30.85 7.1 -31.8 7.55 -31.8 L8.1 -31.65 8.2 -30.25 7.9 -29.1 7.55 -27.4 Q7.55 -25.25 10.55 -22.65 13.75 -19.85 17.1 -19.85 21.05 -19.85 22.55 -24.5 23.6 -27.75 23.6 -34.2 23.6 -35.95 22.7 -37.8 21.65 -40.0 20.05 -40.0 18.3 -40.0 14.55 -38.75 L11.1 -37.5 Q10.35 -37.5 9.5 -37.85 8.35 -38.25 7.6 -39.05 L8.6 -40.4 8.7 -40.35 Q9.45 -39.9 10.5 -39.9 11.6 -39.9 12.35 -40.35 13.1 -40.85 13.1 -41.55 L13.1 -41.85 M10.05 33.1 L10.0 34.8 Q10.0 37.1 10.9 39.2 L11.8 41.4 Q11.8 44.0 9.95 47.05 7.6 50.9 4.1 50.9 L-3.3 50.35 Q-5.4 49.5 -5.4 45.95 L-4.5 43.7 -2.5 39.25 Q0.4 31.95 0.4 24.0 L0.1 22.15 -0.1 21.9 -0.4 25.2 Q-0.7 28.6 -1.25 31.15 -2.95 39.4 -7.05 40.25 L-7.25 39.5 Q-5.65 31.4 -5.55 25.05 L-3.35 23.35 -3.4 23.8 -3.25 25.85 Q-3.05 26.6 -2.3 26.6 L-1.95 26.55 Q-2.25 24.95 -1.2 18.1 -0.3 11.95 -1.25 10.65 -1.85 11.3 -2.7 17.45 L-3.25 22.1 -5.55 22.85 -5.3 20.15 -5.0 18.05 -5.45 15.6 -5.95 10.9 Q-5.95 8.6 -2.55 6.05 L-0.25 4.4 0.8 3.35 Q0.8 2.9 0.5 2.75 L-1.0 2.4 -3.8 1.75 Q-4.55 0.7 -5.25 0.45 -6.1 0.1 -6.45 1.0 L-10.1 -0.15 Q-10.75 -0.35 -12.95 -2.9 -15.25 -5.45 -16.15 -7.1 L-16.85 -8.35 -14.1 -9.65 -14.85 -10.95 Q-16.6 -10.1 -17.4 -9.45 L-20.25 -15.55 Q-23.6 -22.9 -23.6 -24.0 L-23.4 -24.45 -23.3 -24.3 Q-22.75 -23.55 -22.0 -23.55 -21.25 -23.55 -20.7 -24.3 -20.15 -25.05 -20.15 -26.15 -20.15 -27.25 -20.7 -28.0 -21.1 -28.55 -21.65 -28.7 L-20.85 -31.45 Q-20.3 -33.6 -17.45 -36.1 -14.55 -38.65 -14.35 -39.35 -13.85 -40.85 -12.8 -42.25 L-12.5 -42.05 Q-11.7 -41.6 -10.55 -41.6 L-9.5 -41.7 Q-11.55 -39.6 -12.5 -36.35 -13.2 -34.15 -14.55 -32.65 L-17.0 -30.5 Q-18.45 -29.3 -19.05 -28.2 -19.9 -26.65 -19.9 -24.2 -19.9 -23.1 -18.4 -21.6 -16.95 -20.05 -16.0 -20.05 -14.3 -20.05 -11.9 -22.25 -9.55 -24.5 -9.4 -26.55 L-5.45 -24.35 Q-10.4 -20.5 -10.4 -18.2 L-10.05 -17.1 -9.7 -16.0 -9.95 -14.5 -10.2 -13.0 Q-10.2 -10.35 -6.6 -8.35 -2.2 -5.95 5.6 -5.95 L5.7 -5.95 Q5.75 -5.35 6.35 -4.9 7.0 -4.45 7.95 -4.45 L8.0 -4.45 Q5.1 -2.1 3.35 0.6 1.05 4.2 1.05 8.1 L1.65 14.45 Q2.25 20.6 2.25 23.25 L2.1 26.5 1.4 34.8 -0.55 40.1 Q-2.3 44.4 -2.3 46.85 -2.3 48.1 -1.95 48.45 -1.3 49.1 1.0 49.1 3.95 49.1 5.4 48.4 7.1 47.65 7.1 45.85 7.1 43.65 5.2 42.2 L3.9 41.2 Q3.3 40.7 3.3 40.2 3.3 34.65 3.6 31.75 L4.25 27.6 4.0 20.0 Q3.85 16.45 4.1 13.6 L5.1 13.8 6.0 13.65 Q4.4 22.0 4.4 36.25 L4.5 37.5 4.85 39.45 Q5.95 36.7 6.6 30.8 L7.4 20.0 Q7.85 13.4 8.3 10.8 8.95 6.85 10.1 6.85 L11.35 7.05 12.8 7.25 Q11.9 11.95 11.0 20.35 L10.25 28.55 Q9.45 28.7 8.8 29.2 7.9 29.9 7.9 30.85 7.9 31.8 8.8 32.5 9.35 32.95 10.05 33.1 M12.4 -18.2 L13.65 -20.15 9.3 -23.4 Q9.1 -22.45 12.4 -18.2 M10.2 -6.05 L10.2 -6.1 10.15 -6.55 11.25 -6.75 10.2 -6.05 M22.05 -19.25 Q21.15 -18.4 21.15 -17.2 21.15 -16.0 22.05 -15.1 22.9 -14.25 24.1 -14.25 25.3 -14.25 26.2 -15.1 27.05 -16.0 27.05 -17.2 27.05 -18.4 26.2 -19.25 25.3 -20.15 24.1 -20.15 22.9 -20.15 22.05 -19.25 M-9.4 -26.6 L-9.4 -26.8 Q-9.4 -27.5 -9.85 -29.2 L-10.4 -30.8 -10.1 -31.15 Q-9.9 -31.3 -9.05 -32.1 L-7.65 -30.2 -5.75 -27.95 -3.35 -29.1 -0.75 -30.15 -0.55 -29.95 -0.55 -29.6 Q-0.55 -28.55 -2.05 -27.1 L-4.5 -25.1 -9.4 -26.6 M-15.2 -13.9 Q-15.2 -12.65 -14.55 -11.75 -13.9 -10.85 -12.95 -10.85 -12.0 -10.85 -11.35 -11.75 -10.7 -12.65 -10.7 -13.9 -10.7 -15.15 -11.35 -16.05 -12.0 -16.95 -12.95 -16.95 -13.9 -16.95 -14.55 -16.05 -15.2 -15.15 -15.2 -13.9" fill="#8c0000" fill-rule="evenodd" stroke="none"/>
    <path d="M12.1 -42.85 L12.35 -42.7 13.1 -41.85 13.1 -41.55 Q13.1 -40.85 12.35 -40.35 11.6 -39.9 10.5 -39.9 9.45 -39.9 8.7 -40.35 L8.6 -40.4 Q7.95 -40.9 7.95 -41.55 7.95 -42.25 8.7 -42.7 9.45 -43.2 10.45 -43.2 L10.5 -43.2 12.1 -42.85 M26.0 -38.65 Q26.6 -39.1 27.35 -39.1 L28.3 -38.9 29.0 -38.4 Q29.65 -37.7 29.65 -36.75 L29.65 -36.6 Q29.6 -35.75 29.0 -35.1 L28.05 -34.5 27.35 -34.4 Q26.4 -34.4 25.75 -35.1 25.05 -35.8 25.05 -36.75 25.05 -37.7 25.75 -38.4 L26.0 -38.65 M-8.15 37.2 L-8.05 37.25 Q-7.4 37.7 -7.4 38.4 -7.4 38.95 -7.8 39.4 L-8.05 39.6 -9.2 40.05 -9.65 40.05 -11.25 39.6 -11.65 39.2 -11.9 38.4 Q-11.9 37.7 -11.25 37.25 L-11.0 37.1 Q-10.45 36.75 -9.65 36.75 L-9.6 36.75 Q-8.75 36.75 -8.15 37.2 M3.05 55.15 Q1.55 53.0 1.7 52.35 L5.15 54.95 6.05 55.6 4.8 57.55 3.05 55.15 M14.95 44.15 L15.1 44.05 14.95 44.25 13.55 45.7 10.9 47.75 10.5 46.25 13.5 44.85 14.95 44.15 M12.9 32.65 Q12.05 33.2 10.95 33.2 L10.05 33.1 Q9.35 32.95 8.8 32.5 7.9 31.8 7.9 30.85 7.9 29.9 8.8 29.2 9.45 28.7 10.25 28.55 L10.95 28.5 Q12.2 28.5 13.1 29.2 L13.4 29.45 Q14.0 30.05 14.0 30.85 14.0 31.8 13.1 32.5 L12.9 32.65 M-5.55 25.05 L-6.25 25.55 -7.3 23.6 -5.55 22.85 -3.25 22.1 -2.5 22.15 Q-2.35 22.45 -3.35 23.35 L-5.55 25.05 M-3.8 1.75 Q-3.15 2.55 -2.45 3.9 L-3.55 5.4 Q-5.3 5.3 -6.15 3.85 -6.9 2.6 -6.6 1.35 L-6.45 1.0 Q-6.1 0.1 -5.25 0.45 -4.55 0.7 -3.8 1.75 M-16.85 -8.35 L-18.1 -8.45 -17.4 -9.45 Q-16.6 -10.1 -14.85 -10.95 L-14.1 -9.65 -16.85 -8.35 M-23.4 -24.45 Q-23.85 -25.2 -23.85 -26.15 -23.85 -27.25 -23.3 -28.0 -22.75 -28.75 -22.0 -28.75 L-21.65 -28.7 Q-21.1 -28.55 -20.7 -28.0 -20.15 -27.25 -20.15 -26.15 -20.15 -25.05 -20.7 -24.3 -21.25 -23.55 -22.0 -23.55 -22.75 -23.55 -23.3 -24.3 L-23.4 -24.45 M-12.8 -42.25 Q-13.35 -42.7 -13.35 -43.25 -13.35 -43.95 -12.5 -44.4 -11.7 -44.9 -10.55 -44.9 L-10.3 -44.9 Q-9.3 -44.85 -8.55 -44.4 -7.75 -43.95 -7.75 -43.25 L-7.75 -43.2 Q-7.8 -42.55 -8.55 -42.05 -9.0 -41.8 -9.5 -41.7 L-10.55 -41.6 Q-11.7 -41.6 -12.5 -42.05 L-12.8 -42.25 M28.1 -10.85 L28.2 -10.4 Q28.2 -9.7 27.3 -9.2 L26.25 -8.8 25.0 -8.7 Q23.65 -8.7 22.75 -9.2 L22.65 -9.25 Q21.8 -9.75 21.8 -10.4 21.8 -11.1 22.75 -11.6 23.6 -12.1 24.95 -12.1 L25.0 -12.1 27.3 -11.6 28.1 -10.85 M15.1 3.4 L17.05 5.8 15.0 4.05 13.85 3.05 14.4 2.6 15.1 3.4 M4.4 11.0 L5.1 10.9 Q5.9 10.9 6.5 11.35 7.05 11.75 7.05 12.35 7.05 12.95 6.5 13.4 L6.0 13.65 5.1 13.8 4.1 13.6 3.75 13.4 Q3.15 12.95 3.15 12.35 3.15 11.75 3.75 11.35 L4.4 11.0 M12.4 -18.2 Q9.1 -22.45 9.3 -23.4 L13.65 -20.15 12.4 -18.2 M5.7 -5.95 L5.7 -6.1 Q5.7 -6.8 6.35 -7.25 7.0 -7.75 7.95 -7.75 8.9 -7.75 9.55 -7.25 L10.15 -6.55 10.2 -6.1 10.2 -6.05 Q10.2 -5.4 9.55 -4.9 8.9 -4.45 8.0 -4.45 L7.95 -4.45 Q7.0 -4.45 6.35 -4.9 5.75 -5.35 5.7 -5.95 M-5.45 -24.35 L-9.4 -26.55 -9.6 -26.65 -9.4 -26.6 -4.5 -25.1 -4.55 -23.85 -5.45 -24.35" fill="#ee8300" fill-rule="evenodd" stroke="none"/>
  </g>
</svg>
