<?xml version="1.0" encoding="UTF-8" standalone="no"?>
<svg xmlns:ffdec="https://www.free-decompiler.com/flash" xmlns:xlink="http://www.w3.org/1999/xlink" ffdec:objectType="shape" height="121.25px" width="66.1px" xmlns="http://www.w3.org/2000/svg">
  <g transform="matrix(1.0, 0.0, 0.0, 1.0, 30.0, 60.0)">
    <path d="M-21.75 -15.25 L-22.55 -16.55 -24.35 -18.35 Q-26.2 -20.3 -26.2 -26.2 -26.2 -28.65 -25.15 -30.75 L-24.35 -32.0 -24.35 -32.05 Q-23.55 -32.7 -20.15 -38.5 -16.15 -45.25 -15.3 -45.7 L-7.2 -50.05 -2.75 -52.15 Q-2.05 -52.15 1.5 -50.65 2.1 -51.05 2.1 -52.2 L2.15 -54.3 Q2.7 -56.95 8.35 -56.95 13.2 -56.85 15.3 -55.8 18.55 -54.25 18.55 -50.05 L17.95 -48.5 17.3 -46.6 17.55 -46.15 17.9 -45.85 18.7 -46.15 20.05 -46.5 Q23.1 -46.5 27.6 -39.95 L30.4 -35.25 31.55 -32.85 31.05 -31.45 Q30.55 -30.25 30.55 -29.45 L31.45 -25.85 Q32.35 -22.35 32.35 -20.4 32.35 -18.95 30.65 -17.0 28.9 -14.9 28.7 -12.1 28.6 -11.35 27.3 -9.9 L24.8 -7.3 Q21.55 -3.85 23.5 -2.3 L18.6 0.75 Q14.95 3.0 14.95 3.7 L15.15 4.85 15.65 7.3 15.2 7.25 Q13.5 7.3 13.5 8.65 L13.8 9.65 Q14.25 10.5 15.1 10.5 L16.2 10.3 16.45 10.2 16.45 10.35 Q16.45 12.15 15.3 15.2 L14.15 18.4 14.65 23.5 13.75 27.75 Q12.75 32.25 12.75 34.6 L13.0 39.0 Q12.6 38.75 12.15 38.75 11.4 38.75 10.85 39.1 10.0 37.05 10.0 34.8 10.0 29.5 11.0 20.35 11.9 11.95 12.8 7.25 L11.35 7.05 10.1 6.85 Q8.95 6.85 8.3 10.8 7.85 13.4 7.4 20.0 L6.6 30.8 Q5.95 36.7 4.85 39.45 L4.5 37.5 4.4 36.25 Q4.4 28.85 4.85 23.1 L5.25 22.9 5.45 22.0 5.0 20.85 Q5.55 14.8 6.65 10.65 9.7 -0.8 17.2 -0.8 18.85 -0.8 20.65 -4.7 L20.75 -4.85 Q21.35 -5.0 21.7 -5.55 22.05 -6.15 22.05 -6.9 L21.85 -7.4 22.85 -9.75 Q25.05 -12.65 26.8 -13.4 L27.5 -13.85 27.75 -15.0 Q27.85 -17.4 29.15 -19.45 30.4 -21.45 30.4 -23.2 L28.6 -25.65 Q26.8 -28.35 26.8 -29.8 L28.15 -33.55 Q28.15 -36.45 24.4 -40.6 21.05 -44.35 19.85 -44.35 18.55 -44.35 15.9 -43.0 13.2 -41.65 11.9 -41.65 L11.65 -41.85 11.7 -42.2 14.65 -46.5 Q16.55 -49.1 16.55 -49.65 16.55 -50.35 14.85 -52.15 12.75 -54.4 10.2 -54.4 L4.65 -54.0 Q3.3 -53.45 3.3 -51.15 L4.4 -46.15 4.3 -45.85 4.2 -45.8 3.75 -45.7 1.65 -47.65 Q-0.1 -49.15 -1.4 -49.15 -4.1 -49.15 -8.05 -46.55 L-8.2 -46.6 Q-9.75 -46.6 -10.45 -45.8 L-10.9 -44.55 -10.85 -44.4 Q-13.5 -42.0 -14.35 -39.35 -14.55 -38.65 -17.45 -36.1 -20.3 -33.6 -20.85 -31.45 -21.5 -28.75 -22.65 -26.25 L-23.6 -24.0 Q-23.6 -22.9 -20.25 -15.55 L-19.5 -13.9 Q-20.3 -15.3 -21.4 -15.3 L-21.75 -15.25 M-20.1 -10.95 L-19.55 -11.45 Q-19.0 -12.15 -19.0 -12.8 L-16.15 -7.1 Q-15.25 -5.45 -12.95 -2.9 L-12.0 -1.85 -12.95 -1.15 -13.3 -1.5 Q-18.2 -6.5 -20.1 -10.95 M-9.55 2.2 L-9.5 1.05 -9.6 0.05 Q-5.1 1.5 -1.0 2.4 L0.5 2.75 Q0.8 2.9 0.8 3.35 L-0.25 4.4 -2.55 6.05 Q-5.95 8.6 -5.95 10.9 L-5.45 15.6 -5.0 18.05 -5.3 20.15 -5.55 23.45 Q-5.5 28.0 -6.25 33.55 -7.05 33.55 -7.05 34.4 L-6.7 35.85 -6.6 36.0 -7.25 39.5 -7.05 40.25 Q-2.95 39.4 -1.25 31.15 -0.7 28.6 -0.4 25.2 L-0.1 21.9 0.1 22.15 0.4 24.0 Q0.4 31.95 -2.5 39.25 L-4.5 43.7 -5.4 45.95 Q-5.4 49.5 -3.3 50.35 L4.1 50.9 Q7.6 50.9 9.95 47.05 11.2 45.0 11.6 43.15 L11.85 43.15 Q12.5 43.15 13.25 42.35 L13.3 42.35 13.55 45.7 13.65 45.75 14.1 45.8 Q14.75 45.8 14.9 44.45 L15.15 36.65 Q16.85 39.9 16.85 42.45 16.85 48.85 11.45 52.4 8.5 54.35 5.25 54.95 L5.05 54.3 Q4.7 53.5 3.85 53.5 2.4 53.5 2.0 54.0 1.75 54.3 1.7 55.15 -2.5 54.9 -4.95 52.45 -7.6 49.8 -7.7 45.2 -9.0 47.55 -9.65 47.55 -10.5 47.55 -11.0 46.25 -11.45 45.1 -11.5 43.2 L-11.6 41.05 -11.7 39.75 Q-11.7 39.0 -10.95 36.9 L-10.0 34.4 -9.9 33.9 Q-9.2 41.2 -8.85 41.65 L-8.75 41.65 Q-7.65 41.2 -7.8 39.35 L-8.15 37.3 -8.35 33.85 -8.6 22.45 -9.0 12.65 Q-9.0 11.45 -8.15 9.9 L-7.3 8.1 -7.35 7.65 Q-7.1 7.6 -7.55 7.6 -8.0 7.6 -8.8 8.05 -8.8 6.95 -8.35 5.9 L-7.95 4.65 Q-7.95 3.9 -9.55 2.2" fill="#bb5e00" fill-rule="evenodd" stroke="none"/>
    <path d="M2.75 -56.15 Q6.2 -58.3 8.35 -58.3 16.4 -58.3 19.6 -53.85 20.55 -52.5 21.2 -50.5 21.8 -48.6 21.95 -48.45 25.75 -45.3 29.4 -40.8 33.9 -35.25 33.9 -32.3 L33.65 -30.5 33.45 -28.7 Q33.45 -27.65 34.0 -24.8 L34.55 -21.65 Q34.55 -19.7 33.65 -18.2 32.45 -16.15 31.7 -12.05 31.3 -10.1 29.3 -7.55 27.05 -4.7 26.45 -2.85 25.85 -1.05 24.4 0.65 L22.15 3.05 Q21.85 3.4 21.7 4.8 L21.35 6.55 19.55 8.7 Q18.25 10.1 18.25 10.55 18.25 13.85 17.7 16.65 L17.2 18.85 17.65 24.6 17.1 29.65 16.55 34.5 Q16.55 36.2 17.3 38.7 18.05 41.2 18.05 42.65 18.05 49.85 13.85 54.6 9.4 59.65 1.9 59.65 -7.95 59.65 -11.7 49.2 -12.9 45.95 -13.3 42.05 L-13.5 38.75 Q-13.5 34.4 -12.1 30.95 -10.75 28.3 -10.75 27.75 -10.75 9.65 -19.75 -2.95 L-25.9 -10.7 Q-28.75 -14.3 -28.75 -16.85 L-28.05 -21.6 Q-28.05 -24.65 -28.4 -27.2 L-27.2 -32.8 -25.85 -35.0 -24.45 -37.15 -22.9 -38.5 Q-21.5 -39.7 -21.35 -40.15 -20.1 -44.4 -15.25 -48.3 -13.8 -49.45 -8.6 -51.7 -3.3 -54.0 -1.85 -54.0 -0.65 -54.0 2.75 -56.15 M15.65 7.3 L15.15 4.85 14.95 3.7 Q14.95 3.0 18.6 0.75 L23.5 -2.3 Q21.55 -3.85 24.8 -7.3 L27.3 -9.9 Q28.6 -11.35 28.7 -12.1 28.9 -14.9 30.65 -17.0 32.35 -18.95 32.35 -20.4 32.35 -22.35 31.45 -25.85 L30.55 -29.45 Q30.55 -30.25 31.05 -31.45 L31.55 -32.85 30.4 -35.25 27.6 -39.95 Q23.1 -46.5 20.05 -46.5 L18.7 -46.15 17.9 -45.85 17.55 -46.15 17.3 -46.6 17.95 -48.5 18.55 -50.05 Q18.55 -54.25 15.3 -55.8 13.2 -56.85 8.35 -56.95 2.7 -56.95 2.15 -54.3 L2.1 -52.2 Q2.1 -51.05 1.5 -50.65 -2.05 -52.15 -2.75 -52.15 L-7.2 -50.05 -15.3 -45.7 Q-16.15 -45.25 -20.15 -38.5 -23.55 -32.7 -24.35 -32.05 L-24.35 -32.0 -25.15 -30.75 Q-26.2 -28.65 -26.2 -26.2 -26.2 -20.3 -24.35 -18.35 L-22.55 -16.55 -21.75 -15.25 Q-23.4 -15.1 -23.4 -13.3 -23.4 -12.9 -22.45 -11.85 -21.5 -10.7 -20.95 -10.7 L-20.1 -10.95 Q-18.2 -6.5 -13.3 -1.5 L-12.95 -1.15 -13.1 -0.95 -13.55 0.75 -12.9 1.95 Q-12.25 2.7 -11.5 2.7 L-10.35 2.55 -9.6 2.4 -9.55 2.2 Q-7.95 3.9 -7.95 4.65 L-8.35 5.9 Q-8.8 6.95 -8.8 8.05 -8.0 7.6 -7.55 7.6 -7.1 7.6 -7.35 7.65 L-7.3 8.1 -8.15 9.9 Q-9.0 11.45 -9.0 12.65 L-8.6 22.45 -8.35 33.85 -8.15 37.3 -7.8 39.35 Q-7.65 41.2 -8.75 41.65 L-8.85 41.65 Q-9.2 41.2 -9.9 33.9 L-10.0 34.4 -10.95 36.9 Q-11.7 39.0 -11.7 39.75 L-11.6 41.05 -11.5 43.2 Q-11.45 45.1 -11.0 46.25 -10.5 47.55 -9.65 47.55 -9.0 47.55 -7.7 45.2 -7.6 49.8 -4.95 52.45 -2.5 54.9 1.7 55.15 L1.7 55.35 Q1.7 55.7 2.3 56.25 2.9 56.85 3.3 56.85 L5.0 56.55 5.25 55.25 5.25 54.95 Q8.5 54.35 11.45 52.4 16.85 48.85 16.85 42.45 16.85 39.9 15.15 36.65 L14.9 44.45 Q14.75 45.8 14.1 45.8 L13.65 45.75 13.55 45.7 13.3 42.35 Q14.0 41.5 14.0 40.45 L13.55 39.5 13.0 39.0 12.75 34.6 Q12.75 32.25 13.75 27.75 L14.65 23.5 14.15 18.4 15.3 15.2 Q16.45 12.15 16.45 10.35 L16.45 10.2 16.8 10.1 17.0 8.75 Q16.85 7.45 15.65 7.3" fill="#954a00" fill-rule="evenodd" stroke="none"/>
    <path d="M9.9 -50.85 Q9.1 -50.85 8.55 -50.3 7.95 -49.75 7.95 -48.9 7.95 -48.1 8.55 -47.55 9.1 -46.95 9.9 -46.95 10.7 -46.95 11.25 -47.55 11.8 -48.1 11.8 -48.9 11.8 -49.75 11.25 -50.3 10.7 -50.85 9.9 -50.85 M-6.0 -44.1 L-3.35 -44.6 Q-2.0 -44.6 -0.35 -42.95 1.25 -41.3 3.55 -41.3 5.3 -41.3 6.15 -42.2 7.15 -43.25 7.15 -45.65 L5.85 -47.9 Q5.85 -52.85 9.85 -52.85 11.25 -52.85 12.6 -51.85 13.8 -50.85 13.8 -50.15 13.8 -49.15 12.45 -46.55 10.75 -43.4 7.6 -39.05 8.35 -38.25 9.5 -37.85 10.35 -37.5 11.1 -37.5 L14.55 -38.75 17.45 -39.6 Q17.95 -38.95 18.8 -38.95 L19.9 -39.15 20.55 -39.4 20.8 -39.85 Q21.9 -39.45 22.7 -37.8 23.6 -35.95 23.6 -34.2 L23.6 -32.2 Q22.2 -32.1 22.2 -30.45 22.2 -29.7 22.7 -29.15 L23.35 -28.65 Q23.1 -26.15 22.55 -24.5 21.05 -19.85 17.1 -19.85 L14.8 -20.2 Q13.85 -21.15 12.95 -21.15 L12.65 -21.1 Q11.6 -21.75 10.55 -22.65 7.55 -25.25 7.55 -27.4 L7.9 -29.1 8.2 -30.25 8.1 -31.65 7.55 -31.8 Q7.1 -31.8 6.1 -30.85 4.75 -29.5 4.75 -27.6 L5.05 -26.55 5.3 -24.0 Q5.3 -20.5 2.6 -19.15 L0.45 -18.2 Q-0.7 -17.6 -1.1 -16.75 L-1.0 -16.1 -0.4 -16.0 2.75 -17.35 Q5.4 -18.5 6.55 -18.5 L10.6 -17.85 Q10.7 -17.4 11.1 -16.9 11.9 -15.9 13.1 -15.9 14.6 -15.9 15.35 -16.7 17.8 -15.8 17.8 -14.65 L17.5 -13.25 17.25 -11.9 17.45 -11.4 17.65 -10.85 Q17.65 -9.5 15.9 -7.05 L11.9 -2.2 Q5.75 5.05 4.85 8.7 3.75 13.0 4.0 19.7 L3.3 19.5 2.1 19.8 1.65 14.45 1.05 8.1 Q1.05 4.2 3.35 0.6 5.95 -3.45 11.25 -6.75 L8.1 -6.25 5.6 -5.95 Q-2.2 -5.95 -6.6 -8.35 -10.2 -10.35 -10.2 -13.0 L-9.95 -14.5 -9.7 -16.0 -10.05 -17.1 -10.4 -18.2 Q-10.4 -20.5 -5.45 -24.35 -2.8 -26.4 -2.05 -27.1 -0.55 -28.55 -0.55 -29.6 L-0.55 -29.95 -0.75 -30.15 -3.35 -29.1 -5.75 -27.95 -7.65 -30.2 -9.05 -32.1 Q-9.9 -31.3 -10.1 -31.15 L-10.4 -30.8 -9.85 -29.2 Q-9.4 -27.5 -9.4 -26.8 -9.4 -24.65 -11.9 -22.25 -14.3 -20.05 -16.0 -20.05 -16.95 -20.05 -18.4 -21.6 -19.9 -23.1 -19.9 -24.2 -19.9 -26.65 -19.05 -28.2 -18.45 -29.3 -17.0 -30.5 L-14.55 -32.65 Q-13.2 -34.15 -12.5 -36.35 -11.45 -39.85 -9.2 -42.0 -8.7 -41.7 -8.2 -41.7 -6.0 -41.7 -6.0 -43.9 L-6.0 -44.1 M2.65 -34.9 Q3.35 -35.85 3.35 -37.1 3.35 -37.95 2.75 -38.45 2.2 -38.9 1.2 -38.9 -1.55 -38.9 -4.0 -37.0 -6.25 -35.25 -6.25 -33.8 -6.25 -32.45 -4.55 -32.45 -1.85 -32.45 0.1 -33.2 0.5 -32.65 1.25 -32.65 L2.65 -32.85 Q2.85 -33.25 2.85 -34.35 L2.65 -34.9 M-3.8 -14.45 L-0.8 -19.2 Q2.6 -24.55 2.6 -25.65 L2.5 -26.0 2.45 -26.15 1.85 -26.2 Q-0.8 -25.05 -3.1 -22.55 -5.1 -20.3 -6.25 -17.65 -7.35 -15.1 -7.05 -13.35 -6.75 -11.55 -4.9 -11.55 L-4.25 -11.65 Q-3.55 -11.85 -3.55 -12.55 L-3.9 -13.05 -3.95 -13.15 -3.9 -13.15 -3.8 -14.45 M19.35 -29.7 Q19.35 -31.55 18.35 -32.85 17.4 -34.15 15.95 -34.15 14.55 -34.15 13.55 -32.85 12.6 -31.55 12.6 -29.7 12.6 -27.85 13.55 -26.5 14.55 -25.2 15.95 -25.2 17.4 -25.2 18.35 -26.5 19.35 -27.85 19.35 -29.7 M5.8 -14.25 Q3.5 -14.25 1.9 -13.4 0.25 -12.6 0.25 -11.4 0.25 -10.25 1.9 -9.45 3.5 -8.6 5.8 -8.6 8.1 -8.6 9.7 -9.45 11.35 -10.25 11.35 -11.4 11.35 -12.6 9.7 -13.4 8.1 -14.25 5.8 -14.25 M22.05 -19.25 Q22.9 -20.15 24.1 -20.15 25.3 -20.15 26.2 -19.25 27.05 -18.4 27.05 -17.2 27.05 -16.0 26.2 -15.1 25.3 -14.25 24.1 -14.25 22.9 -14.25 22.05 -15.1 21.15 -16.0 21.15 -17.2 21.15 -18.4 22.05 -19.25 M-15.2 -28.55 Q-16.1 -28.55 -16.7 -27.9 -17.35 -27.25 -17.35 -26.35 -17.35 -25.5 -16.7 -24.85 -16.1 -24.2 -15.2 -24.2 -14.35 -24.2 -13.7 -24.85 -13.1 -25.5 -13.1 -26.35 -13.1 -27.25 -13.7 -27.9 -14.35 -28.55 -15.2 -28.55 M-14.55 -16.05 Q-13.9 -16.95 -12.95 -16.95 -12.0 -16.95 -11.35 -16.05 -10.7 -15.15 -10.7 -13.9 -10.7 -12.65 -11.35 -11.75 -12.0 -10.85 -12.95 -10.85 -13.9 -10.85 -14.55 -11.75 -15.2 -12.65 -15.2 -13.9 -15.2 -15.15 -14.55 -16.05 M-3.4 23.8 L-2.7 17.45 Q-1.85 11.3 -1.25 10.65 -0.3 11.95 -1.2 18.1 -2.25 24.95 -1.95 26.55 L-2.3 26.6 Q-3.05 26.6 -3.25 25.85 L-3.4 23.8 M4.15 23.3 L4.25 27.6 3.6 31.75 Q3.3 34.65 3.3 40.2 3.3 40.7 3.9 41.2 L5.2 42.2 Q7.1 43.65 7.1 45.85 7.1 47.65 5.4 48.4 3.95 49.1 1.0 49.1 -1.3 49.1 -1.95 48.45 -2.3 48.1 -2.3 46.85 -2.3 44.4 -0.55 40.1 L1.4 34.8 2.1 26.5 2.25 23.25 2.25 23.0 Q2.85 23.35 3.6 23.35 L4.15 23.3 M1.7 42.4 Q0.85 42.4 0.2 43.05 -0.4 43.65 -0.4 44.55 -0.4 45.45 0.2 46.1 0.85 46.7 1.7 46.7 2.6 46.7 3.2 46.1 3.85 45.45 3.85 44.55 3.85 43.65 3.2 43.05 2.6 42.4 1.7 42.4" fill="#ff8d1c" fill-rule="evenodd" stroke="none"/>
    <path d="M9.9 -50.85 Q10.7 -50.85 11.25 -50.3 11.8 -49.75 11.8 -48.9 11.8 -48.1 11.25 -47.55 10.7 -46.95 9.9 -46.95 9.1 -46.95 8.55 -47.55 7.95 -48.1 7.95 -48.9 7.95 -49.75 8.55 -50.3 9.1 -50.85 9.9 -50.85 M0.1 -33.2 Q-1.85 -32.45 -4.55 -32.45 -6.25 -32.45 -6.25 -33.8 -6.25 -35.25 -4.0 -37.0 -1.55 -38.9 1.2 -38.9 2.2 -38.9 2.75 -38.45 3.35 -37.95 3.35 -37.1 3.35 -35.85 2.65 -34.9 2.05 -35.55 -0.15 -35.55 L-0.2 -35.35 -0.3 -34.3 -0.05 -33.45 0.1 -33.2 M-3.95 -13.15 L-3.9 -13.05 -3.55 -12.55 Q-3.55 -11.85 -4.25 -11.65 L-4.9 -11.55 Q-6.75 -11.55 -7.05 -13.35 -7.35 -15.1 -6.25 -17.65 -5.1 -20.3 -3.1 -22.55 -0.8 -25.05 1.85 -26.2 L2.45 -26.15 2.5 -26.0 2.6 -25.65 Q2.6 -24.55 -0.8 -19.2 L-3.8 -14.45 Q-3.8 -16.7 -6.7 -15.85 L-6.8 -15.65 -6.95 -14.65 -6.75 -13.6 -6.55 -13.2 -5.35 -12.95 -3.95 -13.15 M19.35 -29.7 Q19.35 -27.85 18.35 -26.5 17.4 -25.2 15.95 -25.2 14.55 -25.2 13.55 -26.5 12.6 -27.85 12.6 -29.7 12.6 -31.55 13.55 -32.85 14.55 -34.15 15.95 -34.15 17.4 -34.15 18.35 -32.85 19.35 -31.55 19.35 -29.7 M5.8 -14.25 Q8.1 -14.25 9.7 -13.4 11.35 -12.6 11.35 -11.4 11.35 -10.25 9.7 -9.45 8.1 -8.6 5.8 -8.6 3.5 -8.6 1.9 -9.45 0.25 -10.25 0.25 -11.4 0.25 -12.6 1.9 -13.4 3.5 -14.25 5.8 -14.25 M-15.2 -28.55 Q-14.35 -28.55 -13.7 -27.9 -13.1 -27.25 -13.1 -26.35 -13.1 -25.5 -13.7 -24.85 -14.35 -24.2 -15.2 -24.2 -16.1 -24.2 -16.7 -24.85 -17.35 -25.5 -17.35 -26.35 -17.35 -27.25 -16.7 -27.9 -16.1 -28.55 -15.2 -28.55 M1.7 42.4 Q2.6 42.4 3.2 43.05 3.85 43.65 3.85 44.55 3.85 45.45 3.2 46.1 2.6 46.7 1.7 46.7 0.85 46.7 0.2 46.1 -0.4 45.45 -0.4 44.55 -0.4 43.65 0.2 43.05 0.85 42.4 1.7 42.4" fill="#ffb366" fill-rule="evenodd" stroke="none"/>
    <path d="M2.75 -56.15 Q-0.65 -54.0 -1.85 -54.0 -3.3 -54.0 -8.6 -51.7 -13.8 -49.45 -15.25 -48.3 -20.1 -44.4 -21.35 -40.15 -21.5 -39.7 -22.9 -38.5 L-24.45 -37.15 -25.85 -35.0 -27.2 -32.8 -28.4 -27.2 Q-28.05 -24.65 -28.05 -21.6 L-28.75 -16.85 Q-28.75 -14.3 -25.9 -10.7 L-19.75 -2.95 Q-10.75 9.65 -10.75 27.75 -10.75 28.3 -12.1 30.95 -13.5 34.4 -13.5 38.75 L-13.3 42.05 Q-12.9 45.95 -11.7 49.2 -7.95 59.65 1.9 59.65 9.4 59.65 13.85 54.6 18.05 49.85 18.05 42.65 18.05 41.2 17.3 38.7 16.55 36.2 16.55 34.5 L17.1 29.65 17.65 24.6 17.2 18.85 17.7 16.65 Q18.25 13.85 18.25 10.55 18.25 10.1 19.55 8.7 L21.35 6.55 21.7 4.8 Q21.85 3.4 22.15 3.05 L24.4 0.65 Q25.85 -1.05 26.45 -2.85 27.05 -4.7 29.3 -7.55 31.3 -10.1 31.7 -12.05 32.45 -16.15 33.65 -18.2 34.55 -19.7 34.55 -21.65 L34.0 -24.8 Q33.45 -27.65 33.45 -28.7 L33.65 -30.5 33.9 -32.3 Q33.9 -35.25 29.4 -40.8 25.75 -45.3 21.95 -48.45 21.8 -48.6 21.2 -50.5 20.55 -52.5 19.6 -53.85 16.4 -58.3 8.35 -58.3 6.2 -58.3 2.75 -56.15 M7.45 -59.75 Q12.7 -60.7 17.05 -58.2 21.95 -55.35 23.45 -49.1 23.65 -48.65 25.95 -46.85 28.7 -44.65 31.3 -40.9 L34.55 -35.7 Q35.4 -33.9 35.4 -32.35 L35.2 -30.75 35.0 -29.15 35.15 -27.45 36.1 -21.15 35.6 -17.25 33.25 -13.5 32.55 -9.9 Q31.9 -8.45 28.55 -3.5 L26.5 0.25 Q24.75 3.25 24.0 3.25 23.7 3.25 23.05 5.5 22.3 8.1 21.3 9.1 20.0 10.45 19.35 14.35 18.85 17.05 18.85 19.5 L19.2 24.25 18.85 28.8 18.2 35.05 18.95 38.75 Q19.7 42.05 19.7 43.85 19.7 49.25 15.85 54.75 11.9 60.45 7.55 60.45 L5.3 60.85 1.7 61.25 -0.65 61.0 -1.85 60.75 -3.7 60.05 Q-6.0 59.3 -7.75 57.9 L-9.45 56.05 -11.15 53.9 Q-12.25 52.4 -13.45 48.65 -15.05 43.6 -15.05 38.75 -15.05 35.0 -13.6 30.7 L-12.15 26.2 Q-12.15 22.15 -13.55 15.3 -15.05 8.35 -16.4 6.1 -20.8 -1.5 -26.7 -9.25 L-29.15 -12.85 Q-30.0 -14.4 -30.0 -16.2 -30.0 -25.9 -29.0 -30.65 -27.95 -35.95 -25.15 -38.5 L-22.75 -40.9 Q-21.9 -42.05 -21.15 -43.95 -20.55 -45.35 -18.65 -47.35 -16.55 -49.55 -14.55 -50.55 -6.55 -54.6 -3.85 -55.25 L-2.5 -55.45 -1.25 -55.8 2.85 -58.15 Q4.55 -59.2 7.45 -59.75" fill="#000000" fill-rule="evenodd" stroke="none"/>
    <path d="M-19.5 -13.9 L-20.25 -15.55 Q-23.6 -22.9 -23.6 -24.0 L-22.65 -26.25 Q-21.5 -28.75 -20.85 -31.45 -20.3 -33.6 -17.45 -36.1 -14.55 -38.65 -14.35 -39.35 -13.5 -42.0 -10.85 -44.4 -10.8 -43.85 -10.15 -42.95 L-9.2 -42.0 Q-11.45 -39.85 -12.5 -36.35 -13.2 -34.15 -14.55 -32.65 L-17.0 -30.5 Q-18.45 -29.3 -19.05 -28.2 -19.9 -26.65 -19.9 -24.2 -19.9 -23.1 -18.4 -21.6 -16.95 -20.05 -16.0 -20.05 -14.3 -20.05 -11.9 -22.25 -9.4 -24.65 -9.4 -26.8 -9.4 -27.5 -9.85 -29.2 L-10.4 -30.8 -10.1 -31.15 Q-9.9 -31.3 -9.05 -32.1 L-7.65 -30.2 -5.75 -27.95 -3.35 -29.1 -0.75 -30.15 -0.55 -29.95 -0.55 -29.6 Q-0.55 -28.55 -2.05 -27.1 -2.8 -26.4 -5.45 -24.35 -10.4 -20.5 -10.4 -18.2 L-10.05 -17.1 -9.7 -16.0 -9.95 -14.5 -10.2 -13.0 Q-10.2 -10.35 -6.6 -8.35 -2.2 -5.95 5.6 -5.95 L8.1 -6.25 11.25 -6.75 Q5.95 -3.45 3.35 0.6 1.05 4.2 1.05 8.1 L1.65 14.45 2.1 19.8 1.8 19.95 Q1.05 20.5 1.05 21.3 1.05 21.75 1.65 22.45 L2.25 23.0 2.25 23.25 2.1 26.5 1.4 34.8 -0.55 40.1 Q-2.3 44.4 -2.3 46.85 -2.3 48.1 -1.95 48.45 -1.3 49.1 1.0 49.1 3.95 49.1 5.4 48.4 7.1 47.65 7.1 45.85 7.1 43.65 5.2 42.2 L3.9 41.2 Q3.3 40.7 3.3 40.2 3.3 34.65 3.6 31.75 L4.25 27.6 4.15 23.3 4.7 23.15 4.85 23.1 Q4.4 28.85 4.4 36.25 L4.5 37.5 4.85 39.45 Q5.95 36.7 6.6 30.8 L7.4 20.0 Q7.85 13.4 8.3 10.8 8.95 6.85 10.1 6.85 L11.35 7.05 12.8 7.25 Q11.9 11.95 11.0 20.35 10.0 29.5 10.0 34.8 10.0 37.05 10.85 39.1 10.4 39.35 10.1 39.85 9.75 40.4 9.7 41.0 9.7 41.45 10.2 42.15 10.8 43.0 11.6 43.15 11.2 45.0 9.95 47.05 7.6 50.9 4.1 50.9 L-3.3 50.35 Q-5.4 49.5 -5.4 45.95 L-4.5 43.7 -2.5 39.25 Q0.4 31.95 0.4 24.0 L0.1 22.15 -0.1 21.9 -0.4 25.2 Q-0.7 28.6 -1.25 31.15 -2.95 39.4 -7.05 40.25 L-7.25 39.5 -6.6 36.0 Q-6.2 36.65 -5.5 36.65 L-4.55 36.45 -4.35 36.2 -4.2 35.25 Q-4.75 33.75 -5.9 33.55 L-6.25 33.55 Q-5.5 28.0 -5.55 23.45 L-5.3 20.15 -5.0 18.05 -5.45 15.6 -5.95 10.9 Q-5.95 8.6 -2.55 6.05 L-0.25 4.4 0.8 3.35 Q0.8 2.9 0.5 2.75 L-1.0 2.4 Q-5.1 1.5 -9.6 0.05 -9.95 -1.95 -11.4 -1.95 L-12.0 -1.85 -12.95 -2.9 Q-15.25 -5.45 -16.15 -7.1 L-19.0 -12.8 -19.0 -12.85 -19.5 -13.9 M-8.05 -46.55 Q-4.1 -49.15 -1.4 -49.15 -0.1 -49.15 1.65 -47.65 L3.75 -45.7 4.2 -45.8 4.3 -45.85 4.4 -46.15 3.3 -51.15 Q3.3 -53.45 4.65 -54.0 L10.2 -54.4 Q12.75 -54.4 14.85 -52.15 16.55 -50.35 16.55 -49.65 16.55 -49.1 14.65 -46.5 L11.7 -42.2 11.65 -41.85 11.9 -41.65 Q13.2 -41.65 15.9 -43.0 18.55 -44.35 19.85 -44.35 21.05 -44.35 24.4 -40.6 28.15 -36.45 28.15 -33.55 L26.8 -29.8 Q26.8 -28.35 28.6 -25.65 L30.4 -23.2 Q30.4 -21.45 29.15 -19.45 27.85 -17.4 27.75 -15.0 L27.5 -13.85 26.8 -13.4 Q25.05 -12.65 22.85 -9.75 L21.85 -7.4 Q21.25 -8.05 18.9 -8.05 L18.6 -6.55 Q19.1 -4.85 20.45 -4.85 L20.75 -4.85 20.65 -4.7 Q18.85 -0.8 17.2 -0.8 9.7 -0.8 6.65 10.65 5.55 14.8 5.0 20.85 L4.85 20.6 4.0 19.7 Q3.75 13.0 4.85 8.7 5.75 5.05 11.9 -2.2 L15.9 -7.05 Q17.65 -9.5 17.65 -10.85 L17.45 -11.4 17.25 -11.9 17.5 -13.25 17.8 -14.65 Q17.8 -15.8 15.35 -16.7 L15.65 -17.15 Q16.05 -17.8 16.05 -18.55 L14.8 -20.2 17.1 -19.85 Q21.05 -19.85 22.55 -24.5 23.1 -26.15 23.35 -28.65 L24.3 -28.45 Q25.45 -28.45 25.85 -28.75 L26.1 -30.3 Q26.35 -31.95 24.25 -32.2 L23.6 -32.2 23.6 -34.2 Q23.6 -35.95 22.7 -37.8 21.9 -39.45 20.8 -39.85 L20.85 -40.75 Q20.85 -42.8 18.85 -43.2 16.8 -43.55 16.8 -41.3 16.8 -40.65 17.2 -39.95 L17.45 -39.6 14.55 -38.75 11.1 -37.5 Q10.35 -37.5 9.5 -37.85 8.35 -38.25 7.6 -39.05 10.75 -43.4 12.45 -46.55 13.8 -49.15 13.8 -50.15 13.8 -50.85 12.6 -51.85 11.25 -52.85 9.85 -52.85 5.85 -52.85 5.85 -47.9 L7.15 -45.65 Q7.15 -43.25 6.15 -42.2 5.3 -41.3 3.55 -41.3 1.25 -41.3 -0.35 -42.95 -2.0 -44.6 -3.35 -44.6 L-6.0 -44.1 -6.7 -45.45 Q-7.45 -46.5 -8.05 -46.55 M10.6 -17.85 L6.55 -18.5 Q5.4 -18.5 2.75 -17.35 L-0.4 -16.0 -1.0 -16.1 -1.1 -16.75 Q-0.7 -17.6 0.45 -18.2 L2.6 -19.15 Q5.3 -20.5 5.3 -24.0 L5.05 -26.55 4.75 -27.6 Q4.75 -29.5 6.1 -30.85 7.1 -31.8 7.55 -31.8 L8.1 -31.65 8.2 -30.25 7.9 -29.1 7.55 -27.4 Q7.55 -25.25 10.55 -22.65 11.6 -21.75 12.65 -21.1 11.7 -21.0 11.05 -20.05 10.5 -19.2 10.5 -18.4 L10.6 -17.85 M1.15 -1.25 Q1.95 -0.15 2.6 -0.15 3.95 -0.15 4.75 -1.9 4.75 -4.5 2.7 -4.5 L1.25 -4.1 Q0.4 -3.6 0.4 -2.8 0.4 -2.25 1.15 -1.25 M22.05 -19.25 Q21.15 -18.4 21.15 -17.2 21.15 -16.0 22.05 -15.1 22.9 -14.25 24.1 -14.25 25.3 -14.25 26.2 -15.1 27.05 -16.0 27.05 -17.2 27.05 -18.4 26.2 -19.25 25.3 -20.15 24.1 -20.15 22.9 -20.15 22.05 -19.25 M-14.55 -16.05 Q-15.2 -15.15 -15.2 -13.9 -15.2 -12.65 -14.55 -11.75 -13.9 -10.85 -12.95 -10.85 -12.0 -10.85 -11.35 -11.75 -10.7 -12.65 -10.7 -13.9 -10.7 -15.15 -11.35 -16.05 -12.0 -16.95 -12.95 -16.95 -13.9 -16.95 -14.55 -16.05 M-3.75 11.55 Q-1.65 11.55 -1.65 9.8 -1.65 8.0 -3.5 8.05 -5.35 8.15 -5.35 9.9 L-4.9 10.9 Q-4.4 11.55 -3.75 11.55 M-3.4 23.8 L-3.25 25.85 Q-3.05 26.6 -2.3 26.6 L-1.95 26.55 Q-2.25 24.95 -1.2 18.1 -0.3 11.95 -1.25 10.65 -1.85 11.3 -2.7 17.45 L-3.4 23.8" fill="#e97300" fill-rule="evenodd" stroke="none"/>
    <path d="M-21.75 -15.25 L-21.4 -15.3 Q-20.3 -15.3 -19.5 -13.9 L-19.0 -12.85 -19.0 -12.8 Q-19.0 -12.15 -19.55 -11.45 L-20.1 -10.95 -20.95 -10.7 Q-21.5 -10.7 -22.45 -11.85 -23.4 -12.9 -23.4 -13.3 -23.4 -15.1 -21.75 -15.25 M-10.85 -44.4 L-10.9 -44.55 -10.45 -45.8 Q-9.75 -46.6 -8.2 -46.6 L-8.05 -46.55 Q-7.45 -46.5 -6.7 -45.45 L-6.0 -44.1 -6.0 -43.9 Q-6.0 -41.7 -8.2 -41.7 -8.7 -41.7 -9.2 -42.0 L-10.15 -42.95 Q-10.8 -43.85 -10.85 -44.4 M21.85 -7.4 L22.05 -6.9 Q22.05 -6.15 21.7 -5.55 21.35 -5.0 20.75 -4.85 L20.45 -4.85 Q19.1 -4.85 18.6 -6.55 L18.9 -8.05 Q21.25 -8.05 21.85 -7.4 M5.0 20.85 L5.45 22.0 5.25 22.9 4.85 23.1 4.7 23.15 4.15 23.3 3.6 23.35 Q2.85 23.35 2.25 23.0 L1.65 22.45 Q1.05 21.75 1.05 21.3 1.05 20.5 1.8 19.95 L2.1 19.8 3.3 19.5 4.0 19.7 4.85 20.6 5.0 20.85 M10.85 39.1 Q11.4 38.75 12.15 38.75 12.6 38.75 13.0 39.0 L13.55 39.5 14.0 40.45 Q14.0 41.5 13.3 42.35 L13.25 42.35 Q12.5 43.15 11.85 43.15 L11.6 43.15 Q10.8 43.0 10.2 42.15 9.7 41.45 9.7 41.0 9.75 40.4 10.1 39.85 10.4 39.35 10.85 39.1 M16.45 10.2 L16.2 10.3 15.1 10.5 Q14.25 10.5 13.8 9.65 L13.5 8.65 Q13.5 7.3 15.2 7.25 L15.65 7.3 Q16.85 7.45 17.0 8.75 L16.8 10.1 16.45 10.2 M17.45 -39.6 L17.2 -39.95 Q16.8 -40.65 16.8 -41.3 16.8 -43.55 18.85 -43.2 20.85 -42.8 20.85 -40.75 L20.8 -39.85 20.55 -39.4 19.9 -39.15 18.8 -38.95 Q17.95 -38.95 17.45 -39.6 M23.6 -32.2 L24.25 -32.2 Q26.35 -31.95 26.1 -30.3 L25.85 -28.75 Q25.45 -28.45 24.3 -28.45 L23.35 -28.65 22.7 -29.15 Q22.2 -29.7 22.2 -30.45 22.2 -32.1 23.6 -32.2 M14.8 -20.2 L16.05 -18.55 Q16.05 -17.8 15.65 -17.15 L15.35 -16.7 Q14.6 -15.9 13.1 -15.9 11.9 -15.9 11.1 -16.9 10.7 -17.4 10.6 -17.85 L10.5 -18.4 Q10.5 -19.2 11.05 -20.05 11.7 -21.0 12.65 -21.1 L12.95 -21.15 Q13.85 -21.15 14.8 -20.2 M0.1 -33.2 L-0.05 -33.45 -0.3 -34.3 -0.2 -35.35 -0.15 -35.55 Q2.05 -35.55 2.65 -34.9 L2.85 -34.35 Q2.85 -33.25 2.65 -32.85 L1.25 -32.65 Q0.5 -32.65 0.1 -33.2 M-3.8 -14.45 L-3.9 -13.15 -3.95 -13.15 -5.35 -12.95 -6.55 -13.2 -6.75 -13.6 -6.95 -14.65 -6.8 -15.65 -6.7 -15.85 Q-3.8 -16.7 -3.8 -14.45 M1.15 -1.25 Q0.4 -2.25 0.4 -2.8 0.4 -3.6 1.25 -4.1 L2.7 -4.5 Q4.75 -4.5 4.75 -1.9 3.95 -0.15 2.6 -0.15 1.95 -0.15 1.15 -1.25 M-9.55 2.2 L-9.6 2.4 -10.35 2.55 -11.5 2.7 Q-12.25 2.7 -12.9 1.95 L-13.55 0.75 -13.1 -0.95 -12.95 -1.15 -12.0 -1.85 -11.4 -1.95 Q-9.95 -1.95 -9.6 0.05 L-9.5 1.05 -9.55 2.2 M1.7 55.15 Q1.75 54.3 2.0 54.0 2.4 53.5 3.85 53.5 4.7 53.5 5.05 54.3 L5.25 54.95 5.25 55.25 5.0 56.55 3.3 56.85 Q2.9 56.85 2.3 56.25 1.7 55.7 1.7 55.35 L1.7 55.15 M-6.6 36.0 L-6.7 35.85 -7.05 34.4 Q-7.05 33.55 -6.25 33.55 L-5.9 33.55 Q-4.75 33.75 -4.2 35.25 L-4.35 36.2 -4.55 36.45 -5.5 36.65 Q-6.2 36.65 -6.6 36.0 M-3.75 11.55 Q-4.4 11.55 -4.9 10.9 L-5.35 9.9 Q-5.35 8.15 -3.5 8.05 -1.65 8.0 -1.65 9.8 -1.65 11.55 -3.75 11.55" fill="#ba3900" fill-rule="evenodd" stroke="none"/>
  </g>
</svg>
