<?xml version="1.0" encoding="UTF-8" standalone="no"?>
<svg xmlns:ffdec="https://www.free-decompiler.com/flash" xmlns:xlink="http://www.w3.org/1999/xlink" ffdec:objectType="shape" height="25.85px" width="89.95px" xmlns="http://www.w3.org/2000/svg">
  <g transform="matrix(1.0, 0.0, 0.0, 1.0, 6.6, -17.15)">
    <path d="M37.9 27.7 L37.55 27.75 37.8 30.4 38.15 30.35 Q38.6 30.3 38.95 29.9 L39.0 29.8 39.25 28.95 Q39.2 28.35 38.8 28.0 L37.9 27.7 M1.4 36.45 L1.35 36.5 1.45 36.5 1.4 36.45 M1.35 32.75 L1.15 31.7 0.7 32.1 1.35 32.75 M0.55 32.25 L0.6 32.2 0.55 32.25 M70.8 27.4 Q70.55 27.15 70.2 27.15 69.85 27.15 69.65 27.4 69.4 27.6 69.4 27.95 L69.65 28.55 Q69.85 28.75 70.2 28.75 L70.8 28.55 71.0 27.95 70.8 27.4 M82.5 23.35 Q83.35 24.0 83.35 25.2 L83.35 26.65 Q83.35 27.85 82.5 28.5 81.8 29.15 80.85 29.15 L78.7 29.15 78.15 29.1 78.15 29.35 78.7 29.3 80.85 29.3 Q81.8 29.3 82.5 29.95 83.35 30.6 83.35 31.8 L83.35 33.25 Q83.35 34.45 82.5 35.1 81.8 35.75 80.85 35.75 L78.7 35.75 77.95 35.65 Q77.4 38.1 75.35 39.6 73.25 41.2 70.55 41.2 68.1 41.2 65.95 40.05 L65.3 39.35 Q65.1 38.9 65.2 38.4 L65.95 34.7 64.6 33.55 64.4 33.35 64.4 34.2 Q64.4 34.8 64.0 35.25 63.55 35.7 62.95 35.7 L58.8 35.8 Q58.15 35.8 57.75 35.4 57.25 34.95 57.25 34.35 L57.05 27.1 57.05 27.05 56.85 26.95 56.8 27.0 56.7 27.1 56.7 27.15 56.9 34.35 Q56.9 34.95 56.5 35.45 56.05 35.9 55.45 35.9 L51.3 36.0 50.75 35.95 50.2 36.05 46.1 36.15 Q45.45 36.15 45.05 35.75 44.55 35.3 44.55 34.7 L44.55 34.0 Q42.45 36.45 39.3 36.75 L32.7 37.3 32.15 37.25 31.6 37.4 25.4 37.95 24.8 37.9 24.3 38.0 20.2 38.35 Q19.6 38.4 19.1 38.0 L18.75 37.6 Q17.1 39.25 14.5 39.8 11.7 40.35 9.45 39.15 L8.25 38.4 7.65 39.5 7.7 39.45 Q6.6 41.2 4.5 41.65 L-2.4 43.0 -3.5 42.75 Q-4.05 42.4 -4.15 41.8 L-6.55 29.45 Q-6.7 28.8 -6.35 28.3 -6.0 27.8 -5.35 27.7 L1.6 26.35 1.55 26.35 Q3.3 25.95 4.8 26.8 4.8 26.4 5.05 26.1 5.4 25.55 6.05 25.45 L10.1 24.65 11.2 24.85 11.75 25.55 Q11.75 25.1 12.0 24.75 12.35 24.2 13.0 24.1 L17.05 23.3 17.4 23.25 17.3 22.2 Q17.15 21.2 17.8 20.4 L17.95 20.2 Q18.6 19.5 19.55 19.4 L19.65 19.4 21.7 19.25 Q22.85 19.1 23.55 19.9 L23.5 19.8 24.15 20.65 28.05 20.3 Q28.65 20.25 29.15 20.65 29.6 21.05 29.65 21.7 L30.5 31.0 30.65 31.0 30.0 23.4 Q29.95 22.75 30.35 22.3 30.75 21.8 31.4 21.75 L37.95 21.2 38.0 21.2 Q41.15 20.9 43.65 23.0 L44.3 23.6 44.25 22.95 Q44.25 22.45 44.5 22.1 44.2 21.6 44.2 20.95 L44.15 19.75 Q44.15 18.75 44.9 18.0 45.55 17.3 46.5 17.2 L46.65 17.2 48.8 17.15 Q49.8 17.15 50.55 17.9 L50.65 18.0 Q51.2 18.65 51.25 19.55 L51.3 20.45 55.1 20.35 55.75 20.5 Q56.75 20.1 57.9 20.05 60.45 20.0 62.3 21.85 L62.3 21.8 Q63.1 22.6 63.6 23.55 L64.6 22.35 Q66.85 20.0 70.2 20.0 L71.9 20.3 72.5 20.15 76.65 20.15 Q77.25 20.15 77.7 20.6 78.15 21.05 78.15 21.65 L78.15 22.75 78.7 22.7 80.85 22.7 Q81.8 22.7 82.5 23.35" fill="#ffffff" fill-rule="evenodd" stroke="none"/>
    <path d="M81.85 33.25 L81.55 33.95 80.85 34.25 78.7 34.25 Q78.3 34.25 78.0 33.95 77.7 33.7 77.7 33.25 L77.7 31.8 Q77.7 31.35 78.0 31.1 78.3 30.8 78.7 30.8 L80.85 30.8 Q81.25 30.8 81.55 31.1 L81.85 31.8 81.85 33.25 M81.85 26.65 L81.55 27.35 80.85 27.65 78.7 27.65 Q78.3 27.65 78.0 27.35 77.7 27.1 77.7 26.65 L77.7 25.2 Q77.7 24.75 78.0 24.5 78.3 24.2 78.7 24.2 L80.85 24.2 Q81.25 24.2 81.55 24.5 L81.85 25.2 81.85 26.65 M70.2 21.5 Q71.6 21.5 72.5 22.55 L72.5 21.65 76.65 21.65 76.65 33.7 Q76.65 36.75 74.45 38.4 72.75 39.7 70.55 39.7 68.5 39.7 66.65 38.7 L67.45 34.9 70.15 35.65 70.65 35.7 Q72.55 35.7 72.5 33.4 71.6 34.4 70.2 34.4 67.5 34.4 65.65 32.5 63.75 30.6 63.75 27.95 63.75 25.3 65.65 23.4 67.5 21.5 70.2 21.5 M49.8 20.85 L49.55 21.5 Q49.3 21.8 48.9 21.8 L46.75 21.85 Q46.35 21.9 46.0 21.6 45.7 21.35 45.7 20.95 L45.65 19.75 Q45.65 19.35 45.95 19.05 46.25 18.75 46.65 18.7 L48.8 18.65 Q49.2 18.65 49.5 18.95 L49.75 19.65 49.8 20.85 M49.85 22.8 L50.15 34.55 46.05 34.65 45.75 22.9 49.85 22.8 M55.1 21.85 L55.1 22.65 Q56.35 21.6 57.95 21.55 59.85 21.5 61.25 22.9 62.65 24.2 62.7 26.1 L62.9 34.2 58.75 34.3 58.55 27.1 Q58.55 26.4 58.05 25.9 57.55 25.45 56.85 25.45 56.25 25.45 55.75 25.95 55.25 26.35 55.2 27.0 L55.4 34.4 51.25 34.5 50.95 21.95 55.1 21.85 M43.4 33.0 Q41.7 35.0 39.15 35.25 L32.55 35.8 31.5 23.25 38.1 22.7 Q40.65 22.45 42.65 24.15 44.65 25.85 44.85 28.45 45.1 31.0 43.4 33.0 M72.5 27.95 Q72.5 27.0 71.85 26.3 71.15 25.65 70.2 25.65 69.25 25.65 68.55 26.3 67.9 27.0 67.9 27.95 67.9 28.9 68.55 29.6 69.25 30.25 70.2 30.25 71.15 30.25 71.85 29.6 72.5 28.9 72.5 27.95 M28.15 21.8 L29.1 32.65 31.15 32.45 31.45 35.9 25.25 36.45 24.0 22.15 28.15 21.8 M22.1 23.9 L19.95 24.05 Q19.55 24.1 19.25 23.8 18.9 23.6 18.9 23.15 L18.8 22.0 Q18.75 21.6 19.0 21.25 19.3 20.95 19.7 20.9 L21.85 20.75 Q22.25 20.7 22.5 20.95 L22.9 21.65 23.0 22.8 22.75 23.5 22.1 23.9 M14.75 33.35 L13.25 25.55 17.3 24.75 18.9 32.95 Q19.25 34.75 17.9 36.25 16.5 37.85 14.2 38.3 11.95 38.75 10.1 37.8 8.25 36.9 7.9 35.1 L6.3 26.9 10.35 26.1 11.85 33.9 Q11.95 34.4 12.45 34.6 L13.55 34.75 14.5 34.2 Q14.85 33.85 14.75 33.35 M19.05 25.15 L23.15 24.8 24.15 36.5 20.05 36.85 19.05 25.15 M4.4 28.3 Q5.55 29.15 5.85 30.55 6.2 32.3 5.05 33.6 6.6 34.35 6.95 36.1 7.2 37.5 6.4 38.65 5.65 39.85 4.2 40.15 L-2.7 41.5 -5.1 29.15 1.85 27.8 Q3.25 27.5 4.4 28.3 M1.15 31.45 L-0.4 31.75 -0.15 33.1 1.4 32.8 Q2.1 32.65 2.0 32.0 1.85 31.3 1.15 31.45 M2.8 36.15 Q2.65 35.5 1.95 35.65 L0.4 35.95 0.7 37.3 2.25 37.0 Q2.95 36.85 2.8 36.15 M40.1 30.8 Q40.85 29.95 40.75 28.8 40.65 27.6 39.75 26.85 38.85 26.1 37.7 26.2 L35.9 26.35 36.4 32.0 38.2 31.85 Q39.35 31.75 40.1 30.8" fill="#0e72ee" fill-rule="evenodd" stroke="none"/>
  </g>
</svg>
