<?xml version="1.0" encoding="UTF-8" standalone="no"?>
<svg xmlns:ffdec="https://www.free-decompiler.com/flash" xmlns:xlink="http://www.w3.org/1999/xlink" ffdec:objectType="shape" height="146.2px" width="99.75px" xmlns="http://www.w3.org/2000/svg">
  <g transform="matrix(1.0, 0.0, 0.0, 1.0, 39.8, 48.95)">
    <path d="M19.5 -34.1 L20.7 -32.0 22.4 -34.7 Q22.55 -32.35 26.25 -22.15 30.35 -10.85 31.4 -5.8 35.55 14.8 35.55 24.4 35.55 27.3 34.75 32.85 33.9 38.45 33.9 42.95 33.9 43.95 38.0 57.3 L38.85 61.0 40.45 69.05 38.8 67.3 38.35 68.05 35.0 72.75 30.65 66.35 29.0 75.5 Q27.6 70.9 27.1 70.25 26.6 70.3 26.1 69.75 23.9 77.95 21.9 81.7 19.95 85.3 17.0 87.0 17.9 84.9 16.15 78.4 14.75 73.05 13.75 71.25 13.15 72.55 11.85 77.2 10.35 81.75 8.4 83.75 6.9 80.65 5.7 79.0 4.9 77.9 4.5 77.75 3.65 78.8 2.35 82.05 0.9 85.75 0.65 88.35 -1.85 85.7 -3.7 80.2 -4.85 76.95 -5.3 73.8 -3.95 69.45 -3.5 64.6 -3.1 60.15 -4.0 53.95 L-4.65 60.8 Q-5.0 65.15 -6.2 69.5 L-7.0 72.2 Q-8.05 75.25 -9.45 78.35 -13.5 87.2 -13.8 90.9 L-13.7 92.45 -12.85 95.4 -13.6 94.3 -14.7 91.4 Q-15.6 88.9 -16.1 82.75 -16.6 76.6 -16.0 74.45 -17.1 75.05 -18.5 77.8 -19.85 80.35 -20.0 81.7 L-20.3 80.4 Q-18.95 76.5 -17.5 71.45 -14.6 61.3 -14.1 55.25 L-15.7 40.2 Q-17.3 25.1 -16.95 20.95 L-16.25 17.0 -14.4 9.1 Q-11.75 -0.35 -11.6 -1.8 -10.95 -9.45 -14.5 -24.3 -18.2 -39.7 -21.65 -40.0 -23.3 -40.15 -24.55 -40.9 L-24.2 -41.75 -20.75 -41.75 Q-19.85 -40.2 -20.2 -40.45 L-17.3 -36.4 Q-15.25 -33.15 -14.4 -29.7 -13.05 -24.45 -10.7 -5.5 L-10.25 -1.95 -15.2 21.1 -15.15 25.1 Q-14.75 28.95 -12.85 37.45 -10.8 46.6 -11.3 51.9 L-12.25 58.9 -13.5 65.85 -13.4 72.15 -12.95 78.3 Q-10.8 72.2 -9.95 69.1 -8.95 65.25 -8.4 60.8 L-8.1 57.85 Q-7.75 53.4 -10.0 44.45 L-10.6 42.3 Q-13.5 31.8 -12.85 24.35 L-11.0 14.7 -10.95 14.4 Q-9.0 4.35 -8.65 -0.15 -7.55 -12.75 -9.8 -23.15 -10.7 -27.35 -12.15 -31.15 -15.0 -38.9 -18.35 -41.75 L-13.8 -41.75 -13.35 -41.1 Q-10.6 -36.95 -9.05 -33.9 -7.5 -30.85 -5.7 -25.5 L-5.6 -25.25 Q-6.4 -29.15 -8.1 -34.65 -7.0 -34.8 -4.3 -36.3 L-0.75 -38.15 10.6 -38.9 Q15.75 -38.9 19.5 -34.1 M-18.95 -29.95 Q-15.6 -20.9 -16.05 -15.85 -16.1 -15.25 -16.25 -15.15 L-16.75 -15.15 -19.7 -28.85 Q-20.45 -32.95 -18.95 -29.95 M-27.55 46.75 Q-27.65 36.8 -29.3 29.45 -30.35 24.8 -28.8 7.35 -28.1 -0.8 -26.15 -6.45 L-26.05 -6.55 -27.35 10.8 -27.9 23.05 Q-28.55 24.85 -28.65 26.35 L-28.35 29.1 -28.05 31.8 -27.65 37.6 Q-27.25 43.9 -27.55 46.75 M-15.85 -8.4 L-15.4 -9.2 Q-15.2 -8.05 -15.15 -4.25 -15.0 0.6 -15.3 4.4 L-16.9 11.7 -18.5 18.8 -18.4 21.55 -18.35 23.9 -18.55 24.65 -18.85 25.2 -19.85 24.05 Q-20.35 22.8 -20.05 19.6 -19.85 16.95 -17.85 8.65 -15.9 0.25 -15.75 -1.4 -16.0 -7.65 -15.85 -8.4" fill="#b9a99b" fill-rule="evenodd" stroke="none"/>
    <path d="M38.35 68.05 L38.8 69.45 Q38.6 71.05 37.0 72.85 L34.85 74.85 Q33.55 74.05 32.85 72.9 32.25 72.0 31.5 69.9 L31.55 71.2 Q31.9 72.15 30.85 75.2 29.85 78.25 29.1 78.65 L27.8 77.0 26.4 72.9 26.35 74.25 Q25.9 77.4 22.6 82.4 19.2 87.55 16.8 88.35 L13.9 75.0 13.75 76.6 Q13.9 77.85 12.0 81.5 10.1 85.2 9.05 85.6 8.0 85.55 4.65 80.0 L1.0 91.0 Q-4.75 84.1 -5.65 81.8 -6.15 80.55 -6.55 77.2 L-7.35 79.0 Q-7.75 80.05 -9.5 83.4 L-12.35 89.7 -12.5 90.7 Q-12.55 91.8 -12.05 93.75 L-11.4 96.45 -11.45 97.0 Q-11.55 97.3 -12.15 97.25 -14.0 97.05 -15.7 93.45 -18.35 87.7 -16.9 76.6 L-18.05 80.8 -19.15 85.1 Q-21.05 84.0 -21.65 79.3 -22.1 75.95 -21.8 72.45 -18.5 60.65 -17.9 54.05 -17.8 52.55 -17.85 50.1 -21.25 59.65 -23.6 72.35 L-24.7 78.65 Q-27.55 76.05 -27.0 66.1 -25.75 54.65 -25.45 50.7 -25.45 44.1 -26.1 40.7 -25.1 48.35 -29.7 60.2 L-33.65 69.75 Q-35.85 75.05 -37.35 76.7 -37.45 71.2 -36.4 67.9 -33.95 60.25 -33.7 57.1 -32.55 44.2 -36.5 32.5 -38.6 26.35 -39.05 23.65 -40.15 18.35 -39.6 12.1 L-39.0 8.0 -35.6 -4.05 Q-34.7 -7.05 -34.4 -10.25 -34.0 -15.1 -34.9 -18.75 L-34.3 -19.95 -33.75 -15.5 Q-33.15 -10.0 -33.3 -8.6 -38.25 9.8 -38.6 13.95 -39.2 20.9 -37.7 25.15 -36.2 29.4 -34.65 34.4 -33.15 39.35 -32.35 43.5 -31.6 47.65 -32.2 54.4 -32.6 59.1 -33.5 62.8 L-34.45 66.1 -34.65 66.5 -36.5 72.65 Q-32.05 64.1 -30.25 59.1 -28.2 53.35 -27.55 46.75 -27.25 43.9 -27.65 37.6 L-28.05 31.8 -28.35 29.1 -28.65 26.35 Q-28.55 24.85 -27.9 23.05 L-27.6 22.8 -27.5 22.7 -26.45 31.1 -24.6 41.95 Q-24.0 44.65 -24.3 48.35 L-25.4 59.05 -25.5 64.3 -25.3 73.3 Q-24.65 67.8 -21.65 57.05 -18.7 46.35 -18.45 44.3 L-17.55 44.3 Q-16.4 47.5 -16.85 52.7 L-17.45 57.35 -18.45 63.2 -20.95 73.9 Q-21.2 76.8 -20.3 80.4 L-20.0 81.7 Q-19.85 80.35 -18.5 77.8 -17.1 75.05 -16.0 74.45 -16.6 76.6 -16.1 82.75 -15.6 88.9 -14.7 91.4 L-13.6 94.3 -12.85 95.4 -13.7 92.45 -13.8 90.9 Q-13.5 87.2 -9.45 78.35 -8.05 75.25 -7.0 72.2 L-6.2 69.5 Q-5.0 65.15 -4.65 60.8 L-4.0 53.95 Q-3.1 60.15 -3.5 64.6 -3.95 69.45 -5.3 73.8 -4.85 76.95 -3.7 80.2 -1.85 85.7 0.65 88.35 0.9 85.75 2.35 82.05 3.65 78.8 4.5 77.75 4.9 77.9 5.7 79.0 6.9 80.65 8.4 83.75 10.35 81.75 11.85 77.2 13.15 72.55 13.75 71.25 14.75 73.05 16.15 78.4 17.9 84.9 17.0 87.0 19.95 85.3 21.9 81.7 23.9 77.95 26.1 69.75 26.6 70.3 27.1 70.25 27.6 70.9 29.0 75.5 L30.65 66.35 35.0 72.75 38.35 68.05 M19.5 -37.35 L19.5 -34.1 Q15.75 -38.9 10.6 -38.9 L-0.75 -38.15 -4.3 -36.3 Q-7.0 -34.8 -8.1 -34.65 -6.4 -29.15 -5.6 -25.25 L-5.7 -25.5 Q-7.5 -30.85 -9.05 -33.9 -10.6 -36.95 -13.35 -41.1 L-13.8 -41.75 -11.25 -41.75 Q-9.7 -39.55 -8.9 -37.1 L-8.25 -35.15 -6.8 -37.85 Q-5.0 -40.45 -3.2 -40.45 L8.65 -39.6 Q17.6 -38.6 19.5 -37.35" fill="#6f5c4d" fill-rule="evenodd" stroke="none"/>
    <path d="M22.4 -34.7 L20.7 -32.0 19.5 -34.1 19.5 -37.35 21.0 -35.45 Q21.05 -41.75 22.15 -44.95 23.2 -48.2 26.8 -48.85 30.4 -49.5 34.05 -45.55 37.65 -41.65 40.55 -34.95 47.6 -18.8 47.6 -2.1 L47.45 10.85 46.05 44.2 Q46.05 56.65 49.4 66.35 52.75 76.15 59.95 84.75 54.15 85.75 47.2 80.1 40.7 74.8 39.0 69.0 L38.8 69.45 38.35 68.05 38.8 67.3 40.45 69.05 Q41.4 72.95 47.4 77.95 53.1 82.75 56.5 83.25 49.4 74.2 46.45 59.85 44.75 51.8 44.75 45.35 L45.3 21.75 46.15 2.7 46.45 -7.35 Q46.45 -9.0 44.85 -17.5 44.0 -21.95 41.3 -28.8 38.55 -35.7 34.65 -41.65 30.7 -47.6 28.8 -47.55 26.9 -47.55 25.65 -46.35 22.55 -43.45 22.4 -34.7" fill="#77655a" fill-rule="evenodd" stroke="none"/>
    <path d="M22.4 -34.7 Q22.55 -43.45 25.65 -46.35 26.9 -47.55 28.8 -47.55 30.7 -47.6 34.65 -41.65 38.55 -35.7 41.3 -28.8 44.0 -21.95 44.85 -17.5 46.45 -9.0 46.45 -7.35 L46.15 2.7 45.3 21.75 44.75 45.35 Q44.75 51.8 46.45 59.85 49.4 74.2 56.5 83.25 53.1 82.75 47.4 77.95 41.4 72.95 40.45 69.05 L38.85 61.0 38.0 57.3 Q33.9 43.95 33.9 42.95 33.9 38.45 34.75 32.85 35.55 27.3 35.55 24.4 35.55 14.8 31.4 -5.8 30.35 -10.85 26.25 -22.15 22.55 -32.35 22.4 -34.7" fill="#d4cdc9" fill-rule="evenodd" stroke="none"/>
    <path d="M-18.35 -41.75 Q-15.0 -38.9 -12.15 -31.15 -10.7 -27.35 -9.8 -23.15 -7.55 -12.75 -8.65 -0.15 -9.0 4.35 -10.95 14.4 L-11.0 14.7 -12.85 24.35 Q-13.5 31.8 -10.6 42.3 L-10.0 44.45 Q-7.75 53.4 -8.1 57.85 L-8.4 60.8 Q-8.95 65.25 -9.95 69.1 -10.8 72.2 -12.95 78.3 L-13.4 72.15 -13.5 65.85 -12.25 58.9 -11.3 51.9 Q-10.8 46.6 -12.85 37.45 -14.75 28.95 -15.15 25.1 L-15.2 21.1 -10.25 -1.95 -10.7 -5.5 Q-13.05 -24.45 -14.4 -29.7 -15.25 -33.15 -17.3 -36.4 L-20.2 -40.45 Q-19.85 -40.2 -20.75 -41.75 L-18.35 -41.75 M-24.55 -40.9 Q-23.3 -40.15 -21.65 -40.0 -18.2 -39.7 -14.5 -24.3 -10.95 -9.45 -11.6 -1.8 -11.75 -0.35 -14.4 9.1 L-16.25 17.0 -16.95 20.95 Q-17.3 25.1 -15.7 40.2 L-14.1 55.25 Q-14.6 61.3 -17.5 71.45 -18.95 76.5 -20.3 80.4 -21.2 76.8 -20.95 73.9 L-18.45 63.2 -17.45 57.35 -16.85 52.7 Q-16.4 47.5 -17.55 44.3 -17.5 42.1 -18.35 38.85 L-20.25 32.25 Q-22.8 22.0 -21.65 8.6 L-19.45 -7.65 Q-18.2 -22.05 -23.45 -32.8 -24.65 -35.3 -26.15 -37.5 L-24.55 -40.9 M-18.95 -29.95 Q-20.45 -32.95 -19.7 -28.85 L-16.75 -15.15 -16.25 -15.15 Q-16.1 -15.25 -16.05 -15.85 -15.6 -20.9 -18.95 -29.95 M-30.7 -27.7 L-28.4 -32.65 Q-22.75 -18.15 -24.9 6.7 -25.05 8.4 -25.95 13.9 L-27.6 22.8 -27.9 23.05 -27.35 10.8 -26.05 -6.55 -26.15 -6.45 Q-28.1 -0.8 -28.8 7.35 -30.35 24.8 -29.3 29.45 -27.65 36.8 -27.55 46.75 -28.2 53.35 -30.25 59.1 -32.05 64.1 -36.5 72.65 L-34.65 66.5 -34.45 66.1 -31.0 57.95 Q-29.95 55.05 -29.6 51.35 -29.3 47.5 -30.75 32.05 -32.35 16.65 -32.1 13.7 -31.65 8.5 -29.95 0.6 L-28.15 -8.1 Q-27.2 -18.6 -30.7 -27.7 M-15.85 -8.4 Q-16.0 -7.65 -15.75 -1.4 -15.9 0.25 -17.85 8.65 -19.85 16.95 -20.05 19.6 -20.35 22.8 -19.85 24.05 L-18.85 25.2 -18.55 24.65 -18.35 23.9 -18.4 21.55 -18.5 18.8 -16.9 11.7 -15.3 4.4 Q-15.0 0.6 -15.15 -4.25 -15.2 -8.05 -15.4 -9.2 L-15.85 -8.4" fill="#c8bbb0" fill-rule="evenodd" stroke="none"/>
    <path d="M-28.4 -32.65 L-26.15 -37.5 Q-24.65 -35.3 -23.45 -32.8 -18.2 -22.05 -19.45 -7.65 L-21.65 8.6 Q-22.8 22.0 -20.25 32.25 L-18.35 38.85 Q-17.5 42.1 -17.55 44.3 L-18.45 44.3 Q-18.7 46.35 -21.65 57.05 -24.65 67.8 -25.3 73.3 L-25.5 64.3 -25.4 59.05 -24.3 48.35 Q-24.0 44.65 -24.6 41.95 L-26.45 31.1 -27.5 22.7 -27.6 22.8 -25.95 13.9 Q-25.05 8.4 -24.9 6.7 -22.75 -18.15 -28.4 -32.65 M-34.45 66.1 L-33.5 62.8 Q-32.6 59.1 -32.2 54.4 -31.6 47.65 -32.35 43.5 -33.15 39.35 -34.65 34.4 -36.2 29.4 -37.7 25.15 -39.2 20.9 -38.6 13.95 -38.25 9.8 -33.3 -8.6 -33.15 -10.0 -33.75 -15.5 L-34.3 -19.95 -30.7 -27.7 Q-27.2 -18.6 -28.15 -8.1 L-29.95 0.6 Q-31.65 8.5 -32.1 13.7 -32.35 16.65 -30.75 32.05 -29.3 47.5 -29.6 51.35 -29.95 55.05 -31.0 57.95 L-34.45 66.1" fill="#dbd1ca" fill-rule="evenodd" stroke="none"/>
  </g>
</svg>
