<?xml version="1.0" encoding="UTF-8" standalone="no"?>
<svg xmlns:ffdec="https://www.free-decompiler.com/flash" xmlns:xlink="http://www.w3.org/1999/xlink" ffdec:objectType="shape" height="96.35px" width="93.05px" xmlns="http://www.w3.org/2000/svg">
  <g transform="matrix(1.0, 0.0, 0.0, 1.0, -14.95, 46.95)">
    <path d="M30.35 14.55 L30.5 22.95 Q30.5 42.95 27.8 47.6 26.85 49.3 25.25 49.4 L22.5 49.15 Q20.95 49.15 18.3 47.95 15.95 46.9 14.95 46.0 L18.95 39.2 Q22.45 33.05 22.45 26.55 22.45 23.1 21.85 18.4 L21.25 13.55 Q21.25 12.95 21.4 12.85 L21.55 12.9 Q26.05 14.25 29.4 12.55 30.2 12.55 30.35 14.55 M29.0 22.95 L28.95 14.4 22.85 14.4 Q23.65 18.9 23.85 22.9 L23.95 26.6 Q23.95 30.8 22.85 35.05 21.05 41.95 16.9 45.75 L19.75 46.85 23.15 47.55 Q25.8 47.55 27.0 45.35 29.9 40.0 29.0 22.95 M21.7 43.0 Q21.7 42.3 22.2 41.85 22.65 41.35 23.35 41.35 24.05 41.35 24.55 41.85 25.0 42.3 25.0 43.0 25.0 43.7 24.55 44.2 24.05 44.65 23.35 44.65 22.65 44.65 22.2 44.2 21.7 43.7 21.7 43.0 M25.45 36.4 Q25.85 36.4 26.15 36.7 L26.45 37.4 26.15 38.1 25.45 38.4 24.75 38.1 Q24.45 37.8 24.45 37.4 24.45 37.0 24.75 36.7 25.05 36.4 25.45 36.4" fill="#4f3217" fill-rule="evenodd" stroke="none"/>
    <path d="M23.85 22.9 Q23.65 18.9 22.85 14.4 L28.95 14.4 29.0 22.95 23.85 22.9" fill="#603d1e" fill-rule="evenodd" stroke="none"/>
    <path d="M23.85 22.9 L29.0 22.95 Q29.9 40.0 27.0 45.35 25.8 47.55 23.15 47.55 L19.75 46.85 16.9 45.75 Q21.05 41.95 22.85 35.05 23.95 30.8 23.95 26.6 L23.85 22.9 M25.45 36.4 Q25.05 36.4 24.75 36.7 24.45 37.0 24.45 37.4 24.45 37.8 24.75 38.1 L25.45 38.4 26.15 38.1 26.45 37.4 26.15 36.7 Q25.85 36.4 25.45 36.4 M21.7 43.0 Q21.7 43.7 22.2 44.2 22.65 44.65 23.35 44.65 24.05 44.65 24.55 44.2 25.0 43.7 25.0 43.0 25.0 42.3 24.55 41.85 24.05 41.35 23.35 41.35 22.65 41.35 22.2 41.85 21.7 42.3 21.7 43.0" fill="#6d4521" fill-rule="evenodd" stroke="none"/>
    <path d="M77.0 -35.1 Q77.45 -37.1 76.2 -39.85 75.25 -42.1 74.05 -43.25 L75.55 -42.7 77.65 -41.4 Q77.7 -40.35 79.25 -36.2 80.5 -32.7 79.95 -31.5 L79.35 -32.0 79.05 -32.5 78.35 -32.75 77.1 -33.75 77.0 -35.1 M83.4 -33.75 Q85.5 -33.8 86.25 -37.0 86.95 -39.8 86.4 -44.45 L86.95 -42.65 87.35 -40.5 Q87.35 -37.85 86.0 -34.75 L84.55 -32.05 Q83.75 -32.85 83.4 -33.75 M91.5 -31.1 Q93.0 -31.85 94.25 -33.65 L97.25 -39.35 97.2 -37.35 Q96.9 -34.8 94.65 -32.85 93.25 -31.65 91.5 -31.1 M94.25 -30.65 L94.4 -30.25 93.95 -30.25 93.85 -30.95 94.25 -30.65 M92.85 -25.95 L95.15 -24.9 97.4 -23.1 97.75 -23.2 Q99.3 -22.15 101.45 -19.55 L103.95 -16.2 103.55 -16.3 97.6 -21.5 Q93.3 -25.05 92.85 -25.95 M80.45 -36.6 L80.35 -36.5 Q79.85 -36.6 79.6 -37.2 L80.45 -36.6 M94.4 -31.95 Q94.55 -32.2 94.75 -32.15 L94.7 -31.7 94.4 -31.7 94.4 -31.95 M89.75 -28.15 L89.7 -28.3 Q89.7 -28.6 90.65 -28.7 L92.25 -28.65 91.6 -28.3 91.2 -28.1 90.5 -28.05 89.75 -28.15 M81.15 -33.65 L81.1 -33.7 80.3 -35.1 Q80.5 -36.3 81.15 -33.65 M82.1 -34.25 L82.45 -34.05 82.6 -33.55 82.45 -33.05 82.1 -32.85 81.75 -33.05 Q81.6 -33.25 81.6 -33.55 L81.75 -34.05 82.1 -34.25 M86.8 -33.1 L86.6 -32.15 Q86.25 -31.15 85.9 -30.9 L85.8 -30.95 86.8 -33.1 M87.4 -35.05 L87.3 -35.7 Q87.65 -36.8 87.8 -35.5 L87.65 -34.6 Q87.55 -34.45 87.4 -35.05 M96.15 -20.95 Q97.0 -20.85 98.3 -19.8 96.95 -19.55 95.9 -20.7 L96.15 -20.95" fill="#5c815c" fill-rule="evenodd" stroke="none"/>
    <path d="M77.0 -35.1 L77.1 -33.75 Q76.95 -33.9 76.95 -34.5 L77.0 -35.1 M78.35 -32.75 L79.05 -32.5 79.35 -32.0 78.35 -32.75 M79.95 -31.5 Q80.5 -32.7 79.25 -36.2 77.7 -40.35 77.65 -41.4 L80.7 -38.0 83.4 -33.75 Q83.75 -32.85 84.55 -32.05 L86.0 -34.75 Q87.35 -37.85 87.35 -40.5 L86.95 -42.65 86.4 -44.45 86.3 -45.35 Q87.0 -44.1 87.8 -39.75 88.55 -35.6 88.55 -33.45 L88.5 -30.7 91.5 -31.1 Q93.25 -31.65 94.65 -32.85 96.9 -34.8 97.2 -37.35 96.9 -34.6 94.9 -31.55 L94.25 -30.65 93.85 -30.95 93.95 -30.25 91.7 -26.95 91.8 -26.5 Q92.05 -26.2 92.85 -25.95 93.3 -25.05 97.6 -21.5 L103.55 -16.3 100.0 -16.6 95.3 -17.45 92.2 -17.05 89.65 -17.1 83.9 -16.9 Q81.6 -16.9 79.7 -17.8 76.8 -19.15 76.8 -22.15 L77.1 -25.25 Q77.8 -28.75 79.95 -31.5 M95.15 -24.9 L97.75 -23.2 97.4 -23.1 95.15 -24.9 M80.45 -36.6 L79.6 -37.2 Q79.85 -36.6 80.35 -36.5 L80.45 -36.6 M87.4 -35.05 Q87.55 -34.45 87.65 -34.6 L87.8 -35.5 Q87.65 -36.8 87.3 -35.7 L87.4 -35.05 M86.8 -33.1 L85.8 -30.95 85.9 -30.9 Q86.25 -31.15 86.6 -32.15 L86.8 -33.1 M82.1 -34.25 L81.75 -34.05 81.6 -33.55 Q81.6 -33.25 81.75 -33.05 L82.1 -32.85 82.45 -33.05 82.6 -33.55 82.45 -34.05 82.1 -34.25 M81.15 -33.65 Q80.5 -36.3 80.3 -35.1 L81.1 -33.7 81.15 -33.65 M89.75 -28.15 L90.5 -28.05 91.2 -28.1 91.6 -28.3 92.25 -28.65 90.65 -28.7 Q89.7 -28.6 89.7 -28.3 L89.75 -28.15 M94.4 -31.95 L94.4 -31.7 94.7 -31.7 94.75 -32.15 Q94.55 -32.2 94.4 -31.95 M96.15 -20.95 L95.9 -20.7 Q96.95 -19.55 98.3 -19.8 97.0 -20.85 96.15 -20.95" fill="#385339" fill-rule="evenodd" stroke="none"/>
    <path d="M77.65 -41.4 L75.55 -42.7 74.05 -43.25 Q75.25 -42.1 76.2 -39.85 77.45 -37.1 77.0 -35.1 L76.95 -34.5 Q76.95 -33.9 77.1 -33.75 L78.35 -32.75 79.35 -32.0 79.95 -31.5 Q77.8 -28.75 77.1 -25.25 L76.8 -22.15 Q76.8 -19.15 79.7 -17.8 81.6 -16.9 83.9 -16.9 L89.65 -17.1 92.2 -17.05 88.15 -15.9 Q83.8 -14.35 82.4 -14.35 77.9 -14.35 75.75 -16.5 73.7 -18.55 73.7 -22.8 73.7 -26.0 74.8 -31.05 75.9 -36.05 75.9 -37.8 75.9 -39.3 74.9 -40.7 73.25 -42.95 68.6 -46.1 75.05 -44.95 78.2 -42.8 80.95 -40.85 83.85 -35.95 85.1 -36.25 85.15 -39.75 85.2 -43.3 85.65 -46.95 87.4 -45.35 88.65 -42.5 90.6 -37.95 89.95 -32.4 L92.85 -34.65 Q93.9 -35.45 98.05 -45.0 L98.35 -40.35 Q98.35 -35.1 96.95 -31.85 96.25 -30.1 93.9 -27.1 101.6 -23.55 108.0 -12.2 105.6 -14.7 101.3 -16.2 L100.0 -16.6 103.55 -16.3 103.95 -16.2 101.45 -19.55 Q99.3 -22.15 97.75 -23.2 L95.15 -24.9 92.85 -25.95 Q92.05 -26.2 91.8 -26.5 L91.7 -26.95 93.95 -30.25 94.4 -30.25 94.25 -30.65 94.9 -31.55 Q96.9 -34.6 97.2 -37.35 L97.25 -39.35 94.25 -33.65 Q93.0 -31.85 91.5 -31.1 L88.5 -30.7 88.55 -33.45 Q88.55 -35.6 87.8 -39.75 87.0 -44.1 86.3 -45.35 L86.4 -44.45 Q86.95 -39.8 86.25 -37.0 85.5 -33.8 83.4 -33.75 L80.7 -38.0 77.65 -41.4" fill="#213021" fill-rule="evenodd" stroke="none"/>
  </g>
</svg>
