<?xml version="1.0" encoding="UTF-8" standalone="no"?>
<svg xmlns:ffdec="https://www.free-decompiler.com/flash" xmlns:xlink="http://www.w3.org/1999/xlink" ffdec:objectType="shape" height="51.5px" width="52.95px" xmlns="http://www.w3.org/2000/svg">
  <g transform="matrix(1.0, 0.0, 0.0, 1.0, 29.45, 7.75)">
    <path d="M-1.15 -3.0 L-2.65 -3.15 -0.8 -3.15 -1.15 -3.0 M-6.25 -1.5 L-4.4 -0.95 -5.3 0.3 -6.7 -0.9 -6.25 -1.5 M6.4 -1.25 L7.85 -1.75 8.4 -1.05 7.3 -0.05 6.4 -1.25 M9.95 1.05 Q17.7 9.25 20.55 13.3 23.5 17.5 23.5 20.4 23.5 22.9 22.5 23.95 21.45 25.1 18.8 25.1 L17.65 24.9 16.45 24.25 15.4 23.45 16.0 27.25 Q16.0 33.75 12.95 37.15 10.75 39.65 8.35 39.65 4.9 39.65 5.15 30.95 3.3 38.75 1.5 41.1 -0.55 43.75 -5.25 43.75 -7.4 43.75 -8.65 41.05 -9.55 39.1 -9.55 37.45 L-8.95 32.55 -7.8 25.55 -7.15 20.65 Q-7.15 18.6 -8.05 16.95 -8.95 15.35 -10.0 15.35 -10.6 15.35 -13.6 18.4 L-17.95 22.45 -19.8 23.25 -22.65 23.75 Q-25.95 23.75 -27.9 21.65 -29.45 20.0 -29.45 18.3 -29.45 15.15 -26.1 12.4 -22.6 9.55 -8.4 1.1 L-6.9 2.3 Q-8.45 4.1 -21.45 10.3 -24.25 11.65 -26.05 14.6 -27.55 17.1 -27.55 19.05 -27.55 20.6 -25.15 21.4 L-22.3 21.95 -20.55 21.65 -19.0 21.0 -17.55 19.8 -12.05 14.65 Q-10.8 13.55 -10.1 13.55 -8.65 13.55 -7.1 15.1 -5.1 17.15 -5.1 20.45 L-6.3 28.7 -7.55 36.9 Q-7.55 39.9 -6.65 41.05 -6.0 41.9 -4.6 41.9 -0.95 41.9 0.9 39.25 3.3 35.8 3.3 27.4 L3.0 19.45 Q2.95 18.35 4.0 17.45 L4.1 17.75 7.25 36.55 7.35 36.5 7.35 37.2 Q7.5 37.85 8.1 37.85 10.6 37.85 12.45 34.85 14.1 32.2 14.1 29.4 14.1 23.3 12.7 19.6 L9.85 13.35 9.8 13.05 10.35 12.7 13.3 16.6 16.55 21.95 Q17.25 22.95 18.5 23.25 21.7 23.65 21.7 21.05 21.7 18.4 19.2 15.25 L8.5 2.2 9.95 1.05" fill="#5c4730" fill-rule="evenodd" stroke="none"/>
    <path d="M3.6 -3.15 L2.4 -3.0 2.15 -3.3 3.6 -3.15 M-4.4 -0.95 L-4.0 -0.85 -4.55 0.7 -5.3 0.3 -4.4 -0.95 M3.65 -0.65 L6.4 -1.25 7.3 -0.05 4.35 1.2 3.65 -0.65 M5.6 3.45 L8.5 2.2 19.2 15.25 Q21.7 18.4 21.7 21.05 21.7 23.65 18.5 23.25 17.25 22.95 16.55 21.95 L13.3 16.6 15.8 19.2 Q17.7 21.15 18.95 21.95 L19.75 21.85 Q20.05 21.7 20.05 21.05 20.05 18.2 16.1 14.15 9.95 8.35 5.6 3.45 M4.0 17.45 Q2.95 18.35 3.0 19.45 L3.3 27.4 Q3.3 35.8 0.9 39.25 -0.95 41.9 -4.6 41.9 -6.0 41.9 -6.65 41.05 -7.55 39.9 -7.55 36.9 L-6.3 28.7 -5.1 20.45 Q-5.1 17.15 -7.1 15.1 -8.65 13.55 -10.1 13.55 -10.8 13.55 -12.05 14.65 L-17.55 19.8 -19.0 21.0 -20.55 21.65 -22.3 21.95 -25.15 21.4 Q-27.55 20.6 -27.55 19.05 -27.55 17.1 -26.05 14.6 -24.25 11.65 -21.45 10.3 -8.45 4.1 -6.9 2.3 L-6.0 2.8 Q-8.1 5.1 -16.2 9.55 -22.45 13.0 -22.45 15.95 -22.45 16.95 -21.95 17.65 -21.4 18.45 -20.5 18.45 -17.75 18.45 -14.6 15.45 -11.45 12.45 -9.2 12.45 -7.0 12.45 -5.3 15.3 -3.9 17.7 -3.9 19.8 L-5.05 25.55 Q-6.25 31.0 -6.25 32.95 -6.25 35.3 -5.5 36.8 -4.75 38.25 -3.75 38.25 -1.2 38.25 0.6 36.05 2.75 33.5 2.75 28.9 L1.8 25.65 Q0.85 22.3 0.85 19.3 0.85 17.8 1.45 16.85 1.85 16.25 2.35 16.05 L2.8 16.25 4.0 17.45 M4.1 17.75 Q9.2 32.75 10.25 32.75 11.05 32.75 11.7 31.9 12.8 30.55 12.8 27.6 12.8 25.8 10.35 19.85 L7.05 11.75 9.85 13.35 12.7 19.6 Q14.1 23.3 14.1 29.4 14.1 32.2 12.45 34.85 10.6 37.85 8.1 37.85 7.5 37.85 7.35 37.2 L7.35 36.5 7.25 36.55 4.1 17.75" fill="#ffc58a" fill-rule="evenodd" stroke="none"/>
    <path d="M2.4 -3.0 L-1.15 -3.0 -0.8 -3.15 2.15 -3.3 2.4 -3.0 M-4.0 -0.85 L3.65 -0.65 4.35 1.2 0.75 1.65 Q-1.75 1.65 -4.55 0.7 L-4.0 -0.85 M5.6 3.45 Q9.95 8.35 16.1 14.15 20.05 18.2 20.05 21.05 20.05 21.7 19.75 21.85 L18.95 21.95 Q17.7 21.15 15.8 19.2 L13.3 16.6 10.35 12.7 9.8 13.05 9.85 13.35 7.05 11.75 10.35 19.85 Q12.8 25.8 12.8 27.6 12.8 30.55 11.7 31.9 11.05 32.75 10.25 32.75 9.2 32.75 4.1 17.75 L4.0 17.45 2.8 16.25 2.35 16.05 Q1.85 16.25 1.45 16.85 0.85 17.8 0.85 19.3 0.85 22.3 1.8 25.65 L2.75 28.9 Q2.75 33.5 0.6 36.05 -1.2 38.25 -3.75 38.25 -4.75 38.25 -5.5 36.8 -6.25 35.3 -6.25 32.95 -6.25 31.0 -5.05 25.55 L-3.9 19.8 Q-3.9 17.7 -5.3 15.3 -7.0 12.45 -9.2 12.45 -11.45 12.45 -14.6 15.45 -17.75 18.45 -20.5 18.45 -21.4 18.45 -21.95 17.65 -22.45 16.95 -22.45 15.95 -22.45 13.0 -16.2 9.55 -8.1 5.1 -6.0 2.8 -4.1 3.85 -0.65 4.1 3.0 4.35 5.6 3.45" fill="#ffd5aa" fill-rule="evenodd" stroke="none"/>
    <path d="M-4.75 -3.6 L-6.4 -4.35 -5.2 -5.0 Q-4.6 -3.75 -4.75 -3.6 M-8.8 -3.45 L-6.8 -1.7 -6.7 -0.9 -5.3 0.3 -4.55 0.7 Q-1.75 1.65 0.75 1.65 L4.35 1.2 7.3 -0.05 8.4 -1.05 8.5 -2.1 Q9.1 -2.1 9.5 -2.75 9.9 -3.45 9.9 -4.4 11.15 -3.35 11.15 -1.4 11.15 -0.5 9.95 1.05 L8.5 2.2 5.6 3.45 Q3.0 4.35 -0.65 4.1 -4.1 3.85 -6.0 2.8 L-6.9 2.3 -8.4 1.1 Q-9.3 -0.45 -9.3 -1.45 L-9.2 -2.45 -8.8 -3.45" fill="#b23875" fill-rule="evenodd" stroke="none"/>
    <path d="M3.6 -3.15 L4.2 -3.25 6.55 -3.9 7.0 -4.6 4.8 -5.4 5.55 -7.75 Q6.4 -7.75 8.0 -6.45 L9.9 -4.4 Q9.9 -3.45 9.5 -2.75 9.1 -2.1 8.5 -2.1 L7.85 -1.75 6.4 -1.25 3.65 -0.65 -4.0 -0.85 -4.4 -0.95 -6.25 -1.5 -6.8 -1.7 -8.8 -3.45 Q-8.7 -4.15 -8.75 -5.05 -8.4 -5.85 -5.85 -7.45 L-4.7 -5.25 -5.2 -5.0 -6.4 -4.35 -4.75 -3.6 -2.65 -3.15 -1.15 -3.0 2.4 -3.0 3.6 -3.15" fill="#224d44" fill-rule="evenodd" stroke="none"/>
  </g>
</svg>
