<?xml version="1.0" encoding="UTF-8" standalone="no"?>
<svg xmlns:ffdec="https://www.free-decompiler.com/flash" xmlns:xlink="http://www.w3.org/1999/xlink" ffdec:objectType="shape" height="79.8px" width="100.7px" xmlns="http://www.w3.org/2000/svg">
  <g transform="matrix(1.0, 0.0, 0.0, 1.0, 60.05, 86.45)">
    <path d="M13.3 -86.45 Q25.85 -86.4 33.55 -76.35 40.65 -67.05 40.65 -53.9 L39.75 -48.25 38.5 -40.65 37.65 -35.95 Q36.95 -33.25 34.2 -29.75 27.85 -21.75 18.2 -17.4 9.4 -13.45 0.05 -13.45 -4.65 -13.45 -16.3 -10.05 -27.95 -6.65 -36.0 -6.65 L-39.6 -7.4 Q-43.3 -8.25 -47.4 -10.9 L-49.9 -18.1 Q-55.2 -20.75 -57.6 -24.0 -60.05 -27.35 -60.05 -32.35 -60.05 -40.75 -54.3 -46.7 -50.7 -50.35 -42.8 -54.45 L-33.75 -59.2 Q-32.8 -59.9 -29.9 -63.6 L-23.85 -69.9 Q-17.3 -76.15 -12.05 -79.0 -3.8 -83.65 -0.3 -84.8 4.7 -86.45 13.3 -86.45 M30.65 -77.25 Q23.95 -84.45 14.15 -84.45 5.75 -84.45 -2.0 -81.55 -9.85 -78.6 -19.45 -71.8 -23.85 -68.7 -25.75 -65.95 -26.9 -64.25 -26.9 -63.15 L-26.5 -60.35 Q-23.15 -62.0 -22.65 -62.0 -19.9 -62.0 -17.55 -59.85 -15.55 -58.05 -15.55 -56.8 -15.55 -53.65 -17.1 -52.1 -18.7 -50.55 -22.05 -50.55 -23.3 -50.55 -28.2 -52.95 -33.1 -55.35 -34.5 -55.35 -40.55 -55.35 -48.8 -48.35 -58.35 -40.3 -58.35 -30.9 -58.35 -26.0 -54.05 -22.6 -49.5 -18.95 -42.1 -18.95 -38.65 -18.95 -35.4 -19.85 -33.7 -20.3 -30.8 -21.5 L-43.25 -25.45 Q-47.0 -26.5 -49.2 -26.2 -46.5 -27.5 -45.5 -27.5 -41.4 -27.5 -36.8 -25.55 L-28.05 -21.25 Q-14.95 -15.05 1.25 -15.05 14.55 -15.05 24.85 -23.3 38.3 -34.1 38.3 -54.75 38.3 -69.1 30.65 -77.25 M-23.85 -59.75 Q-24.75 -58.1 -25.55 -56.95 L-25.95 -56.15 Q-25.95 -54.4 -24.9 -53.6 -23.8 -52.8 -21.25 -52.8 -18.05 -52.8 -18.05 -56.2 -18.05 -57.2 -18.35 -58.15 -21.2 -59.7 -23.85 -59.75 M-37.45 -13.9 L-40.8 -14.35 -47.3 -15.9 Q-43.15 -10.15 -40.6 -9.45 L-36.45 -9.05 -34.9 -9.05 -31.5 -9.15 -28.4 -9.5 -25.05 -9.95 -19.5 -11.15 -14.3 -12.55 -11.05 -13.65 -8.65 -14.6 -11.9 -15.4 -16.05 -16.55 Q-18.35 -17.1 -21.95 -16.1 L-27.05 -15.0 -30.15 -14.5 -33.7 -14.1 -37.1 -13.95 -37.45 -13.9" fill="#121212" fill-rule="evenodd" stroke="none"/>
    <path d="M0.55 -76.9 L-0.05 -76.35 -0.7 -75.85 Q0.5 -74.85 1.4 -75.3 L3.35 -76.4 3.55 -76.6 Q2.8 -77.2 1.55 -77.2 L0.55 -76.9 M7.65 -76.55 Q2.2 -75.15 0.4 -72.05 7.4 -69.45 9.05 -68.25 11.85 -66.2 11.85 -62.05 11.85 -56.85 8.6 -52.55 6.05 -49.2 -0.8 -43.85 L1.05 -43.2 3.0 -42.9 Q4.85 -42.9 7.65 -44.65 10.4 -46.3 12.0 -46.25 L12.55 -46.15 12.85 -45.4 Q6.75 -38.15 -20.55 -39.05 L-20.55 -39.15 -32.3 -39.95 -36.2 -38.3 -37.2 -37.8 -18.75 -31.5 Q-7.75 -28.2 -0.1 -28.2 15.05 -28.2 22.7 -38.6 28.2 -46.1 28.2 -55.05 28.2 -64.55 23.8 -71.35 19.8 -77.5 15.2 -77.5 11.2 -77.5 7.65 -76.55 M20.95 -55.3 Q20.4 -56.05 20.4 -57.1 20.4 -58.15 20.95 -58.85 21.5 -59.6 22.3 -59.6 23.1 -59.6 23.65 -58.85 24.2 -58.15 24.2 -57.1 24.2 -56.05 23.65 -55.3 23.1 -54.6 22.3 -54.6 21.5 -54.6 20.95 -55.3 M17.55 -62.65 L18.2 -62.35 18.45 -61.7 18.2 -61.0 Q17.9 -60.75 17.55 -60.75 17.2 -60.75 16.95 -61.0 16.65 -61.3 16.65 -61.7 16.65 -62.1 16.95 -62.35 L17.55 -62.65 M20.3 -79.45 Q12.6 -83.2 4.55 -82.55 34.05 -88.05 34.05 -48.55 34.05 -46.95 32.3 -42.65 30.1 -37.15 26.7 -32.45 16.75 -18.6 2.05 -18.6 L-2.75 -19.3 Q-6.9 -20.05 -7.4 -20.35 -8.25 -21.3 -5.95 -20.95 L-3.15 -20.45 -0.65 -20.3 2.3 -20.35 Q8.65 -20.9 11.5 -22.15 16.2 -24.15 23.4 -30.9 18.7 -26.75 10.3 -24.35 2.45 -22.1 -5.55 -22.1 -9.05 -22.1 -13.8 -23.45 L-23.45 -26.6 Q-31.65 -29.25 -45.7 -31.7 -48.45 -32.2 -49.2 -33.1 -50.0 -34.05 -50.0 -36.95 -50.0 -40.25 -44.6 -45.75 -38.75 -51.75 -33.65 -51.75 -33.1 -51.75 -31.75 -50.6 L-28.6 -48.15 Q-23.3 -44.55 -16.65 -44.55 L-14.7 -45.05 Q-13.5 -45.55 -13.1 -46.1 L-13.65 -46.2 Q-21.5 -46.9 -22.95 -47.6 -18.15 -46.9 -16.0 -50.0 -14.35 -52.3 -14.35 -56.3 -14.35 -56.9 -14.85 -58.15 L-15.9 -60.1 -19.6 -64.45 Q-19.6 -67.95 -10.25 -73.7 0.25 -80.25 10.6 -80.25 16.85 -80.25 22.3 -76.5 27.4 -73.0 30.0 -67.55 29.2 -75.1 20.3 -79.45 M8.6 -35.15 Q8.9 -35.45 9.35 -35.45 L10.15 -35.15 10.45 -34.4 10.15 -33.65 Q9.8 -33.35 9.35 -33.35 8.9 -33.35 8.6 -33.65 8.25 -33.95 8.25 -34.4 8.25 -34.85 8.6 -35.15 M-18.35 -58.15 Q-18.05 -57.2 -18.05 -56.2 -18.05 -52.8 -21.25 -52.8 -23.8 -52.8 -24.9 -53.6 -25.95 -54.4 -25.95 -56.15 L-25.55 -56.95 Q-24.75 -58.1 -23.85 -59.75 -24.0 -56.8 -23.0 -55.3 -22.2 -54.1 -21.05 -54.1 -20.65 -54.1 -20.05 -54.75 -19.0 -55.85 -18.35 -58.15 M-2.25 -73.7 Q-5.95 -72.9 -7.25 -72.25 -9.9 -71.0 -10.5 -68.4 L-10.75 -67.95 Q-10.9 -67.8 -10.3 -67.8 -8.3 -67.9 -6.4 -68.55 -2.6 -69.8 -2.4 -72.6 L-2.25 -73.7 M-7.2 -59.55 Q-7.0 -59.3 -6.65 -59.3 L-6.05 -59.55 -5.85 -60.15 -6.05 -60.75 -6.65 -61.0 -7.2 -60.75 -7.45 -60.15 -7.2 -59.55 M-5.9 -55.05 Q-6.4 -55.55 -7.05 -55.55 -7.7 -55.55 -8.15 -55.05 -8.65 -54.6 -8.65 -53.9 -8.65 -53.2 -8.15 -52.7 -7.7 -52.25 -7.05 -52.25 -6.4 -52.25 -5.9 -52.7 -5.45 -53.2 -5.45 -53.9 -5.45 -54.6 -5.9 -55.05 M-45.5 -41.15 Q-46.6 -40.45 -46.6 -39.4 -46.6 -38.35 -45.5 -37.6 -44.45 -36.9 -42.9 -36.9 -41.35 -36.9 -40.25 -37.6 -39.2 -38.35 -39.2 -39.4 -39.2 -40.45 -40.25 -41.15 -41.35 -41.9 -42.9 -41.9 -44.45 -41.9 -45.5 -41.15 M-50.3 -31.85 Q-52.1 -29.25 -54.4 -29.55 -53.6 -31.7 -50.3 -31.85 M-36.45 -9.05 Q-36.25 -10.65 -37.45 -13.9 L-37.1 -13.95 -34.9 -9.05 -36.45 -9.05 M-33.7 -14.1 L-30.15 -14.5 -28.4 -9.5 -31.5 -9.15 -33.7 -14.1 M-27.05 -15.0 L-21.95 -16.1 -19.5 -11.15 -25.05 -9.95 -27.05 -15.0 M-16.05 -16.55 L-11.9 -15.4 -11.05 -13.65 -14.3 -12.55 -16.05 -16.55 M-33.7 -47.15 Q-34.45 -47.55 -35.5 -47.55 -36.55 -47.55 -37.25 -47.15 -38.0 -46.75 -38.0 -46.2 -38.0 -45.65 -37.25 -45.25 -36.55 -44.85 -35.5 -44.85 -34.45 -44.85 -33.7 -45.25 -33.0 -45.65 -33.0 -46.2 -33.0 -46.75 -33.7 -47.15" fill="#333333" fill-rule="evenodd" stroke="none"/>
    <path d="M7.65 -76.55 Q11.2 -77.5 15.2 -77.5 19.8 -77.5 23.8 -71.35 28.2 -64.55 28.2 -55.05 28.2 -46.1 22.7 -38.6 15.05 -28.2 -0.1 -28.2 -7.75 -28.2 -18.75 -31.5 L-37.2 -37.8 -36.2 -38.3 -32.3 -39.95 -20.55 -39.15 -20.55 -39.05 Q6.75 -38.15 12.85 -45.4 L12.55 -46.15 12.0 -46.25 Q10.4 -46.3 7.65 -44.65 4.85 -42.9 3.0 -42.9 L1.05 -43.2 -0.8 -43.85 Q6.05 -49.2 8.6 -52.55 11.85 -56.85 11.85 -62.05 11.85 -66.2 9.05 -68.25 7.4 -69.45 0.4 -72.05 2.2 -75.15 7.65 -76.55 M0.55 -76.9 L1.55 -77.2 Q2.8 -77.2 3.55 -76.6 L3.35 -76.4 1.4 -75.3 Q0.5 -74.85 -0.7 -75.85 L-0.05 -76.35 0.55 -76.9 M17.55 -62.65 L16.95 -62.35 Q16.65 -62.1 16.65 -61.7 16.65 -61.3 16.95 -61.0 17.2 -60.75 17.55 -60.75 17.9 -60.75 18.2 -61.0 L18.45 -61.7 18.2 -62.35 17.55 -62.65 M20.95 -55.3 Q21.5 -54.6 22.3 -54.6 23.1 -54.6 23.65 -55.3 24.2 -56.05 24.2 -57.1 24.2 -58.15 23.65 -58.85 23.1 -59.6 22.3 -59.6 21.5 -59.6 20.95 -58.85 20.4 -58.15 20.4 -57.1 20.4 -56.05 20.95 -55.3 M8.6 -35.15 Q8.25 -34.85 8.25 -34.4 8.25 -33.95 8.6 -33.65 8.9 -33.35 9.35 -33.35 9.8 -33.35 10.15 -33.65 L10.45 -34.4 10.15 -35.15 9.35 -35.45 Q8.9 -35.45 8.6 -35.15 M-18.35 -58.15 Q-19.0 -55.85 -20.05 -54.75 -20.65 -54.1 -21.05 -54.1 -22.2 -54.1 -23.0 -55.3 -24.0 -56.8 -23.85 -59.75 -21.2 -59.7 -18.35 -58.15 M-2.25 -73.7 L-2.4 -72.6 Q-2.6 -69.8 -6.4 -68.55 -8.3 -67.9 -10.3 -67.8 -10.9 -67.8 -10.75 -67.95 L-10.5 -68.4 Q-9.9 -71.0 -7.25 -72.25 -5.95 -72.9 -2.25 -73.7 M-45.5 -41.15 Q-44.45 -41.9 -42.9 -41.9 -41.35 -41.9 -40.25 -41.15 -39.2 -40.45 -39.2 -39.4 -39.2 -38.35 -40.25 -37.6 -41.35 -36.9 -42.9 -36.9 -44.45 -36.9 -45.5 -37.6 -46.6 -38.35 -46.6 -39.4 -46.6 -40.45 -45.5 -41.15 M-21.95 -16.1 Q-18.35 -17.1 -16.05 -16.55 L-14.3 -12.55 -19.5 -11.15 -21.95 -16.1 M-11.9 -15.4 L-8.65 -14.6 -11.05 -13.65 -11.9 -15.4" fill="#4e4e4e" fill-rule="evenodd" stroke="none"/>
    <path d="M20.3 -79.45 Q29.2 -75.1 30.0 -67.55 27.4 -73.0 22.3 -76.5 16.85 -80.25 10.6 -80.25 0.25 -80.25 -10.25 -73.7 -19.6 -67.95 -19.6 -64.45 L-15.9 -60.1 -14.85 -58.15 Q-14.35 -56.9 -14.35 -56.3 -14.35 -52.3 -16.0 -50.0 -18.15 -46.9 -22.95 -47.6 -21.5 -46.9 -13.65 -46.2 L-13.1 -46.1 Q-13.5 -45.55 -14.7 -45.05 L-16.65 -44.55 Q-23.3 -44.55 -28.6 -48.15 L-31.75 -50.6 Q-33.1 -51.75 -33.65 -51.75 -38.75 -51.75 -44.6 -45.75 -50.0 -40.25 -50.0 -36.95 -50.0 -34.05 -49.2 -33.1 -48.45 -32.2 -45.7 -31.7 -31.65 -29.25 -23.45 -26.6 L-13.8 -23.45 Q-9.05 -22.1 -5.55 -22.1 2.45 -22.1 10.3 -24.35 18.7 -26.75 23.4 -30.9 16.2 -24.15 11.5 -22.15 8.65 -20.9 2.3 -20.35 L-0.65 -20.3 -3.15 -20.45 -5.95 -20.95 Q-8.25 -21.3 -7.4 -20.35 -6.9 -20.05 -2.75 -19.3 L2.05 -18.6 Q16.75 -18.6 26.7 -32.45 30.1 -37.15 32.3 -42.65 34.05 -46.95 34.05 -48.55 34.05 -88.05 4.55 -82.55 12.6 -83.2 20.3 -79.45 M30.65 -77.25 Q38.3 -69.1 38.3 -54.75 38.3 -34.1 24.85 -23.3 14.55 -15.05 1.25 -15.05 -14.95 -15.05 -28.05 -21.25 L-36.8 -25.55 Q-41.4 -27.5 -45.5 -27.5 -46.5 -27.5 -49.2 -26.2 -47.0 -26.5 -43.25 -25.45 L-30.8 -21.5 Q-33.7 -20.3 -35.4 -19.85 -38.65 -18.95 -42.1 -18.95 -49.5 -18.95 -54.05 -22.6 -58.35 -26.0 -58.35 -30.9 -58.35 -40.3 -48.8 -48.35 -40.55 -55.35 -34.5 -55.35 -33.1 -55.35 -28.2 -52.95 -23.3 -50.55 -22.05 -50.55 -18.7 -50.55 -17.1 -52.1 -15.55 -53.65 -15.55 -56.8 -15.55 -58.05 -17.55 -59.85 -19.9 -62.0 -22.65 -62.0 -23.15 -62.0 -26.5 -60.35 L-26.9 -63.15 Q-26.9 -64.25 -25.75 -65.95 -23.85 -68.7 -19.45 -71.8 -9.85 -78.6 -2.0 -81.55 5.75 -84.45 14.15 -84.45 23.95 -84.45 30.65 -77.25 M-5.9 -55.05 Q-5.45 -54.6 -5.45 -53.9 -5.45 -53.2 -5.9 -52.7 -6.4 -52.25 -7.05 -52.25 -7.7 -52.25 -8.15 -52.7 -8.65 -53.2 -8.65 -53.9 -8.65 -54.6 -8.15 -55.05 -7.7 -55.55 -7.05 -55.55 -6.4 -55.55 -5.9 -55.05 M-7.2 -59.55 L-7.45 -60.15 -7.2 -60.75 -6.65 -61.0 -6.05 -60.75 -5.85 -60.15 -6.05 -59.55 -6.65 -59.3 Q-7.0 -59.3 -7.2 -59.55 M-50.3 -31.85 Q-53.6 -31.7 -54.4 -29.55 -52.1 -29.25 -50.3 -31.85 M-36.45 -9.05 L-40.6 -9.45 Q-43.15 -10.15 -47.3 -15.9 L-40.8 -14.35 -37.45 -13.9 Q-36.25 -10.65 -36.45 -9.05 M-37.1 -13.95 L-33.7 -14.1 -31.5 -9.15 -34.9 -9.05 -37.1 -13.95 M-30.15 -14.5 L-27.05 -15.0 -25.05 -9.95 -28.4 -9.5 -30.15 -14.5 M-33.7 -47.15 Q-33.0 -46.75 -33.0 -46.2 -33.0 -45.65 -33.7 -45.25 -34.45 -44.85 -35.5 -44.85 -36.55 -44.85 -37.25 -45.25 -38.0 -45.65 -38.0 -46.2 -38.0 -46.75 -37.25 -47.15 -36.55 -47.55 -35.5 -47.55 -34.45 -47.55 -33.7 -47.15" fill="#202020" fill-rule="evenodd" stroke="none"/>
  </g>
</svg>
