<?xml version="1.0" encoding="UTF-8" standalone="no"?>
<svg xmlns:ffdec="https://www.free-decompiler.com/flash" xmlns:xlink="http://www.w3.org/1999/xlink" ffdec:objectType="shape" height="217.3px" width="307.6px" xmlns="http://www.w3.org/2000/svg">
  <g transform="matrix(1.0, 0.0, 0.0, 1.0, 307.6, 227.1)">
    <path d="M-281.95 -210.45 L-302.15 -210.45 -297.75 -94.0 -299.55 -94.0 -304.2 -212.4 -282.0 -212.4 -281.95 -210.45 M-234.2 -210.45 L-234.7 -210.6 -240.8 -212.4 -169.3 -212.4 -173.9 -94.0 -175.8 -94.0 -171.4 -210.45 -234.2 -210.45 M-252.75 -90.9 L-253.25 -91.4 -259.75 -90.9 -264.75 -90.9 -265.25 -91.4 -271.75 -90.9 -276.75 -90.9 -277.25 -91.4 -283.75 -90.9 -288.75 -90.9 -289.25 -91.4 -295.75 -90.9 -300.75 -90.9 -301.25 -91.4 -304.35 -91.25 -304.5 -90.9 -305.75 -90.9 -305.75 -93.15 -167.5 -93.15 -167.5 -90.9 -168.75 -90.9 -169.25 -91.4 -175.75 -90.9 -180.75 -90.9 -181.25 -91.4 -187.75 -90.9 -192.75 -90.9 -193.25 -91.4 -199.75 -90.9 -204.75 -90.9 -205.25 -91.4 -211.75 -90.9 -216.75 -90.9 -217.25 -91.4 -223.75 -90.9 -228.75 -90.9 -229.25 -91.4 -235.75 -90.9 -240.75 -90.9 -241.25 -91.4 -247.75 -90.9 -252.75 -90.9 M-269.9 -69.4 L-274.9 -69.4 -275.4 -69.9 -281.9 -69.4 -286.9 -69.4 -287.15 -69.5 -289.25 -69.7 -289.9 -69.6 -290.65 -69.4 -291.9 -69.4 -291.9 -70.55 -291.75 -70.55 -291.75 -72.15 -153.5 -72.15 -153.5 -70.55 -153.65 -70.55 -153.65 -69.4 -154.9 -69.4 -155.4 -69.9 -161.9 -69.4 -166.9 -69.4 -167.4 -69.9 -171.2 -69.6 -171.55 -69.65 -173.3 -69.65 -173.85 -69.45 -173.9 -69.4 -178.9 -69.4 -179.4 -69.9 -185.9 -69.4 -190.9 -69.4 -191.4 -69.9 -197.9 -69.4 -202.9 -69.4 -203.4 -69.9 -209.9 -69.4 -213.35 -69.4 -213.4 -69.45 Q-213.6 -69.65 -214.0 -69.65 L-215.15 -69.65 -215.4 -69.9 -221.9 -69.4 -226.9 -69.4 -227.4 -69.9 -233.9 -69.4 -238.9 -69.4 -239.4 -69.9 -245.9 -69.4 -250.9 -69.4 -251.4 -69.9 -257.9 -69.4 -262.9 -69.4 -263.4 -69.9 -269.9 -69.4 M-164.5 -51.65 L-164.5 -49.4 -165.75 -49.4 -166.25 -49.9 -172.75 -49.4 -177.75 -49.4 -178.25 -49.9 -182.05 -49.6 -182.4 -49.65 -184.15 -49.65 -184.7 -49.45 -184.75 -49.4 -189.75 -49.4 -190.25 -49.9 -196.75 -49.4 -201.75 -49.4 -202.25 -49.9 -208.75 -49.4 -213.75 -49.4 -214.25 -49.9 -220.75 -49.4 -224.2 -49.4 -224.25 -49.45 -224.85 -49.65 -226.0 -49.65 -226.25 -49.9 -232.75 -49.4 -237.75 -49.4 -238.25 -49.9 -244.75 -49.4 -249.75 -49.4 -250.25 -49.9 -256.75 -49.4 -261.75 -49.4 -262.25 -49.9 -268.75 -49.4 -273.75 -49.4 -274.25 -49.9 -280.75 -49.4 -285.75 -49.4 -286.25 -49.9 -292.75 -49.4 -297.75 -49.4 -300.75 -49.6 -301.5 -49.4 -302.75 -49.4 -302.75 -51.65 -164.5 -51.65 M-81.1 -66.2 L-79.75 -69.05 Q-78.05 -71.65 -75.65 -71.65 -73.25 -71.6 -71.55 -69.05 -70.75 -67.85 -70.25 -66.35 L-74.75 -66.5 -81.1 -66.2 M-73.7 -69.4 L-74.85 -70.5 Q-76.0 -70.7 -76.75 -70.2 -77.35 -69.8 -77.35 -69.45 L-76.85 -68.6 Q-76.05 -67.8 -74.35 -67.8 L-73.1 -67.95 Q-73.0 -67.8 -73.0 -68.4 -73.0 -68.75 -73.7 -69.4 M-14.45 -17.55 L-14.5 -18.05 Q-14.5 -19.8 -13.25 -21.05 -12.0 -22.3 -10.25 -22.3 L-5.25 -22.3 -4.45 -22.35 -2.8 -21.95 -2.05 -21.5 Q-0.6 -20.45 -0.4 -19.1 -0.2 -17.8 -0.35 -17.3 L-14.45 -17.55" fill="#cccccc" fill-rule="evenodd" stroke="none"/>
    <path d="M-2.8 -22.7 L-1.55 -21.75 Q0.0 -20.2 0.0 -18.05 L0.0 -17.55 Q-0.2 -15.7 -1.55 -14.35 -3.1 -12.8 -5.25 -12.8 L-6.95 -12.8 -10.3 -12.8 Q-11.45 -12.8 -12.4 -13.25 L-12.95 -13.55 -13.95 -14.35 Q-15.3 -15.7 -15.45 -17.55 L-15.5 -18.05 Q-15.5 -20.2 -13.95 -21.75 -12.4 -23.3 -10.25 -23.3 L-5.25 -23.3 -4.4 -23.2 -2.8 -22.7 M-143.4 -23.65 L-166.25 -23.65 -166.25 -27.9 -143.1 -27.9 -143.4 -23.65 M-300.75 -31.55 L-304.6 -31.55 -304.6 -52.5 -293.75 -52.65 -293.75 -72.65 -307.6 -73.05 -307.6 -94.0 -300.4 -94.0 -305.1 -213.25 -282.0 -213.25 -282.0 -212.4 -304.2 -212.4 -299.55 -94.0 -297.75 -94.0 -295.4 -94.0 -263.95 -94.0 -258.45 -94.0 -209.0 -94.0 -203.5 -94.0 -178.1 -94.0 -175.8 -94.0 -173.9 -94.0 -169.3 -212.4 -240.8 -212.4 -243.6 -213.25 -168.4 -213.25 -173.15 -94.0 -165.4 -94.0 -165.25 -73.4 -151.4 -73.0 -151.4 -52.05 -162.25 -51.9 -162.4 -31.55 -166.25 -31.55 -166.25 -31.9 -166.4 -32.25 -166.7 -32.4 -163.25 -32.4 -163.25 -51.65 -164.5 -51.65 -302.75 -51.65 -303.75 -51.65 -303.75 -32.4 -300.25 -32.4 -300.6 -32.25 -300.75 -31.9 -300.75 -31.55 M-82.0 -66.1 Q-81.45 -68.0 -80.3 -69.45 -78.1 -72.2 -75.4 -72.45 -72.75 -72.7 -70.7 -69.6 -69.7 -68.1 -69.15 -66.2 L-70.25 -66.35 Q-70.75 -67.85 -71.55 -69.05 -73.25 -71.6 -75.65 -71.65 -78.05 -71.65 -79.75 -69.05 L-81.1 -66.2 -82.0 -66.1 M-10.15 -39.55 L-10.0 -39.55 Q-8.3 -39.3 -6.75 -37.6 -5.25 -35.95 -4.65 -34.5 -4.05 -33.05 -4.05 -30.85 -4.05 -30.3 -4.2 -29.85 -4.45 -29.2 -5.0 -28.95 L-5.9 -28.8 -7.35 -29.1 -9.05 -30.2 -9.3 -30.4 Q-11.0 -31.95 -11.85 -34.1 -12.8 -36.35 -12.3 -37.95 L-12.3 -38.0 Q-12.0 -39.05 -11.25 -39.4 L-10.15 -39.55 M-167.5 -93.15 L-305.75 -93.15 -306.75 -93.15 -306.75 -73.9 -166.25 -73.9 -166.25 -93.15 -167.5 -93.15 M-291.75 -72.15 L-292.75 -72.15 -292.75 -70.55 -292.9 -70.55 -292.9 -55.55 -292.75 -55.55 -292.75 -52.9 -152.25 -52.9 -152.25 -55.55 -152.4 -55.55 -152.4 -70.55 -152.25 -70.55 -152.25 -72.15 -153.5 -72.15 -291.75 -72.15 M-9.4 -38.7 L-9.95 -38.8 -10.45 -38.7 Q-11.1 -38.5 -11.35 -37.7 -11.7 -36.35 -10.95 -34.5 L-10.9 -34.45 Q-10.2 -32.55 -8.65 -31.15 -7.2 -29.85 -5.9 -29.8 L-5.25 -29.9 Q-4.75 -30.15 -4.55 -30.85 L-4.5 -30.9 -4.5 -30.95 Q-4.15 -32.25 -4.85 -34.1 -5.65 -36.05 -7.2 -37.45 -8.35 -38.5 -9.4 -38.7 M-0.35 -17.3 Q-0.2 -17.8 -0.4 -19.1 -0.6 -20.45 -2.05 -21.5 L-2.8 -21.95 -4.45 -22.35 -5.25 -22.3 -10.25 -22.3 Q-12.0 -22.3 -13.25 -21.05 -14.5 -19.8 -14.5 -18.05 L-14.45 -17.55 Q-14.3 -16.1 -13.25 -15.05 -12.4 -14.2 -11.3 -13.9 L-10.4 -13.8 -10.25 -13.8 -5.25 -13.8 Q-3.5 -13.8 -2.05 -15.05 -0.6 -16.3 -0.35 -17.3" fill="#232323" fill-rule="evenodd" stroke="none"/>
    <path d="M-183.55 -196.1 L-174.4 -196.1 -177.55 -107.85 -203.15 -107.85 -200.95 -185.1 -191.35 -189.65 -191.05 -188.9 -189.9 -188.4 -188.5 -189.05 -188.0 -191.35 -183.6 -193.7 -183.55 -196.1 M-253.45 -165.75 L-253.25 -165.05 -251.55 -164.65 -250.6 -166.5 -246.5 -167.7 Q-247.05 -164.4 -244.2 -162.95 L-243.6 -162.7 Q-241.5 -163.85 -241.6 -166.5 L-241.65 -167.4 -240.25 -167.6 -239.55 -169.9 -238.05 -170.2 Q-232.25 -171.65 -227.0 -174.25 L-226.35 -172.35 -224.4 -172.85 -224.25 -175.25 -215.65 -178.65 Q-213.15 -177.4 -211.7 -179.85 L-211.35 -180.45 -207.05 -182.3 -207.0 -182.25 -208.7 -107.85 -258.75 -107.85 -260.05 -164.0 -253.45 -165.75 M-281.05 -196.1 Q-280.7 -191.2 -279.95 -186.3 -279.1 -180.75 -277.85 -175.3 -276.55 -169.5 -274.85 -163.65 L-274.45 -162.35 -274.15 -161.15 -265.85 -162.75 -264.35 -107.85 -291.0 -107.85 -293.95 -196.1 -281.05 -196.1 M-259.75 -90.9 L-259.25 -90.4 -253.05 -90.4 -252.75 -90.9 -247.75 -90.9 -247.25 -90.4 -241.05 -90.4 -240.75 -90.9 -235.75 -90.9 -235.25 -90.4 -229.05 -90.4 -228.75 -90.9 -223.75 -90.9 -223.25 -90.4 -217.05 -90.4 -216.75 -90.9 -211.75 -90.9 -211.25 -90.4 -205.05 -90.4 -204.75 -90.9 -199.75 -90.9 -199.25 -90.4 -193.05 -90.4 -192.75 -90.9 -187.75 -90.9 -187.25 -90.4 -181.05 -90.4 -180.75 -90.9 -175.75 -90.9 -175.25 -90.4 -169.05 -90.4 -168.75 -90.9 -167.5 -90.9 -167.5 -75.4 -305.75 -75.4 -305.75 -90.9 -304.5 -90.9 -301.25 -90.4 -300.75 -90.9 -295.75 -90.9 -295.3 -90.8 -294.15 -90.6 -288.75 -90.9 -283.75 -90.9 -282.1 -90.55 -276.75 -90.9 -271.75 -90.9 -270.1 -90.55 -264.75 -90.9 -259.75 -90.9 M-269.95 -66.25 Q-270.7 -67.1 -271.85 -67.1 -274.05 -67.1 -275.55 -65.55 -277.1 -64.0 -277.1 -61.8 -277.1 -59.65 -275.55 -58.1 -274.1 -56.6 -271.85 -56.6 -270.7 -56.6 -269.95 -57.4 L-269.95 -56.7 -266.55 -56.7 -266.55 -66.95 -269.95 -66.95 -269.95 -66.25 M-270.5 -63.2 Q-269.95 -62.55 -269.95 -61.8 -269.95 -61.1 -270.5 -60.45 -271.05 -59.9 -271.8 -59.9 -272.6 -59.9 -273.15 -60.45 -273.7 -61.0 -273.7 -61.8 -273.7 -62.65 -273.15 -63.2 -272.6 -63.75 -271.8 -63.75 -271.05 -63.75 -270.5 -63.2 M-269.9 -69.4 L-268.25 -69.0 Q-265.65 -68.55 -262.9 -69.4 L-257.9 -69.4 -256.3 -69.0 Q-253.35 -68.55 -250.9 -69.4 L-245.9 -69.4 -245.4 -68.9 -239.2 -68.9 -238.9 -69.4 -233.9 -69.4 -233.4 -68.9 -227.2 -68.9 -226.9 -69.4 -221.9 -69.4 -221.4 -68.9 -216.55 -68.9 -216.55 -67.9 -216.3 -67.35 Q-216.1 -67.1 -215.75 -67.1 L-214.0 -67.1 -213.4 -67.35 -213.15 -67.9 -213.15 -68.85 -213.35 -69.4 -209.9 -69.4 -209.4 -68.9 -203.2 -68.9 -202.9 -69.4 -197.9 -69.4 -197.4 -68.9 -191.2 -68.9 -190.9 -69.4 -185.9 -69.4 -185.4 -68.9 -179.2 -68.9 -178.9 -69.4 -173.9 -69.4 -174.1 -68.85 -174.1 -67.9 -173.85 -67.35 Q-173.65 -67.1 -173.3 -67.1 L-171.55 -67.1 Q-171.15 -67.1 -170.95 -67.35 L-170.7 -67.9 -170.7 -68.9 -167.2 -68.9 -166.9 -69.4 -161.9 -69.4 -161.4 -68.9 -155.2 -68.9 -154.9 -69.4 -153.65 -69.4 -153.65 -55.55 -153.5 -55.55 -153.5 -54.4 -291.75 -54.4 -291.75 -55.55 -291.9 -55.55 -291.9 -69.4 -290.65 -69.4 -289.75 -69.15 -286.9 -69.4 -281.9 -69.4 -280.25 -69.0 Q-277.35 -68.55 -274.9 -69.4 L-269.9 -69.4 M-281.1 -62.55 L-281.7 -62.25 -283.25 -62.25 -283.25 -64.15 -281.7 -64.15 -281.1 -63.85 -280.85 -63.2 -281.1 -62.55 M-280.9 -66.95 L-286.65 -66.95 -286.65 -56.7 -283.25 -56.7 -283.25 -59.5 -280.9 -59.5 Q-279.45 -59.5 -278.5 -60.6 -277.5 -61.75 -277.5 -63.25 -277.5 -64.75 -278.5 -65.9 -279.45 -66.95 -280.9 -66.95 M-266.1 -56.7 L-262.7 -56.7 -262.7 -59.5 -260.35 -59.5 Q-258.9 -59.5 -257.95 -60.6 -256.95 -61.75 -256.95 -63.25 -256.95 -64.75 -257.95 -65.9 -258.9 -66.95 -260.35 -66.95 L-266.1 -66.95 -266.1 -56.7 M-249.4 -66.25 Q-250.15 -67.1 -251.3 -67.1 -253.5 -67.1 -255.0 -65.55 -256.55 -64.0 -256.55 -61.8 -256.55 -59.65 -255.0 -58.1 -253.55 -56.6 -251.3 -56.6 -250.15 -56.6 -249.4 -57.4 L-249.4 -56.7 -246.0 -56.7 -246.0 -66.95 -249.4 -66.95 -249.4 -66.25 M-249.95 -63.2 Q-249.4 -62.55 -249.4 -61.8 -249.4 -61.1 -249.95 -60.45 -250.5 -59.9 -251.25 -59.9 -252.05 -59.9 -252.6 -60.45 -253.15 -61.0 -253.15 -61.8 -253.15 -62.65 -252.6 -63.2 -252.05 -63.75 -251.25 -63.75 -250.5 -63.75 -249.95 -63.2 M-243.05 -62.95 L-242.55 -66.95 -245.55 -66.95 -245.0 -62.95 -243.05 -62.95 M-260.3 -63.2 L-260.55 -62.55 -261.15 -62.25 -262.7 -62.25 -262.7 -64.15 -261.15 -64.15 -260.55 -63.85 -260.3 -63.2 M-164.5 -49.4 L-164.5 -33.9 -302.75 -33.9 -302.75 -49.4 -301.5 -49.4 -300.6 -49.15 -297.75 -49.4 -292.75 -49.4 -291.1 -49.0 -285.75 -49.4 -280.75 -49.4 -279.1 -49.0 -273.75 -49.4 -268.75 -49.4 -267.15 -49.0 Q-264.2 -48.55 -261.75 -49.4 L-256.75 -49.4 -256.25 -48.9 -250.05 -48.9 -249.75 -49.4 -244.75 -49.4 -244.25 -48.9 -238.05 -48.9 -237.75 -49.4 -232.75 -49.4 -232.25 -48.9 -227.4 -48.9 -227.15 -49.45 -226.6 -49.65 -226.0 -49.65 -224.85 -49.65 -224.25 -49.45 -224.2 -49.4 -220.75 -49.4 -220.25 -48.9 -214.05 -48.9 -213.75 -49.4 -208.75 -49.4 -208.25 -48.9 -202.05 -48.9 -201.75 -49.4 -196.75 -49.4 -196.25 -48.9 -190.05 -48.9 -189.75 -49.4 -184.75 -49.4 -184.7 -49.45 -184.15 -49.65 -182.4 -49.65 -182.05 -49.6 -181.8 -49.45 -181.55 -48.9 -178.05 -48.9 -177.75 -49.4 -172.75 -49.4 -172.25 -48.9 -166.05 -48.9 -165.75 -49.4 -164.5 -49.4 M-189.9 -64.15 L-188.85 -63.9 Q-188.5 -63.7 -188.5 -63.35 -188.5 -62.85 -189.25 -62.85 L-191.95 -62.85 Q-191.25 -64.15 -189.9 -64.15 M-189.9 -67.1 Q-192.05 -67.1 -193.6 -65.55 -195.1 -64.05 -195.1 -61.9 -195.1 -59.7 -193.6 -58.2 -192.0 -56.7 -189.9 -56.7 L-186.25 -56.7 -186.2 -59.85 -189.9 -59.85 Q-190.85 -59.85 -191.45 -60.45 L-188.75 -60.45 Q-187.05 -60.45 -186.05 -61.3 -185.1 -62.15 -185.1 -63.6 -185.1 -65.05 -186.35 -66.05 -187.55 -67.1 -189.25 -67.1 L-189.9 -67.1 M-198.55 -59.5 L-195.25 -66.95 -203.5 -66.95 -203.5 -64.15 -200.25 -64.15 -203.55 -56.7 -195.25 -56.7 -195.25 -59.5 -198.55 -59.5 M-184.1 -56.7 L-180.7 -56.7 -180.7 -62.9 -180.45 -63.6 -179.8 -63.85 -179.15 -63.6 -178.85 -62.9 -178.85 -60.8 -175.5 -60.8 -175.5 -63.3 Q-175.5 -64.9 -176.6 -66.0 -177.8 -67.1 -179.25 -67.1 -180.1 -67.1 -180.7 -66.5 L-180.7 -66.95 -184.1 -66.95 -184.1 -56.7 M-164.8 -63.75 Q-164.05 -63.75 -163.5 -63.2 -162.95 -62.55 -162.95 -61.8 -162.95 -61.1 -163.5 -60.45 -164.05 -59.9 -164.8 -59.9 -165.6 -59.9 -166.15 -60.45 -166.7 -61.0 -166.7 -61.8 -166.7 -62.65 -166.15 -63.2 -165.6 -63.75 -164.8 -63.75 M-164.85 -67.1 Q-167.05 -67.1 -168.55 -65.55 -170.1 -64.0 -170.1 -61.8 -170.1 -59.65 -168.55 -58.1 -167.1 -56.6 -164.85 -56.6 -163.7 -56.6 -162.95 -57.4 L-162.95 -56.7 -159.55 -56.7 -159.55 -66.95 -162.95 -66.95 -162.95 -66.25 Q-163.7 -67.1 -164.85 -67.1 M-170.7 -66.25 L-174.1 -66.25 -174.1 -56.7 -170.7 -56.7 -170.7 -66.25 M-223.15 -64.15 L-221.6 -64.15 -221.0 -63.85 -220.75 -63.2 -221.0 -62.55 -221.6 -62.25 -223.15 -62.25 -223.15 -64.15 M-241.55 -63.3 Q-241.55 -61.85 -240.45 -61.2 L-238.4 -60.55 Q-237.3 -60.3 -237.3 -59.9 -237.3 -59.3 -238.4 -59.3 L-239.9 -59.55 -240.9 -60.0 -241.55 -57.3 Q-239.95 -56.6 -238.0 -56.6 -236.15 -56.6 -235.0 -57.35 -233.55 -58.35 -233.55 -60.2 -233.55 -61.7 -234.65 -62.45 L-236.7 -63.2 Q-237.85 -63.45 -237.85 -63.85 L-237.8 -64.0 Q-237.65 -64.4 -237.05 -64.4 -236.15 -64.4 -234.45 -63.5 L-234.0 -66.55 Q-234.8 -67.1 -237.15 -67.1 -239.05 -67.1 -240.3 -66.0 -241.55 -64.95 -241.55 -63.3 M-223.15 -56.7 L-223.15 -59.5 -220.8 -59.5 Q-219.35 -59.5 -218.4 -60.6 -217.4 -61.75 -217.4 -63.25 -217.4 -64.75 -218.4 -65.9 -219.35 -66.95 -220.8 -66.95 L-226.55 -66.95 -226.55 -56.7 -223.15 -56.7 M-209.25 -64.15 L-212.55 -56.7 -204.25 -56.7 -204.25 -59.5 -207.55 -59.5 -204.25 -66.95 -212.5 -66.95 -212.5 -64.15 -209.25 -64.15 M-216.55 -66.25 L-216.55 -56.7 -213.15 -56.7 -213.15 -66.25 -216.55 -66.25 M-73.7 -69.4 Q-73.0 -68.75 -73.0 -68.4 -73.0 -67.8 -73.1 -67.95 L-74.35 -67.8 Q-76.05 -67.8 -76.85 -68.6 L-77.35 -69.45 Q-77.35 -69.8 -76.75 -70.2 -76.0 -70.7 -74.85 -70.5 L-73.7 -69.4 M-9.4 -38.7 Q-8.35 -38.5 -7.2 -37.45 -5.65 -36.05 -4.85 -34.1 -4.15 -32.25 -4.5 -30.95 L-4.5 -30.9 -4.55 -30.85 Q-4.75 -30.15 -5.25 -29.9 L-5.9 -29.8 Q-7.2 -29.85 -8.65 -31.15 -10.2 -32.55 -10.9 -34.45 L-10.95 -34.5 Q-11.7 -36.35 -11.35 -37.7 -11.1 -38.5 -10.45 -38.7 L-9.95 -38.8 -9.4 -38.7" fill="#ffffff" fill-rule="evenodd" stroke="none"/>
    <path d="M-4.4 -23.2 L-5.25 -23.3 -10.25 -23.3 Q-12.4 -23.3 -13.95 -21.75 -15.5 -20.2 -15.5 -18.05 L-15.45 -17.55 Q-15.3 -15.7 -13.95 -14.35 L-12.95 -13.55 -15.7 -13.3 -16.0 -14.4 Q-17.3 -19.1 -21.0 -22.3 L-20.8 -22.7 Q-26.15 -26.85 -32.55 -28.95 L-33.1 -28.5 Q-39.1 -26.6 -43.4 -21.75 L-42.75 -21.4 Q-46.1 -18.1 -46.6 -13.3 L-50.3 -13.05 Q-49.15 -24.2 -50.05 -35.3 L-34.05 -35.0 Q-30.05 -34.9 -25.75 -35.2 L-25.65 -35.2 Q-20.45 -34.45 -17.65 -35.4 L-17.35 -35.45 -17.45 -35.5 -16.85 -35.75 -17.95 -35.95 -19.1 -36.3 -20.55 -36.45 Q-35.15 -39.3 -50.45 -39.7 L-51.65 -45.25 -50.5 -43.8 Q-49.45 -42.7 -48.2 -41.9 -29.95 -41.75 -11.25 -39.4 -12.0 -39.05 -12.3 -38.0 L-12.3 -37.95 Q-12.8 -36.35 -11.85 -34.1 -11.0 -31.95 -9.3 -30.4 L-9.05 -30.2 -10.2 -30.1 Q-11.05 -29.9 -10.95 -28.95 L-10.75 -28.7 Q-9.75 -27.55 -8.3 -28.0 L-7.9 -28.05 -7.35 -29.1 -5.9 -28.8 -5.0 -28.95 -4.5 -25.9 -4.4 -23.2 M-101.75 -59.95 Q-104.5 -57.7 -106.6 -54.6 L-113.0 -45.75 -116.35 -41.45 -94.0 -42.35 -94.0 -41.15 -108.45 -40.75 -122.65 -40.0 -133.6 -39.2 -139.6 -39.2 -139.65 -39.3 -120.15 -41.2 -116.45 -48.35 -112.0 -53.9 Q-108.5 -57.5 -104.3 -60.35 -98.25 -64.5 -90.75 -64.85 L-82.3 -65.05 -81.35 -65.1 -73.45 -65.25 -70.0 -65.2 -68.95 -65.1 -63.1 -64.2 Q-57.45 -62.85 -55.65 -56.9 L-51.45 -42.45 -51.15 -41.4 -50.75 -39.2 Q-49.9 -33.5 -50.05 -27.7 -50.2 -22.75 -50.5 -17.85 L-50.85 -13.4 -51.1 -11.2 -51.55 -11.25 Q-50.6 -17.95 -50.7 -24.8 -50.7 -29.75 -51.05 -34.7 L-51.45 -39.65 -68.0 -40.75 -81.75 -41.1 -89.4 -41.15 -93.15 -41.1 Q-93.6 -33.15 -93.4 -25.2 L-93.0 -14.6 -92.75 -12.4 -92.6 -11.4 -93.0 -11.1 -93.6 -22.85 -93.7 -34.5 -93.55 -40.35 -93.45 -42.35 -92.8 -42.4 -92.45 -45.55 -91.2 -55.0 -90.25 -60.7 -89.85 -62.9 -91.95 -62.75 -94.05 -62.4 -98.25 -61.65 Q-100.2 -61.15 -101.75 -59.95 M-81.5 -63.85 L-82.45 -63.75 -88.35 -63.0 Q-90.7 -52.9 -90.35 -42.45 L-54.55 -42.05 -54.7 -44.15 Q-55.25 -54.05 -61.5 -61.3 -65.1 -62.5 -68.75 -63.1 L-69.75 -63.3 -81.5 -63.85 M-124.45 -20.3 Q-125.7 -18.6 -126.4 -16.6 L-127.2 -13.4 -141.85 -13.0 Q-143.05 -18.25 -142.8 -23.65 L-142.35 -27.9 -141.85 -30.6 Q-114.35 -33.55 -94.25 -34.55 L-93.65 -13.25 -99.65 -13.55 -99.85 -14.4 Q-101.55 -21.0 -107.45 -24.25 L-107.55 -24.3 -111.85 -25.9 -111.55 -25.9 -111.9 -26.25 -116.35 -26.5 -120.45 -25.5 -120.85 -25.7 -121.45 -24.9 -122.5 -25.15 -122.75 -24.5 -122.15 -24.45 -124.45 -20.3 M-100.2 -27.05 Q-101.3 -26.7 -101.35 -25.55 L-101.35 -25.25 -98.55 -25.45 -99.45 -26.75 -100.2 -27.05 M-51.7 -14.9 L-53.45 -13.6 -74.25 -13.75 -85.25 -13.45 -91.7 -13.8 -92.5 -15.0 -93.0 -34.55 -51.5 -35.3 -51.4 -32.75 -51.25 -30.2 Q-51.05 -22.55 -51.7 -14.9 M-45.95 -25.25 L-44.95 -25.85 -44.95 -26.1 -45.5 -26.6 -47.05 -25.95 -45.95 -25.25" fill="#ad3f32" fill-rule="evenodd" stroke="none"/>
    <path d="M-6.95 -12.8 Q-10.0 -10.3 -15.0 -10.6 L-17.9 -10.6 -18.8 -11.4 Q-18.95 -18.9 -26.1 -21.9 -28.95 -23.05 -32.0 -22.65 -39.6 -21.7 -42.55 -14.65 -43.35 -12.75 -43.45 -10.75 -72.05 -8.45 -100.4 -11.7 L-93.55 -11.4 -93.65 -12.75 -100.0 -13.15 Q-104.2 -27.75 -118.7 -23.3 -123.45 -21.95 -125.55 -17.4 -126.55 -15.3 -126.75 -13.05 L-141.85 -12.5 -141.85 -11.8 -125.6 -11.8 Q-124.15 -22.75 -113.15 -22.9 -105.95 -23.0 -102.4 -16.8 -101.1 -14.45 -101.25 -11.8 L-101.8 -11.85 Q-102.65 -11.95 -102.7 -12.95 -102.9 -17.3 -106.55 -19.75 -115.7 -25.8 -122.4 -17.25 -123.35 -16.0 -123.7 -14.55 L-123.8 -13.95 Q-123.8 -12.3 -124.7 -10.9 L-142.0 -10.9 -142.85 -12.65 Q-143.6 -18.4 -143.4 -23.65 L-143.1 -27.9 -142.6 -31.6 Q-144.4 -35.65 -142.0 -40.1 L-141.85 -40.1 -120.95 -42.5 -116.6 -49.8 -116.45 -49.95 -116.0 -50.55 Q-108.1 -62.85 -97.0 -64.5 L-82.0 -66.1 -81.1 -66.2 -74.75 -66.5 -70.25 -66.35 -69.15 -66.2 Q-64.1 -65.5 -59.5 -63.2 -56.95 -61.9 -55.6 -59.2 -53.9 -55.8 -53.1 -52.0 -52.45 -48.9 -50.85 -46.25 -49.65 -44.25 -47.9 -42.7 L-10.95 -40.35 -10.15 -39.55 -11.25 -39.4 Q-29.95 -41.75 -48.2 -41.9 -49.45 -42.7 -50.5 -43.8 L-51.65 -45.25 -50.45 -39.7 Q-35.15 -39.3 -20.55 -36.45 L-50.3 -39.25 -50.1 -35.75 -30.25 -35.4 -25.75 -35.2 Q-30.05 -34.9 -34.05 -35.0 L-50.05 -35.3 Q-49.15 -24.2 -50.3 -13.05 L-46.6 -13.3 Q-46.1 -18.1 -42.75 -21.4 -32.85 -30.05 -21.95 -22.95 L-21.0 -22.3 Q-17.3 -19.1 -16.0 -14.4 L-15.7 -13.3 -12.95 -13.55 -12.4 -13.25 -13.0 -13.15 -16.0 -12.75 Q-17.25 -18.7 -22.0 -22.3 -28.75 -27.4 -36.65 -24.8 -36.85 -24.65 -37.15 -24.55 -44.2 -21.4 -45.95 -14.1 L-46.1 -12.95 -50.45 -12.65 -50.55 -11.4 -44.7 -11.55 Q-44.1 -19.95 -36.1 -22.6 -27.15 -25.7 -20.5 -18.75 -17.6 -15.7 -17.5 -11.5 -13.7 -11.5 -10.3 -12.8 L-6.95 -12.8 M-4.2 -29.85 Q-3.25 -27.2 -2.9 -24.2 L-2.8 -22.7 -4.4 -23.2 -4.5 -25.9 -5.0 -28.95 Q-4.45 -29.2 -4.2 -29.85 M-101.75 -59.95 Q-100.2 -61.15 -98.25 -61.65 L-94.05 -62.4 -91.95 -62.75 -89.85 -62.9 -90.25 -60.7 -91.2 -55.0 -92.45 -45.55 -92.8 -42.4 -93.45 -42.35 -93.55 -40.35 -93.7 -34.5 -93.6 -22.85 -93.0 -11.1 -92.6 -11.4 -92.75 -12.4 -93.0 -14.6 -93.4 -25.2 Q-93.6 -33.15 -93.15 -41.1 L-89.4 -41.15 -81.75 -41.1 -68.0 -40.75 -51.45 -39.65 -51.05 -34.7 Q-50.7 -29.75 -50.7 -24.8 -50.6 -17.95 -51.55 -11.25 L-51.1 -11.2 -50.85 -13.4 -50.5 -17.85 Q-50.2 -22.75 -50.05 -27.7 -49.9 -33.5 -50.75 -39.2 L-51.15 -41.4 -51.45 -42.45 -55.65 -56.9 Q-57.45 -62.85 -63.1 -64.2 L-68.95 -65.1 -70.0 -65.2 -73.45 -65.25 -81.35 -65.1 -82.3 -65.05 -90.75 -64.85 Q-98.25 -64.5 -104.3 -60.35 -108.5 -57.5 -112.0 -53.9 L-116.45 -48.35 -120.15 -41.2 -139.65 -39.3 -139.6 -39.2 -133.6 -39.2 -122.65 -40.0 -108.45 -40.75 -94.0 -41.15 -94.0 -42.35 -116.35 -41.45 -113.0 -45.75 -106.6 -54.6 Q-104.5 -57.7 -101.75 -59.95 M-90.4 -62.35 L-90.4 -62.55 -97.75 -61.15 Q-101.95 -60.1 -104.55 -56.65 L-107.05 -53.4 -107.15 -53.3 -107.75 -52.5 -108.05 -52.1 -114.1 -44.0 -114.2 -43.95 -114.25 -43.75 -115.75 -41.85 -108.7 -42.15 -97.7 -42.55 -93.15 -42.75 -93.05 -44.9 -93.0 -45.1 -92.35 -51.5 -91.75 -55.85 -91.7 -56.1 -90.75 -60.8 -90.7 -61.05 -90.4 -62.35 M-88.05 -62.2 L-89.0 -57.5 -89.45 -54.6 -89.55 -53.1 -89.9 -46.9 -89.9 -46.7 -89.9 -43.65 -89.85 -42.85 -88.65 -42.8 -69.05 -42.55 -62.95 -42.5 -55.0 -42.45 -55.7 -47.0 -56.3 -49.45 Q-57.25 -53.05 -58.75 -56.55 -59.55 -58.65 -61.15 -60.25 L-61.35 -60.35 -62.05 -61.0 -62.45 -61.35 -63.55 -61.6 -68.75 -62.5 -69.75 -62.65 -72.35 -62.95 -72.5 -62.95 -75.2 -63.15 -77.95 -63.25 -78.4 -63.25 -81.55 -63.15 -82.5 -63.1 -85.1 -62.95 -86.75 -62.9 -87.95 -62.75 -88.05 -62.2 M-81.5 -63.85 L-69.75 -63.3 -68.75 -63.1 Q-65.1 -62.5 -61.5 -61.3 -55.25 -54.05 -54.7 -44.15 L-54.55 -42.05 -90.35 -42.45 Q-90.7 -52.9 -88.35 -63.0 L-82.45 -63.75 -81.5 -63.85 M-107.55 -24.3 L-107.45 -24.25 Q-101.55 -21.0 -99.85 -14.4 L-99.65 -13.55 -93.65 -13.25 -94.25 -34.55 Q-114.35 -33.55 -141.85 -30.6 L-142.35 -27.9 -142.8 -23.65 Q-143.05 -18.25 -141.85 -13.0 L-127.2 -13.4 -126.4 -16.6 Q-125.7 -18.6 -124.45 -20.3 -117.95 -27.3 -108.5 -24.55 L-107.55 -24.3 M-141.85 -31.25 L-94.25 -35.05 -94.05 -40.75 -141.85 -38.1 Q-144.2 -35.35 -141.85 -31.25 M-93.0 -35.1 L-51.5 -35.75 -51.85 -39.35 -72.8 -40.35 Q-82.8 -40.75 -92.8 -40.75 L-93.0 -35.1 M-92.5 -15.0 L-92.4 -13.15 Q-79.6 -12.6 -66.8 -12.7 L-51.85 -13.0 -51.7 -14.9 Q-51.05 -22.55 -51.25 -30.2 L-51.4 -32.75 -51.5 -35.3 -93.0 -34.55 -92.5 -15.0 M-92.3 -11.4 L-85.75 -11.0 Q-78.7 -10.8 -71.65 -10.85 L-52.1 -11.15 -51.9 -12.5 -64.25 -12.1 Q-78.3 -12.05 -92.35 -12.7 L-92.3 -11.4 M-17.95 -35.95 L-16.85 -35.75 -17.45 -35.5 -17.95 -35.95 M-17.65 -35.4 Q-20.45 -34.45 -25.65 -35.2 -21.65 -35.15 -17.65 -35.4" fill="#420d0d" fill-rule="evenodd" stroke="none"/>
    <path d="M-141.85 -31.25 Q-144.2 -35.35 -141.85 -38.1 L-94.05 -40.75 -94.25 -35.05 -141.85 -31.25 M-93.0 -35.1 L-92.8 -40.75 Q-82.8 -40.75 -72.8 -40.35 L-51.85 -39.35 -51.5 -35.75 -93.0 -35.1 M-25.75 -35.2 L-30.25 -35.4 -50.1 -35.75 -50.3 -39.25 -20.55 -36.45 -19.1 -36.3 -17.95 -35.95 -17.45 -35.5 -17.35 -35.45 -17.65 -35.4 Q-21.65 -35.15 -25.65 -35.2 L-25.75 -35.2" fill="#d7cba8" fill-rule="evenodd" stroke="none"/>
    <path d="M-107.05 -53.4 L-90.4 -62.35 -90.7 -61.05 -90.75 -60.8 -108.05 -52.1 -107.75 -52.5 -107.15 -53.3 -107.05 -53.4 M-91.7 -56.1 L-91.75 -55.85 -92.35 -51.5 -108.7 -42.15 -115.75 -41.85 -114.25 -43.75 -114.2 -43.95 -114.1 -44.0 -91.7 -56.1 M-93.0 -45.1 L-93.05 -44.9 -93.15 -42.75 -97.7 -42.55 -93.0 -45.1 M-86.75 -62.9 L-88.05 -62.2 -87.95 -62.75 -86.75 -62.9 M-89.0 -57.5 L-78.4 -63.25 -77.95 -63.25 -75.2 -63.15 -72.5 -62.95 -72.35 -62.95 -89.55 -53.1 -89.45 -54.6 -89.0 -57.5 M-88.65 -42.8 L-89.85 -42.85 -89.9 -43.65 -89.9 -46.7 -89.9 -46.9 -63.55 -61.6 -62.45 -61.35 -62.05 -61.0 -61.35 -60.35 -88.65 -42.8 M-56.3 -49.45 L-55.7 -47.0 -62.95 -42.5 -69.05 -42.55 -56.3 -49.45" fill="#fffbd5" fill-rule="evenodd" stroke="none"/>
    <path d="M-107.05 -53.4 L-104.55 -56.65 Q-101.95 -60.1 -97.75 -61.15 L-90.4 -62.55 -90.4 -62.35 -107.05 -53.4 M-90.75 -60.8 L-91.7 -56.1 -114.1 -44.0 -108.05 -52.1 -90.75 -60.8 M-92.35 -51.5 L-93.0 -45.1 -97.7 -42.55 -108.7 -42.15 -92.35 -51.5 M-88.05 -62.2 L-86.75 -62.9 -85.1 -62.95 -82.5 -63.1 -81.55 -63.15 -78.4 -63.25 -89.0 -57.5 -88.05 -62.2 M-89.55 -53.1 L-72.35 -62.95 -69.75 -62.65 -68.75 -62.5 -63.55 -61.6 -89.9 -46.9 -89.55 -53.1 M-61.35 -60.35 L-61.15 -60.25 Q-59.55 -58.65 -58.75 -56.55 -57.25 -53.05 -56.3 -49.45 L-69.05 -42.55 -88.65 -42.8 -61.35 -60.35 M-55.7 -47.0 L-55.0 -42.45 -62.95 -42.5 -55.7 -47.0" fill="#fef48c" fill-rule="evenodd" stroke="none"/>
    <path d="M-124.45 -20.3 L-122.15 -24.45 -122.75 -24.5 -122.5 -25.15 -121.45 -24.9 -120.85 -25.7 -120.45 -25.5 -116.35 -26.5 -111.9 -26.25 -111.55 -25.9 -111.85 -25.9 -107.55 -24.3 -108.5 -24.55 Q-117.95 -27.3 -124.45 -20.3 M-100.2 -27.05 L-99.45 -26.75 -98.55 -25.45 -101.35 -25.25 -101.35 -25.55 Q-101.3 -26.7 -100.2 -27.05 M-51.7 -14.9 L-51.85 -13.0 -66.8 -12.7 Q-79.6 -12.6 -92.4 -13.15 L-92.5 -15.0 -91.7 -13.8 -85.25 -13.45 -74.25 -13.75 -53.45 -13.6 -51.7 -14.9 M-45.95 -25.25 L-47.05 -25.95 -45.5 -26.6 -44.95 -26.1 -44.95 -25.85 -45.95 -25.25 M-42.75 -21.4 L-43.4 -21.75 Q-39.1 -26.6 -33.1 -28.5 L-32.55 -28.95 Q-26.15 -26.85 -20.8 -22.7 L-21.0 -22.3 -21.95 -22.95 Q-32.85 -30.05 -42.75 -21.4 M-9.05 -30.2 L-7.35 -29.1 -7.9 -28.05 -8.3 -28.0 Q-9.75 -27.55 -10.75 -28.7 L-10.95 -28.95 Q-11.05 -29.9 -10.2 -30.1 L-9.05 -30.2" fill="#f2811a" fill-rule="evenodd" stroke="none"/>
    <path d="M-299.3 -200.05 L-299.3 -201.0 -281.3 -201.0 -281.15 -197.75 -281.05 -196.1 -293.95 -196.1 -291.0 -107.85 -264.35 -107.85 -263.95 -94.0 -295.4 -94.0 -299.3 -200.05 M-183.55 -197.75 Q-183.55 -198.8 -184.3 -199.5 L-184.95 -200.2 -190.15 -201.0 -174.2 -201.0 -174.4 -196.1 -183.55 -196.1 -183.55 -196.5 -183.55 -197.75 M-203.15 -107.85 L-177.55 -107.85 -178.1 -94.0 -203.5 -94.0 -203.15 -107.85 M-208.7 -107.85 L-209.0 -94.0 -258.45 -94.0 -258.75 -107.85 -208.7 -107.85" fill="#e5e5e5" fill-rule="evenodd" stroke="none"/>
    <path d="M-302.15 -210.45 L-299.3 -200.05 -295.4 -94.0 -297.75 -94.0 -302.15 -210.45 M-174.2 -201.0 L-171.4 -210.45 -175.8 -94.0 -178.1 -94.0 -177.55 -107.85 -174.4 -196.1 -174.2 -201.0 M-259.75 -90.9 L-253.25 -91.4 -252.75 -90.9 -253.05 -90.4 -259.25 -90.4 -259.75 -90.9 M-247.75 -90.9 L-241.25 -91.4 -240.75 -90.9 -241.05 -90.4 -247.25 -90.4 -247.75 -90.9 M-235.75 -90.9 L-229.25 -91.4 -228.75 -90.9 -229.05 -90.4 -235.25 -90.4 -235.75 -90.9 M-223.75 -90.9 L-217.25 -91.4 -216.75 -90.9 -217.05 -90.4 -223.25 -90.4 -223.75 -90.9 M-211.75 -90.9 L-205.25 -91.4 -204.75 -90.9 -205.05 -90.4 -211.25 -90.4 -211.75 -90.9 M-199.75 -90.9 L-193.25 -91.4 -192.75 -90.9 -193.05 -90.4 -199.25 -90.4 -199.75 -90.9 M-187.75 -90.9 L-181.25 -91.4 -180.75 -90.9 -181.05 -90.4 -187.25 -90.4 -187.75 -90.9 M-175.75 -90.9 L-169.25 -91.4 -168.75 -90.9 -169.05 -90.4 -175.25 -90.4 -175.75 -90.9 M-167.5 -90.9 L-167.5 -93.15 -166.25 -93.15 -166.25 -73.9 -306.75 -73.9 -306.75 -93.15 -305.75 -93.15 -305.75 -90.9 -305.75 -75.4 -167.5 -75.4 -167.5 -90.9 M-304.5 -90.9 L-304.35 -91.25 -301.25 -91.4 -300.75 -90.9 -301.25 -90.4 -304.5 -90.9 M-295.75 -90.9 L-289.25 -91.4 -288.75 -90.9 -294.15 -90.6 -295.3 -90.8 -295.75 -90.9 M-283.75 -90.9 L-277.25 -91.4 -276.75 -90.9 -282.1 -90.55 -283.75 -90.9 M-271.75 -90.9 L-265.25 -91.4 -264.75 -90.9 -270.1 -90.55 -271.75 -90.9 M-262.9 -69.4 Q-265.65 -68.55 -268.25 -69.0 L-269.9 -69.4 -263.4 -69.9 -262.9 -69.4 M-274.9 -69.4 Q-277.35 -68.55 -280.25 -69.0 L-281.9 -69.4 -275.4 -69.9 -274.9 -69.4 M-286.9 -69.4 L-289.75 -69.15 -290.65 -69.4 -289.9 -69.6 -289.25 -69.7 -287.15 -69.5 -286.9 -69.4 M-291.9 -69.4 L-291.9 -55.55 -291.75 -55.55 -291.75 -54.4 -153.5 -54.4 -153.5 -55.55 -153.65 -55.55 -153.65 -69.4 -153.65 -70.55 -153.5 -70.55 -153.5 -72.15 -152.25 -72.15 -152.25 -70.55 -152.4 -70.55 -152.4 -55.55 -152.25 -55.55 -152.25 -52.9 -292.75 -52.9 -292.75 -55.55 -292.9 -55.55 -292.9 -70.55 -292.75 -70.55 -292.75 -72.15 -291.75 -72.15 -291.75 -70.55 -291.9 -70.55 -291.9 -69.4 M-154.9 -69.4 L-155.2 -68.9 -161.4 -68.9 -161.9 -69.4 -155.4 -69.9 -154.9 -69.4 M-166.9 -69.4 L-167.2 -68.9 -170.7 -68.9 -170.95 -69.45 -171.2 -69.6 -167.4 -69.9 -166.9 -69.4 M-178.9 -69.4 L-179.2 -68.9 -185.4 -68.9 -185.9 -69.4 -179.4 -69.9 -178.9 -69.4 M-190.9 -69.4 L-191.2 -68.9 -197.4 -68.9 -197.9 -69.4 -191.4 -69.9 -190.9 -69.4 M-202.9 -69.4 L-203.2 -68.9 -209.4 -68.9 -209.9 -69.4 -203.4 -69.9 -202.9 -69.4 M-216.55 -68.9 L-221.4 -68.9 -221.9 -69.4 -215.4 -69.9 -215.15 -69.65 -215.75 -69.65 -216.3 -69.45 -216.35 -69.4 -216.55 -68.9 M-226.9 -69.4 L-227.2 -68.9 -233.4 -68.9 -233.9 -69.4 -227.4 -69.9 -226.9 -69.4 M-238.9 -69.4 L-239.2 -68.9 -245.4 -68.9 -245.9 -69.4 -239.4 -69.9 -238.9 -69.4 M-250.9 -69.4 Q-253.35 -68.55 -256.3 -69.0 L-257.9 -69.4 -251.4 -69.9 -250.9 -69.4 M-300.25 -32.4 L-303.75 -32.4 -303.75 -51.65 -302.75 -51.65 -302.75 -49.4 -302.75 -33.9 -164.5 -33.9 -164.5 -49.4 -164.5 -51.65 -163.25 -51.65 -163.25 -32.4 -166.7 -32.4 -300.25 -32.4 M-285.75 -49.4 L-291.1 -49.0 -292.75 -49.4 -286.25 -49.9 -285.75 -49.4 M-297.75 -49.4 L-300.6 -49.15 -301.5 -49.4 -300.75 -49.6 -297.75 -49.4 M-256.75 -49.4 L-250.25 -49.9 -249.75 -49.4 -250.05 -48.9 -256.25 -48.9 -256.75 -49.4 M-244.75 -49.4 L-238.25 -49.9 -237.75 -49.4 -238.05 -48.9 -244.25 -48.9 -244.75 -49.4 M-232.75 -49.4 L-226.25 -49.9 -226.0 -49.65 -226.6 -49.65 -227.15 -49.45 -227.4 -48.9 -232.25 -48.9 -232.75 -49.4 M-220.75 -49.4 L-214.25 -49.9 -213.75 -49.4 -214.05 -48.9 -220.25 -48.9 -220.75 -49.4 M-208.75 -49.4 L-202.25 -49.9 -201.75 -49.4 -202.05 -48.9 -208.25 -48.9 -208.75 -49.4 M-196.75 -49.4 L-190.25 -49.9 -189.75 -49.4 -190.05 -48.9 -196.25 -48.9 -196.75 -49.4 M-182.05 -49.6 L-178.25 -49.9 -177.75 -49.4 -178.05 -48.9 -181.55 -48.9 -181.8 -49.45 -182.05 -49.6 M-172.75 -49.4 L-166.25 -49.9 -165.75 -49.4 -166.05 -48.9 -172.25 -48.9 -172.75 -49.4 M-273.75 -49.4 L-279.1 -49.0 -280.75 -49.4 -274.25 -49.9 -273.75 -49.4 M-268.75 -49.4 L-262.25 -49.9 -261.75 -49.4 Q-264.2 -48.55 -267.15 -49.0 L-268.75 -49.4" fill="#999999" fill-rule="evenodd" stroke="none"/>
    <path d="M-267.15 -221.95 Q-261.75 -219.4 -256.25 -217.5 L-245.85 -213.95 -243.6 -213.25 -240.8 -212.4 -234.7 -210.6 -234.2 -210.45 -224.15 -207.6 -213.7 -205.2 -212.4 -205.0 -211.7 -204.25 -211.95 -203.85 -211.55 -202.35 -211.0 -201.0 Q-209.2 -197.05 -205.05 -196.1 L-202.8 -195.85 -199.85 -196.1 Q-195.8 -197.05 -193.35 -201.0 L-193.25 -201.2 -192.2 -201.35 -190.15 -201.0 -184.95 -200.2 -184.3 -199.5 Q-183.55 -198.8 -183.55 -197.75 L-184.55 -197.35 -184.55 -197.55 Q-184.55 -198.05 -184.85 -198.4 -185.15 -198.8 -185.55 -198.8 L-186.8 -199.2 Q-189.4 -200.0 -192.25 -200.25 L-195.15 -197.25 -196.95 -196.3 -202.55 -195.2 -207.95 -196.0 -208.8 -196.35 -210.25 -197.1 -211.85 -198.3 -213.05 -199.95 -213.05 -204.1 -225.05 -206.95 -236.65 -210.2 -238.6 -210.75 -240.7 -211.4 -242.45 -211.95 -240.9 -211.15 -239.05 -209.55 -237.9 -206.9 -237.9 -205.95 -238.05 -205.1 -239.5 -202.8 -241.6 -201.3 -242.25 -201.0 Q-244.5 -200.1 -246.95 -199.7 L-248.4 -199.65 -249.4 -199.65 -250.65 -199.75 -251.8 -199.95 -252.5 -200.1 -253.35 -200.35 -254.3 -198.55 -256.1 -198.7 -256.25 -200.8 -255.5 -201.3 -256.7 -202.0 -256.85 -202.15 -257.95 -203.15 -259.0 -204.95 -258.3 -208.2 -257.9 -209.7 -255.95 -211.25 -252.1 -212.4 -245.1 -212.8 -246.3 -213.1 -246.8 -213.25 Q-250.95 -214.45 -254.8 -216.15 L-265.0 -219.95 -265.95 -220.35 -266.4 -220.55 -267.1 -221.6 -267.15 -221.95 M-249.35 -212.4 Q-252.4 -212.15 -254.3 -210.45 -256.15 -208.8 -256.95 -205.8 -257.1 -205.2 -256.6 -204.6 -254.1 -201.95 -250.9 -201.0 -248.6 -200.3 -245.95 -200.5 L-243.3 -201.0 Q-240.15 -202.2 -239.4 -206.2 -240.5 -208.9 -242.35 -210.45 -244.4 -212.15 -247.4 -212.4 L-248.45 -212.45 -249.35 -212.4 M-258.4 -214.1 Q-258.8 -213.75 -259.35 -213.75 -259.9 -213.75 -260.25 -214.1 -260.65 -214.45 -260.65 -214.95 -260.65 -215.45 -260.25 -215.8 -259.9 -216.15 -259.35 -216.15 -258.8 -216.15 -258.4 -215.8 -258.05 -215.45 -258.05 -214.95 -258.05 -214.45 -258.4 -214.1 M-238.05 -202.1 L-238.35 -202.85 -237.05 -203.8 -236.6 -203.95 -235.85 -204.1 -235.55 -203.7 -235.55 -202.55 -235.9 -202.05 -238.05 -202.1 M-230.95 -204.95 L-231.1 -205.1 -228.75 -206.45 -228.15 -206.35 -228.25 -205.0 -230.95 -204.95 M-229.7 -196.7 L-224.1 -195.6 Q-221.7 -194.6 -220.25 -192.6 L-219.6 -191.65 -219.4 -188.85 Q-219.4 -187.6 -220.35 -186.8 L-220.85 -186.4 Q-223.6 -184.15 -227.1 -183.55 L-228.9 -183.2 -231.75 -183.25 -233.45 -183.5 -235.1 -184.0 -235.5 -184.15 -238.8 -186.15 -239.05 -186.4 -240.55 -190.55 -240.55 -190.7 -240.15 -192.0 Q-237.4 -194.7 -233.7 -196.0 L-233.35 -196.1 -231.9 -196.6 -230.9 -196.65 -229.7 -196.7 M-224.65 -203.25 L-223.35 -203.15 -223.2 -201.45 -225.95 -200.5 -226.3 -200.9 -224.65 -203.25 M-188.6 -198.95 L-187.35 -198.9 -187.3 -197.9 -187.35 -197.85 -187.4 -197.9 -187.45 -197.85 -188.0 -197.65 -188.7 -198.25 -188.6 -198.95 M-206.3 -194.1 L-205.15 -194.2 -204.75 -193.15 -205.85 -192.4 -206.5 -192.45 -207.25 -193.05 -206.3 -194.1 M-218.45 -196.2 L-216.15 -195.55 -216.8 -194.3 -219.0 -194.3 -219.0 -195.9 -218.45 -196.2 M-238.4 -180.6 L-236.2 -180.8 -235.85 -180.45 -236.0 -179.65 Q-236.75 -177.35 -239.05 -178.5 L-239.1 -179.3 -239.1 -179.55 -238.4 -180.6 M-216.25 -186.65 Q-217.0 -187.55 -216.9 -188.65 L-216.75 -189.3 -213.5 -189.8 -213.0 -189.45 Q-212.7 -187.7 -214.2 -186.7 L-216.25 -186.65 M-234.0 -194.95 L-235.45 -194.25 Q-239.65 -188.9 -234.2 -185.55 -228.8 -182.15 -224.0 -186.1 -219.65 -189.8 -224.35 -193.1 -228.75 -196.25 -234.0 -194.95 M-241.45 -186.5 Q-241.1 -186.5 -240.8 -186.2 L-240.55 -185.6 Q-240.55 -185.25 -240.8 -184.95 L-241.45 -184.7 Q-241.8 -184.7 -242.05 -184.95 L-242.35 -185.6 -242.05 -186.2 -241.45 -186.5 M-245.3 -197.0 L-244.05 -196.75 -243.85 -195.25 -247.45 -194.75 -247.5 -195.3 -245.3 -197.0 M-253.0 -187.95 L-252.25 -188.3 -251.55 -187.85 -252.25 -187.25 -253.0 -187.95 M-258.75 -191.4 L-259.5 -192.3 -259.3 -192.75 -258.1 -192.65 -258.1 -191.75 Q-258.4 -191.55 -258.75 -191.4 M-250.0 -177.5 L-251.0 -178.65 -247.5 -181.1 -246.95 -178.5 -250.0 -177.5" fill="#be840c" fill-rule="evenodd" stroke="none"/>
    <path d="M-265.95 -220.35 L-265.0 -219.95 -264.3 -215.4 -264.75 -214.75 -264.55 -213.6 -263.95 -213.2 -263.4 -207.05 -264.0 -206.25 -263.9 -205.8 -263.5 -201.6 -262.9 -201.0 Q-260.8 -198.65 -262.3 -196.1 L-262.55 -195.75 -262.3 -194.85 -261.7 -194.05 -261.55 -192.45 -261.5 -189.7 -260.4 -187.85 -260.15 -187.35 -260.2 -185.5 -261.0 -185.25 -261.1 -184.25 -260.2 -183.6 -258.5 -181.05 -257.4 -178.5 -258.8 -174.55 -257.6 -173.7 Q-256.3 -172.7 -255.85 -171.4 L-253.7 -171.95 -252.95 -172.15 -252.0 -167.5 -251.3 -167.9 -251.35 -171.5 -249.05 -172.6 -248.95 -173.4 -246.35 -174.05 -246.2 -173.15 Q-241.45 -171.35 -239.95 -176.0 L-237.65 -176.75 -237.9 -176.3 Q-232.55 -173.15 -230.45 -178.15 -225.0 -176.75 -222.95 -182.0 L-220.3 -183.4 Q-215.1 -180.85 -211.75 -185.6 L-211.0 -186.8 -210.65 -186.95 -210.15 -186.25 Q-208.4 -185.95 -206.9 -186.2 -203.1 -186.85 -201.25 -191.15 L-194.7 -194.55 -193.45 -194.85 -193.25 -193.8 Q-191.25 -192.9 -190.5 -190.75 L-190.15 -189.5 -189.5 -189.15 Q-187.85 -190.9 -188.75 -193.25 L-189.0 -193.8 -188.6 -195.15 -188.35 -196.1 -188.25 -196.75 -189.1 -197.0 -188.55 -197.3 -189.0 -197.45 -189.6 -197.85 -189.6 -198.6 -188.65 -198.95 -188.6 -198.95 -188.7 -198.25 -188.0 -197.65 -187.45 -197.85 -187.35 -197.85 -187.3 -197.9 -185.55 -198.8 Q-185.15 -198.8 -184.85 -198.4 -184.55 -198.05 -184.55 -197.55 L-187.5 -195.95 -186.8 -195.7 -186.75 -195.05 -187.85 -192.55 -188.0 -191.35 -188.5 -189.05 -189.9 -188.4 -191.05 -188.9 -191.35 -189.65 -191.6 -190.65 -192.2 -192.3 -203.95 -184.8 -205.25 -181.5 -206.5 -181.5 -207.0 -182.25 -207.05 -182.3 -207.2 -183.35 -207.25 -184.1 -208.25 -184.65 -210.55 -181.9 -211.35 -180.45 -211.7 -179.85 Q-213.15 -177.4 -215.65 -178.65 L-216.55 -179.35 -218.2 -180.65 -224.0 -178.4 -224.3 -176.3 -224.25 -175.25 -224.4 -172.85 -226.35 -172.35 -227.0 -174.25 -227.15 -175.25 -227.65 -176.8 -230.6 -174.0 -231.25 -173.3 Q-232.75 -171.95 -234.75 -172.55 L-237.05 -172.95 -238.05 -173.4 -240.2 -172.7 -239.8 -170.85 -239.55 -169.9 -240.25 -167.6 -241.65 -167.4 -241.6 -166.5 Q-241.5 -163.85 -243.6 -162.7 L-244.2 -162.95 Q-247.05 -164.4 -246.5 -167.7 L-246.75 -168.7 -247.55 -170.4 -248.1 -171.0 -250.35 -169.6 -250.6 -167.55 -250.6 -166.5 -251.55 -164.65 -253.25 -165.05 -253.45 -165.75 -253.25 -166.8 -253.7 -168.65 -254.2 -170.5 -255.65 -171.0 -255.85 -171.4 -256.05 -171.15 -256.7 -171.2 Q-259.3 -172.3 -259.25 -175.2 L-259.15 -176.1 -258.9 -177.5 -262.1 -183.15 -263.15 -183.3 -263.35 -184.45 -262.9 -185.7 -261.4 -186.35 Q-262.2 -189.2 -261.8 -192.1 L-262.4 -193.0 Q-263.3 -194.5 -263.6 -196.1 L-263.75 -197.5 -264.2 -197.45 -263.7 -197.7 -263.5 -199.2 -264.85 -201.45 -264.95 -206.65 -264.65 -207.35 -264.9 -207.95 -265.15 -209.1 -266.05 -209.2 -266.5 -209.55 -266.6 -210.1 -266.4 -210.45 -266.05 -211.35 -265.65 -212.4 -265.4 -213.25 Q-264.55 -216.7 -265.95 -220.35 M-256.7 -202.0 L-255.5 -201.3 -256.25 -200.8 -256.1 -198.7 -254.3 -198.55 -253.35 -200.35 -252.5 -200.1 -252.5 -199.75 -252.65 -199.3 Q-253.7 -197.3 -256.1 -197.4 L-256.85 -197.75 Q-258.7 -198.7 -258.45 -200.8 L-256.7 -202.0 M-239.5 -202.8 L-238.05 -205.1 -233.75 -204.85 -233.5 -204.3 Q-232.7 -202.35 -234.25 -201.0 L-234.4 -200.9 -238.7 -201.0 -239.5 -202.8 M-196.95 -196.3 L-195.15 -197.25 Q-195.15 -196.85 -195.65 -196.55 L-196.95 -196.3 M-261.45 -176.85 L-261.7 -177.65 -261.3 -178.6 -260.25 -177.9 -260.7 -176.9 -261.45 -176.85 M-260.8 -215.9 L-259.0 -216.75 -257.25 -215.65 -257.3 -214.1 Q-257.85 -213.05 -259.15 -213.4 L-260.75 -213.65 -260.8 -215.9 M-253.85 -185.95 L-254.3 -186.35 -253.05 -189.0 -251.0 -189.5 -250.7 -186.95 -251.35 -185.95 -251.65 -185.8 -253.85 -185.95 M-243.6 -185.4 Q-243.6 -186.3 -243.2 -186.9 L-242.2 -187.55 -240.95 -187.5 -240.9 -187.5 -240.6 -187.35 Q-240.1 -186.9 -240.15 -185.95 -240.15 -185.25 -240.45 -184.75 -240.75 -184.25 -241.2 -184.25 L-241.65 -184.1 Q-242.45 -184.1 -243.0 -184.45 -243.6 -184.85 -243.6 -185.4 M-248.0 -193.5 L-249.35 -195.9 -249.2 -196.5 -248.85 -197.05 -248.3 -197.5 -246.15 -198.0 -244.55 -198.05 -243.4 -197.8 -242.75 -197.35 -242.05 -195.85 -241.95 -194.55 -242.5 -193.95 Q-245.1 -191.7 -248.0 -193.5 M-258.1 -191.5 L-258.75 -191.4 -259.7 -191.5 -260.35 -192.7 -260.0 -193.6 -258.25 -193.4 -257.8 -192.95 -258.1 -191.5 M-258.4 -214.1 Q-258.05 -214.45 -258.05 -214.95 -258.05 -215.45 -258.4 -215.8 -258.8 -216.15 -259.35 -216.15 -259.9 -216.15 -260.25 -215.8 -260.65 -215.45 -260.65 -214.95 -260.65 -214.45 -260.25 -214.1 -259.9 -213.75 -259.35 -213.75 -258.8 -213.75 -258.4 -214.1 M-238.05 -202.1 L-235.9 -202.05 -235.55 -202.55 -235.55 -203.7 -235.85 -204.1 -236.6 -203.95 -237.05 -203.8 -238.35 -202.85 -238.05 -202.1 M-228.3 -203.65 L-228.85 -203.65 Q-230.2 -204.0 -230.95 -204.95 L-228.25 -205.0 -228.15 -206.35 -228.75 -206.45 -231.1 -205.1 -232.1 -206.8 -230.8 -207.05 Q-228.15 -207.3 -226.25 -205.3 L-227.05 -204.05 -228.3 -203.65 M-223.35 -203.15 L-222.6 -202.7 -222.85 -202.0 -223.35 -201.0 Q-224.55 -199.25 -227.1 -199.85 L-227.45 -200.45 -227.0 -201.0 -226.95 -201.1 -224.65 -203.25 -226.3 -200.9 -225.95 -200.5 -223.2 -201.45 -223.35 -203.15 M-219.05 -201.65 L-217.9 -201.65 -217.5 -200.25 -218.4 -199.8 -219.35 -200.9 -219.05 -201.65 M-199.95 -190.4 L-199.25 -190.1 Q-197.9 -189.55 -197.35 -190.9 L-197.1 -191.25 -197.25 -192.0 Q-198.75 -191.95 -199.9 -191.2 L-199.95 -190.4 M-206.3 -194.1 L-207.25 -193.05 -206.5 -192.45 -205.85 -192.4 -204.75 -193.15 -205.15 -194.2 -206.3 -194.1 -204.6 -194.5 -204.45 -193.05 -204.45 -192.95 Q-204.65 -192.2 -205.3 -191.8 -206.0 -191.3 -206.8 -191.3 -207.45 -191.3 -208.15 -191.7 L-207.95 -193.4 -206.3 -194.1 M-213.8 -190.7 L-212.0 -190.8 -210.85 -188.25 -211.7 -187.25 -212.65 -186.55 Q-214.65 -185.05 -217.1 -185.15 L-219.15 -185.8 -219.0 -188.35 -217.25 -189.9 -213.8 -190.7 M-215.8 -195.2 L-215.9 -194.5 Q-216.3 -193.35 -217.15 -192.9 L-217.25 -192.85 -217.3 -192.85 -217.7 -192.75 -218.75 -192.65 -220.25 -194.2 -219.0 -195.9 -219.0 -194.3 -216.8 -194.3 -216.15 -195.55 -218.45 -196.2 -217.15 -196.65 -215.8 -195.2 M-236.2 -180.8 L-235.25 -180.8 -234.9 -180.2 Q-234.3 -179.1 -234.95 -177.9 L-237.65 -176.8 -239.05 -177.2 -239.1 -179.3 -239.05 -178.5 Q-236.75 -177.35 -236.0 -179.65 L-235.85 -180.45 -236.2 -180.8 M-216.25 -186.65 L-214.2 -186.7 Q-212.7 -187.7 -213.0 -189.45 L-213.5 -189.8 -216.75 -189.3 -216.9 -188.65 Q-217.0 -187.55 -216.25 -186.65 M-214.85 -180.8 L-214.5 -180.2 -213.6 -180.05 -211.55 -181.75 -211.75 -183.3 -212.3 -183.8 -213.1 -183.85 Q-214.5 -182.55 -214.85 -180.8 M-204.85 -185.2 L-206.0 -185.15 -206.1 -184.65 -205.25 -183.3 -204.75 -183.5 -204.85 -185.2 M-240.55 -190.55 L-239.05 -186.4 -240.35 -187.5 -240.45 -187.75 -240.55 -190.55 M-241.45 -186.5 L-242.05 -186.2 -242.35 -185.6 -242.05 -184.95 Q-241.8 -184.7 -241.45 -184.7 L-240.8 -184.95 Q-240.55 -185.25 -240.55 -185.6 L-240.8 -186.2 Q-241.1 -186.5 -241.45 -186.5 M-241.95 -170.9 L-241.9 -169.6 -241.5 -169.4 -240.85 -170.0 -241.15 -170.65 -241.95 -170.9 M-245.3 -197.0 L-247.5 -195.3 -247.45 -194.75 -243.85 -195.25 -244.05 -196.75 -245.3 -197.0 M-253.0 -187.95 L-252.25 -187.25 -251.55 -187.85 -252.25 -188.3 -253.0 -187.95 M-263.25 -192.55 L-262.8 -192.3 -262.6 -191.8 -262.8 -191.25 -263.25 -191.05 -263.7 -191.25 -263.9 -191.8 -263.7 -192.3 -263.25 -192.55 M-258.75 -191.4 Q-258.4 -191.55 -258.1 -191.75 L-258.1 -192.65 -259.3 -192.75 -259.5 -192.3 -258.75 -191.4 M-254.7 -174.4 L-255.2 -174.55 -255.65 -175.25 -255.1 -175.8 -254.6 -175.75 -254.4 -174.8 -254.7 -174.4 M-246.55 -182.95 Q-245.6 -181.65 -246.0 -180.2 -246.8 -177.2 -250.1 -176.9 L-252.3 -178.95 -251.3 -179.95 Q-249.25 -182.1 -246.55 -182.95 M-250.0 -177.5 L-246.95 -178.5 -247.5 -181.1 -251.0 -178.65 -250.0 -177.5 M-246.2 -170.25 L-246.35 -169.7 -244.75 -165.75 -243.35 -166.0 Q-242.75 -166.9 -242.6 -167.9 -242.15 -170.55 -244.9 -171.35 L-246.2 -170.25 M-259.3 -172.15 L-258.95 -172.0 -258.8 -171.7 -258.95 -171.35 -259.3 -171.25 -259.65 -171.35 -259.8 -171.7 -259.65 -172.0 -259.3 -172.15" fill="#f2bf26" fill-rule="evenodd" stroke="none"/>
    <path d="M-184.55 -197.35 L-183.55 -197.75 -183.55 -196.5 -184.55 -196.05 -184.55 -196.2 -184.55 -197.35" fill="#7d230d" fill-rule="evenodd" stroke="none"/>
    <path d="M-184.55 -197.55 L-184.55 -197.35 -184.55 -196.2 -186.75 -195.05 -186.8 -195.7 -187.5 -195.95 -184.55 -197.55 M-260.8 -170.15 L-259.65 -170.45 -256.7 -171.2 -256.05 -171.15 -255.85 -171.4 -255.65 -171.0 -254.2 -170.5 -253.7 -168.65 -261.3 -166.7 -260.8 -170.15 M-250.35 -169.6 L-248.1 -171.0 -247.55 -170.4 -250.35 -169.6" fill="#a32e10" fill-rule="evenodd" stroke="none"/>
    <path d="M-273.4 -164.05 L-273.05 -168.05 Q-271.6 -170.0 -269.5 -170.55 L-268.0 -170.75 -268.25 -170.15 -267.95 -169.45 Q-267.65 -169.15 -267.25 -169.15 -266.85 -169.15 -266.55 -169.45 -266.25 -169.75 -266.25 -170.15 L-266.45 -170.75 -266.1 -170.7 Q-262.1 -170.15 -262.35 -164.95 L-262.35 -164.5 -273.4 -162.25 -273.4 -164.05 M-261.35 -164.9 L-261.3 -166.7 -253.7 -168.65 -253.25 -166.8 -254.75 -166.15 Q-257.4 -165.3 -260.1 -165.0 L-261.35 -164.9 M-184.55 -196.05 L-184.55 -194.25 -187.85 -192.55 -186.75 -195.05 -184.55 -196.2 -184.55 -196.05 M-250.6 -167.55 L-250.35 -169.6 -247.55 -170.4 -246.75 -168.7 -250.6 -167.55 M-239.8 -170.85 L-240.2 -172.7 -238.05 -173.4 -237.05 -172.95 -234.75 -172.55 -236.4 -171.95 -239.8 -170.85 M-230.6 -174.0 L-227.65 -176.8 -227.15 -175.25 -230.6 -174.0 M-224.3 -176.3 L-224.0 -178.4 -218.2 -180.65 -216.55 -179.35 -218.05 -178.7 Q-221.0 -177.15 -224.3 -176.3 M-210.55 -181.9 L-208.25 -184.65 -207.25 -184.1 -207.2 -183.35 -210.55 -181.9 M-203.95 -184.8 L-192.2 -192.3 -191.6 -190.65 -203.95 -184.8 M-264.65 -167.75 L-263.15 -167.8 -263.25 -168.75 -264.75 -168.5 -264.65 -167.75 M-270.35 -167.25 L-270.2 -166.9 Q-269.85 -166.65 -269.35 -166.55 L-269.4 -167.9 -270.35 -167.25 M-267.25 -166.5 L-266.95 -165.35 -266.1 -164.9 -265.65 -165.75 -265.85 -166.5 -267.25 -166.5" fill="#c9a843" fill-rule="evenodd" stroke="none"/>
    <path d="M-282.0 -213.25 Q-281.85 -216.75 -281.05 -220.2 -280.3 -223.45 -277.95 -225.95 -279.45 -220.45 -279.95 -214.8 L-280.05 -213.25 -280.15 -212.4 -280.25 -210.45 -280.25 -203.45 -280.1 -201.0 -279.8 -196.1 -279.45 -192.0 -278.2 -180.5 Q-277.5 -174.8 -275.65 -169.3 -274.8 -166.65 -273.4 -164.05 L-273.4 -162.25 -262.35 -164.5 -262.35 -164.95 -261.35 -164.9 -260.1 -165.0 Q-257.4 -165.3 -254.75 -166.15 L-253.25 -166.8 -253.45 -165.75 -260.05 -164.0 -258.75 -107.85 -258.45 -94.0 -263.95 -94.0 -264.35 -107.85 -265.85 -162.75 -274.15 -161.15 -274.45 -162.35 -274.85 -163.65 Q-276.55 -169.5 -277.85 -175.3 -279.1 -180.75 -279.95 -186.3 -280.7 -191.2 -281.05 -196.1 L-281.15 -197.75 -281.3 -201.0 -281.9 -209.05 -281.95 -210.45 -282.0 -212.4 -282.0 -213.25 M-276.0 -226.75 Q-270.3 -228.25 -267.7 -223.25 L-267.15 -221.95 -267.1 -221.6 -268.15 -222.3 Q-269.95 -226.85 -274.8 -226.8 L-276.0 -226.75 M-266.95 -210.65 L-266.9 -209.35 -267.15 -211.75 -266.95 -210.65 M-183.55 -196.5 L-183.55 -196.1 -183.6 -193.7 -188.0 -191.35 -187.85 -192.55 -184.55 -194.25 -184.55 -196.05 -183.55 -196.5 M-250.6 -166.5 L-250.6 -167.55 -246.75 -168.7 -246.5 -167.7 -250.6 -166.5 M-239.55 -169.9 L-239.8 -170.85 -236.4 -171.95 -234.75 -172.55 Q-232.75 -171.95 -231.25 -173.3 L-230.6 -174.0 -227.15 -175.25 -227.0 -174.25 Q-232.25 -171.65 -238.05 -170.2 L-239.55 -169.9 M-224.25 -175.25 L-224.3 -176.3 Q-221.0 -177.15 -218.05 -178.7 L-216.55 -179.35 -215.65 -178.65 -224.25 -175.25 M-211.35 -180.45 L-210.55 -181.9 -207.2 -183.35 -207.05 -182.3 -211.35 -180.45 M-207.0 -182.25 L-206.5 -181.5 -205.25 -181.5 -203.95 -184.8 -191.6 -190.65 -191.35 -189.65 -200.95 -185.1 -203.15 -107.85 -203.5 -94.0 -209.0 -94.0 -208.7 -107.85 -207.0 -182.25 M-204.25 -101.15 L-202.15 -177.7 -206.15 -175.75 -207.95 -101.15 -204.25 -101.15 M-264.75 -156.25 L-263.2 -101.15 -259.55 -101.15 -260.9 -157.15 -264.75 -156.25" fill="#543701" fill-rule="evenodd" stroke="none"/>
    <path d="M-299.3 -200.05 L-302.15 -210.45 -281.95 -210.45 -281.9 -209.05 -281.3 -201.0 -299.3 -201.0 -299.3 -200.05 M-190.15 -201.0 L-192.2 -201.35 -192.35 -202.2 -199.95 -202.6 Q-206.15 -203.5 -211.95 -205.35 L-212.4 -205.0 -213.7 -205.2 -224.15 -207.6 -234.2 -210.45 -171.4 -210.45 -174.2 -201.0 -190.15 -201.0" fill="#868686" fill-rule="evenodd" stroke="none"/>
    <path d="M-254.8 -216.15 Q-250.95 -214.45 -246.8 -213.25 L-246.3 -213.1 -245.1 -212.8 -252.1 -212.4 -255.95 -211.25 -256.0 -211.85 -258.05 -211.75 -257.9 -209.7 -258.3 -208.2 -259.0 -204.95 -260.5 -204.95 Q-261.65 -207.65 -262.25 -210.45 L-262.65 -212.4 -262.8 -213.25 -262.85 -213.5 -262.6 -214.45 -260.8 -215.9 -260.75 -213.65 -259.15 -213.4 Q-257.85 -213.05 -257.3 -214.1 L-257.25 -215.65 -255.9 -214.85 -254.8 -216.15 M-257.95 -203.15 L-256.85 -202.15 Q-257.5 -202.15 -257.95 -201.75 L-258.4 -201.0 -258.45 -200.8 Q-258.7 -198.7 -256.85 -197.75 L-256.1 -197.4 -256.3 -194.85 Q-253.4 -194.25 -251.95 -196.1 -251.5 -196.75 -251.15 -197.7 L-250.65 -199.75 -249.4 -199.65 -249.2 -196.5 -249.35 -195.9 -249.95 -194.65 Q-252.65 -189.7 -258.1 -191.5 L-257.8 -192.95 -258.25 -193.4 -260.0 -193.6 -260.2 -195.05 -260.3 -196.1 Q-260.55 -198.5 -260.05 -201.0 L-260.05 -201.15 -259.85 -202.25 -259.35 -203.15 -257.95 -203.15 M-252.5 -200.1 L-251.8 -199.95 -252.5 -199.75 -252.5 -200.1 M-248.4 -199.65 L-246.95 -199.7 Q-244.5 -200.1 -242.25 -201.0 L-241.6 -201.3 -244.55 -198.05 -246.15 -198.0 -248.3 -197.5 -248.6 -197.9 -248.4 -199.65 M-238.05 -205.1 L-237.9 -205.95 -234.7 -207.15 -233.95 -206.75 -233.75 -204.85 -238.05 -205.1 M-237.9 -206.9 L-239.05 -209.55 -238.6 -210.75 -236.65 -210.2 -234.85 -209.65 -237.9 -206.9 M-240.9 -211.15 L-242.45 -211.95 -240.7 -211.4 -240.9 -211.15 M-225.05 -206.95 L-213.05 -204.1 -213.05 -199.95 Q-217.65 -198.55 -221.95 -196.6 L-223.0 -196.1 -224.1 -195.6 -229.7 -196.7 Q-229.05 -199.0 -230.8 -200.55 L-231.35 -201.0 -231.8 -200.9 Q-232.0 -198.6 -230.9 -196.65 L-231.9 -196.6 Q-235.9 -198.0 -238.8 -196.1 L-241.05 -193.95 -241.85 -192.75 -240.15 -192.0 -240.55 -190.7 -244.95 -188.25 -245.9 -189.05 Q-247.8 -190.85 -248.0 -193.5 -245.1 -191.7 -242.5 -193.95 L-241.95 -194.55 -242.05 -195.85 -240.6 -196.1 Q-239.35 -196.5 -238.45 -197.6 L-237.75 -198.45 -238.0 -198.9 Q-240.7 -198.95 -242.75 -197.35 L-243.4 -197.8 -238.7 -201.0 -234.4 -200.9 -232.95 -200.9 -232.45 -201.0 Q-230.0 -201.55 -228.3 -203.65 L-227.05 -204.05 -226.25 -205.3 -225.05 -206.95 M-211.85 -198.3 L-210.25 -197.1 -211.4 -195.25 -211.15 -194.5 -210.05 -194.35 -208.8 -196.35 -207.95 -196.0 -208.35 -194.25 -207.95 -193.4 -208.15 -191.7 Q-207.45 -191.3 -206.8 -191.3 -206.0 -191.3 -205.3 -191.8 -204.65 -192.2 -204.45 -192.95 L-202.55 -195.2 -196.95 -196.3 -195.65 -196.55 Q-195.15 -196.85 -195.15 -197.25 L-192.25 -200.25 Q-192.8 -198.05 -193.75 -196.1 L-194.05 -195.55 -194.7 -194.55 -201.25 -191.15 -202.25 -191.5 -210.65 -186.95 -211.0 -186.8 -211.7 -187.25 -210.85 -188.25 -212.0 -190.8 -213.8 -190.7 Q-213.85 -193.45 -212.85 -196.1 L-212.55 -196.85 -211.85 -198.3 M-258.5 -181.05 L-257.95 -182.75 -257.95 -181.9 -257.6 -181.3 -256.7 -181.1 -256.3 -181.4 -256.2 -181.9 -255.6 -181.25 -253.85 -185.95 -251.65 -185.8 -251.35 -185.95 -250.7 -186.95 -249.2 -186.75 Q-246.35 -186.35 -243.6 -185.4 -243.6 -184.85 -243.0 -184.45 -242.45 -184.1 -241.65 -184.1 -243.9 -180.2 -245.6 -176.05 L-246.35 -174.05 -248.95 -173.4 Q-250.7 -173.55 -252.2 -172.6 L-252.95 -172.15 -253.7 -171.95 -254.2 -173.0 -253.7 -173.65 -254.45 -173.55 -254.7 -174.4 -254.4 -174.8 -254.6 -175.75 -255.1 -175.8 -255.75 -179.05 -257.4 -178.5 -258.5 -181.05 M-254.3 -186.35 Q-255.0 -185.75 -256.05 -185.45 -258.05 -185.25 -259.0 -187.1 -256.85 -189.75 -253.35 -189.45 L-253.05 -189.0 -254.3 -186.35 M-258.8 -212.4 L-259.95 -212.55 -260.05 -212.4 -261.05 -210.45 -261.25 -208.7 -261.1 -207.8 -260.15 -207.7 Q-259.45 -209.0 -259.1 -210.45 L-258.8 -212.4 M-223.35 -203.15 L-224.65 -203.25 -226.95 -201.1 -227.0 -201.0 -227.45 -200.45 -227.8 -198.25 -226.65 -197.75 Q-221.9 -196.7 -219.35 -200.9 L-218.4 -199.8 -217.5 -200.25 Q-216.45 -200.35 -215.8 -201.0 -215.3 -201.55 -215.05 -202.35 L-214.6 -203.45 -215.1 -203.55 -217.9 -201.65 -219.05 -201.65 -219.05 -202.4 -220.0 -203.4 -222.6 -202.7 -223.35 -203.15 M-189.0 -197.45 L-191.65 -197.4 -191.65 -198.15 Q-190.45 -199.45 -188.8 -199.35 L-188.65 -198.95 -189.6 -198.6 -189.6 -197.85 -189.0 -197.45 M-220.3 -183.4 L-222.95 -182.0 -223.15 -182.5 -234.95 -177.9 Q-234.3 -179.1 -234.9 -180.2 L-235.25 -180.8 -236.2 -180.8 -238.4 -180.6 -235.1 -184.0 -233.45 -183.5 -231.75 -183.25 -231.35 -182.05 -229.35 -182.05 -228.9 -183.2 -227.1 -183.55 Q-223.6 -184.15 -220.85 -186.4 L-219.15 -185.8 -217.1 -185.15 -220.05 -184.15 -220.3 -183.4 M-237.65 -176.75 L-239.95 -176.0 -239.1 -179.55 -239.1 -179.3 -239.05 -177.2 -237.65 -176.8 -237.65 -176.75 M-217.25 -189.9 L-219.0 -188.35 -219.4 -188.85 -219.6 -191.65 -217.25 -189.9 M-215.8 -195.2 L-215.6 -194.5 Q-216.05 -193.35 -217.15 -192.9 -216.3 -193.35 -215.9 -194.5 L-215.8 -195.2 M-218.75 -192.65 Q-220.65 -193.1 -220.6 -195.1 L-220.55 -196.1 -220.55 -196.55 -217.15 -196.65 -218.45 -196.2 -219.0 -195.9 -220.25 -194.2 -218.75 -192.65 M-238.8 -186.15 L-235.5 -184.15 -236.55 -183.45 Q-239.05 -182.35 -241.2 -184.25 -240.75 -184.25 -240.45 -184.75 -240.15 -185.25 -240.15 -185.95 L-238.8 -186.15 M-240.9 -187.5 L-240.95 -187.5 -240.45 -187.75 -240.35 -187.5 -240.9 -187.5 M-250.0 -190.45 L-249.7 -191.1 Q-249.45 -191.4 -249.05 -191.4 -248.65 -191.4 -248.35 -191.1 L-248.1 -190.45 Q-248.1 -190.05 -248.35 -189.75 L-249.05 -189.5 -249.7 -189.75 -250.0 -190.45 M-252.3 -178.95 L-250.1 -176.9 Q-246.8 -177.2 -246.0 -180.2 -245.6 -181.65 -246.55 -182.95 -250.6 -183.45 -252.05 -179.8 L-252.3 -178.95 M-252.85 -184.55 Q-251.85 -183.95 -250.5 -183.75 L-249.7 -183.8 Q-250.4 -185.25 -252.1 -185.35 L-252.95 -185.3 -252.85 -184.55" fill="#fdf377" fill-rule="evenodd" stroke="none"/>
    <path d="M-265.0 -219.95 L-254.8 -216.15 -255.9 -214.85 -257.25 -215.65 -259.0 -216.75 -260.8 -215.9 -262.6 -214.45 -262.95 -215.55 -263.8 -215.75 -264.3 -215.4 -265.0 -219.95 M-255.95 -211.25 L-257.9 -209.7 -258.05 -211.75 -256.0 -211.85 -255.95 -211.25 M-259.0 -204.95 L-257.95 -203.15 -259.35 -203.15 -259.85 -202.25 -260.45 -202.55 -261.3 -202.55 -261.95 -201.75 -261.85 -200.8 -260.35 -200.8 -260.05 -201.15 -260.05 -201.0 Q-260.55 -198.5 -260.3 -196.1 L-260.2 -195.05 -260.0 -193.6 -260.35 -192.7 -259.7 -191.5 -258.75 -191.4 -258.1 -191.5 Q-252.65 -189.7 -249.95 -194.65 L-249.35 -195.9 -248.0 -193.5 Q-247.8 -190.85 -245.9 -189.05 L-244.95 -188.25 -242.2 -187.55 -243.2 -186.9 Q-243.6 -186.3 -243.6 -185.4 -246.35 -186.35 -249.2 -186.75 L-250.7 -186.95 -251.0 -189.5 -253.05 -189.0 -253.35 -189.45 Q-256.85 -189.75 -259.0 -187.1 -258.05 -185.25 -256.05 -185.45 -255.0 -185.75 -254.3 -186.35 L-253.85 -185.95 -255.6 -181.25 -256.2 -181.9 -256.3 -183.05 -257.65 -183.2 -257.95 -182.75 -258.5 -181.05 -260.2 -183.6 -259.55 -184.6 -260.2 -185.5 -260.15 -187.35 -259.45 -187.45 -259.1 -188.1 -259.8 -188.55 -260.4 -187.85 -261.5 -189.7 -261.55 -192.45 -261.7 -194.05 -261.45 -195.25 -261.9 -195.2 -262.3 -194.85 -262.55 -195.75 -262.3 -196.1 Q-260.8 -198.65 -262.9 -201.0 L-263.5 -201.6 -263.9 -205.8 -262.65 -206.0 -262.65 -206.6 -263.4 -207.05 -263.95 -213.2 -263.4 -213.25 -263.35 -213.25 -262.85 -213.5 -262.8 -213.25 -262.65 -212.4 -262.25 -210.45 Q-261.65 -207.65 -260.5 -204.95 L-259.0 -204.95 M-249.4 -199.65 L-248.4 -199.65 -248.6 -197.9 -248.3 -197.5 -248.85 -197.05 -249.2 -196.5 -249.4 -199.65 M-241.6 -201.3 L-239.5 -202.8 -238.7 -201.0 -243.4 -197.8 -244.55 -198.05 -241.6 -201.3 M-237.9 -205.95 L-237.9 -206.9 -234.85 -209.65 -236.65 -210.2 -225.05 -206.95 -226.25 -205.3 Q-228.15 -207.3 -230.8 -207.05 L-232.1 -206.8 -231.1 -205.1 -230.95 -204.95 Q-230.2 -204.0 -228.85 -203.65 L-228.3 -203.65 Q-230.0 -201.55 -232.45 -201.0 L-232.95 -200.9 -234.4 -200.9 -234.25 -201.0 Q-232.7 -202.35 -233.5 -204.3 L-233.75 -204.85 -233.95 -206.75 -234.7 -207.15 -237.9 -205.95 M-213.05 -199.95 L-211.85 -198.3 -212.55 -196.85 -212.85 -196.1 Q-213.85 -193.45 -213.8 -190.7 L-217.25 -189.9 -219.6 -191.65 -220.25 -192.6 Q-221.7 -194.6 -224.1 -195.6 L-223.0 -196.1 -221.95 -196.6 Q-217.65 -198.55 -213.05 -199.95 M-192.25 -200.25 Q-189.4 -200.0 -186.8 -199.2 L-185.55 -198.8 -187.3 -197.9 -187.35 -198.9 -188.6 -198.95 -188.65 -198.95 -188.8 -199.35 Q-190.45 -199.45 -191.65 -198.15 L-191.65 -197.4 -189.0 -197.45 -188.55 -197.3 -189.1 -197.0 -188.25 -196.75 -188.35 -196.1 -188.6 -195.15 -189.0 -193.8 -188.75 -193.25 Q-187.85 -190.9 -189.5 -189.15 L-190.15 -189.5 -190.5 -190.75 Q-191.25 -192.9 -193.25 -193.8 L-193.45 -194.85 -194.7 -194.55 -194.05 -195.55 -193.75 -196.1 Q-192.8 -198.05 -192.25 -200.25 M-187.45 -197.85 L-187.4 -197.9 -187.35 -197.85 -187.45 -197.85 M-201.25 -191.15 Q-203.1 -186.85 -206.9 -186.2 -208.4 -185.95 -210.15 -186.25 L-210.65 -186.95 -202.25 -191.5 -201.25 -191.15 M-211.0 -186.8 L-211.75 -185.6 Q-215.1 -180.85 -220.3 -183.4 L-220.05 -184.15 -217.1 -185.15 Q-214.65 -185.05 -212.65 -186.55 L-211.7 -187.25 -211.0 -186.8 M-222.95 -182.0 Q-225.0 -176.75 -230.45 -178.15 -232.55 -173.15 -237.9 -176.3 L-237.65 -176.75 -237.65 -176.8 -234.95 -177.9 -223.15 -182.5 -222.95 -182.0 M-239.95 -176.0 Q-241.45 -171.35 -246.2 -173.15 L-246.35 -174.05 -245.6 -176.05 Q-243.9 -180.2 -241.65 -184.1 L-241.2 -184.25 Q-239.05 -182.35 -236.55 -183.45 L-235.5 -184.15 -235.1 -184.0 -238.4 -180.6 -239.1 -179.55 -239.95 -176.0 M-248.95 -173.4 L-249.05 -172.6 -251.35 -171.5 -251.3 -167.9 -252.0 -167.5 -252.95 -172.15 -252.2 -172.6 Q-250.7 -173.55 -248.95 -173.4 M-253.7 -171.95 L-255.85 -171.4 Q-256.3 -172.7 -257.6 -173.7 L-258.8 -174.55 -257.4 -178.5 -255.75 -179.05 -255.1 -175.8 -255.65 -175.25 -255.2 -174.55 -254.7 -174.4 -254.45 -173.55 -254.2 -173.0 -253.7 -171.95 M-199.95 -190.4 L-199.9 -191.2 Q-198.75 -191.95 -197.25 -192.0 L-197.1 -191.25 -197.35 -190.9 Q-197.9 -189.55 -199.25 -190.1 L-199.95 -190.4 M-217.15 -192.9 Q-216.05 -193.35 -215.6 -194.5 L-215.8 -195.2 -217.15 -196.65 -220.55 -196.55 -220.55 -196.1 -220.6 -195.1 Q-220.65 -193.1 -218.75 -192.65 L-217.7 -192.75 -217.3 -192.85 -217.25 -192.85 -217.15 -192.9 M-214.85 -180.8 Q-214.5 -182.55 -213.1 -183.85 L-212.3 -183.8 -211.75 -183.3 -211.55 -181.75 -213.6 -180.05 -214.5 -180.2 -214.85 -180.8 M-204.85 -185.2 L-204.75 -183.5 -205.25 -183.3 -206.1 -184.65 -206.0 -185.15 -204.85 -185.2 M-239.05 -186.4 L-238.8 -186.15 -240.15 -185.95 Q-240.1 -186.9 -240.6 -187.35 L-240.9 -187.5 -240.35 -187.5 -239.05 -186.4 M-241.95 -170.9 L-241.15 -170.65 -240.85 -170.0 -241.5 -169.4 -241.9 -169.6 -241.95 -170.9 M-250.0 -190.45 L-249.7 -189.75 -249.05 -189.5 -248.35 -189.75 Q-248.1 -190.05 -248.1 -190.45 L-248.35 -191.1 Q-248.65 -191.4 -249.05 -191.4 -249.45 -191.4 -249.7 -191.1 L-250.0 -190.45 M-256.4 -175.95 L-257.15 -176.3 -258.2 -174.95 -258.05 -174.1 -256.4 -174.05 -256.4 -175.95 M-246.2 -170.25 L-244.9 -171.35 Q-242.15 -170.55 -242.6 -167.9 -242.75 -166.9 -243.35 -166.0 L-244.75 -165.75 -246.35 -169.7 -246.2 -170.25" fill="#f8dd49" fill-rule="evenodd" stroke="none"/>
    <path d="M-256.85 -202.15 L-256.7 -202.0 -258.45 -200.8 -258.4 -201.0 -257.95 -201.75 Q-257.5 -202.15 -256.85 -202.15 M-251.8 -199.95 L-250.65 -199.75 -251.15 -197.7 Q-251.5 -196.75 -251.95 -196.1 -253.4 -194.25 -256.3 -194.85 L-256.1 -197.4 Q-253.7 -197.3 -252.65 -199.3 L-252.5 -199.75 -251.8 -199.95 M-239.05 -209.55 L-240.9 -211.15 -240.7 -211.4 -238.6 -210.75 -239.05 -209.55 M-210.25 -197.1 L-208.8 -196.35 -210.05 -194.35 -211.15 -194.5 -211.4 -195.25 -210.25 -197.1 M-207.95 -196.0 L-202.55 -195.2 -204.45 -192.95 -204.45 -193.05 -204.6 -194.5 -206.3 -194.1 -207.95 -193.4 -208.35 -194.25 -207.95 -196.0 M-242.2 -187.55 L-244.95 -188.25 -240.55 -190.7 -240.55 -190.55 -240.45 -187.75 -240.95 -187.5 -242.2 -187.55 M-258.8 -212.4 L-259.1 -210.45 Q-259.45 -209.0 -260.15 -207.7 L-261.1 -207.8 -261.25 -208.7 -261.05 -210.45 -260.05 -212.4 -259.95 -212.55 -258.8 -212.4 M-242.75 -197.35 Q-240.7 -198.95 -238.0 -198.9 L-237.75 -198.45 -238.45 -197.6 Q-239.35 -196.5 -240.6 -196.1 L-242.05 -195.85 -242.75 -197.35 M-230.9 -196.65 Q-232.0 -198.6 -231.8 -200.9 L-231.35 -201.0 -230.8 -200.55 Q-229.05 -199.0 -229.7 -196.7 L-230.9 -196.65 M-222.6 -202.7 L-220.0 -203.4 -219.05 -202.4 -219.05 -201.65 -219.35 -200.9 Q-221.9 -196.7 -226.65 -197.75 L-227.8 -198.25 -227.45 -200.45 -227.1 -199.85 Q-224.55 -199.25 -223.35 -201.0 L-222.85 -202.0 -222.6 -202.7 M-217.9 -201.65 L-215.1 -203.55 -214.6 -203.45 -215.05 -202.35 Q-215.3 -201.55 -215.8 -201.0 -216.45 -200.35 -217.5 -200.25 L-217.9 -201.65 M-219.0 -188.35 L-219.15 -185.8 -220.85 -186.4 -220.35 -186.8 Q-219.4 -187.6 -219.4 -188.85 L-219.0 -188.35 M-228.9 -183.2 L-229.35 -182.05 -231.35 -182.05 -231.75 -183.25 -228.9 -183.2 M-231.9 -196.6 L-233.35 -196.1 -233.7 -196.0 Q-237.4 -194.7 -240.15 -192.0 L-241.85 -192.75 -241.05 -193.95 -238.8 -196.1 Q-235.9 -198.0 -231.9 -196.6 M-246.55 -182.95 Q-249.25 -182.1 -251.3 -179.95 L-252.3 -178.95 -252.05 -179.8 Q-250.6 -183.45 -246.55 -182.95 M-252.85 -184.55 L-252.95 -185.3 -252.1 -185.35 Q-250.4 -185.25 -249.7 -183.8 L-250.5 -183.75 Q-251.85 -183.95 -252.85 -184.55" fill="#fef8af" fill-rule="evenodd" stroke="none"/>
    <path d="M-192.2 -201.35 L-193.25 -201.2 -195.65 -201.45 Q-201.15 -201.35 -206.5 -202.65 -208.7 -203.1 -210.55 -203.95 L-211.65 -204.3 -211.95 -203.85 -211.7 -204.25 -212.4 -205.0 -211.95 -205.35 Q-206.15 -203.5 -199.95 -202.6 L-192.35 -202.2 -192.2 -201.35" fill="#5f1705" fill-rule="evenodd" stroke="none"/>
    <path d="M-193.25 -201.2 L-193.35 -201.0 Q-195.8 -197.05 -199.85 -196.1 L-202.8 -195.85 -205.05 -196.1 Q-209.2 -197.05 -211.0 -201.0 L-211.55 -202.35 -211.95 -203.85 -211.65 -204.3 -210.55 -203.95 Q-210.15 -202.25 -209.3 -201.0 -207.25 -197.8 -202.45 -197.85 -197.95 -197.85 -194.7 -201.0 L-194.65 -201.1 -195.65 -201.45 -193.25 -201.2 M-249.35 -212.4 L-248.45 -212.45 -247.4 -212.4 Q-244.4 -212.15 -242.35 -210.45 -240.5 -208.9 -239.4 -206.2 -240.15 -202.2 -243.3 -201.0 L-245.95 -200.5 Q-248.6 -200.3 -250.9 -201.0 -254.1 -201.95 -256.6 -204.6 -257.1 -205.2 -256.95 -205.8 -256.15 -208.8 -254.3 -210.45 -252.4 -212.15 -249.35 -212.4 M-243.55 -209.8 Q-244.3 -210.2 -244.95 -210.45 -248.3 -211.8 -250.65 -210.45 -252.35 -209.5 -253.55 -207.3 L-253.65 -207.1 -253.9 -207.0 -253.8 -206.75 Q-254.9 -204.1 -252.1 -202.85 -248.25 -201.0 -244.35 -202.6 -238.25 -205.2 -242.65 -209.1 L-242.9 -209.6 -243.55 -209.8 M-235.15 -187.25 Q-229.95 -183.35 -225.05 -186.95 -223.25 -188.15 -222.85 -190.5 L-223.25 -191.15 Q-226.95 -195.35 -232.6 -195.05 L-234.0 -194.95 Q-228.75 -196.25 -224.35 -193.1 -219.65 -189.8 -224.0 -186.1 -228.8 -182.15 -234.2 -185.55 -239.65 -188.9 -235.45 -194.25 L-236.5 -192.15 -236.9 -190.9 -237.0 -190.5 -236.9 -190.3 -236.2 -188.6 -235.65 -187.7 -235.45 -187.4 -235.15 -187.25" fill="#932409" fill-rule="evenodd" stroke="none"/>
    <path d="M-253.65 -207.1 L-253.55 -207.3 Q-252.35 -209.5 -250.65 -210.45 -248.3 -211.8 -244.95 -210.45 -244.3 -210.2 -243.55 -209.8 -244.15 -209.9 -244.35 -209.35 L-244.45 -209.15 Q-244.4 -208.65 -243.85 -208.55 L-243.55 -208.5 Q-243.1 -208.5 -242.75 -208.95 L-242.65 -209.1 Q-238.25 -205.2 -244.35 -202.6 -248.25 -201.0 -252.1 -202.85 -254.9 -204.1 -253.8 -206.75 L-253.75 -206.55 -252.8 -206.1 -251.05 -206.55 -250.85 -207.35 -251.4 -207.95 -253.65 -207.1 M-247.8 -209.9 L-247.65 -209.5 -247.45 -209.9 -247.8 -209.9 M-247.95 -208.25 L-248.45 -207.8 -245.75 -207.9 -247.95 -208.25 M-250.85 -204.55 L-250.75 -203.9 -247.65 -203.95 -247.25 -204.3 Q-248.75 -205.35 -250.65 -204.95 L-250.85 -204.55 M-251.25 -209.0 L-250.5 -209.7 -251.5 -209.8 -251.25 -209.0 M-241.85 -206.4 L-242.55 -205.9 -242.65 -205.4 -241.25 -205.35 -241.05 -206.25 -241.85 -206.4 M-209.0 -202.2 L-209.15 -201.8 -208.9 -201.4 -207.65 -201.55 -207.2 -202.15 -208.1 -202.5 -208.5 -202.45 -209.0 -202.2 M-195.65 -201.45 L-194.65 -201.1 -194.7 -201.0 Q-197.95 -197.85 -202.45 -197.85 -207.25 -197.8 -209.3 -201.0 -210.15 -202.25 -210.55 -203.95 -208.7 -203.1 -206.5 -202.65 -201.15 -201.35 -195.65 -201.45 M-202.8 -201.5 L-203.2 -201.65 -203.6 -201.5 -203.75 -201.2 -203.7 -201.0 -203.6 -200.85 -203.2 -200.75 -202.8 -200.85 -202.65 -201.0 -202.65 -201.2 -202.8 -201.5 M-206.65 -200.55 L-207.9 -200.0 -205.0 -199.9 -205.6 -200.8 -206.65 -200.55 M-200.95 -200.4 L-199.65 -199.4 -198.0 -200.3 -198.1 -201.0 -198.1 -201.05 -200.45 -200.85 -200.95 -200.4 M-231.5 -192.95 L-229.95 -192.35 -227.65 -193.5 -231.4 -193.75 -231.5 -192.95 M-228.75 -186.75 L-227.9 -186.3 -225.5 -187.2 -225.3 -187.65 -228.5 -187.8 -228.75 -186.75 M-235.15 -187.25 Q-233.6 -186.9 -232.25 -187.65 L-231.35 -188.05 Q-233.4 -189.1 -235.5 -188.3 L-235.65 -187.7 -236.2 -188.6 -236.9 -190.3 -235.95 -190.15 -235.45 -190.7 -235.4 -190.75 Q-236.15 -191.4 -236.9 -190.9 L-236.5 -192.15 -235.45 -194.25 -234.0 -194.95 -232.6 -195.05 Q-226.95 -195.35 -223.25 -191.15 L-224.95 -191.05 -224.7 -190.15 -223.6 -189.9 -222.85 -190.5 Q-223.25 -188.15 -225.05 -186.95 -229.95 -183.35 -235.15 -187.25 M-228.0 -190.0 L-227.4 -190.2 -227.15 -190.65 -227.4 -191.1 -228.0 -191.3 -228.6 -191.1 -228.85 -190.65 -228.6 -190.2 -228.0 -190.0 M-234.85 -192.75 L-234.45 -192.65 -234.05 -192.75 Q-233.9 -192.85 -233.9 -193.0 L-234.05 -193.25 -234.45 -193.35 -234.85 -193.25 -235.0 -193.0 -234.85 -192.75 M-233.75 -191.25 L-233.4 -191.15 -233.05 -191.25 -232.9 -191.5 -233.05 -191.75 -233.4 -191.85 -233.75 -191.75 -233.9 -191.5 -233.75 -191.25" fill="#c6320d" fill-rule="evenodd" stroke="none"/>
    <path d="M-259.65 -170.45 L-261.45 -176.85 -260.7 -176.9 -260.25 -177.9 -261.3 -178.6 -261.7 -177.65 -263.15 -183.3 -262.1 -183.15 -258.9 -177.5 -259.15 -176.1 -259.25 -175.2 Q-259.3 -172.3 -256.7 -171.2 L-259.65 -170.45 M-263.35 -184.45 L-264.85 -201.45 -263.5 -199.2 -263.7 -197.7 -264.2 -197.45 -263.75 -197.5 -263.6 -196.1 Q-263.3 -194.5 -262.4 -193.0 L-261.8 -192.1 Q-262.2 -189.2 -261.4 -186.35 L-262.9 -185.7 -263.35 -184.45 M-264.95 -206.65 L-264.9 -207.95 -264.65 -207.35 -264.95 -206.65 M-264.3 -215.4 L-263.8 -215.75 -262.95 -215.55 -262.6 -214.45 -262.85 -213.5 -263.35 -213.25 -263.4 -213.25 -263.95 -213.2 -264.55 -213.6 -264.75 -214.75 -264.3 -215.4 M-263.4 -207.05 L-262.65 -206.6 -262.65 -206.0 -263.9 -205.8 -264.0 -206.25 -263.4 -207.05 M-262.3 -194.85 L-261.9 -195.2 -261.45 -195.25 -261.7 -194.05 -262.3 -194.85 M-260.4 -187.85 L-259.8 -188.55 -259.1 -188.1 -259.45 -187.45 -260.15 -187.35 -260.4 -187.85 M-260.2 -185.5 L-259.55 -184.6 -260.2 -183.6 -261.1 -184.25 -261.0 -185.25 -260.2 -185.5 M-257.95 -182.75 L-257.65 -183.2 -256.3 -183.05 -256.2 -181.9 -256.3 -181.4 -256.7 -181.1 -257.6 -181.3 -257.95 -181.9 -257.95 -182.75 M-260.05 -201.15 L-260.35 -200.8 -261.85 -200.8 -261.95 -201.75 -261.3 -202.55 -260.45 -202.55 -259.85 -202.25 -260.05 -201.15 M-253.65 -207.1 L-251.4 -207.95 -250.85 -207.35 -251.05 -206.55 -252.8 -206.1 -253.75 -206.55 -253.8 -206.75 -253.9 -207.0 -253.65 -207.1 M-242.65 -209.1 L-242.75 -208.95 Q-243.1 -208.5 -243.55 -208.5 L-243.85 -208.55 Q-244.4 -208.65 -244.45 -209.15 L-244.35 -209.35 Q-244.15 -209.9 -243.55 -209.8 L-242.9 -209.6 -242.65 -209.1 M-251.25 -209.0 L-251.5 -209.8 -250.5 -209.7 -251.25 -209.0 M-250.85 -204.55 L-250.65 -204.95 Q-248.75 -205.35 -247.25 -204.3 L-247.65 -203.95 -250.75 -203.9 -250.85 -204.55 M-247.95 -208.25 L-245.75 -207.9 -248.45 -207.8 -247.95 -208.25 M-247.8 -209.9 L-247.45 -209.9 -247.65 -209.5 -247.8 -209.9 M-241.85 -206.4 L-241.05 -206.25 -241.25 -205.35 -242.65 -205.4 -242.55 -205.9 -241.85 -206.4 M-209.0 -202.2 L-208.5 -202.45 -208.1 -202.5 -207.2 -202.15 -207.65 -201.55 -208.9 -201.4 -209.15 -201.8 -209.0 -202.2 M-206.65 -200.55 L-205.6 -200.8 -205.0 -199.9 -207.9 -200.0 -206.65 -200.55 M-202.8 -201.5 L-202.65 -201.2 -202.65 -201.0 -202.8 -200.85 -203.2 -200.75 -203.6 -200.85 -203.7 -201.0 -203.75 -201.2 -203.6 -201.5 -203.2 -201.65 -202.8 -201.5 M-200.95 -200.4 L-200.45 -200.85 -198.1 -201.05 -198.1 -201.0 -198.0 -200.3 -199.65 -199.4 -200.95 -200.4 M-228.75 -186.75 L-228.5 -187.8 -225.3 -187.65 -225.5 -187.2 -227.9 -186.3 -228.75 -186.75 M-231.5 -192.95 L-231.4 -193.75 -227.65 -193.5 -229.95 -192.35 -231.5 -192.95 M-235.65 -187.7 L-235.5 -188.3 Q-233.4 -189.1 -231.35 -188.05 L-232.25 -187.65 Q-233.6 -186.9 -235.15 -187.25 L-235.45 -187.4 -235.65 -187.7 M-222.85 -190.5 L-223.6 -189.9 -224.7 -190.15 -224.95 -191.05 -223.25 -191.15 -222.85 -190.5 M-236.9 -190.9 Q-236.15 -191.4 -235.4 -190.75 L-235.45 -190.7 -235.95 -190.15 -236.9 -190.3 -237.0 -190.5 -236.9 -190.9 M-228.0 -190.0 L-228.6 -190.2 -228.85 -190.65 -228.6 -191.1 -228.0 -191.3 -227.4 -191.1 -227.15 -190.65 -227.4 -190.2 -228.0 -190.0 M-234.85 -192.75 L-235.0 -193.0 -234.85 -193.25 -234.45 -193.35 -234.05 -193.25 -233.9 -193.0 Q-233.9 -192.85 -234.05 -192.75 L-234.45 -192.65 -234.85 -192.75 M-233.75 -191.25 L-233.9 -191.5 -233.75 -191.75 -233.4 -191.85 -233.05 -191.75 -232.9 -191.5 -233.05 -191.25 -233.4 -191.15 -233.75 -191.25 M-263.25 -192.55 L-263.7 -192.3 -263.9 -191.8 -263.7 -191.25 -263.25 -191.05 -262.8 -191.25 -262.6 -191.8 -262.8 -192.3 -263.25 -192.55 M-256.4 -175.95 L-256.4 -174.05 -258.05 -174.1 -258.2 -174.95 -257.15 -176.3 -256.4 -175.95 M-254.45 -173.55 L-253.7 -173.65 -254.2 -173.0 -254.45 -173.55 M-259.3 -172.15 L-259.65 -172.0 -259.8 -171.7 -259.65 -171.35 -259.3 -171.25 -258.95 -171.35 -258.8 -171.7 -258.95 -172.0 -259.3 -172.15" fill="#ea4e26" fill-rule="evenodd" stroke="none"/>
    <path d="M-204.25 -101.15 L-207.95 -101.15 -206.15 -175.75 -202.15 -177.7 -204.25 -101.15 M-264.75 -156.25 L-260.9 -157.15 -259.55 -101.15 -263.2 -101.15 -264.75 -156.25" fill="#715311" fill-rule="evenodd" stroke="none"/>
    <path d="M-266.4 -220.55 L-265.95 -220.35 Q-264.55 -216.7 -265.4 -213.25 L-265.65 -212.4 -266.05 -211.35 -266.4 -210.45 -266.6 -210.1 -266.5 -209.55 -266.05 -209.2 -265.15 -209.1 -264.9 -207.95 -264.95 -206.65 -264.85 -201.45 -263.35 -184.45 -263.15 -183.3 -261.7 -177.65 -261.45 -176.85 -259.65 -170.45 -260.8 -170.15 -261.0 -171.45 -261.75 -175.35 Q-262.95 -180.75 -263.75 -186.25 L-265.05 -196.1 -265.25 -197.7 -265.65 -201.0 -266.9 -209.35 -266.95 -210.65 -267.15 -220.85 -266.4 -220.55" fill="#d13a14" fill-rule="evenodd" stroke="none"/>
    <path d="M-277.95 -225.95 L-277.9 -226.15 -278.9 -218.75 -279.3 -213.25 -279.3 -212.4 -279.25 -210.45 Q-279.1 -207.55 -278.55 -204.7 L-277.9 -201.0 -277.4 -197.3 -278.7 -196.0 -278.1 -191.75 -278.0 -189.4 -277.1 -188.35 Q-275.95 -186.7 -276.4 -184.6 L-276.6 -183.6 -275.85 -183.35 Q-275.95 -181.15 -275.7 -179.15 L-275.5 -177.75 -274.1 -176.6 -274.4 -174.1 -275.15 -173.65 -273.05 -168.05 -273.4 -164.05 Q-274.8 -166.65 -275.65 -169.3 -277.5 -174.8 -278.2 -180.5 L-279.45 -192.0 -279.8 -196.1 -280.1 -201.0 -280.25 -203.45 -280.25 -210.45 -280.15 -212.4 -280.05 -213.25 -279.95 -214.8 Q-279.45 -220.45 -277.95 -225.95 M-267.1 -221.6 L-266.4 -220.55 -267.15 -220.85 -266.95 -210.65 -267.15 -211.75 -268.15 -222.3 -267.1 -221.6" fill="#8e6f0d" fill-rule="evenodd" stroke="none"/>
    <path d="M-277.9 -226.15 L-276.0 -226.75 -274.8 -226.8 Q-269.95 -226.85 -268.15 -222.3 L-267.15 -211.75 -266.9 -209.35 -265.65 -201.0 -265.25 -197.7 -265.05 -196.1 -263.75 -186.25 Q-262.95 -180.75 -261.75 -175.35 L-261.0 -171.45 -260.8 -170.15 -261.3 -166.7 -261.35 -164.9 -262.35 -164.95 Q-262.1 -170.15 -266.1 -170.7 L-266.45 -170.75 -266.25 -170.15 Q-266.25 -169.75 -266.55 -169.45 -266.85 -169.15 -267.25 -169.15 -267.65 -169.15 -267.95 -169.45 L-268.25 -170.15 -268.0 -170.75 -269.5 -170.55 Q-271.6 -170.0 -273.05 -168.05 L-275.15 -173.65 -274.4 -174.1 -274.1 -176.6 -275.5 -177.75 -275.7 -179.15 Q-275.95 -181.15 -275.85 -183.35 L-276.6 -183.6 -276.4 -184.6 Q-275.95 -186.7 -277.1 -188.35 L-278.0 -189.4 -278.1 -191.75 -278.7 -196.0 -277.4 -197.3 -277.9 -201.0 -278.55 -204.7 Q-279.1 -207.55 -279.25 -210.45 L-279.3 -212.4 -279.3 -213.25 -278.9 -218.75 -277.9 -226.15 M-275.7 -226.35 L-277.0 -224.5 -276.25 -221.9 -278.0 -217.9 -275.25 -207.95 -277.75 -203.9 -274.75 -199.6 -275.25 -196.1 -275.45 -194.75 Q-276.35 -187.45 -274.4 -180.25 L-271.85 -182.6 -271.5 -182.15 -271.9 -180.65 Q-272.4 -178.35 -273.5 -176.3 L-271.85 -172.05 Q-268.2 -173.35 -264.35 -173.35 L-263.55 -174.4 -264.35 -178.65 -265.5 -185.8 -266.8 -196.1 -267.1 -199.25 -267.25 -201.0 -268.25 -210.45 -268.5 -212.4 -268.6 -213.25 -268.65 -213.5 -268.8 -210.75 -270.75 -214.7 -269.75 -215.25 -268.8 -214.7 Q-268.45 -217.4 -269.0 -220.1 -270.1 -225.5 -275.7 -226.35 M-273.25 -216.35 L-272.75 -216.1 -272.85 -213.55 -273.4 -213.3 -274.0 -213.25 -275.1 -213.05 -275.0 -215.65 -273.25 -216.35 M-270.15 -218.45 L-271.75 -218.2 -271.75 -219.55 -270.25 -219.45 -270.15 -218.45 M-275.85 -219.8 L-275.25 -220.1 -274.6 -219.8 -274.35 -219.2 -274.6 -218.55 Q-274.9 -218.3 -275.25 -218.3 -275.6 -218.3 -275.85 -218.55 L-276.15 -219.2 -275.85 -219.8 M-271.25 -196.5 L-271.2 -196.1 Q-271.15 -195.2 -272.15 -194.6 -272.8 -194.2 -273.55 -193.9 L-275.15 -195.5 -274.7 -196.1 -274.65 -196.15 -272.8 -197.7 -271.6 -197.65 -271.25 -196.5 M-271.5 -189.25 L-271.9 -188.45 -272.8 -188.85 -272.7 -189.85 -271.65 -189.9 -271.5 -189.25 M-267.2 -182.05 L-267.8 -180.85 Q-268.75 -180.85 -269.2 -181.55 L-270.1 -183.0 -269.7 -183.8 -267.4 -183.4 -267.2 -182.05 M-265.55 -176.15 L-266.75 -176.9 -266.75 -177.35 -265.4 -177.65 -265.55 -176.15 M-267.25 -166.5 L-265.85 -166.5 -265.65 -165.75 -266.1 -164.9 -266.95 -165.35 -267.25 -166.5 M-270.35 -167.25 L-269.4 -167.9 -269.35 -166.55 Q-269.85 -166.65 -270.2 -166.9 L-270.35 -167.25 M-264.65 -167.75 L-264.75 -168.5 -263.25 -168.75 -263.15 -167.8 -264.65 -167.75" fill="#bc9210" fill-rule="evenodd" stroke="none"/>
    <path d="M-274.3 -224.7 L-274.45 -222.55 -274.0 -220.0 -271.85 -219.9 -271.25 -222.3 -271.05 -224.05 -274.3 -224.7 M-275.7 -226.35 Q-270.1 -225.5 -269.0 -220.1 -268.45 -217.4 -268.8 -214.7 L-269.75 -215.25 -270.75 -214.7 -268.8 -210.75 -268.65 -213.5 -268.6 -213.25 -268.5 -212.4 -268.25 -210.45 -267.25 -201.0 -267.1 -199.25 -266.8 -196.1 -265.5 -185.8 -264.35 -178.65 -263.55 -174.4 -264.35 -173.35 Q-268.2 -173.35 -271.85 -172.05 L-273.5 -176.3 Q-272.4 -178.35 -271.9 -180.65 L-271.5 -182.15 -271.85 -182.6 -274.4 -180.25 Q-276.35 -187.45 -275.45 -194.75 L-275.25 -196.1 -274.75 -199.6 -277.75 -203.9 -275.25 -207.95 -278.0 -217.9 -276.25 -221.9 -277.0 -224.5 -275.7 -226.35 M-270.15 -218.45 L-270.25 -219.45 -271.75 -219.55 -271.75 -218.2 -270.15 -218.45 M-273.25 -216.35 L-275.0 -215.65 -275.1 -213.05 -274.0 -213.25 -273.4 -213.3 -272.85 -213.55 -272.75 -216.1 -273.25 -216.35 M-272.45 -212.35 L-274.15 -210.85 -273.45 -209.35 -271.65 -210.65 -271.55 -211.85 -272.45 -212.35 M-275.85 -219.8 L-276.15 -219.2 -275.85 -218.55 Q-275.6 -218.3 -275.25 -218.3 -274.9 -218.3 -274.6 -218.55 L-274.35 -219.2 -274.6 -219.8 -275.25 -220.1 -275.85 -219.8 M-271.85 -208.55 Q-273.7 -206.5 -274.65 -204.0 -273.85 -202.2 -272.2 -201.15 -269.55 -202.8 -269.85 -205.8 -270.0 -207.35 -270.95 -208.65 L-271.85 -208.55 M-271.3 -199.3 Q-271.0 -197.45 -269.2 -196.6 L-268.7 -196.85 Q-267.95 -198.8 -269.15 -200.55 -270.2 -199.9 -271.3 -199.3 M-271.25 -196.5 L-271.6 -197.65 -272.8 -197.7 -274.65 -196.15 -274.7 -196.1 -275.15 -195.5 -273.55 -193.9 Q-272.8 -194.2 -272.15 -194.6 -271.15 -195.2 -271.2 -196.1 L-271.25 -196.5 M-269.9 -195.1 Q-272.15 -189.5 -266.65 -187.3 -265.5 -191.7 -269.0 -194.4 L-269.9 -195.1 M-271.5 -189.25 L-271.65 -189.9 -272.7 -189.85 -272.8 -188.85 -271.9 -188.45 -271.5 -189.25 M-273.35 -186.9 L-274.25 -185.4 -274.0 -184.6 -271.2 -184.55 -271.3 -186.2 -272.2 -186.75 -272.7 -186.95 -273.35 -186.9 M-267.2 -182.05 L-267.4 -183.4 -269.7 -183.8 -270.1 -183.0 -269.2 -181.55 Q-268.75 -180.85 -267.8 -180.85 L-267.2 -182.05 M-269.7 -179.95 Q-272.2 -177.5 -270.1 -174.8 -268.1 -176.0 -268.15 -178.2 L-268.35 -180.1 -269.7 -179.95 M-265.55 -176.15 L-265.4 -177.65 -266.75 -177.35 -266.75 -176.9 -265.55 -176.15" fill="#d2b764" fill-rule="evenodd" stroke="none"/>
    <path d="M-274.3 -224.7 L-271.05 -224.05 -271.25 -222.3 -271.85 -219.9 -274.0 -220.0 -274.45 -222.55 -274.3 -224.7 M-272.45 -212.35 L-271.55 -211.85 -271.65 -210.65 -273.45 -209.35 -274.15 -210.85 -272.45 -212.35 M-271.3 -199.3 Q-270.2 -199.9 -269.15 -200.55 -267.95 -198.8 -268.7 -196.85 L-269.2 -196.6 Q-271.0 -197.45 -271.3 -199.3 M-271.85 -208.55 L-270.95 -208.65 Q-270.0 -207.35 -269.85 -205.8 -269.55 -202.8 -272.2 -201.15 -273.85 -202.2 -274.65 -204.0 -273.7 -206.5 -271.85 -208.55 M-269.9 -195.1 L-269.0 -194.4 Q-265.5 -191.7 -266.65 -187.3 -272.15 -189.5 -269.9 -195.1 M-273.35 -186.9 L-272.7 -186.95 -272.2 -186.75 -271.3 -186.2 -271.2 -184.55 -274.0 -184.6 -274.25 -185.4 -273.35 -186.9 M-269.7 -179.95 L-268.35 -180.1 -268.15 -178.2 Q-268.1 -176.0 -270.1 -174.8 -272.2 -177.5 -269.7 -179.95" fill="#ddc888" fill-rule="evenodd" stroke="none"/>
    <path d="M-166.25 -23.65 L-166.25 -22.65 -170.25 -11.4 -181.25 -11.4 -181.6 -11.55 -181.75 -11.9 -181.75 -12.4 Q-181.75 -16.95 -185.0 -20.2 -188.2 -23.4 -192.75 -23.4 -197.3 -23.4 -200.55 -20.2 -203.75 -16.95 -203.75 -12.4 L-203.75 -11.9 -203.9 -11.55 Q-204.05 -11.4 -204.25 -11.4 L-263.0 -11.4 Q-263.2 -11.4 -263.35 -11.55 L-263.5 -11.9 -263.5 -12.4 Q-263.5 -16.95 -266.75 -20.2 -269.95 -23.4 -274.5 -23.4 -279.05 -23.4 -282.3 -20.2 -285.5 -16.95 -285.5 -12.4 L-285.5 -11.9 -285.65 -11.55 -286.0 -11.4 -297.0 -11.4 -301.0 -23.15 -300.75 -31.55 -300.75 -31.9 -300.6 -32.25 -300.25 -32.4 -166.7 -32.4 -166.4 -32.25 -166.25 -31.9 -166.25 -31.55 -166.25 -27.9 -166.25 -23.65 M-299.75 -31.4 L-299.75 -27.9 -167.25 -27.9 -167.25 -31.4 -299.75 -31.4 M-299.75 -23.5 L-296.25 -12.4 -286.5 -12.4 Q-286.5 -17.35 -283.0 -20.9 -281.25 -22.65 -279.15 -23.5 -277.0 -24.4 -274.5 -24.4 -272.0 -24.4 -269.85 -23.5 -267.75 -22.6 -266.05 -20.9 -262.5 -17.35 -262.5 -12.4 L-204.75 -12.4 Q-204.75 -17.35 -201.25 -20.9 -199.5 -22.65 -197.4 -23.5 -195.25 -24.4 -192.75 -24.4 -190.25 -24.4 -188.1 -23.5 -186.0 -22.6 -184.3 -20.9 -180.75 -17.35 -180.75 -12.4 L-171.0 -12.4 -167.25 -23.5 -167.25 -26.9 -299.75 -26.9 -299.75 -23.5" fill="#1a4114" fill-rule="evenodd" stroke="none"/>
    <path d="M-299.75 -31.4 L-167.25 -31.4 -167.25 -27.9 -299.75 -27.9 -299.75 -31.4" fill="#44ac35" fill-rule="evenodd" stroke="none"/>
    <path d="M-299.75 -23.5 L-299.75 -26.9 -167.25 -26.9 -167.25 -23.5 -188.1 -23.5 Q-190.25 -24.4 -192.75 -24.4 -195.25 -24.4 -197.4 -23.5 L-269.85 -23.5 Q-272.0 -24.4 -274.5 -24.4 -277.0 -24.4 -279.15 -23.5 L-299.75 -23.5" fill="#245b1c" fill-rule="evenodd" stroke="none"/>
    <path d="M-279.15 -23.5 Q-281.25 -22.65 -283.0 -20.9 -286.5 -17.35 -286.5 -12.4 L-296.25 -12.4 -299.75 -23.5 -279.15 -23.5 M-167.25 -23.5 L-171.0 -12.4 -180.75 -12.4 Q-180.75 -17.35 -184.3 -20.9 -186.0 -22.6 -188.1 -23.5 L-167.25 -23.5 M-197.4 -23.5 Q-199.5 -22.65 -201.25 -20.9 -204.75 -17.35 -204.75 -12.4 L-262.5 -12.4 Q-262.5 -17.35 -266.05 -20.9 -267.75 -22.6 -269.85 -23.5 L-197.4 -23.5" fill="#327e27" fill-rule="evenodd" stroke="none"/>
    <path d="M-100.4 -11.7 L-101.3 -11.75 -101.25 -11.8 Q-101.1 -14.45 -102.4 -16.8 -105.95 -23.0 -113.15 -22.9 -124.15 -22.75 -125.6 -11.8 L-141.85 -11.8 -141.85 -12.5 -126.75 -13.05 Q-126.55 -15.3 -125.55 -17.4 -123.45 -21.95 -118.7 -23.3 -104.2 -27.75 -100.0 -13.15 L-93.65 -12.75 -93.55 -11.4 -100.4 -11.7 M-12.4 -13.25 Q-11.45 -12.8 -10.3 -12.8 -13.7 -11.5 -17.5 -11.5 -17.6 -15.7 -20.5 -18.75 -27.15 -25.7 -36.1 -22.6 -44.1 -19.95 -44.7 -11.55 L-50.55 -11.4 -50.45 -12.65 -46.1 -12.95 -45.95 -14.1 Q-44.2 -21.4 -37.15 -24.55 -36.85 -24.65 -36.65 -24.8 -28.75 -27.4 -22.0 -22.3 -17.25 -18.7 -16.0 -12.75 L-13.0 -13.15 -12.4 -13.25 M-92.3 -11.4 L-92.35 -12.7 Q-78.3 -12.05 -64.25 -12.1 L-51.9 -12.5 -52.1 -11.15 -71.65 -10.85 Q-78.7 -10.8 -85.75 -11.0 L-92.3 -11.4" fill="#722921" fill-rule="evenodd" stroke="none"/>
    <path d="M-270.5 -63.2 Q-271.05 -63.75 -271.8 -63.75 -272.6 -63.75 -273.15 -63.2 -273.7 -62.65 -273.7 -61.8 -273.7 -61.0 -273.15 -60.45 -272.6 -59.9 -271.8 -59.9 -271.05 -59.9 -270.5 -60.45 -269.95 -61.1 -269.95 -61.8 -269.95 -62.55 -270.5 -63.2 M-269.95 -66.25 L-269.95 -66.95 -266.55 -66.95 -266.55 -56.7 -269.95 -56.7 -269.95 -57.4 Q-270.7 -56.6 -271.85 -56.6 -274.1 -56.6 -275.55 -58.1 -277.1 -59.65 -277.1 -61.8 -277.1 -64.0 -275.55 -65.55 -274.05 -67.1 -271.85 -67.1 -270.7 -67.1 -269.95 -66.25 M-170.7 -68.9 L-170.7 -67.9 -170.95 -67.35 Q-171.15 -67.1 -171.55 -67.1 L-173.3 -67.1 Q-173.65 -67.1 -173.85 -67.35 L-174.1 -67.9 -174.1 -68.85 -173.9 -69.4 -173.85 -69.45 -173.3 -69.65 -171.55 -69.65 -171.2 -69.6 -170.95 -69.45 -170.7 -68.9 M-213.35 -69.4 L-213.15 -68.85 -213.15 -67.9 -213.4 -67.35 -214.0 -67.1 -215.75 -67.1 Q-216.1 -67.1 -216.3 -67.35 L-216.55 -67.9 -216.55 -68.9 -216.35 -69.4 -216.3 -69.45 -215.75 -69.65 -215.15 -69.65 -214.0 -69.65 Q-213.6 -69.65 -213.4 -69.45 L-213.35 -69.4 M-266.1 -56.7 L-266.1 -66.95 -260.35 -66.95 Q-258.9 -66.95 -257.95 -65.9 -256.95 -64.75 -256.95 -63.25 -256.95 -61.75 -257.95 -60.6 -258.9 -59.5 -260.35 -59.5 L-262.7 -59.5 -262.7 -56.7 -266.1 -56.7 M-280.9 -66.95 Q-279.45 -66.95 -278.5 -65.9 -277.5 -64.75 -277.5 -63.25 -277.5 -61.75 -278.5 -60.6 -279.45 -59.5 -280.9 -59.5 L-283.25 -59.5 -283.25 -56.7 -286.65 -56.7 -286.65 -66.95 -280.9 -66.95 M-281.1 -62.55 L-280.85 -63.2 -281.1 -63.85 -281.7 -64.15 -283.25 -64.15 -283.25 -62.25 -281.7 -62.25 -281.1 -62.55 M-260.3 -63.2 L-260.55 -63.85 -261.15 -64.15 -262.7 -64.15 -262.7 -62.25 -261.15 -62.25 -260.55 -62.55 -260.3 -63.2 M-243.05 -62.95 L-245.0 -62.95 -245.55 -66.95 -242.55 -66.95 -243.05 -62.95 M-249.95 -63.2 Q-250.5 -63.75 -251.25 -63.75 -252.05 -63.75 -252.6 -63.2 -253.15 -62.65 -253.15 -61.8 -253.15 -61.0 -252.6 -60.45 -252.05 -59.9 -251.25 -59.9 -250.5 -59.9 -249.95 -60.45 -249.4 -61.1 -249.4 -61.8 -249.4 -62.55 -249.95 -63.2 M-249.4 -66.25 L-249.4 -66.95 -246.0 -66.95 -246.0 -56.7 -249.4 -56.7 -249.4 -57.4 Q-250.15 -56.6 -251.3 -56.6 -253.55 -56.6 -255.0 -58.1 -256.55 -59.65 -256.55 -61.8 -256.55 -64.0 -255.0 -65.55 -253.5 -67.1 -251.3 -67.1 -250.15 -67.1 -249.4 -66.25 M-184.1 -56.7 L-184.1 -66.95 -180.7 -66.95 -180.7 -66.5 Q-180.1 -67.1 -179.25 -67.1 -177.8 -67.1 -176.6 -66.0 -175.5 -64.9 -175.5 -63.3 L-175.5 -60.8 -178.85 -60.8 -178.85 -62.9 -179.15 -63.6 -179.8 -63.85 -180.45 -63.6 -180.7 -62.9 -180.7 -56.7 -184.1 -56.7 M-198.55 -59.5 L-195.25 -59.5 -195.25 -56.7 -203.55 -56.7 -200.25 -64.15 -203.5 -64.15 -203.5 -66.95 -195.25 -66.95 -198.55 -59.5 M-189.9 -67.1 L-189.25 -67.1 Q-187.55 -67.1 -186.35 -66.05 -185.1 -65.05 -185.1 -63.6 -185.1 -62.15 -186.05 -61.3 -187.05 -60.45 -188.75 -60.45 L-191.45 -60.45 Q-190.85 -59.85 -189.9 -59.85 L-186.2 -59.85 -186.25 -56.7 -189.9 -56.7 Q-192.0 -56.7 -193.6 -58.2 -195.1 -59.7 -195.1 -61.9 -195.1 -64.05 -193.6 -65.55 -192.05 -67.1 -189.9 -67.1 M-189.9 -64.15 Q-191.25 -64.15 -191.95 -62.85 L-189.25 -62.85 Q-188.5 -62.85 -188.5 -63.35 -188.5 -63.7 -188.85 -63.9 L-189.9 -64.15 M-164.85 -67.1 Q-163.7 -67.1 -162.95 -66.25 L-162.95 -66.95 -159.55 -66.95 -159.55 -56.7 -162.95 -56.7 -162.95 -57.4 Q-163.7 -56.6 -164.85 -56.6 -167.1 -56.6 -168.55 -58.1 -170.1 -59.65 -170.1 -61.8 -170.1 -64.0 -168.55 -65.55 -167.05 -67.1 -164.85 -67.1 M-164.8 -63.75 Q-165.6 -63.75 -166.15 -63.2 -166.7 -62.65 -166.7 -61.8 -166.7 -61.0 -166.15 -60.45 -165.6 -59.9 -164.8 -59.9 -164.05 -59.9 -163.5 -60.45 -162.95 -61.1 -162.95 -61.8 -162.95 -62.55 -163.5 -63.2 -164.05 -63.75 -164.8 -63.75 M-170.7 -66.25 L-170.7 -56.7 -174.1 -56.7 -174.1 -66.25 -170.7 -66.25 M-223.15 -64.15 L-223.15 -62.25 -221.6 -62.25 -221.0 -62.55 -220.75 -63.2 -221.0 -63.85 -221.6 -64.15 -223.15 -64.15 M-223.15 -56.7 L-226.55 -56.7 -226.55 -66.95 -220.8 -66.95 Q-219.35 -66.95 -218.4 -65.9 -217.4 -64.75 -217.4 -63.25 -217.4 -61.75 -218.4 -60.6 -219.35 -59.5 -220.8 -59.5 L-223.15 -59.5 -223.15 -56.7 M-241.55 -63.3 Q-241.55 -64.95 -240.3 -66.0 -239.05 -67.1 -237.15 -67.1 -234.8 -67.1 -234.0 -66.55 L-234.45 -63.5 Q-236.15 -64.4 -237.05 -64.4 -237.65 -64.4 -237.8 -64.0 L-237.85 -63.85 Q-237.85 -63.45 -236.7 -63.2 L-234.65 -62.45 Q-233.55 -61.7 -233.55 -60.2 -233.55 -58.35 -235.0 -57.35 -236.15 -56.6 -238.0 -56.6 -239.95 -56.6 -241.55 -57.3 L-240.9 -60.0 -239.9 -59.55 -238.4 -59.3 Q-237.3 -59.3 -237.3 -59.9 -237.3 -60.3 -238.4 -60.55 L-240.45 -61.2 Q-241.55 -61.85 -241.55 -63.3 M-209.25 -64.15 L-212.5 -64.15 -212.5 -66.95 -204.25 -66.95 -207.55 -59.5 -204.25 -59.5 -204.25 -56.7 -212.55 -56.7 -209.25 -64.15 M-216.55 -66.25 L-213.15 -66.25 -213.15 -56.7 -216.55 -56.7 -216.55 -66.25" fill="#f26962" fill-rule="evenodd" stroke="none"/>
    <path d="M-0.35 -17.3 Q-0.6 -16.3 -2.05 -15.05 -3.5 -13.8 -5.25 -13.8 L-10.25 -13.8 -10.4 -13.8 -11.3 -13.9 Q-12.4 -14.2 -13.25 -15.05 -14.3 -16.1 -14.45 -17.55 L-0.35 -17.3" fill="#909090" fill-rule="evenodd" stroke="none"/>
  </g>
</svg>
