<?xml version="1.0" encoding="UTF-8" standalone="no"?>
<svg xmlns:ffdec="https://www.free-decompiler.com/flash" xmlns:xlink="http://www.w3.org/1999/xlink" ffdec:objectType="shape" height="134.85px" width="76.3px" xmlns="http://www.w3.org/2000/svg">
  <g transform="matrix(1.0, 0.0, 0.0, 1.0, 34.8, 135.85)">
    <path d="M4.15 -121.1 Q6.7 -114.35 8.25 -100.45 L13.55 -53.7 Q15.5 -36.2 16.8 -27.55 17.65 -22.0 11.9 -20.25 9.7 -19.6 6.55 -19.5 L-6.1 -20.2 Q-7.2 -20.5 -7.85 -20.9 -12.2 -23.45 -12.2 -31.5 -10.5 -65.0 -9.35 -75.1 -5.15 -110.8 -3.4 -119.55 -2.5 -123.95 -1.6 -125.3 -1.0 -126.2 0.3 -126.2 2.2 -126.2 4.15 -121.1" fill="#ffffff" fill-rule="evenodd" stroke="none"/>
    <path d="M4.15 -121.1 Q2.2 -126.2 0.3 -126.2 -1.0 -126.2 -1.6 -125.3 -2.5 -123.95 -3.4 -119.55 -5.15 -110.8 -9.35 -75.1 -10.5 -65.0 -12.2 -31.5 -12.2 -23.45 -7.85 -20.9 -7.2 -20.5 -6.1 -20.2 L6.55 -19.5 Q9.7 -19.6 11.9 -20.25 17.65 -22.0 16.8 -27.55 15.5 -36.2 13.55 -53.7 L8.25 -100.45 Q6.7 -114.35 4.15 -121.1 M1.8 -131.5 Q6.0 -131.5 8.55 -121.15 13.75 -100.2 23.65 -61.6 30.85 -30.85 30.1 -20.15 30.0 -18.85 29.4 -17.8 27.15 -13.85 17.9 -13.55 L6.1 -13.2 Q-11.3 -13.2 -19.35 -15.6 -22.35 -16.5 -23.8 -17.6 -25.2 -18.7 -25.2 -20.0 -25.2 -22.45 -19.85 -49.85 -13.55 -82.15 -10.5 -107.15 -7.55 -131.5 1.8 -131.5" fill="#faf2ed" fill-rule="evenodd" stroke="none"/>
    <path d="M1.8 -131.5 Q-7.55 -131.5 -10.5 -107.15 -13.55 -82.15 -19.85 -49.85 -25.2 -22.45 -25.2 -20.0 -25.2 -18.7 -23.8 -17.6 -22.35 -16.5 -19.35 -15.6 -11.3 -13.2 6.1 -13.2 L17.9 -13.55 Q27.15 -13.85 29.4 -17.8 30.0 -18.85 30.1 -20.15 30.85 -30.85 23.65 -61.6 13.75 -100.2 8.55 -121.15 6.0 -131.5 1.8 -131.5 M0.1 -134.45 Q6.3 -134.65 9.3 -127.9 12.3 -121.15 16.9 -104.8 21.45 -88.5 30.2 -54.4 37.4 -26.3 38.65 -19.65 L38.8 -18.9 38.8 -18.85 39.95 -13.75 40.0 -14.45 40.1 -12.9 40.05 -10.05 40.05 -10.1 Q38.7 -7.05 29.6 -4.75 18.7 -2.0 3.2 -2.0 -12.3 -2.0 -23.2 -4.75 -30.65 -6.65 -32.9 -9.05 L-32.9 -9.0 -33.2 -9.4 -33.2 -9.8 -32.9 -12.35 -32.8 -13.05 -32.7 -13.1 -32.6 -13.55 Q-32.45 -14.3 -32.6 -14.35 L-31.95 -17.75 -31.95 -17.9 -31.6 -19.65 -23.9 -56.0 -14.9 -98.4 Q-13.55 -105.0 -12.2 -113.45 -10.9 -121.9 -8.5 -128.05 -6.15 -134.25 0.1 -134.45" fill="#e1bfae" fill-rule="evenodd" stroke="none"/>
    <path d="M12.75 -124.0 Q14.7 -118.85 17.6 -107.85 20.45 -96.9 21.8 -90.35 31.0 -60.25 37.25 -32.35 L40.1 -18.15 41.15 -12.1 41.45 -11.2 41.45 -10.35 41.0 -9.7 40.95 -9.7 40.6 -9.0 Q38.6 -6.0 29.85 -3.8 18.8 -1.0 3.2 -1.0 -12.4 -1.0 -23.45 -3.8 -30.85 -5.65 -33.35 -8.0 L-33.65 -8.35 Q-34.6 -9.4 -34.75 -10.5 L-34.8 -11.0 -34.55 -12.25 -34.0 -16.0 -33.3 -19.65 -32.65 -23.8 -21.2 -76.15 Q-14.8 -105.6 -13.4 -113.3 -11.3 -124.85 -9.8 -128.55 -6.8 -135.85 -0.7 -135.85 4.6 -135.85 7.7 -132.5 10.8 -129.2 12.75 -124.0 M0.1 -134.45 Q-6.15 -134.25 -8.5 -128.05 -10.9 -121.9 -12.2 -113.45 -13.55 -105.0 -14.9 -98.4 L-23.9 -56.0 -31.6 -19.65 -31.95 -17.9 -31.95 -17.75 -32.6 -14.35 Q-32.45 -14.3 -32.6 -13.55 L-32.7 -13.1 -32.8 -13.05 -32.9 -12.35 -33.2 -9.8 -33.2 -9.4 -32.9 -9.0 -32.9 -9.05 Q-30.65 -6.65 -23.2 -4.75 -12.3 -2.0 3.2 -2.0 18.7 -2.0 29.6 -4.75 38.7 -7.05 40.05 -10.1 L40.05 -10.05 40.1 -12.9 40.0 -14.45 39.95 -13.75 38.8 -18.85 38.8 -18.9 38.65 -19.65 Q37.4 -26.3 30.2 -54.4 21.45 -88.5 16.9 -104.8 12.3 -121.15 9.3 -127.9 6.3 -134.65 0.1 -134.45" fill="#6f5342" fill-rule="evenodd" stroke="none"/>
  </g>
</svg>
