<?xml version="1.0" encoding="UTF-8" standalone="no"?>
<svg xmlns:ffdec="https://www.free-decompiler.com/flash" xmlns:xlink="http://www.w3.org/1999/xlink" ffdec:objectType="shape" height="344.15px" width="105.55px" xmlns="http://www.w3.org/2000/svg">
  <g transform="matrix(1.0, 0.0, 0.0, 1.0, 61.0, 8.65)">
    <path d="M29.85 295.15 L29.85 295.05 Q27.5 297.35 19.5 298.75 L16.7 299.15 16.95 300.65 18.95 300.85 Q21.75 300.85 24.05 299.7 25.2 299.1 25.9 298.35 L25.95 298.3 28.4 296.6 29.85 295.15 M5.25 289.35 L5.3 289.35 5.2 289.0 5.25 289.35 M5.6 289.45 L5.55 289.6 5.4 289.85 5.3 289.45 5.35 289.95 5.4 290.0 5.55 289.6 5.65 289.45 6.3 289.45 6.4 289.4 6.35 289.35 5.85 288.95 5.65 289.45 5.6 289.45 M-6.3 -1.95 L-3.3 -1.95 -3.3 278.35 -2.75 278.2 Q-2.3 278.2 -2.0 278.55 L-1.95 278.55 -1.1 278.5 Q2.0 278.5 4.2 280.7 6.4 282.9 6.4 286.0 L6.3 287.45 6.9 287.55 7.25 287.7 8.05 286.9 Q14.5 280.45 18.7 272.4 L18.7 272.45 Q21.7 266.55 22.35 260.15 22.55 258.15 22.0 256.25 21.65 255.7 22.0 255.15 L22.65 254.45 22.8 254.45 23.3 254.35 23.6 254.35 Q31.05 256.45 31.25 264.75 L31.25 265.3 31.9 264.1 Q32.2 263.5 32.7 263.4 L32.8 263.35 33.2 263.35 33.25 263.35 33.6 263.4 Q34.2 263.5 34.4 264.25 38.6 271.85 33.9 277.4 L35.45 277.1 36.5 277.3 36.65 277.45 36.95 277.8 37.1 278.15 Q38.05 282.15 35.8 285.55 L35.85 285.5 Q34.05 288.3 31.4 289.55 L31.8 290.2 Q32.1 290.4 30.9 293.2 31.5 292.45 32.2 292.2 33.75 291.4 35.55 293.1 L35.55 293.15 Q37.95 295.4 37.85 297.55 37.85 302.4 35.8 304.55 L32.45 307.15 Q28.65 309.5 25.6 309.45 19.75 309.45 16.6 308.05 L16.15 309.75 Q15.45 312.1 14.45 313.95 L15.25 314.45 17.55 316.4 Q18.8 317.15 18.45 319.35 L18.4 319.7 18.2 320.3 17.65 321.9 17.55 322.05 17.4 322.3 17.25 322.45 16.9 322.7 16.65 322.85 15.75 323.25 14.9 326.3 14.65 326.85 13.3 328.5 13.25 328.55 13.05 328.8 13.0 328.9 12.95 328.95 12.45 329.5 10.65 331.45 10.6 331.45 10.05 332.0 8.15 333.65 8.1 333.65 7.35 334.15 7.4 334.1 6.7 334.55 6.45 334.65 6.35 334.8 6.15 334.85 6.05 334.9 5.8 335.05 5.65 335.15 5.0 335.35 4.65 335.4 Q3.1 335.7 2.3 334.9 L-0.05 332.95 0.05 333.0 Q-1.0 332.35 -1.0 330.8 L-1.5 330.05 -3.2 331.1 -3.15 331.1 -3.85 331.55 -6.1 332.7 -6.15 332.7 -6.95 333.0 -7.65 333.3 -7.85 333.35 -8.1 333.4 -8.3 333.5 -8.45 333.5 -9.1 333.6 -9.55 333.65 -9.65 333.65 -9.75 333.65 Q-11.45 333.65 -12.05 332.6 L-13.85 330.3 Q-14.8 329.45 -14.4 327.9 -15.9 325.0 -15.4 321.45 L-15.4 321.4 Q-14.85 318.1 -12.65 315.7 L-18.1 312.65 -23.0 309.9 Q-25.45 308.8 -28.15 308.8 -34.45 308.85 -43.15 314.65 L-49.5 318.8 Q-53.05 320.85 -55.3 320.8 -59.35 320.8 -60.5 318.05 L-60.6 317.75 -61.0 315.4 Q-61.0 312.4 -57.65 306.45 L-52.65 298.35 Q-48.0 291.0 -37.45 286.6 -35.25 285.65 -33.3 285.05 L-33.5 284.7 Q-35.75 281.3 -34.75 277.3 L-34.6 277.0 -34.35 276.6 -34.15 276.5 Q-33.7 276.15 -33.1 276.3 L-31.55 276.6 Q-36.25 271.0 -32.1 263.4 -31.9 262.7 -31.25 262.6 L-30.95 262.5 -30.75 262.5 -30.35 262.6 Q-29.9 262.7 -29.6 263.3 L-28.95 264.5 -28.95 263.85 Q-28.75 255.6 -21.3 253.55 L-21.0 253.5 -20.45 253.6 -20.3 253.65 Q-19.95 253.75 -19.65 254.35 L-19.75 254.2 Q-19.35 254.85 -19.65 255.45 -20.25 257.3 -20.05 259.3 -19.4 265.75 -16.35 271.6 L-12.3 278.25 -11.25 277.5 Q-10.5 276.95 -9.65 276.75 L-9.5 276.7 -9.35 277.75 -9.25 277.75 -9.1 277.7 -9.25 276.65 Q-8.85 276.65 -8.5 276.95 -8.25 277.15 -8.15 277.5 L-7.3 277.4 -7.15 277.4 -6.3 277.5 -6.3 -1.95" fill="#000000" fill-opacity="0.2509804" fill-rule="evenodd" stroke="none"/>
    <path d="M1.05 -8.65 L2.7 -8.65 2.7 40.55 1.05 40.55 1.05 -8.65 M1.05 204.05 L2.7 204.05 2.7 271.6 2.2 271.35 1.05 270.95 1.05 204.05" fill="#cccccc" fill-rule="evenodd" stroke="none"/>
    <path d="M1.05 -8.65 L1.05 40.55 0.4 40.55 0.4 -8.65 1.05 -8.65 M2.7 40.55 L2.7 -8.65 3.4 -8.65 3.4 40.55 2.7 40.55 M0.4 270.8 L0.4 204.05 1.05 204.05 1.05 270.95 0.4 270.8 M2.7 204.05 L3.4 204.05 3.4 271.65 3.2 271.85 3.15 271.9 2.7 271.6 2.7 204.05" fill="#707070" fill-rule="evenodd" stroke="none"/>
    <path d="M3.4 271.65 Q3.65 271.5 3.95 271.5 4.4 271.5 4.7 271.85 L4.75 271.85 5.6 271.8 Q8.7 271.8 10.9 274.0 13.1 276.2 13.1 279.3 L13.0 280.75 13.6 280.85 13.95 281.0 14.75 280.2 Q21.2 273.75 25.4 265.7 L25.4 265.75 Q28.4 259.85 29.05 253.45 29.25 251.45 28.7 249.55 28.35 249.0 28.7 248.45 L29.35 247.75 29.5 247.75 30.0 247.65 30.3 247.65 Q37.75 249.75 37.95 258.05 L37.95 258.6 38.6 257.45 Q38.9 256.8 39.4 256.7 L39.5 256.65 39.9 256.65 39.95 256.65 40.3 256.7 Q40.9 256.8 41.1 257.55 45.3 265.15 40.6 270.7 L42.15 270.45 43.2 270.6 43.35 270.75 43.65 271.1 43.8 271.45 Q44.75 275.45 42.5 278.85 L42.55 278.8 Q40.75 281.6 38.1 282.85 L38.5 283.5 Q38.75 283.7 37.6 286.5 38.2 285.75 38.9 285.5 40.45 284.7 42.25 286.4 L42.25 286.45 Q44.65 288.7 44.55 290.85 44.55 295.7 42.5 297.85 41.6 298.85 39.15 300.45 35.35 302.8 32.3 302.75 26.45 302.75 23.3 301.35 L22.85 303.05 Q22.15 305.4 21.15 307.25 L21.95 307.75 24.2 309.7 Q25.5 310.45 25.15 312.65 L25.1 313.0 24.9 313.6 24.35 315.2 24.2 315.35 24.1 315.6 23.95 315.75 23.6 316.0 23.35 316.15 22.45 316.55 21.6 319.6 21.35 320.15 20.0 321.8 19.95 321.85 19.75 322.1 19.7 322.2 19.65 322.25 19.15 322.8 17.35 324.75 17.3 324.75 16.75 325.3 14.85 326.95 14.8 326.95 14.05 327.45 14.1 327.4 13.4 327.85 13.15 327.95 13.05 328.1 12.85 328.15 12.75 328.2 12.5 328.35 12.35 328.45 11.7 328.65 11.35 328.7 Q9.8 329.0 9.0 328.2 L6.65 326.25 6.7 326.3 Q5.7 325.65 5.7 324.1 L5.15 323.35 3.5 324.4 3.55 324.4 2.85 324.85 2.85 324.9 Q1.65 325.5 0.6 326.0 L0.55 326.0 -0.25 326.3 -0.95 326.6 -1.15 326.65 -1.4 326.7 -1.6 326.8 -1.75 326.8 -2.4 326.9 -2.85 326.95 -2.95 326.95 -3.05 326.95 Q-4.75 326.95 -5.4 325.9 L-7.15 323.6 Q-8.1 322.75 -7.7 321.2 -9.2 318.3 -8.7 314.75 L-8.7 314.7 Q-8.15 311.4 -5.95 309.0 L-11.45 305.95 Q-14.7 303.9 -16.3 303.2 -18.75 302.1 -21.45 302.1 -27.8 302.15 -36.45 307.95 L-42.8 312.1 Q-46.35 314.15 -48.65 314.1 -52.65 314.1 -53.8 311.35 L-53.9 311.05 -54.3 308.7 Q-54.3 305.7 -50.95 299.75 L-45.95 291.65 Q-41.3 284.3 -30.75 279.9 -28.55 278.95 -26.6 278.35 L-26.8 278.0 Q-29.05 274.6 -28.05 270.6 L-27.9 270.3 -27.65 269.9 -27.45 269.8 -26.4 269.6 -24.85 269.9 Q-29.6 264.3 -25.4 256.7 -25.2 256.0 -24.55 255.9 L-24.25 255.8 -24.05 255.8 -23.65 255.9 Q-23.2 256.0 -22.9 256.6 L-22.25 257.8 -22.25 257.15 Q-22.05 248.95 -14.6 246.85 L-14.3 246.8 -13.75 246.9 -13.6 246.95 Q-13.25 247.05 -13.0 247.65 L-13.05 247.5 Q-12.65 248.15 -12.95 248.75 -13.55 250.6 -13.35 252.6 -12.7 259.05 -9.65 264.9 L-5.6 271.55 -4.55 270.8 Q-3.8 270.25 -2.95 270.05 L-2.8 270.0 -2.65 271.05 -3.95 271.7 -3.95 271.65 -5.1 272.6 -5.7 273.25 Q-8.45 269.55 -10.65 265.4 -13.75 259.35 -14.4 252.7 -14.65 250.45 -13.95 248.3 L-13.95 248.1 -14.1 247.9 -14.3 247.9 Q-21.0 249.75 -21.15 257.2 -21.2 259.85 -20.65 261.3 -22.45 259.9 -23.85 257.05 -23.9 256.9 -24.05 256.9 L-24.25 256.9 -24.4 257.05 Q-29.25 265.8 -21.4 271.6 L-26.6 270.65 -26.9 270.7 -27.0 270.85 Q-27.9 274.4 -25.9 277.4 L-24.75 278.9 Q-27.3 279.6 -30.35 280.85 -40.5 285.1 -45.05 292.2 L-50.05 300.25 Q-53.2 305.85 -53.2 308.7 L-52.85 310.85 Q-51.85 313.05 -48.65 313.05 -46.55 313.05 -43.35 311.15 L-37.05 307.05 Q-28.05 301.05 -21.45 301.05 -18.55 301.05 -15.85 302.2 -14.25 302.9 -10.85 305.0 -7.45 307.15 -4.1 308.7 L-3.55 308.95 Q-6.5 311.3 -7.05 315.0 -7.55 318.3 -5.9 321.0 -6.3 322.05 -5.9 322.55 L-4.1 324.95 Q-3.75 325.35 -3.05 325.35 L-2.35 325.25 -1.9 325.15 -1.5 325.0 -0.9 324.75 -0.1 324.45 2.05 323.45 2.75 323.0 4.75 321.65 5.2 321.35 4.9 320.5 Q4.5 319.35 4.4 318.15 L4.35 317.95 4.3 317.4 4.35 316.25 Q4.45 315.1 4.8 313.95 5.15 312.8 5.85 311.8 L5.95 311.65 6.5 310.9 6.65 310.7 7.9 309.45 8.5 308.9 Q10.6 307.35 13.35 307.1 L14.0 307.05 14.95 307.0 15.0 307.05 Q16.65 307.15 17.95 307.65 L19.2 308.25 Q20.85 305.95 21.8 302.75 L22.5 299.65 Q25.5 301.7 32.3 301.7 35.1 301.7 38.55 299.5 40.85 298.1 41.7 297.1 43.5 295.25 43.5 290.85 43.5 289.1 41.45 287.2 39.15 284.95 37.5 288.85 37.1 289.85 35.7 290.8 33.65 292.15 33.35 292.4 32.55 293.25 31.2 293.95 28.7 295.25 25.65 295.25 L22.95 294.9 22.65 294.85 22.05 291.55 26.05 291.0 Q35.15 289.4 36.35 286.65 L37.5 283.8 37.35 283.7 37.2 283.55 35.55 283.5 Q33.75 283.3 33.35 282.95 32.8 282.8 33.5 282.75 38.85 282.6 41.6 278.25 43.6 275.2 42.75 271.7 L42.6 271.5 42.35 271.45 37.1 272.4 Q44.95 266.65 40.1 257.9 L39.95 257.7 39.75 257.7 39.55 257.9 Q38.15 260.75 36.35 262.15 36.95 260.65 36.85 258.05 36.7 250.6 30.0 248.7 L29.8 248.75 29.65 248.95 29.65 249.15 Q30.4 251.25 30.15 253.55 29.45 260.2 26.35 266.2 22.05 274.4 15.5 281.0 L14.15 282.25 13.15 281.8 12.95 282.05 13.05 282.65 12.55 282.25 12.35 282.75 13.0 282.75 13.1 282.7 13.15 283.05 12.5 283.55 12.1 283.3 12.25 282.9 12.1 283.15 12.0 282.75 12.05 283.25 11.15 282.6 Q12.0 281.1 12.0 279.3 12.0 276.6 10.15 274.75 8.25 272.85 5.6 272.85 L4.35 273.0 3.95 272.6 Q3.15 271.8 2.2 271.35 L2.7 271.6 3.15 271.9 3.2 271.85 3.4 271.65 M-2.4 271.0 L-2.55 269.95 -1.8 270.25 Q-1.55 270.45 -1.45 270.8 L-2.4 271.0 M12.0 282.65 L11.9 282.3 11.9 281.85 11.9 281.8 11.75 281.7 11.9 282.3 11.95 282.65 12.0 282.65 M23.4 292.45 L23.65 293.95 25.65 294.15 Q28.45 294.15 30.75 293.0 L32.6 291.65 32.65 291.6 35.1 289.9 36.55 288.45 36.55 288.35 Q34.2 290.65 26.2 292.05 L23.4 292.45 M20.9 309.05 Q20.35 308.65 19.35 309.05 L19.15 308.9 Q17.4 307.75 14.95 307.6 L13.4 307.65 Q9.55 308.05 7.1 311.1 4.6 314.05 4.9 317.9 5.15 321.25 7.4 323.5 7.2 324.6 7.7 325.0 L7.75 325.05 10.05 326.95 11.1 327.1 11.8 326.85 12.2 326.65 12.55 326.45 13.15 326.05 13.8 325.55 15.65 324.1 16.25 323.5 17.9 321.75 18.45 321.15 18.8 320.75 20.05 319.15 21.1 315.35 22.75 314.65 22.8 314.55 23.35 313.15 23.5 312.45 Q23.7 311.35 23.2 310.95 L20.9 309.05" fill="#000000" fill-rule="evenodd" stroke="none"/>
    <path d="M34.35 264.0 Q36.3 261.3 36.25 258.05 36.1 251.45 30.55 249.55 L30.4 249.45 30.55 249.95 Q30.95 251.75 30.8 253.6 30.0 260.4 26.9 266.45 22.6 274.8 15.95 281.45 L14.7 282.55 14.2 283.0 13.3 283.75 13.0 283.95 11.6 284.9 11.45 284.95 10.8 285.35 8.4 286.55 6.4 287.8 Q5.35 288.65 4.75 289.9 L4.7 290.4 5.45 290.65 8.0 290.75 8.75 290.75 10.25 290.75 10.55 290.75 11.8 290.8 12.1 290.8 12.65 290.75 15.55 290.75 16.7 290.7 20.8 290.45 21.65 290.4 28.8 289.55 Q34.5 288.7 36.7 284.2 L35.45 284.15 30.8 283.15 31.7 282.7 32.5 282.3 32.55 282.25 33.5 282.15 Q38.5 282.0 41.1 277.9 42.85 275.25 42.15 272.15 L33.9 274.3 33.65 274.25 33.5 274.1 35.95 272.5 Q44.15 267.05 39.85 258.7 38.0 262.15 34.75 264.55 L34.7 264.5 34.45 264.1 34.4 264.1 34.35 264.0 M13.05 282.65 L12.95 282.05 13.15 281.8 14.15 282.25 15.5 281.0 Q22.05 274.4 26.35 266.2 29.45 260.2 30.15 253.55 30.4 251.25 29.65 249.15 L29.65 248.95 29.8 248.75 30.0 248.7 Q36.7 250.6 36.85 258.05 36.95 260.65 36.35 262.15 38.15 260.75 39.55 257.9 L39.75 257.7 39.95 257.7 40.1 257.9 Q44.95 266.65 37.1 272.4 L42.35 271.45 42.6 271.5 42.75 271.7 Q43.6 275.2 41.6 278.25 38.85 282.6 33.5 282.75 32.8 282.8 33.35 282.95 33.75 283.3 35.55 283.5 L37.2 283.55 37.35 283.7 37.5 283.8 36.35 286.65 Q35.15 289.4 26.05 291.0 L22.05 291.55 22.65 294.85 22.95 294.9 25.65 295.25 Q28.7 295.25 31.2 293.95 32.55 293.25 33.35 292.4 33.65 292.15 35.7 290.8 37.1 289.85 37.5 288.85 39.15 284.95 41.45 287.2 43.5 289.1 43.5 290.85 43.5 295.25 41.7 297.1 40.85 298.1 38.55 299.5 35.1 301.7 32.3 301.7 25.5 301.7 22.5 299.65 L21.8 302.75 Q20.85 305.95 19.2 308.25 L17.95 307.65 18.3 307.15 Q20.2 304.2 21.4 298.7 L21.7 296.25 21.75 296.05 21.75 294.65 Q21.65 293.1 21.2 291.6 L16.75 291.85 Q16.7 292.95 16.1 294.2 L14.1 295.3 14.9 296.15 Q17.65 299.2 16.85 303.0 15.5 304.3 12.75 303.7 13.55 305.05 13.9 306.55 L14.0 307.05 13.35 307.1 Q10.6 307.35 8.5 308.9 L7.8 308.8 7.9 309.45 6.65 310.7 6.5 310.9 6.5 310.85 6.45 307.9 8.7 307.6 12.7 307.1 11.15 303.1 16.05 301.7 12.15 295.2 Q12.8 294.4 13.8 294.05 15.35 293.45 16.25 292.2 L16.1 291.85 8.3 291.55 5.4 291.3 5.35 291.3 Q4.5 291.2 4.2 290.8 3.8 290.4 4.15 289.65 L4.2 289.65 Q4.9 288.25 6.05 287.3 6.95 286.5 8.15 286.0 L10.95 284.55 12.5 283.55 13.15 283.05 13.1 282.7 13.05 282.65 M25.25 296.5 L22.7 296.15 22.7 297.5 23.8 298.35 Q26.65 300.25 31.55 300.25 34.75 300.25 38.45 298.35 42.4 296.35 42.4 294.15 L42.25 291.15 Q41.9 290.0 40.05 287.65 38.4 290.05 35.85 292.2 30.8 296.5 25.25 296.5 M5.3 312.3 L5.45 312.15 5.5 312.15 5.85 311.8 Q5.15 312.8 4.8 313.95 L4.45 313.95 4.75 313.15 5.3 312.3 M-24.75 278.9 L-25.9 277.4 Q-27.9 274.4 -27.0 270.85 L-26.9 270.7 -26.6 270.65 -21.4 271.6 Q-29.25 265.8 -24.4 257.05 L-24.25 256.9 -24.05 256.9 Q-23.9 256.9 -23.85 257.05 -22.45 259.9 -20.65 261.3 -21.2 259.85 -21.15 257.2 -21.0 249.75 -14.3 247.9 L-14.1 247.9 -13.95 248.1 -13.95 248.3 Q-14.65 250.45 -14.4 252.7 -13.75 259.35 -10.65 265.4 -8.45 269.55 -5.7 273.25 L-6.1 273.8 Q-8.95 269.95 -11.15 265.65 -14.3 259.55 -15.05 252.8 -15.25 250.9 -14.8 249.1 L-14.7 248.65 -14.8 248.7 Q-20.4 250.6 -20.55 257.25 -20.6 260.5 -18.65 263.2 L-18.75 263.3 -19.0 263.65 -19.05 263.75 Q-22.3 261.3 -24.15 257.85 -28.4 266.2 -20.2 271.7 L-17.8 273.25 -17.95 273.4 -18.15 273.45 -26.45 271.35 Q-27.15 274.4 -25.4 277.1 L-24.05 278.75 -24.75 278.9" fill="#233f11" fill-rule="evenodd" stroke="none"/>
    <path d="M34.35 264.0 L34.4 264.1 34.45 264.1 34.7 264.5 34.75 264.55 Q36.05 266.25 36.3 268.1 36.6 270.2 34.25 273.0 L31.75 275.75 34.4 274.8 38.15 273.25 38.35 273.25 38.55 273.4 38.6 273.55 38.95 276.0 38.2 278.15 Q37.35 280.2 32.55 282.25 L32.5 282.3 31.7 282.7 30.8 283.15 30.4 283.3 29.45 283.6 Q29.9 286.0 29.15 287.25 28.25 288.85 24.85 289.3 L21.15 289.15 20.95 289.1 20.95 289.05 19.85 288.6 18.2 287.95 17.45 287.65 17.0 287.5 16.95 287.4 16.85 287.3 Q16.8 287.15 16.9 287.05 L17.0 286.9 17.25 286.9 18.45 287.35 Q18.45 287.65 19.4 287.95 L20.6 288.2 22.7 288.45 Q26.95 288.95 28.65 286.9 L28.9 286.0 28.45 284.2 21.4 285.0 21.2 284.95 21.05 284.7 21.1 284.65 21.1 284.6 21.15 284.5 21.35 284.4 23.8 284.1 27.3 283.5 30.0 282.75 30.15 282.7 30.45 282.6 31.45 282.15 32.2 281.75 Q37.25 280.15 38.3 275.95 L38.05 274.05 37.85 274.1 36.45 274.65 34.55 275.4 32.2 276.3 31.0 276.75 30.9 276.8 30.9 277.0 30.65 278.7 Q30.3 279.75 28.4 281.45 L28.35 281.5 Q27.0 282.55 25.45 283.0 L23.85 283.15 23.0 283.2 Q24.8 282.9 26.65 281.5 28.9 279.75 29.65 278.6 30.3 277.6 30.25 276.9 30.1 276.0 29.1 274.65 L28.3 273.75 28.25 273.7 28.2 273.65 23.35 278.15 18.8 282.2 18.55 282.4 18.5 282.2 18.65 282.0 18.7 281.9 23.7 277.25 27.9 273.05 28.05 272.95 Q28.1 272.85 28.2 272.9 L28.35 273.0 28.6 273.2 30.25 268.75 Q31.75 264.35 31.55 262.2 L31.6 261.95 31.85 261.8 32.05 261.9 33.65 263.25 33.9 263.5 33.95 263.6 34.35 264.0 M7.9 309.45 L7.8 308.8 8.5 308.9 7.9 309.45 M14.0 307.05 L13.9 306.55 Q13.55 305.05 12.75 303.7 15.5 304.3 16.85 303.0 17.65 299.2 14.9 296.15 L14.1 295.3 16.1 294.2 Q16.7 292.95 16.75 291.85 L21.2 291.6 Q21.65 293.1 21.75 294.65 L21.75 296.05 21.7 296.25 21.4 298.7 Q20.2 304.2 18.3 307.15 L17.95 307.65 Q16.65 307.15 15.0 307.05 L14.95 307.0 14.0 307.05 M31.4 274.8 L32.1 274.2 34.65 271.55 Q35.95 269.95 35.7 268.2 35.45 266.45 34.2 264.85 L33.95 264.5 32.2 262.8 Q32.2 265.0 30.8 268.95 L29.35 272.9 29.1 273.55 29.05 273.65 29.6 274.3 30.65 276.05 30.95 275.6 30.8 275.45 30.8 275.4 30.95 275.25 31.4 274.8 M18.8 282.55 L18.75 282.55 19.05 282.45 18.8 282.55 M25.25 296.5 Q30.8 296.5 35.85 292.2 38.4 290.05 40.05 287.65 41.9 290.0 42.25 291.15 L42.4 294.15 Q42.4 296.35 38.45 298.35 34.75 300.25 31.55 300.25 26.65 300.25 23.8 298.35 L22.7 297.5 22.7 296.15 25.25 296.5 M37.5 293.75 L35.95 295.0 Q34.5 295.9 33.5 296.15 L29.5 296.95 Q28.3 297.15 28.3 297.85 28.3 298.35 28.55 298.5 L31.95 298.85 Q35.95 298.85 38.75 295.65 40.95 293.15 40.95 291.55 40.95 288.95 39.45 290.7 38.5 291.8 37.5 293.75 M-18.65 263.2 L-18.25 262.75 -18.15 262.65 -17.95 262.45 -16.3 261.05 -16.15 261.0 -15.9 261.15 Q-15.8 261.2 -15.85 261.35 -16.05 263.5 -14.5 267.95 L-12.9 272.35 -12.85 272.35 -12.65 272.15 -12.5 272.1 -12.35 272.1 -12.2 272.25 -7.95 276.45 -7.0 277.4 -6.95 277.95 -7.65 277.35 -12.5 272.85 -12.55 272.85 -12.6 272.95 -13.35 273.85 Q-14.4 275.2 -14.55 276.1 -14.6 276.75 -13.95 277.75 L-13.9 277.85 -14.95 277.85 Q-15.25 276.9 -15.15 276.15 L-15.15 275.95 -15.3 275.95 -16.45 275.45 -18.85 274.55 -20.7 273.85 -22.1 273.25 -22.35 273.2 -22.35 273.25 -22.6 275.15 Q-22.15 276.85 -21.0 278.2 L-21.85 278.3 -22.5 277.35 -23.25 275.2 -22.9 272.75 -22.85 272.55 -22.65 272.45 -22.45 272.45 -18.65 273.95 -16.05 274.95 -18.55 272.15 Q-20.85 269.4 -20.55 267.3 -20.3 265.4 -19.05 263.75 L-19.0 263.65 -18.75 263.3 -18.65 263.2 M-13.65 272.1 L-15.1 268.1 Q-16.45 264.15 -16.5 261.95 L-18.25 263.65 -18.25 263.7 -18.5 264.0 Q-19.75 265.65 -19.95 267.35 -20.2 269.15 -18.9 270.7 L-16.35 273.4 -15.7 274.0 -15.25 274.4 -15.1 274.55 -15.1 274.6 -15.25 274.75 -14.95 275.2 -13.9 273.5 -13.35 272.85 -13.4 272.75 -13.65 272.1" fill="#3a691c" fill-rule="evenodd" stroke="none"/>
    <path d="M8.75 290.75 L8.0 290.75 5.45 290.65 4.7 290.4 4.75 289.9 Q5.35 288.65 6.4 287.8 L8.4 286.55 10.8 285.35 11.45 284.95 11.6 284.9 13.0 283.95 13.3 283.75 14.2 283.0 14.7 282.55 15.95 281.45 Q22.6 274.8 26.9 266.45 30.0 260.4 30.8 253.6 30.95 251.75 30.55 249.95 31.85 250.8 32.85 252.05 34.4 254.05 34.7 256.2 35.15 259.35 34.45 261.7 L34.25 261.6 34.1 261.5 33.9 261.65 Q34.15 262.35 33.65 263.25 L32.05 261.9 31.85 261.8 31.6 261.95 31.55 262.2 Q31.75 264.35 30.25 268.75 L28.6 273.2 28.35 273.0 28.2 272.9 Q28.1 272.85 28.05 272.95 L27.9 273.05 23.7 277.25 18.7 281.9 18.65 282.0 18.5 282.2 18.55 282.4 18.8 282.2 23.35 278.15 28.2 273.65 28.25 273.7 28.3 273.75 29.1 274.65 Q30.1 276.0 30.25 276.9 30.3 277.6 29.65 278.6 28.9 279.75 26.65 281.5 24.8 282.9 23.0 283.2 L23.85 283.15 25.45 283.0 26.9 282.85 26.95 282.85 27.95 282.9 29.15 282.9 30.15 282.7 30.0 282.75 27.3 283.5 Q25.9 283.3 25.0 283.5 L23.8 284.1 21.35 284.4 21.15 284.5 21.1 284.6 21.05 284.6 21.05 284.7 21.2 284.95 21.4 285.0 25.95 285.7 28.9 286.0 28.65 286.9 Q26.95 288.95 22.7 288.45 L20.6 288.2 19.4 287.95 Q18.45 287.65 18.45 287.35 L17.25 286.9 17.0 286.9 16.9 287.05 Q16.8 287.15 16.85 287.3 L16.95 287.4 15.45 288.1 14.15 288.7 12.1 289.5 8.75 290.75 M30.9 277.0 L30.9 276.8 31.0 276.75 30.9 277.0 M32.2 276.3 L34.55 275.4 36.45 274.65 36.65 275.9 Q36.8 277.25 36.2 278.25 34.9 280.6 29.9 281.85 31.0 281.0 31.65 279.7 32.45 278.0 32.2 276.55 L32.2 276.3 M29.35 272.9 L30.8 268.95 Q32.2 265.0 32.2 262.8 L33.95 264.5 34.2 264.85 Q35.45 266.45 35.7 268.2 35.95 269.95 34.65 271.55 L32.1 274.2 31.4 274.8 Q31.05 273.75 30.0 273.05 L29.35 272.9 M18.8 282.55 L19.05 282.45 18.75 282.55 18.8 282.55 M-17.95 262.45 Q-18.45 261.55 -18.15 260.85 L-18.4 260.65 -18.5 260.75 -18.75 260.9 Q-19.4 258.55 -19.0 255.35 -18.7 253.2 -17.15 251.25 -16.15 249.95 -14.8 249.1 -15.25 250.9 -15.05 252.8 -14.3 259.55 -11.15 265.65 -8.95 269.95 -6.1 273.8 L-6.25 274.05 -6.3 274.15 Q-7.0 275.5 -7.0 277.1 L-7.0 277.4 -7.95 276.45 -12.2 272.25 -12.35 272.1 -12.5 272.1 -12.65 272.15 -12.85 272.35 -12.9 272.35 -14.5 267.95 Q-16.05 263.5 -15.85 261.35 -15.8 261.2 -15.9 261.15 L-16.15 261.0 -16.3 261.05 -17.95 262.45 M-15.7 274.0 L-16.35 273.4 -18.9 270.7 Q-20.2 269.15 -19.95 267.35 -19.75 265.65 -18.5 264.0 L-18.25 263.7 -18.25 263.65 -16.5 261.95 Q-16.45 264.15 -15.1 268.1 L-13.65 272.1 -14.3 272.25 Q-15.35 272.95 -15.7 274.0 M-20.7 273.85 L-18.85 274.55 -16.45 275.45 -16.5 275.7 Q-16.65 276.75 -16.3 277.8 L-16.85 277.8 -18.4 278.0 -18.4 278.1 -20.0 278.1 -20.5 277.4 Q-21.1 276.4 -20.95 275.05 L-20.7 273.85 M-15.3 275.95 L-15.15 275.95 -15.15 276.15 -15.3 275.95 M-13.9 277.85 L-13.95 277.75 Q-14.6 276.75 -14.55 276.1 -14.4 275.2 -13.35 273.85 L-12.6 272.95 -12.55 272.85 -12.5 272.85 -7.65 277.35 -6.95 277.95 -6.9 278.4 -12.35 277.85 -13.9 277.85" fill="#63b42e" fill-rule="evenodd" stroke="none"/>
    <path d="M30.55 249.95 L30.4 249.45 30.55 249.55 Q36.1 251.45 36.25 258.05 36.3 261.3 34.35 264.0 L33.95 263.6 33.9 263.5 33.65 263.25 Q34.15 262.35 33.9 261.65 L34.1 261.5 34.25 261.6 34.45 261.7 Q35.15 259.35 34.7 256.2 34.4 254.05 32.85 252.05 31.85 250.8 30.55 249.95 M34.75 264.55 Q38.0 262.15 39.85 258.7 44.15 267.05 35.95 272.5 L33.5 274.1 33.65 274.25 33.9 274.3 42.15 272.15 Q42.85 275.25 41.1 277.9 38.5 282.0 33.5 282.15 L32.55 282.25 Q37.35 280.2 38.2 278.15 L38.95 276.0 38.6 273.55 38.55 273.4 38.35 273.25 38.15 273.25 34.4 274.8 31.75 275.75 34.25 273.0 Q36.6 270.2 36.3 268.1 36.05 266.25 34.75 264.55 M30.8 283.15 L35.45 284.15 36.7 284.2 Q34.5 288.7 28.8 289.55 L21.65 290.4 20.8 290.45 16.7 290.7 15.55 290.75 12.65 290.75 12.1 290.8 11.8 290.8 10.55 290.75 10.25 290.75 8.75 290.75 12.1 289.5 14.15 288.7 15.45 288.1 16.95 287.4 17.0 287.5 17.45 287.65 18.2 287.95 19.85 288.6 20.95 289.05 20.95 289.1 21.15 289.15 24.85 289.3 Q28.25 288.85 29.15 287.25 29.9 286.0 29.45 283.6 L30.4 283.3 30.8 283.15 M25.45 283.0 Q27.0 282.55 28.35 281.5 L28.4 281.45 Q30.3 279.75 30.65 278.7 L30.9 277.0 31.0 276.75 32.2 276.3 32.2 276.55 Q32.45 278.0 31.65 279.7 31.0 281.0 29.9 281.85 34.9 280.6 36.2 278.25 36.8 277.25 36.65 275.9 L36.45 274.65 37.85 274.1 38.05 274.05 38.3 275.95 Q37.25 280.15 32.2 281.75 L31.45 282.15 30.45 282.6 30.15 282.7 29.15 282.9 27.95 282.9 26.95 282.85 26.9 282.85 25.45 283.0 M27.3 283.5 L23.8 284.1 25.0 283.5 Q25.9 283.3 27.3 283.5 M21.1 284.6 L21.1 284.65 21.05 284.7 21.05 284.6 21.1 284.6 M21.4 285.0 L28.45 284.2 28.9 286.0 25.95 285.7 21.4 285.0 M31.4 274.8 L30.95 275.25 30.8 275.4 30.8 275.45 30.95 275.6 30.65 276.05 29.6 274.3 29.05 273.65 29.1 273.55 29.35 272.9 30.0 273.05 Q31.05 273.75 31.4 274.8 M37.5 293.75 Q38.5 291.8 39.45 290.7 40.95 288.95 40.95 291.55 40.95 293.15 38.75 295.65 35.95 298.85 31.95 298.85 L28.55 298.5 Q28.3 298.35 28.3 297.85 28.3 297.15 29.5 296.95 L33.5 296.15 Q34.5 295.9 35.95 295.0 L37.5 293.75 M-18.65 263.2 Q-20.6 260.5 -20.55 257.25 -20.4 250.6 -14.8 248.7 L-14.7 248.65 -14.8 249.1 Q-16.15 249.95 -17.15 251.25 -18.7 253.2 -19.0 255.35 -19.4 258.55 -18.75 260.9 L-18.5 260.75 -18.4 260.65 -18.15 260.85 Q-18.45 261.55 -17.95 262.45 L-18.15 262.65 -18.25 262.75 -18.65 263.2 M-15.7 274.0 Q-15.35 272.95 -14.3 272.25 L-13.65 272.1 -13.4 272.75 -13.35 272.85 -13.9 273.5 -14.95 275.2 -15.25 274.75 -15.1 274.6 -15.1 274.55 -15.25 274.4 -15.7 274.0 M-19.05 263.75 Q-20.3 265.4 -20.55 267.3 -20.85 269.4 -18.55 272.15 L-16.05 274.95 -18.65 273.95 -22.45 272.45 -22.65 272.45 -22.85 272.55 -22.9 272.75 -23.25 275.2 -22.5 277.35 -21.85 278.3 -24.05 278.75 -25.4 277.1 Q-27.15 274.4 -26.45 271.35 L-18.15 273.45 -17.95 273.4 -17.8 273.25 -20.2 271.7 Q-28.4 266.2 -24.15 257.85 -22.3 261.3 -19.05 263.75 M-21.0 278.2 Q-22.15 276.85 -22.6 275.15 L-22.35 273.25 -22.35 273.2 -22.1 273.25 -20.7 273.85 -20.95 275.05 Q-21.1 276.4 -20.5 277.4 L-20.0 278.1 -21.0 278.2 M-16.45 275.45 L-15.3 275.95 -15.15 276.15 Q-15.25 276.9 -14.95 277.85 L-16.3 277.8 Q-16.65 276.75 -16.5 275.7 L-16.45 275.45" fill="#4f9125" fill-rule="evenodd" stroke="none"/>
    <path d="M-2.65 271.05 L-2.55 271.05 -2.4 271.0 -1.45 270.8 -0.6 270.7 -0.45 270.7 0.4 270.8 1.05 270.95 2.2 271.35 Q3.15 271.8 3.95 272.6 L4.35 273.0 5.6 272.85 Q8.25 272.85 10.15 274.75 12.0 276.6 12.0 279.3 12.0 281.1 11.15 282.6 L12.05 283.25 12.1 283.3 12.5 283.55 10.95 284.55 10.0 283.95 8.65 284.95 8.6 285.0 8.55 285.05 8.2 285.25 7.8 285.35 7.75 285.35 7.65 285.35 5.6 285.7 3.9 285.5 Q2.3 285.05 1.05 283.8 L0.75 283.45 Q-0.45 282.15 -0.7 280.45 L-2.85 280.1 -5.25 279.75 -6.55 279.6 -12.6 279.2 -12.65 279.2 -13.1 279.55 -13.85 279.5 -15.65 279.4 -17.6 279.35 -18.45 279.4 -19.65 279.45 -20.5 279.5 -22.85 279.8 -23.65 279.95 Q-35.65 282.1 -44.15 293.25 -47.65 297.85 -50.05 303.25 -51.85 307.35 -51.85 308.65 -51.85 309.7 -51.45 310.3 -50.95 311.15 -49.65 311.4 -49.5 311.1 -45.5 308.7 L-37.55 303.85 Q-33.0 300.9 -31.45 300.15 -27.65 298.3 -22.25 297.3 -16.45 297.85 -12.7 299.1 -11.0 299.65 -6.4 301.9 L-3.85 303.75 -1.8 305.2 1.25 306.35 2.7 306.7 3.45 306.85 5.0 307.15 7.25 307.5 8.7 307.6 6.45 307.9 6.5 310.85 6.5 310.9 5.95 311.65 5.8 311.65 4.2 311.65 2.35 311.2 0.65 310.6 -2.05 309.6 -3.0 309.2 -3.55 308.95 -4.1 308.7 Q-7.45 307.15 -10.85 305.0 -14.25 302.9 -15.85 302.2 -18.55 301.05 -21.45 301.05 -28.05 301.05 -37.05 307.05 L-43.35 311.15 Q-46.55 313.05 -48.65 313.05 -51.85 313.05 -52.85 310.85 L-53.2 308.7 Q-53.2 305.85 -50.05 300.25 L-45.05 292.2 Q-40.5 285.1 -30.35 280.85 -27.3 279.6 -24.75 278.9 L-24.05 278.75 -21.85 278.3 -21.0 278.2 -20.0 278.1 -18.4 278.1 -18.4 278.0 -16.85 277.8 -16.3 277.8 -14.95 277.85 -13.9 277.85 -12.35 277.85 -6.9 278.4 -6.95 277.95 -7.0 277.4 -7.0 277.1 Q-7.0 275.5 -6.3 274.15 L-6.25 274.05 -6.1 273.8 -5.7 273.25 -5.1 272.6 -3.95 271.65 -3.95 271.7 -2.65 271.05 M8.2 277.9 L8.8 278.9 8.8 278.95 9.45 281.6 9.5 282.4 9.5 282.95 10.2 282.0 Q10.95 280.8 10.95 279.3 10.95 277.05 9.4 275.5 L9.3 275.45 8.85 275.05 Q7.5 273.95 5.6 273.95 L5.05 274.0 4.0 274.2 3.95 274.25 2.8 274.75 2.2 275.2 Q1.95 275.3 1.85 275.5 L1.55 275.8 2.05 275.75 4.6 275.85 5.75 276.15 Q7.25 276.65 8.2 277.9 M2.5 273.65 L3.2 273.35 3.1 273.25 2.65 272.85 Q1.3 271.8 -0.6 271.8 L-2.2 272.05 -2.25 272.1 -3.4 272.6 -4.35 273.35 -4.6 273.65 Q-0.95 273.25 1.05 274.8 L1.05 274.75 Q1.6 274.15 2.25 273.8 L2.2 273.85 2.5 273.65 M1.5 276.85 L1.45 276.85 1.25 276.9 0.85 277.0 0.8 277.0 Q0.3 278.0 0.3 279.3 L0.45 280.65 Q0.8 282.0 1.85 283.05 3.35 284.6 5.6 284.6 L7.35 284.35 7.5 284.35 8.0 284.05 8.4 283.15 8.4 282.4 8.3 281.1 8.15 280.4 7.85 279.4 Q7.15 278.0 5.8 277.4 L4.75 277.0 2.6 276.8 1.5 276.85 M-4.55 274.7 L-4.6 274.7 -4.7 274.7 -4.95 274.75 -5.35 274.8 -5.4 274.8 Q-5.9 275.85 -5.9 277.1 L-5.75 278.5 -3.9 278.7 -0.8 279.15 Q-0.75 277.6 -0.1 276.35 L-0.05 276.2 0.3 275.65 Q-1.4 274.35 -4.55 274.7" fill="#5b100e" fill-rule="evenodd" stroke="none"/>
    <path d="M10.95 284.55 L8.15 286.0 Q6.95 286.5 6.05 287.3 5.45 286.45 4.55 285.95 L3.9 285.5 5.6 285.7 7.65 285.35 7.75 285.35 7.8 285.35 8.2 285.25 8.55 285.05 8.6 285.0 8.65 284.95 10.0 283.95 10.95 284.55 M8.3 291.55 L16.1 291.85 16.25 292.2 Q15.35 293.45 13.8 294.05 12.8 294.4 12.15 295.2 L16.05 301.7 11.15 303.1 12.7 307.1 8.7 307.6 7.25 307.5 5.0 307.15 3.45 306.85 2.7 306.7 1.25 306.35 -1.8 305.2 -3.85 303.75 -6.4 301.9 Q-11.0 299.65 -12.7 299.1 -16.45 297.85 -22.25 297.3 -27.65 298.3 -31.45 300.15 -33.0 300.9 -37.55 303.85 L-45.5 308.7 Q-49.5 311.1 -49.65 311.4 -50.95 311.15 -51.45 310.3 -51.85 309.7 -51.85 308.65 -51.85 307.35 -50.05 303.25 -47.65 297.85 -44.15 293.25 -35.65 282.1 -23.65 279.95 L-22.85 279.8 -20.5 279.5 -19.65 279.45 -18.45 279.4 -17.6 279.35 -15.65 279.4 -13.85 279.5 -13.1 279.55 -12.65 279.2 -12.6 279.2 -6.55 279.6 -5.25 279.75 -2.85 280.1 -0.7 280.45 Q-0.45 282.15 0.75 283.45 L0.65 283.45 Q0.05 283.15 -0.65 283.0 L-4.05 282.55 -8.4 282.1 -10.2 281.9 -10.55 281.9 -15.45 281.45 -17.1 281.35 -18.9 281.25 -19.4 281.2 -21.05 281.35 Q-28.55 282.15 -31.55 283.2 -33.15 283.75 -36.0 285.9 L-38.9 288.6 -42.05 291.65 Q-43.5 292.95 -46.2 298.35 -48.75 303.4 -48.75 304.0 L-48.7 304.65 Q-48.4 305.3 -47.1 305.3 -44.65 305.3 -41.15 302.35 L-37.45 298.75 Q-35.1 296.4 -26.25 292.85 L-18.3 292.8 Q-13.85 293.55 -7.85 295.25 L-4.5 296.65 Q-0.5 297.9 4.4 297.9 6.35 297.9 7.5 295.4 8.35 293.7 8.35 292.5 L8.3 291.55 M8.85 275.05 L9.3 275.45 9.4 275.5 Q10.95 277.05 10.95 279.3 10.95 280.8 10.2 282.0 L9.5 282.95 9.5 282.4 9.45 281.6 8.8 278.95 8.8 278.9 8.2 277.9 8.85 275.05 M2.65 272.85 L3.1 273.25 3.2 273.35 2.5 273.65 2.65 272.85" fill="#911b17" fill-rule="evenodd" stroke="none"/>
    <path d="M8.15 280.4 L8.3 281.1 8.4 282.4 8.4 283.15 8.0 284.05 7.5 284.35 7.35 284.35 5.6 284.6 Q3.35 284.6 1.85 283.05 0.8 282.0 0.45 280.65 L0.3 279.3 Q0.3 278.0 0.8 277.0 L0.85 277.0 1.25 276.9 1.45 276.85 1.5 276.85 1.65 276.85 1.55 277.1 1.5 277.5 1.35 277.65 Q0.8 278.2 0.8 278.95 0.8 279.75 1.35 280.35 L2.3 280.85 2.45 281.1 Q3.25 282.65 4.6 282.65 L5.9 282.6 6.25 282.3 7.35 281.3 7.75 280.85 8.15 280.4 M-3.9 278.7 L-5.75 278.5 -5.9 277.1 Q-5.9 275.85 -5.4 274.8 L-5.35 274.8 -4.95 274.75 -4.7 274.7 -4.6 274.7 -4.55 274.7 -4.55 274.8 -4.7 275.35 -4.85 275.45 Q-5.4 276.05 -5.4 276.8 -5.4 277.6 -4.85 278.15 L-3.95 278.65 -3.9 278.7" fill="#cbcbcb" fill-rule="evenodd" stroke="none"/>
    <path d="M1.5 276.85 L2.6 276.8 4.75 277.0 5.8 277.4 Q7.15 278.0 7.85 279.4 L8.15 280.4 7.75 280.85 7.35 281.3 6.25 282.3 5.9 282.6 4.6 282.65 Q3.25 282.65 2.45 281.1 L2.3 280.85 2.7 280.85 Q3.5 280.85 4.0 280.35 4.6 279.75 4.6 278.95 4.6 278.2 4.0 277.65 3.5 277.1 2.7 277.1 2.0 277.1 1.5 277.5 L1.55 277.1 1.65 276.85 1.5 276.85 M-4.55 274.7 Q-1.4 274.35 0.3 275.65 L-0.05 276.2 -0.1 276.35 Q-0.75 277.6 -0.8 279.15 L-3.9 278.7 -3.95 278.65 -3.5 278.7 Q-2.7 278.7 -2.15 278.15 -1.6 277.6 -1.6 276.8 -1.6 276.05 -2.15 275.45 -2.7 274.95 -3.5 274.95 -4.2 274.95 -4.7 275.35 L-4.55 274.8 -4.55 274.7" fill="#f0f0f0" fill-rule="evenodd" stroke="none"/>
    <path d="M6.05 287.3 Q4.9 288.25 4.2 289.65 L4.15 289.65 Q3.8 290.4 4.2 290.8 4.5 291.2 5.35 291.3 L5.4 291.3 8.3 291.55 8.35 292.5 Q8.35 293.7 7.5 295.4 6.35 297.9 4.4 297.9 -0.5 297.9 -4.5 296.65 L-7.85 295.25 Q-13.85 293.55 -18.3 292.8 L-26.25 292.85 Q-35.1 296.4 -37.45 298.75 L-41.15 302.35 Q-44.65 305.3 -47.1 305.3 -48.4 305.3 -48.7 304.65 L-48.75 304.0 Q-48.75 303.4 -46.2 298.35 -43.5 292.95 -42.05 291.65 L-38.9 288.6 -36.0 285.9 Q-33.15 283.75 -31.55 283.2 -28.55 282.15 -21.05 281.35 L-19.4 281.2 -18.9 281.25 -17.1 281.35 -15.45 281.45 -10.55 281.9 -10.2 281.9 -8.4 282.1 -4.05 282.55 -0.65 283.0 Q0.05 283.15 0.65 283.45 L0.75 283.45 1.05 283.8 Q2.3 285.05 3.9 285.5 L4.55 285.95 Q5.45 286.45 6.05 287.3 M8.2 277.9 Q7.25 276.65 5.75 276.15 L4.6 275.85 2.05 275.75 1.55 275.8 1.85 275.5 Q1.95 275.3 2.2 275.2 L2.8 274.75 3.95 274.25 4.0 274.2 5.05 274.0 5.6 273.95 Q7.5 273.95 8.85 275.05 L8.2 277.9 M2.5 273.65 L2.2 273.85 2.25 273.8 Q1.6 274.15 1.05 274.75 L1.05 274.8 Q-0.95 273.25 -4.6 273.65 L-4.35 273.35 -3.4 272.6 -2.25 272.1 -2.2 272.05 -0.6 271.8 Q1.3 271.8 2.65 272.85 L2.5 273.65 M1.65 290.0 L1.65 289.95 Q1.6 288.1 -2.15 287.0 L-2.9 286.75 -4.7 286.4 Q-11.05 285.2 -11.05 287.05 L-10.95 287.4 -10.0 288.3 -8.35 289.35 -8.05 289.45 Q-7.5 289.6 -5.8 290.5 L-5.1 290.8 -2.55 291.35 -0.1 291.0 0.4 290.85 Q1.65 290.4 1.65 290.0 M-36.35 292.3 L-36.4 292.0 -36.5 291.95 -37.5 292.2 Q-38.1 292.5 -38.1 292.9 -38.1 293.5 -37.4 293.5 -36.9 293.5 -36.65 293.15 -36.35 292.8 -36.35 292.3 M-34.3 289.1 L-34.2 289.55 Q-33.95 289.9 -33.3 289.9 L-31.75 289.35 Q-30.55 288.7 -30.05 288.6 L-24.1 287.3 -19.95 286.75 -18.9 286.65 -18.5 286.55 Q-14.65 285.9 -14.0 285.1 -14.4 284.75 -15.45 284.55 L-17.6 284.05 -22.65 284.05 Q-26.9 284.35 -30.55 285.85 -34.3 287.45 -34.3 289.1 M-14.85 290.05 Q-14.3 289.85 -14.2 289.35 L-14.15 289.05 Q-14.15 288.6 -14.6 288.45 L-15.05 288.3 -16.2 288.3 -17.1 288.45 Q-18.3 288.75 -18.3 289.65 -18.3 290.2 -17.05 290.2 L-14.85 290.05 M-42.6 300.3 Q-40.65 298.6 -40.65 297.35 -40.65 294.5 -43.25 296.95 L-45.9 300.1 -45.8 300.95 Q-45.65 301.8 -44.95 301.8 -44.35 301.8 -42.6 300.3" fill="#c42924" fill-rule="evenodd" stroke="none"/>
    <path d="M19.35 309.05 L20.3 309.75 20.45 309.95 20.55 310.45 20.25 311.75 19.75 312.9 Q18.45 315.4 16.0 318.45 13.5 321.4 11.25 323.2 L11.0 323.35 10.8 323.55 10.7 323.55 9.9 324.1 9.8 324.1 9.65 324.25 9.5 324.25 9.35 324.35 9.3 324.35 8.3 324.35 8.25 324.3 7.4 323.5 Q5.15 321.25 4.9 317.9 4.6 314.05 7.1 311.1 9.55 308.05 13.4 307.65 L14.95 307.6 Q17.4 307.75 19.15 308.9 L19.35 309.05 M-3.0 309.2 L-3.05 309.25 Q-6.4 311.8 -6.75 315.55 -6.95 318.35 -5.95 319.65 -5.25 320.6 -3.05 320.25 -0.3 319.85 2.9 317.4 L4.35 316.25 4.3 317.4 3.65 317.95 Q0.55 320.35 -2.05 321.55 L-2.35 321.65 -2.6 321.75 -2.6 321.8 -3.6 322.15 -3.65 322.15 -3.85 322.2 -4.0 322.2 -4.2 322.3 -4.2 322.25 -5.2 322.0 -5.9 321.0 Q-7.55 318.3 -7.05 315.0 -6.5 311.3 -3.55 308.95 L-3.0 309.2 M5.35 318.4 Q5.8 321.15 7.05 322.2 L10.0 322.15 Q12.55 321.15 15.15 318.05 18.45 314.05 19.1 312.0 19.6 310.45 18.6 309.65 17.25 308.55 14.45 308.3 10.35 307.9 7.5 311.35 4.8 314.65 5.35 318.4" fill="#332119" fill-rule="evenodd" stroke="none"/>
    <path d="M5.5 312.15 L5.45 312.15 5.3 312.3 -0.05 316.75 Q-2.5 318.6 -3.85 318.85 -4.6 318.9 -5.0 318.35 -6.8 316.1 -4.9 312.95 -3.85 311.15 -2.05 309.6 L0.65 310.6 0.8 311.05 Q1.1 311.35 1.55 311.45 L2.3 311.25 2.35 311.2 4.2 311.65 5.8 311.65 5.5 312.15 M9.35 313.3 Q8.5 313.65 7.8 314.45 7.1 315.35 6.95 316.25 6.8 317.05 7.25 317.45 L8.55 317.55 Q9.4 317.2 10.1 316.35 10.8 315.5 10.95 314.65 11.1 313.75 10.65 313.35 L9.35 313.3 M9.25 310.7 Q10.15 309.6 12.6 309.3 15.25 308.95 16.7 310.15 17.35 310.65 16.4 312.3 15.4 314.05 12.1 318.05 10.15 320.45 8.9 320.9 L7.6 320.75 Q5.45 318.95 6.55 315.45 7.35 313.05 9.25 310.7 M13.4 311.4 L13.05 310.7 12.25 310.45 Q11.85 310.45 11.6 310.8 11.3 311.15 11.35 311.6 L11.75 312.3 Q12.05 312.6 12.5 312.5 12.9 312.5 13.15 312.15 L13.4 311.4 M-0.45 311.85 Q-0.85 311.35 -1.75 311.5 -2.6 311.6 -3.45 312.3 -4.35 312.95 -4.7 313.8 -5.05 314.6 -4.65 315.1 -4.25 315.6 -3.4 315.5 -2.55 315.3 -1.65 314.65 -0.8 313.95 -0.45 313.15 -0.05 312.35 -0.45 311.85" fill="#56382a" fill-rule="evenodd" stroke="none"/>
    <path d="M2.35 311.2 L2.3 311.25 1.55 311.45 Q1.1 311.35 0.8 311.05 L0.65 310.6 2.35 311.2 M9.35 313.3 L10.65 313.35 Q11.1 313.75 10.95 314.65 10.8 315.5 10.1 316.35 9.4 317.2 8.55 317.55 L7.25 317.45 Q6.8 317.05 6.95 316.25 7.1 315.35 7.8 314.45 8.5 313.65 9.35 313.3 M13.4 311.4 L13.15 312.15 Q12.9 312.5 12.5 312.5 12.05 312.6 11.75 312.3 L11.35 311.6 Q11.3 311.15 11.6 310.8 11.85 310.45 12.25 310.45 L13.05 310.7 13.4 311.4 M-0.45 311.85 Q-0.05 312.35 -0.45 313.15 -0.8 313.95 -1.65 314.65 -2.55 315.3 -3.4 315.5 -4.25 315.6 -4.65 315.1 -5.05 314.6 -4.7 313.8 -4.35 312.95 -3.45 312.3 -2.6 311.6 -1.75 311.5 -0.85 311.35 -0.45 311.85" fill="#694434" fill-rule="evenodd" stroke="none"/>
    <path d="M5.5 312.15 L5.8 311.65 5.95 311.65 5.85 311.8 5.5 312.15 M-2.05 309.6 Q-3.85 311.15 -4.9 312.95 -6.8 316.1 -5.0 318.35 -4.6 318.9 -3.85 318.85 -2.5 318.6 -0.05 316.75 L5.3 312.3 4.75 313.15 4.45 313.95 4.8 313.95 Q4.45 315.1 4.35 316.25 L2.9 317.4 Q-0.3 319.85 -3.05 320.25 -5.25 320.6 -5.95 319.65 -6.95 318.35 -6.75 315.55 -6.4 311.8 -3.05 309.25 L-3.0 309.2 -2.05 309.6 M9.25 310.7 Q7.35 313.05 6.55 315.45 5.45 318.95 7.6 320.75 L8.9 320.9 Q10.15 320.45 12.1 318.05 15.4 314.05 16.4 312.3 17.35 310.65 16.7 310.15 15.25 308.95 12.6 309.3 10.15 309.6 9.25 310.7 M5.35 318.4 Q4.8 314.65 7.5 311.35 10.35 307.9 14.45 308.3 17.25 308.55 18.6 309.65 19.6 310.45 19.1 312.0 18.45 314.05 15.15 318.05 12.55 321.15 10.0 322.15 L7.05 322.2 Q5.8 321.15 5.35 318.4" fill="#482f23" fill-rule="evenodd" stroke="none"/>
    <path d="M20.9 309.05 L21.0 309.15 21.1 309.35 21.15 309.35 21.2 310.2 20.55 310.45 20.45 309.95 20.3 309.75 19.35 309.05 Q20.35 308.65 20.9 309.05 M21.15 310.5 Q23.3 312.05 23.2 312.8 L22.8 313.4 22.45 313.95 21.75 313.4 21.25 313.4 19.9 317.1 Q19.25 319.45 18.75 320.05 L18.05 320.8 17.75 320.55 17.2 321.15 17.45 321.4 15.7 323.05 15.5 322.95 14.95 323.5 15.1 323.65 13.95 324.75 Q13.85 324.75 13.3 325.15 13.15 325.0 12.45 325.5 L12.6 325.65 Q12.5 325.6 12.1 326.0 L10.45 324.4 13.4 322.1 16.45 318.85 19.75 314.1 Q21.15 311.7 21.15 310.5 M9.65 324.25 L9.3 324.85 9.15 325.05 Q8.2 325.4 7.75 325.05 L7.7 325.0 Q7.2 324.6 7.4 323.5 L8.25 324.3 8.3 324.35 9.3 324.35 9.35 324.35 9.5 324.25 9.65 324.25 M-5.9 321.0 L-5.2 322.0 -4.2 322.25 -4.2 322.3 -4.0 322.2 -3.85 322.2 -4.35 322.75 -4.5 322.95 Q-5.5 323.05 -5.9 322.55 -6.3 322.05 -5.9 321.0 M-3.1 322.55 Q-1.5 322.05 0.3 320.95 L4.0 318.45 4.4 318.15 Q4.5 319.35 4.9 320.5 L4.15 320.9 4.4 321.2 2.3 322.45 2.2 322.3 1.45 322.7 1.6 322.85 0.2 323.6 -0.5 323.85 -1.4 324.05 -1.3 324.2 -1.85 324.45 -1.65 324.75 -1.8 324.55 -3.1 322.55" fill="#383534" fill-rule="evenodd" stroke="none"/>
    <path d="M21.2 310.2 L21.15 309.35 21.1 309.35 21.0 309.15 20.9 309.05 23.2 310.95 Q23.7 311.35 23.5 312.45 L23.35 313.15 22.8 314.55 22.75 314.65 21.6 313.7 21.1 315.35 20.05 319.15 18.8 320.75 18.45 321.15 18.05 320.8 18.75 320.05 Q19.25 319.45 19.9 317.1 L21.25 313.4 21.75 313.4 22.45 313.95 22.8 313.4 23.2 312.8 Q23.3 312.05 21.15 310.5 L21.2 310.2 M9.15 325.05 L9.25 325.0 9.9 324.75 10.45 324.4 12.1 326.0 Q12.5 325.6 12.6 325.65 L13.15 326.05 12.55 326.45 12.2 326.65 11.8 326.85 Q11.35 326.45 11.0 326.4 L10.45 326.5 11.1 327.1 10.05 326.95 7.75 325.05 Q8.2 325.4 9.15 325.05 M4.75 321.65 L2.75 323.0 2.3 322.45 4.4 321.2 4.75 321.65 M2.05 323.45 L-0.1 324.45 -0.5 323.85 0.2 323.6 1.6 322.85 2.05 323.45 M-0.9 324.75 L-1.5 325.0 -1.9 325.15 -2.35 325.25 -3.05 324.6 -3.6 324.6 -3.05 325.35 Q-3.75 325.35 -4.1 324.95 L-5.9 322.55 Q-5.5 323.05 -4.5 322.95 L-4.45 322.9 -3.7 322.75 -3.1 322.55 -1.8 324.55 -1.65 324.75 -1.85 324.45 -1.3 324.2 -0.9 324.75 M17.45 321.4 L17.9 321.75 16.25 323.5 15.7 323.05 17.45 321.4 M13.3 325.15 Q13.85 324.75 13.95 324.75 L15.1 323.65 15.65 324.1 13.8 325.55 13.3 325.15" fill="#2c2928" fill-rule="evenodd" stroke="none"/>
    <path d="M20.55 310.45 L21.2 310.2 21.15 310.5 Q21.15 311.7 19.75 314.1 L16.45 318.85 13.4 322.1 10.45 324.4 9.9 324.75 9.25 325.0 9.15 325.05 9.3 324.85 9.65 324.25 9.8 324.1 9.9 324.1 10.7 323.55 10.8 323.55 11.0 323.35 11.25 323.2 Q13.5 321.4 16.0 318.45 18.45 315.4 19.75 312.9 L20.25 311.75 20.55 310.45 M-3.85 322.2 L-3.65 322.15 -3.6 322.15 -2.6 321.8 -2.6 321.75 -2.35 321.65 -2.05 321.55 Q0.55 320.35 3.65 317.95 L4.3 317.4 4.35 317.95 4.4 318.15 4.0 318.45 0.3 320.95 Q-1.5 322.05 -3.1 322.55 L-3.7 322.75 -4.45 322.9 -4.5 322.95 -4.35 322.75 -3.85 322.2" fill="#645f5d" fill-rule="evenodd" stroke="none"/>
    <path d="M18.05 320.8 L18.45 321.15 17.9 321.75 17.45 321.4 17.2 321.15 17.75 320.55 18.05 320.8 M21.1 315.35 L21.6 313.7 22.75 314.65 21.1 315.35 M4.9 320.5 L5.2 321.35 4.75 321.65 4.4 321.2 4.15 320.9 4.9 320.5 M2.75 323.0 L2.05 323.45 1.6 322.85 1.45 322.7 2.2 322.3 2.3 322.45 2.75 323.0 M-0.1 324.45 L-0.9 324.75 -1.3 324.2 -1.4 324.05 -0.5 323.85 -0.1 324.45 M-2.35 325.25 L-3.05 325.35 -3.6 324.6 -3.05 324.6 -2.35 325.25 M15.1 323.65 L14.95 323.5 15.5 322.95 15.7 323.05 16.25 323.5 15.65 324.1 15.1 323.65 M13.8 325.55 L13.15 326.05 12.6 325.65 12.45 325.5 Q13.15 325.0 13.3 325.15 L13.8 325.55 M11.8 326.85 L11.1 327.1 10.45 326.5 11.0 326.4 Q11.35 326.45 11.8 326.85" fill="#1c1a1a" fill-rule="evenodd" stroke="none"/>
    <path d="M2.3 280.85 L1.35 280.35 Q0.8 279.75 0.8 278.95 0.8 278.2 1.35 277.65 L1.5 277.5 Q2.0 277.1 2.7 277.1 3.5 277.1 4.0 277.65 4.6 278.2 4.6 278.95 4.6 279.75 4.0 280.35 3.5 280.85 2.7 280.85 L2.3 280.85 M-3.95 278.65 L-4.85 278.15 Q-5.4 277.6 -5.4 276.8 -5.4 276.05 -4.85 275.45 L-4.7 275.35 Q-4.2 274.95 -3.5 274.95 -2.7 274.95 -2.15 275.45 -1.6 276.05 -1.6 276.8 -1.6 277.6 -2.15 278.15 -2.7 278.7 -3.5 278.7 L-3.95 278.65" fill="#232323" fill-rule="evenodd" stroke="none"/>
    <path d="M1.65 290.0 Q1.65 290.4 0.4 290.85 L-0.1 291.0 -2.55 291.35 -5.1 290.8 -5.8 290.5 Q-7.5 289.6 -8.05 289.45 L-8.35 289.35 -10.0 288.3 -10.95 287.4 -11.05 287.05 Q-11.05 285.2 -4.7 286.4 L-2.9 286.75 -2.15 287.0 Q1.6 288.1 1.65 289.95 L1.65 290.0 M-34.3 289.1 Q-34.3 287.45 -30.55 285.85 -26.9 284.35 -22.65 284.05 L-17.6 284.05 -15.45 284.55 Q-14.4 284.75 -14.0 285.1 -14.65 285.9 -18.5 286.55 L-18.9 286.65 -19.95 286.75 -24.1 287.3 -30.05 288.6 Q-30.55 288.7 -31.75 289.35 L-33.3 289.9 Q-33.95 289.9 -34.2 289.55 L-34.3 289.1 M-36.35 292.3 Q-36.35 292.8 -36.65 293.15 -36.9 293.5 -37.4 293.5 -38.1 293.5 -38.1 292.9 -38.1 292.5 -37.5 292.2 L-36.5 291.95 -36.4 292.0 -36.35 292.3 M-14.85 290.05 L-17.05 290.2 Q-18.3 290.2 -18.3 289.65 -18.3 288.75 -17.1 288.45 L-16.2 288.3 -15.05 288.3 -14.6 288.45 Q-14.15 288.6 -14.15 289.05 L-14.2 289.35 Q-14.3 289.85 -14.85 290.05 M-42.6 300.3 Q-44.35 301.8 -44.95 301.8 -45.65 301.8 -45.8 300.95 L-45.9 300.1 -43.25 296.95 Q-40.65 294.5 -40.65 297.35 -40.65 298.6 -42.6 300.3" fill="#ff635d" fill-rule="evenodd" stroke="none"/>
    <path d="M1.05 204.05 L0.4 204.05 0.4 40.55 1.05 40.55 1.05 204.05 M2.7 40.55 L3.4 40.55 3.4 204.05 2.7 204.05 2.7 40.55" fill="#707070" fill-rule="evenodd" stroke="none"/>
    <path d="M1.05 40.55 L2.7 40.55 2.7 204.05 1.05 204.05 1.05 40.55" fill="#cccccc" fill-rule="evenodd" stroke="none"/>
  </g>
</svg>
