<?xml version="1.0" encoding="UTF-8" standalone="no"?>
<svg xmlns:ffdec="https://www.free-decompiler.com/flash" xmlns:xlink="http://www.w3.org/1999/xlink" ffdec:objectType="shape" height="125.95px" width="74.75px" xmlns="http://www.w3.org/2000/svg">
  <g transform="matrix(1.0, 0.0, 0.0, 1.0, 33.8, 135.85)">
    <path d="M-4.0 -117.2 L0.75 -117.05 3.65 -117.1 Q4.1 -115.45 4.1 -113.4 4.1 -110.1 2.85 -107.75 L2.6 -107.3 1.65 -107.3 -3.05 -107.4 -3.25 -107.75 Q-4.5 -110.1 -4.5 -113.4 -4.5 -115.5 -4.0 -117.2 M5.2 -97.7 L4.85 -96.95 2.95 -92.75 0.75 -87.95 -7.5 -88.45 -7.35 -89.15 -6.5 -91.65 -6.05 -92.75 Q-4.85 -95.3 -3.1 -96.95 L-2.15 -97.7 1.7 -97.65 5.2 -97.7 M-8.55 -78.7 L0.65 -78.15 Q-3.95 -72.35 -7.4 -72.35 -8.2 -72.35 -8.45 -73.55 L-8.6 -75.7 -8.55 -78.7 M-2.1 -68.5 Q3.35 -72.55 10.55 -76.55 L11.95 -76.4 12.3 -75.85 12.4 -75.1 Q12.4 -73.2 6.1 -68.5 L2.45 -68.45 -2.1 -68.5 M10.65 -58.85 L15.05 -59.15 Q15.5 -58.45 15.5 -56.65 15.5 -53.1 12.1 -50.15 L10.85 -49.05 10.8 -49.05 3.2 -48.85 -12.05 -49.7 -11.8 -50.2 Q-10.4 -52.1 -4.5 -54.1 L10.65 -58.85 M11.8 -39.45 Q14.65 -37.65 16.1 -36.5 19.0 -34.15 19.0 -32.1 19.0 -30.65 17.35 -30.65 14.35 -30.65 2.85 -34.8 -8.7 -39.0 -11.1 -39.0 L-12.25 -38.8 -13.0 -38.75 -13.05 -40.15 3.2 -39.25 11.8 -39.45 M-0.5 -29.35 Q2.4 -31.35 3.35 -31.35 L6.7 -30.45 10.45 -29.5 Q6.95 -29.35 3.2 -29.35 L-0.5 -29.35 M1.1 -19.35 L-1.25 -19.25 -2.9 -19.45 1.1 -19.35 M-10.95 -19.9 Q-11.9 -19.3 -13.15 -19.3 -14.85 -19.3 -16.05 -20.5 L-10.95 -19.9" fill="#fced87" fill-rule="evenodd" stroke="none"/>
    <path d="M3.65 -117.1 L8.3 -117.45 8.55 -116.7 Q8.55 -114.2 7.55 -110.05 L6.9 -107.45 2.6 -107.3 2.85 -107.75 Q4.1 -110.1 4.1 -113.4 4.1 -115.45 3.65 -117.1 M5.2 -97.7 L8.55 -97.9 8.2 -96.95 7.4 -94.75 7.55 -94.35 Q7.7 -93.85 8.0 -93.5 L12.25 -96.75 Q12.7 -94.75 12.6 -92.75 12.45 -90.55 11.65 -88.35 L2.45 -87.95 0.75 -87.95 2.95 -92.75 4.85 -96.95 5.2 -97.7 M0.65 -78.15 L2.45 -78.15 4.15 -78.15 2.3 -76.35 2.45 -75.7 Q2.65 -75.4 3.3 -75.4 3.7 -75.4 6.5 -77.95 L6.8 -78.2 13.65 -78.7 15.4 -77.05 Q15.4 -74.55 14.7 -72.9 13.85 -70.9 11.95 -68.8 L6.1 -68.5 Q12.4 -73.2 12.4 -75.1 L12.3 -75.85 11.95 -76.4 10.55 -76.55 Q3.35 -72.55 -2.1 -68.5 L-5.7 -68.7 -4.45 -70.2 Q-4.45 -70.7 -5.0 -70.9 L-7.45 -69.9 -9.65 -69.05 -10.1 -69.1 -11.0 -73.4 -11.65 -76.8 -11.3 -79.05 -8.55 -78.7 -8.6 -75.7 -8.45 -73.55 Q-8.2 -72.35 -7.4 -72.35 -3.95 -72.35 0.65 -78.15 M-2.15 -97.7 L-3.1 -96.95 Q-4.85 -95.3 -6.05 -92.75 L-6.5 -91.65 -7.35 -89.15 -7.5 -88.45 -9.95 -88.75 -9.75 -91.65 -9.75 -91.85 -9.7 -92.75 -9.35 -96.95 -9.0 -98.35 -2.15 -97.7 M-14.9 -60.0 Q-7.25 -58.65 3.15 -58.65 L10.6 -58.85 10.65 -58.85 -4.5 -54.1 Q-10.4 -52.1 -11.8 -50.2 L-12.05 -49.7 -15.8 -50.25 -15.7 -51.3 -15.35 -55.4 -11.1 -56.15 Q-9.05 -56.4 -8.4 -56.9 L-8.1 -57.25 -11.65 -58.65 -15.0 -59.9 -14.9 -60.0 M15.05 -59.15 L19.3 -59.7 20.25 -52.25 Q20.2 -51.35 18.4 -49.7 L10.85 -49.05 12.1 -50.15 Q15.5 -53.1 15.5 -56.65 15.5 -58.45 15.05 -59.15 M22.4 -40.6 L22.25 -40.5 20.6 -38.95 Q21.2 -38.3 22.7 -37.65 24.3 -36.6 26.0 -33.35 25.45 -32.95 22.9 -32.15 21.1 -31.55 20.65 -30.35 L20.7 -30.3 10.45 -29.5 6.7 -30.45 3.35 -31.35 Q2.4 -31.35 -0.5 -29.35 L-13.05 -30.15 -11.85 -30.1 -6.4 -29.85 Q-4.2 -29.85 -3.0 -31.2 -4.0 -32.4 -8.2 -33.65 L-16.55 -35.8 -16.35 -40.65 -13.05 -40.15 -13.0 -38.75 -12.25 -38.8 -11.1 -39.0 Q-8.7 -39.0 2.85 -34.8 14.35 -30.65 17.35 -30.65 19.0 -30.65 19.0 -32.1 19.0 -34.15 16.1 -36.5 14.65 -37.65 11.8 -39.45 L22.4 -40.6 M-19.65 -21.05 L-16.05 -20.5 Q-14.85 -19.3 -13.15 -19.3 -11.9 -19.3 -10.95 -19.9 L-2.9 -19.45 -1.25 -19.25 1.1 -19.35 1.2 -19.35 3.2 -19.35 Q16.4 -19.35 26.25 -21.05 25.05 -17.0 21.35 -15.75 L10.8 -15.1 Q9.3 -15.1 7.95 -16.3 L6.6 -17.5 Q6.0 -17.5 5.95 -17.15 L5.8 -16.45 Q5.35 -15.4 1.3 -15.4 -6.95 -15.4 -7.8 -16.5 -7.4 -17.75 -9.0 -18.15 L-9.95 -17.15 Q-10.5 -16.6 -11.35 -16.6 L-19.7 -18.0 Q-19.6 -18.55 -19.65 -21.05 M-5.4 -117.3 L-4.0 -117.2 Q-4.5 -115.5 -4.5 -113.4 -4.5 -110.1 -3.25 -107.75 L-3.05 -107.4 -7.2 -107.75 Q-6.85 -111.95 -5.4 -117.3" fill="#fbe757" fill-rule="evenodd" stroke="none"/>
    <path d="M4.25 -126.6 L4.75 -127.45 5.7 -129.55 Q6.5 -128.6 7.3 -126.85 L4.25 -126.6 M10.05 -117.7 L11.75 -108.9 11.9 -107.95 6.9 -107.45 7.55 -110.05 Q8.55 -114.2 8.55 -116.7 L8.3 -117.45 10.05 -117.7 M8.55 -97.9 L13.4 -98.5 13.6 -96.95 14.2 -92.75 14.7 -88.75 11.65 -88.35 Q12.45 -90.55 12.6 -92.75 12.7 -94.75 12.25 -96.75 L8.0 -93.5 Q7.7 -93.85 7.55 -94.35 L7.4 -94.75 8.2 -96.95 8.55 -97.9 M20.8 -79.95 L20.9 -76.7 Q20.9 -74.25 20.3 -72.4 L19.65 -70.85 Q19.65 -70.2 20.0 -70.05 L20.35 -70.0 11.95 -68.8 Q13.85 -70.9 14.7 -72.9 15.4 -74.55 15.4 -77.05 L13.65 -78.7 19.2 -79.6 20.8 -79.95 M20.8 -70.05 L22.4 -71.1 22.55 -70.5 20.8 -70.05 M4.15 -78.15 L6.8 -78.2 6.5 -77.95 Q3.7 -75.4 3.3 -75.4 2.65 -75.4 2.45 -75.7 L2.3 -76.35 4.15 -78.15 M19.3 -59.7 L23.15 -60.4 25.35 -60.9 25.35 -60.85 27.85 -51.5 24.9 -50.8 18.4 -49.7 Q20.2 -51.35 20.25 -52.25 L19.3 -59.7 M22.45 -40.6 L25.7 -41.25 29.7 -42.25 32.0 -32.55 28.05 -31.55 20.7 -30.3 20.65 -30.35 Q21.1 -31.55 22.9 -32.15 25.45 -32.95 26.0 -33.35 24.3 -36.6 22.7 -37.65 21.2 -38.3 20.6 -38.95 L22.25 -40.5 22.4 -40.6 22.45 -40.6 M-16.35 -40.65 L-16.55 -35.8 -8.2 -33.65 Q-4.0 -32.4 -3.0 -31.2 -4.2 -29.85 -6.4 -29.85 L-11.85 -30.1 -13.05 -30.15 -21.7 -31.55 -23.4 -31.95 -21.8 -33.5 -20.85 -34.3 -22.1 -40.25 -21.8 -41.85 -19.3 -41.25 -16.35 -40.65 M26.25 -21.05 L28.95 -21.6 32.8 -22.55 Q32.35 -18.35 29.5 -16.7 28.85 -16.3 25.55 -14.85 22.55 -13.55 20.35 -12.05 L8.95 -11.5 -7.55 -12.1 -18.5 -15.1 Q-25.85 -17.0 -25.85 -18.6 L-25.75 -22.35 -22.55 -21.6 -19.65 -21.05 Q-19.6 -18.55 -19.7 -18.0 L-11.35 -16.6 Q-10.5 -16.6 -9.95 -17.15 L-9.0 -18.15 Q-7.4 -17.75 -7.8 -16.5 -6.95 -15.4 1.3 -15.4 5.35 -15.4 5.8 -16.45 L5.95 -17.15 Q6.0 -17.5 6.6 -17.5 L7.95 -16.3 Q9.3 -15.1 10.8 -15.1 L21.35 -15.75 Q25.05 -17.0 26.25 -21.05 M-7.7 -117.6 L-5.4 -117.3 Q-6.85 -111.95 -7.2 -107.75 L-10.25 -108.25 Q-9.1 -113.55 -7.7 -117.6 M-11.9 -98.9 L-11.7 -98.85 -9.0 -98.35 -9.35 -96.95 -9.7 -92.75 -9.75 -91.85 -9.75 -91.65 -9.95 -88.75 -12.6 -89.25 -13.3 -89.4 -13.0 -91.65 -12.85 -92.75 -12.2 -96.95 -11.9 -98.9 M-14.75 -79.7 L-14.25 -79.6 -11.3 -79.05 -11.65 -76.8 -11.0 -73.4 -10.1 -69.1 -15.75 -70.05 -16.35 -70.15 -14.75 -79.7 M-9.65 -69.05 L-7.45 -69.9 -5.0 -70.9 Q-4.45 -70.7 -4.45 -70.2 L-5.7 -68.7 -9.65 -69.05 M-18.2 -60.7 L-16.8 -60.4 -14.9 -60.0 -15.0 -59.9 -11.65 -58.65 -8.1 -57.25 -8.4 -56.9 Q-9.05 -56.4 -11.1 -56.15 L-15.35 -55.4 -15.7 -51.3 -15.8 -50.25 -18.5 -50.8 -20.3 -51.2 Q-19.45 -55.6 -17.6 -57.85 L-18.2 -60.7" fill="#fadf27" fill-rule="evenodd" stroke="none"/>
    <path d="M5.7 -129.55 Q5.95 -130.75 5.7 -131.7 5.55 -132.5 5.0 -133.15 L7.0 -131.55 Q8.5 -130.0 9.9 -127.2 L7.3 -126.85 Q6.5 -128.6 5.7 -129.55 M-8.9 -127.25 L-7.0 -130.8 -5.15 -132.7 Q-7.0 -130.25 -7.05 -127.0 L-8.9 -127.25 M10.05 -117.7 L11.75 -118.05 13.25 -118.4 16.05 -108.8 14.3 -108.4 11.9 -107.95 11.75 -108.9 10.05 -117.7 M13.4 -98.5 L15.1 -98.85 18.5 -99.8 19.25 -96.95 20.35 -92.75 21.0 -90.25 Q19.6 -89.7 17.45 -89.25 L14.7 -88.75 14.2 -92.75 13.6 -96.95 13.4 -98.5 M20.8 -79.95 L23.45 -80.8 25.9 -71.65 22.55 -70.5 22.4 -71.1 20.8 -70.05 20.65 -70.05 20.35 -70.0 20.0 -70.05 Q19.65 -70.2 19.65 -70.85 L20.3 -72.4 Q20.9 -74.25 20.9 -76.7 L20.8 -79.95 M27.85 -51.5 L25.35 -60.85 25.35 -60.9 28.45 -61.95 30.85 -52.5 27.85 -51.5 M33.05 -43.6 L33.75 -40.7 35.4 -33.8 Q34.05 -33.15 32.0 -32.55 L29.7 -42.25 Q31.75 -42.9 33.05 -43.6 M-21.8 -41.85 L-22.1 -40.25 -20.85 -34.3 -21.8 -33.5 -23.4 -31.95 Q-26.65 -32.75 -28.65 -33.65 L-26.55 -43.6 Q-24.9 -42.65 -21.8 -41.85 M-25.75 -22.35 L-25.85 -18.6 Q-25.85 -17.0 -18.5 -15.1 L-7.55 -12.1 Q-23.95 -14.55 -28.35 -15.65 -31.95 -16.55 -31.95 -17.9 L-30.6 -24.2 Q-28.8 -23.25 -25.75 -22.35 M20.35 -12.05 Q22.55 -13.55 25.55 -14.85 28.85 -16.3 29.5 -16.7 32.35 -18.35 32.8 -22.55 35.9 -23.5 37.6 -24.5 L38.95 -17.7 39.0 -16.3 Q38.8 -15.6 37.45 -15.1 34.4 -13.85 20.35 -12.05 M-7.7 -117.6 Q-9.1 -113.55 -10.25 -108.25 L-10.95 -108.4 -13.25 -109.0 -11.55 -118.35 -10.3 -118.05 -7.7 -117.6 M-14.85 -99.7 L-11.9 -98.9 -12.2 -96.95 -12.85 -92.75 -13.0 -91.65 -13.3 -89.4 -16.55 -90.4 -16.3 -91.65 -16.1 -92.75 -15.3 -96.95 -14.85 -99.7 M-18.55 -80.85 L-14.75 -79.7 -16.35 -70.15 -20.65 -71.45 -18.55 -80.85 M-22.65 -62.2 Q-21.0 -61.4 -18.2 -60.7 L-17.6 -57.85 Q-19.45 -55.6 -20.3 -51.2 L-24.65 -52.6 -22.65 -62.2" fill="#dabf05" fill-rule="evenodd" stroke="none"/>
    <path d="M2.65 -126.55 L3.7 -128.1 3.65 -128.1 Q4.4 -129.45 4.55 -130.5 L4.5 -131.4 Q4.1 -132.7 2.4 -133.5 -1.25 -135.25 -3.6 -132.6 -5.8 -130.2 -5.8 -126.85 L-7.05 -127.0 Q-7.0 -130.25 -5.15 -132.7 L-7.0 -130.8 -8.9 -127.25 -10.15 -127.5 -9.8 -128.55 Q-6.8 -135.85 -0.7 -135.85 4.6 -135.85 7.7 -132.5 9.7 -130.35 11.25 -127.45 L9.9 -127.2 Q8.5 -130.0 7.0 -131.55 L5.0 -133.15 Q5.55 -132.5 5.7 -131.7 5.95 -130.75 5.7 -129.55 L4.75 -127.45 4.25 -126.6 2.65 -126.55 M13.25 -118.4 L14.5 -118.85 17.45 -108.45 17.25 -109.2 16.05 -108.8 13.25 -118.4 M21.0 -90.25 L20.35 -92.75 19.25 -96.95 18.5 -99.8 19.55 -100.3 20.35 -96.95 21.3 -92.75 21.75 -90.55 21.0 -90.25 M24.55 -81.3 L27.15 -72.3 Q26.65 -71.95 25.9 -71.65 L23.45 -80.8 24.55 -81.3 M29.8 -62.6 L32.25 -53.25 30.85 -52.5 28.45 -61.95 29.8 -62.6 M34.25 -45.15 L34.5 -44.15 36.75 -34.6 35.4 -33.8 33.75 -40.7 33.05 -43.6 34.4 -44.6 34.25 -45.15 M38.65 -25.9 L40.95 -14.45 39.55 -14.45 Q29.55 -11.65 25.8 -11.0 L7.35 -9.9 -15.3 -11.25 Q-29.25 -13.0 -32.55 -15.95 L-33.8 -16.85 -32.65 -23.8 -28.2 -44.15 -28.05 -44.7 -26.55 -43.6 -28.65 -33.65 -30.3 -34.55 -32.3 -25.35 Q-31.7 -24.75 -30.6 -24.2 L-31.95 -17.9 Q-31.95 -16.55 -28.35 -15.65 -23.95 -14.55 -7.55 -12.1 L8.95 -11.5 20.35 -12.05 Q34.4 -13.85 37.45 -15.1 38.8 -15.6 39.0 -16.3 L38.95 -17.7 37.6 -24.5 38.75 -25.4 38.65 -25.9 M-26.15 -53.45 L-24.05 -63.05 -22.65 -62.2 -24.65 -52.6 Q-25.55 -53.05 -26.15 -53.45 M-22.05 -72.2 L-21.2 -76.15 -20.0 -81.55 -18.55 -80.85 -20.65 -71.45 Q-21.5 -71.85 -22.05 -72.2 M-17.95 -91.15 L-17.85 -91.65 -17.6 -92.75 -16.7 -96.95 -16.0 -100.25 -14.85 -99.7 -15.3 -96.95 -16.1 -92.75 -16.3 -91.65 -16.55 -90.4 Q-17.4 -90.8 -17.95 -91.15 M-14.15 -109.35 L-13.4 -113.3 -12.35 -118.6 -11.55 -118.35 -13.25 -109.0 -14.15 -109.35" fill="#574d02" fill-rule="evenodd" stroke="none"/>
    <path d="M2.65 -126.55 L4.25 -126.6 3.05 -125.1 2.95 -124.95 2.85 -124.9 Q2.0 -123.95 1.05 -123.25 -0.4 -122.2 -2.0 -121.75 L-2.45 -121.65 -4.1 -121.55 Q-4.95 -121.65 -5.5 -122.15 L-5.8 -122.4 Q-6.8 -123.4 -7.0 -125.6 L-7.0 -125.7 -7.05 -127.0 -5.8 -126.85 -5.75 -125.7 Q-5.65 -124.4 -5.15 -123.65 L-4.75 -123.15 Q-4.3 -122.85 -3.65 -122.8 L-2.35 -122.95 Q-0.1 -123.6 1.75 -125.5 L2.65 -126.55 M9.9 -127.2 L11.25 -127.45 12.75 -124.0 14.5 -118.85 13.25 -118.4 11.85 -122.55 9.9 -127.2 M-10.15 -127.5 L-8.9 -127.25 Q-10.1 -124.5 -11.05 -120.55 L-11.55 -118.35 -12.35 -118.6 -12.3 -118.95 -11.25 -123.65 -10.7 -125.65 -10.65 -125.95 -10.6 -126.05 -10.25 -127.25 -10.2 -127.4 -10.15 -127.5 M18.5 -99.8 L17.2 -104.6 16.45 -107.3 16.05 -108.8 17.25 -109.2 17.45 -108.45 17.6 -107.85 19.55 -100.3 18.5 -99.8 M23.45 -80.8 L22.55 -84.05 22.5 -84.25 21.0 -90.25 21.75 -90.55 21.8 -90.35 24.55 -81.3 23.45 -80.8 M27.15 -72.3 L28.4 -67.75 29.8 -62.6 28.45 -61.95 26.95 -67.75 25.9 -71.65 Q26.65 -71.95 27.15 -72.3 M32.25 -53.25 L34.25 -45.15 34.4 -44.6 33.05 -43.6 32.9 -44.15 30.85 -52.5 32.25 -53.25 M36.75 -34.6 L37.25 -32.35 37.35 -32.0 37.75 -30.2 38.65 -25.9 38.75 -25.4 37.6 -24.5 35.4 -33.8 36.75 -34.6 M-28.05 -44.7 L-26.15 -53.45 Q-25.55 -53.05 -24.65 -52.6 L-26.45 -44.15 -26.55 -43.6 -28.05 -44.7 M-24.05 -63.05 L-23.05 -67.75 -22.05 -72.2 Q-21.5 -71.85 -20.65 -71.45 L-21.45 -67.75 -22.65 -62.2 -24.05 -63.05 M-20.0 -81.55 L-20.0 -81.65 -17.95 -91.15 Q-17.4 -90.8 -16.55 -90.4 L-17.8 -84.5 -18.4 -81.65 -18.55 -80.85 -20.0 -81.55 M-16.0 -100.25 L-15.9 -100.7 -14.3 -108.5 -14.15 -109.35 -13.25 -109.0 -14.0 -104.75 -14.85 -99.7 -16.0 -100.25 M-28.65 -33.65 L-28.85 -32.6 -30.6 -24.2 Q-31.7 -24.75 -32.3 -25.35 L-30.3 -34.55 -28.65 -33.65" fill="#17140f" fill-rule="evenodd" stroke="none"/>
    <path d="M2.85 -124.9 L2.95 -124.95 3.05 -125.1 4.25 -126.6 7.3 -126.85 Q8.7 -123.6 10.05 -117.7 L8.3 -117.45 8.0 -118.15 7.7 -118.85 7.65 -118.95 7.6 -119.05 7.5 -119.2 7.45 -119.35 7.35 -119.5 7.15 -119.9 7.1 -120.0 6.4 -121.1 6.3 -121.3 6.2 -121.45 Q4.65 -123.75 2.85 -124.9 M6.9 -107.45 L11.9 -107.95 13.4 -98.5 8.55 -97.9 8.8 -98.55 Q10.1 -102.1 10.1 -102.75 L10.0 -104.5 8.45 -103.65 6.6 -102.9 5.75 -103.1 5.6 -103.6 6.9 -107.45 M11.65 -88.35 L14.7 -88.75 15.1 -85.65 Q16.25 -85.75 18.0 -86.6 19.0 -84.0 20.65 -80.9 L20.7 -80.85 20.8 -79.95 19.2 -79.6 13.65 -78.7 Q12.05 -80.1 10.95 -80.4 L10.8 -80.45 10.7 -80.45 10.65 -80.45 10.5 -80.5 10.35 -80.5 Q9.35 -80.5 6.8 -78.2 L4.15 -78.15 8.0 -82.45 8.15 -82.65 9.0 -83.75 Q10.7 -86.05 11.65 -88.35 M11.95 -68.8 L20.35 -70.0 20.6 -69.95 20.8 -70.05 22.55 -70.5 23.35 -67.75 25.35 -60.9 23.15 -60.4 19.3 -59.7 19.0 -62.0 19.75 -66.75 15.55 -65.3 12.6 -64.35 8.55 -64.8 Q8.65 -65.4 8.25 -65.6 L10.85 -67.75 11.95 -68.8 M-9.95 -88.75 L-10.7 -82.9 -10.9 -81.65 -11.3 -79.05 -14.25 -79.6 -14.75 -79.7 -14.7 -80.2 -14.45 -81.65 -13.3 -89.4 -12.6 -89.25 -9.95 -88.75 M-5.7 -68.7 L-6.6 -67.75 -6.8 -67.55 Q-9.15 -65.15 -10.7 -64.0 -11.5 -61.3 -13.0 -61.4 L-14.35 -62.0 Q-14.35 -61.0 -14.9 -60.0 L-16.8 -60.4 -18.2 -60.7 -18.45 -61.95 Q-17.65 -64.15 -16.85 -67.75 L-16.8 -67.9 -16.6 -69.0 -16.35 -70.15 -15.75 -70.05 -10.1 -69.1 -10.1 -68.95 -9.65 -69.05 -5.7 -68.7 M18.4 -49.7 L24.9 -50.8 27.85 -51.5 28.25 -48.6 26.9 -47.7 Q25.35 -46.85 24.5 -45.45 L25.25 -44.75 29.0 -44.9 29.2 -44.15 29.7 -42.25 25.7 -41.25 22.45 -40.6 23.05 -41.05 24.9 -42.1 25.1 -42.2 25.25 -42.25 25.35 -42.3 25.7 -42.45 24.75 -42.75 18.95 -42.0 Q15.0 -42.0 12.85 -44.15 L12.5 -44.5 Q12.75 -45.15 16.55 -48.15 L18.4 -49.7 M20.7 -30.3 L28.05 -31.55 32.0 -32.55 32.3 -30.95 Q32.9 -27.7 32.9 -24.35 L32.8 -22.55 28.95 -21.6 26.25 -21.05 Q26.75 -22.9 26.75 -25.3 26.75 -26.85 24.2 -27.9 L23.9 -28.0 Q21.25 -29.15 20.7 -30.3 M-15.8 -50.25 L-16.2 -44.15 -16.35 -40.65 -19.3 -41.25 -21.8 -41.85 -21.45 -44.15 -20.6 -49.7 -20.3 -51.2 -18.5 -50.8 -15.8 -50.25 M-23.4 -31.95 L-21.7 -31.55 -13.05 -30.15 -19.15 -30.75 -19.75 -25.5 -19.65 -21.75 -19.65 -21.05 -22.55 -21.6 -25.75 -22.35 Q-25.35 -29.0 -23.5 -31.8 L-23.4 -31.95 M-5.8 -122.4 L-5.5 -122.15 Q-4.95 -121.65 -4.1 -121.55 L-5.2 -118.05 -5.4 -117.3 -7.7 -117.6 -5.8 -122.4 M-7.2 -107.75 L-7.35 -105.1 Q-7.35 -104.35 -4.35 -103.65 L-1.4 -102.7 Q-1.4 -101.7 -1.65 -102.0 L-4.55 -101.6 -7.1 -101.2 Q-8.4 -100.6 -9.0 -98.35 L-11.7 -98.85 -11.9 -98.9 -11.3 -103.0 -10.5 -107.0 -10.25 -108.25 -7.2 -107.75" fill="#383127" fill-rule="evenodd" stroke="none"/>
    <path d="M7.3 -126.85 L9.9 -127.2 11.85 -122.55 13.25 -118.4 11.75 -118.05 10.05 -117.7 Q8.7 -123.6 7.3 -126.85 M11.9 -107.95 L14.3 -108.4 16.05 -108.8 16.45 -107.3 17.2 -104.6 18.5 -99.8 15.1 -98.85 13.4 -98.5 11.9 -107.95 M14.7 -88.75 L17.45 -89.25 Q19.6 -89.7 21.0 -90.25 L22.5 -84.25 22.55 -84.05 23.45 -80.8 20.8 -79.95 20.7 -80.85 20.65 -80.9 Q19.0 -84.0 18.0 -86.6 16.25 -85.75 15.1 -85.65 L14.7 -88.75 M20.35 -70.0 L20.65 -70.05 20.8 -70.05 20.6 -69.95 20.35 -70.0 M22.55 -70.5 L25.9 -71.65 26.95 -67.75 28.45 -61.95 25.35 -60.9 23.35 -67.75 22.55 -70.5 M29.7 -42.25 L29.2 -44.15 29.0 -44.9 25.25 -44.75 24.5 -45.45 Q25.35 -46.85 26.9 -47.7 L28.25 -48.6 27.85 -51.5 30.85 -52.5 32.9 -44.15 33.05 -43.6 Q31.75 -42.9 29.7 -42.25 M32.8 -22.55 L32.9 -24.35 Q32.9 -27.7 32.3 -30.95 L32.0 -32.55 Q34.05 -33.15 35.4 -33.8 L37.6 -24.5 Q35.9 -23.5 32.8 -22.55 M-8.9 -127.25 L-7.05 -127.0 -7.0 -125.7 -7.0 -125.6 Q-6.8 -123.4 -5.8 -122.4 L-7.7 -117.6 -10.3 -118.05 -11.55 -118.35 -11.05 -120.55 Q-10.1 -124.5 -8.9 -127.25 M-13.25 -109.0 L-10.95 -108.4 -10.25 -108.25 -10.5 -107.0 -11.3 -103.0 -11.9 -98.9 -14.85 -99.7 -14.0 -104.75 -13.25 -109.0 M-13.3 -89.4 L-14.45 -81.65 -14.7 -80.2 -14.75 -79.7 -18.55 -80.85 -18.4 -81.65 -17.8 -84.5 -16.55 -90.4 -13.3 -89.4 M-16.35 -70.15 L-16.6 -69.0 -16.8 -67.9 -16.85 -67.75 Q-17.65 -64.15 -18.45 -61.95 L-18.2 -60.7 Q-21.0 -61.4 -22.65 -62.2 L-21.45 -67.75 -20.65 -71.45 -16.35 -70.15 M-20.3 -51.2 L-20.6 -49.7 -21.45 -44.15 -21.8 -41.85 Q-24.9 -42.65 -26.55 -43.6 L-26.45 -44.15 -24.65 -52.6 -20.3 -51.2 M-28.65 -33.65 Q-26.65 -32.75 -23.4 -31.95 L-23.5 -31.8 Q-25.35 -29.0 -25.75 -22.35 -28.8 -23.25 -30.6 -24.2 L-28.85 -32.6 -28.65 -33.65" fill="#2a251d" fill-rule="evenodd" stroke="none"/>
    <path d="M2.85 -124.9 Q4.65 -123.75 6.2 -121.45 L6.3 -121.3 6.4 -121.1 7.1 -120.0 7.15 -119.9 7.35 -119.5 7.45 -119.35 7.5 -119.2 7.6 -119.05 7.65 -118.95 7.7 -118.85 8.0 -118.15 8.3 -117.45 3.65 -117.1 2.85 -119.0 Q1.75 -121.05 0.25 -121.3 L-2.45 -120.15 -3.25 -119.0 -3.3 -118.85 -4.0 -117.2 -5.4 -117.3 -5.2 -118.05 -4.1 -121.55 -2.45 -121.65 -2.0 -121.75 Q-0.4 -122.2 1.05 -123.25 2.0 -123.95 2.85 -124.9 M2.6 -107.3 L6.9 -107.45 5.6 -103.6 5.75 -103.1 6.6 -102.9 8.45 -103.65 10.0 -104.5 10.1 -102.75 Q10.1 -102.1 8.8 -98.55 L8.55 -97.9 5.2 -97.7 5.5 -98.7 5.35 -99.35 Q5.15 -99.75 4.5 -99.75 L4.4 -99.75 -1.45 -98.2 -2.15 -97.7 -9.0 -98.35 Q-8.4 -100.6 -7.1 -101.2 L-4.55 -101.6 -1.65 -102.0 Q-1.4 -101.7 -1.4 -102.7 L-4.35 -103.65 Q-7.35 -104.35 -7.35 -105.1 L-7.2 -107.75 -3.05 -107.4 Q-2.25 -106.05 -1.2 -105.65 L-0.85 -105.5 -0.2 -105.45 -0.05 -105.45 2.0 -106.5 2.6 -107.3 M0.75 -87.95 L2.45 -87.95 11.65 -88.35 Q10.7 -86.05 9.0 -83.75 L8.15 -82.65 8.0 -82.45 4.15 -78.15 2.45 -78.15 0.65 -78.15 4.7 -84.15 5.0 -84.65 Q5.0 -87.35 3.45 -87.5 1.45 -87.2 0.5 -87.5 L0.75 -87.95 M6.8 -78.2 Q9.35 -80.5 10.35 -80.5 L10.5 -80.5 10.65 -80.45 10.7 -80.45 10.8 -80.45 10.95 -80.4 Q12.05 -80.1 13.65 -78.7 L6.8 -78.2 M-7.5 -88.45 Q-8.2 -85.7 -8.4 -81.65 L-8.55 -78.7 -11.3 -79.05 -10.9 -81.65 -10.7 -82.9 -9.95 -88.75 -7.5 -88.45 M6.1 -68.5 L11.95 -68.8 10.85 -67.75 8.25 -65.6 Q8.65 -65.4 8.55 -64.8 L12.6 -64.35 15.55 -65.3 19.75 -66.75 19.0 -62.0 19.3 -59.7 15.05 -59.15 Q14.6 -59.8 13.5 -59.8 L11.35 -59.05 10.6 -58.85 3.15 -58.65 Q-7.25 -58.65 -14.9 -60.0 -14.35 -61.0 -14.35 -62.0 L-13.0 -61.4 Q-11.5 -61.3 -10.7 -64.0 -9.15 -65.15 -6.8 -67.55 L-6.6 -67.75 -5.7 -68.7 -2.1 -68.5 -2.5 -68.25 -3.15 -67.75 Q-13.35 -60.0 -4.65 -60.0 4.0 -60.0 6.25 -61.8 5.55 -62.45 3.75 -62.55 L-2.7 -62.6 5.05 -67.75 6.1 -68.5 M10.85 -49.05 L18.4 -49.7 16.55 -48.15 Q12.75 -45.15 12.5 -44.5 L12.85 -44.15 Q15.0 -42.0 18.95 -42.0 L24.75 -42.75 25.7 -42.45 25.35 -42.3 25.25 -42.25 25.1 -42.2 24.9 -42.1 23.05 -41.05 22.45 -40.6 22.4 -40.6 11.8 -39.45 4.65 -43.75 9.75 -48.1 10.8 -49.05 10.85 -49.05 M-13.05 -40.15 L-16.35 -40.65 -16.2 -44.15 -15.8 -50.25 -12.05 -49.7 Q-12.9 -48.05 -13.05 -44.15 L-13.1 -42.45 -13.05 -40.15 M-13.05 -30.15 L-0.5 -29.35 -2.0 -28.3 -2.15 -28.25 -6.25 -25.05 Q-6.25 -20.3 -2.9 -19.45 L-10.95 -19.9 -10.25 -20.5 Q-9.05 -21.7 -9.05 -23.4 -9.05 -25.1 -10.25 -26.3 -11.45 -27.5 -13.15 -27.5 -14.85 -27.5 -16.05 -26.3 -17.25 -25.1 -17.25 -23.4 -17.25 -21.7 -16.05 -20.5 L-19.65 -21.05 -19.65 -21.75 -19.75 -25.5 -19.15 -30.75 -13.05 -30.15 M10.45 -29.5 L20.7 -30.3 Q21.25 -29.15 23.9 -28.0 L24.2 -27.9 Q26.75 -26.85 26.75 -25.3 26.75 -22.9 26.25 -21.05 16.4 -19.35 3.2 -19.35 L1.2 -19.35 1.8 -19.45 2.2 -19.6 2.3 -19.65 Q2.5 -19.75 2.5 -20.7 L2.2 -22.55 1.5 -25.2 1.6 -25.75 Q7.3 -20.55 11.65 -20.15 16.3 -19.7 24.5 -24.05 24.35 -25.0 23.05 -25.8 20.75 -27.25 13.05 -28.9 L10.45 -29.5 M-10.1 -69.1 L-9.65 -69.05 -10.1 -68.95 -10.1 -69.1" fill="#473f32" fill-rule="evenodd" stroke="none"/>
    <path d="M-4.0 -117.2 L-3.3 -118.85 -3.25 -119.0 -2.45 -120.15 0.25 -121.3 Q1.75 -121.05 2.85 -119.0 L3.65 -117.1 0.75 -117.05 -4.0 -117.2 M-3.05 -107.4 L1.65 -107.3 2.6 -107.3 2.0 -106.5 -0.05 -105.45 -0.2 -105.45 -0.85 -105.5 -1.2 -105.65 Q-2.25 -106.05 -3.05 -107.4 M-2.15 -97.7 L-1.45 -98.2 4.4 -99.75 4.5 -99.75 Q5.15 -99.75 5.35 -99.35 L5.5 -98.7 5.2 -97.7 1.7 -97.65 -2.15 -97.7 M0.75 -87.95 L0.5 -87.5 Q1.45 -87.2 3.45 -87.5 5.0 -87.35 5.0 -84.65 L4.7 -84.15 0.65 -78.15 -8.55 -78.7 -8.4 -81.65 Q-8.2 -85.7 -7.5 -88.45 L0.75 -87.95 M-2.1 -68.5 L2.45 -68.45 6.1 -68.5 5.05 -67.75 -2.7 -62.6 3.75 -62.55 Q5.55 -62.45 6.25 -61.8 4.0 -60.0 -4.65 -60.0 -13.35 -60.0 -3.15 -67.75 L-2.5 -68.25 -2.1 -68.5 M10.6 -58.85 L11.35 -59.05 13.5 -59.8 Q14.6 -59.8 15.05 -59.15 L10.65 -58.85 10.6 -58.85 M10.8 -49.05 L9.75 -48.1 4.65 -43.75 11.8 -39.45 3.2 -39.25 -13.05 -40.15 -13.1 -42.45 -13.05 -44.15 Q-12.9 -48.05 -12.05 -49.7 L3.2 -48.85 10.8 -49.05 M-16.05 -20.5 Q-17.25 -21.7 -17.25 -23.4 -17.25 -25.1 -16.05 -26.3 -14.85 -27.5 -13.15 -27.5 -11.45 -27.5 -10.25 -26.3 -9.05 -25.1 -9.05 -23.4 -9.05 -21.7 -10.25 -20.5 L-10.95 -19.9 -16.05 -20.5 M-2.9 -19.45 Q-6.25 -20.3 -6.25 -25.05 L-2.15 -28.25 -2.0 -28.3 -0.5 -29.35 3.2 -29.35 Q6.95 -29.35 10.45 -29.5 L13.05 -28.9 Q20.75 -27.25 23.05 -25.8 24.35 -25.0 24.5 -24.05 16.3 -19.7 11.65 -20.15 7.3 -20.55 1.6 -25.75 L1.5 -25.2 2.2 -22.55 2.5 -20.7 Q2.5 -19.75 2.3 -19.65 L2.2 -19.6 1.8 -19.45 1.2 -19.35 1.1 -19.35 -2.9 -19.45" fill="#544a3b" fill-rule="evenodd" stroke="none"/>
  </g>
</svg>
