<?xml version="1.0" encoding="UTF-8" standalone="no"?>
<svg xmlns:ffdec="https://www.free-decompiler.com/flash" xmlns:xlink="http://www.w3.org/1999/xlink" ffdec:objectType="shape" height="47.6px" width="31.2px" xmlns="http://www.w3.org/2000/svg">
  <g transform="matrix(1.0, 0.0, 0.0, 1.0, 15.55, 5.75)">
    <path d="M4.05 -2.25 L5.65 -2.35 Q7.25 -1.45 8.95 1.35 10.7 4.3 10.7 6.45 L10.4 9.1 7.7 5.0 7.3 4.7 6.7 4.75 6.8 4.8 Q7.4 6.35 11.55 14.4 13.65 18.45 13.65 23.1 13.65 25.7 12.4 26.95 11.6 27.7 10.8 27.7 7.95 27.7 5.65 23.7 L5.5 23.35 5.55 23.4 Q7.2 24.55 7.85 24.55 9.25 24.55 10.1 22.8 10.75 21.5 10.75 20.55 10.75 17.75 7.65 12.95 4.5 8.1 4.5 6.85 4.5 6.35 5.0 4.85 L5.5 2.85 Q4.8 -0.95 4.05 -2.25 M0.8 17.05 Q1.65 19.6 2.15 18.2 L2.2 30.25 Q2.2 31.2 1.35 32.0 L0.05 32.9 -0.7 25.2 -0.3 21.75 Q0.2 18.85 0.8 17.05 M8.9 29.45 L8.5 30.2 5.1 29.85 Q3.25 28.95 3.65 24.1 5.2 28.4 8.9 29.45 M-0.8 12.65 Q-1.5 13.15 -2.1 15.1 -2.9 17.6 -2.9 21.4 L-1.95 32.05 Q-1.95 36.85 -2.95 38.5 -3.7 39.7 -5.5 39.7 -8.5 39.7 -11.05 34.9 -12.95 31.3 -13.25 28.8 -11.5 32.7 -9.7 34.4 -8.5 35.45 -7.65 35.45 -5.3 35.45 -5.05 23.65 -4.8 11.85 -2.65 11.85 -1.85 11.85 -0.8 12.65" fill="#feb86b" fill-rule="evenodd" stroke="none"/>
    <path d="M-0.05 -3.55 Q0.5 -3.3 2.1 -2.8 L4.05 -2.25 Q4.8 -0.95 5.5 2.85 L5.0 4.85 Q4.5 6.35 4.5 6.85 4.5 8.1 7.65 12.95 10.75 17.75 10.75 20.55 10.75 21.5 10.1 22.8 9.25 24.55 7.85 24.55 7.2 24.55 5.55 23.4 3.3 17.15 1.7 14.8 0.8 13.5 -0.8 12.65 -1.85 11.85 -2.65 11.85 -4.8 11.85 -5.05 23.65 -5.3 35.45 -7.65 35.45 -8.5 35.45 -9.7 34.4 -11.5 32.7 -13.25 28.8 -13.8 22.15 -10.7 11.3 -6.8 -2.4 -0.05 -3.55" fill="#fec281" fill-rule="evenodd" stroke="none"/>
    <path d="M5.65 -2.35 L6.6 -3.1 7.35 -3.8 Q8.8 -2.85 10.15 -1.1 12.75 2.2 12.75 6.05 L12.3 8.8 11.85 11.5 13.75 15.95 Q15.65 20.55 15.65 23.25 15.65 26.5 11.8 29.8 9.85 31.45 7.8 32.45 5.85 32.45 4.0 31.45 2.7 32.5 -0.1 37.95 -2.1 41.85 -5.45 41.85 -7.75 41.85 -9.35 40.6 L-11.35 38.55 -11.4 38.55 Q-12.7 36.6 -14.25 30.65 -15.55 25.6 -15.55 24.55 -15.55 11.2 -9.7 2.15 -5.4 -4.45 -1.0 -5.75 L-0.6 -4.55 -0.05 -3.55 Q-6.8 -2.4 -10.7 11.3 -13.8 22.15 -13.25 28.8 -12.95 31.3 -11.05 34.9 -8.5 39.7 -5.5 39.7 -3.7 39.7 -2.95 38.5 -1.95 36.85 -1.95 32.05 L-2.9 21.4 Q-2.9 17.6 -2.1 15.1 -1.5 13.15 -0.8 12.65 0.8 13.5 1.7 14.8 3.3 17.15 5.55 23.4 L5.5 23.35 5.65 23.7 Q7.95 27.7 10.8 27.7 11.6 27.7 12.4 26.95 13.65 25.7 13.65 23.1 13.65 18.45 11.55 14.4 7.4 6.35 6.8 4.8 L6.7 4.75 7.3 4.7 7.7 5.0 10.4 9.1 10.7 6.45 Q10.7 4.3 8.95 1.35 7.25 -1.45 5.65 -2.35 M0.8 17.05 Q0.2 18.85 -0.3 21.75 L-0.7 25.2 0.05 32.9 1.35 32.0 Q2.2 31.2 2.2 30.25 L2.15 18.2 Q1.65 19.6 0.8 17.05 M8.9 29.45 Q5.2 28.4 3.65 24.1 3.25 28.95 5.1 29.85 L8.5 30.2 8.9 29.45" fill="#654425" fill-rule="evenodd" stroke="none"/>
  </g>
</svg>
