<?xml version="1.0" encoding="UTF-8" standalone="no"?>
<svg xmlns:ffdec="https://www.free-decompiler.com/flash" xmlns:xlink="http://www.w3.org/1999/xlink" ffdec:objectType="shape" height="28.25px" width="21.75px" xmlns="http://www.w3.org/2000/svg">
  <g transform="matrix(1.0, 0.0, 0.0, 1.0, -7.85, 20.35)">
    <path d="M8.15 -17.5 L8.55 -17.8 Q12.5 -10.85 12.0 -8.45 L11.55 -6.45 11.85 -6.3 12.3 -6.15 13.5 -6.1 13.45 -5.25 13.25 -4.55 12.75 -3.85 12.1 -3.1 12.6 -2.85 14.9 -4.25 14.65 -3.15 14.3 -2.25 13.8 -1.35 13.35 -0.6 14.05 -0.15 16.05 -0.25 15.7 0.3 15.3 0.85 14.8 1.25 13.55 1.9 11.75 5.05 16.65 5.75 25.25 6.0 28.6 6.05 27.25 6.7 21.35 6.85 16.65 6.65 11.35 5.6 Q10.6 3.35 10.8 2.85 11.55 1.15 11.05 -0.45 L10.3 -0.65 9.95 -1.05 10.65 -3.9 9.85 -5.15 10.2 -6.8 Q10.7 -9.35 8.15 -17.5" fill="#b9a99b" fill-rule="evenodd" stroke="none"/>
    <path d="M25.9 -1.15 L26.3 -1.15 26.35 -0.9 26.5 -0.8 27.15 0.6 27.25 0.65 28.75 1.85 27.55 2.85 28.6 6.05 25.25 6.0 16.65 5.75 11.75 5.05 13.55 1.9 14.8 1.25 15.3 0.85 15.7 0.3 16.05 -0.25 14.05 -0.15 13.35 -0.6 13.8 -1.35 14.3 -2.25 14.65 -3.15 14.9 -4.25 12.6 -2.85 12.1 -3.1 12.75 -3.85 13.25 -4.55 13.45 -5.25 13.5 -6.1 12.3 -6.15 11.85 -6.3 11.55 -6.45 12.0 -8.45 Q12.5 -10.85 8.55 -17.8 L11.45 -18.75 17.35 -12.15 16.65 -11.2 15.7 -10.4 13.2 -8.3 13.5 -7.15 14.05 -7.15 16.45 -7.95 16.7 -7.3 16.65 -7.0 16.1 -4.85 16.2 -4.85 16.65 -4.85 16.9 -4.9 17.2 -4.75 Q16.85 -3.75 16.65 -2.75 L16.6 -2.4 Q16.45 -1.95 16.55 -1.4 L16.65 -1.35 16.95 -1.25 17.4 -1.2 17.95 -1.25 17.55 -0.7 17.55 0.1 Q20.7 1.6 24.5 1.45 L16.65 2.4 16.05 2.4 Q15.7 2.55 15.4 2.8 L15.4 3.0 15.55 3.4 16.65 3.65 20.2 3.5 25.9 2.45 25.9 -1.15 M13.0 -11.8 L12.6 -11.1 13.45 -11.0 16.05 -11.75 16.1 -12.4 13.0 -11.8" fill="#ebe8e0" fill-rule="evenodd" stroke="none"/>
    <path d="M11.45 -18.75 L11.3 -18.95 16.1 -20.35 18.55 -13.05 19.6 -11.15 Q18.85 -9.25 18.8 -8.2 L20.55 -7.1 19.75 -3.8 22.85 -3.4 22.65 -1.1 25.9 -1.15 25.9 2.45 20.2 3.5 16.65 3.65 15.55 3.4 15.4 3.0 15.4 2.8 Q15.7 2.55 16.05 2.4 L16.65 2.4 24.5 1.45 Q20.7 1.6 17.55 0.1 L17.55 -0.7 17.95 -1.25 17.4 -1.2 16.95 -1.25 16.65 -1.35 16.55 -1.4 Q16.45 -1.95 16.6 -2.4 L16.65 -2.75 Q16.85 -3.75 17.2 -4.75 L16.9 -4.9 16.65 -4.85 16.2 -4.85 16.1 -4.85 16.65 -7.0 16.7 -7.3 16.45 -7.95 14.05 -7.15 13.5 -7.15 13.2 -8.3 15.7 -10.4 16.65 -11.2 17.35 -12.15 11.45 -18.75 M13.0 -11.8 L16.1 -12.4 16.05 -11.75 13.45 -11.0 12.6 -11.1 13.0 -11.8" fill="#ffffff" fill-rule="evenodd" stroke="none"/>
    <path d="M26.5 -0.8 L27.8 0.3 28.4 -0.45 Q28.85 1.15 29.4 2.05 29.25 2.65 28.4 2.95 L29.6 5.75 28.4 7.25 27.25 7.55 21.65 7.9 16.65 7.6 10.65 6.15 Q9.6 3.7 10.7 0.65 L10.45 0.2 9.25 -0.2 Q9.25 -0.95 9.4 -1.7 L9.85 -3.25 Q8.7 -4.85 9.2 -6.8 9.7 -8.9 7.85 -17.25 L8.15 -17.5 Q10.7 -9.35 10.2 -6.8 L9.85 -5.15 10.65 -3.9 9.95 -1.05 10.3 -0.65 11.05 -0.45 Q11.55 1.15 10.8 2.85 10.6 3.35 11.35 5.6 L16.65 6.65 21.35 6.85 27.25 6.7 28.6 6.05 27.55 2.85 28.75 1.85 27.25 0.65 27.15 0.6 26.5 -0.8" fill="#907e73" fill-rule="evenodd" stroke="none"/>
  </g>
</svg>
