<?xml version="1.0" encoding="UTF-8" standalone="no"?>
<svg xmlns:ffdec="https://www.free-decompiler.com/flash" xmlns:xlink="http://www.w3.org/1999/xlink" ffdec:objectType="shape" height="10.65px" width="42.1px" xmlns="http://www.w3.org/2000/svg">
  <g transform="matrix(1.0, 0.0, 0.0, 1.0, 32.7, 25.15)">
    <path d="M9.35 -20.55 L9.35 -20.5 Q9.5 -19.6 8.9 -18.85 8.4 -18.15 7.5 -17.95 6.5 -17.85 5.8 -18.4 0.9 -21.95 -2.95 -19.6 L-2.95 -19.55 Q-7.45 -14.6 -11.95 -14.5 -16.6 -14.15 -21.05 -19.0 -24.8 -21.6 -28.95 -18.05 L-29.0 -18.05 Q-29.75 -17.5 -30.6 -17.55 -31.6 -17.6 -32.15 -18.3 L-32.2 -18.35 Q-32.75 -19.1 -32.7 -19.95 -32.65 -20.95 -31.85 -21.5 L-31.85 -21.55 Q-24.6 -27.55 -18.15 -22.45 L-18.15 -22.4 -18.1 -22.4 -17.8 -22.15 Q-14.95 -19.05 -12.1 -19.0 -9.2 -19.3 -6.15 -22.7 L-5.65 -23.15 Q0.6 -27.7 8.45 -22.0 9.15 -21.5 9.35 -20.55 M6.4 -19.2 L6.45 -19.15 7.3 -18.95 Q7.8 -19.05 8.1 -19.45 8.4 -19.85 8.35 -20.35 L7.85 -21.2 Q0.65 -26.45 -5.15 -22.3 L-5.2 -22.25 -5.3 -22.15 -5.35 -22.1 Q-8.8 -18.25 -12.05 -18.0 L-12.1 -18.0 Q-15.35 -17.95 -18.55 -21.45 L-18.6 -21.5 -18.6 -21.55 -18.7 -21.6 Q-24.6 -26.3 -31.2 -20.75 L-31.25 -20.75 -31.7 -19.9 Q-31.75 -19.4 -31.4 -18.95 -31.1 -18.6 -30.55 -18.55 -30.05 -18.5 -29.6 -18.8 L-29.6 -18.85 Q-24.75 -22.95 -20.4 -19.75 L-20.3 -19.7 Q-16.2 -15.25 -11.95 -15.5 -7.8 -15.6 -3.6 -20.3 L-3.5 -20.4 Q0.9 -23.25 6.4 -19.2" fill="#000000" fill-rule="evenodd" stroke="none"/>
    <path d="M6.4 -19.2 Q0.9 -23.25 -3.5 -20.4 L-3.6 -20.3 Q-7.8 -15.6 -11.95 -15.5 -16.2 -15.25 -20.3 -19.7 L-20.4 -19.75 Q-24.75 -22.95 -29.6 -18.85 L-29.6 -18.8 Q-30.05 -18.5 -30.55 -18.55 -31.1 -18.6 -31.4 -18.95 -31.75 -19.4 -31.7 -19.9 L-31.25 -20.75 -31.2 -20.75 Q-24.6 -26.3 -18.7 -21.6 L-18.6 -21.55 -18.6 -21.5 -18.55 -21.45 Q-15.35 -17.95 -12.1 -18.0 L-12.05 -18.0 Q-8.8 -18.25 -5.35 -22.1 L-5.3 -22.15 -5.2 -22.25 -5.15 -22.3 Q0.65 -26.45 7.85 -21.2 L8.35 -20.35 Q8.4 -19.85 8.1 -19.45 7.8 -19.05 7.3 -18.95 L6.45 -19.15 6.4 -19.2" fill="#241a13" fill-rule="evenodd" stroke="none"/>
  </g>
</svg>
