<?xml version="1.0" encoding="UTF-8" standalone="no"?>
<svg xmlns:ffdec="https://www.free-decompiler.com/flash" xmlns:xlink="http://www.w3.org/1999/xlink" ffdec:objectType="shape" height="10.65px" width="42.1px" xmlns="http://www.w3.org/2000/svg">
  <g transform="matrix(1.0, 0.0, 0.0, 1.0, 32.7, 28.65)">
    <path d="M8.1 -22.95 Q8.4 -23.35 8.35 -23.85 L7.85 -24.7 Q0.65 -29.95 -5.15 -25.8 L-5.2 -25.75 -5.3 -25.65 -5.35 -25.6 Q-8.8 -21.75 -12.05 -21.5 L-12.1 -21.5 Q-15.35 -21.45 -18.55 -24.95 L-18.6 -25.0 -18.6 -25.05 -18.7 -25.1 Q-24.6 -29.8 -31.2 -24.25 L-31.25 -24.25 -31.7 -23.4 Q-31.75 -22.9 -31.4 -22.45 -31.1 -22.1 -30.55 -22.05 -30.05 -22.0 -29.6 -22.3 L-29.6 -22.35 Q-24.75 -26.45 -20.4 -23.25 L-20.3 -23.2 Q-16.2 -18.75 -11.95 -19.0 -7.8 -19.1 -3.6 -23.8 L-3.5 -23.9 Q0.9 -26.75 6.4 -22.7 L6.45 -22.65 7.3 -22.45 Q7.8 -22.55 8.1 -22.95 M9.35 -24.05 L9.35 -24.0 Q9.5 -23.1 8.9 -22.35 8.4 -21.65 7.5 -21.45 6.5 -21.35 5.8 -21.9 0.9 -25.45 -2.95 -23.1 L-2.95 -23.05 Q-7.45 -18.1 -11.95 -18.0 -16.6 -17.65 -21.05 -22.5 -24.8 -25.1 -28.95 -21.55 L-29.0 -21.55 Q-29.75 -21.0 -30.6 -21.05 -31.6 -21.1 -32.15 -21.8 L-32.2 -21.85 Q-32.75 -22.6 -32.7 -23.45 -32.65 -24.45 -31.85 -25.0 L-31.85 -25.05 Q-24.6 -31.05 -18.15 -25.95 L-18.15 -25.9 -18.1 -25.9 -17.8 -25.65 Q-14.95 -22.55 -12.1 -22.5 -9.2 -22.8 -6.15 -26.2 L-5.65 -26.65 Q0.6 -31.2 8.45 -25.5 9.15 -25.0 9.35 -24.05" fill="#000000" fill-rule="evenodd" stroke="none"/>
    <path d="M8.1 -22.95 Q7.8 -22.55 7.3 -22.45 L6.45 -22.65 6.4 -22.7 Q0.9 -26.75 -3.5 -23.9 L-3.6 -23.8 Q-7.8 -19.1 -11.95 -19.0 -16.2 -18.75 -20.3 -23.2 L-20.4 -23.25 Q-24.75 -26.45 -29.6 -22.35 L-29.6 -22.3 Q-30.05 -22.0 -30.55 -22.05 -31.1 -22.1 -31.4 -22.45 -31.75 -22.9 -31.7 -23.4 L-31.25 -24.25 -31.2 -24.25 Q-24.6 -29.8 -18.7 -25.1 L-18.6 -25.05 -18.6 -25.0 -18.55 -24.95 Q-15.35 -21.45 -12.1 -21.5 L-12.05 -21.5 Q-8.8 -21.75 -5.35 -25.6 L-5.3 -25.65 -5.2 -25.75 -5.15 -25.8 Q0.65 -29.95 7.85 -24.7 L8.35 -23.85 Q8.4 -23.35 8.1 -22.95" fill="#241a13" fill-rule="evenodd" stroke="none"/>
  </g>
</svg>
