<?xml version="1.0" encoding="UTF-8" standalone="no"?>
<svg xmlns:ffdec="https://www.free-decompiler.com/flash" xmlns:xlink="http://www.w3.org/1999/xlink" ffdec:objectType="shape" height="198.3px" width="108.35px" xmlns="http://www.w3.org/2000/svg">
  <g transform="matrix(1.0, 0.0, 0.0, 1.0, 33.55, 206.75)">
    <path d="M54.25 -156.45 Q53.8 -153.85 52.8 -151.4 L52.7 -151.35 Q51.8 -150.9 48.25 -150.8 47.85 -150.65 47.85 -150.05 49.75 -149.35 50.75 -149.35 53.95 -110.2 55.3 -84.4 54.55 -80.35 53.6 -76.75 L53.3 -67.4 Q53.2 -61.55 52.0 -58.05 48.55 -60.3 47.35 -64.25 L45.95 -70.15 Q42.5 -111.7 35.25 -156.0 L35.3 -156.0 35.65 -156.2 Q38.6 -160.6 38.2 -164.55 L38.1 -164.8 37.85 -164.95 Q9.25 -174.45 -22.75 -164.5 L-23.15 -164.4 -23.4 -164.3 -23.45 -164.25 -24.05 -164.1 -25.8 -163.3 -24.85 -163.55 -25.3 -163.05 Q-25.05 -162.8 -24.0 -162.8 L-19.25 -163.8 -16.55 -163.75 Q-14.9 -163.65 -13.15 -164.5 L-5.75 -164.55 -3.7 -164.75 -1.75 -165.0 5.25 -165.05 10.5 -165.25 19.15 -165.25 26.15 -164.25 Q31.3 -163.35 34.5 -161.75 L34.0 -161.5 Q33.1 -160.95 32.5 -160.75 L28.5 -160.4 23.1 -160.75 16.25 -160.8 Q-0.85 -158.85 -8.4 -155.95 -15.55 -152.3 -21.25 -150.0 L-20.0 -149.75 -6.8 -153.8 -6.5 -153.9 22.0 -157.75 28.75 -157.8 Q33.6 -157.1 34.2 -155.9 L34.25 -155.8 34.25 -155.65 34.25 -154.45 34.55 -153.7 Q43.05 -101.3 46.65 -51.45 L46.65 -51.4 Q46.4 -46.65 43.65 -42.9 40.3 -38.3 32.85 -34.3 L37.75 -34.1 42.5 -34.0 Q41.15 -32.65 33.5 -29.05 L33.65 -28.9 Q34.3 -28.6 42.35 -29.0 42.95 -28.5 43.5 -26.85 L44.0 -24.75 Q44.0 -21.3 37.65 -18.85 30.0 -15.9 14.35 -15.05 L0.2 -15.05 -9.05 -16.6 -13.4 -17.25 Q-20.65 -19.2 -28.45 -21.9 -31.1 -27.25 -28.25 -32.55 L-28.2 -32.8 -27.1 -144.75 -27.65 -146.7 Q-32.65 -157.65 -30.35 -167.6 19.55 -186.9 54.25 -164.7 L54.55 -160.4 53.75 -160.75 Q54.15 -161.15 53.85 -161.5 52.65 -161.35 48.7 -159.9 45.5 -158.75 39.65 -158.5 L39.6 -157.8 45.95 -156.25 53.0 -155.3 Q53.8 -155.75 54.25 -156.45 M20.9 -154.75 Q20.9 -154.05 25.2 -150.95 L31.0 -147.0 Q33.0 -145.75 33.45 -143.15 L34.25 -139.0 Q35.25 -139.8 35.0 -143.0 35.0 -146.4 34.45 -149.8 33.7 -154.3 32.25 -155.55 L22.0 -155.5 20.9 -154.75 M47.3 -137.65 Q48.55 -140.1 48.6 -141.25 L48.45 -144.45 Q48.45 -146.5 49.5 -147.5 47.6 -148.65 44.7 -149.75 41.1 -151.1 39.6 -150.8 41.65 -146.1 42.9 -138.05 L43.05 -134.9 42.9 -131.75 42.9 -128.5 Q42.95 -127.35 45.4 -126.75 L49.25 -126.0 Q44.75 -125.5 43.65 -124.05 L45.8 -123.4 47.5 -122.75 Q45.45 -120.7 45.1 -119.7 44.9 -119.25 44.9 -117.2 44.9 -115.15 47.8 -102.6 50.85 -89.5 52.5 -85.5 L52.75 -87.9 Q52.75 -91.75 51.25 -100.5 L50.35 -110.4 50.85 -117.35 51.35 -125.9 51.4 -127.85 Q51.4 -129.55 51.0 -130.4 50.8 -130.9 48.4 -132.85 46.1 -134.7 46.1 -135.1 L47.3 -137.65 M-15.65 -152.0 L-15.4 -152.15 -13.3 -153.1 -14.0 -152.45 -13.45 -152.55 -15.65 -152.0" fill="#244225" fill-rule="evenodd" stroke="none"/>
    <path d="M54.25 -156.45 Q53.8 -155.75 53.0 -155.3 L45.95 -156.25 39.6 -157.8 39.65 -158.5 Q45.5 -158.75 48.7 -159.9 52.65 -161.35 53.85 -161.5 54.15 -161.15 53.75 -160.75 L54.55 -160.4 54.25 -156.45 M20.9 -154.75 L22.0 -155.5 32.25 -155.55 Q33.7 -154.3 34.45 -149.8 35.0 -146.4 35.0 -143.0 35.25 -139.8 34.25 -139.0 L33.45 -143.15 Q33.0 -145.75 31.0 -147.0 L25.2 -150.95 Q20.9 -154.05 20.9 -154.75 M47.3 -137.65 L46.1 -135.1 Q46.1 -134.7 48.4 -132.85 50.8 -130.9 51.0 -130.4 51.4 -129.55 51.4 -127.85 L51.35 -125.9 50.85 -117.35 50.35 -110.4 51.25 -100.5 Q52.75 -91.75 52.75 -87.9 L52.5 -85.5 Q50.85 -89.5 47.8 -102.6 44.9 -115.15 44.9 -117.2 44.9 -119.25 45.1 -119.7 45.45 -120.7 47.5 -122.75 L45.8 -123.4 43.65 -124.05 Q44.75 -125.5 49.25 -126.0 L45.4 -126.75 Q42.95 -127.35 42.9 -128.5 L42.9 -131.75 43.05 -134.9 42.9 -138.05 Q41.65 -146.1 39.6 -150.8 41.1 -151.1 44.7 -149.75 47.6 -148.65 49.5 -147.5 48.45 -146.5 48.45 -144.45 L48.6 -141.25 Q48.55 -140.1 47.3 -137.65" fill="#335e34" fill-rule="evenodd" stroke="none"/>
    <path d="M-13.4 -17.25 L-9.05 -16.6 0.2 -15.05 14.35 -15.05 Q30.0 -15.9 37.65 -18.85 44.0 -21.3 44.0 -24.75 L43.5 -26.85 Q42.95 -28.5 42.35 -29.0 34.3 -28.6 33.65 -28.9 L33.5 -29.05 Q41.15 -32.65 42.5 -34.0 L37.75 -34.1 32.85 -34.3 Q40.3 -38.3 43.65 -42.9 46.4 -46.65 46.65 -51.4 L46.95 -47.4 48.45 -19.75 48.7 -22.0 Q48.05 -43.35 46.3 -65.45 L45.95 -70.15 47.35 -64.25 Q48.55 -60.3 52.0 -58.05 53.2 -61.55 53.3 -67.4 L53.6 -76.75 Q54.55 -80.35 55.3 -84.4 L55.45 -81.75 55.45 -81.7 Q57.65 -37.9 54.3 -34.85 L54.1 -34.6 54.2 -34.25 Q58.1 -27.2 56.8 -21.85 34.5 -7.0 14.1 -11.0 -6.3 -15.05 -13.4 -17.25 M34.55 -153.7 L34.25 -154.45 34.25 -155.65 34.5 -154.15 34.55 -153.7 M34.2 -155.9 Q33.6 -157.1 28.75 -157.8 L22.0 -157.75 -6.5 -153.9 -6.8 -153.8 -20.0 -149.75 -21.25 -150.0 Q-15.55 -152.3 -8.4 -155.95 -0.85 -158.85 16.25 -160.8 L23.1 -160.75 28.5 -160.4 32.5 -160.75 Q33.1 -160.95 34.0 -161.5 L34.5 -161.75 Q31.3 -163.35 26.15 -164.25 L19.15 -165.25 10.5 -165.25 5.25 -165.05 -1.75 -165.0 -3.7 -164.75 -5.75 -164.55 -13.15 -164.5 Q-14.9 -163.65 -16.55 -163.75 L-19.25 -163.8 -24.0 -162.8 Q-25.05 -162.8 -25.3 -163.05 L-24.85 -163.55 -24.35 -163.7 -19.05 -165.15 Q11.2 -172.65 37.75 -164.35 37.4 -160.75 34.95 -157.05 L34.85 -156.85 34.8 -156.75 34.7 -156.5 34.6 -156.5 34.3 -156.3 34.2 -155.9 M-23.4 -164.3 L-23.15 -164.4 -22.75 -164.5 -23.4 -164.3 M-15.65 -152.0 L-13.45 -152.55 -14.0 -152.45 -13.3 -153.1 -15.4 -152.15 -15.65 -152.0" fill="#1b301c" fill-rule="evenodd" stroke="none"/>
    <path d="M55.0 -165.4 L55.15 -165.25 55.2 -165.05 Q56.55 -156.45 52.9 -149.2 60.6 -41.7 56.2 -34.4 59.2 -26.85 58.45 -22.15 58.15 -20.55 58.2 -19.75 54.9 -18.7 43.0 -12.9 25.0 -4.15 -2.05 -12.6 L-29.25 -21.25 Q-32.25 -27.1 -29.2 -32.9 L-28.6 -146.4 Q-33.75 -157.75 -31.25 -168.1 L-31.15 -168.3 -30.95 -168.45 Q19.8 -188.2 55.0 -165.4 M55.3 -84.4 Q53.95 -110.2 50.75 -149.35 49.75 -149.35 47.85 -150.05 47.85 -150.65 48.25 -150.8 51.8 -150.9 52.7 -151.35 L52.8 -151.4 Q53.8 -153.85 54.25 -156.45 L54.55 -160.4 54.25 -164.7 Q19.55 -186.9 -30.35 -167.6 -32.65 -157.65 -27.65 -146.7 L-27.1 -144.75 -28.2 -32.8 -28.25 -32.55 Q-31.1 -27.25 -28.45 -21.9 -20.65 -19.2 -13.4 -17.25 -6.3 -15.05 14.1 -11.0 34.5 -7.0 56.8 -21.85 58.1 -27.2 54.2 -34.25 L54.1 -34.6 54.3 -34.85 Q57.65 -37.9 55.45 -81.7 L55.45 -81.75 55.3 -84.4 M46.65 -51.4 L46.65 -51.45 Q43.05 -101.3 34.55 -153.7 L34.5 -154.15 34.25 -155.65 34.25 -155.8 34.2 -155.9 34.3 -156.3 34.6 -156.5 34.7 -156.5 34.8 -156.75 34.85 -156.85 34.95 -157.05 Q37.4 -160.75 37.75 -164.35 11.2 -172.65 -19.05 -165.15 L-24.35 -163.7 -24.85 -163.55 -25.8 -163.3 -24.05 -164.1 -23.45 -164.25 -23.4 -164.3 -22.75 -164.5 Q9.25 -174.45 37.85 -164.95 L38.1 -164.8 38.2 -164.55 Q38.6 -160.6 35.65 -156.2 L35.3 -156.0 35.25 -156.0 Q42.5 -111.7 45.95 -70.15 L46.3 -65.45 Q48.05 -43.35 48.7 -22.0 L48.45 -19.75 46.95 -47.4 46.65 -51.4" fill="#122113" fill-rule="evenodd" stroke="none"/>
    <path d="M71.6 -69.55 L71.1 -70.9 Q73.75 -69.6 73.8 -68.0 L73.8 -67.9 73.8 -67.85 Q73.5 -65.2 66.4 -61.5 L48.7 -64.35 54.2 -71.25 54.55 -71.25 54.1 -70.4 53.95 -70.05 53.25 -66.9 53.25 -66.65 53.25 -66.35 Q53.25 -66.1 53.75 -65.75 L54.2 -65.45 56.5 -64.45 56.95 -64.25 Q61.35 -62.55 65.75 -62.55 71.75 -67.8 71.75 -68.2 L71.6 -69.55 M56.85 -59.35 L51.85 -60.65 50.9 -60.5 Q50.75 -60.35 50.75 -59.75 50.75 -59.35 53.5 -46.5 L54.05 -43.45 55.7 -42.75 60.25 -41.0 54.3 -40.55 54.35 -39.25 54.45 -35.35 Q54.65 -34.15 56.2 -33.8 L62.1 -33.5 Q65.7 -33.5 66.5 -35.6 L66.5 -35.55 Q66.65 -34.5 67.1 -34.5 67.75 -34.5 67.5 -34.65 68.3 -37.3 70.2 -47.05 72.15 -56.9 72.15 -58.55 72.15 -60.9 71.75 -61.4 L69.3 -59.55 Q68.45 -58.9 66.8 -58.5 L66.85 -56.25 Q66.5 -51.8 66.5 -49.75 L66.0 -49.75 Q66.15 -51.5 64.2 -54.9 L62.45 -57.95 56.85 -59.35 M66.7 -60.55 Q71.8 -63.2 73.7 -65.45 L72.65 -38.55 Q73.45 -38.0 72.9 -36.4 71.7 -33.1 65.8 -29.0 L50.05 -31.85 50.2 -33.75 49.9 -33.35 48.55 -63.85 66.4 -60.5 66.7 -60.55 M66.6 -51.55 L66.9 -52.8 Q67.25 -51.15 67.25 -47.8 67.25 -44.6 66.9 -41.7 L66.65 -39.45 66.6 -39.75 66.6 -51.55" fill="#1b301c" fill-rule="evenodd" stroke="none"/>
    <path d="M56.85 -59.35 L62.45 -57.95 64.2 -54.9 Q66.15 -51.5 66.0 -49.75 L66.5 -49.75 Q66.5 -51.8 66.85 -56.25 L66.8 -58.5 Q68.45 -58.9 69.3 -59.55 L71.75 -61.4 Q72.15 -60.9 72.15 -58.55 72.15 -56.9 70.2 -47.05 68.3 -37.3 67.5 -34.65 67.75 -34.5 67.1 -34.5 66.65 -34.5 66.5 -35.55 L66.5 -35.6 Q65.7 -33.5 62.1 -33.5 L56.2 -33.8 Q54.65 -34.15 54.45 -35.35 L54.35 -39.25 54.3 -40.55 60.25 -41.0 55.7 -42.75 54.05 -43.45 53.5 -46.5 Q50.75 -59.35 50.75 -59.75 50.75 -60.35 50.9 -60.5 L51.85 -60.65 56.85 -59.35 M66.6 -51.55 L66.6 -39.75 66.65 -39.45 66.9 -41.7 Q67.25 -44.6 67.25 -47.8 67.25 -51.15 66.9 -52.8 L66.6 -51.55 M67.65 -54.3 L68.0 -53.45 Q68.45 -52.65 69.0 -52.65 70.35 -52.65 71.5 -58.5 L71.35 -59.75 Q69.9 -59.5 68.7 -57.15 67.65 -55.25 67.65 -54.3 M70.75 -50.7 Q70.75 -52.3 69.6 -51.55 68.4 -50.85 68.4 -49.0 L68.5 -48.25 69.75 -48.15 Q70.15 -48.15 70.5 -49.25 L70.75 -50.7" fill="#244225" fill-rule="evenodd" stroke="none"/>
    <path d="M70.75 -50.7 L70.5 -49.25 Q70.15 -48.15 69.75 -48.15 L68.5 -48.25 68.4 -49.0 Q68.4 -50.85 69.6 -51.55 70.75 -52.3 70.75 -50.7 M67.65 -54.3 Q67.65 -55.25 68.7 -57.15 69.9 -59.5 71.35 -59.75 L71.5 -58.5 Q70.35 -52.65 69.0 -52.65 68.45 -52.65 68.0 -53.45 L67.65 -54.3" fill="#335e34" fill-rule="evenodd" stroke="none"/>
    <path d="M57.3 -71.8 L57.45 -72.0 Q58.4 -71.3 60.15 -70.9 L59.45 -70.8 Q57.85 -70.3 57.85 -68.0 57.95 -67.2 58.5 -66.5 59.6 -65.05 62.0 -65.05 64.45 -65.05 65.7 -66.4 L66.85 -68.4 Q64.15 -70.05 62.25 -70.65 L64.75 -70.55 Q66.55 -70.55 68.25 -71.95 L68.7 -72.35 70.1 -70.95 70.85 -70.05 Q69.5 -69.35 68.05 -67.6 66.1 -65.3 66.1 -64.65 L65.85 -63.95 65.7 -63.7 65.4 -63.55 Q65.5 -63.3 65.0 -63.3 62.35 -63.3 59.0 -64.5 L56.95 -65.3 56.65 -65.25 Q55.85 -65.25 55.5 -66.9 L55.25 -68.8 Q55.25 -69.8 57.05 -71.6 L57.3 -71.8 M70.35 -67.75 L71.5 -69.15 71.55 -69.05 71.3 -68.55 70.35 -67.75 M54.1 -70.4 L54.55 -71.25 55.35 -72.25 54.1 -70.05 54.1 -70.15 54.1 -70.4 M53.25 -66.65 L53.75 -65.75 Q53.25 -66.1 53.25 -66.35 L53.25 -66.65" fill="#666666" fill-rule="evenodd" stroke="none"/>
    <path d="M69.25 -75.35 L69.0 -74.25 Q68.1 -73.15 64.85 -73.15 60.7 -73.15 58.95 -74.25 58.1 -74.8 58.0 -75.4 59.15 -77.6 64.3 -77.15 L67.8 -76.55 Q68.8 -76.1 69.25 -75.35 M60.85 -77.45 L60.15 -77.35 57.2 -75.95 Q58.15 -77.2 60.85 -77.45 M56.15 -73.0 L56.4 -72.65 57.3 -71.8 57.05 -71.6 Q55.25 -69.8 55.25 -68.8 L55.5 -66.9 Q55.85 -65.25 56.65 -65.25 L56.95 -65.3 59.0 -64.5 Q62.35 -63.3 65.0 -63.3 65.5 -63.3 65.4 -63.55 L65.7 -63.7 67.25 -64.85 69.15 -66.65 69.3 -66.8 69.7 -67.15 70.3 -67.65 70.35 -67.75 71.3 -68.55 71.55 -69.05 71.6 -69.55 71.75 -68.2 Q71.75 -67.8 65.75 -62.55 61.35 -62.55 56.95 -64.25 L56.5 -64.45 54.2 -65.45 53.75 -65.75 53.25 -66.65 53.25 -66.9 53.95 -70.05 54.1 -70.4 54.1 -70.15 54.1 -70.05 55.35 -72.25 56.15 -73.0 M60.4 -71.15 L59.5 -71.75 61.25 -71.75 61.0 -71.4 60.4 -71.15" fill="#333333" fill-rule="evenodd" stroke="none"/>
    <path d="M60.15 -70.9 L62.25 -70.65 Q64.15 -70.05 66.85 -68.4 L65.7 -66.4 Q64.45 -65.05 62.0 -65.05 59.6 -65.05 58.5 -66.5 57.95 -67.2 57.85 -68.0 57.85 -70.3 59.45 -70.8 L60.15 -70.9" fill="#999999" fill-rule="evenodd" stroke="none"/>
    <path d="M67.8 -76.55 L64.3 -77.15 Q59.15 -77.6 58.0 -75.4 58.1 -74.8 58.95 -74.25 60.7 -73.15 64.85 -73.15 68.1 -73.15 69.0 -74.25 L69.25 -75.35 Q69.65 -74.7 69.65 -73.85 L69.25 -72.95 69.35 -72.9 70.1 -72.25 71.1 -70.9 71.6 -69.55 71.55 -69.05 71.5 -69.15 70.35 -67.75 70.3 -67.65 69.7 -67.15 69.3 -66.8 69.15 -66.65 67.25 -64.85 65.7 -63.7 65.85 -63.95 66.1 -64.65 Q66.1 -65.3 68.05 -67.6 69.5 -69.35 70.85 -70.05 L70.1 -70.95 68.7 -72.35 68.25 -71.95 Q66.55 -70.55 64.75 -70.55 L62.25 -70.65 60.15 -70.9 Q58.4 -71.3 57.45 -72.0 L57.3 -71.8 56.4 -72.65 56.15 -73.0 56.6 -73.2 Q56.45 -73.65 56.6 -74.15 56.6 -75.2 57.2 -75.95 L60.15 -77.35 60.85 -77.45 61.5 -77.5 62.95 -77.5 63.15 -77.5 Q66.2 -77.4 67.8 -76.55 M60.4 -71.15 L61.0 -71.4 61.25 -71.75 59.5 -71.75 60.4 -71.15" fill="#202020" fill-rule="evenodd" stroke="none"/>
    <path d="M71.1 -70.9 L70.1 -72.25 70.45 -72.25 70.65 -72.2 Q74.95 -70.45 74.8 -68.0 L74.8 -67.9 73.45 -33.95 73.3 -33.6 72.95 -33.5 72.75 -33.5 Q71.3 -31.05 66.1 -28.05 L65.8 -28.0 49.4 -30.95 49.3 -30.95 49.15 -31.0 Q48.95 -31.0 48.85 -31.1 L48.65 -31.45 48.75 -31.8 48.95 -32.05 47.55 -63.5 47.4 -63.6 47.25 -63.85 47.25 -64.15 47.45 -64.4 54.65 -72.25 55.35 -72.25 54.55 -71.25 54.2 -71.25 48.7 -64.35 66.4 -61.5 Q73.5 -65.2 73.8 -67.85 L73.8 -67.9 73.8 -68.0 Q73.75 -69.6 71.1 -70.9 M66.7 -60.55 L66.4 -60.5 48.55 -63.85 49.9 -33.35 50.2 -33.75 50.05 -31.85 65.8 -29.0 Q71.7 -33.1 72.9 -36.4 73.45 -38.0 72.65 -38.55 L73.7 -65.45 Q71.8 -63.2 66.7 -60.55" fill="#122113" fill-rule="evenodd" stroke="none"/>
    <path d="M-3.2 -197.45 L-3.4 -197.05 Q-5.3 -192.75 -5.3 -187.95 -5.3 -185.75 -4.7 -184.05 -4.0 -182.05 -2.25 -180.0 L-1.05 -183.65 Q-0.35 -185.75 1.75 -187.0 L5.65 -187.05 Q6.2 -187.05 8.05 -186.1 9.85 -185.15 11.25 -185.15 11.85 -185.15 11.5 -185.3 11.7 -186.8 12.7 -190.0 13.55 -192.85 13.6 -194.3 13.65 -196.05 15.05 -198.65 L17.35 -203.15 12.6 -204.25 5.25 -204.3 Q0.45 -203.6 -2.3 -199.1 L0.95 -203.95 Q11.9 -206.55 20.45 -204.2 10.55 -185.95 17.1 -168.95 L15.5 -167.8 Q13.55 -166.75 6.7 -166.75 1.15 -166.75 -2.9 -171.4 -4.9 -173.8 -6.0 -176.4 -8.65 -187.0 -3.2 -197.45 M40.1 -205.15 L33.0 -205.25 Q26.9 -203.7 25.45 -201.0 L24.5 -196.25 Q22.25 -188.2 22.25 -186.85 22.25 -185.65 22.5 -184.7 L23.25 -182.15 23.85 -182.3 Q24.05 -183.55 25.2 -185.5 L27.0 -188.25 27.3 -186.7 Q27.6 -185.65 28.15 -185.65 28.8 -185.65 28.6 -185.8 L30.3 -190.95 32.0 -196.0 32.45 -196.8 32.25 -196.75 30.5 -196.75 30.0 -197.05 Q30.1 -197.6 30.5 -197.75 L32.25 -197.65 32.65 -197.15 Q33.75 -198.75 36.35 -200.65 L41.9 -204.4 40.1 -205.15 M42.05 -198.35 Q40.05 -195.55 38.95 -192.2 36.95 -187.85 36.95 -182.25 36.95 -176.35 39.15 -171.8 L39.15 -171.75 39.6 -170.65 Q40.9 -167.5 42.85 -166.5 47.2 -161.0 53.35 -161.0 60.0 -161.0 64.65 -167.5 66.3 -169.75 67.35 -172.35 66.0 -168.3 63.3 -164.95 57.95 -158.25 50.45 -158.25 L48.15 -158.4 48.05 -158.4 Q42.05 -159.4 37.6 -164.95 32.2 -171.7 32.2 -181.25 32.2 -190.8 37.6 -197.6 L37.6 -197.55 Q42.6 -203.8 49.45 -204.2 45.3 -202.85 42.05 -198.35 M58.7 -169.4 Q62.25 -174.7 62.7 -181.95 63.15 -189.4 59.1 -195.0 55.0 -200.75 49.65 -200.7 46.15 -200.75 43.35 -198.4 47.55 -203.8 53.35 -203.8 L54.45 -203.75 Q59.9 -203.25 63.85 -197.75 66.35 -194.2 67.45 -189.8 L67.5 -189.7 Q68.25 -186.5 68.25 -182.9 68.25 -174.35 64.0 -168.25 L61.4 -168.0 Q60.45 -168.0 58.7 -169.4 M58.25 -201.45 Q55.3 -203.05 53.05 -203.25 50.65 -203.5 50.65 -201.95 50.65 -201.1 51.5 -200.9 59.2 -199.25 61.25 -196.05 62.4 -192.4 64.0 -190.75 L65.5 -190.55 65.75 -190.65 65.85 -191.6 Q65.85 -197.3 58.25 -201.45 M22.45 -169.1 Q15.8 -186.8 26.4 -204.9 37.6 -206.6 46.7 -204.8 41.1 -203.55 36.8 -198.2 31.2 -191.2 31.2 -181.25 31.2 -173.45 34.7 -167.45 33.35 -166.9 30.1 -166.9 27.25 -166.9 24.35 -168.3 L22.45 -169.1 M55.35 -173.75 Q56.15 -176.85 55.25 -179.65 53.9 -183.9 50.8 -186.85 L50.8 -186.9 Q48.55 -190.1 45.35 -190.05 42.15 -190.1 39.9 -186.9 L39.9 -186.85 Q38.45 -184.8 37.95 -182.2 L37.95 -182.25 Q37.95 -187.6 39.85 -191.8 L39.85 -191.85 39.9 -191.9 Q40.5 -193.4 41.45 -194.7 44.8 -199.75 49.65 -199.7 54.5 -199.65 58.3 -194.4 62.15 -189.1 61.7 -182.0 61.4 -177.3 59.75 -173.45 L55.5 -173.7 55.35 -173.75 M49.55 -164.75 Q47.75 -164.75 46.2 -165.45 L48.0 -165.4 49.3 -164.85 49.55 -164.75 M45.25 -165.95 L45.2 -166.0 45.25 -166.0 45.25 -165.95 M48.95 -166.55 Q50.15 -166.95 51.1 -167.5 50.05 -166.5 49.25 -166.5 L48.95 -166.55 M58.5 -189.0 Q58.5 -190.9 56.1 -193.0 53.25 -195.45 49.25 -195.5 48.5 -195.4 48.4 -195.05 L48.15 -194.5 52.8 -189.65 Q56.15 -186.15 56.5 -186.15 57.6 -186.15 58.5 -189.0 M26.35 -196.25 Q25.8 -196.25 25.5 -196.55 25.85 -197.0 26.75 -197.3 L28.0 -197.65 28.3 -197.55 28.4 -197.05 Q28.4 -196.25 26.35 -196.25 M12.5 -197.15 L13.5 -196.5 13.45 -196.1 13.0 -196.0 10.25 -196.25 9.75 -196.55 Q9.75 -196.95 10.25 -197.15 L12.5 -197.15 M5.65 -196.15 L4.25 -195.75 3.75 -195.85 3.6 -196.05 4.9 -196.9 6.5 -197.4 6.9 -196.9 Q6.65 -196.55 5.65 -196.15 M1.1 -195.25 L-1.5 -195.5 -1.9 -195.8 Q-1.9 -196.25 -1.5 -196.4 L0.75 -196.4 1.65 -195.65 1.55 -195.4 Q1.5 -195.25 1.1 -195.25 M-13.4 -202.3 Q-16.15 -201.25 -19.4 -201.15 -25.35 -201.95 -27.85 -195.75 -29.3 -192.2 -29.3 -188.05 L-29.25 -184.7 Q-29.0 -183.1 -27.75 -181.55 -27.2 -182.45 -25.8 -186.3 -24.3 -189.75 -22.35 -189.75 -21.8 -189.75 -20.3 -187.55 -18.85 -185.4 -17.25 -185.4 -14.4 -185.4 -13.0 -186.8 -11.95 -187.9 -11.25 -190.55 L-9.65 -195.9 -10.0 -195.75 -11.75 -195.75 -11.8 -195.8 -11.9 -196.15 -11.8 -196.55 -9.65 -196.65 -9.5 -196.25 Q-8.05 -200.45 -6.5 -202.65 L-6.65 -203.0 Q-11.0 -203.2 -13.4 -202.3 M-31.6 -174.65 Q-32.55 -178.45 -32.55 -182.9 -32.55 -191.7 -28.85 -197.95 -25.25 -204.0 -20.15 -204.05 L-18.1 -203.75 -17.8 -203.75 Q-9.95 -206.7 -2.65 -204.9 -16.4 -187.15 -8.75 -170.25 L-9.6 -169.85 -10.3 -169.45 -10.35 -169.45 -12.25 -169.0 -12.95 -169.0 Q-19.2 -169.2 -27.65 -172.15 L-29.35 -172.75 Q-30.7 -173.65 -31.6 -174.65 M-14.6 -196.0 L-15.0 -195.75 -16.5 -195.75 -16.55 -195.8 -16.65 -196.15 -16.55 -196.55 -14.4 -196.3 -14.6 -196.0 M-19.1 -196.45 L-19.05 -196.05 -19.95 -195.45 Q-20.9 -195.05 -21.35 -195.05 -22.0 -195.05 -21.9 -195.25 L-22.0 -195.4 -20.7 -196.1 -19.3 -196.5 -19.1 -196.45 M-24.4 -194.9 L-25.4 -194.5 -26.5 -193.8 -27.05 -194.05 -26.0 -194.8 -24.8 -195.25 -24.4 -194.9" fill="#333333" fill-rule="evenodd" stroke="none"/>
    <path d="M-2.3 -199.1 Q0.45 -203.6 5.25 -204.3 L12.6 -204.25 17.35 -203.15 15.05 -198.65 Q13.65 -196.05 13.6 -194.3 13.55 -192.85 12.7 -190.0 11.7 -186.8 11.5 -185.3 11.85 -185.15 11.25 -185.15 9.85 -185.15 8.05 -186.1 6.2 -187.05 5.65 -187.05 L1.75 -187.0 Q-0.35 -185.75 -1.05 -183.65 L-2.25 -180.0 Q-4.0 -182.05 -4.7 -184.05 -5.3 -185.75 -5.3 -187.95 -5.3 -192.75 -3.4 -197.05 L-3.2 -197.45 -3.2 -197.5 -2.85 -198.15 -2.3 -199.1 M40.1 -205.15 L41.9 -204.4 36.35 -200.65 Q33.75 -198.75 32.65 -197.15 L32.25 -197.65 30.5 -197.75 Q30.1 -197.6 30.0 -197.05 L30.5 -196.75 32.25 -196.75 32.45 -196.8 32.0 -196.0 30.3 -190.95 28.6 -185.8 Q28.8 -185.65 28.15 -185.65 27.6 -185.65 27.3 -186.7 L27.0 -188.25 25.2 -185.5 Q24.05 -183.55 23.85 -182.3 L23.25 -182.15 22.5 -184.7 Q22.25 -185.65 22.25 -186.85 22.25 -188.2 24.5 -196.25 L25.45 -201.0 Q26.9 -203.7 33.0 -205.25 L40.1 -205.15 M58.25 -201.45 Q65.85 -197.3 65.85 -191.6 L65.75 -190.65 65.5 -190.55 64.0 -190.75 Q62.4 -192.4 61.25 -196.05 59.2 -199.25 51.5 -200.9 50.65 -201.1 50.65 -201.95 50.65 -203.5 53.05 -203.25 55.3 -203.05 58.25 -201.45 M58.5 -189.0 Q57.6 -186.15 56.5 -186.15 56.15 -186.15 52.8 -189.65 L48.15 -194.5 48.4 -195.05 Q48.5 -195.4 49.25 -195.5 53.25 -195.45 56.1 -193.0 58.5 -190.9 58.5 -189.0 M1.1 -195.25 Q1.5 -195.25 1.55 -195.4 L1.65 -195.65 0.75 -196.4 -1.5 -196.4 Q-1.9 -196.25 -1.9 -195.8 L-1.5 -195.5 1.1 -195.25 M5.65 -196.15 Q6.65 -196.55 6.9 -196.9 L6.5 -197.4 4.9 -196.9 3.6 -196.05 3.75 -195.85 4.25 -195.75 5.65 -196.15 M12.5 -197.15 L10.25 -197.15 Q9.75 -196.95 9.75 -196.55 L10.25 -196.25 13.0 -196.0 13.45 -196.1 13.5 -196.5 12.5 -197.15 M26.35 -196.25 Q28.4 -196.25 28.4 -197.05 L28.3 -197.55 28.0 -197.65 26.75 -197.3 Q25.85 -197.0 25.5 -196.55 25.8 -196.25 26.35 -196.25 M-13.4 -202.3 Q-11.0 -203.2 -6.65 -203.0 L-6.5 -202.65 Q-8.05 -200.45 -9.5 -196.25 L-9.65 -196.65 -11.8 -196.55 -11.9 -196.15 -11.8 -195.8 -11.75 -195.75 -10.0 -195.75 -9.65 -195.9 -11.25 -190.55 Q-11.95 -187.9 -13.0 -186.8 -14.4 -185.4 -17.25 -185.4 -18.85 -185.4 -20.3 -187.55 -21.8 -189.75 -22.35 -189.75 -24.3 -189.75 -25.8 -186.3 -27.2 -182.45 -27.75 -181.55 -29.0 -183.1 -29.25 -184.7 L-29.3 -188.05 Q-29.3 -192.2 -27.85 -195.75 -25.35 -201.95 -19.4 -201.15 -16.15 -201.25 -13.4 -202.3 M-19.1 -196.45 L-19.3 -196.5 -20.7 -196.1 -22.0 -195.4 -21.9 -195.25 Q-22.0 -195.05 -21.35 -195.05 -20.9 -195.05 -19.95 -195.45 L-19.05 -196.05 -19.1 -196.45 M-14.6 -196.0 L-14.4 -196.3 -16.55 -196.55 -16.65 -196.15 -16.55 -195.8 -16.5 -195.75 -15.0 -195.75 -14.6 -196.0 M-24.4 -194.9 L-24.8 -195.25 -26.0 -194.8 -27.05 -194.05 -26.5 -193.8 -25.4 -194.5 -24.4 -194.9" fill="#515151" fill-rule="evenodd" stroke="none"/>
    <path d="M23.75 -202.1 Q18.35 -191.35 19.05 -180.45 L15.8 -180.55 Q15.1 -191.05 20.2 -201.55 L23.75 -202.1 M-3.25 -202.4 L-2.7 -202.3 -1.6 -202.1 Q-8.1 -192.55 -7.9 -182.8 L-10.1 -183.25 Q-10.0 -192.85 -3.25 -202.4" fill="#cccccc" fill-rule="evenodd" stroke="none"/>
    <path d="M20.2 -201.55 L20.95 -203.05 21.5 -204.05 25.15 -204.75 24.3 -203.1 23.75 -202.1 20.2 -201.55 M19.05 -180.45 L19.15 -179.35 Q19.3 -177.2 19.75 -175.05 L16.55 -175.1 15.9 -179.35 15.8 -180.55 19.05 -180.45 M-1.6 -202.1 L-2.7 -202.3 -3.25 -202.4 -2.7 -203.15 -1.6 -204.65 -0.15 -204.15 -0.95 -203.1 -1.45 -202.35 -1.6 -202.1 M-10.1 -183.25 L-7.9 -182.8 -7.85 -181.5 -7.1 -176.5 -8.65 -176.7 -9.45 -176.75 -10.1 -181.55 -10.1 -183.25" fill="#7d7d7d" fill-rule="evenodd" stroke="none"/>
    <path d="M-3.2 -197.45 Q-8.65 -187.0 -6.0 -176.4 -5.35 -173.6 -4.05 -170.75 -1.8 -165.7 2.25 -160.55 13.6 -156.9 20.85 -161.4 18.75 -164.85 17.4 -168.3 L17.1 -168.95 Q10.55 -185.95 20.45 -204.2 11.9 -206.55 0.95 -203.95 L-2.3 -199.1 -2.85 -198.15 -3.2 -197.5 -3.2 -197.45 M23.75 -202.1 L24.3 -203.1 25.15 -204.75 21.5 -204.05 20.95 -203.05 20.2 -201.55 Q15.1 -191.05 15.8 -180.55 L15.9 -179.35 16.55 -175.1 16.8 -174.05 Q18.5 -166.85 22.95 -159.55 L26.55 -158.5 Q21.8 -166.15 20.05 -173.75 L20.0 -173.9 19.95 -174.2 19.8 -175.05 19.75 -175.05 Q19.3 -177.2 19.15 -179.35 L19.05 -180.45 Q18.35 -191.35 23.75 -202.1 M21.15 -205.0 L26.05 -205.9 Q39.15 -207.85 49.45 -205.2 L50.45 -205.25 54.55 -204.75 Q60.4 -204.25 64.65 -198.35 67.3 -194.65 68.45 -190.0 69.7 -186.0 69.7 -181.25 69.7 -171.3 64.1 -164.3 L64.1 -164.35 Q58.45 -157.25 50.45 -157.25 L48.05 -157.35 Q40.35 -154.15 27.7 -157.25 L27.5 -157.25 27.35 -157.3 22.6 -158.6 Q13.95 -155.7 1.95 -159.6 -7.4 -157.05 -19.85 -160.75 L-20.15 -160.75 -21.25 -160.8 Q-26.2 -161.4 -29.7 -167.35 -33.55 -173.8 -33.55 -182.9 -33.55 -192.0 -29.7 -198.45 -25.75 -205.1 -20.15 -205.05 L-18.05 -204.75 Q-9.6 -207.9 -1.75 -205.7 L-1.55 -205.65 0.75 -204.9 Q12.25 -207.65 21.15 -205.0 M64.0 -168.25 Q68.25 -174.35 68.25 -182.9 68.25 -186.5 67.5 -189.7 L67.45 -189.8 Q66.35 -194.2 63.85 -197.75 59.9 -203.25 54.45 -203.75 L53.35 -203.8 Q47.55 -203.8 43.35 -198.4 46.15 -200.75 49.65 -200.7 55.0 -200.75 59.1 -195.0 63.15 -189.4 62.7 -181.95 62.25 -174.7 58.7 -169.4 L58.65 -169.25 58.0 -168.4 Q55.75 -165.4 52.95 -164.35 50.05 -162.0 53.35 -162.0 58.8 -162.0 62.85 -166.8 L63.85 -168.1 64.0 -168.25 M42.05 -198.35 Q45.3 -202.85 49.45 -204.2 42.6 -203.8 37.6 -197.55 L37.6 -197.6 Q32.2 -190.8 32.2 -181.25 32.2 -171.7 37.6 -164.95 42.05 -159.4 48.05 -158.4 L48.15 -158.4 50.45 -158.25 Q57.95 -158.25 63.3 -164.95 66.0 -168.3 67.35 -172.35 66.3 -169.75 64.65 -167.5 60.0 -161.0 53.35 -161.0 47.2 -161.0 42.85 -166.5 40.9 -167.5 39.6 -170.65 L39.15 -171.75 39.15 -171.8 Q36.95 -176.35 36.95 -182.25 36.95 -187.85 38.95 -192.2 40.05 -195.55 42.05 -198.35 M34.7 -167.45 Q31.2 -173.45 31.2 -181.25 31.2 -191.2 36.8 -198.2 41.1 -203.55 46.7 -204.8 37.6 -206.6 26.4 -204.9 15.8 -186.8 22.45 -169.1 L22.8 -168.25 Q24.55 -163.85 27.45 -159.4 42.1 -156.75 46.25 -157.75 40.9 -159.2 36.8 -164.35 L36.8 -164.3 34.95 -166.95 34.7 -167.45 M59.75 -173.45 Q61.4 -177.3 61.7 -182.0 62.15 -189.1 58.3 -194.4 54.5 -199.65 49.65 -199.7 44.8 -199.75 41.45 -194.7 40.5 -193.4 39.9 -191.9 L39.85 -191.85 39.85 -191.8 Q37.95 -187.6 37.95 -182.25 L37.95 -182.2 Q38.45 -184.8 39.9 -186.85 L39.9 -186.9 Q42.15 -190.1 45.35 -190.05 48.55 -190.1 50.8 -186.9 L50.8 -186.85 Q53.9 -183.9 55.25 -179.65 56.15 -176.85 55.35 -173.75 L54.3 -171.1 54.15 -170.8 54.05 -170.55 54.0 -170.5 52.0 -168.15 51.15 -167.55 51.1 -167.5 Q50.15 -166.95 48.95 -166.55 L48.9 -166.55 48.55 -166.45 45.75 -166.0 45.25 -166.0 45.2 -166.0 45.25 -165.95 46.2 -165.45 Q47.75 -164.75 49.55 -164.75 L49.6 -164.75 Q54.4 -164.75 57.8 -169.8 58.95 -171.55 59.75 -173.45 M45.35 -189.05 Q42.65 -189.0 40.7 -186.3 38.7 -183.45 38.7 -179.4 38.7 -175.85 40.05 -172.2 L40.1 -172.15 41.45 -169.8 Q42.25 -168.55 43.2 -167.6 L43.35 -167.45 43.55 -167.25 44.85 -167.0 Q47.55 -167.05 49.7 -171.1 52.0 -175.3 52.0 -179.4 52.0 -183.45 50.0 -186.3 48.05 -189.0 45.35 -189.05 M-8.75 -170.25 Q-16.4 -187.15 -2.65 -204.9 -9.95 -206.7 -17.8 -203.75 L-18.1 -203.75 -20.15 -204.05 Q-25.25 -204.0 -28.85 -197.95 -32.55 -191.7 -32.55 -182.9 -32.55 -178.45 -31.6 -174.65 L-31.1 -172.85 -30.95 -172.4 -30.9 -172.3 -30.75 -171.85 Q-30.0 -169.75 -28.85 -167.85 -25.6 -162.4 -21.1 -161.8 L-20.15 -161.75 -19.8 -161.75 -19.65 -161.7 Q-9.8 -158.8 -3.2 -161.35 -5.85 -164.65 -7.6 -168.0 L-8.1 -168.95 -8.2 -169.15 -8.3 -169.35 -8.75 -170.25 M-1.6 -202.1 L-1.45 -202.35 -0.95 -203.1 -0.15 -204.15 -1.6 -204.65 -2.7 -203.15 -3.25 -202.4 Q-10.0 -192.85 -10.1 -183.25 L-10.1 -181.55 -9.45 -176.75 -9.2 -175.7 Q-7.25 -168.1 -1.15 -160.45 L-1.05 -160.1 -1.05 -159.95 1.1 -160.4 Q-4.85 -168.05 -6.85 -175.55 L-7.1 -176.5 -7.85 -181.5 -7.9 -182.8 Q-8.1 -192.55 -1.6 -202.1" fill="#1f1f1f" fill-rule="evenodd" stroke="none"/>
    <path d="M-6.0 -176.4 Q-4.9 -173.8 -2.9 -171.4 1.15 -166.75 6.7 -166.75 13.55 -166.75 15.5 -167.8 L17.1 -168.95 17.4 -168.3 Q18.75 -164.85 20.85 -161.4 13.6 -156.9 2.25 -160.55 -1.8 -165.7 -4.05 -170.75 -5.35 -173.6 -6.0 -176.4 M64.0 -168.25 L63.85 -168.1 62.85 -166.8 Q58.8 -162.0 53.35 -162.0 50.05 -162.0 52.95 -164.35 55.75 -165.4 58.0 -168.4 L58.65 -169.25 58.7 -169.4 Q60.45 -168.0 61.4 -168.0 L64.0 -168.25 M34.7 -167.45 L34.95 -166.95 36.8 -164.3 36.8 -164.35 Q40.9 -159.2 46.25 -157.75 42.1 -156.75 27.45 -159.4 24.55 -163.85 22.8 -168.25 L22.45 -169.1 24.35 -168.3 Q27.25 -166.9 30.1 -166.9 33.35 -166.9 34.7 -167.45 M59.75 -173.45 Q58.95 -171.55 57.8 -169.8 54.4 -164.75 49.6 -164.75 L49.55 -164.75 49.3 -164.85 48.0 -165.4 46.2 -165.45 45.25 -165.95 45.25 -166.0 45.75 -166.0 48.55 -166.45 48.9 -166.55 48.95 -166.55 49.25 -166.5 Q50.05 -166.5 51.1 -167.5 L51.15 -167.55 52.0 -168.15 54.0 -170.5 54.05 -170.55 54.15 -170.8 54.3 -171.1 55.35 -173.75 55.5 -173.7 59.75 -173.45 M45.35 -189.05 Q48.05 -189.0 50.0 -186.3 52.0 -183.45 52.0 -179.4 52.0 -175.3 49.7 -171.1 47.55 -167.05 44.85 -167.0 L43.55 -167.25 43.35 -167.45 43.2 -167.6 Q42.25 -168.55 41.45 -169.8 L40.1 -172.15 40.05 -172.2 Q38.7 -175.85 38.7 -179.4 38.7 -183.45 40.7 -186.3 42.65 -189.0 45.35 -189.05 M-8.75 -170.25 L-8.3 -169.35 -8.2 -169.15 -8.1 -168.95 -7.6 -168.0 Q-5.85 -164.65 -3.2 -161.35 -9.8 -158.8 -19.65 -161.7 L-19.8 -161.75 -20.15 -161.75 -21.1 -161.8 Q-25.6 -162.4 -28.85 -167.85 -30.0 -169.75 -30.75 -171.85 L-30.9 -172.3 -30.95 -172.4 -31.1 -172.85 -31.6 -174.65 Q-30.7 -173.65 -29.35 -172.75 L-27.65 -172.15 Q-19.2 -169.2 -12.95 -169.0 L-12.25 -169.0 -10.35 -169.45 -10.3 -169.45 -9.6 -169.85 -8.75 -170.25" fill="#252525" fill-rule="evenodd" stroke="none"/>
    <path d="M19.75 -175.05 L19.8 -175.05 19.95 -174.2 20.0 -173.9 20.05 -173.75 Q21.8 -166.15 26.55 -158.5 L22.95 -159.55 Q18.5 -166.85 16.8 -174.05 L16.55 -175.1 19.75 -175.05 M-7.1 -176.5 L-6.85 -175.55 Q-4.85 -168.05 1.1 -160.4 L-1.05 -159.95 -1.05 -160.1 -1.15 -160.45 Q-7.25 -168.1 -9.2 -175.7 L-9.45 -176.75 -8.65 -176.7 -7.1 -176.5" fill="#666666" fill-rule="evenodd" stroke="none"/>
  </g>
</svg>
