<?xml version="1.0" encoding="UTF-8" standalone="no"?>
<svg xmlns:ffdec="https://www.free-decompiler.com/flash" xmlns:xlink="http://www.w3.org/1999/xlink" ffdec:objectType="shape" height="98.85px" width="94.95px" xmlns="http://www.w3.org/2000/svg">
  <g transform="matrix(1.0, 0.0, 0.0, 1.0, 28.4, -0.45)">
    <path d="M-15.95 24.85 Q-12.85 22.85 -8.55 22.85 L1.05 23.8 Q5.25 24.05 10.6 21.2 12.45 24.3 20.3 35.2 26.45 43.7 29.6 50.75 20.5 41.85 15.75 35.85 11.2 30.15 11.2 27.9 L11.35 23.9 Q6.2 25.4 -3.35 26.2 L-12.4 27.05 Q-15.25 28.6 -18.3 32.8 -20.95 36.45 -21.55 38.65 L-21.2 36.7 Q-21.35 35.3 -19.0 30.5 L-15.95 24.85" fill="#ebb794" fill-rule="evenodd" stroke="none"/>
    <path d="M53.2 27.85 Q54.55 30.35 55.25 35.05 55.85 38.85 55.85 42.55 L55.7 47.75 54.65 54.5 Q53.9 58.5 53.55 58.8 50.75 58.2 50.75 57.2 50.75 53.75 51.4 50.7 52.0 47.65 52.0 44.25 52.0 32.9 48.0 23.5 44.55 15.35 40.5 13.25 38.75 12.35 34.1 10.35 29.9 8.55 28.15 7.55 24.85 5.6 19.35 4.6 L10.05 3.15 24.5 2.05 Q30.4 2.05 38.95 6.05 43.45 8.15 48.55 11.05 53.0 13.0 58.0 24.75 62.45 35.05 63.85 43.55 L62.5 42.4 58.5 32.3 60.4 43.1 Q60.4 46.45 59.85 48.7 L58.4 52.9 Q58.6 45.35 56.5 36.9 54.8 30.05 53.15 27.65 L53.0 27.5 52.9 27.35 50.7 24.6 Q51.75 28.1 52.45 32.1 53.75 39.35 53.5 46.6 L54.05 41.9 54.3 38.2 Q54.3 32.75 53.2 27.85 M54.75 24.4 L57.1 30.1 58.15 32.45 Q59.15 30.25 56.05 23.55 53.0 17.1 51.1 16.3 L50.4 16.35 Q53.0 20.5 54.75 24.4 M43.1 68.95 Q46.5 57.75 46.5 46.5 46.5 34.45 43.25 27.8 39.95 21.05 31.85 16.75 L30.0 15.9 Q38.25 21.65 42.0 29.2 45.85 36.95 45.85 48.25 45.85 52.0 44.9 57.4 43.7 64.15 41.2 71.75 L37.85 75.85 33.95 80.4 Q35.05 77.3 36.95 74.05 L40.1 68.9 Q43.55 62.6 43.55 53.05 43.55 42.1 35.2 24.8 37.7 31.8 39.55 39.85 41.55 48.45 41.55 53.2 41.55 65.15 35.8 73.55 30.25 81.7 18.2 88.1 21.55 86.15 25.4 82.95 28.65 80.15 29.8 78.65 L29.75 78.75 33.1 74.65 Q36.75 68.5 38.05 64.55 39.25 60.85 39.25 56.1 39.25 35.35 20.45 13.45 L24.55 11.4 18.05 9.6 19.75 9.25 14.05 8.1 9.25 7.5 Q3.8 7.5 -0.05 9.3 L-5.55 12.3 -11.25 15.9 Q-4.5 10.55 2.1 7.95 7.95 5.6 13.05 5.6 17.55 5.6 23.55 7.75 28.95 9.7 30.45 11.25 L30.45 11.4 26.25 12.5 Q37.3 13.95 42.1 18.45 50.0 25.85 50.0 44.55 50.0 57.75 44.8 70.4 38.7 85.3 26.25 96.8 L31.3 90.6 Q35.4 85.15 37.7 80.6 L37.75 80.75 41.9 72.5 44.45 66.75 43.1 68.95 M13.55 9.3 L12.1 9.35 Q11.25 10.0 5.75 11.6 -0.65 13.45 -1.35 13.75 2.9 11.65 5.9 9.55 L13.55 9.3" fill="#593115" fill-rule="evenodd" stroke="none"/>
    <path d="M41.2 71.75 L40.15 74.45 37.6 80.25 37.7 80.6 Q35.4 85.15 31.3 90.6 L26.25 96.8 26.1 96.9 26.05 96.95 33.95 80.4 37.85 75.85 41.2 71.75 M41.9 72.5 L43.1 68.95 44.45 66.75 41.9 72.5 M18.2 88.1 Q33.25 76.65 33.25 63.75 33.25 55.45 28.3 46.25 L12.05 19.45 15.25 13.2 11.2 15.6 Q11.0 15.7 11.2 16.8 11.4 17.75 10.85 17.75 10.35 17.75 9.1 18.9 7.7 20.2 7.0 20.45 L3.8 21.2 0.3 21.4 -3.25 21.3 -10.45 20.95 Q-13.55 21.2 -16.05 22.45 L-13.4 21.0 Q-11.45 20.2 -6.0 19.4 1.75 18.25 10.0 12.5 L6.7 14.1 Q3.5 15.75 1.8 16.2 L-3.4 17.2 -8.95 18.15 Q-19.25 20.55 -24.8 30.95 L-25.65 32.65 -20.2 26.15 -23.1 31.9 Q-24.1 34.6 -25.2 41.3 L-26.4 36.65 -27.05 33.25 Q-27.05 30.0 -23.55 26.25 -20.55 23.05 -11.25 15.9 L-5.55 12.3 -7.75 14.6 Q-5.55 13.45 -1.95 12.05 2.7 10.2 5.9 9.55 2.9 11.65 -1.35 13.75 -0.65 13.45 5.75 11.6 11.25 10.0 12.1 9.35 L13.55 9.3 15.45 9.5 18.05 9.6 24.55 11.4 20.45 13.45 Q39.25 35.35 39.25 56.1 39.25 60.85 38.05 64.55 36.75 68.5 33.1 74.65 35.7 69.55 36.2 67.7 37.3 63.75 37.3 55.9 37.3 45.8 32.75 34.8 27.6 22.4 19.25 16.5 L25.25 25.85 Q29.7 32.95 31.55 37.55 33.05 41.35 34.35 48.15 35.55 54.35 35.55 57.15 35.55 61.05 33.5 68.5 31.55 75.5 29.8 78.65 28.65 80.15 25.4 82.95 21.55 86.15 18.2 88.1" fill="#75401c" fill-rule="evenodd" stroke="none"/>
    <path d="M53.0 27.5 L53.15 27.65 Q54.8 30.05 56.5 36.9 58.6 45.35 58.4 52.9 L59.85 48.7 Q60.4 46.45 60.4 43.1 L58.5 32.3 62.5 42.4 63.85 43.55 Q62.45 35.05 58.0 24.75 53.0 13.0 48.55 11.05 43.45 8.15 38.95 6.05 30.4 2.05 24.5 2.05 L10.05 3.15 19.35 4.6 Q24.85 5.6 28.15 7.55 29.9 8.55 34.1 10.35 38.75 12.35 40.5 13.25 44.55 15.35 48.0 23.5 52.0 32.9 52.0 44.25 52.0 47.65 51.4 50.7 50.75 53.75 50.75 57.2 50.75 58.2 53.55 58.8 53.9 58.5 54.65 54.5 L55.7 47.75 55.85 42.55 Q55.85 38.85 55.25 35.05 54.55 30.35 53.2 27.85 L53.05 27.6 53.0 27.5 M-15.95 24.85 Q-22.9 30.0 -24.0 48.05 L-24.9 46.45 Q-26.25 44.05 -27.3 40.6 -28.4 36.85 -28.4 34.1 -28.4 29.1 -21.85 22.8 -15.95 17.15 -3.3 9.05 0.0 6.9 1.75 5.15 3.1 3.75 4.5 3.05 9.7 0.45 18.7 0.45 35.75 0.45 47.6 9.4 63.05 21.1 66.55 46.4 66.5 47.1 65.5 47.1 64.9 47.1 63.55 45.85 L62.3 44.6 Q62.2 50.15 61.0 53.0 60.4 54.55 59.45 55.65 58.85 55.6 57.8 54.85 L56.9 54.15 55.5 57.75 53.8 61.15 50.65 59.5 Q48.65 69.8 41.2 81.45 33.15 94.0 23.9 99.3 L27.55 92.3 Q30.9 85.3 31.95 80.4 29.4 84.0 22.4 87.05 16.55 89.6 13.9 89.65 22.35 85.65 27.55 77.4 31.95 70.35 31.95 64.4 31.95 60.45 31.4 58.35 30.15 53.65 29.6 50.75 26.45 43.7 20.3 35.2 12.45 24.3 10.6 21.2 5.25 24.05 1.05 23.8 L-8.55 22.85 Q-12.85 22.85 -15.95 24.85 M26.25 96.8 Q38.7 85.3 44.8 70.4 50.0 57.75 50.0 44.55 50.0 25.85 42.1 18.45 37.3 13.95 26.25 12.5 L30.45 11.4 30.45 11.25 Q28.95 9.7 23.55 7.75 17.55 5.6 13.05 5.6 7.95 5.6 2.1 7.95 -4.5 10.55 -11.25 15.9 -20.55 23.05 -23.55 26.25 -27.05 30.0 -27.05 33.25 L-26.4 36.65 -25.2 41.3 Q-24.1 34.6 -23.1 31.9 L-20.2 26.15 -16.05 22.45 Q-13.55 21.2 -10.45 20.95 L-3.25 21.3 0.3 21.4 3.8 21.2 7.0 20.45 Q7.7 20.2 9.1 18.9 10.35 17.75 10.85 17.75 11.4 17.75 11.2 16.8 11.0 15.7 11.2 15.6 L15.25 13.2 12.05 19.45 28.3 46.25 Q33.25 55.45 33.25 63.75 33.25 76.65 18.2 88.1 30.25 81.7 35.8 73.55 41.55 65.15 41.55 53.2 41.55 48.45 39.55 39.85 37.7 31.8 35.2 24.8 43.55 42.1 43.55 53.05 43.55 62.6 40.1 68.9 L36.95 74.05 Q35.05 77.3 33.95 80.4 L26.05 96.95 26.1 96.9 26.25 96.8" fill="#311a0b" fill-rule="evenodd" stroke="none"/>
    <path d="M53.2 27.85 Q54.3 32.75 54.3 38.2 L54.05 41.9 53.5 46.6 Q53.75 39.35 52.45 32.1 51.75 28.1 50.7 24.6 L52.9 27.35 53.0 27.5 53.05 27.6 53.2 27.85 M41.2 71.75 Q43.7 64.15 44.9 57.4 45.85 52.0 45.85 48.25 45.85 36.95 42.0 29.2 38.25 21.65 30.0 15.9 L31.85 16.75 Q39.95 21.05 43.25 27.8 46.5 34.45 46.5 46.5 46.5 57.75 43.1 68.95 L41.9 72.5 37.75 80.75 37.7 80.6 37.6 80.25 40.15 74.45 41.2 71.75 M54.75 24.4 Q53.0 20.5 50.4 16.35 L51.1 16.3 Q53.0 17.1 56.05 23.55 59.15 30.25 58.15 32.45 L57.1 30.1 54.75 24.4 M-16.05 22.45 L-20.2 26.15 -25.65 32.65 -24.8 30.95 Q-19.25 20.55 -8.95 18.15 L-3.4 17.2 1.8 16.2 Q3.5 15.75 6.7 14.1 L10.0 12.5 Q1.75 18.25 -6.0 19.4 -11.45 20.2 -13.4 21.0 L-16.05 22.45 M-5.55 12.3 L-0.05 9.3 Q3.8 7.5 9.25 7.5 L14.05 8.1 19.75 9.25 18.05 9.6 15.45 9.5 13.55 9.3 5.9 9.55 Q2.7 10.2 -1.95 12.05 -5.55 13.45 -7.75 14.6 L-5.55 12.3 M33.1 74.65 L29.75 78.75 29.8 78.65 Q31.55 75.5 33.5 68.5 35.55 61.05 35.55 57.15 35.55 54.35 34.35 48.15 33.05 41.35 31.55 37.55 29.7 32.95 25.25 25.85 L19.25 16.5 Q27.6 22.4 32.75 34.8 37.3 45.8 37.3 55.9 37.3 63.75 36.2 67.7 35.7 69.55 33.1 74.65" fill="#a47620" fill-rule="evenodd" stroke="none"/>
  </g>
</svg>
