<?xml version="1.0" encoding="UTF-8" standalone="no"?>
<svg xmlns:ffdec="https://www.free-decompiler.com/flash" xmlns:xlink="http://www.w3.org/1999/xlink" ffdec:objectType="shape" height="32.85px" width="63.05px" xmlns="http://www.w3.org/2000/svg">
  <g transform="matrix(1.0, 0.0, 0.0, 1.0, 3.5, 5.75)">
    <path d="M5.55 4.7 Q7.9 2.05 13.95 -0.3 19.2 -2.35 21.35 -2.3 L19.4 -0.15 Q12.6 1.4 9.3 4.6 6.35 7.5 6.35 11.55 6.35 13.0 6.8 13.75 7.15 14.3 7.65 14.3 L25.45 12.55 Q32.85 15.15 35.8 15.9 L41.3 16.55 Q44.9 16.55 48.7 15.4 L49.7 15.1 Q50.35 15.0 50.8 14.7 L51.05 14.55 Q53.15 13.6 54.1 12.45 L54.75 14.3 55.15 15.65 Q55.15 17.3 54.0 18.0 52.75 18.75 49.65 18.75 L45.1 17.75 Q40.1 16.7 30.4 16.7 L14.5 17.7 5.3 18.65 Q3.2 18.65 2.6 18.0 1.65 16.95 1.8 13.1 3.3 11.6 4.5 8.2 L5.55 4.7" fill="#3f3f3f" fill-rule="evenodd" stroke="none"/>
    <path d="M25.45 12.55 L7.65 14.3 Q7.15 14.3 6.8 13.75 6.35 13.0 6.35 11.55 6.35 7.5 9.3 4.6 12.6 1.4 19.4 -0.15 18.95 0.65 18.35 2.35 17.7 4.2 17.7 4.85 17.7 7.45 19.05 9.1 20.9 11.35 25.45 12.55" fill="#4e4e4e" fill-rule="evenodd" stroke="none"/>
    <path d="M54.9 27.1 L0.35 27.1 Q-2.05 23.95 -2.05 18.3 L-1.65 14.75 1.8 13.1 Q1.65 16.95 2.6 18.0 3.2 18.65 5.3 18.65 L14.5 17.7 30.4 16.7 Q40.1 16.7 45.1 17.75 L49.65 18.75 Q52.75 18.75 54.0 18.0 55.15 17.3 55.15 15.65 L54.75 14.3 54.1 12.45 55.35 11.4 Q56.75 13.9 58.05 19.7 L57.6 22.85 Q56.8 25.7 54.9 27.1 M6.8 2.0 Q8.1 0.65 13.2 -1.35 18.95 -3.6 23.0 -3.65 L21.35 -2.3 Q19.2 -2.35 13.95 -0.3 7.9 2.05 5.55 4.7 L6.8 2.0" fill="#373737" fill-rule="evenodd" stroke="none"/>
    <path d="M8.6 -0.85 L14.0 -3.3 Q19.4 -5.2 25.15 -5.3 L23.0 -3.65 Q18.95 -3.6 13.2 -1.35 8.1 0.65 6.8 2.0 L8.6 -0.85 M56.55 10.45 Q58.25 13.35 59.55 19.7 59.55 22.6 58.45 24.6 57.15 26.85 54.9 27.1 56.8 25.7 57.6 22.85 L58.05 19.7 Q56.75 13.9 55.35 11.4 L56.55 10.45 M0.35 27.1 Q-1.95 26.45 -2.9 23.0 -3.5 20.95 -3.5 18.8 L-3.25 15.55 -1.65 14.75 -2.05 18.3 Q-2.05 23.95 0.35 27.1" fill="#252525" fill-rule="evenodd" stroke="none"/>
    <path d="M21.35 -2.3 L26.5 -2.55 Q35.55 -2.55 44.1 2.9 51.0 7.3 54.1 12.45 53.15 13.6 51.05 14.55 51.45 14.15 51.45 13.6 51.45 12.7 49.85 10.35 47.75 7.3 44.5 4.95 34.7 -2.25 19.4 -0.15 L21.35 -2.3 M5.55 4.7 L4.5 8.2 Q3.3 11.6 1.8 13.1 2.0 11.4 2.55 9.6 3.65 6.1 5.55 4.7 M49.7 15.1 L48.7 15.4 Q44.9 16.55 41.3 16.55 L35.8 15.9 Q32.85 15.15 25.45 12.55 L44.15 14.55 49.25 15.1 49.7 15.1" fill="#887a5e" fill-rule="evenodd" stroke="none"/>
    <path d="M25.15 -5.3 L32.1 -4.65 34.7 -4.3 Q36.1 -4.3 38.25 -5.0 40.4 -5.75 41.6 -5.75 46.2 -5.75 52.0 -2.05 57.6 1.55 57.6 3.95 L57.05 5.15 Q56.15 6.4 54.5 7.65 L56.55 10.45 55.35 11.4 Q52.4 5.0 42.2 0.15 31.75 -4.85 23.0 -3.65 L25.15 -5.3 M-3.25 15.55 L-2.95 13.4 Q-2.75 12.25 0.9 8.1 L-1.65 14.75 -3.25 15.55 M3.75 4.5 Q7.55 -0.25 8.6 -0.85 L6.8 2.0 3.75 4.5 M37.1 -3.7 Q41.95 -2.5 46.95 0.8 51.35 3.7 53.55 6.5 54.75 5.65 55.95 4.05 49.9 -4.35 40.25 -4.35 L37.1 -3.7" fill="#453e30" fill-rule="evenodd" stroke="none"/>
    <path d="M0.9 8.1 Q2.25 6.25 3.75 4.5 L6.8 2.0 5.55 4.7 Q3.65 6.1 2.55 9.6 2.0 11.4 1.8 13.1 L-1.65 14.75 0.9 8.1 M37.1 -3.7 L40.25 -4.35 Q49.9 -4.35 55.95 4.05 54.75 5.65 53.55 6.5 51.35 3.7 46.95 0.8 41.95 -2.5 37.1 -3.7 M54.1 12.45 Q51.0 7.3 44.1 2.9 35.55 -2.55 26.5 -2.55 L21.35 -2.3 23.0 -3.65 Q31.75 -4.85 42.2 0.15 52.4 5.0 55.35 11.4 L54.1 12.45" fill="#796b53" fill-rule="evenodd" stroke="none"/>
    <path d="M51.05 14.55 L50.8 14.7 Q50.35 15.0 49.7 15.1 L49.25 15.1 44.15 14.55 25.45 12.55 Q20.9 11.35 19.05 9.1 17.7 7.45 17.7 4.85 17.7 4.2 18.35 2.35 18.95 0.65 19.4 -0.15 34.7 -2.25 44.5 4.95 47.75 7.3 49.85 10.35 51.45 12.7 51.45 13.6 51.45 14.15 51.05 14.55" fill="#9a8b6d" fill-rule="evenodd" stroke="none"/>
  </g>
</svg>
