<?xml version="1.0" encoding="UTF-8" standalone="no"?>
<svg xmlns:ffdec="https://www.free-decompiler.com/flash" xmlns:xlink="http://www.w3.org/1999/xlink" ffdec:objectType="shape" height="32.2px" width="63.0px" xmlns="http://www.w3.org/2000/svg">
  <g transform="matrix(1.0, 0.0, 0.0, 1.0, 3.65, 8.3)">
    <path d="M16.6 -4.5 L20.05 -5.2 25.3 -5.75 30.9 -5.35 Q29.8 0.55 36.6 3.0 39.55 4.1 51.6 5.7 L52.8 7.7 53.25 8.8 53.15 9.5 52.85 9.5 41.5 6.85 Q30.8 4.2 24.6 4.2 16.85 4.2 9.75 6.65 6.15 7.85 4.05 9.05 3.4 9.05 3.3 8.75 L3.3 7.75 3.5 6.0 Q8.95 6.0 12.8 2.95 16.6 -0.15 16.6 -4.5 M28.5 -3.25 Q27.1 -4.15 25.15 -4.15 23.2 -4.15 21.8 -3.25 20.4 -2.4 20.4 -1.15 20.4 0.1 21.8 1.0 23.2 1.85 25.15 1.85 27.1 1.85 28.5 1.0 29.9 0.1 29.9 -1.15 29.9 -2.4 28.5 -3.25" fill="#3f3f3f" fill-rule="evenodd" stroke="none"/>
    <path d="M28.5 -3.25 Q29.9 -2.4 29.9 -1.15 29.9 0.1 28.5 1.0 27.1 1.85 25.15 1.85 23.2 1.85 21.8 1.0 20.4 0.1 20.4 -1.15 20.4 -2.4 21.8 -3.25 23.2 -4.15 25.15 -4.15 27.1 -4.15 28.5 -3.25" fill="#4e4e4e" fill-rule="evenodd" stroke="none"/>
    <path d="M30.9 -5.35 L25.3 -5.75 20.05 -5.2 16.6 -4.5 17.45 -6.05 24.0 -6.9 31.0 -6.55 30.9 -5.35 M3.5 6.0 L3.3 7.75 3.3 8.75 Q3.4 9.05 4.05 9.05 6.15 7.85 9.75 6.65 16.85 4.2 24.6 4.2 30.8 4.2 41.5 6.85 L52.85 9.5 53.15 9.5 53.25 8.8 52.8 7.7 51.6 5.7 53.35 5.65 Q55.05 7.9 56.6 12.15 57.9 15.7 57.9 16.8 57.9 18.5 56.55 21.05 L54.7 23.9 0.15 23.9 Q-2.2 21.2 -2.2 15.6 -2.2 11.9 -0.95 8.3 1.2 7.1 3.45 6.0 L3.5 6.0" fill="#373737" fill-rule="evenodd" stroke="none"/>
    <path d="M31.0 -6.55 L24.0 -6.9 17.45 -6.05 19.0 -7.9 24.9 -8.25 30.9 -8.15 31.0 -6.55 M-2.85 9.6 L-0.95 8.3 Q-2.2 11.9 -2.2 15.6 -2.2 21.2 0.15 23.9 -2.2 23.15 -3.05 20.45 -3.65 18.6 -3.65 15.35 L-3.35 12.55 -2.85 9.6 M53.35 5.65 L55.25 5.65 Q57.55 9.05 59.35 16.2 59.35 19.4 58.25 21.4 57.0 23.6 54.7 23.9 L56.55 21.05 Q57.9 18.5 57.9 16.8 57.9 15.7 56.6 12.15 55.05 7.9 53.35 5.65" fill="#252525" fill-rule="evenodd" stroke="none"/>
    <path d="M17.45 -6.05 Q15.7 -4.9 14.45 -4.9 L12.4 -4.75 Q9.4 -3.65 -0.95 8.3 L-2.85 9.6 Q-1.6 3.15 5.1 -1.9 11.35 -6.65 19.0 -7.9 L17.45 -6.05 M31.0 -6.55 L30.9 -8.15 Q37.2 -8.3 46.05 -2.2 52.6 2.3 55.25 5.65 L53.35 5.65 Q48.3 -0.5 41.9 -3.45 37.85 -5.3 31.0 -6.55" fill="#453e30" fill-rule="evenodd" stroke="none"/>
    <path d="M30.9 -5.35 L31.0 -6.55 Q37.85 -5.3 41.9 -3.45 48.3 -0.5 53.35 5.65 L51.6 5.7 Q49.45 3.05 42.9 -0.85 35.35 -5.4 30.9 -5.35 M17.45 -6.05 L16.6 -4.5 Q11.95 -3.4 7.6 0.7 4.15 3.95 3.45 6.0 1.2 7.1 -0.95 8.3 9.4 -3.65 12.4 -4.75 L14.45 -4.9 Q15.7 -4.9 17.45 -6.05" fill="#796b53" fill-rule="evenodd" stroke="none"/>
    <path d="M16.6 -4.5 Q16.6 -0.15 12.8 2.95 8.95 6.0 3.5 6.0 L3.45 6.0 Q4.15 3.95 7.6 0.7 11.95 -3.4 16.6 -4.5 M51.6 5.7 Q39.55 4.1 36.6 3.0 29.8 0.55 30.9 -5.35 35.35 -5.4 42.9 -0.85 49.45 3.05 51.6 5.7 M36.95 -1.05 Q36.25 -1.05 35.75 -0.65 35.25 -0.3 35.25 0.2 35.25 0.7 35.75 1.1 36.25 1.45 36.95 1.45 L38.15 1.1 Q38.65 0.7 38.65 0.2 38.65 -0.3 38.15 -0.65 37.65 -1.05 36.95 -1.05" fill="#887a5e" fill-rule="evenodd" stroke="none"/>
    <path d="M36.95 -1.05 Q37.65 -1.05 38.15 -0.65 38.65 -0.3 38.65 0.2 38.65 0.7 38.15 1.1 L36.95 1.45 Q36.25 1.45 35.75 1.1 35.25 0.7 35.25 0.2 35.25 -0.3 35.75 -0.65 36.25 -1.05 36.95 -1.05" fill="#9a8b6d" fill-rule="evenodd" stroke="none"/>
  </g>
</svg>
