<?xml version="1.0" encoding="UTF-8" standalone="no"?>
<svg xmlns:ffdec="https://www.free-decompiler.com/flash" xmlns:xlink="http://www.w3.org/1999/xlink" ffdec:objectType="shape" height="212.15px" width="212.2px" xmlns="http://www.w3.org/2000/svg">
  <g transform="matrix(1.0, 0.0, 0.0, 1.0, 0.05, 0.0)">
    <path d="M40.9 133.0 Q46.7 156.65 63.65 168.55 82.6 181.8 117.25 181.8 145.2 181.8 164.2 162.3 171.75 154.5 176.45 144.95 179.75 138.2 180.25 130.45 L180.8 130.25 Q189.2 127.6 195.35 124.65 191.5 151.75 176.3 168.2 152.9 193.55 103.45 193.55 63.8 193.55 42.65 174.55 25.55 159.15 13.45 122.9 20.5 126.85 31.25 130.25 L40.9 133.0" fill="#7e7e7e" fill-rule="evenodd" stroke="none"/>
    <path d="M180.35 129.1 L180.35 128.45 180.25 125.2 180.2 123.9 179.6 111.3 178.25 87.85 178.15 86.25 177.9 82.95 177.8 81.6 177.5 78.25 Q175.85 59.75 168.2 46.65 160.6 33.5 147.9 24.35 135.2 15.15 102.25 14.6 69.3 14.05 52.05 39.5 41.65 54.85 39.15 80.3 L39.0 81.65 38.75 84.95 38.7 85.7 Q38.3 91.5 38.3 97.8 38.3 106.95 38.55 113.2 38.7 118.45 39.05 121.7 L39.85 126.2 40.1 127.55 40.65 131.6 31.65 129.05 Q20.3 125.45 13.2 121.3 L12.3 107.8 Q12.3 102.5 12.75 97.3 L12.9 95.6 13.45 91.05 13.7 89.5 Q15.1 80.2 17.95 71.2 23.95 52.5 45.2 29.2 66.4 5.85 96.45 4.95 126.45 4.05 144.1 11.35 161.7 18.6 175.45 34.05 189.2 49.5 195.05 71.6 197.25 79.9 197.85 89.2 L197.95 90.7 198.1 94.8 198.1 96.9 Q198.1 106.35 196.55 116.8 L196.3 118.45 195.6 122.65 195.55 123.1 Q189.25 126.25 180.4 129.05 L180.35 129.1 M13.45 122.9 Q25.55 159.15 42.65 174.55 63.8 193.55 103.45 193.55 152.9 193.55 176.3 168.2 191.5 151.75 195.35 124.65 207.2 118.9 210.7 112.05 207.5 152.9 180.15 180.15 149.5 210.85 106.05 210.9 62.6 210.85 31.9 180.15 4.65 152.95 1.5 112.25 4.5 117.95 13.45 122.9" fill="#5f5f5f" fill-rule="evenodd" stroke="none"/>
    <path d="M180.25 130.45 Q179.75 138.2 176.45 144.95 171.75 154.5 164.2 162.3 145.2 181.8 117.25 181.8 82.6 181.8 63.65 168.55 46.7 156.65 40.9 133.0 68.85 140.05 106.05 140.05 149.5 140.05 180.25 130.45" fill="#8e8e8e" fill-rule="evenodd" stroke="none"/>
    <path d="M180.35 129.1 L180.4 129.05 Q189.25 126.25 195.55 123.1 207.55 117.15 210.15 110.0 L210.2 109.85 210.25 109.75 Q210.85 107.95 210.9 106.05 L210.9 105.85 210.9 105.65 210.75 100.35 Q208.8 60.55 180.15 31.9 149.5 1.25 106.05 1.25 62.6 1.25 31.9 31.9 3.3 60.55 1.4 100.3 1.25 102.95 1.25 105.65 L1.25 106.5 1.3 107.3 1.45 108.1 Q2.75 115.25 13.2 121.3 20.3 125.45 31.65 129.05 L40.65 131.6 Q68.65 138.75 106.05 138.8 149.6 138.75 180.35 129.1 M212.15 105.65 L212.15 106.55 212.15 108.55 Q211.25 150.9 181.05 181.05 150.0 212.15 106.05 212.15 62.1 212.15 31.0 181.05 0.85 150.9 0.05 108.55 L0.0 107.05 0.0 106.05 0.0 105.85 0.0 105.65 Q0.1 61.95 31.0 31.0 62.1 -0.05 106.05 0.0 150.0 -0.05 181.05 31.0 212.0 61.95 212.15 105.65 M40.9 133.0 L31.25 130.25 Q20.5 126.85 13.45 122.9 4.5 117.95 1.5 112.25 4.65 152.95 31.9 180.15 62.6 210.85 106.05 210.9 149.5 210.85 180.15 180.15 207.5 152.9 210.7 112.05 207.2 118.9 195.35 124.65 189.2 127.6 180.8 130.25 L180.25 130.45 Q149.5 140.05 106.05 140.05 68.85 140.05 40.9 133.0" fill="#000000" fill-rule="evenodd" stroke="none"/>
    <path d="M195.55 123.1 L195.6 122.65 196.3 118.45 196.55 116.8 Q198.1 106.35 198.1 96.9 L198.1 94.8 197.95 90.7 197.85 89.2 Q197.25 79.9 195.05 71.6 189.2 49.5 175.45 34.05 161.7 18.6 144.1 11.35 126.45 4.05 96.45 4.95 66.4 5.85 45.2 29.2 23.95 52.5 17.95 71.2 15.1 80.2 13.7 89.5 L13.45 91.05 12.9 95.6 12.75 97.3 Q12.3 102.5 12.3 107.8 L13.2 121.3 Q2.75 115.25 1.45 108.1 L1.3 107.3 1.25 106.5 1.25 105.65 Q1.25 102.95 1.4 100.3 3.3 60.55 31.9 31.9 62.6 1.25 106.05 1.25 149.5 1.25 180.15 31.9 208.8 60.55 210.75 100.35 L210.9 105.65 210.9 105.85 210.9 106.05 Q210.85 107.95 210.25 109.75 L210.2 109.85 210.15 110.0 Q207.55 117.15 195.55 123.1" fill="#4d4d4d" fill-rule="evenodd" stroke="none"/>
    <path d="M40.65 131.6 L40.1 127.55 39.85 126.2 39.05 121.7 Q38.7 118.45 38.55 113.2 38.3 106.95 38.3 97.8 38.3 91.5 38.7 85.7 L38.75 84.95 39.0 81.65 39.15 80.3 Q41.65 54.85 52.05 39.5 69.3 14.05 102.25 14.6 135.2 15.15 147.9 24.35 160.6 33.5 168.2 46.65 175.85 59.75 177.5 78.25 L177.8 81.6 177.9 82.95 178.15 86.25 178.25 87.85 179.6 111.3 180.2 123.9 180.25 125.2 180.35 128.45 180.35 129.1 Q149.6 138.75 106.05 138.8 68.65 138.75 40.65 131.6" fill="#6d6d6d" fill-rule="evenodd" stroke="none"/>
  </g>
</svg>
