<?xml version="1.0" encoding="UTF-8" standalone="no"?>
<svg xmlns:ffdec="https://www.free-decompiler.com/flash" xmlns:xlink="http://www.w3.org/1999/xlink" ffdec:objectType="shape" height="212.15px" width="212.2px" xmlns="http://www.w3.org/2000/svg">
  <g transform="matrix(1.0, 0.0, 0.0, 1.0, 0.05, 0.0)">
    <path d="M42.7 139.2 Q49.0 158.25 63.65 168.55 82.6 181.8 117.25 181.8 145.2 181.8 164.2 162.3 171.75 154.5 176.45 144.95 178.55 140.6 179.55 135.8 L180.85 135.35 Q188.75 132.3 194.65 128.9 190.25 153.05 176.3 168.2 152.9 193.55 103.45 193.55 63.8 193.55 42.65 174.55 26.6 160.15 15.0 127.45 21.65 131.6 31.25 135.35 36.75 137.45 42.7 139.2" fill="#7e7e7e" fill-rule="evenodd" stroke="none"/>
    <path d="M179.8 134.4 Q180.3 131.5 180.35 128.45 L180.25 125.2 180.2 123.9 179.6 111.3 178.25 87.85 178.15 86.25 177.9 82.95 177.8 81.6 177.5 78.25 Q175.85 59.75 168.2 46.65 160.6 33.5 147.9 24.35 135.2 15.15 102.25 14.6 69.3 14.05 52.05 39.5 41.65 54.85 39.15 80.3 L39.0 81.65 38.75 84.95 38.7 85.7 Q38.3 91.5 38.3 97.8 38.3 106.95 38.55 113.2 38.7 118.45 39.05 121.7 L39.85 126.2 40.1 127.55 40.7 132.2 Q41.4 135.05 42.25 137.75 36.75 136.15 31.7 134.2 21.2 130.15 14.3 125.55 L13.25 122.4 12.3 107.8 Q12.3 102.5 12.75 97.3 L12.9 95.6 13.45 91.05 13.7 89.5 Q15.1 80.2 17.95 71.2 23.95 52.5 45.2 29.2 66.4 5.85 96.45 4.95 126.45 4.05 144.1 11.35 161.7 18.6 175.45 34.05 189.2 49.5 195.05 71.6 197.25 79.9 197.85 89.2 L197.95 90.7 198.1 94.8 198.1 96.9 Q198.1 106.35 196.55 116.8 L196.3 118.45 195.6 122.65 194.95 127.3 Q188.8 130.9 180.4 134.2 L179.8 134.4 M15.0 127.45 Q26.6 160.15 42.65 174.55 63.8 193.55 103.45 193.55 152.9 193.55 176.3 168.2 190.25 153.05 194.65 128.9 206.9 121.9 210.6 113.55 206.95 153.4 180.15 180.15 149.5 210.85 106.05 210.9 62.6 210.85 31.9 180.15 5.2 153.5 1.65 113.8 5.0 121.15 15.0 127.45" fill="#5f5f5f" fill-rule="evenodd" stroke="none"/>
    <path d="M179.55 135.8 Q178.55 140.6 176.45 144.95 171.75 154.5 164.2 162.3 145.2 181.8 117.25 181.8 82.6 181.8 63.65 168.55 49.0 158.25 42.7 139.2 70.0 147.2 106.05 147.25 149.0 147.2 179.55 135.8" fill="#8e8e8e" fill-rule="evenodd" stroke="none"/>
    <path d="M179.8 134.4 L180.4 134.2 Q188.8 130.9 194.95 127.3 208.9 119.0 210.65 108.85 L210.15 110.0 210.8 107.65 210.9 106.05 210.9 105.85 210.9 105.65 210.75 100.35 Q208.8 60.55 180.15 31.9 149.5 1.25 106.05 1.25 62.6 1.25 31.9 31.9 3.3 60.55 1.4 100.3 1.25 102.95 1.25 105.65 L1.25 106.5 1.45 108.1 1.35 108.05 Q2.5 117.6 14.3 125.55 21.2 130.15 31.7 134.2 36.75 136.15 42.25 137.75 69.7 146.0 106.05 146.0 149.2 146.0 179.8 134.4 M212.15 105.65 L212.15 106.55 212.15 108.55 Q211.25 150.9 181.05 181.05 150.0 212.15 106.05 212.15 62.1 212.15 31.0 181.05 0.85 150.9 0.05 108.55 L0.0 107.25 0.0 106.05 0.0 105.85 0.0 105.65 Q0.1 61.95 31.0 31.0 62.1 -0.05 106.05 0.0 150.0 -0.05 181.05 31.0 212.0 61.95 212.15 105.65 M42.7 139.2 Q36.75 137.45 31.25 135.35 21.65 131.6 15.0 127.45 5.0 121.15 1.65 113.8 5.2 153.5 31.9 180.15 62.6 210.85 106.05 210.9 149.5 210.85 180.15 180.15 206.95 153.4 210.6 113.55 206.9 121.9 194.65 128.9 188.75 132.3 180.85 135.35 L179.55 135.8 Q149.0 147.2 106.05 147.25 70.0 147.2 42.7 139.2" fill="#000000" fill-rule="evenodd" stroke="none"/>
    <path d="M194.95 127.3 L195.6 122.65 196.3 118.45 196.55 116.8 Q198.1 106.35 198.1 96.9 L198.1 94.8 197.95 90.7 197.85 89.2 Q197.25 79.9 195.05 71.6 189.2 49.5 175.45 34.05 161.7 18.6 144.1 11.35 126.45 4.05 96.45 4.95 66.4 5.85 45.2 29.2 23.95 52.5 17.95 71.2 15.1 80.2 13.7 89.5 L13.45 91.05 12.9 95.6 12.75 97.3 Q12.3 102.5 12.3 107.8 L13.25 122.4 14.3 125.55 Q2.5 117.6 1.35 108.05 L1.45 108.1 1.25 106.5 1.25 105.65 Q1.25 102.95 1.4 100.3 3.3 60.55 31.9 31.9 62.6 1.25 106.05 1.25 149.5 1.25 180.15 31.9 208.8 60.55 210.75 100.35 L210.9 105.65 210.9 105.85 210.9 106.05 210.8 107.65 210.15 110.0 210.65 108.85 Q208.9 119.0 194.95 127.3" fill="#4d4d4d" fill-rule="evenodd" stroke="none"/>
    <path d="M42.25 137.75 Q41.4 135.05 40.7 132.2 L40.1 127.55 39.85 126.2 39.05 121.7 Q38.7 118.45 38.55 113.2 38.3 106.95 38.3 97.8 38.3 91.5 38.7 85.7 L38.75 84.95 39.0 81.65 39.15 80.3 Q41.65 54.85 52.05 39.5 69.3 14.05 102.25 14.6 135.2 15.15 147.9 24.35 160.6 33.5 168.2 46.65 175.85 59.75 177.5 78.25 L177.8 81.6 177.9 82.95 178.15 86.25 178.25 87.85 179.6 111.3 180.2 123.9 180.25 125.2 180.35 128.45 Q180.3 131.5 179.8 134.4 149.2 146.0 106.05 146.0 69.7 146.0 42.25 137.75" fill="#6d6d6d" fill-rule="evenodd" stroke="none"/>
  </g>
</svg>
