<?xml version="1.0" encoding="UTF-8" standalone="no"?>
<svg xmlns:ffdec="https://www.free-decompiler.com/flash" xmlns:xlink="http://www.w3.org/1999/xlink" ffdec:objectType="shape" height="42.8px" width="42.8px" xmlns="http://www.w3.org/2000/svg">
  <g transform="matrix(1.0, 0.0, 0.0, 1.0, 0.75, 2.05)">
    <path d="M36.35 17.05 L5.65 17.05 Q5.75 10.95 10.15 6.55 14.65 2.05 21.0 2.05 27.35 2.05 31.85 6.55 36.25 10.95 36.35 17.05" fill="#fbe64f" fill-rule="evenodd" stroke="none"/>
    <path d="M36.35 17.05 L36.35 17.4 36.35 17.65 Q36.3 21.0 35.0 23.8 L34.8 24.2 34.85 24.2 34.5 24.8 34.4 24.95 34.35 25.05 17.25 25.05 17.0 24.8 7.5 24.8 6.9 23.55 Q5.7 20.85 5.65 17.65 L5.65 17.4 5.65 17.05 36.35 17.05" fill="#f7ca00" fill-rule="evenodd" stroke="none"/>
    <path d="M5.65 17.05 L5.65 17.4 5.65 17.65 Q5.7 20.85 6.9 23.55 L7.5 24.8 17.0 24.8 17.25 25.05 34.35 25.05 34.4 24.95 34.5 24.8 34.85 24.2 34.8 24.2 35.0 23.8 Q36.3 21.0 36.35 17.65 L36.35 17.4 36.35 17.05 Q36.25 10.95 31.85 6.55 27.35 2.05 21.0 2.05 14.65 2.05 10.15 6.55 5.75 10.95 5.65 17.05 M33.0 5.95 Q38.2 11.15 38.2 18.45 38.2 25.75 33.0 30.9 27.85 36.1 20.55 36.1 13.25 36.1 8.05 30.9 2.9 25.75 2.9 18.45 2.9 11.15 8.05 5.95 13.25 0.8 20.55 0.8 27.85 0.8 33.0 5.95" fill="#dbb300" fill-rule="evenodd" stroke="none"/>
    <path d="M33.0 5.95 Q27.85 0.8 20.55 0.8 13.25 0.8 8.05 5.95 2.9 11.15 2.9 18.45 2.9 25.75 8.05 30.9 13.25 36.1 20.55 36.1 27.85 36.1 33.0 30.9 38.2 25.75 38.2 18.45 38.2 11.15 33.0 5.95 M20.65 40.25 Q12.0 40.25 5.85 34.1 -0.25 28.0 -0.25 19.35 -0.25 10.7 5.85 4.55 12.0 -1.55 20.65 -1.55 29.3 -1.55 35.4 4.55 41.55 10.7 41.55 19.35 41.55 28.0 35.4 34.1 29.3 40.25 20.65 40.25" fill="#8f7001" fill-rule="evenodd" stroke="none"/>
    <path d="M20.65 40.25 Q12.0 40.25 5.85 34.1 -0.25 28.0 -0.25 19.35 -0.25 10.7 5.85 4.55 12.0 -1.55 20.65 -1.55 29.3 -1.55 35.4 4.55 41.55 10.7 41.55 19.35 41.55 28.0 35.4 34.1 29.3 40.25 20.65 40.25 Z" fill="none" stroke="#000000" stroke-linecap="round" stroke-linejoin="round" stroke-width="1.0"/>
    <path d="M23.75 19.75 L31.15 27.15 27.6 30.7 20.2 23.3 13.0 30.5 9.5 27.0 16.7 19.8 9.3 12.4 12.85 8.85 20.25 16.25 27.85 8.65 31.35 12.15 23.75 19.75" fill="#5a3601" fill-rule="evenodd" stroke="none"/>
  </g>
</svg>
