<?xml version="1.0" encoding="UTF-8" standalone="no"?>
<svg xmlns:ffdec="https://www.free-decompiler.com/flash" xmlns:xlink="http://www.w3.org/1999/xlink" ffdec:objectType="shape" height="212.15px" width="212.2px" xmlns="http://www.w3.org/2000/svg">
  <g transform="matrix(1.0, 0.0, 0.0, 1.0, 0.05, 0.0)">
    <path d="M39.5 76.95 L39.15 80.3 39.0 81.65 38.75 84.95 38.7 85.7 Q38.3 91.5 38.3 97.8 38.3 106.95 38.55 113.2 38.7 118.45 39.05 121.7 L39.85 126.2 40.1 127.55 40.7 132.2 Q46.45 156.45 63.65 168.55 82.6 181.8 117.25 181.8 145.2 181.8 164.2 162.3 171.75 154.5 176.45 144.95 180.15 137.3 180.35 128.45 L180.25 125.2 180.2 123.9 179.6 111.3 178.25 87.85 178.15 86.25 177.9 82.95 177.8 81.6 177.55 78.55 180.4 79.55 Q190.85 83.35 197.75 87.7 L197.85 89.2 197.95 90.7 198.1 94.8 198.1 96.9 Q198.1 106.35 196.55 116.8 L196.3 118.45 195.6 122.65 Q192.05 151.15 176.3 168.2 152.9 193.55 103.45 193.55 63.8 193.55 42.65 174.55 25.4 159.05 13.25 122.4 L12.3 107.8 Q12.3 102.5 12.75 97.3 L12.9 95.6 13.45 91.05 13.7 89.5 13.95 87.95 Q20.9 83.45 31.7 79.55 L39.5 76.95" fill="#7e7e7e" fill-rule="evenodd" stroke="none"/>
    <path d="M13.95 87.95 L13.7 89.5 13.45 91.05 12.9 95.6 12.75 97.3 Q12.3 102.5 12.3 107.8 L13.25 122.4 Q25.4 159.05 42.65 174.55 63.8 193.55 103.45 193.55 152.9 193.55 176.3 168.2 192.05 151.15 195.6 122.65 L196.3 118.45 196.55 116.8 Q198.1 106.35 198.1 96.9 L198.1 94.8 197.95 90.7 197.85 89.2 197.75 87.7 Q210.8 95.9 210.9 106.0 L210.9 106.2 210.9 106.75 Q210.8 108.4 210.15 110.0 L210.95 108.0 Q208.8 151.6 180.15 180.15 149.5 210.85 106.05 210.9 62.6 210.85 31.9 180.15 3.25 151.55 1.25 108.0 L1.45 108.1 1.25 106.5 1.25 105.65 1.25 105.2 Q1.8 95.7 13.95 87.95 M197.6 86.1 Q190.8 82.0 180.85 78.4 L177.4 77.2 Q175.65 59.35 168.2 46.65 160.6 33.5 147.9 24.35 135.2 15.15 102.25 14.6 69.3 14.05 52.05 39.5 42.65 53.4 39.7 75.6 35.35 76.9 31.25 78.4 21.05 82.05 14.25 86.25 15.6 78.6 17.95 71.2 23.95 52.5 45.2 29.2 66.4 5.85 96.45 4.95 126.45 4.05 144.1 11.35 161.7 18.6 175.45 34.05 189.2 49.5 195.05 71.6 196.85 78.5 197.6 86.1" fill="#5f5f5f" fill-rule="evenodd" stroke="none"/>
    <path d="M177.55 78.55 L177.8 81.6 177.9 82.95 178.15 86.25 178.25 87.85 179.6 111.3 180.2 123.9 180.25 125.2 180.35 128.45 Q180.15 137.3 176.45 144.95 171.75 154.5 164.2 162.3 145.2 181.8 117.25 181.8 82.6 181.8 63.65 168.55 46.45 156.45 40.7 132.2 L40.1 127.55 39.85 126.2 39.05 121.7 Q38.7 118.45 38.55 113.2 38.3 106.95 38.3 97.8 38.3 91.5 38.7 85.7 L38.75 84.95 39.0 81.65 39.15 80.3 39.5 76.95 Q67.85 68.4 106.05 68.4 147.6 68.4 177.55 78.55" fill="#8e8e8e" fill-rule="evenodd" stroke="none"/>
    <path d="M177.55 78.55 Q147.6 68.4 106.05 68.4 67.85 68.4 39.5 76.95 L31.7 79.55 Q20.9 83.45 13.95 87.95 1.8 95.7 1.25 105.2 L1.25 105.65 1.25 106.5 1.45 108.1 1.25 108.0 Q3.25 151.55 31.9 180.15 62.6 210.85 106.05 210.9 149.5 210.85 180.15 180.15 208.8 151.6 210.95 108.0 L210.15 110.0 Q210.8 108.4 210.9 106.75 L210.9 106.2 210.9 106.0 Q210.8 95.9 197.75 87.7 190.85 83.35 180.4 79.55 L177.55 78.55 M177.4 77.2 L180.85 78.4 Q190.8 82.0 197.6 86.1 207.55 92.1 210.7 99.2 208.4 60.15 180.15 31.9 149.5 1.25 106.05 1.25 62.6 1.25 31.9 31.9 3.75 60.1 1.45 99.1 4.55 92.15 14.25 86.25 21.05 82.05 31.25 78.4 35.35 76.9 39.7 75.6 68.05 67.15 106.05 67.15 147.5 67.15 177.4 77.2 M212.15 105.65 L212.15 106.55 212.15 108.55 Q211.25 150.9 181.05 181.05 150.0 212.15 106.05 212.15 62.1 212.15 31.0 181.05 0.85 150.9 0.05 108.55 L0.0 106.55 0.0 106.2 0.0 106.0 0.0 104.9 Q0.35 61.7 31.0 31.0 62.1 -0.05 106.05 0.0 150.0 -0.05 181.05 31.0 212.0 61.95 212.15 105.65" fill="#000000" fill-rule="evenodd" stroke="none"/>
    <path d="M14.25 86.25 Q4.55 92.15 1.45 99.1 3.75 60.1 31.9 31.9 62.6 1.25 106.05 1.25 149.5 1.25 180.15 31.9 208.4 60.15 210.7 99.2 207.55 92.1 197.6 86.1 196.85 78.5 195.05 71.6 189.2 49.5 175.45 34.05 161.7 18.6 144.1 11.35 126.45 4.05 96.45 4.95 66.4 5.85 45.2 29.2 23.95 52.5 17.95 71.2 15.6 78.6 14.25 86.25" fill="#4d4d4d" fill-rule="evenodd" stroke="none"/>
    <path d="M177.4 77.2 Q147.5 67.15 106.05 67.15 68.05 67.15 39.7 75.6 42.65 53.4 52.05 39.5 69.3 14.05 102.25 14.6 135.2 15.15 147.9 24.35 160.6 33.5 168.2 46.65 175.65 59.35 177.4 77.2" fill="#6d6d6d" fill-rule="evenodd" stroke="none"/>
  </g>
</svg>
