<?xml version="1.0" encoding="UTF-8" standalone="no"?>
<svg xmlns:ffdec="https://www.free-decompiler.com/flash" xmlns:xlink="http://www.w3.org/1999/xlink" ffdec:objectType="shape" height="212.15px" width="212.2px" xmlns="http://www.w3.org/2000/svg">
  <g transform="matrix(1.0, 0.0, 0.0, 1.0, 0.05, 0.0)">
    <path d="M178.85 97.35 L180.55 97.55 Q191.15 98.85 198.05 100.3 197.8 108.2 196.55 116.8 L196.3 118.45 195.6 122.65 Q192.05 151.15 176.3 168.2 152.9 193.55 103.45 193.55 63.8 193.55 42.65 174.55 25.4 159.05 13.25 122.4 L12.3 107.8 12.5 100.6 Q19.7 99.0 31.55 97.55 L38.3 96.75 38.3 97.8 Q38.3 106.95 38.55 113.2 38.7 118.45 39.05 121.7 L39.85 126.2 40.1 127.55 40.7 132.2 Q46.45 156.45 63.65 168.55 82.6 181.8 117.25 181.8 145.2 181.8 164.2 162.3 171.75 154.5 176.45 144.95 180.15 137.3 180.35 128.45 L180.25 125.2 180.2 123.9 179.6 111.3 178.85 97.35" fill="#7e7e7e" fill-rule="evenodd" stroke="none"/>
    <path d="M198.05 100.3 Q210.8 102.95 210.9 106.05 L210.9 106.25 210.9 106.75 Q210.8 108.4 210.15 110.0 L210.95 108.0 Q208.8 151.6 180.15 180.15 149.5 210.85 106.05 210.9 62.6 210.85 31.9 180.15 3.25 151.55 1.25 108.0 L1.45 108.1 1.25 106.5 1.25 105.8 Q1.75 103.0 12.5 100.6 L12.3 107.8 13.25 122.4 Q25.4 159.05 42.65 174.55 63.8 193.55 103.45 193.55 152.9 193.55 176.3 168.2 192.05 151.15 195.6 122.65 L196.3 118.45 196.55 116.8 Q197.8 108.2 198.05 100.3 M198.1 99.05 Q191.1 97.55 180.7 96.3 L178.8 96.05 178.25 87.85 178.15 86.25 177.9 82.95 177.8 81.6 177.5 78.25 Q175.85 59.75 168.2 46.65 160.6 33.5 147.9 24.35 135.2 15.15 102.25 14.6 69.3 14.05 52.05 39.5 41.65 54.85 39.15 80.3 L39.0 81.65 38.75 84.95 38.7 85.7 Q38.35 90.45 38.3 95.5 L31.4 96.3 Q19.85 97.7 12.6 99.4 L12.75 97.3 12.9 95.6 13.45 91.05 13.7 89.5 Q15.1 80.2 17.95 71.2 23.95 52.5 45.2 29.2 66.4 5.85 96.45 4.95 126.45 4.05 144.1 11.35 161.7 18.6 175.45 34.05 189.2 49.5 195.05 71.6 197.25 79.9 197.85 89.2 L197.95 90.7 198.1 94.8 198.1 96.9 198.1 99.05" fill="#5f5f5f" fill-rule="evenodd" stroke="none"/>
    <path d="M38.3 96.75 Q67.1 93.75 106.05 93.75 148.55 93.75 178.85 97.35 L179.6 111.3 180.2 123.9 180.25 125.2 180.35 128.45 Q180.15 137.3 176.45 144.95 171.75 154.5 164.2 162.3 145.2 181.8 117.25 181.8 82.6 181.8 63.65 168.55 46.45 156.45 40.7 132.2 L40.1 127.55 39.85 126.2 39.05 121.7 Q38.7 118.45 38.55 113.2 38.3 106.95 38.3 97.8 L38.3 96.75" fill="#8e8e8e" fill-rule="evenodd" stroke="none"/>
    <path d="M198.05 100.3 Q191.15 98.85 180.55 97.55 L178.85 97.35 Q148.55 93.75 106.05 93.75 67.1 93.75 38.3 96.75 L31.55 97.55 Q19.7 99.0 12.5 100.6 1.75 103.0 1.25 105.8 L1.25 106.5 1.45 108.1 1.25 108.0 Q3.25 151.55 31.9 180.15 62.6 210.85 106.05 210.9 149.5 210.85 180.15 180.15 208.8 151.6 210.95 108.0 L210.15 110.0 Q210.8 108.4 210.9 106.75 L210.9 106.25 210.9 106.05 Q210.8 102.95 198.05 100.3 M178.8 96.05 L180.7 96.3 Q191.1 97.55 198.1 99.05 207.95 101.2 210.9 103.75 L210.75 100.35 Q208.8 60.55 180.15 31.9 149.5 1.25 106.05 1.25 62.6 1.25 31.9 31.9 3.3 60.55 1.4 100.3 L1.3 103.7 Q4.0 101.35 12.6 99.4 19.85 97.7 31.4 96.3 L38.3 95.5 Q67.1 92.45 106.05 92.5 148.45 92.45 178.8 96.05 M212.15 105.65 L212.15 106.55 212.15 108.55 Q211.25 150.9 181.05 181.05 150.0 212.15 106.05 212.15 62.1 212.15 31.0 181.05 0.85 150.9 0.05 108.55 L0.0 106.55 0.0 106.25 0.0 106.05 0.0 105.65 Q0.1 61.95 31.0 31.0 62.1 -0.05 106.05 0.0 150.0 -0.05 181.05 31.0 212.0 61.95 212.15 105.65" fill="#000000" fill-rule="evenodd" stroke="none"/>
    <path d="M12.6 99.4 Q4.0 101.35 1.3 103.7 L1.4 100.3 Q3.3 60.55 31.9 31.9 62.6 1.25 106.05 1.25 149.5 1.25 180.15 31.9 208.8 60.55 210.75 100.35 L210.9 103.75 Q207.95 101.2 198.1 99.05 L198.1 96.9 198.1 94.8 197.95 90.7 197.85 89.2 Q197.25 79.9 195.05 71.6 189.2 49.5 175.45 34.05 161.7 18.6 144.1 11.35 126.45 4.05 96.45 4.95 66.4 5.85 45.2 29.2 23.95 52.5 17.95 71.2 15.1 80.2 13.7 89.5 L13.45 91.05 12.9 95.6 12.75 97.3 12.6 99.4" fill="#4d4d4d" fill-rule="evenodd" stroke="none"/>
    <path d="M178.8 96.05 Q148.45 92.45 106.05 92.5 67.1 92.45 38.3 95.5 38.35 90.45 38.7 85.7 L38.75 84.95 39.0 81.65 39.15 80.3 Q41.65 54.85 52.05 39.5 69.3 14.05 102.25 14.6 135.2 15.15 147.9 24.35 160.6 33.5 168.2 46.65 175.85 59.75 177.5 78.25 L177.8 81.6 177.9 82.95 178.15 86.25 178.25 87.85 178.8 96.05" fill="#6d6d6d" fill-rule="evenodd" stroke="none"/>
  </g>
</svg>
