<?xml version="1.0" encoding="UTF-8" standalone="no"?>
<svg xmlns:ffdec="https://www.free-decompiler.com/flash" xmlns:xlink="http://www.w3.org/1999/xlink" ffdec:objectType="shape" height="103.6px" width="212.1px" xmlns="http://www.w3.org/2000/svg">
  <g transform="matrix(1.0, 0.0, 0.0, 1.0, -0.05, -35.55)">
    <path d="M6.8 35.55 L8.15 35.55 Q11.1 45.05 36.25 52.2 65.15 60.4 106.05 60.4 146.95 60.4 175.85 52.2 201.0 45.05 204.0 35.55 L205.35 35.55 Q202.6 45.95 176.2 53.4 147.15 61.6 106.05 61.65 64.95 61.6 35.9 53.4 9.5 45.95 6.8 35.55 M210.85 35.55 L212.15 35.55 Q211.25 77.9 181.05 108.05 150.0 139.15 106.05 139.15 62.1 139.15 31.0 108.05 0.85 77.9 0.05 35.55 L1.3 35.55 1.3 37.0 Q2.6 77.9 31.9 107.15 62.6 137.85 106.05 137.9 149.5 137.85 180.15 107.15 209.5 77.9 210.8 37.0 L210.85 35.55" fill="#000000" fill-rule="evenodd" stroke="none"/>
    <path d="M6.8 35.55 Q9.5 45.95 35.9 53.4 64.95 61.6 106.05 61.65 147.15 61.6 176.2 53.4 202.6 45.95 205.35 35.55 L210.85 35.55 210.8 37.0 Q208.45 43.5 198.15 49.05 L194.7 50.75 189.45 53.0 181.35 55.8 180.8 55.95 180.6 56.0 177.65 56.9 Q147.65 65.5 106.05 65.5 71.6 65.5 45.1 59.6 L40.55 58.55 Q28.9 55.3 24.75 53.8 20.65 52.3 12.95 48.5 L9.15 46.1 9.15 46.15 Q3.05 41.85 1.3 37.0 L1.3 35.55 6.8 35.55" fill="#d7d7d7" fill-rule="evenodd" stroke="none"/>
    <path d="M194.7 50.75 Q192.25 77.9 176.3 95.2 152.9 120.55 103.45 120.55 63.8 120.55 42.65 101.55 25.2 85.85 12.95 48.5 20.65 52.3 24.75 53.8 28.9 55.3 40.55 58.55 46.2 83.3 63.65 95.55 82.6 108.8 117.25 108.8 145.2 108.8 164.2 89.3 171.75 81.5 176.45 71.95 180.65 63.3 181.35 55.8 L189.45 53.0 194.7 50.75" fill="#7e7e7e" fill-rule="evenodd" stroke="none"/>
    <path d="M181.35 55.8 Q180.65 63.3 176.45 71.95 171.75 81.5 164.2 89.3 145.2 108.8 117.25 108.8 82.6 108.8 63.65 95.55 46.2 83.3 40.55 58.55 L45.1 59.6 Q71.6 65.5 106.05 65.5 147.65 65.5 177.65 56.9 L180.6 56.0 180.8 55.95 181.35 55.8" fill="#8e8e8e" fill-rule="evenodd" stroke="none"/>
    <path d="M12.95 48.5 Q25.2 85.85 42.65 101.55 63.8 120.55 103.45 120.55 152.9 120.55 176.3 95.2 192.25 77.9 194.7 50.75 L198.15 49.05 Q208.45 43.5 210.8 37.0 209.5 77.9 180.15 107.15 149.5 137.85 106.05 137.9 62.6 137.85 31.9 107.15 2.6 77.9 1.3 37.0 3.05 41.85 9.15 46.15 L9.15 46.1 12.95 48.5" fill="#5f5f5f" fill-rule="evenodd" stroke="none"/>
  </g>
</svg>
