<?xml version="1.0" encoding="UTF-8" standalone="no"?>
<svg xmlns:ffdec="https://www.free-decompiler.com/flash" xmlns:xlink="http://www.w3.org/1999/xlink" ffdec:objectType="shape" height="139.15px" width="325.3px" xmlns="http://www.w3.org/2000/svg">
  <g transform="matrix(1.0, 0.0, 0.0, 1.0, 56.55, 0.0)">
    <path d="M264.3 98.45 L264.4 94.8 264.55 94.65 265.3 94.5 Q265.95 94.5 266.15 95.25 L266.3 98.45 264.3 98.45 M266.3 117.45 L266.15 120.85 Q266.0 121.5 265.3 121.5 264.55 121.5 264.45 120.85 L264.3 117.45 266.3 117.45 M266.9 98.45 L266.9 95.8 267.4 96.45 267.75 98.45 266.9 98.45 M267.75 117.45 Q267.75 119.6 267.55 119.75 L266.9 120.1 266.9 117.45 267.75 117.45 M211.9 96.95 Q211.85 96.2 212.1 96.15 L212.85 95.8 212.85 98.45 212.0 98.45 211.9 96.95 M212.85 117.45 L212.85 120.1 212.25 119.75 Q212.1 119.65 212.05 118.55 L212.0 117.45 212.85 117.45 M213.45 98.45 L213.65 95.25 Q213.8 94.5 214.45 94.5 L215.2 94.65 215.4 94.8 215.45 98.45 213.45 98.45 M215.45 117.45 L215.35 120.85 Q215.2 121.5 214.45 121.5 213.8 121.5 213.65 120.85 L213.45 117.45 215.45 117.45" fill="#8b8b8b" fill-rule="evenodd" stroke="none"/>
    <path d="M266.3 98.45 L266.15 95.25 Q265.95 94.5 265.3 94.5 L264.55 94.65 264.4 94.8 264.3 98.45 264.3 104.45 264.3 111.2 264.3 117.45 264.45 120.85 Q264.55 121.5 265.3 121.5 266.0 121.5 266.15 120.85 L266.3 117.45 266.3 111.2 266.3 104.45 266.3 98.45 M267.75 98.45 L267.4 96.45 266.9 95.8 266.9 98.45 266.9 104.45 266.9 111.2 266.9 117.45 266.9 120.1 267.55 119.75 Q267.75 119.6 267.75 117.45 L267.75 111.2 267.75 104.45 267.75 98.45 M212.1 96.15 Q212.95 93.5 214.45 93.5 215.75 93.5 216.2 94.7 L216.45 96.6 238.95 97.25 263.3 96.8 Q261.95 93.55 264.9 94.2 267.3 94.75 268.75 96.05 L268.75 119.8 Q267.95 120.45 266.85 121.85 266.25 122.5 265.5 122.5 264.0 122.5 263.6 121.3 L263.3 119.6 249.25 118.95 238.95 118.6 216.45 119.55 Q216.4 122.5 214.65 122.5 211.65 122.5 211.2 120.2 210.95 118.95 210.95 108.1 210.95 100.6 211.9 96.95 L212.0 98.45 212.0 104.45 212.0 111.2 212.0 117.45 212.05 118.55 Q212.1 119.65 212.25 119.75 L212.85 120.1 212.85 117.45 212.85 111.2 212.85 104.45 212.85 98.45 212.85 95.8 212.1 96.15 M263.3 104.1 L263.3 97.55 253.45 98.65 241.7 99.45 229.1 98.9 216.45 97.6 216.45 104.7 216.45 111.7 216.45 118.55 221.25 118.05 231.7 117.05 238.95 116.85 251.15 117.25 Q263.3 117.85 263.3 118.6 L263.3 110.45 263.3 104.1 M215.45 98.45 L215.4 94.8 215.2 94.65 214.45 94.5 Q213.8 94.5 213.65 95.25 L213.45 98.45 213.45 104.45 213.45 111.2 213.45 117.45 213.65 120.85 Q213.8 121.5 214.45 121.5 215.2 121.5 215.35 120.85 L215.45 117.45 215.45 111.2 215.45 104.45 215.45 98.45" fill="#000000" fill-rule="evenodd" stroke="none"/>
    <path d="M266.3 98.45 L266.3 104.45 264.3 104.45 264.3 98.45 266.3 98.45 M266.3 111.2 L266.3 117.45 264.3 117.45 264.3 111.2 266.3 111.2 M267.75 98.45 L267.75 104.45 266.9 104.45 266.9 98.45 267.75 98.45 M267.75 111.2 L267.75 117.45 266.9 117.45 266.9 111.2 267.75 111.2 M212.85 98.45 L212.85 104.45 212.0 104.45 212.0 98.45 212.85 98.45 M212.85 111.2 L212.85 117.45 212.0 117.45 212.0 111.2 212.85 111.2 M213.45 98.45 L215.45 98.45 215.45 104.45 213.45 104.45 213.45 98.45 M215.45 111.2 L215.45 117.45 213.45 117.45 213.45 111.2 215.45 111.2" fill="#cccccc" fill-rule="evenodd" stroke="none"/>
    <path d="M216.45 104.7 L216.45 97.6 229.1 98.9 241.7 99.45 253.45 98.65 263.3 97.55 263.3 104.1 Q262.75 103.0 260.6 102.05 258.9 101.25 258.35 101.25 L241.05 102.75 235.0 102.0 221.7 101.25 Q220.15 101.25 218.55 102.4 217.3 103.35 216.45 104.7 M263.3 110.45 L263.3 118.6 Q263.3 117.85 251.15 117.25 L238.95 116.85 231.7 117.05 221.25 118.05 216.45 118.55 216.45 111.7 216.5 111.8 218.65 113.25 Q220.95 114.4 224.2 114.4 L232.05 114.2 257.6 113.5 260.9 113.85 263.3 110.45" fill="#202020" fill-rule="evenodd" stroke="none"/>
    <path d="M216.45 104.7 Q217.3 103.35 218.55 102.4 220.15 101.25 221.7 101.25 L235.0 102.0 241.05 102.75 258.35 101.25 Q258.9 101.25 260.6 102.05 262.75 103.0 263.3 104.1 L263.3 110.45 260.9 113.85 257.6 113.5 232.05 114.2 224.2 114.4 Q220.95 114.4 218.65 113.25 L216.5 111.8 216.45 111.7 216.45 104.7 M218.35 107.6 Q218.35 109.1 228.75 109.65 237.4 110.15 256.45 110.15 258.75 110.15 259.55 109.5 260.2 109.0 260.2 107.75 260.2 106.4 259.55 105.85 258.85 105.25 257.0 105.25 L253.4 105.3 243.25 106.45 Q239.15 107.0 232.5 106.35 L220.4 105.5 Q219.25 105.5 218.7 106.45 218.35 107.05 218.35 107.6" fill="#303030" fill-rule="evenodd" stroke="none"/>
    <path d="M218.35 107.6 Q218.35 107.05 218.7 106.45 219.25 105.5 220.4 105.5 L232.5 106.35 Q239.15 107.0 243.25 106.45 L253.4 105.3 257.0 105.25 Q258.85 105.25 259.55 105.85 260.2 106.4 260.2 107.75 260.2 109.0 259.55 109.5 258.75 110.15 256.45 110.15 237.4 110.15 228.75 109.65 218.35 109.1 218.35 107.6" fill="#4b4b4b" fill-rule="evenodd" stroke="none"/>
    <path d="M266.3 104.45 L266.3 111.2 264.3 111.2 264.3 104.45 266.3 104.45 M267.75 104.45 L267.75 111.2 266.9 111.2 266.9 104.45 267.75 104.45 M212.85 104.45 L212.85 111.2 212.0 111.2 212.0 104.45 212.85 104.45 M215.45 104.45 L215.45 111.2 213.45 111.2 213.45 104.45 215.45 104.45" fill="#ffffff" fill-rule="evenodd" stroke="none"/>
    <path d="M0.2 98.45 L0.3 96.95 Q1.25 100.6 1.25 108.1 L1.0 120.2 Q0.55 122.5 -2.45 122.5 -4.2 122.5 -4.25 119.55 L-26.75 118.6 -37.05 118.95 -51.1 119.6 -51.4 121.3 Q-51.8 122.5 -53.3 122.5 -54.05 122.5 -54.65 121.85 -55.75 120.45 -56.55 119.8 L-56.55 96.05 Q-55.1 94.75 -52.7 94.2 -49.75 93.55 -51.1 96.8 L-26.75 97.25 -4.25 96.6 -4.0 94.7 Q-3.55 93.5 -2.25 93.5 -0.75 93.5 0.1 96.15 -0.65 95.95 -0.65 95.8 L-0.65 98.45 -0.65 104.45 -0.65 111.2 -0.65 117.45 -0.65 120.1 -0.05 119.75 0.15 118.55 0.2 117.45 0.2 111.2 0.2 104.45 0.2 98.45 M-52.1 98.45 L-52.2 94.8 -52.35 94.65 -53.1 94.5 Q-53.75 94.5 -53.95 95.25 L-54.1 98.45 -54.1 104.45 -54.1 111.2 -54.1 117.45 -53.95 120.85 Q-53.8 121.5 -53.1 121.5 -52.35 121.5 -52.25 120.85 L-52.1 117.45 -52.1 111.2 -52.1 104.45 -52.1 98.45 M-54.7 98.45 L-54.7 95.8 Q-55.15 96.1 -55.2 96.45 L-55.55 98.45 -55.55 104.45 -55.55 111.2 -55.55 117.45 Q-55.55 119.6 -55.35 119.75 L-54.7 120.1 -54.7 117.45 -54.7 111.2 -54.7 104.45 -54.7 98.45 M-4.25 104.7 L-4.25 97.6 -16.9 98.9 -29.5 99.45 -41.25 98.65 -51.1 97.55 -51.1 104.1 -51.1 110.45 -51.1 118.6 Q-51.1 117.85 -38.95 117.25 L-26.75 116.85 -19.5 117.05 -9.05 118.05 -4.25 118.55 -4.25 111.7 -4.25 104.7 M-1.25 98.45 L-1.45 95.25 Q-1.6 94.5 -2.25 94.5 L-3.0 94.65 -3.2 94.8 -3.25 98.45 -3.25 104.45 -3.25 111.2 -3.25 117.45 -3.15 120.85 Q-3.0 121.5 -2.25 121.5 -1.6 121.5 -1.45 120.85 L-1.25 117.45 -1.25 111.2 -1.25 104.45 -1.25 98.45" fill="#000000" fill-rule="evenodd" stroke="none"/>
    <path d="M0.3 96.95 L0.2 98.45 -0.65 98.45 -0.65 95.8 Q-0.65 95.95 0.1 96.15 0.35 96.2 0.3 96.95 M0.2 117.45 L0.15 118.55 -0.05 119.75 -0.65 120.1 -0.65 117.45 0.2 117.45 M-54.1 98.45 L-53.95 95.25 Q-53.75 94.5 -53.1 94.5 L-52.35 94.65 -52.2 94.8 -52.1 98.45 -54.1 98.45 M-52.1 117.45 L-52.25 120.85 Q-52.35 121.5 -53.1 121.5 -53.8 121.5 -53.95 120.85 L-54.1 117.45 -52.1 117.45 M-55.55 98.45 L-55.2 96.45 Q-55.15 96.1 -54.7 95.8 L-54.7 98.45 -55.55 98.45 M-54.7 117.45 L-54.7 120.1 -55.35 119.75 Q-55.55 119.6 -55.55 117.45 L-54.7 117.45 M-3.25 98.45 L-3.2 94.8 -3.0 94.65 -2.25 94.5 Q-1.6 94.5 -1.45 95.25 L-1.25 98.45 -3.25 98.45 M-1.25 117.45 L-1.45 120.85 Q-1.6 121.5 -2.25 121.5 -3.0 121.5 -3.15 120.85 L-3.25 117.45 -1.25 117.45" fill="#8b8b8b" fill-rule="evenodd" stroke="none"/>
    <path d="M0.2 104.45 L0.2 111.2 -0.65 111.2 -0.65 104.45 0.2 104.45 M-52.1 104.45 L-52.1 111.2 -54.1 111.2 -54.1 104.45 -52.1 104.45 M-54.7 104.45 L-54.7 111.2 -55.55 111.2 -55.55 104.45 -54.7 104.45 M-1.25 104.45 L-1.25 111.2 -3.25 111.2 -3.25 104.45 -1.25 104.45" fill="#ffffff" fill-rule="evenodd" stroke="none"/>
    <path d="M-0.65 98.45 L0.2 98.45 0.2 104.45 -0.65 104.45 -0.65 98.45 M0.2 111.2 L0.2 117.45 -0.65 117.45 -0.65 111.2 0.2 111.2 M-54.1 98.45 L-52.1 98.45 -52.1 104.45 -54.1 104.45 -54.1 98.45 M-52.1 111.2 L-52.1 117.45 -54.1 117.45 -54.1 111.2 -52.1 111.2 M-55.55 98.45 L-54.7 98.45 -54.7 104.45 -55.55 104.45 -55.55 98.45 M-54.7 111.2 L-54.7 117.45 -55.55 117.45 -55.55 111.2 -54.7 111.2 M-1.25 98.45 L-1.25 104.45 -3.25 104.45 -3.25 98.45 -1.25 98.45 M-1.25 111.2 L-1.25 117.45 -3.25 117.45 -3.25 111.2 -1.25 111.2" fill="#cccccc" fill-rule="evenodd" stroke="none"/>
    <path d="M-51.1 104.1 L-51.1 97.55 -41.25 98.65 -29.5 99.45 -16.9 98.9 -4.25 97.6 -4.25 104.7 Q-5.1 103.35 -6.35 102.4 -7.95 101.25 -9.5 101.25 L-22.8 102.0 -28.85 102.75 -46.15 101.25 Q-46.7 101.25 -48.4 102.05 -50.55 103.0 -51.1 104.1 M-4.25 111.7 L-4.25 118.55 -9.05 118.05 -19.5 117.05 -26.75 116.85 -38.95 117.25 Q-51.1 117.85 -51.1 118.6 L-51.1 110.45 -48.7 113.85 -45.4 113.5 -19.85 114.2 -12.0 114.4 Q-8.75 114.4 -6.45 113.25 L-4.3 111.8 -4.25 111.7" fill="#202020" fill-rule="evenodd" stroke="none"/>
    <path d="M-4.25 104.7 L-4.25 111.7 -4.3 111.8 -6.45 113.25 Q-8.75 114.4 -12.0 114.4 L-19.85 114.2 -45.4 113.5 -48.7 113.85 -51.1 110.45 -51.1 104.1 Q-50.55 103.0 -48.4 102.05 -46.7 101.25 -46.15 101.25 L-28.85 102.75 -22.8 102.0 -9.5 101.25 Q-7.95 101.25 -6.35 102.4 -5.1 103.35 -4.25 104.7 M-6.15 107.6 Q-6.15 107.05 -6.5 106.45 -7.05 105.5 -8.2 105.5 L-20.3 106.35 Q-26.95 107.0 -31.05 106.45 L-41.2 105.3 -44.8 105.25 Q-46.65 105.25 -47.35 105.85 -48.0 106.4 -48.0 107.75 -48.0 109.0 -47.35 109.5 -46.55 110.15 -44.25 110.15 -25.2 110.15 -16.55 109.65 -6.15 109.1 -6.15 107.6" fill="#303030" fill-rule="evenodd" stroke="none"/>
    <path d="M-6.15 107.6 Q-6.15 109.1 -16.55 109.65 -25.2 110.15 -44.25 110.15 -46.55 110.15 -47.35 109.5 -48.0 109.0 -48.0 107.75 -48.0 106.4 -47.35 105.85 -46.65 105.25 -44.8 105.25 L-41.2 105.3 -31.05 106.45 Q-26.95 107.0 -20.3 106.35 L-8.2 105.5 Q-7.05 105.5 -6.5 106.45 -6.15 107.05 -6.15 107.6" fill="#4b4b4b" fill-rule="evenodd" stroke="none"/>
    <path d="M180.35 128.45 Q179.1 96.75 177.5 78.25 175.85 59.75 168.2 46.65 160.6 33.5 147.9 24.35 135.2 15.15 102.25 14.6 69.3 14.05 52.05 39.5 38.3 59.8 38.3 97.8 38.3 114.6 39.05 121.7 L40.75 130.95 Q29.5 127.85 25.4 126.4 21.45 124.95 13.9 121.3 L12.3 107.8 Q12.3 88.9 17.95 71.2 23.95 52.5 45.2 29.2 66.4 5.85 96.45 4.95 126.45 4.05 144.1 11.35 161.7 18.6 175.45 34.05 189.2 49.5 195.05 71.6 200.85 93.65 195.6 122.65 187.15 126.2 183.2 127.5 L180.35 128.45" fill="#5f5f5f" fill-rule="evenodd" stroke="none"/>
    <path d="M180.35 128.45 L183.2 127.5 Q187.15 126.2 195.6 122.65 L198.85 120.95 Q210.5 114.4 210.9 106.5 L210.9 105.65 Q210.7 62.45 180.15 31.9 149.5 1.25 106.05 1.25 62.6 1.25 31.9 31.9 1.4 62.45 1.25 105.65 L1.25 106.5 Q1.55 113.5 10.75 119.45 L10.85 119.5 12.7 120.65 13.9 121.3 Q21.45 124.95 25.4 126.4 29.5 127.85 40.75 130.95 L45.1 131.95 Q71.6 137.85 106.05 137.9 146.9 137.85 176.5 129.55 L180.35 128.45 M212.15 105.65 L212.15 106.55 Q211.75 120.1 180.8 129.6 149.85 139.15 106.05 139.15 62.25 139.15 31.3 129.6 0.35 120.1 0.0 106.55 L0.0 105.65 Q0.1 61.95 31.0 31.0 62.1 -0.05 106.05 0.0 150.0 -0.05 181.05 31.0 212.0 61.95 212.15 105.65" fill="#000000" fill-rule="evenodd" stroke="none"/>
    <path d="M195.6 122.65 Q200.85 93.65 195.05 71.6 189.2 49.5 175.45 34.05 161.7 18.6 144.1 11.35 126.45 4.05 96.45 4.95 66.4 5.85 45.2 29.2 23.95 52.5 17.95 71.2 12.3 88.9 12.3 107.8 L13.9 121.3 12.7 120.65 10.85 119.5 10.75 119.45 Q1.55 113.5 1.25 106.5 L1.25 105.65 Q1.4 62.45 31.9 31.9 62.6 1.25 106.05 1.25 149.5 1.25 180.15 31.9 210.7 62.45 210.9 105.65 L210.9 106.5 Q210.5 114.4 198.85 120.95 L195.6 122.65" fill="#4d4d4d" fill-rule="evenodd" stroke="none"/>
    <path d="M40.75 130.95 L39.05 121.7 Q38.3 114.6 38.3 97.8 38.3 59.8 52.05 39.5 69.3 14.05 102.25 14.6 135.2 15.15 147.9 24.35 160.6 33.5 168.2 46.65 175.85 59.75 177.5 78.25 179.1 96.75 180.35 128.45 L176.5 129.55 Q146.9 137.85 106.05 137.9 71.6 137.85 45.1 131.95 L40.75 130.95" fill="#6d6d6d" fill-rule="evenodd" stroke="none"/>
  </g>
</svg>
