<?xml version="1.0" encoding="UTF-8" standalone="no"?>
<svg xmlns:ffdec="https://www.free-decompiler.com/flash" xmlns:xlink="http://www.w3.org/1999/xlink" ffdec:objectType="shape" height="261.0px" width="261.0px" xmlns="http://www.w3.org/2000/svg">
  <g transform="matrix(1.0, 0.0, 0.0, 1.0, 0.5, 0.5)">
    <path d="M210.6 58.95 Q181.3 32.7 141.15 29.95 L131.05 29.5 130.0 29.5 121.2 29.85 112.4 30.85 Q77.7 35.6 51.55 58.95 18.55 88.4 18.55 130.0 18.55 171.65 51.55 201.1 77.8 224.55 112.7 229.25 L121.55 230.2 121.6 230.2 130.0 230.5 131.05 230.5 141.15 230.05 Q181.3 227.3 210.6 201.1 243.55 171.65 243.55 130.0 243.55 88.4 210.6 58.95 M259.5 130.0 Q259.5 183.75 221.55 221.3 183.65 259.5 130.0 259.5 76.35 259.5 38.4 221.3 0.5 183.75 0.5 130.0 0.5 76.25 38.4 38.05 76.35 0.5 130.0 0.5 183.65 0.5 221.55 38.05 259.5 76.25 259.5 130.0" fill="#ffffff" fill-rule="evenodd" stroke="none"/>
    <path d="M242.55 130.0 Q242.55 88.8 209.95 59.7 180.9 33.7 141.1 30.95 L131.05 30.5 130.0 30.5 121.3 30.85 112.5 31.85 Q78.1 36.6 52.2 59.7 19.55 88.8 19.55 130.0 19.55 171.25 52.2 200.35 78.2 223.55 112.85 228.25 L121.65 229.2 130.0 229.5 131.05 229.5 141.1 229.05 Q180.9 226.3 209.95 200.35 242.55 171.25 242.55 130.0 M259.5 130.0 Q259.5 76.25 221.55 38.05 183.65 0.5 130.0 0.5 76.35 0.5 38.4 38.05 0.5 76.25 0.5 130.0 0.5 183.75 38.4 221.3 76.35 259.5 130.0 259.5 183.65 259.5 221.55 221.3 259.5 183.75 259.5 130.0 M210.6 58.95 Q243.55 88.4 243.55 130.0 243.55 171.65 210.6 201.1 181.3 227.3 141.15 230.05 L131.05 230.5 130.0 230.5 121.6 230.2 121.55 230.2 112.7 229.25 Q77.8 224.55 51.55 201.1 18.55 171.65 18.55 130.0 18.55 88.4 51.55 58.95 77.7 35.6 112.4 30.85 L121.2 29.85 130.0 29.5 131.05 29.5 141.15 29.95 Q181.3 32.7 210.6 58.95 M222.25 37.35 Q260.5 75.85 260.5 130.0 260.5 184.15 222.25 222.0 184.05 260.5 130.0 260.5 75.95 260.5 37.7 222.0 -0.5 184.15 -0.5 130.0 -0.5 75.85 37.7 37.35 75.95 -0.5 130.0 -0.5 184.05 -0.5 222.25 37.35" fill="#666666" fill-rule="evenodd" stroke="none"/>
  </g>
</svg>
