<?xml version="1.0" encoding="UTF-8" standalone="no"?>
<svg xmlns:ffdec="https://www.free-decompiler.com/flash" xmlns:xlink="http://www.w3.org/1999/xlink" ffdec:objectType="shape" height="260.0px" width="260.0px" xmlns="http://www.w3.org/2000/svg">
  <g transform="matrix(1.0, 0.0, 0.0, 1.0, 0.0, 0.0)">
    <path d="M243.05 130.0 Q243.05 88.6 210.25 59.3 181.1 33.2 141.1 30.45 L131.05 30.0 130.0 30.0 121.25 30.35 112.45 31.35 Q77.9 36.1 51.85 59.3 19.05 88.6 19.05 130.0 19.05 171.45 51.85 200.7 78.0 224.05 112.75 228.75 L121.6 229.7 130.0 230.0 131.05 230.0 141.1 229.55 Q181.1 226.8 210.25 200.7 243.05 171.45 243.05 130.0 M260.0 130.0 Q260.0 183.95 221.9 221.65 183.85 260.0 130.0 260.0 76.15 260.0 38.05 221.65 0.0 183.95 0.0 130.0 0.0 76.05 38.05 37.7 76.15 0.0 130.0 0.0 183.85 0.0 221.9 37.7 260.0 76.05 260.0 130.0" fill="#ff0000" fill-opacity="0.0" fill-rule="evenodd" stroke="none"/>
  </g>
</svg>
