<?xml version="1.0" encoding="UTF-8" standalone="no"?>
<svg xmlns:ffdec="https://www.free-decompiler.com/flash" xmlns:xlink="http://www.w3.org/1999/xlink" ffdec:objectType="shape" height="105.75px" width="220.75px" xmlns="http://www.w3.org/2000/svg">
  <g transform="matrix(1.0, 0.0, 0.0, 1.0, 197.85, 82.85)">
    <path d="M15.5 -15.45 Q21.9 -9.05 21.9 0.05 21.9 9.1 15.5 15.5 9.1 21.9 0.05 21.9 -9.05 21.9 -15.45 15.5 -21.85 9.1 -21.85 0.05 -21.85 -9.05 -15.45 -15.45 -9.05 -21.85 0.05 -21.85 9.1 -21.85 15.5 -15.45 Z" fill="none" stroke="#88ff49" stroke-linecap="round" stroke-linejoin="round" stroke-opacity="0.0" stroke-width="2.0"/>
    <path d="M-174.95 -81.85 Q-165.9 -81.85 -159.5 -75.45 -153.1 -69.05 -153.1 -59.95 -153.1 -50.9 -159.5 -44.5 -165.9 -38.1 -174.95 -38.1 -184.05 -38.1 -190.45 -44.5 -196.85 -50.9 -196.85 -59.95 -196.85 -69.05 -190.45 -75.45 -184.05 -81.85 -174.95 -81.85 Z" fill="none" stroke="#88ff49" stroke-linecap="round" stroke-linejoin="round" stroke-opacity="0.0" stroke-width="2.0"/>
  </g>
</svg>
