<?xml version="1.0" encoding="UTF-8" standalone="no"?>
<svg xmlns:ffdec="https://www.free-decompiler.com/flash" xmlns:xlink="http://www.w3.org/1999/xlink" ffdec:objectType="shape" height="47.55px" width="30.8px" xmlns="http://www.w3.org/2000/svg">
  <g transform="matrix(1.0, 0.0, 0.0, 1.0, 15.45, 5.75)">
    <path d="M5.65 23.7 Q8.0 27.65 10.85 27.65 13.6 27.65 13.6 21.35 13.6 17.55 11.4 13.65 8.2 8.05 7.15 4.7 L10.4 4.7 10.4 9.1 10.7 6.75 Q10.7 3.25 8.8 0.65 L5.65 -2.35 Q6.3 -2.7 7.35 -3.8 12.8 0.1 12.8 7.45 L12.35 9.5 Q11.85 11.0 11.85 11.5 11.85 12.05 13.2 14.25 L14.85 17.1 15.2 20.25 15.35 23.3 Q15.35 26.3 13.3 29.1 10.8 32.5 6.8 32.5 5.8 32.5 4.0 31.45 3.7 32.15 2.2 33.45 L-0.05 35.05 -1.6 38.95 Q-2.65 41.8 -5.2 41.8 -8.4 41.8 -11.0 39.0 -15.45 34.3 -15.45 23.25 -15.45 8.6 -9.35 0.55 -5.7 -4.25 -1.0 -5.75 L-0.05 -3.55 Q-5.5 -3.3 -9.75 7.0 -13.55 16.2 -13.55 24.85 L-13.25 28.8 Q-13.05 35.55 -9.55 38.25 -7.75 39.6 -5.95 39.6 -3.75 39.6 -3.15 38.9 -1.9 37.55 -1.9 32.35 L-2.75 22.15 Q-3.1 14.35 -0.8 12.65 0.7 14.1 1.5 14.3 2.15 15.15 5.65 23.7 M5.05 29.65 Q6.1 30.4 7.35 30.35 8.35 30.35 8.9 29.45 7.95 29.2 5.95 27.45 3.55 25.45 3.65 24.1 3.0 28.15 5.05 29.65 M1.6 23.95 L1.05 17.05 Q-0.7 21.7 -0.7 23.5 L0.05 32.9 0.6 32.75 Q1.45 32.25 1.95 31.35 L2.3 30.4 1.6 23.95" fill="#4b3121" fill-rule="evenodd" stroke="none"/>
    <path d="M4.05 -2.25 Q4.7 -1.85 4.95 -1.25 5.35 -0.35 5.35 2.85 L4.95 5.0 4.55 7.15 Q4.55 8.0 7.65 14.55 L10.7 21.0 Q10.7 23.1 9.25 24.05 L7.65 24.6 Q7.05 24.6 6.25 24.1 5.65 23.65 5.65 23.7 2.15 15.15 1.5 14.3 0.7 14.1 -0.8 12.65 -4.05 11.65 -4.9 23.35 -5.35 29.95 -5.65 31.65 -6.3 35.5 -7.75 35.5 -10.5 34.1 -13.25 28.8 L-13.55 24.85 Q-13.55 16.2 -9.75 7.0 -5.5 -3.3 -0.05 -3.55 1.4 -2.7 4.05 -2.25" fill="#83563a" fill-rule="evenodd" stroke="none"/>
    <path d="M4.05 -2.25 L5.65 -2.35 8.8 0.65 Q10.7 3.25 10.7 6.75 L10.4 9.1 10.4 4.7 7.15 4.7 Q8.2 8.05 11.4 13.65 13.6 17.55 13.6 21.35 13.6 27.65 10.85 27.65 8.0 27.65 5.65 23.7 5.65 23.65 6.25 24.1 7.05 24.6 7.65 24.6 L9.25 24.05 Q10.7 23.1 10.7 21.0 L7.65 14.55 Q4.55 8.0 4.55 7.15 L4.95 5.0 5.35 2.85 Q5.35 -0.35 4.95 -1.25 4.7 -1.85 4.05 -2.25 M-13.25 28.8 Q-10.5 34.1 -7.75 35.5 -6.3 35.5 -5.65 31.65 -5.35 29.95 -4.9 23.35 -4.05 11.65 -0.8 12.65 -3.1 14.35 -2.75 22.15 L-1.9 32.35 Q-1.9 37.55 -3.15 38.9 -3.75 39.6 -5.95 39.6 -7.75 39.6 -9.55 38.25 -13.05 35.55 -13.25 28.8 M1.6 23.95 L2.3 30.4 1.95 31.35 Q1.45 32.25 0.6 32.75 L0.05 32.9 -0.7 23.5 Q-0.7 21.7 1.05 17.05 L1.6 23.95 M5.05 29.65 Q3.0 28.15 3.65 24.1 3.55 25.45 5.95 27.45 7.95 29.2 8.9 29.45 8.35 30.35 7.35 30.35 6.1 30.4 5.05 29.65" fill="#724931" fill-rule="evenodd" stroke="none"/>
  </g>
</svg>
