<?xml version="1.0" encoding="UTF-8" standalone="no"?>
<svg xmlns:ffdec="https://www.free-decompiler.com/flash" xmlns:xlink="http://www.w3.org/1999/xlink" ffdec:objectType="shape" height="292.85px" width="298.8px" xmlns="http://www.w3.org/2000/svg">
  <g transform="matrix(1.0, 0.0, 0.0, 1.0, -0.65, -0.65)">
    <path d="M267.5 129.0 L291.65 125.35 281.65 148.25 267.5 129.0" fill="#6bff71" fill-rule="evenodd" stroke="none"/>
    <path d="M267.5 129.0 L254.45 111.3 264.3 110.7 Q264.85 110.45 264.85 109.9 260.5 95.2 251.3 80.9 241.15 65.2 227.1 53.1 193.1 23.9 147.05 23.9 122.0 23.9 99.1 33.55 77.0 42.9 59.95 59.95 42.9 77.0 33.55 99.1 23.9 122.0 23.9 147.05 23.9 174.35 35.6 199.45 46.8 223.4 65.85 239.75 82.3 253.9 102.65 261.8 124.3 270.25 147.05 270.25 173.0 270.25 195.95 260.5 216.95 251.55 233.55 235.4 249.0 220.4 258.4 201.4 267.5 183.05 269.1 164.85 L292.2 167.7 Q290.25 189.05 279.45 210.9 268.25 233.5 250.05 251.55 230.45 270.95 205.9 281.7 179.0 293.5 148.95 293.5 124.75 293.5 107.8 288.85 86.65 283.1 63.25 267.4 32.7 246.95 16.5 215.2 0.65 184.25 0.65 147.05 0.65 117.3 12.15 90.1 23.3 63.85 43.55 43.55 63.85 23.3 90.1 12.15 117.3 0.65 147.05 0.65 173.5 0.65 200.0 10.4 225.25 19.7 239.65 33.55 249.4 43.0 260.1 55.45 270.55 67.65 274.45 74.05 277.25 78.65 283.35 93.9 L289.4 109.0 299.45 107.35 291.65 125.35 267.5 129.0" fill="#ffffff" fill-rule="evenodd" stroke="none"/>
  </g>
</svg>
