<?xml version="1.0" encoding="UTF-8" standalone="no"?>
<svg xmlns:ffdec="https://www.free-decompiler.com/flash" xmlns:xlink="http://www.w3.org/1999/xlink" ffdec:objectType="shape" height="83.5px" width="22.95px" xmlns="http://www.w3.org/2000/svg">
  <g transform="matrix(1.0, 0.0, 0.0, 1.0, 11.55, 40.0)">
    <path d="M0.6 -29.9 L-0.75 -30.0 -0.1 -40.0 0.35 -39.75 0.6 -29.9 M1.9 25.15 L1.95 27.1 1.75 27.15 1.65 24.75 Q1.55 24.1 1.0 23.95 L1.0 23.05 -1.2 23.05 -1.25 24.55 -2.15 25.55 -2.15 25.4 -2.1 24.55 -2.05 22.6 1.75 22.3 1.9 24.3 1.9 25.15 M0.65 -14.0 L1.0 -13.1 -0.05 -13.45 -1.2 -13.1 -1.0 -13.9 0.55 -14.0 0.65 -14.0 M1.4 4.85 L0.5 4.9 0.5 3.25 -0.75 3.25 -0.8 5.0 -1.6 5.05 -1.45 2.5 1.25 2.5 1.35 3.35 1.4 4.85" fill="#836741" fill-rule="evenodd" stroke="none"/>
    <path d="M0.5 4.9 L-0.8 5.0 -0.75 3.25 0.5 3.25 0.5 4.9 M-1.25 24.55 L-1.2 23.05 1.0 23.05 1.0 23.95 0.65 23.9 Q-0.25 23.9 -1.1 24.45 L-1.25 24.55" fill="#c2ab87" fill-rule="evenodd" stroke="none"/>
    <path d="M0.6 -29.9 L10.9 -29.15 11.0 -13.6 7.7 -10.5 6.75 -10.85 9.55 -13.4 10.2 -14.25 10.2 -28.4 -5.8 -29.45 -6.65 -28.95 -10.3 -25.6 -10.3 -11.7 -10.3 -11.15 -9.7 -11.1 -6.8 -10.95 -8.75 -10.15 -11.05 -10.45 -11.15 -25.95 -6.4 -30.35 -0.75 -30.0 0.6 -29.9 M11.4 -6.85 L11.4 -3.5 10.65 -3.85 10.65 -6.85 11.4 -6.85 M-11.55 -3.4 L-11.55 -5.95 -10.8 -5.85 -10.8 -2.95 -11.55 -3.4 M4.7 -11.65 L6.65 -10.9 6.6 -10.1 4.35 -10.95 4.7 -11.65 M-3.65 -11.3 L-6.7 -10.1 -6.55 -11.0 -3.65 -12.1 -3.65 -11.3" fill="#989886" fill-rule="evenodd" stroke="none"/>
    <path d="M-9.7 -11.1 L-10.3 -11.15 -10.3 -11.7 -6.65 -15.05 -6.65 -28.95 -5.8 -29.45 -5.8 -15.25 10.2 -14.25 9.55 -13.4 0.65 -14.0 0.55 -14.0 -6.1 -14.45 -9.7 -11.1 M0.3 -6.05 L0.3 -3.55 -0.45 -3.45 -0.45 -5.9 0.3 -6.05 M-5.2 2.05 L-5.5 2.95 -8.2 4.05 -8.25 3.2 -5.2 2.05 M2.15 1.75 L2.6 1.1 5.2 2.1 4.7 2.75 2.15 1.75" fill="#ffffff" fill-rule="evenodd" stroke="none"/>
    <path d="M-10.3 -11.7 L-10.3 -25.6 -6.65 -28.95 -6.65 -15.05 -10.3 -11.7 M0.3 -3.55 L0.3 -6.05 4.35 -10.95 6.6 -10.1 0.3 -3.55 M10.65 -6.85 L10.65 -3.85 8.75 -3.65 5.2 2.1 2.6 1.1 Q2.6 -2.2 4.95 -4.55 7.3 -6.85 10.65 -6.85" fill="#c6c9a3" fill-rule="evenodd" stroke="none"/>
    <path d="M-6.8 -10.95 L-9.7 -11.1 -6.1 -14.45 0.55 -14.0 -1.0 -13.9 -1.2 -13.1 -3.65 -12.1 -6.55 -11.0 -6.8 -10.95 M9.55 -13.4 L6.75 -10.85 6.65 -10.9 4.7 -11.65 1.0 -13.1 0.65 -14.0 9.55 -13.4 M3.75 4.7 L1.4 4.85 1.35 3.35 2.15 1.75 4.7 2.75 3.75 4.7 M-1.95 5.05 L-7.15 5.4 -8.2 4.05 -5.5 2.95 -1.95 5.05" fill="#f1f4e3" fill-rule="evenodd" stroke="none"/>
    <path d="M-5.8 -29.45 L10.2 -28.4 10.2 -14.25 -5.8 -15.25 -5.8 -29.45 M-0.45 -5.9 L-0.45 -3.45 Q-3.05 -3.45 -4.9 -5.4 -6.7 -7.35 -6.7 -10.1 L-3.65 -11.3 Q-3.65 -9.05 -2.75 -7.5 -1.8 -5.9 -0.45 -5.9 M-10.8 -5.85 Q-8.5 -5.85 -6.85 -3.55 -5.2 -1.2 -5.2 2.05 L-8.25 3.2 -7.3 0.0 -10.8 -2.95 -10.8 -5.85" fill="#dbddc5" fill-rule="evenodd" stroke="none"/>
    <path d="M-8.75 -10.15 L-6.8 -10.95 -6.55 -11.0 -6.7 -10.1 -10.8 -8.5 -10.8 -5.85 -11.55 -5.95 -11.5 -9.0 -8.75 -10.15 M6.75 -10.85 L7.7 -10.5 Q9.25 -10.5 10.3 -9.45 11.4 -8.35 11.4 -6.85 L10.65 -6.85 10.65 -8.5 6.6 -10.1 6.65 -10.9 6.75 -10.85 M11.4 -3.5 L11.3 5.0 8.15 6.3 7.55 5.7 9.95 4.8 10.65 4.25 10.65 -3.85 11.4 -3.5 M-10.2 5.6 L-11.5 5.0 -11.55 -3.4 -10.8 -2.95 -10.8 4.2 -10.15 4.8 -8.35 5.45 -10.2 5.6 M-1.2 -13.1 L-0.05 -13.45 1.0 -13.1 4.7 -11.65 4.35 -10.95 0.3 -12.5 -0.45 -12.5 -3.65 -11.3 -3.65 -12.1 -1.2 -13.1" fill="#a86b00" fill-rule="evenodd" stroke="none"/>
    <path d="M-5.5 2.95 L-0.1 0.9 2.15 1.75 1.35 3.35 1.25 2.5 -1.45 2.5 -1.6 5.05 -1.95 5.05 -5.5 2.95 M9.95 4.8 L7.55 5.7 6.25 4.55 3.75 4.7 4.7 2.75 9.95 4.8 M-7.15 5.4 L-8.35 5.45 -10.15 4.8 -8.2 4.05 -7.15 5.4" fill="#f5e050" fill-rule="evenodd" stroke="none"/>
    <path d="M0.3 -6.05 L-0.45 -5.9 -0.45 -12.5 0.3 -12.5 0.3 -6.05 M-0.45 -3.45 L0.3 -3.55 0.3 0.2 2.6 1.1 2.15 1.75 -0.1 0.9 -5.5 2.95 -5.2 2.05 -0.45 0.2 -0.45 -3.45 M10.65 4.25 L9.95 4.8 4.7 2.75 5.2 2.1 10.65 4.25 M-8.25 3.2 L-8.2 4.05 -10.15 4.8 -10.8 4.2 -8.25 3.2" fill="#fcf3b4" fill-rule="evenodd" stroke="none"/>
    <path d="M6.6 -10.1 L10.65 -8.5 10.65 -6.85 Q7.3 -6.85 4.95 -4.55 2.6 -2.2 2.6 1.1 L0.3 0.2 0.3 -3.55 6.6 -10.1 M4.35 -10.95 L0.3 -6.05 0.3 -12.5 4.35 -10.95 M10.65 -3.85 L10.65 4.25 5.2 2.1 8.75 -3.65 10.65 -3.85" fill="#d9a011" fill-rule="evenodd" stroke="none"/>
    <path d="M-0.45 -12.5 L-0.45 -5.9 Q-1.8 -5.9 -2.75 -7.5 -3.65 -9.05 -3.65 -11.3 L-0.45 -12.5 M-6.7 -10.1 Q-6.7 -7.35 -4.9 -5.4 -3.05 -3.45 -0.45 -3.45 L-0.45 0.2 -5.2 2.05 Q-5.2 -1.2 -6.85 -3.55 -8.5 -5.85 -10.8 -5.85 L-10.8 -8.5 -6.7 -10.1 M-10.8 -2.95 L-7.3 0.0 -8.25 3.2 -10.8 4.2 -10.8 -2.95" fill="#f3c200" fill-rule="evenodd" stroke="none"/>
    <path d="M8.15 6.3 L11.0 8.95 11.05 24.15 10.9 24.45 10.65 24.6 1.9 25.15 1.9 24.3 9.55 23.8 10.2 23.75 10.2 23.2 10.2 9.3 6.55 5.95 5.65 5.45 -10.3 6.5 -10.3 20.65 -9.7 21.5 -6.1 24.8 -2.1 24.55 -2.15 25.4 -6.2 25.7 -6.4 25.7 -6.55 25.6 -11.15 21.3 -11.05 5.75 -10.2 5.6 -8.35 5.45 -7.15 5.4 -1.95 5.05 -1.6 5.05 -0.8 5.0 0.5 4.9 1.4 4.85 3.75 4.7 6.25 4.55 7.55 5.7 8.15 6.3" fill="#968257" fill-rule="evenodd" stroke="none"/>
    <path d="M5.65 5.45 L6.55 5.95 6.55 19.85 10.2 23.2 10.2 23.75 9.55 23.8 5.95 20.45 -9.7 21.5 -10.3 20.65 5.65 19.65 5.65 5.45" fill="#f6f3e0" fill-rule="evenodd" stroke="none"/>
    <path d="M6.55 5.95 L10.2 9.3 10.2 23.2 6.55 19.85 6.55 5.95 M8.1 9.85 L7.5 10.05 7.3 10.6 7.5 11.1 Q7.75 11.35 8.1 11.35 L8.65 11.1 8.9 10.6 8.65 10.05 8.1 9.85 M7.95 17.85 Q8.15 18.05 8.45 18.05 L8.95 17.85 9.15 17.4 8.95 16.95 8.45 16.75 7.95 16.95 7.75 17.4 7.95 17.85" fill="#ccb562" fill-rule="evenodd" stroke="none"/>
    <path d="M9.55 23.8 L1.9 24.3 1.75 22.3 -2.05 22.6 -2.1 24.55 -6.1 24.8 -9.7 21.5 5.95 20.45 9.55 23.8 M3.95 23.0 L4.15 23.5 Q4.4 23.75 4.7 23.75 L5.2 23.5 5.45 23.0 5.2 22.45 4.7 22.25 4.15 22.45 3.95 23.0 M-3.15 23.25 L-2.9 22.85 Q-2.9 22.6 -3.15 22.45 L-3.65 22.3 -4.2 22.45 -4.4 22.85 -4.2 23.25 -3.65 23.4 -3.15 23.25" fill="#e9e0b5" fill-rule="evenodd" stroke="none"/>
    <path d="M0.4 10.1 Q0.1 10.4 -0.35 10.4 -0.8 10.4 -1.1 10.1 L-1.4 9.35 Q-1.4 8.9 -1.1 8.6 -0.8 8.3 -0.35 8.3 0.1 8.3 0.4 8.6 L0.7 9.35 0.4 10.1 M8.1 9.85 L8.65 10.05 8.9 10.6 8.65 11.1 8.1 11.35 Q7.75 11.35 7.5 11.1 L7.3 10.6 7.5 10.05 8.1 9.85 M7.95 17.85 L7.75 17.4 7.95 16.95 8.45 16.75 8.95 16.95 9.15 17.4 8.95 17.85 8.45 18.05 Q8.15 18.05 7.95 17.85 M2.25 16.6 Q2.55 16.3 2.95 16.3 3.35 16.3 3.65 16.6 L3.95 17.3 3.65 18.0 2.95 18.3 2.25 18.0 Q1.95 17.7 1.95 17.3 1.95 16.9 2.25 16.6 M3.95 23.0 L4.15 22.45 4.7 22.25 5.2 22.45 5.45 23.0 5.2 23.5 4.7 23.75 Q4.4 23.75 4.15 23.5 L3.95 23.0 M-6.7 15.45 L-7.3 15.2 -7.5 14.6 -7.3 14.0 -6.7 13.75 Q-6.35 13.75 -6.15 14.0 -5.9 14.25 -5.9 14.6 L-6.15 15.2 -6.7 15.45 M-3.15 23.25 L-3.65 23.4 -4.2 23.25 -4.4 22.85 -4.2 22.45 -3.65 22.3 -3.15 22.45 Q-2.9 22.6 -2.9 22.85 L-3.15 23.25" fill="#bb4117" fill-rule="evenodd" stroke="none"/>
    <path d="M1.6 12.85 L2.6 12.3 1.65 14.55 1.6 12.85 M-4.4 11.5 L-6.9 8.45 -3.9 11.0 -4.4 11.5 M-2.85 16.45 L-4.45 19.05 -3.65 16.1 -2.85 16.45" fill="#6c7027" fill-rule="evenodd" stroke="none"/>
    <path d="M0.4 10.1 L0.7 9.35 0.4 8.6 Q0.1 8.3 -0.35 8.3 -0.8 8.3 -1.1 8.6 -1.4 8.9 -1.4 9.35 L-1.1 10.1 Q-0.8 10.4 -0.35 10.4 0.1 10.4 0.4 10.1 M1.6 12.85 L1.65 14.55 2.6 12.3 1.6 12.85 M2.25 16.6 Q1.95 16.9 1.95 17.3 1.95 17.7 2.25 18.0 L2.95 18.3 3.65 18.0 3.95 17.3 3.65 16.6 Q3.35 16.3 2.95 16.3 2.55 16.3 2.25 16.6 M5.65 5.45 L5.65 19.65 -10.3 20.65 -10.3 6.5 5.65 5.45 M-2.85 16.45 L-3.65 16.1 -4.45 19.05 -2.85 16.45 M-4.4 11.5 L-3.9 11.0 -6.9 8.45 -4.4 11.5 M-6.7 15.45 L-6.15 15.2 -5.9 14.6 Q-5.9 14.25 -6.15 14.0 -6.35 13.75 -6.7 13.75 L-7.3 14.0 -7.5 14.6 -7.3 15.2 -6.7 15.45" fill="#dac88d" fill-rule="evenodd" stroke="none"/>
    <path d="M1.95 27.1 L4.85 26.45 5.6 26.35 6.35 26.45 Q6.85 26.65 6.85 27.3 6.85 28.5 5.65 29.4 L3.5 31.3 6.45 30.25 Q7.55 30.25 8.05 30.55 L8.35 30.8 Q8.2 32.2 7.4 32.65 5.35 33.55 2.8 34.9 L5.5 35.0 Q8.25 35.15 8.7 35.55 8.1 37.5 6.85 38.3 5.8 38.9 4.05 38.9 4.2 40.95 2.85 40.95 L2.15 40.85 1.55 40.65 Q1.35 42.4 0.45 43.0 L-2.4 43.5 -3.2 43.2 -3.5 42.55 Q-3.5 41.35 -2.75 39.7 L-7.65 39.3 Q-8.9 38.85 -8.9 37.6 L-8.8 37.3 -8.2 37.1 -3.05 35.45 -3.55 35.2 -6.6 33.85 Q-8.0 33.15 -8.0 32.55 -8.0 32.1 -7.25 31.85 L-4.35 31.25 -7.4 27.55 Q-7.4 26.65 -6.9 26.2 -6.35 25.75 -5.3 25.75 L-4.25 26.15 -2.45 26.95 -2.15 25.55 -1.25 24.55 -1.1 24.45 Q-0.25 23.9 0.65 23.9 L1.0 23.95 Q1.55 24.1 1.65 24.75 L1.75 27.15 1.95 27.1 M3.85 29.55 L5.35 28.5 6.05 27.45 5.85 27.25 4.75 27.2 2.0 27.55 1.45 27.75 1.1 27.9 0.2 28.6 0.85 27.3 0.8 24.95 0.2 24.9 Q-0.35 24.9 -0.55 25.3 L-1.3 27.0 -1.85 28.35 -2.4 29.85 -2.8 29.45 Q-3.7 28.0 -4.65 27.15 L-5.55 26.5 Q-6.15 26.5 -6.45 26.85 -6.45 28.15 -5.85 29.1 -5.25 30.0 -4.4 30.0 -3.55 30.15 -2.25 31.0 L-2.0 31.15 -2.25 31.25 Q-3.6 32.0 -4.5 32.05 L-7.1 32.05 -6.9 32.05 -7.45 32.45 Q-7.05 33.4 -6.35 33.55 L-3.85 33.95 Q-2.9 34.15 -2.6 34.4 -2.2 34.75 -2.2 35.5 -2.2 36.3 -2.75 36.45 L-4.15 36.5 Q-6.8 36.4 -8.4 38.1 L-8.0 38.4 -7.15 38.85 -3.3 38.65 Q-2.0 38.7 -2.0 39.15 L-2.05 40.05 -2.55 41.1 -2.65 42.05 Q-2.65 42.65 -1.8 42.65 L-1.4 42.5 -0.1 41.95 Q0.6 39.75 -0.1 38.8 L-0.7 38.2 -1.05 37.55 Q-1.0 37.65 -0.65 37.35 L-0.25 37.8 Q0.8 39.45 2.35 40.35 L2.95 39.85 Q3.1 39.2 3.35 39.05 L2.85 38.55 Q2.45 37.25 1.85 36.75 L1.1 36.05 1.15 36.05 1.1 36.0 1.35 36.0 Q1.65 36.0 2.75 36.8 3.85 37.65 5.1 37.75 L6.4 37.05 7.85 35.75 6.25 35.75 4.1 35.65 Q2.55 35.4 2.05 35.0 L3.1 34.2 4.25 33.45 5.8 32.25 7.2 31.05 5.9 31.45 4.85 31.85 2.4 33.3 0.65 34.4 Q1.2 34.0 1.6 33.05 L1.8 32.45 2.05 31.15 2.1 30.75 2.05 30.65 2.05 30.5 2.15 30.35 2.05 30.35 1.15 30.95 1.05 31.05 0.65 31.4 0.6 31.4 0.35 31.65 -0.6 32.4 -0.7 32.5 -1.5 33.4 -1.75 33.2 -1.9 32.8 -1.85 32.5 -1.15 31.65 0.05 30.75 Q0.6 30.35 1.15 30.1 L2.05 29.7 3.85 29.55" fill="#aa2fa9" fill-rule="evenodd" stroke="none"/>
    <path d="M3.85 29.55 L2.05 29.7 1.15 30.1 Q0.6 30.35 0.05 30.75 L-1.15 31.65 -1.85 32.5 -1.9 32.8 -1.75 33.2 -1.5 33.4 -0.7 32.5 -0.6 32.4 0.35 31.65 0.6 31.4 0.45 31.65 -0.1 32.5 Q-0.7 33.65 -0.6 34.9 L0.4 34.6 0.5 34.5 0.65 34.4 2.4 33.3 4.85 31.85 4.5 32.5 4.25 33.45 3.1 34.2 2.05 35.0 Q2.55 35.4 4.1 35.65 L6.25 35.75 5.1 37.75 Q3.85 37.65 2.75 36.8 1.65 36.0 1.35 36.0 L1.1 36.0 1.15 36.05 1.1 36.05 1.85 36.75 Q2.45 37.25 2.85 38.55 2.35 37.5 1.5 37.05 L0.65 36.8 Q0.05 37.1 -0.25 37.8 L-0.65 37.35 Q-1.0 37.65 -1.05 37.55 L-0.7 38.2 -0.1 38.8 Q0.6 39.75 -0.1 41.95 L0.1 40.85 Q0.2 40.0 -0.6 39.8 -1.35 39.6 -2.05 40.05 L-2.0 39.15 Q-2.0 38.7 -3.3 38.65 L-2.8 38.35 Q-3.25 37.7 -3.95 37.7 -4.8 37.7 -7.15 38.85 L-8.0 38.4 -8.4 38.1 Q-6.8 36.4 -4.15 36.5 L-2.75 36.45 Q-2.2 36.3 -2.2 35.5 -2.2 34.75 -2.6 34.4 -2.9 34.15 -3.85 33.95 L-3.65 33.4 -3.5 32.75 -3.6 32.05 -4.5 32.05 -6.9 32.05 -7.1 32.05 -4.5 32.05 Q-3.6 32.0 -2.25 31.25 L-2.0 31.15 -2.25 31.0 Q-3.55 30.15 -4.4 30.0 -4.4 28.7 -5.0 27.8 -5.6 26.85 -6.45 26.85 -6.15 26.5 -5.55 26.5 L-4.65 27.15 Q-3.7 28.0 -2.8 29.45 L-2.4 29.85 -1.85 28.35 -1.8 29.3 -1.4 30.1 -1.3 30.15 Q-0.9 30.4 -0.55 30.15 -0.15 29.9 0.05 29.1 L0.2 28.6 1.1 27.9 1.45 27.75 2.0 27.55 4.75 27.2 Q4.1 27.7 3.85 28.35 3.65 28.95 3.85 29.55" fill="#d959d8" fill-rule="evenodd" stroke="none"/>
    <path d="M4.75 27.2 L5.85 27.25 6.05 27.45 5.35 28.5 3.85 29.55 Q3.65 28.95 3.85 28.35 4.1 27.7 4.75 27.2 M0.6 31.4 L0.65 31.4 1.05 31.05 1.15 30.95 2.05 30.35 2.15 30.35 2.05 30.5 2.05 30.65 2.1 30.75 2.05 31.15 1.8 32.45 1.6 33.05 Q1.2 34.0 0.65 34.4 L0.5 34.5 0.4 34.6 -0.6 34.9 Q-0.7 33.65 -0.1 32.5 L0.45 31.65 0.6 31.4 M4.85 31.85 L5.9 31.45 7.2 31.05 5.8 32.25 4.25 33.45 4.5 32.5 4.85 31.85 M6.25 35.75 L7.85 35.75 6.4 37.05 5.1 37.75 6.25 35.75 M2.85 38.55 L3.35 39.05 Q3.1 39.2 2.95 39.85 L2.35 40.35 Q0.8 39.45 -0.25 37.8 0.05 37.1 0.65 36.8 L1.5 37.05 Q2.35 37.5 2.85 38.55 M-0.1 41.95 L-1.4 42.5 -1.8 42.65 Q-2.65 42.65 -2.65 42.05 L-2.55 41.1 -2.05 40.05 Q-1.35 39.6 -0.6 39.8 0.2 40.0 0.1 40.85 L-0.1 41.95 M-3.3 38.65 L-7.15 38.85 Q-4.8 37.7 -3.95 37.7 -3.25 37.7 -2.8 38.35 L-3.3 38.65 M-3.85 33.95 L-6.35 33.55 Q-7.05 33.4 -7.45 32.45 L-6.9 32.05 -4.5 32.05 -3.6 32.05 -3.5 32.75 -3.65 33.4 -3.85 33.95 M-4.4 30.0 Q-5.25 30.0 -5.85 29.1 -6.45 28.15 -6.45 26.85 -5.6 26.85 -5.0 27.8 -4.4 28.7 -4.4 30.0 M-1.85 28.35 L-1.3 27.0 -0.55 25.3 Q-0.35 24.9 0.2 24.9 L0.8 24.95 0.85 27.3 0.2 28.6 0.05 29.1 Q-0.15 29.9 -0.55 30.15 -0.9 30.4 -1.3 30.15 L-1.4 30.1 -1.8 29.3 -1.85 28.35" fill="#ff9cfe" fill-rule="evenodd" stroke="none"/>
  </g>
</svg>
