<?xml version="1.0" encoding="UTF-8" standalone="no"?>
<svg xmlns:ffdec="https://www.free-decompiler.com/flash" xmlns:xlink="http://www.w3.org/1999/xlink" ffdec:objectType="shape" height="11.35px" width="15.15px" xmlns="http://www.w3.org/2000/svg">
  <g transform="matrix(1.0, 0.0, 0.0, 1.0, -2.75, 2.65)">
    <path d="M17.7 -1.65 L17.9 -0.7 Q17.85 3.0 15.9 5.6 13.7 8.8 10.35 8.7 7.1 8.8 4.75 5.6 2.8 2.95 2.8 -0.75 2.8 -1.5 3.45 -2.05 4.05 -2.65 4.85 -2.65 L15.85 -2.65 16.9 -2.4 17.7 -1.65" fill="#afe5d0" fill-rule="evenodd" stroke="none"/>
    <path d="M11.85 4.15 Q10.7 5.8 9.2 5.95 7.7 5.8 6.55 4.15 5.65 2.8 5.3 1.1 L13.15 1.1 Q12.75 2.8 11.85 4.15" fill="#ffdbb7" fill-rule="evenodd" stroke="none"/>
    <path d="M13.85 -1.65 L14.75 -1.4 15.4 -0.75 15.6 0.15 Q15.55 3.5 13.9 5.9 12.0 8.8 9.15 8.7 6.4 8.8 4.4 5.9 2.75 3.45 2.75 0.1 2.75 -0.6 3.3 -1.1 3.8 -1.65 4.5 -1.65 L13.85 -1.65 M11.85 4.15 Q12.75 2.8 13.15 1.1 L5.3 1.1 Q5.65 2.8 6.55 4.15 7.7 5.8 9.2 5.95 10.7 5.8 11.85 4.15" fill="#3d2618" fill-rule="evenodd" stroke="none"/>
  </g>
</svg>
