<?xml version="1.0" encoding="UTF-8" standalone="no"?>
<svg xmlns:ffdec="https://www.free-decompiler.com/flash" xmlns:xlink="http://www.w3.org/1999/xlink" ffdec:objectType="shape" height="126.25px" width="65.85px" xmlns="http://www.w3.org/2000/svg">
  <g transform="matrix(1.0, 0.0, 0.0, 1.0, 30.3, 136.15)">
    <path d="M4.5 -131.4 Q4.1 -132.7 2.4 -133.5 -1.25 -135.25 -3.6 -132.6 -6.15 -129.8 -5.75 -125.7 -5.6 -123.85 -4.75 -123.15 L-2.35 -122.95 -2.2 -123.0 Q1.25 -124.1 3.7 -128.1 L3.65 -128.1 4.5 -130.15 4.5 -131.4 M5.5 -129.0 L4.75 -127.45 Q3.1 -124.75 1.05 -123.25 -0.4 -122.2 -2.0 -121.75 L-2.45 -121.65 -3.0 -121.55 Q-4.55 -121.35 -5.5 -122.15 -6.8 -123.1 -7.0 -125.6 -7.4 -129.95 -4.95 -132.95 -6.45 -131.8 -7.3 -130.0 L-11.55 -121.2 -12.05 -120.2 -23.5 -98.1 Q-29.9 -86.05 -28.55 -77.8 -27.55 -72.15 -22.9 -68.3 L-21.75 -67.4 Q-20.45 -66.5 -18.95 -65.7 L-18.6 -65.5 -17.7 -65.05 -17.7 -64.65 -17.7 -64.55 -17.7 -64.45 -17.75 -63.95 -18.25 -56.6 -18.5 -52.8 Q-18.85 -48.05 -19.55 -42.7 L-19.7 -41.55 -20.55 -35.9 -20.8 -34.55 Q-21.5 -30.45 -22.35 -26.9 L-22.65 -25.65 -23.25 -23.1 -23.5 -21.9 -23.95 -19.75 -24.8 -15.35 -24.9 -14.65 -24.9 -14.6 -24.85 -14.6 -22.75 -14.4 -3.9 -12.0 7.0 -11.5 12.2 -11.6 17.6 -11.8 20.4 -12.05 32.5 -14.1 32.7 -14.15 33.8 -14.4 32.95 -18.1 32.5 -20.05 32.05 -21.8 30.45 -21.3 31.8 -22.85 31.7 -23.1 31.6 -23.55 31.3 -24.65 Q29.85 -29.6 28.8 -34.65 L27.8 -39.1 Q27.2 -41.65 26.75 -44.25 L25.85 -49.25 25.25 -52.8 24.5 -57.5 23.5 -63.95 23.45 -64.1 23.4 -64.65 22.85 -67.7 20.95 -90.2 20.9 -90.7 Q20.6 -94.7 19.95 -98.5 18.6 -106.85 15.8 -114.4 14.55 -117.9 12.95 -121.2 L11.0 -125.0 8.6 -129.05 Q7.3 -131.2 5.9 -132.6 L4.2 -133.95 Q5.4 -133.05 5.7 -131.7 6.05 -130.55 5.5 -129.0 M14.6 -121.2 Q21.1 -107.35 22.4 -90.8 L22.7 -87.4 23.2 -81.75 24.4 -67.85 24.85 -64.95 24.95 -64.3 25.0 -63.95 26.8 -52.85 26.8 -52.8 27.35 -49.5 27.9 -46.5 Q28.5 -42.95 29.25 -39.45 L30.25 -34.95 Q31.25 -30.35 32.55 -25.75 L33.05 -23.95 33.15 -23.55 33.5 -22.3 35.25 -14.8 35.45 -13.75 35.55 -13.35 34.1 -12.95 Q28.4 -11.45 25.8 -11.0 L7.35 -9.9 -15.3 -11.25 -25.25 -12.95 -26.65 -13.4 -26.65 -13.45 -26.7 -13.4 -26.55 -14.15 -26.4 -14.9 -25.0 -22.15 -24.75 -23.35 -24.0 -26.65 -23.85 -27.25 Q-22.45 -33.15 -21.35 -40.55 L-21.2 -41.75 -20.85 -44.35 -20.0 -52.8 -19.75 -56.7 -19.35 -62.95 -19.3 -63.95 -19.3 -64.2 -22.1 -65.85 -23.25 -66.65 Q-28.95 -71.0 -30.0 -77.55 -31.5 -86.25 -24.85 -98.8 L-13.25 -121.2 -10.25 -127.25 -8.75 -130.5 Q-6.9 -134.6 -2.0 -135.75 L-0.35 -136.05 Q5.85 -136.85 10.15 -129.55 14.4 -122.3 14.6 -121.2 M-21.6 -34.0 L-21.95 -33.4 -22.3 -32.0 -21.6 -34.0" fill="#111111" fill-rule="evenodd" stroke="none"/>
    <path d="M-23.25 -23.1 Q-16.6 -22.0 -0.6 -20.55 L6.55 -21.85 12.0 -21.1 14.0 -20.35 Q14.9 -20.35 18.25 -21.45 21.6 -22.55 23.2 -22.55 25.85 -22.55 27.9 -21.45 28.45 -21.15 31.7 -23.1 L31.8 -22.85 30.45 -21.3 32.05 -21.8 32.5 -20.05 32.95 -18.1 33.8 -14.4 32.7 -14.15 31.9 -16.5 30.35 -21.3 27.45 -21.05 21.85 -21.6 Q14.35 -19.35 13.3 -19.35 12.35 -19.35 10.0 -20.1 7.6 -20.85 5.05 -20.85 L3.75 -20.05 Q2.3 -19.3 -1.3 -19.3 L-6.65 -20.0 -13.9 -20.95 -20.4 -21.5 -21.0 -21.55 Q-21.3 -20.0 -22.35 -16.3 L-22.75 -14.4 -24.85 -14.6 -24.9 -14.6 -24.9 -14.65 -24.8 -15.35 -23.95 -19.75 -23.5 -21.9 -23.25 -23.1" fill="#1a1a1a" fill-rule="evenodd" stroke="none"/>
    <path d="M1.7 -121.95 L3.9 -123.95 6.5 -127.25 5.5 -129.0 Q6.05 -130.55 5.7 -131.7 5.4 -133.05 4.2 -133.95 L5.9 -132.6 Q7.3 -131.2 8.6 -129.05 L11.0 -125.0 12.95 -121.2 Q14.55 -117.9 15.8 -114.4 18.6 -106.85 19.95 -98.5 20.6 -94.7 20.9 -90.7 L20.95 -90.2 22.85 -67.7 23.4 -64.65 23.45 -64.1 23.5 -63.95 24.5 -57.5 25.25 -52.8 25.85 -49.25 26.75 -44.25 Q27.2 -41.65 27.8 -39.1 L28.8 -34.65 Q29.85 -29.6 31.3 -24.65 L31.6 -23.55 31.7 -23.1 Q28.45 -21.15 27.9 -21.45 25.85 -22.55 23.2 -22.55 21.6 -22.55 18.25 -21.45 14.9 -20.35 14.0 -20.35 L12.0 -21.1 6.55 -21.85 -0.6 -20.55 Q-16.6 -22.0 -23.25 -23.1 L-22.65 -25.65 -22.35 -26.9 Q-21.5 -30.45 -20.8 -34.55 L-20.55 -35.9 -19.7 -41.55 -19.55 -42.7 Q-18.85 -48.05 -18.5 -52.8 L-18.25 -56.6 -17.75 -63.95 -17.7 -64.45 -17.7 -64.55 -17.7 -64.65 -17.7 -65.05 -18.6 -65.5 -18.95 -65.7 Q-20.45 -66.5 -21.75 -67.4 L-22.9 -68.3 Q-27.55 -72.15 -28.55 -77.8 -29.9 -86.05 -23.5 -98.1 L-12.05 -120.2 -11.55 -121.2 -7.3 -130.0 Q-6.45 -131.8 -4.95 -132.95 -7.4 -129.95 -7.0 -125.6 -6.8 -123.1 -5.5 -122.15 -4.55 -121.35 -3.0 -121.55 L-3.85 -119.95 -3.55 -119.95 -3.45 -119.95 -2.85 -120.0 1.7 -121.95 M3.9 -122.9 Q-0.55 -118.95 -4.0 -118.95 L-4.4 -118.95 -4.9 -118.05 -9.4 -108.0 Q-11.5 -103.15 -12.75 -102.45 L-13.7 -102.75 -13.8 -103.7 -12.75 -106.8 Q-11.6 -110.2 -11.05 -112.85 L-10.9 -114.05 Q-15.05 -107.95 -18.7 -101.5 -25.8 -88.9 -25.8 -82.95 -25.8 -76.2 -21.2 -74.4 -17.75 -73.1 -4.7 -73.1 L-1.65 -73.6 2.35 -74.5 Q2.8 -73.75 2.8 -72.55 2.8 -68.05 -2.35 -64.25 -7.3 -60.55 -12.3 -60.8 L-12.35 -52.8 Q-12.5 -47.35 -12.8 -43.4 L-9.6 -43.7 -6.3 -43.9 -5.2 -42.95 Q-6.85 -41.75 -12.2 -40.35 -16.4 -39.2 -17.55 -36.95 L-17.45 -36.4 Q-16.95 -35.9 -16.0 -35.9 L-14.4 -36.2 -12.85 -36.55 -10.7 -36.15 -8.75 -35.65 -8.55 -35.15 Q-10.2 -33.85 -13.5 -34.1 -13.35 -33.45 -15.0 -24.35 L-15.45 -24.4 -9.75 -23.35 -2.75 -22.95 10.15 -23.0 27.35 -23.35 Q27.8 -23.05 27.8 -23.85 L27.0 -25.45 Q25.85 -27.65 24.55 -31.2 L20.25 -31.1 Q19.7 -31.6 19.6 -31.95 L21.25 -32.0 Q22.85 -32.05 24.1 -33.05 L24.75 -34.45 Q25.25 -35.8 25.25 -37.5 25.25 -38.4 22.85 -44.35 L19.25 -43.75 18.15 -43.9 Q17.85 -43.95 17.85 -44.75 17.85 -46.35 22.4 -46.55 L20.8 -52.8 19.8 -57.95 Q17.65 -68.95 17.9 -73.3 L17.8 -74.5 Q17.4 -72.65 16.4 -70.25 15.4 -67.9 14.8 -67.35 L13.9 -67.55 Q13.7 -67.7 13.7 -68.45 L14.85 -74.05 Q15.95 -79.75 15.95 -84.9 L15.85 -86.35 Q15.2 -84.4 13.45 -81.65 11.9 -79.1 11.2 -78.6 L10.4 -79.1 Q10.1 -79.35 10.1 -79.8 L12.65 -84.9 Q15.15 -90.3 15.15 -92.4 13.55 -102.0 11.3 -111.5 8.95 -121.4 7.0 -126.1 5.95 -124.75 3.9 -122.9 M4.1 -13.05 L4.1 -18.15 -1.05 -18.15 -1.05 -13.05 4.1 -13.05 M10.15 -13.7 L10.15 -18.65 5.25 -18.65 5.25 -13.7 10.15 -13.7 M13.0 -18.6 L13.0 -13.35 20.25 -13.35 20.25 -18.6 13.0 -18.6 M-22.75 -14.4 L-22.35 -16.3 Q-21.3 -20.0 -21.0 -21.55 L-20.4 -21.5 -13.9 -20.95 -6.65 -20.0 -1.3 -19.3 Q2.3 -19.3 3.75 -20.05 L5.05 -20.85 Q7.6 -20.85 10.0 -20.1 12.35 -19.35 13.3 -19.35 14.35 -19.35 21.85 -21.6 L27.45 -21.05 30.35 -21.3 31.9 -16.5 32.7 -14.15 32.5 -14.1 20.4 -12.05 17.6 -11.8 12.2 -11.6 7.0 -11.5 -3.9 -12.0 -22.75 -14.4 M27.55 -19.6 L22.45 -19.6 22.45 -14.5 27.55 -14.5 27.55 -19.6 M-15.25 -58.25 L-15.2 -59.45 -15.3 -58.8 -15.25 -58.25 M-18.9 -91.25 Q-19.15 -92.0 -18.25 -92.25 L-15.55 -92.45 -15.4 -92.15 -15.4 -91.85 -15.75 -91.2 -17.55 -90.95 Q-18.4 -90.95 -18.9 -91.35 L-18.9 -91.25 M-6.75 -98.1 Q-5.75 -97.9 -5.45 -97.6 -6.95 -95.35 -13.9 -95.35 -16.95 -95.35 -18.55 -96.95 L-18.4 -97.05 -15.4 -97.75 -8.55 -98.35 -6.75 -98.1 M-18.7 -14.55 L-14.05 -14.55 -14.05 -19.2 -18.7 -19.2 -18.7 -14.55 M-3.6 -13.35 L-3.6 -18.85 -11.35 -18.85 -11.35 -13.35 -3.6 -13.35" fill="#1f1f1f" fill-rule="evenodd" stroke="none"/>
    <path d="M5.5 -129.0 L6.5 -127.25 3.9 -123.95 1.7 -121.95 1.95 -122.6 Q1.95 -123.35 1.05 -123.25 3.1 -124.75 4.75 -127.45 L5.5 -129.0 M-3.55 -119.95 L-3.85 -119.95 -3.0 -121.55 -2.45 -121.65 Q-3.55 -120.9 -3.55 -120.35 L-3.55 -119.95 M1.15 -116.15 Q-1.4 -109.1 -5.15 -104.3 -5.8 -103.5 -9.35 -102.2 -13.3 -100.75 -15.4 -101.1 L-16.05 -100.5 Q-14.45 -98.6 -2.45 -98.6 10.35 -98.6 9.3 -109.9 8.9 -113.8 7.0 -117.7 5.25 -121.25 4.25 -121.25 3.0 -121.25 1.15 -116.15 M11.9 -100.2 L11.3 -100.35 4.9 -95.6 Q-1.75 -90.85 -3.25 -90.7 -16.65 -89.35 -18.35 -88.5 -19.7 -87.85 -20.0 -86.35 L-20.15 -82.25 Q-20.15 -79.4 -17.9 -78.25 -15.9 -77.25 -11.5 -77.25 -0.95 -77.25 2.85 -79.0 6.65 -80.7 9.3 -86.6 12.0 -92.6 12.15 -94.75 11.8 -96.6 11.8 -98.25 L11.85 -100.05 11.9 -100.2 M3.9 -122.9 Q5.95 -124.75 7.0 -126.1 8.95 -121.4 11.3 -111.5 13.55 -102.0 15.15 -92.4 15.15 -90.3 12.65 -84.9 L10.1 -79.8 Q10.1 -79.35 10.4 -79.1 L11.2 -78.6 Q11.9 -79.1 13.45 -81.65 15.2 -84.4 15.85 -86.35 L15.95 -84.9 Q15.95 -79.75 14.85 -74.05 L13.7 -68.45 Q13.7 -67.7 13.9 -67.55 L14.8 -67.35 Q15.4 -67.9 16.4 -70.25 17.4 -72.65 17.8 -74.5 L17.9 -73.3 Q17.65 -68.95 19.8 -57.95 L20.8 -52.8 22.4 -46.55 Q17.85 -46.35 17.85 -44.75 17.85 -43.95 18.15 -43.9 L19.25 -43.75 22.85 -44.35 Q25.25 -38.4 25.25 -37.5 25.25 -35.8 24.75 -34.45 L24.1 -33.05 Q22.85 -32.05 21.25 -32.0 L19.6 -31.95 Q19.7 -31.6 20.25 -31.1 L24.55 -31.2 Q25.85 -27.65 27.0 -25.45 L27.8 -23.85 Q27.8 -23.05 27.35 -23.35 L10.15 -23.0 -2.75 -22.95 -9.75 -23.35 -15.45 -24.4 -15.0 -24.35 Q-13.35 -33.45 -13.5 -34.1 -10.2 -33.85 -8.55 -35.15 L-8.75 -35.65 -10.7 -36.15 -12.85 -36.55 -14.4 -36.2 -16.0 -35.9 Q-16.95 -35.9 -17.45 -36.4 L-17.55 -36.95 Q-16.4 -39.2 -12.2 -40.35 -6.85 -41.75 -5.2 -42.95 L-6.3 -43.9 -9.6 -43.7 -12.8 -43.4 Q-12.5 -47.35 -12.35 -52.8 L-12.3 -60.8 Q-7.3 -60.55 -2.35 -64.25 2.8 -68.05 2.8 -72.55 2.8 -73.75 2.35 -74.5 L-1.65 -73.6 -4.7 -73.1 Q-17.75 -73.1 -21.2 -74.4 -25.8 -76.2 -25.8 -82.95 -25.8 -88.9 -18.7 -101.5 -15.05 -107.95 -10.9 -114.05 L-11.05 -112.85 Q-11.6 -110.2 -12.75 -106.8 L-13.8 -103.7 -13.7 -102.75 -12.75 -102.45 Q-11.5 -103.15 -9.4 -108.0 L-4.9 -118.05 -4.4 -118.95 -4.0 -118.95 Q-0.55 -118.95 3.9 -122.9 M13.05 -76.5 L12.0 -76.8 Q11.35 -76.8 8.65 -71.0 L5.95 -64.95 Q5.3 -63.95 -1.95 -59.0 -8.55 -54.45 -8.55 -53.05 L-8.55 -52.8 Q-8.5 -48.9 -7.1 -48.1 -5.75 -47.3 2.05 -43.75 -5.35 -42.05 -8.8 -40.75 -11.15 -39.85 -11.15 -39.4 -11.15 -37.9 -8.25 -36.55 -3.6 -34.5 -1.65 -33.0 -7.75 -32.15 -8.85 -31.4 -9.9 -30.65 -9.9 -27.5 L-9.6 -25.35 -9.15 -25.2 -8.2 -25.05 Q0.2 -25.05 7.3 -25.45 19.1 -26.1 19.1 -27.65 19.1 -28.7 16.55 -28.9 13.95 -29.1 13.95 -31.8 13.95 -34.25 17.45 -35.0 20.95 -35.7 20.95 -38.7 20.95 -40.85 17.25 -43.15 L11.05 -47.2 16.8 -48.35 Q18.35 -48.6 18.35 -49.55 L18.15 -52.8 17.4 -56.3 Q16.4 -59.35 14.55 -59.35 L11.6 -58.75 7.2 -57.75 11.9 -70.05 Q13.1 -73.6 13.1 -75.35 L13.05 -76.5 M13.0 -18.6 L20.25 -18.6 20.25 -13.35 13.0 -13.35 13.0 -18.6 M10.15 -13.7 L5.25 -13.7 5.25 -18.65 10.15 -18.65 10.15 -13.7 M4.1 -13.05 L-1.05 -13.05 -1.05 -18.15 4.1 -18.15 4.1 -13.05 M27.55 -19.6 L27.55 -14.5 22.45 -14.5 22.45 -19.6 27.55 -19.6 M-2.2 -92.65 Q-1.45 -92.9 -0.8 -93.85 L-1.5 -95.15 Q-1.85 -95.5 -2.55 -95.5 L-6.3 -94.85 -9.7 -94.25 -14.85 -94.55 Q-19.35 -94.85 -19.65 -94.65 L-20.05 -93.95 Q-19.25 -93.35 -16.9 -92.8 -13.7 -92.0 -9.95 -92.0 L-2.2 -92.65 M-6.75 -98.1 L-8.55 -98.35 -15.4 -97.75 -18.4 -97.05 -18.55 -96.95 Q-16.95 -95.35 -13.9 -95.35 -6.95 -95.35 -5.45 -97.6 -5.75 -97.9 -6.75 -98.1 M-18.9 -91.25 L-18.9 -91.35 Q-18.4 -90.95 -17.55 -90.95 L-15.75 -91.2 -15.4 -91.85 -15.4 -92.15 -15.55 -92.45 -18.25 -92.25 Q-19.15 -92.0 -18.9 -91.25 M-15.25 -58.25 L-15.3 -58.8 -15.2 -59.45 -15.25 -58.25 M-21.6 -34.0 L-22.3 -32.0 -21.95 -33.4 -21.6 -34.0 M-3.6 -13.35 L-11.35 -13.35 -11.35 -18.85 -3.6 -18.85 -3.6 -13.35 M-18.7 -14.55 L-18.7 -19.2 -14.05 -19.2 -14.05 -14.55 -18.7 -14.55" fill="#282828" fill-rule="evenodd" stroke="none"/>
    <path d="M1.05 -123.25 Q1.95 -123.35 1.95 -122.6 L1.7 -121.95 -2.85 -120.0 -3.45 -119.95 -3.55 -119.95 -3.55 -120.35 Q-3.55 -120.9 -2.45 -121.65 L-2.0 -121.75 Q-0.4 -122.2 1.05 -123.25 M1.15 -116.15 Q3.0 -121.25 4.25 -121.25 5.25 -121.25 7.0 -117.7 8.9 -113.8 9.3 -109.9 10.35 -98.6 -2.45 -98.6 -14.45 -98.6 -16.05 -100.5 L-15.4 -101.1 Q-13.3 -100.75 -9.35 -102.2 -5.8 -103.5 -5.15 -104.3 -1.4 -109.1 1.15 -116.15 M4.2 -113.05 Q3.25 -113.05 0.9 -109.0 -1.45 -104.9 -1.45 -102.95 -1.45 -102.25 -1.05 -101.85 -0.7 -101.5 -0.15 -101.5 1.45 -101.5 3.1 -103.85 5.2 -106.75 5.2 -111.25 L5.05 -112.75 4.95 -112.9 4.2 -113.05 M11.9 -100.2 L11.85 -100.05 11.8 -98.25 Q11.8 -96.6 12.15 -94.75 12.0 -92.6 9.3 -86.6 6.65 -80.7 2.85 -79.0 -0.95 -77.25 -11.5 -77.25 -15.9 -77.25 -17.9 -78.25 -20.15 -79.4 -20.15 -82.25 L-20.0 -86.35 Q-19.7 -87.85 -18.35 -88.5 -16.65 -89.35 -3.25 -90.7 -1.75 -90.85 4.9 -95.6 L11.3 -100.35 11.9 -100.2 M9.1 -94.95 L8.5 -95.1 3.0 -91.65 Q-2.65 -88.1 -4.2 -87.85 L-14.1 -87.05 Q-17.8 -86.65 -17.8 -83.4 -17.8 -81.65 -16.9 -81.35 L-12.9 -81.1 Q-5.6 -81.1 -1.2 -82.4 3.6 -83.9 2.8 -86.45 4.5 -86.75 6.9 -89.95 9.2 -93.05 9.1 -94.6 L9.1 -94.95 M13.05 -76.5 L13.1 -75.35 Q13.1 -73.6 11.9 -70.05 L7.2 -57.75 11.6 -58.75 14.55 -59.35 Q16.4 -59.35 17.4 -56.3 L18.15 -52.8 18.35 -49.55 Q18.35 -48.6 16.8 -48.35 L11.05 -47.2 17.25 -43.15 Q20.95 -40.85 20.95 -38.7 20.95 -35.7 17.45 -35.0 13.95 -34.25 13.95 -31.8 13.95 -29.1 16.55 -28.9 19.1 -28.7 19.1 -27.65 19.1 -26.1 7.3 -25.45 0.2 -25.05 -8.2 -25.05 L-9.15 -25.2 -9.6 -25.35 -9.9 -27.5 Q-9.9 -30.65 -8.85 -31.4 -7.75 -32.15 -1.65 -33.0 -3.6 -34.5 -8.25 -36.55 -11.15 -37.9 -11.15 -39.4 -11.15 -39.85 -8.8 -40.75 -5.35 -42.05 2.05 -43.75 -5.75 -47.3 -7.1 -48.1 -8.5 -48.9 -8.55 -52.8 L-8.55 -53.05 Q-8.55 -54.45 -1.95 -59.0 5.3 -63.95 5.95 -64.95 L8.65 -71.0 Q11.35 -76.8 12.0 -76.8 L13.05 -76.5 M15.8 -39.4 Q15.8 -41.25 13.1 -42.85 10.85 -44.25 5.25 -46.2 L4.5 -46.15 Q4.7 -44.9 5.85 -43.55 7.45 -41.5 9.85 -41.35 L-1.15 -40.55 Q-6.15 -39.95 -7.2 -39.35 -6.95 -38.05 -2.55 -35.3 L5.45 -30.15 4.4 -30.2 -1.05 -29.7 Q-3.4 -29.1 -4.3 -28.4 -3.3 -27.55 -0.65 -27.0 L3.25 -26.55 Q6.05 -26.55 9.55 -27.4 L12.5 -27.25 Q13.85 -27.25 13.85 -28.65 13.85 -29.6 11.9 -31.85 L8.1 -36.2 Q15.8 -38.35 15.8 -39.4 M11.75 -52.8 L10.45 -54.5 5.7 -55.0 Q-3.55 -56.9 -4.15 -53.8 L-4.35 -52.8 Q-4.6 -51.05 -3.65 -50.7 L1.7 -50.1 11.05 -50.65 Q13.05 -51.0 11.75 -52.8 M-2.2 -92.65 L-9.95 -92.0 Q-13.7 -92.0 -16.9 -92.8 -19.25 -93.35 -20.05 -93.95 L-19.65 -94.65 Q-19.35 -94.85 -14.85 -94.55 L-9.7 -94.25 -6.3 -94.85 -2.55 -95.5 Q-1.85 -95.5 -1.5 -95.15 L-0.8 -93.85 Q-1.45 -92.9 -2.2 -92.65" fill="#363636" fill-rule="evenodd" stroke="none"/>
    <path d="M4.2 -113.05 L4.95 -112.9 5.05 -112.75 5.2 -111.25 Q5.2 -106.75 3.1 -103.85 1.45 -101.5 -0.15 -101.5 -0.7 -101.5 -1.05 -101.85 -1.45 -102.25 -1.45 -102.95 -1.45 -104.9 0.9 -109.0 3.25 -113.05 4.2 -113.05 M9.1 -94.95 L9.1 -94.6 Q9.2 -93.05 6.9 -89.95 4.5 -86.75 2.8 -86.45 3.6 -83.9 -1.2 -82.4 -5.6 -81.1 -12.9 -81.1 L-16.9 -81.35 Q-17.8 -81.65 -17.8 -83.4 -17.8 -86.65 -14.1 -87.05 L-4.2 -87.85 Q-2.65 -88.1 3.0 -91.65 L8.5 -95.1 9.1 -94.95 M11.75 -52.8 Q13.05 -51.0 11.05 -50.65 L1.7 -50.1 -3.65 -50.7 Q-4.6 -51.05 -4.35 -52.8 L-4.15 -53.8 Q-3.55 -56.9 5.7 -55.0 L10.45 -54.5 11.75 -52.8 M15.8 -39.4 Q15.8 -38.35 8.1 -36.2 L11.9 -31.85 Q13.85 -29.6 13.85 -28.65 13.85 -27.25 12.5 -27.25 L9.55 -27.4 Q6.05 -26.55 3.25 -26.55 L-0.65 -27.0 Q-3.3 -27.55 -4.3 -28.4 -3.4 -29.1 -1.05 -29.7 L4.4 -30.2 5.45 -30.15 -2.55 -35.3 Q-6.95 -38.05 -7.2 -39.35 -6.15 -39.95 -1.15 -40.55 L9.85 -41.35 Q7.45 -41.5 5.85 -43.55 4.7 -44.9 4.5 -46.15 L5.25 -46.2 Q10.85 -44.25 13.1 -42.85 15.8 -41.25 15.8 -39.4" fill="#454545" fill-rule="evenodd" stroke="none"/>
  </g>
</svg>
