<?xml version="1.0" encoding="UTF-8" standalone="no"?>
<svg xmlns:ffdec="https://www.free-decompiler.com/flash" xmlns:xlink="http://www.w3.org/1999/xlink" ffdec:objectType="shape" height="126.75px" width="62.25px" xmlns="http://www.w3.org/2000/svg">
  <g transform="matrix(1.0, 0.0, 0.0, 1.0, 27.25, 136.65)">
    <path d="M9.55 -130.25 L11.8 -125.85 12.55 -124.55 Q17.2 -116.35 27.05 -100.35 34.5 -88.25 33.55 -79.5 32.9 -73.25 28.1 -68.7 L26.95 -67.7 23.75 -65.45 24.7 -58.05 24.75 -57.6 Q25.5 -51.5 26.85 -44.45 L27.1 -43.2 28.05 -39.1 Q29.35 -33.55 30.7 -28.9 L31.9 -25.1 32.35 -23.45 32.75 -22.0 34.3 -16.05 34.5 -15.3 34.45 -15.35 34.65 -14.65 34.8 -13.75 35.0 -13.2 33.55 -12.8 25.8 -11.0 7.35 -9.9 -15.3 -11.25 -25.85 -13.1 -27.2 -13.35 -27.25 -13.5 -27.05 -15.1 -25.9 -21.95 -25.8 -22.35 -25.55 -23.5 -24.7 -27.7 -23.8 -33.05 -22.75 -39.75 -22.05 -45.9 -21.85 -47.8 -20.8 -57.65 -20.4 -62.65 -20.35 -63.35 -20.05 -66.3 -19.85 -75.4 -19.7 -83.0 -19.6 -89.35 Q-19.35 -108.35 -12.05 -124.3 L-8.6 -131.35 Q-5.5 -137.55 0.5 -136.5 6.45 -135.5 8.7 -131.7 L9.55 -130.25 M31.0 -22.7 L30.55 -24.3 29.3 -28.45 Q27.8 -33.25 26.5 -39.0 L25.7 -42.8 25.65 -42.9 Q24.1 -50.65 23.3 -57.15 L23.2 -57.85 22.65 -62.05 22.15 -65.6 22.15 -65.7 22.15 -65.8 22.1 -66.2 22.95 -66.7 23.3 -66.95 26.55 -69.3 27.65 -70.35 Q31.5 -74.35 32.05 -79.65 32.85 -87.95 25.7 -99.6 19.15 -110.25 14.95 -117.45 L11.95 -122.55 11.95 -122.6 10.1 -125.85 Q9.2 -127.9 7.1 -131.15 L6.2 -132.3 4.35 -133.85 Q5.45 -132.95 5.7 -131.7 6.1 -130.4 5.35 -128.65 L4.75 -127.45 3.8 -126.0 Q2.5 -124.3 1.05 -123.25 L0.8 -123.05 Q-0.55 -122.15 -2.0 -121.75 L-2.45 -121.65 -3.7 -121.5 Q-4.8 -121.55 -5.5 -122.15 L-5.9 -122.5 Q-6.85 -123.55 -7.0 -125.6 L-7.05 -126.4 Q-7.2 -130.6 -4.55 -133.45 L-2.8 -134.9 Q-6.05 -133.95 -7.75 -130.2 L-10.7 -123.7 -11.9 -120.9 Q-17.6 -106.9 -18.05 -90.65 L-18.1 -89.35 -18.2 -82.55 -18.55 -66.25 -18.55 -65.55 -18.85 -63.15 -18.85 -62.55 -20.3 -47.65 -20.65 -44.1 -21.1 -40.75 -22.25 -32.85 Q-22.75 -29.5 -23.4 -26.15 L-24.0 -23.2 -24.3 -22.0 -24.4 -21.65 -24.75 -19.75 -25.1 -17.75 -25.55 -15.05 -25.6 -14.75 -24.85 -14.6 -24.2 -14.55 -3.9 -12.0 7.0 -11.5 12.2 -11.6 17.6 -11.8 20.4 -12.05 31.05 -13.75 32.5 -14.1 33.15 -14.25 33.1 -14.5 32.95 -14.95 32.95 -15.0 32.8 -15.65 32.8 -15.7 32.55 -16.65 31.5 -20.75 31.3 -21.55 30.45 -21.3 31.15 -22.05 31.0 -22.7 M4.5 -131.4 Q4.1 -132.7 2.4 -133.5 -1.25 -135.25 -3.6 -132.6 -5.3 -130.7 -5.7 -128.25 -5.9 -127.05 -5.75 -125.7 L-5.3 -123.85 -4.75 -123.15 Q-4.1 -122.7 -3.0 -122.8 L-2.35 -122.95 Q-1.45 -123.2 -0.6 -123.65 1.45 -124.8 3.1 -127.15 L3.7 -128.1 3.65 -128.1 4.35 -129.7 4.5 -131.4" fill="#111111" fill-rule="evenodd" stroke="none"/>
    <path d="M-24.0 -23.2 Q-17.6 -22.1 -0.6 -20.55 L6.55 -21.85 12.0 -21.1 14.0 -20.35 Q14.9 -20.35 18.25 -21.45 21.6 -22.55 23.2 -22.55 25.85 -22.55 27.9 -21.45 28.4 -21.2 31.0 -22.7 L31.15 -22.05 30.45 -21.3 31.3 -21.55 31.5 -20.75 32.55 -16.65 32.8 -15.7 32.8 -15.65 32.95 -15.0 32.95 -14.95 33.1 -14.5 33.15 -14.25 32.5 -14.1 31.05 -13.75 31.0 -13.9 Q30.25 -17.15 30.25 -19.25 L29.85 -21.15 27.45 -21.05 21.85 -21.6 Q14.35 -19.35 13.3 -19.35 12.35 -19.35 10.0 -20.1 7.6 -20.85 5.05 -20.85 L3.75 -20.05 Q2.3 -19.3 -1.3 -19.3 L-6.65 -20.0 -13.9 -20.95 -20.4 -21.5 -22.15 -21.7 -22.4 -20.8 Q-22.4 -19.75 -23.95 -15.4 L-24.2 -14.55 -24.85 -14.6 -25.6 -14.75 -25.55 -15.05 -25.1 -17.75 -24.75 -19.75 -24.4 -21.65 -24.3 -22.0 -24.0 -23.2" fill="#1a1a1a" fill-rule="evenodd" stroke="none"/>
    <path d="M5.35 -128.65 Q6.1 -130.4 5.7 -131.7 5.45 -132.95 4.35 -133.85 L6.2 -132.3 7.1 -131.15 Q9.2 -127.9 10.1 -125.85 L11.95 -122.6 11.95 -122.55 14.95 -117.45 Q19.15 -110.25 25.7 -99.6 32.85 -87.95 32.05 -79.65 31.5 -74.35 27.65 -70.35 L26.55 -69.3 23.3 -66.95 22.95 -66.7 22.1 -66.2 22.15 -65.8 22.15 -65.7 22.15 -65.6 22.65 -62.05 23.2 -57.85 23.3 -57.15 Q24.1 -50.65 25.65 -42.9 L25.7 -42.8 26.5 -39.0 Q27.8 -33.25 29.3 -28.45 L30.55 -24.3 31.0 -22.7 Q28.4 -21.2 27.9 -21.45 25.85 -22.55 23.2 -22.55 21.6 -22.55 18.25 -21.45 14.9 -20.35 14.0 -20.35 L12.0 -21.1 6.55 -21.85 -0.6 -20.55 Q-17.6 -22.1 -24.0 -23.2 L-23.4 -26.15 Q-22.75 -29.5 -22.25 -32.85 L-21.1 -40.75 -20.65 -44.1 -20.3 -47.65 -18.85 -62.55 -18.85 -63.15 -18.55 -65.55 -18.55 -66.25 -18.2 -82.55 -18.1 -89.35 -18.05 -90.65 Q-17.6 -106.9 -11.9 -120.9 L-10.7 -123.7 -7.75 -130.2 Q-6.05 -133.95 -2.8 -134.9 L-4.55 -133.45 Q-7.2 -130.6 -7.05 -126.4 L-8.1 -124.45 -7.45 -122.4 Q-7.05 -121.5 -6.45 -120.9 -5.5 -119.95 -4.05 -119.95 L-3.55 -119.95 -3.45 -119.95 -2.85 -120.0 1.7 -121.95 3.9 -123.95 4.35 -124.4 6.35 -127.0 5.35 -128.65 M31.05 -13.75 L20.4 -12.05 17.6 -11.8 12.2 -11.6 7.0 -11.5 -3.9 -12.0 -24.2 -14.55 -23.95 -15.4 Q-22.4 -19.75 -22.4 -20.8 L-22.15 -21.7 -20.4 -21.5 -13.9 -20.95 -6.65 -20.0 -1.3 -19.3 Q2.3 -19.3 3.75 -20.05 L5.05 -20.85 Q7.6 -20.85 10.0 -20.1 12.35 -19.35 13.3 -19.35 14.35 -19.35 21.85 -21.6 L27.45 -21.05 29.85 -21.15 30.25 -19.25 Q30.25 -17.15 31.0 -13.9 L31.05 -13.75 M-6.75 -119.7 Q-7.75 -120.35 -8.35 -121.6 L-8.7 -123.05 Q-9.75 -120.35 -10.2 -116.95 L-8.9 -113.75 Q-10.95 -112.95 -11.9 -107.55 -12.55 -103.85 -12.55 -99.4 -12.55 -98.75 -10.45 -97.35 L-7.05 -95.0 -8.35 -94.5 -13.35 -94.65 Q-14.45 -94.3 -14.45 -92.4 L-14.4 -86.25 -14.15 -78.4 Q-13.95 -75.85 -12.7 -73.9 -11.55 -72.1 -11.55 -70.9 -11.55 -67.8 -13.2 -62.3 L-13.4 -61.8 Q-15.3 -56.9 -15.3 -47.5 -15.3 -46.15 -14.05 -45.15 -12.8 -44.15 -11.05 -44.15 -16.55 -42.65 -16.55 -35.15 -16.55 -34.0 -16.0 -33.45 L-13.3 -31.45 Q-21.2 -31.65 -21.2 -29.2 -21.2 -26.45 -19.75 -25.75 L-14.3 -24.7 0.75 -23.2 10.25 -22.95 Q26.8 -22.95 27.85 -27.65 28.8 -28.1 25.55 -28.65 L21.0 -29.15 17.5 -28.95 17.45 -29.7 22.8 -32.7 Q24.55 -33.8 24.55 -35.2 24.55 -36.5 24.0 -36.9 22.5 -37.7 20.6 -39.1 L22.35 -40.95 22.85 -41.95 Q22.85 -44.35 19.9 -46.1 17.1 -47.75 14.6 -47.4 L18.7 -51.8 Q19.2 -52.6 19.2 -53.9 19.2 -56.2 18.05 -62.3 L17.0 -68.65 14.8 -80.65 Q14.8 -82.1 15.65 -85.1 16.55 -88.3 17.55 -89.9 19.9 -80.25 20.7 -78.05 22.1 -74.2 23.95 -74.2 25.4 -74.2 27.2 -76.75 29.05 -79.35 29.05 -81.65 29.05 -84.05 25.25 -94.2 20.85 -105.95 17.5 -105.95 15.35 -105.95 15.25 -101.45 15.15 -99.1 15.35 -95.75 14.75 -91.7 13.8 -89.25 L12.85 -87.2 Q12.45 -88.8 12.45 -89.8 L13.6 -100.45 14.7 -112.05 14.7 -112.7 14.65 -112.6 14.25 -112.95 Q13.25 -112.15 11.75 -109.5 10.45 -107.2 10.4 -106.7 8.2 -121.65 6.8 -125.85 L4.55 -123.45 3.9 -122.9 1.75 -121.15 Q-0.75 -119.4 -2.9 -119.05 L-4.0 -118.95 Q-5.6 -118.95 -6.75 -119.7 M10.15 -13.7 L10.15 -18.65 5.25 -18.65 5.25 -13.7 10.15 -13.7 M13.0 -18.6 L13.0 -13.35 20.25 -13.35 20.25 -18.6 13.0 -18.6 M27.55 -19.6 L22.45 -19.6 22.45 -14.5 27.55 -14.5 27.55 -19.6 M4.1 -13.05 L4.1 -18.15 -1.05 -18.15 -1.05 -13.05 4.1 -13.05 M-18.7 -14.55 L-14.05 -14.55 -14.05 -19.2 -18.7 -19.2 -18.7 -14.55 M-3.6 -13.35 L-3.6 -18.85 -11.35 -18.85 -11.35 -13.35 -3.6 -13.35" fill="#1f1f1f" fill-rule="evenodd" stroke="none"/>
    <path d="M5.35 -128.65 L6.35 -127.0 4.35 -124.4 3.8 -126.0 4.75 -127.45 5.35 -128.65 M-6.45 -120.9 Q-7.05 -121.5 -7.45 -122.4 L-8.1 -124.45 -7.05 -126.4 -7.0 -125.6 Q-6.85 -123.55 -5.9 -122.5 L-6.45 -120.9 M4.55 -123.45 L6.8 -125.85 Q8.2 -121.65 10.4 -106.7 10.45 -107.2 11.75 -109.5 13.25 -112.15 14.25 -112.95 L14.65 -112.6 14.7 -112.7 14.7 -112.05 13.6 -100.45 12.45 -89.8 Q12.45 -88.8 12.85 -87.2 L13.8 -89.25 Q14.75 -91.7 15.35 -95.75 15.15 -99.1 15.25 -101.45 15.35 -105.95 17.5 -105.95 20.85 -105.95 25.25 -94.2 29.05 -84.05 29.05 -81.65 29.05 -79.35 27.2 -76.75 25.4 -74.2 23.95 -74.2 22.1 -74.2 20.7 -78.05 19.9 -80.25 17.55 -89.9 16.55 -88.3 15.65 -85.1 14.8 -82.1 14.8 -80.65 L17.0 -68.65 18.05 -62.3 Q19.2 -56.2 19.2 -53.9 19.2 -52.6 18.7 -51.8 L14.6 -47.4 Q17.1 -47.75 19.9 -46.1 22.85 -44.35 22.85 -41.95 L22.35 -40.95 20.6 -39.1 Q22.5 -37.7 24.0 -36.9 24.55 -36.5 24.55 -35.2 24.55 -33.8 22.8 -32.7 L17.45 -29.7 17.5 -28.95 21.0 -29.15 25.55 -28.65 Q28.8 -28.1 27.85 -27.65 26.8 -22.95 10.25 -22.95 L0.75 -23.2 -14.3 -24.7 -19.75 -25.75 Q-21.2 -26.45 -21.2 -29.2 -21.2 -31.65 -13.3 -31.45 L-16.0 -33.45 Q-16.55 -34.0 -16.55 -35.15 -16.55 -42.65 -11.05 -44.15 -12.8 -44.15 -14.05 -45.15 -15.3 -46.15 -15.3 -47.5 -15.3 -56.9 -13.4 -61.8 L-13.2 -62.3 Q-11.55 -67.8 -11.55 -70.9 -11.55 -72.1 -12.7 -73.9 -13.95 -75.85 -14.15 -78.4 L-14.4 -86.25 -14.45 -92.4 Q-14.45 -94.3 -13.35 -94.65 L-8.35 -94.5 -7.05 -95.0 -10.45 -97.35 Q-12.55 -98.75 -12.55 -99.4 -12.55 -103.85 -11.9 -107.55 -10.95 -112.95 -8.9 -113.75 L-10.2 -116.95 Q-9.75 -120.35 -8.7 -123.05 L-8.35 -121.6 Q-7.75 -120.35 -6.75 -119.7 L-6.95 -117.25 -6.9 -116.15 -4.15 -116.0 1.75 -116.55 Q4.9 -117.25 4.9 -118.7 4.9 -121.45 4.55 -123.45 M4.9 -116.0 Q-0.5 -113.35 -4.0 -112.35 -7.5 -111.35 -8.95 -109.85 -10.3 -108.45 -10.3 -106.1 -10.3 -99.4 -9.45 -98.7 L-1.3 -98.35 Q-6.3 -92.5 -7.7 -88.5 -8.95 -85.0 -8.95 -77.55 -8.95 -74.65 -8.45 -73.85 -7.45 -72.35 -3.75 -72.6 L-7.45 -69.4 Q-10.5 -66.75 -10.55 -66.4 L-10.8 -62.3 -11.3 -48.9 Q-11.3 -48.0 -10.7 -47.6 -10.1 -47.25 -8.75 -47.25 L0.35 -48.15 Q-2.15 -46.0 -6.5 -43.8 -10.25 -41.9 -10.7 -41.15 -11.45 -39.95 -11.45 -34.8 -11.45 -34.35 -7.7 -34.1 L6.85 -32.95 7.0 -32.85 7.95 -32.65 Q4.95 -31.9 0.65 -31.4 L-5.9 -30.7 Q-12.45 -29.9 -12.45 -26.95 -12.45 -25.5 -8.15 -25.05 L2.6 -24.75 8.9 -24.9 16.35 -25.45 Q16.5 -24.85 16.5 -25.7 16.5 -27.1 15.8 -27.95 15.1 -28.8 14.05 -28.8 L12.95 -28.75 17.35 -31.8 Q19.95 -33.75 19.95 -35.45 19.95 -36.8 18.5 -37.25 L13.95 -38.35 12.8 -38.55 15.95 -40.55 17.1 -41.5 13.75 -42.65 Q10.45 -43.95 8.95 -45.3 10.6 -46.35 11.85 -47.85 14.35 -50.9 14.35 -56.2 L14.2 -62.3 Q13.75 -72.7 11.9 -75.0 11.6 -75.4 10.35 -81.15 9.1 -87.1 9.1 -88.95 L9.15 -89.65 9.3 -89.75 9.55 -89.7 9.2 -89.0 9.3 -88.9 Q9.7 -89.75 10.75 -94.5 11.95 -99.95 12.6 -104.8 L12.45 -105.2 7.95 -99.7 Q3.95 -95.1 2.05 -95.0 1.55 -94.55 1.55 -95.55 1.55 -96.95 4.65 -101.15 7.7 -105.3 7.7 -108.45 7.7 -110.9 6.8 -113.4 5.85 -116.0 4.9 -116.0 M24.8 -86.5 Q24.8 -88.7 23.3 -92.7 21.7 -96.9 20.2 -98.1 L19.3 -97.05 Q19.2 -95.6 21.0 -90.35 22.65 -85.5 23.45 -84.25 L24.4 -85.0 Q24.8 -85.8 24.8 -86.5 M13.0 -18.6 L20.25 -18.6 20.25 -13.35 13.0 -13.35 13.0 -18.6 M10.15 -13.7 L5.25 -13.7 5.25 -18.65 10.15 -18.65 10.15 -13.7 M4.1 -13.05 L-1.05 -13.05 -1.05 -18.15 4.1 -18.15 4.1 -13.05 M27.55 -19.6 L27.55 -14.5 22.45 -14.5 22.45 -19.6 27.55 -19.6 M-3.6 -13.35 L-11.35 -13.35 -11.35 -18.85 -3.6 -18.85 -3.6 -13.35 M-18.7 -14.55 L-18.7 -19.2 -14.05 -19.2 -14.05 -14.55 -18.7 -14.55" fill="#282828" fill-rule="evenodd" stroke="none"/>
    <path d="M4.35 -124.4 L3.9 -123.95 1.7 -121.95 -2.85 -120.0 -3.45 -119.95 -3.55 -119.95 -4.05 -119.95 Q-5.5 -119.95 -6.45 -120.9 L-5.9 -122.5 -5.5 -122.15 Q-4.8 -121.55 -3.7 -121.5 L-3.75 -121.0 -3.6 -120.05 -3.55 -120.35 Q-3.55 -120.9 -2.45 -121.65 L-2.0 -121.75 Q-0.55 -122.15 0.8 -123.05 L1.05 -123.25 Q2.5 -124.3 3.8 -126.0 L4.35 -124.4 M-6.75 -119.7 Q-5.6 -118.95 -4.0 -118.95 L-2.9 -119.05 Q-2.1 -118.3 -1.0 -118.3 0.15 -118.3 0.95 -119.1 1.75 -119.9 1.75 -121.0 L1.75 -121.15 3.9 -122.9 4.55 -123.45 Q4.9 -121.45 4.9 -118.7 4.9 -117.25 1.75 -116.55 L-4.15 -116.0 -6.9 -116.15 -6.95 -117.25 -6.75 -119.7 M5.3 -112.65 L5.1 -112.85 3.45 -112.95 Q0.2 -112.95 -3.75 -108.85 -7.2 -105.2 -7.2 -103.65 L-7.0 -102.7 -6.85 -102.3 Q-1.85 -103.15 2.25 -107.3 5.45 -110.55 5.45 -111.9 L5.3 -112.65 M4.9 -116.0 Q5.85 -116.0 6.8 -113.4 7.7 -110.9 7.7 -108.45 7.7 -105.3 4.65 -101.15 1.55 -96.95 1.55 -95.55 1.55 -94.55 2.05 -95.0 3.95 -95.1 7.95 -99.7 L12.45 -105.2 12.6 -104.8 Q11.95 -99.95 10.75 -94.5 9.7 -89.75 9.3 -88.9 L9.2 -89.0 9.55 -89.7 9.3 -89.75 9.15 -89.65 9.1 -88.95 Q9.1 -87.1 10.35 -81.15 11.6 -75.4 11.9 -75.0 13.75 -72.7 14.2 -62.3 L14.35 -56.2 Q14.35 -50.9 11.85 -47.85 10.6 -46.35 8.95 -45.3 10.45 -43.95 13.75 -42.65 L17.1 -41.5 15.95 -40.55 12.8 -38.55 13.95 -38.35 18.5 -37.25 Q19.95 -36.8 19.95 -35.45 19.95 -33.75 17.35 -31.8 L12.95 -28.75 14.05 -28.8 Q15.1 -28.8 15.8 -27.95 16.5 -27.1 16.5 -25.7 16.5 -24.85 16.35 -25.45 L8.9 -24.9 2.6 -24.75 -8.15 -25.05 Q-12.45 -25.5 -12.45 -26.95 -12.45 -29.9 -5.9 -30.7 L0.65 -31.4 Q4.95 -31.9 7.95 -32.65 L7.0 -32.85 6.85 -32.95 -7.7 -34.1 Q-11.45 -34.35 -11.45 -34.8 -11.45 -39.95 -10.7 -41.15 -10.25 -41.9 -6.5 -43.8 -2.15 -46.0 0.35 -48.15 L-8.75 -47.25 Q-10.1 -47.25 -10.7 -47.6 -11.3 -48.0 -11.3 -48.9 L-10.8 -62.3 -10.55 -66.4 Q-10.5 -66.75 -7.45 -69.4 L-3.75 -72.6 Q-7.45 -72.35 -8.45 -73.85 -8.95 -74.65 -8.95 -77.55 -8.95 -85.0 -7.7 -88.5 -6.3 -92.5 -1.3 -98.35 L-9.45 -98.7 Q-10.3 -99.4 -10.3 -106.1 -10.3 -108.45 -8.95 -109.85 -7.5 -111.35 -4.0 -112.35 -0.5 -113.35 4.9 -116.0 M24.8 -86.5 Q24.8 -85.8 24.4 -85.0 L23.45 -84.25 Q22.65 -85.5 21.0 -90.35 19.2 -95.6 19.3 -97.05 L20.2 -98.1 Q21.7 -96.9 23.3 -92.7 24.8 -88.7 24.8 -86.5 M10.0 -29.7 L9.9 -30.2 9.8 -30.1 7.55 -30.45 3.95 -29.95 -6.8 -29.0 Q-8.4 -28.8 -8.4 -27.85 -8.4 -27.15 -7.6 -26.9 L-3.75 -26.6 5.2 -27.3 Q10.0 -28.15 10.0 -29.7 M5.6 -43.65 Q9.85 -47.15 5.25 -47.15 3.05 -47.15 -2.4 -44.3 -8.4 -41.2 -8.4 -38.8 -8.4 -37.35 -0.55 -35.3 7.1 -33.3 12.0 -33.3 14.95 -33.3 14.95 -35.05 14.95 -36.55 8.9 -37.5 L-2.15 -39.6 Q1.45 -40.25 5.6 -43.65 M7.6 -76.5 Q7.6 -78.2 7.2 -78.25 L6.6 -78.3 Q5.95 -76.6 3.45 -74.7 L-1.4 -71.3 Q-6.9 -67.3 -7.75 -62.3 L-7.9 -60.8 Q-7.9 -58.95 -5.3 -58.95 L-0.05 -59.45 -7.15 -53.8 Q-7.7 -53.4 -7.7 -52.7 -7.7 -51.9 -6.95 -51.3 -5.95 -50.5 -4.05 -50.5 -1.55 -50.5 5.3 -56.05 L4.75 -54.8 2.6 -51.1 Q2.6 -50.25 3.15 -50.25 L3.95 -49.95 Q6.9 -50.0 9.3 -53.9 11.5 -57.55 11.5 -61.2 L11.4 -62.3 11.3 -62.45 11.1 -62.3 10.7 -61.8 10.8 -62.3 Q11.35 -66.8 10.8 -68.95 10.6 -69.65 9.5 -69.7 L7.6 -69.65 3.6 -70.1 Q7.2 -74.45 7.6 -76.5 M8.55 -96.05 L7.7 -96.2 Q6.5 -94.75 -1.9 -86.75 -6.8 -82.15 -6.8 -78.35 L-6.55 -76.25 -5.45 -75.95 Q-1.4 -77.8 2.9 -84.0 7.25 -90.2 8.55 -96.05" fill="#363636" fill-rule="evenodd" stroke="none"/>
    <path d="M-2.45 -121.65 Q-3.55 -120.9 -3.55 -120.35 L-3.6 -120.05 -3.75 -121.0 -3.7 -121.5 -2.45 -121.65 M-2.9 -119.05 Q-0.75 -119.4 1.75 -121.15 L1.75 -121.0 Q1.75 -119.9 0.95 -119.1 0.15 -118.3 -1.0 -118.3 -2.1 -118.3 -2.9 -119.05 M5.3 -112.65 L5.45 -111.9 Q5.45 -110.55 2.25 -107.3 -1.85 -103.15 -6.85 -102.3 L-7.0 -102.7 -7.2 -103.65 Q-7.2 -105.2 -3.75 -108.85 0.2 -112.95 3.45 -112.95 L5.1 -112.85 5.3 -112.65 M8.55 -96.05 Q7.25 -90.2 2.9 -84.0 -1.4 -77.8 -5.45 -75.95 L-6.55 -76.25 -6.8 -78.35 Q-6.8 -82.15 -1.9 -86.75 6.5 -94.75 7.7 -96.2 L8.55 -96.05 M7.6 -76.5 Q7.2 -74.45 3.6 -70.1 L7.6 -69.65 9.5 -69.7 Q10.6 -69.65 10.8 -68.95 11.35 -66.8 10.8 -62.3 L10.7 -61.8 11.1 -62.3 11.3 -62.45 11.4 -62.3 11.5 -61.2 Q11.5 -57.55 9.3 -53.9 6.9 -50.0 3.95 -49.95 L3.15 -50.25 Q2.6 -50.25 2.6 -51.1 L4.75 -54.8 5.3 -56.05 Q-1.55 -50.5 -4.05 -50.5 -5.95 -50.5 -6.95 -51.3 -7.7 -51.9 -7.7 -52.7 -7.7 -53.4 -7.15 -53.8 L-0.05 -59.45 -5.3 -58.95 Q-7.9 -58.95 -7.9 -60.8 L-7.75 -62.3 Q-6.9 -67.3 -1.4 -71.3 L3.45 -74.7 Q5.95 -76.6 6.6 -78.3 L7.2 -78.25 Q7.6 -78.2 7.6 -76.5 M5.6 -43.65 Q1.45 -40.25 -2.15 -39.6 L8.9 -37.5 Q14.95 -36.55 14.95 -35.05 14.95 -33.3 12.0 -33.3 7.1 -33.3 -0.55 -35.3 -8.4 -37.35 -8.4 -38.8 -8.4 -41.2 -2.4 -44.3 3.05 -47.15 5.25 -47.15 9.85 -47.15 5.6 -43.65 M10.0 -29.7 Q10.0 -28.15 5.2 -27.3 L-3.75 -26.6 -7.6 -26.9 Q-8.4 -27.15 -8.4 -27.85 -8.4 -28.8 -6.8 -29.0 L3.95 -29.95 7.55 -30.45 9.8 -30.1 9.9 -30.2 10.0 -29.7" fill="#454545" fill-rule="evenodd" stroke="none"/>
  </g>
</svg>
