<?xml version="1.0" encoding="UTF-8" standalone="no"?>
<svg xmlns:ffdec="https://www.free-decompiler.com/flash" xmlns:xlink="http://www.w3.org/1999/xlink" ffdec:objectType="shape" height="75.25px" width="19.9px" xmlns="http://www.w3.org/2000/svg">
  <g transform="matrix(1.0, 0.0, 0.0, 1.0, -38.0, 9.3)">
    <path d="M50.15 16.5 L50.15 16.85 50.1 16.75 50.1 16.7 50.15 16.5 M50.15 25.05 L50.15 24.95 50.2 25.1 50.15 25.05" fill="#3d7834" fill-rule="evenodd" stroke="none"/>
    <path d="M56.9 -6.05 L56.7 -6.95 Q56.4 -7.85 56.0 -7.9 L55.7 -8.15 53.35 -8.2 52.85 -8.2 Q52.4 -8.25 52.4 -8.65 52.4 -9.4 53.05 -9.15 L55.75 -9.15 Q57.45 -10.35 57.55 -0.85 L57.9 56.6 Q57.95 66.3 56.25 65.95 L53.2 65.95 52.7 65.5 52.7 65.4 52.7 65.35 52.75 65.25 52.7 65.1 Q52.7 64.85 52.85 64.75 L54.4 65.05 Q55.65 65.05 56.3 64.65 L56.8 64.05 Q57.4 62.95 57.55 58.8 L57.55 57.85 57.55 56.35 57.2 -0.4 56.9 -6.05 M53.15 -5.9 L53.2 -4.9 42.15 8.85 Q41.55 9.55 41.55 14.6 L41.6 45.1 Q41.55 50.25 42.2 50.9 L51.95 60.55 52.7 61.25 53.05 61.6 53.3 61.85 Q52.85 62.0 52.65 62.45 L42.2 51.7 Q41.45 50.9 41.5 45.0 L41.5 14.75 Q41.45 8.9 42.15 8.05 L53.15 -5.9" fill="#000000" fill-rule="evenodd" stroke="none"/>
    <path d="M56.9 -6.05 L57.2 -0.4 57.55 56.35 57.55 57.85 52.35 57.85 51.9 58.35 52.05 58.6 51.95 58.6 Q51.45 58.85 51.45 59.1 51.45 59.4 51.85 59.5 L53.8 59.75 Q53.65 59.9 53.65 60.2 L52.0 60.45 51.95 60.55 42.2 50.9 Q41.55 50.25 41.6 45.1 L41.55 14.6 Q41.55 9.55 42.15 8.85 L53.2 -4.9 53.15 -5.9 53.1 -6.05 56.9 -6.05 M53.05 61.6 L52.7 61.25 53.4 61.3 53.5 61.55 53.05 61.6 M50.15 25.05 L50.2 25.1 50.15 24.95 50.15 25.05 M50.15 16.5 L50.1 16.7 50.1 16.75 50.15 16.85 50.15 16.5" fill="#cccccc" fill-rule="evenodd" stroke="none"/>
    <path d="M53.35 -8.2 L55.7 -8.15 56.0 -7.9 Q56.4 -7.85 56.7 -6.95 L56.9 -6.05 53.1 -6.05 53.0 -6.95 52.95 -7.2 53.15 -8.05 53.35 -8.2 M57.55 57.85 L57.55 58.8 Q57.4 62.95 56.8 64.05 L56.3 64.65 Q55.65 65.05 54.4 65.05 L52.85 64.75 52.5 64.45 52.4 63.65 Q52.4 62.9 52.65 62.45 52.85 62.0 53.3 61.85 L53.05 61.6 53.5 61.55 53.4 61.3 52.7 61.25 51.95 60.55 52.0 60.45 53.65 60.2 Q53.65 59.9 53.8 59.75 L51.85 59.5 Q51.45 59.4 51.45 59.1 51.45 58.85 51.95 58.6 L52.05 58.6 51.9 58.35 52.35 57.85 57.55 57.85" fill="#a0a0a0" fill-rule="evenodd" stroke="none"/>
    <path d="M51.75 2.65 L51.8 3.15 51.8 3.75 51.85 3.95 51.95 4.8 52.1 32.4 52.0 33.4 51.95 33.6 51.8 33.8 50.05 33.75 49.95 33.55 49.95 33.45 49.85 33.2 48.5 24.35 48.5 32.4 48.5 33.25 48.45 33.45 48.3 33.65 46.95 33.55 46.8 33.4 46.8 33.2 46.75 33.05 46.7 33.2 46.65 33.4 46.55 33.55 46.45 33.4 46.35 33.55 44.15 33.4 44.1 33.25 44.0 33.4 43.9 33.3 43.9 33.15 Q43.8 32.75 43.85 32.35 L43.8 21.45 43.55 25.25 Q43.15 27.8 42.75 27.95 L42.2 28.05 42.2 32.35 42.15 33.05 42.15 33.2 42.1 33.35 41.2 33.3 41.15 33.15 41.1 33.05 41.1 32.35 41.05 25.7 40.7 30.55 40.15 33.1 39.8 33.45 39.45 33.1 Q39.15 32.4 38.95 30.7 38.6 27.95 38.65 24.3 L38.75 20.45 Q38.8 18.45 39.0 16.75 39.3 13.8 39.8 13.4 40.25 12.85 40.65 15.4 L41.0 19.05 41.05 20.85 41.05 14.15 41.05 13.45 41.1 13.3 41.1 12.75 41.15 12.45 41.2 12.35 42.7 10.9 Q43.1 10.45 43.45 12.5 L43.7 15.45 43.8 17.0 43.8 11.8 Q43.75 11.35 43.85 11.05 L43.85 10.85 43.85 10.35 43.9 9.95 43.95 9.75 46.45 7.3 46.55 7.45 46.6 7.85 46.6 8.45 46.65 8.65 46.65 8.8 46.7 8.55 46.7 8.3 46.7 7.7 46.75 7.3 46.8 7.05 48.2 5.8 Q48.2 5.6 48.25 5.75 L48.3 5.9 49.75 14.4 49.7 6.85 49.75 5.8 49.8 5.6 49.8 4.9 49.85 4.45 49.95 4.1 51.65 2.55 51.75 2.65 M46.5 7.95 L43.95 10.3 44.0 30.9 46.55 30.75 46.55 24.35 45.1 24.8 45.1 23.05 46.5 22.5 46.5 16.15 45.05 17.05 45.05 15.15 46.5 14.2 46.5 7.95 M48.2 6.35 L46.8 7.7 46.9 30.75 48.3 30.7 48.25 19.1 50.05 30.65 51.8 30.5 51.65 3.15 49.9 4.75 50.0 16.95 48.2 6.35 M46.6 16.75 L46.65 16.85 46.65 16.5 46.6 16.7 46.6 16.75 M40.65 16.0 L40.6 15.75 Q40.25 13.35 39.8 13.8 39.3 14.2 39.0 17.05 L39.0 17.3 Q38.7 19.85 38.75 23.15 38.7 26.5 39.0 28.95 39.35 31.35 39.8 31.4 40.25 31.3 40.65 28.7 41.0 25.8 41.0 22.0 L40.65 16.0 M42.45 16.9 L42.65 17.35 42.7 18.6 42.65 19.8 42.6 20.25 42.5 20.45 42.05 20.65 42.05 17.25 42.45 16.9 M43.4 12.8 Q43.1 10.95 42.7 11.4 L41.15 12.75 41.2 31.15 42.1 31.05 42.05 25.75 42.7 25.55 Q43.1 25.4 43.4 23.2 L43.7 17.85 43.4 12.8 M46.7 25.1 L46.65 24.95 46.65 25.05 46.7 25.1 M42.45 19.25 L42.2 19.45 42.2 20.15 42.45 20.0 42.55 19.7 42.55 19.5 42.45 19.25 M38.65 39.2 L38.75 37.7 38.95 37.05 39.15 37.75 39.2 38.05 50.65 41.45 50.7 41.05 Q50.9 40.0 51.2 40.1 51.55 40.1 51.8 41.3 L52.0 44.15 51.8 46.7 Q51.6 47.7 51.25 47.6 50.95 47.35 50.75 46.2 L50.7 45.8 39.2 40.8 39.15 41.05 38.95 41.6 Q38.8 41.5 38.75 40.85 L38.65 39.25 38.65 39.2 M39.5 20.5 Q39.6 19.5 39.8 19.4 L40.05 20.15 40.2 22.35 40.1 24.7 40.05 25.05 39.8 25.75 39.55 25.15 39.5 24.9 39.4 22.8 39.5 20.5 M40.05 24.4 L40.1 23.95 40.1 23.6 40.0 22.05 Q39.9 21.4 39.8 21.5 39.65 21.5 39.6 22.2 L39.5 23.9 39.5 24.15 39.55 24.6 39.8 25.3 40.05 24.4" fill="#2d592b" fill-rule="evenodd" stroke="none"/>
    <path d="M51.75 -5.35 Q53.2 -7.2 53.25 -0.1 L53.55 56.0 Q53.6 63.35 52.15 62.0 L38.7 49.65 Q38.2 49.15 38.2 45.2 L38.2 14.55 Q38.2 10.55 38.65 10.05 L51.75 -5.35 M51.75 2.65 L51.65 2.55 49.95 4.1 49.85 4.45 49.8 4.9 49.8 5.6 49.75 5.8 49.7 6.85 49.75 14.4 48.3 5.9 48.25 5.75 Q48.2 5.6 48.2 5.8 L46.8 7.05 46.75 7.3 46.7 7.7 46.7 8.3 46.7 8.55 46.65 8.8 46.65 8.65 46.6 8.45 46.6 7.85 46.55 7.45 46.45 7.3 43.95 9.75 43.9 9.95 43.85 10.35 43.85 10.85 43.85 11.05 Q43.75 11.35 43.8 11.8 L43.8 17.0 43.7 15.45 43.45 12.5 Q43.1 10.45 42.7 10.9 L41.2 12.35 41.15 12.45 41.1 12.75 41.1 13.3 41.05 13.45 41.05 14.15 41.05 20.85 41.0 19.05 40.65 15.4 Q40.25 12.85 39.8 13.4 39.3 13.8 39.0 16.75 38.8 18.45 38.75 20.45 L38.65 24.3 Q38.6 27.95 38.95 30.7 39.15 32.4 39.45 33.1 L39.8 33.45 40.15 33.1 40.7 30.55 41.05 25.7 41.1 32.35 41.1 33.05 41.15 33.15 41.2 33.3 42.1 33.35 42.15 33.2 42.15 33.05 42.2 32.35 42.2 28.05 42.75 27.95 Q43.15 27.8 43.55 25.25 L43.8 21.45 43.85 32.35 Q43.8 32.75 43.9 33.15 L43.9 33.3 44.0 33.4 44.1 33.25 44.15 33.4 46.35 33.55 46.45 33.4 46.55 33.55 46.65 33.4 46.7 33.2 46.75 33.05 46.8 33.2 46.8 33.4 46.95 33.55 48.3 33.65 48.45 33.45 48.5 33.25 48.5 32.4 48.5 24.35 49.85 33.2 49.95 33.45 49.95 33.55 50.05 33.75 51.8 33.8 51.95 33.6 52.0 33.4 52.1 32.4 51.95 4.8 51.85 3.95 51.8 3.75 51.8 3.15 51.75 2.65 M46.6 16.75 L46.6 16.7 46.65 16.5 46.65 16.85 46.6 16.75 M42.45 19.25 L42.55 19.5 42.55 19.7 42.45 20.0 42.2 20.15 42.2 19.45 42.45 19.25 M46.7 25.1 L46.65 25.05 46.65 24.95 46.7 25.1 M38.65 39.2 L38.65 39.25 38.7 41.15 38.95 42.0 39.2 41.35 39.2 41.2 50.6 46.45 50.65 46.65 Q50.9 48.0 51.25 48.3 51.65 48.4 51.95 47.3 L52.15 44.2 51.9 40.9 Q51.6 39.4 51.2 39.35 50.85 39.3 50.65 40.55 L50.55 40.8 39.2 37.65 39.2 37.5 38.95 36.65 Q38.8 36.55 38.7 37.35 38.6 38.1 38.65 39.2 M40.05 24.4 L39.8 25.3 39.55 24.6 39.5 24.15 39.5 23.9 39.6 22.2 Q39.65 21.5 39.8 21.5 39.9 21.4 40.0 22.05 L40.1 23.6 40.1 23.95 40.05 24.4 M38.95 42.6 L38.95 43.6 38.8 43.85 38.75 43.1 38.7 43.25 38.8 44.05 Q38.7 44.3 38.75 44.8 L38.7 45.25 38.6 45.15 38.6 45.4 38.7 45.55 38.75 46.65 38.7 47.15 38.7 47.35 38.8 46.85 38.95 47.5 38.95 48.45 39.0 48.45 39.0 47.55 39.1 47.25 39.2 48.05 39.15 47.05 39.2 45.85 39.35 45.95 39.35 45.65 39.2 45.55 39.2 45.15 39.15 44.55 39.25 43.85 39.2 43.65 39.15 44.3 39.0 43.6 39.0 42.6 38.95 42.6 M50.9 50.3 L51.35 51.55 51.55 53.35 51.6 54.15 51.4 56.45 Q51.2 57.3 50.95 57.1 L50.85 57.0 51.25 57.9 Q51.6 58.15 51.8 57.2 L52.05 54.55 52.0 53.6 51.75 51.5 Q51.55 50.2 51.2 50.05 51.0 49.9 50.85 50.3 L50.9 50.3" fill="#3d7834" fill-rule="evenodd" stroke="none"/>
    <path d="M53.7 -0.4 L54.05 56.35 Q54.1 66.05 52.15 64.15 L38.7 50.9 Q38.05 50.25 38.1 45.1 L38.05 14.6 Q38.05 9.55 38.65 8.85 L51.75 -7.45 Q53.65 -9.85 53.7 -0.4 M51.75 -5.35 L38.65 10.05 Q38.2 10.55 38.2 14.55 L38.2 45.2 Q38.2 49.15 38.7 49.65 L52.15 62.0 Q53.6 63.35 53.55 56.0 L53.25 -0.1 Q53.2 -7.2 51.75 -5.35 M48.2 6.35 L50.0 16.95 49.9 4.75 51.65 3.15 51.8 30.5 50.05 30.65 48.25 19.1 48.3 30.7 46.9 30.75 46.8 7.7 48.2 6.35 M46.5 7.95 L46.5 14.2 45.05 15.15 45.05 17.05 46.5 16.15 46.5 22.5 45.1 23.05 45.1 24.8 46.55 24.35 46.55 30.75 44.0 30.9 43.95 10.3 46.5 7.95 M42.45 16.9 L42.05 17.25 42.05 20.65 42.5 20.45 42.6 20.25 42.65 19.8 42.7 18.6 42.65 17.35 42.45 16.9 M40.65 16.0 L41.0 22.0 Q41.0 25.8 40.65 28.7 40.25 31.3 39.8 31.4 39.35 31.35 39.0 28.95 38.7 26.5 38.75 23.15 38.7 19.85 39.0 17.3 L39.0 17.05 Q39.3 14.2 39.8 13.8 40.25 13.35 40.6 15.75 L40.65 16.0 M43.4 12.8 L43.7 17.85 43.4 23.2 Q43.1 25.4 42.7 25.55 L42.05 25.75 42.1 31.05 41.2 31.15 41.15 12.75 42.7 11.4 Q43.1 10.95 43.4 12.8 M39.5 20.5 L39.4 22.8 39.5 24.9 39.55 25.15 39.8 25.75 40.05 25.05 40.1 24.7 40.2 22.35 40.05 20.15 39.8 19.4 Q39.6 19.5 39.5 20.5 M38.95 42.6 L39.0 42.6 39.0 43.6 39.15 44.3 39.2 43.65 39.25 43.85 39.15 44.55 39.2 45.15 39.2 45.55 39.35 45.65 39.35 45.95 39.2 45.85 39.15 47.05 39.2 48.05 39.1 47.25 39.0 47.55 39.0 48.45 38.95 48.45 38.95 47.5 38.8 46.85 38.7 47.35 38.7 47.15 38.75 46.65 38.7 45.55 38.6 45.4 38.6 45.15 38.7 45.25 38.75 44.8 Q38.7 44.3 38.8 44.05 L38.7 43.25 38.75 43.1 38.8 43.85 38.95 43.6 38.95 42.6 M50.9 50.3 L50.85 50.3 Q51.0 49.9 51.2 50.05 51.55 50.2 51.75 51.5 L52.0 53.6 52.05 54.55 51.8 57.2 Q51.6 58.15 51.25 57.9 L50.85 57.0 50.95 57.1 Q51.2 57.3 51.4 56.45 L51.6 54.15 51.55 53.35 51.35 51.55 50.9 50.3" fill="#ffffff" fill-rule="evenodd" stroke="none"/>
    <path d="M51.75 -8.65 Q53.95 -11.6 54.05 -0.85 L54.4 56.6 Q54.45 67.9 52.15 65.55 L38.7 51.7 Q37.95 50.9 38.0 45.0 L38.0 14.75 Q37.95 8.9 38.65 8.05 L51.75 -8.65 M53.7 -0.4 Q53.65 -9.85 51.75 -7.45 L38.65 8.85 Q38.05 9.55 38.05 14.6 L38.1 45.1 Q38.05 50.25 38.7 50.9 L52.15 64.15 Q54.1 66.05 54.05 56.35 L53.7 -0.4" fill="#000000" fill-rule="evenodd" stroke="none"/>
    <path d="M38.65 39.25 L38.75 40.85 Q38.8 41.5 38.95 41.6 L39.15 41.05 39.2 40.8 50.7 45.8 50.75 46.2 Q50.95 47.35 51.25 47.6 51.6 47.7 51.8 46.7 L52.0 44.15 51.8 41.3 Q51.55 40.1 51.2 40.1 50.9 40.0 50.7 41.05 L50.65 41.45 39.2 38.05 39.15 37.75 38.95 37.05 38.75 37.7 38.65 39.2 Q38.6 38.1 38.7 37.35 38.8 36.55 38.95 36.65 L39.2 37.5 39.2 37.65 50.55 40.8 50.65 40.55 Q50.85 39.3 51.2 39.35 51.6 39.4 51.9 40.9 L52.15 44.2 51.95 47.3 Q51.65 48.4 51.25 48.3 50.9 48.0 50.65 46.65 L50.6 46.45 39.2 41.2 39.2 41.35 38.95 42.0 38.7 41.15 38.65 39.25" fill="#224220" fill-rule="evenodd" stroke="none"/>
  </g>
</svg>
