<?xml version="1.0" encoding="UTF-8" standalone="no"?>
<svg xmlns:ffdec="https://www.free-decompiler.com/flash" xmlns:xlink="http://www.w3.org/1999/xlink" ffdec:objectType="shape" height="78.15px" width="25.25px" xmlns="http://www.w3.org/2000/svg">
  <g transform="matrix(1.0, 0.0, 0.0, 1.0, -38.2, 12.2)">
    <path d="M62.55 23.7 L62.5 23.55 Q62.1 21.2 61.7 21.1 L60.35 20.55 60.4 36.9 61.7 36.75 Q62.2 36.55 62.6 34.45 62.9 32.15 62.85 29.15 L62.55 23.7 M61.7 20.85 Q62.15 21.0 62.6 23.45 L62.85 26.35 63.05 30.2 62.7 36.0 Q62.3 38.45 61.8 38.6 L60.35 39.0 60.3 38.75 60.15 39.05 58.0 39.55 57.85 39.3 57.85 38.65 57.8 35.05 57.35 37.9 Q56.8 39.7 56.25 39.9 55.5 40.0 54.85 38.6 L54.7 38.15 54.65 37.45 54.95 32.2 Q54.9 31.9 55.0 31.8 L55.0 30.95 55.1 30.65 54.8 29.0 Q54.75 33.5 54.15 37.0 53.35 40.4 52.3 40.8 51.15 40.95 50.3 37.5 L50.0 35.75 49.95 40.3 49.85 41.1 49.65 41.55 46.35 42.3 46.15 41.95 45.8 42.55 44.55 42.8 Q42.7 43.1 41.45 38.85 40.0 34.2 40.1 27.75 40.05 23.75 40.6 20.7 40.9 17.5 41.65 15.4 42.8 11.6 44.45 12.4 L45.8 13.1 45.95 13.35 46.0 13.85 46.0 14.55 46.05 14.75 Q46.0 14.45 46.1 14.45 L46.15 14.4 46.1 13.7 Q46.1 13.35 46.25 13.2 46.25 13.0 46.3 13.15 L48.3 14.15 Q48.35 14.0 48.45 14.2 L48.45 14.9 48.45 15.5 48.5 15.65 48.65 16.55 48.75 31.6 49.5 31.7 49.4 28.3 Q49.35 25.05 49.7 22.45 49.85 19.95 50.4 18.25 51.1 15.0 52.25 15.65 53.2 15.95 54.0 19.85 L54.5 23.5 54.6 25.2 54.8 22.4 Q54.9 20.5 55.25 19.3 55.7 17.2 56.5 17.7 57.25 18.1 57.65 19.35 57.55 19.45 57.6 19.6 L57.6 19.8 57.6 20.25 57.65 20.3 57.65 20.85 57.75 20.85 57.7 21.15 57.6 26.45 57.5 27.05 57.8 29.1 57.75 20.85 57.75 20.65 Q57.65 20.25 57.8 20.05 L57.85 19.95 57.8 19.4 57.9 19.1 58.0 18.9 60.1 20.0 60.15 20.15 60.15 20.45 60.15 20.95 60.2 21.1 60.25 20.95 60.2 20.55 60.3 20.25 Q60.3 20.0 60.35 20.2 L61.7 20.85 M50.55 18.65 L50.5 18.8 Q49.7 21.9 49.7 26.75 49.65 31.5 50.6 35.0 51.25 38.2 52.35 38.1 53.25 37.9 53.95 34.85 54.45 31.65 54.5 27.5 54.45 23.1 53.9 20.0 L53.85 19.85 Q53.15 16.55 52.25 16.25 51.2 15.6 50.55 18.65 M44.45 13.15 Q42.9 12.3 41.75 15.9 L41.7 16.3 Q40.55 19.95 40.65 25.8 40.55 31.5 41.8 35.7 42.9 39.6 44.45 39.5 L45.85 39.25 45.85 32.25 44.85 32.3 Q44.3 32.15 44.0 31.4 L43.7 30.45 Q43.2 28.6 43.25 26.1 43.15 23.45 43.65 21.8 44.1 20.2 44.8 20.5 L45.8 20.7 45.8 13.65 44.45 13.15 M48.35 14.7 L46.35 13.65 46.4 39.25 49.65 38.6 49.65 32.3 48.35 32.3 48.35 14.7 M45.95 23.9 L45.8 24.0 44.85 23.65 Q44.35 23.5 44.05 24.75 43.6 25.95 43.7 28.05 L43.7 29.45 43.85 30.05 Q44.25 31.55 44.85 31.6 L45.8 31.55 46.0 31.8 45.95 23.9 M60.1 20.4 L57.95 19.45 58.05 37.35 60.2 37.0 60.15 32.4 59.0 32.45 59.05 30.95 60.1 31.1 60.15 26.4 59.0 26.05 58.95 24.7 60.05 25.0 60.1 20.4 M51.65 24.15 Q51.85 22.9 52.3 23.1 52.6 23.1 52.85 24.45 L53.1 27.35 52.85 30.05 52.75 30.45 52.25 31.05 51.9 30.55 51.7 29.9 Q51.35 28.6 51.45 26.95 51.4 25.15 51.65 24.15 M55.4 19.6 L55.25 20.05 Q54.8 21.65 54.85 24.65 54.85 27.35 55.4 28.75 55.45 29.35 56.05 30.15 L56.5 31.3 Q56.4 32.4 56.05 32.45 L56.05 32.4 55.55 32.05 Q55.2 31.55 55.2 31.15 L54.9 36.3 Q55.55 37.55 56.25 37.5 56.75 37.35 57.2 35.95 57.65 34.05 57.65 30.85 L57.5 27.3 57.45 27.2 57.35 26.8 56.65 25.35 Q56.15 24.65 56.25 24.0 56.2 23.85 56.3 23.65 56.25 22.9 56.5 23.1 56.8 23.2 57.4 24.95 L57.5 19.7 Q57.15 18.5 56.5 18.15 55.75 17.8 55.4 19.6 M52.75 26.6 L52.25 25.8 Q52.0 25.65 51.9 26.45 L51.95 26.5 Q51.7 27.3 51.75 28.6 L51.75 29.15 51.8 29.55 Q51.95 30.5 52.3 30.55 L52.8 29.65 52.9 29.3 52.85 28.8 52.75 26.6 M61.95 26.55 L62.1 28.95 61.95 31.45 61.85 31.85 61.6 32.4 61.3 32.4 61.2 25.3 61.55 25.4 Q61.75 25.45 61.95 26.55 M61.9 28.1 L61.55 27.3 61.35 27.25 61.35 32.1 61.6 32.0 61.9 31.1 61.95 30.8 Q61.9 30.45 62.0 30.15 L61.9 28.1" fill="#4a1111" fill-rule="evenodd" stroke="none"/>
    <path d="M42.1 -10.0 L62.35 9.4 Q63.15 10.25 63.25 15.15 L63.35 44.15 Q63.3 49.0 62.5 49.6 L42.1 63.95 41.05 64.35 Q38.65 64.4 38.7 56.25 L38.8 -3.25 Q38.75 -10.9 40.7 -10.75 41.2 -10.75 42.1 -10.0 M39.6 -2.7 L39.55 55.9 Q39.5 63.35 42.1 61.8 L62.45 48.5 Q63.15 48.0 63.2 44.2 L63.0 15.05 Q62.95 11.3 62.3 10.75 L42.1 -7.85 Q39.55 -10.05 39.6 -2.7 M62.55 23.7 L62.85 29.15 Q62.9 32.15 62.6 34.45 62.2 36.55 61.7 36.75 L60.4 36.9 60.35 20.55 61.7 21.1 Q62.1 21.2 62.5 23.55 L62.55 23.7 M48.35 14.7 L48.35 32.3 49.65 32.3 49.65 38.6 46.4 39.25 46.35 13.65 48.35 14.7 M44.45 13.15 L45.8 13.65 45.8 20.7 44.8 20.5 Q44.1 20.2 43.65 21.8 43.15 23.45 43.25 26.1 43.2 28.6 43.7 30.45 L44.0 31.4 Q44.3 32.15 44.85 32.3 L45.85 32.25 45.85 39.25 44.45 39.5 Q42.9 39.6 41.8 35.7 40.55 31.5 40.65 25.8 40.55 19.95 41.7 16.3 L41.75 15.9 Q42.9 12.3 44.45 13.15 M50.55 18.65 Q51.2 15.6 52.25 16.25 53.15 16.55 53.85 19.85 L53.9 20.0 Q54.45 23.1 54.5 27.5 54.45 31.65 53.95 34.85 53.25 37.9 52.35 38.1 51.25 38.2 50.6 35.0 49.65 31.5 49.7 26.75 49.7 21.9 50.5 18.8 L50.55 18.65 M55.4 19.6 Q55.75 17.8 56.5 18.15 57.15 18.5 57.5 19.7 L57.4 24.95 Q56.8 23.2 56.5 23.1 56.25 22.9 56.3 23.65 56.2 23.85 56.25 24.0 56.15 24.65 56.65 25.35 L57.35 26.8 57.45 27.2 57.5 27.3 57.65 30.85 Q57.65 34.05 57.2 35.95 56.75 37.35 56.25 37.5 55.55 37.55 54.9 36.3 L55.2 31.15 Q55.2 31.55 55.55 32.05 L56.05 32.4 56.05 32.45 Q56.4 32.4 56.5 31.3 L56.05 30.15 Q55.45 29.35 55.4 28.75 54.85 27.35 54.85 24.65 54.8 21.65 55.25 20.05 L55.4 19.6 M51.65 24.15 Q51.4 25.15 51.45 26.95 51.35 28.6 51.7 29.9 L51.9 30.55 52.25 31.05 52.75 30.45 52.85 30.05 53.1 27.35 52.85 24.45 Q52.6 23.1 52.3 23.1 51.85 22.9 51.65 24.15 M60.1 20.4 L60.05 25.0 58.95 24.7 59.0 26.05 60.15 26.4 60.1 31.1 59.05 30.95 59.0 32.45 60.15 32.4 60.2 37.0 58.05 37.35 57.95 19.45 60.1 20.4 M61.95 26.55 Q61.75 25.45 61.55 25.4 L61.2 25.3 61.3 32.4 61.6 32.4 61.85 31.85 61.95 31.45 62.1 28.95 61.95 26.55" fill="#ffffff" fill-rule="evenodd" stroke="none"/>
    <path d="M39.6 -2.7 Q39.55 -10.05 42.1 -7.85 L62.3 10.75 Q62.95 11.3 63.0 15.05 L63.2 44.2 Q63.15 48.0 62.45 48.5 L42.1 61.8 Q39.5 63.35 39.55 55.9 L39.6 -2.7 M61.7 20.85 L60.35 20.2 Q60.3 20.0 60.3 20.25 L60.2 20.55 60.25 20.95 60.2 21.1 60.15 20.95 60.15 20.45 60.15 20.15 60.1 20.0 58.0 18.9 57.9 19.1 57.8 19.4 57.85 19.95 57.8 20.05 Q57.65 20.25 57.75 20.65 L57.75 20.85 57.8 29.1 57.5 27.05 57.6 26.45 57.7 21.15 57.75 20.85 57.65 20.85 57.65 20.3 57.6 20.25 57.6 19.8 57.6 19.6 Q57.55 19.45 57.65 19.35 57.25 18.1 56.5 17.7 55.7 17.2 55.25 19.3 54.9 20.5 54.8 22.4 L54.6 25.2 54.5 23.5 54.0 19.85 Q53.2 15.95 52.25 15.65 51.1 15.0 50.4 18.25 49.85 19.95 49.7 22.45 49.35 25.05 49.4 28.3 L49.5 31.7 48.75 31.6 48.65 16.55 48.5 15.65 48.45 15.5 48.45 14.9 48.45 14.2 Q48.35 14.0 48.3 14.15 L46.3 13.15 Q46.25 13.0 46.25 13.2 46.1 13.35 46.1 13.7 L46.15 14.4 46.1 14.45 Q46.0 14.45 46.05 14.75 L46.0 14.55 46.0 13.85 45.95 13.35 45.8 13.1 44.45 12.4 Q42.8 11.6 41.65 15.4 40.9 17.5 40.6 20.7 40.05 23.75 40.1 27.75 40.0 34.2 41.45 38.85 42.7 43.1 44.55 42.8 L45.8 42.55 46.15 41.95 46.35 42.3 49.65 41.55 49.85 41.1 49.95 40.3 50.0 35.75 50.3 37.5 Q51.15 40.95 52.3 40.8 53.35 40.4 54.15 37.0 54.75 33.5 54.8 29.0 L55.1 30.65 55.0 30.95 55.0 31.8 Q54.9 31.9 54.95 32.2 L54.65 37.45 54.7 38.15 54.85 38.6 Q55.5 40.0 56.25 39.9 56.8 39.7 57.35 37.9 L57.8 35.05 57.85 38.65 57.85 39.3 58.0 39.55 60.15 39.05 60.3 38.75 60.35 39.0 61.8 38.6 Q62.3 38.45 62.7 36.0 L63.05 30.2 62.85 26.35 62.6 23.45 Q62.15 21.0 61.7 20.85 M45.95 23.9 L46.0 31.8 45.8 31.55 44.85 31.6 Q44.25 31.55 43.85 30.05 L43.7 29.45 43.7 28.05 Q43.6 25.95 44.05 24.75 44.35 23.5 44.85 23.65 L45.8 24.0 45.95 23.9 M52.75 26.6 L52.85 28.8 52.9 29.3 52.8 29.65 52.3 30.55 Q51.95 30.5 51.8 29.55 L51.75 29.15 51.75 28.6 Q51.7 27.3 51.95 26.5 L51.9 26.45 Q52.0 25.65 52.25 25.8 L52.75 26.6 M61.9 28.1 L62.0 30.15 Q61.9 30.45 61.95 30.8 L61.9 31.1 61.6 32.0 61.35 32.1 61.35 27.25 61.55 27.3 61.9 28.1" fill="#b42929" fill-rule="evenodd" stroke="none"/>
    <path d="M38.2 -3.65 Q38.2 -12.35 40.45 -12.2 41.1 -12.15 42.05 -11.25 L62.25 8.85 Q63.25 9.75 63.35 15.3 L63.45 44.1 Q63.5 49.65 62.5 50.45 L42.1 65.45 40.75 65.95 Q38.15 65.95 38.2 56.5 L38.2 -3.65 M42.1 -10.0 Q41.2 -10.75 40.7 -10.75 38.75 -10.9 38.8 -3.25 L38.7 56.25 Q38.65 64.4 41.05 64.35 L42.1 63.95 62.5 49.6 Q63.3 49.0 63.35 44.15 L63.25 15.15 Q63.15 10.25 62.35 9.4 L42.1 -10.0" fill="#000000" fill-rule="evenodd" stroke="none"/>
  </g>
</svg>
