<?xml version="1.0" encoding="UTF-8" standalone="no"?>
<svg xmlns:ffdec="https://www.free-decompiler.com/flash" xmlns:xlink="http://www.w3.org/1999/xlink" ffdec:objectType="shape" height="76.9px" width="48.65px" xmlns="http://www.w3.org/2000/svg">
  <g transform="matrix(1.0, 0.0, 0.0, 1.0, -24.75, 13.05)">
    <path d="M65.85 16.1 L65.95 15.95 69.2 16.45 Q70.4 16.65 71.3 19.7 L71.95 23.1 Q72.25 25.25 72.2 28.0 72.2 32.1 71.3 35.15 70.3 38.15 69.0 38.25 L65.75 38.6 65.5 38.35 65.25 38.7 60.4 39.2 60.1 38.95 60.0 38.15 60.0 34.0 59.0 37.35 Q57.95 39.25 56.5 39.45 54.95 39.55 53.6 38.0 L53.35 37.45 Q53.2 37.0 53.35 36.7 L53.3 36.75 53.85 30.8 53.85 30.75 Q53.85 30.5 54.0 30.3 L54.1 29.3 Q54.1 29.1 54.25 29.0 53.8 28.25 53.65 27.15 53.55 32.25 52.25 36.2 50.75 40.05 48.6 40.2 46.4 40.45 44.85 36.6 L44.2 34.75 44.2 39.55 44.0 40.5 43.6 40.85 37.7 41.45 37.25 41.1 36.75 41.55 34.5 41.75 Q31.7 41.9 29.7 37.75 27.5 33.2 27.55 26.85 27.55 22.9 28.35 19.9 28.8 16.85 29.95 14.55 31.9 10.4 34.6 10.9 L36.8 11.25 37.1 11.5 37.2 12.0 37.15 12.7 37.25 12.85 37.3 12.7 37.45 12.5 37.45 11.75 37.55 11.25 37.8 11.15 41.35 11.7 41.55 11.9 41.65 12.45 41.65 13.15 41.75 13.4 41.95 14.3 41.85 30.4 43.4 30.4 Q43.15 28.65 43.2 26.85 43.15 23.35 43.85 20.55 44.2 17.8 45.1 15.8 46.65 12.1 48.75 12.45 50.75 12.75 52.15 16.75 L53.15 21.0 53.4 22.8 Q53.45 21.0 53.8 19.6 54.05 17.5 54.75 16.05 55.8 13.55 57.35 13.85 59.15 14.15 59.75 15.7 L59.85 15.9 59.85 16.1 59.8 16.6 59.9 16.8 60.0 17.25 60.05 17.4 60.0 17.7 60.05 17.75 59.7 23.9 59.5 24.65 60.0 26.9 60.05 27.3 60.1 17.1 Q60.1 16.6 60.25 16.35 L60.3 16.2 60.35 15.55 Q60.3 15.3 60.4 15.2 L60.55 15.1 65.45 15.9 65.55 16.05 65.6 16.45 65.6 16.95 65.65 17.1 65.75 17.0 65.8 16.45 Q65.75 16.2 65.85 16.1 M65.35 23.6 L62.8 23.45 62.8 21.65 65.35 21.9 65.4 16.35 60.55 15.65 60.4 36.6 65.25 36.3 65.35 30.85 62.75 30.85 62.8 29.15 65.3 29.2 65.35 23.6 M69.2 17.0 L65.95 16.45 65.85 36.25 69.0 36.0 Q70.2 35.9 71.1 33.15 71.85 30.35 71.9 26.65 71.95 22.8 71.2 20.0 L71.15 19.85 Q70.3 17.05 69.2 17.0 M68.8 24.55 L68.3 24.5 68.25 30.3 68.75 30.25 Q69.2 30.25 69.6 29.25 L69.7 28.7 69.75 27.9 69.5 25.5 Q69.2 24.5 68.8 24.55 M48.75 20.85 Q49.4 20.85 49.9 22.2 50.35 23.5 50.35 25.35 50.3 27.0 49.85 28.35 L49.55 28.95 48.65 29.55 Q48.2 29.5 47.85 29.0 L47.45 28.35 Q46.95 26.9 47.0 25.2 47.0 23.2 47.5 22.05 48.0 20.7 48.75 20.85 M45.35 16.2 Q45.2 16.3 45.3 16.45 43.8 19.9 43.85 25.05 43.8 30.2 45.25 33.95 46.6 37.45 48.6 37.35 50.5 37.15 51.85 33.7 53.1 30.15 53.15 25.5 53.15 20.6 51.95 17.05 L51.85 16.8 Q50.55 13.35 48.75 13.05 46.75 12.7 45.35 16.2 M67.95 22.1 L68.8 22.25 Q69.35 22.2 69.75 23.5 70.1 24.7 70.1 26.55 L69.7 29.5 69.5 30.0 68.75 30.75 67.9 30.8 67.95 22.1 M48.7 23.75 Q48.2 23.7 47.95 24.6 L47.95 24.65 Q47.55 25.5 47.55 27.0 L47.55 27.55 47.7 27.95 Q48.05 28.9 48.7 28.95 L49.65 28.05 49.85 27.6 49.85 27.0 49.45 24.7 Q49.1 23.7 48.7 23.75 M36.8 11.95 L34.6 11.6 Q32.1 11.2 30.25 14.95 L30.15 15.4 Q28.35 19.25 28.35 24.85 28.35 30.55 30.25 34.7 32.05 38.6 34.5 38.5 L36.8 38.3 36.8 31.15 35.1 31.15 Q34.3 31.1 33.7 30.25 L33.25 29.35 Q32.45 27.5 32.5 25.0 32.5 22.4 33.3 20.65 34.1 19.0 35.2 19.1 L36.8 19.25 36.8 11.95 M43.65 30.95 L41.25 31.0 41.3 12.4 37.75 11.85 37.75 38.2 43.6 37.8 43.65 30.95 M59.6 16.05 Q59.05 14.65 57.35 14.45 55.9 14.15 54.95 16.4 L54.75 16.8 Q53.9 19.0 53.9 22.2 53.85 25.4 54.75 26.85 L56.3 28.3 Q57.1 28.7 57.1 29.7 57.05 30.9 56.3 31.0 L56.2 31.0 55.15 30.5 Q54.4 29.95 54.35 29.4 L53.8 35.35 Q55.1 36.8 56.5 36.8 57.8 36.6 58.75 34.95 59.8 32.85 59.85 29.0 59.8 26.55 59.4 25.05 L59.3 24.9 59.1 24.4 Q58.65 23.5 57.6 22.75 56.75 22.05 56.8 21.3 L56.8 21.0 Q56.9 20.1 57.4 20.2 58.0 20.3 59.25 22.25 L59.6 16.05 M35.1 22.35 Q34.4 22.35 33.85 23.6 33.2 24.95 33.25 27.0 L33.3 28.25 33.55 28.95 Q34.15 30.4 35.1 30.5 L36.8 30.5 Q36.9 30.4 37.05 30.65 L37.05 22.5 36.8 22.5 35.1 22.35" fill="#4a1111" fill-rule="evenodd" stroke="none"/>
    <path d="M26.8 -2.95 L26.75 53.85 Q26.7 61.05 30.6 60.15 L70.55 50.3 Q72.2 49.85 72.3 45.2 L72.6 9.05 Q72.6 4.3 71.0 3.8 L30.7 -9.1 Q26.75 -10.45 26.8 -2.95 M30.7 -11.25 L71.0 2.3 Q73.1 3.0 73.1 9.15 L72.7 45.15 Q72.6 51.1 70.5 51.7 L30.6 62.15 Q25.5 63.5 25.6 54.1 L25.55 -3.25 Q25.55 -13.05 30.7 -11.25 M69.2 17.0 Q70.3 17.05 71.15 19.85 L71.2 20.0 Q71.95 22.8 71.9 26.65 71.85 30.35 71.1 33.15 70.2 35.9 69.0 36.0 L65.85 36.25 65.95 16.45 69.2 17.0 M65.35 23.6 L65.3 29.2 62.8 29.15 62.75 30.85 65.35 30.85 65.25 36.3 60.4 36.6 60.55 15.65 65.4 16.35 65.35 21.9 62.8 21.65 62.8 23.45 65.35 23.6 M67.95 22.1 L67.9 30.8 68.75 30.75 69.5 30.0 69.7 29.5 70.1 26.55 Q70.1 24.7 69.75 23.5 69.35 22.2 68.8 22.25 L67.95 22.1 M45.35 16.2 Q46.75 12.7 48.75 13.05 50.55 13.35 51.85 16.8 L51.95 17.05 Q53.15 20.6 53.15 25.5 53.1 30.15 51.85 33.7 50.5 37.15 48.6 37.35 46.6 37.45 45.25 33.95 43.8 30.2 43.85 25.05 43.8 19.9 45.3 16.45 45.2 16.3 45.35 16.2 M48.75 20.85 Q48.0 20.7 47.5 22.05 47.0 23.2 47.0 25.2 46.95 26.9 47.45 28.35 L47.85 29.0 Q48.2 29.5 48.65 29.55 L49.55 28.95 49.85 28.35 Q50.3 27.0 50.35 25.35 50.35 23.5 49.9 22.2 49.4 20.85 48.75 20.85 M59.6 16.05 L59.25 22.25 Q58.0 20.3 57.4 20.2 56.9 20.1 56.8 21.0 L56.8 21.3 Q56.75 22.05 57.6 22.75 58.65 23.5 59.1 24.4 L59.3 24.9 59.4 25.05 Q59.8 26.55 59.85 29.0 59.8 32.85 58.75 34.95 57.8 36.6 56.5 36.8 55.1 36.8 53.8 35.35 L54.35 29.4 Q54.4 29.95 55.15 30.5 L56.2 31.0 56.3 31.0 Q57.05 30.9 57.1 29.7 57.1 28.7 56.3 28.3 L54.75 26.85 Q53.85 25.4 53.9 22.2 53.9 19.0 54.75 16.8 L54.95 16.4 Q55.9 14.15 57.35 14.45 59.05 14.65 59.6 16.05 M43.65 30.95 L43.6 37.8 37.75 38.2 37.75 11.85 41.3 12.4 41.25 31.0 43.65 30.95 M36.8 11.95 L36.8 19.25 35.2 19.1 Q34.1 19.0 33.3 20.65 32.5 22.4 32.5 25.0 32.45 27.5 33.25 29.35 L33.7 30.25 Q34.3 31.1 35.1 31.15 L36.8 31.15 36.8 38.3 34.5 38.5 Q32.05 38.6 30.25 34.7 28.35 30.55 28.35 24.85 28.35 19.25 30.15 15.4 L30.25 14.95 Q32.1 11.2 34.6 11.6 L36.8 11.95" fill="#ffffff" fill-rule="evenodd" stroke="none"/>
    <path d="M26.8 -2.95 Q26.75 -10.45 30.7 -9.1 L71.0 3.8 Q72.6 4.3 72.6 9.05 L72.3 45.2 Q72.2 49.85 70.55 50.3 L30.6 60.15 Q26.7 61.05 26.75 53.85 L26.8 -2.95 M65.85 16.1 Q65.75 16.2 65.8 16.45 L65.75 17.0 65.65 17.1 65.6 16.95 65.6 16.45 65.55 16.05 65.45 15.9 60.55 15.1 60.4 15.2 Q60.3 15.3 60.35 15.55 L60.3 16.2 60.25 16.35 Q60.1 16.6 60.1 17.1 L60.05 27.3 60.0 26.9 59.5 24.65 59.7 23.9 60.05 17.75 60.0 17.7 60.05 17.4 60.0 17.25 59.9 16.8 59.8 16.6 59.85 16.1 59.85 15.9 59.75 15.7 Q59.15 14.15 57.35 13.85 55.8 13.55 54.75 16.05 54.05 17.5 53.8 19.6 53.45 21.0 53.4 22.8 L53.15 21.0 52.15 16.75 Q50.75 12.75 48.75 12.45 46.65 12.1 45.1 15.8 44.2 17.8 43.85 20.55 43.15 23.35 43.2 26.85 43.15 28.65 43.4 30.4 L41.85 30.4 41.95 14.3 41.75 13.4 41.65 13.15 41.65 12.45 41.55 11.9 41.35 11.7 37.8 11.15 37.55 11.25 37.45 11.75 37.45 12.5 37.3 12.7 37.25 12.85 37.15 12.7 37.2 12.0 37.1 11.5 36.8 11.25 34.6 10.9 Q31.9 10.4 29.95 14.55 28.8 16.85 28.35 19.9 27.55 22.9 27.55 26.85 27.5 33.2 29.7 37.75 31.7 41.9 34.5 41.75 L36.75 41.55 37.25 41.1 37.7 41.45 43.6 40.85 44.0 40.5 44.2 39.55 44.2 34.75 44.85 36.6 Q46.4 40.45 48.6 40.2 50.75 40.05 52.25 36.2 53.55 32.25 53.65 27.15 53.8 28.25 54.25 29.0 54.1 29.1 54.1 29.3 L54.0 30.3 Q53.85 30.5 53.85 30.75 L53.85 30.8 53.3 36.75 53.35 36.7 Q53.2 37.0 53.35 37.45 L53.6 38.0 Q54.95 39.55 56.5 39.45 57.95 39.25 59.0 37.35 L60.0 34.0 60.0 38.15 60.1 38.95 60.4 39.2 65.25 38.7 65.5 38.35 65.75 38.6 69.0 38.25 Q70.3 38.15 71.3 35.15 72.2 32.1 72.2 28.0 72.25 25.25 71.95 23.1 L71.3 19.7 Q70.4 16.65 69.2 16.45 L65.95 15.95 65.85 16.1 M68.8 24.55 Q69.2 24.5 69.5 25.5 L69.75 27.9 69.7 28.7 69.6 29.25 Q69.2 30.25 68.75 30.25 L68.25 30.3 68.3 24.5 68.8 24.55 M48.7 23.75 Q49.1 23.7 49.45 24.7 L49.85 27.0 49.85 27.6 49.65 28.05 48.7 28.95 Q48.05 28.9 47.7 27.95 L47.55 27.55 47.55 27.0 Q47.55 25.5 47.95 24.65 L47.95 24.6 Q48.2 23.7 48.7 23.75 M35.1 22.35 L36.8 22.5 37.05 22.5 37.05 30.65 Q36.9 30.4 36.8 30.5 L35.1 30.5 Q34.15 30.4 33.55 28.95 L33.3 28.25 33.25 27.0 Q33.2 24.95 33.85 23.6 34.4 22.35 35.1 22.35" fill="#b42929" fill-rule="evenodd" stroke="none"/>
    <path d="M30.7 -11.25 Q25.55 -13.05 25.55 -3.25 L25.6 54.1 Q25.5 63.5 30.6 62.15 L70.5 51.7 Q72.6 51.1 72.7 45.15 L73.1 9.15 Q73.1 3.0 71.0 2.3 L30.7 -11.25 M24.75 -3.4 Q24.7 -14.85 30.7 -12.7 L71.0 1.35 Q73.5 2.15 73.4 9.2 L73.05 45.1 Q72.95 51.95 70.5 52.65 L30.6 63.65 Q24.7 65.2 24.75 54.2 L24.75 -3.4" fill="#000000" fill-rule="evenodd" stroke="none"/>
  </g>
</svg>
