<?xml version="1.0" encoding="UTF-8" standalone="no"?>
<svg xmlns:ffdec="https://www.free-decompiler.com/flash" xmlns:xlink="http://www.w3.org/1999/xlink" ffdec:objectType="shape" height="58.3px" width="85.75px" xmlns="http://www.w3.org/2000/svg">
  <g transform="matrix(1.0, 0.0, 0.0, 1.0, -5.25, 2.9)">
    <path d="M86.05 20.8 L85.9 20.7 Q84.1 18.05 81.55 18.0 L74.65 17.7 74.55 36.05 81.5 36.1 Q84.05 36.0 86.0 33.4 87.75 30.7 87.85 27.15 87.85 23.45 86.05 20.8 M82.95 28.4 Q82.95 26.95 82.35 26.05 81.65 25.2 80.85 25.15 L79.8 25.15 79.7 30.6 80.8 30.6 Q81.8 30.55 82.6 29.6 L82.9 29.15 82.95 28.4 M81.55 17.5 Q84.35 17.6 86.4 20.55 87.4 21.95 87.85 23.85 88.6 25.8 88.6 28.5 88.55 32.4 86.65 35.35 84.4 38.2 81.45 38.25 L74.55 38.35 74.0 38.05 73.35 38.35 63.45 38.45 62.9 38.15 Q62.65 37.8 62.7 37.5 L62.65 33.75 Q62.05 35.45 60.7 36.65 58.8 38.35 56.0 38.4 53.2 38.4 50.5 36.9 L50.1 36.45 Q49.9 36.05 50.05 35.75 L50.0 35.8 50.95 30.65 50.95 30.6 Q51.0 30.4 51.2 30.25 L51.25 30.25 51.45 29.4 Q51.45 29.15 51.6 29.15 50.85 28.45 50.55 27.5 50.4 31.9 48.05 35.3 45.35 38.4 41.65 38.5 37.95 38.5 35.35 35.25 34.6 34.45 34.2 33.65 L34.15 37.65 33.9 38.35 33.2 38.7 23.9 38.8 23.25 38.45 22.45 38.75 19.1 38.8 Q14.95 38.8 12.1 35.35 9.05 31.85 9.1 27.15 9.05 24.2 10.25 21.85 10.85 19.5 12.5 17.8 15.25 14.5 19.15 14.75 L22.5 14.9 Q22.65 14.85 22.9 15.1 L23.0 15.45 23.0 16.05 23.1 16.1 23.2 16.0 Q23.25 15.85 23.45 15.85 L23.45 15.3 Q23.35 15.0 23.55 14.95 23.6 14.7 24.0 14.75 L29.45 15.0 Q29.6 14.95 29.8 15.15 L29.95 15.55 29.9 16.1 30.1 16.25 30.4 17.05 30.4 30.05 32.85 30.05 Q32.5 28.6 32.6 27.15 32.5 24.25 33.5 22.05 34.1 19.75 35.65 18.1 38.15 14.9 41.75 15.15 45.2 15.25 47.8 18.6 48.95 20.2 49.6 22.2 L50.1 23.75 Q50.2 22.2 50.75 21.0 51.2 19.15 52.5 17.8 54.45 15.7 57.3 15.9 60.85 15.95 62.0 17.3 L62.15 17.5 62.15 17.7 62.1 18.15 62.25 18.3 62.55 18.7 62.55 18.85 62.55 19.05 62.55 19.1 61.9 24.65 61.6 25.35 Q62.2 26.15 62.6 27.4 L62.75 27.75 62.75 18.55 Q62.7 18.05 63.0 17.9 63.0 17.7 63.15 17.75 L63.2 17.2 Q63.1 16.95 63.25 16.9 L63.55 16.75 73.5 17.2 Q73.6 17.1 73.8 17.35 L73.9 17.65 73.9 18.2 74.05 18.35 Q74.05 18.2 74.2 18.2 L74.2 17.7 74.35 17.3 74.65 17.15 81.55 17.5 M41.7 22.15 Q42.85 22.2 43.75 23.3 44.65 24.3 44.7 25.95 44.6 27.4 43.7 28.5 L43.3 28.95 Q42.6 29.45 41.75 29.45 40.85 29.4 40.25 29.05 L39.65 28.5 Q38.8 27.3 38.9 25.85 38.8 24.2 39.7 23.2 40.5 22.1 41.7 22.15 M47.4 18.9 L47.2 18.7 Q44.85 15.75 41.7 15.65 38.35 15.5 36.0 18.45 L35.85 18.65 Q33.5 21.5 33.55 25.75 33.5 30.0 36.0 33.1 38.35 36.0 41.75 36.05 45.0 36.0 47.35 33.15 49.55 30.05 49.6 26.05 49.65 21.85 47.4 18.9 M61.1 23.2 L61.7 17.65 Q60.65 16.4 57.35 16.4 54.65 16.2 52.8 18.15 L52.6 18.55 Q50.9 20.35 50.95 23.25 50.9 25.9 52.55 27.3 53.25 27.8 55.5 28.6 56.95 28.9 56.95 29.85 56.9 30.9 55.5 30.9 L55.3 30.9 53.3 30.45 51.85 29.5 50.95 34.6 Q53.35 35.95 56.0 36.0 58.45 36.0 60.25 34.55 62.2 32.65 62.3 29.25 62.25 27.0 61.3 25.65 L61.25 25.5 60.85 25.05 Q59.95 24.3 57.85 23.6 56.25 23.0 56.35 22.4 L56.35 22.1 Q56.55 21.35 57.4 21.4 58.7 21.4 61.1 23.2 M68.2 24.2 L68.2 22.6 73.45 22.75 73.45 17.65 63.55 17.25 63.45 36.1 73.4 36.1 73.4 31.0 68.2 31.0 68.2 29.35 73.4 29.45 73.45 24.35 68.2 24.2 M82.85 29.9 L82.5 30.3 Q81.65 31.05 80.8 31.05 L78.95 31.1 79.0 22.95 80.85 22.95 Q82.05 23.0 82.9 24.15 83.7 25.35 83.7 27.1 83.7 28.7 82.85 29.9 M22.9 23.7 L22.5 23.75 20.05 23.7 Q18.9 23.65 18.05 24.65 17.1 25.65 17.15 27.25 L17.3 28.25 17.7 28.75 Q18.6 29.9 19.95 29.95 L22.45 30.05 Q22.65 30.0 22.85 30.25 L22.9 30.3 22.9 23.7 M43.65 27.9 L43.65 27.35 Q43.6 26.1 43.1 25.4 42.5 24.6 41.75 24.6 40.95 24.55 40.45 25.3 L40.45 25.35 Q39.75 26.05 39.75 27.3 L39.8 27.75 40.05 28.15 Q40.65 28.95 41.75 29.0 42.7 28.95 43.4 28.25 43.45 27.95 43.65 27.9 M29.45 15.5 L23.95 15.3 23.95 36.2 33.25 36.2 33.25 30.55 29.45 30.55 29.45 15.5 M22.5 21.2 L22.5 15.45 19.15 15.25 Q15.4 15.1 12.9 18.1 12.65 18.2 12.65 18.4 10.1 21.35 10.25 25.6 10.2 29.9 12.85 33.2 15.4 36.2 19.15 36.2 L22.5 36.25 22.45 30.55 19.95 30.5 Q18.85 30.4 17.95 29.85 L17.25 29.1 Q16.05 27.65 16.05 25.8 16.05 23.7 17.25 22.35 18.4 21.0 20.0 21.1 L22.5 21.2" fill="#4a1111" fill-rule="evenodd" stroke="none"/>
    <path d="M85.3 5.3 L13.5 -0.15 Q7.95 -0.6 8.05 4.95 L7.95 47.4 Q8.0 52.85 13.45 52.65 L85.15 49.95 Q88.9 49.75 88.95 45.3 L89.1 10.15 Q89.05 5.55 85.3 5.3 M90.25 10.2 L90.05 45.25 Q89.95 51.05 85.15 51.3 L13.4 54.3 Q6.3 54.5 6.35 47.45 L6.4 4.85 Q6.4 -2.35 13.45 -1.75 L85.35 3.95 Q90.2 4.3 90.25 10.2 M86.05 20.8 Q87.85 23.45 87.85 27.15 87.75 30.7 86.0 33.4 84.05 36.0 81.5 36.1 L74.55 36.05 74.65 17.7 81.55 18.0 Q84.1 18.05 85.9 20.7 L86.05 20.8 M82.85 29.9 Q83.7 28.7 83.7 27.1 83.7 25.35 82.9 24.15 82.05 23.0 80.85 22.95 L79.0 22.95 78.95 31.1 80.8 31.05 Q81.65 31.05 82.5 30.3 L82.85 29.9 M68.2 24.2 L73.45 24.35 73.4 29.45 68.2 29.35 68.2 31.0 73.4 31.0 73.4 36.1 63.45 36.1 63.55 17.25 73.45 17.65 73.45 22.75 68.2 22.6 68.2 24.2 M61.1 23.2 Q58.7 21.4 57.4 21.4 56.55 21.35 56.35 22.1 L56.35 22.4 Q56.25 23.0 57.85 23.6 59.95 24.3 60.85 25.05 L61.25 25.5 61.3 25.65 Q62.25 27.0 62.3 29.25 62.2 32.65 60.25 34.55 58.45 36.0 56.0 36.0 53.35 35.95 50.95 34.6 L51.85 29.5 53.3 30.45 55.3 30.9 55.5 30.9 Q56.9 30.9 56.95 29.85 56.95 28.9 55.5 28.6 53.25 27.8 52.55 27.3 50.9 25.9 50.95 23.25 50.9 20.35 52.6 18.55 L52.8 18.15 Q54.65 16.2 57.35 16.4 60.65 16.4 61.7 17.65 L61.1 23.2 M47.4 18.9 Q49.65 21.85 49.6 26.05 49.55 30.05 47.35 33.15 45.0 36.0 41.75 36.05 38.35 36.0 36.0 33.1 33.5 30.0 33.55 25.75 33.5 21.5 35.85 18.65 L36.0 18.45 Q38.35 15.5 41.7 15.65 44.85 15.75 47.2 18.7 L47.4 18.9 M41.7 22.15 Q40.5 22.1 39.7 23.2 38.8 24.2 38.9 25.85 38.8 27.3 39.65 28.5 L40.25 29.05 Q40.85 29.4 41.75 29.45 42.6 29.45 43.3 28.95 L43.7 28.5 Q44.6 27.4 44.7 25.95 44.65 24.3 43.75 23.3 42.85 22.2 41.7 22.15 M22.5 21.2 L20.0 21.1 Q18.4 21.0 17.25 22.35 16.05 23.7 16.05 25.8 16.05 27.65 17.25 29.1 L17.95 29.85 Q18.85 30.4 19.95 30.5 L22.45 30.55 22.5 36.25 19.15 36.2 Q15.4 36.2 12.85 33.2 10.2 29.9 10.25 25.6 10.1 21.35 12.65 18.4 12.65 18.2 12.9 18.1 15.4 15.1 19.15 15.25 L22.5 15.45 22.5 21.2 M29.45 15.5 L29.45 30.55 33.25 30.55 33.25 36.2 23.95 36.2 23.95 15.3 29.45 15.5" fill="#ffffff" fill-rule="evenodd" stroke="none"/>
    <path d="M85.3 5.3 Q89.05 5.55 89.1 10.15 L88.95 45.3 Q88.9 49.75 85.15 49.95 L13.45 52.65 Q8.0 52.85 7.95 47.4 L8.05 4.95 Q7.95 -0.6 13.5 -0.15 L85.3 5.3 M81.55 17.5 L74.65 17.15 74.35 17.3 74.2 17.7 74.2 18.2 Q74.05 18.2 74.05 18.35 L73.9 18.2 73.9 17.65 73.8 17.35 Q73.6 17.1 73.5 17.2 L63.55 16.75 63.25 16.9 Q63.1 16.95 63.2 17.2 L63.15 17.75 Q63.0 17.7 63.0 17.9 62.7 18.05 62.75 18.55 L62.75 27.75 62.6 27.4 Q62.2 26.15 61.6 25.35 L61.9 24.65 62.55 19.1 62.55 19.05 62.55 18.85 62.55 18.7 62.25 18.3 62.1 18.15 62.15 17.7 62.15 17.5 62.0 17.3 Q60.85 15.95 57.3 15.9 54.45 15.7 52.5 17.8 51.2 19.15 50.75 21.0 50.2 22.2 50.1 23.75 L49.6 22.2 Q48.95 20.2 47.8 18.6 45.2 15.25 41.75 15.15 38.15 14.9 35.65 18.1 34.1 19.75 33.5 22.05 32.5 24.25 32.6 27.15 32.5 28.6 32.85 30.05 L30.4 30.05 30.4 17.05 30.1 16.25 29.9 16.1 29.95 15.55 29.8 15.15 Q29.6 14.95 29.45 15.0 L24.0 14.75 Q23.6 14.7 23.55 14.95 23.35 15.0 23.45 15.3 L23.45 15.85 Q23.25 15.85 23.2 16.0 L23.1 16.1 23.0 16.05 23.0 15.45 22.9 15.1 Q22.65 14.85 22.5 14.9 L19.15 14.75 Q15.25 14.5 12.5 17.8 10.85 19.5 10.25 21.85 9.05 24.2 9.1 27.15 9.05 31.85 12.1 35.35 14.95 38.8 19.1 38.8 L22.45 38.75 23.25 38.45 23.9 38.8 33.2 38.7 33.9 38.35 34.15 37.65 34.2 33.65 Q34.6 34.45 35.35 35.25 37.95 38.5 41.65 38.5 45.35 38.4 48.05 35.3 50.4 31.9 50.55 27.5 50.85 28.45 51.6 29.15 51.45 29.15 51.45 29.4 L51.25 30.25 51.2 30.25 Q51.0 30.4 50.95 30.6 L50.95 30.65 50.0 35.8 50.05 35.75 Q49.9 36.05 50.1 36.45 L50.5 36.9 Q53.2 38.4 56.0 38.4 58.8 38.35 60.7 36.65 62.05 35.45 62.65 33.75 L62.7 37.5 Q62.65 37.8 62.9 38.15 L63.45 38.45 73.35 38.35 74.0 38.05 74.55 38.35 81.45 38.25 Q84.4 38.2 86.65 35.35 88.55 32.4 88.6 28.5 88.6 25.8 87.85 23.85 87.4 21.95 86.4 20.55 84.35 17.6 81.55 17.5 M82.95 28.4 L82.9 29.15 82.6 29.6 Q81.8 30.55 80.8 30.6 L79.7 30.6 79.8 25.15 80.85 25.15 Q81.65 25.2 82.35 26.05 82.95 26.95 82.95 28.4 M43.65 27.9 Q43.45 27.95 43.4 28.25 42.7 28.95 41.75 29.0 40.65 28.95 40.05 28.15 L39.8 27.75 39.75 27.3 Q39.75 26.05 40.45 25.35 L40.45 25.3 Q40.95 24.55 41.75 24.6 42.5 24.6 43.1 25.4 43.6 26.1 43.65 27.35 L43.65 27.9 M22.9 23.7 L22.9 30.3 22.85 30.25 Q22.65 30.0 22.45 30.05 L19.95 29.95 Q18.6 29.9 17.7 28.75 L17.3 28.25 17.15 27.25 Q17.1 25.65 18.05 24.65 18.9 23.65 20.05 23.7 L22.5 23.75 22.9 23.7" fill="#b42929" fill-rule="evenodd" stroke="none"/>
    <path d="M90.25 10.2 Q90.2 4.3 85.35 3.95 L13.45 -1.75 Q6.4 -2.35 6.4 4.85 L6.35 47.45 Q6.3 54.5 13.4 54.3 L85.15 51.3 Q89.95 51.05 90.05 45.25 L90.25 10.2 M85.35 3.0 Q91.0 3.35 91.0 10.25 L90.8 45.25 Q90.7 52.0 85.15 52.25 L13.45 55.4 Q5.25 55.65 5.25 47.5 L5.25 4.75 Q5.25 -3.6 13.5 -2.85 L85.35 3.0" fill="#000000" fill-rule="evenodd" stroke="none"/>
  </g>
</svg>
