<?xml version="1.0" encoding="UTF-8" standalone="no"?>
<svg xmlns:ffdec="https://www.free-decompiler.com/flash" xmlns:xlink="http://www.w3.org/1999/xlink" ffdec:objectType="shape" height="47.6px" width="31.2px" xmlns="http://www.w3.org/2000/svg">
  <g transform="matrix(1.0, 0.0, 0.0, 1.0, 15.55, 5.75)">
    <path d="M12.95 12.95 Q15.65 15.45 15.65 23.25 15.65 26.55 11.6 29.8 8.4 32.4 7.4 32.4 6.3 32.4 4.7 31.8 L4.0 31.45 Q2.7 32.5 -0.1 37.95 -2.1 41.85 -5.45 41.85 -7.55 41.85 -9.2 40.2 -10.85 38.55 -11.35 38.55 -11.8 38.55 -13.4 35.15 -15.2 31.35 -15.35 28.6 L-15.35 28.5 -15.55 26.2 -15.2 27.05 Q-14.65 27.8 -13.35 28.2 L-13.25 28.8 -13.3 28.8 Q-12.75 31.6 -11.1 34.85 -8.55 39.7 -5.5 39.7 -3.2 39.7 -2.45 37.55 -1.5 34.75 -2.55 27.1 L-1.05 26.3 -0.6 26.4 Q0.05 30.7 0.05 32.9 1.2 32.7 1.65 32.15 2.5 31.1 1.75 25.2 3.55 24.4 3.55 23.75 3.1 22.2 3.1 20.05 3.1 19.45 3.25 19.25 L3.55 18.6 5.55 23.45 Q6.5 25.2 7.35 26.1 8.9 27.7 10.8 27.7 12.0 27.7 12.8 26.4 13.65 25.05 13.65 23.1 L13.4 19.1 Q12.75 14.9 10.75 13.35 L12.95 12.95 M8.9 29.45 Q5.2 28.4 3.65 24.1 3.25 28.95 5.1 29.85 L8.5 30.2 8.9 29.45 M-11.65 12.65 L-12.75 17.05 Q-13.1 16.45 -13.1 15.3 -12.45 13.65 -11.65 12.65" fill="#4b3121" fill-rule="evenodd" stroke="none"/>
    <path d="M-11.65 12.65 Q-10.2 12.95 -9.55 13.75 -8.9 14.5 -9.2 15.4 -9.5 16.25 -10.6 16.75 L-12.75 17.05 -11.65 12.65 M-13.35 28.2 L-9.5 28.65 -5.3 28.8 Q-5.55 32.1 -6.0 33.55 -6.6 35.45 -7.8 35.45 -8.5 35.45 -9.7 34.4 -11.55 32.65 -13.25 28.8 L-13.35 28.2 M3.55 18.6 L4.65 17.25 Q6.15 15.7 8.45 14.35 L8.5 14.35 10.0 17.7 Q10.75 19.8 10.75 20.85 10.75 22.5 9.7 23.6 8.8 24.55 7.85 24.55 L5.55 23.45 3.55 18.6" fill="#d0975e" fill-rule="evenodd" stroke="none"/>
    <path d="M8.5 14.35 L10.75 13.35 Q12.75 14.9 13.4 19.1 L13.65 23.1 Q13.65 25.05 12.8 26.4 12.0 27.7 10.8 27.7 8.9 27.7 7.35 26.1 6.5 25.2 5.55 23.45 L7.85 24.55 Q8.8 24.55 9.7 23.6 10.75 22.5 10.75 20.85 10.75 19.8 10.0 17.7 L8.5 14.35 M1.75 25.2 Q2.5 31.1 1.65 32.15 1.2 32.7 0.05 32.9 0.05 30.7 -0.6 26.4 L1.75 25.2 M-2.55 27.1 Q-1.5 34.75 -2.45 37.55 -3.2 39.7 -5.5 39.7 -8.55 39.7 -11.1 34.85 -12.75 31.6 -13.3 28.8 L-13.25 28.8 Q-11.55 32.65 -9.7 34.4 -8.5 35.45 -7.8 35.45 -6.6 35.45 -6.0 33.55 -5.55 32.1 -5.3 28.8 L-2.55 27.1 M8.9 29.45 L8.5 30.2 5.1 29.85 Q3.25 28.95 3.65 24.1 5.2 28.4 8.9 29.45" fill="#ba8350" fill-rule="evenodd" stroke="none"/>
    <path d="M4.25 -2.2 L4.05 -2.25 4.25 -2.3 4.25 -2.2 M-1.0 12.5 L-0.8 12.65 -0.9 12.65 -1.0 12.5" fill="#f1ba87" fill-rule="evenodd" stroke="none"/>
    <path d="M4.05 -2.25 L4.25 -2.2 Q4.75 -1.05 5.5 2.85 L5.0 4.85 Q4.5 6.35 4.5 6.85 L5.6 9.2 8.45 14.35 Q6.15 15.7 4.65 17.25 L3.55 18.6 1.65 15.65 Q-0.15 13.1 -0.8 12.65 L-1.0 12.5 Q-1.65 11.85 -2.65 11.85 -4.3 11.85 -4.8 17.9 L-5.3 28.8 -9.5 28.65 -13.35 28.2 Q-13.7 22.8 -12.75 17.05 L-10.6 16.75 Q-9.5 16.25 -9.2 15.4 -8.9 14.5 -9.55 13.75 -10.2 12.95 -11.65 12.65 -11.65 5.95 -8.25 1.2 -4.85 -3.55 -0.05 -3.55 0.5 -3.3 2.1 -2.8 L4.05 -2.25" fill="#3e3e3e" fill-rule="evenodd" stroke="none"/>
    <path d="M-5.3 28.8 L-4.8 17.9 Q-4.3 11.85 -2.65 11.85 -1.65 11.85 -1.0 12.5 L-0.9 12.65 Q-2.0 13.6 -2.5 16.6 -2.9 18.8 -2.9 21.4 L-2.55 27.1 -5.3 28.8 M8.45 14.35 L5.6 9.2 4.5 6.85 Q4.5 6.35 5.0 4.85 L5.5 2.85 Q4.75 -1.05 4.25 -2.2 L4.25 -2.3 5.65 -2.35 Q7.25 -1.45 8.95 1.35 10.7 4.3 10.7 6.45 L10.4 9.1 8.2 5.5 Q7.75 4.85 7.3 4.7 L6.8 4.8 Q9.65 11.95 10.2 12.6 L10.75 13.35 8.5 14.35 8.45 14.35 M-0.6 26.4 L0.0 21.75 0.8 17.05 0.95 17.5 1.75 25.2 -0.6 26.4" fill="#272727" fill-rule="evenodd" stroke="none"/>
    <path d="M-0.05 -3.55 Q-4.85 -3.55 -8.25 1.2 -11.65 5.95 -11.65 12.65 -12.45 13.65 -13.1 15.3 -13.1 16.45 -12.75 17.05 -13.7 22.8 -13.35 28.2 -14.65 27.8 -15.2 27.05 L-15.55 26.2 Q-13.7 8.3 -9.7 1.4 -7.2 -2.9 -1.0 -5.75 L-0.6 -4.55 -0.05 -3.55 M-0.8 12.65 Q-0.15 13.1 1.65 15.65 L3.55 18.6 3.25 19.25 Q3.1 19.45 3.1 20.05 3.1 22.2 3.55 23.75 3.55 24.4 1.75 25.2 L0.95 17.5 0.8 17.05 0.0 21.75 -0.6 26.4 -1.05 26.3 -2.55 27.1 -2.9 21.4 Q-2.9 18.8 -2.5 16.6 -2.0 13.6 -0.9 12.65 L-0.8 12.65 M5.65 -2.35 L6.6 -3.1 7.35 -3.8 Q9.5 -2.3 11.3 1.65 12.75 4.8 12.75 6.05 L12.3 8.8 11.85 11.5 Q11.85 12.5 12.95 12.95 L10.75 13.35 10.2 12.6 Q9.65 11.95 6.8 4.8 L7.3 4.7 Q7.75 4.85 8.2 5.5 L10.4 9.1 10.7 6.45 Q10.7 4.3 8.95 1.35 7.25 -1.45 5.65 -2.35" fill="#000000" fill-rule="evenodd" stroke="none"/>
  </g>
</svg>
