<?xml version="1.0" encoding="UTF-8" standalone="no"?>
<svg xmlns:ffdec="https://www.free-decompiler.com/flash" xmlns:xlink="http://www.w3.org/1999/xlink" ffdec:objectType="shape" height="63.15px" width="22.45px" xmlns="http://www.w3.org/2000/svg">
  <g transform="matrix(1.0, 0.0, 0.0, 1.0, 7.9, 1.55)">
    <path d="M8.0 12.1 L8.6 17.0 7.8 12.05 8.0 12.1" fill="#5c4730" fill-rule="evenodd" stroke="none"/>
    <path d="M-3.45 13.3 L-3.45 13.35 -3.7 13.35 -3.45 13.3" fill="#cabaaa" fill-rule="evenodd" stroke="none"/>
    <path d="M11.5 47.0 Q11.1 48.5 9.5 49.45 7.45 50.7 3.7 50.7 1.65 50.7 0.05 49.95 -1.25 49.35 -1.25 48.95 L-1.15 48.4 -1.1 48.15 5.95 47.9 11.5 47.0" fill="#8f0000" fill-rule="evenodd" stroke="none"/>
    <path d="M13.5 46.1 L13.25 48.95 11.65 49.9 9.45 50.9 7.15 51.55 3.0 51.7 0.55 51.45 -1.35 50.85 Q-2.05 50.85 -2.55 49.9 -3.1 48.95 -3.1 47.6 L-1.1 48.15 -1.15 48.4 -1.25 48.95 Q-1.25 49.35 0.05 49.95 1.65 50.7 3.7 50.7 7.45 50.7 9.5 49.45 11.1 48.5 11.5 47.0 L13.5 46.1" fill="#460000" fill-rule="evenodd" stroke="none"/>
    <path d="M1.15 -1.5 Q3.3 -1.35 4.4 -0.7 L5.65 12.4 Q7.3 18.0 9.2 26.85 11.05 35.9 12.1 39.45 7.55 41.35 6.3 41.4 L6.35 40.2 Q6.35 36.75 4.8 23.65 3.05 9.25 1.15 -1.5 M8.7 45.9 Q12.55 45.35 3.95 47.3 -1.45 46.3 -1.45 46.0 -1.45 45.7 -2.2 45.0 -3.0 44.3 -3.1 42.65 0.3 43.85 5.15 43.35 9.3 42.9 12.4 41.55 L8.75 45.85 8.7 45.9 M-3.45 13.35 L-0.3 41.35 -3.15 40.55 Q-2.45 35.25 -2.85 24.45 -3.25 14.8 -3.7 13.35 L-3.45 13.35" fill="#ded9cb" fill-rule="evenodd" stroke="none"/>
    <path d="M-5.95 0.15 L-2.35 -1.55 1.15 -1.5 Q3.05 9.25 4.8 23.65 6.35 36.75 6.35 40.2 L6.3 41.4 Q3.1 41.8 -0.3 41.35 L-3.45 13.35 -3.45 13.3 Q-3.85 9.45 -4.7 5.55 L-5.95 0.15" fill="#f2efea" fill-rule="evenodd" stroke="none"/>
    <path d="M4.4 -0.7 L4.55 -1.3 5.3 -1.55 5.95 -1.5 6.2 -0.25 Q6.65 4.85 8.0 12.1 L7.8 12.05 8.6 17.0 Q8.6 20.65 11.6 32.2 14.55 43.7 14.55 44.9 L13.5 46.1 11.5 47.0 5.95 47.9 -1.1 48.15 -3.1 47.6 Q-5.45 46.3 -5.35 43.05 -4.7 37.4 -4.7 32.0 L-4.9 25.9 -5.5 15.35 -7.9 0.4 -7.45 0.4 -6.55 0.5 Q-5.95 -0.05 -5.95 0.15 L-4.7 5.55 Q-3.85 9.45 -3.45 13.3 L-3.7 13.35 Q-3.25 14.8 -2.85 24.45 -2.45 35.25 -3.15 40.55 L-0.3 41.35 Q3.1 41.8 6.3 41.4 7.55 41.35 12.1 39.45 11.05 35.9 9.2 26.85 7.3 18.0 5.65 12.4 L4.4 -0.7 M8.7 45.9 L8.75 45.85 12.4 41.55 Q9.3 42.9 5.15 43.35 0.3 43.85 -3.1 42.65 -3.0 44.3 -2.2 45.0 -1.45 45.7 -1.45 46.0 -1.45 46.3 3.95 47.3 12.55 45.35 8.7 45.9" fill="#58524e" fill-rule="evenodd" stroke="none"/>
    <path d="M0.55 51.45 L3.0 51.7 7.15 51.55 8.5 58.5 7.6 59.25 6.45 59.55 Q5.65 59.55 4.4 58.85 3.2 58.15 2.45 58.15 1.85 58.15 1.45 56.55 L0.55 51.45" fill="#f0a866" fill-rule="evenodd" stroke="none"/>
    <path d="M7.15 51.55 L9.45 50.9 Q10.45 55.7 9.8 57.2 9.45 58.05 8.5 58.5 L7.15 51.55" fill="#e79d5a" fill-rule="evenodd" stroke="none"/>
    <path d="M11.65 49.9 L12.0 55.9 Q12.0 57.4 11.2 57.4 L9.35 59.5 Q7.35 61.6 6.05 61.6 4.45 61.6 2.05 59.95 0.1 58.7 -0.85 57.55 L-0.9 57.35 -1.35 50.85 0.55 51.45 1.45 56.55 Q1.85 58.15 2.45 58.15 3.2 58.15 4.4 58.85 5.65 59.55 6.45 59.55 L7.6 59.25 8.5 58.5 Q9.45 58.05 9.8 57.2 10.45 55.7 9.45 50.9 L11.65 49.9" fill="#654425" fill-rule="evenodd" stroke="none"/>
  </g>
</svg>
