<?xml version="1.0" encoding="UTF-8" standalone="no"?>
<svg xmlns:ffdec="https://www.free-decompiler.com/flash" xmlns:xlink="http://www.w3.org/1999/xlink" ffdec:objectType="shape" height="56.1px" width="77.85px" xmlns="http://www.w3.org/2000/svg">
  <g transform="matrix(1.0, 0.0, 0.0, 1.0, 35.1, 18.8)">
    <path d="M31.25 -10.35 L31.05 -12.1 33.75 -12.85 33.8 -11.25 31.25 -10.35 M8.7 12.45 L14.4 15.25 18.6 17.0 15.9 17.3 15.05 16.95 9.7 14.35 8.65 13.7 8.7 12.45 M20.05 17.55 L23.2 18.35 22.75 19.35 19.9 18.65 20.05 17.55 M1.55 14.3 L4.15 15.4 4.3 15.45 7.4 16.1 Q8.65 16.3 8.65 16.8 L8.6 17.55 8.45 17.95 8.45 17.75 4.0 17.8 -0.65 17.75 -0.65 18.45 Q-4.55 17.5 -7.55 15.4 L-9.75 13.55 -4.3 14.05 -4.5 7.1 -3.75 8.5 Q-2.5 10.85 -0.85 12.45 L-0.8 14.25 1.55 14.3 M-12.9 9.25 Q-14.85 5.55 -15.25 0.55 L-14.95 0.45 -14.0 0.35 Q-9.3 0.35 -7.9 1.6 L-6.95 2.85 -12.9 2.2 -12.9 9.25" fill="#4e4e4e" fill-rule="evenodd" stroke="none"/>
    <path d="M5.4 -0.2 L6.8 -0.2 6.75 2.85 6.6 2.85 6.6 3.3 5.2 3.3 5.4 2.5 5.4 2.45 5.4 -0.2 M8.45 -10.0 L8.35 -11.5 11.9 -11.55 11.95 -10.25 10.25 -10.1 8.45 -10.0 M-1.05 -11.65 L-1.1 -10.55 -4.6 -10.7 -4.55 -11.8 -3.85 -11.75 -1.7 -11.65 -1.05 -11.65 M-0.05 -0.25 L1.45 -0.2 1.4 2.75 0.7 2.95 Q0.15 2.85 -0.05 2.2 L-0.05 -0.25 M19.9 -10.8 L19.7 -12.05 23.2 -12.45 23.45 -11.05 19.9 -10.8 M30.8 -13.75 L33.6 -14.3 33.7 -14.3 34.25 -14.4 Q35.0 -9.85 35.2 -4.9 L35.35 -4.95 35.35 -4.3 35.4 -4.3 Q35.4 -3.55 35.9 -2.2 L35.85 -1.45 35.3 -1.25 35.3 -0.6 34.6 -0.1 Q34.25 -0.15 34.05 -0.35 L33.9 -0.65 33.8 -11.25 33.75 -12.85 31.05 -12.1 30.8 -13.75 M40.05 -17.2 L40.35 -17.55 42.3 -6.65 42.75 0.25 39.25 15.55 38.8 16.55 38.8 16.5 39.6 11.6 Q39.35 11.65 39.15 11.8 41.3 6.15 41.3 -0.1 L41.15 -5.05 40.6 -9.4 39.8 -16.85 40.05 -17.2 M34.75 22.55 L34.8 22.55 34.05 23.45 31.6 26.05 27.6 29.6 27.9 28.4 25.25 29.0 Q29.55 25.95 32.85 22.1 L32.6 23.35 32.85 23.25 34.75 22.55 M20.4 34.0 L18.4 34.85 16.35 35.6 16.35 35.55 16.9 33.45 18.5 32.9 Q20.0 32.25 21.35 29.9 L20.4 34.0 M10.6 36.9 L9.5 37.05 7.0 37.25 7.2 35.3 10.8 34.7 10.6 36.9 M0.35 37.1 L-1.45 36.85 -3.2 36.55 -3.3 34.55 -3.3 34.5 -1.55 34.85 0.25 35.1 0.35 37.1 M-9.8 34.55 L-13.8 32.6 -14.25 30.25 -11.3 31.85 -10.25 32.3 -10.25 32.35 -9.8 34.55 M-19.6 28.45 Q-22.6 25.85 -25.25 22.45 L-26.1 21.35 -26.55 17.95 -24.7 20.6 -22.8 22.95 -22.15 23.7 -22.05 24.2 -21.55 24.35 Q-18.85 27.15 -15.75 29.3 L-19.6 28.45 M-31.7 11.55 Q-35.1 3.45 -35.1 -5.5 -35.1 -9.05 -33.45 -18.8 L-33.3 -18.7 -32.1 -17.6 -31.7 -17.25 -31.95 -15.6 -32.55 -15.95 -33.55 -5.15 Q-33.55 -2.2 -33.15 0.65 L-33.05 6.9 -31.5 7.75 -29.65 12.4 -31.7 11.55 M-26.5 -15.0 L-23.05 -14.15 -23.3 -12.15 -26.5 -13.25 -26.7 -13.3 -26.5 -15.0 M-15.1 -12.75 L-11.6 -12.35 -11.8 -11.05 -15.3 -11.25 -15.1 -12.75 M29.15 -3.0 L30.5 -3.4 30.65 0.2 29.25 0.55 29.1 -1.9 29.15 -2.7 29.15 -3.0 M26.8 12.05 L26.75 12.65 26.45 15.7 25.3 15.95 25.65 12.3 26.8 12.05 M27.05 1.1 L26.25 1.25 26.95 -1.35 27.05 1.1 M23.6 17.45 L23.45 18.4 23.45 18.45 23.4 18.4 23.2 18.35 20.05 17.55 20.15 16.8 18.6 17.0 14.4 15.25 8.7 12.45 8.7 11.35 12.15 13.1 12.15 14.05 13.85 13.95 18.05 15.75 Q20.8 16.8 23.6 17.45 M23.1 25.85 L24.2 25.65 23.9 26.55 22.6 29.5 21.5 29.7 23.1 25.85" fill="#0c0c0c" fill-rule="evenodd" stroke="none"/>
    <path d="M1.7 -0.2 L1.65 2.15 1.65 2.35 1.55 3.3 -0.55 3.25 -0.95 -0.3 -0.05 -0.25 -0.05 2.2 Q0.15 2.85 0.7 2.95 L1.4 2.75 1.45 -0.2 1.7 -0.2 M8.65 -5.45 L8.45 -10.0 10.25 -10.1 11.95 -10.25 11.95 -10.2 12.1 -7.3 11.0 -7.1 Q9.3 -6.7 8.75 -5.7 L8.75 -5.65 8.65 -5.45 M8.8 -0.95 L9.4 -0.8 Q8.9 -0.4 8.4 1.05 8.05 2.05 7.85 3.25 L6.6 3.3 6.6 2.85 6.75 2.85 6.8 -0.2 8.8 -0.25 8.8 -0.95 M8.75 8.15 L10.3 10.0 12.2 11.55 12.15 13.1 8.7 11.35 8.75 8.15 M19.9 -10.8 L23.45 -11.05 23.8 -8.9 20.3 -8.45 19.9 -10.8 M16.45 -0.8 L15.9 -0.5 14.45 -0.35 13.0 -0.5 16.45 -0.8 M17.35 13.6 L20.75 13.9 23.5 13.15 24.2 12.6 25.65 12.3 25.3 15.95 23.75 16.25 23.6 17.45 Q20.8 16.8 18.05 15.75 L13.85 13.95 17.35 13.6 M26.05 1.3 L26.0 -2.3 29.15 -3.0 29.15 -2.7 29.1 -1.9 26.95 -1.35 26.25 1.25 26.05 1.3 M20.9 -1.95 L23.3 -1.95 23.3 -0.95 19.6 -0.95 19.6 -1.15 20.95 -1.35 20.9 -1.95 M35.85 -1.45 L35.9 -2.2 Q35.4 -3.55 35.4 -4.3 L35.35 -4.3 35.35 -4.95 Q38.5 -6.15 40.7 -7.4 L40.6 -9.4 41.15 -5.05 41.3 -0.1 Q41.3 6.15 39.15 11.8 L35.3 13.25 34.45 13.55 35.9 9.35 Q38.3 8.4 40.1 7.4 40.7 1.8 40.75 -3.45 38.95 -2.6 36.75 -1.75 L36.65 -3.45 36.2 -1.55 35.85 -1.45 M35.3 -0.6 L35.25 1.45 34.5 3.2 Q34.15 3.0 34.05 2.35 L34.05 -0.35 Q34.25 -0.15 34.6 -0.1 L35.3 -0.6 M29.7 11.35 L31.0 10.95 31.0 11.3 30.8 12.75 30.35 13.3 Q30.1 13.3 29.9 12.75 L29.7 11.35 M29.6 20.65 L30.4 19.75 32.4 17.15 32.75 16.65 34.2 14.1 32.85 22.1 Q29.55 25.95 25.25 29.0 L22.6 29.5 23.9 26.55 24.9 25.5 28.8 24.55 29.6 20.65 M23.4 18.4 L23.45 18.45 22.2 26.0 23.1 25.85 21.5 29.7 21.4 29.7 21.35 29.9 Q20.0 32.25 18.5 32.9 L16.9 33.45 17.7 30.2 11.1 30.75 10.8 34.7 7.2 35.3 7.6 30.9 4.0 30.95 0.0 30.9 0.25 35.1 -1.55 34.85 -3.3 34.5 -3.55 30.75 -10.7 30.1 -10.25 32.3 -11.3 31.85 -14.25 30.25 -14.35 29.55 -15.75 29.3 Q-18.85 27.15 -21.55 24.35 L-14.95 25.85 -15.3 23.35 -11.4 25.9 -11.3 26.45 -10.05 26.65 -9.2 27.05 4.2 30.05 9.75 29.55 20.8 27.05 22.8 20.7 23.4 18.4 M-2.0 -0.55 L-3.65 -0.7 Q-4.35 -0.85 -4.35 -1.05 L-3.65 -1.4 -2.0 -1.55 -1.35 -1.5 -1.6 -8.55 -1.85 -8.55 -3.75 -8.6 -4.6 -8.65 -4.6 -10.7 -1.1 -10.55 -1.1 -0.5 -2.0 -0.55 M-9.3 -0.9 L-9.4 -0.9 -10.75 -1.05 -9.3 -0.9 M-16.15 -3.05 L-14.6 -3.05 -14.6 -1.65 -18.5 -1.65 -18.5 -2.4 -16.2 -1.9 -16.15 -3.05 M-26.7 -13.3 L-26.5 -13.25 -23.3 -12.15 -23.5 -10.3 -27.0 -10.75 -26.7 -13.3 M-33.15 0.65 Q-33.55 -2.2 -33.55 -5.15 L-32.55 -15.95 -31.95 -15.6 Q-32.55 -11.6 -32.8 -7.5 -30.65 -6.2 -27.45 -5.0 -27.8 -4.65 -28.6 -4.2 -29.4 -3.5 -29.4 -2.1 L-29.4 -2.0 Q-31.4 -2.75 -33.05 -3.6 L-33.15 0.65 M-27.4 -5.05 L-27.4 -5.2 -27.35 -5.15 -27.4 -5.05 M-15.55 -9.3 L-15.3 -11.25 -11.8 -11.05 -12.05 -9.0 -15.55 -9.3 M-27.4 8.4 L-27.1 9.1 -23.3 15.5 -22.15 23.7 -22.8 22.95 -24.7 20.6 -26.55 17.95 -27.05 13.35 -27.3 13.25 -29.65 12.4 -31.5 7.75 -27.3 9.55 -27.4 8.4 M-23.9 -4.65 L-23.95 -3.8 -21.55 -3.15 -21.65 -3.05 -22.1 -2.85 Q-23.0 -3.05 -24.75 -3.75 L-24.4 -4.9 -23.9 -4.65" fill="#1b1b1b" fill-rule="evenodd" stroke="none"/>
    <path d="M1.65 2.15 L5.4 2.45 5.4 2.5 5.2 3.3 4.0 3.3 1.55 3.3 1.65 2.35 1.65 2.15 M-0.95 -0.3 L-0.55 3.25 -1.05 3.2 -1.05 5.25 Q-2.0 2.7 -2.0 -0.55 L-1.1 -0.5 -1.1 -0.3 -0.95 -0.3 M8.65 -5.45 L8.75 -5.65 8.75 -5.7 Q9.3 -6.7 11.0 -7.1 L12.1 -7.3 12.2 -4.9 Q10.1 -4.25 10.1 -3.15 10.1 2.4 12.3 6.4 L12.2 11.55 10.3 10.0 8.75 8.15 8.8 3.25 7.85 3.25 Q8.05 2.05 8.4 1.05 8.9 -0.4 9.4 -0.8 L8.8 -0.95 8.65 -5.45 M20.6 -5.7 L20.3 -8.45 23.8 -8.9 24.45 -1.95 26.0 -2.3 26.05 1.3 24.55 1.6 Q24.65 6.9 24.15 12.6 L24.2 12.6 23.5 13.15 20.75 13.9 17.35 13.6 20.55 13.2 20.6 12.3 20.75 12.3 Q22.3 12.3 22.85 10.55 23.6 8.35 23.6 2.15 L23.35 -3.45 Q22.8 -5.4 20.6 -5.7 M26.95 -1.35 L29.1 -1.9 29.25 0.55 27.05 1.1 26.95 -1.35 M36.2 -1.55 L36.65 -3.45 36.75 -1.75 36.2 -1.55 M35.9 9.35 L34.45 13.55 34.25 13.6 34.2 14.1 32.75 16.65 32.4 17.15 30.4 19.75 29.6 20.65 30.6 14.7 28.85 15.15 28.85 14.55 28.85 11.55 29.7 11.35 29.9 12.75 Q30.1 13.3 30.35 13.3 L30.8 12.75 31.0 11.3 31.0 10.95 31.05 10.95 Q31.7 5.25 31.75 -0.05 L33.9 -0.65 34.05 -0.35 34.05 2.35 Q34.15 3.0 34.5 3.2 L35.25 1.45 34.7 9.75 35.9 9.35 M24.2 25.65 L24.9 25.5 23.9 26.55 24.2 25.65 M23.2 18.35 L23.4 18.4 22.8 20.7 20.8 27.05 9.75 29.55 4.2 30.05 -9.2 27.05 -10.05 26.65 -3.75 27.2 -3.95 23.3 -0.4 23.8 -0.2 27.4 4.0 27.45 7.85 27.4 8.1 23.85 11.65 23.55 11.4 27.25 18.5 26.6 19.4 21.65 20.35 21.2 22.55 19.6 22.6 19.5 22.75 19.35 23.2 18.35 M-2.0 -1.55 L-2.0 -1.6 Q-2.35 -2.45 -3.05 -3.2 L-4.65 -4.45 -4.6 -8.65 -3.75 -8.6 -1.85 -8.55 -1.6 -8.55 -1.35 -1.5 -2.0 -1.55 M-12.3 -6.95 L-15.75 -7.4 -15.55 -9.3 -12.05 -9.0 -12.3 -6.95 M-21.3 -3.1 L-22.25 0.3 -24.05 -0.2 Q-24.1 5.25 -23.7 10.75 L-19.7 11.85 -18.35 14.0 -16.75 16.05 -23.4 14.5 -23.3 15.5 -27.1 9.1 -27.4 8.4 -27.55 -1.3 -29.4 -2.0 -29.4 -2.1 Q-29.4 -3.5 -28.6 -4.2 -27.8 -4.65 -27.45 -5.0 L-27.4 -5.0 -27.4 -5.05 -27.35 -5.15 -27.4 -5.2 -27.0 -10.75 -23.5 -10.3 -23.9 -4.65 -24.4 -4.9 -24.75 -3.75 Q-23.0 -3.05 -22.1 -2.85 L-21.65 -3.05 -21.55 -3.15 -21.3 -3.1 M-16.0 16.9 L-15.95 16.95 -15.75 17.15 -14.85 18.05 -13.55 19.1 -12.15 20.05 -11.4 25.9 -15.3 23.35 -16.0 16.9" fill="#2e2e2e" fill-rule="evenodd" stroke="none"/>
    <path d="M1.7 -0.2 L4.0 -0.2 5.4 -0.2 5.4 2.45 1.65 2.15 1.7 -0.2 M12.3 6.4 Q10.1 2.4 10.1 -3.15 10.1 -4.25 12.2 -4.9 L12.3 -0.45 13.0 -0.5 14.45 -0.35 15.9 -0.5 16.45 -0.8 19.6 -1.15 19.6 -0.95 23.3 -0.95 23.3 -1.95 20.9 -1.95 20.6 -5.7 Q22.8 -5.4 23.35 -3.45 L23.6 2.15 Q23.6 8.35 22.85 10.55 22.3 12.3 20.75 12.3 L20.6 12.3 Q21.1 7.05 21.05 2.15 L12.35 3.05 12.3 6.4 M30.65 0.2 L30.5 -3.4 31.7 -3.75 31.25 -10.35 33.8 -11.25 33.9 -0.65 31.75 -0.05 31.75 -0.1 30.65 0.2 M28.85 11.55 L28.85 14.55 28.85 15.15 26.45 15.7 26.75 12.65 26.8 12.05 28.85 11.55 M22.75 19.35 L22.6 19.5 22.55 19.6 20.35 21.2 19.4 21.65 19.9 18.65 22.75 19.35 M11.65 23.55 L8.1 23.85 8.45 17.95 8.6 17.55 8.65 16.8 Q8.65 16.3 7.4 16.1 L4.3 15.45 4.15 15.4 1.55 14.3 4.0 14.3 8.6 14.25 8.65 13.7 9.7 14.35 15.05 16.95 15.9 17.3 15.85 17.3 12.0 17.6 11.65 23.55 M-0.4 23.8 L-3.95 23.3 -4.2 17.55 -12.5 16.75 -12.15 20.05 -13.55 19.1 -14.85 18.05 -15.75 17.15 -15.95 16.95 -16.0 16.9 -16.05 16.2 -16.75 16.05 -18.35 14.0 -19.7 11.85 -16.3 12.55 Q-16.6 7.05 -16.4 1.6 L-22.25 0.3 -21.3 -3.1 -18.5 -2.4 -18.5 -1.65 -14.6 -1.65 -14.6 -3.05 -16.15 -3.05 -15.75 -7.4 -12.3 -6.95 -12.75 -1.35 -10.75 -1.05 -9.4 -0.9 -9.3 -0.9 -4.6 -0.45 -4.65 -4.45 -3.05 -3.2 Q-2.35 -2.45 -2.0 -1.6 L-2.0 -1.55 -3.65 -1.4 -4.35 -1.05 Q-4.35 -0.85 -3.65 -0.7 L-2.0 -0.55 Q-2.0 2.7 -1.05 5.25 L-0.85 12.45 Q-2.5 10.85 -3.75 8.5 L-4.5 7.1 -4.6 3.05 -6.95 2.85 -7.9 1.6 Q-9.3 0.35 -14.0 0.35 L-14.95 0.45 -15.25 0.55 Q-14.85 5.55 -12.9 9.25 L-12.75 13.15 -9.75 13.55 -7.55 15.4 Q-4.55 17.5 -0.65 18.45 L-0.4 23.8" fill="#3c3c3c" fill-rule="evenodd" stroke="none"/>
    <path d="M5.35 -7.4 L5.35 -9.95 1.45 -10.0 1.45 -8.05 1.45 -2.35 1.45 -0.2 -0.05 -0.25 -0.05 -10.5 -1.1 -10.55 -1.05 -11.65 Q3.0 -11.5 7.45 -11.5 L8.35 -11.5 8.45 -10.0 6.85 -9.9 6.8 -0.2 5.4 -0.2 5.35 -7.4 M11.95 -10.25 L11.9 -11.55 17.6 -11.85 19.7 -12.05 19.9 -10.8 11.95 -10.2 11.95 -10.25 M23.45 -11.05 L23.2 -12.45 30.8 -13.75 31.05 -12.1 30.2 -11.9 30.25 -10.05 30.5 -3.4 29.15 -3.0 28.7 -11.6 23.45 -11.05 M33.7 -14.3 L36.75 -15.0 Q38.35 -15.55 39.6 -16.65 L40.05 -17.2 39.8 -16.85 40.6 -9.4 39.55 -14.45 35.25 -13.25 35.35 -4.95 35.2 -4.9 Q35.0 -9.85 34.25 -14.4 L33.7 -14.3 M38.8 16.5 Q37.1 19.65 34.75 22.55 L32.85 23.25 32.6 23.35 32.85 22.1 34.45 20.1 Q37.45 16.15 39.15 11.8 39.35 11.65 39.6 11.6 L38.8 16.5 M27.6 29.6 Q24.15 32.25 20.4 34.0 L21.35 29.9 21.5 29.7 22.6 29.5 21.85 31.15 25.25 29.0 27.9 28.4 27.6 29.6 M16.35 35.55 L10.6 36.9 10.8 34.7 11.9 34.5 16.9 33.45 16.35 35.55 M7.0 37.25 L4.85 37.3 0.35 37.1 0.25 35.1 5.6 35.4 7.2 35.3 7.0 37.25 M-1.45 36.85 Q-5.85 36.2 -9.8 34.55 L-10.25 32.35 Q-7.0 33.75 -3.3 34.55 L-3.2 36.55 -1.45 36.85 M-13.8 32.6 Q-16.85 30.85 -19.6 28.45 L-15.75 29.3 -14.25 30.25 -13.8 32.6 M-26.1 21.35 Q-29.6 16.6 -31.7 11.55 L-29.65 12.4 Q-28.35 15.25 -26.55 17.95 L-26.1 21.35 M-32.1 -17.6 L-30.75 -16.5 Q-29.65 -15.7 -28.7 -15.7 L-26.5 -15.0 -26.7 -13.3 -28.95 -14.0 Q-29.45 -14.15 -31.95 -15.6 L-31.7 -17.25 -32.1 -17.6 M-23.05 -14.15 L-20.4 -13.6 -15.1 -12.75 -15.3 -11.25 -22.7 -12.0 -23.3 -12.15 -23.05 -14.15 M-11.6 -12.35 L-3.85 -11.75 -4.55 -11.8 -4.6 -10.7 -11.8 -11.05 -11.6 -12.35 M29.25 0.55 L30.65 0.2 Q30.6 0.75 29.95 1.0 L29.25 0.8 29.25 0.55 M35.3 -0.6 L35.3 -1.25 35.85 -1.45 35.3 -0.6 M25.5 21.1 L24.2 25.65 23.1 25.85 23.15 25.7 24.95 18.75 23.45 18.4 23.6 17.45 25.1 17.75 25.3 15.95 26.45 15.7 25.5 21.1 M26.1 2.7 L26.05 1.95 26.25 1.25 27.05 1.1 27.1 3.55 26.8 12.05 25.65 12.3 25.75 10.4 26.1 2.7 M8.7 11.35 L8.7 12.45 6.35 11.15 Q3.75 9.0 4.35 5.7 L5.2 3.3 6.6 3.3 6.6 10.2 8.7 11.35 M18.6 17.0 L20.15 16.8 20.05 17.55 18.6 17.0 M-31.5 7.75 L-33.05 6.9 -33.15 0.65 Q-32.65 4.25 -31.5 7.75 M-21.55 24.35 L-22.05 24.2 -22.15 23.7 -21.55 24.35" fill="#521210" fill-rule="evenodd" stroke="none"/>
    <path d="M1.45 -8.05 L1.45 -10.0 5.35 -9.95 5.35 -7.4 1.45 -8.05 M30.25 -10.05 L30.2 -11.9 31.05 -12.1 31.25 -10.35 30.25 -10.05 M6.35 11.15 L8.7 12.45 8.65 13.7 Q5.45 11.75 4.4 10.4 L4.35 10.35 6.35 11.15 M15.9 17.3 L18.6 17.0 20.05 17.55 19.9 18.65 15.85 17.3 15.9 17.3 M-0.65 18.45 L-0.65 17.75 4.0 17.8 8.45 17.75 8.45 17.95 Q7.9 19.15 6.0 19.15 L-0.65 18.45 M-6.95 2.85 L-4.5 7.1 -4.3 14.05 -9.75 13.55 Q-11.65 11.7 -12.9 9.25 L-12.9 2.2 -6.95 2.85 M1.55 14.3 L-0.8 14.25 -0.85 12.45 1.55 14.3" fill="#d52d28" fill-rule="evenodd" stroke="none"/>
    <path d="M6.8 -0.2 L6.85 -9.9 8.45 -10.0 8.65 -5.45 Q8.3 -4.45 8.3 -2.25 8.3 -1.3 8.65 -1.05 L8.8 -0.95 8.8 -0.25 6.8 -0.2 M-1.1 -10.55 L-0.05 -10.5 -0.05 -0.25 -0.95 -0.3 -1.0 -0.5 -1.1 -0.5 -1.1 -10.55 M1.45 -0.2 L1.45 -2.35 1.7 -0.2 1.45 -0.2 M-0.55 3.25 L1.55 3.3 1.15 6.05 Q1.0 6.7 0.5 6.75 -0.05 6.0 -0.4 4.25 L-0.55 3.25 M6.6 3.3 L7.85 3.25 7.65 6.0 8.25 7.3 8.75 8.15 8.7 11.35 6.6 10.2 6.6 3.3 M12.1 -7.3 L11.95 -10.2 19.9 -10.8 20.3 -8.45 12.1 -7.3 M13.0 -0.5 L12.4 -0.95 Q12.4 -1.2 13.0 -1.35 L14.45 -1.55 15.9 -1.35 Q16.5 -1.2 16.5 -0.95 L16.45 -0.8 13.0 -0.5 M19.6 -1.15 L19.6 -1.95 20.9 -1.95 20.95 -1.35 19.6 -1.15 M35.35 -4.95 L35.25 -13.25 39.55 -14.45 40.6 -9.4 40.7 -7.4 Q38.5 -6.15 35.35 -4.95 M23.8 -8.9 L23.45 -11.05 28.7 -11.6 29.15 -3.0 26.0 -2.3 25.8 -9.15 23.8 -8.9 M35.85 -1.45 L36.2 -1.55 35.75 -0.1 35.25 1.45 35.3 -0.6 35.85 -1.45 M36.75 -1.75 Q38.95 -2.6 40.75 -3.45 40.7 1.8 40.1 7.4 38.3 8.4 35.9 9.35 36.9 5.3 36.9 0.35 L36.75 -1.75 M34.45 13.55 L35.3 13.25 39.15 11.8 Q37.45 16.15 34.45 20.1 L32.85 22.1 34.2 14.1 34.45 13.55 M29.7 11.35 L29.7 11.3 29.9 9.9 30.35 9.3 30.8 9.9 31.0 10.95 29.7 11.35 M31.05 4.4 L30.9 5.85 30.45 6.4 Q30.2 6.4 30.05 5.85 L29.85 4.4 30.05 3.0 Q30.2 2.4 30.45 2.4 L30.9 3.0 31.05 4.4 M24.9 25.5 L28.55 21.75 29.6 20.65 28.8 24.55 24.9 25.5 M26.1 2.7 L25.75 10.4 25.65 12.3 24.2 12.6 24.2 12.55 Q25.3 11.4 26.1 2.7 M26.25 1.25 L26.05 1.95 26.05 1.3 26.25 1.25 M29.75 16.25 Q30.0 16.6 29.8 18.3 L29.65 20.15 29.0 20.15 29.3 18.0 Q29.35 17.0 29.75 16.25 M23.45 18.45 L23.45 18.4 24.95 18.75 23.15 25.7 23.1 25.85 22.2 26.0 23.45 18.45 M23.6 17.45 L23.75 16.25 25.3 15.95 25.1 17.75 23.6 17.45 M-11.4 25.9 L-10.05 26.65 -11.3 26.45 -11.4 25.9 M13.85 13.95 L12.15 13.1 12.2 11.55 Q14.45 13.05 17.35 13.6 L13.85 13.95 M16.9 33.45 L11.9 34.5 10.8 34.7 11.1 30.75 17.7 30.2 16.9 33.45 M21.35 29.9 L21.4 29.7 21.5 29.7 21.35 29.9 M7.2 35.3 L5.6 35.4 0.25 35.1 0.0 30.9 4.0 30.95 7.6 30.9 7.2 35.3 M-3.3 34.5 L-3.3 34.55 Q-7.0 33.75 -10.25 32.35 L-10.25 32.3 -10.7 30.1 -3.55 30.75 -3.3 34.5 M25.25 29.0 L21.85 31.15 22.6 29.5 25.25 29.0 M-31.95 -15.6 Q-29.45 -14.15 -28.95 -14.0 L-26.7 -13.3 -27.0 -10.75 -28.6 -11.0 -28.9 -6.35 Q-28.9 -5.75 -28.3 -5.6 L-27.4 -5.2 -27.4 -5.05 -27.45 -5.0 Q-30.65 -6.2 -32.8 -7.5 -32.55 -11.6 -31.95 -15.6 M-23.5 -10.3 L-23.3 -12.15 -22.7 -12.0 -15.3 -11.25 -15.55 -9.3 -23.5 -10.3 M-23.9 -4.65 L-21.5 -3.2 -21.55 -3.15 -23.95 -3.8 -23.9 -4.65 M-12.05 -9.0 L-11.8 -11.05 -4.6 -10.7 -4.6 -8.65 -11.65 -9.0 -12.05 -9.0 M-33.15 0.65 L-33.05 -3.6 Q-31.4 -2.75 -29.4 -2.0 -29.4 3.45 -27.4 8.4 L-27.3 9.55 -31.5 7.75 Q-32.65 4.25 -33.15 0.65 M-18.5 -2.4 L-18.5 -3.05 -16.15 -3.05 -16.2 -1.9 -18.5 -2.4 M-10.75 -1.05 L-10.85 -1.1 -11.45 -1.55 -10.85 -2.0 -9.4 -2.2 -7.95 -2.0 -7.35 -1.55 -7.95 -1.1 -9.3 -0.9 -10.75 -1.05 M-23.3 15.5 L-18.75 20.45 -15.3 23.35 -14.95 25.85 -21.55 24.35 -22.15 23.7 -23.3 15.5 M-15.75 29.3 L-14.35 29.55 -14.25 30.25 -15.75 29.3 M-29.65 12.4 L-27.3 13.25 -27.05 13.35 -26.55 17.95 Q-28.35 15.25 -29.65 12.4" fill="#791a17" fill-rule="evenodd" stroke="none"/>
    <path d="M5.35 -7.4 L5.4 -0.2 4.0 -0.2 1.7 -0.2 1.45 -2.35 1.45 -8.05 5.35 -7.4 M12.2 -4.9 L13.2 -5.2 19.65 -5.8 20.6 -5.7 20.9 -1.95 19.6 -1.95 19.6 -1.15 16.45 -0.8 16.5 -0.95 Q16.5 -1.2 15.9 -1.35 L14.45 -1.55 13.0 -1.35 Q12.4 -1.2 12.4 -0.95 L13.0 -0.5 12.3 -0.45 12.2 -4.9 M30.25 -10.05 L31.25 -10.35 31.7 -3.75 30.5 -3.4 30.25 -10.05 M30.65 0.2 L31.75 -0.1 30.65 0.2 M27.1 3.55 Q27.5 1.65 27.95 0.9 L28.8 1.95 28.85 11.55 26.8 12.05 27.1 3.55 M26.45 15.7 L28.85 15.15 Q28.7 20.55 25.75 21.6 L25.5 21.1 26.45 15.7 M12.3 6.4 L12.35 3.05 21.05 2.15 Q21.1 7.05 20.6 12.3 16.4 12.25 13.35 8.05 L12.3 6.4 M13.85 13.95 L12.15 14.05 12.15 13.1 13.85 13.95 M19.9 18.65 L19.4 21.65 Q16.45 22.95 11.65 23.55 L12.0 17.6 15.85 17.3 19.9 18.65 M8.65 13.7 L8.6 14.25 4.0 14.3 1.55 14.3 -0.85 12.45 -1.05 5.25 -0.1 7.2 Q1.75 10.4 4.4 10.4 5.45 11.75 8.65 13.7 M8.45 17.95 L8.1 23.85 3.15 23.95 -0.4 23.8 -0.65 18.45 6.0 19.15 Q7.9 19.15 8.45 17.95 M-9.75 13.55 L-12.75 13.15 -12.9 9.25 Q-11.65 11.7 -9.75 13.55 M-6.95 2.85 L-4.6 3.05 -4.5 7.1 -6.95 2.85 M-4.65 -4.45 L-4.6 -0.45 -9.3 -0.9 -7.95 -1.1 -7.35 -1.55 -7.95 -2.0 -9.4 -2.2 -10.85 -2.0 -11.45 -1.55 -10.85 -1.1 -10.75 -1.05 -12.75 -1.35 -12.3 -6.95 -11.45 -6.85 Q-7.05 -5.95 -4.65 -4.45 M-15.75 -7.4 L-16.15 -3.05 -18.5 -3.05 -18.5 -2.4 -21.3 -3.1 -21.15 -3.65 Q-19.8 -7.85 -19.45 -7.85 L-15.75 -7.4 M-22.25 0.3 L-16.4 1.6 Q-16.6 7.05 -16.3 12.55 L-19.7 11.85 Q-22.5 6.8 -22.5 1.8 L-22.25 0.3 M-16.75 16.05 L-16.05 16.2 -16.0 16.9 -16.75 16.05 M-12.15 20.05 L-12.5 16.75 -4.2 17.55 -3.95 23.3 Q-8.6 22.35 -12.15 20.05" fill="#b52522" fill-rule="evenodd" stroke="none"/>
    <path d="M7.85 3.25 L8.8 3.25 8.75 8.15 8.25 7.3 7.65 6.0 7.85 3.25 M12.2 11.55 L12.3 6.4 13.35 8.05 Q16.4 12.25 20.6 12.3 L20.55 13.2 17.35 13.6 Q14.45 13.05 12.2 11.55 M12.2 -4.9 L12.1 -7.3 20.3 -8.45 20.6 -5.7 19.65 -5.8 13.2 -5.2 12.2 -4.9 M8.8 -0.95 L8.65 -1.05 Q8.3 -1.3 8.3 -2.25 8.3 -4.45 8.65 -5.45 L8.8 -0.95 M24.2 12.6 L24.15 12.6 Q24.65 6.9 24.55 1.6 L26.05 1.3 26.05 1.95 26.1 2.7 Q25.3 11.4 24.2 12.55 L24.2 12.6 M26.0 -2.3 L24.45 -1.95 23.8 -8.9 25.8 -9.15 26.0 -2.3 M31.75 -0.1 L31.75 -0.05 Q31.7 5.25 31.05 10.95 L31.0 10.95 30.8 9.9 30.35 9.3 29.9 9.9 29.7 11.3 29.7 11.35 28.85 11.55 28.8 1.95 27.95 0.9 Q27.5 1.65 27.1 3.55 L27.05 1.1 29.25 0.55 29.25 0.8 29.95 1.0 Q30.6 0.75 30.65 0.2 L31.75 -0.1 M35.25 1.45 L35.75 -0.1 36.2 -1.55 36.75 -1.75 36.9 0.35 Q36.9 5.3 35.9 9.35 L34.7 9.75 35.25 1.45 M31.05 4.4 L30.9 3.0 30.45 2.4 Q30.2 2.4 30.05 3.0 L29.85 4.4 30.05 5.85 Q30.2 6.4 30.45 6.4 L30.9 5.85 31.05 4.4 M28.85 15.15 L30.6 14.7 29.6 20.65 28.55 21.75 24.9 25.5 24.2 25.65 25.5 21.1 25.75 21.6 Q28.7 20.55 28.85 15.15 M34.2 14.1 L34.25 13.6 34.45 13.55 34.2 14.1 M29.75 16.25 Q29.35 17.0 29.3 18.0 L29.0 20.15 29.65 20.15 29.8 18.3 Q30.0 16.6 29.75 16.25 M19.4 21.65 L18.5 26.6 11.4 27.25 11.65 23.55 Q16.45 22.95 19.4 21.65 M8.1 23.85 L7.85 27.4 4.0 27.45 -0.2 27.4 -0.4 23.8 3.15 23.95 8.1 23.85 M-3.95 23.3 L-3.75 27.2 -10.05 26.65 -11.4 25.9 -12.15 20.05 Q-8.6 22.35 -3.95 23.3 M-0.55 3.25 L-0.4 4.25 Q-0.05 6.0 0.5 6.75 1.0 6.7 1.15 6.05 L1.55 3.3 4.0 3.3 5.2 3.3 4.35 5.7 Q3.75 9.0 6.35 11.15 L4.35 10.35 4.4 10.4 Q1.75 10.4 -0.1 7.2 L-1.05 5.25 -1.05 3.2 -0.55 3.25 M-27.45 -5.0 L-27.4 -5.05 -27.4 -5.0 -27.45 -5.0 M-27.4 -5.2 L-28.3 -5.6 Q-28.9 -5.75 -28.9 -6.35 L-28.6 -11.0 -27.0 -10.75 -27.4 -5.2 M-23.5 -10.3 L-15.55 -9.3 -15.75 -7.4 -19.45 -7.85 Q-19.8 -7.85 -21.15 -3.65 L-21.3 -3.1 -21.55 -3.15 -21.5 -3.2 -23.9 -4.65 -23.5 -10.3 M-29.4 -2.0 L-27.55 -1.3 -27.4 8.4 Q-29.4 3.45 -29.4 -2.0 M-23.3 15.5 L-23.4 14.5 -16.75 16.05 -16.0 16.9 -15.3 23.35 -18.75 20.45 -23.3 15.5 M-12.3 -6.95 L-12.05 -9.0 -11.65 -9.0 -4.6 -8.65 -4.65 -4.45 Q-7.05 -5.95 -11.45 -6.85 L-12.3 -6.95 M-1.1 -0.5 L-1.0 -0.5 -0.95 -0.3 -1.1 -0.3 -1.1 -0.5 M-22.25 0.3 L-22.5 1.8 Q-22.5 6.8 -19.7 11.85 L-23.7 10.75 Q-24.1 5.25 -24.05 -0.2 L-22.25 0.3" fill="#96201d" fill-rule="evenodd" stroke="none"/>
  </g>
</svg>
