<?xml version="1.0" encoding="UTF-8" standalone="no"?>
<svg xmlns:ffdec="https://www.free-decompiler.com/flash" xmlns:xlink="http://www.w3.org/1999/xlink" ffdec:objectType="shape" height="125.95px" width="74.75px" xmlns="http://www.w3.org/2000/svg">
  <g transform="matrix(1.0, 0.0, 0.0, 1.0, 33.8, 135.85)">
    <path d="M-18.9 -21.2 L-18.95 -21.25 Q-20.8 -22.1 -20.8 -25.05 L-19.95 -33.55 Q-19.95 -36.45 -18.35 -40.35 L-16.8 -44.3 Q-16.8 -45.0 -17.9 -48.2 L-19.05 -51.3 Q-19.05 -52.9 -17.1 -58.0 -14.5 -64.95 -13.8 -67.25 L-15.05 -71.45 Q-14.75 -74.3 -12.6 -77.45 L-10.55 -80.3 Q-10.55 -82.7 -11.65 -85.2 L-12.8 -87.25 Q-8.0 -110.2 -7.55 -113.1 -6.35 -120.45 -3.7 -124.35 -1.55 -127.5 0.6 -127.5 2.8 -127.5 5.8 -123.0 8.6 -118.8 8.6 -116.7 8.6 -115.7 8.2 -116.45 L6.5 -119.05 8.7 -113.25 7.9 -113.3 7.8 -112.55 Q7.8 -110.3 9.6 -108.8 L9.0 -106.15 8.95 -106.1 Q8.55 -105.05 6.4 -103.1 3.35 -100.4 -0.15 -99.75 1.05 -99.05 5.0 -98.1 L9.1 -97.2 9.95 -97.25 4.55 -92.45 Q-0.4 -88.25 -1.75 -87.4 L-1.5 -86.9 -0.65 -86.7 1.0 -86.95 Q3.55 -88.9 9.0 -92.1 7.95 -90.7 7.05 -88.85 L6.25 -87.0 Q6.25 -86.2 6.85 -85.65 7.45 -85.1 8.2 -85.1 9.35 -85.1 12.7 -87.85 L13.1 -85.35 12.5 -85.25 Q12.55 -83.55 12.95 -82.6 13.3 -81.85 14.3 -80.9 L14.2 -78.4 13.65 -77.2 6.6 -69.2 10.15 -68.55 14.9 -68.25 Q14.9 -67.7 15.15 -67.3 L15.7 -66.9 16.3 -67.3 16.45 -68.25 20.25 -52.8 Q21.0 -49.7 21.0 -47.4 21.0 -46.2 19.75 -45.35 L13.1 -40.75 16.1 -39.6 18.55 -39.2 19.75 -39.05 Q23.2 -36.65 23.2 -28.8 L22.65 -25.65 21.7 -22.1 20.35 -21.55 18.5 -21.25 15.5 -22.5 Q12.6 -23.75 10.6 -23.75 L9.7 -23.5 Q8.7 -23.15 7.9 -22.6 4.65 -20.45 4.55 -18.9 4.5 -18.2 2.9 -18.2 -0.9 -18.2 -3.1 -20.75 -4.7 -22.6 -4.8 -24.5 L-8.25 -20.95 Q-9.25 -19.85 -10.3 -19.85 -14.15 -19.85 -18.9 -21.2 M5.0 -112.45 Q4.1 -115.25 2.95 -116.35 L-1.0 -110.35 Q-3.45 -106.25 -3.45 -104.15 L-3.4 -103.65 -2.5 -103.55 Q1.5 -103.55 3.8 -104.55 5.9 -105.45 5.9 -106.9 5.9 -109.55 5.0 -112.45 M2.2 -80.45 L3.5 -83.9 4.55 -87.2 Q-1.15 -83.45 -3.5 -79.75 -5.75 -76.25 -5.75 -71.45 L-5.65 -70.7 -3.8 -70.5 Q-1.45 -70.5 1.7 -72.15 6.85 -74.75 10.9 -80.6 L2.2 -80.45 M1.55 -92.05 Q2.5 -93.0 2.5 -94.35 2.5 -95.7 1.55 -96.65 0.55 -97.6 -0.8 -97.6 -2.15 -97.6 -3.1 -96.65 -4.1 -95.7 -4.1 -94.35 -4.1 -93.0 -3.1 -92.05 -2.15 -91.1 -0.8 -91.1 0.55 -91.1 1.55 -92.05 M17.2 -63.75 L16.5 -64.4 Q16.1 -64.4 15.85 -63.75 15.55 -63.1 15.55 -62.15 15.55 -61.2 15.85 -60.55 16.1 -59.9 16.5 -59.9 16.9 -59.9 17.2 -60.55 L17.45 -62.15 17.2 -63.75 M17.4 -57.4 Q17.0 -57.4 16.75 -56.75 16.45 -56.1 16.45 -55.15 16.45 -54.2 16.75 -53.55 17.0 -52.9 17.4 -52.9 17.8 -52.9 18.1 -53.55 L18.35 -55.15 18.1 -56.75 17.4 -57.4 M18.3 -50.4 Q17.9 -50.4 17.65 -49.75 17.35 -49.1 17.35 -48.15 17.35 -47.2 17.65 -46.55 17.9 -45.9 18.3 -45.9 18.7 -45.9 19.0 -46.55 L19.25 -48.15 19.0 -49.75 18.3 -50.4 M13.3 -60.5 Q13.3 -63.25 12.55 -64.15 11.55 -65.35 8.1 -65.35 1.75 -65.35 -3.4 -59.65 -7.65 -54.95 -7.65 -51.85 -7.65 -50.75 -6.65 -48.65 -0.95 -51.35 7.6 -54.4 13.3 -56.9 13.3 -60.5 M15.55 -51.65 Q15.55 -54.95 14.2 -54.95 12.15 -54.95 2.15 -49.3 L-10.1 -42.0 Q-4.55 -39.8 5.7 -44.15 15.55 -48.35 15.55 -51.65 M20.8 -34.15 L20.55 -35.75 19.9 -36.4 Q19.55 -36.4 19.3 -35.75 19.0 -35.1 19.0 -34.15 19.0 -33.2 19.3 -32.55 19.55 -31.9 19.9 -31.9 L20.55 -32.55 20.8 -34.15 M20.6 -29.4 Q20.25 -29.4 20.0 -28.75 19.7 -28.1 19.7 -27.15 19.7 -26.2 20.0 -25.55 20.25 -24.9 20.6 -24.9 L21.25 -25.55 21.5 -27.15 21.25 -28.75 20.6 -29.4 M12.6 -36.05 L11.95 -26.9 Q11.95 -25.1 13.75 -24.3 15.3 -23.6 16.4 -23.95 L16.3 -24.05 Q16.3 -26.2 14.95 -30.2 L12.6 -36.05 M9.85 -39.0 L9.8 -40.2 Q1.5 -39.55 -5.6 -33.2 -12.15 -27.35 -12.15 -22.6 L-12.1 -22.0 1.45 -32.1 Q1.45 -31.2 0.65 -30.0 -0.2 -28.85 -0.2 -24.3 -0.2 -23.8 0.95 -23.3 2.1 -22.8 3.2 -22.8 7.15 -22.8 8.55 -26.55 9.85 -29.95 9.85 -39.0" fill="#a9ceda" fill-rule="evenodd" stroke="none"/>
    <path d="M5.0 -112.45 Q5.9 -109.55 5.9 -106.9 5.9 -105.45 3.8 -104.55 1.5 -103.55 -2.5 -103.55 L-3.4 -103.65 -3.45 -104.15 Q-3.45 -106.25 -1.0 -110.35 L2.95 -116.35 Q4.1 -115.25 5.0 -112.45 M1.55 -92.05 Q0.55 -91.1 -0.8 -91.1 -2.15 -91.1 -3.1 -92.05 -4.1 -93.0 -4.1 -94.35 -4.1 -95.7 -3.1 -96.65 -2.15 -97.6 -0.8 -97.6 0.55 -97.6 1.55 -96.65 2.5 -95.7 2.5 -94.35 2.5 -93.0 1.55 -92.05 M2.2 -80.45 L10.9 -80.6 Q6.85 -74.75 1.7 -72.15 -1.45 -70.5 -3.8 -70.5 L-5.65 -70.7 -5.75 -71.45 Q-5.75 -76.25 -3.5 -79.75 -1.15 -83.45 4.55 -87.2 L3.5 -83.9 2.2 -80.45 M15.55 -51.65 Q15.55 -48.35 5.7 -44.15 -4.55 -39.8 -10.1 -42.0 L2.15 -49.3 Q12.15 -54.95 14.2 -54.95 15.55 -54.95 15.55 -51.65 M13.3 -60.5 Q13.3 -56.9 7.6 -54.4 -0.95 -51.35 -6.65 -48.65 -7.65 -50.75 -7.65 -51.85 -7.65 -54.95 -3.4 -59.65 1.75 -65.35 8.1 -65.35 11.55 -65.35 12.55 -64.15 13.3 -63.25 13.3 -60.5 M9.85 -39.0 Q9.85 -29.95 8.55 -26.55 7.15 -22.8 3.2 -22.8 2.1 -22.8 0.95 -23.3 -0.2 -23.8 -0.2 -24.3 -0.2 -28.85 0.65 -30.0 1.45 -31.2 1.45 -32.1 L-12.1 -22.0 -12.15 -22.6 Q-12.15 -27.35 -5.6 -33.2 1.5 -39.55 9.8 -40.2 L9.85 -39.0 M12.6 -36.05 L14.95 -30.2 Q16.3 -26.2 16.3 -24.05 L16.4 -23.95 Q15.3 -23.6 13.75 -24.3 11.95 -25.1 11.95 -26.9 L12.6 -36.05" fill="#bfdbe3" fill-rule="evenodd" stroke="none"/>
    <path d="M-2.5 -133.95 L-1.05 -134.65 Q0.2 -135.05 0.6 -134.45 L-1.2 -132.7 -1.5 -132.1 -1.45 -132.05 Q6.7 -132.0 13.65 -109.65 20.6 -87.35 20.5 -82.5 20.4 -77.7 17.75 -72.4 L17.75 -71.8 Q17.8 -71.55 18.4 -71.55 L22.7 -72.4 26.9 -56.25 Q27.95 -52.55 27.95 -50.7 L26.45 -45.7 30.15 -37.2 Q33.95 -27.3 34.6 -19.8 L31.75 -18.4 Q29.85 -17.75 26.2 -17.75 L24.4 -18.95 Q23.6 -16.85 22.8 -16.25 21.75 -15.45 19.25 -15.45 15.75 -15.45 14.35 -16.9 12.95 -18.35 12.3 -18.35 10.2 -18.35 7.5 -16.4 4.8 -14.45 3.95 -14.45 2.45 -14.45 -1.75 -15.8 L-5.7 -17.2 -7.7 -16.15 -9.4 -15.1 -18.65 -16.2 -18.35 -18.45 -18.9 -21.2 Q-14.15 -19.85 -10.3 -19.85 -9.25 -19.85 -8.25 -20.95 L-4.8 -24.5 Q-4.7 -22.6 -3.1 -20.75 -0.9 -18.2 2.9 -18.2 4.5 -18.2 4.55 -18.9 4.65 -20.45 7.9 -22.6 8.7 -23.15 9.7 -23.5 L10.6 -23.75 Q12.6 -23.75 15.5 -22.5 L18.5 -21.25 20.35 -21.55 Q20.2 -18.15 20.75 -17.75 L21.85 -17.9 22.0 -18.0 21.7 -22.1 22.65 -25.65 23.2 -28.8 Q23.2 -36.65 19.75 -39.05 20.4 -39.8 20.1 -41.15 19.8 -42.35 18.95 -43.4 L18.45 -43.35 18.25 -42.55 18.55 -39.2 16.1 -39.6 13.1 -40.75 19.75 -45.35 Q21.0 -46.2 21.0 -47.4 21.0 -49.7 20.25 -52.8 L16.45 -68.25 Q16.3 -71.1 15.7 -71.4 15.35 -70.65 14.9 -68.25 L10.15 -68.55 6.6 -69.2 13.65 -77.2 13.65 -76.0 Q13.95 -74.8 15.5 -74.2 L14.95 -76.25 14.2 -78.4 14.3 -80.9 15.55 -83.8 Q15.3 -84.4 13.1 -85.35 L12.7 -87.85 Q9.35 -85.1 8.2 -85.1 7.45 -85.1 6.85 -85.65 6.25 -86.2 6.25 -87.0 L7.05 -88.85 Q7.95 -90.7 9.0 -92.1 3.55 -88.9 1.0 -86.95 L-0.65 -86.7 -1.5 -86.9 -1.75 -87.4 Q-0.4 -88.25 4.55 -92.45 L9.95 -97.25 9.1 -97.2 5.0 -98.1 Q1.05 -99.05 -0.15 -99.75 3.35 -100.4 6.4 -103.1 8.55 -105.05 8.95 -106.1 L9.65 -103.3 Q9.95 -102.55 10.6 -101.9 L11.25 -102.5 11.8 -102.9 12.0 -103.65 Q12.0 -105.0 9.0 -106.15 L9.6 -108.8 9.7 -108.65 Q9.7 -110.35 8.7 -113.25 L6.5 -119.05 8.2 -116.45 Q8.6 -115.7 8.6 -116.7 8.6 -118.8 5.8 -123.0 2.8 -127.5 0.6 -127.5 -1.55 -127.5 -3.7 -124.35 -6.35 -120.45 -7.55 -113.1 -8.0 -110.2 -12.8 -87.25 L-11.65 -85.2 Q-10.55 -82.7 -10.55 -80.3 L-12.6 -77.45 Q-14.75 -74.3 -15.05 -71.45 L-13.8 -67.25 Q-14.5 -64.95 -17.1 -58.0 -19.05 -52.9 -19.05 -51.3 L-17.9 -48.2 Q-16.8 -45.0 -16.8 -44.3 L-18.35 -40.35 Q-19.95 -36.45 -19.95 -33.55 L-20.8 -25.05 Q-20.8 -22.1 -18.95 -21.25 L-19.55 -17.25 Q-29.8 -18.7 -29.3 -26.1 -29.15 -28.5 -27.85 -31.4 L-26.45 -34.4 Q-25.85 -36.2 -23.45 -38.65 -20.95 -41.2 -19.5 -41.3 -19.5 -44.65 -21.9 -45.75 L-24.35 -47.15 Q-24.35 -49.6 -21.85 -55.25 L-18.4 -62.7 -20.35 -63.55 Q-19.55 -65.5 -18.75 -68.85 L-18.1 -71.95 Q-18.1 -72.45 -18.45 -73.8 L-18.85 -75.7 Q-18.85 -77.05 -17.75 -78.4 -16.35 -80.2 -13.65 -80.65 L-16.55 -85.35 Q-16.55 -87.85 -14.6 -92.75 L-12.65 -97.2 -13.05 -98.25 -13.5 -99.35 Q-13.5 -103.55 -10.9 -112.1 -7.9 -122.15 -3.85 -127.85 L-2.7 -131.0 -2.05 -132.5 -1.75 -133.2 -1.7 -133.25 -1.25 -134.15 -1.25 -134.2 -1.2 -134.3 -2.25 -134.05 -2.5 -133.95 M12.0 -88.45 L12.7 -88.3 13.4 -87.95 Q13.45 -90.1 13.1 -90.9 L12.05 -92.4 Q11.7 -92.35 11.55 -91.8 L11.45 -91.25 Q11.5 -89.0 11.95 -88.25 L12.0 -88.45 M10.5 -98.75 Q10.2 -98.1 10.2 -97.15 10.2 -96.2 10.5 -95.55 10.8 -94.9 11.2 -94.9 11.6 -94.9 11.9 -95.55 L12.2 -97.15 11.9 -98.75 11.2 -99.4 Q10.8 -99.4 10.5 -98.75" fill="#8ebece" fill-rule="evenodd" stroke="none"/>
    <path d="M0.6 -134.45 Q4.9 -134.45 7.8 -130.8 10.45 -127.5 12.9 -119.95 16.0 -110.4 24.3 -77.45 38.95 -26.35 38.95 -17.6 38.95 -16.05 38.45 -15.75 37.9 -15.4 33.3 -14.25 L20.6 -12.55 7.15 -11.5 -20.05 -13.7 Q-27.35 -14.85 -30.1 -16.0 -31.95 -16.85 -31.95 -17.9 -25.1 -49.55 -19.0 -78.7 L-15.8 -93.25 Q-14.45 -99.7 -12.8 -109.3 -10.25 -124.2 -7.95 -129.0 -6.25 -132.5 -2.5 -133.95 L-2.25 -134.05 -1.2 -134.3 -1.25 -134.2 -1.25 -134.15 -1.7 -133.25 -1.75 -133.2 -2.05 -132.5 -2.7 -131.0 -3.85 -127.85 Q-7.9 -122.15 -10.9 -112.1 -13.5 -103.55 -13.5 -99.35 L-13.05 -98.25 -12.65 -97.2 -14.6 -92.75 Q-16.55 -87.85 -16.55 -85.35 L-13.65 -80.65 Q-16.35 -80.2 -17.75 -78.4 -18.85 -77.05 -18.85 -75.7 L-18.45 -73.8 Q-18.1 -72.45 -18.1 -71.95 L-18.75 -68.85 Q-19.55 -65.5 -20.35 -63.55 L-18.4 -62.7 -21.85 -55.25 Q-24.35 -49.6 -24.35 -47.15 L-21.9 -45.75 Q-19.5 -44.65 -19.5 -41.3 -20.95 -41.2 -23.45 -38.65 -25.85 -36.2 -26.45 -34.4 L-27.85 -31.4 Q-29.15 -28.5 -29.3 -26.1 -29.8 -18.7 -19.55 -17.25 L-18.95 -21.25 -18.9 -21.2 -18.35 -18.45 -18.65 -16.2 -9.4 -15.1 -7.7 -16.15 -5.7 -17.2 -1.75 -15.8 Q2.45 -14.45 3.95 -14.45 4.8 -14.45 7.5 -16.4 10.2 -18.35 12.3 -18.35 12.95 -18.35 14.35 -16.9 15.75 -15.45 19.25 -15.45 21.75 -15.45 22.8 -16.25 23.6 -16.85 24.4 -18.95 L26.2 -17.75 Q29.85 -17.75 31.75 -18.4 L34.6 -19.8 Q33.95 -27.3 30.15 -37.2 L26.45 -45.7 27.95 -50.7 Q27.95 -52.55 26.9 -56.25 L22.7 -72.4 18.4 -71.55 Q17.8 -71.55 17.75 -71.8 L17.75 -72.4 Q20.4 -77.7 20.5 -82.5 20.6 -87.35 13.65 -109.65 6.7 -132.0 -1.45 -132.05 L-1.5 -132.1 -1.2 -132.7 0.6 -134.45 M9.6 -108.8 Q7.8 -110.3 7.8 -112.55 L7.9 -113.3 8.7 -113.25 Q9.7 -110.35 9.7 -108.65 L9.6 -108.8 M9.0 -106.15 Q12.0 -105.0 12.0 -103.65 L11.8 -102.9 11.25 -102.5 10.6 -101.9 Q9.95 -102.55 9.65 -103.3 L8.95 -106.1 9.0 -106.15 M13.1 -85.35 Q15.3 -84.4 15.55 -83.8 L14.3 -80.9 Q13.3 -81.85 12.95 -82.6 12.55 -83.55 12.5 -85.25 L13.1 -85.35 M14.2 -78.4 L14.95 -76.25 15.5 -74.2 Q13.95 -74.8 13.65 -76.0 L13.65 -77.2 14.2 -78.4 M14.9 -68.25 Q15.35 -70.65 15.7 -71.4 16.3 -71.1 16.45 -68.25 L16.3 -67.3 15.7 -66.9 15.15 -67.3 Q14.9 -67.7 14.9 -68.25 M18.55 -39.2 L18.25 -42.55 18.45 -43.35 18.95 -43.4 Q19.8 -42.35 20.1 -41.15 20.4 -39.8 19.75 -39.05 L18.55 -39.2 M21.7 -22.1 L22.0 -18.0 21.85 -17.9 20.75 -17.75 Q20.2 -18.15 20.35 -21.55 L21.7 -22.1 M10.5 -98.75 Q10.8 -99.4 11.2 -99.4 L11.9 -98.75 12.2 -97.15 11.9 -95.55 Q11.6 -94.9 11.2 -94.9 10.8 -94.9 10.5 -95.55 10.2 -96.2 10.2 -97.15 10.2 -98.1 10.5 -98.75 M12.0 -88.45 L11.95 -88.25 Q11.5 -89.0 11.45 -91.25 L11.55 -91.8 Q11.7 -92.35 12.05 -92.4 L13.1 -90.9 Q13.45 -90.1 13.4 -87.95 L12.7 -88.3 12.0 -88.45 M17.2 -63.75 L17.45 -62.15 17.2 -60.55 Q16.9 -59.9 16.5 -59.9 16.1 -59.9 15.85 -60.55 15.55 -61.2 15.55 -62.15 15.55 -63.1 15.85 -63.75 16.1 -64.4 16.5 -64.4 L17.2 -63.75 M18.3 -50.4 L19.0 -49.75 19.25 -48.15 19.0 -46.55 Q18.7 -45.9 18.3 -45.9 17.9 -45.9 17.65 -46.55 17.35 -47.2 17.35 -48.15 17.35 -49.1 17.65 -49.75 17.9 -50.4 18.3 -50.4 M17.4 -57.4 L18.1 -56.75 18.35 -55.15 18.1 -53.55 Q17.8 -52.9 17.4 -52.9 17.0 -52.9 16.75 -53.55 16.45 -54.2 16.45 -55.15 16.45 -56.1 16.75 -56.75 17.0 -57.4 17.4 -57.4 M20.6 -29.4 L21.25 -28.75 21.5 -27.15 21.25 -25.55 20.6 -24.9 Q20.25 -24.9 20.0 -25.55 19.7 -26.2 19.7 -27.15 19.7 -28.1 20.0 -28.75 20.25 -29.4 20.6 -29.4 M20.8 -34.15 L20.55 -32.55 19.9 -31.9 Q19.55 -31.9 19.3 -32.55 19.0 -33.2 19.0 -34.15 19.0 -35.1 19.3 -35.75 19.55 -36.4 19.9 -36.4 L20.55 -35.75 20.8 -34.15" fill="#73afc4" fill-rule="evenodd" stroke="none"/>
    <path d="M12.75 -124.0 Q14.7 -118.85 17.6 -107.85 20.45 -96.9 21.8 -90.35 31.0 -60.25 37.25 -32.35 39.6 -21.85 40.95 -14.45 L39.55 -14.45 Q29.55 -11.65 25.8 -11.0 L7.35 -9.9 -15.3 -11.25 Q-29.25 -13.0 -32.55 -15.95 L-33.8 -16.85 -32.65 -23.8 -21.2 -76.15 Q-14.8 -105.6 -13.4 -113.3 -11.3 -124.85 -9.8 -128.55 -7.35 -134.55 -2.8 -135.6 L-0.7 -135.85 Q2.1 -135.85 4.25 -134.9 6.25 -134.1 7.7 -132.5 10.8 -129.2 12.75 -124.0 M-2.5 -133.95 Q-6.25 -132.5 -7.95 -129.0 -10.25 -124.2 -12.8 -109.3 -14.45 -99.7 -15.8 -93.25 L-19.0 -78.7 Q-25.1 -49.55 -31.95 -17.9 -31.95 -16.85 -30.1 -16.0 -27.35 -14.85 -20.05 -13.7 L7.15 -11.5 20.6 -12.55 33.3 -14.25 Q37.9 -15.4 38.45 -15.75 38.95 -16.05 38.95 -17.6 38.95 -26.35 24.3 -77.45 16.0 -110.4 12.9 -119.95 10.45 -127.5 7.8 -130.8 4.9 -134.45 0.6 -134.45 0.2 -135.05 -1.05 -134.65 L-2.5 -133.95" fill="#214450" fill-rule="evenodd" stroke="none"/>
  </g>
</svg>
