<?xml version="1.0" encoding="UTF-8" standalone="no"?>
<svg xmlns:ffdec="https://www.free-decompiler.com/flash" xmlns:xlink="http://www.w3.org/1999/xlink" ffdec:objectType="shape" height="50.4px" width="73.75px" xmlns="http://www.w3.org/2000/svg">
  <g transform="matrix(1.0, 0.0, 0.0, 1.0, 35.25, 22.0)">
    <path d="M17.5 -19.9 L10.9 -20.8 1.75 -21.75 Q-1.7 -21.75 -2.65 -21.15 -3.1 -20.9 -4.0 -19.05 L-4.0 -18.55 -3.6 -18.25 -2.75 -18.15 0.6 -18.85 4.4 -19.55 7.6 -19.0 12.85 -18.5 17.65 -18.8 Q17.95 -19.05 17.5 -19.9 M27.9 -21.15 L29.6 -18.7 Q26.05 -17.55 13.8 -15.4 3.15 -13.55 1.4 -12.3 L1.65 -11.7 Q1.95 -11.4 2.6 -11.4 L28.25 -13.45 29.3 -13.7 Q30.05 -13.8 30.05 -13.2 30.05 -14.2 30.25 -13.9 L29.85 -11.65 29.75 -8.95 29.7 -9.35 28.0 -9.55 Q18.2 -9.55 13.25 -0.1 L9.45 8.35 Q7.25 13.25 4.95 16.0 L4.75 16.2 4.8 16.7 5.6 16.9 Q6.65 16.9 7.6 16.0 8.6 15.1 9.45 13.2 11.45 8.1 12.85 5.25 18.4 -5.95 30.8 -4.4 L30.85 -4.1 Q29.75 -0.7 27.8 0.6 26.9 1.2 23.95 1.95 18.3 3.45 15.25 11.5 L13.95 16.0 13.25 18.75 Q12.5 21.8 11.5 22.35 10.1 23.05 7.8 23.6 L1.05 24.35 -2.2 23.6 -7.85 23.4 -5.5 20.5 Q-7.4 18.6 -13.5 17.6 L-12.35 16.25 -12.05 16.0 -7.5 11.25 Q-7.95 10.85 -15.55 7.85 -13.7 6.35 -13.7 6.5 L-13.7 6.4 -13.25 6.5 Q-11.7 6.5 -7.6 2.9 -4.1 -0.2 -0.65 -4.2 L-1.25 -4.25 -15.1 -2.9 -15.2 -3.2 -15.6 -5.3 Q-13.7 -5.4 -10.1 -6.95 -5.6 -8.85 -4.4 -11.15 L-4.4 -11.4 -5.0 -11.5 -9.65 -11.15 -15.2 -10.65 -14.35 -13.3 -6.4 -13.05 Q-3.2 -13.8 -1.0 -16.0 L-1.05 -16.0 -1.75 -16.65 -7.3 -17.1 -10.05 -17.25 -9.8 -17.65 Q-8.95 -18.8 -7.45 -22.0 L16.35 -22.0 Q20.6 -20.3 23.35 -20.3 24.75 -20.3 26.8 -21.15 L27.9 -21.15 M6.65 -0.25 L7.25 0.0 Q13.45 -7.8 18.65 -9.75 21.3 -10.7 23.45 -10.7 L23.55 -10.5 23.6 -11.1 Q23.6 -11.45 23.0 -11.8 22.15 -12.3 20.55 -12.3 13.05 -12.3 6.5 -0.85 6.5 -0.25 6.65 -0.25 M14.55 0.0 L14.85 0.0 14.35 0.5 15.05 -1.0 14.55 0.0 M0.7 8.95 Q-1.75 12.25 -3.05 13.4 L-3.0 13.8 -3.1 14.0 -2.5 14.1 Q1.6 14.1 5.0 6.1 L4.95 5.15 4.7 4.95 Q2.75 6.15 0.7 8.95 M-10.1 11.85 L-10.0 11.75 -10.4 11.6 -10.0 11.75 -10.1 11.85 M-5.0 -2.75 L-5.0 -2.7 -5.0 -2.75" fill="#ffffff" fill-rule="evenodd" stroke="none"/>
    <path d="M30.25 -13.9 Q30.05 -14.2 30.05 -13.2 30.05 -13.8 29.3 -13.7 L28.25 -13.45 2.6 -11.4 Q1.95 -11.4 1.65 -11.7 L1.4 -12.3 Q3.15 -13.55 13.8 -15.4 26.05 -17.55 29.6 -18.7 L27.9 -21.15 33.55 -21.55 33.55 -21.6 33.6 -21.55 34.0 -21.6 33.85 -21.45 Q34.3 -21.35 34.95 -21.75 L36.2 -22.0 37.9 -22.0 38.1 -21.65 34.05 -19.15 Q31.8 -17.9 31.15 -16.1 L31.05 -15.9 30.25 -13.9 M17.5 -19.9 Q17.95 -19.05 17.65 -18.8 L12.85 -18.5 7.6 -19.0 4.4 -19.55 0.6 -18.85 -2.75 -18.15 -3.6 -18.25 -4.0 -18.55 -4.0 -19.05 Q-3.1 -20.9 -2.65 -21.15 -1.7 -21.75 1.75 -21.75 L10.9 -20.8 17.5 -19.9 M26.8 -21.15 Q24.75 -20.3 23.35 -20.3 20.6 -20.3 16.35 -22.0 L28.4 -22.0 27.6 -21.55 26.8 -21.15 M-9.8 -17.65 L-10.05 -17.25 -7.3 -17.1 -1.75 -16.65 -1.05 -16.0 -1.0 -16.0 Q-3.2 -13.8 -6.4 -13.05 L-14.35 -13.3 -14.05 -14.05 -15.95 -13.8 -19.85 -12.75 -23.35 -10.9 Q-22.75 -10.05 -21.5 -10.05 L-16.3 -10.45 -15.3 -10.55 -15.25 -10.55 -15.2 -10.65 -9.65 -11.15 -5.0 -11.5 -4.4 -11.4 -4.4 -11.15 Q-5.6 -8.85 -10.1 -6.95 -13.7 -5.4 -15.6 -5.3 L-15.65 -5.45 -16.6 -5.3 -23.7 -3.9 Q-24.7 -3.35 -26.5 -0.5 L-26.35 0.3 Q-26.85 0.35 -25.85 0.35 L-23.9 0.0 -20.85 -1.05 -20.85 -1.1 -18.95 -1.8 Q-18.4 -2.35 -16.6 -2.7 L-15.2 -3.2 -15.1 -2.9 -1.25 -4.25 -0.65 -4.2 Q-4.1 -0.2 -7.6 2.9 -11.7 6.5 -13.25 6.5 L-13.7 6.4 -13.7 6.5 Q-13.7 6.35 -15.55 7.85 -7.95 10.85 -7.5 11.25 L-12.05 16.0 -12.35 16.25 -13.5 17.6 Q-7.4 18.6 -5.5 20.5 L-7.85 23.4 -2.2 23.6 1.05 24.35 7.8 23.6 Q10.1 23.05 11.5 22.35 12.5 21.8 13.25 18.75 L13.95 16.0 15.25 11.5 Q18.3 3.45 23.95 1.95 26.9 1.2 27.8 0.6 29.75 -0.7 30.85 -4.1 L31.2 -2.65 31.5 -1.2 31.85 1.35 31.95 3.25 30.85 4.75 27.85 5.2 Q25.4 5.8 23.2 7.1 22.15 7.65 21.55 8.7 20.8 9.95 20.3 11.35 19.6 13.35 19.15 15.4 L19.05 16.0 18.75 18.5 18.5 22.35 18.35 24.0 17.95 24.35 12.25 25.65 -1.5 25.75 -10.9 24.6 Q-15.25 23.8 -15.55 23.1 -13.6 22.2 -12.6 21.7 -10.8 20.75 -10.55 20.1 -10.9 19.75 -11.25 19.6 L-13.0 19.6 -18.25 19.75 -19.05 18.6 -19.75 17.1 Q-19.75 16.7 -18.95 16.0 -18.3 15.4 -17.05 14.55 L-14.05 12.6 Q-14.5 12.15 -15.5 12.0 L-22.3 11.9 -24.15 11.15 -23.75 10.65 Q-22.0 8.55 -19.55 8.55 L-18.0 7.95 Q-16.9 7.55 -16.1 6.55 L-15.75 5.95 -17.5 5.85 Q-20.95 5.85 -22.95 6.75 -24.45 7.35 -25.1 8.5 L-27.5 8.5 -25.3 5.95 -23.6 4.1 -20.65 1.1 -20.7 0.45 -21.5 0.25 -22.25 0.5 -24.1 1.1 -25.7 1.55 -29.0 2.1 -29.15 2.1 -29.05 1.6 Q-28.35 -1.0 -25.05 -3.75 -21.15 -6.95 -20.9 -7.6 L-21.7 -8.25 -22.8 -8.5 Q-26.5 -8.5 -28.85 -6.4 -28.7 -9.45 -25.4 -11.65 -21.55 -14.2 -20.9 -15.8 -21.65 -16.85 -23.5 -17.0 L-25.95 -17.3 -27.0 -17.5 -25.15 -18.95 -21.95 -22.0 -16.85 -22.0 -18.45 -21.25 Q-20.9 -20.05 -21.5 -19.25 L-21.2 -18.95 -21.0 -18.75 -14.9 -18.3 -9.8 -17.65 M30.8 -4.4 Q18.4 -5.95 12.85 5.25 11.45 8.1 9.45 13.2 8.6 15.1 7.6 16.0 6.65 16.9 5.6 16.9 L4.8 16.7 4.75 16.2 4.95 16.0 Q7.25 13.25 9.45 8.35 L13.25 -0.1 Q18.2 -9.55 28.0 -9.55 L29.7 -9.35 29.75 -8.95 29.95 -7.9 30.0 -7.65 30.4 -6.0 30.8 -4.4 M14.55 0.0 L15.05 -1.0 14.35 0.5 14.85 0.0 14.55 0.0 M6.65 -0.25 Q6.5 -0.25 6.5 -0.85 13.05 -12.3 20.55 -12.3 22.15 -12.3 23.0 -11.8 23.6 -11.45 23.6 -11.1 L23.55 -10.5 23.45 -10.7 Q21.3 -10.7 18.65 -9.75 13.45 -7.8 7.25 0.0 L6.65 -0.25 M-28.85 14.05 Q-29.85 13.75 -30.25 13.45 L-30.7 12.6 -28.7 14.1 -28.85 14.05 M0.7 8.95 Q2.75 6.15 4.7 4.95 L4.95 5.15 5.0 6.1 Q1.6 14.1 -2.5 14.1 L-3.1 14.0 -3.0 13.8 -3.05 13.4 Q-1.75 12.25 0.7 8.95 M-5.0 -2.75 L-5.0 -2.7 -5.0 -2.75 M-10.1 11.85 L-10.0 11.75 -10.4 11.6 -10.0 11.75 -10.1 11.85 M-14.6 2.8 L-14.6 2.65 -14.65 2.4 -14.95 1.8 -15.35 1.45 -15.5 1.35 Q-16.2 0.95 -17.2 0.95 -18.3 0.95 -19.05 1.45 -19.8 1.95 -19.8 2.65 -19.8 3.35 -19.05 3.85 -18.3 4.35 -17.2 4.35 -16.1 4.35 -15.35 3.85 L-15.05 3.65 -15.0 3.6 -15.0 3.55 -14.7 3.15 -14.6 2.9 -14.6 2.8" fill="#ebe8e0" fill-rule="evenodd" stroke="none"/>
    <path d="M38.1 -21.65 L37.9 -22.0 38.5 -22.0 38.1 -21.65 M34.95 -21.75 Q34.3 -21.35 33.85 -21.45 L34.0 -21.6 33.6 -21.55 33.55 -21.6 33.55 -21.55 27.9 -21.15 26.8 -21.15 27.6 -21.55 28.4 -22.0 35.35 -22.0 34.95 -21.75 M17.95 24.35 Q16.3 25.7 13.9 26.3 L8.5 27.35 6.2 27.65 0.25 28.35 -7.15 28.4 -13.5 28.0 -16.75 27.25 -17.5 26.55 -21.65 21.8 Q-23.7 19.0 -25.2 16.0 L-25.5 15.4 -25.5 15.6 Q-26.4 13.85 -28.9 12.3 L-29.0 12.25 Q-31.0 11.05 -31.0 9.25 L-30.1 8.2 -29.3 7.4 -28.4 6.55 -28.15 6.25 -27.6 5.4 -27.65 4.75 -28.3 5.1 -28.6 5.3 -30.45 6.35 -31.25 7.05 Q-31.65 6.1 -32.5 5.0 L-33.25 3.95 Q-33.25 3.2 -32.3 1.3 L-31.15 -0.5 -29.1 -2.3 -28.75 -2.55 -29.6 -2.8 -31.15 -2.1 -31.2 -2.1 -32.6 -1.3 Q-33.1 -1.95 -33.5 -1.95 L-33.75 -3.05 -33.0 -5.3 -31.7 -8.6 -30.6 -11.0 -30.05 -11.2 -29.45 -11.55 -27.65 -12.55 -26.9 -13.05 -27.05 -13.45 -27.35 -13.6 -28.35 -13.7 -29.4 -13.65 -30.35 -13.5 -31.75 -17.5 -27.65 -22.0 -21.95 -22.0 -25.15 -18.95 -27.0 -17.5 -25.95 -17.3 -23.5 -17.0 Q-21.65 -16.85 -20.9 -15.8 -21.55 -14.2 -25.4 -11.65 -28.7 -9.45 -28.85 -6.4 -26.5 -8.5 -22.8 -8.5 L-21.7 -8.25 -20.9 -7.6 Q-21.15 -6.95 -25.05 -3.75 -28.35 -1.0 -29.05 1.6 L-29.15 2.1 -29.0 2.1 -25.7 1.55 -24.1 1.1 -22.25 0.5 -21.5 0.25 -20.7 0.45 -20.65 1.1 -23.6 4.1 -25.3 5.95 -27.5 8.5 -25.1 8.5 Q-24.45 7.35 -22.95 6.75 -20.95 5.85 -17.5 5.85 L-15.75 5.95 -16.1 6.55 Q-16.9 7.55 -18.0 7.95 L-19.55 8.55 Q-22.0 8.55 -23.75 10.65 L-24.15 11.15 -22.3 11.9 -15.5 12.0 Q-14.5 12.15 -14.05 12.6 L-17.05 14.55 Q-18.3 15.4 -18.95 16.0 -19.75 16.7 -19.75 17.1 L-19.05 18.6 -18.25 19.75 -13.0 19.6 -11.25 19.6 Q-10.9 19.75 -10.55 20.1 -10.8 20.75 -12.6 21.7 -13.6 22.2 -15.55 23.1 -15.25 23.8 -10.9 24.6 L-1.5 25.75 12.25 25.65 17.95 24.35" fill="#cbc8c0" fill-rule="evenodd" stroke="none"/>
    <path d="M36.2 -22.0 L34.95 -21.75 35.35 -22.0 36.2 -22.0 M-16.75 27.25 L-17.95 26.95 -20.9 25.85 Q-24.65 21.6 -27.05 16.8 L-27.15 16.85 -27.85 15.55 -28.85 14.05 -28.7 14.1 -30.7 12.6 Q-32.35 11.1 -32.5 10.45 L-32.5 8.2 Q-32.5 6.7 -33.65 5.3 L-34.75 3.8 -33.4 0.1 -34.35 -0.6 Q-35.25 -1.3 -35.25 -2.8 -35.25 -4.35 -33.45 -8.4 L-31.6 -12.25 -33.5 -17.65 Q-33.5 -18.5 -31.15 -21.05 L-30.25 -22.0 -27.65 -22.0 -31.75 -17.5 -30.35 -13.5 -29.4 -13.65 -28.35 -13.7 -27.35 -13.6 -27.05 -13.45 -26.9 -13.05 -27.65 -12.55 -29.45 -11.55 -30.05 -11.2 -30.6 -11.0 -31.7 -8.6 -33.0 -5.3 -33.75 -3.05 -33.5 -1.95 Q-33.1 -1.95 -32.6 -1.3 L-31.2 -2.1 -31.15 -2.1 -29.6 -2.8 -28.75 -2.55 -29.1 -2.3 -31.15 -0.5 -32.3 1.3 Q-33.25 3.2 -33.25 3.95 L-32.5 5.0 Q-31.65 6.1 -31.25 7.05 L-30.45 6.35 -28.6 5.3 -28.3 5.1 -27.65 4.75 -27.6 5.4 -28.15 6.25 -28.4 6.55 -29.3 7.4 -30.1 8.2 -31.0 9.25 Q-31.0 11.05 -29.0 12.25 L-28.9 12.3 Q-26.4 13.85 -25.5 15.6 L-25.5 15.4 -25.2 16.0 Q-23.7 19.0 -21.65 21.8 L-17.5 26.55 -16.75 27.25" fill="#97877d" fill-rule="evenodd" stroke="none"/>
    <path d="M-7.45 -22.0 Q-8.95 -18.8 -9.8 -17.65 L-14.9 -18.3 -21.0 -18.75 -21.2 -18.95 -21.5 -19.25 Q-20.9 -20.05 -18.45 -21.25 L-16.85 -22.0 -7.45 -22.0 M-14.35 -13.3 L-15.2 -10.65 -15.25 -10.55 -15.3 -10.55 -16.3 -10.45 -21.5 -10.05 Q-22.75 -10.05 -23.35 -10.9 L-19.85 -12.75 -15.95 -13.8 -14.05 -14.05 -14.35 -13.3 M-15.6 -5.3 L-15.2 -3.2 -16.6 -2.7 Q-18.4 -2.35 -18.95 -1.8 L-20.85 -1.1 -20.85 -1.05 -23.9 0.0 -25.85 0.35 Q-26.85 0.35 -26.35 0.3 L-26.5 -0.5 Q-24.7 -3.35 -23.7 -3.9 L-16.6 -5.3 -15.65 -5.45 -15.6 -5.3 M-14.6 2.8 L-14.6 2.9 -14.7 3.15 -15.0 3.55 -15.0 3.6 -15.05 3.65 -15.35 3.85 Q-16.1 4.35 -17.2 4.35 -18.3 4.35 -19.05 3.85 -19.8 3.35 -19.8 2.65 -19.8 1.95 -19.05 1.45 -18.3 0.95 -17.2 0.95 -16.2 0.95 -15.5 1.35 L-15.35 1.45 -14.95 1.8 -14.65 2.4 -14.6 2.65 -14.6 2.8" fill="#fdfdfd" fill-rule="evenodd" stroke="none"/>
  </g>
</svg>
