<?xml version="1.0" encoding="UTF-8" standalone="no"?>
<svg xmlns:ffdec="https://www.free-decompiler.com/flash" xmlns:xlink="http://www.w3.org/1999/xlink" ffdec:objectType="shape" height="58.7px" width="56.45px" xmlns="http://www.w3.org/2000/svg">
  <g transform="matrix(1.0, 0.0, 0.0, 1.0, -11.55, 68.8)">
    <path d="M55.95 -62.6 L58.95 -59.6 59.7 -58.7 Q61.65 -56.35 63.1 -53.7 L63.55 -53.1 64.6 -50.85 66.15 -46.55 Q67.9 -41.3 68.0 -36.45 68.05 -30.65 66.0 -25.55 61.8 -14.85 49.55 -11.35 L46.6 -10.6 44.7 -10.25 44.65 -10.35 Q32.45 -8.75 23.0 -17.45 16.5 -23.35 13.95 -30.3 8.4 -45.2 15.75 -55.8 21.7 -64.45 33.75 -67.9 37.45 -68.95 41.05 -68.8 L41.1 -68.8 44.35 -68.4 45.3 -68.2 Q47.4 -67.7 49.4 -66.75 L52.15 -65.25 54.05 -64.05 55.95 -62.6 M42.9 -66.9 L39.7 -67.05 Q36.25 -67.05 32.55 -66.0 27.3 -64.5 24.85 -62.45 22.95 -60.9 18.1 -55.6 13.55 -50.9 13.2 -45.4 13.0 -43.65 13.35 -42.05 13.55 -40.9 13.8 -46.3 14.25 -41.05 13.8 -41.4 13.85 -34.85 15.4 -30.7 19.25 -20.4 26.9 -15.5 34.0 -10.9 43.4 -11.95 L45.15 -12.2 49.85 -13.25 Q62.15 -16.7 65.15 -30.3 65.9 -33.6 65.9 -37.15 L65.85 -40.4 Q65.65 -44.7 64.75 -47.1 L63.45 -50.15 Q61.55 -54.35 59.2 -57.45 L57.95 -58.95 55.35 -61.55 Q53.5 -63.1 51.4 -64.2 L50.1 -64.85 48.55 -65.55 Q46.5 -66.35 44.3 -66.65 L42.9 -66.9 M34.85 -30.6 Q35.35 -28.7 34.95 -28.4 L34.55 -28.45 Q34.45 -28.45 34.35 -28.55 L34.0 -28.75 33.6 -29.55 Q33.2 -30.45 33.15 -30.95 L33.1 -30.05 33.1 -26.8 Q33.15 -24.2 32.8 -22.15 L32.6 -22.3 31.75 -23.45 30.95 -25.1 30.75 -27.65 30.6 -31.15 Q28.1 -29.85 24.6 -30.45 22.15 -30.95 20.8 -31.8 L21.2 -32.2 25.5 -32.15 27.25 -33.05 29.8 -34.5 Q27.65 -35.05 27.45 -35.65 L28.1 -36.05 29.1 -36.1 Q26.95 -37.15 24.5 -43.9 23.95 -45.45 23.6 -47.5 23.25 -50.0 23.4 -51.6 L23.5 -51.5 26.75 -45.35 Q29.25 -40.3 30.5 -38.65 L30.75 -38.5 Q31.5 -37.6 32.8 -34.1 L32.8 -34.05 Q33.9 -31.5 34.8 -30.9 L34.85 -30.6 M13.85 -47.4 L13.75 -47.25 13.8 -47.5 13.85 -47.4" fill="#97877d" fill-rule="evenodd" stroke="none"/>
    <path d="M30.5 -38.65 Q28.4 -44.15 26.55 -50.75 25.6 -53.1 25.55 -54.05 L25.45 -58.95 Q25.4 -61.3 29.4 -62.45 L34.9 -63.6 37.75 -64.05 40.15 -64.45 40.3 -64.5 39.25 -62.55 39.3 -62.45 Q40.45 -61.45 41.9 -61.5 L43.65 -61.9 Q45.6 -62.7 46.75 -62.55 L47.85 -62.25 49.8 -61.1 52.65 -58.9 53.5 -58.3 54.7 -57.25 54.8 -56.2 54.2 -54.55 Q53.6 -52.55 53.75 -51.95 L57.3 -53.1 57.35 -53.15 60.45 -49.0 60.7 -47.85 Q60.9 -46.25 60.05 -44.3 59.45 -43.0 58.65 -42.1 L61.35 -42.25 62.85 -42.7 Q63.3 -40.15 63.2 -37.7 63.25 -32.1 60.35 -26.65 57.0 -20.05 53.3 -19.0 50.35 -18.2 48.95 -18.55 46.7 -19.15 43.15 -22.75 41.15 -24.75 38.65 -26.3 37.4 -27.15 35.45 -29.65 L34.85 -30.6 34.8 -30.9 34.4 -33.9 Q36.6 -31.45 39.75 -30.4 L46.05 -30.25 Q46.9 -30.45 47.9 -31.05 L48.7 -31.7 41.55 -32.75 Q37.6 -33.65 35.15 -36.3 35.55 -37.2 38.75 -39.4 L40.8 -40.85 44.4 -43.65 42.8 -43.85 41.0 -43.55 40.45 -43.4 Q37.6 -42.55 36.7 -41.95 L34.25 -40.35 34.4 -41.6 34.25 -41.8 33.2 -40.85 32.55 -40.2 32.0 -39.65 30.75 -38.5 30.5 -38.65 M43.85 -60.6 L41.35 -60.0 36.9 -58.4 36.9 -58.45 36.4 -61.55 36.0 -62.4 35.55 -62.4 Q31.2 -59.45 29.95 -56.45 27.8 -51.55 30.8 -43.45 L31.05 -43.0 Q30.75 -42.9 31.1 -42.9 L31.5 -43.05 31.9 -43.4 33.2 -44.55 39.05 -50.45 39.5 -50.8 45.75 -57.4 47.5 -59.8 Q47.05 -60.45 46.15 -60.65 L43.85 -60.6 M45.65 -55.5 Q42.05 -53.6 39.6 -50.5 L39.45 -50.25 Q35.95 -45.9 36.95 -43.25 37.15 -42.65 37.6 -42.7 L37.9 -42.95 40.3 -44.4 Q51.05 -51.45 51.75 -52.5 L51.85 -53.2 51.55 -54.2 Q50.6 -55.8 50.55 -57.35 L47.7 -56.4 45.65 -55.5 M20.15 -55.25 L20.7 -56.0 Q20.35 -54.1 21.15 -43.6 L19.1 -47.75 Q17.7 -51.6 18.3 -52.85 L20.15 -55.25 M27.75 -27.5 L28.5 -27.35 28.85 -26.6 29.3 -20.65 Q30.05 -18.7 31.6 -17.2 31.95 -16.3 31.35 -16.5 29.95 -16.5 28.45 -17.7 27.1 -18.65 26.8 -19.6 25.9 -21.95 26.2 -24.5 26.5 -27.15 27.75 -27.5 M22.65 -27.45 L24.0 -27.4 Q24.7 -27.15 24.9 -26.55 25.15 -26.0 24.75 -25.5 24.4 -24.95 23.7 -24.7 L22.3 -24.8 Q21.65 -25.05 21.45 -25.6 21.25 -26.15 21.6 -26.7 21.95 -27.25 22.65 -27.45 M26.6 -35.95 L26.65 -35.15 26.2 -34.85 Q21.6 -35.65 19.6 -37.2 17.9 -38.6 16.8 -41.7 16.5 -42.55 16.85 -42.85 L17.6 -44.0 Q19.35 -40.7 23.1 -38.25 26.45 -36.4 26.6 -35.95 M39.95 -36.5 Q41.9 -35.2 49.6 -34.8 L58.55 -35.05 Q62.2 -36.05 61.65 -37.4 61.55 -37.75 60.4 -38.0 L59.9 -38.15 Q56.75 -38.85 54.95 -39.5 57.1 -41.25 58.2 -44.25 58.95 -46.2 58.95 -47.35 L58.85 -48.3 Q58.65 -48.7 57.45 -48.8 L55.8 -48.8 55.2 -48.7 Q54.4 -48.4 52.5 -46.55 L52.15 -46.25 48.9 -43.05 44.65 -40.05 Q42.65 -38.5 41.5 -37.7 L41.1 -37.4 40.05 -36.55 39.95 -36.5 M36.6 -25.75 L37.0 -25.6 Q38.65 -24.85 40.9 -22.1 44.25 -17.8 45.6 -16.65 45.1 -15.55 42.95 -14.9 L42.8 -14.8 41.5 -14.55 Q38.2 -13.9 37.5 -15.8 36.55 -21.05 36.4 -23.55 36.25 -25.45 36.6 -25.75 M40.95 -27.7 Q41.15 -26.1 45.95 -23.7 51.15 -21.1 54.35 -22.05 55.25 -22.3 55.5 -23.0 L55.6 -23.8 Q54.7 -26.25 48.5 -27.4 L40.95 -27.7 M55.9 -27.95 Q59.3 -28.9 58.5 -30.95 58.15 -31.85 55.1 -32.35 L51.55 -32.45 Q50.6 -32.2 50.35 -31.95 50.4 -30.5 52.0 -28.95 53.8 -27.35 55.9 -27.95" fill="#ebe8e0" fill-rule="evenodd" stroke="none"/>
    <path d="M42.9 -66.9 L44.3 -66.65 Q46.5 -66.35 48.55 -65.55 L50.1 -64.85 51.4 -64.2 Q53.5 -63.1 55.35 -61.55 L57.95 -58.95 59.2 -57.45 Q61.55 -54.35 63.45 -50.15 L64.75 -47.1 Q65.65 -44.7 65.85 -40.4 L65.9 -37.15 Q65.9 -33.6 65.15 -30.3 62.15 -16.7 49.85 -13.25 L45.15 -12.2 43.4 -11.95 Q34.0 -10.9 26.9 -15.5 19.25 -20.4 15.4 -30.7 13.85 -34.85 13.8 -41.4 14.25 -41.05 13.8 -46.3 13.55 -40.9 13.35 -42.05 13.0 -43.65 13.2 -45.4 13.55 -50.9 18.1 -55.6 22.95 -60.9 24.85 -62.45 27.3 -64.5 32.55 -66.0 36.25 -67.05 39.7 -67.05 L42.9 -66.9 M34.85 -30.6 L35.45 -29.65 Q37.4 -27.15 38.65 -26.3 41.15 -24.75 43.15 -22.75 46.7 -19.15 48.95 -18.55 50.35 -18.2 53.3 -19.0 57.0 -20.05 60.35 -26.65 63.25 -32.1 63.2 -37.7 63.3 -40.15 62.85 -42.7 L61.35 -42.25 58.65 -42.1 Q59.45 -43.0 60.05 -44.3 60.9 -46.25 60.7 -47.85 L60.45 -49.0 57.35 -53.15 57.3 -53.1 53.75 -51.95 Q53.6 -52.55 54.2 -54.55 L54.8 -56.2 54.7 -57.25 53.5 -58.3 52.65 -58.9 49.8 -61.1 47.85 -62.25 46.75 -62.55 Q45.6 -62.7 43.65 -61.9 L41.9 -61.5 Q40.45 -61.45 39.3 -62.45 L39.25 -62.55 40.3 -64.5 40.15 -64.45 37.75 -64.05 34.9 -63.6 29.4 -62.45 Q25.4 -61.3 25.45 -58.95 L25.55 -54.05 Q25.6 -53.1 26.55 -50.75 28.4 -44.15 30.5 -38.65 29.25 -40.3 26.75 -45.35 L23.5 -51.5 23.4 -51.6 Q23.25 -50.0 23.6 -47.5 23.95 -45.45 24.5 -43.9 26.95 -37.15 29.1 -36.1 L28.1 -36.05 27.45 -35.65 Q27.65 -35.05 29.8 -34.5 L27.25 -33.05 25.5 -32.15 21.2 -32.2 20.8 -31.8 Q22.15 -30.95 24.6 -30.45 28.1 -29.85 30.6 -31.15 L30.75 -27.65 30.95 -25.1 31.75 -23.45 32.6 -22.3 32.8 -22.15 Q33.15 -24.2 33.1 -26.8 L33.1 -30.05 33.15 -30.95 Q33.2 -30.45 33.6 -29.55 L34.0 -28.75 34.35 -28.55 Q34.45 -28.45 34.55 -28.45 L34.95 -28.4 Q35.35 -28.7 34.85 -30.6 M30.75 -38.5 L32.0 -39.65 32.55 -40.2 33.2 -40.85 34.25 -41.8 34.4 -41.6 34.25 -40.35 36.7 -41.95 Q37.6 -42.55 40.45 -43.4 L41.0 -43.55 42.8 -43.85 44.4 -43.65 40.8 -40.85 38.75 -39.4 Q35.55 -37.2 35.15 -36.3 37.6 -33.65 41.55 -32.75 L48.7 -31.7 47.9 -31.05 Q46.9 -30.45 46.05 -30.25 L39.75 -30.4 Q36.6 -31.45 34.4 -33.9 L34.8 -30.9 Q33.9 -31.5 32.8 -34.05 L32.8 -34.1 Q31.5 -37.6 30.75 -38.5 M20.15 -55.25 L18.3 -52.85 Q17.7 -51.6 19.1 -47.75 L21.15 -43.6 Q20.35 -54.1 20.7 -56.0 L20.15 -55.25 M26.6 -35.95 Q26.45 -36.4 23.1 -38.25 19.35 -40.7 17.6 -44.0 L16.85 -42.85 Q16.5 -42.55 16.8 -41.7 17.9 -38.6 19.6 -37.2 21.6 -35.65 26.2 -34.85 L26.65 -35.15 26.6 -35.95 M22.65 -27.45 Q21.95 -27.25 21.6 -26.7 21.25 -26.15 21.45 -25.6 21.65 -25.05 22.3 -24.8 L23.7 -24.7 Q24.4 -24.95 24.75 -25.5 25.15 -26.0 24.9 -26.55 24.7 -27.15 24.0 -27.4 L22.65 -27.45 M27.75 -27.5 Q26.5 -27.15 26.2 -24.5 25.9 -21.95 26.8 -19.6 27.1 -18.65 28.45 -17.7 29.95 -16.5 31.35 -16.5 31.95 -16.3 31.6 -17.2 30.05 -18.7 29.3 -20.65 L28.85 -26.6 28.5 -27.35 27.75 -27.5 M36.6 -25.75 Q36.25 -25.45 36.4 -23.55 36.55 -21.05 37.5 -15.8 38.2 -13.9 41.5 -14.55 L42.8 -14.8 42.95 -14.9 Q45.1 -15.55 45.6 -16.65 44.25 -17.8 40.9 -22.1 38.65 -24.85 37.0 -25.6 L36.6 -25.75 M13.85 -47.4 L13.8 -47.5 13.75 -47.25 13.85 -47.4 13.75 -46.9 13.8 -46.7 13.85 -47.4" fill="#cbc8c0" fill-rule="evenodd" stroke="none"/>
    <path d="M45.65 -55.5 L47.7 -56.4 50.55 -57.35 Q50.6 -55.8 51.55 -54.2 L51.85 -53.2 51.75 -52.5 Q51.05 -51.45 40.3 -44.4 L37.9 -42.95 37.6 -42.7 Q37.15 -42.65 36.95 -43.25 35.95 -45.9 39.45 -50.25 L39.6 -50.5 Q42.05 -53.6 45.65 -55.5 M43.85 -60.6 L46.15 -60.65 Q47.05 -60.45 47.5 -59.8 L45.75 -57.4 39.5 -50.8 39.05 -50.45 33.2 -44.55 31.9 -43.4 31.5 -43.05 31.1 -42.9 Q30.75 -42.9 31.05 -43.0 L30.8 -43.45 Q27.8 -51.55 29.95 -56.45 31.2 -59.45 35.55 -62.4 L36.0 -62.4 36.4 -61.55 36.9 -58.45 36.9 -58.4 41.35 -60.0 43.85 -60.6 M39.95 -36.5 L40.05 -36.55 41.1 -37.4 41.5 -37.7 Q42.65 -38.5 44.65 -40.05 L48.9 -43.05 52.15 -46.25 52.5 -46.55 Q54.4 -48.4 55.2 -48.7 L55.8 -48.8 57.45 -48.8 Q58.65 -48.7 58.85 -48.3 L58.95 -47.35 Q58.95 -46.2 58.2 -44.25 57.1 -41.25 54.95 -39.5 56.75 -38.85 59.9 -38.15 L60.4 -38.0 Q61.55 -37.75 61.65 -37.4 62.2 -36.05 58.55 -35.05 L49.6 -34.8 Q41.9 -35.2 39.95 -36.5 M55.9 -27.95 Q53.8 -27.35 52.0 -28.95 50.4 -30.5 50.35 -31.95 50.6 -32.2 51.55 -32.45 L55.1 -32.35 Q58.15 -31.85 58.5 -30.95 59.3 -28.9 55.9 -27.95 M40.95 -27.7 L48.5 -27.4 Q54.7 -26.25 55.6 -23.8 L55.5 -23.0 Q55.25 -22.3 54.35 -22.05 51.15 -21.1 45.95 -23.7 41.15 -26.1 40.95 -27.7" fill="#ffffff" fill-rule="evenodd" stroke="none"/>
  </g>
</svg>
