<?xml version="1.0" encoding="UTF-8" standalone="no"?>
<svg xmlns:ffdec="https://www.free-decompiler.com/flash" xmlns:xlink="http://www.w3.org/1999/xlink" ffdec:objectType="shape" height="20.5px" width="20.5px" xmlns="http://www.w3.org/2000/svg">
  <g transform="matrix(1.0, 0.0, 0.0, 1.0, -18.6, 29.15)">
    <path d="M21.6 -26.15 Q24.6 -29.15 28.85 -29.15 33.1 -29.15 36.1 -26.15 39.1 -23.15 39.1 -18.9 39.1 -14.65 36.1 -11.65 33.1 -8.65 28.85 -8.65 24.6 -8.65 21.6 -11.65 18.6 -14.65 18.6 -18.9 18.6 -23.15 21.6 -26.15 M28.85 -27.65 Q25.2 -27.65 22.65 -25.1 20.1 -22.55 20.1 -18.9 20.1 -15.25 22.65 -12.7 25.2 -10.15 28.85 -10.15 32.5 -10.15 35.05 -12.7 37.6 -15.25 37.6 -18.9 37.6 -22.55 35.05 -25.1 32.5 -27.65 28.85 -27.65" fill="#5a0707" fill-rule="evenodd" stroke="none"/>
    <path d="M28.85 -27.65 Q32.5 -27.65 35.05 -25.1 37.6 -22.55 37.6 -18.9 37.6 -15.25 35.05 -12.7 32.5 -10.15 28.85 -10.15 25.2 -10.15 22.65 -12.7 20.1 -15.25 20.1 -18.9 20.1 -22.55 22.65 -25.1 25.2 -27.65 28.85 -27.65 M26.25 -26.55 Q24.55 -26.1 23.25 -25.05 21.0 -23.2 21.0 -20.6 21.0 -17.95 23.25 -16.15 25.5 -14.3 28.75 -14.3 31.95 -14.3 34.25 -16.15 36.5 -17.95 36.5 -20.6 36.5 -23.2 34.25 -25.05 32.4 -26.5 30.05 -26.75 L28.75 -26.85 28.65 -26.85 26.6 -26.6 26.25 -26.55" fill="#940c0c" fill-rule="evenodd" stroke="none"/>
    <path d="M30.05 -26.75 Q32.4 -26.5 34.25 -25.05 36.5 -23.2 36.5 -20.6 36.5 -17.95 34.25 -16.15 31.95 -14.3 28.75 -14.3 25.5 -14.3 23.25 -16.15 21.0 -17.95 21.0 -20.6 21.0 -23.2 23.25 -25.05 24.55 -26.1 26.25 -26.55 25.05 -26.2 24.05 -25.5 22.15 -24.15 22.15 -22.2 22.15 -20.3 24.05 -18.95 25.95 -17.6 28.65 -17.6 31.35 -17.6 33.25 -18.95 35.15 -20.3 35.15 -22.2 35.15 -24.15 33.25 -25.5 31.85 -26.5 30.05 -26.75" fill="#ce1111" fill-rule="evenodd" stroke="none"/>
    <path d="M30.05 -26.75 Q31.85 -26.5 33.25 -25.5 35.15 -24.15 35.15 -22.2 35.15 -20.3 33.25 -18.95 31.35 -17.6 28.65 -17.6 25.95 -17.6 24.05 -18.95 22.15 -20.3 22.15 -22.2 22.15 -24.15 24.05 -25.5 25.05 -26.2 26.25 -26.55 L26.6 -26.6 28.65 -26.85 28.75 -26.85 30.05 -26.75" fill="#f04a4a" fill-rule="evenodd" stroke="none"/>
  </g>
</svg>
