<?xml version="1.0" encoding="UTF-8" standalone="no"?>
<svg xmlns:ffdec="https://www.free-decompiler.com/flash" xmlns:xlink="http://www.w3.org/1999/xlink" ffdec:objectType="shape" height="120.3px" width="108.9px" xmlns="http://www.w3.org/2000/svg">
  <g transform="matrix(1.0, 0.0, 0.0, 1.0, 26.3, 16.1)">
    <path d="M20.85 32.75 Q15.75 22.45 7.35 17.0 -0.4 12.0 -9.45 12.0 -16.05 12.0 -18.5 16.55 L-17.05 12.1 -15.0 6.3 -12.05 5.0 -9.9 4.2 Q-8.15 4.2 -4.1 5.8 0.85 7.75 5.35 10.8 18.35 19.6 20.85 32.75" fill="#f1ba87" fill-rule="evenodd" stroke="none"/>
    <path d="M66.6 92.35 Q63.85 89.55 62.15 81.95 60.7 75.35 60.7 68.85 L60.85 43.05 Q60.95 28.1 60.65 21.45 59.85 2.25 46.85 -5.3 L40.05 -9.05 Q36.3 -10.7 32.15 -10.7 28.35 -10.7 25.65 -9.85 20.45 -8.2 17.35 -7.55 14.2 -6.9 7.7 -2.65 L-0.6 2.4 0.9 1.5 Q6.05 -1.65 8.9 -4.15 11.4 -6.35 11.4 -7.4 L11.2 -8.55 Q10.85 -9.15 9.65 -9.2 L16.55 -9.1 Q18.75 -9.15 19.8 -9.85 19.45 -10.3 15.9 -11.5 L17.85 -11.5 27.45 -12.0 Q32.05 -12.45 33.05 -12.9 L32.8 -12.95 Q28.0 -14.15 24.85 -14.15 17.35 -14.15 8.8 -12.2 0.3 -10.25 -7.55 -6.75 L-6.8 -6.35 -4.5 -3.35 -2.5 -0.4 -7.4 -3.7 Q-10.7 -5.6 -12.7 -5.6 -16.65 -5.6 -20.55 -3.15 -25.15 -0.25 -25.15 3.85 -25.15 5.3 -23.5 9.1 L-21.35 13.35 -17.3 5.45 Q-14.55 1.75 -9.5 1.75 -8.5 1.75 -6.8 3.3 -5.05 4.8 -3.65 4.8 1.1 4.8 4.45 1.05 7.8 -2.7 13.25 -2.7 L16.75 -2.3 Q24.55 -2.3 30.1 3.3 35.6 8.85 35.6 16.7 L38.9 31.65 Q41.45 43.5 42.4 45.0 L46.95 47.6 Q49.25 48.6 54.2 49.0 L57.0 49.1 54.45 51.7 50.5 58.8 Q49.4 60.85 49.4 61.65 49.4 82.45 59.4 92.0 65.85 98.2 75.35 98.9 L74.6 98.45 66.95 92.65 66.6 92.35 M-15.0 6.3 Q-18.95 10.3 -20.45 19.45 L-24.75 11.0 Q-26.3 7.3 -26.3 4.3 -26.3 1.5 -24.55 -1.55 -23.0 -4.3 -22.0 -4.3 -20.75 -4.95 -19.4 -5.7 -16.6 -7.15 -15.15 -7.4 L-10.65 -7.55 Q-5.2 -10.1 -1.95 -11.25 2.1 -12.75 9.55 -14.25 18.55 -16.1 24.5 -16.1 39.85 -16.1 50.7 -4.65 63.25 8.6 63.25 32.15 L62.6 48.6 Q61.9 60.7 61.9 62.9 61.9 69.7 63.3 77.35 64.5 84.05 65.6 86.0 68.8 91.5 72.85 94.8 76.85 98.15 82.6 100.0 L82.4 100.8 76.75 100.95 Q65.85 100.95 59.55 94.9 51.3 87.0 47.85 67.3 L46.8 76.55 Q46.8 82.85 49.8 90.3 53.45 99.45 59.35 102.6 59.2 104.2 58.2 104.2 L57.7 104.15 57.85 104.1 Q45.2 94.8 40.5 85.45 36.6 77.65 36.35 65.0 36.25 60.25 34.65 59.25 31.0 57.1 29.15 54.6 26.4 50.9 25.3 47.8 L20.85 32.75 Q18.35 19.6 5.35 10.8 0.85 7.75 -4.1 5.8 -8.15 4.2 -9.9 4.2 L-12.05 5.0 -15.0 6.3 M54.95 50.25 Q49.3 49.55 46.8 48.7 43.55 47.65 41.8 45.35 38.8 41.5 36.7 25.85 34.8 11.9 30.3 6.1 25.1 -0.55 13.9 -0.55 12.8 -0.55 10.35 0.8 L1.2 6.1 1.1 6.7 Q12.25 11.7 18.1 21.1 22.05 27.4 24.65 38.25 27.4 49.85 28.8 52.5 31.9 58.5 38.75 58.5 42.65 58.5 47.1 55.8 L54.95 50.25 M46.3 90.3 L49.9 95.0 Q48.25 92.05 46.6 85.5 44.9 79.0 44.9 75.55 44.9 72.35 46.7 65.5 48.05 60.35 49.6 56.0 46.4 59.2 40.7 60.55 38.05 67.5 41.25 78.05 44.1 87.65 46.3 90.3" fill="#c28127" fill-rule="evenodd" stroke="none"/>
    <path d="M-2.5 -0.4 L-4.5 -3.35 -6.8 -6.35 -7.55 -6.75 Q0.3 -10.25 8.8 -12.2 17.35 -14.15 24.85 -14.15 28.0 -14.15 32.8 -12.95 L33.05 -12.9 Q32.05 -12.45 27.45 -12.0 L17.85 -11.5 15.9 -11.5 Q19.45 -10.3 19.8 -9.85 18.75 -9.15 16.55 -9.1 L9.65 -9.2 Q10.85 -9.15 11.2 -8.55 L11.4 -7.4 Q11.4 -6.35 8.9 -4.15 6.05 -1.65 0.9 1.5 L-0.6 2.4 7.7 -2.65 Q14.2 -6.9 17.35 -7.55 20.45 -8.2 25.65 -9.85 28.35 -10.7 32.15 -10.7 36.3 -10.7 40.05 -9.05 L46.85 -5.3 Q59.85 2.25 60.65 21.45 60.95 28.1 60.85 43.05 L60.7 68.85 Q60.7 75.35 62.15 81.95 63.85 89.55 66.6 92.35 L66.1 91.85 Q62.8 88.55 60.9 84.15 57.8 77.05 54.45 51.7 L57.0 49.1 54.2 49.0 Q53.75 39.7 48.25 25.25 43.55 12.85 39.55 7.05 46.55 14.6 52.25 23.7 55.5 28.85 56.7 32.1 52.6 10.15 45.4 1.0 40.05 -5.85 32.35 -5.85 L27.9 -5.4 16.75 -2.3 13.25 -2.7 Q7.8 -2.7 4.45 1.05 1.1 4.8 -3.65 4.8 -5.05 4.8 -6.8 3.3 -8.5 1.75 -9.5 1.75 -14.55 1.75 -17.3 5.45 L-21.35 13.35 -21.4 11.35 Q-21.4 5.65 -19.2 3.3 -16.65 0.6 -9.7 0.6 L-7.1 1.15 Q-4.6 1.7 -3.7 2.1 L-2.5 -0.4 M42.4 45.0 Q41.45 43.5 38.9 31.65 L35.6 16.7 Q37.35 18.95 39.65 27.0 42.45 36.8 42.4 45.0 M1.2 6.1 L10.35 0.8 Q12.8 -0.55 13.9 -0.55 25.1 -0.55 30.3 6.1 34.8 11.9 36.7 25.85 38.8 41.5 41.8 45.35 43.55 47.65 46.8 48.7 49.3 49.55 54.95 50.25 L50.85 51.5 46.1 52.25 Q38.4 52.25 35.15 44.75 33.45 40.7 31.75 28.25 30.15 16.55 27.5 11.7 23.4 4.2 14.15 4.2 10.0 4.2 1.2 6.1 M40.7 60.55 L40.5 64.7 Q40.5 70.3 41.65 76.6 43.2 85.2 46.3 90.3 44.1 87.65 41.25 78.05 38.05 67.5 40.7 60.55" fill="#f4d371" fill-rule="evenodd" stroke="none"/>
    <path d="M66.6 92.35 L66.95 92.65 74.6 98.45 75.35 98.9 Q65.85 98.2 59.4 92.0 49.4 82.45 49.4 61.65 49.4 60.85 50.5 58.8 L54.45 51.7 Q57.8 77.05 60.9 84.15 62.8 88.55 66.1 91.85 L66.6 92.35 M54.2 49.0 Q49.25 48.6 46.95 47.6 L42.4 45.0 Q42.45 36.8 39.65 27.0 37.35 18.95 35.6 16.7 35.6 8.85 30.1 3.3 24.55 -2.3 16.75 -2.3 L27.9 -5.4 32.35 -5.85 Q40.05 -5.85 45.4 1.0 52.6 10.15 56.7 32.1 55.5 28.85 52.25 23.7 46.55 14.6 39.55 7.05 43.55 12.85 48.25 25.25 53.75 39.7 54.2 49.0 M-21.35 13.35 L-23.5 9.1 Q-25.15 5.3 -25.15 3.85 -25.15 -0.25 -20.55 -3.15 -16.65 -5.6 -12.7 -5.6 -10.7 -5.6 -7.4 -3.7 L-2.5 -0.4 -3.7 2.1 Q-4.6 1.7 -7.1 1.15 L-9.7 0.6 Q-16.65 0.6 -19.2 3.3 -21.4 5.65 -21.4 11.35 L-21.35 13.35 M54.95 50.25 L47.1 55.8 Q42.65 58.5 38.75 58.5 31.9 58.5 28.8 52.5 27.4 49.85 24.65 38.25 22.05 27.4 18.1 21.1 12.25 11.7 1.1 6.7 L1.2 6.1 Q10.0 4.2 14.15 4.2 23.4 4.2 27.5 11.7 30.15 16.55 31.75 28.25 33.45 40.7 35.15 44.75 38.4 52.25 46.1 52.25 L50.85 51.5 54.95 50.25 M40.7 60.55 Q46.4 59.2 49.6 56.0 48.05 60.35 46.7 65.5 44.9 72.35 44.9 75.55 44.9 79.0 46.6 85.5 48.25 92.05 49.9 95.0 L46.3 90.3 Q43.2 85.2 41.65 76.6 40.5 70.3 40.5 64.7 L40.7 60.55" fill="#fbee95" fill-rule="evenodd" stroke="none"/>
  </g>
</svg>
