<?xml version="1.0" encoding="UTF-8" standalone="no"?>
<svg xmlns:ffdec="https://www.free-decompiler.com/flash" xmlns:xlink="http://www.w3.org/1999/xlink" ffdec:objectType="shape" height="83.1px" width="83.1px" xmlns="http://www.w3.org/2000/svg">
  <g transform="matrix(1.0, 0.0, 0.0, 1.0, 25.0, 65.05)">
    <path d="M1.45 13.2 Q-12.55 6.75 -18.7 -5.1 -23.0 -13.5 -23.0 -23.45 -23.0 -35.3 -16.65 -45.05 -12.9 -50.9 -9.15 -53.45 -0.4 -56.55 5.7 -56.55 20.65 -56.55 30.95 -46.3 41.4 -35.95 41.4 -20.65 41.4 -8.4 32.25 1.9 22.0 13.4 6.6 13.4 L1.45 13.2" fill="#f0d5a6" fill-rule="evenodd" stroke="none"/>
    <path d="M-8.0 -54.45 Q-4.6 -56.3 0.35 -57.9 6.9 -60.0 11.9 -60.0 24.85 -60.0 35.95 -51.45 49.9 -40.75 49.9 -22.0 49.9 -3.85 35.65 7.8 30.0 12.4 23.6 14.6 20.25 15.75 17.45 16.05 L13.35 15.95 Q6.95 15.3 1.45 13.2 L6.6 13.4 Q22.0 13.4 32.25 1.9 41.4 -8.4 41.4 -20.65 41.4 -35.95 30.95 -46.3 20.65 -56.55 5.7 -56.55 -0.4 -56.55 -9.15 -53.45 L-8.0 -54.45" fill="#eac586" fill-rule="evenodd" stroke="none"/>
    <path d="M-8.0 -54.45 Q-3.55 -59.35 5.25 -61.55 10.95 -63.0 16.55 -63.0 35.95 -63.0 47.2 -48.45 56.05 -37.0 56.05 -24.45 56.05 -7.45 44.45 4.45 33.1 16.05 17.55 16.05 L17.45 16.05 Q20.25 15.75 23.6 14.6 30.0 12.4 35.65 7.8 49.9 -3.85 49.9 -22.0 49.9 -40.75 35.95 -51.45 24.85 -60.0 11.9 -60.0 6.9 -60.0 0.35 -57.9 -4.6 -56.3 -8.0 -54.45" fill="#e4b769" fill-rule="evenodd" stroke="none"/>
    <path d="M17.45 16.05 L17.55 16.05 Q33.1 16.05 44.45 4.45 56.05 -7.45 56.05 -24.45 56.05 -37.0 47.2 -48.45 35.95 -63.0 16.55 -63.0 10.95 -63.0 5.25 -61.55 -3.55 -59.35 -8.0 -54.45 L-9.15 -53.45 Q-12.9 -50.9 -16.65 -45.05 -23.0 -35.3 -23.0 -23.45 -23.0 -13.5 -18.7 -5.1 -12.55 6.75 1.45 13.2 6.95 15.3 13.35 15.95 L17.45 16.05 M45.95 -52.85 Q58.1 -40.7 58.1 -23.5 58.1 -6.3 45.95 5.9 33.75 18.05 16.55 18.05 -0.65 18.05 -12.8 5.9 -25.0 -6.3 -25.0 -23.5 -25.0 -40.7 -12.8 -52.85 -0.65 -65.05 16.55 -65.05 33.75 -65.05 45.95 -52.85" fill="#68502b" fill-rule="evenodd" stroke="none"/>
  </g>
</svg>
