<?xml version="1.0" encoding="UTF-8" standalone="no"?>
<svg xmlns:ffdec="https://www.free-decompiler.com/flash" xmlns:xlink="http://www.w3.org/1999/xlink" ffdec:objectType="shape" height="82.9px" width="74.15px" xmlns="http://www.w3.org/2000/svg">
  <g transform="matrix(1.0, 0.0, 0.0, 1.0, 44.85, 63.85)">
    <path d="M-43.5 -9.15 Q-44.9 -17.2 -44.85 -19.9 -44.7 -37.1 -33.75 -49.9 L-33.25 -49.4 Q-35.15 -46.65 -39.05 -38.5 -42.15 -32.15 -43.5 -9.15 M-6.65 -60.1 L-5.9 -60.05 -11.2 -51.25 Q-15.7 -44.1 -15.45 -29.75 -15.25 -15.4 -8.05 3.75 L-10.95 -0.1 Q-13.4 -3.8 -14.15 -6.9 -17.1 -19.15 -16.8 -32.1 -16.4 -47.95 -6.65 -60.1 M-13.9 -63.85 Q-17.75 -60.5 -22.4 -50.65 -28.2 -38.35 -28.25 -28.1 L-29.1 -28.25 Q-30.15 -34.75 -25.45 -47.25 -21.25 -58.4 -13.9 -63.85 M3.1 -19.7 Q2.4 -36.7 4.85 -44.8 7.3 -52.9 15.1 -60.1 -3.4 -38.3 8.5 1.95 3.75 -2.7 3.1 -19.7 M22.1 -39.3 Q17.7 -30.95 17.45 -14.75 17.15 1.4 29.3 19.05 20.8 13.0 16.65 -1.75 12.5 -16.5 16.95 -29.35 21.4 -42.2 25.75 -53.45 26.5 -47.65 22.1 -39.3" fill="#a47620" fill-rule="evenodd" stroke="none"/>
  </g>
</svg>
