<?xml version="1.0" encoding="UTF-8" standalone="no"?>
<svg xmlns:ffdec="https://www.free-decompiler.com/flash" xmlns:xlink="http://www.w3.org/1999/xlink" ffdec:objectType="shape" height="52.8px" width="54.55px" xmlns="http://www.w3.org/2000/svg">
  <g transform="matrix(1.0, 0.0, 0.0, 1.0, 27.25, 25.3)">
    <path d="M8.1 -12.1 Q13.45 -10.7 17.75 -7.1 24.85 -1.15 24.85 7.2 24.85 15.6 17.75 21.55 10.65 27.5 0.6 27.5 -9.45 27.5 -16.55 21.55 -23.65 15.6 -23.65 7.2 -23.65 5.15 -23.2 3.3 L-23.4 0.8 Q-23.4 -5.1 -19.65 -9.3 -17.25 -11.95 -14.25 -12.9 -13.4 -14.95 -11.7 -16.65 -8.2 -20.0 -3.25 -20.0 1.7 -20.0 5.15 -16.65 7.25 -14.65 8.1 -12.1" fill="#ffffff" fill-opacity="0.0" fill-rule="evenodd" stroke="none"/>
    <path d="M-18.05 16.8 Q-15.95 19.25 -13.25 20.45 L-13.25 20.6 -13.5 22.55 Q-13.8 23.25 -15.5 22.85 -22.75 21.0 -25.0 9.0 -26.4 1.65 -25.75 -3.9 -25.45 -6.8 -24.25 -10.2 -22.5 -14.95 -20.05 -15.55 L-13.2 -20.05 Q-6.95 -24.2 -3.25 -23.25 5.0 -21.15 7.65 -17.8 9.05 -16.1 10.1 -13.15 L15.85 -10.45 Q20.95 -7.9 22.9 -4.95 26.9 1.65 25.8 11.7 24.0 23.7 19.65 22.6 L19.5 22.55 Q22.75 19.5 23.45 13.05 24.05 7.65 22.6 2.25 20.2 -6.9 12.7 -9.15 L14.0 -9.45 Q12.95 -11.45 12.5 -11.45 L11.25 -10.7 11.15 -10.85 Q9.85 -10.9 8.2 -13.8 L6.75 -16.7 Q5.75 -17.0 5.25 -16.35 6.65 -16.35 7.75 -13.55 8.9 -10.6 10.75 -10.0 L11.45 -10.4 12.1 -9.3 11.75 -9.45 Q10.55 -9.7 8.1 -7.8 L3.85 -15.15 Q1.1 -19.4 -4.25 -20.75 -8.35 -21.75 -11.95 -17.1 L-15.7 -11.6 Q-19.6 -9.65 -21.95 -6.9 L-23.4 -3.4 -24.75 0.95 -24.75 2.5 -24.5 2.55 -24.85 4.9 -23.15 12.7 Q-20.7 20.65 -16.55 21.75 -16.15 21.75 -16.25 21.2 -16.4 20.7 -16.05 20.85 L-13.55 21.5 Q-13.9 20.3 -15.75 19.1 L-17.95 17.75 -18.05 16.8 M18.95 22.15 Q18.6 21.8 18.6 21.2 L19.9 18.7 18.9 21.1 Q18.8 21.8 18.95 22.15 M20.95 16.15 Q21.65 14.2 21.85 12.5 22.1 8.55 21.2 4.5 19.45 -3.65 13.7 -5.15 L10.9 -5.4 14.15 -6.2 Q14.9 -6.0 16.3 -4.65 22.5 -3.1 22.45 12.15 L20.95 16.15 M9.05 -4.85 L8.9 -4.65 6.8 -2.85 Q6.2 -6.5 4.75 -9.8 2.15 -15.1 -3.2 -17.0 L-0.45 -16.45 Q2.8 -15.65 7.2 -4.0 7.5 -4.3 9.05 -4.85 M-7.3 -17.45 Q-9.4 -16.85 -11.0 -14.15 L-12.2 -12.0 -11.85 -13.2 -11.7 -14.8 Q-11.4 -15.9 -10.75 -16.45 -9.75 -17.45 -7.3 -17.45 M-22.95 -0.3 L-23.15 1.2 -23.35 0.95 -23.5 1.0 -22.95 -0.3 M-16.4 -16.1 L-18.6 -16.5 Q-18.65 -16.25 -17.75 -15.75 L-16.4 -16.1 M-23.55 -9.55 L-23.8 -9.35 -23.8 -9.05 -24.4 -6.55 -24.35 -4.2 -24.2 -4.1 -24.15 -4.2 Q-22.7 -4.65 -22.45 -6.7 L-22.35 -8.05 -22.3 -8.45 -22.3 -8.65 -22.2 -11.05 Q-23.0 -10.5 -23.55 -9.55 M-21.05 -14.15 L-20.85 -13.9 -20.8 -13.9 -21.5 -12.95 -21.5 -13.7 -21.75 -13.75 Q-21.85 -12.65 -22.25 -12.25 L-21.9 -12.15 -22.35 -11.05 Q-19.9 -12.6 -19.85 -14.8 L-20.2 -14.55 -20.1 -15.3 -21.05 -14.15" fill="#3d7b33" fill-rule="evenodd" stroke="none"/>
    <path d="M12.1 -9.3 L11.45 -10.4 10.75 -10.0 Q8.9 -10.6 7.75 -13.55 6.65 -16.35 5.25 -16.35 5.75 -17.0 6.75 -16.7 L8.2 -13.8 Q9.85 -10.9 11.15 -10.85 L11.25 -10.7 12.5 -11.45 Q12.95 -11.45 14.0 -9.45 L12.7 -9.15 12.25 -9.15 12.1 -9.3 M-21.05 -14.15 L-20.1 -15.3 -20.2 -14.55 -19.85 -14.8 Q-19.9 -12.6 -22.35 -11.05 L-21.9 -12.15 -22.25 -12.25 Q-21.85 -12.65 -21.75 -13.75 L-21.5 -13.7 -21.5 -12.95 -20.8 -13.9 -20.85 -13.9 -21.05 -14.15 M-23.55 -9.55 Q-23.0 -10.5 -22.2 -11.05 L-22.3 -8.65 -22.3 -8.45 -22.35 -8.05 -22.45 -6.7 Q-22.7 -4.65 -24.15 -4.2 L-24.2 -4.1 -24.35 -4.2 -24.4 -6.55 -23.8 -9.05 -23.8 -9.35 -23.55 -9.55 M-16.4 -16.1 L-17.75 -15.75 Q-18.65 -16.25 -18.6 -16.5 L-16.4 -16.1" fill="#addaa5" fill-rule="evenodd" stroke="none"/>
    <path d="M19.5 22.55 L19.65 22.6 Q24.0 23.7 25.8 11.7 26.9 1.65 22.9 -4.95 20.95 -7.9 15.85 -10.45 L10.1 -13.15 Q9.05 -16.1 7.65 -17.8 5.0 -21.15 -3.25 -23.25 -6.95 -24.2 -13.2 -20.05 L-20.05 -15.55 Q-22.5 -14.95 -24.25 -10.2 -25.45 -6.8 -25.75 -3.9 -26.4 1.65 -25.0 9.0 -22.75 21.0 -15.5 22.85 -13.8 23.25 -13.5 22.55 L-13.25 20.6 -13.25 20.45 Q-15.95 19.25 -18.05 16.8 -18.35 15.6 -19.45 13.45 L-21.7 9.05 Q-22.65 2.2 -23.15 1.2 L-22.95 -0.3 -17.2 -8.5 Q-16.25 -9.85 -14.55 -8.85 -13.25 -8.25 -12.9 -9.9 L-12.2 -12.0 -11.0 -14.15 Q-9.4 -16.85 -7.3 -17.45 L-3.2 -17.0 Q2.15 -15.1 4.75 -9.8 6.2 -6.5 6.8 -2.85 L8.9 -4.65 9.05 -4.85 10.75 -5.35 10.9 -5.4 13.7 -5.15 Q19.45 -3.65 21.2 4.5 22.1 8.55 21.85 12.5 21.65 14.2 20.95 16.15 L19.9 18.7 18.6 21.2 Q18.6 21.8 18.95 22.15 18.95 22.6 19.2 22.75 L19.5 22.55 M6.0 -0.3 Q5.45 -3.5 3.9 -7.0 0.7 -14.0 -4.8 -15.45 -9.85 -16.7 -10.25 -12.8 -10.75 -8.25 -15.65 -8.05 -18.35 -7.95 -20.3 -3.8 -21.7 -0.75 -22.05 2.35 -22.4 5.5 -19.85 11.3 -16.75 18.5 -11.75 18.85 L-11.55 19.85 Q-12.2 25.9 -15.3 25.15 -22.7 23.25 -25.65 12.35 -27.9 4.0 -26.95 -4.55 -25.7 -16.3 -20.8 -17.65 -18.75 -18.2 -16.6 -19.95 L-12.75 -22.95 Q-7.8 -26.55 -0.4 -24.65 5.7 -23.1 8.75 -19.2 12.1 -14.7 14.95 -13.5 21.95 -10.5 24.5 -5.05 28.1 2.4 27.05 12.05 24.25 26.05 19.7 24.9 17.8 24.4 17.35 22.75 L17.2 20.9 Q20.35 15.4 20.7 12.15 20.95 -1.35 15.05 -2.85 10.7 -4.0 8.45 -2.05 6.3 -0.2 6.0 -0.3" fill="#203324" fill-rule="evenodd" stroke="none"/>
    <path d="M-18.05 16.8 L-17.95 17.75 -15.75 19.1 Q-13.9 20.3 -13.55 21.5 L-16.05 20.85 Q-16.4 20.7 -16.25 21.2 -16.15 21.75 -16.55 21.75 -20.7 20.65 -23.15 12.7 L-24.85 4.9 -24.5 2.55 -24.75 2.5 -24.75 0.95 -23.4 -3.4 -21.95 -6.9 Q-19.6 -9.65 -15.7 -11.6 L-11.95 -17.1 Q-8.35 -21.75 -4.25 -20.75 1.1 -19.4 3.85 -15.15 L8.1 -7.8 Q10.55 -9.7 11.75 -9.45 L12.1 -9.3 12.25 -9.15 12.7 -9.15 Q20.2 -6.9 22.6 2.25 24.05 7.65 23.45 13.05 22.75 19.5 19.5 22.55 L19.2 22.75 Q18.95 22.6 18.95 22.15 18.8 21.8 18.9 21.1 L19.9 18.7 20.95 16.15 22.45 12.15 Q22.5 -3.1 16.3 -4.65 14.9 -6.0 14.15 -6.2 L10.9 -5.4 10.75 -5.35 9.05 -4.85 Q7.5 -4.3 7.2 -4.0 2.8 -15.65 -0.45 -16.45 L-3.2 -17.0 -7.3 -17.45 Q-9.75 -17.45 -10.75 -16.45 -11.4 -15.9 -11.7 -14.8 L-11.85 -13.2 -12.2 -12.0 -12.9 -9.9 Q-13.25 -8.25 -14.55 -8.85 -16.25 -9.85 -17.2 -8.5 L-22.95 -0.3 -23.5 1.0 -23.35 0.95 -23.15 1.2 Q-22.65 2.2 -21.7 9.05 L-19.45 13.45 Q-18.35 15.6 -18.05 16.8" fill="#316228" fill-rule="evenodd" stroke="none"/>
  </g>
</svg>
