<?xml version="1.0" encoding="UTF-8" standalone="no"?>
<svg xmlns:ffdec="https://www.free-decompiler.com/flash" xmlns:xlink="http://www.w3.org/1999/xlink" ffdec:objectType="shape" height="964.0px" width="682.2px" xmlns="http://www.w3.org/2000/svg">
  <g transform="matrix(1.0, 0.0, 0.0, 1.0, 0.0, 4.0)">
    <path d="M682.15 0.0 L682.15 960.0 0.0 960.0 0.0 0.0 682.15 0.0" fill="#d86b28" fill-rule="evenodd" stroke="none"/>
    <path d="M682.15 481.85 L681.0 481.85 682.15 481.7 682.15 481.85 M0.0 412.75 L0.0 388.95 682.2 284.15 682.2 307.95 0.0 412.75 M324.75 481.85 L169.85 481.85 682.15 403.15 682.15 426.95 324.75 481.85 M502.85 481.85 L479.6 481.85 682.15 450.75 682.15 454.3 502.85 481.85 M378.85 481.85 L355.65 481.85 682.15 431.7 682.15 435.25 378.85 481.85 M440.9 481.85 L417.75 481.85 682.15 441.25 682.15 444.8 440.9 481.85 M572.65 481.85 L549.25 481.85 682.15 461.45 682.15 465.05 572.65 481.85 M642.3 481.85 L619.15 481.85 682.15 472.2 682.15 475.75 642.3 481.85 M0.0 450.85 L0.0 447.3 682.2 342.5 682.2 346.05 0.0 450.85 M0.0 461.55 L0.0 458.0 682.2 353.2 682.2 356.75 0.0 461.55 M0.0 481.85 L0.0 467.5 682.2 362.7 682.15 386.55 61.85 481.85 0.0 481.85 M0.0 421.1 L0.0 417.5 682.2 312.7 682.2 316.3 0.0 421.1 M0.0 430.6 L0.0 427.05 682.2 322.25 682.2 325.8 0.0 430.6 M0.0 440.15 L0.0 436.55 682.2 331.75 682.2 335.35 0.0 440.15 M0.0 362.8 L0.0 339.0 682.2 234.2 682.2 258.0 0.0 362.8 M0.0 302.1 L0.0 298.55 682.2 193.75 682.2 197.3 0.0 302.1 M0.0 311.65 L0.0 308.05 682.2 203.25 682.2 206.85 0.0 311.65 M0.0 322.35 L0.0 318.8 682.2 214.0 682.2 217.55 0.0 322.35 M0.0 333.05 L0.0 329.5 682.2 224.7 682.2 228.25 0.0 333.05 M0.0 284.25 L0.0 260.45 682.2 155.65 682.2 179.45 0.0 284.25 M0.0 292.6 L0.0 289.0 682.2 184.2 682.2 187.8 0.0 292.6 M0.0 208.15 L0.0 204.55 682.2 99.75 682.2 103.35 0.0 208.15 M0.0 237.9 L0.0 214.1 682.2 109.3 682.2 133.1 0.0 237.9 M0.0 115.3 L0.0 91.45 621.3 -4.0 682.15 -4.0 682.15 10.5 0.0 115.3 M0.0 159.35 L0.0 135.5 682.15 30.7 682.2 54.55 0.0 159.35 M0.0 167.65 L0.0 164.1 682.2 59.3 682.2 62.85 0.0 167.65 M0.0 177.2 L0.0 173.6 682.2 68.8 682.2 72.4 0.0 177.2 M0.0 186.7 L0.0 183.15 682.2 78.35 682.2 81.9 0.0 186.7 M0.0 197.4 L0.0 193.85 682.2 89.05 682.2 92.6 0.0 197.4 M559.35 -4.0 L582.5 -4.0 0.0 85.5 0.0 81.95 559.35 -4.0 M489.65 -4.0 L512.8 -4.0 0.0 74.8 0.0 71.25 489.65 -4.0 M419.75 -4.0 L443.25 -4.0 0.0 64.1 0.0 60.5 419.75 -4.0 M357.95 -4.0 L381.1 -4.0 0.0 54.55 0.0 51.0 357.95 -4.0 M110.0 -4.0 L264.95 -4.0 0.0 36.7 0.0 12.9 110.0 -4.0 M296.0 -4.0 L319.2 -4.0 0.0 45.05 0.0 41.5 296.0 -4.0" fill="#ce6322" fill-rule="evenodd" stroke="none"/>
    <path d="M682.2 451.35 L682.2 454.9 0.0 559.7 0.0 556.15 682.2 451.35 M682.2 403.7 L682.2 427.55 0.0 532.35 0.0 508.5 682.2 403.7 M682.2 432.3 L682.2 435.85 0.0 540.65 0.0 537.1 682.2 432.3 M682.2 441.8 L682.2 445.4 0.0 550.2 0.0 546.6 682.2 441.8 M682.2 372.0 L682.2 386.5 0.0 491.3 0.0 467.45 621.3 372.0 682.2 372.0 M682.2 465.6 L0.0 570.4 0.0 566.85 682.2 462.05 682.2 465.6 M682.2 476.35 L0.0 581.15 0.0 577.55 682.2 472.75 682.2 476.35 M682.2 590.55 L0.0 695.35 0.0 691.8 682.15 587.0 682.2 590.55 M682.2 560.8 L0.0 665.6 0.0 662.0 682.15 557.2 682.2 560.8 M682.2 570.3 L0.0 675.1 0.0 671.55 682.15 566.75 682.2 570.3 M682.2 579.85 L0.0 684.65 0.0 681.05 682.15 576.25 682.2 579.85 M682.2 552.45 L0.0 657.25 0.0 633.45 682.15 528.65 682.2 552.45 M682.2 506.1 L0.0 610.9 0.0 587.1 682.2 482.3 682.2 506.1 M682.2 601.25 L0.0 706.05 0.0 702.5 682.15 597.7 682.2 601.25 M682.2 631.0 L0.0 735.8 0.0 712.0 682.15 607.2 682.2 631.0 M682.2 685.7 L682.2 689.3 0.0 794.1 0.0 790.5 682.2 685.7 M682.2 680.95 L0.0 785.75 0.0 761.95 682.15 657.15 682.2 680.95 M502.85 854.85 L479.6 854.85 682.15 823.75 682.15 827.3 502.85 854.85 M378.85 854.85 L355.65 854.85 682.15 804.7 682.15 808.25 378.85 854.85 M440.9 854.85 L417.75 854.85 682.15 814.25 682.15 817.8 440.9 854.85 M572.65 854.85 L549.25 854.85 682.15 834.45 682.15 838.05 572.65 854.85 M642.3 854.85 L619.15 854.85 682.15 845.2 682.15 848.75 642.3 854.85 M296.0 372.0 L319.2 372.0 0.0 421.05 0.0 417.5 296.0 372.0 M0.0 388.9 L110.0 372.0 264.95 372.0 0.0 412.7 0.0 388.9 M559.35 372.0 L582.5 372.0 0.0 461.5 0.0 457.95 559.35 372.0 M489.65 372.0 L512.8 372.0 0.0 450.8 0.0 447.25 489.65 372.0 M419.75 372.0 L443.25 372.0 0.0 440.1 0.0 436.5 419.75 372.0 M357.95 372.0 L381.1 372.0 0.0 430.55 0.0 427.0 357.95 372.0 M682.2 735.7 L682.2 759.55 61.85 854.85 0.0 854.85 0.0 840.5 682.2 735.7 M682.15 695.25 L682.2 698.8 0.0 803.6 0.0 800.05 682.15 695.25 M682.15 704.75 L682.2 708.35 0.0 813.15 0.0 809.55 682.15 704.75 M682.15 715.5 L682.2 719.05 0.0 823.85 0.0 820.3 682.15 715.5 M682.2 726.2 L682.2 729.75 0.0 834.55 0.0 831.0 682.2 726.2 M169.85 854.85 L682.15 776.15 682.15 799.95 324.75 854.85 169.85 854.85 M682.15 854.7 L682.15 854.85 681.0 854.85 682.15 854.7" fill="#ce6322" fill-rule="evenodd" stroke="none"/>
  </g>
</svg>
