<?xml version="1.0" encoding="UTF-8" standalone="no"?>
<svg xmlns:ffdec="https://www.free-decompiler.com/flash" xmlns:xlink="http://www.w3.org/1999/xlink" ffdec:objectType="shape" height="55.8px" width="238.2px" xmlns="http://www.w3.org/2000/svg">
  <g transform="matrix(1.0, 0.0, 0.0, 1.0, -1.05, -0.9)">
    <path d="M94.6 30.9 L94.5 30.9 94.45 30.95 94.6 30.9 M92.85 36.05 L92.85 36.1 93.85 37.4 94.05 37.6 Q95.5 39.0 97.6 39.0 100.3 39.0 102.25 37.1 L102.2 37.15 Q103.1 36.15 104.45 36.05 105.7 35.95 106.75 36.75 L106.7 36.75 111.75 40.3 118.15 28.25 109.7 32.15 109.6 32.15 107.1 32.2 Q105.9 31.8 105.25 30.75 L105.2 30.7 Q103.9 28.45 101.1 28.5 L101.05 28.5 Q97.7 28.5 95.55 30.5 L95.5 30.55 Q93.25 32.65 92.85 36.05 M163.5 27.3 L163.5 27.25 162.95 26.75 161.35 31.4 161.75 30.8 161.7 30.8 163.5 27.3 M213.6 16.95 L213.3 17.75 213.8 15.65 Q213.9 16.3 213.6 16.95 M235.65 6.0 Q236.9 6.0 237.85 6.7 L237.8 6.65 Q238.8 7.25 239.15 8.35 L239.1 8.35 Q239.4 9.25 239.0 10.2 L239.0 10.25 225.35 37.7 225.3 37.75 224.2 39.05 224.05 39.15 223.9 39.25 224.0 39.5 Q224.35 40.55 224.0 41.65 L224.0 41.6 221.1 50.75 221.1 50.8 220.85 51.4 220.7 51.65 217.75 56.0 217.7 56.05 215.65 56.7 204.0 56.7 Q202.75 56.7 201.9 56.0 L201.8 55.95 Q201.0 55.2 200.75 54.2 L200.7 54.15 200.6 53.2 199.95 54.5 198.8 56.05 198.65 56.15 Q197.7 56.7 196.7 56.7 L172.75 56.7 Q171.6 56.7 170.7 56.05 L170.55 55.95 Q169.75 55.2 169.5 54.25 169.05 53.45 170.55 48.8 L170.65 48.5 170.65 48.4 172.2 44.6 170.65 46.6 170.65 46.65 Q163.7 54.9 153.2 56.7 L152.95 56.7 152.6 56.7 142.0 56.7 Q141.0 56.7 140.2 56.15 139.35 56.7 138.3 56.7 L128.8 56.7 Q127.6 56.7 126.8 56.05 L126.85 56.1 Q125.85 55.4 125.55 54.35 125.25 53.65 125.5 50.8 L123.85 54.6 123.85 54.65 Q123.4 55.55 122.55 56.15 121.7 56.7 120.65 56.7 L110.9 56.7 Q109.6 56.7 108.7 55.9 L108.75 55.9 107.75 54.55 Q103.15 56.7 97.3 56.7 92.15 56.7 88.25 54.65 L87.45 55.75 87.35 55.85 Q86.3 56.7 85.1 56.7 L74.05 56.7 Q73.15 56.7 72.3 56.2 71.4 55.65 70.95 54.8 69.4 51.65 68.05 49.85 L67.85 49.6 64.1 45.1 61.85 54.1 Q61.65 55.2 60.7 55.95 L60.65 56.05 Q59.7 56.7 58.5 56.7 L49.0 56.7 47.35 56.25 45.6 56.7 32.05 56.7 Q30.85 56.7 30.05 56.05 L30.1 56.1 Q29.1 55.4 28.8 54.35 L27.4 51.85 26.9 51.05 25.35 54.6 25.35 54.65 Q24.9 55.55 24.05 56.15 L24.0 56.2 Q23.1 56.7 22.1 56.7 L7.05 56.7 Q5.7 56.7 4.8 55.9 L4.8 55.85 2.1 52.2 Q1.3 51.35 1.15 50.2 L1.15 50.3 Q0.85 48.9 1.6 47.85 18.15 21.75 31.8 2.45 L31.85 2.4 Q32.25 1.75 32.95 1.4 33.7 0.9 34.65 0.9 L51.35 0.9 Q52.35 0.9 53.25 1.5 L53.3 1.55 Q54.15 2.05 54.6 3.0 L54.65 3.15 54.75 3.45 54.75 3.5 56.0 7.45 56.05 7.6 Q56.35 8.45 56.3 9.4 L56.3 9.5 55.1 16.8 56.8 11.9 Q57.15 10.95 58.0 10.3 L58.05 10.25 Q58.9 9.65 59.9 9.55 L64.55 9.25 64.65 9.25 64.8 9.25 64.85 9.25 69.45 9.45 69.65 9.45 Q72.4 9.55 75.55 10.65 L75.85 10.75 Q81.45 12.65 83.2 17.25 L84.9 15.5 84.95 15.45 Q91.45 9.15 102.65 9.15 114.05 9.15 120.8 18.2 L120.85 18.25 Q121.4 19.1 121.5 20.1 L121.5 20.2 121.5 20.45 121.5 20.5 121.5 21.95 127.25 11.15 127.2 11.25 Q127.65 10.15 128.65 9.7 129.4 9.25 130.35 9.25 L143.85 9.4 Q144.85 9.4 145.75 10.05 L145.75 10.0 147.0 11.4 147.05 11.55 Q147.4 12.35 147.3 13.35 L147.3 13.45 146.75 17.1 146.75 17.5 146.75 17.7 144.7 32.3 151.7 11.5 Q152.05 10.3 153.05 9.7 153.9 9.05 155.0 9.05 165.15 8.95 169.95 10.3 175.45 11.8 177.85 15.1 L178.75 11.8 178.75 11.9 Q179.0 10.65 180.05 9.95 180.95 9.25 182.1 9.25 L210.85 9.25 Q211.95 9.25 212.9 9.9 L212.95 9.95 213.0 10.0 Q213.9 10.65 214.25 11.75 L214.25 11.9 214.35 12.55 213.75 15.0 211.2 21.4 211.15 21.5 209.2 25.65 Q208.85 26.55 208.0 27.15 L207.95 27.2 Q207.05 27.7 206.05 27.7 L204.0 34.1 202.95 35.65 202.4 37.25 Q203.15 37.35 203.8 37.85 L203.9 37.9 Q204.8 38.45 205.25 39.65 L205.25 39.8 205.35 40.95 206.3 38.85 212.6 19.55 209.6 31.2 209.65 31.2 212.25 21.6 215.65 11.95 Q215.8 11.35 217.7 8.05 218.0 7.1 219.0 6.55 219.85 6.0 220.95 6.0 L235.65 6.0 M78.85 37.15 L77.95 37.7 78.2 38.7 80.15 41.0 80.3 40.95 80.15 40.1 79.55 37.95 78.85 37.15 M2.65 52.0 L2.65 52.05 3.35 51.4 3.3 51.3 2.65 52.0 M3.3 51.3 L3.4 51.4 3.45 51.35 3.3 51.3" fill="#000000" fill-rule="evenodd" stroke="none"/>
    <path d="M33.05 31.05 L36.45 31.05 38.95 21.4 Q35.95 25.35 33.05 31.05 M67.3 29.0 L70.3 28.15 Q71.7 27.5 71.7 26.4 71.35 25.75 70.0 25.35 L68.65 25.3 68.45 25.35 67.3 29.0 M80.0 34.65 L80.05 34.1 Q78.0 36.25 74.6 37.65 77.95 40.95 81.7 45.55 80.15 42.15 79.9 37.95 L79.9 37.9 80.0 34.65 M132.5 34.05 L132.7 33.3 130.2 34.05 132.5 34.05 M134.65 25.85 L134.1 25.85 134.45 26.65 134.65 25.85 M162.05 35.45 Q164.95 30.55 165.05 27.2 165.0 26.3 164.2 25.95 L164.25 25.95 Q163.15 25.45 161.75 25.5 L156.15 42.05 Q159.6 39.6 162.05 35.45 M208.9 15.1 Q209.5 15.1 210.05 15.5 210.6 15.9 210.8 16.55 210.95 17.15 210.7 17.8 L209.8 20.85 207.85 25.0 207.15 25.9 206.05 26.2 193.9 26.15 193.0 28.6 200.95 28.4 202.15 28.7 202.85 29.7 Q203.05 30.3 202.85 30.9 L200.75 37.45 200.1 38.45 Q199.6 38.85 199.0 38.85 L188.95 39.2 187.5 43.0 200.05 42.45 201.2 42.85 202.0 43.9 201.95 45.1 200.3 50.4 198.55 53.9 197.85 54.85 Q197.3 55.2 196.7 55.2 L172.75 55.2 Q172.1 55.2 171.55 54.8 171.05 54.35 170.9 53.75 170.7 53.15 172.05 48.95 L181.55 26.45 178.75 26.55 Q178.1 26.6 177.6 26.25 L176.95 25.6 176.95 25.8 Q176.95 36.65 169.5 45.65 162.9 53.5 152.95 55.2 L152.6 55.2 142.0 55.2 Q141.4 55.2 140.9 54.8 140.35 54.4 140.15 53.8 L139.6 54.7 Q139.05 55.2 138.3 55.2 L128.8 55.2 Q128.15 55.2 127.7 54.85 127.15 54.45 126.95 53.85 126.75 53.25 127.1 49.1 L129.95 43.45 126.95 43.5 122.45 54.0 121.7 54.9 120.65 55.2 110.9 55.2 Q110.2 55.2 109.7 54.75 109.15 54.3 109.0 53.6 L108.95 52.15 Q104.05 55.2 97.3 55.2 91.2 55.2 87.0 52.1 L87.05 53.45 86.4 54.7 Q85.8 55.2 85.1 55.2 L74.05 55.2 73.05 54.9 72.3 54.1 Q70.6 50.65 69.1 48.7 L69.05 48.7 Q66.4 45.2 63.3 42.05 L60.4 53.7 Q60.3 54.35 59.75 54.8 59.2 55.2 58.5 55.2 L49.0 55.2 Q48.35 55.2 47.85 54.8 L47.3 54.2 46.85 54.75 Q46.35 55.2 45.6 55.2 L32.05 55.2 Q31.4 55.2 30.95 54.85 30.4 54.45 30.2 53.85 L28.45 50.8 33.75 41.35 29.4 41.45 23.95 54.0 23.2 54.9 22.1 55.2 7.05 55.2 Q6.3 55.2 5.8 54.75 5.25 54.25 3.25 51.25 5.0 52.8 2.65 50.0 21.65 26.65 34.95 7.8 L35.6 7.2 Q36.0 6.95 36.5 6.95 L53.3 3.9 54.65 8.1 54.8 9.25 48.2 49.45 59.55 16.75 Q59.75 16.2 60.25 15.8 60.7 15.45 61.3 15.4 L65.85 15.1 66.0 15.1 70.8 15.35 70.7 15.3 Q73.2 15.4 76.05 16.4 L76.0 16.4 Q82.6 18.5 83.2 24.65 L83.2 24.75 83.2 24.85 Q84.65 22.7 86.7 20.8 92.7 15.0 103.05 15.0 112.95 15.0 120.0 20.2 L120.0 24.35 119.7 25.5 118.9 26.25 109.05 30.75 107.65 30.8 106.5 29.95 Q104.85 26.95 101.05 27.0 97.05 27.0 94.5 29.4 L94.45 29.45 Q91.85 31.9 91.35 35.85 L91.25 37.35 Q91.4 40.3 93.4 42.2 L93.45 42.3 Q95.3 44.2 98.1 44.2 101.3 44.2 103.65 41.95 104.15 41.4 104.9 41.35 105.55 41.3 106.15 41.75 L112.35 46.1 112.45 46.15 128.35 16.2 Q128.6 15.65 129.1 15.4 129.55 15.1 130.15 15.1 L143.35 15.25 Q143.9 15.25 144.35 15.6 L145.1 16.45 145.25 17.5 140.7 49.25 152.4 16.3 Q152.6 15.65 153.1 15.3 153.6 14.9 154.25 14.9 163.95 14.85 168.5 16.1 175.9 18.15 176.85 23.9 L178.9 16.55 Q179.05 15.9 179.6 15.5 180.1 15.1 180.75 15.1 L208.9 15.1 M233.3 11.15 Q233.95 11.15 234.5 11.55 235.05 11.9 235.2 12.45 L235.15 13.55 225.3 32.95 221.7 40.85 220.95 41.7 219.9 41.95 209.5 41.95 208.4 41.65 Q207.85 41.25 207.65 40.65 L207.55 40.0 Q207.15 42.3 207.65 42.3 L218.45 42.3 Q219.1 42.3 219.65 42.7 L220.35 43.7 Q220.55 44.25 220.35 44.85 L219.4 50.85 Q217.3 54.4 216.8 54.8 216.25 55.2 215.65 55.2 L204.0 55.2 Q203.3 55.2 202.8 54.8 202.3 54.35 202.15 53.75 201.95 53.1 202.2 52.5 L205.85 43.55 207.65 39.45 210.35 31.3 210.4 31.3 217.05 12.3 219.1 8.5 233.3 11.15" fill="#350e00" fill-rule="evenodd" stroke="none"/>
    <path d="M31.1 27.05 L34.6 27.05 37.15 17.15 Q34.1 21.2 31.1 27.05 M79.1 30.7 L79.15 30.15 77.4 31.7 Q75.75 32.9 73.6 33.8 77.0 37.15 80.85 41.85 79.25 38.4 79.0 34.1 L79.0 34.05 Q78.95 32.9 79.05 31.7 L79.1 30.7 M70.6 22.3 Q70.25 21.6 68.9 21.2 L67.5 21.15 67.3 21.2 66.15 24.95 Q67.95 24.6 69.2 24.05 70.6 23.4 70.6 22.3 M134.95 21.7 L134.4 21.7 130.4 30.1 132.75 30.1 134.95 21.7 M166.05 23.1 Q166.0 22.2 165.15 21.8 L165.2 21.8 Q164.1 21.3 162.65 21.35 L156.95 38.3 Q160.35 35.85 162.9 31.7 L163.0 31.55 Q165.95 26.5 166.05 23.1 M207.75 39.8 L208.5 38.9 Q209.0 38.55 209.6 38.55 L220.65 38.55 Q221.3 38.55 221.85 38.95 222.35 39.3 222.55 39.95 222.75 40.55 222.55 41.15 L219.65 50.3 218.95 51.3 217.75 51.7 205.85 51.7 Q205.15 51.7 204.65 51.3 204.1 50.85 203.95 50.25 203.75 49.55 204.0 48.95 L207.75 39.8 M210.85 10.75 L212.05 11.15 Q212.6 11.55 212.8 12.2 212.95 12.85 212.7 13.5 L209.8 20.85 209.1 21.75 207.95 22.1 195.55 22.0 194.6 24.55 202.75 24.3 Q203.4 24.3 203.95 24.65 L204.7 25.65 Q204.9 26.25 204.7 26.9 L202.55 33.6 201.85 34.6 Q201.35 35.0 200.75 35.0 L190.45 35.35 189.0 39.25 201.8 38.7 Q202.45 38.7 203.0 39.1 203.55 39.45 203.8 40.15 L203.75 41.4 200.3 50.4 199.55 51.35 198.4 51.7 173.9 51.7 Q173.25 51.7 172.7 51.3 172.15 50.85 172.0 50.25 171.8 49.6 172.05 48.95 L182.9 22.35 180.05 22.45 178.85 22.15 178.2 21.45 178.2 21.65 Q178.2 26.9 176.55 31.7 174.6 37.1 170.6 41.95 163.85 50.0 153.65 51.7 L153.3 51.7 142.5 51.7 Q141.85 51.7 141.35 51.3 140.8 50.9 140.6 50.3 L140.05 51.2 Q139.45 51.7 138.7 51.7 L129.0 51.7 127.85 51.35 Q127.3 50.95 127.1 50.35 126.9 49.7 127.1 49.1 L130.15 39.7 127.1 39.75 122.5 50.5 121.75 51.4 120.65 51.7 110.7 51.7 Q110.0 51.7 109.45 51.25 108.9 50.8 108.75 50.1 108.6 49.4 108.95 48.8 L109.25 48.2 Q104.1 51.7 96.8 51.7 90.0 51.7 85.5 47.95 L85.95 48.55 Q86.35 49.15 86.3 49.95 L85.65 51.2 Q85.05 51.7 84.3 51.7 L73.05 51.7 72.0 51.4 Q71.5 51.1 71.25 50.6 69.5 47.05 67.95 45.1 L67.9 45.1 Q65.2 41.5 62.05 38.3 L59.1 50.2 Q58.95 50.85 58.4 51.3 57.85 51.7 57.15 51.7 L47.4 51.7 Q46.75 51.7 46.25 51.3 L45.7 50.7 45.25 51.25 Q44.7 51.7 43.95 51.7 L30.1 51.7 28.95 51.35 Q28.4 50.95 28.2 50.35 28.0 49.7 28.2 49.1 L31.85 37.55 27.4 37.65 21.8 50.5 21.05 51.4 19.95 51.7 4.55 51.7 Q3.8 51.7 3.25 51.25 2.7 50.75 2.6 50.0 2.45 49.25 2.85 48.65 L13.8 31.7 Q24.05 16.0 33.05 3.25 L33.75 2.65 34.65 2.4 51.35 2.4 Q51.95 2.4 52.45 2.75 L53.2 3.6 53.35 4.75 46.6 45.85 58.2 12.4 Q58.4 11.85 58.9 11.45 59.4 11.1 60.0 11.05 L64.65 10.75 64.8 10.75 69.7 11.0 69.6 10.95 Q72.15 11.05 75.05 12.05 L75.0 12.05 Q81.75 14.2 82.4 20.5 L82.4 20.6 82.4 20.7 Q83.85 18.5 85.95 16.55 92.1 10.65 102.65 10.65 113.3 10.65 119.6 19.1 L120.0 20.2 119.7 21.35 118.85 22.15 108.8 26.75 107.35 26.8 Q106.6 26.55 106.2 25.9 104.5 22.85 100.65 22.9 96.55 22.9 93.95 25.35 L93.9 25.4 Q91.3 27.8 90.7 31.7 L90.7 31.95 90.6 33.45 Q90.75 36.5 92.8 38.45 L92.85 38.55 Q94.75 40.5 97.6 40.5 100.9 40.5 103.3 38.15 103.8 37.6 104.55 37.55 105.25 37.5 105.85 37.95 L112.2 42.4 112.3 42.45 128.55 11.85 Q128.8 11.3 129.3 11.05 129.75 10.75 130.35 10.75 L143.85 10.9 Q144.4 10.9 144.9 11.25 L145.65 12.1 145.8 13.2 140.95 48.1 153.1 11.95 Q153.3 11.3 153.85 10.95 154.35 10.55 155.0 10.55 164.9 10.45 169.55 11.75 177.15 13.85 178.1 19.75 L180.2 12.2 Q180.35 11.55 180.9 11.15 181.45 10.75 182.1 10.75 L210.85 10.75 M235.65 7.3 L236.95 7.7 Q237.5 8.0 237.65 8.6 237.8 9.15 237.6 9.7 L225.8 33.0 225.75 33.0 223.95 37.05 223.2 37.9 222.1 38.2 211.5 38.2 210.35 37.85 Q209.8 37.45 209.6 36.85 209.4 36.2 209.6 35.6 L211.0 31.35 211.05 31.35 219.1 8.5 Q219.3 7.95 219.85 7.65 220.3 7.3 220.95 7.3 L235.65 7.3" fill="#953d09" fill-rule="evenodd" stroke="none"/>
    <path d="M224.1 31.95 L223.65 32.85 222.1 36.2 211.5 36.2 213.0 31.7 213.05 31.7 213.0 31.85 214.15 31.95 224.1 31.95 M201.1 31.7 L200.65 33.0 189.05 33.4 186.05 41.35 201.85 40.7 198.4 49.7 173.9 49.7 181.25 31.7 201.1 31.7 M220.65 40.55 L217.75 49.7 205.85 49.7 209.6 40.55 220.65 40.55 M157.05 31.7 L153.4 42.45 Q160.35 39.8 164.7 32.55 L165.2 31.7 174.4 31.7 Q172.6 36.4 169.05 40.65 162.8 48.15 153.3 49.7 L142.5 49.7 148.55 31.7 157.05 31.7 M141.2 31.7 L138.7 49.7 129.0 49.7 132.9 37.65 125.75 37.75 120.65 49.7 110.7 49.7 120.25 31.7 127.45 31.7 127.25 32.1 134.25 32.1 134.35 31.7 141.2 31.7 M88.7 31.7 L88.6 33.55 Q88.8 37.4 91.4 39.9 93.9 42.5 97.6 42.5 101.7 42.5 104.7 39.55 L111.05 44.0 Q105.7 49.7 96.8 49.7 89.9 49.7 85.7 45.4 81.4 41.05 81.0 33.95 80.95 32.85 81.05 31.7 L88.7 31.7 M73.4 31.7 Q71.8 32.45 69.8 33.0 76.3 38.65 84.3 49.7 L73.05 49.7 Q71.15 45.9 69.5 43.85 65.65 38.8 60.95 34.4 L57.15 49.7 47.4 49.7 53.65 31.7 73.4 31.7 M46.9 31.7 L43.95 49.7 30.1 49.7 34.55 35.5 26.1 35.65 19.95 49.7 4.55 49.7 16.15 31.7 46.9 31.7" fill="#ffe217" fill-rule="evenodd" stroke="none"/>
    <path d="M230.45 19.35 L229.1 22.1 216.4 22.1 217.35 19.35 230.45 19.35 M227.75 24.8 L224.1 31.95 214.15 31.95 213.0 31.85 213.05 31.7 213.0 31.7 213.05 31.6 213.1 31.6 215.45 24.8 227.75 24.8 M180.95 16.9 L209.25 16.9 207.95 20.1 194.15 19.95 194.1 20.1 180.05 20.1 180.95 16.9 M192.9 23.3 L191.65 26.6 202.8 26.3 201.1 31.7 181.25 31.7 184.65 23.3 192.9 23.3 M166.25 20.1 L166.05 20.0 Q164.1 19.05 161.15 19.45 L160.95 20.1 152.45 20.1 153.55 16.9 174.65 16.9 Q175.75 18.3 176.1 20.1 L166.25 20.1 M159.85 23.3 L157.05 31.7 148.55 31.7 151.4 23.3 159.85 23.3 M165.2 31.7 Q167.1 28.4 167.75 25.7 L168.05 23.3 176.15 23.3 175.95 25.7 Q175.5 28.8 174.4 31.7 L165.2 31.7 M128.1 16.9 L143.25 16.9 142.8 20.1 137.4 20.1 137.5 19.7 133.15 19.7 132.95 20.1 126.4 20.1 128.1 16.9 M142.35 23.3 L141.2 31.7 134.35 31.7 136.55 23.3 142.35 23.3 M120.25 31.7 L124.7 23.3 131.45 23.3 127.45 31.7 120.25 31.7 M114.85 16.9 L117.85 20.1 85.35 20.1 87.3 18.0 88.6 16.9 114.85 16.9 M111.45 23.3 L107.95 24.9 106.8 23.3 111.45 23.3 M93.25 23.3 L92.55 23.9 90.95 25.7 Q89.15 28.2 88.7 31.65 L88.7 31.7 81.05 31.7 81.1 30.8 Q81.25 28.1 82.15 25.7 82.55 24.45 83.2 23.3 L93.25 23.3 M64.55 23.3 L63.3 27.25 Q67.75 26.95 70.05 25.85 L70.35 25.7 Q72.15 24.75 72.55 23.3 L80.2 23.3 79.55 25.7 Q78.0 29.55 73.4 31.7 L53.65 31.7 56.55 23.3 64.55 23.3 M71.3 20.1 Q70.55 19.6 69.35 19.25 L67.35 19.15 65.8 19.25 65.55 20.1 57.65 20.1 58.75 16.9 78.95 16.9 Q80.0 18.25 80.35 20.1 L71.3 20.1 M49.35 16.9 L48.8 20.1 38.45 20.1 39.25 16.9 49.35 16.9 M48.3 23.3 L46.9 31.7 16.15 31.7 20.1 25.7 21.7 23.3 30.85 23.3 29.55 25.7 27.9 29.05 36.1 29.05 37.6 23.3 48.3 23.3 M23.85 20.1 L26.05 16.9 34.85 16.9 32.7 20.1 23.85 20.1" fill="#ffeb62" fill-rule="evenodd" stroke="none"/>
    <path d="M230.45 19.35 L217.35 19.35 221.0 9.0 235.7 9.0 230.45 19.35 M216.4 22.1 L229.1 22.1 227.75 24.8 215.45 24.8 216.4 22.1 M180.95 16.9 L182.1 12.75 210.85 12.75 209.25 16.9 180.95 16.9 M194.1 20.1 L192.9 23.3 184.65 23.3 185.9 20.2 179.95 20.45 180.05 20.1 194.1 20.1 M168.05 23.3 L168.05 23.1 Q168.05 21.1 166.25 20.1 L176.1 20.1 176.2 21.65 176.15 23.3 168.05 23.3 M160.95 20.1 L159.85 23.3 151.4 23.3 152.45 20.1 160.95 20.1 M174.65 16.9 L153.55 16.9 155.0 12.55 Q164.55 12.45 169.0 13.65 172.8 14.7 174.65 16.9 M128.1 16.9 L130.3 12.75 143.8 12.9 143.25 16.9 128.1 16.9 M142.8 20.1 L142.35 23.3 136.55 23.3 137.4 20.1 142.8 20.1 M124.7 23.3 L126.4 20.1 132.95 20.1 131.45 23.3 124.7 23.3 M117.85 20.1 L118.0 20.3 111.45 23.3 106.8 23.3 Q104.55 20.9 100.65 20.9 96.2 20.9 93.25 23.3 L83.2 23.3 Q84.05 21.65 85.35 20.1 L117.85 20.1 M88.6 16.9 Q94.0 12.65 102.65 12.65 109.85 12.65 114.85 16.9 L88.6 16.9 M65.55 20.1 L64.55 23.3 56.55 23.3 57.65 20.1 65.55 20.1 M72.55 23.3 L72.6 22.1 Q72.45 20.9 71.3 20.1 L80.35 20.1 80.4 20.7 80.3 22.6 80.2 23.3 72.55 23.3 M58.75 16.9 L60.1 13.05 64.75 12.75 69.5 12.95 Q71.8 13.05 74.4 13.95 77.45 14.9 78.95 16.9 L58.75 16.9 M26.05 16.9 L34.65 4.4 51.35 4.4 49.35 16.9 39.25 16.9 39.9 14.45 36.7 14.45 34.85 16.9 26.05 16.9 M48.8 20.1 L48.3 23.3 37.6 23.3 38.45 20.1 48.8 20.1 M21.7 23.3 L23.85 20.1 32.7 20.1 30.85 23.3 21.7 23.3" fill="#faee9c" fill-rule="evenodd" stroke="none"/>
  </g>
</svg>
