<?xml version="1.0" encoding="UTF-8" standalone="no"?>
<svg xmlns:ffdec="https://www.free-decompiler.com/flash" xmlns:xlink="http://www.w3.org/1999/xlink" ffdec:objectType="shape" height="1007.25px" width="1169.3px" xmlns="http://www.w3.org/2000/svg">
  <g transform="matrix(1.0, 0.0, 0.0, 1.0, 250.6, 272.6)">
    <path d="M320.0 -160.0 Q156.0 -160.0 36.0 -44.0 -80.0 76.0 -80.0 240.0 -80.0 404.0 36.0 520.0 156.0 640.0 320.0 640.0 488.0 640.0 600.0 520.0 720.0 404.0 720.0 240.0 720.0 76.0 600.0 -44.0 488.0 -160.0 320.0 -160.0 M918.2 734.15 L-250.1 734.15 -250.1 -272.1 918.2 -272.1 918.2 734.15" fill="#000000" fill-opacity="0.99607843" fill-rule="evenodd" stroke="none"/>
    <path d="M918.2 734.15 L-250.1 734.15 -250.1 -272.1 918.2 -272.1 918.2 734.15 Z" fill="none" stroke="#ff0000" stroke-linecap="round" stroke-linejoin="round" stroke-opacity="0.99607843" stroke-width="1.0"/>
  </g>
</svg>
