<?xml version="1.0" encoding="UTF-8" standalone="no"?>
<svg xmlns:ffdec="https://www.free-decompiler.com/flash" xmlns:xlink="http://www.w3.org/1999/xlink" ffdec:objectType="shape" height="180.5px" width="105.9px" xmlns="http://www.w3.org/2000/svg">
  <g transform="matrix(1.0, 0.0, 0.0, 1.0, -45.0, 111.95)">
    <path d="M89.9 56.4 Q91.65 58.8 91.9 61.95 92.0 63.2 91.7 64.6 84.6 57.3 74.45 56.6 L74.9 55.55 76.2 53.65 76.75 53.2 76.8 53.15 77.8 52.45 Q79.15 51.7 80.8 51.75 85.15 51.75 88.5 54.8 L88.55 54.85 89.9 56.4" fill="#930000" fill-rule="evenodd" stroke="none"/>
    <path d="M95.0 47.25 Q93.95 51.35 90.5 53.8 L90.4 53.85 89.85 53.35 Q86.35 50.15 81.9 49.8 89.1 49.15 95.2 44.6 L95.0 47.25 M77.05 50.6 L76.9 49.8 79.05 49.9 Q78.0 50.1 77.05 50.6" fill="#6c0000" fill-rule="evenodd" stroke="none"/>
    <path d="M95.35 41.9 L96.75 40.8 97.0 42.5 Q97.45 45.35 96.95 47.7 95.75 52.55 91.65 55.4 93.6 58.2 93.9 61.8 94.05 64.1 93.15 66.9 L92.65 68.55 91.45 67.25 Q84.1 58.8 73.0 58.55 L71.6 58.5 72.1 57.2 73.05 54.8 73.05 54.75 Q73.75 53.05 75.3 51.8 L75.2 51.45 75.2 51.4 74.65 48.85 74.35 47.5 75.75 47.65 Q86.75 49.1 95.35 41.9 M95.0 47.25 L95.2 44.6 Q89.1 49.15 81.9 49.8 86.35 50.15 89.85 53.35 L90.4 53.85 90.5 53.8 Q93.95 51.35 95.0 47.25 M89.9 56.4 L88.55 54.85 88.5 54.8 Q85.15 51.75 80.8 51.75 79.15 51.7 77.8 52.45 L76.8 53.15 76.75 53.2 76.2 53.65 74.9 55.55 74.45 56.6 Q84.6 57.3 91.7 64.6 92.0 63.2 91.9 61.95 91.65 58.8 89.9 56.4 M77.05 50.6 Q78.0 50.1 79.05 49.9 L76.9 49.8 77.05 50.6" fill="#550000" fill-rule="evenodd" stroke="none"/>
    <path d="M91.6 -104.85 Q94.35 -103.15 96.4 -101.0 99.1 -98.05 100.3 -94.4 101.4 -90.95 101.25 -87.35 L100.9 -83.9 99.9 -79.15 Q99.5 -77.6 98.7 -76.05 L94.55 -71.5 Q98.55 -73.65 99.8 -75.2 101.05 -76.75 102.15 -79.65 103.25 -82.6 103.55 -86.05 107.65 -88.1 112.4 -88.3 114.8 -88.7 117.4 -88.25 121.5 -87.55 124.7 -84.8 127.85 -82.1 129.0 -79.05 130.1 -76.05 130.35 -74.25 130.6 -72.5 130.35 -70.15 L129.95 -67.5 129.6 -65.6 Q129.05 -60.5 125.1 -55.25 132.85 -61.55 132.35 -63.75 134.75 -63.65 137.85 -62.55 140.95 -61.45 144.0 -58.65 147.05 -55.85 148.55 -52.35 L149.4 -49.65 Q149.9 -47.1 149.0 -44.85 147.75 -41.85 144.85 -40.05 L142.45 -38.95 Q139.8 -37.95 137.1 -37.9 L134.55 -37.95 Q131.9 -38.25 129.3 -39.2 128.7 -39.3 119.55 -44.15 127.8 -38.5 128.7 -33.5 129.6 -28.5 128.85 -30.65 129.25 -28.15 127.95 -24.95 126.7 -22.0 124.7 -19.7 122.25 -17.0 118.85 -15.75 116.95 -14.95 114.9 -15.05 L112.45 -15.7 Q109.05 -16.85 106.75 -19.5 104.35 -22.25 103.4 -25.55 102.5 -28.6 102.65 -31.9 102.75 -34.9 103.4 -37.75 104.05 -40.7 102.75 -43.85 L102.45 -42.9 Q102.05 -41.4 99.95 -40.65 85.45 -51.3 75.3 -54.7 L78.5 -57.8 Q72.6 -54.7 66.25 -54.05 63.25 -53.8 60.4 -54.65 58.05 -55.45 56.45 -57.3 54.9 -59.1 54.9 -61.45 54.85 -64.05 56.45 -66.25 59.05 -69.8 61.75 -71.0 64.45 -72.25 65.7 -72.55 L74.9 -73.6 67.3 -75.2 Q64.3 -76.0 61.4 -76.95 58.5 -77.95 55.8 -79.3 53.8 -80.3 52.1 -81.6 50.55 -82.9 49.45 -84.5 48.35 -86.0 47.85 -87.7 47.25 -89.6 46.95 -91.55 46.45 -94.65 47.4 -97.4 48.35 -100.3 50.6 -102.4 54.2 -105.65 58.65 -107.4 62.3 -108.85 66.0 -109.45 L74.2 -110.05 Q83.65 -109.9 91.6 -104.85 M59.85 -104.6 Q57.2 -103.3 55.3 -101.5 L52.4 -98.55 Q50.95 -96.95 50.4 -94.85 49.1 -89.7 52.6 -85.65 55.5 -82.4 59.35 -80.4 62.15 -79.05 65.1 -77.95 67.3 -77.05 69.6 -76.5 L78.95 -74.6 Q83.55 -73.9 86.55 -70.4 L88.85 -67.55 Q90.0 -66.1 91.3 -64.95 94.95 -61.85 99.6 -61.15 L104.5 -61.3 109.55 -61.6 116.65 -62.8 Q117.8 -62.9 118.9 -63.35 121.05 -64.15 122.6 -65.75 125.9 -69.15 125.95 -74.0 126.05 -79.1 122.5 -82.8 119.05 -86.05 114.25 -86.1 109.45 -86.15 106.7 -82.5 103.95 -79.35 103.5 -73.85 101.35 -66.8 99.4 -67.25 96.9 -66.9 94.8 -68.6 L93.8 -69.8 Q93.35 -70.5 93.35 -71.25 93.3 -73.15 93.55 -75.0 L94.1 -78.95 94.05 -81.5 Q93.6 -84.5 92.55 -87.25 91.15 -91.05 88.7 -94.25 85.8 -97.9 81.75 -100.65 79.2 -102.4 76.5 -103.75 74.35 -104.9 72.05 -105.55 L67.2 -106.4 Q63.35 -106.25 59.85 -104.6 M123.95 -52.45 Q119.65 -50.65 115.2 -49.75 L106.3 -48.9 132.95 -42.25 Q137.1 -41.2 140.95 -43.15 143.65 -44.5 144.7 -47.05 145.1 -48.1 145.15 -49.25 145.2 -51.6 143.55 -53.3 140.4 -56.65 135.85 -56.65 132.7 -56.65 129.85 -54.9 126.9 -53.6 123.95 -52.45" fill="#ded9cb" fill-rule="evenodd" stroke="none"/>
    <path d="M91.6 -104.85 Q83.65 -109.9 74.2 -110.05 L66.0 -109.45 Q62.3 -108.85 58.65 -107.4 54.2 -105.65 50.6 -102.4 48.35 -100.3 47.4 -97.4 46.45 -94.65 46.95 -91.55 47.25 -89.6 47.85 -87.7 48.35 -86.0 49.45 -84.5 50.55 -82.9 52.1 -81.6 53.8 -80.3 55.8 -79.3 58.5 -77.95 61.4 -76.95 64.3 -76.0 67.3 -75.2 L74.9 -73.6 65.7 -72.55 Q64.45 -72.25 61.75 -71.0 59.05 -69.8 56.45 -66.25 54.85 -64.05 54.9 -61.45 54.9 -59.1 56.45 -57.3 58.05 -55.45 60.4 -54.65 63.25 -53.8 66.25 -54.05 72.6 -54.7 78.5 -57.8 L75.3 -54.7 Q85.45 -51.3 99.95 -40.65 102.05 -41.4 102.45 -42.9 L102.75 -43.85 Q104.05 -40.7 103.4 -37.75 102.75 -34.9 102.65 -31.9 102.5 -28.6 103.4 -25.55 104.35 -22.25 106.75 -19.5 109.05 -16.85 112.45 -15.7 L114.9 -15.05 Q116.95 -14.95 118.85 -15.75 122.25 -17.0 124.7 -19.7 126.7 -22.0 127.95 -24.95 129.25 -28.15 128.85 -30.65 129.6 -28.5 128.7 -33.5 127.8 -38.5 119.55 -44.15 128.7 -39.3 129.3 -39.2 131.9 -38.25 134.55 -37.95 L137.1 -37.9 Q139.8 -37.95 142.45 -38.95 L144.85 -40.05 Q147.75 -41.85 149.0 -44.85 149.9 -47.1 149.4 -49.65 L148.55 -52.35 Q147.05 -55.85 144.0 -58.65 140.95 -61.45 137.85 -62.55 134.75 -63.65 132.35 -63.75 132.85 -61.55 125.1 -55.25 129.05 -60.5 129.6 -65.6 L129.95 -67.5 130.35 -70.15 Q130.6 -72.5 130.35 -74.25 130.1 -76.05 129.0 -79.05 127.85 -82.1 124.7 -84.8 121.5 -87.55 117.4 -88.25 114.8 -88.7 112.4 -88.3 107.65 -88.1 103.55 -86.05 103.25 -82.6 102.15 -79.65 101.05 -76.75 99.8 -75.2 98.55 -73.65 94.55 -71.5 L98.7 -76.05 Q99.5 -77.6 99.9 -79.15 L100.9 -83.9 101.25 -87.35 Q101.4 -90.95 100.3 -94.4 99.1 -98.05 96.4 -101.0 94.35 -103.15 91.6 -104.85 M98.55 -101.3 Q100.0 -99.35 101.05 -97.2 102.05 -95.05 102.55 -92.65 L103.3 -87.75 Q106.55 -89.65 110.3 -90.0 L116.75 -89.8 Q120.45 -89.0 123.6 -87.0 127.65 -84.3 130.05 -80.05 132.45 -75.85 132.3 -71.05 132.25 -68.95 131.8 -66.7 136.15 -65.75 140.0 -63.5 142.55 -62.05 144.55 -60.1 147.25 -57.6 148.95 -54.6 150.95 -51.1 150.9 -46.9 150.85 -44.6 149.75 -42.8 L148.05 -40.4 146.0 -38.4 Q144.05 -36.95 141.7 -36.45 L132.85 -36.15 130.45 -36.7 Q131.05 -34.8 131.05 -32.9 L130.95 -29.35 Q130.75 -25.6 129.0 -22.6 L127.15 -19.6 Q125.7 -17.55 123.7 -16.2 121.6 -14.85 119.2 -14.3 115.2 -13.3 111.55 -14.7 110.1 -15.25 108.75 -16.05 106.7 -17.4 105.05 -19.15 102.05 -22.4 101.05 -27.0 L100.65 -30.0 Q100.5 -32.8 100.95 -35.75 L101.25 -37.65 Q74.2 -54.15 72.0 -53.5 L69.15 -52.55 62.35 -52.15 Q59.1 -52.55 56.5 -54.55 54.25 -56.25 53.45 -59.1 52.95 -60.75 53.2 -62.5 53.8 -66.35 56.6 -69.25 59.5 -72.35 63.5 -74.1 60.25 -74.95 56.95 -76.35 54.15 -77.55 51.65 -79.35 50.25 -80.35 49.0 -81.55 46.65 -83.85 45.7 -87.05 44.4 -91.55 45.55 -96.0 46.35 -99.1 48.5 -101.75 51.6 -105.6 56.3 -107.85 59.7 -109.5 63.65 -110.65 L71.85 -111.85 Q85.45 -112.75 95.9 -104.0 L98.55 -101.3" fill="#58524e" fill-rule="evenodd" stroke="none"/>
    <path d="M59.85 -104.6 Q63.35 -106.25 67.2 -106.4 L72.05 -105.55 Q74.35 -104.9 76.5 -103.75 79.2 -102.4 81.75 -100.65 85.8 -97.9 88.7 -94.25 91.15 -91.05 92.55 -87.25 93.6 -84.5 94.05 -81.5 L94.1 -78.95 93.55 -75.0 Q93.3 -73.15 93.35 -71.25 93.35 -70.5 93.8 -69.8 L94.8 -68.6 Q96.9 -66.9 99.4 -67.25 101.35 -66.8 103.5 -73.85 103.95 -79.35 106.7 -82.5 109.45 -86.15 114.25 -86.1 119.05 -86.05 122.5 -82.8 126.05 -79.1 125.95 -74.0 125.9 -69.15 122.6 -65.75 121.05 -64.15 118.9 -63.35 117.8 -62.9 116.65 -62.8 L109.55 -61.6 104.5 -61.3 99.6 -61.15 Q94.95 -61.85 91.3 -64.95 90.0 -66.1 88.85 -67.55 L86.55 -70.4 Q83.55 -73.9 78.95 -74.6 L69.6 -76.5 Q67.3 -77.05 65.1 -77.95 62.15 -79.05 59.35 -80.4 55.5 -82.4 52.6 -85.65 49.1 -89.7 50.4 -94.85 50.95 -96.95 52.4 -98.55 L55.3 -101.5 Q57.2 -103.3 59.85 -104.6 M123.95 -52.45 Q126.9 -53.6 129.85 -54.9 132.7 -56.65 135.85 -56.65 140.4 -56.65 143.55 -53.3 145.2 -51.6 145.15 -49.25 145.1 -48.1 144.7 -47.05 143.65 -44.5 140.95 -43.15 137.1 -41.2 132.95 -42.25 L106.3 -48.9 115.2 -49.75 Q119.65 -50.65 123.95 -52.45" fill="#f2efea" fill-rule="evenodd" stroke="none"/>
  </g>
</svg>
