<?xml version="1.0" encoding="UTF-8" standalone="no"?>
<svg xmlns:ffdec="https://www.free-decompiler.com/flash" xmlns:xlink="http://www.w3.org/1999/xlink" ffdec:objectType="shape" height="61.35px" width="42.9px" xmlns="http://www.w3.org/2000/svg">
  <g transform="matrix(1.0, 0.0, 0.0, 1.0, 13.2, 10.4)">
    <path d="M26.15 47.4 L26.1 47.45 26.15 47.4" fill="#ecdec6" fill-rule="evenodd" stroke="none"/>
    <path d="M12.6 44.2 L12.5 44.3 12.45 44.25 12.6 44.2" fill="#605146" fill-rule="evenodd" stroke="none"/>
    <path d="M26.1 47.45 L26.05 47.35 25.4 47.95 25.35 48.0 Q22.25 49.95 19.0 47.95 17.2 46.95 15.95 45.15 L13.2 41.8 12.15 40.8 10.4 38.6 Q9.55 37.4 8.95 35.6 L9.0 35.45 -6.55 10.25 -9.55 3.65 Q-13.2 -2.0 -8.3 -6.9 -3.4 -11.85 11.65 14.9 26.65 41.6 26.15 47.4 L26.1 47.45" fill="#f2efea" fill-rule="evenodd" stroke="none"/>
    <path d="M-6.55 10.25 L-11.2 3.65 Q-13.9 -1.05 -9.75 -8.0 L-8.0 -8.6 -5.25 -9.55 Q-4.15 -9.85 -1.15 -8.9 1.8 -7.95 3.6 -4.3 L3.55 -4.35 19.75 26.95 Q22.45 31.05 24.5 35.45 26.3 39.25 27.5 43.3 28.2 45.6 26.5 47.15 L26.15 47.4 Q26.65 41.6 11.65 14.9 -3.4 -11.85 -8.3 -6.9 -13.2 -2.0 -9.55 3.65 L-6.55 10.25" fill="#ded9cb" fill-rule="evenodd" stroke="none"/>
    <path d="M12.6 44.2 L11.0 42.15 10.4 41.65 -11.9 4.15 Q-13.95 0.7 -12.75 -3.2 -12.0 -6.2 -9.8 -8.05 -9.0 -8.7 -8.05 -9.15 L-7.65 -9.35 Q-4.25 -11.1 -0.4 -10.0 3.45 -8.85 5.35 -5.25 L24.65 31.5 25.35 33.15 25.85 34.2 26.1 34.7 26.65 35.55 Q28.55 38.85 29.5 42.85 30.5 47.25 26.5 49.65 L26.45 49.7 Q22.65 52.0 18.65 50.15 15.8 48.85 14.4 46.15 L13.5 45.5 Q14.15 45.95 13.0 44.45 L12.85 44.7 12.5 44.3 12.6 44.2 M26.15 47.4 L26.5 47.15 Q28.2 45.6 27.5 43.3 26.3 39.25 24.5 35.45 22.45 31.05 19.75 26.95 L3.55 -4.35 3.6 -4.3 Q1.8 -7.95 -1.15 -8.9 -4.15 -9.85 -5.25 -9.55 L-8.0 -8.6 -9.75 -8.0 Q-13.9 -1.05 -11.2 3.65 L-6.55 10.25 9.0 35.45 8.95 35.6 Q9.55 37.4 10.4 38.6 L12.15 40.8 13.2 41.8 15.95 45.15 Q17.2 46.95 19.0 47.95 22.25 49.95 25.35 48.0 L25.4 47.95 26.05 47.35 26.1 47.45 26.15 47.4" fill="#58524e" fill-rule="evenodd" stroke="none"/>
  </g>
</svg>
