<?xml version="1.0" encoding="UTF-8" standalone="no"?>
<svg xmlns:ffdec="https://www.free-decompiler.com/flash" xmlns:xlink="http://www.w3.org/1999/xlink" ffdec:objectType="shape" height="63.1px" width="22.45px" xmlns="http://www.w3.org/2000/svg">
  <g transform="matrix(1.0, 0.0, 0.0, 1.0, 7.9, 1.55)">
    <path d="M-0.85 57.55 L-0.9 57.4 -0.9 57.35 -0.85 57.55" fill="#4b3121" fill-rule="evenodd" stroke="none"/>
    <path d="M-5.85 13.0 L-5.75 13.6 -5.7 13.55 -5.5 15.35 -5.7 14.15 -5.85 13.0 M8.6 17.0 L7.8 12.05 8.0 12.1 8.6 17.0" fill="#5c4730" fill-rule="evenodd" stroke="none"/>
    <path d="M-3.7 13.35 L-3.45 13.3 -3.45 13.35 -3.7 13.35" fill="#cabaaa" fill-rule="evenodd" stroke="none"/>
    <path d="M8.75 45.85 L8.7 45.9 8.8 45.85 8.75 45.85" fill="#605146" fill-rule="evenodd" stroke="none"/>
    <path d="M-1.1 48.15 L0.05 48.35 Q3.55 48.9 7.1 48.3 L9.35 47.8 9.35 47.75 11.5 47.0 11.5 47.65 11.5 47.75 Q11.3 48.55 9.7 49.45 L9.3 49.65 7.0 50.35 4.95 50.65 Q2.2 50.85 0.45 50.1 L0.05 49.95 Q-1.8 48.95 -1.1 48.8 L-1.1 48.15" fill="#8f0000" fill-rule="evenodd" stroke="none"/>
    <path d="M-3.1 47.6 L-1.95 47.95 -1.1 48.15 -1.1 48.8 Q-1.8 48.95 0.05 49.95 L0.45 50.1 Q2.2 50.85 4.95 50.65 L7.0 50.35 9.3 49.65 9.7 49.45 Q11.3 48.55 11.5 47.75 L11.5 47.65 11.5 47.0 11.75 46.95 13.5 46.1 13.5 48.2 13.5 48.45 13.4 48.65 13.05 49.05 13.0 49.05 13.0 49.1 11.65 49.9 11.1 50.15 9.45 50.9 9.1 51.0 9.05 51.0 7.2 51.55 7.15 51.55 Q4.15 52.15 1.25 51.6 L1.2 51.6 0.55 51.45 -0.5 51.15 -1.35 50.85 -2.45 50.4 -2.5 50.35 -2.55 50.35 -2.6 50.3 -2.65 50.25 -2.8 50.15 -3.05 49.8 -3.1 49.35 -3.1 47.6" fill="#460000" fill-rule="evenodd" stroke="none"/>
    <path d="M4.4 -0.7 L4.4 -0.45 5.65 12.4 5.8 12.35 9.85 29.95 10.1 31.25 Q11.25 36.8 12.1 39.45 L10.9 40.0 10.65 40.1 8.45 40.9 8.25 40.95 6.3 41.4 Q6.4 37.5 4.25 19.5 2.1 1.5 1.65 0.05 L1.15 -1.5 1.5 -1.45 1.85 -1.45 3.65 -1.25 4.4 -0.7 M-0.3 41.35 L-1.9 40.95 -1.85 40.95 -2.25 40.85 -2.3 40.85 -3.15 40.55 -2.85 35.45 Q-2.5 25.2 -3.7 13.35 L-3.45 13.35 -0.5 39.3 -0.3 41.35 M8.7 45.9 L5.65 47.0 Q3.55 47.65 0.35 46.4 L0.35 46.35 -1.1 46.05 -1.45 46.0 -1.4 46.0 -2.95 45.5 -3.1 42.65 -2.4 42.85 -2.4 42.9 -2.05 42.95 -0.4 43.35 6.35 43.35 6.5 43.3 8.65 42.9 8.8 42.9 8.9 42.85 11.05 42.1 11.35 42.0 11.4 42.0 12.4 41.55 12.55 44.4 11.5 44.85 11.0 45.1 9.1 45.75 8.95 45.8 8.75 45.85 8.8 45.85 8.7 45.9" fill="#ded9cb" fill-rule="evenodd" stroke="none"/>
    <path d="M6.3 41.4 L6.25 41.4 Q3.05 41.9 0.0 41.4 L-0.3 41.35 -0.5 39.3 -3.45 13.35 -3.45 13.3 Q-4.6 6.05 -5.75 0.95 L-5.95 0.15 Q-4.5 -1.55 -2.35 -1.55 L1.15 -1.5 1.65 0.05 Q2.1 1.5 4.25 19.5 6.4 37.5 6.3 41.4" fill="#f2efea" fill-rule="evenodd" stroke="none"/>
    <path d="M4.4 -0.7 L4.65 -1.15 Q4.9 -1.5 5.3 -1.55 L6.05 -1.3 6.4 -0.65 8.0 12.1 7.8 12.05 8.6 17.0 8.6 17.15 Q10.6 28.35 14.2 39.5 L14.25 39.65 14.3 39.8 14.3 39.9 14.55 44.9 14.3 45.65 13.9 45.9 13.5 46.1 11.75 46.95 11.5 47.0 9.35 47.75 9.35 47.8 7.1 48.3 Q3.55 48.9 0.05 48.35 L-1.1 48.15 -1.95 47.95 -3.1 47.6 -4.2 47.2 -4.6 46.95 -4.85 46.6 -4.95 46.25 -5.2 41.2 -5.2 41.15 -5.2 41.1 Q-4.2 29.3 -5.5 15.35 L-5.7 13.55 -5.75 13.6 -5.85 13.0 -7.9 0.4 -7.45 0.2 Q-7.05 0.15 -6.75 0.4 -6.4 0.65 -6.1 -0.4 L-5.95 0.15 -5.75 0.95 Q-4.6 6.05 -3.45 13.3 L-3.7 13.35 Q-2.5 25.2 -2.85 35.45 L-3.15 40.55 -2.3 40.85 -2.25 40.85 -1.85 40.95 -1.9 40.95 -0.3 41.35 0.0 41.4 Q3.05 41.9 6.25 41.4 L6.3 41.4 8.25 40.95 8.45 40.9 10.65 40.1 10.9 40.0 12.1 39.45 Q11.25 36.8 10.1 31.25 L9.85 29.95 5.8 12.35 5.65 12.4 4.4 -0.45 4.4 -0.7 M8.75 45.85 L8.95 45.8 9.1 45.75 11.0 45.1 11.5 44.85 12.55 44.4 12.4 41.55 11.4 42.0 11.35 42.0 11.05 42.1 8.9 42.85 8.8 42.9 8.65 42.9 6.5 43.3 6.35 43.35 -0.4 43.35 -2.05 42.95 -2.4 42.9 -2.4 42.85 -3.1 42.65 -2.95 45.5 -1.4 46.0 -1.45 46.0 -1.1 46.05 0.35 46.35 0.35 46.4 Q3.55 47.65 5.65 47.0 L8.7 45.9 8.75 45.85" fill="#58524e" fill-rule="evenodd" stroke="none"/>
    <path d="M8.5 58.5 L7.15 59.4 Q5.2 59.9 2.45 58.15 L2.45 58.2 Q1.5 57.55 1.25 56.4 L1.25 56.3 1.15 55.3 0.8 54.65 0.55 51.45 1.2 51.6 1.25 51.6 Q4.15 52.15 7.15 51.55 7.5 54.55 8.5 58.5" fill="#f0a866" fill-rule="evenodd" stroke="none"/>
    <path d="M9.45 50.9 L9.95 56.0 9.65 56.65 8.5 58.5 Q7.5 54.55 7.15 51.55 L7.2 51.55 9.05 51.0 9.1 51.0 9.45 50.9" fill="#e79d5a" fill-rule="evenodd" stroke="none"/>
    <path d="M11.65 49.9 L11.95 56.0 11.95 56.1 11.95 56.4 11.65 57.1 11.2 57.4 11.65 57.15 Q10.2 60.6 7.75 61.3 5.15 62.25 1.4 59.85 L1.35 59.85 -0.2 58.2 -0.5 58.0 -0.85 57.55 -0.9 57.35 -1.35 50.85 -0.5 51.15 0.55 51.45 0.8 54.65 1.15 55.3 1.25 56.3 1.25 56.4 Q1.5 57.55 2.45 58.2 L2.45 58.15 Q5.2 59.9 7.15 59.4 L8.5 58.5 9.65 56.65 9.95 56.0 9.45 50.9 11.1 50.15 11.65 49.9" fill="#654425" fill-rule="evenodd" stroke="none"/>
  </g>
</svg>
