<?xml version="1.0" encoding="UTF-8" standalone="no"?>
<svg xmlns:ffdec="https://www.free-decompiler.com/flash" xmlns:xlink="http://www.w3.org/1999/xlink" ffdec:objectType="shape" height="47.55px" width="31.25px" xmlns="http://www.w3.org/2000/svg">
  <g transform="matrix(1.0, 0.0, 0.0, 1.0, 15.6, 5.75)">
    <path d="M-11.4 38.55 L-11.35 38.55 -11.35 38.6 -11.4 38.55" fill="#4b3121" fill-rule="evenodd" stroke="none"/>
    <path d="M4.25 -2.3 L4.25 -2.2 4.05 -2.25 4.25 -2.3 M5.6 23.45 L5.55 23.45 5.5 23.35 5.6 23.45 M-1.0 12.5 L-0.8 12.65 -0.9 12.65 -1.0 12.5 M-13.3 28.8 L-13.3 28.75 -13.25 28.8 -13.3 28.8" fill="#a76d4b" fill-rule="evenodd" stroke="none"/>
    <path d="M5.55 23.45 L5.65 23.7 6.2 24.75 6.6 25.45 6.65 25.45 Q8.0 27.2 10.45 27.7 11.2 27.8 11.85 27.35 12.95 26.55 13.3 25.15 13.8 23.05 13.6 21.05 13.2 16.5 10.6 13.15 L10.6 13.1 10.4 12.65 10.35 12.65 9.8 12.05 9.7 11.55 9.2 11.1 6.8 4.8 7.5 4.7 8.1 5.15 10.4 9.1 Q11.55 3.7 7.45 -1.05 L7.45 -1.1 Q6.6 -1.95 5.65 -2.35 6.95 -2.6 7.35 -3.8 L8.85 -2.55 8.9 -2.55 Q14.55 3.95 11.85 11.5 L12.15 11.8 Q15.1 15.65 15.6 20.8 15.8 23.2 15.25 25.7 14.65 27.95 12.95 29.15 12.05 29.75 11.1 29.8 L10.0 31.65 9.5 32.1 9.35 32.15 9.15 32.2 Q6.3 32.9 4.0 31.45 3.7 32.55 2.95 33.45 1.7 35.0 -0.05 35.05 -0.25 37.2 -1.1 39.35 L-1.15 39.4 Q-1.65 40.4 -2.6 41.0 L-2.65 41.05 Q-5.45 42.55 -8.25 41.1 -10.15 40.2 -11.35 38.55 L-11.4 38.55 Q-14.0 35.2 -14.9 31.0 -16.0 25.85 -15.4 20.65 -15.15 18.2 -14.55 15.9 L-12.1 6.95 -12.0 6.75 -10.3 3.5 -10.0 3.1 -9.9 2.6 Q-6.6 -4.95 -1.0 -5.75 -1.0 -4.4 -0.05 -3.55 -4.0 -4.15 -6.1 -0.2 L-8.45 3.95 -8.55 4.55 -10.2 7.65 -10.25 7.75 -12.6 16.45 -13.4 20.9 Q-13.9 24.85 -13.25 28.8 L-13.3 28.75 -13.3 28.8 -13.1 29.85 -13.0 30.2 -12.95 30.5 -12.95 30.65 -12.9 30.8 -12.85 31.0 -12.7 31.45 -12.65 31.65 -12.35 32.65 -11.75 34.05 -9.8 37.2 -9.8 37.25 Q-8.85 38.5 -7.4 39.2 -5.5 40.15 -3.6 39.15 L-3.55 39.15 -2.95 38.5 -2.95 38.45 Q-2.05 36.2 -2.0 33.95 L-2.0 33.9 -1.95 32.05 Q-2.0 30.2 -2.3 28.45 -3.05 24.9 -2.9 21.4 -2.85 17.45 -1.7 13.5 L-1.7 13.4 -1.35 12.85 -0.9 12.65 -0.8 12.65 -0.75 12.65 -0.15 12.85 Q1.8 14.3 2.8 16.65 L2.8 16.7 5.5 23.35 5.55 23.45 M1.05 17.85 L0.95 17.5 0.8 17.05 Q-1.55 22.15 -0.35 28.05 0.0 30.0 0.05 32.0 L0.05 32.05 0.05 32.9 Q0.85 32.8 1.45 32.1 2.2 31.2 2.2 29.95 L1.1 18.95 1.05 17.85 M8.5 30.2 L8.9 29.45 Q5.5 28.4 4.0 24.95 L3.65 24.1 4.15 28.9 4.2 29.0 Q6.05 30.7 8.5 30.2" fill="#654425" fill-rule="evenodd" stroke="none"/>
    <path d="M4.25 -2.2 Q5.5 0.0 5.5 2.85 5.5 3.55 4.5 6.85 4.5 7.65 7.65 12.9 10.75 18.2 10.75 20.6 10.75 21.5 10.1 22.8 9.25 24.55 7.85 24.55 6.85 24.55 5.6 23.45 L5.5 23.35 2.8 16.7 2.8 16.65 Q1.8 14.3 -0.15 12.85 L-0.75 12.65 -0.8 12.65 -1.0 12.5 Q-1.85 11.85 -2.65 11.85 -5.0 11.85 -5.1 23.65 -5.2 35.45 -7.8 35.45 -9.7 35.45 -13.25 28.8 -13.9 24.85 -13.4 20.9 L-12.6 16.45 -10.25 7.75 -10.2 7.65 -8.55 4.55 -8.45 3.95 -6.1 -0.2 Q-4.0 -4.15 -0.05 -3.55 0.75 -2.8 4.05 -2.25 L4.25 -2.2" fill="#f0a866" fill-rule="evenodd" stroke="none"/>
    <path d="M4.25 -2.2 L4.25 -2.3 5.0 -2.3 5.65 -2.35 Q6.6 -1.95 7.45 -1.1 L7.45 -1.05 Q11.55 3.7 10.4 9.1 L8.1 5.15 7.5 4.7 6.8 4.8 9.2 11.1 9.7 11.55 9.8 12.05 10.35 12.65 10.4 12.65 10.6 13.1 10.6 13.15 Q13.2 16.5 13.6 21.05 13.8 23.05 13.3 25.15 12.95 26.55 11.85 27.35 11.2 27.8 10.45 27.7 8.0 27.2 6.65 25.45 L6.6 25.45 6.2 24.75 5.65 23.7 5.55 23.45 5.6 23.45 Q6.85 24.55 7.85 24.55 9.25 24.55 10.1 22.8 10.75 21.5 10.75 20.6 10.75 18.2 7.65 12.9 4.5 7.65 4.5 6.85 5.5 3.55 5.5 2.85 5.5 0.0 4.25 -2.2 M1.05 17.85 L1.1 18.95 2.2 29.95 Q2.2 31.2 1.45 32.1 0.85 32.8 0.05 32.9 L0.05 32.05 0.05 32.0 Q0.0 30.0 -0.35 28.05 -1.55 22.15 0.8 17.05 L0.95 17.5 1.05 17.85 M8.5 30.2 Q6.05 30.7 4.2 29.0 L4.15 28.9 3.65 24.1 4.0 24.95 Q5.5 28.4 8.9 29.45 L8.5 30.2 M-13.25 28.8 Q-9.7 35.45 -7.8 35.45 -5.2 35.45 -5.1 23.65 -5.0 11.85 -2.65 11.85 -1.85 11.85 -1.0 12.5 L-0.9 12.65 -1.35 12.85 -1.7 13.4 -1.7 13.5 Q-2.85 17.45 -2.9 21.4 -3.05 24.9 -2.3 28.45 -2.0 30.2 -1.95 32.05 L-2.0 33.9 -2.0 33.95 Q-2.05 36.2 -2.95 38.45 L-2.95 38.5 -3.55 39.15 -3.6 39.15 Q-5.5 40.15 -7.4 39.2 -8.85 38.5 -9.8 37.25 L-9.8 37.2 -11.75 34.05 -12.35 32.65 -12.65 31.65 -12.7 31.45 -12.85 31.0 -12.9 30.8 -12.95 30.65 -12.95 30.5 -13.0 30.2 -13.1 29.85 -13.3 28.8 -13.25 28.8" fill="#e79d5a" fill-rule="evenodd" stroke="none"/>
  </g>
</svg>
