<?xml version="1.0" encoding="UTF-8" standalone="no"?>
<svg xmlns:ffdec="https://www.free-decompiler.com/flash" xmlns:xlink="http://www.w3.org/1999/xlink" ffdec:objectType="shape" height="29.35px" width="21.3px" xmlns="http://www.w3.org/2000/svg">
  <g transform="matrix(1.0, 0.0, 0.0, 1.0, 2.4, 24.85)">
    <path d="M2.35 -2.45 Q4.8 -1.55 8.3 -1.55 11.8 -1.55 14.3 -2.45 15.95 -3.1 16.7 -3.9 L16.9 -2.75 Q16.8 -0.7 14.5 0.8 11.9 2.5 8.25 2.5 4.6 2.5 2.0 0.85 L2.0 0.8 Q-0.35 -0.65 -0.4 -2.75 L-0.1 -4.0 Q0.6 -3.15 2.35 -2.45" fill="#930000" fill-rule="evenodd" stroke="none"/>
    <path d="M2.25 -6.35 L2.2 -5.8 2.2 -4.85 2.4 -4.75 3.15 -4.3 3.05 -4.35 3.05 -4.3 Q1.5 -4.9 1.35 -5.55 L1.65 -5.95 1.65 -6.0 2.25 -6.35 M12.25 -3.95 L12.75 -4.05 9.3 -3.55 12.2 -3.95 12.25 -3.95 M13.35 -4.25 L13.45 -5.2 13.65 -6.7 14.25 -6.4 14.1 -6.5 14.2 -6.45 14.45 -6.35 14.5 -6.3 14.55 -6.3 15.15 -5.85 15.3 -5.55 Q15.15 -4.9 13.6 -4.3 L13.6 -4.35 13.35 -4.25" fill="#4a321c" fill-rule="evenodd" stroke="none"/>
    <path d="M2.3 -8.75 L2.3 -7.85 2.25 -6.35 1.65 -6.0 1.65 -5.95 1.35 -5.55 Q1.5 -4.9 3.05 -4.3 L3.05 -4.35 3.15 -4.3 3.6 -4.0 3.85 -3.85 3.95 -3.8 4.0 -3.8 Q5.25 -3.25 7.5 -3.4 L7.55 -3.4 9.3 -3.55 12.75 -4.05 13.15 -4.15 13.35 -4.15 13.35 -4.25 13.6 -4.35 13.6 -4.3 Q15.15 -4.9 15.3 -5.55 L15.15 -5.85 14.55 -6.3 14.5 -6.3 14.45 -6.35 14.2 -6.45 14.1 -6.5 14.25 -6.4 13.65 -6.7 13.7 -7.2 13.9 -8.85 14.45 -8.6 14.35 -8.6 15.25 -8.15 15.35 -8.1 16.35 -7.45 16.45 -7.4 16.5 -7.35 16.6 -7.25 16.65 -7.25 Q18.85 -5.35 18.9 -2.75 L18.9 -2.7 Q18.9 0.4 15.6 2.5 12.5 4.5 8.25 4.5 3.9 4.5 0.9 2.5 L0.95 2.5 Q-2.45 0.35 -2.4 -2.75 -2.45 -5.45 0.2 -7.5 L0.35 -7.6 0.95 -8.0 2.15 -8.7 2.2 -8.7 2.3 -8.75 M2.35 -2.45 Q0.6 -3.15 -0.1 -4.0 L-0.4 -2.75 Q-0.35 -0.65 2.0 0.8 L2.0 0.85 Q4.6 2.5 8.25 2.5 11.9 2.5 14.5 0.8 16.8 -0.7 16.9 -2.75 L16.7 -3.9 Q15.95 -3.1 14.3 -2.45 11.8 -1.55 8.3 -1.55 4.8 -1.55 2.35 -2.45" fill="#550000" fill-rule="evenodd" stroke="none"/>
    <path d="M2.3 -8.75 Q2.45 -16.3 2.05 -22.75 2.05 -23.2 2.3 -23.5 2.55 -23.8 2.95 -23.85 L13.7 -24.85 14.25 -24.75 14.65 -24.35 14.8 -23.8 Q14.65 -16.6 13.9 -8.85 L13.7 -7.2 13.65 -6.7 13.45 -5.2 13.35 -4.25 13.35 -4.15 13.15 -4.15 12.75 -4.05 12.25 -3.95 12.3 -5.5 12.35 -7.1 12.4 -7.55 12.4 -8.25 12.45 -9.35 12.8 -22.75 4.1 -21.95 4.35 -12.3 4.25 -9.45 4.2 -8.05 4.15 -7.05 4.05 -6.05 3.9 -4.05 3.85 -3.85 3.6 -4.0 3.15 -4.3 2.4 -4.75 2.2 -4.85 2.2 -5.8 2.25 -6.35 2.3 -7.85 2.3 -8.75" fill="#654425" fill-rule="evenodd" stroke="none"/>
    <path d="M3.85 -3.85 L3.9 -4.05 4.05 -6.05 4.15 -7.05 4.2 -8.05 4.25 -9.45 4.35 -12.3 Q8.6 -12.35 11.25 -9.65 L12.4 -8.25 12.4 -7.55 12.35 -7.1 12.3 -5.5 12.25 -3.95 12.2 -3.95 9.3 -3.55 7.55 -3.4 7.5 -3.4 Q5.25 -3.25 4.0 -3.8 L3.95 -3.8 3.85 -3.85" fill="#f0a866" fill-rule="evenodd" stroke="none"/>
    <path d="M4.35 -12.3 L4.1 -21.95 12.8 -22.75 12.45 -9.35 12.4 -8.25 11.25 -9.65 Q8.6 -12.35 4.35 -12.3" fill="#e79d5a" fill-rule="evenodd" stroke="none"/>
  </g>
</svg>
