<?xml version="1.0" encoding="UTF-8" standalone="no"?>
<svg xmlns:ffdec="https://www.free-decompiler.com/flash" xmlns:xlink="http://www.w3.org/1999/xlink" ffdec:objectType="shape" height="47.15px" width="53.0px" xmlns="http://www.w3.org/2000/svg">
  <g transform="matrix(1.0, 0.0, 0.0, 1.0, 29.5, 3.55)">
    <path d="M-6.25 -0.1 L-6.25 -0.05 -6.3 -0.05 -6.25 -0.1" fill="#f1ba87" fill-rule="evenodd" stroke="none"/>
    <path d="M1.8 -3.35 L2.15 -3.3 1.8 -3.35 M13.35 16.55 L13.3 16.6 13.1 16.3 13.35 16.55 M-3.7 -1.75 L-3.8 -1.65 -3.85 -1.65 -3.7 -1.75 M18.5 23.25 L18.55 23.25 18.5 23.25 M10.95 36.65 L11.0 36.65 10.95 36.7 10.95 36.65 M9.95 37.4 L10.0 37.4 9.95 37.4 M8.1 37.85 L7.95 37.75 7.9 37.75 8.1 37.85 M7.35 36.5 L7.35 37.05 7.25 36.55 7.35 36.5" fill="#a76d4b" fill-rule="evenodd" stroke="none"/>
    <path d="M1.8 -3.35 L2.15 -3.3 3.25 -1.55 4.55 1.8 Q6.2 4.85 10.25 8.1 13.6 10.75 16.45 14.15 20.0 18.35 20.0 20.65 20.0 21.95 19.2 21.95 17.95 21.95 13.4 16.6 L13.35 16.55 13.1 16.3 12.5 15.25 11.75 14.1 10.9 13.0 10.4 12.7 10.35 12.7 10.3 12.7 9.65 12.85 9.65 12.9 9.7 13.0 9.85 13.35 7.15 11.45 7.05 11.75 Q7.05 12.95 9.9 17.85 12.75 22.75 12.75 27.6 12.3 32.7 10.1 32.7 8.05 32.7 6.1 24.35 5.05 19.8 4.1 17.75 L4.1 17.7 4.1 17.45 4.0 17.45 Q3.25 15.95 2.55 15.95 1.5 15.95 1.05 17.45 L0.8 18.95 Q0.8 20.75 1.8 24.4 2.75 28.05 2.75 29.75 2.75 31.8 1.55 34.3 -0.3 38.2 -4.0 38.2 -5.35 38.2 -6.0 35.25 L-6.35 32.3 Q-6.35 29.95 -5.1 26.0 -3.85 22.1 -3.85 19.8 -3.85 17.45 -5.75 14.7 -7.6 12.05 -8.95 12.05 -11.35 12.05 -14.35 15.25 -17.3 18.45 -19.95 18.45 -22.5 18.45 -22.5 15.95 -22.5 13.25 -20.4 11.35 -18.3 9.45 -12.8 7.2 -4.7 3.8 -3.8 -1.65 L-3.7 -1.75 -3.45 -1.9 -3.4 -1.9 -1.55 -2.8 -0.8 -3.15 1.3 -3.35 1.8 -3.35" fill="#f0a866" fill-rule="evenodd" stroke="none"/>
    <path d="M13.35 16.55 L13.4 16.6 Q17.95 21.95 19.2 21.95 20.0 21.95 20.0 20.65 20.0 18.35 16.45 14.15 13.6 10.75 10.25 8.1 6.2 4.85 4.55 1.8 L3.25 -1.55 2.15 -3.3 4.4 -2.9 Q6.05 -1.8 7.0 -0.55 L8.0 1.15 8.1 1.6 8.15 1.65 8.4 2.1 Q12.0 5.5 15.1 9.15 L18.1 12.9 Q20.05 15.4 21.3 18.25 21.95 19.85 21.6 21.55 L20.9 23.0 18.5 23.25 Q17.05 22.95 16.2 21.65 14.55 19.25 13.3 16.6 L13.35 16.55 M-3.8 -1.65 Q-4.7 3.8 -12.8 7.2 -18.3 9.45 -20.4 11.35 -22.5 13.25 -22.5 15.95 -22.5 18.45 -19.95 18.45 -17.3 18.45 -14.35 15.25 -11.35 12.05 -8.95 12.05 -7.6 12.05 -5.75 14.7 -3.85 17.45 -3.85 19.8 -3.85 22.1 -5.1 26.0 -6.35 29.95 -6.35 32.3 L-6.0 35.25 Q-5.35 38.2 -4.0 38.2 -0.3 38.2 1.55 34.3 2.75 31.8 2.75 29.75 2.75 28.05 1.8 24.4 0.8 20.75 0.8 18.95 L1.05 17.45 Q1.5 15.95 2.55 15.95 3.25 15.95 4.0 17.45 L3.65 17.5 3.2 17.85 Q2.85 18.3 2.85 18.85 L2.85 18.9 Q2.8 19.75 2.9 20.6 L2.9 20.65 Q3.4 24.0 3.5 27.5 3.5 30.7 3.0 33.95 2.55 36.9 0.75 39.35 -0.7 41.25 -3.05 41.7 L-5.6 41.75 Q-6.55 41.5 -6.95 40.65 -8.4 37.7 -7.7 34.5 L-6.75 29.7 -5.35 22.0 Q-5.15 20.65 -5.3 19.3 -5.65 16.9 -7.3 14.95 L-7.35 14.95 Q-8.45 13.6 -10.1 13.55 L-10.4 13.6 Q-12.05 14.15 -13.2 15.5 L-17.6 19.75 -17.65 19.8 -19.95 21.4 -20.0 21.45 -21.95 21.95 Q-25.15 22.05 -27.2 19.75 L-27.2 19.7 -27.55 19.05 Q-28.05 17.2 -26.85 15.6 L-24.75 12.9 Q-23.95 11.85 -22.85 11.1 -21.5 10.2 -20.0 9.6 L-20.05 9.6 Q-15.3 7.75 -10.65 5.5 L-8.9 4.15 -5.85 1.05 Q-4.4 -0.85 -4.8 -0.75 L-4.4 -0.9 -4.2 -1.3 -4.15 -1.4 -3.85 -1.65 -3.8 -1.65 M4.1 17.75 Q5.05 19.8 6.1 24.35 8.05 32.7 10.1 32.7 12.3 32.7 12.75 27.6 12.75 22.75 9.9 17.85 7.05 12.95 7.05 11.75 L7.15 11.45 9.85 13.35 12.45 20.35 Q14.7 27.4 13.7 31.7 13.0 34.6 10.95 36.65 L10.95 36.7 9.95 37.4 8.1 37.85 7.9 37.75 Q7.45 37.15 7.35 36.5 L7.25 36.55 5.25 25.25 4.5 20.15 4.1 17.75 M4.7 20.2 Q4.9 20.4 4.7 20.15 L4.65 20.05 4.65 20.15 4.7 20.2" fill="#e79d5a" fill-rule="evenodd" stroke="none"/>
    <path d="M13.3 16.6 Q14.55 19.25 16.2 21.65 17.05 22.95 18.5 23.25 L20.9 23.0 21.6 21.55 Q21.95 19.85 21.3 18.25 20.05 15.4 18.1 12.9 L15.1 9.15 Q12.0 5.5 8.4 2.1 L8.15 1.65 8.1 1.6 8.0 1.15 7.0 -0.55 Q6.05 -1.8 4.4 -2.9 L3.95 -3.55 Q7.05 -3.25 8.35 -1.1 L10.6 1.8 16.45 8.0 16.45 8.05 19.45 11.8 Q21.6 14.45 22.95 17.55 23.75 19.65 23.35 21.9 23.0 23.5 22.0 24.4 L21.75 24.55 Q20.2 25.25 18.25 25.0 L18.2 25.0 Q16.55 24.65 15.4 23.45 16.4 27.8 15.45 32.1 14.6 35.45 12.25 37.9 L12.2 37.95 10.8 38.95 10.75 38.95 Q9.25 39.75 7.8 39.65 L7.45 39.55 6.65 38.95 6.6 38.95 Q5.25 37.4 5.25 33.8 L5.15 30.95 4.75 34.2 Q4.25 37.55 2.15 40.4 0.3 42.85 -2.7 43.4 L-5.8 43.5 -5.9 43.5 Q-7.75 43.05 -8.5 41.4 L-8.5 41.45 Q-10.25 37.95 -9.45 34.1 L-8.45 29.4 -7.1 21.7 Q-6.9 20.65 -7.05 19.6 -7.35 17.65 -8.65 16.1 L-8.7 16.05 Q-9.2 15.4 -10.0 15.35 -11.1 15.75 -11.9 16.7 -14.1 19.05 -16.45 21.05 L-16.45 21.1 -19.2 23.0 -19.25 23.05 -21.7 23.75 -21.8 23.75 Q-25.95 23.85 -28.55 20.85 L-29.25 19.6 -29.25 19.55 Q-30.0 16.9 -28.35 14.55 L-28.3 14.55 -26.1 11.75 -26.1 11.8 Q-25.1 10.5 -23.8 9.65 -22.35 8.65 -20.7 8.0 -16.15 6.2 -11.75 4.05 -7.8 1.0 -5.75 -2.25 L-4.0 -2.9 -0.8 -3.15 -1.55 -2.8 -3.4 -1.9 -3.45 -1.9 -3.7 -1.75 -3.85 -1.65 -4.15 -1.4 -4.2 -1.3 -4.4 -0.9 -4.8 -0.75 Q-4.4 -0.85 -5.85 1.05 L-8.9 4.15 -10.65 5.5 Q-15.3 7.75 -20.05 9.6 L-20.0 9.6 Q-21.5 10.2 -22.85 11.1 -23.95 11.85 -24.75 12.9 L-26.85 15.6 Q-28.05 17.2 -27.55 19.05 L-27.2 19.7 -27.2 19.75 Q-25.15 22.05 -21.95 21.95 L-20.0 21.45 -19.95 21.4 -17.65 19.8 -17.6 19.75 -13.2 15.5 Q-12.05 14.15 -10.4 13.6 L-10.1 13.55 Q-8.45 13.6 -7.35 14.95 L-7.3 14.95 Q-5.65 16.9 -5.3 19.3 -5.15 20.65 -5.35 22.0 L-6.75 29.7 -7.7 34.5 Q-8.4 37.7 -6.95 40.65 -6.55 41.5 -5.6 41.75 L-3.05 41.7 Q-0.7 41.25 0.75 39.35 2.55 36.9 3.0 33.95 3.5 30.7 3.5 27.5 3.4 24.0 2.9 20.65 L2.9 20.6 Q2.8 19.75 2.85 18.9 L2.85 18.85 Q2.85 18.3 3.2 17.85 L3.65 17.5 4.0 17.45 4.1 17.45 4.1 17.7 4.1 17.75 4.5 20.15 5.25 25.25 7.25 36.55 7.35 37.05 7.35 36.5 Q7.45 37.15 7.9 37.75 L7.95 37.75 8.1 37.85 9.95 37.4 10.95 36.7 11.0 36.65 10.95 36.65 Q13.0 34.6 13.7 31.7 14.7 27.4 12.45 20.35 L9.85 13.35 9.7 13.0 9.65 12.9 9.65 12.85 10.3 12.7 10.35 12.7 10.4 12.7 10.9 13.0 11.75 14.1 12.5 15.25 13.1 16.3 13.3 16.6 M18.5 23.25 L18.55 23.25 18.5 23.25 M9.95 37.4 L10.0 37.4 9.95 37.4 M-6.25 -0.1 L-6.3 -0.05 -6.25 -0.05 -6.25 -0.1" fill="#654425" fill-rule="evenodd" stroke="none"/>
  </g>
</svg>
