<?xml version="1.0" encoding="UTF-8" standalone="no"?>
<svg xmlns:ffdec="https://www.free-decompiler.com/flash" xmlns:xlink="http://www.w3.org/1999/xlink" ffdec:objectType="shape" height="20.05px" width="43.6px" xmlns="http://www.w3.org/2000/svg">
  <g transform="matrix(1.0, 0.0, 0.0, 1.0, 17.35, 34.15)">
    <path d="M9.6 -32.0 L9.55 -32.0 9.6 -32.1 9.6 -32.0 M-0.8 -31.05 L-0.65 -31.0 -0.8 -31.0 -0.8 -31.05" fill="#3a281b" fill-rule="evenodd" stroke="none"/>
    <path d="M7.6 -33.05 Q9.55 -34.3 12.5 -34.15 16.4 -34.1 21.05 -29.95 25.9 -25.55 26.2 -21.05 26.4 -18.1 25.5 -16.75 24.45 -15.05 22.2 -15.15 L22.15 -15.15 Q20.6 -15.15 18.95 -17.95 L18.85 -18.0 16.25 -23.15 Q13.6 -28.45 11.05 -29.85 L11.05 -29.9 9.6 -30.25 9.55 -30.25 Q7.8 -30.4 7.0 -29.85 6.75 -29.6 6.4 -29.6 6.05 -29.6 5.85 -29.85 L5.55 -30.4 5.7 -31.0 Q6.9 -32.7 7.6 -33.05 M9.6 -32.1 L9.55 -32.0 9.6 -32.0 Q10.75 -32.0 11.85 -31.4 L11.85 -31.45 Q14.85 -29.95 17.8 -24.0 L20.4 -18.9 20.4 -18.85 Q21.45 -17.1 22.25 -16.9 23.4 -16.9 24.0 -17.65 24.55 -18.75 24.45 -20.95 24.1 -24.8 19.85 -28.65 15.8 -32.3 12.45 -32.4 L9.6 -32.1 M2.45 -28.55 Q2.1 -28.55 1.85 -28.8 1.05 -29.4 -0.7 -29.2 L-2.15 -28.85 -2.2 -28.8 Q-4.75 -27.4 -7.35 -22.15 L-10.05 -16.95 -10.05 -16.9 Q-11.75 -14.1 -13.3 -14.1 -15.6 -14.05 -16.6 -15.7 -17.55 -17.1 -17.3 -20.0 -17.05 -24.5 -12.15 -28.9 -7.55 -33.05 -3.6 -33.1 -0.7 -33.3 1.25 -32.0 1.9 -31.65 3.2 -29.95 L3.3 -29.4 3.0 -28.8 Q2.8 -28.55 2.45 -28.55 M-0.8 -31.0 L-0.65 -31.0 -0.8 -31.05 -3.55 -31.4 Q-7.0 -31.25 -11.0 -27.6 -15.25 -23.75 -15.55 -19.9 -15.7 -17.7 -15.1 -16.6 -14.55 -15.9 -13.4 -15.9 -12.6 -16.05 -11.5 -17.85 L-11.5 -17.9 -8.95 -22.95 Q-6.0 -28.9 -3.0 -30.4 L-3.0 -30.35 Q-1.95 -31.0 -0.8 -31.0" fill="#000000" fill-rule="evenodd" stroke="none"/>
    <path d="M9.6 -32.1 L12.45 -32.4 Q15.8 -32.3 19.85 -28.65 24.1 -24.8 24.45 -20.95 24.55 -18.75 24.0 -17.65 23.4 -16.9 22.25 -16.9 21.45 -17.1 20.4 -18.85 L20.4 -18.9 17.8 -24.0 Q14.85 -29.95 11.85 -31.45 L11.85 -31.4 Q10.75 -32.0 9.6 -32.0 L9.6 -32.1 M-0.8 -31.0 Q-1.95 -31.0 -3.0 -30.35 L-3.0 -30.4 Q-6.0 -28.9 -8.95 -22.95 L-11.5 -17.9 -11.5 -17.85 Q-12.6 -16.05 -13.4 -15.9 -14.55 -15.9 -15.1 -16.6 -15.7 -17.7 -15.55 -19.9 -15.25 -23.75 -11.0 -27.6 -7.0 -31.25 -3.55 -31.4 L-0.8 -31.05 -0.8 -31.0" fill="#3c3c3c" fill-rule="evenodd" stroke="none"/>
  </g>
</svg>
