<?xml version="1.0" encoding="UTF-8" standalone="no"?>
<svg xmlns:ffdec="https://www.free-decompiler.com/flash" xmlns:xlink="http://www.w3.org/1999/xlink" ffdec:objectType="shape" height="10.4px" width="31.6px" xmlns="http://www.w3.org/2000/svg">
  <g transform="matrix(1.0, 0.0, 0.0, 1.0, 14.0, 5.8)">
    <path d="M6.55 -5.0 Q8.2 -5.8 10.15 -5.8 13.2 -5.8 15.35 -3.9 L15.4 -3.85 Q17.6 -2.0 17.6 0.75 17.6 3.5 15.0 3.55 L9.45 4.0 4.15 4.6 Q2.75 2.95 2.75 0.75 2.75 -0.75 3.4 -1.9 L3.45 -1.95 3.45 -2.0 Q4.0 -3.1 5.05 -3.9 L6.5 -4.95 6.55 -5.0" fill="#db9c64" fill-rule="evenodd" stroke="none"/>
    <path d="M14.9 -0.65 Q15.3 -0.7 15.6 -0.4 L15.95 0.3 15.7 1.0 15.05 1.35 4.3 2.1 Q3.85 2.15 3.55 1.85 3.25 1.6 3.2 1.2 3.15 0.75 3.45 0.45 3.7 0.15 4.15 0.1 L14.9 -0.65" fill="#3d2618" fill-rule="evenodd" stroke="none"/>
    <path d="M-7.35 -4.25 Q-4.55 -4.25 -2.6 -2.6 -0.55 -0.9 -0.4 1.45 -0.3 3.8 -0.7 4.25 L-4.1 4.4 Q-7.05 4.15 -13.25 4.2 -14.0 2.95 -14.0 1.5 -14.0 0.2 -13.45 -0.85 -13.05 -1.8 -12.0 -2.6 L-12.05 -2.5 Q-11.35 -3.25 -10.5 -3.55 L-7.35 -4.25" fill="#db9c64" fill-rule="evenodd" stroke="none"/>
    <path d="M-1.55 0.35 Q-1.1 0.35 -0.75 0.65 -0.4 0.9 -0.4 1.35 -0.4 1.75 -0.7 2.05 L-1.5 2.35 -11.2 2.6 -12.05 2.35 -12.45 1.65 -12.1 0.95 Q-11.8 0.6 -11.3 0.6 L-1.55 0.35" fill="#3d2618" fill-rule="evenodd" stroke="none"/>
  </g>
</svg>
