<?xml version="1.0" encoding="UTF-8" standalone="no"?>
<svg xmlns:ffdec="https://www.free-decompiler.com/flash" xmlns:xlink="http://www.w3.org/1999/xlink" ffdec:objectType="shape" height="41.7px" width="63.7px" xmlns="http://www.w3.org/2000/svg">
  <g transform="matrix(1.0, 0.0, 0.0, 1.0, 54.55, 15.7)">
    <path d="M3.85 17.3 Q6.25 14.55 6.85 11.65 7.85 5.65 2.15 -1.35 L1.2 -2.5 0.95 -2.8 Q-5.65 -10.15 -16.2 -12.5 L-18.25 -12.9 -18.5 -12.95 -18.55 -12.95 Q-30.85 -15.05 -40.75 -9.9 -50.6 -4.95 -52.6 4.45 -54.25 12.05 -50.7 17.3 L-52.45 17.3 Q-55.65 11.8 -54.0 4.15 -51.9 -5.9 -41.4 -11.25 -31.0 -16.65 -18.25 -14.5 L-16.35 -14.1 -15.95 -14.35 Q-12.0 -16.2 -7.1 -15.35 -2.5 -14.5 0.95 -11.85 4.35 -9.25 6.45 -6.25 L6.55 -5.85 6.45 -5.45 Q5.55 -3.65 3.45 -2.15 9.5 5.35 8.3 11.9 7.8 14.7 5.75 17.3 L3.85 17.3 M2.5 -3.3 Q4.05 -4.45 4.9 -5.75 3.0 -8.4 0.05 -10.65 -3.15 -13.1 -7.4 -13.9 -10.95 -14.6 -13.95 -13.5 -4.3 -10.85 1.95 -3.9 L2.5 -3.3" fill="#35220d" fill-rule="evenodd" stroke="none"/>
    <path d="M-50.7 17.3 Q-54.25 12.05 -52.6 4.45 -50.6 -4.95 -40.75 -9.9 -30.85 -15.05 -18.55 -12.95 L-18.5 -12.95 -18.25 -12.9 -16.2 -12.5 Q-5.65 -10.15 0.95 -2.8 L1.2 -2.5 2.15 -1.35 Q7.85 5.65 6.85 11.65 6.25 14.55 3.85 17.3 L-50.7 17.3 M2.5 -3.3 L1.95 -3.9 Q-4.3 -10.85 -13.95 -13.5 -10.95 -14.6 -7.4 -13.9 -3.15 -13.1 0.05 -10.65 3.0 -8.4 4.9 -5.75 4.05 -4.45 2.5 -3.3 M3.75 7.2 Q4.9 4.65 0.85 -0.7 L-0.05 -1.9 -0.35 -2.25 Q-5.8 -8.85 -17.05 -11.4 L-17.5 -11.5 -19.25 -11.85 Q-29.35 -13.6 -38.15 -9.75 -47.95 -5.55 -49.05 1.45 -50.15 8.4 -47.2 8.75 -44.25 9.15 -32.4 7.55 -20.6 5.95 -9.1 8.05 2.4 10.1 3.75 7.2" fill="#613f18" fill-rule="evenodd" stroke="none"/>
    <path d="M3.75 7.2 Q2.4 10.1 -9.1 8.05 -20.6 5.95 -32.4 7.55 -44.25 9.15 -47.2 8.75 -50.15 8.4 -49.05 1.45 -47.95 -5.55 -38.15 -9.75 -29.35 -13.6 -19.25 -11.85 L-17.5 -11.5 -17.05 -11.4 Q-5.8 -8.85 -0.35 -2.25 L-0.05 -1.9 0.85 -0.7 Q4.9 4.65 3.75 7.2 M-18.5 -9.95 L-19.45 -10.1 -20.1 -10.2 Q-29.1 -11.35 -36.05 -8.7 -43.3 -5.95 -44.4 -0.6 -45.5 4.7 -42.85 4.45 L-29.7 3.05 Q-19.25 1.9 -10.15 4.05 -1.1 6.2 0.15 4.5 1.0 3.3 -1.45 0.15 L-2.55 -1.15 -4.3 -3.0 Q-9.75 -8.45 -18.5 -9.95" fill="#855521" fill-rule="evenodd" stroke="none"/>
    <path d="M-18.5 -9.95 Q-9.75 -8.45 -4.3 -3.0 L-2.55 -1.15 -1.45 0.15 Q1.0 3.3 0.15 4.5 -1.1 6.2 -10.15 4.05 -19.25 1.9 -29.7 3.05 L-42.85 4.45 Q-45.5 4.7 -44.4 -0.6 -43.3 -5.95 -36.05 -8.7 -29.1 -11.35 -20.1 -10.2 L-19.45 -10.1 -18.5 -9.95" fill="#a96c29" fill-rule="evenodd" stroke="none"/>
    <path d="M2.45 -8.85 L4.3 -7.4 4.8 -6.65 5.1 -5.4 Q4.95 -4.2 3.85 -3.75 L2.0 -3.45 1.85 -3.45 Q0.5 -3.45 -3.25 -6.05 L-6.45 -8.5 -7.95 -10.1 -6.6 -9.0 -4.55 -7.4 Q-2.35 -5.7 -0.1 -5.3 L1.1 -5.2 Q1.65 -5.2 1.9 -5.5 L2.0 -6.0 Q2.0 -7.25 -0.95 -8.85 L-1.5 -9.1 Q-4.15 -10.45 -7.05 -11.05 L-9.6 -11.45 -7.6 -11.3 -1.35 -10.35 Q0.9 -9.75 2.45 -8.85 M-15.15 -13.8 L-15.95 -14.05 -21.9 -14.8 -23.55 -14.75 -23.9 -14.7 -23.8 -14.75 -21.65 -15.2 Q-17.05 -15.3 -13.3 -14.05 L-11.2 -13.2 -10.2 -12.5 -10.1 -12.35 -10.05 -12.05 -10.15 -11.9 Q-10.55 -11.95 -12.05 -13.05 L-12.95 -13.35 -13.95 -13.6 -15.15 -13.8 M-19.4 -13.15 L-19.4 -13.2 Q-16.15 -13.25 -11.6 -11.45 L-10.9 -11.15 Q-8.75 -10.25 -7.85 -9.55 -7.4 -8.85 -7.4 -8.25 L-7.4 -8.15 -8.05 -8.0 -10.95 -9.3 -10.95 -9.4 Q-11.85 -10.3 -14.85 -11.5 L-17.65 -12.5 -17.8 -12.55 -18.15 -12.6 -18.2 -12.6 -19.2 -13.05 -19.4 -13.15 M-3.05 -2.5 Q-4.0 -5.2 -5.3 -6.3 -3.3 -5.35 -1.65 -1.5 -0.3 1.8 -0.3 3.75 -0.15 4.5 -0.15 5.2 L-0.3 6.6 Q-0.75 8.4 -2.5 8.95 L-3.15 9.1 -3.15 8.2 -2.65 6.25 -2.4 4.85 -2.15 1.7 Q-2.15 -0.05 -3.05 -2.5" fill="#6c3a1c" fill-rule="evenodd" stroke="none"/>
    <path d="M2.45 -8.85 Q0.9 -9.75 -1.35 -10.35 L-7.6 -11.3 -9.6 -11.45 -7.05 -11.05 Q-4.15 -10.45 -1.5 -9.1 L-0.95 -8.85 Q2.0 -7.25 2.0 -6.0 L1.9 -5.5 Q1.65 -5.2 1.1 -5.2 L-0.1 -5.3 Q-2.35 -5.7 -4.55 -7.4 L-6.6 -9.0 -7.95 -10.1 -6.45 -8.5 -3.25 -6.05 Q0.5 -3.45 1.85 -3.45 L2.0 -3.45 3.85 -3.75 Q4.95 -4.2 5.1 -5.4 L4.8 -6.65 4.3 -7.4 2.45 -8.85 M0.9 -5.8 Q1.1 -5.75 1.1 -6.05 L1.1 -6.15 Q0.9 -6.95 -1.55 -8.3 L-1.65 -8.4 -3.75 -9.35 -5.9 -9.95 -3.5 -7.65 -3.45 -7.65 -2.25 -6.9 Q-1.1 -6.3 0.7 -5.95 L0.9 -5.8 M-23.9 -14.7 L-25.35 -14.4 -25.05 -14.7 Q-23.85 -15.7 -20.0 -15.7 -16.95 -15.7 -13.45 -14.5 -11.45 -13.8 -10.55 -13.3 L-10.2 -13.05 -9.35 -12.5 Q-7.85 -11.65 -5.5 -11.35 L-2.0 -11.0 -1.9 -11.0 Q2.8 -9.6 4.7 -7.9 L5.35 -7.25 Q6.0 -6.35 6.0 -5.4 6.0 -4.7 5.2 -3.85 L4.4 -3.2 Q3.7 -2.8 2.9 -2.75 L2.6 -2.75 -0.8 -3.45 Q-0.9 -3.75 -0.9 -3.3 L-0.2 -0.65 Q0.5 1.45 0.5 3.7 L0.6 5.3 0.45 6.7 Q0.15 8.3 -0.9 9.1 L-1.05 9.25 -1.75 9.55 -3.4 9.8 -4.05 9.7 -4.05 8.0 -3.6 6.1 -3.3 4.75 -3.05 1.7 Q-3.05 -2.1 -5.4 -5.05 L-7.3 -7.4 -7.4 -7.4 -8.65 -7.55 -11.6 -8.45 Q-12.5 -9.5 -18.55 -12.0 L-22.4 -13.15 -22.3 -13.15 -17.1 -13.7 -13.4 -13.2 -15.15 -13.8 -13.95 -13.6 -12.95 -13.35 -12.05 -13.05 Q-10.55 -11.95 -10.15 -11.9 L-10.05 -12.05 -10.1 -12.35 -10.2 -12.5 -11.2 -13.2 -13.3 -14.05 Q-17.05 -15.3 -21.65 -15.2 L-23.8 -14.75 -23.9 -14.7 M-19.4 -13.15 L-19.2 -13.05 -18.2 -12.6 -18.15 -12.6 -17.8 -12.55 -17.65 -12.5 -14.85 -11.5 Q-11.85 -10.3 -10.95 -9.4 L-10.95 -9.3 -8.05 -8.0 -7.4 -8.15 -7.4 -8.25 Q-7.4 -8.85 -7.85 -9.55 -8.75 -10.25 -10.9 -11.15 L-11.6 -11.45 Q-16.15 -13.25 -19.4 -13.2 L-19.45 -13.2 -19.4 -13.15 M-3.05 -2.5 Q-2.15 -0.05 -2.15 1.7 L-2.4 4.85 -2.65 6.25 -3.15 8.2 -3.15 9.1 -2.5 8.95 Q-0.75 8.4 -0.3 6.6 L-0.15 5.2 Q-0.15 4.5 -0.3 3.75 -0.3 1.8 -1.65 -1.5 -3.3 -5.35 -5.3 -6.3 -4.0 -5.2 -3.05 -2.5" fill="#331c0d" fill-rule="evenodd" stroke="none"/>
    <path d="M7.8 5.65 L7.95 5.6 7.85 5.65 7.8 5.65 M8.15 6.2 L8.05 6.25 7.95 6.25 8.15 6.2 M-19.4 -13.2 L-19.4 -13.15 -19.45 -13.2 -19.4 -13.2" fill="#333333" fill-rule="evenodd" stroke="none"/>
    <path d="M8.65 4.55 L8.6 4.5 8.75 4.6 8.65 4.55" fill="#cccccc" fill-rule="evenodd" stroke="none"/>
    <path d="M3.6 22.75 Q6.5 21.9 5.5 20.7 1.65 19.45 -5.95 18.85 L-6.25 18.8 -17.05 18.15 -34.7 18.95 -40.45 19.7 -42.55 20.05 -46.3 20.7 -50.65 21.6 Q-51.35 22.9 -49.05 23.2 L-46.3 23.45 -42.55 23.75 -40.45 23.9 -34.7 24.25 Q-25.25 24.7 -17.05 24.55 L-5.95 23.95 3.6 22.75 M9.15 16.3 L6.65 22.05 5.6 23.05 2.85 24.25 Q-0.4 25.3 -4.15 25.5 L-5.95 25.7 -11.35 25.95 -16.0 26.0 -17.05 26.0 -20.5 26.0 -24.8 26.0 -28.85 25.95 -32.25 25.9 -34.7 25.9 -34.9 25.9 -36.3 25.8 -38.75 25.8 -40.45 25.7 -41.25 25.65 -42.55 25.6 -46.25 25.1 -46.3 25.1 Q-48.85 24.8 -51.2 23.9 -53.65 20.45 -54.3 16.3 -51.05 14.35 -46.3 13.1 L-42.55 12.25 -40.45 11.9 -34.7 11.2 -27.2 10.8 -17.05 10.7 -5.95 11.25 -0.65 12.1 Q7.3 13.85 9.15 16.3 M-5.95 17.85 L6.3 19.75 7.7 16.3 Q2.45 13.6 -4.9 12.5 L-5.95 12.4 -17.05 11.65 Q-27.0 11.25 -34.7 11.95 L-40.45 12.7 -42.55 13.1 -46.3 14.05 Q-50.25 15.2 -53.2 16.85 L-51.85 20.75 -46.3 19.6 -42.55 18.95 -40.45 18.65 -34.7 17.9 -17.05 17.15 -5.95 17.85" fill="#0d0d0d" fill-rule="evenodd" stroke="none"/>
    <path d="M-5.95 12.4 L-4.9 12.5 Q2.45 13.6 7.7 16.3 L6.3 19.75 -5.95 17.85 -5.95 12.4 M-46.3 19.6 L-51.85 20.75 -53.2 16.85 Q-50.25 15.2 -46.3 14.05 L-46.3 19.6" fill="#242424" fill-rule="evenodd" stroke="none"/>
    <path d="M3.6 22.75 L-5.95 23.95 -17.05 24.55 Q-25.25 24.7 -34.7 24.25 L-40.45 23.9 -42.55 23.75 -46.3 23.45 -49.05 23.2 Q-51.35 22.9 -50.65 21.6 L-46.3 20.7 -42.55 20.05 -40.45 19.7 -34.7 18.95 -17.05 18.15 -6.25 18.8 -5.95 18.85 Q1.65 19.45 5.5 20.7 6.5 21.9 3.6 22.75" fill="#1e1e1e" fill-rule="evenodd" stroke="none"/>
    <path d="M-5.95 17.85 L-17.05 17.15 -17.05 11.65 -5.95 12.4 -5.95 17.85 M-34.7 17.9 L-40.45 18.65 -42.55 18.95 -46.3 19.6 -46.3 14.05 -42.55 13.1 -40.45 12.7 -34.7 11.95 -34.7 17.9" fill="#353535" fill-rule="evenodd" stroke="none"/>
    <path d="M-17.05 17.15 L-34.7 17.9 -34.7 11.95 Q-27.0 11.25 -17.05 11.65 L-17.05 17.15" fill="#454545" fill-rule="evenodd" stroke="none"/>
  </g>
</svg>
