<?xml version="1.0" encoding="UTF-8" standalone="no"?>
<svg xmlns:ffdec="https://www.free-decompiler.com/flash" xmlns:xlink="http://www.w3.org/1999/xlink" ffdec:objectType="shape" height="47.05px" width="52.7px" xmlns="http://www.w3.org/2000/svg">
  <g transform="matrix(1.0, 0.0, 0.0, 1.0, 29.35, 3.55)">
    <path d="M4.4 -2.9 L3.95 -3.55 Q7.4 -2.7 15.3 6.75 23.35 16.3 23.35 20.0 23.35 22.3 22.3 23.65 21.25 25.0 19.3 25.0 17.9 25.0 16.3 24.15 L15.4 23.45 15.95 28.1 Q15.95 33.15 13.25 36.6 10.95 39.6 8.4 39.6 6.6 39.6 6.3 38.05 L5.1 32.15 Q2.65 43.5 -3.4 43.5 -6.65 43.5 -8.05 42.05 -9.55 40.55 -9.55 36.85 -9.55 34.9 -8.3 28.3 -7.1 21.7 -7.1 19.8 -7.1 18.4 -8.05 16.9 -9.05 15.35 -10.0 15.35 L-17.3 21.9 Q-17.8 22.4 -19.75 23.1 L-22.15 23.75 Q-25.3 23.75 -27.5 21.65 -29.35 19.95 -29.35 18.45 -29.35 16.3 -28.3 14.6 -25.8 10.6 -18.1 6.9 -16.75 6.25 -10.65 1.9 -5.65 -1.65 -0.8 -3.15 L-3.7 -1.75 Q-7.85 3.45 -18.9 9.15 -23.3 11.4 -24.95 12.95 -27.4 15.2 -27.4 18.2 -27.4 20.1 -25.65 21.15 -24.25 22.0 -22.6 22.0 -19.45 22.0 -15.9 17.8 -12.4 13.55 -10.1 13.55 -7.6 13.55 -6.2 16.5 -5.3 18.5 -5.3 20.05 L-6.7 29.15 -7.8 37.0 Q-7.8 39.9 -6.45 41.1 -5.6 41.9 -4.35 41.9 -0.8 41.9 1.25 38.65 3.45 35.25 3.45 29.0 L2.6 19.6 Q2.6 18.5 4.0 17.45 L4.1 17.75 Q7.35 37.05 7.35 36.5 L7.65 37.15 Q8.05 37.8 8.65 37.8 11.25 37.8 12.55 34.7 13.65 32.15 13.65 28.15 13.65 23.7 12.5 20.0 L9.85 13.35 9.8 13.05 10.35 12.7 13.1 16.3 Q15.5 21.15 17.5 22.7 18.35 23.4 19.3 23.4 20.9 23.4 21.45 22.15 L21.7 20.7 Q21.7 17.05 15.75 9.75 L4.4 -2.9" fill="#654425" fill-rule="evenodd" stroke="none"/>
    <path d="M1.8 -3.35 L4.4 -2.9 15.75 9.75 Q21.7 17.05 21.7 20.7 L21.45 22.15 Q20.9 23.4 19.3 23.4 18.35 23.4 17.5 22.7 15.5 21.15 13.1 16.3 L19.2 21.95 19.75 21.65 20.0 20.7 Q20.0 19.05 17.6 15.5 14.6 11.05 10.2 8.15 7.8 6.55 5.35 2.05 2.9 -2.55 1.8 -3.35 M-3.7 -1.75 Q-5.15 3.65 -14.1 8.45 L-19.9 11.85 Q-22.45 13.8 -22.45 16.0 -22.6 16.65 -22.25 17.2 -21.6 18.35 -19.15 18.35 -17.35 18.35 -14.45 15.55 -11.6 12.75 -9.6 12.75 -8.1 12.7 -6.65 13.65 -3.8 15.55 -3.8 20.6 L-5.0 25.8 -6.25 32.35 Q-6.25 38.15 -3.65 38.15 -1.2 38.15 0.5 36.0 2.7 33.25 2.7 27.55 2.7 25.75 1.85 22.8 L0.95 19.45 Q0.95 17.7 1.4 16.95 1.7 16.5 2.55 15.95 L4.0 17.45 Q2.6 18.5 2.6 19.6 L3.45 29.0 Q3.45 35.25 1.25 38.65 -0.8 41.9 -4.35 41.9 -5.6 41.9 -6.45 41.1 -7.8 39.9 -7.8 37.0 L-6.7 29.15 -5.3 20.05 Q-5.3 18.5 -6.2 16.5 -7.6 13.55 -10.1 13.55 -12.4 13.55 -15.9 17.8 -19.45 22.0 -22.6 22.0 -24.25 22.0 -25.65 21.15 -27.4 20.1 -27.4 18.2 -27.4 15.2 -24.95 12.95 -23.3 11.4 -18.9 9.15 -7.85 3.45 -3.7 -1.75 M4.1 17.75 L8.45 30.7 Q9.1 32.65 10.25 32.65 11.45 32.65 12.0 31.65 12.7 30.4 12.7 27.2 12.7 24.75 11.0 21.05 8.2 15.0 7.05 11.75 L9.85 13.35 12.5 20.0 Q13.65 23.7 13.65 28.15 13.65 32.15 12.55 34.7 11.25 37.8 8.65 37.8 8.05 37.8 7.65 37.15 L7.35 36.5 Q7.35 37.05 4.1 17.75" fill="#fabc7e" fill-rule="evenodd" stroke="none"/>
    <path d="M-0.8 -3.15 L1.8 -3.35 Q2.9 -2.55 5.35 2.05 7.8 6.55 10.2 8.15 14.6 11.05 17.6 15.5 20.0 19.05 20.0 20.7 L19.75 21.65 19.2 21.95 13.1 16.3 10.35 12.7 9.8 13.05 9.85 13.35 7.05 11.75 Q8.2 15.0 11.0 21.05 12.7 24.75 12.7 27.2 12.7 30.4 12.0 31.65 11.45 32.65 10.25 32.65 9.1 32.65 8.45 30.7 L4.1 17.75 4.0 17.45 2.55 15.95 Q1.7 16.5 1.4 16.95 0.95 17.7 0.95 19.45 L1.85 22.8 Q2.7 25.75 2.7 27.55 2.7 33.25 0.5 36.0 -1.2 38.15 -3.65 38.15 -6.25 38.15 -6.25 32.35 L-5.0 25.8 -3.8 20.6 Q-3.8 15.55 -6.65 13.65 -8.1 12.7 -9.6 12.75 -11.6 12.75 -14.45 15.55 -17.35 18.35 -19.15 18.35 -21.6 18.35 -22.25 17.2 -22.6 16.65 -22.45 16.0 -22.45 13.8 -19.9 11.85 L-14.1 8.45 Q-5.15 3.65 -3.7 -1.75 L-0.8 -3.15" fill="#fbca99" fill-rule="evenodd" stroke="none"/>
  </g>
</svg>
