<?xml version="1.0" encoding="UTF-8" standalone="no"?>
<svg xmlns:ffdec="https://www.free-decompiler.com/flash" xmlns:xlink="http://www.w3.org/1999/xlink" ffdec:objectType="shape" height="62.35px" width="76.5px" xmlns="http://www.w3.org/2000/svg">
  <g transform="matrix(1.0, 0.0, 0.0, 1.0, 49.75, 48.25)">
    <path d="M-29.85 -42.05 L-29.85 -43.85 Q-23.0 -46.45 -15.05 -46.45 2.2 -46.45 14.5 -34.2 26.7 -21.95 26.7 -4.65 26.7 5.6 22.4 14.1 L20.85 13.05 20.75 12.85 Q24.7 4.7 24.7 -4.65 24.7 -18.25 15.85 -29.8 4.7 -44.45 -15.05 -44.45 -20.85 -44.45 -26.65 -43.0 L-29.85 -42.05" fill="#8e7c71" fill-opacity="0.69411767" fill-rule="evenodd" stroke="none"/>
    <path d="M9.5 4.0 Q8.8 3.95 8.75 3.15 L8.7 1.45 9.95 -3.85 9.95 -2.7 Q9.95 1.15 9.5 4.0" fill="#b9a99b" fill-opacity="0.29803923" fill-rule="evenodd" stroke="none"/>
    <path d="M9.95 -3.85 L10.5 -6.3 11.4 -10.9 10.5 -14.0 10.05 -14.95 10.0 -15.0 9.3 -16.8 6.9 -18.8 5.3 -20.0 Q-2.35 -25.9 -9.5 -26.7 -16.65 -27.5 -21.45 -27.0 L-29.85 -26.45 -29.85 -40.2 -29.0 -40.4 -19.75 -41.4 Q-9.1 -41.4 1.45 -35.05 18.55 -24.95 18.55 -3.2 18.55 2.4 17.35 6.55 L14.95 5.85 12.15 5.15 Q11.15 5.0 9.5 4.0 9.95 1.15 9.95 -2.7 L9.95 -3.85" fill="url(#gradient0)" fill-rule="evenodd" stroke="none"/>
    <path d="M-29.85 -40.2 L-29.85 -42.05 -26.65 -43.0 Q-20.85 -44.45 -15.05 -44.45 4.7 -44.45 15.85 -29.8 24.7 -18.25 24.7 -4.65 24.7 4.7 20.75 12.85 20.15 8.3 17.35 6.55 18.55 2.4 18.55 -3.2 18.55 -24.95 1.45 -35.05 -9.1 -41.4 -19.75 -41.4 L-29.0 -40.4 -29.85 -40.2" fill="url(#gradient1)" fill-rule="evenodd" stroke="none"/>
    <path d="M24.55 -9.65 Q24.95 -20.7 23.85 -25.5 21.6 -35.1 13.1 -38.7 L-0.85 -44.6 Q-7.25 -46.75 -15.25 -46.75 -22.95 -46.75 -35.45 -43.3 -48.0 -39.85 -48.0 -37.7 L-47.8 -33.6 Q-47.45 -31.45 -46.0 -28.8 -47.2 -29.0 -48.1 -29.85 -49.75 -31.5 -49.75 -34.95 -49.75 -38.8 -48.0 -40.5 -45.65 -42.8 -38.45 -44.0 L-30.25 -46.25 Q-21.95 -48.25 -14.25 -48.25 -12.05 -48.25 -6.35 -46.95 1.05 -45.3 7.35 -42.75 26.1 -35.1 26.1 -23.15 L26.75 -9.0 26.4 -6.65 24.55 -9.65" fill="#97877d" fill-rule="evenodd" stroke="none"/>
    <path d="M10.5 -29.2 L7.3 -29.05 2.35 -29.25 Q1.1 -29.45 -0.3 -30.25 -1.6 -31.0 -2.35 -31.0 L-4.1 -30.5 -5.9 -30.05 -9.2 -30.65 -15.85 -31.25 Q-18.75 -31.25 -26.3 -29.25 L-28.15 -31.6 -30.3 -34.0 Q-31.3 -34.0 -30.75 -33.75 L-30.9 -32.8 Q-30.55 -32.35 -30.5 -31.5 L-30.25 -29.6 Q-33.7 -29.7 -34.4 -30.9 L-35.25 -33.0 -35.9 -32.0 Q-39.25 -33.35 -39.75 -33.75 -40.25 -34.15 -40.25 -35.55 -40.25 -38.25 -35.45 -40.5 -30.7 -42.7 -24.25 -43.05 L-20.0 -43.25 Q-14.7 -43.25 -8.4 -42.1 -0.25 -40.6 1.75 -38.1 L6.85 -35.65 Q10.6 -33.5 10.6 -30.35 L10.5 -29.2 M-12.3 -35.15 L-13.5 -36.6 Q-14.45 -37.5 -15.1 -37.35 -15.55 -37.8 -15.55 -36.8 L-14.8 -35.6 Q-13.85 -34.55 -12.5 -34.1 L-12.3 -35.15 M-3.05 -36.5 L-3.3 -34.8 Q-2.4 -32.95 0.95 -33.85 -1.1 -35.75 -2.7 -36.45 L-3.05 -36.5 M-21.5 -39.0 L-22.35 -38.85 -22.75 -38.45 -22.35 -38.05 -21.5 -37.9 -20.6 -38.05 Q-20.25 -38.2 -20.25 -38.45 L-20.6 -38.85 -21.5 -39.0 M-32.75 -37.55 L-33.05 -37.05 -32.25 -35.9 -31.0 -36.9 -30.0 -37.9 Q-30.2 -38.3 -31.6 -38.5 L-32.75 -37.55 M-22.25 -33.5 L-22.5 -33.85 -23.2 -34.0 -23.85 -33.85 -24.15 -33.5 -23.85 -33.15 -23.2 -33.0 -22.5 -33.15 -22.25 -33.5" fill="#ffffff" fill-rule="evenodd" stroke="none"/>
    <path d="M10.5 -29.2 L10.6 -30.35 Q10.6 -33.5 6.85 -35.65 L1.75 -38.1 Q-0.25 -40.6 -8.4 -42.1 -14.7 -43.25 -20.0 -43.25 L-24.25 -43.05 Q-30.7 -42.7 -35.45 -40.5 -40.25 -38.25 -40.25 -35.55 -40.25 -34.15 -39.75 -33.75 -39.25 -33.35 -35.9 -32.0 L-35.25 -33.0 -34.4 -30.9 Q-33.7 -29.7 -30.25 -29.6 L-30.5 -31.5 Q-30.55 -32.35 -30.9 -32.8 L-30.75 -33.75 Q-31.3 -34.0 -30.3 -34.0 L-28.15 -31.6 -26.3 -29.25 Q-18.75 -31.25 -15.85 -31.25 L-9.2 -30.65 -5.9 -30.05 -4.1 -30.5 -2.35 -31.0 Q-1.6 -31.0 -0.3 -30.25 1.1 -29.45 2.35 -29.25 L7.3 -29.05 10.5 -29.2 M-12.85 -27.75 L-16.75 -28.2 -18.7 -28.4 -22.35 -27.7 -28.5 -27.05 Q-30.25 -27.05 -35.6 -29.0 -40.65 -30.85 -42.85 -30.65 L-42.4 -30.7 -44.3 -34.55 Q-44.65 -38.35 -37.6 -41.0 L-29.15 -43.4 Q-27.75 -43.95 -18.25 -45.5 L-10.95 -44.7 -0.15 -42.95 Q0.75 -42.85 6.1 -39.0 12.0 -34.8 13.85 -32.25 16.9 -27.85 16.9 -26.25 16.9 -24.7 16.35 -23.65 L14.9 -21.8 Q1.25 -28.15 -8.35 -28.15 L-12.85 -27.75 M-22.25 -33.5 L-22.5 -33.15 -23.2 -33.0 -23.85 -33.15 -24.15 -33.5 -23.85 -33.85 -23.2 -34.0 -22.5 -33.85 -22.25 -33.5 M-32.75 -37.55 L-31.6 -38.5 Q-30.2 -38.3 -30.0 -37.9 L-31.0 -36.9 -32.25 -35.9 -33.05 -37.05 -32.75 -37.55 M-21.5 -39.0 L-20.6 -38.85 -20.25 -38.45 Q-20.25 -38.2 -20.6 -38.05 L-21.5 -37.9 -22.35 -38.05 -22.75 -38.45 -22.35 -38.85 -21.5 -39.0 M-3.05 -36.5 L-2.7 -36.45 Q-1.1 -35.75 0.95 -33.85 -2.4 -32.95 -3.3 -34.8 L-3.05 -36.5 M-12.3 -35.15 L-12.5 -34.1 Q-13.85 -34.55 -14.8 -35.6 L-15.55 -36.8 Q-15.55 -37.8 -15.1 -37.35 -14.45 -37.5 -13.5 -36.6 L-12.3 -35.15" fill="#ebe8e0" fill-rule="evenodd" stroke="none"/>
    <path d="M14.9 -21.8 L16.35 -23.65 Q16.9 -24.7 16.9 -26.25 16.9 -27.85 13.85 -32.25 12.0 -34.8 6.1 -39.0 0.75 -42.85 -0.15 -42.95 L-10.95 -44.7 -18.25 -45.5 Q-27.75 -43.95 -29.15 -43.4 L-37.6 -41.0 Q-44.65 -38.35 -44.3 -34.55 L-42.4 -30.7 -42.85 -30.65 Q-40.65 -30.85 -35.6 -29.0 -30.25 -27.05 -28.5 -27.05 L-22.35 -27.7 -18.7 -28.4 -16.75 -28.2 -12.85 -27.75 Q-19.4 -25.7 -26.7 -25.6 -28.15 -25.6 -29.3 -26.05 L-35.95 -28.3 -42.2 -28.8 -46.0 -28.8 Q-47.45 -31.45 -47.8 -33.6 L-48.0 -37.7 Q-48.0 -39.85 -35.45 -43.3 -22.95 -46.75 -15.25 -46.75 -7.25 -46.75 -0.85 -44.6 L13.1 -38.7 Q21.6 -35.1 23.85 -25.5 24.95 -20.7 24.55 -9.65 L24.5 -8.7 Q23.9 -10.85 22.35 -13.4 19.65 -17.85 14.9 -21.8" fill="#cbc8c0" fill-rule="evenodd" stroke="none"/>
  </g>
  <defs>
    <linearGradient gradientTransform="matrix(0.0, -0.0122, 0.0293, 0.0, 8.3, -12.75)" gradientUnits="userSpaceOnUse" id="gradient0" spreadMethod="pad" x1="-819.2" x2="819.2">
      <stop offset="0.0" stop-color="#b9a99b" stop-opacity="0.4"/>
      <stop offset="1.0" stop-color="#ebe8e0"/>
    </linearGradient>
    <linearGradient gradientTransform="matrix(0.0029, -0.008, 0.0328, 0.0121, 50.9, 6.95)" gradientUnits="userSpaceOnUse" id="gradient1" spreadMethod="pad" x1="-819.2" x2="819.2">
      <stop offset="0.0" stop-color="#8e7c71" stop-opacity="0.4"/>
      <stop offset="1.0" stop-color="#cbc8c0"/>
    </linearGradient>
  </defs>
</svg>
