<?xml version="1.0" encoding="UTF-8" standalone="no"?>
<svg xmlns:ffdec="https://www.free-decompiler.com/flash" xmlns:xlink="http://www.w3.org/1999/xlink" ffdec:objectType="shape" height="2.3px" width="23.55px" xmlns="http://www.w3.org/2000/svg">
  <g transform="matrix(1.0, 0.0, 0.0, 1.0, 11.8, 1.0)">
    <path d="M10.0 -0.35 Q11.75 0.25 11.75 0.6 L11.7 0.85 11.35 0.95 Q7.6 -0.2 6.9 -0.2 L4.85 0.0 Q4.55 0.0 4.45 -0.2 L4.4 -0.4 Q4.4 -1.0 6.45 -1.0 L10.0 -0.35 M-6.5 -0.7 Q-4.45 -0.85 -4.45 -0.25 -4.45 0.15 -7.9 0.2 L-9.35 0.55 -10.35 0.95 -11.35 1.3 Q-11.9 1.3 -11.75 0.95 -11.75 0.4 -10.0 -0.15 L-6.5 -0.7" fill="#1e1e1e" fill-rule="evenodd" stroke="none"/>
  </g>
</svg>
