<?xml version="1.0" encoding="UTF-8" standalone="no"?>
<svg xmlns:ffdec="https://www.free-decompiler.com/flash" xmlns:xlink="http://www.w3.org/1999/xlink" ffdec:objectType="shape" height="31.95px" width="20.15px" xmlns="http://www.w3.org/2000/svg">
  <g transform="matrix(1.0, 0.0, 0.0, 1.0, 0.0, 0.0)">
    <path d="M8.2 10.45 L8.35 10.0 Q8.45 9.45 8.7 9.0 L8.75 8.95 Q9.2 8.0 10.1 7.35 L10.35 7.15 Q11.75 6.1 13.6 6.05 L13.65 6.05 Q13.9 4.9 13.55 3.85 L13.25 3.25 12.65 2.15 10.1 2.05 10.0 0.25 10.1 0.25 13.15 0.35 Q14.4 0.95 14.95 2.75 15.55 4.6 15.35 6.3 17.5 6.45 18.65 7.85 L19.0 8.3 19.65 9.8 19.7 10.1 19.1 10.8 19.1 10.85 19.05 10.8 19.05 10.75 19.0 10.55 18.65 11.05 18.0 11.6 17.85 11.65 17.65 11.75 17.55 11.75 16.25 10.75 15.95 10.25 14.05 12.2 13.3 12.15 12.25 9.1 10.7 9.95 10.1 10.15 9.8 10.2 Q9.55 10.15 9.3 10.35 L9.3 10.4 8.6 10.55 8.2 10.45 M13.6 6.55 L12.9 6.55 Q12.4 6.65 11.05 7.5 10.6 7.75 10.1 8.1 L9.0 9.35 10.1 9.1 11.05 8.8 11.6 8.6 12.7 8.35 Q12.55 8.7 12.85 9.45 L13.6 11.1 13.9 11.8 14.5 10.8 15.4 9.5 Q15.65 9.15 16.0 8.95 L17.6 10.6 17.65 10.55 18.6 9.4 18.55 9.2 18.35 8.9 18.4 8.85 17.65 7.75 Q16.85 6.85 15.6 6.7 L15.5 6.7 14.8 6.65 14.55 6.6 13.6 6.55" fill="#3a5607" fill-rule="evenodd" stroke="none"/>
    <path d="M13.6 6.55 L14.55 6.6 14.8 6.65 15.5 6.7 15.6 6.7 Q16.85 6.85 17.65 7.75 L18.4 8.85 18.35 8.9 18.55 9.2 18.6 9.4 17.65 10.55 17.6 10.6 16.0 8.95 Q15.65 9.15 15.4 9.5 L14.5 10.8 13.9 11.8 13.6 11.1 12.85 9.45 Q12.55 8.7 12.7 8.35 L11.6 8.6 11.05 8.8 10.1 9.1 9.0 9.35 10.1 8.1 Q10.6 7.75 11.05 7.5 12.4 6.65 12.9 6.55 L13.6 6.55" fill="#68990d" fill-rule="evenodd" stroke="none"/>
    <path d="M9.3 10.4 L9.3 10.35 Q9.55 10.15 9.8 10.2 L10.1 10.15 10.7 9.95 12.25 9.1 13.3 12.15 14.05 12.2 15.95 10.25 16.25 10.75 17.55 11.75 17.65 11.75 17.85 11.65 18.0 11.6 18.65 11.05 19.0 10.55 19.05 10.75 19.05 10.8 Q19.7 14.1 18.95 17.7 L18.65 19.1 18.2 20.6 17.95 21.25 Q16.8 24.3 14.85 27.0 L14.55 27.4 14.1 27.95 13.7 28.35 13.5 28.55 11.2 30.05 11.15 30.05 10.2 30.45 9.6 30.65 9.5 30.65 7.4 31.05 7.15 31.1 7.1 31.1 5.35 31.05 4.0 30.8 2.4 30.15 1.3 29.55 1.0 29.35 1.3 29.05 1.9 28.6 2.4 28.35 3.9 27.6 4.0 27.55 5.35 26.9 6.95 25.7 Q7.05 25.6 7.1 25.6 L7.1 25.55 Q8.85 23.9 9.85 21.4 L10.15 20.25 10.15 19.2 10.1 18.9 Q9.2 14.6 9.3 10.4" fill="#fb580b" fill-rule="evenodd" stroke="none"/>
    <path d="M19.7 10.1 L20.15 13.35 Q20.05 15.05 20.1 16.8 L19.5 20.3 18.65 23.0 18.3 23.8 Q17.25 26.05 15.65 28.0 L15.6 28.1 14.2 29.55 14.15 29.65 14.05 29.7 13.7 29.95 13.5 30.1 11.2 31.25 10.2 31.55 10.1 31.55 7.15 31.95 7.1 31.95 5.35 31.9 4.0 31.7 2.4 31.25 1.3 30.85 1.05 30.75 Q-0.5 30.2 0.25 28.75 0.65 27.85 1.3 27.15 L1.4 27.05 2.4 26.95 4.0 26.45 5.35 25.65 Q6.3 24.9 6.95 23.75 L7.1 23.55 7.9 21.4 7.95 21.0 Q8.85 16.75 8.2 12.45 8.05 11.4 8.2 10.45 L8.6 10.55 9.3 10.4 Q9.2 14.6 10.1 18.9 L10.15 19.2 10.15 20.25 9.85 21.4 Q8.85 23.9 7.1 25.55 L7.1 25.6 Q7.05 25.6 6.95 25.7 L5.35 26.9 4.0 27.55 3.9 27.6 2.4 28.35 1.9 28.6 1.3 29.05 1.0 29.35 1.3 29.55 2.4 30.15 4.0 30.8 5.35 31.05 7.1 31.1 7.15 31.1 7.4 31.05 9.5 30.65 9.6 30.65 10.2 30.45 11.15 30.05 11.2 30.05 13.5 28.55 13.7 28.35 14.1 27.95 14.55 27.4 14.85 27.0 Q16.8 24.3 17.95 21.25 L18.2 20.6 18.65 19.1 18.95 17.7 Q19.7 14.1 19.05 10.8 L19.1 10.85 19.1 10.8 19.7 10.1" fill="#922303" fill-rule="evenodd" stroke="none"/>
  </g>
</svg>
