<?xml version="1.0" encoding="UTF-8" standalone="no"?>
<svg xmlns:ffdec="https://www.free-decompiler.com/flash" xmlns:xlink="http://www.w3.org/1999/xlink" ffdec:objectType="shape" height="32.45px" width="16.3px" xmlns="http://www.w3.org/2000/svg">
  <g transform="matrix(1.0, 0.0, 0.0, 1.0, -2.35, 0.5)">
    <path d="M8.15 11.25 L8.25 10.75 Q8.3 10.15 8.5 9.7 L8.5 9.65 Q8.9 8.6 9.7 7.9 L9.9 7.7 Q11.15 6.6 12.8 6.6 L12.85 6.6 Q13.05 5.35 12.65 4.15 L12.4 3.45 11.8 2.15 9.4 1.9 9.2 -0.25 9.3 -0.25 10.8 -0.45 Q11.55 -0.5 12.2 0.05 13.4 0.8 13.95 2.95 14.55 5.05 14.4 6.95 16.3 7.2 17.35 8.8 L17.7 9.3 18.25 10.95 Q18.2 11.1 18.3 11.25 L17.8 11.95 17.8 12.0 17.75 11.95 17.75 11.9 17.7 11.7 17.35 12.2 16.85 12.75 16.65 12.8 16.5 12.9 16.45 12.9 Q15.7 12.5 15.3 11.8 L15.0 11.3 13.35 13.25 12.7 13.2 11.7 9.9 10.35 10.8 9.8 10.95 9.55 11.0 Q9.3 10.95 9.1 11.15 L9.1 11.2 8.5 11.35 8.15 11.25 M12.8 7.2 L12.2 7.15 Q11.75 7.2 10.55 8.1 L9.7 8.75 8.75 10.05 9.75 9.85 10.6 9.55 11.1 9.35 12.1 9.1 Q11.9 9.5 12.25 10.3 L12.95 12.1 13.25 12.85 13.75 11.8 14.5 10.45 Q14.7 10.1 15.05 9.9 L16.45 11.7 16.5 11.65 17.3 10.45 17.3 10.25 17.1 9.95 17.15 9.85 16.45 8.65 Q15.7 7.65 14.6 7.45 L14.55 7.4 13.95 7.35 13.65 7.25 12.8 7.2" fill="#3a5607" fill-rule="evenodd" stroke="none"/>
    <path d="M12.8 7.2 L13.65 7.25 13.95 7.35 14.55 7.4 14.6 7.45 Q15.7 7.65 16.45 8.65 L17.15 9.85 17.1 9.95 17.3 10.25 17.3 10.45 16.5 11.65 16.45 11.7 15.05 9.9 Q14.7 10.1 14.5 10.45 L13.75 11.8 13.25 12.85 12.95 12.1 12.25 10.3 Q11.9 9.5 12.1 9.1 L11.1 9.35 10.6 9.55 9.75 9.85 8.75 10.05 9.7 8.75 10.55 8.1 Q11.75 7.2 12.2 7.15 L12.8 7.2" fill="#68990d" fill-rule="evenodd" stroke="none"/>
    <path d="M9.1 11.2 L9.1 11.15 Q9.3 10.95 9.55 11.0 L9.8 10.95 10.35 10.8 11.7 9.9 12.7 13.2 13.35 13.25 15.0 11.3 15.3 11.8 Q15.7 12.5 16.45 12.9 L16.5 12.9 16.65 12.8 16.85 12.75 17.35 12.2 17.7 11.7 17.75 11.9 17.75 11.95 Q18.25 15.4 17.65 18.95 L17.4 20.3 17.05 21.75 16.85 22.35 Q15.95 25.15 14.4 27.6 L14.15 28.0 13.8 28.45 13.55 28.8 13.4 29.0 Q12.6 29.75 11.55 30.3 L11.5 30.3 10.8 30.65 10.3 30.85 10.2 30.85 8.55 31.2 8.35 31.2 8.3 31.2 6.85 31.2 5.7 30.95 4.4 30.4 3.4 29.85 3.15 29.65 3.4 29.4 3.8 29.0 4.25 28.75 5.45 28.1 5.5 28.05 6.6 27.45 7.9 26.4 8.0 26.3 8.0 26.25 Q9.35 24.7 10.1 22.35 L10.3 21.25 10.25 20.25 10.2 19.95 Q9.25 15.6 9.1 11.2" fill="#fb580b" fill-rule="evenodd" stroke="none"/>
    <path d="M18.3 11.25 L18.65 14.65 18.65 18.1 18.15 21.5 17.45 24.0 Q17.25 24.35 17.2 24.75 16.35 26.75 15.1 28.5 L15.05 28.6 13.95 29.9 13.9 29.95 13.8 30.0 13.55 30.25 Q13.45 30.25 13.4 30.35 12.6 30.95 11.6 31.35 L10.8 31.6 10.7 31.6 8.35 31.95 8.3 31.95 7.8 31.95 6.9 31.9 5.75 31.75 4.45 31.35 3.5 31.0 3.3 30.9 Q2.35 30.55 2.35 29.9 L2.45 29.1 Q2.7 28.3 3.25 27.65 L3.3 27.6 4.15 27.5 5.45 27.05 6.55 26.3 7.8 24.55 7.9 24.4 8.45 22.35 8.5 21.95 Q9.0 17.8 8.25 13.35 8.05 12.25 8.15 11.25 L8.5 11.35 9.1 11.2 Q9.25 15.6 10.2 19.95 L10.25 20.25 10.3 21.25 10.1 22.35 Q9.35 24.7 8.0 26.25 L8.0 26.3 7.9 26.4 6.6 27.45 5.5 28.05 5.45 28.1 4.25 28.75 3.8 29.0 3.4 29.4 3.15 29.65 3.4 29.85 4.4 30.4 5.7 30.95 6.85 31.2 8.3 31.2 8.35 31.2 8.55 31.2 10.2 30.85 10.3 30.85 10.8 30.65 11.5 30.3 11.55 30.3 Q12.6 29.75 13.4 29.0 L13.55 28.8 13.8 28.45 14.15 28.0 14.4 27.6 Q15.95 25.15 16.85 22.35 L17.05 21.75 17.4 20.3 17.65 18.95 Q18.25 15.4 17.75 11.95 L17.8 12.0 17.8 11.95 18.3 11.25" fill="#922303" fill-rule="evenodd" stroke="none"/>
  </g>
</svg>
