<?xml version="1.0" encoding="UTF-8" standalone="no"?>
<svg xmlns:ffdec="https://www.free-decompiler.com/flash" xmlns:xlink="http://www.w3.org/1999/xlink" ffdec:objectType="shape" height="35.7px" width="19.45px" xmlns="http://www.w3.org/2000/svg">
  <g transform="matrix(1.0, 0.0, 0.0, 1.0, -0.6, 0.0)">
    <path d="M15.7 2.8 L15.2 1.8 Q14.25 0.5 11.9 0.5 11.25 0.5 10.25 1.15 9.25 1.75 8.9 1.75 8.45 1.75 6.9 2.45 5.35 3.1 4.95 3.45 3.5 4.6 3.15 5.85 L2.7 6.35 2.25 6.75 1.8 7.35 1.4 8.0 1.05 9.65 1.15 11.3 0.95 12.7 Q0.95 13.45 1.8 14.5 L3.6 16.8 Q6.25 20.5 6.25 25.85 L5.85 26.8 Q5.45 27.8 5.45 29.1 L5.5 30.05 6.0 32.15 Q7.1 35.25 10.0 35.25 12.2 35.25 13.5 33.75 14.75 32.35 14.75 30.25 L14.55 29.1 14.3 27.85 14.5 26.4 14.65 24.9 14.5 23.25 14.65 22.6 14.8 20.8 15.2 20.25 15.75 19.6 15.85 19.1 15.95 18.55 16.65 17.85 17.25 16.85 Q17.4 16.3 18.05 15.45 L18.8 14.15 Q19.0 12.9 19.35 12.3 L19.6 11.3 19.45 10.35 19.3 9.2 19.35 8.7 19.4 8.15 Q19.4 7.3 18.1 5.65 17.0 4.35 15.9 3.4 L15.7 2.8 M17.1 3.85 L18.65 5.65 19.6 7.15 19.85 8.15 19.8 8.6 19.75 9.1 19.8 9.6 20.05 11.45 19.9 12.6 19.25 13.7 19.05 14.75 17.85 16.65 17.25 17.75 16.5 18.65 Q16.4 18.65 16.25 19.3 L15.7 20.35 Q15.35 20.75 15.15 21.9 L15.0 23.4 15.1 24.8 15.0 26.15 14.8 28.0 15.0 29.1 15.25 30.6 Q15.25 32.2 14.1 33.8 12.95 35.5 11.65 35.5 L11.0 35.6 9.95 35.7 9.25 35.65 8.9 35.55 8.35 35.35 Q7.65 35.15 7.15 34.75 L6.65 34.2 6.15 33.55 5.5 32.0 Q5.0 30.5 5.0 29.1 5.0 28.0 5.45 26.7 L5.85 25.4 Q5.85 24.2 5.45 22.2 5.0 20.15 4.6 19.45 L1.55 14.95 0.85 13.9 0.6 12.9 Q0.6 10.05 0.9 8.65 1.2 7.1 2.05 6.35 L2.75 5.65 3.2 4.75 Q3.4 4.3 3.95 3.75 L5.15 2.8 Q7.5 1.6 8.3 1.4 L8.7 1.35 9.05 1.25 10.3 0.55 Q10.8 0.25 11.65 0.05 13.2 -0.2 14.45 0.55 15.9 1.35 16.35 3.2 L17.1 3.85" fill="#000000" fill-rule="evenodd" stroke="none"/>
    <path d="M15.7 2.8 L15.9 3.4 Q17.0 4.35 18.1 5.65 19.4 7.3 19.4 8.15 L19.35 8.7 19.3 9.2 19.45 10.35 19.6 11.3 19.35 12.3 Q19.0 12.9 18.8 14.15 L18.05 15.45 Q17.4 16.3 17.25 16.85 L16.65 17.85 15.95 18.55 15.85 19.1 15.75 19.6 15.2 20.25 14.8 20.8 14.65 22.6 14.5 23.25 14.65 24.9 14.5 26.4 14.3 27.85 14.55 29.1 14.75 30.25 Q14.75 32.35 13.5 33.75 12.2 35.25 10.0 35.25 7.1 35.25 6.0 32.15 L5.5 30.05 5.45 29.1 Q5.45 27.8 5.85 26.8 L6.25 25.85 Q6.25 20.5 3.6 16.8 L1.8 14.5 Q0.95 13.45 0.95 12.7 L1.15 11.3 1.05 9.65 1.4 8.0 1.8 7.35 2.25 6.75 2.7 6.35 3.15 5.85 Q3.5 4.6 4.95 3.45 5.35 3.1 6.9 2.45 8.45 1.75 8.9 1.75 9.25 1.75 10.25 1.15 11.25 0.5 11.9 0.5 14.25 0.5 15.2 1.8 L15.7 2.8 M17.55 5.9 Q16.25 4.0 15.35 4.0 L14.95 4.1 14.7 4.15 14.6 4.1 14.55 3.95 14.75 3.4 14.9 2.95 Q14.9 1.7 13.95 1.25 L11.9 0.9 Q10.25 0.9 10.05 1.7 L10.05 2.3 9.9 2.75 8.65 2.3 7.3 2.95 4.95 4.2 3.5 6.35 2.25 8.25 2.05 8.6 Q1.7 9.25 1.7 9.95 1.7 11.7 2.25 12.25 L2.8 12.8 3.35 13.95 Q3.8 15.5 5.5 17.25 L6.6 18.3 7.1 19.05 7.0 19.4 Q6.85 19.7 6.85 20.05 7.1 19.9 7.2 19.9 L7.25 19.95 7.3 20.05 7.05 20.6 6.8 21.4 6.9 24.3 7.0 27.65 7.05 28.65 7.15 29.25 Q7.2 29.8 6.85 29.95 L6.5 27.65 6.5 27.8 6.2 28.55 6.0 29.4 6.0 29.75 6.05 30.4 Q6.05 30.95 6.2 31.3 6.35 31.7 6.6 31.7 L7.15 31.0 Q7.2 32.35 8.0 33.15 8.75 33.9 10.15 33.9 11.55 33.9 12.8 33.1 14.4 32.05 14.4 30.2 14.4 29.45 13.9 28.45 L13.85 30.75 13.6 31.15 13.45 31.15 13.25 29.25 13.2 27.85 Q13.2 27.2 13.5 25.85 L13.75 24.6 13.6 23.1 13.95 22.15 14.3 20.7 14.25 20.6 14.1 19.95 13.9 19.1 13.85 18.75 Q13.85 18.55 14.9 17.9 L16.35 17.0 Q15.8 16.55 16.75 15.5 L17.5 14.75 17.9 14.1 Q17.95 13.3 18.45 12.65 L18.95 11.65 18.7 10.05 18.45 9.0 18.6 8.4 18.75 8.0 18.4 7.3 17.55 5.9" fill="#8c531c" fill-rule="evenodd" stroke="none"/>
    <path d="M16.65 5.7 Q15.65 4.6 15.3 4.6 L14.1 5.0 Q13.35 5.4 12.95 5.4 L12.85 5.35 12.9 5.25 13.75 4.0 14.3 3.05 13.8 2.3 Q13.2 1.65 12.45 1.65 L10.8 1.75 Q10.4 1.95 10.4 2.6 L10.75 4.1 10.7 4.15 10.65 4.2 10.55 4.2 9.9 3.65 Q9.4 3.2 9.05 3.2 8.2 3.2 6.95 4.05 5.55 5.0 5.2 6.1 L4.3 7.05 Q3.45 7.8 3.3 8.4 L2.75 9.95 2.5 10.6 Q2.5 10.95 3.45 13.1 L4.7 15.6 5.6 16.8 6.45 17.65 9.15 18.4 9.6 18.5 9.65 18.65 9.35 18.95 8.7 19.45 Q7.7 20.2 7.7 20.9 L7.85 22.25 7.95 23.0 7.9 23.6 7.8 24.6 Q7.85 26.6 7.3 29.3 L7.35 29.55 Q8.55 29.3 9.05 26.85 L9.3 25.1 9.4 24.15 9.45 24.2 9.55 24.75 Q9.55 27.1 8.7 29.25 L8.1 30.55 7.85 31.2 Q7.85 32.25 8.45 32.5 L10.65 32.65 Q11.7 32.65 12.35 31.55 12.9 30.65 12.9 29.85 L12.65 29.2 12.4 27.95 Q12.4 26.35 12.7 23.65 L13.2 19.8 12.8 19.75 12.4 19.7 Q12.05 19.7 11.9 20.85 L11.6 23.55 11.4 26.75 10.85 29.3 10.75 28.7 10.75 28.35 Q10.75 23.35 11.4 20.8 12.3 17.45 14.5 17.45 15.0 17.45 15.5 16.3 L16.15 14.8 Q16.8 13.95 17.35 13.75 L17.55 13.6 17.6 13.25 Q17.65 12.55 18.0 11.95 L18.4 10.85 17.85 10.1 Q17.35 9.3 17.35 8.9 L17.75 7.8 Q17.75 6.95 16.65 5.7 M17.55 5.9 L18.4 7.3 18.75 8.0 18.6 8.4 18.45 9.0 18.7 10.05 18.95 11.65 18.45 12.65 Q17.95 13.3 17.9 14.1 L17.5 14.75 16.75 15.5 Q15.8 16.55 16.35 17.0 L14.9 17.9 Q13.85 18.55 13.85 18.75 L13.9 19.1 14.1 19.95 14.25 20.6 14.3 20.7 13.95 22.15 13.6 23.1 13.75 24.6 13.5 25.85 Q13.2 27.2 13.2 27.85 L13.25 29.25 13.45 31.15 13.6 31.15 13.85 30.75 13.9 28.45 Q14.4 29.45 14.4 30.2 14.4 32.05 12.8 33.1 11.55 33.9 10.15 33.9 8.75 33.9 8.0 33.15 7.2 32.35 7.15 31.0 L6.6 31.7 Q6.35 31.7 6.2 31.3 6.05 30.95 6.05 30.4 L6.0 29.75 6.0 29.4 6.2 28.55 6.5 27.8 6.5 27.65 6.85 29.95 Q7.2 29.8 7.15 29.25 L7.05 28.65 7.0 27.65 6.9 24.3 6.8 21.4 7.05 20.6 7.3 20.05 7.25 19.95 7.2 19.9 Q7.1 19.9 6.85 20.05 6.85 19.7 7.0 19.4 L7.1 19.05 6.6 18.3 5.5 17.25 Q3.8 15.5 3.35 13.95 L2.8 12.8 2.25 12.25 Q1.7 11.7 1.7 9.95 1.7 9.25 2.05 8.6 L2.25 8.25 3.5 6.35 4.95 4.2 7.3 2.95 8.65 2.3 9.9 2.75 10.05 2.3 10.05 1.7 Q10.25 0.9 11.9 0.9 L13.95 1.25 Q14.9 1.7 14.9 2.95 L14.75 3.4 14.55 3.95 14.6 4.1 14.7 4.15 14.95 4.1 15.35 4.0 Q16.25 4.0 17.55 5.9" fill="#ac712e" fill-rule="evenodd" stroke="none"/>
    <path d="M16.65 5.7 Q17.75 6.95 17.75 7.8 L17.35 8.9 Q17.35 9.3 17.85 10.1 L18.4 10.85 18.0 11.95 Q17.65 12.55 17.6 13.25 L17.55 13.6 17.35 13.75 Q16.8 13.95 16.15 14.8 L15.5 16.3 Q15.0 17.45 14.5 17.45 12.3 17.45 11.4 20.8 10.75 23.35 10.75 28.35 L10.75 28.7 10.85 29.3 11.4 26.75 11.6 23.55 11.9 20.85 Q12.05 19.7 12.4 19.7 L12.8 19.75 13.2 19.8 12.7 23.65 Q12.4 26.35 12.4 27.95 L12.65 29.2 12.9 29.85 Q12.9 30.65 12.35 31.55 11.7 32.65 10.65 32.65 L8.45 32.5 Q7.85 32.25 7.85 31.2 L8.1 30.55 8.7 29.25 Q9.55 27.1 9.55 24.75 L9.45 24.2 9.4 24.15 9.3 25.1 9.05 26.85 Q8.55 29.3 7.35 29.55 L7.3 29.3 Q7.85 26.6 7.8 24.6 L7.9 23.6 7.95 23.0 7.85 22.25 7.7 20.9 Q7.7 20.2 8.7 19.45 L9.35 18.95 9.65 18.65 9.6 18.5 9.15 18.4 6.45 17.65 5.6 16.8 4.7 15.6 3.45 13.1 Q2.5 10.95 2.5 10.6 L2.75 9.95 3.3 8.4 Q3.45 7.8 4.3 7.05 L5.2 6.1 Q5.55 5.0 6.95 4.05 8.2 3.2 9.05 3.2 9.4 3.2 9.9 3.65 L10.55 4.2 10.65 4.2 10.7 4.15 10.75 4.1 10.4 2.6 Q10.4 1.95 10.8 1.75 L12.45 1.65 Q13.2 1.65 13.8 2.3 L14.3 3.05 13.75 4.0 12.9 5.25 12.85 5.35 12.95 5.4 Q13.35 5.4 14.1 5.0 L15.3 4.6 Q15.65 4.6 16.65 5.7 M13.5 2.9 L13.15 2.4 Q12.75 2.1 12.35 2.1 11.15 2.1 11.15 3.55 L11.55 4.25 11.25 5.25 10.5 5.5 Q9.8 5.5 9.35 5.0 8.85 4.55 8.45 4.55 7.6 4.55 6.85 5.15 6.1 5.85 5.75 6.95 L5.15 8.05 4.45 8.7 3.85 9.35 Q3.6 9.8 3.6 10.55 L4.0 11.3 4.7 11.75 Q5.25 11.75 5.95 11.1 6.65 10.4 6.65 9.8 L6.55 9.05 6.35 8.6 6.45 8.5 6.75 8.2 7.2 8.8 7.75 9.45 8.45 9.1 9.2 8.8 9.3 8.85 9.3 8.95 8.85 9.7 7.85 10.5 Q6.35 11.65 6.35 12.3 L6.5 12.65 6.6 12.95 6.5 13.4 6.45 13.85 Q6.45 14.65 7.5 15.2 8.8 15.9 11.1 15.9 L11.8 15.85 12.75 15.7 Q11.2 16.65 10.4 17.85 9.75 18.9 9.75 20.05 L9.9 21.95 10.1 24.5 10.05 25.5 9.85 27.95 9.3 29.5 Q8.75 30.75 8.75 31.5 L8.85 31.95 9.75 32.15 11.05 31.95 Q11.55 31.7 11.55 31.2 11.55 30.55 10.95 30.1 L10.6 29.8 10.4 29.5 10.5 27.05 10.7 25.8 10.6 23.55 Q10.55 21.55 10.85 20.25 11.15 19.15 12.95 17.05 L14.1 15.6 14.65 14.5 14.6 14.3 14.5 14.15 14.6 13.75 14.7 13.35 Q14.7 12.85 13.05 12.5 L11.35 12.25 10.25 12.55 9.3 12.95 9.15 12.95 9.1 12.75 9.55 12.3 10.2 12.05 Q11.0 11.65 11.0 10.6 L10.95 9.85 10.85 9.55 Q10.85 9.0 11.25 8.6 L11.65 8.3 11.8 8.35 11.85 8.75 11.75 9.1 11.65 9.6 Q11.65 10.25 12.55 11.0 13.5 11.85 14.5 11.85 15.65 11.85 16.1 10.45 L16.4 7.6 16.1 6.55 Q15.8 5.9 15.35 5.9 L13.7 6.25 12.7 6.65 12.25 6.55 11.7 6.15 13.1 3.95 13.5 2.9 M16.55 11.75 Q16.2 11.75 15.95 12.0 15.65 12.25 15.65 12.6 L15.95 13.25 16.55 13.5 17.15 13.25 17.4 12.6 17.15 12.0 16.55 11.75 M5.15 12.95 L4.95 13.6 5.15 14.2 5.6 14.5 Q5.9 14.5 6.1 14.2 L6.3 13.6 6.1 12.95 Q5.9 12.7 5.6 12.7 L5.15 12.95 M8.45 24.7 L8.5 25.3 8.75 25.5 8.85 25.5 Q8.75 25.05 9.1 23.0 9.35 21.2 9.05 20.8 L8.65 22.8 8.45 24.7" fill="#cc9141" fill-rule="evenodd" stroke="none"/>
    <path d="M13.5 2.9 L13.1 3.95 11.7 6.15 12.25 6.55 12.7 6.65 13.7 6.25 15.35 5.9 Q15.8 5.9 16.1 6.55 L16.4 7.6 16.1 10.45 Q15.65 11.85 14.5 11.85 13.5 11.85 12.55 11.0 11.65 10.25 11.65 9.6 L11.75 9.1 11.85 8.75 11.8 8.35 11.65 8.3 11.25 8.6 Q10.85 9.0 10.85 9.55 L10.95 9.85 11.0 10.6 Q11.0 11.65 10.2 12.05 L9.55 12.3 9.1 12.75 9.15 12.95 9.3 12.95 10.25 12.55 11.35 12.25 13.05 12.5 Q14.7 12.85 14.7 13.35 L14.6 13.75 14.5 14.15 14.6 14.3 14.65 14.5 14.1 15.6 12.95 17.05 Q11.15 19.15 10.85 20.25 10.55 21.55 10.6 23.55 L10.7 25.8 10.5 27.05 10.4 29.5 10.6 29.8 10.95 30.1 Q11.55 30.55 11.55 31.2 11.55 31.7 11.05 31.95 L9.75 32.15 8.85 31.95 8.75 31.5 Q8.75 30.75 9.3 29.5 L9.85 27.95 10.05 25.5 10.1 24.5 9.9 21.95 9.75 20.05 Q9.75 18.9 10.4 17.85 11.2 16.65 12.75 15.7 L11.8 15.85 11.1 15.9 Q8.8 15.9 7.5 15.2 6.45 14.65 6.45 13.85 L6.5 13.4 6.6 12.95 6.5 12.65 6.35 12.3 Q6.35 11.65 7.85 10.5 L8.85 9.7 9.3 8.95 9.3 8.85 9.2 8.8 8.45 9.1 7.75 9.45 7.2 8.8 6.75 8.2 6.45 8.5 6.35 8.6 6.55 9.05 6.65 9.8 Q6.65 10.4 5.95 11.1 5.25 11.75 4.7 11.75 L4.0 11.3 3.6 10.55 Q3.6 9.8 3.85 9.35 L4.45 8.7 5.15 8.05 5.75 6.95 Q6.1 5.85 6.85 5.15 7.6 4.55 8.45 4.55 8.85 4.55 9.35 5.0 9.8 5.5 10.5 5.5 L11.25 5.25 11.55 4.25 11.15 3.55 Q11.15 2.1 12.35 2.1 12.75 2.1 13.15 2.4 L13.5 2.9 M10.2 10.1 L10.15 10.0 10.15 9.95 10.0 9.95 Q9.2 10.3 8.5 11.05 L7.6 12.5 Q7.25 13.25 7.35 13.75 7.45 14.25 8.0 14.25 L8.2 14.25 8.4 14.0 8.3 13.85 8.2 13.65 9.2 12.0 10.2 10.1 M10.4 6.75 L10.25 6.35 Q10.1 6.2 9.8 6.2 9.0 6.2 8.25 6.8 7.6 7.3 7.6 7.7 7.6 8.1 8.1 8.1 L9.65 7.8 Q10.4 7.45 10.4 6.75 M15.15 8.95 L14.85 8.0 Q14.55 7.6 14.15 7.6 13.7 7.6 13.45 8.0 13.15 8.4 13.15 8.95 13.15 9.45 13.45 9.85 13.7 10.25 14.15 10.25 L14.85 9.85 15.15 8.95 M12.35 2.7 Q12.1 2.7 11.95 2.85 L11.8 3.25 11.95 3.65 Q12.1 3.85 12.35 3.85 12.6 3.85 12.75 3.65 L12.9 3.25 12.75 2.85 12.35 2.7 M16.55 11.75 L17.15 12.0 17.4 12.6 17.15 13.25 16.55 13.5 15.95 13.25 15.65 12.6 Q15.65 12.25 15.95 12.0 16.2 11.75 16.55 11.75 M10.0 13.75 Q9.5 13.95 9.5 14.3 9.5 14.65 10.0 14.9 L11.15 15.15 12.3 14.9 12.8 14.3 Q12.8 13.95 12.3 13.75 L11.15 13.5 10.0 13.75 M4.5 9.45 Q4.35 9.65 4.35 9.9 L4.5 10.35 Q4.7 10.55 4.95 10.55 L5.4 10.35 5.6 9.9 5.4 9.45 4.95 9.25 4.5 9.45 M8.45 24.7 L8.65 22.8 9.05 20.8 Q9.35 21.2 9.1 23.0 8.75 25.05 8.85 25.5 L8.75 25.5 8.5 25.3 8.45 24.7 M5.15 12.95 L5.6 12.7 Q5.9 12.7 6.1 12.95 L6.3 13.6 6.1 14.2 Q5.9 14.5 5.6 14.5 L5.15 14.2 4.95 13.6 5.15 12.95 M10.55 30.8 L10.4 30.35 9.95 30.15 9.5 30.35 9.3 30.8 9.5 31.25 9.95 31.45 10.4 31.25 10.55 30.8" fill="#dea353" fill-rule="evenodd" stroke="none"/>
    <path d="M12.35 2.7 L12.75 2.85 12.9 3.25 12.75 3.65 Q12.6 3.85 12.35 3.85 12.1 3.85 11.95 3.65 L11.8 3.25 11.95 2.85 Q12.1 2.7 12.35 2.7 M15.15 8.95 L14.85 9.85 14.15 10.25 Q13.7 10.25 13.45 9.85 13.15 9.45 13.15 8.95 13.15 8.4 13.45 8.0 13.7 7.6 14.15 7.6 14.55 7.6 14.85 8.0 L15.15 8.95 M10.4 6.75 Q10.4 7.45 9.65 7.8 L8.1 8.1 Q7.6 8.1 7.6 7.7 7.6 7.3 8.25 6.8 9.0 6.2 9.8 6.2 10.1 6.2 10.25 6.35 L10.4 6.75 M10.2 10.1 L9.2 12.0 8.2 13.65 8.3 13.85 8.4 14.0 8.2 14.25 8.0 14.25 Q7.45 14.25 7.35 13.75 7.25 13.25 7.6 12.5 L8.5 11.05 Q9.2 10.3 10.0 9.95 L10.15 9.95 10.15 10.0 10.2 10.1 M4.5 9.45 L4.95 9.25 5.4 9.45 5.6 9.9 5.4 10.35 4.95 10.55 Q4.7 10.55 4.5 10.35 L4.35 9.9 Q4.35 9.65 4.5 9.45 M10.0 13.75 L11.15 13.5 12.3 13.75 Q12.8 13.95 12.8 14.3 L12.3 14.9 11.15 15.15 10.0 14.9 Q9.5 14.65 9.5 14.3 9.5 13.95 10.0 13.75 M10.55 30.8 L10.4 31.25 9.95 31.45 9.5 31.25 9.3 30.8 9.5 30.35 9.95 30.15 10.4 30.35 10.55 30.8" fill="#ecb56a" fill-rule="evenodd" stroke="none"/>
  </g>
</svg>
