<?xml version="1.0" encoding="UTF-8" standalone="no"?>
<svg xmlns:ffdec="https://www.free-decompiler.com/flash" xmlns:xlink="http://www.w3.org/1999/xlink" ffdec:objectType="shape" height="87.25px" width="161.75px" xmlns="http://www.w3.org/2000/svg">
  <g transform="matrix(1.0, 0.0, 0.0, 1.0, -161.95, -195.35)">
    <path d="M322.2 239.0 Q322.2 256.45 298.95 268.75 275.7 281.1 242.85 281.1 209.95 281.1 186.7 268.75 163.45 256.45 163.45 239.0 163.45 221.55 186.7 209.2 209.95 196.85 242.85 196.85 275.7 196.85 298.95 209.2 322.2 221.55 322.2 239.0" fill="#ffffff" fill-rule="evenodd" stroke="none"/>
    <path d="M322.2 239.0 Q322.2 256.45 298.95 268.75 275.7 281.1 242.85 281.1 209.95 281.1 186.7 268.75 163.45 256.45 163.45 239.0 163.45 221.55 186.7 209.2 209.95 196.85 242.85 196.85 275.7 196.85 298.95 209.2 322.2 221.55 322.2 239.0 Z" fill="none" stroke="#ff0000" stroke-linecap="round" stroke-linejoin="round" stroke-width="3.0"/>
  </g>
</svg>
