<?xml version="1.0" encoding="UTF-8" standalone="no"?>
<svg xmlns:ffdec="https://www.free-decompiler.com/flash" xmlns:xlink="http://www.w3.org/1999/xlink" ffdec:objectType="shape" height="88.9px" width="14.2px" xmlns="http://www.w3.org/2000/svg">
  <g transform="matrix(1.0, 0.0, 0.0, 1.0, -18.45, -0.75)">
    <path d="M31.3 6.6 L31.45 6.6 31.45 7.65 31.45 85.45 31.45 86.55 30.5 86.9 29.4 86.4 25.45 85.9 21.45 86.4 20.5 86.85 19.75 86.55 19.6 85.45 19.6 7.65 Q19.6 7.1 19.75 6.6 L19.7 6.6 Q19.95 4.9 21.3 3.7 L21.3 3.6 Q23.05 1.9 25.5 1.9 27.95 1.9 29.6 3.6 30.95 4.85 31.3 6.6 M21.35 9.35 L21.35 78.95 Q25.4 76.9 29.6 78.95 L29.6 9.35 Q25.5 6.45 21.35 9.35 M29.85 87.1 Q30.2 87.35 30.2 87.7 30.2 88.35 28.75 88.85 L25.45 89.3 22.1 88.85 Q20.65 88.35 20.65 87.7 20.65 87.35 21.15 87.05 L22.1 86.65 25.45 86.15 Q27.35 86.15 28.75 86.65 L29.85 87.1" fill="#5667b8" fill-rule="evenodd" stroke="none"/>
    <path d="M30.4 2.85 Q32.05 4.4 32.4 6.6 L32.6 6.6 32.65 7.65 32.65 85.45 32.6 86.55 32.25 87.85 29.9 88.9 29.4 89.0 27.1 89.55 23.45 89.45 21.45 89.0 20.55 88.65 18.8 87.85 18.55 86.55 18.45 85.45 18.45 7.75 18.45 7.65 18.45 7.5 18.5 6.6 18.55 6.6 Q18.8 4.4 20.55 2.85 22.6 0.75 25.5 0.75 28.35 0.75 30.4 2.85 M31.3 6.6 Q30.95 4.85 29.6 3.6 27.95 1.9 25.5 1.9 23.05 1.9 21.3 3.6 L21.3 3.7 Q19.95 4.9 19.7 6.6 L19.75 6.6 Q19.6 7.1 19.6 7.65 L19.6 85.45 19.75 86.55 20.5 86.85 21.45 86.4 25.45 85.9 29.4 86.4 30.5 86.9 31.45 86.55 31.45 85.45 31.45 7.65 31.45 6.6 31.3 6.6 M28.95 43.55 L28.95 9.95 Q25.8 7.4 21.95 9.95 L21.95 43.55 21.95 45.85 21.95 49.75 21.95 77.85 28.95 78.05 28.95 49.75 28.95 45.85 28.95 43.55 M21.35 9.35 Q25.5 6.45 29.6 9.35 L29.6 78.95 Q25.4 76.9 21.35 78.95 L21.35 9.35 M29.85 87.1 L28.75 86.65 Q27.35 86.15 25.45 86.15 L22.1 86.65 21.15 87.05 Q20.65 87.35 20.65 87.7 20.65 88.35 22.1 88.85 L25.45 89.3 28.75 88.85 Q30.2 88.35 30.2 87.7 30.2 87.35 29.85 87.1" fill="#000000" fill-rule="evenodd" stroke="none"/>
    <path d="M21.95 43.55 L21.95 9.95 Q25.8 7.4 28.95 9.95 L28.95 43.55 Q25.5 40.8 21.95 43.55 M28.95 45.85 L28.95 49.75 Q25.5 48.0 21.95 49.75 L21.95 45.85 Q25.5 42.75 28.95 45.85" fill="#333333" fill-rule="evenodd" stroke="none"/>
    <path d="M28.95 43.55 L28.95 45.85 Q25.5 42.75 21.95 45.85 L21.95 43.55 Q25.5 40.8 28.95 43.55" fill="#ffffff" fill-rule="evenodd" stroke="none"/>
    <path d="M28.95 49.75 L28.95 78.05 21.95 77.85 21.95 49.75 Q25.5 48.0 28.95 49.75" fill="#00ff00" fill-rule="evenodd" stroke="none"/>
  </g>
</svg>
