<?xml version="1.0" encoding="UTF-8" standalone="no"?>
<svg xmlns:ffdec="https://www.free-decompiler.com/flash" xmlns:xlink="http://www.w3.org/1999/xlink" ffdec:objectType="shape" height="74.4px" width="74.4px" xmlns="http://www.w3.org/2000/svg">
  <g transform="matrix(1.0, 0.0, 0.0, 1.0, -365.8, -19.05)">
    <path d="M415.15 39.95 L417.4 41.9 Q423.55 48.05 423.55 56.75 423.55 65.4 417.4 71.55 411.25 77.7 402.55 77.7 393.85 77.7 387.7 71.55 381.6 65.4 381.6 56.7 381.6 48.05 387.7 41.9 390.55 39.05 394.0 37.5 L394.0 44.2 403.8 34.4 394.0 24.6 394.0 29.85 Q387.65 31.8 382.6 36.85 374.4 45.1 374.4 56.75 374.4 68.45 382.6 76.7 390.85 84.95 402.55 84.95 414.25 84.95 422.5 76.7 430.75 68.45 430.75 56.75 430.75 45.1 422.5 36.85 419.1 33.45 415.15 31.5 L415.15 39.95 M428.2 81.5 Q417.75 91.95 403.0 91.95 388.25 91.95 377.75 81.5 367.3 71.0 367.3 56.25 367.3 41.5 377.75 31.0 388.25 20.55 403.0 20.55 417.75 20.55 428.2 31.0 438.7 41.5 438.7 56.25 438.7 71.0 428.2 81.5" fill="#ffffff" fill-rule="evenodd" stroke="none"/>
    <path d="M415.15 39.95 L415.15 31.5 Q419.1 33.45 422.5 36.85 430.75 45.1 430.75 56.75 430.75 68.45 422.5 76.7 414.25 84.95 402.55 84.95 390.85 84.95 382.6 76.7 374.4 68.45 374.4 56.75 374.4 45.1 382.6 36.85 387.65 31.8 394.0 29.85 L394.0 24.6 403.8 34.4 394.0 44.2 394.0 37.5 Q390.55 39.05 387.7 41.9 381.6 48.05 381.6 56.7 381.6 65.4 387.7 71.55 393.85 77.7 402.55 77.7 411.25 77.7 417.4 71.55 423.55 65.4 423.55 56.75 423.55 48.05 417.4 41.9 L415.15 39.95" fill="#ff0000" fill-rule="evenodd" stroke="none"/>
    <path d="M428.2 81.5 Q417.75 91.95 403.0 91.95 388.25 91.95 377.75 81.5 367.3 71.0 367.3 56.25 367.3 41.5 377.75 31.0 388.25 20.55 403.0 20.55 417.75 20.55 428.2 31.0 438.7 41.5 438.7 56.25 438.7 71.0 428.2 81.5 Z" fill="none" stroke="#000000" stroke-linecap="round" stroke-linejoin="round" stroke-width="3.0"/>
  </g>
</svg>
