<?xml version="1.0" encoding="UTF-8" standalone="no"?>
<svg xmlns:ffdec="https://www.free-decompiler.com/flash" xmlns:xlink="http://www.w3.org/1999/xlink" ffdec:objectType="shape" height="30.6px" width="41.3px" xmlns="http://www.w3.org/2000/svg">
  <g transform="matrix(1.0, 0.0, 0.0, 1.0, 4.1, 10.4)">
    <path d="M26.25 8.55 Q29.9 8.45 31.35 10.1 L28.6 12.1 25.4 14.0 19.9 15.55 15.7 16.3 12.7 15.85 10.45 15.4 15.8 11.85 7.45 11.45 Q2.75 10.85 0.0 7.6 3.65 9.25 11.15 9.4 16.6 9.4 21.25 8.35 27.55 6.95 30.6 3.85 L26.25 8.55" fill="#f9f9f9" fill-rule="evenodd" stroke="none"/>
    <path d="M34.7 7.95 Q32.75 11.95 27.85 15.05 22.9 18.1 18.55 18.1 L11.8 17.6 7.8 16.5 Q7.0 16.0 6.85 14.9 L6.85 13.9 13.5 12.35 Q6.6 13.8 1.4 10.45 L-1.95 5.95 7.45 7.7 Q23.8 7.7 34.25 -6.9 35.25 -2.65 35.2 1.55 34.7 4.35 29.85 7.1 32.2 6.5 33.7 7.15 34.45 7.5 34.7 7.95 M26.25 8.55 L30.6 3.85 Q27.55 6.95 21.25 8.35 16.6 9.4 11.15 9.4 3.65 9.25 0.0 7.6 2.75 10.85 7.45 11.45 L15.8 11.85 10.45 15.4 12.7 15.85 15.7 16.3 19.9 15.55 25.4 14.0 28.6 12.1 31.35 10.1 Q29.9 8.45 26.25 8.55" fill="#e5e5e5" fill-rule="evenodd" stroke="none"/>
    <path d="M35.2 1.55 L34.7 7.95 Q34.45 7.5 33.7 7.15 32.2 6.5 29.85 7.1 34.7 4.35 35.2 1.55 M7.8 16.5 Q5.3 15.0 4.5 14.35 2.15 12.55 1.4 10.45 6.6 13.8 13.5 12.35 L6.85 13.9 6.85 14.9 Q7.0 16.0 7.8 16.5" fill="#868686" fill-rule="evenodd" stroke="none"/>
    <path d="M34.7 7.95 L35.2 1.55 Q35.25 -2.65 34.25 -6.9 23.8 7.7 7.45 7.7 L-1.95 5.95 1.4 10.45 Q2.15 12.55 4.5 14.35 5.3 15.0 7.8 16.5 L11.8 17.6 18.55 18.1 Q22.9 18.1 27.85 15.05 32.75 11.95 34.7 7.95 M0.75 5.25 L6.2 5.6 Q14.95 5.6 21.15 2.4 28.35 -1.35 34.45 -10.4 40.35 3.9 33.5 12.65 27.55 20.2 16.05 20.2 9.9 20.2 5.15 17.5 -2.0 13.4 -4.1 3.8 -1.6 4.9 0.75 5.25" fill="#6c3d28" fill-rule="evenodd" stroke="none"/>
  </g>
</svg>
