<?xml version="1.0" encoding="UTF-8" standalone="no"?>
<svg xmlns:ffdec="https://www.free-decompiler.com/flash" xmlns:xlink="http://www.w3.org/1999/xlink" ffdec:objectType="shape" height="272.0px" width="3.0px" xmlns="http://www.w3.org/2000/svg">
  <g transform="matrix(1.0, 0.0, 0.0, 1.0, -245.5, -86.0)">
    <path d="M247.0 92.5 L247.0 87.5 M247.0 116.5 L247.0 110.5 M247.0 128.5 L247.0 122.5 M247.0 140.5 L247.0 134.5 M247.0 164.5 L247.0 158.5 M247.0 176.5 L247.0 170.5 M247.0 188.5 L247.0 182.5 M247.0 152.5 L247.0 146.5 M247.0 104.5 L247.0 98.5 M247.0 212.5 L247.0 206.5 M247.0 224.5 L247.0 218.5 M247.0 236.5 L247.0 230.5 M247.0 260.5 L247.0 254.5 M247.0 272.5 L247.0 266.5 M247.0 284.5 L247.0 278.5 M247.0 296.5 L247.0 290.5 M247.0 248.5 L247.0 242.5 M247.0 308.5 L247.0 302.5 M247.0 320.5 L247.0 314.5 M247.0 332.5 L247.0 326.5 M247.0 344.5 L247.0 338.5 M247.0 356.5 L247.0 350.5 M247.0 200.5 L247.0 194.5" fill="none" stroke="#0000ff" stroke-linecap="round" stroke-linejoin="round" stroke-opacity="0.49803922" stroke-width="3.0"/>
  </g>
</svg>
