<?xml version="1.0" encoding="UTF-8" standalone="no"?>
<svg xmlns:ffdec="https://www.free-decompiler.com/flash" xmlns:xlink="http://www.w3.org/1999/xlink" ffdec:objectType="shape" height="276.6px" width="272.6px" xmlns="http://www.w3.org/2000/svg">
  <g transform="matrix(1.0, 0.0, 0.0, 1.0, -108.45, -81.1)">
    <path d="M355.65 159.25 L357.45 157.3 355.75 154.6 M347.1 167.75 L351.45 163.6 M337.75 175.45 L342.5 171.7 M327.75 182.25 L332.8 179.0 M334.85 163.75 L330.2 167.55 M343.15 155.25 L339.15 159.65 M352.55 149.5 L350.25 145.7 346.85 150.55 M358.85 280.2 L361.05 276.4 355.15 275.75 M351.65 287.5 L354.25 288.2 355.85 285.4 M340.0 283.95 L345.7 285.85 M328.9 279.45 L334.4 281.85 M337.95 271.4 L332.45 269.1 M349.35 274.7 L343.6 273.25 M310.25 112.35 L311.05 109.2 308.25 107.6 M303.05 104.6 L299.25 102.4 298.55 108.3 M297.5 114.2 L296.05 120.0 M294.15 125.7 L291.85 131.2 M289.1 136.55 L285.9 141.7 M296.6 145.4 L299.5 140.2 M302.2 134.8 L304.6 129.35 M306.7 123.75 L308.6 118.15 M272.9 169.2 L275.6 170.7 277.8 168.7 M264.9 163.1 L263.8 163.9 267.7 166.2 M274.1 155.5 L269.5 159.55 M289.9 155.3 L293.4 150.4 M303.25 180.55 L297.2 181.95 M291.15 182.95 L289.95 183.15 292.4 187.05 M295.6 192.15 L297.1 194.65 300.1 193.9 M314.65 176.55 L309.0 178.75 M305.85 192.25 L311.5 190.2 M317.05 187.85 L322.5 185.2 M282.05 164.5 L286.1 160.0 M282.3 146.6 L278.4 151.2 M300.75 242.6 L299.55 240.95 297.25 244.85 M277.2 272.7 L273.4 275.1 274.95 280.95 M276.8 286.7 L279.0 292.35 M317.25 259.75 L312.7 255.9 M308.15 267.0 L313.05 270.55 M294.25 250.05 L292.75 252.75 294.7 254.9 M298.95 259.2 L303.45 263.25 M285.45 271.45 L284.9 267.9 282.3 269.5 M292.25 294.25 L289.95 288.75 M288.1 283.15 L286.6 277.4 M318.15 273.8 L323.45 276.75 M308.45 251.75 L304.45 247.3 M287.55 308.4 L291.0 313.45 M298.05 304.7 L294.95 299.6 M310.85 335.35 L315.95 332.15 M321.05 329.05 L322.35 328.25 318.75 325.8 M294.6 318.3 L298.5 323.05 M302.6 327.5 L306.9 331.85 M314.05 322.2 L309.6 318.3 M305.4 314.05 Q303.4 311.85 301.55 309.5 M281.55 297.8 L284.4 303.15 M325.25 170.95 L320.05 173.95 M327.15 266.4 L322.05 263.25" fill="none" stroke="#ff3300" stroke-linecap="round" stroke-linejoin="round" stroke-opacity="0.49803922" stroke-width="3.0"/>
    <path d="M378.6 224.85 Q379.65 222.6 379.55 219.8 379.5 216.8 378.1 213.95 M369.75 231.65 Q372.05 230.95 373.6 230.05 L374.75 229.3 M374.7 208.95 L372.9 207.15 370.0 205.05 M364.35 202.95 L358.35 202.1 M352.25 202.2 L351.65 202.2 346.15 202.7 M340.2 203.5 L334.25 204.65 M328.35 206.15 L325.55 207.05 322.9 207.9 M333.95 233.55 L340.0 233.85 M346.05 233.95 L348.85 233.9 352.2 233.85 M358.1 233.55 L363.95 232.9 M252.95 90.05 L252.2 88.55 Q251.2 86.8 249.95 85.55 M233.45 85.55 Q231.35 87.05 229.3 89.25 227.35 91.4 226.15 94.45 M244.8 82.8 L241.95 82.6 238.9 83.05 M229.0 136.0 L229.2 136.6 230.85 141.65 M226.05 124.45 L227.35 130.4 M224.5 112.5 L225.1 118.45 M224.65 100.35 Q224.25 103.15 224.2 106.45 M240.35 193.45 Q241.25 194.05 242.2 194.05 243.95 194.05 245.2 191.75 M235.55 183.2 L236.4 186.3 237.25 188.7 M234.0 171.3 L234.5 177.25 M233.8 159.05 L233.95 165.15 M232.4 147.25 L233.15 151.55 233.35 152.95 M256.05 113.8 L256.05 113.3 255.85 107.6 M255.85 125.75 L256.05 119.75 M254.2 137.9 Q254.85 135.3 255.3 131.8 M249.85 161.8 Q250.15 158.65 250.6 155.85 M248.95 173.8 L249.45 167.65 M247.1 186.05 L247.2 185.5 248.2 179.8 M251.65 150.0 Q251.25 148.1 252.35 143.85 M255.45 101.75 L254.6 95.9 M131.2 205.25 L125.35 205.9 M143.35 204.9 L140.65 204.9 137.1 204.95 M155.35 205.3 L149.3 204.95 M149.45 235.3 L155.45 234.15 M137.45 236.6 L137.85 236.6 143.45 236.1 M125.25 235.9 L131.3 236.7 M110.8 214.15 Q109.85 216.35 109.95 219.0 110.0 222.0 111.4 224.9 M119.55 207.2 Q117.35 207.9 115.9 208.75 L114.6 209.6 M114.85 229.9 L116.6 231.65 119.55 233.75 M321.9 231.3 L322.45 231.5 Q324.7 232.25 327.85 232.8 M309.85 229.05 L312.05 229.5 315.8 229.65 M297.85 227.5 L303.85 228.1 M285.75 226.5 L291.75 227.1 M293.45 211.8 L287.55 212.1 M305.75 211.5 L299.75 211.75 M317.3 209.65 Q313.6 210.7 311.5 210.95 M273.65 224.35 L276.65 225.05 279.7 225.6 M270.55 216.55 Q268.1 218.15 268.1 220.05 268.1 220.7 268.4 221.25 M281.55 212.85 Q278.5 213.4 275.85 214.25 M251.6 276.4 L251.55 271.1 251.35 265.15 M252.4 288.25 L252.35 287.25 251.85 282.4 M250.7 259.2 L249.4 253.4 M247.3 248.05 Q245.5 244.75 243.3 244.75 L242.85 244.8 M215.6 214.4 L212.85 213.75 209.4 213.1 M219.1 222.15 Q221.4 220.6 221.4 218.75 221.4 217.9 220.85 217.15 M208.1 225.9 L213.65 224.55 M167.45 207.4 L167.05 207.3 Q164.7 206.5 161.4 205.95 M179.4 209.7 L177.45 209.3 173.35 209.1 M191.3 211.3 L185.4 210.7 M196.2 227.0 L202.15 226.7 M183.9 227.3 L189.9 227.05 M172.3 229.1 Q176.05 228.05 178.1 227.85 M161.45 232.55 L163.95 231.75 166.7 230.8 M234.45 285.7 L233.85 288.7 Q234.1 289.75 233.8 291.7 M235.95 273.75 L235.35 279.75 M236.95 261.7 L236.35 267.7 M239.3 249.45 Q238.75 251.1 238.3 253.3 L237.85 255.6 M203.4 212.25 L197.45 211.7 M229.8 334.05 Q230.0 337.3 230.35 340.0 M229.4 322.0 L229.45 325.5 229.5 328.15 M229.9 309.85 L229.5 315.95 M232.3 297.65 L231.85 299.1 Q231.2 301.1 230.7 303.75 M231.55 345.85 Q232.3 348.55 233.3 350.25 L233.65 350.85 M258.7 310.85 L257.15 304.9 M260.65 322.75 L259.85 316.8 M261.25 334.9 Q261.4 332.05 261.15 328.8 M249.4 354.75 Q251.9 353.55 254.3 351.4 M258.3 346.6 Q259.7 344.15 260.45 340.95 M255.45 299.55 L253.7 293.95 M237.95 355.0 Q240.4 356.35 243.55 356.2" fill="none" stroke="#ff0000" stroke-linecap="round" stroke-linejoin="round" stroke-opacity="0.49803922" stroke-width="3.0"/>
    <path d="M180.35 108.5 L184.05 106.4 184.75 112.4 M172.85 115.4 L172.25 113.2 175.15 111.5 M180.95 138.25 L178.65 133.0 M189.3 130.05 L190.5 133.0 191.4 135.1 M194.2 140.5 Q195.65 143.15 197.4 145.7 M185.85 118.4 L187.35 124.25 M176.45 127.2 L174.55 121.5 M193.25 159.1 L189.85 154.3 M201.4 168.7 L198.5 165.5 197.15 164.0 M179.7 191.25 L174.15 189.1 M168.7 186.65 L163.45 183.9 M172.45 175.95 L178.05 178.25 M193.6 190.75 L191.2 194.65 185.35 193.1 M183.8 180.15 L189.6 181.6 M195.55 182.75 L198.35 183.15 196.75 185.65 M210.4 173.1 L207.7 174.7 205.6 172.8 M218.25 167.0 L219.5 167.9 215.6 170.1 M209.05 159.3 L213.6 163.35 M200.85 150.3 L203.0 153.0 204.75 154.95 M186.45 148.9 L183.55 143.65 M137.15 147.1 L138.05 145.7 140.5 149.3 M152.4 162.75 L157.0 166.65 M144.15 154.05 L148.1 158.55 M130.85 157.3 L134.05 152.2 M139.55 166.2 L135.3 162.05 M148.5 173.95 L143.9 170.15 M158.3 180.85 L153.35 177.5 M129.45 280.2 L127.25 276.4 133.15 275.7 M137.2 287.4 L134.05 288.2 132.45 285.4 M148.6 283.85 L143.0 285.75 M159.65 279.35 L154.2 281.75 M150.55 271.3 L156.05 269.0 M139.05 274.65 L144.85 273.2 M187.95 242.05 L188.75 240.95 191.05 244.85 M200.4 282.65 L201.85 276.85 M196.2 293.9 L198.5 288.35 M170.25 273.75 L165.05 276.65 M180.15 267.05 L175.25 270.55 M189.35 259.2 L184.85 263.25 M194.05 250.05 L195.55 252.75 193.55 254.95 M171.45 259.45 L176.05 255.55 M211.1 272.7 L214.9 275.1 213.35 280.95 M202.95 270.95 L203.4 267.9 206.0 269.5 M211.5 286.7 L209.3 292.35 M180.35 251.25 L184.4 246.65 M206.75 297.8 L203.9 303.15 M200.8 308.3 L197.45 313.35 M183.1 313.9 L186.9 309.3 M190.4 304.4 L193.5 299.3 M177.45 335.35 L172.35 332.15 M167.25 329.05 L165.95 328.25 169.65 325.75 M193.8 318.15 L189.95 322.8 M185.9 327.3 L181.7 331.55 M174.4 322.1 L178.9 318.15 M161.4 266.25 L166.55 263.05 M161.9 170.15 Q164.4 171.8 167.05 173.25" fill="none" stroke="#00cc00" stroke-linecap="round" stroke-linejoin="round" stroke-opacity="0.49803922" stroke-width="3.0"/>
  </g>
</svg>
