<?xml version="1.0" encoding="UTF-8" standalone="no"?>
<svg xmlns:ffdec="https://www.free-decompiler.com/flash" xmlns:xlink="http://www.w3.org/1999/xlink" ffdec:objectType="shape" height="76.2px" width="21.4px" xmlns="http://www.w3.org/2000/svg">
  <g transform="matrix(1.0, 0.0, 0.0, 1.0, 10.7, 38.1)">
    <path d="M7.1 -34.55 Q6.15 -35.6 4.45 -36.45 L2.65 -37.1 Q-2.15 -37.1 -4.3 -34.6 -6.4 -32.15 -6.8 -26.55 L-8.25 -17.45 Q-9.7 -7.55 -9.7 -0.15 -9.7 10.15 -8.4 19.35 L-7.15 26.65 Q-6.85 32.2 -4.7 34.6 -2.5 37.1 2.3 37.1 5.9 37.1 7.5 33.6 L8.1 33.15 Q8.4 32.95 8.4 32.35 8.4 31.85 8.9 31.1 L9.35 29.8 Q7.65 28.8 5.85 26.45 2.25 21.7 1.8 14.55 L1.1 -0.8 Q1.1 -7.3 1.75 -12.2 L2.5 -17.4 Q3.95 -23.35 4.85 -25.0 L7.5 -27.7 9.7 -29.8 8.9 -31.55 7.1 -34.55 M7.35 -26.6 L4.5 -22.1 Q4.05 -22.1 3.05 -12.6 2.1 -3.5 2.1 -0.75 L2.35 6.7 Q2.65 13.7 2.95 15.8 4.1 24.05 7.35 27.2 L9.45 28.7 Q10.35 29.25 10.35 29.65 10.35 32.2 7.7 35.1 4.95 38.1 2.3 38.1 -3.05 38.1 -5.5 35.3 -7.8 32.65 -8.15 26.8 L-9.5 18.9 Q-10.7 11.25 -10.7 -0.15 -10.7 -10.85 -9.25 -19.65 L-7.8 -26.75 Q-7.4 -32.5 -5.1 -35.2 -2.65 -38.1 2.65 -38.1 5.95 -38.1 8.65 -34.15 10.0 -32.15 10.7 -30.15 L10.0 -29.1 7.35 -26.6" fill="#000000" fill-rule="evenodd" stroke="none"/>
    <path d="M6.0 -33.65 L6.35 -33.55 Q6.65 -33.55 6.9 -33.15 L7.1 -32.2 5.0 -30.5 Q3.5 -29.65 1.7 -25.75 -0.2 -21.75 -0.25 -19.0 -0.25 -17.5 -1.0 -13.4 -1.75 -7.95 -1.75 0.15 -1.75 13.7 -1.15 17.85 -0.25 24.3 3.4 29.2 L6.25 31.9 5.85 32.6 5.75 32.7 2.95 30.3 Q0.35 29.25 -0.95 24.05 -2.65 17.5 -2.65 3.65 -2.65 -20.1 -0.25 -26.7 0.6 -29.05 2.05 -29.95 L4.45 -31.25 5.55 -32.35 6.0 -33.65" fill="#ff8a79" fill-rule="evenodd" stroke="none"/>
    <path d="M6.0 -33.65 L5.55 -32.35 4.45 -31.25 2.05 -29.95 Q0.6 -29.05 -0.25 -26.7 -2.65 -20.1 -2.65 3.65 -2.65 17.5 -0.95 24.05 0.35 29.25 2.95 30.3 L5.75 32.7 5.85 32.75 Q5.3 34.95 4.55 35.5 L2.75 35.75 Q-1.45 35.75 -3.1 34.0 -4.4 32.6 -5.2 28.25 L-8.1 7.3 -8.1 -7.3 Q-7.95 -10.25 -6.2 -22.0 -4.9 -31.05 -3.2 -33.4 -1.5 -35.75 3.75 -35.75 L4.55 -35.25 6.0 -33.65 M1.8 -34.0 Q1.15 -34.0 -0.25 -33.0 -2.25 -31.6 -2.7 -29.2 -2.6 -29.05 -2.65 -28.9 L-1.95 -28.75 Q-1.2 -28.75 0.6 -30.9 2.25 -32.85 2.45 -33.55 L2.45 -33.85 1.8 -34.0 M2.05 32.5 Q-0.55 31.1 -1.85 25.2 -3.2 18.85 -3.7 18.35 L-3.9 18.3 -4.2 19.6 Q-4.2 25.15 -2.45 29.15 -1.55 31.2 0.55 33.85 L2.05 32.5 M-2.95 -25.0 L-4.35 -22.1 -3.7 -20.9 Q-3.3 -21.5 -2.95 -22.75 -2.6 -23.95 -2.6 -24.8 L-2.95 -25.0 M-4.15 -17.1 Q-5.65 -15.35 -6.2 -9.7 L-6.45 -3.65 -6.35 -3.65 -6.35 11.15 -6.0 12.2 -5.6 12.85 Q-5.35 12.7 -5.25 10.35 L-5.1 -3.35 -4.45 -6.25 -3.7 -10.5 -3.7 -16.65 -4.15 -17.1 M-5.0 16.05 Q-5.35 16.05 -5.55 16.4 L-5.8 17.15 -5.55 17.95 -5.0 18.25 Q-4.65 18.25 -4.4 17.95 L-4.2 17.15 -4.4 16.4 Q-4.65 16.05 -5.0 16.05" fill="#c70e0e" fill-rule="evenodd" stroke="none"/>
    <path d="M6.35 -33.55 L6.0 -33.65 4.55 -35.25 3.75 -35.75 Q-1.5 -35.75 -3.2 -33.4 -4.9 -31.05 -6.2 -22.0 -7.95 -10.25 -8.1 -7.3 L-8.1 7.3 -5.2 28.25 Q-4.4 32.6 -3.1 34.0 -1.45 35.75 2.75 35.75 L4.55 35.5 Q5.3 34.95 5.85 32.75 L5.75 32.7 5.85 32.6 7.5 33.6 Q5.9 37.1 2.3 37.1 -2.5 37.1 -4.7 34.6 -6.85 32.2 -7.15 26.65 L-8.4 19.35 Q-9.7 10.15 -9.7 -0.15 -9.7 -7.55 -8.25 -17.45 L-6.8 -26.55 Q-6.4 -32.15 -4.3 -34.6 -2.15 -37.1 2.65 -37.1 L4.45 -36.45 Q6.15 -35.6 7.1 -34.55 L6.35 -33.55" fill="#950a0a" fill-rule="evenodd" stroke="none"/>
    <path d="M5.85 32.6 L6.25 31.9 6.9 32.35 8.1 30.15 6.85 29.2 3.2 25.9 Q1.8 24.45 0.9 14.55 0.25 7.45 0.25 3.35 0.25 -4.55 1.05 -13.2 1.7 -20.8 2.45 -23.65 3.15 -26.45 5.9 -27.9 8.45 -29.25 8.45 -30.1 8.45 -30.75 8.1 -31.25 L7.2 -32.25 7.1 -32.2 6.9 -33.15 Q6.65 -33.55 6.35 -33.55 L7.1 -34.55 8.9 -31.55 9.7 -29.8 7.5 -27.7 4.85 -25.0 Q3.95 -23.35 2.5 -17.4 L1.75 -12.2 Q1.1 -7.3 1.1 -0.8 L1.8 14.55 Q2.25 21.7 5.85 26.45 7.65 28.8 9.35 29.8 L8.9 31.1 Q8.4 31.85 8.4 32.35 8.4 32.95 8.1 33.15 L7.5 33.6 5.85 32.6" fill="#bf3521" fill-rule="evenodd" stroke="none"/>
    <path d="M6.25 31.9 L3.4 29.2 Q-0.25 24.3 -1.15 17.85 -1.75 13.7 -1.75 0.15 -1.75 -7.95 -1.0 -13.4 -0.25 -17.5 -0.25 -19.0 -0.2 -21.75 1.7 -25.75 3.5 -29.65 5.0 -30.5 L7.1 -32.2 7.2 -32.25 8.1 -31.25 Q8.45 -30.75 8.45 -30.1 8.45 -29.25 5.9 -27.9 3.15 -26.45 2.45 -23.65 1.7 -20.8 1.05 -13.2 0.25 -4.55 0.25 3.35 0.25 7.45 0.9 14.55 1.8 24.45 3.2 25.9 L6.85 29.2 8.1 30.15 6.9 32.35 6.25 31.9" fill="#f2533c" fill-rule="evenodd" stroke="none"/>
    <path d="M1.8 -34.0 L2.45 -33.85 2.45 -33.55 Q2.25 -32.85 0.6 -30.9 -1.2 -28.75 -1.95 -28.75 L-2.65 -28.9 Q-2.6 -29.05 -2.7 -29.2 -2.25 -31.6 -0.25 -33.0 1.15 -34.0 1.8 -34.0 M-5.0 16.05 Q-4.65 16.05 -4.4 16.4 L-4.2 17.15 -4.4 17.95 Q-4.65 18.25 -5.0 18.25 L-5.55 17.95 -5.8 17.15 -5.55 16.4 Q-5.35 16.05 -5.0 16.05 M-4.15 -17.1 L-3.7 -16.65 -3.7 -10.5 -4.45 -6.25 -5.1 -3.35 -5.25 10.35 Q-5.35 12.7 -5.6 12.85 L-6.0 12.2 -6.35 11.15 -6.35 -3.65 -6.45 -3.65 -6.2 -9.7 Q-5.65 -15.35 -4.15 -17.1 M-2.95 -25.0 L-2.6 -24.8 Q-2.6 -23.95 -2.95 -22.75 -3.3 -21.5 -3.7 -20.9 L-4.35 -22.1 -2.95 -25.0 M2.05 32.5 L0.55 33.85 Q-1.55 31.2 -2.45 29.15 -4.2 25.15 -4.2 19.6 L-3.9 18.3 -3.7 18.35 Q-3.2 18.85 -1.85 25.2 -0.55 31.1 2.05 32.5" fill="#fa4747" fill-rule="evenodd" stroke="none"/>
  </g>
</svg>
