<?xml version="1.0" encoding="UTF-8" standalone="no"?>
<svg xmlns:ffdec="https://www.free-decompiler.com/flash" xmlns:xlink="http://www.w3.org/1999/xlink" ffdec:objectType="shape" height="47.6px" width="31.2px" xmlns="http://www.w3.org/2000/svg">
  <g transform="matrix(1.0, 0.0, 0.0, 1.0, 15.55, 5.75)">
    <path d="M5.65 -2.35 L6.6 -3.1 7.35 -3.8 Q9.5 -2.3 11.3 1.65 12.75 4.8 12.75 6.05 L12.3 8.8 11.85 11.5 13.75 15.95 Q15.65 20.55 15.65 23.25 15.65 26.5 11.8 29.8 9.85 31.45 7.8 32.45 5.85 32.45 4.0 31.45 4.05 32.8 2.05 34.2 -0.1 35.75 -0.4 37.25 -0.9 40.0 -1.4 40.65 -2.4 41.85 -5.45 41.85 -7.55 41.85 -9.2 40.2 -10.85 38.55 -11.35 38.55 -11.95 38.55 -13.5 35.05 -15.55 30.45 -15.55 24.55 -15.55 11.2 -9.7 2.15 -5.4 -4.45 -1.0 -5.75 L-0.6 -4.55 -0.05 -3.55 Q-6.0 -3.55 -10.55 9.25 -14.85 21.35 -13.25 28.8 L-13.3 28.8 Q-12.75 31.6 -11.1 34.85 -8.55 39.7 -5.5 39.7 -3.7 39.7 -2.95 38.45 -1.95 36.8 -1.95 32.05 L-2.9 21.4 Q-2.9 18.8 -2.5 16.6 -2.0 13.6 -0.9 12.65 1.05 13.5 2.35 15.35 4.3 18.05 5.55 23.45 6.5 25.2 7.35 26.1 8.9 27.7 10.8 27.7 12.0 27.7 12.8 26.4 13.65 25.05 13.65 23.1 13.65 15.3 11.9 13.0 8.15 8.25 6.8 4.8 L7.3 4.7 Q7.75 4.85 8.2 5.5 L10.4 9.1 10.7 6.45 Q10.7 4.3 8.95 1.35 7.25 -1.45 5.65 -2.35 M-0.7 25.2 L0.05 32.9 1.35 32.0 Q2.2 31.2 2.2 30.25 2.2 18.45 1.9 18.15 L1.45 18.45 Q1.1 18.6 0.8 17.05 0.2 18.85 -0.3 21.75 L-0.7 25.2 M8.9 29.45 Q5.2 28.4 3.65 24.1 3.25 28.95 5.1 29.85 L8.5 30.2 8.9 29.45" fill="#5c4730" fill-rule="evenodd" stroke="none"/>
    <path d="M-0.05 -3.55 L1.95 -2.85 4.25 -2.3 5.1 0.05 Q5.5 1.45 5.5 2.85 L5.0 4.85 Q4.5 6.35 4.5 6.85 4.5 8.1 7.65 12.95 10.75 17.75 10.75 20.55 10.75 22.45 9.7 23.6 8.85 24.55 7.85 24.55 L5.55 23.45 Q4.3 18.05 2.35 15.35 1.05 13.5 -0.9 12.65 -1.45 11.85 -2.65 11.85 -4.8 11.85 -5.05 23.65 -5.3 35.45 -7.65 35.45 -8.5 35.45 -9.7 34.4 -11.5 32.7 -13.25 28.8 -14.85 21.35 -10.55 9.25 -6.0 -3.55 -0.05 -3.55" fill="#f1ba87" fill-rule="evenodd" stroke="none"/>
    <path d="M4.25 -2.3 L5.65 -2.35 Q7.25 -1.45 8.95 1.35 10.7 4.3 10.7 6.45 L10.4 9.1 8.2 5.5 Q7.75 4.85 7.3 4.7 L6.8 4.8 Q8.15 8.25 11.9 13.0 13.65 15.3 13.65 23.1 13.65 25.05 12.8 26.4 12.0 27.7 10.8 27.7 8.9 27.7 7.35 26.1 6.5 25.2 5.55 23.45 L7.85 24.55 Q8.85 24.55 9.7 23.6 10.75 22.45 10.75 20.55 10.75 17.75 7.65 12.95 4.5 8.1 4.5 6.85 4.5 6.35 5.0 4.85 L5.5 2.85 Q5.5 1.45 5.1 0.05 L4.25 -2.3 M-0.9 12.65 Q-2.0 13.6 -2.5 16.6 -2.9 18.8 -2.9 21.4 L-1.95 32.05 Q-1.95 36.8 -2.95 38.45 -3.7 39.7 -5.5 39.7 -8.55 39.7 -11.1 34.85 -12.75 31.6 -13.3 28.8 L-13.25 28.8 Q-11.5 32.7 -9.7 34.4 -8.5 35.45 -7.65 35.45 -5.3 35.45 -5.05 23.65 -4.8 11.85 -2.65 11.85 -1.45 11.85 -0.9 12.65 M-0.7 25.2 L-0.3 21.75 Q0.2 18.85 0.8 17.05 1.1 18.6 1.45 18.45 L1.9 18.15 Q2.2 18.45 2.2 30.25 2.2 31.2 1.35 32.0 L0.05 32.9 -0.7 25.2 M8.9 29.45 L8.5 30.2 5.1 29.85 Q3.25 28.95 3.65 24.1 5.2 28.4 8.9 29.45" fill="#db9c64" fill-rule="evenodd" stroke="none"/>
  </g>
</svg>
