<?xml version="1.0" encoding="UTF-8" standalone="no"?>
<svg xmlns:ffdec="https://www.free-decompiler.com/flash" xmlns:xlink="http://www.w3.org/1999/xlink" ffdec:objectType="shape" height="8.05px" width="23.8px" xmlns="http://www.w3.org/2000/svg">
  <g transform="matrix(1.0, 0.0, 0.0, 1.0, -4.8, -6.2)">
    <path d="M27.3 9.0 Q27.75 11.55 27.35 12.4 L26.4 12.5 23.3 12.2 20.4 11.75 Q21.55 10.3 24.1 9.65 L27.3 9.0" fill="#b45f50" fill-rule="evenodd" stroke="none"/>
    <path d="M19.05 11.45 L19.05 11.55 14.45 11.45 10.4 11.95 Q10.4 10.1 9.85 9.1 L15.85 8.25 23.2 7.75 25.2 7.9 25.45 7.95 Q23.35 7.95 21.6 8.85 19.7 9.8 19.05 11.45" fill="#2c1514" fill-rule="evenodd" stroke="none"/>
    <path d="M25.2 7.9 L26.7 8.25 Q27.3 8.55 27.3 9.0 L24.1 9.65 Q21.55 10.3 20.4 11.75 L19.05 11.45 Q19.7 9.8 21.6 8.85 23.35 7.95 25.45 7.95 L25.2 7.9" fill="#7c362c" fill-rule="evenodd" stroke="none"/>
    <path d="M27.3 9.0 Q27.3 8.55 26.7 8.25 L25.2 7.9 23.2 7.75 15.85 8.25 9.85 9.1 Q10.4 10.1 10.4 11.95 L14.45 11.45 19.05 11.55 19.05 11.45 20.4 11.75 23.3 12.2 26.4 12.5 27.35 12.4 Q27.75 11.55 27.3 9.0 M26.35 13.6 L21.45 13.0 15.05 12.35 10.05 13.3 5.95 14.25 5.35 14.2 5.45 14.1 5.4 13.75 Q5.75 13.35 7.3 12.65 L9.35 11.65 Q9.25 10.55 8.75 9.5 L6.95 10.2 5.45 10.5 Q4.45 10.5 5.0 10.1 8.8 7.3 18.25 6.35 28.6 5.35 28.6 10.1 28.6 11.95 28.3 12.6 27.85 13.6 26.35 13.6" fill="#6c3d28" fill-rule="evenodd" stroke="none"/>
  </g>
</svg>
