<?xml version="1.0" encoding="UTF-8" standalone="no"?>
<svg xmlns:ffdec="https://www.free-decompiler.com/flash" xmlns:xlink="http://www.w3.org/1999/xlink" ffdec:objectType="shape" height="43.95px" width="43.95px" xmlns="http://www.w3.org/2000/svg">
  <g transform="matrix(1.0, 0.0, 0.0, 1.0, 21.95, 21.95)">
    <path d="M9.7 -14.55 Q5.6 -17.35 0.4 -17.35 -6.65 -17.3 -11.6 -12.35 -16.6 -7.35 -16.6 -0.35 -16.6 4.85 -13.9 9.05 L9.7 -14.55 M17.4 -0.35 Q17.4 -6.05 14.05 -10.4 L-9.75 13.4 Q-5.35 16.7 0.4 16.65 7.45 16.7 12.45 11.7 17.4 6.75 17.4 -0.35 M15.6 -15.55 Q22.05 -9.1 22.0 0.05 22.0 9.15 15.6 15.55 9.15 22.0 0.05 22.0 -9.1 22.05 -15.55 15.6 -21.95 9.2 -21.95 0.0 -21.95 -9.1 -15.5 -15.55 -9.1 -21.95 0.0 -21.95 9.2 -21.95 15.6 -15.55" fill="#999999" fill-rule="evenodd" stroke="none"/>
  </g>
</svg>
