<?xml version="1.0" encoding="UTF-8" standalone="no"?>
<svg xmlns:ffdec="https://www.free-decompiler.com/flash" xmlns:xlink="http://www.w3.org/1999/xlink" ffdec:objectType="shape" height="180.75px" width="130.45px" xmlns="http://www.w3.org/2000/svg">
  <g transform="matrix(1.0, 0.0, 0.0, 1.0, 49.2, 47.8)">
    <path d="M48.9 -7.85 L49.65 -5.6 Q51.2 -0.8 51.15 4.25 L50.95 8.5 Q50.4 17.65 45.85 25.7 L46.6 21.4 Q49.5 6.95 48.9 -7.85 M38.6 -38.05 L39.9 -39.75 Q42.1 -42.2 45.25 -43.0 55.2 -37.3 58.95 -25.95 64.25 -9.75 59.55 6.45 54.85 22.6 56.45 38.45 58.0 54.25 64.55 65.8 71.05 77.35 73.85 87.65 76.9 98.7 73.85 109.55 70.7 120.9 61.95 128.75 57.85 132.45 52.5 131.75 57.4 128.6 59.05 123.0 62.2 112.35 57.15 102.75 L56.9 103.55 Q56.75 104.35 56.95 105.05 58.25 110.05 58.1 115.0 L57.0 115.5 45.9 115.85 Q50.65 111.65 52.75 102.85 54.8 94.05 52.8 86.0 50.75 77.95 47.0 71.15 43.2 64.3 42.4 51.95 41.7 40.4 46.5 29.9 51.6 18.7 52.6 6.45 53.6 -6.05 45.7 -16.0 38.05 -25.7 38.1 -37.1 L38.6 -38.05 M55.05 16.75 L54.65 17.5 50.25 29.4 Q46.85 38.75 45.65 48.7 44.75 56.25 47.75 63.35 L48.55 62.8 Q47.15 49.1 49.9 35.55 49.1 45.0 50.55 54.2 52.2 64.8 55.05 75.3 58.35 87.55 60.5 100.15 L62.7 98.1 63.15 100.0 Q64.4 106.65 63.45 113.55 62.55 120.05 60.25 126.1 L61.0 127.0 62.6 125.15 Q70.35 116.15 71.7 104.2 73.05 92.7 69.45 81.8 66.4 72.5 61.8 63.85 56.4 53.65 54.75 42.1 53.0 29.55 55.05 16.75 M53.95 -29.65 L52.5 -29.4 Q49.35 -28.4 47.85 -25.5 56.05 -8.65 56.75 10.1 L57.25 9.9 Q62.6 -10.5 53.95 -29.65 M40.9 69.5 L40.55 65.75 40.35 59.35 42.85 66.05 40.9 69.5 M76.75 92.1 Q82.05 103.45 79.45 115.85 79.05 117.75 77.85 119.15 77.7 116.25 76.65 113.4 L75.4 110.5 Q77.75 103.75 77.3 96.75 L77.05 94.25 76.75 92.1" fill="#cbc8c0" fill-rule="evenodd" stroke="none"/>
    <path d="M37.45 -37.75 Q41.85 -46.3 48.75 -41.75 51.8 -39.75 54.05 -36.75 60.95 -27.75 62.45 -16.5 64.0 -4.85 61.2 6.6 58.5 17.45 57.6 28.7 56.85 38.6 59.3 48.05 62.0 58.5 67.15 68.15 72.5 78.25 77.1 88.75 81.95 99.7 81.15 111.5 80.8 116.3 78.45 120.65 L77.4 120.8 74.9 112.15 Q70.8 129.1 54.15 132.75 L51.0 132.8 50.8 132.05 Q58.35 126.3 57.9 116.85 50.7 120.05 43.9 116.25 59.0 97.95 48.25 76.1 46.05 71.65 43.55 67.45 L43.8 67.95 41.0 72.1 Q36.65 54.9 41.2 37.35 43.45 28.6 45.25 19.85 48.0 6.3 46.55 -7.3 45.95 -12.7 42.8 -17.1 37.55 -24.55 36.6 -33.4 36.35 -35.7 37.45 -37.75 M38.6 -38.05 L38.1 -37.1 Q38.05 -25.7 45.7 -16.0 53.6 -6.05 52.6 6.45 51.6 18.7 46.5 29.9 41.7 40.4 42.4 51.95 43.2 64.3 47.0 71.15 50.75 77.95 52.8 86.0 54.8 94.05 52.75 102.85 50.65 111.65 45.9 115.85 L57.0 115.5 58.1 115.0 Q58.25 110.05 56.95 105.05 56.75 104.35 56.9 103.55 L57.15 102.75 Q62.2 112.35 59.05 123.0 57.4 128.6 52.5 131.75 57.85 132.45 61.95 128.75 70.7 120.9 73.85 109.55 76.9 98.7 73.85 87.65 71.05 77.35 64.55 65.8 58.0 54.25 56.45 38.45 54.85 22.6 59.55 6.45 64.25 -9.75 58.95 -25.95 55.2 -37.3 45.25 -43.0 42.1 -42.2 39.9 -39.75 L38.6 -38.05 M48.9 -7.85 Q49.5 6.95 46.6 21.4 L45.85 25.7 Q50.4 17.65 50.95 8.5 L51.15 4.25 Q51.2 -0.8 49.65 -5.6 L48.9 -7.85 M40.9 69.5 L42.85 66.05 40.35 59.35 40.55 65.75 40.9 69.5 M76.75 92.1 L77.05 94.25 77.3 96.75 Q77.75 103.75 75.4 110.5 L76.65 113.4 Q77.7 116.25 77.85 119.15 79.05 117.75 79.45 115.85 82.05 103.45 76.75 92.1" fill="#97877d" fill-rule="evenodd" stroke="none"/>
    <path d="M53.95 -29.65 Q62.6 -10.5 57.25 9.9 L56.75 10.1 Q56.05 -8.65 47.85 -25.5 49.35 -28.4 52.5 -29.4 L53.95 -29.65 M55.05 16.75 Q53.0 29.55 54.75 42.1 56.4 53.65 61.8 63.85 66.4 72.5 69.45 81.8 73.05 92.7 71.7 104.2 70.35 116.15 62.6 125.15 L61.0 127.0 60.25 126.1 Q62.55 120.05 63.45 113.55 64.4 106.65 63.15 100.0 L62.7 98.1 60.5 100.15 Q58.35 87.55 55.05 75.3 52.2 64.8 50.55 54.2 49.1 45.0 49.9 35.55 47.15 49.1 48.55 62.8 L47.75 63.35 Q44.75 56.25 45.65 48.7 46.85 38.75 50.25 29.4 L54.65 17.5 55.05 16.75" fill="#ebe8e0" fill-rule="evenodd" stroke="none"/>
    <path d="M-9.75 -26.45 Q-6.0 -33.6 -6.05 -41.6 L-6.55 -42.55 -7.85 -44.25 -9.75 -45.9 Q-11.3 -47.0 -13.2 -47.5 -23.15 -41.8 -26.9 -30.45 -32.2 -14.25 -27.5 1.95 -22.8 18.1 -24.4 33.95 -25.95 49.75 -32.5 61.3 -39.0 72.85 -41.8 83.15 -44.85 94.2 -41.8 105.05 -38.65 116.4 -29.9 124.25 -25.8 127.95 -20.45 127.25 -25.35 124.1 -27.0 118.5 -30.15 107.85 -25.1 98.25 L-24.85 99.05 Q-24.7 99.85 -24.9 100.55 -26.2 105.55 -26.05 110.5 L-24.95 111.0 -13.85 111.35 Q-18.6 107.15 -20.7 98.35 -22.75 89.55 -20.75 81.5 -18.7 73.45 -14.95 66.65 -11.15 59.8 -10.35 47.45 -9.65 35.9 -14.45 25.4 -19.55 14.2 -20.55 1.95 -21.55 -10.55 -13.65 -20.5 -11.35 -23.4 -9.75 -26.45 M-5.4 -42.25 Q-4.3 -40.2 -4.55 -37.9 -5.4 -29.95 -9.75 -23.1 L-10.75 -21.6 Q-13.9 -17.2 -14.5 -11.8 -15.95 1.8 -13.2 15.35 L-9.75 30.5 -9.15 32.85 Q-4.6 50.4 -8.95 67.6 L-11.75 63.45 -11.5 62.95 Q-14.0 67.15 -16.2 71.6 -26.95 93.45 -11.85 111.75 -18.65 115.55 -25.85 112.35 -26.3 121.8 -18.75 127.55 L-18.95 128.3 -22.1 128.25 Q-38.75 124.6 -42.85 107.65 L-45.35 116.3 -46.4 116.15 Q-48.75 111.8 -49.1 107.0 -49.9 95.2 -45.05 84.25 -40.45 73.75 -35.1 63.65 -29.95 54.0 -27.25 43.55 -24.8 34.1 -25.55 24.2 -26.45 12.95 -29.15 2.1 -31.95 -9.35 -30.4 -21.0 -28.9 -32.25 -22.0 -41.25 -19.75 -44.25 -16.7 -46.25 -12.85 -48.8 -9.75 -47.2 -7.35 -46.0 -5.4 -42.25 M-16.85 -12.35 L-17.6 -10.1 Q-19.15 -5.3 -19.1 -0.25 L-18.9 4.0 Q-18.35 13.15 -13.8 21.2 L-14.55 16.9 Q-17.45 2.45 -16.85 -12.35 M-45.0 89.75 L-44.7 87.6 Q-50.0 98.95 -47.4 111.35 -47.0 113.25 -45.8 114.65 -45.65 111.75 -44.6 108.9 L-43.35 106.0 Q-45.7 99.25 -45.25 92.25 L-45.0 89.75 M-8.5 61.25 L-8.3 54.85 -10.8 61.55 -8.85 65.0 -8.5 61.25" fill="#6f5c4d" fill-rule="evenodd" stroke="none"/>
    <path d="M-9.75 -26.45 Q-11.35 -23.4 -13.65 -20.5 -21.55 -10.55 -20.55 1.95 -19.55 14.2 -14.45 25.4 -9.65 35.9 -10.35 47.45 -11.15 59.8 -14.95 66.65 -18.7 73.45 -20.75 81.5 -22.75 89.55 -20.7 98.35 -18.6 107.15 -13.85 111.35 L-24.95 111.0 -26.05 110.5 Q-26.2 105.55 -24.9 100.55 -24.7 99.85 -24.85 99.05 L-25.1 98.25 Q-30.15 107.85 -27.0 118.5 -25.35 124.1 -20.45 127.25 -25.8 127.95 -29.9 124.25 -38.65 116.4 -41.8 105.05 -44.85 94.2 -41.8 83.15 -39.0 72.85 -32.5 61.3 -25.95 49.75 -24.4 33.95 -22.8 18.1 -27.5 1.95 -32.2 -14.25 -26.9 -30.45 -23.15 -41.8 -13.2 -47.5 -11.3 -47.0 -9.75 -45.9 L-7.85 -44.25 -6.55 -42.55 -6.05 -41.6 Q-6.0 -33.6 -9.75 -26.45 M-21.9 -34.15 Q-30.55 -15.0 -25.2 5.4 L-24.7 5.6 Q-24.0 -13.15 -15.8 -30.0 -17.3 -32.9 -20.45 -33.9 L-21.9 -34.15 M-16.85 -12.35 Q-17.45 2.45 -14.55 16.9 L-13.8 21.2 Q-18.35 13.15 -18.9 4.0 L-19.1 -0.25 Q-19.15 -5.3 -17.6 -10.1 L-16.85 -12.35 M-23.0 12.25 Q-20.95 25.05 -22.7 37.6 -24.35 49.15 -29.75 59.35 -34.35 68.0 -37.4 77.3 -41.0 88.2 -39.65 99.7 -38.3 111.65 -30.55 120.65 L-28.95 122.5 -28.2 121.6 Q-30.5 115.55 -31.4 109.05 -32.35 102.15 -31.1 95.5 L-30.65 93.6 -28.45 95.65 Q-26.3 83.05 -23.0 70.8 -20.15 60.3 -18.5 49.7 -17.05 40.5 -17.85 31.05 -15.1 44.6 -16.5 58.3 L-15.7 58.85 Q-12.7 51.75 -13.6 44.2 -14.8 34.25 -18.2 24.9 L-22.6 13.0 -23.0 12.25 M-45.0 89.75 L-45.25 92.25 Q-45.7 99.25 -43.35 106.0 L-44.6 108.9 Q-45.65 111.75 -45.8 114.65 -47.0 113.25 -47.4 111.35 -50.0 98.95 -44.7 87.6 L-45.0 89.75 M-8.5 61.25 L-8.85 65.0 -10.8 61.55 -8.3 54.85 -8.5 61.25" fill="#b9a99b" fill-rule="evenodd" stroke="none"/>
    <path d="M-21.9 -34.15 L-20.45 -33.9 Q-17.3 -32.9 -15.8 -30.0 -24.0 -13.15 -24.7 5.6 L-25.2 5.4 Q-30.55 -15.0 -21.9 -34.15 M-23.0 12.25 L-22.6 13.0 -18.2 24.9 Q-14.8 34.25 -13.6 44.2 -12.7 51.75 -15.7 58.85 L-16.5 58.3 Q-15.1 44.6 -17.85 31.05 -17.05 40.5 -18.5 49.7 -20.15 60.3 -23.0 70.8 -26.3 83.05 -28.45 95.65 L-30.65 93.6 -31.1 95.5 Q-32.35 102.15 -31.4 109.05 -30.5 115.55 -28.2 121.6 L-28.95 122.5 -30.55 120.65 Q-38.3 111.65 -39.65 99.7 -41.0 88.2 -37.4 77.3 -34.35 68.0 -29.75 59.35 -24.35 49.15 -22.7 37.6 -20.95 25.05 -23.0 12.25" fill="#ccc1b7" fill-rule="evenodd" stroke="none"/>
  </g>
</svg>
