<?xml version="1.0" encoding="UTF-8" standalone="no"?>
<svg xmlns:ffdec="https://www.free-decompiler.com/flash" xmlns:xlink="http://www.w3.org/1999/xlink" ffdec:objectType="shape" height="7.1px" width="18.75px" xmlns="http://www.w3.org/2000/svg">
  <g transform="matrix(1.0, 0.0, 0.0, 1.0, 2.5, -8.1)">
    <path d="M15.4 13.95 L14.3 13.55 Q11.9 12.35 9.25 12.2 4.75 11.95 0.8 13.8 L-0.85 10.1 Q6.65 8.45 14.85 9.5 15.55 11.5 15.4 13.95" fill="#e5e5e5" fill-rule="evenodd" stroke="none"/>
    <path d="M15.9 8.65 Q16.65 11.95 15.9 15.2 11.95 13.25 7.45 13.25 4.1 13.25 2.2 14.3 L0.35 15.05 Q-0.25 14.2 0.35 13.75 L-0.4 11.8 Q-0.75 11.0 -1.75 10.8 -2.4 10.65 -2.5 10.05 -2.1 8.1 11.3 8.1 15.0 8.1 15.9 8.65 M15.4 13.95 Q15.55 11.5 14.85 9.5 6.65 8.45 -0.85 10.1 L0.8 13.8 Q4.75 11.95 9.25 12.2 11.9 12.35 14.3 13.55 L15.4 13.95" fill="#6c3d28" fill-rule="evenodd" stroke="none"/>
  </g>
</svg>
