<?xml version="1.0" encoding="UTF-8" standalone="no"?>
<svg xmlns:ffdec="https://www.free-decompiler.com/flash" xmlns:xlink="http://www.w3.org/1999/xlink" ffdec:objectType="shape" height="15.15px" width="7.55px" xmlns="http://www.w3.org/2000/svg">
  <g transform="matrix(1.0, 0.0, 0.0, 1.0, -5.45, -3.0)">
    <path d="M8.7 11.95 L8.6 12.0 8.55 12.2 8.55 12.4 8.55 12.5 8.6 13.4 9.45 13.4 10.0 13.25 10.25 12.65 10.25 12.45 10.2 12.1 Q10.15 11.95 9.95 11.95 L8.7 11.95 M11.0 3.0 Q12.45 2.95 13.0 4.35 13.1 8.7 11.4 6.3 11.25 5.75 10.5 5.65 9.4 5.8 9.0 6.3 8.4 6.8 8.4 7.35 L8.45 8.05 8.55 8.8 8.6 8.9 8.6 8.95 8.6 9.05 8.7 9.35 9.25 9.4 10.05 9.45 10.85 9.5 11.5 9.65 Q12.05 9.85 12.3 10.2 L12.7 10.95 12.9 12.15 13.0 13.45 12.95 14.85 12.8 15.7 12.4 16.9 11.55 17.8 10.35 18.15 7.0 18.15 Q5.85 17.9 5.7 17.15 5.15 10.75 5.8 4.65 5.75 3.2 7.2 3.0 L11.0 3.0" fill="#ffffff" fill-rule="evenodd" stroke="none"/>
  </g>
</svg>
