<?xml version="1.0" encoding="UTF-8" standalone="no"?>
<svg xmlns:ffdec="https://www.free-decompiler.com/flash" xmlns:xlink="http://www.w3.org/1999/xlink" ffdec:objectType="shape" height="12.2px" width="23.5px" xmlns="http://www.w3.org/2000/svg">
  <g transform="matrix(1.0, 0.0, 0.0, 1.0, 13.8, -3.45)">
    <path d="M-8.7 3.45 L-8.85 3.6 -8.9 3.65 -10.0 4.6 Q-10.7 4.9 -12.05 7.05 -13.4 9.2 -12.2 12.75 L-8.6 12.5 -8.35 13.75 -4.3 13.4 -2.95 14.65 -2.2 14.75 0.55 13.0 2.55 14.2 3.65 13.8 Q5.3 13.3 6.9 14.2 L7.35 13.5 8.7 11.1 9.15 12.1 Q8.8 13.9 7.2 14.85 L6.65 15.05 4.8 14.45 2.25 15.05 0.85 13.95 Q-1.05 15.25 -2.95 15.65 L-4.5 14.2 -8.9 14.45 -9.15 13.45 -12.8 13.55 Q-14.85 10.4 -12.75 6.65 L-11.8 5.15 -10.3 3.7 -8.7 3.45" fill="#8e7c71" fill-rule="evenodd" stroke="none"/>
    <path d="M7.4 5.1 L7.95 6.05 8.3 7.1 8.45 7.8 8.15 8.15 8.2 9.55 Q8.15 11.75 6.75 13.35 L4.25 10.1 4.65 11.8 4.45 12.25 4.2 12.6 3.85 12.9 3.45 13.15 2.8 13.35 Q1.25 12.8 0.9 11.5 L0.75 9.85 0.1 11.75 Q-0.4 13.1 -2.4 14.25 -3.65 13.7 -3.45 12.4 L-2.8 10.55 -3.4 11.15 Q-6.35 12.85 -7.95 12.85 L-7.25 10.9 -9.9 11.05 Q-10.5 11.2 -11.8 11.9 -12.75 9.25 -11.0 6.75 -9.3 4.2 -7.6 4.6 L-2.2 5.15 0.05 5.55 -1.05 8.85 -0.95 8.8 1.25 7.55 1.4 9.2 2.3 9.35 4.1 8.15 6.0 10.55 6.8 9.7 Q7.55 8.4 7.2 7.25 L6.7 4.85 7.4 5.1 M-1.6 7.0 L-1.7 6.4 -2.9 6.6 -4.7 7.05 -5.75 11.15 Q-2.35 10.7 -1.6 7.0 M-5.6 7.85 L-5.5 7.35 Q-5.45 6.5 -5.8 5.7 -10.05 5.5 -10.65 9.75 L-9.9 9.85 Q-6.85 10.5 -5.6 7.85" fill="#ebe8e0" fill-rule="evenodd" stroke="none"/>
    <path d="M-2.2 5.15 L-7.6 4.6 Q-9.3 4.2 -11.0 6.75 -12.75 9.25 -11.8 11.9 -10.5 11.2 -9.9 11.05 L-7.25 10.9 -7.95 12.85 Q-6.35 12.85 -3.4 11.15 L-2.8 10.55 -3.45 12.4 Q-3.65 13.7 -2.4 14.25 -0.4 13.1 0.1 11.75 L0.75 9.85 0.9 11.5 Q1.25 12.8 2.8 13.35 L3.45 13.15 3.85 12.9 4.2 12.6 4.45 12.25 4.65 11.8 4.25 10.1 6.75 13.35 Q8.15 11.75 8.2 9.55 L8.15 8.15 8.45 7.8 8.3 7.1 7.95 6.05 7.4 5.1 8.55 6.15 Q9.3 7.0 9.7 8.3 L9.15 12.1 8.7 11.1 7.35 13.5 6.9 14.2 Q5.3 13.3 3.65 13.8 L2.55 14.2 0.55 13.0 -2.2 14.75 -2.95 14.65 -4.3 13.4 -8.35 13.75 -8.6 12.5 -12.2 12.75 Q-13.4 9.2 -12.05 7.05 -10.7 4.9 -10.0 4.6 L-8.9 3.65 -8.85 3.6 -8.7 3.45 -5.8 3.85 Q-4.55 4.15 -3.4 4.65 L-2.2 5.15" fill="#b9a99b" fill-rule="evenodd" stroke="none"/>
    <path d="M6.7 4.85 L7.2 7.25 Q7.55 8.4 6.8 9.7 L6.0 10.55 4.1 8.15 2.3 9.35 1.4 9.2 1.25 7.55 -0.95 8.8 -1.05 8.85 0.05 5.55 6.7 4.85 M-5.6 7.85 Q-6.85 10.5 -9.9 9.85 L-10.65 9.75 Q-10.05 5.5 -5.8 5.7 -5.45 6.5 -5.5 7.35 L-5.6 7.85 M-1.6 7.0 Q-2.35 10.7 -5.75 11.15 L-4.7 7.05 -2.9 6.6 -1.7 6.4 -1.6 7.0" fill="#ffffff" fill-rule="evenodd" stroke="none"/>
  </g>
</svg>
