<?xml version="1.0" encoding="UTF-8" standalone="no"?>
<svg xmlns:ffdec="https://www.free-decompiler.com/flash" xmlns:xlink="http://www.w3.org/1999/xlink" ffdec:objectType="shape" height="39.9px" width="75.6px" xmlns="http://www.w3.org/2000/svg">
  <g transform="matrix(1.0, 0.0, 0.0, 1.0, 15.75, 6.8)">
    <path d="M56.55 -4.15 Q59.5 2.5 57.6 2.25 L58.9 4.8 Q59.8 6.95 59.85 8.15 L59.05 8.35 Q58.6 8.0 58.3 8.55 57.85 9.3 57.6 12.0 L56.35 15.7 53.85 14.75 51.9 19.6 51.15 19.0 50.7 18.5 50.05 22.35 Q49.8 23.05 49.1 23.05 L47.4 22.35 46.45 21.6 Q46.35 24.3 45.75 25.65 L43.0 24.0 Q42.6 27.7 41.35 28.9 40.75 29.45 39.05 29.7 L38.7 26.55 36.15 30.5 33.65 28.5 32.35 31.8 30.3 30.45 28.55 29.1 25.8 33.1 23.2 28.65 20.8 33.05 18.05 29.95 16.9 32.3 Q15.95 32.2 14.3 30.3 L12.45 28.0 11.0 29.8 7.85 27.35 Q7.05 28.7 6.05 28.75 L3.4 25.0 3.2 25.4 Q2.85 25.75 2.2 25.75 1.2 25.75 -0.05 23.4 -0.75 24.05 -1.25 24.05 L-2.65 20.75 -5.25 22.6 -7.6 16.45 Q-8.55 17.4 -9.4 17.5 -9.9 15.9 -10.95 14.05 -12.3 13.8 -13.7 14.4 -12.45 9.45 -13.5 7.35 -14.15 6.1 -15.75 5.4 L-14.25 0.45 -15.1 5.0 -12.85 6.0 Q-12.9 7.35 -12.6 7.7 -12.3 8.05 -12.3 8.35 L-12.6 13.3 -10.1 12.9 Q-10.15 14.4 -9.85 14.75 L-8.8 16.2 Q-8.0 15.65 -7.4 15.45 L-6.9 15.35 -4.85 21.55 -2.0 19.9 -0.55 22.65 0.35 22.25 2.3 24.85 3.45 24.1 4.0 23.95 6.4 27.85 7.85 26.0 Q8.8 26.9 11.1 28.45 L12.75 26.9 Q13.15 28.45 14.05 29.35 L15.85 30.65 Q16.75 31.0 16.55 30.25 L18.15 28.7 20.65 31.7 Q21.25 30.4 23.3 27.7 L24.65 29.45 25.95 31.55 28.45 27.8 32.0 30.85 33.25 27.6 36.15 29.35 38.8 25.5 39.85 28.7 Q41.55 28.35 42.8 23.0 L45.45 24.5 45.85 22.1 46.2 20.5 49.0 22.2 50.5 17.45 51.75 17.95 53.4 13.8 56.15 14.5 57.45 7.1 58.75 6.95 56.6 1.45 57.65 1.25 56.55 -4.15" fill="#8e7c71" fill-rule="evenodd" stroke="none"/>
    <path d="M-14.25 0.45 Q-13.55 0.25 -12.6 1.5 L-9.3 5.9 -8.15 5.05 -6.05 9.4 Q-4.7 8.35 -3.7 8.35 -3.05 8.35 -1.65 10.65 -0.35 12.8 -0.3 13.35 -0.2 13.4 -0.2 13.8 L-0.2 13.85 1.9 12.55 2.85 13.5 4.0 15.15 5.55 13.6 6.05 13.2 7.4 14.95 8.7 16.75 9.6 16.6 Q11.15 14.9 13.5 14.95 L15.5 15.4 17.2 13.5 18.55 14.5 19.15 15.5 21.0 13.7 Q22.7 14.75 23.45 15.9 L23.95 17.0 24.35 17.4 25.4 18.05 27.8 14.0 31.45 15.3 34.6 15.75 Q35.05 14.2 35.7 12.8 L36.4 11.65 37.05 11.75 37.7 12.45 37.95 10.9 Q38.3 9.35 38.5 9.2 L40.85 10.25 40.45 5.75 Q44.25 5.75 44.15 4.5 L44.25 1.05 46.4 1.3 46.8 -2.5 48.5 -2.55 47.3 -6.8 54.55 -4.9 Q56.1 -4.8 56.55 -4.15 L57.65 1.25 56.6 1.45 58.75 6.95 57.45 7.1 56.15 14.5 53.4 13.8 51.75 17.95 50.5 17.45 49.0 22.2 46.2 20.5 45.85 22.1 45.45 24.5 42.8 23.0 Q41.55 28.35 39.85 28.7 L38.8 25.5 36.15 29.35 33.25 27.6 32.0 30.85 28.45 27.8 25.95 31.55 24.65 29.45 23.3 27.7 Q21.25 30.4 20.65 31.7 L18.15 28.7 16.55 30.25 Q16.75 31.0 15.85 30.65 L14.05 29.35 Q13.15 28.45 12.75 26.9 L11.1 28.45 Q8.8 26.9 7.85 26.0 L6.4 27.85 4.0 23.95 3.45 24.1 2.3 24.85 0.35 22.25 -0.55 22.65 -2.0 19.9 -4.85 21.55 -6.9 15.35 -7.4 15.45 Q-8.0 15.65 -8.8 16.2 L-9.85 14.75 Q-10.15 14.4 -10.1 12.9 L-12.6 13.3 -12.3 8.35 Q-12.3 8.05 -12.6 7.7 -12.9 7.35 -12.85 6.0 L-15.1 5.0 -14.25 0.45" fill="#b9a99b" fill-rule="evenodd" stroke="none"/>
  </g>
</svg>
