<?xml version="1.0" encoding="UTF-8" standalone="no"?>
<svg xmlns:ffdec="https://www.free-decompiler.com/flash" xmlns:xlink="http://www.w3.org/1999/xlink" ffdec:objectType="shape" height="36.0px" width="36.0px" xmlns="http://www.w3.org/2000/svg">
  <g transform="matrix(1.0, 0.0, 0.0, 1.0, -32.5, -75.0)">
    <path d="M38.05 80.55 Q43.3 75.5 50.5 75.5 57.7 75.5 62.75 80.55 68.0 85.8 68.0 93.0 68.0 100.2 62.75 105.25 57.7 110.5 50.5 110.5 43.3 110.5 38.05 105.25 33.0 100.2 33.0 93.0 33.0 85.8 38.05 80.55" fill="url(#gradient0)" fill-rule="evenodd" stroke="none"/>
    <path d="M38.05 80.55 Q43.3 75.5 50.5 75.5 57.7 75.5 62.75 80.55 68.0 85.8 68.0 93.0 68.0 100.2 62.75 105.25 57.7 110.5 50.5 110.5 43.3 110.5 38.05 105.25 33.0 100.2 33.0 93.0 33.0 85.8 38.05 80.55 Z" fill="none" stroke="#ff9999" stroke-linecap="round" stroke-linejoin="round" stroke-width="1.0"/>
  </g>
  <defs>
    <radialGradient cx="0" cy="0" gradientTransform="matrix(0.0222, 0.0, 0.0, 0.0222, 50.5, 93.0)" gradientUnits="userSpaceOnUse" id="gradient0" r="819.2" spreadMethod="pad">
      <stop offset="0.050980392156862744" stop-color="#ffdddd" stop-opacity="0.7058824"/>
      <stop offset="1.0" stop-color="#ff9999" stop-opacity="0.9019608"/>
    </radialGradient>
  </defs>
</svg>
