<?xml version="1.0" encoding="UTF-8" standalone="no"?>
<svg xmlns:ffdec="https://www.free-decompiler.com/flash" xmlns:xlink="http://www.w3.org/1999/xlink" ffdec:objectType="shape" height="35.4px" width="54.35px" xmlns="http://www.w3.org/2000/svg">
  <g transform="matrix(1.0, 0.0, 0.0, 1.0, 31.3, 5.55)">
    <path d="M13.85 2.3 L14.35 3.35 14.25 3.35 14.2 3.4 14.15 3.35 13.95 3.35 13.9 2.7 13.85 2.3 M-0.8 10.25 Q-1.5 10.85 -1.9 11.9 L-2.55 12.9 Q-3.4 14.6 -3.05 16.35 L-2.55 17.65 -3.0 18.4 -2.6 19.0 -2.85 19.3 Q-3.1 19.35 -3.2 19.15 L-3.4 19.25 -3.45 19.5 Q-3.0 20.0 -2.0 19.8 L-1.35 19.6 -1.7 19.85 -3.7 19.95 -3.95 20.1 -3.9 20.35 Q-3.35 20.85 -1.75 20.75 L-1.85 22.9 Q-1.45 22.65 -1.05 21.45 -0.35 21.95 0.2 22.4 L0.45 22.2 0.85 22.5 1.35 22.45 Q0.05 19.15 -0.45 16.8 L-0.5 16.7 -0.75 15.15 -0.75 15.1 -0.35 14.05 Q0.3 12.75 1.05 12.6 2.45 12.3 4.05 13.95 5.5 15.5 5.95 17.5 6.3 19.45 5.5 22.35 4.8 24.75 4.25 25.3 L1.9 27.1 0.0 28.35 -0.55 28.2 Q-5.6 25.25 -7.1 19.55 L-6.85 18.8 -6.4 17.4 -4.8 15.2 -5.1 14.85 -5.5 15.15 -8.65 14.0 -8.9 13.9 -9.1 13.8 -9.0 13.9 Q-11.2 12.0 -13.95 12.25 L-14.0 12.3 -22.4 14.15 Q-27.0 15.3 -28.6 13.5 -30.2 11.65 -29.85 7.85 L-29.7 7.85 -29.45 7.85 -29.9 8.7 Q-28.1 6.4 -26.95 6.2 L-26.45 6.3 -21.05 7.05 -15.45 7.2 -14.0 7.05 Q-12.6 6.25 -12.1 6.15 L-10.05 5.35 Q-8.2 4.95 -5.4 -0.8 L-5.3 -0.85 Q-3.45 -2.5 -1.4 -3.25 1.3 -4.35 4.35 -3.95 6.7 -0.5 7.35 2.6 L7.35 2.8 7.25 2.95 Q7.6 4.55 6.7 5.8 4.4 6.2 3.9 7.85 L1.6 7.65 0.2 8.65 Q-0.75 9.55 -0.8 10.25 M-2.4 14.6 L-2.3 15.6 -2.35 15.4 -2.4 14.6 M-1.25 19.55 L-1.1 19.5 -0.8 20.05 -1.1 19.55 -1.25 19.55 M-6.85 15.55 L-6.0 15.65 -6.7 15.6 -6.75 15.65 -6.85 15.55 M5.3 -3.8 L5.65 -3.2 5.0 -3.85 5.3 -3.8 M13.2 4.9 L16.35 6.0 Q19.05 7.45 19.65 10.35 19.9 11.45 19.55 13.05 18.7 10.1 17.0 8.35 15.0 6.25 12.75 6.7 11.6 6.95 11.5 7.55 L11.25 7.5 11.25 7.3 11.15 6.75 Q11.65 5.05 13.2 4.9 M5.65 9.45 L6.25 8.75 Q7.15 8.35 8.65 8.75 L8.85 8.8 10.45 8.9 10.65 8.95 Q11.95 9.0 13.0 9.65 15.15 11.95 15.8 15.1 16.55 18.95 15.7 19.15 L14.1 21.15 13.1 22.25 13.0 22.25 Q13.6 21.4 13.1 18.85 12.2 14.5 9.1 11.6 7.2 9.8 5.65 9.45" fill="#ce9255" fill-rule="evenodd" stroke="none"/>
    <path d="M5.4 -5.3 L6.95 -3.3 6.95 -3.05 13.2 1.2 13.85 2.25 13.85 2.3 13.9 2.7 13.95 3.35 Q10.6 3.1 9.7 6.35 L9.6 6.7 Q6.7 6.75 5.55 7.45 4.35 8.05 3.9 9.25 0.8 8.85 -0.8 10.25 -0.75 9.55 0.2 8.65 L1.6 7.65 3.9 7.85 Q4.4 6.2 6.7 5.8 L6.75 5.8 7.1 5.9 7.2 5.95 7.25 5.95 Q7.55 5.85 7.85 4.9 L7.9 3.2 7.4 2.75 7.35 2.8 7.35 2.6 Q6.7 -0.5 4.35 -3.95 1.3 -4.35 -1.4 -3.25 -0.9 -4.55 0.1 -5.3 2.6 -5.8 5.4 -5.3 M-1.9 11.9 L-1.95 12.0 -2.35 13.85 -2.4 14.5 -2.4 14.6 -2.35 15.4 -2.3 15.6 -1.7 17.9 -2.6 19.0 -3.0 18.4 -2.55 17.65 -3.05 16.35 Q-3.4 14.6 -2.55 12.9 L-1.9 11.9 M-1.35 19.6 L-1.25 19.55 -1.1 19.55 -0.8 20.05 -0.55 20.6 -0.45 20.85 -0.4 20.9 0.4 22.15 0.45 22.2 0.2 22.4 Q-0.35 21.95 -1.05 21.45 -1.45 22.65 -1.85 22.9 L-1.75 20.75 Q-3.35 20.85 -3.9 20.35 L-3.95 20.1 -3.7 19.95 -1.7 19.85 -1.35 19.6 M-0.45 16.8 L-0.5 16.7 -0.45 16.8 M-0.75 15.1 L-0.75 13.55 -0.55 12.55 Q0.45 10.3 4.1 11.3 L4.45 11.3 Q8.65 15.25 9.4 18.2 10.2 23.6 5.75 26.7 3.75 28.1 1.5 28.3 L0.1 28.35 0.05 28.35 0.0 28.35 1.9 27.1 4.25 25.3 Q4.8 24.75 5.5 22.35 6.3 19.45 5.95 17.5 5.5 15.5 4.05 13.95 2.45 12.3 1.05 12.6 0.3 12.75 -0.35 14.05 L-0.75 15.1 M-7.1 19.55 L-7.15 19.35 -7.15 19.3 -7.15 19.25 -7.65 17.25 -8.05 15.55 -7.3 15.45 -7.1 15.5 -6.85 15.55 -6.75 15.65 -6.7 15.6 -6.0 15.65 -5.45 15.65 -5.35 15.6 -5.15 15.4 -5.25 15.25 -5.25 15.2 -5.5 15.15 -5.1 14.85 -4.8 15.2 -6.4 17.4 -6.85 18.8 -7.1 19.55 M-29.7 7.85 L-29.25 6.1 -29.25 6.15 Q-28.6 4.3 -26.8 4.7 L-26.65 4.75 -24.25 5.2 Q-15.1 6.45 -7.35 0.55 L-6.0 -0.45 -5.4 -0.8 Q-8.2 4.95 -10.05 5.35 L-12.1 6.15 Q-12.6 6.25 -14.0 7.05 L-15.45 7.2 -21.05 7.05 -26.45 6.3 -26.95 6.2 Q-28.1 6.4 -29.9 8.7 L-29.45 7.85 -29.7 7.85 M5.3 -3.8 L5.0 -3.85 5.65 -3.2 5.3 -3.8 M13.2 4.9 L13.4 4.85 14.0 4.85 14.1 4.9 14.2 4.9 14.6 4.9 15.05 4.85 15.1 4.95 18.0 6.35 20.2 7.4 Q20.85 7.65 21.05 8.2 22.4 12.3 20.05 15.5 L19.75 15.85 19.7 15.85 19.3 16.2 18.6 16.4 Q18.3 13.2 15.9 10.2 14.45 8.4 12.55 7.8 L11.8 7.6 11.5 7.55 Q11.6 6.95 12.75 6.7 15.0 6.25 17.0 8.35 18.7 10.1 19.55 13.05 19.9 11.45 19.65 10.35 19.05 7.45 16.35 6.0 L13.2 4.9 M13.0 9.65 Q13.95 10.2 14.7 11.15 L15.05 11.6 Q17.4 14.8 17.1 18.3 L17.2 18.8 17.15 19.1 16.55 20.45 16.5 20.45 14.2 22.5 13.1 22.25 14.1 21.15 15.7 19.15 Q16.55 18.95 15.8 15.1 15.15 11.95 13.0 9.65 M13.0 22.25 L10.85 21.75 Q11.2 20.0 10.9 18.0 L10.85 17.95 Q10.15 14.65 5.55 10.3 L5.4 10.15 Q5.45 9.75 5.65 9.45 7.2 9.8 9.1 11.6 12.2 14.5 13.1 18.85 13.6 21.4 13.0 22.25" fill="#c18753" fill-rule="evenodd" stroke="none"/>
    <path d="M13.85 2.3 L13.85 2.25 13.2 1.2 6.95 -3.05 6.95 -3.3 5.4 -5.3 6.45 -5.1 Q13.45 -3.25 15.95 3.3 L15.95 3.7 20.8 6.05 20.8 6.0 Q22.15 6.55 22.5 7.75 24.15 12.85 20.9 16.8 L20.95 16.8 19.95 17.7 18.8 18.25 18.6 18.3 18.6 18.45 18.5 18.7 18.65 19.15 Q18.6 20.45 17.6 21.5 L17.55 21.5 14.9 23.9 14.6 24.05 14.25 24.05 10.45 23.2 Q9.45 25.95 6.65 27.95 3.55 30.05 0.0 29.85 L-1.2 29.55 -1.25 29.5 Q-7.05 26.2 -8.65 19.6 L-9.1 17.55 -9.65 15.35 -9.75 15.25 Q-11.55 13.55 -13.8 13.75 L-22.15 15.65 -24.7 16.0 Q-27.2 16.3 -29.35 14.5 -31.55 12.65 -31.25 9.65 -30.95 6.65 -30.65 5.7 L-30.65 5.65 Q-29.6 2.55 -26.45 3.25 -16.5 5.65 -8.25 -0.65 L-6.3 -2.0 Q-3.35 -4.6 0.1 -5.3 -0.9 -4.55 -1.4 -3.25 -3.45 -2.5 -5.3 -0.85 L-5.4 -0.8 -6.0 -0.45 -7.35 0.55 Q-15.1 6.45 -24.25 5.2 L-26.65 4.75 -26.8 4.7 Q-28.6 4.3 -29.25 6.15 L-29.25 6.1 -29.7 7.85 -29.85 7.85 Q-30.2 11.65 -28.6 13.5 -27.0 15.3 -22.4 14.15 L-14.0 12.3 -13.95 12.25 Q-11.2 12.0 -9.0 13.9 L-9.1 13.8 -8.9 13.9 -8.65 14.0 -5.5 15.15 -5.25 15.2 -5.25 15.25 -5.15 15.4 -5.35 15.6 -5.45 15.65 -6.0 15.65 -6.85 15.55 -7.1 15.5 -7.3 15.45 -8.05 15.55 -7.65 17.25 -7.15 19.25 -7.15 19.3 -7.15 19.35 -7.1 19.55 Q-5.6 25.25 -0.55 28.2 L0.0 28.35 0.05 28.35 0.1 28.35 1.5 28.3 Q3.75 28.1 5.75 26.7 10.2 23.6 9.4 18.2 8.65 15.25 4.45 11.3 L4.1 11.3 Q0.45 10.3 -0.55 12.55 L-0.75 13.55 -0.75 15.1 -0.75 15.15 -0.5 16.7 -0.45 16.8 Q0.05 19.15 1.35 22.45 L0.85 22.5 0.45 22.2 0.4 22.15 -0.4 20.9 -0.45 20.85 -0.55 20.6 -0.8 20.05 -1.1 19.5 -1.25 19.55 -1.35 19.6 -2.0 19.8 Q-3.0 20.0 -3.45 19.5 L-3.4 19.25 -3.2 19.15 Q-3.1 19.35 -2.85 19.3 L-2.6 19.0 -1.7 17.9 -2.3 15.6 -2.4 14.6 -2.4 14.5 -2.35 13.85 -1.95 12.0 -1.9 11.9 Q-1.5 10.85 -0.8 10.25 0.8 8.85 3.9 9.25 4.35 8.05 5.55 7.45 6.7 6.75 9.6 6.7 L9.7 6.35 Q10.6 3.1 13.95 3.35 L14.15 3.35 14.2 3.4 14.25 3.35 14.35 3.4 14.35 3.35 13.85 2.3 M11.5 7.55 L11.8 7.6 12.55 7.8 Q14.45 8.4 15.9 10.2 18.3 13.2 18.6 16.4 L19.3 16.2 19.7 15.85 19.75 15.85 20.05 15.5 Q22.4 12.3 21.05 8.2 20.85 7.65 20.2 7.4 L18.0 6.35 15.1 4.95 15.05 4.85 14.6 4.9 14.2 4.9 14.1 4.9 14.0 4.85 13.4 4.85 13.2 4.9 Q11.65 5.05 11.15 6.75 L11.25 7.3 11.25 7.5 11.5 7.55 M13.0 9.65 Q11.95 9.0 10.65 8.95 L10.45 8.9 8.85 8.8 8.65 8.75 Q7.15 8.35 6.25 8.75 L5.65 9.45 Q5.45 9.75 5.4 10.15 L5.55 10.3 Q10.15 14.65 10.85 17.95 L10.9 18.0 Q11.2 20.0 10.85 21.75 L13.0 22.25 13.1 22.25 14.2 22.5 16.5 20.45 16.55 20.45 17.15 19.1 17.2 18.8 17.1 18.3 Q17.4 14.8 15.05 11.6 L14.7 11.15 Q13.95 10.2 13.0 9.65 M6.7 5.8 Q7.6 4.55 7.25 2.95 L7.35 2.8 7.4 2.75 7.9 3.2 7.85 4.9 Q7.55 5.85 7.25 5.95 L7.2 5.95 7.1 5.9 6.75 5.8 6.7 5.8 M18.65 17.15 L18.65 17.3 18.35 17.8 18.75 17.25 18.65 17.15" fill="#603f2b" fill-rule="evenodd" stroke="none"/>
  </g>
</svg>
