<?xml version="1.0" encoding="UTF-8" standalone="no"?>
<svg xmlns:ffdec="https://www.free-decompiler.com/flash" xmlns:xlink="http://www.w3.org/1999/xlink" ffdec:objectType="shape" height="40.0px" width="40.0px" xmlns="http://www.w3.org/2000/svg">
  <g transform="matrix(1.0, 0.0, 0.0, 1.0, -29.0, -74.0)">
    <path d="M35.15 80.15 Q41.0 74.5 49.0 74.5 57.05 74.5 62.65 80.15 68.5 86.0 68.5 94.0 68.5 102.0 62.65 107.65 57.05 113.5 49.0 113.5 41.0 113.5 35.15 107.65 29.5 102.0 29.5 94.0 29.5 86.0 35.15 80.15" fill="url(#gradient0)" fill-rule="evenodd" stroke="none"/>
    <path d="M35.15 80.15 Q41.0 74.5 49.0 74.5 57.05 74.5 62.65 80.15 68.5 86.0 68.5 94.0 68.5 102.0 62.65 107.65 57.05 113.5 49.0 113.5 41.0 113.5 35.15 107.65 29.5 102.0 29.5 94.0 29.5 86.0 35.15 80.15 Z" fill="none" stroke="#ff9999" stroke-linecap="round" stroke-linejoin="round" stroke-width="1.0"/>
  </g>
  <defs>
    <radialGradient cx="0" cy="0" gradientTransform="matrix(0.0247, 0.0, 0.0, 0.0247, 49.0, 94.0)" gradientUnits="userSpaceOnUse" id="gradient0" r="819.2" spreadMethod="pad">
      <stop offset="0.596078431372549" stop-color="#ffdddd" stop-opacity="0.7058824"/>
      <stop offset="1.0" stop-color="#ff9999" stop-opacity="0.9019608"/>
    </radialGradient>
  </defs>
</svg>
