<?xml version="1.0" encoding="UTF-8" standalone="no"?>
<svg xmlns:ffdec="https://www.free-decompiler.com/flash" xmlns:xlink="http://www.w3.org/1999/xlink" ffdec:objectType="shape" height="150.35px" width="125.65px" xmlns="http://www.w3.org/2000/svg">
  <g transform="matrix(1.0, 0.0, 0.0, 1.0, 58.9, 52.1)">
    <path d="M-27.0 -22.0 L-30.15 -22.5 Q-32.4 -23.35 -33.4 -26.05 -34.7 -24.95 -36.85 -24.5 L-37.65 -24.65 -38.15 -24.95 Q-39.95 -25.6 -41.15 -27.2 -41.8 -28.15 -46.1 -28.15 -48.75 -28.15 -50.9 -23.05 -53.0 -18.0 -54.4 -18.0 -56.45 -18.0 -57.85 -20.45 -58.9 -22.35 -58.9 -23.7 -58.9 -24.75 -57.65 -26.35 L-56.4 -27.9 -56.45 -29.55 -56.35 -31.5 Q-54.9 -31.9 -54.25 -32.2 -53.1 -32.75 -52.65 -34.3 L-51.75 -36.6 Q-50.85 -38.5 -50.0 -38.8 L-47.7 -39.2 Q-45.8 -39.45 -45.0 -39.8 -44.75 -39.9 -44.15 -41.05 L-43.45 -42.3 Q-41.15 -43.9 -36.9 -45.55 -34.3 -46.6 -33.35 -48.7 -32.15 -48.9 -30.25 -48.7 L-28.0 -48.5 Q-27.15 -48.45 -25.4 -50.0 L-23.75 -51.5 Q-23.1 -51.5 -21.1 -50.1 -19.15 -48.75 -18.7 -48.75 -17.75 -48.75 -16.95 -49.8 -16.1 -50.9 -13.25 -50.9 -12.15 -50.9 -10.95 -50.05 L-9.75 -49.25 -8.0 -50.3 -6.35 -51.4 -4.45 -50.7 -2.35 -50.0 Q-1.5 -50.0 -0.1 -50.75 1.3 -51.35 2.45 -52.1 3.05 -52.25 4.35 -50.45 5.25 -49.2 6.45 -49.15 L9.0 -49.3 Q14.85 -49.05 15.6 -47.35 15.45 -45.35 16.45 -44.65 17.3 -44.05 19.65 -44.2 L23.3 -44.1 Q24.45 -43.8 24.9 -41.4 25.45 -38.75 25.7 -38.5 26.2 -38.05 28.9 -37.4 31.5 -36.8 32.25 -35.85 33.0 -34.85 33.0 -32.75 33.0 -30.2 33.2 -29.65 33.3 -29.35 34.25 -28.6 L35.65 -27.45 Q37.5 -25.55 37.95 -24.65 38.25 -24.0 38.25 -22.6 38.25 -21.85 37.7 -20.3 L37.1 -18.8 Q37.1 -18.0 39.8 -16.1 42.5 -14.2 42.5 -11.25 42.15 -9.2 41.0 -8.15 42.3 -7.35 44.55 -6.1 46.15 -4.95 46.15 -3.05 L45.6 -1.2 Q45.0 0.75 45.0 2.9 45.0 3.8 47.5 7.1 50.0 10.45 50.0 12.2 L49.65 14.4 49.25 16.55 Q49.25 18.45 50.05 19.2 L51.75 20.05 Q54.35 21.25 54.5 27.4 54.5 29.65 54.75 30.3 56.05 33.6 57.65 35.95 58.75 37.5 58.75 38.4 L58.0 40.45 Q57.25 42.15 57.25 45.55 57.25 48.0 60.0 50.35 62.75 52.65 62.75 54.75 L62.25 57.15 Q61.75 59.05 61.75 59.55 L64.25 63.5 Q66.75 67.55 66.75 68.7 66.6 71.5 65.25 71.5 61.7 71.5 60.8 68.9 L60.5 70.55 Q60.55 71.5 61.3 74.45 L62.0 78.05 61.8 79.35 60.5 80.75 Q59.4 80.0 58.05 77.65 L55.8 73.75 55.65 74.8 Q56.1 78.75 58.35 82.6 60.4 86.15 60.4 88.35 L60.1 90.1 Q59.5 91.65 57.85 91.65 55.8 91.65 54.5 88.8 52.25 83.9 50.5 81.7 50.3 82.25 49.9 82.25 L49.75 84.8 Q49.75 86.6 51.75 92.15 51.75 94.9 50.8 96.55 50.0 98.0 48.95 98.0 47.75 98.0 47.1 97.6 45.9 96.8 45.9 94.5 L46.2 91.65 Q46.45 89.4 46.15 88.7 L44.2 87.15 Q42.3 85.95 41.6 84.65 L40.95 86.0 40.75 87.1 42.2 90.25 43.25 92.75 Q43.25 95.35 41.95 96.9 40.85 98.25 39.5 98.25 37.95 98.25 37.1 97.25 36.25 96.3 36.25 94.55 L36.5 92.8 Q36.7 91.7 36.5 91.45 35.15 90.45 34.15 89.5 32.25 87.6 32.25 85.0 L32.65 83.3 33.0 81.6 Q33.0 80.35 31.2 78.3 30.5 80.4 30.5 81.3 30.5 82.25 32.0 87.8 L33.5 93.75 Q33.5 95.7 33.1 96.6 32.4 98.25 30.25 98.25 26.55 98.25 25.7 91.9 24.55 83.4 23.15 81.4 L21.25 86.2 Q20.5 88.05 20.5 89.05 20.5 90.0 21.5 92.1 L22.5 94.4 Q22.5 96.85 19.95 96.85 18.5 96.85 16.95 95.8 14.5 94.15 14.5 90.85 14.5 89.55 15.8 85.9 L17.1 82.4 Q17.1 81.75 15.6 79.3 14.1 76.85 14.1 76.5 L16.1 71.65 Q16.1 69.75 14.35 66.5 L12.6 63.0 Q12.6 61.5 14.5 58.85 L16.35 56.4 14.7 53.8 Q13.0 51.1 13.0 50.05 13.0 48.2 14.15 45.75 L15.25 42.95 Q15.25 41.65 14.45 40.85 13.4 39.75 12.95 38.3 L13.25 39.55 Q13.35 43.2 12.7 45.0 L12.0 46.75 12.5 50.65 13.0 54.5 12.85 58.95 Q12.25 63.25 9.85 63.25 7.65 63.25 7.65 59.35 7.65 58.7 8.55 55.4 L9.4 52.15 Q9.4 51.55 8.4 49.85 7.4 48.2 7.4 45.15 7.4 43.8 8.3 39.5 L9.15 35.4 Q9.15 33.8 7.75 30.8 L6.35 27.75 Q6.9 23.25 6.85 21.7 6.85 21.05 5.35 17.5 3.9 14.0 3.9 12.6 L4.2 9.15 4.35 3.4 Q4.25 1.75 1.9 -1.45 -0.35 -4.6 -0.35 -6.45 L-0.05 -9.3 Q0.1 -11.75 -0.4 -13.1 -0.9 -14.55 -2.15 -16.0 L-3.25 -17.25 -5.7 -21.85 Q-6.05 -22.6 -8.2 -22.95 L-11.9 -23.35 -11.65 -23.25 Q-10.55 -21.05 -10.15 -16.95 -9.8 -13.35 -8.45 -11.5 -7.2 -9.8 -4.75 -7.4 -3.5 -6.15 -3.5 -4.9 L-3.85 -1.9 -4.25 1.05 Q-4.25 2.65 -1.35 5.9 1.5 9.1 1.5 12.9 L0.25 18.7 Q0.25 19.6 2.4 23.25 4.5 26.9 4.5 28.6 4.5 31.35 3.4 35.0 L2.25 38.35 Q2.25 39.4 5.25 47.8 5.25 53.75 3.65 55.6 L2.0 57.0 3.15 60.1 Q4.25 63.05 4.25 63.7 L2.75 69.2 Q2.75 72.0 4.25 73.35 5.75 74.75 5.75 76.45 5.75 77.85 3.2 77.85 1.15 77.85 -0.6 76.0 -2.55 73.95 -2.55 70.95 -2.55 68.15 -1.9 66.8 L-1.3 65.3 -2.8 62.4 Q-4.3 59.55 -4.3 58.6 -4.3 55.85 -2.15 51.8 L-0.05 47.7 Q-0.05 45.85 -1.65 42.0 L-3.3 37.65 Q-3.3 36.55 -1.9 33.0 -0.5 29.45 -0.5 28.4 -0.5 27.7 -3.4 24.0 -6.3 20.3 -6.3 17.35 -6.3 14.9 -5.4 12.9 -4.5 10.9 -4.5 9.95 L-10.5 3.2 Q-10.5 1.25 -9.35 -0.95 -8.25 -3.1 -8.25 -3.5 -8.25 -5.6 -10.7 -7.15 -13.8 -9.15 -14.5 -10.25 -15.4 -11.65 -15.25 -14.2 -15.1 -16.75 -16.25 -18.45 -17.85 -20.9 -20.6 -21.6 L-17.15 -20.95 Q-14.95 -19.6 -14.75 -15.6 -14.55 -11.3 -13.0 -9.95 -10.0 -8.0 -8.95 -7.15 -7.15 -5.65 -7.15 -2.6 L-8.25 -0.2 Q-9.4 2.05 -9.4 3.1 -9.4 3.5 -7.65 4.95 -6.15 6.2 -5.0 7.65 -3.3 9.9 -3.3 11.6 L-5.05 17.15 Q-5.05 19.75 -2.25 22.85 0.5 26.0 0.5 28.25 0.5 31.55 -0.75 34.9 L-2.05 37.65 Q-2.05 38.7 -0.45 42.65 1.1 46.65 1.1 47.65 1.1 49.3 -0.95 52.95 -3.05 56.55 -3.05 58.4 L-1.55 61.7 Q-0.05 64.55 -0.05 65.4 -0.05 66.4 -1.3 70.95 -1.3 72.25 -0.15 74.15 1.35 76.6 3.45 76.6 L4.35 76.4 4.75 75.75 3.45 74.65 2.45 73.65 2.3 73.6 2.25 73.0 1.9 71.55 1.5 70.05 1.95 67.8 2.35 66.25 3.05 64.55 Q3.45 63.0 2.3 60.6 1.0 57.9 1.0 56.95 L2.65 52.85 Q4.25 48.85 4.25 47.8 4.25 46.75 2.75 42.4 L1.25 38.2 Q1.25 37.0 2.4 33.15 L3.5 28.45 Q3.5 27.8 2.0 25.05 L2.0 24.7 Q2.0 24.1 0.25 21.6 L0.0 21.2 Q-0.75 19.55 -0.75 18.7 L-0.1 15.4 0.5 12.5 Q0.5 11.35 -0.2 9.85 L-1.45 7.8 Q-3.95 4.45 -5.25 1.1 L-4.85 -1.6 -4.5 -4.3 Q-4.5 -6.05 -5.55 -7.35 L-7.65 -9.3 Q-10.1 -11.35 -10.4 -14.15 L-10.8 -18.9 Q-11.45 -21.5 -12.55 -22.25 L-14.2 -23.25 Q-15.95 -25.3 -17.65 -24.85 -20.0 -24.25 -21.9 -25.2 L-22.0 -25.25 Q-21.9 -25.5 -20.8 -25.75 L-19.0 -26.0 -13.75 -25.55 -13.2 -24.3 -13.2 -24.2 -12.25 -24.75 Q-9.95 -25.7 -8.3 -25.55 -7.15 -25.45 -6.3 -24.75 L-5.65 -24.1 Q-4.95 -23.2 -4.4 -21.5 L-2.3 -19.05 Q-0.85 -17.45 -0.85 -16.6 L-0.05 -15.3 Q0.75 -13.85 0.9 -12.7 L1.0 -8.95 Q1.0 -6.8 1.35 -5.85 2.75 -2.35 4.8 0.65 5.6 1.85 5.6 5.65 L5.45 9.7 Q5.4 13.2 5.8 14.4 L7.4 17.9 Q8.1 19.55 8.1 22.15 L7.8 25.05 Q7.55 27.45 7.7 28.45 7.9 29.6 9.15 31.65 L10.35 33.5 Q10.35 37.15 9.45 41.3 L8.5 45.2 Q8.5 47.55 9.5 49.25 10.5 51.0 10.5 52.25 10.5 54.75 8.75 59.45 L9.0 61.9 9.95 62.0 Q10.95 62.0 10.35 61.85 11.85 61.0 12.1 58.8 L12.0 56.7 11.0 46.75 12.25 41.65 Q10.65 34.5 10.65 32.65 L11.15 28.7 11.65 24.7 10.7 22.1 9.75 19.75 Q9.75 18.5 10.9 16.0 L12.0 13.65 Q12.0 12.65 11.0 11.0 L11.55 11.0 Q11.75 10.9 11.75 10.25 L11.7 9.65 12.7 11.7 13.4 13.65 12.3 16.2 Q11.15 18.85 11.15 19.8 11.15 21.0 13.55 24.65 15.9 28.3 15.9 28.8 L14.55 31.75 Q13.15 34.35 13.15 35.0 13.15 36.0 14.9 39.1 16.65 42.25 16.65 42.9 16.65 45.75 14.4 50.05 L17.65 55.5 Q16.95 59.15 15.3 61.05 13.85 62.7 13.85 63.05 13.85 64.35 17.35 71.5 L15.35 76.55 Q15.35 76.95 17.05 79.4 18.35 81.3 18.35 82.3 18.35 83.8 17.15 87.2 L15.9 90.8 Q15.9 92.05 16.85 93.55 18.15 95.5 20.15 95.5 20.8 95.5 21.05 95.15 L21.35 94.5 Q19.4 90.15 19.4 89.15 19.4 87.15 20.75 83.6 L22.1 80.0 21.8 78.45 21.5 77.5 22.1 73.6 22.5 70.55 Q22.5 69.1 21.25 66.45 L20.0 63.9 Q20.0 63.05 21.15 58.7 22.25 54.4 22.25 52.85 L21.75 50.5 Q21.1 48.35 20.75 44.75 L21.45 41.5 Q22.0 39.15 20.3 36.35 18.5 33.35 18.5 33.0 L18.7 32.1 19.15 31.6 19.75 31.25 22.45 37.85 22.45 37.9 22.5 38.15 Q22.65 38.95 22.2 41.65 L21.75 44.85 Q21.75 45.8 22.5 49.0 L23.25 52.7 Q23.25 54.95 22.3 57.7 21.35 60.5 21.35 62.85 21.35 64.05 23.2 66.8 24.0 69.5 24.0 70.65 L23.5 73.85 23.0 77.05 Q23.0 78.2 24.6 81.6 26.4 85.35 26.65 86.5 L27.3 92.25 Q28.05 96.6 30.05 96.6 31.3 96.6 31.7 95.7 32.0 95.15 32.0 93.95 L30.5 88.25 Q29.0 82.8 29.0 81.3 29.0 79.5 30.25 76.1 L31.5 73.0 Q31.5 72.4 29.5 69.7 27.5 66.95 27.5 66.55 27.5 65.35 28.35 63.25 L29.15 61.35 Q29.15 59.95 28.45 58.8 27.8 57.75 25.75 55.6 L26.75 54.9 Q28.9 55.25 29.65 56.95 30.35 58.55 30.35 62.65 L29.7 64.15 Q29.0 65.65 29.0 66.15 L31.0 69.9 Q33.0 73.55 33.0 74.25 33.0 74.75 32.6 75.35 32.2 75.95 32.2 76.45 L34.5 81.4 34.15 83.15 33.75 84.9 Q33.75 87.35 37.85 90.35 38.2 91.25 38.2 92.45 L37.75 94.7 37.85 95.05 38.05 95.4 38.3 95.95 Q38.65 96.5 39.25 96.5 41.75 96.5 41.75 92.8 L39.25 87.0 40.5 82.5 Q40.5 82.05 39.15 79.65 37.75 77.25 37.75 76.1 L39.0 69.0 Q39.0 65.95 36.15 60.95 33.25 56.55 33.25 56.2 33.25 55.05 34.25 51.5 35.25 47.95 35.25 46.8 35.25 44.5 34.8 43.5 34.3 42.55 32.65 41.25 L34.0 41.15 34.05 41.15 Q36.35 43.7 36.35 49.7 L35.5 53.1 34.65 56.2 Q34.65 57.15 37.6 61.0 40.5 64.8 40.5 68.4 L39.25 76.05 40.65 78.85 42.0 81.95 Q42.0 82.25 44.3 84.65 46.8 87.2 47.35 89.1 L47.0 94.45 Q47.0 96.75 48.65 96.75 49.75 96.75 50.3 94.85 L50.75 91.95 49.7 90.1 Q48.65 87.75 48.65 84.9 L49.05 82.7 49.45 80.35 49.25 78.2 48.95 76.5 Q48.95 75.95 49.9 72.0 L50.85 68.1 Q49.9 63.55 48.5 63.55 47.1 63.0 46.0 61.2 43.8 57.7 44.75 51.7 44.85 49.55 44.25 47.5 L44.4 47.2 Q45.25 49.2 45.15 54.2 45.1 57.7 49.15 62.55 L51.15 65.55 Q52.1 67.0 52.1 68.15 L51.1 70.45 Q50.1 73.35 50.1 76.95 50.1 77.75 52.1 81.05 L54.5 85.4 Q55.3 87.95 56.5 89.05 57.0 89.55 58.3 90.15 59.0 89.8 59.0 88.4 59.0 87.15 56.65 82.4 54.25 77.6 54.25 74.65 L54.75 71.2 55.25 67.7 Q55.25 64.0 52.75 59.65 50.25 55.3 50.25 53.05 50.25 52.55 50.95 50.0 L51.6 46.9 Q51.6 40.35 50.05 37.1 48.05 34.2 47.1 32.25 L47.0 31.9 47.1 31.5 Q50.5 34.5 51.75 38.15 52.85 41.35 52.85 46.8 52.85 48.6 52.25 50.85 L51.65 53.1 Q51.65 54.3 54.2 58.8 56.75 63.3 56.75 65.8 L56.4 69.85 56.55 71.35 Q56.75 72.45 57.05 72.85 L59.7 77.1 60.25 79.4 60.75 78.7 60.9 77.65 Q60.9 76.75 60.15 73.75 L59.4 70.55 Q59.4 69.5 60.1 68.05 60.25 67.7 58.5 65.95 57.85 65.25 56.95 61.65 56.15 58.3 56.15 57.2 56.15 56.55 56.3 56.5 L56.75 56.5 Q58.0 57.2 58.1 60.2 58.25 63.4 59.15 64.3 60.4 65.6 61.4 68.0 61.95 69.3 64.35 69.9 L65.2 69.7 Q65.35 70.0 65.35 69.0 65.35 67.8 62.8 64.15 60.25 60.5 60.25 59.5 60.25 59.0 60.75 57.2 L61.25 54.9 Q61.25 53.8 58.5 50.95 55.75 48.05 55.75 45.6 L57.25 38.25 Q57.25 36.8 56.3 35.55 L54.0 32.9 53.2 31.3 52.75 29.9 Q53.5 24.6 50.65 20.8 47.65 17.85 47.65 17.0 L48.1 14.7 48.5 12.4 Q48.5 11.0 46.0 7.85 43.5 4.7 43.5 3.05 43.5 0.0 44.15 -1.8 L44.75 -3.5 Q44.75 -3.9 42.15 -5.65 39.5 -7.45 39.5 -8.05 L41.0 -11.8 38.25 -14.85 Q35.5 -17.8 35.5 -18.75 35.5 -19.3 36.75 -22.55 36.75 -24.2 34.0 -26.6 31.25 -29.05 31.25 -29.45 L31.5 -31.45 31.65 -33.45 Q31.5 -34.9 30.45 -35.4 L27.6 -35.85 Q25.6 -36.0 24.5 -38.4 L23.3 -41.75 Q22.35 -43.35 19.95 -43.3 L16.4 -43.1 Q14.35 -43.4 13.95 -45.75 13.55 -48.0 12.85 -48.0 L8.95 -47.75 5.15 -47.6 Q4.15 -47.8 3.5 -48.8 L3.0 -49.75 Q1.55 -49.75 0.25 -49.15 -1.1 -48.55 -2.6 -48.55 L-4.4 -49.0 Q-5.65 -49.45 -6.55 -50.15 L-8.2 -48.85 Q-7.3 -49.25 -7.3 -48.25 L-8.75 -47.25 Q-10.5 -45.9 -11.95 -44.0 L-11.65 -44.2 -10.6 -44.65 -8.95 -45.0 Q-6.2 -45.0 -5.05 -44.35 L-3.9 -43.25 Q-2.65 -41.3 -2.0 -41.15 L3.65 -40.9 Q8.7 -40.55 10.85 -38.45 12.9 -35.65 15.0 -34.05 15.4 -33.35 14.75 -33.25 L12.4 -33.8 10.2 -35.2 Q7.65 -38.9 6.75 -39.5 L0.85 -38.7 Q-1.25 -38.25 -3.75 -40.95 -6.45 -43.8 -7.5 -43.8 -10.4 -43.8 -12.4 -42.1 -14.2 -40.55 -16.55 -40.85 -21.0 -40.4 -21.55 -39.75 L-21.9 -39.45 Q-19.45 -37.95 -18.15 -37.55 L-13.5 -37.4 Q-10.1 -37.9 -8.6 -36.8 -6.85 -34.95 -4.9 -33.7 L-0.8 -31.55 Q0.05 -31.1 0.45 -29.0 0.7 -27.6 3.3 -25.75 6.05 -23.8 6.5 -22.3 L6.1 -20.05 5.9 -20.35 Q5.55 -21.9 5.55 -23.15 L5.55 -23.1 Q4.75 -24.3 -2.25 -30.7 -3.6 -32.05 -6.3 -33.9 -9.05 -35.75 -9.8 -35.85 L-13.05 -35.85 -17.95 -35.7 Q-18.3 -35.7 -19.55 -36.7 L-20.75 -37.75 Q-32.7 -37.75 -32.7 -28.5 -32.7 -23.2 -27.0 -22.0 M-32.65 -37.65 Q-33.85 -38.3 -35.75 -38.5 -37.15 -38.65 -40.0 -40.0 -40.45 -40.0 -44.15 -38.25 L-47.85 -37.65 -50.25 -37.2 Q-51.25 -35.8 -51.5 -34.25 -51.8 -32.55 -52.15 -31.95 L-55.3 -30.7 -55.45 -30.45 Q-54.9 -28.05 -56.15 -26.0 -57.5 -24.25 -57.5 -23.8 -57.45 -22.65 -56.95 -21.6 -55.95 -19.5 -53.8 -19.5 -53.05 -24.45 -51.0 -27.05 -49.0 -29.65 -46.0 -29.65 -44.25 -29.65 -39.75 -27.2 L-37.3 -25.8 Q-35.2 -25.8 -34.45 -27.5 L-32.5 -33.4 Q-31.5 -36.05 -27.15 -37.9 -22.45 -39.95 -21.25 -42.0 L-14.25 -42.15 Q-14.65 -44.65 -13.2 -46.15 L-10.85 -48.05 Q-11.75 -48.6 -11.75 -49.4 L-14.0 -49.5 Q-14.45 -49.5 -16.3 -48.4 -18.15 -47.3 -18.65 -47.3 L-20.95 -48.7 -23.35 -50.15 Q-24.05 -50.15 -25.9 -48.6 -27.7 -47.05 -27.85 -47.05 -28.35 -47.05 -28.9 -47.4 -29.5 -47.8 -30.0 -47.8 -32.1 -47.8 -33.1 -46.3 -34.3 -44.45 -35.5 -44.05 L-39.9 -43.35 Q-43.05 -42.65 -43.4 -40.55 L-42.45 -40.9 -35.8 -40.65 Q-30.3 -39.85 -30.3 -37.3 -30.3 -36.7 -30.6 -36.65 L-31.25 -36.75 -32.65 -37.65 M12.65 25.7 L12.5 25.7 11.75 32.8 11.9 33.85 12.35 32.55 13.85 29.35 14.25 28.55 Q14.25 28.15 13.45 26.9 L12.65 25.7 M45.35 66.5 Q45.75 67.15 46.35 71.05 47.0 75.05 46.7 75.95 46.3 77.7 46.5 79.0 L46.5 78.95 Q46.95 80.35 46.75 80.5 45.55 80.05 45.2 79.05 L45.1 78.15 45.5 75.45 45.9 72.75 Q45.9 70.6 44.7 68.05 43.5 65.45 43.5 64.75 L43.55 64.25 43.6 64.5 44.65 65.55 45.4 66.6 45.35 66.5" fill="#97877d" fill-rule="evenodd" stroke="none"/>
    <path d="M-27.0 -22.0 Q-32.7 -23.2 -32.7 -28.5 -32.7 -37.75 -20.75 -37.75 L-19.55 -36.7 Q-18.3 -35.7 -17.95 -35.7 L-13.05 -35.85 -9.8 -35.85 Q-9.05 -35.75 -6.3 -33.9 -3.6 -32.05 -2.25 -30.7 4.75 -24.3 5.55 -23.1 5.25 -21.6 5.9 -20.35 L6.1 -20.05 Q7.55 -18.0 10.35 -11.3 12.7 -5.75 14.5 -4.4 11.3 -12.65 9.9 -15.4 L6.5 -22.3 Q6.05 -23.8 3.3 -25.75 0.7 -27.6 0.45 -29.0 0.05 -31.1 -0.8 -31.55 L-4.9 -33.7 Q-6.85 -34.95 -8.6 -36.8 -10.1 -37.9 -13.5 -37.4 L-18.15 -37.55 Q-19.45 -37.95 -21.9 -39.45 L-21.55 -39.75 Q-21.0 -40.4 -16.55 -40.85 L-14.2 -38.15 -13.05 -38.65 -11.75 -38.9 -9.2 -38.65 -6.55 -38.45 Q-5.9 -38.45 -3.75 -36.9 -1.05 -34.95 0.6 -34.2 2.65 -33.25 4.5 -31.45 L6.6 -29.5 Q6.05 -30.45 5.8 -35.0 L3.75 -35.4 Q2.3 -35.85 1.8 -36.55 L1.5 -37.4 Q5.85 -36.9 7.15 -34.35 8.05 -32.6 8.05 -27.45 8.05 -25.6 9.15 -24.1 L11.25 -21.75 Q12.25 -20.6 11.6 -14.95 11.6 -14.0 14.45 -9.2 17.25 -4.35 17.25 -3.8 L16.75 -0.65 16.25 2.5 Q16.25 5.5 17.3 7.05 17.8 7.75 19.65 9.1 23.0 11.5 23.0 18.25 23.0 22.9 22.15 24.8 L21.25 26.3 Q21.25 31.15 24.4 34.8 27.5 38.5 27.5 41.9 L26.65 45.0 Q25.8 48.15 25.8 49.7 25.8 50.4 28.95 54.05 32.45 59.2 33.95 67.2 L35.4 77.9 Q36.35 84.95 37.85 90.35 33.75 87.35 33.75 84.9 L34.15 83.15 34.5 81.4 32.2 76.45 Q32.2 75.95 32.6 75.35 33.0 74.75 33.0 74.25 33.0 73.55 31.0 69.9 L29.0 66.15 Q29.0 65.65 29.7 64.15 L30.35 62.65 Q30.35 58.55 29.65 56.95 28.9 55.25 26.75 54.9 L25.75 55.6 Q27.8 57.75 28.45 58.8 29.15 59.95 29.15 61.35 L28.35 63.25 Q27.5 65.35 27.5 66.55 27.5 66.95 29.5 69.7 31.5 72.4 31.5 73.0 L30.25 76.1 Q29.0 79.5 29.0 81.3 29.0 82.8 30.5 88.25 L32.0 93.95 Q32.0 95.15 31.7 95.7 31.3 96.6 30.05 96.6 28.05 96.6 27.3 92.25 L26.65 86.5 Q26.4 85.35 24.6 81.6 23.0 78.2 23.0 77.05 L23.5 73.85 24.0 70.65 Q24.0 69.5 23.2 66.8 L23.35 67.0 23.1 66.05 Q22.75 65.1 22.75 64.55 22.75 63.95 23.3 61.55 L24.5 65.15 27.5 75.6 26.5 80.9 27.3 82.35 Q27.95 83.35 28.3 83.6 L28.6 83.5 Q28.75 83.9 28.75 82.9 L28.4 81.35 28.0 79.8 Q28.0 79.3 28.5 77.8 L29.0 75.8 28.35 73.5 Q27.45 71.0 26.85 68.45 L25.85 63.6 Q25.4 62.15 23.65 59.95 L24.35 56.8 24.75 54.45 Q23.95 49.3 23.95 41.85 23.95 37.15 22.45 37.85 L19.75 31.25 19.15 31.6 17.7 21.2 Q17.25 19.25 15.75 17.8 L15.5 18.05 15.35 18.9 17.45 30.3 Q19.15 39.95 20.05 41.2 L19.2 40.35 19.05 40.75 18.9 41.9 20.1 53.25 Q20.1 54.4 17.5 64.25 L18.25 68.65 19.0 73.45 18.35 76.0 17.05 79.4 Q15.35 76.95 15.35 76.55 L17.35 71.5 Q13.85 64.35 13.85 63.05 13.85 62.7 15.3 61.05 16.95 59.15 17.65 55.5 L14.4 50.05 Q16.65 45.75 16.65 42.9 16.65 42.25 14.9 39.1 13.15 36.0 13.15 35.0 13.15 34.35 14.55 31.75 L15.9 28.8 Q15.9 28.3 13.55 24.65 11.15 21.0 11.15 19.8 11.15 18.85 12.3 16.2 L13.4 13.65 12.7 11.7 11.7 9.65 11.7 9.6 11.2 9.05 11.0 8.05 Q11.0 5.95 12.75 1.05 12.75 -0.15 11.7 -1.95 L8.95 -6.45 Q8.6 -7.05 8.45 -10.15 8.3 -13.45 7.8 -14.7 6.7 -17.45 3.6 -20.8 1.7 -22.8 -1.8 -25.9 L-7.05 -31.25 Q-8.3 -32.65 -10.5 -32.85 -16.2 -33.4 -23.95 -35.45 -26.35 -35.45 -27.8 -34.15 -29.75 -32.45 -29.75 -28.8 L-29.85 -26.2 Q-29.85 -24.4 -29.2 -24.4 -25.55 -24.4 -21.45 -22.9 -18.8 -21.95 -17.15 -20.95 L-20.6 -21.6 -26.6 -21.95 -27.0 -22.0 M10.2 -35.2 L12.4 -33.8 Q19.75 -26.9 20.5 -24.3 20.75 -23.4 20.4 -22.0 L20.0 -19.05 Q20.0 -18.9 24.35 -12.05 L24.55 -12.2 22.9 -15.55 Q21.35 -18.6 21.9 -20.8 L21.1 -26.2 Q21.15 -26.65 21.7 -26.4 L21.8 -26.45 21.85 -26.7 Q21.8 -27.65 19.0 -30.6 16.3 -33.4 15.0 -34.05 12.9 -35.65 10.85 -38.45 8.7 -40.55 3.65 -40.9 L-2.0 -41.15 Q-2.65 -41.3 -3.9 -43.25 L-2.3 -44.75 Q-1.85 -44.75 -0.45 -43.65 0.95 -42.55 1.35 -42.55 1.75 -42.55 2.4 -43.15 3.05 -43.75 4.6 -43.75 7.1 -43.75 10.85 -41.0 17.45 -36.1 20.2 -34.5 L21.0 -33.95 21.1 -35.8 Q21.1 -36.2 17.1 -40.2 L16.75 -40.65 Q22.45 -40.65 22.2 -34.35 24.45 -33.45 25.5 -32.5 27.4 -30.8 27.4 -26.85 L26.85 -23.0 Q26.3 -19.9 26.3 -18.25 26.3 -16.9 27.6 -15.85 29.15 -14.55 32.15 -14.05 L31.25 -11.25 30.4 -9.1 Q30.4 -7.95 32.55 -6.95 34.65 -5.9 34.65 -5.4 L33.4 0.4 Q33.4 1.75 36.3 5.15 L39.15 8.85 Q39.15 11.8 38.0 17.45 38.0 18.25 41.5 21.65 45.0 25.1 45.1 28.15 41.95 24.5 41.25 24.1 L40.7 24.05 40.6 24.65 Q44.6 30.6 44.6 31.15 L44.25 32.8 43.85 34.45 47.6 41.25 47.1 44.4 Q46.95 46.5 48.55 47.6 L48.85 47.3 48.9 44.4 Q48.9 41.1 47.0 37.95 45.1 34.8 45.1 34.5 L45.3 32.85 45.8 30.1 47.1 32.25 Q48.05 34.2 50.05 37.1 51.6 40.35 51.6 46.9 L50.95 50.0 Q50.25 52.55 50.25 53.05 50.25 55.3 52.75 59.65 55.25 64.0 55.25 67.7 L54.75 71.2 54.25 74.65 Q54.25 77.6 56.65 82.4 59.0 87.15 59.0 88.4 59.0 89.8 58.3 90.15 57.0 89.55 56.5 89.05 55.3 87.95 54.5 85.4 L52.1 81.05 Q50.1 77.75 50.1 76.95 50.1 73.35 51.1 70.45 L52.1 68.15 Q52.1 67.0 51.15 65.55 L49.15 62.55 Q49.95 63.25 48.85 61.05 L47.5 58.1 47.4 53.5 Q47.35 50.8 46.85 49.65 L42.5 40.25 Q41.45 37.95 41.7 33.8 41.85 31.2 40.75 29.2 L38.3 26.1 Q34.95 22.2 36.15 16.7 36.35 15.8 33.7 11.0 30.9 5.9 30.9 3.4 30.9 -0.05 30.65 -0.45 29.3 -2.05 27.1 -6.0 L26.85 -5.65 26.5 -4.25 Q26.75 -3.8 28.75 -1.8 30.3 -0.25 30.3 0.8 30.3 3.1 29.8 5.3 29.55 6.4 30.2 7.75 L33.15 13.8 Q34.15 16.3 34.15 19.35 34.15 23.7 37.15 28.2 40.15 32.75 40.15 33.7 40.15 34.7 40.85 38.75 L39.45 36.6 38.1 34.5 36.55 30.45 Q35.25 27.6 34.4 26.85 L33.8 26.6 33.15 26.65 37.75 36.7 40.85 44.25 41.0 44.2 41.25 44.25 41.2 40.0 44.75 51.7 Q43.8 57.7 46.0 61.2 47.1 63.0 48.5 63.55 49.9 63.55 50.85 68.1 L49.9 72.0 Q48.95 75.95 48.95 76.5 L49.25 78.2 49.45 80.35 49.05 82.7 48.65 84.9 Q48.65 87.75 49.7 90.1 L50.75 91.95 50.3 94.85 Q49.75 96.75 48.65 96.75 47.0 96.75 47.0 94.45 L47.35 89.1 47.35 85.3 46.75 80.5 Q46.95 80.35 46.5 78.95 L46.7 75.95 Q47.0 75.05 46.35 71.05 45.75 67.15 45.35 66.5 45.05 65.4 43.05 61.9 L41.1 58.2 40.9 53.4 40.9 49.65 Q40.85 49.1 39.6 47.1 38.15 44.65 37.45 42.75 L35.4 35.0 Q34.8 32.4 32.75 32.15 L32.6 32.3 33.35 36.7 34.05 41.15 34.0 41.15 30.45 34.45 Q28.1 30.3 28.1 28.05 L29.0 17.65 Q28.9 12.4 27.15 9.55 L24.35 5.1 Q23.0 2.85 22.85 1.75 23.0 -2.05 22.75 -4.7 L22.3 -7.25 23.55 -5.15 24.15 -1.45 Q24.5 1.1 25.0 2.5 25.6 4.2 26.75 5.2 27.75 6.05 28.0 7.25 L28.65 7.2 28.7 7.05 28.75 6.65 Q28.75 5.65 27.75 3.7 26.35 0.95 25.35 -2.5 24.1 -6.85 22.55 -9.6 21.25 -11.9 20.15 -12.55 L20.05 -11.6 19.15 -12.55 Q17.2 -14.3 17.15 -16.8 17.0 -21.35 16.3 -24.05 16.05 -25.0 15.05 -25.8 L13.1 -27.3 Q10.45 -29.65 10.2 -35.2 M52.75 29.9 L53.2 31.3 54.0 32.9 Q54.25 35.8 55.25 37.3 56.15 38.6 56.15 42.15 L55.65 43.75 54.75 45.35 54.3 45.2 54.15 45.25 54.1 44.65 54.5 42.9 54.85 41.15 Q54.85 40.2 50.1 29.0 L50.3 28.15 50.6 28.0 Q52.35 29.15 52.75 29.9 M38.05 95.4 L37.85 95.05 37.75 94.7 38.2 92.45 Q38.5 94.3 38.05 95.4 M-4.4 -21.5 Q-4.95 -23.2 -5.65 -24.1 -4.15 -23.15 -3.65 -22.3 L-3.8 -21.55 -4.4 -21.5 M-8.3 -25.55 Q-9.95 -25.7 -12.25 -24.75 L-13.2 -24.3 -13.75 -25.55 -19.0 -26.0 -20.8 -25.75 Q-21.9 -25.5 -22.0 -25.25 L-21.9 -25.2 -23.7 -24.6 -24.25 -25.4 -24.5 -26.5 Q-24.5 -29.1 -20.75 -29.1 -17.0 -29.1 -10.9 -26.65 L-8.3 -25.55 M-1.45 7.8 L-0.2 9.85 Q0.15 11.35 -0.6 14.0 -1.5 17.1 -1.5 18.75 L0.0 21.2 0.25 21.6 Q2.0 24.1 2.0 24.7 L2.0 25.05 1.9 25.25 1.6 25.15 Q-1.45 22.75 -2.3 21.35 -2.9 20.35 -2.9 18.55 -2.9 17.0 -1.95 14.4 L-1.0 12.0 Q-1.0 9.45 -4.25 7.05 -7.5 4.6 -7.5 2.3 -7.5 1.3 -7.0 1.25 L-6.5 2.2 -4.0 5.2 -1.45 7.8 M3.05 64.55 L2.35 66.25 Q1.0 64.65 0.05 61.45 -0.75 58.7 -0.75 56.75 -0.75 54.15 0.8 51.1 L2.35 47.85 Q1.45 43.8 0.85 42.4 0.9 42.15 1.25 42.3 L1.6 42.45 3.05 44.55 Q3.65 46.0 3.65 48.7 3.65 49.5 2.2 52.1 0.75 54.7 0.75 56.75 0.75 62.85 3.05 64.55 M2.45 73.65 L3.45 74.65 2.75 75.9 2.25 74.65 2.45 73.65 M22.55 -31.95 L22.15 -32.05 23.35 -29.85 Q24.45 -27.95 24.8 -27.65 L25.3 -27.4 25.0 -31.75 22.55 -31.95 M29.55 -26.4 L30.3 -26.1 Q32.45 -24.45 31.75 -21.85 L30.5 -17.25 31.55 -16.95 32.35 -16.5 31.95 -16.15 31.35 -15.85 30.25 -15.65 Q28.9 -15.65 28.9 -17.5 28.9 -18.3 29.7 -20.75 L30.5 -23.4 30.15 -24.25 28.6 -26.5 29.55 -26.4 M3.0 -11.25 L3.25 -10.95 3.3 -10.65 3.25 -9.8 Q3.25 -8.45 6.05 -6.6 9.0 -4.65 9.2 -4.1 9.55 -2.95 9.45 0.0 9.4 1.75 9.95 3.05 L10.5 4.95 10.0 7.6 9.4 6.85 Q8.95 6.3 8.55 4.2 L8.15 1.1 Q8.15 -1.0 8.55 -2.65 8.55 -3.55 6.5 -4.85 L4.1 -6.55 Q2.1 -8.2 2.1 -9.3 2.1 -9.95 2.4 -10.5 L3.0 -11.25 M18.85 -8.1 Q21.75 -4.55 21.75 -2.3 L21.4 -0.7 21.0 0.9 Q21.0 1.45 22.25 3.6 22.25 4.6 22.2 4.0 19.9 2.3 19.9 0.75 19.9 0.25 20.35 -0.75 L20.75 -2.3 Q20.0 -5.75 18.8 -7.9 L18.85 -8.1 M29.2 -5.0 L30.0 -5.75 29.35 -10.05 Q28.4 -13.45 24.9 -13.55 26.65 -12.5 27.2 -9.3 27.8 -6.05 29.2 -5.0 M37.6 -9.45 Q38.65 -8.05 38.65 -7.2 L38.45 -5.95 38.2 -4.45 Q38.2 -4.05 38.75 -3.35 L39.65 -2.15 Q39.2 -1.7 38.75 -1.65 36.75 -1.4 36.75 -3.85 36.75 -5.65 37.3 -6.9 37.3 -7.85 34.6 -10.9 L34.75 -11.4 35.15 -11.6 Q36.45 -10.85 37.6 -9.45 M-52.15 -31.95 Q-51.8 -32.55 -51.5 -34.25 -51.25 -35.8 -50.25 -37.2 L-47.85 -37.65 -44.15 -38.25 Q-40.45 -40.0 -40.0 -40.0 -37.15 -38.65 -35.75 -38.5 -33.85 -38.3 -32.65 -37.65 L-32.45 -36.1 Q-32.6 -31.85 -34.3 -29.45 -35.55 -27.75 -36.55 -27.75 -36.8 -27.75 -40.2 -29.45 -44.15 -31.15 -47.35 -31.15 -47.75 -31.15 -49.35 -30.3 L-52.6 -28.1 -53.55 -27.25 Q-53.6 -29.5 -53.1 -30.3 L-52.15 -31.95 M-46.65 -36.25 Q-48.45 -36.25 -49.1 -35.05 L-49.9 -33.25 Q-49.0 -31.4 -46.4 -31.7 L-40.0 -32.5 -39.0 -31.6 Q-38.05 -30.75 -37.4 -30.75 -35.3 -30.75 -34.35 -31.75 -33.75 -32.4 -33.75 -33.15 -33.75 -34.45 -35.5 -35.95 -37.85 -37.9 -41.75 -37.9 -42.4 -37.9 -43.15 -36.9 -43.85 -35.85 -45.0 -35.9 L-45.65 -36.05 -46.65 -36.25 M-17.55 -43.75 L-17.7 -43.35 -18.15 -43.05 -19.1 -42.9 Q-19.6 -42.9 -19.9 -43.45 -20.25 -44.05 -20.75 -44.05 L-22.2 -43.6 Q-23.15 -43.15 -23.65 -43.15 -24.9 -43.15 -25.0 -43.85 L-24.65 -44.7 -21.95 -44.95 -20.6 -45.25 Q-20.05 -45.25 -19.5 -44.8 -18.8 -44.15 -17.55 -43.75 M-17.5 -30.55 L-17.5 -30.4 Q-19.6 -29.4 -21.25 -30.7 L-22.8 -32.25 Q-25.6 -32.25 -25.85 -31.25 L-26.25 -29.55 -26.65 -29.7 -26.8 -30.3 Q-26.45 -33.15 -23.2 -33.15 L-20.35 -32.1 -17.5 -30.55 M-27.9 -42.45 Q-26.3 -41.45 -25.75 -40.25 -27.4 -39.65 -27.85 -40.6 -28.4 -41.8 -30.1 -41.8 L-31.15 -41.25 Q-31.95 -40.75 -33.15 -40.75 -34.35 -40.75 -34.8 -41.1 -35.25 -41.45 -35.25 -42.5 -35.25 -43.5 -34.75 -43.05 -34.2 -42.3 -33.2 -42.3 -32.55 -42.3 -31.8 -42.85 -31.05 -43.45 -30.75 -43.45 -29.5 -43.45 -27.9 -42.45 M40.85 5.95 L41.25 5.95 Q43.85 6.75 43.95 9.5 L44.1 14.05 45.1 15.5 Q45.7 16.5 45.6 18.2 45.4 20.35 45.65 21.55 L45.9 22.65 Q45.9 23.65 45.5 22.9 L44.25 22.0 43.75 21.65 Q43.75 20.0 44.25 17.2 44.4 16.45 43.15 15.25 42.15 14.3 42.25 10.9 42.4 7.75 40.4 6.4 40.45 6.0 40.85 5.95 M26.75 20.05 L26.0 29.0 Q26.0 31.4 26.5 32.15 L27.35 33.5 27.6 34.15 Q24.9 31.7 24.9 28.9 L25.65 20.35 25.3 17.7 24.75 13.75 Q25.55 14.9 26.2 17.05 26.75 19.0 26.75 20.05 M15.6 5.9 Q14.3 9.5 14.3 10.15 14.3 11.3 16.05 14.35 17.85 17.5 19.5 19.05 L19.75 18.65 17.3 14.55 Q14.95 10.55 15.6 5.9 M30.25 39.1 L30.75 41.5 31.0 43.8 30.95 45.85 Q30.75 46.6 29.65 47.3 L29.4 47.4 29.35 46.85 30.2 39.5 30.25 39.1 M37.15 52.0 L37.4 50.2 Q37.65 49.2 37.85 48.9 L38.0 50.3 38.35 56.75 Q37.8 55.9 37.45 54.25 37.15 52.85 37.15 52.0 M25.8 52.65 L25.95 52.9 Q26.15 53.6 27.4 54.9 L25.8 52.65 M37.2 69.9 L36.5 70.5 Q35.7 67.3 35.0 63.4 L35.35 63.05 35.5 63.0 36.35 64.65 Q37.1 66.4 37.2 68.05 L37.2 69.9 M20.0 59.65 L20.4 58.2 20.2 59.3 20.0 59.65 M29.95 90.25 Q29.75 90.25 29.65 90.65 29.5 91.0 29.5 91.5 L29.65 92.4 29.95 92.75 30.3 92.4 30.4 91.5 30.3 90.65 29.95 90.25 M49.7 59.05 L49.65 59.75 Q50.75 63.1 51.95 66.05 L52.75 68.35 52.35 70.95 51.9 73.5 Q51.9 74.5 52.0 74.5 L53.3 71.3 54.15 68.55 Q54.15 64.5 52.9 62.45 L49.7 59.05" fill="#ebe8e0" fill-rule="evenodd" stroke="none"/>
    <path d="M5.55 -23.1 L5.55 -23.15 Q5.55 -21.9 5.9 -20.35 5.25 -21.6 5.55 -23.1 M6.1 -20.05 L6.5 -22.3 9.9 -15.4 Q11.3 -12.65 14.5 -4.4 12.7 -5.75 10.35 -11.3 7.55 -18.0 6.1 -20.05 M12.4 -33.8 L14.75 -33.25 Q15.4 -33.35 15.0 -34.05 16.3 -33.4 19.0 -30.6 21.8 -27.65 21.85 -26.7 L21.8 -26.45 21.7 -26.4 Q21.15 -26.65 21.1 -26.2 L21.9 -20.8 Q21.35 -18.6 22.9 -15.55 L24.55 -12.2 24.35 -12.05 Q20.0 -18.9 20.0 -19.05 L20.4 -22.0 Q20.75 -23.4 20.5 -24.3 19.75 -26.9 12.4 -33.8 M-3.9 -43.25 L-5.05 -44.35 Q-6.2 -45.0 -8.95 -45.0 L-10.6 -44.65 -11.65 -44.2 -11.95 -44.0 Q-10.5 -45.9 -8.75 -47.25 L-7.3 -48.25 Q-7.3 -49.25 -8.2 -48.85 L-6.55 -50.15 Q-5.65 -49.45 -4.4 -49.0 L-2.6 -48.55 Q-1.1 -48.55 0.25 -49.15 1.55 -49.75 3.0 -49.75 L3.5 -48.8 Q4.15 -47.8 5.15 -47.6 L8.95 -47.75 12.85 -48.0 Q13.55 -48.0 13.95 -45.75 14.35 -43.4 16.4 -43.1 L19.95 -43.3 Q22.35 -43.35 23.3 -41.75 L24.5 -38.4 Q25.6 -36.0 27.6 -35.85 L30.45 -35.4 Q31.5 -34.9 31.65 -33.45 L31.5 -31.45 31.25 -29.45 Q31.25 -29.05 34.0 -26.6 36.75 -24.2 36.75 -22.55 35.5 -19.3 35.5 -18.75 35.5 -17.8 38.25 -14.85 L41.0 -11.8 39.5 -8.05 Q39.5 -7.45 42.15 -5.65 44.75 -3.9 44.75 -3.5 L44.15 -1.8 Q43.5 0.0 43.5 3.05 43.5 4.7 46.0 7.85 48.5 11.0 48.5 12.4 L48.1 14.7 47.65 17.0 Q47.65 17.85 50.65 20.8 53.5 24.6 52.75 29.9 52.35 29.15 50.6 28.0 L50.3 28.15 50.1 29.0 Q54.85 40.2 54.85 41.15 L54.5 42.9 54.1 44.65 54.15 45.25 54.3 45.2 54.75 45.35 55.65 43.75 56.15 42.15 Q56.15 38.6 55.25 37.3 54.25 35.8 54.0 32.9 L56.3 35.55 Q57.25 36.8 57.25 38.25 L55.75 45.6 Q55.75 48.05 58.5 50.95 61.25 53.8 61.25 54.9 L60.75 57.2 Q60.25 59.0 60.25 59.5 60.25 60.5 62.8 64.15 65.35 67.8 65.35 69.0 65.35 70.0 65.2 69.7 L64.35 69.9 Q61.95 69.3 61.4 68.0 60.4 65.6 59.15 64.3 58.25 63.4 58.1 60.2 58.0 57.2 56.75 56.5 L56.3 56.5 Q56.15 56.55 56.15 57.2 56.15 58.3 56.95 61.65 57.85 65.25 58.5 65.95 60.25 67.7 60.1 68.05 59.4 69.5 59.4 70.55 L60.15 73.75 Q60.9 76.75 60.9 77.65 L60.75 78.7 60.25 79.4 59.7 77.1 57.05 72.85 Q56.75 72.45 56.55 71.35 L56.4 69.85 56.75 65.8 Q56.75 63.3 54.2 58.8 51.65 54.3 51.65 53.1 L52.25 50.85 Q52.85 48.6 52.85 46.8 52.85 41.35 51.75 38.15 50.5 34.5 47.1 31.5 L47.0 31.9 47.1 32.25 45.8 30.1 Q45.2 28.85 45.1 28.15 45.0 25.1 41.5 21.65 38.0 18.25 38.0 17.45 39.15 11.8 39.15 8.85 L36.3 5.15 Q33.4 1.75 33.4 0.4 L34.65 -5.4 Q34.65 -5.9 32.55 -6.95 30.4 -7.95 30.4 -9.1 L31.25 -11.25 32.15 -14.05 Q29.15 -14.55 27.6 -15.85 26.3 -16.9 26.3 -18.25 26.3 -19.9 26.85 -23.0 L27.4 -26.85 Q27.4 -30.8 25.5 -32.5 24.45 -33.45 22.2 -34.35 22.45 -40.65 16.75 -40.65 L17.1 -40.2 Q21.1 -36.2 21.1 -35.8 L21.0 -33.95 20.2 -34.5 Q17.45 -36.1 10.85 -41.0 7.1 -43.75 4.6 -43.75 3.05 -43.75 2.4 -43.15 1.75 -42.55 1.35 -42.55 0.95 -42.55 -0.45 -43.65 -1.85 -44.75 -2.3 -44.75 L-3.9 -43.25 M49.15 62.55 Q45.1 57.7 45.15 54.2 45.25 49.2 44.4 47.2 L44.25 47.5 Q44.85 49.55 44.75 51.7 L41.2 40.0 40.85 38.75 Q40.15 34.7 40.15 33.7 40.15 32.75 37.15 28.2 34.15 23.7 34.15 19.35 34.15 16.3 33.15 13.8 L30.2 7.75 Q29.55 6.4 29.8 5.3 30.3 3.1 30.3 0.8 30.3 -0.25 28.75 -1.8 26.75 -3.8 26.5 -4.25 L26.85 -5.65 27.1 -6.0 Q29.3 -2.05 30.65 -0.45 30.9 -0.05 30.9 3.4 30.9 5.9 33.7 11.0 36.35 15.8 36.15 16.7 34.95 22.2 38.3 26.1 L40.75 29.2 Q41.85 31.2 41.7 33.8 41.45 37.95 42.5 40.25 L46.85 49.65 Q47.35 50.8 47.4 53.5 L47.5 58.1 48.85 61.05 Q49.95 63.25 49.15 62.55 M47.35 89.1 Q46.8 87.2 44.3 84.65 42.0 82.25 42.0 81.95 L40.65 78.85 39.25 76.05 40.5 68.4 Q40.5 64.8 37.6 61.0 34.65 57.15 34.65 56.2 L35.5 53.1 36.35 49.7 Q36.35 43.7 34.05 41.15 L33.35 36.7 32.6 32.3 32.75 32.15 Q34.8 32.4 35.4 35.0 L37.45 42.75 Q38.15 44.65 39.6 47.1 40.85 49.1 40.9 49.65 L40.9 53.4 41.1 58.2 43.05 61.9 Q45.05 65.4 45.35 66.5 L45.4 66.6 44.65 65.55 43.6 64.5 43.55 64.25 43.5 64.75 Q43.5 65.45 44.7 68.05 45.9 70.6 45.9 72.75 L45.5 75.45 45.1 78.15 45.2 79.05 Q45.55 80.05 46.75 80.5 L47.35 85.3 47.35 89.1 M23.2 66.8 Q21.35 64.05 21.35 62.85 21.35 60.5 22.3 57.7 23.25 54.95 23.25 52.7 L22.5 49.0 Q21.75 45.8 21.75 44.85 L22.2 41.65 Q22.65 38.95 22.5 38.15 L22.45 37.9 22.45 37.85 Q23.95 37.15 23.95 41.85 23.95 49.3 24.75 54.45 L24.35 56.8 23.65 59.95 23.35 60.15 23.25 60.9 23.3 61.55 Q22.75 63.95 22.75 64.55 22.75 65.1 23.1 66.05 L23.35 67.0 23.2 66.8 M22.55 -31.95 L25.0 -31.75 25.3 -27.4 24.8 -27.65 Q24.45 -27.95 23.35 -29.85 L22.15 -32.05 22.55 -31.95 M29.55 -26.4 L28.6 -26.5 30.15 -24.25 30.5 -23.4 29.7 -20.75 Q28.9 -18.3 28.9 -17.5 28.9 -15.65 30.25 -15.65 L31.35 -15.85 31.95 -16.15 32.35 -16.5 31.55 -16.95 30.5 -17.25 31.75 -21.85 Q32.45 -24.45 30.3 -26.1 L29.55 -26.4 M37.6 -9.45 Q36.45 -10.85 35.15 -11.6 L34.75 -11.4 34.6 -10.9 Q37.3 -7.85 37.3 -6.9 36.75 -5.65 36.75 -3.85 36.75 -1.4 38.75 -1.65 39.2 -1.7 39.65 -2.15 L38.75 -3.35 Q38.2 -4.05 38.2 -4.45 L38.45 -5.95 38.65 -7.2 Q38.65 -8.05 37.6 -9.45 M-32.65 -37.65 L-31.25 -36.75 -30.6 -36.65 Q-30.3 -36.7 -30.3 -37.3 -30.3 -39.85 -35.8 -40.65 L-42.45 -40.9 -43.4 -40.55 Q-43.05 -42.65 -39.9 -43.35 L-35.5 -44.05 Q-34.3 -44.45 -33.1 -46.3 -32.1 -47.8 -30.0 -47.8 -29.5 -47.8 -28.9 -47.4 -28.35 -47.05 -27.85 -47.05 -27.7 -47.05 -25.9 -48.6 -24.05 -50.15 -23.35 -50.15 L-20.95 -48.7 -18.65 -47.3 Q-18.15 -47.3 -16.3 -48.4 -14.45 -49.5 -14.0 -49.5 L-11.75 -49.4 Q-11.75 -48.6 -10.85 -48.05 L-13.2 -46.15 Q-14.65 -44.65 -14.25 -42.15 L-21.25 -42.0 Q-22.45 -39.95 -27.15 -37.9 -31.5 -36.05 -32.5 -33.4 L-34.45 -27.5 Q-35.2 -25.8 -37.3 -25.8 L-39.75 -27.2 Q-44.25 -29.65 -46.0 -29.65 -49.0 -29.65 -51.0 -27.05 -53.05 -24.45 -53.8 -19.5 -55.95 -19.5 -56.95 -21.6 -57.45 -22.65 -57.5 -23.8 -57.5 -24.25 -56.15 -26.0 -54.9 -28.05 -55.45 -30.45 L-55.3 -30.7 -52.15 -31.95 -53.1 -30.3 Q-53.6 -29.5 -53.55 -27.25 L-52.6 -28.1 -49.35 -30.3 Q-47.75 -31.15 -47.35 -31.15 -44.15 -31.15 -40.2 -29.45 -36.8 -27.75 -36.55 -27.75 -35.55 -27.75 -34.3 -29.45 -32.6 -31.85 -32.45 -36.1 L-32.65 -37.65 M-17.55 -43.75 Q-18.8 -44.15 -19.5 -44.8 -20.05 -45.25 -20.6 -45.25 L-21.95 -44.95 -24.65 -44.7 -25.0 -43.85 Q-24.9 -43.15 -23.65 -43.15 -23.15 -43.15 -22.2 -43.6 L-20.75 -44.05 Q-20.25 -44.05 -19.9 -43.45 -19.6 -42.9 -19.1 -42.9 L-18.15 -43.05 -17.7 -43.35 -17.55 -43.75 M-27.9 -42.45 Q-29.5 -43.45 -30.75 -43.45 -31.05 -43.45 -31.8 -42.85 -32.55 -42.3 -33.2 -42.3 -34.2 -42.3 -34.75 -43.05 -35.25 -43.5 -35.25 -42.5 -35.25 -41.45 -34.8 -41.1 -34.35 -40.75 -33.15 -40.75 -31.95 -40.75 -31.15 -41.25 L-30.1 -41.8 Q-28.4 -41.8 -27.85 -40.6 -27.4 -39.65 -25.75 -40.25 -26.3 -41.45 -27.9 -42.45 M40.85 5.95 Q40.45 6.0 40.4 6.4 42.4 7.75 42.25 10.9 42.15 14.3 43.15 15.25 44.4 16.45 44.25 17.2 43.75 20.0 43.75 21.65 L44.25 22.0 45.5 22.9 Q45.9 23.65 45.9 22.65 L45.65 21.55 Q45.4 20.35 45.6 18.2 45.7 16.5 45.1 15.5 L44.1 14.05 43.95 9.5 Q43.85 6.75 41.25 5.95 L40.85 5.95 M46.7 75.95 L46.5 78.95 46.5 79.0 Q46.3 77.7 46.7 75.95 M37.15 52.0 Q37.15 52.85 37.45 54.25 37.8 55.9 38.35 56.75 L38.0 50.3 37.85 48.9 Q37.65 49.2 37.4 50.2 L37.15 52.0" fill="#cbc8c0" fill-rule="evenodd" stroke="none"/>
    <path d="M-16.55 -40.85 Q-14.2 -40.55 -12.4 -42.1 -10.4 -43.8 -7.5 -43.8 -6.45 -43.8 -3.75 -40.95 -1.25 -38.25 0.85 -38.7 L6.75 -39.5 Q7.65 -38.9 10.2 -35.2 10.45 -29.65 13.1 -27.3 L15.05 -25.8 Q16.05 -25.0 16.3 -24.05 17.0 -21.35 17.15 -16.8 17.2 -14.3 19.15 -12.55 L20.05 -11.6 20.15 -12.55 Q21.25 -11.9 22.55 -9.6 24.1 -6.85 25.35 -2.5 26.35 0.95 27.75 3.7 28.75 5.65 28.75 6.65 L28.7 7.05 28.65 7.2 28.0 7.25 Q27.75 6.05 26.75 5.2 25.6 4.2 25.0 2.5 24.5 1.1 24.15 -1.45 L23.55 -5.15 22.3 -7.25 22.75 -4.7 Q23.0 -2.05 22.85 1.75 23.0 2.85 24.35 5.1 L27.15 9.55 Q28.9 12.4 29.0 17.65 L28.1 28.05 Q28.1 30.3 30.45 34.45 L34.0 41.15 32.65 41.25 Q34.3 42.55 34.8 43.5 35.25 44.5 35.25 46.8 35.25 47.95 34.25 51.5 33.25 55.05 33.25 56.2 33.25 56.55 36.15 60.95 39.0 65.95 39.0 69.0 L37.75 76.1 Q37.75 77.25 39.15 79.65 40.5 82.05 40.5 82.5 L39.25 87.0 41.75 92.8 Q41.75 96.5 39.25 96.5 38.65 96.5 38.3 95.95 L38.05 95.4 Q38.5 94.3 38.2 92.45 38.2 91.25 37.85 90.35 36.35 84.95 35.4 77.9 L33.95 67.2 Q32.45 59.2 28.95 54.05 25.8 50.4 25.8 49.7 25.8 48.15 26.65 45.0 L27.5 41.9 Q27.5 38.5 24.4 34.8 21.25 31.15 21.25 26.3 L22.15 24.8 Q23.0 22.9 23.0 18.25 23.0 11.5 19.65 9.1 17.8 7.75 17.3 7.05 16.25 5.5 16.25 2.5 L16.75 -0.65 17.25 -3.8 Q17.25 -4.35 14.45 -9.2 11.6 -14.0 11.6 -14.95 12.25 -20.6 11.25 -21.75 L9.15 -24.1 Q8.05 -25.6 8.05 -27.45 8.05 -32.6 7.15 -34.35 5.85 -36.9 1.5 -37.4 L1.8 -36.55 Q2.3 -35.85 3.75 -35.4 L5.8 -35.0 Q6.05 -30.45 6.6 -29.5 L4.5 -31.45 Q2.65 -33.25 0.6 -34.2 -1.05 -34.95 -3.75 -36.9 -5.9 -38.45 -6.55 -38.45 L-9.2 -38.65 -11.75 -38.9 -13.05 -38.65 -14.2 -38.15 -16.55 -40.85 M19.15 31.6 L18.7 32.1 18.5 33.0 Q18.5 33.35 20.3 36.35 22.0 39.15 21.45 41.5 L20.75 44.75 Q21.1 48.35 21.75 50.5 L22.25 52.85 Q22.25 54.4 21.15 58.7 20.0 63.05 20.0 63.9 L21.25 66.45 Q22.5 69.1 22.5 70.55 L22.1 73.6 21.5 77.5 21.8 78.45 22.1 80.0 20.75 83.6 Q19.4 87.15 19.4 89.15 19.4 90.15 21.35 94.5 L21.05 95.15 Q20.8 95.5 20.15 95.5 18.15 95.5 16.85 93.55 15.9 92.05 15.9 90.8 L17.15 87.2 Q18.35 83.8 18.35 82.3 18.35 81.3 17.05 79.4 L18.35 76.0 19.0 73.45 18.25 68.65 17.5 64.25 Q20.1 54.4 20.1 53.25 L18.9 41.9 19.05 40.75 19.2 40.35 20.05 41.2 Q19.15 39.95 17.45 30.3 L15.35 18.9 15.5 18.05 15.75 17.8 Q17.25 19.25 17.7 21.2 L19.15 31.6 M11.7 9.65 L11.75 10.25 Q11.75 10.9 11.55 11.0 L11.0 11.0 Q12.0 12.65 12.0 13.65 L10.9 16.0 Q9.75 18.5 9.75 19.75 L10.7 22.1 11.65 24.7 11.15 28.7 10.65 32.65 Q10.65 34.5 12.25 41.65 L11.0 46.75 12.0 56.7 12.1 58.8 Q11.85 61.0 10.35 61.85 10.95 62.0 9.95 62.0 L9.0 61.9 8.75 59.45 Q10.5 54.75 10.5 52.25 10.5 51.0 9.5 49.25 8.5 47.55 8.5 45.2 L9.45 41.3 Q10.35 37.15 10.35 33.5 L9.15 31.65 Q7.9 29.6 7.7 28.45 7.55 27.45 7.8 25.05 L8.1 22.15 Q8.1 19.55 7.4 17.9 L5.8 14.4 Q5.4 13.2 5.45 9.7 L5.6 5.65 Q5.6 1.85 4.8 0.65 2.75 -2.35 1.35 -5.85 1.0 -6.8 1.0 -8.95 L0.9 -12.7 Q0.75 -13.85 -0.05 -15.3 L-0.85 -16.6 Q-0.85 -17.45 -2.3 -19.05 L-4.4 -21.5 -3.8 -21.55 -3.65 -22.3 Q-4.15 -23.15 -5.65 -24.1 L-6.3 -24.75 Q-7.15 -25.45 -8.3 -25.55 L-10.9 -26.65 Q-17.0 -29.1 -20.75 -29.1 -24.5 -29.1 -24.5 -26.5 L-24.25 -25.4 -23.7 -24.6 -21.9 -25.2 Q-20.0 -24.25 -17.65 -24.85 -15.95 -25.3 -14.2 -23.25 L-12.55 -22.25 Q-11.45 -21.5 -10.8 -18.9 L-10.4 -14.15 Q-10.1 -11.35 -7.65 -9.3 L-5.55 -7.35 Q-4.5 -6.05 -4.5 -4.3 L-4.85 -1.6 -5.25 1.1 Q-3.95 4.45 -1.45 7.8 L-4.0 5.2 -6.5 2.2 -7.0 1.25 Q-7.5 1.3 -7.5 2.3 -7.5 4.6 -4.25 7.05 -1.0 9.45 -1.0 12.0 L-1.95 14.4 Q-2.9 17.0 -2.9 18.55 -2.9 20.35 -2.3 21.35 -1.45 22.75 1.6 25.15 L1.9 25.25 2.0 25.05 Q3.5 27.8 3.5 28.45 L2.4 33.15 Q1.25 37.0 1.25 38.2 L2.75 42.4 Q4.25 46.75 4.25 47.8 4.25 48.85 2.65 52.85 L1.0 56.95 Q1.0 57.9 2.3 60.6 3.45 63.0 3.05 64.55 0.75 62.85 0.75 56.75 0.75 54.7 2.2 52.1 3.65 49.5 3.65 48.7 3.65 46.0 3.05 44.55 L1.6 42.45 1.25 42.3 Q0.9 42.15 0.85 42.4 1.45 43.8 2.35 47.85 L0.8 51.1 Q-0.75 54.15 -0.75 56.75 -0.75 58.7 0.05 61.45 1.0 64.65 2.35 66.25 L1.95 67.8 1.5 70.05 1.9 71.55 2.25 73.0 2.3 73.6 2.45 73.65 2.25 74.65 2.75 75.9 3.45 74.65 4.75 75.75 4.35 76.4 3.45 76.6 Q1.35 76.6 -0.15 74.15 -1.3 72.25 -1.3 70.95 -0.05 66.4 -0.05 65.4 -0.05 64.55 -1.55 61.7 L-3.05 58.4 Q-3.05 56.55 -0.95 52.95 1.1 49.3 1.1 47.65 1.1 46.65 -0.45 42.65 -2.05 38.7 -2.05 37.65 L-0.75 34.9 Q0.5 31.55 0.5 28.25 0.5 26.0 -2.25 22.85 -5.05 19.75 -5.05 17.15 L-3.3 11.6 Q-3.3 9.9 -5.0 7.65 -6.15 6.2 -7.65 4.95 -9.4 3.5 -9.4 3.1 -9.4 2.05 -8.25 -0.2 L-7.15 -2.6 Q-7.15 -5.65 -8.95 -7.15 -10.0 -8.0 -13.0 -9.95 -14.55 -11.3 -14.75 -15.6 -14.95 -19.6 -17.15 -20.95 -18.8 -21.95 -21.45 -22.9 -25.55 -24.4 -29.2 -24.4 -29.85 -24.4 -29.85 -26.2 L-29.75 -28.8 Q-29.75 -32.45 -27.8 -34.15 -26.35 -35.45 -23.95 -35.45 -16.2 -33.4 -10.5 -32.85 -8.3 -32.65 -7.05 -31.25 L-1.8 -25.9 Q1.7 -22.8 3.6 -20.8 6.7 -17.45 7.8 -14.7 8.3 -13.45 8.45 -10.15 8.6 -7.05 8.95 -6.45 L11.7 -1.95 Q12.75 -0.15 12.75 1.05 11.0 5.95 11.0 8.05 L11.2 9.05 11.7 9.6 11.7 9.65 M-12.25 -24.75 L-13.2 -24.2 -13.2 -24.3 -12.25 -24.75 M-0.2 9.85 Q0.5 11.35 0.5 12.5 L-0.1 15.4 -0.75 18.7 Q-0.75 19.55 0.0 21.2 L-1.5 18.75 Q-1.5 17.1 -0.6 14.0 0.15 11.35 -0.2 9.85 M45.1 28.15 Q45.2 28.85 45.8 30.1 L45.3 32.85 45.1 34.5 Q45.1 34.8 47.0 37.95 48.9 41.1 48.9 44.4 L48.85 47.3 48.55 47.6 Q46.95 46.5 47.1 44.4 L47.6 41.25 43.85 34.45 44.25 32.8 44.6 31.15 Q44.6 30.6 40.6 24.65 L40.7 24.05 41.25 24.1 Q41.95 24.5 45.1 28.15 M3.0 -11.25 L2.4 -10.5 Q2.1 -9.95 2.1 -9.3 2.1 -8.2 4.1 -6.55 L6.5 -4.85 Q8.55 -3.55 8.55 -2.65 8.15 -1.0 8.15 1.1 L8.55 4.2 Q8.95 6.3 9.4 6.85 L10.0 7.6 10.5 4.95 9.95 3.05 Q9.4 1.75 9.45 0.0 9.55 -2.95 9.2 -4.1 9.0 -4.65 6.05 -6.6 3.25 -8.45 3.25 -9.8 L3.3 -10.65 3.25 -10.95 3.0 -11.25 M18.85 -8.1 L18.8 -7.9 Q20.0 -5.75 20.75 -2.3 L20.35 -0.75 Q19.9 0.25 19.9 0.75 19.9 2.3 22.2 4.0 22.25 4.6 22.25 3.6 21.0 1.45 21.0 0.9 L21.4 -0.7 21.75 -2.3 Q21.75 -4.55 18.85 -8.1 M29.2 -5.0 Q27.8 -6.05 27.2 -9.3 26.65 -12.5 24.9 -13.55 28.4 -13.45 29.35 -10.05 L30.0 -5.75 29.2 -5.0 M-46.65 -36.25 L-45.65 -36.05 -45.0 -35.9 Q-43.85 -35.85 -43.15 -36.9 -42.4 -37.9 -41.75 -37.9 -37.85 -37.9 -35.5 -35.95 -33.75 -34.45 -33.75 -33.15 -33.75 -32.4 -34.35 -31.75 -35.3 -30.75 -37.4 -30.75 -38.05 -30.75 -39.0 -31.6 L-40.0 -32.5 -46.4 -31.7 Q-49.0 -31.4 -49.9 -33.25 L-49.1 -35.05 Q-48.45 -36.25 -46.65 -36.25 M-17.5 -30.55 L-20.35 -32.1 -23.2 -33.15 Q-26.45 -33.15 -26.8 -30.3 L-26.65 -29.7 -26.25 -29.55 -25.85 -31.25 Q-25.6 -32.25 -22.8 -32.25 L-21.25 -30.7 Q-19.6 -29.4 -17.5 -30.4 L-17.5 -30.55 M40.85 38.75 L41.2 40.0 41.25 44.25 41.0 44.2 40.85 44.25 37.75 36.7 33.15 26.65 33.8 26.6 34.4 26.85 Q35.25 27.6 36.55 30.45 L38.1 34.5 39.45 36.6 40.85 38.75 M26.75 20.05 Q26.75 19.0 26.2 17.05 25.55 14.9 24.75 13.75 L25.3 17.7 25.65 20.35 24.9 28.9 Q24.9 31.7 27.6 34.15 L27.35 33.5 26.5 32.15 Q26.0 31.4 26.0 29.0 L26.75 20.05 M15.6 5.9 Q14.95 10.55 17.3 14.55 L19.75 18.65 19.5 19.05 Q17.85 17.5 16.05 14.35 14.3 11.3 14.3 10.15 14.3 9.5 15.6 5.9 M30.25 39.1 L30.2 39.5 29.35 46.85 29.4 47.4 29.65 47.3 Q30.75 46.6 30.95 45.85 L31.0 43.8 30.75 41.5 30.25 39.1 M25.8 52.65 L27.4 54.9 Q26.15 53.6 25.95 52.9 L25.8 52.65 M23.3 61.55 L23.25 60.9 23.35 60.15 23.65 59.95 Q25.4 62.15 25.85 63.6 L26.85 68.45 Q27.45 71.0 28.35 73.5 L29.0 75.8 28.5 77.8 Q28.0 79.3 28.0 79.8 L28.4 81.35 28.75 82.9 Q28.75 83.9 28.6 83.5 L28.3 83.6 Q27.95 83.35 27.3 82.35 L26.5 80.9 27.5 75.6 24.5 65.15 23.3 61.55 M20.0 59.65 L20.2 59.3 20.4 58.2 20.0 59.65 M37.2 69.9 L37.2 68.05 Q37.1 66.4 36.35 64.65 L35.5 63.0 35.35 63.05 35.0 63.4 Q35.7 67.3 36.5 70.5 L37.2 69.9 M29.95 90.25 L30.3 90.65 30.4 91.5 30.3 92.4 29.95 92.75 29.65 92.4 29.5 91.5 Q29.5 91.0 29.65 90.65 29.75 90.25 29.95 90.25 M49.7 59.05 L52.9 62.45 Q54.15 64.5 54.15 68.55 L53.3 71.3 52.0 74.5 Q51.9 74.5 51.9 73.5 L52.35 70.95 52.75 68.35 51.95 66.05 Q50.75 63.1 49.65 59.75 L49.7 59.05" fill="#ffffff" fill-rule="evenodd" stroke="none"/>
  </g>
</svg>
