<?xml version="1.0" encoding="UTF-8" standalone="no"?>
<svg xmlns:ffdec="https://www.free-decompiler.com/flash" xmlns:xlink="http://www.w3.org/1999/xlink" ffdec:objectType="shape" height="163.95px" width="123.15px" xmlns="http://www.w3.org/2000/svg">
  <g transform="matrix(1.0, 0.0, 0.0, 1.0, 55.15, 48.7)">
    <path d="M32.75 -39.25 L37.55 -40.35 38.2 -40.2 Q36.45 -37.55 35.05 -36.55 33.8 -35.65 30.0 -34.25 28.15 -33.6 26.0 -30.1 L23.7 -25.8 22.4 -24.2 Q22.05 -23.55 22.35 -21.3 22.45 -20.45 21.15 -17.05 19.75 -13.45 19.7 -12.65 L19.55 -4.0 Q19.55 -0.3 20.0 6.9 L20.3 6.4 Q20.65 3.55 20.8 -2.1 L21.0 -10.75 21.05 -11.15 20.8 -12.45 20.2 -13.8 24.05 -22.45 Q27.95 -31.0 28.75 -31.85 29.0 -32.15 31.85 -33.25 35.05 -34.5 36.15 -35.15 36.7 -35.45 36.8 -37.45 37.95 -39.35 43.6 -39.35 45.4 -39.35 46.9 -36.8 48.35 -34.4 48.35 -31.9 48.35 -28.15 46.15 -26.05 L42.5 -22.35 Q44.6 -24.95 47.4 -30.0 L46.55 -34.1 Q45.45 -38.1 44.0 -38.1 43.1 -38.1 36.8 -34.05 29.9 -29.7 28.6 -27.35 27.85 -25.95 26.7 -22.4 L24.85 -17.35 Q24.1 -15.8 22.85 -10.75 21.75 -6.05 21.75 -5.2 21.75 -3.6 23.0 -0.8 24.2 1.95 24.2 2.65 L23.7 6.55 Q23.35 9.95 23.9 11.15 24.65 12.75 26.8 14.85 28.65 16.6 28.65 17.5 L28.5 18.55 28.45 20.05 Q28.45 22.15 31.0 24.7 33.5 27.25 33.5 29.45 L32.7 37.15 Q32.7 37.65 35.2 39.7 L37.9 42.1 Q38.45 43.6 38.15 45.5 L37.65 48.55 Q37.5 52.25 43.1 56.25 L42.45 62.55 Q45.05 65.2 47.0 66.5 L48.95 67.6 Q49.3 67.8 49.55 73.45 49.7 76.4 50.55 77.55 L52.85 80.1 53.35 81.1 53.1 83.95 Q49.35 80.1 49.05 79.1 L46.45 70.9 Q45.45 68.45 42.3 64.8 L39.3 61.55 Q35.35 50.25 34.65 49.45 L34.25 50.6 Q34.45 47.6 32.05 38.35 29.65 28.95 28.2 27.6 L27.8 28.6 27.8 30.6 Q27.85 31.65 28.7 34.4 L31.0 41.55 30.3 41.5 30.65 48.6 30.2 48.8 Q29.95 49.0 29.95 49.65 L32.0 54.55 Q34.15 59.85 34.75 62.0 35.4 64.5 36.8 66.4 L38.85 69.15 Q38.4 71.6 38.4 72.95 38.4 75.55 39.35 80.2 40.3 85.05 41.2 86.4 42.85 88.9 44.3 92.7 L44.4 92.75 44.9 91.6 45.2 89.8 45.2 89.2 45.15 89.35 Q40.9 83.15 40.05 76.7 L39.9 70.45 Q41.45 71.8 41.85 73.5 L42.15 75.4 42.15 75.15 Q43.65 80.35 45.85 83.0 47.15 84.55 47.15 89.15 47.15 92.95 48.45 97.0 49.7 101.0 49.7 102.75 49.7 105.3 47.55 105.3 45.9 105.3 45.2 101.5 L44.0 94.15 Q43.15 90.4 40.1 87.1 L37.25 83.85 37.75 80.4 38.2 76.95 Q38.2 76.0 36.25 73.95 34.25 71.8 34.05 70.1 L35.15 66.1 Q32.15 66.8 32.15 68.9 32.15 71.45 34.3 74.3 35.35 75.75 36.5 76.8 L36.45 79.4 Q36.25 82.65 36.35 85.55 36.35 86.05 37.4 86.85 38.3 87.6 38.1 89.0 37.85 91.6 38.15 92.8 38.4 93.85 39.6 95.15 40.6 96.3 40.6 97.65 L40.25 99.7 Q39.75 101.35 38.85 102.7 38.0 98.45 33.95 85.4 31.3 76.85 31.3 69.25 31.3 66.1 32.0 63.55 L32.7 61.2 Q32.7 59.55 29.85 56.65 27.0 53.75 27.0 50.95 27.0 49.7 27.6 46.65 L28.1 43.25 Q28.1 40.35 24.2 34.15 20.25 27.95 20.25 25.0 20.25 23.65 21.35 20.95 L22.4 17.55 Q22.4 15.15 20.1 11.85 L17.75 8.5 Q17.6 6.1 18.4 -2.5 18.4 -3.5 17.0 -6.4 15.6 -9.3 15.6 -9.95 15.6 -10.95 16.05 -11.4 L16.35 -12.35 16.65 -14.05 14.0 -23.35 Q14.0 -24.9 16.25 -27.25 17.85 -28.45 17.9 -27.6 16.7 -25.15 14.95 -24.5 L16.0 -21.45 16.6 -19.4 16.55 -19.15 20.2 -25.5 23.95 -32.0 Q24.9 -33.15 28.7 -34.5 31.7 -35.55 32.75 -39.25 M63.4 73.9 L63.9 72.6 Q64.5 73.4 64.55 74.75 L63.4 73.9 M60.85 65.85 L59.5 64.6 Q60.4 58.1 55.9 54.05 L52.6 50.95 Q51.05 49.05 51.05 46.5 51.05 45.8 51.4 44.7 51.75 43.65 52.0 43.55 L52.25 44.05 52.45 44.55 Q53.25 49.65 53.75 49.9 55.95 51.1 57.15 52.6 59.45 55.45 60.2 57.45 61.15 59.8 61.15 63.5 L60.85 65.85 M43.8 28.35 L43.65 28.05 43.6 27.25 Q43.6 25.75 43.95 24.0 44.3 21.9 42.25 18.55 L39.35 13.65 39.6 11.25 40.85 7.3 41.9 3.0 42.35 3.15 42.85 4.05 43.15 5.55 41.9 9.4 Q40.65 12.9 40.65 14.1 40.65 15.0 43.4 17.55 46.15 20.05 46.15 22.65 L45.4 25.1 43.95 28.5 43.8 28.35 M43.8 -27.3 L43.7 -27.45 Q42.65 -27.6 39.55 -25.95 L36.65 -24.15 36.7 -22.8 35.65 -22.8 Q33.25 -22.5 31.7 -21.85 33.85 -23.6 37.85 -27.7 41.3 -30.95 43.35 -30.95 L44.2 -30.8 44.5 -30.7 44.8 -28.3 44.75 -27.5 43.8 -27.3 M29.9 -19.45 L29.8 -18.15 29.9 -16.55 29.2 -16.65 28.9 -16.95 29.9 -19.45 M21.6 56.45 L21.55 56.5 Q19.3 48.05 18.9 47.8 18.2 48.5 17.75 48.5 L17.6 50.3 Q17.6 54.5 18.5 58.3 19.25 61.45 19.0 64.2 18.8 66.4 22.4 75.4 L22.2 78.95 22.0 84.25 Q22.25 87.1 23.8 91.1 L26.6 97.5 28.65 103.3 29.75 105.55 32.7 111.65 Q32.7 113.2 31.1 113.2 29.8 113.2 28.85 110.5 28.0 108.2 27.7 104.9 27.55 102.95 25.95 100.85 L24.15 98.55 Q22.1 93.2 19.9 91.65 22.3 94.45 22.3 97.55 L21.85 104.8 Q21.25 109.85 20.2 111.1 19.0 110.0 18.9 105.2 18.8 99.15 17.4 95.35 16.6 93.05 15.5 91.9 L14.0 90.4 Q12.55 88.55 12.55 78.85 12.55 75.75 8.95 69.5 5.3 63.25 5.3 59.6 L5.6 56.85 5.9 53.8 5.7 53.35 3.2 47.85 Q1.65 44.35 1.65 43.75 L2.25 39.2 2.8 35.7 Q2.8 34.8 1.85 32.75 0.85 30.55 0.0 29.9 -0.3 30.1 -0.4 30.9 L0.75 33.95 Q0.75 35.2 -1.2 39.05 -3.15 42.9 -3.15 44.05 L-2.65 46.4 -0.85 49.55 Q0.5 51.8 0.5 52.4 L-0.8 56.75 -2.15 60.95 Q-2.15 62.75 -0.9 65.0 0.4 67.4 0.55 68.8 L-1.3 76.3 -1.6 78.65 Q-1.6 81.2 -0.5 83.4 L0.55 85.3 0.0 87.05 Q-0.6 88.95 -0.6 90.05 -0.6 91.9 0.6 94.05 1.9 96.4 2.05 97.85 L0.8 102.65 Q0.9 104.3 1.8 106.65 2.65 108.9 2.65 109.7 2.65 113.95 -0.65 113.95 -2.0 113.95 -2.5 111.85 -2.9 110.1 -2.9 105.75 L-4.1 102.9 Q-5.35 100.25 -5.35 96.65 L-4.7 93.95 -4.1 91.2 Q-4.1 88.1 -5.55 81.2 L-7.0 74.85 Q-7.0 72.3 -6.15 69.35 L-5.35 65.95 Q-4.95 64.35 -5.95 62.3 -7.3 59.65 -7.5 57.1 L-7.55 52.2 Q-7.5 48.9 -7.6 47.35 L-9.1 48.7 Q-8.4 59.1 -7.3 61.85 L-6.6 62.95 Q-6.35 63.25 -6.35 64.0 -6.35 64.5 -6.7 65.9 L-6.95 67.45 -8.4 78.2 -8.0 81.0 -7.6 83.8 Q-7.6 86.85 -8.85 89.35 L-10.1 91.75 -9.95 92.55 -9.7 93.15 -9.2 95.05 Q-8.85 96.4 -8.85 97.0 -8.85 97.5 -9.6 100.3 L-10.35 103.6 -9.3 105.85 Q-8.25 107.75 -8.25 109.4 -8.25 112.3 -10.5 112.3 L-11.6 112.2 Q-11.6 111.05 -12.3 109.4 -13.0 107.75 -13.0 104.9 L-12.35 101.25 Q-11.75 98.4 -11.75 95.55 L-13.55 90.5 Q-15.4 85.1 -15.4 81.95 L-14.75 78.15 -14.1 75.35 Q-13.3 72.3 -14.45 68.0 -15.85 62.85 -15.85 62.0 L-15.45 59.45 -15.1 56.9 -17.35 50.8 Q-17.35 50.05 -16.55 48.55 L-15.35 46.1 -16.6 41.35 Q-15.1 39.85 -15.1 36.9 -15.1 34.3 -15.85 33.35 L-16.6 32.25 -16.25 30.65 -15.85 29.3 -16.05 28.1 -16.8 28.1 -17.35 29.55 Q-17.85 30.8 -17.85 32.15 L-16.35 36.8 -17.1 38.7 Q-17.85 40.5 -17.85 41.25 L-17.2 42.6 Q-16.6 44.15 -16.6 45.65 -16.6 47.2 -17.6 49.0 L-18.6 50.95 -17.45 53.35 Q-16.35 55.55 -16.35 57.0 L-16.7 59.55 -17.1 62.05 -16.15 66.25 Q-15.2 70.4 -15.25 74.3 L-14.75 74.35 -18.65 79.2 Q-19.55 80.55 -19.55 83.15 L-19.05 86.35 -18.6 89.55 Q-18.6 92.1 -19.45 93.85 L-20.35 95.15 -19.7 96.05 Q-19.05 97.4 -19.05 99.9 -19.05 105.55 -19.55 108.0 -20.15 110.8 -21.65 110.8 -22.1 110.8 -22.85 109.65 -23.8 108.2 -23.8 106.15 -23.8 105.3 -22.95 103.15 -22.1 101.05 -22.1 100.15 -22.1 97.55 -23.0 95.95 L-23.9 94.75 Q-22.15 89.2 -22.15 87.85 L-23.65 79.55 Q-23.65 76.85 -21.85 72.8 L-20.05 68.45 -20.3 67.2 -20.95 66.1 -20.6 65.85 -22.85 60.4 Q-22.85 59.5 -21.95 57.35 -21.1 55.15 -21.1 54.15 -21.1 53.65 -21.6 52.2 L-22.1 50.2 -21.6 48.8 Q-21.1 47.9 -21.1 47.4 -21.1 47.2 -22.25 45.3 L-23.25 46.4 -23.4 48.45 Q-23.4 49.65 -22.85 51.3 -22.35 52.9 -22.35 53.9 L-24.1 60.4 -22.35 65.9 -20.9 69.05 -21.95 71.8 Q-23.2 74.9 -24.1 79.15 -25.85 87.45 -26.3 94.5 L-26.35 94.85 Q-26.6 96.3 -28.3 100.5 L-27.9 103.25 -27.55 106.0 -28.0 107.6 Q-28.6 109.3 -29.5 110.1 L-29.75 109.4 -29.85 108.5 -29.45 106.35 -29.1 104.2 Q-29.1 103.85 -31.6 97.9 L-30.6 92.35 Q-30.35 90.0 -31.95 86.7 -33.65 83.25 -33.65 82.4 -33.65 81.45 -32.55 78.3 -31.6 75.5 -31.95 73.7 -31.85 73.15 -32.3 71.6 L-32.75 69.55 -32.0 67.95 -31.3 66.5 Q-31.3 65.6 -32.1 63.65 L-32.95 61.8 -35.15 66.9 -34.65 68.5 Q-34.15 69.55 -34.15 70.05 -34.15 70.85 -34.6 72.25 -35.25 74.15 -36.35 75.1 L-36.55 73.25 Q-35.3 71.15 -35.3 70.2 -35.3 69.7 -35.8 68.55 L-36.3 66.85 -33.8 60.15 Q-35.3 54.55 -35.3 53.55 -35.3 52.8 -34.25 50.55 L-33.75 51.75 -32.65 60.75 -32.35 60.55 -31.55 58.7 Q-31.3 58.0 -31.3 57.2 -31.3 56.7 -31.8 55.25 L-32.3 53.3 Q-32.3 52.15 -31.15 50.0 -30.0 47.85 -30.0 45.3 L-31.25 40.95 Q-29.0 35.3 -29.0 34.5 L-31.0 28.5 -30.15 25.9 -28.9 22.95 Q-28.75 22.55 -28.75 21.95 L-30.5 15.45 Q-30.5 13.05 -28.9 11.75 -27.3 10.45 -27.3 7.85 -27.3 7.0 -28.15 4.9 L-29.0 2.6 Q-29.0 1.6 -28.1 -0.3 -27.25 -2.2 -27.25 -3.0 -27.25 -3.8 -27.7 -5.3 -28.25 -7.05 -29.0 -8.2 -20.95 -20.4 -19.05 -25.0 -18.1 -27.3 -18.3 -27.8 -14.5 -26.45 -13.05 -29.65 L-11.95 -32.45 Q-11.25 -34.05 -10.2 -34.55 L-10.45 -34.1 -10.25 -31.65 -9.9 -29.55 Q-9.9 -29.2 -11.1 -28.0 L-12.5 -26.75 -11.75 -26.05 -9.35 -27.8 -13.6 -23.25 Q-16.3 -20.5 -16.55 -18.15 -16.75 -16.15 -18.45 -14.7 -20.45 -12.95 -20.85 -12.05 L-19.6 -6.7 Q-19.7 -5.4 -21.2 -3.25 -22.65 -1.15 -22.65 -0.55 L-22.25 1.7 Q-21.9 3.4 -21.9 3.9 L-23.25 5.95 Q-24.65 7.7 -24.65 8.9 -24.65 10.0 -24.0 11.5 -23.4 13.0 -23.4 14.15 L-24.8 17.5 -26.25 20.7 -24.75 27.1 Q-24.85 29.0 -26.75 33.9 L-25.5 39.55 -26.75 47.85 Q-28.15 56.25 -29.0 57.15 L-28.0 62.55 -29.05 65.05 -30.15 67.95 Q-30.15 70.1 -29.55 70.65 -28.6 71.45 -28.2 72.55 L-27.95 72.95 Q-27.8 73.25 -27.8 73.85 L-29.75 77.8 -28.25 81.95 Q-28.25 83.0 -29.25 84.15 L-30.25 85.25 -29.1 90.85 -29.45 93.25 -29.85 95.65 Q-29.85 96.65 -29.65 96.3 L-28.8 96.25 Q-28.35 92.45 -28.35 90.75 L-28.8 88.25 -29.3 85.75 -27.25 81.85 -28.75 77.8 -27.7 76.3 Q-26.65 74.75 -26.65 73.85 L-27.7 71.55 Q-28.8 69.1 -28.8 67.8 L-26.5 62.45 -27.35 57.3 -25.75 45.4 Q-23.15 45.55 -22.55 41.1 L-22.1 31.85 Q-21.75 25.3 -20.2 21.35 L-18.75 17.5 -19.25 14.6 -19.8 12.25 Q-19.8 10.45 -17.45 3.05 -15.15 -4.3 -15.15 -5.25 -15.15 -8.35 -9.25 -14.9 -3.35 -21.45 -3.35 -22.65 L-2.85 -23.75 Q-2.35 -24.35 -2.35 -24.85 -2.35 -25.85 -2.5 -25.3 L-3.0 -25.4 Q-4.4 -23.55 -8.15 -20.1 -11.85 -16.7 -13.4 -14.55 L-13.4 -16.25 Q-14.4 -20.25 -10.55 -24.05 -6.05 -28.55 -5.65 -30.95 L-6.25 -31.0 -8.6 -28.85 -8.5 -29.65 -9.05 -31.15 -9.5 -32.75 Q-9.5 -34.15 -0.7 -37.35 -1.4 -36.55 -1.9 -32.4 -2.3 -28.85 -5.25 -27.0 L-5.25 -26.85 -4.7 -26.75 Q-2.3 -25.95 -1.25 -27.1 -0.55 -27.85 0.0 -30.25 1.25 -35.9 4.6 -36.6 7.9 -37.25 9.75 -40.05 11.45 -42.55 13.0 -42.55 L20.0 -42.25 Q20.25 -39.85 18.1 -39.85 L14.65 -40.3 10.8 -34.8 10.85 -34.2 10.85 -34.35 10.9 -34.15 11.55 -34.05 Q12.05 -34.05 13.05 -35.6 14.2 -37.4 15.3 -37.95 L16.85 -38.25 18.6 -38.25 Q19.7 -38.25 21.8 -41.8 L23.65 -41.35 25.45 -40.95 Q26.45 -40.95 27.25 -40.15 L26.5 -40.2 Q25.0 -40.2 23.2 -39.2 20.95 -38.0 20.3 -36.05 L19.85 -33.9 15.9 -31.45 Q9.6 -27.65 6.5 -19.75 L3.85 -10.65 4.15 -10.15 4.6 -10.2 Q6.9 -6.5 7.5 -0.95 7.8 1.85 7.6 4.1 L7.85 4.2 8.85 -3.8 Q8.7 -4.4 7.35 -6.15 6.15 -7.7 6.15 -8.95 6.15 -11.1 7.55 -15.55 9.1 -20.55 10.9 -22.8 11.75 -21.35 12.1 -19.15 L12.25 -17.1 Q12.25 -15.2 11.15 -13.45 10.05 -11.7 10.05 -10.55 L11.45 -7.05 Q12.85 -3.55 12.85 -0.85 L12.8 1.35 Q12.6 2.75 11.95 2.75 11.45 2.75 11.7 2.35 11.95 1.9 11.45 1.9 10.45 1.9 10.45 7.3 10.45 14.7 10.8 17.85 11.1 20.65 12.05 23.4 L12.1 23.45 Q12.6 22.8 13.05 21.05 L13.45 18.5 Q13.45 17.75 12.45 14.25 L11.45 10.1 11.75 7.65 12.05 8.9 Q12.8 11.75 15.25 18.0 L14.4 25.8 Q14.4 30.15 18.25 36.95 22.1 43.75 22.1 46.2 L21.6 56.45 M-13.5 -34.65 L-14.45 -33.5 -16.75 -33.4 Q-16.6 -32.6 -16.6 -31.6 -16.6 -29.8 -16.95 -29.25 -17.55 -28.25 -19.55 -28.25 L-19.75 -28.8 Q-19.55 -29.1 -18.9 -31.8 L-18.2 -34.7 Q-15.85 -35.0 -13.75 -34.7 L-13.5 -34.65 M-30.4 -7.35 Q-30.7 -6.15 -31.25 -5.9 -31.6 -5.7 -31.6 -4.2 L-29.8 0.8 Q-29.8 1.3 -30.55 2.3 -31.3 3.3 -31.3 3.8 L-31.05 5.25 -30.55 7.05 -30.3 7.7 -30.05 9.05 Q-30.05 10.2 -31.0 11.3 L-32.65 12.5 -32.9 12.6 -33.0 12.0 Q-33.0 11.6 -32.2 10.85 -31.4 10.1 -31.4 8.75 L-32.0 6.25 -32.65 3.75 -31.85 2.95 Q-31.1 1.9 -31.1 0.1 L-31.95 -1.45 Q-32.85 -3.15 -32.85 -4.15 -32.85 -6.05 -30.55 -7.25 L-30.4 -7.35 M-23.0 -10.6 L-23.15 -10.45 Q-25.1 -10.2 -25.1 -7.05 -25.1 -5.75 -24.55 -3.75 L-24.0 -1.5 -23.5 -2.25 -23.05 -3.05 Q-22.9 -3.45 -22.9 -4.1 -22.9 -4.6 -23.35 -5.5 L-23.85 -6.9 Q-23.85 -7.9 -23.0 -10.6 M-5.65 -14.65 Q-8.15 -12.85 -8.2 -10.35 -8.2 -8.75 -9.85 -6.8 -11.45 -4.9 -11.45 -3.4 -11.4 0.85 -12.05 3.7 L-12.75 7.2 Q-12.95 10.65 -14.25 13.6 -15.5 16.4 -15.5 17.7 -15.5 19.35 -12.75 25.3 L-14.0 29.6 -12.0 34.9 -13.75 40.65 Q-13.7 41.85 -13.05 43.5 -12.5 45.1 -12.5 46.5 L-13.35 48.55 -14.25 50.8 Q-14.25 52.5 -13.25 54.35 -12.25 56.2 -12.25 56.8 L-12.85 59.0 -13.5 61.2 Q-13.5 62.6 -11.25 67.2 L-12.5 71.8 -12.0 73.55 Q-11.5 74.75 -11.5 75.25 L-12.1 77.4 -12.75 79.5 Q-12.75 80.75 -11.85 81.65 L-10.8 82.65 -10.75 82.65 -11.25 81.3 -11.75 79.6 Q-11.75 78.0 -11.05 76.6 L-10.4 75.3 Q-10.4 74.8 -10.85 73.55 L-11.35 71.8 -10.75 69.9 Q-10.15 68.1 -10.15 67.0 L-11.25 64.75 Q-12.4 62.35 -12.4 61.15 -12.4 60.25 -11.75 59.15 -11.15 58.0 -11.15 57.15 L-12.15 54.85 Q-13.15 52.65 -13.15 50.65 L-12.55 48.25 Q-11.9 46.25 -11.8 45.4 L-10.3 38.4 -8.9 31.7 Q-8.9 31.2 -9.25 30.1 L-9.65 28.5 -8.4 24.55 Q-8.4 23.25 -9.5 20.75 L-10.65 17.6 -9.75 15.65 Q-8.9 13.4 -8.9 11.15 L-9.25 9.15 -9.65 7.1 Q-9.65 4.95 -7.45 0.55 L-4.4 -5.25 Q-3.85 -6.4 -3.9 -8.1 L-4.05 -10.65 -3.1 -12.35 Q-1.85 -14.3 -1.3 -15.4 -0.4 -10.2 -0.4 -8.8 -0.4 -8.25 -2.05 -3.6 -3.75 1.1 -3.75 2.05 -3.75 5.15 -1.85 9.2 L0.0 12.7 Q0.0 14.35 -0.85 15.1 -1.75 15.8 -1.75 17.15 -1.75 19.35 1.1 24.4 L4.4 30.2 Q5.25 32.7 5.05 35.65 L4.6 41.6 Q5.25 40.9 5.95 36.0 6.65 31.25 6.65 28.05 6.65 24.3 5.35 21.1 4.0 17.7 3.9 15.0 3.75 10.5 2.55 6.75 L1.4 3.5 Q1.4 1.5 2.15 -2.4 2.9 -3.55 2.9 -4.55 2.9 -7.3 2.35 -10.95 L1.8 -14.8 Q1.8 -16.25 5.4 -22.85 9.35 -30.1 11.9 -31.4 10.9 -31.4 10.95 -31.95 L7.6 -31.65 Q8.0 -31.95 8.5 -33.7 9.1 -35.75 10.15 -37.25 7.1 -38.25 6.75 -36.2 6.85 -33.45 6.15 -32.5 L5.15 -31.95 Q4.5 -31.65 3.8 -29.35 3.25 -27.2 2.8 -26.55 L1.95 -26.3 Q1.2 -26.05 0.5 -24.6 L-0.6 -21.5 Q-1.3 -20.8 -2.45 -20.45 L-4.0 -20.05 -3.45 -19.1 Q-3.15 -18.5 -3.15 -17.9 -3.15 -16.4 -5.65 -14.65 M6.3 -30.95 Q5.5 -30.15 4.95 -28.85 L5.25 -30.65 6.3 -30.95 M28.35 -3.7 Q28.85 -3.25 29.15 -3.25 29.6 -0.45 27.9 1.95 26.1 4.6 26.1 5.55 26.1 5.95 27.65 9.0 29.3 12.2 29.45 14.55 L29.15 15.9 28.2 14.75 Q27.5 13.6 27.3 11.75 L26.05 8.0 24.9 5.0 26.5 2.1 Q28.05 -0.6 28.05 -1.95 L27.75 -3.3 27.55 -4.15 28.35 -3.7 M45.0 -33.35 L44.85 -33.15 44.0 -34.75 Q42.3 -34.35 41.15 -32.45 40.05 -30.55 38.0 -30.15 L40.85 -33.9 Q42.35 -35.5 43.85 -35.5 44.25 -35.5 45.0 -33.35 M26.65 22.4 Q26.65 20.15 25.85 19.2 L23.35 16.75 Q24.2 18.25 24.9 20.3 L25.55 23.05 25.3 26.95 Q25.15 30.15 25.35 30.3 25.9 29.35 26.3 26.2 L26.65 22.4 M14.5 5.4 L14.8 9.05 Q15.15 11.4 16.25 12.7 17.55 14.2 17.55 15.15 L17.1 16.9 16.7 18.0 16.25 14.25 Q16.1 13.65 14.95 11.95 13.95 10.5 13.95 9.3 L14.3 5.4 14.5 5.4 M6.75 3.0 Q5.2 4.15 4.55 6.2 3.6 9.1 5.35 12.25 L6.45 12.6 Q6.85 11.9 6.85 10.65 L6.5 7.85 Q6.2 5.4 6.3 4.0 L6.75 3.0 M14.3 57.15 Q12.75 51.7 12.75 51.0 L13.55 42.3 12.2 36.65 Q10.85 31.35 10.85 29.5 L10.9 23.9 Q10.8 23.2 9.25 21.1 7.8 19.15 7.8 17.45 L9.2 12.15 Q9.2 11.55 8.55 11.1 L7.9 10.8 7.85 11.95 7.3 15.3 7.0 17.35 8.25 21.65 Q9.45 26.15 9.1 29.0 8.5 33.8 9.95 35.75 11.7 38.05 11.7 41.6 L10.4 48.45 Q10.4 49.6 11.95 54.15 13.5 58.7 13.5 59.85 L13.45 65.8 Q13.55 70.85 14.2 72.2 16.05 75.95 16.2 78.25 16.35 81.55 16.65 82.55 L16.85 82.25 16.25 87.4 Q16.25 87.7 17.4 89.0 L17.2 84.5 Q17.2 84.0 18.25 82.45 19.25 80.9 19.25 78.7 L18.35 75.3 Q17.3 72.2 16.3 70.55 L14.55 58.45 16.3 62.3 Q16.65 63.15 16.65 62.15 L16.15 42.9 Q15.1 44.15 14.75 46.85 14.45 49.55 15.05 52.55 L14.3 57.15 M18.35 27.7 Q19.7 31.6 22.9 37.6 25.2 41.95 25.2 44.3 L25.0 45.85 24.4 47.4 24.6 44.9 Q24.6 42.35 21.6 37.05 18.45 31.6 18.3 29.3 L18.35 27.7 M6.8 46.4 Q6.0 48.3 6.0 49.35 6.0 50.3 7.4 52.6 8.75 54.95 8.75 55.65 L8.4 61.6 Q8.55 66.65 11.1 68.45 L11.5 67.35 11.6 66.8 10.45 64.3 9.25 62.3 9.8 54.55 8.5 52.45 7.7 51.55 Q7.7 50.6 8.6 44.3 8.4 44.0 8.15 44.05 L7.8 44.05 6.8 46.4 M28.45 60.25 L28.5 60.3 27.1 60.0 Q26.5 59.8 26.05 58.85 L25.0 55.9 24.1 53.05 26.5 55.8 Q27.7 57.2 28.45 60.25 M21.35 65.1 L22.3 66.1 23.45 69.1 24.3 71.95 Q24.2 72.45 24.05 72.0 L21.35 65.1 M33.65 65.35 L33.85 63.4 33.35 66.1 33.65 65.35 M5.25 73.25 L6.5 77.05 8.7 81.45 8.5 86.55 8.5 86.75 7.8 86.8 Q6.65 86.8 6.35 85.2 L6.25 82.6 5.9 80.6 5.4 78.85 4.45 77.45 3.8 77.05 Q3.25 76.45 3.25 71.5 3.25 70.85 3.4 70.4 L4.0 69.25 5.25 73.25 M10.1 93.9 L9.5 89.15 10.25 89.1 Q10.9 89.9 11.45 91.6 12.5 94.75 12.5 99.55 12.5 103.25 11.65 105.15 10.95 106.8 9.85 106.8 L9.05 106.6 8.9 106.35 Q8.95 105.6 9.7 103.35 10.4 101.25 10.4 97.65 L10.1 93.9 M18.25 92.4 L16.75 90.85 Q14.95 88.05 14.9 79.3 11.95 82.65 14.75 88.55 17.3 93.85 19.35 94.25 19.05 93.2 18.25 92.4 M31.55 84.2 L30.05 82.65 Q29.2 81.35 29.35 78.75 L29.4 76.9 Q30.35 78.0 31.1 80.95 31.75 83.55 31.55 84.2 M-3.15 7.95 Q-3.15 6.8 -4.05 4.9 L-5.45 2.6 Q-5.15 8.65 -6.4 11.45 -7.75 14.5 -7.75 15.8 L-5.95 23.0 -4.15 30.15 Q-4.15 30.6 -5.9 33.85 -7.65 37.1 -7.65 38.8 L-7.35 41.6 -6.5 45.3 -4.85 49.05 Q-3.75 51.4 -3.75 51.9 L-4.35 53.1 -5.0 55.05 Q-5.0 56.55 -4.0 61.9 L-2.75 68.3 -2.45 66.7 Q-2.15 65.05 -2.15 64.05 -2.15 62.4 -3.0 58.9 L-3.9 55.15 -3.4 53.95 -2.65 52.2 Q-6.25 42.35 -6.25 38.95 L-5.8 38.1 Q-5.25 37.05 -4.85 35.4 L-2.75 28.2 -4.5 24.45 Q-6.25 20.55 -6.25 15.95 -6.25 14.8 -4.7 12.5 -3.15 10.2 -3.15 7.95 M0.0 109.6 L0.1 108.65 Q0.1 107.45 -0.9 104.6 L-1.9 101.15 Q-1.9 100.55 -1.35 99.8 -0.85 99.05 -0.85 96.2 -0.85 93.9 -1.65 90.6 L-2.5 86.6 -1.5 81.85 Q-1.5 80.15 -2.15 77.45 -2.95 74.2 -4.1 72.5 -4.9 73.7 -4.9 74.9 -2.9 81.05 -2.9 81.55 L-3.4 84.1 -3.9 86.65 -2.0 98.1 Q-2.0 98.6 -2.5 99.6 L-3.0 101.05 Q-3.0 101.85 -2.05 105.3 L-0.5 110.0 0.0 109.6 M47.15 101.35 L46.9 99.45 45.95 99.25 45.9 99.05 45.85 99.6 Q45.85 100.8 46.8 101.55 L47.15 101.35 M-39.8 19.1 L-39.5 18.35 Q-38.75 21.05 -38.75 22.75 -38.75 25.15 -39.3 26.1 L-41.65 30.65 -42.7 30.6 -42.9 28.4 Q-42.9 27.45 -41.75 26.2 -40.55 24.9 -40.3 23.35 L-39.8 19.1 M-31.95 24.4 L-32.4 28.4 -31.4 34.1 -31.7 38.4 -32.0 38.55 -32.75 39.4 Q-33.3 38.6 -33.3 37.6 L-32.95 35.9 -32.55 34.3 -33.55 28.45 -33.4 24.65 Q-33.15 22.65 -32.25 22.15 -31.8 22.85 -31.95 24.4 M-40.75 36.05 Q-40.75 36.55 -41.25 37.4 L-41.75 38.75 Q-41.75 39.25 -41.15 40.55 L-40.55 42.3 -40.6 43.55 -40.9 44.1 -41.25 44.25 -42.4 41.45 -43.25 38.65 -42.9 36.9 -42.3 35.0 -41.1 34.95 -40.8 35.35 -40.75 36.05 M-41.9 48.8 L-44.9 50.85 -43.4 53.2 -42.65 54.65 Q-42.65 55.15 -43.35 56.75 -44.2 58.65 -45.0 59.3 -45.75 59.45 -45.75 58.45 L-45.0 56.8 -44.3 55.35 -45.4 53.7 Q-46.55 51.95 -46.55 51.2 L-46.25 50.45 -42.75 47.55 -41.9 48.8 M-45.2 66.5 L-46.95 66.5 -46.95 62.8 -45.2 62.8 -45.2 66.5 M-43.9 73.45 Q-43.9 74.95 -44.45 75.3 L-47.05 76.15 -47.75 76.6 -48.4 75.4 Q-47.3 75.15 -46.75 74.7 -45.8 73.9 -45.85 70.6 L-45.25 69.6 Q-44.4 70.45 -43.9 73.45 M-46.8 79.6 L-46.65 81.15 -47.05 82.05 -48.0 83.35 -48.05 83.5 -48.7 83.55 -49.25 83.55 -49.3 82.95 Q-49.3 82.3 -48.7 82.35 -48.1 82.4 -48.05 80.15 L-48.25 78.8 -47.0 78.8 -46.8 79.6 M-49.15 83.5 L-49.25 83.45 -49.25 83.55 -49.15 83.5 M-18.0 66.25 L-17.5 63.05 -18.6 63.35 Q-19.55 64.05 -19.4 66.2 L-18.4 70.8 Q-18.15 72.45 -20.05 73.5 -22.15 74.65 -22.15 76.7 -22.15 78.2 -21.5 80.3 L-21.25 80.0 Q-17.1 73.95 -17.0 71.35 L-18.0 66.25" fill="#ebe8e0" fill-rule="evenodd" stroke="none"/>
    <path d="M-36.25 98.05 L-36.55 98.65 -37.6 100.15 -39.75 98.35 Q-40.5 97.5 -40.5 96.15 -37.75 90.35 -37.75 89.05 -37.75 88.9 -40.5 84.3 -40.5 83.7 -39.25 81.6 L-37.65 78.7 Q-37.25 78.05 -37.25 77.05 -37.25 75.8 -38.75 72.55 L-40.25 69.0 Q-39.1 67.25 -38.0 64.9 -35.75 60.2 -35.75 56.9 -35.75 56.3 -36.75 53.05 L-37.75 49.9 -36.25 44.0 -35.5 40.2 Q-38.25 31.7 -38.25 30.0 -38.25 27.65 -37.8 27.25 L-36.85 27.3 Q-35.5 27.65 -35.5 21.35 L-36.5 16.45 -34.55 8.05 -34.5 7.15 -36.35 11.1 Q-38.0 14.65 -38.0 16.55 L-37.5 18.9 Q-37.0 20.75 -37.0 21.25 L-38.35 24.9 Q-39.75 28.7 -39.75 30.0 -39.75 31.8 -38.35 36.0 L-37.0 39.95 -38.1 43.8 Q-39.25 47.95 -39.25 49.95 L-38.25 53.25 -37.25 57.05 Q-37.25 59.65 -39.5 63.25 -41.75 66.85 -41.75 69.05 -41.75 71.9 -40.25 73.3 -38.75 74.65 -38.75 77.1 L-39.35 80.1 Q-40.45 83.35 -42.75 84.9 L-43.25 85.55 Q-42.9 84.0 -43.0 82.35 -43.1 80.2 -44.1 79.55 -45.05 80.8 -47.9 86.65 -50.75 92.45 -51.45 93.35 L-52.35 92.55 -52.8 92.15 -52.3 90.85 Q-51.8 90.0 -51.8 89.5 L-52.7 87.8 Q-53.6 85.95 -53.6 85.05 -53.6 83.95 -51.8 82.65 -50.1 81.45 -50.3 79.0 L-51.3 74.6 Q-50.6 73.4 -48.9 71.65 -47.55 70.25 -47.55 69.85 L-48.4 68.25 Q-49.25 66.3 -49.25 64.05 L-48.25 60.75 -47.25 57.45 -48.75 51.15 Q-48.75 50.75 -47.0 48.5 -45.25 46.2 -45.25 44.8 -45.25 44.3 -45.6 42.9 L-46.0 41.0 -44.75 37.8 Q-43.5 35.15 -43.5 34.65 -45.25 29.6 -45.25 28.6 L-44.2 27.55 Q-43.0 26.15 -42.4 24.15 -42.15 23.25 -42.45 21.25 L-42.8 18.75 Q-42.8 17.45 -41.3 15.4 -39.8 13.3 -39.8 12.35 -39.8 11.85 -40.15 10.45 L-40.55 8.55 Q-40.55 6.45 -38.55 5.05 L-36.15 3.75 -35.6 -0.6 -35.15 -3.75 Q-35.15 -4.25 -35.5 -5.8 L-35.9 -7.9 Q-35.9 -8.8 -34.3 -11.75 L-32.75 -14.6 -33.5 -16.3 Q-34.25 -18.15 -34.25 -18.8 L-31.55 -21.75 Q-28.75 -25.0 -28.15 -26.65 -27.5 -28.35 -26.0 -28.85 -23.5 -29.65 -22.85 -30.1 -20.55 -31.7 -20.15 -33.0 L-19.45 -36.5 Q-19.2 -37.2 -17.15 -37.55 L-13.8 -38.3 Q-13.25 -38.55 -11.55 -40.95 L-9.9 -43.3 -7.4 -42.9 -4.9 -42.5 Q-2.5 -42.5 -1.1 -43.35 -0.45 -43.75 0.05 -44.9 0.45 -45.85 1.1 -45.85 L3.35 -45.4 5.6 -45.0 7.95 -46.0 Q9.8 -47.05 10.2 -47.05 12.25 -47.05 13.9 -46.25 L15.4 -45.5 17.8 -45.85 20.2 -46.2 23.25 -46.5 Q23.3 -47.2 22.35 -47.2 25.5 -47.2 27.35 -45.5 30.15 -42.95 34.55 -41.35 32.35 -41.3 31.45 -40.2 L29.75 -38.35 26.6 -38.8 Q23.8 -38.8 22.8 -37.6 22.45 -37.15 21.65 -34.7 20.15 -29.9 12.2 -28.15 L11.5 -25.4 10.9 -22.8 Q9.1 -20.55 7.55 -15.55 6.15 -11.1 6.15 -8.95 6.15 -7.7 7.35 -6.15 8.7 -4.4 8.85 -3.8 L7.85 4.2 7.6 4.1 Q7.8 1.85 7.5 -0.95 6.9 -6.5 4.6 -10.2 L4.15 -10.15 3.85 -10.65 6.5 -19.75 Q9.6 -27.65 15.9 -31.45 L19.85 -33.9 20.3 -36.05 Q20.95 -38.0 23.2 -39.2 25.0 -40.2 26.5 -40.2 L27.25 -40.15 Q26.45 -40.95 25.45 -40.95 L23.65 -41.35 21.8 -41.8 Q19.7 -38.25 18.6 -38.25 L16.85 -38.25 15.3 -37.95 Q14.2 -37.4 13.05 -35.6 12.05 -34.05 11.55 -34.05 L10.9 -34.15 10.85 -34.35 10.85 -34.2 10.8 -34.8 14.65 -40.3 18.1 -39.85 Q20.25 -39.85 20.0 -42.25 L13.0 -42.55 Q11.45 -42.55 9.75 -40.05 7.9 -37.25 4.6 -36.6 1.25 -35.9 0.0 -30.25 -0.55 -27.85 -1.25 -27.1 -2.3 -25.95 -4.7 -26.75 L-5.25 -26.85 -5.25 -27.0 Q-2.3 -28.85 -1.9 -32.4 -1.4 -36.55 -0.7 -37.35 -9.5 -34.15 -9.5 -32.75 L-9.05 -31.15 -8.5 -29.65 -8.6 -28.85 -9.35 -27.8 -11.75 -26.05 -12.5 -26.75 -11.1 -28.0 Q-9.9 -29.2 -9.9 -29.55 L-10.25 -31.65 -10.45 -34.1 -10.2 -34.55 Q-11.25 -34.05 -11.95 -32.45 L-13.05 -29.65 Q-14.5 -26.45 -18.3 -27.8 -18.1 -27.3 -19.05 -25.0 -20.95 -20.4 -29.0 -8.2 -28.25 -7.05 -27.7 -5.3 -27.25 -3.8 -27.25 -3.0 -27.25 -2.2 -28.1 -0.3 -29.0 1.6 -29.0 2.6 L-28.15 4.9 Q-27.3 7.0 -27.3 7.85 -27.3 10.45 -28.9 11.75 -30.5 13.05 -30.5 15.45 L-28.75 21.95 Q-28.75 22.55 -28.9 22.95 L-30.15 25.9 -31.0 28.5 -29.0 34.5 Q-29.0 35.3 -31.25 40.95 L-30.0 45.3 Q-30.0 47.85 -31.15 50.0 -32.3 52.15 -32.3 53.3 L-31.8 55.25 Q-31.3 56.7 -31.3 57.2 -31.3 58.0 -31.55 58.7 L-32.35 60.55 -32.65 60.75 -33.75 51.75 -34.25 50.55 Q-35.3 52.8 -35.3 53.55 -35.3 54.55 -33.8 60.15 L-36.3 66.85 -35.8 68.55 Q-35.3 69.7 -35.3 70.2 -35.3 71.15 -36.55 73.25 L-36.35 75.1 Q-35.25 74.15 -34.6 72.25 -34.15 70.85 -34.15 70.05 -34.15 69.55 -34.65 68.5 L-35.15 66.9 -32.95 61.8 -32.1 63.65 Q-31.3 65.6 -31.3 66.5 L-32.0 67.95 -32.75 69.55 -32.3 71.6 Q-31.85 73.15 -31.95 73.7 L-32.35 72.1 -33.65 77.35 -34.8 82.25 -33.8 86.65 Q-33.8 87.3 -35.55 95.45 -35.55 96.75 -36.25 98.05 M19.7 -12.65 L21.0 -10.75 20.8 -2.1 Q20.65 3.55 20.3 6.4 L20.0 6.9 Q19.55 -0.3 19.55 -4.0 L19.7 -12.65 M21.05 -11.15 L20.2 -13.8 20.8 -12.45 21.05 -11.15 M39.5 66.6 Q42.6 71.7 42.15 75.15 L42.15 75.4 41.85 73.5 Q41.45 71.8 39.9 70.45 L39.6 69.55 Q39.3 69.15 38.85 69.15 L36.8 66.4 Q35.4 64.5 34.75 62.0 34.15 59.85 32.0 54.55 L29.95 49.65 Q29.95 49.0 30.2 48.8 L30.65 48.6 33.15 52.45 Q35.2 55.85 35.5 59.5 35.55 60.05 37.95 64.0 L39.2 66.05 39.5 66.6 M21.55 56.5 L21.3 58.3 Q20.9 59.55 22.65 63.3 24.1 66.5 25.25 67.95 L27.15 70.05 Q27.5 70.5 27.5 71.35 L26.9 74.35 Q26.3 77.35 26.3 80.35 26.3 82.05 28.4 85.6 L31.25 89.95 31.5 93.35 31.6 97.2 30.7 100.9 Q29.75 103.8 29.75 105.55 L28.65 103.3 26.6 97.5 27.3 96.7 27.45 95.8 Q27.45 95.1 25.9 92.75 L24.15 90.15 Q23.3 88.6 23.05 85.15 L22.75 81.5 22.65 81.45 22.0 84.25 22.2 78.95 22.4 75.4 Q18.8 66.4 19.0 64.2 19.25 61.45 18.5 58.3 17.6 54.5 17.6 50.3 L17.75 48.5 Q18.2 48.5 18.9 47.8 19.3 48.05 21.55 56.5 M5.7 53.35 L5.6 53.25 Q5.8 55.85 5.0 56.7 4.15 57.65 4.15 59.35 4.15 62.25 5.5 66.3 6.05 68.0 8.2 70.6 10.2 73.05 10.65 74.75 11.0 76.15 10.6 83.45 10.6 86.4 11.55 88.3 L13.4 92.25 14.7 97.35 14.55 99.9 Q14.55 104.45 13.1 107.95 11.75 111.25 10.2 111.25 8.9 111.25 7.75 109.3 6.75 107.6 6.75 106.25 L7.65 102.35 Q8.55 98.6 8.55 95.85 L7.75 91.5 Q6.7 87.25 5.55 87.25 0.3 80.0 -0.1 75.55 -0.8 75.75 -1.3 76.3 L0.55 68.8 Q0.4 67.4 -0.9 65.0 -2.15 62.75 -2.15 60.95 L-0.8 56.75 0.5 52.4 Q0.5 51.8 -0.85 49.55 L-2.65 46.4 -3.15 44.05 Q-3.15 42.9 -1.2 39.05 0.75 35.2 0.75 33.95 L-0.4 30.9 Q-0.3 30.1 0.0 29.9 0.85 30.55 1.85 32.75 2.8 34.8 2.8 35.7 L2.25 39.2 1.65 43.75 Q1.65 44.35 3.2 47.85 L5.7 53.35 M-5.35 65.95 L-5.6 65.5 -6.95 67.45 -6.7 65.9 Q-6.35 64.5 -6.35 64.0 -6.35 63.25 -6.6 62.95 L-7.3 61.85 Q-8.4 59.1 -9.1 48.7 L-7.6 47.35 Q-7.5 48.9 -7.55 52.2 L-7.5 57.1 Q-7.3 59.65 -5.95 62.3 -4.95 64.35 -5.35 65.95 M-14.1 75.35 L-14.3 74.65 Q-14.5 74.35 -14.75 74.35 L-15.25 74.3 Q-15.2 70.4 -16.15 66.25 L-17.1 62.05 -16.7 59.55 -16.35 57.0 Q-16.35 55.55 -17.45 53.35 L-18.6 50.95 -17.6 49.0 Q-16.6 47.2 -16.6 45.65 -16.6 44.15 -17.2 42.6 L-17.85 41.25 Q-17.85 40.5 -17.1 38.7 L-16.35 36.8 -17.85 32.15 Q-17.85 30.8 -17.35 29.55 L-16.8 28.1 -16.05 28.1 -15.85 29.3 -16.25 30.65 -16.6 32.25 -15.85 33.35 Q-15.1 34.3 -15.1 36.9 -15.1 39.85 -16.6 41.35 L-15.35 46.1 -16.55 48.55 Q-17.35 50.05 -17.35 50.8 L-15.1 56.9 -15.45 59.45 -15.85 62.0 Q-15.85 62.85 -14.45 68.0 -13.3 72.3 -14.1 75.35 M-20.95 66.1 L-21.05 65.1 Q-21.25 64.55 -21.55 64.5 -21.85 64.4 -22.05 64.8 -22.3 65.15 -22.35 65.9 L-24.1 60.4 -22.35 53.9 Q-22.35 52.9 -22.85 51.3 -23.4 49.65 -23.4 48.45 L-23.25 46.4 -22.25 45.3 Q-21.1 47.2 -21.1 47.4 -21.1 47.9 -21.6 48.8 L-22.1 50.2 -21.6 52.2 Q-21.1 53.65 -21.1 54.15 -21.1 55.15 -21.95 57.35 -22.85 59.5 -22.85 60.4 L-20.6 65.85 -20.95 66.1 M-13.5 -34.65 L-13.75 -34.7 Q-15.85 -35.0 -18.2 -34.7 L-18.9 -31.8 Q-19.55 -29.1 -19.75 -28.8 L-19.55 -28.25 Q-17.55 -28.25 -16.95 -29.25 -16.6 -29.8 -16.6 -31.6 -16.6 -32.6 -16.75 -33.4 L-14.45 -33.5 -13.5 -34.65 M-30.4 -7.35 L-30.55 -7.25 Q-32.85 -6.05 -32.85 -4.15 -32.85 -3.15 -31.95 -1.45 L-31.1 0.1 Q-31.1 1.9 -31.85 2.95 L-32.65 3.75 -32.0 6.25 -31.4 8.75 Q-31.4 10.1 -32.2 10.85 -33.0 11.6 -33.0 12.0 L-32.9 12.6 -32.65 12.5 -31.0 11.3 Q-30.05 10.2 -30.05 9.05 L-30.3 7.7 -30.55 7.05 -31.05 5.25 -31.3 3.8 Q-31.3 3.3 -30.55 2.3 -29.8 1.3 -29.8 0.8 L-31.6 -4.2 Q-31.6 -5.7 -31.25 -5.9 -30.7 -6.15 -30.4 -7.35 M16.85 82.25 L16.65 82.55 Q16.35 81.55 16.2 78.25 16.05 75.95 14.2 72.2 13.55 70.85 13.45 65.8 L13.5 59.85 Q13.5 58.7 11.95 54.15 10.4 49.6 10.4 48.45 L11.7 41.6 Q11.7 38.05 9.95 35.75 8.5 33.8 9.1 29.0 9.45 26.15 8.25 21.65 L7.0 17.35 7.3 15.3 7.85 11.95 7.9 10.8 8.55 11.1 Q9.2 11.55 9.2 12.15 L7.8 17.45 Q7.8 19.15 9.25 21.1 10.8 23.2 10.9 23.9 L10.85 29.5 Q10.85 31.35 12.2 36.65 L13.55 42.3 12.75 51.0 Q12.75 51.7 14.3 57.15 L14.55 58.45 16.3 70.55 14.7 66.35 Q14.95 68.05 17.7 76.35 L17.45 79.15 16.85 82.25 M21.35 65.1 L24.05 72.0 Q24.2 72.45 24.3 71.95 L23.45 69.1 22.3 66.1 21.35 65.1 M5.25 73.25 L4.0 69.25 3.4 70.4 Q3.25 70.85 3.25 71.5 3.25 76.45 3.8 77.05 L4.45 77.45 5.4 78.85 5.9 80.6 6.25 82.6 6.35 85.2 Q6.65 86.8 7.8 86.8 L8.5 86.75 8.5 86.55 8.7 81.45 6.5 77.05 5.25 73.25 M10.1 93.9 L10.4 97.65 Q10.4 101.25 9.7 103.35 8.95 105.6 8.9 106.35 L9.05 106.6 9.85 106.8 Q10.95 106.8 11.65 105.15 12.5 103.25 12.5 99.55 12.5 94.75 11.45 91.6 10.9 89.9 10.25 89.1 L9.5 89.15 10.1 93.9 M-49.15 83.5 L-49.25 83.55 -49.25 83.45 -49.15 83.5 M-46.8 79.6 L-47.0 78.8 -48.25 78.8 -48.05 80.15 Q-48.1 82.4 -48.7 82.35 -49.3 82.3 -49.3 82.95 L-49.25 83.55 -48.7 83.55 -48.05 83.5 -48.0 83.35 -47.05 82.05 -46.65 81.15 -46.8 79.6 M-43.9 73.45 Q-44.4 70.45 -45.25 69.6 L-45.85 70.6 Q-45.8 73.9 -46.75 74.7 -47.3 75.15 -48.4 75.4 L-47.75 76.6 -47.05 76.15 -44.45 75.3 Q-43.9 74.95 -43.9 73.45 M-45.2 66.5 L-45.2 62.8 -46.95 62.8 -46.95 66.5 -45.2 66.5 M-41.9 48.8 L-42.75 47.55 -46.25 50.45 -46.55 51.2 Q-46.55 51.95 -45.4 53.7 L-44.3 55.35 -45.0 56.8 -45.75 58.45 Q-45.75 59.45 -45.0 59.3 -44.2 58.65 -43.35 56.75 -42.65 55.15 -42.65 54.65 L-43.4 53.2 -44.9 50.85 -41.9 48.8 M-40.75 36.05 L-40.8 35.35 -41.1 34.95 -42.3 35.0 -42.9 36.9 -43.25 38.65 -42.4 41.45 -41.25 44.25 -40.9 44.1 -40.6 43.55 -40.55 42.3 -41.15 40.55 Q-41.75 39.25 -41.75 38.75 L-41.25 37.4 Q-40.75 36.55 -40.75 36.05 M-31.95 24.4 Q-31.8 22.85 -32.25 22.15 -33.15 22.65 -33.4 24.65 L-33.55 28.45 -32.55 34.3 -32.95 35.9 -33.3 37.6 Q-33.3 38.6 -32.75 39.4 L-32.0 38.55 -31.7 38.4 -31.4 34.1 -32.4 28.4 -31.95 24.4 M-39.8 19.1 L-40.3 23.35 Q-40.55 24.9 -41.75 26.2 -42.9 27.45 -42.9 28.4 L-42.7 30.6 -41.65 30.65 -39.3 26.1 Q-38.75 25.15 -38.75 22.75 -38.75 21.05 -39.5 18.35 L-39.8 19.1" fill="#cbc8c0" fill-rule="evenodd" stroke="none"/>
    <path d="M29.75 -38.35 L31.45 -40.2 Q32.35 -41.3 34.55 -41.35 30.15 -42.95 27.35 -45.5 25.5 -47.2 22.35 -47.2 23.3 -47.2 23.25 -46.5 L20.2 -46.2 17.8 -45.85 15.4 -45.5 13.9 -46.25 Q12.25 -47.05 10.2 -47.05 9.8 -47.05 7.95 -46.0 L5.6 -45.0 3.35 -45.4 1.1 -45.85 Q0.45 -45.85 0.05 -44.9 -0.45 -43.75 -1.1 -43.35 -2.5 -42.5 -4.9 -42.5 L-7.4 -42.9 -9.9 -43.3 -11.55 -40.95 Q-13.25 -38.55 -13.8 -38.3 L-17.15 -37.55 Q-19.2 -37.2 -19.45 -36.5 L-20.15 -33.0 Q-20.55 -31.7 -22.85 -30.1 -23.5 -29.65 -26.0 -28.85 -27.5 -28.35 -28.15 -26.65 -28.75 -25.0 -31.55 -21.75 L-34.25 -18.8 Q-34.25 -18.15 -33.5 -16.3 L-32.75 -14.6 -34.3 -11.75 Q-35.9 -8.8 -35.9 -7.9 L-35.5 -5.8 Q-35.15 -4.25 -35.15 -3.75 L-35.6 -0.6 -36.15 3.75 -38.55 5.05 Q-40.55 6.45 -40.55 8.55 L-40.15 10.45 Q-39.8 11.85 -39.8 12.35 -39.8 13.3 -41.3 15.4 -42.8 17.45 -42.8 18.75 L-42.45 21.25 Q-42.15 23.25 -42.4 24.15 -43.0 26.15 -44.2 27.55 L-45.25 28.6 Q-45.25 29.6 -43.5 34.65 -43.5 35.15 -44.75 37.8 L-46.0 41.0 -45.6 42.9 Q-45.25 44.3 -45.25 44.8 -45.25 46.2 -47.0 48.5 -48.75 50.75 -48.75 51.15 L-47.25 57.45 -48.25 60.75 -49.25 64.05 Q-49.25 66.3 -48.4 68.25 L-47.55 69.85 Q-47.55 70.25 -48.9 71.65 -50.6 73.4 -51.3 74.6 L-50.3 79.0 Q-50.1 81.45 -51.8 82.65 -53.6 83.95 -53.6 85.05 -53.6 85.95 -52.7 87.8 L-51.8 89.5 Q-51.8 90.0 -52.3 90.85 L-52.8 92.15 -52.35 92.55 -51.45 93.35 Q-50.75 92.45 -47.9 86.65 -45.05 80.8 -44.1 79.55 -43.1 80.2 -43.0 82.35 -42.9 84.0 -43.25 85.55 L-42.75 84.9 Q-40.45 83.35 -39.35 80.1 L-38.75 77.1 Q-38.75 74.65 -40.25 73.3 -41.75 71.9 -41.75 69.05 -41.75 66.85 -39.5 63.25 -37.25 59.65 -37.25 57.05 L-38.25 53.25 -39.25 49.95 Q-39.25 47.95 -38.1 43.8 L-37.0 39.95 -38.35 36.0 Q-39.75 31.8 -39.75 30.0 -39.75 28.7 -38.35 24.9 L-37.0 21.25 Q-37.0 20.75 -37.5 18.9 L-38.0 16.55 Q-38.0 14.65 -36.35 11.1 L-34.5 7.15 -34.55 8.05 -36.5 16.45 -35.5 21.35 Q-35.5 27.65 -36.85 27.3 L-37.8 27.25 Q-38.25 27.65 -38.25 30.0 -38.25 31.7 -35.5 40.2 L-36.25 44.0 -37.75 49.9 -36.75 53.05 Q-35.75 56.3 -35.75 56.9 -35.75 60.2 -38.0 64.9 -39.1 67.25 -40.25 69.0 L-38.75 72.55 Q-37.25 75.8 -37.25 77.05 -37.25 78.05 -37.65 78.7 L-39.25 81.6 Q-40.5 83.7 -40.5 84.3 -37.75 88.9 -37.75 89.05 -37.75 90.35 -40.5 96.15 -40.5 97.5 -39.75 98.35 L-37.6 100.15 -36.55 98.65 -36.25 98.05 Q-36.85 101.75 -38.0 101.75 -42.0 101.75 -42.0 96.15 -42.0 94.15 -40.6 91.45 L-39.25 89.05 Q-39.25 88.6 -39.75 87.95 L-41.6 85.75 -42.65 86.75 -43.5 87.35 -44.35 87.2 -44.6 86.85 -44.65 84.8 Q-46.15 87.25 -48.25 92.7 -49.15 95.0 -51.4 95.0 -54.15 95.0 -54.15 92.0 L-53.65 90.75 Q-53.15 90.0 -53.15 89.5 L-55.15 85.0 Q-53.8 83.1 -51.65 78.9 L-52.65 74.5 Q-52.8 73.15 -48.9 70.0 -50.75 64.8 -50.75 63.8 -50.75 61.15 -49.75 59.8 -48.75 58.4 -48.75 57.6 L-49.5 56.15 Q-50.25 54.55 -50.25 51.25 -50.25 49.6 -48.5 47.45 L-46.75 45.05 Q-46.75 44.55 -47.1 43.05 L-47.5 41.0 Q-47.5 39.6 -46.25 37.05 L-45.05 34.7 Q-45.05 33.5 -45.9 31.35 L-46.75 28.5 Q-46.75 27.4 -45.25 25.05 -43.65 22.45 -43.3 19.3 -42.9 15.85 -42.0 13.8 L-41.15 12.3 Q-41.15 11.8 -41.5 10.4 L-41.9 8.5 Q-41.9 7.15 -39.35 4.0 -36.8 0.85 -36.8 -3.5 L-37.15 -5.7 -37.55 -7.9 Q-37.55 -9.7 -35.9 -12.05 L-34.25 -14.15 Q-34.25 -14.65 -35.0 -16.45 L-35.75 -18.8 Q-35.75 -20.35 -34.05 -21.5 -31.55 -23.1 -30.95 -23.9 -30.4 -24.65 -29.9 -26.65 L-29.05 -29.45 Q-28.55 -30.35 -26.0 -31.3 -23.45 -32.15 -23.3 -32.3 -22.5 -32.95 -21.4 -35.85 -20.2 -38.85 -19.5 -39.55 L-16.6 -39.35 Q-15.35 -39.55 -14.6 -40.65 L-12.5 -43.65 Q-11.35 -45.0 -9.75 -45.0 L-7.9 -44.5 -6.05 -44.05 Q-4.45 -44.05 -2.05 -45.65 0.4 -47.25 0.85 -47.25 L3.4 -46.85 6.0 -46.6 Q7.45 -46.8 8.65 -47.8 9.75 -48.7 10.2 -48.7 12.4 -48.7 14.1 -47.85 L15.7 -47.05 17.9 -47.8 Q19.95 -48.6 22.95 -48.6 25.7 -48.6 30.7 -45.35 35.65 -42.1 36.3 -42.1 L37.7 -41.7 39.05 -41.3 Q45.3 -41.3 47.15 -39.55 49.25 -37.6 49.25 -30.75 49.25 -28.5 48.25 -26.95 L46.4 -24.9 45.05 -23.65 Q43.55 -22.15 42.7 -20.5 41.95 -19.15 41.95 -18.25 L43.9 -11.4 Q43.9 -10.2 42.35 -7.6 40.75 -4.95 40.75 -2.8 L43.35 0.2 Q45.9 3.05 45.9 3.5 45.9 4.1 44.6 6.8 43.3 9.5 43.3 11.9 43.3 12.35 46.05 15.0 48.75 18.3 48.75 22.0 L48.45 24.2 47.8 27.2 47.4 29.8 Q47.4 30.35 49.9 32.85 52.85 35.8 53.55 36.95 54.55 38.55 54.4 43.15 54.3 47.35 55.45 48.3 L60.7 52.35 Q63.75 55.0 63.95 57.6 L63.6 60.6 Q63.45 63.15 64.45 64.15 65.4 65.0 66.45 66.75 68.0 69.35 68.0 71.45 68.0 73.85 66.6 75.5 65.15 77.25 63.0 77.25 61.9 77.25 61.75 74.95 62.7 73.25 62.75 71.7 62.8 68.85 58.05 64.35 58.45 58.45 56.3 57.2 52.65 55.15 51.1 51.65 49.7 48.5 49.4 44.45 L49.15 40.5 45.5 35.6 Q42.55 31.9 42.55 29.65 L43.0 23.8 Q43.1 22.55 41.9 20.95 L39.45 17.55 Q38.2 15.5 38.2 13.55 38.2 10.85 38.9 8.1 L39.6 5.45 Q39.6 4.9 37.75 1.4 35.85 -2.05 35.85 -2.35 L37.95 -10.05 35.75 -21.15 Q31.1 -18.55 30.9 -16.15 30.7 -13.85 30.15 -12.2 29.8 -11.15 29.8 -7.2 29.8 -6.25 31.45 -3.05 33.05 0.15 33.05 1.05 L32.65 4.35 32.25 7.65 Q32.25 9.2 36.75 17.85 37.05 18.5 37.35 22.4 37.7 26.5 37.95 27.35 L39.5 29.1 Q41.0 31.05 41.0 32.95 41.0 35.35 41.25 37.75 41.5 40.35 41.9 41.05 42.6 42.25 45.7 46.05 48.5 49.9 48.5 52.6 48.5 55.55 51.2 58.7 53.9 61.8 53.9 64.2 53.9 66.55 51.7 66.55 49.8 66.55 47.75 62.9 46.0 59.85 46.0 59.05 L44.0 52.7 Q43.7 51.85 41.6 49.05 39.7 46.5 39.45 45.05 L39.55 45.75 39.3 47.3 39.05 49.05 Q39.05 49.8 41.85 53.2 44.6 56.65 44.6 57.2 44.6 60.2 44.25 62.25 44.35 63.05 46.7 64.25 49.8 65.8 50.3 66.65 L50.25 68.9 Q49.25 75.45 51.8 77.8 L53.7 79.1 Q54.6 79.7 54.6 80.55 L54.55 83.7 Q54.55 86.8 54.8 87.15 56.0 88.85 58.75 91.25 60.9 93.5 60.9 96.15 60.9 98.65 59.1 100.2 57.7 101.45 56.3 101.45 54.8 101.45 54.5 99.3 L54.3 95.45 Q54.2 94.5 51.9 91.95 L48.4 88.4 48.35 89.1 Q48.55 90.7 50.0 96.35 51.3 101.5 51.3 102.95 51.3 104.5 50.5 105.6 49.45 107.05 47.35 107.05 44.65 107.05 43.25 99.0 41.65 90.2 39.75 88.95 L39.35 91.25 Q39.45 92.25 40.9 94.25 42.25 96.1 42.25 97.9 L40.5 103.1 Q40.5 104.5 41.55 105.35 42.55 106.2 42.55 107.65 L42.2 109.25 Q41.5 110.8 39.75 110.8 35.6 110.8 34.95 106.15 L34.5 102.25 Q34.1 100.1 33.05 99.1 32.85 100.6 31.7 102.75 L30.6 104.7 32.25 108.15 33.9 112.15 Q33.9 112.7 33.3 113.5 32.6 114.5 31.6 114.5 27.95 114.5 26.95 108.4 25.85 101.4 23.75 100.2 23.2 104.75 22.9 109.75 22.5 112.55 20.2 112.55 16.55 112.55 16.5 105.3 L16.5 99.65 Q16.35 96.7 15.5 95.75 16.1 102.8 15.15 107.05 13.9 112.75 9.9 112.75 7.9 112.75 6.5 110.5 5.25 108.45 5.25 106.1 5.25 105.05 6.3 100.5 L7.3 95.9 Q7.3 93.15 4.9 88.15 2.55 83.35 0.5 81.5 L1.05 82.55 1.8 85.45 0.55 90.05 3.3 98.15 2.05 102.4 2.9 106.7 3.75 110.75 Q3.75 113.05 2.8 114.05 1.65 115.25 -1.25 115.25 -3.5 115.25 -3.95 113.9 -4.25 113.1 -4.25 109.15 -4.3 106.25 -5.45 102.6 -6.65 98.95 -6.65 98.4 L-6.0 94.7 -5.35 90.95 Q-5.35 90.15 -5.7 87.45 L-6.3 83.55 -6.45 84.6 -8.85 91.75 -7.6 97.35 Q-7.6 97.9 -8.35 100.3 -9.1 102.7 -9.1 103.75 -9.1 105.45 -8.1 107.2 L-7.15 108.75 Q-7.15 113.75 -10.5 113.75 -11.8 113.75 -13.05 111.25 -14.4 108.55 -14.4 105.0 L-13.75 99.05 -13.1 93.95 Q-13.1 92.9 -14.8 89.3 -16.5 85.7 -16.5 81.9 L-16.25 80.05 -16.75 80.65 Q-18.05 82.75 -18.0 84.55 L-17.65 87.1 -17.35 90.05 Q-17.35 90.65 -18.2 92.75 L-19.1 95.15 -17.9 99.2 -18.4 101.7 -18.9 104.15 -18.7 111.1 Q-18.85 112.25 -21.4 112.25 -22.45 112.25 -23.4 111.4 -25.15 109.8 -25.15 106.15 L-24.25 103.2 Q-23.35 100.7 -23.35 100.2 -23.35 99.45 -24.2 97.2 L-25.05 95.0 -23.3 87.95 Q-23.3 86.95 -23.75 85.35 L-24.05 86.5 Q-25.55 89.1 -25.7 90.65 L-26.3 94.5 Q-25.85 87.45 -24.1 79.15 -23.2 74.9 -21.95 71.8 L-20.9 69.05 -22.35 65.9 Q-22.3 65.15 -22.05 64.8 -21.85 64.4 -21.55 64.5 -21.25 64.55 -21.05 65.1 L-20.95 66.1 -20.3 67.2 -20.05 68.45 -21.85 72.8 Q-23.65 76.85 -23.65 79.55 L-22.15 87.85 Q-22.15 89.2 -23.9 94.75 L-23.0 95.95 Q-22.1 97.55 -22.1 100.15 -22.1 101.05 -22.95 103.15 -23.8 105.3 -23.8 106.15 -23.8 108.2 -22.85 109.65 -22.1 110.8 -21.65 110.8 -20.15 110.8 -19.55 108.0 -19.05 105.55 -19.05 99.9 -19.05 97.4 -19.7 96.05 L-20.35 95.15 -19.45 93.85 Q-18.6 92.1 -18.6 89.55 L-19.05 86.35 -19.55 83.15 Q-19.55 80.55 -18.65 79.2 L-14.75 74.35 Q-14.5 74.35 -14.3 74.65 L-14.1 75.35 -14.75 78.15 -15.4 81.95 Q-15.4 85.1 -13.55 90.5 L-11.75 95.55 Q-11.75 98.4 -12.35 101.25 L-13.0 104.9 Q-13.0 107.75 -12.3 109.4 -11.6 111.05 -11.6 112.2 L-10.5 112.3 Q-8.25 112.3 -8.25 109.4 -8.25 107.75 -9.3 105.85 L-10.35 103.6 -9.6 100.3 Q-8.85 97.5 -8.85 97.0 -8.85 96.4 -9.2 95.05 L-9.7 93.15 -9.95 92.55 -10.1 91.75 -8.85 89.35 Q-7.6 86.85 -7.6 83.8 L-8.0 81.0 -8.4 78.2 -6.95 67.45 -5.6 65.5 -5.35 65.95 -6.15 69.35 Q-7.0 72.3 -7.0 74.85 L-5.55 81.2 Q-4.1 88.1 -4.1 91.2 L-4.7 93.95 -5.35 96.65 Q-5.35 100.25 -4.1 102.9 L-2.9 105.75 Q-2.9 110.1 -2.5 111.85 -2.0 113.95 -0.65 113.95 2.65 113.95 2.65 109.7 2.65 108.9 1.8 106.65 0.9 104.3 0.8 102.65 L2.05 97.85 Q1.9 96.4 0.6 94.05 -0.6 91.9 -0.6 90.05 -0.6 88.95 0.0 87.05 L0.55 85.3 -0.5 83.4 Q-1.6 81.2 -1.6 78.65 L-1.3 76.3 Q-0.8 75.75 -0.1 75.55 0.3 80.0 5.55 87.25 6.7 87.25 7.75 91.5 L8.55 95.85 Q8.55 98.6 7.65 102.35 L6.75 106.25 Q6.75 107.6 7.75 109.3 8.9 111.25 10.2 111.25 11.75 111.25 13.1 107.95 14.55 104.45 14.55 99.9 L14.7 97.35 13.4 92.25 11.55 88.3 Q10.6 86.4 10.6 83.45 11.0 76.15 10.65 74.75 10.2 73.05 8.2 70.6 6.05 68.0 5.5 66.3 4.15 62.25 4.15 59.35 4.15 57.65 5.0 56.7 5.8 55.85 5.6 53.25 L5.7 53.35 5.9 53.8 5.6 56.85 5.3 59.6 Q5.3 63.25 8.95 69.5 12.55 75.75 12.55 78.85 12.55 88.55 14.0 90.4 L15.5 91.9 Q16.6 93.05 17.4 95.35 18.8 99.15 18.9 105.2 19.0 110.0 20.2 111.1 21.25 109.85 21.85 104.8 L22.3 97.55 Q22.3 94.45 19.9 91.65 22.1 93.2 24.15 98.55 L25.95 100.85 Q27.55 102.95 27.7 104.9 28.0 108.2 28.85 110.5 29.8 113.2 31.1 113.2 32.7 113.2 32.7 111.65 L29.75 105.55 Q29.75 103.8 30.7 100.9 L31.6 97.2 31.5 93.35 31.25 89.95 28.4 85.6 Q26.3 82.05 26.3 80.35 26.3 77.35 26.9 74.35 L27.5 71.35 Q27.5 70.5 27.15 70.05 L25.25 67.95 Q24.1 66.5 22.65 63.3 20.9 59.55 21.3 58.3 L21.55 56.5 21.6 56.45 22.8 56.0 22.15 57.45 Q21.8 58.35 21.8 58.95 21.8 61.25 25.25 66.0 L28.65 70.35 27.9 78.65 28.1 81.0 28.55 83.15 Q31.45 89.25 32.9 90.85 33.3 91.3 33.3 92.3 L33.15 96.7 Q33.2 97.05 34.75 98.9 36.25 101.0 36.25 103.0 36.25 105.25 36.75 106.85 37.45 109.15 39.1 109.15 40.05 109.15 40.45 108.55 L40.8 107.3 39.4 104.75 38.85 102.7 Q39.75 101.35 40.25 99.7 L40.6 97.65 Q40.6 96.3 39.6 95.15 38.4 93.85 38.15 92.8 37.85 91.6 38.1 89.0 38.3 87.6 37.4 86.85 36.35 86.05 36.35 85.55 36.25 82.65 36.45 79.4 L36.5 76.8 Q35.35 75.75 34.3 74.3 32.15 71.45 32.15 68.9 32.15 66.8 35.15 66.1 L34.05 70.1 Q34.25 71.8 36.25 73.95 38.2 76.0 38.2 76.95 L37.75 80.4 37.25 83.85 40.1 87.1 Q43.15 90.4 44.0 94.15 L45.2 101.5 Q45.9 105.3 47.55 105.3 49.7 105.3 49.7 102.75 49.7 101.0 48.45 97.0 47.15 92.95 47.15 89.15 47.15 84.55 45.85 83.0 43.65 80.35 42.15 75.15 42.6 71.7 39.5 66.6 L41.25 68.65 Q43.95 71.55 43.9 72.0 43.65 74.1 44.2 76.6 44.6 78.5 44.95 79.15 47.15 82.65 48.4 85.1 50.15 88.25 52.65 90.75 54.75 92.9 55.05 93.8 L55.25 96.35 Q55.45 98.45 56.55 100.05 57.85 100.0 58.65 98.65 59.4 97.45 59.4 95.9 59.4 95.3 56.15 91.0 52.9 86.7 52.9 85.9 L53.1 83.95 53.35 81.1 52.85 80.1 50.55 77.55 Q49.7 76.4 49.55 73.45 49.3 67.8 48.95 67.6 L47.0 66.5 Q45.05 65.2 42.45 62.55 L43.1 56.25 Q37.5 52.25 37.65 48.55 L38.15 45.5 Q38.45 43.6 37.9 42.1 L35.2 39.7 Q32.7 37.65 32.7 37.15 L33.5 29.45 Q33.5 27.25 31.0 24.7 28.45 22.15 28.45 20.05 L28.5 18.55 28.5 19.2 29.2 19.65 Q29.6 19.65 29.9 20.85 L30.4 22.7 Q31.2 23.9 33.1 25.65 34.6 26.95 34.55 27.5 34.3 31.15 36.0 34.05 L38.8 38.3 39.3 39.4 40.15 41.95 41.5 47.7 45.4 52.4 45.5 53.65 Q47.35 59.75 48.65 62.35 50.15 65.4 51.65 65.4 L52.4 65.25 53.0 64.7 49.9 59.65 Q47.2 55.5 47.2 53.95 47.2 50.5 46.4 49.35 L42.35 44.35 Q39.85 41.1 39.95 38.5 40.05 35.05 39.45 33.0 39.05 31.7 37.45 29.0 36.8 27.85 35.95 23.05 L34.85 17.4 32.55 12.6 Q30.9 9.0 30.9 7.45 L31.2 2.75 Q31.35 -0.55 30.75 -1.95 L29.4 -5.2 Q28.6 -7.25 28.6 -8.3 28.6 -10.05 29.1 -12.15 L29.9 -16.55 29.8 -18.15 29.9 -19.45 Q30.45 -20.75 31.7 -21.85 33.25 -22.5 35.65 -22.8 L36.7 -22.8 36.65 -24.15 39.55 -25.95 Q42.65 -27.6 43.7 -27.45 L43.8 -27.3 39.75 -24.85 Q36.6 -22.7 36.6 -19.15 L37.7 -15.15 Q38.8 -11.4 38.8 -10.4 38.8 -7.9 37.85 -5.65 L36.85 -3.0 Q36.85 -1.65 38.6 1.35 40.3 4.35 40.3 5.45 40.3 7.85 39.6 11.25 L39.35 13.65 Q40.35 17.35 42.25 20.15 43.85 22.45 43.95 24.0 43.6 25.75 43.6 27.25 L43.65 28.05 43.8 28.35 43.75 30.35 Q43.75 31.25 45.3 33.5 L48.95 38.45 Q50.15 40.05 50.25 41.15 50.45 45.25 51.05 48.75 51.25 50.25 57.35 56.05 58.25 56.9 58.45 59.9 58.65 63.2 59.5 64.6 L60.85 65.85 Q63.1 67.4 63.7 69.75 64.05 71.0 64.0 72.4 L63.9 72.6 63.4 73.9 62.7 75.45 63.3 75.9 Q64.9 75.9 65.8 74.35 66.6 72.95 66.6 70.95 66.6 69.0 64.35 66.5 62.2 64.05 62.45 61.55 62.85 57.55 61.85 55.65 61.0 54.15 58.2 52.4 54.05 49.8 53.55 46.25 53.7 42.15 53.15 39.9 L49.5 35.6 Q46.1 31.55 46.1 28.1 47.4 22.7 47.4 21.4 47.4 19.5 46.95 19.0 44.8 16.7 42.9 13.9 42.55 12.8 42.55 12.1 42.55 11.55 43.7 7.85 L44.85 3.95 Q44.85 3.05 42.3 0.8 39.7 -1.4 39.7 -3.15 39.7 -4.3 41.35 -7.9 L42.95 -11.35 42.0 -14.1 Q41.0 -16.9 41.0 -18.85 41.0 -19.75 41.7 -21.45 L42.5 -22.35 46.15 -26.05 Q48.35 -28.15 48.35 -31.9 48.35 -34.4 46.9 -36.8 45.4 -39.35 43.6 -39.35 37.95 -39.35 36.8 -37.45 36.7 -35.45 36.15 -35.15 35.05 -34.5 31.85 -33.25 29.0 -32.15 28.75 -31.85 27.95 -31.0 24.05 -22.45 L20.2 -13.8 21.05 -11.15 21.0 -10.75 19.7 -12.65 Q19.75 -13.45 21.15 -17.05 22.45 -20.45 22.35 -21.3 22.05 -23.55 22.4 -24.2 L23.7 -25.8 26.0 -30.1 Q28.15 -33.6 30.0 -34.25 33.8 -35.65 35.05 -36.55 36.45 -37.55 38.2 -40.2 L37.55 -40.35 32.75 -39.25 31.3 -38.65 29.75 -38.35 M-35.55 95.45 Q-33.8 87.3 -33.8 86.65 L-34.8 82.25 -33.65 77.35 -32.35 72.1 -31.95 73.7 Q-31.6 75.5 -32.55 78.3 -33.65 81.45 -33.65 82.4 -33.65 83.25 -31.95 86.7 -30.35 90.0 -30.6 92.35 L-31.6 97.9 Q-29.1 103.85 -29.1 104.2 L-29.45 106.35 -29.85 108.5 -29.75 109.4 -29.5 110.1 Q-28.6 109.3 -28.0 107.6 L-27.55 106.0 -27.9 103.25 -28.3 100.5 Q-26.6 96.3 -26.35 94.85 L-27.15 100.5 -26.4 107.2 Q-26.4 111.95 -29.75 111.35 L-30.85 111.1 -31.1 109.2 Q-30.35 105.55 -30.35 104.55 L-31.6 102.8 Q-32.85 100.85 -32.85 97.9 L-32.35 95.55 Q-31.85 93.65 -31.85 93.15 -31.85 92.55 -32.35 90.7 L-32.9 89.0 -35.55 95.45 M16.3 70.55 Q17.3 72.2 18.35 75.3 L19.25 78.7 Q19.25 80.9 18.25 82.45 17.2 84.0 17.2 84.5 L17.4 89.0 Q16.25 87.7 16.25 87.4 L16.85 82.25 17.45 79.15 17.7 76.35 Q14.95 68.05 14.7 66.35 L16.3 70.55 M34.5 33.4 Q34.1 34.4 34.1 36.05 34.1 36.95 34.6 37.6 35.55 38.85 38.5 40.55 L38.2 39.5 34.5 33.4 M31.0 41.55 L32.3 42.9 Q32.3 48.1 33.3 51.1 L37.05 61.8 37.95 64.0 Q35.55 60.05 35.5 59.5 35.2 55.85 33.15 52.45 L30.65 48.6 30.3 41.5 31.0 41.55 M22.0 84.25 L22.65 81.45 22.75 81.5 23.05 85.15 Q23.3 88.6 24.15 90.15 L25.9 92.75 Q27.45 95.1 27.45 95.8 L27.3 96.7 26.6 97.5 23.8 91.1 Q22.25 87.1 22.0 84.25" fill="#97877d" fill-rule="evenodd" stroke="none"/>
    <path d="M29.75 -38.35 L31.3 -38.65 32.75 -39.25 Q31.7 -35.55 28.7 -34.5 24.9 -33.15 23.95 -32.0 L20.2 -25.5 16.55 -19.15 16.6 -19.4 16.0 -21.45 14.95 -24.5 Q16.7 -25.15 17.9 -27.6 17.85 -28.45 16.25 -27.25 14.0 -24.9 14.0 -23.35 L16.65 -14.05 16.35 -12.35 16.05 -11.4 Q15.6 -10.95 15.6 -9.95 15.6 -9.3 17.0 -6.4 18.4 -3.5 18.4 -2.5 17.6 6.1 17.75 8.5 L20.1 11.85 Q22.4 15.15 22.4 17.55 L21.35 20.95 Q20.25 23.65 20.25 25.0 20.25 27.95 24.2 34.15 28.1 40.35 28.1 43.25 L27.6 46.65 Q27.0 49.7 27.0 50.95 27.0 53.75 29.85 56.65 32.7 59.55 32.7 61.2 L32.0 63.55 Q31.3 66.1 31.3 69.25 31.3 76.85 33.95 85.4 38.0 98.45 38.85 102.7 L39.4 104.75 40.8 107.3 40.45 108.55 Q40.05 109.15 39.1 109.15 37.45 109.15 36.75 106.85 36.25 105.25 36.25 103.0 36.25 101.0 34.75 98.9 33.2 97.05 33.15 96.7 L33.3 92.3 Q33.3 91.3 32.9 90.85 31.45 89.25 28.55 83.15 L28.1 81.0 27.9 78.65 28.65 70.35 25.25 66.0 Q21.8 61.25 21.8 58.95 21.8 58.35 22.15 57.45 L22.8 56.0 21.6 56.45 22.1 46.2 Q22.1 43.75 18.25 36.95 14.4 30.15 14.4 25.8 L15.25 18.0 Q12.8 11.75 12.05 8.9 L11.75 7.65 11.45 10.1 12.45 14.25 Q13.45 17.75 13.45 18.5 L13.05 21.05 Q12.6 22.8 12.1 23.45 L12.05 23.4 Q11.1 20.65 10.8 17.85 10.45 14.7 10.45 7.3 10.45 1.9 11.45 1.9 11.95 1.9 11.7 2.35 11.45 2.75 11.95 2.75 12.6 2.75 12.8 1.35 L12.85 -0.85 Q12.85 -3.55 11.45 -7.05 L10.05 -10.55 Q10.05 -11.7 11.15 -13.45 12.25 -15.2 12.25 -17.1 L12.1 -19.15 Q11.75 -21.35 10.9 -22.8 L11.5 -25.4 12.2 -28.15 Q20.15 -29.9 21.65 -34.7 22.45 -37.15 22.8 -37.6 23.8 -38.8 26.6 -38.8 L29.75 -38.35 M42.5 -22.35 L41.7 -21.45 Q41.0 -19.75 41.0 -18.85 41.0 -16.9 42.0 -14.1 L42.95 -11.35 41.35 -7.9 Q39.7 -4.3 39.7 -3.15 39.7 -1.4 42.3 0.8 44.85 3.05 44.85 3.95 L43.7 7.85 Q42.55 11.55 42.55 12.1 42.55 12.8 42.9 13.9 44.8 16.7 46.95 19.0 47.4 19.5 47.4 21.4 47.4 22.7 46.1 28.1 46.1 31.55 49.5 35.6 L53.15 39.9 Q53.7 42.15 53.55 46.25 54.05 49.8 58.2 52.4 61.0 54.15 61.85 55.65 62.85 57.55 62.45 61.55 62.2 64.05 64.35 66.5 66.6 69.0 66.6 70.95 66.6 72.95 65.8 74.35 64.9 75.9 63.3 75.9 L62.7 75.45 63.4 73.9 64.55 74.75 Q64.5 73.4 63.9 72.6 L64.0 72.4 Q64.05 71.0 63.7 69.75 63.1 67.4 60.85 65.85 L61.15 63.5 Q61.15 59.8 60.2 57.45 59.45 55.45 57.15 52.6 55.95 51.1 53.75 49.9 53.25 49.65 52.45 44.55 L52.25 44.05 52.0 43.55 Q51.75 43.65 51.4 44.7 51.05 45.8 51.05 46.5 51.05 49.05 52.6 50.95 L55.9 54.05 Q60.4 58.1 59.5 64.6 58.65 63.2 58.45 59.9 58.25 56.9 57.35 56.05 51.25 50.25 51.05 48.75 50.45 45.25 50.25 41.15 50.15 40.05 48.95 38.45 L45.3 33.5 Q43.75 31.25 43.75 30.35 L43.8 28.35 43.95 28.5 45.4 25.1 46.15 22.65 Q46.15 20.05 43.4 17.55 40.65 15.0 40.65 14.1 40.65 12.9 41.9 9.4 L43.15 5.55 42.85 4.05 42.35 3.15 41.9 3.0 40.85 7.3 39.6 11.25 Q40.3 7.85 40.3 5.45 40.3 4.35 38.6 1.35 36.85 -1.65 36.85 -3.0 L37.85 -5.65 Q38.8 -7.9 38.8 -10.4 38.8 -11.4 37.7 -15.15 L36.6 -19.15 Q36.6 -22.7 39.75 -24.85 L43.8 -27.3 44.75 -27.5 44.8 -28.3 44.5 -30.7 44.2 -30.8 43.35 -30.95 Q41.3 -30.95 37.85 -27.7 33.85 -23.6 31.7 -21.85 30.45 -20.75 29.9 -19.45 L28.9 -16.95 29.2 -16.65 29.9 -16.55 29.1 -12.15 Q28.6 -10.05 28.6 -8.3 28.6 -7.25 29.4 -5.2 L30.75 -1.95 Q31.35 -0.55 31.2 2.75 L30.9 7.45 Q30.9 9.0 32.55 12.6 L34.85 17.4 35.95 23.05 Q36.8 27.85 37.45 29.0 39.05 31.7 39.45 33.0 40.05 35.05 39.95 38.5 39.85 41.1 42.35 44.35 L46.4 49.35 Q47.2 50.5 47.2 53.95 47.2 55.5 49.9 59.65 L53.0 64.7 52.4 65.25 51.65 65.4 Q50.15 65.4 48.65 62.35 47.35 59.75 45.5 53.65 L45.4 52.4 41.5 47.7 40.15 41.95 39.3 39.4 38.8 38.3 36.0 34.05 Q34.3 31.15 34.55 27.5 34.6 26.95 33.1 25.65 31.2 23.9 30.4 22.7 L29.9 20.85 Q29.6 19.65 29.2 19.65 L28.5 19.2 28.5 18.55 28.65 17.5 Q28.65 16.6 26.8 14.85 24.65 12.75 23.9 11.15 23.35 9.95 23.7 6.55 L24.2 2.65 Q24.2 1.95 23.0 -0.8 21.75 -3.6 21.75 -5.2 21.75 -6.05 22.85 -10.75 24.1 -15.8 24.85 -17.35 L26.7 -22.4 Q27.85 -25.95 28.6 -27.35 29.9 -29.7 36.8 -34.05 43.1 -38.1 44.0 -38.1 45.45 -38.1 46.55 -34.1 L47.4 -30.0 Q44.6 -24.95 42.5 -22.35 M43.95 24.0 Q43.85 22.45 42.25 20.15 40.35 17.35 39.35 13.65 L42.25 18.55 Q44.3 21.9 43.95 24.0 M53.1 83.95 L52.9 85.9 Q52.9 86.7 56.15 91.0 59.4 95.3 59.4 95.9 59.4 97.45 58.65 98.65 57.85 100.0 56.55 100.05 55.45 98.45 55.25 96.35 L55.05 93.8 Q54.75 92.9 52.65 90.75 50.15 88.25 48.4 85.1 47.15 82.65 44.95 79.15 44.6 78.5 44.2 76.6 43.65 74.1 43.9 72.0 43.95 71.55 41.25 68.65 L39.5 66.6 39.2 66.05 37.95 64.0 37.05 61.8 33.3 51.1 Q32.3 48.1 32.3 42.9 L31.0 41.55 28.7 34.4 Q27.85 31.65 27.8 30.6 L27.8 28.6 28.2 27.6 Q29.65 28.95 32.05 38.35 34.45 47.6 34.25 50.6 L34.65 49.45 Q35.35 50.25 39.3 61.55 L42.3 64.8 Q45.45 68.45 46.45 70.9 L49.05 79.1 Q49.35 80.1 53.1 83.95 M-9.35 -27.8 L-8.6 -28.85 -6.25 -31.0 -5.65 -30.95 Q-6.05 -28.55 -10.55 -24.05 -14.4 -20.25 -13.4 -16.25 L-13.4 -14.55 Q-11.85 -16.7 -8.15 -20.1 -4.4 -23.55 -3.0 -25.4 L-2.5 -25.3 Q-2.35 -25.85 -2.35 -24.85 -2.35 -24.35 -2.85 -23.75 L-3.35 -22.65 Q-3.35 -21.45 -9.25 -14.9 -15.15 -8.35 -15.15 -5.25 -15.15 -4.3 -17.45 3.05 -19.8 10.45 -19.8 12.25 L-19.25 14.6 -18.75 17.5 -20.2 21.35 Q-21.75 25.3 -22.1 31.85 L-22.55 41.1 Q-23.15 45.55 -25.75 45.4 L-27.35 57.3 -26.5 62.45 -28.8 67.8 Q-28.8 69.1 -27.7 71.55 L-26.65 73.85 Q-26.65 74.75 -27.7 76.3 L-28.75 77.8 -27.25 81.85 -29.3 85.75 -28.8 88.25 -28.35 90.75 Q-28.35 92.45 -28.8 96.25 L-29.65 96.3 Q-29.85 96.65 -29.85 95.65 L-29.45 93.25 -29.1 90.85 -30.25 85.25 -29.25 84.15 Q-28.25 83.0 -28.25 81.95 L-29.75 77.8 -27.8 73.85 Q-27.8 73.25 -27.95 72.95 L-28.2 72.55 Q-28.6 71.45 -29.55 70.65 -30.15 70.1 -30.15 67.95 L-29.05 65.05 -28.0 62.55 -29.0 57.15 Q-28.15 56.25 -26.75 47.85 L-25.5 39.55 -26.75 33.9 Q-24.85 29.0 -24.75 27.1 L-26.25 20.7 -24.8 17.5 -23.4 14.15 Q-23.4 13.0 -24.0 11.5 -24.65 10.0 -24.65 8.9 -24.65 7.7 -23.25 5.95 L-21.9 3.9 Q-21.9 3.4 -22.25 1.7 L-22.65 -0.55 Q-22.65 -1.15 -21.2 -3.25 -19.7 -5.4 -19.6 -6.7 L-20.85 -12.05 Q-20.45 -12.95 -18.45 -14.7 -16.75 -16.15 -16.55 -18.15 -16.3 -20.5 -13.6 -23.25 L-9.35 -27.8 M-23.0 -10.6 Q-23.85 -7.9 -23.85 -6.9 L-23.35 -5.5 Q-22.9 -4.6 -22.9 -4.1 -22.9 -3.45 -23.05 -3.05 L-23.5 -2.25 -24.0 -1.5 -24.55 -3.75 Q-25.1 -5.75 -25.1 -7.05 -25.1 -10.2 -23.15 -10.45 L-23.0 -10.6 M-5.65 -14.65 Q-3.15 -16.4 -3.15 -17.9 -3.15 -18.5 -3.45 -19.1 L-4.0 -20.05 -2.45 -20.45 Q-1.3 -20.8 -0.6 -21.5 L0.5 -24.6 Q1.2 -26.05 1.95 -26.3 L2.8 -26.55 Q3.25 -27.2 3.8 -29.35 4.5 -31.65 5.15 -31.95 L6.15 -32.5 Q6.85 -33.45 6.75 -36.2 7.1 -38.25 10.15 -37.25 9.1 -35.75 8.5 -33.7 8.0 -31.95 7.6 -31.65 L10.95 -31.95 Q10.9 -31.4 11.9 -31.4 9.35 -30.1 5.4 -22.85 1.8 -16.25 1.8 -14.8 L2.35 -10.95 Q2.9 -7.3 2.9 -4.55 2.9 -3.55 2.15 -2.4 1.4 1.5 1.4 3.5 L2.55 6.75 Q3.75 10.5 3.9 15.0 4.0 17.7 5.35 21.1 6.65 24.3 6.65 28.05 6.65 31.25 5.95 36.0 5.25 40.9 4.6 41.6 L5.05 35.65 Q5.25 32.7 4.4 30.2 L1.1 24.4 Q-1.75 19.35 -1.75 17.15 -1.75 15.8 -0.85 15.1 0.0 14.35 0.0 12.7 L-1.85 9.2 Q-3.75 5.15 -3.75 2.05 -3.75 1.1 -2.05 -3.6 -0.4 -8.25 -0.4 -8.8 -0.4 -10.2 -1.3 -15.4 -1.85 -14.3 -3.1 -12.35 L-4.05 -10.65 -3.9 -8.1 Q-3.85 -6.4 -4.4 -5.25 L-7.45 0.55 Q-9.65 4.95 -9.65 7.1 L-9.25 9.15 -8.9 11.15 Q-8.9 13.4 -9.75 15.65 L-10.65 17.6 -9.5 20.75 Q-8.4 23.25 -8.4 24.55 L-9.65 28.5 -9.25 30.1 Q-8.9 31.2 -8.9 31.7 L-10.3 38.4 -11.8 45.4 Q-11.9 46.25 -12.55 48.25 L-13.15 50.65 Q-13.15 52.65 -12.15 54.85 L-11.15 57.15 Q-11.15 58.0 -11.75 59.15 -12.4 60.25 -12.4 61.15 -12.4 62.35 -11.25 64.75 L-10.15 67.0 Q-10.15 68.1 -10.75 69.9 L-11.35 71.8 -10.85 73.55 Q-10.4 74.8 -10.4 75.3 L-11.05 76.6 Q-11.75 78.0 -11.75 79.6 L-11.25 81.3 -10.75 82.65 -10.8 82.65 -11.85 81.65 Q-12.75 80.75 -12.75 79.5 L-12.1 77.4 -11.5 75.25 Q-11.5 74.75 -12.0 73.55 L-12.5 71.8 -11.25 67.2 Q-13.5 62.6 -13.5 61.2 L-12.85 59.0 -12.25 56.8 Q-12.25 56.2 -13.25 54.35 -14.25 52.5 -14.25 50.8 L-13.35 48.55 -12.5 46.5 Q-12.5 45.1 -13.05 43.5 -13.7 41.85 -13.75 40.65 L-12.0 34.9 -14.0 29.6 -12.75 25.3 Q-15.5 19.35 -15.5 17.7 -15.5 16.4 -14.25 13.6 -12.95 10.65 -12.75 7.2 L-12.05 3.7 Q-11.4 0.85 -11.45 -3.4 -11.45 -4.9 -9.85 -6.8 -8.2 -8.75 -8.2 -10.35 -8.15 -12.85 -5.65 -14.65 M6.3 -30.95 L5.25 -30.65 4.95 -28.85 Q5.5 -30.15 6.3 -30.95 M28.35 -3.7 L27.55 -4.15 27.75 -3.3 28.05 -1.95 Q28.05 -0.6 26.5 2.1 L24.9 5.0 26.05 8.0 27.3 11.75 Q27.5 13.6 28.2 14.75 L29.15 15.9 29.45 14.55 Q29.3 12.2 27.65 9.0 26.1 5.95 26.1 5.55 26.1 4.6 27.9 1.95 29.6 -0.45 29.15 -3.25 28.85 -3.25 28.35 -3.7 M45.0 -33.35 Q44.25 -35.5 43.85 -35.5 42.35 -35.5 40.85 -33.9 L38.0 -30.15 Q40.05 -30.55 41.15 -32.45 42.3 -34.35 44.0 -34.75 L44.85 -33.15 45.0 -33.35 M26.65 22.4 L26.3 26.2 Q25.9 29.35 25.35 30.3 25.15 30.15 25.3 26.95 L25.55 23.05 24.9 20.3 Q24.2 18.25 23.35 16.75 L25.85 19.2 Q26.65 20.15 26.65 22.4 M6.75 3.0 L6.3 4.0 Q6.2 5.4 6.5 7.85 L6.85 10.65 Q6.85 11.9 6.45 12.6 L5.35 12.25 Q3.6 9.1 4.55 6.2 5.2 4.15 6.75 3.0 M14.5 5.4 L14.3 5.4 13.95 9.3 Q13.95 10.5 14.95 11.95 16.1 13.65 16.25 14.25 L16.7 18.0 17.1 16.9 17.55 15.15 Q17.55 14.2 16.25 12.7 15.15 11.4 14.8 9.05 L14.5 5.4 M14.3 57.15 L15.05 52.55 Q14.45 49.55 14.75 46.85 15.1 44.15 16.15 42.9 L16.65 62.15 Q16.65 63.15 16.3 62.3 L14.55 58.45 14.3 57.15 M18.35 27.7 L18.3 29.3 Q18.45 31.6 21.6 37.05 24.6 42.35 24.6 44.9 L24.4 47.4 25.0 45.85 25.2 44.3 Q25.2 41.95 22.9 37.6 19.7 31.6 18.35 27.7 M6.8 46.4 L7.8 44.05 8.15 44.05 Q8.4 44.0 8.6 44.3 7.7 50.6 7.7 51.55 L8.5 52.45 9.8 54.55 9.25 62.3 10.45 64.3 11.6 66.8 11.5 67.35 11.1 68.45 Q8.55 66.65 8.4 61.6 L8.75 55.65 Q8.75 54.95 7.4 52.6 6.0 50.3 6.0 49.35 6.0 48.3 6.8 46.4 M28.45 60.25 Q27.7 57.2 26.5 55.8 L24.1 53.05 25.0 55.9 26.05 58.85 Q26.5 59.8 27.1 60.0 L28.5 60.3 28.45 60.25 M33.65 65.35 L33.35 66.1 33.85 63.4 33.65 65.35 M38.85 69.15 Q39.3 69.15 39.6 69.55 L39.9 70.45 40.05 76.7 Q40.9 83.15 45.15 89.35 L45.2 89.2 45.2 89.8 44.9 91.6 44.4 92.75 44.3 92.7 Q42.85 88.9 41.2 86.4 40.3 85.05 39.35 80.2 38.4 75.55 38.4 72.95 38.4 71.6 38.85 69.15 M18.25 92.4 Q19.05 93.2 19.35 94.25 17.3 93.85 14.75 88.55 11.95 82.65 14.9 79.3 14.95 88.05 16.75 90.85 L18.25 92.4 M31.55 84.2 Q31.75 83.55 31.1 80.95 30.35 78.0 29.4 76.9 L29.35 78.75 Q29.2 81.35 30.05 82.65 L31.55 84.2 M47.15 101.35 L46.8 101.55 Q45.85 100.8 45.85 99.6 L45.9 99.05 45.95 99.25 46.9 99.45 47.15 101.35 M0.0 109.6 L-0.5 110.0 -2.05 105.3 Q-3.0 101.85 -3.0 101.05 L-2.5 99.6 Q-2.0 98.6 -2.0 98.1 L-3.9 86.65 -3.4 84.1 -2.9 81.55 Q-2.9 81.05 -4.9 74.9 -4.9 73.7 -4.1 72.5 -2.95 74.2 -2.15 77.45 -1.5 80.15 -1.5 81.85 L-2.5 86.6 -1.65 90.6 Q-0.85 93.9 -0.85 96.2 -0.85 99.05 -1.35 99.8 -1.9 100.55 -1.9 101.15 L-0.9 104.6 Q0.1 107.45 0.1 108.65 L0.0 109.6 M-3.15 7.95 Q-3.15 10.2 -4.7 12.5 -6.25 14.8 -6.25 15.95 -6.25 20.55 -4.5 24.45 L-2.75 28.2 -4.85 35.4 Q-5.25 37.05 -5.8 38.1 L-6.25 38.95 Q-6.25 42.35 -2.65 52.2 L-3.4 53.95 -3.9 55.15 -3.0 58.9 Q-2.15 62.4 -2.15 64.05 -2.15 65.05 -2.45 66.7 L-2.75 68.3 -4.0 61.9 Q-5.0 56.55 -5.0 55.05 L-4.35 53.1 -3.75 51.9 Q-3.75 51.4 -4.85 49.05 L-6.5 45.3 -7.35 41.6 -7.65 38.8 Q-7.65 37.1 -5.9 33.85 -4.15 30.6 -4.15 30.15 L-5.95 23.0 -7.75 15.8 Q-7.75 14.5 -6.4 11.45 -5.15 8.65 -5.45 2.6 L-4.05 4.9 Q-3.15 6.8 -3.15 7.95 M-18.0 66.25 L-17.0 71.35 Q-17.1 73.95 -21.25 80.0 L-21.5 80.3 Q-22.15 78.2 -22.15 76.7 -22.15 74.65 -20.05 73.5 -18.15 72.45 -18.4 70.8 L-19.4 66.2 Q-19.55 64.05 -18.6 63.35 L-17.5 63.05 -18.0 66.25" fill="#ffffff" fill-rule="evenodd" stroke="none"/>
  </g>
</svg>
