<?xml version="1.0" encoding="UTF-8" standalone="no"?>
<svg xmlns:ffdec="https://www.free-decompiler.com/flash" xmlns:xlink="http://www.w3.org/1999/xlink" ffdec:objectType="shape" height="110.85px" width="176.2px" xmlns="http://www.w3.org/2000/svg">
  <g transform="matrix(1.0, 0.0, 0.0, 1.0, 88.1, 55.45)">
    <path d="M15.95 -40.2 L14.7 -41.2 Q34.2 -49.1 46.8 -52.0 52.8 -53.35 57.1 -53.55 L59.85 -53.8 63.1 -53.85 Q64.15 -53.65 68.95 -53.8 73.75 -53.85 79.6 -51.1 L79.7 -50.7 Q82.2 -50.35 79.1 -40.7 75.9 -30.9 74.85 -29.25 L74.55 -28.7 Q74.3 -29.1 73.35 -29.05 L71.4 -28.55 Q74.25 -32.8 76.75 -40.7 78.9 -47.75 78.5 -48.65 77.4 -51.0 74.6 -51.55 L67.85 -52.0 64.9 -51.85 62.65 -51.75 61.05 -51.9 58.65 -51.7 55.5 -51.75 Q50.25 -51.8 41.8 -49.45 31.35 -46.45 15.95 -40.2 M86.5 -30.15 L86.45 -29.8 86.15 -29.55 82.45 -31.15 82.35 -30.9 Q84.3 -26.7 83.3 -22.6 82.2 -18.55 78.75 -16.85 L78.65 -16.9 78.05 -18.05 77.4 -19.65 77.5 -19.65 80.95 -19.05 Q81.15 -19.95 80.75 -27.6 L81.0 -31.75 Q81.15 -33.3 81.65 -33.95 L83.3 -32.95 Q84.35 -31.7 86.5 -30.15 M-75.2 45.6 L-75.55 45.5 Q-75.4 42.8 -75.7 41.2 L-75.35 39.35 Q-74.55 39.4 -73.15 40.3 -72.25 40.85 -69.95 42.75 L-63.4 48.35 -63.4 48.25 -61.75 45.35 -61.6 45.25 -60.75 46.75 -60.3 48.0 Q-63.8 49.65 -67.65 47.9 -71.55 46.1 -73.5 41.85 L-73.7 41.75 -74.85 45.6 -75.2 45.6 M-87.2 26.75 Q-85.5 20.5 -82.45 16.9 L-78.6 12.35 -76.45 9.85 -74.55 7.95 Q-71.7 4.8 -66.85 1.15 -57.2 -6.2 -40.5 -15.25 L-40.45 -14.65 -40.4 -13.7 Q-53.35 -6.7 -61.6 -1.15 -68.85 3.8 -72.15 7.9 L-74.25 10.3 -75.8 12.0 -76.75 13.35 -78.3 15.0 -80.3 17.2 Q-83.25 20.65 -84.3 22.65 -85.65 25.15 -84.6 27.5 -84.2 28.4 -77.3 31.25 -69.75 34.45 -64.55 34.95 L-66.2 36.15 Q-66.9 36.85 -66.65 37.25 L-67.35 37.2 Q-69.35 36.85 -78.8 33.0 -88.2 29.2 -86.9 27.1 L-87.2 26.75 M-50.6 35.1 L-40.35 33.55 Q-30.25 31.9 -28.9 31.25 -29.5 32.15 -29.8 33.7 L-30.35 35.8 -31.3 35.95 -34.25 36.45 -37.3 36.65 -36.85 39.25 -35.95 41.55 -34.95 43.45 -35.05 43.45 -36.75 43.7 Q-37.8 41.35 -40.05 40.45 L-44.45 40.55 Q-45.95 37.85 -46.4 37.3 L-46.7 37.25 -51.4 37.5 -50.6 35.1 M-2.65 23.05 L5.2 19.9 Q6.2 19.95 7.15 20.9 L8.25 22.15 3.1 24.45 2.45 24.8 -2.65 23.05 M15.0 15.3 L22.5 11.3 20.55 16.3 Q20.2 16.5 19.8 16.65 L14.85 19.05 Q14.55 18.45 14.5 17.5 14.45 16.15 15.0 15.3 M45.65 -3.5 Q47.05 -4.2 54.8 -10.9 L62.55 -17.75 64.75 -16.75 61.55 -13.1 61.45 -13.05 62.7 -9.5 Q60.65 -8.5 59.85 -6.25 59.15 -3.95 60.2 -1.6 L58.95 -0.45 58.9 -0.4 58.05 -2.35 56.8 -4.45 55.2 -6.5 53.0 -4.35 50.8 -2.35 50.05 -1.75 Q49.75 -1.85 48.1 -2.65 46.75 -3.4 45.65 -3.5 M51.7 -0.6 L53.35 -0.7 58.4 -0.1 59.6 2.9 56.0 2.2 53.0 1.85 51.7 -0.6 M73.4 -8.75 L73.55 -8.45 73.35 -6.95 72.1 -6.2 71.65 -6.3 70.75 -6.5 65.75 -7.1 63.65 -7.45 64.3 -5.6 64.2 -5.55 62.95 -4.3 62.9 -6.45 Q63.0 -8.0 63.55 -7.45 L62.75 -9.5 67.6 -9.05 69.2 -8.95 Q69.2 -8.35 69.9 -7.5 70.4 -6.65 71.25 -6.45 L72.75 -6.7 Q73.3 -7.25 73.4 -8.75 M24.75 24.0 L23.5 24.1 18.2 23.75 15.95 21.15 23.1 21.5 24.9 24.05 24.75 24.0 M6.4 32.05 L5.6 32.95 5.6 33.05 4.8 30.0 9.05 24.35 9.75 27.7 6.4 32.05 M-31.05 42.85 L-32.9 46.05 -34.4 43.3 Q-32.9 40.45 -31.7 38.95 L-30.45 37.7 -29.55 40.35 -31.05 42.85 M-42.3 44.2 L-42.35 44.2 -43.4 42.6 -44.55 44.4 -47.2 48.65 -47.65 49.45 -47.9 49.85 -49.3 50.3 -50.55 49.45 -50.75 49.25 Q-49.55 50.15 -48.75 50.05 L-47.55 49.05 Q-47.25 48.3 -47.4 47.25 L-48.0 45.8 -47.15 44.5 -44.5 40.55 -43.4 42.55 Q-43.5 41.7 -42.2 42.65 L-40.6 44.05 -42.3 44.2" fill="#bb750b" fill-rule="evenodd" stroke="none"/>
    <path d="M79.6 -51.1 Q73.75 -53.85 68.95 -53.8 64.15 -53.65 63.1 -53.85 L59.85 -53.8 57.1 -53.55 Q52.8 -53.35 46.8 -52.0 34.2 -49.1 14.7 -41.2 L15.95 -40.2 19.0 -37.7 20.35 -36.5 20.55 -36.3 21.7 -35.45 Q26.2 -31.4 32.45 -22.45 L32.45 -22.35 Q33.05 -20.6 32.75 -19.25 28.8 0.75 7.0 10.6 L5.55 11.25 5.2 11.45 4.75 11.65 4.4 11.85 4.15 11.9 4.0 11.95 3.7 12.1 Q3.3 12.15 2.85 12.35 L2.45 12.55 2.05 12.65 1.75 12.85 1.4 12.9 1.0 13.0 -8.0 15.4 -8.45 15.45 -8.75 15.45 -11.0 15.8 Q-19.55 17.15 -25.5 16.0 -37.1 13.65 -39.9 -8.1 L-40.0 -8.6 -40.4 -13.7 -40.45 -14.65 -40.5 -15.25 Q-57.2 -6.2 -66.85 1.15 -71.7 4.8 -74.55 7.95 L-76.45 9.85 -78.6 12.35 -82.45 16.9 Q-85.5 20.5 -87.2 26.75 L-87.3 27.3 -87.05 29.25 -86.45 31.35 -84.45 34.85 -81.6 39.2 Q-81.25 40.05 -75.55 45.5 L-75.2 45.6 -75.0 45.85 Q-59.1 59.65 -18.5 48.75 1.35 43.4 18.3 35.25 35.5 27.45 52.4 15.6 86.8 -8.45 86.45 -29.45 L86.45 -29.8 86.5 -30.15 Q86.05 -37.95 85.6 -38.9 L84.0 -43.8 82.6 -47.55 81.4 -49.45 80.1 -50.9 79.6 -51.1 M67.85 -52.0 L74.6 -51.55 Q77.4 -51.0 78.5 -48.65 78.9 -47.75 76.75 -40.7 74.25 -32.8 71.4 -28.55 L62.55 -17.75 54.8 -10.9 Q47.05 -4.2 45.65 -3.5 L33.15 4.7 22.5 11.3 15.0 15.3 10.15 17.7 5.2 19.9 -2.65 23.05 -14.55 26.95 -28.9 31.25 Q-30.25 31.9 -40.35 33.55 L-50.6 35.1 -64.55 34.95 Q-69.75 34.45 -77.3 31.25 -84.2 28.4 -84.6 27.5 -85.65 25.15 -84.3 22.65 -83.25 20.65 -80.3 17.2 L-80.85 18.9 Q-82.0 23.5 -79.8 28.15 L-79.75 28.15 -78.9 28.65 -77.55 29.35 -73.45 30.95 -72.8 28.4 Q-72.35 27.0 -69.75 22.7 L-66.65 17.7 -60.65 11.65 -57.2 8.5 Q-58.95 10.55 -64.25 19.8 -69.8 29.4 -70.2 31.7 L-66.4 32.35 -66.1 32.3 -61.95 32.85 Q-48.4 33.75 -40.45 32.4 -26.85 29.85 -0.05 19.05 L8.9 15.0 17.75 10.7 Q43.35 -2.85 54.0 -11.7 60.05 -16.85 68.1 -27.95 L70.35 -31.35 70.6 -31.55 72.55 -35.0 Q70.5 -36.15 59.6 -38.0 49.15 -39.9 46.4 -39.85 L51.05 -40.5 59.5 -41.1 65.4 -40.4 71.7 -39.05 73.95 -37.9 74.2 -38.4 75.4 -42.1 75.75 -43.55 75.85 -44.55 75.9 -44.6 Q73.75 -49.25 69.45 -51.25 L67.85 -52.0 M65.1 -55.45 L66.45 -55.35 Q80.9 -54.55 84.55 -46.7 93.35 -27.85 80.2 -7.9 64.55 16.0 19.25 37.15 -26.05 58.25 -54.45 54.95 -78.2 52.2 -86.95 33.35 -90.7 25.5 -82.0 13.9 L-81.15 12.85 Q-78.6 9.65 -75.3 6.4 -63.35 -5.1 -40.65 -17.45 L-40.65 -23.95 -40.55 -24.0 -40.55 -24.05 -40.6 -24.3 -40.1 -31.85 Q-38.1 -42.05 -33.1 -45.8 -25.1 -51.8 -3.5 -51.7 0.95 -50.55 10.35 -44.55 L12.85 -42.6 Q38.85 -53.2 56.4 -55.1 L65.1 -55.45 M-38.15 -31.25 L-38.6 -27.6 -38.75 -25.45 -38.55 -26.4 -38.6 -23.6 -38.5 -18.55 -38.4 -16.35 -38.3 -14.85 -37.8 -9.35 -37.8 -9.25 Q-35.1 11.25 -25.4 13.2 -15.4 15.15 -1.25 10.45 9.85 6.8 15.05 2.85 20.6 -1.5 24.4 -7.3 28.3 -13.1 29.4 -19.0 30.3 -23.65 17.0 -35.3 L15.4 -36.7 12.8 -38.9 11.55 -39.9 9.8 -41.35 8.35 -42.45 5.05 -44.95 1.4 -47.35 -1.0 -48.85 Q-21.2 -51.4 -30.15 -45.25 -36.2 -41.2 -38.15 -31.45 L-38.3 -31.25 -38.15 -31.25" fill="#480909" fill-rule="evenodd" stroke="none"/>
    <path d="M15.95 -40.2 Q31.35 -46.45 41.8 -49.45 50.25 -51.8 55.5 -51.75 L58.65 -51.7 61.05 -51.9 62.65 -51.75 64.9 -51.85 67.85 -52.0 69.45 -51.25 Q73.75 -49.25 75.9 -44.6 L75.85 -44.55 75.75 -43.55 74.1 -44.4 Q69.85 -46.15 65.15 -46.3 L57.05 -46.5 Q50.8 -46.0 33.8 -40.9 L20.35 -36.5 19.0 -37.7 15.95 -40.2 M74.85 -29.25 Q75.9 -30.9 79.1 -40.7 82.2 -50.35 79.7 -50.7 L80.1 -50.9 81.4 -49.45 82.6 -47.55 84.0 -43.8 85.6 -38.9 83.3 -32.95 81.65 -33.95 Q81.15 -33.3 81.0 -31.75 L80.75 -27.6 77.2 -21.15 Q77.0 -21.25 76.05 -24.9 L74.85 -29.25 M-81.6 39.2 L-84.45 34.85 -86.45 31.35 -87.05 29.25 -87.3 27.3 -86.9 27.1 Q-88.2 29.2 -78.8 33.0 -69.35 36.85 -67.35 37.2 L-64.8 40.85 -62.6 44.15 -69.95 42.75 Q-72.25 40.85 -73.15 40.3 -74.55 39.4 -75.35 39.35 L-75.7 41.2 -81.6 39.2 M-40.4 -13.7 L-40.0 -8.6 -39.9 -8.1 -49.85 -1.85 Q-64.75 7.95 -69.05 12.4 L-74.2 18.75 Q-77.05 22.5 -78.45 26.8 L-78.9 28.65 -79.75 28.15 -79.8 28.15 Q-82.0 23.5 -80.85 18.9 L-80.3 17.2 -78.3 15.0 -76.75 13.35 -75.8 12.0 -74.25 10.3 -72.15 7.9 Q-68.85 3.8 -61.6 -1.15 -53.35 -6.7 -40.4 -13.7 M51.65 -0.65 L50.8 -2.35 53.0 -4.35 55.2 -6.5 56.8 -4.45 58.05 -2.35 58.9 -0.4 58.5 -0.05 58.4 -0.1 53.35 -0.7 51.7 -0.6 51.65 -0.65 M19.8 16.65 L23.1 21.45 23.1 21.5 15.95 21.15 15.8 21.1 14.6 19.15 14.85 19.05 19.8 16.65 M62.7 -9.5 L61.45 -13.05 61.55 -13.1 64.75 -16.75 65.25 -17.3 Q67.55 -14.15 69.0 -10.7 L68.85 -10.55 67.6 -9.05 62.75 -9.5 62.7 -9.5 M64.3 -5.6 L63.65 -7.45 65.75 -7.1 64.3 -5.6 M56.0 2.2 L53.85 3.95 52.85 1.85 53.0 1.85 56.0 2.2 M23.5 24.1 L19.8 26.0 17.8 23.75 18.2 23.75 23.5 24.1 M10.35 30.45 L6.4 32.05 9.75 27.7 10.05 27.35 10.35 30.45 M-28.4 42.35 L-31.05 42.85 -29.55 40.35 -29.4 40.2 -28.4 42.35 M-42.35 44.2 L-44.55 44.4 -43.4 42.6 -42.35 44.2 M8.25 22.15 L8.5 22.0 9.15 24.2 9.05 24.35 4.8 30.0 4.75 30.05 3.1 24.45 8.25 22.15 M-30.45 37.65 L-30.45 37.7 -31.7 38.95 Q-32.9 40.45 -34.4 43.3 L-34.45 43.4 -34.95 43.45 -35.95 41.55 -36.85 39.25 -37.3 36.65 -34.25 36.45 -31.3 35.95 -30.45 37.65 M-44.45 40.55 L-44.5 40.55 -47.15 44.5 -49.15 44.5 -49.35 44.55 Q-51.1 41.25 -52.05 37.45 L-51.4 37.5 -46.7 37.25 -46.4 37.3 Q-45.95 37.85 -44.45 40.55" fill="#99390b" fill-rule="evenodd" stroke="none"/>
    <path d="M74.55 -28.7 L74.85 -29.25 76.05 -24.9 Q77.0 -21.25 77.2 -21.15 L77.1 -21.0 76.35 -19.85 71.3 -20.5 Q70.95 -19.6 71.15 -13.2 L69.0 -10.7 Q67.55 -14.15 65.25 -17.3 72.95 -25.65 74.55 -28.7 M79.7 -50.7 L79.6 -51.1 80.1 -50.9 79.7 -50.7 M-87.3 27.3 L-87.2 26.75 -86.9 27.1 -87.3 27.3 M50.8 -2.35 L51.65 -0.65 Q50.45 0.0 50.3 1.2 L49.25 7.65 45.45 10.45 39.2 9.95 34.8 10.2 Q34.65 10.3 31.85 19.35 L28.0 21.6 23.1 21.45 19.8 16.65 Q20.2 16.5 20.55 16.3 30.65 11.2 36.8 7.45 43.6 3.35 50.05 -1.75 L50.8 -2.35 M74.85 -17.75 L72.85 -15.15 73.15 -18.45 74.85 -17.75 M53.85 3.95 L53.6 4.15 52.1 5.4 52.5 1.9 52.85 1.85 53.85 3.95 M19.8 26.0 L19.4 26.2 10.7 30.25 10.35 30.45 10.05 27.35 12.8 23.45 17.8 23.75 19.8 26.0 M-28.25 42.35 L-28.4 42.35 -29.4 40.2 -29.15 39.95 -26.15 41.9 -28.25 42.35 M35.15 17.35 L36.35 11.7 42.8 12.4 35.15 17.35 M8.5 22.0 L11.55 20.7 14.6 19.15 15.8 21.1 11.7 21.05 9.15 24.2 8.5 22.0 M3.1 24.45 L4.75 30.05 1.8 33.8 -2.55 35.35 Q-11.15 31.65 -11.4 31.75 -12.45 32.25 -14.4 35.0 L-18.1 40.1 -22.7 41.2 -28.25 37.85 Q-29.25 37.2 -30.45 37.65 L-31.3 35.95 -30.35 35.8 Q-22.25 34.05 -14.75 31.5 -7.9 29.2 2.45 24.8 L3.1 24.45 M-14.8 39.25 L-11.2 33.85 -6.15 36.6 -14.8 39.25 M-62.6 44.15 L-64.8 40.85 -67.35 37.2 -66.65 37.25 Q-63.35 38.0 -52.05 37.45 -51.1 41.25 -49.35 44.55 L-52.7 44.6 Q-57.45 40.35 -58.25 40.05 -59.55 41.3 -61.1 44.3 L-62.45 44.15 -62.6 44.15 M-58.55 44.5 L-58.0 42.75 Q-56.65 43.5 -55.2 44.6 L-58.55 44.5" fill="#b8450e" fill-rule="evenodd" stroke="none"/>
    <path d="M85.6 -38.9 Q86.05 -37.95 86.5 -30.15 84.35 -31.7 83.3 -32.95 L85.6 -38.9 M86.45 -29.45 Q86.8 -8.45 52.4 15.6 35.5 27.45 18.3 35.25 1.35 43.4 -18.5 48.75 -59.1 59.65 -75.0 45.85 L-74.85 45.6 -73.7 41.75 -73.5 41.85 Q-71.55 46.1 -67.65 47.9 -63.8 49.65 -60.3 48.0 L-50.55 49.45 -49.3 50.3 -48.6 50.4 -47.9 49.85 -47.65 49.45 -46.75 49.5 -47.2 48.65 -44.55 44.4 -42.35 44.2 -42.3 44.2 Q-39.9 50.6 -32.0 48.35 L-33.35 46.55 -32.9 46.05 -31.05 42.85 -28.4 42.35 -28.25 42.35 Q-27.75 45.85 -26.4 47.1 -24.1 49.15 -14.45 44.65 -12.85 43.9 -11.8 41.55 L-10.8 38.95 -9.5 40.05 Q-8.65 40.9 -7.4 41.1 -3.75 41.7 5.1 37.6 5.8 37.25 5.85 35.45 L5.6 32.95 6.4 32.05 10.35 30.45 10.7 30.25 10.9 34.85 16.8 31.95 22.9 29.3 19.4 26.2 19.8 26.0 23.5 24.1 24.75 24.0 26.55 25.85 Q27.95 26.9 28.7 26.6 37.55 22.45 39.4 19.25 40.05 18.15 39.95 17.0 L39.85 15.25 42.6 16.2 46.6 16.1 Q56.25 11.65 56.2 8.55 56.05 6.8 53.6 4.15 L53.85 3.95 56.0 2.2 59.6 2.9 60.25 2.85 60.75 5.0 Q67.55 0.4 64.2 -5.55 L64.3 -5.6 65.75 -7.1 70.75 -6.5 71.0 -5.55 71.65 -6.3 72.1 -6.2 Q72.5 -6.15 72.9 -6.4 L73.35 -6.95 73.55 -8.45 78.75 -16.85 Q82.2 -18.55 83.3 -22.6 84.3 -26.7 82.35 -30.9 L82.45 -31.15 86.15 -29.55 86.45 -29.45 M-75.55 45.5 Q-81.25 40.05 -81.6 39.2 L-75.7 41.2 Q-75.4 42.8 -75.55 45.5 M-39.9 -8.1 Q-37.1 13.65 -25.5 16.0 -19.55 17.15 -11.0 15.8 L-8.75 15.45 -8.45 15.45 -8.0 15.4 1.0 13.0 1.4 12.9 1.75 12.85 2.05 12.65 2.45 12.55 2.85 12.35 Q3.3 12.15 3.7 12.1 L4.0 11.95 4.15 11.9 4.4 11.85 4.75 11.65 5.2 11.45 5.55 11.25 7.0 10.6 Q28.8 0.75 32.75 -19.25 33.05 -20.6 32.45 -22.35 L32.45 -22.45 Q26.2 -31.4 21.7 -35.45 L20.55 -36.3 20.35 -36.5 33.8 -40.9 Q50.8 -46.0 57.05 -46.5 L65.4 -40.4 59.5 -41.1 53.6 -41.55 Q49.05 -41.35 46.1 -40.0 45.05 -39.5 45.85 -39.0 L46.15 -38.85 56.2 -36.35 Q64.7 -33.3 68.1 -27.95 60.05 -16.85 54.0 -11.7 43.35 -2.85 17.75 10.7 10.65 13.55 8.45 14.0 6.7 15.4 -0.05 19.05 -26.85 29.85 -40.45 32.4 -48.4 33.75 -61.95 32.85 -63.95 26.7 -60.75 18.25 L-56.25 8.95 -56.2 8.6 Q-56.05 7.75 -57.15 8.2 -60.0 9.6 -63.15 12.95 -65.55 15.65 -66.65 17.7 L-69.75 22.7 -69.05 12.4 Q-64.75 7.95 -49.85 -1.85 L-39.9 -8.1 M75.75 -43.55 L75.4 -42.1 Q74.8 -43.65 74.1 -44.4 L75.75 -43.55 M-77.55 29.35 L-78.9 28.65 -78.45 26.8 Q-78.35 27.9 -77.55 29.35 M-38.15 -31.45 Q-36.2 -41.2 -30.15 -45.25 -21.2 -51.4 -1.0 -48.85 L1.4 -47.35 5.05 -44.95 8.35 -42.45 9.8 -41.35 11.55 -39.9 12.8 -38.9 15.4 -36.7 17.0 -35.3 Q30.3 -23.65 29.4 -19.0 28.3 -13.1 24.4 -7.3 20.6 -1.5 15.05 2.85 9.85 6.8 -1.25 10.45 -15.4 15.15 -25.4 13.2 -35.1 11.25 -37.8 -9.25 L-37.8 -9.35 -38.3 -14.85 -38.4 -16.35 -38.5 -18.55 -38.6 -23.6 -38.55 -26.4 -38.75 -25.45 -38.6 -27.6 -38.15 -31.25 -38.1 -31.35 -38.15 -31.45 M4.95 -37.15 L4.55 -37.9 4.0 -38.85 Q1.05 -43.7 -2.35 -43.95 -2.9 -45.3 -6.45 -46.4 -10.9 -47.7 -16.45 -47.35 -31.5 -46.05 -33.75 -34.45 -35.05 -28.35 -35.5 -22.1 L-35.55 -20.1 -35.55 -17.85 -35.5 -16.3 -34.95 -12.2 -34.75 -11.15 -33.65 -6.3 Q-30.55 4.05 -24.2 5.3 -12.1 7.65 -1.35 -8.6 2.1 -14.05 5.1 -20.65 7.1 -25.55 7.45 -27.45 7.8 -29.2 7.2 -31.6 6.7 -33.55 5.6 -35.9 L4.95 -37.15 M77.2 -21.15 L80.75 -27.6 Q81.15 -19.95 80.95 -19.05 L77.5 -19.65 77.1 -21.0 77.2 -21.15 M58.5 -0.05 L58.9 -0.4 58.95 -0.45 59.3 0.0 58.5 -0.05 M69.65 -8.9 L69.2 -8.95 67.6 -9.05 68.85 -10.55 69.65 -8.9 M-35.05 43.45 L-34.95 43.45 -34.45 43.4 -34.9 44.05 -35.05 43.45 M-69.95 42.75 L-62.6 44.15 -62.45 44.15 -61.75 45.35 -63.4 48.25 -63.4 48.35 -69.95 42.75 M-48.0 45.8 L-48.35 46.15 -49.15 44.5 -47.15 44.5 -48.0 45.8" fill="#811010" fill-rule="evenodd" stroke="none"/>
    <path d="M4.95 -37.15 L5.6 -35.9 Q6.7 -33.55 7.2 -31.6 7.8 -29.2 7.45 -27.45 7.1 -25.55 5.1 -20.65 2.1 -14.05 -1.35 -8.6 -12.1 7.65 -24.2 5.3 -30.55 4.05 -33.65 -6.3 L-34.75 -11.15 -34.95 -12.2 -35.5 -16.3 -35.55 -17.85 -35.55 -20.1 -35.5 -22.1 Q-35.05 -28.35 -33.75 -34.45 -31.5 -46.05 -16.45 -47.35 -10.9 -47.7 -6.45 -46.4 -2.9 -45.3 -2.35 -43.95 1.05 -43.7 4.0 -38.85 L4.55 -37.9 4.95 -37.15 M28.0 21.6 L31.85 19.35 30.85 21.25 29.25 21.65 28.0 21.6 M45.45 10.45 L49.25 7.65 49.05 8.7 Q47.8 9.45 46.45 10.5 L45.45 10.45 M58.95 -0.45 L60.2 -1.6 60.35 0.15 59.3 0.0 58.95 -0.45 M76.35 -19.85 L77.1 -21.0 77.5 -19.65 77.4 -19.65 76.35 -19.85 M73.3 -11.2 Q74.3 -11.55 75.45 -12.45 76.55 -13.3 76.65 -13.95 76.7 -14.65 75.75 -14.7 74.75 -14.85 72.8 -14.2 L72.85 -15.15 74.85 -17.75 78.65 -16.9 78.75 -16.85 73.55 -8.45 73.4 -8.75 73.3 -11.2 M71.15 -13.2 L71.6 -9.0 69.65 -8.9 68.85 -10.55 69.0 -10.7 71.15 -13.2 M62.95 -4.3 L64.2 -5.55 Q67.55 0.4 60.75 5.0 L60.25 2.85 Q62.3 1.9 63.1 -0.2 63.9 -2.35 62.95 -4.3 M70.75 -6.5 L71.65 -6.3 71.0 -5.55 70.75 -6.5 M53.6 4.15 Q56.05 6.8 56.2 8.55 56.25 11.65 46.6 16.1 L42.6 16.2 39.85 15.25 39.95 17.0 Q40.05 18.15 39.4 19.25 37.55 22.45 28.7 26.6 27.95 26.9 26.55 25.85 L24.75 24.0 24.9 24.05 29.3 23.85 32.45 23.3 Q33.4 22.85 33.9 21.4 L35.15 17.35 42.8 12.4 50.15 12.75 51.1 10.0 52.1 5.4 53.6 4.15 M19.4 26.2 L22.9 29.3 16.8 31.95 10.9 34.85 10.7 30.25 19.4 26.2 M5.6 32.95 L5.85 35.45 Q5.8 37.25 5.1 37.6 -3.75 41.7 -7.4 41.1 -8.65 40.9 -9.5 40.05 L-10.8 38.95 -11.8 41.55 Q-12.85 43.9 -14.45 44.65 -24.1 49.15 -26.4 47.1 -27.75 45.85 -28.25 42.35 L-26.15 41.9 Q-24.35 43.05 -22.0 44.1 L-19.3 45.15 -14.8 39.25 -6.15 36.6 -2.15 38.3 0.25 38.4 Q1.25 37.9 2.65 36.3 L5.6 33.05 5.6 32.95 M-33.35 46.55 L-32.0 48.35 Q-39.9 50.6 -42.3 44.2 L-40.6 44.05 Q-39.65 46.0 -37.55 46.75 L-33.35 46.55 M-47.2 48.65 L-46.75 49.5 -47.65 49.45 -47.2 48.65 M-50.55 49.45 L-60.3 48.0 -58.55 44.5 -55.2 44.6 -54.6 45.3 Q-56.3 46.35 -56.85 47.15 -57.3 47.95 -56.75 48.3 L-54.85 48.45 Q-53.45 48.1 -52.5 47.55 L-50.75 49.25 -50.55 49.45 M1.8 33.8 L0.95 34.85 -0.3 35.85 -2.55 35.35 1.8 33.8 M-18.1 40.1 L-18.6 40.9 Q-20.35 41.25 -21.7 41.75 L-22.7 41.2 -18.1 40.1 M-20.75 -38.45 L-20.7 -39.5 -20.8 -39.8 Q-23.3 -41.85 -25.55 -39.15 -27.25 -37.1 -27.85 -34.45 -28.0 -33.65 -27.75 -33.55 -27.65 -33.25 -27.1 -33.1 -24.65 -34.05 -22.75 -35.7 -21.05 -37.25 -20.75 -38.45 M-20.0 -30.9 Q-19.55 -31.75 -19.4 -32.7 L-19.25 -33.65 -19.4 -33.85 -21.95 -33.7 Q-23.2 -33.3 -23.45 -32.75 L-23.2 -31.25 Q-22.8 -29.95 -21.95 -29.8 -20.8 -29.6 -20.0 -30.9 M-14.8 -42.85 Q-16.5 -42.55 -16.7 -41.65 L-17.0 -39.45 -16.45 -39.2 -14.9 -38.8 Q-11.9 -38.15 -11.3 -40.9 L-11.05 -42.4 Q-13.05 -43.1 -14.8 -42.85 M-34.9 44.05 L-35.4 44.85 -36.75 43.7 -35.05 43.45 -34.9 44.05 M-61.1 44.3 L-61.6 45.25 -61.75 45.35 -62.45 44.15 -61.1 44.3 M-48.35 46.15 L-49.75 47.7 -52.7 44.6 -49.35 44.55 -49.15 44.5 -48.35 46.15" fill="#a61515" fill-rule="evenodd" stroke="none"/>
    <path d="M75.4 -42.1 L74.2 -38.4 73.95 -37.9 71.7 -39.05 65.4 -40.4 57.05 -46.5 65.15 -46.3 Q69.85 -46.15 74.1 -44.4 74.8 -43.65 75.4 -42.1 M59.5 -41.1 L51.05 -40.5 46.4 -39.85 Q49.15 -39.9 59.6 -38.0 70.5 -36.15 72.55 -35.0 L70.6 -31.55 70.35 -31.35 68.1 -27.95 Q64.7 -33.3 56.2 -36.35 L46.15 -38.85 45.85 -39.0 Q45.05 -39.5 46.1 -40.0 49.05 -41.35 53.6 -41.55 L59.5 -41.1 M17.75 10.7 L8.9 15.0 -0.05 19.05 Q6.7 15.4 8.45 14.0 10.65 13.55 17.75 10.7 M-61.95 32.85 L-66.1 32.3 -66.4 32.35 -70.2 31.7 Q-69.8 29.4 -64.25 19.8 -58.95 10.55 -57.2 8.5 L-60.65 11.65 -66.65 17.7 Q-65.55 15.65 -63.15 12.95 -60.0 9.6 -57.15 8.2 -56.05 7.75 -56.2 8.6 L-56.25 8.95 -60.75 18.25 Q-63.95 26.7 -61.95 32.85 M-69.75 22.7 Q-72.35 27.0 -72.8 28.4 L-73.45 30.95 -77.55 29.35 Q-78.35 27.9 -78.45 26.8 -77.05 22.5 -74.2 18.75 L-69.05 12.4 -69.75 22.7" fill="#700e0e" fill-rule="evenodd" stroke="none"/>
    <path d="M71.4 -28.55 L73.35 -29.05 Q74.3 -29.1 74.55 -28.7 72.95 -25.65 65.25 -17.3 L64.75 -16.75 62.55 -17.75 71.4 -28.55 M86.45 -29.8 L86.45 -29.45 86.15 -29.55 86.45 -29.8 M-75.0 45.85 L-75.2 45.6 -74.85 45.6 -75.0 45.85 M-64.55 34.95 L-50.6 35.1 -51.4 37.5 -52.05 37.45 Q-63.35 38.0 -66.65 37.25 -66.9 36.85 -66.2 36.15 L-64.55 34.95 M-28.9 31.25 L-14.55 26.95 -2.65 23.05 2.45 24.8 Q-7.9 29.2 -14.75 31.5 -22.25 34.05 -30.35 35.8 L-29.8 33.7 Q-29.5 32.15 -28.9 31.25 M5.2 19.9 L10.15 17.7 15.0 15.3 Q14.45 16.15 14.5 17.5 14.55 18.45 14.85 19.05 L14.6 19.15 11.55 20.7 8.5 22.0 8.25 22.15 7.15 20.9 Q6.2 19.95 5.2 19.9 M22.5 11.3 L33.15 4.7 45.65 -3.5 Q46.75 -3.4 48.1 -2.65 49.75 -1.85 50.05 -1.75 43.6 3.35 36.8 7.45 30.65 11.2 20.55 16.3 L22.5 11.3 M51.65 -0.65 L51.7 -0.6 53.0 1.85 52.85 1.85 52.5 1.9 52.1 5.4 51.1 10.0 50.15 12.75 42.8 12.4 36.35 11.7 35.15 17.35 33.9 21.4 Q33.4 22.85 32.45 23.3 L29.3 23.85 24.9 24.05 23.1 21.5 23.1 21.45 28.0 21.6 29.25 21.65 30.85 21.25 31.85 19.35 Q34.65 10.3 34.8 10.2 L39.2 9.95 45.45 10.45 46.45 10.5 48.6 10.7 49.05 8.7 49.25 7.65 50.3 1.2 Q50.45 0.0 51.65 -0.65 M58.4 -0.1 L58.5 -0.05 59.3 0.0 60.35 0.15 60.2 -1.6 Q59.15 -3.95 59.85 -6.25 60.65 -8.5 62.7 -9.5 L62.75 -9.5 63.55 -7.45 Q63.0 -8.0 62.9 -6.45 L62.95 -4.3 Q63.9 -2.35 63.1 -0.2 62.3 1.9 60.25 2.85 L59.6 2.9 58.4 -0.1 M76.35 -19.85 L77.4 -19.65 78.05 -18.05 78.65 -16.9 74.85 -17.75 73.15 -18.45 72.85 -15.15 72.8 -14.2 73.3 -11.2 73.4 -8.75 Q73.3 -7.25 72.75 -6.7 L71.25 -6.45 Q70.4 -6.65 69.9 -7.5 69.2 -8.35 69.2 -8.95 L69.65 -8.9 71.6 -9.0 71.15 -13.2 Q70.95 -19.6 71.3 -20.5 L76.35 -19.85 M72.1 -6.2 L73.35 -6.95 72.9 -6.4 Q72.5 -6.15 72.1 -6.2 M-32.9 46.05 L-33.35 46.55 -37.55 46.75 Q-39.65 46.0 -40.6 44.05 L-42.2 42.65 Q-43.5 41.7 -43.4 42.55 L-44.5 40.55 -44.45 40.55 -40.05 40.45 Q-37.8 41.35 -36.75 43.7 L-35.4 44.85 -34.9 44.05 -34.45 43.4 -34.4 43.3 -32.9 46.05 M-47.9 49.85 L-48.6 50.4 -49.3 50.3 -47.9 49.85 M15.95 21.15 L18.2 23.75 17.8 23.75 12.8 23.45 10.05 27.35 9.75 27.7 9.05 24.35 9.15 24.2 11.7 21.05 15.8 21.1 15.95 21.15 M4.75 30.05 L4.8 30.0 5.6 33.05 2.65 36.3 Q1.25 37.9 0.25 38.4 L-2.15 38.3 -6.15 36.6 -11.2 33.85 -14.8 39.25 -19.3 45.15 -22.0 44.1 Q-24.35 43.05 -26.15 41.9 L-29.15 39.95 -29.4 40.2 -29.55 40.35 -30.45 37.7 -30.45 37.65 Q-29.25 37.2 -28.25 37.85 L-22.7 41.2 -21.7 41.75 -19.8 42.6 -18.6 40.9 -18.1 40.1 -14.4 35.0 Q-12.45 32.25 -11.4 31.75 -11.15 31.65 -2.55 35.35 L-0.3 35.85 0.95 34.85 1.8 33.8 4.75 30.05 M-61.6 45.25 L-61.1 44.3 Q-59.55 41.3 -58.25 40.05 -57.45 40.35 -52.7 44.6 L-49.75 47.7 -48.35 46.15 -48.0 45.8 -47.4 47.25 Q-47.25 48.3 -47.55 49.05 L-48.75 50.05 Q-49.55 50.15 -50.75 49.25 L-52.5 47.55 -54.6 45.3 -55.2 44.6 Q-56.65 43.5 -58.0 42.75 L-58.55 44.5 -60.3 48.0 -60.75 46.75 -61.6 45.25" fill="#ef950e" fill-rule="evenodd" stroke="none"/>
    <path d="M72.8 -14.2 Q74.75 -14.85 75.75 -14.7 76.7 -14.65 76.65 -13.95 76.55 -13.3 75.45 -12.45 74.3 -11.55 73.3 -11.2 L72.8 -14.2 M46.45 10.5 Q47.8 9.45 49.05 8.7 L48.6 10.7 46.45 10.5 M-18.6 40.9 L-19.8 42.6 -21.7 41.75 Q-20.35 41.25 -18.6 40.9 M-14.8 -42.85 Q-13.05 -43.1 -11.05 -42.4 L-11.3 -40.9 Q-11.9 -38.15 -14.9 -38.8 L-16.45 -39.2 -17.0 -39.45 -16.7 -41.65 Q-16.5 -42.55 -14.8 -42.85 M-20.0 -30.9 Q-20.8 -29.6 -21.95 -29.8 -22.8 -29.95 -23.2 -31.25 L-23.45 -32.75 Q-23.2 -33.3 -21.95 -33.7 L-19.4 -33.85 -19.25 -33.65 -19.4 -32.7 Q-19.55 -31.75 -20.0 -30.9 M-20.75 -38.45 Q-21.05 -37.25 -22.75 -35.7 -24.65 -34.05 -27.1 -33.1 -27.65 -33.25 -27.75 -33.55 -28.0 -33.65 -27.85 -34.45 -27.25 -37.1 -25.55 -39.15 -23.3 -41.85 -20.8 -39.8 L-20.7 -39.5 -20.75 -38.45 M-54.6 45.3 L-52.5 47.55 Q-53.45 48.1 -54.85 48.45 L-56.75 48.3 Q-57.3 47.95 -56.85 47.15 -56.3 46.35 -54.6 45.3" fill="#cf1b1b" fill-rule="evenodd" stroke="none"/>
  </g>
</svg>
