<?xml version="1.0" encoding="UTF-8" standalone="no"?>
<svg xmlns:ffdec="https://www.free-decompiler.com/flash" xmlns:xlink="http://www.w3.org/1999/xlink" ffdec:objectType="shape" height="60.5px" width="38.25px" xmlns="http://www.w3.org/2000/svg">
  <g transform="matrix(1.0, 0.0, 0.0, 1.0, 8.55, 9.5)">
    <path d="M13.6 45.5 L13.85 45.65 13.0 44.45 Q13.7 45.65 12.85 44.7 L12.5 44.3 12.55 44.15 9.95 41.0 7.9 39.45 8.85 35.9 10.4 38.6 17.6 46.6 Q19.75 49.0 22.25 49.0 23.8 49.0 25.35 48.0 L25.4 47.95 Q27.75 47.0 27.75 44.45 27.75 43.05 25.75 38.45 23.25 32.75 19.65 27.55 L22.0 27.05 23.6 29.55 24.65 31.5 26.1 34.7 26.65 35.55 Q28.4 38.8 29.7 44.45 29.7 46.5 28.2 48.35 26.15 51.0 22.15 51.0 21.05 51.0 18.75 49.75 15.9 48.25 14.4 46.15 L13.6 45.5" fill="#6c3d28" fill-rule="evenodd" stroke="none"/>
    <path d="M25.4 47.95 L25.4 47.5 Q25.4 41.1 22.8 37.05 20.6 33.6 18.0 33.6 16.7 33.6 14.6 34.8 12.0 36.3 10.4 38.6 L8.85 35.9 Q12.7 28.95 19.65 27.55 23.25 32.75 25.75 38.45 27.75 43.05 27.75 44.45 27.75 47.0 25.4 47.95" fill="#db9c64" fill-rule="evenodd" stroke="none"/>
    <path d="M10.4 38.6 Q12.0 36.3 14.6 34.8 16.7 33.6 18.0 33.6 20.6 33.6 22.8 37.05 25.4 41.1 25.4 47.5 L25.4 47.95 25.35 48.0 Q23.8 49.0 22.25 49.0 19.75 49.0 17.6 46.6 L10.4 38.6" fill="#f1ba87" fill-rule="evenodd" stroke="none"/>
    <path d="M-5.55 -9.05 L-5.45 -8.85 -5.65 -8.75 -5.8 -8.9 -5.55 -9.05" fill="#0f625e" fill-rule="evenodd" stroke="none"/>
    <path d="M-4.1 -8.05 Q0.75 -2.4 7.6 7.85 15.65 19.9 15.65 23.1 15.65 24.1 14.9 25.0 L11.85 27.95 Q7.2 32.6 5.75 35.65 4.3 38.65 4.7 42.65 L1.15 32.8 1.15 32.7 Q-4.35 18.8 -6.1 9.55 -6.95 4.85 -6.75 2.6 -6.75 -2.4 -6.0 -4.9 -5.45 -6.8 -4.1 -8.05" fill="#a61515" fill-rule="evenodd" stroke="none"/>
    <path d="M-4.1 -8.05 Q-1.35 -8.5 2.0 -5.2 4.8 -2.5 9.75 4.8 L21.3 21.6 23.5 24.15 25.2 26.2 Q26.3 27.85 26.3 29.8 L26.1 34.7 24.65 31.5 Q25.85 29.9 25.85 28.6 25.85 26.85 25.1 26.35 L22.35 25.95 Q16.95 25.95 11.4 30.1 5.55 34.45 5.55 39.3 L5.8 41.45 6.25 43.3 6.1 43.45 7.1 44.95 Q7.9 45.65 10.4 45.65 L11.55 45.4 12.85 44.7 Q13.7 45.65 13.0 44.45 L13.85 45.65 13.6 45.5 13.55 45.4 Q11.25 46.15 10.05 46.15 6.45 46.15 4.7 42.65 4.3 38.65 5.75 35.65 7.2 32.6 11.85 27.95 L14.9 25.0 Q15.65 24.1 15.65 23.1 15.65 19.9 7.6 7.85 0.75 -2.4 -4.1 -8.05" fill="#811010" fill-rule="evenodd" stroke="none"/>
    <path d="M7.9 39.45 L9.95 41.0 12.55 44.15 12.45 44.25 9.6 44.8 Q8.6 44.75 8.4 44.0 8.15 43.35 7.9 39.45 M23.6 29.55 L22.0 27.05 Q22.65 27.05 23.15 27.8 23.6 28.5 23.6 29.55" fill="#591e1e" fill-rule="evenodd" stroke="none"/>
    <path d="M26.1 34.7 L26.3 29.8 Q26.3 27.85 25.2 26.2 L23.5 24.15 21.3 21.6 9.75 4.8 Q4.8 -2.5 2.0 -5.2 -1.35 -8.5 -4.1 -8.05 -5.45 -6.8 -6.0 -4.9 -6.75 -2.4 -6.75 2.6 -6.95 4.85 -6.1 9.55 -4.35 18.8 1.15 32.7 L1.15 32.8 4.7 42.65 Q6.45 46.15 10.05 46.15 11.25 46.15 13.55 45.4 L13.6 45.5 14.4 46.15 11.6 47.4 9.25 48.0 Q5.4 48.0 3.95 45.1 L-0.15 35.0 Q-2.6 29.55 -5.4 19.1 -8.55 7.25 -8.55 1.4 -8.55 -0.7 -7.65 -4.1 -6.75 -7.6 -5.8 -8.9 L-5.65 -8.75 -5.45 -8.85 -5.55 -9.05 -3.4 -9.5 Q-0.55 -9.5 2.9 -6.2 6.25 -3.0 12.5 5.65 18.25 13.55 26.65 23.85 28.05 25.6 28.3 26.4 28.5 27.05 28.5 29.15 28.5 32.6 26.65 35.55 L26.1 34.7 M12.85 44.7 L11.55 45.4 10.4 45.65 Q7.9 45.65 7.1 44.95 L6.1 43.45 6.25 43.3 5.8 41.45 5.55 39.3 Q5.55 34.45 11.4 30.1 16.95 25.95 22.35 25.95 L25.1 26.35 Q25.85 26.85 25.85 28.6 25.85 29.9 24.65 31.5 L23.6 29.55 Q23.6 28.5 23.15 27.8 22.65 27.05 22.0 27.05 L19.65 27.55 Q12.7 28.95 8.85 35.9 L7.9 39.45 Q8.15 43.35 8.4 44.0 8.6 44.75 9.6 44.8 L12.45 44.25 12.5 44.3 12.85 44.7" fill="#500a0a" fill-rule="evenodd" stroke="none"/>
  </g>
</svg>
