<?xml version="1.0" encoding="UTF-8" standalone="no"?>
<svg xmlns:ffdec="https://www.free-decompiler.com/flash" xmlns:xlink="http://www.w3.org/1999/xlink" ffdec:objectType="shape" height="38.85px" width="72.3px" xmlns="http://www.w3.org/2000/svg">
  <g transform="matrix(1.0, 0.0, 0.0, 1.0, 35.9, 16.05)">
    <path d="M23.5 -12.6 Q28.65 -10.85 32.85 -7.7 35.4 -5.75 35.9 -2.7 36.7 2.45 36.25 7.7 35.95 10.85 34.0 13.05 30.5 16.95 25.55 18.7 20.65 20.55 15.5 21.5 L5.65 22.7 -3.45 22.75 -13.55 21.75 Q-18.8 20.9 -23.75 19.1 -28.3 17.4 -32.15 14.4 -34.6 12.45 -35.25 9.5 -36.35 4.25 -35.6 -1.1 -34.85 -6.75 -29.7 -9.55 -25.5 -11.9 -20.95 -13.15 -16.5 -14.5 -11.9 -15.25 L-1.6 -16.05 3.85 -15.95 14.0 -14.95 Q18.75 -14.2 23.5 -12.6" fill="#000000" fill-rule="evenodd" stroke="none"/>
    <path d="M13.75 -14.45 Q18.45 -13.7 23.15 -12.1 28.15 -10.45 32.3 -7.35 34.8 -5.45 35.25 -2.55 36.05 2.5 35.6 7.6 35.3 10.65 33.4 12.75 30.0 16.6 25.15 18.25 20.3 20.1 15.25 20.95 L5.55 22.15 -3.35 22.2 -13.25 21.25 Q-18.45 20.45 -23.25 18.65 -27.8 17.05 -31.55 14.1 -34.0 12.2 -34.6 9.35 -35.7 4.25 -34.95 -0.95 -34.2 -6.4 -29.1 -9.2 -25.0 -11.4 -20.55 -12.65 L-11.65 -14.7 -1.55 -15.5 3.8 -15.4 13.75 -14.45 M28.35 6.8 L29.1 6.35 Q31.55 5.05 33.3 2.9 35.9 -0.2 33.8 -3.7 31.1 -8.25 26.1 -10.3 21.4 -12.2 16.65 -13.2 L7.2 -14.55 -3.3 -14.8 -13.1 -13.8 Q-17.55 -13.05 -21.75 -11.75 -26.3 -10.35 -30.25 -7.55 -32.95 -5.7 -33.75 -2.6 L-34.05 -0.55 -32.6 3.4 Q-31.7 4.5 -30.25 5.4 L-28.55 6.4 -27.35 7.0 -25.65 7.85 -25.8 7.75 -24.45 8.35 -18.95 10.05 Q-14.5 11.35 -9.95 11.9 L0.2 12.6 10.45 11.95 19.5 10.15 24.1 8.8 28.35 6.8 M26.9 16.6 L31.4 13.95 Q33.55 12.55 34.05 10.15 35.05 5.85 35.05 1.35 L33.45 3.35 Q31.15 6.15 27.9 7.8 L25.95 8.55 Q21.8 10.25 17.55 11.2 13.3 12.4 8.85 12.75 L-2.2 13.1 -12.05 12.35 -13.0 12.2 -21.5 10.15 Q-25.2 8.95 -28.5 7.05 -32.25 4.9 -34.7 1.25 -34.75 4.1 -34.4 7.0 -33.75 12.3 -29.25 15.15 -25.5 17.55 -21.3 18.6 L-19.65 19.05 -19.45 19.15 -17.35 19.75 -10.85 21.15 -0.7 21.55 9.5 21.1 18.45 19.6 Q22.95 18.45 26.9 16.6" fill="#543a25" fill-rule="evenodd" stroke="none"/>
    <path d="M4.95 -10.1 Q3.9 -9.65 3.2 -8.65 L3.15 -7.6 Q3.9 -6.55 5.1 -7.1 8.45 -8.6 4.95 -10.1 M1.7 -1.5 L2.4 -3.05 Q3.8 -2.75 4.05 -2.3 L2.9 -0.5 2.35 -0.55 1.7 -1.5 M18.1 -8.95 L17.0 -7.85 Q17.0 -5.95 18.85 -5.7 L20.15 -6.75 18.1 -8.95 M11.8 -6.85 L12.6 -6.85 13.25 -7.55 11.95 -8.1 11.4 -7.4 11.8 -6.85 M28.35 6.8 Q29.0 2.45 25.75 -0.25 L24.75 -1.05 Q20.5 -3.8 15.4 -3.6 L5.4 -4.2 -4.55 -4.2 -14.05 -3.55 Q-19.2 -3.05 -23.8 -0.55 -26.0 0.6 -27.0 2.9 -26.1 5.8 -24.45 8.35 L-25.8 7.75 Q-29.7 5.2 -30.4 0.85 L-30.55 -0.45 Q-30.6 -2.05 -29.5 -3.3 -26.3 -6.75 -21.9 -8.5 -17.8 -10.15 -13.25 -10.7 L-3.2 -11.55 5.0 -11.7 14.3 -10.95 Q19.2 -10.25 24.1 -8.75 29.0 -7.25 31.6 -2.95 32.95 -0.7 32.15 1.65 31.15 4.35 29.1 6.35 L28.35 6.8 M21.2 -4.9 L23.3 -3.6 23.8 -4.6 22.9 -6.05 21.4 -5.95 21.2 -4.9 M22.25 -0.45 L21.2 1.05 Q19.75 1.35 19.0 0.0 L18.5 -1.05 20.75 -2.1 22.25 -0.45 M27.95 -4.9 L28.2 -5.55 Q28.2 -5.95 26.8 -6.2 26.55 -5.95 26.55 -5.55 26.55 -5.15 26.8 -4.9 27.0 -4.6 27.35 -4.6 27.7 -4.6 27.95 -4.9 M25.85 -1.15 L26.05 -0.8 26.7 -0.55 Q27.75 -0.9 28.0 -2.45 L26.25 -2.2 25.85 -1.15 M30.05 -1.75 L30.25 -1.3 31.55 -1.45 30.85 -2.8 30.05 -1.75 M30.55 10.2 L29.9 9.95 Q29.6 9.65 29.6 9.25 29.6 8.9 29.9 8.6 31.5 8.9 31.5 9.25 L31.2 9.95 30.55 10.2 M27.9 7.8 Q27.9 11.1 27.3 14.45 L27.25 14.85 26.9 16.6 Q22.95 18.45 18.45 19.6 L9.5 21.1 9.45 17.85 8.95 13.2 8.85 12.75 Q13.3 12.4 17.55 11.2 21.8 10.25 25.95 8.55 L27.9 7.8 M-0.7 21.55 L-10.85 21.15 -17.35 19.75 -19.45 19.15 -19.65 19.05 -21.3 18.6 Q-22.8 16.0 -22.45 13.05 L-22.35 11.35 -21.9 11.35 -13.0 12.2 -12.05 12.35 -2.2 13.1 -2.3 16.6 -2.1 15.55 -0.7 21.55 M26.8 14.05 L26.3 13.45 24.85 13.95 24.75 15.3 25.1 15.5 25.75 15.1 26.8 14.05 M24.3 11.9 L22.8 11.0 22.6 12.0 23.35 12.5 24.3 11.9 M28.9 13.05 L29.25 11.7 30.85 11.45 31.25 12.75 30.95 13.2 29.65 13.55 28.9 13.05 M20.6 16.6 L21.75 17.3 23.5 16.2 23.0 14.6 21.55 14.95 20.5 15.65 20.6 16.6 M7.7 14.9 Q7.65 16.7 6.25 16.9 5.5 16.8 5.2 16.15 L5.45 14.7 7.7 14.9 M1.65 15.8 Q1.25 16.55 0.95 16.55 0.65 16.55 0.45 16.35 L0.25 15.8 0.45 15.3 Q1.65 15.5 1.65 15.8 M2.6 17.75 Q4.25 18.1 4.25 18.55 L4.0 19.3 Q3.7 19.6 3.3 19.6 L2.6 19.3 Q2.3 19.0 2.3 18.55 2.3 18.1 2.6 17.75 M10.9 19.0 L11.1 19.5 Q11.25 19.7 11.55 19.7 L12.2 19.0 Q12.2 18.7 11.1 18.5 L10.9 19.0 M11.8 14.75 L11.75 16.05 Q12.55 17.05 13.85 17.15 14.9 17.25 15.45 16.2 14.95 13.2 11.8 14.75 M17.9 16.95 Q17.9 17.3 18.15 17.5 18.35 17.75 18.65 17.75 L19.2 17.5 19.4 16.95 Q19.4 16.6 18.15 16.35 17.9 16.6 17.9 16.95 M-26.1 -3.75 L-25.7 -3.6 Q-22.95 -2.8 -23.8 -5.95 -25.15 -6.05 -26.0 -4.95 L-26.1 -3.75 M-29.2 -1.05 L-29.4 -0.45 -29.2 0.2 -28.65 0.45 Q-28.35 0.45 -28.15 0.2 L-27.95 -0.45 Q-27.95 -0.8 -29.2 -1.05 M-21.05 -5.35 L-21.4 -3.85 -20.6 -3.5 -20.0 -3.95 -21.05 -5.35 M-21.05 -0.8 L-20.65 0.35 -20.6 0.9 Q-21.3 2.35 -22.9 2.45 L-23.25 2.4 Q-23.75 0.45 -22.35 -1.05 L-21.05 -0.8 M-10.75 -7.4 L-12.65 -6.75 -13.35 -5.65 -12.35 -4.6 -11.15 -4.65 -10.45 -6.1 -10.75 -7.4 M-16.55 -7.65 Q-16.35 -7.45 -15.5 -7.65 L-15.3 -8.2 Q-15.3 -8.5 -16.55 -8.75 L-16.75 -8.2 -16.55 -7.65 M-15.35 -2.55 L-13.95 -1.8 -14.45 -1.45 -14.75 -1.5 -15.45 -2.1 -15.35 -2.55 M-8.9 -8.25 Q-6.7 -7.35 -5.2 -9.55 -6.95 -11.3 -9.15 -10.15 -9.5 -9.15 -8.9 -8.25 M-6.45 -2.8 L-6.2 -3.55 -4.35 -2.45 Q-4.95 -1.25 -5.95 -1.85 -6.5 -2.1 -6.45 -2.8 M-2.1 -8.35 L-3.35 -7.8 Q-2.45 -4.8 0.3 -6.4 -0.2 -8.55 -2.1 -8.35 M-18.9 17.85 L-18.35 16.35 Q-19.35 15.05 -20.8 15.65 L-20.6 16.4 Q-20.25 17.2 -18.9 17.85 M-15.7 14.0 L-17.2 13.3 -17.4 15.0 -16.3 15.2 -15.7 14.0 M-11.5 18.45 L-11.35 17.55 -12.65 17.2 -12.75 18.65 -12.35 18.85 -11.5 18.45 M-6.1 17.65 L-6.35 17.95 -6.3 19.15 -4.65 19.6 -4.05 18.7 -4.25 17.3 -6.1 17.65 M-9.15 15.1 Q-9.55 15.6 -9.5 16.35 -7.5 18.1 -6.25 15.05 L-6.95 14.25 -9.15 15.1 M-26.55 11.0 L-27.25 10.75 -27.5 10.2 -27.25 9.7 Q-25.6 9.9 -25.6 10.2 -25.6 10.5 -25.9 10.75 L-26.55 11.0 M-24.5 14.75 L-26.45 14.85 -26.55 14.25 -26.55 13.35 -26.5 13.1 -24.8 12.7 -24.5 14.75 M-21.6 12.85 L-21.6 13.2 -20.15 13.65 -20.95 12.05 -21.6 12.85" fill="#98765f" fill-rule="evenodd" stroke="none"/>
    <path d="M4.95 -10.1 Q8.45 -8.6 5.1 -7.1 3.9 -6.55 3.15 -7.6 L3.2 -8.65 Q3.9 -9.65 4.95 -10.1 M18.1 -8.95 L20.15 -6.75 18.85 -5.7 Q17.0 -5.95 17.0 -7.85 L18.1 -8.95 M29.1 6.35 Q31.15 4.35 32.15 1.65 32.95 -0.7 31.6 -2.95 29.0 -7.25 24.1 -8.75 19.2 -10.25 14.3 -10.95 L5.0 -11.7 -3.2 -11.55 -13.25 -10.7 Q-17.8 -10.15 -21.9 -8.5 -26.3 -6.75 -29.5 -3.3 -30.6 -2.05 -30.55 -0.45 L-30.4 0.85 Q-29.7 5.2 -25.8 7.75 L-25.65 7.85 -27.35 7.0 -28.55 6.4 -30.25 5.3 -32.6 3.4 -34.05 -0.55 -33.75 -2.6 Q-32.95 -5.7 -30.25 -7.55 -26.3 -10.35 -21.75 -11.75 -17.55 -13.05 -13.1 -13.8 L-3.3 -14.8 7.2 -14.55 16.65 -13.2 Q21.4 -12.2 26.1 -10.3 31.1 -8.25 33.8 -3.7 35.9 -0.2 33.3 2.9 31.55 5.05 29.1 6.35 M27.95 -4.9 Q27.7 -4.6 27.35 -4.6 27.0 -4.6 26.8 -4.9 26.55 -5.15 26.55 -5.55 26.55 -5.95 26.8 -6.2 28.2 -5.95 28.2 -5.55 L27.95 -4.9 M30.05 -1.75 L30.85 -2.8 31.55 -1.45 30.25 -1.3 30.05 -1.75 M30.55 10.2 L31.2 9.95 31.5 9.25 Q31.5 8.9 29.9 8.6 29.6 8.9 29.6 9.25 29.6 9.65 29.9 9.95 L30.55 10.2 M27.9 7.8 Q31.15 6.15 33.45 3.35 L35.05 1.35 Q35.05 5.85 34.05 10.15 33.55 12.55 31.4 13.95 L26.9 16.6 27.25 14.85 27.3 14.45 Q27.9 11.1 27.9 7.8 M-21.3 18.6 Q-25.5 17.55 -29.25 15.15 -33.75 12.3 -34.4 7.0 -34.75 4.1 -34.7 1.25 -32.25 4.9 -28.5 7.05 -25.2 8.95 -21.5 10.15 L-13.0 12.2 -21.9 11.35 -22.35 11.35 -22.45 13.05 Q-22.8 16.0 -21.3 18.6 M24.3 11.9 L23.35 12.5 22.6 12.0 22.8 11.0 24.3 11.9 M26.8 14.05 L25.75 15.1 25.1 15.5 24.75 15.3 24.85 13.95 26.3 13.45 26.8 14.05 M28.9 13.05 L29.65 13.55 30.95 13.2 31.25 12.75 30.85 11.45 29.25 11.7 28.9 13.05 M20.6 16.6 L20.5 15.65 21.55 14.95 23.0 14.6 23.5 16.2 21.75 17.3 20.6 16.6 M-29.2 -1.05 Q-27.95 -0.8 -27.95 -0.45 L-28.15 0.2 Q-28.35 0.45 -28.65 0.45 L-29.2 0.2 -29.4 -0.45 -29.2 -1.05 M-26.1 -3.75 L-26.0 -4.95 Q-25.15 -6.05 -23.8 -5.95 -22.95 -2.8 -25.7 -3.6 L-26.1 -3.75 M-16.55 -7.65 L-16.75 -8.2 -16.55 -8.75 Q-15.3 -8.5 -15.3 -8.2 L-15.5 -7.65 Q-16.35 -7.45 -16.55 -7.65 M-8.9 -8.25 Q-9.5 -9.15 -9.15 -10.15 -6.95 -11.3 -5.2 -9.55 -6.7 -7.35 -8.9 -8.25 M-11.5 18.45 L-12.35 18.85 -12.75 18.65 -12.65 17.2 -11.35 17.55 -11.5 18.45 M-15.7 14.0 L-16.3 15.2 -17.4 15.0 -17.2 13.3 -15.7 14.0 M-18.9 17.85 Q-20.25 17.2 -20.6 16.4 L-20.8 15.65 Q-19.35 15.05 -18.35 16.35 L-18.9 17.85 M-26.55 11.0 L-25.9 10.75 Q-25.6 10.5 -25.6 10.2 -25.6 9.9 -27.25 9.7 L-27.5 10.2 -27.25 10.75 -26.55 11.0 M-24.5 14.75 L-24.8 12.7 -26.5 13.1 -26.55 13.35 -26.55 14.25 -26.45 14.85 -24.5 14.75 M-21.6 12.85 L-20.95 12.05 -20.15 13.65 -21.6 13.2 -21.6 12.85" fill="#8a6447" fill-rule="evenodd" stroke="none"/>
    <path d="M1.7 -1.5 L2.35 -0.55 2.9 -0.5 4.05 -2.3 Q3.8 -2.75 2.4 -3.05 L1.7 -1.5 M7.55 -1.2 L5.8 -1.15 5.7 -0.2 6.85 0.55 7.75 0.65 7.55 -1.2 M11.8 -6.85 L11.4 -7.4 11.95 -8.1 13.25 -7.55 12.6 -6.85 11.8 -6.85 M-24.45 8.35 Q-26.1 5.8 -27.0 2.9 -26.0 0.6 -23.8 -0.55 -19.2 -3.05 -14.05 -3.55 L-4.55 -4.2 5.4 -4.2 15.4 -3.6 Q20.5 -3.8 24.75 -1.05 L25.75 -0.25 Q29.0 2.45 28.35 6.8 L24.1 8.8 19.5 10.15 10.45 11.95 0.2 12.6 -9.95 11.9 Q-14.5 11.35 -18.95 10.05 L-24.45 8.35 M21.2 -4.9 L21.4 -5.95 22.9 -6.05 23.8 -4.6 23.3 -3.6 21.2 -4.9 M22.25 -0.45 L20.75 -2.1 18.5 -1.05 19.0 0.0 Q19.75 1.35 21.2 1.05 L22.25 -0.45 M25.85 -1.15 L26.25 -2.2 28.0 -2.45 Q27.75 -0.9 26.7 -0.55 L26.05 -0.8 25.85 -1.15 M9.5 21.1 L-0.7 21.55 -2.1 15.55 -2.3 16.6 -2.2 13.1 8.85 12.75 8.95 13.2 9.45 17.85 9.5 21.1 M23.7 5.25 L20.65 6.4 Q16.2 7.9 11.6 8.4 L4.7 9.0 Q0.8 9.1 -3.15 8.85 -7.55 8.4 -11.95 7.05 -17.75 5.4 -23.65 5.6 -19.9 7.7 -15.8 8.75 -11.7 9.75 -7.55 10.25 L2.5 11.05 Q8.35 11.1 14.15 9.85 19.35 8.65 23.7 5.25 M1.6 3.25 L0.95 1.95 Q0.55 1.3 -1.35 0.65 L-1.9 1.2 Q-2.0 2.4 -1.2 3.4 0.0 4.85 1.6 3.25 M7.15 7.4 Q8.15 7.5 8.8 6.8 9.4 6.1 8.05 5.25 6.85 5.85 6.35 6.95 L7.15 7.4 M11.25 1.15 L12.15 1.55 Q14.55 1.3 13.2 -1.25 11.65 -0.45 11.25 1.15 M13.75 5.05 L13.75 5.85 14.8 5.8 14.25 3.85 Q13.8 4.35 13.75 5.05 M16.7 4.35 L18.55 4.3 18.55 3.5 17.0 3.3 16.5 3.85 16.7 4.35 M2.6 17.75 Q2.3 18.1 2.3 18.55 2.3 19.0 2.6 19.3 L3.3 19.6 Q3.7 19.6 4.0 19.3 L4.25 18.55 Q4.25 18.1 2.6 17.75 M1.65 15.8 Q1.65 15.5 0.45 15.3 L0.25 15.8 0.45 16.35 Q0.65 16.55 0.95 16.55 1.25 16.55 1.65 15.8 M7.7 14.9 L5.45 14.7 5.2 16.15 Q5.5 16.8 6.25 16.9 7.65 16.7 7.7 14.9 M17.9 16.95 Q17.9 16.6 18.15 16.35 19.4 16.6 19.4 16.95 L19.2 17.5 18.65 17.75 Q18.35 17.75 18.15 17.5 17.9 17.3 17.9 16.95 M11.8 14.75 Q14.95 13.2 15.45 16.2 14.9 17.25 13.85 17.15 12.55 17.05 11.75 16.05 L11.8 14.75 M10.9 19.0 L11.1 18.5 Q12.2 18.7 12.2 19.0 L11.55 19.7 Q11.25 19.7 11.1 19.5 L10.9 19.0 M-21.05 -5.35 L-20.0 -3.95 -20.6 -3.5 -21.4 -3.85 -21.05 -5.35 M-21.05 -0.8 L-22.35 -1.05 Q-23.75 0.45 -23.25 2.4 L-22.9 2.45 Q-21.3 2.35 -20.6 0.9 L-20.65 0.35 -21.05 -0.8 M-10.75 -7.4 L-10.45 -6.1 -11.15 -4.65 -12.35 -4.6 -13.35 -5.65 -12.65 -6.75 -10.75 -7.4 M-15.35 -2.55 L-15.45 -2.1 -14.75 -1.5 -14.45 -1.45 -13.95 -1.8 -15.35 -2.55 M-6.45 -2.8 Q-6.5 -2.1 -5.95 -1.85 -4.95 -1.25 -4.35 -2.45 L-6.2 -3.55 -6.45 -2.8 M-2.1 -8.35 Q-0.2 -8.55 0.3 -6.4 -2.45 -4.8 -3.35 -7.8 L-2.1 -8.35 M-18.85 2.25 L-18.5 3.0 Q-17.2 4.55 -15.8 2.65 -15.8 1.75 -17.95 1.15 L-18.85 2.25 M-9.75 1.05 L-9.0 1.0 -9.7 -1.35 -10.2 0.5 -9.75 1.05 M-9.0 4.0 L-8.5 5.95 -7.4 5.95 -5.2 5.3 -5.25 3.35 -8.05 3.8 -9.0 4.0 M-9.15 15.1 L-6.95 14.25 -6.25 15.05 Q-7.5 18.1 -9.5 16.35 -9.55 15.6 -9.15 15.1 M-6.1 17.65 L-4.25 17.3 -4.05 18.7 -4.65 19.6 -6.3 19.15 -6.35 17.95 -6.1 17.65" fill="#a98772" fill-rule="evenodd" stroke="none"/>
    <path d="M7.55 -1.2 L7.75 0.65 6.85 0.55 5.7 -0.2 5.8 -1.15 7.55 -1.2 M23.7 5.25 Q19.35 8.65 14.15 9.85 8.35 11.1 2.5 11.05 L-7.55 10.25 Q-11.7 9.75 -15.8 8.75 -19.9 7.7 -23.65 5.6 -17.75 5.4 -11.95 7.05 -7.55 8.4 -3.15 8.85 0.8 9.1 4.7 9.0 L11.6 8.4 Q16.2 7.9 20.65 6.4 L23.7 5.25 M16.7 4.35 L16.5 3.85 17.0 3.3 18.55 3.5 18.55 4.3 16.7 4.35 M13.75 5.05 Q13.8 4.35 14.25 3.85 L14.8 5.8 13.75 5.85 13.75 5.05 M11.25 1.15 Q11.65 -0.45 13.2 -1.25 14.55 1.3 12.15 1.55 L11.25 1.15 M7.15 7.4 L6.35 6.95 Q6.85 5.85 8.05 5.25 9.4 6.1 8.8 6.8 8.15 7.5 7.15 7.4 M1.6 3.25 Q0.0 4.85 -1.2 3.4 -2.0 2.4 -1.9 1.2 L-1.35 0.65 Q0.55 1.3 0.95 1.95 L1.6 3.25 M-9.0 4.0 L-8.05 3.8 -5.25 3.35 -5.2 5.3 -7.4 5.95 -8.5 5.95 -9.0 4.0 M-9.75 1.05 L-10.2 0.5 -9.7 -1.35 -9.0 1.0 -9.75 1.05 M-18.85 2.25 L-17.95 1.15 Q-15.8 1.75 -15.8 2.65 -17.2 4.55 -18.5 3.0 L-18.85 2.25" fill="#c09d89" fill-rule="evenodd" stroke="none"/>
  </g>
</svg>
