<?xml version="1.0" encoding="UTF-8" standalone="no"?>
<svg xmlns:ffdec="https://www.free-decompiler.com/flash" xmlns:xlink="http://www.w3.org/1999/xlink" ffdec:objectType="shape" height="38.9px" width="95.15px" xmlns="http://www.w3.org/2000/svg">
  <g transform="matrix(1.0, 0.0, 0.0, 1.0, 0.0, 0.0)">
    <path d="M8.15 9.45 L8.65 9.6 9.25 10.7 3.2 20.45 1.2 21.2 Q-0.15 21.25 0.0 20.2 L7.55 9.6 8.15 9.45 M28.05 5.5 L27.95 6.35 27.3 8.05 27.1 9.5 Q26.65 10.6 25.55 11.2 L23.4 12.4 20.5 14.65 Q18.7 16.25 17.05 18.3 15.9 19.8 14.15 20.55 L13.5 22.2 11.6 25.1 Q10.4 26.55 8.75 27.5 L6.9 28.05 5.65 28.95 4.7 28.45 4.5 27.3 5.35 26.15 Q5.4 25.35 5.7 24.7 7.15 21.85 9.1 19.35 L10.45 18.25 11.1 17.1 Q11.7 15.9 12.45 14.85 13.4 13.65 14.65 12.75 L16.75 10.7 Q19.75 7.1 24.0 4.95 L26.4 2.95 28.05 3.7 28.3 4.65 28.0 5.05 28.05 5.5 M46.95 1.5 L45.6 3.75 Q45.8 6.35 44.15 8.35 L42.6 9.75 Q40.35 11.25 39.65 13.8 L38.65 16.4 Q37.4 18.45 35.7 19.9 32.9 22.25 31.6 25.65 30.9 27.4 29.3 28.4 28.3 29.05 27.1 29.05 L24.95 32.0 22.8 34.2 Q21.65 35.25 20.1 34.8 L18.9 35.2 17.8 34.45 18.45 32.75 18.3 31.2 18.5 29.7 Q20.8 28.25 22.4 25.95 L23.5 24.05 Q24.9 20.85 27.7 19.1 L29.7 17.55 Q31.25 16.3 32.05 14.3 33.05 11.8 35.65 10.7 L36.1 9.65 36.65 7.8 Q37.05 6.75 37.7 5.95 38.95 4.4 40.6 3.4 L45.4 0.0 Q46.6 0.05 46.9 1.3 L46.95 1.5 M62.0 5.2 L61.25 8.1 Q60.3 10.7 57.8 12.15 L57.1 16.45 Q55.3 17.55 54.1 19.45 L53.05 20.85 52.45 21.5 52.05 23.2 47.15 28.25 Q47.45 31.25 45.1 33.35 L43.7 34.65 43.55 36.5 Q41.7 38.0 39.4 37.8 38.15 38.95 36.55 38.3 L36.15 37.4 36.65 36.55 37.3 35.2 37.7 33.05 Q38.9 30.65 41.3 28.95 41.65 24.9 45.35 22.95 L45.55 22.3 46.1 20.2 Q46.75 17.6 48.95 16.15 L50.05 15.1 Q50.6 14.55 50.6 13.5 50.6 9.95 53.5 7.7 L55.2 6.3 56.35 5.0 Q56.95 4.1 57.8 3.55 L58.55 3.55 61.4 1.0 61.9 1.05 Q62.75 1.2 63.1 1.9 L63.2 2.5 62.0 4.6 62.0 5.2 M75.65 5.75 L74.95 7.1 74.95 7.75 74.8 9.0 74.25 11.25 Q73.5 14.2 71.5 16.25 70.75 16.95 70.2 17.8 69.45 18.95 69.4 20.2 69.35 21.95 68.35 23.35 L65.8 26.55 64.4 28.1 Q62.65 29.9 61.5 32.25 L60.4 33.95 57.5 37.05 Q56.85 37.65 56.15 37.7 L54.4 38.9 53.9 38.65 Q52.95 38.1 53.15 37.1 L54.1 35.75 Q53.7 32.9 55.55 30.8 L59.1 26.4 Q60.35 24.7 60.9 22.75 L61.5 20.8 Q62.45 18.25 64.5 16.7 L65.85 15.65 66.55 14.6 67.35 12.4 Q67.9 10.8 68.85 9.4 L71.35 6.35 Q72.65 5.05 74.15 4.3 L74.7 4.5 75.65 5.75 M88.25 20.25 L88.35 19.0 89.0 17.85 90.25 15.75 Q90.6 15.0 91.4 14.9 L91.8 15.05 93.55 13.2 94.8 13.45 Q95.75 15.9 94.15 18.2 L94.0 19.35 92.5 23.05 90.9 25.95 89.9 26.9 85.8 31.45 84.3 30.8 84.15 29.9 85.35 28.05 86.0 23.35 86.9 22.5 87.75 21.55 88.25 20.25 M83.65 9.8 L84.2 10.0 85.45 8.3 86.15 8.05 87.05 8.4 87.65 9.5 86.75 11.4 86.75 13.5 86.2 15.7 Q85.05 18.85 83.25 21.55 L82.55 22.65 81.25 24.55 81.05 24.9 80.85 25.35 Q80.0 28.3 78.15 30.4 L77.3 31.55 76.4 32.25 73.8 34.9 73.3 35.05 72.85 35.75 71.65 36.1 70.85 35.7 70.55 35.45 70.4 35.1 70.35 34.7 70.35 34.5 70.8 33.7 70.95 30.8 73.65 28.2 Q74.05 25.35 75.6 23.0 L77.8 19.6 Q78.5 18.5 78.8 17.25 L79.1 16.0 79.25 13.75 80.35 12.25 Q81.6 10.45 83.65 9.8" fill="#281a0b" fill-opacity="0.49803922" fill-rule="evenodd" stroke="none"/>
  </g>
</svg>
