<?xml version="1.0" encoding="UTF-8" standalone="no"?>
<svg xmlns:ffdec="https://www.free-decompiler.com/flash" xmlns:xlink="http://www.w3.org/1999/xlink" ffdec:objectType="shape" height="79.25px" width="117.1px" xmlns="http://www.w3.org/2000/svg">
  <g transform="matrix(1.0, 0.0, 0.0, 1.0, 41.65, 59.1)">
    <path d="M-28.6 -2.55 L-39.5 -9.85 Q-41.65 -11.65 -41.65 -13.8 -41.65 -14.45 -40.85 -16.0 -40.1 -17.55 -40.1 -18.55 L-40.55 -20.45 -41.05 -22.4 -40.0 -26.55 Q-38.95 -30.15 -38.95 -31.35 -38.95 -34.3 -37.75 -36.0 -36.75 -37.4 -34.55 -38.4 L-29.95 -39.3 -26.45 -45.05 -23.3 -46.4 Q-20.35 -47.7 -19.5 -48.65 L-15.9 -51.55 Q-12.7 -52.15 -11.35 -54.5 -10.1 -56.65 -9.05 -56.65 -4.65 -55.9 -3.2 -55.05 -2.3 -56.25 -0.55 -57.55 1.55 -59.1 2.9 -59.1 6.35 -57.85 8.05 -56.05 L9.25 -57.35 Q10.55 -58.7 11.15 -58.7 11.75 -58.7 14.35 -57.45 16.95 -56.25 17.8 -56.25 19.55 -56.25 20.95 -57.55 22.35 -58.9 22.95 -58.9 23.65 -58.9 24.95 -58.15 26.55 -57.25 27.35 -56.1 28.15 -54.9 29.75 -54.75 L31.55 -54.8 Q33.2 -54.8 35.35 -52.45 37.5 -50.15 37.9 -50.15 L40.1 -50.55 42.25 -50.95 Q46.0 -50.95 49.7 -45.1 50.2 -44.3 53.0 -43.4 55.75 -42.6 56.45 -41.3 L57.3 -39.2 Q58.0 -37.8 60.1 -36.95 64.65 -35.1 65.75 -33.1 66.1 -32.4 66.7 -28.05 69.7 -27.35 71.1 -25.15 72.1 -23.6 72.1 -21.55 71.7 -18.6 70.7 -16.75 73.2 -16.05 74.25 -13.85 74.95 -12.45 74.95 -10.85 74.95 -10.1 74.25 -8.7 L72.8 -6.35 Q75.45 -4.35 75.45 -3.35 75.45 1.3 71.85 4.35 67.55 7.2 66.1 9.1 65.8 9.5 52.05 14.05 L49.7 13.7 47.75 13.2 48.25 10.25 Q49.1 10.85 50.4 11.45 52.1 12.25 53.0 12.25 53.65 12.25 55.5 11.25 57.3 10.25 59.05 10.25 61.95 10.25 63.6 9.0 65.3 7.8 65.3 5.65 L69.05 2.45 Q72.75 -0.8 72.75 -1.55 72.75 -2.45 71.75 -3.35 L68.7 -5.5 72.4 -9.15 Q73.1 -10.0 73.1 -11.2 73.1 -12.25 72.6 -13.0 71.45 -14.65 68.3 -14.95 70.25 -22.2 70.25 -23.2 70.25 -24.05 68.85 -24.7 67.3 -25.45 65.25 -25.3 65.45 -28.85 63.55 -31.6 61.15 -35.2 56.0 -35.55 55.3 -37.45 55.9 -39.6 55.5 -40.9 48.75 -41.55 47.85 -46.65 46.55 -47.95 45.55 -48.9 42.25 -48.9 39.1 -48.2 37.15 -46.75 37.3 -49.9 34.6 -51.6 32.8 -52.7 31.4 -52.7 31.1 -52.7 30.1 -51.95 29.15 -51.25 28.5 -50.55 L27.9 -50.75 Q27.3 -51.1 27.35 -51.8 27.4 -53.05 25.6 -54.8 23.75 -56.6 22.3 -56.6 L20.6 -54.75 Q18.95 -52.9 18.55 -52.9 16.75 -52.9 14.9 -54.75 L12.9 -56.6 Q12.4 -56.6 10.6 -54.65 8.75 -52.75 8.25 -52.75 7.7 -52.75 4.9 -54.9 2.15 -57.1 1.25 -57.1 0.25 -57.1 -2.1 -52.3 L-5.65 -53.4 -9.15 -54.4 Q-10.0 -52.05 -10.2 -49.55 L-10.55 -49.35 -10.8 -48.85 -11.1 -49.4 Q-11.55 -49.95 -12.2 -49.95 -14.5 -49.95 -16.45 -47.25 -18.4 -44.45 -20.25 -44.35 L-20.45 -44.9 Q-20.8 -45.45 -21.45 -45.45 L-25.95 -41.2 Q-30.35 -37.0 -30.8 -37.0 -34.6 -37.0 -36.05 -34.9 -36.75 -34.0 -36.95 -32.25 -37.1 -31.3 -36.65 -29.2 -36.35 -27.8 -37.3 -26.3 L-38.55 -23.65 -38.9 -22.1 -38.35 -19.8 -37.85 -17.55 Q-37.85 -17.05 -38.8 -16.65 -39.8 -16.3 -39.8 -15.8 -39.8 -11.3 -36.75 -9.85 L-23.95 -6.0 Q-25.9 -6.0 -27.25 -5.0 -28.6 -4.0 -28.6 -2.55" fill="#5e2f00" fill-rule="evenodd" stroke="none"/>
    <path d="M-23.95 -6.0 L-36.75 -9.85 Q-39.8 -11.3 -39.8 -15.8 -39.8 -16.3 -38.8 -16.65 -37.85 -17.05 -37.85 -17.55 L-38.35 -19.8 -38.9 -22.1 -38.55 -23.65 -37.3 -26.3 Q-36.35 -27.8 -36.65 -29.2 -37.1 -31.3 -36.95 -32.25 -36.75 -34.0 -36.05 -34.9 -34.6 -37.0 -30.8 -37.0 -30.35 -37.0 -25.95 -41.2 L-21.45 -45.45 Q-20.8 -45.45 -20.45 -44.9 L-20.25 -44.35 Q-18.4 -44.45 -16.45 -47.25 -14.5 -49.95 -12.2 -49.95 -11.55 -49.95 -11.1 -49.4 L-10.8 -48.85 -10.55 -49.35 -10.2 -49.55 Q-10.0 -52.05 -9.15 -54.4 L-5.65 -53.4 -2.1 -52.3 Q0.25 -57.1 1.25 -57.1 2.15 -57.1 4.9 -54.9 7.7 -52.75 8.25 -52.75 8.75 -52.75 10.6 -54.65 12.4 -56.6 12.9 -56.6 L14.9 -54.75 Q16.75 -52.9 18.55 -52.9 18.95 -52.9 20.6 -54.75 L22.3 -56.6 Q23.75 -56.6 25.6 -54.8 27.4 -53.05 27.35 -51.8 27.3 -51.1 27.9 -50.75 L28.5 -50.55 Q29.15 -51.25 30.1 -51.95 31.1 -52.7 31.4 -52.7 32.8 -52.7 34.6 -51.6 37.3 -49.9 37.15 -46.75 39.1 -48.2 42.25 -48.9 45.55 -48.9 46.55 -47.95 47.85 -46.65 48.75 -41.55 55.5 -40.9 55.9 -39.6 55.3 -37.45 56.0 -35.55 61.15 -35.2 63.55 -31.6 65.45 -28.85 65.25 -25.3 67.3 -25.45 68.85 -24.7 70.25 -24.05 70.25 -23.2 70.25 -22.2 68.3 -14.95 71.45 -14.65 72.6 -13.0 73.1 -12.25 73.1 -11.2 73.1 -10.0 72.4 -9.15 L68.7 -5.5 71.75 -3.35 Q72.75 -2.45 72.75 -1.55 72.75 -0.8 69.05 2.45 L65.3 5.65 Q65.3 7.8 63.6 9.0 61.95 10.25 59.05 10.25 57.3 10.25 55.5 11.25 53.65 12.25 53.0 12.25 52.1 12.25 50.4 11.45 49.1 10.85 48.25 10.25 48.25 4.45 24.5 -1.0 1.8 -6.25 -19.35 -6.25 L-23.95 -6.0 M4.1 -54.0 Q1.3 -54.0 1.05 -52.4 0.75 -50.9 3.05 -48.75 L-0.65 -46.0 Q-2.7 -44.6 -7.35 -44.6 -7.85 -44.6 -8.2 -45.3 -8.55 -46.0 -9.05 -46.0 L-10.65 -45.35 -11.7 -44.1 Q-11.7 -43.6 -11.1 -43.05 -10.5 -42.55 -10.5 -42.05 -10.5 -39.65 -12.3 -39.6 -15.45 -39.45 -17.15 -38.2 L-19.2 -35.8 Q-20.35 -34.2 -21.9 -33.7 -24.95 -32.75 -27.2 -28.15 -29.3 -24.0 -31.5 -24.0 -32.5 -24.0 -33.8 -24.85 L-34.6 -23.85 -34.85 -22.9 Q-34.85 -20.85 -33.7 -20.65 L-31.4 -20.5 -32.5 -18.05 -32.95 -15.95 Q-32.95 -13.85 -30.85 -12.65 -29.3 -11.8 -27.8 -11.8 -26.65 -11.8 -24.55 -13.05 -20.35 -8.7 -19.1 -8.7 -18.45 -8.7 -16.95 -10.35 -15.45 -12.15 -14.55 -12.35 L-15.15 -11.9 -15.3 -11.0 -15.1 -10.1 -14.9 -9.8 -13.55 -9.35 -13.4 -9.75 Q-13.2 -10.15 -12.6 -10.15 L-10.55 -9.7 Q-9.0 -9.55 -6.85 -11.0 -5.7 -9.9 -3.35 -8.9 -1.25 -8.0 -0.35 -8.0 0.85 -8.0 2.0 -8.7 L3.0 -9.45 5.2 -9.0 7.4 -8.6 9.55 -9.05 11.7 -9.55 Q12.3 -9.55 14.1 -7.7 15.9 -5.9 17.25 -5.9 L19.0 -6.0 Q20.1 -5.95 21.0 -5.3 22.3 -4.3 26.55 -3.2 L28.85 -3.9 31.15 -4.6 Q32.7 -4.6 34.8 -2.6 L37.05 -0.65 Q37.95 -0.65 38.3 -2.1 38.7 -3.55 40.9 -3.55 41.55 -3.55 42.65 -2.4 L43.95 -0.9 Q42.1 -0.45 42.0 0.8 42.6 2.25 43.7 2.25 44.7 2.25 44.95 1.3 L44.6 -0.45 Q48.2 -2.25 53.9 -4.15 57.8 -6.05 57.8 -10.3 L59.3 -14.5 Q59.3 -16.75 56.3 -19.2 56.85 -20.4 57.6 -23.6 57.6 -25.6 56.85 -27.0 55.7 -29.1 53.3 -28.45 52.3 -29.4 51.25 -31.2 L50.35 -32.85 Q47.0 -35.3 46.75 -35.95 45.8 -38.25 44.2 -38.95 42.8 -39.55 42.8 -39.65 42.8 -41.5 42.45 -42.2 41.9 -43.35 40.1 -43.35 38.05 -43.8 36.55 -44.8 34.7 -46.0 33.1 -47.95 31.85 -49.4 31.4 -49.4 29.6 -49.4 28.9 -48.1 L28.35 -46.25 24.8 -46.95 Q25.65 -48.25 24.5 -49.7 23.45 -51.05 22.2 -51.05 20.9 -51.05 19.75 -47.65 L17.25 -48.7 Q15.05 -49.55 15.05 -49.65 15.05 -50.95 14.85 -51.25 14.65 -51.6 13.65 -51.6 L12.8 -51.5 12.45 -51.05 12.35 -50.35 12.35 -49.35 11.3 -48.6 9.6 -50.05 8.45 -50.6 7.25 -50.35 6.8 -50.1 Q7.0 -51.25 5.9 -52.65 4.85 -54.0 4.1 -54.0 M8.8 -7.75 Q8.2 -7.2 8.2 -6.35 8.2 -5.5 8.8 -4.9 9.35 -4.35 10.2 -4.35 11.05 -4.35 11.65 -4.9 12.2 -5.5 12.2 -6.35 12.2 -7.2 11.65 -7.75 11.05 -8.35 10.2 -8.35 9.35 -8.35 8.8 -7.75 M52.3 -37.95 Q51.65 -38.6 50.7 -38.6 49.75 -38.6 49.1 -37.95 48.45 -37.3 48.45 -36.35 48.45 -35.4 49.1 -34.75 49.75 -34.1 50.7 -34.1 51.65 -34.1 52.3 -34.75 52.95 -35.4 52.95 -36.35 52.95 -37.3 52.3 -37.95 M63.85 -25.5 Q63.15 -26.2 62.2 -26.2 61.25 -26.2 60.55 -25.5 59.85 -24.8 59.85 -23.85 59.85 -22.9 60.55 -22.2 61.25 -21.5 62.2 -21.5 63.15 -21.5 63.85 -22.2 64.55 -22.9 64.55 -23.85 64.55 -24.8 63.85 -25.5 M58.9 -28.65 L59.2 -29.35 58.9 -30.05 58.2 -30.35 57.5 -30.05 Q57.2 -29.75 57.2 -29.35 57.2 -28.95 57.5 -28.65 57.8 -28.35 58.2 -28.35 58.6 -28.35 58.9 -28.65 M-9.05 -51.85 Q-9.8 -51.15 -9.8 -50.1 -9.8 -49.05 -9.05 -48.3 -8.35 -47.6 -7.3 -47.6 -6.25 -47.6 -5.5 -48.3 -4.8 -49.05 -4.8 -50.1 -4.8 -51.15 -5.5 -51.85 -6.25 -52.6 -7.3 -52.6 -8.35 -52.6 -9.05 -51.85 M62.95 -5.1 Q61.7 -5.1 60.85 -4.2 59.95 -3.35 59.95 -2.1 59.95 -0.85 60.85 0.05 61.7 0.9 62.95 0.9 64.2 0.9 65.1 0.05 65.95 -0.85 65.95 -2.1 65.95 -3.35 65.1 -4.2 64.2 -5.1 62.95 -5.1 M67.65 -13.75 Q67.05 -14.35 66.2 -14.35 65.35 -14.35 64.8 -13.75 64.2 -13.2 64.2 -12.35 64.2 -11.5 64.8 -10.9 65.35 -10.35 66.2 -10.35 67.05 -10.35 67.65 -10.9 68.2 -11.5 68.2 -12.35 68.2 -13.2 67.65 -13.75 M62.45 -13.85 Q61.75 -13.85 61.25 -13.3 60.7 -12.8 60.7 -12.1 60.7 -11.4 61.25 -10.85 61.75 -10.35 62.45 -10.35 63.15 -10.35 63.7 -10.85 64.2 -11.4 64.2 -12.1 64.2 -12.8 63.7 -13.3 63.15 -13.85 62.45 -13.85 M55.2 -2.1 Q54.25 -2.1 53.6 -1.45 52.95 -0.8 52.95 0.15 52.95 1.1 53.6 1.75 54.25 2.4 55.2 2.4 56.15 2.4 56.8 1.75 57.45 1.1 57.45 0.15 57.45 -0.8 56.8 -1.45 56.15 -2.1 55.2 -2.1 M-16.05 -41.55 Q-15.75 -41.25 -15.3 -41.25 -14.85 -41.25 -14.5 -41.55 -14.2 -41.9 -14.2 -42.35 -14.2 -42.8 -14.5 -43.1 -14.85 -43.45 -15.3 -43.45 -15.75 -43.45 -16.05 -43.1 L-16.4 -42.35 -16.05 -41.55 M-32.2 -31.25 Q-31.55 -31.9 -31.55 -32.85 -31.55 -33.8 -32.2 -34.45 -32.85 -35.1 -33.8 -35.1 -34.75 -35.1 -35.4 -34.45 -36.05 -33.8 -36.05 -32.85 -36.05 -31.9 -35.4 -31.25 -34.75 -30.6 -33.8 -30.6 -32.85 -30.6 -32.2 -31.25 M-25.15 -39.6 Q-25.15 -38.4 -24.3 -37.55 -23.5 -36.75 -22.3 -36.75 -21.1 -36.75 -20.25 -37.55 -19.45 -38.4 -19.45 -39.6 -19.45 -40.8 -20.25 -41.6 -21.1 -42.45 -22.3 -42.45 -23.5 -42.45 -24.3 -41.6 -25.15 -40.8 -25.15 -39.6 M-22.45 -9.35 Q-22.45 -9.8 -22.75 -10.1 -23.1 -10.45 -23.55 -10.45 -24.0 -10.45 -24.3 -10.1 -24.65 -9.8 -24.65 -9.35 -24.65 -8.9 -24.3 -8.55 -24.0 -8.25 -23.55 -8.25 -23.1 -8.25 -22.75 -8.55 -22.45 -8.9 -22.45 -9.35 M-32.3 -10.1 Q-32.3 -9.25 -31.7 -8.65 -31.15 -8.1 -30.3 -8.1 -29.45 -8.1 -28.85 -8.65 -28.3 -9.25 -28.3 -10.1 -28.3 -10.95 -28.85 -11.5 -29.45 -12.1 -30.3 -12.1 -31.15 -12.1 -31.7 -11.5 -32.3 -10.95 -32.3 -10.1 M52.5 4.95 Q51.95 5.45 51.95 6.15 51.95 6.85 52.5 7.4 53.0 7.9 53.7 7.9 54.4 7.9 54.95 7.4 55.45 6.85 55.45 6.15 55.45 5.45 54.95 4.95 54.4 4.4 53.7 4.4 53.0 4.4 52.5 4.95" fill="#a45017" fill-rule="evenodd" stroke="none"/>
    <path d="M4.1 -54.0 Q4.85 -54.0 5.9 -52.65 7.0 -51.25 6.8 -50.1 L7.25 -50.35 8.45 -50.6 9.6 -50.05 11.3 -48.6 12.35 -49.35 12.35 -50.35 12.45 -51.05 12.8 -51.5 13.65 -51.6 Q14.65 -51.6 14.85 -51.25 15.05 -50.95 15.05 -49.65 15.05 -49.55 17.25 -48.7 L19.75 -47.65 Q20.9 -51.05 22.2 -51.05 23.45 -51.05 24.5 -49.7 25.65 -48.25 24.8 -46.95 L28.35 -46.25 28.9 -48.1 Q29.6 -49.4 31.4 -49.4 31.85 -49.4 33.1 -47.95 34.7 -46.0 36.55 -44.8 38.05 -43.8 40.1 -43.35 41.9 -43.35 42.45 -42.2 42.8 -41.5 42.8 -39.65 42.8 -39.55 44.2 -38.95 45.8 -38.25 46.75 -35.95 47.0 -35.3 50.35 -32.85 L51.25 -31.2 Q52.3 -29.4 53.3 -28.45 55.7 -29.1 56.85 -27.0 57.6 -25.6 57.6 -23.6 56.85 -20.4 56.3 -19.2 59.3 -16.75 59.3 -14.5 L57.8 -10.3 Q57.8 -6.05 53.9 -4.15 48.2 -2.25 44.6 -0.45 L44.95 1.3 Q44.7 2.25 43.7 2.25 42.6 2.25 42.0 0.8 42.1 -0.45 43.95 -0.9 L42.65 -2.4 Q41.55 -3.55 40.9 -3.55 38.7 -3.55 38.3 -2.1 37.95 -0.65 37.05 -0.65 L34.8 -2.6 Q32.7 -4.6 31.15 -4.6 L28.85 -3.9 26.55 -3.2 Q22.3 -4.3 21.0 -5.3 20.1 -5.95 19.0 -6.0 L17.25 -5.9 Q15.9 -5.9 14.1 -7.7 12.3 -9.55 11.7 -9.55 L9.55 -9.05 7.4 -8.6 5.2 -9.0 3.0 -9.45 2.0 -8.7 Q0.85 -8.0 -0.35 -8.0 -1.25 -8.0 -3.35 -8.9 -5.7 -9.9 -6.85 -11.0 -9.0 -9.55 -10.55 -9.7 L-12.6 -10.15 Q-13.2 -10.15 -13.4 -9.75 L-13.55 -9.35 -14.9 -9.8 -15.1 -10.1 -15.3 -11.0 -15.15 -11.9 -14.55 -12.35 Q-15.45 -12.15 -16.95 -10.35 -18.45 -8.7 -19.1 -8.7 -20.35 -8.7 -24.55 -13.05 -26.65 -11.8 -27.8 -11.8 -29.3 -11.8 -30.85 -12.65 -32.95 -13.85 -32.95 -15.95 L-32.5 -18.05 -31.4 -20.5 -33.7 -20.65 Q-34.85 -20.85 -34.85 -22.9 L-34.6 -23.85 -33.8 -24.85 Q-32.5 -24.0 -31.5 -24.0 -29.3 -24.0 -27.2 -28.15 -24.95 -32.75 -21.9 -33.7 -20.35 -34.2 -19.2 -35.8 L-17.15 -38.2 Q-15.45 -39.45 -12.3 -39.6 -10.5 -39.65 -10.5 -42.05 -10.5 -42.55 -11.1 -43.05 -11.7 -43.6 -11.7 -44.1 L-10.65 -45.35 -9.05 -46.0 Q-8.55 -46.0 -8.2 -45.3 -7.85 -44.6 -7.35 -44.6 -2.7 -44.6 -0.65 -46.0 L3.05 -48.75 Q0.75 -50.9 1.05 -52.4 1.3 -54.0 4.1 -54.0 M14.85 -38.95 Q13.95 -39.85 12.7 -39.85 11.45 -39.85 10.6 -38.95 9.7 -38.1 9.7 -36.85 9.7 -35.6 10.6 -34.7 11.45 -33.85 12.7 -33.85 13.95 -33.85 14.85 -34.7 15.7 -35.6 15.7 -36.85 15.7 -38.1 14.85 -38.95 M16.7 -44.35 Q16.7 -45.05 16.2 -45.55 15.65 -46.1 14.95 -46.1 14.25 -46.1 13.75 -45.55 13.2 -45.05 13.2 -44.35 13.2 -43.65 13.75 -43.1 14.25 -42.6 14.95 -42.6 15.65 -42.6 16.2 -43.1 16.7 -43.65 16.7 -44.35 M40.45 -35.8 Q39.8 -36.45 38.95 -36.45 38.1 -36.45 37.5 -35.8 36.85 -35.2 36.85 -34.35 36.85 -33.5 37.5 -32.85 38.1 -32.25 38.95 -32.25 39.8 -32.25 40.45 -32.85 41.05 -33.5 41.05 -34.35 41.05 -35.2 40.45 -35.8 M20.75 -29.15 L20.5 -28.15 20.0 -28.35 20.75 -29.15 M24.75 -30.8 Q22.8 -30.8 21.2 -29.95 21.35 -32.3 20.35 -33.6 19.45 -34.7 17.95 -34.7 16.45 -34.7 15.25 -33.55 L14.1 -32.45 Q13.6 -32.45 11.65 -33.45 9.7 -34.45 9.2 -34.45 8.6 -34.45 7.95 -34.05 L7.4 -33.7 Q7.7 -37.15 6.3 -38.95 5.0 -38.9 3.65 -36.9 2.5 -35.1 2.5 -34.1 2.5 -33.5 2.7 -33.35 L2.85 -33.15 5.25 -32.85 Q6.15 -32.85 7.35 -33.6 6.9 -32.2 6.4 -31.55 L5.95 -31.15 4.5 -31.85 3.35 -32.3 1.6 -32.15 Q0.5 -32.1 0.15 -32.55 L-1.3 -33.65 -2.3 -34.1 Q-2.9 -34.1 -5.65 -30.75 -8.85 -26.85 -8.85 -23.65 -8.85 -22.3 -7.65 -21.4 -5.9 -20.05 -1.85 -20.05 0.75 -20.05 1.4 -20.5 L3.7 -23.7 Q4.65 -20.95 7.15 -20.95 L10.8 -21.75 10.15 -20.3 Q9.8 -19.35 9.8 -18.75 9.8 -17.15 10.5 -16.55 11.1 -16.05 12.55 -16.05 15.3 -16.05 16.1 -17.0 16.6 -17.55 16.85 -18.85 16.8 -19.55 18.4 -19.1 18.25 -18.5 18.35 -16.65 18.45 -14.85 18.65 -14.3 17.2 -14.4 16.2 -13.45 L15.5 -12.5 Q15.5 -11.85 16.0 -11.0 16.85 -9.65 18.6 -9.65 L19.5 -9.85 19.85 -10.05 20.05 -12.0 Q18.8 -13.05 21.05 -13.4 24.3 -13.85 25.05 -14.65 26.0 -13.4 27.75 -12.85 L29.55 -12.55 Q30.05 -12.55 31.05 -13.0 L32.5 -13.45 35.6 -13.05 Q38.1 -13.1 38.1 -15.3 38.1 -16.45 37.1 -17.5 L35.15 -19.3 36.05 -19.3 Q37.9 -19.25 39.15 -20.4 40.25 -21.4 40.25 -22.5 40.25 -23.8 39.35 -25.85 41.6 -27.15 41.6 -27.55 41.6 -29.4 38.4 -30.35 L37.75 -28.35 Q37.45 -27.45 35.6 -26.7 33.15 -25.7 32.45 -23.25 L29.85 -23.9 27.2 -24.3 Q28.15 -27.85 27.25 -29.5 26.55 -30.8 24.75 -30.8 M28.55 -35.25 Q27.45 -34.15 27.45 -32.6 27.45 -31.05 28.55 -29.95 29.65 -28.85 31.2 -28.85 32.75 -28.85 33.85 -29.95 34.95 -31.05 34.95 -32.6 34.95 -34.15 33.85 -35.25 32.75 -36.35 31.2 -36.35 29.65 -36.35 28.55 -35.25 M24.7 -37.85 Q24.7 -39.3 23.7 -40.3 22.65 -41.35 21.2 -41.35 19.75 -41.35 18.75 -40.3 17.7 -39.3 17.7 -37.85 17.7 -36.4 18.75 -35.35 19.75 -34.35 21.2 -34.35 22.65 -34.35 23.7 -35.35 24.7 -36.4 24.7 -37.85 M32.7 -41.1 Q32.7 -42.25 31.9 -43.05 31.1 -43.85 29.95 -43.85 28.8 -43.85 28.0 -43.05 27.2 -42.25 27.2 -41.1 27.2 -39.95 28.0 -39.15 28.8 -38.35 29.95 -38.35 31.1 -38.35 31.9 -39.15 32.7 -39.95 32.7 -41.1 M8.6 -47.9 Q7.55 -48.95 6.1 -48.95 4.65 -48.95 3.6 -47.9 2.55 -46.9 2.55 -45.45 2.55 -44.0 3.6 -42.95 4.65 -41.95 6.1 -41.95 7.55 -41.95 8.6 -42.95 9.65 -44.0 9.65 -45.45 9.65 -46.9 8.6 -47.9 M2.3 -14.1 Q2.3 -15.05 1.6 -15.75 0.9 -16.45 -0.05 -16.45 -1.0 -16.45 -1.7 -15.75 -2.4 -15.05 -2.4 -14.1 -2.4 -13.15 -1.7 -12.45 -1.0 -11.75 -0.05 -11.75 0.9 -11.75 1.6 -12.45 2.3 -13.15 2.3 -14.1 M4.45 -19.85 Q3.6 -19.85 3.05 -19.25 2.45 -18.7 2.45 -17.85 2.45 -17.0 3.05 -16.4 3.6 -15.85 4.45 -15.85 5.3 -15.85 5.9 -16.4 6.45 -17.0 6.45 -17.85 6.45 -18.7 5.9 -19.25 5.3 -19.85 4.45 -19.85 M0.25 -36.05 Q0.7 -36.5 0.7 -37.1 L0.25 -38.15 Q-0.2 -38.6 -0.8 -38.6 -1.4 -38.6 -1.85 -38.15 -2.3 -37.7 -2.3 -37.1 -2.3 -36.5 -1.85 -36.05 -1.4 -35.6 -0.8 -35.6 -0.2 -35.6 0.25 -36.05 M8.8 -7.75 Q9.35 -8.35 10.2 -8.35 11.05 -8.35 11.65 -7.75 12.2 -7.2 12.2 -6.35 12.2 -5.5 11.65 -4.9 11.05 -4.35 10.2 -4.35 9.35 -4.35 8.8 -4.9 8.2 -5.5 8.2 -6.35 8.2 -7.2 8.8 -7.75 M36.7 -6.35 Q37.75 -6.35 38.5 -7.05 39.2 -7.8 39.2 -8.85 39.2 -9.9 38.5 -10.6 37.75 -11.35 36.7 -11.35 35.65 -11.35 34.95 -10.6 34.2 -9.9 34.2 -8.85 34.2 -7.8 34.95 -7.05 35.65 -6.35 36.7 -6.35 M27.1 -10.7 Q26.6 -11.2 25.95 -11.2 25.3 -11.2 24.85 -10.7 24.35 -10.25 24.35 -9.6 24.35 -8.95 24.85 -8.45 25.3 -8.0 25.95 -8.0 26.6 -8.0 27.1 -8.45 27.55 -8.95 27.55 -9.6 27.55 -10.25 27.1 -10.7 M63.85 -25.5 Q64.55 -24.8 64.55 -23.85 64.55 -22.9 63.85 -22.2 63.15 -21.5 62.2 -21.5 61.25 -21.5 60.55 -22.2 59.85 -22.9 59.85 -23.85 59.85 -24.8 60.55 -25.5 61.25 -26.2 62.2 -26.2 63.15 -26.2 63.85 -25.5 M52.3 -37.95 Q52.95 -37.3 52.95 -36.35 52.95 -35.4 52.3 -34.75 51.65 -34.1 50.7 -34.1 49.75 -34.1 49.1 -34.75 48.45 -35.4 48.45 -36.35 48.45 -37.3 49.1 -37.95 49.75 -38.6 50.7 -38.6 51.65 -38.6 52.3 -37.95 M44.65 -26.9 Q44.1 -26.35 44.1 -25.6 44.1 -24.85 44.65 -24.3 45.2 -23.75 45.95 -23.75 46.7 -23.75 47.25 -24.3 47.8 -24.85 47.8 -25.6 47.8 -26.35 47.25 -26.9 46.7 -27.45 45.95 -27.45 45.2 -27.45 44.65 -26.9 M58.9 -28.65 Q58.6 -28.35 58.2 -28.35 57.8 -28.35 57.5 -28.65 57.2 -28.95 57.2 -29.35 57.2 -29.75 57.5 -30.05 L58.2 -30.35 58.9 -30.05 59.2 -29.35 58.9 -28.65 M46.9 -8.4 Q46.45 -7.95 46.45 -7.35 46.45 -6.75 46.9 -6.3 47.35 -5.85 47.95 -5.85 48.55 -5.85 49.0 -6.3 49.45 -6.75 49.45 -7.35 L49.0 -8.4 Q48.55 -8.85 47.95 -8.85 47.35 -8.85 46.9 -8.4 M43.95 -14.1 Q43.95 -14.8 43.45 -15.3 42.9 -15.85 42.2 -15.85 41.5 -15.85 41.0 -15.3 40.45 -14.8 40.45 -14.1 40.45 -13.4 41.0 -12.85 41.5 -12.35 42.2 -12.35 42.9 -12.35 43.45 -12.85 43.95 -13.4 43.95 -14.1 M51.05 -14.25 Q52.2 -15.45 52.2 -17.1 52.2 -18.75 51.05 -19.9 49.85 -21.1 48.2 -21.1 46.55 -21.1 45.4 -19.9 44.2 -18.75 44.2 -17.1 44.2 -15.45 45.4 -14.25 46.55 -13.1 48.2 -13.1 49.85 -13.1 51.05 -14.25 M55.2 -2.1 Q56.15 -2.1 56.8 -1.45 57.45 -0.8 57.45 0.15 57.45 1.1 56.8 1.75 56.15 2.4 55.2 2.4 54.25 2.4 53.6 1.75 52.95 1.1 52.95 0.15 52.95 -0.8 53.6 -1.45 54.25 -2.1 55.2 -2.1 M62.45 -13.85 Q63.15 -13.85 63.7 -13.3 64.2 -12.8 64.2 -12.1 64.2 -11.4 63.7 -10.85 63.15 -10.35 62.45 -10.35 61.75 -10.35 61.25 -10.85 60.7 -11.4 60.7 -12.1 60.7 -12.8 61.25 -13.3 61.75 -13.85 62.45 -13.85 M67.65 -13.75 Q68.2 -13.2 68.2 -12.35 68.2 -11.5 67.65 -10.9 67.05 -10.35 66.2 -10.35 65.35 -10.35 64.8 -10.9 64.2 -11.5 64.2 -12.35 64.2 -13.2 64.8 -13.75 65.35 -14.35 66.2 -14.35 67.05 -14.35 67.65 -13.75 M62.95 -5.1 Q64.2 -5.1 65.1 -4.2 65.95 -3.35 65.95 -2.1 65.95 -0.85 65.1 0.05 64.2 0.9 62.95 0.9 61.7 0.9 60.85 0.05 59.95 -0.85 59.95 -2.1 59.95 -3.35 60.85 -4.2 61.7 -5.1 62.95 -5.1 M-9.05 -51.85 Q-8.35 -52.6 -7.3 -52.6 -6.25 -52.6 -5.5 -51.85 -4.8 -51.15 -4.8 -50.1 -4.8 -49.05 -5.5 -48.3 -6.25 -47.6 -7.3 -47.6 -8.35 -47.6 -9.05 -48.3 -9.8 -49.05 -9.8 -50.1 -9.8 -51.15 -9.05 -51.85 M-7.4 -40.95 Q-8.15 -40.2 -8.15 -39.1 -8.15 -38.0 -7.4 -37.25 -6.65 -36.5 -5.55 -36.5 -4.45 -36.5 -3.7 -37.25 -2.95 -38.0 -2.95 -39.1 -2.95 -40.2 -3.7 -40.95 -4.45 -41.7 -5.55 -41.7 -6.65 -41.7 -7.4 -40.95 M-16.05 -41.55 L-16.4 -42.35 -16.05 -43.1 Q-15.75 -43.45 -15.3 -43.45 -14.85 -43.45 -14.5 -43.1 -14.2 -42.8 -14.2 -42.35 -14.2 -41.9 -14.5 -41.55 -14.85 -41.25 -15.3 -41.25 -15.75 -41.25 -16.05 -41.55 M-16.5 -30.8 Q-17.3 -30.0 -17.3 -28.85 -17.3 -27.7 -16.5 -26.9 -15.7 -26.1 -14.55 -26.1 -13.4 -26.1 -12.6 -26.9 -11.8 -27.7 -11.8 -28.85 -11.8 -30.0 -12.6 -30.8 -13.4 -31.6 -14.55 -31.6 -15.7 -31.6 -16.5 -30.8 M-16.55 -35.1 Q-17.05 -35.1 -17.4 -34.7 L-17.8 -33.85 Q-17.8 -33.35 -17.4 -32.95 -17.05 -32.6 -16.55 -32.6 -16.05 -32.6 -15.65 -32.95 -15.3 -33.35 -15.3 -33.85 -15.3 -34.35 -15.65 -34.7 -16.05 -35.1 -16.55 -35.1 M-10.8 -35.1 Q-11.75 -35.1 -12.4 -34.45 -13.05 -33.8 -13.05 -32.85 -13.05 -31.9 -12.4 -31.25 -11.75 -30.6 -10.8 -30.6 -9.85 -30.6 -9.2 -31.25 -8.55 -31.9 -8.55 -32.85 -8.55 -33.8 -9.2 -34.45 -9.85 -35.1 -10.8 -35.1 M-25.15 -39.6 Q-25.15 -40.8 -24.3 -41.6 -23.5 -42.45 -22.3 -42.45 -21.1 -42.45 -20.25 -41.6 -19.45 -40.8 -19.45 -39.6 -19.45 -38.4 -20.25 -37.55 -21.1 -36.75 -22.3 -36.75 -23.5 -36.75 -24.3 -37.55 -25.15 -38.4 -25.15 -39.6 M-32.2 -31.25 Q-32.85 -30.6 -33.8 -30.6 -34.75 -30.6 -35.4 -31.25 -36.05 -31.9 -36.05 -32.85 -36.05 -33.8 -35.4 -34.45 -34.75 -35.1 -33.8 -35.1 -32.85 -35.1 -32.2 -34.45 -31.55 -33.8 -31.55 -32.85 -31.55 -31.9 -32.2 -31.25 M-22.7 -13.65 Q-22.15 -13.1 -21.3 -13.1 -20.45 -13.1 -19.85 -13.65 -19.3 -14.25 -19.3 -15.1 -19.3 -15.95 -19.85 -16.5 -20.45 -17.1 -21.3 -17.1 -22.15 -17.1 -22.7 -16.5 -23.3 -15.95 -23.3 -15.1 -23.3 -14.25 -22.7 -13.65 M-28.3 -21.1 Q-29.15 -21.1 -29.7 -20.5 -30.3 -19.95 -30.3 -19.1 -30.3 -18.25 -29.7 -17.65 -29.15 -17.1 -28.3 -17.1 -27.45 -17.1 -26.85 -17.65 -26.3 -18.25 -26.3 -19.1 -26.3 -19.95 -26.85 -20.5 -27.45 -21.1 -28.3 -21.1 M-21.05 -27.2 Q-22.55 -27.2 -23.6 -26.15 -24.65 -25.1 -24.65 -23.6 -24.65 -22.1 -23.6 -21.05 -22.55 -20.0 -21.05 -20.0 -19.55 -20.0 -18.5 -21.05 -17.45 -22.1 -17.45 -23.6 -17.45 -25.1 -18.5 -26.15 -19.55 -27.2 -21.05 -27.2 M-32.3 -10.1 Q-32.3 -10.95 -31.7 -11.5 -31.15 -12.1 -30.3 -12.1 -29.45 -12.1 -28.85 -11.5 -28.3 -10.95 -28.3 -10.1 -28.3 -9.25 -28.85 -8.65 -29.45 -8.1 -30.3 -8.1 -31.15 -8.1 -31.7 -8.65 -32.3 -9.25 -32.3 -10.1 M-22.45 -9.35 Q-22.45 -8.9 -22.75 -8.55 -23.1 -8.25 -23.55 -8.25 -24.0 -8.25 -24.3 -8.55 -24.65 -8.9 -24.65 -9.35 -24.65 -9.8 -24.3 -10.1 -24.0 -10.45 -23.55 -10.45 -23.1 -10.45 -22.75 -10.1 -22.45 -9.8 -22.45 -9.35 M-10.65 -22.45 Q-11.55 -23.35 -12.8 -23.35 -14.05 -23.35 -14.9 -22.45 -15.8 -21.6 -15.8 -20.35 -15.8 -19.1 -14.9 -18.2 -14.05 -17.35 -12.8 -17.35 -11.55 -17.35 -10.65 -18.2 -9.8 -19.1 -9.8 -20.35 -9.8 -21.6 -10.65 -22.45 M-5.9 -15.45 Q-6.3 -15.85 -6.8 -15.85 -7.3 -15.85 -7.65 -15.45 -8.05 -15.1 -8.05 -14.6 -8.05 -14.1 -7.65 -13.7 -7.3 -13.35 -6.8 -13.35 -6.3 -13.35 -5.9 -13.7 -5.55 -14.1 -5.55 -14.6 -5.55 -15.1 -5.9 -15.45 M52.5 4.95 Q53.0 4.4 53.7 4.4 54.4 4.4 54.95 4.95 55.45 5.45 55.45 6.15 55.45 6.85 54.95 7.4 54.4 7.9 53.7 7.9 53.0 7.9 52.5 7.4 51.95 6.85 51.95 6.15 51.95 5.45 52.5 4.95" fill="#e1752d" fill-rule="evenodd" stroke="none"/>
    <path d="M32.7 -41.1 Q32.7 -39.95 31.9 -39.15 31.1 -38.35 29.95 -38.35 28.8 -38.35 28.0 -39.15 27.2 -39.95 27.2 -41.1 27.2 -42.25 28.0 -43.05 28.8 -43.85 29.95 -43.85 31.1 -43.85 31.9 -43.05 32.7 -42.25 32.7 -41.1 M24.7 -37.85 Q24.7 -36.4 23.7 -35.35 22.65 -34.35 21.2 -34.35 19.75 -34.35 18.75 -35.35 17.7 -36.4 17.7 -37.85 17.7 -39.3 18.75 -40.3 19.75 -41.35 21.2 -41.35 22.65 -41.35 23.7 -40.3 24.7 -39.3 24.7 -37.85 M28.55 -35.25 Q29.65 -36.35 31.2 -36.35 32.75 -36.35 33.85 -35.25 34.95 -34.15 34.95 -32.6 34.95 -31.05 33.85 -29.95 32.75 -28.85 31.2 -28.85 29.65 -28.85 28.55 -29.95 27.45 -31.05 27.45 -32.6 27.45 -34.15 28.55 -35.25 M24.75 -30.8 Q26.55 -30.8 27.25 -29.5 28.15 -27.85 27.2 -24.3 L29.85 -23.9 32.45 -23.25 Q33.15 -25.7 35.6 -26.7 37.45 -27.45 37.75 -28.35 L38.4 -30.35 Q41.6 -29.4 41.6 -27.55 41.6 -27.15 39.35 -25.85 40.25 -23.8 40.25 -22.5 40.25 -21.4 39.15 -20.4 37.9 -19.25 36.05 -19.3 L35.15 -19.3 37.1 -17.5 Q38.1 -16.45 38.1 -15.3 38.1 -13.1 35.6 -13.05 L32.5 -13.45 31.05 -13.0 Q30.05 -12.55 29.55 -12.55 L27.75 -12.85 Q26.0 -13.4 25.05 -14.65 24.3 -13.85 21.05 -13.4 18.8 -13.05 20.05 -12.0 L19.85 -10.05 19.5 -9.85 18.6 -9.65 Q16.85 -9.65 16.0 -11.0 15.5 -11.85 15.5 -12.5 L16.2 -13.45 Q17.2 -14.4 18.65 -14.3 18.45 -14.85 18.35 -16.65 18.25 -18.5 18.4 -19.1 16.8 -19.55 16.85 -18.85 16.6 -17.55 16.1 -17.0 15.3 -16.05 12.55 -16.05 11.1 -16.05 10.5 -16.55 9.8 -17.15 9.8 -18.75 9.8 -19.35 10.15 -20.3 L10.8 -21.75 7.15 -20.95 Q4.65 -20.95 3.7 -23.7 L1.4 -20.5 Q0.75 -20.05 -1.85 -20.05 -5.9 -20.05 -7.65 -21.4 -8.85 -22.3 -8.85 -23.65 -8.85 -26.85 -5.65 -30.75 -2.9 -34.1 -2.3 -34.1 L-1.3 -33.65 0.15 -32.55 Q0.5 -32.1 1.6 -32.15 L3.35 -32.3 4.5 -31.85 5.95 -31.15 6.4 -31.55 Q6.9 -32.2 7.35 -33.6 6.15 -32.85 5.25 -32.85 L2.85 -33.15 2.7 -33.35 Q2.5 -33.5 2.5 -34.1 2.5 -35.1 3.65 -36.9 5.0 -38.9 6.3 -38.95 7.7 -37.15 7.4 -33.7 L7.95 -34.05 Q8.6 -34.45 9.2 -34.45 9.7 -34.45 11.65 -33.45 13.6 -32.45 14.1 -32.45 L15.25 -33.55 Q16.45 -34.7 17.95 -34.7 19.45 -34.7 20.35 -33.6 21.35 -32.3 21.2 -29.95 22.8 -30.8 24.75 -30.8 M20.75 -29.15 L20.0 -28.35 20.5 -28.15 20.75 -29.15 M40.45 -35.8 Q41.05 -35.2 41.05 -34.35 41.05 -33.5 40.45 -32.85 39.8 -32.25 38.95 -32.25 38.1 -32.25 37.5 -32.85 36.85 -33.5 36.85 -34.35 36.85 -35.2 37.5 -35.8 38.1 -36.45 38.95 -36.45 39.8 -36.45 40.45 -35.8 M16.7 -44.35 Q16.7 -43.65 16.2 -43.1 15.65 -42.6 14.95 -42.6 14.25 -42.6 13.75 -43.1 13.2 -43.65 13.2 -44.35 13.2 -45.05 13.75 -45.55 14.25 -46.1 14.95 -46.1 15.65 -46.1 16.2 -45.55 16.7 -45.05 16.7 -44.35 M14.85 -38.95 Q15.7 -38.1 15.7 -36.85 15.7 -35.6 14.85 -34.7 13.95 -33.85 12.7 -33.85 11.45 -33.85 10.6 -34.7 9.7 -35.6 9.7 -36.85 9.7 -38.1 10.6 -38.95 11.45 -39.85 12.7 -39.85 13.95 -39.85 14.85 -38.95 M8.6 -47.9 Q9.65 -46.9 9.65 -45.45 9.65 -44.0 8.6 -42.95 7.55 -41.95 6.1 -41.95 4.65 -41.95 3.6 -42.95 2.55 -44.0 2.55 -45.45 2.55 -46.9 3.6 -47.9 4.65 -48.95 6.1 -48.95 7.55 -48.95 8.6 -47.9 M0.25 -36.05 Q-0.2 -35.6 -0.8 -35.6 -1.4 -35.6 -1.85 -36.05 -2.3 -36.5 -2.3 -37.1 -2.3 -37.7 -1.85 -38.15 -1.4 -38.6 -0.8 -38.6 -0.2 -38.6 0.25 -38.15 L0.7 -37.1 Q0.7 -36.5 0.25 -36.05 M4.45 -19.85 Q5.3 -19.85 5.9 -19.25 6.45 -18.7 6.45 -17.85 6.45 -17.0 5.9 -16.4 5.3 -15.85 4.45 -15.85 3.6 -15.85 3.05 -16.4 2.45 -17.0 2.45 -17.85 2.45 -18.7 3.05 -19.25 3.6 -19.85 4.45 -19.85 M2.3 -14.1 Q2.3 -13.15 1.6 -12.45 0.9 -11.75 -0.05 -11.75 -1.0 -11.75 -1.7 -12.45 -2.4 -13.15 -2.4 -14.1 -2.4 -15.05 -1.7 -15.75 -1.0 -16.45 -0.05 -16.45 0.9 -16.45 1.6 -15.75 2.3 -15.05 2.3 -14.1 M27.1 -10.7 Q27.55 -10.25 27.55 -9.6 27.55 -8.95 27.1 -8.45 26.6 -8.0 25.95 -8.0 25.3 -8.0 24.85 -8.45 24.35 -8.95 24.35 -9.6 24.35 -10.25 24.85 -10.7 25.3 -11.2 25.95 -11.2 26.6 -11.2 27.1 -10.7 M36.7 -6.35 Q35.65 -6.35 34.95 -7.05 34.2 -7.8 34.2 -8.85 34.2 -9.9 34.95 -10.6 35.65 -11.35 36.7 -11.35 37.75 -11.35 38.5 -10.6 39.2 -9.9 39.2 -8.85 39.2 -7.8 38.5 -7.05 37.75 -6.35 36.7 -6.35 M44.65 -26.9 Q45.2 -27.45 45.95 -27.45 46.7 -27.45 47.25 -26.9 47.8 -26.35 47.8 -25.6 47.8 -24.85 47.25 -24.3 46.7 -23.75 45.95 -23.75 45.2 -23.75 44.65 -24.3 44.1 -24.85 44.1 -25.6 44.1 -26.35 44.65 -26.9 M51.05 -14.25 Q49.85 -13.1 48.2 -13.1 46.55 -13.1 45.4 -14.25 44.2 -15.45 44.2 -17.1 44.2 -18.75 45.4 -19.9 46.55 -21.1 48.2 -21.1 49.85 -21.1 51.05 -19.9 52.2 -18.75 52.2 -17.1 52.2 -15.45 51.05 -14.25 M43.95 -14.1 Q43.95 -13.4 43.45 -12.85 42.9 -12.35 42.2 -12.35 41.5 -12.35 41.0 -12.85 40.45 -13.4 40.45 -14.1 40.45 -14.8 41.0 -15.3 41.5 -15.85 42.2 -15.85 42.9 -15.85 43.45 -15.3 43.95 -14.8 43.95 -14.1 M46.9 -8.4 Q47.35 -8.85 47.95 -8.85 48.55 -8.85 49.0 -8.4 L49.45 -7.35 Q49.45 -6.75 49.0 -6.3 48.55 -5.85 47.95 -5.85 47.35 -5.85 46.9 -6.3 46.45 -6.75 46.45 -7.35 46.45 -7.95 46.9 -8.4 M-7.4 -40.95 Q-6.65 -41.7 -5.55 -41.7 -4.45 -41.7 -3.7 -40.95 -2.95 -40.2 -2.95 -39.1 -2.95 -38.0 -3.7 -37.25 -4.45 -36.5 -5.55 -36.5 -6.65 -36.5 -7.4 -37.25 -8.15 -38.0 -8.15 -39.1 -8.15 -40.2 -7.4 -40.95 M-10.8 -35.1 Q-9.85 -35.1 -9.2 -34.45 -8.55 -33.8 -8.55 -32.85 -8.55 -31.9 -9.2 -31.25 -9.85 -30.6 -10.8 -30.6 -11.75 -30.6 -12.4 -31.25 -13.05 -31.9 -13.05 -32.85 -13.05 -33.8 -12.4 -34.45 -11.75 -35.1 -10.8 -35.1 M-16.55 -35.1 Q-16.05 -35.1 -15.65 -34.7 -15.3 -34.35 -15.3 -33.85 -15.3 -33.35 -15.65 -32.95 -16.05 -32.6 -16.55 -32.6 -17.05 -32.6 -17.4 -32.95 -17.8 -33.35 -17.8 -33.85 L-17.4 -34.7 Q-17.05 -35.1 -16.55 -35.1 M-16.5 -30.8 Q-15.7 -31.6 -14.55 -31.6 -13.4 -31.6 -12.6 -30.8 -11.8 -30.0 -11.8 -28.85 -11.8 -27.7 -12.6 -26.9 -13.4 -26.1 -14.55 -26.1 -15.7 -26.1 -16.5 -26.9 -17.3 -27.7 -17.3 -28.85 -17.3 -30.0 -16.5 -30.8 M-21.05 -27.2 Q-19.55 -27.2 -18.5 -26.15 -17.45 -25.1 -17.45 -23.6 -17.45 -22.1 -18.5 -21.05 -19.55 -20.0 -21.05 -20.0 -22.55 -20.0 -23.6 -21.05 -24.65 -22.1 -24.65 -23.6 -24.65 -25.1 -23.6 -26.15 -22.55 -27.2 -21.05 -27.2 M-28.3 -21.1 Q-27.45 -21.1 -26.85 -20.5 -26.3 -19.95 -26.3 -19.1 -26.3 -18.25 -26.85 -17.65 -27.45 -17.1 -28.3 -17.1 -29.15 -17.1 -29.7 -17.65 -30.3 -18.25 -30.3 -19.1 -30.3 -19.95 -29.7 -20.5 -29.15 -21.1 -28.3 -21.1 M-22.7 -13.65 Q-23.3 -14.25 -23.3 -15.1 -23.3 -15.95 -22.7 -16.5 -22.15 -17.1 -21.3 -17.1 -20.45 -17.1 -19.85 -16.5 -19.3 -15.95 -19.3 -15.1 -19.3 -14.25 -19.85 -13.65 -20.45 -13.1 -21.3 -13.1 -22.15 -13.1 -22.7 -13.65 M-5.9 -15.45 Q-5.55 -15.1 -5.55 -14.6 -5.55 -14.1 -5.9 -13.7 -6.3 -13.35 -6.8 -13.35 -7.3 -13.35 -7.65 -13.7 -8.05 -14.1 -8.05 -14.6 -8.05 -15.1 -7.65 -15.45 -7.3 -15.85 -6.8 -15.85 -6.3 -15.85 -5.9 -15.45 M-10.65 -22.45 Q-9.8 -21.6 -9.8 -20.35 -9.8 -19.1 -10.65 -18.2 -11.55 -17.35 -12.8 -17.35 -14.05 -17.35 -14.9 -18.2 -15.8 -19.1 -15.8 -20.35 -15.8 -21.6 -14.9 -22.45 -14.05 -23.35 -12.8 -23.35 -11.55 -23.35 -10.65 -22.45" fill="#f7a357" fill-rule="evenodd" stroke="none"/>
    <path d="M12.15 -2.05 L12.2 2.75 -3.5 0.35 -3.9 0.3 -3.05 -4.3 12.15 -2.05 M13.95 3.05 L14.15 -1.7 18.85 -0.7 18.7 4.0 18.45 3.95 14.05 3.1 13.95 3.05 M21.8 -0.05 L30.2 2.15 29.65 6.5 21.15 4.5 21.8 -0.05 M-11.35 -4.85 L-6.7 -4.65 -6.95 -0.05 -7.6 -0.1 -11.7 -0.45 -11.75 -0.45 -11.35 -4.85" fill="#63a4d3" fill-rule="evenodd" stroke="none"/>
    <path d="M12.15 -2.05 L14.15 -1.7 13.95 3.05 13.0 2.9 12.2 2.75 12.15 -2.05 M18.85 -0.7 L21.8 -0.05 21.15 4.5 20.85 4.4 18.7 4.0 18.85 -0.7 M30.2 2.15 Q35.4 3.8 38.25 4.9 L42.4 6.6 41.9 8.2 Q41.65 9.5 41.7 10.25 L38.0 8.9 29.95 6.55 29.65 6.5 30.2 2.15 M-18.2 -4.75 L-11.35 -4.85 -11.75 -0.45 -17.85 -0.8 -19.05 -0.8 -18.2 -4.75 M-6.7 -4.65 L-3.05 -4.3 -3.9 0.3 -6.35 0.05 -7.6 -0.1 -6.95 -0.05 -6.7 -4.65" fill="#3585bf" fill-rule="evenodd" stroke="none"/>
    <path d="M47.75 13.2 Q46.9 17.7 46.2 18.8 45.35 20.15 43.05 20.15 42.45 20.15 42.2 19.85 L41.25 18.0 41.3 17.7 41.4 16.9 Q41.4 16.6 36.45 15.2 28.6 13.0 12.3 9.35 2.5 7.2 -11.55 6.15 L-23.9 5.55 Q-24.1 5.7 -24.1 6.15 -24.1 6.7 -24.4 6.9 L-25.65 7.95 -25.55 8.1 -26.2 8.25 Q-26.75 8.25 -27.6 7.7 -29.05 6.7 -29.85 4.7 L-28.6 -2.55 Q-28.6 -4.0 -27.25 -5.0 -25.9 -6.0 -23.95 -6.0 L-19.35 -6.25 Q1.8 -6.25 24.5 -1.0 48.25 4.45 48.25 10.25 L47.75 13.2 M14.15 -1.7 L12.15 -2.05 -3.05 -4.3 -6.7 -4.65 -11.35 -4.85 -18.2 -4.75 Q-21.8 -4.75 -24.35 -3.4 -26.95 -2.1 -26.95 -0.2 L-27.55 3.35 -18.35 2.8 -12.5 3.05 -6.9 3.55 -3.1 4.0 11.25 6.2 17.4 7.4 19.85 7.9 29.25 10.1 37.5 12.5 41.35 13.9 Q41.7 13.95 45.25 15.95 L45.9 12.4 Q45.9 10.0 44.9 8.3 43.85 6.6 42.4 6.6 L38.25 4.9 Q35.4 3.8 30.2 2.15 L21.8 -0.05 18.85 -0.7 14.15 -1.7 M-16.45 3.9 L-21.15 3.75 -24.3 3.95 -27.75 4.4 -27.85 5.0 -26.35 6.1 -25.5 4.6 Q-24.3 3.9 -19.95 3.9 -8.55 3.9 17.15 9.0 44.85 14.5 43.1 18.1 L44.55 17.95 Q45.0 17.6 45.1 16.95 40.85 14.3 29.5 10.95 11.75 5.7 -9.5 4.35 L-16.45 3.9" fill="#3f3f3f" fill-rule="evenodd" stroke="none"/>
    <path d="M13.0 2.9 L13.95 3.05 14.05 3.1 12.9 5.1 13.0 2.9 M41.35 13.9 L37.5 12.5 29.25 10.1 Q29.7 9.1 29.95 6.55 L38.0 8.9 41.7 10.25 41.9 10.3 41.35 13.9 M19.85 7.9 L17.4 7.4 18.45 3.95 18.7 4.0 20.85 4.4 19.85 7.9 M-3.1 4.0 L-6.9 3.55 -6.7 1.75 -6.35 0.05 -3.9 0.3 -3.5 0.35 -4.85 2.65 Q-4.85 3.3 -3.1 4.0 M-12.5 3.05 L-18.35 2.8 -17.85 -0.8 -11.75 -0.45 -11.7 -0.45 -12.1 1.4 -12.5 3.05" fill="#e2e2e2" fill-rule="evenodd" stroke="none"/>
    <path d="M42.4 6.6 Q43.85 6.6 44.9 8.3 45.9 10.0 45.9 12.4 L41.9 10.3 41.7 10.25 Q41.65 9.5 41.9 8.2 L42.4 6.6 M-26.95 -0.2 Q-26.95 -2.1 -24.35 -3.4 -21.8 -4.75 -18.2 -4.75 L-19.05 -0.8 -26.95 -0.2" fill="#235981" fill-rule="evenodd" stroke="none"/>
    <path d="M45.9 12.4 L45.25 15.95 Q41.7 13.95 41.35 13.9 L41.9 10.3 45.9 12.4 M-18.35 2.8 L-27.55 3.35 -26.95 -0.2 -19.05 -0.8 -17.85 -0.8 -18.35 2.8" fill="#cdcdcd" fill-rule="evenodd" stroke="none"/>
    <path d="M-16.45 3.9 L-9.5 4.35 Q11.75 5.7 29.5 10.95 40.85 14.3 45.1 16.95 45.0 17.6 44.55 17.95 L43.1 18.1 Q44.85 14.5 17.15 9.0 -8.55 3.9 -19.95 3.9 -24.3 3.9 -25.5 4.6 L-26.35 6.1 -27.85 5.0 -27.75 4.4 -24.3 3.95 -21.15 3.75 -16.45 3.9" fill="#ad9e87" fill-rule="evenodd" stroke="none"/>
    <path d="M12.2 2.75 L13.0 2.9 12.9 5.1 14.05 3.1 18.45 3.95 17.4 7.4 11.25 6.2 -3.1 4.0 Q-4.85 3.3 -4.85 2.65 L-3.5 0.35 12.2 2.75 M29.25 10.1 L19.85 7.9 20.85 4.4 21.15 4.5 29.65 6.5 29.95 6.55 Q29.7 9.1 29.25 10.1 M-6.9 3.55 L-12.5 3.05 -12.1 1.4 -11.7 -0.45 -7.6 -0.1 -6.35 0.05 -6.7 1.75 -6.9 3.55" fill="#f8f8f8" fill-rule="evenodd" stroke="none"/>
  </g>
</svg>
