<?xml version="1.0" encoding="UTF-8" standalone="no"?>
<svg xmlns:ffdec="https://www.free-decompiler.com/flash" xmlns:xlink="http://www.w3.org/1999/xlink" ffdec:objectType="shape" height="11.1px" width="11.6px" xmlns="http://www.w3.org/2000/svg">
  <g transform="matrix(1.0, 0.0, 0.0, 1.0, 12.15, 3.9)">
    <path d="M-7.55 -0.1 L-7.7 -0.05 -8.0 0.2 -8.05 0.25 -8.4 0.75 -8.45 0.85 -8.65 1.65 Q-8.65 2.45 -8.05 3.05 -7.35 3.7 -6.4 3.7 -5.4 3.7 -4.7 3.1 L-4.65 3.05 Q-4.05 2.45 -4.05 1.65 -4.05 0.8 -4.65 0.25 -5.4 -0.4 -6.4 -0.4 L-7.55 -0.1 M-10.4 -2.35 L-10.45 -2.25 Q-9.85 -2.95 -9.1 -3.25 L-9.2 -3.2 Q-7.9 -3.9 -6.4 -3.9 -4.0 -3.9 -2.3 -2.35 -0.55 -0.7 -0.55 1.65 -0.55 3.95 -2.3 5.65 -4.0 7.2 -6.4 7.2 -8.75 7.2 -10.4 5.65 L-10.45 5.6 Q-12.15 3.9 -12.15 1.65 -12.15 0.4 -11.65 -0.6 -11.3 -1.55 -10.4 -2.35" fill="#000000" fill-rule="evenodd" stroke="none"/>
    <path d="M-7.55 -0.1 L-6.4 -0.4 Q-5.4 -0.4 -4.65 0.25 -4.05 0.8 -4.05 1.65 -4.05 2.45 -4.65 3.05 L-4.7 3.1 Q-5.4 3.7 -6.4 3.7 -7.35 3.7 -8.05 3.05 -8.65 2.45 -8.65 1.65 L-8.45 0.85 -8.4 0.75 -8.05 0.25 -8.0 0.2 -7.7 -0.05 -7.55 -0.1" fill="#ffc58a" fill-rule="evenodd" stroke="none"/>
  </g>
</svg>
