<?xml version="1.0" encoding="UTF-8" standalone="no"?>
<svg xmlns:ffdec="https://www.free-decompiler.com/flash" xmlns:xlink="http://www.w3.org/1999/xlink" ffdec:objectType="shape" height="19.7px" width="14.25px" xmlns="http://www.w3.org/2000/svg">
  <g transform="matrix(1.0, 0.0, 0.0, 1.0, -2.3, 11.0)">
    <path d="M7.9 -6.85 L7.1 -5.9 7.05 -5.85 6.2 -4.0 Q5.75 -2.75 5.8 -1.2 L5.8 -1.15 Q5.8 1.6 7.05 3.6 8.05 5.05 9.4 5.2 10.75 5.05 11.75 3.6 13.05 1.6 13.05 -1.15 13.05 -3.9 11.75 -5.85 L11.75 -5.9 Q10.75 -7.4 9.4 -7.5 8.6 -7.5 7.9 -6.85 M5.65 -9.5 L5.6 -9.5 Q7.3 -11.0 9.4 -11.0 12.55 -11.1 14.7 -7.8 L14.65 -7.8 Q16.55 -5.1 16.55 -1.15 16.55 2.8 14.65 5.55 12.55 8.7 9.45 8.7 L9.35 8.7 Q6.3 8.7 4.15 5.55 2.3 2.8 2.3 -1.1 L2.3 -1.15 Q2.25 -3.3 2.85 -5.05 3.3 -6.6 4.15 -7.75 L4.2 -7.85 Q4.8 -8.85 5.65 -9.5" fill="#000000" fill-rule="evenodd" stroke="none"/>
    <path d="M7.9 -6.85 Q8.6 -7.5 9.4 -7.5 10.75 -7.4 11.75 -5.9 L11.75 -5.85 Q13.05 -3.9 13.05 -1.15 13.05 1.6 11.75 3.6 10.75 5.05 9.4 5.2 8.05 5.05 7.05 3.6 5.8 1.6 5.8 -1.15 L5.8 -1.2 Q5.75 -2.75 6.2 -4.0 L7.05 -5.85 7.1 -5.9 7.9 -6.85" fill="#ffc58a" fill-rule="evenodd" stroke="none"/>
  </g>
</svg>
