<?xml version="1.0" encoding="UTF-8" standalone="no"?>
<svg xmlns:ffdec="https://www.free-decompiler.com/flash" xmlns:xlink="http://www.w3.org/1999/xlink" ffdec:objectType="shape" height="14.8px" width="14.75px" xmlns="http://www.w3.org/2000/svg">
  <g transform="matrix(1.0, 0.0, 0.0, 1.0, -0.85, 6.1)">
    <path d="M12.1 -0.05 L11.95 -1.7 6.45 1.85 Q6.7 3.0 7.3 3.95 8.1 5.1 9.15 5.2 10.2 5.1 11.0 3.95 12.1 2.25 12.1 -0.05 M11.85 -5.8 L12.75 -6.1 13.65 -5.85 14.3 -5.2 Q15.6 -3.05 15.6 -0.05 15.6 3.45 13.9 5.9 12.0 8.8 9.15 8.7 6.4 8.8 4.4 5.9 3.6 4.7 3.5 2.55 L0.85 1.2 2.5 0.15 3.6 -0.5 3.65 -0.55 11.85 -5.8" fill="#000000" fill-rule="evenodd" stroke="none"/>
    <path d="M12.1 -0.05 Q12.1 2.25 11.0 3.95 10.2 5.1 9.15 5.2 8.1 5.1 7.3 3.95 6.7 3.0 6.45 1.85 L11.95 -1.7 12.1 -0.05" fill="#ffc58a" fill-rule="evenodd" stroke="none"/>
  </g>
</svg>
