<?xml version="1.0" encoding="UTF-8" standalone="no"?>
<svg xmlns:ffdec="https://www.free-decompiler.com/flash" xmlns:xlink="http://www.w3.org/1999/xlink" ffdec:objectType="shape" height="269.5px" width="266.65px" xmlns="http://www.w3.org/2000/svg">
  <g transform="matrix(1.0, 0.0, 0.0, 1.0, 133.3, 134.75)">
    <path d="M-0.05 -116.9 Q20.3 -116.5 40.75 -108.5 62.6 -100.0 78.3 -85.25 88.3 -77.4 96.65 -61.4 106.2 -43.15 105.25 -28.05 L104.9 -21.0 Q90.55 -68.65 61.4 -89.75 37.85 -106.75 3.85 -106.75 L-0.05 -106.65 -0.05 -116.9 M-0.05 -98.5 Q17.6 -97.95 34.2 -91.8 58.3 -82.8 69.2 -64.7 64.2 -67.35 52.4 -74.35 42.5 -80.15 36.55 -83.0 19.35 -91.15 -0.05 -91.6 L-0.05 -98.5 M-0.05 -80.25 L3.65 -80.35 16.75 -79.95 16.75 -77.65 -0.05 -77.15 -0.05 -80.25 M45.95 -66.6 Q57.9 -59.55 63.55 -52.9 68.8 -47.45 73.1 -38.7 78.0 -28.7 78.0 -20.9 L76.35 -19.45 Q72.2 -34.95 57.8 -51.85 43.5 -68.6 29.85 -74.25 35.8 -72.6 45.95 -66.6 M11.95 -4.35 Q4.6 -3.35 5.65 -2.8 L19.5 -5.2 11.95 -4.35 M-47.4 1.75 Q-41.3 -13.25 -27.15 -21.8 -14.25 -29.6 0.75 -29.6 15.55 -29.6 26.25 -23.55 37.75 -17.05 47.45 -2.1 L47.05 5.25 Q43.5 23.25 31.25 34.35 18.35 46.0 -0.05 46.0 -15.45 46.0 -27.7 37.65 -43.5 26.85 -47.1 5.25 L-47.4 1.75 M-16.6 9.6 L6.05 7.8 6.05 6.65 Q10.5 7.1 26.6 3.75 L28.45 3.25 20.45 2.7 14.95 2.4 -2.95 3.5 Q-17.05 5.1 -24.75 8.65 -24.7 10.25 -16.6 9.6 M-18.8 30.9 Q-7.3 37.5 5.1 36.65 17.95 37.5 30.85 27.8 43.2 18.5 44.05 9.05 5.3 12.8 -11.65 15.25 L-22.35 16.65 -28.95 16.35 -35.6 15.6 -36.25 15.5 Q-28.2 25.45 -18.8 30.9" fill="#e9e8e2" fill-rule="evenodd" stroke="none"/>
    <path d="M-0.05 -129.5 Q24.0 -129.5 41.8 -123.2 59.4 -117.0 80.15 -101.35 102.85 -84.2 114.9 -60.3 127.95 -34.4 127.95 -1.5 L53.3 -1.5 Q53.35 -6.05 52.95 -9.25 49.0 -33.2 31.1 -45.45 17.15 -55.0 -0.05 -55.0 L-0.05 -77.15 16.75 -77.65 16.75 -79.95 3.65 -80.35 -0.05 -80.25 -0.05 -91.6 Q19.35 -91.15 36.55 -83.0 42.5 -80.15 52.4 -74.35 64.2 -67.35 69.2 -64.7 58.3 -82.8 34.2 -91.8 17.6 -97.95 -0.05 -98.5 L-0.05 -106.65 3.85 -106.75 Q37.85 -106.75 61.4 -89.75 90.55 -68.65 104.9 -21.0 L105.25 -28.05 Q106.2 -43.15 96.65 -61.4 88.3 -77.4 78.3 -85.25 62.6 -100.0 40.75 -108.5 20.3 -116.5 -0.05 -116.9 L-0.05 -129.5 M-128.05 -1.5 L-53.55 -1.5 -53.15 5.25 Q-50.35 25.75 -35.45 38.9 -20.55 52.0 -0.05 52.0 L-0.05 68.7 Q-19.9 67.35 -36.55 58.35 -59.0 46.2 -73.95 20.95 L-74.0 24.05 Q-74.0 46.15 -43.9 61.9 -31.35 68.5 -16.2 72.25 -7.85 74.3 -0.05 75.2 L-0.05 88.25 -0.1 88.25 Q-38.9 88.25 -69.15 64.65 -95.6 44.05 -105.55 14.75 L-106.4 26.25 Q-106.4 39.3 -99.4 54.6 -91.6 71.5 -77.4 85.9 -67.3 96.15 -47.75 102.75 -27.2 109.75 -4.35 109.75 L-0.05 109.7 -0.05 126.5 Q-26.8 126.5 -50.5 116.75 -74.35 106.9 -90.55 89.0 -107.15 70.7 -114.9 55.55 -122.35 40.9 -126.5 19.25 L-128.05 -1.5 M45.95 -66.6 Q35.8 -72.6 29.85 -74.25 43.5 -68.6 57.8 -51.85 72.2 -34.95 76.35 -19.45 L78.0 -20.9 Q78.0 -28.7 73.1 -38.7 68.8 -47.45 63.55 -52.9 57.9 -59.55 45.95 -66.6 M11.95 -4.35 L19.5 -5.2 5.65 -2.8 Q4.6 -3.35 11.95 -4.35 M-18.8 30.9 Q-28.2 25.45 -36.25 15.5 L-35.6 15.6 -28.95 16.35 -22.35 16.65 -11.65 15.25 Q5.3 12.8 44.05 9.05 43.2 18.5 30.85 27.8 17.95 37.5 5.1 36.65 -7.3 37.5 -18.8 30.9 M-16.6 9.6 Q-24.7 10.25 -24.75 8.65 -17.05 5.1 -2.95 3.5 L14.95 2.4 20.45 2.7 28.45 3.25 26.6 3.75 Q10.5 7.1 6.05 6.65 L6.05 7.8 -16.6 9.6" fill="#f2f1ee" fill-rule="evenodd" stroke="none"/>
    <path d="M127.95 -1.5 Q127.95 -34.4 114.9 -60.3 102.85 -84.2 80.15 -101.35 59.4 -117.0 41.8 -123.2 24.0 -129.5 -0.05 -129.5 L-0.05 -133.25 Q26.8 -133.25 51.3 -122.9 74.95 -112.9 93.15 -94.65 111.4 -76.4 121.35 -52.8 131.7 -28.4 131.7 -1.7 L131.7 -1.5 127.95 -1.5 M-47.1 5.25 Q-43.5 26.85 -27.7 37.65 -15.45 46.0 -0.05 46.0 18.35 46.0 31.25 34.35 43.5 23.25 47.05 5.25 L53.1 5.25 Q50.3 23.6 37.45 36.7 22.4 52.0 -0.05 52.0 -20.55 52.0 -35.45 38.9 -50.35 25.75 -53.15 5.25 L-47.1 5.25 M-131.8 -1.5 L-128.05 -1.5 -126.5 19.25 -126.55 19.25 -127.25 13.75 -131.3 13.75 -131.8 0.0 -131.8 -1.5" fill="#d9d7ce" fill-rule="evenodd" stroke="none"/>
    <path d="M131.7 -1.5 L131.7 -1.7 Q131.7 -28.4 121.35 -52.8 111.4 -76.4 93.15 -94.65 74.95 -112.9 51.3 -122.9 26.8 -133.25 -0.05 -133.25 -26.9 -133.25 -51.35 -122.95 -75.0 -112.95 -93.2 -94.65 -111.45 -76.3 -121.45 -52.35 -131.5 -28.2 -131.8 -1.5 L-131.8 0.0 -131.3 13.75 -129.7 24.25 -127.8 34.9 Q-122.2 57.4 -109.3 76.2 -95.85 95.8 -75.5 109.8 -56.85 122.6 -38.8 128.05 -21.65 133.25 -0.05 133.25 L0.0 133.25 Q49.65 133.25 86.05 101.8 101.8 88.2 112.8 70.2 120.75 57.2 125.25 43.45 L127.75 34.9 Q128.4 32.65 129.65 25.65 131.15 17.4 131.2 13.75 131.7 6.3 131.7 -1.5 M133.2 -1.5 Q134.45 22.7 125.05 47.85 115.25 74.15 96.65 93.35 56.6 134.75 -0.05 134.75 -26.5 134.75 -47.2 126.95 -65.5 120.05 -84.2 104.95 -109.0 84.95 -121.15 59.0 -133.3 33.1 -133.3 0.0 L-133.3 -1.5 Q-133.1 -23.6 -126.65 -42.7 -118.4 -67.25 -98.9 -90.7 -79.0 -114.65 -47.75 -126.1 -24.15 -134.75 -0.05 -134.75 30.0 -134.75 56.2 -122.65 80.3 -111.45 98.55 -91.3 115.75 -72.25 124.9 -48.4 133.9 -24.85 133.2 -1.5" fill="#000000" fill-rule="evenodd" stroke="none"/>
    <path d="M47.45 -2.1 Q37.75 -17.05 26.25 -23.55 15.55 -29.6 0.75 -29.6 -14.25 -29.6 -27.15 -21.8 -41.3 -13.25 -47.4 1.75 L-46.95 -9.25 Q-40.9 -27.55 -29.1 -37.8 -17.3 -48.1 2.6 -47.35 22.45 -46.6 33.9 -33.0 45.35 -19.4 46.9 -9.25 L47.45 -2.1" fill="#e2e0d8" fill-rule="evenodd" stroke="none"/>
    <path d="M-0.05 -55.0 Q17.15 -55.0 31.1 -45.45 49.0 -33.2 52.95 -9.25 53.35 -6.05 53.3 -1.5 L53.3 -1.0 53.15 4.05 53.1 5.25 47.05 5.25 47.45 -2.1 46.9 -9.25 Q45.35 -19.4 33.9 -33.0 22.45 -46.6 2.6 -47.35 -17.3 -48.1 -29.1 -37.8 -40.9 -27.55 -46.95 -9.25 L-47.4 1.75 -47.1 5.25 -53.15 5.25 -53.55 -1.5 -53.55 -1.9 -53.05 -9.25 Q-49.05 -33.2 -31.1 -45.45 -17.15 -55.0 -0.05 -55.0" fill="#d1cfc2" fill-rule="evenodd" stroke="none"/>
    <path d="M-0.05 109.7 L-4.35 109.75 Q-27.2 109.75 -47.75 102.75 -67.3 96.15 -77.4 85.9 -91.6 71.5 -99.4 54.6 -106.4 39.3 -106.4 26.25 L-105.55 14.75 Q-95.6 44.05 -69.15 64.65 -38.9 88.25 -0.1 88.25 L-0.05 88.25 -0.05 109.7 M-0.05 75.2 Q-7.85 74.3 -16.2 72.25 -31.35 68.5 -43.9 61.9 -74.0 46.15 -74.0 24.05 L-73.95 20.95 Q-59.0 46.2 -36.55 58.35 -19.9 67.35 -0.05 68.7 L-0.05 75.2" fill="#f9f9f7" fill-rule="evenodd" stroke="none"/>
    <path d="M-126.5 19.25 Q-122.35 40.9 -114.9 55.55 -107.15 70.7 -90.55 89.0 -74.35 106.9 -50.5 116.75 -26.8 126.5 -0.05 126.5 L-0.05 131.0 Q-20.55 130.8 -37.55 126.25 -62.25 119.55 -81.15 103.45 -101.3 86.25 -112.25 69.5 -121.6 55.1 -127.8 34.9 L-129.7 24.25 -131.3 13.75 -127.25 13.75 -126.55 19.25 -126.5 19.25" fill="#c7c4b6" fill-rule="evenodd" stroke="none"/>
    <path d="M-127.8 34.9 Q-121.6 55.1 -112.25 69.5 -101.3 86.25 -81.15 103.45 -62.25 119.55 -37.55 126.25 -20.55 130.8 -0.05 131.0 L-0.05 133.25 Q-21.65 133.25 -38.8 128.05 -56.85 122.6 -75.5 109.8 -95.85 95.8 -109.3 76.2 -122.2 57.4 -127.8 34.9" fill="#817c70" fill-rule="evenodd" stroke="none"/>
    <path d="M-0.05 -129.5 L-0.05 -116.9 -2.45 -116.95 Q-23.7 -116.95 -43.25 -108.8 -60.8 -101.45 -74.9 -88.45 -87.9 -76.45 -95.35 -62.15 -102.65 -48.25 -102.65 -36.15 L-102.5 -32.8 Q-95.55 -46.25 -84.85 -59.2 -77.1 -68.6 -64.4 -80.9 -54.45 -90.6 -35.0 -98.35 -16.3 -105.85 -0.05 -106.65 L-0.05 -98.5 -3.4 -98.55 Q-29.75 -98.55 -46.55 -88.15 -65.65 -76.4 -69.5 -52.75 -63.45 -67.5 -47.4 -78.4 -27.9 -91.65 -2.35 -91.65 L-0.05 -91.6 -0.05 -80.25 Q-14.9 -79.45 -27.85 -71.95 -38.05 -66.05 -48.75 -54.7 -40.15 -63.4 -23.2 -70.5 -11.25 -75.5 -0.05 -77.15 L-0.05 -55.0 Q-17.15 -55.0 -31.1 -45.45 -49.05 -33.2 -53.05 -9.25 L-53.55 -1.9 -53.55 -1.5 -128.05 -1.5 Q-128.05 -31.3 -116.05 -56.2 -104.15 -80.95 -80.1 -101.35 -65.6 -113.6 -47.1 -120.85 -24.95 -129.5 -0.05 -129.5 M53.3 -1.5 L127.95 -1.5 Q127.95 6.55 127.2 13.75 L127.15 13.75 127.0 15.4 126.3 20.1 Q123.0 42.5 110.8 63.0 98.45 83.7 78.45 99.9 61.75 113.4 42.05 120.0 22.7 126.5 -0.05 126.5 L-0.05 109.7 Q31.15 108.7 58.85 93.05 80.05 81.1 92.8 65.35 104.7 50.7 107.3 32.7 109.05 20.9 106.6 8.05 106.55 20.3 94.7 39.25 83.25 57.65 71.85 65.05 L58.15 73.6 Q46.55 80.25 38.75 82.45 32.35 84.25 22.5 85.95 9.35 88.25 -0.05 88.25 L-0.05 75.2 11.1 75.85 Q26.0 75.85 42.15 70.15 53.95 65.95 65.15 59.25 72.6 54.8 80.75 42.95 89.1 30.75 89.45 23.0 83.85 29.95 72.95 40.0 59.85 52.05 51.6 56.2 L43.85 60.2 Q40.4 61.75 29.75 65.75 26.95 66.8 20.0 67.8 L6.8 68.9 -0.05 68.7 -0.05 52.0 Q22.4 52.0 37.45 36.7 50.3 23.6 53.1 5.25 L53.15 4.05 53.3 -1.0 53.3 -1.5" fill="#bbbab4" fill-rule="evenodd" stroke="none"/>
    <path d="M-0.05 75.2 L-0.05 68.7 6.8 68.9 20.0 67.8 Q26.95 66.8 29.75 65.75 40.4 61.75 43.85 60.2 L51.6 56.2 Q59.85 52.05 72.95 40.0 83.85 29.95 89.45 23.0 89.1 30.75 80.75 42.95 72.6 54.8 65.15 59.25 53.95 65.95 42.15 70.15 26.0 75.85 11.1 75.85 L-0.05 75.2 M-0.05 109.7 L-0.05 88.25 Q9.35 88.25 22.5 85.95 32.35 84.25 38.75 82.45 46.55 80.25 58.15 73.6 L71.85 65.05 Q83.25 57.65 94.7 39.25 106.55 20.3 106.6 8.05 109.05 20.9 107.3 32.7 104.7 50.7 92.8 65.35 80.05 81.1 58.85 93.05 31.15 108.7 -0.05 109.7" fill="#d0cec6" fill-rule="evenodd" stroke="none"/>
    <path d="M127.95 -1.5 L131.7 -1.5 Q131.7 6.3 131.2 13.75 L127.2 13.75 Q127.95 6.55 127.95 -1.5 M-0.05 -133.25 L-0.05 -129.5 Q-24.95 -129.5 -47.1 -120.85 -65.6 -113.6 -80.1 -101.35 -104.15 -80.95 -116.05 -56.2 -128.05 -31.3 -128.05 -1.5 L-131.8 -1.5 Q-131.5 -28.2 -121.45 -52.35 -111.45 -76.3 -93.2 -94.65 -75.0 -112.95 -51.35 -122.95 -26.9 -133.25 -0.05 -133.25" fill="#83827f" fill-rule="evenodd" stroke="none"/>
    <path d="M-0.05 131.0 L-0.05 126.5 Q22.7 126.5 42.05 120.0 61.75 113.4 78.45 99.9 98.45 83.7 110.8 63.0 123.0 42.5 126.3 20.1 L127.0 15.4 127.15 13.75 127.2 13.75 131.2 13.75 Q131.15 17.4 129.65 25.65 128.4 32.65 127.75 34.9 L125.25 43.45 Q120.8 56.15 112.95 68.55 101.95 86.0 86.2 99.55 49.5 131.0 1.65 131.0 L-0.05 131.0" fill="#646461" fill-rule="evenodd" stroke="none"/>
    <path d="M-0.05 -116.9 L-0.05 -106.65 Q-16.3 -105.85 -35.0 -98.35 -54.45 -90.6 -64.4 -80.9 -77.1 -68.6 -84.85 -59.2 -95.55 -46.25 -102.5 -32.8 L-102.65 -36.15 Q-102.65 -48.25 -95.35 -62.15 -87.9 -76.45 -74.9 -88.45 -60.8 -101.45 -43.25 -108.8 -23.7 -116.95 -2.45 -116.95 L-0.05 -116.9 M-0.05 -98.5 L-0.05 -91.6 -2.35 -91.65 Q-27.9 -91.65 -47.4 -78.4 -63.45 -67.5 -69.5 -52.75 -65.65 -76.4 -46.55 -88.15 -29.75 -98.55 -3.4 -98.55 L-0.05 -98.5 M-0.05 -80.25 L-0.05 -77.15 Q-11.25 -75.5 -23.2 -70.5 -40.15 -63.4 -48.75 -54.7 -38.05 -66.05 -27.85 -71.95 -14.9 -79.45 -0.05 -80.25" fill="#a8a7a2" fill-rule="evenodd" stroke="none"/>
    <path d="M-0.05 133.25 L-0.05 131.0 1.65 131.0 Q49.5 131.0 86.2 99.55 101.95 86.0 112.95 68.55 120.8 56.15 125.25 43.45 120.75 57.2 112.8 70.2 101.8 88.2 86.05 101.8 49.65 133.25 0.0 133.25 L-0.05 133.25" fill="#3f3f3c" fill-rule="evenodd" stroke="none"/>
  </g>
</svg>
