<?xml version="1.0" encoding="UTF-8" standalone="no"?>
<svg xmlns:ffdec="https://www.free-decompiler.com/flash" xmlns:xlink="http://www.w3.org/1999/xlink" ffdec:objectType="shape" height="20.2px" width="29.75px" xmlns="http://www.w3.org/2000/svg">
  <g transform="matrix(1.0, 0.0, 0.0, 1.0, 8.35, 8.55)">
    <path d="M-2.1 -3.8 L-1.75 -3.55 -1.75 -3.5 -1.7 -3.5 0.3 -2.95 -1.5 6.0 Q6.55 8.35 10.95 7.15 15.3 5.9 15.15 4.85 15.0 3.75 11.85 -3.05 L14.25 -3.7 15.95 0.85 17.4 4.95 16.95 6.5 Q16.45 7.4 14.75 8.0 13.0 8.6 7.15 9.3 1.3 9.95 -5.75 6.35 -3.35 1.95 -1.75 -3.5 L-2.1 -3.8" fill="#cdcdcd" fill-rule="evenodd" stroke="none"/>
    <path d="M-2.8 -5.3 Q-1.7 -6.9 0.15 -7.4 L-0.4 -7.0 Q-0.95 -6.6 -0.95 -6.0 -0.95 -5.5 -0.55 -5.3 L1.1 -4.55 Q2.8 -3.7 6.45 -3.65 L11.3 -4.3 Q13.55 -4.9 14.15 -5.5 14.15 -6.45 13.15 -7.1 L12.4 -7.5 Q13.85 -7.15 14.75 -6.5 L16.2 -5.0 14.25 -3.7 11.85 -3.05 Q6.55 -1.65 0.3 -2.95 L-1.7 -3.5 -1.75 -3.5 -1.75 -3.55 -2.1 -3.8 Q-2.75 -4.45 -2.8 -5.3" fill="#f7f7f7" fill-rule="evenodd" stroke="none"/>
    <path d="M16.2 -5.0 L19.65 2.6 Q20.35 4.15 20.35 4.8 20.35 6.5 16.7 8.75 13.1 10.9 5.05 10.85 2.1 10.8 -2.35 9.7 -6.85 8.6 -7.4 5.75 L-7.4 5.55 -2.8 -5.3 Q-2.75 -4.45 -2.1 -3.8 L-1.75 -3.5 Q-3.35 1.95 -5.75 6.35 1.3 9.95 7.15 9.3 13.0 8.6 14.75 8.0 16.45 7.4 16.95 6.5 L17.4 4.95 15.95 0.85 14.25 -3.7 16.2 -5.0" fill="#b6b6b6" fill-rule="evenodd" stroke="none"/>
    <path d="M1.25 -5.4 L0.0 -5.9 Q0.35 -6.3 1.25 -6.7 L1.25 -5.4 M11.4 -6.85 L13.2 -5.85 Q12.3 -5.3 11.25 -5.2 L11.4 -6.85" fill="#5f5f5f" fill-rule="evenodd" stroke="none"/>
    <path d="M0.3 -2.95 Q6.55 -1.65 11.85 -3.05 15.0 3.75 15.15 4.85 15.3 5.9 10.95 7.15 6.55 8.35 -1.5 6.0 L0.3 -2.95" fill="#e0e0e0" fill-rule="evenodd" stroke="none"/>
    <path d="M1.25 -5.4 Q2.55 -4.85 4.05 -4.6 L6.05 -4.5 11.25 -5.2 Q12.3 -5.3 13.2 -5.85 L11.4 -6.85 11.65 -8.55 11.95 -8.55 Q13.8 -8.6 16.25 -6.55 L18.7 -1.65 20.85 2.8 Q21.4 4.0 21.4 4.75 21.4 6.7 18.6 8.5 14.4 11.25 10.75 11.5 L4.4 11.65 -1.95 10.85 Q-5.6 10.05 -7.0 8.2 -8.35 6.4 -8.35 5.5 -8.35 4.7 -6.35 0.15 L-4.3 -4.65 Q-3.9 -6.4 -2.65 -7.25 -1.4 -8.15 1.2 -8.5 L1.25 -6.7 Q0.35 -6.3 0.0 -5.9 L1.25 -5.4 M16.2 -5.0 L14.75 -6.5 Q13.85 -7.15 12.4 -7.5 L13.15 -7.1 Q14.15 -6.45 14.15 -5.5 13.55 -4.9 11.3 -4.3 L6.45 -3.65 Q2.8 -3.7 1.1 -4.55 L-0.55 -5.3 Q-0.95 -5.5 -0.95 -6.0 -0.95 -6.6 -0.4 -7.0 L0.15 -7.4 Q-1.7 -6.9 -2.8 -5.3 L-7.4 5.55 -7.4 5.75 Q-6.85 8.6 -2.35 9.7 2.1 10.8 5.05 10.85 13.1 10.9 16.7 8.75 20.35 6.5 20.35 4.8 20.35 4.15 19.65 2.6 L16.2 -5.0" fill="#414141" fill-rule="evenodd" stroke="none"/>
  </g>
</svg>
