<?xml version="1.0" encoding="UTF-8" standalone="no"?>
<svg xmlns:ffdec="https://www.free-decompiler.com/flash" xmlns:xlink="http://www.w3.org/1999/xlink" ffdec:objectType="shape" height="16.3px" width="35.3px" xmlns="http://www.w3.org/2000/svg">
  <g transform="matrix(1.0, 0.0, 0.0, 1.0, 48.95, 15.3)">
    <path d="M-44.7 -6.8 L-46.9 -4.0 -46.95 -3.95 -47.85 -2.2 Q-42.8 -2.1 -38.4 -0.3 L-38.95 1.0 Q-43.45 -0.75 -48.5 -0.85 -49.9 -3.85 -47.0 -6.45 L-46.45 -6.9 -44.7 -6.8 M-19.25 -9.5 Q-19.75 -9.4 -20.25 -8.85 L-24.55 -11.65 -23.35 -12.8 Q-19.1 -16.45 -14.05 -14.75 L-13.7 -13.7 -16.7 -14.05 -18.15 -13.95 Q-20.95 -13.6 -23.3 -12.1 L-21.85 -11.5 -20.0 -10.3 -19.25 -9.5" fill="#794813" fill-rule="evenodd" stroke="none"/>
    <path d="M-46.9 -4.0 Q-44.55 -4.1 -42.65 -5.2 L-41.45 -5.9 -41.45 -6.0 Q-40.6 -5.5 -40.1 -5.5 -39.5 -5.5 -38.85 -3.8 L-38.55 -3.0 -46.95 -3.95 -46.9 -4.0 M-20.0 -10.3 L-21.85 -11.5 -17.05 -12.65 -16.7 -14.05 -13.7 -13.7 -13.65 -13.15 -13.9 -11.9 Q-14.15 -11.0 -14.5 -10.55 -15.15 -9.6 -15.9 -9.2 L-16.15 -9.05 Q-18.2 -9.35 -20.0 -10.3" fill="#e0ac3f" fill-rule="evenodd" stroke="none"/>
    <path d="M-44.7 -6.8 L-43.2 -6.8 Q-42.6 -6.8 -41.65 -6.15 L-41.45 -6.0 -41.45 -5.9 -42.65 -5.2 Q-44.55 -4.1 -46.9 -4.0 L-44.7 -6.8 M-21.85 -11.5 L-23.3 -12.1 Q-20.95 -13.6 -18.15 -13.95 L-16.7 -14.05 -17.05 -12.65 -21.85 -11.5" fill="#eac679" fill-rule="evenodd" stroke="none"/>
    <path d="M-38.55 -3.0 Q-38.25 -2.0 -38.25 -1.3 -38.25 -0.8 -38.4 -0.3 -42.8 -2.1 -47.85 -2.2 L-46.95 -3.95 -38.55 -3.0 M-19.25 -9.5 L-20.0 -10.3 Q-18.2 -9.35 -16.15 -9.05 -17.35 -8.5 -18.35 -9.3 L-19.25 -9.5" fill="#cb9b38" fill-rule="evenodd" stroke="none"/>
  </g>
</svg>
