<?xml version="1.0" encoding="UTF-8" standalone="no"?>
<svg xmlns:ffdec="https://www.free-decompiler.com/flash" xmlns:xlink="http://www.w3.org/1999/xlink" ffdec:objectType="shape" height="467.7px" width="608.15px" xmlns="http://www.w3.org/2000/svg">
  <g transform="matrix(1.0, 0.0, 0.0, 1.0, 266.35, 227.0)">
    <path d="M213.5 -226.5 L245.5 -226.5 277.45 -226.5 309.45 -226.5 309.45 -194.5 309.45 -162.5 309.45 -130.5 309.45 -98.5 309.45 -66.5 309.45 -34.5 309.45 -2.5 277.45 -2.5 245.5 -2.5 213.5 -2.5 181.5 -2.5 149.5 -2.5 117.5 -2.5 85.5 -2.5 53.5 -2.5 21.5 -2.5 -10.5 -2.5 -42.5 -2.5 -74.5 -2.5 -106.5 -2.5 -138.5 -2.5 -170.5 -2.5 -202.5 -2.5 -202.5 -34.5 -202.5 -66.5 -202.5 -98.5 -202.5 -130.5 -202.5 -162.5 -202.5 -194.5 -202.5 -226.5 -170.5 -226.5 -138.5 -226.5 -106.5 -226.5 -74.5 -226.5 -42.5 -226.5 -10.5 -226.5 21.5 -226.5 53.5 -226.5 85.5 -226.5 117.5 -226.5 149.5 -226.5 181.5 -226.5 213.5 -226.5 213.5 -194.5 245.5 -194.5 245.5 -226.5 M149.5 -162.5 L181.5 -162.5 181.5 -194.5 149.5 -194.5 149.5 -162.5 149.5 -130.5 181.5 -130.5 181.5 -162.5 213.5 -162.5 213.5 -194.5 181.5 -194.5 181.5 -226.5 M85.5 -194.5 L85.5 -162.5 117.5 -162.5 117.5 -194.5 85.5 -194.5 85.5 -226.5 M85.5 -130.5 L85.5 -98.5 117.5 -98.5 117.5 -130.5 85.5 -130.5 85.5 -162.5 53.5 -162.5 53.5 -130.5 85.5 -130.5 M149.5 -162.5 L117.5 -162.5 117.5 -130.5 149.5 -130.5 149.5 -98.5 181.5 -98.5 181.5 -130.5 213.5 -130.5 213.5 -162.5 245.5 -162.5 245.5 -194.5 277.45 -194.5 277.45 -226.5 M117.5 -226.5 L117.5 -194.5 149.5 -194.5 149.5 -226.5 M53.5 -194.5 L21.5 -194.5 21.5 -162.5 53.5 -162.5 53.5 -194.5 53.5 -226.5 M21.5 -162.5 L21.5 -130.5 53.5 -130.5 53.5 -98.5 85.5 -98.5 85.5 -66.5 117.5 -66.5 117.5 -98.5 149.5 -98.5 149.5 -66.5 181.5 -66.5 181.5 -98.5 213.5 -98.5 213.5 -130.5 245.5 -130.5 245.5 -162.5 277.45 -162.5 277.45 -194.5 309.45 -194.5 M53.5 -98.5 L53.5 -66.5 85.5 -66.5 85.5 -34.5 117.5 -34.5 117.5 -66.5 149.5 -66.5 149.5 -34.5 181.5 -34.5 181.5 -66.5 213.5 -66.5 213.5 -98.5 245.5 -98.5 245.5 -130.5 277.45 -130.5 277.45 -162.5 309.45 -162.5 M53.5 -98.5 L21.5 -98.5 21.5 -66.5 53.5 -66.5 53.5 -34.5 85.5 -34.5 85.5 -2.5 M53.5 -2.5 L53.5 -34.5 21.5 -34.5 21.5 -2.5 M21.5 -66.5 L21.5 -34.5 -10.5 -34.5 -10.5 -2.5 M117.5 -2.5 L117.5 -34.5 149.5 -34.5 149.5 -2.5 M21.5 -130.5 L-10.5 -130.5 -10.5 -98.5 21.5 -98.5 21.5 -130.5 M53.5 -194.5 L85.5 -194.5 M277.45 -130.5 L309.45 -130.5 M213.5 -2.5 L213.5 -34.5 181.5 -34.5 181.5 -2.5 M213.5 -34.5 L245.5 -34.5 245.5 -66.5 213.5 -66.5 213.5 -34.5 M245.5 -98.5 L277.45 -98.5 277.45 -130.5 M245.5 -98.5 L245.5 -66.5 277.45 -66.5 277.45 -98.5 309.45 -98.5 M277.45 -2.5 L277.45 -34.5 245.5 -34.5 245.5 -2.5 M277.45 -66.5 L309.45 -66.5 M277.45 -34.5 L277.45 -66.5 M309.45 -34.5 L277.45 -34.5 M21.5 -226.5 L21.5 -194.5 -10.5 -194.5 -10.5 -162.5 21.5 -162.5 M-202.5 -194.5 L-170.5 -194.5 -170.5 -226.5 M-202.5 -162.5 L-170.5 -162.5 -170.5 -194.5 -138.5 -194.5 -138.5 -226.5 M-202.5 -130.5 L-170.5 -130.5 -170.5 -162.5 -138.5 -162.5 -138.5 -194.5 -106.5 -194.5 -106.5 -226.5 M-202.5 -98.5 L-170.5 -98.5 -170.5 -130.5 -138.5 -130.5 -138.5 -162.5 -106.5 -162.5 -106.5 -194.5 -74.5 -194.5 -74.5 -226.5 M-202.5 -66.5 L-170.5 -66.5 -170.5 -98.5 -138.5 -98.5 -138.5 -130.5 -106.5 -130.5 -106.5 -162.5 -74.5 -162.5 -74.5 -194.5 -42.5 -194.5 -42.5 -226.5 M-138.5 -2.5 L-138.5 -34.5 -170.5 -34.5 -170.5 -2.5 M-202.5 -34.5 L-170.5 -34.5 -170.5 -66.5 -138.5 -66.5 -138.5 -98.5 -106.5 -98.5 -106.5 -130.5 -74.5 -130.5 -74.5 -162.5 -42.5 -162.5 -42.5 -194.5 -10.5 -194.5 -10.5 -226.5 M-74.5 -130.5 L-74.5 -98.5 -42.5 -98.5 -42.5 -130.5 -74.5 -130.5 M-10.5 -130.5 L-10.5 -162.5 -42.5 -162.5 -42.5 -130.5 -10.5 -130.5 M-106.5 -66.5 L-74.5 -66.5 -74.5 -98.5 -106.5 -98.5 -106.5 -66.5 -106.5 -34.5 -74.5 -34.5 -74.5 -66.5 -42.5 -66.5 -42.5 -98.5 -10.5 -98.5 -10.5 -66.5 21.5 -66.5 M-106.5 -34.5 L-106.5 -2.5 M-138.5 -66.5 L-106.5 -66.5 M-106.5 -34.5 L-138.5 -34.5 -138.5 -66.5 M-10.5 -34.5 L-42.5 -34.5 -42.5 -2.5 M-74.5 -34.5 L-42.5 -34.5 -42.5 -66.5 -10.5 -66.5 -10.5 -34.5 M-74.5 -2.5 L-74.5 -34.5" fill="none" stroke="#000000" stroke-linecap="round" stroke-linejoin="round" stroke-width="1.0"/>
    <path d="M-170.65 18.5 L-138.65 18.5 -106.65 18.5 -74.65 18.5 -42.65 18.5 -10.65 18.5 21.35 18.5 53.35 18.5 85.35 18.5 117.35 18.5 149.35 18.5 181.35 18.5 213.35 18.5 245.35 18.5 277.3 18.5 277.35 18.5 309.3 18.5 341.3 18.5 332.5 49.5 300.5 49.5 268.55 49.5 277.35 18.5 M321.95 86.45 L313.1 117.55 281.1 117.55 289.95 86.45 321.95 86.45 M302.85 153.35 L293.95 184.6 261.95 184.6 230.0 184.6 229.95 184.6 198.0 184.6 206.9 153.35 174.9 153.35 166.0 184.6 198.0 184.6 M-170.65 18.5 L-179.45 49.5 -147.45 49.5 -138.65 18.5 M268.55 49.5 L268.5 49.5 277.3 18.5 M257.95 86.45 L258.0 86.45 289.95 86.45 M245.35 18.5 L236.55 49.5 268.5 49.5 M300.5 49.5 L309.3 18.5 M162.0 86.45 L194.0 86.45 226.0 86.45 257.95 86.45 249.1 117.55 249.15 117.55 258.0 86.45 M204.55 49.5 L172.55 49.5 181.35 18.5 M236.55 49.5 L204.55 49.5 213.35 18.5 M230.0 184.6 L238.9 153.35 238.85 153.35 229.95 184.6 M238.85 153.35 L206.9 153.35 M217.15 117.55 L185.15 117.55 153.15 117.55 121.15 117.55 89.15 117.55 98.0 86.45 130.0 86.45 162.0 86.45 153.15 117.55 M174.9 153.35 L142.9 153.35 134.0 184.6 166.0 184.6 M249.15 117.55 L281.1 117.55 M302.85 153.35 L270.85 153.35 261.95 184.6 M270.85 153.35 L238.9 153.35 M217.15 117.55 L226.0 86.45 M217.15 117.55 L249.1 117.55 M194.0 86.45 L185.15 117.55 M142.9 153.35 L110.9 153.35 102.0 184.6 134.0 184.6 M108.55 49.5 L76.55 49.5 85.35 18.5 M66.0 86.45 L98.0 86.45 M140.55 49.5 L108.55 49.5 117.35 18.5 M149.35 18.5 L140.55 49.5 172.55 49.5 M2.0 86.45 L34.0 86.45 66.0 86.45 57.15 117.55 89.15 117.55 M44.55 49.5 L12.55 49.5 21.35 18.5 M53.35 18.5 L44.55 49.5 76.55 49.5 M38.0 184.6 L46.9 153.35 14.9 153.35 6.0 184.6 38.0 184.6 70.0 184.6 78.9 153.35 46.9 153.35 M57.15 117.55 L25.15 117.55 -6.85 117.55 2.0 86.45 -30.0 86.45 -38.85 117.55 -6.85 117.55 M14.9 153.35 L-17.1 153.35 -26.0 184.6 6.0 184.6 M78.9 153.35 L110.9 153.35 M121.15 117.55 L130.0 86.45 M70.0 184.6 L102.0 184.6 M34.0 86.45 L25.15 117.55 M-17.1 153.35 L-49.1 153.35 -58.0 184.6 -26.0 184.6 M-62.0 86.45 L-30.0 86.45 M-19.45 49.5 L-51.45 49.5 -42.65 18.5 M-10.65 18.5 L-19.45 49.5 12.55 49.5 M-147.45 49.5 L-115.45 49.5 -106.65 18.5 M-158.0 86.45 L-166.85 117.55 -134.85 117.55 -126.0 86.45 -158.0 86.45 -190.0 86.45 -198.85 117.55 -166.85 117.55 M-177.1 153.35 L-145.1 153.35 -154.0 184.6 -122.0 184.6 -90.0 184.6 -81.1 153.35 -113.1 153.35 -145.1 153.35 M-134.85 117.55 L-102.85 117.55 -94.0 86.45 -126.0 86.45 M-115.45 49.5 L-83.45 49.5 -74.65 18.5 M-83.45 49.5 L-51.45 49.5 M-122.0 184.6 L-113.1 153.35 M-102.85 117.55 L-70.85 117.55 -62.0 86.45 -94.0 86.45 M-49.1 153.35 L-81.1 153.35 M-70.85 117.55 L-38.85 117.55 M-90.0 184.6 L-58.0 184.6 M-218.0 184.6 L-186.0 184.6 -177.1 153.35 -209.1 153.35 -218.0 184.6 M-186.0 184.6 L-154.0 184.6" fill="none" stroke="#000000" stroke-linecap="round" stroke-linejoin="round" stroke-width="1.0"/>
    <path d="M246.1 240.2 L214.15 240.2 214.1 240.2 182.15 240.2 150.15 240.2 118.15 240.2 86.15 240.2 54.15 240.2 22.15 240.2 -9.85 240.2 -41.85 240.2 -73.85 240.2 -105.85 240.2 -137.85 240.2 -169.85 240.2 -201.85 240.2 -233.85 240.2" fill="none" stroke="#999999" stroke-linecap="round" stroke-linejoin="round" stroke-width="1.0"/>
    <path d="M-241.1 153.35 L-230.85 117.55 -222.0 86.45 -190.0 86.45 M-198.85 117.55 L-230.85 117.55" fill="none" stroke="#000000" stroke-linecap="round" stroke-linejoin="round" stroke-opacity="0.49803922" stroke-width="1.0"/>
    <path d="M332.5 49.5 L321.95 86.45 M313.1 117.55 L302.85 153.35 M293.95 184.6 L278.1 240.2 246.1 240.2 261.95 184.6 M-233.85 240.2 L-265.85 240.2 -250.0 184.6 -241.1 153.35 -209.1 153.35 -198.85 117.55 M-222.0 86.45 L-211.45 49.5 -202.65 18.5 -170.65 18.5 M258.0 86.45 L268.55 49.5 M268.5 49.5 L257.95 86.45 M289.95 86.45 L300.5 49.5 M172.55 49.5 L162.0 86.45 M194.0 86.45 L204.55 49.5 M226.0 86.45 L236.55 49.5 M166.0 184.6 L150.15 240.2 M229.95 184.6 L223.35 208.0 223.35 208.05 215.3 236.2 214.7 238.2 214.15 240.2 M206.9 153.35 L217.15 117.55 M185.15 117.55 L174.9 153.35 M198.0 184.6 L182.15 240.2 M281.1 117.55 L270.85 153.35 M238.9 153.35 L249.15 117.55 M249.1 117.55 L238.85 153.35 M153.15 117.55 L142.9 153.35 M134.0 184.6 L118.15 240.2 M98.0 86.45 L108.55 49.5 M76.55 49.5 L66.0 86.45 M130.0 86.45 L140.55 49.5 M12.55 49.5 L2.0 86.45 M34.0 86.45 L44.55 49.5 M46.9 153.35 L57.15 117.55 M25.15 117.55 L14.9 153.35 M6.0 184.6 L-9.85 240.2 M89.15 117.55 L78.9 153.35 M110.9 153.35 L121.15 117.55 M102.0 184.6 L86.15 240.2 M-6.85 117.55 L-17.1 153.35 M-26.0 184.6 L-41.85 240.2 M214.7 238.2 L214.1 240.2 M22.15 240.2 L38.0 184.6 M54.15 240.2 L70.0 184.6 M-51.45 49.5 L-62.0 86.45 M-30.0 86.45 L-19.45 49.5 M-158.0 86.45 L-147.45 49.5 M-166.85 117.55 L-177.1 153.35 M-145.1 153.35 L-134.85 117.55 M-126.0 86.45 L-115.45 49.5 M-94.0 86.45 L-83.45 49.5 M-113.1 153.35 L-102.85 117.55 M-38.85 117.55 L-49.1 153.35 M-81.1 153.35 L-70.85 117.55 M-58.0 184.6 L-73.85 240.2 M-179.45 49.5 L-190.0 86.45 M-211.45 49.5 L-179.45 49.5 M-218.0 184.6 L-233.85 240.2 M-218.0 184.6 L-250.0 184.6 M-137.85 240.2 L-122.0 184.6 M-105.85 240.2 L-90.0 184.6 M-154.0 184.6 L-169.85 240.2 M-201.85 240.2 L-186.0 184.6" fill="none" stroke="#000000" stroke-linecap="round" stroke-linejoin="round" stroke-opacity="0.29803923" stroke-width="1.0"/>
  </g>
</svg>
