<?xml version="1.0" encoding="UTF-8" standalone="no"?>
<svg xmlns:ffdec="https://www.free-decompiler.com/flash" xmlns:xlink="http://www.w3.org/1999/xlink" ffdec:objectType="shape" height="174.5px" width="74.1px" xmlns="http://www.w3.org/2000/svg">
  <g transform="matrix(1.0, 0.0, 0.0, 1.0, 40.65, 140.15)">
    <path d="M-3.6 -20.85 L-2.55 -22.6 Q-1.85 -22.6 -1.35 -23.65 -0.85 -24.75 -0.85 -26.25 L-0.2 -27.95 -0.15 -28.1 0.8 -29.1 Q1.3 -29.95 1.3 -31.35 L1.25 -31.9 0.95 -31.9 0.9 -31.9 1.3 -33.9 1.55 -33.85 1.95 -35.2 2.25 -37.15 2.1 -37.8 1.8 -37.7 1.9 -39.7 3.15 -41.65 1.85 -43.75 1.65 -45.75 Q2.0 -46.0 1.7 -47.75 1.4 -49.45 1.0 -49.75 L0.55 -51.7 Q2.0 -53.9 1.95 -54.25 1.85 -54.85 -0.7 -55.55 L-1.35 -57.2 Q0.0 -59.4 -0.15 -59.9 -0.4 -60.5 -3.05 -61.1 L-3.05 -61.15 -3.9 -62.95 -3.6 -62.95 -3.25 -65.6 Q-3.4 -66.2 -5.6 -66.55 L-6.5 -68.3 Q-5.45 -70.5 -5.65 -70.9 -5.85 -71.4 -8.4 -71.9 L-9.35 -73.6 Q-8.35 -75.9 -8.45 -76.2 -8.65 -76.6 -11.15 -77.25 L-11.95 -79.05 Q-10.7 -81.1 -10.8 -81.5 -10.95 -82.05 -13.4 -82.75 L-14.05 -84.7 -13.85 -84.65 Q-13.7 -84.7 -13.7 -85.35 -13.7 -86.35 -14.55 -88.35 L-15.1 -88.55 -15.55 -90.55 Q-15.5 -92.45 -15.6 -93.1 -15.7 -93.85 -16.2 -94.5 L-16.45 -96.55 Q-16.1 -96.95 -16.15 -98.55 -16.25 -100.25 -16.6 -100.6 L-16.5 -102.6 Q-16.0 -102.6 -15.75 -105.8 -6.6 -113.95 -1.05 -116.55 1.8 -117.9 4.2 -118.55 L4.45 -118.45 1.95 -113.4 Q0.2 -110.2 0.15 -108.25 L-12.8 -108.25 -13.5 -106.5 -13.55 -106.35 -13.5 -106.4 -14.85 -99.2 -13.55 -92.25 5.2 -90.75 Q7.9 -84.95 10.65 -80.05 L12.55 -76.4 Q12.55 -74.85 8.5 -73.0 4.65 -71.25 0.6 -70.75 17.8 -61.5 17.8 -55.05 17.8 -52.35 14.3 -48.55 12.75 -46.9 7.65 -42.5 L10.15 -42.5 Q15.15 -42.75 21.3 -44.95 L21.65 -43.75 21.7 -43.25 Q20.5 -40.4 16.45 -37.55 11.95 -34.45 7.3 -33.95 7.4 -32.55 8.5 -31.85 9.3 -31.35 10.25 -31.35 L12.45 -31.8 14.65 -32.25 Q17.45 -32.25 20.0 -30.9 22.95 -29.4 22.95 -27.25 22.95 -23.85 14.65 -21.0 9.0 -19.05 4.25 -18.45 L-4.85 -18.05 -3.4 -18.15 -3.35 -20.5 -3.6 -20.85" fill="#616b76" fill-rule="evenodd" stroke="none"/>
    <path d="M-4.0 -49.55 Q-3.05 -51.8 -9.1 -65.25 L-11.8 -67.75 Q-11.8 -70.65 -13.45 -74.15 L-17.5 -81.75 Q-18.45 -83.65 -19.5 -85.05 -20.05 -85.8 -20.05 -86.5 L-19.95 -88.6 Q-19.9 -90.6 -20.45 -93.2 -21.6 -98.75 -21.8 -102.2 L-21.8 -104.7 -21.7 -108.35 Q-21.3 -109.9 -18.9 -113.4 -18.2 -114.45 -16.55 -119.1 -14.5 -122.9 -11.15 -121.5 L-11.85 -120.8 -12.0 -120.1 Q-12.0 -119.45 -11.7 -119.5 L-11.4 -119.7 -10.1 -121.0 Q-9.35 -121.5 -7.6 -121.65 L-3.3 -122.3 Q-2.65 -122.5 -1.85 -123.0 0.45 -124.0 1.95 -125.7 3.3 -127.35 3.3 -128.75 3.3 -132.15 0.95 -134.15 -1.55 -136.3 -7.35 -137.55 L-4.05 -137.6 Q1.6 -137.6 7.2 -131.9 13.8 -125.25 19.25 -111.75 20.9 -107.65 21.35 -94.6 21.9 -78.35 24.25 -65.75 28.4 -43.4 28.4 -24.1 28.4 -22.85 18.45 -20.6 8.7 -18.35 4.25 -18.45 9.0 -19.05 14.65 -21.0 22.95 -23.85 22.95 -27.25 22.95 -29.4 20.0 -30.9 17.45 -32.25 14.65 -32.25 L12.45 -31.8 10.25 -31.35 Q9.3 -31.35 8.5 -31.85 7.4 -32.55 7.3 -33.95 11.95 -34.45 16.45 -37.55 20.5 -40.4 21.7 -43.25 L21.65 -43.75 21.3 -44.95 Q15.15 -42.75 10.15 -42.5 L7.65 -42.5 Q12.75 -46.9 14.3 -48.55 17.8 -52.35 17.8 -55.05 17.8 -61.5 0.6 -70.75 4.65 -71.25 8.5 -73.0 12.55 -74.85 12.55 -76.4 L10.65 -80.05 Q7.9 -84.95 5.2 -90.75 L-13.55 -92.25 -14.85 -99.2 -13.5 -106.4 -13.55 -106.35 -13.5 -106.5 -12.8 -108.25 0.15 -108.25 Q0.2 -110.2 1.95 -113.4 L4.45 -118.45 4.2 -118.55 Q1.8 -117.9 -1.05 -116.55 -6.6 -113.95 -15.75 -105.8 L-15.85 -106.2 -16.2 -106.4 Q-17.05 -107.3 -16.95 -103.6 L-16.85 -102.8 -16.5 -102.6 -16.6 -100.6 -17.0 -100.6 -17.1 -99.95 -16.9 -97.9 -16.45 -96.55 -16.2 -94.5 -16.55 -94.5 -16.65 -93.9 -16.55 -92.35 Q-16.45 -91.05 -15.55 -90.55 L-15.1 -88.55 -15.35 -88.6 -15.45 -87.9 Q-15.45 -87.25 -14.7 -85.7 -13.95 -84.15 -14.05 -84.7 L-13.4 -82.75 Q-13.75 -83.3 -13.75 -82.3 L-13.75 -80.8 Q-13.45 -79.35 -11.95 -79.05 L-11.15 -77.25 Q-11.15 -75.75 -10.6 -74.65 -10.1 -73.6 -9.35 -73.6 L-8.4 -71.9 -8.65 -71.55 Q-8.2 -70.1 -7.4 -69.25 L-6.5 -68.3 -5.6 -66.55 Q-5.6 -65.05 -5.1 -64.0 -4.6 -62.95 -3.9 -62.95 L-3.05 -61.15 Q-3.3 -61.6 -3.3 -60.65 -3.3 -59.95 -2.45 -58.55 -1.65 -57.15 -1.35 -57.2 L-0.7 -55.55 Q-1.05 -56.1 -1.05 -55.1 L-0.55 -53.15 0.1 -51.75 0.55 -51.7 1.0 -49.75 0.85 -49.75 0.85 -48.95 0.8 -48.0 Q0.8 -47.3 1.05 -46.55 1.25 -45.85 1.45 -45.7 L1.65 -45.75 1.85 -43.75 1.55 -43.85 Q1.35 -43.8 1.35 -43.2 L1.55 -39.7 1.9 -39.7 1.8 -37.7 Q1.55 -37.65 1.2 -36.4 0.9 -35.2 0.9 -34.45 L1.0 -33.85 1.3 -33.9 0.9 -31.9 0.1 -30.35 -0.45 -28.55 -0.3 -27.95 -0.2 -27.95 -0.85 -26.25 -2.35 -24.15 -2.75 -23.05 -2.7 -22.5 -2.55 -22.6 -3.6 -20.85 Q-5.1 -20.35 -5.55 -19.6 L-6.4 -17.45 -6.2 -17.0 11.2 -18.65 Q25.4 -20.75 31.2 -24.8 L31.35 -24.0 Q24.75 -18.85 14.65 -17.1 L-6.9 -15.5 Q-6.8 -16.05 -7.35 -16.3 L-7.75 -15.85 Q-8.0 -15.5 -8.6 -15.5 L-11.3 -15.8 -8.05 -20.05 Q-5.95 -23.1 -5.95 -24.1 -5.95 -24.6 -6.35 -25.05 L-6.8 -26.0 Q-6.8 -27.55 -5.6 -28.15 L-4.25 -28.5 Q-3.3 -29.05 -2.85 -31.4 -2.3 -34.35 -2.3 -41.0 L-2.2 -44.1 Q-2.35 -46.4 -3.6 -47.55 -4.1 -48.6 -4.0 -49.55 M4.1 -92.9 L4.2 -93.55 3.65 -107.15 Q-5.35 -106.8 -11.95 -107.15 -13.0 -107.0 -13.5 -106.45 -14.1 -96.65 -13.9 -95.6 -13.55 -94.0 -12.05 -93.75 L3.7 -93.0 4.1 -92.9 M-24.45 -129.45 Q-24.45 -128.4 -27.2 -125.65 -30.45 -122.5 -31.75 -118.45 -34.05 -111.2 -34.7 -106.65 -35.35 -101.95 -35.35 -92.55 L-35.05 -85.95 -34.5 -76.8 Q-38.65 -87.7 -38.65 -102.35 -38.65 -113.5 -32.0 -124.75 -25.65 -135.45 -20.2 -135.5 -22.05 -134.65 -23.25 -132.9 -24.45 -131.2 -24.45 -129.45 M-20.35 -106.2 Q-19.9 -105.75 -19.3 -105.75 -18.7 -105.75 -18.25 -106.2 -17.8 -106.65 -17.8 -107.25 -17.8 -107.85 -18.25 -108.3 -18.7 -108.75 -19.3 -108.75 -19.9 -108.75 -20.35 -108.3 L-20.8 -107.25 Q-20.8 -106.65 -20.35 -106.2 M-14.5 -111.85 Q-14.5 -112.85 -14.85 -112.45 L-15.45 -112.25 -16.0 -109.2 Q-16.05 -108.6 -15.8 -108.45 -15.5 -108.5 -15.0 -109.8 -14.5 -111.1 -14.5 -111.85 M-14.25 -114.3 L-13.85 -114.35 Q-13.35 -114.85 -12.9 -116.2 L-12.45 -117.6 Q-14.55 -117.35 -14.55 -114.75 -14.55 -114.1 -14.4 -114.15 L-14.25 -114.3 M-17.55 -88.0 Q-18.15 -88.0 -18.6 -87.55 L-19.05 -86.5 Q-19.05 -85.9 -18.6 -85.45 -18.15 -85.0 -17.55 -85.0 -16.95 -85.0 -16.5 -85.45 -16.05 -85.9 -16.05 -86.5 -16.05 -87.1 -16.5 -87.55 -16.95 -88.0 -17.55 -88.0 M-9.3 -69.25 L-10.35 -68.8 Q-10.8 -68.35 -10.8 -67.75 -10.8 -67.15 -10.35 -66.7 -9.9 -66.25 -9.3 -66.25 -8.7 -66.25 -8.25 -66.7 -7.8 -67.15 -7.8 -67.75 -7.8 -68.35 -8.25 -68.8 -8.7 -69.25 -9.3 -69.25 M-1.55 -50.5 Q-2.15 -50.5 -2.6 -50.05 -3.05 -49.6 -3.05 -49.0 -3.05 -48.4 -2.6 -47.95 -2.15 -47.5 -1.55 -47.5 -0.95 -47.5 -0.5 -47.95 -0.05 -48.4 -0.05 -49.0 -0.05 -49.6 -0.5 -50.05 -0.95 -50.5 -1.55 -50.5 M-5.35 -24.95 Q-4.9 -24.5 -4.3 -24.5 -3.7 -24.5 -3.25 -24.95 -2.8 -25.4 -2.8 -26.0 -2.8 -26.6 -3.25 -27.05 -3.7 -27.5 -4.3 -27.5 -4.9 -27.5 -5.35 -27.05 L-5.8 -26.0 Q-5.8 -25.4 -5.35 -24.95" fill="#4d555e" fill-rule="evenodd" stroke="none"/>
    <path d="M-31.25 -42.0 L-32.4 -29.55 -32.0 -28.35 Q-31.45 -27.15 -30.7 -26.3 L-30.9 -23.65 -35.5 -23.35 -31.25 -42.0" fill="#3a4147" fill-rule="evenodd" stroke="none"/>
    <path d="M4.25 -18.45 Q8.7 -18.35 18.45 -20.6 28.4 -22.85 28.4 -24.1 28.4 -43.4 24.25 -65.75 21.9 -78.35 21.35 -94.6 20.9 -107.65 19.25 -111.75 13.8 -125.25 7.2 -131.9 1.6 -137.6 -4.05 -137.6 L-7.35 -137.55 Q-1.55 -136.3 0.95 -134.15 3.3 -132.15 3.3 -128.75 3.3 -127.35 1.95 -125.7 0.45 -124.0 -1.85 -123.0 -2.65 -122.5 -3.3 -122.3 L-7.6 -121.65 Q-9.35 -121.5 -10.1 -121.0 L-11.4 -119.7 -11.7 -119.5 Q-12.0 -119.45 -12.0 -120.1 L-11.85 -120.8 -11.15 -121.5 Q-14.5 -122.9 -16.55 -119.1 -18.2 -114.45 -18.9 -113.4 -21.3 -109.9 -21.7 -108.35 L-21.8 -104.7 -21.8 -102.2 Q-21.6 -98.75 -20.45 -93.2 -19.9 -90.6 -19.95 -88.6 L-20.05 -86.5 Q-20.05 -85.8 -19.5 -85.05 -18.45 -83.65 -17.5 -81.75 L-13.45 -74.15 Q-11.8 -70.65 -11.8 -67.75 L-9.1 -65.25 Q-3.05 -51.8 -4.0 -49.55 -5.1 -54.45 -9.8 -63.35 L-17.4 -77.1 Q-19.8 -81.6 -21.4 -88.8 -22.8 -95.3 -22.8 -100.1 -22.8 -109.95 -20.2 -115.3 L-19.85 -116.25 -19.1 -118.0 -18.1 -119.85 Q-16.25 -123.7 -13.85 -123.65 L-11.05 -123.4 -6.85 -123.8 -3.25 -125.2 Q-0.05 -126.7 0.85 -127.85 0.85 -130.2 0.15 -131.85 -0.6 -133.5 -1.6 -133.5 -3.1 -134.45 -8.25 -135.05 -13.35 -135.6 -15.9 -135.1 -16.45 -135.05 -18.45 -133.95 L-20.9 -132.45 -20.95 -132.45 Q-21.9 -131.25 -22.05 -128.9 -22.15 -127.25 -24.45 -126.35 L-26.25 -124.4 -27.85 -122.1 -28.45 -121.05 Q-31.2 -114.25 -32.25 -108.3 -33.3 -102.35 -33.3 -93.4 -33.3 -87.75 -31.7 -75.0 -30.15 -62.3 -30.15 -58.25 L-30.35 -57.6 Q-30.5 -57.35 -31.15 -57.35 L-31.55 -59.45 Q-32.2 -64.1 -35.7 -74.05 -38.8 -78.7 -40.0 -90.3 -40.65 -96.4 -40.65 -102.55 -40.65 -121.3 -28.9 -131.7 -19.4 -140.15 -7.35 -140.15 14.1 -140.15 21.25 -117.85 24.85 -106.6 24.85 -83.65 24.85 -70.6 29.15 -47.45 L33.45 -23.75 32.0 -23.0 Q30.5 -22.05 30.15 -20.4 29.55 -17.55 29.5 -15.8 L29.45 -14.45 28.0 -13.2 Q26.9 -12.4 26.35 -12.3 L25.25 -11.95 25.25 -14.0 27.35 -14.9 Q27.95 -15.5 28.0 -19.15 L25.35 -17.95 23.3 -17.25 20.7 -16.5 18.7 -16.0 Q16.25 -15.25 10.9 -14.6 L3.95 -13.95 1.95 -13.8 -0.3 -13.7 -2.3 -13.6 -8.5 -13.5 Q-9.4 -13.45 -9.95 -12.55 L-2.3 -12.0 -2.3 -10.0 -11.6 -10.7 Q-17.4 -8.35 -17.55 -8.35 L-20.7 -8.6 Q-23.1 -9.1 -24.5 -10.65 L-25.6 -12.25 Q-26.75 -13.7 -28.25 -14.45 L-30.15 -15.55 -31.4 -17.1 Q-31.6 -17.75 -31.05 -21.8 L-36.7 -21.0 -37.85 -21.25 -37.9 -22.25 -36.75 -26.55 -35.05 -32.6 Q-33.65 -39.1 -33.25 -42.1 -32.6 -46.45 -31.8 -55.9 -31.15 -49.4 -31.25 -42.0 L-35.5 -23.35 -30.9 -23.65 -30.7 -26.3 -29.45 -25.45 -27.35 -24.5 -25.95 -23.8 -23.2 -23.2 -19.75 -22.45 Q-22.0 -22.9 -23.95 -21.65 -25.95 -20.45 -26.45 -18.25 -27.0 -16.05 -25.75 -14.1 -24.55 -12.15 -22.3 -11.5 L-19.85 -10.75 -18.05 -10.35 Q-17.2 -10.35 -15.35 -11.1 -13.25 -11.9 -12.25 -12.8 L-11.75 -13.45 -14.1 -13.65 Q-14.8 -13.85 -14.8 -14.5 -12.35 -20.05 -12.35 -17.55 L-11.35 -18.9 -14.05 -21.6 -9.85 -21.1 -8.7 -23.0 Q-6.35 -26.4 -4.35 -34.25 -2.15 -43.15 -3.6 -47.55 -2.35 -46.4 -2.2 -44.1 L-2.3 -41.0 Q-2.3 -34.35 -2.85 -31.4 -3.3 -29.05 -4.25 -28.5 L-5.6 -28.15 Q-6.8 -27.55 -6.8 -26.0 L-6.35 -25.05 Q-5.95 -24.6 -5.95 -24.1 -5.95 -23.1 -8.05 -20.05 L-11.3 -15.8 -8.6 -15.5 Q-8.0 -15.5 -7.75 -15.85 L-7.35 -16.3 Q-6.8 -16.05 -6.9 -15.5 L14.65 -17.1 Q24.75 -18.85 31.35 -24.0 L31.2 -24.8 Q25.4 -20.75 11.2 -18.65 L-6.2 -17.0 -6.4 -17.45 -5.55 -19.6 Q-5.1 -20.35 -3.6 -20.85 L-3.35 -20.5 -3.4 -18.15 -4.85 -18.05 4.25 -18.45 M-2.55 -22.6 L-2.7 -22.5 -2.75 -23.05 -2.35 -24.15 -0.85 -26.25 Q-0.85 -24.75 -1.35 -23.65 -1.85 -22.6 -2.55 -22.6 M-0.2 -27.95 L-0.3 -27.95 -0.45 -28.55 0.1 -30.35 0.9 -31.9 0.95 -31.9 1.25 -31.9 1.3 -31.35 Q1.3 -29.95 0.8 -29.1 L-0.15 -28.1 -0.2 -27.95 M1.3 -33.9 L1.0 -33.85 0.9 -34.45 Q0.9 -35.2 1.2 -36.4 1.55 -37.65 1.8 -37.7 L2.1 -37.8 2.25 -37.15 1.95 -35.2 1.55 -33.85 1.3 -33.9 M1.9 -39.7 L1.55 -39.7 1.35 -43.2 Q1.35 -43.8 1.55 -43.85 L1.85 -43.75 3.15 -41.65 1.9 -39.7 M1.65 -45.75 L1.45 -45.7 Q1.25 -45.85 1.05 -46.55 0.8 -47.3 0.8 -48.0 L0.85 -48.95 0.85 -49.75 1.0 -49.75 Q1.4 -49.45 1.7 -47.75 2.0 -46.0 1.65 -45.75 M0.55 -51.7 L0.1 -51.75 -0.55 -53.15 -1.05 -55.1 Q-1.05 -56.1 -0.7 -55.55 1.85 -54.85 1.95 -54.25 2.0 -53.9 0.55 -51.7 M-1.35 -57.2 Q-1.65 -57.15 -2.45 -58.55 -3.3 -59.95 -3.3 -60.65 -3.3 -61.6 -3.05 -61.15 L-3.05 -61.1 Q-0.4 -60.5 -0.15 -59.9 0.0 -59.4 -1.35 -57.2 M-3.9 -62.95 Q-4.6 -62.95 -5.1 -64.0 -5.6 -65.05 -5.6 -66.55 -3.4 -66.2 -3.25 -65.6 L-3.6 -62.95 -3.9 -62.95 M-6.5 -68.3 L-7.4 -69.25 Q-8.2 -70.1 -8.65 -71.55 L-8.4 -71.9 Q-5.85 -71.4 -5.65 -70.9 -5.45 -70.5 -6.5 -68.3 M-9.35 -73.6 Q-10.1 -73.6 -10.6 -74.65 -11.15 -75.75 -11.15 -77.25 -8.65 -76.6 -8.45 -76.2 -8.35 -75.9 -9.35 -73.6 M-11.95 -79.05 Q-13.45 -79.35 -13.75 -80.8 L-13.75 -82.3 Q-13.75 -83.3 -13.4 -82.75 -10.95 -82.05 -10.8 -81.5 -10.7 -81.1 -11.95 -79.05 M-14.05 -84.7 Q-13.95 -84.15 -14.7 -85.7 -15.45 -87.25 -15.45 -87.9 L-15.35 -88.6 -15.1 -88.55 -14.55 -88.35 Q-13.7 -86.35 -13.7 -85.35 -13.7 -84.7 -13.85 -84.65 L-14.05 -84.7 M-15.55 -90.55 Q-16.45 -91.05 -16.55 -92.35 L-16.65 -93.9 -16.55 -94.5 -16.2 -94.5 Q-15.7 -93.85 -15.6 -93.1 -15.5 -92.45 -15.55 -90.55 M-16.45 -96.55 L-16.9 -97.9 -17.1 -99.95 -17.0 -100.6 -16.6 -100.6 Q-16.25 -100.25 -16.15 -98.55 -16.1 -96.95 -16.45 -96.55 M-16.5 -102.6 L-16.85 -102.8 -16.95 -103.6 Q-17.05 -107.3 -16.2 -106.4 L-15.85 -106.2 -15.75 -105.8 Q-16.0 -102.6 -16.5 -102.6 M3.95 -11.85 L18.7 -12.7 18.7 -10.65 11.6 -10.1 3.95 -9.8 3.95 -11.85 M-24.45 -129.45 Q-24.45 -131.2 -23.25 -132.9 -22.05 -134.65 -20.2 -135.5 -25.65 -135.45 -32.0 -124.75 -38.65 -113.5 -38.65 -102.35 -38.65 -87.7 -34.5 -76.8 L-35.05 -85.95 -35.35 -92.55 Q-35.35 -101.95 -34.7 -106.65 -34.05 -111.2 -31.75 -118.45 -30.45 -122.5 -27.2 -125.65 -24.45 -128.4 -24.45 -129.45 M-14.25 -114.3 L-14.4 -114.15 Q-14.55 -114.1 -14.55 -114.75 -14.55 -117.35 -12.45 -117.6 L-12.9 -116.2 Q-13.35 -114.85 -13.85 -114.35 L-14.25 -114.3 M-14.5 -111.85 Q-14.5 -111.1 -15.0 -109.8 -15.5 -108.5 -15.8 -108.45 -16.05 -108.6 -16.0 -109.2 L-15.45 -112.25 -14.85 -112.45 Q-14.5 -112.85 -14.5 -111.85 M-29.1 -20.7 Q-29.35 -18.2 -29.5 -17.85 L-28.75 -17.05 Q-28.4 -16.7 -27.3 -16.1 L-27.0 -18.9 Q-26.6 -20.65 -25.25 -21.55 -27.0 -22.15 -28.9 -23.15 L-29.1 -20.7" fill="#25282c" fill-rule="evenodd" stroke="none"/>
    <path d="M18.7 -12.7 L18.7 -16.0 20.7 -16.5 20.65 -8.55 20.45 -8.4 19.7 -8.25 19.1 -8.3 18.8 -8.55 18.7 -10.65 18.7 -12.7 M3.95 -13.95 L3.95 -11.85 3.95 -9.8 3.9 -7.05 3.7 -6.9 2.95 -6.75 2.3 -7.25 Q1.75 -8.8 1.95 -13.8 L3.95 -13.95 M18.0 -5.85 Q18.2 -6.45 18.5 -6.45 L19.05 -5.85 19.25 -4.4 19.05 -2.95 18.5 -2.35 Q18.2 -2.35 18.0 -2.95 17.75 -3.55 17.75 -4.4 L18.0 -5.85 M29.45 -14.45 L30.55 -5.15 Q31.0 -0.6 31.0 4.75 31.0 19.65 23.75 26.8 16.1 34.35 -0.65 34.35 -16.95 34.35 -24.0 25.4 -30.8 16.85 -30.8 -2.25 L-30.6 -7.8 -30.15 -15.55 -28.25 -14.45 -28.65 -7.65 -28.85 -2.35 Q-28.85 17.0 -21.45 25.3 -15.05 32.45 -1.7 32.45 27.35 32.45 27.35 3.0 L27.0 -3.5 26.35 -12.3 Q26.9 -12.4 28.0 -13.2 L29.45 -14.45 M25.35 -17.95 L25.25 -14.0 25.25 -11.95 25.15 -9.75 24.95 -9.6 24.2 -9.5 Q23.65 -9.5 23.45 -10.1 22.9 -11.75 23.3 -17.25 L25.35 -17.95 M18.7 3.05 L18.5 1.6 18.7 0.2 Q18.85 -0.4 19.1 -0.4 L19.55 0.2 19.7 1.6 19.55 3.05 19.1 3.6 Q18.85 3.6 18.7 3.05 M19.6 6.2 L19.75 7.6 19.6 9.05 19.15 9.6 Q18.9 9.6 18.75 9.05 L18.55 7.6 18.75 6.2 Q18.9 5.6 19.15 5.6 L19.6 6.2 M18.6 11.55 Q18.9 11.55 19.1 12.15 L19.3 13.6 19.1 15.05 Q18.9 15.65 18.6 15.65 18.3 15.65 18.1 15.05 L17.9 13.6 18.1 12.15 Q18.3 11.55 18.6 11.55 M17.55 17.5 L18.15 18.1 18.35 19.45 18.15 20.85 17.55 21.4 Q17.2 21.4 17.0 20.85 16.75 20.25 16.75 19.45 16.75 18.65 17.0 18.1 17.2 17.5 17.55 17.5 M15.95 23.55 L16.6 23.15 Q17.35 23.3 15.95 26.7 15.7 26.95 15.3 27.0 15.0 27.55 15.0 26.55 15.0 25.95 15.5 24.7 L15.95 23.55 M-2.3 -12.0 L-2.3 -13.6 -0.3 -13.7 -0.35 -7.05 -0.55 -6.9 -1.3 -6.75 -1.9 -6.8 -2.2 -7.05 -2.3 -10.0 -2.3 -12.0" fill="#153646" fill-rule="evenodd" stroke="none"/>
    <path d="M18.7 -10.65 L18.8 -8.55 19.1 -8.3 19.7 -8.25 20.45 -8.4 20.65 -8.55 20.7 -16.5 23.3 -17.25 Q22.9 -11.75 23.45 -10.1 23.65 -9.5 24.2 -9.5 L24.95 -9.6 25.15 -9.75 25.25 -11.95 26.35 -12.3 27.0 -3.5 27.35 3.0 Q27.35 32.45 -1.7 32.45 -15.05 32.45 -21.45 25.3 -28.85 17.0 -28.85 -2.35 L-28.65 -7.65 -28.25 -14.45 Q-26.75 -13.7 -25.6 -12.25 L-24.5 -10.65 Q-23.1 -9.1 -20.7 -8.6 L-17.55 -8.35 Q-17.4 -8.35 -11.6 -10.7 L-2.3 -10.0 -2.2 -7.05 -1.9 -6.8 -1.3 -6.75 -0.55 -6.9 -0.35 -7.05 -0.3 -13.7 1.95 -13.8 Q1.75 -8.8 2.3 -7.25 L2.95 -6.75 3.7 -6.9 3.9 -7.05 3.95 -9.8 11.6 -10.1 18.7 -10.65 M18.0 -5.85 L17.75 -4.4 Q17.75 -3.55 18.0 -2.95 18.2 -2.35 18.5 -2.35 L19.05 -2.95 19.25 -4.4 19.05 -5.85 18.5 -6.45 Q18.2 -6.45 18.0 -5.85 M15.95 23.55 L15.5 24.7 Q15.0 25.95 15.0 26.55 15.0 27.55 15.3 27.0 15.7 26.95 15.95 26.7 17.35 23.3 16.6 23.15 L15.95 23.55 M17.55 17.5 Q17.2 17.5 17.0 18.1 16.75 18.65 16.75 19.45 16.75 20.25 17.0 20.85 17.2 21.4 17.55 21.4 L18.15 20.85 18.35 19.45 18.15 18.1 17.55 17.5 M18.6 11.55 Q18.3 11.55 18.1 12.15 L17.9 13.6 18.1 15.05 Q18.3 15.65 18.6 15.65 18.9 15.65 19.1 15.05 L19.3 13.6 19.1 12.15 Q18.9 11.55 18.6 11.55 M19.6 6.2 L19.15 5.6 Q18.9 5.6 18.75 6.2 L18.55 7.6 18.75 9.05 Q18.9 9.6 19.15 9.6 L19.6 9.05 19.75 7.6 19.6 6.2 M18.7 3.05 Q18.85 3.6 19.1 3.6 L19.55 3.05 19.7 1.6 19.55 0.2 19.1 -0.4 Q18.85 -0.4 18.7 0.2 L18.5 1.6 18.7 3.05 M11.65 11.1 Q11.65 1.45 3.55 -2.75 -3.0 -6.15 -15.1 -6.15 -20.1 -6.15 -21.9 -4.95 -24.8 -3.0 -24.8 3.25 -24.8 14.0 -19.4 19.8 -14.75 24.85 -7.7 24.85 0.2 24.85 5.5 21.7 11.65 18.0 11.65 11.1" fill="#1e4f66" fill-rule="evenodd" stroke="none"/>
    <path d="M-27.35 -24.5 L-23.2 -23.2 -25.95 -23.8 -27.35 -24.5" fill="#3e352f" fill-rule="evenodd" stroke="none"/>
    <path d="M18.7 -16.0 L18.7 -12.7 3.95 -11.85 3.95 -13.95 10.9 -14.6 Q16.25 -15.25 18.7 -16.0 M25.35 -17.95 L28.0 -19.15 Q27.95 -15.5 27.35 -14.9 L25.25 -14.0 25.35 -17.95 M-29.1 -20.7 L-28.9 -23.15 Q-27.0 -22.15 -25.25 -21.55 -26.6 -20.65 -27.0 -18.9 L-27.3 -16.1 Q-28.4 -16.7 -28.75 -17.05 L-29.5 -17.85 Q-29.35 -18.2 -29.1 -20.7 M-2.3 -12.0 L-9.95 -12.55 Q-9.4 -13.45 -8.5 -13.5 L-2.3 -13.6 -2.3 -12.0" fill="#60534a" fill-rule="evenodd" stroke="none"/>
    <path d="M11.65 11.1 Q11.65 18.0 5.5 21.7 0.2 24.85 -7.7 24.85 -14.75 24.85 -19.4 19.8 -24.8 14.0 -24.8 3.25 -24.8 -3.0 -21.9 -4.95 -20.1 -6.15 -15.1 -6.15 -3.0 -6.15 3.55 -2.75 11.65 1.45 11.65 11.1" fill="#225873" fill-rule="evenodd" stroke="none"/>
    <path d="M2.6 -106.2 L2.6 -101.8 3.15 -94.0 -4.3 -94.25 -12.8 -95.15 -13.05 -101.75 Q-13.05 -103.95 -12.45 -106.45 -4.05 -106.05 2.6 -106.2 M0.55 -98.1 Q1.05 -98.4 1.0 -98.65 L0.1 -99.85 Q-0.75 -100.75 -1.4 -100.75 L-3.15 -100.0 Q-4.4 -99.3 -4.9 -99.3 -5.9 -99.3 -6.55 -100.25 L-7.0 -99.65 -8.4 -102.25 Q-8.65 -102.7 -9.25 -102.7 -10.25 -102.7 -9.65 -102.5 L-11.65 -99.25 -11.95 -98.15 Q-11.95 -97.5 -11.65 -97.65 L-11.35 -97.95 -9.25 -101.3 -7.55 -98.3 Q-7.25 -97.8 -6.65 -97.8 -6.05 -97.8 -6.05 -98.1 L-6.1 -98.9 -5.05 -98.25 Q-2.6 -99.65 -1.6 -99.65 -0.6 -99.65 0.55 -98.1 M-20.35 -106.2 Q-20.8 -106.65 -20.8 -107.25 L-20.35 -108.3 Q-19.9 -108.75 -19.3 -108.75 -18.7 -108.75 -18.25 -108.3 -17.8 -107.85 -17.8 -107.25 -17.8 -106.65 -18.25 -106.2 -18.7 -105.75 -19.3 -105.75 -19.9 -105.75 -20.35 -106.2 M-17.55 -88.0 Q-16.95 -88.0 -16.5 -87.55 -16.05 -87.1 -16.05 -86.5 -16.05 -85.9 -16.5 -85.45 -16.95 -85.0 -17.55 -85.0 -18.15 -85.0 -18.6 -85.45 -19.05 -85.9 -19.05 -86.5 L-18.6 -87.55 Q-18.15 -88.0 -17.55 -88.0 M-9.3 -69.25 Q-8.7 -69.25 -8.25 -68.8 -7.8 -68.35 -7.8 -67.75 -7.8 -67.15 -8.25 -66.7 -8.7 -66.25 -9.3 -66.25 -9.9 -66.25 -10.35 -66.7 -10.8 -67.15 -10.8 -67.75 -10.8 -68.35 -10.35 -68.8 L-9.3 -69.25 M-5.35 -24.95 Q-5.8 -25.4 -5.8 -26.0 L-5.35 -27.05 Q-4.9 -27.5 -4.3 -27.5 -3.7 -27.5 -3.25 -27.05 -2.8 -26.6 -2.8 -26.0 -2.8 -25.4 -3.25 -24.95 -3.7 -24.5 -4.3 -24.5 -4.9 -24.5 -5.35 -24.95 M-1.55 -50.5 Q-0.95 -50.5 -0.5 -50.05 -0.05 -49.6 -0.05 -49.0 -0.05 -48.4 -0.5 -47.95 -0.95 -47.5 -1.55 -47.5 -2.15 -47.5 -2.6 -47.95 -3.05 -48.4 -3.05 -49.0 -3.05 -49.6 -2.6 -50.05 -2.15 -50.5 -1.55 -50.5 M-19.75 -22.45 L-15.95 -21.85 -22.3 -11.5 Q-24.55 -12.15 -25.75 -14.1 -27.0 -16.05 -26.45 -18.25 -25.95 -20.45 -23.95 -21.65 -22.0 -22.9 -19.75 -22.45" fill="#cccccc" fill-rule="evenodd" stroke="none"/>
    <path d="M-15.95 -21.85 L-14.05 -21.6 -11.35 -18.9 -12.35 -17.55 Q-12.35 -20.05 -14.8 -14.5 -14.8 -13.85 -14.1 -13.65 L-11.75 -13.45 -12.25 -12.8 Q-13.25 -11.9 -15.35 -11.1 -17.2 -10.35 -18.05 -10.35 L-19.85 -10.75 -22.3 -11.5 -15.95 -21.85" fill="#aeaeae" fill-rule="evenodd" stroke="none"/>
    <path d="M-1.6 -133.5 Q-0.6 -133.5 0.15 -131.85 0.85 -130.2 0.85 -127.85 L0.5 -130.5 Q-0.1 -132.5 -1.6 -133.5 M-18.1 -119.85 L-19.1 -118.0 Q-20.75 -118.15 -23.3 -120.65 -25.55 -122.85 -26.25 -124.4 L-24.45 -126.35 Q-24.45 -123.65 -22.6 -121.75 -20.75 -119.85 -18.1 -119.85 M-19.85 -116.25 L-20.2 -115.3 Q-24.4 -116.1 -28.45 -121.05 L-27.85 -122.1 Q-26.8 -120.4 -23.9 -118.35 -21.15 -116.4 -19.85 -116.25 M-31.8 -55.9 L-33.5 -64.55 Q-34.5 -69.65 -35.7 -74.05 -32.2 -64.1 -31.55 -59.45 L-31.15 -57.35 Q-30.5 -57.35 -30.35 -57.6 L-30.15 -58.25 -29.5 -52.05 -29.15 -46.8 -30.4 -29.35 Q-30.4 -28.05 -27.7 -26.6 -22.25 -23.7 -8.7 -23.0 L-9.85 -21.1 -14.05 -21.6 -15.95 -21.85 -19.75 -22.45 -23.2 -23.2 -27.35 -24.5 -29.45 -25.45 -30.7 -26.3 Q-31.45 -27.15 -32.0 -28.35 L-32.4 -29.55 -31.25 -42.0 Q-31.15 -49.4 -31.8 -55.9" fill="#333333" fill-rule="evenodd" stroke="none"/>
    <path d="M2.6 -106.2 Q-4.05 -106.05 -12.45 -106.45 -13.05 -103.95 -13.05 -101.75 L-12.8 -95.15 -4.3 -94.25 3.15 -94.0 2.6 -101.8 2.6 -106.2 M4.1 -92.9 L3.7 -93.0 -12.05 -93.75 Q-13.55 -94.0 -13.9 -95.6 -14.1 -96.65 -13.5 -106.45 -13.0 -107.0 -11.95 -107.15 -5.35 -106.8 3.65 -107.15 L4.2 -93.55 4.1 -92.9" fill="#363c41" fill-rule="evenodd" stroke="none"/>
    <path d="M-1.6 -133.5 Q-0.1 -132.5 0.5 -130.5 L0.85 -127.85 Q-0.05 -126.7 -3.25 -125.2 L-6.85 -123.8 -11.05 -123.4 -13.85 -123.65 Q-16.25 -123.7 -18.1 -119.85 -20.75 -119.85 -22.6 -121.75 -24.45 -123.65 -24.45 -126.35 -22.15 -127.25 -22.05 -128.9 -21.9 -131.25 -20.95 -132.45 L-20.9 -132.45 -18.45 -133.95 Q-16.45 -135.05 -15.9 -135.1 -13.35 -135.6 -8.25 -135.05 -3.1 -134.45 -1.6 -133.5" fill="#db9c64" fill-rule="evenodd" stroke="none"/>
    <path d="M-19.1 -118.0 L-19.85 -116.25 Q-21.15 -116.4 -23.9 -118.35 -26.8 -120.4 -27.85 -122.1 L-26.25 -124.4 Q-25.55 -122.85 -23.3 -120.65 -20.75 -118.15 -19.1 -118.0" fill="#cfc2a9" fill-rule="evenodd" stroke="none"/>
    <path d="M-4.0 -49.55 Q-4.1 -48.6 -3.6 -47.55 -2.15 -43.15 -4.35 -34.25 -6.35 -26.4 -8.7 -23.0 -22.25 -23.7 -27.7 -26.6 -30.4 -28.05 -30.4 -29.35 L-29.15 -46.8 -29.5 -52.05 -30.15 -58.25 Q-30.15 -62.3 -31.7 -75.0 -33.3 -87.75 -33.3 -93.4 -33.3 -102.35 -32.25 -108.3 -31.2 -114.25 -28.45 -121.05 -24.4 -116.1 -20.2 -115.3 -22.8 -109.95 -22.8 -100.1 -22.8 -95.3 -21.4 -88.8 -19.8 -81.6 -17.4 -77.1 L-9.8 -63.35 Q-5.1 -54.45 -4.0 -49.55 M-24.6 -113.05 Q-24.75 -114.9 -26.15 -115.85 -28.15 -114.75 -29.75 -111.25 -31.8 -106.75 -31.8 -100.65 -31.8 -85.85 -28.6 -79.6 -27.85 -78.1 -26.4 -76.5 -25.4 -75.35 -25.4 -74.6 -25.4 -73.4 -27.65 -71.75 -29.95 -70.15 -29.95 -69.05 L-28.75 -54.4 Q-27.55 -39.9 -27.45 -37.2 L-27.4 -32.8 Q-27.1 -30.9 -25.45 -30.4 -20.2 -28.75 -18.45 -28.4 L-13.0 -27.9 Q-11.25 -27.9 -9.05 -28.85 -6.15 -30.1 -6.15 -32.1 -6.15 -35.45 -12.45 -36.7 -19.95 -38.15 -20.55 -38.8 -16.1 -40.5 -8.65 -40.9 -6.4 -41.0 -5.6 -41.5 -4.6 -42.15 -4.6 -44.05 -4.6 -48.85 -7.75 -54.2 -9.6 -57.4 -14.6 -64.75 -24.65 -81.1 -24.65 -105.15 L-24.6 -113.05" fill="#cbc7be" fill-rule="evenodd" stroke="none"/>
    <path d="M-24.6 -113.05 L-24.65 -105.15 Q-24.65 -81.1 -14.6 -64.75 -9.6 -57.4 -7.75 -54.2 -4.6 -48.85 -4.6 -44.05 -4.6 -42.15 -5.6 -41.5 -6.4 -41.0 -8.65 -40.9 -16.1 -40.5 -20.55 -38.8 -19.95 -38.15 -12.45 -36.7 -6.15 -35.45 -6.15 -32.1 -6.15 -30.1 -9.05 -28.85 -11.25 -27.9 -13.0 -27.9 L-18.45 -28.4 Q-20.2 -28.75 -25.45 -30.4 -27.1 -30.9 -27.4 -32.8 L-27.45 -37.2 Q-27.55 -39.9 -28.75 -54.4 L-29.95 -69.05 Q-29.95 -70.15 -27.65 -71.75 -25.4 -73.4 -25.4 -74.6 -25.4 -75.35 -26.4 -76.5 -27.85 -78.1 -28.6 -79.6 -31.8 -85.85 -31.8 -100.65 -31.8 -106.75 -29.75 -111.25 -28.15 -114.75 -26.15 -115.85 -24.75 -114.9 -24.6 -113.05" fill="#f2efdb" fill-rule="evenodd" stroke="none"/>
    <path d="M0.55 -98.1 Q-0.6 -99.65 -1.6 -99.65 -2.6 -99.65 -5.05 -98.25 L-6.1 -98.9 -6.05 -98.1 Q-6.05 -97.8 -6.65 -97.8 -7.25 -97.8 -7.55 -98.3 L-9.25 -101.3 -11.35 -97.95 -11.65 -97.65 Q-11.95 -97.5 -11.95 -98.15 L-11.65 -99.25 -9.65 -102.5 Q-10.25 -102.7 -9.25 -102.7 -8.65 -102.7 -8.4 -102.25 L-7.0 -99.65 -6.55 -100.25 Q-5.9 -99.3 -4.9 -99.3 -4.4 -99.3 -3.15 -100.0 L-1.4 -100.75 Q-0.75 -100.75 0.1 -99.85 L1.0 -98.65 Q1.05 -98.4 0.55 -98.1" fill="#666666" fill-rule="evenodd" stroke="none"/>
  </g>
</svg>
