<?xml version="1.0" encoding="UTF-8" standalone="no"?>
<svg xmlns:ffdec="https://www.free-decompiler.com/flash" xmlns:xlink="http://www.w3.org/1999/xlink" ffdec:objectType="shape" height="56.05px" width="66.25px" xmlns="http://www.w3.org/2000/svg">
  <g transform="matrix(1.0, 0.0, 0.0, 1.0, 28.5, 17.35)">
    <path d="M18.2 -8.55 L19.05 -10.75 6.6 -9.8 6.6 -8.6 6.6 2.15 6.5 2.15 6.5 2.3 6.05 2.3 5.45 1.8 5.35 -7.55 5.35 -9.85 2.05 -9.9 2.05 -8.15 2.05 -2.85 1.35 2.25 Q0.95 2.1 0.8 -4.15 0.65 -10.4 0.8 -10.4 L-20.2 -11.85 -23.15 -12.95 -25.55 -14.1 Q-26.65 -12.2 -26.95 -7.75 L-27.25 -2.85 Q-27.25 16.9 -18.65 27.3 -10.45 37.2 4.1 37.2 L11.2 36.5 12.55 33.05 9.55 30.05 9.25 29.75 10.3 29.85 13.9 30.15 14.55 28.9 16.05 26.05 16.65 28.35 17.25 30.6 20.0 31.05 Q22.95 27.0 23.3 20.15 L21.7 21.1 20.6 21.75 21.0 24.3 21.05 24.55 20.95 24.7 20.8 25.1 20.5 25.75 20.35 25.65 17.75 23.3 13.55 25.45 14.65 22.7 15.3 21.05 13.45 19.2 12.0 17.75 16.65 18.15 18.8 14.05 19.05 14.9 20.05 18.6 20.5 18.7 22.05 18.95 23.3 19.15 23.6 7.05 23.4 7.2 21.8 8.45 21.5 8.65 21.85 9.95 22.3 11.5 22.35 11.6 22.3 11.75 22.3 11.8 22.3 12.9 21.8 12.55 18.95 10.6 18.85 10.55 14.9 13.25 16.2 8.65 12.45 5.75 16.85 5.6 17.2 5.6 18.85 1.15 20.45 5.6 21.55 5.65 23.45 5.7 23.6 5.7 23.5 2.0 23.5 1.3 24.05 -1.9 24.4 2.85 24.5 5.75 25.25 5.75 24.55 6.35 24.6 11.95 Q24.6 16.95 23.95 20.8 L22.75 26.7 21.3 31.1 21.9 31.1 21.9 31.2 Q28.25 26.35 32.4 18.75 36.85 10.65 36.4 3.6 L35.6 -5.4 34.8 -9.4 Q34.35 -11.5 33.05 -13.5 L30.45 -12.85 31.15 -4.65 31.2 -4.65 Q31.25 -3.95 31.75 -2.7 32.0 -1.55 30.8 -0.7 30.5 -0.75 30.3 -0.95 L30.15 -1.25 29.3 -11.1 29.2 -12.5 26.3 -11.65 26.45 -9.95 27.35 -0.4 Q27.35 0.15 26.8 0.4 L26.15 0.2 25.9 -2.4 25.9 -3.15 25.0 -11.4 19.05 -10.75 19.85 -8.75 20.75 -6.4 23.0 -6.3 24.45 -6.25 24.45 -5.8 24.45 -5.7 24.45 -5.45 23.15 -4.4 21.7 -3.35 22.95 1.25 21.3 0.1 19.05 -1.4 15.1 1.25 16.4 -3.35 13.25 -5.8 12.65 -6.25 17.4 -6.4 18.2 -8.55 M19.8 -7.5 L19.05 -9.4 18.3 -7.3 17.75 -5.95 14.05 -5.8 15.6 -4.6 16.95 -3.55 15.95 0.05 19.05 -2.05 20.9 -0.8 21.35 -0.45 21.6 -0.3 22.1 0.05 21.15 -3.55 23.95 -5.7 23.95 -5.8 20.4 -5.9 19.8 -7.5 M15.65 -11.65 Q21.35 -12.15 29.0 -13.8 L31.6 -14.4 Q32.85 -14.9 33.8 -15.9 L33.95 -16.1 34.4 -16.1 34.45 -15.8 34.4 -15.85 34.8 -14.25 Q36.55 -8.85 37.65 1.55 37.95 5.9 37.45 9.75 36.7 15.35 34.35 20.05 L34.15 20.45 34.05 20.65 Q31.8 24.85 26.85 29.65 L25.6 30.7 Q16.4 37.95 6.6 38.6 L0.95 38.65 Q-8.35 38.05 -14.8 33.4 L-15.05 33.2 Q-17.95 31.15 -20.2 28.25 L-20.3 28.15 -20.45 27.9 -20.75 27.5 -20.85 27.4 -21.0 27.25 -21.1 27.15 -21.15 27.0 -21.25 26.9 -21.35 26.75 -21.45 26.65 -21.5 26.55 -21.6 26.4 -21.65 26.3 -21.75 26.15 -22.15 25.5 -22.25 25.35 -24.65 20.6 -25.05 19.6 -27.05 13.05 -27.15 12.55 -27.15 12.5 Q-27.95 8.55 -28.25 4.15 L-28.5 -2.4 -27.95 -9.35 -27.8 -10.6 -27.8 -10.65 -27.6 -12.1 -26.8 -17.35 -26.35 -17.35 -24.7 -15.8 Q-23.85 -15.05 -23.1 -15.05 -20.75 -14.15 -16.25 -13.2 -7.15 -11.35 7.1 -11.3 L15.65 -11.65 M18.3 10.35 L18.85 9.95 21.8 11.95 21.8 11.6 20.95 8.45 21.7 7.9 23.85 6.2 21.7 6.15 20.1 6.05 18.85 2.6 17.55 6.05 13.85 6.2 14.9 7.05 16.75 8.45 15.75 12.05 18.3 10.35 M21.8 20.45 L23.05 19.7 23.05 19.6 22.05 19.45 20.35 19.15 19.65 19.05 18.65 15.4 18.55 15.6 16.95 18.65 13.3 18.35 15.4 20.5 15.85 20.95 14.8 23.75 14.5 24.4 17.8 22.7 20.3 24.9 20.5 24.45 20.05 21.5 21.8 20.45 M16.3 28.8 L15.9 27.4 15.05 29.1 14.2 30.65 10.55 30.35 13.1 32.95 12.25 35.2 11.75 36.4 15.05 34.7 15.8 35.35 17.45 34.5 17.35 33.6 17.3 33.5 17.8 33.2 20.15 31.8 20.45 31.6 20.25 31.6 19.2 31.45 16.85 31.05 16.3 28.8" fill="#521210" fill-rule="evenodd" stroke="none"/>
    <path d="M6.5 2.3 L6.5 2.15 6.6 2.15 6.6 -8.6 6.6 -9.8 19.05 -10.75 18.2 -8.55 10.2 -7.3 Q8.7 -6.95 8.25 -6.0 7.85 -5.15 7.9 -2.75 7.9 -1.85 8.25 -1.6 8.4 -1.5 8.85 -1.35 8.45 -1.0 8.05 0.45 L7.6 2.3 6.5 2.3 M23.15 -4.4 L24.45 -5.45 24.45 -5.7 24.45 -5.8 24.45 -6.25 23.0 -6.3 22.8 -8.6 22.75 -9.15 19.85 -8.75 19.05 -10.75 25.0 -11.4 25.9 -3.15 25.9 -2.4 24.05 -1.9 23.5 1.3 23.15 -4.4 M30.3 -0.95 Q30.5 -0.75 30.8 -0.7 32.0 -1.55 31.75 -2.7 31.25 -3.95 31.2 -4.65 L31.15 -4.65 30.45 -12.85 33.05 -13.5 Q34.35 -11.5 34.8 -9.4 L35.6 -5.4 36.4 3.6 Q36.85 10.65 32.4 18.75 28.25 26.35 21.9 31.2 L21.9 31.1 21.3 31.1 22.75 26.7 26.75 21.5 30.3 16.1 Q33.55 9.5 32.85 -0.3 L32.3 -3.85 31.8 -0.7 Q31.25 1.8 30.9 2.5 30.55 2.3 30.5 1.7 L30.3 -0.95 M23.5 2.0 L23.6 5.7 23.45 5.7 23.5 2.0 M23.4 7.2 L23.6 7.05 23.3 19.15 22.05 18.95 Q23.05 12.35 23.4 7.2 M20.35 25.65 L20.5 25.75 20.8 25.1 20.95 24.7 21.05 24.55 21.0 24.3 21.35 22.95 21.7 21.1 23.3 20.15 Q22.95 27.0 20.0 31.05 L17.25 30.6 16.65 28.35 18.35 27.6 Q19.6 26.85 20.35 25.65 M14.55 28.9 L13.9 30.15 10.3 29.85 13.15 29.1 14.55 28.9 M9.55 30.05 L12.55 33.05 11.2 36.5 4.1 37.2 Q-10.45 37.2 -18.65 27.3 -27.25 16.9 -27.25 -2.85 L-26.95 -7.75 Q-26.65 -12.2 -25.55 -14.1 L-23.15 -12.95 -20.2 -11.85 0.8 -10.4 Q0.65 -10.4 0.8 -4.15 0.95 2.1 1.35 2.25 L2.05 -2.85 Q2.3 -1.75 2.15 1.5 L2.05 2.8 0.3 2.8 0.05 -1.1 -1.0 -1.15 -2.45 -1.5 -3.05 -1.6 -2.4 -2.05 -1.0 -2.1 -0.35 -2.05 -0.5 -5.35 -0.5 -8.7 -13.4 -9.35 -23.35 -10.85 -23.4 -10.5 -23.9 -6.6 Q-23.9 -5.95 -23.4 -5.75 L-22.65 -5.5 Q-23.95 -5.05 -24.3 -4.15 -24.65 -3.15 -24.65 0.5 -24.65 3.1 -23.3 7.4 -21.6 12.9 -18.6 17.5 -10.0 30.6 5.15 30.6 L9.55 30.05 M12.0 -1.1 L11.55 -1.5 12.0 -1.9 13.25 -2.1 14.5 -1.9 15.05 -1.5 14.5 -1.1 13.25 -0.95 12.0 -1.1 M27.0 2.3 Q27.05 1.7 27.3 1.75 27.5 1.7 27.75 2.3 L27.95 3.65 27.9 5.1 27.55 5.65 Q27.3 5.65 27.15 5.1 L26.9 3.65 Q26.8 2.85 27.0 2.3 M27.2 17.5 Q27.2 16.45 27.55 15.65 L27.7 17.8 27.65 19.75 27.05 19.75 27.2 17.5 M27.65 8.55 Q27.85 8.5 28.05 9.1 L28.3 10.6 28.25 12.05 27.9 12.6 Q27.6 12.6 27.4 12.05 L27.2 10.6 Q27.1 9.65 27.25 9.1 27.35 8.5 27.65 8.55 M-17.75 -3.6 Q-18.0 -3.4 -18.3 -3.3 L-20.45 -4.15 -20.1 -5.25 Q-17.75 -4.0 -17.75 -3.6 M-7.35 -2.7 L-6.1 -2.5 Q-5.55 -2.3 -5.55 -2.1 -5.55 -1.85 -6.1 -1.65 L-7.4 -1.45 -8.6 -1.65 -9.15 -2.1 Q-9.15 -2.3 -8.6 -2.5 L-7.35 -2.7 M-15.1 -3.5 L-11.85 -3.5 -11.9 -2.15 -15.2 -2.15 -15.1 -3.5" fill="#791a17" fill-rule="evenodd" stroke="none"/>
    <path d="M6.5 2.3 L7.6 2.3 8.05 0.45 Q8.45 -1.0 8.85 -1.35 8.4 -1.5 8.25 -1.6 7.9 -1.85 7.9 -2.75 7.85 -5.15 8.25 -6.0 8.7 -6.95 10.2 -7.3 L18.2 -8.55 17.4 -6.4 12.65 -6.25 13.25 -5.8 12.1 -5.55 Q9.5 -4.85 9.5 -3.6 9.55 -0.45 10.3 2.25 L10.3 3.25 -0.5 3.25 Q-1.05 1.25 -1.0 -1.15 L0.05 -1.1 0.3 2.8 2.05 2.8 2.15 1.5 5.45 1.8 6.05 2.3 6.5 2.3 M21.3 0.1 L22.95 1.25 21.7 -3.35 23.15 -4.4 23.5 1.3 23.5 2.0 23.45 5.7 21.55 5.65 21.35 1.5 21.3 0.1 M23.0 -6.3 L20.75 -6.4 19.85 -8.75 22.75 -9.15 22.8 -8.6 23.0 -6.3 M25.9 -2.4 L26.15 0.2 26.8 0.4 Q27.35 0.15 27.35 -0.4 L30.15 -1.25 30.3 -0.95 30.5 1.7 Q30.55 2.3 30.9 2.5 31.25 1.8 31.8 -0.7 L32.3 -3.85 32.85 -0.3 Q33.55 9.5 30.3 16.1 L26.75 21.5 22.75 26.7 23.95 20.8 24.2 21.3 Q26.95 20.1 26.6 13.85 L25.85 1.3 Q25.35 0.4 25.05 0.3 24.7 1.0 24.4 2.85 L24.05 -1.9 25.9 -2.4 M21.8 12.55 L22.3 12.9 22.3 11.8 22.3 11.75 22.35 11.6 22.3 11.5 21.85 9.95 21.8 8.45 23.4 7.2 Q23.05 12.35 22.05 18.95 L20.5 18.7 Q21.5 15.65 21.8 12.55 M14.65 22.7 L13.55 25.45 17.75 23.3 20.35 25.65 Q19.6 26.85 18.35 27.6 L16.65 28.35 16.05 26.05 14.55 28.9 13.15 29.1 10.3 29.85 9.25 29.75 9.55 30.05 5.15 30.6 Q-10.0 30.6 -18.6 17.5 -21.6 12.9 -23.3 7.4 -24.65 3.1 -24.65 0.5 -24.65 -3.15 -24.3 -4.15 -23.95 -5.05 -22.65 -5.5 L-23.4 -5.75 Q-23.9 -5.95 -23.9 -6.6 L-23.4 -10.5 -23.35 -10.85 -13.4 -9.35 -0.5 -8.7 -0.5 -5.35 -0.35 -2.05 -1.0 -2.1 Q-2.05 -5.5 -8.95 -7.05 L-15.7 -7.95 Q-16.1 -7.95 -17.4 -4.05 -18.8 -0.05 -18.85 1.15 -19.25 7.15 -15.9 13.3 -10.15 23.8 3.45 23.85 10.25 23.8 14.65 22.7 M21.0 24.3 L20.6 21.75 21.7 21.1 21.35 22.95 21.0 24.3 M27.0 2.3 Q26.8 2.85 26.9 3.65 L27.15 5.1 Q27.3 5.65 27.55 5.65 L27.9 5.1 27.95 3.65 27.75 2.3 Q27.5 1.7 27.3 1.75 27.05 1.7 27.0 2.3 M27.65 8.55 Q27.35 8.5 27.25 9.1 27.1 9.65 27.2 10.6 L27.4 12.05 Q27.6 12.6 27.9 12.6 L28.25 12.05 28.3 10.6 28.05 9.1 Q27.85 8.5 27.65 8.55 M27.2 17.5 L27.05 19.75 27.65 19.75 27.7 17.8 27.55 15.65 Q27.2 16.45 27.2 17.5 M-17.75 -3.6 Q-17.75 -4.0 -20.1 -5.25 L-20.45 -4.15 -18.3 -3.3 Q-18.0 -3.4 -17.75 -3.6" fill="#96201d" fill-rule="evenodd" stroke="none"/>
    <path d="M13.25 -5.8 L16.4 -3.35 15.1 1.25 19.05 -1.4 21.3 0.1 21.35 1.5 21.55 5.65 20.45 5.6 18.85 1.15 17.2 5.6 16.85 5.6 Q14.85 4.35 10.9 6.0 3.3 8.95 -1.7 5.5 -6.45 2.0 -6.85 0.9 -7.3 -0.3 -11.45 -0.3 L-12.3 -0.2 -12.55 -0.1 Q-12.25 9.8 -6.25 14.75 -1.4 18.65 7.55 19.15 L13.45 19.2 15.3 21.05 14.65 22.7 Q10.25 23.8 3.45 23.85 -10.15 23.8 -15.9 13.3 -19.25 7.15 -18.85 1.15 -18.8 -0.05 -17.4 -4.05 -16.1 -7.95 -15.7 -7.95 L-8.95 -7.05 Q-2.05 -5.5 -1.0 -2.1 L-2.4 -2.05 -3.05 -1.6 -2.45 -1.5 -1.0 -1.15 Q-1.05 1.25 -0.5 3.25 L10.3 3.25 10.3 2.25 Q9.55 -0.45 9.5 -3.6 9.5 -4.85 12.1 -5.55 L13.25 -5.8 M27.35 -0.4 L26.45 -9.95 29.3 -11.1 30.15 -1.25 27.35 -0.4 M23.95 20.8 Q24.6 16.95 24.6 11.95 L24.55 6.35 25.25 5.75 24.5 5.75 24.4 2.85 Q24.7 1.0 25.05 0.3 25.35 0.4 25.85 1.3 L26.6 13.85 Q26.95 20.1 24.2 21.3 L23.95 20.8 M18.95 10.6 L21.8 12.55 Q21.5 15.65 20.5 18.7 L20.05 18.6 19.05 14.9 18.95 10.6 M21.85 9.95 L21.5 8.65 21.8 8.45 21.85 9.95 M2.05 -2.85 L2.05 -8.15 5.35 -7.55 5.45 1.8 2.15 1.5 Q2.3 -1.75 2.05 -2.85 M12.0 -1.1 L13.25 -0.95 14.5 -1.1 15.05 -1.5 14.5 -1.9 13.25 -2.1 12.0 -1.9 11.55 -1.5 12.0 -1.1 M-15.1 -3.5 L-15.2 -2.15 -11.9 -2.15 -11.85 -3.5 -15.1 -3.5 M-7.35 -2.7 L-8.6 -2.5 Q-9.15 -2.3 -9.15 -2.1 L-8.6 -1.65 -7.4 -1.45 -6.1 -1.65 Q-5.55 -1.85 -5.55 -2.1 -5.55 -2.3 -6.1 -2.5 L-7.35 -2.7" fill="#b52522" fill-rule="evenodd" stroke="none"/>
    <path d="M26.45 -9.95 L26.3 -11.65 29.2 -12.5 29.3 -11.1 26.45 -9.95 M16.85 5.6 L12.45 5.75 16.2 8.65 14.9 13.25 18.85 10.55 18.95 10.6 19.05 14.9 18.8 14.05 16.65 18.15 12.0 17.75 13.45 19.2 7.55 19.15 Q-1.4 18.65 -6.25 14.75 -12.25 9.8 -12.55 -0.1 L-12.3 -0.2 -11.45 -0.3 Q-7.3 -0.3 -6.85 0.9 -6.45 2.0 -1.7 5.5 3.3 8.95 10.9 6.0 14.85 4.35 16.85 5.6 M2.05 -8.15 L2.05 -9.9 5.35 -9.85 5.35 -7.55 2.05 -8.15" fill="#d52d28" fill-rule="evenodd" stroke="none"/>
    <path d="M18.3 -7.3 L19.8 -7.5 20.4 -5.9 23.95 -5.8 23.95 -5.7 21.15 -3.55 22.1 0.05 21.6 -0.3 21.4 -2.3 Q20.75 -4.65 17.7 -4.65 L15.6 -4.6 14.05 -5.8 17.75 -5.95 18.3 -7.3 M21.7 7.9 L21.7 6.15 23.85 6.2 21.7 7.9 M22.05 19.45 L21.8 20.45 20.05 21.5 20.5 24.45 20.3 24.9 17.8 22.7 14.5 24.4 14.8 23.75 Q17.3 23.05 19.0 22.0 L20.35 19.15 22.05 19.45 M15.05 29.1 L15.9 27.4 16.3 28.8 15.05 29.1" fill="#b4b4b4" fill-rule="evenodd" stroke="none"/>
    <path d="M15.6 -4.6 L17.7 -4.65 Q20.75 -4.65 21.4 -2.3 L21.6 -0.3 21.35 -0.45 21.35 -0.8 20.9 -0.8 19.05 -2.05 15.95 0.05 16.95 -3.55 15.6 -4.6 M21.7 7.9 L20.95 8.45 21.8 11.6 21.8 11.95 18.85 9.95 18.3 10.35 Q17.65 7.4 14.9 7.05 L13.85 6.2 17.55 6.05 18.85 2.6 20.1 6.05 21.7 6.15 21.7 7.9 M14.8 23.75 L15.85 20.95 15.4 20.5 17.2 19.9 Q18.35 19.0 18.55 15.6 L18.65 15.4 19.65 19.05 20.35 19.15 19.0 22.0 Q17.3 23.05 14.8 23.75" fill="#d3d3d3" fill-rule="evenodd" stroke="none"/>
    <path d="M19.8 -7.5 L18.3 -7.3 19.05 -9.4 19.8 -7.5 M20.9 -0.8 L21.35 -0.8 21.35 -0.45 20.9 -0.8 M22.05 19.45 L23.05 19.6 23.05 19.7 21.8 20.45 22.05 19.45 M15.05 29.1 L16.3 28.8 16.85 31.05 19.2 31.45 17.8 33.2 17.3 33.5 17.35 33.6 16.55 34.05 12.25 35.2 13.1 32.95 10.55 30.35 14.2 30.65 15.05 29.1 M20.25 31.6 L20.45 31.6 20.15 31.8 20.25 31.6" fill="#868686" fill-rule="evenodd" stroke="none"/>
    <path d="M14.9 7.05 Q17.65 7.4 18.3 10.35 L15.75 12.05 16.75 8.45 14.9 7.05 M15.4 20.5 L13.3 18.35 16.95 18.65 18.55 15.6 Q18.35 19.0 17.2 19.9 L15.4 20.5" fill="#f8f8f8" fill-rule="evenodd" stroke="none"/>
    <path d="M19.2 31.45 L20.25 31.6 20.15 31.8 17.8 33.2 19.2 31.45 M17.35 33.6 L17.45 34.5 15.8 35.35 15.05 34.7 11.75 36.4 12.25 35.2 16.55 34.05 17.35 33.6" fill="#555555" fill-rule="evenodd" stroke="none"/>
  </g>
</svg>
