<?xml version="1.0" encoding="UTF-8" standalone="no"?>
<svg xmlns:ffdec="https://www.free-decompiler.com/flash" xmlns:xlink="http://www.w3.org/1999/xlink" ffdec:objectType="shape" height="139.45px" width="72.2px" xmlns="http://www.w3.org/2000/svg">
  <g transform="matrix(1.0, 0.0, 0.0, 1.0, 32.95, 137.4)">
    <path d="M-8.3 -121.85 L-6.65 -120.35 -7.7 -118.85 -8.6 -119.5 -8.3 -121.85 M4.35 -122.55 Q5.95 -125.05 6.55 -126.4 L8.05 -130.05 8.5 -127.3 4.75 -121.25 4.35 -122.55 M6.85 -6.7 L6.65 -6.55 6.65 -6.4 6.55 -5.45 0.4 -5.7 0.2 -5.75 -1.0 -5.8 -11.0 -7.25 -13.95 -7.85 -13.05 -7.9 -3.95 -6.35 4.2 -6.6 6.85 -6.7 M8.75 -5.4 L8.45 -6.4 8.15 -6.2 8.0 -6.3 7.6 -6.7 16.25 -7.15 26.5 -8.2 27.95 -8.2 15.25 -5.7 14.35 -5.6 10.05 -5.3 8.75 -5.4 M-16.05 -5.5 L-12.05 -4.7 -12.35 -2.15 -15.95 -3.05 Q-15.85 -4.45 -16.05 -5.5 M-11.15 -4.55 L-7.7 -3.9 -7.95 -1.3 -11.1 -1.9 -11.15 -4.55 M-6.2 -3.65 L-1.5 -3.0 -1.45 -0.45 -6.15 -0.95 -6.2 -3.65 M0.65 -0.3 L0.6 -2.85 6.4 -2.55 6.35 -0.3 0.65 -0.3 M9.15 -0.45 L9.05 -2.6 10.05 -2.5 14.15 -2.8 14.15 -0.9 9.15 -0.45 M15.95 -1.1 L15.9 -2.9 17.4 -3.05 20.6 -3.55 20.55 -1.55 15.95 -1.1 M22.3 -3.95 L24.2 -4.35 28.35 -5.45 28.55 -3.5 22.3 -1.85 22.3 -3.95" fill="#d1d1d1" fill-rule="evenodd" stroke="none"/>
    <path d="M-10.15 -128.0 L-10.15 -127.5 -10.15 -127.45 Q-9.05 -123.2 -8.3 -121.85 L-8.6 -119.5 Q-9.35 -120.4 -10.2 -122.5 -11.0 -124.45 -11.0 -125.15 L-10.15 -128.0 M8.05 -130.05 L8.75 -131.5 9.45 -129.25 8.5 -127.3 8.05 -130.05 M6.85 -6.7 L4.2 -6.6 -3.95 -6.35 -13.05 -7.9 -13.95 -7.85 Q-18.3 -8.95 -22.35 -10.2 L-11.4 -9.9 Q5.95 -6.8 10.05 -7.6 L10.05 -7.5 18.15 -7.9 Q22.75 -8.6 25.25 -10.0 L32.3 -11.0 32.6 -9.9 27.95 -8.2 26.5 -8.2 16.25 -7.15 7.6 -6.7 7.3 -6.75 6.85 -6.7 M28.55 -3.5 L28.35 -5.45 33.2 -7.2 33.55 -5.3 28.55 -3.5 M-23.35 -7.5 L-16.05 -5.5 Q-15.85 -4.45 -15.95 -3.05 L-16.0 -3.05 -23.05 -5.3 -23.35 -7.5" fill="#a3a3a3" fill-rule="evenodd" stroke="none"/>
    <path d="M4.75 -121.25 L3.95 -120.2 Q3.25 -119.65 0.7 -118.75 -1.9 -117.85 -3.0 -117.85 L-5.5 -118.2 -7.7 -118.85 -6.65 -120.35 -5.2 -119.75 -3.5 -119.5 Q-1.75 -119.5 0.95 -120.6 2.6 -121.25 3.65 -121.9 L4.35 -122.55 4.75 -121.25 M6.55 -5.45 L6.65 -6.4 6.65 -6.55 6.85 -6.7 7.3 -6.75 7.6 -6.7 8.0 -6.3 8.15 -6.2 8.45 -6.4 8.75 -5.4 6.55 -5.45 M-1.5 -3.0 L-1.45 -3.0 0.6 -2.85 0.65 -0.3 -1.45 -0.45 -1.5 -3.0 M6.35 -0.3 L6.4 -2.55 9.05 -2.6 9.15 -0.45 6.35 -0.3 M14.15 -0.9 L14.15 -2.8 15.9 -2.9 15.95 -1.1 14.15 -0.9 M20.6 -3.55 L22.3 -3.95 22.3 -1.85 20.55 -1.55 20.6 -3.55 M-12.35 -2.15 L-12.05 -4.7 -11.15 -4.55 -11.1 -1.9 -12.35 -2.15 M-7.95 -1.3 L-7.7 -3.9 -6.2 -3.65 -6.15 -0.95 -7.95 -1.3" fill="#f4f4f4" fill-rule="evenodd" stroke="none"/>
    <path d="M9.7 -132.95 L10.65 -129.3 9.4 -127.65 7.3 -123.7 Q5.25 -120.0 4.25 -118.95 L3.65 -118.7 -1.3 -117.05 Q-6.65 -116.8 -8.85 -118.4 -11.05 -119.95 -11.6 -124.4 L-11.85 -126.65 -10.15 -129.9 -10.15 -128.0 -11.0 -125.15 Q-11.0 -124.45 -10.2 -122.5 -9.35 -120.4 -8.6 -119.5 L-7.7 -118.85 -5.5 -118.2 -3.0 -117.85 Q-1.9 -117.85 0.7 -118.75 3.25 -119.65 3.95 -120.2 L4.75 -121.25 8.5 -127.3 9.45 -129.25 8.75 -131.5 9.7 -132.95 M37.95 -14.5 L38.15 -12.5 37.15 -12.0 36.95 -14.0 37.95 -14.5 M38.55 -9.65 L38.6 -7.7 37.3 -7.0 37.35 -9.0 38.55 -9.65 M-30.5 -8.8 L-30.45 -10.55 -29.0 -9.8 -28.95 -7.95 -30.5 -8.8 M-30.4 -13.55 L-30.35 -14.95 -29.2 -14.5 -29.1 -12.95 -30.4 -13.55" fill="#4e4e4e" fill-rule="evenodd" stroke="none"/>
    <path d="M-8.3 -121.85 Q-7.25 -122.4 -3.45 -121.15 0.05 -121.15 2.5 -122.95 L3.65 -123.9 Q5.6 -126.6 7.05 -132.1 L8.05 -130.05 6.55 -126.4 Q5.95 -125.05 4.35 -122.55 L4.1 -122.9 3.65 -122.45 Q0.4 -120.2 -1.8 -120.2 L-4.0 -120.45 -6.65 -120.35 -8.3 -121.85 M27.05 -13.8 Q26.2 -13.4 21.2 -12.9 L10.05 -11.85 10.05 -11.95 3.55 -11.75 -15.5 -13.25 Q-20.3 -15.4 -22.2 -17.45 -24.55 -19.95 -24.55 -23.9 -24.55 -25.65 -22.2 -28.1 -19.85 -30.6 -19.85 -31.4 -19.85 -32.5 -20.75 -34.8 -21.65 -37.1 -21.65 -38.3 -21.65 -40.8 -19.4 -44.6 -17.2 -48.4 -17.2 -50.2 -17.2 -60.35 -16.45 -65.35 L-15.7 -70.1 Q-15.7 -74.1 -15.0 -75.65 L-13.65 -78.25 Q-12.9 -79.7 -12.9 -80.1 L-12.45 -92.5 Q-12.35 -96.5 -11.1 -103.5 L-10.65 -105.8 -10.7 -105.8 -10.65 -106.0 -10.25 -108.2 -9.7 -111.55 Q-9.35 -115.35 -6.6 -116.4 L-1.3 -117.05 3.65 -118.7 4.25 -118.95 Q5.15 -119.0 5.5 -118.65 L6.2 -117.05 6.35 -116.6 7.4 -116.6 9.2 -111.1 10.7 -106.25 10.8 -106.0 10.85 -105.8 Q15.1 -88.6 15.2 -82.8 15.35 -77.05 16.55 -73.55 17.75 -70.15 17.75 -65.55 L17.8 -59.05 21.45 -54.95 Q23.2 -52.65 23.35 -50.05 23.55 -46.3 23.8 -45.55 24.7 -42.7 26.45 -38.35 27.5 -35.9 27.9 -32.55 28.2 -30.15 30.2 -24.75 L32.15 -19.75 Q32.15 -17.6 27.05 -13.8 M2.65 -105.8 L2.6 -106.0 1.75 -108.2 -0.25 -113.25 Q-2.35 -111.4 -5.25 -110.45 -6.6 -110.05 -7.05 -108.2 L-7.15 -107.7 -10.4 -87.5 -9.85 -83.1 -9.35 -79.6 -10.35 -69.2 -11.35 -58.75 Q-11.35 -53.55 -10.2 -52.2 -8.8 -50.55 -2.15 -48.7 -3.95 -48.1 -8.7 -47.45 -10.7 -47.15 -10.95 -45.2 L-11.6 -37.9 -11.8 -33.35 Q-11.8 -33.0 -9.9 -32.15 -7.65 -31.2 -6.5 -29.45 -8.8 -27.75 -12.75 -26.5 -15.3 -25.75 -15.3 -24.35 -15.3 -19.2 -11.05 -16.75 -6.65 -14.2 2.6 -14.2 L19.5 -15.25 Q26.8 -16.4 26.8 -18.6 26.8 -20.85 25.45 -21.7 23.0 -23.2 15.65 -22.65 L15.4 -25.75 Q15.4 -26.45 18.7 -27.95 21.95 -29.5 21.95 -30.0 21.95 -37.2 17.45 -39.85 15.0 -41.25 7.7 -42.15 L8.15 -42.4 Q9.9 -43.25 12.45 -45.55 15.8 -48.5 15.8 -50.35 15.8 -52.3 14.25 -53.7 12.7 -55.15 12.7 -55.4 L13.35 -60.5 14.0 -67.65 Q14.0 -69.1 12.05 -70.2 L14.0 -73.5 Q14.0 -75.85 11.2 -76.8 L6.15 -78.1 Q9.4 -81.1 9.4 -87.2 9.4 -88.45 2.65 -105.8 M-11.4 -9.9 L5.5 -8.6 5.5 -8.25 12.6 -8.6 25.25 -10.0 Q22.75 -8.6 18.15 -7.9 L10.05 -7.5 10.05 -7.6 Q5.95 -6.8 -11.4 -9.9 M-22.35 -10.2 Q-18.3 -8.95 -13.95 -7.85 -14.8 -7.85 -15.4 -7.15 -16.05 -6.45 -16.05 -5.5 L-23.35 -7.5 -22.95 -9.1 -22.35 -10.2 M28.35 -5.45 L28.15 -7.3 27.95 -8.2 32.6 -9.9 33.2 -7.2 28.35 -5.45 M28.6 -2.05 L28.55 -3.5 33.55 -5.3 33.85 -4.25 Q32.2 -3.4 30.3 -2.65 L28.6 -2.05 M-23.0 -4.3 L-23.05 -5.3 -16.0 -3.05 -16.25 -2.1 -18.75 -2.55 Q-21.4 -3.2 -23.0 -4.3" fill="#911313" fill-rule="evenodd" stroke="none"/>
    <path d="M4.35 -89.05 Q4.35 -85.55 1.0 -81.55 -2.25 -77.7 -4.7 -77.7 -5.75 -77.7 -6.35 -79.5 -6.85 -81.0 -6.85 -83.05 -6.85 -85.9 -6.1 -89.5 L-2.5 -103.3 Q0.2 -101.15 2.4 -96.0 4.35 -91.5 4.35 -89.05 M5.55 -62.8 L-1.75 -57.65 -1.95 -57.55 4.9 -57.2 9.4 -57.2 9.45 -55.2 Q9.45 -53.15 7.9 -52.55 L3.75 -52.2 Q-5.75 -52.2 -7.25 -54.35 -8.0 -55.45 -8.0 -57.95 L-7.9 -64.05 -5.15 -66.8 Q-2.0 -69.6 0.9 -71.35 9.65 -76.55 9.65 -68.15 9.65 -65.9 5.55 -62.8 M11.75 -31.65 L3.15 -32.05 4.9 -32.5 Q2.45 -32.9 -2.95 -32.6 -7.05 -32.75 -7.05 -35.7 -7.05 -40.8 -4.7 -40.8 6.8 -40.8 12.95 -38.85 18.65 -37.0 19.25 -33.7 16.65 -31.65 11.75 -31.65 M15.1 -18.15 L10.05 -17.45 10.05 -17.5 Q0.2 -16.65 -5.95 -19.15 -11.2 -21.25 -11.2 -24.15 L-11.1 -24.95 -10.8 -25.6 -9.6 -25.75 -5.65 -24.65 3.35 -22.15 9.35 -21.35 19.05 -19.8 Q18.05 -18.9 15.1 -18.15 M-1.0 -5.8 L0.2 -5.75 0.4 -5.7 0.6 -2.85 -1.45 -3.0 Q-1.35 -5.1 -1.0 -5.8 M6.55 -5.45 L8.75 -5.4 9.05 -2.6 6.4 -2.55 6.55 -5.45 M-12.05 -4.7 L-11.85 -4.7 -12.0 -4.75 -11.6 -5.85 Q-11.25 -5.3 -11.15 -4.55 L-12.05 -4.7 M-7.7 -3.9 L-7.45 -6.15 -6.3 -5.7 -6.2 -3.65 -7.7 -3.9 M14.35 -5.6 L15.25 -5.7 15.9 -2.9 14.15 -2.8 14.05 -3.9 Q14.05 -4.9 14.35 -5.6 M6.35 -0.3 L9.15 -0.45 9.15 0.65 6.3 0.65 6.35 -0.3 M14.15 0.3 L14.15 -0.9 15.95 -1.1 16.0 0.25 14.15 0.3 M20.6 -3.55 L20.6 -5.45 22.3 -5.45 22.3 -3.95 20.6 -3.55 M20.55 -1.55 L22.3 -1.85 22.25 -0.7 20.2 -0.25 20.55 -0.4 20.55 -1.55 M-11.1 -1.9 L-11.15 -0.75 -12.45 -1.05 -12.35 -2.15 -11.1 -1.9 M-8.0 -0.2 L-7.95 -1.3 -6.15 -0.95 -6.1 0.05 -8.0 -0.2 M-1.4 0.45 L-1.45 -0.45 0.65 -0.3 0.7 0.5 -1.4 0.45" fill="#d71c1c" fill-rule="evenodd" stroke="none"/>
    <path d="M-10.15 -129.9 L-9.0 -132.15 -7.75 -134.05 -5.7 -136.1 -5.45 -136.3 -4.7 -136.9 -4.4 -137.1 Q-1.35 -137.7 1.7 -137.1 L1.7 -136.9 1.7 -136.1 1.7 -135.85 -0.85 -134.55 -1.6 -134.15 -4.0 -132.5 Q-4.55 -131.8 -5.2 -129.25 L-5.75 -126.7 Q-5.75 -124.65 -5.15 -123.7 -4.6 -122.8 -3.4 -122.8 0.8 -122.8 3.65 -128.8 L3.75 -129.05 Q4.85 -132.5 5.3 -133.4 6.3 -135.35 7.65 -135.35 8.9 -135.35 9.7 -132.95 L8.75 -131.5 Q8.4 -133.1 7.6 -134.05 L3.65 -126.75 3.6 -126.7 Q0.1 -122.05 -3.05 -122.05 -5.55 -122.05 -6.45 -124.1 -7.05 -125.4 -7.05 -127.95 -7.05 -130.75 -5.05 -132.95 L-1.6 -135.9 -1.6 -136.1 -4.8 -136.1 -5.9 -135.15 -7.75 -132.85 -9.3 -130.0 -9.3 -129.95 -9.85 -128.55 -10.15 -127.5 -10.15 -128.0 -10.15 -129.9 M10.65 -129.3 L20.35 -112.75 23.2 -108.2 24.7 -105.8 29.5 -98.25 32.0 -94.4 Q33.2 -92.4 34.2 -89.7 35.6 -85.75 35.6 -82.25 35.6 -75.8 30.95 -70.7 L27.7 -66.95 Q26.25 -64.65 26.25 -61.85 26.25 -60.5 26.85 -59.1 27.6 -57.35 28.05 -53.55 30.3 -43.6 31.95 -40.55 32.95 -38.65 33.5 -35.2 34.05 -31.45 34.7 -29.9 36.25 -26.2 38.1 -23.25 39.25 -21.45 39.25 -20.55 L37.95 -14.5 36.95 -14.0 36.55 -16.55 Q35.1 -14.3 27.15 -12.55 19.05 -10.75 10.05 -10.7 L10.05 -10.75 5.5 -10.65 Q-8.2 -10.65 -18.65 -12.4 -27.65 -13.9 -29.3 -15.7 L-29.2 -14.5 -30.35 -14.95 Q-30.4 -15.65 -31.7 -18.05 L-32.95 -20.95 Q-32.95 -25.6 -30.45 -29.8 L-27.6 -34.8 Q-26.25 -40.7 -24.55 -53.8 L-23.25 -62.3 -21.35 -76.5 Q-20.5 -83.7 -18.95 -101.05 L-18.25 -105.8 -17.85 -108.2 Q-16.0 -118.3 -13.0 -124.25 L-11.85 -126.65 -11.6 -124.4 Q-14.45 -118.1 -16.05 -108.2 L-16.4 -105.8 -17.4 -97.05 Q-19.25 -75.2 -20.0 -72.05 L-22.0 -61.9 -24.5 -47.0 Q-26.25 -34.5 -26.85 -33.25 L-30.1 -26.95 Q-31.4 -24.1 -31.4 -21.95 -31.4 -18.8 -28.05 -16.1 -23.55 -12.45 -15.5 -13.25 L3.55 -11.75 10.05 -11.95 10.05 -11.85 21.2 -12.9 Q26.2 -13.4 27.05 -13.8 31.75 -14.3 34.7 -16.9 37.1 -19.0 37.1 -20.75 L35.3 -25.1 Q33.4 -29.35 33.2 -30.2 L33.05 -32.55 32.8 -35.25 30.5 -39.35 Q26.95 -46.6 23.75 -68.15 L24.0 -70.75 24.1 -70.65 24.95 -70.6 Q28.35 -70.6 30.95 -73.65 34.05 -77.3 34.05 -83.6 34.05 -87.3 33.35 -89.4 L32.6 -90.85 27.6 -98.65 23.1 -105.8 22.95 -106.0 21.6 -108.2 17.45 -115.05 Q18.55 -111.5 19.25 -108.2 L19.7 -105.8 20.25 -101.45 18.5 -105.8 17.6 -108.2 15.35 -115.0 14.5 -119.35 9.4 -127.65 10.65 -129.3 M38.15 -12.5 L38.55 -9.65 37.35 -9.0 37.15 -12.0 38.15 -12.5 M38.6 -7.7 Q38.65 -2.6 25.1 0.15 15.8 2.05 7.65 2.05 -1.65 2.05 -15.0 -0.8 -31.4 -4.35 -30.5 -8.8 L-28.95 -7.95 Q-28.95 -6.45 -27.2 -5.35 -25.45 -4.3 -23.0 -4.3 -21.4 -3.2 -18.75 -2.55 L-16.25 -2.1 -12.45 -1.05 -11.15 -0.75 -8.0 -0.2 -6.1 0.05 -1.4 0.45 0.7 0.5 6.3 0.65 9.15 0.65 14.15 0.3 16.0 0.25 20.55 -0.4 20.2 -0.25 22.25 -0.7 25.95 -1.35 28.6 -2.05 30.3 -2.65 Q32.2 -3.4 33.85 -4.25 37.25 -5.65 37.3 -5.75 L37.3 -7.0 38.6 -7.7 M-30.45 -10.55 L-30.4 -13.55 -29.1 -12.95 -29.0 -9.8 -30.45 -10.55" fill="#3f0909" fill-rule="evenodd" stroke="none"/>
    <path d="M-10.15 -127.5 L-9.85 -128.55 -9.3 -129.95 -9.3 -130.0 -7.75 -132.85 -5.9 -135.15 -4.8 -136.1 -1.6 -136.1 -1.6 -135.9 -5.05 -132.95 Q-7.05 -130.75 -7.05 -127.95 -7.05 -125.4 -6.45 -124.1 -5.55 -122.05 -3.05 -122.05 0.1 -122.05 3.6 -126.7 L3.65 -126.75 7.6 -134.05 Q8.4 -133.1 8.75 -131.5 L8.05 -130.05 7.05 -132.1 Q5.6 -126.6 3.65 -123.9 L2.5 -122.95 Q0.05 -121.15 -3.45 -121.15 -7.25 -122.4 -8.3 -121.85 -9.05 -123.2 -10.15 -127.45 L-10.15 -127.5 M9.4 -127.65 L14.5 -119.35 15.35 -115.0 17.6 -108.2 18.5 -105.8 20.25 -101.45 19.7 -105.8 19.25 -108.2 Q18.55 -111.5 17.45 -115.05 L21.6 -108.2 22.95 -106.0 23.1 -105.8 27.6 -98.65 32.6 -90.85 33.35 -89.4 Q34.05 -87.3 34.05 -83.6 34.05 -77.3 30.95 -73.65 28.35 -70.6 24.95 -70.6 L24.1 -70.65 24.0 -70.75 23.75 -68.15 Q26.95 -46.6 30.5 -39.35 L32.8 -35.25 33.05 -32.55 33.2 -30.2 Q33.4 -29.35 35.3 -25.1 L37.1 -20.75 Q37.1 -19.0 34.7 -16.9 31.75 -14.3 27.05 -13.8 32.15 -17.6 32.15 -19.75 L30.2 -24.75 Q28.2 -30.15 27.9 -32.55 27.5 -35.9 26.45 -38.35 24.7 -42.7 23.8 -45.55 23.55 -46.3 23.35 -50.05 23.2 -52.65 21.45 -54.95 L17.8 -59.05 17.75 -65.55 Q17.75 -70.15 16.55 -73.55 15.35 -77.05 15.2 -82.8 15.1 -88.6 10.85 -105.8 L10.8 -106.0 10.7 -106.25 9.2 -111.1 7.4 -116.6 6.35 -116.6 6.2 -117.05 5.5 -118.65 Q5.15 -119.0 4.25 -118.95 5.25 -120.0 7.3 -123.7 L9.4 -127.65 M-15.5 -13.25 Q-23.55 -12.45 -28.05 -16.1 -31.4 -18.8 -31.4 -21.95 -31.4 -24.1 -30.1 -26.95 L-26.85 -33.25 Q-26.25 -34.5 -24.5 -47.0 L-22.0 -61.9 -20.0 -72.05 Q-19.25 -75.2 -17.4 -97.05 L-16.4 -105.8 -16.05 -108.2 Q-14.45 -118.1 -11.6 -124.4 -11.05 -119.95 -8.85 -118.4 -6.65 -116.8 -1.3 -117.05 L-6.6 -116.4 Q-9.35 -115.35 -9.7 -111.55 L-10.25 -108.2 -10.65 -106.0 -10.7 -105.8 -10.65 -105.8 -11.1 -103.5 Q-12.35 -96.5 -12.45 -92.5 L-12.9 -80.1 Q-12.9 -79.7 -13.65 -78.25 L-15.0 -75.65 Q-15.7 -74.1 -15.7 -70.1 L-16.45 -65.35 Q-17.2 -60.35 -17.2 -50.2 -17.2 -48.4 -19.4 -44.6 -21.65 -40.8 -21.65 -38.3 -21.65 -37.1 -20.75 -34.8 -19.85 -32.5 -19.85 -31.4 -19.85 -30.6 -22.2 -28.1 -24.55 -25.65 -24.55 -23.9 -24.55 -19.95 -22.2 -17.45 -20.3 -15.4 -15.5 -13.25 M-29.2 -14.5 L-29.3 -15.7 Q-27.65 -13.9 -18.65 -12.4 -8.2 -10.65 5.5 -10.65 L10.05 -10.75 10.05 -10.7 Q19.05 -10.75 27.15 -12.55 35.1 -14.3 36.55 -16.55 L36.95 -14.0 30.8 -11.8 25.25 -10.0 12.6 -8.6 5.5 -8.25 5.5 -8.6 -11.4 -9.9 -23.15 -12.15 -29.2 -14.5 M33.2 -7.2 L32.6 -9.9 Q35.3 -11.0 37.15 -12.0 L37.35 -9.0 33.2 -7.2 M33.85 -4.25 L33.55 -5.3 37.3 -7.0 37.3 -5.75 Q37.25 -5.65 33.85 -4.25 M-29.1 -12.95 Q-25.8 -11.45 -22.35 -10.2 L-22.95 -9.1 -23.35 -7.5 -29.0 -9.8 -29.1 -12.95 M-23.05 -5.3 L-23.0 -4.3 Q-25.45 -4.3 -27.2 -5.35 -28.95 -6.45 -28.95 -7.95 L-23.05 -5.3" fill="#620d0d" fill-rule="evenodd" stroke="none"/>
    <path d="M-6.65 -120.35 L-4.0 -120.45 -1.8 -120.2 Q0.4 -120.2 3.65 -122.45 L4.1 -122.9 4.35 -122.55 3.65 -121.9 Q2.6 -121.25 0.95 -120.6 -1.75 -119.5 -3.5 -119.5 L-5.2 -119.75 -6.65 -120.35 M2.65 -105.8 Q9.4 -88.45 9.4 -87.2 9.4 -81.1 6.15 -78.1 L11.2 -76.8 Q14.0 -75.85 14.0 -73.5 L12.05 -70.2 Q14.0 -69.1 14.0 -67.65 L13.35 -60.5 12.7 -55.4 Q12.7 -55.15 14.25 -53.7 15.8 -52.3 15.8 -50.35 15.8 -48.5 12.45 -45.55 9.9 -43.25 8.15 -42.4 L7.7 -42.15 Q15.0 -41.25 17.45 -39.85 21.95 -37.2 21.95 -30.0 21.95 -29.5 18.7 -27.95 15.4 -26.45 15.4 -25.75 L15.65 -22.65 Q23.0 -23.2 25.45 -21.7 26.8 -20.85 26.8 -18.6 26.8 -16.4 19.5 -15.25 L2.6 -14.2 Q-6.65 -14.2 -11.05 -16.75 -15.3 -19.2 -15.3 -24.35 -15.3 -25.75 -12.75 -26.5 -8.8 -27.75 -6.5 -29.45 -7.65 -31.2 -9.9 -32.15 -11.8 -33.0 -11.8 -33.35 L-11.6 -37.9 -10.95 -45.2 Q-10.7 -47.15 -8.7 -47.45 -3.95 -48.1 -2.15 -48.7 -8.8 -50.55 -10.2 -52.2 -11.35 -53.55 -11.35 -58.75 L-10.35 -69.2 -9.35 -79.6 -9.85 -83.1 -10.4 -87.5 -7.15 -107.7 -7.05 -108.2 Q-6.6 -110.05 -5.25 -110.45 -2.35 -111.4 -0.25 -113.25 L1.75 -108.2 2.6 -106.0 2.65 -105.8 M15.1 -18.15 Q18.05 -18.9 19.05 -19.8 L9.35 -21.35 3.35 -22.15 -5.65 -24.65 -9.6 -25.75 -10.8 -25.6 -11.1 -24.95 -11.2 -24.15 Q-11.2 -21.25 -5.95 -19.15 0.2 -16.65 10.05 -17.5 L10.05 -17.45 15.1 -18.15 M11.75 -31.65 Q16.65 -31.65 19.25 -33.7 18.65 -37.0 12.95 -38.85 6.8 -40.8 -4.7 -40.8 -7.05 -40.8 -7.05 -35.7 -7.05 -32.75 -2.95 -32.6 2.45 -32.9 4.9 -32.5 L3.15 -32.05 11.75 -31.65 M5.55 -62.8 Q9.65 -65.9 9.65 -68.15 9.65 -76.55 0.9 -71.35 -2.0 -69.6 -5.15 -66.8 L-7.9 -64.05 -8.0 -57.95 Q-8.0 -55.45 -7.25 -54.35 -5.75 -52.2 3.75 -52.2 L7.9 -52.55 Q9.45 -53.15 9.45 -55.2 L9.4 -57.2 4.9 -57.2 -1.95 -57.55 -1.75 -57.65 5.55 -62.8 M4.35 -89.05 Q4.35 -91.5 2.4 -96.0 0.2 -101.15 -2.5 -103.3 L-6.1 -89.5 Q-6.85 -85.9 -6.85 -83.05 -6.85 -81.0 -6.35 -79.5 -5.75 -77.7 -4.7 -77.7 -2.25 -77.7 1.0 -81.55 4.35 -85.55 4.35 -89.05 M-13.95 -7.85 L-11.0 -7.25 -1.0 -5.8 Q-1.35 -5.1 -1.45 -3.0 L-1.5 -3.0 -6.2 -3.65 -6.3 -5.7 -7.45 -6.15 -7.7 -3.9 -11.15 -4.55 Q-11.25 -5.3 -11.6 -5.85 L-12.0 -4.75 -11.85 -4.7 -12.05 -4.7 -16.05 -5.5 Q-16.05 -6.45 -15.4 -7.15 -14.8 -7.85 -13.95 -7.85 M0.4 -5.7 L6.55 -5.45 6.4 -2.55 0.6 -2.85 0.4 -5.7 M0.65 -0.3 L6.35 -0.3 6.3 0.65 0.7 0.5 0.65 -0.3 M8.75 -5.4 L10.05 -5.3 14.35 -5.6 Q14.05 -4.9 14.05 -3.9 L14.15 -2.8 10.05 -2.5 9.05 -2.6 8.75 -5.4 M15.25 -5.7 L27.95 -8.2 28.15 -7.3 28.35 -5.45 24.2 -4.35 22.3 -3.95 22.3 -5.45 20.6 -5.45 20.6 -3.55 17.4 -3.05 15.9 -2.9 15.25 -5.7 M9.15 -0.45 L14.15 -0.9 14.15 0.3 9.15 0.65 9.15 -0.45 M22.3 -1.85 L28.55 -3.5 28.6 -2.05 25.95 -1.35 22.25 -0.7 22.3 -1.85 M20.55 -1.55 L20.55 -0.4 16.0 0.25 15.95 -1.1 20.55 -1.55 M-15.95 -3.05 L-12.35 -2.15 -12.45 -1.05 -16.25 -2.1 -16.0 -3.05 -15.95 -3.05 M-11.1 -1.9 L-7.95 -1.3 -8.0 -0.2 -11.15 -0.75 -11.1 -1.9 M-6.15 -0.95 L-1.45 -0.45 -1.4 0.45 -6.1 0.05 -6.15 -0.95" fill="#b81919" fill-rule="evenodd" stroke="none"/>
    <path d="M-29.2 -14.5 L-23.15 -12.15 -11.4 -9.9 -22.35 -10.2 Q-25.8 -11.45 -29.1 -12.95 L-29.2 -14.5 M25.25 -10.0 L30.8 -11.8 36.95 -14.0 37.15 -12.0 Q35.3 -11.0 32.6 -9.9 L32.3 -11.0 25.25 -10.0 M33.55 -5.3 L33.2 -7.2 37.35 -9.0 37.3 -7.0 33.55 -5.3 M-28.95 -7.95 L-29.0 -9.8 -23.35 -7.5 -23.05 -5.3 -28.95 -7.95" fill="#777777" fill-rule="evenodd" stroke="none"/>
  </g>
</svg>
