<?xml version="1.0" encoding="UTF-8" standalone="no"?>
<svg xmlns:ffdec="https://www.free-decompiler.com/flash" xmlns:xlink="http://www.w3.org/1999/xlink" ffdec:objectType="shape" height="56.95px" width="39.95px" xmlns="http://www.w3.org/2000/svg">
  <g transform="matrix(1.0, 0.0, 0.0, 1.0, 9.7, 5.2)">
    <path d="M26.15 47.75 L24.0 49.15 22.1 49.65 Q18.35 49.65 5.45 28.6 L4.8 27.2 4.0 26.2 Q2.9 22.25 8.85 22.25 11.85 22.25 17.05 30.0 22.15 37.6 26.15 47.75" fill="#c08045" fill-rule="evenodd" stroke="none"/>
    <path d="M12.75 14.7 Q13.15 18.85 13.9 19.2 15.7 19.9 17.25 22.45 L21.15 29.55 Q28.1 43.3 28.1 44.5 28.1 45.5 27.4 46.4 L26.15 47.75 Q22.15 37.6 17.05 30.0 11.85 22.25 8.85 22.25 2.9 22.25 4.0 26.2 L2.1 22.25 Q1.05 20.2 -0.1 19.4 1.9 17.5 5.7 15.85 10.15 13.95 12.75 14.7" fill="#a76c38" fill-rule="evenodd" stroke="none"/>
    <path d="M-7.85 5.15 Q-6.7 3.25 -5.1 2.2 -3.55 1.2 -1.95 1.2 0.45 1.2 3.4 6.1 4.9 8.55 5.9 11.1 5.9 12.9 1.25 16.05 -3.4 19.2 -3.4 21.55 -3.4 22.7 -3.0 23.1 L-2.6 22.0 Q-2.4 23.85 -0.05 26.15 1.85 28.05 3.15 28.6 L4.2 30.3 Q-2.1 28.0 -4.05 22.2 -5.95 12.9 -7.85 5.15" fill="#4a3a8b" fill-rule="evenodd" stroke="none"/>
    <path d="M-2.55 -4.45 L6.2 4.75 Q12.3 11.2 16.15 12.85 17.9 13.6 19.0 15.1 20.1 16.6 20.1 18.25 L19.8 20.35 19.35 22.1 18.7 21.0 18.85 20.55 Q18.9 18.25 17.05 16.0 14.8 13.25 11.3 13.25 7.45 13.25 2.7 16.35 0.2 18.05 -1.15 19.65 L-1.65 20.15 -1.65 20.2 -2.6 22.0 -3.0 23.1 Q-3.4 22.7 -3.4 21.55 -3.4 19.2 1.25 16.05 5.9 12.9 5.9 11.1 4.9 8.55 3.4 6.1 0.45 1.2 -1.95 1.2 -3.55 1.2 -5.1 2.2 -6.7 3.25 -7.85 5.15 L-8.25 1.3 Q-8.25 0.0 -7.45 -3.85 -5.35 -4.85 -4.1 -4.85 L-3.15 -4.75 -2.55 -4.45" fill="#3a2e6d" fill-rule="evenodd" stroke="none"/>
    <path d="M-2.55 -4.45 L-3.3 -5.15 -3.25 -5.2 Q-0.3 -4.3 0.4 -3.85 4.05 -1.65 9.15 4.65 L20.75 15.25 20.7 15.25 21.2 16.05 Q22.0 17.55 22.0 18.55 22.0 20.4 21.25 22.05 L20.3 23.8 19.35 22.1 19.8 20.35 20.1 18.25 Q20.1 16.6 19.0 15.1 17.9 13.6 16.15 12.85 12.3 11.2 6.2 4.75 L-2.55 -4.45 M5.0 31.6 Q-0.9 30.45 -2.7 28.75 -6.15 25.5 -7.2 15.65 -8.9 15.6 -9.45 9.8 -9.75 6.9 -9.7 3.5 -9.7 1.6 -8.95 -0.75 -8.25 -2.95 -7.45 -3.85 -8.25 0.0 -8.25 1.3 L-7.85 5.15 Q-5.95 12.9 -4.05 22.2 -2.1 28.0 4.2 30.3 L5.0 31.6 M-2.6 22.0 L-1.65 20.2 -1.35 21.2 0.2 23.7 3.15 28.6 Q1.85 28.05 -0.05 26.15 -2.4 23.85 -2.6 22.0 M-1.15 19.65 Q0.2 18.05 2.7 16.35 7.45 13.25 11.3 13.25 14.8 13.25 17.05 16.0 18.9 18.25 18.85 20.55 L18.7 20.95 Q18.7 18.35 16.95 16.55 15.2 14.7 12.75 14.7 10.15 13.95 5.7 15.85 1.9 17.5 -0.1 19.4 L-1.15 19.65" fill="#1e1739" fill-rule="evenodd" stroke="none"/>
    <path d="M19.35 22.1 L20.3 23.8 Q30.25 43.65 30.25 44.45 30.25 46.95 27.35 49.4 24.6 51.75 22.2 51.75 19.15 51.75 16.6 49.15 12.6 45.05 5.0 31.6 L4.2 30.3 3.15 28.6 0.2 23.7 -1.35 21.2 -1.65 20.2 -1.65 20.15 -1.15 19.65 -0.1 19.4 Q1.05 20.2 2.1 22.25 L4.0 26.2 4.8 27.2 5.45 28.6 Q18.35 49.65 22.1 49.65 L24.0 49.15 26.15 47.75 27.4 46.4 Q28.1 45.5 28.1 44.5 28.1 43.3 21.15 29.55 L17.25 22.45 Q15.7 19.9 13.9 19.2 13.15 18.85 12.75 14.7 15.2 14.7 16.95 16.55 18.7 18.35 18.7 20.95 L18.7 21.0 19.35 22.1" fill="#6c3d28" fill-rule="evenodd" stroke="none"/>
  </g>
</svg>
