<?xml version="1.0" encoding="UTF-8" standalone="no"?>
<svg xmlns:ffdec="https://www.free-decompiler.com/flash" xmlns:xlink="http://www.w3.org/1999/xlink" ffdec:objectType="shape" height="39.05px" width="43.15px" xmlns="http://www.w3.org/2000/svg">
  <g transform="matrix(1.0, 0.0, 0.0, 1.0, 22.35, 3.7)">
    <path d="M-14.4 5.45 L-14.9 6.55 -12.95 7.05 -16.75 10.2 -19.5 12.7 -19.75 12.95 Q-20.7 14.0 -20.7 15.6 -20.7 19.05 -20.05 22.0 -19.2 26.1 -17.35 27.2 L-17.3 27.2 -14.35 28.15 -12.15 28.7 Q-10.9 28.7 -10.05 24.65 -8.9 19.55 -7.95 18.05 L-7.05 17.05 -6.5 16.25 -6.5 15.85 -6.55 14.9 Q-5.95 12.9 -5.85 11.8 -5.6 9.75 -7.85 9.75 -11.85 9.75 -14.8 14.8 -16.4 17.5 -17.9 21.65 L-17.9 21.05 -18.15 20.65 -18.1 20.55 -17.6 16.95 -17.15 15.35 -17.9 14.95 -18.95 13.85 -18.45 13.6 Q-16.75 14.65 -14.8 12.3 -12.2 9.05 -9.55 8.35 -8.3 8.9 -1.35 10.25 L-4.25 11.85 Q-4.9 12.4 -4.9 15.15 L-4.6 16.35 -4.05 17.3 -2.55 18.85 1.5 19.35 10.65 18.15 10.65 18.2 Q13.25 17.45 15.65 16.05 19.05 14.0 19.05 11.9 L14.15 6.1 Q14.6 5.6 13.55 3.15 18.15 7.6 20.8 12.25 20.8 14.15 18.85 16.25 16.7 18.55 14.0 18.85 14.05 23.0 15.4 24.1 16.75 25.15 16.75 26.8 16.75 27.85 14.35 30.15 11.15 33.2 7.05 33.2 L5.2 32.85 3.3 32.45 Q2.3 32.45 1.45 34.1 0.4 34.7 -2.45 35.35 -6.95 35.35 -9.25 33.85 -11.5 32.4 -11.1 30.0 -18.4 29.05 -20.05 27.4 -22.35 25.05 -22.35 16.1 -22.35 13.15 -21.25 11.9 L-14.4 5.45 M8.35 20.45 L7.1 20.65 3.75 21.0 3.6 22.2 3.4 23.55 3.7 31.0 5.45 31.3 7.65 31.5 Q9.5 31.6 12.4 29.45 L13.6 28.45 15.05 26.55 15.05 26.45 Q14.7 26.1 14.2 24.6 L12.4 19.5 12.35 19.4 8.35 20.45 M0.3 20.9 L0.3 20.85 Q-2.05 20.5 -3.35 19.55 -4.45 18.75 -5.0 18.75 L-6.15 19.7 -7.8 21.25 -8.65 24.2 Q-9.4 27.2 -9.4 29.55 -9.4 31.6 -7.45 32.75 -5.75 33.8 -3.55 33.65 -1.25 33.65 0.4 32.85 2.05 32.0 2.05 30.8 2.05 22.65 0.3 20.9" fill="#5c4730" fill-rule="evenodd" stroke="none"/>
    <path d="M11.25 7.8 L14.15 6.1 19.05 11.9 Q19.05 14.0 15.65 16.05 13.25 17.45 10.65 18.2 L10.65 18.15 1.5 19.35 -2.55 18.85 -4.05 17.3 Q-1.0 12.4 6.15 11.6 L10.5 11.15 Q12.3 10.8 12.3 9.7 L11.25 7.8 M7.65 31.5 L5.45 31.3 3.7 31.0 3.4 23.55 3.6 22.2 3.75 21.0 7.1 20.65 8.35 20.45 Q10.3 21.0 11.45 22.85 12.25 24.15 12.25 24.95 12.25 26.1 10.95 28.15 9.5 30.5 7.65 31.5 M14.2 24.6 Q14.7 26.1 15.05 26.45 L15.05 26.55 13.6 28.45 14.25 26.2 Q14.4 25.35 14.2 24.6 M-7.8 21.25 Q-4.8 21.55 -2.65 23.0 -0.25 24.6 -0.25 26.85 -0.25 27.25 -1.2 29.5 -2.35 32.3 -3.55 33.65 -5.75 33.8 -7.45 32.75 -9.4 31.6 -9.4 29.55 -9.4 27.2 -8.65 24.2 L-7.8 21.25 M2.05 30.8 L1.45 25.95 Q0.85 21.85 0.3 20.9 2.05 22.65 2.05 30.8 M-6.5 15.85 L-6.5 16.25 -7.05 17.05 -6.5 15.85 M-7.95 18.05 Q-8.9 19.55 -10.05 24.65 -10.9 28.7 -12.15 28.7 L-14.35 28.15 -17.3 27.2 -17.35 27.2 Q-19.2 26.1 -20.05 22.0 -20.7 19.05 -20.7 15.6 -20.7 14.0 -19.75 12.95 L-19.95 13.45 -20.2 14.7 Q-20.2 17.4 -19.55 19.2 -19.1 20.55 -18.8 20.55 -18.65 20.55 -17.75 23.05 L-17.7 23.1 Q-17.1 22.5 -15.55 19.0 -14.0 15.6 -14.0 14.95 -14.0 14.4 -12.65 13.9 L-11.15 13.55 Q-9.65 13.55 -9.05 14.75 -8.65 15.55 -7.95 18.05 M-19.5 12.7 L-16.75 10.2 Q-16.75 11.25 -17.55 12.0 -18.35 12.7 -19.5 12.7 M-17.9 14.95 L-17.15 15.35 -17.6 16.95 -17.9 14.95" fill="#ffcc99" fill-rule="evenodd" stroke="none"/>
    <path d="M-12.95 7.05 L-9.55 8.35 Q-12.2 9.05 -14.8 12.3 -16.75 14.65 -18.45 13.6 L-18.95 13.85 -17.9 14.95 -17.6 16.95 -18.1 20.55 -18.15 20.65 -17.9 21.05 -17.9 21.65 Q-16.4 17.5 -14.8 14.8 -11.85 9.75 -7.85 9.75 -5.6 9.75 -5.85 11.8 -5.95 12.9 -6.55 14.9 L-6.5 15.85 -7.05 17.05 -7.95 18.05 Q-8.65 15.55 -9.05 14.75 -9.65 13.55 -11.15 13.55 L-12.65 13.9 Q-14.0 14.4 -14.0 14.95 -14.0 15.6 -15.55 19.0 -17.1 22.5 -17.7 23.1 L-17.75 23.05 Q-18.65 20.55 -18.8 20.55 -19.1 20.55 -19.55 19.2 -20.2 17.4 -20.2 14.7 L-19.95 13.45 -19.75 12.95 -19.5 12.7 Q-18.35 12.7 -17.55 12.0 -16.75 11.25 -16.75 10.2 L-12.95 7.05 M-1.35 10.25 L4.75 9.4 Q9.7 8.5 11.25 7.8 L12.3 9.7 Q12.3 10.8 10.5 11.15 L6.15 11.6 Q-1.0 12.4 -4.05 17.3 L-4.6 16.35 -4.9 15.15 Q-4.9 12.4 -4.25 11.85 L-1.35 10.25 M7.65 31.5 Q9.5 30.5 10.95 28.15 12.25 26.1 12.25 24.95 12.25 24.15 11.45 22.85 10.3 21.0 8.35 20.45 L12.35 19.4 12.4 19.5 14.2 24.6 Q14.4 25.35 14.25 26.2 L13.6 28.45 12.4 29.45 Q9.5 31.6 7.65 31.5 M-7.8 21.25 L-6.15 19.7 -5.0 18.75 Q-4.45 18.75 -3.35 19.55 -2.05 20.5 0.3 20.85 L0.3 20.9 Q0.85 21.85 1.45 25.95 L2.05 30.8 Q2.05 32.0 0.4 32.85 -1.25 33.65 -3.55 33.65 -2.35 32.3 -1.2 29.5 -0.25 27.25 -0.25 26.85 -0.25 24.6 -2.65 23.0 -4.8 21.55 -7.8 21.25" fill="#f1ba87" fill-rule="evenodd" stroke="none"/>
    <path d="M0.25 -2.0 L-0.6 1.7 -1.05 5.65 -0.5 6.25 Q0.6 4.35 0.9 2.1 1.15 0.05 0.65 -1.55 L0.25 -2.0 M2.65 -1.05 Q2.55 -0.05 3.1 5.15 L3.25 6.5 Q3.6 6.45 3.95 5.0 L4.25 2.8 3.95 1.3 3.0 -1.75 2.65 -1.05 M0.25 -3.7 Q3.05 -3.4 7.15 -0.65 11.4 2.2 11.4 4.05 11.4 5.6 8.45 6.85 5.05 8.3 -0.45 8.3 -4.75 8.3 -7.95 6.85 -10.9 5.5 -10.9 4.05 -10.6 2.5 -9.45 0.85 -7.2 -2.4 -2.8 -3.45 L0.25 -3.7 M7.8 1.35 Q6.6 -0.4 4.85 -0.5 L6.15 3.0 Q7.25 5.7 8.75 6.5 L8.95 6.5 9.0 5.75 Q9.0 3.15 7.8 1.35 M-4.65 -0.3 L-6.15 3.2 -5.5 3.9 Q-3.4 2.5 -3.05 1.25 L-3.05 -1.75 -3.75 -2.0 -4.65 -0.3 M-8.5 5.0 Q-7.7 4.5 -7.55 4.0 -7.95 3.5 -8.8 4.75 L-8.5 5.0" fill="#7c370a" fill-rule="evenodd" stroke="none"/>
    <path d="M-2.8 -3.45 Q-7.2 -2.4 -9.45 0.85 -10.6 2.5 -10.9 4.05 -10.9 5.5 -7.95 6.85 -4.75 8.3 -0.45 8.3 5.05 8.3 8.45 6.85 11.4 5.6 11.4 4.05 11.4 2.2 7.15 -0.65 3.05 -3.4 0.25 -3.7 4.95 -3.5 7.95 -2.1 11.55 -0.45 13.55 3.15 14.6 5.6 14.15 6.1 L11.25 7.8 Q9.7 8.5 4.75 9.4 L-1.35 10.25 Q-8.3 8.9 -9.55 8.35 L-12.95 7.05 -14.9 6.55 -14.4 5.45 Q-13.05 3.0 -9.65 0.05 -5.6 -3.45 -2.8 -3.45" fill="#431e05" fill-rule="evenodd" stroke="none"/>
    <path d="M2.65 -1.05 L3.0 -1.75 3.95 1.3 4.25 2.8 3.95 5.0 Q3.6 6.45 3.25 6.5 L3.1 5.15 Q2.55 -0.05 2.65 -1.05 M0.25 -2.0 L0.65 -1.55 Q1.15 0.05 0.9 2.1 0.6 4.35 -0.5 6.25 L-1.05 5.65 -0.6 1.7 0.25 -2.0 M7.8 1.35 Q9.0 3.15 9.0 5.75 L8.95 6.5 8.75 6.5 Q7.25 5.7 6.15 3.0 L4.85 -0.5 Q6.6 -0.4 7.8 1.35 M-8.5 5.0 L-8.8 4.75 Q-7.95 3.5 -7.55 4.0 -7.7 4.5 -8.5 5.0 M-4.65 -0.3 L-3.75 -2.0 -3.05 -1.75 -3.05 1.25 Q-3.4 2.5 -5.5 3.9 L-6.15 3.2 -4.65 -0.3" fill="#a4490d" fill-rule="evenodd" stroke="none"/>
  </g>
</svg>
