<?xml version="1.0" encoding="UTF-8" standalone="no"?>
<svg xmlns:ffdec="https://www.free-decompiler.com/flash" xmlns:xlink="http://www.w3.org/1999/xlink" ffdec:objectType="shape" height="111.4px" width="125.0px" xmlns="http://www.w3.org/2000/svg">
  <g transform="matrix(1.0, 0.0, 0.0, 1.0, -20.0, -8.05)">
    <path d="M118.8 20.8 L121.6 19.7 125.2 17.4 Q127.8 49.85 135.05 81.25 L135.05 81.3 Q108.2 90.4 83.55 88.1 L62.45 35.75 63.75 35.3 Q92.25 31.0 118.8 20.8" fill="#eaeaea" fill-rule="evenodd" stroke="none"/>
    <path d="M135.05 81.3 L135.05 81.25 Q127.8 49.85 125.2 17.4 L121.6 19.7 118.8 20.8 Q120.85 19.15 121.7 17.65 L121.75 17.75 125.0 16.4 125.55 16.35 125.95 16.65 126.2 17.1 Q129.4 49.0 136.75 80.85 L138.25 87.3 137.55 84.5 Q136.65 85.1 136.65 86.8 L136.85 88.6 135.05 81.3 M102.65 24.3 L103.15 24.15 103.3 24.1 103.5 24.0 Q110.15 21.75 116.45 19.15 L116.85 18.1 117.3 16.85 81.9 27.35 69.75 30.95 69.65 30.95 63.2 32.9 63.05 32.95 62.1 33.25 62.05 33.3 61.5 33.7 60.85 33.55 Q43.0 24.25 27.05 11.15 L27.8 12.95 27.8 13.6 27.65 13.8 Q44.7 23.3 58.15 34.05 L58.35 34.25 58.75 34.2 60.7 33.95 Q59.75 34.35 59.75 35.05 59.75 35.75 59.95 35.85 L60.6 36.0 61.95 35.9 59.8 36.6 76.05 86.7 76.75 87.25 77.6 92.45 76.35 90.2 Q75.65 90.45 75.3 91.35 L74.8 90.05 74.4 87.2 73.85 85.5 57.9 36.5 57.85 36.3 57.65 35.55 57.05 35.4 Q43.5 24.55 26.2 15.0 L26.05 14.9 21.6 12.3 Q37.9 43.05 47.0 72.9 L48.3 74.5 54.0 100.15 55.05 100.75 54.95 100.7 Q54.4 100.7 54.2 101.15 L53.4 101.6 52.95 101.55 52.75 101.45 52.5 101.2 52.35 100.85 Q49.5 87.15 45.35 73.4 35.9 42.4 20.05 11.5 L20.0 10.95 20.25 10.45 Q20.45 10.25 20.7 10.2 L21.3 10.35 25.85 12.8 24.45 9.25 24.4 8.7 Q24.45 8.4 24.7 8.25 24.9 8.05 25.2 8.05 L25.7 8.2 61.25 31.7 61.3 31.65 117.2 15.05 117.55 15.0 117.9 15.15 119.7 16.3 Q117.2 18.8 115.0 20.3 109.65 24.1 102.85 25.75 L95.85 27.75 87.5 30.1 Q78.15 32.35 66.7 33.15 L65.55 33.25 Q85.35 30.1 102.65 24.3 M140.35 101.1 L141.5 103.8 143.45 107.25 144.35 110.45 143.35 110.45 140.35 101.1 M80.05 106.9 Q79.45 104.9 79.4 103.8 L79.35 102.9 80.05 106.9 M64.35 106.85 L64.15 106.8 Q65.0 106.8 67.25 107.95 69.25 108.9 69.85 109.4 L69.65 109.9 Q69.05 109.75 66.95 108.55 L64.35 106.85 M120.65 115.15 L123.1 115.15 119.15 115.4 120.65 115.15 M99.95 117.9 L101.05 118.0 99.35 117.95 99.95 117.9 M112.85 117.95 L104.9 117.95 Q105.35 117.85 108.85 117.9 L112.85 117.95" fill="#666666" fill-rule="evenodd" stroke="none"/>
    <path d="M116.85 18.1 L116.45 19.15 Q110.15 21.75 103.5 24.0 L103.3 24.1 103.15 24.15 102.65 24.3 92.4 27.1 91.55 27.25 90.15 27.5 90.75 27.5 90.15 27.65 84.6 28.95 84.25 29.05 77.35 29.55 69.75 30.95 75.8 31.0 63.35 33.4 63.2 32.9 69.65 30.95 69.75 30.95 81.9 27.35 90.35 26.4 Q94.1 26.05 100.25 23.4 L100.3 23.4 105.75 21.7 114.8 18.55 116.85 18.1" fill="#a0a0a0" fill-rule="evenodd" stroke="none"/>
    <path d="M135.05 81.3 L136.85 88.6 136.85 88.65 Q138.4 94.75 140.3 101.0 L140.35 101.1 143.35 110.45 144.1 112.65 131.6 113.75 122.4 114.85 120.5 115.15 120.65 115.15 119.15 115.4 119.1 115.4 118.55 115.55 114.25 116.35 Q102.1 118.7 81.25 114.3 L80.05 106.95 80.05 106.9 79.35 102.9 77.6 92.45 76.75 87.25 76.05 86.7 59.8 36.6 61.95 35.9 62.0 35.9 62.35 35.8 62.45 35.75 83.55 88.1 Q108.2 90.4 135.05 81.3 M102.65 24.3 Q85.35 30.1 65.55 33.25 L64.95 33.35 63.5 33.55 63.4 33.6 63.35 33.4 75.8 31.0 84.25 29.05 84.6 28.95 90.15 27.65 90.75 27.5 92.4 27.1 102.65 24.3 M48.3 74.5 L47.0 72.9 Q37.9 43.05 21.6 12.3 L26.05 14.9 26.2 15.0 Q43.5 24.55 57.05 35.4 L57.65 35.55 57.85 36.3 57.9 36.5 73.85 85.5 48.3 74.5 M60.7 33.95 L58.75 34.2 58.35 34.25 58.15 34.05 Q44.7 23.3 27.65 13.8 L27.8 13.6 27.8 12.95 27.05 11.15 Q43.0 24.25 60.85 33.55 L61.5 33.7 62.05 33.3 62.1 33.25 63.05 32.95 63.15 33.6 61.95 33.75 60.85 33.95 60.7 33.95 M81.9 27.35 L117.3 16.85 116.85 18.1 114.8 18.55 Q107.85 20.1 101.2 23.0 L100.3 23.4 100.25 23.4 Q94.1 26.05 90.35 26.4 L81.9 27.35" fill="#d4d4d4" fill-rule="evenodd" stroke="none"/>
    <path d="M136.85 88.6 L136.65 86.8 Q136.65 85.1 137.55 84.5 L138.25 87.3 138.35 87.55 Q140.7 97.35 143.5 107.25 L143.45 107.25 141.5 103.8 140.35 101.1 140.3 101.0 Q138.4 94.75 136.85 88.65 L136.85 88.6 M121.7 17.65 Q120.85 19.15 118.8 20.8 92.25 31.0 63.75 35.3 L62.45 35.75 62.35 35.8 62.0 35.9 61.95 35.9 60.6 36.0 59.95 35.85 Q59.75 35.75 59.75 35.05 59.75 34.35 60.7 33.95 L60.85 33.95 61.95 33.75 63.15 33.6 63.2 33.6 63.4 33.6 63.5 33.55 64.95 33.35 65.55 33.25 66.7 33.15 Q78.15 32.35 87.5 30.1 L95.85 27.75 102.85 25.75 Q109.65 24.1 115.0 20.3 117.2 18.8 119.7 16.3 L121.4 17.35 121.7 17.65 M52.95 101.55 L53.4 101.6 54.2 101.15 Q54.4 100.7 54.95 100.7 L55.05 100.75 77.8 113.1 74.8 90.05 75.3 91.35 Q75.65 90.45 76.35 90.2 L77.6 92.45 79.35 102.9 79.4 103.8 Q79.45 104.9 80.05 106.9 L80.05 106.95 81.25 114.3 Q102.1 118.7 114.25 116.35 L118.55 115.55 119.1 115.4 119.15 115.4 123.1 115.15 120.65 115.15 120.5 115.15 122.4 114.85 131.6 113.75 144.1 112.65 143.35 110.45 144.35 110.45 144.95 112.4 145.0 112.85 144.7 113.25 144.3 113.5 Q136.6 115.35 131.65 115.5 126.75 115.65 114.6 118.1 102.25 120.5 80.75 118.6 L80.3 118.6 79.7 118.35 79.45 118.05 52.9 101.55 52.95 101.55 M64.35 106.85 L66.95 108.55 Q69.05 109.75 69.65 109.9 L69.85 109.4 Q69.25 108.9 67.25 107.95 65.0 106.8 64.15 106.8 L64.35 106.85 M112.85 117.95 L108.85 117.9 Q105.35 117.85 104.9 117.95 L112.85 117.95 M99.95 117.9 L99.35 117.95 101.05 118.0 99.95 117.9" fill="#484848" fill-rule="evenodd" stroke="none"/>
    <path d="M114.8 18.55 L105.75 21.7 100.3 23.4 101.2 23.0 Q107.85 20.1 114.8 18.55 M90.75 27.5 L90.15 27.5 91.55 27.25 92.4 27.1 90.75 27.5 M84.25 29.05 L75.8 31.0 69.75 30.95 77.35 29.55 84.25 29.05" fill="#c8c8c8" fill-rule="evenodd" stroke="none"/>
    <path d="M55.05 100.75 L54.0 100.15 48.3 74.5 73.85 85.5 74.4 87.2 74.8 90.05 77.8 113.1 55.05 100.75" fill="#c4c4c4" fill-rule="evenodd" stroke="none"/>
    <path d="M124.2 19.85 L124.35 19.85 124.45 20.25 124.2 20.45 124.45 21.15 Q124.45 21.8 123.0 22.65 121.6 23.55 120.6 23.55 L120.05 23.4 120.05 22.15 119.85 21.9 120.05 21.85 120.05 21.45 121.3 20.25 Q122.0 19.5 123.9 19.7 L123.95 19.85 124.2 19.85 M123.8 40.6 Q124.5 42.2 127.55 53.95 131.0 67.3 131.0 70.75 131.0 71.45 123.8 73.05 L108.25 76.35 102.15 77.45 91.0 79.25 85.0 80.9 Q81.05 82.1 79.0 82.1 77.95 82.1 77.35 76.35 76.6 68.8 76.15 67.25 L73.1 58.5 Q71.1 52.9 69.85 52.45 68.55 51.95 80.65 49.0 92.7 46.05 97.5 45.35 L107.85 43.65 113.9 42.65 119.4 40.95 Q124.35 39.3 125.1 39.7 L123.8 40.6 M118.2 24.0 Q117.55 24.0 117.45 23.45 L117.45 22.85 Q117.45 21.9 118.3 21.7 119.2 21.45 119.2 22.4 L119.05 23.2 118.55 23.85 Q118.75 24.0 118.2 24.0 M98.65 41.9 L112.0 38.55 125.3 35.55 Q115.9 39.15 94.5 43.85 73.55 48.45 67.4 48.45 L66.5 48.15 Q69.4 46.9 75.9 45.85 L83.7 44.5 98.65 41.9 M100.95 46.25 Q89.15 49.7 85.0 49.9 75.85 51.3 72.1 52.6 78.9 67.55 79.3 80.95 L85.45 79.2 Q88.25 78.5 92.95 77.95 L103.55 76.4 108.5 75.35 116.95 73.2 Q123.6 71.35 129.9 70.4 L126.55 55.7 123.1 40.9 Q116.95 43.45 114.3 44.2 110.65 45.25 100.95 46.25 M96.3 80.25 Q98.0 79.55 102.6 79.5 L102.7 79.55 102.8 79.9 Q102.8 80.4 94.7 82.05 L81.8 84.3 80.2 84.3 Q80.05 84.35 80.05 83.8 L83.65 83.3 93.1 81.55 Q94.85 81.15 96.3 80.25 M90.0 84.1 L101.95 82.35 102.15 82.75 92.55 84.95 82.15 86.9 81.75 86.85 81.6 86.6 Q82.85 85.35 90.0 84.1 M86.25 90.2 L82.35 91.05 81.95 91.0 81.8 90.75 Q82.7 89.75 90.55 87.75 96.05 86.3 102.6 84.95 L102.7 85.0 102.8 85.4 Q102.8 85.95 91.0 88.95 L86.25 90.2 M82.6 97.6 Q82.5 97.65 82.5 97.15 82.5 96.75 87.55 96.3 L95.35 95.75 98.45 95.65 98.55 95.7 98.65 96.1 Q98.65 96.65 85.95 97.6 L82.6 97.6 M82.9 94.1 L89.45 93.15 96.9 92.45 99.75 92.4 99.85 92.4 99.95 92.8 95.35 93.35 85.95 94.55 83.05 94.55 Q82.9 94.6 82.9 94.1 M99.0 98.75 L99.1 99.15 82.15 100.9 Q82.05 100.95 82.05 100.4 L90.2 99.4 98.85 98.7 99.0 98.75 M105.4 78.55 L116.05 76.55 129.25 74.45 129.45 74.9 Q128.6 75.4 119.95 76.95 L106.95 79.05 105.55 79.05 Q105.4 79.1 105.4 78.55 M105.85 83.6 Q105.85 82.7 115.3 81.0 L130.35 78.4 130.55 78.85 118.7 81.4 Q107.65 83.6 106.3 84.1 L105.95 84.0 105.85 83.6 M106.5 81.65 Q106.5 81.35 110.05 80.65 L122.25 78.5 126.85 77.3 131.0 76.85 123.1 79.3 108.9 82.1 106.65 82.1 Q106.5 82.15 106.5 81.65 M102.15 91.25 Q102.15 90.65 107.55 89.65 L114.6 89.3 108.5 90.8 102.3 91.7 Q102.15 91.75 102.15 91.25 M102.35 93.8 Q104.7 92.55 109.45 91.35 114.45 90.05 115.7 90.65 L110.25 92.35 Q105.45 93.75 102.5 94.15 L102.35 93.8 M103.3 96.15 L103.25 95.7 Q103.25 95.2 109.25 93.5 115.5 91.8 117.0 92.4 L109.75 94.45 Q105.05 95.55 103.65 96.3 L103.3 96.15 M127.65 89.35 L123.35 90.65 122.9 90.35 Q123.15 89.45 126.6 88.45 L131.2 87.15 131.35 87.2 131.45 87.55 Q131.45 88.2 127.65 89.35 M127.7 92.75 L123.65 93.7 123.25 93.6 123.1 93.4 Q123.55 92.85 127.4 91.75 131.45 90.65 132.1 91.3 131.7 91.7 130.1 92.15 L127.7 92.75 M124.2 96.9 Q125.55 95.9 128.4 95.25 L132.3 94.55 132.75 95.0 Q131.6 95.9 129.6 96.25 L124.65 97.2 124.2 96.9 M134.7 98.5 L135.15 98.95 Q133.75 99.85 129.65 100.4 L124.85 101.1 124.45 100.8 126.95 99.5 134.7 98.6 134.7 98.5 M132.3 85.4 L127.25 86.35 Q124.85 86.7 121.6 88.0 L121.15 87.7 Q121.6 86.65 125.7 85.7 L132.3 85.4 M42.9 44.35 Q38.55 41.95 38.55 41.45 L38.55 41.25 Q40.8 41.5 48.6 46.25 L48.55 46.55 48.15 46.7 Q47.2 46.7 42.9 44.35 M49.2 49.35 Q49.15 49.55 48.8 49.55 L43.95 47.25 38.55 44.45 38.55 43.95 Q39.9 44.1 43.8 46.15 L49.25 49.0 49.2 49.35 M40.5 48.25 Q41.5 48.3 44.95 50.25 48.1 52.1 49.9 53.5 L49.5 53.9 44.85 51.35 Q40.5 48.95 40.5 48.45 L40.5 48.25 M58.55 48.9 Q40.4 40.25 33.5 34.45 39.55 36.5 59.1 48.45 L59.0 48.7 Q58.85 48.9 58.55 48.9 M61.2 55.25 L60.7 55.45 Q60.05 55.45 57.75 54.35 L54.05 52.6 54.05 52.3 Q54.05 51.6 57.15 52.75 60.15 53.85 61.3 55.0 L61.2 55.25 M64.9 71.25 L64.55 71.4 60.65 70.3 Q56.8 69.05 54.95 67.8 L54.95 67.35 59.9 68.8 Q64.45 70.25 65.0 70.95 L64.9 71.25 M66.2 68.15 Q66.1 68.35 65.75 68.35 55.95 66.3 53.85 65.2 L53.85 64.7 60.25 66.15 Q64.7 66.95 66.3 67.9 L66.2 68.15 M59.9 52.65 L59.55 52.85 Q58.55 52.85 56.35 51.5 L53.85 49.9 53.85 49.4 Q54.4 49.25 56.8 50.5 58.65 51.5 59.95 52.4 L59.9 52.65 M52.6 58.75 Q51.5 58.75 48.05 56.9 L42.05 53.6 42.05 53.15 Q43.6 53.5 48.1 55.7 L53.2 58.3 53.1 58.65 52.6 58.75 M55.15 70.2 L62.35 73.2 69.15 76.1 69.1 76.45 Q69.0 76.65 68.7 76.65 L55.15 70.65 55.15 70.2 M58.0 74.8 Q58.0 74.0 62.85 76.35 67.9 78.75 70.25 80.95 L69.8 81.45 Q67.25 79.4 64.45 78.05 L58.0 75.1 58.0 74.8 M55.55 86.5 Q57.85 87.35 59.1 88.25 58.95 88.65 58.3 88.65 L55.75 87.7 Q53.45 86.65 52.75 85.95 L52.75 85.45 55.55 86.5 M54.35 84.1 Q57.45 85.35 57.8 85.8 L57.35 86.25 Q56.9 85.75 54.15 84.65 L50.8 83.35 50.8 82.85 54.35 84.1 M58.1 83.2 L50.55 79.2 50.55 78.7 Q51.25 78.55 54.75 80.35 58.1 82.1 58.65 82.75 L58.55 83.05 58.1 83.2 M61.95 84.5 Q62.25 84.4 65.35 85.65 68.95 87.15 70.7 87.35 L70.9 87.8 70.7 88.05 Q70.6 88.25 70.25 88.25 68.8 88.25 65.6 87.15 61.95 85.85 61.95 84.75 L61.95 84.5 M63.9 87.15 L70.45 90.0 70.0 90.65 63.7 87.9 63.9 87.15 M134.7 105.05 L122.75 107.0 122.4 106.95 122.25 106.7 Q127.65 104.05 134.5 104.6 L134.6 104.65 134.7 105.05 M122.1 104.2 Q121.6 104.2 121.35 103.85 124.6 102.65 128.8 101.6 134.0 100.3 135.6 100.7 L129.2 102.65 Q123.8 104.2 122.1 104.2 M111.65 107.55 L105.85 108.75 105.4 108.7 105.2 108.45 Q106.85 107.35 111.0 106.45 L117.2 106.15 111.65 107.55 M115.1 103.05 Q109.85 103.8 104.75 105.05 L104.4 104.95 104.35 104.55 Q104.35 104.25 105.05 103.95 L104.7 103.85 104.55 103.65 Q104.9 102.3 110.3 101.35 L119.4 100.7 Q118.4 101.4 111.3 102.15 110.5 102.2 107.85 103.15 L107.15 103.35 110.7 102.7 118.1 101.8 118.25 101.8 118.3 102.2 Q118.3 102.55 115.1 103.05 M104.75 101.9 L104.85 101.35 111.25 99.2 Q115.1 97.75 115.45 98.5 L105.2 102.45 104.85 102.3 104.75 101.9 M105.05 106.65 L105.0 106.3 105.05 105.7 111.25 104.5 117.45 104.2 Q116.2 104.8 110.9 105.8 L105.4 106.8 105.05 106.65 M99.95 111.15 Q98.65 112.5 93.5 112.75 L87.3 113.15 86.95 113.05 86.85 112.65 Q86.85 111.9 90.95 111.75 L99.5 110.75 99.95 111.15 M99.85 106.4 L99.95 106.8 96.1 107.15 Q90.8 107.2 86.4 108.35 L86.05 108.25 85.95 107.85 Q85.95 107.25 87.65 107.05 L95.15 106.45 99.75 106.35 99.85 106.4 M100.2 103.3 L89.7 104.75 84.65 105.95 84.2 105.6 Q84.7 104.55 87.0 104.2 L89.45 103.95 94.7 103.15 100.2 103.3" fill="#a0a0a0" fill-rule="evenodd" stroke="none"/>
    <path d="M75.4 39.1 L75.0 41.5 76.85 41.0 75.4 39.1 M77.7 42.85 L77.85 42.95 77.25 43.0 77.7 42.85 M69.3 39.0 Q67.3 39.0 68.4 41.8 69.55 44.55 70.0 44.55 70.5 44.55 70.9 44.2 71.45 43.75 71.45 42.75 71.45 41.45 70.95 40.35 70.35 39.0 69.3 39.0 M68.05 45.25 L68.2 44.7 67.6 42.05 66.95 39.85 Q66.85 39.45 66.15 39.45 64.7 38.85 67.2 38.6 L70.1 38.55 Q71.25 38.55 72.05 39.35 73.05 40.3 73.05 41.9 73.05 43.5 71.7 44.3 70.6 44.95 68.05 45.25 M102.8 30.55 L102.05 30.6 107.45 29.2 107.9 31.0 Q107.05 30.35 106.4 30.2 L104.7 30.25 105.3 32.75 105.4 32.7 106.35 32.15 106.35 31.1 106.45 30.95 107.2 34.15 106.65 33.4 Q106.2 33.05 105.95 33.05 L105.35 33.1 105.4 33.1 Q105.95 35.35 106.25 35.65 108.2 34.95 108.9 33.3 L109.15 35.35 104.4 36.4 104.3 36.45 104.5 35.8 Q104.5 32.1 103.7 30.95 103.4 30.55 102.8 30.55 M114.2 27.5 L114.25 27.65 Q114.1 28.25 113.6 28.0 L115.9 31.4 115.7 33.05 115.8 33.8 Q115.25 33.75 114.2 32.0 L113.25 30.25 Q112.6 34.6 112.4 34.65 L108.45 29.3 107.95 29.1 110.4 28.55 Q110.25 28.6 110.25 29.05 L110.65 30.0 112.6 32.35 113.0 29.85 Q113.0 29.0 112.45 28.75 L111.25 28.25 114.2 27.5 M117.2 26.95 Q116.8 27.3 116.8 27.55 L116.0 30.8 116.3 27.9 116.3 27.3 116.25 27.35 115.5 27.2 117.2 26.95 M81.3 35.65 Q81.15 35.8 81.15 36.15 81.15 39.5 82.0 40.8 L82.95 41.5 83.95 41.4 83.95 40.35 82.65 35.9 82.35 35.5 81.8 35.5 84.5 34.9 Q84.35 35.1 84.35 35.4 84.35 38.95 85.2 40.15 L86.1 40.65 Q87.2 40.65 87.8 39.8 L88.55 38.05 88.85 40.3 77.9 42.95 77.9 42.45 77.85 41.6 Q77.7 41.35 77.1 41.35 76.4 41.35 75.6 41.8 74.8 42.35 74.8 42.95 L74.9 43.5 75.35 43.45 75.8 43.5 73.75 44.05 73.95 43.65 74.1 43.8 Q74.4 43.35 75.5 36.9 L79.45 41.95 79.5 42.15 80.1 42.25 80.8 42.05 80.9 41.55 80.2 39.1 79.6 36.5 79.0 36.35 78.65 36.25 81.3 35.65 M96.65 31.8 L98.05 31.55 Q98.9 31.55 102.05 34.6 101.45 31.3 101.0 31.1 100.55 31.45 100.2 31.0 L101.9 30.6 Q101.65 30.75 101.65 31.25 L101.9 32.5 103.0 37.0 97.4 32.9 98.6 37.2 99.15 37.6 99.65 37.6 99.55 37.7 97.65 38.1 97.35 38.05 97.9 38.0 98.1 37.4 97.5 34.65 96.8 32.45 95.85 32.05 96.65 31.8 M94.1 32.5 L93.7 32.9 93.0 34.65 Q92.5 36.15 92.5 36.75 92.5 38.6 93.2 39.0 L93.9 39.05 91.05 39.7 90.55 39.7 91.15 39.65 Q91.5 39.55 91.5 38.95 91.5 37.7 90.05 36.1 88.75 34.7 87.55 34.1 L90.5 33.4 90.2 33.65 Q89.9 33.75 90.15 34.15 L92.2 36.45 92.85 34.45 93.0 33.4 92.95 32.95 92.9 33.05 92.3 33.05 92.2 32.95 94.1 32.5 M121.85 31.45 L121.6 30.6 118.6 29.2 Q117.2 28.45 117.9 27.0 119.9 25.2 120.35 25.85 L120.6 26.25 121.15 25.65 121.7 27.7 121.4 26.95 Q121.15 26.45 119.65 26.45 119.1 26.45 118.8 26.7 L118.55 26.9 118.6 27.8 Q119.35 28.5 121.4 29.1 122.75 29.5 122.75 30.95 122.75 32.7 121.4 32.9 L118.85 33.05 118.25 30.75 Q118.4 31.2 119.1 31.7 119.95 32.35 120.65 32.35 L121.5 32.15 121.85 31.45" fill="#a0a0a0" fill-rule="evenodd" stroke="none"/>
    <path d="M129.6 70.2 L79.35 80.45 Q78.7 66.0 72.55 53.15 L122.8 43.1 Q125.55 55.7 129.6 70.2" fill="#d8d8d8" fill-rule="evenodd" stroke="none"/>
    <path d="M113.75 54.25 L111.7 53.5 117.5 45.5 117.75 47.35 Q118.75 44.4 120.3 46.7 119.5 48.95 120.85 46.65 L121.35 46.0 122.25 45.3 121.95 50.45 Q123.15 52.9 123.0 48.75 L123.1 47.8 128.3 67.65 122.4 71.6 121.7 70.7 120.7 70.65 116.8 64.75 118.35 62.2 116.8 55.65 Q115.65 52.1 115.1 54.2 L114.45 54.35 113.75 54.25 M112.65 60.55 Q111.6 60.55 110.85 60.05 110.05 59.45 110.05 58.75 111.1 58.75 111.9 59.3 112.65 59.8 112.65 60.55 M113.45 57.85 Q116.3 54.2 116.2 58.7 L113.3 58.95 Q113.15 58.2 113.45 57.85 M119.7 56.85 Q120.0 55.85 119.6 56.05 L119.7 56.85 M101.35 54.85 L103.0 55.85 101.0 57.2 101.0 56.9 Q101.0 55.1 100.4 56.3 L99.05 56.4 98.95 54.75 99.85 54.85 Q100.15 54.6 99.9 53.9 L100.6 54.4 101.2 54.9 101.35 54.85 M100.85 57.75 L98.65 63.75 97.7 62.45 98.0 58.75 98.45 60.9 98.45 61.55 98.5 60.8 98.65 60.6 100.85 57.75 M97.95 64.8 L95.65 67.75 95.2 67.9 95.1 67.85 95.15 68.1 97.4 75.0 93.4 75.05 93.45 73.05 93.55 73.15 Q94.15 72.9 93.25 72.55 L92.85 64.65 95.0 64.65 97.95 64.8 M92.35 76.85 L91.7 76.55 92.05 76.4 92.55 76.4 92.35 76.85 M87.85 66.35 L87.35 66.35 87.05 65.25 88.1 65.8 87.85 66.35 M86.7 66.15 L88.3 76.8 85.85 77.95 84.85 75.4 84.45 78.3 82.0 78.6 78.5 68.8 75.2 56.75 76.2 56.4 Q76.95 59.4 76.35 56.7 L76.2 56.35 82.5 53.85 85.65 62.2 81.4 55.95 79.35 60.25 82.55 59.5 86.5 63.9 82.5 61.9 86.7 66.15 M87.3 59.45 Q86.7 61.5 86.4 59.1 L86.4 58.95 86.65 59.3 87.3 59.45 M86.65 55.45 L86.85 55.3 Q86.85 55.9 87.5 56.3 88.1 56.65 89.05 56.65 L88.05 57.55 86.65 55.45 M87.95 55.55 L88.05 55.2 88.45 55.1 87.95 55.55 M89.7 55.0 L91.0 54.45 91.5 53.85 91.75 53.85 Q94.75 56.25 89.25 56.55 L89.7 55.0 M109.9 70.5 L102.25 73.55 110.55 63.25 109.9 70.5 M112.45 62.85 L112.7 62.55 Q116.45 64.3 112.75 63.45 112.55 63.4 112.45 62.85 M93.2 58.3 Q91.85 59.55 92.55 57.9 L93.2 58.3 M81.6 61.55 L81.7 61.6 81.75 61.55 81.85 61.05 81.85 60.9 Q81.35 59.65 81.5 61.25 L81.6 61.55 M90.45 58.4 L90.8 58.3 91.1 58.4 91.2 58.75 91.1 59.05 90.8 59.15 90.45 59.05 90.35 58.75 90.45 58.4 M83.1 67.15 Q83.2 66.35 82.8 66.75 L83.1 67.15 M89.8 59.7 L91.9 60.2 90.1 62.05 89.8 59.7 M125.7 68.25 Q125.4 67.25 125.45 68.6 125.45 68.45 125.7 68.25 M127.05 67.65 L127.85 67.65 127.85 67.4 127.05 67.4 127.05 67.65" fill="#c8c8c8" fill-rule="evenodd" stroke="none"/>
    <path d="M113.3 46.45 L110.55 53.05 110.45 53.3 110.3 53.35 Q109.55 53.85 109.25 52.85 L106.1 60.45 104.0 48.55 113.3 46.45 M101.0 57.2 L100.85 57.75 98.65 60.6 100.4 56.3 Q101.0 55.1 101.0 56.9 L101.0 57.2 M86.5 63.9 L88.7 65.5 88.1 65.8 87.05 65.25 82.5 61.9 86.5 63.9 M89.85 62.9 L88.75 62.85 88.85 61.6 89.2 57.3 93.55 57.7 93.1 63.2 89.85 62.9 M100.6 54.4 L101.35 54.85 101.2 54.9 100.6 54.4 M93.2 58.3 L92.55 57.9 Q91.85 59.55 93.2 58.3 M81.5 61.25 Q81.35 59.65 81.85 60.9 L81.85 61.05 Q81.65 61.35 81.5 61.25 M90.45 58.4 L90.35 58.75 90.45 59.05 90.8 59.15 91.1 59.05 91.2 58.75 91.1 58.4 90.8 58.3 90.45 58.4 M89.8 59.7 L90.1 62.05 91.9 60.2 89.8 59.7" fill="#eaeaea" fill-rule="evenodd" stroke="none"/>
    <path d="M118.35 62.2 L115.0 63.8 119.3 69.2 118.65 72.3 113.3 72.5 106.45 75.1 104.15 74.8 111.75 71.15 112.45 64.55 110.45 61.85 112.65 60.55 Q112.65 59.8 111.9 59.3 111.1 58.75 110.05 58.75 109.95 60.9 109.6 59.45 109.15 57.55 109.55 55.45 L113.75 54.25 114.45 54.35 116.8 55.65 118.35 62.2 M113.45 57.85 Q113.15 58.2 113.3 58.95 L116.2 58.7 Q116.3 54.2 113.45 57.85 M98.65 63.75 L97.95 64.8 95.0 64.65 97.7 62.45 98.65 63.75 M95.65 67.75 L99.3 76.65 92.35 76.85 92.55 76.4 92.15 75.4 92.05 76.4 91.7 76.55 90.8 69.2 87.85 66.35 88.1 65.8 88.7 65.5 Q90.95 67.95 90.8 65.35 90.75 64.1 89.85 62.9 L93.1 63.2 92.85 64.65 93.25 72.55 93.45 73.05 93.4 75.05 97.4 75.0 95.15 68.1 95.2 67.9 95.65 67.75 M87.35 66.35 L86.7 66.15 82.5 61.9 87.05 65.25 87.35 66.35 M88.85 61.6 L87.3 59.45 86.65 59.3 86.4 58.95 86.65 55.45 88.05 57.55 89.2 57.3 88.85 61.6 M86.85 55.3 L86.9 55.2 Q87.45 54.75 87.95 55.55 L88.45 55.1 88.95 54.55 89.7 55.0 89.25 56.55 89.05 56.65 Q88.1 56.65 87.5 56.3 86.85 55.9 86.85 55.3 M91.0 54.45 L91.15 54.05 Q91.25 53.85 91.5 53.85 L91.0 54.45 M98.0 58.75 L99.05 56.4 100.4 56.3 98.65 60.6 98.5 60.8 98.45 60.9 98.0 58.75 M98.95 54.75 Q99.15 54.1 99.5 53.75 L99.9 53.9 Q100.15 54.6 99.85 54.85 L98.95 54.75 M112.7 62.55 L112.2 62.45 112.45 62.85 Q112.55 63.4 112.75 63.45 116.45 64.3 112.7 62.55 M81.6 61.55 L81.5 61.25 Q81.65 61.35 81.85 61.05 L81.75 61.55 81.6 61.55" fill="#a0a0a0" fill-rule="evenodd" stroke="none"/>
    <path d="M95.15 68.1 L95.1 67.85 95.2 67.9 95.15 68.1 M93.45 73.05 L93.25 72.55 Q94.15 72.9 93.55 73.15 L93.45 73.05" fill="#d4d4d4" fill-rule="evenodd" stroke="none"/>
  </g>
</svg>
