<?xml version="1.0" encoding="UTF-8" standalone="no"?>
<svg xmlns:ffdec="https://www.free-decompiler.com/flash" xmlns:xlink="http://www.w3.org/1999/xlink" ffdec:objectType="shape" height="62.3px" width="33.4px" xmlns="http://www.w3.org/2000/svg">
  <g transform="matrix(1.0, 0.0, 0.0, 1.0, 0.05, 6.2)">
    <path d="M16.6 11.5 L16.2 12.55 15.75 14.0 15.7 14.0 Q15.15 18.6 15.75 24.6 16.2 28.7 17.25 33.5 L15.7 36.2 15.55 36.45 15.55 36.4 Q14.7 31.1 14.45 26.65 14.05 19.35 15.25 14.0 L15.45 14.0 15.45 13.95 Q15.45 13.25 16.05 12.1 L16.4 11.5 16.6 11.5 M5.45 44.15 Q5.05 43.7 5.05 43.05 L4.95 41.4 4.9 39.45 Q4.85 39.15 4.95 38.95 L5.15 38.5 Q5.25 38.35 5.45 38.3 L5.5 38.25 5.9 38.1 6.25 38.25 6.65 38.5 6.7 38.65 6.85 38.95 7.0 39.45 7.15 41.55 7.95 41.55 7.75 39.75 Q7.7 39.2 8.0 38.9 8.25 38.45 8.7 38.5 L8.75 38.5 9.3 38.65 9.3 44.65 6.6 44.65 6.5 44.65 5.5 44.2 5.45 44.15 M5.45 37.85 L5.15 37.9 4.7 37.75 4.3 37.45 4.1 37.0 4.0 36.55 4.0 36.4 Q3.95 36.15 4.05 35.85 L4.35 35.35 4.7 35.05 5.15 34.95 5.25 34.95 5.45 35.05 5.6 35.1 5.95 35.35 6.2 35.85 6.3 36.4 6.3 36.55 6.2 37.05 6.0 37.45 5.65 37.75 5.45 37.85 M9.3 21.55 Q8.2 21.45 7.6 20.65 6.95 19.75 7.1 18.45 L7.4 17.35 8.0 16.45 Q8.4 15.95 8.95 15.75 L9.3 15.6 9.3 17.85 9.05 18.05 Q8.9 18.2 8.9 18.45 L8.95 18.85 9.2 19.15 9.3 19.2 9.3 21.55 M9.3 26.45 L8.35 25.55 8.3 26.7 7.95 27.5 Q7.7 27.8 7.35 27.8 6.95 27.8 6.75 27.5 6.45 27.2 6.5 26.75 L6.5 26.4 6.8 22.8 6.8 22.6 7.1 22.15 7.5 21.95 7.65 22.0 7.8 22.05 7.95 22.15 8.8 23.05 9.3 23.5 9.3 26.45 M9.3 30.15 L9.3 33.05 8.25 32.05 8.3 33.35 8.05 34.15 7.4 34.5 Q7.0 34.5 6.75 34.15 6.45 33.8 6.45 33.35 L6.45 28.9 Q6.45 28.55 6.7 28.4 L7.15 28.2 7.3 28.25 7.4 28.3 7.6 28.45 9.3 30.15 M9.3 35.0 L9.3 37.85 7.7 37.85 7.3 37.75 Q7.1 37.65 6.85 37.4 6.5 37.0 6.5 36.4 6.45 35.8 6.8 35.45 L7.5 35.0 9.05 35.0 9.3 35.0" fill="#ffffff" fill-rule="evenodd" stroke="none"/>
    <path d="M4.5 -1.7 L4.55 -1.75 7.1 -3.2 7.45 -3.3 7.7 -3.4 10.15 -3.95 16.75 -4.55 23.3 -3.95 25.7 -3.4 Q29.4 -2.25 29.4 -0.65 29.4 0.0 28.8 0.6 27.85 1.45 25.7 2.2 22.0 3.35 16.75 3.35 11.45 3.35 7.7 2.2 5.5 1.45 4.65 0.6 4.0 0.0 4.0 -0.65 4.0 -1.2 4.5 -1.7 M6.05 -1.1 Q6.05 -0.65 6.65 -0.2 7.4 0.3 9.15 0.75 L16.7 1.5 24.2 0.75 26.7 -0.2 Q27.3 -0.65 27.3 -1.1 27.3 -2.2 24.2 -2.95 L16.7 -3.75 9.15 -2.95 Q6.05 -2.2 6.05 -1.1" fill="#cccccc" fill-rule="evenodd" stroke="none"/>
    <path d="M7.7 -3.4 L10.25 -4.15 10.3 -4.15 14.75 -4.8 16.9 -4.8 23.15 -4.2 23.2 -4.2 26.7 -3.2 Q29.8 -2.0 30.35 -0.35 L30.35 -0.25 30.45 0.15 30.05 1.35 Q29.35 2.45 27.3 3.4 L27.3 3.35 26.75 3.55 26.7 3.55 Q22.65 5.15 16.9 5.15 11.15 5.15 7.15 3.6 L7.1 3.55 6.9 3.5 Q4.35 2.45 3.65 1.15 L3.35 0.15 3.4 0.05 3.45 -0.15 Q3.6 -1.0 4.5 -1.7 4.0 -1.2 4.0 -0.65 4.0 0.0 4.65 0.6 5.5 1.45 7.7 2.2 11.45 3.35 16.75 3.35 22.0 3.35 25.7 2.2 27.85 1.45 28.8 0.6 29.4 0.0 29.4 -0.65 29.4 -2.25 25.7 -3.4 L23.3 -3.95 16.75 -4.55 10.15 -3.95 7.7 -3.4 M8.8 -2.0 L9.7 -2.55 Q11.05 -3.1 12.95 -3.1 L16.1 -2.6 16.3 -2.6 16.5 -2.6 17.15 -2.45 Q17.85 -2.35 17.85 -1.65 L17.8 -1.35 17.8 -1.3 17.6 -0.85 Q17.25 -0.2 16.2 0.2 L12.95 0.8 Q11.05 0.8 9.7 0.2 8.7 -0.2 8.5 -0.75 L8.4 -1.15 Q8.4 -1.65 8.8 -2.0 M9.75 -2.15 Q9.1 -1.8 9.1 -1.35 L9.25 -0.95 9.75 -0.65 Q10.5 -0.25 11.45 -0.25 L13.15 -0.65 Q13.85 -0.9 13.85 -1.35 L13.8 -1.6 13.15 -2.15 11.45 -2.45 9.75 -2.15" fill="#999999" fill-rule="evenodd" stroke="none"/>
    <path d="M6.05 -1.1 Q6.05 -2.2 9.15 -2.95 L16.7 -3.75 24.2 -2.95 Q27.3 -2.2 27.3 -1.1 27.3 -0.65 26.7 -0.2 L24.2 0.75 16.7 1.5 9.15 0.75 Q7.4 0.3 6.65 -0.2 6.05 -0.65 6.05 -1.1 M8.8 -2.0 Q6.25 -1.55 6.25 -0.85 6.25 -0.55 6.8 -0.25 7.55 0.15 9.35 0.55 L16.7 1.1 21.35 0.85 22.05 0.85 25.2 0.35 25.95 0.0 26.6 -0.25 27.1 -0.85 Q27.1 -1.25 26.05 -1.65 L25.2 -2.1 22.05 -2.6 20.4 -2.5 16.7 -2.6 16.5 -2.6 16.3 -2.6 16.1 -2.6 12.95 -3.1 Q11.05 -3.1 9.7 -2.55 L8.8 -2.0" fill="#dfdfdf" fill-rule="evenodd" stroke="none"/>
    <path d="M21.35 0.85 L16.7 1.1 9.35 0.55 Q7.55 0.15 6.8 -0.25 6.25 -0.55 6.25 -0.85 6.25 -1.55 8.8 -2.0 8.4 -1.65 8.4 -1.15 L8.5 -0.75 Q8.7 -0.2 9.7 0.2 11.05 0.8 12.95 0.8 L16.2 0.2 Q17.25 -0.2 17.6 -0.85 L17.65 -0.55 17.65 -0.5 Q17.65 -0.1 18.5 0.2 L18.85 0.35 21.35 0.85 M16.5 -2.6 L16.7 -2.6 20.4 -2.5 18.85 -2.1 18.1 -1.65 17.8 -1.35 17.85 -1.65 Q17.85 -2.35 17.15 -2.45 L16.5 -2.6 M26.05 -1.65 Q27.1 -1.25 27.1 -0.85 L26.6 -0.25 25.95 0.0 26.35 -0.35 26.5 -0.85 26.05 -1.65 M9.75 -2.15 L11.45 -2.45 13.15 -2.15 13.8 -1.6 13.85 -1.35 Q13.85 -0.9 13.15 -0.65 L11.45 -0.25 Q10.5 -0.25 9.75 -0.65 L9.25 -0.95 9.1 -1.35 Q9.1 -1.8 9.75 -2.15" fill="#cecece" fill-rule="evenodd" stroke="none"/>
    <path d="M20.4 -2.5 L22.05 -2.6 25.2 -2.1 26.05 -1.65 26.5 -0.85 26.35 -0.35 25.95 0.0 25.2 0.35 22.05 0.85 21.35 0.85 18.85 0.35 18.5 0.2 Q17.65 -0.1 17.65 -0.5 L17.65 -0.55 17.6 -0.85 17.8 -1.3 17.8 -1.35 18.1 -1.65 18.85 -2.1 20.4 -2.5" fill="#333333" fill-rule="evenodd" stroke="none"/>
    <path d="M23.45 51.05 L23.65 50.8 Q25.2 49.0 27.0 44.9 L28.4 41.4 28.4 11.3 27.85 12.3 Q26.9 14.15 25.5 17.4 L19.6 30.85 19.35 31.3 19.15 30.35 Q18.1 25.35 17.7 21.6 17.15 17.0 17.6 14.25 L18.05 13.1 18.85 11.45 Q24.05 11.2 27.9 9.7 L28.0 9.65 28.4 9.55 28.4 10.7 Q29.0 9.0 30.85 10.1 L30.85 21.9 31.35 30.8 Q31.35 34.65 30.5 38.1 29.75 41.25 28.4 42.85 L28.4 50.0 28.1 50.15 28.1 50.1 27.5 50.35 27.45 50.35 Q25.35 51.2 22.85 51.65 L23.45 51.05 M22.15 16.8 Q22.5 16.45 22.5 15.95 22.5 15.45 22.15 15.1 21.8 14.75 21.3 14.75 20.8 14.75 20.45 15.1 20.1 15.45 20.1 15.95 20.1 16.45 20.45 16.8 20.8 17.15 21.3 17.15 21.8 17.15 22.15 16.8 M18.85 11.45 L17.75 11.5 17.7 11.65 17.7 11.5 17.45 11.5 18.85 11.45 M16.4 11.5 L16.05 12.1 Q15.45 13.25 15.45 13.95 L15.45 14.0 15.25 14.0 Q14.05 19.35 14.45 26.65 14.7 31.1 15.55 36.4 13.25 39.05 10.45 41.55 L10.4 41.55 10.1 39.8 9.6 38.85 9.3 38.65 8.75 38.5 8.7 38.5 Q8.25 38.45 8.0 38.9 7.7 39.2 7.75 39.75 L7.95 41.55 7.15 41.55 7.0 39.45 6.85 38.95 6.7 38.65 6.65 38.5 6.25 38.25 5.9 38.1 5.5 38.25 5.45 38.3 5.45 37.85 5.65 37.75 6.0 37.45 6.2 37.05 6.3 36.55 6.3 36.4 6.2 35.85 5.95 35.35 5.6 35.1 5.45 35.05 5.45 9.7 Q10.0 11.45 16.4 11.5 M5.45 45.5 L5.45 44.15 5.5 44.2 6.5 44.65 6.6 44.65 5.45 45.5 M7.6 12.2 L7.7 11.65 Q7.7 10.9 6.95 10.8 6.2 10.7 6.2 11.65 6.2 12.45 6.85 12.45 L7.6 12.2 M9.3 15.6 L8.95 15.75 Q8.4 15.95 8.0 16.45 L7.4 17.35 7.1 18.45 Q6.95 19.75 7.6 20.65 8.2 21.45 9.3 21.55 L9.45 21.55 9.85 21.5 10.3 21.4 11.4 20.8 11.4 20.75 11.45 20.7 11.55 20.65 Q12.4 19.75 12.55 18.45 L12.5 17.6 12.35 16.9 Q12.0 16.2 11.4 15.85 10.75 15.4 10.15 15.5 L10.05 15.5 9.3 15.6 M9.3 19.2 L9.2 19.15 8.95 18.85 8.9 18.45 Q8.9 18.2 9.05 18.05 L9.3 17.85 9.35 17.8 9.6 17.7 9.85 17.65 10.05 17.65 10.55 17.9 10.7 18.3 10.7 18.35 10.7 18.45 10.4 19.0 9.7 19.25 9.4 19.25 9.3 19.2 M9.3 23.5 L8.8 23.05 7.95 22.15 7.8 22.05 7.65 22.0 7.5 21.95 7.1 22.15 6.8 22.6 6.8 22.8 6.5 26.4 6.5 26.75 Q6.45 27.2 6.75 27.5 6.95 27.8 7.35 27.8 7.7 27.8 7.95 27.5 L8.3 26.7 8.35 25.55 9.3 26.45 10.5 27.6 10.55 27.7 10.65 27.75 10.85 27.8 11.05 27.85 11.6 27.65 11.85 27.05 12.05 22.75 11.85 22.0 Q11.6 21.65 11.15 21.7 10.75 21.65 10.45 22.0 10.1 22.3 10.1 22.75 L9.95 24.15 9.3 23.5 M19.8 21.3 L19.55 21.2 19.3 21.3 19.2 21.55 19.3 21.8 19.55 21.9 19.8 21.8 19.9 21.55 19.8 21.3 M11.85 30.7 L11.8 29.0 11.55 28.25 Q11.25 27.9 10.85 27.9 10.4 27.9 10.1 28.25 9.8 28.6 9.75 29.05 L9.8 30.55 9.3 30.15 7.6 28.45 7.4 28.3 7.3 28.25 7.15 28.2 6.7 28.4 Q6.45 28.55 6.45 28.9 L6.45 33.35 Q6.45 33.8 6.75 34.15 7.0 34.5 7.4 34.5 L8.05 34.15 8.3 33.35 8.25 32.05 9.3 33.05 9.95 33.6 10.8 34.3 10.85 34.35 11.0 34.45 11.25 34.5 11.45 34.5 11.95 34.3 12.1 33.65 11.85 30.7 M9.3 37.85 L11.65 37.85 Q12.15 37.85 12.5 37.4 12.75 37.0 12.65 36.4 L12.15 35.4 Q11.7 35.0 11.2 35.0 L9.3 35.0 9.05 35.0 7.5 35.0 6.8 35.45 Q6.45 35.8 6.5 36.4 6.5 37.0 6.85 37.4 7.1 37.65 7.3 37.75 L7.7 37.85 9.3 37.85" fill="#ca0f30" fill-rule="evenodd" stroke="none"/>
    <path d="M20.15 6.4 Q24.1 6.05 27.1 4.9 L27.2 4.85 27.85 4.6 Q29.55 3.85 30.65 2.15 L30.9 1.75 30.95 1.85 31.4 3.85 31.45 4.05 31.55 4.5 Q31.45 6.5 28.1 8.05 L28.1 8.0 27.5 8.25 27.45 8.25 Q23.55 9.75 18.3 10.0 L19.15 9.95 19.25 9.4 19.45 8.25 20.15 6.4 M17.05 10.0 L16.7 10.0 Q10.4 10.0 6.0 8.3 L5.95 8.25 5.7 8.2 Q1.9 6.6 1.8 4.5 L1.8 4.45 1.85 4.45 1.85 4.4 1.9 4.2 2.35 1.3 Q4.0 3.75 6.4 4.8 L6.6 4.85 Q10.85 6.5 16.9 6.5 L18.25 6.5 17.55 8.1 17.05 10.0 M28.4 50.0 L28.4 42.85 Q29.75 41.25 30.5 38.1 31.35 34.65 31.35 30.8 L30.85 21.9 30.85 10.1 Q29.0 9.0 28.4 10.7 L28.4 9.55 28.7 9.4 Q30.75 8.45 31.85 7.35 L31.55 46.95 31.55 47.15 Q31.05 48.65 28.4 50.0 M5.45 50.2 Q2.2 48.75 1.85 46.95 L1.85 46.35 1.85 46.15 1.55 7.35 Q2.75 8.6 5.15 9.6 L5.4 9.65 5.45 9.7 5.45 35.05 5.25 34.95 5.15 34.95 4.7 35.05 4.35 35.35 4.05 35.85 Q3.95 36.15 4.0 36.4 L4.0 36.55 4.1 37.0 4.3 37.45 4.7 37.75 5.15 37.9 5.45 37.85 5.45 38.3 Q5.25 38.35 5.15 38.5 L4.95 38.95 Q4.85 39.15 4.9 39.45 L4.95 41.4 5.05 43.05 Q5.05 43.7 5.45 44.15 L5.45 45.5 5.45 50.2 M3.25 17.75 Q2.65 16.9 1.7 16.65 L1.7 21.65 Q2.65 21.9 3.25 21.3 3.95 20.8 3.95 19.75 3.95 18.7 3.25 17.75" fill="#a20d27" fill-rule="evenodd" stroke="none"/>
    <path d="M19.35 31.3 L19.6 30.85 25.5 17.4 Q26.9 14.15 27.85 12.3 L28.4 11.3 28.4 41.4 27.0 44.9 Q25.2 49.0 23.65 50.8 L23.45 51.05 23.55 50.35 23.7 48.15 23.6 44.5 Q23.3 42.45 22.35 41.1 20.35 36.15 19.4 31.6 L19.35 31.3 M15.55 36.4 L15.55 36.45 15.7 37.25 Q16.55 42.3 16.25 46.55 L16.35 46.55 16.15 47.6 14.95 50.45 14.25 52.05 Q9.5 51.75 6.0 50.4 L5.95 50.35 5.7 50.3 5.45 50.2 5.45 45.5 6.6 44.65 9.3 44.65 10.75 44.65 12.9 44.65 Q13.55 44.65 13.9 44.2 14.2 43.75 14.1 43.05 L14.05 43.05 Q13.95 42.4 13.5 42.0 13.05 41.6 12.6 41.55 L12.35 41.55 10.45 41.55 Q13.25 39.05 15.55 36.4 M9.5 47.85 Q9.1 48.3 9.1 48.9 9.1 49.5 9.5 49.9 9.95 50.35 10.55 50.35 11.15 50.35 11.55 49.9 12.0 49.5 12.0 48.9 12.0 48.3 11.55 47.85 11.15 47.45 10.55 47.45 9.95 47.45 9.5 47.85 M24.95 38.75 L25.2 38.2 24.95 37.6 24.4 37.4 Q24.05 37.4 23.8 37.6 L23.6 38.2 23.8 38.75 24.4 39.0 24.95 38.75 M27.25 28.9 Q27.75 28.45 27.75 27.75 27.75 27.05 27.25 26.55 26.8 26.1 26.1 26.1 25.4 26.1 24.9 26.55 24.45 27.05 24.45 27.75 24.45 28.45 24.9 28.9 25.4 29.4 26.1 29.4 26.8 29.4 27.25 28.9" fill="#f03153" fill-rule="evenodd" stroke="none"/>
    <path d="M4.5 -1.7 Q3.6 -1.0 3.45 -0.15 L3.4 0.05 3.35 0.15 3.65 1.15 Q4.35 2.45 6.9 3.5 L7.1 3.55 7.15 3.6 Q11.15 5.15 16.9 5.15 22.65 5.15 26.7 3.55 L26.75 3.55 27.3 3.35 27.3 3.4 Q29.35 2.45 30.05 1.35 L30.45 0.15 30.35 -0.25 30.35 -0.35 Q29.8 -2.0 26.7 -3.2 L23.2 -4.2 23.15 -4.2 16.9 -4.8 14.75 -4.8 10.3 -4.15 10.25 -4.15 7.7 -3.4 7.45 -3.3 7.1 -3.2 4.55 -1.75 4.5 -1.7 M2.1 -0.45 Q2.35 -1.8 3.6 -2.75 4.7 -3.7 6.6 -4.45 L10.0 -5.45 14.65 -6.15 14.7 -6.15 16.9 -6.2 23.4 -5.5 Q25.45 -5.15 27.2 -4.45 31.05 -2.95 31.6 -0.8 L31.8 0.05 31.85 0.1 31.9 0.15 31.65 0.8 30.95 1.85 30.9 1.75 30.65 2.15 Q29.55 3.85 27.85 4.6 L27.2 4.85 27.1 4.9 Q24.1 6.05 20.15 6.4 L18.45 6.5 18.25 6.5 16.9 6.5 Q10.85 6.5 6.6 4.85 L6.4 4.8 Q4.0 3.75 2.35 1.3 2.25 1.5 2.25 1.3 L2.15 0.4 2.1 -0.45 M29.7 51.0 Q29.9 51.4 28.35 53.25 26.75 55.1 22.0 55.65 16.65 56.4 12.0 55.9 6.45 55.05 5.25 53.65 L3.15 50.7 4.0 51.15 4.95 51.6 4.95 51.65 5.0 51.7 Q6.8 53.35 12.75 53.9 17.1 54.75 21.4 53.9 25.75 53.55 27.85 51.8 L27.9 51.8 28.0 51.75 28.7 51.5 28.75 51.5 29.7 51.0" fill="#666666" fill-rule="evenodd" stroke="none"/>
    <path d="M3.15 50.7 Q0.6 49.1 0.35 47.2 L0.35 47.1 0.35 47.05 0.3 46.65 0.35 46.1 0.0 4.5 0.0 4.6 -0.05 4.1 1.65 0.4 2.0 -0.5 2.1 -0.45 2.15 0.4 2.25 1.3 Q2.25 1.5 2.35 1.3 L1.9 4.2 1.85 4.4 1.85 4.45 1.8 4.45 1.8 4.5 Q1.9 6.6 5.7 8.2 L5.95 8.25 6.0 8.3 Q10.4 10.0 16.7 10.0 L17.05 10.0 17.5 10.0 18.3 10.0 Q23.55 9.75 27.45 8.25 L27.5 8.25 28.1 8.0 28.1 8.05 Q31.45 6.5 31.55 4.5 L31.45 4.05 31.4 3.85 30.95 1.85 31.65 0.8 31.9 0.15 Q32.15 0.25 32.6 1.6 L33.25 4.15 33.25 4.2 33.25 4.1 33.35 4.5 33.05 46.95 33.0 47.5 Q32.55 49.45 29.7 51.0 L28.75 51.5 28.7 51.5 28.0 51.75 27.9 51.8 27.85 51.8 Q25.15 52.85 21.9 53.3 L19.45 53.55 19.35 53.55 17.85 53.6 17.8 53.6 16.7 53.6 Q10.05 53.6 5.4 51.75 L5.15 51.7 4.95 51.65 4.95 51.6 4.0 51.15 3.15 50.7 M22.85 51.65 Q25.35 51.2 27.45 50.35 L27.5 50.35 28.1 50.1 28.1 50.15 28.4 50.0 Q31.05 48.65 31.55 47.15 L31.55 46.95 31.85 7.35 Q30.75 8.45 28.7 9.4 L28.4 9.55 28.0 9.65 27.9 9.7 Q24.05 11.2 18.85 11.45 L17.45 11.5 16.7 11.5 16.6 11.5 16.4 11.5 Q10.0 11.45 5.45 9.7 L5.4 9.65 5.15 9.6 Q2.75 8.6 1.55 7.35 L1.85 46.15 1.85 46.35 1.85 46.95 Q2.2 48.75 5.45 50.2 L5.7 50.3 5.95 50.35 6.0 50.4 Q9.5 51.75 14.25 52.05 L16.7 52.1 17.75 52.1 17.8 52.1 18.15 52.1 19.25 52.05 21.7 51.8 22.4 51.7 22.85 51.65" fill="#4d0d1d" fill-rule="evenodd" stroke="none"/>
    <path d="M4.95 51.65 L5.15 51.7 5.4 51.75 Q10.05 53.6 16.7 53.6 L17.8 53.6 17.85 53.6 19.35 53.55 19.45 53.55 21.9 53.3 Q25.15 52.85 27.85 51.8 25.75 53.55 21.4 53.9 17.1 54.75 12.75 53.9 6.8 53.35 5.0 51.7 L4.95 51.65" fill="#8c8c8c" fill-rule="evenodd" stroke="none"/>
    <path d="M9.3 21.55 L9.3 19.2 9.4 19.25 9.7 19.25 10.4 19.0 10.7 18.45 10.7 18.35 10.7 18.3 10.55 17.9 10.05 17.65 9.85 17.65 9.6 17.7 9.35 17.8 9.3 17.85 9.3 15.6 10.05 15.5 10.15 15.5 Q10.75 15.4 11.4 15.85 12.0 16.2 12.35 16.9 L12.5 17.6 9.85 21.5 9.45 21.55 9.3 21.55 M9.95 33.6 L11.85 30.7 12.1 33.65 11.95 34.3 11.45 34.5 11.25 34.5 11.0 34.45 10.85 34.35 10.8 34.3 9.95 33.6 M9.3 35.0 L11.2 35.0 Q11.7 35.0 12.15 35.4 L12.65 36.4 Q12.75 37.0 12.5 37.4 12.15 37.85 11.65 37.85 L9.3 37.85 9.3 35.0 M9.3 38.65 L9.6 38.85 10.1 39.8 10.4 41.55 10.45 41.55 12.35 41.55 12.6 41.55 10.75 44.65 9.3 44.65 9.3 38.65" fill="#a4eee3" fill-rule="evenodd" stroke="none"/>
    <path d="M12.5 17.6 L12.55 18.45 Q12.4 19.75 11.55 20.65 L11.45 20.7 11.4 20.75 11.4 20.8 10.3 21.4 9.85 21.5 12.5 17.6 M9.3 26.45 L9.3 23.5 9.95 24.15 10.1 22.75 Q10.1 22.3 10.45 22.0 10.75 21.65 11.15 21.7 11.6 21.65 11.85 22.0 L12.05 22.75 11.85 27.05 11.6 27.65 11.05 27.85 10.85 27.8 10.65 27.75 10.55 27.7 10.5 27.6 9.3 26.45 M9.3 30.15 L9.8 30.55 9.75 29.05 Q9.8 28.6 10.1 28.25 10.4 27.9 10.85 27.9 11.25 27.9 11.55 28.25 L11.8 29.0 11.85 30.7 9.95 33.6 9.3 33.05 9.3 30.15" fill="#caf4ee" fill-rule="evenodd" stroke="none"/>
    <path d="M18.85 11.45 L18.05 13.1 17.6 14.25 Q17.15 17.0 17.7 21.6 L15.75 24.6 Q15.15 18.6 15.7 14.0 L15.75 14.0 16.2 12.55 16.6 11.5 16.7 11.5 17.45 11.5 17.7 11.5 17.7 11.65 17.75 11.5 18.85 11.45" fill="#56e0cc" fill-rule="evenodd" stroke="none"/>
    <path d="M23.45 51.05 L22.85 51.65 22.4 51.7 21.7 51.8 19.25 52.05 18.15 52.1 Q18.95 51.2 19.55 46.55 L19.45 46.55 Q19.4 42.3 18.15 37.25 L18.1 37.1 17.4 34.1 17.25 33.5 19.15 30.35 19.35 31.3 19.4 31.6 Q20.35 36.15 22.35 41.1 23.3 42.45 23.6 44.5 L23.7 48.15 23.55 50.35 23.45 51.05 M22.15 16.8 Q21.8 17.15 21.3 17.15 20.8 17.15 20.45 16.8 20.1 16.45 20.1 15.95 20.1 15.45 20.45 15.1 20.8 14.75 21.3 14.75 21.8 14.75 22.15 15.1 22.5 15.45 22.5 15.95 22.5 16.45 22.15 16.8 M7.6 12.2 L6.85 12.45 Q6.2 12.45 6.2 11.65 6.2 10.7 6.95 10.8 7.7 10.9 7.7 11.65 L7.6 12.2 M3.25 17.75 Q3.95 18.7 3.95 19.75 3.95 20.8 3.25 21.3 2.65 21.9 1.7 21.65 L1.7 16.65 Q2.65 16.9 3.25 17.75 M19.8 21.3 L19.9 21.55 19.8 21.8 19.55 21.9 19.3 21.8 19.2 21.55 19.3 21.3 19.55 21.2 19.8 21.3 M9.5 47.85 Q9.95 47.45 10.55 47.45 11.15 47.45 11.55 47.85 12.0 48.3 12.0 48.9 12.0 49.5 11.55 49.9 11.15 50.35 10.55 50.35 9.95 50.35 9.5 49.9 9.1 49.5 9.1 48.9 9.1 48.3 9.5 47.85 M27.25 28.9 Q26.8 29.4 26.1 29.4 25.4 29.4 24.9 28.9 24.45 28.45 24.45 27.75 24.45 27.05 24.9 26.55 25.4 26.1 26.1 26.1 26.8 26.1 27.25 26.55 27.75 27.05 27.75 27.75 27.75 28.45 27.25 28.9 M24.95 38.75 L24.4 39.0 23.8 38.75 23.6 38.2 23.8 37.6 Q24.05 37.4 24.4 37.4 L24.95 37.6 25.2 38.2 24.95 38.75" fill="#23c2ab" fill-rule="evenodd" stroke="none"/>
    <path d="M18.3 10.0 L17.5 10.0 17.9 8.1 18.45 6.5 20.15 6.4 19.45 8.25 19.25 9.4 19.15 9.95 18.3 10.0 M17.7 21.6 Q18.1 25.35 19.15 30.35 L17.25 33.5 Q16.2 28.7 15.75 24.6 L17.7 21.6" fill="#25cbb3" fill-rule="evenodd" stroke="none"/>
    <path d="M17.5 10.0 L17.05 10.0 17.55 8.1 18.25 6.5 18.45 6.5 17.9 8.1 17.5 10.0 M15.55 36.45 L15.7 36.2 17.25 33.5 17.4 34.1 18.1 37.1 18.15 37.25 Q19.4 42.3 19.45 46.55 L19.55 46.55 Q18.95 51.2 18.15 52.1 L17.8 52.1 17.75 52.1 16.7 52.1 14.25 52.05 14.95 50.45 16.15 47.6 16.35 46.55 16.25 46.55 Q16.55 42.3 15.7 37.25 L15.55 36.45" fill="#efefef" fill-rule="evenodd" stroke="none"/>
    <path d="M10.75 44.65 L12.6 41.55 Q13.05 41.6 13.5 42.0 13.95 42.4 14.05 43.05 L14.1 43.05 Q14.2 43.75 13.9 44.2 13.55 44.65 12.9 44.65 L10.75 44.65" fill="#7ee7d7" fill-rule="evenodd" stroke="none"/>
  </g>
</svg>
