<?xml version="1.0" encoding="UTF-8" standalone="no"?>
<svg xmlns:ffdec="https://www.free-decompiler.com/flash" xmlns:xlink="http://www.w3.org/1999/xlink" ffdec:objectType="shape" height="51.05px" width="58.25px" xmlns="http://www.w3.org/2000/svg">
  <g transform="matrix(1.0, 0.0, 0.0, 1.0, 13.9, 13.8)">
    <path d="M25.65 -1.1 L16.25 -1.75 17.9 -6.7 16.6 -7.5 11.15 -11.05 32.5 -13.8 44.35 3.75 44.0 3.9 35.5 -0.4 31.05 6.45 29.8 5.25 27.4 0.05 27.0 -1.1 25.65 -1.1 M19.0 -7.1 L16.9 -2.0 27.3 -2.0 30.6 5.55 34.9 -2.0 42.15 2.0 32.15 -12.75 13.45 -10.35 19.0 -7.1" fill="#386004" fill-rule="evenodd" stroke="none"/>
    <path d="M19.0 -7.1 L13.45 -10.35 32.15 -12.75 42.15 2.0 34.9 -2.0 31.95 -9.2 32.5 -10.25 Q32.5 -10.8 32.1 -11.2 31.65 -11.6 31.15 -11.6 30.6 -11.6 30.2 -11.2 29.8 -10.8 29.8 -10.05 L19.0 -7.1 M27.3 -2.0 L16.9 -2.0 30.0 -9.4 30.6 -9.0 27.3 -2.0" fill="#73c00a" fill-rule="evenodd" stroke="none"/>
    <path d="M23.3 3.7 L23.35 3.7 23.6 4.0 23.7 4.5 23.35 4.9 22.8 4.95 22.75 4.9 22.7 4.95 22.35 4.85 Q16.7 3.1 9.0 3.1 1.7 3.1 -3.9 4.6 -8.8 6.35 -8.8 8.6 -8.8 10.55 -5.2 12.15 L-3.6 12.75 -3.1 12.95 -1.6 13.3 1.5 13.9 2.0 13.95 4.7 14.3 9.0 14.4 15.85 13.95 21.7 12.75 Q21.95 12.6 22.3 12.55 24.05 11.85 25.15 11.15 26.85 9.9 26.85 8.6 26.85 7.05 24.55 5.75 L24.7 5.55 24.5 5.3 Q24.35 5.05 24.5 4.85 24.55 4.55 24.85 4.4 L25.35 4.4 Q30.2 6.3 30.6 8.6 L30.6 8.7 30.55 10.0 30.4 10.35 Q29.05 12.05 24.9 13.6 L24.85 13.6 Q21.0 14.9 16.0 15.5 L9.0 15.85 1.95 15.5 Q-2.95 14.9 -6.75 13.6 L-6.85 13.55 -7.05 13.55 Q-11.05 12.0 -12.35 10.4 L-12.55 9.9 -12.55 8.7 -12.55 8.6 Q-12.2 6.05 -6.7 4.1 -0.2 1.75 9.0 1.75 17.25 1.75 23.2 3.7 L23.3 3.7 M30.0 -9.4 L29.8 -10.05 Q29.8 -10.8 30.2 -11.2 30.6 -11.6 31.15 -11.6 31.65 -11.6 32.1 -11.2 32.5 -10.8 32.5 -10.25 L31.95 -9.2 31.2 -9.0 30.6 -9.0 30.0 -9.4" fill="#ffffff" fill-rule="evenodd" stroke="none"/>
    <path d="M16.9 -2.0 L19.0 -7.1 29.8 -10.05 30.0 -9.4 16.9 -2.0 M34.9 -2.0 L30.6 5.55 27.3 -2.0 30.6 -9.0 31.2 -9.0 31.95 -9.2 34.9 -2.0" fill="#7ed50b" fill-rule="evenodd" stroke="none"/>
    <path d="M25.15 11.15 Q24.05 11.85 22.3 12.55 21.95 12.6 21.7 12.75 L15.85 13.95 9.0 14.4 4.7 14.3 2.0 13.95 1.5 13.9 -1.6 13.3 -2.0 13.2 -4.6 12.0 -4.6 11.95 -0.25 10.55 13.0 10.55 16.3 10.75 Q18.0 10.85 19.05 12.2 L19.15 12.05 19.55 11.15 19.65 10.85 22.1 10.85 22.35 10.35 25.15 11.15" fill="#f7aeec" fill-rule="evenodd" stroke="none"/>
    <path d="M-1.6 13.3 L-3.1 12.95 -3.6 12.75 -5.2 12.15 -4.6 11.95 -4.6 12.0 -2.0 13.2 -1.6 13.3 M19.65 10.85 L19.55 11.15 19.15 12.05 19.05 12.2 Q18.0 10.85 16.3 10.75 L13.0 10.55 -0.25 10.55 3.65 9.5 16.05 9.4 20.2 9.85 19.95 10.4 19.65 10.85" fill="#f284e1" fill-rule="evenodd" stroke="none"/>
    <path d="M25.65 -1.1 L27.0 -1.1 27.4 0.05 25.9 3.2 25.85 3.15 25.35 3.1 25.65 -1.1" fill="#a26d3e" fill-rule="evenodd" stroke="none"/>
    <path d="M31.05 6.45 Q31.9 7.35 31.95 8.45 L31.95 8.6 31.95 8.65 31.95 8.95 32.0 8.5 31.8 15.2 Q31.45 24.1 25.15 30.5 18.4 37.25 8.95 37.25 -0.55 37.25 -7.15 30.5 -9.6 28.1 -11.15 25.3 -13.4 22.6 -13.65 12.95 L-13.75 12.95 -13.9 11.25 -13.9 8.65 -13.9 8.6 -13.9 8.45 Q-13.6 5.15 -7.15 2.8 -0.45 0.4 9.0 0.4 17.6 0.4 23.75 2.4 L23.3 3.7 23.2 3.7 Q17.25 1.75 9.0 1.75 -0.2 1.75 -6.7 4.1 -12.2 6.05 -12.55 8.6 L-12.55 8.7 -12.55 9.9 -12.35 10.4 Q-11.05 12.0 -7.05 13.55 L-6.85 13.55 -6.75 13.6 Q-2.95 14.9 1.95 15.5 L9.0 15.85 16.0 15.5 Q21.0 14.9 24.85 13.6 L24.9 13.6 Q29.05 12.05 30.4 10.35 L30.55 10.0 30.6 8.7 30.6 8.6 Q30.2 6.3 25.35 4.4 L24.85 4.4 25.35 3.1 25.85 3.15 25.9 3.2 Q28.3 4.15 29.8 5.25 L31.05 6.45 M26.1 15.5 L25.75 15.65 Q21.55 17.15 16.2 17.75 L9.0 18.2 1.7 17.75 Q-3.55 17.15 -7.7 15.65 L-11.65 13.8 Q-11.35 21.85 -9.5 24.1 L-9.45 24.3 Q-8.05 26.85 -5.75 29.1 0.3 35.2 8.95 35.2 17.6 35.2 23.75 29.1 29.55 23.2 29.8 15.0 L29.95 14.6 30.4 13.4 Q28.7 14.5 26.1 15.5" fill="#43260c" fill-rule="evenodd" stroke="none"/>
    <path d="M23.35 3.7 L24.3 1.6 25.65 -1.1 25.35 3.1 24.85 4.4 Q24.55 4.55 24.5 4.85 24.35 5.05 24.5 5.3 L24.7 5.55 24.55 5.75 22.35 10.35 22.1 10.85 19.65 10.85 19.95 10.4 22.7 4.95 22.75 4.9 22.8 4.95 23.35 4.9 23.7 4.5 23.6 4.0 23.35 3.7" fill="#c8986c" fill-rule="evenodd" stroke="none"/>
    <path d="M24.55 5.75 Q26.85 7.05 26.85 8.6 26.85 9.9 25.15 11.15 L22.35 10.35 24.55 5.75 M-5.2 12.15 Q-8.8 10.55 -8.8 8.6 -8.8 6.35 -3.9 4.6 1.7 3.1 9.0 3.1 16.7 3.1 22.35 4.85 L22.7 4.95 19.95 10.4 20.2 9.85 16.05 9.4 3.65 9.5 -0.25 10.55 -4.6 11.95 -5.2 12.15" fill="#8b8b8b" fill-rule="evenodd" stroke="none"/>
    <path d="M26.1 15.5 Q28.7 14.5 30.4 13.4 L29.95 14.6 29.8 15.0 Q29.55 23.2 23.75 29.1 17.6 35.2 8.95 35.2 0.3 35.2 -5.75 29.1 -8.05 26.85 -9.45 24.3 L-9.5 24.1 Q-11.35 21.85 -11.65 13.8 L-7.7 15.65 Q-3.55 17.15 1.7 17.75 L9.0 18.2 16.2 17.75 Q21.55 17.15 25.75 15.65 L26.1 15.5 M26.05 19.6 Q25.65 20.1 25.65 20.8 25.65 21.45 26.05 21.95 26.45 22.45 27.05 22.45 27.65 22.45 28.05 21.95 28.45 21.45 28.45 20.8 28.45 20.1 28.05 19.6 27.65 19.1 27.05 19.1 26.45 19.1 26.05 19.6 M2.45 27.1 Q1.95 26.5 1.2 26.5 0.5 26.5 -0.05 27.1 -0.55 27.7 -0.55 28.5 -0.55 29.3 -0.05 29.9 0.5 30.5 1.2 30.5 1.95 30.5 2.45 29.9 2.95 29.3 2.95 28.5 2.95 27.7 2.45 27.1 M9.0 30.85 Q9.0 30.45 8.6 30.1 8.2 29.85 7.65 29.85 7.1 29.85 6.7 30.1 6.3 30.45 6.3 30.85 6.3 31.25 6.7 31.5 L7.65 31.85 Q8.2 31.85 8.6 31.5 9.0 31.25 9.0 30.85 M19.95 28.15 L20.2 28.85 20.85 29.2 Q21.3 29.2 21.55 28.85 L21.8 28.15 21.55 27.45 Q21.3 27.15 20.85 27.15 20.45 27.15 20.2 27.45 19.95 27.75 19.95 28.15 M15.5 22.65 Q14.85 22.05 13.9 22.05 12.95 22.05 12.2 22.65 11.55 23.35 11.55 24.3 11.55 25.2 12.2 25.8 12.95 26.5 13.9 26.5 14.85 26.5 15.5 25.8 16.25 25.2 16.25 24.3 16.25 23.35 15.5 22.65 M-7.25 23.25 Q-6.5 24.0 -5.5 24.0 -4.5 24.0 -3.8 23.25 -3.1 22.55 -3.1 21.45 -3.1 20.4 -3.8 19.65 -4.5 18.9 -5.5 18.9 -6.5 18.9 -7.25 19.65 -7.9 20.4 -7.9 21.45 -7.9 22.55 -7.25 23.25" fill="#744214" fill-rule="evenodd" stroke="none"/>
    <path d="M26.05 19.6 Q26.45 19.1 27.05 19.1 27.65 19.1 28.05 19.6 28.45 20.1 28.45 20.8 28.45 21.45 28.05 21.95 27.65 22.45 27.05 22.45 26.45 22.45 26.05 21.95 25.65 21.45 25.65 20.8 25.65 20.1 26.05 19.6 M15.5 22.65 Q16.25 23.35 16.25 24.3 16.25 25.2 15.5 25.8 14.85 26.5 13.9 26.5 12.95 26.5 12.2 25.8 11.55 25.2 11.55 24.3 11.55 23.35 12.2 22.65 12.95 22.05 13.9 22.05 14.85 22.05 15.5 22.65 M19.95 28.15 Q19.95 27.75 20.2 27.45 20.45 27.15 20.85 27.15 21.3 27.15 21.55 27.45 L21.8 28.15 21.55 28.85 Q21.3 29.2 20.85 29.2 L20.2 28.85 19.95 28.15 M9.0 30.85 Q9.0 31.25 8.6 31.5 8.2 31.85 7.65 31.85 L6.7 31.5 Q6.3 31.25 6.3 30.85 6.3 30.45 6.7 30.1 7.1 29.85 7.65 29.85 8.2 29.85 8.6 30.1 9.0 30.45 9.0 30.85 M2.45 27.1 Q2.95 27.7 2.95 28.5 2.95 29.3 2.45 29.9 1.95 30.5 1.2 30.5 0.5 30.5 -0.05 29.9 -0.55 29.3 -0.55 28.5 -0.55 27.7 -0.05 27.1 0.5 26.5 1.2 26.5 1.95 26.5 2.45 27.1 M-7.25 23.25 Q-7.9 22.55 -7.9 21.45 -7.9 20.4 -7.25 19.65 -6.5 18.9 -5.5 18.9 -4.5 18.9 -3.8 19.65 -3.1 20.4 -3.1 21.45 -3.1 22.55 -3.8 23.25 -4.5 24.0 -5.5 24.0 -6.5 24.0 -7.25 23.25" fill="#673a12" fill-rule="evenodd" stroke="none"/>
  </g>
</svg>
