<?xml version="1.0" encoding="UTF-8" standalone="no"?>
<svg xmlns:ffdec="https://www.free-decompiler.com/flash" xmlns:xlink="http://www.w3.org/1999/xlink" ffdec:objectType="shape" height="480.0px" width="641.95px" xmlns="http://www.w3.org/2000/svg">
  <g transform="matrix(1.0, 0.0, 0.0, 1.0, 0.0, 0.0)">
    <path d="M489.25 196.0 L489.25 138.0 613.45 138.0 613.7 196.0 613.55 257.0 613.45 313.75 641.7 313.75 641.7 325.95 640.5 325.95 625.35 325.95 602.45 325.95 602.45 307.0 602.45 306.8 602.45 288.0 602.45 273.0 602.45 252.5 602.45 247.0 602.45 149.75 500.2 149.75 500.2 247.0 500.2 253.0 500.2 261.0 500.2 273.0 500.2 275.1 500.2 288.0 500.2 307.0 500.2 325.95 489.4 325.95 448.25 325.95 448.25 307.0 448.25 288.0 448.25 273.0 448.25 265.0 448.25 260.5 448.25 252.5 448.25 247.0 448.25 149.75 346.5 149.75 346.5 247.0 346.5 253.0 346.5 261.0 346.5 273.0 346.5 288.0 346.5 307.0 346.5 325.95 336.9 325.95 294.25 325.95 294.25 307.5 294.25 273.0 294.25 261.0 294.25 253.0 294.25 247.0 294.25 149.75 192.25 149.75 192.25 247.0 192.25 253.0 192.25 261.0 192.25 273.0 192.25 288.0 192.25 299.2 192.25 307.0 192.25 325.95 174.4 325.95 140.25 325.95 140.25 307.0 140.25 291.85 140.25 288.0 140.25 273.0 140.25 261.0 140.25 253.0 140.25 247.0 140.25 149.75 38.5 149.75 38.5 247.0 38.5 253.0 38.5 261.0 38.5 272.6 38.5 273.0 38.5 288.0 38.5 307.0 38.5 325.95 0.5 325.95 0.3 313.75 27.5 313.75 27.5 257.0 27.5 196.0 27.5 138.0 151.5 138.0 151.5 196.0 151.5 257.0 151.5 313.75 181.5 313.75 181.5 257.0 181.5 196.0 181.5 138.0 305.25 138.0 305.25 196.0 305.25 257.0 305.25 313.75 335.75 313.75 335.75 257.0 335.75 196.0 335.75 138.0 459.5 138.0 460.2 162.75 460.15 196.0 460.1 257.0 460.0 310.95 459.5 313.75 489.25 313.75 489.25 257.0 489.25 196.0" fill="#ffffff" fill-rule="evenodd" stroke="none"/>
    <path d="M38.5 307.0 L38.5 288.0 79.35 288.0 95.35 273.0 38.5 273.0 38.5 272.6 53.0 261.0 38.5 261.0 38.5 253.0 63.0 253.0 70.5 247.0 123.15 247.0 116.75 253.0 63.0 253.0 53.0 261.0 108.2 261.0 116.75 253.0 140.25 253.0 140.25 261.0 108.2 261.0 95.35 273.0 140.25 273.0 140.25 288.0 79.35 288.0 59.0 307.0 126.8 307.0 140.25 291.85 140.25 307.0 126.8 307.0 101.15 335.95 167.75 335.95 174.4 325.95 192.25 325.95 192.25 307.0 242.2 307.0 228.45 335.95 167.75 335.95 145.0 369.95 212.35 369.95 228.45 335.95 281.55 335.95 289.8 307.0 242.2 307.0 251.2 288.0 199.75 288.0 192.25 299.2 192.25 288.0 199.75 288.0 209.75 273.0 192.25 273.0 192.25 261.0 217.8 261.0 209.75 273.0 258.3 273.0 264.0 261.0 294.25 261.0 294.25 273.0 258.3 273.0 251.2 288.0 293.7 288.0 289.75 307.5 294.25 307.5 294.25 325.95 336.9 325.95 336.7 335.95 384.7 335.95 378.4 307.0 422.6 307.0 435.7 335.95 384.7 335.95 392.05 369.95 451.05 369.95 435.7 335.95 496.15 335.95 489.4 325.95 500.2 325.95 500.2 307.0 531.8 307.0 560.5 335.95 496.15 335.95 519.1 369.95 451.05 369.95 466.45 403.95 399.45 403.95 392.05 369.95 336.1 369.95 336.7 335.95 281.55 335.95 271.9 369.95 336.1 369.95 335.5 403.95 399.45 403.95 408.15 443.95 484.55 443.95 466.45 403.95 542.0 403.95 519.1 369.95 594.15 369.95 560.5 335.95 636.15 335.95 640.5 339.05 640.5 369.95 594.15 369.95 627.85 403.95 640.5 403.95 640.5 416.75 627.85 403.95 542.0 403.95 569.0 443.95 484.55 443.95 500.85 480.0 415.95 480.0 408.15 443.95 334.8 443.95 334.15 480.0 240.55 480.0 250.8 443.95 334.8 443.95 335.5 403.95 262.2 403.95 250.8 443.95 177.25 443.95 160.15 480.0 71.5 480.0 95.6 443.95 5.3 443.95 0.5 449.4 0.5 443.95 5.3 443.95 40.8 403.95 0.5 403.95 0.5 369.95 70.95 369.95 101.15 335.95 28.05 335.95 0.5 361.75 0.5 335.95 28.05 335.95 59.0 307.0 38.5 307.0 M192.25 253.0 L192.25 247.0 227.1 247.0 223.1 253.0 192.25 253.0 M294.25 247.0 L294.25 253.0 267.8 253.0 264.0 261.0 217.8 261.0 223.1 253.0 267.8 253.0 270.65 247.0 294.25 247.0 M346.5 307.0 L346.5 288.0 374.3 288.0 378.4 307.0 346.5 307.0 M346.5 273.0 L346.5 261.0 368.45 261.0 366.7 253.0 398.15 253.0 401.8 261.0 368.45 261.0 371.05 273.0 346.5 273.0 M346.5 253.0 L346.5 247.0 365.4 247.0 366.7 253.0 346.5 253.0 M448.25 252.5 L448.25 260.5 445.35 260.5 445.3 260.5 445.35 260.5 448.25 265.0 448.25 273.0 407.2 273.0 414.0 288.0 448.25 288.0 448.25 307.0 422.6 307.0 414.0 288.0 374.3 288.0 371.05 273.0 407.2 273.0 401.8 261.0 445.65 261.0 445.3 260.5 440.25 253.0 398.15 253.0 395.45 247.0 437.15 247.0 440.5 252.5 448.25 252.5 M500.2 288.0 L500.2 275.1 513.0 288.0 500.2 288.0 M500.2 273.0 L500.2 261.0 547.6 261.0 538.0 253.0 500.2 253.0 500.2 247.0 530.85 247.0 538.0 253.0 587.7 253.0 601.25 261.0 547.6 261.0 561.95 273.0 500.2 273.0 M602.45 247.0 L602.45 252.5 587.95 252.5 579.25 247.0 602.45 247.0 M602.45 273.0 L602.45 288.0 579.95 288.0 561.95 273.0 602.45 273.0 M602.45 306.8 L602.45 307.0 531.8 307.0 513.0 288.0 579.95 288.0 602.45 306.8 M625.35 325.95 L640.5 325.95 640.5 335.0 636.2 335.0 625.35 325.95 M70.95 369.95 L40.8 403.95 122.3 403.95 145.0 369.95 70.95 369.95 M212.35 369.95 L196.2 403.95 262.2 403.95 271.9 369.95 212.35 369.95 M196.2 403.95 L122.3 403.95 95.6 443.95 177.25 443.95 196.2 403.95 M640.5 443.95 L640.5 480.0 593.3 480.0 569.0 443.95 640.5 443.95" fill="#30552b" fill-rule="evenodd" stroke="none"/>
    <path d="M613.7 196.0 L613.45 138.0 489.25 138.0 489.25 196.0 460.15 196.0 460.2 162.75 459.5 138.0 335.75 138.0 335.75 196.0 305.25 196.0 305.25 138.0 181.5 138.0 181.5 196.0 151.5 196.0 151.5 138.0 27.5 138.0 27.5 196.0 0.2 196.0 0.5 0.0 641.95 0.0 641.95 196.0 613.7 196.0 M489.25 257.0 L489.25 313.75 459.5 313.75 460.0 310.95 460.1 257.0 489.25 257.0 M335.75 257.0 L335.75 313.75 305.25 313.75 305.25 257.0 335.75 257.0 M181.5 257.0 L181.5 313.75 151.5 313.75 151.5 257.0 181.5 257.0 M27.5 257.0 L27.5 313.75 0.3 313.75 0.5 313.7 0.0 313.75 0.1 257.0 27.5 257.0 M641.7 313.75 L613.45 313.75 613.55 257.0 641.95 257.0 641.95 296.75 641.7 296.75 641.7 313.75" fill="#589d4f" fill-rule="evenodd" stroke="none"/>
    <path d="M489.25 196.0 L489.25 257.0 460.1 257.0 460.15 196.0 489.25 196.0 M335.75 196.0 L335.75 257.0 305.25 257.0 305.25 196.0 335.75 196.0 M181.5 196.0 L181.5 257.0 151.5 257.0 151.5 196.0 181.5 196.0 M27.5 196.0 L27.5 257.0 0.1 257.0 0.2 196.0 27.5 196.0 M613.55 257.0 L613.7 196.0 641.95 196.0 641.95 257.0 613.55 257.0" fill="#508d47" fill-rule="evenodd" stroke="none"/>
    <path d="M0.5 325.95 L38.5 325.95 38.5 307.0 59.0 307.0 28.05 335.95 0.5 335.95 0.5 325.95 M38.5 288.0 L38.5 273.0 95.35 273.0 79.35 288.0 38.5 288.0 M38.5 272.6 L38.5 261.0 53.0 261.0 38.5 272.6 M38.5 253.0 L38.5 247.0 70.5 247.0 63.0 253.0 38.5 253.0 M140.25 247.0 L140.25 253.0 116.75 253.0 108.2 261.0 140.25 261.0 140.25 273.0 95.35 273.0 108.2 261.0 53.0 261.0 63.0 253.0 116.75 253.0 123.15 247.0 140.25 247.0 M140.25 288.0 L140.25 291.85 126.8 307.0 140.25 307.0 140.25 325.95 174.4 325.95 167.75 335.95 101.15 335.95 126.8 307.0 59.0 307.0 79.35 288.0 140.25 288.0 M192.25 307.0 L192.25 299.2 199.75 288.0 251.2 288.0 242.2 307.0 289.8 307.0 281.55 335.95 228.45 335.95 212.35 369.95 145.0 369.95 167.75 335.95 228.45 335.95 242.2 307.0 192.25 307.0 M192.25 288.0 L192.25 273.0 209.75 273.0 199.75 288.0 192.25 288.0 M192.25 261.0 L192.25 253.0 223.1 253.0 227.1 247.0 270.65 247.0 267.8 253.0 223.1 253.0 217.8 261.0 264.0 261.0 267.8 253.0 294.25 253.0 294.25 261.0 264.0 261.0 258.3 273.0 294.25 273.0 294.25 307.5 289.75 307.5 293.7 288.0 251.2 288.0 258.3 273.0 209.75 273.0 217.8 261.0 192.25 261.0 M336.9 325.95 L346.5 325.95 346.5 307.0 378.4 307.0 374.3 288.0 346.5 288.0 346.5 273.0 371.05 273.0 368.45 261.0 401.8 261.0 398.15 253.0 366.7 253.0 368.45 261.0 346.5 261.0 346.5 253.0 366.7 253.0 365.4 247.0 395.45 247.0 398.15 253.0 440.25 253.0 445.3 260.5 445.65 261.0 401.8 261.0 407.2 273.0 371.05 273.0 374.3 288.0 414.0 288.0 422.6 307.0 448.25 307.0 448.25 325.95 489.4 325.95 496.15 335.95 435.7 335.95 451.05 369.95 392.05 369.95 384.7 335.95 435.7 335.95 422.6 307.0 378.4 307.0 384.7 335.95 336.7 335.95 336.9 325.95 M448.25 247.0 L448.25 252.5 440.5 252.5 437.15 247.0 448.25 247.0 M448.25 260.5 L448.25 265.0 445.35 260.5 448.25 260.5 M448.25 273.0 L448.25 288.0 414.0 288.0 407.2 273.0 448.25 273.0 M500.2 307.0 L500.2 288.0 513.0 288.0 500.2 275.1 500.2 273.0 561.95 273.0 547.6 261.0 601.25 261.0 587.7 253.0 538.0 253.0 530.85 247.0 579.25 247.0 587.95 252.5 602.45 252.5 602.45 273.0 561.95 273.0 579.95 288.0 602.45 288.0 602.45 306.8 579.95 288.0 513.0 288.0 531.8 307.0 602.45 307.0 602.45 325.95 625.35 325.95 636.2 335.0 640.5 335.0 640.5 339.05 636.15 335.95 560.5 335.95 531.8 307.0 500.2 307.0 M500.2 261.0 L500.2 253.0 538.0 253.0 547.6 261.0 500.2 261.0 M336.7 335.95 L336.1 369.95 392.05 369.95 399.45 403.95 466.45 403.95 451.05 369.95 519.1 369.95 496.15 335.95 560.5 335.95 594.15 369.95 519.1 369.95 542.0 403.95 466.45 403.95 484.55 443.95 408.15 443.95 399.45 403.95 335.5 403.95 336.1 369.95 271.9 369.95 281.55 335.95 336.7 335.95 M640.5 403.95 L627.85 403.95 594.15 369.95 640.5 369.95 640.5 403.95 M0.5 369.95 L0.5 361.75 28.05 335.95 101.15 335.95 70.95 369.95 0.5 369.95 M70.95 369.95 L145.0 369.95 122.3 403.95 40.8 403.95 70.95 369.95 M212.35 369.95 L271.9 369.95 262.2 403.95 196.2 403.95 212.35 369.95 M250.8 443.95 L262.2 403.95 335.5 403.95 334.8 443.95 250.8 443.95 240.55 480.0 160.15 480.0 177.25 443.95 250.8 443.95 M334.15 480.0 L334.8 443.95 408.15 443.95 415.95 480.0 334.15 480.0 M500.85 480.0 L484.55 443.95 569.0 443.95 542.0 403.95 627.85 403.95 640.5 416.75 640.5 443.95 569.0 443.95 593.3 480.0 500.85 480.0 M196.2 403.95 L177.25 443.95 95.6 443.95 122.3 403.95 196.2 403.95 M0.5 403.95 L40.8 403.95 5.3 443.95 0.5 443.95 0.5 403.95 M0.5 449.4 L5.3 443.95 95.6 443.95 71.5 480.0 0.5 480.0 0.5 449.4" fill="#233d1f" fill-rule="evenodd" stroke="none"/>
    <path d="M38.5 247.0 L38.5 149.75 140.25 149.75 140.25 247.0 123.15 247.0 70.5 247.0 38.5 247.0 M192.25 247.0 L192.25 149.75 294.25 149.75 294.25 247.0 270.65 247.0 227.1 247.0 192.25 247.0 M346.5 247.0 L346.5 149.75 448.25 149.75 448.25 247.0 437.15 247.0 395.45 247.0 365.4 247.0 346.5 247.0 M500.2 247.0 L500.2 149.75 602.45 149.75 602.45 247.0 579.25 247.0 530.85 247.0 500.2 247.0" fill="#1c3018" fill-rule="evenodd" stroke="none"/>
    <path d="M445.3 260.5 L445.35 260.5" fill="none" stroke="#ff0000" stroke-linecap="round" stroke-linejoin="round" stroke-width="1.0"/>
  </g>
</svg>
