<?xml version="1.0" encoding="UTF-8" standalone="no"?>
<svg xmlns:ffdec="https://www.free-decompiler.com/flash" xmlns:xlink="http://www.w3.org/1999/xlink" ffdec:objectType="shape" height="480.0px" width="641.95px" xmlns="http://www.w3.org/2000/svg">
  <g transform="matrix(1.0, 0.0, 0.0, 1.0, 0.0, 0.0)">
    <path d="M489.25 196.0 L489.25 313.75 459.5 313.75 460.0 310.95 460.15 196.0 489.25 196.0 M335.75 196.0 L335.75 313.75 305.25 313.75 305.25 196.0 335.75 196.0 M181.5 196.0 L181.5 313.75 151.5 313.75 151.5 196.0 181.5 196.0 M27.5 196.0 L27.5 313.75 0.3 313.75 0.5 313.7 0.0 313.75 0.2 196.0 27.5 196.0 M641.7 313.75 L613.45 313.75 613.7 196.0 641.95 196.0 641.95 296.75 641.7 296.75 641.7 313.75" fill="#346b98" fill-rule="evenodd" stroke="none"/>
    <path d="M613.7 196.0 L613.45 138.0 489.25 138.0 489.25 196.0 460.15 196.0 460.2 162.75 459.5 138.0 335.75 138.0 335.75 196.0 305.25 196.0 305.25 138.0 181.5 138.0 181.5 196.0 151.5 196.0 151.5 138.0 27.5 138.0 27.5 196.0 0.2 196.0 0.5 0.0 641.95 0.0 641.95 196.0 613.7 196.0" fill="#5593c6" fill-rule="evenodd" stroke="none"/>
    <path d="M489.25 196.0 L489.25 138.0 613.45 138.0 613.7 196.0 613.45 313.75 641.7 313.75 641.7 325.95 640.5 325.95 602.45 325.95 602.45 149.75 500.2 149.75 500.2 325.95 448.25 325.95 448.25 149.75 346.5 149.75 346.5 325.95 294.25 325.95 294.25 149.75 192.25 149.75 192.25 325.95 140.25 325.95 140.25 149.75 38.5 149.75 38.5 325.95 0.5 325.95 0.3 313.75 27.5 313.75 27.5 196.0 27.5 138.0 151.5 138.0 151.5 196.0 151.5 313.75 181.5 313.75 181.5 196.0 181.5 138.0 305.25 138.0 305.25 196.0 305.25 313.75 335.75 313.75 335.75 196.0 335.75 138.0 459.5 138.0 460.2 162.75 460.15 196.0 460.0 310.95 459.5 313.75 489.25 313.75 489.25 196.0" fill="#dbe8f2" fill-rule="evenodd" stroke="none"/>
    <path d="M0.5 325.95 L38.5 325.95 38.5 149.75 140.25 149.75 140.25 325.95 192.25 325.95 192.25 149.75 294.25 149.75 294.25 325.95 346.5 325.95 346.5 149.75 448.25 149.75 448.25 325.95 500.2 325.95 500.2 149.75 602.45 149.75 602.45 325.95 640.5 325.95 640.5 480.0 0.5 480.0 0.5 325.95" fill="#183143" fill-rule="evenodd" stroke="none"/>
  </g>
</svg>
