<?xml version="1.0" encoding="UTF-8" standalone="no"?>
<svg xmlns:ffdec="https://www.free-decompiler.com/flash" xmlns:xlink="http://www.w3.org/1999/xlink" ffdec:objectType="shape" height="54.0px" width="99.0px" xmlns="http://www.w3.org/2000/svg">
  <g transform="matrix(1.0, 0.0, 0.0, 1.0, 2.0, 2.0)">
    <path d="M19.15 -1.5 L24.2 -2.0 70.75 -2.0 71.65 -1.95 Q79.65 -1.7 85.85 2.9 87.6 4.2 89.35 5.95 97.0 13.9 97.0 25.0 L96.8 28.6 Q95.7 37.5 89.35 44.15 L89.35 44.2 85.85 47.2 85.85 47.15 Q79.65 51.7 71.7 52.0 L71.6 52.0 70.75 52.0 24.2 52.0 19.2 51.6 Q13.15 50.45 8.2 46.45 L5.75 44.15 5.7 44.15 Q-0.7 37.5 -1.75 28.6 L-2.0 25.0 Q-2.0 13.9 5.7 6.0 L5.75 5.95 8.2 3.65 8.2 3.6 Q13.15 -0.4 19.2 -1.5 L19.15 -1.5" fill="#76a9f9" fill-rule="evenodd" stroke="none"/>
    <path d="M84.65 4.5 L87.9 7.35 Q95.0 14.7 95.0 25.0 L94.8 28.35 Q93.8 36.6 87.9 42.75 L84.65 45.55 Q78.95 49.75 71.6 50.0 L70.75 50.0 24.2 50.0 19.55 49.6 Q14.0 48.55 9.45 44.9 L7.15 42.75 Q1.2 36.6 0.2 28.35 L0.0 25.0 Q0.0 14.7 7.15 7.35 L9.45 5.15 Q14.0 1.5 19.55 0.45 L24.2 0.0 70.75 0.0 71.6 0.05 Q78.95 0.25 84.65 4.5 M84.65 43.75 L86.9 41.7 Q92.45 35.9 93.35 28.15 L93.55 25.0 Q93.55 15.25 86.9 8.4 L84.65 6.3 Q79.0 1.75 71.6 1.55 L70.75 1.5 24.2 1.5 19.55 1.95 Q13.95 3.1 9.45 7.1 L8.15 8.4 Q1.45 15.25 1.45 25.0 L1.65 28.15 Q2.55 35.9 8.15 41.7 L9.45 42.95 Q13.95 46.9 19.55 48.05 L24.2 48.5 70.75 48.5 71.6 48.5 Q79.0 48.25 84.65 43.75" fill="#000000" fill-rule="evenodd" stroke="none"/>
    <path d="M84.65 6.3 L86.9 8.4 Q93.55 15.25 93.55 25.0 L93.35 28.15 Q92.45 35.9 86.9 41.7 L84.65 43.75 84.65 6.3 M9.45 42.95 L8.15 41.7 Q2.55 35.9 1.65 28.15 L1.45 25.0 Q1.45 15.25 8.15 8.4 L9.45 7.1 9.45 42.95" fill="#3c3c3c" fill-rule="evenodd" stroke="none"/>
    <path d="M84.65 43.75 Q79.0 48.25 71.6 48.5 L71.6 1.55 Q79.0 1.75 84.65 6.3 L84.65 43.75 M19.55 48.05 Q13.95 46.9 9.45 42.95 L9.45 7.1 Q13.95 3.1 19.55 1.95 L19.55 48.05" fill="#555555" fill-rule="evenodd" stroke="none"/>
    <path d="M71.6 48.5 L70.75 48.5 24.2 48.5 19.55 48.05 19.55 1.95 24.2 1.5 70.75 1.5 71.6 1.55 71.6 48.5" fill="#666666" fill-rule="evenodd" stroke="none"/>
    <path d="M55.75 33.95 L59.3 35.55 59.45 35.65 60.1 35.95 Q67.05 32.7 75.2 29.55 L75.3 29.5 76.4 29.15 Q80.15 27.85 83.6 28.3 L84.25 27.75 85.95 25.9 86.0 25.9 86.1 25.8 87.1 24.1 Q88.0 21.95 87.35 19.95 86.35 17.05 82.65 16.1 L82.6 16.1 Q79.15 15.15 75.35 16.25 L74.95 16.35 74.9 16.35 74.0 16.6 73.85 16.65 72.75 17.05 71.1 17.65 67.85 18.85 Q65.4 19.7 63.15 20.65 60.85 21.5 58.7 22.45 L55.8 23.7 53.4 24.8 Q48.65 26.95 44.55 29.2 48.35 30.7 52.35 32.45 L53.7 33.0 54.55 33.4 55.75 33.95 M2.25 18.75 L2.8 16.85 5.6 18.65 12.25 12.9 12.35 12.8 13.2 12.15 Q17.1 9.2 21.35 8.85 26.3 8.25 28.9 11.45 L29.7 12.6 33.65 12.2 33.7 12.2 34.75 12.3 34.9 12.3 52.35 13.95 Q50.15 9.95 51.7 8.2 54.15 4.65 67.6 11.8 L73.0 14.85 73.2 14.75 73.35 14.7 74.4 14.4 Q79.0 13.0 83.15 14.2 88.0 15.4 89.25 19.3 90.35 22.2 88.75 25.3 L93.3 28.65 92.9 30.85 87.7 27.0 87.6 27.1 86.05 28.85 88.1 29.65 89.2 30.35 Q90.7 31.55 91.4 33.45 L91.75 34.45 Q90.7 36.9 89.05 39.15 L89.4 38.45 Q89.9 37.2 89.9 36.0 L89.55 34.2 88.75 32.8 87.95 32.0 87.2 31.5 85.7 30.85 84.65 30.55 84.6 30.55 84.1 30.45 80.1 30.3 77.0 31.0 76.95 31.05 76.05 31.35 75.95 31.4 71.4 33.2 Q66.55 35.15 62.15 37.15 L64.8 39.35 Q66.0 40.6 66.9 42.1 L68.05 44.6 Q68.7 46.65 68.3 48.5 L66.2 48.5 Q66.5 47.5 66.4 46.4 L66.1 45.0 65.15 43.15 65.1 43.1 63.4 40.8 Q61.95 39.3 60.0 38.15 L59.5 37.9 59.45 37.9 58.6 37.45 58.45 37.35 57.75 37.0 54.4 35.5 45.7 31.8 42.25 30.45 39.75 29.55 31.15 26.65 29.4 26.15 27.6 25.65 23.8 24.7 21.15 24.1 17.45 23.6 14.7 23.8 Q13.95 24.05 13.65 24.55 L13.6 24.9 Q13.25 27.6 23.35 34.7 L25.5 36.2 30.9 39.65 34.5 41.8 35.55 42.4 41.8 45.8 43.85 46.9 46.75 48.35 47.05 48.5 42.65 48.5 41.95 48.15 41.4 48.5 38.1 48.5 Q38.9 47.8 39.95 47.1 L38.55 46.35 37.15 45.6 35.7 44.8 33.6 43.6 31.05 42.1 32.65 43.85 33.95 45.3 34.0 45.4 34.05 45.45 34.7 46.3 35.45 47.3 36.25 48.5 33.9 48.5 33.45 47.95 33.15 47.55 33.1 47.5 32.5 46.75 32.45 46.65 31.55 45.65 29.15 43.0 27.8 41.5 24.2 37.75 22.2 36.35 Q12.85 29.75 11.7 25.95 L10.4 24.85 8.8 23.55 8.05 22.95 5.75 21.2 4.1 20.0 2.25 18.75 M84.85 43.6 L84.65 43.75 Q79.55 47.85 73.0 48.45 L81.3 45.4 81.4 45.35 82.35 44.95 82.4 44.95 83.0 44.65 84.85 43.6 M64.9 16.1 L67.7 16.75 70.5 15.7 66.65 13.6 Q55.15 7.4 53.3 9.4 52.45 10.7 54.75 14.3 L57.05 14.65 64.9 16.1 M61.25 19.25 L64.25 18.05 62.35 17.65 59.3 17.05 56.4 16.6 53.7 16.2 34.8 14.3 34.65 14.3 33.65 14.25 33.6 14.2 30.45 14.5 28.45 15.05 Q27.3 15.5 26.25 16.1 L26.2 16.1 25.3 16.7 Q23.3 18.15 22.8 20.15 L22.75 20.35 22.65 21.05 22.65 21.1 22.75 22.4 27.5 23.55 28.15 23.7 32.7 25.05 35.25 25.85 36.75 26.35 38.65 27.0 40.2 27.6 42.05 28.25 42.5 28.0 44.35 27.0 Q49.2 24.4 54.85 21.9 L55.45 21.65 Q58.25 20.4 61.25 19.25 M26.0 13.95 Q26.8 13.5 27.7 13.2 L27.35 12.7 Q25.35 10.4 21.55 10.8 L21.5 10.85 Q17.85 11.15 14.45 13.75 L14.4 13.75 13.6 14.35 13.5 14.45 7.3 19.85 10.05 22.0 10.7 22.55 11.95 23.55 12.25 23.05 Q12.75 22.45 13.7 22.1 L17.45 21.7 20.65 22.05 20.65 21.7 20.65 20.9 Q20.75 18.95 21.85 17.35 L22.45 16.55 Q23.1 15.8 23.95 15.2 L25.2 14.35 25.45 14.2 26.0 13.95 M2.45 32.05 L3.75 34.1 6.75 38.45 7.95 40.1 11.05 44.25 9.45 42.95 8.15 41.7 Q4.0 37.4 2.45 32.05" fill="#d25900" fill-rule="evenodd" stroke="none"/>
    <path d="M52.35 32.45 Q48.35 30.7 44.55 29.2 48.65 26.95 53.4 24.8 L55.8 23.7 58.7 22.45 Q60.85 21.5 63.15 20.65 65.4 19.7 67.85 18.85 L71.1 17.65 72.75 17.05 73.85 16.65 74.0 16.6 74.9 16.35 74.95 16.35 75.35 16.25 Q79.15 15.15 82.6 16.1 L82.65 16.1 Q86.35 17.05 87.35 19.95 88.0 21.95 87.1 24.1 L86.1 25.8 86.0 25.9 85.95 25.9 84.25 27.75 83.6 28.3 Q80.15 27.85 76.4 29.15 L75.3 29.5 75.2 29.55 Q67.05 32.7 60.1 35.95 L59.45 35.65 59.3 35.55 55.75 33.95 55.9 33.7 55.9 33.65 Q56.85 31.8 57.15 31.5 L57.2 31.4 57.6 31.45 58.2 31.75 58.85 32.15 Q59.55 32.6 60.15 32.7 L61.1 32.7 61.15 32.65 62.5 31.25 62.55 31.15 64.2 29.05 64.25 28.95 64.75 29.0 Q65.35 29.2 66.15 30.25 L66.6 30.8 Q66.9 31.05 67.15 31.15 L67.25 31.2 67.8 31.1 68.7 30.65 69.45 29.0 71.4 29.8 73.05 29.7 Q73.85 29.4 74.1 27.65 L74.15 27.15 Q74.45 24.9 75.2 24.65 L76.4 25.2 Q76.4 25.45 77.0 25.5 L77.1 25.55 78.75 26.2 79.75 26.2 80.2 25.95 80.4 25.25 Q81.05 25.9 81.9 26.1 L81.95 26.1 Q82.75 26.35 83.4 26.1 84.3 25.8 84.35 24.55 L83.8 22.1 83.65 21.65 Q82.85 19.9 80.85 18.6 78.7 17.25 77.7 17.65 L77.65 17.7 Q77.3 17.9 76.85 19.15 L76.35 20.9 72.95 20.25 72.55 20.3 Q71.75 20.55 71.6 21.7 L71.55 22.4 71.55 22.5 71.45 23.4 71.05 24.3 70.25 24.9 70.1 24.75 69.05 23.7 68.55 23.35 Q68.2 23.1 67.9 23.0 L66.9 22.7 66.8 22.7 64.55 22.75 63.55 22.95 Q63.0 23.1 62.4 24.35 L62.3 24.6 61.75 25.45 61.6 25.6 60.55 25.55 Q60.0 25.75 59.85 27.05 L59.8 27.4 Q59.7 29.0 59.1 29.25 L57.15 28.05 Q55.2 26.85 54.3 27.2 53.6 27.4 53.55 28.05 L53.4 29.65 53.2 30.3 52.7 31.65 52.35 32.45 M84.85 19.6 L84.55 19.85 Q84.35 20.05 84.45 20.35 L85.5 20.7 85.8 20.5 Q85.75 19.9 85.35 19.7 L84.85 19.6 M2.25 18.75 L4.1 20.0 5.75 21.2 8.05 22.95 8.8 23.55 10.4 24.85 11.7 25.95 Q12.85 29.75 22.2 36.35 L24.2 37.75 27.8 41.5 29.15 43.0 31.55 45.65 32.45 46.65 32.5 46.75 33.1 47.5 33.15 47.55 33.45 47.95 33.9 48.5 29.15 48.5 28.75 47.2 28.55 46.85 26.25 46.75 Q24.9 47.3 23.9 46.75 L23.4 46.4 24.05 44.85 24.3 43.9 Q24.4 43.1 24.15 42.45 23.4 40.3 22.75 39.55 22.35 39.1 20.95 38.9 L19.45 38.7 19.15 37.75 17.2 37.7 15.2 37.75 15.55 35.55 15.7 34.5 Q15.75 33.05 15.3 32.55 L15.1 32.35 14.2 32.2 12.0 32.7 10.85 32.75 8.8 32.65 8.7 32.55 9.1 30.2 9.2 29.25 Q9.2 28.0 8.75 27.2 L8.4 26.65 7.95 26.3 7.75 26.3 7.05 26.8 6.75 26.75 6.6 25.9 Q6.5 25.1 6.1 24.6 L5.85 24.4 5.45 24.05 4.3 23.95 Q3.7 24.2 3.15 23.95 L2.9 23.85 2.3 23.4 1.6 22.45 Q1.75 20.5 2.25 18.75 M36.25 48.5 L35.45 47.3 35.95 47.4 37.5 47.7 37.95 47.25 38.3 46.25 38.55 46.35 39.95 47.1 Q38.9 47.8 38.1 48.5 L36.25 48.5 M32.65 43.85 L31.05 42.1 33.6 43.6 33.0 43.7 32.65 43.85 M41.4 48.5 L41.95 48.15 42.65 48.5 41.4 48.5 M47.05 48.5 L46.75 48.35 43.85 46.9 41.8 45.8 35.55 42.4 34.5 41.8 30.9 39.65 25.5 36.2 23.35 34.7 Q13.25 27.6 13.6 24.9 L13.65 24.55 Q13.95 24.05 14.7 23.8 L17.45 23.6 21.15 24.1 23.8 24.7 27.6 25.65 29.4 26.15 31.15 26.65 39.75 29.55 42.25 30.45 45.7 31.8 54.4 35.5 57.75 37.0 58.45 37.35 58.6 37.45 59.45 37.9 59.5 37.9 60.0 38.15 Q61.95 39.3 63.4 40.8 L65.1 43.1 65.15 43.15 66.1 45.0 66.4 46.4 Q66.5 47.5 66.2 48.5 L64.35 48.5 61.75 48.5 61.85 48.25 62.1 47.7 Q62.65 46.0 62.15 43.8 L62.1 43.65 Q61.55 41.25 60.55 40.8 60.2 40.65 58.9 41.3 57.95 41.75 57.3 42.2 L56.0 40.1 55.05 39.1 Q54.1 38.65 52.85 39.9 51.65 41.2 50.2 40.9 L50.15 40.85 50.15 40.65 50.1 39.1 50.05 38.7 Q49.9 37.5 49.2 36.85 L48.5 36.15 47.1 34.95 46.7 34.7 Q46.2 34.45 44.9 34.95 L44.05 35.2 43.45 35.3 42.8 34.5 42.1 34.55 Q41.6 34.7 40.95 35.35 L40.15 35.95 39.2 36.2 39.1 36.15 38.6 33.95 38.25 32.9 Q37.75 31.6 37.15 31.3 L36.1 31.4 36.0 31.45 34.2 32.8 Q31.5 34.1 31.1 33.9 L30.5 31.65 30.2 30.75 Q29.55 29.2 28.5 28.7 L27.95 28.5 Q27.6 28.55 27.25 29.35 L27.0 29.4 26.55 28.7 Q26.1 28.0 25.55 27.75 L24.75 27.45 Q24.1 27.4 23.65 27.8 23.2 28.25 22.5 28.3 L21.55 28.1 20.95 27.8 19.95 27.25 18.2 26.95 Q17.7 28.25 18.95 29.35 L20.8 30.5 20.85 30.55 22.45 31.0 23.3 31.25 23.75 31.3 Q24.05 31.15 24.1 31.15 L25.1 32.55 26.0 33.75 26.65 33.75 27.55 33.25 Q28.9 36.5 29.7 36.9 L30.9 37.3 33.1 37.2 33.8 37.05 36.25 36.4 Q36.6 36.55 36.95 38.1 37.35 39.6 38.25 40.0 L43.05 39.55 43.3 39.75 Q43.7 40.25 43.5 41.7 L43.45 41.8 43.45 41.9 Q43.35 42.75 43.55 43.1 L44.1 43.55 44.7 43.8 44.95 43.85 45.05 43.85 46.7 43.25 47.45 44.7 47.6 45.15 Q48.05 45.8 48.85 46.15 49.7 46.55 51.4 45.15 L51.45 45.15 Q52.45 44.3 53.1 44.1 L53.85 44.05 54.65 46.05 55.2 47.4 Q55.55 48.1 56.05 48.35 L56.35 48.45 56.45 48.5 47.05 48.5 M68.3 48.5 Q68.7 46.65 68.05 44.6 L68.7 45.3 Q69.3 46.0 69.7 46.15 L70.35 46.0 71.3 45.6 71.95 43.9 73.95 44.65 75.55 44.45 Q76.45 44.1 76.65 41.9 76.75 40.5 77.05 39.85 L77.5 39.3 79.5 40.15 81.3 40.8 82.15 40.7 82.65 40.5 82.8 39.7 84.4 40.6 85.8 40.5 Q87.1 40.0 86.4 37.55 L86.05 36.5 85.25 35.05 84.45 34.2 83.85 33.7 82.95 33.1 Q81.7 32.35 80.8 32.2 L79.75 32.25 79.45 32.7 79.05 33.8 78.8 34.7 78.55 35.6 74.75 35.1 74.6 35.15 Q73.8 35.55 73.85 37.15 L73.85 37.2 Q73.9 38.3 73.45 39.0 L72.6 39.75 72.55 39.7 71.35 38.6 Q70.2 37.65 69.1 37.65 L65.85 38.05 Q65.35 38.25 64.8 39.35 L62.15 37.15 Q66.55 35.15 71.4 33.2 L75.95 31.4 76.05 31.35 76.95 31.05 77.0 31.0 80.1 30.3 84.1 30.45 84.6 30.55 84.65 30.55 85.7 30.85 87.2 31.5 87.95 32.0 88.75 32.8 89.55 34.2 89.9 36.0 Q89.9 37.2 89.4 38.45 L89.05 39.15 86.9 41.7 84.85 43.6 83.0 44.65 82.4 44.95 82.35 44.95 81.4 45.35 81.3 45.4 73.0 48.45 71.6 48.5 70.75 48.5 68.3 48.5 M91.75 34.45 L91.4 33.45 Q90.7 31.55 89.2 30.35 L88.85 29.7 88.1 29.65 86.05 28.85 87.6 27.1 87.7 27.0 92.9 30.85 91.75 34.45 M87.5 34.0 L87.0 33.95 Q86.85 34.0 86.75 34.15 L86.7 34.75 87.7 35.05 88.0 34.85 Q87.9 34.25 87.5 34.0 M57.05 14.65 L54.75 14.3 Q52.45 10.7 53.3 9.4 55.15 7.4 66.65 13.6 L70.5 15.7 67.7 16.75 64.9 16.1 64.2 15.2 63.5 14.75 62.3 14.85 61.15 15.0 60.25 14.65 58.85 13.45 Q58.0 12.85 57.2 12.8 56.6 13.65 57.05 14.65 M27.5 23.55 L22.75 22.4 22.65 21.1 22.65 21.05 22.75 20.35 22.8 20.15 Q23.3 18.15 25.3 16.7 L26.2 16.1 26.25 16.1 Q27.3 15.5 28.45 15.05 L30.45 14.5 33.6 14.2 33.65 14.25 34.65 14.3 34.8 14.3 53.7 16.2 56.4 16.6 59.3 17.05 62.35 17.65 64.25 18.05 61.25 19.25 60.8 19.1 58.7 19.45 Q57.85 19.8 57.0 20.45 L55.45 21.65 54.85 21.9 53.7 20.6 Q52.75 19.4 51.75 19.35 51.4 19.3 47.45 21.5 46.7 21.45 46.2 19.6 L45.65 18.4 45.0 18.25 44.0 18.25 42.7 19.5 41.15 18.05 Q40.45 17.6 39.6 17.55 38.65 17.5 37.6 19.45 36.45 21.35 35.7 21.35 L34.25 19.75 Q33.0 18.25 32.1 18.2 L31.6 18.2 31.1 18.85 30.45 17.8 30.05 17.4 Q29.35 16.9 28.7 16.9 L28.55 16.9 Q27.0 16.95 26.8 20.4 L26.9 21.75 Q27.05 22.6 27.5 23.55 M44.35 27.0 L42.5 28.0 42.05 28.25 40.2 27.6 40.3 27.0 Q40.4 25.55 39.6 25.5 38.55 25.4 38.6 26.65 L38.65 27.0 36.75 26.35 Q37.6 26.2 38.15 24.8 38.85 23.1 40.4 22.95 L41.05 24.55 Q41.7 25.9 42.7 26.3 L44.35 27.0 M35.25 25.85 L32.7 25.05 33.2 24.35 35.25 25.85 M70.45 20.85 Q69.9 19.65 69.1 19.9 68.45 20.15 68.8 21.2 L69.15 21.95 Q69.5 22.45 70.0 22.3 70.55 22.1 70.65 21.7 L70.45 20.85 M50.2 17.5 L48.5 17.7 Q47.3 18.3 47.7 19.0 48.0 19.55 48.6 19.6 L49.6 19.35 Q50.6 18.95 50.7 18.0 50.7 17.5 50.2 17.5 M55.35 11.1 Q56.0 11.65 56.6 11.35 57.25 11.1 56.55 10.5 55.75 9.9 55.3 10.5 55.0 10.85 55.35 11.1 M51.2 29.7 L51.05 29.2 Q50.45 27.9 49.35 28.25 L48.9 28.4 Q48.55 28.7 48.85 29.5 L48.95 29.7 Q49.35 30.8 49.8 30.95 L50.4 30.9 Q51.35 30.55 51.2 29.7 M52.25 36.4 L51.7 37.1 Q51.3 37.95 51.5 38.4 L51.8 38.75 Q52.75 39.2 53.15 38.05 53.55 36.75 52.8 36.4 L52.75 36.4 52.25 36.4 M64.35 48.5 Q64.75 48.0 64.6 47.6 L64.4 47.2 64.3 47.15 63.95 47.15 Q63.6 47.25 63.5 47.5 L63.65 47.85 64.0 48.45 64.35 48.5 M40.6 42.8 Q41.95 42.6 41.85 41.9 L41.85 41.85 Q41.8 41.2 41.25 40.9 L40.25 40.8 Q39.15 40.8 38.75 41.65 L38.75 42.05 39.0 42.3 40.6 42.8 M57.3 48.5 L56.65 48.5 57.25 48.15 57.3 48.5 M72.7 35.65 Q72.1 34.5 71.3 34.8 70.9 35.0 70.9 35.45 L71.0 36.1 Q71.35 36.95 71.75 37.2 L72.25 37.25 72.3 37.2 Q72.95 36.9 72.9 36.3 L72.7 35.65 M65.25 31.75 L65.0 31.45 Q64.5 31.0 63.95 31.2 L63.15 31.8 Q62.35 32.55 62.65 33.45 62.85 33.95 63.3 33.75 L64.8 32.9 Q65.45 32.15 65.25 31.75 M10.7 22.55 L10.05 22.0 7.3 19.85 13.5 14.45 13.6 14.35 14.4 13.75 14.45 13.75 Q17.85 11.15 21.5 10.85 L21.55 10.8 Q25.35 10.4 27.35 12.7 L27.7 13.2 Q26.8 13.5 26.0 13.95 L26.1 13.8 Q25.8 13.25 25.35 13.2 L24.8 13.3 24.65 13.6 24.8 14.15 25.45 14.2 25.2 14.35 23.95 15.2 Q22.7 14.2 20.75 13.8 L17.45 14.0 Q17.15 14.25 17.25 15.7 L17.35 17.55 Q14.2 17.8 13.6 18.3 12.8 19.0 13.45 20.6 L13.7 22.1 Q12.75 22.45 12.25 23.05 L11.55 22.75 10.7 22.55 M20.65 21.7 L20.65 22.05 17.45 21.7 17.6 21.45 19.75 21.6 20.65 21.7 M24.7 21.0 L24.35 21.1 Q24.15 21.7 24.45 22.05 24.6 22.3 24.85 22.3 L25.25 22.2 25.5 21.7 24.7 21.0 M1.5 26.1 L1.95 26.35 2.6 26.95 3.05 27.15 3.4 27.2 3.8 28.85 4.05 30.35 4.4 30.55 4.7 30.6 5.7 30.5 5.7 30.65 5.75 32.35 Q5.8 33.7 6.0 34.35 L6.2 34.7 Q7.35 36.0 9.65 36.4 L9.95 36.45 12.45 36.8 12.5 36.85 Q12.65 37.2 12.4 38.7 12.15 40.25 12.8 41.0 13.0 41.25 17.35 42.45 17.85 43.0 16.9 44.7 16.4 45.55 16.45 45.95 L16.75 46.55 17.5 47.25 19.25 47.25 19.3 48.0 Q14.8 47.0 11.05 44.25 L7.95 40.1 6.75 38.45 3.75 34.1 2.45 32.05 Q1.9 30.15 1.65 28.15 L1.5 26.1 M10.4 20.45 Q11.35 21.55 11.95 21.05 12.75 20.4 11.85 19.55 10.9 18.65 10.25 19.15 9.7 19.6 10.4 20.45 M12.35 28.4 L12.05 28.05 Q11.7 27.85 11.05 28.4 10.4 28.95 10.2 29.4 L10.0 29.8 10.35 30.35 Q11.2 31.3 12.1 30.35 L12.15 30.3 Q13.15 29.3 12.35 28.4 M17.05 24.9 Q16.1 24.5 15.8 25.2 15.6 25.6 16.0 25.75 L17.3 25.7 Q17.85 25.3 17.05 24.9 M14.35 42.5 L12.65 42.65 Q12.25 43.0 12.55 43.35 L13.95 44.45 Q15.2 44.8 15.4 44.05 15.6 43.45 15.2 43.0 L14.35 42.5 M32.8 28.65 L32.4 28.45 Q32.05 28.45 31.75 29.0 L31.6 29.25 Q31.0 30.45 31.25 30.9 L31.3 30.95 31.75 31.25 33.0 31.2 33.4 30.5 Q33.7 29.7 33.45 29.25 L32.8 28.65 M26.3 43.65 Q25.2 44.65 25.75 45.25 26.4 46.05 27.3 45.1 28.0 44.35 27.8 43.85 L27.6 43.5 Q27.15 42.95 26.3 43.65" fill="#f57e26" fill-rule="evenodd" stroke="none"/>
    <path d="M55.75 33.95 L54.55 33.4 Q55.3 32.95 55.7 31.55 L55.75 31.4 Q56.3 29.55 54.85 30.1 L54.0 30.8 53.6 31.6 Q53.4 32.2 53.6 32.8 L53.7 33.0 52.35 32.45 52.7 31.65 53.2 30.3 53.4 29.65 53.55 28.05 Q53.6 27.4 54.3 27.2 55.2 26.85 57.15 28.05 L59.1 29.25 Q59.7 29.0 59.8 27.4 L59.85 27.05 Q60.0 25.75 60.55 25.55 L61.6 25.6 61.75 25.45 62.3 24.6 62.4 24.35 Q63.0 23.1 63.55 22.95 L64.55 22.75 66.8 22.7 66.9 22.7 67.9 23.0 Q68.2 23.1 68.55 23.35 L69.05 23.7 70.1 24.75 70.25 24.9 71.05 24.3 71.45 23.4 71.55 22.5 71.55 22.4 71.6 21.7 Q71.75 20.55 72.55 20.3 L72.95 20.25 76.35 20.9 76.85 19.15 Q77.3 17.9 77.65 17.7 L77.7 17.65 Q78.7 17.25 80.85 18.6 82.85 19.9 83.65 21.65 L83.8 22.1 84.35 24.55 Q84.3 25.8 83.4 26.1 82.75 26.35 81.95 26.1 L81.9 26.1 Q81.05 25.9 80.4 25.25 L80.2 25.95 79.75 26.2 78.75 26.2 77.1 25.55 77.0 25.5 Q76.4 25.45 76.4 25.2 L75.2 24.65 Q74.45 24.9 74.15 27.15 L74.1 27.65 Q73.85 29.4 73.05 29.7 L71.4 29.8 69.45 29.0 68.7 30.65 67.8 31.1 67.25 31.2 67.15 31.15 Q66.9 31.05 66.6 30.8 L66.15 30.25 Q65.35 29.2 64.75 29.0 L64.25 28.95 64.2 29.05 62.55 31.15 62.5 31.25 61.15 32.65 61.1 32.7 60.15 32.7 Q59.55 32.6 58.85 32.15 L58.2 31.75 57.6 31.45 57.2 31.4 57.15 31.5 Q56.85 31.8 55.9 33.65 L55.9 33.7 55.75 33.95 M84.85 19.6 L85.35 19.7 Q85.75 19.9 85.8 20.5 L85.5 20.7 84.45 20.35 Q84.35 20.05 84.55 19.85 L84.85 19.6 M81.55 23.3 Q81.8 22.8 81.5 21.9 81.2 21.0 80.7 21.15 L80.4 21.3 Q80.2 21.5 80.35 21.95 L80.9 22.65 81.55 23.3 M35.45 47.3 L34.7 46.3 34.75 46.3 36.2 46.15 37.15 45.6 38.55 46.35 38.3 46.25 37.95 47.25 37.5 47.7 35.95 47.4 35.45 47.3 M34.05 45.45 L34.0 45.4 33.95 45.3 32.65 43.85 33.0 43.7 33.6 43.6 35.7 44.8 34.65 45.05 Q34.5 45.1 34.05 45.45 M68.05 44.6 L66.9 42.1 Q66.0 40.6 64.8 39.35 65.35 38.25 65.85 38.05 L69.1 37.65 Q70.2 37.65 71.35 38.6 L72.55 39.7 72.6 39.75 73.45 39.0 Q73.9 38.3 73.85 37.2 L73.85 37.15 Q73.8 35.55 74.6 35.15 L74.75 35.1 78.55 35.6 78.8 34.7 79.05 33.8 79.45 32.7 79.75 32.25 80.8 32.2 Q81.7 32.35 82.95 33.1 L83.85 33.7 84.45 34.2 85.25 35.05 86.05 36.5 86.4 37.55 Q87.1 40.0 85.8 40.5 L84.4 40.6 82.8 39.7 82.65 40.5 82.15 40.7 81.3 40.8 79.5 40.15 77.5 39.3 77.05 39.85 Q76.75 40.5 76.65 41.9 76.45 44.1 75.55 44.45 L73.95 44.65 71.95 43.9 71.3 45.6 70.35 46.0 69.7 46.15 Q69.3 46.0 68.7 45.3 L68.05 44.6 M89.2 30.35 L88.1 29.65 88.85 29.7 89.2 30.35 M82.9 35.65 L82.6 35.8 82.65 36.45 83.15 37.15 Q83.55 37.7 83.85 37.75 84.1 37.25 83.75 36.35 83.4 35.45 82.9 35.65 M87.5 34.0 Q87.9 34.25 88.0 34.85 L87.7 35.05 86.7 34.75 86.75 34.15 Q86.85 34.0 87.0 33.95 L87.5 34.0 M64.9 16.1 L57.05 14.65 Q56.6 13.65 57.2 12.8 58.0 12.85 58.85 13.45 L60.25 14.65 61.15 15.0 62.3 14.85 63.5 14.75 64.2 15.2 64.9 16.1 M61.25 19.25 Q58.25 20.4 55.45 21.65 L57.0 20.45 Q57.85 19.8 58.7 19.45 L60.8 19.1 61.25 19.25 M54.85 21.9 Q49.2 24.4 44.35 27.0 L42.7 26.3 Q41.7 25.9 41.05 24.55 L40.4 22.95 Q38.85 23.1 38.15 24.8 37.6 26.2 36.75 26.35 L35.25 25.85 33.2 24.35 32.7 25.05 28.15 23.7 27.5 23.55 Q27.05 22.6 26.9 21.75 L26.8 20.4 Q27.0 16.95 28.55 16.9 L28.7 16.9 Q29.35 16.9 30.05 17.4 L30.45 17.8 31.1 18.85 31.6 18.2 32.1 18.2 Q33.0 18.25 34.25 19.75 L35.7 21.35 Q36.45 21.35 37.6 19.45 38.65 17.5 39.6 17.55 40.45 17.6 41.15 18.05 L42.7 19.5 44.0 18.25 45.0 18.25 45.65 18.4 46.2 19.6 Q46.7 21.45 47.45 21.5 51.4 19.3 51.75 19.35 52.75 19.4 53.7 20.6 L54.85 21.9 M40.2 27.6 L38.65 27.0 38.6 26.65 Q38.55 25.4 39.6 25.5 40.4 25.55 40.3 27.0 L40.2 27.6 M70.45 20.85 L70.65 21.7 Q70.55 22.1 70.0 22.3 69.5 22.45 69.15 21.95 L68.8 21.2 Q68.45 20.15 69.1 19.9 69.9 19.65 70.45 20.85 M75.5 22.25 L75.1 22.4 Q74.75 22.55 74.85 22.9 L74.85 23.0 75.15 23.6 Q75.6 24.2 76.55 24.2 L77.9 23.9 Q79.05 23.5 77.9 22.7 76.75 21.8 75.5 22.25 M55.35 11.1 Q55.0 10.85 55.3 10.5 55.75 9.9 56.55 10.5 57.25 11.1 56.6 11.35 56.0 11.65 55.35 11.1 M50.2 17.5 Q50.7 17.5 50.7 18.0 50.6 18.95 49.6 19.35 L48.6 19.6 Q48.0 19.55 47.7 19.0 47.3 18.3 48.5 17.7 L50.2 17.5 M60.45 29.4 Q59.95 30.1 60.05 30.4 60.2 30.8 60.8 30.6 61.8 30.0 61.65 29.25 L61.6 29.2 Q61.4 28.65 60.95 28.8 L60.55 29.35 60.45 29.4 M50.0 22.3 Q50.0 22.9 50.5 22.95 L51.2 22.55 51.9 21.75 Q51.95 21.35 51.35 21.3 50.05 21.45 50.0 22.3 M41.9 20.55 L41.0 20.35 Q40.35 20.3 39.75 21.05 39.1 21.9 39.95 21.95 L40.8 21.75 Q42.05 21.8 43.1 23.55 44.2 25.25 45.1 25.3 L45.65 25.3 Q46.25 25.15 46.3 24.3 46.35 23.0 45.15 21.7 44.1 20.65 43.55 20.6 L42.6 20.8 41.9 20.55 M51.2 29.7 Q51.35 30.55 50.4 30.9 L49.8 30.95 Q49.35 30.8 48.95 29.7 L48.85 29.5 Q48.55 28.7 48.9 28.4 L49.35 28.25 Q50.45 27.9 51.05 29.2 L51.2 29.7 M52.25 36.4 L52.75 36.4 52.8 36.4 Q53.55 36.75 53.15 38.05 52.75 39.2 51.8 38.75 L51.5 38.4 Q51.3 37.95 51.7 37.1 L52.25 36.4 M56.45 48.5 L56.35 48.45 56.05 48.35 Q55.55 48.1 55.2 47.4 L54.65 46.05 53.85 44.05 53.1 44.1 Q52.45 44.3 51.45 45.15 L51.4 45.15 Q49.7 46.55 48.85 46.15 48.05 45.8 47.6 45.15 L47.45 44.7 46.7 43.25 45.05 43.85 44.95 43.85 44.7 43.8 44.1 43.55 43.55 43.1 Q43.35 42.75 43.45 41.9 L43.45 41.8 43.5 41.7 Q43.7 40.25 43.3 39.75 L43.05 39.55 38.25 40.0 Q37.35 39.6 36.95 38.1 36.6 36.55 36.25 36.4 L33.8 37.05 33.1 37.2 30.9 37.3 29.7 36.9 Q28.9 36.5 27.55 33.25 L26.65 33.75 26.0 33.75 25.1 32.55 24.1 31.15 Q24.05 31.15 23.75 31.3 L23.3 31.25 22.45 31.0 20.85 30.55 20.8 30.5 18.95 29.35 Q17.7 28.25 18.2 26.95 L19.95 27.25 20.95 27.8 21.55 28.1 22.5 28.3 Q23.2 28.25 23.65 27.8 24.1 27.4 24.75 27.45 L25.55 27.75 Q26.1 28.0 26.55 28.7 L27.0 29.4 27.25 29.35 Q27.6 28.55 27.95 28.5 L28.5 28.7 Q29.55 29.2 30.2 30.75 L30.5 31.65 31.1 33.9 Q31.5 34.1 34.2 32.8 L36.0 31.45 36.1 31.4 37.15 31.3 Q37.75 31.6 38.25 32.9 L38.6 33.95 39.1 36.15 39.2 36.2 40.15 35.95 40.95 35.35 Q41.6 34.7 42.1 34.55 L42.8 34.5 43.45 35.3 44.05 35.2 44.9 34.95 Q46.2 34.45 46.7 34.7 L47.1 34.95 48.5 36.15 49.2 36.85 Q49.9 37.5 50.05 38.7 L50.1 39.1 50.15 40.65 50.15 40.85 50.2 40.9 Q51.65 41.2 52.85 39.9 54.1 38.65 55.05 39.1 L56.0 40.1 57.3 42.2 Q57.95 41.75 58.9 41.3 60.2 40.65 60.55 40.8 61.55 41.25 62.1 43.65 L62.15 43.8 Q62.65 46.0 62.1 47.7 L61.85 48.25 61.75 48.5 57.3 48.5 57.25 48.15 56.65 48.5 56.45 48.5 M64.35 48.5 L64.0 48.45 63.65 47.85 63.5 47.5 Q63.6 47.25 63.95 47.15 L64.3 47.15 64.4 47.2 64.6 47.6 Q64.75 48.0 64.35 48.5 M46.6 36.9 L46.1 36.7 Q45.5 36.65 45.15 37.4 44.75 38.3 45.05 39.5 L45.3 40.25 45.85 41.4 46.3 41.85 47.3 42.0 47.65 42.3 47.85 42.5 Q48.15 42.85 48.6 43.05 49.15 43.3 50.0 42.8 50.9 42.3 50.15 41.95 L49.25 41.8 48.9 41.6 48.4 41.0 47.8 39.25 47.8 39.1 Q47.35 37.3 46.6 36.9 M40.6 42.8 L39.0 42.3 38.75 42.05 38.75 41.65 Q39.15 40.8 40.25 40.8 L41.25 40.9 Q41.8 41.2 41.85 41.85 L41.85 41.9 Q41.95 42.6 40.6 42.8 M59.95 45.3 Q59.65 45.35 59.5 45.75 L59.3 46.6 Q59.25 47.2 59.35 47.5 L59.35 47.55 60.2 46.8 60.35 46.5 Q60.75 45.65 60.25 45.4 L59.95 45.3 M56.3 42.9 L55.8 42.55 55.35 42.35 Q54.95 42.25 54.75 42.65 54.2 43.85 55.15 44.7 L55.9 45.25 56.35 45.45 Q57.45 45.95 57.15 44.6 57.0 43.45 56.3 42.9 M71.55 26.4 Q71.8 25.4 71.0 25.65 L70.3 26.2 68.5 26.05 67.5 25.45 Q65.8 24.25 64.95 24.55 L64.5 24.8 Q64.0 25.1 64.3 25.95 L64.35 26.1 Q64.8 27.2 66.35 27.9 67.7 28.5 68.2 28.3 68.8 27.85 69.05 27.75 L69.75 27.75 70.65 27.6 Q71.3 27.35 71.55 26.4 M40.95 37.85 Q41.2 37.3 40.75 37.1 L39.95 37.2 Q39.15 37.35 39.0 37.65 38.8 38.0 39.35 38.3 L40.0 38.4 40.4 38.4 40.95 37.85 M72.7 35.65 L72.9 36.3 Q72.95 36.9 72.3 37.2 L72.25 37.25 71.75 37.2 Q71.35 36.95 71.0 36.1 L70.9 35.45 Q70.9 35.0 71.3 34.8 72.1 34.5 72.7 35.65 M77.75 36.95 L77.35 37.1 77.15 37.35 77.15 37.75 Q77.6 38.95 78.85 38.85 L78.95 38.85 80.25 38.5 Q81.35 38.05 80.2 37.3 78.95 36.45 77.75 36.95 M65.25 31.75 Q65.45 32.15 64.8 32.9 L63.3 33.75 Q62.85 33.95 62.65 33.45 62.35 32.55 63.15 31.8 L63.95 31.2 Q64.5 31.0 65.0 31.45 L65.25 31.75 M67.3 39.6 Q67.1 39.75 66.85 39.85 66.4 40.25 66.7 41.0 L67.45 42.05 Q67.95 42.55 68.8 42.9 L70.1 43.3 70.7 43.25 71.5 42.65 72.25 42.6 73.1 42.45 Q73.7 42.2 73.95 41.25 L74.0 41.15 Q74.15 40.25 73.4 40.55 L72.7 41.05 70.65 40.85 69.85 40.4 Q68.15 39.3 67.3 39.6 M26.0 13.95 L25.45 14.2 24.8 14.15 24.65 13.6 24.8 13.3 25.35 13.2 Q25.8 13.25 26.1 13.8 L26.0 13.95 M23.95 15.2 Q23.1 15.8 22.45 16.55 21.85 15.95 21.5 16.25 L21.3 16.45 Q21.25 16.75 21.55 17.1 L21.85 17.35 Q20.75 18.95 20.65 20.9 L20.65 21.7 19.75 21.6 17.6 21.45 17.45 21.7 13.7 22.1 13.45 20.6 Q12.8 19.0 13.6 18.3 14.2 17.8 17.35 17.55 L17.25 15.7 Q17.15 14.25 17.45 14.0 L20.75 13.8 Q22.7 14.2 23.95 15.2 M12.25 23.05 L11.95 23.55 10.7 22.55 11.55 22.75 12.25 23.05 M24.7 21.0 L25.5 21.7 25.25 22.2 24.85 22.3 Q24.6 22.3 24.45 22.05 24.15 21.7 24.35 21.1 L24.7 21.0 M1.45 24.95 L1.6 25.05 2.1 25.05 Q2.7 25.05 2.25 24.45 L2.1 24.3 1.5 23.8 1.6 22.45 2.3 23.4 2.9 23.85 3.15 23.95 Q3.7 24.2 4.3 23.95 L5.45 24.05 5.85 24.4 6.1 24.6 Q6.5 25.1 6.6 25.9 L6.75 26.75 7.05 26.8 7.75 26.3 7.95 26.3 8.4 26.65 8.75 27.2 Q9.2 28.0 9.2 29.25 L9.1 30.2 8.7 32.55 8.8 32.65 10.85 32.75 12.0 32.7 14.2 32.2 15.1 32.35 15.3 32.55 Q15.75 33.05 15.7 34.5 L15.55 35.55 15.2 37.75 17.2 37.7 19.15 37.75 19.45 38.7 20.95 38.9 Q22.35 39.1 22.75 39.55 23.4 40.3 24.15 42.45 24.4 43.1 24.3 43.9 L24.05 44.85 23.4 46.4 23.9 46.75 Q24.9 47.3 26.25 46.75 L28.55 46.85 28.75 47.2 29.15 48.5 24.2 48.5 19.55 48.05 19.3 48.0 19.25 47.25 17.5 47.25 16.75 46.55 16.45 45.95 Q16.4 45.55 16.9 44.7 17.85 43.0 17.35 42.45 13.0 41.25 12.8 41.0 12.15 40.25 12.4 38.7 12.65 37.2 12.5 36.85 L12.45 36.8 9.95 36.45 9.65 36.4 Q7.35 36.0 6.2 34.7 L6.0 34.35 Q5.8 33.7 5.75 32.35 L5.7 30.65 5.7 30.5 4.7 30.6 4.4 30.55 4.05 30.35 3.8 28.85 3.4 27.2 3.05 27.15 2.6 26.95 1.95 26.35 1.5 26.1 1.45 25.0 1.45 24.95 M35.35 22.95 Q35.45 21.65 34.25 21.2 L32.9 20.95 Q31.75 20.9 32.45 22.1 33.2 23.35 34.5 23.4 L34.95 23.45 Q35.35 23.4 35.35 22.95 M29.35 20.15 Q28.9 20.5 28.85 21.45 L28.95 22.2 29.35 22.45 29.65 22.4 29.9 21.85 29.7 20.95 29.65 20.7 29.35 20.15 M10.4 20.45 Q9.7 19.6 10.25 19.15 10.9 18.65 11.85 19.55 12.75 20.4 11.95 21.05 11.35 21.55 10.4 20.45 M18.75 20.55 L19.9 19.75 Q20.85 19.0 19.45 18.65 18.05 18.25 17.05 19.1 17.0 19.1 16.7 19.35 16.45 19.7 16.7 20.05 17.55 21.05 18.75 20.55 M17.05 24.9 Q17.85 25.3 17.3 25.7 L16.0 25.75 Q15.6 25.6 15.8 25.2 16.1 24.5 17.05 24.9 M12.35 28.4 Q13.15 29.3 12.15 30.3 L12.1 30.35 Q11.2 31.3 10.35 30.35 L10.0 29.8 10.2 29.4 Q10.4 28.95 11.05 28.4 11.7 27.85 12.05 28.05 L12.35 28.4 M5.45 26.65 L5.4 26.6 4.8 26.25 Q4.15 25.85 4.0 26.0 3.55 26.4 3.8 26.7 L4.35 27.25 4.4 27.45 5.0 28.55 Q5.75 29.2 6.45 29.5 7.75 30.3 7.3 29.05 L5.45 26.65 M10.85 35.55 L11.95 35.5 Q13.8 35.25 12.8 34.1 L11.75 33.6 Q10.75 33.35 9.95 33.9 L9.8 34.0 9.55 34.25 Q9.2 34.7 9.45 35.0 9.9 35.45 10.85 35.55 M16.3 39.3 L15.5 39.05 14.45 39.1 Q14.15 39.4 14.55 39.85 15.5 40.65 16.15 40.1 16.6 39.7 16.3 39.3 M14.35 42.5 L15.2 43.0 Q15.6 43.45 15.4 44.05 15.2 44.8 13.95 44.45 L12.55 43.35 Q12.25 43.0 12.65 42.65 L14.35 42.5 M19.2 44.0 Q19.15 45.45 19.55 45.85 L20.3 46.45 20.6 47.05 20.85 47.45 21.1 47.85 Q21.55 48.35 22.5 48.25 L22.6 48.25 Q23.45 48.1 23.1 47.55 L23.0 47.45 Q22.8 47.25 22.2 47.0 L21.8 46.2 Q21.6 45.35 21.9 44.1 22.35 42.1 21.75 41.45 L21.35 41.05 Q20.85 40.8 20.2 41.35 19.25 42.2 19.2 44.0 M32.8 28.65 L33.45 29.25 Q33.7 29.7 33.4 30.5 L33.0 31.2 31.75 31.25 31.3 30.95 31.25 30.9 Q31.0 30.45 31.6 29.25 L31.75 29.0 Q32.05 28.45 32.4 28.45 L32.8 28.65 M25.0 29.7 L24.15 29.85 Q23.9 30.35 24.3 30.5 L25.0 30.8 26.05 31.8 27.8 32.1 Q29.3 32.25 28.4 31.3 L25.8 29.85 25.0 29.7 M22.25 29.35 L21.75 29.0 21.0 28.8 20.65 29.1 20.65 29.5 21.1 29.8 21.55 29.9 22.1 29.7 Q22.45 29.55 22.25 29.35 M32.7 34.9 Q32.35 35.7 32.8 35.9 L34.35 35.8 35.25 35.35 Q36.25 34.8 36.15 34.35 L35.5 33.75 34.35 33.7 Q33.75 33.8 33.35 34.15 L32.95 34.5 32.7 34.9 M26.3 43.65 Q27.15 42.95 27.6 43.5 L27.8 43.85 Q28.0 44.35 27.3 45.1 26.4 46.05 25.75 45.25 25.2 44.65 26.3 43.65" fill="#ffa35f" fill-rule="evenodd" stroke="none"/>
    <path d="M54.55 33.4 L53.7 33.0 53.6 32.8 Q53.4 32.2 53.6 31.6 L54.0 30.8 54.85 30.1 Q56.3 29.55 55.75 31.4 L55.7 31.55 Q55.3 32.95 54.55 33.4 M81.55 23.3 L80.9 22.65 80.35 21.95 Q80.2 21.5 80.4 21.3 L80.7 21.15 Q81.2 21.0 81.5 21.9 81.8 22.8 81.55 23.3 M34.7 46.3 L34.05 45.45 Q34.5 45.1 34.65 45.05 L35.7 44.8 37.15 45.6 36.2 46.15 34.75 46.3 34.7 46.3 M82.9 35.65 Q83.4 35.45 83.75 36.35 84.1 37.25 83.85 37.75 83.55 37.7 83.15 37.15 L82.65 36.45 82.6 35.8 82.9 35.65 M75.5 22.25 Q76.75 21.8 77.9 22.7 79.05 23.5 77.9 23.9 L76.55 24.2 Q75.6 24.2 75.15 23.6 L74.85 23.0 74.85 22.9 Q74.75 22.55 75.1 22.4 L75.5 22.25 M41.9 20.55 L42.6 20.8 43.55 20.6 Q44.1 20.65 45.15 21.7 46.35 23.0 46.3 24.3 46.25 25.15 45.65 25.3 L45.1 25.3 Q44.2 25.25 43.1 23.55 42.05 21.8 40.8 21.75 L39.95 21.95 Q39.1 21.9 39.75 21.05 40.35 20.3 41.0 20.35 L41.9 20.55 M50.0 22.3 Q50.05 21.45 51.35 21.3 51.95 21.35 51.9 21.75 L51.2 22.55 50.5 22.95 Q50.0 22.9 50.0 22.3 M60.45 29.4 L60.55 29.35 60.95 28.8 Q61.4 28.65 61.6 29.2 L61.65 29.25 Q61.8 30.0 60.8 30.6 60.2 30.8 60.05 30.4 59.95 30.1 60.45 29.4 M46.6 36.9 Q47.35 37.3 47.8 39.1 L47.8 39.25 48.4 41.0 48.9 41.6 49.25 41.8 50.15 41.95 Q50.9 42.3 50.0 42.8 49.15 43.3 48.6 43.05 48.15 42.85 47.85 42.5 L47.65 42.3 47.3 42.0 46.3 41.85 45.85 41.4 45.3 40.25 45.05 39.5 Q44.75 38.3 45.15 37.4 45.5 36.65 46.1 36.7 L46.6 36.9 M56.3 42.9 Q57.0 43.45 57.15 44.6 57.45 45.95 56.35 45.45 L55.9 45.25 55.15 44.7 Q54.2 43.85 54.75 42.65 54.95 42.25 55.35 42.35 L55.8 42.55 56.3 42.9 M59.95 45.3 L60.25 45.4 Q60.75 45.65 60.35 46.5 L60.2 46.8 59.35 47.55 59.35 47.5 Q59.25 47.2 59.3 46.6 L59.5 45.75 Q59.65 45.35 59.95 45.3 M40.95 37.85 L40.4 38.4 40.0 38.4 39.35 38.3 Q38.8 38.0 39.0 37.65 39.15 37.35 39.95 37.2 L40.75 37.1 Q41.2 37.3 40.95 37.85 M71.55 26.4 Q71.3 27.35 70.65 27.6 L69.75 27.75 69.05 27.75 Q68.8 27.85 68.2 28.3 67.7 28.5 66.35 27.9 64.8 27.2 64.35 26.1 L64.3 25.95 Q64.0 25.1 64.5 24.8 L64.95 24.55 Q65.8 24.25 67.5 25.45 L68.5 26.05 70.3 26.2 71.0 25.65 Q71.8 25.4 71.55 26.4 M77.75 36.95 Q78.95 36.45 80.2 37.3 81.35 38.05 80.25 38.5 L78.95 38.85 78.85 38.85 Q77.6 38.95 77.15 37.75 L77.15 37.35 77.35 37.1 77.75 36.95 M67.3 39.6 Q68.15 39.3 69.85 40.4 L70.65 40.85 72.7 41.05 73.4 40.55 Q74.15 40.25 74.0 41.15 L73.95 41.25 Q73.7 42.2 73.1 42.45 L72.25 42.6 71.5 42.65 70.7 43.25 70.1 43.3 68.8 42.9 Q67.95 42.55 67.45 42.05 L66.7 41.0 Q66.4 40.25 66.85 39.85 67.1 39.75 67.3 39.6 M22.45 16.55 L21.85 17.35 21.55 17.1 Q21.25 16.75 21.3 16.45 L21.5 16.25 Q21.85 15.95 22.45 16.55 M29.35 20.15 L29.65 20.7 29.7 20.95 29.9 21.85 29.65 22.4 29.35 22.45 28.95 22.2 28.85 21.45 Q28.9 20.5 29.35 20.15 M35.35 22.95 Q35.35 23.4 34.95 23.45 L34.5 23.4 Q33.2 23.35 32.45 22.1 31.75 20.9 32.9 20.95 L34.25 21.2 Q35.45 21.65 35.35 22.95 M1.5 23.8 L2.1 24.3 2.25 24.45 Q2.7 25.05 2.1 25.05 L1.6 25.05 1.45 24.95 1.5 23.8 M18.75 20.55 Q17.55 21.05 16.7 20.05 16.45 19.7 16.7 19.35 17.0 19.1 17.05 19.1 18.05 18.25 19.45 18.65 20.85 19.0 19.9 19.75 L18.75 20.55 M10.85 35.55 Q9.9 35.45 9.45 35.0 9.2 34.7 9.55 34.25 L9.8 34.0 9.95 33.9 Q10.75 33.35 11.75 33.6 L12.8 34.1 Q13.8 35.25 11.95 35.5 L10.85 35.55 M5.45 26.65 L7.3 29.05 Q7.75 30.3 6.45 29.5 5.75 29.2 5.0 28.55 L4.4 27.45 4.35 27.25 3.8 26.7 Q3.55 26.4 4.0 26.0 4.15 25.85 4.8 26.25 L5.4 26.6 5.45 26.65 M16.3 39.3 Q16.6 39.7 16.15 40.1 15.5 40.65 14.55 39.85 14.15 39.4 14.45 39.1 L15.5 39.05 16.3 39.3 M19.2 44.0 Q19.25 42.2 20.2 41.35 20.85 40.8 21.35 41.05 L21.75 41.45 Q22.35 42.1 21.9 44.1 21.6 45.35 21.8 46.2 L22.2 47.0 Q22.8 47.25 23.0 47.45 L23.1 47.55 Q23.45 48.1 22.6 48.25 L22.5 48.25 Q21.55 48.35 21.1 47.85 L20.85 47.45 20.6 47.05 20.3 46.45 19.55 45.85 Q19.15 45.45 19.2 44.0 M32.7 34.9 L32.95 34.5 33.35 34.15 Q33.75 33.8 34.35 33.7 L35.5 33.75 36.15 34.35 Q36.25 34.8 35.25 35.35 L34.35 35.8 32.8 35.9 Q32.35 35.7 32.7 34.9 M22.25 29.35 Q22.45 29.55 22.1 29.7 L21.55 29.9 21.1 29.8 20.65 29.5 20.65 29.1 21.0 28.8 21.75 29.0 22.25 29.35 M25.0 29.7 L25.8 29.85 28.4 31.3 Q29.3 32.25 27.8 32.1 L26.05 31.8 25.0 30.8 24.3 30.5 Q23.9 30.35 24.15 29.85 L25.0 29.7" fill="#ffdcc1" fill-rule="evenodd" stroke="none"/>
    <path d="M89.05 39.15 L88.55 40.0 88.4 40.2 88.35 40.2 Q86.95 42.15 84.85 43.6 L86.9 41.7 89.05 39.15" fill="#000000" fill-rule="evenodd" stroke="none"/>
  </g>
</svg>
