<?xml version="1.0" encoding="UTF-8" standalone="no"?>
<svg xmlns:ffdec="https://www.free-decompiler.com/flash" xmlns:xlink="http://www.w3.org/1999/xlink" ffdec:objectType="shape" height="125.8px" width="197.5px" xmlns="http://www.w3.org/2000/svg">
  <g transform="matrix(1.0, 0.0, 0.0, 1.0, 98.75, 62.9)">
    <path d="M17.25 -43.85 L17.25 -44.0 17.3 -43.65 18.05 -27.9 16.8 -32.95 16.05 -39.55 17.25 -43.85 M36.25 -16.65 L29.1 -9.1 27.75 -7.75 27.15 -7.05 24.75 -4.1 23.1 -1.7 21.45 1.1 20.85 2.35 20.4 3.25 20.25 3.65 18.4 3.05 18.4 2.05 18.45 2.0 18.4 2.0 16.55 1.8 Q14.65 1.45 14.25 0.5 L14.6 -0.35 13.2 -0.8 13.05 -0.8 11.8 -0.85 10.35 -2.05 9.15 -2.05 8.45 -3.6 6.75 -4.65 Q5.0 -5.6 2.95 -5.6 L2.65 -5.65 Q0.85 -6.3 -0.15 -7.45 L-1.3 -8.65 -2.05 -8.5 -3.3 -9.25 -4.0 -9.7 -4.5 -9.4 -5.5 -9.55 -7.0 -10.35 -9.7 -11.7 -10.7 -11.1 -12.0 -12.85 -13.0 -12.6 -16.0 -14.35 -17.35 -15.15 -16.95 -15.65 -17.45 -26.2 -15.4 -15.75 -12.65 -15.05 -12.65 -18.4 -12.85 -22.0 -13.05 -23.75 -13.2 -24.9 Q-15.15 -39.1 -24.15 -51.6 -13.05 -40.55 -10.6 -25.85 L-10.4 -24.75 -10.1 -22.3 -9.9 -19.45 -9.9 -16.0 Q-9.95 -14.95 -9.65 -13.9 L-8.15 -14.55 -7.15 -14.1 -6.7 -13.1 -5.9 -17.0 Q-5.55 -19.3 -5.55 -21.6 L-5.5 -23.3 -5.55 -23.4 -5.75 -26.1 -5.9 -27.15 -6.35 -29.95 Q-6.9 -32.35 -6.0 -34.95 L-4.9 -27.3 -4.85 -26.3 -4.7 -24.8 -4.6 -23.35 -4.45 -20.5 -4.45 -16.05 -4.45 -14.05 -4.5 -13.05 -1.2 -9.15 -0.1 -16.65 0.75 -16.5 1.05 -14.85 Q0.75 -13.95 0.75 -13.1 0.6 -10.85 1.75 -8.8 L2.15 -8.1 2.2 -8.1 3.5 -8.25 3.4 -11.5 3.3 -18.4 3.3 -19.5 3.85 -30.25 5.35 -8.15 9.3 -5.55 9.8 -27.0 10.0 -26.0 10.3 -24.8 10.35 -24.2 10.75 -21.4 11.1 -18.35 11.3 -15.8 11.4 -14.3 11.45 -12.95 11.45 -7.0 11.45 -6.15 11.5 -6.95 13.95 -5.65 13.65 -5.0 11.4 -6.0 11.25 -4.35 12.65 -4.75 13.0 -2.8 13.6 -2.35 15.05 -4.5 15.95 -3.25 15.4 -1.1 17.15 -0.6 17.25 -0.1 17.4 0.2 17.6 0.4 17.7 0.35 17.95 0.3 18.65 2.4 18.8 2.3 19.35 1.4 20.0 0.35 21.45 -1.6 21.5 -1.6 24.6 -5.5 26.7 -8.1 27.3 -8.9 27.85 -9.6 Q32.25 -15.25 36.25 -16.65 M45.9 10.3 L39.65 15.2 40.5 14.75 39.45 15.55 40.8 15.75 41.55 16.95 Q54.45 6.8 70.55 8.15 57.3 7.5 46.8 15.0 L44.15 17.45 43.0 18.6 43.65 19.1 Q48.85 18.6 53.5 15.7 L54.1 15.3 53.75 15.65 51.65 17.55 46.0 19.8 46.6 20.75 45.45 21.35 47.0 23.55 50.85 19.8 Q64.1 17.1 77.6 17.4 L82.2 18.8 70.8 18.75 Q60.0 18.3 50.35 22.3 50.1 22.4 50.0 22.75 L50.05 23.3 46.7 27.05 45.45 24.85 45.3 24.65 44.2 24.1 Q43.75 23.85 43.4 23.6 L41.3 21.85 Q39.0 19.75 38.45 17.3 L38.35 16.8 37.7 17.3 37.55 17.3 36.9 17.3 33.95 13.25 33.4 12.6 33.3 12.4 46.3 5.8 36.1 12.75 37.35 14.05 Q40.15 12.4 43.05 10.9 43.85 10.5 44.8 10.25 L45.4 10.2 45.9 10.3 M86.85 20.2 L90.3 21.2 Q94.15 23.25 97.1 26.4 L98.7 28.1 97.75 29.1 95.7 27.95 86.85 20.2 M59.35 25.25 Q58.05 27.35 54.55 28.45 53.9 28.65 53.3 29.15 L51.35 29.9 50.6 29.55 59.35 25.25 M73.7 32.2 L74.25 32.15 76.4 32.6 77.9 33.45 Q71.05 32.8 64.45 34.9 L62.85 35.05 Q67.65 32.35 73.7 32.2 M91.8 50.0 L93.5 52.6 93.9 53.3 94.0 53.5 94.3 54.15 Q95.0 56.6 95.3 59.15 L95.25 62.15 Q93.15 54.7 88.6 48.5 L86.25 45.9 83.7 43.95 Q73.6 36.95 61.4 37.6 L57.8 37.75 58.15 37.25 Q78.2 34.55 91.45 49.55 L91.8 50.0 M-96.35 -31.3 L-93.95 -33.35 -84.0 -38.0 Q-74.5 -37.95 -67.9 -30.4 L-65.6 -27.85 -65.85 -26.35 -66.3 -26.05 Q-78.9 -43.4 -95.95 -30.2 -96.45 -29.9 -97.05 -29.7 L-96.35 -31.3 M-71.1 -37.25 L-72.6 -38.85 -75.7 -41.8 -82.65 -47.15 -83.85 -48.1 Q-84.75 -49.1 -85.15 -50.4 L-85.25 -51.0 Q-69.4 -42.4 -61.65 -26.85 -61.5 -26.55 -61.5 -26.15 -65.95 -32.05 -71.1 -37.25 M-70.35 -47.35 Q-65.25 -43.8 -61.5 -38.85 L-59.2 -35.9 -55.1 -27.5 -55.95 -26.5 Q-58.9 -35.05 -65.1 -42.1 L-70.35 -47.35 M-44.95 -25.75 L-44.45 -25.25 -41.45 -20.9 -44.6 -22.05 -45.45 -22.35 -45.7 -22.95 Q-46.4 -24.8 -47.45 -26.3 -50.95 -31.35 -54.95 -35.95 -54.05 -35.55 -53.2 -34.95 L-50.25 -32.3 Q-47.3 -29.25 -44.95 -25.75 M-58.6 -46.25 Q-49.65 -40.15 -43.35 -31.3 L-40.1 -27.15 -37.7 -21.95 -38.25 -21.6 -37.7 -20.7 -38.05 -21.0 -38.8 -21.75 -39.3 -22.6 Q-48.9 -39.95 -66.4 -49.95 L-69.95 -51.95 -58.6 -46.25 M-38.8 -32.6 L-42.05 -38.15 Q-45.45 -42.8 -49.75 -46.35 L-51.85 -48.0 -50.6 -48.3 -42.95 -42.8 Q-36.8 -34.15 -33.3 -24.15 L-33.25 -24.0 Q-34.15 -23.65 -34.65 -24.65 L-38.8 -32.6 M-28.45 -24.3 L-28.45 -24.5 -28.85 -27.0 Q-31.8 -47.45 -48.9 -57.85 L-49.65 -58.2 Q-39.55 -55.1 -34.1 -45.0 L-32.9 -42.95 -29.25 -34.0 -25.4 -17.8 -25.15 -18.15 -24.85 -18.55 -24.25 -19.05 -22.75 -19.25 -22.6 -19.2 -21.95 -16.8 -26.45 -17.15 -28.45 -24.3 M6.65 -25.95 L5.5 -24.55 5.35 -26.25 6.65 -25.95 M9.15 -21.9 Q8.85 -16.3 7.65 -11.0 L6.7 -9.55 7.25 -9.3 6.95 -8.35 5.45 -9.65 5.9 -15.05 6.6 -16.2 9.15 -21.9 M11.55 -19.9 L10.95 -24.5 12.55 -23.75 11.95 -21.25 11.55 -19.9 M16.7 -21.2 L17.4 -20.75 Q16.85 -13.4 14.35 -6.55 L14.45 -13.0 16.05 -14.5 16.5 -17.3 16.7 -21.2 M23.05 -12.6 L23.4 -13.3 Q23.7 -13.65 24.0 -13.55 L26.15 -9.4 24.2 -7.1 24.1 -7.3 23.05 -12.6 M20.65 -2.1 L20.0 -1.0 19.8 -2.5 20.65 -2.1 M19.0 -2.9 L17.55 -2.35 16.8 -3.6 16.85 -4.15 19.0 -2.9 M2.8 -23.25 L3.0 -21.5 1.45 -19.7 0.2 -18.3 -0.15 -19.55 0.75 -20.65 2.8 -23.25 M1.2 -12.8 L3.4 -11.5 3.4 -10.9 1.3 -10.95 1.2 -12.8 M20.35 3.65 L23.65 1.65 24.35 4.85 24.5 4.7 Q26.25 1.45 28.7 -1.1 L29.45 -2.0 Q33.9 -6.5 40.1 -8.8 34.05 -5.0 29.9 0.65 L29.55 1.15 29.05 2.1 29.15 3.75 28.7 3.85 28.35 3.4 27.75 5.1 29.7 5.75 30.3 6.85 30.3 6.9 Q42.75 -4.15 59.55 -7.85 44.4 -1.45 31.35 8.45 L32.4 10.25 34.7 9.85 35.05 10.95 33.2 12.3 33.1 12.3 31.6 13.15 32.1 11.7 31.7 11.6 31.5 11.6 31.45 11.55 28.5 10.7 27.85 10.45 26.45 9.0 27.5 8.85 28.3 8.7 28.35 8.65 28.15 8.55 27.0 8.0 26.6 7.85 25.0 6.7 23.5 6.55 23.0 5.5 Q22.8 5.2 22.45 5.15 21.75 5.05 21.2 4.35 L21.05 3.65 20.95 3.35 20.8 3.5 20.55 3.65 20.35 3.65 M27.35 -6.5 L28.55 -1.85 Q26.35 0.2 24.4 2.55 L26.95 -2.85 Q25.45 -3.15 24.4 -1.7 L22.25 1.05 27.35 -6.5 M87.65 30.1 Q67.75 21.3 52.75 36.3 L52.65 36.4 52.75 36.2 52.75 35.85 52.6 35.9 51.95 36.4 51.3 35.6 51.25 35.5 52.7 34.2 Q68.15 20.7 86.7 29.5 L87.65 30.1 M48.15 27.4 L47.9 27.2 47.8 26.95 47.8 26.8 Q47.85 26.55 48.05 26.4 L48.5 26.35 48.6 26.35 48.9 26.55 49.0 26.85 48.95 27.0 48.75 27.35 48.3 27.45 48.15 27.4 M48.7 28.85 L49.5 29.6 50.8 32.0 45.35 34.45 44.6 33.1 40.15 36.05 34.15 37.9 33.35 36.9 31.6 37.95 32.05 38.55 24.25 41.75 24.05 42.85 24.85 43.4 Q30.1 44.35 35.35 41.8 L35.35 43.1 Q36.0 43.6 36.8 43.55 39.25 43.4 39.1 41.0 L38.6 40.5 43.25 38.4 44.3 38.3 44.85 37.6 50.35 34.75 43.2 41.8 48.2 40.4 Q46.7 44.3 42.4 45.75 L39.65 46.7 Q32.95 49.15 13.8 50.35 L9.5 49.2 Q9.75 35.85 0.55 27.4 6.2 30.3 11.45 33.8 13.2 34.95 -0.7 24.3 L22.5 37.2 26.2 39.75 27.2 38.75 26.75 37.75 Q30.05 36.7 35.15 36.15 43.4 35.15 48.7 28.85 M-34.55 12.95 L-40.55 11.4 -43.25 7.45 -41.3 7.8 -39.45 6.55 Q-41.05 2.75 -45.0 2.2 L-45.85 3.0 Q-49.5 -4.05 -51.35 -11.85 L-53.75 -22.1 -53.65 -22.05 -53.2 -21.95 -53.05 -22.15 -51.45 -22.4 -51.15 -22.05 -49.75 -18.5 -49.9 -17.25 -50.15 -13.85 -50.05 -11.4 -47.4 -12.65 -45.9 -9.7 -49.4 -8.0 -45.8 -1.75 -42.95 -3.8 -41.2 -0.25 -42.8 0.8 -39.7 2.75 -34.55 12.95 M-42.7 11.4 L-47.55 11.65 Q-50.85 8.7 -52.75 4.25 L-54.9 -0.15 Q-58.15 -6.65 -59.2 -13.65 L-57.1 -11.85 -59.55 -18.65 -60.85 -18.7 -60.4 -17.4 -62.05 -20.8 -61.35 -22.2 -60.05 -22.55 -60.5 -23.75 -60.35 -24.55 -56.45 -20.1 -56.15 -21.2 -55.8 -21.4 -55.35 -16.8 -54.45 -13.25 -52.05 -6.1 -52.9 -4.6 Q-53.95 -1.5 -51.7 0.6 L-50.45 0.05 -50.9 -3.25 -48.95 1.35 Q-46.6 6.85 -42.7 11.4 M-33.6 -20.35 L-34.7 -19.75 -37.6 -20.7 -37.2 -21.7 -33.45 -22.0 -32.1 -20.55 -33.2 -20.6 -33.6 -20.35 M-56.85 -24.2 L-54.75 -21.9 -56.1 -21.4 -56.85 -24.2 M-9.35 -22.2 L-9.95 -24.9 -7.45 -25.7 Q-7.15 -23.4 -7.0 -20.95 L-8.45 -18.45 -6.7 -17.45 -6.7 -16.4 -8.2 -14.6 -9.1 -21.0 -9.2 -22.25 -9.35 -22.2 M-3.7 -26.55 L-4.0 -25.95 -4.05 -26.45 -3.7 -26.55 M-19.75 -15.55 L-23.05 -27.9 -18.95 -15.5 -19.75 -15.55 M-0.35 -19.35 L-1.05 -17.8 -1.45 -16.5 -2.7 -15.1 -1.8 -14.5 -1.9 -13.6 -1.9 -11.4 -3.0 -15.3 -2.7 -15.1 -3.05 -15.35 -3.3 -16.3 -0.35 -19.35 M-18.7 -18.75 L-19.05 -20.55 -18.15 -21.15 -18.2 -19.05 -18.7 -18.75 M-15.5 -22.6 L-13.95 -23.35 Q-13.75 -19.9 -14.05 -16.4 L-15.5 -22.6" fill="#bca750" fill-rule="evenodd" stroke="none"/>
    <path d="M17.3 -43.65 Q20.9 -32.3 19.5 -20.3 23.85 -16.4 26.45 -10.85 L26.75 -10.15 Q37.9 -22.95 54.1 -28.35 L54.2 -27.35 Q44.35 -23.35 36.25 -16.65 32.25 -15.25 27.85 -9.6 L27.3 -8.9 26.7 -8.1 24.6 -5.5 21.5 -1.6 21.45 -1.6 20.0 0.35 19.35 1.4 18.8 2.3 18.65 2.4 17.95 0.3 17.7 0.35 17.6 0.4 17.4 0.2 17.25 -0.1 17.15 -0.6 15.4 -1.1 15.95 -3.25 15.05 -4.5 13.6 -2.35 13.0 -2.8 12.65 -4.75 11.25 -4.35 11.4 -6.0 13.65 -5.0 13.95 -5.65 14.35 -6.55 Q16.85 -13.4 17.4 -20.75 L16.7 -21.2 12.55 -23.75 10.95 -24.5 11.55 -19.9 11.85 -14.1 11.5 -6.95 11.45 -6.15 11.45 -7.0 11.45 -12.95 11.4 -14.3 11.3 -15.8 11.1 -18.35 10.75 -21.4 10.35 -24.2 10.3 -24.8 10.0 -26.0 9.8 -27.0 9.3 -5.55 5.35 -8.15 3.85 -30.25 3.3 -19.5 3.0 -21.5 2.8 -23.25 2.75 -23.9 Q2.55 -25.2 2.5 -26.45 L-3.7 -26.55 -4.05 -26.45 -4.0 -25.95 -4.05 -25.8 -4.1 -23.45 -3.95 -20.4 -3.3 -16.3 -3.05 -15.35 -3.0 -15.3 -1.9 -11.4 -1.9 -13.6 -1.8 -14.5 -1.65 -15.8 -1.45 -16.5 -1.05 -17.8 -0.35 -19.35 -0.25 -19.75 -0.15 -19.55 0.2 -18.3 0.75 -16.5 -0.1 -16.65 -1.2 -9.15 -4.5 -13.05 -4.45 -14.05 -4.45 -16.05 -4.45 -20.5 -4.6 -23.35 -4.7 -24.8 -4.85 -26.3 -4.9 -27.3 -6.0 -34.95 Q-6.9 -32.35 -6.35 -29.95 L-5.9 -27.15 -5.75 -26.1 -5.55 -23.4 -5.5 -23.3 -5.55 -21.6 Q-5.55 -19.3 -5.9 -17.0 L-6.7 -13.1 -7.15 -14.1 -8.15 -14.55 -9.65 -13.9 Q-9.95 -14.95 -9.9 -16.0 L-9.9 -19.45 -10.1 -22.3 -10.4 -24.75 -10.6 -25.85 Q-13.05 -40.55 -24.15 -51.6 -15.15 -39.1 -13.2 -24.9 L-13.05 -23.75 -12.85 -22.0 -12.65 -18.4 -12.65 -15.05 -15.4 -15.75 -17.45 -26.2 -16.95 -15.65 -17.35 -15.15 -18.95 -15.5 -23.05 -27.9 -19.75 -15.55 -20.95 -16.25 -21.95 -16.8 -22.6 -19.2 -22.75 -19.25 -24.25 -19.05 -24.85 -18.55 -25.15 -18.15 -25.4 -17.8 -29.25 -34.0 -24.1 -19.75 -22.7 -22.5 -26.65 -35.1 -25.5 -36.7 -23.7 -34.05 Q-21.2 -29.8 -20.1 -25.05 L-19.35 -21.65 -18.1 -22.4 -17.95 -30.5 -17.65 -30.05 -16.55 -27.45 -16.2 -26.05 -15.7 -23.75 -14.05 -24.5 Q-14.85 -32.45 -18.5 -40.1 -21.5 -46.45 -25.25 -52.15 L-24.6 -53.1 Q-18.05 -49.3 -15.1 -41.75 -12.0 -34.05 -10.2 -26.05 L-7.6 -26.8 -7.65 -27.25 Q-9.05 -37.5 -8.95 -47.0 -3.95 -38.15 -4.0 -27.5 L2.45 -27.7 Q2.25 -31.55 2.35 -35.3 L2.55 -37.1 Q4.3 -32.4 5.1 -27.4 7.2 -27.05 9.25 -26.3 L9.05 -30.35 Q9.0 -31.2 9.45 -31.95 L10.75 -25.65 13.4 -24.5 17.45 -21.95 Q17.65 -27.35 16.8 -32.95 L18.05 -27.9 17.3 -43.65 M29.1 -9.1 L27.9 -7.35 29.3 -2.6 Q35.4 -8.35 42.9 -12.7 45.4 -14.1 48.1 -14.2 44.6 -8.4 38.05 -5.6 35.45 -4.5 33.3 -2.4 L29.9 0.8 30.2 3.55 31.75 3.2 30.65 6.35 Q47.6 -7.75 69.15 -12.15 70.15 -12.25 70.9 -11.5 49.75 -5.1 32.4 8.7 L38.7 6.75 38.9 8.1 Q50.0 -0.45 63.4 -0.85 50.2 4.4 38.1 11.95 L38.9 12.2 45.8 8.9 45.9 10.3 45.4 10.2 44.8 10.25 Q43.85 10.5 43.05 10.9 40.15 12.4 37.35 14.05 L36.1 12.75 46.3 5.8 33.3 12.4 33.4 12.6 33.1 12.3 33.2 12.3 35.05 10.95 34.7 9.85 32.4 10.25 31.35 8.45 Q44.4 -1.45 59.55 -7.85 42.75 -4.15 30.3 6.9 L30.3 6.85 29.7 5.75 27.75 5.1 28.35 3.4 28.7 3.85 29.15 3.75 29.05 2.1 29.55 1.15 29.9 0.65 Q34.05 -5.0 40.1 -8.8 33.9 -6.5 29.45 -2.0 L28.7 -1.1 Q26.25 1.45 24.5 4.7 L24.35 4.85 23.65 1.65 20.35 3.65 20.15 3.75 20.25 3.65 20.4 3.25 20.85 2.35 21.45 1.1 23.1 -1.7 24.75 -4.1 27.15 -7.05 27.75 -7.75 29.1 -9.1 M40.5 14.75 Q62.95 3.0 87.6 8.1 92.85 10.0 96.05 14.65 75.75 3.85 53.5 11.85 49.9 13.2 46.8 15.0 57.3 7.5 70.55 8.15 54.45 6.8 41.55 16.95 L40.8 15.75 39.45 15.55 40.5 14.75 M44.15 17.45 L44.85 18.2 53.5 15.7 Q48.85 18.6 43.65 19.1 L43.0 18.6 44.15 17.45 M53.75 15.65 L55.75 15.05 55.85 15.25 55.75 15.5 51.65 17.55 53.75 15.65 M46.6 20.75 Q59.65 16.05 73.45 17.0 L77.6 17.4 Q64.1 17.1 50.85 19.8 L47.0 23.55 45.45 21.35 46.6 20.75 M82.2 18.8 L86.85 20.2 95.7 27.95 Q85.45 20.5 73.0 18.9 L70.8 18.75 82.2 18.8 M90.3 21.2 Q94.2 21.95 96.7 24.0 99.1 26.05 98.7 28.1 L97.1 26.4 Q94.15 23.25 90.3 21.2 M50.0 22.75 L50.55 26.85 Q53.65 26.05 56.5 24.75 58.05 24.1 59.35 25.25 L50.6 29.55 51.35 29.9 53.3 29.15 54.2 31.95 Q71.1 19.4 89.3 30.35 90.55 31.1 90.6 32.5 L89.15 33.4 Q73.0 22.5 56.95 34.35 L55.05 36.05 Q61.8 32.85 69.4 32.2 L73.7 32.2 Q67.65 32.35 62.85 35.05 L64.45 34.9 Q71.05 32.8 77.9 33.45 L76.4 32.6 78.4 33.55 Q71.6 35.65 64.0 35.7 82.1 36.2 91.8 50.0 L91.45 49.55 Q78.2 34.55 58.15 37.25 L57.8 37.75 61.4 37.6 Q73.6 36.95 83.7 43.95 68.25 36.9 52.1 41.05 L52.05 41.1 50.9 42.25 Q47.9 44.5 44.85 46.1 36.65 50.35 27.45 50.35 L26.4 51.05 25.05 51.2 24.55 52.05 23.6 52.1 Q-2.35 54.35 1.85 46.95 6.0 39.45 1.5 34.3 -3.05 29.1 -14.2 23.65 -25.3 18.1 -41.4 13.8 L-43.2 14.0 Q-46.3 14.75 -49.05 12.95 -52.15 10.85 -53.75 7.35 L-60.05 -7.15 Q-61.25 -10.0 -61.85 -13.05 -62.25 -14.85 -61.95 -16.3 -68.55 -33.05 -85.55 -34.85 -92.15 -33.05 -96.55 -27.65 L-98.55 -25.05 Q-99.1 -26.8 -98.3 -28.65 L-97.55 -29.95 -96.35 -31.3 -97.05 -29.7 Q-96.45 -29.9 -95.95 -30.2 -78.9 -43.4 -66.3 -26.05 L-65.85 -26.35 -65.6 -27.85 -63.2 -23.95 -60.95 -23.25 Q-65.25 -30.95 -71.1 -37.25 -65.95 -32.05 -61.5 -26.15 -61.5 -26.55 -61.65 -26.85 -69.4 -42.4 -85.25 -51.0 L-85.15 -50.4 Q-84.75 -49.1 -83.85 -48.1 L-87.95 -51.25 -87.15 -52.2 Q-70.35 -44.45 -60.6 -28.05 L-58.3 -24.45 -58.35 -30.1 Q-64.1 -39.45 -72.5 -46.1 L-71.7 -47.4 -70.35 -47.35 -65.1 -42.1 Q-58.9 -35.05 -55.95 -26.5 L-55.1 -27.5 -59.2 -35.9 Q-53.25 -30.15 -52.9 -22.85 L-52.9 -22.55 -51.65 -22.65 Q-53.15 -24.85 -51.7 -27.6 -48.55 -26.25 -48.8 -23.05 L-48.75 -22.9 -45.95 -22.95 -54.2 -33.35 -56.55 -36.25 -56.35 -36.8 Q-48.25 -33.75 -44.95 -25.75 -47.3 -29.25 -50.25 -32.3 L-53.2 -34.95 Q-54.05 -35.55 -54.95 -35.95 -50.95 -31.35 -47.45 -26.3 -46.4 -24.8 -45.7 -22.95 L-45.45 -22.35 -44.6 -22.05 -47.35 -22.45 -48.9 -22.45 -50.9 -21.8 -51.15 -22.05 -51.45 -22.4 -53.05 -22.15 -53.2 -21.95 -53.65 -22.05 -53.75 -22.1 -55.8 -21.4 -56.15 -21.2 -56.45 -20.1 -60.35 -24.55 -60.5 -23.75 -60.05 -22.55 -61.35 -22.2 -62.05 -20.8 -60.4 -17.4 -60.85 -18.7 -59.55 -18.65 -57.1 -11.85 -59.2 -13.65 Q-58.15 -6.65 -54.9 -0.15 L-52.75 4.25 Q-50.85 8.7 -47.55 11.65 L-42.7 11.4 -40.55 11.4 -34.55 12.95 Q-26.1 15.9 -18.0 19.0 L-5.3 24.65 Q-2.3 25.95 0.55 27.4 9.75 35.85 9.5 49.2 L13.8 50.35 Q32.95 49.15 39.65 46.7 L42.4 45.75 Q46.7 44.3 48.2 40.4 L43.2 41.8 50.35 34.75 50.8 32.0 49.5 29.6 48.7 28.85 46.85 27.15 46.7 27.05 50.05 23.3 50.0 22.75 M95.25 62.15 L94.25 62.9 Q92.7 53.85 86.9 46.7 L86.25 45.9 88.6 48.5 Q93.15 54.7 95.25 62.15 M-93.95 -33.35 Q-90.75 -36.4 -86.5 -37.5 L-84.0 -38.0 -93.95 -33.35 M-44.45 -25.25 L-43.65 -26.05 -41.4 -23.9 -40.55 -24.0 Q-54.0 -44.0 -76.35 -53.9 -70.95 -53.4 -66.1 -51.1 -62.05 -49.15 -58.6 -46.25 L-69.95 -51.95 -66.4 -49.95 Q-48.9 -39.95 -39.3 -22.6 L-38.8 -21.75 -38.05 -21.0 -40.05 -21.35 -41.45 -20.9 -44.45 -25.25 M-40.1 -27.15 L-35.45 -23.0 -35.3 -24.15 -38.8 -32.6 -34.65 -24.65 Q-34.15 -23.65 -33.25 -24.0 L-33.3 -24.15 Q-36.8 -34.15 -42.95 -42.8 -36.8 -34.75 -32.75 -25.65 L-31.65 -23.2 -29.25 -21.7 -28.45 -24.3 -26.45 -17.15 -28.9 -18.6 -30.9 -19.85 -31.9 -20.1 -33.6 -20.35 -33.2 -20.6 -32.1 -20.55 -33.45 -22.0 -37.2 -21.7 -37.6 -20.7 -37.7 -20.7 -38.25 -21.6 -37.7 -21.95 -40.1 -27.15 M-42.05 -38.15 L-51.85 -48.0 -49.75 -46.35 Q-45.45 -42.8 -42.05 -38.15 M-28.45 -24.5 Q-32.55 -43.65 -46.75 -56.2 L-48.9 -57.85 Q-31.8 -47.45 -28.85 -27.0 L-28.45 -24.5 M-49.65 -58.2 L-59.05 -61.4 -59.05 -62.4 -58.15 -62.9 Q-43.05 -60.15 -35.05 -47.3 L-32.9 -42.95 -34.1 -45.0 Q-39.55 -55.1 -49.65 -58.2 M16.05 -39.55 Q14.85 -42.8 15.65 -46.05 L16.0 -47.25 17.25 -43.85 16.05 -39.55 M9.15 -21.9 L9.25 -25.15 6.65 -25.95 5.35 -26.25 5.5 -24.55 5.6 -23.9 Q5.95 -20.35 5.95 -16.65 L5.9 -15.05 5.45 -9.65 6.95 -8.35 7.25 -9.3 7.65 -11.0 Q8.85 -16.3 9.15 -21.9 M24.0 -13.55 L19.35 -19.0 19.05 -17.45 17.9 -12.05 16.7 -7.95 17.25 -7.5 16.85 -4.15 16.8 -3.6 17.55 -2.35 19.0 -2.9 19.7 -3.25 19.8 -2.5 20.0 -1.0 20.65 -2.1 24.2 -7.1 26.15 -9.4 24.0 -13.55 M3.4 -11.5 L3.5 -8.25 2.2 -8.1 2.15 -8.1 1.75 -8.8 Q0.6 -10.85 0.75 -13.1 0.75 -13.95 1.05 -14.85 L1.2 -12.8 1.3 -10.95 3.4 -10.9 3.4 -11.5 M18.4 2.0 L18.45 2.0 18.4 2.05 18.4 2.0 M27.35 -6.5 L22.25 1.05 24.4 -1.7 Q25.45 -3.15 26.95 -2.85 L24.4 2.55 Q26.35 0.2 28.55 -1.85 L27.35 -6.5 M87.65 30.1 L86.7 29.5 Q68.15 20.7 52.7 34.2 L51.25 35.5 51.3 35.6 51.95 36.4 52.6 35.9 52.75 35.85 52.75 36.2 52.65 36.4 52.75 36.3 Q67.75 21.3 87.65 30.1 M48.15 27.4 L48.3 27.45 48.75 27.35 48.95 27.0 49.0 26.85 48.9 26.55 48.6 26.35 48.5 26.35 48.05 26.4 Q47.85 26.55 47.8 26.8 L47.8 26.95 47.9 27.2 48.15 27.4 M35.95 10.6 L38.4 8.5 35.7 10.05 35.95 10.6 M20.8 3.5 L20.95 3.35 21.05 3.65 20.8 3.5 M28.3 8.7 L28.15 8.55 28.35 8.65 28.3 8.7 M-56.85 -24.2 L-56.1 -21.4 -54.75 -21.9 -56.85 -24.2 M-7.0 -20.95 Q-7.15 -23.4 -7.45 -25.7 L-9.95 -24.9 -9.35 -22.2 -9.1 -21.0 -8.2 -14.6 -6.7 -16.4 -6.7 -17.45 -7.0 -20.95 M-18.7 -18.75 L-18.2 -19.05 -18.15 -21.15 -19.05 -20.55 -18.7 -18.75 M-15.5 -22.6 L-14.05 -16.4 Q-13.75 -19.9 -13.95 -23.35 L-15.5 -22.6" fill="#877634" fill-rule="evenodd" stroke="none"/>
    <path d="M6.65 -25.95 L9.25 -25.15 9.15 -21.9 5.6 -23.9 5.5 -24.55 6.65 -25.95 M7.65 -11.0 L7.25 -9.3 6.7 -9.55 7.65 -11.0 M5.9 -15.05 L5.95 -16.65 6.6 -16.2 5.9 -15.05 M11.5 -6.95 L11.85 -14.1 14.45 -13.0 14.35 -6.55 13.95 -5.65 11.5 -6.95 M12.55 -23.75 L16.7 -21.2 16.5 -17.3 11.95 -21.25 12.55 -23.75 M19.05 -17.45 L19.35 -19.0 24.0 -13.55 Q23.7 -13.65 23.4 -13.3 L23.05 -12.6 19.05 -17.45 M24.2 -7.1 L20.65 -2.1 19.8 -2.5 19.7 -3.25 19.0 -2.9 16.85 -4.15 17.25 -7.5 16.7 -7.95 17.9 -12.05 21.1 -7.55 Q21.8 -6.35 23.25 -6.8 L24.1 -7.3 24.2 -7.1 M3.3 -18.4 L3.4 -11.5 1.2 -12.8 1.05 -14.85 0.75 -16.5 0.2 -18.3 1.45 -19.7 3.3 -18.4 M-17.35 -15.15 L-16.0 -14.35 -12.35 -7.25 -7.0 -10.35 -5.5 -9.55 -4.5 -9.4 -4.0 -9.7 -3.3 -9.25 -0.4 -3.15 2.65 -5.65 2.95 -5.6 Q5.0 -5.6 6.75 -4.65 L10.65 3.85 13.45 0.6 13.05 -0.8 13.2 -0.8 14.6 -0.35 14.25 0.5 Q14.65 1.45 16.55 1.8 L20.2 8.55 23.0 5.5 23.5 6.55 25.0 6.7 26.6 7.85 27.0 8.0 27.5 8.85 26.45 9.0 27.85 10.45 28.5 10.7 31.25 15.35 33.95 13.25 36.9 17.3 37.55 17.3 37.9 18.15 38.45 17.3 Q39.0 19.75 41.3 21.85 L41.9 25.1 43.4 23.6 Q43.75 23.85 44.2 24.1 L45.3 24.65 45.45 24.85 35.55 34.65 42.8 30.95 42.15 28.35 43.65 26.75 44.4 29.7 46.85 27.15 48.7 28.85 Q43.4 35.15 35.15 36.15 30.05 36.7 26.75 37.75 26.2 36.35 25.25 35.25 23.05 32.5 20.0 34.35 L22.5 37.2 -0.7 24.3 Q13.2 34.95 11.45 33.8 6.2 30.3 0.55 27.4 -2.3 25.95 -5.3 24.65 L-18.0 19.0 Q-26.1 15.9 -34.55 12.95 L-39.7 2.75 -34.4 4.85 -33.25 4.15 -36.7 -3.5 -36.2 -3.9 -41.2 -0.25 -42.95 -3.8 -38.05 -6.7 -38.55 -6.45 -41.85 -11.95 -45.9 -9.7 -47.4 -12.65 -47.2 -12.75 -44.9 -13.75 -46.75 -16.25 -49.5 -20.25 -49.75 -18.5 -51.15 -22.05 -50.9 -21.8 -48.9 -22.45 -47.35 -22.45 Q-43.4 -20.25 -41.65 -16.4 L-41.35 -15.4 -31.9 -20.1 -30.9 -19.85 -28.9 -18.6 -25.7 -13.3 -20.95 -16.25 -19.75 -15.55 -18.95 -15.5 -17.35 -15.15 M0.75 -20.65 L-0.15 -19.55 -0.25 -19.75 -0.35 -19.35 -3.3 -16.3 -3.95 -20.4 -1.0 -20.2 Q0.1 -20.2 0.75 -20.65 M4.95 -1.45 L4.15 -3.2 2.65 -2.25 -1.25 0.35 -3.85 2.25 0.4 11.3 8.5 5.9 4.95 -1.45 M-3.7 -26.55 L2.5 -26.45 Q2.55 -25.2 2.75 -23.9 L-0.75 -25.4 -1.55 -24.7 Q-2.8 -23.85 -4.1 -23.45 L-4.05 -25.8 -4.0 -25.95 -3.7 -26.55 M50.8 32.0 L50.35 34.75 44.85 37.6 45.35 34.45 50.8 32.0 M-40.55 11.4 L-42.7 11.4 Q-46.6 6.85 -48.95 1.35 L-50.9 -3.25 -52.05 -6.1 -54.45 -13.25 -54.15 -12.8 -53.25 -13.0 -53.15 -13.65 Q-53.2 -15.6 -54.3 -17.25 L-55.35 -16.8 -55.8 -21.4 -53.75 -22.1 -51.35 -11.85 Q-49.5 -4.05 -45.85 3.0 -46.15 4.55 -45.35 5.9 -44.6 7.15 -43.25 7.45 L-40.55 11.4 M43.25 38.4 L38.6 40.5 36.45 40.65 Q35.5 41.05 35.35 41.8 30.1 44.35 24.85 43.4 L24.05 42.85 24.25 41.75 32.05 38.55 33.45 38.5 Q34.05 38.3 34.15 37.9 L40.15 36.05 39.85 37.65 43.25 38.4 M27.25 13.9 L24.35 7.55 21.9 10.05 18.35 13.2 22.15 21.65 25.95 19.35 29.0 17.3 27.25 13.9 M35.9 24.7 L37.85 28.45 39.4 27.2 38.65 21.8 35.9 24.7 M34.75 16.05 L28.25 20.6 30.55 26.75 35.7 21.5 34.75 16.05 M15.05 4.0 L14.35 2.65 13.4 3.65 12.55 4.55 15.8 11.45 16.4 12.25 18.35 10.5 15.05 4.0 M7.0 9.65 L9.55 15.95 14.3 13.55 12.15 9.1 9.6 7.3 7.0 9.65 M7.75 17.45 L5.15 11.15 0.25 14.8 5.8 18.8 7.75 17.45 M3.45 20.1 Q3.05 22.7 5.25 24.55 7.5 26.5 9.45 24.9 7.6 21.2 3.45 20.1 M16.25 14.75 L13.15 17.0 17.45 24.25 19.9 22.95 16.25 14.75 M7.85 20.55 L14.45 25.85 11.3 18.25 7.85 20.55 M19.05 26.7 L16.4 28.15 20.9 31.25 19.05 26.7 M16.65 29.25 Q16.45 28.9 16.05 28.85 L15.25 29.0 Q14.9 29.25 14.85 29.65 14.75 30.05 15.0 30.45 L15.65 30.9 16.4 30.7 16.85 30.0 16.65 29.25 M34.95 25.75 L30.1 30.4 31.65 33.05 35.85 29.75 34.15 26.55 34.95 25.75 M28.8 31.55 L26.45 33.55 30.1 34.3 28.8 31.55 M28.65 28.3 L25.9 22.25 20.95 25.6 24.25 31.8 28.65 28.3 M-7.0 -20.95 L-6.7 -17.45 -8.45 -18.45 -7.0 -20.95 M-9.1 -21.0 L-9.35 -22.2 -9.2 -22.25 -9.1 -21.0 M-38.85 -13.7 L-39.35 -13.45 -36.15 -7.7 -29.15 -11.2 -27.95 -11.85 -30.7 -16.45 -31.6 -18.15 Q-32.55 -17.55 -33.55 -17.0 L-38.85 -13.7 M-23.4 -6.6 L-21.3 -2.45 -16.15 -5.05 -14.3 -6.2 -17.35 -11.3 -18.7 -14.1 Q-20.15 -13.3 -21.65 -12.55 L-25.45 -10.6 -23.4 -6.6 M-27.25 -9.7 L-34.55 -5.2 -30.75 2.7 -31.4 3.1 -23.85 -1.25 -27.25 -9.7 M-1.45 -16.5 L-1.65 -15.8 -1.8 -14.5 -2.7 -15.1 -1.45 -16.5 M-3.0 -15.3 L-3.05 -15.35 -2.7 -15.1 -3.0 -15.3 M-17.15 -2.05 L-13.5 5.65 -7.55 1.8 -11.25 -5.4 -17.15 -2.05 M-5.2 -6.55 L-6.05 -8.45 -8.65 -6.9 -9.6 -6.35 -9.05 -6.65 -6.1 -1.35 -5.15 0.45 -3.45 -0.75 -2.25 -1.65 -5.2 -6.55 M-9.9 7.0 L-5.9 12.5 -3.4 13.35 -2.3 12.75 -5.85 3.8 -9.9 7.0 M-13.7 10.15 L-14.7 9.9 -10.1 11.2 -11.65 8.45 -13.7 10.15 M-15.65 6.9 L-19.25 -0.85 -24.25 1.95 -22.2 7.95 -22.5 7.9 -18.1 9.0 -15.65 6.9 M-29.6 9.45 L-29.15 7.1 -31.6 6.65 -32.05 9.0 -29.6 9.45 M-0.75 18.45 Q-1.05 18.0 -1.6 17.9 L-2.55 18.1 -3.1 18.95 Q-3.2 19.45 -2.9 19.9 L-2.1 20.45 -1.1 20.25 Q-0.65 19.95 -0.55 19.45 -0.45 18.95 -0.75 18.45 M-14.8 13.65 L-15.45 14.85 -15.45 15.1 -8.75 18.25 -7.95 17.6 -8.85 13.85 -13.6 12.8 -14.8 13.65 M-18.95 13.4 L-18.35 12.75 Q-19.0 10.25 -21.7 9.7 L-21.75 10.25 Q-21.85 13.0 -18.95 13.4 M-26.95 3.4 L-31.35 5.75 -25.3 7.2 -26.95 3.4" fill="#cbba76" fill-rule="evenodd" stroke="none"/>
    <path d="M5.6 -23.9 L9.15 -21.9 6.6 -16.2 5.95 -16.65 Q5.95 -20.35 5.6 -23.9 M11.85 -14.1 L11.55 -19.9 11.95 -21.25 16.5 -17.3 16.05 -14.5 14.45 -13.0 11.85 -14.1 M19.05 -17.45 L23.05 -12.6 24.1 -7.3 23.25 -6.8 Q21.8 -6.35 21.1 -7.55 L17.9 -12.05 19.05 -17.45 M2.75 -23.9 L2.8 -23.25 0.75 -20.65 Q0.1 -20.2 -1.0 -20.2 L-3.95 -20.4 -4.1 -23.45 Q-2.8 -23.85 -1.55 -24.7 L-0.75 -25.4 2.75 -23.9 M3.0 -21.5 L3.3 -19.5 3.3 -18.4 1.45 -19.7 3.0 -21.5 M-16.0 -14.35 L-13.0 -12.6 -12.0 -12.85 -10.7 -11.1 -9.7 -11.7 -7.0 -10.35 -12.35 -7.25 -16.0 -14.35 M-3.3 -9.25 L-2.05 -8.5 -1.3 -8.65 -0.15 -7.45 Q0.85 -6.3 2.65 -5.65 L-0.4 -3.15 -3.3 -9.25 M6.75 -4.65 L8.45 -3.6 9.15 -2.05 10.35 -2.05 11.8 -0.85 13.05 -0.8 13.45 0.6 10.65 3.85 6.75 -4.65 M16.55 1.8 L18.4 2.0 18.4 2.05 18.4 3.05 20.25 3.65 20.15 3.75 20.35 3.65 20.55 3.65 20.8 3.5 21.05 3.65 21.2 4.35 Q21.75 5.05 22.45 5.15 22.8 5.2 23.0 5.5 L20.2 8.55 16.55 1.8 M4.95 -1.45 L2.65 -2.25 4.15 -3.2 4.95 -1.45 M-1.25 0.35 L8.5 5.9 0.4 11.3 -3.85 2.25 -1.25 0.35 M33.1 12.3 L33.4 12.6 33.95 13.25 31.25 15.35 28.5 10.7 31.45 11.55 31.5 11.6 31.7 11.6 32.1 11.7 31.6 13.15 33.1 12.3 M45.45 24.85 L46.7 27.05 46.85 27.15 44.4 29.7 43.65 26.75 42.15 28.35 42.8 30.95 35.55 34.65 45.45 24.85 M41.3 21.85 L43.4 23.6 41.9 25.1 41.3 21.85 M38.45 17.3 L37.9 18.15 37.55 17.3 37.7 17.3 38.35 16.8 38.45 17.3 M27.5 8.85 L27.0 8.0 28.15 8.55 28.3 8.7 27.5 8.85 M-47.35 -22.45 L-44.6 -22.05 -41.45 -20.9 -40.05 -21.35 -38.05 -21.0 -37.7 -20.7 -37.6 -20.7 -34.7 -19.75 -33.6 -20.35 -31.9 -20.1 -41.35 -15.4 -41.65 -16.4 Q-43.4 -20.25 -47.35 -22.45 M40.15 36.05 L44.6 33.1 45.35 34.45 44.85 37.6 44.3 38.3 43.25 38.4 39.85 37.65 40.15 36.05 M38.6 40.5 L39.1 41.0 Q39.25 43.4 36.8 43.55 36.0 43.6 35.35 43.1 L35.35 41.8 Q35.5 41.05 36.45 40.65 L38.6 40.5 M32.05 38.55 L31.6 37.95 33.35 36.9 34.15 37.9 Q34.05 38.3 33.45 38.5 L32.05 38.55 M21.9 10.05 L24.35 7.55 27.25 13.9 21.9 10.05 M25.95 19.35 L22.15 21.65 18.35 13.2 25.95 19.35 M34.75 16.05 L35.7 21.5 30.55 26.75 28.25 20.6 34.75 16.05 M35.9 24.7 L38.65 21.8 39.4 27.2 37.85 28.45 35.9 24.7 M15.05 4.0 L13.4 3.65 14.35 2.65 15.05 4.0 M7.0 9.65 L9.6 7.3 12.15 9.1 14.3 13.55 9.55 15.95 7.0 9.65 M0.65 8.35 Q1.45 8.5 2.1 8.05 2.75 7.65 2.9 6.85 3.05 6.0 2.65 5.3 2.2 4.65 1.4 4.5 0.55 4.35 -0.1 4.8 -0.8 5.25 -0.95 6.1 -1.1 6.9 -0.65 7.55 -0.2 8.2 0.65 8.35 M7.75 17.45 L5.8 18.8 0.25 14.8 5.15 11.15 7.75 17.45 M3.45 20.1 Q7.6 21.2 9.45 24.9 7.5 26.5 5.25 24.55 3.05 22.7 3.45 20.1 M7.85 20.55 L11.3 18.25 14.45 25.85 7.85 20.55 M16.25 14.75 L19.9 22.95 17.45 24.25 13.15 17.0 16.25 14.75 M16.65 29.25 L16.85 30.0 16.4 30.7 15.65 30.9 15.0 30.45 Q14.75 30.05 14.85 29.65 14.9 29.25 15.25 29.0 L16.05 28.85 Q16.45 28.9 16.65 29.25 M19.05 26.7 L20.9 31.25 16.4 28.15 19.05 26.7 M22.5 37.2 L20.0 34.35 Q23.05 32.5 25.25 35.25 26.2 36.35 26.75 37.75 L27.2 38.75 26.2 39.75 22.5 37.2 M28.65 28.3 L24.25 31.8 20.95 25.6 25.9 22.25 28.65 28.3 M28.8 31.55 L30.1 34.3 26.45 33.55 28.8 31.55 M34.95 25.75 L34.15 26.55 35.85 29.75 31.65 33.05 30.1 30.4 34.95 25.75 M-49.9 -17.25 L-49.75 -18.5 -49.5 -20.25 -46.75 -16.25 -49.9 -17.25 M-50.15 -13.85 L-47.2 -12.75 -47.4 -12.65 -50.05 -11.4 -50.15 -13.85 M-45.9 -9.7 L-41.85 -11.95 -38.55 -6.45 -38.05 -6.7 -42.95 -3.8 -45.8 -1.75 -49.4 -8.0 -45.9 -9.7 M-41.2 -0.25 L-36.2 -3.9 -36.7 -3.5 -33.25 4.15 -34.4 4.85 -39.7 2.75 -42.8 0.8 -41.2 -0.25 M-54.45 -13.25 L-55.35 -16.8 -54.3 -17.25 Q-53.2 -15.6 -53.15 -13.65 L-53.25 -13.0 -54.15 -12.8 -54.45 -13.25 M-50.9 -3.25 L-50.45 0.05 -51.7 0.6 Q-53.95 -1.5 -52.9 -4.6 L-52.05 -6.1 -50.9 -3.25 M-21.95 -16.8 L-20.95 -16.25 -25.7 -13.3 -28.9 -18.6 -26.45 -17.15 -21.95 -16.8 M-29.15 -11.2 L-36.15 -7.7 -39.35 -13.45 -38.85 -13.7 -29.15 -11.2 M-33.55 -17.0 Q-32.55 -17.55 -31.6 -18.15 L-30.7 -16.45 -33.55 -17.0 M-23.4 -6.6 L-23.05 -6.05 -16.15 -5.05 -21.3 -2.45 -23.4 -6.6 M-17.35 -11.3 L-21.65 -12.55 Q-20.15 -13.3 -18.7 -14.1 L-17.35 -11.3 M-27.25 -9.7 L-23.85 -1.25 -31.4 3.1 -30.75 2.7 -34.55 -5.2 -27.25 -9.7 M-29.1 -1.2 L-27.3 -2.15 -28.8 -5.55 Q-30.75 -4.25 -30.5 -1.9 L-29.1 -1.2 M-17.15 -2.05 L-11.25 -5.4 -7.55 1.8 -13.5 5.65 -17.15 -2.05 M-5.2 -6.55 L-8.1 -7.2 -8.65 -6.9 -6.05 -8.45 -5.2 -6.55 M-11.3 -0.95 L-11.75 -1.15 Q-13.55 -1.5 -14.35 0.2 L-12.95 2.2 -11.35 1.4 -11.3 -0.95 M-6.1 -1.35 L-3.45 -0.75 -5.15 0.45 -6.1 -1.35 M-9.9 7.0 L-5.85 3.8 -2.3 12.75 -3.4 13.35 -5.9 12.5 -9.9 7.0 M-13.7 10.15 L-11.65 8.45 -10.1 11.2 -14.7 9.9 -13.7 10.15 M-15.65 6.9 L-18.1 9.0 -22.5 7.9 -22.2 7.95 -24.25 1.95 -19.25 -0.85 -15.65 6.9 M-18.95 13.4 Q-21.85 13.0 -21.75 10.25 L-21.7 9.7 Q-19.0 10.25 -18.35 12.75 L-18.95 13.4 M-14.8 13.65 L-13.6 12.8 -8.85 13.85 -7.95 17.6 -8.75 18.25 -15.45 15.1 -15.45 14.85 -14.8 13.65 M-0.75 18.45 Q-0.45 18.95 -0.55 19.45 -0.65 19.95 -1.1 20.25 L-2.1 20.45 -2.9 19.9 Q-3.2 19.45 -3.1 18.95 L-2.55 18.1 -1.6 17.9 Q-1.05 18.0 -0.75 18.45 M-29.6 9.45 L-32.05 9.0 -31.6 6.65 -29.15 7.1 -29.6 9.45 M-26.95 3.4 L-25.3 7.2 -31.35 5.75 -26.95 3.4 M-45.85 3.0 L-45.0 2.2 Q-41.05 2.75 -39.45 6.55 L-41.3 7.8 -43.25 7.45 Q-44.6 7.15 -45.35 5.9 -46.15 4.55 -45.85 3.0" fill="#e1d7b0" fill-rule="evenodd" stroke="none"/>
    <path d="M2.65 -2.25 L4.95 -1.45 8.5 5.9 -1.25 0.35 2.65 -2.25 M21.9 10.05 L27.25 13.9 29.0 17.3 25.95 19.35 18.35 13.2 21.9 10.05 M13.4 3.65 L15.05 4.0 18.35 10.5 16.4 12.25 15.8 11.45 12.55 4.55 13.4 3.65 M0.65 8.35 Q-0.2 8.2 -0.65 7.55 -1.1 6.9 -0.95 6.1 -0.8 5.25 -0.1 4.8 0.55 4.35 1.4 4.5 2.2 4.65 2.65 5.3 3.05 6.0 2.9 6.85 2.75 7.65 2.1 8.05 1.45 8.5 0.65 8.35 M-50.15 -13.85 L-49.9 -17.25 -46.75 -16.25 -44.9 -13.75 -47.2 -12.75 -50.15 -13.85 M-29.15 -11.2 L-38.85 -13.7 -33.55 -17.0 -30.7 -16.45 -27.95 -11.85 -29.15 -11.2 M-16.15 -5.05 L-23.05 -6.05 -23.4 -6.6 -25.45 -10.6 -21.65 -12.55 -17.35 -11.3 -14.3 -6.2 -16.15 -5.05 M-29.1 -1.2 L-30.5 -1.9 Q-30.75 -4.25 -28.8 -5.55 L-27.3 -2.15 -29.1 -1.2 M-11.3 -0.95 L-11.35 1.4 -12.95 2.2 -14.35 0.2 Q-13.55 -1.5 -11.75 -1.15 L-11.3 -0.95 M-8.65 -6.9 L-8.1 -7.2 -5.2 -6.55 -2.25 -1.65 -3.45 -0.75 -6.1 -1.35 -9.05 -6.65 -9.6 -6.35 -8.65 -6.9" fill="#ede8d1" fill-rule="evenodd" stroke="none"/>
  </g>
</svg>
