<?xml version="1.0" encoding="UTF-8" standalone="no"?>
<svg xmlns:ffdec="https://www.free-decompiler.com/flash" xmlns:xlink="http://www.w3.org/1999/xlink" ffdec:objectType="shape" height="127.1px" width="170.15px" xmlns="http://www.w3.org/2000/svg">
  <g transform="matrix(1.0, 0.0, 0.0, 1.0, 85.1, 63.55)">
    <path d="M46.55 -43.35 Q46.45 -48.5 46.9 -52.95 47.85 -61.9 50.95 -63.05 50.0 -58.05 49.75 -55.4 49.25 -50.85 50.3 -42.45 L50.95 -40.85 Q51.8 -39.15 52.65 -38.6 57.15 -51.4 59.05 -55.0 62.75 -62.05 67.65 -62.65 L69.2 -62.45 Q65.55 -59.95 62.55 -57.2 60.6 -55.0 56.75 -42.6 53.15 -30.85 53.2 -29.1 L53.85 -28.7 Q55.2 -30.0 56.6 -35.35 L56.5 -34.5 Q58.8 -36.35 63.85 -42.05 69.05 -47.05 74.35 -47.7 L78.85 -47.35 85.05 -46.5 Q79.05 -45.15 74.45 -43.2 L77.6 -45.2 75.95 -45.55 73.7 -45.6 Q69.7 -45.1 55.95 -29.2 51.3 -23.8 48.3 -19.6 51.6 -25.5 52.2 -30.3 52.65 -33.35 52.1 -36.0 L52.05 -36.35 51.4 -36.8 49.75 -40.95 Q48.15 -44.85 47.85 -47.05 47.7 -48.05 48.5 -53.0 48.0 -52.2 46.55 -43.35 M62.25 -34.3 Q59.3 -30.15 59.0 -24.8 58.85 -20.9 60.45 -12.35 61.8 -5.45 60.65 -2.95 54.2 11.0 43.1 22.3 21.65 44.3 -9.85 48.3 -16.3 49.15 -24.95 47.25 L-34.75 44.65 Q-25.2 46.6 -18.8 46.9 L-9.1 46.55 -5.45 45.8 -0.7 44.4 6.0 43.0 10.65 41.25 Q11.7 41.1 12.4 40.5 18.1 37.95 26.5 33.3 27.6 33.55 29.25 31.7 L35.0 28.05 37.85 25.65 38.1 25.4 40.7 22.55 Q52.9 12.5 56.1 -2.2 58.05 -11.3 56.5 -23.5 L56.1 -26.2 53.25 -21.85 Q51.55 -18.75 50.15 -15.4 L49.0 -13.05 46.95 -9.0 43.15 -4.1 42.75 -3.75 41.3 -3.7 40.85 -3.9 41.75 -4.75 41.35 -4.6 37.6 -0.75 40.45 -12.55 Q43.25 -22.85 44.6 -23.0 L45.35 -23.05 45.5 -22.85 Q45.55 -22.3 45.0 -20.7 L40.6 -8.7 40.2 -7.7 40.1 -7.15 40.15 -7.2 40.8 -8.05 43.45 -11.85 Q42.35 -9.35 42.55 -7.85 L42.8 -7.1 Q42.9 -7.0 43.05 -6.95 L44.0 -7.95 Q47.4 -11.7 49.4 -15.7 L52.7 -23.3 Q55.35 -28.45 62.25 -34.3 M-42.9 52.55 L-47.0 58.95 -50.05 63.55 -50.75 63.55 -51.0 62.75 Q-50.25 56.8 -49.75 55.8 -47.95 51.6 -40.05 43.15 L-43.05 41.85 Q-44.3 41.2 -44.85 41.25 -45.95 41.4 -54.6 52.1 -63.2 62.85 -63.35 62.85 L-64.0 62.8 -64.0 62.65 Q-64.1 59.4 -58.85 51.2 -53.3 42.65 -48.4 39.25 -49.35 38.6 -51.8 38.05 L-55.0 37.65 Q-62.05 38.55 -73.6 43.55 -79.35 46.0 -84.5 48.35 L-85.1 48.25 -85.05 47.55 -82.8 45.45 -75.4 40.95 -75.85 41.2 -76.8 41.3 Q-75.0 37.7 -68.95 35.05 -65.8 33.75 -56.35 31.0 -64.95 27.5 -69.75 27.25 -73.6 27.0 -74.85 26.3 L-72.5 25.95 Q-65.75 25.1 -61.3 26.1 -60.0 26.3 -54.2 28.5 L-54.15 26.55 -53.1 26.65 Q-53.2 28.0 -53.5 28.75 L-54.0 29.9 -54.6 30.3 -56.1 28.15 Q-56.7 27.6 -57.9 27.75 L-58.6 27.9 -58.75 28.1 -57.8 29.55 Q-56.85 31.0 -56.25 30.9 L-53.7 30.45 -51.4 30.15 Q-50.5 30.1 -50.45 29.85 L-51.7 29.5 -52.6 29.05 -48.55 30.0 -48.15 30.2 -44.9 31.5 Q-44.8 32.0 -44.5 32.0 L-44.15 31.95 -42.95 32.45 Q-41.8 33.05 -40.45 33.35 L-39.3 33.45 Q-38.65 33.35 -38.4 33.75 -38.2 34.0 -38.35 34.2 L-28.8 33.65 -22.8 32.8 -24.4 33.5 Q-18.9 32.9 -18.4 31.2 L-17.95 29.35 Q-17.5 28.1 -16.0 26.95 L-22.1 27.2 Q-25.35 26.8 -26.2 25.2 -26.9 23.85 -29.15 24.15 -31.05 24.35 -34.1 26.65 L-39.65 31.3 Q-38.2 28.1 -37.35 26.85 L-31.95 17.95 -31.75 16.5 Q-32.8 12.75 -33.3 8.05 L-33.45 6.25 -33.55 4.4 Q-33.8 4.45 -33.95 3.5 -33.3 0.05 -33.2 -4.3 -31.5 -9.0 -30.95 -11.35 L-32.4 -10.15 -27.45 -15.8 Q-29.15 -12.75 -29.95 -8.2 L-29.7 9.35 -28.55 17.45 Q-28.15 20.85 -23.0 22.25 L-11.7 22.75 -7.1 20.95 -2.7 19.0 -3.15 18.75 -4.75 17.6 -12.85 12.35 -14.3 11.55 -16.2 10.45 -17.05 10.0 -21.05 8.15 -17.4 7.95 -16.05 8.15 -13.7 8.6 -12.25 9.1 -11.85 9.2 Q-9.75 9.85 -6.0 12.2 L-1.95 15.05 -0.3 16.15 Q1.7 17.1 3.1 16.55 L3.65 16.55 4.0 16.05 3.8 10.05 3.75 6.65 3.7 4.55 3.25 -3.65 Q3.0 -8.2 3.1 -9.8 L3.3 -10.7 3.55 -11.35 4.8 -10.9 5.55 -9.85 6.15 -8.9 5.85 -9.1 Q5.0 -7.9 4.9 -3.15 4.7 9.75 4.3 17.45 5.25 16.25 5.6 13.65 5.8 11.5 5.65 7.4 L5.75 6.05 6.55 -1.4 6.25 7.3 6.15 9.15 5.85 15.05 Q10.8 12.45 9.9 11.15 L9.05 10.55 Q8.8 10.4 9.4 10.3 L9.65 10.7 10.85 6.3 11.15 5.8 11.55 5.8 Q12.0 7.2 12.3 10.65 L12.5 11.0 Q13.4 10.25 13.2 8.0 13.1 6.55 12.2 3.4 L10.6 -2.5 9.55 -6.25 9.35 -6.95 9.3 -12.1 9.65 -19.1 9.85 -20.9 10.5 -18.7 10.95 -17.1 11.8 -13.75 12.25 -11.5 11.95 -11.3 Q11.65 -10.9 11.6 -10.05 L13.25 -0.65 14.95 9.9 15.05 9.05 Q15.75 9.3 15.95 9.65 16.85 9.95 16.75 9.15 L17.1 10.05 16.55 10.45 Q16.25 10.5 15.2 12.05 13.65 14.3 11.65 16.2 L11.55 16.4 11.95 13.45 11.9 13.2 10.2 12.1 Q9.25 14.8 9.1 16.9 L9.15 15.65 4.8 20.45 5.05 22.05 4.8 22.25 Q1.65 18.7 -4.95 14.55 -11.7 10.4 -13.45 10.95 L-8.45 14.4 3.3 23.2 1.85 24.05 1.35 23.35 0.7 22.15 0.15 21.55 -1.5 22.45 -0.4 22.85 -0.35 22.85 Q-2.85 24.1 -9.35 25.95 -14.55 27.45 -15.4 28.5 L-13.9 28.2 -12.55 28.25 -14.35 29.75 -13.2 30.35 -10.95 28.9 -14.05 33.35 Q-16.15 36.55 -15.95 38.05 L-15.6 38.85 -15.2 38.9 -15.8 39.85 -16.55 41.25 -17.25 42.6 -17.9 44.75 Q-18.3 45.7 -18.9 45.8 L-19.6 45.85 -19.55 45.75 -19.7 45.6 -20.15 43.95 Q-20.2 43.35 -19.9 42.85 L-19.4 41.8 -18.85 40.45 -18.2 38.85 Q-17.4 37.7 -16.55 35.55 L-15.9 33.55 -16.1 32.75 -22.15 35.75 -27.6 38.7 Q-36.25 44.35 -38.75 46.9 L-44.9 54.85 -42.9 52.55 M-63.15 24.55 L-72.25 22.3 -82.2 19.7 Q-82.75 17.95 -80.7 15.75 -77.4 11.95 -67.8 7.45 -72.85 4.35 -73.15 3.9 L-71.0 4.15 -67.35 5.25 -64.6 5.95 -61.0 5.3 Q-62.25 5.75 -62.65 6.2 L-63.3 6.75 -61.2 6.65 -59.3 6.25 -52.85 6.85 -47.25 7.65 -48.85 11.45 -50.55 15.65 -51.0 17.05 Q-52.95 14.35 -58.7 11.0 -64.5 7.6 -67.15 7.75 L-60.55 11.85 -65.65 8.8 Q-71.55 11.5 -74.5 13.65 L-80.9 18.4 -65.35 21.5 -66.8 22.15 Q-65.9 23.45 -63.15 24.55 M-59.7 4.9 L-58.85 4.55 Q-57.0 3.55 -56.3 3.45 L-50.3 3.7 -49.75 4.45 Q-49.3 4.85 -48.25 4.85 L-47.6 3.05 Q-49.7 2.1 -55.0 0.9 L-60.3 -0.15 -60.95 -0.05 -61.15 -0.9 Q-61.2 -1.3 -59.8 -2.75 L-55.4 -1.5 -48.55 -1.1 Q-47.4 -1.25 -46.2 -2.1 -47.5 -3.2 -53.25 -4.95 L-60.1 -6.95 -60.0 -7.6 -59.8 -7.75 -56.2 -7.9 -50.25 -7.45 -50.6 -7.0 -45.8 -4.8 Q-44.35 -4.15 -43.0 -3.1 L-45.2 -0.2 -49.9 -0.7 -50.75 -0.5 -50.85 -0.05 -48.7 1.7 Q-46.6 3.1 -43.95 4.1 L-45.2 6.5 -59.7 4.9 M-48.0 -7.15 L-42.6 -6.65 Q-47.1 -8.95 -51.55 -9.9 L-55.4 -10.4 -59.75 -9.75 -57.0 -10.55 Q-49.45 -11.5 -45.85 -10.3 -42.9 -9.3 -42.6 -6.65 L-43.15 -5.55 Q-45.55 -6.65 -48.0 -7.15 M-62.7 -9.15 Q-64.6 -8.65 -65.5 -8.2 -65.3 -8.35 -69.3 -9.9 L-68.2 -10.35 -64.9 -11.5 -60.8 -12.7 -55.5 -12.55 -63.7 -10.9 Q-63.7 -10.75 -64.8 -10.5 -63.95 -9.25 -62.7 -9.15 M-45.9 -11.5 L-39.8 -10.1 -35.65 -9.85 -37.05 -10.4 -45.25 -13.85 Q-51.4 -16.4 -52.75 -16.75 L-52.75 -17.45 -52.5 -17.6 -51.75 -17.75 -48.85 -17.75 -45.5 -17.55 -47.7 -17.1 Q-46.5 -15.4 -42.55 -13.45 -40.05 -12.25 -33.4 -9.4 L-34.05 -8.85 -34.1 -9.5 -34.95 -9.35 -36.5 -9.1 Q-37.7 -8.9 -40.9 -9.9 L-45.9 -11.5 M-40.65 -16.35 L-41.2 -17.1 -38.95 -18.7 Q-37.3 -18.95 -35.0 -17.75 -33.7 -17.1 -31.45 -15.65 L-30.05 -17.15 Q-29.4 -17.95 -29.5 -18.65 L-29.8 -19.9 -30.0 -20.35 -29.5 -19.9 Q-29.15 -19.6 -29.05 -18.95 -30.1 -15.85 -32.45 -14.05 L-35.3 -16.3 -36.0 -15.8 -36.1 -14.9 Q-36.05 -14.35 -35.4 -13.7 L-34.7 -12.65 -34.7 -11.0 -37.95 -14.3 -37.0 -13.9 -36.5 -15.15 -39.6 -15.7 -40.65 -16.35 M-30.25 -20.9 L-32.15 -23.0 -31.2 -22.1 -30.25 -20.9 M-36.9 -25.7 L-43.25 -27.0 Q-49.15 -28.3 -50.65 -28.95 L-50.5 -29.65 -50.15 -30.05 -49.35 -30.25 -45.45 -30.1 -40.55 -29.8 -43.6 -29.7 -45.7 -29.3 -36.9 -25.7 M-36.6 -28.5 Q-32.85 -27.25 -24.8 -22.15 -26.2 -21.0 -26.95 -20.9 -27.7 -21.45 -27.35 -21.85 L-28.9 -21.65 Q-29.95 -23.7 -31.05 -24.8 -32.75 -26.5 -36.6 -28.5 M-24.45 -22.4 Q-23.65 -24.25 -23.4 -25.65 L-18.75 -23.6 Q-21.1 -26.75 -22.55 -27.1 -23.75 -26.9 -24.55 -27.4 -25.6 -28.25 -32.35 -31.15 -38.45 -34.05 -40.05 -34.6 L-40.35 -34.6 -47.1 -37.6 Q-42.9 -39.35 -32.5 -34.4 -26.7 -31.6 -17.6 -25.95 L-15.1 -27.9 -12.75 -29.55 Q-14.55 -32.4 -12.6 -42.9 -10.7 -53.15 -7.85 -56.8 L-7.75 -56.5 Q-7.55 -54.85 -8.7 -50.05 L-9.55 -50.6 Q-11.15 -46.35 -12.75 -31.0 L-11.55 -26.7 -10.8 -26.9 -10.8 -26.7 Q-12.65 -26.2 -15.45 -23.95 L-4.5 -25.2 -2.3 -25.25 1.9 -24.6 11.45 -22.7 20.95 -20.6 Q21.55 -22.5 22.5 -24.6 L23.95 -26.25 24.1 -26.1 24.15 -25.65 24.1 -23.6 Q23.85 -21.0 23.7 -21.5 L22.4 -21.35 Q22.2 -16.8 21.15 -9.5 L20.35 -2.75 Q20.45 -1.75 22.05 2.75 23.95 7.9 25.45 10.35 23.5 11.05 23.1 11.75 22.8 12.25 21.9 12.4 L20.1 11.85 19.6 11.7 19.15 10.4 Q18.65 8.4 19.1 6.6 L18.4 7.35 18.05 6.05 19.8 4.75 Q20.55 4.25 20.5 3.65 20.05 2.05 19.7 -1.85 L19.55 -5.65 19.7 -11.0 20.25 -16.65 20.0 -16.65 Q18.4 -17.2 15.8 -19.05 12.95 -21.1 11.0 -21.85 3.6 -25.1 -12.05 -23.1 -20.55 -22.0 -23.7 -20.0 L-21.15 -23.05 -21.45 -23.6 -22.45 -23.6 Q-23.05 -23.55 -23.55 -23.1 L-24.45 -22.4 M-10.95 -36.65 L-10.5 -33.8 -10.6 -33.25 -10.7 -33.05 -10.05 -33.1 Q-9.6 -33.15 -7.3 -37.65 -4.4 -43.25 -1.25 -46.7 L-1.0 -46.45 Q-0.85 -45.8 -2.3 -42.85 -4.95 -41.8 -7.85 -35.9 L-10.6 -29.55 -11.45 -31.8 -10.95 -36.65 M-3.45 -40.35 L-5.15 -36.15 -6.35 -32.45 -5.85 -35.6 Q-5.1 -38.65 -3.45 -40.35 M-6.35 -32.15 L-0.8 -34.7 Q-1.3 -34.85 -1.65 -35.5 L-2.05 -36.25 -1.85 -36.5 -1.3 -36.65 1.15 -36.1 2.1 -35.85 3.35 -37.15 Q4.7 -38.5 6.2 -38.65 8.8 -39.0 9.95 -41.6 10.75 -43.35 11.4 -47.8 13.0 -59.0 16.65 -63.55 16.55 -59.55 17.05 -59.35 L17.95 -59.4 Q16.55 -52.85 16.2 -47.2 15.95 -43.1 16.2 -40.85 L17.85 -39.2 Q20.15 -37.75 23.55 -39.0 L23.0 -37.95 20.6 -37.6 Q19.05 -38.6 13.35 -38.5 13.3 -37.85 13.15 -38.85 12.85 -41.45 15.7 -56.35 12.6 -50.65 11.75 -43.5 11.2 -38.4 11.8 -35.7 L6.4 -35.0 2.65 -34.65 Q0.65 -34.4 -1.0 -33.5 -3.25 -32.25 -3.35 -30.25 L-3.15 -29.6 -6.7 -28.85 Q-6.1 -30.25 -6.35 -32.15 M23.95 -39.3 L23.1 -40.0 Q23.6 -40.65 25.25 -41.1 L22.35 -46.25 Q20.0 -50.8 19.75 -52.8 L19.8 -54.65 Q20.05 -56.5 20.55 -57.45 L21.8 -54.45 20.95 -54.4 21.1 -52.8 Q22.15 -44.5 27.05 -40.05 25.35 -39.9 23.95 -39.3 M22.15 -53.7 Q22.65 -52.4 25.45 -47.5 27.9 -43.2 29.3 -41.5 L28.2 -42.35 Q25.3 -44.25 24.9 -44.95 24.05 -46.35 23.5 -48.55 L22.15 -53.7 M30.0 -40.7 L29.45 -49.9 Q29.45 -56.15 31.85 -59.95 L32.25 -57.1 32.2 -57.1 30.7 -41.5 31.25 -40.45 32.15 -38.85 30.85 -38.8 Q30.75 -39.8 30.0 -40.7 M32.75 -51.95 L33.15 -47.2 Q33.5 -44.3 34.5 -42.25 L35.7 -40.15 33.5 -41.05 Q32.35 -41.8 32.15 -43.45 32.05 -44.2 32.25 -46.45 L32.75 -51.95 M36.55 -40.0 L37.4 -40.8 Q38.0 -41.35 38.15 -41.35 40.75 -41.65 41.25 -41.35 L42.35 -40.2 36.55 -40.0 M43.75 -40.1 L43.75 -40.9 44.2 -41.1 45.4 -40.75 46.25 -40.35 46.8 -39.35 47.4 -38.1 46.35 -38.25 Q46.25 -39.1 45.5 -39.7 44.7 -40.25 43.75 -40.1 M44.5 -33.55 L45.75 -36.8 Q45.5 -37.5 47.65 -35.7 L47.55 -33.55 47.2 -32.25 Q43.4 -25.25 40.65 -18.95 35.3 -6.85 35.55 1.6 L34.65 3.3 34.1 -2.55 33.4 -4.85 32.7 -7.1 33.1 -12.85 33.45 -18.6 32.95 -20.7 Q32.45 -22.1 32.2 -22.1 30.65 -18.35 31.65 -7.7 32.45 1.4 31.0 1.6 30.2 3.3 29.7 3.35 28.45 3.5 28.05 4.35 L26.3 9.0 23.3 1.8 Q22.0 -1.75 21.75 -3.5 L22.25 -6.8 23.2 -13.85 22.95 -10.9 23.45 -11.9 23.95 -12.6 23.25 -8.65 Q22.6 -5.1 22.75 -3.85 22.8 -3.3 23.2 -2.35 L23.9 -0.75 24.2 -1.1 24.2 -0.05 Q24.25 0.4 25.7 2.45 L27.65 1.25 29.0 0.15 Q30.3 -0.6 30.3 -3.8 L30.05 -6.9 29.75 -13.9 29.8 -15.85 30.05 -19.05 26.45 -18.85 Q25.85 -18.75 25.0 -18.25 23.6 -17.45 23.75 -16.4 24.1 -13.5 25.75 -11.25 L27.25 -9.5 25.9 -6.05 25.75 -9.75 24.7 -11.9 23.2 -14.05 23.9 -20.1 27.55 -19.65 28.65 -19.5 30.05 -19.35 30.15 -19.7 30.5 -21.7 Q31.0 -23.7 31.65 -25.5 32.6 -27.15 33.7 -28.5 L34.1 -27.65 34.0 -26.85 33.65 -26.0 33.0 -24.4 33.25 -24.2 34.4 -24.4 34.35 -22.25 Q34.45 -20.8 34.7 -19.55 L34.2 -15.4 33.6 -10.65 33.6 -11.65 33.4 -11.1 Q33.2 -10.3 33.3 -9.7 L33.7 -7.65 35.35 -1.85 35.6 -3.5 Q36.55 -10.2 37.3 -13.3 L39.75 -18.8 40.95 -21.9 43.35 -30.05 43.5 -30.6 43.95 -31.85 44.5 -33.55 M34.75 -38.65 L36.55 -38.5 34.75 -38.65 M41.7 -38.3 L43.95 -38.2 42.55 -38.15 41.7 -38.3 M-12.5 35.0 Q-10.5 31.9 -8.05 29.55 -6.65 28.15 -6.75 27.3 -6.8 26.75 -7.1 26.3 L-7.45 25.65 -0.3 24.65 1.75 24.15 -0.05 25.25 1.75 25.15 2.25 25.3 0.05 25.65 -0.05 25.25 -0.65 25.65 Q-2.9 27.25 -3.35 27.6 -4.55 28.1 -7.2 30.05 -10.85 32.6 -12.5 35.0 M9.2 23.4 L9.75 23.05 Q10.35 22.75 10.85 22.6 L9.2 23.4 M15.6 20.2 L16.25 19.45 17.1 19.25 15.6 20.2 M17.95 18.5 Q17.85 17.65 18.25 17.05 18.6 16.4 19.2 16.35 L18.8 17.25 17.95 18.5 M24.7 -38.15 Q24.8 -38.5 26.3 -38.6 L28.85 -38.65 24.7 -38.15 M44.0 -7.95 L43.35 -7.0 43.3 -6.8 44.0 -7.95 M14.3 11.85 Q14.4 10.7 14.05 11.9 L13.7 13.4 14.3 11.85 M3.9 20.55 L3.95 19.35 3.2 19.8 3.9 20.55 M6.35 20.05 Q6.65 19.8 7.3 19.7 8.9 19.5 9.0 20.25 L6.25 21.7 5.8 20.85 6.35 20.05 M-38.7 -2.45 L-39.45 -1.55 -41.2 0.45 -38.5 -2.65 -38.7 -2.45 M-22.7 34.65 L-23.6 35.55 -19.05 33.1 Q-20.6 33.4 -23.05 34.8 L-22.7 34.65 M-36.15 35.6 Q-38.7 35.5 -39.7 35.65 -40.3 35.7 -41.55 37.3 L-42.65 38.85 Q-38.85 41.3 -37.85 41.2 -37.3 41.1 -35.75 39.8 L-32.3 37.0 -29.8 35.45 -36.15 35.6 M-18.4 31.5 L-17.25 31.15 -15.9 30.5 Q-17.8 30.7 -18.4 31.5 M-53.7 17.85 Q-52.0 19.9 -52.05 20.05 L-53.3 19.1 -53.45 19.35 -53.7 17.85 M-53.55 19.4 L-54.15 20.55 -64.65 15.55 -65.05 15.75 -65.45 16.25 -59.25 19.1 -64.7 19.0 Q-69.0 18.7 -70.8 16.7 -69.45 14.2 -62.3 15.7 -55.55 17.1 -53.55 19.4 M-56.05 21.15 Q-55.15 21.65 -54.1 22.85 -52.95 24.15 -53.05 24.8 L-53.05 25.15 -57.05 23.0 -55.45 23.25 -56.05 21.5 -56.05 21.15 M-56.75 6.8 L-58.2 6.9 -61.3 7.5 Q-57.05 9.95 -54.9 11.75 -52.95 13.4 -51.95 15.2 L-48.75 7.75 -56.75 6.8 M-61.3 34.8 L-64.5 36.25 -72.8 39.95 -72.4 40.35 -71.4 40.55 Q-62.65 39.45 -55.2 37.0 L-47.35 33.85 -44.6 34.15 -44.55 34.15 -43.9 34.2 -42.3 34.2 -43.2 33.9 -44.9 33.3 -44.95 33.25 -45.65 33.05 -47.25 32.45 -48.75 32.0 -56.1 31.8 Q-59.85 34.2 -61.3 34.8 M-40.65 34.8 L-42.1 34.25 Q-51.85 42.55 -56.95 49.5 -60.45 54.15 -60.3 55.4 L-60.05 56.25 -59.45 56.3 -40.65 34.8 M-46.7 36.25 L-45.5 37.15 -44.5 36.0 -46.7 36.25 M-48.9 58.05 L-48.6 58.95 Q-45.9 54.15 -42.45 49.8 -48.35 55.45 -48.9 58.05" fill="#877634" fill-rule="evenodd" stroke="none"/>
    <path d="M62.55 -57.2 L63.55 -57.85 62.1 -56.15 60.65 -52.6 Q59.55 -48.9 58.15 -42.0 L56.6 -35.35 Q55.2 -30.0 53.85 -28.7 L53.2 -29.1 Q53.15 -30.85 56.75 -42.6 60.6 -55.0 62.55 -57.2 M74.45 -43.2 Q67.2 -38.6 62.25 -34.3 55.35 -28.45 52.7 -23.3 L49.4 -15.7 Q47.4 -11.7 44.0 -7.95 L43.05 -6.95 Q42.9 -7.0 42.8 -7.1 L42.55 -7.85 Q42.35 -9.35 43.45 -11.85 45.9 -15.4 46.6 -16.85 L46.55 -17.15 45.8 -19.2 45.0 -20.7 Q45.55 -22.3 45.5 -22.85 L45.35 -23.05 44.6 -23.0 Q43.25 -22.85 40.45 -12.55 L37.6 -0.75 37.15 1.55 37.05 3.0 36.55 3.45 35.95 2.9 35.55 1.6 Q35.3 -6.85 40.65 -18.95 43.4 -25.25 47.2 -32.25 L49.65 -34.1 52.1 -36.0 Q52.65 -33.35 52.2 -30.3 51.6 -25.5 48.3 -19.6 51.3 -23.8 55.95 -29.2 69.7 -45.1 73.7 -45.6 L75.95 -45.55 77.6 -45.2 74.45 -43.2 M-34.75 44.65 L-35.0 44.6 Q-36.85 46.3 -42.9 52.55 L-44.9 54.85 -38.75 46.9 Q-36.25 44.35 -27.6 38.7 L-19.4 41.8 -19.9 42.85 Q-20.2 43.35 -20.15 43.95 L-19.7 45.6 -19.55 45.75 -19.6 45.85 -18.9 45.8 Q-18.3 45.7 -17.9 44.75 L-17.25 42.6 -14.35 43.7 -13.7 42.05 -16.55 41.25 -15.8 39.85 Q-13.2 41.45 -12.95 41.1 -12.3 39.95 -11.8 39.75 L-11.65 39.75 -11.55 40.3 Q-11.5 40.75 -11.8 42.05 -12.05 43.55 -12.55 44.5 L-10.1 44.25 -11.35 42.6 Q-8.4 42.0 -7.65 42.95 -6.9 44.05 -5.2 43.8 -4.0 43.65 -2.1 42.4 L0.55 40.75 0.75 40.55 Q1.0 40.55 1.05 41.15 1.2 42.25 0.85 42.9 L-0.7 44.4 -5.45 45.8 -9.1 46.55 -18.8 46.9 Q-25.2 46.6 -34.75 44.65 M-54.15 26.55 L-54.15 26.4 -63.15 24.55 Q-65.9 23.45 -66.8 22.15 L-65.35 21.5 -61.1 21.6 Q-58.55 22.15 -57.05 23.0 L-53.05 25.15 -53.05 24.8 Q-52.95 24.15 -54.1 22.85 -55.15 21.65 -56.05 21.15 L-59.25 19.1 -65.45 16.25 -65.05 15.75 -64.65 15.55 -54.15 20.55 -53.55 19.4 -53.45 19.35 -53.3 19.1 -52.05 20.05 Q-52.0 19.9 -53.7 17.85 -55.45 15.9 -58.95 12.9 L-60.55 11.85 -67.15 7.75 Q-64.5 7.6 -58.7 11.0 -52.95 14.35 -51.0 17.05 L-50.55 15.65 -48.85 11.45 -47.25 7.65 -52.85 6.85 -59.3 6.25 -61.2 6.65 -63.3 6.75 -62.65 6.2 Q-62.25 5.75 -61.0 5.3 L-59.7 4.9 -45.2 6.5 -43.9 6.75 Q-41.75 4.55 -38.35 -0.75 L-39.45 -1.55 -38.7 -2.45 Q-37.9 -2.1 -36.3 -0.85 L-33.2 -4.3 Q-33.3 0.05 -33.95 3.5 -33.8 4.45 -33.55 4.4 L-38.6 12.35 Q-41.05 10.9 -41.7 10.95 L-42.05 11.9 -39.4 13.85 Q-40.05 14.7 -41.4 17.65 -43.0 16.7 -44.4 16.35 -45.85 16.05 -45.25 16.85 L-41.85 19.1 -44.75 27.75 Q-45.2 29.45 -44.95 31.4 L-44.9 31.5 -48.15 30.2 Q-47.5 26.3 -47.6 25.55 -47.7 24.95 -48.2 24.55 L-48.65 24.35 -48.7 25.3 -48.55 30.0 -52.6 29.05 -51.7 29.5 -50.45 29.85 Q-50.5 30.1 -51.4 30.15 L-53.7 30.45 -56.25 30.9 Q-56.85 31.0 -57.8 29.55 L-58.75 28.1 -58.6 27.9 -57.9 27.75 Q-56.7 27.6 -56.1 28.15 L-54.6 30.3 -54.0 29.9 -53.5 28.75 Q-53.2 28.0 -53.1 26.65 L-54.15 26.55 M-50.25 -7.45 L-48.0 -7.15 Q-45.55 -6.65 -43.15 -5.55 L-42.6 -6.65 Q-42.9 -9.3 -45.85 -10.3 -49.45 -11.5 -57.0 -10.55 L-59.75 -9.75 -61.6 -9.25 -62.7 -9.15 Q-63.95 -9.25 -64.8 -10.5 -63.7 -10.75 -63.7 -10.9 L-55.5 -12.55 -49.1 -12.2 -45.9 -11.5 -40.9 -9.9 Q-37.7 -8.9 -36.5 -9.1 L-34.95 -9.35 -34.1 -9.5 -34.05 -8.85 Q-34.05 -7.75 -35.5 -5.65 -37.0 -3.4 -38.5 -2.65 L-41.2 0.45 Q-41.0 1.8 -41.85 2.9 -42.6 3.95 -43.95 4.1 -46.6 3.1 -48.7 1.7 L-50.85 -0.05 -50.75 -0.5 -49.9 -0.7 -45.2 -0.2 -43.0 -3.1 Q-44.35 -4.15 -45.8 -4.8 L-50.6 -7.0 -50.25 -7.45 M-45.5 -17.55 L-43.2 -17.0 -40.65 -16.35 -39.6 -15.7 -37.95 -14.3 -34.7 -11.0 -34.7 -12.65 -35.4 -13.7 Q-36.05 -14.35 -36.1 -14.9 L-36.0 -15.8 -35.3 -16.3 -32.45 -14.05 Q-30.1 -15.85 -29.05 -18.95 -29.15 -19.6 -29.5 -19.9 L-30.0 -20.35 -30.25 -20.9 -31.2 -22.1 -32.15 -23.0 Q-33.3 -23.9 -36.9 -25.7 L-45.7 -29.3 -43.6 -29.7 -40.55 -29.8 -36.6 -28.5 Q-32.75 -26.5 -31.05 -24.8 -29.95 -23.7 -28.9 -21.65 L-27.35 -21.85 Q-27.7 -21.45 -26.95 -20.9 -26.2 -21.0 -24.8 -22.15 L-24.45 -22.4 -23.55 -23.1 Q-23.05 -23.55 -22.45 -23.6 L-21.45 -23.6 -21.15 -23.05 -23.7 -20.0 -23.8 -19.95 -23.85 -19.85 -23.9 -19.8 -23.95 -19.8 Q-26.0 -18.4 -27.45 -15.8 L-32.4 -10.15 -33.2 -9.5 -33.4 -9.4 Q-40.05 -12.25 -42.55 -13.45 -46.5 -15.4 -47.7 -17.1 L-45.5 -17.55 M-23.4 -25.65 L-32.55 -30.15 -40.55 -34.3 -40.35 -34.6 -40.05 -34.6 Q-38.45 -34.05 -32.35 -31.15 -25.6 -28.25 -24.55 -27.4 -23.75 -26.9 -22.55 -27.1 -21.1 -26.75 -18.75 -23.6 L-23.4 -25.65 M-8.7 -50.05 L-10.95 -36.65 -11.45 -31.8 -10.6 -29.55 -7.85 -35.9 Q-4.95 -41.8 -2.3 -42.85 -2.2 -41.9 -2.5 -41.15 -2.9 -40.4 -3.45 -40.35 -5.1 -38.65 -5.85 -35.6 L-6.35 -32.45 -6.35 -32.15 Q-6.1 -30.25 -6.7 -28.85 L-7.95 -28.25 Q-9.8 -27.25 -10.8 -26.9 L-11.55 -26.7 -12.75 -31.0 Q-11.15 -46.35 -9.55 -50.6 L-8.7 -50.05 M23.55 -39.0 L23.95 -39.3 Q25.35 -39.9 27.05 -40.05 22.15 -44.5 21.1 -52.8 L20.95 -54.4 21.8 -54.45 22.15 -53.7 23.5 -48.55 Q24.05 -46.35 24.9 -44.95 25.3 -44.25 28.2 -42.35 L29.3 -41.5 30.0 -40.7 Q30.75 -39.8 30.85 -38.8 L30.9 -37.7 Q30.6 -37.6 30.45 -35.7 L30.3 -33.75 30.6 -30.65 43.95 -31.85 43.5 -30.6 30.9 -29.75 31.65 -25.5 Q31.0 -23.7 30.5 -21.7 27.0 -20.6 26.65 -20.3 L27.55 -19.65 23.9 -20.1 23.2 -14.05 23.2 -13.85 22.25 -6.8 21.75 -3.5 Q22.0 -1.75 23.3 1.8 L26.3 9.0 28.05 4.35 Q28.45 3.5 29.7 3.35 30.2 3.3 31.0 1.6 32.45 1.4 31.65 -7.7 30.65 -18.35 32.2 -22.1 32.45 -22.1 32.95 -20.7 L33.45 -18.6 33.1 -12.85 32.7 -7.1 33.4 -4.85 34.1 -2.55 34.65 3.3 34.65 4.6 Q34.5 5.05 33.95 4.75 L33.35 6.55 32.9 7.45 Q32.4 7.5 32.4 7.15 32.4 6.75 31.9 6.8 31.3 6.85 29.85 8.15 L28.15 9.75 27.85 9.95 27.1 11.15 Q27.8 13.0 27.6 13.55 L26.8 12.65 Q26.85 14.05 24.55 15.05 21.7 16.2 21.2 16.8 L21.65 17.65 21.55 18.85 21.1 19.35 20.45 18.45 19.2 16.35 Q18.6 16.4 18.25 17.05 17.85 17.65 17.95 18.5 18.2 19.25 17.8 19.4 L17.1 19.25 16.25 19.45 15.6 20.2 Q15.35 20.55 13.3 21.55 L10.85 22.6 Q10.35 22.75 9.75 23.05 L9.2 23.4 4.6 26.5 Q1.3 28.9 -0.2 29.0 L-0.95 29.05 -4.05 28.4 -3.35 27.6 Q-2.9 27.25 -0.65 25.65 L-0.05 25.25 0.05 25.65 2.25 25.3 1.75 25.15 -0.05 25.25 1.75 24.15 -0.3 24.65 -7.45 25.65 -7.1 26.3 Q-6.8 26.75 -6.75 27.3 -6.65 28.15 -8.05 29.55 -10.5 31.9 -12.5 35.0 L-12.65 35.25 -13.45 36.8 -15.2 38.9 -15.6 38.85 -15.95 38.05 Q-16.15 36.55 -14.05 33.35 L-10.95 28.9 -13.2 30.35 -14.35 29.75 -12.55 28.25 -13.9 28.2 -15.4 28.5 Q-14.55 27.45 -9.35 25.95 -2.85 24.1 -0.35 22.85 L-0.4 22.85 -1.5 22.45 0.15 21.55 0.7 22.15 1.35 23.35 1.85 24.05 3.3 23.2 -8.45 14.4 -13.45 10.95 Q-11.7 10.4 -4.95 14.55 1.65 18.7 4.8 22.25 L5.05 22.05 4.8 20.45 9.15 15.65 9.1 16.9 Q9.25 14.8 10.2 12.1 L11.9 13.2 11.95 13.45 11.55 16.4 11.65 16.2 Q13.65 14.3 15.2 12.05 16.25 10.5 16.55 10.45 L17.1 10.05 16.75 9.15 Q16.85 9.95 15.95 9.65 15.75 9.3 15.05 9.05 L14.95 9.9 13.25 -0.65 11.6 -10.05 Q11.65 -10.9 11.95 -11.3 L12.25 -11.5 12.95 -11.5 Q13.55 -8.05 15.75 -7.3 L17.6 -12.25 20.0 -16.65 20.25 -16.65 19.7 -11.0 18.95 -9.0 17.9 -6.4 19.05 -5.9 19.55 -5.65 19.7 -1.85 19.65 -1.8 18.2 -2.85 16.9 -3.75 16.5 -1.45 16.3 0.35 18.05 6.05 18.4 7.35 19.1 6.6 Q18.65 8.4 19.15 10.4 L19.6 11.7 20.1 11.85 21.9 12.4 Q22.8 12.25 23.1 11.75 23.5 11.05 25.45 10.35 23.95 7.9 22.05 2.75 20.45 -1.75 20.35 -2.75 L21.15 -9.5 Q22.2 -16.8 22.4 -21.35 L23.7 -21.5 Q23.85 -21.0 24.1 -23.6 26.75 -24.1 27.3 -24.8 28.15 -25.8 28.95 -30.35 L29.45 -28.35 29.55 -28.2 Q29.3 -30.1 29.3 -33.7 29.3 -33.35 28.3 -33.25 L26.8 -33.55 25.3 -33.85 21.4 -33.2 21.45 -28.75 Q21.6 -27.75 22.5 -24.6 21.55 -22.5 20.95 -20.6 L11.45 -22.7 10.3 -28.05 -2.3 -25.25 -4.5 -25.2 -0.6 -27.25 Q3.7 -28.8 9.85 -29.35 L9.55 -31.0 9.7 -32.3 10.2 -33.75 9.75 -33.45 9.2 -32.9 Q8.8 -32.55 8.2 -32.45 L7.6 -32.45 7.75 -32.5 Q7.4 -33.35 6.95 -33.4 6.2 -33.2 4.35 -32.05 2.6 -31.0 1.95 -30.85 L1.2 -31.45 0.1 -31.65 Q-1.85 -29.65 -2.45 -29.55 L-3.15 -29.55 -3.15 -29.6 -3.35 -30.25 Q-3.25 -32.25 -1.0 -33.5 0.65 -34.4 2.65 -34.65 L6.4 -35.0 11.8 -35.7 Q11.2 -38.4 11.75 -43.5 12.6 -50.65 15.7 -56.35 12.85 -41.45 13.15 -38.85 13.3 -37.85 13.35 -38.5 19.05 -38.6 20.6 -37.6 L20.8 -37.5 21.35 -36.85 21.4 -34.8 29.45 -35.3 29.85 -37.45 29.25 -37.55 28.85 -38.65 26.3 -38.6 Q24.8 -38.5 24.7 -38.15 L23.65 -37.0 23.1 -36.95 23.0 -37.95 23.55 -39.0 M32.25 -57.1 L32.9 -57.05 Q33.1 -55.25 32.75 -51.95 L32.25 -46.45 Q32.05 -44.2 32.15 -43.45 32.35 -41.8 33.5 -41.05 L35.7 -40.15 36.55 -40.0 42.35 -40.2 43.75 -40.1 Q44.7 -40.25 45.5 -39.7 46.25 -39.1 46.35 -38.25 L45.5 -38.0 43.95 -38.2 41.7 -38.3 36.55 -38.5 34.75 -38.65 33.6 -37.85 32.15 -38.85 31.25 -40.45 30.7 -41.5 32.2 -57.1 32.25 -57.1 M46.25 -40.35 L46.55 -43.35 Q48.0 -52.2 48.5 -53.0 47.7 -48.05 47.85 -47.05 48.15 -44.85 49.75 -40.95 L51.4 -36.8 Q51.5 -35.9 50.9 -35.1 L49.15 -36.5 47.4 -38.1 46.8 -39.35 46.25 -40.35 M16.9 -3.75 Q18.55 -7.95 18.35 -10.3 17.55 -9.75 16.6 -7.85 L14.9 -4.25 15.9 -1.1 16.55 -2.9 16.9 -3.75 M33.65 -26.0 Q38.15 -27.6 39.9 -28.35 41.05 -28.85 43.35 -30.05 L40.95 -21.9 40.5 -21.85 Q40.25 -25.85 40.05 -26.05 38.15 -24.45 38.7 -22.55 L34.35 -22.25 34.4 -24.4 33.25 -24.2 33.0 -24.4 33.65 -26.0 M19.9 -33.85 L19.95 -34.65 19.25 -33.8 18.05 -33.6 12.05 -34.15 Q11.6 -34.0 11.3 -32.8 L11.05 -31.55 Q11.05 -30.5 12.4 -22.95 L21.3 -23.1 20.35 -27.5 Q18.15 -26.6 16.75 -26.45 L14.9 -26.45 13.3 -26.75 12.7 -27.15 Q17.4 -28.3 20.3 -28.45 L19.9 -33.85 M12.5 11.0 L12.3 10.65 12.85 9.95 12.5 11.0 M6.55 -1.4 L5.75 6.05 5.65 7.4 Q5.8 11.5 5.6 13.65 5.25 16.25 4.3 17.45 4.7 9.75 4.9 -3.15 5.0 -7.9 5.85 -9.1 L6.15 -8.9 5.55 -9.85 4.8 -10.9 8.5 -9.8 7.9 -7.85 6.25 -8.35 6.6 -3.25 6.55 -1.4 M3.3 -10.7 L3.1 -9.8 2.9 -9.95 3.3 -10.7 M4.0 16.05 L3.65 16.55 3.1 16.55 -1.9 14.55 -1.95 15.05 -6.0 12.2 Q-9.75 9.85 -11.85 9.2 L-11.85 9.15 -3.9 11.6 -3.65 10.0 -1.4 -5.0 -0.8 -4.75 -3.45 10.55 Q-3.3 11.55 -3.1 11.2 L-2.2 11.05 Q-1.7 10.7 -0.9 8.15 L-1.25 10.75 -1.55 12.65 Q2.75 14.15 4.0 16.05 M-12.25 9.1 L-13.7 8.6 -10.9 -1.95 -10.5 -2.6 -10.45 -2.7 -10.35 -2.05 Q-10.25 -1.25 -10.65 0.6 L-12.25 9.1 M-16.05 8.15 L-17.4 7.95 Q-18.15 4.15 -20.0 2.5 -21.2 1.5 -22.25 1.6 -23.85 1.8 -24.7 4.6 -25.55 7.5 -25.1 11.15 -24.4 16.45 -22.25 18.6 -20.95 19.9 -19.75 19.75 -18.55 19.6 -17.55 17.8 -16.1 14.95 -17.05 10.0 L-16.2 10.45 -16.6 15.45 -17.15 20.1 -13.25 20.55 -7.1 20.95 -11.7 22.75 -23.0 22.25 Q-28.15 20.85 -28.55 17.45 L-29.7 9.35 -29.95 -8.2 -26.35 -14.95 -26.15 -14.8 -28.25 -7.4 Q-30.0 -1.2 -29.55 2.6 L-27.95 6.45 -26.35 9.55 -25.15 1.6 -27.3 0.8 -29.25 -0.35 -27.25 -0.85 -24.65 -0.95 -23.65 -6.45 Q-24.25 -6.25 -26.75 -7.3 L-22.1 -7.5 -16.75 -5.75 Q-16.25 -6.4 -16.35 -7.85 L-16.85 -9.3 -15.4 -14.1 -13.15 -20.2 Q-13.1 -19.6 -12.7 -19.25 L-11.8 -18.95 -13.9 -10.3 -9.85 -9.95 -14.4 -9.8 Q-14.3 -8.5 -16.05 8.15 M-14.3 11.55 L-12.85 12.35 Q-13.5 17.3 -14.85 18.65 L-14.95 18.6 -15.1 17.95 -14.3 11.55 M-4.75 17.6 L-3.15 18.75 -3.95 19.05 -4.85 18.65 -4.75 17.6 M-33.45 6.25 L-33.3 8.05 -36.3 14.1 -37.55 13.15 -35.45 9.4 -33.45 6.25 M-22.1 27.2 L-16.0 26.95 Q-17.5 28.1 -17.95 29.35 L-18.4 31.2 Q-18.9 32.9 -24.4 33.5 L-22.8 32.8 -28.8 33.65 -38.35 34.2 Q-38.2 34.0 -38.4 33.75 -38.65 33.35 -39.3 33.45 L-40.45 33.35 Q-41.8 33.05 -42.95 32.45 L-41.25 24.4 -40.55 20.0 -40.1 20.55 Q-39.65 21.1 -39.05 21.0 L-38.9 21.0 -40.3 24.65 Q-41.35 27.55 -41.05 30.05 L-40.55 31.75 -40.25 32.0 -39.6 32.0 -37.85 31.6 -31.0 31.85 Q-28.45 31.5 -25.75 30.0 -23.25 28.65 -22.1 27.2 M4.35 -20.9 L5.15 -22.1 5.65 -21.1 3.3 -19.0 4.35 -20.9 M2.45 -16.45 L2.4 -17.15 2.4 -17.2 2.45 -17.35 2.5 -17.2 Q2.85 -17.2 2.5 -17.15 L2.45 -16.45 M-5.05 -9.05 Q-0.8 -9.7 1.15 -12.6 L-0.4 -6.55 -5.05 -9.05 M34.7 -19.55 L37.2 -19.2 39.75 -18.8 37.3 -13.3 35.75 -14.4 34.2 -15.4 34.7 -19.55 M25.9 -6.05 L27.25 -9.5 25.75 -11.25 Q24.1 -13.5 23.75 -16.4 23.6 -17.45 25.0 -18.25 25.85 -18.75 26.45 -18.85 L30.05 -19.05 29.8 -15.85 29.25 -15.8 29.5 -15.1 29.75 -13.9 30.05 -6.9 29.6 -3.45 29.0 0.15 27.65 1.25 25.7 2.45 Q24.25 0.4 24.2 -0.05 L24.2 -1.1 Q24.35 -2.95 25.65 -5.6 L25.9 -6.05 M30.15 -19.7 L30.05 -19.35 28.65 -19.5 30.15 -19.7 M40.15 -7.2 L40.6 -8.15 40.8 -8.05 40.15 -7.2 M40.7 22.55 L38.1 25.4 37.85 25.65 37.7 25.0 39.05 23.0 Q40.45 20.65 40.8 18.7 L41.0 18.9 41.0 18.7 Q40.9 18.55 41.35 18.35 L41.8 18.4 Q42.1 18.5 42.15 19.15 L42.0 19.8 40.7 22.55 M29.25 31.7 Q27.6 33.55 26.5 33.3 L26.3 32.65 28.0 30.5 Q28.3 29.8 27.7 29.15 L27.6 28.85 Q28.85 29.2 30.25 29.85 L29.25 31.7 M12.4 40.5 Q11.7 41.1 10.65 41.25 10.45 39.6 11.0 38.35 11.5 37.05 12.45 36.95 L12.7 38.85 12.4 40.5 M33.7 -7.65 L33.3 -9.7 Q33.2 -10.3 33.4 -11.1 L33.6 -11.65 33.6 -10.65 33.7 -7.65 M48.15 -31.05 L47.8 -31.75 Q46.65 -30.3 46.4 -27.1 L46.35 -24.1 47.05 -22.65 Q47.8 -21.25 48.15 -21.0 L48.45 -21.1 48.5 -21.55 47.9 -22.8 Q47.35 -23.6 47.3 -24.1 L48.15 -31.05 M14.3 11.85 L13.7 13.4 14.05 11.9 Q14.4 10.7 14.3 11.85 M3.9 20.55 L3.2 19.8 3.95 19.35 3.9 20.55 M6.35 20.05 L5.8 20.85 6.25 21.7 9.0 20.25 Q8.9 19.5 7.3 19.7 6.65 19.8 6.35 20.05 M-12.95 -20.5 L-12.0 -21.25 -11.5 -21.3 -11.3 -20.75 -12.95 -20.5 M-23.55 -2.2 Q-23.35 -0.7 -22.15 0.25 -21.0 1.15 -19.55 0.95 -18.1 0.8 -17.15 -0.4 -16.3 -1.6 -16.5 -3.1 -16.65 -4.6 -17.8 -5.45 -19.0 -6.35 -20.45 -6.2 -21.9 -6.0 -22.8 -4.8 -23.7 -3.7 -23.55 -2.2 M-40.0 18.55 Q-40.1 17.95 -39.2 16.25 L-38.25 14.6 -36.9 15.55 -38.4 19.75 -38.45 19.55 Q-39.9 19.55 -40.0 18.55 M-22.7 34.65 L-23.05 34.8 Q-20.6 33.4 -19.05 33.1 L-23.6 35.55 -22.7 34.65 M-32.3 37.0 L-35.75 39.8 Q-37.3 41.1 -37.85 41.2 -38.85 41.3 -42.65 38.85 L-41.55 37.3 Q-40.3 35.7 -39.7 35.65 -38.7 35.5 -36.15 35.6 L-32.3 37.0 M-18.85 40.45 L-25.55 37.95 -25.3 37.65 Q-25.0 37.3 -24.4 37.25 L-22.5 37.4 -18.2 38.85 -18.85 40.45 M-18.4 31.5 Q-17.8 30.7 -15.9 30.5 L-17.25 31.15 -18.4 31.5 M-42.7 10.75 L-45.45 8.35 -46.75 11.45 -47.9 14.75 Q-45.0 15.65 -44.85 15.8 L-42.7 10.75 M-42.3 9.85 L-37.05 0.15 -43.9 8.7 -42.3 9.85 M-46.7 15.75 L-48.0 15.1 Q-48.25 16.25 -47.85 19.95 L-47.3 24.1 -45.35 17.1 Q-45.4 16.5 -46.7 15.75 M-64.5 36.25 L-65.6 37.55 Q-65.5 37.9 -65.65 38.25 L-65.05 38.4 -58.15 37.2 Q-50.75 35.45 -47.25 32.45 L-45.65 33.05 -47.35 33.85 -55.2 37.0 Q-62.65 39.45 -71.4 40.55 L-72.4 40.35 -72.8 39.95 -64.5 36.25 M-48.75 32.0 L-51.15 32.1 -55.0 33.0 -61.3 34.8 Q-59.85 34.2 -56.1 31.8 L-48.75 32.0 M-44.95 33.25 L-44.9 33.3 -44.8 33.6 -44.95 33.25 M-43.2 33.9 L-42.3 34.2 -43.9 34.2 -43.2 33.9 M-44.55 34.15 L-44.6 34.15 -44.65 34.05 -44.55 34.15 M-40.65 34.8 L-59.45 56.3 -60.05 56.25 -60.3 55.4 Q-60.45 54.15 -56.95 49.5 -51.85 42.55 -42.1 34.25 L-40.65 34.8 M-48.9 58.05 Q-48.35 55.45 -42.45 49.8 -45.9 54.15 -48.6 58.95 L-48.9 58.05 M-46.7 36.25 L-44.5 36.0 -45.5 37.15 -46.7 36.25" fill="#bca750" fill-rule="evenodd" stroke="none"/>
    <path d="M51.4 -36.8 L52.05 -36.35 52.1 -36.0 49.65 -34.1 47.2 -32.25 47.55 -33.55 48.55 -33.5 Q48.25 -34.9 47.65 -35.7 45.5 -37.5 45.75 -36.8 L40.35 -37.6 33.6 -37.85 30.9 -37.7 30.85 -38.8 32.15 -38.85 33.6 -37.85 34.75 -38.65 36.55 -38.5 41.7 -38.3 42.55 -38.15 43.95 -38.2 45.5 -38.0 46.35 -38.25 47.4 -38.1 49.15 -36.5 50.9 -35.1 Q51.5 -35.9 51.4 -36.8 M30.3 -33.75 L44.5 -33.55 43.95 -31.85 30.6 -30.65 30.3 -33.75 M21.35 -36.85 L20.8 -37.5 20.6 -37.6 23.0 -37.95 23.1 -36.95 21.35 -36.85 M-3.15 -29.6 L-3.15 -29.55 -2.45 -29.55 Q-1.85 -29.65 0.1 -31.65 L1.2 -31.45 1.95 -30.85 -0.4 -29.0 -0.15 -28.3 Q0.1 -27.95 0.75 -28.0 L4.15 -29.1 9.55 -31.0 9.85 -29.35 Q3.7 -28.8 -0.6 -27.25 L-4.5 -25.2 -15.45 -23.95 Q-12.65 -26.2 -10.8 -26.7 L-10.8 -26.9 Q-9.8 -27.25 -7.95 -28.25 L-6.7 -28.85 -3.15 -29.6 M-2.3 -25.25 L10.3 -28.05 11.45 -22.7 1.9 -24.6 -2.3 -25.25 M22.5 -24.6 Q21.6 -27.75 21.45 -28.75 L21.4 -33.2 25.3 -33.85 26.8 -33.55 28.3 -33.25 Q29.3 -33.35 29.3 -33.7 29.3 -30.1 29.55 -28.2 L29.45 -28.35 28.95 -30.35 Q28.15 -25.8 27.3 -24.8 26.75 -24.1 24.1 -23.6 L24.15 -25.65 24.1 -26.1 23.95 -26.25 22.5 -24.6 M18.05 6.05 L16.3 0.35 18.2 -2.85 19.65 -1.8 19.7 -1.85 Q20.05 2.05 20.5 3.65 20.55 4.25 19.8 4.75 L18.05 6.05 M16.9 -3.75 L16.55 -2.9 15.9 -1.1 14.9 -4.25 16.6 -7.85 Q17.55 -9.75 18.35 -10.3 18.55 -7.95 16.9 -3.75 M19.55 -5.65 L19.05 -5.9 18.95 -9.0 19.7 -11.0 19.55 -5.65 M20.0 -16.65 L17.6 -12.25 15.15 -15.05 12.6 -17.5 12.2 -15.5 11.8 -13.75 10.95 -17.1 11.2 -18.35 10.5 -18.7 9.85 -20.9 9.65 -19.1 Q6.75 -18.7 5.0 -16.4 3.2 -14.15 3.55 -11.35 L3.3 -10.7 2.9 -9.95 Q1.45 -5.45 1.25 -3.7 L-0.1 4.35 3.7 4.55 3.75 6.65 -0.25 5.65 Q-0.3 6.65 -0.9 8.15 -1.7 10.7 -2.2 11.05 L-3.1 11.2 Q-3.3 11.55 -3.45 10.55 L-0.8 -4.75 -1.4 -5.0 Q-3.6 -6.3 -4.4 -6.5 L-8.6 -7.65 -10.1 -1.0 Q-7.7 5.1 -5.8 7.6 L-3.65 10.0 -3.9 11.6 -11.85 9.15 -11.85 9.2 -12.25 9.1 -10.65 0.6 Q-10.25 -1.25 -10.35 -2.05 L-10.45 -2.7 -10.5 -2.6 -10.9 -1.95 -13.7 8.6 -16.05 8.15 Q-14.3 -8.5 -14.4 -9.8 L-9.85 -9.95 -9.6 -10.15 -5.05 -9.05 -0.4 -6.55 1.15 -12.6 2.45 -16.45 2.5 -17.15 Q2.85 -17.2 2.5 -17.2 L2.45 -17.35 2.4 -17.2 2.4 -17.15 -0.85 -16.8 -6.6 -15.7 -6.0 -18.25 -11.8 -18.95 -12.7 -19.25 Q-13.1 -19.6 -13.15 -20.2 L-12.95 -20.5 -11.3 -20.75 -10.0 -20.65 -11.5 -21.3 -12.0 -21.25 Q-13.9 -21.5 -17.75 -20.35 -21.6 -19.25 -23.3 -16.9 -25.1 -14.65 -23.7 -12.55 -22.3 -10.45 -16.85 -9.3 L-16.35 -7.85 Q-16.25 -6.4 -16.75 -5.75 L-22.1 -7.5 -26.75 -7.3 Q-24.25 -6.25 -23.65 -6.45 L-24.65 -0.95 -27.25 -0.85 -29.25 -0.35 -27.3 0.8 -25.15 1.6 -26.35 9.55 -27.95 6.45 -29.55 2.6 Q-30.0 -1.2 -28.25 -7.4 L-26.15 -14.8 -26.35 -14.95 -29.95 -8.2 Q-29.15 -12.75 -27.45 -15.8 -26.0 -18.4 -23.95 -19.8 L-23.9 -19.8 -23.85 -19.85 -23.8 -19.95 -23.7 -20.0 Q-20.55 -22.0 -12.05 -23.1 3.6 -25.1 11.0 -21.85 12.95 -21.1 15.8 -19.05 18.4 -17.2 20.0 -16.65 M-12.65 35.25 L-12.5 35.0 Q-10.85 32.6 -7.2 30.05 -4.55 28.1 -3.35 27.6 L-4.05 28.4 -0.95 29.05 -7.95 32.55 -5.9 32.9 0.15 34.45 1.9 35.2 2.2 34.0 3.8 28.45 4.6 26.5 9.2 23.4 10.85 22.6 13.3 21.55 Q15.35 20.55 15.6 20.2 L17.1 19.25 17.8 19.4 Q18.2 19.25 17.95 18.5 L18.8 17.25 19.2 16.35 20.45 18.45 19.25 19.2 18.65 19.7 17.45 24.3 17.95 24.2 19.45 24.1 18.75 24.8 21.2 25.8 23.85 26.5 24.25 25.1 Q24.7 23.8 24.75 24.35 24.55 26.05 26.25 27.4 27.9 28.6 29.9 28.35 32.45 28.0 33.3 26.85 36.0 23.25 39.0 20.25 L35.95 19.9 35.15 19.75 33.85 22.9 Q33.3 21.4 32.2 20.4 30.7 19.0 28.75 19.25 26.5 20.35 25.7 21.0 L25.25 21.6 25.85 19.8 27.55 13.9 21.65 17.65 21.2 16.8 Q21.7 16.2 24.55 15.05 26.85 14.05 26.8 12.65 L27.6 13.55 Q27.8 13.0 27.1 11.15 L27.85 9.95 28.15 9.75 29.85 8.15 Q31.3 6.85 31.9 6.8 32.4 6.75 32.4 7.15 32.4 7.5 32.9 7.45 L33.35 6.55 33.95 4.75 Q34.5 5.05 34.65 4.6 L34.65 3.3 35.55 1.6 35.95 2.9 36.55 3.45 37.05 3.0 37.15 1.55 37.6 -0.75 41.35 -4.6 41.75 -4.75 40.85 -3.9 41.3 -3.7 42.75 -3.75 42.85 -3.75 Q45.45 -4.05 47.05 -6.1 48.6 -8.1 48.3 -10.7 L49.0 -13.05 50.15 -15.4 Q50.4 -14.95 50.1 -12.95 54.8 -13.4 54.85 -13.0 L54.9 -15.95 54.75 -18.8 54.2 -20.6 53.25 -21.85 56.1 -26.2 56.5 -23.5 Q58.05 -11.3 56.1 -2.2 52.9 12.5 40.7 22.55 L42.0 19.8 42.15 19.15 Q42.1 18.5 41.8 18.4 L41.35 18.35 Q42.2 16.75 43.65 10.7 L38.6 9.85 38.55 10.1 38.55 11.15 Q39.1 15.25 40.8 18.7 40.45 20.65 39.05 23.0 L37.7 25.0 37.85 25.65 35.0 28.05 29.25 31.7 30.25 29.85 Q28.85 29.2 27.6 28.85 L27.7 29.15 Q28.3 29.8 28.0 30.5 L26.3 32.65 26.5 33.3 Q18.1 37.95 12.4 40.5 L12.7 38.85 12.45 36.95 Q11.5 37.05 11.0 38.35 10.45 39.6 10.65 41.25 L6.0 43.0 -0.7 44.4 0.85 42.9 Q1.2 42.25 1.05 41.15 1.0 40.55 0.75 40.55 L0.55 40.75 -2.1 42.4 Q-4.0 43.65 -5.2 43.8 -6.9 44.05 -7.65 42.95 -8.4 42.0 -11.35 42.6 L-10.1 44.25 -12.55 44.5 Q-12.05 43.55 -11.8 42.05 -11.5 40.75 -11.55 40.3 L-11.65 39.75 -11.8 39.75 Q-12.3 39.95 -12.95 41.1 -13.2 41.45 -15.8 39.85 L-15.2 38.9 -12.65 40.35 -10.4 33.85 -12.65 35.25 M23.2 -13.85 L23.2 -14.05 24.7 -11.9 25.75 -9.75 25.9 -6.05 25.65 -5.6 Q24.35 -2.95 24.2 -1.1 L23.9 -0.75 23.2 -2.35 Q22.8 -3.3 22.75 -3.85 22.6 -5.1 23.25 -8.65 L23.95 -12.6 23.45 -11.9 22.95 -10.9 23.2 -13.85 M31.65 -25.5 L30.9 -29.75 43.5 -30.6 43.35 -30.05 Q41.05 -28.85 39.9 -28.35 38.15 -27.6 33.65 -26.0 L34.0 -26.85 34.1 -27.65 33.7 -28.5 Q32.6 -27.15 31.65 -25.5 M28.85 -38.65 L29.25 -37.55 23.65 -37.0 24.7 -38.15 28.85 -38.65 M19.25 -33.8 L19.9 -33.85 20.3 -28.45 Q17.4 -28.3 12.7 -27.15 L13.3 -26.75 14.9 -26.45 16.75 -26.45 Q18.15 -26.6 20.35 -27.5 L21.3 -23.1 12.4 -22.95 Q11.05 -30.5 11.05 -31.55 L13.6 -32.4 18.05 -33.6 19.25 -33.8 M9.3 -12.1 L9.35 -6.95 9.55 -6.25 6.45 4.9 Q8.95 5.1 10.0 5.6 L10.85 6.3 9.65 10.7 9.4 10.3 Q8.8 10.4 9.05 10.55 L9.9 11.15 Q10.8 12.45 5.85 15.05 L6.15 9.15 8.75 7.9 6.25 7.3 6.55 -1.4 6.6 -3.25 7.9 -7.85 8.5 -9.8 9.3 -12.1 M12.2 3.4 Q13.1 6.55 13.2 8.0 13.4 10.25 12.5 11.0 L12.85 9.95 12.3 10.65 Q12.0 7.2 11.55 5.8 L11.15 5.8 12.2 3.4 M3.8 10.05 L4.0 16.05 Q2.75 14.15 -1.55 12.65 L-1.25 10.75 3.8 10.05 M3.1 16.55 Q1.7 17.1 -0.3 16.15 L-1.95 15.05 -1.9 14.55 3.1 16.55 M-17.4 7.95 L-21.05 8.15 -17.05 10.0 Q-16.1 14.95 -17.55 17.8 -18.55 19.6 -19.75 19.75 -20.95 19.9 -22.25 18.6 -24.4 16.45 -25.1 11.15 -25.55 7.5 -24.7 4.6 -23.85 1.8 -22.25 1.6 -21.2 1.5 -20.0 2.5 -18.15 4.15 -17.4 7.95 M-16.2 10.45 L-14.3 11.55 -15.1 17.95 -14.95 18.6 -14.85 18.65 Q-13.5 17.3 -12.85 12.35 L-4.75 17.6 -4.85 18.65 -3.95 19.05 -3.15 18.75 -2.7 19.0 -7.1 20.95 -13.25 20.55 -17.15 20.1 -16.6 15.45 -16.2 10.45 M-32.4 -10.15 L-30.95 -11.35 Q-31.5 -9.0 -33.2 -4.3 L-36.3 -0.85 Q-37.9 -2.1 -38.7 -2.45 L-38.5 -2.65 Q-37.0 -3.4 -35.5 -5.65 -34.05 -7.75 -34.05 -8.85 L-33.4 -9.4 -33.2 -9.5 -32.4 -10.15 M-48.15 30.2 L-48.55 30.0 -48.7 25.3 -48.65 24.35 -48.2 24.55 Q-47.7 24.95 -47.6 25.55 -47.5 26.3 -48.15 30.2 M3.3 -19.0 L5.65 -21.1 5.15 -22.1 4.35 -20.9 -3.35 -21.65 Q-3.75 -21.25 -3.7 -20.05 L0.0 -19.1 3.35 -18.7 3.3 -19.0 M34.2 -15.4 L35.75 -14.4 37.3 -13.3 Q36.55 -10.2 35.6 -3.5 L35.35 -1.85 33.7 -7.65 33.6 -10.65 34.2 -15.4 M29.8 -15.85 L29.75 -13.9 29.5 -15.1 29.25 -15.8 29.8 -15.85 M30.05 -6.9 L30.3 -3.8 Q30.3 -0.6 29.0 0.15 L29.6 -3.45 30.05 -6.9 M40.15 -7.2 L40.1 -7.15 40.2 -7.7 40.6 -8.7 40.6 -8.15 40.15 -7.2 M50.15 -11.25 Q49.8 -10.3 49.05 -5.15 L48.75 -3.35 53.45 -2.8 54.65 -11.25 50.15 -11.25 M44.0 -7.95 L43.3 -6.8 43.35 -7.0 44.0 -7.95 M48.5 -1.65 Q48.3 3.95 44.95 13.75 L44.45 14.75 Q46.55 13.65 49.85 7.0 53.05 0.7 53.15 -1.5 L48.5 -1.65 M39.3 7.65 L40.55 8.15 44.1 9.2 Q44.75 7.7 45.8 3.5 46.9 -0.75 46.8 -1.45 43.25 -1.0 41.05 1.65 38.85 4.35 39.3 7.65 M39.15 1.0 L39.5 0.1 36.5 4.4 34.5 7.1 35.5 7.15 37.65 7.3 39.15 1.0 M34.3 10.45 L33.45 9.7 Q32.5 10.45 32.1 11.45 31.05 11.75 29.55 13.95 28.1 16.2 27.9 18.05 L33.95 20.1 35.85 14.7 Q37.05 11.0 37.1 9.8 L34.3 10.45 M17.25 20.75 L17.75 20.0 15.45 21.2 16.3 21.3 16.75 21.6 17.25 20.75 M14.85 27.7 L16.05 23.5 13.2 22.9 Q11.85 23.05 9.25 24.2 6.35 26.45 5.75 27.0 4.9 28.05 5.05 29.25 L4.95 30.45 4.45 31.25 8.8 31.15 12.85 32.3 Q14.75 28.4 14.85 27.7 M15.8 28.5 L14.25 32.9 Q14.4 33.35 14.85 33.1 L15.0 33.1 15.05 33.45 14.35 33.95 Q13.7 34.6 12.45 36.95 19.95 34.45 21.75 33.15 23.8 31.5 23.25 28.0 20.7 27.45 20.4 26.4 20.2 25.75 17.3 26.15 16.6 26.2 15.8 28.5 M5.3 32.9 L4.0 32.65 3.75 33.5 1.25 40.55 Q5.9 38.9 9.05 38.5 10.25 38.1 12.05 34.2 L5.3 32.9 M1.5 36.95 Q1.3 35.3 -0.7 34.4 -2.8 33.5 -5.5 33.85 -8.15 34.2 -9.9 35.55 -11.7 36.95 -11.5 38.6 -11.3 40.2 -9.2 41.1 -7.15 42.05 -4.5 41.7 -1.8 41.35 0.0 39.95 1.7 38.55 1.5 36.95 M23.05 31.9 Q25.3 30.6 27.5 29.25 L24.55 28.35 23.05 31.9 M-39.45 -1.55 L-38.35 -0.75 Q-41.75 4.55 -43.9 6.75 L-45.2 6.5 -43.95 4.1 Q-42.6 3.95 -41.85 2.9 -41.0 1.8 -41.2 0.45 L-39.45 -1.55 M-23.55 -2.2 Q-23.7 -3.7 -22.8 -4.8 -21.9 -6.0 -20.45 -6.2 -19.0 -6.35 -17.8 -5.45 -16.65 -4.6 -16.5 -3.1 -16.3 -1.6 -17.15 -0.4 -18.1 0.8 -19.55 0.95 -21.0 1.15 -22.15 0.25 -23.35 -0.7 -23.55 -2.2 M-4.35 -21.75 Q-12.65 -22.25 -10.5 -21.15 L-9.6 -20.65 Q-4.15 -20.5 -4.35 -21.75 M-11.25 -3.3 L-9.55 -8.05 -14.05 -7.5 -11.25 -3.3 M-36.15 35.6 L-29.8 35.45 -32.3 37.0 -36.15 35.6 M-18.2 38.85 L-22.5 37.4 -24.4 37.25 Q-25.0 37.3 -25.3 37.65 L-25.55 37.95 -18.85 40.45 -19.4 41.8 -27.6 38.7 -22.15 35.75 -16.1 32.75 -15.9 33.55 -16.55 35.55 Q-17.4 37.7 -18.2 38.85 M-16.55 41.25 L-13.7 42.05 -14.35 43.7 -17.25 42.6 -16.55 41.25 M-42.7 10.75 L-44.85 15.8 Q-45.0 15.65 -47.9 14.75 L-46.75 11.45 -45.45 8.35 -42.7 10.75 M-42.3 9.85 L-43.9 8.7 -37.05 0.15 -42.3 9.85 M-46.7 15.75 Q-45.4 16.5 -45.35 17.1 L-47.3 24.1 -47.85 19.95 Q-48.25 16.25 -48.0 15.1 L-46.7 15.75 M-64.5 36.25 L-61.3 34.8 -55.0 33.0 -51.15 32.1 -48.75 32.0 -47.25 32.45 Q-50.75 35.45 -58.15 37.2 L-65.05 38.4 -65.65 38.25 Q-65.5 37.9 -65.6 37.55 L-64.5 36.25 M-47.35 33.85 L-45.65 33.05 -44.95 33.25 -44.8 33.6 -44.65 34.05 -44.6 34.15 -47.35 33.85" fill="#cbba76" fill-rule="evenodd" stroke="none"/>
    <path d="M30.9 -37.7 L33.6 -37.85 40.35 -37.6 45.75 -36.8 44.5 -33.55 30.3 -33.75 30.45 -35.7 Q30.6 -37.6 30.9 -37.7 M47.65 -35.7 Q48.25 -34.9 48.55 -33.5 L47.55 -33.55 47.65 -35.7 M1.95 -30.85 Q2.6 -31.0 4.35 -32.05 6.2 -33.2 6.95 -33.4 7.4 -33.35 7.75 -32.5 L7.6 -32.45 8.2 -32.45 Q8.8 -32.55 9.2 -32.9 L9.75 -33.45 10.2 -33.75 9.7 -32.3 9.55 -31.0 4.15 -29.1 0.75 -28.0 Q0.1 -27.95 -0.15 -28.3 L-0.4 -29.0 1.95 -30.85 M16.3 0.35 L16.5 -1.45 16.9 -3.75 18.2 -2.85 16.3 0.35 M19.05 -5.9 L17.9 -6.4 18.95 -9.0 19.05 -5.9 M17.6 -12.25 L15.75 -7.3 Q13.55 -8.05 12.95 -11.5 L12.25 -11.5 11.8 -13.75 12.2 -15.5 12.6 -17.5 15.15 -15.05 17.6 -12.25 M-15.2 38.9 L-13.45 36.8 -12.65 35.25 -10.4 33.85 -12.65 40.35 -15.2 38.9 M-0.95 29.05 L-0.2 29.0 -5.9 32.9 -7.95 32.55 -0.95 29.05 M29.25 -37.55 L29.85 -37.45 29.45 -35.3 21.4 -34.8 21.35 -36.85 23.1 -36.95 23.65 -37.0 29.25 -37.55 M19.25 -33.8 L19.95 -34.65 19.9 -33.85 19.25 -33.8 M11.05 -31.55 L11.3 -32.8 Q11.6 -34.0 12.05 -34.15 L18.05 -33.6 13.6 -32.4 11.05 -31.55 M10.5 -18.7 L11.2 -18.35 10.95 -17.1 10.5 -18.7 M9.65 -19.1 L9.3 -12.1 8.5 -9.8 4.8 -10.9 3.55 -11.35 Q3.2 -14.15 5.0 -16.4 6.75 -18.7 9.65 -19.1 M9.55 -6.25 L10.6 -2.5 12.2 3.4 11.15 5.8 10.85 6.3 10.0 5.6 Q8.95 5.1 6.45 4.9 L9.55 -6.25 M6.15 9.15 L6.25 7.3 8.75 7.9 6.15 9.15 M3.1 -9.8 Q3.0 -8.2 3.25 -3.65 L3.7 4.55 -0.1 4.35 1.25 -3.7 Q1.45 -5.45 2.9 -9.95 L3.1 -9.8 M3.75 6.65 L3.8 10.05 -1.25 10.75 -0.9 8.15 Q-0.3 6.65 -0.25 5.65 L3.75 6.65 M4.35 -20.9 L3.3 -19.0 3.35 -18.7 0.0 -19.1 -3.7 -20.05 Q-3.75 -21.25 -3.35 -21.65 L4.35 -20.9 M2.4 -17.15 L2.45 -16.45 1.15 -12.6 Q-0.8 -9.7 -5.05 -9.05 L-9.6 -10.15 -9.85 -9.95 -13.9 -10.3 -11.8 -18.95 -6.0 -18.25 -6.6 -15.7 -0.85 -16.8 2.4 -17.15 M7.9 -7.85 L6.6 -3.25 6.25 -8.35 7.9 -7.85 M42.75 -3.75 L43.15 -4.1 42.85 -3.75 42.75 -3.75 M46.95 -9.0 L49.0 -13.05 48.3 -10.7 46.95 -9.0 M50.15 -15.4 Q51.55 -18.75 53.25 -21.85 L54.2 -20.6 54.75 -18.8 54.9 -15.95 54.85 -13.0 Q54.8 -13.4 50.1 -12.95 50.4 -14.95 50.15 -15.4 M49.05 -5.15 L50.15 -7.9 Q50.65 -9.25 50.15 -11.25 L54.65 -11.25 53.45 -2.8 48.75 -3.35 49.05 -5.15 M48.5 -1.65 L53.15 -1.5 Q53.05 0.7 49.85 7.0 46.55 13.65 44.45 14.75 L44.95 13.75 Q48.3 3.95 48.5 -1.65 M46.8 -1.45 Q46.9 -0.75 45.8 3.5 44.75 7.7 44.1 9.2 L40.55 8.15 39.3 7.65 42.7 3.7 46.8 -1.45 M41.35 18.35 Q40.9 18.55 41.0 18.7 L41.0 18.9 40.8 18.7 Q39.1 15.25 38.55 11.15 L38.55 10.1 38.6 9.85 43.65 10.7 Q42.2 16.75 41.35 18.35 M39.15 1.0 L36.5 4.4 39.5 0.1 39.15 1.0 M27.9 18.05 L32.3 14.2 37.1 9.8 Q37.05 11.0 35.85 14.7 L33.95 20.1 27.9 18.05 M25.85 19.8 L25.25 21.6 25.7 21.0 Q26.5 20.35 28.75 19.25 30.7 19.0 32.2 20.4 33.3 21.4 33.85 22.9 L35.15 19.75 35.95 19.9 39.0 20.25 Q36.0 23.25 33.3 26.85 32.45 28.0 29.9 28.35 27.9 28.6 26.25 27.4 24.55 26.05 24.75 24.35 24.7 23.8 24.25 25.1 L23.85 26.5 21.2 25.8 18.75 24.8 19.45 24.1 22.9 22.0 25.85 19.8 M16.3 21.3 L15.45 21.2 17.75 20.0 17.25 20.75 16.3 21.3 M8.8 31.15 L12.0 29.45 14.85 27.7 Q14.75 28.4 12.85 32.3 L8.8 31.15 M15.8 28.5 Q16.6 26.2 17.3 26.15 20.2 25.75 20.4 26.4 20.7 27.45 23.25 28.0 23.8 31.5 21.75 33.15 19.95 34.45 12.45 36.95 13.7 34.6 14.35 33.95 L15.05 33.45 15.0 33.1 14.85 33.1 Q14.4 33.35 14.25 32.9 L15.8 28.5 M2.2 34.0 L1.9 35.2 0.15 34.45 2.2 34.0 M3.75 33.5 L5.3 32.9 12.05 34.2 Q10.25 38.1 9.05 38.5 5.9 38.9 1.25 40.55 L3.75 33.5 M1.5 36.95 Q1.7 38.55 0.0 39.95 -1.8 41.35 -4.5 41.7 -7.15 42.05 -9.2 41.1 -11.3 40.2 -11.5 38.6 -11.7 36.95 -9.9 35.55 -8.15 34.2 -5.5 33.85 -2.8 33.5 -0.7 34.4 1.3 35.3 1.5 36.95 M23.05 31.9 L24.55 28.35 27.5 29.25 Q25.3 30.6 23.05 31.9 M-16.85 -9.3 Q-22.3 -10.45 -23.7 -12.55 -25.1 -14.65 -23.3 -16.9 -21.6 -19.25 -17.75 -20.35 -13.9 -21.5 -12.0 -21.25 L-12.95 -20.5 -13.15 -20.2 -15.4 -14.1 -16.85 -9.3 M-11.5 -21.3 L-10.0 -20.65 -11.3 -20.75 -11.5 -21.3 M-4.35 -21.75 Q-4.15 -20.5 -9.6 -20.65 L-10.5 -21.15 Q-12.65 -22.25 -4.35 -21.75 M-11.25 -3.3 L-14.05 -7.5 -9.55 -8.05 -11.25 -3.3 M-1.4 -5.0 L-3.65 10.0 -5.8 7.6 Q-7.7 5.1 -10.1 -1.0 L-8.6 -7.65 -4.4 -6.5 Q-3.6 -6.3 -1.4 -5.0" fill="#e1d7b0" fill-rule="evenodd" stroke="none"/>
    <path d="M27.55 -19.65 L26.65 -20.3 Q27.0 -20.6 30.5 -21.7 L30.15 -19.7 28.65 -19.5 27.55 -19.65 M34.35 -22.25 L38.7 -22.55 Q38.15 -24.45 40.05 -26.05 40.25 -25.85 40.5 -21.85 L40.95 -21.9 39.75 -18.8 37.2 -19.2 34.7 -19.55 Q34.45 -20.8 34.35 -22.25 M-33.55 4.4 L-33.45 6.25 -35.45 9.4 -37.55 13.15 -36.3 14.1 -33.3 8.05 Q-32.8 12.75 -31.75 16.5 L-31.95 17.95 -37.35 26.85 Q-38.2 28.1 -39.65 31.3 L-34.1 26.65 Q-31.05 24.35 -29.15 24.15 -26.9 23.85 -26.2 25.2 -25.35 26.8 -22.1 27.2 -23.25 28.65 -25.75 30.0 -28.45 31.5 -31.0 31.85 L-37.85 31.6 -39.6 32.0 -40.25 32.0 -40.55 31.75 -41.05 30.05 Q-41.35 27.55 -40.3 24.65 L-38.9 21.0 -39.05 21.0 Q-39.65 21.1 -40.1 20.55 L-40.55 20.0 -41.25 24.4 -42.95 32.45 -44.15 31.95 -44.5 32.0 Q-44.8 32.0 -44.9 31.5 L-44.95 31.4 Q-45.2 29.45 -44.75 27.75 L-41.85 19.1 -45.25 16.85 Q-45.85 16.05 -44.4 16.35 -43.0 16.7 -41.4 17.65 -40.05 14.7 -39.4 13.85 L-42.05 11.9 -41.7 10.95 Q-41.05 10.9 -38.6 12.35 L-33.55 4.4 M40.6 -8.15 L40.6 -8.7 45.0 -20.7 45.8 -19.2 46.55 -17.15 46.6 -16.85 Q45.9 -15.4 43.45 -11.85 L40.8 -8.05 40.6 -8.15 M48.15 -31.05 L47.3 -24.1 Q47.35 -23.6 47.9 -22.8 L48.5 -21.55 48.45 -21.1 48.15 -21.0 Q47.8 -21.25 47.05 -22.65 L46.35 -24.1 46.4 -27.1 Q46.65 -30.3 47.8 -31.75 L48.15 -31.05 M-40.0 18.55 Q-39.9 19.55 -38.45 19.55 L-38.4 19.75 -36.9 15.55 -38.25 14.6 -39.2 16.25 Q-40.1 17.95 -40.0 18.55 M-44.8 33.6 L-44.9 33.3 -43.2 33.9 -43.9 34.2 -44.55 34.15 -44.65 34.05 -44.8 33.6" fill="#b49d45" fill-rule="evenodd" stroke="none"/>
    <path d="M-0.2 29.0 Q1.3 28.9 4.6 26.5 L3.8 28.45 2.2 34.0 0.15 34.45 -5.9 32.9 -0.2 29.0 M20.45 18.45 L21.1 19.35 21.55 18.85 21.65 17.65 27.55 13.9 25.85 19.8 22.9 22.0 19.45 24.1 17.95 24.2 17.45 24.3 18.65 19.7 19.25 19.2 20.45 18.45 M43.15 -4.1 L46.95 -9.0 48.3 -10.7 Q48.6 -8.1 47.05 -6.1 45.45 -4.05 42.85 -3.75 L43.15 -4.1 M50.15 -11.25 Q50.65 -9.25 50.15 -7.9 L49.05 -5.15 Q49.8 -10.3 50.15 -11.25 M39.3 7.65 Q38.85 4.35 41.05 1.65 43.25 -1.0 46.8 -1.45 L42.7 3.7 39.3 7.65 M36.5 4.4 L39.15 1.0 37.65 7.3 35.5 7.15 34.5 7.1 36.5 4.4 M32.1 11.45 L32.25 12.15 32.2 12.25 32.9 12.25 34.5 11.9 34.5 11.15 34.3 10.45 37.1 9.8 32.3 14.2 27.9 18.05 Q28.1 16.2 29.55 13.95 31.05 11.75 32.1 11.45 M17.25 20.75 L16.75 21.6 16.3 21.3 17.25 20.75 M8.8 31.15 L4.45 31.25 4.95 30.45 5.05 29.25 Q4.9 28.05 5.75 27.0 6.35 26.45 9.25 24.2 11.85 23.05 13.2 22.9 L16.05 23.5 14.85 27.7 12.0 29.45 8.8 31.15 M3.75 33.5 L4.0 32.65 5.3 32.9 3.75 33.5" fill="#ede8d1" fill-rule="evenodd" stroke="none"/>
    <path d="M34.3 10.45 L34.5 11.15 34.5 11.9 32.9 12.25 32.2 12.25 32.25 12.15 32.1 11.45 Q32.5 10.45 33.45 9.7 L34.3 10.45" fill="#e4dcba" fill-rule="evenodd" stroke="none"/>
  </g>
</svg>
