<?xml version="1.0" encoding="UTF-8" standalone="no"?>
<svg xmlns:ffdec="https://www.free-decompiler.com/flash" xmlns:xlink="http://www.w3.org/1999/xlink" ffdec:objectType="shape" height="77.95px" width="97.25px" xmlns="http://www.w3.org/2000/svg">
  <g transform="matrix(1.0, 0.0, 0.0, 1.0, 35.95, 31.55)">
    <path d="M38.45 -30.1 L38.6 -31.55 Q40.65 -28.1 42.55 -17.1 44.8 -4.2 44.75 9.0 44.7 18.25 53.0 25.3 L58.7 29.45 Q61.3 31.2 61.3 31.8 L60.85 33.25 Q60.0 34.55 57.95 34.55 55.25 34.55 50.7 31.35 45.2 27.5 42.35 21.5 42.65 23.1 44.75 28.6 46.6 33.4 46.6 37.4 46.6 38.4 46.3 38.8 45.9 39.3 44.8 39.3 42.8 39.3 39.8 32.15 36.4 24.1 34.0 11.5 L33.85 16.55 33.95 28.15 Q33.9 33.8 35.15 36.9 36.4 40.05 36.4 44.4 36.4 46.4 34.35 46.4 31.85 46.4 30.6 41.15 28.5 32.2 28.95 7.85 L27.75 -2.8 Q26.7 -12.65 27.45 -14.65 29.8 -3.3 30.35 24.7 30.55 35.35 31.15 39.4 31.95 45.25 34.15 45.25 L34.95 45.1 35.15 44.8 Q35.3 45.3 35.3 44.3 L34.05 39.2 Q32.8 34.15 32.8 21.85 L33.3 -12.15 33.35 -17.1 34.15 -17.45 Q34.3 -6.5 34.05 6.65 34.05 9.85 38.1 22.45 42.55 36.2 45.45 38.2 L45.6 37.25 43.0 29.25 Q40.55 21.8 40.55 19.05 40.55 17.25 39.75 15.4 L38.1 10.9 Q35.65 2.5 35.8 -18.15 L36.9 -18.6 36.8 -7.6 Q36.8 8.85 43.75 21.5 50.25 33.45 57.7 33.45 59.1 33.45 59.8 32.75 60.2 32.3 60.2 31.8 60.2 31.4 57.75 30.05 L57.2 29.75 52.35 26.65 50.2 24.85 Q44.35 19.25 44.0 11.2 L43.05 -11.9 Q42.0 -23.35 38.45 -30.1 M1.9 -6.0 L3.05 -6.0 Q1.8 -2.1 0.4 6.6 0.4 8.95 1.95 13.35 3.45 17.7 3.45 28.4 3.45 30.95 4.3 35.05 5.15 39.3 6.15 41.2 L6.25 41.1 7.25 37.2 Q8.15 33.5 8.15 30.95 8.15 25.85 6.95 17.0 5.7 8.15 5.7 5.8 5.7 2.45 6.7 -2.0 L7.75 -6.0 8.75 -6.0 7.1 0.65 Q6.8 2.25 6.8 5.65 6.8 22.75 13.35 38.05 L14.3 37.85 Q15.1 37.35 14.7 35.95 12.85 28.1 11.4 15.0 10.3 4.7 10.3 1.45 L10.6 -6.0 11.85 -6.0 11.65 -2.65 Q11.65 4.7 16.05 20.2 19.9 33.6 21.2 35.6 L21.75 35.2 Q18.55 17.0 18.45 5.25 18.4 -0.75 18.6 -6.0 19.5 -6.0 19.5 -7.35 21.1 0.5 20.9 1.45 20.1 5.45 20.1 14.45 20.1 21.95 21.55 28.65 22.25 32.0 22.95 33.9 22.95 35.3 22.35 36.15 L21.35 36.85 Q18.2 36.85 17.05 31.95 L16.35 26.0 15.75 24.55 Q14.55 26.45 14.95 28.9 15.8 33.5 15.8 36.15 15.8 39.1 13.55 39.1 12.1 39.1 11.45 37.65 11.05 36.85 10.55 34.2 L10.35 33.35 Q9.55 33.6 9.05 34.75 8.45 36.0 8.15 38.25 7.7 42.25 5.9 42.25 4.7 42.25 3.45 36.9 2.6 33.15 2.15 29.25 1.55 29.85 1.55 30.95 1.55 35.25 2.15 37.45 L2.7 39.5 Q2.7 40.45 2.3 40.85 1.9 41.3 0.95 41.3 -1.2 41.3 -3.05 37.8 L-3.9 35.95 -6.35 30.05 -6.95 28.55 Q-6.8 32.15 -6.15 35.35 -5.55 38.25 -5.55 40.2 -5.55 41.3 -6.05 41.95 -6.55 42.55 -7.45 42.55 -10.0 42.55 -11.15 40.0 L-12.75 33.7 -12.6 33.2 Q-13.95 36.7 -16.0 39.3 -18.4 42.4 -20.55 42.4 L-22.65 41.95 Q-23.25 41.5 -23.25 40.3 -23.25 39.45 -20.75 35.8 -17.85 31.4 -16.65 28.25 -16.0 26.45 -15.7 21.35 L-15.5 16.55 Q-15.5 11.05 -16.4 4.9 L-16.65 3.25 -15.95 6.45 Q-14.5 12.75 -14.5 15.75 -14.5 27.65 -18.25 33.1 L-20.85 36.4 Q-22.05 38.1 -22.05 40.2 L-21.8 41.0 Q-21.5 41.45 -21.0 41.25 -15.85 41.8 -13.1 30.85 -11.05 22.75 -11.05 13.55 L-11.9 5.2 -12.8 -4.55 -12.75 -6.0 -11.6 -6.0 -11.7 -4.65 -10.8 4.95 -9.95 13.1 Q-9.95 22.4 -11.0 27.5 L-12.1 31.65 -11.35 36.7 Q-10.1 41.6 -7.65 41.6 L-6.75 41.45 -6.45 41.25 Q-6.45 40.4 -7.25 36.95 -8.0 33.65 -8.0 27.0 L-6.65 16.95 Q-5.3 7.45 -5.3 -0.3 -5.3 -2.95 -6.0 -6.0 L-4.75 -6.0 Q-4.4 -3.85 -5.3 5.6 -6.4 16.6 -6.4 20.3 L-5.15 29.65 Q-3.0 37.75 -1.55 39.05 L0.1 40.55 0.7 40.7 1.5 40.35 Q1.9 40.05 1.8 39.3 0.6 32.45 0.6 31.0 L-1.45 27.6 Q-3.55 23.6 -3.55 16.35 L-3.4 13.9 -3.15 11.65 -2.95 12.45 -2.75 13.45 Q-2.25 18.15 -2.2 23.45 -1.85 26.8 0.85 28.9 L1.0 28.3 1.45 21.7 0.4 14.5 Q-0.7 8.6 -0.7 6.7 -0.7 4.4 0.3 0.0 L1.9 -6.0 M23.7 -13.05 L24.65 -13.45 Q25.75 -9.8 26.75 -2.6 27.85 5.25 27.85 10.95 27.85 16.5 27.4 20.3 26.75 25.85 25.3 25.85 24.3 25.85 23.4 12.65 22.7 1.9 22.7 -3.4 L21.85 -6.35 Q20.95 -9.6 20.65 -11.8 L21.8 -12.25 23.35 -2.8 Q24.6 5.95 24.6 9.35 L24.5 17.7 Q24.55 23.95 25.0 24.8 L25.25 24.7 Q26.8 22.1 26.8 11.5 26.8 4.85 25.85 -2.2 25.0 -8.9 23.7 -13.05 M-30.5 -15.75 L-29.4 -15.75 Q-28.85 -9.35 -27.9 -3.4 -27.15 1.0 -27.15 3.65 -27.15 9.75 -28.7 18.05 -30.3 26.3 -30.3 27.75 -30.3 34.1 -29.15 36.95 L-28.05 39.35 Q-28.05 40.3 -28.8 41.2 -29.7 42.25 -31.0 42.25 -33.9 42.25 -35.2 37.35 L-35.95 32.35 Q-35.95 27.05 -34.35 20.5 -32.75 13.9 -32.75 11.65 -32.75 7.45 -34.0 0.5 -35.25 -6.4 -35.25 -7.95 L-34.7 -15.75 -33.75 -15.75 -34.25 -8.05 Q-34.25 -3.55 -33.0 3.1 -31.75 9.75 -31.75 11.65 -31.75 14.2 -33.3 20.9 -34.9 27.55 -34.9 32.25 -34.9 36.2 -33.45 38.85 -32.15 41.2 -30.6 41.2 -28.95 41.4 -28.95 39.3 -28.95 38.65 -30.05 35.3 -31.2 32.0 -31.2 28.9 -31.2 25.55 -29.65 18.75 -28.15 12.0 -28.15 7.85 -28.15 5.0 -29.4 -3.2 -30.65 -11.05 -30.5 -15.75 M-25.45 -12.0 Q-25.2 -4.65 -23.55 8.6 L-22.0 21.7 Q-22.0 23.7 -22.55 25.3 L-22.85 26.0 Q-23.7 27.8 -25.1 28.25 L-26.1 28.35 -26.35 28.5 -27.25 29.8 -25.2 31.3 Q-18.8 31.3 -18.8 16.45 L-21.1 5.95 Q-23.45 -4.95 -23.45 -9.55 L-23.35 -12.0 -22.25 -12.0 Q-22.95 -6.65 -20.45 2.1 -17.7 11.8 -17.7 15.75 -17.7 32.2 -24.95 32.2 -26.35 32.2 -27.15 31.6 -28.05 30.95 -28.05 29.7 -28.05 28.0 -25.5 26.6 -22.95 25.15 -22.95 22.2 -22.95 19.4 -24.8 8.35 -26.7 -2.65 -26.7 -10.0 L-26.6 -12.0 -25.45 -12.0 M-17.25 -0.6 L-18.2 -6.0 -17.0 -6.0 -17.4 -2.7 -17.25 -0.6" fill="#6f5c4d" fill-rule="evenodd" stroke="none"/>
    <path d="M38.45 -30.1 Q42.0 -23.35 43.05 -11.9 L44.0 11.2 Q44.35 19.25 50.2 24.85 L46.65 22.55 Q47.2 26.4 52.2 29.35 54.7 30.85 57.15 31.55 L57.9 31.5 58.0 31.55 58.1 30.95 Q58.1 30.55 57.2 29.75 L57.75 30.05 Q60.2 31.4 60.2 31.8 60.2 32.3 59.8 32.75 59.1 33.45 57.7 33.45 50.25 33.45 43.75 21.5 36.8 8.85 36.8 -7.6 L36.9 -18.6 37.25 -18.75 38.45 -30.1 M35.8 -18.15 Q35.65 2.5 38.1 10.9 L39.75 15.4 Q40.55 17.25 40.55 19.05 40.55 21.8 43.0 29.25 L45.6 37.25 45.45 38.2 Q42.55 36.2 38.1 22.45 34.05 9.85 34.05 6.65 34.3 -6.5 34.15 -17.45 L35.8 -18.15 M33.35 -17.1 L33.3 -12.15 32.8 21.85 Q32.8 34.15 34.05 39.2 L35.3 44.3 Q35.3 45.3 35.15 44.8 L34.95 45.1 34.15 45.25 Q31.95 45.25 31.15 39.4 30.55 35.35 30.35 24.7 29.8 -3.3 27.45 -14.65 L33.35 -17.1 M1.9 -6.0 L0.3 0.0 Q-0.7 4.4 -0.7 6.7 -0.7 8.6 0.4 14.5 L1.45 21.7 1.0 28.3 0.85 28.9 Q-1.85 26.8 -2.2 23.45 -2.25 18.15 -2.75 13.45 L-2.95 12.45 -3.15 11.65 -3.4 13.9 -3.55 16.35 Q-3.55 23.6 -1.45 27.6 L0.6 31.0 Q0.6 32.45 1.8 39.3 1.9 40.05 1.5 40.35 L0.7 40.7 0.1 40.55 -1.55 39.05 Q-3.0 37.75 -5.15 29.65 L-6.4 20.3 Q-6.4 16.6 -5.3 5.6 -4.4 -3.85 -4.75 -6.0 L1.9 -6.0 M-6.0 -6.0 Q-5.3 -2.95 -5.3 -0.3 -5.3 7.45 -6.65 16.95 L-8.0 27.0 Q-8.0 33.65 -7.25 36.95 -6.45 40.4 -6.45 41.25 L-6.75 41.45 -7.65 41.6 Q-10.1 41.6 -11.35 36.7 L-12.1 31.65 -11.0 27.5 Q-9.95 22.4 -9.95 13.1 L-10.8 4.95 -11.7 -4.65 -11.6 -6.0 -6.0 -6.0 M-12.75 -6.0 L-12.8 -4.55 -11.9 5.2 -11.05 13.55 Q-11.05 22.75 -13.1 30.85 -15.85 41.8 -21.0 41.25 -21.5 41.45 -21.8 41.0 L-22.05 40.2 Q-22.05 38.1 -20.85 36.4 L-18.25 33.1 Q-14.5 27.65 -14.5 15.75 -14.5 12.75 -15.95 6.45 L-16.65 3.25 -17.25 -0.6 -17.4 -2.7 -17.0 -6.0 -12.75 -6.0 M18.6 -6.0 Q18.4 -0.75 18.45 5.25 18.55 17.0 21.75 35.2 L21.2 35.6 Q19.9 33.6 16.05 20.2 11.65 4.7 11.65 -2.65 L11.85 -6.0 18.6 -6.0 M10.6 -6.0 L10.3 1.45 Q10.3 4.7 11.4 15.0 12.85 28.1 14.7 35.95 15.1 37.35 14.3 37.85 L13.35 38.05 Q6.8 22.75 6.8 5.65 6.8 2.25 7.1 0.65 L8.75 -6.0 10.6 -6.0 M7.75 -6.0 L6.7 -2.0 Q5.7 2.45 5.7 5.8 5.7 8.15 6.95 17.0 8.15 25.85 8.15 30.95 8.15 33.5 7.25 37.2 L6.25 41.1 6.15 41.2 Q5.15 39.3 4.3 35.05 3.45 30.95 3.45 28.4 3.45 17.7 1.95 13.35 0.4 8.95 0.4 6.6 1.8 -2.1 3.05 -6.0 L7.75 -6.0 M21.8 -12.25 L23.7 -13.05 Q25.0 -8.9 25.85 -2.2 26.8 4.85 26.8 11.5 26.8 22.1 25.25 24.7 L25.0 24.8 Q24.55 23.95 24.5 17.7 L24.6 9.35 Q24.6 5.95 23.35 -2.8 L21.8 -12.25 M43.75 35.4 Q44.25 35.85 44.25 34.85 44.25 33.6 43.05 31.0 41.7 28.15 40.05 26.2 L40.05 26.1 40.0 26.75 41.25 30.65 Q42.7 34.6 43.75 35.4 M-30.5 -15.75 Q-30.65 -11.05 -29.4 -3.2 -28.15 5.0 -28.15 7.85 -28.15 12.0 -29.65 18.75 -31.2 25.55 -31.2 28.9 -31.2 32.0 -30.05 35.3 -28.95 38.65 -28.95 39.3 -28.95 41.4 -30.6 41.2 -32.15 41.2 -33.45 38.85 -34.9 36.2 -34.9 32.25 -34.9 27.55 -33.3 20.9 -31.75 14.2 -31.75 11.65 -31.75 9.75 -33.0 3.1 -34.25 -3.55 -34.25 -8.05 L-33.75 -15.75 -30.5 -15.75 M-25.45 -12.0 L-23.35 -12.0 -23.45 -9.55 Q-23.45 -4.95 -21.1 5.95 L-18.8 16.45 Q-18.8 31.3 -25.2 31.3 L-27.25 29.8 -26.35 28.5 -26.1 28.35 -25.1 28.25 -25.9 29.15 -25.8 29.6 -25.05 29.8 Q-22.0 29.8 -20.8 27.45 L-19.95 24.15 Q-20.0 23.6 -20.2 23.35 -21.2 23.8 -22.55 25.3 -22.0 23.7 -22.0 21.7 L-23.55 8.6 Q-25.2 -4.65 -25.45 -12.0 M-32.05 21.3 Q-33.0 22.3 -33.55 25.3 -34.0 27.75 -34.0 30.2 -34.0 33.9 -33.5 35.95 -32.8 38.55 -31.2 39.3 L-30.8 39.45 -30.7 38.9 Q-30.7 36.35 -31.7 33.4 -32.75 30.45 -32.75 28.85 L-32.35 26.0 Q-32.0 23.35 -31.95 21.5 L-32.05 21.3" fill="#b9a99b" fill-rule="evenodd" stroke="none"/>
    <path d="M50.2 24.85 L52.35 26.65 57.2 29.75 Q58.1 30.55 58.1 30.95 L58.0 31.55 57.9 31.5 57.15 31.55 Q54.7 30.85 52.2 29.35 47.2 26.4 46.65 22.55 L50.2 24.85 M43.75 35.4 Q42.7 34.6 41.25 30.65 L40.0 26.75 40.05 26.1 40.05 26.2 Q41.7 28.15 43.05 31.0 44.25 33.6 44.25 34.85 44.25 35.85 43.75 35.4 M-22.55 25.3 Q-21.2 23.8 -20.2 23.35 -20.0 23.6 -19.95 24.15 L-20.8 27.45 Q-22.0 29.8 -25.05 29.8 L-25.8 29.6 -25.9 29.15 -25.1 28.25 Q-23.7 27.8 -22.85 26.0 L-22.55 25.3 M-32.05 21.3 L-31.95 21.5 Q-32.0 23.35 -32.35 26.0 L-32.75 28.85 Q-32.75 30.45 -31.7 33.4 -30.7 36.35 -30.7 38.9 L-30.8 39.45 -31.2 39.3 Q-32.8 38.55 -33.5 35.95 -34.0 33.9 -34.0 30.2 -34.0 27.75 -33.55 25.3 -33.0 22.3 -32.05 21.3" fill="#d4c3b3" fill-rule="evenodd" stroke="none"/>
  </g>
</svg>
