<?xml version="1.0" encoding="UTF-8" standalone="no"?>
<svg xmlns:ffdec="https://www.free-decompiler.com/flash" xmlns:xlink="http://www.w3.org/1999/xlink" ffdec:objectType="shape" height="68.55px" width="78.7px" xmlns="http://www.w3.org/2000/svg">
  <g transform="matrix(1.0, 0.0, 0.0, 1.0, 17.75, 23.55)">
    <path d="M47.75 -2.45 L48.9 0.55 48.15 0.1 Q50.5 9.85 55.55 18.25 L60.95 25.8 60.95 26.35 Q60.85 26.7 60.2 26.7 57.5 26.7 52.65 25.3 46.9 23.65 45.2 21.6 45.65 26.5 49.35 33.05 52.9 39.4 52.9 40.4 L51.25 40.5 Q49.55 40.5 47.25 38.9 L38.25 32.1 37.85 31.45 35.95 28.05 Q37.8 29.15 42.95 33.05 L49.35 37.6 Q48.85 36.9 46.0 28.8 43.1 20.4 43.05 18.95 44.0 18.95 48.3 20.9 53.35 23.1 56.65 23.95 L52.5 16.6 Q48.75 8.85 44.05 -5.15 L47.75 -2.45" fill="#97877d" fill-rule="evenodd" stroke="none"/>
    <path d="M35.95 28.05 L31.5 18.85 28.65 20.35 Q29.6 12.9 29.05 8.5 28.35 2.9 28.15 -2.75 L27.75 -13.5 27.4 -19.9 42.6 -16.1 47.75 -2.45 44.05 -5.15 Q48.75 8.85 52.5 16.6 L56.65 23.95 Q53.35 23.1 48.3 20.9 44.0 18.95 43.05 18.95 43.1 20.4 46.0 28.8 48.85 36.9 49.35 37.6 L42.95 33.05 Q37.8 29.15 35.95 28.05 M36.8 5.35 Q36.45 4.8 35.55 4.35 L34.55 3.95 Q33.55 3.95 32.7 5.85 31.7 8.2 31.7 12.2 31.7 16.75 33.95 20.05 36.3 23.55 41.75 26.5 L39.35 15.8 Q37.05 5.7 36.8 5.35 M43.4 4.7 Q42.4 4.85 41.8 7.2 L41.4 9.65 Q41.4 13.25 43.3 15.3 45.45 17.65 51.1 19.35 L43.4 4.7" fill="#cbc8c0" fill-rule="evenodd" stroke="none"/>
    <path d="M43.4 4.7 L51.1 19.35 Q45.45 17.65 43.3 15.3 41.4 13.25 41.4 9.65 L41.8 7.2 Q42.4 4.85 43.4 4.7 M36.8 5.35 Q37.05 5.7 39.35 15.8 L41.75 26.5 Q36.3 23.55 33.95 20.05 31.7 16.75 31.7 12.2 31.7 8.2 32.7 5.85 33.55 3.95 34.55 3.95 L35.55 4.35 Q36.45 4.8 36.8 5.35" fill="#ebe8e0" fill-rule="evenodd" stroke="none"/>
    <path d="M-15.55 -10.7 Q-9.25 -5.6 -6.0 3.45 -3.55 10.25 -3.55 16.2 -3.55 22.45 -6.15 26.8 -7.9 29.75 -13.85 35.85 L-11.2 36.4 -8.55 36.7 Q-5.65 36.7 -2.25 34.7 L0.85 32.55 1.65 32.7 Q2.4 36.3 2.4 38.0 L1.85 41.95 Q6.0 42.05 8.4 36.3 10.2 30.15 10.75 29.35 12.15 30.75 14.7 35.55 L17.25 40.45 17.55 40.75 Q17.5 36.85 18.1 32.8 18.75 28.4 19.65 27.35 20.75 27.7 26.9 33.75 33.75 40.45 34.8 41.25 L35.5 41.6 34.95 36.6 Q34.4 32.75 34.4 30.35 34.4 29.0 34.95 28.05 L35.5 27.75 35.95 28.05 37.85 31.45 38.25 32.1 36.35 30.7 Q37.15 39.25 37.15 41.15 L37.05 43.5 36.8 44.0 Q34.75 44.0 28.25 38.9 21.3 33.5 20.15 30.0 L19.05 42.75 18.75 43.4 Q15.2 42.3 11.15 33.35 6.65 40.8 5.25 42.2 3.9 43.55 -0.4 45.0 L-1.1 44.45 -1.4 43.9 -0.7 41.9 Q0.1 39.45 0.45 36.0 -0.65 37.2 -3.9 38.0 L-8.8 38.65 -12.75 37.65 Q-15.6 36.6 -16.6 35.7 -9.05 28.55 -7.7 26.3 -5.45 22.65 -5.45 15.15 -5.45 6.85 -7.8 0.8 -10.7 -6.8 -16.95 -9.6 L-17.75 -9.7 -15.55 -10.7" fill="#6f5c4d" fill-rule="evenodd" stroke="none"/>
    <path d="M-15.55 -10.7 L12.9 -23.55 27.4 -19.9 27.75 -13.5 28.15 -2.75 Q28.35 2.9 29.05 8.5 29.6 12.9 28.65 20.35 L31.5 18.85 35.95 28.05 35.5 27.75 34.95 28.05 Q34.4 29.0 34.4 30.35 34.4 32.75 34.95 36.6 L35.5 41.6 34.8 41.25 Q33.75 40.45 26.9 33.75 20.75 27.7 19.65 27.35 18.75 28.4 18.1 32.8 17.5 36.85 17.55 40.75 L17.25 40.45 14.7 35.55 Q12.15 30.75 10.75 29.35 10.2 30.15 8.4 36.3 6.0 42.05 1.85 41.95 L2.4 38.0 Q2.4 36.3 1.65 32.7 L0.85 32.55 -2.25 34.7 Q-5.65 36.7 -8.55 36.7 L-11.2 36.4 -13.85 35.85 Q-7.9 29.75 -6.15 26.8 -3.55 22.45 -3.55 16.2 -3.55 10.25 -6.0 3.45 -9.25 -5.6 -15.55 -10.7 M2.7 27.45 Q6.35 21.45 5.6 17.9 0.25 18.55 -2.4 23.5 L-6.85 32.8 Q-1.45 34.3 2.7 27.45 M23.95 27.05 Q24.8 29.45 27.25 31.75 29.75 34.1 32.65 35.1 30.9 21.8 30.9 21.05 21.85 21.05 23.95 27.05 M18.9 16.45 L18.75 14.3 Q14.9 14.3 13.15 16.95 11.95 18.75 11.95 21.25 11.95 22.4 12.75 25.35 13.8 29.2 15.25 30.35 16.5 28.15 17.75 22.95 18.9 18.2 18.9 16.45" fill="#b9a99b" fill-rule="evenodd" stroke="none"/>
    <path d="M18.9 16.45 Q18.9 18.2 17.75 22.95 16.5 28.15 15.25 30.35 13.8 29.2 12.75 25.35 11.95 22.4 11.95 21.25 11.95 18.75 13.15 16.95 14.9 14.3 18.75 14.3 L18.9 16.45 M23.95 27.05 Q21.85 21.05 30.9 21.05 30.9 21.8 32.65 35.1 29.75 34.1 27.25 31.75 24.8 29.45 23.95 27.05 M2.7 27.45 Q-1.45 34.3 -6.85 32.8 L-2.4 23.5 Q0.25 18.55 5.6 17.9 6.35 21.45 2.7 27.45" fill="#d2c6bb" fill-rule="evenodd" stroke="none"/>
  </g>
</svg>
