<?xml version="1.0" encoding="UTF-8" standalone="no"?>
<svg xmlns:ffdec="https://www.free-decompiler.com/flash" xmlns:xlink="http://www.w3.org/1999/xlink" ffdec:objectType="shape" height="65.0px" width="84.8px" xmlns="http://www.w3.org/2000/svg">
  <g transform="matrix(1.0, 0.0, 0.0, 1.0, 57.35, 50.9)">
    <path d="M17.35 6.55 L14.95 5.85 12.15 5.15 Q11.15 5.0 9.5 4.0 9.95 1.15 9.95 -2.7 L9.95 -3.85 10.5 -6.3 11.4 -10.9 10.5 -14.0 10.05 -14.95 10.0 -15.0 9.3 -16.8 6.9 -18.8 5.95 -19.55 6.85 -20.25 2.8 -23.8 Q-0.75 -26.75 -1.85 -26.75 -2.55 -26.75 -2.9 -26.25 L-3.45 -25.15 -3.5 -25.05 -3.65 -25.25 Q-5.3 -27.0 -6.25 -27.0 -7.0 -27.0 -7.6 -26.4 L-8.05 -25.95 -8.35 -26.55 -8.85 -27.65 -9.65 -27.95 -11.6 -26.9 -12.35 -26.45 Q-14.85 -24.95 -15.45 -24.9 L-16.15 -26.75 -16.25 -27.15 -17.0 -28.8 Q-19.55 -28.2 -23.55 -26.8 L-30.8 -24.05 -32.1 -25.55 Q-32.8 -26.55 -33.75 -26.55 L-35.6 -25.8 Q-37.45 -25.05 -38.2 -25.0 L-38.15 -26.7 -38.1 -26.9 Q-38.15 -27.1 -38.8 -27.1 -39.65 -27.1 -42.8 -25.75 -46.45 -24.15 -50.15 -23.55 L-46.05 -27.5 -46.55 -27.75 Q-47.05 -28.15 -47.05 -28.8 -47.0 -29.7 -45.2 -30.75 L-45.1 -30.8 -39.3 -34.5 -39.45 -35.25 -39.45 -36.1 -39.45 -36.3 Q-39.3 -37.65 -37.8 -37.8 L-36.5 -37.9 Q-34.3 -38.2 -34.0 -38.5 L-34.85 -41.25 -30.7 -42.4 -28.25 -42.55 -23.45 -42.95 Q-20.05 -43.4 -19.7 -44.2 L-14.25 -41.9 -13.45 -43.2 -11.95 -44.35 -11.15 -44.5 -10.8 -44.25 -5.95 -40.45 -5.2 -41.55 Q-4.35 -42.65 -3.6 -42.65 -1.5 -42.65 0.4 -40.55 2.25 -38.5 3.5 -38.5 4.0 -38.5 4.7 -39.2 L5.0 -39.5 Q5.45 -39.9 5.85 -39.9 7.9 -39.0 8.7 -37.45 9.0 -36.8 10.25 -36.2 11.4 -35.65 12.2 -35.65 L13.0 -35.65 16.45 -35.15 Q17.25 -34.8 17.25 -34.1 L16.6 -32.0 16.6 -31.95 15.9 -30.65 18.65 -29.15 19.05 -28.9 Q20.5 -27.95 20.5 -27.0 L20.5 -26.75 Q20.4 -26.3 19.95 -25.95 L18.95 -25.25 17.65 -24.25 22.0 -19.05 22.2 -18.75 22.2 -18.55 Q22.2 -17.85 22.55 -16.7 L19.15 -16.85 16.25 -17.65 Q17.25 -14.85 17.8 -11.75 19.0 -10.65 19.95 -8.75 L21.8 -5.05 21.35 -4.5 Q20.65 -4.75 18.7 -5.95 L18.5 -6.1 18.55 -3.2 18.55 -1.65 18.9 -1.7 20.1 -1.35 Q20.55 -1.0 20.55 -0.5 20.55 0.0 20.1 0.35 L18.9 0.7 18.4 0.65 Q18.1 3.9 17.35 6.55 M12.3 -2.25 Q12.75 -1.05 13.1 -0.65 L15.5 -0.75 Q13.7 -1.5 13.15 -1.95 12.9 -2.2 12.3 -2.25 M14.1 -7.35 L13.1 -7.0 Q14.1 -5.05 15.0 -4.55 15.35 -4.6 15.45 -4.8 L14.1 -7.35 M15.35 -20.55 L16.35 -20.75 Q15.6 -22.35 13.35 -23.65 L12.35 -24.2 9.35 -25.35 Q8.65 -25.35 7.6 -23.65 9.8 -21.75 15.0 -20.6 L15.35 -20.55 M11.45 -16.7 L11.25 -16.3 Q12.15 -13.9 14.8 -11.25 L15.2 -11.95 Q14.75 -13.4 14.55 -15.5 14.15 -16.9 12.25 -16.9 L11.45 -16.7 M7.0 -31.1 L6.9 -31.05 Q5.1 -30.3 3.85 -29.4 L4.5 -28.45 8.4 -28.0 10.15 -28.0 Q11.8 -28.15 12.8 -29.05 12.9 -30.45 12.05 -31.35 11.45 -32.05 11.05 -32.05 9.3 -32.05 7.0 -31.1 M3.9 -33.05 L4.5 -33.05 Q6.1 -33.2 6.6 -34.15 4.9 -36.5 -0.9 -38.75 -1.8 -38.75 -2.8 -37.35 L-3.3 -36.65 Q-4.45 -34.8 -4.45 -33.8 -4.45 -33.15 -4.2 -33.15 L-4.0 -33.3 3.9 -33.05 M-44.05 -34.75 Q-44.1 -34.5 -45.0 -33.8 L-46.55 -32.7 Q-49.1 -31.05 -50.2 -31.0 -48.75 -33.3 -46.95 -34.1 L-44.55 -35.1 Q-44.1 -35.2 -44.05 -34.75 M-6.05 -32.45 Q-6.8 -32.25 -7.25 -31.9 -8.15 -31.2 -8.15 -29.85 -8.15 -29.2 -7.25 -28.45 -6.05 -27.4 -3.85 -27.4 -2.75 -27.4 -1.2 -28.5 L-1.15 -28.55 1.45 -30.55 Q-2.2 -32.7 -3.7 -32.7 L-6.05 -32.45 M-15.9 -38.55 Q-17.8 -38.55 -19.75 -37.5 -23.75 -35.45 -28.0 -29.3 -27.95 -28.75 -27.5 -28.45 L-27.05 -28.25 -13.0 -32.25 Q-11.65 -32.75 -11.35 -33.25 -11.15 -33.6 -11.15 -34.75 L-11.15 -35.15 Q-11.35 -36.3 -12.4 -37.25 -13.8 -38.55 -15.9 -38.55 M-4.55 -37.65 L-5.25 -38.3 Q-8.05 -38.6 -9.5 -39.9 L-9.6 -40.0 -11.4 -41.6 -11.6 -41.4 -11.7 -40.75 -11.7 -40.45 -10.85 -37.0 Q-10.2 -35.1 -9.5 -34.4 L-8.75 -34.05 Q-7.1 -34.05 -6.05 -35.35 L-4.55 -37.65 M-20.8 -44.55 Q-21.25 -44.05 -24.35 -43.8 L-28.15 -43.6 -28.75 -43.65 -28.9 -43.9 -29.25 -44.6 Q-27.75 -45.75 -25.0 -45.6 L-24.2 -45.5 Q-22.3 -45.3 -20.8 -44.55 M-30.55 -34.95 L-33.15 -35.45 Q-34.6 -35.45 -36.85 -33.45 -38.95 -31.6 -39.5 -30.0 -37.3 -29.55 -33.75 -30.55 -30.05 -31.6 -28.15 -33.4 -28.9 -34.35 -30.55 -34.95 M-29.5 -40.75 L-29.4 -40.3 Q-29.0 -38.35 -28.1 -37.55 -27.15 -36.75 -25.7 -37.25 L-24.2 -37.9 Q-23.05 -38.6 -22.65 -39.6 L-23.25 -40.55 -27.35 -40.7 -29.5 -40.75" fill="#ebe8e0" fill-rule="evenodd" stroke="none"/>
    <path d="M9.5 4.0 Q8.8 3.95 8.75 3.15 L8.7 1.45 9.95 -3.85 9.95 -2.7 Q9.95 1.15 9.5 4.0 M3.9 -33.05 L-4.0 -33.3 -4.2 -33.15 Q-4.45 -33.15 -4.45 -33.8 -4.45 -34.8 -3.3 -36.65 L-2.8 -37.35 Q-1.8 -38.75 -0.9 -38.75 4.9 -36.5 6.6 -34.15 6.1 -33.2 4.5 -33.05 L3.9 -33.05 M7.0 -31.1 Q9.3 -32.05 11.05 -32.05 11.45 -32.05 12.05 -31.35 12.9 -30.45 12.8 -29.05 11.8 -28.15 10.15 -28.0 L8.4 -28.0 4.5 -28.45 3.85 -29.4 Q5.1 -30.3 6.9 -31.05 L7.0 -31.1 M11.45 -16.7 L12.25 -16.9 Q14.15 -16.9 14.55 -15.5 14.75 -13.4 15.2 -11.95 L14.8 -11.25 Q12.15 -13.9 11.25 -16.3 L11.45 -16.7 M15.35 -20.55 L15.0 -20.6 Q9.8 -21.75 7.6 -23.65 8.65 -25.35 9.35 -25.35 L12.35 -24.2 13.35 -23.65 Q15.6 -22.35 16.35 -20.75 L15.35 -20.55 M14.1 -7.35 L15.45 -4.8 Q15.35 -4.6 15.0 -4.55 14.1 -5.05 13.1 -7.0 L14.1 -7.35 M12.3 -2.25 Q12.9 -2.2 13.15 -1.95 13.7 -1.5 15.5 -0.75 L13.1 -0.65 Q12.75 -1.05 12.3 -2.25 M-4.55 -37.65 L-6.05 -35.35 Q-7.1 -34.05 -8.75 -34.05 L-9.5 -34.4 Q-10.2 -35.1 -10.85 -37.0 L-11.7 -40.45 -11.7 -40.75 -11.6 -41.4 -11.4 -41.6 -9.6 -40.0 -9.5 -39.9 Q-8.05 -38.6 -5.25 -38.3 L-4.55 -37.65 M-15.9 -38.55 Q-13.8 -38.55 -12.4 -37.25 -11.35 -36.3 -11.15 -35.15 L-11.15 -34.75 Q-11.15 -33.6 -11.35 -33.25 -11.65 -32.75 -13.0 -32.25 L-27.05 -28.25 -27.5 -28.45 Q-27.95 -28.75 -28.0 -29.3 -23.75 -35.45 -19.75 -37.5 -17.8 -38.55 -15.9 -38.55 M-6.05 -32.45 L-3.7 -32.7 Q-2.2 -32.7 1.45 -30.55 L-1.15 -28.55 -1.2 -28.5 Q-2.75 -27.4 -3.85 -27.4 -6.05 -27.4 -7.25 -28.45 -8.15 -29.2 -8.15 -29.85 -8.15 -31.2 -7.25 -31.9 -6.8 -32.25 -6.05 -32.45 M-29.5 -40.75 L-27.35 -40.7 -23.25 -40.55 -22.65 -39.6 Q-23.05 -38.6 -24.2 -37.9 L-25.7 -37.25 Q-27.15 -36.75 -28.1 -37.55 -29.0 -38.35 -29.4 -40.3 L-29.5 -40.75 M-30.55 -34.95 Q-28.9 -34.35 -28.15 -33.4 -30.05 -31.6 -33.75 -30.55 -37.3 -29.55 -39.5 -30.0 -38.95 -31.6 -36.85 -33.45 -34.6 -35.45 -33.15 -35.45 L-30.55 -34.95" fill="#ffffff" fill-rule="evenodd" stroke="none"/>
    <path d="M27.35 -10.35 L27.45 -9.3 26.95 -9.25 27.35 -10.35 M20.75 12.85 Q20.15 8.3 17.35 6.55 18.1 3.9 18.4 0.65 L18.9 0.7 20.1 0.35 Q20.55 0.0 20.55 -0.5 20.55 -1.0 20.1 -1.35 L18.9 -1.7 18.55 -1.65 18.55 -3.2 18.5 -6.1 18.7 -5.95 Q20.65 -4.75 21.35 -4.5 L21.8 -5.05 19.95 -8.75 Q19.0 -10.65 17.8 -11.75 17.25 -14.85 16.25 -17.65 L19.15 -16.85 22.55 -16.7 Q22.2 -17.85 22.2 -18.55 L22.2 -18.75 22.0 -19.05 17.65 -24.25 18.95 -25.25 19.95 -25.95 Q20.4 -26.3 20.5 -26.75 L20.5 -27.0 Q20.5 -27.95 19.05 -28.9 L18.65 -29.15 15.9 -30.65 16.6 -31.95 16.6 -32.0 17.25 -34.1 Q17.25 -34.8 16.45 -35.15 L13.0 -35.65 12.2 -35.65 Q11.4 -35.65 10.25 -36.2 9.0 -36.8 8.7 -37.45 7.9 -39.0 5.85 -39.9 5.45 -39.9 5.0 -39.5 L4.7 -39.2 Q4.0 -38.5 3.5 -38.5 2.25 -38.5 0.4 -40.55 -1.5 -42.65 -3.6 -42.65 -4.35 -42.65 -5.2 -41.55 L-5.95 -40.45 -10.8 -44.25 -11.15 -44.5 -11.95 -44.35 -13.45 -43.2 -14.25 -41.9 -19.7 -44.2 Q-20.05 -43.4 -23.45 -42.95 L-28.25 -42.55 -30.7 -42.4 -34.85 -41.25 -34.0 -38.5 Q-34.3 -38.2 -36.5 -37.9 L-37.8 -37.8 Q-39.3 -37.65 -39.45 -36.3 L-39.45 -36.1 -39.45 -35.25 -39.3 -34.5 -45.1 -30.8 -45.2 -30.75 Q-47.0 -29.7 -47.05 -28.8 -47.05 -28.15 -46.55 -27.75 L-46.05 -27.5 -50.15 -23.55 Q-46.45 -24.15 -42.8 -25.75 -39.65 -27.1 -38.8 -27.1 -38.15 -27.1 -38.1 -26.9 L-38.15 -26.7 -38.2 -25.0 Q-37.45 -25.05 -35.6 -25.8 L-33.75 -26.55 Q-32.8 -26.55 -32.1 -25.55 L-30.8 -24.05 -23.55 -26.8 Q-19.55 -28.2 -17.0 -28.8 L-16.25 -27.15 -16.15 -26.75 -15.45 -24.9 Q-14.85 -24.95 -12.35 -26.45 L-11.6 -26.9 -9.65 -27.95 -8.85 -27.65 -8.35 -26.55 -8.05 -25.95 -7.6 -26.4 Q-7.0 -27.0 -6.25 -27.0 -5.3 -27.0 -3.65 -25.25 L-3.5 -25.05 -3.45 -25.15 -2.9 -26.25 Q-2.55 -26.75 -1.85 -26.75 -0.75 -26.75 2.8 -23.8 L6.85 -20.25 5.95 -19.55 5.85 -19.5 1.9 -22.0 Q0.65 -23.45 -0.8 -23.35 L-2.75 -23.0 Q-3.25 -23.0 -4.8 -23.8 -6.35 -24.6 -6.85 -24.6 -7.45 -24.6 -8.6 -23.7 -10.05 -22.55 -10.9 -21.95 -10.85 -23.9 -11.75 -24.3 L-18.05 -22.15 -18.75 -24.65 Q-21.05 -24.5 -26.25 -22.65 L-32.55 -20.25 Q-33.4 -23.4 -34.6 -23.4 L-37.85 -22.55 -41.75 -21.55 Q-41.6 -23.45 -42.65 -24.15 -44.65 -23.15 -50.65 -21.9 L-53.75 -21.8 -51.45 -26.7 Q-52.9 -27.3 -55.3 -27.75 L-51.35 -32.85 Q-49.05 -35.8 -47.55 -36.85 -48.2 -37.6 -48.25 -38.2 L-48.05 -39.15 -44.6 -40.55 Q-41.55 -41.9 -39.7 -43.3 -38.35 -44.35 -38.35 -44.6 -38.35 -45.6 -38.9 -46.6 L-31.65 -46.85 -28.9 -48.4 -26.55 -48.0 -24.2 -47.6 -20.05 -48.0 Q-18.9 -48.35 -17.55 -49.4 L-9.7 -47.55 -8.9 -48.9 Q-0.5 -45.9 1.05 -45.1 4.35 -43.35 7.1 -40.9 9.3 -38.95 10.2 -39.15 11.05 -39.4 12.3 -40.05 13.5 -40.7 14.9 -42.05 L14.95 -41.9 15.05 -37.8 19.25 -37.3 21.75 -37.05 Q19.2 -34.85 19.2 -33.85 L18.8 -32.95 21.15 -31.65 Q23.05 -30.8 23.05 -28.95 23.05 -28.45 22.65 -27.95 22.25 -27.45 22.25 -26.95 22.25 -25.35 23.7 -23.05 25.1 -20.8 25.1 -19.65 L25.35 -15.55 25.65 -10.6 23.85 -12.95 Q24.7 -8.9 24.7 -4.65 24.7 4.7 20.75 12.85 M-44.05 -34.75 Q-44.1 -35.2 -44.55 -35.1 L-46.95 -34.1 Q-48.75 -33.3 -50.2 -31.0 -49.1 -31.05 -46.55 -32.7 L-45.0 -33.8 Q-44.1 -34.5 -44.05 -34.75 M-20.8 -44.55 Q-22.3 -45.3 -24.2 -45.5 L-25.0 -45.6 Q-27.75 -45.75 -29.25 -44.6 L-28.9 -43.9 -28.75 -43.65 -28.15 -43.6 -24.35 -43.8 Q-21.25 -44.05 -20.8 -44.55" fill="#cbc8c0" fill-rule="evenodd" stroke="none"/>
    <path d="M1.9 -22.0 L-2.75 -21.75 -4.85 -22.55 -7.0 -23.4 -9.05 -22.15 Q-10.6 -20.95 -11.1 -20.95 -12.1 -20.95 -12.4 -22.65 -16.6 -20.7 -17.15 -20.7 -18.15 -20.7 -18.9 -21.3 -19.9 -22.1 -19.8 -23.55 L-26.85 -20.5 Q-30.8 -18.9 -33.3 -18.9 -33.9 -18.9 -34.3 -20.0 L-35.0 -22.15 -41.9 -19.95 -42.65 -20.4 Q-43.4 -21.1 -43.5 -22.25 -47.8 -20.25 -51.05 -20.25 -53.1 -20.25 -55.65 -21.4 L-52.8 -25.8 Q-57.35 -25.9 -57.35 -26.9 -54.05 -32.45 -52.35 -34.25 L-49.6 -37.25 -49.55 -39.3 Q-49.55 -40.3 -44.75 -41.95 -39.95 -43.65 -39.95 -45.3 -39.95 -46.3 -41.0 -46.9 L-36.6 -47.35 Q-34.65 -47.35 -32.1 -48.05 L-29.5 -49.9 -28.05 -49.65 -23.1 -48.8 Q-21.9 -48.8 -20.2 -49.5 -18.7 -50.15 -17.75 -50.9 L-10.4 -49.25 Q-10.0 -50.0 -8.3 -50.0 -3.6 -50.0 3.15 -45.7 9.25 -41.85 9.65 -40.15 L11.4 -41.5 Q13.35 -42.8 15.9 -43.65 14.7 -39.0 17.7 -38.2 L20.6 -37.85 Q22.45 -37.65 23.35 -37.15 L20.4 -33.65 Q24.85 -29.35 24.85 -28.45 24.85 -27.95 24.15 -27.6 23.4 -27.3 23.4 -26.8 23.4 -26.25 25.25 -23.6 27.05 -20.95 27.05 -20.3 27.05 -19.8 26.45 -18.8 L25.85 -17.35 Q25.85 -16.7 26.7 -14.3 27.5 -12.05 27.35 -10.35 L26.95 -9.25 26.55 -8.45 26.7 -4.65 Q26.7 5.6 22.4 14.1 L20.85 13.05 20.75 12.85 Q24.7 4.7 24.7 -4.65 24.7 -8.9 23.85 -12.95 L25.65 -10.6 25.35 -15.55 25.1 -19.65 Q25.1 -20.8 23.7 -23.05 22.25 -25.35 22.25 -26.95 22.25 -27.45 22.65 -27.95 23.05 -28.45 23.05 -28.95 23.05 -30.8 21.15 -31.65 L18.8 -32.95 19.2 -33.85 Q19.2 -34.85 21.75 -37.05 L19.25 -37.3 15.05 -37.8 14.95 -41.9 14.9 -42.05 Q13.5 -40.7 12.3 -40.05 11.05 -39.4 10.2 -39.15 9.3 -38.95 7.1 -40.9 4.35 -43.35 1.05 -45.1 -0.5 -45.9 -8.9 -48.9 L-9.7 -47.55 -17.55 -49.4 Q-18.9 -48.35 -20.05 -48.0 L-24.2 -47.6 -26.55 -48.0 -28.9 -48.4 -31.65 -46.85 -38.9 -46.6 Q-38.35 -45.6 -38.35 -44.6 -38.35 -44.35 -39.7 -43.3 -41.55 -41.9 -44.6 -40.55 L-48.05 -39.15 -48.25 -38.2 Q-48.2 -37.6 -47.55 -36.85 -49.05 -35.8 -51.35 -32.85 L-55.3 -27.75 Q-52.9 -27.3 -51.45 -26.7 L-53.75 -21.8 -50.65 -21.9 Q-44.65 -23.15 -42.65 -24.15 -41.6 -23.45 -41.75 -21.55 L-37.85 -22.55 -34.6 -23.4 Q-33.4 -23.4 -32.55 -20.25 L-26.25 -22.65 Q-21.05 -24.5 -18.75 -24.65 L-18.05 -22.15 -11.75 -24.3 Q-10.85 -23.9 -10.9 -21.95 -10.05 -22.55 -8.6 -23.7 -7.45 -24.6 -6.85 -24.6 -6.35 -24.6 -4.8 -23.8 -3.25 -23.0 -2.75 -23.0 L-0.8 -23.35 Q0.65 -23.45 1.9 -22.0" fill="#97877d" fill-rule="evenodd" stroke="none"/>
  </g>
</svg>
