<?xml version="1.0" encoding="UTF-8" standalone="no"?>
<svg xmlns:ffdec="https://www.free-decompiler.com/flash" xmlns:xlink="http://www.w3.org/1999/xlink" ffdec:objectType="shape" height="47.4px" width="64.7px" xmlns="http://www.w3.org/2000/svg">
  <g transform="matrix(1.0, 0.0, 0.0, 1.0, 32.25, 19.15)">
    <path d="M-12.75 -17.5 L-3.1 -10.95 Q0.15 -8.8 1.85 -8.8 3.15 -8.8 4.3 -9.6 L7.15 -12.05 Q10.25 -6.3 16.25 -5.05 L19.8 -4.35 Q21.25 -3.9 21.25 -2.65 21.25 0.85 16.3 3.2 11.35 5.6 11.35 6.45 11.35 8.1 12.25 9.1 13.1 10.1 13.1 10.75 L12.95 12.75 11.1 12.75 Q8.85 11.75 7.85 11.75 L6.4 12.0 4.1 12.1 3.85 13.15 4.15 13.6 5.45 13.85 Q5.0 14.6 4.65 16.0 L4.35 16.8 4.05 17.95 4.1 16.55 2.85 21.35 Q2.45 23.0 1.5 23.0 -0.55 23.0 -1.4 20.95 -1.75 20.15 -2.3 16.65 -2.75 13.95 -3.65 13.15 L-8.05 13.25 -6.7 9.4 Q-6.45 8.45 -6.5 6.75 L-8.0 6.5 Q-11.3 6.5 -15.8 9.25 L-20.35 12.0 Q-22.0 12.0 -22.35 10.2 L-22.4 8.2 Q-20.75 6.9 -16.0 4.55 -11.9 2.55 -11.0 1.35 -11.3 0.8 -13.4 -1.05 L-16.0 -3.55 Q-15.2 -4.4 -12.4 -4.8 L-8.75 -5.3 Q-12.35 -11.9 -15.65 -14.85 -18.0 -16.85 -18.0 -17.2 L-17.75 -17.9 -17.0 -18.0 -12.75 -17.5 M10.3 14.95 L11.6 15.25 11.6 15.5 10.3 14.95 M6.1 -5.55 Q4.05 -5.55 0.55 -3.65 -3.0 -1.75 -4.0 -0.1 -3.25 1.7 -3.2 3.85 L-3.2 6.95 Q-3.0 9.7 1.75 9.5 2.45 9.0 2.6 8.25 L2.5 5.9 4.85 6.5 7.0 7.0 8.0 6.25 8.25 5.9 7.9 4.7 Q7.5 4.0 7.5 3.5 7.5 1.25 10.4 0.35 13.25 -0.55 13.25 -1.85 11.2 -1.1 9.25 -1.15 5.4 -1.2 6.1 -5.55 M26.0 -10.15 Q26.65 -11.45 27.7 -12.05 L30.25 -12.1 Q31.5 -11.5 32.1 -9.95 32.65 -8.4 32.35 -7.0 29.95 -6.55 28.0 -8.2 L26.0 -10.15 M-31.95 -16.0 Q-30.55 -16.4 -28.1 -15.55 -25.7 -14.7 -24.9 -13.55 L-31.95 -16.0" fill="#ff7900" fill-rule="evenodd" stroke="none"/>
    <path d="M-12.75 -17.5 Q-7.0 -14.9 -4.7 -12.85 -3.2 -11.55 -2.7 -11.55 -1.3 -11.55 -0.8 -12.3 L0.0 -14.75 Q2.15 -14.95 2.65 -13.3 2.85 -11.5 3.0 -11.3 4.5 -12.6 7.6 -16.4 9.85 -19.15 10.9 -19.15 11.5 -19.15 11.55 -18.85 L11.6 -18.55 Q12.0 -17.1 11.05 -14.15 10.2 -11.5 9.65 -11.15 L12.1 -10.7 13.15 -10.05 Q12.4 -9.05 12.4 -8.05 12.4 -7.4 12.5 -7.5 L12.6 -7.7 Q18.5 -8.05 21.4 -6.1 23.4 -4.7 23.4 -2.8 23.4 2.05 18.15 4.45 L14.5 5.8 Q12.85 6.4 12.85 6.9 12.85 8.15 13.85 10.45 14.85 12.8 14.85 14.25 14.85 15.85 13.75 15.85 L11.6 15.5 11.6 15.25 10.3 14.95 7.1 13.0 Q6.3 13.2 5.45 13.85 L4.15 13.6 3.85 13.15 4.1 12.1 6.4 12.0 7.85 11.75 Q8.85 11.75 11.1 12.75 L12.95 12.75 13.1 10.75 Q13.1 10.1 12.25 9.1 11.35 8.1 11.35 6.45 11.35 5.6 16.3 3.2 21.25 0.85 21.25 -2.65 21.25 -3.9 19.8 -4.35 L16.25 -5.05 Q10.25 -6.3 7.15 -12.05 L4.3 -9.6 Q3.15 -8.8 1.85 -8.8 0.15 -8.8 -3.1 -10.95 L-12.75 -17.5 M32.35 -7.0 L32.25 -5.9 Q31.9 -5.2 30.25 -5.2 L28.55 -5.5 Q26.8 -6.15 25.9 -7.9 L25.65 -8.75 25.75 -9.55 26.0 -10.15 28.0 -8.2 Q29.95 -6.55 32.35 -7.0 M23.6 6.85 Q24.5 7.5 24.5 8.45 24.5 9.4 23.6 10.1 22.7 10.75 21.45 10.75 20.2 10.75 19.3 10.1 18.4 9.4 18.4 8.45 18.4 7.5 19.3 6.85 20.2 6.15 21.45 6.15 22.7 6.15 23.6 6.85 M-22.4 8.2 L-22.35 10.2 Q-22.0 12.0 -20.35 12.0 L-15.8 9.25 Q-11.3 6.5 -8.0 6.5 L-6.5 6.75 Q-6.45 8.45 -6.7 9.4 L-8.05 13.25 -3.65 13.15 Q-2.75 13.95 -2.3 16.65 -1.75 20.15 -1.4 20.95 -0.55 23.0 1.5 23.0 2.45 23.0 2.85 21.35 L4.1 16.55 4.05 17.95 4.35 16.8 4.65 16.0 Q5.45 20.45 5.2 23.85 4.9 28.25 2.75 28.25 -2.25 28.25 -3.7 24.05 L-4.95 14.8 -7.95 18.0 Q-9.4 19.25 -10.0 19.25 -11.5 19.25 -11.5 17.55 -11.5 15.35 -11.0 13.95 L-8.75 7.35 Q-12.15 8.7 -15.75 12.4 -18.5 15.25 -21.7 15.25 -24.25 15.25 -24.25 12.3 -24.25 10.5 -22.4 8.2 M-24.9 -13.55 L-25.05 -12.85 -25.75 -11.9 Q-30.1 -12.05 -31.35 -12.65 -32.25 -13.1 -32.25 -14.5 L-31.95 -16.0 -24.9 -13.55" fill="#de5a03" fill-rule="evenodd" stroke="none"/>
    <path d="M6.1 -5.55 Q5.4 -1.2 9.25 -1.15 11.2 -1.1 13.25 -1.85 13.25 -0.55 10.4 0.35 7.5 1.25 7.5 3.5 7.5 4.0 7.9 4.7 L8.25 5.9 8.0 6.25 7.0 7.0 4.85 6.5 2.5 5.9 2.6 8.25 Q2.45 9.0 1.75 9.5 -3.0 9.7 -3.2 6.95 L-3.2 3.85 Q-3.25 1.7 -4.0 -0.1 -3.0 -1.75 0.55 -3.65 4.05 -5.55 6.1 -5.55" fill="#ff9900" fill-rule="evenodd" stroke="none"/>
  </g>
</svg>
