<?xml version="1.0" encoding="UTF-8" standalone="no"?>
<svg xmlns:ffdec="https://www.free-decompiler.com/flash" xmlns:xlink="http://www.w3.org/1999/xlink" ffdec:objectType="shape" height="6.35px" width="93.7px" xmlns="http://www.w3.org/2000/svg">
  <g transform="matrix(1.0, 0.0, 0.0, 1.0, 6.15, -8.05)">
    <path d="M82.25 14.25 L79.65 14.25 81.95 11.0 79.8 8.05 82.6 8.05 83.6 9.75 84.75 8.05 87.4 8.05 85.25 11.0 87.55 14.25 84.75 14.25 83.6 12.25 82.25 14.25 M-6.15 14.4 L-3.85 11.15 -6.0 8.2 -3.2 8.2 -2.2 9.9 -1.05 8.2 1.6 8.2 -0.55 11.15 1.75 14.4 -1.05 14.4 -2.2 12.4 -3.55 14.4 -6.15 14.4" fill="#9d5146" fill-rule="evenodd" stroke="none"/>
  </g>
</svg>
