<?xml version="1.0" encoding="UTF-8" standalone="no"?>
<svg xmlns:ffdec="https://www.free-decompiler.com/flash" xmlns:xlink="http://www.w3.org/1999/xlink" ffdec:objectType="shape" height="63.15px" width="22.45px" xmlns="http://www.w3.org/2000/svg">
  <g transform="matrix(1.0, 0.0, 0.0, 1.0, 7.9, 1.55)">
    <path d="M8.0 12.1 L8.6 17.0 7.8 12.05 8.0 12.1" fill="#5c4730" fill-rule="evenodd" stroke="none"/>
    <path d="M4.4 -0.7 L4.55 -1.3 5.3 -1.55 5.95 -1.5 6.2 -0.25 Q6.65 4.85 8.0 12.1 L7.8 12.05 8.6 17.0 Q8.6 20.65 11.6 32.2 14.55 43.7 14.55 44.9 L13.5 46.1 11.5 47.0 5.95 47.9 -1.1 48.15 -3.1 47.6 Q-5.45 46.3 -5.35 43.05 -4.7 37.4 -4.7 32.0 L-4.9 25.9 -5.5 15.35 -5.85 13.0 -7.9 0.4 -7.45 0.4 -6.55 0.5 Q-5.95 -0.05 -5.95 0.15 L-4.7 5.55 Q-3.85 9.45 -3.45 13.3 L-3.7 13.35 Q-3.25 14.8 -2.85 24.45 -2.45 35.25 -3.15 40.55 L-0.3 41.35 Q3.1 41.8 6.3 41.4 7.55 41.35 12.1 39.45 11.05 35.9 9.2 26.85 7.3 18.0 5.65 12.4 L4.4 -0.7 M12.4 41.55 Q9.3 42.9 5.15 43.35 0.3 43.85 -3.1 42.65 -3.0 44.3 -2.2 45.0 -1.45 45.7 -1.45 46.0 -1.45 46.3 3.95 47.3 5.4 47.3 12.55 44.4 L12.4 41.55" fill="#443d0b" fill-rule="evenodd" stroke="none"/>
    <path d="M1.15 -1.5 Q3.3 -1.35 4.4 -0.7 L5.65 12.4 Q7.3 18.0 9.2 26.85 11.05 35.9 12.1 39.45 7.55 41.35 6.3 41.4 L6.35 40.2 Q6.35 36.75 4.8 23.65 3.05 9.25 1.15 -1.5 M-3.45 13.3 L-0.3 41.35 -3.15 40.55 Q-2.45 35.25 -2.85 24.45 -3.25 14.8 -3.7 13.35 L-3.45 13.3" fill="#e3d048" fill-rule="evenodd" stroke="none"/>
    <path d="M-5.95 0.15 Q-4.5 -1.15 -3.4 -1.4 L1.15 -1.5 Q3.05 9.25 4.8 23.65 6.35 36.75 6.35 40.2 L6.3 41.4 Q3.1 41.8 -0.3 41.35 L-3.45 13.3 Q-3.85 9.45 -4.7 5.55 L-5.95 0.15" fill="#e9d96b" fill-rule="evenodd" stroke="none"/>
    <path d="M11.5 47.0 Q11.1 48.5 9.5 49.45 7.45 50.7 3.7 50.7 1.65 50.7 0.05 49.95 -1.25 49.35 -1.25 48.95 L-1.15 48.4 -1.1 48.15 5.95 47.9 11.5 47.0" fill="#82a1b5" fill-rule="evenodd" stroke="none"/>
    <path d="M13.5 46.1 L13.35 48.85 11.65 49.9 9.45 50.9 7.15 51.55 3.0 51.7 0.55 51.45 -1.35 50.85 Q-2.05 50.85 -2.55 49.9 -3.1 48.95 -3.1 47.6 L-1.1 48.15 -1.15 48.4 -1.25 48.95 Q-1.25 49.35 0.05 49.95 1.65 50.7 3.7 50.7 7.45 50.7 9.5 49.45 11.1 48.5 11.5 47.0 L13.5 46.1" fill="#223039" fill-rule="evenodd" stroke="none"/>
    <path d="M12.4 41.55 L12.55 44.4 Q5.4 47.3 3.95 47.3 -1.45 46.3 -1.45 46.0 -1.45 45.7 -2.2 45.0 -3.0 44.3 -3.1 42.65 0.3 43.85 5.15 43.35 9.3 42.9 12.4 41.55" fill="#a6951a" fill-rule="evenodd" stroke="none"/>
    <path d="M11.65 49.9 L11.95 56.2 11.65 57.15 Q11.65 59.55 8.95 60.8 7.25 61.6 6.05 61.6 3.0 61.6 0.8 58.7 -1.6 55.55 -1.35 50.85 L0.55 51.45 1.45 56.55 Q1.85 58.15 2.45 58.15 3.2 58.15 4.4 58.85 5.65 59.55 6.45 59.55 L7.6 59.25 8.5 58.5 Q9.45 58.05 9.8 57.2 10.45 55.7 9.45 50.9 L11.65 49.9" fill="#4b3121" fill-rule="evenodd" stroke="none"/>
    <path d="M7.15 51.55 L8.5 58.5 7.6 59.25 6.45 59.55 Q5.65 59.55 4.4 58.85 3.2 58.15 2.45 58.15 1.85 58.15 1.45 56.55 L0.55 51.45 3.0 51.7 7.15 51.55" fill="#83563a" fill-rule="evenodd" stroke="none"/>
    <path d="M7.15 51.55 L9.45 50.9 Q10.45 55.7 9.8 57.2 9.45 58.05 8.5 58.5 L7.15 51.55" fill="#754b33" fill-rule="evenodd" stroke="none"/>
  </g>
</svg>
