<?xml version="1.0" encoding="UTF-8" standalone="no"?>
<svg xmlns:ffdec="https://www.free-decompiler.com/flash" xmlns:xlink="http://www.w3.org/1999/xlink" ffdec:objectType="shape" height="28.0px" width="27.5px" xmlns="http://www.w3.org/2000/svg">
  <g transform="matrix(1.0, 0.0, 0.0, 1.0, 0.0, 0.5)">
    <path d="M22.7 22.65 Q19.05 26.3 14.0 26.5 L14.0 0.5 Q19.05 0.65 22.7 4.25 26.5 8.05 26.5 13.5 26.5 18.9 22.7 22.65" fill="#ffffff" fill-rule="evenodd" stroke="none"/>
    <path d="M13.0 0.0 L13.0 27.0 Q7.7 26.8 3.95 23.0 0.0 19.1 0.0 13.5 0.0 7.85 3.95 3.9 7.7 0.2 13.0 0.0" fill="#000000" fill-opacity="0.49803922" fill-rule="evenodd" stroke="none"/>
    <path d="M13.0 0.0 L13.15 -0.35 13.5 -0.5 Q19.3 -0.5 23.4 3.55 27.5 7.65 27.5 13.5 27.5 19.3 23.4 23.35 19.3 27.5 13.5 27.5 L13.15 27.35 13.0 27.0 13.0 0.0 M22.7 22.65 Q26.5 18.9 26.5 13.5 26.5 8.05 22.7 4.25 19.05 0.65 14.0 0.5 L14.0 26.5 Q19.05 26.3 22.7 22.65" fill="#000000" fill-rule="evenodd" stroke="none"/>
    <path d="M18.4 12.35 L18.4 9.35 23.45 13.65 18.4 17.9 18.4 15.1 14.0 16.1 14.0 11.45 18.4 12.35" fill="#0099ff" fill-rule="evenodd" stroke="none"/>
  </g>
</svg>
