<?xml version="1.0" encoding="UTF-8" standalone="no"?>
<svg xmlns:ffdec="https://www.free-decompiler.com/flash" xmlns:xlink="http://www.w3.org/1999/xlink" ffdec:objectType="shape" height="62.95px" width="20.55px" xmlns="http://www.w3.org/2000/svg">
  <g transform="matrix(1.0, 0.0, 0.0, 1.0, 7.9, 1.5)">
    <path d="M11.45 47.5 Q11.8 53.25 11.55 55.9 L11.2 57.4 Q11.05 58.9 9.5 60.2 8.0 61.45 6.65 61.45 5.4 61.45 2.75 60.1 0.15 58.7 -0.85 57.55 L-1.6 47.8 0.2 47.2 Q0.7 55.05 2.75 57.85 4.0 59.55 6.2 59.55 L7.1 59.2 8.5 58.5 9.95 56.0 9.05 46.7 11.45 47.5" fill="#6c3d28" fill-rule="evenodd" stroke="none"/>
    <path d="M6.8 46.35 Q6.5 50.6 8.5 58.5 L7.1 59.2 6.2 59.55 Q4.0 59.55 2.75 57.85 0.7 55.05 0.2 47.2 3.55 46.5 6.8 46.35" fill="#f1ba87" fill-rule="evenodd" stroke="none"/>
    <path d="M6.8 46.35 L9.05 46.7 9.95 56.0 8.5 58.5 Q6.5 50.6 6.8 46.35" fill="#db9c64" fill-rule="evenodd" stroke="none"/>
    <path d="M4.4 -0.7 Q5.3 -1.55 6.3 -1.0 L8.0 11.0 Q9.65 24.05 10.85 39.65 L11.6 41.05 Q12.4 43.3 12.65 47.6 L11.45 47.5 9.05 46.7 6.8 46.35 Q3.55 46.5 0.2 47.2 L-1.6 47.8 Q-2.15 47.95 -2.9 44.75 -3.65 41.8 -3.65 40.75 -3.65 40.25 -3.1 40.45 -2.6 40.6 -2.6 40.1 -2.6 33.1 -3.3 28.15 L-7.9 0.4 Q-6.75 0.4 -6.1 -0.4 L-5.95 0.15 Q-4.9 2.5 -2.8 18.8 -0.9 33.1 -0.45 39.25 L5.95 38.45 8.25 38.8 4.4 -0.7 M6.1 39.95 Q1.95 40.1 -2.0 41.45 L-1.6 46.2 2.15 45.45 6.65 44.85 11.3 45.8 Q11.2 44.7 10.5 43.4 9.1 40.8 6.1 39.95" fill="#3f2d44" fill-rule="evenodd" stroke="none"/>
    <path d="M-5.95 0.15 L-2.0 -1.05 1.15 -1.5 5.95 38.45 -0.45 39.25 Q-0.9 33.1 -2.8 18.8 -4.9 2.5 -5.95 0.15 M6.1 39.95 L6.65 44.85 2.15 45.45 -1.6 46.2 -2.0 41.45 Q1.95 40.1 6.1 39.95" fill="#9878a9" fill-rule="evenodd" stroke="none"/>
    <path d="M1.15 -1.5 L4.4 -0.7 8.25 38.8 5.95 38.45 1.15 -1.5 M6.65 44.85 L6.1 39.95 Q9.1 40.8 10.5 43.4 11.2 44.7 11.3 45.8 L6.65 44.85" fill="#584064" fill-rule="evenodd" stroke="none"/>
  </g>
</svg>
