<?xml version="1.0" encoding="UTF-8" standalone="no"?>
<svg xmlns:ffdec="https://www.free-decompiler.com/flash" xmlns:xlink="http://www.w3.org/1999/xlink" ffdec:objectType="shape" height="119.45px" width="56.4px" xmlns="http://www.w3.org/2000/svg">
  <g transform="matrix(1.0, 0.0, 0.0, 1.0, 35.05, 117.85)">
    <path d="M17.6 -117.85 L18.25 -117.65 20.85 -114.7 21.35 -112.5 Q21.6 -110.65 16.95 -95.7 10.9 -76.55 0.9 -51.5 L-1.15 -51.2 -2.55 -51.05 Q-3.2 -51.05 -3.2 -51.7 L1.2 -63.45 6.8 -78.1 13.5 -97.9 Q18.45 -114.25 17.6 -117.85 M16.95 -97.9 Q22.5 -114.15 18.55 -116.5 19.0 -112.4 14.6 -98.1 9.35 -80.85 -1.95 -52.2 L0.05 -52.2 Q7.15 -72.1 16.95 -97.9" fill="#1b1b1b" fill-rule="evenodd" stroke="none"/>
    <path d="M16.95 -97.9 Q7.15 -72.1 0.05 -52.2 L-1.95 -52.2 Q9.35 -80.85 14.6 -98.1 19.0 -112.4 18.55 -116.5 22.5 -114.15 16.95 -97.9" fill="#3a3a3a" fill-rule="evenodd" stroke="none"/>
    <path d="M0.85 -52.35 L0.8 -52.0 -0.55 -52.75 Q-2.15 -53.4 -4.75 -53.45 -4.2 -54.45 -2.75 -54.35 -1.8 -54.3 -0.9 -53.75 L0.85 -52.35 M-27.45 -45.75 L-26.25 -45.3 -25.55 -44.7 -25.05 -44.1 Q-24.2 -42.85 -24.2 -41.9 -24.2 -41.25 -24.3 -41.35 L-24.45 -41.55 -24.75 -41.55 -25.8 -43.0 -26.3 -43.6 -28.65 -44.3 -29.9 -41.2 -30.35 -41.4 Q-30.65 -41.55 -30.65 -42.2 -30.65 -42.95 -30.05 -43.9 L-29.55 -44.45 Q-29.9 -43.95 -29.9 -42.65 L-29.6 -43.4 Q-29.15 -44.3 -28.4 -44.6 L-27.55 -44.6 -25.75 -43.9 -25.05 -43.6 -26.75 -44.5 -27.95 -45.1 -29.1 -44.9 -27.45 -45.75 M-22.25 -43.0 L-21.85 -42.05 Q-21.85 -41.8 -22.0 -41.65 L-22.45 -41.55 -22.85 -42.75 -22.25 -43.0 M-1.75 -49.35 L-1.8 -49.75 -1.15 -50.35 -0.95 -49.3 -1.6 -49.2 -1.75 -49.35 M1.45 -49.85 L1.65 -50.1 1.65 -50.05 1.8 -49.8 Q1.9 -49.65 2.05 -49.65 L2.35 -49.75 2.45 -50.0 2.45 -50.05 Q2.7 -49.6 2.45 -49.1 L1.5 -49.3 1.45 -49.85 M1.85 -50.3 L2.05 -50.5 2.25 -50.3 2.05 -50.35 1.85 -50.3 M12.0 -25.4 L12.1 -24.6 12.05 -24.55 11.15 -24.7 12.0 -25.4 M-34.3 -8.05 L-34.45 -8.6 -27.35 -7.1 Q-25.8 -7.0 -24.7 -7.5 -23.4 -8.15 -21.95 -8.2 L-21.9 -6.85 -21.65 -6.1 -21.3 -5.45 -21.3 -4.9 Q-20.55 -3.15 -20.55 -2.0 L-22.45 -6.15 -23.1 -2.3 Q-23.05 -1.7 -21.95 -1.4 L-20.6 -1.35 Q-20.85 -0.45 -21.75 -0.5 -22.35 -0.55 -23.05 -1.0 L-23.65 -1.4 -23.3 -4.95 -23.35 -5.0 -23.35 -5.9 -27.95 -6.25 Q-32.05 -6.8 -34.3 -8.05 M-31.6 -18.95 L-28.7 -18.1 -28.0 -16.75 Q-27.85 -16.35 -27.85 -15.7 -27.85 -14.7 -28.2 -13.8 -28.8 -12.05 -30.3 -12.1 -33.45 -12.25 -33.45 -14.95 L-32.9 -16.9 -31.6 -18.95 M-26.3 -38.8 Q-26.55 -39.5 -26.3 -40.15 L-25.5 -40.2 -25.15 -39.3 -25.35 -38.85 -25.9 -38.75 -26.3 -38.8 M-26.95 -41.5 L-27.3 -35.7 -27.5 -33.05 -28.7 -22.75 Q-29.15 -19.65 -29.85 -19.45 -30.05 -22.05 -29.2 -29.4 -28.3 -37.55 -26.95 -41.5 M1.2 -41.2 L2.4 -41.25 1.95 -40.8 2.25 -41.0 2.5 -40.75 2.25 -40.25 1.65 -40.1 1.2 -41.2 M-1.9 -20.15 Q-0.5 -20.55 0.45 -21.35 1.35 -22.1 1.35 -22.95 L1.15 -24.6 0.5 -25.4 -0.4 -25.75 -2.05 -25.65 Q-3.5 -24.8 -4.05 -23.4 L-4.35 -22.1 -4.0 -21.3 -2.95 -20.4 -1.9 -20.15 M1.0 -25.4 Q1.8 -24.55 1.8 -23.35 1.8 -19.35 -1.9 -19.5 -2.75 -19.55 -3.45 -20.05 -4.75 -20.9 -4.75 -23.0 -4.75 -23.95 -3.95 -25.2 -2.95 -26.65 -1.65 -26.55 0.05 -26.45 1.0 -25.4 M-2.75 -53.75 L-1.1 -53.15 0.2 -52.85 Q-0.15 -53.1 -1.8 -53.55 L-3.95 -54.1 -2.75 -53.75 M-2.3 -51.7 L-2.95 -45.35 -3.6 -41.8 Q-4.5 -42.5 -5.2 -42.55 -5.75 -45.1 -4.65 -47.8 -3.95 -49.5 -2.3 -51.7 M-25.5 -39.85 L-25.85 -40.0 -26.2 -39.9 -26.35 -39.6 -26.2 -39.25 -25.85 -39.1 Q-25.65 -39.1 -25.5 -39.2 L-25.35 -39.55 -25.5 -39.85 M-21.75 -32.2 L-21.25 -32.95 -20.15 -32.4 -20.6 -31.25 -21.5 -31.3 -21.75 -31.3 -21.75 -31.45 -21.75 -32.2 M-21.35 -32.5 L-21.5 -32.1 -21.35 -31.7 Q-21.2 -31.55 -20.95 -31.5 -20.7 -31.5 -20.55 -31.65 -20.4 -31.8 -20.4 -32.05 L-20.55 -32.45 -20.95 -32.6 -21.35 -32.5 M-28.95 -17.55 Q-30.9 -18.6 -31.85 -18.55 -32.6 -16.3 -32.7 -14.3 L-32.45 -12.9 -30.7 -12.8 -30.5 -13.45 Q-29.9 -16.05 -28.95 -17.55 M-24.9 -7.05 Q-24.6 -6.95 -24.9 -6.75 L-22.3 -6.85 -22.5 -7.9 -24.9 -7.05" fill="#1b1b1b" fill-rule="evenodd" stroke="none"/>
    <path d="M-4.75 -53.45 Q-2.15 -53.4 -0.55 -52.75 L0.8 -52.0 0.85 -52.35 2.05 -50.5 1.85 -50.3 1.8 -50.3 1.65 -50.1 1.45 -49.85 Q1.45 -50.65 0.9 -51.2 0.35 -51.85 -0.4 -51.9 L-0.95 -51.75 -1.3 -51.7 Q-1.6 -51.55 -1.75 -50.65 L-1.8 -49.75 -1.75 -49.35 -2.1 -46.65 -2.15 -47.95 -2.9 -40.6 3.2 -29.3 Q5.5 -24.75 5.5 -23.3 5.4 -21.45 3.8 -19.45 0.6 -15.5 -6.8 -14.3 L-7.8 -14.5 Q-9.25 -15.7 -12.05 -24.0 L-15.7 -35.05 -19.05 -37.4 -20.1 -38.25 -21.85 -42.05 -22.25 -43.0 -23.1 -44.25 Q-23.75 -44.9 -24.2 -44.5 L-25.05 -44.1 -25.55 -44.7 -24.55 -45.05 -26.25 -45.3 -27.45 -45.75 Q-24.45 -45.45 -22.95 -44.2 L-21.15 -41.8 Q-19.95 -39.75 -18.45 -38.3 L-13.15 -40.5 -7.05 -42.6 -6.15 -47.75 Q-5.55 -51.95 -4.75 -53.45 M3.3 -44.2 L3.25 -44.3 2.3 -47.1 1.55 -48.8 1.5 -49.3 2.45 -49.1 Q5.9 -40.5 10.6 -32.85 12.75 -29.45 12.75 -23.45 12.75 -18.2 10.8 -15.2 8.25 -11.4 1.8 -9.45 -7.55 -6.6 -9.6 -5.1 -11.2 -3.25 -14.2 -1.25 -16.15 0.1 -19.1 0.95 L-22.9 1.6 Q-35.05 0.95 -35.05 -12.55 -35.05 -15.6 -33.75 -19.3 L-31.1 -26.9 Q-30.85 -27.75 -30.45 -31.9 -29.95 -37.0 -29.9 -41.2 L-28.65 -44.3 Q-29.6 -38.2 -30.35 -30.65 -31.15 -23.1 -31.15 -20.3 -31.15 -19.65 -30.8 -19.35 L-29.85 -18.9 -29.85 -19.45 Q-29.15 -19.65 -28.7 -22.75 L-27.5 -33.05 -27.3 -35.7 -26.95 -41.5 -26.3 -43.6 -25.8 -43.0 -25.85 -42.2 -26.0 -41.5 -26.3 -40.15 Q-26.55 -39.5 -26.3 -38.8 L-26.45 -37.75 -26.55 -38.3 -26.7 -37.4 -28.3 -18.55 -28.7 -18.1 -31.6 -18.95 -31.75 -19.55 -32.0 -20.5 Q-32.0 -21.5 -31.25 -24.05 L-32.1 -22.5 -33.9 -17.7 Q-34.55 -15.15 -34.4 -10.45 L-34.5 -9.85 -34.45 -8.6 -34.3 -8.05 -34.35 -8.1 -34.1 -7.4 -34.05 -7.4 -33.4 -5.95 Q-32.55 -3.15 -30.35 -1.6 -27.6 0.35 -22.4 0.6 -18.05 0.85 -14.2 -2.35 -11.8 -4.4 -6.25 -10.2 -6.2 -10.05 -6.5 -8.8 -0.95 -7.7 5.95 -12.45 13.6 -17.65 12.1 -24.6 L12.0 -25.4 11.7 -27.1 11.65 -27.05 Q9.8 -34.5 7.7 -36.45 L8.65 -34.3 Q6.4 -36.1 4.3 -42.5 L3.3 -44.2 M2.55 -19.55 Q5.15 -21.5 5.15 -22.5 L5.05 -23.35 4.8 -23.8 Q-2.2 -38.85 -3.9 -40.4 -5.35 -41.75 -9.3 -40.95 -12.9 -40.25 -17.7 -38.05 -15.15 -36.05 -13.4 -30.7 -11.05 -22.45 -8.55 -15.65 -8.1 -15.1 -7.1 -15.05 -4.55 -14.9 -0.3 -17.55 L0.55 -18.15 2.55 -19.55 M-2.3 -51.7 Q-2.15 -51.75 -2.15 -52.7 L-3.8 -53.1 Q-5.75 -52.4 -5.65 -48.6 -5.5 -43.8 -6.2 -42.5 L-5.2 -42.55 Q-4.5 -42.5 -3.6 -41.8 L-2.95 -45.35 -2.3 -51.7" fill="#6b0633" fill-rule="evenodd" stroke="none"/>
    <path d="M1.65 -50.1 L1.8 -50.3 1.85 -50.3 2.05 -50.35 2.25 -50.3 2.35 -50.25 2.45 -50.05 2.45 -50.0 2.35 -49.75 2.05 -49.65 Q1.9 -49.65 1.8 -49.8 L1.65 -50.05 1.65 -50.1 M2.4 -41.25 L2.5 -41.25 2.55 -40.9 2.5 -40.75 2.25 -41.0 1.95 -40.8 2.4 -41.25 M1.15 -24.6 L1.35 -22.95 Q1.35 -22.1 0.45 -21.35 -0.5 -20.55 -1.9 -20.15 L1.15 -24.6 M-2.95 -20.4 L-4.0 -21.3 Q-2.45 -21.75 -1.9 -22.6 L-0.4 -25.75 0.5 -25.4 -2.95 -20.4 M-4.35 -22.1 L-4.05 -23.4 Q-3.5 -24.8 -2.05 -25.65 L-4.35 -22.1 M-25.5 -39.85 L-25.35 -39.55 -25.5 -39.2 Q-25.65 -39.1 -25.85 -39.1 L-26.2 -39.25 -26.35 -39.6 -26.2 -39.9 -25.85 -40.0 -25.5 -39.85 M-21.35 -32.5 L-20.95 -32.6 -20.55 -32.45 -20.4 -32.05 Q-20.4 -31.8 -20.55 -31.65 -20.7 -31.5 -20.95 -31.5 -21.2 -31.55 -21.35 -31.7 L-21.5 -32.1 -21.35 -32.5 M-28.95 -17.55 L-30.3 -17.7 -31.4 -18.2 Q-32.5 -16.1 -32.6 -14.2 L-30.5 -13.45 -30.7 -12.8 -32.45 -12.9 -32.7 -14.3 Q-32.6 -16.3 -31.85 -18.55 -30.9 -18.6 -28.95 -17.55 M-24.9 -7.05 L-22.5 -7.9 -22.3 -6.85 -24.9 -6.75 Q-24.6 -6.95 -24.9 -7.05 M-20.6 -1.35 L-21.95 -1.4 Q-23.05 -1.7 -23.1 -2.3 L-22.45 -6.15 -20.55 -2.0 -20.3 -1.5 -20.6 -1.35" fill="#3a3a3a" fill-rule="evenodd" stroke="none"/>
    <path d="M-25.05 -44.1 L-24.2 -44.5 Q-21.1 -37.05 -20.25 -33.75 -19.95 -32.5 -19.95 -30.85 L-20.6 -31.25 -20.15 -32.4 -21.25 -32.95 -21.75 -32.2 -23.05 -36.25 Q-24.1 -39.55 -25.1 -40.45 L-25.85 -42.2 -25.8 -43.0 -24.75 -41.55 -24.45 -41.55 -24.3 -41.35 Q-24.2 -41.25 -24.2 -41.9 -24.2 -42.85 -25.05 -44.1 M-7.8 -14.5 L-6.8 -14.3 -3.15 -14.4 -2.0 -14.8 Q-2.5 -14.4 -5.5 -13.3 -8.95 -12.05 -11.05 -11.65 L-11.8 -15.05 -12.05 -15.8 -12.2 -11.0 -15.6 -7.1 Q-16.15 -7.85 -16.55 -10.0 L-17.0 -12.05 -17.25 -12.05 Q-17.7 -9.1 -18.2 -7.75 -19.05 -5.45 -21.3 -4.9 L-21.3 -5.45 Q-20.55 -7.2 -20.7 -8.2 -20.75 -8.85 -21.3 -10.15 L-24.9 -9.55 -30.0 -9.4 -30.3 -11.05 Q-27.6 -11.35 -27.1 -13.7 -26.8 -14.95 -26.65 -17.8 L-26.05 -19.6 -25.35 -31.95 Q-25.25 -30.6 -24.5 -28.9 -23.4 -26.45 -21.7 -26.35 -19.05 -26.2 -17.8 -28.2 -16.95 -29.55 -16.95 -31.15 -16.95 -31.9 -17.4 -33.35 -17.85 -34.85 -18.45 -36.05 -16.0 -33.05 -15.3 -31.65 -13.6 -28.35 -12.1 -20.95 -11.85 -19.6 -10.6 -17.45 -9.1 -14.85 -7.8 -14.5 M-0.95 -51.75 L-0.4 -51.9 Q0.35 -51.85 0.9 -51.2 1.45 -50.65 1.45 -49.85 L1.5 -49.3 1.55 -48.8 2.5 -41.25 2.4 -41.25 1.2 -41.2 -0.95 -51.75 M11.65 -27.05 L11.7 -27.1 12.0 -25.4 11.15 -24.7 12.05 -24.55 11.55 -23.3 11.15 -23.05 10.75 -24.0 Q10.3 -25.15 10.3 -25.8 10.3 -26.8 11.65 -27.05 M-34.05 -7.4 L-34.1 -7.4 -34.35 -8.1 -34.3 -8.05 Q-32.05 -6.8 -27.95 -6.25 L-23.35 -5.9 -27.05 -5.5 -30.35 -6.2 Q-33.05 -6.95 -34.05 -7.4 M-34.45 -8.6 L-34.5 -9.85 Q-31.1 -8.85 -29.6 -8.75 -24.2 -8.55 -21.65 -9.75 -21.3 -9.4 -21.15 -6.15 L-21.65 -6.1 -21.9 -6.85 -21.95 -8.2 Q-23.4 -8.15 -24.7 -7.5 -25.8 -7.0 -27.35 -7.1 L-34.45 -8.6 M-26.3 -40.15 L-26.0 -41.5 -25.5 -40.2 -26.3 -40.15 M-1.6 -49.15 L1.1 -37.8 Q1.35 -37.3 1.7 -37.25 L2.9 -36.75 0.7 -36.65 Q-0.85 -41.4 -1.6 -49.15 M2.5 -40.75 L2.55 -40.9 2.6 -39.45 1.65 -40.1 2.25 -40.25 2.5 -40.75 M7.3 -33.9 Q8.7 -32.1 8.7 -29.15 L8.2 -25.55 7.5 -22.1 5.7 -27.3 Q5.05 -30.25 2.05 -34.5 5.45 -36.25 7.3 -33.9 M-0.3 -17.55 Q-2.85 -16.5 -7.25 -15.85 -8.1 -15.9 -11.0 -25.3 -14.15 -35.45 -15.55 -37.15 -7.7 -41.2 -6.8 -40.65 L-5.05 -38.9 Q-4.15 -37.85 -3.95 -36.9 -3.1 -33.2 0.15 -27.55 3.1 -22.45 3.1 -21.15 3.1 -20.3 2.55 -19.55 L0.55 -18.15 -0.3 -17.55 M1.0 -25.4 Q0.05 -26.45 -1.65 -26.55 -2.95 -26.65 -3.95 -25.2 -4.75 -23.95 -4.75 -23.0 -4.75 -20.9 -3.45 -20.05 -2.75 -19.55 -1.9 -19.5 1.8 -19.35 1.8 -23.35 1.8 -24.55 1.0 -25.4 M-6.5 -39.85 Q-10.65 -40.3 -14.55 -36.85 L-9.45 -24.4 -11.1 -30.15 Q-12.6 -35.4 -10.9 -36.35 L-8.85 -37.35 Q-7.45 -38.15 -6.5 -39.85 M-17.45 -29.45 L-20.05 -27.55 -21.35 -28.05 -22.45 -28.4 -25.9 -37.6 -25.9 -38.75 -25.35 -38.85 -25.15 -39.3 Q-24.45 -35.3 -24.0 -34.1 -23.0 -31.35 -20.75 -29.75 L-17.45 -29.45 M-21.5 -27.05 L-22.0 -27.1 Q-22.55 -27.25 -22.85 -27.5 L-21.5 -27.05 M-15.7 -29.0 L-17.9 -26.9 -21.0 -24.3 Q-21.7 -23.75 -22.9 -20.9 -24.35 -17.3 -24.05 -14.45 -20.35 -14.2 -20.0 -14.9 -19.25 -18.05 -17.15 -22.65 -16.1 -18.5 -15.6 -17.75 L-15.4 -22.45 -15.25 -27.3 Q-15.25 -28.3 -15.7 -29.0 M-6.3 -36.05 L-6.5 -36.0 -6.4 -36.0 -6.3 -36.05 M-8.75 -34.7 Q-8.9 -34.85 -9.15 -34.85 L-9.55 -34.7 -9.7 -34.35 -9.55 -33.9 -9.15 -33.75 Q-8.9 -33.75 -8.75 -33.9 -8.6 -34.0 -8.6 -34.25 L-8.75 -34.7 M-24.05 -12.7 Q-25.5 -12.2 -26.2 -11.55 L-25.15 -11.0 -23.85 -11.15 -23.5 -12.45 Q-22.55 -13.2 -24.05 -12.7 M-23.8 -4.85 L-23.35 -5.0 -23.3 -4.95 -23.8 -4.85 M-6.9 -18.35 L-6.1 -17.2 -5.0 -17.05 Q-4.0 -17.0 -4.2 -17.25 L-3.65 -17.6 -3.15 -18.2 Q-4.4 -17.55 -5.4 -17.6 -6.2 -17.65 -6.9 -18.35" fill="#f576af" fill-rule="evenodd" stroke="none"/>
    <path d="M-26.25 -45.3 L-24.55 -45.05 -25.55 -44.7 -26.25 -45.3 M-24.2 -44.5 Q-23.75 -44.9 -23.1 -44.25 L-22.85 -42.75 -22.45 -41.55 -19.55 -32.4 Q-19.35 -31.5 -20.0 -30.5 L-20.75 -29.75 Q-23.0 -31.35 -24.0 -34.1 -24.45 -35.3 -25.15 -39.3 L-25.5 -40.2 -26.0 -41.5 -25.85 -42.2 -25.1 -40.45 -22.8 -32.9 -21.75 -31.45 -21.75 -31.3 -21.5 -31.3 Q-20.85 -30.85 -19.95 -30.85 -19.95 -32.5 -20.25 -33.75 -21.1 -37.05 -24.2 -44.5 M-20.1 -38.25 L-19.05 -37.4 -18.45 -36.05 Q-17.85 -34.85 -17.4 -33.35 -16.95 -31.9 -16.95 -31.15 -16.95 -29.55 -17.8 -28.2 -19.05 -26.2 -21.7 -26.35 -23.4 -26.45 -24.5 -28.9 -25.25 -30.6 -25.35 -31.95 L-26.45 -37.75 -26.3 -38.8 -25.9 -38.75 -25.9 -37.6 Q-24.65 -30.3 -22.85 -27.5 -22.55 -27.25 -22.0 -27.1 L-21.5 -27.05 -21.15 -27.1 -20.05 -27.55 -17.45 -29.45 Q-17.5 -32.8 -20.1 -38.25 M-2.1 -46.65 L-1.75 -49.35 -1.6 -49.2 -1.6 -49.15 Q-0.85 -41.4 0.7 -36.65 L2.9 -36.75 3.65 -37.1 Q4.35 -37.55 4.35 -38.2 4.35 -42.25 3.3 -44.2 L4.3 -42.5 4.6 -36.15 1.75 -35.95 Q0.5 -36.0 -0.3 -37.75 -1.45 -40.25 -2.1 -46.65 M-1.3 -51.7 L-0.95 -51.75 1.2 -41.2 1.65 -40.1 2.6 -39.45 2.55 -40.9 2.5 -41.25 1.55 -48.8 2.3 -47.1 2.75 -43.45 3.1 -40.35 2.9 -38.75 1.4 -38.9 Q1.2 -39.15 0.1 -44.25 L-0.95 -49.3 -1.15 -50.35 -1.3 -51.7 M8.65 -34.3 L7.7 -36.45 Q9.8 -34.5 11.65 -27.05 10.3 -26.8 10.3 -25.8 10.3 -25.15 10.75 -24.0 L11.15 -23.05 11.55 -23.3 12.05 -24.55 12.1 -24.6 Q13.6 -17.65 5.95 -12.45 -0.95 -7.7 -6.5 -8.8 -6.2 -10.05 -6.25 -10.2 4.0 -14.9 7.15 -16.9 11.25 -19.6 11.25 -22.3 11.25 -22.8 10.45 -24.1 9.6 -25.45 9.6 -25.95 9.6 -26.45 10.35 -26.75 11.1 -27.05 11.1 -27.55 L10.2 -30.85 8.65 -34.3 M-33.4 -5.95 L-34.05 -7.4 Q-33.05 -6.95 -30.35 -6.2 L-27.05 -5.5 -23.35 -5.9 -23.35 -5.0 -23.8 -4.85 Q-28.35 -3.85 -33.4 -5.95 M-34.5 -9.85 L-34.4 -10.45 -30.0 -9.4 -24.9 -9.55 -21.3 -10.15 Q-20.75 -8.85 -20.7 -8.2 -20.55 -7.2 -21.3 -5.45 L-21.65 -6.1 -21.15 -6.15 Q-21.3 -9.4 -21.65 -9.75 -24.2 -8.55 -29.6 -8.75 -31.1 -8.85 -34.5 -9.85 M-26.3 -43.6 L-26.95 -41.5 Q-28.3 -37.55 -29.2 -29.4 -30.05 -22.05 -29.85 -19.45 L-29.85 -18.9 -30.8 -19.35 Q-31.15 -19.65 -31.15 -20.3 -31.15 -23.1 -30.35 -30.65 -29.6 -38.2 -28.65 -44.3 L-26.3 -43.6 M-5.2 -42.55 L-6.2 -42.5 Q-5.5 -43.8 -5.65 -48.6 -5.75 -52.4 -3.8 -53.1 L-2.15 -52.7 Q-2.15 -51.75 -2.3 -51.7 -3.95 -49.5 -4.65 -47.8 -5.75 -45.1 -5.2 -42.55" fill="#ca0f63" fill-rule="evenodd" stroke="none"/>
    <path d="M-23.1 -44.25 L-22.25 -43.0 -22.85 -42.75 -23.1 -44.25 M-21.85 -42.05 L-20.1 -38.25 Q-17.5 -32.8 -17.45 -29.45 L-20.75 -29.75 -20.0 -30.5 Q-19.35 -31.5 -19.55 -32.4 L-22.45 -41.55 -22.0 -41.65 Q-21.85 -41.8 -21.85 -42.05 M-19.05 -37.4 L-15.7 -35.05 -12.05 -24.0 Q-9.25 -15.7 -7.8 -14.5 -9.1 -14.85 -10.6 -17.45 -11.85 -19.6 -12.1 -20.95 -13.6 -28.35 -15.3 -31.65 -16.0 -33.05 -18.45 -36.05 L-19.05 -37.4 M-6.8 -14.3 Q0.6 -15.5 3.8 -19.45 5.4 -21.45 5.5 -23.3 5.5 -24.75 3.2 -29.3 L-2.9 -40.6 -2.15 -47.95 -2.1 -46.65 Q-1.45 -40.25 -0.3 -37.75 0.5 -36.0 1.75 -35.95 L4.6 -36.15 4.3 -42.5 Q6.4 -36.1 8.65 -34.3 L10.2 -30.85 11.1 -27.55 Q11.1 -27.05 10.35 -26.75 9.6 -26.45 9.6 -25.95 9.6 -25.45 10.45 -24.1 11.25 -22.8 11.25 -22.3 11.25 -19.6 7.15 -16.9 4.0 -14.9 -6.25 -10.2 -11.8 -4.4 -14.2 -2.35 -18.05 0.85 -22.4 0.6 -27.6 0.35 -30.35 -1.6 -32.55 -3.15 -33.4 -5.95 -28.35 -3.85 -23.8 -4.85 L-23.3 -4.95 -23.65 -1.4 -23.05 -1.0 Q-22.35 -0.55 -21.75 -0.5 -20.85 -0.45 -20.6 -1.35 L-20.3 -1.5 -20.55 -2.0 Q-20.55 -3.15 -21.3 -4.9 -19.05 -5.45 -18.2 -7.75 -17.7 -9.1 -17.25 -12.05 L-17.0 -12.05 -16.55 -10.0 Q-16.15 -7.85 -15.6 -7.1 L-12.2 -11.0 -12.05 -15.8 -11.8 -15.05 -11.05 -11.65 Q-8.95 -12.05 -5.5 -13.3 -2.5 -14.4 -2.0 -14.8 L-3.15 -14.4 -6.8 -14.3 M-1.8 -49.75 L-1.75 -50.65 Q-1.6 -51.55 -1.3 -51.7 L-1.15 -50.35 -1.8 -49.75 M2.3 -47.1 L3.25 -44.3 3.3 -44.2 Q4.35 -42.25 4.35 -38.2 4.35 -37.55 3.65 -37.1 L2.9 -36.75 1.7 -37.25 Q1.35 -37.3 1.1 -37.8 L-1.6 -49.15 -1.6 -49.2 -0.95 -49.3 0.1 -44.25 Q1.2 -39.15 1.4 -38.9 L2.9 -38.75 3.1 -40.35 2.75 -43.45 2.3 -47.1 M-34.4 -10.45 Q-34.55 -15.15 -33.9 -17.7 L-32.1 -22.5 -31.25 -24.05 Q-32.0 -21.5 -32.0 -20.5 L-31.75 -19.55 -31.6 -18.95 -32.9 -16.9 -33.45 -14.95 Q-33.45 -12.25 -30.3 -12.1 -28.8 -12.05 -28.2 -13.8 -27.85 -14.7 -27.85 -15.7 -27.85 -16.35 -28.0 -16.75 L-28.7 -18.1 -28.3 -18.55 -28.05 -18.45 Q-26.5 -21.6 -26.4 -28.9 -26.35 -33.05 -26.7 -37.4 L-26.55 -38.3 -26.45 -37.75 -25.35 -31.95 -26.05 -19.6 -26.65 -17.8 Q-26.8 -14.95 -27.1 -13.7 -27.6 -11.35 -30.3 -11.05 L-30.0 -9.4 -34.4 -10.45 M7.3 -33.9 Q5.45 -36.25 2.05 -34.5 5.05 -30.25 5.7 -27.3 L7.5 -22.1 8.2 -25.55 8.7 -29.15 Q8.7 -32.1 7.3 -33.9 M2.55 -19.55 Q3.1 -20.3 3.1 -21.15 3.1 -22.45 0.15 -27.55 -3.1 -33.2 -3.95 -36.9 -4.15 -37.85 -5.05 -38.9 L-6.8 -40.65 Q-7.7 -41.2 -15.55 -37.15 -14.15 -35.45 -11.0 -25.3 -8.1 -15.9 -7.25 -15.85 -2.85 -16.5 -0.3 -17.55 -4.55 -14.9 -7.1 -15.05 -8.1 -15.1 -8.55 -15.65 -11.05 -22.45 -13.4 -30.7 -15.15 -36.05 -17.7 -38.05 -12.9 -40.25 -9.3 -40.95 -5.35 -41.75 -3.9 -40.4 -2.2 -38.85 4.8 -23.8 L5.05 -23.35 5.15 -22.5 Q5.15 -21.5 2.55 -19.55" fill="#f14392" fill-rule="evenodd" stroke="none"/>
    <path d="M-1.9 -20.15 L-2.95 -20.4 0.5 -25.4 1.15 -24.6 -1.9 -20.15 M-4.0 -21.3 L-4.35 -22.1 -2.05 -25.65 -0.4 -25.75 -1.9 -22.6 Q-2.45 -21.75 -4.0 -21.3 M-2.75 -53.75 L-3.95 -54.1 -1.8 -53.55 Q-0.15 -53.1 0.2 -52.85 L-1.1 -53.15 -2.75 -53.75 M-29.1 -44.9 L-27.95 -45.1 -26.75 -44.5 -25.05 -43.6 -25.75 -43.9 -27.55 -44.6 -28.4 -44.6 Q-29.15 -44.3 -29.6 -43.4 L-29.9 -42.65 Q-29.9 -43.95 -29.55 -44.45 L-29.45 -44.65 -29.1 -44.9 M-30.5 -13.45 L-32.6 -14.2 Q-32.5 -16.1 -31.4 -18.2 L-30.3 -17.7 -28.95 -17.55 Q-29.9 -16.05 -30.5 -13.45" fill="#4f4f4f" fill-rule="evenodd" stroke="none"/>
    <path d="M-28.3 -18.55 L-26.7 -37.4 Q-26.35 -33.05 -26.4 -28.9 -26.5 -21.6 -28.05 -18.45 L-28.3 -18.55 M-6.5 -39.85 Q-7.45 -38.15 -8.85 -37.35 L-10.9 -36.35 Q-12.6 -35.4 -11.1 -30.15 L-9.45 -24.4 -14.55 -36.85 Q-10.65 -40.3 -6.5 -39.85 M-20.05 -27.55 L-21.15 -27.1 -21.5 -27.05 -22.85 -27.5 Q-24.65 -30.3 -25.9 -37.6 L-22.45 -28.4 -21.35 -28.05 -20.05 -27.55 M-15.7 -29.0 Q-15.25 -28.3 -15.25 -27.3 L-15.4 -22.45 -15.6 -17.75 Q-16.1 -18.5 -17.15 -22.65 -19.25 -18.05 -20.0 -14.9 -20.35 -14.2 -24.05 -14.45 -24.35 -17.3 -22.9 -20.9 -21.7 -23.75 -21.0 -24.3 L-17.9 -26.9 -15.7 -29.0 M-8.75 -34.7 L-8.6 -34.25 Q-8.6 -34.0 -8.75 -33.9 -8.9 -33.75 -9.15 -33.75 L-9.55 -33.9 -9.7 -34.35 -9.55 -34.7 -9.15 -34.85 Q-8.9 -34.85 -8.75 -34.7 M-6.3 -36.05 L-6.4 -36.0 -6.5 -36.0 -6.3 -36.05 M-25.1 -40.45 Q-24.1 -39.55 -23.05 -36.25 L-21.75 -32.2 -21.75 -31.45 -22.8 -32.9 -25.1 -40.45 M-20.6 -31.25 L-19.95 -30.85 Q-20.85 -30.85 -21.5 -31.3 L-20.6 -31.25 M-24.05 -12.7 Q-22.55 -13.2 -23.5 -12.45 L-23.85 -11.15 -25.15 -11.0 -26.2 -11.55 Q-25.5 -12.2 -24.05 -12.7 M-6.9 -18.35 Q-6.2 -17.65 -5.4 -17.6 -4.4 -17.55 -3.15 -18.2 L-3.65 -17.6 -4.2 -17.25 Q-4.0 -17.0 -5.0 -17.05 L-6.1 -17.2 -6.9 -18.35" fill="#ffafd3" fill-rule="evenodd" stroke="none"/>
  </g>
</svg>
