<?xml version="1.0" encoding="UTF-8" standalone="no"?>
<svg xmlns:ffdec="https://www.free-decompiler.com/flash" xmlns:xlink="http://www.w3.org/1999/xlink" ffdec:objectType="shape" height="72.7px" width="28.3px" xmlns="http://www.w3.org/2000/svg">
  <g transform="matrix(1.0, 0.0, 0.0, 1.0, 3.35, 135.65)">
    <path d="M2.55 -128.65 Q20.15 -115.2 19.85 -91.65 L23.55 -91.9 Q24.2 -116.7 6.4 -131.3 L5.55 -132.0 4.7 -132.7 1.85 -134.65 -2.2 -131.95 2.55 -128.65 M2.05 -135.55 Q25.1 -120.25 24.35 -91.75 L24.85 -91.45 Q25.1 -90.95 24.7 -88.0 L23.95 -84.2 23.8 -84.2 23.7 -83.1 Q22.4 -74.25 19.2 -64.2 L19.05 -64.0 18.85 -63.85 14.0 -62.95 13.7 -63.0 13.55 -63.3 13.55 -63.65 Q17.3 -74.25 18.5 -83.55 L18.2 -83.3 Q17.85 -83.05 17.35 -83.85 17.25 -84.0 17.45 -84.9 L17.2 -87.65 Q17.15 -90.6 18.2 -91.45 L19.05 -91.5 Q19.35 -117.9 -3.15 -131.55 L-3.3 -131.8 -3.35 -132.1 -3.2 -132.35 1.65 -135.6 1.9 -135.65 2.05 -135.55 M20.55 -71.75 Q22.1 -77.55 22.85 -82.9 23.35 -86.3 23.5 -89.55 L23.5 -89.7 21.55 -89.6 19.75 -89.55 Q19.35 -80.4 16.35 -69.8 L14.7 -64.35 14.55 -64.0 18.55 -64.7 20.55 -71.75" fill="#000000" fill-rule="evenodd" stroke="none"/>
    <path d="M6.4 -131.3 L2.55 -128.65 -2.2 -131.95 1.85 -134.65 4.7 -132.7 5.55 -132.0 6.4 -131.3 M16.35 -69.8 L16.5 -70.25 17.0 -70.45 Q18.7 -71.25 20.55 -71.75 L18.55 -64.7 14.55 -64.0 14.7 -64.35 16.35 -69.8" fill="#747474" fill-rule="evenodd" stroke="none"/>
    <path d="M2.55 -128.65 L6.4 -131.3 Q24.2 -116.7 23.55 -91.9 L19.85 -91.65 Q20.15 -115.2 2.55 -128.65 M16.35 -69.8 Q19.35 -80.4 19.75 -89.55 L21.55 -89.6 23.5 -89.7 23.5 -89.55 Q23.35 -86.3 22.85 -82.9 22.1 -77.55 20.55 -71.75 18.7 -71.25 17.0 -70.45 L16.5 -70.25 16.35 -69.8" fill="#999999" fill-rule="evenodd" stroke="none"/>
  </g>
</svg>
