<?xml version="1.0" encoding="UTF-8" standalone="no"?>
<svg xmlns:ffdec="https://www.free-decompiler.com/flash" xmlns:xlink="http://www.w3.org/1999/xlink" ffdec:objectType="shape" height="46.3px" width="89.1px" xmlns="http://www.w3.org/2000/svg">
  <g transform="matrix(1.0, 0.0, 0.0, 1.0, -8.9, 10.65)">
    <path d="M32.6 -5.45 Q35.7 -1.75 35.7 4.65 35.7 7.85 33.7 12.7 31.9 17.2 29.9 19.65 29.75 17.75 29.0 17.5 27.85 19.3 24.55 21.05 20.7 23.1 17.0 23.1 L11.5 22.25 Q15.9 17.35 17.2 15.05 19.55 10.85 19.6 4.85 19.8 -8.75 25.8 -8.75 29.85 -8.75 32.6 -5.45 M89.85 -0.6 Q91.2 0.7 91.3 2.1 L90.6 5.0 Q89.85 8.55 89.85 12.2 89.85 16.45 90.9 20.5 92.5 26.5 96.0 30.0 L91.85 30.55 87.75 29.95 Q84.85 29.2 82.9 27.85 82.95 30.9 83.2 31.95 83.35 32.65 84.25 34.1 74.9 32.35 67.9 24.8 L66.75 30.35 Q65.45 28.95 64.05 25.45 62.25 21.05 62.25 17.35 62.25 9.95 67.85 3.5 73.7 -3.2 81.05 -3.2 87.2 -3.2 89.85 -0.6" fill="#510c0f" fill-rule="evenodd" stroke="none"/>
    <path d="M32.6 -5.45 Q29.85 -8.75 25.8 -8.75 19.8 -8.75 19.6 4.85 19.55 10.85 17.2 15.05 15.9 17.35 11.5 22.25 L17.0 23.1 Q20.7 23.1 24.55 21.05 27.85 19.3 29.0 17.5 29.75 17.75 29.9 19.65 31.9 17.2 33.7 12.7 35.7 7.85 35.7 4.65 35.7 -1.75 32.6 -5.45 M18.7 -2.55 Q18.65 -5.4 19.85 -7.3 20.9 -8.95 22.7 -9.9 24.1 -10.65 25.2 -10.65 29.1 -10.65 32.3 -7.25 36.55 -2.75 36.55 5.8 36.55 14.35 33.35 18.5 31.05 21.55 28.45 21.2 29.4 18.65 27.1 20.5 L24.15 23.1 Q20.45 24.9 16.95 24.9 10.25 23.95 8.9 22.2 14.45 17.45 16.7 13.65 19.0 9.65 19.0 4.4 L18.7 -2.55 M89.85 -0.6 Q87.2 -3.2 81.05 -3.2 73.7 -3.2 67.85 3.5 62.25 9.95 62.25 17.35 62.25 21.05 64.05 25.45 65.45 28.95 66.75 30.35 L67.9 24.8 Q74.9 32.35 84.25 34.1 83.35 32.65 83.2 31.95 82.95 30.9 82.9 27.85 84.85 29.2 87.75 29.95 L91.85 30.55 96.0 30.0 Q92.5 26.5 90.9 20.5 89.85 16.45 89.85 12.2 89.85 8.55 90.6 5.0 L91.3 2.1 Q91.2 0.7 89.85 -0.6 M76.75 -3.6 Q83.3 -5.5 88.15 -3.45 93.3 -1.2 93.3 4.5 93.3 6.7 92.3 9.05 91.3 11.45 91.3 15.2 91.3 20.05 93.35 23.6 94.6 25.75 98.0 30.2 L94.3 31.6 90.7 32.4 Q86.85 32.55 84.75 31.05 L85.2 32.25 87.0 35.3 Q84.05 36.45 78.25 34.05 72.25 31.6 68.65 27.5 L67.65 32.95 Q60.2 28.05 60.2 18.7 60.2 10.05 65.35 3.8 69.85 -1.6 76.75 -3.6" fill="#330809" fill-rule="evenodd" stroke="none"/>
  </g>
</svg>
