<?xml version="1.0" encoding="UTF-8" standalone="no"?>
<svg xmlns:ffdec="https://www.free-decompiler.com/flash" xmlns:xlink="http://www.w3.org/1999/xlink" ffdec:objectType="shape" height="19.45px" width="22.15px" xmlns="http://www.w3.org/2000/svg">
  <g transform="matrix(1.0, 0.0, 0.0, 1.0, -5.65, 6.65)">
    <path d="M23.05 -2.05 Q24.25 -0.95 24.3 1.9 L24.6 4.9 24.35 5.5 23.9 5.5 20.15 7.35 Q16.4 9.2 15.6 9.8 14.05 10.85 13.45 11.45 L12.35 11.95 13.6 9.9 16.2 7.8 Q17.75 6.7 22.1 5.0 25.1 3.0 22.35 -1.55 L23.05 -2.05 M6.5 12.6 Q7.0 10.0 7.9 7.65 9.7 3.0 12.75 1.85 L9.65 7.45 Q8.3 10.0 7.7 12.8 L6.5 12.6" fill="#b47e49" fill-rule="evenodd" stroke="none"/>
    <path d="M23.05 -2.05 L23.7 -3.35 24.15 -4.5 24.75 -3.95 Q27.0 3.4 27.0 5.2 27.0 6.7 22.1 8.15 L15.6 9.8 Q16.4 9.2 20.15 7.35 L23.9 5.5 24.35 5.5 24.6 4.9 24.3 1.9 Q24.25 -0.95 23.05 -2.05" fill="#92663a" fill-rule="evenodd" stroke="none"/>
    <path d="M13.25 1.65 L20.3 -0.75 20.35 -0.75 20.45 -0.8 21.85 -1.25 22.7 0.1 18.95 1.4 14.15 3.25 Q13.5 3.55 12.45 6.7 11.3 10.0 11.5 11.8 L11.65 12.1 8.0 12.75 13.25 1.65" fill="#cfac89" fill-rule="evenodd" stroke="none"/>
    <path d="M12.75 1.85 L13.25 1.65 8.0 12.75 7.7 12.8 Q8.3 10.0 9.65 7.45 L12.75 1.85 M21.85 -1.25 L22.35 -1.55 Q25.1 3.0 22.1 5.0 17.75 6.7 16.2 7.8 L13.6 9.9 12.35 11.95 11.65 12.1 11.5 11.8 Q11.3 10.0 12.45 6.7 13.5 3.55 14.15 3.25 L18.95 1.4 22.7 0.1 21.85 -1.25" fill="#bf9162" fill-rule="evenodd" stroke="none"/>
    <path d="M15.6 9.8 L22.1 8.15 Q27.0 6.7 27.0 5.2 27.0 3.4 24.75 -3.95 L24.15 -4.5 23.7 -3.35 23.05 -2.05 22.35 -1.55 21.85 -1.25 20.45 -0.8 20.75 -1.0 20.3 -0.75 13.25 1.65 12.75 1.85 Q9.7 3.0 7.9 7.65 7.0 10.0 6.5 12.6 5.7 11.85 5.65 11.0 5.65 10.4 6.1 9.05 L8.15 4.0 Q9.4 2.15 15.65 0.15 21.9 -1.85 22.6 -2.95 L22.65 -2.95 Q23.6 -4.5 23.8 -6.65 26.0 -4.85 26.6 -3.1 27.35 -0.85 27.8 5.7 27.8 7.25 21.55 9.15 L13.45 11.45 Q14.05 10.85 15.6 9.8" fill="#5f4225" fill-rule="evenodd" stroke="none"/>
  </g>
</svg>
