<?xml version="1.0" encoding="UTF-8" standalone="no"?>
<svg xmlns:ffdec="https://www.free-decompiler.com/flash" xmlns:xlink="http://www.w3.org/1999/xlink" ffdec:objectType="shape" height="169.65px" width="65.35px" xmlns="http://www.w3.org/2000/svg">
  <g transform="matrix(1.0, 0.0, 0.0, 1.0, 32.35, 134.4)">
    <path d="M17.9 -23.1 L0.0 -21.9 -7.95 -21.95 -9.65 -45.2 Q-10.2 -55.1 -10.2 -68.75 -10.2 -88.05 -6.3 -108.2 -1.7 -131.8 4.7 -131.8 L6.25 -131.35 8.35 -130.15 7.15 -128.8 Q6.9 -128.45 6.9 -127.85 6.9 -127.2 7.35 -127.05 L8.05 -127.0 10.0 -129.0 Q14.05 -125.3 19.35 -113.7 25.95 -99.15 25.95 -87.2 L25.35 -76.3 24.7 -68.15 Q24.7 -63.75 27.2 -45.2 L29.65 -27.25 Q28.85 -26.35 27.65 -25.6 L27.45 -25.55 Q22.95 -23.85 19.85 -23.45 L19.15 -28.25 19.75 -28.45 Q20.15 -28.65 20.15 -29.3 L19.9 -29.85 Q19.4 -30.4 18.45 -32.85 L22.25 -33.95 Q23.65 -34.2 23.95 -34.55 24.35 -35.05 24.35 -42.85 24.35 -46.35 23.35 -58.7 23.15 -61.6 21.65 -66.5 20.2 -71.1 20.2 -72.15 L18.7 -82.2 Q17.25 -91.8 17.35 -95.15 L18.2 -97.9 17.75 -98.55 17.1 -98.9 Q17.65 -103.1 16.3 -110.15 14.9 -117.25 12.1 -119.55 9.3 -121.85 6.75 -118.0 4.2 -114.15 3.1 -103.05 -4.2 -103.95 -6.45 -100.4 -8.5 -97.1 -8.5 -85.65 -8.5 -78.35 -8.1 -78.0 -7.1 -78.55 -5.95 -77.75 L-6.05 -75.65 -5.9 -74.9 Q-5.7 -74.65 -5.05 -74.65 L-4.4 -74.7 -4.1 -74.9 -4.05 -77.6 -0.3 -77.35 Q-0.05 -69.45 -1.4 -67.75 -2.85 -67.4 -2.85 -66.15 L-2.6 -57.6 Q-2.05 -47.35 -0.35 -38.55 -0.35 -36.55 0.3 -35.95 L0.15 -36.0 Q0.6 -34.7 5.45 -32.45 10.05 -30.25 11.75 -30.25 12.05 -30.25 12.65 -30.7 13.55 -31.45 16.5 -32.25 16.95 -29.3 16.65 -29.1 L15.35 -29.0 15.25 -28.4 15.85 -27.65 17.2 -27.7 17.9 -23.1 M1.25 -117.4 Q0.6 -117.4 0.15 -116.65 -0.3 -115.95 -0.3 -114.95 -0.3 -113.95 0.15 -113.2 0.6 -112.5 1.25 -112.5 1.9 -112.5 2.35 -113.2 2.8 -113.95 2.8 -114.95 2.8 -115.95 2.35 -116.65 1.9 -117.4 1.25 -117.4 M4.4 -124.6 L4.3 -124.5 2.95 -122.05 2.7 -121.1 2.75 -120.35 3.65 -120.0 Q5.65 -120.9 6.2 -123.6 6.2 -124.7 5.1 -124.7 L4.4 -124.6 M14.95 -44.1 L15.3 -41.05 1.65 -38.1 1.65 -42.0 14.95 -44.1 M26.65 -31.45 Q26.65 -32.05 26.1 -32.45 L24.65 -32.9 23.25 -32.45 Q22.65 -32.05 22.65 -31.45 22.65 -30.85 23.25 -30.4 23.8 -30.0 24.65 -30.0 25.5 -30.0 26.1 -30.4 26.65 -30.85 26.65 -31.45 M6.4 -98.4 L4.75 -78.95 Q4.75 -79.7 -6.55 -79.8 -6.55 -89.6 -6.2 -92.95 -6.0 -95.2 -2.3 -90.1 L-1.7 -88.8 Q-0.95 -88.6 6.4 -98.4 M9.65 -28.3 Q8.6 -28.3 7.9 -27.9 7.15 -27.55 7.15 -27.05 7.15 -26.55 7.9 -26.15 8.6 -25.8 9.65 -25.8 L11.45 -26.15 Q12.15 -26.55 12.15 -27.05 12.15 -27.55 11.45 -27.9 L9.65 -28.3 M3.5 -25.45 Q4.2 -25.8 4.2 -26.25 4.2 -26.7 3.5 -27.0 L1.7 -27.35 -0.05 -27.0 Q-0.8 -26.7 -0.8 -26.25 -0.8 -25.8 -0.05 -25.45 L1.7 -25.15 3.5 -25.45 M-1.0 -104.8 Q-0.45 -104.8 -0.05 -105.5 0.35 -106.25 0.35 -107.3 0.35 -108.35 -0.05 -109.05 -0.45 -109.8 -1.0 -109.8 -1.55 -109.8 -1.95 -109.05 -2.35 -108.35 -2.35 -107.3 -2.35 -106.25 -1.95 -105.5 -1.55 -104.8 -1.0 -104.8 M-21.4 -106.35 Q-18.5 -116.55 -12.0 -125.8 -17.1 -112.75 -19.85 -87.8 -22.2 -67.1 -22.2 -46.7 L-23.65 -25.45 -26.65 -24.95 Q-30.35 -25.6 -30.35 -27.4 -30.35 -31.3 -28.55 -50.85 L-25.65 -80.55 Q-23.85 -97.7 -21.4 -106.35 M-4.55 -30.45 L-4.85 -28.7 -4.55 -26.9 Q-4.25 -26.2 -3.8 -26.2 -3.35 -26.2 -3.05 -26.9 -2.75 -27.65 -2.75 -28.7 -2.75 -29.75 -3.05 -30.45 -3.35 -31.2 -3.8 -31.2 -4.25 -31.2 -4.55 -30.45 M-3.5 -38.55 Q-3.85 -39.3 -4.3 -39.3 -4.75 -39.3 -5.05 -38.55 -5.4 -37.8 -5.4 -36.75 -5.4 -35.7 -5.05 -34.95 -4.75 -34.2 -4.3 -34.2 -3.85 -34.2 -3.5 -34.95 -3.2 -35.7 -3.2 -36.75 -3.2 -37.8 -3.5 -38.55 M-3.95 -46.5 Q-4.3 -47.25 -4.75 -47.25 -5.2 -47.25 -5.5 -46.5 -5.85 -45.8 -5.85 -44.75 -5.85 -43.7 -5.5 -42.95 -5.2 -42.25 -4.75 -42.25 -4.3 -42.25 -3.95 -42.95 -3.65 -43.7 -3.65 -44.75 -3.65 -45.8 -3.95 -46.5 M-5.85 -51.05 Q-5.55 -50.3 -5.1 -50.3 -4.65 -50.3 -4.35 -51.05 -4.05 -51.8 -4.05 -52.85 -4.05 -53.9 -4.35 -54.65 -4.65 -55.4 -5.1 -55.4 -5.55 -55.4 -5.85 -54.65 L-6.15 -52.85 -5.85 -51.05 M-5.25 -63.5 Q-5.65 -63.5 -5.95 -62.75 L-6.25 -60.95 -5.95 -59.15 Q-5.65 -58.4 -5.25 -58.4 -4.85 -58.4 -4.55 -59.15 -4.25 -59.9 -4.25 -60.95 -4.25 -62.0 -4.55 -62.75 -4.85 -63.5 -5.25 -63.5 M-4.15 -69.05 Q-4.15 -70.1 -4.45 -70.85 -4.75 -71.6 -5.2 -71.6 -5.65 -71.6 -5.95 -70.85 L-6.25 -69.05 -5.95 -67.25 Q-5.65 -66.5 -5.2 -66.5 -4.75 -66.5 -4.45 -67.25 -4.15 -68.0 -4.15 -69.05" fill="#cac4b7" fill-rule="evenodd" stroke="none"/>
    <path d="M-0.3 -77.35 L6.9 -76.6 6.6 -76.9 Q6.25 -77.3 6.65 -77.8 L8.65 -101.4 Q8.1 -102.0 8.35 -102.35 L3.1 -103.05 Q4.2 -114.15 6.75 -118.0 9.3 -121.85 12.1 -119.55 14.9 -117.25 16.3 -110.15 17.65 -103.1 17.1 -98.9 15.6 -97.25 14.3 -90.2 13.15 -83.8 13.15 -79.35 L14.7 -46.15 0.2 -43.75 Q-0.35 -43.4 -0.35 -38.55 -2.05 -47.35 -2.6 -57.6 L-2.85 -66.15 Q-2.85 -67.4 -1.4 -67.75 -0.05 -69.45 -0.3 -77.35 M0.95 -101.2 L5.75 -100.75 -2.3 -90.1 -3.9 -101.85 0.95 -101.2 M18.45 -32.85 L16.7 -47.05 Q15.1 -61.2 15.1 -68.3 15.1 -93.05 15.6 -94.0 L16.3 -93.4 Q16.85 -92.85 17.35 -95.15 17.25 -91.8 18.7 -82.2 L20.2 -72.15 Q20.2 -71.1 21.65 -66.5 23.15 -61.6 23.35 -58.7 24.35 -46.35 24.35 -42.85 24.35 -35.05 23.95 -34.55 23.65 -34.2 22.25 -33.95 L18.45 -32.85" fill="#ebe7de" fill-rule="evenodd" stroke="none"/>
    <path d="M19.1 -5.7 L18.95 -13.0 18.05 -12.9 23.85 -14.2 24.85 -7.05 19.1 -5.7 M5.1 -3.35 L-2.0 -2.8 Q-1.9 -6.75 -1.3 -10.45 L5.2 -10.9 5.1 -3.35" fill="#666666" fill-rule="evenodd" stroke="none"/>
    <path d="M12.4 7.45 Q14.15 8.15 14.15 9.1 14.15 17.95 12.0 21.25 10.55 23.5 7.5 23.5 6.75 23.5 -0.95 16.75 -9.25 9.45 -9.25 6.6 -9.25 5.8 -8.7 5.1 -8.05 4.25 -7.0 4.25 L-2.45 5.0 2.05 5.75 3.1 6.15 Q3.65 6.5 4.15 6.5 9.8 6.5 12.4 7.45" fill="#41559c" fill-rule="evenodd" stroke="none"/>
    <path d="M-25.9 -22.65 L-25.8 -22.6 -25.85 -21.5 -25.9 -22.65 M-6.85 -113.95 Q-8.45 -108.1 -10.2 -94.3 -12.2 -78.35 -12.2 -67.1 -12.8 -40.9 -12.4 -32.8 -11.8 -20.2 -6.6 -20.0 -6.4 -19.05 -7.0 -17.85 L-7.35 -16.5 Q-6.75 -15.55 3.3 -15.55 16.3 -15.55 28.3 -19.65 L29.4 -17.7 16.4 -14.6 Q15.75 -15.8 15.3 -15.8 L11.7 -15.3 8.65 -14.6 Q8.35 -14.25 8.45 -13.3 L1.4 -12.7 -4.05 -12.45 Q-4.65 -12.45 -4.65 -13.1 L-4.5 -13.75 -5.8 -14.45 -19.5 -15.9 Q-20.4 -15.9 -22.25 -14.5 L-22.4 -15.1 -22.6 -15.55 Q-21.45 -17.75 -19.9 -18.5 L-17.5 -19.15 Q-15.15 -19.85 -15.15 -26.85 -15.15 -31.8 -16.15 -32.75 -16.7 -33.25 -17.2 -33.15 -17.2 -47.15 -15.3 -72.95 -13.4 -98.75 -13.4 -102.75 -13.4 -109.7 -11.5 -111.35 L-9.4 -112.4 Q-7.85 -113.05 -6.85 -113.95" fill="#333333" fill-rule="evenodd" stroke="none"/>
    <path d="M10.4 -131.2 L8.95 -130.9 Q8.35 -130.6 8.35 -130.15 L6.25 -131.35 4.7 -131.8 Q-1.7 -131.8 -6.3 -108.2 -10.2 -88.05 -10.2 -68.75 -10.2 -55.1 -9.65 -45.2 L-7.95 -21.95 0.0 -21.9 17.9 -23.1 Q17.9 -22.35 18.25 -21.8 18.6 -21.3 19.1 -21.3 11.1 -19.9 0.0 -19.9 L-6.6 -20.0 Q-11.8 -20.2 -12.4 -32.8 -12.8 -40.9 -12.2 -67.1 -12.2 -78.35 -10.2 -94.3 -8.45 -108.1 -6.85 -113.95 -5.25 -119.55 -2.05 -125.6 0.75 -130.85 2.45 -132.3 -14.65 -133.65 -19.65 -84.1 -22.45 -56.05 -21.05 -21.5 L-25.8 -22.6 -25.9 -22.65 -27.95 -23.25 Q-29.85 -23.55 -31.15 -24.85 -32.35 -26.05 -32.35 -27.4 -31.3 -43.6 -29.65 -61.15 -26.45 -96.1 -23.55 -105.8 -19.0 -121.0 -13.35 -127.65 -7.55 -134.4 1.25 -134.4 4.1 -134.4 5.3 -133.45 7.05 -132.05 10.4 -131.2 M10.0 -129.0 L10.65 -129.55 Q10.85 -129.8 10.85 -130.4 L10.85 -130.9 Q17.0 -128.0 22.6 -112.95 28.0 -98.5 28.0 -87.25 28.0 -83.35 27.35 -77.1 26.7 -70.9 26.7 -68.0 26.7 -58.25 29.2 -43.6 31.65 -28.95 31.65 -27.05 31.65 -26.4 31.25 -25.7 30.55 -24.55 28.95 -24.05 26.8 -23.05 24.15 -22.25 20.75 -21.2 19.15 -21.3 19.45 -21.4 19.75 -21.75 L20.0 -22.3 19.85 -23.45 Q22.95 -23.85 27.45 -25.55 L27.65 -25.6 Q28.85 -26.35 29.65 -27.25 L27.2 -45.2 Q24.7 -63.75 24.7 -68.15 L25.35 -76.3 25.95 -87.2 Q25.95 -99.15 19.35 -113.7 14.05 -125.3 10.0 -129.0 M-21.4 -106.35 Q-23.85 -97.7 -25.65 -80.55 L-28.55 -50.85 Q-30.35 -31.3 -30.35 -27.4 -30.35 -25.6 -26.65 -24.95 L-23.65 -25.45 -22.2 -46.7 Q-22.2 -67.1 -19.85 -87.8 -17.1 -112.75 -12.0 -125.8 -18.5 -116.55 -21.4 -106.35" fill="#605146" fill-rule="evenodd" stroke="none"/>
    <path d="M-27.95 -23.25 L-25.9 -22.65 -25.85 -21.5 -25.8 -22.6 -21.05 -21.5 Q-22.45 -56.05 -19.65 -84.1 -14.65 -133.65 2.45 -132.3 0.75 -130.85 -2.05 -125.6 -5.25 -119.55 -6.85 -113.95 -7.85 -113.05 -9.4 -112.4 L-11.5 -111.35 Q-13.4 -109.7 -13.4 -102.75 -13.4 -98.75 -15.3 -72.95 -17.2 -47.15 -17.2 -33.15 -16.7 -33.25 -16.15 -32.75 -15.15 -31.8 -15.15 -26.85 -15.15 -19.85 -17.5 -19.15 L-19.9 -18.5 Q-21.45 -17.75 -22.6 -15.55 L-25.2 -15.75 -28.1 -15.7 Q-27.65 -19.55 -27.95 -23.25 M-6.6 -20.0 L0.0 -19.9 Q11.1 -19.9 19.1 -21.3 L19.15 -21.3 Q20.75 -21.2 24.15 -22.25 26.8 -23.05 28.95 -24.05 29.3 -22.65 30.15 -21.5 L31.55 -19.5 Q33.15 -16.55 32.85 -8.1 L32.8 -8.7 32.6 -8.85 31.8 -9.0 30.95 -8.8 30.85 -7.85 30.9 -6.65 16.4 -3.1 16.4 -5.15 19.1 -5.7 24.85 -7.05 30.8 -8.7 30.1 -15.85 23.85 -14.2 18.05 -12.9 16.4 -12.65 16.4 -14.6 29.4 -17.7 28.3 -19.65 Q16.3 -15.55 3.3 -15.55 -6.75 -15.55 -7.35 -16.5 L-7.0 -17.85 Q-6.4 -19.05 -6.6 -20.0 M8.45 -13.3 L8.5 -11.4 5.2 -10.9 -1.3 -10.45 -1.3 -10.5 -4.05 -10.6 -4.05 -2.7 -2.0 -2.8 5.1 -3.35 8.7 -3.85 8.75 -1.8 -4.05 -0.7 Q-4.05 1.0 -4.3 1.6 -5.05 2.35 -6.35 2.55 L-20.8 0.7 -21.5 0.1 -21.85 -0.4 -21.9 -1.25 Q-21.9 -2.25 -22.65 -2.1 L-22.6 -4.15 -21.15 -4.4 -19.8 -4.8 -18.5 -4.55 -18.9 -3.9 Q-18.75 -2.95 -8.05 -2.7 L-8.1 -3.45 Q-8.2 -4.15 -8.4 -4.1 L-14.1 -4.95 Q-15.35 -5.35 -15.35 -6.85 -15.35 -8.2 -13.5 -8.55 L-8.35 -8.15 -8.05 -8.05 -8.05 -10.65 -17.75 -11.65 -18.05 -10.9 Q-18.45 -10.15 -19.85 -10.15 -21.0 -10.15 -21.6 -11.15 L-22.3 -12.6 -22.25 -14.5 Q-20.4 -15.9 -19.5 -15.9 L-5.8 -14.45 -4.5 -13.75 -4.65 -13.1 Q-4.65 -12.45 -4.05 -12.45 L1.4 -12.7 8.45 -13.3 M-29.15 -4.5 L-29.2 -12.2 Q-29.1 -13.65 -28.45 -14.75 -28.65 -5.7 -29.15 -4.5 M-20.55 -11.4 L-20.45 -11.2 -19.55 -11.15 -18.85 -11.25 -18.75 -11.4 -18.65 -12.75 -7.05 -11.55 -7.05 -0.55 Q-14.7 -1.5 -17.35 -2.25 -18.75 -2.65 -18.9 -3.1 L-19.0 -3.6 -19.8 -3.8 -20.55 -3.65 Q-20.7 -3.55 -20.75 -3.55 L-20.9 -1.15 Q-20.9 -0.15 -20.65 -0.45 L-6.0 1.55 -5.45 1.45 Q-5.05 0.2 -5.05 -5.8 L-4.7 -10.35 Q-4.55 -12.3 -5.3 -13.1 -7.0 -14.9 -19.55 -14.9 -20.4 -14.9 -20.6 -14.15 L-20.7 -12.2 -20.55 -11.4 M-13.35 -7.25 Q-14.35 -6.9 -14.35 -6.4 -14.35 -5.9 -13.35 -5.5 L-10.95 -5.15 -8.55 -5.5 Q-7.55 -5.9 -7.55 -6.4 -7.55 -6.9 -8.55 -7.25 L-10.95 -7.65 -13.35 -7.25" fill="#242424" fill-rule="evenodd" stroke="none"/>
    <path d="M16.5 -32.25 Q13.55 -31.45 12.65 -30.7 12.05 -30.25 11.75 -30.25 10.05 -30.25 5.45 -32.45 0.6 -34.7 0.15 -36.0 L0.3 -35.95 5.35 -36.65 15.55 -39.1 16.5 -32.25" fill="#f3f1ed" fill-rule="evenodd" stroke="none"/>
    <path d="M9.4 1.15 L9.55 1.15 10.55 1.1 18.4 1.4 17.55 1.55 Q17.15 1.75 17.15 2.4 17.15 5.15 17.3 5.75 17.5 6.35 18.2 6.35 L18.95 6.2 19.15 6.05 19.15 2.5 21.1 6.6 21.25 13.85 Q21.25 19.1 17.4 23.1 12.7 27.95 4.35 27.95 0.75 27.95 -3.25 26.7 -7.75 25.25 -9.0 23.25 L-17.1 12.75 Q-21.6 6.5 -21.5 0.1 L-20.8 0.7 -6.35 2.55 Q-5.05 2.35 -4.3 1.6 L9.4 1.15 M12.4 7.45 Q9.8 6.5 4.15 6.5 3.65 6.5 3.1 6.15 L2.05 5.75 -2.45 5.0 -7.0 4.25 Q-8.05 4.25 -8.7 5.1 -9.25 5.8 -9.25 6.6 -9.25 9.45 -0.95 16.75 6.75 23.5 7.5 23.5 10.55 23.5 12.0 21.25 14.15 17.95 14.15 9.1 14.15 8.15 12.4 7.45 M17.55 17.2 Q17.05 17.2 16.75 17.95 16.4 18.65 16.4 19.7 16.4 20.75 16.75 21.5 17.05 22.2 17.55 22.2 18.05 22.2 18.4 21.5 L18.7 19.7 18.4 17.95 Q18.05 17.2 17.55 17.2 M17.3 10.0 Q16.95 10.7 16.95 11.75 16.95 12.8 17.3 13.55 17.6 14.25 18.05 14.25 L18.85 13.55 19.15 11.75 18.85 10.0 Q18.5 9.25 18.05 9.25 17.6 9.25 17.3 10.0" fill="#374884" fill-rule="evenodd" stroke="none"/>
    <path d="M10.45 -13.65 L14.4 -13.65 14.4 -1.05 10.45 -1.05 10.45 -13.65 M8.75 -1.8 Q8.45 0.4 9.15 1.0 L9.4 1.15 -4.3 1.6 Q-4.05 1.0 -4.05 -0.7 L8.75 -1.8 M10.55 1.1 L17.0 -0.3 Q16.4 -0.95 16.4 -3.1 L30.9 -6.65 Q32.0 3.95 28.55 15.1 25.15 26.25 20.2 28.45 L17.35 30.3 12.35 32.15 Q8.65 33.15 3.25 33.15 -0.5 33.15 -5.9 31.25 -12.5 28.95 -15.8 25.3 L-15.95 25.15 Q-18.2 23.05 -21.65 14.85 -25.0 6.7 -26.95 -1.2 L-23.9 -0.55 Q-23.55 -0.55 -23.35 -0.8 -23.05 -1.1 -22.65 -2.1 -21.9 -2.25 -21.9 -1.25 L-21.85 -0.4 -21.5 0.1 Q-21.6 6.5 -17.1 12.75 L-9.0 23.25 Q-7.75 25.25 -3.25 26.7 0.75 27.95 4.35 27.95 12.7 27.95 17.4 23.1 21.25 19.1 21.25 13.85 L21.1 6.6 19.15 2.5 18.95 1.75 18.4 1.4 10.55 1.1 M15.8 25.85 Q15.45 26.55 15.45 27.6 15.45 28.65 15.8 29.4 16.15 30.1 16.65 30.1 17.15 30.1 17.5 29.4 17.85 28.65 17.85 27.6 17.85 26.55 17.5 25.85 17.15 25.1 16.65 25.1 16.15 25.1 15.8 25.85 M-26.45 -13.9 L-24.25 -13.85 -24.65 -2.75 -26.65 -3.2 -26.45 -13.9" fill="#2c3969" fill-rule="evenodd" stroke="none"/>
    <path d="M10.45 -13.65 L10.45 -1.05 14.4 -1.05 14.4 -13.65 10.45 -13.65 M8.45 -13.3 Q8.35 -14.25 8.65 -14.6 L11.7 -15.3 15.3 -15.8 Q15.75 -15.8 16.4 -14.6 L16.4 -12.65 16.4 -5.15 16.4 -3.1 Q16.4 -0.95 17.0 -0.3 L10.55 1.1 9.55 1.15 9.4 1.15 9.15 1.0 Q8.45 0.4 8.75 -1.8 L8.7 -3.85 8.5 -11.4 8.45 -13.3 M32.85 -8.1 L33.0 -4.7 Q33.0 16.0 26.0 25.65 19.05 35.25 4.2 35.25 -10.6 35.25 -17.45 26.2 -22.95 18.9 -29.15 -4.5 -28.65 -5.7 -28.45 -14.75 L-28.1 -15.7 -25.2 -15.75 -22.6 -15.55 -22.4 -15.1 -22.25 -14.5 -22.3 -12.6 -22.6 -4.15 -22.65 -2.1 Q-23.05 -1.1 -23.35 -0.8 -23.55 -0.55 -23.9 -0.55 L-26.95 -1.2 Q-25.0 6.7 -21.65 14.85 -18.2 23.05 -15.95 25.15 L-15.8 25.3 Q-12.5 28.95 -5.9 31.25 -0.5 33.15 3.25 33.15 8.65 33.15 12.35 32.15 L17.35 30.3 20.2 28.45 Q25.15 26.25 28.55 15.1 32.0 3.95 30.9 -6.65 L30.85 -7.85 30.95 -8.8 31.8 -9.0 32.6 -8.85 32.8 -8.7 32.85 -8.1 M19.15 2.5 L19.15 6.05 18.95 6.2 18.2 6.35 Q17.5 6.35 17.3 5.75 17.15 5.15 17.15 2.4 17.15 1.75 17.55 1.55 L18.4 1.4 18.95 1.75 19.15 2.5 M17.3 10.0 Q17.6 9.25 18.05 9.25 18.5 9.25 18.85 10.0 L19.15 11.75 18.85 13.55 18.05 14.25 Q17.6 14.25 17.3 13.55 16.95 12.8 16.95 11.75 16.95 10.7 17.3 10.0 M17.55 17.2 Q18.05 17.2 18.4 17.95 L18.7 19.7 18.4 21.5 Q18.05 22.2 17.55 22.2 17.05 22.2 16.75 21.5 16.4 20.75 16.4 19.7 16.4 18.65 16.75 17.95 17.05 17.2 17.55 17.2 M15.8 25.85 Q16.15 25.1 16.65 25.1 17.15 25.1 17.5 25.85 17.85 26.55 17.85 27.6 17.85 28.65 17.5 29.4 17.15 30.1 16.65 30.1 16.15 30.1 15.8 29.4 15.45 28.65 15.45 27.6 15.45 26.55 15.8 25.85 M-26.45 -13.9 L-26.65 -3.2 -24.65 -2.75 -24.25 -13.85 -26.45 -13.9" fill="#20294a" fill-rule="evenodd" stroke="none"/>
    <path d="M8.35 -130.15 Q8.35 -130.6 8.95 -130.9 L10.4 -131.2 10.6 -131.0 10.85 -130.9 10.85 -130.4 Q10.85 -129.8 10.65 -129.55 L10.0 -129.0 8.05 -127.0 7.35 -127.05 Q6.9 -127.2 6.9 -127.85 6.9 -128.45 7.15 -128.8 L8.35 -130.15 M19.1 -21.3 Q18.6 -21.3 18.25 -21.8 17.9 -22.35 17.9 -23.1 L17.2 -27.7 15.85 -27.65 15.25 -28.4 15.35 -29.0 16.65 -29.1 Q16.95 -29.3 16.5 -32.25 L15.55 -39.1 5.35 -36.65 0.3 -35.95 Q-0.35 -36.55 -0.35 -38.55 -0.35 -43.4 0.2 -43.75 L14.7 -46.15 13.15 -79.35 Q13.15 -83.8 14.3 -90.2 15.6 -97.25 17.1 -98.9 L17.75 -98.55 18.2 -97.9 17.35 -95.15 Q16.85 -92.85 16.3 -93.4 L15.6 -94.0 Q15.1 -93.05 15.1 -68.3 15.1 -61.2 16.7 -47.05 L18.45 -32.85 Q19.4 -30.4 19.9 -29.85 L20.15 -29.3 Q20.15 -28.65 19.75 -28.45 L19.15 -28.25 19.85 -23.45 20.0 -22.3 19.75 -21.75 Q19.45 -21.4 19.15 -21.3 L19.1 -21.3 M4.4 -124.6 L5.1 -124.7 Q6.2 -124.7 6.2 -123.6 5.65 -120.9 3.65 -120.0 L2.75 -120.35 2.7 -121.1 2.95 -122.05 4.3 -124.5 4.4 -124.6 M1.25 -117.4 Q1.9 -117.4 2.35 -116.65 2.8 -115.95 2.8 -114.95 2.8 -113.95 2.35 -113.2 1.9 -112.5 1.25 -112.5 0.6 -112.5 0.15 -113.2 -0.3 -113.95 -0.3 -114.95 -0.3 -115.95 0.15 -116.65 0.6 -117.4 1.25 -117.4 M3.1 -103.05 L8.35 -102.35 Q8.1 -102.0 8.65 -101.4 L6.65 -77.8 Q6.25 -77.3 6.6 -76.9 L6.9 -76.6 -0.3 -77.35 -4.05 -77.6 -4.1 -74.9 -4.4 -74.7 -5.05 -74.65 Q-5.7 -74.65 -5.9 -74.9 L-6.05 -75.65 -5.95 -77.75 Q-7.1 -78.55 -8.1 -78.0 -8.5 -78.35 -8.5 -85.65 -8.5 -97.1 -6.45 -100.4 -4.2 -103.95 3.1 -103.05 M0.95 -101.2 L-3.9 -101.85 -2.3 -90.1 5.75 -100.75 0.95 -101.2 M6.4 -98.4 Q-0.95 -88.6 -1.7 -88.8 L-2.3 -90.1 Q-6.0 -95.2 -6.2 -92.95 -6.55 -89.6 -6.55 -79.8 4.75 -79.7 4.75 -78.95 L6.4 -98.4 M26.65 -31.45 Q26.65 -30.85 26.1 -30.4 25.5 -30.0 24.65 -30.0 23.8 -30.0 23.25 -30.4 22.65 -30.85 22.65 -31.45 22.65 -32.05 23.25 -32.45 L24.65 -32.9 26.1 -32.45 Q26.65 -32.05 26.65 -31.45 M14.95 -44.1 L1.65 -42.0 1.65 -38.1 15.3 -41.05 14.95 -44.1 M3.5 -25.45 L1.7 -25.15 -0.05 -25.45 Q-0.8 -25.8 -0.8 -26.25 -0.8 -26.7 -0.05 -27.0 L1.7 -27.35 3.5 -27.0 Q4.2 -26.7 4.2 -26.25 4.2 -25.8 3.5 -25.45 M9.65 -28.3 L11.45 -27.9 Q12.15 -27.55 12.15 -27.05 12.15 -26.55 11.45 -26.15 L9.65 -25.8 Q8.6 -25.8 7.9 -26.15 7.15 -26.55 7.15 -27.05 7.15 -27.55 7.9 -27.9 8.6 -28.3 9.65 -28.3 M-1.0 -104.8 Q-1.55 -104.8 -1.95 -105.5 -2.35 -106.25 -2.35 -107.3 -2.35 -108.35 -1.95 -109.05 -1.55 -109.8 -1.0 -109.8 -0.45 -109.8 -0.05 -109.05 0.35 -108.35 0.35 -107.3 0.35 -106.25 -0.05 -105.5 -0.45 -104.8 -1.0 -104.8 M-4.15 -69.05 Q-4.15 -68.0 -4.45 -67.25 -4.75 -66.5 -5.2 -66.5 -5.65 -66.5 -5.95 -67.25 L-6.25 -69.05 -5.95 -70.85 Q-5.65 -71.6 -5.2 -71.6 -4.75 -71.6 -4.45 -70.85 -4.15 -70.1 -4.15 -69.05 M-5.25 -63.5 Q-4.85 -63.5 -4.55 -62.75 -4.25 -62.0 -4.25 -60.95 -4.25 -59.9 -4.55 -59.15 -4.85 -58.4 -5.25 -58.4 -5.65 -58.4 -5.95 -59.15 L-6.25 -60.95 -5.95 -62.75 Q-5.65 -63.5 -5.25 -63.5 M-5.85 -51.05 L-6.15 -52.85 -5.85 -54.65 Q-5.55 -55.4 -5.1 -55.4 -4.65 -55.4 -4.35 -54.65 -4.05 -53.9 -4.05 -52.85 -4.05 -51.8 -4.35 -51.05 -4.65 -50.3 -5.1 -50.3 -5.55 -50.3 -5.85 -51.05 M-3.95 -46.5 Q-3.65 -45.8 -3.65 -44.75 -3.65 -43.7 -3.95 -42.95 -4.3 -42.25 -4.75 -42.25 -5.2 -42.25 -5.5 -42.95 -5.85 -43.7 -5.85 -44.75 -5.85 -45.8 -5.5 -46.5 -5.2 -47.25 -4.75 -47.25 -4.3 -47.25 -3.95 -46.5 M-3.5 -38.55 Q-3.2 -37.8 -3.2 -36.75 -3.2 -35.7 -3.5 -34.95 -3.85 -34.2 -4.3 -34.2 -4.75 -34.2 -5.05 -34.95 -5.4 -35.7 -5.4 -36.75 -5.4 -37.8 -5.05 -38.55 -4.75 -39.3 -4.3 -39.3 -3.85 -39.3 -3.5 -38.55 M-4.55 -30.45 Q-4.25 -31.2 -3.8 -31.2 -3.35 -31.2 -3.05 -30.45 -2.75 -29.75 -2.75 -28.7 -2.75 -27.65 -3.05 -26.9 -3.35 -26.2 -3.8 -26.2 -4.25 -26.2 -4.55 -26.9 L-4.85 -28.7 -4.55 -30.45" fill="#a99e89" fill-rule="evenodd" stroke="none"/>
    <path d="M8.5 -11.4 L8.7 -3.85 5.1 -3.35 5.2 -10.9 8.5 -11.4 M16.4 -5.15 L16.4 -12.65 18.05 -12.9 18.95 -13.0 19.1 -5.7 16.4 -5.15 M-2.0 -2.8 L-4.05 -2.7 -4.05 -10.6 -1.3 -10.5 -1.3 -10.45 Q-1.9 -6.75 -2.0 -2.8 M24.85 -7.05 L23.85 -14.2 30.1 -15.85 30.8 -8.7 24.85 -7.05 M-22.6 -4.15 L-22.3 -12.6 -21.6 -11.15 Q-21.0 -10.15 -19.85 -10.15 -18.45 -10.15 -18.05 -10.9 L-17.75 -11.65 -8.05 -10.65 -8.05 -8.05 -8.35 -8.15 -13.5 -8.55 Q-15.35 -8.2 -15.35 -6.85 -15.35 -5.35 -14.1 -4.95 L-8.4 -4.1 Q-8.2 -4.15 -8.1 -3.45 L-8.05 -2.7 Q-18.75 -2.95 -18.9 -3.9 L-18.5 -4.55 -19.8 -4.8 -21.15 -4.4 -22.6 -4.15" fill="#4f4f4f" fill-rule="evenodd" stroke="none"/>
    <path d="M-20.55 -11.4 L-20.7 -12.2 -20.6 -14.15 Q-20.4 -14.9 -19.55 -14.9 -7.0 -14.9 -5.3 -13.1 -4.55 -12.3 -4.7 -10.35 L-5.05 -5.8 Q-5.05 0.2 -5.45 1.45 L-6.0 1.55 -20.65 -0.45 Q-20.9 -0.15 -20.9 -1.15 L-20.75 -3.55 Q-20.7 -3.55 -20.55 -3.65 L-19.8 -3.8 -19.0 -3.6 -18.9 -3.1 Q-18.75 -2.65 -17.35 -2.25 -14.7 -1.5 -7.05 -0.55 L-7.05 -11.55 -18.65 -12.75 -18.75 -11.4 -18.85 -11.25 -19.55 -11.15 -20.45 -11.2 -20.55 -11.4 M-13.35 -7.25 L-10.95 -7.65 -8.55 -7.25 Q-7.55 -6.9 -7.55 -6.4 -7.55 -5.9 -8.55 -5.5 L-10.95 -5.15 -13.35 -5.5 Q-14.35 -5.9 -14.35 -6.4 -14.35 -6.9 -13.35 -7.25" fill="#cccccc" fill-rule="evenodd" stroke="none"/>
  </g>
</svg>
