<?xml version="1.0" encoding="UTF-8" standalone="no"?>
<svg xmlns:ffdec="https://www.free-decompiler.com/flash" xmlns:xlink="http://www.w3.org/1999/xlink" ffdec:objectType="shape" height="134.25px" width="129.7px" xmlns="http://www.w3.org/2000/svg">
  <g transform="matrix(1.0, 0.0, 0.0, 1.0, 49.5, 149.1)">
    <path d="M-15.05 -120.95 L-12.45 -119.75 -32.45 -61.85 Q-34.5 -52.5 -39.0 -41.75 -43.5 -31.05 -46.45 -28.45 -41.25 -30.75 -36.05 -32.75 -17.85 -36.45 2.15 -36.45 L31.65 -35.05 42.25 -33.65 42.35 -32.05 42.35 -33.4 Q40.85 -47.35 37.15 -61.75 33.95 -74.4 26.65 -96.25 L23.4 -104.9 Q20.3 -112.5 18.35 -115.25 13.2 -122.55 11.45 -123.5 L2.35 -124.45 Q2.6 -124.95 -7.15 -124.6 -2.5 -135.8 2.4 -135.8 L12.5 -135.3 12.5 -133.25 12.35 -133.3 Q12.35 -131.45 11.8 -130.25 10.7 -128.05 7.45 -125.75 10.8 -125.9 14.9 -122.0 18.5 -118.6 20.5 -114.45 L23.75 -107.35 Q25.5 -102.5 28.4 -95.55 35.65 -76.65 39.6 -59.6 44.5 -38.4 45.0 -17.8 L48.65 -17.55 56.4 -16.95 62.7 -17.65 Q67.8 -18.85 70.65 -21.7 L54.65 -52.65 68.45 -28.7 71.85 -30.55 76.65 -34.55 77.5 -35.95 78.1 -37.45 Q73.95 -40.6 68.5 -46.25 57.55 -57.6 51.1 -70.6 43.75 -85.35 32.6 -113.25 L31.0 -116.95 Q28.7 -121.1 25.15 -124.45 L27.3 -124.45 35.75 -109.55 44.8 -88.6 Q48.8 -79.3 55.7 -66.65 63.85 -51.65 67.5 -48.65 L76.25 -41.25 Q80.2 -37.7 80.2 -36.7 80.2 -33.8 75.85 -30.6 73.7 -29.05 69.55 -26.95 70.15 -25.7 71.7 -23.35 L72.95 -21.15 Q72.95 -19.4 68.95 -17.5 63.3 -14.85 53.05 -14.85 L47.55 -15.05 Q43.65 -15.6 43.65 -17.4 43.65 -28.8 42.55 -30.05 L41.05 -30.45 Q39.85 -30.5 38.9 -31.35 35.95 -32.55 21.3 -33.2 L4.4 -33.7 Q-10.45 -33.7 -20.25 -32.1 L-40.55 -27.85 -46.55 -26.35 -49.5 -25.6 -49.45 -25.7 Q-38.25 -51.2 -35.5 -59.05 L-15.05 -120.95 M29.95 -109.45 Q32.75 -104.65 40.7 -85.15 L50.5 -60.9 Q42.3 -78.75 36.2 -92.55 31.45 -103.25 31.45 -103.5 L31.65 -104.35 Q31.5 -105.8 30.0 -109.35 L29.95 -109.45" fill="#6b0303" fill-rule="evenodd" stroke="none"/>
    <path d="M12.5 -133.25 L12.5 -126.95 13.0 -126.7 13.0 -124.45 25.15 -124.45 Q28.7 -121.1 31.0 -116.95 L32.6 -113.25 Q39.4 -86.05 52.8 -61.95 66.35 -37.6 76.65 -34.55 L71.85 -30.55 68.45 -28.7 54.65 -52.65 50.5 -60.9 40.7 -85.15 Q32.75 -104.65 29.95 -109.45 L28.25 -113.6 Q27.15 -115.55 25.25 -117.65 22.9 -120.3 21.65 -120.3 L21.0 -120.2 20.95 -120.1 Q20.65 -119.35 20.5 -114.45 18.5 -118.6 14.9 -122.0 10.8 -125.9 7.45 -125.75 10.7 -128.05 11.8 -130.25 12.35 -131.45 12.35 -133.3 L12.5 -133.25 M11.95 -146.15 L6.35 -146.75 -2.55 -145.65 -10.1 -144.2 Q-9.95 -145.2 -7.45 -146.2 -5.35 -147.05 -2.95 -147.45 L5.2 -148.2 13.8 -147.4 Q20.25 -145.9 20.0 -142.0 16.25 -145.05 11.95 -146.15 M-36.05 -32.75 Q-41.25 -30.75 -46.45 -28.45 -43.5 -31.05 -39.0 -41.75 -34.5 -52.5 -32.45 -61.85 -30.9 -57.6 -32.4 -47.55 -33.75 -38.75 -36.05 -32.75" fill="#ad0b0b" fill-rule="evenodd" stroke="none"/>
    <path d="M-12.45 -119.75 L-10.8 -119.0 Q-9.1 -118.25 -8.85 -118.25 -8.1 -122.65 -7.15 -124.6 2.6 -124.95 2.35 -124.45 L11.45 -123.5 Q13.2 -122.55 18.35 -115.25 20.3 -112.5 23.4 -104.9 L26.65 -96.25 Q33.95 -74.4 37.15 -61.75 40.85 -47.35 42.35 -33.4 L42.35 -32.05 42.25 -33.65 31.65 -35.05 2.15 -36.45 Q-17.85 -36.45 -36.05 -32.75 -33.75 -38.75 -32.4 -47.55 -30.9 -57.6 -32.45 -61.85 L-12.45 -119.75" fill="#910909" fill-rule="evenodd" stroke="none"/>
    <path d="M20.5 -114.45 Q20.65 -119.35 20.95 -120.1 L21.0 -120.2 21.65 -120.3 Q22.9 -120.3 25.25 -117.65 27.15 -115.55 28.25 -113.6 L29.95 -109.45 30.0 -109.35 Q31.5 -105.8 31.65 -104.35 L31.45 -103.5 Q31.45 -103.25 36.2 -92.55 42.3 -78.75 50.5 -60.9 L54.65 -52.65 70.65 -21.7 Q67.8 -18.85 62.7 -17.65 L56.4 -16.95 48.65 -17.55 Q44.35 -54.45 38.3 -74.4 34.15 -88.25 28.4 -95.55 25.5 -102.5 23.75 -107.35 L20.5 -114.45 M76.65 -34.55 Q66.35 -37.6 52.8 -61.95 39.4 -86.05 32.6 -113.25 43.75 -85.35 51.1 -70.6 57.55 -57.6 68.5 -46.25 73.95 -40.6 78.1 -37.45 L77.5 -35.95 76.65 -34.55 M40.85 -72.4 L40.6 -72.3 Q40.4 -72.15 40.3 -71.4 L50.65 -28.45 Q50.9 -26.6 52.35 -20.85 L57.9 -21.0 64.35 -21.75 Q64.55 -22.65 54.55 -44.05 44.9 -64.75 40.85 -72.4" fill="#d91515" fill-rule="evenodd" stroke="none"/>
    <path d="M28.4 -95.55 Q34.15 -88.25 38.3 -74.4 44.35 -54.45 48.65 -17.55 L45.0 -17.8 Q44.5 -38.4 39.6 -59.6 35.65 -76.65 28.4 -95.55 M40.85 -72.4 Q44.9 -64.75 54.55 -44.05 64.55 -22.65 64.35 -21.75 L57.9 -21.0 52.35 -20.85 Q50.9 -26.6 50.65 -28.45 L40.3 -71.4 Q40.4 -72.15 40.6 -72.3 L40.85 -72.4" fill="#ff3535" fill-rule="evenodd" stroke="none"/>
    <path d="M-15.05 -120.95 L-19.8 -121.2 Q-21.35 -122.3 -21.35 -126.65 L-20.35 -131.8 Q-19.3 -137.3 -19.2 -138.95 -19.0 -141.6 -17.1 -143.2 -16.3 -143.9 -13.05 -145.5 -9.1 -147.45 4.8 -149.1 L13.65 -148.65 Q17.05 -148.0 19.0 -145.8 20.4 -144.25 25.25 -135.5 27.45 -132.95 27.3 -124.45 L25.15 -124.45 13.0 -124.45 13.0 -126.7 12.5 -126.95 12.5 -133.25 12.5 -135.3 2.4 -135.8 Q-2.5 -135.8 -7.15 -124.6 -8.1 -122.65 -8.85 -118.25 -9.1 -118.25 -10.8 -119.0 L-12.45 -119.75 -15.05 -120.95 M11.95 -146.15 Q16.25 -145.05 20.0 -142.0 20.25 -145.9 13.8 -147.4 L5.2 -148.2 -2.95 -147.45 Q-5.35 -147.05 -7.45 -146.2 -9.95 -145.2 -10.1 -144.2 L-2.55 -145.65 6.35 -146.75 11.95 -146.15 M8.9 -136.5 L15.55 -135.25 18.55 -134.75 19.3 -134.85 19.9 -135.1 20.0 -135.2 20.05 -136.05 Q20.05 -139.6 17.0 -142.45 13.1 -146.1 5.85 -146.1 L-1.75 -145.5 Q-7.55 -143.65 -10.1 -143.1 L-9.4 -122.25 -4.3 -133.9 Q-2.1 -137.45 2.4 -137.45 L8.9 -136.5" fill="#480000" fill-rule="evenodd" stroke="none"/>
    <path d="M8.9 -136.5 L2.4 -137.45 Q-2.1 -137.45 -4.3 -133.9 L-9.4 -122.25 -10.1 -143.1 Q-7.55 -143.65 -1.75 -145.5 L5.85 -146.1 Q13.1 -146.1 17.0 -142.45 20.05 -139.6 20.05 -136.05 L20.0 -135.2 19.9 -135.1 19.3 -134.85 18.55 -134.75 15.55 -135.25 8.9 -136.5" fill="#6b0707" fill-rule="evenodd" stroke="none"/>
  </g>
</svg>
