<?xml version="1.0" encoding="UTF-8" standalone="no"?>
<svg xmlns:ffdec="https://www.free-decompiler.com/flash" xmlns:xlink="http://www.w3.org/1999/xlink" ffdec:objectType="shape" height="32.3px" width="31.35px" xmlns="http://www.w3.org/2000/svg">
  <g transform="matrix(1.0, 0.0, 0.0, 1.0, 15.65, 16.15)">
    <path d="M11.0 -11.85 L6.5 -7.15 5.75 -7.8 10.3 -12.5 11.0 -11.85 M0.05 -16.15 L0.9 -16.1 0.9 -9.55 0.15 -9.6 -0.1 -9.6 -0.1 -16.15 0.05 -16.15 M-9.05 -13.4 L-4.7 -8.3 -5.55 -7.75 -9.85 -12.8 -9.05 -13.4 M15.65 4.4 L15.35 5.35 9.25 2.85 9.5 1.85 15.65 4.4 M15.7 -4.1 L9.3 -2.7 9.0 -3.65 15.45 -5.1 15.7 -4.1 M5.6 7.7 L6.35 7.1 9.8 12.9 9.0 13.45 5.6 7.7 M-0.1 9.4 L0.15 9.4 0.9 9.4 0.9 16.15 0.05 16.15 -0.1 16.15 -0.1 9.4 M-9.2 1.7 L-8.95 2.7 -15.4 4.85 -15.65 3.9 -9.2 1.7 M-5.55 7.5 L-4.75 8.1 -8.2 13.95 -9.0 13.4 -5.55 7.5 M-8.5 -4.1 L-8.9 -3.1 -15.5 -4.5 -15.2 -5.5 -8.5 -4.1" fill="#ff9900" fill-rule="evenodd" stroke="none"/>
  </g>
</svg>
