<?xml version="1.0" encoding="UTF-8" standalone="no"?>
<svg xmlns:ffdec="https://www.free-decompiler.com/flash" xmlns:xlink="http://www.w3.org/1999/xlink" ffdec:objectType="shape" height="9.3px" width="9.8px" xmlns="http://www.w3.org/2000/svg">
  <g transform="matrix(1.0, 0.0, 0.0, 1.0, 0.0, 0.0)">
    <path d="M5.5 0.7 L4.9 0.75 4.3 0.7 4.25 0.7 4.3 0.65 4.9 0.6 5.5 0.65 5.6 0.7 5.5 0.7 M5.35 1.7 L4.95 1.75 4.85 1.75 4.75 1.75 4.6 1.75 4.4 1.7 4.4 1.05 4.9 1.1 5.25 1.1 5.35 1.7 M5.3 9.05 L4.6 9.05 4.6 8.65 4.55 8.2 Q4.55 7.9 4.7 7.8 L5.2 7.85 5.25 8.35 5.3 9.05" fill="#ffcb15" fill-rule="evenodd" stroke="none"/>
    <path d="M5.25 1.1 L5.6 1.0 5.65 1.0 5.65 1.65 5.5 1.7 5.35 1.7 5.25 1.1 M4.4 1.7 L4.3 1.7 4.2 1.65 4.2 1.0 4.4 1.05 4.4 1.7 M5.95 1.8 Q7.1 2.05 7.95 2.9 9.25 4.2 9.25 6.0 9.2 6.4 8.05 6.75 L5.8 7.1 5.75 7.15 5.65 7.1 4.9 7.15 4.2 7.1 4.1 7.15 4.05 7.1 1.75 6.75 Q0.65 6.4 0.6 6.0 0.6 4.2 1.85 2.9 2.75 2.05 3.9 1.8 3.95 1.9 4.25 2.0 L4.2 2.0 4.9 2.1 5.6 2.0 5.95 1.8 M7.1 5.8 Q7.85 5.25 7.85 4.5 7.85 3.75 7.1 3.25 6.35 2.7 5.3 2.7 4.2 2.7 3.45 3.25 2.7 3.75 2.7 4.5 2.7 5.25 3.45 5.8 4.2 6.35 5.3 6.35 6.35 6.35 7.1 5.8 M4.6 9.05 L4.2 9.05 4.2 7.45 4.9 7.45 5.65 7.45 5.65 9.05 5.3 9.05 5.25 8.35 5.2 7.85 4.7 7.8 Q4.55 7.9 4.55 8.2 L4.6 8.65 4.6 9.05" fill="#df8600" fill-rule="evenodd" stroke="none"/>
    <path d="M5.9 3.85 L5.6 3.25 4.9 3.0 Q4.45 3.0 4.15 3.25 3.85 3.5 3.85 3.85 3.85 4.2 4.15 4.4 L4.9 4.65 5.6 4.4 5.9 3.85 M6.85 3.65 L6.6 3.55 6.35 3.65 6.25 3.9 6.35 4.15 6.6 4.25 6.85 4.15 6.95 3.9 6.85 3.65 M7.1 5.8 Q6.35 6.35 5.3 6.35 4.2 6.35 3.45 5.8 2.7 5.25 2.7 4.5 2.7 3.75 3.45 3.25 4.2 2.7 5.3 2.7 6.35 2.7 7.1 3.25 7.85 3.75 7.85 4.5 7.85 5.25 7.1 5.8" fill="#ffdf71" fill-rule="evenodd" stroke="none"/>
    <path d="M6.85 3.65 L6.95 3.9 6.85 4.15 6.6 4.25 6.35 4.15 6.25 3.9 6.35 3.65 6.6 3.55 6.85 3.65 M5.9 3.85 L5.6 4.4 4.9 4.65 4.15 4.4 Q3.85 4.2 3.85 3.85 3.85 3.5 4.15 3.25 4.45 3.0 4.9 3.0 L5.6 3.25 5.9 3.85" fill="#fff1bf" fill-rule="evenodd" stroke="none"/>
    <path d="M5.5 0.7 L5.6 0.7 5.5 0.65 4.9 0.6 4.3 0.65 4.25 0.7 4.3 0.7 4.9 0.75 5.5 0.7 M5.35 1.7 L5.5 1.7 5.65 1.65 5.65 1.0 5.6 1.0 5.25 1.1 4.9 1.1 4.4 1.05 4.2 1.0 4.2 1.65 4.3 1.7 4.4 1.7 4.6 1.75 4.75 1.75 4.85 1.75 4.95 1.75 5.35 1.7 M6.2 0.75 L6.2 1.25 Q7.45 1.55 8.4 2.55 9.8 3.95 9.8 6.0 9.9 6.85 8.25 7.3 L6.2 7.7 6.2 9.05 6.15 9.25 5.95 9.3 3.85 9.3 3.7 9.25 3.6 9.05 3.6 7.7 1.6 7.3 Q-0.05 6.85 0.0 6.0 0.0 3.95 1.45 2.55 2.4 1.55 3.6 1.25 L3.6 0.7 3.7 0.4 Q3.8 0.2 4.15 0.1 L4.15 0.15 4.9 0.0 5.7 0.15 5.65 0.1 Q6.35 0.25 6.2 0.75 M5.95 1.8 L5.6 2.0 4.9 2.1 4.2 2.0 4.25 2.0 Q3.95 1.9 3.9 1.8 2.75 2.05 1.85 2.9 0.6 4.2 0.6 6.0 0.65 6.4 1.75 6.75 L4.05 7.1 4.1 7.15 4.2 7.1 4.9 7.15 5.65 7.1 5.75 7.15 5.8 7.1 8.05 6.75 Q9.2 6.4 9.25 6.0 9.25 4.2 7.95 2.9 7.1 2.05 5.95 1.8 M5.3 9.05 L5.65 9.05 5.65 7.45 4.9 7.45 4.2 7.45 4.2 9.05 4.6 9.05 5.3 9.05" fill="#331f00" fill-rule="evenodd" stroke="none"/>
  </g>
</svg>
