<?xml version="1.0" encoding="UTF-8" standalone="no"?>
<svg xmlns:ffdec="https://www.free-decompiler.com/flash" xmlns:xlink="http://www.w3.org/1999/xlink" ffdec:objectType="shape" height="14.55px" width="21.45px" xmlns="http://www.w3.org/2000/svg">
  <g transform="matrix(1.0, 0.0, 0.0, 1.0, 10.7, 18.6)">
    <path d="M0.0 -18.6 L0.45 -18.6 Q4.55 -18.45 7.55 -15.5 9.4 -13.65 10.15 -11.35 10.7 -9.75 10.7 -7.9 L10.7 -7.6 10.7 -7.3 10.7 -7.1 10.7 -7.05 10.7 -6.95 10.75 -6.7 10.75 -6.65 10.7 -6.4 10.7 -6.35 10.75 -6.1 10.75 -6.05 10.7 -5.8 10.7 -5.75 10.75 -5.5 10.75 -5.45 10.6 -5.05 10.55 -5.0 Q10.35 -4.85 10.15 -4.8 L10.05 -4.8 7.7 -4.8 -7.7 -4.8 -9.95 -4.8 -10.15 -4.8 -10.45 -4.95 -10.6 -5.15 -10.6 -5.45 -10.6 -5.5 -10.65 -5.85 -10.7 -6.7 -10.7 -7.0 -10.7 -7.3 -10.7 -7.6 -10.7 -7.9 Q-10.7 -9.75 -10.15 -11.4 -9.4 -13.65 -7.6 -15.5 -4.4 -18.6 0.0 -18.6 M0.45 -16.4 L0.0 -16.4 Q-4.0 -16.4 -6.9 -13.6 -9.6 -10.8 -9.7 -6.95 L-9.7 -6.7 -9.75 -6.7 -9.75 -5.75 Q0.25 -4.75 9.65 -5.75 L9.65 -6.15 9.7 -6.15 9.7 -6.7 9.7 -6.85 9.7 -7.35 Q9.45 -10.95 6.85 -13.6 4.15 -16.25 0.45 -16.4 M7.05 -10.3 L6.5 -11.25 6.2 -11.6 5.9 -11.95 5.8 -12.1 5.6 -12.3 Q3.4 -14.5 0.45 -14.65 L0.0 -14.65 Q-3.3 -14.65 -5.6 -12.3 -7.75 -10.2 -7.95 -7.3 L7.9 -7.3 7.85 -7.6 7.85 -7.95 7.5 -9.35 7.3 -9.85 7.05 -10.3 M0.45 -17.4 Q4.55 -17.25 7.55 -14.3 9.4 -12.45 10.15 -10.15 L10.15 -10.75 Q9.4 -13.05 7.55 -14.9 4.55 -17.85 0.45 -18.0 L0.0 -18.0 Q-4.4 -18.0 -7.6 -14.9 -9.4 -13.05 -10.15 -10.8 L-10.15 -10.2 Q-9.4 -12.45 -7.6 -14.3 -4.4 -17.4 0.0 -17.4 L0.45 -17.4 M0.0 -15.15 L0.45 -15.15 Q3.6 -15.0 5.95 -12.65 8.25 -10.35 8.4 -7.15 L8.4 -6.95 8.4 -6.7 -8.45 -6.7 -8.45 -6.95 -8.45 -7.15 -8.45 -7.3 Q-8.25 -10.4 -5.95 -12.65 -3.5 -15.15 0.0 -15.15" fill="#333333" fill-rule="evenodd" stroke="none"/>
    <path d="M0.45 -16.4 Q4.15 -16.25 6.85 -13.6 9.45 -10.95 9.7 -7.35 L9.7 -6.85 9.7 -6.7 9.7 -6.15 9.65 -6.15 9.65 -5.75 Q0.25 -4.75 -9.75 -5.75 L-9.75 -6.7 -9.7 -6.7 -9.7 -6.95 Q-9.6 -10.8 -6.9 -13.6 -4.0 -16.4 0.0 -16.4 L0.45 -16.4 M7.05 -10.3 L7.3 -9.85 7.5 -9.35 7.85 -7.95 7.85 -7.6 Q7.7 -9.1 7.05 -10.3 M0.45 -17.4 L0.0 -17.4 Q-4.4 -17.4 -7.6 -14.3 -9.4 -12.45 -10.15 -10.2 L-10.15 -10.8 Q-9.4 -13.05 -7.6 -14.9 -4.4 -18.0 0.0 -18.0 L0.45 -18.0 Q4.55 -17.85 7.55 -14.9 9.4 -13.05 10.15 -10.75 L10.15 -10.15 Q9.4 -12.45 7.55 -14.3 4.55 -17.25 0.45 -17.4 M0.0 -15.15 Q-3.5 -15.15 -5.95 -12.65 -8.25 -10.4 -8.45 -7.3 L-8.45 -7.15 -8.45 -6.95 -8.45 -6.7 8.4 -6.7 8.4 -6.95 8.4 -7.15 Q8.25 -10.35 5.95 -12.65 3.6 -15.0 0.45 -15.15 L0.0 -15.15 M-7.6 -4.3 L-7.7 -4.8 -7.5 -4.05 -7.6 -4.3 M7.7 -4.8 L7.6 -4.35 7.5 -4.05 7.7 -4.8" fill="#999999" fill-rule="evenodd" stroke="none"/>
    <path d="M7.85 -7.6 L7.9 -7.3 -7.95 -7.3 Q-7.75 -10.2 -5.6 -12.3 -3.3 -14.65 0.0 -14.65 L0.45 -14.65 Q3.4 -14.5 5.6 -12.3 L5.8 -12.1 5.9 -11.95 6.2 -11.6 6.5 -11.25 7.05 -10.3 Q7.7 -9.1 7.85 -7.6" fill="#000000" fill-rule="evenodd" stroke="none"/>
  </g>
</svg>
