<?xml version="1.0" encoding="UTF-8" standalone="no"?>
<svg xmlns:ffdec="https://www.free-decompiler.com/flash" xmlns:xlink="http://www.w3.org/1999/xlink" ffdec:objectType="shape" height="66.9px" width="69.1px" xmlns="http://www.w3.org/2000/svg">
  <g transform="matrix(1.0, 0.0, 0.0, 1.0, -2.95, -1.85)">
    <path d="M40.55 1.85 L40.75 1.9 40.85 2.05 41.7 3.85 42.5 3.5 42.6 3.45 42.8 3.55 42.9 3.75 Q47.95 14.7 59.1 29.9 L59.2 30.1 59.15 30.25 59.05 30.35 Q41.9 38.1 24.45 49.15 L24.25 49.2 24.05 49.0 19.05 52.7 16.65 54.45 16.55 54.5 16.5 54.55 16.3 54.65 16.05 54.55 Q1.6 40.3 3.1 27.35 L3.25 27.15 3.35 27.15 3.45 27.0 Q20.7 12.0 40.4 1.85 L40.55 1.85 M42.55 4.2 L42.05 4.45 Q47.1 14.65 56.95 28.0 L57.0 28.2 57.15 28.3 57.2 28.6 57.0 28.85 Q43.6 35.8 30.0 44.95 44.25 36.3 58.4 29.95 47.55 15.1 42.55 4.2 M41.35 4.4 L41.35 4.35 40.5 2.55 Q21.05 12.65 3.85 27.55 L3.7 27.6 Q2.3 40.05 16.25 53.95 L16.25 53.9 18.65 52.05 Q37.6 38.05 56.4 28.3 46.4 14.75 41.35 4.4" fill="#666666" fill-rule="evenodd" stroke="none"/>
    <path d="M41.35 4.4 Q46.4 14.75 56.4 28.3 37.6 38.05 18.65 52.05 L16.25 53.9 16.25 53.95 Q2.3 40.05 3.7 27.6 L3.85 27.55 Q21.05 12.65 40.5 2.55 L41.35 4.35 41.35 4.4 M44.55 13.55 L39.25 5.5 Q3.1 28.0 6.3 31.45 7.15 43.35 16.45 50.85 33.9 37.6 53.4 27.15 L45.15 14.45 45.2 14.45 44.6 13.55 44.55 13.55" fill="#d6d6d6" fill-rule="evenodd" stroke="none"/>
    <path d="M42.55 4.2 Q47.55 15.1 58.4 29.95 44.25 36.3 30.0 44.95 43.6 35.8 57.0 28.85 L57.2 28.6 57.15 28.3 57.0 28.2 56.95 28.0 Q47.1 14.65 42.05 4.45 L42.55 4.2" fill="#cccccc" fill-rule="evenodd" stroke="none"/>
    <path d="M44.55 13.55 L42.1 15.2 39.25 11.1 41.3 9.7 40.4 8.4 38.35 9.8 36.65 7.3 35.8 7.85 38.7 12.05 38.5 12.2 Q38.05 12.45 38.0 13.0 37.95 13.65 38.35 14.2 38.7 14.75 39.3 14.9 L40.3 14.8 40.45 14.6 49.95 28.4 50.75 27.85 50.25 27.15 51.95 25.9 51.45 25.2 49.7 26.35 48.15 24.1 49.9 22.9 49.4 22.15 47.65 23.35 46.75 22.05 48.5 20.85 47.95 20.05 46.25 21.3 45.45 20.15 47.6 18.65 46.85 17.5 44.65 19.0 44.15 18.25 46.5 16.65 45.85 15.7 43.5 17.3 42.75 16.2 45.15 14.45 53.4 27.15 Q33.9 37.6 16.45 50.85 7.15 43.35 6.3 31.45 3.1 28.0 39.25 5.5 L44.55 13.55 M42.7 11.5 L41.9 10.35 40.2 11.55 41.0 12.7 42.7 11.5 M43.5 12.35 L43.35 12.1 41.2 13.6 41.35 13.8 43.5 12.35 M25.7 31.45 L25.8 31.95 26.25 32.25 26.8 32.1 27.1 31.65 Q27.25 31.35 27.05 31.1 L26.6 30.85 26.05 30.95 25.7 31.45 M23.8 26.65 L23.5 27.2 Q23.45 27.55 23.7 27.85 L24.2 28.25 24.85 28.15 25.1 27.7 25.0 26.95 Q24.75 26.65 24.4 26.65 24.05 26.5 23.8 26.65 M26.55 28.4 Q26.4 28.85 26.65 29.15 26.85 29.5 27.3 29.5 L28.15 29.25 28.65 28.6 28.5 27.9 Q28.25 27.55 27.9 27.55 L27.1 27.75 26.55 28.4 M25.9 29.65 L26.3 29.2 26.3 28.65 Q26.2 28.5 25.9 28.5 L25.25 28.7 24.8 29.3 24.8 29.75 Q24.95 29.95 25.2 29.95 L25.9 29.65 M25.35 26.25 Q25.6 26.7 26.05 26.7 L26.8 26.6 27.15 26.0 26.9 25.2 Q26.7 24.85 26.3 24.8 L25.55 24.9 25.2 25.5 Q25.1 25.95 25.35 26.25 M35.95 30.7 L35.5 30.3 34.9 30.4 Q34.6 30.6 34.55 30.95 L34.7 31.55 35.25 31.9 35.8 31.75 36.1 31.25 35.95 30.7 M38.85 27.55 Q38.65 27.55 38.5 27.7 L38.2 28.0 38.3 28.4 38.6 28.55 39.0 28.45 39.25 28.1 39.25 27.8 38.85 27.55 M40.0 26.0 L39.75 25.25 Q39.55 24.95 39.2 24.8 L38.6 24.85 Q38.25 25.05 38.3 25.4 L38.5 26.1 39.1 26.6 39.75 26.55 40.0 26.0 M18.75 42.35 L18.25 42.4 Q18.05 42.6 18.0 42.85 L18.2 43.55 18.75 43.95 19.3 43.9 19.5 43.45 19.3 42.8 18.75 42.35 M19.75 40.5 Q19.45 40.45 19.25 40.65 L18.8 41.05 18.9 41.4 Q18.9 41.6 19.2 41.55 L19.75 41.35 20.1 41.0 20.1 40.65 Q20.0 40.5 19.75 40.5 M16.55 42.05 L15.9 41.6 15.2 41.7 Q14.9 41.9 14.9 42.25 14.9 42.7 15.15 43.0 L15.75 43.5 16.4 43.45 16.75 42.8 16.55 42.05 M16.15 39.15 L16.35 39.85 16.9 40.25 17.5 40.1 17.8 39.7 Q17.85 39.3 17.55 39.0 L17.1 38.6 16.5 38.65 Q16.15 38.85 16.15 39.15 M19.55 36.65 L18.75 36.75 Q18.35 37.0 18.3 37.5 L18.6 38.45 19.3 39.0 20.15 38.85 20.55 38.2 Q20.6 37.65 20.3 37.25 L19.55 36.65 M14.95 29.15 L14.8 28.6 14.3 28.2 13.8 28.3 Q13.6 28.45 13.55 28.75 L13.7 29.35 14.2 29.65 14.7 29.6 14.95 29.15 M12.25 30.2 L11.95 30.7 12.1 31.25 12.55 31.6 13.1 31.5 13.5 31.0 13.35 30.45 Q13.15 30.15 12.8 30.1 L12.25 30.2 M10.7 30.6 L10.3 30.65 Q10.1 30.8 10.05 31.05 L10.15 31.45 10.55 31.75 10.9 31.65 11.2 31.25 11.15 30.8 10.7 30.6 M11.3 27.2 Q11.05 27.4 11.1 27.8 L11.45 28.7 12.1 29.25 Q12.5 29.45 12.75 29.25 13.05 29.05 13.0 28.65 L12.65 27.85 12.0 27.15 11.3 27.2 M33.2 18.4 L32.95 18.2 Q32.7 18.05 32.5 18.2 L32.4 18.6 32.45 18.9 32.8 19.2 33.15 19.1 33.35 18.8 33.2 18.4 M34.0 14.75 L34.35 15.0 34.8 14.95 35.0 14.55 34.9 14.05 34.5 13.8 34.05 13.85 33.85 14.25 34.0 14.75 M36.85 17.4 Q36.85 17.95 37.2 18.45 L38.05 19.15 Q38.5 19.35 38.9 19.15 39.25 18.85 39.25 18.3 L38.9 17.3 38.0 16.55 37.2 16.65 Q36.8 16.9 36.85 17.4 M36.85 14.4 L37.25 14.35 37.4 14.05 37.3 13.6 36.85 13.25 36.5 13.25 36.3 13.65 36.45 14.1 36.85 14.4 M22.3 21.85 L22.4 22.2 22.7 22.5 23.1 22.5 23.25 22.1 23.15 21.7 22.85 21.45 22.45 21.5 Q22.3 21.6 22.3 21.85 M24.95 19.4 L25.15 19.9 25.55 20.25 26.1 20.15 26.35 19.7 26.25 19.2 25.8 18.9 Q25.5 18.8 25.35 19.0 L24.95 19.4 M41.0 29.0 L41.3 28.55 41.2 28.0 40.8 27.7 Q40.5 27.65 40.25 27.85 39.95 28.05 39.95 28.4 39.85 28.65 40.0 28.9 L40.45 29.15 41.0 29.0 M41.85 27.45 L42.7 27.3 43.1 26.6 42.8 25.55 Q42.45 25.1 41.95 25.0 41.5 24.75 41.15 25.0 40.8 25.3 40.7 25.8 L41.05 26.75 41.85 27.45" fill="#ffffff" fill-rule="evenodd" stroke="none"/>
    <path d="M43.5 12.35 L41.35 13.8 41.2 13.6 43.35 12.1 43.5 12.35 M42.7 11.5 L41.0 12.7 40.2 11.55 41.9 10.35 42.7 11.5 M45.15 14.45 L42.75 16.2 43.5 17.3 45.85 15.7 46.5 16.65 44.15 18.25 44.65 19.0 46.85 17.5 47.6 18.65 45.45 20.15 46.25 21.3 47.95 20.05 48.5 20.85 46.75 22.05 47.65 23.35 49.4 22.15 49.9 22.9 48.15 24.1 49.7 26.35 51.45 25.2 51.95 25.9 50.25 27.15 50.75 27.85 49.95 28.4 40.45 14.6 40.3 14.8 39.3 14.9 Q38.7 14.75 38.35 14.2 37.95 13.65 38.0 13.0 38.05 12.45 38.5 12.2 L38.7 12.05 35.8 7.85 36.65 7.3 38.35 9.8 40.4 8.4 41.3 9.7 39.25 11.1 42.1 15.2 44.55 13.55 44.6 13.55 45.2 14.45 45.15 14.45 M41.85 27.45 L41.05 26.75 40.7 25.8 Q40.8 25.3 41.15 25.0 41.5 24.75 41.95 25.0 42.45 25.1 42.8 25.55 L43.1 26.6 42.7 27.3 41.85 27.45 M41.0 29.0 L40.45 29.15 40.0 28.9 Q39.85 28.65 39.95 28.4 39.95 28.05 40.25 27.85 40.5 27.65 40.8 27.7 L41.2 28.0 41.3 28.55 41.0 29.0 M24.95 19.4 L25.35 19.0 Q25.5 18.8 25.8 18.9 L26.25 19.2 26.35 19.7 26.1 20.15 25.55 20.25 25.15 19.9 24.95 19.4 M22.3 21.85 Q22.3 21.6 22.45 21.5 L22.85 21.45 23.15 21.7 23.25 22.1 23.1 22.5 22.7 22.5 22.4 22.2 22.3 21.85 M36.85 14.4 L36.45 14.1 36.3 13.65 36.5 13.25 36.85 13.25 37.3 13.6 37.4 14.05 37.25 14.35 36.85 14.4 M36.85 17.4 Q36.8 16.9 37.2 16.65 L38.0 16.55 38.9 17.3 39.25 18.3 Q39.25 18.85 38.9 19.15 38.5 19.35 38.05 19.15 L37.2 18.45 Q36.85 17.95 36.85 17.4 M34.0 14.75 L33.85 14.25 34.05 13.85 34.5 13.8 34.9 14.05 35.0 14.55 34.8 14.95 34.35 15.0 34.0 14.75 M33.2 18.4 L33.35 18.8 33.15 19.1 32.8 19.2 32.45 18.9 32.4 18.6 32.5 18.2 Q32.7 18.05 32.95 18.2 L33.2 18.4 M11.3 27.2 L12.0 27.15 12.65 27.85 13.0 28.65 Q13.05 29.05 12.75 29.25 12.5 29.45 12.1 29.25 L11.45 28.7 11.1 27.8 Q11.05 27.4 11.3 27.2 M10.7 30.6 L11.15 30.8 11.2 31.25 10.9 31.65 10.55 31.75 10.15 31.45 10.05 31.05 Q10.1 30.8 10.3 30.65 L10.7 30.6 M12.25 30.2 L12.8 30.1 Q13.15 30.15 13.35 30.45 L13.5 31.0 13.1 31.5 12.55 31.6 12.1 31.25 11.95 30.7 12.25 30.2 M14.95 29.15 L14.7 29.6 14.2 29.65 13.7 29.35 13.55 28.75 Q13.6 28.45 13.8 28.3 L14.3 28.2 14.8 28.6 14.95 29.15 M19.55 36.65 L20.3 37.25 Q20.6 37.65 20.55 38.2 L20.15 38.85 19.3 39.0 18.6 38.45 18.3 37.5 Q18.35 37.0 18.75 36.75 L19.55 36.65 M16.15 39.15 Q16.15 38.85 16.5 38.65 L17.1 38.6 17.55 39.0 Q17.85 39.3 17.8 39.7 L17.5 40.1 16.9 40.25 16.35 39.85 16.15 39.15 M16.55 42.05 L16.75 42.8 16.4 43.45 15.75 43.5 15.15 43.0 Q14.9 42.7 14.9 42.25 14.9 41.9 15.2 41.7 L15.9 41.6 16.55 42.05 M19.75 40.5 Q20.0 40.5 20.1 40.65 L20.1 41.0 19.75 41.35 19.2 41.55 Q18.9 41.6 18.9 41.4 L18.8 41.05 19.25 40.65 Q19.45 40.45 19.75 40.5 M18.75 42.35 L19.3 42.8 19.5 43.45 19.3 43.9 18.75 43.95 18.2 43.55 18.0 42.85 Q18.05 42.6 18.25 42.4 L18.75 42.35 M40.0 26.0 L39.75 26.55 39.1 26.6 38.5 26.1 38.3 25.4 Q38.25 25.05 38.6 24.85 L39.2 24.8 Q39.55 24.95 39.75 25.25 L40.0 26.0 M38.85 27.55 L39.25 27.8 39.25 28.1 39.0 28.45 38.6 28.55 38.3 28.4 38.2 28.0 38.5 27.7 Q38.65 27.55 38.85 27.55 M35.95 30.7 L36.1 31.25 35.8 31.75 35.25 31.9 34.7 31.55 34.55 30.95 Q34.6 30.6 34.9 30.4 L35.5 30.3 35.95 30.7 M25.35 26.25 Q25.1 25.95 25.2 25.5 L25.55 24.9 26.3 24.8 Q26.7 24.85 26.9 25.2 L27.15 26.0 26.8 26.6 26.05 26.7 Q25.6 26.7 25.35 26.25 M25.9 29.65 L25.2 29.95 Q24.95 29.95 24.8 29.75 L24.8 29.3 25.25 28.7 25.9 28.5 Q26.2 28.5 26.3 28.65 L26.3 29.2 25.9 29.65 M26.55 28.4 L27.1 27.75 27.9 27.55 Q28.25 27.55 28.5 27.9 L28.65 28.6 28.15 29.25 27.3 29.5 Q26.85 29.5 26.65 29.15 26.4 28.85 26.55 28.4 M23.8 26.65 Q24.05 26.5 24.4 26.65 24.75 26.65 25.0 26.95 L25.1 27.7 24.85 28.15 24.2 28.25 23.7 27.85 Q23.45 27.55 23.5 27.2 L23.8 26.65 M25.7 31.45 L26.05 30.95 26.6 30.85 27.05 31.1 Q27.25 31.35 27.1 31.65 L26.8 32.1 26.25 32.25 25.8 31.95 25.7 31.45" fill="#f3f3f3" fill-rule="evenodd" stroke="none"/>
    <path d="M67.45 42.0 Q72.05 46.6 72.05 53.1 72.05 59.6 67.45 64.15 62.9 68.75 56.4 68.75 49.9 68.75 45.3 64.15 40.75 59.6 40.75 53.1 40.75 46.6 45.3 42.0 49.9 37.45 56.4 37.45 62.9 37.45 67.45 42.0" fill="#ffff99" fill-rule="evenodd" stroke="none"/>
    <path d="M66.7 44.2 L66.7 49.25 59.8 49.25 59.8 51.45 62.55 51.45 Q64.85 51.45 66.45 53.1 68.1 54.7 68.1 57.0 68.1 59.3 66.45 60.9 64.85 62.5 62.55 62.5 L53.45 62.5 53.45 57.45 61.1 57.45 Q62.0 57.45 62.0 56.55 62.0 55.65 61.1 55.65 L57.45 55.65 54.25 55.65 54.25 44.2 66.7 44.2 M46.5 58.5 L43.3 58.5 45.95 54.5 43.3 50.5 46.5 50.5 47.55 52.1 48.65 50.5 51.8 50.5 49.15 54.5 51.8 58.5 48.65 58.5 47.55 56.9 46.5 58.5" fill="#000000" fill-rule="evenodd" stroke="none"/>
  </g>
</svg>
