<?xml version="1.0" encoding="UTF-8" standalone="no"?>
<svg xmlns:ffdec="https://www.free-decompiler.com/flash" xmlns:xlink="http://www.w3.org/1999/xlink" ffdec:objectType="shape" height="30.8px" width="41.2px" xmlns="http://www.w3.org/2000/svg">
  <g transform="matrix(1.0, 0.0, 0.0, 1.0, 4.4, 10.65)">
    <path d="M3.9 7.1 Q14.65 7.95 22.25 4.25 29.4 0.8 34.25 -6.9 L34.75 -0.7 Q31.4 3.6 27.9 5.9 21.4 10.15 9.5 10.15 7.95 10.15 6.2 9.45 3.95 8.55 3.4 7.05 L3.9 7.1" fill="#e5e5e5" fill-rule="evenodd" stroke="none"/>
    <path d="M34.6 7.1 L34.55 7.3 Q33.95 9.5 32.8 10.85 31.7 12.1 28.85 13.95 29.6 10.9 29.55 8.8 29.9 8.1 34.6 7.1" fill="#b45f50" fill-rule="evenodd" stroke="none"/>
    <path d="M34.8 1.15 L34.8 1.1 34.7 5.65 Q29.6 6.55 28.3 9.45 27.85 10.5 27.85 14.6 L27.9 14.75 Q26.25 15.75 22.05 16.95 17.55 18.25 15.05 18.25 9.1 18.25 4.85 15.5 0.0 12.35 -1.95 5.95 L0.85 6.55 Q4.1 9.7 6.95 10.7 8.65 11.3 11.4 11.3 27.1 11.3 34.8 1.15" fill="#2c1514" fill-rule="evenodd" stroke="none"/>
    <path d="M3.9 7.1 L3.4 7.05 Q3.95 8.55 6.2 9.45 7.95 10.15 9.5 10.15 21.4 10.15 27.9 5.9 31.4 3.6 34.75 -0.7 L34.8 1.15 Q27.1 11.3 11.4 11.3 8.65 11.3 6.95 10.7 4.1 9.7 0.85 6.55 L3.9 7.1" fill="#868686" fill-rule="evenodd" stroke="none"/>
    <path d="M34.7 5.65 L34.6 7.1 Q29.9 8.1 29.55 8.8 29.6 10.9 28.85 13.95 L27.85 14.6 Q27.85 10.5 28.3 9.45 29.6 6.55 34.7 5.65" fill="#7c362c" fill-rule="evenodd" stroke="none"/>
    <path d="M34.75 -0.7 L34.25 -6.9 Q29.4 0.8 22.25 4.25 14.65 7.95 3.9 7.1 L0.85 6.55 -1.95 5.95 Q0.0 12.35 4.85 15.5 9.1 18.25 15.05 18.25 17.55 18.25 22.05 16.95 26.25 15.75 27.9 14.75 L27.85 14.6 28.85 13.95 Q31.7 12.1 32.8 10.85 33.95 9.5 34.55 7.3 L34.6 7.1 34.7 5.65 34.8 1.1 34.8 1.15 34.75 -0.7 M34.7 -10.65 Q35.45 -8.95 36.1 -5.4 36.8 -1.5 36.8 1.8 36.8 9.0 35.5 11.1 L29.75 16.05 Q27.05 18.25 23.0 19.3 L16.25 20.15 Q8.25 20.15 3.35 16.1 -1.25 12.35 -4.4 3.8 -0.4 5.25 6.85 5.4 16.65 5.4 22.8 1.55 28.0 -1.75 34.0 -10.35 L34.7 -10.65" fill="#4b3121" fill-rule="evenodd" stroke="none"/>
  </g>
</svg>
