<?xml version="1.0" encoding="UTF-8" standalone="no"?>
<svg xmlns:ffdec="https://www.free-decompiler.com/flash" xmlns:xlink="http://www.w3.org/1999/xlink" ffdec:objectType="shape" height="55.1px" width="46.65px" xmlns="http://www.w3.org/2000/svg">
  <g transform="matrix(1.0, 0.0, 0.0, 1.0, 23.25, 33.0)">
    <path d="M-21.4 -5.55 Q-21.75 -7.55 -21.75 -9.65 -21.75 -18.7 -15.35 -25.1 -8.95 -31.5 0.1 -31.5 9.1 -31.5 15.5 -25.1 21.9 -18.7 21.9 -9.65 L21.6 -5.85 21.6 -6.05 Q21.15 -2.8 18.6 1.4 17.25 3.6 15.3 5.55 9.0 11.85 0.1 11.85 -8.8 11.85 -15.1 5.55 -17.05 3.6 -18.4 1.4 -20.95 -2.8 -21.4 -5.9 L-21.4 -5.55 M18.55 -7.75 L18.6 -9.65 Q18.6 -17.3 13.2 -22.75 L12.15 -23.7 Q7.05 -28.15 0.1 -28.15 -6.5 -28.15 -11.5 -24.1 L-13.0 -22.75 Q-18.4 -17.3 -18.4 -9.65 L-18.3 -7.75 Q-17.75 -1.3 -13.0 3.45 -7.55 8.85 0.1 8.85 7.75 8.85 13.2 3.45 17.95 -1.3 18.55 -7.75" fill="#4ee7ad" fill-rule="evenodd" stroke="none"/>
    <path d="M21.6 -5.85 L21.9 -9.65 Q21.9 -18.7 15.5 -25.1 9.1 -31.5 0.1 -31.5 -8.95 -31.5 -15.35 -25.1 -21.75 -18.7 -21.75 -9.65 -21.75 -7.55 -21.4 -5.55 -21.3 0.4 -18.15 5.3 L-17.4 6.35 -17.65 6.05 -18.0 6.05 -17.1 9.1 Q-15.75 12.4 -13.0 15.2 L-10.2 17.55 Q-7.6 19.3 -4.55 20.05 L0.1 20.6 4.75 20.05 Q7.65 19.35 10.15 17.7 11.75 16.65 13.2 15.2 15.95 12.4 17.3 9.1 L18.25 6.05 17.85 6.05 17.3 6.8 18.35 5.3 Q21.55 0.35 21.6 -5.85 M16.55 -26.15 Q23.4 -19.3 23.4 -9.65 L23.1 -5.75 Q23.0 0.8 19.65 6.05 L19.8 6.05 Q18.65 11.8 14.3 16.25 L14.25 16.25 Q10.25 20.25 5.15 21.5 L0.1 22.1 -4.9 21.5 Q-10.05 20.25 -14.05 16.25 -18.45 11.8 -19.5 6.05 L-19.4 6.05 Q-22.75 0.85 -22.9 -5.4 -23.25 -7.5 -23.25 -9.65 -23.25 -19.3 -16.4 -26.15 -9.55 -33.0 0.1 -33.0 9.7 -33.0 16.55 -26.15" fill="#000000" fill-rule="evenodd" stroke="none"/>
    <path d="M13.25 -18.95 Q12.1 -22.7 12.1 -23.4 L12.15 -23.7 13.2 -22.75 Q18.6 -17.3 18.6 -9.65 L18.55 -7.75 Q17.95 -14.25 13.25 -18.95 M-11.5 -24.1 L-12.5 -20.4 -12.85 -19.1 -13.0 -19.0 Q-17.75 -14.25 -18.3 -7.75 L-18.4 -9.65 Q-18.4 -17.3 -13.0 -22.75 L-11.5 -24.1" fill="#0f8055" fill-rule="evenodd" stroke="none"/>
    <path d="M-21.4 -5.55 L-21.4 -5.9 Q-20.95 -2.8 -18.4 1.4 -17.05 3.6 -15.1 5.55 -8.8 11.85 0.1 11.85 9.0 11.85 15.3 5.55 17.25 3.6 18.6 1.4 21.15 -2.8 21.6 -6.05 L21.6 -5.85 Q21.55 0.35 18.35 5.3 L17.3 6.8 15.4 8.95 15.3 9.05 Q13.25 11.1 10.9 12.5 L8.25 13.85 Q4.5 15.35 0.1 15.35 -5.95 15.35 -10.75 12.45 -13.05 11.1 -15.1 9.05 L-15.3 8.85 -15.7 8.4 -17.4 6.35 -18.15 5.3 Q-21.3 0.4 -21.4 -5.55 M12.15 -23.7 L12.1 -23.4 Q12.1 -22.7 13.25 -18.95 L13.2 -19.0 Q7.75 -24.4 0.1 -24.4 -7.45 -24.4 -12.85 -19.1 L-12.5 -20.4 -11.5 -24.1 Q-6.5 -28.15 0.1 -28.15 7.05 -28.15 12.15 -23.7" fill="#159f6b" fill-rule="evenodd" stroke="none"/>
    <path d="M13.25 -18.95 Q17.95 -14.25 18.55 -7.75 17.95 -1.3 13.2 3.45 7.75 8.85 0.1 8.85 -7.55 8.85 -13.0 3.45 -17.75 -1.3 -18.3 -7.75 -17.75 -14.25 -13.0 -19.0 L-12.85 -19.1 Q-7.45 -24.4 0.1 -24.4 7.75 -24.4 13.2 -19.0 L13.25 -18.95 M12.75 -18.0 Q8.2 -22.65 1.7 -22.65 -7.55 -22.65 -12.45 -16.4 -15.9 -12.0 -15.9 -7.5 -15.9 -4.1 -14.3 -0.85 -12.1 3.55 -7.85 4.65 L-7.85 4.3 -7.65 2.25 -7.3 1.6 -7.1 1.65 Q-6.45 2.15 -5.45 4.8 -3.65 7.25 1.15 7.25 7.2 7.25 12.1 2.0 16.85 -3.1 16.85 -9.1 16.85 -13.8 12.75 -18.0 M0.7 -3.9 Q1.15 -2.55 2.05 -2.55 6.0 -2.55 7.8 -4.35 9.5 -6.05 10.3 -10.4 L10.55 -9.55 Q9.85 -6.05 9.2 -4.8 7.35 -1.15 3.35 -1.15 -1.15 -1.15 -1.15 -5.75 -1.15 -7.45 -0.75 -7.55 L0.7 -3.9" fill="#bd7408" fill-rule="evenodd" stroke="none"/>
    <path d="M9.35 -14.25 Q6.45 -18.0 1.55 -18.0 -5.0 -18.0 -8.25 -12.85 -10.5 -9.2 -10.5 -5.0 L-10.15 -3.5 -8.9 -0.15 -9.45 0.2 Q-10.6 -0.75 -11.6 -3.9 -12.5 -6.75 -12.5 -8.4 -12.5 -14.3 -8.3 -17.65 -4.5 -20.65 1.0 -20.5 6.45 -20.35 10.25 -17.2 14.45 -13.75 14.45 -8.15 14.45 -4.45 12.0 -0.85 8.65 4.2 2.45 4.2 -3.15 4.2 -5.55 1.4 -7.6 -1.0 -7.6 -6.1 -7.6 -10.1 -5.2 -12.6 -2.65 -15.2 1.55 -15.2 4.1 -15.2 5.9 -13.9 7.7 -12.6 7.7 -10.85 7.7 -6.7 4.6 -6.7 L1.65 -7.0 1.3 -7.55 1.2 -8.3 Q1.2 -8.9 1.45 -9.05 L1.7 -9.15 4.25 -9.2 Q4.9 -12.2 1.75 -12.2 -0.25 -12.2 -1.75 -10.55 -3.45 -8.6 -3.45 -5.2 -3.45 -2.65 -2.7 -1.4 -1.5 0.55 1.9 0.55 4.95 0.55 8.05 -1.45 11.75 -3.85 11.75 -7.6 11.75 -11.15 9.35 -14.25" fill="#ffb94f" fill-rule="evenodd" stroke="none"/>
    <path d="M9.35 -14.25 Q11.75 -11.15 11.75 -7.6 11.75 -3.85 8.05 -1.45 4.95 0.55 1.9 0.55 -1.5 0.55 -2.7 -1.4 -3.45 -2.65 -3.45 -5.2 -3.45 -8.6 -1.75 -10.55 -0.25 -12.2 1.75 -12.2 4.9 -12.2 4.25 -9.2 L1.7 -9.15 1.45 -9.05 Q1.2 -8.9 1.2 -8.3 L1.3 -7.55 1.65 -7.0 4.6 -6.7 Q7.7 -6.7 7.7 -10.85 7.7 -12.6 5.9 -13.9 4.1 -15.2 1.55 -15.2 -2.65 -15.2 -5.2 -12.6 -7.6 -10.1 -7.6 -6.1 -7.6 -1.0 -5.55 1.4 -3.15 4.2 2.45 4.2 8.65 4.2 12.0 -0.85 14.45 -4.45 14.45 -8.15 14.45 -13.75 10.25 -17.2 6.45 -20.35 1.0 -20.5 -4.5 -20.65 -8.3 -17.65 -12.5 -14.3 -12.5 -8.4 -12.5 -6.75 -11.6 -3.9 -10.6 -0.75 -9.45 0.2 L-8.9 -0.15 -10.15 -3.5 -10.5 -5.0 Q-10.5 -9.2 -8.25 -12.85 -5.0 -18.0 1.55 -18.0 6.45 -18.0 9.35 -14.25 M0.7 -3.9 L-0.75 -7.55 Q-1.15 -7.45 -1.15 -5.75 -1.15 -1.15 3.35 -1.15 7.35 -1.15 9.2 -4.8 9.85 -6.05 10.55 -9.55 L10.3 -10.4 Q9.5 -6.05 7.8 -4.35 6.0 -2.55 2.05 -2.55 1.15 -2.55 0.7 -3.9 M12.75 -18.0 Q16.85 -13.8 16.85 -9.1 16.85 -3.1 12.1 2.0 7.2 7.25 1.15 7.25 -3.65 7.25 -5.45 4.8 -6.45 2.15 -7.1 1.65 L-7.3 1.6 -7.65 2.25 -7.85 4.3 -7.85 4.65 Q-12.1 3.55 -14.3 -0.85 -15.9 -4.1 -15.9 -7.5 -15.9 -12.0 -12.45 -16.4 -7.55 -22.65 1.7 -22.65 8.2 -22.65 12.75 -18.0" fill="#de972e" fill-rule="evenodd" stroke="none"/>
    <path d="M17.3 6.8 L17.85 6.05 18.25 6.05 17.3 9.1 Q15.95 12.4 13.2 15.2 11.75 16.65 10.15 17.7 L10.15 17.6 10.5 15.15 9.35 15.6 Q4.95 17.15 -2.15 17.15 -5.15 17.15 -10.5 14.6 L-10.5 14.5 -10.25 17.25 -10.2 17.55 -13.0 15.2 Q-15.75 12.4 -17.1 9.1 L-18.0 6.05 -17.65 6.05 -17.4 6.35 -15.7 8.4 -15.3 8.85 -15.1 9.05 Q-13.05 11.1 -10.75 12.45 -5.95 15.35 0.1 15.35 4.5 15.35 8.25 13.85 L10.9 12.5 Q13.25 11.1 15.3 9.05 L15.4 8.95 17.3 6.8" fill="#07462e" fill-rule="evenodd" stroke="none"/>
    <path d="M10.15 17.7 Q7.65 19.35 4.75 20.05 L0.1 20.6 -4.55 20.05 Q-7.6 19.3 -10.2 17.55 L-10.25 17.25 -10.5 14.5 -10.5 14.6 Q-5.15 17.15 -2.15 17.15 4.95 17.15 9.35 15.6 L10.5 15.15 10.15 17.6 10.15 17.7" fill="#09583b" fill-rule="evenodd" stroke="none"/>
    <path d="M-2.7 -31.35 L0.1 -31.5 2.85 -31.35 2.85 -27.95 0.1 -28.15 -2.7 -27.95 -2.7 -31.35 M8.5 -29.9 Q11.0 -28.85 13.25 -27.05 L11.6 -24.15 Q9.35 -25.95 6.8 -26.95 L8.5 -29.9 M17.35 -23.05 Q19.1 -20.85 20.2 -18.3 L17.3 -16.6 Q16.3 -19.15 14.45 -21.35 L17.35 -23.05 M21.7 -12.8 L21.9 -9.65 21.8 -7.25 18.5 -7.25 18.55 -7.75 18.6 -9.65 18.35 -12.8 21.7 -12.8 M20.15 -1.45 L18.6 1.4 17.3 3.3 14.7 1.8 Q16.5 -0.45 17.5 -3.0 18.85 -2.2 20.15 -1.45 M13.25 7.4 L8.5 10.25 7.0 7.6 Q9.55 6.6 11.75 4.8 L13.25 7.4 M2.85 11.7 L0.1 11.85 -2.7 11.7 -2.7 8.65 0.1 8.85 2.85 8.7 2.85 11.7 M-8.25 10.25 Q-10.8 9.15 -13.05 7.4 L-11.5 4.8 Q-9.3 6.6 -6.75 7.6 L-8.25 10.25 M-17.1 3.25 L-18.4 1.4 -20.0 -1.5 -17.25 -3.1 Q-16.3 -0.5 -14.5 1.75 L-17.1 3.25 M-21.55 -6.7 L-21.75 -9.65 -21.55 -12.8 -18.15 -12.8 -18.4 -9.65 -18.3 -7.75 -18.25 -7.25 -21.6 -7.25 -21.55 -6.7 M-20.05 -18.25 Q-19.0 -20.8 -17.2 -23.0 L-14.25 -21.35 Q-16.1 -19.15 -17.1 -16.55 L-20.05 -18.25 M-13.05 -27.1 Q-10.8 -28.85 -8.25 -29.9 L-6.55 -26.95 Q-9.1 -26.0 -11.35 -24.2 L-13.05 -27.1" fill="#ffffff" fill-rule="evenodd" stroke="none"/>
    <path d="M2.85 -31.35 Q5.8 -31.0 8.5 -29.9 L6.8 -26.95 4.5 -27.65 4.1 -27.75 2.85 -27.95 2.85 -31.35 M13.25 -27.05 L15.25 -25.35 15.5 -25.1 15.6 -25.0 15.7 -24.9 16.6 -23.95 17.35 -23.05 14.45 -21.35 13.2 -22.75 12.15 -23.7 11.6 -24.15 13.25 -27.05 M20.2 -18.3 Q21.25 -15.85 21.65 -13.1 L21.7 -12.8 18.35 -12.8 Q18.05 -14.8 17.3 -16.6 L20.2 -18.3 M21.8 -7.25 L21.75 -6.7 21.6 -5.85 21.6 -6.05 Q21.3 -3.95 20.15 -1.45 18.85 -2.2 17.5 -3.0 18.25 -5.05 18.5 -7.25 L21.8 -7.25 M17.3 3.3 L15.3 5.55 13.25 7.4 11.75 4.8 12.8 3.85 13.05 3.65 13.2 3.45 14.7 1.8 17.3 3.3 M8.5 10.25 Q5.8 11.35 2.85 11.7 L2.85 8.7 3.25 8.65 5.75 8.05 7.0 7.6 8.5 10.25 M-2.7 11.7 L-2.85 11.65 -8.25 10.25 -6.75 7.6 Q-4.8 8.35 -2.7 8.65 L-2.7 11.7 M-13.05 7.4 L-13.8 6.75 -15.1 5.55 -15.3 5.35 -16.25 4.3 -17.1 3.25 -14.5 1.75 -13.0 3.45 -11.5 4.8 -13.05 7.4 M-20.0 -1.5 Q-21.1 -3.95 -21.4 -5.9 L-21.4 -5.55 -21.45 -5.75 -21.55 -6.7 -21.6 -7.25 -18.25 -7.25 Q-18.0 -5.1 -17.25 -3.1 L-20.0 -1.5 M-21.55 -12.8 L-21.5 -12.9 -21.3 -14.1 -20.25 -17.75 -20.05 -18.25 -17.1 -16.55 -17.25 -16.2 -17.3 -16.05 Q-17.9 -14.5 -18.15 -12.8 L-21.55 -12.8 M-17.2 -23.0 L-15.35 -25.1 -13.05 -27.1 -11.35 -24.2 -11.5 -24.1 -13.0 -22.75 -14.25 -21.35 -17.2 -23.0 M-8.25 -29.9 Q-5.65 -31.0 -2.7 -31.35 L-2.7 -27.95 Q-4.7 -27.65 -6.55 -26.95 L-8.25 -29.9" fill="#4ee7ad" fill-rule="evenodd" stroke="none"/>
  </g>
</svg>
