<?xml version="1.0" encoding="UTF-8" standalone="no"?>
<svg xmlns:ffdec="https://www.free-decompiler.com/flash" xmlns:xlink="http://www.w3.org/1999/xlink" ffdec:objectType="shape" height="50.0px" width="95.0px" xmlns="http://www.w3.org/2000/svg">
  <g transform="matrix(1.0, 0.0, 0.0, 1.0, 0.0, 0.0)">
    <path d="M84.65 4.5 L87.9 7.35 Q95.0 14.7 95.0 25.0 L94.8 28.35 Q93.8 36.6 87.9 42.75 L84.65 45.55 Q78.95 49.75 71.6 50.0 L70.75 50.0 24.2 50.0 19.55 49.6 Q14.0 48.55 9.45 44.9 L7.15 42.75 Q1.2 36.6 0.2 28.35 L0.0 25.0 Q0.0 14.7 7.15 7.35 L9.45 5.15 Q14.0 1.5 19.55 0.45 L24.2 0.0 70.75 0.0 71.6 0.05 Q78.95 0.25 84.65 4.5" fill="#072ead" fill-rule="evenodd" stroke="none"/>
  </g>
</svg>
