<?xml version="1.0" encoding="UTF-8" standalone="no"?>
<svg xmlns:ffdec="https://www.free-decompiler.com/flash" xmlns:xlink="http://www.w3.org/1999/xlink" ffdec:objectType="shape" height="21.9px" width="25.15px" xmlns="http://www.w3.org/2000/svg">
  <g transform="matrix(1.0, 0.0, 0.0, 1.0, -9.95, -11.55)">
    <path d="M22.35 18.15 L26.0 12.85 32.05 12.85 25.35 22.05 32.55 32.2 26.35 32.2 22.35 26.25 18.3 32.2 12.4 32.2 19.4 22.2 12.6 12.85 18.95 12.85 22.35 18.15" fill="#ffe2e2" fill-rule="evenodd" stroke="none"/>
    <path d="M22.4 15.85 L25.35 11.55 34.65 11.55 27.0 22.05 35.1 33.45 25.7 33.45 22.35 28.6 19.0 33.45 9.95 33.45 17.85 22.2 10.05 11.55 19.65 11.55 22.4 15.85 M22.35 18.15 L18.95 12.85 12.6 12.85 19.4 22.2 12.4 32.2 18.3 32.2 22.35 26.25 26.35 32.2 32.55 32.2 25.35 22.05 32.05 12.85 26.0 12.85 22.35 18.15" fill="#770606" fill-rule="evenodd" stroke="none"/>
  </g>
</svg>
