<?xml version="1.0" encoding="UTF-8" standalone="no"?>
<svg xmlns:ffdec="https://www.free-decompiler.com/flash" xmlns:xlink="http://www.w3.org/1999/xlink" ffdec:objectType="shape" height="97.95px" width="95.0px" xmlns="http://www.w3.org/2000/svg">
  <g transform="matrix(1.0, 0.0, 0.0, 1.0, 46.5, 51.8)">
    <path d="M26.9 11.85 Q24.05 5.8 22.9 -1.4 22.15 -5.8 22.15 -9.5 22.15 -19.7 25.8 -25.2 L29.0 -29.5 31.95 -31.35 32.7 -31.65 Q34.55 -32.5 34.9 -32.35 29.75 -27.85 27.2 -22.7 24.6 -17.4 24.6 -11.0 24.6 -8.25 25.3 -4.4 L26.85 2.55 28.05 8.6 Q28.05 9.6 26.4 9.25 L26.9 11.85 M0.55 -37.2 Q4.8 -34.35 5.7 -32.85 7.75 -29.6 7.75 -21.35 7.75 -16.05 6.5 -8.2 5.2 -0.35 5.2 0.85 5.2 4.2 6.4 8.5 7.7 13.05 10.1 17.8 L7.05 16.05 Q5.65 15.0 4.9 13.1 3.3 8.9 3.3 -5.9 L3.4 -17.6 Q3.4 -22.3 3.15 -22.8 L1.0 -27.0 Q-0.1 -29.75 -0.1 -32.9 -0.1 -34.35 0.55 -37.2 M18.75 -39.6 L18.9 -38.45 Q18.35 -36.95 17.2 -35.25 L15.35 -32.35 Q13.2 -28.15 13.2 -19.1 13.2 -11.7 15.4 -1.35 13.8 -3.85 12.2 -9.05 10.5 -14.65 10.5 -18.3 10.5 -24.1 12.8 -30.95 15.4 -38.65 18.75 -39.6 M-8.55 -15.65 L-6.75 -23.35 Q-4.75 -23.3 -2.95 -12.9 -1.25 -3.25 -1.25 5.3 -1.25 19.45 -2.8 24.6 -3.9 28.25 -6.4 28.25 L-7.65 28.2 Q-7.3 13.85 -8.7 8.4 -10.2 2.45 -10.2 -3.95 -10.2 -8.05 -8.55 -15.65 M-21.85 -8.75 L-22.1 -11.05 -23.6 -11.3 Q-23.4 -15.6 -22.4 -17.95 -21.0 -21.25 -17.55 -22.8 L-19.1 -15.65 Q-20.55 -9.15 -20.75 -8.6 L-21.85 -8.75" fill="#ffffff" fill-rule="evenodd" stroke="none"/>
    <path d="M36.15 -37.55 L36.55 -37.6 Q37.0 -37.7 37.25 -37.9 41.65 -37.75 41.65 -35.95 41.65 -34.1 39.35 -31.5 L34.25 -26.1 Q26.85 -17.5 26.85 -5.55 26.85 -0.6 29.8 9.65 L32.75 20.35 Q32.75 23.55 32.0 25.35 31.05 27.55 31.0 28.1 30.75 25.5 29.8 21.2 28.5 15.25 26.9 11.85 L26.4 9.25 Q28.05 9.6 28.05 8.6 L26.85 2.55 25.3 -4.4 Q24.6 -8.25 24.6 -11.0 24.6 -17.4 27.2 -22.7 29.75 -27.85 34.9 -32.35 34.55 -32.5 32.7 -31.65 L34.2 -33.05 Q35.65 -34.8 35.7 -36.45 35.0 -36.75 34.25 -36.05 34.25 -36.65 34.8 -37.1 35.35 -37.55 36.15 -37.55 M25.8 -25.2 Q26.7 -27.2 29.0 -29.5 L25.8 -25.2 M-13.25 32.85 L-14.85 35.85 -15.65 26.45 Q-15.1 17.15 -16.85 5.4 L-18.85 -7.15 -18.2 -6.65 -17.65 -6.0 Q-12.65 11.5 -13.25 32.85 M-30.0 1.5 L-29.95 3.9 -29.95 6.3 Q-30.6 15.95 -35.15 22.9 -38.2 27.45 -41.15 28.6 L-43.2 28.95 -43.75 28.9 -39.5 25.25 -39.0 24.75 Q-36.1 21.65 -33.9 16.75 -31.5 11.45 -31.5 7.65 L-32.25 -2.45 -32.0 -7.5 Q-30.35 -2.75 -30.0 1.5 M23.2 -42.75 Q25.2 -41.6 25.2 -39.65 L25.1 -38.8 25.0 -38.3 Q22.1 -35.4 18.8 -29.0 L16.05 -23.05 Q19.3 -26.95 24.0 -33.6 L29.95 -42.25 30.15 -40.6 30.05 -39.45 Q30.05 -39.05 30.6 -39.0 L20.45 -23.85 Q15.15 -15.25 15.15 -11.15 15.15 -9.8 17.8 1.2 20.45 12.15 20.45 17.8 L20.45 18.0 20.05 17.95 Q19.35 17.95 16.6 12.55 L11.6 1.85 Q12.35 10.35 12.35 17.05 L12.1 25.5 Q11.8 29.05 10.8 29.9 L0.6 5.25 Q2.85 18.4 -0.25 28.65 -3.05 37.65 -7.75 39.0 L-11.0 14.9 -10.95 15.5 Q-12.15 5.6 -14.0 -4.15 -15.1 -10.1 -15.1 -15.85 -15.1 -17.0 -14.7 -18.35 -14.0 -20.7 -12.45 -20.7 L-11.55 -20.45 -10.85 -19.6 Q-9.15 -21.65 -8.75 -26.55 -8.4 -30.55 -6.45 -31.05 L-4.25 -27.75 -4.1 -29.4 Q-4.3 -32.85 -1.65 -36.1 0.5 -38.7 1.25 -38.7 2.25 -38.7 6.0 -36.15 5.95 -38.0 6.45 -40.0 7.15 -42.65 8.5 -42.8 L10.5 -40.2 12.15 -37.8 Q14.15 -43.65 20.05 -43.65 21.65 -43.65 23.2 -42.75 M18.75 -39.6 Q15.4 -38.65 12.8 -30.95 10.5 -24.1 10.5 -18.3 10.5 -14.65 12.2 -9.05 13.8 -3.85 15.4 -1.35 13.2 -11.7 13.2 -19.1 13.2 -28.15 15.35 -32.35 L17.2 -35.25 Q18.35 -36.95 18.9 -38.45 L18.75 -39.6 M0.55 -37.2 Q-0.1 -34.35 -0.1 -32.9 -0.1 -29.75 1.0 -27.0 L3.15 -22.8 Q3.4 -22.3 3.4 -17.6 L3.3 -5.9 Q3.3 8.9 4.9 13.1 5.65 15.0 7.05 16.05 L10.1 17.8 Q7.7 13.05 6.4 8.5 5.2 4.2 5.2 0.85 5.2 -0.35 6.5 -8.2 7.75 -16.05 7.75 -21.35 7.75 -29.6 5.7 -32.85 4.8 -34.35 0.55 -37.2 M-10.05 -40.25 L-10.05 -39.0 -13.7 -36.85 Q-17.35 -34.6 -21.0 -31.0 L-21.75 -31.4 Q-20.25 -34.65 -16.05 -37.45 -12.45 -39.9 -10.05 -40.25 M-25.15 -12.6 Q-25.15 -16.4 -22.95 -20.8 -20.25 -26.25 -16.3 -26.25 -14.2 -26.25 -14.2 -23.7 -14.2 -20.7 -15.45 -17.9 L-18.15 -12.9 Q-22.05 -6.05 -21.85 2.05 -21.6 14.45 -21.7 18.2 -22.15 29.55 -24.7 31.45 L-24.15 20.8 -23.9 13.25 -24.5 0.2 -25.15 -12.6 M-21.85 -8.75 L-20.75 -8.6 Q-20.55 -9.15 -19.1 -15.65 L-17.55 -22.8 Q-21.0 -21.25 -22.4 -17.95 -23.4 -15.6 -23.6 -11.3 L-22.1 -11.05 -21.85 -8.75 M-8.55 -15.65 Q-10.2 -8.05 -10.2 -3.95 -10.2 2.45 -8.7 8.4 -7.3 13.85 -7.65 28.2 L-6.4 28.25 Q-3.9 28.25 -2.8 24.6 -1.25 19.45 -1.25 5.3 -1.25 -3.25 -2.95 -12.9 -4.75 -23.3 -6.75 -23.35 L-8.55 -15.65" fill="#ebe8e0" fill-rule="evenodd" stroke="none"/>
    <path d="M37.25 -37.9 Q39.85 -39.15 40.55 -39.25 L41.05 -39.15 Q44.3 -39.15 45.55 -38.0 46.6 -37.05 46.6 -34.95 46.6 -30.2 44.1 -27.55 43.15 -26.5 38.7 -23.7 34.95 -21.35 33.25 -18.45 30.75 -14.25 30.75 -6.9 30.75 -0.75 33.15 8.9 35.55 18.5 35.55 20.15 35.55 23.95 34.2 27.2 33.15 29.6 29.5 35.4 L31.0 28.1 Q31.05 27.55 32.0 25.35 32.75 23.55 32.75 20.35 L29.8 9.65 Q26.85 -0.6 26.85 -5.55 26.85 -17.5 34.25 -26.1 L39.35 -31.5 Q41.65 -34.1 41.65 -35.95 41.65 -37.75 37.25 -37.9 M34.25 -36.05 L31.2 -33.65 Q28.75 -31.5 26.9 -28.9 21.35 -21.0 21.35 -8.55 21.35 -0.05 23.5 7.1 25.6 14.25 25.6 19.2 25.6 26.55 22.25 34.0 L22.35 32.25 Q22.35 30.7 21.1 27.35 19.75 23.7 18.25 21.9 17.85 24.6 15.5 29.5 12.75 35.25 9.75 38.35 9.95 36.15 8.95 32.65 7.75 28.4 5.5 26.1 3.3 32.55 0.4 36.15 -3.1 40.45 -9.9 44.0 L-9.5 41.05 -9.5 35.45 Q-10.1 31.95 -13.25 32.85 -12.65 11.5 -17.65 -6.0 L-18.2 -6.65 -18.85 -7.15 -16.85 5.4 Q-15.1 17.15 -15.65 26.45 L-19.05 3.15 Q-19.75 4.95 -19.75 6.4 L-18.15 24.85 Q-18.15 30.65 -20.45 33.8 -22.9 37.05 -28.0 37.65 L-27.1 33.8 -26.45 30.65 -27.4 27.4 Q-28.4 24.1 -28.4 22.5 L-28.1 21.4 -27.65 20.55 -27.4 -1.65 -27.5 -11.3 -27.3 -18.8 -26.95 -20.25 -28.9 -13.35 Q-30.15 -7.0 -30.0 1.5 -30.35 -2.75 -32.0 -7.5 L-32.25 -2.45 -31.5 7.65 Q-31.5 11.45 -33.9 16.75 -36.1 21.65 -39.0 24.75 -36.85 22.25 -35.25 15.65 -32.85 5.8 -34.0 -6.7 -34.45 -11.65 -33.6 -15.9 -33.2 -18.05 -32.1 -21.05 -31.35 -23.05 -28.6 -27.25 L-26.0 -31.05 Q-26.0 -32.05 -22.55 -34.4 L-23.95 -33.75 Q-12.7 -42.45 -6.05 -45.5 3.35 -49.75 15.75 -49.75 16.75 -49.75 16.95 -47.85 3.4 -46.15 -3.7 -41.85 -9.8 -38.2 -12.7 -31.55 L-12.0 -31.0 Q-4.75 -39.05 2.1 -42.75 8.6 -46.3 15.55 -46.3 22.5 -46.3 27.55 -44.4 33.45 -42.2 36.15 -37.55 35.35 -37.55 34.8 -37.1 34.25 -36.65 34.25 -36.05 M-29.95 6.3 Q-29.4 21.65 -32.45 25.3 -33.85 26.95 -36.75 27.7 L-41.15 28.6 Q-38.2 27.45 -35.15 22.9 -30.6 15.95 -29.95 6.3 M23.2 -42.75 Q21.65 -43.65 20.05 -43.65 14.15 -43.65 12.15 -37.8 L10.5 -40.2 8.5 -42.8 Q7.15 -42.65 6.45 -40.0 5.95 -38.0 6.0 -36.15 2.25 -38.7 1.25 -38.7 0.5 -38.7 -1.65 -36.1 -4.3 -32.85 -4.1 -29.4 L-4.25 -27.75 -6.45 -31.05 Q-8.4 -30.55 -8.75 -26.55 -9.15 -21.65 -10.85 -19.6 L-11.55 -20.45 -12.45 -20.7 Q-14.0 -20.7 -14.7 -18.35 -15.1 -17.0 -15.1 -15.85 -15.1 -10.1 -14.0 -4.15 -12.15 5.6 -10.95 15.5 L-11.0 14.9 -7.75 39.0 Q-3.05 37.65 -0.25 28.65 2.85 18.4 0.6 5.25 L10.8 29.9 Q11.8 29.05 12.1 25.5 L12.35 17.05 Q12.35 10.35 11.6 1.85 L16.6 12.55 Q19.35 17.95 20.05 17.95 L20.45 18.0 20.45 17.8 Q20.45 12.15 17.8 1.2 15.15 -9.8 15.15 -11.15 15.15 -15.25 20.45 -23.85 L30.6 -39.0 Q30.05 -39.05 30.05 -39.45 L30.15 -40.6 29.95 -42.25 24.0 -33.6 Q19.3 -26.95 16.05 -23.05 L18.8 -29.0 Q22.1 -35.4 25.0 -38.3 L25.1 -38.8 25.2 -39.65 Q25.2 -41.6 23.2 -42.75 M-10.05 -40.25 Q-12.45 -39.9 -16.05 -37.45 -20.25 -34.65 -21.75 -31.4 L-21.0 -31.0 Q-17.35 -34.6 -13.7 -36.85 L-10.05 -39.0 -10.05 -40.25 M-17.0 -28.9 L-19.25 -29.15 Q-23.4 -29.15 -26.1 -22.3 -25.45 -23.35 -22.65 -25.7 -19.65 -28.3 -18.5 -28.35 L-17.0 -28.9 M-25.15 -12.6 L-24.5 0.2 -23.9 13.25 -24.15 20.8 -24.7 31.45 Q-22.15 29.55 -21.7 18.2 -21.6 14.45 -21.85 2.05 -22.05 -6.05 -18.15 -12.9 L-15.45 -17.9 Q-14.2 -20.7 -14.2 -23.7 -14.2 -26.25 -16.3 -26.25 -20.25 -26.25 -22.95 -20.8 -25.15 -16.4 -25.15 -12.6 M-36.65 16.45 L-42.0 15.4 -35.25 8.0 Q-35.3 10.5 -36.65 16.45" fill="#cbc8c0" fill-rule="evenodd" stroke="none"/>
    <path d="M12.0 -51.8 Q15.05 -51.95 16.25 -51.05 19.0 -48.95 22.9 -47.6 25.15 -46.8 29.75 -45.45 L37.05 -42.6 Q41.45 -40.8 42.6 -40.7 48.5 -40.1 48.5 -34.15 48.5 -29.05 45.95 -26.1 44.55 -24.45 40.35 -22.05 36.35 -19.75 34.7 -17.55 32.15 -14.05 32.15 -8.1 32.15 -7.35 34.65 3.45 37.1 14.2 37.1 19.15 37.1 23.35 35.85 28.0 34.65 32.45 33.25 34.05 29.1 38.8 26.9 39.85 25.2 40.7 23.65 39.65 27.15 35.5 28.35 32.95 29.55 30.4 29.55 27.0 29.55 23.25 27.25 18.15 28.35 25.1 25.6 31.85 23.0 38.4 19.75 38.3 20.6 35.95 20.3 31.3 19.95 26.45 18.65 25.25 19.15 29.9 15.45 34.95 12.1 39.5 8.95 40.3 L5.75 29.9 Q2.85 37.2 -3.6 42.3 -8.55 46.15 -10.75 46.15 -11.75 46.15 -12.0 45.7 -11.2 40.45 -11.2 37.95 -11.1 35.75 -12.25 34.9 -13.95 38.35 -14.95 39.35 -15.45 39.85 -15.65 39.75 L-16.2 38.45 -17.05 32.35 -17.6 33.5 Q-18.2 35.75 -21.8 37.75 -25.15 39.55 -27.7 39.55 L-29.55 39.2 -28.8 35.75 Q-28.25 32.6 -28.25 30.65 -28.25 28.0 -28.7 25.3 -31.55 27.6 -34.8 28.95 -38.3 30.45 -41.2 30.45 -43.3 30.45 -44.9 29.8 L-46.5 28.9 Q-43.55 27.1 -40.55 23.3 -37.95 20.05 -37.3 18.1 -41.9 16.6 -43.05 16.0 L-44.1 15.15 Q-38.6 11.05 -36.6 7.3 -34.75 3.9 -34.75 -1.35 L-35.2 -4.95 -35.7 -8.6 Q-35.7 -16.65 -31.5 -25.15 -27.6 -33.05 -21.6 -38.4 -18.4 -41.3 -14.45 -43.5 -10.7 -45.6 -5.05 -47.65 -0.4 -49.35 6.35 -51.3 L12.0 -51.8 M37.25 -37.9 Q37.0 -37.7 36.55 -37.6 L36.15 -37.55 Q33.45 -42.2 27.55 -44.4 22.5 -46.3 15.55 -46.3 8.6 -46.3 2.1 -42.75 -4.75 -39.05 -12.0 -31.0 L-12.7 -31.55 Q-9.8 -38.2 -3.7 -41.85 3.4 -46.15 16.95 -47.85 16.75 -49.75 15.75 -49.75 3.35 -49.75 -6.05 -45.5 -12.7 -42.45 -23.95 -33.75 L-22.55 -34.4 Q-26.0 -32.05 -26.0 -31.05 L-28.6 -27.25 Q-31.35 -23.05 -32.1 -21.05 -33.2 -18.05 -33.6 -15.9 -34.45 -11.65 -34.0 -6.7 -32.85 5.8 -35.25 15.65 -36.85 22.25 -39.0 24.75 L-39.5 25.25 -43.75 28.9 -43.2 28.95 -41.15 28.6 -36.75 27.7 Q-33.85 26.95 -32.45 25.3 -29.4 21.65 -29.95 6.3 L-29.95 3.9 -30.0 1.5 Q-30.15 -7.0 -28.9 -13.35 L-26.95 -20.25 -27.3 -18.8 -27.5 -11.3 -27.4 -1.65 -27.65 20.55 -28.1 21.4 -28.4 22.5 Q-28.4 24.1 -27.4 27.4 L-26.45 30.65 -27.1 33.8 -28.0 37.65 Q-22.9 37.05 -20.45 33.8 -18.15 30.65 -18.15 24.85 L-19.75 6.4 Q-19.75 4.95 -19.05 3.15 L-15.65 26.45 -14.85 35.85 -13.25 32.85 Q-10.1 31.95 -9.5 35.45 L-9.5 41.05 -9.9 44.0 Q-3.1 40.45 0.4 36.15 3.3 32.55 5.5 26.1 7.75 28.4 8.95 32.65 9.95 36.15 9.75 38.35 12.75 35.25 15.5 29.5 17.85 24.6 18.25 21.9 19.75 23.7 21.1 27.35 22.35 30.7 22.35 32.25 L22.25 34.0 Q25.6 26.55 25.6 19.2 25.6 14.25 23.5 7.1 21.35 -0.05 21.35 -8.55 21.35 -21.0 26.9 -28.9 28.75 -31.5 31.2 -33.65 L34.25 -36.05 Q35.0 -36.75 35.7 -36.45 35.65 -34.8 34.2 -33.05 L32.7 -31.65 31.95 -31.35 29.0 -29.5 Q26.7 -27.2 25.8 -25.2 22.15 -19.7 22.15 -9.5 22.15 -5.8 22.9 -1.4 24.05 5.8 26.9 11.85 28.5 15.25 29.8 21.2 30.75 25.5 31.0 28.1 L29.5 35.4 Q33.15 29.6 34.2 27.2 35.55 23.95 35.55 20.15 35.55 18.5 33.15 8.9 30.75 -0.75 30.75 -6.9 30.75 -14.25 33.25 -18.45 34.95 -21.35 38.7 -23.7 43.15 -26.5 44.1 -27.55 46.6 -30.2 46.6 -34.95 46.6 -37.05 45.55 -38.0 44.3 -39.15 41.05 -39.15 L40.55 -39.25 Q39.85 -39.15 37.25 -37.9 M-17.0 -28.9 L-18.5 -28.35 Q-19.65 -28.3 -22.65 -25.7 -25.45 -23.35 -26.1 -22.3 -23.4 -29.15 -19.25 -29.15 L-17.0 -28.9 M-36.65 16.45 Q-35.3 10.5 -35.25 8.0 L-42.0 15.4 -36.65 16.45" fill="#97877d" fill-rule="evenodd" stroke="none"/>
  </g>
</svg>
