<?xml version="1.0" encoding="UTF-8" standalone="no"?>
<svg xmlns:ffdec="https://www.free-decompiler.com/flash" xmlns:xlink="http://www.w3.org/1999/xlink" ffdec:objectType="shape" height="74.05px" width="104.55px" xmlns="http://www.w3.org/2000/svg">
  <g transform="matrix(1.0, 0.0, 0.0, 1.0, 0.0, 0.0)">
    <path d="M92.7 15.1 L83.45 15.6 83.05 15.5 82.75 15.2 82.65 14.8 83.2 8.6 82.25 8.85 82.2 8.85 74.45 10.7 73.9 10.6 73.55 10.15 71.7 4.05 71.75 4.05 71.7 4.0 63.85 7.65 63.3 7.7 62.9 7.4 58.75 1.55 58.25 1.95 Q58.15 1.95 58.1 2.05 L52.55 6.55 52.05 6.7 51.75 6.65 46.05 2.1 45.8 1.95 45.4 1.6 41.3 7.45 40.85 7.75 40.35 7.7 32.45 4.1 32.25 4.75 32.2 4.9 30.8 10.25 30.45 10.7 29.9 10.8 22.0 9.0 21.75 8.95 21.0 8.8 20.95 8.8 21.05 9.75 21.05 9.8 21.6 15.05 21.55 15.45 21.25 15.75 21.05 15.85 11.6 15.45 11.55 15.45 11.6 15.5 14.45 21.25 14.45 21.3 14.5 21.7 14.3 22.1 13.95 22.3 5.05 23.55 5.0 23.6 9.8 28.6 Q10.0 28.75 10.0 29.05 L9.9 29.5 9.7 29.75 3.0 32.05 1.55 32.55 2.7 33.25 2.9 33.4 8.2 36.55 8.5 36.95 8.5 37.45 8.2 37.85 1.7 41.85 2.95 42.3 3.15 42.4 9.65 44.65 10.05 44.95 10.15 45.45 10.1 45.7 5.2 50.95 5.25 51.0 5.25 50.95 6.65 51.15 14.05 52.15 14.5 52.35 14.7 52.8 14.65 53.15 12.45 57.8 12.45 57.9 11.9 58.9 13.05 58.85 13.15 58.85 21.2 58.5 21.6 58.6 21.9 58.9 21.95 59.15 21.9 59.85 21.9 59.95 21.4 65.45 21.45 65.45 21.5 65.5 22.35 65.25 22.45 65.25 30.45 63.3 30.85 63.4 31.15 63.75 31.2 63.85 33.05 70.15 33.05 70.2 33.1 70.2 33.1 70.15 40.95 66.4 41.3 66.4 41.5 66.45 45.4 71.9 45.45 71.95 45.85 72.5 45.9 72.5 45.95 72.45 46.35 72.1 46.5 72.05 52.15 67.55 52.5 67.45 53.0 67.6 59.2 72.45 59.25 72.45 63.35 66.6 63.4 66.6 63.75 66.35 64.05 66.3 71.3 69.65 71.5 69.7 72.05 69.95 72.1 70.0 72.1 69.95 72.15 69.9 73.9 63.75 74.25 63.3 74.65 63.2 82.6 65.05 82.65 65.05 83.6 65.3 83.65 65.3 83.65 65.25 83.6 65.3 83.6 65.2 83.05 59.0 83.15 58.6 83.45 58.3 83.85 58.2 91.75 58.6 91.85 58.6 92.95 58.65 92.5 57.7 92.45 57.55 90.2 52.9 90.1 52.45 Q90.15 52.2 90.35 52.0 90.45 51.85 90.65 51.85 L98.2 50.8 98.3 50.8 99.65 50.6 98.75 49.65 98.65 49.55 98.25 49.15 98.1 49.0 94.8 45.6 94.55 45.15 94.7 44.65 95.05 44.35 101.5 42.1 101.7 42.05 103.0 41.55 96.45 37.5 96.4 37.45 96.15 37.1 96.15 36.6 96.35 36.3 101.6 33.05 101.8 32.9 102.9 32.2 101.55 31.75 101.45 31.7 94.8 29.4 94.6 29.2 94.45 28.75 94.65 28.3 98.4 24.25 98.55 24.05 99.35 23.15 90.55 22.05 90.4 22.05 90.15 21.85 89.95 21.45 Q89.85 21.2 90.0 21.0 L92.7 15.2 92.75 15.15 92.7 15.1 M82.8 7.15 Q83.2 6.95 83.8 7.15 L83.85 7.2 Q84.2 7.35 84.45 7.7 L84.55 7.85 84.7 8.65 84.7 8.75 84.25 14.05 92.65 13.6 92.7 13.6 Q93.2 13.6 93.6 13.9 93.95 14.15 94.15 14.75 L94.2 14.8 94.1 15.75 94.1 15.8 91.8 20.7 99.55 21.65 99.6 21.65 Q100.1 21.75 100.5 22.15 L100.55 22.2 100.85 23.15 Q100.85 23.75 100.45 24.15 L96.55 28.45 103.4 30.8 103.45 30.8 104.2 31.5 Q104.5 31.95 104.4 32.55 L104.35 32.65 103.7 33.5 98.3 36.85 103.8 40.25 Q104.25 40.55 104.45 41.15 L104.5 41.25 104.4 42.2 104.35 42.3 103.5 42.95 96.65 45.4 100.75 49.6 Q101.15 50.0 101.15 50.6 L100.9 51.5 100.8 51.65 99.9 52.1 99.85 52.1 92.0 53.15 94.35 58.05 94.45 59.0 94.4 59.15 93.85 59.85 92.95 60.15 92.9 60.15 84.65 59.75 85.1 65.15 85.1 65.2 84.95 65.95 84.95 66.0 84.2 66.65 83.3 66.75 75.15 64.85 73.6 70.35 73.55 70.5 73.15 71.05 72.45 71.45 72.25 71.45 71.65 71.4 71.5 71.35 64.2 68.0 60.4 73.35 60.35 73.45 59.8 73.85 59.65 73.9 59.05 73.95 Q58.55 73.95 58.2 73.6 L58.25 73.65 52.5 69.2 46.85 73.7 46.7 73.8 46.15 74.0 45.25 73.9 Q44.8 73.7 44.65 73.4 L40.9 68.05 33.7 71.55 33.65 71.55 32.75 71.65 32.1 71.4 31.9 71.2 31.6 70.55 31.6 70.6 29.95 64.95 21.8 66.95 21.75 66.95 20.9 66.85 20.85 66.85 20.15 66.3 20.1 66.2 19.9 65.4 19.9 65.35 20.4 60.05 11.9 60.4 10.95 60.1 Q10.55 59.8 10.45 59.25 10.25 58.7 10.55 58.3 L10.6 58.2 10.6 58.15 12.85 53.5 5.0 52.45 Q4.35 52.35 4.1 51.95 L4.05 51.9 Q3.7 51.45 3.7 50.95 3.7 50.35 4.1 49.95 L8.1 45.7 1.15 43.25 1.2 43.25 0.35 42.6 0.35 42.55 0.3 42.5 Q0.05 42.0 0.25 41.45 L0.2 41.55 Q0.3 40.9 0.9 40.55 L0.85 40.55 6.35 37.2 0.85 33.9 0.8 33.85 Q0.15 33.5 0.05 32.9 L0.1 33.0 Q-0.1 32.4 0.15 31.95 L0.2 31.9 0.2 31.85 Q0.4 31.35 1.05 31.15 L1.0 31.15 7.9 28.8 3.9 24.65 3.9 24.6 Q3.5 24.1 3.5 23.6 3.5 23.05 3.85 22.7 4.15 22.15 4.8 22.05 L12.65 20.95 10.25 16.15 Q9.95 15.65 10.1 15.15 10.2 14.55 10.65 14.25 11.05 13.95 11.6 13.95 L20.0 14.35 19.45 8.95 19.45 8.85 19.65 8.1 19.65 8.05 Q19.95 7.55 20.35 7.4 L20.4 7.35 Q20.9 7.15 21.45 7.35 L29.55 9.2 31.0 3.7 Q31.05 3.25 31.4 3.0 31.65 2.7 32.15 2.6 32.55 2.4 33.15 2.75 L33.05 2.75 40.4 6.1 44.15 0.75 44.75 0.2 45.45 0.05 45.65 0.1 Q45.95 0.15 46.3 0.4 L46.35 0.4 52.1 5.0 57.8 0.4 Q58.05 0.1 58.45 0.05 L59.35 0.15 59.95 0.65 59.9 0.65 63.75 6.05 71.05 2.65 71.75 2.45 71.95 2.5 72.6 2.8 73.1 3.5 73.15 3.55 74.8 9.05 82.8 7.15" fill="#006600" fill-rule="evenodd" stroke="none"/>
    <path d="M71.7 4.05 L73.55 10.15 73.9 10.6 74.45 10.7 82.2 8.85 82.25 8.85 83.2 8.6 82.65 14.8 82.75 15.2 83.05 15.5 83.45 15.6 92.7 15.1 92.7 15.2 90.0 21.0 Q89.85 21.2 89.95 21.45 L90.15 21.85 90.4 22.05 90.55 22.05 99.35 23.15 98.55 24.05 98.4 24.25 94.65 28.3 94.45 28.75 94.6 29.2 94.8 29.4 101.45 31.7 101.55 31.75 102.9 32.2 101.8 32.9 101.6 33.05 96.35 36.3 96.15 36.6 96.15 37.1 96.4 37.45 96.45 37.5 103.0 41.55 101.7 42.05 101.5 42.1 95.05 44.35 94.7 44.65 94.55 45.15 94.8 45.6 98.1 49.0 98.25 49.15 98.65 49.55 98.75 49.65 99.65 50.6 98.3 50.8 98.2 50.8 90.65 51.85 Q90.45 51.85 90.35 52.0 90.15 52.2 90.1 52.45 L90.2 52.9 92.45 57.55 92.5 57.7 92.95 58.65 91.85 58.6 91.75 58.6 83.85 58.2 83.45 58.3 83.15 58.6 83.05 59.0 83.6 65.2 83.6 65.3 82.65 65.05 82.6 65.05 74.65 63.2 74.25 63.3 73.9 63.75 72.15 69.9 72.1 69.95 72.1 70.0 72.05 69.95 71.5 69.7 71.3 69.65 64.05 66.3 63.75 66.35 63.4 66.6 63.35 66.6 59.25 72.45 59.2 72.45 53.0 67.6 52.5 67.45 52.15 67.55 46.5 72.05 46.35 72.1 45.95 72.45 45.9 72.5 45.85 72.5 45.45 71.95 45.4 71.9 41.5 66.45 41.3 66.4 40.95 66.4 33.1 70.15 33.05 70.15 31.2 63.85 31.15 63.75 30.85 63.4 30.45 63.3 22.45 65.25 22.35 65.25 21.5 65.5 21.45 65.45 21.4 65.45 21.9 59.95 21.9 59.85 21.95 59.15 21.9 58.9 21.6 58.6 21.2 58.5 13.15 58.85 13.05 58.85 11.9 58.9 12.45 57.9 12.45 57.8 14.65 53.15 14.7 52.8 14.5 52.35 14.05 52.15 6.65 51.15 5.25 50.95 5.2 50.95 10.1 45.7 10.15 45.45 10.05 44.95 9.65 44.65 3.15 42.4 2.95 42.3 1.7 41.85 8.2 37.85 8.5 37.45 8.5 36.95 8.2 36.55 2.9 33.4 2.7 33.25 1.55 32.55 3.0 32.05 9.7 29.75 9.9 29.5 10.0 29.05 Q10.0 28.75 9.8 28.6 L5.0 23.6 5.05 23.55 13.95 22.3 14.3 22.1 14.5 21.7 14.45 21.3 14.45 21.25 11.6 15.5 11.6 15.45 21.05 15.85 21.25 15.75 21.55 15.45 21.6 15.05 21.05 9.8 21.05 9.75 20.95 8.8 21.0 8.8 21.75 8.95 22.0 9.0 29.9 10.8 30.45 10.7 30.8 10.25 32.2 4.9 32.25 4.75 32.45 4.1 40.35 7.7 40.85 7.75 41.3 7.45 45.4 1.6 45.8 1.95 46.05 2.1 51.75 6.65 52.05 6.7 52.55 6.55 58.1 2.05 Q58.15 1.95 58.25 1.95 L58.75 1.55 62.9 7.4 63.3 7.7 63.85 7.65 71.7 4.0 71.7 4.05 M72.25 11.25 L70.75 6.05 63.95 9.3 63.85 9.3 62.9 9.4 62.8 9.35 Q62.3 9.15 62.05 8.8 L58.45 3.7 53.05 8.1 52.95 8.15 52.05 8.4 51.15 8.1 45.75 3.75 42.2 8.85 42.1 8.95 41.4 9.4 41.25 9.45 40.35 9.35 40.3 9.35 33.4 6.15 32.1 11.35 32.05 11.4 31.4 12.25 30.35 12.45 30.3 12.45 22.65 10.7 23.2 15.75 23.2 15.8 23.15 16.4 23.0 16.65 22.55 17.15 22.45 17.2 21.7 17.35 14.05 17.05 16.25 21.55 16.35 22.45 16.35 22.5 16.0 23.15 15.85 23.3 15.1 23.65 15.05 23.65 8.15 24.65 11.7 28.4 Q12.1 28.7 12.1 29.35 L11.95 30.15 11.85 30.25 11.15 30.8 11.1 30.8 5.0 32.95 10.05 35.9 10.1 35.95 10.65 36.7 Q10.85 37.2 10.65 37.75 L10.1 38.45 10.05 38.5 5.15 41.5 11.2 43.6 11.25 43.6 Q11.7 43.8 11.95 44.15 L12.05 44.3 12.2 45.1 Q12.25 45.55 11.8 46.0 L8.3 49.85 15.25 50.75 15.3 50.8 16.05 51.1 16.2 51.25 16.55 52.0 16.45 52.9 16.45 52.95 14.35 57.3 22.0 56.95 22.75 57.15 22.85 57.2 23.3 57.65 23.45 57.95 23.5 58.55 23.5 58.65 23.1 63.55 30.55 61.75 31.7 61.85 31.75 61.85 32.4 62.75 32.45 62.75 34.0 68.05 40.6 64.9 40.7 64.85 41.65 64.75 42.5 65.3 42.55 65.4 46.15 70.4 51.6 66.1 Q52.0 65.7 52.5 65.7 L53.4 65.95 53.5 66.0 58.85 70.25 62.45 65.3 Q62.7 64.85 63.2 64.7 L64.3 64.8 64.35 64.8 71.15 67.9 72.6 62.75 Q72.7 62.1 73.35 61.75 L73.4 61.75 74.5 61.65 81.9 63.35 81.45 58.35 81.45 58.25 81.65 57.5 82.2 56.9 Q82.5 56.65 83.0 56.65 L90.55 57.05 88.4 52.65 Q88.1 52.1 88.25 51.7 88.3 51.25 88.7 50.9 88.95 50.55 89.45 50.5 L89.5 50.45 96.55 49.5 92.9 45.8 Q92.45 45.35 92.45 44.8 92.45 44.3 92.7 44.0 L92.75 43.9 92.75 43.85 Q92.95 43.5 93.45 43.3 L99.5 41.25 94.6 38.15 94.55 38.1 94.0 37.4 Q93.8 36.85 94.0 36.35 94.2 35.8 94.7 35.6 L99.5 32.6 93.35 30.5 Q92.8 30.3 92.6 29.9 L92.35 29.05 Q92.35 28.5 92.75 28.1 L96.3 24.3 89.3 23.4 89.25 23.4 Q88.8 23.3 88.55 23.05 88.05 22.7 88.05 22.05 88.0 21.6 88.2 21.3 L90.3 16.75 82.6 17.15 81.8 16.95 81.25 16.35 81.05 15.6 81.05 15.55 81.5 10.55 74.1 12.35 74.05 12.35 73.05 12.2 73.0 12.15 Q72.35 11.8 72.3 11.25 L72.25 11.25" fill="#dfeedd" fill-rule="evenodd" stroke="none"/>
    <path d="M72.3 11.25 Q72.35 11.8 73.0 12.15 L73.05 12.2 74.05 12.35 74.1 12.35 81.5 10.55 81.05 15.55 81.05 15.6 81.25 16.35 81.8 16.95 82.6 17.15 90.3 16.75 88.2 21.3 Q88.0 21.6 88.05 22.05 88.05 22.7 88.55 23.05 88.8 23.3 89.25 23.4 L89.3 23.4 96.3 24.3 92.75 28.1 Q92.35 28.5 92.35 29.05 L92.6 29.9 Q92.8 30.3 93.35 30.5 L99.5 32.6 94.7 35.6 Q94.2 35.8 94.0 36.35 93.8 36.85 94.0 37.4 L94.55 38.1 94.6 38.15 99.5 41.25 93.45 43.3 Q92.95 43.5 92.75 43.85 L92.75 43.9 92.7 44.0 Q92.45 44.3 92.45 44.8 92.45 45.35 92.9 45.8 L96.55 49.5 89.5 50.45 89.45 50.5 Q88.95 50.55 88.7 50.9 88.3 51.25 88.25 51.7 88.1 52.1 88.4 52.65 L90.55 57.05 83.0 56.65 Q82.5 56.65 82.2 56.9 L81.65 57.5 81.45 58.25 81.45 58.35 81.9 63.35 74.5 61.65 73.4 61.75 73.35 61.75 Q72.7 62.1 72.6 62.75 L71.15 67.9 64.35 64.8 64.3 64.8 63.2 64.7 Q62.7 64.85 62.45 65.3 L58.85 70.25 53.5 66.0 53.4 65.95 52.5 65.7 Q52.0 65.7 51.6 66.1 L46.15 70.4 42.55 65.4 42.5 65.3 41.65 64.75 40.7 64.85 40.6 64.9 34.0 68.05 32.45 62.75 32.4 62.75 31.75 61.85 31.7 61.85 30.55 61.75 23.1 63.55 23.5 58.65 23.5 58.55 23.45 57.95 23.3 57.65 22.85 57.2 22.75 57.15 22.0 56.95 14.35 57.3 16.45 52.95 16.45 52.9 16.55 52.0 16.2 51.25 16.05 51.1 15.3 50.8 15.25 50.75 8.3 49.85 11.8 46.0 Q12.25 45.55 12.2 45.1 L12.05 44.3 11.95 44.15 Q11.7 43.8 11.25 43.6 L11.2 43.6 5.15 41.5 10.05 38.5 10.1 38.45 10.65 37.75 Q10.85 37.2 10.65 36.7 L10.1 35.95 10.05 35.9 5.0 32.95 11.1 30.8 11.15 30.8 11.85 30.25 11.95 30.15 12.1 29.35 Q12.1 28.7 11.7 28.4 L8.15 24.65 15.05 23.65 15.1 23.65 15.85 23.3 16.0 23.15 16.35 22.5 16.35 22.45 16.25 21.55 14.05 17.05 21.7 17.35 22.45 17.2 22.55 17.15 23.0 16.65 23.15 16.4 23.2 15.8 23.2 15.75 22.65 10.7 30.3 12.45 30.35 12.45 31.4 12.25 32.05 11.4 32.1 11.35 33.4 6.15 40.3 9.35 40.35 9.35 41.25 9.45 41.4 9.4 42.1 8.95 42.2 8.85 45.75 3.75 51.15 8.1 52.05 8.4 52.95 8.15 53.05 8.1 58.45 3.7 62.05 8.8 Q62.3 9.15 62.8 9.35 L62.9 9.4 63.85 9.3 63.95 9.3 70.75 6.05 72.25 11.25 72.3 11.3 72.3 11.25 M74.5 61.65 L74.45 61.65 74.5 61.65" fill="#00cc00" fill-rule="evenodd" stroke="none"/>
    <path d="M92.7 15.1 L92.75 15.15 92.7 15.2 92.7 15.1 M83.6 65.2 L83.6 65.3 83.65 65.25 83.65 65.3 83.6 65.3 83.6 65.2 M59.25 72.45 L59.2 72.45 59.25 72.45 M33.1 70.15 L33.1 70.2 33.05 70.2 33.05 70.15 33.1 70.15 M5.25 50.95 L5.25 51.0 5.2 50.95 5.25 50.95 M11.6 15.5 L11.55 15.45 11.6 15.45 11.6 15.5 M71.7 4.0 L71.75 4.05 71.7 4.05 71.7 4.0 M72.25 11.25 L72.3 11.25 72.3 11.3 72.25 11.25 M74.5 61.65 L74.45 61.65 74.5 61.65" fill="#ffffff" fill-rule="evenodd" stroke="none"/>
  </g>
</svg>
