<?xml version="1.0" encoding="UTF-8" standalone="no"?>
<svg xmlns:ffdec="https://www.free-decompiler.com/flash" xmlns:xlink="http://www.w3.org/1999/xlink" ffdec:objectType="shape" height="37.75px" width="32.15px" xmlns="http://www.w3.org/2000/svg">
  <g transform="matrix(1.0, 0.0, 0.0, 1.0, 7.35, 18.35)">
    <path d="M15.95 -0.7 Q18.85 0.2 21.9 3.85 25.05 7.75 24.8 10.75 L24.8 12.85 Q23.05 12.95 16.5 15.45 9.8 18.0 7.95 19.4 L6.75 14.4 6.3 6.6 1.25 5.4 0.55 5.3 1.05 4.65 Q-0.1 3.4 -1.1 3.4 -1.9 3.4 -3.75 5.45 -5.65 7.5 -5.95 8.85 L-6.15 11.55 -5.95 14.25 -2.65 9.5 Q-2.65 10.8 -3.05 12.05 L-3.3 12.9 -6.95 17.1 -7.35 11.7 Q-7.35 9.7 -6.25 7.15 -4.55 3.25 -0.95 0.45 -0.35 0.0 4.55 -1.35 L4.45 0.7 Q1.65 1.0 -0.45 2.75 0.2 4.1 1.2 4.1 1.5 4.1 2.6 5.0 3.6 5.9 6.8 5.7 L8.45 17.95 Q8.9 17.6 17.3 12.2 L19.0 11.75 22.8 10.95 21.55 7.35 Q20.3 4.5 19.95 4.5 14.8 6.25 12.6 6.3 L12.05 6.25 11.45 6.1 12.7 5.75 Q13.35 5.75 13.85 5.3 L15.4 4.7 18.6 3.35 19.25 2.75 15.7 1.3 15.95 -0.7 M4.45 1.65 L6.1 2.65 Q8.7 3.6 14.5 2.55 L15.6 2.35 16.0 2.75 Q15.95 3.3 14.6 3.55 L6.0 4.0 4.4 2.75 3.95 2.3 4.15 1.75 4.45 1.65" fill="#333333" fill-rule="evenodd" stroke="none"/>
    <path d="M4.45 0.7 L4.45 1.65 4.15 1.75 3.95 2.3 4.4 2.75 2.0 2.65 -0.45 2.75 Q1.65 1.0 4.45 0.7 M15.6 2.35 L15.7 1.3 19.25 2.75 18.6 3.35 15.4 4.7 13.85 5.3 14.05 5.1 Q14.6 4.45 14.6 3.55 15.95 3.3 16.0 2.75 L15.6 2.35 M12.6 6.3 Q14.8 6.25 19.95 4.5 20.3 4.5 21.55 7.35 L22.8 10.95 19.0 11.75 17.3 12.2 Q17.3 9.75 15.75 8.0 14.4 6.45 12.6 6.3 M0.55 5.3 L-2.65 9.5 -5.95 14.25 -6.15 11.55 -5.95 8.85 Q-5.65 7.5 -3.75 5.45 -1.9 3.4 -1.1 3.4 -0.1 3.4 1.05 4.65 L0.55 5.3" fill="#cdc9b6" fill-rule="evenodd" stroke="none"/>
    <path d="M12.6 6.3 Q14.4 6.45 15.75 8.0 17.3 9.75 17.3 12.2 8.9 17.6 8.45 17.95 L6.8 5.7 Q3.6 5.9 2.6 5.0 1.5 4.1 1.2 4.1 0.2 4.1 -0.45 2.75 L2.0 2.65 4.4 2.75 6.0 4.0 14.6 3.55 Q14.6 4.45 14.05 5.1 L13.85 5.3 Q13.35 5.75 12.7 5.75 L11.45 6.1 12.05 6.25 12.6 6.3" fill="#fbfaee" fill-rule="evenodd" stroke="none"/>
    <path d="M6.1 2.65 Q6.75 -5.4 6.35 -15.45 L15.05 -16.25 14.5 2.55 Q8.7 3.6 6.1 2.65" fill="#f1ba87" fill-rule="evenodd" stroke="none"/>
    <path d="M4.55 -1.35 L4.3 -16.25 4.15 -16.65 Q4.15 -17.05 4.85 -17.35 7.15 -18.35 15.95 -18.35 17.05 -18.45 17.05 -17.3 L15.95 -0.7 15.7 1.3 15.6 2.35 14.5 2.55 15.05 -16.25 6.35 -15.45 Q6.75 -5.4 6.1 2.65 L4.45 1.65 4.45 0.7 4.55 -1.35" fill="#814d1d" fill-rule="evenodd" stroke="none"/>
    <path d="M5.2 7.85 Q6.4 9.05 6.4 10.75 6.4 12.45 5.2 13.65 4.0 14.85 2.3 14.85 0.6 14.85 -0.6 13.65 -1.8 12.45 -1.8 10.75 -1.8 9.05 -0.6 7.85 0.6 6.65 2.3 6.65 4.0 6.65 5.2 7.85" fill="#2c2c2c" fill-rule="evenodd" stroke="none"/>
    <path d="M6.75 14.4 L6.6 13.75 Q5.1 16.75 4.1 16.75 L-3.35 15.25 -2.65 12.15 -3.3 12.9 -3.05 12.05 Q-2.65 10.8 -2.65 9.5 L0.55 5.3 1.25 5.4 6.3 6.6 6.75 14.4 M5.2 7.85 Q4.0 6.65 2.3 6.65 0.6 6.65 -0.6 7.85 -1.8 9.05 -1.8 10.75 -1.8 12.45 -0.6 13.65 0.6 14.85 2.3 14.85 4.0 14.85 5.2 13.65 6.4 12.45 6.4 10.75 6.4 9.05 5.2 7.85" fill="#191919" fill-rule="evenodd" stroke="none"/>
  </g>
</svg>
