<?xml version="1.0" encoding="UTF-8" standalone="no"?>
<svg xmlns:ffdec="https://www.free-decompiler.com/flash" xmlns:xlink="http://www.w3.org/1999/xlink" ffdec:objectType="shape" height="7.1px" width="18.7px" xmlns="http://www.w3.org/2000/svg">
  <g transform="matrix(1.0, 0.0, 0.0, 1.0, 2.5, -8.1)">
    <path d="M9.25 12.2 Q2.3 13.25 0.8 13.8 L-0.85 10.1 6.85 9.15 15.2 9.5 15.4 13.95 Q11.5 12.2 9.25 12.2" fill="#e5e5e5" fill-rule="evenodd" stroke="none"/>
    <path d="M11.3 8.1 Q15.55 8.1 16.1 9.15 16.35 9.7 15.9 15.2 L11.15 14.0 7.45 13.25 Q5.6 13.25 3.3 14.15 L0.35 15.05 Q-0.65 15.05 0.05 14.7 0.3 13.3 -0.7 12.25 L-2.5 10.05 Q-1.7 9.15 3.05 8.55 L11.3 8.1 M9.25 12.2 Q11.5 12.2 15.4 13.95 L15.2 9.5 6.85 9.15 -0.85 10.1 0.8 13.8 Q2.3 13.25 9.25 12.2" fill="#4b3121" fill-rule="evenodd" stroke="none"/>
  </g>
</svg>
