<?xml version="1.0" encoding="UTF-8" standalone="no"?>
<svg xmlns:ffdec="https://www.free-decompiler.com/flash" xmlns:xlink="http://www.w3.org/1999/xlink" ffdec:objectType="shape" height="172.1px" width="64.0px" xmlns="http://www.w3.org/2000/svg">
  <g transform="matrix(1.0, 0.0, 0.0, 1.0, 0.0, 172.1)">
    <path d="M43.15 -169.2 L43.2 -169.2 Q38.55 -171.1 32.05 -171.1 25.45 -171.1 20.85 -169.2 16.6 -167.5 16.5 -165.1 L16.5 -164.95 Q16.5 -164.25 16.95 -163.6 L17.0 -163.6 17.6 -162.9 Q18.7 -161.85 20.85 -160.95 25.45 -159.1 32.05 -159.1 38.55 -159.1 43.2 -160.95 L43.15 -160.95 Q45.35 -161.85 46.45 -162.9 L47.1 -163.6 Q47.5 -164.3 47.5 -165.05 L47.5 -165.1 Q47.4 -167.5 43.15 -169.2 M47.55 -162.6 L47.15 -162.2 Q45.95 -161.05 43.55 -160.05 L43.55 -160.0 Q38.75 -158.1 32.05 -158.1 25.25 -158.1 20.5 -160.0 L20.45 -160.05 Q18.1 -161.05 16.95 -162.15 L16.9 -162.2 16.5 -162.6 16.5 -161.85 16.5 -161.6 Q16.6 -159.2 20.85 -157.45 22.15 -156.95 23.7 -156.55 27.35 -155.6 32.05 -155.6 36.65 -155.6 40.35 -156.55 L43.2 -157.45 43.15 -157.45 Q47.4 -159.2 47.5 -161.6 L47.5 -161.85 47.5 -161.9 47.55 -162.05 47.55 -162.6 M17.4 -106.0 L15.7 -106.95 Q15.8 -107.1 14.85 -107.45 11.9 -109.35 9.35 -111.95 0.0 -121.3 0.0 -134.55 L0.15 -137.65 Q1.1 -148.5 8.7 -156.55 L9.35 -157.25 Q12.25 -160.15 15.5 -162.1 L15.5 -165.1 Q15.4 -168.1 20.45 -170.15 L20.5 -170.15 Q25.25 -172.1 32.05 -172.1 38.75 -172.1 43.55 -170.15 48.6 -168.1 48.5 -165.1 L48.55 -162.1 Q51.75 -160.15 54.65 -157.25 L55.35 -156.55 Q62.95 -148.5 63.9 -137.65 L63.9 -137.6 64.0 -134.55 Q64.0 -121.3 54.65 -111.95 52.05 -109.35 49.2 -107.45 L48.65 -107.25 48.35 -106.95 46.7 -106.0 45.4 -105.4 Q44.0 -104.75 42.55 -104.25 37.65 -102.6 32.05 -102.6 26.45 -102.6 21.55 -104.25 L18.7 -105.35 17.4 -106.0 M43.6 -156.55 L43.55 -156.5 Q38.75 -154.6 32.05 -154.6 25.25 -154.6 20.5 -156.5 L20.45 -156.5 20.4 -156.55 Q15.95 -158.4 15.55 -160.95 12.65 -159.15 10.05 -156.55 2.1 -148.55 1.15 -137.55 L1.0 -134.55 Q1.0 -121.7 10.05 -112.65 12.75 -109.95 15.9 -108.0 L17.45 -107.1 Q18.05 -106.8 18.75 -106.45 21.9 -104.95 25.4 -104.25 L32.05 -103.6 38.7 -104.25 Q42.2 -104.95 45.4 -106.45 L46.7 -107.1 48.2 -108.0 Q51.25 -109.95 53.95 -112.65 63.0 -121.7 63.0 -134.55 L62.9 -137.55 Q61.9 -148.55 53.95 -156.55 51.35 -159.15 48.5 -161.0 48.1 -158.4 43.6 -156.55 M27.7 -81.3 L27.7 -79.05 35.45 -79.05 35.45 -81.3 27.7 -81.3 M27.7 -77.05 L35.45 -77.05 35.45 -70.55 39.2 -70.55 39.2 -91.3 24.7 -91.3 24.7 -70.55 27.7 -70.55 27.7 -77.05 M26.7 -78.05 L26.7 -82.3 36.45 -82.3 36.45 -78.05 26.7 -78.05 M40.2 -92.3 L40.2 -69.55 23.7 -69.55 23.7 -92.3 40.2 -92.3 M8.9 -9.5 L8.95 -10.9 Q10.6 -8.6 15.1 -6.8 22.1 -4.0 32.05 -4.0 41.95 -4.0 49.0 -6.8 53.4 -8.6 55.15 -10.9 L55.2 -10.1 Q55.1 -6.4 48.6 -3.75 L48.65 -3.75 Q41.75 -1.0 32.05 -1.0 22.3 -1.0 15.45 -3.75 9.4 -6.2 8.9 -9.5" fill="#333333" fill-rule="evenodd" stroke="none"/>
    <path d="M51.7 -20.1 Q56.3 -17.5 56.2 -14.1 L56.2 -10.1 Q56.3 -5.8 49.0 -2.8 41.95 0.0 32.05 0.0 22.1 0.0 15.1 -2.8 8.4 -5.5 7.9 -9.35 L7.9 -13.5 7.9 -14.6 Q8.15 -17.7 12.4 -20.1 L12.4 -18.95 Q9.2 -16.95 8.9 -14.55 L8.9 -12.6 11.0 -10.7 Q13.45 -8.6 15.45 -7.75 22.3 -5.0 32.05 -5.0 41.75 -5.0 48.65 -7.75 53.45 -9.7 54.8 -12.25 L55.2 -14.1 Q55.15 -16.8 51.7 -18.9 L51.7 -20.1 M8.9 -9.5 Q9.4 -6.2 15.45 -3.75 22.3 -1.0 32.05 -1.0 41.75 -1.0 48.65 -3.75 L48.6 -3.75 Q55.1 -6.4 55.2 -10.1 L55.15 -10.9 Q53.4 -8.6 49.0 -6.8 41.95 -4.0 32.05 -4.0 22.1 -4.0 15.1 -6.8 10.6 -8.6 8.95 -10.9 L8.9 -9.5" fill="#1b1b1b" fill-rule="evenodd" stroke="none"/>
    <path d="M12.4 -18.95 L12.4 -17.25 Q12.65 -15.15 15.2 -13.5 16.45 -12.7 18.25 -11.95 23.95 -9.65 32.05 -9.65 40.1 -9.65 45.85 -11.95 47.65 -12.65 48.9 -13.5 51.75 -15.4 51.7 -17.85 L51.7 -18.9 Q55.15 -16.8 55.2 -14.1 L54.8 -12.25 Q53.45 -9.7 48.65 -7.75 41.75 -5.0 32.05 -5.0 22.3 -5.0 15.45 -7.75 13.45 -8.6 11.0 -10.7 L8.9 -12.6 8.9 -14.55 Q9.2 -16.95 12.4 -18.95" fill="#4a4a4a" fill-rule="evenodd" stroke="none"/>
    <path d="M22.4 -57.85 L22.6 -70.75 23.05 -99.35 Q33.35 -98.65 41.35 -100.3 L41.35 -70.75 41.35 -57.95 41.15 -58.15 40.65 -58.65 40.6 -58.65 Q38.15 -60.9 34.95 -61.55 L31.9 -61.9 29.5 -61.7 Q26.35 -61.2 23.8 -59.15 L23.8 -59.1 22.65 -58.15 22.4 -57.85 M40.2 -92.3 L23.7 -92.3 23.7 -69.55 40.2 -69.55 40.2 -92.3 M32.55 -43.25 Q28.35 -41.9 25.8 -44.45 27.05 -44.85 28.3 -43.95 36.65 -43.8 39.75 -51.3 40.9 -49.95 39.3 -47.8 36.75 -44.45 32.55 -43.25 M22.1 -40.25 L22.65 -39.65 23.8 -38.6 Q26.3 -36.5 29.5 -35.95 L31.9 -35.75 34.95 -36.05 35.0 -36.05 Q38.15 -36.85 40.6 -39.0 L40.65 -39.05 41.25 -39.7 41.15 -39.65 41.35 -39.85 41.35 -25.6 Q32.65 -20.85 21.85 -25.4 L21.85 -26.4 22.1 -40.25 M16.1 -21.4 Q17.35 -19.75 20.35 -18.45 25.3 -16.4 32.0 -16.4 38.8 -16.4 43.65 -18.45 46.7 -19.75 47.95 -21.4 L50.9 -21.4 50.55 -19.65 50.55 -19.6 Q49.45 -17.55 45.55 -15.95 39.95 -13.7 32.05 -13.7 24.1 -13.7 18.55 -15.95 16.9 -16.65 14.95 -18.45 13.25 -20.05 13.2 -20.55 L13.2 -21.4 16.1 -21.4" fill="#f7f9b7" fill-rule="evenodd" stroke="none"/>
    <path d="M34.9 -125.1 L33.35 -127.95 33.95 -128.65 Q36.35 -131.15 39.6 -129.75 L40.0 -128.55 Q40.45 -126.35 38.8 -125.15 L36.1 -123.8 34.9 -125.1 M19.05 -117.5 L21.35 -117.0 Q25.25 -115.3 26.6 -119.15 L26.85 -120.15 27.55 -119.3 28.05 -117.9 29.3 -119.15 29.35 -118.55 27.95 -116.15 27.65 -115.7 27.65 -115.85 27.3 -115.35 25.55 -113.9 23.75 -114.45 23.0 -114.3 22.4 -114.8 22.45 -114.15 22.3 -113.25 Q21.95 -112.15 21.0 -111.45 L20.35 -111.0 19.55 -110.75 18.85 -111.35 Q17.95 -112.25 17.7 -113.25 17.3 -114.8 18.5 -116.65 L19.05 -117.5 M19.8 -53.75 L20.8 -104.25 Q31.6 -100.25 42.8 -104.0 L43.85 -54.3 Q42.95 -56.25 41.35 -57.95 L41.35 -70.75 41.35 -100.3 Q33.35 -98.65 23.05 -99.35 L22.6 -70.75 22.4 -57.85 Q20.65 -56.0 19.8 -53.75 M44.1 -43.9 L44.5 -23.6 Q42.05 -22.25 39.6 -21.4 32.0 -18.8 24.4 -21.4 21.75 -22.3 19.15 -23.8 L19.6 -44.4 Q20.35 -42.15 22.1 -40.25 L21.85 -26.4 21.85 -25.4 Q32.65 -20.85 41.35 -25.6 L41.35 -39.85 Q43.15 -41.7 44.1 -43.9 M40.75 -53.25 Q42.45 -48.0 38.3 -44.4 34.55 -41.1 29.75 -41.1 27.65 -41.55 25.75 -42.45 22.55 -43.85 23.6 -46.75 29.15 -43.65 34.5 -46.5 38.15 -48.35 38.9 -51.95 L39.4 -53.6 40.75 -53.25 M32.55 -43.25 Q36.75 -44.45 39.3 -47.8 40.9 -49.95 39.75 -51.3 36.65 -43.8 28.3 -43.95 27.05 -44.85 25.8 -44.45 28.35 -41.9 32.55 -43.25 M13.2 -17.4 L13.25 -18.5 Q14.6 -16.65 18.25 -15.2 21.05 -14.05 24.4 -13.5 L32.05 -12.9 39.7 -13.5 Q43.05 -14.05 45.85 -15.2 49.4 -16.65 50.85 -18.5 L50.9 -17.85 Q50.8 -15.4 47.25 -13.5 L45.5 -12.7 45.55 -12.7 Q39.95 -10.45 32.05 -10.45 24.1 -10.45 18.55 -12.7 L16.8 -13.5 Q13.5 -15.2 13.2 -17.4" fill="#e0e613" fill-rule="evenodd" stroke="none"/>
    <path d="M18.7 -105.35 L21.55 -104.25 Q26.45 -102.6 32.05 -102.6 37.65 -102.6 42.55 -104.25 44.0 -104.75 45.4 -105.4 L47.35 -24.0 47.3 -24.0 Q47.25 -22.6 45.8 -21.4 44.75 -20.55 43.05 -19.85 38.4 -17.9 32.0 -17.9 25.6 -17.9 20.95 -19.85 19.25 -20.55 18.25 -21.4 16.8 -22.6 16.75 -24.0 L18.7 -105.35 M4.7 -146.95 L5.6 -148.15 Q10.25 -148.55 10.15 -144.1 L10.0 -143.05 9.35 -143.0 Q9.35 -144.6 7.95 -145.75 6.6 -146.95 4.7 -146.95 M39.6 -134.25 L40.85 -134.25 40.25 -133.7 39.45 -132.6 39.6 -134.25 M12.95 -140.5 L13.35 -140.8 13.6 -139.65 13.05 -139.5 12.95 -140.5 M51.85 -139.35 L51.95 -139.35 51.85 -139.3 51.85 -139.35 M43.85 -54.3 L42.8 -104.0 Q31.6 -100.25 20.8 -104.25 L19.8 -53.75 Q18.85 -51.5 18.85 -48.85 18.85 -46.5 19.6 -44.4 L19.15 -23.8 Q21.75 -22.3 24.4 -21.4 32.0 -18.8 39.6 -21.4 42.05 -22.25 44.5 -23.6 L44.1 -43.9 Q45.0 -46.2 45.0 -48.85 45.0 -51.8 43.85 -54.3 M13.2 -21.4 L13.8 -22.65 Q14.5 -23.95 15.25 -24.5 15.55 -22.15 16.1 -21.4 L13.2 -21.4 M47.95 -21.4 Q48.5 -22.15 48.85 -24.5 50.7 -23.1 50.9 -21.4 L47.95 -21.4" fill="#babe10" fill-rule="evenodd" stroke="none"/>
    <path d="M17.4 -106.0 L18.7 -105.35 16.75 -24.0 Q16.8 -22.6 18.25 -21.4 19.25 -20.55 20.95 -19.85 25.6 -17.9 32.0 -17.9 38.4 -17.9 43.05 -19.85 44.75 -20.55 45.8 -21.4 47.25 -22.6 47.3 -24.0 L47.35 -24.0 45.4 -105.4 46.7 -106.0 48.85 -25.45 Q51.55 -23.65 51.7 -21.4 L51.7 -20.1 51.7 -18.9 51.7 -17.85 Q51.75 -15.4 48.9 -13.5 47.65 -12.65 45.85 -11.95 40.1 -9.65 32.05 -9.65 23.95 -9.65 18.25 -11.95 16.45 -12.7 15.2 -13.5 12.65 -15.15 12.4 -17.25 L12.4 -18.95 12.4 -20.1 12.4 -21.55 Q12.55 -23.75 15.25 -25.5 L17.4 -106.0 M16.1 -21.4 Q15.55 -22.15 15.25 -24.5 14.5 -23.95 13.8 -22.65 L13.2 -21.4 13.2 -20.55 Q13.25 -20.05 14.95 -18.45 16.9 -16.65 18.55 -15.95 24.1 -13.7 32.05 -13.7 39.95 -13.7 45.55 -15.95 49.45 -17.55 50.55 -19.6 L50.55 -19.65 50.9 -21.4 Q50.7 -23.1 48.85 -24.5 48.5 -22.15 47.95 -21.4 46.7 -19.75 43.65 -18.45 38.8 -16.4 32.0 -16.4 25.3 -16.4 20.35 -18.45 17.35 -19.75 16.1 -21.4 M13.2 -17.4 Q13.5 -15.2 16.8 -13.5 L18.55 -12.7 Q24.1 -10.45 32.05 -10.45 39.95 -10.45 45.55 -12.7 L45.5 -12.7 47.25 -13.5 Q50.8 -15.4 50.9 -17.85 L50.85 -18.5 Q49.4 -16.65 45.85 -15.2 43.05 -14.05 39.7 -13.5 L32.05 -12.9 24.4 -13.5 Q21.05 -14.05 18.25 -15.2 14.6 -16.65 13.25 -18.5 L13.2 -17.4" fill="#515306" fill-rule="evenodd" stroke="none"/>
    <path d="M43.15 -169.2 Q47.4 -167.5 47.5 -165.1 L47.5 -165.05 Q47.5 -164.3 47.1 -163.6 L46.45 -162.9 Q45.35 -161.85 43.15 -160.95 L43.2 -160.95 Q38.55 -159.1 32.05 -159.1 25.45 -159.1 20.85 -160.95 18.7 -161.85 17.6 -162.9 L17.0 -163.6 16.95 -163.6 Q16.5 -164.25 16.5 -164.95 L16.5 -165.1 Q16.6 -167.5 20.85 -169.2 25.45 -171.1 32.05 -171.1 38.55 -171.1 43.2 -169.2 L43.15 -169.2" fill="#dddddd" fill-rule="evenodd" stroke="none"/>
    <path d="M47.55 -162.6 L47.55 -162.05 47.5 -161.9 47.5 -161.85 47.5 -161.6 Q47.4 -159.2 43.15 -157.45 L43.2 -157.45 40.35 -156.55 Q36.65 -155.6 32.05 -155.6 27.35 -155.6 23.7 -156.55 22.15 -156.95 20.85 -157.45 16.6 -159.2 16.5 -161.6 L16.5 -161.85 16.5 -162.6 16.9 -162.2 16.95 -162.15 Q18.1 -161.05 20.45 -160.05 L20.5 -160.0 Q25.25 -158.1 32.05 -158.1 38.75 -158.1 43.55 -160.0 L43.55 -160.05 Q45.95 -161.05 47.15 -162.2 L47.55 -162.6" fill="#9e9e9e" fill-rule="evenodd" stroke="none"/>
    <path d="M43.6 -156.55 Q48.1 -158.4 48.5 -161.0 51.35 -159.15 53.95 -156.55 61.9 -148.55 62.9 -137.55 L63.0 -134.55 Q63.0 -121.7 53.95 -112.65 51.25 -109.95 48.2 -108.0 L46.7 -107.1 45.4 -106.45 Q42.2 -104.95 38.7 -104.25 L32.05 -103.6 25.4 -104.25 Q21.9 -104.95 18.75 -106.45 18.05 -106.8 17.45 -107.1 L15.9 -108.0 Q12.75 -109.95 10.05 -112.65 1.0 -121.7 1.0 -134.55 L1.15 -137.55 Q2.1 -148.55 10.05 -156.55 12.65 -159.15 15.55 -160.95 15.95 -158.4 20.4 -156.55 L20.45 -156.5 20.5 -156.5 Q25.25 -154.6 32.05 -154.6 38.75 -154.6 43.55 -156.5 L43.6 -156.55 M45.1 -153.8 L41.35 -153.65 38.6 -152.9 37.25 -152.35 34.85 -151.9 Q32.3 -152.4 30.35 -150.95 L29.3 -150.2 Q27.4 -154.25 22.9 -153.75 L21.8 -153.45 Q18.75 -154.5 15.7 -153.55 L14.1 -153.15 Q8.25 -155.1 6.05 -149.55 L5.6 -148.15 4.7 -146.95 Q3.1 -145.1 3.35 -142.7 L3.55 -141.6 Q2.2 -139.6 1.85 -137.25 L2.3 -135.0 2.2 -130.45 Q2.05 -127.85 3.8 -126.35 L4.6 -125.6 Q4.45 -123.6 5.35 -121.85 L5.85 -121.15 6.65 -118.55 7.1 -117.6 Q7.45 -116.2 8.7 -115.35 L9.25 -115.1 10.95 -113.55 Q11.5 -110.4 14.55 -110.15 L15.2 -110.3 17.1 -109.75 17.5 -109.8 18.0 -109.85 Q18.35 -109.4 18.8 -109.1 19.65 -108.5 20.85 -108.35 L21.55 -108.45 Q23.45 -105.65 26.65 -106.0 L27.4 -106.25 Q28.55 -105.15 30.0 -105.35 L30.55 -105.7 Q32.2 -104.7 33.85 -105.35 L34.6 -105.65 Q36.65 -105.3 37.9 -106.9 L38.4 -107.65 Q40.2 -106.35 42.1 -107.0 43.05 -107.35 43.35 -108.2 L44.55 -109.65 45.3 -109.6 46.35 -109.55 46.6 -109.65 47.5 -109.95 49.45 -110.1 50.65 -111.65 Q52.0 -111.75 52.55 -113.15 L52.8 -114.05 Q55.85 -113.85 56.15 -116.95 L56.2 -117.7 56.75 -118.5 Q58.3 -119.95 57.95 -121.85 L57.7 -122.9 Q61.4 -124.15 60.3 -127.7 L60.0 -128.55 Q62.55 -130.0 61.8 -132.7 L61.6 -133.35 61.85 -135.85 Q62.3 -137.55 61.75 -138.95 L61.4 -139.65 Q61.6 -142.05 60.0 -143.95 L59.15 -144.9 Q59.55 -146.75 58.4 -148.25 L57.75 -149.0 Q56.35 -152.85 52.6 -151.95 L51.6 -151.65 49.95 -150.25 49.5 -150.5 51.25 -152.9 Q49.85 -155.3 47.3 -154.65 46.05 -154.55 45.1 -153.8 M46.9 -150.7 L46.7 -150.75 46.65 -150.85 46.9 -150.7 M31.3 -146.25 L31.2 -146.15 30.8 -146.35 30.7 -146.55 31.3 -146.25 M30.65 -136.95 L30.65 -137.0 30.7 -137.0 30.65 -136.95 M20.95 -137.0 L21.0 -136.65 20.75 -136.9 20.95 -137.0 M35.85 -117.8 L36.5 -117.7 36.35 -117.25 35.45 -117.1 35.85 -117.8 M41.55 -119.0 L41.7 -119.1 41.6 -118.95 41.55 -119.0 M42.75 -120.1 L43.25 -121.9 43.9 -121.05 43.8 -120.5 42.75 -120.1 M43.0 -123.3 L42.65 -123.95 43.7 -126.6 44.6 -126.65 45.0 -126.35 43.0 -123.3 M10.0 -130.5 L11.65 -130.8 10.7 -129.75 10.0 -130.5 M12.95 -138.8 L13.05 -139.5 13.6 -139.65 13.9 -139.1 13.3 -138.75 12.95 -138.8 M15.8 -132.3 L15.2 -130.9 13.75 -131.3 15.0 -132.55 15.55 -132.55 15.8 -132.3 M13.35 -120.0 L13.05 -120.35 13.45 -120.05 13.35 -120.0 M25.55 -113.9 L27.3 -115.35 27.5 -115.25 27.35 -113.6 26.5 -113.0 25.55 -113.9 M33.3 -111.65 L33.05 -111.7 33.55 -112.1 33.7 -111.95 33.3 -111.65 M42.5 -114.2 L42.5 -114.5 42.7 -114.4 42.6 -114.15 42.5 -114.2 M53.95 -141.1 L53.2 -139.65 51.95 -139.35 51.85 -139.35 51.85 -139.4 53.35 -141.6 53.95 -141.1 M50.7 -131.7 L50.55 -131.05 50.05 -130.5 49.65 -131.1 50.7 -131.7 M52.9 -124.35 L53.05 -124.4 53.15 -124.25 53.0 -124.15 52.9 -124.35 M39.95 -54.85 L38.15 -57.55 37.65 -57.8 37.3 -57.5 36.9 -57.25 36.8 -57.05 36.85 -56.65 36.95 -56.45 Q39.1 -51.7 35.35 -48.4 31.25 -44.75 26.2 -46.6 L24.35 -47.35 24.35 -58.4 Q26.7 -60.3 29.65 -60.75 L31.9 -60.95 34.8 -60.65 Q37.7 -60.0 39.95 -57.95 L39.95 -54.85 M24.35 -42.1 Q28.3 -39.8 32.95 -40.6 37.45 -41.3 39.95 -45.3 L39.95 -39.8 Q37.7 -37.7 34.8 -37.0 L31.9 -36.7 29.65 -36.9 Q26.7 -37.45 24.35 -39.35 L24.35 -42.1" fill="#ffffff" fill-rule="evenodd" stroke="none"/>
    <path d="M41.35 -153.65 L40.0 -150.0 39.95 -149.85 39.15 -150.75 37.25 -152.35 38.6 -152.9 41.35 -153.65 M46.05 -147.2 L48.85 -147.1 50.2 -145.8 49.2 -145.05 Q47.15 -143.35 47.0 -140.7 L45.9 -140.95 Q46.9 -142.85 45.85 -144.75 L45.3 -145.7 46.05 -147.2 M49.3 -150.4 L46.9 -150.7 46.65 -150.85 45.1 -153.8 Q46.05 -154.55 47.3 -154.65 49.85 -155.3 51.25 -152.9 L49.5 -150.5 49.3 -150.4 M57.75 -149.0 L58.4 -148.25 Q59.55 -146.75 59.15 -144.9 L56.55 -147.15 57.75 -149.0 M61.85 -135.85 L61.6 -133.35 Q59.5 -134.8 57.05 -133.85 L55.65 -133.25 56.75 -135.5 57.75 -135.55 58.9 -136.1 59.8 -138.15 61.85 -135.85 M34.6 -105.65 L33.85 -105.35 Q32.2 -104.7 30.55 -105.7 L30.2 -106.0 29.4 -107.15 30.05 -107.45 Q32.7 -108.8 31.85 -111.65 L33.05 -111.7 33.3 -111.65 34.05 -111.05 Q36.75 -108.7 34.6 -105.65 M21.55 -108.45 L20.85 -108.35 Q19.65 -108.5 18.8 -109.1 18.35 -109.4 18.0 -109.85 L19.55 -110.75 20.35 -111.0 21.55 -108.45 M15.2 -110.3 L14.55 -110.15 Q11.5 -110.4 10.95 -113.55 L13.75 -113.65 15.2 -110.3 M9.25 -115.1 L8.7 -115.35 Q7.45 -116.2 7.1 -117.6 L7.6 -120.65 6.7 -120.8 5.85 -121.15 5.35 -121.85 Q4.45 -123.6 4.6 -125.6 L5.65 -126.25 10.0 -126.45 10.35 -121.7 12.7 -120.8 13.05 -120.35 13.35 -120.0 12.7 -115.9 9.25 -115.1 M2.3 -135.0 L1.85 -137.25 Q3.05 -139.2 5.25 -139.7 L6.3 -139.95 8.3 -136.4 5.8 -135.9 4.45 -135.65 2.3 -135.0 M14.1 -153.15 L15.7 -153.55 Q18.75 -154.5 21.8 -153.45 L20.05 -152.9 19.35 -150.0 18.9 -148.55 20.15 -147.15 19.0 -145.05 17.75 -145.0 18.45 -148.4 16.5 -149.05 13.45 -148.8 12.8 -145.35 Q11.25 -146.5 10.95 -148.1 L10.75 -149.35 Q12.55 -149.6 13.65 -150.9 14.45 -151.85 14.1 -153.15 M32.5 -144.55 L34.2 -143.9 Q36.95 -142.55 36.6 -139.4 L37.4 -139.5 36.8 -137.05 35.1 -136.9 34.9 -138.2 33.1 -138.15 30.75 -140.25 30.75 -142.75 31.1 -143.35 31.5 -143.9 32.5 -144.55 M39.25 -140.85 L39.2 -140.85 39.2 -140.9 39.25 -140.85 M23.95 -130.65 Q22.65 -131.8 22.45 -133.6 L22.3 -134.9 26.55 -135.1 Q26.5 -134.25 26.6 -133.35 L27.0 -131.1 23.95 -130.65 M27.25 -135.9 L27.45 -136.45 27.65 -136.3 27.25 -135.9 M29.9 -129.5 L29.45 -130.05 30.05 -130.1 30.4 -129.45 29.9 -129.5 M18.25 -126.2 L17.45 -125.5 16.45 -126.05 16.85 -127.35 17.55 -127.0 18.25 -126.2 M20.1 -119.9 L21.45 -122.35 22.35 -121.5 Q24.35 -120.0 26.6 -121.05 L26.85 -120.15 26.6 -119.15 Q25.25 -115.3 21.35 -117.0 L20.1 -119.9 M39.6 -129.75 L40.4 -129.8 Q40.4 -128.5 41.4 -127.55 42.35 -126.6 43.7 -126.6 L42.65 -123.95 38.8 -125.15 Q40.45 -126.35 40.0 -128.55 L39.6 -129.75 M41.7 -119.1 L42.75 -120.1 43.8 -120.5 Q43.8 -118.95 44.65 -117.8 45.5 -116.7 46.7 -116.7 L46.55 -116.5 45.95 -116.25 42.7 -114.4 42.5 -114.5 42.75 -115.4 Q43.2 -117.55 41.6 -118.95 L41.7 -119.1 M43.25 -121.9 L43.0 -123.3 45.0 -126.35 48.15 -126.25 Q49.5 -123.95 51.85 -124.0 L52.9 -124.35 53.0 -124.15 51.65 -122.6 50.4 -120.95 49.65 -122.35 49.2 -121.55 Q46.85 -118.75 43.9 -121.05 L43.25 -121.9 M22.45 -114.15 L22.4 -114.8 23.0 -114.3 22.45 -114.15" fill="#fae803" fill-rule="evenodd" stroke="none"/>
    <path d="M33.65 -88.5 Q32.75 -89.4 31.45 -89.4 30.15 -89.4 29.25 -88.5 28.35 -87.6 28.35 -86.3 28.35 -85.0 29.25 -84.1 30.15 -83.2 31.45 -83.2 32.75 -83.2 33.65 -84.1 34.55 -85.0 34.55 -86.3 34.55 -87.6 33.65 -88.5 M26.7 -78.05 L36.45 -78.05 36.45 -82.3 26.7 -82.3 26.7 -78.05 M27.7 -77.05 L27.7 -70.55 24.7 -70.55 24.7 -91.3 39.2 -91.3 39.2 -70.55 35.45 -70.55 35.45 -77.05 27.7 -77.05" fill="#aaaaaa" fill-rule="evenodd" stroke="none"/>
    <path d="M33.65 -88.5 Q34.55 -87.6 34.55 -86.3 34.55 -85.0 33.65 -84.1 32.75 -83.2 31.45 -83.2 30.15 -83.2 29.25 -84.1 28.35 -85.0 28.35 -86.3 28.35 -87.6 29.25 -88.5 30.15 -89.4 31.45 -89.4 32.75 -89.4 33.65 -88.5 M27.7 -81.3 L35.45 -81.3 35.45 -79.05 27.7 -79.05 27.7 -81.3" fill="#8c8c8c" fill-rule="evenodd" stroke="none"/>
    <path d="M19.8 -53.75 Q20.65 -56.0 22.4 -57.85 L22.65 -58.15 23.8 -59.1 23.8 -59.15 Q26.35 -61.2 29.5 -61.7 L31.9 -61.9 34.95 -61.55 Q38.15 -60.9 40.6 -58.65 L40.65 -58.65 41.15 -58.15 41.35 -57.95 Q42.95 -56.25 43.85 -54.3 45.0 -51.8 45.0 -48.85 45.0 -46.2 44.1 -43.9 43.15 -41.7 41.35 -39.85 L41.15 -39.65 41.25 -39.7 40.65 -39.05 40.6 -39.0 Q38.15 -36.85 35.0 -36.05 L34.95 -36.05 31.9 -35.75 29.5 -35.95 Q26.3 -36.5 23.8 -38.6 L22.65 -39.65 22.1 -40.25 Q20.35 -42.15 19.6 -44.4 18.85 -46.5 18.85 -48.85 18.85 -51.5 19.8 -53.75 M39.95 -39.8 L40.5 -40.3 41.35 -41.2 Q43.65 -44.0 44.0 -47.6 L44.05 -48.85 43.95 -50.6 Q43.5 -53.9 41.35 -56.5 L40.5 -57.45 39.95 -57.95 Q37.7 -60.0 34.8 -60.65 L31.9 -60.95 29.65 -60.75 Q26.7 -60.3 24.35 -58.4 L23.3 -57.45 22.35 -56.35 Q19.8 -53.1 19.8 -48.85 19.8 -44.75 22.1 -41.65 L23.3 -40.3 24.35 -39.35 Q26.7 -37.45 29.65 -36.9 L31.9 -36.7 34.8 -37.0 Q37.7 -37.7 39.95 -39.8" fill="#525407" fill-rule="evenodd" stroke="none"/>
    <path d="M39.95 -45.3 Q40.85 -46.5 41.35 -47.65 42.35 -50.2 41.35 -52.7 L40.6 -54.15 39.95 -54.85 39.95 -57.95 40.5 -57.45 41.35 -56.5 Q43.5 -53.9 43.95 -50.6 L44.05 -48.85 44.0 -47.6 Q43.65 -44.0 41.35 -41.2 L40.5 -40.3 39.95 -39.8 39.95 -45.3 M24.35 -47.35 L23.1 -47.4 22.55 -47.1 22.45 -46.85 Q22.1 -44.5 23.7 -42.75 L24.35 -42.1 24.35 -39.35 23.3 -40.3 22.1 -41.65 Q19.8 -44.75 19.8 -48.85 19.8 -53.1 22.35 -56.35 L23.3 -57.45 24.35 -58.4 24.35 -47.35" fill="#dadada" fill-rule="evenodd" stroke="none"/>
    <path d="M39.95 -54.85 L40.6 -54.15 41.35 -52.7 Q42.35 -50.2 41.35 -47.65 40.85 -46.5 39.95 -45.3 37.45 -41.3 32.95 -40.6 28.3 -39.8 24.35 -42.1 L23.7 -42.75 Q22.1 -44.5 22.45 -46.85 L22.65 -46.15 Q23.3 -46.15 23.35 -46.8 L23.2 -46.95 22.55 -47.1 23.1 -47.4 24.35 -47.35 26.2 -46.6 Q31.25 -44.75 35.35 -48.4 39.1 -51.7 36.95 -56.45 L37.95 -55.5 38.9 -51.95 Q38.15 -48.35 34.5 -46.5 29.15 -43.65 23.6 -46.75 22.55 -43.85 25.75 -42.45 27.65 -41.55 29.75 -41.1 34.55 -41.1 38.3 -44.4 42.45 -48.0 40.75 -53.25 L39.35 -55.1 38.15 -57.55 39.95 -54.85 M36.9 -57.25 L36.85 -56.65 36.8 -57.05 36.9 -57.25 M37.3 -57.5 L37.65 -57.8 38.15 -57.55 37.3 -57.5" fill="#94970d" fill-rule="evenodd" stroke="none"/>
    <path d="M38.15 -57.55 L39.35 -55.1 40.75 -53.25 39.4 -53.6 38.9 -51.95 37.95 -55.5 36.95 -56.45 36.85 -56.65 36.9 -57.25 37.3 -57.5 38.15 -57.55 M22.55 -47.1 L23.2 -46.95 23.35 -46.8 Q23.3 -46.15 22.65 -46.15 L22.45 -46.85 22.55 -47.1" fill="#644b1e" fill-rule="evenodd" stroke="none"/>
    <path d="M49.8 -150.05 L49.3 -150.4 49.5 -150.5 49.95 -150.25 49.8 -150.05 M61.6 -133.35 L61.8 -132.7 Q62.55 -130.0 60.0 -128.55 L60.3 -127.7 Q61.4 -124.15 57.7 -122.9 L57.55 -123.1 Q58.9 -123.85 59.1 -125.45 59.3 -127.0 58.6 -128.25 L56.0 -129.5 55.95 -129.55 55.4 -130.55 55.65 -133.25 57.05 -133.85 Q59.5 -134.8 61.6 -133.35 M43.35 -108.2 Q43.05 -107.35 42.1 -107.0 40.2 -106.35 38.4 -107.65 L37.9 -106.9 Q36.65 -105.3 34.6 -105.65 36.75 -108.7 34.05 -111.05 L33.3 -111.65 33.7 -111.95 36.4 -112.15 38.0 -111.0 38.05 -110.9 Q39.15 -107.35 42.65 -107.85 L43.35 -108.2 M1.85 -137.25 Q2.2 -139.6 3.55 -141.6 L3.35 -142.7 Q3.1 -145.1 4.7 -146.95 6.6 -146.95 7.95 -145.75 9.35 -144.6 9.35 -143.0 L6.3 -139.95 5.25 -139.7 Q3.05 -139.2 1.85 -137.25 M29.3 -150.2 L30.35 -150.95 Q32.3 -152.4 34.85 -151.9 L35.25 -151.15 Q36.7 -148.45 34.4 -146.5 L31.55 -146.15 31.3 -146.25 30.7 -146.55 29.85 -147.45 29.25 -149.95 29.3 -150.2 M36.8 -137.05 L37.15 -136.3 Q38.05 -134.9 39.6 -134.25 L39.45 -132.6 40.25 -133.7 40.85 -134.25 41.15 -134.3 41.8 -132.7 40.4 -129.8 39.6 -129.75 Q36.35 -131.15 33.95 -128.65 L33.35 -127.95 32.55 -128.0 30.4 -129.45 30.05 -130.1 Q31.9 -130.2 32.5 -131.9 32.95 -133.35 32.65 -134.65 L35.1 -136.9 36.8 -137.05 M30.75 -140.25 L33.1 -138.15 30.7 -137.0 30.65 -137.0 30.65 -136.95 27.65 -136.3 27.45 -136.45 27.45 -138.9 28.0 -140.2 30.75 -140.25 M21.0 -136.65 Q21.85 -135.0 21.45 -133.2 L21.15 -132.5 15.8 -132.3 15.55 -132.55 15.25 -133.1 Q15.85 -136.15 13.15 -137.35 L12.35 -137.55 12.95 -138.8 13.3 -138.75 15.8 -136.6 16.55 -137.35 19.75 -137.6 20.75 -136.9 21.0 -136.65 M17.45 -125.5 L18.25 -123.45 Q18.7 -121.9 17.95 -120.5 L20.1 -119.9 21.35 -117.0 19.05 -117.5 17.7 -120.25 16.4 -119.7 Q15.0 -119.0 13.45 -120.05 L13.05 -120.35 12.7 -120.8 12.9 -122.15 Q13.65 -125.05 16.45 -126.05 L17.45 -125.5 M27.3 -115.35 L27.65 -115.85 27.65 -115.7 27.5 -115.25 27.3 -115.35 M27.95 -116.15 L29.35 -118.55 31.65 -119.1 32.7 -118.85 34.6 -116.3 34.9 -114.95 Q34.5 -113.8 33.35 -113.25 L32.6 -112.85 31.5 -112.4 Q30.05 -113.1 28.55 -113.85 L27.95 -116.15 M29.3 -119.15 L28.05 -117.9 27.55 -119.3 29.55 -120.35 29.3 -119.15 M51.85 -139.4 L51.85 -139.35 51.85 -139.3 50.2 -137.15 48.25 -137.6 46.8 -137.25 45.25 -138.0 45.15 -139.65 45.7 -140.75 45.9 -140.95 47.0 -140.7 47.95 -139.9 Q49.75 -138.25 51.85 -139.4" fill="#c07543" fill-rule="evenodd" stroke="none"/>
    <path d="M51.6 -151.65 L52.6 -151.95 Q56.35 -152.85 57.75 -149.0 L56.55 -147.15 55.7 -146.7 54.8 -146.75 Q51.25 -147.8 51.6 -151.65 M61.4 -139.65 L61.75 -138.95 Q62.3 -137.55 61.85 -135.85 L59.8 -138.15 61.4 -139.65 M57.7 -122.9 L57.95 -121.85 Q58.3 -119.95 56.75 -118.5 L55.85 -118.4 Q52.0 -118.55 51.65 -122.6 L53.0 -124.15 53.15 -124.25 54.2 -124.25 Q56.0 -124.25 57.55 -123.1 L57.7 -122.9 M56.2 -117.7 L56.15 -116.95 Q55.85 -113.85 52.8 -114.05 L52.55 -113.15 Q52.0 -111.75 50.65 -111.65 50.9 -115.4 47.5 -116.35 L46.55 -116.5 46.7 -116.7 47.7 -116.7 Q49.45 -117.1 50.35 -119.0 L50.9 -118.3 Q53.2 -115.7 56.2 -117.7 M47.5 -109.95 L46.6 -109.65 46.35 -109.55 45.3 -109.6 44.55 -109.65 44.75 -111.55 47.5 -109.95 M30.55 -105.7 L30.0 -105.35 Q28.55 -105.15 27.4 -106.25 L28.4 -107.1 29.4 -107.15 30.2 -106.0 30.55 -105.7 M18.0 -109.85 L17.5 -109.8 17.1 -109.75 15.2 -110.3 13.75 -113.65 10.95 -113.55 9.25 -115.1 12.7 -115.9 13.35 -120.0 13.45 -120.05 Q15.0 -119.0 16.4 -119.7 L17.7 -120.25 19.05 -117.5 18.5 -116.65 Q17.3 -114.8 17.7 -113.25 17.95 -112.25 18.85 -111.35 L19.55 -110.75 18.0 -109.85 M7.1 -117.6 L6.65 -118.55 5.85 -121.15 6.7 -120.8 7.6 -120.65 7.1 -117.6 M2.2 -130.45 L2.3 -135.0 4.45 -135.65 5.8 -135.9 6.55 -135.25 Q9.35 -132.4 6.2 -129.65 L5.35 -129.3 Q3.4 -129.05 2.2 -130.45 M5.6 -148.15 L6.05 -149.55 Q8.25 -155.1 14.1 -153.15 14.45 -151.85 13.65 -150.9 12.55 -149.6 10.75 -149.35 L10.95 -148.1 Q11.25 -146.5 12.8 -145.35 L14.2 -144.3 14.4 -143.4 13.35 -140.8 12.95 -140.5 Q12.1 -141.8 10.75 -142.7 L10.0 -143.05 10.15 -144.1 Q10.25 -148.55 5.6 -148.15 M37.85 -145.85 L39.45 -147.1 40.7 -145.3 40.0 -144.1 41.25 -144.95 44.0 -144.8 44.7 -144.15 Q45.9 -142.7 45.7 -140.75 L45.15 -139.65 44.1 -138.8 44.2 -138.05 43.5 -137.95 Q42.7 -140.05 40.5 -140.65 L39.25 -140.85 39.2 -140.9 39.65 -143.7 37.85 -145.85 M31.55 -146.15 L32.5 -144.55 31.5 -143.9 31.1 -143.35 30.8 -146.35 31.2 -146.15 31.3 -146.25 31.55 -146.15 M30.75 -142.75 L30.75 -140.25 28.0 -140.2 26.4 -141.55 28.95 -141.1 30.75 -142.75 M21.55 -139.6 L22.8 -140.1 Q25.5 -140.7 27.45 -138.9 L27.45 -136.45 27.25 -135.9 26.55 -135.1 22.3 -134.9 22.45 -133.6 Q22.65 -131.8 23.95 -130.65 L23.5 -130.65 21.55 -131.9 21.15 -132.5 21.45 -133.2 Q21.85 -135.0 21.0 -136.65 L20.95 -137.0 21.55 -139.6 M29.9 -129.5 L30.4 -129.45 32.55 -128.0 33.35 -127.95 34.9 -125.1 33.1 -125.6 32.75 -125.0 Q31.7 -123.35 29.75 -122.75 L27.85 -123.0 26.4 -126.55 29.9 -129.5 M22.05 -126.0 L21.9 -126.05 23.4 -127.65 23.7 -127.0 22.05 -126.0 M35.85 -120.3 L35.85 -117.8 35.45 -117.1 34.6 -116.3 32.7 -118.85 33.55 -118.8 Q35.1 -118.95 35.85 -120.3 M13.3 -138.75 L13.9 -139.1 16.55 -137.35 15.8 -136.6 13.3 -138.75 M15.25 -133.1 L15.55 -132.55 15.0 -132.55 15.25 -133.1 M29.35 -118.55 L29.3 -119.15 29.55 -120.35 29.95 -120.9 31.65 -119.1 29.35 -118.55 M42.5 -114.2 Q41.2 -113.95 40.15 -113.25 L38.75 -111.9 38.05 -110.95 38.0 -111.0 36.4 -112.15 36.2 -115.95 37.05 -116.25 Q40.4 -117.3 42.5 -114.5 L42.5 -114.2 M50.2 -137.15 L51.75 -133.3 50.7 -131.7 49.65 -131.1 46.95 -131.2 45.3 -133.0 46.8 -137.25 48.25 -137.6 50.2 -137.15 M50.55 -131.05 Q52.65 -131.85 54.55 -131.0 55.0 -130.8 55.4 -130.55 L55.95 -129.55 55.95 -129.5 54.3 -129.05 Q53.0 -130.35 50.95 -130.5 L50.05 -130.5 50.55 -131.05 M42.7 -114.4 L45.95 -116.25 44.35 -112.7 42.6 -114.15 42.7 -114.4" fill="#f9f1ec" fill-rule="evenodd" stroke="none"/>
    <path d="M41.35 -153.65 L45.1 -153.8 46.65 -150.85 46.7 -150.75 46.9 -150.7 49.3 -150.4 49.8 -150.05 49.65 -147.4 48.85 -147.1 46.05 -147.2 Q44.75 -150.85 40.95 -150.25 L40.0 -150.0 41.35 -153.65 M59.15 -144.9 L60.0 -143.95 Q61.6 -142.05 61.4 -139.65 L59.8 -138.15 59.05 -138.05 Q55.5 -138.4 55.1 -141.95 L53.95 -141.1 53.35 -141.6 Q53.5 -143.15 52.6 -144.45 L52.85 -145.15 53.3 -145.0 Q55.05 -144.9 55.7 -146.7 L56.55 -147.15 59.15 -144.9 M56.75 -118.5 L56.2 -117.7 Q53.2 -115.7 50.9 -118.3 L50.35 -119.0 50.4 -120.95 51.65 -122.6 Q52.0 -118.55 55.85 -118.4 L56.75 -118.5 M50.65 -111.65 L49.45 -110.1 47.5 -109.95 44.75 -111.55 44.35 -112.7 45.95 -116.25 46.55 -116.5 47.5 -116.35 Q50.9 -115.4 50.65 -111.65 M27.4 -106.25 L26.65 -106.0 Q23.45 -105.65 21.55 -108.45 L20.35 -111.0 21.0 -111.45 Q21.95 -112.15 22.3 -113.25 L22.45 -114.15 23.0 -114.3 23.75 -114.45 25.55 -113.9 26.5 -113.0 26.3 -112.15 Q25.55 -108.95 28.4 -107.1 L27.4 -106.25 M4.6 -125.6 L3.8 -126.35 Q2.05 -127.85 2.2 -130.45 3.4 -129.05 5.35 -129.3 L6.2 -129.65 Q7.85 -129.15 9.35 -130.1 L10.0 -130.5 10.7 -129.75 10.0 -126.45 5.65 -126.25 4.6 -125.6 M21.8 -153.45 L22.9 -153.75 Q27.4 -154.25 29.3 -150.2 L29.25 -149.95 27.8 -148.0 27.0 -147.6 26.1 -147.5 24.1 -147.5 23.4 -147.0 22.3 -146.5 20.15 -147.15 18.9 -148.55 19.35 -150.0 20.05 -152.9 21.8 -153.45 M34.85 -151.9 L37.25 -152.35 39.15 -150.75 39.95 -149.85 39.45 -147.1 37.85 -145.85 35.2 -145.95 34.4 -146.5 Q36.7 -148.45 35.25 -151.15 L34.85 -151.9 M17.75 -145.0 L19.0 -145.05 19.15 -144.05 Q19.6 -142.25 21.35 -141.4 L21.45 -140.0 19.75 -137.6 16.55 -137.35 13.9 -139.1 13.6 -139.65 13.35 -140.8 14.4 -143.4 17.75 -145.0 M21.15 -132.5 L21.55 -131.9 21.6 -130.95 Q21.55 -126.8 17.55 -127.0 L16.85 -127.35 15.2 -130.9 15.8 -132.3 21.15 -132.5 M21.9 -126.05 L22.05 -126.0 21.45 -122.35 20.1 -119.9 17.95 -120.5 Q18.7 -121.9 18.25 -123.45 L17.45 -125.5 18.25 -126.2 21.9 -126.05 M27.85 -123.0 L29.75 -122.75 29.95 -120.9 29.55 -120.35 27.55 -119.3 26.85 -120.15 26.6 -121.05 27.85 -123.0 M36.1 -123.8 L38.8 -125.15 42.65 -123.95 43.0 -123.3 43.25 -121.9 42.75 -120.1 41.7 -119.1 41.55 -119.0 37.9 -119.2 36.5 -117.7 35.85 -117.8 35.85 -120.3 36.2 -120.9 Q36.65 -122.35 36.1 -123.8 M45.25 -138.0 L44.2 -138.05 44.1 -138.8 45.15 -139.65 45.25 -138.0 M46.95 -131.2 L49.65 -131.1 50.05 -130.5 48.15 -126.25 45.0 -126.35 44.6 -126.65 Q47.3 -127.75 47.05 -130.45 L46.95 -131.2" fill="#fbeaa4" fill-rule="evenodd" stroke="none"/>
    <path d="M40.0 -150.0 L40.95 -150.25 Q44.75 -150.85 46.05 -147.2 L45.3 -145.7 44.0 -144.8 41.25 -144.95 40.7 -145.3 39.45 -147.1 39.95 -149.85 40.0 -150.0 M48.85 -147.1 L49.65 -147.4 49.8 -150.05 49.95 -150.25 51.6 -151.65 Q51.25 -147.8 54.8 -146.75 L55.7 -146.7 Q55.05 -144.9 53.3 -145.0 L52.85 -145.15 52.6 -144.45 Q53.5 -143.15 53.35 -141.6 L51.85 -139.4 Q49.75 -138.25 47.95 -139.9 L47.0 -140.7 Q47.15 -143.35 49.2 -145.05 L50.2 -145.8 48.85 -147.1 M44.55 -109.65 L43.35 -108.2 42.65 -107.85 Q39.15 -107.35 38.05 -110.9 L38.05 -110.95 38.75 -111.9 40.15 -113.25 Q41.2 -113.95 42.5 -114.2 L42.6 -114.15 44.35 -112.7 44.75 -111.55 44.55 -109.65 M12.8 -145.35 L13.45 -148.8 16.5 -149.05 18.45 -148.4 17.75 -145.0 14.4 -143.4 14.2 -144.3 12.8 -145.35 M19.0 -145.05 L20.15 -147.15 22.3 -146.5 23.4 -147.0 24.1 -147.5 25.15 -146.55 26.1 -147.5 27.0 -147.6 27.8 -148.0 28.95 -147.85 29.85 -147.45 30.7 -146.55 30.8 -146.35 31.1 -143.35 30.75 -142.75 28.95 -141.1 26.4 -141.55 28.0 -140.2 27.45 -138.9 Q25.5 -140.7 22.8 -140.1 L21.55 -139.6 21.45 -140.0 21.35 -141.4 Q19.6 -142.25 19.15 -144.05 L19.0 -145.05 M41.15 -134.3 L43.0 -135.55 43.5 -137.95 44.2 -138.05 45.25 -138.0 46.8 -137.25 45.3 -133.0 41.8 -132.7 41.15 -134.3 M36.5 -117.7 L37.9 -119.2 41.55 -119.0 41.6 -118.95 Q43.2 -117.55 42.75 -115.4 L42.5 -114.5 Q40.4 -117.3 37.05 -116.25 L36.2 -115.95 36.35 -117.25 36.5 -117.7 M11.65 -130.8 Q8.9 -132.4 9.2 -135.5 L9.4 -136.3 Q10.85 -136.0 11.9 -137.0 L12.35 -137.55 13.15 -137.35 Q15.85 -136.15 15.25 -133.1 L15.0 -132.55 13.75 -131.3 15.2 -130.9 16.85 -127.35 16.45 -126.05 Q13.65 -125.05 12.9 -122.15 L12.7 -120.8 10.35 -121.7 10.0 -126.45 10.7 -129.75 11.65 -130.8 M48.15 -126.25 L50.05 -130.5 50.95 -130.5 Q53.0 -130.35 54.3 -129.05 L55.95 -129.5 56.0 -129.5 58.6 -128.25 Q59.3 -127.0 59.1 -125.45 58.9 -123.85 57.55 -123.1 56.0 -124.25 54.2 -124.25 L53.15 -124.25 53.05 -124.4 52.9 -124.35 51.85 -124.0 Q49.5 -123.95 48.15 -126.25 M50.35 -119.0 Q49.45 -117.1 47.7 -116.7 L46.7 -116.7 Q45.5 -116.7 44.65 -117.8 43.8 -118.95 43.8 -120.5 L43.9 -121.05 Q46.85 -118.75 49.2 -121.55 L49.65 -122.35 50.4 -120.95 50.35 -119.0" fill="#e2d80a" fill-rule="evenodd" stroke="none"/>
    <path d="M24.1 -147.5 L26.1 -147.5 25.15 -146.55 24.1 -147.5 M27.8 -148.0 L29.25 -149.95 29.85 -147.45 28.95 -147.85 27.8 -148.0 M37.85 -145.85 L39.65 -143.7 39.2 -140.9 39.2 -140.85 39.25 -140.85 40.5 -140.65 Q42.7 -140.05 43.5 -137.95 L43.0 -135.55 41.15 -134.3 40.85 -134.25 39.6 -134.25 Q38.05 -134.9 37.15 -136.3 L36.8 -137.05 37.4 -139.5 36.6 -139.4 Q36.95 -142.55 34.2 -143.9 L32.5 -144.55 31.55 -146.15 34.4 -146.5 35.2 -145.95 37.85 -145.85 M33.1 -138.15 L34.9 -138.2 35.1 -136.9 32.65 -134.65 Q32.95 -133.35 32.5 -131.9 31.9 -130.2 30.05 -130.1 L29.45 -130.05 29.9 -129.5 26.4 -126.55 27.85 -123.0 26.6 -121.05 Q24.35 -120.0 22.35 -121.5 L21.45 -122.35 22.05 -126.0 23.7 -127.0 23.4 -127.65 21.9 -126.05 18.25 -126.2 17.55 -127.0 Q21.55 -126.8 21.6 -130.95 L21.55 -131.9 23.5 -130.65 23.95 -130.65 27.0 -131.1 26.6 -133.35 Q26.5 -134.25 26.55 -135.1 L27.25 -135.9 27.65 -136.3 30.65 -136.95 30.7 -137.0 33.1 -138.15 M21.55 -139.6 L20.95 -137.0 20.75 -136.9 19.75 -137.6 21.45 -140.0 21.55 -139.6 M29.75 -122.75 Q31.7 -123.35 32.75 -125.0 L33.1 -125.6 34.9 -125.1 36.1 -123.8 Q36.65 -122.35 36.2 -120.9 L35.85 -120.3 Q35.1 -118.95 33.55 -118.8 L32.7 -118.85 31.65 -119.1 29.95 -120.9 29.75 -122.75 M40.4 -129.8 L41.8 -132.7 45.3 -133.0 46.95 -131.2 47.05 -130.45 Q47.3 -127.75 44.6 -126.65 L43.7 -126.6 Q42.35 -126.6 41.4 -127.55 40.4 -128.5 40.4 -129.8 M12.95 -140.5 L13.05 -139.5 12.95 -138.8 12.35 -137.55 11.9 -137.0 Q10.85 -136.0 9.4 -136.3 L9.2 -135.5 Q8.9 -132.4 11.65 -130.8 L10.0 -130.5 9.35 -130.1 Q7.85 -129.15 6.2 -129.65 9.35 -132.4 6.55 -135.25 L5.8 -135.9 8.3 -136.4 6.3 -139.95 9.35 -143.0 10.0 -143.05 10.75 -142.7 Q12.1 -141.8 12.95 -140.5 M27.65 -115.7 L27.95 -116.15 28.55 -113.85 Q30.05 -113.1 31.5 -112.4 L32.6 -112.85 33.35 -113.25 Q34.5 -113.8 34.9 -114.95 L34.6 -116.3 35.45 -117.1 36.35 -117.25 36.2 -115.95 36.4 -112.15 33.7 -111.95 33.55 -112.1 33.05 -111.7 31.85 -111.65 Q32.7 -108.8 30.05 -107.45 L29.4 -107.15 28.4 -107.1 Q25.55 -108.95 26.3 -112.15 L26.5 -113.0 27.35 -113.6 27.5 -115.25 27.65 -115.7 M38.0 -111.0 L38.05 -110.95 38.05 -110.9 38.0 -111.0 M51.95 -139.35 L53.2 -139.65 53.95 -141.1 55.1 -141.95 Q55.5 -138.4 59.05 -138.05 L59.8 -138.15 58.9 -136.1 57.75 -135.55 56.75 -135.5 55.65 -133.25 55.4 -130.55 Q55.0 -130.8 54.55 -131.0 52.65 -131.85 50.55 -131.05 L50.7 -131.7 51.75 -133.3 50.2 -137.15 51.85 -139.3 51.95 -139.35 M44.0 -144.8 L45.3 -145.7 45.85 -144.75 Q46.9 -142.85 45.9 -140.95 L45.7 -140.75 Q45.9 -142.7 44.7 -144.15 L44.0 -144.8 M40.7 -145.3 L41.25 -144.95 40.0 -144.1 40.7 -145.3 M56.0 -129.5 L55.95 -129.5 55.95 -129.55 56.0 -129.5" fill="#fdfa6f" fill-rule="evenodd" stroke="none"/>
  </g>
</svg>
