<?xml version="1.0" encoding="UTF-8" standalone="no"?>
<svg xmlns:ffdec="https://www.free-decompiler.com/flash" xmlns:xlink="http://www.w3.org/1999/xlink" ffdec:objectType="shape" height="38.55px" width="26.05px" xmlns="http://www.w3.org/2000/svg">
  <g transform="matrix(1.0, 0.0, 0.0, 1.0, 0.0, 0.0)">
    <path d="M4.0 1.4 L3.7 2.85 4.15 2.1 Q4.65 1.3 5.15 1.3 L2.4 11.7 6.2 10.65 Q4.25 23.7 4.25 24.7 4.25 25.2 4.55 25.5 4.9 25.85 5.05 26.55 L5.3 29.25 Q5.3 32.1 4.3 35.8 6.0 34.65 8.35 31.55 11.15 27.85 12.05 24.65 14.15 27.85 13.4 29.8 L19.35 18.1 21.3 20.4 21.6 14.45 21.75 8.2 Q24.35 10.35 24.5 9.0 24.35 7.7 22.75 4.85 21.2 2.05 20.15 1.1 22.1 1.4 24.0 3.75 26.05 6.25 26.05 8.85 L25.65 11.4 Q26.1 11.85 25.1 11.85 L24.1 11.5 22.65 10.75 23.0 16.0 22.7 18.8 21.9 22.4 Q21.15 22.25 19.3 19.8 18.75 23.05 16.5 27.2 14.65 30.6 13.15 32.1 L12.7 31.35 Q12.25 30.0 12.1 26.7 12.05 28.7 8.65 33.25 5.2 37.9 2.95 38.55 L3.55 31.15 3.85 26.05 Q2.65 27.25 2.1 27.25 2.85 24.65 2.85 22.55 L2.35 16.4 Q0.0 15.1 0.0 14.75 0.0 13.2 1.35 8.85 2.5 5.25 4.0 1.4" fill="#17100b" fill-rule="evenodd" stroke="none"/>
    <path d="M20.15 1.1 Q21.2 2.05 22.75 4.85 24.35 7.7 24.5 9.0 24.35 10.35 21.75 8.2 L21.6 14.45 21.3 20.4 19.35 18.1 13.4 29.8 Q14.15 27.85 12.05 24.65 11.15 27.85 8.35 31.55 6.0 34.65 4.3 35.8 5.3 32.1 5.3 29.25 L5.05 26.55 Q4.9 25.85 4.55 25.5 4.25 25.2 4.25 24.7 4.25 23.7 6.2 10.65 L2.4 11.7 5.15 1.3 Q4.65 1.3 4.15 2.1 L3.7 2.85 4.0 1.4 4.65 1.05 Q5.4 0.7 6.0 0.7 6.65 0.7 6.85 0.95 L7.2 1.5 10.7 0.0 12.8 1.6 14.75 3.3 16.9 0.85 Q18.1 1.95 18.9 3.15 L19.3 2.15 Q19.8 1.1 20.15 1.1 M10.2 19.05 L9.6 15.05 Q8.7 15.35 7.4 29.35 8.35 28.0 9.15 25.45 10.2 22.2 10.2 19.05 M14.4 15.35 L14.85 18.85 Q15.65 18.3 15.85 16.2 16.0 13.85 15.05 11.75 L14.6 13.55 14.4 15.35 M8.6 2.3 L7.8 3.25 7.3 6.25 7.05 8.95 Q7.95 7.6 8.65 4.1 L8.6 2.3 M10.8 2.2 Q10.55 2.5 10.2 3.5 9.85 4.55 9.85 5.25 L9.9 6.1 10.1 6.35 10.8 4.4 11.05 2.05 10.8 2.2 M20.4 12.9 L20.35 10.95 Q20.35 8.9 19.55 6.75 18.9 4.9 18.35 4.45 18.0 5.2 18.4 11.05 L18.85 16.75 Q20.2 15.1 20.4 12.9" fill="#251b12" fill-rule="evenodd" stroke="none"/>
    <path d="M20.4 12.9 Q20.2 15.1 18.85 16.75 L18.4 11.05 Q18.0 5.2 18.35 4.45 18.9 4.9 19.55 6.75 20.35 8.9 20.35 10.95 L20.4 12.9 M10.8 2.2 L11.05 2.05 10.8 4.4 10.1 6.35 9.9 6.1 9.85 5.25 Q9.85 4.55 10.2 3.5 10.55 2.5 10.8 2.2 M8.6 2.3 L8.65 4.1 Q7.95 7.6 7.05 8.95 L7.3 6.25 7.8 3.25 8.6 2.3 M14.4 15.35 L14.6 13.55 15.05 11.75 Q16.0 13.85 15.85 16.2 15.65 18.3 14.85 18.85 L14.4 15.35 M10.2 19.05 Q10.2 22.2 9.15 25.45 8.35 28.0 7.4 29.35 8.7 15.35 9.6 15.05 L10.2 19.05" fill="#413021" fill-rule="evenodd" stroke="none"/>
  </g>
</svg>
