<?xml version="1.0" encoding="UTF-8" standalone="no"?>
<svg xmlns:ffdec="https://www.free-decompiler.com/flash" xmlns:xlink="http://www.w3.org/1999/xlink" ffdec:objectType="shape" height="65.25px" width="37.7px" xmlns="http://www.w3.org/2000/svg">
  <g transform="matrix(1.0, 0.0, 0.0, 1.0, 13.9, 2.9)">
    <path d="M11.6 49.55 Q11.25 55.85 9.1 59.35 6.95 62.85 4.3 62.25 1.6 61.6 -0.1 57.25 -1.85 52.9 -1.6 48.1 L0.25 47.8 Q0.95 54.3 1.4 56.35 1.8 58.15 2.45 58.15 3.2 58.15 4.4 58.85 5.65 59.55 6.45 59.55 L7.6 59.25 8.5 58.5 Q9.55 58.1 9.9 57.25 10.5 55.85 9.35 50.0 L11.6 49.55" fill="#362418" fill-rule="evenodd" stroke="none"/>
    <path d="M0.25 47.8 Q2.4 47.5 4.25 48.8 6.25 50.25 7.0 50.25 L8.5 58.5 7.6 59.25 6.45 59.55 Q5.65 59.55 4.4 58.85 3.2 58.15 2.45 58.15 1.8 58.15 1.4 56.35 0.95 54.3 0.25 47.8" fill="#926041" fill-rule="evenodd" stroke="none"/>
    <path d="M7.0 50.25 L9.35 50.0 Q10.5 55.85 9.9 57.25 9.55 58.1 8.5 58.5 L7.0 50.25" fill="#744d34" fill-rule="evenodd" stroke="none"/>
    <path d="M1.5 -2.75 L3.25 -2.9 Q4.1 1.9 11.95 18.85 18.65 33.45 21.4 38.15 L17.5 41.75 Q18.05 38.35 11.05 21.8 2.75 2.25 1.5 -2.75 M-6.35 -1.55 L-3.5 -2.05 Q-2.25 0.0 -1.85 6.55 L-1.75 14.9 Q-1.75 22.25 -2.15 24.9 -2.6 27.65 -5.75 39.7 L-5.95 39.75 Q-6.15 39.9 -6.15 40.5 L-6.1 41.1 -5.95 41.15 -5.95 42.4 Q-8.2 41.75 -10.45 40.7 -7.45 29.45 -7.0 27.4 -5.4 19.7 -5.4 11.6 L-5.7 5.9 Q-6.05 0.65 -6.35 -1.55 M18.15 36.3 Q17.75 36.65 17.75 37.2 17.75 37.75 18.15 38.15 18.5 38.5 19.0 38.5 19.5 38.5 19.9 38.15 20.25 37.75 20.25 37.2 20.25 36.65 19.9 36.3 19.5 35.9 19.0 35.9 18.5 35.9 18.15 36.3 M-2.8 42.65 Q-1.4 40.3 0.8 33.8 L3.15 26.95 Q4.5 28.8 4.2 30.95 L3.0 34.7 Q2.2 36.9 2.8 38.8 L2.7 38.7 Q2.35 38.35 1.9 38.35 1.45 38.35 1.15 38.7 0.8 39.0 0.8 39.45 0.8 39.9 1.15 40.25 1.45 40.55 1.9 40.55 L2.7 40.25 3.0 39.45 3.0 39.4 Q3.75 41.1 5.65 42.5 L0.05 42.35 -2.8 42.65 M10.2 42.95 L9.8 38.3 8.65 29.95 11.9 40.4 10.8 41.7 Q11.95 42.9 12.8 42.9 L12.95 43.25 10.2 42.95 M-11.0 42.1 Q-9.3 43.4 -2.65 44.5 L11.5 45.65 Q14.05 45.65 17.05 44.1 19.6 42.75 21.95 40.55 21.15 43.15 17.05 45.65 13.15 48.05 10.3 48.05 8.6 48.05 6.0 47.05 3.45 46.0 -0.45 46.0 L-4.65 46.5 Q-6.55 46.55 -11.9 44.4 L-11.0 42.1 M-7.5 38.4 Q-7.8 38.15 -8.15 38.15 L-8.75 38.4 -9.05 39.0 -8.75 39.6 -8.15 39.85 -7.5 39.6 -7.25 39.0 Q-7.25 38.65 -7.5 38.4" fill="#ddd9d0" fill-rule="evenodd" stroke="none"/>
    <path d="M21.4 38.15 Q18.65 33.45 11.95 18.85 4.1 1.9 3.25 -2.9 7.2 -1.1 9.55 6.5 13.2 18.35 14.35 20.65 19.6 31.0 23.05 35.9 L23.8 37.35 23.75 39.9 Q23.75 42.85 22.1 44.35 19.8 46.4 11.6 49.55 L9.35 50.0 7.0 50.25 Q6.25 50.25 4.25 48.8 2.4 47.5 0.25 47.8 L-1.6 48.1 Q-5.1 48.6 -9.15 47.45 -13.9 46.1 -13.9 43.5 -13.9 42.05 -10.6 31.95 -7.3 21.85 -7.3 17.3 L-8.1 9.35 -7.8 3.8 Q-7.45 0.85 -6.35 -1.55 -6.05 0.65 -5.7 5.9 L-5.4 11.6 Q-5.4 19.7 -7.0 27.4 -7.45 29.45 -10.45 40.7 L-11.0 40.4 -11.1 41.1 -11.0 42.1 -11.9 44.4 Q-6.55 46.55 -4.65 46.5 L-0.45 46.0 Q3.45 46.0 6.0 47.05 8.6 48.05 10.3 48.05 13.15 48.05 17.05 45.65 21.15 43.15 21.95 40.55 22.4 40.15 22.4 39.15 22.4 38.45 22.05 38.15 21.7 37.85 21.4 38.15" fill="#5c5047" fill-rule="evenodd" stroke="none"/>
    <path d="M1.5 -2.75 Q2.75 2.25 11.05 21.8 18.05 38.35 17.5 41.75 L12.95 43.25 12.8 42.9 13.25 42.6 13.5 41.7 13.4 41.0 13.1 40.45 11.9 40.4 8.65 29.95 9.8 38.3 10.2 42.95 5.65 42.5 Q3.75 41.1 3.0 39.4 L2.8 38.8 Q2.2 36.9 3.0 34.7 L4.2 30.95 Q4.5 28.8 3.15 26.95 L0.8 33.8 Q-1.4 40.3 -2.8 42.65 L-5.95 42.4 -5.95 41.15 -4.4 41.0 -3.45 40.5 Q-3.35 40.2 -3.95 39.95 L-5.75 39.7 Q-2.6 27.65 -2.15 24.9 -1.75 22.25 -1.75 14.9 L-1.85 6.55 Q-2.25 0.0 -3.5 -2.05 L1.5 -2.75 M8.85 39.6 Q8.45 39.2 7.9 39.2 7.35 39.2 6.95 39.6 6.55 39.95 6.55 40.5 6.55 41.05 6.95 41.45 7.35 41.8 7.9 41.8 8.45 41.8 8.85 41.45 9.25 41.05 9.25 40.5 9.25 39.95 8.85 39.6 M16.05 38.95 Q15.55 38.95 15.2 39.3 14.85 39.65 14.85 40.15 14.85 40.65 15.2 41.0 15.55 41.35 16.05 41.35 16.55 41.35 16.9 41.0 L17.25 40.15 Q17.25 39.65 16.9 39.3 16.55 38.95 16.05 38.95" fill="#eae7e1" fill-rule="evenodd" stroke="none"/>
    <path d="M17.5 41.75 L21.4 38.15 Q21.7 37.85 22.05 38.15 22.4 38.45 22.4 39.15 22.4 40.15 21.95 40.55 19.6 42.75 17.05 44.1 14.05 45.65 11.5 45.65 L-2.65 44.5 Q-9.3 43.4 -11.0 42.1 L-11.1 41.1 -11.0 40.4 -10.45 40.7 Q-8.2 41.75 -5.95 42.4 L-2.8 42.65 0.05 42.35 5.65 42.5 10.2 42.95 12.95 43.25 17.5 41.75 M18.15 36.3 Q18.5 35.9 19.0 35.9 19.5 35.9 19.9 36.3 20.25 36.65 20.25 37.2 20.25 37.75 19.9 38.15 19.5 38.5 19.0 38.5 18.5 38.5 18.15 38.15 17.75 37.75 17.75 37.2 17.75 36.65 18.15 36.3 M2.8 38.8 L3.0 39.4 3.0 39.45 2.7 40.25 1.9 40.55 Q1.45 40.55 1.15 40.25 0.8 39.9 0.8 39.45 0.8 39.0 1.15 38.7 1.45 38.35 1.9 38.35 2.35 38.35 2.7 38.7 L2.8 38.8 M11.9 40.4 L13.1 40.45 13.4 41.0 13.5 41.7 13.25 42.6 12.8 42.9 Q11.95 42.9 10.8 41.7 L11.9 40.4 M8.85 39.6 Q9.25 39.95 9.25 40.5 9.25 41.05 8.85 41.45 8.45 41.8 7.9 41.8 7.35 41.8 6.95 41.45 6.55 41.05 6.55 40.5 6.55 39.95 6.95 39.6 7.35 39.2 7.9 39.2 8.45 39.2 8.85 39.6 M16.05 38.95 Q16.55 38.95 16.9 39.3 17.25 39.65 17.25 40.15 L16.9 41.0 Q16.55 41.35 16.05 41.35 15.55 41.35 15.2 41.0 14.85 40.65 14.85 40.15 14.85 39.65 15.2 39.3 15.55 38.95 16.05 38.95 M-5.75 39.7 L-3.95 39.95 Q-3.35 40.2 -3.45 40.5 L-4.4 41.0 -5.95 41.15 -6.1 41.1 -6.15 40.5 Q-6.15 39.9 -5.95 39.75 L-5.75 39.7 M-7.5 38.4 Q-7.25 38.65 -7.25 39.0 L-7.5 39.6 -8.15 39.85 -8.75 39.6 -9.05 39.0 -8.75 38.4 -8.15 38.15 Q-7.8 38.15 -7.5 38.4" fill="#175071" fill-rule="evenodd" stroke="none"/>
  </g>
</svg>
