<?xml version="1.0" encoding="UTF-8" standalone="no"?>
<svg xmlns:ffdec="https://www.free-decompiler.com/flash" xmlns:xlink="http://www.w3.org/1999/xlink" ffdec:objectType="shape" height="182.4px" width="88.6px" xmlns="http://www.w3.org/2000/svg">
  <g transform="matrix(1.0, 0.0, 0.0, 1.0, 46.1, 145.85)">
    <path d="M-20.5 -90.8 L-19.4 -90.6 -22.75 -77.7 -24.15 -69.65 -24.45 -65.35 -24.4 -62.65 -24.2 -60.55 -25.3 -60.15 Q-25.95 -62.4 -25.55 -67.0 L-25.1 -70.95 -24.05 -76.9 -22.0 -86.1 -20.5 -90.8 M-1.4 -84.45 L-0.2 -84.2 Q-1.4 -76.45 -5.95 -67.05 L-6.2 -66.55 Q-9.1 -60.65 -10.85 -58.3 L-11.35 -57.75 -12.2 -58.65 Q-10.1 -60.35 -7.2 -66.55 L-6.25 -68.75 Q-2.55 -77.25 -1.4 -84.45 M-42.95 -67.4 Q-44.9 -69.55 -44.65 -73.55 -44.4 -78.1 -41.9 -80.95 -39.3 -83.95 -35.35 -83.95 L-34.85 -83.95 -34.05 -80.65 -33.5 -78.1 -33.8 -75.45 Q-34.6 -71.45 -37.15 -69.45 -38.95 -68.1 -42.95 -67.4 M-39.9 -78.2 Q-40.9 -77.05 -41.0 -75.4 -41.1 -73.75 -40.25 -72.5 -39.55 -71.3 -38.3 -71.2 -37.05 -71.15 -36.05 -72.25 -35.2 -73.4 -35.1 -75.05 -35.0 -76.7 -35.7 -77.95 -36.55 -79.2 -37.8 -79.25 -39.05 -79.35 -39.9 -78.2 M-42.2 -74.7 L-40.7 -78.25 -38.85 -81.6 Q-40.6 -80.95 -41.95 -78.3 -43.0 -76.15 -43.1 -74.45 -43.25 -72.0 -42.5 -70.6 L-41.35 -69.35 -42.2 -74.7 M-42.35 -79.9 L-42.85 -79.55 Q-43.7 -78.3 -44.0 -76.2 L-43.5 -76.05 -43.2 -76.35 Q-42.95 -76.8 -42.2 -79.85 L-42.35 -79.9" fill="#999999" fill-rule="evenodd" stroke="none"/>
    <path d="M-21.3 -91.45 L-20.5 -90.8 -22.0 -86.1 -24.05 -76.9 -25.1 -70.95 -25.55 -67.0 Q-25.95 -62.4 -25.3 -60.15 L-26.1 -59.5 -26.5 -63.35 -26.3 -67.95 -25.85 -72.1 -24.6 -78.85 -22.45 -87.3 -21.3 -91.45 M-19.4 -90.6 L-18.25 -91.1 -21.7 -78.2 -22.5 -74.2 -23.25 -68.45 Q-23.6 -64.2 -23.25 -60.55 L-24.2 -60.55 -24.4 -62.65 -24.45 -65.35 -24.15 -69.65 -22.75 -77.7 -19.4 -90.6 M-2.15 -85.1 L-1.4 -84.45 Q-2.55 -77.25 -6.25 -68.75 L-7.2 -66.55 Q-10.1 -60.35 -12.2 -58.65 L-13.0 -59.05 Q-10.95 -60.7 -8.2 -66.55 L-7.0 -69.2 Q-3.35 -77.7 -2.15 -85.1 M-0.2 -84.2 L0.7 -84.55 0.75 -84.6 0.35 -82.8 Q-1.55 -74.95 -2.75 -71.55 -3.5 -69.3 -4.95 -66.55 -6.85 -62.95 -9.85 -58.4 L-10.9 -56.85 -11.35 -57.75 -10.85 -58.3 Q-9.1 -60.65 -6.2 -66.55 L-5.95 -67.05 Q-1.4 -76.45 -0.2 -84.2 M-29.1 -68.85 L-29.35 -68.55 Q-31.25 -66.3 -33.7 -66.45 L-36.1 -65.65 Q-38.4 -64.85 -40.05 -64.95 -42.85 -65.1 -44.5 -67.45 -46.3 -69.95 -46.05 -74.15 -45.75 -78.9 -42.3 -82.45 -39.25 -85.55 -36.45 -85.4 L-35.25 -85.2 -33.8 -84.55 -32.65 -83.8 -31.4 -81.95 -31.0 -81.15 -30.4 -77.9 -31.1 -73.9 -31.55 -72.0 Q-31.9 -70.45 -32.2 -69.95 L-34.1 -67.85 -32.7 -67.95 Q-31.05 -68.65 -29.95 -70.15 L-29.2 -71.4 -29.1 -71.55 Q-28.35 -72.95 -28.3 -73.8 -28.25 -74.5 -28.85 -76.0 -29.45 -77.75 -30.15 -78.55 L-29.7 -79.65 -28.15 -78.0 -27.85 -77.55 Q-27.05 -76.15 -27.15 -74.85 L-27.15 -74.7 Q-27.3 -72.25 -28.15 -70.45 L-29.1 -68.85 M-34.85 -83.95 L-35.35 -83.95 Q-39.3 -83.95 -41.9 -80.95 -44.4 -78.1 -44.65 -73.55 -44.9 -69.55 -42.95 -67.4 -41.3 -66.15 -39.9 -66.05 -37.0 -65.85 -34.45 -69.05 -33.0 -70.8 -32.25 -72.9 L-31.75 -74.9 -31.55 -76.8 Q-31.35 -80.2 -33.85 -83.0 L-34.85 -83.95 M-39.25 -77.25 Q-39.85 -76.45 -39.9 -75.3 -39.95 -74.2 -39.45 -73.35 -38.95 -72.45 -38.2 -72.4 -37.45 -72.35 -36.85 -73.2 -36.25 -74.0 -36.2 -75.1 -36.15 -76.25 -36.65 -77.1 -37.15 -77.95 -37.9 -78.0 -38.65 -78.05 -39.25 -77.25 M-39.9 -78.2 Q-39.05 -79.35 -37.8 -79.25 -36.55 -79.2 -35.7 -77.95 -35.0 -76.7 -35.1 -75.05 -35.2 -73.4 -36.05 -72.25 -37.05 -71.15 -38.3 -71.2 -39.55 -71.3 -40.25 -72.5 -41.1 -73.75 -41.0 -75.4 -40.9 -77.05 -39.9 -78.2 M-21.8 -57.4 Q-21.8 -56.6 -22.35 -56.05 -22.95 -55.5 -23.75 -55.5 -24.6 -55.5 -25.15 -56.05 -25.75 -56.6 -25.75 -57.4 -25.75 -58.15 -25.15 -58.7 -24.6 -59.3 -23.75 -59.3 -22.95 -59.3 -22.35 -58.7 -21.8 -58.15 -21.8 -57.4 M-12.0 -55.9 Q-12.0 -55.0 -12.65 -54.35 -13.3 -53.8 -14.2 -53.8 -15.05 -53.8 -15.7 -54.35 -16.35 -55.0 -16.35 -55.9 -16.35 -56.8 -15.7 -57.4 -15.05 -58.05 -14.2 -58.05 -13.3 -58.05 -12.65 -57.4 -12.0 -56.8 -12.0 -55.9" fill="#333333" fill-rule="evenodd" stroke="none"/>
    <path d="M26.1 6.1 Q26.45 5.35 26.45 4.3 26.45 3.25 26.1 2.55 25.7 1.8 25.2 1.8 24.7 1.8 24.35 2.55 23.95 3.25 23.95 4.3 23.95 5.35 24.35 6.1 24.7 6.8 25.2 6.8 25.7 6.8 26.1 6.1 M8.5 1.55 L9.25 4.3 Q11.95 12.45 20.4 12.45 L22.15 12.3 Q22.1 13.0 22.3 13.45 L22.95 14.35 Q24.75 13.6 24.9 12.1 L24.7 10.65 24.6 9.95 24.3 9.85 Q24.75 9.65 23.75 9.65 L21.95 10.05 20.15 10.45 Q14.05 10.45 11.25 4.6 L10.1 1.45 Q26.1 0.0 34.65 -3.65 33.6 16.4 22.7 26.35 13.9 34.4 1.2 34.4 -8.8 34.4 -18.15 26.8 -30.75 16.55 -30.75 -2.05 L-30.65 -4.85 Q-29.6 -4.25 -28.45 -3.75 L-28.5 -2.8 Q-28.5 8.9 -23.1 15.25 -17.3 22.0 -5.7 22.0 -0.15 22.0 3.8 18.1 7.8 14.2 7.8 8.65 7.8 4.7 5.05 1.8 L7.25 1.65 8.5 1.55 M17.4 24.25 Q16.5 24.15 15.75 24.55 14.35 25.35 14.95 27.85 L15.1 28.65 15.15 28.75 15.95 28.8 Q16.95 28.8 16.5 28.65 18.5 26.25 18.5 25.35 18.5 24.25 17.4 24.25 M22.1 18.1 L22.0 17.4 19.5 17.2 Q18.8 17.55 18.8 20.8 L18.85 21.5 19.8 21.85 Q21.7 21.35 21.8 20.85 21.65 19.7 22.1 18.1" fill="#3a4147" fill-rule="evenodd" stroke="none"/>
    <path d="M5.05 1.8 Q7.8 4.7 7.8 8.65 7.8 14.2 3.8 18.1 -0.15 22.0 -5.7 22.0 -17.3 22.0 -23.1 15.25 -28.5 8.9 -28.5 -2.8 L-28.45 -3.75 Q-14.5 2.85 5.05 1.8" fill="#424a53" fill-rule="evenodd" stroke="none"/>
    <path d="M10.95 -139.45 L10.15 -140.25 Q10.05 -138.25 7.35 -135.4 L4.3 -132.45 Q2.95 -131.25 -1.2 -128.0 -5.35 -124.75 -20.35 -108.15 L-19.9 -109.4 -18.0 -114.9 -15.85 -121.35 Q-13.1 -130.4 -11.2 -134.7 -16.15 -128.2 -19.15 -117.8 L-19.2 -117.7 -20.7 -114.5 -22.25 -111.25 -23.45 -108.75 -20.6 -116.9 -20.65 -116.9 -16.85 -126.8 -17.55 -126.2 Q-13.8 -134.85 -8.15 -139.85 L-8.1 -139.85 -6.25 -142.15 Q-3.25 -145.9 0.9 -145.85 L3.3 -145.75 3.3 -145.85 Q5.95 -145.5 7.45 -144.45 L7.5 -144.45 7.6 -144.4 7.55 -144.4 10.6 -140.8 10.95 -139.45 M-3.2 -119.7 L-1.3 -121.65 0.0 -122.9 1.5 -124.3 3.3 -125.7 6.35 -127.65 5.5 -126.75 3.05 -123.7 2.25 -123.2 2.05 -123.1 -2.05 -120.4 -2.45 -120.15 -3.2 -119.7 M-5.25 -141.25 L-3.7 -142.05 0.25 -142.65 3.3 -142.8 Q5.9 -142.2 7.5 -141.4 L8.55 -140.9 8.6 -141.2 8.75 -141.5 7.45 -142.6 7.3 -142.75 7.15 -142.9 7.1 -142.9 6.6 -143.25 Q5.35 -144.0 3.3 -144.45 L0.9 -144.55 Q-2.7 -144.6 -5.3 -141.35 L-5.65 -141.0 -5.3 -141.2 -5.25 -141.25 M-14.75 -121.05 L-16.7 -115.35 3.3 -133.95 6.25 -136.45 Q7.8 -138.1 8.35 -139.3 L8.0 -139.7 Q5.85 -141.5 3.3 -142.3 L2.75 -142.3 2.0 -142.25 -2.8 -141.9 Q-4.35 -141.5 -7.5 -138.6 L-9.55 -135.15 -9.55 -135.1 -9.65 -134.95 -9.7 -134.9 -9.7 -134.85 -9.75 -134.75 -9.8 -134.65 -9.95 -134.4 -14.3 -122.35 -14.8 -121.05 -14.75 -121.05 M13.6 -129.6 L13.95 -130.25 14.55 -131.6 15.7 -132.0 15.0 -133.85 15.05 -135.1 14.65 -137.45 Q16.75 -134.5 17.3 -131.75 L17.25 -131.25 16.9 -130.9 16.85 -130.85 16.7 -130.75 16.35 -130.25 Q32.75 -71.25 42.5 -9.7 L42.5 -9.4 42.35 -9.15 Q41.1 -7.45 39.0 -6.0 37.15 -4.75 34.65 -3.65 26.1 0.0 10.1 1.45 L8.5 1.55 7.25 1.65 5.05 1.8 Q-14.5 2.85 -28.45 -3.75 -29.6 -4.25 -30.65 -4.85 L-32.35 -5.75 Q-35.45 -7.55 -38.2 -9.75 L-38.45 -10.1 -38.45 -10.6 Q-35.5 -19.25 -33.15 -28.35 L-31.7 -34.25 -29.4 -45.35 -28.65 -49.5 -27.5 -56.95 -27.45 -57.0 Q-26.15 -63.8 -29.1 -68.85 L-28.15 -70.45 -28.0 -70.25 -26.3 -67.95 -26.5 -63.35 -26.1 -59.5 Q-26.9 -58.1 -26.9 -56.95 -26.9 -55.9 -26.2 -55.25 L-27.15 -49.5 -27.85 -45.35 -30.15 -34.25 -31.6 -28.35 Q-33.95 -19.25 -36.85 -10.6 -34.7 -8.95 -32.3 -7.5 L-31.2 -6.85 -30.55 -6.5 -28.85 -5.6 -28.1 -5.25 Q-14.9 1.0 3.45 0.35 L7.15 0.15 8.0 0.1 9.8 -0.05 Q18.7 -0.85 25.3 -2.3 L27.35 -2.8 Q31.05 -3.8 33.9 -5.0 L34.7 -5.35 Q37.25 -6.5 39.0 -7.9 L40.95 -9.8 Q31.2 -71.25 14.85 -130.1 L13.6 -129.6 M-35.25 -85.2 L-34.9 -87.65 -34.5 -89.1 -34.45 -89.25 -29.5 -99.4 -30.35 -94.4 -33.15 -88.65 -33.45 -87.65 -33.35 -87.65 -33.8 -84.55 -35.25 -85.2 M-11.75 -20.1 L-14.1 -27.3 -14.0 -27.75 -13.7 -28.05 -13.25 -28.15 Q8.25 -25.7 24.4 -31.2 L24.85 -31.2 25.2 -31.0 25.4 -30.65 25.4 -22.95 24.3 -28.45 24.1 -29.5 Q8.3 -24.35 -12.5 -26.5 L-12.3 -24.85 -11.75 -20.1" fill="#5e1c1e" fill-rule="evenodd" stroke="none"/>
    <path d="M-5.25 -141.25 L-5.3 -141.2 -5.3 -141.35 -5.25 -141.25" fill="#c77a7a" fill-rule="evenodd" stroke="none"/>
    <path d="M-22.25 -111.25 L-20.7 -114.5 Q-22.5 -107.65 -23.5 -98.95 -12.9 -113.8 -3.2 -119.7 L-2.45 -120.15 -2.05 -120.4 2.05 -123.1 2.25 -123.2 3.05 -123.7 Q0.0 -119.9 -3.15 -114.9 L-5.95 -110.25 -9.4 -107.2 -9.55 -107.1 Q-16.35 -105.6 -18.6 -102.1 -20.0 -100.0 -21.3 -91.45 L-22.45 -87.3 -22.6 -87.65 -22.7 -87.65 -23.85 -90.15 Q-25.85 -93.45 -25.6 -95.9 -25.2 -100.9 -23.5 -106.7 L-22.25 -111.25 M-18.25 -91.1 L-17.3 -94.15 -16.9 -93.65 Q-15.05 -91.25 -15.1 -90.15 L-15.95 -87.65 -15.8 -87.65 -16.8 -84.95 -18.5 -80.0 Q-18.5 -79.6 -18.05 -79.35 -16.95 -78.8 -13.5 -78.8 -8.45 -78.8 -7.7 -79.45 L-4.15 -85.55 -3.35 -87.3 -3.1 -87.65 -3.15 -87.65 -1.7 -89.0 -2.25 -86.05 -2.15 -85.1 Q-3.35 -77.7 -7.0 -69.2 L-8.2 -66.55 -11.4 -66.55 Q-19.35 -68.05 -21.6 -71.5 -22.2 -72.4 -22.5 -74.2 L-21.7 -78.2 -18.25 -91.1 M0.8 -84.65 Q1.6 -86.25 2.9 -90.75 L3.3 -92.15 3.3 -91.65 3.75 -92.0 3.35 -92.3 4.2 -96.25 Q4.2 -99.1 2.55 -102.0 L2.25 -102.45 2.9 -104.1 3.3 -105.15 3.3 -103.0 Q5.85 -109.15 5.85 -111.0 L5.6 -113.25 3.3 -112.55 3.3 -115.2 1.75 -114.6 Q5.5 -120.2 9.8 -125.05 10.15 -123.2 10.85 -120.75 12.25 -115.7 12.25 -113.3 L5.25 -98.7 Q5.25 -97.45 11.8 -95.2 18.35 -93.0 18.35 -91.4 18.35 -91.2 15.55 -90.25 L15.45 -91.45 15.2 -91.95 14.65 -92.15 14.15 -91.9 13.95 -91.35 14.05 -89.8 9.2 -88.3 Q2.65 -86.35 0.8 -84.65 M16.15 -81.95 L22.0 -80.0 Q22.7 -79.7 23.25 -77.45 23.75 -75.5 23.75 -74.05 23.25 -66.65 22.15 -64.55 19.75 -59.9 15.95 -57.2 12.75 -55.4 12.75 -55.05 L12.85 -54.55 13.25 -54.5 18.05 -54.35 18.15 -53.55 18.5 -53.05 19.05 -52.95 19.55 -53.25 19.65 -53.8 19.6 -54.3 23.5 -54.3 Q23.7 -51.8 21.8 -48.8 L20.8 -47.4 20.35 -49.85 20.05 -50.35 19.5 -50.5 19.0 -50.15 18.85 -49.6 19.45 -46.7 19.75 -46.2 Q18.6 -45.05 17.25 -44.0 14.65 -41.9 9.05 -38.55 L4.15 -35.6 Q4.15 -35.2 4.3 -35.05 L4.75 -34.9 7.0 -34.4 17.0 -34.4 Q19.0 -35.05 21.85 -35.1 L22.3 -33.05 Q22.35 -32.75 22.6 -32.6 L23.2 -32.5 23.65 -32.85 23.75 -33.4 23.35 -35.15 Q25.45 -35.25 27.0 -35.8 L29.15 -35.8 Q30.15 -30.15 30.35 -25.4 L30.5 -15.6 30.2 -13.3 29.95 -12.0 29.85 -11.25 29.95 -10.5 29.75 -10.45 28.5 -10.1 28.2 -9.95 28.05 -9.75 28.0 -9.6 28.0 -9.2 Q28.05 -8.9 28.35 -8.75 L28.9 -8.65 30.2 -9.05 30.4 -7.8 26.7 -5.95 25.4 -5.3 24.5 -4.85 Q20.3 -2.75 11.4 -1.55 L0.75 -1.55 0.3 -1.6 -11.3 -3.45 Q-17.45 -4.7 -19.0 -5.55 L-19.55 -6.15 -19.35 -7.45 -16.95 -6.85 -16.4 -6.95 -16.05 -7.4 -16.15 -8.0 -16.6 -8.3 -19.05 -8.95 -18.6 -11.35 -18.45 -12.0 -17.75 -15.35 Q-17.75 -16.0 -18.25 -17.0 L-19.1 -17.75 Q-19.9 -18.15 -20.0 -18.3 L-20.55 -19.9 Q-20.8 -21.4 -21.0 -21.9 -19.4 -22.9 -17.15 -23.5 -16.0 -23.8 -16.0 -24.8 -16.0 -25.85 -19.25 -27.6 L-20.55 -28.35 Q-22.5 -29.65 -22.5 -30.75 L-21.6 -34.25 -21.5 -34.6 Q-20.5 -37.9 -20.5 -39.0 -20.5 -40.85 -15.35 -42.4 -10.75 -43.8 -10.3 -45.35 L-10.25 -45.7 Q-10.25 -46.0 -11.0 -46.5 -16.9 -47.4 -17.8 -47.85 -18.25 -48.05 -18.25 -49.35 L-18.25 -49.5 -17.8 -51.95 -17.4 -54.3 Q-17.05 -53.25 -16.2 -52.7 L-14.55 -52.35 Q-11.1 -52.35 -10.9 -56.85 L-9.85 -58.4 -6.3 -59.05 Q0.7 -61.55 4.25 -63.2 10.65 -66.2 10.65 -68.3 L10.6 -68.85 Q10.45 -69.25 9.6 -69.25 L3.8 -68.05 -3.05 -66.55 -4.95 -66.55 Q-3.5 -69.3 -2.75 -71.55 -1.55 -74.95 0.35 -82.8 L14.6 -82.3 14.7 -81.3 15.0 -80.8 Q15.2 -80.6 15.55 -80.65 15.85 -80.7 16.05 -80.9 L16.2 -81.45 16.15 -81.95 M16.55 -77.45 L16.3 -77.95 15.75 -78.15 Q15.4 -78.1 15.25 -77.85 15.0 -77.65 15.05 -77.3 L15.35 -74.3 15.65 -73.8 16.2 -73.65 Q16.5 -73.7 16.7 -73.9 L16.85 -74.45 16.55 -77.45 M16.5 -71.15 Q16.15 -71.1 16.0 -70.85 15.75 -70.65 15.8 -70.3 L16.15 -67.3 16.45 -66.8 Q16.7 -66.6 17.0 -66.65 L17.5 -66.95 17.65 -67.5 17.3 -70.45 17.05 -70.95 16.5 -71.15 M16.65 -63.4 L17.05 -60.4 17.35 -59.9 Q17.6 -59.7 17.9 -59.75 L18.4 -60.05 18.55 -60.6 18.15 -63.6 17.85 -64.1 17.3 -64.25 16.8 -63.95 16.65 -63.4 M3.6 -51.35 L9.6 -53.25 11.25 -56.05 Q12.75 -58.75 12.75 -59.5 12.75 -62.35 9.4 -61.2 4.6 -58.95 1.65 -57.9 -3.7 -55.9 -8.6 -54.55 -10.8 -53.7 -10.8 -51.15 L-10.65 -50.25 -5.25 -49.9 Q-1.65 -49.9 3.6 -51.35 M25.4 -22.95 L25.4 -30.65 25.2 -31.0 24.85 -31.2 24.4 -31.2 Q8.25 -25.7 -13.25 -28.15 L-13.7 -28.05 -14.0 -27.75 -14.1 -27.3 -11.75 -20.1 Q6.4 -18.25 25.4 -22.0 L25.6 -22.05 25.4 -22.95 M-12.3 -24.85 L-12.5 -26.5 Q8.3 -24.35 24.1 -29.5 L24.3 -28.45 Q22.4 -27.6 18.85 -26.45 9.7 -23.55 -0.35 -23.55 -8.65 -23.55 -12.3 -24.85 M4.3 -39.6 Q9.1 -43.05 9.1 -45.35 9.1 -46.6 6.5 -47.5 L4.65 -47.35 3.15 -46.55 -4.6 -43.55 -4.95 -43.4 -6.65 -42.75 Q-11.4 -40.8 -14.9 -40.0 -15.95 -39.35 -16.0 -34.25 L-16.0 -33.8 Q-16.0 -32.9 -15.0 -32.75 L-4.95 -31.5 -1.0 -31.0 Q-0.25 -31.0 0.0 -31.4 L0.15 -32.3 -0.15 -33.75 Q-0.5 -34.2 -0.5 -35.25 -0.5 -36.15 4.3 -39.6 M7.55 -6.7 L7.35 -6.15 Q7.35 -5.85 7.6 -5.65 L8.15 -5.45 8.75 -5.45 9.35 -5.5 11.2 -5.7 Q11.5 -5.75 11.7 -5.95 L11.85 -6.5 11.6 -7.0 11.05 -7.2 9.4 -7.05 8.05 -6.95 7.55 -6.7 M7.6 -10.05 L8.1 -10.1 14.5 -11.15 14.95 -11.25 18.1 -11.55 18.65 -11.55 21.7 -11.85 22.15 -12.0 22.75 -12.25 Q23.9 -12.8 23.9 -13.6 L23.65 -14.8 24.0 -16.2 24.35 -17.75 24.15 -18.4 14.3 -18.05 1.7 -17.15 -6.25 -17.3 -10.25 -17.8 -11.65 -17.7 Q-12.05 -17.6 -12.05 -17.05 L-11.8 -16.4 -11.55 -15.8 -12.05 -12.7 -12.25 -12.1 -12.25 -12.0 -12.2 -11.65 -11.75 -11.0 Q-11.3 -10.65 -10.5 -10.35 -8.4 -9.65 -3.9 -9.55 L-2.35 -9.55 -1.45 -9.55 7.6 -10.05 M4.3 -6.7 L1.4 -6.55 0.85 -6.3 0.65 -5.75 Q0.65 -5.45 0.9 -5.25 1.1 -5.05 1.45 -5.05 L4.4 -5.2 4.95 -5.45 5.1 -6.0 4.85 -6.5 4.3 -6.7 M17.9 -8.05 L14.95 -7.65 14.45 -7.35 14.3 -6.8 14.6 -6.3 Q14.85 -6.1 15.15 -6.15 L18.1 -6.55 18.6 -6.85 18.75 -7.4 18.45 -7.9 17.9 -8.05 M26.65 -18.7 L26.2 -18.35 26.15 -17.8 Q26.5 -16.3 27.0 -14.75 L27.35 -14.35 27.95 -14.25 28.35 -14.65 28.45 -15.2 27.6 -18.2 27.25 -18.65 26.65 -18.7 M25.55 -8.8 L25.3 -9.05 24.75 -9.15 24.45 -9.1 21.8 -8.65 21.3 -8.35 21.15 -7.75 21.45 -7.3 22.05 -7.15 25.05 -7.7 25.55 -8.05 25.65 -8.6 25.55 -8.8 M-13.55 -6.9 L-13.4 -6.35 -12.9 -6.05 -9.85 -5.6 -9.3 -5.75 -9.0 -6.25 -9.15 -6.8 -9.65 -7.1 -12.65 -7.55 -13.2 -7.4 -13.55 -6.9 M-2.6 -6.55 L-5.65 -6.7 -6.2 -6.5 -6.45 -6.0 -6.25 -5.45 Q-6.05 -5.2 -5.75 -5.2 L-2.65 -5.05 Q-2.35 -5.05 -2.15 -5.25 -1.9 -5.45 -1.9 -5.75 L-2.1 -6.3 -2.6 -6.55" fill="#eda7a9" fill-rule="evenodd" stroke="none"/>
    <path d="M39.0 -6.0 L39.0 -5.1 Q39.0 13.9 28.9 25.3 18.9 36.55 2.4 36.55 -14.65 36.55 -24.15 22.7 -32.15 11.0 -32.35 -5.75 L-30.65 -4.85 -30.75 -2.05 Q-30.75 16.55 -18.15 26.8 -8.8 34.4 1.2 34.4 13.9 34.4 22.7 26.35 33.6 16.4 34.65 -3.65 37.15 -4.75 39.0 -6.0 M26.1 6.1 Q25.7 6.8 25.2 6.8 24.7 6.8 24.35 6.1 23.95 5.35 23.95 4.3 23.95 3.25 24.35 2.55 24.7 1.8 25.2 1.8 25.7 1.8 26.1 2.55 26.45 3.25 26.45 4.3 26.45 5.35 26.1 6.1 M10.1 1.45 L11.25 4.6 Q14.05 10.45 20.15 10.45 L21.95 10.05 23.75 9.65 Q24.75 9.65 24.3 9.85 L24.6 9.95 24.7 10.65 24.9 12.1 Q24.75 13.6 22.95 14.35 L22.3 13.45 Q22.1 13.0 22.15 12.3 L20.4 12.45 Q11.95 12.45 9.25 4.3 L8.5 1.55 10.1 1.45 M22.1 18.1 Q21.65 19.7 21.8 20.85 21.7 21.35 19.8 21.85 L18.85 21.5 18.8 20.8 Q18.8 17.55 19.5 17.2 L22.0 17.4 22.1 18.1 M17.4 24.25 Q18.5 24.25 18.5 25.35 18.5 26.25 16.5 28.65 16.95 28.8 15.95 28.8 L15.15 28.75 15.1 28.65 14.95 27.85 Q14.35 25.35 15.75 24.55 16.5 24.15 17.4 24.25" fill="#202326" fill-rule="evenodd" stroke="none"/>
    <path d="M-14.75 -121.05 L-14.8 -121.05 -14.3 -122.35 -9.95 -134.4 -9.8 -134.65 -9.75 -134.75 -9.7 -134.85 -9.7 -134.9 -9.65 -134.95 -9.55 -135.1 -9.55 -135.15 -7.5 -138.6 Q-4.35 -141.5 -2.8 -141.9 L2.0 -142.25 -1.15 -139.95 Q-5.75 -136.35 -7.55 -133.6 L-9.8 -130.3 -11.8 -127.05 -13.6 -123.15 -14.75 -121.05" fill="#583927" fill-rule="evenodd" stroke="none"/>
    <path d="M-5.3 -141.35 Q-2.7 -144.6 0.9 -144.55 L3.3 -144.45 Q5.35 -144.0 6.6 -143.25 L7.1 -142.9 7.15 -142.9 7.3 -142.75 7.45 -142.6 8.75 -141.5 8.6 -141.2 8.55 -140.9 7.5 -141.4 Q5.9 -142.2 3.3 -142.8 L0.25 -142.65 -3.7 -142.05 -5.25 -141.25 -5.3 -141.35" fill="#ad5252" fill-rule="evenodd" stroke="none"/>
    <path d="M-5.3 -141.2 L-5.65 -141.0 -5.3 -141.35 -5.3 -141.2 M2.0 -142.25 L2.75 -142.3 3.3 -142.3 Q5.85 -141.5 8.0 -139.7 L8.35 -139.3 Q7.8 -138.1 6.25 -136.45 L3.3 -133.95 -16.7 -115.35 -14.75 -121.05 -13.6 -123.15 -11.8 -127.05 -9.8 -130.3 -7.55 -133.6 Q-5.75 -136.35 -1.15 -139.95 L2.0 -142.25" fill="#754b33" fill-rule="evenodd" stroke="none"/>
    <path d="M-20.7 -114.5 L-19.2 -117.7 -19.15 -117.8 Q-16.15 -128.2 -11.2 -134.7 -13.1 -130.4 -15.85 -121.35 L-18.0 -114.9 -19.9 -109.4 -20.35 -108.15 Q-5.35 -124.75 -1.2 -128.0 2.95 -131.25 4.3 -132.45 L7.35 -135.4 Q10.05 -138.25 10.15 -140.25 L10.95 -139.45 11.05 -136.55 Q11.05 -132.85 10.6 -132.2 L6.35 -127.65 3.3 -125.7 1.5 -124.3 0.0 -122.9 -1.3 -121.65 -3.2 -119.7 Q-12.9 -113.8 -23.5 -98.95 -22.5 -107.65 -20.7 -114.5 M12.4 -128.05 L13.6 -129.6 14.85 -130.1 Q31.2 -71.25 40.95 -9.8 L39.0 -7.9 Q37.25 -6.5 34.7 -5.35 L33.9 -5.0 34.5 -7.15 34.75 -8.05 35.4 -10.95 34.95 -11.0 34.55 -11.35 34.5 -11.95 34.55 -12.0 34.9 -12.35 35.5 -12.65 Q35.5 -15.6 34.75 -20.45 L33.5 -28.25 32.65 -32.15 Q32.2 -34.5 32.25 -36.05 32.35 -39.45 30.05 -41.45 27.75 -43.45 27.75 -43.7 27.75 -44.75 29.4 -47.25 31.0 -49.75 31.0 -50.4 31.0 -55.15 28.4 -58.05 25.75 -60.95 25.75 -61.4 25.75 -62.0 26.75 -64.15 27.75 -66.25 27.75 -66.65 L26.9 -70.2 26.0 -74.5 Q25.85 -76.7 25.05 -78.8 24.35 -80.65 24.35 -82.3 24.35 -83.2 22.2 -84.95 20.0 -86.7 20.0 -87.45 20.0 -88.15 21.15 -89.25 22.25 -90.3 22.25 -90.75 L20.35 -99.6 17.75 -110.25 Q16.95 -113.15 15.75 -120.0 14.75 -124.9 12.7 -127.65 L12.4 -128.05 M14.55 -131.6 L15.0 -133.85 15.7 -132.0 14.55 -131.6 M-28.85 -5.6 L-30.55 -6.5 -31.2 -6.85 -32.3 -7.5 Q-34.7 -8.95 -36.85 -10.6 -33.95 -19.25 -31.6 -28.35 L-30.15 -34.25 -27.85 -45.35 -27.15 -49.5 -26.2 -55.25 -25.45 -54.7 -23.95 -54.3 Q-22.35 -54.3 -21.4 -55.0 -20.5 -55.65 -20.5 -56.7 -20.5 -58.5 -21.0 -59.05 L-23.25 -60.55 Q-23.6 -64.2 -23.25 -68.45 L-22.75 -67.75 Q-21.65 -66.15 -17.5 -65.05 -13.9 -64.15 -13.9 -62.8 -13.9 -62.2 -16.9 -60.15 -20.05 -58.0 -20.4 -55.0 -20.55 -53.9 -21.55 -50.65 L-21.9 -49.5 -22.5 -47.4 -21.5 -46.3 -20.65 -45.35 -20.55 -45.0 Q-20.55 -44.75 -22.85 -42.55 -25.25 -40.35 -25.4 -39.25 L-25.35 -36.45 Q-25.3 -35.15 -25.55 -34.25 L-25.8 -33.65 Q-26.9 -31.6 -27.45 -28.35 L-27.5 -28.05 -28.5 -22.5 Q-27.15 -21.8 -25.85 -18.0 -24.75 -14.85 -24.75 -13.85 -24.75 -13.0 -25.55 -12.0 L-25.9 -11.65 -26.2 -11.35 -26.15 -11.35 -23.35 -10.25 -22.9 -9.85 -22.9 -9.3 Q-23.0 -9.0 -23.25 -8.85 L-23.85 -8.85 -26.75 -9.95 -27.1 -10.3 -27.75 -9.15 -28.45 -6.85 -28.85 -5.6 M-26.3 -67.95 L-28.0 -70.25 -28.15 -70.45 Q-27.3 -72.25 -27.15 -74.7 L-27.0 -74.25 -25.85 -72.1 -26.3 -67.95 M13.3 -105.35 L13.5 -105.9 Q13.7 -106.15 14.05 -106.15 L14.55 -105.95 14.8 -105.4 14.9 -102.4 14.7 -101.9 Q14.5 -101.65 14.2 -101.65 L13.65 -101.85 Q13.4 -102.05 13.4 -102.35 L13.3 -105.35 M14.5 -111.25 L14.7 -110.75 14.7 -109.4 14.5 -108.85 13.95 -108.65 Q13.65 -108.65 13.45 -108.85 L13.2 -109.4 13.2 -110.75 13.45 -111.25 13.95 -111.5 14.5 -111.25 M16.15 -81.95 L16.2 -81.45 16.05 -80.9 Q15.85 -80.7 15.55 -80.65 15.2 -80.6 15.0 -80.8 L14.7 -81.3 14.6 -82.3 14.45 -84.35 Q14.4 -84.65 14.65 -84.9 L15.15 -85.15 15.7 -84.95 15.95 -84.45 16.15 -81.95 M-19.05 -8.95 L-16.6 -8.3 -16.15 -8.0 -16.05 -7.4 -16.4 -6.95 -16.95 -6.85 -19.35 -7.45 -19.95 -7.6 -20.4 -7.95 -20.45 -8.55 -20.1 -9.0 -19.55 -9.05 -19.05 -8.95 M30.2 -9.05 L28.9 -8.65 28.35 -8.75 Q28.05 -8.9 28.0 -9.2 L28.0 -9.6 28.05 -9.75 28.2 -9.95 28.5 -10.1 29.75 -10.45 29.95 -10.5 30.35 -10.65 31.3 -10.95 31.85 -10.9 32.2 -10.45 32.2 -9.9 31.75 -9.55 30.2 -9.05 M23.35 -35.15 L23.75 -33.4 23.65 -32.85 23.2 -32.5 22.6 -32.6 Q22.35 -32.75 22.3 -33.05 L21.85 -35.1 21.65 -36.0 Q21.55 -36.3 21.75 -36.55 21.9 -36.8 22.2 -36.85 L22.75 -36.75 23.1 -36.3 23.35 -35.15 M19.75 -46.2 L19.45 -46.7 18.85 -49.6 19.0 -50.15 19.5 -50.5 20.05 -50.35 20.35 -49.85 20.8 -47.4 20.9 -47.0 20.8 -46.45 20.3 -46.1 19.75 -46.2 M19.6 -54.3 L19.65 -53.8 19.55 -53.25 19.05 -52.95 18.5 -53.05 18.15 -53.55 18.05 -54.35 17.65 -56.45 17.8 -57.0 18.3 -57.35 18.85 -57.2 19.15 -56.7 19.6 -54.3 M15.55 -90.25 L15.65 -88.45 15.5 -87.9 14.95 -87.65 14.4 -87.8 Q14.15 -88.05 14.15 -88.35 L14.05 -89.8 13.95 -91.35 14.15 -91.9 14.65 -92.15 15.2 -91.95 15.45 -91.45 15.55 -90.25 M14.0 -94.8 L13.75 -95.35 13.6 -98.35 13.8 -98.9 14.35 -99.15 14.85 -98.95 15.1 -98.4 15.25 -95.45 15.1 -94.9 Q14.85 -94.65 14.55 -94.65 L14.0 -94.8 M16.65 -63.4 L16.8 -63.95 17.3 -64.25 17.85 -64.1 18.15 -63.6 18.55 -60.6 18.4 -60.05 17.9 -59.75 Q17.6 -59.7 17.35 -59.9 L17.05 -60.4 16.65 -63.4 M16.5 -71.15 L17.05 -70.95 17.3 -70.45 17.65 -67.5 17.5 -66.95 17.0 -66.65 Q16.7 -66.6 16.45 -66.8 L16.15 -67.3 15.8 -70.3 Q15.75 -70.65 16.0 -70.85 16.15 -71.1 16.5 -71.15 M16.55 -77.45 L16.85 -74.45 16.7 -73.9 Q16.5 -73.7 16.2 -73.65 L15.65 -73.8 15.35 -74.3 15.05 -77.3 Q15.0 -77.65 15.25 -77.85 15.4 -78.1 15.75 -78.15 L16.3 -77.95 16.55 -77.45 M20.3 -43.35 Q20.45 -43.6 20.75 -43.65 L21.3 -43.55 21.65 -43.1 22.25 -40.2 22.15 -39.65 Q21.95 -39.4 21.65 -39.3 L21.1 -39.4 20.8 -39.9 20.2 -42.8 Q20.1 -43.1 20.3 -43.35 M-11.75 -20.1 L-12.3 -24.85 Q-8.65 -23.55 -0.35 -23.55 9.7 -23.55 18.85 -26.45 22.4 -27.6 24.3 -28.45 L25.4 -22.95 25.6 -22.05 25.4 -22.0 Q6.4 -18.25 -11.75 -20.1 M7.55 -6.7 L8.05 -6.95 9.4 -7.05 11.05 -7.2 11.6 -7.0 11.85 -6.5 11.7 -5.95 Q11.5 -5.75 11.2 -5.7 L9.35 -5.5 8.75 -5.45 8.15 -5.45 7.6 -5.65 Q7.35 -5.85 7.35 -6.15 L7.55 -6.7 M26.65 -18.7 L27.25 -18.65 27.6 -18.2 28.45 -15.2 28.35 -14.65 27.95 -14.25 27.35 -14.35 27.0 -14.75 Q26.5 -16.3 26.15 -17.8 L26.2 -18.35 26.65 -18.7 M17.9 -8.05 L18.45 -7.9 18.75 -7.4 18.6 -6.85 18.1 -6.55 15.15 -6.15 Q14.85 -6.1 14.6 -6.3 L14.3 -6.8 14.45 -7.35 14.95 -7.65 17.9 -8.05 M4.3 -6.7 L4.85 -6.5 5.1 -6.0 4.95 -5.45 4.4 -5.2 1.45 -5.05 Q1.1 -5.05 0.9 -5.25 0.65 -5.45 0.65 -5.75 L0.85 -6.3 1.4 -6.55 4.3 -6.7 M25.55 -8.8 L25.65 -8.6 25.55 -8.05 25.05 -7.7 22.05 -7.15 21.45 -7.3 21.15 -7.75 21.3 -8.35 21.8 -8.65 24.45 -9.1 24.75 -9.15 25.3 -9.05 25.55 -8.8 M-29.7 -79.65 L-28.95 -82.3 -28.15 -78.0 -29.7 -79.65 M-33.8 -84.55 L-33.35 -87.65 -33.45 -87.65 -33.15 -88.65 -30.35 -94.4 Q-31.55 -88.05 -32.65 -83.8 L-33.8 -84.55 M-2.6 -6.55 L-2.1 -6.3 -1.9 -5.75 Q-1.9 -5.45 -2.15 -5.25 -2.35 -5.05 -2.65 -5.05 L-5.75 -5.2 Q-6.05 -5.2 -6.25 -5.45 L-6.45 -6.0 -6.2 -6.5 -5.65 -6.7 -2.6 -6.55 M-13.55 -6.9 L-13.2 -7.4 -12.65 -7.55 -9.65 -7.1 -9.15 -6.8 -9.0 -6.25 -9.3 -5.75 -9.85 -5.6 -12.9 -6.05 -13.4 -6.35 -13.55 -6.9" fill="#c66767" fill-rule="evenodd" stroke="none"/>
    <path d="M-23.45 -108.75 L-22.25 -111.25 -23.5 -106.7 Q-25.2 -100.9 -25.6 -95.9 -25.85 -93.45 -23.85 -90.15 L-22.7 -87.65 -22.6 -87.65 -22.45 -87.3 -24.6 -78.85 -25.85 -72.1 -27.0 -74.25 -27.15 -74.7 -27.15 -74.85 Q-27.05 -76.15 -27.85 -77.55 L-28.15 -78.0 -28.95 -82.3 Q-27.75 -86.8 -26.65 -92.95 L-24.25 -106.25 -23.45 -108.75 M0.75 -84.6 L0.8 -84.65 Q2.65 -86.35 9.2 -88.3 L14.05 -89.8 14.15 -88.35 Q14.15 -88.05 14.4 -87.8 L14.95 -87.65 15.5 -87.9 15.65 -88.45 15.55 -90.25 Q18.35 -91.2 18.35 -91.4 18.35 -93.0 11.8 -95.2 5.25 -97.45 5.25 -98.7 L12.25 -113.3 Q12.25 -115.7 10.85 -120.75 10.15 -123.2 9.8 -125.05 L10.6 -126.0 12.4 -128.05 12.7 -127.65 Q14.75 -124.9 15.75 -120.0 16.95 -113.15 17.75 -110.25 L20.35 -99.6 22.25 -90.75 Q22.25 -90.3 21.15 -89.25 20.0 -88.15 20.0 -87.45 20.0 -86.7 22.2 -84.95 24.35 -83.2 24.35 -82.3 24.35 -80.65 25.05 -78.8 25.85 -76.7 26.0 -74.5 L26.9 -70.2 27.75 -66.65 Q27.75 -66.25 26.75 -64.15 25.75 -62.0 25.75 -61.4 25.75 -60.95 28.4 -58.05 31.0 -55.15 31.0 -50.4 31.0 -49.75 29.4 -47.25 27.75 -44.75 27.75 -43.7 27.75 -43.45 30.05 -41.45 32.35 -39.45 32.25 -36.05 32.2 -34.5 32.65 -32.15 L33.5 -28.25 34.75 -20.45 Q35.5 -15.6 35.5 -12.65 L34.9 -12.35 34.55 -12.0 34.5 -11.95 34.55 -11.35 34.95 -11.0 35.4 -10.95 34.75 -8.05 34.5 -7.15 33.9 -5.0 Q31.05 -3.8 27.35 -2.8 L25.3 -2.3 Q18.7 -0.85 9.8 -0.05 L8.0 0.1 7.15 0.15 3.45 0.35 Q-14.9 1.0 -28.1 -5.25 L-28.85 -5.6 -28.45 -6.85 -27.75 -9.15 -27.1 -10.3 -26.75 -9.95 -23.85 -8.85 -23.25 -8.85 Q-23.0 -9.0 -22.9 -9.3 L-22.9 -9.85 -23.35 -10.25 -26.15 -11.35 -26.2 -11.35 -25.9 -11.65 -25.55 -12.0 Q-24.75 -13.0 -24.75 -13.85 -24.75 -14.85 -25.85 -18.0 -27.15 -21.8 -28.5 -22.5 L-27.5 -28.05 -27.45 -28.35 Q-26.9 -31.6 -25.8 -33.65 L-25.55 -34.25 Q-25.3 -35.15 -25.35 -36.45 L-25.4 -39.25 Q-25.25 -40.35 -22.85 -42.55 -20.55 -44.75 -20.55 -45.0 L-20.65 -45.35 -21.5 -46.3 -22.5 -47.4 -21.9 -49.5 -21.55 -50.65 Q-20.55 -53.9 -20.4 -55.0 -20.05 -58.0 -16.9 -60.15 -13.9 -62.2 -13.9 -62.8 -13.9 -64.15 -17.5 -65.05 -21.65 -66.15 -22.75 -67.75 L-23.25 -68.45 -22.5 -74.2 Q-22.2 -72.4 -21.6 -71.5 -19.35 -68.05 -11.4 -66.55 L-8.2 -66.55 Q-10.95 -60.7 -13.0 -59.05 -14.45 -59.05 -15.8 -58.5 -17.65 -57.7 -17.65 -56.05 L-17.4 -54.3 -17.8 -51.95 -18.25 -49.5 -18.25 -49.35 Q-18.25 -48.05 -17.8 -47.85 -16.9 -47.4 -11.0 -46.5 -10.25 -46.0 -10.25 -45.7 L-10.3 -45.35 Q-10.75 -43.8 -15.35 -42.4 -20.5 -40.85 -20.5 -39.0 -20.5 -37.9 -21.5 -34.6 L-21.6 -34.25 -22.5 -30.75 Q-22.5 -29.65 -20.55 -28.35 L-19.25 -27.6 Q-16.0 -25.85 -16.0 -24.8 -16.0 -23.8 -17.15 -23.5 -19.4 -22.9 -21.0 -21.9 -20.8 -21.4 -20.55 -19.9 L-20.0 -18.3 Q-19.9 -18.15 -19.1 -17.75 L-18.25 -17.0 Q-17.75 -16.0 -17.75 -15.35 L-18.45 -12.0 -18.6 -11.35 -19.05 -8.95 -19.55 -9.05 -20.1 -9.0 -20.45 -8.55 -20.4 -7.95 -19.95 -7.6 -19.35 -7.45 -19.55 -6.15 -19.0 -5.55 Q-17.45 -4.7 -11.3 -3.45 L0.3 -1.6 0.75 -1.55 11.4 -1.55 Q20.3 -2.75 24.5 -4.85 L25.4 -5.3 26.7 -5.95 30.4 -7.8 30.2 -9.05 31.75 -9.55 32.2 -9.9 32.2 -10.45 31.85 -10.9 31.3 -10.95 30.35 -10.65 29.95 -10.5 29.85 -11.25 29.95 -12.0 30.2 -13.3 30.5 -15.6 30.35 -25.4 Q30.15 -30.15 29.15 -35.8 L27.0 -35.8 Q25.45 -35.25 23.35 -35.15 L23.1 -36.3 22.75 -36.75 22.2 -36.85 Q21.9 -36.8 21.75 -36.55 21.55 -36.3 21.65 -36.0 L21.85 -35.1 Q19.0 -35.05 17.0 -34.4 L7.0 -34.4 4.75 -34.9 4.3 -35.05 Q4.15 -35.2 4.15 -35.6 L9.05 -38.55 Q14.65 -41.9 17.25 -44.0 18.6 -45.05 19.75 -46.2 L20.3 -46.1 20.8 -46.45 20.9 -47.0 20.8 -47.4 21.8 -48.8 Q23.7 -51.8 23.5 -54.3 L19.6 -54.3 19.15 -56.7 18.85 -57.2 18.3 -57.35 17.8 -57.0 17.65 -56.45 18.05 -54.35 13.25 -54.5 12.85 -54.55 12.75 -55.05 Q12.75 -55.4 15.95 -57.2 19.75 -59.9 22.15 -64.55 23.25 -66.65 23.75 -74.05 23.75 -75.5 23.25 -77.45 22.7 -79.7 22.0 -80.0 L16.15 -81.95 15.95 -84.45 15.7 -84.95 15.15 -85.15 14.65 -84.9 Q14.4 -84.65 14.45 -84.35 L14.6 -82.3 0.35 -82.8 0.75 -84.6 M14.5 -111.25 L13.95 -111.5 13.45 -111.25 13.2 -110.75 13.2 -109.4 13.45 -108.85 Q13.65 -108.65 13.95 -108.65 L14.5 -108.85 14.7 -109.4 14.7 -110.75 14.5 -111.25 M13.3 -105.35 L13.4 -102.35 Q13.4 -102.05 13.65 -101.85 L14.2 -101.65 Q14.5 -101.65 14.7 -101.9 L14.9 -102.4 14.8 -105.4 14.55 -105.95 14.05 -106.15 Q13.7 -106.15 13.5 -105.9 L13.3 -105.35 M-4.95 -66.55 L-3.05 -66.55 3.8 -68.05 9.6 -69.25 Q10.45 -69.25 10.6 -68.85 L10.65 -68.3 Q10.65 -66.2 4.25 -63.2 0.7 -61.55 -6.3 -59.05 L-9.85 -58.4 Q-6.85 -62.95 -4.95 -66.55 M14.0 -94.8 L14.55 -94.65 Q14.85 -94.65 15.1 -94.9 L15.25 -95.45 15.1 -98.4 14.85 -98.95 14.35 -99.15 13.8 -98.9 13.6 -98.35 13.75 -95.35 14.0 -94.8 M20.3 -43.35 Q20.1 -43.1 20.2 -42.8 L20.8 -39.9 21.1 -39.4 21.65 -39.3 Q21.95 -39.4 22.15 -39.65 L22.25 -40.2 21.65 -43.1 21.3 -43.55 20.75 -43.65 Q20.45 -43.6 20.3 -43.35" fill="#db8b8b" fill-rule="evenodd" stroke="none"/>
    <path d="M-5.95 -110.25 L-7.35 -107.5 -9.55 -107.1 -9.4 -107.2 -5.95 -110.25 M-17.3 -94.15 Q-15.95 -98.5 -14.9 -99.85 -12.35 -103.35 -6.4 -103.35 -3.15 -103.35 -1.3 -100.2 -0.15 -98.2 -0.15 -96.85 L-1.7 -89.0 -3.15 -87.65 -3.1 -87.65 -3.35 -87.3 -4.15 -85.55 -7.7 -79.45 Q-8.45 -78.8 -13.5 -78.8 -16.95 -78.8 -18.05 -79.35 -18.5 -79.6 -18.5 -80.0 L-16.8 -84.95 -15.8 -87.65 -15.95 -87.65 -15.1 -90.15 Q-15.05 -91.25 -16.9 -93.65 L-17.3 -94.15 M3.3 -92.15 L3.35 -92.3 3.75 -92.0 3.3 -91.65 3.3 -92.15 M2.25 -102.45 Q0.2 -105.65 -3.3 -106.65 L1.75 -114.6 3.3 -115.2 3.3 -112.55 5.6 -113.25 5.85 -111.0 Q5.85 -109.15 3.3 -103.0 L3.3 -105.15 2.9 -104.1 2.25 -102.45 M3.6 -51.35 Q-1.65 -49.9 -5.25 -49.9 L-10.65 -50.25 -10.8 -51.15 Q-10.8 -53.7 -8.6 -54.55 -3.7 -55.9 1.65 -57.9 4.6 -58.95 9.4 -61.2 12.75 -62.35 12.75 -59.5 12.75 -58.75 11.25 -56.05 L9.6 -53.25 3.6 -51.35 M4.3 -39.6 Q-0.5 -36.15 -0.5 -35.25 -0.5 -34.2 -0.15 -33.75 L0.15 -32.3 0.0 -31.4 Q-0.25 -31.0 -1.0 -31.0 L-4.95 -31.5 -15.0 -32.75 Q-16.0 -32.9 -16.0 -33.8 L-16.0 -34.25 Q-15.95 -39.35 -14.9 -40.0 -11.4 -40.8 -6.65 -42.75 L-4.95 -43.4 -4.6 -43.55 3.15 -46.55 4.65 -47.35 6.5 -47.5 Q9.1 -46.6 9.1 -45.35 9.1 -43.05 4.3 -39.6 M7.6 -10.05 L-1.45 -9.55 -2.35 -9.55 -3.9 -9.55 Q-8.4 -9.65 -10.5 -10.35 -11.3 -10.65 -11.75 -11.0 L-12.2 -11.65 -12.25 -12.0 -12.25 -12.1 -12.05 -12.7 -11.55 -15.8 -11.8 -16.4 -12.05 -17.05 Q-12.05 -17.6 -11.65 -17.7 L-10.25 -17.8 -6.25 -17.3 1.7 -17.15 14.3 -18.05 24.15 -18.4 24.35 -17.75 24.0 -16.2 23.65 -14.8 23.9 -13.6 Q23.9 -12.8 22.75 -12.25 L22.15 -12.0 21.7 -11.85 18.65 -11.55 18.1 -11.55 14.95 -11.25 14.5 -11.15 8.1 -10.1 7.6 -10.05" fill="#ffbbbd" fill-rule="evenodd" stroke="none"/>
    <path d="M10.95 -139.45 L10.6 -140.8 7.55 -144.4 7.6 -144.4 9.4 -144.7 Q12.95 -143.35 14.3 -139.2 L14.65 -137.45 15.05 -135.1 15.0 -133.85 14.55 -131.6 13.95 -130.25 13.6 -129.6 12.4 -128.05 10.6 -126.0 9.8 -125.05 Q5.5 -120.2 1.75 -114.6 L-3.3 -106.65 Q0.2 -105.65 2.25 -102.45 L2.55 -102.0 Q4.2 -99.1 4.2 -96.25 L3.35 -92.3 3.3 -92.15 2.9 -90.75 Q1.6 -86.25 0.8 -84.65 L0.75 -84.6 0.7 -84.55 -0.2 -84.2 -1.4 -84.45 -2.15 -85.1 -2.25 -86.05 -1.7 -89.0 -0.15 -96.85 Q-0.15 -98.2 -1.3 -100.2 -3.15 -103.35 -6.4 -103.35 -12.35 -103.35 -14.9 -99.85 -15.95 -98.5 -17.3 -94.15 L-18.25 -91.1 -19.4 -90.6 -20.5 -90.8 -21.3 -91.45 Q-20.0 -100.0 -18.6 -102.1 -16.35 -105.6 -9.55 -107.1 L-7.35 -107.5 -5.95 -110.25 -3.15 -114.9 Q0.0 -119.9 3.05 -123.7 L5.5 -126.75 6.35 -127.65 10.6 -132.2 Q11.05 -132.85 11.05 -136.55 L10.95 -139.45 M-17.55 -126.2 L-16.85 -126.8 -20.65 -116.9 -20.6 -116.9 -23.45 -108.75 -24.25 -106.25 -26.65 -92.95 Q-27.75 -86.8 -28.95 -82.3 L-29.7 -79.65 -30.15 -78.55 -30.4 -77.9 -31.0 -81.15 Q-30.0 -84.15 -29.25 -87.6 -28.3 -91.8 -27.7 -96.65 L-27.25 -100.85 -27.15 -102.4 -26.9 -104.85 Q-25.8 -112.3 -21.3 -119.55 -26.45 -114.4 -28.25 -102.45 L-28.3 -101.95 -28.7 -97.85 Q-29.9 -87.1 -31.4 -81.95 L-32.65 -83.8 Q-31.55 -88.05 -30.35 -94.4 L-29.5 -99.4 -29.4 -100.25 Q-27.8 -110.65 -24.55 -116.6 -21.35 -122.7 -18.35 -125.45 L-17.55 -126.2 M5.15 -125.15 Q-0.15 -118.55 -3.0 -112.25 L-3.15 -111.95 Q-5.35 -107.05 -7.8 -105.0 -2.35 -104.9 0.1 -101.3 L1.05 -99.45 Q1.65 -97.9 1.65 -96.25 L1.5 -94.8 0.6 -90.55 -0.55 -86.3 Q0.95 -84.8 1.8 -89.65 L2.1 -91.55 2.35 -94.05 2.4 -95.9 Q2.4 -98.3 1.4 -100.25 L0.8 -101.2 Q-1.25 -104.35 -5.65 -105.6 -4.25 -109.15 -2.25 -112.7 1.35 -119.05 6.95 -125.4 L8.55 -127.2 10.95 -130.15 11.65 -131.1 Q13.3 -133.75 12.75 -135.9 12.6 -134.2 8.05 -128.65 L6.95 -127.35 5.15 -125.15 M-26.2 -55.25 Q-26.9 -55.9 -26.9 -56.95 -26.9 -58.1 -26.1 -59.5 L-25.3 -60.15 -24.2 -60.55 -23.25 -60.55 -21.0 -59.05 Q-20.5 -58.5 -20.5 -56.7 -20.5 -55.65 -21.4 -55.0 -22.35 -54.3 -23.95 -54.3 L-25.45 -54.7 -26.2 -55.25 M-10.9 -56.85 Q-11.1 -52.35 -14.55 -52.35 L-16.2 -52.7 Q-17.05 -53.25 -17.4 -54.3 L-17.65 -56.05 Q-17.65 -57.7 -15.8 -58.5 -14.45 -59.05 -13.0 -59.05 L-12.2 -58.65 -11.35 -57.75 -10.9 -56.85 M-16.05 -101.15 Q-15.05 -102.65 -13.6 -103.6 -14.75 -103.55 -15.35 -103.1 -17.65 -99.95 -18.75 -97.4 L-19.25 -96.2 Q-19.9 -94.25 -19.8 -92.7 L-18.55 -95.55 -17.0 -99.1 -16.05 -101.15 M-21.8 -57.4 Q-21.8 -58.15 -22.35 -58.7 -22.95 -59.3 -23.75 -59.3 -24.6 -59.3 -25.15 -58.7 -25.75 -58.15 -25.75 -57.4 -25.75 -56.6 -25.15 -56.05 -24.6 -55.5 -23.75 -55.5 -22.95 -55.5 -22.35 -56.05 -21.8 -56.6 -21.8 -57.4 M-12.0 -55.9 Q-12.0 -56.8 -12.65 -57.4 -13.3 -58.05 -14.2 -58.05 -15.05 -58.05 -15.7 -57.4 -16.35 -56.8 -16.35 -55.9 -16.35 -55.0 -15.7 -54.35 -15.05 -53.8 -14.2 -53.8 -13.3 -53.8 -12.65 -54.35 -12.0 -55.0 -12.0 -55.9" fill="#202020" fill-rule="evenodd" stroke="none"/>
    <path d="M5.15 -125.15 L6.95 -127.35 8.05 -128.65 Q12.6 -134.2 12.75 -135.9 13.3 -133.75 11.65 -131.1 L10.95 -130.15 8.55 -127.2 6.95 -125.4 Q1.35 -119.05 -2.25 -112.7 -4.25 -109.15 -5.65 -105.6 -1.25 -104.35 0.8 -101.2 L1.4 -100.25 Q2.4 -98.3 2.4 -95.9 L2.35 -94.05 2.1 -91.55 1.8 -89.65 Q0.95 -84.8 -0.55 -86.3 L0.6 -90.55 1.5 -94.8 1.65 -96.25 Q1.65 -97.9 1.05 -99.45 L0.1 -101.3 Q-2.35 -104.9 -7.8 -105.0 -5.35 -107.05 -3.15 -111.95 L-3.0 -112.25 Q-0.15 -118.55 5.15 -125.15 M-31.4 -81.95 Q-29.9 -87.1 -28.7 -97.85 L-28.3 -101.95 -28.25 -102.45 Q-26.45 -114.4 -21.3 -119.55 -25.8 -112.3 -26.9 -104.85 L-27.15 -102.4 -27.25 -100.85 -27.7 -96.65 Q-28.3 -91.8 -29.25 -87.6 -30.0 -84.15 -31.0 -81.15 L-31.4 -81.95 M-30.4 -77.9 L-30.15 -78.55 Q-29.45 -77.75 -28.85 -76.0 -28.25 -74.5 -28.3 -73.8 -28.35 -72.95 -29.1 -71.55 L-29.2 -71.4 -29.95 -70.15 Q-31.05 -68.65 -32.7 -67.95 L-34.1 -67.85 -32.2 -69.95 Q-31.9 -70.45 -31.55 -72.0 L-31.1 -73.9 -30.4 -77.9 M-16.05 -101.15 L-17.0 -99.1 -18.55 -95.55 -19.8 -92.7 Q-19.9 -94.25 -19.25 -96.2 L-18.75 -97.4 Q-17.65 -99.95 -15.35 -103.1 -14.75 -103.55 -13.6 -103.6 -15.05 -102.65 -16.05 -101.15 M-39.25 -77.25 Q-38.65 -78.05 -37.9 -78.0 -37.15 -77.95 -36.65 -77.1 -36.15 -76.25 -36.2 -75.1 -36.25 -74.0 -36.85 -73.2 -37.45 -72.35 -38.2 -72.4 -38.95 -72.45 -39.45 -73.35 -39.95 -74.2 -39.9 -75.3 -39.85 -76.45 -39.25 -77.25" fill="#666666" fill-rule="evenodd" stroke="none"/>
    <path d="M-42.95 -67.4 Q-38.95 -68.1 -37.15 -69.45 -34.6 -71.45 -33.8 -75.45 L-33.5 -78.1 -34.05 -80.65 -34.85 -83.95 -33.85 -83.0 Q-31.35 -80.2 -31.55 -76.8 L-31.75 -74.9 -32.25 -72.9 Q-33.0 -70.8 -34.45 -69.05 -37.0 -65.85 -39.9 -66.05 -41.3 -66.15 -42.95 -67.4 M-42.35 -79.9 L-42.2 -79.85 Q-42.95 -76.8 -43.2 -76.35 L-43.5 -76.05 -44.0 -76.2 Q-43.7 -78.3 -42.85 -79.55 L-42.35 -79.9 M-42.2 -74.7 L-41.35 -69.35 -42.5 -70.6 Q-43.25 -72.0 -43.1 -74.45 -43.0 -76.15 -41.95 -78.3 -40.6 -80.95 -38.85 -81.6 L-40.7 -78.25 -42.2 -74.7" fill="#c6c6c6" fill-rule="evenodd" stroke="none"/>
  </g>
</svg>
