<?xml version="1.0" encoding="UTF-8" standalone="no"?>
<svg xmlns:ffdec="https://www.free-decompiler.com/flash" xmlns:xlink="http://www.w3.org/1999/xlink" ffdec:objectType="shape" height="79.95px" width="82.05px" xmlns="http://www.w3.org/2000/svg">
  <g transform="matrix(1.0, 0.0, 0.0, 1.0, 40.65, 46.6)">
    <path d="M9.3 -13.95 Q10.45 -13.65 11.65 -12.95 L5.95 -2.2 Q8.6 -5.1 17.9 -8.8 L30.05 -13.25 Q29.7 -11.45 29.7 -10.7 29.7 -9.3 30.25 -6.75 18.1 -5.9 12.4 -3.9 10.9 -3.35 4.75 0.2 L4.85 -0.2 -0.1 8.25 -8.25 21.95 Q-7.25 10.0 -3.05 -1.4 0.6 -11.35 5.15 -13.5 L9.3 -13.95 M-11.5 2.05 L-10.35 0.1 Q-6.2 -7.0 -3.2 -7.45 -6.95 3.25 -8.45 5.8 -10.75 9.75 -14.6 9.75 L-16.4 9.5 Q-15.5 8.7 -11.75 2.45 L-11.55 2.15 -11.5 2.05 M31.2 4.3 Q25.35 2.8 21.5 5.15 20.4 5.8 18.25 8.4 L13.45 13.45 Q13.6 10.95 14.4 8.9 15.35 6.45 17.0 5.3 8.85 9.5 5.55 13.2 L0.95 13.65 Q2.2 12.9 4.5 10.3 L8.9 5.2 Q15.25 -1.7 20.9 -2.75 L20.95 -2.1 31.35 -2.1 Q31.95 3.25 31.2 4.3 M0.45 24.15 Q1.9 20.0 2.6 18.85 4.1 16.25 6.7 15.9 6.7 17.7 4.05 20.85 1.7 23.7 0.45 24.15 M-15.25 -4.75 Q-14.0 -7.45 -10.35 -8.25 -9.9 -6.6 -9.9 -5.65 -9.9 -0.9 -14.3 3.1 -18.65 7.0 -22.1 5.65 -17.8 0.8 -15.25 -4.75 M-12.35 17.1 Q-15.35 18.9 -18.75 18.25 L-10.1 10.85 Q-9.6 12.35 -9.6 13.35 -9.6 15.45 -12.35 17.1" fill="#ffffff" fill-rule="evenodd" stroke="none"/>
    <path d="M28.2 -35.55 Q16.0 -36.2 11.65 -31.8 7.35 -27.35 3.9 -25.8 0.5 -24.25 -4.45 -23.7 L-9.65 -24.0 Q-0.8 -26.35 4.0 -29.55 L10.9 -34.55 Q17.55 -39.4 24.75 -39.1 L28.2 -35.55 M9.4 -42.6 L13.0 -41.2 Q10.05 -40.2 7.9 -38.5 5.8 -36.85 -9.0 -28.45 L-8.15 -29.35 Q-4.35 -33.35 0.85 -37.55 7.1 -42.55 9.4 -42.6 M13.2 -14.0 L12.0 -12.9 15.35 -12.75 Q13.1 -11.8 9.95 -7.95 13.65 -10.25 16.9 -11.25 L30.95 -15.65 30.05 -13.25 17.9 -8.8 Q8.6 -5.1 5.95 -2.2 L11.65 -12.95 Q10.45 -13.65 9.3 -13.95 L13.2 -14.0 M3.65 -13.25 L5.15 -13.5 Q0.6 -11.35 -3.05 -1.4 -7.25 10.0 -8.25 21.95 L-0.1 8.25 4.85 -0.2 4.75 0.2 Q10.9 -3.35 12.4 -3.9 18.1 -5.9 30.25 -6.75 L31.35 -2.1 20.95 -2.1 20.9 -2.75 24.25 -2.85 Q26.95 -3.15 28.35 -4.1 L24.55 -4.25 Q18.95 -4.25 15.85 -2.8 13.5 -1.7 11.3 1.05 8.8 4.6 6.9 6.7 3.55 10.45 -1.35 13.5 L0.65 14.25 3.0 14.65 Q5.3 14.65 7.2 13.85 8.95 13.1 9.3 12.25 L8.6 12.2 Q7.5 12.3 5.55 13.2 8.85 9.5 17.0 5.3 15.35 6.45 14.4 8.9 13.6 10.95 13.45 13.45 L18.25 8.4 Q20.4 5.8 21.5 5.15 25.35 2.8 31.2 4.3 30.85 4.75 28.3 5.1 L28.05 5.1 Q22.25 5.1 20.25 9.55 L15.3 26.1 14.6 23.05 13.9 22.15 13.35 23.2 12.1 25.45 11.4 26.35 9.6 28.2 Q7.75 26.25 7.75 25.25 L7.95 20.2 7.85 20.35 Q5.5 26.8 -1.95 29.6 L-1.95 27.4 -2.1 25.2 Q-1.15 22.9 -1.05 22.1 L-1.65 21.6 Q-2.5 23.4 -4.25 25.65 -6.4 28.35 -8.45 29.6 -8.8 21.2 -9.1 16.9 -10.7 18.45 -11.45 21.5 -12.2 24.45 -13.2 25.35 L-13.85 25.6 Q-14.6 20.55 -15.35 19.65 L-18.65 21.5 -22.1 23.15 Q-20.7 20.65 -20.7 19.45 -20.7 18.25 -21.2 16.7 L-23.55 18.3 Q-21.6 11.95 -17.55 8.25 -12.85 3.9 -11.75 2.45 -15.5 8.7 -16.4 9.5 L-14.6 9.75 Q-10.75 9.75 -8.45 5.8 -6.95 3.25 -3.2 -7.45 -6.2 -7.0 -10.35 0.1 L-11.5 2.05 -11.0 0.9 -16.65 6.55 Q-21.75 11.65 -25.0 13.75 L-27.95 13.25 Q-26.65 12.3 -25.15 9.3 -23.45 5.95 -23.35 3.25 L-26.4 3.9 -27.9 3.75 Q-26.5 2.1 -25.0 -2.65 -23.65 -6.8 -21.7 -8.35 L-19.95 -9.05 Q-18.6 -9.55 -18.05 -10.35 L-17.3 -9.25 Q-15.4 -9.4 -12.1 -10.5 -9.05 -11.5 -7.35 -11.55 -7.65 -9.35 -7.45 -8.35 L2.9 -12.05 3.65 -13.25 M0.45 24.15 Q1.7 23.7 4.05 20.85 6.7 17.7 6.7 15.9 4.1 16.25 2.6 18.85 1.9 20.0 0.45 24.15 M9.1 18.65 Q11.8 19.55 14.3 14.9 L14.5 13.95 Q13.25 14.9 12.25 14.9 10.25 14.9 9.3 16.5 L8.45 18.7 9.1 18.65 M-31.6 -2.5 L-31.85 -2.9 Q-30.2 -6.35 -28.85 -11.5 -25.9 -9.25 -25.9 -6.95 -25.9 -6.15 -27.6 -4.35 -29.45 -2.4 -30.85 -2.4 L-31.6 -2.5 M-15.25 -4.75 Q-17.8 0.8 -22.1 5.65 -18.65 7.0 -14.3 3.1 -9.9 -0.9 -9.9 -5.65 -9.9 -6.6 -10.35 -8.25 -14.0 -7.45 -15.25 -4.75 M-16.05 22.2 L-15.6 23.55 -15.55 26.15 Q-15.55 27.15 -15.7 27.9 L-19.0 27.75 -17.6 25.0 -16.05 22.2 M-12.35 17.1 Q-9.6 15.45 -9.6 13.35 -9.6 12.35 -10.1 10.85 L-18.75 18.25 Q-15.35 18.9 -12.35 17.1 M-25.95 25.7 Q-26.95 25.7 -27.0 25.1 -26.15 22.35 -23.5 21.05 -23.0 24.2 -24.35 25.25 -25.05 25.8 -25.95 25.7 M-32.8 21.35 Q-33.65 20.95 -33.75 20.35 L-29.4 15.4 -24.75 16.8 Q-25.85 19.75 -27.45 20.8 -28.8 21.7 -31.2 21.7 L-32.8 21.35 M-30.15 3.5 Q-29.3 3.8 -28.65 4.95 L-27.6 6.85 Q-29.85 9.35 -32.45 9.35 L-34.45 9.15 -30.15 3.5" fill="#ebe8e0" fill-rule="evenodd" stroke="none"/>
    <path d="M24.75 -39.1 Q36.45 -38.2 38.95 -33.2 L39.75 -31.9 Q30.5 -35.55 28.2 -35.55 L24.75 -39.1 M9.4 -42.6 L13.7 -44.2 16.6 -44.9 Q18.45 -44.9 19.85 -44.05 L21.15 -43.05 13.0 -41.2 9.4 -42.6 M30.95 -15.65 L16.9 -11.25 Q13.65 -10.25 9.95 -7.95 13.1 -11.8 15.35 -12.75 L12.0 -12.9 13.2 -14.0 24.55 -14.8 Q30.3 -15.65 31.65 -16.2 L30.95 -15.65 M3.65 -13.25 L2.9 -12.05 -7.45 -8.35 Q-7.65 -9.35 -7.35 -11.55 -9.05 -11.5 -12.1 -10.5 -15.4 -9.4 -17.3 -9.25 L-16.35 -9.9 -12.55 -11.4 Q-9.45 -12.45 -6.75 -12.6 L-6.6 -9.45 3.65 -13.25 M-18.05 -10.35 Q-18.6 -9.55 -19.95 -9.05 L-21.7 -8.35 Q-23.65 -6.8 -25.0 -2.65 -26.5 2.1 -27.9 3.75 L-26.4 3.9 -23.35 3.25 Q-23.45 5.95 -25.15 9.3 -26.65 12.3 -27.95 13.25 L-25.0 13.75 Q-21.75 11.65 -16.65 6.55 L-11.0 0.9 -11.5 2.05 -11.55 2.15 -11.75 2.45 Q-12.85 3.9 -17.55 8.25 -21.6 11.95 -23.55 18.3 L-21.2 16.7 Q-20.7 18.25 -20.7 19.45 -20.7 20.65 -22.1 23.15 L-18.65 21.5 -15.35 19.65 Q-14.6 20.55 -13.85 25.6 L-13.2 25.35 Q-12.2 24.45 -11.45 21.5 -10.7 18.45 -9.1 16.9 -8.8 21.2 -8.45 29.6 -6.4 28.35 -4.25 25.65 -2.5 23.4 -1.65 21.6 L-1.05 22.1 Q-1.15 22.9 -2.1 25.2 L-1.95 27.4 -1.95 29.6 Q5.5 26.8 7.85 20.35 L7.95 20.2 7.75 25.25 Q7.75 26.25 9.6 28.2 L11.4 26.35 12.1 25.45 13.35 23.2 13.9 22.15 14.6 23.05 15.3 26.1 20.25 9.55 Q22.25 5.1 28.05 5.1 24.3 5.2 21.65 8.55 18.9 12.0 18.9 16.85 19.4 19.05 18.35 22.8 17.15 27.25 14.55 29.25 L13.6 27.9 12.65 26.7 10.95 28.2 9.65 29.25 Q9.15 29.25 8.3 28.35 7.4 27.45 6.9 27.45 6.35 27.45 5.0 28.35 L2.0 30.2 -3.05 32.15 -3.05 28.45 Q-3.4 28.45 -3.75 27.55 -4.35 27.55 -6.2 29.1 -8.05 30.65 -9.6 30.6 -9.2 29.45 -9.2 28.45 -9.2 27.2 -10.35 25.95 -12.45 27.55 -13.9 28.3 -16.85 29.85 -20.45 30.15 -20.2 29.7 -20.2 28.7 -20.2 25.55 -21.65 25.55 -22.65 25.55 -29.1 27.8 L-28.5 25.65 -28.0 23.1 -29.4 23.25 -31.3 23.45 Q-34.1 23.45 -37.2 22.35 L-38.4 21.75 Q-36.75 21.6 -34.45 18.1 -32.4 15.0 -32.0 13.15 L-32.0 11.4 -38.5 10.3 Q-35.85 8.9 -33.95 5.95 -32.2 3.25 -32.6 1.9 L-32.6 -0.8 -35.15 -1.1 Q-34.55 -1.9 -32.1 -10.75 -30.1 -17.95 -27.5 -17.95 L-26.55 -17.85 Q-26.2 -18.05 -26.2 -17.05 -26.2 -16.55 -26.7 -14.8 L-27.2 -12.6 -26.75 -10.0 Q-24.55 -11.05 -18.15 -12.95 L-18.05 -10.35 M5.55 13.2 Q7.5 12.3 8.6 12.2 L9.3 12.25 Q8.95 13.1 7.2 13.85 5.3 14.65 3.0 14.65 L0.65 14.25 -1.35 13.5 Q3.55 10.45 6.9 6.7 8.8 4.6 11.3 1.05 13.5 -1.7 15.85 -2.8 18.95 -4.25 24.55 -4.25 L28.35 -4.1 Q26.95 -3.15 24.25 -2.85 L20.9 -2.75 Q15.25 -1.7 8.9 5.2 L4.5 10.3 Q2.2 12.9 0.95 13.65 L5.55 13.2 M9.1 18.65 L8.45 18.7 9.3 16.5 Q10.25 14.9 12.25 14.9 13.25 14.9 14.5 13.95 L14.3 14.9 Q11.8 19.55 9.1 18.65 M-12.9 -37.0 Q-11.2 -39.05 -8.25 -39.0 -10.35 -37.3 -12.05 -33.1 -13.6 -29.25 -16.8 -27.1 -14.55 -31.9 -14.35 -33.7 -14.2 -35.5 -12.9 -37.0 M-31.6 -2.5 L-30.85 -2.4 Q-29.45 -2.4 -27.6 -4.35 -25.9 -6.15 -25.9 -6.95 -25.9 -9.25 -28.85 -11.5 -30.2 -6.35 -31.85 -2.9 L-31.6 -2.5 M-16.05 22.2 L-17.6 25.0 -19.0 27.75 -15.7 27.9 Q-15.55 27.15 -15.55 26.15 L-15.6 23.55 -16.05 22.2 M-30.15 3.5 L-34.45 9.15 -32.45 9.35 Q-29.85 9.35 -27.6 6.85 L-28.65 4.95 Q-29.3 3.8 -30.15 3.5 M-32.8 21.35 L-31.2 21.7 Q-28.8 21.7 -27.45 20.8 -25.85 19.75 -24.75 16.8 L-29.4 15.4 -33.75 20.35 Q-33.65 20.95 -32.8 21.35 M-25.95 25.7 Q-25.05 25.8 -24.35 25.25 -23.0 24.2 -23.5 21.05 -26.15 22.35 -27.0 25.1 -26.95 25.7 -25.95 25.7" fill="#cbc8c0" fill-rule="evenodd" stroke="none"/>
    <path d="M40.25 -29.9 Q36.85 -30.85 32.55 -33.2 30.85 -34.15 22.45 -34.15 18.6 -34.15 15.05 -32.35 13.25 -31.4 9.0 -28.35 1.0 -22.55 -6.65 -22.55 -10.7 -22.55 -11.7 -23.25 -12.3 -23.65 -12.5 -24.65 -1.45 -26.05 8.3 -33.35 13.5 -37.25 14.95 -38.1 18.6 -40.15 22.35 -40.15 28.35 -40.15 34.05 -38.1 41.4 -35.5 41.4 -31.0 41.4 -30.35 40.8 -30.05 L40.25 -29.9 M23.0 -41.45 L22.9 -41.15 13.2 -40.3 Q10.75 -39.75 7.1 -36.7 5.55 -35.4 2.25 -33.5 L-2.5 -30.95 -3.15 -30.6 Q-9.75 -27.15 -10.75 -26.4 -9.45 -30.55 0.75 -38.4 11.35 -46.6 16.65 -46.6 19.55 -46.6 21.45 -45.05 23.1 -43.7 23.1 -42.25 L23.0 -41.45 M28.2 -35.55 Q30.5 -35.55 39.75 -31.9 L38.95 -33.2 Q36.45 -38.2 24.75 -39.1 17.55 -39.4 10.9 -34.55 L4.0 -29.55 Q-0.8 -26.35 -9.65 -24.0 L-4.45 -23.7 Q0.5 -24.25 3.9 -25.8 7.35 -27.35 11.65 -31.8 16.0 -36.2 28.2 -35.55 M13.0 -41.2 L21.15 -43.05 19.85 -44.05 Q18.45 -44.9 16.6 -44.9 L13.7 -44.2 9.4 -42.6 Q7.1 -42.55 0.85 -37.55 -4.35 -33.35 -8.15 -29.35 L-9.0 -28.45 Q5.8 -36.85 7.9 -38.5 10.05 -40.2 13.0 -41.2 M-16.35 -9.9 L-17.3 -9.25 -18.05 -10.35 -18.15 -12.95 Q-24.55 -11.05 -26.75 -10.0 L-27.2 -12.6 -26.7 -14.8 Q-26.2 -16.55 -26.2 -17.05 -26.2 -18.05 -26.55 -17.85 L-27.5 -17.95 Q-30.1 -17.95 -32.1 -10.75 -34.55 -1.9 -35.15 -1.1 L-32.6 -0.8 -32.6 1.9 Q-32.2 3.25 -33.95 5.95 -35.85 8.9 -38.5 10.3 L-32.0 11.4 -32.0 13.15 Q-32.4 15.0 -34.45 18.1 -36.75 21.6 -38.4 21.75 L-37.2 22.35 Q-34.1 23.45 -31.3 23.45 L-29.4 23.25 -28.0 23.1 -28.5 25.65 -29.1 27.8 Q-22.65 25.55 -21.65 25.55 -20.2 25.55 -20.2 28.7 -20.2 29.7 -20.45 30.15 -16.85 29.85 -13.9 28.3 -12.45 27.55 -10.35 25.95 -9.2 27.2 -9.2 28.45 -9.2 29.45 -9.6 30.6 -8.05 30.65 -6.2 29.1 -4.35 27.55 -3.75 27.55 -3.4 28.45 -3.05 28.45 L-3.05 32.15 2.0 30.2 5.0 28.35 Q6.35 27.45 6.9 27.45 7.4 27.45 8.3 28.35 9.15 29.25 9.65 29.25 L10.95 28.2 12.65 26.7 13.6 27.9 14.55 29.25 Q17.15 27.25 18.35 22.8 19.4 19.05 18.9 16.85 L19.3 16.0 Q20.85 18.25 18.3 24.25 16.0 29.7 14.3 30.75 L12.85 28.25 10.75 30.1 Q10.35 30.45 9.8 30.45 9.3 30.45 8.4 29.5 7.45 28.5 6.95 28.5 5.85 28.5 3.05 30.6 0.0 32.9 -3.65 33.35 -4.4 32.25 -4.4 31.25 L-4.35 29.1 -7.4 30.6 -10.45 32.0 -10.75 31.35 -10.85 30.5 -10.75 29.25 Q-10.8 28.65 -11.25 28.45 -13.15 29.75 -16.7 30.75 L-21.2 31.65 -21.8 27.0 -24.95 28.3 -28.15 29.0 Q-29.15 29.0 -30.6 28.3 L-29.25 24.3 Q-32.3 25.45 -35.95 24.15 -38.95 23.1 -40.1 21.55 -37.25 20.35 -35.0 17.05 -33.05 14.2 -32.9 12.35 -36.8 13.85 -40.65 10.0 -37.3 8.9 -35.0 5.3 -32.95 2.15 -33.2 0.15 -36.6 -0.4 -36.65 -0.9 -35.8 -1.95 -34.05 -6.15 -32.25 -10.5 -32.2 -11.75 -32.0 -14.55 -30.55 -17.0 -28.55 -20.5 -25.35 -19.05 L-26.2 -11.5 -17.65 -13.8 Q-16.85 -10.2 -16.35 -9.9 M-9.35 -39.55 Q-6.25 -40.15 -6.25 -38.7 L-6.7 -38.25 Q-9.5 -37.2 -10.45 -35.15 -11.15 -32.7 -11.7 -31.6 -12.7 -29.8 -14.95 -27.45 -17.55 -24.85 -18.85 -24.85 L-19.1 -24.9 -19.15 -25.0 Q-16.0 -29.2 -15.25 -33.85 L-14.65 -36.05 Q-14.15 -37.35 -13.15 -38.2 -12.2 -39.05 -9.35 -39.55 M-12.9 -37.0 Q-14.2 -35.5 -14.35 -33.7 -14.55 -31.9 -16.8 -27.1 -13.6 -29.25 -12.05 -33.1 -10.35 -37.3 -8.25 -39.0 -11.2 -39.05 -12.9 -37.0" fill="#97877d" fill-rule="evenodd" stroke="none"/>
  </g>
</svg>
