<?xml version="1.0" encoding="UTF-8" standalone="no"?>
<svg xmlns:ffdec="https://www.free-decompiler.com/flash" xmlns:xlink="http://www.w3.org/1999/xlink" ffdec:objectType="shape" height="69.05px" width="19.6px" xmlns="http://www.w3.org/2000/svg">
  <g transform="matrix(1.0, 0.0, 0.0, 1.0, 10.0, 34.0)">
    <path d="M7.55 -31.45 L7.55 -31.5 Q10.25 -28.45 9.4 -18.15 L9.4 -18.05 9.4 3.9 9.45 4.0 9.45 4.4 9.45 18.4 9.45 32.65 9.45 32.85 9.3 34.1 9.2 34.35 Q8.8 35.15 8.25 35.05 L7.5 35.05 Q5.2 35.05 3.7 33.45 2.6 32.4 -0.45 32.4 -3.75 32.4 -5.4 34.3 L-5.75 34.55 -6.2 34.65 -8.4 34.65 -8.9 34.5 -9.3 34.1 Q-10.05 32.65 -10.0 31.65 L-9.85 -16.6 -9.65 -28.4 Q-9.35 -32.4 -6.55 -32.25 -6.15 -32.3 -5.65 -32.6 -4.55 -33.4 -3.2 -33.4 L-1.85 -33.15 -1.8 -33.15 -1.7 -33.1 -1.1 -33.55 -0.6 -33.9 -0.15 -34.0 1.1 -34.0 1.65 -33.8 1.95 -33.6 2.05 -33.55 2.3 -33.25 Q6.2 -33.25 7.55 -31.45 M1.1 -33.0 L-0.15 -33.0 -0.5 -32.75 -1.65 -31.9 -2.25 -32.25 -3.2 -32.4 Q-4.25 -32.4 -5.1 -31.8 -5.9 -31.25 -6.55 -31.25 -8.45 -31.25 -8.65 -28.35 L-8.85 -16.6 -9.0 31.65 Q-9.0 32.45 -8.4 33.65 L-6.2 33.65 Q-4.3 31.4 -0.45 31.4 3.15 31.4 4.4 32.75 5.65 34.05 7.5 34.05 L8.2 34.0 8.3 33.9 8.45 32.65 8.45 18.4 8.45 4.4 8.4 4.15 8.4 -18.15 Q9.2 -27.95 6.75 -30.85 5.6 -32.25 2.3 -32.25 L1.4 -32.8 1.1 -33.0" fill="#000000" fill-rule="evenodd" stroke="none"/>
    <path d="M1.1 -33.0 L1.4 -32.8 2.3 -32.25 Q5.6 -32.25 6.75 -30.85 9.2 -27.95 8.4 -18.15 L8.4 4.15 8.45 4.4 8.45 18.4 8.45 32.65 8.3 33.9 8.2 34.0 7.5 34.05 Q5.65 34.05 4.4 32.75 3.15 31.4 -0.45 31.4 -4.3 31.4 -6.2 33.65 L-8.4 33.65 Q-9.0 32.45 -9.0 31.65 L-8.85 -16.6 -8.65 -28.35 Q-8.45 -31.25 -6.55 -31.25 -5.9 -31.25 -5.1 -31.8 -4.25 -32.4 -3.2 -32.4 L-2.25 -32.25 -1.65 -31.9 -0.5 -32.75 -0.15 -33.0 1.1 -33.0 M1.95 -31.6 Q1.2 -32.3 0.2 -32.45 L-0.55 -31.6 Q-1.8 -31.25 -2.6 -31.6 L-4.35 -31.25 Q-5.1 -30.9 -5.1 -30.4 L-6.15 -30.35 Q-6.5 -30.7 -7.3 -30.7 L-8.1 -29.35 -8.2 -25.15 -8.1 30.5 Q-7.5 30.1 -6.7 29.9 L-4.85 29.7 Q-3.5 28.7 -2.85 28.8 L-2.2 28.95 Q-1.4 28.95 -0.45 28.35 L0.6 28.15 1.65 28.4 3.25 28.6 3.25 28.65 3.55 28.55 4.8 28.7 Q4.8 29.25 5.25 29.65 L6.35 30.0 Q7.4 30.15 7.6 30.45 L7.7 -23.9 Q7.75 -23.0 7.75 -23.95 L7.3 -27.9 6.65 -30.45 5.15 -30.7 4.95 -31.45 Q4.75 -32.05 4.15 -32.05 L3.3 -31.9 3.05 -31.7 1.95 -31.6 M1.85 29.6 L1.5 29.15 Q1.1 28.7 0.5 28.7 L-0.25 29.3 Q-1.0 29.9 -1.6 29.9 L-2.7 29.65 -3.45 29.4 Q-3.8 29.45 -4.7 30.2 L-5.65 30.95 -6.6 30.75 -7.3 30.5 Q-8.15 31.9 -8.15 33.0 L-6.5 33.05 -5.4 31.75 Q-3.95 30.8 -0.45 30.8 2.25 30.8 4.3 31.8 L7.8 33.35 7.55 33.0 7.25 32.95 Q7.25 31.25 5.7 30.0 L4.15 29.1 3.0 29.35 1.85 29.6" fill="#6f7e14" fill-rule="evenodd" stroke="none"/>
    <path d="M1.95 -31.6 L3.05 -31.7 3.25 28.6 1.65 28.4 1.95 -31.6 M6.65 -30.45 L7.3 -27.9 7.75 -23.95 Q7.75 -23.0 7.7 -23.9 L7.6 30.45 Q7.4 30.15 6.35 30.0 L6.25 28.6 6.65 -30.45 M-0.45 28.35 Q-1.4 28.95 -2.2 28.95 L-2.85 28.8 Q-2.6 0.65 -2.6 -31.6 -1.8 -31.25 -0.55 -31.6 L-0.6 -24.25 Q-0.45 -11.15 -0.45 28.35 M-6.7 29.9 Q-7.5 30.1 -8.1 30.5 L-8.2 -25.15 -8.1 -29.35 -7.3 -30.7 Q-6.5 -30.7 -6.15 -30.35 L-6.7 29.9" fill="#aec239" fill-rule="evenodd" stroke="none"/>
    <path d="M3.05 -31.7 L3.3 -31.9 4.15 -32.05 Q4.75 -32.05 4.95 -31.45 L5.15 -30.7 5.15 29.0 4.8 28.7 3.55 28.55 3.25 28.65 3.25 28.6 3.05 -31.7 M-2.85 28.8 Q-3.5 28.7 -4.85 29.7 L-5.1 -30.4 Q-5.1 -30.9 -4.35 -31.25 L-2.6 -31.6 Q-2.6 0.65 -2.85 28.8" fill="#d7e77b" fill-rule="evenodd" stroke="none"/>
    <path d="M-0.55 -31.6 L0.2 -32.45 Q1.2 -32.3 1.95 -31.6 L1.65 28.4 0.6 28.15 -0.45 28.35 Q-0.45 -11.15 -0.6 -24.25 L-0.55 -31.6" fill="#e0ec9c" fill-rule="evenodd" stroke="none"/>
    <path d="M5.15 -30.7 L6.65 -30.45 6.25 28.6 6.35 30.0 5.25 29.65 Q4.8 29.25 4.8 28.7 L5.15 29.0 5.15 -30.7 M-4.85 29.7 L-6.7 29.9 -6.15 -30.35 -5.1 -30.4 -4.85 29.7 M1.85 29.6 L3.0 29.35 4.15 29.1 5.7 30.0 Q7.25 31.25 7.25 32.95 L7.55 33.0 7.8 33.35 4.3 31.8 Q2.25 30.8 -0.45 30.8 -3.95 30.8 -5.4 31.75 L-6.5 33.05 -8.15 33.0 Q-8.15 31.9 -7.3 30.5 L-6.6 30.75 -5.65 30.95 -4.7 30.2 Q-3.8 29.45 -3.45 29.4 L-2.7 29.65 -1.6 29.9 Q-1.0 29.9 -0.25 29.3 L0.5 28.7 Q1.1 28.7 1.5 29.15 L1.85 29.6" fill="#8b9c22" fill-rule="evenodd" stroke="none"/>
  </g>
</svg>
