<?xml version="1.0" encoding="UTF-8" standalone="no"?>
<svg xmlns:ffdec="https://www.free-decompiler.com/flash" xmlns:xlink="http://www.w3.org/1999/xlink" ffdec:objectType="shape" height="63.8px" width="21.0px" xmlns="http://www.w3.org/2000/svg">
  <g transform="matrix(1.0, 0.0, 0.0, 1.0, 10.5, 31.0)">
    <path d="M0.0 -31.0 Q4.55 -31.1 7.7 -26.4 10.25 -22.7 10.5 -17.55 L10.5 -17.45 10.5 -16.4 10.5 -16.25 Q10.45 3.1 8.0 17.25 5.15 33.15 0.05 32.8 L-0.05 32.8 Q-5.15 33.2 -7.9 17.25 -10.45 3.1 -10.5 -16.25 L-10.5 -16.4 -10.45 -17.6 Q-10.25 -22.75 -7.6 -26.4 -4.55 -31.1 0.0 -31.0 M0.0 -30.0 Q-4.05 -30.05 -6.8 -25.85 -9.25 -22.35 -9.45 -17.5 L-9.5 -16.4 -9.5 -16.25 Q-9.45 3.0 -6.95 17.05 -4.35 32.05 0.0 31.8 4.35 32.05 7.0 17.05 9.45 3.0 9.5 -16.25 L9.5 -16.4 9.5 -17.45 9.5 -17.5 Q9.25 -22.35 6.85 -25.85 4.05 -30.05 0.0 -30.0" fill="#000000" fill-rule="evenodd" stroke="none"/>
    <path d="M0.15 -25.95 L0.05 -26.3 -0.9 -26.15 -1.15 -25.7 -1.0 -25.35 Q-0.8 -25.1 -0.5 -25.1 L0.15 -25.95 M5.2 -24.7 Q7.25 -21.65 7.5 -17.45 L7.5 -17.4 7.5 -16.4 7.5 -16.25 Q7.45 2.8 5.05 16.7 2.75 29.6 0.0 29.8 -2.75 29.6 -5.0 16.7 -7.45 2.8 -7.5 -16.25 L-7.5 -16.4 -7.45 -17.35 -7.45 -17.4 Q-7.25 -21.65 -5.15 -24.7 L-5.15 -24.75 Q-3.05 -27.95 0.0 -28.0 3.05 -27.95 5.2 -24.75 L5.2 -24.7 M4.1 -20.85 Q4.55 -21.55 4.55 -22.2 4.55 -23.9 0.9 -23.9 -1.25 -23.9 -3.35 -22.2 -5.3 -20.65 -5.3 -19.55 -5.3 -19.2 -4.15 -18.3 L-2.65 -17.25 Q-4.45 -14.65 -4.45 -13.85 -4.45 -12.8 -2.8 -12.25 -1.05 -11.65 -0.85 -10.15 L-2.4 -9.4 Q-3.7 -8.65 -4.05 -7.65 -4.9 -5.5 -4.9 -4.5 -4.9 -3.9 -3.95 -2.9 L-3.0 -1.75 -3.4 -0.8 Q-3.4 -0.1 -1.9 0.5 -0.4 1.15 -0.4 1.8 L-2.15 3.2 Q-3.9 4.7 -3.9 5.65 -3.9 6.4 -3.3 6.65 -1.95 7.2 -1.3 7.7 1.0 9.55 1.0 10.0 L-0.8 11.5 Q-2.6 13.1 -2.6 14.6 L-2.55 15.15 -1.5 15.4 -1.35 15.65 -1.75 16.35 -2.2 17.65 -2.15 18.5 -1.3 19.35 -0.45 20.15 -0.2 21.1 -0.3 22.95 Q-0.25 24.0 0.2 24.65 2.3 24.5 2.3 20.7 L2.05 19.05 1.95 18.2 1.75 17.8 1.5 17.5 2.3 16.05 3.05 14.7 2.75 14.1 1.95 13.5 Q4.3 10.9 4.3 10.0 4.3 8.1 2.7 6.25 L1.05 4.3 Q1.05 3.95 2.3 2.95 3.5 1.95 3.5 0.95 L1.05 -3.2 Q1.05 -3.95 2.9 -4.55 L4.05 -5.2 4.2 -5.85 4.1 -6.85 2.8 -8.05 4.15 -9.7 Q4.55 -10.4 4.55 -11.25 4.55 -12.2 2.55 -13.15 0.5 -14.15 0.5 -14.9 L2.0 -16.45 Q3.45 -17.8 3.45 -18.75 L3.4 -19.25 2.75 -19.7 Q3.6 -20.1 4.1 -20.85 M-3.05 9.4 Q-4.45 9.5 -4.45 10.7 L-4.45 11.15 Q-4.3 11.55 -3.45 11.55 -2.1 11.55 -1.75 11.15 L-1.65 10.55 Q-1.65 9.3 -3.05 9.4 M-3.4 -10.8 Q-3.4 -11.85 -4.65 -11.7 -5.95 -11.55 -5.95 -10.7 -5.95 -10.0 -4.85 -10.0 -3.4 -10.0 -3.4 -10.8 M3.6 -3.1 Q3.05 -2.75 3.05 -2.15 L3.35 -1.2 Q3.8 -0.2 4.75 -0.2 5.25 -0.2 5.25 -0.7 L4.95 -2.4 Q4.25 -3.55 3.6 -3.1 M-1.15 26.55 Q-1.15 27.55 -0.4 27.55 0.05 27.55 0.05 27.15 0.05 26.3 -0.55 26.0 -1.15 25.65 -1.15 26.55" fill="#f57e26" fill-rule="evenodd" stroke="none"/>
    <path d="M0.15 -25.95 L-0.5 -25.1 Q-0.8 -25.1 -1.0 -25.35 L-1.15 -25.7 -0.9 -26.15 0.05 -26.3 0.15 -25.95 M0.5 -20.95 L1.3 -21.35 Q0.9 -21.8 -0.05 -21.8 -1.0 -21.8 -1.0 -21.25 L-0.95 -20.95 Q-0.8 -20.7 -0.35 -20.7 L0.5 -20.95 M4.1 -20.85 Q3.6 -20.1 2.75 -19.7 L3.4 -19.25 3.45 -18.75 Q3.45 -17.8 2.0 -16.45 L0.5 -14.9 Q0.5 -14.15 2.55 -13.15 4.55 -12.2 4.55 -11.25 4.55 -10.4 4.15 -9.7 L2.8 -8.05 4.1 -6.85 4.2 -5.85 4.05 -5.2 2.9 -4.55 Q1.05 -3.95 1.05 -3.2 L3.5 0.95 Q3.5 1.95 2.3 2.95 1.05 3.95 1.05 4.3 L2.7 6.25 Q4.3 8.1 4.3 10.0 4.3 10.9 1.95 13.5 L2.75 14.1 3.05 14.7 2.3 16.05 1.5 17.5 1.75 17.8 1.95 18.2 2.05 19.05 2.3 20.7 Q2.3 24.5 0.2 24.65 -0.25 24.0 -0.3 22.95 L-0.2 21.1 -0.45 20.15 -1.3 19.35 -2.15 18.5 -2.2 17.65 -1.75 16.35 -1.35 15.65 -1.5 15.4 -2.55 15.15 -2.6 14.6 Q-2.6 13.1 -0.8 11.5 L1.0 10.0 Q1.0 9.55 -1.3 7.7 -1.95 7.2 -3.3 6.65 -3.9 6.4 -3.9 5.65 -3.9 4.7 -2.15 3.2 L-0.4 1.8 Q-0.4 1.15 -1.9 0.5 -3.4 -0.1 -3.4 -0.8 L-3.0 -1.75 -3.95 -2.9 Q-4.9 -3.9 -4.9 -4.5 -4.9 -5.5 -4.05 -7.65 -3.7 -8.65 -2.4 -9.4 L-0.85 -10.15 Q-1.05 -11.65 -2.8 -12.25 -4.45 -12.8 -4.45 -13.85 -4.45 -14.65 -2.65 -17.25 L-4.15 -18.3 Q-5.3 -19.2 -5.3 -19.55 -5.3 -20.65 -3.35 -22.2 -1.25 -23.9 0.9 -23.9 4.55 -23.9 4.55 -22.2 4.55 -21.55 4.1 -20.85 M1.8 -9.7 Q1.8 -10.35 1.0 -10.9 0.15 -11.5 0.15 -10.65 L0.4 -9.8 Q0.4 -8.55 -1.25 -7.4 -2.9 -6.2 -2.9 -5.3 L-2.85 -4.75 Q-2.65 -4.2 -1.8 -4.2 -0.5 -4.2 0.7 -5.5 1.7 -6.6 1.7 -7.15 L1.45 -8.1 1.65 -8.8 1.8 -9.7 M0.55 -16.35 L0.7 -17.75 Q0.7 -18.95 -0.45 -18.15 -1.65 -17.3 -1.65 -16.0 L-1.65 -15.55 Q-1.6 -15.15 -1.15 -15.15 0.15 -15.15 0.55 -16.35 M3.6 -3.1 Q4.25 -3.55 4.95 -2.4 L5.25 -0.7 Q5.25 -0.2 4.75 -0.2 3.8 -0.2 3.35 -1.2 L3.05 -2.15 Q3.05 -2.75 3.6 -3.1 M-3.4 -10.8 Q-3.4 -10.0 -4.85 -10.0 -5.95 -10.0 -5.95 -10.7 -5.95 -11.55 -4.65 -11.7 -3.4 -11.85 -3.4 -10.8 M-3.05 9.4 Q-1.65 9.3 -1.65 10.55 L-1.75 11.15 Q-2.1 11.55 -3.45 11.55 -4.3 11.55 -4.45 11.15 L-4.45 10.7 Q-4.45 9.5 -3.05 9.4 M-0.2 13.55 L-0.4 16.55 -0.2 17.3 Q0.05 18.0 0.25 18.0 0.85 18.0 0.85 17.6 L0.8 16.85 1.2 15.45 0.75 13.75 Q0.25 12.3 -0.2 13.55 M-1.0 6.1 L-0.55 7.15 Q0.1 8.15 1.2 8.15 2.1 8.15 2.1 7.65 2.1 6.7 0.55 5.65 -1.0 4.55 -1.0 6.1 M-1.15 26.55 Q-1.15 25.65 -0.55 26.0 0.05 26.3 0.05 27.15 0.05 27.55 -0.4 27.55 -1.15 27.55 -1.15 26.55 M1.05 19.95 Q0.55 19.55 0.55 20.55 L0.7 21.35 1.1 21.5 1.5 21.35 1.55 20.8 Q1.55 20.3 1.05 19.95 M0.2 0.6 L1.05 1.25 Q1.45 1.25 1.45 0.65 1.25 -0.6 0.4 -0.6 -0.2 -0.6 -0.2 -0.1 L0.2 0.6" fill="#ffa35f" fill-rule="evenodd" stroke="none"/>
    <path d="M0.5 -20.95 L-0.35 -20.7 Q-0.8 -20.7 -0.95 -20.95 L-1.0 -21.25 Q-1.0 -21.8 -0.05 -21.8 0.9 -21.8 1.3 -21.35 L0.5 -20.95 M0.55 -16.35 Q0.15 -15.15 -1.15 -15.15 -1.6 -15.15 -1.65 -15.55 L-1.65 -16.0 Q-1.65 -17.3 -0.45 -18.15 0.7 -18.95 0.7 -17.75 L0.55 -16.35 M1.8 -9.7 L1.65 -8.8 1.45 -8.1 1.7 -7.15 Q1.7 -6.6 0.7 -5.5 -0.5 -4.2 -1.8 -4.2 -2.65 -4.2 -2.85 -4.75 L-2.9 -5.3 Q-2.9 -6.2 -1.25 -7.4 0.4 -8.55 0.4 -9.8 L0.15 -10.65 Q0.15 -11.5 1.0 -10.9 1.8 -10.35 1.8 -9.7 M-1.0 6.1 Q-1.0 4.55 0.55 5.65 2.1 6.7 2.1 7.65 2.1 8.15 1.2 8.15 0.1 8.15 -0.55 7.15 L-1.0 6.1 M-0.2 13.55 Q0.25 12.3 0.75 13.75 L1.2 15.45 0.8 16.85 0.85 17.6 Q0.85 18.0 0.25 18.0 0.05 18.0 -0.2 17.3 L-0.4 16.55 -0.2 13.55 M0.2 0.6 L-0.2 -0.1 Q-0.2 -0.6 0.4 -0.6 1.25 -0.6 1.45 0.65 1.45 1.25 1.05 1.25 L0.2 0.6 M1.05 19.95 Q1.55 20.3 1.55 20.8 L1.5 21.35 1.1 21.5 0.7 21.35 0.55 20.55 Q0.55 19.55 1.05 19.95" fill="#ffdcc1" fill-rule="evenodd" stroke="none"/>
    <path d="M0.0 -30.0 Q4.05 -30.05 6.85 -25.85 9.25 -22.35 9.5 -17.5 L9.5 -17.45 9.5 -16.4 9.5 -16.25 Q9.45 3.0 7.0 17.05 4.35 32.05 0.0 31.8 -4.35 32.05 -6.95 17.05 -9.45 3.0 -9.5 -16.25 L-9.5 -16.4 -9.45 -17.5 Q-9.25 -22.35 -6.8 -25.85 -4.05 -30.05 0.0 -30.0 M5.2 -24.7 L5.2 -24.75 Q3.05 -27.95 0.0 -28.0 -3.05 -27.95 -5.15 -24.75 L-5.15 -24.7 Q-7.25 -21.65 -7.45 -17.4 L-7.45 -17.35 -7.5 -16.4 -7.5 -16.25 Q-7.45 2.8 -5.0 16.7 -2.75 29.6 0.0 29.8 2.75 29.6 5.05 16.7 7.45 2.8 7.5 -16.25 L7.5 -16.4 7.5 -17.4 7.5 -17.45 Q7.25 -21.65 5.2 -24.7" fill="#d25900" fill-rule="evenodd" stroke="none"/>
  </g>
</svg>
