<?xml version="1.0" encoding="UTF-8" standalone="no"?>
<svg xmlns:ffdec="https://www.free-decompiler.com/flash" xmlns:xlink="http://www.w3.org/1999/xlink" ffdec:objectType="shape" height="30.2px" width="58.7px" xmlns="http://www.w3.org/2000/svg">
  <g transform="matrix(1.0, 0.0, 0.0, 1.0, 52.55, 14.05)">
    <path d="M-38.35 -6.6 Q-33.15 -9.8 -24.55 -9.8 -14.3 -9.8 -7.0 -3.95 -4.4 -1.85 -2.8 0.5 -1.4 2.55 -1.4 3.55 -1.4 4.2 -2.0 4.55 -2.55 4.95 -3.45 4.95 -18.0 2.5 -22.25 2.5 L-33.55 3.35 -42.2 4.2 -43.0 3.7 Q-43.4 3.0 -43.4 1.65 -43.4 -3.5 -38.35 -6.6" fill="#eeeeee" fill-rule="evenodd" stroke="none"/>
    <path d="M-25.45 -11.45 Q-13.35 -11.45 -4.9 -4.9 2.05 0.55 2.05 5.4 2.05 7.0 1.0 7.65 -0.1 8.35 -3.05 8.35 L-7.3 7.4 -21.0 6.45 -35.8 7.35 -44.4 8.25 -46.3 8.0 Q-47.7 7.25 -47.7 4.25 -47.7 -1.35 -43.0 -5.8 -36.9 -11.45 -25.45 -11.45 M-38.35 -6.6 Q-43.4 -3.5 -43.4 1.65 -43.4 3.0 -43.0 3.7 L-42.2 4.2 -33.55 3.35 -22.25 2.5 Q-18.0 2.5 -3.45 4.95 -2.55 4.95 -2.0 4.55 -1.4 4.2 -1.4 3.55 -1.4 2.55 -2.8 0.5 -4.4 -1.85 -7.0 -3.95 -14.3 -9.8 -24.55 -9.8 -33.15 -9.8 -38.35 -6.6" fill="#dfdfdf" fill-rule="evenodd" stroke="none"/>
    <path d="M-25.45 -11.45 Q-36.9 -11.45 -43.0 -5.8 -47.7 -1.35 -47.7 4.25 -47.7 7.25 -46.3 8.0 L-44.4 8.25 -35.8 7.35 -21.0 6.45 -7.3 7.4 -3.05 8.35 Q-0.1 8.35 1.0 7.65 2.05 7.0 2.05 5.4 2.05 0.55 -4.9 -4.9 -13.35 -11.45 -25.45 -11.45 M-49.0 16.15 Q-51.2 13.75 -51.2 8.4 -51.2 -0.7 -43.85 -6.6 -36.4 -12.6 -24.6 -12.6 -11.2 -12.6 -2.4 -4.2 4.8 2.7 4.8 9.45 4.8 10.5 4.3 12.15 3.5 14.85 1.85 16.15 L-49.0 16.15" fill="#aaaaaa" fill-rule="evenodd" stroke="none"/>
    <path d="M1.85 16.15 Q3.5 14.85 4.3 12.15 4.8 10.5 4.8 9.45 4.8 2.7 -2.4 -4.2 -11.2 -12.6 -24.6 -12.6 -36.4 -12.6 -43.85 -6.6 -51.2 -0.7 -51.2 8.4 -51.2 13.75 -49.0 16.15 -51.15 15.45 -52.0 12.9 -52.55 11.15 -52.55 8.15 -52.55 -1.4 -44.7 -7.7 -36.8 -14.05 -24.55 -14.05 L-20.75 -13.55 -17.0 -13.15 -16.3 -13.2 Q-9.35 -10.9 -5.55 -8.4 -1.45 -5.7 2.9 -0.05 L2.7 -0.8 Q3.75 0.45 4.65 2.6 6.15 6.15 6.15 9.6 6.15 11.85 5.15 13.75 3.9 16.0 1.85 16.15" fill="#666666" fill-rule="evenodd" stroke="none"/>
  </g>
</svg>
