<?xml version="1.0" encoding="UTF-8" standalone="no"?>
<svg xmlns:ffdec="https://www.free-decompiler.com/flash" xmlns:xlink="http://www.w3.org/1999/xlink" ffdec:objectType="shape" height="64.0px" width="158.55px" xmlns="http://www.w3.org/2000/svg">
  <g transform="matrix(1.0, 0.0, 0.0, 1.0, 67.5, -169.4)">
    <path d="M-0.45 172.9 L0.35 172.8 1.0 172.75 2.95 172.75 3.85 172.85 4.35 172.9 5.05 173.05 5.05 180.85 4.45 181.2 Q2.7 176.3 4.7 173.75 4.15 174.0 3.65 174.35 L3.15 174.75 Q1.55 176.0 0.85 178.05 0.55 178.95 0.4 179.8 -0.1 181.9 0.2 183.85 L-0.45 182.7 -0.45 172.9 M5.05 198.5 L4.55 198.6 3.9 198.7 3.85 198.7 2.95 198.8 1.25 198.8 0.5 198.75 0.4 198.75 -0.45 198.6 -0.45 197.1 0.4 197.3 3.15 197.45 3.65 197.4 5.05 197.15 5.05 198.5 M5.6 189.65 L5.05 190.1 4.6 190.3 5.05 190.45 Q5.75 190.7 6.05 191.1 6.5 191.7 6.5 192.5 L6.2 193.75 5.3 194.65 5.05 194.8 4.25 195.0 3.0 195.1 -1.8 195.1 -1.8 186.05 3.4 186.05 Q4.45 186.05 5.05 186.45 5.2 186.5 5.35 186.65 6.05 187.35 6.05 188.25 6.05 189.1 5.6 189.65 M0.95 187.9 L0.95 189.6 2.2 189.6 3.1 189.35 3.35 188.75 3.1 188.05 2.2 187.9 0.95 187.9 M0.95 191.3 L0.95 193.1 2.4 193.1 3.4 192.85 3.7 192.2 3.4 191.6 Q3.1 191.3 2.4 191.3 L0.95 191.3 M70.8 200.0 L70.85 200.0 70.85 232.3 70.8 232.3 37.95 232.3 Q31.85 232.3 27.5 227.55 23.1 222.85 23.1 216.15 L23.1 216.1 Q23.1 209.45 27.5 204.75 31.85 200.0 37.95 200.0 L70.8 200.0 M44.45 219.05 Q45.3 218.15 46.45 218.15 47.6 218.15 48.5 219.1 49.4 220.0 49.4 221.45 49.4 222.9 48.5 223.9 47.65 224.8 46.5 224.8 45.35 224.8 44.5 223.9 43.6 222.95 43.6 221.5 43.6 219.95 44.45 219.05 M46.15 205.65 Q42.8 205.65 40.7 207.05 38.15 208.8 38.15 211.6 38.15 213.3 39.0 214.6 39.7 215.5 41.15 216.3 39.25 217.0 38.35 218.4 37.45 219.75 37.45 221.7 37.45 223.7 38.4 225.35 39.4 226.95 41.25 227.75 43.1 228.6 46.6 228.6 L50.15 228.2 Q51.8 227.85 52.95 227.1 54.05 226.3 54.8 224.85 55.6 223.4 55.6 221.7 55.6 220.0 54.7 218.55 53.8 217.2 51.95 216.3 L54.0 214.45 Q54.85 213.15 54.85 211.65 54.85 209.05 52.75 207.35 50.6 205.65 46.15 205.65 M46.45 209.45 Q47.55 209.45 48.25 210.15 49.0 210.9 49.0 212.0 49.0 213.1 48.3 213.8 47.6 214.5 46.55 214.5 45.35 214.5 44.65 213.8 43.9 213.1 43.9 211.95 43.9 210.85 44.65 210.15 45.3 209.45 46.45 209.45 M-2.05 203.55 L-2.05 205.85 Q-4.3 206.7 -6.15 208.5 -9.55 211.9 -9.55 216.8 -9.55 221.55 -6.15 224.95 -2.65 228.5 2.1 228.5 7.0 228.5 10.35 224.95 13.85 221.55 13.85 216.8 13.85 211.9 10.35 208.5 8.25 206.35 5.45 205.55 L5.45 209.8 Q6.6 210.3 7.6 211.3 9.9 213.6 9.9 216.8 9.9 220.0 7.6 222.3 5.3 224.6 2.1 224.6 -1.1 224.6 -3.4 222.3 -5.7 220.0 -5.7 216.8 -5.7 213.6 -3.4 211.3 -2.8 210.65 -2.05 210.2 L-2.05 212.1 3.15 207.75 -1.8 203.5 2.15 202.95 Q7.75 202.95 11.65 206.8 15.6 210.7 15.6 216.35 15.6 221.9 11.65 225.8 7.75 229.75 2.15 229.75 -3.4 229.75 -7.35 225.8 -11.25 221.9 -11.25 216.35 -11.25 210.7 -7.35 206.8 -5.0 204.5 -2.05 203.55" fill="#ffffff" fill-rule="evenodd" stroke="none"/>
    <path d="M46.45 209.45 Q45.3 209.45 44.65 210.15 43.9 210.85 43.9 211.95 43.9 213.1 44.65 213.8 45.35 214.5 46.55 214.5 47.6 214.5 48.3 213.8 49.0 213.1 49.0 212.0 49.0 210.9 48.25 210.15 47.55 209.45 46.45 209.45 M46.15 205.65 Q50.6 205.65 52.75 207.35 54.85 209.05 54.85 211.65 54.85 213.15 54.0 214.45 L51.95 216.3 Q53.8 217.2 54.7 218.55 55.6 220.0 55.6 221.7 55.6 223.4 54.8 224.85 54.05 226.3 52.95 227.1 51.8 227.85 50.15 228.2 L46.6 228.6 Q43.1 228.6 41.25 227.75 39.4 226.95 38.4 225.35 37.45 223.7 37.45 221.7 37.45 219.75 38.35 218.4 39.25 217.0 41.15 216.3 39.7 215.5 39.0 214.6 38.15 213.3 38.15 211.6 38.15 208.8 40.7 207.05 42.8 205.65 46.15 205.65 M44.45 219.05 Q43.6 219.95 43.6 221.5 43.6 222.95 44.5 223.9 45.35 224.8 46.5 224.8 47.65 224.8 48.5 223.9 49.4 222.9 49.4 221.45 49.4 220.0 48.5 219.1 47.6 218.15 46.45 218.15 45.3 218.15 44.45 219.05 M-2.05 203.55 Q-5.0 204.5 -7.35 206.8 -11.25 210.7 -11.25 216.35 -11.25 221.9 -7.35 225.8 -3.4 229.75 2.15 229.75 7.75 229.75 11.65 225.8 15.6 221.9 15.6 216.35 15.6 210.7 11.65 206.8 7.75 202.95 2.15 202.95 L-1.8 203.5 -2.05 203.3 -2.05 203.55 M2.15 201.9 Q8.15 201.9 12.4 206.1 16.6 210.3 16.6 216.35 16.6 222.35 12.4 226.5 8.15 230.8 2.15 230.8 -3.8 230.8 -8.05 226.5 -12.3 222.35 -12.3 216.35 -12.3 210.3 -8.05 206.1 -3.8 201.9 2.15 201.9 M-33.6 215.5 L-35.6 214.85 -36.3 214.35 Q-37.1 213.8 -38.25 213.3 L-38.7 212.6 -39.2 211.7 -39.7 211.3 -40.2 210.95 -40.65 209.85 Q-41.05 209.05 -41.6 208.6 L-42.75 207.0 Q-43.3 206.0 -43.95 205.55 L-45.75 204.05 -46.7 203.25 -47.9 202.95 -49.25 202.6 -49.85 202.3 Q-50.35 201.95 -50.45 201.95 L-53.9 202.2 Q-55.95 202.85 -57.55 203.65 L-58.35 203.6 -59.7 203.65 Q-61.65 204.1 -62.8 206.8 -63.15 207.5 -62.85 209.0 -62.65 210.45 -62.8 210.9 -63.0 211.35 -63.0 213.45 L-62.8 216.15 Q-62.2 218.35 -60.95 219.4 -60.8 219.5 -60.6 220.15 L-60.4 220.85 -59.85 221.6 -59.3 222.4 Q-57.8 223.45 -57.6 223.65 L-55.7 224.25 -54.2 225.25 -51.7 225.1 -48.25 224.15 Q-42.7 222.95 -36.65 225.55 -36.45 225.65 -35.7 226.4 -34.75 227.4 -33.3 228.0 L-32.2 228.45 -29.55 228.9 Q-25.5 229.1 -24.1 225.8 -23.0 223.25 -24.1 221.05 -25.1 219.0 -27.5 217.95 L-28.9 217.65 -30.45 217.35 -32.0 216.4 -33.6 215.5 M-32.05 215.75 L-30.05 216.8 -28.65 217.05 Q-27.45 217.35 -26.85 217.6 -25.05 218.35 -23.75 220.45 -22.4 222.6 -23.0 224.1 L-23.2 224.85 -23.6 226.15 -24.0 226.9 -24.25 227.25 -24.75 227.75 -26.0 228.85 -26.9 229.1 -27.85 229.35 -30.0 229.4 Q-31.9 229.25 -33.55 228.55 -34.8 228.0 -36.05 226.9 -37.25 225.8 -37.35 225.8 L-41.2 224.7 -44.7 224.3 Q-47.9 224.7 -51.35 225.65 L-52.9 225.9 -54.15 225.7 Q-57.4 224.3 -58.85 223.25 -60.45 222.25 -60.95 220.9 -61.2 220.05 -61.4 219.75 L-62.15 218.7 -63.0 217.45 -63.45 215.6 Q-63.7 212.3 -63.55 211.35 L-63.4 210.9 -63.35 210.4 -63.55 208.65 -63.4 206.9 Q-63.0 205.0 -61.55 203.9 -59.85 202.65 -57.55 203.05 L-56.4 202.5 -53.7 201.6 -51.45 201.25 -50.2 201.45 -49.7 201.7 -49.2 202.0 -48.6 202.2 -46.35 202.85 -45.1 203.5 -44.2 204.85 -43.1 205.6 -41.5 207.85 -40.55 209.05 Q-39.75 210.1 -39.85 210.3 L-39.3 211.0 -38.3 212.05 Q-38.05 212.7 -36.8 213.5 -36.0 214.05 -35.15 214.4 L-33.5 214.95 -32.05 215.75" fill="#000000" fill-rule="evenodd" stroke="none"/>
    <path d="M10.65 175.95 L11.2 176.45 11.25 176.5 11.7 177.0 11.75 177.05 Q13.3 178.85 14.15 180.95 L14.3 181.3 14.45 181.7 14.5 181.9 14.7 182.8 15.0 185.6 15.0 185.75 15.0 185.9 14.8 188.25 14.5 189.6 14.45 189.85 Q13.6 192.3 11.8 194.3 L11.75 194.4 11.3 194.9 11.25 194.95 11.2 194.95 10.65 195.5 10.65 191.4 Q11.5 189.05 11.55 186.05 L10.65 187.3 10.65 175.95 M-6.15 195.95 L-7.3 194.95 -7.55 194.65 -7.6 194.6 -8.05 194.1 -8.2 193.9 -8.65 193.35 -8.75 193.3 -9.2 192.55 -10.25 190.35 Q-11.05 188.2 -11.05 185.75 -11.0 182.45 -9.75 179.95 L-8.75 178.2 -7.65 176.85 -7.4 176.6 -7.35 176.5 -7.3 176.45 -6.15 175.45 -6.15 190.1 -7.25 188.55 Q-7.45 191.7 -6.15 193.75 L-6.15 195.95" fill="#dadada" fill-rule="evenodd" stroke="none"/>
    <path d="M5.05 173.05 Q6.35 173.3 7.55 173.85 L8.35 174.35 9.2 174.8 9.7 175.15 10.1 175.5 10.65 175.95 10.65 187.3 10.25 187.6 9.65 187.95 8.4 188.3 8.3 188.3 8.4 187.95 Q9.4 185.2 9.6 181.1 L8.4 183.35 Q7.2 185.4 5.95 185.4 L5.85 185.4 5.95 185.3 Q7.9 180.8 6.3 178.35 6.3 179.3 5.95 180.0 L5.55 180.4 5.05 180.85 5.05 173.05 M10.65 195.5 L9.95 196.1 9.25 196.65 9.2 196.7 8.15 197.3 7.05 197.8 5.05 198.5 5.05 197.15 5.55 196.95 5.95 196.85 Q7.2 196.25 8.2 195.2 L8.4 194.95 9.65 193.35 10.25 192.3 10.65 191.4 10.65 195.5 M-0.45 198.6 L-2.7 198.0 -2.75 198.0 Q-3.2 197.75 -3.6 197.6 L-4.0 197.4 -4.55 197.1 -5.2 196.65 -5.9 196.15 -5.95 196.1 -6.15 195.95 -6.15 193.75 -4.6 195.45 -2.9 196.4 -1.45 196.9 -0.45 197.1 -0.45 198.6 M-6.15 175.45 L-5.95 175.3 -5.85 175.25 -4.75 174.5 Q-3.75 173.85 -2.75 173.5 L-1.05 173.0 -0.45 172.9 -0.45 182.7 Q-1.5 180.6 -1.6 177.25 L-2.9 180.65 Q-3.5 182.9 -3.2 184.75 -4.3 184.2 -4.55 182.7 -4.75 181.9 -4.4 181.25 L-4.6 181.55 Q-7.05 184.6 -4.6 189.2 L-3.8 190.7 -4.6 190.6 -6.15 190.1 -6.15 175.45" fill="#ebebeb" fill-rule="evenodd" stroke="none"/>
    <path d="M5.05 173.05 L4.35 172.9 3.85 172.85 2.95 172.75 1.0 172.75 0.35 172.8 -0.45 172.9 -1.05 173.0 -2.75 173.5 Q-3.75 173.85 -4.75 174.5 L-5.85 175.25 -5.95 175.3 -6.15 175.45 -7.3 176.45 -7.35 176.5 -7.4 176.6 -7.65 176.85 -8.75 178.2 -9.75 179.95 Q-11.0 182.45 -11.05 185.75 -11.05 188.2 -10.25 190.35 L-9.2 192.55 -8.75 193.3 -8.65 193.35 -8.2 193.9 -8.05 194.1 -7.6 194.6 -7.55 194.65 -7.3 194.95 -6.15 195.95 -5.95 196.1 -5.9 196.15 -5.2 196.65 -4.55 197.1 -4.0 197.4 -3.6 197.6 Q-3.2 197.75 -2.75 198.0 L-2.7 198.0 -0.45 198.6 0.4 198.75 0.5 198.75 1.25 198.8 2.95 198.8 3.85 198.7 3.9 198.7 4.55 198.6 5.05 198.5 7.05 197.8 8.15 197.3 9.2 196.7 9.25 196.65 9.95 196.1 10.65 195.5 11.2 194.95 11.25 194.95 11.3 194.9 11.75 194.4 11.8 194.3 Q13.6 192.3 14.45 189.85 L14.5 189.6 14.8 188.25 15.0 185.9 15.0 185.75 15.0 185.6 14.7 182.8 14.5 181.9 14.45 181.7 14.3 181.3 14.15 180.95 Q13.3 178.85 11.75 177.05 L11.7 177.0 11.25 176.5 11.2 176.45 10.65 175.95 10.1 175.5 9.7 175.15 9.2 174.8 8.35 174.35 7.55 173.85 Q6.35 173.3 5.05 173.05 M16.4 187.8 L16.1 189.3 Q21.75 190.85 29.25 193.4 41.65 197.9 51.45 193.65 63.6 186.4 70.55 193.4 L70.55 194.65 Q63.6 187.7 51.45 194.95 41.65 199.2 29.25 194.65 L15.8 190.5 Q14.7 193.5 12.25 195.95 8.0 200.25 2.0 200.25 -4.0 200.25 -8.25 195.95 -10.6 193.65 -11.6 190.85 -16.65 192.4 -22.0 194.8 -34.8 200.45 -49.95 192.85 -59.6 190.15 -67.5 194.65 L-67.5 193.4 Q-59.6 188.85 -49.95 191.6 -34.8 199.15 -22.0 193.5 -16.85 191.2 -12.0 189.65 L-12.3 188.2 -12.5 185.75 Q-12.5 179.75 -8.25 175.45 -4.0 171.25 2.0 171.25 8.0 171.25 12.25 175.45 16.5 179.75 16.5 185.75 L16.4 187.8" fill="#772400" fill-rule="evenodd" stroke="none"/>
    <path d="M-0.45 182.7 L0.2 183.85 Q-0.1 181.9 0.4 179.8 0.55 178.95 0.85 178.05 1.55 176.0 3.15 174.75 L3.65 174.35 Q4.15 174.0 4.7 173.75 2.7 176.3 4.45 181.2 L5.05 180.85 5.55 180.4 5.95 180.0 Q6.3 179.3 6.3 178.35 7.9 180.8 5.95 185.3 L5.85 185.4 5.95 185.4 Q7.2 185.4 8.4 183.35 L9.6 181.1 Q9.4 185.2 8.4 187.95 L8.3 188.3 8.4 188.3 9.65 187.95 10.25 187.6 10.65 187.3 11.55 186.05 Q11.5 189.05 10.65 191.4 L10.25 192.3 9.65 193.35 8.4 194.95 8.2 195.2 Q7.2 196.25 5.95 196.85 L5.55 196.95 5.05 197.15 3.65 197.4 3.15 197.45 0.4 197.3 -0.45 197.1 -1.45 196.9 -2.9 196.4 -4.6 195.45 -6.15 193.75 Q-7.45 191.7 -7.25 188.55 L-6.15 190.1 -4.6 190.6 -3.8 190.7 -4.6 189.2 Q-7.05 184.6 -4.6 181.55 L-4.4 181.25 Q-4.75 181.9 -4.55 182.7 -4.3 184.2 -3.2 184.75 -3.5 182.9 -2.9 180.65 L-1.6 177.25 Q-1.5 180.6 -0.45 182.7 M3.4 185.0 L-2.85 185.0 -2.85 196.1 3.0 196.1 4.35 196.0 4.4 196.0 5.05 195.9 5.8 195.6 5.85 195.6 5.9 195.55 7.1 194.25 Q7.55 193.45 7.55 192.5 7.55 191.3 6.85 190.5 L6.55 190.15 Q7.05 189.35 7.05 188.25 7.05 186.95 6.1 185.95 5.65 185.55 5.05 185.3 L3.4 185.0" fill="#d94100" fill-rule="evenodd" stroke="none"/>
    <path d="M70.55 191.85 Q63.6 184.85 51.45 192.1 41.65 196.4 29.25 191.85 21.9 189.35 16.4 187.8 L16.5 185.75 Q16.5 179.75 12.25 175.45 8.0 171.25 2.0 171.25 -4.0 171.25 -8.25 175.45 -12.5 179.75 -12.5 185.75 L-12.3 188.2 Q-17.05 189.7 -22.0 191.95 -34.8 197.6 -49.95 190.05 -59.6 187.3 -67.5 191.85 L-67.5 169.4 70.55 169.4 70.55 191.85" fill="#f94a00" fill-rule="evenodd" stroke="none"/>
    <path d="M3.4 185.0 L5.05 185.3 Q5.65 185.55 6.1 185.95 7.05 186.95 7.05 188.25 7.05 189.35 6.55 190.15 L6.85 190.5 Q7.55 191.3 7.55 192.5 7.55 193.45 7.1 194.25 L5.9 195.55 5.85 195.6 5.8 195.6 5.05 195.9 4.4 196.0 4.35 196.0 3.0 196.1 -2.85 196.1 -2.85 185.0 3.4 185.0 M0.95 191.3 L2.4 191.3 Q3.1 191.3 3.4 191.6 L3.7 192.2 3.4 192.85 2.4 193.1 0.95 193.1 0.95 191.3 M0.95 187.9 L2.2 187.9 3.1 188.05 3.35 188.75 3.1 189.35 2.2 189.6 0.95 189.6 0.95 187.9 M5.6 189.65 Q6.05 189.1 6.05 188.25 6.05 187.35 5.35 186.65 5.2 186.5 5.05 186.45 4.45 186.05 3.4 186.05 L-1.8 186.05 -1.8 195.1 3.0 195.1 4.25 195.0 5.05 194.8 5.3 194.65 6.2 193.75 6.5 192.5 Q6.5 191.7 6.05 191.1 5.75 190.7 5.05 190.45 L4.6 190.3 5.05 190.1 5.6 189.65" fill="#972e00" fill-rule="evenodd" stroke="none"/>
    <path d="M70.55 193.4 Q63.6 186.4 51.45 193.65 41.65 197.9 29.25 193.4 21.75 190.85 16.1 189.3 L16.4 187.8 Q21.9 189.35 29.25 191.85 41.65 196.4 51.45 192.1 63.6 184.85 70.55 191.85 L70.55 193.4 M-12.3 188.2 L-12.0 189.65 Q-16.85 191.2 -22.0 193.5 -34.8 199.15 -49.95 191.6 -59.6 188.85 -67.5 193.4 L-67.5 191.85 Q-59.6 187.3 -49.95 190.05 -34.8 197.6 -22.0 191.95 -17.05 189.7 -12.3 188.2" fill="#ff6320" fill-rule="evenodd" stroke="none"/>
    <path d="M70.55 193.4 L70.55 191.85 70.55 169.4 70.8 169.4 70.8 200.0 37.95 200.0 Q31.85 200.0 27.5 204.75 23.1 209.45 23.1 216.1 L23.1 216.15 Q23.1 222.85 27.5 227.55 31.85 232.3 37.95 232.3 L70.8 232.3 70.8 233.4 -67.5 233.4 -67.5 194.65 Q-59.6 190.15 -49.95 192.85 -34.8 200.45 -22.0 194.8 -16.65 192.4 -11.6 190.85 -10.6 193.65 -8.25 195.95 -4.0 200.25 2.0 200.25 8.0 200.25 12.25 195.95 14.7 193.5 15.8 190.5 L29.25 194.65 Q41.65 199.2 51.45 194.95 63.6 187.7 70.55 194.65 L70.55 193.4 M2.15 201.9 Q-3.8 201.9 -8.05 206.1 -12.3 210.3 -12.3 216.35 -12.3 222.35 -8.05 226.5 -3.8 230.8 2.15 230.8 8.15 230.8 12.4 226.5 16.6 222.35 16.6 216.35 16.6 210.3 12.4 206.1 8.15 201.9 2.15 201.9 M-32.05 215.75 L-33.5 214.95 -35.15 214.4 Q-36.0 214.05 -36.8 213.5 -38.05 212.7 -38.3 212.05 L-39.3 211.0 -39.85 210.3 Q-39.75 210.1 -40.55 209.05 L-41.5 207.85 -43.1 205.6 -44.2 204.85 -45.1 203.5 -46.35 202.85 -48.6 202.2 -49.2 202.0 -49.7 201.7 -50.2 201.45 -51.45 201.25 -53.7 201.6 -56.4 202.5 -57.55 203.05 Q-59.85 202.65 -61.55 203.9 -63.0 205.0 -63.4 206.9 L-63.55 208.65 -63.35 210.4 -63.4 210.9 -63.55 211.35 Q-63.7 212.3 -63.45 215.6 L-63.0 217.45 -62.15 218.7 -61.4 219.75 Q-61.2 220.05 -60.95 220.9 -60.45 222.25 -58.85 223.25 -57.4 224.3 -54.15 225.7 L-52.9 225.9 -51.35 225.65 Q-47.9 224.7 -44.7 224.3 L-41.2 224.7 -37.35 225.8 Q-37.25 225.8 -36.05 226.9 -34.8 228.0 -33.55 228.55 -31.9 229.25 -30.0 229.4 L-27.85 229.35 -26.9 229.1 -26.0 228.85 -24.75 227.75 -24.25 227.25 -24.0 226.9 -23.6 226.15 -23.2 224.85 -23.0 224.1 Q-22.4 222.6 -23.75 220.45 -25.05 218.35 -26.85 217.6 -27.45 217.35 -28.65 217.05 L-30.05 216.8 -32.05 215.75" fill="#5667b8" fill-rule="evenodd" stroke="none"/>
    <path d="M-1.8 203.5 L3.15 207.75 -2.05 212.1 -2.05 210.2 Q-2.8 210.65 -3.4 211.3 -5.7 213.6 -5.7 216.8 -5.7 220.0 -3.4 222.3 -1.1 224.6 2.1 224.6 5.3 224.6 7.6 222.3 9.9 220.0 9.9 216.8 9.9 213.6 7.6 211.3 6.6 210.3 5.45 209.8 L5.45 205.55 Q8.25 206.35 10.35 208.5 13.85 211.9 13.85 216.8 13.85 221.55 10.35 224.95 7.0 228.5 2.1 228.5 -2.65 228.5 -6.15 224.95 -9.55 221.55 -9.55 216.8 -9.55 211.9 -6.15 208.5 -4.3 206.7 -2.05 205.85 L-2.05 203.55 -2.05 203.3 -1.8 203.5" fill="#ff0000" fill-rule="evenodd" stroke="none"/>
    <path d="M-33.6 215.5 L-32.0 216.4 -30.45 217.35 -28.9 217.65 -27.5 217.95 Q-25.1 219.0 -24.1 221.05 -23.0 223.25 -24.1 225.8 -25.5 229.1 -29.55 228.9 L-32.2 228.45 -33.3 228.0 Q-34.75 227.4 -35.7 226.4 -36.45 225.65 -36.65 225.55 -42.7 222.95 -48.25 224.15 L-51.7 225.1 -54.2 225.25 -55.7 224.25 -57.6 223.65 Q-57.8 223.45 -59.3 222.4 L-59.85 221.6 -60.4 220.85 -60.6 220.15 Q-60.8 219.5 -60.95 219.4 -62.2 218.35 -62.8 216.15 L-63.0 213.45 Q-63.0 211.35 -62.8 210.9 -62.65 210.45 -62.85 209.0 -63.15 207.5 -62.8 206.8 -61.65 204.1 -59.7 203.65 L-58.35 203.6 -57.55 203.65 Q-55.95 202.85 -53.9 202.2 L-50.45 201.95 Q-50.35 201.95 -49.85 202.3 L-49.25 202.6 -47.9 202.95 -46.7 203.25 -45.75 204.05 -43.95 205.55 Q-43.3 206.0 -42.75 207.0 L-41.6 208.6 Q-41.05 209.05 -40.65 209.85 L-40.2 210.95 -39.7 211.3 -39.2 211.7 -38.7 212.6 -38.25 213.3 Q-37.1 213.8 -36.3 214.35 L-35.6 214.85 -33.6 215.5 M-38.55 213.9 L-38.7 213.85 -39.55 213.7 -40.6 213.55 -41.05 213.4 Q-41.3 213.3 -41.45 211.8 L-41.8 209.75 Q-42.6 210.15 -43.3 208.55 L-43.8 207.35 Q-44.15 206.7 -44.35 206.6 -45.25 206.1 -45.75 205.2 -46.15 204.4 -46.6 204.15 -47.3 203.85 -48.6 203.7 L-49.9 203.5 -50.55 203.0 -50.95 202.6 -51.95 202.7 -53.85 203.0 Q-56.75 203.5 -57.15 204.55 L-57.25 205.05 -57.25 205.35 -57.4 205.4 -57.6 205.45 -58.1 205.0 -58.6 204.6 Q-60.05 203.95 -61.0 204.85 L-62.35 206.95 Q-63.15 208.85 -62.35 209.5 L-61.65 209.8 -61.2 210.2 -62.35 211.45 -62.25 213.25 -61.95 216.55 -60.25 219.25 Q-58.75 221.2 -58.65 221.5 L-58.65 221.55 -58.4 222.0 -56.95 223.0 Q-54.95 223.85 -54.05 223.45 L-53.15 223.1 -51.55 223.05 Q-49.65 223.3 -46.8 222.2 L-45.0 221.45 -44.0 221.25 -43.6 221.6 -42.95 222.05 -42.95 221.55 -42.9 221.5 -42.75 221.55 -42.2 222.15 -41.45 222.75 -38.1 224.05 -34.2 225.6 -33.0 226.0 -32.3 226.15 Q-31.65 226.35 -31.65 226.9 L-34.45 226.1 -34.25 226.2 -33.55 226.9 -32.75 227.55 -32.25 227.7 -31.55 228.0 -30.4 228.2 Q-29.95 228.25 -29.85 227.95 -29.75 227.75 -30.3 227.0 L-27.5 227.1 Q-26.15 226.55 -25.5 224.95 -24.85 223.35 -25.15 221.55 -25.55 219.25 -27.7 218.35 L-29.95 218.1 -27.35 219.3 Q-26.9 219.55 -27.0 219.75 L-27.05 219.9 -27.1 219.9 -29.35 219.2 -30.95 218.6 -33.15 217.3 -34.4 216.35 -36.25 215.85 -37.1 214.95 Q-37.95 214.2 -38.55 213.9" fill="#8c531c" fill-rule="evenodd" stroke="none"/>
    <path d="M-40.1 214.65 L-40.35 215.15 -40.65 215.5 Q-40.85 215.9 -39.6 216.7 L-36.6 218.3 Q-34.0 219.65 -33.15 220.1 L-30.4 221.9 -31.15 221.75 -31.6 221.65 Q-37.3 219.2 -39.85 217.25 -43.3 214.6 -42.2 212.05 -42.0 211.5 -43.05 210.3 L-44.45 208.85 -45.1 207.0 -45.15 206.75 -45.45 206.5 Q-46.3 206.1 -46.75 205.35 L-47.85 204.45 -48.95 204.65 -50.6 204.7 -51.65 203.65 Q-52.65 203.25 -54.55 203.95 -56.3 204.55 -56.45 204.9 L-56.55 206.45 Q-56.5 207.6 -56.75 208.0 L-56.85 208.05 -56.95 207.95 -57.9 206.35 Q-58.55 205.35 -58.75 205.3 L-59.8 205.5 Q-60.9 205.9 -61.25 206.75 L-61.9 208.65 Q-61.9 209.2 -61.1 209.55 L-59.3 209.85 -59.2 209.95 -59.25 210.15 -60.2 210.55 -61.1 211.4 Q-61.55 212.3 -61.15 214.2 -60.75 216.2 -59.7 217.1 L-59.0 218.6 Q-58.6 219.95 -57.95 220.45 L-56.45 221.75 -55.85 222.45 -52.55 222.55 -49.15 222.4 -47.25 221.85 -45.9 221.3 -43.75 218.6 -43.4 218.15 -43.2 218.1 -43.0 218.6 -42.75 219.65 Q-42.35 221.15 -41.55 221.45 L-39.95 222.0 -39.05 222.2 Q-38.9 222.25 -38.4 222.6 L-37.3 223.15 Q-35.0 224.1 -32.15 226.05 L-31.85 226.1 Q-31.6 224.55 -34.1 222.8 -34.9 222.25 -36.0 221.65 L-37.05 221.1 -36.95 221.1 -36.3 221.25 Q-33.6 222.4 -31.6 224.4 L-30.35 225.7 -29.75 226.3 -27.95 226.25 Q-27.55 225.85 -26.75 223.85 -26.2 222.65 -27.15 221.3 -27.95 220.25 -28.8 219.9 L-29.7 219.9 -31.3 219.6 -36.0 217.2 -40.1 214.65 M-38.55 213.9 Q-37.95 214.2 -37.1 214.95 L-36.25 215.85 -34.4 216.35 -33.15 217.3 -30.95 218.6 -29.35 219.2 -27.1 219.9 -27.05 219.9 -27.0 219.75 Q-26.9 219.55 -27.35 219.3 L-29.95 218.1 -27.7 218.35 Q-25.55 219.25 -25.15 221.55 -24.85 223.35 -25.5 224.95 -26.15 226.55 -27.5 227.1 L-30.3 227.0 Q-29.75 227.75 -29.85 227.95 -29.95 228.25 -30.4 228.2 L-31.55 228.0 -32.25 227.7 -32.75 227.55 -33.55 226.9 -34.25 226.2 -34.45 226.1 -31.65 226.9 Q-31.65 226.35 -32.3 226.15 L-33.0 226.0 -34.2 225.6 -38.1 224.05 -41.45 222.75 -42.2 222.15 -42.75 221.55 -42.9 221.5 -42.95 221.55 -42.95 222.05 -43.6 221.6 -44.0 221.25 -45.0 221.45 -46.8 222.2 Q-49.65 223.3 -51.55 223.05 L-53.15 223.1 -54.05 223.45 Q-54.95 223.85 -56.95 223.0 L-58.4 222.0 -58.65 221.55 -58.65 221.5 Q-58.75 221.2 -60.25 219.25 L-61.95 216.55 -62.25 213.25 -62.35 211.45 -61.2 210.2 -61.65 209.8 -62.35 209.5 Q-63.15 208.85 -62.35 206.95 L-61.0 204.85 Q-60.05 203.95 -58.6 204.6 L-58.1 205.0 -57.6 205.45 -57.4 205.4 -57.25 205.35 -57.25 205.05 -57.15 204.55 Q-56.75 203.5 -53.85 203.0 L-51.95 202.7 -50.95 202.6 -50.55 203.0 -49.9 203.5 -48.6 203.7 Q-47.3 203.85 -46.6 204.15 -46.15 204.4 -45.75 205.2 -45.25 206.1 -44.35 206.6 -44.15 206.7 -43.8 207.35 L-43.3 208.55 Q-42.6 210.15 -41.8 209.75 L-41.45 211.8 Q-41.3 213.3 -41.05 213.4 L-40.6 213.55 -39.55 213.7 -38.7 213.85 -38.55 213.9" fill="#ac712e" fill-rule="evenodd" stroke="none"/>
    <path d="M-40.1 214.65 L-36.0 217.2 -31.3 219.6 -29.7 219.9 -28.8 219.9 Q-27.95 220.25 -27.15 221.3 -26.2 222.65 -26.75 223.85 -27.55 225.85 -27.95 226.25 L-29.75 226.3 -30.35 225.7 -31.6 224.4 Q-33.6 222.4 -36.3 221.25 L-36.95 221.1 -37.05 221.1 -36.0 221.65 Q-34.9 222.25 -34.1 222.8 -31.6 224.55 -31.85 226.1 L-32.15 226.05 Q-35.0 224.1 -37.3 223.15 L-38.4 222.6 Q-38.9 222.25 -39.05 222.2 L-39.95 222.0 -41.55 221.45 Q-42.35 221.15 -42.75 219.65 L-43.0 218.6 -43.2 218.1 -43.4 218.15 -43.75 218.6 -45.9 221.3 -47.25 221.85 -49.15 222.4 -52.55 222.55 -55.85 222.45 -56.45 221.75 -57.95 220.45 Q-58.6 219.95 -59.0 218.6 L-59.7 217.1 Q-60.75 216.2 -61.15 214.2 -61.55 212.3 -61.1 211.4 L-60.2 210.55 -59.25 210.15 -59.2 209.95 -59.3 209.85 -61.1 209.55 Q-61.9 209.2 -61.9 208.65 L-61.25 206.75 Q-60.9 205.9 -59.8 205.5 L-58.75 205.3 Q-58.55 205.35 -57.9 206.35 L-56.95 207.95 -56.85 208.05 -56.75 208.0 Q-56.5 207.6 -56.55 206.45 L-56.45 204.9 Q-56.3 204.55 -54.55 203.95 -52.65 203.25 -51.65 203.65 L-50.6 204.7 -48.95 204.65 -47.85 204.45 -46.75 205.35 Q-46.3 206.1 -45.45 206.5 L-45.15 206.75 -45.1 207.0 -44.45 208.85 -43.05 210.3 Q-42.0 211.5 -42.2 212.05 -43.3 214.6 -39.85 217.25 -37.3 219.2 -31.6 221.65 L-31.15 221.75 -30.4 221.9 -33.15 220.1 Q-34.0 219.65 -36.6 218.3 L-39.6 216.7 Q-40.85 215.9 -40.65 215.5 L-40.35 215.15 -40.1 214.65 M-35.7 222.4 Q-36.35 222.25 -38.45 220.9 -40.45 219.75 -41.0 219.9 L-38.9 221.3 -36.85 222.5 -36.2 222.75 Q-35.85 222.8 -35.75 222.55 L-35.7 222.4 M-39.3 219.45 Q-37.15 220.1 -36.3 220.55 L-35.2 221.05 -32.5 222.5 -30.95 223.85 -28.95 225.45 -28.4 225.5 -27.75 224.6 -27.35 223.05 Q-27.35 222.35 -28.0 222.1 L-29.55 222.25 -30.0 222.5 -30.45 222.6 -33.25 221.25 -34.55 220.5 -37.1 219.5 Q-39.5 218.5 -40.8 217.55 -41.85 216.7 -43.45 213.6 L-44.5 211.6 Q-45.05 210.65 -45.55 210.45 L-45.8 210.45 -45.95 210.4 -46.35 210.15 -46.8 209.9 Q-47.4 209.65 -48.55 211.3 L-49.7 213.1 -49.8 214.55 -49.85 215.8 -49.95 216.0 -50.15 215.95 -50.5 215.2 -50.5 214.35 Q-50.55 213.2 -51.7 212.75 L-52.6 212.5 -53.0 212.45 -53.9 211.5 -54.0 210.9 -53.85 210.7 -53.35 210.85 -53.05 211.15 -52.55 211.5 Q-51.8 211.8 -50.55 211.15 -49.15 210.45 -48.65 209.35 -48.1 208.05 -49.4 206.85 -50.4 206.05 -52.55 205.1 L-53.85 204.9 Q-54.75 204.95 -54.95 205.45 L-55.4 207.5 -55.4 208.8 -55.8 209.35 Q-56.05 209.65 -56.45 209.8 L-58.2 207.1 -59.3 206.15 -60.05 206.35 -60.75 207.1 Q-61.3 208.45 -59.65 209.2 L-58.75 209.0 Q-57.9 209.35 -57.7 209.85 -57.5 210.25 -57.75 210.9 -58.05 211.65 -58.9 211.9 -59.65 212.25 -59.85 212.7 -60.3 213.65 -59.95 214.8 -59.5 216.05 -58.45 216.9 -57.75 217.55 -57.45 218.15 L-57.1 219.3 -56.6 220.3 -55.4 221.15 -54.3 221.0 -53.4 220.5 Q-53.2 219.9 -53.6 218.8 -54.05 217.6 -54.75 217.3 L-55.6 217.05 -56.25 217.0 -56.3 216.85 -56.45 216.4 -55.65 216.2 -54.6 215.9 -54.65 214.9 -54.65 213.9 -54.5 213.8 -54.4 213.85 Q-54.05 214.05 -53.85 214.75 L-53.35 216.3 Q-52.8 218.45 -52.05 218.85 L-51.6 218.9 -51.2 218.95 -50.7 219.2 -50.2 219.5 Q-49.35 219.9 -48.15 219.0 -46.7 217.85 -45.6 215.2 L-45.3 214.35 -45.05 213.15 Q-44.7 215.45 -43.7 216.9 -42.85 218.2 -41.55 218.8 L-39.3 219.45 M-47.75 206.95 L-47.75 207.8 -47.15 208.4 -46.35 208.35 -45.75 207.85 Q-45.6 207.4 -45.75 206.95 L-46.3 206.45 -47.15 206.4 Q-47.6 206.55 -47.75 206.95 M-51.4 219.5 L-52.0 219.85 -51.85 220.55 -51.25 221.1 -50.45 221.15 Q-50.0 221.05 -49.9 220.75 -49.75 220.45 -49.95 220.1 L-50.65 219.55 -51.4 219.5" fill="#cc9141" fill-rule="evenodd" stroke="none"/>
    <path d="M-35.7 222.4 L-35.75 222.55 Q-35.85 222.8 -36.2 222.75 L-36.85 222.5 -38.9 221.3 -41.0 219.9 Q-40.45 219.75 -38.45 220.9 -36.35 222.25 -35.7 222.4 M-39.3 219.45 L-41.55 218.8 Q-42.85 218.2 -43.7 216.9 -44.7 215.45 -45.05 213.15 L-45.3 214.35 -45.6 215.2 Q-46.7 217.85 -48.15 219.0 -49.35 219.9 -50.2 219.5 L-50.7 219.2 -51.2 218.95 -51.6 218.9 -52.05 218.85 Q-52.8 218.45 -53.35 216.3 L-53.85 214.75 Q-54.05 214.05 -54.4 213.85 L-54.5 213.8 -54.65 213.9 -54.65 214.9 -54.6 215.9 -55.65 216.2 -56.45 216.4 -56.3 216.85 -56.25 217.0 -55.6 217.05 -54.75 217.3 Q-54.05 217.6 -53.6 218.8 -53.2 219.9 -53.4 220.5 L-54.3 221.0 -55.4 221.15 -56.6 220.3 -57.1 219.3 -57.45 218.15 Q-57.75 217.55 -58.45 216.9 -59.5 216.05 -59.95 214.8 -60.3 213.65 -59.85 212.7 -59.65 212.25 -58.9 211.9 -58.05 211.65 -57.75 210.9 -57.5 210.25 -57.7 209.85 -57.9 209.35 -58.75 209.0 L-59.65 209.2 Q-61.3 208.45 -60.75 207.1 L-60.05 206.35 -59.3 206.15 -58.2 207.1 -56.45 209.8 Q-56.05 209.65 -55.8 209.35 L-55.4 208.8 -55.4 207.5 -54.95 205.45 Q-54.75 204.95 -53.85 204.9 L-52.55 205.1 Q-50.4 206.05 -49.4 206.85 -48.1 208.05 -48.65 209.35 -49.15 210.45 -50.55 211.15 -51.8 211.8 -52.55 211.5 L-53.05 211.15 -53.35 210.85 -53.85 210.7 -54.0 210.9 -53.9 211.5 -53.0 212.45 -52.6 212.5 -51.7 212.75 Q-50.55 213.2 -50.5 214.35 L-50.5 215.2 -50.15 215.95 -49.95 216.0 -49.85 215.8 -49.8 214.55 -49.7 213.1 -48.55 211.3 Q-47.4 209.65 -46.8 209.9 L-46.35 210.15 -45.95 210.4 -45.8 210.45 -45.55 210.45 Q-45.05 210.65 -44.5 211.6 L-43.45 213.6 Q-41.85 216.7 -40.8 217.55 -39.5 218.5 -37.1 219.5 L-34.55 220.5 -33.25 221.25 -30.45 222.6 -30.0 222.5 -29.55 222.25 -28.0 222.1 Q-27.35 222.35 -27.35 223.05 L-27.75 224.6 -28.4 225.5 -28.95 225.45 -30.95 223.85 -32.5 222.5 -35.2 221.05 -36.3 220.55 Q-37.15 220.1 -39.3 219.45 M-28.45 224.1 L-28.45 223.45 -28.85 223.05 -29.45 223.0 -29.9 223.45 -29.9 224.0 -29.45 224.45 -28.85 224.45 -28.45 224.1 M-47.75 206.95 Q-47.6 206.55 -47.15 206.4 L-46.3 206.45 -45.75 206.95 Q-45.6 207.4 -45.75 207.85 L-46.35 208.35 -47.15 208.4 -47.75 207.8 -47.75 206.95 M-55.75 218.55 L-56.15 219.0 -56.15 219.55 -55.75 220.0 -55.15 219.95 Q-54.85 219.85 -54.7 219.6 L-54.7 219.0 Q-54.8 218.7 -55.15 218.55 L-55.75 218.55 M-57.35 211.95 Q-57.7 212.9 -57.4 214.05 -57.15 215.0 -56.6 215.2 -56.2 215.35 -56.0 214.8 -55.55 213.75 -55.55 212.95 -55.6 211.85 -56.4 211.5 L-56.95 211.55 -57.35 211.95 M-52.8 213.35 L-52.85 213.4 -52.95 213.6 Q-52.9 214.65 -52.45 215.8 L-51.2 217.5 -49.85 218.4 Q-49.3 218.55 -49.0 217.95 L-48.95 217.7 Q-48.9 217.45 -49.15 217.35 L-49.35 217.4 -49.65 217.4 -50.95 215.45 Q-52.3 213.55 -52.65 213.4 L-52.8 213.35 M-51.6 207.2 L-52.8 207.05 Q-53.4 207.2 -53.65 207.75 -53.85 208.2 -53.45 208.65 L-52.6 209.5 -51.35 209.6 Q-50.8 209.45 -50.6 208.95 -50.4 208.45 -50.7 208.0 -51.0 207.45 -51.6 207.2 M-59.15 207.0 L-59.7 206.95 -60.05 207.3 -60.1 207.9 -59.7 208.3 -59.15 208.25 -58.75 207.9 Q-58.65 207.65 -58.8 207.3 -58.9 207.1 -59.15 207.0 M-51.4 219.5 L-50.65 219.55 -49.95 220.1 Q-49.75 220.45 -49.9 220.75 -50.0 221.05 -50.45 221.15 L-51.25 221.1 -51.85 220.55 -52.0 219.85 -51.4 219.5 M-46.2 213.35 Q-46.2 212.7 -46.6 212.55 -46.95 212.3 -47.55 212.8 L-48.35 214.0 -48.65 215.35 -48.2 216.25 Q-47.8 216.4 -47.35 215.95 -46.75 215.5 -46.45 214.75 -46.1 214.0 -46.2 213.35" fill="#dea353" fill-rule="evenodd" stroke="none"/>
    <path d="M-28.45 224.1 L-28.85 224.45 -29.45 224.45 -29.9 224.0 -29.9 223.45 -29.45 223.0 -28.85 223.05 -28.45 223.45 -28.45 224.1 M-59.15 207.0 Q-58.9 207.1 -58.8 207.3 -58.65 207.65 -58.75 207.9 L-59.15 208.25 -59.7 208.3 -60.1 207.9 -60.05 207.3 -59.7 206.95 -59.15 207.0 M-51.6 207.2 Q-51.0 207.45 -50.7 208.0 -50.4 208.45 -50.6 208.95 -50.8 209.45 -51.35 209.6 L-52.6 209.5 -53.45 208.65 Q-53.85 208.2 -53.65 207.75 -53.4 207.2 -52.8 207.05 L-51.6 207.2 M-52.8 213.35 L-52.65 213.4 Q-52.3 213.55 -50.95 215.45 L-49.65 217.4 -49.35 217.4 -49.15 217.35 Q-48.9 217.45 -48.95 217.7 L-49.0 217.95 Q-49.3 218.55 -49.85 218.4 L-51.2 217.5 -52.45 215.8 Q-52.9 214.65 -52.95 213.6 L-52.85 213.4 -52.8 213.35 M-57.35 211.95 L-56.95 211.55 -56.4 211.5 Q-55.6 211.85 -55.55 212.95 -55.55 213.75 -56.0 214.8 -56.2 215.35 -56.6 215.2 -57.15 215.0 -57.4 214.05 -57.7 212.9 -57.35 211.95 M-55.75 218.55 L-55.15 218.55 Q-54.8 218.7 -54.7 219.0 L-54.7 219.6 Q-54.85 219.85 -55.15 219.95 L-55.75 220.0 -56.15 219.55 -56.15 219.0 -55.75 218.55 M-46.2 213.35 Q-46.1 214.0 -46.45 214.75 -46.75 215.5 -47.35 215.95 -47.8 216.4 -48.2 216.25 L-48.65 215.35 -48.35 214.0 -47.55 212.8 Q-46.95 212.3 -46.6 212.55 -46.2 212.7 -46.2 213.35" fill="#ecb56a" fill-rule="evenodd" stroke="none"/>
    <path d="M90.05 183.55 L75.15 183.55 M90.05 210.85 L75.15 210.85" fill="none" stroke="#ffffff" stroke-linecap="round" stroke-linejoin="round" stroke-width="2.0"/>
  </g>
</svg>
