<?xml version="1.0" encoding="UTF-8" standalone="no"?>
<svg xmlns:ffdec="https://www.free-decompiler.com/flash" xmlns:xlink="http://www.w3.org/1999/xlink" ffdec:objectType="shape" height="265.8px" width="130.35px" xmlns="http://www.w3.org/2000/svg">
  <g transform="matrix(1.0, 0.0, 0.0, 1.0, 62.05, 6.85)">
    <path d="M1.05 250.5 L8.5 257.95 M0.75 239.35 L0.75 250.5 M-47.65 240.6 L-47.65 257.95" fill="none" stroke="#ffffff" stroke-linecap="round" stroke-linejoin="round" stroke-width="2.0"/>
    <path d="M-12.55 3.9 Q-12.55 2.9 -11.9 2.2 -11.25 1.5 -10.3 1.5 -9.35 1.5 -8.65 2.2 -8.0 2.85 -8.0 3.8 L-10.3 3.95 -12.55 3.9 M-8.95 8.5 L-8.05 7.85 Q-7.15 7.2 -6.8 7.2 -6.3 7.2 -5.8 7.6 -5.25 8.05 -5.0 8.9 -5.5 9.35 -6.15 9.7 L-6.85 10.0 Q-7.6 10.0 -8.95 8.5 M-16.05 1.6 Q-14.8 0.7 -14.15 1.7 L-15.45 1.7 -16.05 1.6 M-20.8 5.05 Q-20.25 4.15 -19.6 3.8 L-18.2 3.5 Q-17.0 3.5 -16.45 4.2 -16.1 4.65 -15.9 5.7 L-17.7 6.15 -19.4 5.9 Q-20.4 5.6 -20.8 5.05 M-17.7 11.25 L-19.25 10.95 Q-18.95 9.65 -18.3 9.55 L-17.45 9.7 -17.25 10.15 -17.2 10.6 Q-17.2 11.0 -17.35 11.1 L-17.7 11.25 M-14.8 7.7 L-14.6 7.1 Q-14.2 6.45 -13.8 6.4 L-13.25 6.65 Q-12.7 7.0 -12.6 8.0 L-14.8 7.7 M-15.75 12.2 L-13.5 11.2 -12.75 11.85 -11.95 12.95 Q-12.75 13.45 -13.3 13.45 -14.85 13.45 -15.75 12.2 M-8.2 12.55 L-8.55 13.25 Q-8.75 13.45 -9.2 13.45 L-9.7 13.35 -10.05 13.15 Q-9.55 12.05 -9.0 12.1 L-8.2 12.55 M-2.1 31.3 L1.75 30.75 Q7.15 30.75 10.95 34.5 14.75 38.3 14.75 43.75 14.75 49.15 10.95 52.9 7.15 56.75 1.75 56.75 -3.65 56.75 -7.45 52.9 -11.25 49.15 -11.25 43.75 -11.25 38.3 -7.45 34.5 -5.2 32.25 -2.35 31.35 L-2.35 33.6 Q-4.5 34.4 -6.3 36.15 -9.6 39.45 -9.6 44.2 -9.6 48.8 -6.3 52.1 -2.9 55.5 1.7 55.5 6.45 55.5 9.7 52.1 13.05 48.8 13.05 44.2 13.05 39.45 9.7 36.15 7.65 34.05 4.95 33.3 L4.95 37.4 Q6.05 37.9 7.0 38.85 9.25 41.1 9.25 44.2 9.25 47.3 7.0 49.5 4.8 51.75 1.7 51.75 -1.4 51.75 -3.65 49.5 -5.85 47.3 -5.85 44.2 -5.85 41.1 -3.65 38.85 L-2.35 37.8 -2.35 39.65 2.7 35.4 -2.1 31.3 M49.7 32.6 L44.5 32.6 33.6 45.55 33.6 50.45 44.5 50.45 44.5 54.45 49.7 54.45 49.7 50.45 52.4 50.45 52.4 45.8 49.7 45.8 49.7 32.6 M44.5 39.05 L44.5 45.8 38.75 45.8 44.5 39.05 M17.25 3.9 Q17.25 2.9 17.9 2.2 18.55 1.5 19.5 1.5 20.45 1.5 21.15 2.2 21.8 2.85 21.8 3.8 L19.5 3.95 17.25 3.9 M20.85 8.5 L21.75 7.85 Q22.65 7.2 23.0 7.2 23.5 7.2 24.0 7.6 24.55 8.05 24.8 8.9 L23.65 9.7 22.95 10.0 Q22.2 10.0 20.85 8.5 M19.75 13.15 Q20.25 12.05 20.8 12.1 L21.6 12.55 21.25 13.25 20.6 13.45 20.1 13.35 19.75 13.15 M13.75 1.6 Q15.0 0.7 15.65 1.7 L14.35 1.7 13.75 1.6 M13.9 5.7 L12.1 6.15 10.4 5.9 9.0 5.05 Q9.55 4.15 10.2 3.8 10.8 3.5 11.6 3.5 12.8 3.5 13.35 4.2 13.7 4.65 13.9 5.7 M10.55 10.95 Q10.85 9.65 11.5 9.55 L12.35 9.7 12.55 10.15 12.6 10.6 12.45 11.1 12.1 11.25 10.55 10.95 M15.0 7.7 L15.2 7.1 Q15.6 6.45 16.0 6.4 L16.55 6.65 Q17.1 7.0 17.2 8.0 L15.0 7.7 M14.05 12.2 L16.3 11.2 17.05 11.85 17.85 12.95 Q17.05 13.45 16.5 13.45 14.95 13.45 14.05 12.2 M22.05 43.75 L22.05 43.7 Q22.05 37.25 26.3 32.7 30.5 28.1 36.4 28.1 L68.3 28.1 68.3 59.4 36.4 59.4 Q30.5 59.4 26.3 54.8 22.05 50.25 22.05 43.75" fill="#ffffff" fill-rule="evenodd" stroke="none"/>
    <path d="M28.9 9.05 L29.1 6.85 Q29.1 1.55 25.35 -2.2 21.6 -5.95 16.3 -5.95 11.0 -5.95 7.25 -2.2 3.5 1.55 3.5 6.85 L3.7 9.25 Q3.75 12.75 5.6 15.6 L6.05 16.2 5.9 16.05 5.7 16.05 6.25 17.85 Q7.0 19.75 8.65 21.4 L10.25 22.8 Q11.8 23.8 13.6 24.25 L16.3 24.6 19.05 24.25 Q20.75 23.85 22.2 22.9 L24.0 21.4 Q25.6 19.75 26.4 17.85 L26.95 16.05 26.7 16.05 27.0 15.6 Q28.9 12.7 28.9 9.05 M16.3 -6.85 Q21.95 -6.85 25.95 -2.85 29.95 1.2 29.95 6.85 L29.8 9.15 Q29.75 12.95 27.75 16.05 L27.85 16.05 Q27.2 19.4 24.65 22.05 L24.6 22.05 Q22.25 24.35 19.25 25.1 L16.3 25.45 13.4 25.1 Q10.35 24.35 8.0 22.05 5.45 19.4 4.8 16.05 L4.9 16.05 Q2.9 13.0 2.85 9.35 L2.6 6.85 Q2.6 1.2 6.65 -2.85 10.65 -6.85 16.3 -6.85 M-3.85 -2.85 Q0.15 1.2 0.15 6.85 L0.0 9.15 Q-0.05 12.95 -2.05 16.05 L-1.95 16.05 Q-2.6 19.4 -5.15 22.05 L-5.2 22.05 Q-7.55 24.35 -10.55 25.1 L-13.5 25.45 -16.4 25.1 Q-19.45 24.35 -21.8 22.05 -24.35 19.4 -25.0 16.05 L-24.9 16.05 Q-26.9 13.0 -26.95 9.35 L-27.2 6.85 Q-27.2 1.2 -23.15 -2.85 -19.15 -6.85 -13.5 -6.85 -7.85 -6.85 -3.85 -2.85 M-0.9 9.05 L-0.7 6.85 Q-0.7 1.55 -4.45 -2.2 -8.2 -5.95 -13.5 -5.95 -18.8 -5.95 -22.55 -2.2 -26.3 1.55 -26.3 6.85 L-26.1 9.25 Q-26.05 12.75 -24.2 15.6 L-23.75 16.2 -23.9 16.05 -24.1 16.05 -23.55 17.85 Q-22.8 19.75 -21.15 21.4 L-19.55 22.8 Q-18.0 23.8 -16.2 24.25 L-13.5 24.6 -10.75 24.25 Q-9.05 23.85 -7.6 22.9 L-5.8 21.4 Q-4.2 19.75 -3.4 17.85 -3.05 17.0 -2.85 16.05 L-3.1 16.05 -2.8 15.6 Q-0.9 12.7 -0.9 9.05 M-26.15 30.1 L-26.9 30.4 -34.7 34.85 -42.45 39.25 -42.55 39.4 -54.85 46.4 Q-60.5 49.05 -61.3 51.3 -61.7 52.35 -60.65 54.2 L-60.7 54.85 -60.7 55.05 -60.3 55.75 Q-60.2 55.85 -60.05 55.9 -59.4 56.1 -59.25 56.25 L-59.25 56.7 -59.05 57.25 -58.1 58.1 Q-57.55 58.35 -57.35 58.7 -56.75 59.75 -55.1 58.95 -53.8 58.35 -48.55 55.35 L-21.95 40.3 -21.05 39.3 -21.75 38.1 Q-23.55 37.8 -24.75 35.7 -25.9 33.7 -25.6 32.6 -25.25 31.5 -25.8 30.45 L-26.1 30.1 -26.15 30.1 M-26.2 29.45 Q-25.6 29.4 -25.5 29.75 L-25.25 30.15 Q-24.55 31.45 -24.95 32.75 -25.15 33.65 -24.2 35.35 -23.15 37.15 -21.6 37.45 L-21.4 37.6 -21.2 37.8 -20.5 39.0 -20.4 39.35 -20.55 39.7 Q-21.1 40.6 -21.65 40.85 L-48.25 55.9 -54.8 59.55 Q-57.1 60.65 -57.9 59.05 L-58.35 58.65 Q-59.15 58.3 -59.6 57.55 L-59.85 56.7 -59.9 56.7 -59.85 56.65 -60.3 56.45 -60.65 56.3 -60.85 56.1 -61.25 55.4 -61.3 55.0 -61.3 54.8 -61.3 54.7 -61.2 54.5 Q-62.45 52.35 -61.85 51.05 L-61.9 51.05 Q-61.05 48.6 -55.15 45.85 L-55.1 45.8 -43.0 38.9 -42.95 38.85 -42.75 38.7 -35.0 34.3 -27.2 29.85 -27.05 29.8 -26.35 29.5 -26.2 29.45 M-2.1 31.3 L-2.35 31.1 -2.35 31.35 Q-5.2 32.25 -7.45 34.5 -11.25 38.3 -11.25 43.75 -11.25 49.15 -7.45 52.9 -3.65 56.75 1.75 56.75 7.15 56.75 10.95 52.9 14.75 49.15 14.75 43.75 14.75 38.3 10.95 34.5 7.15 30.75 1.75 30.75 L-2.1 31.3 M-12.25 43.75 Q-12.25 37.9 -8.15 33.8 -4.05 29.75 1.75 29.75 7.55 29.75 11.65 33.8 15.75 37.9 15.75 43.75 15.75 49.55 11.65 53.6 7.55 57.75 1.75 57.75 -4.05 57.75 -8.15 53.6 -12.25 49.55 -12.25 43.75 M44.5 39.05 L38.75 45.8 44.5 45.8 44.5 39.05 M49.7 32.6 L49.7 45.8 52.4 45.8 52.4 50.45 49.7 50.45 49.7 54.45 44.5 54.45 44.5 50.45 33.6 50.45 33.6 45.55 44.5 32.6 49.7 32.6" fill="#000000" fill-rule="evenodd" stroke="none"/>
    <path d="M-2.35 31.35 L-2.35 31.1 -2.1 31.3 2.7 35.4 -2.35 39.65 -2.35 37.8 -3.65 38.85 Q-5.85 41.1 -5.85 44.2 -5.85 47.3 -3.65 49.5 -1.4 51.75 1.7 51.75 4.8 51.75 7.0 49.5 9.25 47.3 9.25 44.2 9.25 41.1 7.0 38.85 6.05 37.9 4.95 37.4 L4.95 33.3 Q7.65 34.05 9.7 36.15 13.05 39.45 13.05 44.2 13.05 48.8 9.7 52.1 6.45 55.5 1.7 55.5 -2.9 55.5 -6.3 52.1 -9.6 48.8 -9.6 44.2 -9.6 39.45 -6.3 36.15 -4.5 34.4 -2.35 33.6 L-2.35 31.35" fill="#ff0000" fill-rule="evenodd" stroke="none"/>
    <path d="M-26.15 30.1 L-26.1 30.1 -25.8 30.45 Q-25.25 31.5 -25.6 32.6 -25.9 33.7 -24.75 35.7 -23.55 37.8 -21.75 38.1 L-21.05 39.3 -21.95 40.3 -48.55 55.35 Q-53.8 58.35 -55.1 58.95 -56.75 59.75 -57.35 58.7 -57.55 58.35 -58.1 58.1 L-59.05 57.25 -59.25 56.7 -59.25 56.25 Q-59.4 56.1 -60.05 55.9 -60.2 55.85 -60.3 55.75 L-60.7 55.05 -60.7 54.85 -60.65 54.2 Q-61.7 52.35 -61.3 51.3 -60.5 49.05 -54.85 46.4 L-42.55 39.4 -42.45 39.25 -34.7 34.85 -26.9 30.4 -26.15 30.1 M-27.9 33.65 L-27.55 33.1 Q-27.5 32.7 -27.7 32.35 L-27.85 31.55 -57.85 48.6 -59.85 50.05 -61.05 51.2 -60.7 52.1 -61.05 52.5 Q-61.35 52.75 -61.15 53.05 L-60.8 53.55 -60.6 53.55 -60.2 54.2 Q-60.35 54.8 -60.1 55.4 L-59.45 55.55 Q-58.85 56.1 -58.8 56.7 L-58.05 57.5 -57.35 57.65 -56.95 58.25 -56.8 58.95 -55.8 58.95 -53.45 57.7 -22.85 40.15 -23.65 39.6 Q-23.85 39.0 -24.35 38.6 -25.3 38.25 -25.45 37.8 L-25.55 37.4 Q-25.8 36.95 -26.45 36.65 L-26.9 36.1 -27.05 35.45 -27.45 34.5 -27.6 34.4 -27.9 33.65 M-26.3 30.5 L-26.4 30.8 -26.35 30.95 Q-27.3 31.5 -27.5 32.7 L-27.5 33.85 -27.0 34.45 -26.5 35.0 -26.6 35.3 -26.55 36.0 -26.0 36.25 Q-25.45 36.45 -25.25 36.8 L-25.05 37.5 -24.9 37.95 -24.1 38.4 -23.35 38.65 -23.25 39.3 -23.1 39.7 -21.5 39.45 -21.95 38.5 -23.05 38.25 Q-24.0 37.75 -25.1 35.85 -25.95 34.35 -26.05 32.95 L-26.3 30.5" fill="#6f7e14" fill-rule="evenodd" stroke="none"/>
    <path d="M-26.3 30.5 L-26.05 32.95 Q-25.95 34.35 -25.1 35.85 -24.0 37.75 -23.05 38.25 L-21.95 38.5 -21.5 39.45 -23.1 39.7 -23.25 39.3 -23.35 38.65 -24.1 38.4 -24.9 37.95 -25.05 37.5 -25.25 36.8 Q-25.45 36.45 -26.0 36.25 L-26.55 36.0 -26.6 35.3 -26.5 35.0 -27.0 34.45 -27.5 33.85 -27.5 32.7 Q-27.3 31.5 -26.35 30.95 L-26.4 30.8 -26.3 30.5 M-27.7 32.35 Q-27.5 32.7 -27.55 33.1 L-27.9 33.65 -27.85 33.35 -60.7 52.1 -61.05 51.2 Q-42.5 40.65 -28.4 32.85 L-27.7 32.35 M-24.35 38.6 Q-23.85 39.0 -23.65 39.6 L-56.95 58.25 -57.35 57.65 -24.35 38.6" fill="#8b9c22" fill-rule="evenodd" stroke="none"/>
    <path d="M-27.9 33.65 L-27.6 34.4 -27.45 34.5 -60.6 53.55 -60.8 53.55 -61.15 53.05 Q-61.35 52.75 -61.05 52.5 L-60.7 52.1 -27.85 33.35 -27.9 33.65 M-25.45 37.8 Q-25.3 38.25 -24.35 38.6 L-57.35 57.65 -58.05 57.5 -58.8 56.7 -25.45 37.8" fill="#d7e77b" fill-rule="evenodd" stroke="none"/>
    <path d="M-27.05 35.45 L-26.9 36.1 -26.45 36.65 -55.35 53.25 -59.45 55.55 -60.1 55.4 Q-60.35 54.8 -60.2 54.2 L-27.05 35.45" fill="#e0ec9c" fill-rule="evenodd" stroke="none"/>
    <path d="M-27.45 34.5 L-27.05 35.45 -60.2 54.2 -60.6 53.55 -27.45 34.5 M-26.45 36.65 Q-25.8 36.95 -25.55 37.4 L-25.45 37.8 -58.8 56.7 Q-58.85 56.1 -59.45 55.55 L-55.35 53.25 -26.45 36.65 M-23.65 39.6 L-22.85 40.15 -53.45 57.7 -55.8 58.95 -56.8 58.95 -56.95 58.25 -23.65 39.6 M-61.05 51.2 L-59.85 50.05 -57.85 48.6 -27.85 31.55 -27.7 32.35 -28.4 32.85 Q-42.5 40.65 -61.05 51.2" fill="#aec239" fill-rule="evenodd" stroke="none"/>
    <path d="M5.5 7.95 L5.45 6.85 Q5.45 2.35 8.65 -0.85 L9.5 -1.65 8.9 0.55 8.7 1.3 8.65 1.35 Q5.85 4.15 5.5 7.95 M23.35 -1.4 L24.0 -0.85 Q27.15 2.35 27.15 6.85 L27.1 7.95 Q26.75 4.15 24.0 1.4 L24.0 1.35 23.35 -1.2 23.35 -1.4 M22.2 22.9 Q20.75 23.85 19.05 24.25 L16.3 24.6 13.6 24.25 Q11.8 23.8 10.25 22.8 L10.25 22.6 10.1 21.05 Q13.25 22.55 15.0 22.55 19.15 22.55 21.75 21.65 L22.4 21.4 22.2 22.8 22.2 22.9 M-24.3 7.95 L-24.35 6.85 Q-24.35 2.35 -21.15 -0.85 L-20.3 -1.65 -20.9 0.55 -21.1 1.3 -21.15 1.35 Q-23.95 4.15 -24.3 7.95 M-6.45 -1.4 L-5.8 -0.85 Q-2.65 2.35 -2.65 6.85 L-2.7 7.95 Q-3.05 4.15 -5.8 1.4 L-5.8 1.35 -6.45 -1.2 -6.45 -1.4 M-7.6 22.9 Q-9.05 23.85 -10.75 24.25 L-13.5 24.6 -16.2 24.25 Q-18.0 23.8 -19.55 22.8 L-19.55 22.6 -19.7 21.05 Q-16.55 22.55 -14.8 22.55 -10.65 22.55 -8.05 21.65 L-7.4 21.4 -7.6 22.8 -7.6 22.9" fill="#192546" fill-rule="evenodd" stroke="none"/>
    <path d="M9.5 -1.65 L8.65 -0.85 Q5.45 2.35 5.45 6.85 L5.5 7.95 Q5.85 11.75 8.65 14.5 11.8 17.7 16.3 17.7 20.8 17.7 24.0 14.5 26.75 11.75 27.1 7.95 L27.15 6.85 Q27.15 2.35 24.0 -0.85 L23.35 -1.4 Q20.4 -4.0 16.3 -4.0 12.45 -4.0 9.5 -1.65 M3.7 9.25 L3.5 6.85 Q3.5 1.55 7.25 -2.2 11.0 -5.95 16.3 -5.95 21.6 -5.95 25.35 -2.2 29.1 1.55 29.1 6.85 L28.9 9.05 28.9 8.95 Q28.65 10.85 27.15 13.3 L25.2 15.75 Q21.55 19.45 16.3 19.45 11.1 19.45 7.4 15.75 6.25 14.6 5.45 13.3 3.95 10.85 3.7 9.05 L3.7 9.25 M-20.3 -1.65 L-21.15 -0.85 Q-24.35 2.35 -24.35 6.85 L-24.3 7.95 Q-23.95 11.75 -21.15 14.5 -18.0 17.7 -13.5 17.7 -9.0 17.7 -5.8 14.5 -3.05 11.75 -2.7 7.95 L-2.65 6.85 Q-2.65 2.35 -5.8 -0.85 L-6.45 -1.4 Q-9.4 -4.0 -13.5 -4.0 -17.35 -4.0 -20.3 -1.65 M-26.1 9.25 L-26.3 6.85 Q-26.3 1.55 -22.55 -2.2 -18.8 -5.95 -13.5 -5.95 -8.2 -5.95 -4.45 -2.2 -0.7 1.55 -0.7 6.85 L-0.9 9.05 -0.9 8.95 Q-1.15 10.85 -2.65 13.3 -3.45 14.6 -4.6 15.75 -8.25 19.45 -13.5 19.45 -18.7 19.45 -22.4 15.75 L-24.35 13.3 Q-25.85 10.85 -26.1 9.05 L-26.1 9.25" fill="#4d6fca" fill-rule="evenodd" stroke="none"/>
    <path d="M25.0 10.8 L24.35 12.0 Q21.65 16.75 16.9 16.75 L13.95 16.25 12.3 15.6 10.8 14.7 9.8 13.95 9.65 13.85 9.05 13.3 7.15 9.9 7.15 9.85 6.95 8.1 7.0 7.5 Q7.2 6.3 8.1 4.4 L8.2 4.15 8.3 4.05 8.4 3.8 8.55 3.5 Q9.9 0.85 13.85 -0.6 L20.15 -0.25 Q22.25 0.4 23.7 1.95 L24.2 2.5 24.35 2.6 Q25.2 3.6 25.65 4.7 L25.9 5.4 26.05 6.0 26.15 7.15 25.55 9.4 25.0 7.45 Q23.3 6.1 21.75 7.3 20.65 8.15 20.1 9.7 L20.05 9.8 20.0 10.35 Q20.0 11.0 20.55 11.65 L19.45 12.4 Q19.1 13.15 19.1 13.65 19.1 14.7 21.1 14.7 22.3 14.7 22.65 13.95 L22.6 12.15 24.1 11.45 25.0 10.8 M-4.8 10.8 L-5.45 12.0 Q-8.15 16.75 -12.9 16.75 L-15.85 16.25 -17.5 15.6 -19.0 14.7 -20.0 13.95 -20.15 13.85 -20.75 13.3 -22.65 9.9 -22.65 9.85 -22.85 8.1 -22.8 7.5 Q-22.6 6.3 -21.7 4.4 L-21.6 4.15 -21.5 4.05 -21.4 3.8 -21.25 3.5 Q-19.9 0.85 -15.95 -0.6 L-9.65 -0.25 Q-7.55 0.4 -6.1 1.95 L-5.6 2.5 -5.45 2.6 Q-4.6 3.6 -4.15 4.7 L-3.9 5.4 -3.75 6.0 -3.65 7.15 -4.25 9.4 Q-4.3 8.45 -4.8 7.45 -6.5 6.1 -8.05 7.3 -9.15 8.15 -9.7 9.7 L-9.75 9.8 -9.8 10.35 Q-9.8 11.0 -9.25 11.65 -9.95 12.05 -10.35 12.4 L-10.7 13.65 Q-10.7 14.7 -8.7 14.7 -7.5 14.7 -7.15 13.95 -6.95 13.35 -7.2 12.15 -6.8 12.15 -5.7 11.45 L-4.8 10.8 M-12.55 1.55 Q-13.2 2.5 -13.65 4.0 -13.65 5.5 -12.05 6.35 -10.95 6.95 -10.25 6.95 -8.55 6.95 -7.6 5.55 L-7.0 4.1 Q-7.0 2.95 -7.85 2.05 -9.4 0.8 -10.35 0.8 -11.8 1.0 -12.55 1.55 M-8.0 3.8 Q-9.2 5.6 -10.3 5.6 L-11.25 5.15 -12.55 3.9 -10.3 3.95 -8.0 3.8 M-5.0 8.9 Q-5.15 9.6 -5.8 10.3 -6.55 11.1 -7.3 11.1 L-8.45 10.85 Q-9.35 10.2 -8.95 8.5 -7.6 10.0 -6.85 10.0 L-6.15 9.7 Q-5.5 9.35 -5.0 8.9 M-14.15 1.7 L-14.65 2.25 Q-14.85 2.45 -15.3 2.45 -15.8 2.45 -15.9 2.15 L-16.05 1.6 -15.45 1.7 -14.15 1.7 M-14.2 0.8 L-16.05 1.05 Q-16.45 0.55 -16.75 1.25 L-17.05 2.35 -16.7 3.1 Q-16.3 3.55 -15.5 3.55 -14.7 3.55 -14.15 3.0 -13.55 2.45 -13.55 1.5 L-13.6 0.7 -14.6 0.65 -14.2 0.8 M-20.8 5.05 Q-20.4 5.6 -19.4 5.9 L-17.7 6.15 -15.9 5.7 Q-16.55 6.9 -17.1 7.35 -17.6 7.75 -18.45 7.75 L-20.15 7.25 Q-21.05 6.55 -20.8 5.05 M-16.65 7.8 L-15.95 6.65 -15.65 6.25 Q-15.5 6.0 -15.5 5.6 -15.5 4.8 -16.4 4.0 -17.4 3.1 -18.7 3.1 -19.05 3.1 -19.85 3.6 L-21.15 4.65 -21.45 5.45 -21.55 6.15 Q-21.55 7.65 -20.15 8.4 -19.3 8.85 -18.55 8.85 -17.65 8.85 -17.1 8.35 L-16.65 7.8 M-14.75 6.15 Q-15.45 6.35 -15.6 6.6 -16.0 7.0 -16.0 8.2 -16.0 8.95 -15.35 9.55 -14.7 10.2 -13.75 10.2 -12.05 10.2 -11.4 9.4 -11.05 9.05 -11.05 8.65 -11.05 7.5 -12.1 6.9 -13.15 5.45 -14.75 6.15 M-17.7 11.25 L-18.55 11.4 Q-19.2 11.25 -19.25 10.95 L-17.7 11.25 M-19.2 9.4 Q-20.2 9.95 -20.2 10.95 -20.2 11.9 -19.4 12.4 L-18.55 12.7 Q-17.35 12.7 -16.9 11.75 -16.55 10.9 -16.85 10.0 L-17.05 9.35 -19.2 9.4 M-15.7 11.45 L-16.55 12.25 -16.9 13.05 Q-16.9 14.25 -16.0 14.95 -15.2 15.5 -14.15 15.5 -12.45 15.5 -11.7 14.95 -11.05 14.4 -11.05 13.3 L-11.1 12.75 -11.55 12.45 -12.7 11.35 Q-13.35 10.85 -13.8 10.85 -14.5 10.85 -15.7 11.45 M-12.6 8.0 Q-12.65 8.55 -13.0 8.9 L-13.8 9.15 Q-14.3 9.05 -14.6 8.65 L-14.8 7.7 -12.6 8.0 M-11.95 12.95 Q-12.1 13.75 -12.5 14.25 -12.95 14.75 -13.45 14.75 -15.2 14.75 -15.9 13.25 L-15.75 12.2 Q-14.85 13.45 -13.3 13.45 -12.75 13.45 -11.95 12.95 M-10.05 13.15 L-9.7 13.35 -9.2 13.45 Q-8.75 13.45 -8.55 13.25 L-8.2 12.55 -7.9 13.5 Q-7.9 14.15 -8.5 14.15 L-9.6 14.1 -10.05 13.15 M17.25 1.55 Q16.6 2.5 16.15 4.0 16.15 5.5 17.75 6.35 18.85 6.95 19.55 6.95 21.25 6.95 22.2 5.55 22.8 4.65 22.8 4.1 22.8 2.95 21.95 2.05 20.4 0.8 19.45 0.8 18.0 1.0 17.25 1.55 M21.8 3.8 Q20.6 5.6 19.5 5.6 L18.55 5.15 17.25 3.9 19.5 3.95 21.8 3.8 M24.8 8.9 Q24.65 9.6 24.0 10.3 23.25 11.1 22.5 11.1 L21.35 10.85 Q20.45 10.2 20.85 8.5 22.2 10.0 22.95 10.0 L23.65 9.7 24.8 8.9 M21.6 12.55 L21.9 13.5 Q21.9 14.15 21.3 14.15 L20.2 14.1 19.75 13.15 20.1 13.35 20.6 13.45 21.25 13.25 21.6 12.55 M15.6 0.8 L13.75 1.05 Q13.35 0.55 13.05 1.25 12.75 1.85 12.75 2.35 12.75 2.8 13.1 3.1 13.5 3.55 14.3 3.55 15.1 3.55 15.65 3.0 16.25 2.45 16.25 1.5 L16.2 0.7 15.2 0.65 15.6 0.8 M15.65 1.7 L15.15 2.25 14.5 2.45 Q14.0 2.45 13.9 2.15 L13.75 1.6 14.35 1.7 15.65 1.7 M9.0 5.05 L10.4 5.9 12.1 6.15 13.9 5.7 12.7 7.35 Q12.2 7.75 11.35 7.75 10.35 7.75 9.65 7.25 8.75 6.55 9.0 5.05 M13.15 7.8 L13.85 6.65 14.15 6.25 14.3 5.6 Q14.3 4.8 13.4 4.0 12.4 3.1 11.1 3.1 10.75 3.1 9.95 3.6 L8.65 4.65 8.35 5.45 8.25 6.15 Q8.25 7.65 9.65 8.4 L11.25 8.85 Q12.15 8.85 12.7 8.35 L13.15 7.8 M15.05 6.15 Q14.35 6.35 14.2 6.6 13.8 7.0 13.8 8.2 13.8 8.95 14.45 9.55 15.1 10.2 16.05 10.2 17.75 10.2 18.4 9.4 L18.75 8.65 Q18.75 7.5 17.7 6.9 16.65 5.45 15.05 6.15 M10.55 10.95 L12.1 11.25 11.25 11.4 Q10.6 11.25 10.55 10.95 M12.95 10.0 L12.75 9.35 10.6 9.4 Q9.6 9.95 9.6 10.95 9.6 11.9 10.4 12.4 L11.25 12.7 Q12.45 12.7 12.9 11.75 13.25 10.9 12.95 10.0 M14.1 11.45 L13.25 12.25 Q12.9 12.7 12.9 13.05 12.9 14.25 13.8 14.95 14.6 15.5 15.65 15.5 17.35 15.5 18.1 14.95 18.75 14.4 18.75 13.3 L18.7 12.75 18.25 12.45 17.1 11.35 Q16.45 10.85 16.0 10.85 15.3 10.85 14.1 11.45 M17.2 8.0 L16.8 8.9 16.0 9.15 15.2 8.65 Q14.95 8.2 15.0 7.7 L17.2 8.0 M17.85 12.95 L17.3 14.25 Q16.85 14.75 16.35 14.75 14.6 14.75 13.9 13.25 L14.05 12.2 Q14.95 13.45 16.5 13.45 17.05 13.45 17.85 12.95" fill="#eeeeee" fill-rule="evenodd" stroke="none"/>
    <path d="M5.5 7.95 Q5.85 4.15 8.65 1.35 L8.7 1.3 Q11.9 -1.8 16.3 -1.8 20.8 -1.8 24.0 1.35 L24.0 1.4 Q26.75 4.15 27.1 7.95 26.75 11.75 24.0 14.5 20.8 17.7 16.3 17.7 11.8 17.7 8.65 14.5 5.85 11.75 5.5 7.95 M25.55 9.4 L26.15 7.15 26.05 6.0 25.9 5.4 25.65 4.7 Q25.2 3.6 24.35 2.6 L24.2 2.5 23.7 1.95 Q22.25 0.4 20.15 -0.25 L13.85 -0.6 Q9.9 0.85 8.55 3.5 L8.4 3.8 8.3 4.05 8.2 4.15 8.1 4.4 Q7.2 6.3 7.0 7.5 L6.95 8.1 7.15 9.85 7.15 9.9 9.05 13.3 9.65 13.85 9.8 13.95 10.8 14.7 12.3 15.6 13.95 16.25 16.9 16.75 Q21.65 16.75 24.35 12.0 L25.0 10.8 Q25.55 10.2 25.55 9.55 L25.55 9.4 M-24.3 7.95 Q-23.95 4.15 -21.15 1.35 L-21.1 1.3 Q-17.9 -1.8 -13.5 -1.8 -9.0 -1.8 -5.8 1.35 L-5.8 1.4 Q-3.05 4.15 -2.7 7.95 -3.05 11.75 -5.8 14.5 -9.0 17.7 -13.5 17.7 -18.0 17.7 -21.15 14.5 -23.95 11.75 -24.3 7.95 M-4.25 9.4 L-3.65 7.15 -3.75 6.0 -3.9 5.4 -4.15 4.7 Q-4.6 3.6 -5.45 2.6 L-5.6 2.5 -6.1 1.95 Q-7.55 0.4 -9.65 -0.25 L-15.95 -0.6 Q-19.9 0.85 -21.25 3.5 L-21.4 3.8 -21.5 4.05 -21.6 4.15 -21.7 4.4 Q-22.6 6.3 -22.8 7.5 L-22.85 8.1 -22.65 9.85 -22.65 9.9 -20.75 13.3 -20.15 13.85 -20.0 13.95 -19.0 14.7 -17.5 15.6 -15.85 16.25 -12.9 16.75 Q-8.15 16.75 -5.45 12.0 L-4.8 10.8 Q-4.25 10.2 -4.25 9.55 L-4.25 9.4" fill="#cbcbcb" fill-rule="evenodd" stroke="none"/>
    <path d="M8.7 1.3 L8.9 0.55 9.5 -1.65 Q12.45 -4.0 16.3 -4.0 20.4 -4.0 23.35 -1.4 L23.35 -1.2 24.0 1.35 Q20.8 -1.8 16.3 -1.8 11.9 -1.8 8.7 1.3 M3.7 9.25 L3.7 9.05 Q3.95 10.85 5.45 13.3 6.25 14.6 7.4 15.75 11.1 19.45 16.3 19.45 21.55 19.45 25.2 15.75 L27.15 13.3 Q28.65 10.85 28.9 8.95 L28.9 9.05 Q28.9 12.7 27.0 15.6 L26.7 16.05 26.4 16.5 25.3 17.75 25.2 17.8 22.65 19.85 21.1 20.6 Q18.9 21.5 16.3 21.5 12.75 21.5 9.95 19.8 8.6 19.0 7.4 17.8 L7.3 17.7 7.05 17.4 6.05 16.2 5.6 15.6 Q3.75 12.75 3.7 9.25 M-21.1 1.3 L-20.9 0.55 -20.3 -1.65 Q-17.35 -4.0 -13.5 -4.0 -9.4 -4.0 -6.45 -1.4 L-6.45 -1.2 -5.8 1.35 Q-9.0 -1.8 -13.5 -1.8 -17.9 -1.8 -21.1 1.3 M-26.1 9.25 L-26.1 9.05 Q-25.85 10.85 -24.35 13.3 L-22.4 15.75 Q-18.7 19.45 -13.5 19.45 -8.25 19.45 -4.6 15.75 -3.45 14.6 -2.65 13.3 -1.15 10.85 -0.9 8.95 L-0.9 9.05 Q-0.9 12.7 -2.8 15.6 L-3.1 16.05 -3.4 16.5 -4.5 17.75 -4.6 17.8 Q-5.8 19.0 -7.15 19.85 L-8.7 20.6 Q-10.9 21.5 -13.5 21.5 -17.05 21.5 -19.85 19.8 L-22.4 17.8 -22.5 17.7 -22.75 17.4 -23.75 16.2 -24.2 15.6 Q-26.05 12.75 -26.1 9.25" fill="#253664" fill-rule="evenodd" stroke="none"/>
    <path d="M19.45 12.4 L20.55 11.65 21.65 12.1 Q22.2 12.5 22.2 13.3 L22.0 14.45 20.6 14.6 Q20.1 14.6 19.75 14.15 19.35 13.6 19.45 12.4 M20.1 9.7 Q20.65 8.15 21.75 7.3 23.3 6.1 25.0 7.45 25.55 9.4 24.7 10.4 24.0 11.2 22.65 11.2 L21.1 10.9 20.1 9.7 M-10.35 12.4 Q-9.95 12.05 -9.25 11.65 L-8.15 12.1 Q-7.6 12.5 -7.6 13.3 L-7.8 14.45 -9.2 14.6 Q-9.7 14.6 -10.05 14.15 -10.45 13.6 -10.35 12.4 M-9.7 9.7 Q-9.15 8.15 -8.05 7.3 -6.5 6.1 -4.8 7.45 -4.25 9.4 -5.1 10.4 -5.8 11.2 -7.15 11.2 L-8.7 10.9 -9.7 9.7 M-7.85 2.05 Q-7.1 3.0 -7.7 4.5 -8.3 6.1 -10.05 6.1 -11.2 6.1 -12.05 5.4 -12.95 4.65 -12.95 3.6 L-12.55 1.55 Q-11.8 1.0 -10.35 0.8 -9.4 0.8 -7.85 2.05 M-8.0 3.8 Q-8.0 2.85 -8.65 2.2 -9.35 1.5 -10.3 1.5 -11.25 1.5 -11.9 2.2 -12.55 2.9 -12.55 3.9 L-11.25 5.15 -10.3 5.6 Q-9.2 5.6 -8.0 3.8 M-5.0 8.9 Q-5.25 8.05 -5.8 7.6 -6.3 7.2 -6.8 7.2 -7.15 7.2 -8.05 7.85 L-8.95 8.5 Q-9.35 10.2 -8.45 10.85 L-7.3 11.1 Q-6.55 11.1 -5.8 10.3 -5.15 9.6 -5.0 8.9 M-16.05 1.6 L-15.9 2.15 Q-15.8 2.45 -15.3 2.45 -14.85 2.45 -14.65 2.25 L-14.15 1.7 Q-14.8 0.7 -16.05 1.6 M-14.2 0.8 Q-13.75 1.65 -14.15 2.25 -14.5 2.8 -15.3 2.8 L-15.9 2.7 -16.35 2.5 -16.4 1.9 -16.3 1.4 -16.05 1.05 -14.2 0.8 M-15.9 5.7 Q-16.1 4.65 -16.45 4.2 -17.0 3.5 -18.2 3.5 L-19.6 3.8 Q-20.25 4.15 -20.8 5.05 -21.05 6.55 -20.15 7.25 L-18.45 7.75 Q-17.6 7.75 -17.1 7.35 -16.55 6.9 -15.9 5.7 M-21.15 4.65 L-19.85 3.6 Q-19.05 3.1 -18.7 3.1 -17.4 3.1 -16.4 4.0 -15.5 4.8 -15.5 5.6 -15.5 6.0 -15.65 6.25 L-15.95 6.65 -16.65 7.8 -16.8 7.85 -18.1 8.1 -19.9 7.65 Q-21.2 6.95 -21.2 5.4 L-21.15 4.65 M-14.75 6.15 Q-13.15 5.45 -12.1 6.9 -11.9 8.0 -12.45 8.8 -12.95 9.5 -13.6 9.5 L-14.6 9.15 Q-15.35 8.8 -15.35 8.5 -15.35 7.65 -14.75 6.15 M-19.25 10.95 Q-19.2 11.25 -18.55 11.4 L-17.7 11.25 -17.35 11.1 Q-17.2 11.0 -17.2 10.6 L-17.25 10.15 -17.45 9.7 -18.3 9.55 Q-18.95 9.65 -19.25 10.95 M-16.85 10.0 Q-16.7 11.1 -17.4 11.65 -18.0 12.05 -18.7 12.05 L-19.3 11.75 Q-19.7 11.4 -19.7 10.85 L-19.2 9.4 -17.05 9.35 -16.85 10.0 M-15.7 11.45 Q-14.5 10.85 -13.8 10.85 -13.35 10.85 -12.7 11.35 L-11.55 12.45 Q-11.35 13.75 -12.05 14.45 -12.6 15.1 -13.65 15.1 -14.7 15.1 -15.55 14.45 -16.35 13.8 -16.35 13.25 L-15.7 11.45 M-12.6 8.0 Q-12.7 7.0 -13.25 6.65 L-13.8 6.4 Q-14.2 6.45 -14.6 7.1 L-14.8 7.7 -14.6 8.65 Q-14.3 9.05 -13.8 9.15 L-13.0 8.9 Q-12.65 8.55 -12.6 8.0 M-11.95 12.95 L-12.75 11.85 -13.5 11.2 -15.75 12.2 -15.9 13.25 Q-15.2 14.75 -13.45 14.75 -12.95 14.75 -12.5 14.25 -12.1 13.75 -11.95 12.95 M-8.2 12.55 L-9.0 12.1 Q-9.55 12.05 -10.05 13.15 L-9.6 14.1 -8.5 14.15 Q-7.9 14.15 -7.9 13.5 L-8.2 12.55 M21.95 2.05 Q22.7 3.0 22.1 4.5 21.5 6.1 19.75 6.1 18.6 6.1 17.75 5.4 16.85 4.65 16.85 3.6 L17.25 1.55 Q18.0 1.0 19.45 0.8 20.4 0.8 21.95 2.05 M21.8 3.8 Q21.8 2.85 21.15 2.2 20.45 1.5 19.5 1.5 18.55 1.5 17.9 2.2 17.25 2.9 17.25 3.9 L18.55 5.15 19.5 5.6 Q20.6 5.6 21.8 3.8 M24.8 8.9 Q24.55 8.05 24.0 7.6 23.5 7.2 23.0 7.2 22.65 7.2 21.75 7.85 L20.85 8.5 Q20.45 10.2 21.35 10.85 L22.5 11.1 Q23.25 11.1 24.0 10.3 24.65 9.6 24.8 8.9 M19.75 13.15 L20.2 14.1 21.3 14.15 Q21.9 14.15 21.9 13.5 L21.6 12.55 20.8 12.1 Q20.25 12.05 19.75 13.15 M15.6 0.8 Q16.05 1.65 15.65 2.25 15.3 2.8 14.5 2.8 L13.9 2.7 13.45 2.5 13.4 1.9 13.5 1.4 13.75 1.05 15.6 0.8 M13.75 1.6 L13.9 2.15 Q14.0 2.45 14.5 2.45 L15.15 2.25 15.65 1.7 Q15.0 0.7 13.75 1.6 M13.9 5.7 Q13.7 4.65 13.35 4.2 12.8 3.5 11.6 3.5 10.8 3.5 10.2 3.8 9.55 4.15 9.0 5.05 8.75 6.55 9.65 7.25 10.35 7.75 11.35 7.75 12.2 7.75 12.7 7.35 L13.9 5.7 M8.65 4.65 L9.95 3.6 Q10.75 3.1 11.1 3.1 12.4 3.1 13.4 4.0 14.3 4.8 14.3 5.6 L14.15 6.25 13.85 6.65 13.15 7.8 13.0 7.85 11.7 8.1 Q10.75 8.1 9.9 7.65 8.6 6.95 8.6 5.4 L8.65 4.65 M15.05 6.15 Q16.65 5.45 17.7 6.9 17.9 8.0 17.35 8.8 16.85 9.5 16.2 9.5 L15.2 9.15 14.45 8.5 Q14.45 7.65 15.05 6.15 M12.1 11.25 L12.45 11.1 12.6 10.6 12.55 10.15 12.35 9.7 11.5 9.55 Q10.85 9.65 10.55 10.95 10.6 11.25 11.25 11.4 L12.1 11.25 M12.95 10.0 Q13.1 11.1 12.4 11.65 11.8 12.05 11.1 12.05 L10.5 11.75 Q10.1 11.4 10.1 10.85 10.1 10.35 10.6 9.4 L12.75 9.35 12.95 10.0 M14.1 11.45 Q15.3 10.85 16.0 10.85 16.45 10.85 17.1 11.35 L18.25 12.45 Q18.45 13.75 17.75 14.45 17.2 15.1 16.15 15.1 15.1 15.1 14.25 14.45 13.45 13.8 13.45 13.25 13.45 12.7 14.1 11.45 M15.0 7.7 Q14.95 8.2 15.2 8.65 L16.0 9.15 16.8 8.9 17.2 8.0 Q17.1 7.0 16.55 6.65 L16.0 6.4 Q15.6 6.45 15.2 7.1 L15.0 7.7 M17.85 12.95 L17.05 11.85 16.3 11.2 14.05 12.2 13.9 13.25 Q14.6 14.75 16.35 14.75 16.85 14.75 17.3 14.25 L17.85 12.95" fill="#b9b9b9" fill-rule="evenodd" stroke="none"/>
    <path d="M25.0 10.8 L24.1 11.45 22.6 12.15 22.65 13.95 Q22.3 14.7 21.1 14.7 19.1 14.7 19.1 13.65 19.1 13.15 19.45 12.4 19.35 13.6 19.75 14.15 20.1 14.6 20.6 14.6 L22.0 14.45 22.2 13.3 Q22.2 12.5 21.65 12.1 L20.55 11.65 Q20.0 11.0 20.0 10.35 L20.05 9.8 20.1 9.7 21.1 10.9 22.65 11.2 Q24.0 11.2 24.7 10.4 25.55 9.4 25.0 7.45 L25.55 9.4 25.55 9.55 Q25.55 10.2 25.0 10.8 M-4.8 10.8 L-5.7 11.45 Q-6.8 12.15 -7.2 12.15 -6.95 13.35 -7.15 13.95 -7.5 14.7 -8.7 14.7 -10.7 14.7 -10.7 13.65 L-10.35 12.4 Q-10.45 13.6 -10.05 14.15 -9.7 14.6 -9.2 14.6 L-7.8 14.45 -7.6 13.3 Q-7.6 12.5 -8.15 12.1 L-9.25 11.65 Q-9.8 11.0 -9.8 10.35 L-9.75 9.8 -9.7 9.7 -8.7 10.9 -7.15 11.2 Q-5.8 11.2 -5.1 10.4 -4.25 9.4 -4.8 7.45 -4.3 8.45 -4.25 9.4 L-4.25 9.55 Q-4.25 10.2 -4.8 10.8 M-7.85 2.05 Q-7.0 2.95 -7.0 4.1 L-7.6 5.55 Q-8.55 6.95 -10.25 6.95 -10.95 6.95 -12.05 6.35 -13.65 5.5 -13.65 4.0 -13.2 2.5 -12.55 1.55 L-12.95 3.6 Q-12.95 4.65 -12.05 5.4 -11.2 6.1 -10.05 6.1 -8.3 6.1 -7.7 4.5 -7.1 3.0 -7.85 2.05 M-16.05 1.05 L-16.3 1.4 -16.4 1.9 -16.35 2.5 -15.9 2.7 -15.3 2.8 Q-14.5 2.8 -14.15 2.25 -13.75 1.65 -14.2 0.8 L-14.6 0.65 -13.6 0.7 -13.55 1.5 Q-13.55 2.45 -14.15 3.0 -14.7 3.55 -15.5 3.55 -16.3 3.55 -16.7 3.1 L-17.05 2.35 -16.75 1.25 Q-16.45 0.55 -16.05 1.05 M-21.15 4.65 L-21.2 5.4 Q-21.2 6.95 -19.9 7.65 L-18.1 8.1 -16.8 7.85 -16.65 7.8 -17.1 8.35 Q-17.65 8.85 -18.55 8.85 -19.3 8.85 -20.15 8.4 -21.55 7.65 -21.55 6.15 L-21.45 5.45 -21.15 4.65 M-12.1 6.9 Q-11.05 7.5 -11.05 8.65 -11.05 9.05 -11.4 9.4 -12.05 10.2 -13.75 10.2 -14.7 10.2 -15.35 9.55 -16.0 8.95 -16.0 8.2 -16.0 7.0 -15.6 6.6 -15.45 6.35 -14.75 6.15 -15.35 7.65 -15.35 8.5 -15.35 8.8 -14.6 9.15 L-13.6 9.5 Q-12.95 9.5 -12.45 8.8 -11.9 8.0 -12.1 6.9 M-19.2 9.4 L-19.7 10.85 Q-19.7 11.4 -19.3 11.75 L-18.7 12.05 Q-18.0 12.05 -17.4 11.65 -16.7 11.1 -16.85 10.0 -16.55 10.9 -16.9 11.75 -17.35 12.7 -18.55 12.7 L-19.4 12.4 Q-20.2 11.9 -20.2 10.95 -20.2 9.95 -19.2 9.4 M-11.55 12.45 L-11.1 12.75 -11.05 13.3 Q-11.05 14.4 -11.7 14.95 -12.45 15.5 -14.15 15.5 -15.2 15.5 -16.0 14.95 -16.9 14.25 -16.9 13.05 L-16.55 12.25 -15.7 11.45 -16.35 13.25 Q-16.35 13.8 -15.55 14.45 -14.7 15.1 -13.65 15.1 -12.6 15.1 -12.05 14.45 -11.35 13.75 -11.55 12.45 M21.95 2.05 Q22.8 2.95 22.8 4.1 22.8 4.65 22.2 5.55 21.25 6.95 19.55 6.95 18.85 6.95 17.75 6.35 16.15 5.5 16.15 4.0 16.6 2.5 17.25 1.55 L16.85 3.6 Q16.85 4.65 17.75 5.4 18.6 6.1 19.75 6.1 21.5 6.1 22.1 4.5 22.7 3.0 21.95 2.05 M13.75 1.05 L13.5 1.4 13.4 1.9 13.45 2.5 13.9 2.7 14.5 2.8 Q15.3 2.8 15.65 2.25 16.05 1.65 15.6 0.8 L15.2 0.65 16.2 0.7 16.25 1.5 Q16.25 2.45 15.65 3.0 15.1 3.55 14.3 3.55 13.5 3.55 13.1 3.1 12.75 2.8 12.75 2.35 12.75 1.85 13.05 1.25 13.35 0.55 13.75 1.05 M8.65 4.65 L8.6 5.4 Q8.6 6.95 9.9 7.65 10.75 8.1 11.7 8.1 L13.0 7.85 13.15 7.8 12.7 8.35 Q12.15 8.85 11.25 8.85 L9.65 8.4 Q8.25 7.65 8.25 6.15 L8.35 5.45 8.65 4.65 M17.7 6.9 Q18.75 7.5 18.75 8.65 L18.4 9.4 Q17.75 10.2 16.05 10.2 15.1 10.2 14.45 9.55 13.8 8.95 13.8 8.2 13.8 7.0 14.2 6.6 14.35 6.35 15.05 6.15 14.45 7.65 14.45 8.5 L15.2 9.15 16.2 9.5 Q16.85 9.5 17.35 8.8 17.9 8.0 17.7 6.9 M10.6 9.4 Q10.1 10.35 10.1 10.85 10.1 11.4 10.5 11.75 L11.1 12.05 Q11.8 12.05 12.4 11.65 13.1 11.1 12.95 10.0 13.25 10.9 12.9 11.75 12.45 12.7 11.25 12.7 L10.4 12.4 Q9.6 11.9 9.6 10.95 9.6 9.95 10.6 9.4 M18.25 12.45 L18.7 12.75 18.75 13.3 Q18.75 14.4 18.1 14.95 17.35 15.5 15.65 15.5 14.6 15.5 13.8 14.95 12.9 14.25 12.9 13.05 12.9 12.7 13.25 12.25 L14.1 11.45 Q13.45 12.7 13.45 13.25 13.45 13.8 14.25 14.45 15.1 15.1 16.15 15.1 17.2 15.1 17.75 14.45 18.45 13.75 18.25 12.45" fill="#d9d9d9" fill-rule="evenodd" stroke="none"/>
    <path d="M26.7 16.05 L26.95 16.05 26.4 17.85 Q25.6 19.75 24.0 21.4 L22.2 22.9 22.2 22.8 22.4 21.4 21.75 21.65 Q19.15 22.55 15.0 22.55 13.25 22.55 10.1 21.05 L10.25 22.6 10.25 22.8 8.65 21.4 Q7.0 19.75 6.25 17.85 L5.7 16.05 5.9 16.05 6.05 16.2 7.05 17.4 7.3 17.7 7.4 17.8 Q8.6 19.0 9.95 19.8 12.75 21.5 16.3 21.5 18.9 21.5 21.1 20.6 L22.65 19.85 25.2 17.8 25.3 17.75 26.4 16.5 26.7 16.05 M-3.1 16.05 L-2.85 16.05 Q-3.05 17.0 -3.4 17.85 -4.2 19.75 -5.8 21.4 L-7.6 22.9 -7.6 22.8 -7.4 21.4 -8.05 21.65 Q-10.65 22.55 -14.8 22.55 -16.55 22.55 -19.7 21.05 L-19.55 22.6 -19.55 22.8 -21.15 21.4 Q-22.8 19.75 -23.55 17.85 L-24.1 16.05 -23.9 16.05 -23.75 16.2 -22.75 17.4 -22.5 17.7 -22.4 17.8 -19.85 19.8 Q-17.05 21.5 -13.5 21.5 -10.9 21.5 -8.7 20.6 L-7.15 19.85 Q-5.8 19.0 -4.6 17.8 L-4.5 17.75 -3.4 16.5 -3.1 16.05" fill="#11192e" fill-rule="evenodd" stroke="none"/>
  </g>
</svg>
