<?xml version="1.0" encoding="UTF-8" standalone="no"?>
<svg xmlns:ffdec="https://www.free-decompiler.com/flash" xmlns:xlink="http://www.w3.org/1999/xlink" ffdec:objectType="shape" height="90.5px" width="28.0px" xmlns="http://www.w3.org/2000/svg">
  <g transform="matrix(1.0, 0.0, 0.0, 1.0, 56.3, -44.45)">
    <path d="M-52.2 48.5 Q-48.1 44.45 -42.3 44.45 -36.5 44.45 -32.4 48.5 -28.3 52.6 -28.3 58.45 -28.3 64.25 -32.4 68.3 -36.5 72.45 -42.3 72.45 -48.1 72.45 -52.2 68.3 -56.3 64.25 -56.3 58.45 -56.3 52.6 -52.2 48.5 M-46.4 46.05 Q-49.25 46.95 -51.5 49.2 -55.3 53.0 -55.3 58.45 -55.3 63.85 -51.5 67.6 -47.7 71.45 -42.3 71.45 -36.9 71.45 -33.1 67.6 -29.3 63.85 -29.3 58.45 -29.3 53.0 -33.1 49.2 -36.9 45.45 -42.3 45.45 L-46.15 46.0 -46.4 45.8 -46.4 46.05 M-41.8 103.45 L-41.95 103.8 Q-42.1 103.95 -42.3 103.95 -48.1 103.95 -52.2 99.8 -56.3 95.75 -56.3 89.95 -56.3 84.1 -52.2 80.0 -48.1 75.95 -42.3 75.95 -42.1 75.95 -41.95 76.1 L-41.8 76.45 -41.8 103.45 M-42.8 87.9 L-42.8 76.95 Q-47.85 77.1 -51.5 80.7 -55.3 84.5 -55.3 89.95 -55.3 95.35 -51.5 99.1 -47.85 102.75 -42.8 102.95 L-42.8 92.55 -42.8 87.9 M-43.3 107.45 L-43.15 107.1 Q-43.0 106.95 -42.8 106.95 -37.0 106.95 -32.9 111.0 -28.8 115.1 -28.8 120.95 -28.8 126.75 -32.9 130.8 -37.0 134.95 -42.8 134.95 L-43.15 134.8 -43.3 134.45 -43.3 107.45 M-42.3 123.55 L-42.3 133.95 Q-37.25 133.75 -33.6 130.1 -29.8 126.35 -29.8 120.95 -29.8 115.5 -33.6 111.7 -37.25 108.1 -42.3 107.95 L-42.3 118.9 -42.3 123.55" fill="#000000" fill-rule="evenodd" stroke="none"/>
    <path d="M-46.15 46.0 L-41.35 50.1 -46.4 54.35 -46.4 52.5 -47.7 53.55 Q-49.9 55.8 -49.9 58.9 -49.9 62.0 -47.7 64.2 -45.45 66.45 -42.35 66.45 -39.25 66.45 -37.05 64.2 -34.8 62.0 -34.8 58.9 -34.8 55.8 -37.05 53.55 -38.0 52.6 -39.1 52.1 L-39.1 48.0 Q-36.4 48.75 -34.35 50.85 -31.0 54.15 -31.0 58.9 -31.0 63.5 -34.35 66.8 -37.6 70.2 -42.35 70.2 -46.95 70.2 -50.35 66.8 -53.65 63.5 -53.65 58.9 -53.65 54.15 -50.35 50.85 -48.55 49.1 -46.4 48.3 L-46.4 46.05 -46.4 45.8 -46.15 46.0" fill="#ff0000" fill-rule="evenodd" stroke="none"/>
    <path d="M-46.4 46.05 L-46.4 48.3 Q-48.55 49.1 -50.35 50.85 -53.65 54.15 -53.65 58.9 -53.65 63.5 -50.35 66.8 -46.95 70.2 -42.35 70.2 -37.6 70.2 -34.35 66.8 -31.0 63.5 -31.0 58.9 -31.0 54.15 -34.35 50.85 -36.4 48.75 -39.1 48.0 L-39.1 52.1 Q-38.0 52.6 -37.05 53.55 -34.8 55.8 -34.8 58.9 -34.8 62.0 -37.05 64.2 -39.25 66.45 -42.35 66.45 -45.45 66.45 -47.7 64.2 -49.9 62.0 -49.9 58.9 -49.9 55.8 -47.7 53.55 L-46.4 52.5 -46.4 54.35 -41.35 50.1 -46.15 46.0 -42.3 45.45 Q-36.9 45.45 -33.1 49.2 -29.3 53.0 -29.3 58.45 -29.3 63.85 -33.1 67.6 -36.9 71.45 -42.3 71.45 -47.7 71.45 -51.5 67.6 -55.3 63.85 -55.3 58.45 -55.3 53.0 -51.5 49.2 -49.25 46.95 -46.4 46.05 M-42.8 87.9 L-47.2 88.8 -47.2 85.8 -52.25 90.1 -47.2 94.35 -47.2 91.55 -42.8 92.55 -42.8 102.95 Q-47.85 102.75 -51.5 99.1 -55.3 95.35 -55.3 89.95 -55.3 84.5 -51.5 80.7 -47.85 77.1 -42.8 76.95 L-42.8 87.9 M-42.3 118.9 L-42.3 107.95 Q-37.25 108.1 -33.6 111.7 -29.8 115.5 -29.8 120.95 -29.8 126.35 -33.6 130.1 -37.25 133.75 -42.3 133.95 L-42.3 123.55 -37.9 122.55 -37.9 125.35 -32.85 121.1 -37.9 116.8 -37.9 119.8 -42.3 118.9" fill="#ffffff" fill-rule="evenodd" stroke="none"/>
    <path d="M-42.8 92.55 L-47.2 91.55 -47.2 94.35 -52.25 90.1 -47.2 85.8 -47.2 88.8 -42.8 87.9 -42.8 92.55 M-42.3 123.55 L-42.3 118.9 -37.9 119.8 -37.9 116.8 -32.85 121.1 -37.9 125.35 -37.9 122.55 -42.3 123.55" fill="#0099ff" fill-rule="evenodd" stroke="none"/>
    <path d="M-41.8 103.45 L-41.8 76.45 Q-36.5 76.65 -32.75 80.35 -28.8 84.3 -28.8 89.95 -28.8 95.55 -32.75 99.45 -36.5 103.25 -41.8 103.45 M-43.3 107.45 L-43.3 134.45 Q-48.6 134.25 -52.35 130.45 -56.3 126.55 -56.3 120.95 -56.3 115.3 -52.35 111.35 -48.6 107.65 -43.3 107.45" fill="#666666" fill-rule="evenodd" stroke="none"/>
  </g>
</svg>
