<?xml version="1.0" encoding="UTF-8" standalone="no"?>
<svg xmlns:ffdec="https://www.free-decompiler.com/flash" xmlns:xlink="http://www.w3.org/1999/xlink" ffdec:objectType="shape" height="24.0px" width="21.35px" xmlns="http://www.w3.org/2000/svg">
  <g transform="matrix(1.0, 0.0, 0.0, 1.0, 1.3, -0.25)">
    <path d="M20.0 2.35 Q20.1 3.7 18.35 5.45 L17.0 6.7 16.95 6.7 11.15 10.85 11.1 10.9 Q2.95 15.0 3.45 21.45 3.8 23.1 2.7 24.25 0.65 23.35 0.2 22.65 -1.2 20.75 -1.3 17.0 -1.35 13.15 -0.15 10.25 1.1 7.3 7.6 4.55 L16.95 0.7 Q19.75 -0.4 20.05 1.25 L20.0 2.35 M16.15 2.05 Q14.15 2.75 9.1 4.75 4.0 6.7 1.9 10.35 -0.2 14.05 -0.1 17.85 -0.1 21.65 1.35 21.7 2.4 19.05 2.5 16.95 2.6 14.85 8.95 10.25 L15.8 5.3 15.9 5.2 Q17.95 3.55 18.15 2.6 18.1 1.35 16.15 2.05" fill="#1f1810" fill-rule="evenodd" stroke="none"/>
    <path d="M16.15 2.05 Q18.1 1.35 18.15 2.6 17.95 3.55 15.9 5.2 L15.8 5.3 8.95 10.25 Q2.6 14.85 2.5 16.95 2.4 19.05 1.35 21.7 -0.1 21.65 -0.1 17.85 -0.2 14.05 1.9 10.35 4.0 6.7 9.1 4.75 14.15 2.75 16.15 2.05" fill="#35291c" fill-rule="evenodd" stroke="none"/>
  </g>
</svg>
