<?xml version="1.0" encoding="UTF-8" standalone="no"?>
<svg xmlns:ffdec="https://www.free-decompiler.com/flash" xmlns:xlink="http://www.w3.org/1999/xlink" ffdec:objectType="shape" height="64.9px" width="41.4px" xmlns="http://www.w3.org/2000/svg">
  <g transform="matrix(1.0, 0.0, 0.0, 1.0, 0.0, 0.0)">
    <path d="M24.3 13.1 Q23.9 31.75 27.05 47.2 30.4 63.6 35.35 63.6 36.85 63.6 38.7 57.35 40.95 49.9 41.35 39.3 41.75 51.9 39.4 59.0 37.4 64.9 34.55 64.9 30.65 64.9 27.1 52.1 22.9 37.0 22.9 13.6 22.9 13.0 23.2 12.9 L23.65 12.85 24.3 13.1" fill="#333333" fill-rule="evenodd" stroke="none"/>
    <path d="M22.15 13.85 Q21.65 17.6 18.9 19.95 16.25 22.25 12.75 22.25 8.9 22.25 6.75 20.55 4.45 18.8 2.4 13.85 2.4 9.05 5.3 5.65 8.2 2.25 12.3 2.25 16.4 2.25 19.3 5.65 22.2 9.05 22.15 13.85 M0.85 13.85 Q3.1 19.5 6.0 21.8 8.45 23.75 12.25 23.75 16.8 23.75 19.9 21.05 23.0 18.3 23.65 13.85 23.65 8.4 20.3 4.6 16.95 0.75 12.25 0.75 7.55 0.75 4.2 4.6 0.85 8.4 0.85 13.85 M20.9 20.9 Q17.3 24.5 12.25 24.5 7.2 24.5 3.6 20.9 0.0 17.3 0.0 12.25 0.0 7.2 3.6 3.6 7.2 0.0 12.25 0.0 17.3 0.0 20.9 3.6 24.5 7.2 24.5 12.25 24.5 17.3 20.9 20.9 M12.25 3.0 Q8.4 3.0 5.7 5.7 3.0 8.4 3.0 12.25 3.0 16.1 5.7 18.8 8.4 21.5 12.25 21.5 16.1 21.5 18.8 18.8 21.5 16.1 21.5 12.25 21.5 8.4 18.8 5.7 16.1 3.0 12.25 3.0" fill="#333333" fill-rule="evenodd" stroke="none"/>
    <path d="M23.65 13.85 L22.15 13.85 Q22.2 9.05 19.3 5.65 16.4 2.25 12.3 2.25 8.2 2.25 5.3 5.65 2.4 9.05 2.4 13.85 L0.85 13.85 Q0.85 8.4 4.2 4.6 7.55 0.75 12.25 0.75 16.95 0.75 20.3 4.6 23.65 8.4 23.65 13.85" fill="#cccccc" fill-rule="evenodd" stroke="none"/>
    <path d="M22.15 13.85 L23.65 13.85 Q23.0 18.3 19.9 21.05 16.8 23.75 12.25 23.75 8.45 23.75 6.0 21.8 3.1 19.5 0.85 13.85 L2.4 13.85 Q4.45 18.8 6.75 20.55 8.9 22.25 12.75 22.25 16.25 22.25 18.9 19.95 21.65 17.6 22.15 13.85" fill="#999999" fill-rule="evenodd" stroke="none"/>
    <path d="M12.25 3.0 Q16.1 3.0 18.8 5.7 21.5 8.4 21.5 12.25 21.5 16.1 18.8 18.8 16.1 21.5 12.25 21.5 8.4 21.5 5.7 18.8 3.0 16.1 3.0 12.25 3.0 8.4 5.7 5.7 8.4 3.0 12.25 3.0" fill="url(#gradient0)" fill-rule="evenodd" stroke="none"/>
  </g>
  <defs>
    <linearGradient gradientTransform="matrix(0.0, -0.0113, 0.0113, 0.0, 12.25, 12.25)" gradientUnits="userSpaceOnUse" id="gradient0" spreadMethod="pad" x1="-819.2" x2="819.2">
      <stop offset="0.0" stop-color="#ffffff" stop-opacity="0.3254902"/>
      <stop offset="1.0" stop-color="#ffffff" stop-opacity="0.7921569"/>
    </linearGradient>
  </defs>
</svg>
