<?xml version="1.0" encoding="UTF-8" standalone="no"?>
<svg xmlns:ffdec="https://www.free-decompiler.com/flash" xmlns:xlink="http://www.w3.org/1999/xlink" ffdec:objectType="shape" height="56.1px" width="77.85px" xmlns="http://www.w3.org/2000/svg">
  <g transform="matrix(1.0, 0.0, 0.0, 1.0, 35.1, 18.8)">
    <path d="M1.45 -8.05 L1.45 -10.0 5.35 -9.95 5.35 -7.4 1.45 -8.05 M6.35 11.15 Q9.45 13.0 14.4 15.25 20.4 17.95 23.2 18.35 L22.75 19.35 Q15.6 17.75 9.7 14.35 5.6 11.95 4.4 10.4 L4.35 10.35 6.35 11.15 M30.25 -10.05 L30.2 -11.9 33.75 -12.85 33.8 -11.25 30.25 -10.05 M8.65 16.8 Q8.65 19.15 6.0 19.15 -2.15 19.15 -7.55 15.4 -14.4 10.6 -15.25 0.55 L-14.95 0.45 -14.0 0.35 Q-9.3 0.35 -7.9 1.6 -7.05 2.4 -3.75 8.5 -0.8 14.0 4.3 15.45 L7.4 16.1 Q8.65 16.3 8.65 16.8" fill="#4e4e4e" fill-rule="evenodd" stroke="none"/>
    <path d="M5.35 -7.4 L5.35 -9.95 1.45 -10.0 1.45 -8.05 1.45 -2.35 1.4 2.75 0.7 2.95 Q0.15 2.85 -0.05 2.2 L-0.05 -10.5 -22.7 -12.0 -26.5 -13.25 -28.95 -14.0 -32.55 -15.95 -33.55 -5.15 Q-33.55 8.75 -24.7 20.6 -13.6 35.4 5.6 35.4 L11.9 34.5 Q17.0 33.55 18.5 32.9 21.1 31.75 23.15 25.7 L24.95 18.75 23.4 18.4 23.2 18.35 Q20.4 17.95 14.4 15.25 9.45 13.0 6.35 11.15 3.75 9.0 4.35 5.7 L5.4 2.45 5.35 -7.4 M26.05 1.95 L26.95 -1.35 27.1 3.55 26.75 12.65 Q26.4 17.5 25.5 21.1 L23.9 26.55 21.85 31.15 Q29.5 26.7 34.45 20.1 41.3 11.05 41.3 -0.1 L41.15 -5.05 Q40.75 -9.35 39.55 -14.45 L35.25 -13.25 35.35 -4.3 35.4 -4.3 Q35.4 -3.55 35.9 -2.2 36.05 -1.0 34.6 -0.1 34.25 -0.15 34.05 -0.35 L33.9 -0.65 33.8 -11.25 33.75 -12.85 30.2 -11.9 30.25 -10.05 30.65 0.2 Q30.6 0.75 29.95 1.0 L29.25 0.8 29.1 -1.9 29.15 -2.7 28.7 -11.6 6.85 -9.9 6.75 2.85 6.6 2.85 6.6 10.2 Q13.55 14.0 18.05 15.75 21.55 17.1 25.1 17.75 L25.75 10.4 26.1 2.7 26.05 1.95 M17.6 -11.85 Q24.4 -12.4 33.6 -14.3 L36.75 -15.0 Q38.35 -15.55 39.6 -16.65 L40.35 -17.55 42.3 -6.65 42.75 0.25 Q42.75 14.95 31.6 26.05 20.3 37.3 4.85 37.3 -13.7 37.3 -25.25 22.45 -35.1 9.8 -35.1 -5.5 -35.1 -9.05 -33.45 -18.8 L-30.75 -16.5 Q-29.65 -15.7 -28.7 -15.7 -25.85 -14.65 -20.4 -13.6 -9.45 -11.5 7.45 -11.5 L17.6 -11.85" fill="#0c0c0c" fill-rule="evenodd" stroke="none"/>
    <path d="M23.4 18.4 L24.95 18.75 23.15 25.7 Q21.1 31.75 18.5 32.9 17.0 33.55 11.9 34.5 L5.6 35.4 Q-13.6 35.4 -24.7 20.6 -33.55 8.75 -33.55 -5.15 L-32.55 -15.95 -28.95 -14.0 -26.5 -13.25 -22.7 -12.0 -0.05 -10.5 -0.05 2.2 Q0.15 2.85 0.7 2.95 L1.4 2.75 1.45 -2.35 1.7 -0.2 1.65 2.15 1.15 6.05 Q1.0 6.7 0.5 6.75 -0.05 6.0 -0.4 4.25 L-1.0 -0.5 -2.0 -0.55 -3.65 -0.7 Q-4.35 -0.85 -4.35 -1.05 L-3.65 -1.4 -2.0 -1.55 -1.35 -1.5 -1.6 -8.55 -11.65 -9.0 Q-16.4 -9.25 -28.6 -11.0 L-28.9 -6.35 Q-28.9 -5.75 -28.3 -5.6 L-27.35 -5.15 -28.6 -4.2 Q-29.4 -3.5 -29.4 -2.1 -29.4 10.6 -18.75 20.45 -8.4 30.05 4.2 30.05 L9.75 29.55 20.8 27.05 22.8 20.7 23.4 18.4 M26.05 1.95 L25.8 -9.15 11.0 -7.1 Q9.3 -6.7 8.75 -5.7 8.3 -4.75 8.3 -2.25 8.3 -1.3 8.65 -1.05 8.85 -0.9 9.4 -0.8 8.9 -0.4 8.4 1.05 7.65 3.1 7.65 6.0 L8.25 7.3 Q9.05 8.8 10.3 10.0 14.25 13.9 20.75 13.9 22.95 13.9 24.2 12.55 25.3 11.4 26.1 2.7 L25.75 10.4 25.1 17.75 Q21.55 17.1 18.05 15.75 13.55 14.0 6.6 10.2 L6.6 2.85 6.75 2.85 6.85 -9.9 28.7 -11.6 29.15 -2.7 29.1 -1.9 26.95 -1.35 26.05 1.95 M13.0 -1.35 L14.45 -1.55 15.9 -1.35 Q16.5 -1.2 16.5 -0.95 16.5 -0.7 15.9 -0.5 L14.45 -0.35 13.0 -0.5 12.4 -0.95 Q12.4 -1.2 13.0 -1.35 M19.6 -1.95 L23.3 -1.95 23.3 -0.95 19.6 -0.95 19.6 -1.95 M34.05 -0.35 Q34.25 -0.15 34.6 -0.1 36.05 -1.0 35.9 -2.2 35.4 -3.55 35.4 -4.3 L35.35 -4.3 35.25 -13.25 39.55 -14.45 Q40.75 -9.35 41.15 -5.05 L41.3 -0.1 Q41.3 11.05 34.45 20.1 29.5 26.7 21.85 31.15 L23.9 26.55 28.55 21.75 Q31.2 18.95 32.75 16.65 36.9 10.3 36.9 0.35 L36.65 -3.45 35.75 -0.1 34.5 3.2 Q34.15 3.0 34.05 2.35 L34.05 -0.35 M30.8 9.9 L31.0 11.3 30.8 12.75 30.35 13.3 Q30.1 13.3 29.9 12.75 L29.7 11.3 29.9 9.9 30.35 9.3 30.8 9.9 M30.45 2.4 L30.9 3.0 31.05 4.4 30.9 5.85 30.45 6.4 Q30.2 6.4 30.05 5.85 L29.85 4.4 30.05 3.0 Q30.2 2.4 30.45 2.4 M29.3 18.0 Q29.35 17.0 29.75 16.25 30.0 16.6 29.8 18.3 L29.65 20.15 29.0 20.15 29.3 18.0 M-24.4 -4.9 Q-21.55 -3.6 -21.5 -3.2 L-22.1 -2.85 Q-23.0 -3.05 -24.75 -3.75 L-24.4 -4.9 M-10.85 -1.1 L-11.45 -1.55 -10.85 -2.0 -9.4 -2.2 -7.95 -2.0 -7.35 -1.55 -7.95 -1.1 -9.4 -0.9 -10.85 -1.1 M-18.5 -1.65 L-18.5 -3.05 -14.6 -3.05 -14.6 -1.65 -18.5 -1.65" fill="#1b1b1b" fill-rule="evenodd" stroke="none"/>
    <path d="M5.4 2.45 L4.35 5.7 Q3.75 9.0 6.35 11.15 L4.35 10.35 4.4 10.4 Q1.75 10.4 -0.1 7.2 -2.0 4.0 -2.0 -0.55 L-1.0 -0.5 -0.4 4.25 Q-0.05 6.0 0.5 6.75 1.0 6.7 1.15 6.05 L1.65 2.15 5.4 2.45 M23.2 18.35 L23.4 18.4 22.8 20.7 20.8 27.05 9.75 29.55 4.2 30.05 Q-8.4 30.05 -18.75 20.45 -29.4 10.6 -29.4 -2.1 -29.4 -3.5 -28.6 -4.2 L-27.35 -5.15 -28.3 -5.6 Q-28.9 -5.75 -28.9 -6.35 L-28.6 -11.0 Q-16.4 -9.25 -11.65 -9.0 L-1.6 -8.55 -1.35 -1.5 -2.0 -1.55 Q-3.3 -5.15 -11.45 -6.85 L-19.45 -7.85 Q-19.8 -7.85 -21.15 -3.65 -22.5 0.6 -22.5 1.8 -22.5 7.9 -18.35 14.0 -11.55 23.95 3.15 23.95 18.65 23.95 22.75 19.35 L23.2 18.35 M26.1 2.7 Q25.3 11.4 24.2 12.55 22.95 13.9 20.75 13.9 14.25 13.9 10.3 10.0 9.05 8.8 8.25 7.3 L7.65 6.0 Q7.65 3.1 8.4 1.05 8.9 -0.4 9.4 -0.8 8.85 -0.9 8.65 -1.05 8.3 -1.3 8.3 -2.25 8.3 -4.75 8.75 -5.7 9.3 -6.7 11.0 -7.1 L25.8 -9.15 26.05 1.95 26.1 2.7 M26.95 -1.35 L29.1 -1.9 29.25 0.8 29.95 1.0 Q30.6 0.75 30.65 0.2 L33.9 -0.65 34.05 -0.35 34.05 2.35 Q34.15 3.0 34.5 3.2 L35.75 -0.1 36.65 -3.45 36.9 0.35 Q36.9 10.3 32.75 16.65 31.2 18.95 28.55 21.75 L23.9 26.55 25.5 21.1 25.75 21.6 Q28.85 20.5 28.85 14.55 L28.8 1.95 27.95 0.9 Q27.5 1.65 27.1 3.55 L26.95 -1.35 M19.65 -5.8 L13.2 -5.2 Q10.1 -4.5 10.1 -3.15 10.1 3.6 13.35 8.05 16.45 12.3 20.75 12.3 22.3 12.3 22.85 10.55 23.6 8.35 23.6 2.15 L23.35 -3.45 Q22.7 -5.8 19.65 -5.8 M30.45 2.4 Q30.2 2.4 30.05 3.0 L29.85 4.4 30.05 5.85 Q30.2 6.4 30.45 6.4 L30.9 5.85 31.05 4.4 30.9 3.0 30.45 2.4 M30.8 9.9 L30.35 9.3 29.9 9.9 29.7 11.3 29.9 12.75 Q30.1 13.3 30.35 13.3 L30.8 12.75 31.0 11.3 30.8 9.9 M29.3 18.0 L29.0 20.15 29.65 20.15 29.8 18.3 Q30.0 16.6 29.75 16.25 29.35 17.0 29.3 18.0 M-24.4 -4.9 L-24.75 -3.75 Q-23.0 -3.05 -22.1 -2.85 L-21.5 -3.2 Q-21.55 -3.6 -24.4 -4.9" fill="#2e2e2e" fill-rule="evenodd" stroke="none"/>
    <path d="M5.35 -7.4 L5.4 2.45 1.65 2.15 1.7 -0.2 1.45 -2.35 1.45 -8.05 5.35 -7.4 M13.0 -1.35 Q12.4 -1.2 12.4 -0.95 L13.0 -0.5 14.45 -0.35 15.9 -0.5 Q16.5 -0.7 16.5 -0.95 16.5 -1.2 15.9 -1.35 L14.45 -1.55 13.0 -1.35 M19.6 -1.95 L19.6 -0.95 23.3 -0.95 23.3 -1.95 19.6 -1.95 M19.65 -5.8 Q22.7 -5.8 23.35 -3.45 L23.6 2.15 Q23.6 8.35 22.85 10.55 22.3 12.3 20.75 12.3 16.45 12.3 13.35 8.05 10.1 3.6 10.1 -3.15 10.1 -4.5 13.2 -5.2 L19.65 -5.8 M25.5 21.1 Q26.4 17.5 26.75 12.65 L27.1 3.55 Q27.5 1.65 27.95 0.9 L28.8 1.95 28.85 14.55 Q28.85 20.5 25.75 21.6 L25.5 21.1 M30.25 -10.05 L33.8 -11.25 33.9 -0.65 30.65 0.2 30.25 -10.05 M22.75 19.35 Q18.65 23.95 3.15 23.95 -11.55 23.95 -18.35 14.0 -22.5 7.9 -22.5 1.8 -22.5 0.6 -21.15 -3.65 -19.8 -7.85 -19.45 -7.85 L-11.45 -6.85 Q-3.3 -5.15 -2.0 -1.55 L-3.65 -1.4 -4.35 -1.05 Q-4.35 -0.85 -3.65 -0.7 L-2.0 -0.55 Q-2.0 4.0 -0.1 7.2 1.75 10.4 4.4 10.4 5.6 11.95 9.7 14.35 15.6 17.75 22.75 19.35 M8.65 16.8 Q8.65 16.3 7.4 16.1 L4.3 15.45 Q-0.8 14.0 -3.75 8.5 -7.05 2.4 -7.9 1.6 -9.3 0.35 -14.0 0.35 L-14.95 0.45 -15.25 0.55 Q-14.4 10.6 -7.55 15.4 -2.15 19.15 6.0 19.15 8.65 19.15 8.65 16.8 M-18.5 -1.65 L-14.6 -1.65 -14.6 -3.05 -18.5 -3.05 -18.5 -1.65 M-10.85 -1.1 L-9.4 -0.9 -7.95 -1.1 -7.35 -1.55 -7.95 -2.0 -9.4 -2.2 -10.85 -2.0 -11.45 -1.55 -10.85 -1.1" fill="#3c3c3c" fill-rule="evenodd" stroke="none"/>
  </g>
</svg>
