<?xml version="1.0" encoding="UTF-8" standalone="no"?>
<svg xmlns:ffdec="https://www.free-decompiler.com/flash" xmlns:xlink="http://www.w3.org/1999/xlink" ffdec:objectType="shape" height="53.15px" width="92.9px" xmlns="http://www.w3.org/2000/svg">
  <g transform="matrix(1.0, 0.0, 0.0, 1.0, 40.45, 62.75)">
    <path d="M-1.5 -53.2 L-2.25 -52.6 -4.05 -52.85 1.8 -58.55 3.2 -59.1 6.75 -60.75 9.15 -61.3 13.15 -61.95 19.8 -62.75 13.75 -56.95 Q12.9 -55.9 12.15 -54.45 L11.0 -52.05 Q9.95 -49.6 9.95 -48.95 L10.05 -46.8 10.05 -46.55 Q9.6 -46.9 9.1 -47.2 L9.15 -47.7 Q9.55 -51.6 10.7 -54.1 L11.3 -55.1 Q12.4 -57.15 14.25 -59.0 L15.85 -60.45 17.55 -61.85 17.0 -61.75 15.85 -61.55 10.85 -60.45 Q9.2 -60.2 5.7 -58.15 L4.1 -57.2 -0.2 -54.3 -1.5 -53.2 M24.75 -61.85 L24.95 -62.75 27.05 -62.75 26.55 -61.45 24.7 -61.7 24.75 -61.85 M21.85 -42.7 L22.35 -43.6 Q23.7 -46.55 26.05 -49.6 L27.05 -50.85 28.25 -52.25 28.25 -51.0 25.1 -46.25 21.85 -40.2 21.85 -42.7 M28.25 -52.3 L24.0 -50.0 16.3 -44.9 14.9 -43.45 14.85 -43.5 Q16.4 -46.4 18.55 -48.05 L18.9 -48.25 22.7 -50.7 28.25 -52.95 28.25 -52.3 M38.25 -41.5 L33.85 -40.95 33.2 -40.75 31.5 -40.35 Q27.8 -39.35 25.7 -37.85 L25.45 -37.65 Q23.5 -36.25 23.3 -34.6 L22.55 -34.75 22.3 -35.55 22.9 -37.2 23.65 -37.85 28.85 -40.4 31.25 -41.0 32.9 -41.4 34.6 -41.7 42.2 -42.35 42.4 -41.65 34.5 -37.1 33.35 -36.4 32.95 -35.9 Q31.0 -33.5 31.0 -30.6 31.0 -28.25 32.4 -24.95 L33.3 -23.05 31.65 -25.15 31.8 -25.1 30.25 -28.4 Q29.0 -31.25 29.0 -31.9 29.0 -34.15 31.0 -36.05 L32.55 -37.3 34.05 -38.4 39.4 -41.6 38.25 -41.5 M44.0 -31.35 L44.9 -32.9 48.35 -30.75 50.4 -29.1 Q44.15 -26.7 41.55 -25.05 L38.8 -22.75 36.25 -18.6 35.45 -18.05 34.8 -17.8 34.9 -19.8 38.05 -23.6 38.15 -23.7 Q39.65 -25.65 43.65 -27.65 L47.5 -29.35 47.0 -29.7 45.75 -30.45 44.0 -31.35 M44.0 -45.35 L43.95 -45.35 43.65 -47.0 44.6 -47.0 Q49.55 -45.85 52.45 -42.35 L43.15 -36.15 42.25 -37.0 49.55 -42.4 48.3 -43.5 44.0 -45.35 M-22.8 -56.5 L-23.55 -56.2 -23.35 -58.2 -22.85 -60.35 -21.9 -62.2 -21.5 -62.65 -21.4 -62.75 -19.45 -62.75 -20.5 -61.3 -21.95 -58.7 -22.8 -56.5 M-16.5 -62.75 L-14.9 -62.75 -15.0 -60.6 -14.9 -57.95 -14.75 -57.65 Q-13.5 -54.85 -12.7 -54.3 L-9.5 -53.55 -10.8 -53.1 -12.9 -52.95 Q-14.45 -52.95 -15.5 -54.05 -16.6 -55.2 -16.6 -56.8 L-16.85 -59.0 -16.75 -60.2 -16.5 -62.55 -16.5 -62.7 -16.5 -62.75 M-30.7 -61.7 L-31.1 -61.05 -32.25 -58.75 -33.0 -55.9 -33.15 -54.8 -33.35 -53.5 -33.3 -52.5 -33.05 -51.05 -35.2 -51.3 -35.25 -52.75 -35.0 -56.8 Q-34.7 -57.85 -32.7 -60.55 L-30.95 -62.75 -29.2 -62.75 Q-29.3 -60.75 -29.0 -58.35 L-28.7 -56.5 -28.6 -55.9 -28.4 -55.1 -28.25 -54.2 -28.2 -53.9 Q-26.9 -50.95 -25.05 -50.6 L-24.6 -50.1 -29.6 -50.35 -28.7 -50.65 -29.55 -54.85 -29.65 -55.35 -29.65 -55.45 -29.65 -55.6 -30.0 -57.6 -30.3 -59.6 -30.1 -62.7 -30.7 -61.7" fill="#794813" fill-rule="evenodd" stroke="none"/>
    <path d="M-1.5 -53.2 L-0.2 -54.3 4.1 -57.2 5.7 -58.15 Q9.2 -60.2 10.85 -60.45 L5.85 -56.25 Q5.9 -55.8 6.4 -55.5 L6.85 -55.2 8.75 -56.6 12.95 -59.7 Q14.15 -60.55 14.9 -61.0 L15.85 -61.55 17.0 -61.75 17.55 -61.85 15.85 -60.45 14.25 -59.0 Q12.4 -57.15 11.3 -55.1 L10.7 -54.1 Q9.55 -51.6 9.15 -47.7 L9.1 -47.2 6.0 -49.15 6.3 -50.25 Q7.25 -54.7 3.45 -54.7 L0.55 -53.9 -1.5 -53.2 M2.6 -62.75 L3.7 -62.75 2.8 -61.95 1.7 -61.15 2.6 -62.75 M24.75 -61.85 L20.45 -57.8 Q22.4 -60.0 23.6 -62.75 L24.95 -62.75 24.75 -61.85 M28.25 -52.25 L27.05 -50.85 26.05 -49.6 Q23.7 -46.55 22.35 -43.6 L21.85 -42.7 Q20.2 -45.15 17.95 -45.15 L16.8 -45.0 16.3 -44.9 24.0 -50.0 21.0 -46.4 21.65 -45.7 28.25 -52.25 M31.75 -47.0 L33.55 -47.0 30.95 -45.25 30.05 -44.65 30.8 -45.55 31.75 -47.0 M33.85 -40.95 L27.6 -36.25 27.95 -35.5 Q28.4 -35.55 30.55 -36.95 L32.3 -38.05 33.9 -39.0 Q35.95 -40.25 38.25 -41.5 L39.4 -41.6 34.05 -38.4 32.55 -37.3 31.0 -36.05 Q29.0 -34.15 29.0 -31.9 29.0 -31.25 30.25 -28.4 L31.8 -25.1 31.65 -25.15 33.3 -23.05 Q29.6 -23.6 28.2 -24.8 L27.6 -25.4 23.3 -34.6 Q23.5 -36.25 25.45 -37.65 L25.7 -37.85 Q27.8 -39.35 31.5 -40.35 L33.2 -40.75 33.85 -40.95 M38.05 -23.6 L36.9 -23.35 37.8 -25.15 44.0 -31.35 45.75 -30.45 Q43.85 -29.7 43.45 -29.0 L43.35 -28.45 45.1 -29.05 47.0 -29.7 47.5 -29.35 43.65 -27.65 Q39.65 -25.65 38.15 -23.7 L38.05 -23.6 M44.0 -45.35 L48.3 -43.5 43.95 -41.45 Q44.55 -43.8 44.0 -45.35 M49.55 -42.4 L42.25 -37.0 42.0 -36.8 36.55 -36.8 Q39.45 -37.55 40.9 -38.45 42.55 -39.4 43.8 -41.2 L44.5 -40.4 49.55 -42.4 M-26.95 -62.75 L-25.95 -62.75 -25.6 -61.0 -26.95 -62.75 M-19.45 -62.75 L-18.1 -62.75 -18.5 -61.95 -19.45 -59.55 -19.45 -59.5 -19.3 -58.95 -19.15 -58.85 -18.15 -59.85 -17.8 -60.25 Q-17.1 -61.15 -16.55 -62.55 L-16.5 -62.7 -16.5 -62.55 -16.75 -60.2 -16.85 -59.0 -16.6 -56.8 -17.7 -57.25 -19.25 -57.75 -21.05 -58.0 -22.9 -56.0 -23.0 -56.0 -22.85 -56.35 -22.8 -56.5 -21.95 -58.7 -20.5 -61.3 -19.45 -62.75 M-40.45 -62.75 L-38.0 -62.75 Q-37.95 -60.8 -37.1 -59.8 L-36.0 -58.95 -37.1 -59.45 -39.75 -61.95 -40.45 -62.75 M-32.25 -58.75 L-32.2 -55.75 -32.1 -53.65 -31.85 -51.95 -31.3 -51.7 -30.25 -51.55 -30.5 -54.5 -30.55 -54.7 -30.7 -57.05 -30.7 -61.7 -30.1 -62.7 -30.3 -59.6 -30.0 -57.6 -29.65 -55.6 -29.65 -55.45 -29.65 -55.35 -29.55 -54.85 -28.7 -50.65 -29.6 -50.35 -33.05 -51.05 -33.3 -52.5 -33.35 -53.5 -33.15 -54.8 -33.0 -55.9 -32.25 -58.75 M-10.55 -62.65 L-10.6 -62.65 -10.6 -62.75 -10.55 -62.75 -10.55 -62.65" fill="#e0ac3f" fill-rule="evenodd" stroke="none"/>
    <path d="M10.85 -60.45 L15.85 -61.55 14.9 -61.0 Q14.15 -60.55 12.95 -59.7 L8.75 -56.6 6.85 -55.2 6.4 -55.5 Q5.9 -55.8 5.85 -56.25 L10.85 -60.45 M28.25 -52.3 L28.25 -52.25 21.65 -45.7 21.0 -46.4 24.0 -50.0 28.25 -52.3 M38.25 -41.5 Q35.95 -40.25 33.9 -39.0 L32.3 -38.05 30.55 -36.95 Q28.4 -35.55 27.95 -35.5 L27.6 -36.25 33.85 -40.95 38.25 -41.5 M47.0 -29.7 L45.1 -29.05 43.35 -28.45 43.45 -29.0 Q43.85 -29.7 45.75 -30.45 L47.0 -29.7 M48.3 -43.5 L49.55 -42.4 44.5 -40.4 43.8 -41.2 43.95 -41.45 48.3 -43.5 M-18.1 -62.75 L-16.5 -62.75 -16.5 -62.7 -16.55 -62.55 Q-17.1 -61.15 -17.8 -60.25 L-18.15 -59.85 -19.15 -58.85 -19.3 -58.95 -19.45 -59.5 -19.45 -59.55 -18.5 -61.95 -18.1 -62.75 M-32.25 -58.75 L-31.1 -61.05 -30.7 -61.7 -30.7 -57.05 -30.55 -54.7 -30.5 -54.5 -30.25 -51.55 -31.3 -51.7 -31.85 -51.95 -32.1 -53.65 -32.2 -55.75 -32.25 -58.75" fill="#eac679" fill-rule="evenodd" stroke="none"/>
    <path d="M22.6 -33.55 L22.9 -29.6 Q22.55 -31.1 22.45 -33.65 L22.6 -33.55" fill="#eaa76a" fill-rule="evenodd" stroke="none"/>
    <path d="M23.25 -16.7 L22.85 -15.2 22.8 -15.4 Q22.95 -13.4 23.15 -13.0 L23.75 -12.35 Q24.15 -12.1 24.6 -12.0 L25.8 -11.75 Q26.55 -11.6 27.45 -12.8 28.45 -14.1 27.9 -15.9 L28.7 -16.1 Q29.1 -15.1 29.1 -14.3 29.1 -12.85 27.75 -11.6 L27.4 -11.3 Q26.35 -10.55 25.5 -10.55 L25.35 -10.55 Q23.9 -10.65 22.85 -11.9 21.75 -13.3 21.75 -15.4 21.75 -16.65 22.6 -17.7 L23.35 -16.85 23.25 -16.7" fill="#cccccc" fill-rule="evenodd" stroke="none"/>
    <path d="M22.9 -18.15 L23.5 -17.7 24.25 -16.65 23.85 -16.2 23.75 -15.95 23.55 -14.65 Q23.55 -13.3 24.65 -12.75 25.2 -12.45 25.8 -12.45 L25.95 -12.45 Q26.35 -12.5 26.75 -13.0 27.2 -13.6 27.2 -14.5 L27.15 -15.7 27.0 -16.2 Q27.8 -17.4 29.35 -17.1 L29.65 -16.35 30.05 -14.3 Q30.05 -12.4 28.45 -10.95 27.7 -10.25 26.95 -9.9 L25.5 -9.6 25.0 -9.6 Q22.95 -9.85 21.8 -11.8 20.8 -13.45 20.8 -15.45 20.9 -17.4 21.95 -18.4 L22.0 -18.4 22.2 -18.65 22.9 -18.15 M23.25 -16.7 L23.35 -16.85 22.6 -17.7 Q21.75 -16.65 21.75 -15.4 21.75 -13.3 22.85 -11.9 23.9 -10.65 25.35 -10.55 L25.5 -10.55 Q26.35 -10.55 27.4 -11.3 L27.75 -11.6 Q29.1 -12.85 29.1 -14.3 29.1 -15.1 28.7 -16.1 L27.9 -15.9 Q28.45 -14.1 27.45 -12.8 26.55 -11.6 25.8 -11.75 L24.6 -12.0 Q24.15 -12.1 23.75 -12.35 L23.15 -13.0 Q22.95 -13.4 22.8 -15.4 L22.85 -15.2 23.25 -16.7" fill="#333333" fill-rule="evenodd" stroke="none"/>
  </g>
</svg>
