<?xml version="1.0" encoding="UTF-8" standalone="no"?>
<svg xmlns:ffdec="https://www.free-decompiler.com/flash" xmlns:xlink="http://www.w3.org/1999/xlink" ffdec:objectType="shape" height="106.8px" width="63.0px" xmlns="http://www.w3.org/2000/svg">
  <g transform="matrix(1.0, 0.0, 0.0, 1.0, 0.0, 106.6)">
    <path d="M48.95 -56.2 L49.3 -56.05 49.45 -55.7 49.45 -1.8 49.4 -1.55 49.2 -1.35 47.95 -0.7 47.45 -0.45 46.95 -0.25 42.45 -0.05 Q41.15 -0.45 39.9 -1.4 L39.75 -1.55 39.7 -1.8 39.7 -55.7 39.85 -56.05 Q40.0 -56.2 40.2 -56.2 L48.95 -56.2 M50.7 -81.95 L59.45 -81.95 59.8 -81.8 59.95 -81.45 59.95 -27.55 59.9 -27.3 59.7 -27.1 58.45 -26.45 57.95 -26.2 57.45 -26.0 52.95 -25.8 Q51.65 -26.2 50.4 -27.15 L50.25 -27.3 50.2 -27.55 50.2 -81.45 50.35 -81.8 Q50.5 -81.95 50.7 -81.95 M48.45 -43.7 L48.45 -55.2 40.7 -55.2 40.7 -43.7 40.7 -2.05 41.1 -1.8 Q41.75 -1.4 42.45 -1.15 L46.95 -1.35 47.45 -1.55 47.95 -1.8 48.45 -2.05 48.45 -43.7 M57.95 -27.3 L58.45 -27.55 58.95 -27.8 58.95 -59.95 57.95 -54.25 Q55.95 -51.15 52.95 -50.2 L51.2 -50.2 51.2 -27.8 51.6 -27.55 Q52.25 -27.15 52.95 -26.9 L57.45 -27.1 57.95 -27.3 M25.55 -81.8 L25.7 -81.45 25.7 -27.55 25.65 -27.3 25.45 -27.1 24.2 -26.45 23.7 -26.2 23.2 -26.0 18.7 -25.8 Q17.4 -26.2 16.15 -27.15 L16.0 -27.3 15.95 -27.55 15.95 -81.45 16.1 -81.8 16.45 -81.95 25.2 -81.95 25.55 -81.8 M18.7 -49.95 L16.95 -49.95 16.95 -27.8 17.35 -27.55 Q18.0 -27.15 18.7 -26.9 L23.2 -27.1 23.7 -27.3 24.2 -27.55 24.7 -27.8 24.7 -49.95 23.7 -49.95 18.7 -49.95 M14.2 -43.7 L14.2 -55.2 6.45 -55.2 6.45 -43.7 6.45 -2.05 6.85 -1.8 Q7.5 -1.4 8.2 -1.15 L12.7 -1.35 13.2 -1.55 13.7 -1.8 14.2 -2.05 14.2 -43.7 M15.05 -56.05 L15.2 -55.7 15.2 -1.8 15.15 -1.55 14.95 -1.35 13.7 -0.7 13.2 -0.45 12.7 -0.25 8.2 -0.05 Q6.9 -0.45 5.65 -1.4 L5.5 -1.55 5.45 -1.8 5.45 -55.7 5.6 -56.05 5.95 -56.2 14.7 -56.2 15.05 -56.05" fill="#161616" fill-rule="evenodd" stroke="none"/>
    <path d="M40.7 -43.7 L40.7 -55.2 48.45 -55.2 48.45 -43.7 40.7 -43.7 M52.95 -26.9 Q52.25 -27.15 51.6 -27.55 L51.2 -27.8 51.2 -50.2 52.95 -50.2 Q55.95 -51.15 57.95 -54.25 L58.95 -59.95 58.95 -27.8 58.45 -27.55 57.95 -27.3 57.95 -50.55 Q55.95 -48.3 52.95 -47.9 L52.95 -26.9 M18.7 -26.9 Q18.0 -27.15 17.35 -27.55 L16.95 -27.8 16.95 -49.95 18.7 -49.95 18.7 -26.9 M23.7 -49.95 L24.7 -49.95 24.7 -27.8 24.2 -27.55 23.7 -27.3 23.7 -49.95 M6.45 -43.7 L6.45 -55.2 14.2 -55.2 14.2 -43.7 6.45 -43.7" fill="#1f1f1f" fill-rule="evenodd" stroke="none"/>
    <path d="M48.45 -43.7 L48.45 -2.05 47.95 -1.8 47.45 -1.55 47.45 -41.7 42.45 -41.7 42.45 -1.15 Q41.75 -1.4 41.1 -1.8 L40.7 -2.05 40.7 -43.7 48.45 -43.7 M52.95 -26.9 L52.95 -47.9 Q55.95 -48.3 57.95 -50.55 L57.95 -27.3 57.45 -27.1 52.95 -26.9 M18.7 -26.9 L18.7 -49.95 23.7 -49.95 23.7 -27.3 23.2 -27.1 18.7 -26.9 M14.2 -43.7 L14.2 -2.05 13.7 -1.8 13.2 -1.55 13.2 -41.7 8.2 -41.7 8.2 -1.15 Q7.5 -1.4 6.85 -1.8 L6.45 -2.05 6.45 -43.7 14.2 -43.7" fill="#2d2d2d" fill-rule="evenodd" stroke="none"/>
    <path d="M47.45 -1.55 L46.95 -1.35 42.45 -1.15 42.45 -41.7 47.45 -41.7 47.45 -1.55 M13.2 -1.55 L12.7 -1.35 8.2 -1.15 8.2 -41.7 13.2 -41.7 13.2 -1.55" fill="#373737" fill-rule="evenodd" stroke="none"/>
    <path d="M61.65 -92.55 L61.65 -87.25 61.0 -85.15 54.75 -65.1 Q52.95 -62.05 49.05 -62.05 L4.65 -62.05 3.25 -62.15 Q2.0 -62.4 1.4 -63.15 L1.15 -63.5 0.8 -65.3 0.8 -64.6 Q0.7 -65.65 1.1 -67.05 L7.1 -88.45 Q8.65 -93.45 13.65 -93.45 L58.6 -93.45 Q60.7 -93.45 61.65 -92.55 M51.8 -61.5 Q52.35 -61.7 53.1 -62.05 L53.1 -54.95 52.05 -54.5 51.85 -54.5 51.8 -55.05 51.8 -58.85 51.8 -61.5 M7.7 -79.35 L7.55 -78.85 4.45 -69.2 Q3.1 -64.75 7.9 -64.75 L46.95 -64.75 Q51.75 -64.75 53.1 -69.2 L56.2 -78.85 56.35 -79.3 56.8 -80.7 57.9 -84.1 58.6 -86.3 Q60.0 -90.75 55.15 -90.75 L16.15 -90.75 Q11.3 -90.75 9.9 -86.3 L9.65 -85.5 9.25 -84.15 7.7 -79.35" fill="#7d9fdf" fill-rule="evenodd" stroke="none"/>
    <path d="M61.65 -76.15 L56.3 -57.85 Q55.6 -55.65 54.25 -54.4 L53.4 -53.75 52.8 -53.4 1.35 -53.4 Q0.2 -53.75 0.1 -54.8 L0.1 -63.65 Q-0.2 -65.4 0.3 -67.05 L6.15 -88.4 6.3 -89.05 Q7.85 -94.05 12.85 -94.05 L59.3 -94.05 61.65 -93.6 61.65 -92.55 Q60.7 -93.45 58.6 -93.45 L13.65 -93.45 Q8.65 -93.45 7.1 -88.45 L1.1 -67.05 Q0.7 -65.65 0.8 -64.6 L0.85 -62.4 0.95 -61.25 0.95 -54.5 51.85 -54.5 52.05 -54.5 53.1 -54.95 53.75 -55.35 53.85 -55.4 54.35 -55.9 54.6 -56.25 55.0 -56.7 55.1 -56.85 55.25 -57.15 61.65 -78.9 61.65 -76.15" fill="#1a3466" fill-rule="evenodd" stroke="none"/>
    <path d="M61.65 -87.25 L61.65 -85.15 55.15 -64.0 54.95 -63.7 54.65 -63.35 54.35 -63.0 53.7 -62.45 53.1 -62.05 Q52.35 -61.7 51.8 -61.5 L51.05 -61.25 0.95 -61.25 0.85 -62.4 0.8 -64.6 0.8 -65.3 1.15 -63.5 1.4 -63.15 Q2.0 -62.4 3.25 -62.15 L4.65 -62.05 49.05 -62.05 Q52.95 -62.05 54.75 -65.1 L61.0 -85.15 61.65 -87.25" fill="#b8cbed" fill-rule="evenodd" stroke="none"/>
    <path d="M0.95 -61.25 L51.05 -61.25 51.8 -61.5 51.8 -58.85 51.8 -55.05 51.85 -54.5 0.95 -54.5 0.95 -61.25 M53.1 -62.05 L53.7 -62.45 54.35 -63.0 54.65 -63.35 54.95 -63.7 54.9 -59.1 55.1 -57.2 55.1 -56.85 55.0 -56.7 54.6 -56.25 54.35 -55.9 53.85 -55.4 53.75 -55.35 53.1 -54.95 53.1 -62.05" fill="#3165c6" fill-rule="evenodd" stroke="none"/>
    <path d="M61.65 -85.15 L61.65 -78.9 55.25 -57.15 55.1 -56.85 55.1 -57.2 54.9 -59.1 54.95 -63.7 55.15 -64.0 61.65 -85.15" fill="#244a93" fill-rule="evenodd" stroke="none"/>
    <path d="M56.35 -79.3 L56.2 -78.85 53.1 -69.2 Q51.75 -64.75 46.95 -64.75 L7.9 -64.75 Q3.1 -64.75 4.45 -69.2 L7.55 -78.85 7.7 -79.35 22.75 -79.35 22.75 -79.3 56.35 -79.3" fill="#0c407e" fill-rule="evenodd" stroke="none"/>
    <path d="M61.65 -93.6 Q62.5 -93.25 62.85 -92.45 63.2 -86.2 62.85 -80.4 L62.4 -78.8 62.4 -78.75 61.65 -76.15 61.65 -78.9 61.65 -85.15 61.65 -87.25 61.65 -92.55 61.65 -93.6 M56.35 -79.3 L22.75 -79.3 22.75 -79.35 7.7 -79.35 9.25 -84.15 9.65 -85.5 9.9 -86.3 Q11.3 -90.75 16.15 -90.75 L55.15 -90.75 Q60.0 -90.75 58.6 -86.3 L57.9 -84.1 56.8 -80.7 56.35 -79.3" fill="#0b3a75" fill-rule="evenodd" stroke="none"/>
    <path d="M22.95 -101.85 L23.4 -103.35 24.35 -106.6 41.95 -106.6 41.95 -81.15 39.5 -73.2 21.8 -73.2 21.8 -98.1 22.95 -101.85 M40.45 -103.35 L41.05 -105.85 25.1 -105.85 24.25 -103.35 22.3 -97.6 39.05 -97.6 40.45 -103.35 M36.9 -84.6 L36.85 -89.2 36.75 -90.3 36.7 -90.9 36.25 -94.6 25.05 -94.6 Q24.6 -92.75 24.3 -90.9 L24.25 -90.3 24.1 -89.2 23.95 -84.6 24.0 -83.25 24.1 -82.15 Q24.35 -79.3 25.05 -76.35 L36.2 -76.35 36.8 -82.2 36.85 -83.25 36.9 -84.6 M23.0 -83.25 L22.95 -84.6 23.1 -89.2 23.25 -90.3 23.3 -90.9 Q23.6 -93.1 24.2 -95.2 L37.15 -95.15 37.7 -90.9 37.75 -90.3 37.85 -89.2 37.9 -84.6 37.85 -83.25 37.8 -82.2 37.2 -75.85 37.15 -75.75 Q37.1 -75.65 24.2 -75.7 L24.2 -75.85 Q23.4 -79.05 23.1 -82.15 L23.0 -83.25 M38.65 -83.25 L38.65 -97.1 22.65 -97.1 22.65 -83.25 22.65 -73.85 38.65 -73.85 38.65 -83.25 M39.65 -76.8 L41.2 -82.1 41.2 -102.85 39.65 -97.5 39.65 -76.8" fill="#2a2a2a" fill-rule="evenodd" stroke="none"/>
    <path d="M24.25 -103.35 L25.1 -105.85 41.05 -105.85 40.45 -103.35 24.25 -103.35" fill="#c8c8c8" fill-rule="evenodd" stroke="none"/>
    <path d="M40.45 -103.35 L39.05 -97.6 22.3 -97.6 24.25 -103.35 40.45 -103.35 M36.9 -84.6 L36.85 -83.25 36.8 -82.2 36.2 -76.35 25.05 -76.35 Q24.35 -79.3 24.1 -82.15 L24.0 -83.25 23.95 -84.6 29.3 -84.15 36.9 -84.6" fill="#dddddd" fill-rule="evenodd" stroke="none"/>
    <path d="M23.95 -84.6 L24.1 -89.2 24.25 -90.3 24.3 -90.9 Q24.6 -92.75 25.05 -94.6 L36.25 -94.6 36.7 -90.9 36.75 -90.3 36.85 -89.2 36.9 -84.6 29.3 -84.15 23.95 -84.6" fill="#ffffff" fill-rule="evenodd" stroke="none"/>
    <path d="M37.85 -83.25 L37.9 -84.6 37.85 -89.2 37.75 -90.3 37.7 -90.9 37.15 -95.15 24.2 -95.2 Q23.6 -93.1 23.3 -90.9 L23.25 -90.3 23.1 -89.2 22.95 -84.6 23.0 -83.25 22.65 -83.25 22.65 -97.1 38.65 -97.1 38.65 -83.25 37.85 -83.25" fill="#999999" fill-rule="evenodd" stroke="none"/>
    <path d="M37.85 -83.25 L38.65 -83.25 38.65 -73.85 22.65 -73.85 22.65 -83.25 23.0 -83.25 23.1 -82.15 Q23.4 -79.05 24.2 -75.85 L24.2 -75.7 Q37.1 -75.65 37.15 -75.75 L37.2 -75.85 37.8 -82.2 37.85 -83.25" fill="#727272" fill-rule="evenodd" stroke="none"/>
    <path d="M39.65 -76.8 L39.65 -97.5 41.2 -102.85 41.2 -82.1 39.65 -76.8" fill="#858585" fill-rule="evenodd" stroke="none"/>
  </g>
</svg>
