<?xml version="1.0" encoding="UTF-8" standalone="no"?>
<svg xmlns:ffdec="https://www.free-decompiler.com/flash" xmlns:xlink="http://www.w3.org/1999/xlink" ffdec:objectType="shape" height="89.6px" width="65.5px" xmlns="http://www.w3.org/2000/svg">
  <g transform="matrix(1.0, 0.0, 0.0, 1.0, -1.5, -3.6)">
    <path d="M51.75 11.8 L51.2 10.65 49.3 8.05 49.6 9.1 Q50.3 10.35 51.75 11.8 M49.15 11.3 Q47.75 9.15 47.75 7.2 L47.9 3.6 Q54.8 5.85 60.45 12.5 66.1 19.1 67.0 28.9 L66.85 28.9 Q63.25 29.85 59.35 25.95 56.15 22.7 55.45 19.75 54.95 17.7 51.15 13.8 L50.25 12.8 50.25 11.3 49.15 11.3 M54.4 14.45 Q55.3 15.55 57.05 19.9 58.55 23.6 61.05 25.9 L62.1 26.5 60.0 19.8 Q58.4 15.45 54.4 14.45 M48.7 34.3 Q50.35 34.45 51.7 33.45 53.0 32.45 53.25 30.8 53.45 29.15 52.45 27.8 51.4 26.45 49.75 26.25 47.7 26.1 45.95 27.55 L45.0 28.55 43.15 28.55 Q43.8 27.05 45.4 26.05 47.45 24.75 49.85 24.75 52.05 24.75 53.35 26.5 54.55 28.1 54.4 30.35 53.9 35.9 47.4 35.9 43.05 35.9 42.8 31.3 L44.3 31.3 Q44.35 32.75 44.9 33.35 45.85 34.55 48.7 34.3 M20.8 9.15 L20.6 10.6 Q20.6 12.65 22.9 14.45 24.25 15.5 27.95 17.6 35.25 22.3 35.25 29.55 35.25 35.3 30.5 38.35 25.0 41.95 15.45 39.8 13.25 42.3 10.5 46.85 7.9 50.25 3.4 50.85 L3.3 50.85 3.6 50.1 Q1.4 47.3 1.55 44.35 1.15 42.85 2.9 40.75 4.65 38.6 4.65 37.4 L3.75 35.05 Q2.85 33.0 3.95 31.6 L7.0 26.0 Q8.95 21.8 10.75 20.2 12.55 18.6 13.25 17.15 13.95 15.65 13.8 14.35 13.6 13.05 16.2 11.45 L21.05 8.25 20.8 9.15 M28.9 20.3 Q25.2 18.4 23.5 16.7 L20.5 13.7 Q11.1 26.2 9.9 28.25 9.15 29.45 9.15 31.95 L8.35 34.3 6.75 34.3 6.75 37.3 7.35 37.3 5.3 43.45 6.3 44.85 7.85 47.5 9.35 45.7 10.65 44.0 Q12.55 40.0 13.15 39.35 13.85 39.1 14.55 38.45 L15.35 38.4 18.1 38.5 23.8 38.9 26.4 38.3 29.0 37.6 Q32.05 35.9 33.2 33.4 34.25 31.0 33.6 27.55 33.6 25.85 32.35 23.65 30.9 21.0 28.9 20.3 M19.55 47.65 L18.3 48.65 17.05 49.75 16.9 50.1 Q16.75 50.55 16.75 51.15 L16.95 52.25 17.6 53.45 18.9 54.9 Q20.25 55.85 22.25 55.85 23.65 55.85 24.65 55.25 L26.25 53.95 27.0 51.6 27.25 49.5 Q27.25 47.5 25.6 47.1 23.9 46.7 19.55 47.65 M22.25 45.55 L22.25 46.8 25.0 46.8 25.0 45.5 24.7 45.45 Q26.85 45.5 27.95 46.65 28.8 47.5 28.8 48.4 28.8 52.65 27.5 54.85 26.0 57.35 22.7 57.35 20.3 57.35 18.15 55.85 L16.4 54.35 Q15.65 54.35 15.25 51.15 15.25 47.65 19.05 46.25 L22.25 45.55 M7.95 69.4 Q5.65 67.45 6.1 65.8 14.95 67.95 18.05 70.8 21.1 73.55 21.1 79.2 L20.45 81.55 Q19.8 83.1 19.45 83.1 L16.3 85.7 Q13.4 82.6 11.55 78.35 10.2 75.4 10.2 74.55 L10.4 72.9 Q10.6 71.9 10.4 71.65 L7.95 69.4 M15.1 77.05 Q15.2 78.45 16.1 79.95 17.1 81.55 18.3 82.1 19.6 79.5 19.6 78.25 19.6 75.4 18.15 73.0 16.55 70.45 13.8 69.55 L12.45 68.95 Q14.1 71.75 15.45 72.75 16.0 73.2 16.0 74.55 L15.75 75.35 15.75 74.3 13.0 74.3 13.0 77.05 15.1 77.05 M41.5 77.0 L44.05 75.2 Q49.55 72.55 52.25 71.75 53.35 71.4 55.25 69.95 L55.4 69.35 Q54.05 71.15 50.75 71.15 44.55 71.15 42.15 67.95 40.75 66.1 40.75 63.25 40.75 60.05 42.45 57.7 44.45 54.95 47.9 54.95 49.65 54.95 51.75 55.9 53.8 56.8 54.4 56.8 54.9 56.8 54.9 57.15 54.85 57.5 55.35 57.5 56.65 57.5 57.45 59.6 58.15 61.3 58.15 63.1 58.75 62.25 61.35 61.4 63.15 60.8 64.7 60.55 L66.55 60.4 64.55 62.4 Q63.45 63.3 63.35 63.95 L63.35 66.0 63.4 68.8 Q63.3 70.05 60.85 72.25 58.35 74.45 59.2 77.15 60.0 79.9 57.6 81.25 55.15 82.55 54.0 83.95 52.8 85.35 52.25 87.55 51.7 89.7 50.7 89.7 L49.0 89.5 47.5 89.05 Q46.65 88.85 45.85 91.05 45.1 93.2 41.55 93.2 L36.4 93.1 Q35.75 91.05 35.75 89.15 L35.6 86.75 Q35.6 85.05 36.2 85.05 36.55 85.05 36.7 84.3 L37.3 82.2 Q38.15 79.9 40.55 77.8 L41.5 77.8 41.5 77.0 M40.35 80.05 Q39.85 80.7 39.05 82.2 38.1 84.0 37.65 85.35 L37.25 89.6 40.05 89.6 Q41.7 89.75 44.9 86.55 46.55 84.95 48.85 84.15 51.15 83.35 51.45 83.05 L52.25 80.4 53.0 78.3 53.25 78.3 53.25 77.6 55.0 73.8 Q56.55 70.8 58.0 69.25 L59.1 68.25 58.7 64.6 57.9 65.5 Q57.55 69.4 55.95 71.25 54.45 73.0 51.35 73.6 L43.05 77.55 40.35 80.05 M56.5 61.75 Q55.35 58.95 53.6 58.05 52.05 57.2 50.3 56.65 L48.75 56.5 Q46.4 56.5 44.75 57.9 42.85 59.55 42.3 62.7 42.1 65.0 43.1 66.7 44.4 68.8 47.5 69.35 L51.6 69.6 53.45 68.95 Q55.3 67.35 56.0 65.65 56.75 63.95 56.5 61.75" fill="#9d8c4a" fill-rule="evenodd" stroke="none"/>
    <path d="M51.75 11.8 Q50.3 10.35 49.6 9.1 L49.3 8.05 51.2 10.65 51.75 11.8 M54.4 14.45 Q58.4 15.45 60.0 19.8 L62.1 26.5 61.05 25.9 Q58.55 23.6 57.05 19.9 55.3 15.55 54.4 14.45 M23.5 16.7 Q22.35 19.85 19.85 22.35 17.2 24.95 16.35 26.9 L15.5 31.35 Q15.0 34.05 12.2 36.7 L10.25 38.05 Q9.4 38.85 9.4 41.45 9.4 41.9 10.65 44.0 L9.35 45.7 7.85 47.5 6.3 44.85 5.3 43.45 7.35 37.3 9.75 37.3 9.75 34.3 8.35 34.3 9.15 31.95 Q9.15 29.45 9.9 28.25 11.1 26.2 20.5 13.7 L23.5 16.7 M15.5 24.05 L13.5 24.05 13.5 26.05 15.5 26.05 15.5 24.05 M15.75 75.35 L16.0 74.55 Q16.0 73.2 15.45 72.75 14.1 71.75 12.45 68.95 L13.8 69.55 Q16.55 70.45 18.15 73.0 19.6 75.4 19.6 78.25 19.6 79.5 18.3 82.1 17.1 81.55 16.1 79.95 15.2 78.45 15.1 77.05 L15.75 77.05 15.75 75.35 M40.35 80.05 L43.05 77.55 45.05 78.25 46.45 78.6 Q47.5 78.6 48.4 77.6 L51.35 73.6 Q54.45 73.0 55.95 71.25 57.55 69.4 57.9 65.5 L58.7 64.6 59.1 68.25 58.0 69.25 Q56.55 70.8 55.0 73.8 L53.25 77.6 53.25 76.3 51.25 76.3 51.25 78.3 53.0 78.3 52.25 80.4 51.45 83.05 Q51.15 83.35 48.85 84.15 46.55 84.95 44.9 86.55 41.7 89.75 40.05 89.6 L37.25 89.6 37.65 85.35 Q40.35 85.85 42.0 85.0 43.45 84.25 43.45 82.8 43.45 81.0 40.35 80.05 M53.45 68.95 L56.5 61.75 Q56.75 63.95 56.0 65.65 55.3 67.35 53.45 68.95" fill="#c2b57e" fill-rule="evenodd" stroke="none"/>
    <path d="M28.9 20.3 L29.4 21.1 Q29.8 21.8 29.8 22.4 L29.65 23.8 29.5 23.8 29.5 24.3 28.55 25.5 Q27.75 26.05 26.2 26.05 L24.65 25.65 23.1 25.2 Q21.7 25.2 21.0 27.2 20.55 28.35 20.0 32.0 19.85 33.05 17.5 35.5 L14.55 38.45 Q13.85 39.1 13.15 39.35 12.55 40.0 10.65 44.0 9.4 41.9 9.4 41.45 9.4 38.85 10.25 38.05 L12.2 36.7 Q15.0 34.05 15.5 31.35 L16.35 26.9 Q17.2 24.95 19.85 22.35 22.35 19.85 23.5 16.7 25.2 18.4 28.9 20.3 M19.55 47.65 L20.2 48.4 20.5 49.5 20.45 50.15 20.25 50.4 20.05 50.75 19.15 51.1 Q18.05 50.15 17.05 49.75 L18.3 48.65 19.55 47.65 M37.65 85.35 Q38.1 84.0 39.05 82.2 39.85 80.7 40.35 80.05 43.45 81.0 43.45 82.8 43.45 84.25 42.0 85.0 40.35 85.85 37.65 85.35 M43.05 77.55 L51.35 73.6 48.4 77.6 Q47.5 78.6 46.45 78.6 L45.05 78.25 43.05 77.55 M53.6 58.05 Q55.35 58.95 56.5 61.75 L53.45 68.95 51.6 69.6 47.5 69.35 Q50.0 67.7 52.0 63.8 L52.5 62.8 Q53.85 59.8 53.6 58.05" fill="#e7deb2" fill-rule="evenodd" stroke="none"/>
    <path d="M49.75 26.25 Q51.4 26.45 52.45 27.8 53.45 29.15 53.25 30.8 53.0 32.45 51.7 33.45 50.35 34.45 48.7 34.3 50.1 32.85 50.8 30.6 50.8 28.35 49.75 26.25 M29.65 23.8 L29.8 22.4 Q29.8 21.8 29.4 21.1 L28.9 20.3 Q30.9 21.0 32.35 23.65 33.6 25.85 33.6 27.55 30.2 28.85 28.15 31.1 26.7 32.65 26.7 33.25 26.7 35.05 29.0 37.6 L26.4 38.3 23.8 38.9 Q23.55 35.7 21.4 35.7 21.15 35.7 19.85 36.85 L18.1 38.5 15.35 38.4 14.55 38.45 17.5 35.5 Q19.85 33.05 20.0 32.0 20.55 28.35 21.0 27.2 21.7 25.2 23.1 25.2 L24.65 25.65 26.2 26.05 Q27.75 26.05 28.55 25.5 L29.5 24.3 29.5 26.3 31.75 26.3 31.75 23.8 29.65 23.8 M17.05 49.75 Q18.05 50.15 19.15 51.1 L20.05 50.75 20.25 50.4 20.45 50.15 20.5 49.5 20.2 48.4 19.55 47.65 Q23.9 46.7 25.6 47.1 27.25 47.5 27.25 49.5 L27.0 51.6 26.25 53.95 Q25.55 53.45 23.8 52.95 L21.95 52.55 19.75 52.85 17.6 53.45 16.95 52.25 16.75 51.15 Q16.75 50.55 16.9 50.1 L17.05 49.75 M26.4 30.9 Q26.4 29.85 25.8 29.1 25.15 28.35 24.25 28.35 23.35 28.35 22.75 29.1 22.1 29.85 22.1 30.9 22.1 31.95 22.75 32.7 23.35 33.45 24.25 33.45 25.15 33.45 25.8 32.7 26.4 31.95 26.4 30.9 M53.6 58.05 Q53.85 59.8 52.5 62.8 L52.0 63.8 Q50.0 67.7 47.5 69.35 44.4 68.8 43.1 66.7 42.1 65.0 42.3 62.7 44.3 63.75 45.1 63.75 48.35 63.75 49.4 61.9 50.15 60.6 50.3 56.65 52.05 57.2 53.6 58.05 M52.5 62.8 L52.5 60.55 50.0 60.55 50.0 62.8 52.5 62.8" fill="#f1ecd3" fill-rule="evenodd" stroke="none"/>
    <path d="M49.75 26.25 Q50.8 28.35 50.8 30.6 50.1 32.85 48.7 34.3 45.85 34.55 44.9 33.35 44.35 32.75 44.3 31.3 L45.25 31.3 45.25 28.55 45.0 28.55 45.95 27.55 Q47.7 26.1 49.75 26.25 M17.6 53.45 L19.75 52.85 21.95 52.55 23.8 52.95 Q25.55 53.45 26.25 53.95 L24.65 55.25 Q23.65 55.85 22.25 55.85 20.25 55.85 18.9 54.9 L17.6 53.45 M18.1 38.5 L19.85 36.85 Q21.15 35.7 21.4 35.7 23.55 35.7 23.8 38.9 L18.1 38.5 M29.0 37.6 Q26.7 35.05 26.7 33.25 26.7 32.65 28.15 31.1 30.2 28.85 33.6 27.55 34.25 31.0 33.2 33.4 32.05 35.9 29.0 37.6 M26.4 30.9 Q26.4 31.95 25.8 32.7 25.15 33.45 24.25 33.45 23.35 33.45 22.75 32.7 22.1 31.95 22.1 30.9 22.1 29.85 22.75 29.1 23.35 28.35 24.25 28.35 25.15 28.35 25.8 29.1 26.4 29.85 26.4 30.9 M42.3 62.7 Q42.85 59.55 44.75 57.9 46.4 56.5 48.75 56.5 L50.3 56.65 Q50.15 60.6 49.4 61.9 48.35 63.75 45.1 63.75 44.3 63.75 42.3 62.7" fill="#fbf9f0" fill-rule="evenodd" stroke="none"/>
    <path d="M49.15 11.3 L50.25 11.3 50.25 12.8 49.15 11.3 M44.3 31.3 L42.8 31.3 42.75 30.65 Q42.75 29.5 43.15 28.55 L45.0 28.55 45.25 28.55 45.25 31.3 44.3 31.3 M29.5 24.3 L29.5 23.8 29.65 23.8 31.75 23.8 31.75 26.3 29.5 26.3 29.5 24.3 M8.35 34.3 L9.75 34.3 9.75 37.3 7.35 37.3 6.75 37.3 6.75 34.3 8.35 34.3 M15.5 24.05 L15.5 26.05 13.5 26.05 13.5 24.05 15.5 24.05 M24.7 45.45 L25.0 45.5 25.0 46.8 22.25 46.8 22.25 45.55 24.55 45.45 24.7 45.45 M15.75 75.35 L15.75 77.05 15.1 77.05 13.0 77.05 13.0 74.3 15.75 74.3 15.75 75.35 M40.55 77.8 L41.5 77.0 41.5 77.8 40.55 77.8 M53.25 77.6 L53.25 78.3 53.0 78.3 51.25 78.3 51.25 76.3 53.25 76.3 53.25 77.6 M52.5 62.8 L50.0 62.8 50.0 60.55 52.5 60.55 52.5 62.8" fill="#3e382d" fill-rule="evenodd" stroke="none"/>
  </g>
</svg>
