<?xml version="1.0" encoding="UTF-8" standalone="no"?>
<svg xmlns:ffdec="https://www.free-decompiler.com/flash" xmlns:xlink="http://www.w3.org/1999/xlink" ffdec:objectType="shape" height="92.45px" width="67.65px" xmlns="http://www.w3.org/2000/svg">
  <g transform="matrix(1.0, 0.0, 0.0, 1.0, -1.3, -1.45)">
    <path d="M42.75 3.2 L45.0 2.95 Q48.15 2.95 53.55 6.25 61.35 11.0 64.35 19.15 L56.8 17.35 51.75 16.35 45.6 15.55 Q42.5 15.55 38.65 16.45 34.8 17.35 33.05 18.55 L25.4 26.1 Q24.45 26.1 22.4 32.3 20.55 38.0 20.55 38.65 20.55 42.25 22.9 44.9 24.3 44.9 30.25 55.25 36.8 66.6 36.8 72.9 L35.95 77.15 Q34.95 81.25 34.0 82.65 32.6 84.7 29.95 87.05 26.2 90.45 23.75 90.45 20.1 90.45 17.65 87.45 L12.5 80.85 Q10.1 77.65 10.3 75.25 9.65 73.3 10.6 71.75 L8.05 69.6 Q5.6 67.15 5.7 64.0 5.8 60.8 4.0 59.5 2.15 58.2 2.25 55.25 L2.55 49.55 1.85 46.8 1.3 44.35 2.85 41.25 Q4.4 38.4 4.55 37.75 4.65 37.1 4.15 35.15 L3.5 32.8 Q3.4 32.35 4.55 30.25 5.7 28.1 6.4 27.4 7.05 26.7 6.9 25.8 6.7 24.85 10.25 20.8 L14.1 16.05 Q13.9 15.1 13.85 13.95 13.7 12.8 16.3 11.3 18.9 9.75 21.05 7.3 23.2 4.8 24.65 4.9 L27.25 5.3 Q28.4 5.65 30.2 3.55 32.0 1.45 36.1 1.45 L40.65 3.25 42.75 3.2 M48.3 22.2 Q47.85 22.4 47.45 22.7 L46.35 23.6 Q45.35 24.7 45.35 26.1 45.35 29.1 46.6 31.25 47.8 33.3 49.5 33.4 49.45 34.5 49.65 33.4 53.75 34.05 56.6 30.55 L57.75 25.4 Q57.75 23.2 56.45 21.95 54.95 20.6 52.45 21.3 50.1 21.3 48.3 22.2 M42.8 14.15 L47.5 14.15 55.8 15.65 57.1 15.85 Q55.55 15.0 52.3 11.0 49.4 7.4 47.75 7.15 L35.6 5.0 Q22.55 5.0 13.35 22.6 8.6 31.65 5.3 43.45 L8.1 48.1 8.1 48.15 9.8 46.95 12.0 45.7 Q14.25 45.7 15.85 46.9 17.45 48.1 17.45 49.8 17.9 51.05 18.0 53.25 18.0 54.3 17.35 55.05 16.7 55.8 15.8 55.8 L12.45 56.35 9.2 54.9 Q7.6 53.05 7.85 49.6 L6.9 51.8 Q6.15 53.5 6.15 54.1 6.15 58.3 11.1 66.8 L16.0 74.55 15.55 75.6 Q15.05 76.1 15.05 76.6 15.05 80.2 19.05 82.45 24.5 85.55 26.05 87.65 L31.2 83.85 Q32.8 82.35 34.5 78.2 L35.0 75.15 35.25 71.6 Q34.2 65.75 27.8 54.95 25.55 51.2 20.55 43.8 L19.8 40.65 Q19.25 38.15 19.3 37.15 L24.1 25.35 28.65 19.8 Q33.3 16.1 35.45 15.4 L42.8 14.15 M51.3 19.6 Q54.5 19.6 56.8 21.9 59.05 24.15 59.05 27.35 59.05 30.55 56.8 32.85 54.5 35.1 51.3 35.1 48.1 35.1 45.85 32.85 43.55 30.55 43.55 27.35 43.55 24.15 45.85 21.9 48.1 19.6 51.3 19.6 M59.85 39.25 L57.0 48.65 57.45 53.15 58.0 58.0 59.8 61.75 62.55 59.4 Q62.85 59.05 63.0 57.6 L62.15 53.45 63.3 49.0 64.0 45.7 64.5 40.1 62.5 35.75 59.85 39.25 M57.8 41.35 Q57.95 38.5 60.55 35.55 61.05 35.05 63.4 33.85 65.55 32.75 66.5 32.4 L66.4 33.0 68.5 38.35 Q69.0 39.4 68.9 40.25 L67.35 44.75 68.15 46.2 Q68.95 47.95 68.95 49.9 L67.2 53.7 Q66.75 54.35 67.1 55.7 L67.45 57.65 Q67.45 59.85 65.1 61.85 62.9 63.75 63.25 66.3 58.05 65.15 56.25 56.95 L55.5 48.5 Q55.5 46.9 56.1 44.9 56.65 43.2 56.85 43.2 57.65 43.2 57.8 41.35 M12.6 46.9 L11.85 47.2 10.7 47.05 Q10.3 47.0 10.3 47.6 L9.8 48.95 Q9.3 49.8 9.3 50.3 9.3 52.8 10.35 53.95 11.2 54.85 12.55 54.85 14.75 54.85 15.8 54.1 L16.5 53.25 16.5 50.4 15.25 48.85 12.6 47.35 12.6 46.9 M29.65 29.5 Q25.05 31.7 25.05 35.65 25.05 39.6 27.2 41.65 29.3 43.55 33.1 43.55 35.8 43.55 37.05 42.55 39.0 41.05 39.0 37.0 39.0 36.1 38.25 33.85 38.25 32.05 35.75 30.8 33.2 29.5 29.65 29.5 M32.05 27.8 Q35.6 27.8 38.1 30.35 40.6 32.85 40.6 36.4 40.6 39.95 38.1 42.5 35.6 45.0 32.05 45.0 28.5 45.0 26.0 42.5 23.5 39.95 23.5 36.4 23.5 32.85 26.0 30.35 28.5 27.8 32.05 27.8 M21.0 63.3 Q21.0 62.1 22.85 61.3 24.65 60.45 27.25 60.45 L28.65 62.95 28.8 63.55 28.15 64.85 Q27.3 66.3 26.15 67.25 L24.05 66.85 21.9 66.15 21.0 63.3 M27.25 63.65 Q27.25 62.7 26.55 62.0 25.85 61.3 24.9 61.3 23.95 61.3 23.25 62.0 22.55 62.7 22.55 63.65 22.55 64.6 23.25 65.3 23.95 66.0 24.9 66.0 25.85 66.0 26.55 65.3 27.25 64.6 27.25 63.65 M26.55 92.45 Q26.55 90.15 30.1 88.5 31.9 87.7 33.8 87.3 35.7 87.3 36.7 88.35 L39.9 93.0 38.3 92.7 34.85 93.55 Q34.35 93.55 34.0 93.15 33.65 92.75 33.35 92.8 L31.95 93.35 29.9 93.7 Q28.5 94.25 27.05 93.4 26.55 93.45 26.55 92.45 M50.45 66.3 Q52.3 65.3 53.3 63.7 54.05 62.45 54.05 61.35 L53.8 59.65 53.55 58.7 Q53.55 57.5 52.6 56.7 51.6 55.85 50.25 55.85 48.2 55.85 46.75 58.2 45.25 60.5 45.25 63.75 45.85 64.7 47.7 65.5 49.3 66.2 50.45 66.3 M54.1 56.6 Q55.95 58.45 55.95 61.1 55.95 63.75 54.1 65.6 52.25 67.45 49.6 67.45 46.95 67.45 45.1 65.6 43.25 63.75 43.25 61.1 43.25 58.45 45.1 56.6 46.95 54.75 49.6 54.75 52.25 54.75 54.1 56.6 M56.45 73.75 Q58.05 73.9 58.65 75.8 L59.05 79.3 Q59.05 80.5 56.7 81.3 54.3 82.1 53.45 84.95 52.55 87.75 51.75 89.0 50.9 90.25 49.95 90.1 49.0 89.95 48.65 89.5 48.3 89.0 47.4 88.95 46.5 88.85 46.3 90.65 46.05 92.45 43.6 92.95 42.8 90.85 42.6 88.95 L42.3 86.3 Q42.3 82.15 44.45 78.7 47.45 73.85 53.4 73.9 L56.45 73.75 M54.3 75.35 L49.5 76.5 46.6 78.6 44.85 81.3 Q43.8 83.35 43.8 86.3 L43.95 87.55 Q49.0 84.15 51.55 82.75 L54.3 75.35" fill="#280702" fill-rule="evenodd" stroke="none"/>
    <path d="M47.5 14.15 L44.95 10.6 Q43.7 9.1 40.05 9.1 33.4 9.1 26.1 16.1 22.4 19.65 19.45 23.65 18.1 24.75 13.6 33.15 9.4 41.05 9.4 41.45 9.4 42.05 10.0 42.85 L12.0 45.7 9.8 46.95 8.1 48.15 8.1 48.1 5.3 43.45 Q8.6 31.65 13.35 22.6 22.55 5.0 35.6 5.0 L47.75 7.15 Q49.4 7.4 52.3 11.0 55.55 15.0 57.1 15.85 L55.8 15.65 47.5 14.15 M59.85 39.25 L62.5 35.75 64.5 40.1 64.0 45.7 63.3 49.0 62.15 53.45 63.0 57.6 Q62.85 59.05 62.55 59.4 L59.8 61.75 58.0 58.0 Q58.85 56.55 58.85 55.55 L58.4 53.15 57.9 50.75 Q57.9 49.0 59.05 45.3 L60.15 41.85 59.85 39.25 M34.5 78.2 Q32.8 82.35 31.2 83.85 L26.05 87.65 Q24.5 85.55 19.05 82.45 15.05 80.2 15.05 76.6 15.05 76.1 15.55 75.6 L16.0 74.55 11.1 66.8 Q6.15 58.3 6.15 54.1 6.15 53.5 6.9 51.8 L7.85 49.6 Q7.6 53.05 9.2 54.9 11.85 61.9 18.05 67.55 20.7 69.95 21.55 71.3 22.95 73.5 22.95 76.55 22.95 77.8 24.8 78.55 26.45 79.2 28.8 79.2 30.2 79.2 31.45 78.35 L34.5 78.2 M28.75 80.05 Q28.05 80.05 27.55 80.6 27.05 81.1 27.05 81.8 27.05 82.5 27.55 83.05 28.05 83.55 28.75 83.55 29.45 83.55 29.95 83.05 30.45 82.5 30.45 81.8 30.45 81.1 29.95 80.6 29.45 80.05 28.75 80.05 M54.3 75.35 L51.55 82.75 Q49.0 84.15 43.95 87.55 L43.8 86.3 Q43.8 83.35 44.85 81.3 L46.6 78.6 49.5 76.5 54.3 75.35" fill="#3d0c04" fill-rule="evenodd" stroke="none"/>
    <path d="M52.45 21.3 Q54.95 20.6 56.45 21.95 57.75 23.2 57.75 25.4 L56.6 30.55 Q56.85 27.95 55.2 25.4 53.15 22.75 52.45 21.3 M47.5 14.15 L42.8 14.15 41.65 13.25 Q40.75 12.8 39.75 12.8 34.75 12.8 31.0 15.7 L28.25 18.55 28.45 19.5 28.65 19.8 24.1 25.35 Q20.9 25.7 20.15 28.8 19.8 30.45 19.9 32.65 L16.8 36.6 Q13.7 40.4 13.7 40.8 13.7 42.7 17.1 46.4 L20.5 49.8 19.15 51.1 17.45 49.8 Q17.45 48.1 15.85 46.9 14.25 45.7 12.0 45.7 L10.0 42.85 Q9.4 42.05 9.4 41.45 9.4 41.05 13.6 33.15 18.1 24.75 19.45 23.65 22.4 19.65 26.1 16.1 33.4 9.1 40.05 9.1 43.7 9.1 44.95 10.6 L47.5 14.15 M58.0 58.0 L57.45 53.15 57.0 48.65 59.85 39.25 60.15 41.85 59.05 45.3 Q57.9 49.0 57.9 50.75 L58.4 53.15 58.85 55.55 Q58.85 56.55 58.0 58.0 M35.25 71.6 L35.0 75.15 34.5 78.2 31.45 78.35 Q30.2 79.2 28.8 79.2 26.45 79.2 24.8 78.55 22.95 77.8 22.95 76.55 22.95 73.5 21.55 71.3 20.7 69.95 18.05 67.55 11.85 61.9 9.2 54.9 L12.45 56.35 Q12.45 60.4 15.25 63.3 18.0 66.15 21.9 66.15 L24.05 66.85 26.15 67.25 Q26.95 68.35 30.8 70.0 L35.25 71.6 M28.75 80.05 Q29.45 80.05 29.95 80.6 30.45 81.1 30.45 81.8 30.45 82.5 29.95 83.05 29.45 83.55 28.75 83.55 28.05 83.55 27.55 83.05 27.05 82.5 27.05 81.8 27.05 81.1 27.55 80.6 28.05 80.05 28.75 80.05 M53.55 58.7 L53.8 59.65 54.05 61.35 Q54.05 62.45 53.3 63.7 52.3 65.3 50.45 66.3 51.9 64.85 52.85 62.2 53.7 59.9 53.55 58.7" fill="#6e2012" fill-rule="evenodd" stroke="none"/>
    <path d="M48.3 22.2 Q50.1 21.3 52.45 21.3 53.15 22.75 55.2 25.4 56.85 27.95 56.6 30.55 53.75 34.05 49.65 33.4 49.45 34.5 49.5 33.4 L49.6 31.8 Q49.8 28.55 49.35 25.65 48.95 23.2 48.3 22.2 M45.35 26.1 Q45.35 24.7 46.35 23.6 L45.35 26.1 M17.45 49.8 L19.15 51.1 20.5 49.8 17.1 46.4 Q13.7 42.7 13.7 40.8 13.7 40.4 16.8 36.6 L19.9 32.65 Q19.8 30.45 20.15 28.8 20.9 25.7 24.1 25.35 L19.3 37.15 Q18.6 37.85 17.65 39.45 L16.8 41.05 Q16.8 41.8 17.65 42.35 18.4 42.9 20.55 43.8 25.55 51.2 27.8 54.95 34.2 65.75 35.25 71.6 L30.8 70.0 Q26.95 68.35 26.15 67.25 27.3 66.3 28.15 64.85 L28.8 63.55 28.65 62.95 27.25 60.45 27.55 57.8 Q27.55 54.65 25.45 53.35 22.95 51.85 18.0 53.25 17.9 51.05 17.45 49.8 M28.65 19.8 L28.45 19.5 28.25 18.55 31.0 15.7 Q34.75 12.8 39.75 12.8 40.75 12.8 41.65 13.25 L42.8 14.15 35.45 15.4 Q33.3 16.1 28.65 19.8 M12.45 56.35 L15.8 55.8 Q15.8 58.9 17.35 61.1 18.85 63.3 21.0 63.3 L21.9 66.15 Q18.0 66.15 15.25 63.3 12.45 60.4 12.45 56.35 M38.25 33.85 Q39.0 36.1 39.0 37.0 39.0 41.05 37.05 42.55 35.8 43.55 33.1 43.55 29.3 43.55 27.2 41.65 25.05 39.6 25.05 35.65 25.05 31.7 29.65 29.5 26.7 32.1 26.7 33.25 26.7 35.45 28.5 37.15 30.3 38.85 32.75 38.85 34.45 38.85 35.7 38.05 37.7 36.8 38.25 33.85 M50.45 66.3 Q49.3 66.2 47.7 65.5 45.85 64.7 45.25 63.75 47.3 63.75 48.8 61.45 50.25 59.1 50.25 55.85 51.6 55.85 52.6 56.7 53.55 57.5 53.55 58.7 53.7 59.9 52.85 62.2 51.9 64.85 50.45 66.3" fill="#9f321f" fill-rule="evenodd" stroke="none"/>
    <path d="M46.35 23.6 L47.45 22.7 Q47.85 22.4 48.3 22.2 48.95 23.2 49.35 25.65 49.8 28.55 49.6 31.8 L49.5 33.4 Q47.8 33.3 46.6 31.25 45.35 29.1 45.35 26.1 L46.35 23.6 M20.55 43.8 Q18.4 42.9 17.65 42.35 16.8 41.8 16.8 41.05 L17.65 39.45 Q18.6 37.85 19.3 37.15 19.25 38.15 19.8 40.65 L20.55 43.8 M15.8 55.8 Q16.7 55.8 17.35 55.05 18.0 54.3 18.0 53.25 22.95 51.85 25.45 53.35 27.55 54.65 27.55 57.8 L27.25 60.45 Q24.65 60.45 22.85 61.3 21.0 62.1 21.0 63.3 18.85 63.3 17.35 61.1 15.8 58.9 15.8 55.8 M29.65 29.5 Q33.2 29.5 35.75 30.8 38.25 32.05 38.25 33.85 37.7 36.8 35.7 38.05 34.45 38.85 32.75 38.85 30.3 38.85 28.5 37.15 26.7 35.45 26.7 33.25 26.7 32.1 29.65 29.5 M45.25 63.75 Q45.25 60.5 46.75 58.2 48.2 55.85 50.25 55.85 50.25 59.1 48.8 61.45 47.3 63.75 45.25 63.75" fill="#b35a4b" fill-rule="evenodd" stroke="none"/>
  </g>
</svg>
