<?xml version="1.0" encoding="UTF-8" standalone="no"?>
<svg xmlns:ffdec="https://www.free-decompiler.com/flash" xmlns:xlink="http://www.w3.org/1999/xlink" ffdec:objectType="shape" height="89.6px" width="65.5px" xmlns="http://www.w3.org/2000/svg">
  <g transform="matrix(1.0, 0.0, 0.0, 1.0, -1.5, -3.6)">
    <path d="M51.75 11.8 L51.2 10.65 49.3 8.05 49.6 9.1 Q50.3 10.35 51.75 11.8 M53.0 15.8 L51.15 13.8 Q47.75 10.25 47.75 7.2 L47.9 3.6 Q54.8 5.85 60.45 12.5 66.1 19.1 67.0 28.9 L66.85 28.9 Q63.25 29.85 59.35 25.95 56.15 22.7 55.45 19.75 55.1 18.25 53.0 15.8 L53.25 16.1 53.65 15.65 53.0 15.8 M54.4 14.45 Q55.3 15.55 57.05 19.9 58.55 23.6 61.05 25.9 L62.1 26.5 60.0 19.8 Q58.4 15.45 54.4 14.45 M49.45 34.3 Q50.65 34.2 51.7 33.45 53.0 32.45 53.25 30.8 53.45 29.15 52.45 27.8 51.4 26.45 49.75 26.25 47.7 26.1 45.95 27.55 44.25 28.95 44.25 30.65 44.25 32.6 44.9 33.35 L46.05 34.1 Q45.4 34.5 45.4 35.1 L45.55 35.65 46.5 35.85 Q42.75 35.35 42.75 30.65 42.75 27.7 45.4 26.05 47.45 24.75 49.85 24.75 52.05 24.75 53.35 26.5 54.55 28.1 54.4 30.35 54.0 34.9 49.6 35.7 L49.8 35.1 49.45 34.3 M34.1 24.2 Q35.25 26.65 35.25 29.55 35.25 35.3 30.5 38.35 25.0 41.95 15.45 39.8 13.25 42.3 10.5 46.85 7.9 50.25 3.4 50.85 L3.3 50.85 3.6 50.1 Q1.4 47.3 1.55 44.35 1.15 42.85 2.9 40.75 4.65 38.6 4.65 37.4 L3.75 35.05 Q2.85 33.0 3.95 31.6 L7.0 26.0 Q8.95 21.8 10.75 20.2 12.55 18.6 13.25 17.15 13.95 15.65 13.8 14.35 13.6 13.05 16.2 11.45 L21.05 8.25 20.8 9.15 20.6 10.6 Q20.6 12.65 22.9 14.45 L23.9 15.15 21.85 15.15 20.5 13.7 19.45 15.15 19.35 15.15 18.85 15.45 19.15 15.55 Q11.0 26.35 9.9 28.25 9.15 29.45 9.15 31.95 L5.3 43.45 6.3 44.85 7.85 47.5 9.35 45.7 10.65 44.0 Q12.55 40.0 13.15 39.35 13.85 39.1 14.55 38.45 L15.35 38.4 18.1 38.5 23.8 38.9 26.4 38.3 29.0 37.6 Q32.05 35.9 33.2 33.4 34.25 31.0 33.6 27.55 33.6 26.3 32.95 24.8 L34.1 24.2 M24.95 15.85 L27.95 17.6 Q31.9 20.15 33.75 23.45 L32.7 24.3 32.35 23.65 Q30.9 21.0 28.9 20.3 26.05 18.85 24.4 17.5 L24.95 17.7 24.95 15.85 M19.55 47.65 L18.3 48.65 17.05 49.75 16.9 50.1 Q16.75 50.55 16.75 51.15 L16.95 52.25 17.6 53.45 18.9 54.9 Q20.25 55.85 22.25 55.85 23.65 55.85 24.65 55.25 L26.25 53.95 27.0 51.6 27.25 49.5 Q27.25 47.5 25.6 47.1 24.65 46.9 22.95 47.1 L21.1 45.75 20.25 45.9 21.7 47.25 19.55 47.65 M28.8 48.4 Q28.8 52.65 27.5 54.85 26.0 57.35 22.7 57.35 20.3 57.35 18.15 55.85 L16.4 54.35 Q15.65 54.35 15.25 51.15 15.25 47.65 19.05 46.25 21.25 45.45 24.55 45.45 26.8 45.45 27.95 46.65 28.8 47.5 28.8 48.4 M20.95 80.15 L20.45 81.55 Q19.8 83.1 19.45 83.1 L16.3 85.7 Q13.4 82.6 11.55 78.35 10.2 75.4 10.2 74.55 L10.4 72.9 Q10.6 71.9 10.4 71.65 L7.95 69.4 Q5.65 67.45 6.1 65.8 14.95 67.95 18.05 70.8 21.1 73.55 21.1 79.2 L21.1 79.6 19.6 77.8 Q19.5 75.2 18.15 73.0 16.55 70.45 13.8 69.55 L12.45 68.95 Q14.1 71.75 15.45 72.75 16.0 73.2 16.0 74.55 L15.55 75.6 Q15.05 76.1 15.05 76.6 15.05 78.2 16.1 79.95 17.1 81.55 18.3 82.1 19.3 80.1 19.55 78.9 L20.95 80.15 M53.55 70.7 L50.75 71.15 Q44.55 71.15 42.15 67.95 40.75 66.1 40.75 63.25 40.75 60.05 42.45 57.7 44.45 54.95 47.9 54.95 49.65 54.95 51.75 55.9 53.8 56.8 54.4 56.8 54.9 56.8 54.9 57.15 54.85 57.5 55.35 57.5 56.65 57.5 57.45 59.6 58.15 61.3 58.15 63.1 58.75 62.25 61.35 61.4 63.15 60.8 64.7 60.55 L66.55 60.4 64.55 62.4 Q63.45 63.3 63.35 63.95 L63.35 66.0 63.4 68.8 Q63.3 70.05 60.85 72.25 58.35 74.45 59.2 77.15 60.0 79.9 57.6 81.25 55.15 82.55 54.0 83.95 52.8 85.35 52.25 87.55 51.7 89.7 50.7 89.7 L49.0 89.5 47.5 89.05 Q46.65 88.85 45.85 91.05 45.1 93.2 41.55 93.2 L36.4 93.1 Q35.75 91.05 35.75 89.15 L35.6 86.75 Q35.6 85.05 36.2 85.05 36.55 85.05 36.7 84.3 L37.3 82.2 Q38.7 78.5 44.05 75.2 49.55 72.55 52.25 71.75 52.95 71.5 54.05 70.85 L54.45 70.85 55.75 70.55 Q56.25 70.2 56.25 69.75 56.25 69.3 55.75 69.0 55.2 68.65 54.45 68.65 L53.7 68.75 Q55.35 67.25 56.0 65.65 56.75 63.95 56.5 61.75 55.35 58.95 53.6 58.05 52.05 57.2 50.3 56.65 L48.75 56.5 Q46.4 56.5 44.75 57.9 42.85 59.55 42.3 62.7 42.1 65.0 43.1 66.7 44.4 68.8 47.5 69.35 L51.6 69.6 52.95 69.15 Q52.65 69.4 52.65 69.75 52.65 70.2 53.2 70.55 L53.55 70.7 M40.25 80.2 L39.05 82.2 Q38.1 84.0 37.65 85.35 L37.25 89.6 40.05 89.6 Q41.7 89.75 44.9 86.55 46.55 84.95 48.85 84.15 51.15 83.35 51.45 83.05 L52.25 80.4 Q53.25 77.15 55.0 73.8 56.55 70.8 58.0 69.25 L59.1 68.25 58.7 64.6 57.9 65.5 Q57.55 69.4 55.95 71.25 54.45 73.0 51.35 73.6 L43.05 77.55 41.5 79.0 41.15 79.15 Q40.3 79.6 40.25 80.2" fill="#510000" fill-rule="evenodd" stroke="none"/>
    <path d="M51.75 11.8 Q50.3 10.35 49.6 9.1 L49.3 8.05 51.2 10.65 51.75 11.8 M54.4 14.45 Q58.4 15.45 60.0 19.8 L62.1 26.5 61.05 25.9 Q58.55 23.6 57.05 19.9 55.3 15.55 54.4 14.45 M10.65 44.0 L9.35 45.7 7.85 47.5 6.3 44.85 5.3 43.45 9.15 31.95 Q9.15 29.45 9.9 28.25 11.0 26.35 19.15 15.55 L23.35 17.1 Q22.2 20.0 19.85 22.35 17.2 24.95 16.35 26.9 L15.65 30.5 Q15.25 30.6 14.95 30.9 14.3 31.4 14.3 32.1 14.3 32.75 14.85 33.25 14.0 35.0 12.2 36.7 L10.25 38.05 Q9.4 38.85 9.4 41.45 9.4 41.9 10.65 44.0 M19.45 15.15 L20.5 13.7 21.85 15.15 19.45 15.15 M19.55 78.9 Q19.3 80.1 18.3 82.1 17.1 81.55 16.1 79.95 15.05 78.2 15.05 76.6 15.05 76.1 15.55 75.6 L16.0 74.55 Q16.0 73.2 15.45 72.75 14.1 71.75 12.45 68.95 L13.8 69.55 Q16.55 70.45 18.15 73.0 19.5 75.2 19.6 77.8 L18.2 76.35 18.4 77.4 19.55 78.9 M56.5 61.75 Q56.75 63.95 56.0 65.65 55.35 67.25 53.7 68.75 L53.5 68.8 56.5 61.75 M41.5 79.0 L43.05 77.55 45.05 78.25 46.45 78.6 Q47.5 78.6 48.4 77.6 L51.35 73.6 Q54.45 73.0 55.95 71.25 57.55 69.4 57.9 65.5 L58.7 64.6 59.1 68.25 58.0 69.25 Q56.55 70.8 55.0 73.8 53.25 77.15 52.25 80.4 L51.45 83.05 Q51.15 83.35 48.85 84.15 46.55 84.95 44.9 86.55 41.7 89.75 40.05 89.6 L37.25 89.6 37.65 85.35 Q40.35 85.85 42.0 85.0 43.45 84.25 43.45 82.8 L43.2 81.8 43.3 81.8 Q44.55 81.8 45.45 81.35 46.35 80.9 46.35 80.25 46.35 79.6 45.45 79.15 44.55 78.7 43.3 78.7 L41.5 79.0" fill="#6a0000" fill-rule="evenodd" stroke="none"/>
    <path d="M14.55 38.45 Q13.85 39.1 13.15 39.35 12.55 40.0 10.65 44.0 9.4 41.9 9.4 41.45 9.4 38.85 10.25 38.05 L12.2 36.7 Q14.0 35.0 14.85 33.25 L14.95 33.35 Q15.6 33.85 16.55 33.85 17.5 33.85 18.15 33.35 18.8 32.8 18.8 32.1 18.8 31.4 18.15 30.9 17.5 30.35 16.55 30.35 L15.65 30.5 16.35 26.9 Q17.2 24.95 19.85 22.35 22.2 20.0 23.35 17.1 L24.4 17.5 Q26.05 18.85 28.9 20.3 L29.4 21.1 Q29.8 21.8 29.8 22.4 29.8 24.65 28.55 25.5 27.75 26.05 26.2 26.05 L24.65 25.65 23.1 25.2 Q21.7 25.2 21.0 27.2 20.55 28.35 20.0 32.0 19.85 33.05 17.5 35.5 L14.55 38.45 M19.55 47.65 L20.2 48.4 20.5 49.5 20.45 50.15 20.25 50.4 20.05 50.75 19.15 51.1 Q18.05 50.15 17.05 49.75 L18.3 48.65 19.55 47.65 M52.95 69.15 L51.6 69.6 47.5 69.35 Q50.0 67.7 52.0 63.8 53.9 60.1 53.6 58.05 55.35 58.95 56.5 61.75 L53.5 68.8 53.2 69.0 52.95 69.15 M37.65 85.35 Q38.1 84.0 39.05 82.2 L40.25 80.2 40.25 80.25 Q40.25 80.9 41.15 81.35 L43.2 81.8 43.45 82.8 Q43.45 84.25 42.0 85.0 40.35 85.85 37.65 85.35 M43.05 77.55 L51.35 73.6 48.4 77.6 Q47.5 78.6 46.45 78.6 L45.05 78.25 43.05 77.55" fill="#8c0000" fill-rule="evenodd" stroke="none"/>
    <path d="M49.75 26.25 Q51.4 26.45 52.45 27.8 53.45 29.15 53.25 30.8 53.0 32.45 51.7 33.45 50.65 34.2 49.45 34.3 L49.15 34.1 49.0 34.0 Q50.2 32.6 50.8 30.6 50.8 28.35 49.75 26.25 M32.95 24.8 Q33.6 26.3 33.6 27.55 30.2 28.85 28.15 31.1 26.7 32.65 26.7 33.25 26.7 35.05 29.0 37.6 L26.4 38.3 23.8 38.9 Q23.55 35.7 21.4 35.7 21.15 35.7 19.85 36.85 L18.1 38.5 15.35 38.4 14.55 38.45 17.5 35.5 Q19.85 33.05 20.0 32.0 20.55 28.35 21.0 27.2 21.7 25.2 23.1 25.2 L24.65 25.65 26.2 26.05 Q27.75 26.05 28.55 25.5 29.8 24.65 29.8 22.4 29.8 21.8 29.4 21.1 L28.9 20.3 Q30.9 21.0 32.35 23.65 L32.7 24.3 32.1 24.75 32.95 24.8 M17.05 49.75 Q18.05 50.15 19.15 51.1 L20.05 50.75 20.25 50.4 20.45 50.15 20.5 49.5 20.2 48.4 19.55 47.65 21.7 47.25 24.6 49.55 25.25 48.8 22.95 47.1 Q24.65 46.9 25.6 47.1 27.25 47.5 27.25 49.5 L27.0 51.6 26.25 53.95 Q25.55 53.45 23.8 52.95 L21.95 52.55 19.75 52.85 17.6 53.45 16.95 52.25 16.75 51.15 Q16.75 50.55 16.9 50.1 L17.05 49.75 M26.4 30.9 Q26.4 29.85 25.8 29.1 25.15 28.35 24.25 28.35 23.35 28.35 22.75 29.1 22.1 29.85 22.1 30.9 22.1 31.95 22.75 32.7 23.35 33.45 24.25 33.45 25.15 33.45 25.8 32.7 26.4 31.95 26.4 30.9 M47.5 69.35 Q44.4 68.8 43.1 66.7 42.1 65.0 42.3 62.7 44.3 63.75 45.1 63.75 48.35 63.75 49.4 61.9 49.85 61.15 50.1 59.55 L51.55 61.05 Q52.25 61.55 52.75 61.05 L50.15 58.9 50.3 56.65 Q52.05 57.2 53.6 58.05 53.9 60.1 52.0 63.8 50.0 67.7 47.5 69.35" fill="#ce0000" fill-rule="evenodd" stroke="none"/>
    <path d="M49.75 26.25 Q50.8 28.35 50.8 30.6 50.2 32.6 49.0 34.0 48.4 33.65 47.6 33.65 46.7 33.65 46.05 34.1 L44.9 33.35 Q44.25 32.6 44.25 30.65 44.25 28.95 45.95 27.55 47.7 26.1 49.75 26.25 M33.6 27.55 Q34.25 31.0 33.2 33.4 32.05 35.9 29.0 37.6 26.7 35.05 26.7 33.25 26.7 32.65 28.15 31.1 30.2 28.85 33.6 27.55 M23.8 38.9 L18.1 38.5 19.85 36.85 Q21.15 35.7 21.4 35.7 23.55 35.7 23.8 38.9 M17.6 53.45 L19.75 52.85 21.95 52.55 23.8 52.95 Q25.55 53.45 26.25 53.95 L24.65 55.25 Q23.65 55.85 22.25 55.85 20.25 55.85 18.9 54.9 L17.6 53.45 M26.4 30.9 Q26.4 31.95 25.8 32.7 25.15 33.45 24.25 33.45 23.35 33.45 22.75 32.7 22.1 31.95 22.1 30.9 22.1 29.85 22.75 29.1 23.35 28.35 24.25 28.35 25.15 28.35 25.8 29.1 26.4 29.85 26.4 30.9 M42.3 62.7 Q42.85 59.55 44.75 57.9 46.4 56.5 48.75 56.5 L50.3 56.65 50.15 58.9 48.4 57.4 50.1 59.55 Q49.85 61.15 49.4 61.9 48.35 63.75 45.1 63.75 44.3 63.75 42.3 62.7" fill="#ff5353" fill-rule="evenodd" stroke="none"/>
    <path d="M53.0 15.8 L53.65 15.65 53.25 16.1 53.0 15.8 M49.0 34.0 L49.15 34.1 49.45 34.3 49.8 35.1 49.6 35.7 49.15 35.8 47.5 35.9 47.4 35.9 47.15 35.9 46.5 35.85 45.55 35.65 45.4 35.1 Q45.4 34.5 46.05 34.1 46.7 33.65 47.6 33.65 48.4 33.65 49.0 34.0 M23.9 15.15 L24.8 15.75 24.95 15.85 24.95 17.7 24.4 17.5 23.35 17.1 19.15 15.55 18.85 15.45 19.35 15.15 19.45 15.15 21.85 15.15 23.9 15.15 M33.75 23.45 L34.1 24.2 32.95 24.8 32.1 24.75 32.7 24.3 33.75 23.45 M15.65 30.5 L16.55 30.35 Q17.5 30.35 18.15 30.9 18.8 31.4 18.8 32.1 18.8 32.8 18.15 33.35 17.5 33.85 16.55 33.85 15.6 33.85 14.95 33.35 L14.85 33.25 Q14.3 32.75 14.3 32.1 14.3 31.4 14.95 30.9 15.25 30.6 15.65 30.5 M22.95 47.1 L25.25 48.8 24.6 49.55 21.7 47.25 20.25 45.9 21.1 45.75 22.95 47.1 M20.95 80.15 L19.55 78.9 18.4 77.4 18.2 76.35 19.6 77.8 21.1 79.6 21.1 79.65 20.95 80.15 M54.05 70.85 L55.25 69.95 55.4 69.35 53.55 70.7 53.2 70.55 Q52.65 70.2 52.65 69.75 52.65 69.4 52.95 69.15 L53.2 69.0 53.5 68.8 53.7 68.75 54.45 68.65 Q55.2 68.65 55.75 69.0 56.25 69.3 56.25 69.75 56.25 70.2 55.75 70.55 L54.45 70.85 54.05 70.85 M40.25 80.2 Q40.3 79.6 41.15 79.15 L41.5 79.0 43.3 78.7 Q44.55 78.7 45.45 79.15 46.35 79.6 46.35 80.25 46.35 80.9 45.45 81.35 44.55 81.8 43.3 81.8 L43.2 81.8 41.15 81.35 Q40.25 80.9 40.25 80.25 L40.25 80.2 M50.15 58.9 L52.75 61.05 Q52.25 61.55 51.55 61.05 L50.1 59.55 48.4 57.4 50.15 58.9" fill="#ee8300" fill-rule="evenodd" stroke="none"/>
  </g>
</svg>
