<?xml version="1.0" encoding="UTF-8" standalone="no"?>
<svg xmlns:ffdec="https://www.free-decompiler.com/flash" xmlns:xlink="http://www.w3.org/1999/xlink" ffdec:objectType="shape" height="90.3px" width="67.7px" xmlns="http://www.w3.org/2000/svg">
  <g transform="matrix(1.0, 0.0, 0.0, 1.0, -1.25, -1.45)">
    <path d="M59.75 34.55 L62.3 34.8 63.4 29.3 Q63.4 20.6 53.65 12.7 46.5 6.9 41.65 5.8 L42.2 6.95 43.15 9.4 Q44.65 13.65 42.25 19.15 L38.6 25.5 36.9 27.65 34.95 29.55 Q32.1 32.2 27.95 36.55 L25.55 39.6 24.8 40.6 20.95 45.6 19.95 44.85 Q19.65 45.2 20.25 45.9 L20.5 46.15 19.4 47.5 17.55 49.8 12.6 57.2 11.35 59.75 10.55 62.2 10.05 64.0 Q10.05 66.3 13.05 69.5 16.0 72.75 16.0 74.35 L15.55 75.5 Q15.05 76.1 15.05 76.6 15.05 77.75 16.5 79.8 18.25 82.4 20.6 83.3 20.85 83.3 21.1 81.8 L21.3 80.45 21.45 80.55 21.35 80.05 21.55 71.25 21.7 68.05 22.45 67.7 23.2 67.15 Q22.6 80.85 22.65 86.05 22.7 87.25 22.2 89.9 18.45 90.55 14.3 83.65 10.15 76.7 10.2 75.35 L10.4 73.1 10.55 71.55 Q10.5 70.9 9.0 70.0 7.45 69.1 7.55 68.5 L7.95 66.5 8.45 64.55 Q8.6 63.5 9.35 61.55 L10.0 59.2 Q10.0 58.2 10.3 57.45 10.65 56.45 11.3 56.45 11.7 56.45 14.5 52.2 L18.3 46.55 21.6 41.8 Q23.0 39.7 23.65 39.7 L29.45 33.2 Q34.95 26.65 35.85 26.65 36.35 26.65 36.65 25.65 36.9 24.6 37.4 24.6 L39.3 20.9 41.15 17.15 Q41.65 17.15 41.45 16.1 41.2 15.05 41.7 15.05 42.3 15.05 42.25 14.05 L42.0 12.25 41.7 9.8 41.0 7.25 Q40.6 5.85 39.95 5.85 39.45 5.85 39.3 4.8 39.1 3.75 38.6 3.75 37.8 2.7 35.05 1.5 L36.1 1.45 Q37.55 1.7 41.6 3.6 43.8 2.3 45.1 2.85 48.15 2.75 52.05 5.0 55.95 7.2 60.35 12.4 64.7 17.6 66.45 23.7 68.15 29.8 67.25 31.45 66.3 33.05 66.35 33.4 66.45 34.45 67.8 37.35 L66.7 37.1 65.8 36.95 63.0 36.35 59.9 35.9 Q49.05 35.9 42.25 38.5 32.65 42.2 26.25 52.15 24.1 55.5 23.45 60.35 23.3 61.55 23.25 65.7 L22.45 65.1 21.8 64.8 21.85 63.35 Q21.9 62.35 22.9 57.8 L24.15 52.8 28.15 47.4 31.1 44.6 Q32.2 43.5 34.55 42.05 L34.95 42.05 35.8 41.95 37.25 41.0 37.5 40.4 Q39.05 39.55 41.0 38.65 43.95 37.25 46.5 36.35 L47.6 36.55 49.15 36.15 49.8 35.4 53.9 34.75 54.55 35.2 56.75 35.65 58.95 35.2 59.75 34.55 M47.85 48.6 L45.8 47.0 44.45 46.4 Q43.65 46.4 42.85 46.9 41.35 47.75 40.8 49.95 L40.95 52.45 41.9 53.95 Q42.4 54.75 43.55 54.75 46.0 54.75 47.05 53.8 47.85 53.15 48.15 51.65 L47.85 48.6 M39.1 51.55 L39.0 50.55 Q39.0 48.25 40.6 46.65 42.2 45.05 44.45 45.05 46.7 45.05 48.3 46.65 49.9 48.25 49.9 50.55 49.9 52.85 48.3 54.45 46.7 56.05 44.45 56.05 42.2 56.05 40.6 54.45 L39.9 53.6 40.1 52.85 Q40.1 52.25 39.55 51.8 39.35 51.6 39.1 51.55 M58.5 48.4 L53.35 52.8 51.4 57.75 Q51.0 58.8 50.9 59.5 L49.55 58.35 Q49.85 56.9 50.6 55.0 51.8 52.05 52.1 52.05 L53.8 50.1 Q55.5 48.2 56.9 47.5 L58.2 48.05 Q59.4 48.4 59.6 47.65 L58.45 47.0 59.35 46.75 61.6 46.4 68.9 47.1 68.95 49.9 Q68.9 51.2 67.85 52.8 66.75 54.35 67.1 55.7 L67.65 58.6 Q67.85 60.05 65.4 61.9 62.95 63.75 63.55 66.25 64.15 68.7 62.1 70.5 60.0 72.25 58.75 74.65 L54.85 70.85 55.75 70.55 56.25 70.0 56.9 70.75 Q58.5 69.4 59.05 67.9 59.05 65.6 60.6 63.35 62.25 60.9 62.9 58.2 L64.05 56.55 63.8 55.65 62.85 56.8 62.15 53.45 63.5 48.05 58.5 48.4 M51.6 64.6 L54.05 67.55 55.1 68.75 54.45 68.65 Q53.7 68.65 53.2 69.0 L53.1 69.05 51.85 67.6 Q49.3 64.5 49.3 60.15 L49.5 58.4 49.45 58.75 50.8 60.35 51.1 62.45 51.6 64.6 M36.35 10.5 Q35.2 11.25 33.45 11.25 L29.2 10.7 Q28.3 10.5 27.6 9.7 L27.05 8.95 Q26.45 8.95 26.45 8.1 L26.6 6.5 26.65 5.45 27.75 5.65 Q29.4 4.5 30.15 2.95 30.85 1.35 33.5 1.55 36.15 1.7 37.25 4.3 37.9 5.85 37.9 7.35 37.9 9.5 36.35 10.5 M35.9 5.0 Q34.25 5.0 28.4 8.25 29.6 9.3 33.8 9.75 35.4 9.75 36.0 9.05 37.0 7.95 35.9 5.0 M28.8 13.3 Q27.1 12.5 26.1 12.5 24.15 12.5 23.25 14.35 L22.95 15.15 21.25 15.15 Q21.7 13.95 22.7 12.95 24.5 11.1 27.05 11.1 29.6 11.1 31.45 12.95 33.25 14.75 33.25 17.3 33.25 19.85 31.45 21.7 29.6 23.5 27.05 23.5 24.5 23.5 22.7 21.7 20.85 19.85 20.85 17.3 L21.05 15.75 20.95 16.25 22.7 16.85 22.75 18.25 Q22.6 20.7 24.0 21.75 24.85 22.4 26.15 22.4 L27.35 22.0 29.3 21.1 30.3 18.35 31.05 15.45 28.8 13.3 M10.05 37.0 Q10.05 34.4 9.3 29.45 L9.2 30.55 Q8.7 33.3 6.8 37.45 5.3 40.9 5.3 43.45 5.3 43.8 6.95 46.0 9.1 42.85 9.8 39.95 L10.05 37.0 M7.55 25.1 L7.95 24.3 Q11.55 26.65 11.55 36.6 L11.6 39.75 Q11.5 42.1 10.85 42.1 10.4 42.1 8.4 46.05 5.9 51.0 3.1 54.0 L2.3 54.6 Q2.85 50.2 3.15 50.1 3.4 49.95 2.45 47.45 L1.25 44.05 Q1.05 43.15 2.75 40.6 L4.55 37.6 Q4.65 37.1 4.15 35.15 L3.6 33.15 Q3.6 32.15 5.15 29.45 L7.55 25.1 M45.2 78.45 Q44.45 75.4 41.75 74.05 40.05 73.2 38.25 73.2 37.5 73.2 34.8 74.35 31.0 75.95 26.05 78.9 L24.75 81.9 Q24.75 84.2 26.8 86.2 28.45 87.75 29.0 87.75 L30.3 86.85 31.6 85.95 30.35 88.85 Q31.15 89.05 31.85 87.65 L32.4 86.05 34.6 87.75 Q36.4 89.6 39.1 89.6 42.9 89.6 44.7 85.55 45.7 83.35 45.7 81.25 46.35 80.8 46.35 80.25 46.35 79.6 45.45 79.15 L45.4 79.15 45.2 78.45 M28.95 74.65 Q34.05 71.7 38.45 71.7 41.55 71.7 43.8 73.5 47.05 76.1 47.05 81.8 47.05 86.85 43.65 89.5 40.8 91.75 36.4 91.75 32.65 91.75 28.2 88.9 23.25 85.7 23.25 81.9 23.25 77.95 28.95 74.65" fill="#510000" fill-rule="evenodd" stroke="none"/>
    <path d="M43.15 9.4 L42.2 6.95 41.65 5.8 Q46.5 6.9 53.65 12.7 63.4 20.6 63.4 29.3 L62.3 34.8 59.75 34.55 59.85 34.15 Q59.85 33.7 59.35 33.35 L59.8 31.25 Q59.8 24.6 56.4 20.65 55.55 19.65 52.2 16.85 L53.65 15.65 51.4 16.15 43.15 9.4 M21.55 71.25 L21.35 80.05 21.15 79.75 Q20.4 78.5 18.2 76.35 L18.4 77.4 Q19.05 78.7 21.3 80.45 L21.1 81.8 Q20.85 83.3 20.6 83.3 18.25 82.4 16.5 79.8 15.05 77.75 15.05 76.6 15.05 76.1 15.55 75.5 L16.0 74.35 Q16.0 72.75 13.05 69.5 10.05 66.3 10.05 64.0 L10.55 62.2 11.35 59.75 16.8 65.9 16.65 66.4 Q16.65 67.15 17.65 67.7 L18.75 68.15 21.55 71.25 M54.05 67.55 L57.8 58.7 58.85 55.65 58.4 53.2 57.9 50.75 58.15 49.4 58.5 48.4 63.5 48.05 62.15 53.45 62.85 56.8 59.95 60.3 61.0 60.85 62.9 58.2 Q62.25 60.9 60.6 63.35 59.05 65.6 59.05 67.9 58.5 69.4 56.9 70.75 L56.25 70.0 56.25 69.75 Q56.25 69.3 55.75 69.0 L55.1 68.75 54.05 67.55 M35.9 5.0 Q37.0 7.95 36.0 9.05 35.4 9.75 33.8 9.75 29.6 9.3 28.4 8.25 34.25 5.0 35.9 5.0 M28.8 13.3 Q27.15 14.0 25.8 14.8 L24.95 15.35 24.95 15.15 22.95 15.15 23.25 14.35 Q24.15 12.5 26.1 12.5 27.1 12.5 28.8 13.3 M23.25 17.1 L22.75 18.25 22.7 16.85 23.25 17.1 M10.05 37.0 L9.8 39.95 Q9.1 42.85 6.95 46.0 5.3 43.8 5.3 43.45 5.3 40.9 6.8 37.45 8.7 33.3 9.2 30.55 L9.3 29.45 Q10.05 34.4 10.05 37.0 M26.05 78.9 Q28.45 79.15 30.65 78.3 L33.35 77.4 34.5 78.3 Q35.45 79.15 36.05 79.15 36.65 79.15 38.45 77.9 L40.7 76.4 45.2 78.45 45.4 79.15 43.3 78.7 Q42.05 78.7 41.15 79.15 40.45 79.5 40.3 80.0 L39.4 79.9 Q37.7 79.9 36.5 80.75 35.3 81.55 35.3 82.75 35.3 83.95 36.5 84.8 37.7 85.6 39.4 85.6 41.1 85.6 42.3 84.8 43.5 83.95 43.5 82.75 L43.3 81.8 Q44.55 81.8 45.45 81.35 L45.7 81.25 Q45.7 83.35 44.7 85.55 42.9 89.6 39.1 89.6 36.4 89.6 34.6 87.75 L32.4 86.05 32.65 83.5 31.6 85.95 30.3 86.85 29.0 87.75 Q28.45 87.75 26.8 86.2 24.75 84.2 24.75 81.9 L26.05 78.9 M28.75 83.55 Q29.45 83.55 29.95 83.05 30.45 82.5 30.45 81.8 30.45 81.1 29.95 80.6 29.45 80.05 28.75 80.05 28.05 80.05 27.55 80.6 27.05 81.1 27.05 81.8 27.05 82.5 27.55 83.05 28.05 83.55 28.75 83.55" fill="#6a0000" fill-rule="evenodd" stroke="none"/>
    <path d="M31.1 44.6 L28.15 47.4 Q26.95 46.65 26.05 45.3 24.65 43.2 24.8 40.6 L25.55 39.6 28.7 43.05 Q30.15 44.6 31.1 44.6 M21.7 68.05 L21.55 71.25 18.75 68.15 20.05 68.25 21.7 68.05 M11.35 59.75 L12.6 57.2 Q12.6 60.95 15.3 63.6 16.3 64.6 17.5 65.2 16.95 65.5 16.8 65.9 L11.35 59.75 M17.55 49.8 L19.4 47.5 20.45 49.25 20.5 49.8 19.15 51.1 17.55 49.8 M38.6 25.5 L42.25 19.15 Q44.65 13.65 43.15 9.4 L51.4 16.15 50.0 16.4 Q50.0 17.2 51.1 17.15 L52.2 16.85 Q55.55 19.65 56.4 20.65 59.8 24.6 59.8 31.25 L59.35 33.35 58.95 33.1 Q58.05 32.65 56.75 32.65 L56.3 32.7 56.6 30.0 Q56.6 27.8 55.25 24.7 53.05 19.6 48.35 17.5 42.3 24.6 38.6 25.5 M40.8 49.95 Q41.35 47.75 42.85 46.9 43.65 46.4 44.45 46.4 L45.8 47.0 47.85 48.6 46.2 49.65 40.8 49.95 M58.5 48.4 L58.15 49.4 57.9 50.75 58.4 53.2 58.85 55.65 57.8 58.7 54.05 67.55 51.6 64.6 Q52.15 63.55 52.9 60.75 53.65 57.75 53.65 56.3 L53.35 52.8 58.5 48.4 M24.95 15.35 L25.8 14.8 Q27.15 14.0 28.8 13.3 L31.05 15.45 28.5 18.0 28.25 18.55 29.3 21.1 27.35 22.0 26.15 22.4 Q24.85 22.4 24.0 21.75 22.6 20.7 22.75 18.25 L23.25 17.1 24.95 17.7 24.95 15.35 M45.2 78.45 L40.7 76.4 38.45 77.9 Q36.65 79.15 36.05 79.15 35.45 79.15 34.5 78.3 L33.35 77.4 30.65 78.3 Q28.45 79.15 26.05 78.9 31.0 75.95 34.8 74.35 37.5 73.2 38.25 73.2 40.05 73.2 41.75 74.05 44.45 75.4 45.2 78.45 M43.3 81.8 L43.5 82.75 Q43.5 83.95 42.3 84.8 41.1 85.6 39.4 85.6 37.7 85.6 36.5 84.8 35.3 83.95 35.3 82.75 35.3 81.55 36.5 80.75 37.7 79.9 39.4 79.9 L40.3 80.0 40.25 80.25 Q40.25 80.9 41.15 81.35 L43.3 81.8 M28.75 83.55 Q28.05 83.55 27.55 83.05 27.05 82.5 27.05 81.8 27.05 81.1 27.55 80.6 28.05 80.05 28.75 80.05 29.45 80.05 29.95 80.6 30.45 81.1 30.45 81.8 30.45 82.5 29.95 83.05 29.45 83.55 28.75 83.55" fill="#8c0000" fill-rule="evenodd" stroke="none"/>
    <path d="M53.9 34.75 L49.8 35.4 49.8 35.1 Q49.8 34.6 49.35 34.25 L49.6 34.0 Q51.05 32.5 51.05 30.45 51.05 28.4 49.6 26.95 48.1 25.45 46.05 25.45 44.0 25.45 42.55 26.95 41.05 28.4 41.05 30.45 41.05 32.5 42.55 34.0 43.8 35.25 45.45 35.45 45.6 35.8 46.05 36.15 L46.5 36.35 Q43.95 37.25 41.0 38.65 39.05 39.55 37.5 40.4 L37.5 40.15 Q37.5 39.35 36.75 38.8 36.15 38.35 35.3 38.3 36.4 37.7 37.2 36.55 38.55 34.6 38.55 31.8 38.55 30.2 38.0 29.1 L36.9 27.65 38.6 25.5 Q42.3 24.6 48.35 17.5 53.05 19.6 55.25 24.7 56.6 27.8 56.6 30.0 L56.3 32.7 54.55 33.1 Q53.65 33.55 53.65 34.15 L53.9 34.75 M34.55 42.05 Q32.2 43.5 31.1 44.6 30.15 44.6 28.7 43.05 L25.55 39.6 27.95 36.55 Q28.95 37.25 32.75 38.85 L33.1 38.85 Q32.4 39.4 32.4 40.15 32.4 40.95 33.15 41.5 33.75 41.95 34.55 42.05 M28.15 47.4 L24.15 52.8 Q21.4 52.4 18.4 53.6 15.4 54.75 14.65 56.9 13.9 59.05 15.8 60.9 17.7 62.75 21.85 63.35 L21.8 64.8 20.05 64.55 Q18.65 64.55 17.65 65.1 L17.5 65.2 Q16.3 64.6 15.3 63.6 12.6 60.95 12.6 57.2 L17.55 49.8 19.15 51.1 20.5 49.8 20.45 49.25 19.4 47.5 20.5 46.15 24.6 49.55 25.25 48.8 20.95 45.6 24.8 40.6 Q24.65 43.2 26.05 45.3 26.95 46.65 28.15 47.4 M47.85 48.6 L48.15 51.65 46.7 51.05 45.55 50.9 Q45.1 50.9 40.95 52.45 L40.8 49.95 46.2 49.65 47.85 48.6 M53.35 52.8 L53.65 56.3 Q53.65 57.75 52.9 60.75 52.15 63.55 51.6 64.6 L51.1 62.45 50.8 60.35 51.55 61.05 Q52.25 61.55 52.75 61.05 L50.9 59.5 Q51.0 58.8 51.4 57.75 L53.35 52.8 M29.3 21.1 L28.25 18.55 28.5 18.0 31.05 15.45 30.3 18.35 29.3 21.1" fill="#ce0000" fill-rule="evenodd" stroke="none"/>
    <path d="M24.15 52.8 L22.9 57.8 Q21.9 62.35 21.85 63.35 17.7 62.75 15.8 60.9 13.9 59.05 14.65 56.9 15.4 54.75 18.4 53.6 21.4 52.4 24.15 52.8 M27.95 36.55 Q32.1 32.2 34.95 29.55 L36.9 27.65 38.0 29.1 Q38.55 30.2 38.55 31.8 38.55 34.6 37.2 36.55 36.4 37.7 35.3 38.3 L34.95 38.25 Q33.9 38.25 33.15 38.8 L33.1 38.85 32.75 38.85 Q28.95 37.25 27.95 36.55 M45.45 35.45 Q43.8 35.25 42.55 34.0 41.05 32.5 41.05 30.45 41.05 28.4 42.55 26.95 44.0 25.45 46.05 25.45 48.1 25.45 49.6 26.95 51.05 28.4 51.05 30.45 51.05 32.5 49.6 34.0 L49.35 34.25 49.15 34.1 Q48.5 33.65 47.6 33.65 46.7 33.65 46.05 34.1 45.4 34.5 45.4 35.1 L45.45 35.45 M48.15 51.65 Q47.85 53.15 47.05 53.8 46.0 54.75 43.55 54.75 42.4 54.75 41.9 53.95 L40.95 52.45 Q45.1 50.9 45.55 50.9 L46.7 51.05 48.15 51.65" fill="#ff5353" fill-rule="evenodd" stroke="none"/>
    <path d="M59.75 34.55 L58.95 35.2 56.75 35.65 54.55 35.2 53.9 34.75 53.65 34.15 Q53.65 33.55 54.55 33.1 L56.3 32.7 56.75 32.65 Q58.05 32.65 58.95 33.1 L59.35 33.35 Q59.85 33.7 59.85 34.15 L59.75 34.55 M49.8 35.4 L49.15 36.15 47.6 36.55 46.5 36.35 46.05 36.15 Q45.6 35.8 45.45 35.45 L45.4 35.1 Q45.4 34.5 46.05 34.1 46.7 33.65 47.6 33.65 48.5 33.65 49.15 34.1 L49.35 34.25 Q49.8 34.6 49.8 35.1 L49.8 35.4 M37.5 40.4 L37.25 41.0 35.8 41.95 34.95 42.05 34.55 42.05 Q33.75 41.95 33.15 41.5 32.4 40.95 32.4 40.15 32.4 39.4 33.1 38.85 L33.15 38.8 Q33.9 38.25 34.95 38.25 L35.3 38.3 Q36.15 38.35 36.75 38.8 37.5 39.35 37.5 40.15 L37.5 40.4 M21.8 64.8 L22.45 65.1 23.25 65.7 23.25 65.75 23.2 66.3 23.2 67.15 22.45 67.7 21.7 68.05 20.05 68.25 18.75 68.15 17.65 67.7 Q16.65 67.15 16.65 66.4 L16.8 65.9 Q16.95 65.5 17.5 65.2 L17.65 65.1 Q18.65 64.55 20.05 64.55 L21.8 64.8 M21.35 80.05 L21.45 80.55 21.3 80.45 Q19.05 78.7 18.4 77.4 L18.2 76.35 Q20.4 78.5 21.15 79.75 L21.35 80.05 M20.5 46.15 L20.25 45.9 Q19.65 45.2 19.95 44.85 L20.95 45.6 25.25 48.8 24.6 49.55 20.5 46.15 M51.4 16.15 L53.65 15.65 52.2 16.85 51.1 17.15 Q50.0 17.2 50.0 16.4 L51.4 16.15 M39.1 51.55 Q39.35 51.6 39.55 51.8 40.1 52.25 40.1 52.85 L39.9 53.6 Q39.25 52.65 39.1 51.55 M55.1 68.75 L55.75 69.0 Q56.25 69.3 56.25 69.75 L56.25 70.0 55.75 70.55 54.85 70.85 53.1 69.05 53.2 69.0 Q53.7 68.65 54.45 68.65 L55.1 68.75 M62.9 58.2 L61.0 60.85 59.95 60.3 62.85 56.8 63.8 55.65 64.05 56.55 62.9 58.2 M49.5 58.4 L49.55 58.35 50.9 59.5 52.75 61.05 Q52.25 61.55 51.55 61.05 L50.8 60.35 49.45 58.75 49.5 58.4 M56.9 47.5 L57.05 47.45 57.2 47.35 58.45 47.0 59.6 47.65 Q59.4 48.4 58.2 48.05 L56.9 47.5 M22.95 15.15 L24.95 15.15 24.95 15.35 24.95 17.7 23.25 17.1 22.7 16.85 20.95 16.25 21.05 15.75 21.2 15.25 21.25 15.15 22.95 15.15 M31.6 85.95 L32.65 83.5 32.4 86.05 31.85 87.65 Q31.15 89.05 30.35 88.85 L31.6 85.95 M45.7 81.25 L45.45 81.35 Q44.55 81.8 43.3 81.8 L41.15 81.35 Q40.25 80.9 40.25 80.25 L40.3 80.0 Q40.45 79.5 41.15 79.15 42.05 78.7 43.3 78.7 L45.4 79.15 45.45 79.15 Q46.35 79.6 46.35 80.25 46.35 80.8 45.7 81.25" fill="#ee8300" fill-rule="evenodd" stroke="none"/>
  </g>
</svg>
