<?xml version="1.0" encoding="UTF-8" standalone="no"?>
<svg xmlns:ffdec="https://www.free-decompiler.com/flash" xmlns:xlink="http://www.w3.org/1999/xlink" ffdec:objectType="shape" height="89.6px" width="65.5px" xmlns="http://www.w3.org/2000/svg">
  <g transform="matrix(1.0, 0.0, 0.0, 1.0, -1.5, -3.6)">
    <path d="M49.7 9.3 L51.75 11.8 51.2 10.65 49.75 8.65 49.75 8.15 49.5 7.4 49.0 7.3 48.3 9.75 Q47.75 8.4 47.75 7.2 L47.9 3.6 Q54.8 5.85 60.45 12.5 66.1 19.1 67.0 28.9 L66.85 28.9 Q64.6 29.5 62.25 28.2 L61.8 26.35 62.1 26.5 60.0 19.8 Q58.6 15.95 55.3 14.75 L55.3 14.7 Q54.05 9.45 52.35 8.8 L53.3 13.5 53.95 17.0 51.15 13.8 49.4 11.65 49.7 9.3 M56.05 21.45 L56.15 19.9 55.75 16.8 57.05 19.9 Q58.4 23.2 60.5 25.4 L60.3 26.85 59.35 25.95 Q57.05 23.65 56.05 21.45 M53.85 27.25 Q54.5 28.6 54.4 30.35 53.9 35.9 47.4 35.9 44.15 35.9 43.15 33.3 L44.7 33.0 44.9 33.35 Q45.85 34.55 48.7 34.3 50.35 34.45 51.7 33.45 53.0 32.45 53.25 30.8 53.4 29.55 52.85 28.45 L53.85 27.25 M42.8 31.3 L42.75 30.65 Q42.75 27.7 45.4 26.05 47.45 24.75 49.85 24.75 51.5 24.75 52.65 25.75 L51.65 27.0 Q50.85 26.4 49.75 26.25 47.7 26.1 45.95 27.55 44.25 28.95 44.25 30.65 L44.25 31.05 42.8 31.3 M7.05 49.75 Q5.4 50.6 3.4 50.85 L3.3 50.85 3.6 50.1 Q1.4 47.3 1.55 44.35 1.15 42.85 2.9 40.75 4.65 38.6 4.65 37.4 L3.75 35.05 Q2.85 33.0 3.95 31.6 L7.0 26.0 Q8.95 21.8 10.75 20.2 12.55 18.6 13.25 17.15 13.95 15.65 13.8 14.35 13.6 13.05 16.2 11.45 L21.05 8.25 20.8 9.15 20.6 10.6 Q20.6 11.55 21.1 12.45 L18.35 12.1 17.15 12.5 Q16.15 12.95 15.5 13.65 L15.6 14.65 19.05 14.4 19.95 14.5 16.1 19.6 Q11.75 19.7 11.1 20.9 L12.3 21.95 14.75 21.4 Q10.65 26.95 9.9 28.25 9.15 29.45 9.15 31.95 L5.3 43.45 6.3 44.85 7.45 46.65 Q5.85 47.95 4.85 49.25 L4.75 49.7 5.35 49.85 7.05 49.75 M25.3 16.05 L27.95 17.6 Q35.25 22.3 35.25 29.55 L35.25 30.45 33.85 29.85 33.6 27.55 Q33.6 25.85 32.35 23.65 30.9 21.0 28.9 20.3 L27.05 19.3 25.7 16.3 25.3 16.05 M35.1 31.7 Q34.3 35.9 30.5 38.35 26.55 40.95 20.5 40.55 L21.9 38.8 23.8 38.9 26.4 38.3 29.0 37.6 Q32.05 35.9 33.2 33.4 L33.6 32.35 34.8 32.9 35.1 31.7 M17.2 40.15 L15.45 39.8 13.15 42.8 10.25 44.6 10.65 44.0 Q12.55 40.0 13.15 39.35 13.85 39.1 14.55 38.45 L15.35 38.4 18.1 38.5 19.05 38.6 17.2 40.15 M19.55 47.65 L19.05 48.05 Q16.95 49.15 15.25 51.0 15.35 47.6 19.05 46.25 21.25 45.45 24.55 45.45 26.75 45.45 27.9 46.6 L25.6 46.5 Q22.65 46.5 20.2 47.55 L19.55 47.65 M16.05 54.15 L16.75 53.2 17.2 52.75 17.6 53.45 18.9 54.9 Q20.25 55.85 22.25 55.85 23.65 55.85 24.65 55.25 L26.25 53.95 27.0 51.6 27.25 49.5 27.25 49.35 28.8 49.6 Q28.6 52.95 27.5 54.85 26.0 57.35 22.7 57.35 20.3 57.35 18.15 55.85 L16.4 54.35 16.05 54.15 M14.15 68.4 Q16.65 69.55 18.05 70.8 21.1 73.55 21.1 79.2 L20.45 81.55 Q19.8 83.1 19.45 83.1 L16.3 85.7 Q13.4 82.6 11.55 78.35 10.2 75.4 10.2 74.55 L10.4 72.9 Q10.6 71.9 10.4 71.65 L7.95 69.4 Q5.65 67.45 6.1 65.8 L11.3 67.3 11.75 70.7 Q13.1 77.1 15.2 77.8 L16.1 79.95 Q17.1 81.55 18.3 82.1 19.6 79.5 19.6 78.25 19.6 75.4 18.15 73.0 16.95 71.05 15.1 70.1 L15.05 70.05 14.45 68.55 14.15 68.4 M46.75 89.35 Q46.3 89.85 45.85 91.05 45.1 93.2 41.55 93.2 L36.4 93.1 Q35.75 91.05 35.75 89.15 L35.6 86.75 Q35.6 85.05 36.2 85.05 36.55 85.05 36.7 84.3 L37.3 82.2 Q38.7 78.5 44.05 75.2 47.45 73.55 49.8 72.65 L49.65 74.4 43.05 77.55 40.35 80.05 Q39.85 80.7 39.05 82.2 38.1 84.0 37.65 85.35 L37.25 89.6 40.05 89.6 Q41.7 89.75 44.9 86.55 45.95 85.55 47.25 84.85 46.75 87.3 46.75 88.8 L46.75 89.35 M51.95 71.85 L52.25 71.75 Q53.35 71.4 55.25 69.95 L55.4 69.35 Q54.3 70.85 51.85 71.1 L51.6 69.6 53.45 68.95 Q55.3 67.35 56.0 65.65 56.75 63.95 56.5 61.75 55.35 58.95 53.6 58.05 52.05 57.2 50.3 56.65 L48.75 56.5 Q46.4 56.5 44.75 57.9 43.8 58.7 43.25 59.9 L41.45 59.5 42.45 57.7 Q44.45 54.95 47.9 54.95 49.65 54.95 51.75 55.9 53.8 56.8 54.4 56.8 54.9 56.8 54.9 57.15 54.85 57.5 55.35 57.5 56.65 57.5 57.45 59.6 L58.05 61.65 Q58.1 63.45 58.45 64.95 L57.9 65.5 Q57.55 69.4 55.95 71.25 54.65 72.8 52.1 73.45 L51.95 71.85 M49.7 71.15 Q44.35 70.85 42.15 67.95 40.75 66.1 40.75 63.25 40.75 62.35 40.9 61.55 L42.5 61.9 42.3 62.7 Q42.1 65.0 43.1 66.7 44.4 68.8 47.5 69.35 L49.4 69.55 49.7 71.15 M59.95 61.95 L61.35 61.4 Q63.15 60.8 64.7 60.55 L66.55 60.4 64.55 62.4 Q63.45 63.3 63.35 63.95 L63.35 66.0 63.4 68.8 Q63.3 70.05 60.85 72.25 58.35 74.45 59.2 77.15 60.0 79.9 57.6 81.25 55.15 82.55 54.0 83.95 52.8 85.35 52.25 87.55 51.7 89.7 50.7 89.7 L49.25 89.6 Q50.25 87.85 51.1 83.3 L51.45 83.05 52.25 80.4 Q53.25 77.15 55.0 73.8 56.55 70.8 58.0 69.25 L59.1 68.25 58.9 66.5 Q59.45 67.85 60.3 68.65 61.1 69.45 61.85 69.25 62.55 69.1 62.55 68.2 L61.25 66.8 Q60.1 65.15 59.95 61.95" fill="#772400" fill-rule="evenodd" stroke="none"/>
    <path d="M49.75 8.65 L51.2 10.65 51.75 11.8 49.7 9.3 49.75 8.65 M55.3 14.75 Q58.6 15.95 60.0 19.8 L62.1 26.5 61.8 26.35 61.1 23.95 60.5 25.4 Q58.4 23.2 57.05 19.9 L55.75 16.8 55.3 14.75 M7.45 46.65 L6.3 44.85 5.3 43.45 9.15 31.95 Q9.15 29.45 9.9 28.25 10.65 26.95 14.75 21.4 L16.5 21.35 Q18.0 21.35 19.35 22.9 17.1 25.15 16.35 26.9 L15.5 31.35 Q15.0 34.05 12.2 36.7 L10.25 38.05 Q9.4 38.85 9.4 41.45 9.4 41.9 10.65 44.0 L10.25 44.6 9.95 44.75 7.45 46.65 M16.1 19.6 L19.95 14.5 Q21.9 14.85 23.35 17.1 22.4 19.45 20.7 21.5 18.9 19.6 16.75 19.6 L16.1 19.6 M15.1 70.1 Q16.95 71.05 18.15 73.0 19.6 75.4 19.6 78.25 19.6 79.5 18.3 82.1 17.1 81.55 16.1 79.95 L15.2 77.8 15.75 77.9 16.45 77.85 16.75 77.6 16.8 76.65 Q16.8 74.45 15.1 70.1 M47.25 84.85 Q45.95 85.55 44.9 86.55 41.7 89.75 40.05 89.6 L37.25 89.6 37.65 85.35 Q40.35 85.85 42.0 85.0 43.45 84.25 43.45 82.8 43.45 81.0 40.35 80.05 L43.05 77.55 45.05 78.25 46.45 78.6 Q47.5 78.6 48.4 77.6 L49.3 76.55 48.3 80.6 47.25 84.85 M58.9 66.5 L59.1 68.25 58.0 69.25 Q56.55 70.8 55.0 73.8 53.25 77.15 52.25 80.4 L51.45 83.05 51.1 83.3 52.15 76.1 52.1 73.45 Q54.65 72.8 55.95 71.25 57.55 69.4 57.9 65.5 L58.45 64.95 Q58.6 65.8 58.9 66.5 M56.5 61.75 Q56.75 63.95 56.0 65.65 55.3 67.35 53.45 68.95 L56.5 61.75" fill="#972e00" fill-rule="evenodd" stroke="none"/>
    <path d="M23.35 17.1 L23.55 17.4 26.55 24.0 27.5 25.95 26.2 26.05 24.65 25.65 23.1 25.2 23.05 25.2 22.8 24.75 Q21.85 22.7 20.7 21.5 22.4 19.45 23.35 17.1 M27.05 19.3 L28.9 20.3 29.4 21.1 Q29.8 21.8 29.8 22.4 29.8 23.9 29.25 24.8 L27.95 21.75 27.05 19.3 M19.35 22.9 Q20.3 24.0 21.15 26.0 L21.35 26.45 21.0 27.2 Q20.55 28.35 20.0 32.0 19.85 33.05 17.5 35.5 L14.55 38.45 Q13.85 39.1 13.15 39.35 12.55 40.0 10.65 44.0 9.4 41.9 9.4 41.45 9.4 38.85 10.25 38.05 L12.2 36.7 Q15.0 34.05 15.5 31.35 L16.35 26.9 Q17.1 25.15 19.35 22.9 M19.65 47.75 L19.05 48.05 19.55 47.65 19.65 47.75 M19.15 51.1 L20.2 50.45 20.05 50.75 19.15 51.1 M37.65 85.35 Q38.1 84.0 39.05 82.2 39.85 80.7 40.35 80.05 43.45 81.0 43.45 82.8 43.45 84.25 42.0 85.0 40.35 85.85 37.65 85.35 M43.05 77.55 L49.65 74.4 49.3 76.55 48.4 77.6 Q47.5 78.6 46.45 78.6 L45.05 78.25 43.05 77.55 M53.6 58.05 Q55.35 58.95 56.5 61.75 L53.45 68.95 51.6 69.6 50.75 66.85 50.55 66.3 52.0 63.8 Q53.9 60.1 53.6 58.05 M47.5 69.35 L48.95 68.2 49.4 69.55 47.5 69.35" fill="#ba3900" fill-rule="evenodd" stroke="none"/>
    <path d="M51.65 27.0 L50.5 28.15 49.75 26.25 Q50.85 26.4 51.65 27.0 M48.7 34.3 Q50.1 32.85 50.8 30.6 L50.8 30.3 52.45 28.85 52.85 28.45 Q53.4 29.55 53.25 30.8 53.0 32.45 51.7 33.45 50.35 34.45 48.7 34.3 M23.05 25.2 L23.1 25.2 24.65 25.65 26.2 26.05 27.5 25.95 Q28.6 28.0 29.95 29.5 L28.15 31.1 Q26.7 32.65 26.7 33.25 26.7 35.05 29.0 37.6 L26.4 38.3 23.8 38.9 Q23.7 37.5 23.25 36.75 24.4 34.8 24.7 33.4 25.3 33.25 25.8 32.7 26.4 31.95 26.4 30.9 26.4 29.85 25.8 29.1 25.15 28.35 24.25 28.35 L24.2 28.35 23.05 25.2 M28.9 20.3 Q30.9 21.0 32.35 23.65 33.6 25.85 33.6 27.55 32.65 27.9 31.8 28.4 L31.75 28.35 Q30.4 27.1 29.25 24.8 29.8 23.9 29.8 22.4 29.8 21.8 29.4 21.1 L28.9 20.3 M21.35 26.45 L22.4 29.65 Q22.1 30.2 22.1 30.9 22.1 31.75 22.55 32.4 22.25 34.15 21.3 35.75 L19.85 36.85 18.1 38.5 15.35 38.4 14.55 38.45 17.5 35.5 Q19.85 33.05 20.0 32.0 20.55 28.35 21.0 27.2 L21.35 26.45 M19.65 47.75 L19.55 47.65 20.2 47.55 19.65 47.75 M17.2 52.75 Q18.1 51.75 19.15 51.1 L20.05 50.75 20.2 50.45 Q22.55 49.25 25.45 49.25 L27.25 49.35 27.25 49.5 27.0 51.6 26.25 53.95 Q25.55 53.45 23.8 52.95 L21.95 52.55 19.75 52.85 17.6 53.45 17.2 52.75 M50.3 56.65 Q52.05 57.2 53.6 58.05 53.9 60.1 52.0 63.8 L50.55 66.3 Q49.65 64.4 48.4 63.0 L49.4 61.9 Q50.15 60.6 50.3 56.65 M45.9 63.75 Q47.25 64.85 48.15 66.5 L48.95 68.2 47.5 69.35 Q44.4 68.8 43.1 66.7 42.1 65.0 42.3 62.7 44.3 63.75 45.1 63.75 L45.9 63.75" fill="#f94a00" fill-rule="evenodd" stroke="none"/>
    <path d="M50.5 28.15 L49.1 29.1 Q46.8 30.5 44.25 31.05 L44.25 30.65 Q44.25 28.95 45.95 27.55 47.7 26.1 49.75 26.25 L50.5 28.15 M50.8 30.3 L50.8 30.6 Q50.1 32.85 48.7 34.3 45.85 34.55 44.9 33.35 L44.7 33.0 Q48.2 32.2 50.8 30.3 M29.95 29.5 Q31.6 31.35 33.6 32.35 L33.2 33.4 Q32.05 35.9 29.0 37.6 26.7 35.05 26.7 33.25 26.7 32.65 28.15 31.1 L29.95 29.5 M33.6 27.55 L33.85 29.85 31.8 28.4 Q32.65 27.9 33.6 27.55 M22.4 29.65 L22.65 30.8 22.55 32.4 Q22.1 31.75 22.1 30.9 22.1 30.2 22.4 29.65 M21.3 35.75 L19.05 38.6 18.1 38.5 19.85 36.85 21.3 35.75 M23.8 38.9 L21.9 38.8 23.25 36.75 Q23.7 37.5 23.8 38.9 M24.2 28.35 L24.25 28.35 Q25.15 28.35 25.8 29.1 26.4 29.85 26.4 30.9 26.4 31.95 25.8 32.7 25.3 33.25 24.7 33.4 L24.8 32.5 Q24.8 30.5 24.2 28.35 M17.6 53.45 L19.75 52.85 21.95 52.55 23.8 52.95 Q25.55 53.45 26.25 53.95 L24.65 55.25 Q23.65 55.85 22.25 55.85 20.25 55.85 18.9 54.9 L17.6 53.45 M43.25 59.9 Q43.8 58.7 44.75 57.9 46.4 56.5 48.75 56.5 L50.3 56.65 Q50.15 60.6 49.4 61.9 L48.4 63.0 Q46.35 60.75 43.25 59.9 M45.9 63.75 L45.1 63.75 Q44.3 63.75 42.3 62.7 L42.5 61.9 Q44.45 62.5 45.9 63.75" fill="#ff8654" fill-rule="evenodd" stroke="none"/>
    <path d="M49.7 9.3 L49.4 11.65 48.3 9.75 49.0 7.3 49.5 7.4 49.75 8.15 49.75 8.65 49.7 9.3 M53.95 17.0 L53.3 13.5 52.35 8.8 Q54.05 9.45 55.3 14.7 L55.3 14.75 55.75 16.8 56.15 19.9 56.05 21.45 56.05 21.5 55.8 20.8 55.45 19.75 Q55.2 18.65 53.95 17.0 M61.8 26.35 L62.25 28.2 60.3 26.85 60.5 25.4 61.1 23.95 61.8 26.35 M52.65 25.75 L53.35 26.5 53.85 27.25 52.85 28.45 52.45 28.85 50.8 30.3 Q48.2 32.2 44.7 33.0 L43.15 33.3 42.8 31.55 42.8 31.3 44.25 31.05 Q46.8 30.5 49.1 29.1 L50.5 28.15 51.65 27.0 52.65 25.75 M21.1 12.45 Q21.65 13.5 22.9 14.45 L22.95 14.5 23.2 14.65 25.3 16.05 25.7 16.3 27.05 19.3 27.95 21.75 29.25 24.8 Q30.4 27.1 31.75 28.35 L31.8 28.4 33.85 29.85 35.25 30.45 35.1 31.7 34.8 32.9 33.6 32.35 Q31.6 31.35 29.95 29.5 28.6 28.0 27.5 25.95 L26.55 24.0 23.55 17.4 23.35 17.1 Q21.9 14.85 19.95 14.5 L19.05 14.4 15.6 14.65 15.5 13.65 Q16.15 12.95 17.15 12.5 L18.35 12.1 21.1 12.45 M20.5 40.55 L17.2 40.15 19.05 38.6 21.3 35.75 Q22.25 34.15 22.55 32.4 L22.65 30.8 22.4 29.65 21.35 26.45 21.15 26.0 Q20.3 24.0 19.35 22.9 18.0 21.35 16.5 21.35 L14.75 21.4 12.3 21.95 11.1 20.9 Q11.75 19.7 16.1 19.6 L16.75 19.6 Q18.9 19.6 20.7 21.5 21.85 22.7 22.8 24.75 L23.05 25.2 24.2 28.35 Q24.8 30.5 24.8 32.5 L24.7 33.4 Q24.4 34.8 23.25 36.75 L21.9 38.8 20.5 40.55 M13.15 42.8 L10.5 46.85 9.95 47.55 7.85 49.3 7.1 49.75 7.05 49.75 5.35 49.85 4.75 49.7 4.85 49.25 Q5.85 47.95 7.45 46.65 L9.95 44.75 10.25 44.6 13.15 42.8 M19.05 48.05 L19.65 47.75 20.2 47.55 Q22.65 46.5 25.6 46.5 L27.9 46.6 27.95 46.65 Q28.8 47.5 28.8 48.4 L28.8 49.6 27.25 49.35 25.45 49.25 Q22.55 49.25 20.2 50.45 L19.15 51.1 Q18.1 51.75 17.2 52.75 L16.75 53.2 16.05 54.15 Q15.55 53.5 15.25 51.15 L15.25 51.0 Q16.95 49.15 19.05 48.05 M14.15 68.4 L14.45 68.55 15.05 70.05 15.1 70.1 Q16.8 74.45 16.8 76.65 L16.75 77.6 16.45 77.85 15.75 77.9 15.2 77.8 Q13.1 77.1 11.75 70.7 L11.3 67.3 13.1 67.95 14.15 68.4 M49.8 72.65 L51.95 71.85 52.1 73.45 52.15 76.1 51.1 83.3 Q50.25 87.85 49.25 89.6 L49.0 89.5 47.5 89.05 Q47.1 88.95 46.75 89.35 L46.75 88.8 Q46.75 87.3 47.25 84.85 L48.3 80.6 49.3 76.55 49.65 74.4 49.8 72.65 M51.85 71.1 L50.75 71.15 49.7 71.15 49.4 69.55 48.95 68.2 48.15 66.5 Q47.25 64.85 45.9 63.75 44.45 62.5 42.5 61.9 L40.9 61.55 Q41.05 60.45 41.45 59.5 L43.25 59.9 Q46.35 60.75 48.4 63.0 49.65 64.4 50.55 66.3 L50.75 66.85 51.6 69.6 51.85 71.1 M58.05 61.65 L58.05 61.55 58.15 62.35 58.15 63.1 Q58.55 62.5 59.95 61.95 60.1 65.15 61.25 66.8 L62.55 68.2 Q62.55 69.1 61.85 69.25 61.1 69.45 60.3 68.65 59.45 67.85 58.9 66.5 58.6 65.8 58.45 64.95 58.1 63.45 58.05 61.65" fill="#851000" fill-rule="evenodd" stroke="none"/>
  </g>
</svg>
