<?xml version="1.0" encoding="UTF-8" standalone="no"?>
<svg xmlns:ffdec="https://www.free-decompiler.com/flash" xmlns:xlink="http://www.w3.org/1999/xlink" ffdec:objectType="shape" height="90.3px" width="67.7px" xmlns="http://www.w3.org/2000/svg">
  <g transform="matrix(1.0, 0.0, 0.0, 1.0, -1.25, -1.45)">
    <path d="M60.75 20.45 L62.95 19.15 62.75 18.05 59.7 18.85 Q57.35 15.7 53.65 12.7 46.5 6.9 41.65 5.8 L42.2 6.95 43.15 9.4 Q44.65 13.65 42.25 19.15 L38.6 25.5 36.9 27.65 34.95 29.55 33.25 31.2 33.85 29.75 30.0 32.6 Q35.0 26.65 35.85 26.65 36.35 26.65 36.65 25.65 36.9 24.6 37.4 24.6 L39.3 20.9 41.15 17.15 Q41.65 17.15 41.45 16.1 41.2 15.05 41.7 15.05 42.3 15.05 42.25 14.05 L42.0 12.25 41.7 9.8 41.0 7.25 Q40.6 5.85 39.95 5.85 39.45 5.85 39.3 4.8 39.1 3.75 38.6 3.75 37.8 2.7 35.05 1.5 L36.1 1.45 Q37.55 1.7 41.6 3.6 43.8 2.3 45.1 2.85 48.15 2.75 52.05 5.0 55.95 7.2 60.35 12.4 64.7 17.6 66.45 23.7 68.15 29.8 67.25 31.45 66.3 33.05 66.35 33.4 66.45 34.45 67.8 37.35 L66.7 37.1 65.8 36.95 63.0 36.35 59.9 35.9 Q49.05 35.9 42.25 38.5 32.65 42.2 26.25 52.15 24.1 55.5 23.45 60.35 L23.2 66.3 Q22.6 80.7 22.65 86.05 22.7 87.25 22.2 89.9 18.45 90.55 14.3 83.65 10.15 76.7 10.2 75.35 L10.4 73.1 10.55 71.55 Q10.5 70.9 9.0 70.0 7.45 69.1 7.55 68.5 L7.95 66.5 8.45 64.55 Q8.6 63.5 9.35 61.55 L10.0 59.2 Q10.0 58.2 10.3 57.45 10.65 56.45 11.3 56.45 11.7 56.45 14.5 52.2 L16.85 48.7 18.2 49.0 17.55 49.8 12.6 57.2 11.35 59.75 10.55 62.2 10.05 64.0 Q10.05 66.3 13.05 69.5 16.0 72.75 16.0 74.35 L15.55 75.5 Q15.05 76.1 15.05 76.6 15.05 77.75 16.5 79.8 18.25 82.4 20.6 83.3 20.85 83.3 21.1 81.8 L21.25 80.85 22.7 80.6 22.75 78.55 21.45 78.3 21.55 71.25 21.7 66.2 21.85 63.35 Q21.9 62.35 22.9 57.8 L24.15 52.8 28.15 47.4 31.1 44.6 Q33.3 42.3 41.0 38.65 46.75 35.9 51.0 35.1 L51.65 35.6 51.85 34.95 55.8 34.8 59.0 34.45 62.3 34.8 63.4 29.3 Q63.4 24.75 60.75 20.45 M47.85 48.6 L45.8 47.0 44.45 46.4 Q43.65 46.4 42.85 46.9 41.35 47.75 40.8 49.95 L40.95 52.45 41.9 53.95 Q42.4 54.75 43.55 54.75 46.0 54.75 47.05 53.8 47.85 53.15 48.15 51.65 L47.85 48.6 M40.6 46.65 Q42.2 45.05 44.45 45.05 46.7 45.05 48.3 46.65 49.9 48.25 49.9 50.55 49.9 52.85 48.3 54.45 46.7 56.05 44.45 56.05 42.2 56.05 40.6 54.45 39.0 52.85 39.0 50.55 39.0 48.25 40.6 46.65 M58.5 48.4 L56.85 49.85 55.65 48.35 Q56.45 47.65 57.2 47.35 L59.35 46.75 61.6 46.4 68.9 47.1 68.95 49.9 Q68.9 51.2 67.85 52.8 66.75 54.35 67.1 55.7 L67.65 58.6 Q67.85 60.05 65.4 61.9 62.95 63.75 63.55 66.25 64.15 68.7 62.1 70.5 60.0 72.25 58.75 74.65 53.5 69.6 51.85 67.6 L51.5 67.15 52.55 65.75 54.05 67.55 56.9 70.75 Q58.5 69.4 59.05 67.9 59.05 65.6 60.6 63.35 62.45 60.65 63.0 57.6 L62.15 53.45 63.5 48.05 58.5 48.4 M56.35 50.25 L53.35 52.8 51.4 57.75 Q50.8 59.4 50.8 60.15 L51.1 62.45 51.3 63.45 50.4 65.3 Q49.3 63.0 49.3 60.15 49.3 58.25 50.6 55.0 51.8 52.05 52.1 52.05 L53.8 50.1 54.85 49.05 54.35 49.55 56.35 50.25 M36.35 10.5 Q35.2 11.25 33.45 11.25 L29.2 10.7 Q28.3 10.5 27.6 9.7 L27.05 8.95 Q26.45 8.95 26.45 8.1 L26.6 6.5 26.65 5.45 27.75 5.65 Q29.4 4.5 30.15 2.95 30.85 1.35 33.5 1.55 36.15 1.7 37.25 4.3 37.9 5.85 37.9 7.35 37.9 9.5 36.35 10.5 M35.9 5.0 Q34.25 5.0 28.4 8.25 29.6 9.3 33.8 9.75 35.4 9.75 36.0 9.05 37.0 7.95 35.9 5.0 M25.65 12.55 L25.25 11.65 23.5 12.3 23.2 12.5 Q24.85 11.1 27.05 11.1 29.6 11.1 31.45 12.95 33.25 14.75 33.25 17.3 33.25 19.85 31.45 21.7 29.6 23.5 27.05 23.5 24.5 23.5 22.7 21.7 20.85 19.85 20.85 17.3 20.85 14.75 22.7 12.95 L22.95 12.7 23.7 13.65 23.25 14.35 Q22.45 15.95 22.75 18.25 22.6 20.7 24.0 21.75 24.85 22.4 26.15 22.4 L27.35 22.0 29.3 21.1 30.3 18.35 31.05 15.45 28.8 13.3 Q27.1 12.5 26.1 12.5 L25.65 12.55 M10.05 37.0 Q10.05 34.4 9.3 29.45 L9.2 30.55 Q8.7 33.3 6.8 37.45 5.3 40.9 5.3 43.45 5.3 43.8 6.95 46.0 9.1 42.85 9.8 39.95 L10.05 37.0 M7.55 25.1 L7.95 24.3 Q11.55 26.65 11.55 36.6 L11.6 39.75 Q11.5 42.1 10.85 42.1 10.4 42.1 8.4 46.05 5.9 51.0 3.1 54.0 L2.3 54.6 Q2.85 50.2 3.15 50.1 3.4 49.95 2.45 47.45 L1.25 44.05 Q1.05 43.15 2.75 40.6 L4.55 37.6 Q4.65 37.1 4.15 35.15 L3.6 33.15 Q3.6 32.15 5.15 29.45 L7.55 25.1 M18.65 46.15 L21.6 41.8 Q23.0 39.7 23.65 39.7 L27.45 35.55 28.7 35.8 27.95 36.55 25.55 39.6 24.8 40.6 19.95 46.85 18.65 46.15 M40.15 73.45 L38.25 73.2 Q37.5 73.2 34.8 74.35 31.0 75.95 26.05 78.9 L24.75 81.9 Q24.75 84.2 26.8 86.2 28.45 87.75 29.0 87.75 L30.3 86.85 Q31.45 85.9 31.75 85.9 32.75 85.9 34.6 87.75 36.4 89.6 39.1 89.6 42.9 89.6 44.7 85.55 45.85 82.95 45.65 80.5 L47.05 81.05 46.9 79.45 45.65 80.4 45.2 78.45 Q44.45 75.4 41.75 74.05 L41.45 73.9 41.8 73.3 40.35 71.9 Q42.25 72.25 43.8 73.5 47.05 76.1 47.05 81.8 47.05 86.85 43.65 89.5 40.8 91.75 36.4 91.75 32.65 91.75 28.2 88.9 23.25 85.7 23.25 81.9 23.25 81.1 23.5 80.35 24.15 80.0 24.15 79.55 L24.0 79.15 Q25.3 76.75 28.95 74.65 33.25 72.15 37.05 71.8 L40.15 73.45" fill="#4d3507" fill-rule="evenodd" stroke="none"/>
    <path d="M60.75 20.45 Q63.4 24.75 63.4 29.3 L62.3 34.8 59.0 34.45 Q59.8 31.95 59.8 31.25 59.8 25.85 57.6 22.25 L60.75 20.45 M21.55 71.25 L21.45 78.3 20.6 78.25 18.1 78.65 Q17.05 79.0 17.05 79.55 17.05 80.1 18.1 80.5 L20.6 80.85 21.25 80.85 21.1 81.8 Q20.85 83.3 20.6 83.3 18.25 82.4 16.5 79.8 15.05 77.75 15.05 76.6 15.05 76.1 15.55 75.5 L16.0 74.35 Q16.0 72.75 13.05 69.5 10.05 66.3 10.05 64.0 L10.55 62.2 11.35 59.75 17.4 66.6 12.3 66.55 19.55 69.0 21.55 71.25 M43.15 9.4 L42.2 6.95 41.65 5.8 Q46.5 6.9 53.65 12.7 57.35 15.7 59.7 18.85 L55.65 19.9 Q52.95 17.25 43.15 9.4 M54.05 67.55 L57.8 58.7 58.85 55.65 58.4 53.2 57.9 50.75 58.15 49.4 58.5 48.4 63.5 48.05 62.15 53.45 63.0 57.6 Q62.45 60.65 60.6 63.35 59.05 65.6 59.05 67.9 58.5 69.4 56.9 70.75 L54.05 67.55 M35.9 5.0 Q37.0 7.95 36.0 9.05 35.4 9.75 33.8 9.75 29.6 9.3 28.4 8.25 34.25 5.0 35.9 5.0 M25.65 12.55 L26.1 12.5 Q27.1 12.5 28.8 13.3 27.55 13.85 26.45 14.45 L25.65 12.55 M22.75 18.25 Q22.45 15.95 23.25 14.35 L23.7 13.65 25.0 15.35 Q23.1 16.7 22.75 18.25 M10.05 37.0 L9.8 39.95 Q9.1 42.85 6.95 46.0 5.3 43.8 5.3 43.45 5.3 40.9 6.8 37.45 8.7 33.3 9.2 30.55 L9.3 29.45 Q10.05 34.4 10.05 37.0 M26.05 78.9 Q28.45 79.15 30.65 78.3 L33.35 77.4 34.5 78.3 27.4 85.8 28.0 86.65 35.45 79.85 35.3 78.9 36.05 79.15 Q36.65 79.15 38.45 77.9 L40.7 76.4 45.2 78.45 45.65 80.4 45.55 80.45 45.65 80.5 Q45.85 82.95 44.7 85.55 42.9 89.6 39.1 89.6 36.4 89.6 34.6 87.75 32.75 85.9 31.75 85.9 31.45 85.9 30.3 86.85 L29.0 87.75 Q28.45 87.75 26.8 86.2 24.75 84.2 24.75 81.9 L26.05 78.9 M39.4 85.6 Q41.1 85.6 42.3 84.8 43.5 83.95 43.5 82.75 43.5 81.55 42.3 80.75 41.1 79.9 39.4 79.9 37.7 79.9 36.5 80.75 35.3 81.55 35.3 82.75 35.3 83.95 36.5 84.8 37.7 85.6 39.4 85.6 M28.75 83.55 Q29.45 83.55 29.95 83.05 30.45 82.5 30.45 81.8 30.45 81.1 29.95 80.6 29.45 80.05 28.75 80.05 28.05 80.05 27.55 80.6 27.05 81.1 27.05 81.8 27.05 82.5 27.55 83.05 28.05 83.55 28.75 83.55" fill="#704e0f" fill-rule="evenodd" stroke="none"/>
    <path d="M59.0 34.45 L55.8 34.8 Q56.6 31.8 56.6 30.0 56.6 27.8 55.25 24.7 L54.7 23.55 55.25 23.6 57.6 22.25 Q59.8 25.85 59.8 31.25 59.8 31.95 59.0 34.45 M31.1 44.6 L28.15 47.4 Q26.95 46.65 26.05 45.3 24.65 43.2 24.8 40.6 L25.55 39.6 28.7 43.05 Q30.15 44.6 31.1 44.6 M21.7 66.2 L21.55 71.25 19.55 69.0 20.15 68.45 20.2 67.45 19.15 66.6 17.4 66.6 11.35 59.75 12.6 57.2 Q12.6 60.95 15.3 63.6 17.95 66.2 21.7 66.2 M17.55 49.8 L18.2 49.0 20.5 49.45 20.5 49.8 19.15 51.1 17.55 49.8 M38.6 25.5 L42.25 19.15 Q44.65 13.65 43.15 9.4 52.95 17.25 55.65 19.9 L52.7 20.65 Q50.9 18.65 48.35 17.5 42.3 24.6 38.6 25.5 M40.8 49.95 Q41.35 47.75 42.85 46.9 43.65 46.4 44.45 46.4 L45.8 47.0 47.85 48.6 46.2 49.65 40.8 49.95 M58.5 48.4 L58.15 49.4 57.9 50.75 58.4 53.2 58.85 55.65 57.8 58.7 54.05 67.55 52.55 65.75 55.0 62.3 52.7 61.6 52.9 60.75 Q53.65 57.75 53.65 56.3 L53.35 52.8 56.35 50.25 57.45 50.65 56.85 49.85 58.5 48.4 M28.8 13.3 L31.05 15.45 28.5 18.0 28.25 18.55 29.3 21.1 27.35 22.0 26.15 22.4 Q24.85 22.4 24.0 21.75 22.6 20.7 22.75 18.25 23.1 16.7 25.0 15.35 L26.25 17.05 27.15 16.95 27.25 16.25 26.45 14.45 Q27.55 13.85 28.8 13.3 M26.05 78.9 Q31.0 75.95 34.8 74.35 37.5 73.2 38.25 73.2 L40.15 73.45 41.35 74.1 41.45 73.9 41.75 74.05 Q44.45 75.4 45.2 78.45 L40.7 76.4 38.45 77.9 Q36.65 79.15 36.05 79.15 L35.3 78.9 35.25 78.5 34.5 78.25 34.5 78.3 33.35 77.4 30.65 78.3 Q28.45 79.15 26.05 78.9 M39.4 85.6 Q37.7 85.6 36.5 84.8 35.3 83.95 35.3 82.75 35.3 81.55 36.5 80.75 37.7 79.9 39.4 79.9 41.1 79.9 42.3 80.75 43.5 81.55 43.5 82.75 43.5 83.95 42.3 84.8 41.1 85.6 39.4 85.6 M28.75 83.55 Q28.05 83.55 27.55 83.05 27.05 82.5 27.05 81.8 27.05 81.1 27.55 80.6 28.05 80.05 28.75 80.05 29.45 80.05 29.95 80.6 30.45 81.1 30.45 81.8 30.45 82.5 29.95 83.05 29.45 83.55 28.75 83.55" fill="#ab7913" fill-rule="evenodd" stroke="none"/>
    <path d="M55.8 34.8 L51.85 34.95 52.3 33.25 52.1 32.7 50.8 32.1 51.05 30.45 Q51.05 28.4 49.6 26.95 48.1 25.45 46.05 25.45 44.0 25.45 42.55 26.95 41.05 28.4 41.05 30.45 41.05 32.5 42.55 34.0 44.0 35.45 46.05 35.45 48.1 35.45 49.6 34.05 L51.0 35.1 Q46.75 35.9 41.0 38.65 33.3 42.3 31.1 44.6 30.15 44.6 28.7 43.05 L25.55 39.6 27.95 36.55 Q28.95 37.25 32.75 38.85 35.6 38.85 37.2 36.55 38.55 34.6 38.55 31.8 38.55 30.2 38.0 29.1 L36.9 27.65 38.6 25.5 Q42.3 24.6 48.35 17.5 50.9 18.65 52.7 20.65 L52.45 20.7 54.5 23.5 54.7 23.55 55.25 24.7 Q56.6 27.8 56.6 30.0 56.6 31.8 55.8 34.8 M28.15 47.4 L24.15 52.8 Q21.4 52.4 18.4 53.6 15.4 54.75 14.65 56.9 13.9 59.05 15.8 60.9 17.7 62.75 21.85 63.35 L21.7 66.2 Q17.95 66.2 15.3 63.6 12.6 60.95 12.6 57.2 L17.55 49.8 19.15 51.1 20.5 49.8 20.5 49.45 22.5 49.85 23.25 49.2 22.5 48.25 19.95 46.85 24.8 40.6 Q24.65 43.2 26.05 45.3 26.95 46.65 28.15 47.4 M47.85 48.6 L48.15 51.65 46.7 51.05 45.55 50.9 Q45.1 50.9 40.95 52.45 L40.8 49.95 46.2 49.65 47.85 48.6 M53.35 52.8 L53.65 56.3 Q53.65 57.75 52.9 60.75 L52.7 61.6 52.3 61.45 51.3 63.45 51.1 62.45 50.8 60.15 Q50.8 59.4 51.4 57.75 L53.35 52.8 M31.05 15.45 L30.3 18.35 29.3 21.1 28.25 18.55 28.5 18.0 31.05 15.45" fill="#cf8e15" fill-rule="evenodd" stroke="none"/>
    <path d="M24.15 52.8 L22.9 57.8 Q21.9 62.35 21.85 63.35 17.7 62.75 15.8 60.9 13.9 59.05 14.65 56.9 15.4 54.75 18.4 53.6 21.4 52.4 24.15 52.8 M33.25 31.2 L34.95 29.55 36.9 27.65 38.0 29.1 Q38.55 30.2 38.55 31.8 38.55 34.6 37.2 36.55 35.6 38.85 32.75 38.85 28.95 37.25 27.95 36.55 L28.7 35.8 31.05 36.25 33.25 31.2 M49.6 34.05 Q48.1 35.45 46.05 35.45 44.0 35.45 42.55 34.0 41.05 32.5 41.05 30.45 41.05 28.4 42.55 26.95 44.0 25.45 46.05 25.45 48.1 25.45 49.6 26.95 51.05 28.4 51.05 30.45 L50.8 32.1 45.2 29.4 44.75 30.35 49.6 34.05 M48.15 51.65 Q47.85 53.15 47.05 53.8 46.0 54.75 43.55 54.75 42.4 54.75 41.9 53.95 L40.95 52.45 Q45.1 50.9 45.55 50.9 L46.7 51.05 48.15 51.65" fill="#f5b438" fill-rule="evenodd" stroke="none"/>
    <path d="M59.7 18.85 L62.75 18.05 62.95 19.15 60.75 20.45 57.6 22.25 55.25 23.6 54.7 23.55 54.5 23.5 52.45 20.7 52.7 20.65 55.65 19.9 59.7 18.85 M51.85 34.95 L51.65 35.6 51.0 35.1 49.6 34.05 44.75 30.35 45.2 29.4 50.8 32.1 52.1 32.7 52.3 33.25 51.85 34.95 M21.45 78.3 L22.75 78.55 22.7 80.6 21.25 80.85 20.6 80.85 18.1 80.5 Q17.05 80.1 17.05 79.55 17.05 79.0 18.1 78.65 L20.6 78.25 21.45 78.3 M18.2 49.0 L16.85 48.7 18.3 46.55 18.65 46.15 19.95 46.85 22.5 48.25 23.25 49.2 22.5 49.85 20.5 49.45 18.2 49.0 M30.0 32.6 L33.85 29.75 33.25 31.2 31.05 36.25 28.7 35.8 27.45 35.55 29.45 33.2 30.0 32.6 M56.85 49.85 L57.45 50.65 56.35 50.25 54.35 49.55 54.85 49.05 55.35 48.6 55.4 48.55 55.65 48.35 56.85 49.85 M52.7 61.6 L55.0 62.3 52.55 65.75 51.5 67.15 50.4 65.3 51.3 63.45 52.3 61.45 52.7 61.6 M23.2 12.5 L23.5 12.3 25.25 11.65 25.65 12.55 26.45 14.45 27.25 16.25 27.15 16.95 26.25 17.05 25.0 15.35 23.7 13.65 22.95 12.7 23.0 12.65 23.2 12.5 M34.5 78.3 L34.5 78.25 35.25 78.5 35.3 78.9 35.45 79.85 28.0 86.65 27.4 85.8 34.5 78.3 M41.45 73.9 L41.35 74.1 40.15 73.45 37.05 71.8 38.45 71.7 40.35 71.9 41.8 73.3 41.45 73.9 M24.0 79.15 L24.15 79.55 Q24.15 80.0 23.5 80.35 L24.0 79.15 M19.55 69.0 L12.3 66.55 17.4 66.6 19.15 66.6 20.2 67.45 20.15 68.45 19.55 69.0 M45.65 80.5 L45.55 80.45 45.65 80.4 46.9 79.45 47.05 81.05 45.65 80.5" fill="#844317" fill-rule="evenodd" stroke="none"/>
  </g>
</svg>
