<?xml version="1.0" encoding="UTF-8" standalone="no"?>
<svg xmlns:ffdec="https://www.free-decompiler.com/flash" xmlns:xlink="http://www.w3.org/1999/xlink" ffdec:objectType="shape" height="90.3px" width="67.7px" xmlns="http://www.w3.org/2000/svg">
  <g transform="matrix(1.0, 0.0, 0.0, 1.0, -1.25, -1.45)">
    <path d="M62.35 23.65 L62.65 23.75 62.3 23.55 Q60.15 17.95 53.65 12.7 46.5 6.9 41.65 5.8 L42.2 6.95 43.15 9.4 Q44.65 13.65 42.25 19.15 L38.6 25.5 36.9 27.65 34.95 29.55 Q32.1 32.2 27.95 36.55 L25.55 39.6 24.8 40.6 19.4 47.5 17.55 49.8 12.6 57.2 11.35 59.75 10.55 62.2 10.05 64.0 Q10.05 66.3 13.05 69.5 16.0 72.75 16.0 74.35 L15.55 75.5 Q15.05 76.1 15.05 76.6 15.05 77.75 16.5 79.8 18.25 82.4 20.6 83.3 20.85 83.3 21.1 81.8 21.6 78.75 21.55 71.25 L21.7 66.2 21.85 63.35 Q21.9 62.35 22.9 57.8 L24.15 52.8 28.15 47.4 31.1 44.6 Q33.3 42.3 41.0 38.65 49.6 34.55 54.9 34.75 L53.5 35.75 54.0 36.15 Q47.1 36.65 42.25 38.5 32.65 42.2 26.25 52.15 24.1 55.5 23.45 60.35 L23.2 66.3 Q22.7 78.3 22.65 84.0 L21.8 83.55 22.65 84.15 22.65 86.05 Q22.7 87.25 22.2 89.9 18.45 90.55 14.3 83.65 10.15 76.7 10.2 75.35 L10.4 73.1 10.55 71.55 Q10.5 70.9 9.0 70.0 7.45 69.1 7.55 68.5 L7.95 66.5 8.45 64.55 Q8.6 63.5 9.35 61.55 L10.0 59.2 Q10.0 58.2 10.3 57.45 10.65 56.45 11.3 56.45 11.7 56.45 14.5 52.2 L18.3 46.55 21.6 41.8 Q23.0 39.7 23.65 39.7 L29.45 33.2 Q34.95 26.65 35.85 26.65 36.35 26.65 36.65 25.65 36.9 24.6 37.4 24.6 L39.3 20.9 41.15 17.15 Q41.65 17.15 41.45 16.1 41.2 15.05 41.7 15.05 42.3 15.05 42.25 14.05 L42.0 12.25 41.7 9.8 41.0 7.25 Q40.6 5.85 39.95 5.85 39.45 5.85 39.3 4.8 39.1 3.75 38.6 3.75 37.8 2.7 35.05 1.5 L36.1 1.45 Q37.55 1.7 41.6 3.6 43.8 2.3 45.1 2.85 48.15 2.75 52.05 5.0 55.95 7.2 60.35 12.4 64.7 17.6 66.45 23.7 68.15 29.8 67.25 31.45 66.3 33.05 66.35 33.4 66.45 34.45 67.8 37.35 L66.7 37.1 65.8 36.95 63.0 36.35 59.9 35.9 55.45 36.05 59.7 34.55 62.3 34.8 63.4 29.3 Q63.4 26.4 62.35 23.65 M47.85 48.6 L45.8 47.0 44.45 46.4 Q43.65 46.4 42.85 46.9 41.35 47.75 40.8 49.95 L40.95 52.45 41.9 53.95 Q42.4 54.75 43.55 54.75 46.0 54.75 47.05 53.8 L47.1 53.8 48.45 54.3 48.3 54.45 Q46.7 56.05 44.45 56.05 42.2 56.05 40.6 54.45 39.0 52.85 39.0 50.55 39.0 48.25 40.6 46.65 42.2 45.05 44.45 45.05 46.7 45.05 48.3 46.65 49.9 48.25 49.9 50.55 49.9 52.25 49.05 53.6 L47.65 53.1 48.15 51.65 47.85 48.6 M52.75 68.65 L51.85 67.6 Q49.3 64.5 49.3 60.15 49.3 58.25 50.6 55.0 51.8 52.05 52.1 52.05 L53.8 50.1 Q55.7 48.0 57.2 47.35 L59.35 46.75 61.6 46.4 68.9 47.1 68.95 49.9 Q68.9 51.2 67.85 52.8 66.75 54.35 67.1 55.7 L67.65 58.6 Q67.85 60.05 65.4 61.9 62.95 63.75 63.55 66.25 64.15 68.7 62.1 70.5 60.0 72.25 58.75 74.65 L53.15 69.05 55.55 69.25 56.9 70.75 Q58.5 69.4 59.05 67.9 59.05 65.6 60.6 63.35 62.45 60.65 63.0 57.6 L62.15 53.45 63.5 48.05 58.5 48.4 53.35 52.8 51.4 57.75 Q50.8 59.4 50.8 60.15 L51.1 62.45 51.6 64.6 54.05 67.55 55.55 69.2 52.75 68.65 M57.8 48.15 L56.95 47.5 56.4 47.8 57.5 48.55 57.8 48.15 M36.15 10.65 Q35.05 11.25 33.45 11.25 L29.2 10.7 Q28.3 10.5 27.6 9.7 L27.05 8.95 Q26.45 8.95 26.45 8.1 L26.6 6.5 26.65 5.45 27.75 5.65 Q29.4 4.5 30.15 2.95 30.85 1.35 33.5 1.55 36.15 1.7 37.25 4.3 37.9 5.85 37.9 7.35 L37.6 9.05 36.15 10.65 M35.9 5.0 Q34.25 5.0 28.4 8.25 29.6 9.3 33.8 9.75 35.4 9.75 36.0 9.05 37.0 7.95 35.9 5.0 M29.9 19.65 L30.3 18.35 31.05 15.45 28.8 13.3 Q27.1 12.5 26.1 12.5 24.15 12.5 23.25 14.35 22.45 15.95 22.75 18.25 22.6 20.7 24.0 21.75 24.85 22.4 26.15 22.4 L27.15 22.1 27.25 22.65 27.55 23.5 28.4 23.4 27.05 23.5 Q24.5 23.5 22.7 21.7 20.85 19.85 20.85 17.3 20.85 14.75 22.7 12.95 24.5 11.1 27.05 11.1 29.6 11.1 31.45 12.95 33.25 14.75 33.25 17.3 33.25 19.85 31.45 21.7 L30.65 22.4 30.65 21.55 Q30.65 20.2 29.9 19.65 M10.05 37.0 Q10.05 34.4 9.3 29.45 L9.2 30.55 Q8.7 33.3 6.8 37.45 5.3 40.9 5.3 43.45 5.3 43.8 6.95 46.0 9.1 42.85 9.8 39.95 L10.05 37.0 M7.55 25.1 L7.95 24.3 Q11.55 26.65 11.55 36.6 L11.6 39.75 Q11.5 42.1 10.85 42.1 10.4 42.1 8.4 46.05 5.9 51.0 3.1 54.0 L2.3 54.6 Q2.85 50.2 3.15 50.1 3.4 49.95 2.45 47.45 L1.25 44.05 Q1.05 43.15 2.75 40.6 L4.55 37.6 Q4.65 37.1 4.15 35.15 L3.6 33.15 Q3.6 32.15 5.15 29.45 L7.55 25.1 M36.25 71.9 L38.45 71.7 Q41.55 71.7 43.8 73.5 47.05 76.1 47.05 81.8 47.05 86.85 43.65 89.5 40.8 91.75 36.4 91.75 32.65 91.75 28.2 88.9 23.25 85.7 23.25 81.9 23.25 79.85 24.8 78.0 25.35 78.6 26.25 78.6 L26.65 78.55 26.05 78.9 24.75 81.9 Q24.75 84.2 26.8 86.2 L24.0 84.7 24.45 85.45 27.7 87.8 28.45 87.55 29.0 87.75 30.3 86.85 Q31.45 85.9 31.75 85.9 32.75 85.9 34.6 87.75 L35.3 88.35 35.25 88.55 35.5 88.55 Q37.05 89.6 39.1 89.6 42.9 89.6 44.7 85.55 45.6 83.5 45.7 81.55 L46.9 79.4 46.75 78.6 45.7 80.95 45.2 78.45 44.8 77.2 Q45.25 76.9 45.25 76.15 45.25 74.55 43.85 74.3 43.0 74.1 42.65 74.6 L41.75 74.05 Q40.05 73.2 38.25 73.2 37.5 73.2 34.8 74.35 31.45 75.75 27.2 78.25 L27.4 77.95 27.75 76.8 27.45 75.6 Q28.15 75.1 28.95 74.65 31.6 73.1 34.05 72.4 L33.25 73.3 34.0 74.0 36.25 71.9" fill="#4d1a25" fill-rule="evenodd" stroke="none"/>
    <path d="M62.3 23.55 L57.2 20.6 56.8 21.1 56.4 20.65 Q55.2 19.25 49.1 14.2 L49.5 14.25 50.4 13.95 Q50.9 13.55 50.9 13.0 50.9 11.15 49.6 11.15 48.25 11.15 48.25 13.0 L48.35 13.6 43.15 9.4 42.2 6.95 41.65 5.8 Q46.5 6.9 53.65 12.7 60.15 17.95 62.3 23.55 M57.1 21.5 L62.35 23.65 Q63.4 26.4 63.4 29.3 L62.3 34.8 59.7 34.55 60.75 34.15 60.85 33.3 59.3 33.5 59.8 31.25 Q59.8 25.3 57.1 21.5 M21.55 71.25 Q21.6 78.75 21.1 81.8 20.85 83.3 20.6 83.3 18.25 82.4 16.5 79.8 15.05 77.75 15.05 76.6 15.05 76.1 15.55 75.5 L16.0 74.35 Q16.0 72.75 13.05 69.5 10.05 66.3 10.05 64.0 L10.55 62.2 11.35 59.75 16.85 65.95 14.5 67.6 17.85 67.1 21.55 71.25 M55.55 69.2 L54.05 67.55 57.8 58.7 58.85 55.65 58.4 53.2 57.9 50.75 58.15 49.4 58.5 48.4 63.5 48.05 62.15 53.45 63.0 57.6 Q62.45 60.65 60.6 63.35 59.05 65.6 59.05 67.9 58.5 69.4 56.9 70.75 L55.55 69.25 55.75 69.25 55.55 69.2 M35.9 5.0 Q37.0 7.95 36.0 9.05 35.4 9.75 33.8 9.75 29.6 9.3 28.4 8.25 34.25 5.0 35.9 5.0 M28.8 13.3 Q27.15 14.0 25.8 14.8 23.15 16.4 22.75 18.25 22.45 15.95 23.25 14.35 24.15 12.5 26.1 12.5 27.1 12.5 28.8 13.3 M10.05 37.0 L9.8 39.95 Q9.1 42.85 6.95 46.0 5.3 43.8 5.3 43.45 5.3 40.9 6.8 37.45 8.7 33.3 9.2 30.55 L9.3 29.45 Q10.05 34.4 10.05 37.0 M26.05 78.9 Q28.45 79.15 30.65 78.3 L33.35 77.4 34.5 78.3 Q35.45 79.15 36.05 79.15 36.65 79.15 38.45 77.9 L40.7 76.4 45.2 78.45 45.7 80.95 44.2 84.2 45.7 81.55 Q45.6 83.5 44.7 85.55 42.9 89.6 39.1 89.6 37.05 89.6 35.5 88.55 L35.75 88.5 36.3 84.65 36.5 84.8 Q37.7 85.6 39.4 85.6 41.1 85.6 42.3 84.8 43.5 83.95 43.5 82.75 43.5 81.55 42.3 80.75 41.1 79.9 39.4 79.9 37.7 79.9 36.5 80.75 35.3 81.55 35.3 82.75 35.3 83.55 35.85 84.2 L35.3 88.35 34.6 87.75 Q32.75 85.9 31.75 85.9 31.45 85.9 30.3 86.85 L29.0 87.75 28.45 87.55 28.95 87.35 26.8 86.2 Q24.75 84.2 24.75 81.9 L26.05 78.9 M28.75 83.55 Q29.45 83.55 29.95 83.05 30.45 82.5 30.45 81.8 30.45 81.1 29.95 80.6 29.45 80.05 28.75 80.05 28.05 80.05 27.55 80.6 27.05 81.1 27.05 81.8 27.05 82.5 27.55 83.05 28.05 83.55 28.75 83.55" fill="#77283a" fill-rule="evenodd" stroke="none"/>
    <path d="M56.8 21.1 L56.6 21.3 57.1 21.5 Q59.8 25.3 59.8 31.25 L59.3 33.5 56.05 33.9 Q56.6 31.5 56.6 30.0 56.6 27.8 55.25 24.7 53.05 19.6 48.35 17.5 42.3 24.6 38.6 25.5 L42.25 19.15 Q44.65 13.65 43.15 9.4 L48.35 13.6 49.1 14.2 Q55.2 19.25 56.4 20.65 L56.8 21.1 M31.1 44.6 L28.15 47.4 28.05 47.35 30.05 45.15 29.7 44.05 27.4 46.85 26.05 45.3 Q24.65 43.2 24.8 40.6 L25.55 39.6 28.7 43.05 Q30.15 44.6 31.1 44.6 M21.7 66.2 L21.55 71.25 17.85 67.1 18.15 67.05 19.05 65.85 21.7 66.2 M11.35 59.75 L12.6 57.2 Q12.6 60.95 15.3 63.6 16.4 64.65 17.7 65.3 L16.85 65.95 11.35 59.75 M17.55 49.8 L19.4 47.5 20.45 49.25 20.5 49.8 19.15 51.1 17.55 49.8 M40.8 49.95 Q41.35 47.75 42.85 46.9 43.65 46.4 44.45 46.4 L45.8 47.0 47.85 48.6 46.2 49.65 40.8 49.95 M54.05 67.55 L51.6 64.6 Q52.15 63.55 52.9 60.75 53.65 57.75 53.65 56.3 L53.35 52.8 58.5 48.4 58.15 49.4 57.9 50.75 58.4 53.2 58.85 55.65 57.8 58.7 54.05 67.55 M31.05 15.45 L28.5 18.0 28.25 18.55 28.55 19.3 Q27.0 19.35 27.0 21.25 L27.15 22.1 26.15 22.4 Q24.85 22.4 24.0 21.75 22.6 20.7 22.75 18.25 23.15 16.4 25.8 14.8 27.15 14.0 28.8 13.3 L31.05 15.45 M45.2 78.45 L40.7 76.4 38.45 77.9 Q36.65 79.15 36.05 79.15 35.45 79.15 34.5 78.3 L33.35 77.4 30.65 78.3 Q28.45 79.15 26.05 78.9 L26.65 78.55 27.2 78.25 Q31.45 75.75 34.8 74.35 37.5 73.2 38.25 73.2 40.05 73.2 41.75 74.05 L42.65 74.6 Q42.4 74.9 42.4 75.55 L42.8 76.55 Q43.35 77.35 44.1 77.35 L44.8 77.2 45.2 78.45 M35.85 84.2 Q35.3 83.55 35.3 82.75 35.3 81.55 36.5 80.75 37.7 79.9 39.4 79.9 41.1 79.9 42.3 80.75 43.5 81.55 43.5 82.75 43.5 83.95 42.3 84.8 41.1 85.6 39.4 85.6 37.7 85.6 36.5 84.8 L36.3 84.65 36.75 81.55 36.65 81.5 36.5 81.45 36.15 81.7 35.85 84.2 M28.75 83.55 Q28.05 83.55 27.55 83.05 27.05 82.5 27.05 81.8 27.05 81.1 27.55 80.6 28.05 80.05 28.75 80.05 29.45 80.05 29.95 80.6 30.45 81.1 30.45 81.8 30.45 82.5 29.95 83.05 29.45 83.55 28.75 83.55 M54.0 59.7 Q54.3 60.5 55.5 60.5 56.45 60.5 57.15 59.6 57.75 58.85 57.75 58.2 57.75 55.7 55.9 56.45 54.0 57.2 54.0 58.85 L54.0 59.7" fill="#8e3145" fill-rule="evenodd" stroke="none"/>
    <path d="M54.9 34.75 Q49.6 34.55 41.0 38.65 33.3 42.3 31.1 44.6 30.15 44.6 28.7 43.05 L25.55 39.6 27.95 36.55 Q28.95 37.25 32.75 38.85 34.95 38.85 36.4 37.5 37.6 38.25 39.35 38.25 40.05 38.25 41.0 37.35 41.9 36.5 41.9 35.95 41.9 34.5 38.45 34.55 L38.15 34.55 Q38.55 33.3 38.55 31.8 38.55 30.2 38.0 29.1 L36.9 27.65 38.6 25.5 Q42.3 24.6 48.35 17.5 53.05 19.6 55.25 24.7 56.6 27.8 56.6 30.0 56.6 31.5 56.05 33.9 L56.0 33.9 54.9 34.75 M28.15 47.4 L24.15 52.8 Q21.4 52.4 18.4 53.6 17.3 54.0 16.5 54.6 L15.55 54.65 Q13.35 55.2 13.35 57.55 L13.45 58.25 Q13.75 58.8 14.55 58.85 14.8 59.9 15.8 60.9 17.7 62.75 21.85 63.35 L21.7 66.2 19.05 65.85 19.9 64.7 19.25 64.15 17.7 65.3 Q16.4 64.65 15.3 63.6 12.6 60.95 12.6 57.2 L17.55 49.8 19.15 51.1 20.5 49.8 20.45 49.25 19.4 47.5 24.8 40.6 Q24.65 43.2 26.05 45.3 L27.4 46.85 24.2 50.65 24.75 50.85 28.05 47.35 28.15 47.4 M46.65 24.45 L47.5 24.85 51.25 20.3 46.55 24.0 46.65 24.45 M55.75 29.45 L56.25 28.45 Q56.25 26.9 54.55 26.5 52.8 26.1 52.8 27.8 L53.0 28.9 Q53.4 30.15 54.5 30.15 55.2 30.15 55.75 29.45 M41.05 30.45 Q41.05 32.5 42.55 34.0 44.0 35.45 46.05 35.45 48.1 35.45 49.6 34.0 51.05 32.5 51.05 30.45 51.05 28.4 49.6 26.95 48.1 25.45 46.05 25.45 44.0 25.45 42.55 26.95 41.05 28.4 41.05 30.45 M40.8 49.95 L46.2 49.65 47.85 48.6 48.15 51.65 46.7 51.05 45.55 50.9 43.35 51.6 42.8 51.4 42.8 51.8 40.95 52.45 40.8 49.95 M51.6 64.6 L51.1 62.45 50.8 60.15 Q50.8 59.4 51.4 57.75 L53.35 52.8 53.65 56.3 Q53.65 57.75 52.9 60.75 52.15 63.55 51.6 64.6 M28.55 19.3 L28.25 18.55 28.5 18.0 31.05 15.45 30.3 18.35 29.9 19.65 Q29.5 19.35 28.85 19.3 L28.55 19.3" fill="#c04763" fill-rule="evenodd" stroke="none"/>
    <path d="M24.15 52.8 L22.9 57.8 Q21.9 62.35 21.85 63.35 17.7 62.75 15.8 60.9 14.8 59.9 14.55 58.85 L14.6 58.85 16.65 58.45 Q17.75 57.9 17.75 56.8 17.75 54.75 16.5 54.6 17.3 54.0 18.4 53.6 21.4 52.4 24.15 52.8 M27.95 36.55 Q32.1 32.2 34.95 29.55 L36.9 27.65 38.0 29.1 Q38.55 30.2 38.55 31.8 38.55 33.3 38.15 34.55 35.0 34.7 35.0 36.0 35.0 36.5 36.0 37.25 L36.4 37.5 Q34.95 38.85 32.75 38.85 28.95 37.25 27.95 36.55 M41.05 30.45 Q41.05 28.4 42.55 26.95 44.0 25.45 46.05 25.45 48.1 25.45 49.6 26.95 51.05 28.4 51.05 30.45 51.05 32.5 49.6 34.0 48.1 35.45 46.05 35.45 44.0 35.45 42.55 34.0 41.05 32.5 41.05 30.45 M48.15 51.65 L47.65 53.1 43.35 51.6 45.55 50.9 46.7 51.05 48.15 51.65 M47.1 53.8 L47.05 53.8 Q46.0 54.75 43.55 54.75 42.4 54.75 41.9 53.95 L40.95 52.45 42.8 51.8 42.75 52.1 47.1 53.8" fill="#dc98a7" fill-rule="evenodd" stroke="none"/>
    <path d="M49.1 14.2 L48.35 13.6 48.25 13.0 Q48.25 11.15 49.6 11.15 50.9 11.15 50.9 13.0 50.9 13.55 50.4 13.95 L49.5 14.25 49.1 14.2 M55.75 29.45 Q55.2 30.15 54.5 30.15 53.4 30.15 53.0 28.9 L52.8 27.8 Q52.8 26.1 54.55 26.5 56.25 26.9 56.25 28.45 L55.75 29.45 M38.15 34.55 L38.45 34.55 Q41.9 34.5 41.9 35.95 41.9 36.5 41.0 37.35 40.05 38.25 39.35 38.25 37.6 38.25 36.4 37.5 L36.0 37.25 Q35.0 36.5 35.0 36.0 35.0 34.7 38.15 34.55 M28.55 19.3 L28.85 19.3 Q29.5 19.35 29.9 19.65 30.65 20.2 30.65 21.55 L30.65 22.4 28.4 23.4 27.55 23.5 27.25 22.65 27.15 22.1 27.0 21.25 Q27.0 19.35 28.55 19.3 M24.8 78.0 Q25.65 76.9 27.1 75.85 L27.45 75.6 27.75 76.8 27.4 77.95 27.2 78.25 26.65 78.55 26.25 78.6 Q25.35 78.6 24.8 78.0 M14.55 58.85 Q13.75 58.8 13.45 58.25 L13.35 57.55 Q13.35 55.2 15.55 54.65 L16.5 54.6 Q17.75 54.75 17.75 56.8 17.75 57.9 16.65 58.45 L14.6 58.85 14.55 58.85 M44.8 77.2 L44.1 77.35 Q43.35 77.35 42.8 76.55 L42.4 75.55 Q42.4 74.9 42.65 74.6 43.0 74.1 43.85 74.3 45.25 74.55 45.25 76.15 45.25 76.9 44.8 77.2 M54.0 59.7 L54.0 58.85 Q54.0 57.2 55.9 56.45 57.75 55.7 57.75 58.2 57.75 58.85 57.15 59.6 56.45 60.5 55.5 60.5 54.3 60.5 54.0 59.7" fill="#ebe4e0" fill-rule="evenodd" stroke="none"/>
    <path d="M62.3 23.55 L62.65 23.75 62.35 23.65 57.1 21.5 56.6 21.3 56.8 21.1 57.2 20.6 62.3 23.55 M59.7 34.55 L55.45 36.05 54.0 36.15 53.5 35.75 54.9 34.75 56.0 33.9 56.05 33.9 59.3 33.5 60.85 33.3 60.75 34.15 59.7 34.55 M22.65 84.15 L21.8 83.55 22.65 84.0 22.65 84.15 M46.65 24.45 L46.55 24.0 51.25 20.3 47.5 24.85 46.65 24.45 M47.65 53.1 L49.05 53.6 48.45 54.3 47.1 53.8 42.75 52.1 42.8 51.8 42.8 51.4 43.35 51.6 47.65 53.1 M53.15 69.05 L52.75 68.65 55.55 69.2 55.75 69.25 55.55 69.25 53.15 69.05 M57.8 48.15 L57.5 48.55 56.4 47.8 56.95 47.5 57.8 48.15 M37.6 9.05 Q37.2 9.95 36.35 10.5 L36.15 10.65 37.6 9.05 M27.4 46.85 L29.7 44.05 30.05 45.15 28.05 47.35 24.75 50.85 24.2 50.65 27.4 46.85 M34.05 72.4 L36.25 71.9 34.0 74.0 33.25 73.3 34.05 72.4 M19.05 65.85 L18.15 67.05 17.85 67.1 14.5 67.6 16.85 65.95 17.7 65.3 19.25 64.15 19.9 64.7 19.05 65.85 M26.8 86.2 L28.95 87.35 28.45 87.55 27.7 87.8 24.45 85.45 24.0 84.7 26.8 86.2 M35.3 88.35 L35.85 84.2 36.15 81.7 36.5 81.45 36.65 81.5 36.75 81.55 36.3 84.65 35.75 88.5 35.5 88.55 35.25 88.55 35.3 88.35 M45.7 81.55 L44.2 84.2 45.7 80.95 46.75 78.6 46.9 79.4 45.7 81.55" fill="#9000e5" fill-rule="evenodd" stroke="none"/>
  </g>
</svg>
