<?xml version="1.0" encoding="UTF-8" standalone="no"?>
<svg xmlns:ffdec="https://www.free-decompiler.com/flash" xmlns:xlink="http://www.w3.org/1999/xlink" ffdec:objectType="shape" height="92.65px" width="67.5px" xmlns="http://www.w3.org/2000/svg">
  <g transform="matrix(1.0, 0.0, 0.0, 1.0, -1.55, -1.45)">
    <path d="M61.45 23.05 L61.4 22.9 59.65 18.35 Q59.0 17.2 56.1 15.3 L52.95 13.3 50.9 10.6 Q48.85 7.9 47.85 7.3 44.2 5.0 35.6 5.0 32.6 5.0 23.9 11.4 13.35 19.15 10.4 27.7 L9.2 30.15 Q8.55 31.1 8.55 32.25 8.5 35.2 6.9 39.0 5.3 42.8 5.3 43.45 5.3 48.0 12.65 47.0 15.1 47.35 15.95 47.9 L18.35 50.1 19.5 52.8 Q19.9 55.1 19.9 56.9 L19.55 59.2 Q19.1 61.5 18.35 62.4 L16.65 64.8 16.0 65.45 Q15.25 66.45 12.05 68.2 14.6 70.25 15.55 72.55 16.05 73.7 16.0 74.55 L15.55 75.6 Q15.05 76.1 15.05 76.6 15.05 79.7 18.55 81.75 L24.0 85.15 24.75 85.65 25.6 86.3 25.85 86.5 27.65 87.95 28.6 87.5 28.95 87.35 28.9 87.35 31.75 85.9 Q33.5 86.3 35.35 88.0 L35.25 88.55 35.75 88.5 35.8 88.4 Q37.25 89.6 39.75 89.6 40.85 89.6 42.6 88.25 45.4 86.15 49.8 84.15 50.1 84.0 50.6 82.25 51.6 78.8 56.5 71.2 L58.5 67.95 Q58.75 67.35 58.8 64.0 58.8 63.05 60.9 61.0 63.0 58.95 63.0 57.6 L62.15 53.45 63.2 46.95 63.75 43.0 64.15 41.65 64.5 40.25 Q64.5 39.55 63.5 37.7 62.4 35.7 62.3 34.85 L63.4 29.0 61.55 23.3 62.65 23.75 61.45 23.05 M18.4 24.4 Q18.4 23.05 19.05 22.05 L20.8 23.0 20.9 22.9 19.25 21.7 19.4 21.5 Q20.4 20.3 21.8 20.3 L24.6 19.15 Q26.05 19.15 27.35 19.9 27.0 20.35 27.0 21.25 26.0 20.7 24.85 20.7 22.7 20.7 21.15 22.55 L20.8 23.0 Q19.6 24.65 19.6 26.9 19.6 29.45 21.15 31.3 22.7 33.1 24.85 33.1 27.0 33.1 28.55 31.3 30.1 29.45 30.1 26.9 30.1 25.4 29.55 24.15 30.25 23.85 30.5 23.15 L30.5 23.1 31.3 24.15 31.6 25.1 31.35 28.45 29.15 31.4 26.75 33.9 23.05 34.2 20.0 31.6 18.75 28.75 18.15 26.95 18.4 24.4 M46.35 12.35 L47.25 11.75 48.25 11.55 48.65 11.6 Q48.25 12.0 48.25 13.0 L48.3 13.1 Q47.55 13.15 47.1 13.75 46.55 14.4 46.55 15.35 46.55 16.3 47.1 16.95 47.6 17.6 48.35 17.6 49.1 17.6 49.65 16.95 50.15 16.3 50.15 15.35 L49.95 14.2 50.4 13.95 Q50.9 13.55 50.9 13.0 L50.9 12.9 Q51.5 14.05 51.35 16.65 L49.55 18.25 48.05 18.75 46.6 19.1 Q45.05 16.85 45.05 16.35 L46.35 12.35 M42.3 2.9 L48.55 3.5 Q52.7 4.35 57.2 8.95 61.7 13.55 64.6 19.65 67.5 25.7 67.25 27.9 L66.75 31.6 Q66.5 33.15 66.8 34.35 67.1 35.5 68.15 37.55 69.2 39.55 69.0 40.35 L67.35 44.75 68.15 46.2 Q68.95 47.95 68.95 49.5 68.95 51.05 66.75 54.05 66.75 54.6 67.1 56.0 L67.5 58.7 Q67.55 59.95 65.65 61.75 L63.5 63.75 Q63.25 63.95 63.4 65.95 63.5 67.9 63.15 69.1 62.75 70.25 60.55 71.75 59.05 73.05 59.05 74.9 L59.05 78.9 Q59.7 79.85 56.45 81.3 53.2 82.75 52.45 86.35 51.7 89.9 50.6 90.0 49.45 90.05 48.9 89.6 48.35 89.1 47.5 89.0 46.65 88.85 45.85 91.05 45.1 93.2 41.55 93.2 L39.75 92.95 38.4 92.7 36.7 93.15 34.85 93.55 Q34.35 93.55 34.0 93.15 33.65 92.75 33.45 92.85 L31.7 93.35 29.05 94.05 Q27.85 94.3 26.8 93.25 25.75 92.2 24.35 91.5 22.9 90.75 20.75 90.05 18.6 89.3 16.6 86.85 14.55 84.4 12.4 80.35 10.2 76.3 10.2 74.55 L10.4 72.9 10.6 71.65 8.55 69.55 Q6.45 67.7 6.2 66.05 L7.1 66.8 Q7.1 67.25 9.0 67.25 L10.65 67.4 Q11.55 67.4 11.55 66.8 11.55 66.15 12.6 65.55 L14.95 64.35 Q18.35 62.05 18.35 56.3 L18.6 54.35 Q18.65 53.15 18.05 53.15 L17.25 51.65 Q16.4 50.05 15.85 49.65 15.25 49.25 13.5 48.8 L11.7 48.45 9.6 48.3 Q8.2 48.25 8.2 48.85 L6.2 50.3 Q4.2 51.9 4.1 53.1 L3.8 56.55 3.75 58.9 3.15 58.25 2.4 57.45 Q2.05 56.9 2.0 55.8 L2.0 53.6 Q2.1 52.6 2.85 51.45 3.6 50.25 3.1 50.0 2.6 49.75 1.55 44.45 1.55 42.75 3.1 40.55 4.65 38.4 4.65 37.4 L3.7 34.65 Q2.75 32.15 4.95 29.95 7.1 27.7 7.55 23.6 12.45 18.45 13.1 15.7 13.7 12.9 16.65 11.05 19.55 9.15 21.45 7.2 23.3 5.25 24.55 4.95 L26.35 5.25 28.3 5.3 30.3 3.15 Q31.8 1.45 36.1 1.45 37.15 1.45 38.7 2.35 40.25 3.2 42.3 2.9 M43.4 42.65 L46.5 40.75 Q48.25 40.05 52.45 39.7 L54.8 40.45 57.15 42.45 57.8 44.85 58.15 47.1 Q58.15 50.95 53.4 53.1 L49.9 54.05 49.55 53.95 49.65 53.8 48.0 53.2 46.85 52.65 43.9 51.1 43.1 50.0 Q42.0 47.65 42.0 47.35 L42.5 45.5 43.4 42.65 M56.6 47.95 L56.7 46.9 Q56.7 44.55 54.8 42.9 52.85 41.2 50.1 41.2 47.35 41.2 45.45 42.9 43.5 44.55 43.5 46.9 43.5 49.25 45.45 50.95 47.35 52.6 50.1 52.6 52.85 52.6 54.8 50.95 56.25 49.65 56.6 47.95 L57.5 48.55 57.8 48.15 56.7 47.3 56.6 47.95 M34.95 78.5 L32.35 79.45 29.55 80.25 28.15 80.15 Q26.45 80.15 25.25 79.55 24.05 78.9 24.05 78.0 L23.65 76.75 Q23.5 76.3 23.5 75.65 23.5 73.25 25.05 71.25 26.15 69.8 27.75 68.95 29.55 68.65 31.5 68.9 34.15 69.3 35.55 70.7 L34.4 72.0 33.8 71.4 Q32.3 70.15 30.15 70.15 28.0 70.15 26.5 71.4 25.2 72.5 25.05 74.0 23.8 73.8 23.8 75.55 L24.15 77.0 Q24.8 78.6 26.25 78.6 26.95 78.6 27.35 78.1 28.55 78.75 30.15 78.75 32.3 78.75 33.8 77.5 35.3 76.25 35.3 74.45 L35.05 73.05 36.4 71.8 36.55 72.4 36.75 73.85 36.4 75.95 Q35.9 77.5 34.95 78.5" fill="#4d1a25" fill-rule="evenodd" stroke="none"/>
    <path d="M12.65 47.0 Q5.3 48.0 5.3 43.45 5.3 42.8 6.9 39.0 8.5 35.2 8.55 32.25 8.55 31.1 9.2 30.15 L10.4 27.7 Q13.35 19.15 23.9 11.4 32.6 5.0 35.6 5.0 44.2 5.0 47.85 7.3 48.85 7.9 50.9 10.6 L52.95 13.3 56.1 15.3 Q59.0 17.2 59.65 18.35 L61.4 22.9 61.45 23.05 57.2 20.6 56.95 20.95 Q54.85 18.25 51.35 16.65 51.5 14.05 50.9 12.9 50.85 11.15 49.6 11.15 48.95 11.15 48.65 11.6 L48.25 11.55 47.25 11.75 46.35 12.35 43.85 9.8 Q42.7 9.1 40.05 9.1 L38.35 9.25 37.85 8.75 37.25 9.45 Q33.25 10.3 28.6 13.65 23.3 17.45 21.8 20.3 20.4 20.3 19.4 21.5 L19.25 21.7 17.45 20.35 17.15 20.45 Q17.0 20.6 17.0 20.9 L19.05 22.05 Q18.4 23.05 18.4 24.4 18.0 24.95 16.5 29.1 L14.75 33.85 11.85 36.95 Q9.4 39.7 9.4 41.45 L11.6 45.1 11.15 45.05 9.3 45.35 Q8.5 45.65 8.5 46.05 8.5 46.45 9.3 46.75 L11.15 47.05 12.6 46.9 12.65 47.0 M61.55 23.3 L63.4 29.0 62.3 34.85 Q62.4 35.7 63.5 37.7 64.5 39.55 64.5 40.25 L64.15 41.65 63.75 43.0 63.2 46.95 62.15 53.45 63.0 57.6 Q63.0 58.95 60.9 61.0 58.8 63.05 58.8 64.0 58.75 67.35 58.5 67.95 L56.5 71.2 Q51.6 78.8 50.6 82.25 50.1 84.0 49.8 84.15 45.4 86.15 42.6 88.25 40.85 89.6 39.75 89.6 37.25 89.6 35.8 88.4 L36.3 84.65 36.5 84.8 Q37.7 85.6 39.4 85.6 41.1 85.6 42.3 84.8 43.5 83.95 43.5 82.75 43.5 81.55 42.3 80.75 41.1 79.9 39.4 79.9 37.7 79.9 36.5 80.75 35.3 81.55 35.3 82.75 35.3 83.55 35.85 84.2 L35.35 88.0 Q33.5 86.3 31.75 85.9 L28.9 87.35 21.8 83.55 24.0 85.15 18.55 81.75 Q15.05 79.7 15.05 76.6 15.05 76.1 15.55 75.6 L16.0 74.55 Q16.05 73.7 15.55 72.55 14.6 70.25 12.05 68.2 15.25 66.45 16.0 65.45 L16.65 66.05 14.5 67.6 17.8 67.1 20.1 69.25 Q23.25 72.5 23.25 74.05 L22.9 75.6 Q22.8 76.75 24.05 78.0 24.05 78.9 25.25 79.55 26.45 80.15 28.15 80.15 L27.45 81.1 27.05 81.8 Q27.05 82.5 27.55 83.05 28.1 83.6 28.75 83.6 30.45 83.6 30.45 81.8 L30.15 80.8 29.55 80.25 32.35 79.45 34.95 78.5 Q35.95 79.25 38.35 77.9 L40.7 76.4 46.45 78.6 46.75 78.55 44.2 84.2 47.25 78.7 47.4 78.1 Q49.2 76.4 53.25 69.5 L53.5 69.1 55.75 69.25 53.65 68.8 Q58.85 59.85 58.85 55.6 L58.4 53.2 57.9 50.75 59.2 48.2 Q60.45 45.25 60.45 43.05 L59.7 39.95 Q58.9 37.05 58.9 34.8 L60.75 34.15 60.85 33.3 59.15 33.55 59.35 32.7 59.8 30.6 Q59.8 25.25 57.45 21.65 L61.55 23.3 M28.6 87.5 L27.65 87.95 25.85 86.5 27.7 87.8 28.6 87.5 M57.15 42.45 L54.8 40.45 Q55.75 40.45 56.45 41.05 57.15 41.6 57.15 42.45" fill="#77283a" fill-rule="evenodd" stroke="none"/>
    <path d="M12.65 47.0 L12.6 46.9 13.05 46.75 Q13.8 46.45 13.8 46.05 13.8 45.65 13.05 45.35 L11.6 45.1 9.4 41.45 Q9.4 39.7 11.85 36.95 L14.75 33.85 16.5 29.1 Q18.0 24.95 18.4 24.4 L18.15 26.95 18.75 28.75 20.0 31.6 Q18.9 34.75 16.15 37.7 13.7 40.35 13.7 40.8 13.7 43.05 17.1 46.4 L20.5 49.5 Q20.5 50.05 20.0 50.45 L19.15 51.1 18.35 50.1 15.95 47.9 Q15.1 47.35 12.65 47.0 M21.8 20.3 Q23.3 17.45 28.6 13.65 33.25 10.3 37.25 9.45 L33.3 13.75 33.65 14.1 Q32.25 14.75 31.0 15.7 L28.25 18.55 28.55 19.3 Q27.75 19.35 27.35 19.9 26.05 19.15 24.6 19.15 L21.8 20.3 M38.35 9.25 L40.05 9.1 Q42.7 9.1 43.85 9.8 L46.35 12.35 45.05 16.35 Q45.05 16.85 46.6 19.1 44.7 23.1 42.0 24.75 L39.5 25.65 38.5 25.45 Q37.95 25.1 37.95 24.1 37.95 21.9 40.55 18.75 L43.15 15.55 Q43.15 14.35 42.3 13.6 41.35 12.8 39.75 12.8 37.1 12.8 34.8 13.65 L38.5 9.4 38.35 9.25 M51.35 16.65 Q54.85 18.25 56.95 20.95 L56.6 21.3 57.45 21.65 Q59.8 25.25 59.8 30.6 L59.35 32.7 59.15 33.55 56.0 33.9 Q56.6 32.25 56.6 31.05 56.6 29.85 56.25 28.6 L56.25 28.45 Q56.25 27.55 55.7 27.05 L54.1 24.1 51.25 20.3 49.55 18.25 51.35 16.65 M16.0 65.45 L16.65 64.8 17.75 65.25 16.65 66.05 16.0 65.45 M55.0 36.2 L58.9 34.8 Q58.9 37.05 59.7 39.95 L60.45 43.05 Q60.45 45.25 59.2 48.2 L57.9 50.75 58.4 53.2 58.85 55.6 Q58.85 59.85 53.65 68.8 L49.8 68.0 49.4 68.3 49.25 68.75 53.5 69.1 53.25 69.5 Q49.2 76.4 47.4 78.1 L47.8 76.2 46.75 78.55 46.45 78.6 40.7 76.4 38.35 77.9 Q35.95 79.25 34.95 78.5 35.9 77.5 36.4 75.95 L36.75 73.85 36.55 72.4 36.4 71.8 36.45 71.75 Q43.1 73.25 48.1 69.35 53.65 65.1 53.65 56.45 L53.4 53.1 Q58.15 50.95 58.15 47.1 L57.8 44.85 57.15 42.45 Q57.15 41.6 56.45 41.05 55.75 40.45 54.8 40.45 L52.45 39.7 Q53.9 38.25 55.0 36.2 M43.4 42.65 L42.5 45.5 42.0 47.35 Q42.0 47.65 43.1 50.0 32.6 49.9 28.25 47.5 L28.0 47.35 30.05 45.15 29.8 44.4 29.95 44.65 36.25 43.95 43.4 42.65 M29.55 80.25 L30.15 80.8 30.45 81.8 Q30.45 83.6 28.75 83.6 28.1 83.6 27.55 83.05 27.05 82.5 27.05 81.8 L27.45 81.1 28.15 80.15 29.55 80.25 M24.05 78.0 Q22.8 76.75 22.9 75.6 L23.25 74.05 Q23.25 72.5 20.1 69.25 L17.8 67.1 18.15 67.05 19.1 65.8 21.0 66.4 22.7 66.0 24.4 65.55 27.75 68.95 Q26.15 69.8 25.05 71.25 23.5 73.25 23.5 75.65 23.5 76.3 23.65 76.75 L24.05 78.0 M15.95 35.8 L17.2 35.7 18.9 29.6 15.95 35.8 M27.35 46.9 Q24.65 44.95 24.65 41.45 24.65 40.85 24.9 40.15 L25.25 39.3 29.65 44.15 27.35 46.9 M39.5 62.0 Q40.4 62.9 40.4 64.2 40.4 65.5 39.5 66.4 38.55 67.3 37.25 67.3 35.95 67.3 35.05 66.4 34.1 65.5 34.1 64.2 34.1 62.9 35.05 62.0 35.95 61.1 37.25 61.1 38.55 61.1 39.5 62.0 M36.3 84.65 L36.75 81.55 36.65 81.5 36.5 81.45 36.15 81.7 35.85 84.2 Q35.3 83.55 35.3 82.75 35.3 81.55 36.5 80.75 37.7 79.9 39.4 79.9 41.1 79.9 42.3 80.75 43.5 81.55 43.5 82.75 43.5 83.95 42.3 84.8 41.1 85.6 39.4 85.6 37.7 85.6 36.5 84.8 L36.3 84.65 M54.0 59.7 Q54.3 60.5 55.5 60.5 56.45 60.5 57.15 59.6 57.75 58.85 57.75 58.2 57.75 55.7 55.9 56.45 54.0 57.2 54.0 58.85 L54.0 59.7 M42.8 76.55 Q43.35 77.35 44.1 77.35 45.25 77.35 45.25 76.15 45.25 74.55 43.85 74.3 42.4 74.0 42.4 75.55 L42.8 76.55" fill="#8e3145" fill-rule="evenodd" stroke="none"/>
    <path d="M16.65 64.8 L18.35 62.4 Q21.6 62.6 24.6 61.4 27.6 60.15 28.1 58.2 28.55 56.2 26.2 54.65 23.85 53.1 19.5 52.8 L18.35 50.1 19.15 51.1 20.0 50.45 Q20.5 50.05 20.5 49.5 L17.1 46.4 Q13.7 43.05 13.7 40.8 13.7 40.35 16.15 37.7 18.9 34.75 20.0 31.6 L23.05 34.2 26.75 33.9 Q27.7 35.8 29.75 37.4 31.6 38.85 32.75 38.85 34.95 38.85 36.4 37.5 37.65 38.25 39.35 38.25 40.05 38.25 41.0 37.35 41.9 36.5 41.9 35.95 41.9 34.5 38.45 34.55 L38.15 34.55 Q38.55 33.15 38.55 31.4 38.55 27.35 35.4 27.35 L31.35 28.45 31.6 25.1 31.3 24.15 30.5 23.1 30.65 21.55 Q30.65 19.45 28.85 19.3 L28.55 19.3 28.25 18.55 31.0 15.7 Q32.25 14.75 33.65 14.1 L34.0 14.5 34.8 13.65 Q37.1 12.8 39.75 12.8 41.35 12.8 42.3 13.6 43.15 14.35 43.15 15.55 L40.55 18.75 Q37.95 21.9 37.95 24.1 37.95 25.1 38.5 25.45 L39.5 25.65 42.0 24.75 Q44.7 23.1 46.6 19.1 L48.05 18.75 49.55 18.25 51.25 20.3 54.1 24.1 55.7 27.05 Q55.3 26.65 54.55 26.5 52.8 26.1 52.8 27.8 L53.0 28.9 Q53.4 30.15 54.5 30.15 55.2 30.15 55.75 29.45 L56.25 28.6 Q56.6 29.85 56.6 31.05 56.6 32.25 56.0 33.9 L53.5 35.75 54.4 36.4 55.0 36.2 Q53.9 38.25 52.45 39.7 48.25 40.05 46.5 40.75 L43.4 42.65 36.25 43.95 29.95 44.65 29.8 44.4 29.7 44.05 29.65 44.15 25.25 39.3 24.9 40.15 Q24.65 40.85 24.65 41.45 24.65 44.95 27.35 46.9 L24.2 50.65 24.75 50.85 28.0 47.35 28.25 47.5 Q32.6 49.9 43.1 50.0 L43.9 51.1 43.2 51.55 42.8 51.4 42.8 51.8 Q41.45 52.7 40.25 54.05 L39.05 55.6 Q38.3 55.2 37.2 55.05 L36.35 55.0 36.4 54.35 Q36.4 53.05 35.5 52.15 34.55 51.25 33.25 51.25 31.95 51.25 31.05 52.15 30.1 53.05 30.1 54.35 30.1 55.65 31.05 56.55 31.95 57.45 33.25 57.45 L34.1 57.35 34.75 58.25 Q35.9 59.25 38.75 59.25 L39.4 59.2 41.05 61.35 Q43.3 63.75 44.9 63.75 48.55 63.75 49.55 61.7 50.5 59.75 49.9 54.05 L53.4 53.1 53.65 56.45 Q53.65 65.1 48.1 69.35 43.1 73.25 36.45 71.75 L36.65 71.5 37.75 68.15 35.55 70.7 Q34.15 69.3 31.5 68.9 29.55 68.65 27.75 68.95 L24.4 65.55 22.7 66.0 21.0 66.4 19.1 65.8 19.9 64.7 19.25 64.15 17.75 65.25 16.65 64.8 M46.65 24.45 L47.5 24.85 51.25 20.3 46.55 24.0 46.65 24.45 M41.05 30.45 Q41.05 32.5 42.55 34.0 44.0 35.45 46.05 35.45 48.1 35.45 49.6 34.0 51.05 32.5 51.05 30.45 51.05 28.4 49.6 26.95 48.1 25.45 46.05 25.45 44.0 25.45 42.55 26.95 41.05 28.4 41.05 30.45 M37.2 16.55 Q36.35 15.75 35.2 15.75 34.05 15.75 33.25 16.55 32.4 17.35 32.4 18.5 32.4 19.65 33.25 20.45 34.05 21.25 35.2 21.25 36.35 21.25 37.2 20.45 38.0 19.65 38.0 18.5 38.0 17.35 37.2 16.55 M17.65 42.45 Q18.75 43.55 20.3 43.55 21.85 43.55 22.95 42.45 24.05 41.3 24.05 39.75 24.05 38.2 22.95 37.1 21.85 35.95 20.3 35.95 18.75 35.95 17.65 37.1 16.55 38.2 16.55 39.75 16.55 41.3 17.65 42.45 M39.5 62.0 Q38.55 61.1 37.25 61.1 35.95 61.1 35.05 62.0 34.1 62.9 34.1 64.2 34.1 65.5 35.05 66.4 35.95 67.3 37.25 67.3 38.55 67.3 39.5 66.4 40.4 65.5 40.4 64.2 40.4 62.9 39.5 62.0" fill="#c04763" fill-rule="evenodd" stroke="none"/>
    <path d="M18.35 62.4 Q19.1 61.5 19.55 59.2 L19.9 56.9 Q19.9 55.1 19.5 52.8 23.85 53.1 26.2 54.65 28.55 56.2 28.1 58.2 27.6 60.15 24.6 61.4 21.6 62.6 18.35 62.4 M31.35 28.45 L35.4 27.35 Q38.55 27.35 38.55 31.4 38.55 33.15 38.15 34.55 35.0 34.7 35.0 36.0 35.0 36.5 36.0 37.25 L36.4 37.5 Q34.95 38.85 32.75 38.85 31.6 38.85 29.75 37.4 27.7 35.8 26.75 33.9 L29.15 31.4 31.35 28.45 M41.05 30.45 Q41.05 28.4 42.55 26.95 44.0 25.45 46.05 25.45 48.1 25.45 49.6 26.95 51.05 28.4 51.05 30.45 51.05 32.5 49.6 34.0 48.1 35.45 46.05 35.45 44.0 35.45 42.55 34.0 41.05 32.5 41.05 30.45 M43.9 51.1 L46.85 52.65 48.0 53.2 43.2 51.55 43.9 51.1 M49.55 53.95 L49.9 54.05 Q50.5 59.75 49.55 61.7 48.55 63.75 44.9 63.75 43.3 63.75 41.05 61.35 L39.4 59.2 40.25 58.65 40.4 57.75 Q40.4 56.3 39.05 55.6 L40.25 54.05 Q41.45 52.7 42.8 51.8 L42.75 52.1 49.0 54.5 49.55 53.95 M37.2 16.55 Q38.0 17.35 38.0 18.5 38.0 19.65 37.2 20.45 36.35 21.25 35.2 21.25 34.05 21.25 33.25 20.45 32.4 19.65 32.4 18.5 32.4 17.35 33.25 16.55 34.05 15.75 35.2 15.75 36.35 15.75 37.2 16.55 M17.65 42.45 Q16.55 41.3 16.55 39.75 16.55 38.2 17.65 37.1 18.75 35.95 20.3 35.95 21.85 35.95 22.95 37.1 24.05 38.2 24.05 39.75 24.05 41.3 22.95 42.45 21.85 43.55 20.3 43.55 18.75 43.55 17.65 42.45 M34.1 57.35 L33.25 57.45 Q31.95 57.45 31.05 56.55 30.1 55.65 30.1 54.35 30.1 53.05 31.05 52.15 31.95 51.25 33.25 51.25 34.55 51.25 35.5 52.15 36.4 53.05 36.4 54.35 L36.35 55.0 Q34.0 54.95 34.0 56.8 L34.1 57.35" fill="#dc98a7" fill-rule="evenodd" stroke="none"/>
    <path d="M48.65 11.6 Q48.95 11.15 49.6 11.15 50.85 11.15 50.9 12.9 L50.9 13.0 Q50.9 13.55 50.4 13.95 L49.95 14.2 49.65 13.75 Q49.1 13.1 48.35 13.1 L48.3 13.1 48.25 13.0 Q48.25 12.0 48.65 11.6 M28.55 19.3 L28.85 19.3 Q30.65 19.45 30.65 21.55 L30.5 23.1 30.5 23.15 Q30.25 23.85 29.55 24.15 L28.55 22.55 27.0 21.25 Q27.0 20.35 27.35 19.9 27.75 19.35 28.55 19.3 M38.15 34.55 L38.45 34.55 Q41.9 34.5 41.9 35.95 41.9 36.5 41.0 37.35 40.05 38.25 39.35 38.25 37.65 38.25 36.4 37.5 L36.0 37.25 Q35.0 36.5 35.0 36.0 35.0 34.7 38.15 34.55 M55.7 27.05 Q56.25 27.55 56.25 28.45 L56.25 28.6 55.75 29.45 Q55.2 30.15 54.5 30.15 53.4 30.15 53.0 28.9 L52.8 27.8 Q52.8 26.1 54.55 26.5 55.3 26.65 55.7 27.05 M36.35 55.0 L37.2 55.05 Q38.3 55.2 39.05 55.6 40.4 56.3 40.4 57.75 L40.25 58.65 39.4 59.2 38.75 59.25 Q35.9 59.25 34.75 58.25 L34.1 57.35 34.0 56.8 Q34.0 54.95 36.35 55.0 M27.35 78.1 Q26.95 78.6 26.25 78.6 24.8 78.6 24.15 77.0 L23.8 75.55 Q23.8 73.8 25.05 74.0 L25.0 74.45 Q25.0 76.25 26.5 77.5 L26.55 77.55 27.35 78.1 M54.0 59.7 L54.0 58.85 Q54.0 57.2 55.9 56.45 57.75 55.7 57.75 58.2 57.75 58.85 57.15 59.6 56.45 60.5 55.5 60.5 54.3 60.5 54.0 59.7 M42.8 76.55 L42.4 75.55 Q42.4 74.0 43.85 74.3 45.25 74.55 45.25 76.15 45.25 77.35 44.1 77.35 43.35 77.35 42.8 76.55" fill="#ebe4e0" fill-rule="evenodd" stroke="none"/>
    <path d="M12.6 46.9 L11.15 47.05 9.3 46.75 Q8.5 46.45 8.5 46.05 8.5 45.65 9.3 45.35 L11.15 45.05 11.6 45.1 13.05 45.35 Q13.8 45.65 13.8 46.05 13.8 46.45 13.05 46.75 L12.6 46.9 M19.05 22.05 L17.0 20.9 Q17.0 20.6 17.15 20.45 L17.45 20.35 19.25 21.7 20.9 22.9 20.8 23.0 19.05 22.05 M37.25 9.45 L37.85 8.75 38.35 9.25 38.5 9.4 34.8 13.65 34.0 14.5 33.65 14.1 33.3 13.75 37.25 9.45 M56.95 20.95 L57.2 20.6 61.45 23.05 62.65 23.75 61.55 23.3 57.45 21.65 56.6 21.3 56.95 20.95 M35.8 88.4 L35.75 88.5 35.25 88.55 35.35 88.0 35.85 84.2 36.15 81.7 36.5 81.45 36.65 81.5 36.75 81.55 36.3 84.65 35.8 88.4 M28.9 87.35 L28.95 87.35 28.6 87.5 27.7 87.8 25.85 86.5 25.6 86.3 24.75 85.65 24.0 85.15 21.8 83.55 28.9 87.35 M46.65 24.45 L46.55 24.0 51.25 20.3 47.5 24.85 46.65 24.45 M56.0 33.9 L59.15 33.55 60.85 33.3 60.75 34.15 58.9 34.8 55.0 36.2 54.4 36.4 53.5 35.75 56.0 33.9 M48.0 53.2 L49.65 53.8 49.55 53.95 49.0 54.5 42.75 52.1 42.8 51.8 42.8 51.4 43.2 51.55 48.0 53.2 M56.6 47.95 L56.7 47.3 57.8 48.15 57.5 48.55 56.6 47.95 M53.65 68.8 L55.75 69.25 53.5 69.1 49.25 68.75 49.4 68.3 49.8 68.0 53.65 68.8 M47.4 78.1 L47.25 78.7 44.2 84.2 46.75 78.55 47.8 76.2 47.4 78.1 M17.8 67.1 L14.5 67.6 16.65 66.05 17.75 65.25 19.25 64.15 19.9 64.7 19.1 65.8 18.15 67.05 17.8 67.1 M15.95 35.8 L18.9 29.6 17.2 35.7 15.95 35.8 M29.65 44.15 L29.7 44.05 29.8 44.4 30.05 45.15 28.0 47.35 24.75 50.85 24.2 50.65 27.35 46.9 29.65 44.15 M34.4 72.0 L35.55 70.7 37.75 68.15 36.65 71.5 36.45 71.75 36.4 71.8 35.05 73.05 34.4 72.0" fill="#9000e5" fill-rule="evenodd" stroke="none"/>
  </g>
</svg>
