<?xml version="1.0" encoding="UTF-8" standalone="no"?>
<svg xmlns:ffdec="https://www.free-decompiler.com/flash" xmlns:xlink="http://www.w3.org/1999/xlink" ffdec:objectType="shape" height="17.6px" width="65.65px" xmlns="http://www.w3.org/2000/svg">
  <g transform="matrix(1.0, 0.0, 0.0, 1.0, 29.2, 17.3)">
    <path d="M8.4 -8.0 L9.4 -8.75 20.6 -9.85 Q21.05 -9.55 21.45 -9.3 L8.4 -8.0 M-19.15 -10.85 L-14.8 -10.0 -3.95 -8.85 -2.35 -8.0 -13.55 -9.0 Q-19.0 -9.8 -22.3 -11.4 L-19.15 -10.85" fill="#fdfdfd" fill-rule="evenodd" stroke="none"/>
    <path d="M7.1 -7.95 L7.15 -8.7 9.4 -8.75 8.4 -8.0 7.25 -7.95 7.1 -7.95 M-25.95 -13.85 Q-24.0 -12.6 -22.35 -12.0 L-19.15 -10.85 -22.3 -11.4 Q-19.0 -9.8 -13.55 -9.0 L-2.35 -8.0 -3.95 -8.85 -0.35 -8.7 -0.3 -7.95 -0.4 -7.95 -2.3 -8.0 -2.5 -2.9 Q-2.7 -2.05 -4.45 -2.05 -8.5 -2.05 -15.85 -3.75 -23.0 -5.35 -23.0 -6.05 L-22.3 -11.4 Q-25.05 -12.55 -26.65 -13.7 L-25.95 -13.85 M23.15 -9.55 L21.45 -9.3 21.5 -9.3 21.5 -3.4 17.55 -2.4 9.4 -1.55 Q8.65 -1.55 8.4 -3.15 8.25 -4.5 8.4 -8.0 L21.45 -9.3 Q21.05 -9.55 20.6 -9.85 L22.85 -10.2 23.15 -9.55 M33.2 -13.85 L34.0 -13.85 32.85 -12.95 32.7 -12.85 31.2 -11.75 31.2 -12.35 32.7 -13.5 32.85 -13.6 33.2 -13.85" fill="#dbdbdb" fill-rule="evenodd" stroke="none"/>
    <path d="M7.15 -8.7 L7.1 -7.95 6.6 -7.95 6.6 -8.75 7.15 -8.7 M7.25 -7.95 L8.4 -8.0 Q8.25 -4.5 8.4 -3.15 8.65 -1.55 9.4 -1.55 L17.55 -2.4 21.5 -3.4 21.5 -9.3 21.45 -9.3 23.15 -9.55 23.2 -6.55 23.1 -2.4 Q21.2 -1.75 17.1 -1.45 L7.35 -0.75 7.25 -7.95 M-0.35 -8.7 L0.7 -8.65 0.7 -7.95 -0.3 -7.95 -0.35 -8.7 M-27.95 -16.05 L-27.65 -16.95 -27.55 -17.2 -26.65 -17.3 -27.05 -15.05 -25.95 -13.85 -26.65 -13.7 Q-25.05 -12.55 -22.3 -11.4 L-23.0 -6.05 Q-23.0 -5.35 -15.85 -3.75 -8.5 -2.05 -4.45 -2.05 -2.7 -2.05 -2.5 -2.9 L-2.3 -8.0 -0.4 -7.95 Q-0.65 -5.45 -0.5 -0.75 L-1.45 -0.7 -11.15 -1.8 -20.9 -3.55 Q-27.75 -5.25 -27.75 -7.45 L-27.2 -8.95 Q-26.7 -10.1 -26.7 -13.75 L-27.2 -14.6 -27.95 -16.05 M23.15 -9.55 L22.85 -10.2 25.1 -10.55 25.15 -9.8 23.15 -9.55 M33.2 -13.85 Q33.75 -14.5 34.15 -15.5 L34.3 -16.1 35.1 -16.1 35.1 -15.9 34.55 -14.95 Q34.1 -14.45 34.1 -13.95 34.1 -12.6 34.6 -10.65 L35.1 -8.15 Q35.1 -7.1 34.65 -6.45 34.05 -5.7 32.85 -5.05 L32.7 -4.95 31.65 -4.35 31.2 -11.75 32.7 -12.85 32.85 -12.95 34.0 -13.85 33.2 -13.85 M30.55 -11.3 L30.5 -11.95 31.2 -12.35 31.2 -11.75 30.55 -11.3" fill="#b5b5b5" fill-rule="evenodd" stroke="none"/>
    <path d="M6.6 -7.95 L7.1 -7.95 7.25 -7.95 7.35 -0.75 17.1 -1.45 Q21.2 -1.75 23.1 -2.4 L23.2 -6.55 23.15 -9.55 25.15 -9.8 Q25.85 -5.9 25.95 -1.85 24.65 -1.35 15.1 -0.4 L6.6 0.1 6.6 -7.95 M0.7 -7.95 L0.95 0.3 Q-12.55 -0.3 -20.7 -2.55 -28.75 -4.8 -29.2 -8.05 L-27.95 -16.05 -27.2 -14.6 -26.7 -13.75 Q-26.7 -10.1 -27.2 -8.95 L-27.75 -7.45 Q-27.75 -5.25 -20.9 -3.55 L-11.15 -1.8 -1.45 -0.7 -0.5 -0.75 Q-0.65 -5.45 -0.4 -7.95 L-0.3 -7.95 0.7 -7.95 M31.2 -11.75 L31.65 -4.35 32.7 -4.95 32.85 -5.05 Q34.05 -5.7 34.65 -6.45 35.1 -7.1 35.1 -8.15 L34.6 -10.65 Q34.1 -12.6 34.1 -13.95 34.1 -14.45 34.55 -14.95 L35.1 -15.9 36.45 -8.2 Q36.15 -6.9 34.55 -5.35 L32.85 -4.0 32.7 -3.9 31.4 -3.2 31.05 -4.5 30.55 -11.3 31.2 -11.75" fill="#555555" fill-rule="evenodd" stroke="none"/>
    <path d="M9.75 -7.75 Q9.3 -7.25 9.3 -6.6 9.3 -5.95 9.75 -5.5 10.25 -5.0 10.9 -4.95 11.55 -4.95 12.0 -5.45 L12.05 -5.5 Q12.55 -5.95 12.55 -6.6 L12.0 -7.75 Q11.55 -8.2 10.9 -8.2 10.25 -8.2 9.75 -7.75 M9.05 -6.6 Q9.0 -7.35 9.55 -7.9 L9.6 -7.95 Q10.15 -8.5 10.9 -8.45 11.65 -8.5 12.2 -7.95 12.8 -7.35 12.8 -6.6 12.75 -5.85 12.2 -5.3 11.65 -4.75 10.9 -4.7 10.15 -4.7 9.55 -5.3 9.0 -5.85 9.05 -6.6 M9.75 -3.25 Q9.3 -2.75 9.3 -2.1 9.3 -1.45 9.75 -1.0 10.25 -0.5 10.9 -0.45 11.55 -0.45 12.0 -0.95 L12.05 -1.0 Q12.55 -1.45 12.55 -2.1 L12.0 -3.25 Q11.55 -3.7 10.9 -3.7 10.25 -3.7 9.75 -3.25 M9.55 -0.8 Q9.0 -1.35 9.05 -2.1 9.0 -2.85 9.55 -3.4 L9.6 -3.45 Q10.15 -4.0 10.9 -3.95 11.65 -4.0 12.2 -3.45 12.8 -2.85 12.8 -2.1 12.75 -1.35 12.2 -0.8 11.65 -0.25 10.9 -0.2 10.15 -0.2 9.55 -0.8 M32.45 -12.55 Q32.9 -13.1 33.5 -13.05 34.1 -13.1 34.55 -12.55 35.0 -11.95 35.0 -11.2 34.95 -10.45 34.55 -9.9 34.1 -9.35 33.5 -9.3 32.9 -9.3 32.4 -9.9 31.95 -10.45 32.0 -11.2 31.95 -11.95 32.4 -12.5 L32.45 -12.55 M21.05 -8.95 Q20.6 -8.45 20.6 -7.8 20.6 -7.15 21.05 -6.7 21.55 -6.2 22.2 -6.15 22.85 -6.15 23.3 -6.65 L23.35 -6.7 Q23.85 -7.15 23.85 -7.8 23.8 -8.45 23.3 -8.95 L22.2 -9.4 Q21.55 -9.4 21.05 -8.95 M20.35 -7.8 Q20.3 -8.55 20.85 -9.1 L20.9 -9.15 Q21.45 -9.7 22.2 -9.65 22.95 -9.7 23.5 -9.15 24.1 -8.55 24.1 -7.8 24.05 -7.05 23.5 -6.5 22.95 -5.95 22.2 -5.9 21.45 -5.9 20.85 -6.5 20.3 -7.05 20.35 -7.8 M23.85 -3.3 Q23.8 -3.95 23.3 -4.45 L22.2 -4.9 Q21.55 -4.9 21.05 -4.45 20.6 -3.95 20.6 -3.3 20.6 -2.65 21.05 -2.2 21.55 -1.7 22.2 -1.65 22.85 -1.65 23.3 -2.15 L23.35 -2.2 Q23.85 -2.65 23.85 -3.3 M23.5 -4.65 Q24.1 -4.05 24.1 -3.3 24.05 -2.55 23.5 -2.0 22.95 -1.45 22.2 -1.4 21.45 -1.4 20.85 -2.0 20.3 -2.55 20.35 -3.3 20.3 -4.05 20.85 -4.6 L20.9 -4.65 Q21.45 -5.2 22.2 -5.15 22.95 -5.2 23.5 -4.65 M34.8 -11.2 L34.35 -12.35 33.5 -12.8 Q32.95 -12.8 32.55 -12.35 32.2 -11.85 32.2 -11.2 32.2 -10.55 32.55 -10.1 32.95 -9.6 33.5 -9.55 34.0 -9.55 34.35 -10.05 L34.4 -10.1 Q34.8 -10.55 34.8 -11.2 M32.0 -6.7 Q31.95 -7.45 32.4 -8.0 L32.45 -8.05 Q32.9 -8.6 33.5 -8.55 34.1 -8.6 34.55 -8.05 35.0 -7.45 35.0 -6.7 34.95 -5.95 34.55 -5.4 34.1 -4.85 33.5 -4.8 32.9 -4.8 32.4 -5.4 31.95 -5.95 32.0 -6.7 M32.55 -7.85 Q32.2 -7.35 32.2 -6.7 32.2 -6.05 32.55 -5.6 32.95 -5.1 33.5 -5.05 34.0 -5.05 34.35 -5.55 L34.4 -5.6 Q34.8 -6.05 34.8 -6.7 L34.35 -7.85 33.5 -8.3 Q32.95 -8.3 32.55 -7.85 M-26.15 -13.05 Q-26.7 -13.05 -27.1 -12.6 -27.45 -12.1 -27.45 -11.45 -27.45 -10.8 -27.1 -10.35 -26.7 -9.85 -26.15 -9.8 -25.65 -9.8 -25.3 -10.3 L-25.25 -10.35 Q-24.85 -10.8 -24.85 -11.45 -24.9 -12.1 -25.3 -12.6 -25.65 -13.05 -26.15 -13.05 M-26.15 -13.3 Q-25.55 -13.35 -25.1 -12.8 -24.65 -12.2 -24.65 -11.45 -24.7 -10.7 -25.1 -10.15 -25.55 -9.6 -26.15 -9.55 -26.75 -9.55 -27.25 -10.15 -27.7 -10.7 -27.65 -11.45 -27.7 -12.2 -27.25 -12.75 L-27.2 -12.8 Q-26.75 -13.35 -26.15 -13.3 M-24.85 -6.95 Q-24.9 -7.6 -25.3 -8.1 -25.65 -8.55 -26.15 -8.55 -26.7 -8.55 -27.1 -8.1 -27.45 -7.6 -27.45 -6.95 -27.45 -6.3 -27.1 -5.85 -26.7 -5.35 -26.15 -5.3 -25.65 -5.3 -25.3 -5.8 L-25.25 -5.85 Q-24.85 -6.3 -24.85 -6.95 M-25.1 -8.3 Q-24.65 -7.7 -24.65 -6.95 -24.7 -6.2 -25.1 -5.65 -25.55 -5.1 -26.15 -5.05 -26.75 -5.05 -27.25 -5.65 -27.7 -6.2 -27.65 -6.95 -27.7 -7.7 -27.25 -8.25 L-27.2 -8.3 Q-26.75 -8.85 -26.15 -8.8 -25.55 -8.85 -25.1 -8.3 M-15.15 -9.25 Q-14.55 -8.65 -14.55 -7.9 -14.6 -7.15 -15.15 -6.6 -15.7 -6.05 -16.45 -6.0 -17.2 -6.0 -17.8 -6.6 -18.35 -7.15 -18.3 -7.9 -18.35 -8.65 -17.8 -9.2 L-17.75 -9.25 Q-17.2 -9.8 -16.45 -9.75 -15.7 -9.8 -15.15 -9.25 M-16.45 -5.0 Q-17.1 -5.0 -17.6 -4.55 L-18.05 -3.4 Q-18.05 -2.75 -17.6 -2.3 -17.1 -1.8 -16.45 -1.75 -15.8 -1.75 -15.35 -2.25 L-15.3 -2.3 Q-14.8 -2.75 -14.8 -3.4 -14.85 -4.05 -15.35 -4.55 -15.8 -5.0 -16.45 -5.0 M-16.45 -6.25 Q-15.8 -6.25 -15.35 -6.75 L-15.3 -6.8 Q-14.8 -7.25 -14.8 -7.9 -14.85 -8.55 -15.35 -9.05 -15.8 -9.5 -16.45 -9.5 -17.1 -9.5 -17.6 -9.05 L-18.05 -7.9 Q-18.05 -7.25 -17.6 -6.8 -17.1 -6.3 -16.45 -6.25 M-17.8 -4.7 L-17.75 -4.75 Q-17.2 -5.3 -16.45 -5.25 -15.7 -5.3 -15.15 -4.75 -14.55 -4.15 -14.55 -3.4 -14.6 -2.65 -15.15 -2.1 -15.7 -1.55 -16.45 -1.5 -17.2 -1.5 -17.8 -2.1 -18.35 -2.65 -18.3 -3.4 -18.35 -4.15 -17.8 -4.7 M-3.25 -7.45 Q-3.7 -7.9 -4.35 -7.9 -5.0 -7.9 -5.5 -7.45 -5.95 -6.95 -5.95 -6.3 -5.95 -5.65 -5.5 -5.2 -5.0 -4.7 -4.35 -4.65 -3.7 -4.65 -3.25 -5.15 L-3.2 -5.2 Q-2.7 -5.65 -2.7 -6.3 -2.75 -6.95 -3.25 -7.45 M-5.7 -0.5 Q-6.25 -1.05 -6.2 -1.8 -6.25 -2.55 -5.7 -3.1 L-5.65 -3.15 Q-5.1 -3.7 -4.35 -3.65 -3.6 -3.7 -3.05 -3.15 -2.45 -2.55 -2.45 -1.8 -2.5 -1.05 -3.05 -0.5 -3.6 0.05 -4.35 0.1 -5.1 0.1 -5.7 -0.5 M-4.35 -8.15 Q-3.6 -8.2 -3.05 -7.65 -2.45 -7.05 -2.45 -6.3 -2.5 -5.55 -3.05 -5.0 -3.6 -4.45 -4.35 -4.4 -5.1 -4.4 -5.7 -5.0 -6.25 -5.55 -6.2 -6.3 -6.25 -7.05 -5.7 -7.6 L-5.65 -7.65 Q-5.1 -8.2 -4.35 -8.15 M-5.95 -1.8 Q-5.95 -1.15 -5.5 -0.7 -5.0 -0.2 -4.35 -0.15 -3.7 -0.15 -3.25 -0.65 L-3.2 -0.7 Q-2.7 -1.15 -2.7 -1.8 -2.75 -2.45 -3.25 -2.95 -3.7 -3.4 -4.35 -3.4 -5.0 -3.4 -5.5 -2.95 -5.95 -2.45 -5.95 -1.8" fill="#555555" fill-rule="evenodd" stroke="none"/>
    <path d="M9.75 -7.75 Q10.25 -8.2 10.9 -8.2 11.55 -8.2 12.0 -7.75 L12.55 -6.6 Q12.55 -5.95 12.05 -5.5 L12.0 -5.45 Q11.55 -4.95 10.9 -4.95 10.25 -5.0 9.75 -5.5 9.3 -5.95 9.3 -6.6 9.3 -7.25 9.75 -7.75 M9.75 -3.25 Q10.25 -3.7 10.9 -3.7 11.55 -3.7 12.0 -3.25 L12.55 -2.1 Q12.55 -1.45 12.05 -1.0 L12.0 -0.95 Q11.55 -0.45 10.9 -0.45 10.25 -0.5 9.75 -1.0 9.3 -1.45 9.3 -2.1 9.3 -2.75 9.75 -3.25 M11.75 -2.1 L11.5 -2.7 10.9 -2.95 10.3 -2.7 10.05 -2.1 10.3 -1.5 Q10.55 -1.25 10.9 -1.25 L11.5 -1.5 11.75 -2.1 M11.5 -7.2 L10.9 -7.45 10.3 -7.2 10.05 -6.6 10.3 -6.0 Q10.55 -5.75 10.9 -5.75 L11.5 -6.0 11.75 -6.6 11.5 -7.2 M22.2 -8.65 L21.6 -8.4 21.35 -7.8 Q21.35 -7.45 21.6 -7.2 21.85 -6.95 22.2 -6.95 22.55 -6.95 22.8 -7.2 L23.05 -7.8 22.8 -8.4 22.2 -8.65 M21.05 -8.95 Q21.55 -9.4 22.2 -9.4 L23.3 -8.95 Q23.8 -8.45 23.85 -7.8 23.85 -7.15 23.35 -6.7 L23.3 -6.65 Q22.85 -6.15 22.2 -6.15 21.55 -6.2 21.05 -6.7 20.6 -7.15 20.6 -7.8 20.6 -8.45 21.05 -8.95 M23.85 -3.3 Q23.85 -2.65 23.35 -2.2 L23.3 -2.15 Q22.85 -1.65 22.2 -1.65 21.55 -1.7 21.05 -2.2 20.6 -2.65 20.6 -3.3 20.6 -3.95 21.05 -4.45 21.55 -4.9 22.2 -4.9 L23.3 -4.45 Q23.8 -3.95 23.85 -3.3 M23.05 -3.3 L22.8 -3.9 22.2 -4.15 21.6 -3.9 21.35 -3.3 Q21.35 -2.95 21.6 -2.7 21.85 -2.45 22.2 -2.45 22.55 -2.45 22.8 -2.7 L23.05 -3.3 M34.8 -11.2 Q34.8 -10.55 34.4 -10.1 L34.35 -10.05 Q34.0 -9.55 33.5 -9.55 32.95 -9.6 32.55 -10.1 32.2 -10.55 32.2 -11.2 32.2 -11.85 32.55 -12.35 32.95 -12.8 33.5 -12.8 L34.35 -12.35 34.8 -11.2 M34.15 -11.2 L33.95 -11.8 33.5 -12.05 33.0 -11.8 32.8 -11.2 33.0 -10.6 Q33.2 -10.35 33.5 -10.35 33.75 -10.35 33.95 -10.6 L34.15 -11.2 M32.55 -7.85 Q32.95 -8.3 33.5 -8.3 L34.35 -7.85 34.8 -6.7 Q34.8 -6.05 34.4 -5.6 L34.35 -5.55 Q34.0 -5.05 33.5 -5.05 32.95 -5.1 32.55 -5.6 32.2 -6.05 32.2 -6.7 32.2 -7.35 32.55 -7.85 M33.5 -7.55 L33.0 -7.3 32.8 -6.7 33.0 -6.1 Q33.2 -5.85 33.5 -5.85 33.75 -5.85 33.95 -6.1 L34.15 -6.7 33.95 -7.3 33.5 -7.55 M-26.15 -13.05 Q-25.65 -13.05 -25.3 -12.6 -24.9 -12.1 -24.85 -11.45 -24.85 -10.8 -25.25 -10.35 L-25.3 -10.3 Q-25.65 -9.8 -26.15 -9.8 -26.7 -9.85 -27.1 -10.35 -27.45 -10.8 -27.45 -11.45 -27.45 -12.1 -27.1 -12.6 -26.7 -13.05 -26.15 -13.05 M-24.85 -6.95 Q-24.85 -6.3 -25.25 -5.85 L-25.3 -5.8 Q-25.65 -5.3 -26.15 -5.3 -26.7 -5.35 -27.1 -5.85 -27.45 -6.3 -27.45 -6.95 -27.45 -7.6 -27.1 -8.1 -26.7 -8.55 -26.15 -8.55 -25.65 -8.55 -25.3 -8.1 -24.9 -7.6 -24.85 -6.95 M-26.65 -7.55 L-26.85 -6.95 -26.65 -6.35 Q-26.45 -6.1 -26.15 -6.1 -25.9 -6.1 -25.7 -6.35 L-25.5 -6.95 -25.7 -7.55 -26.15 -7.8 -26.65 -7.55 M-25.7 -12.05 L-26.15 -12.3 -26.65 -12.05 -26.85 -11.45 -26.65 -10.85 Q-26.45 -10.6 -26.15 -10.6 -25.9 -10.6 -25.7 -10.85 L-25.5 -11.45 -25.7 -12.05 M-15.6 -7.9 L-15.85 -8.5 -16.45 -8.75 -17.05 -8.5 -17.3 -7.9 -17.05 -7.3 Q-16.8 -7.05 -16.45 -7.05 -16.1 -7.05 -15.85 -7.3 -15.6 -7.55 -15.6 -7.9 M-16.45 -6.25 Q-17.1 -6.3 -17.6 -6.8 -18.05 -7.25 -18.05 -7.9 L-17.6 -9.05 Q-17.1 -9.5 -16.45 -9.5 -15.8 -9.5 -15.35 -9.05 -14.85 -8.55 -14.8 -7.9 -14.8 -7.25 -15.3 -6.8 L-15.35 -6.75 Q-15.8 -6.25 -16.45 -6.25 M-16.45 -5.0 Q-15.8 -5.0 -15.35 -4.55 -14.85 -4.05 -14.8 -3.4 -14.8 -2.75 -15.3 -2.3 L-15.35 -2.25 Q-15.8 -1.75 -16.45 -1.75 -17.1 -1.8 -17.6 -2.3 -18.05 -2.75 -18.05 -3.4 L-17.6 -4.55 Q-17.1 -5.0 -16.45 -5.0 M-15.6 -3.4 L-15.85 -4.0 -16.45 -4.25 -17.05 -4.0 -17.3 -3.4 -17.05 -2.8 Q-16.8 -2.55 -16.45 -2.55 -16.1 -2.55 -15.85 -2.8 -15.6 -3.05 -15.6 -3.4 M-3.5 -6.3 L-3.75 -6.9 -4.35 -7.15 -4.95 -6.9 -5.2 -6.3 -4.95 -5.7 Q-4.7 -5.45 -4.35 -5.45 -4.0 -5.45 -3.75 -5.7 -3.5 -5.95 -3.5 -6.3 M-3.25 -7.45 Q-2.75 -6.95 -2.7 -6.3 -2.7 -5.65 -3.2 -5.2 L-3.25 -5.15 Q-3.7 -4.65 -4.35 -4.65 -5.0 -4.7 -5.5 -5.2 -5.95 -5.65 -5.95 -6.3 -5.95 -6.95 -5.5 -7.45 -5.0 -7.9 -4.35 -7.9 -3.7 -7.9 -3.25 -7.45 M-5.95 -1.8 Q-5.95 -2.45 -5.5 -2.95 -5.0 -3.4 -4.35 -3.4 -3.7 -3.4 -3.25 -2.95 -2.75 -2.45 -2.7 -1.8 -2.7 -1.15 -3.2 -0.7 L-3.25 -0.65 Q-3.7 -0.15 -4.35 -0.15 -5.0 -0.2 -5.5 -0.7 -5.95 -1.15 -5.95 -1.8 M-3.5 -1.8 L-3.75 -2.4 -4.35 -2.65 -4.95 -2.4 -5.2 -1.8 -4.95 -1.2 Q-4.7 -0.95 -4.35 -0.95 -4.0 -0.95 -3.75 -1.2 -3.5 -1.45 -3.5 -1.8" fill="#8c8c8c" fill-rule="evenodd" stroke="none"/>
    <path d="M11.5 -7.2 L11.75 -6.6 11.5 -6.0 10.9 -5.75 Q10.55 -5.75 10.3 -6.0 L10.05 -6.6 10.3 -7.2 10.9 -7.45 11.5 -7.2 M11.75 -2.1 L11.5 -1.5 10.9 -1.25 Q10.55 -1.25 10.3 -1.5 L10.05 -2.1 10.3 -2.7 10.9 -2.95 11.5 -2.7 11.75 -2.1 M22.2 -8.65 L22.8 -8.4 23.05 -7.8 22.8 -7.2 Q22.55 -6.95 22.2 -6.95 21.85 -6.95 21.6 -7.2 21.35 -7.45 21.35 -7.8 L21.6 -8.4 22.2 -8.65 M23.05 -3.3 L22.8 -2.7 Q22.55 -2.45 22.2 -2.45 21.85 -2.45 21.6 -2.7 21.35 -2.95 21.35 -3.3 L21.6 -3.9 22.2 -4.15 22.8 -3.9 23.05 -3.3 M34.15 -11.2 L33.95 -10.6 Q33.75 -10.35 33.5 -10.35 33.2 -10.35 33.0 -10.6 L32.8 -11.2 33.0 -11.8 33.5 -12.05 33.95 -11.8 34.15 -11.2 M33.5 -7.55 L33.95 -7.3 34.15 -6.7 33.95 -6.1 Q33.75 -5.85 33.5 -5.85 33.2 -5.85 33.0 -6.1 L32.8 -6.7 33.0 -7.3 33.5 -7.55 M-25.7 -12.05 L-25.5 -11.45 -25.7 -10.85 Q-25.9 -10.6 -26.15 -10.6 -26.45 -10.6 -26.65 -10.85 L-26.85 -11.45 -26.65 -12.05 -26.15 -12.3 -25.7 -12.05 M-26.65 -7.55 L-26.15 -7.8 -25.7 -7.55 -25.5 -6.95 -25.7 -6.35 Q-25.9 -6.1 -26.15 -6.1 -26.45 -6.1 -26.65 -6.35 L-26.85 -6.95 -26.65 -7.55 M-15.6 -7.9 Q-15.6 -7.55 -15.85 -7.3 -16.1 -7.05 -16.45 -7.05 -16.8 -7.05 -17.05 -7.3 L-17.3 -7.9 -17.05 -8.5 -16.45 -8.75 -15.85 -8.5 -15.6 -7.9 M-15.6 -3.4 Q-15.6 -3.05 -15.85 -2.8 -16.1 -2.55 -16.45 -2.55 -16.8 -2.55 -17.05 -2.8 L-17.3 -3.4 -17.05 -4.0 -16.45 -4.25 -15.85 -4.0 -15.6 -3.4 M-3.5 -6.3 Q-3.5 -5.95 -3.75 -5.7 -4.0 -5.45 -4.35 -5.45 -4.7 -5.45 -4.95 -5.7 L-5.2 -6.3 -4.95 -6.9 -4.35 -7.15 -3.75 -6.9 -3.5 -6.3 M-3.5 -1.8 Q-3.5 -1.45 -3.75 -1.2 -4.0 -0.95 -4.35 -0.95 -4.7 -0.95 -4.95 -1.2 L-5.2 -1.8 -4.95 -2.4 -4.35 -2.65 -3.75 -2.4 -3.5 -1.8" fill="#383838" fill-rule="evenodd" stroke="none"/>
  </g>
</svg>
