<?xml version="1.0" encoding="UTF-8" standalone="no"?>
<svg xmlns:ffdec="https://www.free-decompiler.com/flash" xmlns:xlink="http://www.w3.org/1999/xlink" ffdec:objectType="shape" height="185.4px" width="139.25px" xmlns="http://www.w3.org/2000/svg">
  <g transform="matrix(1.0, 0.0, 0.0, 1.0, 52.2, 134.9)">
    <path d="M23.9 39.1 L16.05 39.7 16.5 16.3 Q17.25 21.85 20.0 29.7 22.2 35.95 23.9 39.1" fill="#161616" fill-rule="evenodd" stroke="none"/>
    <path d="M-15.3 -122.95 Q-17.9 -118.45 -19.15 -114.2 -20.05 -111.15 -20.05 -109.2 L-19.8 -105.75 Q-19.6 -104.75 -19.0 -103.7 -19.0 -102.55 -17.95 -101.7 -16.95 -100.9 -15.5 -100.9 -14.1 -100.9 -12.7 -101.5 -11.2 -102.15 -10.55 -103.1 -7.7 -104.15 -2.7 -110.8 3.2 -118.65 3.95 -125.45 4.05 -124.4 3.75 -122.6 L3.1 -119.75 2.2 -117.6 1.7 -116.65 -2.2 -111.25 -20.2 -87.7 Q-21.55 -95.6 -21.55 -101.9 -21.55 -107.6 -20.55 -111.8 -19.1 -117.95 -15.3 -122.95 M-16.3 -106.9 L-16.95 -109.1 -17.2 -111.3 Q-17.2 -118.85 -11.05 -125.55 -5.8 -131.3 -2.35 -131.3 1.4 -131.3 1.4 -126.05 1.4 -123.35 0.05 -119.35 -1.85 -113.75 -5.45 -110.6 L-1.3 -118.8 Q-6.45 -116.8 -11.35 -112.5 -15.4 -108.95 -16.3 -106.9 M3.5 -103.95 Q3.5 -108.5 4.65 -112.0 6.55 -117.55 10.9 -117.55 14.3 -117.55 17.55 -104.1 20.6 -91.7 20.6 -81.95 20.6 -73.8 18.45 -69.55 17.0 -66.7 15.75 -66.7 13.6 -66.7 8.75 -79.55 3.5 -93.55 3.5 -103.95" fill="#724931" fill-rule="evenodd" stroke="none"/>
    <path d="M-13.85 -101.8 L-12.8 -102.15 Q-11.6 -102.55 -10.55 -103.1 -11.2 -102.15 -12.7 -101.5 -14.1 -100.9 -15.5 -100.9 -14.95 -101.1 -14.35 -101.45 L-13.85 -101.8 M-16.25 -106.9 L-16.3 -106.9 Q-15.4 -108.95 -11.35 -112.5 -6.45 -116.8 -1.3 -118.8 L-5.45 -110.6 Q-6.55 -109.4 -9.0 -107.75 -11.9 -105.8 -13.5 -105.6 -15.15 -106.9 -16.25 -106.9" fill="#83563a" fill-rule="evenodd" stroke="none"/>
    <path d="M2.9 -133.0 Q4.2 -131.15 4.2 -127.85 L3.95 -125.45 Q3.2 -118.65 -2.7 -110.8 -7.7 -104.15 -10.55 -103.1 -11.6 -102.55 -12.8 -102.15 L-13.85 -101.8 -13.05 -103.2 Q-5.1 -106.4 -0.4 -115.15 3.25 -122.0 3.25 -127.45 3.25 -133.95 -1.2 -133.95 -7.25 -133.95 -13.35 -124.75 -19.05 -116.15 -19.05 -109.3 -19.05 -107.6 -18.5 -105.6 L-19.0 -103.7 Q-19.6 -104.75 -19.8 -105.75 L-20.05 -109.2 Q-20.05 -111.15 -19.15 -114.2 -17.9 -118.45 -15.3 -122.95 -13.8 -125.55 -11.1 -128.6 -8.7 -131.35 -7.4 -132.2 -6.55 -133.2 -4.4 -134.05 L-0.8 -134.9 Q1.9 -133.95 2.9 -133.0 M-17.45 -106.55 L-17.9 -108.55 -18.1 -110.65 Q-18.1 -118.65 -11.2 -126.4 -5.1 -133.25 -1.35 -133.25 0.2 -133.25 1.05 -132.5 2.5 -131.25 2.5 -127.7 2.5 -123.35 -1.25 -115.95 -6.1 -106.35 -13.05 -104.4 L-13.5 -105.6 Q-11.9 -105.8 -9.0 -107.75 -6.55 -109.4 -5.45 -110.6 -1.85 -113.75 0.05 -119.35 1.4 -123.35 1.4 -126.05 1.4 -131.3 -2.35 -131.3 -5.8 -131.3 -11.05 -125.55 -17.2 -118.85 -17.2 -111.3 L-16.95 -109.1 -16.3 -106.9 -16.25 -106.9 -17.45 -106.55" fill="#794613" fill-rule="evenodd" stroke="none"/>
    <path d="M-18.5 -105.6 Q-19.05 -107.6 -19.05 -109.3 -19.05 -116.15 -13.35 -124.75 -7.25 -133.95 -1.2 -133.95 3.25 -133.95 3.25 -127.45 3.25 -122.0 -0.4 -115.15 -5.1 -106.4 -13.05 -103.2 L-13.05 -104.4 Q-6.1 -106.35 -1.25 -115.95 2.5 -123.35 2.5 -127.7 2.5 -131.25 1.05 -132.5 0.2 -133.25 -1.35 -133.25 -5.1 -133.25 -11.2 -126.4 -18.1 -118.65 -18.1 -110.65 L-17.9 -108.55 -17.45 -106.55 -18.5 -105.6" fill="#edb127" fill-rule="evenodd" stroke="none"/>
    <path d="M-19.0 -103.7 L-18.5 -105.6 -17.45 -106.55 -16.25 -106.9 Q-15.15 -106.9 -13.5 -105.6 L-13.05 -104.4 -13.05 -103.2 -13.85 -101.8 -14.35 -101.45 Q-14.95 -101.1 -15.5 -100.9 -16.95 -100.9 -17.95 -101.7 -19.0 -102.55 -19.0 -103.7 M-17.4 -105.3 Q-18.0 -104.75 -18.0 -103.9 -18.0 -103.05 -17.4 -102.45 -16.85 -101.9 -16.0 -101.9 -15.15 -101.9 -14.55 -102.45 -14.0 -103.05 -14.0 -103.9 -14.0 -104.75 -14.55 -105.3 -15.15 -105.9 -16.0 -105.9 -16.85 -105.9 -17.4 -105.3" fill="#4e4e4e" fill-rule="evenodd" stroke="none"/>
    <path d="M-17.4 -105.3 Q-16.85 -105.9 -16.0 -105.9 -15.15 -105.9 -14.55 -105.3 -14.0 -104.75 -14.0 -103.9 -14.0 -103.05 -14.55 -102.45 -15.15 -101.9 -16.0 -101.9 -16.85 -101.9 -17.4 -102.45 -18.0 -103.05 -18.0 -103.9 -18.0 -104.75 -17.4 -105.3" fill="#cccccc" fill-rule="evenodd" stroke="none"/>
    <path d="M12.5 -118.4 L11.7 -118.5 Q5.9 -117.15 3.55 -111.9 2.2 -108.95 2.2 -105.5 2.2 -98.5 6.55 -82.15 11.45 -63.6 15.65 -63.6 L18.3 -65.0 Q20.5 -66.6 20.8 -68.65 20.3 -58.45 25.55 -40.2 31.05 -21.05 39.95 -3.2 49.8 16.5 60.0 26.45 70.65 36.85 79.8 34.55 L69.15 38.05 61.8 38.75 48.2 37.1 46.1 45.0 Q44.0 43.8 39.45 42.1 35.5 40.6 35.2 40.6 34.6 40.6 32.45 43.85 L30.45 47.05 Q23.55 31.3 21.55 23.35 19.1 13.55 13.5 -31.4 11.85 -1.85 11.85 18.1 L12.1 30.95 Q12.4 39.2 12.95 42.85 L8.6 40.45 6.6 39.85 2.6 42.85 Q-1.2 45.8 -2.1 45.8 -5.5 45.8 -7.75 42.7 -9.95 39.6 -11.6 39.6 L-14.45 40.8 -16.9 42.0 Q-22.3 42.0 -27.85 38.3 -30.75 36.35 -32.8 34.1 -31.05 32.8 -28.7 29.7 L-26.65 26.7 Q-19.15 11.95 -19.15 8.35 -19.15 7.75 -19.75 7.4 L-20.4 7.2 Q-22.15 9.6 -25.25 18.3 -27.5 24.65 -30.05 24.65 -38.75 24.65 -43.6 21.7 -46.15 20.15 -48.1 17.1 -34.8 14.95 -24.55 -8.4 -14.8 -30.65 -14.8 -54.9 -14.8 -61.55 -21.3 -73.45 -27.85 -85.3 -27.85 -92.75 -27.85 -97.5 -25.6 -104.6 -23.75 -110.55 -21.35 -115.2 -22.55 -104.35 -22.55 -100.5 -22.55 -93.2 -21.75 -88.7 -21.0 -85.5 -21.0 -84.65 L-8.5 -101.0 Q-0.4 -111.65 0.4 -113.0 L8.8 -125.15 12.5 -118.4 M44.1 38.8 Q43.5 35.8 40.65 31.75 38.2 28.3 36.3 26.8 L35.95 27.9 Q37.65 33.65 38.7 35.55 40.9 39.65 44.1 38.8 M16.25 -45.95 L14.65 -46.05 Q14.45 -30.25 20.95 2.45 27.5 35.7 31.9 38.9 24.05 3.2 19.8 -22.1 17.6 -35.3 16.25 -45.95 M23.0 -31.9 L22.45 -31.85 Q26.75 6.4 38.65 22.1 47.4 33.55 58.55 31.5 L41.85 12.9 Q36.3 6.6 34.2 2.65 32.2 -1.1 30.05 -9.0 L23.85 -31.8 23.0 -31.9 M11.05 -57.8 Q10.25 -60.85 8.6 -61.3 L4.45 -54.8 Q2.85 -52.2 2.3 -48.0 1.35 -40.9 1.35 8.0 1.35 21.8 2.15 28.85 2.85 35.2 4.4 37.25 7.3 37.05 7.85 33.65 L7.95 28.0 7.0 10.0 Q7.1 -6.85 10.05 -38.8 10.55 -44.25 11.2 -49.15 11.55 -51.65 11.55 -54.65 L11.05 -57.8 M1.6 -61.6 Q3.75 -68.8 5.45 -73.55 5.45 -78.65 2.75 -79.9 -1.0 -81.55 -8.15 -72.75 -11.8 -68.25 -13.05 -47.3 -14.75 -19.5 -16.35 -11.3 -13.5 -11.75 -9.3 -21.6 -5.8 -29.85 -5.0 -34.35 -2.75 -47.25 1.6 -61.6 M2.45 -90.0 L2.05 -95.1 0.6 -107.55 Q-4.4 -103.85 -8.15 -97.7 -12.0 -91.5 -12.0 -87.05 -12.0 -82.6 -4.8 -82.6 -1.75 -82.6 0.1 -84.05 2.45 -85.9 2.45 -90.0 M-12.4 38.05 L-6.6 39.5 Q-4.75 39.5 0.3 3.75 0.3 -0.15 -2.2 -7.25 -2.5 -7.05 -7.45 15.4 L-12.4 38.05 M-24.3 37.45 Q-23.7 38.2 -21.9 38.2 -18.7 38.2 -12.85 17.2 -6.95 -4.15 -4.9 -23.8 -10.6 -1.95 -18.2 15.7 -25.6 32.8 -29.8 34.55 -25.4 36.1 -24.3 37.45 M-37.25 18.0 Q-34.75 19.6 -28.3 10.85 -21.95 2.15 -21.95 -2.35 -22.45 -2.2 -29.75 7.3 -37.2 16.95 -37.25 18.0" fill="#d946b0" fill-rule="evenodd" stroke="none"/>
    <path d="M2.45 -90.0 Q2.45 -85.9 0.1 -84.05 -1.75 -82.6 -4.8 -82.6 -12.0 -82.6 -12.0 -87.05 -12.0 -91.5 -8.15 -97.7 -4.4 -103.85 0.6 -107.55 L2.05 -95.1 2.45 -90.0 M1.6 -61.6 Q-2.75 -47.25 -5.0 -34.35 -5.8 -29.85 -9.3 -21.6 -13.5 -11.75 -16.35 -11.3 -14.75 -19.5 -13.05 -47.3 -11.8 -68.25 -8.15 -72.75 -1.0 -81.55 2.75 -79.9 5.45 -78.65 5.45 -73.55 3.75 -68.8 1.6 -61.6 M11.05 -57.8 L11.55 -54.65 Q11.55 -51.65 11.2 -49.15 10.55 -44.25 10.05 -38.8 7.1 -6.85 7.0 10.0 L7.95 28.0 7.85 33.65 Q7.3 37.05 4.4 37.25 2.85 35.2 2.15 28.85 1.35 21.8 1.35 8.0 1.35 -40.9 2.3 -48.0 2.85 -52.2 4.45 -54.8 L8.6 -61.3 Q10.25 -60.85 11.05 -57.8 M23.0 -31.9 L23.85 -31.8 30.05 -9.0 Q32.2 -1.1 34.2 2.65 36.3 6.6 41.85 12.9 L58.55 31.5 Q47.4 33.55 38.65 22.1 26.75 6.4 22.45 -31.85 L23.0 -31.9 M16.25 -45.95 Q17.6 -35.3 19.8 -22.1 24.05 3.2 31.9 38.9 27.5 35.7 20.95 2.45 14.45 -30.25 14.65 -46.05 L16.25 -45.95 M44.1 38.8 Q40.9 39.65 38.7 35.55 37.65 33.65 35.95 27.9 L36.3 26.8 Q38.2 28.3 40.65 31.75 43.5 35.8 44.1 38.8 M-37.25 18.0 Q-37.2 16.95 -29.75 7.3 -22.45 -2.2 -21.95 -2.35 -21.95 2.15 -28.3 10.85 -34.75 19.6 -37.25 18.0 M-24.3 37.45 Q-25.4 36.1 -29.8 34.55 -25.6 32.8 -18.2 15.7 -10.6 -1.95 -4.9 -23.8 -6.95 -4.15 -12.85 17.2 -18.7 38.2 -21.9 38.2 -23.7 38.2 -24.3 37.45 M-12.4 38.05 L-7.45 15.4 Q-2.5 -7.05 -2.2 -7.25 0.3 -0.15 0.3 3.75 -4.75 39.5 -6.6 39.5 L-12.4 38.05" fill="#ef6dcb" fill-rule="evenodd" stroke="none"/>
    <path d="M3.95 -125.45 L4.2 -127.85 Q4.2 -131.15 2.9 -133.0 7.1 -131.85 11.8 -124.4 18.35 -114.05 22.2 -95.65 L25.55 -62.45 Q28.5 -34.55 31.4 -34.55 L34.8 -25.0 Q39.25 -13.1 44.55 -2.45 48.85 6.15 53.5 12.85 56.95 17.75 59.1 19.75 66.0 26.15 72.4 28.3 77.65 30.1 86.4 30.1 87.05 30.1 87.05 30.5 L86.95 31.65 Q86.95 36.55 74.95 40.3 65.7 43.15 60.9 43.15 L56.05 42.8 50.0 41.4 50.05 43.45 Q49.1 48.2 48.0 48.2 38.3 44.8 36.5 43.9 30.75 47.7 30.95 49.55 30.95 50.0 31.4 50.35 31.6 50.5 31.1 50.5 30.5 50.5 29.4 48.75 L27.05 44.9 23.9 39.1 Q22.2 35.95 20.0 29.7 17.25 21.85 16.5 16.3 L16.05 39.7 Q15.8 48.3 14.8 48.3 L11.95 46.5 Q9.05 44.65 7.65 44.65 6.5 44.65 4.65 46.9 2.8 49.1 -0.2 49.1 -3.7 49.1 -6.3 46.75 -8.4 44.85 -9.7 41.8 -15.4 45.6 -16.4 45.6 -22.85 45.6 -30.0 41.3 -37.0 37.1 -37.0 33.5 -37.0 32.5 -31.9 27.6 -39.25 27.6 -44.45 24.25 -49.7 20.9 -52.2 14.6 -47.55 14.55 -41.65 8.9 -35.7 3.2 -30.45 -6.4 -17.9 -29.25 -17.9 -55.8 -17.9 -64.95 -24.05 -76.85 L-28.3 -85.3 Q-30.2 -89.75 -30.2 -93.2 -30.2 -102.2 -25.1 -112.55 -18.7 -125.4 -7.4 -132.2 -8.7 -131.35 -11.1 -128.6 -13.8 -125.55 -15.3 -122.95 -19.1 -117.95 -20.55 -111.8 -21.55 -107.6 -21.55 -101.9 -21.55 -95.6 -20.2 -87.7 L-2.2 -111.25 1.7 -116.65 2.2 -117.6 3.1 -119.75 3.75 -122.6 Q4.05 -124.4 3.95 -125.45 M12.5 -118.4 L8.8 -125.15 0.4 -113.0 Q-0.4 -111.65 -8.5 -101.0 L-21.0 -84.65 Q-21.0 -85.5 -21.75 -88.7 -22.55 -93.2 -22.55 -100.5 -22.55 -104.35 -21.35 -115.2 -23.75 -110.55 -25.6 -104.6 -27.85 -97.5 -27.85 -92.75 -27.85 -85.3 -21.3 -73.45 -14.8 -61.55 -14.8 -54.9 -14.8 -30.65 -24.55 -8.4 -34.8 14.95 -48.1 17.1 -46.15 20.15 -43.6 21.7 -38.75 24.65 -30.05 24.65 -27.5 24.65 -25.25 18.3 -22.15 9.6 -20.4 7.2 L-19.75 7.4 Q-19.15 7.75 -19.15 8.35 -19.15 11.95 -26.65 26.7 L-28.7 29.7 Q-31.05 32.8 -32.8 34.1 -30.75 36.35 -27.85 38.3 -22.3 42.0 -16.9 42.0 L-14.45 40.8 -11.6 39.6 Q-9.95 39.6 -7.75 42.7 -5.5 45.8 -2.1 45.8 -1.2 45.8 2.6 42.85 L6.6 39.85 8.6 40.45 12.95 42.85 Q12.4 39.2 12.1 30.95 L11.85 18.1 Q11.85 -1.85 13.5 -31.4 19.1 13.55 21.55 23.35 23.55 31.3 30.45 47.05 L32.45 43.85 Q34.6 40.6 35.2 40.6 35.5 40.6 39.45 42.1 44.0 43.8 46.1 45.0 L48.2 37.1 61.8 38.75 69.15 38.05 79.8 34.55 Q70.65 36.85 60.0 26.45 49.8 16.5 39.95 -3.2 31.05 -21.05 25.55 -40.2 20.3 -58.45 20.8 -68.65 20.5 -66.6 18.3 -65.0 L15.65 -63.6 Q11.45 -63.6 6.55 -82.15 2.2 -98.5 2.2 -105.5 2.2 -108.95 3.55 -111.9 5.9 -117.15 11.7 -118.5 L12.5 -118.4 M3.5 -103.95 Q3.5 -93.55 8.75 -79.55 13.6 -66.7 15.75 -66.7 17.0 -66.7 18.45 -69.55 20.6 -73.8 20.6 -81.95 20.6 -91.7 17.55 -104.1 14.3 -117.55 10.9 -117.55 6.55 -117.55 4.65 -112.0 3.5 -108.5 3.5 -103.95" fill="#912671" fill-rule="evenodd" stroke="none"/>
  </g>
</svg>
