<?xml version="1.0" encoding="UTF-8" standalone="no"?>
<svg xmlns:ffdec="https://www.free-decompiler.com/flash" xmlns:xlink="http://www.w3.org/1999/xlink" ffdec:objectType="shape" height="136.9px" width="203.05px" xmlns="http://www.w3.org/2000/svg">
  <g transform="matrix(1.0, 0.0, 0.0, 1.0, 1.0, 10.9)">
    <path d="M197.7 45.95 Q201.0 53.8 201.05 62.5 201.0 66.8 200.2 70.95 196.1 91.45 171.6 106.7 142.15 125.0 100.5 125.0 58.85 125.0 29.45 106.7 4.9 91.45 0.8 70.95 0.0 66.8 0.0 62.5 0.0 53.8 3.3 45.95 9.85 30.45 29.45 18.3 58.85 0.0 100.5 0.0 142.15 0.0 171.6 18.3 191.15 30.45 197.7 45.95" fill="#fdf8f2" fill-rule="evenodd" stroke="none"/>
    <path d="M197.7 45.95 Q201.0 53.8 201.05 62.5 201.0 66.8 200.2 70.95 196.1 91.45 171.6 106.7 142.15 125.0 100.5 125.0 58.85 125.0 29.45 106.7 4.9 91.45 0.8 70.95 0.0 66.8 0.0 62.5 0.0 53.8 3.3 45.95 9.85 30.45 29.45 18.3 58.85 0.0 100.5 0.0 142.15 0.0 171.6 18.3 191.15 30.45 197.7 45.95 Z" fill="none" stroke="#9a806d" stroke-linecap="round" stroke-linejoin="round" stroke-width="2.0"/>
    <path d="M84.3 5.6 L85.2 4.85 Q86.7 3.4 86.7 1.25 86.7 -0.9 85.2 -2.4 83.7 -3.9 81.55 -3.9 L78.3 -3.9 78.3 -1.15 78.3 6.35 81.55 6.35 Q83.05 6.35 84.3 5.6 M70.75 -8.9 L70.75 -10.15 82.75 -10.15 Q87.5 -10.15 90.85 -6.85 94.2 -3.5 94.2 1.25 L94.15 2.3 Q94.0 4.3 93.2 6.1 92.35 7.85 90.85 9.35 L89.45 10.55 Q86.55 12.7 82.75 12.7 L70.75 12.7 70.75 -8.9 M99.55 -8.9 L100.0 -10.15 109.2 -10.15 118.0 12.7 117.05 12.7 108.9 12.7 108.0 10.4 101.15 10.4 100.3 12.7 91.15 12.7 93.65 6.3 99.55 -8.9 M115.55 -8.9 L115.0 -10.15 122.25 -10.15 125.35 -3.5 125.75 -2.6 128.8 -8.9 129.4 -10.15 136.45 -10.15 135.85 -8.8 129.55 5.35 129.55 6.95 129.55 12.7 129.3 12.7 122.0 12.7 122.0 5.5 115.6 -8.85 115.55 -8.9 M104.6 1.65 L103.2 5.2 105.95 5.2 104.6 1.65" fill="#ffffff" fill-rule="evenodd" stroke="none"/>
    <path d="M69.0 12.7 L69.0 -8.15 69.25 -8.65 69.75 -8.9 70.75 -8.9 70.75 12.7 69.0 12.7 M94.15 2.3 L98.3 -8.4 98.6 -8.75 99.0 -8.9 99.55 -8.9 93.65 6.3 93.2 6.1 Q94.0 4.3 94.15 2.3 M69.75 15.45 Q69.45 15.45 69.25 15.25 L69.0 14.7 69.75 15.45 M113.35 -7.85 Q113.2 -8.1 113.3 -8.3 L113.55 -8.75 114.0 -8.9 115.55 -8.9 115.6 -8.85 113.35 -7.85 M125.35 -3.5 L127.75 -8.45 128.0 -8.75 128.4 -8.9 128.8 -8.9 125.75 -2.6 125.35 -3.5 M135.85 -8.8 L135.9 -8.75 136.2 -8.3 136.15 -7.85 129.55 6.95 129.55 5.35 135.85 -8.8 M104.6 1.65 L105.95 5.2 103.2 5.2 104.6 1.65" fill="#999999" fill-rule="evenodd" stroke="none"/>
    <path d="M84.3 5.6 Q84.95 4.6 84.95 3.25 84.95 1.4 83.7 0.15 82.4 -1.15 80.55 -1.15 L78.3 -1.15 78.3 -3.9 81.55 -3.9 Q83.7 -3.9 85.2 -2.4 86.7 -0.9 86.7 1.25 86.7 3.4 85.2 4.85 L84.3 5.6 M117.05 12.7 L117.7 14.45 117.75 14.7 117.75 14.9 117.45 15.3 117.0 15.45 107.9 15.45 107.5 15.35 107.2 15.0 106.5 13.15 100.7 13.15 100.0 14.95 99.75 15.3 99.3 15.45 90.15 15.45 89.7 15.3 89.45 14.9 89.45 14.45 90.5 11.8 90.4 11.9 Q86.8 15.45 81.75 15.45 L69.75 15.45 69.0 14.7 69.0 12.7 70.75 12.7 82.75 12.7 Q86.55 12.7 89.45 10.55 L90.85 9.35 Q92.35 7.85 93.2 6.1 L93.65 6.3 91.15 12.7 100.3 12.7 101.15 10.4 108.0 10.4 108.9 12.7 117.05 12.7 M129.3 12.7 L129.3 14.7 129.1 15.25 128.55 15.45 121.0 15.45 120.5 15.25 120.25 14.7 120.25 7.65 113.35 -7.85 115.6 -8.85 122.0 5.5 122.0 12.7 129.3 12.7" fill="#958573" fill-rule="evenodd" stroke="none"/>
    <path d="M84.3 5.6 L85.2 4.85 Q86.7 3.4 86.7 1.25 86.7 -0.9 85.2 -2.4 83.7 -3.9 81.55 -3.9 L78.3 -3.9 78.3 -1.15 78.3 6.35 81.55 6.35 Q83.05 6.35 84.3 5.6 M70.75 -8.9 L70.75 -10.15 82.75 -10.15 Q87.5 -10.15 90.85 -6.85 94.2 -3.5 94.2 1.25 L94.15 2.3 Q94.0 4.3 93.2 6.1 92.35 7.85 90.85 9.35 L89.45 10.55 Q86.55 12.7 82.75 12.7 L70.75 12.7 70.75 -8.9 M99.55 -8.9 L100.0 -10.15 109.2 -10.15 118.0 12.7 117.05 12.7 108.9 12.7 108.0 10.4 101.15 10.4 100.3 12.7 91.15 12.7 93.65 6.3 99.55 -8.9 M115.55 -8.9 L115.0 -10.15 122.25 -10.15 125.35 -3.5 125.75 -2.6 128.8 -8.9 129.4 -10.15 136.45 -10.15 135.85 -8.8 129.55 5.35 129.55 6.95 129.55 12.7 129.3 12.7 122.0 12.7 122.0 5.5 115.6 -8.85 115.55 -8.9 M104.6 1.65 L103.2 5.2 105.95 5.2 104.6 1.65 Z" fill="none" stroke="#333333" stroke-linecap="round" stroke-linejoin="round" stroke-width="1.5"/>
  </g>
</svg>
