<?xml version="1.0" encoding="UTF-8" standalone="no"?>
<svg xmlns:ffdec="https://www.free-decompiler.com/flash" xmlns:xlink="http://www.w3.org/1999/xlink" ffdec:objectType="shape" height="19.25px" width="15.1px" xmlns="http://www.w3.org/2000/svg">
  <g transform="matrix(1.0, 0.0, 0.0, 1.0, -2.75, 14.3)">
    <path d="M3.45 -2.05 L3.45 -2.1 Q4.0 -2.9 5.05 -3.5 L6.5 -4.3 6.55 -4.35 Q8.2 -4.95 10.15 -4.95 13.2 -4.95 15.35 -3.5 L15.4 -3.5 Q17.6 -2.1 17.6 0.0 17.6 2.05 15.35 3.55 13.2 4.95 10.15 4.95 7.15 4.95 5.0 3.55 L4.95 3.5 Q2.75 2.05 2.75 0.0 2.75 -1.15 3.4 -2.0 L3.45 -2.05" fill="#7c5136" fill-rule="evenodd" stroke="none"/>
    <path d="M3.3 -1.2 Q3.75 -1.9 4.75 -2.45 L6.0 -3.1 6.05 -3.1 9.15 -3.6 Q11.8 -3.6 13.65 -2.45 L13.7 -2.4 Q15.6 -1.25 15.6 0.5 15.6 2.2 13.65 3.45 11.8 4.6 9.15 4.6 6.55 4.6 4.7 3.45 L4.65 3.4 Q2.75 2.2 2.75 0.5 2.75 -0.5 3.35 -1.25 L3.3 -1.2 M7.65 -1.05 L7.1 -0.75 7.0 -0.65 6.5 -0.25 6.5 -0.2 Q6.25 0.1 6.25 0.5 6.25 1.2 7.05 1.7 L7.1 1.75 Q7.95 2.25 9.15 2.25 10.4 2.25 11.25 1.75 12.1 1.2 12.1 0.5 12.1 -0.2 11.3 -0.7 L11.25 -0.75 Q10.4 -1.25 9.15 -1.25 L7.7 -1.05 7.65 -1.05" fill="#20150f" fill-rule="evenodd" stroke="none"/>
    <path d="M7.65 -1.05 L7.7 -1.05 9.15 -1.25 Q10.4 -1.25 11.25 -0.75 L11.3 -0.7 Q12.1 -0.2 12.1 0.5 12.1 1.2 11.25 1.75 10.4 2.25 9.15 2.25 7.95 2.25 7.1 1.75 L7.05 1.7 Q6.25 1.2 6.25 0.5 6.25 0.1 6.5 -0.2 L6.5 -0.25 7.0 -0.65 7.1 -0.75 7.65 -1.05" fill="#a86d4a" fill-rule="evenodd" stroke="none"/>
    <path d="M3.15 -9.35 L2.95 -9.7 3.1 -10.05 Q9.0 -17.0 17.6 -12.65 L17.85 -12.35 17.8 -11.95 17.5 -11.7 17.15 -11.75 Q9.3 -15.7 3.85 -9.4 3.7 -9.25 3.5 -9.25 L3.15 -9.35" fill="#311a0b" fill-rule="evenodd" stroke="none"/>
  </g>
</svg>
