<?xml version="1.0" encoding="UTF-8" standalone="no"?>
<svg xmlns:ffdec="https://www.free-decompiler.com/flash" xmlns:xlink="http://www.w3.org/1999/xlink" ffdec:objectType="shape" height="4.95px" width="35.3px" xmlns="http://www.w3.org/2000/svg">
  <g transform="matrix(1.0, 0.0, 0.0, 1.0, 18.05, 7.4)">
    <path d="M-16.35 -2.75 L-16.95 -2.5 -17.1 -2.5 Q-17.5 -2.5 -17.8 -2.8 L-18.05 -3.55 -17.7 -4.25 Q-12.95 -8.65 -5.7 -6.2 -5.35 -6.05 -5.15 -5.7 -4.95 -5.3 -5.1 -4.9 L-5.6 -4.35 -6.35 -4.3 Q-12.35 -6.35 -16.35 -2.75 M1.9 -4.35 L1.1 -4.3 0.85 -4.4 0.55 -4.8 Q0.35 -5.2 0.5 -5.6 L1.05 -6.15 Q7.85 -9.4 16.7 -4.35 L17.2 -3.75 17.1 -3.0 16.8 -2.65 16.5 -2.5 15.7 -2.6 Q7.85 -7.1 1.9 -4.35" fill="#110c06" fill-rule="evenodd" stroke="none"/>
  </g>
</svg>
