<?xml version="1.0" encoding="UTF-8" standalone="no"?>
<svg xmlns:ffdec="https://www.free-decompiler.com/flash" xmlns:xlink="http://www.w3.org/1999/xlink" ffdec:objectType="shape" height="15.85px" width="15.75px" xmlns="http://www.w3.org/2000/svg">
  <g transform="matrix(1.0, 0.0, 0.0, 1.0, 16.3, 6.65)">
    <path d="M-15.5 -6.3 L-14.65 -6.65 -0.55 0.45 -0.55 0.55 Q-0.6 3.95 -2.3 6.35 L-2.25 6.3 Q-4.2 9.35 -7.05 9.2 -9.95 9.35 -11.95 6.35 -13.65 3.95 -13.65 0.5 -13.65 -1.0 -13.3 -2.25 L-16.3 -5.55 -15.5 -6.3" fill="#9c7e8d" fill-rule="evenodd" stroke="none"/>
    <path d="M-5.0 4.25 Q-5.6 5.15 -6.35 5.25 -7.2 5.15 -7.8 4.25 L-7.8 4.2 Q-8.7 2.85 -8.7 0.95 L-8.6 -0.1 -4.1 1.75 Q-4.3 3.15 -5.0 4.2 L-5.0 4.25" fill="#a86d4a" fill-rule="evenodd" stroke="none"/>
    <path d="M-11.9 -1.5 L-14.6 -4.45 -13.85 -5.15 -13.3 -5.25 -0.6 0.4 -0.6 0.55 -0.55 0.85 -0.55 1.0 Q-0.6 4.05 -2.1 6.2 L-2.05 6.15 Q-3.8 8.85 -6.35 8.75 -8.9 8.85 -10.7 6.2 -12.2 4.05 -12.2 0.95 L-11.9 -1.5 M-5.0 4.25 L-5.0 4.2 Q-4.3 3.15 -4.1 1.75 L-8.6 -0.1 -8.7 0.95 Q-8.7 2.85 -7.8 4.2 L-7.8 4.25 Q-7.2 5.15 -6.35 5.25 -5.6 5.15 -5.0 4.25" fill="#20150f" fill-rule="evenodd" stroke="none"/>
  </g>
</svg>
