<?xml version="1.0" encoding="UTF-8" standalone="no"?>
<svg xmlns:ffdec="https://www.free-decompiler.com/flash" xmlns:xlink="http://www.w3.org/1999/xlink" ffdec:objectType="shape" height="22.25px" width="24.85px" xmlns="http://www.w3.org/2000/svg">
  <g transform="matrix(1.0, 0.0, 0.0, 1.0, -4.25, -6.35)">
    <path d="M23.75 11.15 L23.6 11.45 23.2 11.6 22.8 11.45 22.6 11.15 22.8 10.85 Q22.95 10.7 23.2 10.7 L23.6 10.85 23.75 11.15 M14.1 13.65 Q13.85 13.65 13.7 13.45 L13.55 12.95 13.7 12.45 Q13.85 12.25 14.1 12.25 L14.5 12.45 14.65 12.95 14.5 13.45 14.1 13.65 M17.0 11.95 Q17.55 10.7 18.3 10.15 L18.9 9.8 Q19.45 9.85 20.45 10.35 20.1 12.35 19.7 12.45 L17.0 11.95 M11.3 9.55 Q11.8 9.55 12.15 9.8 L12.5 10.4 12.15 11.05 11.3 11.3 10.5 11.05 Q10.15 10.8 10.15 10.4 10.15 10.05 10.5 9.8 10.8 9.55 11.3 9.55 M4.95 15.4 L6.6 7.5 Q7.8 12.15 12.9 16.7 L10.6 27.25 Q5.45 21.55 4.95 15.4" fill="#9d8c4a" fill-rule="evenodd" stroke="none"/>
    <path d="M23.75 11.15 L23.6 10.85 23.2 10.7 Q22.95 10.7 22.8 10.85 L22.6 11.15 22.8 11.45 23.2 11.6 23.6 11.45 23.75 11.15 M27.7 12.95 L14.85 18.2 13.65 26.2 11.55 27.55 13.85 16.85 28.35 11.2 27.7 12.95 M11.3 9.55 Q10.8 9.55 10.5 9.8 10.15 10.05 10.15 10.4 10.15 10.8 10.5 11.05 L11.3 11.3 12.15 11.05 12.5 10.4 12.15 9.8 Q11.8 9.55 11.3 9.55 M17.0 11.95 L19.7 12.45 Q20.1 12.35 20.45 10.35 19.45 9.85 18.9 9.8 L18.3 10.15 Q17.55 10.7 17.0 11.95 M14.1 13.65 L14.5 13.45 14.65 12.95 14.5 12.45 14.1 12.25 Q13.85 12.25 13.7 12.45 L13.55 12.95 13.7 13.45 Q13.85 13.65 14.1 13.65 M13.55 16.3 Q7.8 11.85 6.65 6.65 L28.45 10.85 13.55 16.3" fill="#e7deb2" fill-rule="evenodd" stroke="none"/>
    <path d="M20.25 19.5 L20.6 19.7 20.7 20.0 20.6 20.35 20.25 20.5 19.95 20.35 19.85 20.0 19.95 19.7 20.25 19.5 M24.65 18.25 L23.75 17.9 24.3 16.25 25.75 16.45 24.65 18.25 M22.35 16.95 L21.9 17.15 21.4 16.95 21.2 16.45 21.4 16.0 21.9 15.8 22.35 16.0 22.55 16.45 22.35 16.95 M16.35 21.4 L16.3 19.65 Q17.05 19.05 17.6 18.75 L18.05 18.65 Q18.15 20.6 16.95 21.55 L16.35 21.4 M14.65 24.35 Q14.35 24.0 14.35 23.6 14.35 23.15 14.65 22.9 14.95 22.6 15.4 22.6 15.8 22.6 16.15 22.9 L16.45 23.6 16.15 24.35 15.4 24.6 14.65 24.35" fill="#c2b57e" fill-rule="evenodd" stroke="none"/>
    <path d="M27.7 12.95 L25.85 18.5 13.65 26.2 14.85 18.2 27.7 12.95 M22.35 16.95 L22.55 16.45 22.35 16.0 21.9 15.8 21.4 16.0 21.2 16.45 21.4 16.95 21.9 17.15 22.35 16.95 M24.65 18.25 L25.75 16.45 24.3 16.25 23.75 17.9 24.65 18.25 M20.25 19.5 L19.95 19.7 19.85 20.0 19.95 20.35 20.25 20.5 20.6 20.35 20.7 20.0 20.6 19.7 20.25 19.5 M14.65 24.35 L15.4 24.6 16.15 24.35 16.45 23.6 16.15 22.9 Q15.8 22.6 15.4 22.6 14.95 22.6 14.65 22.9 14.35 23.15 14.35 23.6 14.35 24.0 14.65 24.35 M16.35 21.4 L16.95 21.55 Q18.15 20.6 18.05 18.65 L17.6 18.75 Q17.05 19.05 16.3 19.65 L16.35 21.4" fill="#f1ecd3" fill-rule="evenodd" stroke="none"/>
    <path d="M13.65 26.2 L25.85 18.5 27.7 12.95 28.35 11.2 13.85 16.85 11.55 27.55 13.65 26.2 M26.35 19.0 L10.8 28.6 Q5.3 22.7 4.25 15.5 L6.3 6.35 29.1 10.4 26.35 19.0 M13.55 16.3 L28.45 10.85 6.65 6.65 Q7.8 11.85 13.55 16.3 M4.95 15.4 Q5.45 21.55 10.6 27.25 L12.9 16.7 Q7.8 12.15 6.6 7.5 L4.95 15.4" fill="#62561e" fill-rule="evenodd" stroke="none"/>
  </g>
</svg>
