<?xml version="1.0" encoding="UTF-8" standalone="no"?>
<svg xmlns:ffdec="https://www.free-decompiler.com/flash" xmlns:xlink="http://www.w3.org/1999/xlink" ffdec:objectType="shape" height="17.2px" width="23.55px" xmlns="http://www.w3.org/2000/svg">
  <g transform="matrix(1.0, 0.0, 0.0, 1.0, -4.1, -7.75)">
    <path d="M24.9 11.7 L24.7 8.75 24.65 7.75 26.8 7.75 Q27.4 7.85 27.65 8.2 L27.65 17.7 Q27.05 22.05 23.35 24.6 L22.8 24.95 20.65 22.4 21.5 21.85 Q24.75 19.95 24.95 16.3 L24.3 16.55 22.4 18.9 22.4 18.8 Q21.7 19.55 20.75 19.55 20.0 19.6 19.4 18.8 18.8 18.3 18.8 14.1 L19.0 9.05 19.1 8.2 21.25 8.2 21.4 8.25 Q22.3 8.6 22.15 9.3 22.25 9.65 21.85 10.05 L21.65 14.1 21.6 15.3 Q21.8 14.85 23.55 14.0 25.0 12.9 24.9 11.7 M10.3 8.75 L10.3 10.1 12.45 10.1 Q12.0 12.5 9.85 13.6 L10.55 14.85 11.1 14.45 11.1 19.25 12.3 19.25 12.3 18.6 16.0 18.6 16.0 19.05 17.1 19.05 17.1 14.35 11.3 14.35 Q13.2 13.3 13.7 10.1 L16.2 10.1 16.0 11.6 Q15.95 12.15 15.4 12.15 L14.15 12.15 14.25 13.5 16.1 13.5 Q17.05 13.5 17.15 12.05 L17.45 8.75 10.3 8.75 M26.8 9.2 Q27.3 8.7 26.65 8.65 L25.55 8.65 25.75 15.85 Q25.75 20.35 21.9 22.6 L22.9 23.8 Q26.95 21.1 26.95 15.95 L26.8 9.2 M21.05 9.55 Q21.5 9.25 21.05 9.1 L19.85 9.1 Q19.6 11.35 19.6 14.1 19.6 17.75 20.0 18.2 20.35 18.65 20.75 18.65 21.35 18.65 21.85 18.15 L23.65 15.95 22.8 14.9 21.45 16.8 21.0 17.05 Q20.8 17.05 20.8 14.1 20.8 11.2 21.05 9.55 M18.3 8.8 L17.95 12.2 17.9 12.7 17.9 12.95 17.7 13.45 17.95 13.45 17.95 19.95 17.15 19.95 Q18.05 21.05 18.6 22.4 L18.9 23.15 16.25 24.9 15.85 24.0 14.95 22.3 15.05 22.7 15.2 23.35 12.2 24.7 11.95 23.65 11.3 20.95 11.4 23.2 11.4 24.1 8.3 24.2 8.3 23.25 8.25 21.55 7.05 24.3 6.6 24.95 4.75 23.9 4.1 22.8 4.3 22.55 5.45 20.3 4.85 20.3 4.85 8.1 9.45 8.1 9.45 7.9 18.35 7.9 18.3 8.8 M17.85 22.8 Q17.1 21.0 15.75 19.75 L14.8 20.6 Q15.8 21.9 16.6 23.65 L17.85 22.8 M12.8 23.4 L14.2 22.85 Q13.75 20.95 13.0 19.9 L11.9 20.3 12.8 23.4 M16.0 15.4 L16.0 17.5 12.3 17.5 12.3 15.4 16.0 15.4 M8.95 20.15 L9.15 23.25 10.55 23.2 Q10.55 21.1 10.15 20.0 L8.95 20.15 M6.3 23.8 Q7.25 22.3 7.7 20.45 L6.45 19.95 Q5.9 21.6 4.95 23.0 L6.3 23.8 M8.55 14.25 L8.55 17.35 6.8 17.35 6.8 14.25 8.55 14.25 M9.7 9.0 L5.7 9.0 5.7 19.45 6.8 19.45 6.8 18.5 8.55 18.5 8.55 19.0 9.7 19.0 9.7 9.0 M6.8 10.05 L8.55 10.05 8.55 13.15 6.8 13.15 6.8 10.05" fill="#af946a" fill-rule="evenodd" stroke="none"/>
    <path d="M21.05 9.55 Q20.8 11.2 20.8 14.1 20.8 17.05 21.0 17.05 L21.45 16.8 22.8 14.9 23.65 15.95 21.85 18.15 Q21.35 18.65 20.75 18.65 20.35 18.65 20.0 18.2 19.6 17.75 19.6 14.1 19.6 11.35 19.85 9.1 L21.05 9.1 Q21.5 9.25 21.05 9.55 M26.8 9.2 L26.95 15.95 Q26.95 21.1 22.9 23.8 L21.9 22.6 Q25.75 20.35 25.75 15.85 L25.55 8.65 26.65 8.65 Q27.3 8.7 26.8 9.2 M10.3 8.75 L17.45 8.75 17.15 12.05 Q17.05 13.5 16.1 13.5 L14.25 13.5 14.15 12.15 15.4 12.15 Q15.95 12.15 16.0 11.6 L16.2 10.1 13.7 10.1 Q13.2 13.3 11.3 14.35 L17.1 14.35 17.1 19.05 16.0 19.05 16.0 18.6 12.3 18.6 12.3 19.25 11.1 19.25 11.1 14.45 10.55 14.85 9.85 13.6 Q12.0 12.5 12.45 10.1 L10.3 10.1 10.3 8.75 M6.8 10.05 L6.8 13.15 8.55 13.15 8.55 10.05 6.8 10.05 M9.7 9.0 L9.7 19.0 8.55 19.0 8.55 18.5 6.8 18.5 6.8 19.45 5.7 19.45 5.7 9.0 9.7 9.0 M8.55 14.25 L6.8 14.25 6.8 17.35 8.55 17.35 8.55 14.25 M6.3 23.8 L4.95 23.0 Q5.9 21.6 6.45 19.95 L7.7 20.45 Q7.25 22.3 6.3 23.8 M8.95 20.15 L10.15 20.0 Q10.55 21.1 10.55 23.2 L9.15 23.25 8.95 20.15 M16.0 15.4 L12.3 15.4 12.3 17.5 16.0 17.5 16.0 15.4 M12.8 23.4 L11.9 20.3 13.0 19.9 Q13.75 20.95 14.2 22.85 L12.8 23.4 M17.85 22.8 L16.6 23.65 Q15.8 21.9 14.8 20.6 L15.75 19.75 Q17.1 21.0 17.85 22.8" fill="#19150e" fill-rule="evenodd" stroke="none"/>
  </g>
</svg>
