<?xml version="1.0" encoding="UTF-8" standalone="no"?>
<svg xmlns:ffdec="https://www.free-decompiler.com/flash" xmlns:xlink="http://www.w3.org/1999/xlink" ffdec:objectType="shape" height="27.1px" width="27.45px" xmlns="http://www.w3.org/2000/svg">
  <g transform="matrix(1.0, 0.0, 0.0, 1.0, -1.65, -3.7)">
    <path d="M20.8 4.7 L19.3 5.65 17.3 7.05 16.1 7.8 Q17.35 6.0 17.25 5.15 L17.6 3.9 16.6 4.7 15.6 4.9 Q15.0 4.9 12.35 10.45 L11.65 10.15 10.05 9.3 Q8.25 8.6 7.0 8.6 L6.25 8.65 7.45 7.2 Q10.9 3.7 15.85 3.7 18.55 3.7 20.8 4.7 M17.8 9.25 L17.75 9.15 17.85 9.15 18.35 9.15 18.05 9.75 17.8 9.25 M19.15 8.8 L18.8 8.85 19.6 8.4 21.0 7.1 Q21.25 6.6 22.55 6.0 L22.75 5.85 24.3 7.2 26.55 10.1 26.95 10.9 26.15 10.6 Q23.8 9.75 23.8 8.85 23.8 8.1 21.75 8.35 L19.4 8.75 19.15 8.8 M23.2 11.5 L24.25 11.5 25.35 11.75 26.5 12.0 27.4 12.15 27.6 12.95 19.4 12.95 19.6 12.85 Q20.4 12.2 21.5 12.2 22.15 12.2 22.9 11.7 L23.2 11.5 M27.8 13.8 L27.9 15.7 27.9 15.95 22.15 15.95 21.7 15.25 Q21.0 14.2 20.15 13.8 L27.8 13.8 M3.95 15.85 L3.95 15.7 4.1 13.8 6.4 13.8 5.95 14.2 4.25 15.55 3.95 15.85 M4.4 12.5 L5.0 10.8 7.5 10.9 8.55 11.2 4.75 12.25 4.4 12.5 M7.8 15.95 L8.95 15.2 9.4 15.45 10.4 15.6 9.95 15.95 7.8 15.95" fill="#ffe158" fill-rule="evenodd" stroke="none"/>
    <path d="M19.3 17.65 L19.35 17.65 19.4 17.7 19.4 17.65 19.85 17.65 20.1 17.7 Q20.65 17.8 21.0 18.3 L21.35 18.65 21.7 18.8 22.05 18.95 17.05 18.95 16.1 16.15 17.55 16.6 Q17.9 16.65 18.55 17.85 L18.85 17.65 19.3 17.65 M22.9 18.85 L22.95 18.95 22.9 18.95 22.9 18.85 M23.0 18.95 L22.9 18.65 Q22.75 17.15 22.15 15.95 L27.9 15.95 Q27.9 17.55 27.45 18.95 L23.0 18.95 M18.85 13.5 L18.6 13.55 19.15 13.15 19.4 12.95 27.6 12.95 27.7 13.55 27.8 13.8 20.15 13.8 18.85 13.5 M26.95 20.35 L25.65 22.6 17.85 22.6 17.8 21.8 17.55 20.35 26.95 20.35 M5.85 22.1 L4.9 20.35 6.6 20.35 5.85 22.1 M4.4 18.95 L4.2 18.2 Q5.1 18.2 5.4 17.8 L5.65 16.9 6.25 16.8 7.8 15.95 9.95 15.95 Q8.45 17.15 7.35 18.95 L4.4 18.95 M4.1 13.8 L4.15 13.55 4.2 13.15 5.45 13.25 Q6.8 13.25 6.4 13.8 L4.1 13.8 M7.05 22.6 L7.2 21.7 Q7.2 21.15 7.7 20.75 L8.15 20.35 10.75 20.35 Q10.3 20.85 10.4 21.65 L10.5 21.7 10.55 22.6 7.05 22.6 M9.0 18.95 L9.15 18.6 10.4 18.95 9.0 18.95 M13.8 20.75 L14.15 20.35 15.05 20.35 15.25 22.6 13.6 22.6 13.8 20.75 M14.75 18.95 L14.05 18.95 14.3 17.15 14.75 18.95" fill="#ffbe1c" fill-rule="evenodd" stroke="none"/>
    <path d="M22.05 18.95 L22.9 19.35 22.9 18.95 22.95 18.95 23.0 19.05 23.0 18.95 27.45 18.95 26.95 20.35 17.55 20.35 17.5 20.2 17.05 18.95 22.05 18.95 M25.65 22.6 L24.3 24.1 Q21.8 26.7 18.5 27.45 L18.1 25.15 17.85 22.6 25.65 22.6 M15.65 27.7 Q10.85 27.65 7.45 24.1 L6.75 23.35 7.05 22.6 10.55 22.6 10.55 23.0 Q10.6 23.8 11.35 23.8 L12.35 25.15 13.0 25.3 13.2 25.0 13.4 23.6 13.45 23.45 13.5 23.0 13.6 22.6 15.25 22.6 15.25 22.95 15.5 25.85 15.65 27.7 M4.9 20.35 L4.4 18.95 7.35 18.95 6.6 20.35 4.9 20.35 M8.15 20.35 L9.0 18.95 10.4 18.95 10.5 19.35 10.3 19.75 10.3 19.9 10.85 20.2 10.75 20.35 8.15 20.35 M14.15 20.35 L14.15 20.2 13.95 19.45 14.05 18.95 14.75 18.95 15.05 20.35 14.15 20.35" fill="#ee9815" fill-rule="evenodd" stroke="none"/>
    <path d="M20.8 4.7 L21.45 4.35 25.5 4.35 24.85 4.75 24.45 4.9 24.3 4.95 22.75 5.05 22.9 5.7 22.75 5.85 22.55 6.0 Q20.95 6.6 19.95 7.95 L19.6 8.4 18.8 8.85 19.15 8.8 18.6 9.0 17.85 9.15 17.75 9.15 17.8 9.25 17.55 9.4 Q17.4 9.5 17.4 8.85 17.4 8.05 16.6 10.7 L15.95 12.95 15.75 13.65 15.75 13.8 Q15.7 14.8 14.9 14.45 L14.7 13.0 14.7 12.95 Q14.8 12.3 15.75 10.1 L17.3 7.05 19.3 5.65 20.8 4.7 M19.3 17.65 L17.1 16.1 16.8 15.95 15.25 15.5 Q16.05 15.0 16.75 14.8 L15.05 14.95 Q16.45 14.2 16.55 14.15 L17.6 13.8 18.0 13.7 16.55 13.55 16.95 12.7 Q17.55 10.85 19.85 10.3 L23.3 9.95 Q23.95 9.95 25.9 11.05 L27.25 11.7 27.6 11.9 27.55 11.9 27.35 11.9 26.95 11.85 Q27.05 11.7 26.4 11.7 L25.35 11.45 24.25 11.2 Q23.75 11.2 23.2 11.5 L22.9 11.7 Q22.15 12.2 21.5 12.2 20.4 12.2 19.6 12.85 L19.4 12.95 19.15 13.15 18.6 13.55 18.85 13.5 19.3 13.8 21.45 15.95 22.9 18.65 23.0 18.95 23.0 19.05 22.95 18.95 22.9 18.85 Q21.9 17.25 20.85 16.35 L22.05 17.7 22.75 18.95 22.9 19.35 22.05 18.95 21.7 18.8 21.35 18.65 21.0 18.3 Q20.65 17.8 20.1 17.7 L19.95 17.3 19.4 17.65 19.4 17.7 19.35 17.65 19.3 17.65 M5.0 10.8 L4.5 10.8 3.6 10.55 3.45 10.55 2.95 10.65 2.85 10.7 2.35 10.7 Q4.45 9.3 4.85 9.15 L6.0 9.0 10.05 9.3 11.65 10.15 13.45 12.95 13.9 13.8 14.2 14.5 13.6 13.8 12.75 12.95 12.25 12.5 Q11.3 11.6 9.65 11.6 L8.6 11.3 8.55 11.2 7.5 10.9 5.0 10.8 M10.4 18.95 L10.4 18.65 Q10.4 18.1 11.2 17.55 12.1 16.95 12.75 15.95 L13.15 15.3 Q11.85 15.25 11.3 14.85 L8.8 14.55 Q8.2 14.55 7.95 15.1 7.7 15.6 7.05 15.6 L6.25 15.8 5.95 15.95 5.4 16.0 Q4.75 16.0 4.5 16.8 L4.05 17.45 3.6 17.6 Q2.9 17.6 2.85 18.15 2.85 18.45 2.65 18.2 L3.95 16.0 4.0 15.95 4.25 15.55 5.95 14.2 7.0 13.8 Q8.85 13.15 10.4 13.15 L12.0 13.8 14.45 14.85 13.9 15.45 14.25 15.5 14.55 15.75 14.5 15.85 14.4 15.85 14.4 16.25 Q13.8 17.6 13.9 18.9 L13.9 18.95 13.95 19.45 14.15 20.2 14.15 20.35 13.8 20.75 13.6 20.75 Q13.0 20.65 13.0 21.25 13.0 21.8 13.35 22.4 L13.45 22.6 13.5 23.0 13.45 23.45 13.4 23.6 13.2 25.0 12.75 24.85 12.7 24.85 Q12.45 23.8 11.35 23.8 10.6 23.8 10.55 23.0 L10.55 22.6 10.5 21.7 10.4 21.65 11.1 20.1 10.3 19.75 10.5 19.35 10.4 18.95" fill="#67a613" fill-rule="evenodd" stroke="none"/>
    <path d="M22.9 5.7 L22.75 5.05 24.3 4.95 24.45 5.4 22.9 5.7 M24.45 4.9 L24.85 4.75 25.5 4.35 21.45 4.35 Q24.35 3.6 26.25 4.35 L24.85 5.0 24.45 4.9 M11.35 23.8 Q12.45 23.8 12.7 24.85 L12.75 24.85 13.2 25.0 13.0 25.3 12.35 25.15 11.35 23.8" fill="#528e00" fill-rule="evenodd" stroke="none"/>
    <path d="M17.3 7.05 L15.75 10.1 Q14.8 12.3 14.7 12.95 L14.7 13.0 14.9 14.45 Q15.7 14.8 15.75 13.8 L15.75 13.65 15.95 12.95 16.6 10.7 Q17.4 8.05 17.4 8.85 17.4 9.5 17.55 9.4 L17.8 9.25 18.05 9.75 18.35 9.15 17.85 9.15 18.6 9.0 19.15 8.8 19.4 8.75 21.75 8.35 Q23.8 8.1 23.8 8.85 23.8 9.75 26.15 10.6 L26.95 10.9 Q28.75 11.65 29.1 12.65 L28.85 12.75 28.7 12.65 28.7 12.85 Q28.1 12.35 27.4 12.15 L26.5 12.0 25.35 11.75 24.25 11.5 23.2 11.5 Q23.75 11.2 24.25 11.2 L25.35 11.45 26.4 11.7 Q27.05 11.7 26.95 11.85 L27.35 11.9 27.55 11.9 27.6 11.9 27.25 11.7 25.9 11.05 Q23.95 9.95 23.3 9.95 L19.85 10.3 Q17.55 10.85 16.95 12.7 L16.55 13.55 18.0 13.7 17.6 13.8 16.55 14.15 Q16.45 14.2 15.05 14.95 L16.75 14.8 Q16.05 15.0 15.25 15.5 L16.8 15.95 17.1 16.1 19.3 17.65 18.85 17.65 18.55 17.85 Q17.9 16.65 17.55 16.6 L16.1 16.15 15.6 15.95 14.5 15.85 14.55 15.75 14.25 15.5 13.9 15.45 14.45 14.85 12.0 13.8 10.4 13.15 Q8.85 13.15 7.0 13.8 L5.95 14.2 6.4 13.8 Q6.8 13.25 5.45 13.25 L4.2 13.15 4.15 13.15 3.7 12.95 4.4 12.5 4.75 12.25 8.55 11.2 8.6 11.3 9.65 11.6 Q11.3 11.6 12.25 12.5 L12.75 12.95 13.6 13.8 14.2 14.5 13.9 13.8 13.45 12.95 11.65 10.15 12.35 10.45 Q15.0 4.9 15.6 4.9 L16.6 4.7 17.6 3.9 17.25 5.15 Q17.35 6.0 16.1 7.8 L17.3 7.05 M6.75 23.35 Q6.25 24.4 6.25 25.05 L6.25 26.15 6.05 26.6 5.45 25.35 5.25 24.1 5.85 22.1 6.6 20.35 7.35 18.95 Q8.45 17.15 9.95 15.95 L10.4 15.6 9.4 15.45 8.95 15.2 7.8 15.95 6.25 16.8 5.65 16.9 5.4 17.8 Q5.1 18.2 4.2 18.2 3.3 18.2 2.95 18.6 L1.65 20.2 1.9 18.9 Q2.55 17.3 3.95 15.85 L4.25 15.55 4.0 15.95 3.95 16.0 2.65 18.2 Q2.85 18.45 2.85 18.15 2.9 17.6 3.6 17.6 L4.05 17.45 4.5 16.8 Q4.75 16.0 5.4 16.0 L5.95 15.95 6.25 15.8 7.05 15.6 Q7.7 15.6 7.95 15.1 8.2 14.55 8.8 14.55 L11.3 14.85 Q11.85 15.25 13.15 15.3 L12.75 15.95 Q12.1 16.95 11.2 17.55 10.4 18.1 10.4 18.65 L10.4 18.95 9.15 18.6 9.0 18.95 8.15 20.35 7.7 20.75 Q7.2 21.15 7.2 21.7 L7.05 22.6 6.75 23.35 M13.5 23.0 L13.45 22.6 13.35 22.4 Q13.0 21.8 13.0 21.25 13.0 20.65 13.6 20.75 L13.8 20.75 13.6 22.6 13.5 23.0" fill="#477409" fill-rule="evenodd" stroke="none"/>
    <path d="M19.6 8.4 L19.95 7.95 Q20.95 6.6 22.55 6.0 21.25 6.6 21.0 7.1 L19.6 8.4 M19.4 17.65 L19.95 17.3 20.1 17.7 19.85 17.65 19.4 17.65 M22.9 19.35 L22.75 18.95 22.05 17.7 20.85 16.35 Q21.9 17.25 22.9 18.85 L22.9 18.95 22.9 19.35 M22.9 18.65 L21.45 15.95 19.3 13.8 18.85 13.5 20.15 13.8 Q21.0 14.2 21.7 15.25 L22.15 15.95 Q22.75 17.15 22.9 18.65 M2.85 10.7 L1.9 10.9 3.05 9.95 Q4.75 8.9 6.25 8.65 L7.0 8.6 Q8.25 8.6 10.05 9.3 L6.0 9.0 4.85 9.15 Q4.45 9.3 2.35 10.7 L2.85 10.7 M10.3 19.75 L11.1 20.1 10.4 21.65 Q10.3 20.85 10.75 20.35 L10.85 20.2 10.3 19.9 10.3 19.75 M13.95 19.45 L13.9 18.95 13.9 18.9 Q13.8 17.6 14.4 16.25 L14.3 17.15 14.05 18.95 13.95 19.45" fill="#568c0c" fill-rule="evenodd" stroke="none"/>
    <path d="M28.7 12.85 L28.7 12.65 28.85 12.75 28.7 12.85" fill="#7ed50b" fill-rule="evenodd" stroke="none"/>
    <path d="M18.5 27.45 L18.95 29.3 Q18.9 29.95 16.1 30.8 L16.0 30.6 15.8 30.55 15.65 27.7 15.5 25.85 15.25 22.95 15.25 22.6 15.05 20.35 14.75 18.95 14.3 17.15 14.4 16.25 14.4 15.85 14.5 15.85 15.6 15.95 16.1 16.15 17.05 18.95 17.5 20.2 17.55 20.35 17.8 21.8 17.85 22.6 18.1 25.15 18.5 27.45" fill="#874514" fill-rule="evenodd" stroke="none"/>
  </g>
</svg>
