<?xml version="1.0" encoding="UTF-8" standalone="no"?>
<svg xmlns:ffdec="https://www.free-decompiler.com/flash" xmlns:xlink="http://www.w3.org/1999/xlink" ffdec:objectType="shape" height="22.75px" width="23.5px" xmlns="http://www.w3.org/2000/svg">
  <g transform="matrix(1.0, 0.0, 0.0, 1.0, -5.05, -4.5)">
    <path d="M18.6 10.45 Q19.25 9.95 19.9 9.55 21.65 8.5 23.75 8.0 L27.65 8.2 Q28.7 8.65 28.5 9.75 27.95 12.1 25.9 13.45 L23.6 14.5 Q21.55 15.6 19.2 15.55 17.9 12.55 17.25 11.75 L18.6 10.45" fill="#9a9a9a" fill-rule="evenodd" stroke="none"/>
    <path d="M19.2 15.55 L19.25 16.1 23.4 18.55 23.5 18.75 24.0 21.25 23.85 21.4 21.75 22.5 21.55 22.55 19.55 20.65 Q19.85 19.4 19.35 18.3 L19.35 19.85 Q18.4 23.15 17.6 24.3 16.1 26.45 13.7 26.55 L11.1 25.95 6.35 27.25 9.65 23.9 Q9.4 21.65 10.2 20.75 L12.1 18.3 13.1 16.8 9.55 20.4 7.3 21.6 7.05 21.65 5.05 19.8 6.2 17.6 6.25 17.45 6.5 17.45 8.95 17.65 13.3 16.3 13.3 16.25 13.25 15.75 10.1 16.45 9.7 16.45 Q9.0 16.3 8.65 15.95 8.25 14.25 8.5 12.6 8.65 11.4 9.2 10.2 L10.5 8.0 10.0 6.8 6.4 8.8 Q6.35 8.1 6.95 7.5 8.4 5.95 10.5 5.65 L8.05 5.8 Q8.25 4.95 9.25 4.8 L12.7 4.5 13.7 4.85 13.75 7.5 Q15.5 7.75 16.6 8.95 L17.1 10.65 17.25 11.75 Q17.9 12.55 19.2 15.55 M23.3 20.95 L22.95 19.1 21.05 18.95 20.25 20.55 21.65 21.85 23.3 20.95 M10.5 5.65 L11.35 7.55 12.4 7.4 12.7 6.5 12.9 5.5 10.5 5.65 M13.05 8.15 L13.0 8.1 12.95 7.85 Q11.4 7.3 10.1 8.8 9.65 9.6 9.35 10.5 L9.2 11.0 8.7 12.6 8.6 14.0 Q8.5 15.0 8.85 15.5 L9.3 16.0 9.7 16.1 11.25 15.85 13.7 15.0 Q15.65 13.95 16.7 11.9 17.25 10.9 16.95 10.1 16.55 8.9 15.5 8.45 14.65 7.95 13.7 7.8 L13.55 8.25 13.3 8.4 13.05 8.15 M12.05 12.2 L12.25 12.6 Q12.4 12.8 12.65 12.8 12.9 12.8 13.05 12.6 L13.25 12.2 13.05 11.8 12.65 11.6 12.25 11.8 12.05 12.2 M14.75 9.55 Q15.55 10.4 15.2 11.45 14.7 12.6 13.7 12.9 L11.75 13.5 10.6 13.5 Q10.35 13.4 10.5 13.75 L10.35 13.9 10.3 13.9 10.25 13.85 10.25 13.5 Q10.5 9.9 14.1 9.4 L14.75 9.55 M14.2 15.45 Q14.35 16.15 14.0 17.2 17.0 16.6 18.7 19.2 18.9 15.1 17.0 12.4 16.4 13.9 14.2 15.45 M8.5 18.2 L6.6 18.1 5.75 19.65 7.2 20.95 8.85 20.1 8.5 18.2 M10.4 23.85 L7.65 26.4 11.25 25.45 11.4 24.9 11.3 24.4 10.4 23.85 M11.75 21.95 Q11.05 21.4 10.6 21.45 10.05 21.5 9.9 22.5 9.7 23.45 10.55 23.3 11.95 23.5 12.3 24.95 L11.65 25.85 13.2 26.0 13.2 24.6 Q13.25 23.1 11.75 21.95 M18.05 22.65 Q18.25 21.85 18.05 21.0 17.05 17.1 12.9 18.15 14.55 18.5 16.05 19.95 17.6 21.45 18.05 22.65 M11.75 19.3 L10.85 20.3 Q11.95 20.5 12.9 21.2 15.05 23.1 14.6 26.1 L16.1 25.25 Q16.6 24.5 16.4 23.5 15.6 19.8 11.75 19.3" fill="#1e1e1e" fill-rule="evenodd" stroke="none"/>
    <path d="M23.3 20.95 L21.65 21.85 20.25 20.55 21.05 18.95 22.95 19.1 23.3 20.95 M13.05 8.15 L13.3 8.4 13.55 8.25 13.7 7.8 Q14.65 7.95 15.5 8.45 16.55 8.9 16.95 10.1 17.25 10.9 16.7 11.9 15.65 13.95 13.7 15.0 L11.25 15.85 9.7 16.1 9.3 16.0 8.85 15.5 Q8.5 15.0 8.6 14.0 L8.7 12.6 9.2 11.0 9.35 10.5 Q9.65 9.6 10.1 8.8 11.4 7.3 12.95 7.85 L13.0 8.1 13.05 8.15 M14.75 9.55 L14.1 9.4 Q10.5 9.9 10.25 13.5 L10.25 13.85 10.3 13.9 10.35 13.9 10.5 13.75 Q10.35 13.4 10.6 13.5 L11.75 13.5 13.7 12.9 Q14.7 12.6 15.2 11.45 15.55 10.4 14.75 9.55 M9.4 15.15 L9.7 15.0 9.7 14.95 9.55 14.85 9.25 14.9 Q9.1 15.1 9.2 15.2 L9.4 15.15 M8.5 18.2 L8.85 20.1 7.2 20.95 5.75 19.65 6.6 18.1 8.5 18.2 M14.2 15.45 Q16.4 13.9 17.0 12.4 18.9 15.1 18.7 19.2 17.0 16.6 14.0 17.2 14.35 16.15 14.2 15.45 M11.75 21.95 Q13.25 23.1 13.2 24.6 L13.2 26.0 11.65 25.85 12.3 24.95 Q11.95 23.5 10.55 23.3 9.7 23.45 9.9 22.5 10.05 21.5 10.6 21.45 11.05 21.4 11.75 21.95 M11.75 19.3 Q15.6 19.8 16.4 23.5 16.6 24.5 16.1 25.25 L14.6 26.1 Q15.05 23.1 12.9 21.2 11.95 20.5 10.85 20.3 L11.75 19.3 M18.05 22.65 Q17.6 21.45 16.05 19.95 14.55 18.5 12.9 18.15 17.05 17.1 18.05 21.0 18.25 21.85 18.05 22.65" fill="#cf8e15" fill-rule="evenodd" stroke="none"/>
    <path d="M16.6 8.95 L16.9 7.3 Q17.1 5.85 18.0 5.15 L18.65 5.55 19.4 6.55 Q20.35 8.75 18.6 10.45 L17.25 11.75 17.1 10.65 16.6 8.95" fill="#8a8a8a" fill-rule="evenodd" stroke="none"/>
    <path d="M12.05 12.2 L12.25 11.8 12.65 11.6 13.05 11.8 13.25 12.2 13.05 12.6 Q12.9 12.8 12.65 12.8 12.4 12.8 12.25 12.6 L12.05 12.2" fill="#ffffff" fill-rule="evenodd" stroke="none"/>
    <path d="M9.4 15.15 L9.2 15.2 Q9.1 15.1 9.25 14.9 L9.55 14.85 9.7 14.95 9.7 15.0 9.4 15.15" fill="#000000" fill-rule="evenodd" stroke="none"/>
    <path d="M10.4 23.85 L11.3 24.4 11.4 24.9 11.25 25.45 7.65 26.4 10.4 23.85" fill="#ebebeb" fill-rule="evenodd" stroke="none"/>
  </g>
</svg>
