<?xml version="1.0" encoding="UTF-8" standalone="no"?>
<svg xmlns:ffdec="https://www.free-decompiler.com/flash" xmlns:xlink="http://www.w3.org/1999/xlink" ffdec:objectType="shape" height="26.95px" width="20.55px" xmlns="http://www.w3.org/2000/svg">
  <g transform="matrix(1.0, 0.0, 0.0, 1.0, -6.9, -1.75)">
    <path d="M23.1 14.95 Q23.0 14.95 22.95 15.05 L22.6 15.15 22.4 15.75 22.6 16.25 23.1 16.5 23.55 16.3 23.65 16.25 23.7 16.2 23.85 15.75 23.65 15.15 23.1 14.95 M22.2 14.25 L22.3 14.15 23.25 13.95 Q24.0 13.95 24.5 14.45 25.05 14.95 25.05 15.75 25.05 16.5 24.5 17.0 L24.2 17.25 24.1 17.3 24.0 17.35 23.25 17.55 Q22.45 17.55 21.95 17.0 L21.5 16.25 21.35 15.75 Q21.35 14.95 21.95 14.45 L22.0 14.35 Q22.05 14.25 22.2 14.25 M17.35 14.4 L16.65 14.05 16.3 14.0 Q15.75 14.0 15.25 14.4 14.85 14.85 14.85 15.45 14.85 16.05 15.25 16.5 15.75 16.95 16.3 16.95 16.95 16.95 17.35 16.5 17.85 16.05 17.85 15.45 17.85 14.85 17.35 14.4 M17.15 12.7 Q17.9 12.8 18.5 13.45 19.35 14.25 19.35 15.5 L19.35 15.55 19.15 16.65 18.5 17.65 18.3 17.8 18.1 18.0 16.45 18.45 Q15.2 18.45 14.35 17.65 L13.9 17.0 Q13.45 16.35 13.45 15.55 13.45 14.45 14.15 13.65 L14.35 13.45 Q15.05 12.75 16.05 12.65 L16.35 12.6 16.55 12.6 17.15 12.7" fill="#ffffff" fill-rule="evenodd" stroke="none"/>
    <path d="M23.1 14.95 L23.65 15.15 23.85 15.75 23.7 16.2 23.65 16.25 23.55 16.3 23.1 16.5 22.6 16.25 22.4 15.75 22.6 15.15 22.95 15.05 Q23.0 14.95 23.1 14.95 M17.35 14.4 Q17.85 14.85 17.85 15.45 17.85 16.05 17.35 16.5 16.95 16.95 16.3 16.95 15.75 16.95 15.25 16.5 14.85 16.05 14.85 15.45 14.85 14.85 15.25 14.4 15.75 14.0 16.3 14.0 L16.65 14.05 17.35 14.4" fill="#000000" fill-rule="evenodd" stroke="none"/>
    <path d="M15.95 7.15 L21.95 13.75 Q22.45 13.35 23.25 13.35 24.2 13.35 24.9 14.05 25.6 14.75 25.6 15.75 25.6 16.7 24.9 17.4 L24.45 17.8 24.95 19.05 Q25.25 19.6 26.35 19.9 L27.45 20.25 26.25 21.4 25.65 22.0 23.3 25.2 Q22.3 26.85 20.5 28.05 19.5 28.6 18.65 28.65 L14.4 28.65 Q12.2 28.5 10.35 27.35 8.25 26.0 7.3 23.5 6.45 21.15 7.45 19.0 8.3 17.0 9.95 15.4 L10.35 14.85 Q12.65 11.65 13.3 7.5 L14.1 7.85 15.15 7.25 15.2 7.25 15.0 7.35 14.5 8.1 13.4 8.35 Q13.3 10.5 12.25 12.7 L10.85 15.1 9.0 17.55 Q7.95 18.55 7.5 20.2 7.2 21.05 7.45 21.8 8.3 24.4 10.15 26.0 12.1 27.7 14.4 28.05 18.65 29.15 22.1 26.25 L23.15 25.05 24.35 23.15 Q25.05 21.8 26.25 20.9 22.7 19.75 15.1 20.7 L15.4 20.3 25.1 19.65 24.4 18.2 24.1 17.3 24.2 17.25 24.5 17.0 Q25.05 16.5 25.05 15.75 25.05 14.95 24.5 14.45 24.0 13.95 23.25 13.95 L22.3 14.15 22.2 14.25 21.75 14.0 21.6 13.85 15.75 7.3 15.95 7.15" fill="#321841" fill-rule="evenodd" stroke="none"/>
    <path d="M21.6 13.85 L21.75 14.0 22.2 14.25 Q22.05 14.25 22.0 14.35 L21.95 14.45 Q21.35 14.95 21.35 15.75 L21.5 16.25 21.95 17.0 Q22.45 17.55 23.25 17.55 L24.0 17.35 24.1 17.3 24.4 18.2 24.25 17.95 23.25 18.1 Q22.25 18.1 21.55 17.4 20.9 16.85 20.85 16.15 L20.55 16.05 20.55 15.2 15.6 8.35 21.1 14.6 21.55 14.05 21.65 13.95 21.6 13.85 M15.1 20.7 Q22.7 19.75 26.25 20.9 25.05 21.8 24.35 23.15 L23.15 25.05 22.1 26.25 Q18.65 29.15 14.4 28.05 12.1 27.7 10.15 26.0 8.3 24.4 7.45 21.8 7.2 21.05 7.5 20.2 7.95 18.55 9.0 17.55 L10.85 15.1 12.25 12.7 Q13.3 10.5 13.4 8.35 L14.5 8.1 14.75 9.05 15.25 8.2 16.9 12.05 Q18.05 12.2 18.95 13.05 19.85 14.05 19.9 15.4 L20.05 16.05 19.9 16.05 Q19.75 17.2 18.95 18.05 L18.4 18.45 18.6 19.2 18.3 18.5 Q17.5 19.05 16.45 19.05 15.0 19.05 13.95 18.05 L13.9 18.0 13.8 19.5 13.3 17.2 13.0 16.4 12.3 18.15 Q11.9 19.6 12.1 21.15 12.45 23.95 14.35 25.95 L13.95 24.1 14.4 24.9 17.65 27.1 19.55 21.45 18.05 27.15 Q20.55 27.4 21.5 25.25 L21.85 24.2 Q22.3 22.25 23.35 20.7 L22.2 25.0 23.75 20.8 23.35 20.7 15.1 20.7 M15.8 12.05 L14.8 9.8 14.35 12.7 Q15.0 12.25 15.8 12.05 M17.15 12.7 L16.55 12.6 16.35 12.6 16.05 12.65 Q15.05 12.75 14.35 13.45 L14.15 13.65 Q13.45 14.45 13.45 15.55 13.45 16.35 13.9 17.0 L14.35 17.65 Q15.2 18.45 16.45 18.45 L18.1 18.0 18.3 17.8 18.5 17.65 19.15 16.65 19.35 15.55 19.35 15.5 Q19.35 14.25 18.5 13.45 17.9 12.8 17.15 12.7" fill="#623180" fill-rule="evenodd" stroke="none"/>
    <path d="M15.75 7.3 L21.6 13.85 21.65 13.95 21.55 14.05 21.1 14.6 15.6 8.35 20.55 15.2 20.55 16.05 20.85 16.15 Q20.9 16.85 21.55 17.4 22.25 18.1 23.25 18.1 L24.25 17.95 24.4 18.2 25.1 19.65 15.4 20.3 15.1 20.7 23.35 20.7 23.75 20.8 22.2 25.0 23.35 20.7 Q22.3 22.25 21.85 24.2 L21.5 25.25 Q20.55 27.4 18.05 27.15 L19.55 21.45 17.65 27.1 14.4 24.9 13.95 24.1 14.35 25.95 Q12.45 23.95 12.1 21.15 11.9 19.6 12.3 18.15 L13.0 16.4 13.3 17.2 13.8 19.5 13.9 18.0 13.95 18.05 Q15.0 19.05 16.45 19.05 17.5 19.05 18.3 18.5 L18.6 19.2 18.4 18.45 18.95 18.05 Q19.75 17.2 19.9 16.05 L20.05 16.05 19.9 15.4 Q19.85 14.05 18.95 13.05 18.05 12.2 16.9 12.05 L15.25 8.2 14.75 9.05 14.5 8.1 15.0 7.35 15.2 7.25 15.5 7.3 15.75 7.3 M15.8 12.05 Q15.0 12.25 14.35 12.7 L14.8 9.8 15.8 12.05" fill="#9552bc" fill-rule="evenodd" stroke="none"/>
    <path d="M15.2 7.25 L15.15 7.25 16.25 5.8 15.55 7.25 15.5 7.3 15.2 7.25 M12.2 4.85 L12.35 4.95 14.25 6.5 15.1 4.3 16.55 2.5 15.4 5.45 15.05 6.4 17.7 4.45 17.95 4.35 16.3 5.6 14.5 7.0 12.15 6.05 13.25 6.1 12.2 4.85" fill="#5a7f5b" fill-rule="evenodd" stroke="none"/>
    <path d="M15.95 7.15 L15.75 7.3 15.5 7.3 15.55 7.25 16.25 5.8 16.3 5.6 17.95 4.35 19.45 3.65 15.95 7.15 M13.3 7.5 L7.8 6.45 10.05 6.15 13.3 7.5 M11.15 5.95 L12.55 5.75 10.35 3.95 12.2 4.85 13.25 6.1 12.15 6.05 11.15 5.95 M12.35 4.95 L14.05 5.75 15.1 4.3 14.25 6.5 12.35 4.95 M16.55 2.5 L17.65 1.75 15.4 5.45 17.7 4.45 15.05 6.4 15.4 5.45 16.55 2.5" fill="#364e37" fill-rule="evenodd" stroke="none"/>
    <path d="M15.15 7.25 L14.1 7.85 13.3 7.5 10.05 6.15 9.6 5.9 9.4 5.85 11.15 5.95 12.15 6.05 14.5 7.0 16.3 5.6 16.25 5.8 15.15 7.25" fill="#507051" fill-rule="evenodd" stroke="none"/>
  </g>
</svg>
