<?xml version="1.0" encoding="UTF-8" standalone="no"?>
<svg xmlns:ffdec="https://www.free-decompiler.com/flash" xmlns:xlink="http://www.w3.org/1999/xlink" ffdec:objectType="shape" height="19.15px" width="16.5px" xmlns="http://www.w3.org/2000/svg">
  <g transform="matrix(1.0, 0.0, 0.0, 1.0, -2.75, 12.5)">
    <path d="M11.05 -5.75 Q14.7 -5.85 17.05 -2.35 19.2 0.5 19.25 4.5 L19.05 5.55 18.15 6.35 17.0 6.65 5.05 6.65 Q4.15 6.65 3.5 6.0 2.8 5.4 2.8 4.55 2.8 0.55 4.95 -2.35 7.5 -5.85 11.05 -5.75" fill="#7c5136" fill-rule="evenodd" stroke="none"/>
    <path d="M6.9 -0.75 Q5.9 0.7 5.5 2.55 L14.1 2.55 Q13.65 0.7 12.65 -0.75 11.4 -2.55 9.75 -2.75 8.15 -2.55 6.9 -0.75 M9.7 -5.75 Q12.8 -5.85 14.9 -2.7 16.7 -0.05 16.75 3.6 L16.55 4.55 15.8 5.3 14.85 5.55 4.65 5.55 Q3.9 5.55 3.35 4.95 2.75 4.4 2.75 3.65 2.75 0.0 4.55 -2.7 6.7 -5.85 9.7 -5.75" fill="#20150f" fill-rule="evenodd" stroke="none"/>
    <path d="M6.9 -0.75 Q8.15 -2.55 9.75 -2.75 11.4 -2.55 12.65 -0.75 13.65 0.7 14.1 2.55 L5.5 2.55 Q5.9 0.7 6.9 -0.75" fill="#a86d4a" fill-rule="evenodd" stroke="none"/>
    <path d="M2.95 -9.55 L3.15 -9.9 Q9.05 -14.1 17.5 -11.45 L17.8 -11.2 17.85 -10.85 17.6 -10.55 17.2 -10.5 Q9.25 -13.0 3.75 -9.1 L3.4 -9.0 Q3.15 -9.05 3.05 -9.2 L2.95 -9.55" fill="#311a0b" fill-rule="evenodd" stroke="none"/>
  </g>
</svg>
