<?xml version="1.0" encoding="UTF-8" standalone="no"?>
<svg xmlns:ffdec="https://www.free-decompiler.com/flash" xmlns:xlink="http://www.w3.org/1999/xlink" ffdec:objectType="shape" height="87.35px" width="65.35px" xmlns="http://www.w3.org/2000/svg">
  <g transform="matrix(1.0, 0.0, 0.0, 1.0, -22.05, 5.4)">
    <path d="M52.3 -5.4 Q69.5 -5.4 79.05 5.7 87.4 15.45 87.4 29.95 87.4 49.05 74.6 64.35 60.45 81.2 38.8 81.95 L41.95 77.75 Q43.2 75.5 45.2 70.2 42.95 71.25 34.35 72.5 L24.2 73.15 36.4 64.25 Q36.8 64.25 38.85 60.45 41.0 56.45 41.45 54.5 L42.6 46.4 Q42.6 42.05 38.0 30.0 33.35 17.95 33.35 12.3 33.35 3.05 38.2 -1.3 42.85 -5.4 52.3 -5.4 M35.55 27.7 Q36.8 32.1 36.8 35.4 36.8 41.5 32.45 46.6 28.6 51.1 22.05 54.05 25.8 48.6 28.3 41.3 30.6 34.6 30.6 30.3 30.6 28.45 28.95 21.45 L27.15 13.65 27.6 13.65 Q33.25 19.55 35.55 27.7" fill="#271f16" fill-rule="evenodd" stroke="none"/>
  </g>
</svg>
