<?xml version="1.0" encoding="UTF-8" standalone="no"?>
<svg xmlns:ffdec="https://www.free-decompiler.com/flash" xmlns:xlink="http://www.w3.org/1999/xlink" ffdec:objectType="shape" height="64.0px" width="38.5px" xmlns="http://www.w3.org/2000/svg">
  <g transform="matrix(1.0, 0.0, 0.0, 1.0, 9.1, 12.55)">
    <path d="M-0.4 -11.95 Q3.6 -6.45 16.45 18.2 29.4 43.1 29.4 45.6 29.4 48.35 27.05 50.05 25.15 51.45 23.1 51.45 21.05 51.45 19.35 50.35 16.7 48.55 12.3 43.0 7.55 37.0 -6.8 9.7 L18.0 48.55 20.45 49.5 23.0 50.1 25.35 49.2 Q27.9 47.9 29.25 45.85 L-0.4 -11.95" fill="#654425" fill-rule="evenodd" stroke="none"/>
    <path d="M-3.8 -12.5 L-1.9 -12.45 -0.4 -11.95 29.25 45.85 Q27.9 47.9 25.35 49.2 L23.0 50.1 20.45 49.5 18.0 48.55 -6.8 9.7 -8.85 4.8 Q-0.95 12.9 2.15 17.0 6.7 22.9 11.0 32.0 15.95 42.4 20.85 46.45 23.35 48.45 24.85 48.4 L25.9 47.75 27.65 46.25 5.7 5.4 -3.8 -12.5" fill="#eba463" fill-rule="evenodd" stroke="none"/>
    <path d="M-8.85 4.8 L-9.1 0.25 Q-9.1 -5.15 -7.6 -8.05 -6.7 -9.85 -3.8 -12.5 L5.7 5.4 27.65 46.25 25.9 47.75 24.85 48.4 Q23.35 48.45 20.85 46.45 15.95 42.4 11.0 32.0 6.7 22.9 2.15 17.0 -0.95 12.9 -8.85 4.8" fill="#efb581" fill-rule="evenodd" stroke="none"/>
  </g>
</svg>
