<?xml version="1.0" encoding="UTF-8" standalone="no"?>
<svg xmlns:ffdec="https://www.free-decompiler.com/flash" xmlns:xlink="http://www.w3.org/1999/xlink" ffdec:objectType="shape" height="61.85px" width="40.65px" xmlns="http://www.w3.org/2000/svg">
  <g transform="matrix(1.0, 0.0, 0.0, 1.0, 10.5, 9.4)">
    <path d="M-1.25 -5.0 Q0.2 -3.65 2.45 -0.5 L6.8 6.05 12.0 14.6 13.25 16.7 Q17.25 23.7 19.55 28.7 L21.7 34.15 22.2 35.1 Q25.5 41.6 25.5 42.9 25.5 43.85 25.1 44.6 24.5 45.75 23.1 45.75 20.6 45.75 16.65 40.7 13.45 36.65 13.05 35.2 L11.45 32.75 9.0 28.7 3.75 20.35 Q2.8 19.05 1.6 16.7 L-1.15 11.0 -1.4 10.5 Q-3.45 5.9 -4.35 2.95 L-5.0 -0.5 -4.75 -3.25 Q-4.05 -5.1 -1.25 -5.0 M5.45 6.9 L3.65 4.3 Q-0.5 -1.3 -0.5 4.55 -0.5 6.8 0.7 9.85 L1.65 12.05 4.35 16.7 5.9 18.9 8.05 22.5 Q9.35 25.05 10.0 26.0 L11.5 27.95 11.5 28.0 11.85 28.7 13.85 32.85 Q17.6 39.6 20.6 39.6 21.45 39.6 21.6 39.1 L21.6 38.15 Q21.6 37.4 19.8 34.0 L17.85 30.5 17.0 28.7 15.4 25.95 15.35 25.85 14.8 24.85 10.45 16.7 9.6 14.9 Q7.75 10.5 5.45 6.9" fill="#2c9a7b" fill-rule="evenodd" stroke="none"/>
    <path d="M5.45 6.9 Q7.75 10.5 9.6 14.9 L10.45 16.7 14.8 24.85 15.35 25.85 15.4 25.95 17.0 28.7 17.85 30.5 19.8 34.0 Q21.6 37.4 21.6 38.15 L21.6 39.1 Q21.45 39.6 20.6 39.6 17.6 39.6 13.85 32.85 L11.85 28.7 11.5 28.0 11.5 27.95 10.0 26.0 Q9.35 25.05 8.05 22.5 L5.9 18.9 4.35 16.7 1.65 12.05 0.7 9.85 Q-0.5 6.8 -0.5 4.55 -0.5 -1.3 3.65 4.3 L5.45 6.9" fill="#35bb96" fill-rule="evenodd" stroke="none"/>
    <path d="M-4.95 -9.15 Q-2.7 -9.65 0.65 -6.95 2.7 -5.35 4.1 -1.9 L4.15 -1.85 23.8 34.6 Q28.6 43.5 28.65 45.2 28.65 47.6 26.95 49.3 25.3 50.95 22.9 50.95 20.45 50.95 18.8 49.3 L14.6 42.45 -1.65 14.85 -3.15 12.25 -7.4 4.55 -8.05 3.2 -8.05 3.15 Q-10.05 -0.55 -9.6 -3.65 -9.3 -5.85 -8.5 -6.95 L-7.7 -7.75 Q-7.0 -8.6 -5.9 -8.85 L-4.95 -9.15 M-1.25 -5.0 Q-4.05 -5.1 -4.75 -3.25 L-5.0 -0.5 -4.35 2.95 Q-3.45 5.9 -1.4 10.5 L-1.15 11.0 1.6 16.7 Q2.8 19.05 3.75 20.35 L9.0 28.7 11.45 32.75 13.05 35.2 Q13.45 36.65 16.65 40.7 20.6 45.75 23.1 45.75 24.5 45.75 25.1 44.6 25.5 43.85 25.5 42.9 25.5 41.6 22.2 35.1 L21.7 34.15 19.55 28.7 Q17.25 23.7 13.25 16.7 L12.0 14.6 6.8 6.05 2.45 -0.5 Q0.2 -3.65 -1.25 -5.0" fill="#27896f" fill-rule="evenodd" stroke="none"/>
    <path d="M-8.5 -6.95 Q-9.3 -5.85 -9.6 -3.65 -10.05 -0.55 -8.05 3.15 L-8.05 3.2 -7.4 4.55 -3.15 12.25 -1.65 14.85 14.6 42.45 18.8 49.3 Q20.45 50.95 22.9 50.95 25.3 50.95 26.95 49.3 28.65 47.6 28.65 45.2 28.6 43.5 23.8 34.6 L4.15 -1.85 4.1 -1.9 Q2.7 -5.35 0.65 -6.95 -2.7 -9.65 -4.95 -9.15 -2.3 -9.9 0.65 -8.2 L0.6 -8.2 Q3.9 -6.45 5.5 -2.45 L25.1 33.9 Q30.2 43.3 30.15 45.2 30.15 48.2 28.0 50.35 25.9 52.45 22.9 52.45 19.85 52.45 17.75 50.35 L13.3 43.2 -2.95 15.6 -4.45 13.05 Q-7.5 7.8 -8.75 5.2 L-9.45 3.75 Q-11.1 -0.2 -10.1 -3.8 -9.55 -5.7 -8.5 -6.95" fill="#10382e" fill-rule="evenodd" stroke="none"/>
  </g>
</svg>
