<?xml version="1.0" encoding="UTF-8" standalone="no"?>
<svg xmlns:ffdec="https://www.free-decompiler.com/flash" xmlns:xlink="http://www.w3.org/1999/xlink" ffdec:objectType="shape" height="42.9px" width="42.9px" xmlns="http://www.w3.org/2000/svg">
  <g transform="matrix(1.0, 0.0, 0.0, 1.0, 21.1, 21.3)">
    <path d="M15.15 -14.7 Q21.3 -8.55 21.3 0.15 21.3 8.85 15.15 14.95 9.05 21.1 0.35 21.1 -8.35 21.1 -14.5 14.95 -20.6 8.85 -20.6 0.15 -20.6 -8.55 -14.5 -14.7 -8.35 -20.8 0.35 -20.8 9.05 -20.8 15.15 -14.7" fill="#ffffff" fill-rule="evenodd" stroke="none"/>
    <path d="M15.15 -14.7 Q21.3 -8.55 21.3 0.15 21.3 8.85 15.15 14.95 9.05 21.1 0.35 21.1 -8.35 21.1 -14.5 14.95 -20.6 8.85 -20.6 0.15 -20.6 -8.55 -14.5 -14.7 -8.35 -20.8 0.35 -20.8 9.05 -20.8 15.15 -14.7 Z" fill="none" stroke="#24ce06" stroke-linecap="round" stroke-linejoin="round" stroke-width="1.0"/>
  </g>
</svg>
