<?xml version="1.0" encoding="UTF-8" standalone="no"?>
<svg xmlns:ffdec="https://www.free-decompiler.com/flash" xmlns:xlink="http://www.w3.org/1999/xlink" ffdec:objectType="shape" height="171.2px" width="81.5px" xmlns="http://www.w3.org/2000/svg">
  <g transform="matrix(1.0, 0.0, 0.0, 1.0, 37.95, 140.25)">
    <path d="M1.75 -123.5 L10.8 -123.5 8.5 -120.55 7.0 -117.65 Q4.45 -112.5 2.4 -107.1 L0.2 -100.9 -0.25 -101.65 6.15 -117.9 1.6 -117.9 -1.75 -103.8 -2.35 -104.35 0.85 -120.55 1.35 -122.2 1.35 -122.3 1.45 -122.65 1.75 -123.5 M-5.15 23.45 L-5.4 4.3 -3.35 19.05 -3.45 19.15 Q-4.1 19.85 -4.1 20.85 -4.15 21.85 -3.45 22.55 -2.75 23.25 -1.75 23.25 L-1.5 23.25 -1.25 23.2 Q-0.6 23.05 -0.1 22.55 L-0.05 22.5 Q0.6 21.85 0.65 20.85 L0.65 20.5 Q6.2 20.4 14.85 18.25 L16.85 18.0 26.6 16.85 30.0 16.55 Q29.1 18.45 26.75 20.1 19.75 25.05 1.7 25.05 L-1.15 24.6 -5.15 23.45 M9.5 -80.75 L10.85 -84.1 8.75 -86.5 8.75 -86.65 Q9.1 -88.35 9.1 -90.35 9.1 -91.55 6.6 -97.4 L3.2 -105.25 Q5.25 -110.75 7.85 -116.0 L9.25 -111.7 14.85 -91.8 Q15.55 -89.15 15.55 -86.95 15.55 -80.1 15.85 -79.35 L17.05 -75.5 Q17.6 -73.2 17.6 -71.7 L17.25 -68.55 16.85 -65.45 19.3 -62.7 Q21.7 -60.1 21.75 -58.75 L21.9 -55.05 21.9 -54.75 23.0 -48.65 24.9 -40.85 27.3 -24.5 25.2 -18.25 25.6 -17.85 22.7 -18.4 21.7 -18.6 15.85 -17.8 15.45 -18.2 16.95 -19.65 Q19.9 -22.65 20.2 -23.85 20.55 -25.1 20.0 -30.5 L20.15 -30.7 19.95 -31.55 20.15 -31.3 18.6 -39.6 Q17.9 -42.75 16.95 -44.0 15.55 -45.8 6.85 -46.75 L12.25 -52.2 Q13.55 -53.6 14.15 -55.05 14.65 -56.0 14.65 -56.95 14.65 -58.55 13.15 -59.9 11.6 -61.3 11.6 -61.55 L13.5 -72.9 Q13.5 -74.25 12.85 -74.55 L11.45 -75.15 11.55 -75.25 13.8 -77.95 Q13.8 -79.65 11.05 -80.35 L9.5 -80.75 M-3.4 -46.45 L-4.15 -43.15 -4.4 -44.9 -4.25 -42.55 -5.6 -34.45 -5.6 -51.85 Q-5.55 -62.95 -7.85 -73.8 L-8.5 -77.9 -8.7 -80.4 Q-9.0 -87.45 -6.65 -94.35 -5.5 -97.7 -3.65 -100.8 L-2.65 -102.45 -1.05 -99.45 Q-5.0 -91.5 -5.2 -82.75 L-4.95 -77.25 -4.6 -73.25 -3.4 -73.75 Q1.3 -75.5 2.6 -71.65 2.95 -70.5 2.75 -69.1 L2.25 -66.65 1.1 -63.2 Q-0.1 -60.5 -1.85 -58.3 L-3.5 -56.5 Q-2.95 -52.05 -3.25 -47.7 L-3.4 -46.45 M-15.1 -105.75 L-15.3 -106.2 Q-16.05 -108.0 -16.4 -109.8 -16.75 -111.7 -16.7 -113.6 L-16.4 -116.6 -16.25 -117.3 -15.75 -120.55 -15.5 -121.75 Q-15.25 -123.1 -13.75 -125.8 L-13.55 -126.35 Q-12.5 -129.35 -11.25 -131.45 L-10.25 -125.8 -10.05 -116.05 -15.1 -105.75 M-19.15 -105.65 L-19.35 -103.65 -19.5 -102.9 -22.3 -100.55 -19.15 -105.65 M-31.15 -88.5 Q-30.45 -91.2 -28.8 -93.3 L-26.75 -95.45 -25.95 -96.1 -23.65 -98.0 Q-20.25 -100.75 -16.65 -103.3 L-15.8 -103.95 Q-18.1 -98.8 -20.7 -93.75 L-20.7 -93.65 Q-22.8 -89.55 -23.25 -85.25 -23.75 -80.55 -22.3 -75.7 -21.6 -73.3 -20.55 -71.1 -18.5 -66.95 -15.2 -63.45 L-14.7 -57.9 -14.5 -53.7 Q-14.55 -49.0 -15.6 -44.4 L-15.65 -44.3 -17.15 -49.95 Q-16.65 -55.05 -17.45 -60.0 -18.65 -67.65 -25.05 -72.1 -29.0 -74.85 -30.5 -78.85 -31.95 -82.6 -31.3 -87.35 L-31.15 -88.5 M-19.9 -98.25 Q-19.55 -98.85 -20.15 -98.85 -22.9 -97.3 -24.9 -95.35 -30.7 -89.8 -29.95 -80.8 L-29.4 -80.45 -28.85 -80.3 -27.05 -80.0 -25.3 -80.0 Q-24.8 -89.85 -19.9 -98.25 M-19.7 -32.35 L-20.7 -36.5 Q-20.7 -42.25 -18.1 -47.4 L-18.0 -47.6 -16.85 -44.05 -16.05 -41.1 -17.5 -30.45 -17.8 -28.35 -17.9 -27.5 -18.65 -21.6 -19.25 -14.75 Q-19.7 -8.85 -19.55 -4.5 -19.35 -0.1 -19.3 4.6 -19.3 13.4 -19.8 23.4 -22.35 22.65 -26.95 20.6 L-29.95 19.1 -28.9 11.55 Q-26.45 -2.15 -24.75 -8.85 -23.85 -12.5 -24.0 -14.2 L-24.0 -14.35 -23.3 -12.7 -23.15 -13.8 Q-24.0 -16.6 -24.0 -20.8 L-22.75 -23.6 -21.05 -26.7 -20.45 -27.65 -20.35 -27.65 -20.1 -27.7 Q-19.45 -27.8 -18.9 -28.3 L-18.85 -28.35 Q-18.15 -28.95 -18.05 -29.95 -18.0 -30.95 -18.65 -31.7 -19.1 -32.25 -19.7 -32.35 M-33.9 -9.7 L-31.9 -13.95 -29.95 -17.2 -25.55 -14.05 Q-27.35 -10.45 -28.65 -8.65 L-28.9 -8.3 -29.7 -7.65 -30.8 -7.7 Q-31.55 -7.85 -32.25 -8.35 L-33.9 -9.7 M-31.15 -5.2 L-30.4 -5.35 Q-29.85 -5.25 -29.45 -4.95 -28.55 -4.35 -28.5 -2.9 -28.5 -0.9 -29.95 5.35 -31.15 10.2 -32.1 11.75 -32.55 12.4 -32.95 12.45 L-33.8 12.45 -35.0 12.35 -35.1 12.1 -35.2 11.4 -33.0 -0.45 Q-32.4 -4.45 -31.15 -5.2 M-21.2 -7.85 L-21.0 -10.0 -20.95 -10.45 Q-19.85 -19.55 -19.8 -22.35 -19.75 -23.75 -19.95 -23.7 L-21.0 -21.85 -22.2 -11.55 -22.7 -7.95 -23.75 -7.45 Q-24.45 -6.8 -24.5 -5.8 -24.6 -4.8 -23.95 -4.05 -23.45 -3.5 -22.8 -3.3 L-22.8 -1.75 -22.9 6.85 -22.95 8.4 -23.2 16.6 Q-23.7 16.75 -24.1 17.05 -24.8 17.7 -24.85 18.7 -24.95 19.7 -24.3 20.45 -23.65 21.2 -22.65 21.25 L-22.4 21.25 -22.15 21.2 Q-21.5 21.1 -20.95 20.65 L-20.9 20.6 Q-20.2 20.0 -20.1 19.0 -20.05 18.0 -20.7 17.25 -21.25 16.6 -22.1 16.5 L-21.85 14.55 Q-21.5 11.6 -21.5 10.65 L-21.6 7.8 -21.6 7.55 -21.5 -2.15 -21.45 -3.35 -20.6 -3.85 -20.55 -3.9 Q-19.85 -4.5 -19.75 -5.5 -19.7 -6.5 -20.35 -7.25 L-21.2 -7.85" fill="#b47e49" fill-rule="evenodd" stroke="none"/>
    <path d="M1.75 -123.5 L2.0 -124.2 3.5 -125.5 6.05 -127.25 7.5 -128.1 9.1 -129.0 9.75 -129.45 Q10.45 -130.05 10.75 -130.6 L10.8 -130.7 Q11.15 -131.4 11.15 -133.15 11.15 -133.7 10.65 -134.25 L6.2 -137.85 6.25 -137.85 Q10.0 -137.45 13.15 -135.85 16.25 -134.25 17.4 -133.15 18.5 -132.1 18.5 -131.45 18.5 -129.45 16.9 -128.3 L14.7 -126.85 12.65 -125.3 12.65 -125.25 10.8 -123.5 1.75 -123.5 M7.85 -116.0 L10.2 -120.55 11.1 -121.7 12.8 -123.5 13.2 -123.9 Q17.9 -112.4 21.55 -92.5 25.0 -70.65 25.9 -66.15 L27.05 -58.1 40.95 15.0 Q34.05 21.6 29.6 23.9 19.05 29.35 2.5 29.35 L-0.55 29.0 Q-2.45 28.4 -3.35 27.45 -4.75 26.1 -5.15 23.45 L-1.15 24.6 1.7 25.05 Q19.75 25.05 26.75 20.1 29.1 18.45 30.0 16.55 L32.75 16.2 34.0 15.8 Q33.8 14.85 33.85 13.75 33.95 12.3 33.0 7.7 L30.3 -4.15 32.35 -4.9 32.35 -5.05 29.55 -12.7 Q27.85 -17.6 27.0 -17.6 L25.6 -17.85 25.2 -18.25 27.3 -24.5 24.9 -40.85 23.0 -48.65 21.9 -54.75 21.9 -55.05 21.75 -58.75 Q21.7 -60.1 19.3 -62.7 L16.85 -65.45 17.25 -68.55 17.6 -71.7 Q17.6 -73.2 17.05 -75.5 L15.85 -79.35 Q15.55 -80.1 15.55 -86.95 15.55 -89.15 14.85 -91.8 L9.25 -111.7 7.85 -116.0 M15.85 -17.8 L21.7 -18.6 22.7 -18.4 Q24.6 -17.95 24.65 -17.5 L18.0 -16.55 14.6 -16.1 6.5 -15.25 6.95 -14.5 Q8.45 -7.2 8.65 -2.75 L13.2 -2.45 18.35 -2.65 23.75 -2.95 29.45 -3.65 Q29.8 -3.2 31.2 5.15 L32.65 15.0 30.4 15.35 20.8 16.65 11.25 17.75 Q7.0 18.2 6.05 18.6 5.55 18.75 5.4 18.95 L5.3 17.55 5.05 11.05 4.9 3.45 4.85 0.35 4.45 -12.8 4.35 -14.85 Q4.35 -15.55 6.0 -16.1 L10.35 -17.05 13.35 -17.45 15.85 -17.8 M27.75 -15.25 L27.65 -15.35 27.7 -15.25 27.65 -15.0 24.4 -14.5 20.55 -14.05 19.2 -13.9 16.55 -13.7 13.55 -13.75 16.0 -14.5 19.8 -15.15 20.0 -15.2 27.0 -16.2 27.35 -16.3 27.85 -15.05 27.75 -15.25 M6.05 -1.15 L6.1 0.0 6.25 3.95 Q6.85 14.65 9.1 16.55 9.5 16.85 10.0 16.9 L16.35 16.25 24.9 14.7 30.55 13.6 30.9 13.5 30.25 9.8 Q29.65 5.3 29.5 -0.45 L28.6 -0.4 22.95 -0.05 13.75 0.55 7.85 0.85 7.15 0.55 6.7 -0.15 6.05 -1.15 M-15.1 -105.75 Q-15.35 -105.15 -15.95 -104.8 L-16.55 -104.55 -17.75 -104.05 -17.3 -120.55 -17.5 -122.25 -15.5 -125.8 -13.35 -130.85 -11.95 -133.45 Q-11.8 -133.8 -9.4 -134.2 L-7.6 -134.4 -6.4 -134.35 -4.95 -134.1 -5.45 -133.3 -5.8 -132.7 -5.9 -132.5 Q-7.15 -129.95 -7.85 -125.8 -7.95 -124.35 -8.4 -122.05 L-8.75 -120.55 -10.05 -116.05 -10.25 -125.8 -11.25 -131.45 Q-12.5 -129.35 -13.55 -126.35 L-13.75 -125.8 Q-15.25 -123.1 -15.5 -121.75 L-15.75 -120.55 -16.25 -117.3 -16.4 -116.6 -16.7 -113.6 Q-16.75 -111.7 -16.4 -109.8 -16.05 -108.0 -15.3 -106.2 L-15.1 -105.75 M-22.3 -100.55 L-24.65 -98.55 -18.85 -109.6 -19.15 -105.65 -22.3 -100.55 M-31.15 -88.5 L-31.3 -87.35 Q-31.95 -82.6 -30.5 -78.85 -29.0 -74.85 -25.05 -72.1 -18.65 -67.65 -17.45 -60.0 -16.65 -55.05 -17.15 -49.95 -18.7 -54.25 -20.95 -58.25 -22.6 -61.15 -24.65 -63.9 L-25.75 -65.3 Q-30.6 -71.3 -31.65 -78.2 -32.25 -82.15 -31.55 -86.35 L-31.15 -88.5 M-18.0 -47.6 L-18.1 -47.4 Q-20.7 -42.25 -20.7 -36.5 L-19.7 -32.35 -20.3 -32.45 Q-21.3 -32.5 -22.05 -31.9 -22.75 -31.25 -22.8 -30.25 -22.9 -29.25 -22.25 -28.5 -21.6 -27.75 -20.6 -27.7 L-20.45 -27.65 -21.05 -26.7 -22.75 -23.6 -24.0 -20.8 Q-24.0 -16.6 -23.15 -13.8 L-23.3 -12.7 -24.0 -14.35 Q-24.05 -17.05 -26.5 -18.35 L-27.25 -18.75 -21.4 -55.75 Q-19.45 -51.8 -18.0 -47.6 M-28.9 11.55 L-29.95 19.1 -26.95 20.6 Q-22.35 22.65 -19.8 23.4 L-19.15 27.55 Q-19.35 27.1 -21.75 26.3 L-24.1 25.55 -27.55 24.45 Q-29.45 23.8 -33.55 20.8 L-32.95 17.15 -30.6 17.75 -30.05 17.9 -28.9 11.55 M-33.9 -9.7 L-35.0 -10.9 -32.25 -17.15 Q-31.2 -19.7 -30.6 -19.35 L-30.4 -19.15 -29.1 -18.95 -28.7 -18.7 -27.5 -17.35 -25.2 -15.1 -24.9 -14.8 -25.55 -14.05 -29.95 -17.2 -31.9 -13.95 -33.9 -9.7 M-31.15 -5.2 Q-32.4 -4.45 -33.0 -0.45 L-35.2 11.4 -35.1 12.1 -35.0 12.35 -33.8 12.45 -32.95 12.45 Q-32.55 12.4 -32.1 11.75 -31.15 10.2 -29.95 5.35 -28.5 -0.9 -28.5 -2.9 -28.55 -4.35 -29.45 -4.95 -29.85 -5.25 -30.4 -5.35 L-31.15 -5.2 M-31.35 -6.25 L-31.0 -6.2 -30.25 -6.15 -29.15 -6.85 Q-27.25 -8.25 -25.85 -10.4 L-25.15 -11.65 Q-25.4 -7.75 -27.35 2.75 L-28.45 8.1 Q-29.75 13.95 -30.55 15.85 L-32.65 15.25 -34.15 14.75 Q-36.9 13.8 -36.9 13.3 L-36.45 9.6 -33.0 -7.05 Q-32.35 -6.5 -31.35 -6.25" fill="#92663a" fill-rule="evenodd" stroke="none"/>
    <path d="M-1.9 -45.35 L-1.05 -49.2 Q3.0 -52.75 7.75 -54.25 L8.2 -53.55 Q6.85 -49.15 5.15 -44.85 L4.85 -44.1 4.35 -42.85 Q4.25 -42.7 4.3 -42.45 5.3 -41.25 7.0 -41.75 8.75 -41.85 10.3 -40.7 12.15 -32.9 14.85 -25.55 L14.9 -25.4 9.75 -20.95 13.35 -17.45 10.35 -17.05 6.0 -16.1 7.1 -18.95 -0.85 -14.8 -2.9 -15.35 Q-3.6 -15.65 -3.9 -16.4 -3.25 -19.75 -4.0 -23.25 L6.1 -22.8 Q1.0 -25.25 -1.1 -30.75 -1.95 -33.0 -1.95 -35.7 L-1.9 -45.35 M1.35 -58.25 L2.85 -63.1 4.1 -63.05 7.9 -63.2 Q8.45 -63.05 8.45 -61.2 8.45 -59.05 7.3 -58.55 L3.7 -58.25 1.35 -58.25 M4.5 -67.95 L6.45 -73.15 7.95 -76.8 Q8.75 -75.95 8.75 -73.6 8.75 -70.75 4.85 -68.15 L4.5 -67.95 M3.6 -94.75 L3.1 -95.9 3.35 -95.35 3.6 -94.75 M3.45 -89.6 L7.5 -83.65 7.45 -83.5 Q7.2 -82.8 6.6 -82.5 L6.0 -82.15 Q1.8 -80.15 -3.0 -80.55 L-3.5 -80.95 -1.75 -94.75 -0.35 -95.25 1.6 -92.65 2.85 -90.45 3.45 -89.6 M4.45 -12.8 L4.85 0.35 -1.3 1.35 -1.4 1.35 -1.8 1.35 -2.0 1.35 -2.3 1.15 Q-2.65 0.7 -2.85 -0.9 L-2.9 -1.2 -2.6 -1.2 -2.35 -1.2 -2.1 -1.25 Q-1.45 -1.4 -0.95 -1.9 L-0.9 -1.95 Q-0.25 -2.6 -0.2 -3.6 -0.2 -4.6 -0.9 -5.3 -1.6 -6.0 -2.6 -5.95 L-3.0 -5.9 Q-2.85 -7.1 -2.4 -7.45 L-0.4 -8.0 Q1.25 -8.4 2.9 -10.5 L4.45 -12.8 M4.9 3.45 L5.05 11.05 5.3 17.55 -1.3 18.45 Q-2.15 18.45 -2.55 11.8 L-2.65 10.4 Q-2.65 7.55 -2.2 5.8 -1.85 4.25 -1.15 3.45 -0.3 2.3 1.1 2.3 1.85 2.3 4.9 3.45 M6.95 -14.5 L6.5 -15.25 14.6 -16.1 18.0 -16.55 24.65 -17.5 Q25.25 -17.7 26.4 -16.95 L27.35 -16.3 27.0 -16.2 20.0 -15.2 19.8 -15.15 16.0 -14.5 13.55 -13.75 7.9 -13.25 7.65 -14.1 Q7.35 -14.5 6.95 -14.5 M20.5 -5.15 Q21.1 -5.3 21.55 -5.8 L21.6 -5.85 Q22.2 -6.5 22.25 -7.5 22.25 -8.5 21.6 -9.2 20.95 -9.9 20.05 -9.85 19.15 -9.85 18.6 -9.3 L18.5 -9.2 Q17.9 -8.5 17.9 -7.5 17.85 -6.5 18.5 -5.8 L18.85 -5.45 Q19.35 -5.1 20.05 -5.1 L20.25 -5.1 18.05 -4.8 14.15 -5.0 13.3 -5.05 12.35 -5.3 11.95 -5.8 Q9.85 -8.5 9.9 -11.25 L10.2 -12.55 18.25 -10.4 22.05 -9.55 25.25 -9.1 25.55 -7.85 26.0 -6.85 Q25.05 -6.3 23.15 -5.75 L21.4 -5.35 20.5 -5.15 M24.8 14.25 L17.75 14.75 13.5 14.6 Q12.05 14.5 11.1 13.8 10.15 13.15 10.75 12.8 L9.65 4.8 Q9.8 2.0 11.8 2.15 12.2 2.2 16.1 4.3 L20.05 6.5 29.25 11.9 Q27.45 13.55 25.4 14.1 L24.8 14.25" fill="#cfac89" fill-rule="evenodd" stroke="none"/>
    <path d="M-0.25 -101.65 L-1.75 -103.8 1.6 -117.9 6.15 -117.9 -0.25 -101.65 M-5.4 4.3 L-5.6 -7.5 -5.8 -13.25 -5.5 -13.25 -5.55 -30.45 Q-3.6 -37.3 -2.0 -44.95 L-1.9 -45.35 -1.95 -35.7 Q-1.95 -33.0 -1.1 -30.75 1.0 -25.25 6.1 -22.8 L-4.0 -23.25 Q-3.25 -19.75 -3.9 -16.4 -3.6 -15.65 -2.9 -15.35 L-0.85 -14.8 7.1 -18.95 6.0 -16.1 Q4.35 -15.55 4.35 -14.85 L4.45 -12.8 2.9 -10.5 Q1.25 -8.4 -0.4 -8.0 L-2.4 -7.45 Q-2.85 -7.1 -3.0 -5.9 -3.75 -5.8 -4.3 -5.3 -4.95 -4.6 -4.95 -3.6 -5.0 -2.6 -4.3 -1.9 -3.7 -1.3 -2.9 -1.2 L-2.85 -0.9 Q-2.65 0.7 -2.3 1.15 L-2.0 1.35 -1.8 1.35 -1.4 1.35 -1.3 1.35 4.85 0.35 4.9 3.45 Q1.85 2.3 1.1 2.3 -0.3 2.3 -1.15 3.45 -1.85 4.25 -2.2 5.8 -2.65 7.55 -2.65 10.4 L-2.55 11.8 Q-2.15 18.45 -1.3 18.45 L5.3 17.55 5.4 18.95 5.4 19.0 9.35 18.75 14.85 18.25 Q6.2 20.4 0.65 20.5 0.5 19.7 -0.05 19.15 -0.75 18.45 -1.75 18.5 -2.65 18.5 -3.35 19.05 L-5.4 4.3 M-1.05 -49.2 Q0.0 -53.75 1.35 -58.25 L3.7 -58.25 7.3 -58.55 Q8.45 -59.05 8.45 -61.2 8.45 -63.05 7.9 -63.2 L4.1 -63.05 2.85 -63.1 4.5 -67.95 4.85 -68.15 Q8.75 -70.75 8.75 -73.6 8.75 -75.95 7.95 -76.8 L9.5 -80.75 11.05 -80.35 Q13.8 -79.65 13.8 -77.95 L11.55 -75.25 11.45 -75.15 12.85 -74.55 Q13.5 -74.25 13.5 -72.9 L11.6 -61.55 Q11.6 -61.3 13.15 -59.9 14.65 -58.55 14.65 -56.95 14.65 -56.0 14.15 -55.05 13.55 -53.6 12.25 -52.2 L6.85 -46.75 Q15.55 -45.8 16.95 -44.0 17.9 -42.75 18.6 -39.6 L20.15 -31.3 19.95 -31.55 20.15 -30.7 20.0 -30.5 Q20.55 -25.1 20.2 -23.85 19.9 -22.65 16.95 -19.65 L15.45 -18.2 15.85 -17.8 13.35 -17.45 9.75 -20.95 14.9 -25.4 14.85 -25.55 Q12.15 -32.9 10.3 -40.7 8.75 -41.85 7.0 -41.75 5.3 -41.25 4.3 -42.45 4.25 -42.7 4.35 -42.85 L4.85 -44.1 5.15 -44.85 Q6.85 -49.15 8.2 -53.55 L7.75 -54.25 Q3.0 -52.75 -1.05 -49.2 M8.75 -86.5 Q5.6 -90.35 3.6 -94.75 L3.35 -95.35 3.1 -95.9 1.9 -99.15 Q1.5 -100.4 1.95 -101.8 L3.2 -105.25 6.6 -97.4 Q9.1 -91.55 9.1 -90.35 9.1 -88.35 8.75 -86.65 L8.75 -86.5 M3.45 -89.6 L2.85 -90.45 1.6 -92.65 -0.35 -95.25 -1.75 -94.75 -3.5 -80.95 -3.0 -80.55 Q1.8 -80.15 6.0 -82.15 L6.6 -82.5 Q7.2 -82.8 7.45 -83.5 L7.5 -83.65 3.45 -89.6 M-1.05 -99.45 Q1.35 -95.2 4.05 -91.1 L8.3 -85.1 8.95 -84.25 9.1 -83.75 8.0 -81.2 6.5 -77.6 Q4.25 -72.2 2.4 -66.7 L1.2 -63.2 -0.3 -58.25 -2.45 -50.45 -3.4 -46.45 -3.25 -47.7 Q-2.95 -52.05 -3.5 -56.5 L-1.85 -58.3 Q-0.1 -60.5 1.1 -63.2 L2.25 -66.65 2.75 -69.1 Q2.95 -70.5 2.6 -71.65 1.3 -75.5 -3.4 -73.75 L-4.6 -73.25 -4.95 -77.25 -5.2 -82.75 Q-5.0 -91.5 -1.05 -99.45 M-4.15 -43.15 L-4.25 -42.55 -4.4 -44.9 -4.15 -43.15 M13.55 -13.75 L16.55 -13.7 19.2 -13.9 20.55 -14.05 24.4 -14.5 27.65 -15.0 27.7 -15.25 27.65 -15.35 27.75 -15.25 27.8 -15.1 27.8 -15.05 29.25 -11.15 Q30.95 -6.45 31.05 -5.3 L29.45 -5.0 23.5 -4.25 19.55 -3.95 15.95 -3.65 9.3 -3.45 Q8.9 -9.7 8.4 -11.85 L7.9 -13.25 13.55 -13.75 M6.05 -1.15 L6.7 -0.15 7.15 0.55 7.85 0.85 13.75 0.55 22.95 -0.05 28.6 -0.4 29.5 -0.45 Q29.65 5.3 30.25 9.8 L30.9 13.5 30.55 13.6 24.9 14.7 16.35 16.25 10.0 16.9 Q9.5 16.85 9.1 16.55 6.85 14.65 6.25 3.95 L6.1 0.0 6.05 -1.15 M20.25 -5.1 L20.5 -5.15 21.4 -5.35 23.15 -5.75 Q25.05 -6.3 26.0 -6.85 L25.55 -7.85 25.25 -9.1 22.05 -9.55 18.25 -10.4 10.2 -12.55 9.9 -11.25 Q9.85 -8.5 11.95 -5.8 L12.35 -5.3 13.3 -5.05 14.15 -5.0 18.05 -4.8 20.25 -5.1 M24.8 14.25 L25.4 14.1 Q27.45 13.55 29.25 11.9 L20.05 6.5 16.1 4.3 Q12.2 2.2 11.8 2.15 9.8 2.0 9.65 4.8 L10.75 12.8 Q10.15 13.15 11.1 13.8 12.05 14.5 13.5 14.6 L17.75 14.75 24.8 14.25 M-3.0 -103.65 L-2.95 -103.9 -2.95 -103.75 -3.0 -103.65 M-19.9 -98.25 Q-24.8 -89.85 -25.3 -80.0 L-27.05 -80.0 -28.85 -80.3 -29.4 -80.45 -29.95 -80.8 Q-30.7 -89.8 -24.9 -95.35 -22.9 -97.3 -20.15 -98.85 -19.55 -98.85 -19.9 -98.25 M-1.15 -29.85 Q-1.85 -30.55 -2.85 -30.5 -3.85 -30.5 -4.55 -29.85 -5.2 -29.15 -5.2 -28.15 -5.25 -27.15 -4.55 -26.45 -3.85 -25.75 -2.85 -25.75 L-2.6 -25.75 -2.35 -25.8 Q-1.7 -25.95 -1.2 -26.45 L-1.15 -26.5 Q-0.5 -27.15 -0.45 -28.15 -0.45 -29.15 -1.15 -29.85 M-22.7 -7.95 L-22.2 -11.55 -21.0 -21.85 -19.95 -23.7 Q-19.75 -23.75 -19.8 -22.35 -19.85 -19.55 -20.95 -10.45 L-21.0 -10.0 -21.2 -7.85 -22.0 -8.0 -22.7 -7.95 M-21.45 -3.35 L-21.5 -2.15 -21.6 7.55 -21.6 7.8 -21.5 10.65 Q-21.5 11.6 -21.85 14.55 L-22.1 16.5 -22.35 16.5 -23.2 16.6 -22.95 8.4 -22.9 6.85 -22.8 -1.75 -22.8 -3.3 -22.3 -3.25 -22.05 -3.25 -21.8 -3.3 -21.45 -3.35" fill="#bf9162" fill-rule="evenodd" stroke="none"/>
    <path d="M7.15 -139.55 L7.3 -139.5 10.0 -138.6 Q16.85 -135.95 18.1 -133.9 19.35 -131.85 19.3 -130.55 19.2 -129.3 17.75 -127.95 L15.2 -125.8 Q20.5 -114.8 23.2 -96.9 25.5 -75.2 26.5 -69.1 L27.35 -60.25 27.65 -58.1 29.85 -50.35 43.55 15.85 36.55 21.8 Q34.0 23.7 29.55 26.0 19.6 30.95 3.1 30.95 L0.3 30.65 -3.45 29.85 Q-6.1 28.95 -6.25 24.95 L-7.2 -11.85 -7.2 -12.2 -7.2 -12.6 -7.15 -21.5 -7.35 -29.25 -7.45 -38.4 -7.1 -59.7 Q-7.45 -64.4 -8.45 -68.95 -9.4 -73.2 -9.65 -77.5 L-10.35 -80.55 Q-10.35 -82.6 -9.5 -86.5 -8.9 -91.9 -6.8 -96.7 L-6.7 -97.2 Q-2.75 -110.7 -2.55 -112.15 -2.05 -115.7 -0.95 -118.95 L-0.55 -120.55 0.5 -123.6 1.0 -124.8 Q2.45 -126.05 3.7 -128.1 L3.65 -128.1 Q4.7 -129.9 4.55 -131.2 L4.55 -132.1 4.5 -132.3 4.35 -132.7 4.2 -133.0 3.55 -133.75 3.1 -134.1 Q2.05 -134.6 0.4 -134.6 L-1.65 -134.2 -1.9 -134.1 -2.4 -133.8 -3.05 -133.3 -3.65 -132.7 -4.55 -131.3 Q-5.45 -129.9 -5.7 -128.25 L-5.75 -127.95 -6.3 -125.5 Q-6.55 -123.4 -7.3 -120.55 L-7.9 -118.3 -7.85 -117.4 Q-7.8 -117.2 -9.1 -114.9 -10.15 -112.45 -11.5 -110.1 -19.45 -96.4 -22.3 -80.9 -22.7 -78.55 -21.9 -76.45 -20.85 -73.55 -19.3 -70.85 L-17.9 -69.15 Q-15.35 -66.3 -14.65 -65.15 L-13.8 -63.45 -13.75 -63.4 -13.75 -63.3 Q-13.15 -61.7 -13.15 -59.9 L-13.25 -55.05 Q-13.65 -41.95 -16.0 -31.95 -17.45 -22.3 -17.75 -9.75 L-18.2 10.35 Q-18.3 17.8 -18.0 28.4 L-19.85 28.45 Q-20.95 28.45 -22.5 27.9 L-30.75 24.7 -35.2 21.75 -34.4 16.55 -36.6 15.25 -37.95 13.5 Q-38.1 9.35 -36.2 1.15 -34.3 -7.1 -34.25 -7.9 -34.3 -9.2 -35.7 -10.1 -35.8 -11.85 -33.7 -16.0 -32.3 -19.0 -31.25 -20.0 L-29.0 -19.6 -23.45 -56.5 -23.55 -58.25 -23.65 -59.55 -23.7 -60.05 Q-26.05 -64.1 -28.9 -67.85 -30.65 -70.1 -31.4 -72.7 -34.4 -83.2 -30.45 -93.75 L-27.2 -96.45 -20.3 -109.5 -18.7 -112.55 -18.75 -120.55 -18.7 -122.3 Q-18.5 -123.35 -16.9 -125.8 L-15.05 -129.6 -13.65 -132.25 -12.8 -133.85 Q-12.5 -134.55 -10.2 -136.3 -7.9 -138.1 -2.35 -139.65 1.95 -140.9 7.15 -139.55 M10.8 -123.5 L12.65 -125.25 12.65 -125.3 14.7 -126.85 16.9 -128.3 Q18.5 -129.45 18.5 -131.45 18.5 -132.1 17.4 -133.15 16.25 -134.25 13.15 -135.85 10.0 -137.45 6.25 -137.85 L6.2 -137.85 10.65 -134.25 Q11.15 -133.7 11.15 -133.15 11.15 -131.4 10.8 -130.7 L10.75 -130.6 Q10.45 -130.05 9.75 -129.45 L9.1 -129.0 7.5 -128.1 6.05 -127.25 3.5 -125.5 2.0 -124.2 1.75 -123.5 1.45 -122.65 1.35 -122.3 1.35 -122.2 0.85 -120.55 -2.35 -104.35 -1.75 -103.8 -0.25 -101.65 0.2 -100.9 2.4 -107.1 Q4.45 -112.5 7.0 -117.65 L8.5 -120.55 10.8 -123.5 M-5.15 23.45 Q-4.75 26.1 -3.35 27.45 -2.45 28.4 -0.55 29.0 L2.5 29.35 Q19.05 29.35 29.6 23.9 34.05 21.6 40.95 15.0 L27.05 -58.1 25.9 -66.15 Q25.0 -70.65 21.55 -92.5 17.9 -112.4 13.2 -123.9 L12.8 -123.5 11.1 -121.7 10.2 -120.55 7.85 -116.0 Q5.25 -110.75 3.2 -105.25 L1.95 -101.8 Q1.5 -100.4 1.9 -99.15 L3.1 -95.9 3.6 -94.75 Q5.6 -90.35 8.75 -86.5 L10.85 -84.1 9.5 -80.75 7.95 -76.8 6.45 -73.15 4.5 -67.95 2.85 -63.1 1.35 -58.25 Q0.0 -53.75 -1.05 -49.2 L-1.9 -45.35 -2.0 -44.95 Q-3.6 -37.3 -5.55 -30.45 L-5.5 -13.25 -5.8 -13.25 -5.6 -7.5 -5.4 4.3 -5.15 23.45 M25.6 -17.85 L27.0 -17.6 Q27.85 -17.6 29.55 -12.7 L32.35 -5.05 32.35 -4.9 30.3 -4.15 33.0 7.7 Q33.95 12.3 33.85 13.75 33.8 14.85 34.0 15.8 L32.75 16.2 30.0 16.55 26.6 16.85 16.85 18.0 14.85 18.25 9.35 18.75 5.4 19.0 5.4 18.95 Q5.55 18.75 6.05 18.6 7.0 18.2 11.25 17.75 L20.8 16.65 30.4 15.35 32.65 15.0 31.2 5.15 Q29.8 -3.2 29.45 -3.65 L23.75 -2.95 18.35 -2.65 13.2 -2.45 8.65 -2.75 Q8.45 -7.2 6.95 -14.5 7.35 -14.5 7.65 -14.1 L7.9 -13.25 8.4 -11.85 Q8.9 -9.7 9.3 -3.45 L15.95 -3.65 19.55 -3.95 23.5 -4.25 29.45 -5.0 31.05 -5.3 Q30.95 -6.45 29.25 -11.15 L27.8 -15.05 27.8 -15.1 27.75 -15.25 27.85 -15.05 27.35 -16.3 26.4 -16.95 Q25.25 -17.7 24.65 -17.5 24.6 -17.95 22.7 -18.4 L25.6 -17.85 M-3.4 -46.45 L-2.45 -50.45 -0.3 -58.25 1.2 -63.2 2.4 -66.7 Q4.25 -72.2 6.5 -77.6 L8.0 -81.2 9.1 -83.75 8.95 -84.25 8.3 -85.1 4.05 -91.1 Q1.35 -95.2 -1.05 -99.45 L-2.65 -102.45 -3.65 -100.8 Q-5.5 -97.7 -6.65 -94.35 -9.0 -87.45 -8.7 -80.4 L-8.5 -77.9 -7.85 -73.8 Q-5.55 -62.95 -5.6 -51.85 L-5.6 -34.45 -4.25 -42.55 -4.15 -43.15 -3.4 -46.45 M-10.05 -116.05 L-8.75 -120.55 -8.4 -122.05 Q-7.95 -124.35 -7.85 -125.8 -7.15 -129.95 -5.9 -132.5 L-5.8 -132.7 -5.45 -133.3 -4.95 -134.1 -6.4 -134.35 -7.6 -134.4 -9.4 -134.2 Q-11.8 -133.8 -11.95 -133.45 L-13.35 -130.85 -15.5 -125.8 -17.5 -122.25 -17.3 -120.55 -17.75 -104.05 -16.55 -104.55 -15.95 -104.8 Q-15.35 -105.15 -15.1 -105.75 L-10.05 -116.05 M-19.15 -105.65 L-18.85 -109.6 -24.65 -98.55 -22.3 -100.55 -19.5 -102.9 -19.35 -103.65 -19.15 -105.65 M-17.15 -49.95 L-15.65 -44.3 -15.6 -44.4 Q-14.55 -49.0 -14.5 -53.7 L-14.7 -57.9 -15.2 -63.45 Q-18.5 -66.95 -20.55 -71.1 -21.6 -73.3 -22.3 -75.7 -23.75 -80.55 -23.25 -85.25 -22.8 -89.55 -20.7 -93.65 L-20.7 -93.75 Q-18.1 -98.8 -15.8 -103.95 L-16.65 -103.3 Q-20.25 -100.75 -23.65 -98.0 L-25.95 -96.1 -26.75 -95.45 -28.8 -93.3 Q-30.45 -91.2 -31.15 -88.5 L-31.55 -86.35 Q-32.25 -82.15 -31.65 -78.2 -30.6 -71.3 -25.75 -65.3 L-24.65 -63.9 Q-22.6 -61.15 -20.95 -58.25 -18.7 -54.25 -17.15 -49.95 M-3.0 -103.65 L-2.95 -103.75 -2.95 -103.9 -3.0 -103.65 M-24.0 -14.35 L-24.0 -14.2 Q-23.85 -12.5 -24.75 -8.85 -26.45 -2.15 -28.9 11.55 L-30.05 17.9 -30.6 17.75 -32.95 17.15 -33.55 20.8 Q-29.45 23.8 -27.55 24.45 L-24.1 25.55 -21.75 26.3 Q-19.35 27.1 -19.15 27.55 L-19.8 23.4 Q-19.3 13.4 -19.3 4.6 -19.35 -0.1 -19.55 -4.5 -19.7 -8.85 -19.25 -14.75 L-18.65 -21.6 -17.9 -27.5 -17.8 -28.35 -17.5 -30.45 -16.05 -41.1 -16.85 -44.05 -18.0 -47.6 Q-19.45 -51.8 -21.4 -55.75 L-27.25 -18.75 -26.5 -18.35 Q-24.05 -17.05 -24.0 -14.35 M-25.55 -14.05 L-24.9 -14.8 -25.2 -15.1 -27.5 -17.35 -28.7 -18.7 -29.1 -18.95 -30.4 -19.15 -30.6 -19.35 Q-31.2 -19.7 -32.25 -17.15 L-35.0 -10.9 -33.9 -9.7 -32.25 -8.35 Q-31.55 -7.85 -30.8 -7.7 L-29.7 -7.65 -28.9 -8.3 -28.65 -8.65 Q-27.35 -10.45 -25.55 -14.05 M-31.35 -6.25 Q-32.35 -6.5 -33.0 -7.05 L-36.45 9.6 -36.9 13.3 Q-36.9 13.8 -34.15 14.75 L-32.65 15.25 -30.55 15.85 Q-29.75 13.95 -28.45 8.1 L-27.35 2.75 Q-25.4 -7.75 -25.15 -11.65 L-25.85 -10.4 Q-27.25 -8.25 -29.15 -6.85 L-30.25 -6.15 -31.0 -6.2 -31.35 -6.25" fill="#5f4225" fill-rule="evenodd" stroke="none"/>
    <path d="M20.25 -5.1 L20.05 -5.1 Q19.35 -5.1 18.85 -5.45 L18.5 -5.8 Q17.85 -6.5 17.9 -7.5 17.9 -8.5 18.5 -9.2 L18.6 -9.3 Q19.15 -9.85 20.05 -9.85 20.95 -9.9 21.6 -9.2 22.25 -8.5 22.25 -7.5 22.2 -6.5 21.6 -5.85 L21.55 -5.8 Q21.1 -5.3 20.5 -5.15 L20.25 -5.1 M18.8 -8.45 Q18.5 -8.05 18.55 -7.5 18.55 -6.8 19.0 -6.35 L19.05 -6.3 Q19.45 -5.9 20.05 -5.85 20.65 -5.85 21.1 -6.35 21.55 -6.8 21.55 -7.5 21.5 -8.2 21.1 -8.65 20.65 -9.1 20.05 -9.1 19.4 -9.15 19.0 -8.7 L18.95 -8.65 18.8 -8.45 M0.65 20.5 L0.65 20.85 Q0.6 21.85 -0.05 22.5 L-0.1 22.55 Q-0.6 23.05 -1.25 23.2 L-1.5 23.25 -1.75 23.25 Q-2.75 23.25 -3.45 22.55 -4.15 21.85 -4.1 20.85 -4.1 19.85 -3.45 19.15 L-3.35 19.05 Q-2.65 18.5 -1.75 18.5 -0.75 18.45 -0.05 19.15 0.5 19.7 0.65 20.5 M-19.7 -32.35 Q-19.1 -32.25 -18.65 -31.7 -18.0 -30.95 -18.05 -29.95 -18.15 -28.95 -18.85 -28.35 L-18.9 -28.3 Q-19.45 -27.8 -20.1 -27.7 L-20.35 -27.65 -20.45 -27.65 -20.6 -27.7 Q-21.6 -27.75 -22.25 -28.5 -22.9 -29.25 -22.8 -30.25 -22.75 -31.25 -22.05 -31.9 -21.3 -32.5 -20.3 -32.45 L-19.7 -32.35 M-1.2 -28.15 Q-1.25 -28.85 -1.7 -29.3 L-2.85 -29.75 Q-3.55 -29.8 -4.0 -29.35 L-4.05 -29.3 Q-4.5 -28.85 -4.45 -28.15 -4.45 -27.45 -4.0 -27.0 -3.55 -26.55 -2.85 -26.5 -2.15 -26.5 -1.7 -27.0 -1.2 -27.45 -1.2 -28.15 M-19.25 -31.15 L-19.5 -31.4 Q-19.85 -31.65 -20.35 -31.7 -21.05 -31.8 -21.55 -31.35 L-21.6 -31.3 Q-22.05 -30.9 -22.05 -30.2 -22.1 -29.5 -21.65 -29.0 -21.25 -28.55 -20.55 -28.45 L-19.9 -28.5 Q-19.6 -28.6 -19.35 -28.85 -18.85 -29.3 -18.8 -30.0 -18.8 -30.7 -19.25 -31.15 M-1.15 -29.85 Q-0.45 -29.15 -0.45 -28.15 -0.5 -27.15 -1.15 -26.5 L-1.2 -26.45 Q-1.7 -25.95 -2.35 -25.8 L-2.6 -25.75 -2.85 -25.75 Q-3.85 -25.75 -4.55 -26.45 -5.25 -27.15 -5.2 -28.15 -5.2 -29.15 -4.55 -29.85 -3.85 -30.5 -2.85 -30.5 -1.85 -30.55 -1.15 -29.85 M-21.2 -7.85 L-20.35 -7.25 Q-19.7 -6.5 -19.75 -5.5 -19.85 -4.5 -20.55 -3.9 L-20.6 -3.85 -21.45 -3.35 -21.8 -3.3 -22.05 -3.25 -22.3 -3.25 -22.8 -3.3 Q-23.45 -3.5 -23.95 -4.05 -24.6 -4.8 -24.5 -5.8 -24.45 -6.8 -23.75 -7.45 L-22.7 -7.95 -22.0 -8.0 -21.2 -7.85 M-22.1 16.5 Q-21.25 16.6 -20.7 17.25 -20.05 18.0 -20.1 19.0 -20.2 20.0 -20.9 20.6 L-20.95 20.65 Q-21.5 21.1 -22.15 21.2 L-22.4 21.25 -22.65 21.25 Q-23.65 21.2 -24.3 20.45 -24.95 19.7 -24.85 18.7 -24.8 17.7 -24.1 17.05 -23.7 16.75 -23.2 16.6 L-22.35 16.5 -22.1 16.5 M-23.25 -6.95 L-23.3 -6.9 -23.75 -5.75 Q-23.8 -5.05 -23.35 -4.6 L-22.8 -4.15 -22.25 -4.0 -21.45 -4.15 -21.05 -4.45 Q-20.55 -4.85 -20.5 -5.55 -20.5 -6.25 -20.95 -6.75 L-21.25 -7.0 -22.05 -7.25 -22.8 -7.2 -23.25 -6.95 M-3.0 -5.9 L-2.6 -5.95 Q-1.6 -6.0 -0.9 -5.3 -0.2 -4.6 -0.2 -3.6 -0.25 -2.6 -0.9 -1.95 L-0.95 -1.9 Q-1.45 -1.4 -2.1 -1.25 L-2.35 -1.2 -2.6 -1.2 -2.9 -1.2 Q-3.7 -1.3 -4.3 -1.9 -5.0 -2.6 -4.95 -3.6 -4.95 -4.6 -4.3 -5.3 -3.75 -5.8 -3.0 -5.9 M-0.1 20.85 L-0.15 20.5 -0.6 19.7 Q-1.05 19.25 -1.75 19.25 -2.45 19.2 -2.9 19.65 L-2.95 19.7 -3.2 20.05 -3.35 20.85 Q-3.35 21.55 -2.9 22.0 -2.45 22.45 -1.75 22.5 -1.05 22.5 -0.6 22.0 -0.1 21.55 -0.1 20.85 M-0.95 -3.6 Q-1.0 -4.3 -1.45 -4.75 -1.9 -5.2 -2.6 -5.2 L-3.05 -5.15 -3.75 -4.8 -3.8 -4.75 Q-4.25 -4.3 -4.2 -3.6 -4.2 -2.9 -3.75 -2.45 L-3.0 -2.0 -2.6 -1.95 Q-1.9 -1.95 -1.45 -2.45 -0.95 -2.9 -0.95 -3.6 M-23.6 17.6 L-23.65 17.6 Q-24.1 18.05 -24.1 18.75 -24.15 19.45 -23.7 19.95 -23.3 20.4 -22.6 20.5 -21.9 20.55 -21.4 20.05 -20.9 19.65 -20.85 18.95 -20.85 18.25 -21.3 17.75 -21.65 17.35 -22.2 17.3 L-22.4 17.25 -23.25 17.4 -23.6 17.6" fill="#1c1713" fill-rule="evenodd" stroke="none"/>
    <path d="M18.8 -8.45 L18.95 -8.65 19.0 -8.7 Q19.4 -9.15 20.05 -9.1 20.65 -9.1 21.1 -8.65 21.5 -8.2 21.55 -7.5 21.55 -6.8 21.1 -6.35 20.65 -5.85 20.05 -5.85 19.45 -5.9 19.05 -6.3 L19.0 -6.35 Q18.55 -6.8 18.55 -7.5 18.5 -8.05 18.8 -8.45 M-19.25 -31.15 Q-18.8 -30.7 -18.8 -30.0 -18.85 -29.3 -19.35 -28.85 -19.6 -28.6 -19.9 -28.5 L-20.55 -28.45 Q-21.25 -28.55 -21.65 -29.0 -22.1 -29.5 -22.05 -30.2 -22.05 -30.9 -21.6 -31.3 L-21.55 -31.35 Q-21.05 -31.8 -20.35 -31.7 -19.85 -31.65 -19.5 -31.4 L-19.25 -31.15 M-1.2 -28.15 Q-1.2 -27.45 -1.7 -27.0 -2.15 -26.5 -2.85 -26.5 -3.55 -26.55 -4.0 -27.0 -4.45 -27.45 -4.45 -28.15 -4.5 -28.85 -4.05 -29.3 L-4.0 -29.35 Q-3.55 -29.8 -2.85 -29.75 L-1.7 -29.3 Q-1.25 -28.85 -1.2 -28.15 M-23.25 -6.95 L-22.8 -7.2 -22.05 -7.25 -21.25 -7.0 -20.95 -6.75 Q-20.5 -6.25 -20.5 -5.55 -20.55 -4.85 -21.05 -4.45 L-21.45 -4.15 -22.25 -4.0 -22.8 -4.15 -23.35 -4.6 Q-23.8 -5.05 -23.75 -5.75 L-23.3 -6.9 -23.25 -6.95 M-0.95 -3.6 Q-0.95 -2.9 -1.45 -2.45 -1.9 -1.95 -2.6 -1.95 L-3.0 -2.0 -3.75 -2.45 Q-4.2 -2.9 -4.2 -3.6 -4.25 -4.3 -3.8 -4.75 L-3.75 -4.8 -3.05 -5.15 -2.6 -5.2 Q-1.9 -5.2 -1.45 -4.75 -1.0 -4.3 -0.95 -3.6 M-0.1 20.85 Q-0.1 21.55 -0.6 22.0 -1.05 22.5 -1.75 22.5 -2.45 22.45 -2.9 22.0 -3.35 21.55 -3.35 20.85 L-3.2 20.05 -2.95 19.7 -2.9 19.65 Q-2.45 19.2 -1.75 19.25 -1.05 19.25 -0.6 19.7 L-0.15 20.5 -0.1 20.85 M-23.6 17.6 L-23.25 17.4 -22.4 17.25 -22.2 17.3 Q-21.65 17.35 -21.3 17.75 -20.85 18.25 -20.85 18.95 -20.9 19.65 -21.4 20.05 -21.9 20.55 -22.6 20.5 -23.3 20.4 -23.7 19.95 -24.15 19.45 -24.1 18.75 -24.1 18.05 -23.65 17.6 L-23.6 17.6" fill="#43372e" fill-rule="evenodd" stroke="none"/>
  </g>
</svg>
