<?xml version="1.0" encoding="UTF-8" standalone="no"?>
<svg xmlns:ffdec="https://www.free-decompiler.com/flash" xmlns:xlink="http://www.w3.org/1999/xlink" ffdec:objectType="shape" height="34.9px" width="38.8px" xmlns="http://www.w3.org/2000/svg">
  <g transform="matrix(1.0, 0.0, 0.0, 1.0, 17.5, 3.25)">
    <path d="M-2.4 -2.0 L-2.45 -1.95 Q-3.0 -1.25 -3.0 -0.3 -4.0 0.45 -5.25 0.8 -6.5 1.2 -8.35 2.5 L-12.6 6.55 Q-15.95 9.6 -15.95 10.6 -15.95 12.5 -12.85 14.35 -10.75 15.6 -8.45 16.25 L-0.2 17.3 Q2.5 17.3 3.4 16.8 L4.8 15.45 Q5.6 14.05 5.6 12.8 5.6 11.45 3.8 9.95 0.6 7.2 -6.75 6.55 L-6.65 6.5 -6.5 6.4 0.6 6.85 4.9 7.95 6.55 7.55 8.2 7.15 Q10.0 7.15 12.25 8.65 L13.45 9.85 Q13.75 10.25 14.25 10.25 15.25 10.25 15.2 11.2 15.95 12.35 16.6 12.3 L18.2 12.35 17.25 13.35 16.55 13.7 16.95 15.15 17.25 18.6 17.4 18.65 17.3 19.15 17.25 19.35 14.5 13.2 Q11.8 8.65 8.2 8.65 L6.85 8.8 6.4 10.5 Q7.1 12.45 7.0 14.15 6.85 14.75 7.5 15.25 L8.3 16.15 Q9.2 17.45 10.3 22.0 11.15 25.7 12.1 25.7 L14.05 25.2 16.7 24.35 16.75 24.35 Q18.55 23.3 19.35 19.55 19.85 17.15 19.85 14.4 L19.55 12.8 18.9 11.55 18.7 11.35 16.2 9.1 Q11.35 5.05 9.25 2.4 7.8 0.55 6.9 -1.85 L10.75 1.5 11.45 2.35 Q12.45 2.35 16.85 7.4 21.3 12.5 21.3 13.8 21.3 22.3 19.2 24.5 18.1 25.65 11.65 27.2 L11.1 26.9 Q10.7 29.65 8.9 30.7 7.2 31.65 3.35 31.65 L0.85 31.05 Q0.25 30.85 -0.75 29.95 L-1.8 29.1 -4.4 29.5 Q-7.15 29.65 -9.45 28.55 -12.05 27.3 -13.25 25.45 L-13.9 23.8 Q-13.9 22.3 -13.45 21.5 -12.4 19.65 -11.4 16.85 -14.85 16.05 -16.45 13.65 -17.5 12.0 -17.5 10.35 -17.5 9.65 -14.3 6.2 L-10.55 2.3 Q-8.45 0.45 -6.65 -0.2 L-2.4 -2.0 M8.15 19.0 L6.75 17.65 5.65 16.75 Q5.25 16.75 4.95 17.3 4.6 18.0 0.9 18.7 L0.6 19.2 Q0.15 20.25 -0.25 23.15 L-0.7 27.7 1.3 29.4 Q2.95 30.4 4.35 30.15 6.6 30.25 8.05 29.4 9.6 28.4 9.6 26.5 L9.2 23.45 8.15 19.0 M-11.6 22.0 L-12.35 23.65 -12.4 23.8 -11.05 25.5 -10.0 26.35 -10.0 26.4 Q-9.1 27.35 -5.75 28.2 L-2.2 27.75 -1.85 21.05 -2.0 19.8 -2.15 18.75 -5.25 18.5 -6.35 18.3 -9.95 17.35 -10.0 17.4 -11.6 22.0" fill="#5c4730" fill-rule="evenodd" stroke="none"/>
    <path d="M-3.0 -0.3 Q1.3 -2.1 3.6 -1.6 1.6 -1.9 1.45 -1.15 1.5 0.0 1.1 0.65 5.5 0.0 7.6 1.8 8.75 2.7 9.5 4.3 L8.8 4.2 Q7.25 4.15 4.35 5.0 L1.7 5.85 -4.2 4.1 Q-5.75 4.1 -7.9 5.9 -9.9 7.65 -9.9 8.6 -9.9 9.75 -8.45 10.0 L-4.75 10.25 Q1.45 10.8 4.8 15.45 L3.4 16.8 Q2.5 17.3 -0.2 17.3 L-8.45 16.25 Q-10.75 15.6 -12.85 14.35 -15.95 12.5 -15.95 10.6 -15.95 9.6 -12.6 6.55 L-8.35 2.5 Q-6.5 1.2 -5.25 0.8 -4.0 0.45 -3.0 -0.3 M17.25 13.35 L16.95 15.15 16.55 13.7 17.25 13.35 M17.3 19.15 Q17.55 18.4 18.05 18.4 L18.75 17.15 Q19.3 15.5 19.3 13.1 L19.1 11.95 18.9 11.55 19.55 12.8 19.85 14.4 Q19.85 17.15 19.35 19.55 18.55 23.3 16.75 24.35 L16.7 24.35 14.05 25.2 12.1 25.7 Q11.15 25.7 10.3 22.0 9.2 17.45 8.3 16.15 L9.45 13.3 Q10.05 12.05 11.15 12.05 L12.45 12.4 Q13.75 12.85 13.75 13.35 13.75 15.5 14.7 17.3 L17.1 20.65 17.2 19.45 17.25 19.35 17.3 19.15 M18.7 11.35 Q17.65 11.35 16.95 10.7 16.2 10.05 16.2 9.1 L18.7 11.35 M8.15 19.0 L9.2 23.45 9.6 26.5 Q9.6 28.4 8.05 29.4 6.6 30.25 4.35 30.15 3.3 28.9 2.25 26.45 1.35 24.4 1.35 24.05 1.35 22.0 3.6 20.55 5.6 19.25 8.15 19.0 M-11.6 22.0 L-11.85 22.95 -11.05 25.5 -12.4 23.8 -12.35 23.65 -11.6 22.0 M-5.75 28.2 Q-7.95 26.5 -9.1 24.4 -9.85 23.0 -9.85 22.3 -9.85 19.9 -8.25 18.9 L-6.35 18.3 -5.25 18.5 -2.15 18.75 -2.0 19.8 -1.85 21.05 -2.2 27.75 -5.75 28.2" fill="#ffcc99" fill-rule="evenodd" stroke="none"/>
    <path d="M-2.4 -2.0 Q-1.85 -2.65 -1.1 -2.65 L2.8 -3.25 4.35 -2.85 6.9 -1.85 Q7.8 0.55 9.25 2.4 11.35 5.05 16.2 9.1 16.2 10.05 16.95 10.7 17.65 11.35 18.7 11.35 L18.9 11.55 19.1 11.95 19.3 13.1 Q19.3 15.5 18.75 17.15 L18.05 18.4 Q17.55 18.4 17.3 19.15 L17.4 18.65 17.25 18.6 16.95 15.15 17.25 13.35 18.2 12.35 16.6 12.3 Q15.95 12.35 15.2 11.2 15.25 10.25 14.25 10.25 13.75 10.25 13.45 9.85 L12.25 8.65 Q10.0 7.15 8.2 7.15 L6.55 7.55 4.9 7.95 0.6 6.85 -6.5 6.4 -6.65 6.5 -6.75 6.55 Q0.6 7.2 3.8 9.95 5.6 11.45 5.6 12.8 5.6 14.05 4.8 15.45 1.45 10.8 -4.75 10.25 L-8.45 10.0 Q-9.9 9.75 -9.9 8.6 -9.9 7.65 -7.9 5.9 -5.75 4.1 -4.2 4.1 L1.7 5.85 4.35 5.0 Q7.25 4.15 8.8 4.2 L9.5 4.3 Q8.75 2.7 7.6 1.8 5.5 0.0 1.1 0.65 1.5 0.0 1.45 -1.15 1.6 -1.9 3.6 -1.6 1.3 -2.1 -3.0 -0.3 -3.0 -1.25 -2.45 -1.95 L-2.4 -2.0 M8.3 16.15 L7.5 15.25 Q6.85 14.75 7.0 14.15 7.1 12.45 6.4 10.5 L6.85 8.8 8.2 8.65 Q11.8 8.65 14.5 13.2 L17.25 19.35 17.2 19.45 17.1 20.65 14.7 17.3 Q13.75 15.5 13.75 13.35 13.75 12.85 12.45 12.4 L11.15 12.05 Q10.05 12.05 9.45 13.3 L8.3 16.15 M4.35 30.15 Q2.95 30.4 1.3 29.4 L-0.7 27.7 -0.25 23.15 Q0.15 20.25 0.6 19.2 L0.9 18.7 Q4.6 18.0 4.95 17.3 5.25 16.75 5.65 16.75 L6.75 17.65 8.15 19.0 Q5.6 19.25 3.6 20.55 1.35 22.0 1.35 24.05 1.35 24.4 2.25 26.45 3.3 28.9 4.35 30.15 M-11.05 25.5 L-11.85 22.95 -11.6 22.0 -10.0 17.4 -9.95 17.35 -6.35 18.3 -8.25 18.9 Q-9.85 19.9 -9.85 22.3 -9.85 23.0 -9.1 24.4 -7.95 26.5 -5.75 28.2 -9.1 27.35 -10.0 26.4 L-10.0 26.35 -11.05 25.5" fill="#f1ba87" fill-rule="evenodd" stroke="none"/>
  </g>
</svg>
