<?xml version="1.0" encoding="UTF-8" standalone="no"?>
<svg xmlns:ffdec="https://www.free-decompiler.com/flash" xmlns:xlink="http://www.w3.org/1999/xlink" ffdec:objectType="shape" height="18.65px" width="15.1px" xmlns="http://www.w3.org/2000/svg">
  <g transform="matrix(1.0, 0.0, 0.0, 1.0, -2.75, 14.05)">
    <path d="M6.55 -5.0 Q8.2 -5.8 10.15 -5.8 13.2 -5.8 15.35 -3.9 L15.4 -3.85 Q17.6 -2.0 17.6 0.75 17.6 3.5 15.0 3.55 L9.45 4.0 4.15 4.6 Q2.75 2.95 2.75 0.75 2.75 -0.75 3.4 -1.9 L3.45 -1.95 3.45 -2.0 Q4.0 -3.1 5.05 -3.9 L6.5 -4.95 6.55 -5.0" fill="#db9c64" fill-rule="evenodd" stroke="none"/>
    <path d="M14.9 -0.65 Q15.3 -0.7 15.6 -0.4 L15.95 0.3 15.7 1.0 15.05 1.35 4.3 2.1 Q3.85 2.15 3.55 1.85 3.25 1.6 3.2 1.2 3.15 0.75 3.45 0.45 3.7 0.15 4.15 0.1 L14.9 -0.65" fill="#3d2618" fill-rule="evenodd" stroke="none"/>
    <path d="M3.15 -9.1 L2.95 -9.45 3.1 -9.8 Q9.0 -16.75 17.6 -12.4 L17.85 -12.1 17.8 -11.7 17.5 -11.45 17.15 -11.5 Q9.3 -15.45 3.85 -9.15 3.7 -9.0 3.5 -9.0 L3.15 -9.1" fill="#311a0b" fill-rule="evenodd" stroke="none"/>
  </g>
</svg>
