<?xml version="1.0" encoding="UTF-8" standalone="no"?>
<svg xmlns:ffdec="https://www.free-decompiler.com/flash" xmlns:xlink="http://www.w3.org/1999/xlink" ffdec:objectType="shape" height="20.1px" width="15.65px" xmlns="http://www.w3.org/2000/svg">
  <g transform="matrix(1.0, 0.0, 0.0, 1.0, -1.75, 16.55)">
    <path d="M3.45 -1.6 Q4.45 -3.6 6.85 -5.25 9.25 -6.95 12.1 -6.3 14.9 -5.7 16.45 -3.3 18.0 -0.85 17.0 1.95 L16.3 2.75 Q13.7 3.85 10.9 3.3 L6.65 2.85 3.25 3.55 Q1.3 3.15 1.85 1.8 2.4 0.4 3.45 -1.6" fill="#db9c64" fill-rule="evenodd" stroke="none"/>
    <path d="M16.75 2.15 Q15.7 2.9 15.05 1.85 10.9 -1.55 8.8 -1.15 6.9 -1.3 3.75 2.25 3.05 3.0 2.2 2.8 4.9 -3.6 8.7 -3.6 12.4 -4.05 16.75 2.15" fill="#3d2618" fill-rule="evenodd" stroke="none"/>
    <path d="M15.45 -14.85 L15.7 -14.55 15.65 -14.2 15.35 -13.95 14.95 -14.0 Q8.5 -17.95 4.0 -11.7 L3.7 -11.5 3.3 -11.6 3.1 -11.9 3.2 -12.3 Q8.2 -19.25 15.45 -14.85" fill="#311a0b" fill-rule="evenodd" stroke="none"/>
  </g>
</svg>
