<?xml version="1.0" encoding="UTF-8" standalone="no"?>
<svg xmlns:ffdec="https://www.free-decompiler.com/flash" xmlns:xlink="http://www.w3.org/1999/xlink" ffdec:objectType="shape" height="112.25px" width="9.25px" xmlns="http://www.w3.org/2000/svg">
  <g transform="matrix(1.0, 0.0, 0.0, 1.0, 4.65, 112.25)">
    <path d="M3.15 -73.2 L2.85 -86.85 Q2.5 -97.95 0.35 -110.55 -3.6 -66.75 -3.6 -47.9 L-3.65 -14.75 Q-3.65 -8.1 -3.1 -5.5 -2.2 -1.05 0.6 -1.05 2.2 -1.05 3.0 -3.7 3.6 -5.7 3.6 -8.35 L2.85 -69.5 3.15 -73.2 M3.85 -69.4 L4.6 -8.3 Q4.55 -5.0 3.95 -3.2 2.9 0.0 0.1 0.0 -3.35 0.0 -4.35 -6.8 -4.65 -8.95 -4.65 -14.7 -4.65 -37.55 -3.7 -62.7 -2.25 -100.05 0.65 -112.25 1.55 -110.45 2.9 -94.6 4.35 -77.7 3.85 -69.4" fill="#4d3507" fill-rule="evenodd" stroke="none"/>
    <path d="M0.1 -5.25 Q-0.3 -5.25 -0.6 -8.35 L-0.9 -15.75 -0.6 -23.2 Q-0.3 -26.25 0.1 -26.25 0.5 -26.25 0.8 -23.2 L1.1 -15.75 0.8 -8.35 Q0.5 -5.25 0.1 -5.25" fill="#f5b438" fill-rule="evenodd" stroke="none"/>
    <path d="M-0.5 -76.25 Q0.25 -86.9 1.05 -92.3 L1.45 -75.3 1.9 -56.3 1.85 -56.3 1.3 -55.7 1.1 -54.15 1.3 -52.65 Q1.55 -52.0 1.85 -52.0 L1.95 -52.0 2.3 -30.55 Q2.7 0.0 1.2 -3.35 L1.25 -2.75 -0.55 -3.75 Q-1.35 -4.25 -1.75 -5.35 -2.65 -8.0 -2.65 -20.55 -2.65 -41.55 -1.25 -64.9 L-0.75 -72.35 -0.7 -72.05 Q-0.45 -71.25 -0.15 -71.25 0.15 -71.25 0.35 -72.05 L0.6 -73.9 0.35 -75.8 Q0.15 -76.55 -0.15 -76.55 L-0.5 -76.25 M0.1 -34.75 Q0.5 -34.75 0.8 -35.55 L1.1 -37.4 0.8 -39.3 Q0.5 -40.05 0.1 -40.05 -0.3 -40.05 -0.6 -39.3 L-0.9 -37.4 -0.6 -35.55 Q-0.3 -34.75 0.1 -34.75 M0.1 -5.25 Q0.5 -5.25 0.8 -8.35 L1.1 -15.75 0.8 -23.2 Q0.5 -26.25 0.1 -26.25 -0.3 -26.25 -0.6 -23.2 L-0.9 -15.75 -0.6 -8.35 Q-0.3 -5.25 0.1 -5.25" fill="#cf8e15" fill-rule="evenodd" stroke="none"/>
    <path d="M1.9 -56.3 L1.45 -75.3 1.05 -92.3 Q0.25 -86.9 -0.5 -76.25 L-0.7 -75.8 -0.9 -73.9 -0.75 -72.35 -1.25 -64.9 Q-2.65 -41.55 -2.65 -20.55 -2.65 -8.0 -1.75 -5.35 -1.35 -4.25 -0.55 -3.75 L1.25 -2.75 1.2 -3.35 Q2.7 0.0 2.3 -30.55 L1.95 -52.0 2.35 -52.65 2.6 -54.15 2.35 -55.7 1.9 -56.3 M3.15 -73.2 L2.85 -69.5 3.6 -8.35 Q3.6 -5.7 3.0 -3.7 2.2 -1.05 0.6 -1.05 -2.2 -1.05 -3.1 -5.5 -3.65 -8.1 -3.65 -14.75 L-3.6 -47.9 Q-3.6 -66.75 0.35 -110.55 2.5 -97.95 2.85 -86.85 L3.15 -73.2" fill="#ab7913" fill-rule="evenodd" stroke="none"/>
    <path d="M1.9 -56.3 L2.35 -55.7 2.6 -54.15 2.35 -52.65 1.95 -52.0 1.85 -52.0 Q1.55 -52.0 1.3 -52.65 L1.1 -54.15 1.3 -55.7 1.85 -56.3 1.9 -56.3 M-0.75 -72.35 L-0.9 -73.9 -0.7 -75.8 -0.5 -76.25 -0.15 -76.55 Q0.15 -76.55 0.35 -75.8 L0.6 -73.9 0.35 -72.05 Q0.15 -71.25 -0.15 -71.25 -0.45 -71.25 -0.7 -72.05 L-0.75 -72.35 M0.1 -34.75 Q-0.3 -34.75 -0.6 -35.55 L-0.9 -37.4 -0.6 -39.3 Q-0.3 -40.05 0.1 -40.05 0.5 -40.05 0.8 -39.3 L1.1 -37.4 0.8 -35.55 Q0.5 -34.75 0.1 -34.75" fill="#844317" fill-rule="evenodd" stroke="none"/>
  </g>
</svg>
