<?xml version="1.0" encoding="UTF-8" standalone="no"?>
<svg xmlns:ffdec="https://www.free-decompiler.com/flash" xmlns:xlink="http://www.w3.org/1999/xlink" ffdec:objectType="shape" height="112.25px" width="9.25px" xmlns="http://www.w3.org/2000/svg">
  <g transform="matrix(1.0, 0.0, 0.0, 1.0, 4.65, 112.25)">
    <path d="M3.15 -73.2 L2.85 -86.85 Q2.5 -97.95 0.35 -110.55 -3.6 -66.75 -3.6 -47.9 L-3.65 -14.75 Q-3.65 -8.1 -3.1 -5.5 -2.2 -1.05 0.6 -1.05 2.2 -1.05 3.0 -3.7 3.6 -5.7 3.6 -8.35 L2.85 -69.5 3.15 -73.2 M3.85 -69.4 L4.6 -8.3 Q4.55 -5.0 3.95 -3.2 2.9 0.0 0.1 0.0 -3.35 0.0 -4.35 -6.8 -4.65 -8.95 -4.65 -14.7 -4.65 -37.55 -3.7 -62.7 -2.25 -100.05 0.65 -112.25 1.55 -110.45 2.9 -94.6 4.35 -77.7 3.85 -69.4" fill="#4d1a25" fill-rule="evenodd" stroke="none"/>
    <path d="M1.1 -15.75 L0.8 -8.35 Q0.5 -5.25 0.1 -5.25 -0.3 -5.25 -0.6 -8.35 L-0.9 -15.75 -0.6 -23.2 Q-0.3 -26.25 0.1 -26.25 0.5 -26.25 0.8 -23.2 L1.1 -15.75" fill="#dc98a7" fill-rule="evenodd" stroke="none"/>
    <path d="M1.45 -75.3 L2.3 -30.55 Q2.7 0.0 1.2 -3.35 L1.25 -2.75 -0.55 -3.75 Q-1.35 -4.25 -1.75 -5.35 -2.65 -8.0 -2.65 -20.55 -2.65 -41.55 -1.25 -64.9 -0.1 -84.35 1.05 -92.3 L1.45 -75.3 M0.85 -54.0 Q0.85 -53.6 1.0 -53.3 L1.35 -53.0 1.7 -53.3 1.85 -54.0 1.7 -54.7 1.35 -55.0 1.0 -54.7 0.85 -54.0 M1.1 -67.15 L1.35 -68.0 1.1 -68.9 0.6 -69.25 Q0.3 -69.25 0.05 -68.9 L-0.15 -68.0 0.05 -67.15 Q0.3 -66.75 0.6 -66.75 L1.1 -67.15 M1.1 -15.75 L0.8 -23.2 Q0.5 -26.25 0.1 -26.25 -0.3 -26.25 -0.6 -23.2 L-0.9 -15.75 -0.6 -8.35 Q-0.3 -5.25 0.1 -5.25 0.5 -5.25 0.8 -8.35 L1.1 -15.75 M-0.9 -35.0 Q-0.5 -35.0 -0.2 -35.35 L0.1 -36.15 -0.2 -37.0 Q-0.5 -37.3 -0.9 -37.3 L-1.6 -37.0 -1.9 -36.15 -1.6 -35.35 Q-1.3 -35.0 -0.9 -35.0" fill="#c04763" fill-rule="evenodd" stroke="none"/>
    <path d="M1.45 -75.3 L1.05 -92.3 Q-0.1 -84.35 -1.25 -64.9 -2.65 -41.55 -2.65 -20.55 -2.65 -8.0 -1.75 -5.35 -1.35 -4.25 -0.55 -3.75 L1.25 -2.75 1.2 -3.35 Q2.7 0.0 2.3 -30.55 L1.45 -75.3 M3.15 -73.2 L2.85 -69.5 3.6 -8.35 Q3.6 -5.7 3.0 -3.7 2.2 -1.05 0.6 -1.05 -2.2 -1.05 -3.1 -5.5 -3.65 -8.1 -3.65 -14.75 L-3.6 -47.9 Q-3.6 -66.75 0.35 -110.55 2.5 -97.95 2.85 -86.85 L3.15 -73.2" fill="#8e3145" fill-rule="evenodd" stroke="none"/>
    <path d="M1.1 -67.15 L0.6 -66.75 Q0.3 -66.75 0.05 -67.15 L-0.15 -68.0 0.05 -68.9 Q0.3 -69.25 0.6 -69.25 L1.1 -68.9 1.35 -68.0 1.1 -67.15 M0.85 -54.0 L1.0 -54.7 1.35 -55.0 1.7 -54.7 1.85 -54.0 1.7 -53.3 1.35 -53.0 1.0 -53.3 Q0.85 -53.6 0.85 -54.0 M-0.9 -35.0 Q-1.3 -35.0 -1.6 -35.35 L-1.9 -36.15 -1.6 -37.0 -0.9 -37.3 Q-0.5 -37.3 -0.2 -37.0 L0.1 -36.15 -0.2 -35.35 Q-0.5 -35.0 -0.9 -35.0" fill="#ebe4e0" fill-rule="evenodd" stroke="none"/>
  </g>
</svg>
