<?xml version="1.0" encoding="UTF-8" standalone="no"?>
<svg xmlns:ffdec="https://www.free-decompiler.com/flash" xmlns:xlink="http://www.w3.org/1999/xlink" ffdec:objectType="shape" height="13.1px" width="37.25px" xmlns="http://www.w3.org/2000/svg">
  <g transform="matrix(1.0, 0.0, 0.0, 1.0, 25.85, -3.9)">
    <path d="M-6.25 9.7 Q-5.95 8.2 -4.65 6.7 -1.7 2.6 8.9 7.3 9.3 7.45 9.55 7.85 L9.8 8.65 9.65 9.85 9.65 9.9 8.6 12.5 7.5 14.1 Q5.15 16.8 1.1 16.9 L-0.35 16.85 -0.8 16.75 Q-3.9 15.45 -4.65 14.6 L-4.65 14.55 Q-5.75 13.35 -6.1 12.1 L-6.15 12.05 -6.35 10.45 -6.25 9.7 M5.2 12.15 L5.25 12.1 Q6.05 11.1 6.6 9.55 -0.4 6.65 -2.35 8.6 L-2.35 8.65 Q-3.5 10.0 -3.25 11.25 L-3.25 11.2 -2.45 12.55 -2.4 12.55 0.05 13.9 Q3.35 14.1 5.2 12.15 M-10.05 11.3 Q-10.05 12.35 -10.55 13.25 L-10.6 13.3 Q-11.8 15.65 -14.6 16.9 L-15.1 17.0 -17.1 17.0 Q-20.7 16.65 -22.6 13.95 L-23.6 12.35 -24.2 10.65 -24.35 9.55 -24.15 8.8 -23.6 8.3 Q-14.45 3.1 -11.85 7.25 -10.9 8.45 -10.5 9.5 L-10.15 10.6 -10.15 10.65 -10.05 11.3 M-13.1 12.0 L-13.1 11.95 -13.0 11.15 Q-13.25 10.15 -14.15 8.95 -15.65 7.35 -21.3 10.3 -20.95 11.4 -20.3 12.2 -18.7 14.3 -15.55 14.2 -13.85 13.35 -13.1 12.0" fill="#35291c" fill-rule="evenodd" stroke="none"/>
    <path d="M-6.25 9.7 Q-6.05 7.8 -4.45 5.95 -1.2 1.55 10.4 6.6 10.85 6.75 11.1 7.2 L11.4 8.05 11.25 9.35 11.25 9.4 10.1 12.2 8.9 13.9 Q6.1 17.05 1.1 16.9 5.15 16.8 7.5 14.1 L8.6 12.5 9.65 9.9 9.65 9.85 9.8 8.65 9.55 7.85 Q9.3 7.45 8.9 7.3 -1.7 2.6 -4.65 6.7 -5.95 8.2 -6.25 9.7 M-17.1 17.0 Q-21.65 16.85 -23.9 13.65 L-25.0 11.9 -25.7 10.05 -25.85 8.85 -25.6 8.0 -25.0 7.45 Q-14.9 1.75 -12.05 6.35 -10.95 7.65 -10.55 8.8 L-10.15 10.0 -10.15 10.05 -10.05 11.3 -10.15 10.65 -10.15 10.6 -10.5 9.5 Q-10.9 8.45 -11.85 7.25 -14.45 3.1 -23.6 8.3 L-24.15 8.8 -24.35 9.55 -24.2 10.65 -23.6 12.35 -22.6 13.95 Q-20.7 16.65 -17.1 17.0" fill="#db9c64" fill-rule="evenodd" stroke="none"/>
    <path d="M5.2 12.15 Q3.35 14.1 0.05 13.9 L-2.4 12.55 -2.45 12.55 -3.25 11.2 -3.25 11.25 Q-3.5 10.0 -2.35 8.65 L-2.35 8.6 Q-0.4 6.65 6.6 9.55 6.05 11.1 5.25 12.1 L5.2 12.15 M-13.1 12.0 Q-13.85 13.35 -15.55 14.2 -18.7 14.3 -20.3 12.2 -20.95 11.4 -21.3 10.3 -15.65 7.35 -14.15 8.95 -13.25 10.15 -13.0 11.15 L-13.1 11.95 -13.1 12.0" fill="#ffe6cc" fill-rule="evenodd" stroke="none"/>
  </g>
</svg>
