<?xml version="1.0" encoding="UTF-8" standalone="no"?>
<svg xmlns:ffdec="https://www.free-decompiler.com/flash" xmlns:xlink="http://www.w3.org/1999/xlink" ffdec:objectType="shape" height="8.35px" width="37.25px" xmlns="http://www.w3.org/2000/svg">
  <g transform="matrix(1.0, 0.0, 0.0, 1.0, 25.85, -5.85)">
    <path d="M-6.25 9.55 Q-6.05 8.35 -4.45 7.15 -1.2 4.35 10.4 7.55 10.85 7.65 11.1 7.95 L11.4 8.5 11.25 9.35 10.1 11.15 8.9 12.25 Q6.1 14.25 1.1 14.15 5.15 14.1 7.5 12.35 L8.6 11.35 9.65 9.7 9.65 9.65 9.8 8.9 9.55 8.35 8.9 8.0 Q-1.7 5.0 -4.65 7.65 -5.95 8.6 -6.25 9.55 M-17.1 14.2 Q-21.65 14.1 -23.9 12.1 L-25.0 10.95 -25.7 9.8 -25.85 9.0 -25.6 8.45 -25.0 8.1 Q-14.9 4.45 -12.05 7.4 -10.95 8.25 -10.55 9.0 L-10.15 9.75 -10.15 9.8 -10.05 10.55 -10.15 10.15 -10.5 9.4 Q-10.9 8.75 -11.85 8.0 -14.45 5.35 -23.6 8.65 L-24.15 9.0 -24.35 9.45 -24.2 10.15 -23.6 11.25 -22.6 12.25 Q-20.7 14.0 -17.1 14.2" fill="#db9c64" fill-rule="evenodd" stroke="none"/>
    <path d="M-6.25 9.55 Q-5.95 8.6 -4.65 7.65 -1.7 5.0 8.9 8.0 L9.55 8.35 9.8 8.9 9.65 9.65 9.65 9.7 8.6 11.35 7.5 12.35 Q5.15 14.1 1.1 14.15 L-0.35 14.1 -0.8 14.05 Q-3.9 13.25 -4.65 12.7 L-4.65 12.65 Q-5.75 11.9 -6.1 11.1 L-6.15 11.05 -6.35 10.05 -6.25 9.55 M-13.0 10.5 Q-13.25 9.85 -14.15 9.05 -15.65 8.05 -21.3 9.95 L-20.3 11.15 Q-18.7 12.5 -15.55 12.45 -13.85 11.9 -13.1 11.0 L-13.0 10.5 M5.2 11.1 L5.25 11.1 6.6 9.45 Q-0.4 7.6 -2.35 8.85 L-2.35 8.9 Q-3.5 9.75 -3.25 10.55 L-3.25 10.5 -2.45 11.35 -2.4 11.35 0.05 12.25 Q3.35 12.35 5.2 11.1 M-10.05 10.55 Q-10.05 11.25 -10.55 11.8 L-10.6 11.85 Q-11.8 13.35 -14.6 14.15 L-15.1 14.2 -17.1 14.2 Q-20.7 14.0 -22.6 12.25 L-23.6 11.25 -24.2 10.15 -24.35 9.45 -24.15 9.0 -23.6 8.65 Q-14.45 5.35 -11.85 8.0 -10.9 8.75 -10.5 9.4 L-10.15 10.15 -10.05 10.55" fill="#35291c" fill-rule="evenodd" stroke="none"/>
    <path d="M5.2 11.1 Q3.35 12.35 0.05 12.25 L-2.4 11.35 -2.45 11.35 -3.25 10.5 -3.25 10.55 Q-3.5 9.75 -2.35 8.9 L-2.35 8.85 Q-0.4 7.6 6.6 9.45 L5.25 11.1 5.2 11.1 M-13.0 10.5 L-13.1 11.0 Q-13.85 11.9 -15.55 12.45 -18.7 12.5 -20.3 11.15 L-21.3 9.95 Q-15.65 8.05 -14.15 9.05 -13.25 9.85 -13.0 10.5" fill="#ffe6cc" fill-rule="evenodd" stroke="none"/>
  </g>
</svg>
