<?xml version="1.0" encoding="UTF-8" standalone="no"?>
<svg xmlns:ffdec="https://www.free-decompiler.com/flash" xmlns:xlink="http://www.w3.org/1999/xlink" ffdec:objectType="shape" height="63.15px" width="19.85px" xmlns="http://www.w3.org/2000/svg">
  <g transform="matrix(1.0, 0.0, 0.0, 1.0, 7.9, 1.55)">
    <path d="M4.4 -0.7 L4.55 -1.3 5.3 -1.55 Q7.1 -1.55 9.7 26.9 11.95 51.6 11.95 56.2 L11.95 57.2 11.2 57.4 9.35 59.5 Q7.35 61.6 6.05 61.6 4.45 61.6 2.05 59.95 0.1 58.7 -0.85 57.55 L-0.9 57.35 Q-1.05 53.7 -4.2 28.7 -7.2 4.85 -7.9 0.4 L-7.0 0.25 -6.1 -0.4 -5.95 0.15 Q-0.15 27.15 1.05 50.5 1.35 56.7 2.1 58.0 2.95 59.55 6.45 59.55 L8.5 58.5 9.95 56.0 4.4 -0.45 4.4 -0.7" fill="#6c3d28" fill-rule="evenodd" stroke="none"/>
    <path d="M-5.95 0.15 L-2.35 -1.55 1.15 -1.5 Q1.85 5.8 5.05 31.55 8.1 56.55 8.5 58.5 L6.45 59.55 Q2.95 59.55 2.1 58.0 1.35 56.7 1.05 50.5 -0.15 27.15 -5.95 0.15" fill="#f1ba87" fill-rule="evenodd" stroke="none"/>
    <path d="M1.15 -1.5 Q3.3 -1.35 4.4 -0.7 L4.4 -0.45 9.95 56.0 8.5 58.5 Q8.1 56.55 5.05 31.55 1.85 5.8 1.15 -1.5" fill="#db9c64" fill-rule="evenodd" stroke="none"/>
  </g>
</svg>
