<?xml version="1.0" encoding="UTF-8" standalone="no"?>
<svg xmlns:ffdec="https://www.free-decompiler.com/flash" xmlns:xlink="http://www.w3.org/1999/xlink" ffdec:objectType="shape" height="20.55px" width="19.75px" xmlns="http://www.w3.org/2000/svg">
  <g transform="matrix(1.0, 0.0, 0.0, 1.0, 0.85, -0.75)">
    <path d="M17.65 1.8 L18.9 3.4 Q10.7 6.3 8.15 14.3 L6.55 19.25 Q5.55 21.3 3.4 21.3 1.95 21.3 1.0 20.55 -0.85 19.2 -0.85 15.65 -0.85 11.1 3.45 6.1 8.05 0.75 13.1 0.75 16.3 0.75 17.65 1.8 M10.85 6.15 L12.55 3.6 11.7 5.3 Q13.1 3.9 14.85 2.7 7.2 2.3 3.4 8.5 1.0 12.35 1.0 15.6 1.0 17.25 1.5 18.3 1.9 19.1 6.95 11.9 L10.85 6.15" fill="#271f16" fill-rule="evenodd" stroke="none"/>
    <path d="M10.85 6.15 L6.95 11.9 Q1.9 19.1 1.5 18.3 1.0 17.25 1.0 15.6 1.0 12.35 3.4 8.5 7.2 2.3 14.85 2.7 13.1 3.9 11.7 5.3 L12.55 3.6 10.85 6.15" fill="#3c2b13" fill-rule="evenodd" stroke="none"/>
  </g>
</svg>
