<?xml version="1.0" encoding="UTF-8" standalone="no"?>
<svg xmlns:ffdec="https://www.free-decompiler.com/flash" xmlns:xlink="http://www.w3.org/1999/xlink" ffdec:objectType="shape" height="155.1px" width="76.8px" xmlns="http://www.w3.org/2000/svg">
  <g transform="matrix(1.0, 0.0, 0.0, 1.0, 35.95, 138.9)">
    <path d="M-30.1 -108.8 L-31.05 -109.05 Q-32.2 -109.05 -33.0 -110.2 -33.85 -111.35 -33.85 -113.0 L-33.8 -113.4 Q-32.85 -118.5 -19.4 -128.0 -9.85 -134.8 -5.2 -136.45 L-3.65 -136.95 -2.7 -137.05 -1.85 -136.95 -1.65 -136.7 -1.65 -136.5 -7.15 -133.2 -9.25 -131.9 -19.15 -125.6 Q-31.95 -116.95 -31.95 -112.8 -31.95 -111.5 -31.0 -111.2 L-28.75 -110.4 -30.1 -108.8 M-10.1 -84.95 L-6.7 -85.5 -6.85 -83.05 Q-6.85 -81.0 -6.35 -79.5 -5.75 -77.7 -4.7 -77.7 -2.25 -77.7 1.0 -81.55 4.35 -85.55 4.35 -89.05 4.35 -91.5 2.4 -96.0 L1.45 -98.05 1.85 -100.7 2.75 -105.55 Q9.4 -88.45 9.4 -87.2 9.4 -81.1 6.15 -78.1 L11.2 -76.8 Q14.0 -75.85 14.0 -73.5 L12.05 -70.2 Q14.0 -69.1 14.0 -67.65 L13.35 -60.5 12.7 -55.4 13.4 -54.55 13.35 -54.55 Q13.6 -53.6 12.25 -52.65 L6.3 -48.3 14.2 -47.25 17.75 -46.45 Q18.7 -45.95 19.1 -44.75 L19.85 -41.45 21.55 -34.4 21.65 -33.35 21.75 -29.9 21.75 -29.65 Q21.7 -28.75 21.15 -28.15 L16.85 -24.1 Q17.45 -23.4 18.4 -22.75 19.1 -22.3 20.0 -21.9 21.8 -21.05 22.15 -20.4 L23.85 -16.2 23.9 -16.1 24.85 -13.3 25.15 -12.1 25.25 -11.1 Q25.25 -10.5 24.9 -9.95 24.45 -9.15 23.25 -8.35 L21.9 -7.6 17.4 -5.7 16.2 -5.1 Q18.55 -4.5 20.6 -3.35 L22.3 -2.3 22.65 -2.05 24.0 -0.95 25.05 0.15 Q26.15 1.55 26.45 3.05 23.8 4.45 15.05 5.95 6.65 7.4 2.35 7.4 L-13.3 5.05 -16.35 4.6 -20.05 4.2 Q-21.75 4.2 -22.8 2.9 -24.15 1.3 -24.15 -1.75 L-24.05 -3.3 -23.95 -4.35 Q-23.55 -7.75 -22.2 -13.05 L-22.1 -13.45 -21.95 -14.05 -21.25 -16.55 Q-18.95 -24.45 -16.15 -28.75 -14.8 -30.9 -11.4 -32.75 L-11.25 -32.8 Q-7.6 -34.85 -7.25 -35.2 -7.05 -36.75 -9.6 -37.45 L-11.55 -38.25 Q-12.25 -38.75 -12.25 -39.3 L-11.9 -41.1 Q-11.55 -42.7 -11.5 -44.45 L-11.35 -48.35 Q-11.15 -50.85 -11.5 -53.55 L-11.2 -55.15 -11.15 -55.25 -11.35 -58.75 -10.35 -69.2 -9.35 -79.6 -9.85 -83.1 -10.1 -84.95 M-3.1 -114.4 Q-2.55 -114.4 -2.35 -114.0 -2.95 -111.15 -10.15 -108.75 L-12.95 -107.9 -16.25 -107.05 -18.1 -106.6 Q-22.45 -105.7 -25.15 -105.7 -27.55 -105.7 -28.3 -106.9 L-28.75 -108.6 -24.7 -108.5 -17.7 -108.95 -15.9 -109.15 Q-12.55 -109.65 -9.85 -110.55 -5.55 -111.95 -3.1 -114.4 M9.5 -26.35 L3.05 -27.3 Q-0.3 -27.85 -5.3 -29.65 L-7.2 -30.35 -10.2 -31.3 Q-11.95 -31.3 -11.95 -29.6 -11.95 -28.15 -11.2 -27.0 L-10.0 -25.75 Q-7.8 -24.0 -3.2 -23.2 L2.8 -22.15 Q5.5 -21.4 5.5 -20.0 5.5 -18.65 3.5 -17.3 L1.6 -16.25 -2.85 -14.45 -7.1 -12.9 -8.05 -12.55 -11.0 -11.4 -13.85 -10.05 Q-19.8 -7.05 -19.8 -4.3 -19.8 -3.5 -19.2 -2.65 L-18.1 -1.5 Q-15.75 0.4 -10.0 2.3 -1.5 5.1 3.85 5.1 L6.9 4.9 Q15.0 3.3 21.75 2.45 L21.8 0.8 21.55 -0.55 Q21.25 -1.5 20.6 -2.05 L19.5 -2.7 15.85 -3.35 14.7 -3.7 14.05 -3.85 8.75 -5.5 8.3 -5.65 Q7.35 -6.0 6.65 -6.55 L6.55 -6.65 Q5.6 -7.45 5.1 -8.6 L5.0 -8.8 12.45 -10.75 15.9 -11.8 18.2 -12.6 Q20.45 -13.5 20.45 -14.05 L20.35 -15.4 Q20.05 -17.25 19.0 -19.2 L18.8 -19.6 18.6 -19.9 Q17.6 -21.55 16.2 -22.7 L15.6 -23.15 14.2 -23.95 Q12.85 -25.65 9.5 -26.35 M11.75 -44.9 L11.5 -45.0 Q4.5 -46.95 -5.3 -46.95 -6.6 -46.95 -7.1 -45.3 -7.65 -43.85 -7.65 -40.7 -7.65 -39.65 -6.65 -39.0 -5.45 -38.25 -2.85 -38.15 L3.7 -38.35 2.0 -37.95 8.95 -37.55 15.3 -37.9 15.35 -37.95 Q17.4 -38.35 18.2 -39.35 L18.4 -39.7 16.25 -42.75 Q14.95 -43.95 11.75 -44.9 M5.55 -62.8 Q9.65 -65.9 9.65 -68.15 9.65 -76.55 0.9 -71.35 -2.0 -69.6 -5.15 -66.8 L-7.9 -64.05 -8.0 -57.95 -7.7 -55.45 -3.0 -54.55 9.25 -53.9 9.45 -55.2 9.4 -57.2 4.9 -57.2 -1.95 -57.55 -1.75 -57.65 5.55 -62.8 M-17.0 -101.3 L-19.05 -99.7 -20.1 -98.8 Q-22.15 -96.85 -22.15 -95.1 -22.15 -93.75 -21.05 -92.85 L-19.75 -92.15 -18.05 -91.9 -17.85 -91.9 -12.45 -92.55 Q-10.8 -93.0 -9.4 -93.75 -7.55 -94.7 -6.15 -96.15 -3.25 -99.1 -3.25 -101.75 L-3.35 -102.5 -3.65 -102.5 -8.6 -98.55 -8.7 -98.5 Q-10.45 -97.15 -12.15 -96.4 -14.5 -95.35 -16.75 -95.35 L-17.5 -95.45 -18.35 -96.2 -17.3 -97.85 -16.95 -98.45 Q-16.05 -99.9 -15.7 -101.5 L-16.25 -101.85 -17.0 -101.3 M-18.9 -101.35 L-16.85 -102.35 Q-14.2 -103.7 -10.7 -105.8 L-10.05 -105.65 -10.2 -105.55 -10.15 -105.1 -11.0 -103.85 -12.4 -102.25 Q-14.15 -100.25 -14.65 -98.8 -13.3 -98.85 -11.75 -99.55 L-8.05 -101.95 -7.1 -102.8 Q-4.85 -104.75 -2.7 -107.3 L-2.0 -107.2 Q-1.35 -106.4 -1.35 -105.1 L-1.3 -103.0 -1.4 -102.25 Q-1.55 -101.7 -2.0 -101.7 L-3.0 -97.35 Q-4.05 -92.85 -5.05 -92.25 L-5.5 -91.95 Q-7.8 -90.7 -9.95 -90.1 L-11.05 -89.9 -12.55 -89.7 -18.05 -89.55 -18.5 -89.55 -19.95 -89.8 Q-21.45 -90.35 -23.0 -91.95 -25.5 -94.5 -25.5 -97.1 -24.0 -99.25 -19.9 -100.95 L-18.9 -101.35" fill="#edcb0c" fill-rule="evenodd" stroke="none"/>
    <path d="M-30.05 -108.8 L-30.1 -108.8 -28.75 -110.4 Q-23.15 -109.8 -17.4 -110.45 L-15.6 -110.7 -15.05 -110.8 Q-11.9 -111.35 -9.6 -112.1 -7.45 -112.85 -6.1 -113.75 -5.05 -114.45 -3.1 -116.85 L-3.0 -117.0 -2.05 -118.25 -0.8 -119.95 -0.5 -120.35 0.2 -121.4 0.5 -121.85 6.15 -130.05 Q4.55 -127.45 2.6 -123.0 L2.25 -122.2 1.85 -121.35 1.6 -120.85 0.7 -119.3 -0.8 -117.2 -3.1 -114.4 Q-5.55 -111.95 -9.85 -110.55 -12.55 -109.65 -15.9 -109.15 L-17.7 -108.95 -24.7 -108.5 -28.75 -108.6 -30.05 -108.8 M-6.7 -85.5 Q-3.2 -86.35 -1.8 -87.8 -0.25 -89.4 0.5 -92.8 L1.45 -98.05 2.4 -96.0 Q4.35 -91.5 4.35 -89.05 4.35 -85.55 1.0 -81.55 -2.25 -77.7 -4.7 -77.7 -5.75 -77.7 -6.35 -79.5 -6.85 -81.0 -6.85 -83.05 L-6.7 -85.5 M5.55 -62.8 L-1.75 -57.65 -1.95 -57.55 4.9 -57.2 9.4 -57.2 9.45 -55.2 9.25 -53.9 -3.0 -54.55 -7.7 -55.45 -8.0 -57.95 -7.9 -64.05 -5.15 -66.8 Q-2.0 -69.6 0.9 -71.35 9.65 -76.55 9.65 -68.15 9.65 -65.9 5.55 -62.8 M11.75 -44.9 Q14.95 -43.95 16.25 -42.75 L18.4 -39.7 18.2 -39.35 Q17.4 -38.35 15.35 -37.95 L15.3 -37.9 8.95 -37.55 2.0 -37.95 3.7 -38.35 -2.85 -38.15 Q-5.45 -38.25 -6.65 -39.0 -7.65 -39.65 -7.65 -40.7 -7.65 -43.85 -7.1 -45.3 -6.6 -46.95 -5.3 -46.95 4.5 -46.95 11.5 -45.0 L11.75 -44.9 M9.5 -26.35 Q12.85 -25.65 14.2 -23.95 L15.6 -23.15 16.2 -22.7 Q17.6 -21.55 18.6 -19.9 L18.8 -19.6 19.0 -19.2 Q20.05 -17.25 20.35 -15.4 L20.45 -14.05 Q20.45 -13.5 18.2 -12.6 L15.9 -11.8 12.45 -10.75 5.0 -8.8 5.1 -8.6 Q5.6 -7.45 6.55 -6.65 L6.65 -6.55 Q7.35 -6.0 8.3 -5.65 L8.75 -5.5 14.05 -3.85 14.7 -3.7 15.85 -3.35 19.5 -2.7 20.6 -2.05 Q21.25 -1.5 21.55 -0.55 L21.8 0.8 21.75 2.45 Q15.0 3.3 6.9 4.9 L3.85 5.1 Q-1.5 5.1 -10.0 2.3 -15.75 0.4 -18.1 -1.5 L-19.2 -2.65 Q-19.8 -3.5 -19.8 -4.3 -19.8 -7.05 -13.85 -10.05 L-11.0 -11.4 -8.05 -12.55 -7.1 -12.9 -2.85 -14.45 1.6 -16.25 3.5 -17.3 Q5.5 -18.65 5.5 -20.0 5.5 -21.4 2.8 -22.15 L-3.2 -23.2 Q-7.8 -24.0 -10.0 -25.75 L-11.2 -27.0 Q-11.95 -28.15 -11.95 -29.6 -11.95 -31.3 -10.2 -31.3 L-7.2 -30.35 -5.3 -29.65 Q-0.3 -27.85 3.05 -27.3 L9.5 -26.35 M-17.0 -101.3 L-16.25 -101.85 -15.7 -101.5 Q-16.05 -99.9 -16.95 -98.45 L-17.3 -97.85 -18.35 -96.2 -17.5 -95.45 -16.75 -95.35 Q-14.5 -95.35 -12.15 -96.4 -10.45 -97.15 -8.7 -98.5 L-8.6 -98.55 -3.65 -102.5 -3.35 -102.5 -3.25 -101.75 Q-3.25 -99.1 -6.15 -96.15 -7.55 -94.7 -9.4 -93.75 -10.8 -93.0 -12.45 -92.55 L-17.85 -91.9 -18.05 -91.9 -19.75 -92.15 -21.05 -92.85 Q-22.15 -93.75 -22.15 -95.1 -22.15 -96.85 -20.1 -98.8 L-19.05 -99.7 -17.0 -101.3" fill="#f7e062" fill-rule="evenodd" stroke="none"/>
    <path d="M7.75 -132.7 L7.9 -132.4 8.0 -132.25 8.05 -131.5 8.05 -131.15 Q7.9 -128.35 5.45 -123.5 L4.75 -122.25 3.95 -120.85 3.15 -119.5 2.4 -118.25 Q-0.2 -114.15 -2.9 -111.4 -4.95 -109.35 -7.05 -108.1 -7.65 -107.75 -8.2 -107.5 L-8.15 -107.15 -8.15 -106.9 -7.5 -106.8 -7.3 -106.8 Q-4.55 -107.0 -0.4 -111.85 L0.1 -112.4 2.9 -116.2 Q1.8 -113.55 0.95 -110.2 0.4 -108.2 0.0 -105.95 L-0.55 -101.3 Q-1.45 -94.95 -2.0 -93.8 -2.95 -91.85 -5.9 -90.4 -7.05 -89.85 -8.55 -89.4 L-10.15 -88.95 -12.6 -88.45 -17.95 -88.05 -18.15 -88.05 -20.1 -88.3 Q-23.2 -89.05 -25.25 -92.1 -27.55 -95.45 -27.55 -99.3 -27.55 -99.7 -23.7 -101.1 -19.6 -102.5 -19.0 -103.5 -19.6 -104.4 -21.45 -104.1 L-25.0 -103.4 Q-29.65 -102.8 -30.05 -108.8 L-28.75 -108.6 -28.3 -106.9 Q-27.55 -105.7 -25.15 -105.7 -22.45 -105.7 -18.1 -106.6 L-16.25 -107.05 -12.95 -107.9 -10.15 -108.75 Q-2.95 -111.15 -2.35 -114.0 -2.55 -114.4 -3.1 -114.4 L-0.8 -117.2 0.7 -119.3 1.6 -120.85 1.85 -121.35 2.25 -122.2 2.6 -123.0 Q4.55 -127.45 6.15 -130.05 L6.2 -130.15 7.75 -132.7 M7.2 -117.1 L7.2 -117.05 9.2 -111.1 10.7 -106.25 Q15.1 -88.7 15.2 -82.8 15.35 -77.05 16.55 -73.55 17.75 -70.15 17.75 -65.55 L17.8 -59.05 21.45 -54.95 21.75 -54.55 23.3 -54.55 24.8 -48.8 26.55 -42.95 27.65 -35.7 28.75 -29.25 26.65 -24.15 Q29.95 -20.7 30.4 -19.6 L30.8 -17.1 30.95 -14.65 30.95 -13.5 30.95 -12.15 30.6 -10.75 Q30.25 -10.05 29.5 -9.4 L28.1 -7.8 28.0 -7.55 28.2 -6.8 30.0 -2.8 30.1 -2.55 30.75 -1.25 32.05 1.85 Q32.05 6.1 25.25 8.5 17.9 11.1 3.85 11.1 L-21.0 7.2 Q-25.0 6.65 -28.25 4.9 -30.95 3.45 -30.95 2.75 L-29.0 -7.35 -28.1 -12.0 -27.55 -14.6 -27.35 -15.6 -26.7 -18.6 -25.15 -24.05 -24.5 -28.35 Q-24.0 -31.7 -23.6 -32.25 L-21.15 -35.2 -20.95 -35.4 Q-19.95 -36.7 -19.95 -37.25 -19.95 -38.8 -20.7 -40.6 L-21.0 -41.35 -21.4 -42.35 Q-21.4 -47.2 -19.05 -50.85 -17.55 -53.05 -17.15 -54.55 -17.05 -61.5 -16.45 -65.35 L-15.7 -70.1 Q-15.7 -74.1 -15.0 -75.65 L-13.65 -78.25 Q-12.9 -79.7 -12.9 -80.1 L-12.7 -84.7 -10.1 -84.95 -9.85 -83.1 -9.35 -79.6 -10.35 -69.2 -11.35 -58.75 -11.15 -55.25 -11.2 -55.15 -11.5 -53.55 Q-11.15 -50.85 -11.35 -48.35 L-11.5 -44.45 Q-11.55 -42.7 -11.9 -41.1 L-12.25 -39.3 Q-12.25 -38.75 -11.55 -38.25 L-9.6 -37.45 Q-7.05 -36.75 -7.25 -35.2 -7.6 -34.85 -11.25 -32.8 L-11.4 -32.75 Q-14.8 -30.9 -16.15 -28.75 -18.95 -24.45 -21.25 -16.55 L-21.95 -14.05 -22.1 -13.45 -22.2 -13.05 Q-23.55 -7.75 -23.95 -4.35 L-24.05 -3.3 -24.15 -1.75 Q-24.15 1.3 -22.8 2.9 -21.75 4.2 -20.05 4.2 L-16.35 4.6 -13.3 5.05 2.35 7.4 Q6.65 7.4 15.05 5.95 23.8 4.45 26.45 3.05 26.15 1.55 25.05 0.15 L24.0 -0.95 22.65 -2.05 22.3 -2.3 20.6 -3.35 Q18.55 -4.5 16.2 -5.1 L17.4 -5.7 21.9 -7.6 23.25 -8.35 Q24.45 -9.15 24.9 -9.95 25.25 -10.5 25.25 -11.1 L25.15 -12.1 24.85 -13.3 23.9 -16.1 23.85 -16.2 22.15 -20.4 Q21.8 -21.05 20.0 -21.9 19.1 -22.3 18.4 -22.75 17.45 -23.4 16.85 -24.1 L21.15 -28.15 Q21.7 -28.75 21.75 -29.65 L21.75 -29.9 21.65 -33.35 21.55 -34.4 19.85 -41.45 19.1 -44.75 Q18.7 -45.95 17.75 -46.45 L14.2 -47.25 6.3 -48.3 12.25 -52.65 Q13.6 -53.6 13.35 -54.55 L13.4 -54.55 12.7 -55.4 13.35 -60.5 14.0 -67.65 Q14.0 -69.1 12.05 -70.2 L14.0 -73.5 Q14.0 -75.85 11.2 -76.8 L6.15 -78.1 Q9.4 -81.1 9.4 -87.2 9.4 -88.45 2.75 -105.55 L3.45 -108.55 Q4.9 -114.85 6.05 -116.0 L7.2 -117.1 M-18.9 -101.35 L-19.9 -100.95 Q-24.0 -99.25 -25.5 -97.1 -25.5 -94.5 -23.0 -91.95 -21.45 -90.35 -19.95 -89.8 L-18.5 -89.55 -18.05 -89.55 -12.55 -89.7 -11.05 -89.9 -9.95 -90.1 Q-7.8 -90.7 -5.5 -91.95 L-5.05 -92.25 Q-4.05 -92.85 -3.0 -97.35 L-2.0 -101.7 Q-1.55 -101.7 -1.4 -102.25 L-1.3 -103.0 -1.35 -105.1 Q-1.35 -106.4 -2.0 -107.2 L-2.7 -107.3 Q-4.85 -104.75 -7.1 -102.8 L-8.05 -101.95 -11.75 -99.55 Q-13.3 -98.85 -14.65 -98.8 -14.15 -100.25 -12.4 -102.25 L-11.0 -103.85 -10.15 -105.1 -10.2 -105.55 -10.05 -105.65 -10.7 -105.8 Q-14.2 -103.7 -16.85 -102.35 L-18.9 -101.35" fill="#d1a405" fill-rule="evenodd" stroke="none"/>
    <path d="M7.75 -132.7 L8.4 -133.55 Q8.55 -133.8 9.0 -133.8 L9.2 -133.85 9.4 -133.8 Q10.3 -133.6 11.15 -131.5 12.15 -129.05 12.35 -125.2 L12.35 -123.8 7.4 -119.35 6.6 -118.2 Q5.35 -116.35 4.6 -114.7 3.8 -113.1 2.3 -106.7 L1.8 -104.55 0.7 -99.45 Q-0.05 -96.0 -0.25 -94.4 -0.7 -90.65 -4.55 -88.15 -5.45 -87.55 -6.5 -87.05 -8.2 -86.3 -10.25 -85.85 L-12.7 -85.45 -16.95 -85.2 -18.45 -85.25 -20.4 -85.55 -20.6 -85.6 Q-23.8 -86.2 -25.3 -87.35 -26.9 -88.6 -29.5 -91.9 -30.75 -93.5 -32.45 -98.7 L-32.05 -100.8 Q-31.7 -102.45 -31.7 -102.95 L-33.2 -105.3 Q-34.7 -107.65 -34.7 -109.35 -34.7 -111.25 -33.8 -113.4 L-33.85 -113.0 Q-33.85 -111.35 -33.0 -110.2 -32.2 -109.05 -31.05 -109.05 L-30.1 -108.8 -30.05 -108.8 Q-29.65 -102.8 -25.0 -103.4 L-21.45 -104.1 Q-19.6 -104.4 -19.0 -103.5 -19.6 -102.5 -23.7 -101.1 -27.55 -99.7 -27.55 -99.3 -27.55 -95.45 -25.25 -92.1 -23.2 -89.05 -20.1 -88.3 L-18.15 -88.05 -17.95 -88.05 -12.6 -88.45 -10.15 -88.95 -8.55 -89.4 Q-7.05 -89.85 -5.9 -90.4 -2.95 -91.85 -2.0 -93.8 -1.45 -94.95 -0.55 -101.3 L0.0 -105.95 Q0.4 -108.2 0.95 -110.2 1.8 -113.55 2.9 -116.2 L0.1 -112.4 -0.4 -111.85 Q-4.55 -107.0 -7.3 -106.8 L-7.5 -106.8 -8.15 -106.9 -8.15 -107.15 -8.2 -107.5 Q-7.65 -107.75 -7.05 -108.1 -4.95 -109.35 -2.9 -111.4 -0.2 -114.15 2.4 -118.25 L3.15 -119.5 3.95 -120.85 4.75 -122.25 5.45 -123.5 Q7.9 -128.35 8.05 -131.15 L8.05 -131.5 8.0 -132.25 7.9 -132.4 7.75 -132.7 M7.2 -117.1 L11.9 -121.7 13.0 -122.85 Q16.95 -108.95 20.25 -101.45 19.65 -107.75 18.4 -112.65 L18.65 -113.2 Q21.8 -107.7 27.6 -98.65 L32.6 -90.85 33.35 -89.4 Q34.05 -87.3 34.05 -83.6 34.05 -77.3 30.95 -73.65 28.35 -70.6 24.95 -70.6 L24.1 -70.65 24.0 -70.75 23.75 -68.15 Q24.9 -60.45 26.1 -54.55 29.15 -46.5 31.6 -37.5 L33.1 -31.65 33.8 -28.55 34.15 -26.95 35.3 -21.5 Q38.8 -3.35 39.25 1.9 39.7 7.15 29.75 10.75 19.15 14.6 3.35 14.6 L-8.4 13.35 -20.5 11.5 Q-27.8 9.65 -30.75 7.4 -34.0 4.9 -34.0 0.4 -34.0 -1.55 -31.75 -14.9 -29.85 -26.35 -28.55 -32.1 L-28.15 -33.7 -27.85 -34.85 -26.6 -39.75 -25.0 -46.4 -23.35 -53.85 -23.2 -54.55 -22.0 -61.9 -20.0 -72.05 Q-19.5 -74.15 -18.5 -84.5 L-12.7 -84.7 -12.9 -80.1 Q-12.9 -79.7 -13.65 -78.25 L-15.0 -75.65 Q-15.7 -74.1 -15.7 -70.1 L-16.45 -65.35 Q-17.05 -61.5 -17.15 -54.55 -17.55 -53.05 -19.05 -50.85 -21.4 -47.2 -21.4 -42.35 L-21.0 -41.35 -20.7 -40.6 Q-19.95 -38.8 -19.95 -37.25 -19.95 -36.7 -20.95 -35.4 L-21.15 -35.2 -23.6 -32.25 Q-24.0 -31.7 -24.5 -28.35 L-25.15 -24.05 -26.7 -18.6 -27.35 -15.6 -27.55 -14.6 -28.1 -12.0 -29.0 -7.35 -30.95 2.75 Q-30.95 3.45 -28.25 4.9 -25.0 6.65 -21.0 7.2 L3.85 11.1 Q17.9 11.1 25.25 8.5 32.05 6.1 32.05 1.85 L30.75 -1.25 30.1 -2.55 30.0 -2.8 28.2 -6.8 28.0 -7.55 28.1 -7.8 29.5 -9.4 Q30.25 -10.05 30.6 -10.75 L30.95 -12.15 30.95 -13.5 30.95 -14.65 30.8 -17.1 30.4 -19.6 Q29.95 -20.7 26.65 -24.15 L28.75 -29.25 27.65 -35.7 26.55 -42.95 24.8 -48.8 23.3 -54.55 21.75 -54.55 21.45 -54.95 17.8 -59.05 17.75 -65.55 Q17.75 -70.15 16.55 -73.55 15.35 -77.05 15.2 -82.8 15.1 -88.7 10.7 -106.25 L9.2 -111.1 7.2 -117.05 7.2 -117.1 M-15.6 -125.7 Q-13.65 -127.3 -12.75 -127.3 L-12.15 -127.15 -12.2 -126.85 Q-13.15 -124.75 -16.85 -121.65 L-26.75 -113.05 -26.95 -113.3 Q-26.5 -115.35 -25.75 -116.5 -24.8 -117.85 -22.05 -120.2 L-15.6 -125.7 M-14.25 -122.6 Q-14.2 -122.0 -15.5 -120.7 L-20.25 -116.6 -20.5 -116.85 Q-18.95 -120.1 -14.25 -122.6" fill="#ac8604" fill-rule="evenodd" stroke="none"/>
    <path d="M1.7 -136.25 L1.7 -135.85 -0.85 -134.55 Q-3.5 -133.15 -4.0 -132.5 -4.55 -131.8 -5.2 -129.25 L-5.75 -126.7 Q-5.75 -124.65 -5.15 -123.7 -4.6 -122.8 -3.4 -122.8 0.85 -122.8 3.75 -129.05 5.3 -132.5 5.95 -133.4 7.35 -135.35 9.25 -135.35 11.0 -135.35 12.1 -132.95 L13.45 -129.3 15.75 -122.15 16.5 -119.95 16.9 -119.95 Q16.75 -119.9 16.85 -119.65 L17.5 -117.8 20.35 -112.75 29.5 -98.25 32.0 -94.4 Q33.2 -92.4 34.2 -89.7 35.6 -85.75 35.6 -82.25 35.6 -75.8 30.95 -70.7 L27.7 -66.95 Q26.25 -64.65 26.25 -61.85 26.25 -60.5 26.85 -59.1 27.5 -57.55 27.95 -54.35 28.55 -51.9 29.75 -48.9 L32.35 -41.35 34.65 -33.6 Q35.65 -30.3 39.8 -3.3 L40.45 0.3 40.85 2.8 Q40.85 7.3 31.45 11.65 21.6 16.2 10.1 16.2 -4.45 16.2 -23.05 11.9 L-32.4 7.8 Q-35.35 5.75 -35.35 0.05 -35.35 -10.4 -29.8 -33.75 L-24.45 -54.55 -23.25 -62.3 -21.35 -76.5 -20.5 -84.55 Q-25.45 -85.0 -28.85 -88.3 -32.2 -91.6 -33.45 -97.1 L-33.85 -100.9 Q-34.1 -103.3 -34.8 -104.35 -35.95 -106.05 -35.95 -109.15 -35.95 -114.8 -32.4 -118.75 -30.35 -121.05 -21.9 -127.05 -13.8 -132.85 -9.15 -135.5 -3.15 -138.9 0.1 -138.9 L0.95 -138.8 1.55 -138.8 1.6 -138.5 2.15 -137.8 2.4 -136.55 1.7 -136.25 M-33.8 -113.4 Q-34.7 -111.25 -34.7 -109.35 -34.7 -107.65 -33.2 -105.3 L-31.7 -102.95 Q-31.7 -102.45 -32.05 -100.8 L-32.45 -98.7 Q-30.75 -93.5 -29.5 -91.9 -26.9 -88.6 -25.3 -87.35 -23.8 -86.2 -20.6 -85.6 L-20.4 -85.55 -18.45 -85.25 -16.95 -85.2 -12.7 -85.45 -10.25 -85.85 Q-8.2 -86.3 -6.5 -87.05 -5.45 -87.55 -4.55 -88.15 -0.7 -90.65 -0.25 -94.4 -0.05 -96.0 0.7 -99.45 L1.8 -104.55 2.3 -106.7 Q3.8 -113.1 4.6 -114.7 5.35 -116.35 6.6 -118.2 L7.4 -119.35 12.35 -123.8 12.35 -125.2 Q12.15 -129.05 11.15 -131.5 10.3 -133.6 9.4 -133.8 L9.2 -133.85 9.0 -133.8 Q8.55 -133.8 8.4 -133.55 L7.75 -132.7 6.2 -130.15 6.15 -130.05 0.5 -121.85 0.2 -121.4 -0.5 -120.35 -0.8 -119.95 -2.05 -118.25 -3.0 -117.0 -3.1 -116.85 Q-5.05 -114.45 -6.1 -113.75 -7.45 -112.85 -9.6 -112.1 -11.9 -111.35 -15.05 -110.8 L-15.6 -110.7 -17.4 -110.45 Q-23.15 -109.8 -28.75 -110.4 L-31.0 -111.2 Q-31.95 -111.5 -31.95 -112.8 -31.95 -116.95 -19.15 -125.6 L-9.25 -131.9 -7.15 -133.2 -1.65 -136.5 -1.65 -136.7 -1.85 -136.95 -2.7 -137.05 -3.65 -136.95 -5.2 -136.45 Q-9.85 -134.8 -19.4 -128.0 -32.85 -118.5 -33.8 -113.4 M-12.7 -84.7 L-18.5 -84.5 Q-19.5 -74.15 -20.0 -72.05 L-22.0 -61.9 -23.2 -54.55 -23.35 -53.85 -25.0 -46.4 -26.6 -39.75 -27.85 -34.85 -28.15 -33.7 -28.55 -32.1 Q-29.85 -26.35 -31.75 -14.9 -34.0 -1.55 -34.0 0.4 -34.0 4.9 -30.75 7.4 -27.8 9.65 -20.5 11.5 L-8.4 13.35 3.35 14.6 Q19.15 14.6 29.75 10.75 39.7 7.15 39.25 1.9 38.8 -3.35 35.3 -21.5 L34.15 -26.95 33.8 -28.55 33.1 -31.65 31.6 -37.5 Q29.15 -46.5 26.1 -54.55 24.9 -60.45 23.75 -68.15 L24.0 -70.75 24.1 -70.65 24.95 -70.6 Q28.35 -70.6 30.95 -73.65 34.05 -77.3 34.05 -83.6 34.05 -87.3 33.35 -89.4 L32.6 -90.85 27.6 -98.65 Q21.8 -107.7 18.65 -113.2 L18.4 -112.65 Q19.65 -107.75 20.25 -101.45 16.95 -108.95 13.0 -122.85 L11.9 -121.7 7.2 -117.1 6.05 -116.0 Q4.9 -114.85 3.45 -108.55 L2.75 -105.55 1.85 -100.7 1.45 -98.05 0.5 -92.8 Q-0.25 -89.4 -1.8 -87.8 -3.2 -86.35 -6.7 -85.5 L-10.1 -84.95 -12.7 -84.7 M-15.6 -125.7 L-22.05 -120.2 Q-24.8 -117.85 -25.75 -116.5 -26.5 -115.35 -26.95 -113.3 L-26.75 -113.05 -16.85 -121.65 Q-13.15 -124.75 -12.2 -126.85 L-12.15 -127.15 -12.75 -127.3 Q-13.65 -127.3 -15.6 -125.7 M-14.25 -122.6 Q-18.95 -120.1 -20.5 -116.85 L-20.25 -116.6 -15.5 -120.7 Q-14.2 -122.0 -14.25 -122.6" fill="#463702" fill-rule="evenodd" stroke="none"/>
  </g>
</svg>
