<?xml version="1.0" encoding="UTF-8" standalone="no"?>
<svg xmlns:ffdec="https://www.free-decompiler.com/flash" xmlns:xlink="http://www.w3.org/1999/xlink" ffdec:objectType="shape" height="40.25px" width="38.8px" xmlns="http://www.w3.org/2000/svg">
  <g transform="matrix(1.0, 0.0, 0.0, 1.0, 17.5, 8.6)">
    <path d="M-6.5 6.6 L-6.75 6.55 -6.65 6.5 -6.5 6.4 -6.5 6.6 M-8.45 16.25 L-8.4 16.25 -8.45 16.25" fill="#4b3121" fill-rule="evenodd" stroke="none"/>
    <path d="M8.1 18.9 L8.15 19.0 7.95 19.0 8.1 18.9" fill="#724931" fill-rule="evenodd" stroke="none"/>
    <path d="M-6.45 -0.4 L-6.0 -0.2 -5.2 -0.15 Q-4.85 -0.15 -4.1 -0.75 L-3.05 -1.95 -2.65 -1.25 -3.0 -0.3 Q-5.05 0.85 -10.25 5.0 -15.95 9.55 -15.95 10.6 -15.95 12.35 -12.75 14.25 L-9.6 15.9 Q-9.6 16.9 -8.45 16.25 L-8.4 16.25 -0.2 17.3 2.4 16.7 Q4.1 16.05 4.8 15.45 5.6 14.05 5.6 12.8 5.6 11.45 3.85 9.95 0.7 7.2 -6.5 6.6 L-6.5 6.4 -3.2 6.0 Q0.05 6.0 1.75 7.0 3.4 7.95 4.9 7.95 L6.55 7.55 8.2 7.15 Q9.25 7.15 11.25 8.2 L14.25 10.25 14.25 10.2 15.1 11.65 Q15.4 12.35 15.95 12.35 L18.2 12.35 17.2 12.9 Q16.55 13.15 16.55 13.7 16.55 14.7 17.25 18.6 L17.55 18.45 17.25 18.8 17.1 18.85 14.5 13.2 Q11.75 8.65 8.2 8.65 L6.85 8.8 6.4 10.5 Q6.8 12.6 6.8 13.85 6.9 14.45 8.3 16.15 9.2 17.45 10.3 22.0 11.15 25.7 12.1 25.7 L14.05 25.2 16.7 24.35 16.75 24.35 Q18.55 23.3 19.35 19.55 19.85 17.15 19.85 14.4 L19.55 12.8 18.9 11.55 7.2 0.25 7.3 -0.5 7.4 -0.9 7.85 -1.15 11.45 2.35 Q12.45 2.35 16.85 7.4 21.3 12.5 21.3 13.8 21.3 22.3 19.2 24.5 18.1 25.65 11.65 27.2 L11.1 26.9 Q10.7 29.65 8.9 30.7 7.2 31.65 3.35 31.65 2.75 31.65 0.8 30.4 -1.2 29.1 -1.8 29.1 L-9.45 28.55 Q-13.9 27.45 -13.9 23.8 -13.9 22.3 -13.45 21.5 -12.4 19.65 -11.4 16.85 -14.85 16.05 -16.45 13.65 -17.5 12.0 -17.5 10.35 -17.5 7.9 -12.8 4.0 -9.35 1.1 -6.45 -0.4 M8.1 18.9 L6.7 17.55 5.65 16.75 Q4.15 16.75 3.95 17.3 3.7 18.1 0.9 18.65 -0.75 18.95 -0.85 22.2 L-0.7 27.8 Q-0.7 28.65 1.1 29.5 2.9 30.45 4.35 30.15 6.6 30.25 8.05 29.4 9.6 28.4 9.6 26.5 L9.2 23.45 8.15 19.0 8.1 18.9 M-6.35 18.3 L-9.95 17.35 -10.0 17.4 -12.35 23.65 -12.4 23.8 Q-11.35 25.35 -10.0 26.35 L-10.0 26.4 Q-9.1 27.35 -5.75 28.2 L-2.2 27.75 -1.85 21.05 -2.0 19.8 -2.15 18.75 -5.25 18.5 -6.35 18.3" fill="#6c3d28" fill-rule="evenodd" stroke="none"/>
    <path d="M-2.25 -0.65 Q-2.1 0.05 -1.1 0.05 -0.8 0.05 -0.15 -0.3 0.85 -0.8 1.5 -1.65 L1.8 -1.7 2.0 -1.35 1.85 -1.35 1.6 -0.25 1.1 0.65 Q5.5 0.0 7.6 1.8 8.75 2.7 9.5 4.3 L7.4 3.95 Q4.8 4.35 3.15 5.15 L1.7 5.85 0.3 5.4 -1.55 4.55 -4.2 4.1 Q-5.75 4.1 -7.9 5.9 -9.9 7.65 -9.9 8.6 -9.9 9.75 -8.45 10.0 L-4.75 10.25 Q1.45 10.8 4.8 15.45 4.1 16.05 2.4 16.7 L-0.2 17.3 -8.4 16.25 -8.45 16.25 Q-9.6 16.9 -9.6 15.9 L-12.75 14.25 Q-15.95 12.35 -15.95 10.6 -15.95 9.55 -10.25 5.0 -5.05 0.85 -3.0 -0.3 L-2.25 -0.65 M8.3 16.15 L9.45 13.3 Q10.05 12.05 11.15 12.05 L12.45 12.4 Q13.75 12.85 13.75 13.35 13.75 15.5 14.7 17.3 L17.1 20.65 17.95 18.8 18.05 18.6 Q18.65 17.35 19.3 13.1 L19.1 11.95 18.9 11.55 19.55 12.8 19.85 14.4 Q19.85 17.15 19.35 19.55 18.55 23.3 16.75 24.35 L16.7 24.35 14.05 25.2 12.1 25.7 Q11.15 25.7 10.3 22.0 9.2 17.45 8.3 16.15 M8.15 19.0 L9.2 23.45 9.6 26.5 Q9.6 28.4 8.05 29.4 6.6 30.25 4.35 30.15 3.3 28.9 2.25 26.45 1.35 24.4 1.35 24.05 1.35 22.0 3.6 20.55 5.55 19.25 7.95 19.0 L8.15 19.0 M-6.35 18.3 L-5.25 18.5 -2.15 18.75 -2.0 19.8 -1.85 21.05 -2.2 27.75 -5.75 28.2 Q-7.95 26.5 -9.1 24.4 -9.85 23.0 -9.85 22.3 -9.85 19.9 -8.25 18.9 L-6.35 18.3" fill="#eaa76a" fill-rule="evenodd" stroke="none"/>
    <path d="M-2.65 -1.25 L-2.25 -0.65 -3.0 -0.3 -2.65 -1.25 M2.0 -1.35 L3.75 -0.1 5.55 -0.45 7.4 -0.9 7.3 -0.5 7.2 0.25 18.9 11.55 19.1 11.95 19.3 13.1 Q18.65 17.35 18.05 18.6 L17.95 18.8 17.1 20.65 14.7 17.3 Q13.75 15.5 13.75 13.35 13.75 12.85 12.45 12.4 L11.15 12.05 Q10.05 12.05 9.45 13.3 L8.3 16.15 Q6.9 14.45 6.8 13.85 6.8 12.6 6.4 10.5 L6.85 8.8 8.2 8.65 Q11.75 8.65 14.5 13.2 L17.1 18.85 17.25 18.8 17.55 18.45 17.25 18.6 Q16.55 14.7 16.55 13.7 16.55 13.15 17.2 12.9 L18.2 12.35 15.95 12.35 Q15.4 12.35 15.1 11.65 L14.25 10.2 14.25 10.25 11.25 8.2 Q9.25 7.15 8.2 7.15 L6.55 7.55 4.9 7.95 Q3.4 7.95 1.75 7.0 0.05 6.0 -3.2 6.0 L-6.5 6.4 -6.65 6.5 -6.75 6.55 -6.5 6.6 Q0.7 7.2 3.85 9.95 5.6 11.45 5.6 12.8 5.6 14.05 4.8 15.45 1.45 10.8 -4.75 10.25 L-8.45 10.0 Q-9.9 9.75 -9.9 8.6 -9.9 7.65 -7.9 5.9 -5.75 4.1 -4.2 4.1 L-1.55 4.55 0.3 5.4 1.7 5.85 3.15 5.15 Q4.8 4.35 7.4 3.95 L9.5 4.3 Q8.75 2.7 7.6 1.8 5.5 0.0 1.1 0.65 L1.6 -0.25 1.85 -1.35 2.0 -1.35 M4.35 30.15 Q2.9 30.45 1.1 29.5 -0.7 28.65 -0.7 27.8 L-0.85 22.2 Q-0.75 18.95 0.9 18.65 3.7 18.1 3.95 17.3 4.15 16.75 5.65 16.75 L6.7 17.55 8.1 18.9 7.95 19.0 Q5.55 19.25 3.6 20.55 1.35 22.0 1.35 24.05 1.35 24.4 2.25 26.45 3.3 28.9 4.35 30.15 M-5.75 28.2 Q-9.1 27.35 -10.0 26.4 L-10.0 26.35 Q-11.35 25.35 -12.4 23.8 L-12.35 23.65 -10.0 17.4 -9.95 17.35 -6.35 18.3 -8.25 18.9 Q-9.85 19.9 -9.85 22.3 -9.85 23.0 -9.1 24.4 -7.95 26.5 -5.75 28.2" fill="#e7964e" fill-rule="evenodd" stroke="none"/>
    <path d="M7.15 -6.85 L5.7 -7.6 5.15 -7.25 6.45 -5.8 Q6.95 -4.9 7.3 -2.05 L8.0 -3.2 Q7.85 -5.95 7.15 -6.85 M-6.45 -0.4 Q-7.9 -1.45 -7.9 -4.25 -7.9 -5.75 -7.05 -6.9 -6.2 -8.05 -5.05 -8.05 -4.3 -8.05 -3.65 -7.3 L-2.9 -6.25 -0.8 -7.9 Q-0.1 -7.9 0.6 -7.2 L1.4 -6.25 Q3.0 -7.95 3.55 -7.95 L4.7 -8.25 5.85 -8.6 Q6.7 -8.6 7.65 -7.7 9.0 -6.5 9.0 -4.4 L8.75 -2.7 7.85 -1.15 7.4 -0.9 5.55 -0.45 3.75 -0.1 2.0 -1.35 1.8 -1.7 1.5 -1.65 Q0.85 -0.8 -0.15 -0.3 -0.8 0.05 -1.1 0.05 -2.1 0.05 -2.25 -0.65 L-2.65 -1.25 -3.05 -1.95 -4.1 -0.75 Q-4.85 -0.15 -5.2 -0.15 L-6.0 -0.2 -6.45 -0.4 M4.25 -6.8 L2.4 -6.7 Q2.1 -5.45 2.1 -4.45 2.1 -4.0 2.6 -2.95 3.15 -1.8 3.7 -1.2 L3.35 -4.95 Q3.3 -5.65 3.9 -5.65 4.9 -5.65 4.45 -5.5 L4.7 -1.4 Q5.2 -1.8 5.5 -3.35 4.7 -6.45 4.25 -6.8 M6.25 -1.9 L6.35 -1.85 6.25 -2.2 6.25 -1.9 M-1.2 -6.4 Q-1.3 -6.1 -1.9 -6.1 -2.5 -6.1 -2.45 -5.45 L-2.4 -3.9 -2.15 -2.45 -1.8 -1.7 -1.25 -1.15 -1.55 -5.25 -1.05 -5.5 Q-0.7 -5.4 -0.55 -4.7 L-0.25 -1.1 Q0.65 -2.4 0.45 -4.3 0.2 -6.1 -0.8 -6.9 L-1.2 -6.4 M-5.5 -6.6 Q-5.7 -6.35 -6.25 -6.35 -6.85 -6.35 -6.85 -5.7 -6.8 -4.75 -6.9 -4.2 -6.8 -2.3 -5.95 -1.35 L-6.0 -5.5 -5.45 -5.65 Q-5.1 -5.55 -5.05 -4.85 L-5.0 -1.25 Q-4.15 -2.15 -4.0 -3.75 -3.8 -5.75 -5.1 -7.05 L-5.5 -6.6" fill="#846b37" fill-rule="evenodd" stroke="none"/>
    <path d="M7.15 -6.85 Q7.85 -5.95 8.0 -3.2 L7.3 -2.05 Q6.95 -4.9 6.45 -5.8 L5.15 -7.25 5.7 -7.6 7.15 -6.85 M4.25 -6.8 Q4.7 -6.45 5.5 -3.35 5.2 -1.8 4.7 -1.4 L4.45 -5.5 Q4.9 -5.65 3.9 -5.65 3.3 -5.65 3.35 -4.95 L3.7 -1.2 Q3.15 -1.8 2.6 -2.95 2.1 -4.0 2.1 -4.45 2.1 -5.45 2.4 -6.7 L4.25 -6.8 M6.25 -1.9 L6.25 -2.2 6.35 -1.85 6.25 -1.9 M-5.5 -6.6 L-5.1 -7.05 Q-3.8 -5.75 -4.0 -3.75 -4.15 -2.15 -5.0 -1.25 L-5.05 -4.85 Q-5.1 -5.55 -5.45 -5.65 L-6.0 -5.5 -5.95 -1.35 Q-6.8 -2.3 -6.9 -4.2 -6.8 -4.75 -6.85 -5.7 -6.85 -6.35 -6.25 -6.35 -5.7 -6.35 -5.5 -6.6 M-1.2 -6.4 L-0.8 -6.9 Q0.2 -6.1 0.45 -4.3 0.65 -2.4 -0.25 -1.1 L-0.55 -4.7 Q-0.7 -5.4 -1.05 -5.5 L-1.55 -5.25 -1.25 -1.15 -1.8 -1.7 -2.15 -2.45 -2.4 -3.9 -2.45 -5.45 Q-2.5 -6.1 -1.9 -6.1 -1.3 -6.1 -1.2 -6.4" fill="#e4dbc9" fill-rule="evenodd" stroke="none"/>
  </g>
</svg>
