<?xml version="1.0" encoding="UTF-8" standalone="no"?>
<svg xmlns:ffdec="https://www.free-decompiler.com/flash" xmlns:xlink="http://www.w3.org/1999/xlink" ffdec:objectType="shape" height="85.0px" width="85.0px" xmlns="http://www.w3.org/2000/svg">
  <g transform="matrix(1.0, 0.0, 0.0, 1.0, 25.95, 66.5)">
    <path d="M-23.6 -21.65 L-23.85 -21.15 -23.9 -21.95 -23.6 -21.65 M-23.8 -20.35 L-23.4 -19.75 -22.65 -19.6 -11.35 -27.75 Q0.6 -35.9 8.25 -35.9 10.0 -35.9 11.9 -29.2 14.4 -20.35 16.4 -1.55 L17.15 -1.3 18.25 -1.1 Q18.7 -1.1 21.2 -3.35 24.2 -6.05 26.4 -9.15 L26.85 -2.65 Q26.85 9.1 19.25 11.9 16.3 12.95 11.05 13.2 L1.0 13.5 Q-6.95 11.35 -15.35 0.35 -24.1 -11.05 -23.8 -20.35" fill="#926041" fill-rule="evenodd" stroke="none"/>
    <path d="M-23.6 -21.65 Q-19.7 -29.6 -11.2 -34.75 -3.7 -39.3 2.8 -39.3 13.2 -39.3 16.4 -30.1 18.3 -24.5 19.1 -5.15 21.1 -6.9 24.1 -11.9 26.9 -16.45 27.85 -17.0 30.2 -16.35 30.2 -4.4 L27.9 3.75 Q25.55 11.95 25.55 12.9 25.55 14.5 20.15 15.7 L15.35 16.45 12.9 16.35 Q10.05 16.3 6.15 15.25 2.9 14.4 1.0 13.5 L11.05 13.2 Q16.3 12.95 19.25 11.9 26.85 9.1 26.85 -2.65 L26.4 -9.15 Q24.2 -6.05 21.2 -3.35 18.7 -1.1 18.25 -1.1 L17.15 -1.3 16.4 -1.55 Q14.4 -20.35 11.9 -29.2 10.0 -35.9 8.25 -35.9 0.6 -35.9 -11.35 -27.75 L-22.65 -19.6 -23.4 -19.75 -23.8 -20.35 -23.85 -21.15 -23.6 -21.65" fill="#83563a" fill-rule="evenodd" stroke="none"/>
    <path d="M15.35 16.45 L20.15 15.7 Q25.55 14.5 25.55 12.9 25.55 11.95 27.9 3.75 L30.2 -4.4 Q30.2 -16.35 27.85 -17.0 26.9 -16.45 24.1 -11.9 21.1 -6.9 19.1 -5.15 18.3 -24.5 16.4 -30.1 13.2 -39.3 2.8 -39.3 -3.7 -39.3 -11.2 -34.75 -19.7 -29.6 -23.6 -21.65 L-23.9 -21.95 Q-24.0 -26.4 -22.2 -32.7 -19.95 -40.45 -15.8 -46.9 -4.35 -64.5 16.5 -64.5 35.0 -64.5 46.65 -51.15 57.0 -39.3 57.0 -24.0 57.0 -7.3 45.15 4.6 33.3 16.5 16.65 16.5 L15.35 16.45" fill="#724931" fill-rule="evenodd" stroke="none"/>
    <path d="M-23.85 -21.15 L-23.8 -20.35 Q-24.1 -11.05 -15.35 0.35 -6.95 11.35 1.0 13.5 2.9 14.4 6.15 15.25 10.05 16.3 12.9 16.35 L15.35 16.45 16.65 16.5 Q33.3 16.5 45.15 4.6 57.0 -7.3 57.0 -24.0 57.0 -39.3 46.65 -51.15 35.0 -64.5 16.5 -64.5 -4.35 -64.5 -15.8 -46.9 -19.95 -40.45 -22.2 -32.7 -24.0 -26.4 -23.9 -21.95 L-23.85 -21.15 M46.6 -54.05 Q59.05 -41.6 59.05 -24.0 59.05 -6.4 46.6 6.05 34.15 18.5 16.55 18.5 -1.05 18.5 -13.5 6.05 -25.95 -6.4 -25.95 -24.0 -25.95 -41.6 -13.5 -54.05 -1.05 -66.5 16.55 -66.5 34.15 -66.5 46.6 -54.05" fill="#312015" fill-rule="evenodd" stroke="none"/>
  </g>
</svg>
