<?xml version="1.0" encoding="UTF-8" standalone="no"?>
<svg xmlns:ffdec="https://www.free-decompiler.com/flash" xmlns:xlink="http://www.w3.org/1999/xlink" ffdec:objectType="shape" height="29.4px" width="37.9px" xmlns="http://www.w3.org/2000/svg">
  <g transform="matrix(1.0, 0.0, 0.0, 1.0, 14.05, 19.1)">
    <path d="M11.9 -19.1 Q18.35 -17.25 20.8 -15.1 23.8 -12.45 23.8 -7.25 23.8 -3.7 22.1 -0.55 21.0 1.45 19.7 2.7 19.9 1.8 18.05 -0.45 L15.45 -3.05 Q14.5 -1.25 11.75 2.75 L8.0 7.25 7.75 7.5 4.6 10.3 3.3 10.05 5.25 -2.6 6.75 -3.95 7.75 -4.8 8.0 -5.0 8.4 -5.35 9.7 -6.55 11.0 -8.3 11.0 -8.45 11.05 -8.7 11.5 -19.05 11.9 -19.1 M5.95 -2.45 L5.35 -0.15 4.7 4.15 3.95 9.6 4.8 9.7 7.75 6.6 8.0 6.3 14.0 -1.95 13.05 -3.2 8.0 -0.8 7.75 -0.7 Q7.15 -0.45 6.75 -0.35 L7.75 -1.1 8.0 -1.3 10.2 -3.6 Q11.25 -4.9 12.05 -4.9 14.15 -4.9 16.3 -3.2 17.95 -1.9 20.05 0.85 21.15 -0.55 22.05 -3.35 22.8 -5.9 22.8 -7.5 22.8 -11.4 20.65 -14.05 18.0 -17.4 12.45 -18.1 L11.8 -10.8 11.85 -10.8 11.9 -10.6 11.95 -8.5 11.9 -8.4 11.9 -8.3 10.65 -6.45 8.0 -3.9 7.75 -3.7 5.95 -2.45 M0.5 -17.8 Q1.2 -13.55 1.3 -8.3 1.05 -4.15 1.3 -1.05 -1.15 2.15 -2.45 9.55 L-3.55 9.55 -7.65 -1.25 -10.0 1.0 Q-10.4 1.45 -11.2 1.45 L-13.35 1.3 -14.05 0.3 Q-11.15 -2.55 -10.5 -5.85 -10.15 -7.65 -9.95 -9.9 -8.95 -12.1 -6.9 -13.45 -3.35 -15.45 -0.05 -17.6 L0.2 -17.75 0.5 -17.8 M-1.8 3.0 L0.7 -1.35 Q0.0 -8.05 0.2 -8.3 L0.2 -16.6 -0.3 -16.35 Q-3.65 -15.25 -6.55 -12.75 -9.5 -10.3 -9.3 -9.35 -10.25 -3.5 -11.25 -2.0 L-13.0 0.3 Q-11.15 -0.1 -10.05 -2.6 -9.25 -4.45 -9.1 -6.8 L-3.3 8.75 Q-2.8 8.75 -2.65 8.35 L-2.55 5.4 -2.1 3.7 -1.8 3.0 M-8.75 -0.5 Q-8.2 -1.2 -8.2 -2.1 -8.2 -2.9 -9.0 -4.6 -9.4 -3.1 -11.55 0.6 -9.65 0.55 -8.75 -0.5" fill="#5a1c01" fill-rule="evenodd" stroke="none"/>
    <path d="M5.95 -2.45 L7.75 -2.65 8.0 -2.75 9.9 -3.95 Q11.7 -5.5 12.35 -5.5 15.05 -5.5 17.05 -4.2 L19.2 -2.35 Q19.9 -2.95 20.75 -4.9 21.7 -7.05 21.7 -8.4 21.7 -10.2 20.85 -11.1 19.55 -12.5 16.15 -12.25 L15.75 -14.1 14.75 -15.7 Q13.45 -14.55 12.7 -11.8 L11.95 -8.5 11.9 -10.6 11.85 -10.8 11.8 -10.8 12.45 -18.1 Q18.0 -17.4 20.65 -14.05 22.8 -11.4 22.8 -7.5 22.8 -5.9 22.05 -3.35 21.15 -0.55 20.05 0.85 17.95 -1.9 16.3 -3.2 14.15 -4.9 12.05 -4.9 11.25 -4.9 10.2 -3.6 L8.0 -1.3 7.75 -1.1 6.75 -0.35 4.8 9.7 3.95 9.6 4.7 4.15 5.35 -0.15 5.95 -2.45 M-0.3 -16.35 L-0.7 -9.95 Q-0.75 -9.6 -2.1 -7.95 -3.4 -6.3 -3.35 -5.7 L-3.3 -4.5 -2.95 -1.75 -2.4 1.15 -1.8 3.0 -2.1 3.7 -2.55 5.4 -2.65 8.35 Q-2.8 8.75 -3.3 8.75 L-9.1 -6.8 Q-9.25 -4.45 -10.05 -2.6 -11.15 -0.1 -13.0 0.3 L-11.25 -2.0 Q-10.25 -3.5 -9.3 -9.35 -9.5 -10.3 -6.55 -12.75 -3.65 -15.25 -0.3 -16.35 M-3.55 -13.7 Q-5.45 -13.3 -7.0 -11.25 -8.3 -9.6 -8.3 -8.9 -8.3 -6.2 -5.2 0.0 L-5.05 -0.05 -5.0 -0.35 -6.05 -3.85 Q-7.0 -6.8 -7.0 -8.3 -7.0 -9.15 -5.3 -11.25 L-3.4 -13.45 -3.55 -13.7" fill="#ae3602" fill-rule="evenodd" stroke="none"/>
    <path d="M11.95 -8.5 L12.7 -11.8 Q13.45 -14.55 14.75 -15.7 L15.75 -14.1 16.15 -12.25 Q19.55 -12.5 20.85 -11.1 21.7 -10.2 21.7 -8.4 21.7 -7.05 20.75 -4.9 19.9 -2.95 19.2 -2.35 L17.05 -4.2 Q15.05 -5.5 12.35 -5.5 11.7 -5.5 9.9 -3.95 L8.0 -2.75 7.75 -2.65 5.95 -2.45 7.75 -3.7 8.0 -3.9 10.65 -6.45 11.9 -8.3 11.9 -8.4 11.95 -8.5 M18.7 -5.0 L20.5 -8.75 Q20.5 -9.35 17.95 -10.45 15.15 -11.7 14.5 -13.1 12.45 -7.0 11.9 -6.45 L11.45 -6.0 14.4 -6.2 Q17.45 -6.2 18.7 -5.0 M-3.55 -13.7 L-3.4 -13.45 -5.3 -11.25 Q-7.0 -9.15 -7.0 -8.3 -7.0 -6.8 -6.05 -3.85 L-5.0 -0.35 -5.05 -0.05 -5.2 0.0 Q-8.3 -6.2 -8.3 -8.9 -8.3 -9.6 -7.0 -11.25 -5.45 -13.3 -3.55 -13.7" fill="#d24400" fill-rule="evenodd" stroke="none"/>
    <path d="M18.7 -5.0 Q17.45 -6.2 14.4 -6.2 L11.45 -6.0 11.9 -6.45 Q12.45 -7.0 14.5 -13.1 15.15 -11.7 17.95 -10.45 20.5 -9.35 20.5 -8.75 L18.7 -5.0" fill="#ff6c00" fill-rule="evenodd" stroke="none"/>
    <path d="M4.8 9.7 L6.75 -0.35 Q7.15 -0.45 7.75 -0.7 L8.0 -0.8 13.05 -3.2 14.0 -1.95 8.0 6.3 7.75 6.6 4.8 9.7 M-0.3 -16.35 L0.2 -16.6 0.2 -8.3 Q0.0 -8.05 0.7 -1.35 L-1.8 3.0 -2.4 1.15 -2.95 -1.75 -3.3 -4.5 -3.35 -5.7 Q-3.4 -6.3 -2.1 -7.95 -0.75 -9.6 -0.7 -9.95 L-0.3 -16.35 M-8.75 -0.5 Q-9.65 0.55 -11.55 0.6 -9.4 -3.1 -9.0 -4.6 -8.2 -2.9 -8.2 -2.1 -8.2 -1.2 -8.75 -0.5" fill="#8a2b02" fill-rule="evenodd" stroke="none"/>
    <path d="M22.1 -11.55 Q22.45 -12.0 23.0 -11.95 23.85 -9.9 23.85 -7.1 23.85 -3.55 22.15 -0.4 21.05 1.6 19.75 2.85 19.95 1.95 18.1 -0.3 L17.85 -0.6 18.0 -1.05 18.15 -1.35 20.1 1.0 Q21.2 -0.4 22.1 -3.2 22.85 -5.75 22.85 -7.35 22.85 -9.7 22.1 -11.55 M-9.5 -7.7 L-9.95 -7.8 -10.1 -7.8 -9.9 -9.75 Q-8.9 -11.95 -6.85 -13.3 L-4.9 -14.4 -4.55 -14.1 -6.5 -12.6 Q-9.45 -10.15 -9.25 -9.2 L-9.5 -7.7" fill="#763f01" fill-rule="evenodd" stroke="none"/>
    <path d="M-2.95 -6.6 L-3.2 -5.8 -3.35 -5.55 -3.35 -5.9 -2.95 -6.6" fill="#995202" fill-rule="evenodd" stroke="none"/>
    <path d="M21.5 -9.95 L21.8 -11.1 22.1 -11.55 Q22.85 -9.7 22.85 -7.35 22.85 -5.75 22.1 -3.2 21.2 -0.4 20.1 1.0 L18.15 -1.35 18.35 -2.55 18.3 -3.05 19.25 -2.2 Q19.95 -2.8 20.8 -4.75 21.75 -6.9 21.75 -8.25 L21.5 -9.95 M-3.7 -12.85 L-3.65 -11.4 -3.7 -10.3 -3.6 -9.25 Q-2.95 -7.75 -2.95 -7.05 L-2.95 -6.6 -3.35 -5.9 -3.35 -5.55 Q-3.95 -4.6 -5.4 -4.6 L-6.3 -4.75 -6.95 -8.15 Q-6.95 -9.0 -5.25 -11.1 L-3.7 -12.85 M-7.7 -5.8 L-7.95 -6.2 Q-8.75 -7.45 -9.5 -7.7 L-9.25 -9.2 Q-9.45 -10.15 -6.5 -12.6 L-4.55 -14.1 -4.0 -13.6 -3.9 -13.45 Q-5.55 -12.9 -6.95 -11.1 -8.25 -9.45 -8.25 -8.75 -8.25 -7.6 -7.7 -5.8" fill="#d67203" fill-rule="evenodd" stroke="none"/>
    <path d="M20.15 -9.15 L21.1 -9.15 21.5 -9.95 21.75 -8.25 Q21.75 -6.9 20.8 -4.75 19.95 -2.8 19.25 -2.2 L18.3 -3.05 Q18.0 -4.45 15.9 -4.7 L15.85 -4.7 14.1 -5.2 Q13.6 -5.5 13.35 -5.95 L14.45 -6.05 Q17.5 -6.05 18.75 -4.85 L20.55 -8.6 20.15 -9.15 M-3.9 -13.45 L-3.7 -12.85 -5.25 -11.1 Q-6.95 -9.0 -6.95 -8.15 L-6.3 -4.75 Q-7.1 -5.05 -7.7 -5.8 -8.25 -7.6 -8.25 -8.75 -8.25 -9.45 -6.95 -11.1 -5.55 -12.9 -3.9 -13.45" fill="#fb9d20" fill-rule="evenodd" stroke="none"/>
    <path d="M13.35 -5.95 L13.15 -6.85 Q13.15 -7.55 13.65 -8.35 14.4 -9.65 16.0 -9.65 L17.5 -9.35 19.9 -9.15 20.15 -9.15 20.55 -8.6 18.75 -4.85 Q17.5 -6.05 14.45 -6.05 L13.35 -5.95" fill="#fdb51e" fill-rule="evenodd" stroke="none"/>
  </g>
</svg>
