<?xml version="1.0" encoding="UTF-8" standalone="no"?>
<svg xmlns:ffdec="https://www.free-decompiler.com/flash" xmlns:xlink="http://www.w3.org/1999/xlink" ffdec:objectType="shape" height="97.3px" width="43.25px" xmlns="http://www.w3.org/2000/svg">
  <g transform="matrix(1.0, 0.0, 0.0, 1.0, 33.55, 80.65)">
    <path d="M0.9 -71.35 L-4.1 -71.0 Q-2.8 -72.4 -1.3 -73.35 0.75 -74.65 3.15 -75.1 L2.1 -74.05 Q1.35 -73.1 1.0 -71.75 L0.9 -71.35 M-18.8 -65.75 L-23.15 -63.2 -25.2 -61.9 -24.85 -62.95 -24.75 -63.45 Q-26.5 -66.25 -29.3 -66.65 -24.5 -68.2 -19.4 -66.0 L-18.8 -65.75" fill="#fdace9" fill-rule="evenodd" stroke="none"/>
    <path d="M-30.45 -58.25 L-30.5 -58.35 Q-31.55 -60.55 -31.75 -63.4 L-31.75 -65.15 -31.7 -65.5 -31.1 -69.85 -30.15 -70.1 -21.5 -69.7 Q-19.4 -69.15 -17.2 -68.0 L-17.1 -68.05 -16.65 -67.85 -15.95 -67.45 -15.8 -67.35 -18.8 -65.75 -19.4 -66.0 Q-24.5 -68.2 -29.3 -66.65 -26.5 -66.25 -24.75 -63.45 L-24.85 -62.95 -25.2 -61.9 -30.45 -58.25 M-14.0 -68.2 L-14.25 -68.4 -14.55 -68.7 Q-14.0 -69.35 -13.05 -69.55 L-12.8 -69.65 -11.05 -69.55 -10.9 -69.4 -13.55 -68.4 -14.0 -68.2 M-8.35 -70.15 L-8.1 -70.35 -7.6 -71.15 -5.2 -73.95 Q-1.95 -77.15 2.1 -78.5 L3.05 -78.8 5.85 -75.2 6.05 -74.95 6.25 -74.5 6.9 -73.4 7.3 -72.45 7.8 -71.15 3.25 -71.55 3.4 -71.25 2.6 -71.3 0.9 -71.35 1.0 -71.75 Q1.35 -73.1 2.1 -74.05 L3.15 -75.1 Q0.75 -74.65 -1.3 -73.35 -2.8 -72.4 -4.1 -71.0 L-8.35 -70.15" fill="#f56dd3" fill-rule="evenodd" stroke="none"/>
    <path d="M-30.45 -58.25 L-31.45 -57.5 -31.9 -57.15 -32.0 -57.4 -32.15 -57.65 Q-33.4 -60.15 -33.55 -63.25 L-33.45 -65.15 -33.4 -65.65 -32.75 -70.65 -32.65 -70.75 -32.35 -71.2 -32.0 -71.45 Q-25.15 -73.65 -17.55 -70.25 L-16.15 -69.6 Q-15.3 -70.6 -14.1 -71.0 L-13.45 -71.35 -13.2 -71.3 -13.0 -71.5 -12.2 -71.5 -9.75 -71.35 -8.85 -72.6 Q-3.75 -79.25 3.2 -80.65 L3.65 -80.6 4.15 -80.4 4.1 -80.3 7.3 -76.3 7.5 -75.8 8.25 -74.5 8.45 -74.2 9.2 -72.45 9.7 -70.8 7.8 -71.15 7.3 -72.45 6.9 -73.4 6.25 -74.5 6.05 -74.95 5.85 -75.2 3.05 -78.8 2.1 -78.5 Q-1.95 -77.15 -5.2 -73.95 L-7.6 -71.15 -8.1 -70.35 -8.35 -70.15 -10.9 -69.4 -11.05 -69.55 -12.8 -69.65 -13.05 -69.55 Q-14.0 -69.35 -14.55 -68.7 L-14.25 -68.4 -14.0 -68.2 -15.8 -67.35 -15.95 -67.45 -16.65 -67.85 -17.1 -68.05 -17.2 -68.0 Q-19.4 -69.15 -21.5 -69.7 L-30.15 -70.1 -31.1 -69.85 -31.7 -65.5 -31.75 -65.15 -31.75 -63.4 Q-31.55 -60.55 -30.5 -58.35 L-30.45 -58.25" fill="#981277" fill-rule="evenodd" stroke="none"/>
    <path d="M-18.5 16.65 L-20.6 16.35 -17.65 15.6 -18.5 16.65" fill="#fbee95" fill-rule="evenodd" stroke="none"/>
  </g>
</svg>
