<?xml version="1.0" encoding="UTF-8" standalone="no"?>
<svg xmlns:ffdec="https://www.free-decompiler.com/flash" xmlns:xlink="http://www.w3.org/1999/xlink" ffdec:objectType="shape" height="62.65px" width="76.5px" xmlns="http://www.w3.org/2000/svg">
  <g transform="matrix(1.0, 0.0, 0.0, 1.0, 48.1, 48.0)">
    <path d="M9.25 -0.9 L9.9 -3.65 Q12.3 -1.45 13.45 -0.75 15.35 0.3 20.6 2.0 20.55 1.25 13.25 -2.95 14.2 -2.45 17.55 -1.4 21.1 0.25 24.65 4.15 L22.3 4.75 14.3 0.3 Q13.85 0.45 13.8 1.15 L21.2 6.7 20.35 6.65 21.85 8.05 Q23.2 9.45 23.3 10.05 L23.0 11.15 Q22.25 10.75 20.85 8.95 19.3 6.95 18.05 6.1 16.55 5.05 13.95 4.65 11.6 4.25 10.4 3.2 9.45 2.45 9.4 1.25 L10.35 -1.45 10.25 -1.65 Q9.45 -1.65 9.25 -0.9 M10.3 -5.45 L10.7 -7.1 Q13.05 -5.2 16.65 -4.35 L23.35 -3.55 Q23.25 -4.45 16.45 -6.8 16.1 -6.65 13.55 -7.75 L11.05 -8.85 Q10.65 -14.0 10.15 -15.1 9.45 -16.5 5.5 -19.85 10.1 -17.3 11.1 -17.3 L12.05 -17.4 12.7 -17.85 12.55 -18.7 Q8.55 -19.5 1.6 -25.3 -4.8 -30.6 -9.1 -30.6 L-12.0 -30.45 Q-14.6 -30.5 -16.1 -31.2 L-20.1 -34.75 Q-23.75 -37.85 -25.95 -37.85 -26.95 -37.85 -26.55 -37.65 L-26.35 -37.1 Q-24.6 -37.1 -19.5 -32.8 -14.5 -28.6 -11.9 -28.9 -7.05 -29.45 -3.2 -27.15 -1.1 -25.85 3.25 -21.5 -1.95 -24.7 -5.7 -25.75 L-15.0 -27.15 Q-22.9 -30.8 -26.05 -31.2 -28.35 -31.5 -29.9 -32.45 L-32.05 -33.4 -35.0 -33.65 Q-34.3 -32.9 -29.5 -31.1 L-18.8 -27.15 -27.4 -26.55 -27.45 -27.4 -29.6 -27.6 Q-33.3 -27.6 -41.05 -31.45 L-40.9 -32.45 -35.05 -32.75 -38.8 -36.4 Q-38.8 -37.4 -37.75 -37.05 -35.8 -35.9 -30.55 -34.2 L-25.7 -32.7 -24.45 -32.8 -23.95 -32.95 Q-24.05 -33.95 -27.3 -36.05 -30.75 -38.25 -31.35 -39.95 L-30.35 -40.55 Q-24.0 -38.15 -18.5 -34.8 -14.8 -32.55 -12.85 -32.55 L-12.05 -32.65 -12.05 -32.75 -12.2 -33.1 Q-14.9 -36.25 -18.55 -37.05 -21.15 -37.65 -22.65 -41.9 L-21.1 -42.1 -16.35 -39.6 Q-13.25 -38.0 -11.65 -38.0 -11.05 -38.0 -10.95 -38.15 L-10.8 -38.45 Q-11.0 -39.2 -12.35 -40.2 -13.7 -41.25 -14.5 -43.4 L-13.4 -43.05 -12.75 -42.7 -11.65 -41.85 -10.9 -41.05 -8.7 -39.2 Q-8.3 -38.85 -7.75 -38.85 -7.15 -38.85 -7.15 -39.0 L-7.15 -39.3 -7.9 -40.6 Q-8.65 -41.8 -8.7 -43.25 -8.65 -44.4 -7.7 -44.0 -5.05 -42.25 0.2 -35.55 L5.85 -28.0 Q7.4 -26.15 14.65 -21.75 21.9 -17.4 22.5 -16.7 21.95 -16.3 21.95 -15.95 L18.4 -15.75 15.3 -15.7 Q13.75 -15.5 12.5 -14.75 12.75 -14.4 14.9 -14.05 L19.35 -13.3 24.7 -12.35 Q25.55 -12.15 25.55 -11.3 L25.35 -10.3 25.1 -10.05 19.55 -10.4 13.25 -10.8 12.8 -10.25 12.65 -9.85 Q13.75 -8.95 20.0 -7.35 24.6 -6.2 25.85 -2.05 L20.15 -1.9 Q19.55 -1.9 17.2 -2.65 L14.95 -3.4 14.35 -3.7 13.45 -3.8 12.65 -3.7 12.45 -3.4 10.3 -5.45 M6.85 -37.3 L8.95 -38.7 Q11.85 -32.95 12.95 -32.3 L15.45 -30.15 Q14.45 -31.2 13.45 -31.2 11.3 -31.2 9.7 -32.95 8.65 -34.05 6.85 -37.3 M4.4 -36.45 Q7.7 -31.7 9.0 -30.9 L15.05 -28.2 Q18.45 -26.75 19.3 -24.05 18.75 -23.25 17.0 -23.25 11.85 -23.25 7.45 -28.75 4.85 -32.0 -0.7 -39.9 -0.1 -41.2 0.7 -41.7 L4.4 -36.45 M15.8 -18.95 L15.65 -19.55 11.75 -21.65 Q9.7 -22.65 6.8 -24.7 2.6 -27.65 1.45 -29.85 0.4 -31.9 -2.85 -34.05 L-9.25 -36.4 -15.55 -38.35 -15.55 -38.05 -15.35 -37.6 Q-9.85 -34.55 -7.05 -34.4 -5.05 -34.3 -2.75 -32.45 L5.65 -24.95 Q13.0 -18.75 15.55 -18.75 16.55 -18.75 15.8 -18.95 M12.25 -26.35 Q14.0 -25.2 14.8 -25.2 15.8 -25.2 15.7 -25.75 L14.45 -26.65 9.7 -28.7 Q10.35 -27.6 12.25 -26.35 M1.15 -32.5 L1.15 -32.7 Q0.65 -33.85 -2.6 -37.1 L-6.25 -40.4 -6.4 -39.75 -6.35 -39.45 Q-5.0 -37.4 -2.9 -35.15 -0.3 -32.35 0.85 -32.35 1.85 -32.35 1.15 -32.5 M11.2 -11.65 L19.6 -11.6 Q17.7 -13.5 11.05 -12.95 L11.2 -11.65 M13.75 3.2 L13.95 2.65 Q13.7 1.4 12.55 0.55 12.0 0.15 10.45 -0.5 10.45 1.3 13.5 3.25 L13.75 3.2 M-33.2 -30.15 L-35.05 -30.65 Q-34.65 -29.9 -33.55 -29.25 -32.25 -28.5 -30.8 -28.5 -29.8 -28.5 -29.2 -29.1 -31.6 -29.45 -33.2 -30.15" fill="#ebe8e0" fill-rule="evenodd" stroke="none"/>
    <path d="M9.9 -3.65 L10.3 -5.45 12.45 -3.4 13.25 -2.95 Q20.55 1.25 20.6 2.0 15.35 0.3 13.45 -0.75 12.3 -1.45 9.9 -3.65 M10.7 -7.1 L11.05 -8.85 13.55 -7.75 Q16.1 -6.65 16.45 -6.8 23.25 -4.45 23.35 -3.55 L16.65 -4.35 Q13.05 -5.2 10.7 -7.1 M5.5 -19.85 L3.25 -21.5 Q-1.1 -25.85 -3.2 -27.15 -7.05 -29.45 -11.9 -28.9 -14.5 -28.6 -19.5 -32.8 -24.6 -37.1 -26.35 -37.1 L-26.55 -37.65 Q-26.95 -37.85 -25.95 -37.85 -23.75 -37.85 -20.1 -34.75 L-16.1 -31.2 Q-14.6 -30.5 -12.0 -30.45 L-9.1 -30.6 Q-4.8 -30.6 1.6 -25.3 8.55 -19.5 12.55 -18.7 L12.7 -17.85 12.05 -17.4 11.1 -17.3 Q10.1 -17.3 5.5 -19.85 M-15.0 -27.15 L-18.8 -27.15 -29.5 -31.1 Q-34.3 -32.9 -35.0 -33.65 L-32.05 -33.4 -29.9 -32.45 Q-28.35 -31.5 -26.05 -31.2 -22.9 -30.8 -15.0 -27.15 M1.15 -32.5 Q1.85 -32.35 0.85 -32.35 -0.3 -32.35 -2.9 -35.15 -5.0 -37.4 -6.35 -39.45 L-6.4 -39.75 -6.25 -40.4 -2.6 -37.1 Q0.65 -33.85 1.15 -32.7 L1.15 -32.5 M12.25 -26.35 Q10.35 -27.6 9.7 -28.7 L14.45 -26.65 15.7 -25.75 Q15.8 -25.2 14.8 -25.2 14.0 -25.2 12.25 -26.35 M15.8 -18.95 Q16.55 -18.75 15.55 -18.75 13.0 -18.75 5.65 -24.95 L-2.75 -32.45 Q-5.05 -34.3 -7.05 -34.4 -9.85 -34.55 -15.35 -37.6 L-15.55 -38.05 -15.55 -38.35 -9.25 -36.4 -2.85 -34.05 Q0.4 -31.9 1.45 -29.85 2.6 -27.65 6.8 -24.7 9.7 -22.65 11.75 -21.65 L15.65 -19.55 15.8 -18.95 M11.2 -11.65 L11.05 -12.95 Q17.7 -13.5 19.6 -11.6 L11.2 -11.65 M-33.2 -30.15 Q-31.6 -29.45 -29.2 -29.1 -29.8 -28.5 -30.8 -28.5 -32.25 -28.5 -33.55 -29.25 -34.65 -29.9 -35.05 -30.65 L-33.2 -30.15 M13.75 3.2 L13.5 3.25 Q10.45 1.3 10.45 -0.5 12.0 0.15 12.55 0.55 13.7 1.4 13.95 2.65 L13.75 3.2" fill="#ffffff" fill-rule="evenodd" stroke="none"/>
    <path d="M21.6 13.55 Q20.65 12.25 19.55 9.4 18.8 7.45 17.3 6.65 L11.65 5.7 Q8.0 4.5 9.25 -0.9 9.45 -1.65 10.25 -1.65 L10.35 -1.45 9.4 1.25 Q9.45 2.45 10.4 3.2 11.6 4.25 13.95 4.65 16.55 5.05 18.05 6.1 19.3 6.95 20.85 8.95 22.25 10.75 23.0 11.15 L23.3 10.05 Q23.2 9.45 21.85 8.05 L20.35 6.65 21.2 6.7 13.8 1.15 Q13.85 0.45 14.3 0.3 L22.3 4.75 24.65 4.15 Q21.1 0.25 17.55 -1.4 14.2 -2.45 13.25 -2.95 L12.45 -3.4 12.65 -3.7 13.45 -3.8 14.35 -3.7 14.95 -3.4 17.2 -2.65 Q19.55 -1.9 20.15 -1.9 L25.85 -2.05 Q24.6 -6.2 20.0 -7.35 13.75 -8.95 12.65 -9.85 L12.8 -10.25 13.25 -10.8 19.55 -10.4 25.1 -10.05 25.35 -10.3 25.55 -11.3 Q25.55 -12.15 24.7 -12.35 L19.35 -13.3 14.9 -14.05 Q12.75 -14.4 12.5 -14.75 13.75 -15.5 15.3 -15.7 L18.4 -15.75 21.95 -15.95 Q21.95 -16.3 22.5 -16.7 21.9 -17.4 14.65 -21.75 7.4 -26.15 5.85 -28.0 L0.2 -35.55 Q-5.05 -42.25 -7.7 -44.0 -8.65 -44.4 -8.7 -43.25 -8.65 -41.8 -7.9 -40.6 L-7.15 -39.3 -7.15 -39.0 Q-7.15 -38.85 -7.75 -38.85 -8.3 -38.85 -8.7 -39.2 L-10.9 -41.05 -11.65 -41.85 -10.45 -41.9 -10.4 -42.15 -12.05 -44.5 -8.75 -46.25 Q-5.05 -43.4 -3.85 -41.4 -3.15 -40.3 -1.95 -40.05 L-1.75 -40.4 Q-2.0 -41.7 -3.0 -43.35 -2.15 -43.65 -2.15 -43.95 L-0.35 -44.15 Q1.3 -44.15 3.4 -41.15 L5.55 -37.65 Q5.95 -37.75 6.05 -40.25 L8.95 -40.35 Q9.9 -40.35 10.9 -37.2 11.95 -33.7 12.95 -33.05 L13.3 -35.3 14.0 -34.75 16.0 -32.2 Q17.3 -31.2 17.3 -30.2 17.3 -29.55 16.85 -29.3 L16.35 -29.2 Q16.5 -28.7 17.05 -28.5 L19.3 -28.05 Q20.85 -27.8 21.65 -26.3 L22.65 -23.2 Q22.6 -22.75 19.75 -22.4 L16.85 -21.95 Q17.05 -21.5 18.15 -21.0 19.65 -20.35 21.6 -20.35 23.1 -20.35 24.25 -18.9 25.05 -17.9 25.45 -16.55 25.4 -15.75 24.8 -15.35 L24.2 -15.1 22.8 -14.85 Q22.25 -14.75 22.25 -14.15 L22.35 -13.85 22.85 -13.3 26.25 -13.3 26.5 -9.9 26.4 -8.4 21.55 -8.2 20.85 -7.9 Q21.35 -7.35 23.7 -6.65 L26.75 -6.0 26.95 -3.4 26.8 -0.9 21.85 -0.8 Q22.75 0.3 25.5 1.2 L26.35 1.2 26.55 4.2 26.25 5.3 24.95 7.3 Q23.15 6.1 22.6 6.1 L21.75 6.3 21.6 6.75 24.15 8.95 Q24.55 9.45 24.55 10.25 24.55 12.0 24.05 12.45 L21.6 13.55 M-27.4 -26.55 Q-31.3 -26.3 -37.0 -28.1 L-42.85 -29.95 Q-43.8 -29.95 -45.95 -29.15 L-46.15 -29.85 -46.25 -30.7 Q-46.25 -31.65 -45.7 -32.75 -44.9 -34.4 -43.5 -34.4 L-41.9 -33.8 Q-40.85 -33.25 -40.35 -33.25 -39.7 -33.25 -39.4 -33.6 L-39.25 -34.0 -41.45 -36.4 Q-41.15 -37.6 -39.0 -38.3 L-36.75 -38.8 Q-36.1 -38.8 -35.5 -38.2 L-35.05 -37.65 -33.55 -36.85 -32.7 -36.7 -31.7 -36.85 Q-31.45 -37.05 -31.4 -37.5 -31.75 -38.7 -34.75 -40.05 -33.8 -42.5 -32.8 -42.5 -28.7 -42.5 -27.0 -41.0 -26.1 -40.25 -24.25 -41.5 L-26.35 -43.4 Q-23.85 -45.25 -22.85 -45.25 -21.95 -45.25 -19.7 -42.85 -17.55 -40.6 -15.0 -41.05 -15.2 -42.55 -18.4 -44.5 L-16.7 -46.3 -13.65 -43.75 -12.75 -42.7 -13.4 -43.05 -14.5 -43.4 Q-13.7 -41.25 -12.35 -40.2 -11.0 -39.2 -10.8 -38.45 L-10.95 -38.15 Q-11.05 -38.0 -11.65 -38.0 -13.25 -38.0 -16.35 -39.6 L-21.1 -42.1 -22.65 -41.9 Q-21.15 -37.65 -18.55 -37.05 -14.9 -36.25 -12.2 -33.1 L-12.05 -32.75 -12.05 -32.65 -12.85 -32.55 Q-14.8 -32.55 -18.5 -34.8 -24.0 -38.15 -30.35 -40.55 L-31.35 -39.95 Q-30.75 -38.25 -27.3 -36.05 -24.05 -33.95 -23.95 -32.95 L-24.45 -32.8 -25.7 -32.7 -30.55 -34.2 Q-35.8 -35.9 -37.75 -37.05 -38.8 -37.4 -38.8 -36.4 L-35.05 -32.75 -40.9 -32.45 -41.05 -31.45 Q-33.3 -27.6 -29.6 -27.6 L-27.45 -27.4 -27.4 -26.55 M6.85 -37.3 Q8.65 -34.05 9.7 -32.95 11.3 -31.2 13.45 -31.2 14.45 -31.2 15.45 -30.15 L12.95 -32.3 Q11.85 -32.95 8.95 -38.7 L6.85 -37.3 M4.4 -36.45 L0.7 -41.7 Q-0.1 -41.2 -0.7 -39.9 4.85 -32.0 7.45 -28.75 11.85 -23.25 17.0 -23.25 18.75 -23.25 19.3 -24.05 18.45 -26.75 15.05 -28.2 L9.0 -30.9 Q7.7 -31.7 4.4 -36.45" fill="#cbc8c0" fill-rule="evenodd" stroke="none"/>
    <path d="M-45.95 -29.15 L-46.2 -28.0 Q-47.5 -28.4 -47.8 -29.05 -48.1 -29.65 -48.1 -31.8 -48.1 -33.75 -46.55 -34.5 -43.65 -35.85 -43.5 -35.95 L-42.45 -37.9 Q-41.4 -39.55 -39.9 -39.85 -36.3 -40.6 -35.35 -42.7 -34.6 -44.3 -30.5 -44.1 -29.6 -44.05 -26.3 -45.4 L-22.65 -46.75 -21.15 -46.3 -19.65 -45.9 Q-19.15 -45.9 -18.45 -46.95 -17.75 -48.0 -17.25 -48.0 -16.75 -48.0 -15.0 -46.85 -13.3 -45.75 -12.8 -45.75 -11.45 -45.75 -10.4 -46.65 -9.25 -47.7 -7.9 -47.9 L-4.15 -45.15 -0.8 -46.3 Q0.55 -46.3 1.55 -45.55 2.8 -44.45 3.8 -43.8 L6.4 -43.05 10.05 -41.75 11.15 -40.7 Q11.85 -39.4 13.5 -37.5 L15.9 -35.85 Q17.95 -34.15 19.6 -30.5 19.85 -29.95 21.55 -28.75 23.15 -27.55 23.9 -25.7 L24.25 -23.25 Q24.35 -21.5 24.75 -20.8 L26.9 -16.2 Q28.4 -11.6 28.4 -4.75 L28.0 -2.2 27.55 0.25 27.8 1.65 28.05 3.15 Q24.35 14.65 24.0 14.65 L21.45 14.4 21.6 13.55 24.05 12.45 Q24.55 12.0 24.55 10.25 24.55 9.45 24.15 8.95 L21.6 6.75 21.75 6.3 22.6 6.1 Q23.15 6.1 24.95 7.3 L26.25 5.3 26.55 4.2 26.35 1.2 25.5 1.2 Q22.75 0.3 21.85 -0.8 L26.8 -0.9 26.95 -3.4 26.75 -6.0 23.7 -6.65 Q21.35 -7.35 20.85 -7.9 L21.55 -8.2 26.4 -8.4 26.5 -9.9 26.25 -13.3 22.85 -13.3 22.35 -13.85 22.25 -14.15 Q22.25 -14.75 22.8 -14.85 L24.2 -15.1 24.8 -15.35 Q25.4 -15.75 25.45 -16.55 25.05 -17.9 24.25 -18.9 23.1 -20.35 21.6 -20.35 19.65 -20.35 18.15 -21.0 17.05 -21.5 16.85 -21.95 L19.75 -22.4 Q22.6 -22.75 22.65 -23.2 L21.65 -26.3 Q20.85 -27.8 19.3 -28.05 L17.05 -28.5 Q16.5 -28.7 16.35 -29.2 L16.85 -29.3 Q17.3 -29.55 17.3 -30.2 17.3 -31.2 16.0 -32.2 L14.0 -34.75 13.3 -35.3 12.95 -33.05 Q11.95 -33.7 10.9 -37.2 9.9 -40.35 8.95 -40.35 L6.05 -40.25 Q5.95 -37.75 5.55 -37.65 L3.4 -41.15 Q1.3 -44.15 -0.35 -44.15 L-2.15 -43.95 Q-2.15 -43.65 -3.0 -43.35 -2.0 -41.7 -1.75 -40.4 L-1.95 -40.05 Q-3.15 -40.3 -3.85 -41.4 -5.05 -43.4 -8.75 -46.25 L-12.05 -44.5 -10.4 -42.15 -10.45 -41.9 -11.65 -41.85 -12.75 -42.7 -13.65 -43.75 -16.7 -46.3 -18.4 -44.5 Q-15.2 -42.55 -15.0 -41.05 -17.55 -40.6 -19.7 -42.85 -21.95 -45.25 -22.85 -45.25 -23.85 -45.25 -26.35 -43.4 L-24.25 -41.5 Q-26.1 -40.25 -27.0 -41.0 -28.7 -42.5 -32.8 -42.5 -33.8 -42.5 -34.75 -40.05 -31.75 -38.7 -31.4 -37.5 -31.45 -37.05 -31.7 -36.85 L-32.7 -36.7 -33.55 -36.85 -35.05 -37.65 -35.5 -38.2 Q-36.1 -38.8 -36.75 -38.8 L-39.0 -38.3 Q-41.15 -37.6 -41.45 -36.4 L-39.25 -34.0 -39.4 -33.6 Q-39.7 -33.25 -40.35 -33.25 -40.85 -33.25 -41.9 -33.8 L-43.5 -34.4 Q-44.9 -34.4 -45.7 -32.75 -46.25 -31.65 -46.25 -30.7 L-46.15 -29.85 -45.95 -29.15" fill="#97877d" fill-rule="evenodd" stroke="none"/>
  </g>
</svg>
