<?xml version="1.0" encoding="UTF-8" standalone="no"?>
<svg xmlns:ffdec="https://www.free-decompiler.com/flash" xmlns:xlink="http://www.w3.org/1999/xlink" ffdec:objectType="shape" height="80.9px" width="91.15px" xmlns="http://www.w3.org/2000/svg">
  <g transform="matrix(1.0, 0.0, 0.0, 1.0, 36.55, 52.5)">
    <path d="M21.0 -43.2 L21.2 -41.8 21.2 -41.75 Q20.9 -40.7 20.25 -40.1 19.65 -39.55 18.75 -39.35 L18.1 -40.15 18.35 -40.45 19.95 -42.1 21.0 -43.2 M36.85 -37.9 L39.85 -37.6 39.35 -37.0 36.75 -35.1 Q36.0 -35.55 35.85 -36.25 L36.85 -37.9 M30.4 -39.1 L31.5 -37.55 32.2 -35.85 31.1 -35.85 26.15 -35.45 22.3 -35.0 19.6 -35.4 19.15 -35.6 Q18.65 -35.8 18.2 -36.1 17.35 -36.65 16.8 -37.4 L21.75 -37.6 Q23.85 -37.6 24.55 -38.8 L24.6 -38.85 Q25.15 -39.75 26.8 -39.95 L27.85 -40.0 Q29.4 -40.0 30.4 -39.1 M6.85 -28.55 L6.45 -27.6 3.7 -22.9 Q2.45 -21.15 0.55 -20.2 L0.75 -21.6 Q1.15 -22.75 3.5 -25.45 5.9 -28.2 6.85 -28.55 M1.75 -32.05 L4.35 -33.3 6.6 -31.85 2.95 -30.75 0.4 -30.1 -5.4 -30.55 Q-6.45 -30.6 -8.0 -29.05 L-10.3 -25.55 Q-12.4 -22.55 -14.55 -21.75 -13.0 -24.65 -11.6 -30.05 -10.8 -32.0 -9.1 -32.95 -7.3 -34.05 -4.55 -34.05 L-4.1 -33.9 -2.1 -33.3 1.75 -32.05 M4.85 -44.35 L4.15 -43.85 3.2 -42.5 2.1 -40.3 Q1.65 -39.0 1.9 -37.9 2.15 -36.45 3.45 -35.35 L3.1 -34.9 2.7 -34.75 Q1.8 -34.8 -1.2 -35.7 -3.35 -36.35 -4.45 -36.85 -5.05 -37.1 -5.35 -37.35 L-3.3 -39.0 -1.4 -40.6 0.45 -41.95 Q2.95 -43.7 4.85 -44.35 M16.05 -44.1 L16.8 -43.85 16.9 -43.5 16.95 -40.95 16.95 -40.65 Q16.8 -38.4 14.6 -37.35 L14.1 -37.15 Q12.0 -36.4 5.4 -34.95 L5.75 -35.25 9.25 -37.95 11.05 -39.45 12.95 -41.05 15.0 -42.85 16.05 -44.1 M34.6 -27.05 L35.3 -27.2 Q36.2 -26.8 36.85 -25.65 37.5 -24.5 37.2 -23.85 36.2 -23.95 35.45 -25.2 L34.6 -27.05 M36.35 -31.95 L35.85 -31.8 34.75 -32.05 Q34.35 -32.35 33.95 -33.5 L35.2 -34.8 35.25 -34.75 38.85 -33.2 38.05 -32.75 36.35 -31.95 M27.85 -29.6 Q28.3 -28.8 28.3 -28.0 L27.7 -21.75 27.75 -21.3 28.75 -19.95 30.45 -19.05 29.9 -18.95 29.45 -18.9 Q27.85 -18.95 26.75 -20.6 25.8 -22.05 25.8 -23.3 L25.85 -23.6 26.2 -26.75 Q26.15 -30.3 23.95 -31.5 L25.35 -31.3 Q27.1 -31.0 27.85 -29.6 M15.3 -31.75 L15.55 -31.35 Q16.6 -29.4 16.6 -27.9 16.6 -27.5 13.3 -25.25 9.95 -22.9 8.7 -22.65 L11.45 -26.35 Q12.1 -27.15 12.1 -28.8 L11.6 -30.25 Q11.1 -31.5 10.8 -33.1 L10.55 -34.3 Q13.5 -34.8 15.3 -31.75 M31.8 3.5 L26.1 3.1 Q19.0 3.1 16.45 5.65 15.25 6.85 14.1 11.25 13.05 15.1 10.4 16.8 6.4 19.35 -3.15 19.35 L-4.75 19.0 0.2 15.55 5.85 11.85 Q5.7 11.6 4.6 11.4 L2.75 11.25 Q-5.95 11.25 -8.45 12.15 -9.95 12.7 -12.05 14.15 -12.25 14.4 -12.25 13.4 -12.25 11.75 -9.75 9.9 L-7.0 7.9 Q-7.3 7.45 -7.05 6.95 -7.4 6.75 -11.75 7.0 -4.9 5.45 -3.55 4.05 -3.9 3.7 -3.7 3.15 -3.6 2.7 -4.25 2.55 -5.9 2.2 -20.3 2.4 -18.35 0.55 -15.25 -0.6 L-11.7 -1.75 -11.5 -1.9 Q-12.35 -2.7 -13.5 -3.05 -15.75 -3.8 -20.05 -3.75 -18.3 -5.7 -12.95 -8.1 -5.9 -11.25 0.5 -11.15 0.9 -5.35 1.15 -4.8 2.1 -3.0 6.9 -3.0 10.5 -3.0 15.25 -9.1 20.05 -15.25 21.2 -15.25 22.45 -15.25 24.6 -13.7 27.9 -11.3 29.65 -10.4 29.65 -9.15 29.95 -7.9 L31.2 -2.65 31.85 1.35 31.95 3.25 31.8 3.5 M26.0 -1.45 L25.5 -1.5 Q22.75 -1.5 19.2 -0.1 15.7 1.35 14.85 2.75 L14.9 3.15 Q22.65 1.7 25.75 -1.25 L26.0 -1.45 M26.15 -4.65 L25.7 -5.4 25.25 -7.0 Q22.0 -6.4 14.15 -0.85 5.95 4.95 2.9 5.85 3.1 6.5 4.35 6.5 8.4 6.5 14.95 1.65 21.85 -3.4 25.5 -3.85 L26.15 -4.65 M18.45 23.25 L18.35 24.0 16.75 25.2 18.4 23.45 18.45 23.25 M5.0 15.95 L5.2 16.45 6.15 16.65 Q7.85 16.65 8.95 15.25 10.35 13.4 10.0 9.75 L7.35 12.55 5.0 15.95 M-25.0 -25.1 Q-25.2 -26.35 -23.75 -27.65 -22.4 -28.9 -21.05 -29.05 L-22.0 -27.75 Q-24.0 -25.6 -25.0 -25.1 M-17.3 -29.7 L-16.3 -28.7 Q-15.8 -28.05 -15.8 -27.6 -15.8 -26.0 -16.6 -25.2 L-18.75 -23.1 Q-19.05 -24.45 -19.2 -24.45 L-19.3 -27.35 -19.3 -27.6 -19.1 -29.2 -18.7 -30.4 -17.3 -29.7 M-6.2 -44.9 L-6.15 -44.7 Q-6.55 -41.5 -7.15 -39.3 L-7.95 -37.1 Q-8.5 -36.05 -9.1 -35.35 L-9.85 -34.75 -12.55 -33.65 -13.8 -32.9 -16.85 -30.5 -17.05 -30.65 -17.05 -30.85 -15.8 -33.7 Q-11.8 -42.3 -6.2 -44.9 M-1.7 -2.2 L-4.1 -2.65 -6.5 -2.2 Q-7.5 -1.8 -7.5 -1.2 -7.5 -0.6 -6.5 -0.15 L-4.1 0.25 -1.7 -0.15 Q-0.7 -0.6 -0.7 -1.2 -0.7 -1.8 -1.7 -2.2" fill="#ffffff" fill-rule="evenodd" stroke="none"/>
    <path d="M-24.0 -13.25 L-23.8 -13.25 -12.0 -12.3 Q-11.45 -12.3 -9.9 -13.0 L-8.3 -13.75 Q-8.05 -13.75 -7.25 -13.2 -6.45 -12.65 -5.1 -12.65 -3.2 -12.65 -2.2 -13.3 L-1.0 -14.0 0.8 -13.55 3.25 -13.05 3.25 -9.9 Q3.4 -7.4 4.75 -7.4 7.9 -7.4 10.15 -9.15 11.45 -10.15 13.45 -12.95 17.4 -18.55 22.25 -18.55 L24.0 -17.7 30.4 -14.3 30.5 -14.55 Q29.65 -11.3 29.65 -10.4 27.9 -11.3 24.6 -13.7 22.45 -15.25 21.2 -15.25 20.05 -15.25 15.25 -9.1 10.5 -3.0 6.9 -3.0 2.1 -3.0 1.15 -4.8 0.9 -5.35 0.5 -11.15 -5.9 -11.25 -12.95 -8.1 -18.3 -5.7 -20.05 -3.75 -15.75 -3.8 -13.5 -3.05 -12.35 -2.7 -11.5 -1.9 L-11.7 -1.75 -15.25 -0.6 Q-18.35 0.55 -20.3 2.4 -5.9 2.2 -4.25 2.55 -3.6 2.7 -3.7 3.15 -3.9 3.7 -3.55 4.05 -4.9 5.45 -11.75 7.0 -7.4 6.75 -7.05 6.95 -7.3 7.45 -7.0 7.9 L-9.75 9.9 Q-12.25 11.75 -12.25 13.4 -12.25 14.4 -12.05 14.15 -9.95 12.7 -8.45 12.15 -5.95 11.25 2.75 11.25 L4.6 11.4 Q5.7 11.6 5.85 11.85 L0.2 15.55 -4.75 19.0 -3.15 19.35 Q6.4 19.35 10.4 16.8 13.05 15.1 14.1 11.25 15.25 6.85 16.45 5.65 19.0 3.1 26.1 3.1 L31.8 3.5 Q26.7 3.5 23.1 6.55 19.5 9.6 19.5 13.9 16.75 18.0 16.6 22.6 15.55 25.15 5.9 25.15 L0.75 25.0 Q7.8 24.8 12.3 21.4 16.8 18.0 16.85 12.85 L16.6 12.65 Q15.15 17.65 12.4 19.85 7.6 23.65 -7.85 23.65 -8.6 23.65 -9.9 22.05 L-11.75 19.75 -17.4 20.1 Q-18.25 20.1 -18.95 18.7 L-19.5 16.95 Q-19.5 13.85 -17.15 11.85 L-14.75 9.7 -14.9 9.4 -18.45 11.45 Q-21.35 13.1 -22.85 13.15 L-23.0 12.1 Q-23.0 9.65 -22.1 8.55 -21.45 7.7 -19.5 6.9 L-18.35 6.25 Q-19.4 6.3 -21.55 7.5 -23.55 8.6 -25.4 10.05 L-26.45 9.3 -26.9 8.8 -25.05 4.75 -27.05 4.7 Q-28.25 4.3 -28.25 3.45 L-24.05 -5.05 -28.95 -5.6 -28.9 -6.05 Q-28.9 -9.05 -27.45 -11.15 -26.05 -13.25 -24.0 -13.25 M-19.3 -18.05 L-20.75 -17.7 -16.95 -21.75 Q-15.45 -23.45 -15.25 -24.25 -15.3 -25.35 -16.0 -24.25 L-17.75 -21.8 Q-18.5 -20.95 -19.7 -20.7 L-19.75 -20.8 -20.8 -26.35 Q-23.25 -24.1 -25.2 -23.0 L-27.05 -22.25 -27.85 -23.35 -28.65 -24.35 Q-26.5 -25.7 -24.95 -28.55 -23.5 -31.1 -23.65 -32.4 L-21.65 -29.95 -21.6 -30.05 Q-20.15 -31.25 -19.2 -33.65 -18.2 -36.25 -18.75 -37.7 -12.45 -40.85 -9.85 -43.7 -8.05 -45.7 -7.6 -45.7 -6.0 -45.7 -4.25 -43.3 L-2.7 -41.05 -2.4 -40.75 -1.9 -41.35 Q-0.05 -43.35 2.0 -44.6 4.35 -46.0 6.4 -46.0 7.4 -46.0 6.85 -45.55 L7.1 -44.25 6.65 -42.95 Q6.1 -41.7 5.15 -40.75 L4.0 -39.9 6.25 -39.7 Q7.1 -39.7 9.25 -40.45 L10.8 -41.1 Q12.45 -41.95 13.25 -43.0 L13.85 -44.25 Q14.35 -45.95 16.85 -45.95 L17.85 -45.4 Q19.15 -44.85 20.7 -44.85 L22.65 -44.9 Q22.3 -43.55 22.4 -41.5 L22.6 -39.5 22.6 -39.25 22.85 -39.45 24.15 -40.45 24.6 -40.8 26.6 -42.15 30.9 -41.15 30.6 -41.4 29.1 -42.5 29.15 -42.55 31.6 -41.0 31.0 -41.8 30.4 -42.95 30.5 -42.85 Q31.65 -41.7 32.15 -40.35 L31.85 -40.45 Q31.65 -39.7 32.1 -38.25 32.65 -36.4 33.95 -36.2 33.95 -38.0 34.65 -38.9 35.15 -39.5 35.7 -39.5 L40.0 -38.9 Q40.9 -38.45 41.3 -37.4 L38.8 -34.9 42.5 -33.15 40.6 -30.25 39.7 -28.55 39.45 -28.0 39.55 -28.15 39.9 -28.3 40.65 -28.65 41.8 -28.95 42.1 -29.0 44.55 -28.7 Q45.35 -28.4 45.35 -27.45 45.35 -25.55 44.45 -23.2 L43.55 -20.7 Q43.55 -19.8 44.0 -18.65 L41.35 -21.6 41.8 -23.95 Q41.8 -24.85 41.4 -25.45 40.4 -26.95 37.3 -27.35 37.9 -26.55 38.5 -24.7 L39.05 -22.55 39.05 -22.5 38.35 -19.75 Q37.65 -20.35 36.75 -20.8 L34.75 -21.55 Q34.35 -23.3 33.9 -26.55 L33.4 -29.95 Q32.5 -34.45 30.3 -34.45 L25.4 -34.2 24.4 -33.2 24.25 -33.1 24.6 -33.1 Q26.7 -33.25 28.8 -31.6 30.55 -30.2 30.7 -29.25 L30.7 -29.1 30.25 -25.9 29.85 -22.75 Q29.85 -19.6 32.2 -17.75 32.85 -17.2 33.7 -16.8 L35.95 -12.4 Q35.8 -11.5 35.15 -10.75 34.6 -12.6 30.95 -15.7 L29.35 -17.0 Q24.3 -21.05 23.75 -23.15 L24.15 -24.8 24.25 -25.25 24.4 -26.4 Q24.4 -29.75 21.5 -32.55 19.1 -34.85 16.85 -35.3 L15.8 -35.05 15.55 -34.85 18.4 -31.95 Q19.25 -31.15 19.45 -29.15 L19.5 -27.9 Q19.5 -26.25 17.85 -25.05 16.3 -23.9 13.05 -22.9 8.85 -21.55 8.6 -18.1 L9.2 -11.45 7.85 -10.35 6.45 -9.65 5.9 -9.45 6.7 -11.0 Q7.2 -12.0 7.2 -12.75 L6.85 -15.6 Q5.6 -21.5 8.0 -24.35 L9.85 -26.35 Q10.75 -27.5 10.75 -29.0 10.75 -30.0 10.55 -29.3 7.2 -27.95 4.35 -21.95 2.1 -17.2 -1.9 -18.2 L-5.85 -18.4 -5.7 -19.25 Q-2.05 -19.75 -0.85 -20.65 -0.15 -21.2 0.15 -22.75 1.0 -26.65 7.6 -30.05 L6.45 -30.5 5.4 -30.7 1.85 -28.7 Q0.55 -28.05 -0.3 -28.05 -4.7 -28.05 -6.5 -26.9 -7.55 -26.2 -8.6 -24.1 -10.9 -19.5 -19.3 -18.05 M34.45 -19.4 L35.0 -20.15 35.95 -20.9 36.25 -20.45 34.45 -19.4 M30.4 -39.1 Q29.4 -40.0 27.85 -40.0 L26.8 -39.95 Q25.15 -39.75 24.6 -38.85 L24.55 -38.8 Q23.85 -37.6 21.75 -37.6 L16.8 -37.4 Q17.35 -36.65 18.2 -36.1 18.65 -35.8 19.15 -35.6 L19.6 -35.4 22.3 -35.0 26.15 -35.45 31.1 -35.85 32.2 -35.85 31.5 -37.55 30.4 -39.1 M36.85 -37.9 L35.85 -36.25 Q36.0 -35.55 36.75 -35.1 L39.35 -37.0 39.85 -37.6 36.85 -37.9 M21.0 -43.2 L19.95 -42.1 18.35 -40.45 18.1 -40.15 18.75 -39.35 Q19.65 -39.55 20.25 -40.1 20.9 -40.7 21.2 -41.75 L21.2 -41.8 21.0 -43.2 M27.85 -29.6 Q27.1 -31.0 25.35 -31.3 L23.95 -31.5 Q26.15 -30.3 26.2 -26.75 L25.85 -23.6 25.8 -23.3 Q25.8 -22.05 26.75 -20.6 27.85 -18.95 29.45 -18.9 L29.9 -18.95 30.45 -19.05 28.75 -19.95 27.75 -21.3 27.7 -21.75 28.3 -28.0 Q28.3 -28.8 27.85 -29.6 M36.35 -31.95 L38.05 -32.75 38.85 -33.2 35.25 -34.75 35.2 -34.8 33.95 -33.5 Q34.35 -32.35 34.75 -32.05 L35.85 -31.8 36.35 -31.95 M34.6 -27.05 L35.45 -25.2 Q36.2 -23.95 37.2 -23.85 37.5 -24.5 36.85 -25.65 36.2 -26.8 35.3 -27.2 L34.6 -27.05 M16.05 -44.1 L15.0 -42.85 12.95 -41.05 11.05 -39.45 9.25 -37.95 5.75 -35.25 5.4 -34.95 Q12.0 -36.4 14.1 -37.15 L14.6 -37.35 Q16.8 -38.4 16.95 -40.65 L16.95 -40.95 16.9 -43.5 16.8 -43.85 16.05 -44.1 M4.85 -44.35 Q2.95 -43.7 0.45 -41.95 L-1.4 -40.6 -3.3 -39.0 -5.35 -37.35 Q-5.05 -37.1 -4.45 -36.85 -3.35 -36.35 -1.2 -35.7 1.8 -34.8 2.7 -34.75 L3.1 -34.9 3.45 -35.35 Q2.15 -36.45 1.9 -37.9 1.65 -39.0 2.1 -40.3 L3.2 -42.5 4.15 -43.85 4.85 -44.35 M1.75 -32.05 L-2.1 -33.3 -4.1 -33.9 -4.55 -34.05 Q-7.3 -34.05 -9.1 -32.95 -10.8 -32.0 -11.6 -30.05 -13.0 -24.65 -14.55 -21.75 -12.4 -22.55 -10.3 -25.55 L-8.0 -29.05 Q-6.45 -30.6 -5.4 -30.55 L0.4 -30.1 2.95 -30.75 6.6 -31.85 4.35 -33.3 1.75 -32.05 M6.85 -28.55 Q5.9 -28.2 3.5 -25.45 1.15 -22.75 0.75 -21.6 L0.55 -20.2 Q2.45 -21.15 3.7 -22.9 L6.45 -27.6 6.85 -28.55 M15.3 -31.75 Q13.5 -34.8 10.55 -34.3 L10.8 -33.1 Q11.1 -31.5 11.6 -30.25 L12.1 -28.8 Q12.1 -27.15 11.45 -26.35 L8.7 -22.65 Q9.95 -22.9 13.3 -25.25 16.6 -27.5 16.6 -27.9 16.6 -29.4 15.55 -31.35 L15.3 -31.75 M26.15 -4.65 L25.5 -3.85 Q21.85 -3.4 14.95 1.65 8.4 6.5 4.35 6.5 3.1 6.5 2.9 5.85 5.95 4.95 14.15 -0.85 22.0 -6.4 25.25 -7.0 L25.7 -5.4 26.15 -4.65 M26.0 -1.45 L25.75 -1.25 Q22.65 1.7 14.9 3.15 L14.85 2.75 Q15.7 1.35 19.2 -0.1 22.75 -1.5 25.5 -1.5 L26.0 -1.45 M45.6 -30.45 L46.55 -30.65 47.45 -30.7 Q48.7 -30.65 49.4 -29.95 50.05 -29.35 50.05 -28.35 50.05 -25.35 48.05 -23.45 L46.1 -22.0 46.35 -21.4 47.45 -19.15 46.85 -19.35 45.85 -20.65 Q45.2 -21.35 45.2 -22.35 48.25 -27.5 48.25 -28.1 48.25 -28.9 47.75 -29.4 47.15 -30.0 45.6 -30.45 M41.0 -40.9 L42.95 -39.35 Q43.8 -38.65 43.8 -38.15 L43.55 -37.05 43.3 -36.75 42.75 -37.1 41.8 -38.95 41.0 -40.9 M5.0 15.95 L7.35 12.55 10.0 9.75 Q10.35 13.4 8.95 15.25 7.85 16.65 6.15 16.65 L5.2 16.45 5.0 15.95 M-6.2 -44.9 Q-11.8 -42.3 -15.8 -33.7 L-17.05 -30.85 -17.05 -30.65 -16.85 -30.5 -13.8 -32.9 -12.55 -33.65 -9.85 -34.75 -9.1 -35.35 Q-8.5 -36.05 -7.95 -37.1 L-7.15 -39.3 Q-6.55 -41.5 -6.15 -44.7 L-6.2 -44.9 M-17.3 -29.7 L-18.7 -30.4 -19.1 -29.2 -19.3 -27.6 -19.3 -27.35 -19.2 -24.45 Q-19.05 -24.45 -18.75 -23.1 L-16.6 -25.2 Q-15.8 -26.0 -15.8 -27.6 -15.8 -28.05 -16.3 -28.7 L-17.3 -29.7 M-25.0 -25.1 Q-24.0 -25.6 -22.0 -27.75 L-21.05 -29.05 Q-22.4 -28.9 -23.75 -27.65 -25.2 -26.35 -25.0 -25.1 M-23.5 -9.0 Q-23.05 -8.55 -21.1 -8.55 L-18.25 -8.75 -17.55 -9.25 -18.9 -10.0 -22.2 -10.15 -22.3 -9.95 -22.85 -9.5 -23.5 -9.0 M-1.7 -2.2 Q-0.7 -1.8 -0.7 -1.2 -0.7 -0.6 -1.7 -0.15 L-4.1 0.25 -6.5 -0.15 Q-7.5 -0.6 -7.5 -1.2 -7.5 -1.8 -6.5 -2.2 L-4.1 -2.65 -1.7 -2.2" fill="#ebe8e0" fill-rule="evenodd" stroke="none"/>
    <path d="M-16.75 27.25 L-17.5 26.55 Q-22.8 21.25 -25.7 14.95 -24.9 13.8 -24.55 12.0 L-24.65 10.65 -26.0 12.9 -26.35 13.45 -27.55 14.95 -28.25 15.5 Q-28.45 14.45 -30.15 11.2 -31.45 8.7 -31.1 6.7 -30.75 4.55 -31.15 2.05 L-31.6 -0.7 Q-31.6 -2.1 -31.1 -2.8 L-30.8 -3.2 Q-30.0 -3.9 -30.0 -4.35 -30.0 -5.35 -30.2 -4.65 L-31.05 -4.3 -32.7 -3.35 -31.35 -9.65 -30.0 -11.5 -29.7 -11.9 -28.2 -13.55 -27.4 -15.0 -31.6 -10.75 Q-31.6 -13.95 -29.4 -16.0 L-28.3 -16.9 -25.4 -18.45 -24.0 -19.0 -24.35 -16.45 Q-24.35 -14.65 -24.0 -13.25 -26.05 -13.25 -27.45 -11.15 -28.9 -9.05 -28.9 -6.05 L-29.3 -5.65 -28.95 -5.6 -24.05 -5.05 -28.25 3.45 Q-28.25 4.3 -27.05 4.7 L-25.05 4.75 -26.9 8.8 -26.45 9.3 -25.4 10.05 Q-23.55 8.6 -21.55 7.5 -19.4 6.3 -18.35 6.25 L-19.5 6.9 Q-21.45 7.7 -22.1 8.55 -23.0 9.65 -23.0 12.1 L-22.85 13.15 Q-21.35 13.1 -18.45 11.45 L-14.9 9.4 -14.75 9.7 -17.15 11.85 Q-19.5 13.85 -19.5 16.95 L-18.95 18.7 Q-18.25 20.1 -17.4 20.1 L-11.75 19.75 -9.9 22.05 Q-8.6 23.65 -7.85 23.65 7.6 23.65 12.4 19.85 15.15 17.65 16.6 12.65 L16.85 12.85 Q16.8 18.0 12.3 21.4 7.8 24.8 0.75 25.0 L5.9 25.15 Q15.55 25.15 16.6 22.6 16.75 18.0 19.5 13.9 L19.55 13.9 19.3 14.75 19.2 15.2 19.15 15.4 18.75 18.5 18.5 22.35 18.45 23.25 18.4 23.45 16.75 25.2 Q15.5 25.9 13.9 26.3 L8.5 27.35 6.2 27.65 0.25 28.35 -7.15 28.4 -13.5 28.0 -16.75 27.25 M-23.8 -13.25 Q-23.55 -13.3 -23.4 -13.45 -23.1 -13.7 -23.1 -14.0 -22.15 -15.65 -20.95 -16.55 -20.15 -17.15 -19.7 -17.15 -15.0 -15.65 -13.95 -15.5 -12.5 -15.7 -9.65 -18.0 L-8.5 -18.9 Q-11.9 -16.4 -14.05 -16.4 L-15.2 -16.7 -19.3 -18.05 Q-10.9 -19.5 -8.6 -24.1 -7.55 -26.2 -6.5 -26.9 -4.7 -28.05 -0.3 -28.05 0.55 -28.05 1.85 -28.7 L5.4 -30.7 6.45 -30.5 7.6 -30.05 Q1.0 -26.65 0.15 -22.75 -0.15 -21.2 -0.85 -20.65 -2.05 -19.75 -5.7 -19.25 L-3.9 -21.1 Q-2.45 -22.8 -0.45 -25.95 L0.1 -27.0 -5.85 -21.15 -5.55 -21.4 Q-5.1 -21.6 -4.7 -21.85 L-6.1 -20.2 Q-6.9 -18.85 -6.9 -17.8 L-6.45 -15.9 -5.25 -17.5 Q-4.8 -18.1 -4.25 -18.4 -3.05 -17.2 -0.95 -16.35 L1.6 -15.7 5.15 -17.35 6.3 -12.85 4.1 -8.9 4.5 -8.7 5.7 -8.5 Q8.3 -8.5 9.05 -9.9 9.5 -10.75 10.0 -13.3 11.85 -19.05 23.2 -21.95 23.75 -19.8 28.6 -16.3 L30.6 -14.8 30.5 -14.55 30.4 -14.3 24.0 -17.7 22.25 -18.55 Q17.4 -18.55 13.45 -12.95 11.45 -10.15 10.15 -9.15 7.9 -7.4 4.75 -7.4 3.4 -7.4 3.25 -9.9 L3.25 -13.05 0.8 -13.55 -1.0 -14.0 -2.2 -13.3 Q-3.2 -12.65 -5.1 -12.65 -6.45 -12.65 -7.25 -13.2 -8.05 -13.75 -8.3 -13.75 L-9.9 -13.0 Q-11.45 -12.3 -12.0 -12.3 L-23.8 -13.25 M-20.75 -17.7 L-22.7 -16.1 -23.2 -15.65 Q-23.7 -15.2 -23.75 -15.35 -23.8 -16.7 -23.2 -17.65 L-21.55 -20.1 -20.7 -21.15 -24.8 -19.65 -27.65 -18.35 -30.0 -17.0 -32.05 -15.35 -33.3 -15.75 -34.25 -16.5 -34.85 -17.15 -28.25 -21.55 -27.45 -22.6 -33.85 -21.85 -29.25 -26.2 Q-25.85 -29.35 -25.85 -31.35 -25.85 -31.9 -26.15 -32.75 -26.7 -34.2 -27.8 -34.85 L-26.55 -35.45 -25.2 -35.75 Q-24.15 -35.75 -23.7 -34.45 -23.1 -32.75 -21.45 -31.8 L-21.3 -31.8 -21.25 -32.5 -21.65 -33.95 -22.6 -39.0 -18.35 -39.25 -13.7 -43.25 -7.65 -47.7 -5.65 -46.25 Q-3.45 -44.65 -2.1 -44.1 -1.6 -46.3 1.25 -47.4 3.65 -48.35 7.2 -48.35 8.3 -48.35 8.5 -47.65 L8.7 -45.05 9.55 -44.6 Q9.25 -46.25 18.4 -51.7 L18.6 -47.4 25.15 -48.4 25.4 -48.3 27.45 -47.3 Q25.15 -45.4 24.35 -44.15 23.9 -43.4 23.7 -42.25 24.75 -42.75 27.35 -45.2 L34.9 -42.85 Q33.25 -41.3 33.0 -40.45 L32.95 -39.65 32.95 -39.6 34.3 -41.1 Q35.35 -42.0 38.3 -42.0 L43.25 -41.45 43.55 -41.35 44.15 -40.9 44.7 -40.75 Q45.8 -40.0 45.8 -38.8 45.2 -35.8 43.6 -31.3 L45.85 -32.05 47.1 -32.6 Q49.0 -32.6 51.2 -30.9 53.75 -28.95 53.75 -26.6 L50.8 -24.05 Q47.85 -21.5 47.85 -19.0 L48.0 -17.4 48.3 -16.55 48.6 -16.1 46.45 -17.05 Q44.6 -18.05 44.0 -18.65 43.55 -19.8 43.55 -20.7 L44.45 -23.2 Q45.35 -25.55 45.35 -27.45 45.35 -28.4 44.55 -28.7 L42.1 -29.0 41.8 -28.95 40.65 -28.65 39.9 -28.3 39.55 -28.15 39.45 -28.0 39.7 -28.55 40.6 -30.25 42.5 -33.15 38.8 -34.9 41.3 -37.4 Q40.9 -38.45 40.0 -38.9 L35.7 -39.5 Q35.15 -39.5 34.65 -38.9 33.95 -38.0 33.95 -36.2 32.65 -36.4 32.1 -38.25 31.65 -39.7 31.85 -40.45 L32.15 -40.35 Q31.65 -41.7 30.5 -42.85 L30.4 -42.95 31.0 -41.8 31.6 -41.0 29.15 -42.55 29.1 -42.5 30.6 -41.4 30.9 -41.15 26.6 -42.15 24.6 -40.8 24.15 -40.45 22.85 -39.45 22.6 -39.25 22.6 -39.5 22.4 -41.5 Q22.3 -43.55 22.65 -44.9 L20.7 -44.85 Q19.15 -44.85 17.85 -45.4 L16.85 -45.95 Q14.35 -45.95 13.85 -44.25 L13.25 -43.0 Q12.45 -41.95 10.8 -41.1 L9.25 -40.45 Q7.1 -39.7 6.25 -39.7 L4.0 -39.9 5.15 -40.75 Q6.1 -41.7 6.65 -42.95 L7.1 -44.25 6.85 -45.55 Q7.4 -46.0 6.4 -46.0 4.35 -46.0 2.0 -44.6 -0.05 -43.35 -1.9 -41.35 L-2.4 -40.75 -2.7 -41.05 -4.25 -43.3 Q-6.0 -45.7 -7.6 -45.7 -8.05 -45.7 -9.85 -43.7 -12.45 -40.85 -18.75 -37.7 -18.2 -36.25 -19.2 -33.65 -20.15 -31.25 -21.6 -30.05 L-21.65 -29.95 -23.65 -32.4 Q-23.5 -31.1 -24.95 -28.55 -26.5 -25.7 -28.65 -24.35 L-27.85 -23.35 -27.05 -22.25 -25.2 -23.0 Q-23.25 -24.1 -20.8 -26.35 L-19.75 -20.8 -19.7 -20.7 Q-18.5 -20.95 -17.75 -21.8 L-16.0 -24.25 Q-15.3 -25.35 -15.25 -24.25 -15.45 -23.45 -16.95 -21.75 L-20.75 -17.7 M41.35 -21.6 L40.2 -24.65 40.1 -23.55 39.8 -21.7 Q39.55 -20.8 38.35 -19.75 L39.05 -22.5 39.05 -22.55 38.5 -24.7 Q37.9 -26.55 37.3 -27.35 40.4 -26.95 41.4 -25.45 41.8 -24.85 41.8 -23.95 L41.35 -21.6 M34.75 -21.55 Q33.5 -23.7 32.55 -23.3 L33.3 -18.7 33.7 -16.8 Q32.85 -17.2 32.2 -17.75 29.85 -19.6 29.85 -22.75 L30.25 -25.9 30.7 -29.1 30.7 -29.25 Q30.55 -30.2 28.8 -31.6 26.7 -33.25 24.6 -33.1 L24.25 -33.1 24.4 -33.2 25.4 -34.2 30.3 -34.45 Q32.5 -34.45 33.4 -29.95 L33.9 -26.55 Q34.35 -23.3 34.75 -21.55 M23.75 -23.15 L23.2 -28.4 23.05 -26.4 Q22.6 -23.75 21.2 -22.45 20.1 -21.45 16.95 -20.55 13.8 -19.65 12.35 -18.35 10.0 -16.2 9.2 -11.45 L8.6 -18.1 Q8.85 -21.55 13.05 -22.9 16.3 -23.9 17.85 -25.05 19.5 -26.25 19.5 -27.9 L19.45 -29.15 Q19.25 -31.15 18.4 -31.95 L15.55 -34.85 15.8 -35.05 16.85 -35.3 Q19.1 -34.85 21.5 -32.55 24.4 -29.75 24.4 -26.4 L24.25 -25.25 24.15 -24.8 23.75 -23.15 M6.85 -15.6 L5.4 -18.45 5.05 -19.3 Q3.8 -16.65 1.7 -16.65 L0.05 -17.25 Q-1.5 -17.85 -1.9 -18.2 2.1 -17.2 4.35 -21.95 7.2 -27.95 10.55 -29.3 10.75 -30.0 10.75 -29.0 10.75 -27.5 9.85 -26.35 L8.0 -24.35 Q5.6 -21.5 6.85 -15.6 M5.75 -19.6 L6.2 -21.55 6.25 -22.25 5.1 -19.35 Q5.75 -19.15 5.75 -19.6 M41.0 -40.9 L41.8 -38.95 42.75 -37.1 43.3 -36.75 43.55 -37.05 43.8 -38.15 Q43.8 -38.65 42.95 -39.35 L41.0 -40.9 M45.6 -30.45 Q47.15 -30.0 47.75 -29.4 48.25 -28.9 48.25 -28.1 48.25 -27.5 45.2 -22.35 45.2 -21.35 45.85 -20.65 L46.85 -19.35 47.45 -19.15 46.35 -21.4 46.1 -22.0 48.05 -23.45 Q50.05 -25.35 50.05 -28.35 50.05 -29.35 49.4 -29.95 48.7 -30.65 47.45 -30.7 L46.55 -30.65 45.6 -30.45 M-23.5 -9.0 L-22.85 -9.5 -22.3 -9.95 -22.2 -10.15 -18.9 -10.0 -17.55 -9.25 -18.25 -8.75 -21.1 -8.55 Q-23.05 -8.55 -23.5 -9.0" fill="#cbc8c0" fill-rule="evenodd" stroke="none"/>
    <path d="M-16.75 27.25 L-17.95 26.95 -20.9 25.85 Q-24.85 21.35 -27.25 16.3 L-28.45 16.6 Q-29.55 16.6 -30.45 12.0 -32.0 3.6 -33.95 -2.85 L-34.15 -3.6 -32.05 -8.65 -32.1 -10.05 Q-32.2 -12.2 -32.5 -13.1 -33.3 -15.55 -36.55 -18.15 -35.4 -18.15 -33.45 -18.9 -31.5 -19.7 -30.9 -20.3 L-31.8 -20.5 -33.4 -20.75 -34.3 -20.25 Q-34.65 -19.75 -35.0 -19.75 L-35.05 -19.9 -35.1 -19.7 -35.1 -20.3 Q-35.1 -22.7 -30.9 -26.3 -26.7 -29.9 -26.7 -31.25 -26.7 -33.7 -27.5 -33.8 L-29.4 -33.85 Q-28.45 -36.25 -25.65 -36.25 L-23.8 -36.0 Q-22.9 -35.9 -23.15 -36.4 L-23.0 -37.4 -23.4 -37.85 Q-23.75 -38.2 -23.75 -38.8 -23.75 -39.35 -22.05 -39.9 L-18.45 -40.6 -14.85 -43.15 -11.0 -46.5 Q-8.4 -48.65 -8.05 -48.65 L-2.6 -47.35 0.75 -48.3 5.4 -49.45 8.8 -49.2 Q10.9 -48.75 10.85 -48.45 10.8 -48.15 13.05 -49.95 L13.1 -50.0 13.5 -50.3 Q14.4 -51.05 15.45 -51.55 17.45 -52.5 19.8 -52.5 20.8 -52.5 20.15 -51.85 L19.15 -48.5 24.95 -49.3 28.65 -48.1 Q27.7 -47.25 28.2 -46.5 28.75 -45.8 36.0 -42.9 37.2 -43.5 39.4 -43.3 L44.65 -41.95 Q44.7 -42.45 45.9 -41.15 47.1 -39.8 47.1 -38.9 47.1 -38.05 46.25 -36.5 L45.45 -35.05 Q45.45 -34.1 46.9 -33.45 L50.0 -32.35 Q54.6 -30.65 54.6 -26.35 54.6 -25.35 51.7 -22.55 48.8 -19.7 48.8 -18.95 L49.2 -17.3 50.0 -15.2 49.7 -15.0 47.25 -15.4 Q44.75 -16.55 40.8 -20.6 L38.55 -17.75 36.25 -20.45 35.95 -20.9 35.0 -20.15 34.45 -19.4 Q34.15 -18.85 34.15 -18.25 34.15 -18.0 35.55 -16.65 37.0 -14.95 37.0 -12.75 37.0 -12.3 36.0 -11.05 L34.3 -9.2 34.3 -10.2 Q33.7 -12.25 30.6 -14.8 L28.6 -16.3 Q23.75 -19.8 23.2 -21.95 11.85 -19.05 10.0 -13.3 9.5 -10.75 9.05 -9.9 8.3 -8.5 5.7 -8.5 L4.5 -8.7 4.1 -8.9 6.3 -12.85 5.15 -17.35 1.6 -15.7 -0.95 -16.35 Q-3.05 -17.2 -4.25 -18.4 -4.8 -18.1 -5.25 -17.5 L-6.45 -15.9 -6.9 -17.8 Q-6.9 -18.85 -6.1 -20.2 L-4.7 -21.85 Q-5.1 -21.6 -5.55 -21.4 L-5.85 -21.15 0.1 -27.0 -0.45 -25.95 Q-2.45 -22.8 -3.9 -21.1 L-5.7 -19.25 -5.85 -18.4 -1.9 -18.2 Q-1.5 -17.85 0.05 -17.25 L1.7 -16.65 Q3.8 -16.65 5.05 -19.3 L5.4 -18.45 6.85 -15.6 7.2 -12.75 Q7.2 -12.0 6.7 -11.0 L5.9 -9.45 6.45 -9.65 7.85 -10.35 9.2 -11.45 Q10.0 -16.2 12.35 -18.35 13.8 -19.65 16.95 -20.55 20.1 -21.45 21.2 -22.45 22.6 -23.75 23.05 -26.4 L23.2 -28.4 23.75 -23.15 Q24.3 -21.05 29.35 -17.0 L30.95 -15.7 Q34.6 -12.6 35.15 -10.75 35.8 -11.5 35.95 -12.4 L33.7 -16.8 33.3 -18.7 32.55 -23.3 Q33.5 -23.7 34.75 -21.55 L36.75 -20.8 Q37.65 -20.35 38.35 -19.75 39.55 -20.8 39.8 -21.7 L40.1 -23.55 40.2 -24.65 41.35 -21.6 44.0 -18.65 Q44.6 -18.05 46.45 -17.05 L48.6 -16.1 48.3 -16.55 48.0 -17.4 47.85 -19.0 Q47.85 -21.5 50.8 -24.05 L53.75 -26.6 Q53.75 -28.95 51.2 -30.9 49.0 -32.6 47.1 -32.6 L45.85 -32.05 43.6 -31.3 Q45.2 -35.8 45.8 -38.8 45.8 -40.0 44.7 -40.75 L44.15 -40.9 43.55 -41.35 43.25 -41.45 38.3 -42.0 Q35.35 -42.0 34.3 -41.1 L32.95 -39.6 32.95 -39.65 33.0 -40.45 Q33.25 -41.3 34.9 -42.85 L27.35 -45.2 Q24.75 -42.75 23.7 -42.25 23.9 -43.4 24.35 -44.15 25.15 -45.4 27.45 -47.3 L25.4 -48.3 25.15 -48.4 18.6 -47.4 18.4 -51.7 Q9.25 -46.25 9.55 -44.6 L8.7 -45.05 8.5 -47.65 Q8.3 -48.35 7.2 -48.35 3.65 -48.35 1.25 -47.4 -1.6 -46.3 -2.1 -44.1 -3.45 -44.65 -5.65 -46.25 L-7.65 -47.7 -13.7 -43.25 -18.35 -39.25 -22.6 -39.0 -21.65 -33.95 -21.25 -32.5 -21.3 -31.8 -21.45 -31.8 Q-23.1 -32.75 -23.7 -34.45 -24.15 -35.75 -25.2 -35.75 L-26.55 -35.45 -27.8 -34.85 Q-26.7 -34.2 -26.15 -32.75 -25.85 -31.9 -25.85 -31.35 -25.85 -29.35 -29.25 -26.2 L-33.85 -21.85 -27.45 -22.6 -28.25 -21.55 -34.85 -17.15 -34.25 -16.5 -33.3 -15.75 -32.05 -15.35 -30.0 -17.0 -27.65 -18.35 -24.8 -19.65 -20.7 -21.15 -21.55 -20.1 -23.2 -17.65 Q-23.8 -16.7 -23.75 -15.35 -23.7 -15.2 -23.2 -15.65 L-22.7 -16.1 -20.75 -17.7 -19.3 -18.05 -15.2 -16.7 -14.05 -16.4 Q-11.9 -16.4 -8.5 -18.9 L-9.65 -18.0 Q-12.5 -15.7 -13.95 -15.5 -15.0 -15.65 -19.7 -17.15 -20.15 -17.15 -20.95 -16.55 -22.15 -15.65 -23.1 -14.0 -23.1 -13.7 -23.4 -13.45 -23.55 -13.3 -23.8 -13.25 L-24.0 -13.25 Q-24.35 -14.65 -24.35 -16.45 L-24.0 -19.0 -25.4 -18.45 -28.3 -16.9 -29.4 -16.0 Q-31.6 -13.95 -31.6 -10.75 L-27.4 -15.0 -28.2 -13.55 -29.7 -11.9 -30.0 -11.5 -31.35 -9.65 -32.7 -3.35 -31.05 -4.3 -30.2 -4.65 Q-30.0 -5.35 -30.0 -4.35 -30.0 -3.9 -30.8 -3.2 L-31.1 -2.8 Q-31.6 -2.1 -31.6 -0.7 L-31.15 2.05 Q-30.75 4.55 -31.1 6.7 -31.45 8.7 -30.15 11.2 -28.45 14.45 -28.25 15.5 L-27.55 14.95 -26.35 13.45 -26.0 12.9 -24.65 10.65 -24.55 12.0 Q-24.9 13.8 -25.7 14.95 -22.8 21.25 -17.5 26.55 L-16.75 27.25 M5.75 -19.6 Q5.75 -19.15 5.1 -19.35 L6.25 -22.25 6.2 -21.55 5.75 -19.6 M-28.95 -5.6 L-29.3 -5.65 -28.9 -6.05 -28.95 -5.6" fill="#97877d" fill-rule="evenodd" stroke="none"/>
  </g>
</svg>
