<?xml version="1.0" encoding="UTF-8" standalone="no"?>
<svg xmlns:ffdec="https://www.free-decompiler.com/flash" xmlns:xlink="http://www.w3.org/1999/xlink" ffdec:objectType="shape" height="124.4px" width="101.1px" xmlns="http://www.w3.org/2000/svg">
  <g transform="matrix(1.0, 0.0, 0.0, 1.0, 53.75, 18.0)">
    <path d="M39.45 -5.5 Q47.35 4.9 47.35 21.85 47.35 42.65 38.95 60.4 31.65 75.7 18.9 87.3 7.85 97.35 -4.9 102.55 -16.6 107.35 -24.6 106.15 -19.25 103.65 -9.75 93.35 0.05 82.7 1.15 77.45 -6.25 82.0 -13.25 83.85 -20.5 85.8 -30.6 85.8 L-45.75 84.6 -45.75 82.75 Q-31.3 79.35 -23.4 73.6 -14.4 67.1 -6.5 52.75 -15.7 58.0 -21.65 59.9 -26.35 61.45 -31.1 61.45 -40.05 61.45 -50.4 55.3 -44.25 56.05 -37.05 51.3 -30.85 47.2 -29.9 44.0 L-33.45 44.55 -36.4 44.8 Q-47.2 44.8 -53.75 39.3 -40.5 37.15 -34.15 30.85 -29.0 25.65 -29.0 18.45 -29.0 16.05 -29.8 13.75 -31.45 9.0 -36.6 1.6 L-42.15 -5.8 -7.3 -15.55 -0.15 -16.9 10.55 -18.0 Q29.95 -18.0 39.45 -5.5" fill="#ff0000" fill-opacity="0.0" fill-rule="evenodd" stroke="none"/>
  </g>
</svg>
