<?xml version="1.0" encoding="UTF-8" standalone="no"?>
<svg xmlns:ffdec="https://www.free-decompiler.com/flash" xmlns:xlink="http://www.w3.org/1999/xlink" ffdec:objectType="shape" height="173.15px" width="77.85px" xmlns="http://www.w3.org/2000/svg">
  <g transform="matrix(1.0, 0.0, 0.0, 1.0, 35.1, 135.85)">
    <path d="M4.15 -121.1 Q6.7 -114.35 8.25 -100.45 L13.55 -53.7 Q15.5 -36.2 16.8 -27.55 18.0 -19.9 6.55 -19.5 -4.9 -19.15 -7.85 -20.9 -12.2 -23.45 -12.2 -31.5 -10.5 -65.0 -9.35 -75.1 -5.15 -110.8 -3.4 -119.55 -2.5 -123.95 -1.6 -125.3 -1.0 -126.2 0.3 -126.2 2.2 -126.2 4.15 -121.1" fill="#ffffff" fill-rule="evenodd" stroke="none"/>
    <path d="M4.15 -121.1 Q2.2 -126.2 0.3 -126.2 -1.0 -126.2 -1.6 -125.3 -2.5 -123.95 -3.4 -119.55 -5.15 -110.8 -9.35 -75.1 -10.5 -65.0 -12.2 -31.5 -12.2 -23.45 -7.85 -20.9 -4.9 -19.15 6.55 -19.5 18.0 -19.9 16.8 -27.55 15.5 -36.2 13.55 -53.7 L8.25 -100.45 Q6.7 -114.35 4.15 -121.1 M1.8 -131.5 Q6.0 -131.5 8.55 -121.15 13.75 -100.2 23.65 -61.6 30.85 -30.85 30.1 -20.15 29.6 -13.95 17.9 -13.55 L6.1 -13.2 Q-11.3 -13.2 -19.35 -15.6 -25.2 -17.35 -25.2 -20.0 -25.2 -22.45 -19.85 -49.85 -13.55 -82.15 -10.5 -107.15 -7.55 -131.5 1.8 -131.5" fill="#faf2ed" fill-rule="evenodd" stroke="none"/>
    <path d="M0.1 -134.45 Q6.3 -134.65 9.3 -127.9 12.3 -121.15 16.9 -104.8 21.45 -88.5 30.2 -54.4 37.4 -26.3 38.65 -19.65 L38.8 -18.9 38.8 -18.85 Q39.9 -14.45 40.3 -11.25 L40.9 -6.1 40.95 -5.9 41.3 -0.1 Q41.3 13.95 30.25 24.75 19.35 35.4 5.6 35.4 -8.7 35.4 -20.3 25.15 -33.55 13.45 -33.55 -5.15 L-33.5 -5.9 -33.2 -9.8 Q-32.9 -13.45 -31.95 -17.75 L-31.95 -17.9 -31.6 -19.65 -23.9 -56.0 -14.9 -98.4 Q-13.55 -105.0 -12.2 -113.45 -10.9 -121.9 -8.5 -128.05 -6.15 -134.25 0.1 -134.45 M1.8 -131.5 Q-7.55 -131.5 -10.5 -107.15 -13.55 -82.15 -19.85 -49.85 -25.2 -22.45 -25.2 -20.0 -25.2 -17.35 -19.35 -15.6 -11.3 -13.2 6.1 -13.2 L17.9 -13.55 Q29.6 -13.95 30.1 -20.15 30.85 -30.85 23.65 -61.6 13.75 -100.2 8.55 -121.15 6.0 -131.5 1.8 -131.5" fill="#e1bfae" fill-rule="evenodd" stroke="none"/>
    <path d="M0.1 -134.45 Q-6.15 -134.25 -8.5 -128.05 -10.9 -121.9 -12.2 -113.45 -13.55 -105.0 -14.9 -98.4 L-23.9 -56.0 -31.6 -19.65 -31.95 -17.9 -31.95 -17.75 Q-32.9 -13.45 -33.2 -9.8 L-33.5 -5.9 -33.55 -5.15 Q-33.55 13.45 -20.3 25.15 -8.7 35.4 5.6 35.4 19.35 35.4 30.25 24.75 41.3 13.95 41.3 -0.1 L40.95 -5.9 40.9 -6.1 40.3 -11.25 Q39.9 -14.45 38.8 -18.85 L38.8 -18.9 38.65 -19.65 Q37.4 -26.3 30.2 -54.4 21.45 -88.5 16.9 -104.8 12.3 -121.15 9.3 -127.9 6.3 -134.65 0.1 -134.45 M12.75 -124.0 Q14.7 -118.85 17.6 -107.85 20.45 -96.9 21.8 -90.35 31.0 -60.25 37.25 -32.35 L39.95 -19.65 Q41.6 -11.25 42.3 -5.9 L42.75 0.0 Q42.75 12.95 32.95 24.4 21.9 37.3 5.85 37.3 -10.15 37.3 -22.25 25.6 -35.1 13.15 -35.1 -5.1 L-35.1 -5.9 Q-35.0 -10.05 -34.0 -16.0 L-33.3 -19.65 -32.65 -23.8 -21.2 -76.15 Q-14.8 -105.6 -13.4 -113.3 -11.3 -124.85 -9.8 -128.55 -6.8 -135.85 -0.7 -135.85 4.6 -135.85 7.7 -132.5 10.8 -129.2 12.75 -124.0" fill="#6f5342" fill-rule="evenodd" stroke="none"/>
  </g>
</svg>
