<?xml version="1.0" encoding="UTF-8" standalone="no"?>
<svg xmlns:ffdec="https://www.free-decompiler.com/flash" xmlns:xlink="http://www.w3.org/1999/xlink" ffdec:objectType="shape" height="174.7px" width="65.6px" xmlns="http://www.w3.org/2000/svg">
  <g transform="matrix(1.0, 0.0, 0.0, 1.0, 28.2, 136.3)">
    <path d="M4.4 -119.55 Q7.9 -113.45 10.95 -105.2 12.6 -100.65 13.85 -94.2 15.05 -87.8 15.15 -81.3 15.25 -74.85 14.8 -63.0 14.35 -51.15 14.45 -41.1 L14.5 -28.55 Q14.45 -24.4 13.5 -22.5 11.4 -18.5 -0.85 -18.5 -6.9 -18.5 -8.55 -20.55 -10.15 -22.6 -10.15 -30.1 -10.15 -55.35 -7.55 -86.5 -4.4 -125.0 0.1 -125.0 1.3 -125.0 4.4 -119.55" fill="#ffffff" fill-rule="evenodd" stroke="none"/>
    <path d="M4.95 -125.55 Q8.3 -120.75 13.15 -112.0 24.1 -92.4 23.8 -83.45 23.45 -74.55 20.35 -70.5 17.65 -67.8 18.7 -56.0 20.9 -31.95 23.0 -17.0 L22.9 -16.35 11.1 -14.6 -3.65 -12.9 Q-13.8 -12.2 -15.7 -12.75 L-16.7 -12.95 -17.05 -12.85 -15.65 -50.95 Q-15.0 -69.3 -15.05 -74.8 -13.75 -89.0 -10.7 -105.6 -8.2 -119.1 -5.65 -125.55 -3.4 -130.1 -1.1 -130.25 0.75 -130.3 4.95 -125.55 M4.4 -119.55 Q1.3 -125.0 0.1 -125.0 -4.4 -125.0 -7.55 -86.5 -10.15 -55.35 -10.15 -30.1 -10.15 -22.6 -8.55 -20.55 -6.9 -18.5 -0.85 -18.5 11.4 -18.5 13.5 -22.5 14.45 -24.4 14.5 -28.55 L14.45 -41.1 Q14.35 -51.15 14.8 -63.0 15.25 -74.85 15.15 -81.3 15.05 -87.8 13.85 -94.2 12.6 -100.65 10.95 -105.2 7.9 -113.45 4.4 -119.55" fill="#faf2ed" fill-rule="evenodd" stroke="none"/>
    <path d="M7.05 -130.85 Q9.1 -127.6 10.0 -125.55 14.45 -117.45 25.45 -99.45 32.55 -87.85 31.75 -79.6 30.95 -71.85 23.05 -66.95 L21.9 -66.2 21.95 -65.8 21.95 -65.7 21.95 -65.6 22.95 -57.9 Q23.75 -51.15 25.4 -43.05 27.05 -34.95 29.0 -28.65 L32.5 -15.95 32.5 -15.9 32.65 -15.25 32.65 -15.2 33.0 -13.75 33.05 -13.65 Q34.7 -8.45 35.8 1.75 36.95 19.3 24.45 29.3 15.75 36.15 6.45 36.8 -10.15 37.85 -18.8 27.1 -25.55 18.55 -26.45 4.1 L-26.7 -2.3 -26.1 -9.05 -26.0 -10.25 -26.05 -10.25 -25.85 -11.65 -25.85 -11.7 -24.15 -21.9 Q-22.85 -27.45 -22.05 -33.05 -20.85 -40.35 -20.1 -47.75 L-18.65 -62.6 -18.65 -63.15 -18.35 -66.25 -17.9 -89.25 Q-17.65 -107.8 -10.6 -123.4 L-7.65 -129.9 Q-5.25 -135.3 0.35 -134.8 L0.4 -134.8 Q5.0 -134.1 7.05 -130.85 M4.95 -125.55 Q0.75 -130.3 -1.1 -130.25 -3.4 -130.1 -5.65 -125.55 -8.2 -119.1 -10.7 -105.6 -13.75 -89.0 -15.05 -74.8 -15.0 -69.3 -15.65 -50.95 L-17.05 -12.85 -16.7 -12.95 -15.7 -12.75 Q-13.8 -12.2 -3.65 -12.9 L11.1 -14.6 22.9 -16.35 23.0 -17.0 Q20.9 -31.95 18.7 -56.0 17.65 -67.8 20.35 -70.5 23.45 -74.55 23.8 -83.45 24.1 -92.4 13.15 -112.0 8.3 -120.75 4.95 -125.55" fill="#e1bfae" fill-rule="evenodd" stroke="none"/>
    <path d="M7.05 -130.85 Q5.0 -134.1 0.4 -134.8 L0.35 -134.8 Q-5.25 -135.3 -7.65 -129.9 L-10.6 -123.4 Q-17.65 -107.8 -17.9 -89.25 L-18.35 -66.25 -18.65 -63.15 -18.65 -62.6 -20.1 -47.75 Q-20.85 -40.35 -22.05 -33.05 -22.85 -27.45 -24.15 -21.9 L-25.85 -11.7 -25.85 -11.65 -26.05 -10.25 -26.0 -10.25 -26.1 -9.05 -26.7 -2.3 -26.45 4.1 Q-25.55 18.55 -18.8 27.1 -10.15 37.85 6.45 36.8 15.75 36.15 24.45 29.3 36.95 19.3 35.8 1.75 34.7 -8.45 33.05 -13.65 L33.0 -13.75 32.65 -15.2 32.65 -15.25 32.5 -15.9 32.5 -15.95 29.0 -28.65 Q27.05 -34.95 25.4 -43.05 23.75 -51.15 22.95 -57.9 L21.95 -65.6 21.95 -65.7 21.95 -65.8 21.9 -66.2 23.05 -66.95 Q30.95 -71.85 31.75 -79.6 32.55 -87.85 25.45 -99.45 14.45 -117.45 10.0 -125.55 9.1 -127.6 7.05 -130.85 M8.6 -131.35 L11.7 -125.55 Q16.25 -117.45 26.8 -100.2 34.15 -88.15 33.2 -79.45 32.35 -70.8 23.5 -65.45 L24.45 -58.1 Q25.25 -51.35 26.85 -43.35 28.55 -35.35 30.4 -29.1 32.3 -23.2 33.95 -16.3 L34.15 -15.55 34.1 -15.6 34.45 -14.05 Q36.2 -8.7 37.3 1.6 38.5 20.0 25.35 30.45 16.25 37.65 6.55 38.3 -10.95 39.4 -20.0 28.05 -27.0 19.15 -27.95 4.2 L-28.2 -2.3 -27.65 -9.2 -27.5 -10.4 -27.5 -10.45 -27.3 -11.9 -25.65 -22.2 Q-24.4 -27.75 -23.55 -33.25 -22.35 -40.55 -21.65 -47.9 -20.8 -55.35 -20.2 -62.7 L-20.15 -63.35 -19.85 -66.3 -19.4 -89.25 Q-19.15 -108.15 -11.95 -124.0 L-8.5 -131.0 Q-5.45 -137.2 0.5 -136.15 6.4 -135.15 8.6 -131.35" fill="#6f5342" fill-rule="evenodd" stroke="none"/>
  </g>
</svg>
