<?xml version="1.0" encoding="UTF-8" standalone="no"?>
<svg xmlns:ffdec="https://www.free-decompiler.com/flash" xmlns:xlink="http://www.w3.org/1999/xlink" ffdec:objectType="shape" height="111.4px" width="63.0px" xmlns="http://www.w3.org/2000/svg">
  <g transform="matrix(1.0, 0.0, 0.0, 1.0, 0.0, 110.55)">
    <path d="M52.55 -60.9 L55.0 -60.9 55.25 -60.9 46.4 -33.75 45.95 -33.55 45.8 -33.5 45.75 -33.5 45.75 -39.95 52.55 -60.75 52.55 -60.9 M48.05 -50.25 L47.7 -49.2 45.8 -49.2 45.8 -53.0 48.05 -53.0 48.05 -50.25 M10.25 -46.7 L16.4 -46.7 16.4 -36.2 15.6 -36.2 15.6 -44.7 11.65 -44.7 11.65 -12.4 10.25 -12.85 10.25 -46.7 M15.6 -30.4 L16.4 -30.4 16.4 -13.05 15.6 -12.6 15.6 -30.4 M27.2 -53.0 L38.15 -53.0 38.1 -49.2 27.2 -49.2 27.2 -53.0 M40.25 -36.2 L38.85 -36.2 38.85 -46.7 45.0 -46.7 45.0 -13.05 44.2 -12.6 44.2 -44.7 40.25 -44.7 40.25 -36.2 M40.25 -12.4 L38.85 -12.85 38.85 -30.4 40.25 -30.4 40.25 -12.4 M17.2 -37.95 L17.2 -46.1 19.45 -53.0 19.45 -44.85 17.2 -37.95 M14.75 -35.2 L41.05 -35.2 Q42.15 -33.0 41.1 -31.4 L14.8 -31.4 Q13.95 -32.5 13.95 -33.45 13.95 -34.4 14.75 -35.2" fill="#2d2d2d" fill-rule="evenodd" stroke="none"/>
    <path d="M55.0 -60.9 L55.0 -81.2 48.85 -81.2 48.85 -52.7 51.6 -61.05 51.85 -61.35 52.2 -61.35 52.5 -61.1 52.55 -60.9 52.55 -60.75 45.75 -39.95 45.75 -33.5 45.8 -33.5 45.95 -33.55 46.4 -33.75 55.25 -60.9 55.0 -60.9 M9.45 -15.2 L9.55 -53.45 Q9.6 -59.05 9.85 -59.2 L16.8 -59.2 17.2 -58.7 17.2 -49.3 19.45 -56.25 19.55 -76.45 Q19.6 -82.05 19.85 -82.2 L26.8 -82.2 27.2 -81.7 27.2 -54.0 38.15 -54.0 Q38.2 -59.05 38.45 -59.2 L45.4 -59.2 45.8 -58.7 45.8 -54.0 48.05 -54.0 48.15 -76.45 Q48.2 -82.05 48.45 -82.2 L55.4 -82.2 55.8 -81.7 55.8 -61.4 55.9 -61.35 56.2 -61.1 56.25 -60.75 55.8 -59.45 55.8 -38.3 55.8 -37.4 Q55.8 -36.45 55.35 -35.8 54.85 -35.15 54.2 -35.15 L54.15 -35.15 Q52.0 -34.7 48.95 -35.25 48.6 -35.25 48.35 -35.8 L48.2 -36.15 47.9 -35.25 47.65 -34.35 47.4 -33.65 47.3 -33.3 47.05 -33.0 46.95 -32.95 46.0 -32.5 45.8 -32.45 45.8 -32.25 45.8 -28.55 45.8 -26.05 45.8 -24.4 45.8 -23.15 45.8 -15.3 45.8 -14.4 Q45.8 -13.45 45.35 -12.8 44.85 -12.15 44.2 -12.15 L44.15 -12.15 Q42.0 -11.7 38.95 -12.25 38.6 -12.25 38.35 -12.8 38.05 -13.35 38.05 -14.1 L38.05 -15.2 38.05 -30.4 33.35 -30.4 32.25 -30.4 29.4 -30.4 28.4 -30.4 25.25 -30.4 20.5 -30.4 18.3 -30.4 17.35 -30.4 17.2 -30.4 17.2 -28.55 17.2 -26.05 17.2 -24.4 17.2 -23.15 17.2 -15.3 17.2 -14.4 Q17.2 -13.45 16.75 -12.8 16.25 -12.15 15.6 -12.15 L15.55 -12.15 Q13.4 -11.7 10.35 -12.25 10.0 -12.25 9.75 -12.8 9.45 -13.35 9.45 -14.1 L9.45 -15.2 M48.05 -50.25 L48.05 -53.0 45.8 -53.0 45.8 -49.2 47.7 -49.2 48.05 -50.25 M20.25 -81.2 L20.25 -36.2 26.4 -36.2 26.4 -81.2 20.25 -81.2 M16.4 -46.7 L16.4 -58.2 10.25 -58.2 10.25 -46.7 10.25 -12.85 11.65 -12.4 13.95 -12.45 15.6 -12.6 16.4 -13.05 16.4 -30.4 15.6 -30.4 14.55 -30.4 14.35 -30.45 14.2 -30.55 Q12.9 -32.1 12.95 -33.45 12.9 -34.9 14.25 -36.05 L14.55 -36.2 15.6 -36.2 16.4 -36.2 16.4 -46.7 M27.2 -53.0 L27.2 -49.2 38.1 -49.2 38.15 -53.0 27.2 -53.0 M27.2 -38.3 L27.2 -37.4 27.0 -36.2 28.55 -36.2 29.35 -36.2 38.05 -36.2 38.1 -48.2 27.2 -48.2 27.2 -38.3 M38.85 -46.7 L38.85 -36.2 40.25 -36.2 41.35 -36.2 41.6 -36.1 41.8 -35.95 Q43.5 -32.85 41.75 -30.6 L41.6 -30.45 41.35 -30.4 40.25 -30.4 38.85 -30.4 38.85 -12.85 40.25 -12.4 42.55 -12.45 44.2 -12.6 45.0 -13.05 45.0 -46.7 45.0 -58.2 38.85 -58.2 38.85 -46.7 M19.45 -38.2 L19.45 -41.65 17.85 -36.75 17.45 -36.2 18.25 -36.2 19.6 -36.2 Q19.45 -36.6 19.45 -37.1 L19.45 -38.2 M17.2 -37.95 L19.45 -44.85 19.45 -53.0 17.2 -46.1 17.2 -37.95 M14.75 -35.2 Q13.95 -34.4 13.95 -33.45 13.95 -32.5 14.8 -31.4 L41.1 -31.4 Q42.15 -33.0 41.05 -35.2 L14.75 -35.2 M45.8 -48.2 L45.8 -43.35 47.4 -48.2 45.8 -48.2 M50.25 -35.4 L52.55 -35.45 54.2 -35.6 55.0 -36.05 55.0 -57.0 48.85 -38.15 48.85 -35.85 50.25 -35.4" fill="#161616" fill-rule="evenodd" stroke="none"/>
    <path d="M52.55 -60.9 L52.5 -61.1 52.2 -61.35 51.85 -61.35 51.6 -61.05 48.85 -52.7 48.85 -81.2 55.0 -81.2 55.0 -60.9 52.55 -60.9 M10.25 -46.7 L10.25 -58.2 16.4 -58.2 16.4 -46.7 10.25 -46.7 M20.25 -81.2 L26.4 -81.2 26.4 -36.2 20.25 -36.2 20.25 -81.2 M38.85 -46.7 L38.85 -58.2 45.0 -58.2 45.0 -46.7 38.85 -46.7 M50.25 -35.4 L48.85 -35.85 48.85 -38.15 55.0 -57.0 55.0 -36.05 54.2 -35.6 52.55 -35.45 50.25 -35.4" fill="#1f1f1f" fill-rule="evenodd" stroke="none"/>
    <path d="M55.8 -38.3 Q57.7 -37.35 57.9 -36.8 L58.0 -33.45 58.15 -32.35 58.0 -32.4 57.9 -28.55 Q57.5 -27.35 56.95 -26.9 56.05 -26.1 51.95 -26.1 50.65 -26.1 48.9 -26.8 46.95 -27.5 46.05 -28.55 45.9 -29.3 45.9 -32.25 L46.0 -32.5 46.95 -32.95 46.9 -29.3 Q46.9 -28.85 47.65 -28.3 L48.85 -27.6 53.8 -27.25 Q55.25 -27.55 56.05 -28.25 L57.0 -29.3 57.0 -34.0 55.4 -33.1 53.45 -32.65 49.2 -32.9 47.4 -33.65 47.65 -34.35 48.05 -34.1 Q49.5 -33.25 51.6 -33.25 55.35 -33.25 57.15 -35.4 L57.25 -35.5 Q57.25 -36.3 56.85 -36.85 56.4 -37.4 55.8 -37.4 L55.8 -38.3 M45.8 -15.3 Q47.7 -14.35 47.9 -13.8 L48.0 -10.45 48.15 -9.35 48.0 -9.4 47.9 -5.55 Q47.5 -4.35 46.95 -3.9 46.05 -3.1 41.95 -3.1 40.65 -3.1 38.9 -3.8 36.95 -4.5 36.05 -5.55 35.9 -6.3 35.9 -9.25 36.1 -9.75 35.95 -10.55 L35.9 -12.9 Q35.9 -13.1 36.45 -13.75 L38.05 -15.2 38.05 -14.1 Q37.45 -14.1 37.05 -13.55 36.6 -13.0 36.6 -12.25 37.45 -11.4 38.05 -11.1 39.5 -10.25 41.6 -10.25 45.35 -10.25 47.15 -12.4 L47.25 -12.5 Q47.25 -13.3 46.85 -13.85 46.4 -14.4 45.8 -14.4 L45.8 -15.3 M17.2 -15.3 Q19.1 -14.35 19.3 -13.8 L19.4 -10.45 19.55 -9.35 19.4 -9.4 19.3 -5.55 Q18.9 -4.35 18.35 -3.9 17.45 -3.1 13.35 -3.1 12.05 -3.1 10.3 -3.8 8.35 -4.5 7.45 -5.55 7.3 -6.3 7.3 -9.25 7.5 -9.75 7.35 -10.55 L7.3 -12.9 Q7.3 -13.1 7.85 -13.75 L9.45 -15.2 9.45 -14.1 8.45 -13.55 Q8.0 -13.0 8.0 -12.25 8.85 -11.4 9.45 -11.1 10.9 -10.25 13.0 -10.25 16.75 -10.25 18.55 -12.4 L18.65 -12.5 Q18.65 -13.3 18.25 -13.85 17.8 -14.4 17.2 -14.4 L17.2 -15.3 M27.2 -37.4 L27.2 -38.3 Q29.1 -37.35 29.3 -36.8 L29.35 -36.2 28.55 -36.2 28.25 -36.85 Q27.8 -37.4 27.2 -37.4 M29.3 -28.55 Q28.9 -27.35 28.35 -26.9 27.45 -26.1 23.35 -26.1 22.05 -26.1 20.3 -26.8 18.35 -27.5 17.45 -28.55 L17.35 -30.4 18.3 -30.4 18.3 -29.3 Q18.3 -28.85 19.05 -28.3 L20.25 -27.6 25.2 -27.25 Q26.65 -27.55 27.45 -28.25 L28.4 -29.3 28.4 -30.4 29.4 -30.4 29.3 -28.55 M17.85 -36.75 Q18.55 -37.55 19.45 -38.2 L19.45 -37.1 Q18.85 -37.1 18.45 -36.55 L18.25 -36.2 17.45 -36.2 17.85 -36.75 M10.6 -9.9 Q9.45 -10.2 8.35 -10.95 L8.3 -6.3 Q8.3 -5.85 9.05 -5.3 9.65 -4.85 10.25 -4.6 L15.2 -4.25 Q16.65 -4.55 17.45 -5.25 L18.4 -6.3 18.4 -11.0 16.8 -10.1 14.85 -9.65 10.6 -9.9 M39.2 -9.9 Q38.05 -10.2 36.95 -10.95 L36.9 -6.3 Q36.9 -5.85 37.65 -5.3 L38.85 -4.6 43.8 -4.25 Q45.25 -4.55 46.05 -5.25 L47.0 -6.3 47.0 -11.0 45.4 -10.1 43.45 -9.65 39.2 -9.9" fill="#5f4300" fill-rule="evenodd" stroke="none"/>
    <path d="M27.2 -37.4 Q27.8 -37.4 28.25 -36.85 L28.55 -36.2 27.0 -36.2 27.2 -37.4 M28.4 -30.4 L28.4 -29.3 27.45 -28.25 Q26.65 -27.55 25.2 -27.25 L25.25 -30.4 28.4 -30.4 M20.25 -27.6 L19.05 -28.3 Q18.3 -28.85 18.3 -29.3 L18.3 -30.4 20.5 -30.4 20.25 -27.6 M19.45 -37.1 Q19.45 -36.6 19.6 -36.2 L18.25 -36.2 18.45 -36.55 Q18.85 -37.1 19.45 -37.1 M55.8 -37.4 Q56.4 -37.4 56.85 -36.85 57.25 -36.3 57.25 -35.5 L57.15 -35.4 54.2 -35.15 Q54.85 -35.15 55.35 -35.8 55.8 -36.45 55.8 -37.4 M47.4 -33.65 L49.2 -32.9 48.85 -27.6 47.65 -28.3 Q46.9 -28.85 46.9 -29.3 L46.95 -32.95 47.05 -33.0 47.3 -33.3 47.4 -33.65 M53.45 -32.65 L55.4 -33.1 57.0 -34.0 57.0 -29.3 56.05 -28.25 Q55.25 -27.55 53.8 -27.25 L53.85 -32.7 53.45 -32.65 M47.9 -35.25 L48.2 -36.15 48.35 -35.8 Q48.6 -35.25 48.95 -35.25 L47.9 -35.25" fill="#966a05" fill-rule="evenodd" stroke="none"/>
    <path d="M9.45 -14.1 Q9.45 -13.35 9.75 -12.8 10.0 -12.25 10.35 -12.25 L8.0 -12.25 Q8.0 -13.0 8.45 -13.55 L9.45 -14.1 M15.6 -12.15 Q16.25 -12.15 16.75 -12.8 17.2 -13.45 17.2 -14.4 17.8 -14.4 18.25 -13.85 18.65 -13.3 18.65 -12.5 L18.55 -12.4 15.6 -12.15 M25.2 -27.25 L20.25 -27.6 20.5 -30.4 25.25 -30.4 25.2 -27.25 M10.25 -4.6 Q9.65 -4.85 9.05 -5.3 8.3 -5.85 8.3 -6.3 L8.35 -10.95 Q9.45 -10.2 10.6 -9.9 L10.25 -4.6 M14.85 -9.65 L16.8 -10.1 18.4 -11.0 18.4 -6.3 17.45 -5.25 Q16.65 -4.55 15.2 -4.25 L15.25 -9.7 14.85 -9.65 M36.6 -12.25 Q36.6 -13.0 37.05 -13.55 37.45 -14.1 38.05 -14.1 38.05 -13.35 38.35 -12.8 38.6 -12.25 38.95 -12.25 L36.6 -12.25 M38.85 -4.6 L37.65 -5.3 Q36.9 -5.85 36.9 -6.3 L36.95 -10.95 Q38.05 -10.2 39.2 -9.9 L38.85 -4.6 M43.45 -9.65 L45.4 -10.1 47.0 -11.0 47.0 -6.3 46.05 -5.25 Q45.25 -4.55 43.8 -4.25 L43.85 -9.7 43.45 -9.65 M57.15 -35.4 Q55.35 -33.25 51.6 -33.25 49.5 -33.25 48.05 -34.1 L47.65 -34.35 47.9 -35.25 48.95 -35.25 Q52.0 -34.7 54.15 -35.15 L54.2 -35.15 57.15 -35.4 M49.2 -32.9 L53.45 -32.65 53.85 -32.7 53.8 -27.25 48.85 -27.6 49.2 -32.9 M45.8 -14.4 Q46.4 -14.4 46.85 -13.85 47.25 -13.3 47.25 -12.5 L47.15 -12.4 44.2 -12.15 Q44.85 -12.15 45.35 -12.8 45.8 -13.45 45.8 -14.4" fill="#cd9207" fill-rule="evenodd" stroke="none"/>
    <path d="M58.0 -33.45 L59.0 -33.05 Q62.15 -31.55 62.1 -29.3 L62.1 -27.35 Q62.15 -25.05 59.0 -23.55 56.1 -22.15 51.95 -22.15 48.4 -22.15 45.8 -23.15 L45.8 -24.4 Q48.25 -23.15 51.95 -23.15 57.8 -23.15 59.9 -25.05 60.9 -25.95 61.1 -27.7 L61.25 -28.55 Q61.25 -30.1 60.35 -31.2 59.45 -32.35 58.15 -32.35 L58.0 -33.45 M48.0 -10.45 L49.0 -10.05 Q52.15 -8.55 52.1 -6.3 L52.1 -4.35 Q52.15 -2.05 49.0 -0.55 46.1 0.85 41.95 0.85 37.8 0.85 34.9 -0.55 32.1 -1.9 31.85 -3.8 L31.8 -4.2 31.8 -6.3 Q31.75 -8.55 34.9 -10.05 L35.95 -10.45 35.95 -10.55 Q36.1 -9.75 35.9 -9.25 34.6 -9.25 33.7 -8.15 32.8 -7.1 32.8 -5.55 L32.8 -4.75 Q33.25 -2.9 35.35 -1.65 37.9 -0.15 41.95 -0.15 47.8 -0.15 49.9 -2.05 50.9 -2.95 51.1 -4.7 L51.25 -5.55 Q51.25 -7.1 50.35 -8.2 49.45 -9.35 48.15 -9.35 L48.0 -10.45 M33.35 -30.4 L33.5 -29.3 33.5 -27.35 Q33.55 -25.05 30.4 -23.55 27.5 -22.15 23.35 -22.15 19.8 -22.15 17.2 -23.15 L17.2 -24.4 Q19.65 -23.15 23.35 -23.15 29.2 -23.15 31.3 -25.05 32.3 -25.95 32.5 -27.7 L32.65 -28.55 Q32.65 -29.55 32.25 -30.4 L33.35 -30.4 M19.4 -10.45 L20.4 -10.05 Q23.55 -8.55 23.5 -6.3 L23.5 -4.35 Q23.55 -2.05 20.4 -0.55 17.5 0.85 13.35 0.85 9.2 0.85 6.3 -0.55 3.5 -1.9 3.25 -3.8 L3.2 -4.2 3.2 -6.3 Q3.15 -8.55 6.3 -10.05 L7.35 -10.45 7.35 -10.55 Q7.5 -9.75 7.3 -9.25 6.0 -9.25 5.1 -8.15 4.2 -7.1 4.2 -5.55 L4.2 -4.75 Q4.65 -2.9 6.75 -1.65 9.3 -0.15 13.35 -0.15 19.2 -0.15 21.3 -2.05 22.3 -2.95 22.5 -4.7 L22.65 -5.55 Q22.65 -7.1 21.75 -8.2 20.85 -9.35 19.55 -9.35 L19.4 -10.45 M46.0 -32.5 L45.9 -32.25 45.8 -32.25 45.8 -32.45 46.0 -32.5" fill="#4d0100" fill-rule="evenodd" stroke="none"/>
    <path d="M29.3 -28.55 L29.4 -30.4 32.25 -30.4 Q32.65 -29.55 32.65 -28.55 L29.3 -28.55 M17.35 -30.4 L17.45 -28.55 17.2 -28.55 17.2 -30.4 17.35 -30.4 M17.2 -26.05 Q18.05 -25.7 19.0 -25.45 21.65 -24.65 23.35 -24.65 25.45 -24.65 28.4 -25.65 31.25 -26.6 32.5 -27.7 32.3 -25.95 31.3 -25.05 29.2 -23.15 23.35 -23.15 19.65 -23.15 17.2 -24.4 L17.2 -26.05 M4.2 -4.75 Q5.8 -3.35 9.0 -2.45 11.65 -1.65 13.35 -1.65 15.45 -1.65 18.4 -2.65 21.25 -3.6 22.5 -4.7 22.3 -2.95 21.3 -2.05 19.2 -0.15 13.35 -0.15 9.3 -0.15 6.75 -1.65 4.65 -2.9 4.2 -4.75 M32.8 -4.75 Q34.4 -3.35 37.6 -2.45 40.25 -1.65 41.95 -1.65 44.05 -1.65 47.0 -2.65 49.85 -3.6 51.1 -4.7 50.9 -2.95 49.9 -2.05 47.8 -0.15 41.95 -0.15 37.9 -0.15 35.35 -1.65 33.25 -2.9 32.8 -4.75 M61.25 -28.55 L57.9 -28.55 58.0 -32.4 58.15 -32.35 Q59.45 -32.35 60.35 -31.2 61.25 -30.1 61.25 -28.55 M46.05 -28.55 L45.8 -28.55 45.8 -32.25 45.9 -32.25 Q45.9 -29.3 46.05 -28.55 M45.8 -26.05 L47.6 -25.45 Q50.25 -24.65 51.95 -24.65 54.05 -24.65 57.0 -25.65 59.85 -26.6 61.1 -27.7 60.9 -25.95 59.9 -25.05 57.8 -23.15 51.95 -23.15 48.25 -23.15 45.8 -24.4 L45.8 -26.05" fill="#8a0b08" fill-rule="evenodd" stroke="none"/>
    <path d="M17.45 -28.55 Q18.35 -27.5 20.3 -26.8 22.05 -26.1 23.35 -26.1 27.45 -26.1 28.35 -26.9 28.9 -27.35 29.3 -28.55 L32.65 -28.55 32.5 -27.7 Q31.25 -26.6 28.4 -25.65 25.45 -24.65 23.35 -24.65 21.65 -24.65 19.0 -25.45 18.05 -25.7 17.2 -26.05 L17.2 -28.55 17.45 -28.55 M4.2 -5.55 Q4.2 -7.1 5.1 -8.15 6.0 -9.25 7.3 -9.25 7.3 -6.3 7.45 -5.55 L4.2 -5.55 M22.65 -5.55 L19.3 -5.55 19.4 -9.4 19.55 -9.35 Q20.85 -9.35 21.75 -8.2 22.65 -7.1 22.65 -5.55 M35.9 -9.25 Q35.9 -6.3 36.05 -5.55 L32.8 -5.55 Q32.8 -7.1 33.7 -8.15 34.6 -9.25 35.9 -9.25 M47.9 -5.55 L48.0 -9.4 48.15 -9.35 Q49.45 -9.35 50.35 -8.2 51.25 -7.1 51.25 -5.55 L47.9 -5.55 M61.25 -28.55 L61.1 -27.7 Q59.85 -26.6 57.0 -25.65 54.05 -24.65 51.95 -24.65 50.25 -24.65 47.6 -25.45 L45.8 -26.05 45.8 -28.55 46.05 -28.55 Q46.95 -27.5 48.9 -26.8 50.65 -26.1 51.95 -26.1 56.05 -26.1 56.95 -26.9 57.5 -27.35 57.9 -28.55 L61.25 -28.55" fill="#cb0b06" fill-rule="evenodd" stroke="none"/>
    <path d="M15.6 -36.2 L14.55 -36.2 14.25 -36.05 Q12.9 -34.9 12.95 -33.45 12.9 -32.1 14.2 -30.55 L14.35 -30.45 14.55 -30.4 15.6 -30.4 15.6 -12.6 13.95 -12.45 11.65 -12.4 11.65 -44.7 15.6 -44.7 15.6 -36.2 M44.2 -12.6 L42.55 -12.45 40.25 -12.4 40.25 -30.4 41.35 -30.4 41.6 -30.45 41.75 -30.6 Q43.5 -32.85 41.8 -35.95 L41.6 -36.1 41.35 -36.2 40.25 -36.2 40.25 -44.7 44.2 -44.7 44.2 -12.6" fill="#373737" fill-rule="evenodd" stroke="none"/>
    <path d="M10.35 -12.25 Q13.4 -11.7 15.55 -12.15 L15.6 -12.15 18.55 -12.4 Q16.75 -10.25 13.0 -10.25 10.9 -10.25 9.45 -11.1 8.85 -11.4 8.0 -12.25 L10.35 -12.25 M10.25 -4.6 L10.6 -9.9 14.85 -9.65 15.25 -9.7 15.2 -4.25 10.25 -4.6 M36.6 -12.25 L38.95 -12.25 Q42.0 -11.7 44.15 -12.15 L44.2 -12.15 47.15 -12.4 Q45.35 -10.25 41.6 -10.25 39.5 -10.25 38.05 -11.1 37.45 -11.4 36.6 -12.25 M38.85 -4.6 L39.2 -9.9 43.45 -9.65 43.85 -9.7 43.8 -4.25 38.85 -4.6" fill="#f3bf14" fill-rule="evenodd" stroke="none"/>
    <path d="M4.2 -5.55 L7.45 -5.55 Q8.35 -4.5 10.3 -3.8 12.05 -3.1 13.35 -3.1 17.45 -3.1 18.35 -3.9 18.9 -4.35 19.3 -5.55 L22.65 -5.55 22.5 -4.7 Q21.25 -3.6 18.4 -2.65 15.45 -1.65 13.35 -1.65 11.65 -1.65 9.0 -2.45 5.8 -3.35 4.2 -4.75 L4.2 -5.55 M36.05 -5.55 Q36.95 -4.5 38.9 -3.8 40.65 -3.1 41.95 -3.1 46.05 -3.1 46.95 -3.9 47.5 -4.35 47.9 -5.55 L51.25 -5.55 51.1 -4.7 Q49.85 -3.6 47.0 -2.65 44.05 -1.65 41.95 -1.65 40.25 -1.65 37.6 -2.45 34.4 -3.35 32.8 -4.75 L32.8 -5.55 36.05 -5.55" fill="#f3201a" fill-rule="evenodd" stroke="none"/>
    <path d="M41.55 -53.2 L41.55 -61.35 46.85 -61.35 46.85 -53.2 41.55 -53.2 M29.3 -61.35 L29.3 -53.2 24.0 -53.2 24.0 -61.35 29.3 -61.35 M6.45 -61.35 L11.75 -61.35 11.75 -53.2 6.45 -53.2 6.45 -61.35" fill="#f3bf14" fill-rule="evenodd" stroke="none"/>
    <path d="M41.55 -61.35 L41.55 -53.2 29.3 -53.2 29.3 -61.35 41.55 -61.35 M46.85 -53.2 L46.85 -61.35 53.1 -61.35 53.1 -53.2 46.85 -53.2 M6.45 -53.2 L3.85 -53.2 3.8 -53.7 3.8 -61.35 6.45 -61.35 6.45 -53.2 M11.75 -61.35 L24.0 -61.35 24.0 -53.2 11.75 -53.2 11.75 -61.35" fill="#cb0b06" fill-rule="evenodd" stroke="none"/>
    <path d="M61.2 -78.5 L61.2 -86.4 62.0 -89.2 62.0 -81.3 61.2 -78.5 M58.8 -78.1 L58.8 -70.15 57.45 -65.45 57.45 -73.4 58.8 -78.1 M53.2 -77.1 L56.35 -88.65 13.5 -88.65 9.95 -77.1 6.55 -66.05 50.15 -66.05 50.25 -66.4 50.3 -66.45 53.2 -77.1 M8.9 -77.1 L12.75 -89.65 57.65 -89.65 54.2 -77.1 51.3 -66.45 51.3 -66.4 50.9 -65.05 5.2 -65.05 8.9 -77.1 M55.05 -57.1 L54.1 -53.8 54.1 -61.75 55.05 -65.05 55.05 -57.1 M41.55 -53.2 L46.85 -53.2 46.85 -50.8 41.55 -50.8 41.55 -53.2 M6.45 -50.8 L6.45 -53.2 11.75 -53.2 11.75 -50.8 6.45 -50.8 M24.0 -53.2 L29.3 -53.2 29.3 -50.8 24.0 -50.8 24.0 -53.2" fill="#cd9207" fill-rule="evenodd" stroke="none"/>
    <path d="M61.2 -86.4 L61.2 -78.5 58.8 -70.15 58.8 -78.1 61.2 -86.4 M57.45 -65.45 L55.05 -57.1 55.05 -65.05 57.45 -73.4 57.45 -65.45 M29.3 -53.2 L41.55 -53.2 41.55 -50.8 29.3 -50.8 29.3 -53.2 M46.85 -50.8 L46.85 -53.2 53.1 -53.2 53.1 -50.8 46.85 -50.8 M6.45 -50.8 L1.0 -50.8 1.0 -61.35 3.8 -61.35 3.8 -53.7 3.85 -53.2 6.45 -53.2 6.45 -50.8 M11.75 -50.8 L11.75 -53.2 24.0 -53.2 24.0 -50.8 11.75 -50.8" fill="#8a0b08" fill-rule="evenodd" stroke="none"/>
    <path d="M9.95 -77.1 L13.5 -88.65 56.35 -88.65 53.2 -77.1 9.95 -77.1 M54.2 -77.1 L57.65 -89.65 12.75 -89.65 8.9 -77.1 5.4 -77.1 9.75 -92.3 61.8 -92.3 57.45 -77.1 54.2 -77.1" fill="#2d2d2d" fill-rule="evenodd" stroke="none"/>
    <path d="M9.95 -77.1 L53.2 -77.1 50.3 -66.45 50.25 -66.4 50.15 -66.05 6.55 -66.05 9.95 -77.1 M54.2 -77.1 L57.45 -77.1 53.25 -62.35 1.2 -62.35 5.4 -77.1 8.9 -77.1 5.2 -65.05 50.9 -65.05 51.3 -66.4 51.3 -66.45 54.2 -77.1" fill="#3a3a3a" fill-rule="evenodd" stroke="none"/>
    <path d="M63.0 -93.3 L63.0 -81.1 54.15 -49.8 0.0 -49.8 0.0 -61.7 8.85 -93.3 63.0 -93.3 M61.2 -78.5 L62.0 -81.3 62.0 -89.2 61.2 -86.4 58.8 -78.1 57.45 -73.4 55.05 -65.05 54.1 -61.75 54.1 -53.8 55.05 -57.1 57.45 -65.45 58.8 -70.15 61.2 -78.5 M57.45 -77.1 L61.8 -92.3 9.75 -92.3 5.4 -77.1 1.2 -62.35 53.25 -62.35 57.45 -77.1 M46.85 -61.35 L41.55 -61.35 29.3 -61.35 24.0 -61.35 11.75 -61.35 6.45 -61.35 3.8 -61.35 1.0 -61.35 1.0 -50.8 6.45 -50.8 11.75 -50.8 24.0 -50.8 29.3 -50.8 41.55 -50.8 46.85 -50.8 53.1 -50.8 53.1 -53.2 53.1 -61.35 46.85 -61.35" fill="#4d0100" fill-rule="evenodd" stroke="none"/>
    <path d="M30.1 -87.2 L30.05 -88.55 Q30.0 -90.7 30.2 -92.85 L30.3 -93.85 Q30.6 -96.55 31.3 -99.15 L44.25 -99.1 44.9 -93.85 44.95 -92.85 45.0 -89.45 45.0 -88.6 45.0 -88.55 44.95 -87.2 44.95 -86.55 44.25 -79.7 Q44.2 -79.6 31.3 -79.65 30.45 -83.15 30.15 -86.55 L30.1 -87.2 M44.0 -88.55 L44.0 -88.7 44.0 -89.45 43.95 -92.85 43.9 -93.85 43.35 -98.55 32.15 -98.55 Q31.55 -96.25 31.3 -93.85 L31.2 -92.85 Q31.0 -90.75 31.05 -88.55 L31.1 -87.2 31.15 -86.55 Q31.4 -83.45 32.15 -80.3 L43.3 -80.3 43.95 -86.55 43.95 -87.2 44.0 -88.55" fill="#2a2a2a" fill-rule="evenodd" stroke="none"/>
    <path d="M47.55 -107.3 L47.55 -107.25 46.15 -101.55 29.4 -101.55 31.35 -107.25 31.35 -107.3 47.55 -107.3 M44.0 -88.55 L43.95 -87.2 43.95 -86.55 43.3 -80.3 32.15 -80.3 Q31.4 -83.45 31.15 -86.55 L31.1 -87.2 31.05 -88.55 36.4 -88.1 44.0 -88.55 M25.75 -91.05 L26.8 -91.55 26.8 -81.55 25.75 -80.9 25.75 -91.05 M18.6 -80.65 L17.0 -81.5 17.0 -91.55 18.6 -90.85 18.6 -80.65" fill="#dddddd" fill-rule="evenodd" stroke="none"/>
    <path d="M31.35 -107.3 L32.2 -109.8 48.15 -109.8 47.55 -107.3 31.35 -107.3 M25.6 -93.1 L24.95 -92.85 23.2 -92.5 23.2 -94.85 22.7 -92.0 21.2 -92.0 20.7 -94.85 20.7 -92.5 18.9 -92.85 18.6 -92.95 Q17.65 -93.25 17.0 -93.7 L17.0 -94.45 Q17.1 -95.2 18.4 -96.15 L18.6 -96.3 Q19.95 -97.25 21.85 -97.25 23.9 -97.25 25.4 -96.2 L25.75 -95.9 26.8 -94.5 26.8 -93.75 25.6 -93.1" fill="#c8c8c8" fill-rule="evenodd" stroke="none"/>
    <path d="M29.75 -87.2 L29.75 -101.05 45.75 -101.05 45.75 -87.2 44.95 -87.2 45.0 -88.55 45.0 -88.6 45.0 -89.45 44.95 -92.85 44.9 -93.85 44.25 -99.1 31.3 -99.15 Q30.6 -96.55 30.3 -93.85 L30.2 -92.85 Q30.0 -90.7 30.05 -88.55 L30.1 -87.2 29.75 -87.2 M26.8 -93.15 L25.5 -92.05 Q24.05 -91.4 21.9 -91.4 L18.6 -91.9 17.75 -92.4 17.15 -92.85 17.0 -93.1 18.6 -92.4 20.7 -92.0 20.7 -91.5 23.2 -91.5 23.2 -92.0 Q24.65 -92.15 25.75 -92.65 L25.8 -92.65 26.25 -92.85 26.8 -93.15 M26.8 -80.45 L25.5 -79.35 Q24.05 -78.7 21.9 -78.7 L18.6 -79.2 Q17.05 -80.05 17.0 -80.45 L17.0 -80.9 18.6 -80.1 21.9 -79.65 Q24.15 -79.65 25.75 -80.35 L25.8 -80.35 26.8 -80.9 26.8 -80.45" fill="#999999" fill-rule="evenodd" stroke="none"/>
    <path d="M31.05 -88.55 Q31.0 -90.75 31.2 -92.85 L31.3 -93.85 Q31.55 -96.25 32.15 -98.55 L43.35 -98.55 43.9 -93.85 43.95 -92.85 44.0 -89.45 44.0 -88.7 44.0 -88.55 36.4 -88.1 31.05 -88.55 M25.75 -80.9 Q23.35 -80.15 21.9 -80.15 L18.6 -80.65 18.6 -90.85 21.9 -90.4 Q24.15 -90.4 25.75 -91.05 L25.75 -80.9" fill="#ffffff" fill-rule="evenodd" stroke="none"/>
    <path d="M29.75 -87.2 L30.1 -87.2 30.15 -86.55 Q30.45 -83.15 31.3 -79.65 44.2 -79.6 44.25 -79.7 L44.95 -86.55 44.95 -87.2 45.75 -87.2 45.75 -77.8 29.75 -77.8 29.75 -87.2" fill="#727272" fill-rule="evenodd" stroke="none"/>
    <path d="M46.75 -101.45 L48.3 -106.8 48.3 -86.05 46.75 -80.75 46.75 -101.45" fill="#858585" fill-rule="evenodd" stroke="none"/>
    <path d="M28.9 -102.05 L30.05 -105.8 30.5 -107.25 30.5 -107.3 31.45 -110.55 49.05 -110.55 49.05 -85.1 46.6 -77.15 28.9 -77.15 28.9 -102.05 M47.55 -107.3 L48.15 -109.8 32.2 -109.8 31.35 -107.3 31.35 -107.25 29.4 -101.55 46.15 -101.55 47.55 -107.25 47.55 -107.3 M46.75 -101.45 L46.75 -80.75 48.3 -86.05 48.3 -106.8 46.75 -101.45 M45.75 -87.2 L45.75 -101.05 29.75 -101.05 29.75 -87.2 29.75 -77.8 45.75 -77.8 45.75 -87.2 M25.6 -93.1 L26.8 -93.75 26.8 -94.5 25.75 -95.9 25.4 -96.2 Q23.9 -97.25 21.85 -97.25 19.95 -97.25 18.6 -96.3 L18.4 -96.15 Q17.1 -95.2 17.0 -94.45 L17.0 -93.7 Q17.65 -93.25 18.6 -92.95 L18.9 -92.85 20.7 -92.5 20.7 -94.85 21.2 -92.0 22.7 -92.0 23.2 -94.85 23.2 -92.5 24.95 -92.85 25.6 -93.1 M26.8 -93.15 L26.25 -92.85 25.8 -92.65 25.75 -92.65 Q24.65 -92.15 23.2 -92.0 L23.2 -91.5 20.7 -91.5 20.7 -92.0 18.6 -92.4 17.0 -93.1 17.15 -92.85 17.75 -92.4 18.6 -91.9 21.9 -91.4 Q24.05 -91.4 25.5 -92.05 L26.8 -93.15 M26.0 -97.0 Q27.8 -95.6 27.8 -94.5 L27.8 -80.45 Q27.9 -79.25 25.9 -78.4 L21.9 -77.7 18.6 -78.15 17.85 -78.45 Q15.9 -79.25 16.0 -80.45 L16.0 -94.5 Q16.0 -95.6 17.8 -96.95 L19.3 -97.65 Q20.95 -98.25 21.85 -98.25 23.35 -98.25 26.0 -97.0 M25.75 -80.9 L26.8 -81.55 26.8 -91.55 25.75 -91.05 Q24.15 -90.4 21.9 -90.4 L18.6 -90.85 17.0 -91.55 17.0 -81.5 18.6 -80.65 21.9 -80.15 Q23.35 -80.15 25.75 -80.9 M26.8 -80.45 L26.8 -80.9 25.8 -80.35 25.75 -80.35 Q24.15 -79.65 21.9 -79.65 L18.6 -80.1 17.0 -80.9 17.0 -80.45 Q17.05 -80.05 18.6 -79.2 L21.9 -78.7 Q24.05 -78.7 25.5 -79.35 L26.8 -80.45" fill="#191919" fill-rule="evenodd" stroke="none"/>
  </g>
</svg>
