<?xml version="1.0" encoding="UTF-8" standalone="no"?>
<svg xmlns:ffdec="https://www.free-decompiler.com/flash" xmlns:xlink="http://www.w3.org/1999/xlink" ffdec:objectType="shape" height="48.0px" width="48.0px" xmlns="http://www.w3.org/2000/svg">
  <g transform="matrix(1.0, 0.0, 0.0, 1.0, 23.85, 23.7)">
    <path d="M0.15 -16.2 Q6.95 -16.2 11.8 -11.35 16.65 -6.5 16.65 0.3 16.65 2.95 15.95 5.25 15.0 8.2 12.9 10.75 L11.8 11.95 Q6.95 16.8 0.15 16.8 -6.65 16.8 -11.5 11.95 L-12.6 10.75 Q-14.7 8.2 -15.6 5.25 -16.35 2.95 -16.35 0.3 -16.35 -6.5 -11.5 -11.35 -6.65 -16.2 0.15 -16.2" fill="#6fe1ad" fill-rule="evenodd" stroke="none"/>
    <path d="M0.15 -23.7 Q10.1 -23.7 17.1 -16.7 24.15 -9.65 24.15 0.3 24.15 10.25 17.15 17.25 L17.1 17.3 Q10.1 24.3 0.15 24.3 -9.8 24.3 -16.85 17.25 -23.85 10.25 -23.85 0.3 -23.85 -9.65 -16.85 -16.7 -9.8 -23.7 0.15 -23.7 M15.0 -14.6 Q8.9 -20.7 0.15 -20.7 -8.55 -20.7 -14.7 -14.6 L-14.75 -14.55 Q-20.85 -8.4 -20.85 0.3 -20.85 9.05 -14.75 15.15 -8.6 21.3 0.15 21.3 8.85 21.3 15.0 15.15 21.15 9.0 21.15 0.3 21.15 -8.45 15.0 -14.6" fill="#56dc9f" fill-rule="evenodd" stroke="none"/>
  </g>
</svg>
