<?xml version="1.0" encoding="UTF-8" standalone="no"?>
<svg xmlns:ffdec="https://www.free-decompiler.com/flash" xmlns:xlink="http://www.w3.org/1999/xlink" ffdec:objectType="shape" height="22.4px" width="19.15px" xmlns="http://www.w3.org/2000/svg">
  <g transform="matrix(1.0, 0.0, 0.0, 1.0, 9.35, 9.5)">
    <path d="M6.95 -4.35 Q9.8 -1.4 9.8 2.8 9.8 7.0 6.95 9.95 4.2 12.9 0.2 12.9 -3.8 12.9 -6.6 9.95 -9.35 7.0 -9.35 2.8 -9.35 -1.4 -6.6 -4.35 -3.8 -7.3 0.2 -7.3 4.2 -7.3 6.95 -4.35" fill="#000000" fill-opacity="0.16078432" fill-rule="evenodd" stroke="none"/>
    <path d="M1.75 -4.75 Q1.05 -5.45 0.0 -5.45 -1.05 -5.45 -1.8 -4.75 -2.5 -4.0 -2.5 -2.95 -2.5 -1.9 -1.8 -1.2 -1.05 -0.45 0.0 -0.45 1.05 -0.45 1.75 -1.2 2.5 -1.9 2.5 -2.95 2.5 -4.0 1.75 -4.75 M5.55 -5.3 Q7.75 -3.1 7.75 0.0 7.75 3.1 5.55 5.3 3.35 7.5 0.25 7.5 -2.85 7.5 -5.05 5.3 -7.25 3.1 -7.25 0.0 -7.25 -3.1 -5.05 -5.3 -2.85 -7.5 0.25 -7.5 3.35 -7.5 5.55 -5.3" fill="#f00f0f" fill-rule="evenodd" stroke="none"/>
    <path d="M1.75 -4.75 Q2.5 -4.0 2.5 -2.95 2.5 -1.9 1.75 -1.2 1.05 -0.45 0.0 -0.45 -1.05 -0.45 -1.8 -1.2 -2.5 -1.9 -2.5 -2.95 -2.5 -4.0 -1.8 -4.75 -1.05 -5.45 0.0 -5.45 1.05 -5.45 1.75 -4.75" fill="#ff7e7e" fill-rule="evenodd" stroke="none"/>
    <path d="M0.25 -9.5 Q4.15 -9.5 6.95 -6.7 9.75 -3.9 9.75 0.0 9.75 3.9 6.95 6.7 4.15 9.5 0.25 9.5 -3.65 9.5 -6.45 6.7 -9.25 3.9 -9.25 0.0 -9.25 -3.9 -6.45 -6.7 -3.65 -9.5 0.25 -9.5 M5.55 -5.3 Q3.35 -7.5 0.25 -7.5 -2.85 -7.5 -5.05 -5.3 -7.25 -3.1 -7.25 0.0 -7.25 3.1 -5.05 5.3 -2.85 7.5 0.25 7.5 3.35 7.5 5.55 5.3 7.75 3.1 7.75 0.0 7.75 -3.1 5.55 -5.3" fill="#600606" fill-rule="evenodd" stroke="none"/>
  </g>
</svg>
