<?xml version="1.0" encoding="UTF-8" standalone="no"?>
<svg xmlns:ffdec="https://www.free-decompiler.com/flash" xmlns:xlink="http://www.w3.org/1999/xlink" ffdec:objectType="shape" height="12.3px" width="8.95px" xmlns="http://www.w3.org/2000/svg">
  <g transform="matrix(1.0, 0.0, 0.0, 1.0, 2.25, 2.7)">
    <path d="M2.45 -2.7 Q4.05 -2.7 5.2 -0.9 6.7 1.5 6.7 6.6 6.7 8.1 6.1 8.9 5.6 9.6 4.9 9.6 0.55 9.6 -0.9 8.7 -2.25 7.85 -2.25 5.25 -2.25 1.45 -0.75 -0.75 0.6 -2.7 2.45 -2.7 M-0.8 1.7 Q-1.8 4.2 -0.8 7.2 -0.1 8.7 2.25 8.65 L5.0 8.2 5.6 7.65 Q6.5 3.2 4.95 0.45 3.75 -1.65 2.25 -1.65 0.75 -1.65 -0.8 1.65 L-0.8 1.7" fill="#0d1117" fill-rule="evenodd" stroke="none"/>
    <path d="M2.1 -0.75 L1.25 -0.75 Q1.0 0.2 1.0 1.2 1.0 3.15 1.7 4.5 2.55 6.1 4.15 6.1 L4.9 5.9 4.9 5.4 Q5.35 2.55 3.8 0.65 L2.1 -0.75 M-0.8 1.7 L-0.8 1.65 Q0.75 -1.65 2.25 -1.65 3.75 -1.65 4.95 0.45 6.5 3.2 5.6 7.65 2.95 7.65 1.1 5.9 -0.75 4.2 -0.8 1.7" fill="#253041" fill-rule="evenodd" stroke="none"/>
    <path d="M2.1 -0.75 L3.8 0.65 Q5.35 2.55 4.9 5.4 L4.9 5.9 4.15 6.1 Q2.55 6.1 1.7 4.5 1.0 3.15 1.0 1.2 1.0 0.2 1.25 -0.75 L2.1 -0.75" fill="#364761" fill-rule="evenodd" stroke="none"/>
    <path d="M5.6 7.65 L5.0 8.2 2.25 8.65 Q-0.1 8.7 -0.8 7.2 -1.8 4.2 -0.8 1.7 -0.75 4.2 1.1 5.9 2.95 7.65 5.6 7.65" fill="#19202c" fill-rule="evenodd" stroke="none"/>
    <path d="M4.2 -0.6 L5.3 -0.75 Q5.85 0.15 6.2 1.5 L5.4 1.35 4.95 0.45 4.2 -0.6 M-0.95 2.1 L-2.0 2.5 -1.2 0.0 0.25 -0.15 -0.8 1.65 -0.8 1.7 -0.95 2.1 M5.95 4.35 L6.65 4.35 6.7 6.6 5.8 6.5 5.95 4.35 M-0.85 7.0 L-2.0 7.2 -2.25 5.35 -1.25 5.15 -0.85 7.0" fill="#432300" fill-rule="evenodd" stroke="none"/>
    <path d="M-0.8 2.05 L-0.95 2.1 -0.8 1.7 -0.8 2.05 M1.8 6.5 L-0.85 7.0 -1.25 5.15 0.2 4.9 1.1 5.9 1.8 6.5" fill="#93530d" fill-rule="evenodd" stroke="none"/>
    <path d="M2.65 -0.45 L4.2 -0.6 4.95 0.45 5.4 1.35 4.2 1.25 3.8 0.65 2.65 -0.45 M1.0 1.5 Q0.1 1.7 -0.8 2.05 L-0.8 1.7 -0.8 1.65 0.25 -0.15 1.15 -0.25 1.0 1.2 1.0 1.5 M5.8 6.5 L3.15 6.25 1.8 6.5 1.1 5.9 0.2 4.9 1.8 4.7 Q2.65 6.1 4.15 6.1 L4.9 5.9 4.9 5.4 5.0 4.4 5.95 4.35 5.8 6.5" fill="#c77112" fill-rule="evenodd" stroke="none"/>
    <path d="M1.15 -0.25 L2.65 -0.45 3.8 0.65 4.2 1.25 2.5 1.2 1.0 1.5 1.0 1.2 1.15 -0.25 M1.8 4.7 L4.7 4.45 5.0 4.4 4.9 5.4 4.9 5.9 4.15 6.1 Q2.65 6.1 1.8 4.7" fill="#eb8b21" fill-rule="evenodd" stroke="none"/>
  </g>
</svg>
