<?xml version="1.0" encoding="UTF-8" standalone="no"?>
<svg xmlns:ffdec="https://www.free-decompiler.com/flash" xmlns:xlink="http://www.w3.org/1999/xlink" ffdec:objectType="shape" height="44.8px" width="50.5px" xmlns="http://www.w3.org/2000/svg">
  <g transform="matrix(1.0, 0.0, 0.0, 1.0, 26.85, 32.95)">
    <path d="M-10.8 -19.15 L-11.85 -23.25 -13.15 -25.8 Q-13.9 -27.1 -13.9 -27.65 -13.9 -29.5 -7.05 -31.35 -1.1 -32.95 1.9 -32.95 6.75 -32.95 8.35 -31.35 9.75 -29.95 9.75 -25.8 9.75 -23.3 8.7 -14.65 L7.7 -7.25 7.55 -6.4 7.35 -6.2 Q6.7 -5.65 5.35 -5.5 L8.15 -29.15 4.85 -30.2 1.4 -30.9 -2.25 -30.5 -11.5 -27.3 Q-8.9 -21.45 -8.2 -15.9 -7.75 -13.9 -9.15 -10.15 -10.6 -6.45 -12.55 -4.4 -13.0 -6.7 -12.25 -8.1 L-11.1 -9.6 Q-10.05 -11.15 -10.05 -13.6 L-10.25 -16.35 -10.4 -17.2 -10.8 -19.15" fill="#5c4730" fill-rule="evenodd" stroke="none"/>
    <path d="M-12.55 -4.4 Q-10.6 -6.45 -9.15 -10.15 -7.75 -13.9 -8.2 -15.9 -3.3 -15.05 -0.1 -12.6 3.25 -10.05 5.15 -5.5 L-2.35 -5.1 -9.0 -4.8 -8.95 -1.0 -9.15 -1.05 -13.05 -2.65 Q-12.45 -4.0 -12.55 -4.4" fill="#f1ba87" fill-rule="evenodd" stroke="none"/>
    <path d="M-8.2 -15.9 Q-8.9 -21.45 -11.5 -27.3 L-2.25 -30.5 1.4 -30.9 4.85 -30.2 8.15 -29.15 5.35 -5.5 5.15 -5.5 Q3.25 -10.05 -0.1 -12.6 -3.3 -15.05 -8.2 -15.9" fill="#db9c64" fill-rule="evenodd" stroke="none"/>
    <path d="M5.35 -5.5 Q6.7 -5.65 7.35 -6.2 L7.55 -6.4 7.7 -7.25 9.65 -6.85 Q10.45 -6.45 10.45 -5.85 L7.4 -4.9 2.9 -4.2 -2.25 -4.0 -2.65 -4.8 -2.35 -5.1 5.15 -5.5 5.35 -5.5 M12.45 -18.6 Q18.05 -16.3 20.5 -13.05 23.0 -9.75 23.65 -3.65 L22.3 -5.9 20.5 -8.85 20.5 -8.9 17.75 -13.5 Q17.2 -14.0 10.95 -16.8 L12.45 -18.6 M11.65 7.1 Q8.55 8.65 7.35 9.0 L4.8 9.35 11.65 7.1 M-14.2 0.25 L-15.9 5.05 -16.4 5.05 -18.1 4.35 -16.65 5.05 -19.9 3.95 -20.85 -1.35 -18.7 -4.15 -18.35 -0.2 -17.85 -5.15 Q-16.15 -5.15 -15.3 -3.7 -14.6 -2.5 -14.2 0.25 M-22.05 -14.95 L-13.7 -18.25 -12.95 -16.4 Q-14.75 -15.6 -20.15 -13.55 L-22.05 -14.95 M10.4 -15.4 Q12.95 -14.2 14.3 -12.8 L15.3 -11.45 13.15 -11.1 10.75 -10.6 9.95 -10.8 9.4 -11.35 10.4 -15.4 M1.45 3.0 Q0.75 2.3 0.3 1.15 L-0.45 -0.9 1.45 3.0 M-12.85 -15.55 Q-12.65 -13.95 -13.25 -12.75 L-13.9 -11.25 Q-13.9 -10.4 -14.4 -8.95 -15.05 -7.35 -15.85 -6.65 -16.5 -7.2 -17.35 -10.2 -17.05 -11.75 -15.75 -13.2 L-14.5 -14.45 Q-14.5 -15.45 -12.85 -15.55" fill="#36310d" fill-rule="evenodd" stroke="none"/>
    <path d="M15.3 -11.45 L14.3 -12.8 Q12.95 -14.2 10.4 -15.4 L10.95 -16.8 Q17.2 -14.0 17.75 -13.5 L20.5 -8.9 Q20.0 -9.5 17.9 -10.45 L15.3 -11.45 M7.4 -4.9 L10.45 -5.85 11.8 -2.95 11.75 -2.85 Q10.6 -4.2 7.4 -4.9" fill="#70661a" fill-rule="evenodd" stroke="none"/>
    <path d="M8.85 -15.9 L9.05 -17.55 10.95 -16.8 10.4 -15.4 8.85 -15.9 M15.3 -11.45 L17.9 -10.45 Q20.0 -9.5 20.5 -8.9 L20.5 -8.85 21.15 -5.55 Q18.15 -3.3 16.05 -2.5 L12.4 -1.3 11.95 -2.6 11.8 -2.95 10.45 -5.85 Q14.5 -7.9 14.7 -8.2 15.1 -8.7 15.3 -11.45 M12.2 0.65 L12.6 2.2 13.0 4.2 9.8 5.6 Q11.0 3.8 12.2 0.65 M-20.15 -9.45 L-20.05 -9.45 -20.05 -9.3 -19.7 -4.65 -24.75 -2.8 -21.35 -9.45 -20.15 -9.45 M-2.3 4.5 L-4.05 0.55 Q-1.45 -3.1 0.8 4.1 L-5.05 6.35 -2.3 4.5" fill="#33321e" fill-rule="evenodd" stroke="none"/>
    <path d="M-10.8 -19.15 L-10.4 -17.2 -12.95 -16.4 -13.7 -18.25 -10.8 -19.15 M-10.25 -16.35 L-10.05 -13.6 Q-10.05 -11.15 -11.1 -9.6 L-12.25 -8.1 Q-13.0 -6.7 -12.55 -4.4 -12.45 -4.0 -13.05 -2.65 L-14.2 0.25 Q-14.6 -2.5 -15.3 -3.7 -16.15 -5.15 -17.85 -5.15 L-17.35 -10.2 Q-16.5 -7.2 -15.85 -6.65 -15.05 -7.35 -14.4 -8.95 -13.9 -10.4 -13.9 -11.25 L-13.25 -12.75 Q-12.65 -13.95 -12.85 -15.55 L-10.25 -16.35 M7.7 -7.25 L8.7 -14.65 8.85 -15.9 10.4 -15.4 9.4 -11.35 9.95 -10.8 10.75 -10.6 13.15 -11.1 15.3 -11.45 Q15.1 -8.7 14.7 -8.2 14.5 -7.9 10.45 -5.85 10.45 -6.45 9.65 -6.85 L7.7 -7.25 M9.05 -17.55 L9.3 -19.6 12.45 -18.6 10.95 -16.8 9.05 -17.55 M13.2 6.4 L11.65 7.1 4.8 9.35 2.45 9.8 1.4 6.0 -12.15 11.2 -9.15 -1.05 -8.95 -1.0 -9.0 -4.8 -2.35 -5.1 -2.65 -4.8 -2.25 -4.0 Q-6.95 -4.25 -6.9 -2.7 L-7.25 1.7 Q-7.6 4.15 -8.85 7.7 L-3.55 4.1 -5.35 0.05 -2.45 -2.15 -0.45 -0.9 0.3 1.15 Q0.75 2.3 1.45 3.0 L3.0 7.75 9.8 5.6 13.0 4.2 Q12.9 5.85 13.2 6.4 M-20.85 -1.35 L-21.2 -3.0 -26.85 -0.55 Q-26.05 -2.2 -26.05 -4.8 L-26.2 -9.1 Q-26.25 -14.05 -22.05 -14.95 L-20.15 -13.55 -23.4 -12.05 -23.75 -6.7 -21.7 -11.4 -20.15 -9.45 -21.35 -9.45 -24.75 -2.8 -19.7 -4.65 -20.05 -9.3 -19.15 -8.2 -18.7 -4.15 -20.85 -1.35 M21.15 -5.55 L20.5 -8.85 22.3 -5.9 21.15 -5.55 M-2.3 4.5 L-5.05 6.35 0.8 4.1 Q-1.45 -3.1 -4.05 0.55 L-2.3 4.5 M-16.4 5.05 L-16.05 5.4 -16.65 5.05 -18.1 4.35 -16.4 5.05" fill="#1c1b11" fill-rule="evenodd" stroke="none"/>
    <path d="M-2.25 -4.0 L2.9 -4.2 7.4 -4.9 Q10.6 -4.2 11.75 -2.85 L12.15 -1.85 12.25 -1.2 11.9 0.25 Q10.4 -0.05 6.4 1.4 2.1 3.0 1.45 3.0 L-0.45 -0.9 Q-0.8 -2.15 -2.25 -4.0 M-18.7 -4.15 L-17.85 -5.15 -18.35 -0.2 -18.7 -4.15 M-17.35 -10.2 Q-19.2 -12.9 -20.15 -13.55 -14.75 -15.6 -12.95 -16.4 L-12.85 -15.55 Q-14.5 -15.45 -14.5 -14.45 L-15.75 -13.2 Q-17.05 -11.75 -17.35 -10.2" fill="#979427" fill-rule="evenodd" stroke="none"/>
    <path d="M11.75 -2.85 L11.95 -2.6 12.15 -1.85 11.75 -2.85 M12.25 -1.2 L12.4 -1.3 12.2 0.65 11.9 0.25 12.25 -1.2" fill="#dfda1e" fill-rule="evenodd" stroke="none"/>
    <path d="M-10.4 -17.2 L-10.25 -16.35 -12.85 -15.55 -12.95 -16.4 -10.4 -17.2 M11.95 -2.6 L12.4 -1.3 12.25 -1.2 12.15 -1.85 11.95 -2.6 M11.9 0.25 L12.2 0.65 Q11.0 3.8 9.8 5.6 L3.0 7.75 1.45 3.0 Q2.1 3.0 6.4 1.4 10.4 -0.05 11.9 0.25 M-0.45 -0.9 L-2.45 -2.15 -5.35 0.05 -3.55 4.1 -8.85 7.7 Q-7.6 4.15 -7.25 1.7 L-6.9 -2.7 Q-6.95 -4.25 -2.25 -4.0 -0.8 -2.15 -0.45 -0.9 M-20.15 -9.45 L-21.7 -11.4 -23.75 -6.7 -23.4 -12.05 -20.15 -13.55 Q-19.2 -12.9 -17.35 -10.2 L-17.85 -5.15 -18.7 -4.15 -19.15 -8.2 -20.05 -9.3 -20.05 -9.45 -20.15 -9.45" fill="#514f31" fill-rule="evenodd" stroke="none"/>
    <path d="M12.4 -1.3 L16.05 -2.5 Q18.15 -3.3 21.15 -5.55 20.7 -2.85 18.65 -0.15 16.25 3.0 13.0 4.2 L12.6 2.2 12.2 0.65 12.4 -1.3 M11.8 -2.95 L11.95 -2.6 11.75 -2.85 11.8 -2.95" fill="#ae9b17" fill-rule="evenodd" stroke="none"/>
    <path d="M23.65 -3.65 Q23.5 0.45 19.7 2.75 15.05 4.9 13.2 6.4 12.9 5.85 13.0 4.2 16.25 3.0 18.65 -0.15 20.7 -2.85 21.15 -5.55 L22.3 -5.9 23.65 -3.65 M-15.9 5.05 L-16.05 5.4 -17.65 11.85 Q-18.5 11.65 -18.7 10.35 L-19.9 3.95 -16.65 5.05 -16.05 5.4 -16.4 5.05 -15.9 5.05" fill="#51480b" fill-rule="evenodd" stroke="none"/>
  </g>
</svg>
