<?xml version="1.0" encoding="UTF-8" standalone="no"?>
<svg xmlns:ffdec="https://www.free-decompiler.com/flash" xmlns:xlink="http://www.w3.org/1999/xlink" ffdec:objectType="shape" height="252.45px" width="99.1px" xmlns="http://www.w3.org/2000/svg">
  <g transform="matrix(1.0, 0.0, 0.0, 1.0, 4.75, 252.35)">
    <path d="M57.2 -14.3 L57.25 -14.3 57.25 -14.25 57.25 -14.2 57.2 -14.3" fill="#e7a87e" fill-rule="evenodd" stroke="none"/>
    <path d="M36.0 -17.9 Q39.85 -19.55 45.2 -19.55 L45.45 -19.55 Q50.65 -19.5 54.35 -17.9 58.45 -16.1 58.4 -13.5 L58.35 -12.9 58.35 -5.95 Q58.35 -4.45 57.45 -3.6 L57.4 -3.6 55.65 -2.3 54.3 -1.55 51.9 -0.7 50.65 -0.4 45.45 0.1 45.2 0.1 45.05 0.1 43.9 0.1 42.75 0.0 42.75 0.05 41.9 -0.05 40.65 -0.25 Q38.15 -0.65 36.05 -1.55 32.55 -3.3 32.1 -5.05 L32.1 -14.35 Q32.65 -16.4 36.0 -17.9 M57.2 -14.3 Q56.65 -15.8 53.95 -17.0 50.45 -18.5 45.45 -18.55 L45.2 -18.55 Q40.05 -18.55 36.4 -17.0 33.05 -15.5 33.0 -13.5 L33.0 -13.4 33.1 -12.45 Q32.8 -12.0 33.0 -11.05 L33.0 -10.55 33.05 -5.55 33.05 -5.45 Q33.4 -3.95 35.7 -2.8 L35.75 -2.8 36.4 -2.5 37.8 -1.95 Q41.05 -0.9 45.2 -0.9 L45.45 -0.9 Q50.45 -0.95 53.95 -2.5 L54.55 -2.8 54.6 -2.8 55.1 -3.15 56.75 -4.35 56.75 -4.4 Q57.35 -4.95 57.35 -5.95 L57.35 -11.05 57.2 -10.9 57.25 -11.6 57.25 -12.75 57.35 -13.05 57.35 -13.1 57.4 -13.5 57.25 -14.25 57.25 -14.3 57.2 -14.3" fill="#151515" fill-rule="evenodd" stroke="none"/>
    <path d="M57.2 -10.9 L57.35 -11.05 57.35 -5.95 Q57.35 -4.95 56.75 -4.4 L56.75 -4.35 55.1 -3.15 54.6 -2.8 54.55 -2.8 53.95 -2.5 53.95 -3.05 53.7 -8.85 53.75 -8.85 53.8 -8.9 53.85 -8.9 54.0 -9.0 54.3 -9.1 54.7 -9.3 54.65 -9.3 55.75 -9.85 Q56.65 -10.35 57.2 -10.9 M37.8 -1.95 L36.4 -2.5 35.75 -2.8 35.7 -2.8 Q33.4 -3.95 33.05 -5.45 L33.05 -5.55 33.0 -10.55 33.0 -11.05 33.9 -10.25 34.7 -9.75 35.6 -9.3 36.05 -9.1 37.75 -8.45 37.85 -5.4 37.8 -1.95" fill="#303030" fill-rule="evenodd" stroke="none"/>
    <path d="M53.95 -2.5 Q50.45 -0.95 45.45 -0.9 L45.2 -0.9 Q41.05 -0.9 37.8 -1.95 L37.85 -5.4 37.75 -8.45 Q41.0 -7.45 45.2 -7.45 L45.45 -7.45 Q50.25 -7.5 53.7 -8.85 L53.95 -3.05 53.95 -2.5 M36.05 -13.45 Q36.15 -14.65 38.55 -15.5 41.3 -16.55 45.2 -16.55 L45.45 -16.55 Q49.15 -16.5 51.75 -15.5 54.2 -14.65 54.3 -13.45 54.2 -12.25 51.75 -11.35 L51.8 -11.35 51.3 -11.2 Q48.85 -10.4 45.45 -10.35 L45.2 -10.35 Q41.6 -10.35 39.0 -11.2 L38.5 -11.35 38.55 -11.35 Q36.15 -12.25 36.05 -13.45" fill="#515151" fill-rule="evenodd" stroke="none"/>
    <path d="M33.1 -12.45 L33.0 -13.4 33.0 -13.5 Q33.05 -15.5 36.4 -17.0 40.05 -18.55 45.2 -18.55 L45.45 -18.55 Q50.45 -18.5 53.95 -17.0 56.65 -15.8 57.2 -14.3 L57.25 -14.2 57.25 -14.25 57.4 -13.5 57.35 -13.1 57.35 -13.05 57.25 -12.75 Q56.9 -11.75 55.65 -10.95 55.05 -10.55 54.25 -10.2 L54.15 -10.15 54.0 -10.05 53.95 -10.05 Q50.45 -8.5 45.45 -8.45 L45.2 -8.45 Q40.05 -8.45 36.4 -10.05 L36.35 -10.05 36.05 -10.2 34.75 -10.9 Q33.75 -11.6 33.1 -12.45 M36.05 -13.45 Q36.15 -12.25 38.55 -11.35 L38.5 -11.35 39.0 -11.2 Q41.6 -10.35 45.2 -10.35 L45.45 -10.35 Q48.85 -10.4 51.3 -11.2 L51.8 -11.35 51.75 -11.35 Q54.2 -12.25 54.3 -13.45 54.2 -14.65 51.75 -15.5 49.15 -16.5 45.45 -16.55 L45.2 -16.55 Q41.3 -16.55 38.55 -15.5 36.15 -14.65 36.05 -13.45" fill="#696969" fill-rule="evenodd" stroke="none"/>
    <path d="M57.25 -12.75 L57.25 -11.6 57.2 -10.9 Q56.65 -10.35 55.75 -9.85 L54.65 -9.3 54.7 -9.3 54.3 -9.1 54.0 -9.0 53.85 -8.9 53.8 -8.9 53.75 -8.85 53.7 -8.85 Q50.25 -7.5 45.45 -7.45 L45.2 -7.45 Q41.0 -7.45 37.75 -8.45 L36.05 -9.1 35.6 -9.3 34.7 -9.75 33.9 -10.25 33.0 -11.05 Q32.8 -12.0 33.1 -12.45 33.75 -11.6 34.75 -10.9 L36.05 -10.2 36.35 -10.05 36.4 -10.05 Q40.05 -8.45 45.2 -8.45 L45.45 -8.45 Q50.45 -8.5 53.95 -10.05 L54.0 -10.05 54.15 -10.15 54.25 -10.2 Q55.05 -10.55 55.65 -10.95 56.9 -11.75 57.25 -12.75" fill="#939393" fill-rule="evenodd" stroke="none"/>
    <path d="M30.9 -184.3 Q30.85 -184.75 31.15 -185.05 L31.85 -185.4 32.55 -185.15 32.9 -184.45 44.7 -21.2 64.95 -135.05 Q65.0 -135.5 65.35 -135.7 L66.1 -135.85 66.75 -135.45 66.9 -134.7 45.25 -13.15 45.1 -12.6 44.85 -12.3 44.7 -12.25 44.65 -12.2 44.35 -12.15 43.7 -12.3 43.45 -12.55 43.35 -12.7 43.25 -13.05 21.45 -115.2 Q21.35 -115.6 21.55 -115.95 21.8 -116.3 22.2 -116.35 L22.95 -116.25 23.4 -115.6 42.25 -27.45 30.9 -184.3" fill="#363636" fill-rule="evenodd" stroke="none"/>
    <path d="M35.75 -242.6 Q39.3 -241.2 39.9 -238.85 40.5 -236.5 35.95 -236.0 L34.75 -235.85 30.85 -235.25 30.7 -235.2 30.35 -235.1 29.4 -234.85 20.75 -232.25 18.25 -231.7 Q14.6 -231.3 16.4 -234.85 L17.0 -235.9 Q19.25 -239.65 23.15 -241.55 27.6 -243.7 29.9 -243.85 32.2 -244.0 35.75 -242.6 M36.45 -232.25 L36.9 -232.85 Q37.95 -233.85 39.4 -233.85 40.85 -233.85 41.85 -232.85 42.9 -231.8 42.9 -230.35 42.9 -228.9 41.85 -227.9 40.85 -226.85 39.4 -226.85 37.95 -226.85 36.9 -227.9 36.25 -228.55 36.05 -229.35 35.9 -229.8 35.9 -230.35 35.9 -231.4 36.45 -232.25" fill="#ffffff" fill-rule="evenodd" stroke="none"/>
    <path d="M12.55 -242.15 Q5.3 -233.8 5.85 -220.0 6.4 -206.35 15.3 -196.35 24.05 -186.65 30.25 -185.95 36.35 -185.4 44.35 -197.1 52.4 -209.2 52.4 -221.55 52.4 -234.0 45.7 -242.6 39.0 -251.05 29.35 -250.85 19.6 -250.6 12.55 -242.15 M4.35 -219.95 Q3.8 -234.4 11.4 -243.15 19.0 -252.1 29.35 -252.35 39.8 -252.6 46.95 -243.55 53.95 -234.65 53.95 -221.55 53.95 -208.75 45.65 -196.3 40.45 -188.75 35.95 -185.95 L36.35 -186.1 36.9 -182.15 35.5 -182.4 34.9 -181.3 32.6 -181.8 31.9 -180.25 30.7 -180.45 30.25 -181.3 28.0 -181.5 Q27.15 -182.1 27.75 -183.15 L28.6 -184.65 25.5 -185.85 Q20.4 -188.4 14.15 -195.35 4.85 -205.7 4.35 -219.95 M30.0 -182.85 L31.3 -181.6 32.45 -183.05 34.2 -182.25 35.8 -183.8 35.0 -185.4 Q33.75 -184.55 32.3 -184.35 L30.3 -184.4 29.3 -184.4 28.65 -182.15 30.0 -182.85" fill="#777777" fill-rule="evenodd" stroke="none"/>
    <path d="M35.75 -242.6 Q32.2 -244.0 29.9 -243.85 27.6 -243.7 23.15 -241.55 19.25 -239.65 17.0 -235.9 L16.4 -234.85 Q14.6 -231.3 18.25 -231.7 L20.75 -232.25 29.4 -234.85 30.35 -235.1 30.7 -235.2 30.85 -235.25 34.75 -235.85 35.95 -236.0 Q40.5 -236.5 39.9 -238.85 39.3 -241.2 35.75 -242.6 M36.45 -232.25 Q35.9 -231.4 35.9 -230.35 35.9 -229.8 36.05 -229.35 36.25 -228.55 36.9 -227.9 37.95 -226.85 39.4 -226.85 40.85 -226.85 41.85 -227.9 42.9 -228.9 42.9 -230.35 42.9 -231.8 41.85 -232.85 40.85 -233.85 39.4 -233.85 37.95 -233.85 36.9 -232.85 L36.45 -232.25 M18.4 -241.4 Q23.25 -246.1 30.05 -246.35 36.65 -246.4 41.3 -241.65 45.95 -236.75 46.15 -229.75 46.3 -222.75 41.9 -214.85 L40.85 -213.0 Q38.5 -209.3 35.95 -206.9 L35.4 -206.4 Q33.8 -205.0 32.1 -204.05 27.9 -201.8 22.55 -206.4 L22.1 -206.8 22.0 -206.9 19.65 -209.3 19.15 -209.85 Q17.65 -211.65 16.45 -213.4 11.85 -220.45 12.55 -227.65 13.45 -236.7 18.4 -241.4" fill="#f0f0f0" fill-rule="evenodd" stroke="none"/>
    <path d="M18.4 -241.4 Q13.45 -236.7 12.55 -227.65 11.85 -220.45 16.45 -213.4 17.65 -211.65 19.15 -209.85 L19.65 -209.3 22.0 -206.9 22.1 -206.8 22.55 -206.4 Q27.9 -201.8 32.1 -204.05 33.8 -205.0 35.4 -206.4 L35.95 -206.9 Q38.5 -209.3 40.85 -213.0 L41.9 -214.85 Q46.3 -222.75 46.15 -229.75 45.95 -236.75 41.3 -241.65 36.65 -246.4 30.05 -246.35 23.25 -246.1 18.4 -241.4 M8.5 -223.65 Q8.05 -234.85 14.45 -241.65 20.7 -248.45 29.35 -248.7 37.85 -248.85 43.8 -242.0 49.75 -235.0 49.75 -224.9 49.75 -219.2 47.45 -213.55 46.1 -210.3 44.0 -207.05 L42.6 -205.05 Q35.5 -195.55 30.1 -196.0 24.65 -196.5 16.9 -204.45 L16.35 -205.0 14.75 -206.9 Q13.15 -208.85 12.0 -210.9 8.8 -216.7 8.5 -223.65" fill="#e0e0e0" fill-rule="evenodd" stroke="none"/>
    <path d="M8.5 -223.65 Q8.8 -216.7 12.0 -210.9 13.15 -208.85 14.75 -206.9 L16.35 -205.0 16.9 -204.45 Q24.65 -196.5 30.1 -196.0 35.5 -195.55 42.6 -205.05 L44.0 -207.05 Q46.1 -210.3 47.45 -213.55 49.75 -219.2 49.75 -224.9 49.75 -235.0 43.8 -242.0 37.85 -248.85 29.35 -248.7 20.7 -248.45 14.45 -241.65 8.05 -234.85 8.5 -223.65 M12.55 -242.15 Q19.6 -250.6 29.35 -250.85 39.0 -251.05 45.7 -242.6 52.4 -234.0 52.4 -221.55 52.4 -209.2 44.35 -197.1 36.35 -185.4 30.25 -185.95 24.05 -186.65 15.3 -196.35 6.4 -206.35 5.85 -220.0 5.3 -233.8 12.55 -242.15 M30.0 -182.85 L28.65 -182.15 29.3 -184.4 30.3 -184.4 32.3 -184.35 Q33.75 -184.55 35.0 -185.4 L35.8 -183.8 34.2 -182.25 32.45 -183.05 31.3 -181.6 30.0 -182.85" fill="#d0d0d0" fill-rule="evenodd" stroke="none"/>
    <path d="M90.15 -174.15 Q89.9 -168.05 87.4 -162.8 86.0 -159.95 83.9 -157.35 L81.75 -154.95 Q74.0 -147.0 68.55 -146.5 63.15 -146.05 56.05 -155.55 L53.8 -159.0 53.75 -159.0 52.95 -160.45 50.9 -164.8 50.75 -165.3 Q48.9 -170.3 48.9 -175.4 48.9 -185.5 54.85 -192.5 60.8 -199.35 69.3 -199.2 77.95 -198.95 84.2 -192.15 90.6 -185.35 90.15 -174.15 M82.45 -164.25 Q86.8 -171.15 86.1 -178.15 85.2 -187.2 80.25 -191.9 75.4 -196.6 68.6 -196.85 62.0 -196.9 57.35 -192.15 52.7 -187.25 52.5 -180.25 52.35 -173.25 56.75 -165.35 L57.1 -164.7 Q59.45 -160.7 62.05 -158.05 64.2 -155.85 66.55 -154.55 71.0 -152.15 76.8 -157.45 L79.5 -160.35 82.45 -164.25" fill="#11cdec" fill-rule="evenodd" stroke="none"/>
    <path d="M90.15 -174.15 Q90.6 -185.35 84.2 -192.15 77.95 -198.95 69.3 -199.2 60.8 -199.35 54.85 -192.5 48.9 -185.5 48.9 -175.4 48.9 -170.3 50.75 -165.3 L50.9 -164.8 52.95 -160.45 53.75 -159.0 53.8 -159.0 56.05 -155.55 Q63.15 -146.05 68.55 -146.5 74.0 -147.0 81.75 -154.95 L83.9 -157.35 Q86.0 -159.95 87.4 -162.8 89.9 -168.05 90.15 -174.15 M86.1 -192.65 Q93.35 -184.3 92.8 -170.5 92.25 -156.85 83.35 -146.85 74.6 -137.15 68.4 -136.45 62.3 -135.9 54.3 -147.6 46.25 -159.7 46.25 -172.05 46.25 -184.5 52.95 -193.1 59.65 -201.55 69.3 -201.35 79.05 -201.1 86.1 -192.65 M69.35 -134.9 L70.0 -132.65 68.65 -133.35 67.35 -132.1 66.2 -133.55 64.45 -132.75 62.85 -134.3 63.65 -135.9 Q64.9 -135.05 66.35 -134.85 L68.35 -134.9 69.35 -134.9" fill="#00b9d7" fill-rule="evenodd" stroke="none"/>
    <path d="M83.35 -180.85 Q83.35 -182.3 82.3 -183.35 81.3 -184.35 79.85 -184.35 L79.4 -184.3 Q78.2 -184.2 77.35 -183.35 76.35 -182.3 76.35 -180.85 76.35 -179.4 77.35 -178.4 78.4 -177.35 79.85 -177.35 81.3 -177.35 82.3 -178.4 83.15 -179.2 83.3 -180.3 L83.35 -180.85 M82.45 -164.25 L79.5 -160.35 76.8 -157.45 Q71.0 -152.15 66.55 -154.55 64.2 -155.85 62.05 -158.05 59.45 -160.7 57.1 -164.7 L56.75 -165.35 Q52.35 -173.25 52.5 -180.25 52.7 -187.25 57.35 -192.15 62.0 -196.9 68.6 -196.85 75.4 -196.6 80.25 -191.9 85.2 -187.2 86.1 -178.15 86.8 -171.15 82.45 -164.25 M76.2 -193.1 Q72.65 -194.5 70.35 -194.35 68.05 -194.2 63.6 -192.05 59.15 -189.9 56.85 -185.35 54.55 -180.8 61.2 -182.75 L61.65 -182.85 64.85 -183.8 69.85 -185.35 76.4 -186.5 77.75 -186.7 Q79.9 -187.15 80.35 -188.25 L80.35 -189.35 Q79.75 -191.7 76.2 -193.1" fill="#4de6ff" fill-rule="evenodd" stroke="none"/>
    <path d="M83.35 -180.85 L83.3 -180.3 Q83.15 -179.2 82.3 -178.4 81.3 -177.35 79.85 -177.35 78.4 -177.35 77.35 -178.4 76.35 -179.4 76.35 -180.85 76.35 -182.3 77.35 -183.35 78.2 -184.2 79.4 -184.3 L79.85 -184.35 Q81.3 -184.35 82.3 -183.35 83.35 -182.3 83.35 -180.85 M76.2 -193.1 Q79.75 -191.7 80.35 -189.35 L80.35 -188.25 Q79.9 -187.15 77.75 -186.7 L76.4 -186.5 69.85 -185.35 64.85 -183.8 61.65 -182.85 61.2 -182.75 Q54.55 -180.8 56.85 -185.35 59.15 -189.9 63.6 -192.05 68.05 -194.2 70.35 -194.35 72.65 -194.5 76.2 -193.1" fill="#9af0ff" fill-rule="evenodd" stroke="none"/>
    <path d="M94.3 -170.45 Q93.8 -156.2 84.5 -145.85 78.25 -138.9 73.15 -136.35 L70.05 -135.15 70.9 -133.65 Q71.5 -132.6 70.65 -132.0 L68.4 -131.8 67.95 -130.95 66.75 -130.75 66.05 -132.3 63.75 -131.8 63.15 -132.9 61.75 -132.65 62.3 -136.6 62.7 -136.45 Q58.2 -139.25 53.0 -146.8 44.7 -159.25 44.7 -172.05 44.7 -185.15 51.7 -194.05 58.85 -203.1 69.3 -202.85 79.65 -202.6 87.25 -193.65 94.85 -184.9 94.3 -170.45 M86.1 -192.65 Q79.05 -201.1 69.3 -201.35 59.65 -201.55 52.95 -193.1 46.25 -184.5 46.25 -172.05 46.25 -159.7 54.3 -147.6 62.3 -135.9 68.4 -136.45 74.6 -137.15 83.35 -146.85 92.25 -156.85 92.8 -170.5 93.35 -184.3 86.1 -192.65 M69.35 -134.9 L68.35 -134.9 66.35 -134.85 Q64.9 -135.05 63.65 -135.9 L62.85 -134.3 64.45 -132.75 66.2 -133.55 67.35 -132.1 68.65 -133.35 70.0 -132.65 69.35 -134.9" fill="#007e93" fill-rule="evenodd" stroke="none"/>
    <path d="M2.25 -155.0 Q3.15 -148.4 8.6 -141.75 L8.9 -141.4 9.5 -140.65 Q11.7 -138.2 13.95 -136.5 L16.3 -134.9 Q18.05 -133.85 19.8 -133.3 22.25 -132.55 24.7 -133.75 28.0 -135.4 31.35 -140.5 L31.7 -141.1 Q37.8 -150.75 35.6 -159.1 33.4 -167.5 27.8 -171.0 22.35 -174.55 15.65 -173.55 9.2 -172.4 5.25 -167.1 1.45 -161.6 2.25 -155.0 M31.65 -171.95 Q38.95 -166.75 40.15 -156.1 41.1 -147.5 36.95 -139.9 L34.7 -136.45 31.95 -132.9 Q27.1 -127.25 22.95 -126.1 17.9 -124.75 10.05 -131.7 L9.6 -132.1 9.35 -132.35 Q6.55 -135.0 4.55 -137.75 0.4 -143.4 -0.6 -149.75 -2.05 -159.25 2.75 -166.95 7.6 -174.55 16.0 -175.9 24.55 -177.25 31.65 -171.95" fill="#1c6bd2" fill-rule="evenodd" stroke="none"/>
    <path d="M2.25 -155.0 Q1.45 -161.6 5.25 -167.1 9.2 -172.4 15.65 -173.55 22.35 -174.55 27.8 -171.0 33.4 -167.5 35.6 -159.1 37.8 -150.75 31.7 -141.1 L31.35 -140.5 Q28.0 -135.4 24.7 -133.75 22.25 -132.55 19.8 -133.3 18.05 -133.85 16.3 -134.9 L13.95 -136.5 Q11.7 -138.2 9.5 -140.65 L8.9 -141.4 8.6 -141.75 Q3.15 -148.4 2.25 -155.0 M28.3 -161.35 L27.5 -161.25 Q26.55 -161.05 25.8 -160.35 25.2 -159.7 24.95 -158.9 L24.8 -157.85 Q24.8 -156.4 25.8 -155.4 26.85 -154.35 28.3 -154.35 29.75 -154.35 30.75 -155.4 31.8 -156.4 31.8 -157.85 31.8 -159.3 30.75 -160.35 29.75 -161.35 28.3 -161.35 M18.8 -171.35 Q16.5 -171.2 12.05 -169.05 7.6 -166.9 5.3 -162.35 3.8 -159.35 6.15 -159.15 7.4 -159.1 9.65 -159.75 L10.9 -160.1 18.3 -162.35 20.35 -162.85 24.85 -163.5 25.45 -163.55 Q29.35 -164.15 28.8 -166.35 28.2 -168.7 24.65 -170.1 21.1 -171.5 18.8 -171.35" fill="#3686ee" fill-rule="evenodd" stroke="none"/>
    <path d="M18.8 -171.35 Q21.1 -171.5 24.65 -170.1 28.2 -168.7 28.8 -166.35 29.35 -164.15 25.45 -163.55 L24.85 -163.5 20.35 -162.85 18.3 -162.35 10.9 -160.1 9.65 -159.75 Q7.4 -159.1 6.15 -159.15 3.8 -159.35 5.3 -162.35 7.6 -166.9 12.05 -169.05 16.5 -171.2 18.8 -171.35 M28.3 -161.35 Q29.75 -161.35 30.75 -160.35 31.8 -159.3 31.8 -157.85 31.8 -156.4 30.75 -155.4 29.75 -154.35 28.3 -154.35 26.85 -154.35 25.8 -155.4 24.8 -156.4 24.8 -157.85 L24.95 -158.9 Q25.2 -159.7 25.8 -160.35 26.55 -161.05 27.5 -161.25 L28.3 -161.35" fill="#62a6ff" fill-rule="evenodd" stroke="none"/>
    <path d="M31.65 -171.95 Q24.55 -177.25 16.0 -175.9 7.6 -174.55 2.75 -166.95 -2.05 -159.25 -0.6 -149.75 0.4 -143.4 4.55 -137.75 6.55 -135.0 9.35 -132.35 L9.6 -132.1 10.05 -131.7 Q17.9 -124.75 22.95 -126.1 27.1 -127.25 31.95 -132.9 L34.7 -136.45 36.95 -139.9 Q41.1 -147.5 40.15 -156.1 38.95 -166.75 31.65 -171.95 M0.85 -167.2 Q6.15 -176.35 15.7 -177.9 25.3 -179.5 33.5 -172.75 41.8 -166.25 43.3 -153.15 44.8 -140.15 37.45 -129.1 30.25 -118.4 24.25 -116.6 18.35 -114.95 8.8 -124.55 -0.9 -134.5 -2.7 -146.15 -4.5 -157.9 0.85 -167.2 M19.7 -115.2 Q21.05 -114.6 22.5 -114.75 L24.45 -115.15 25.45 -115.35 26.4 -113.3 24.95 -113.7 23.9 -112.3 22.55 -113.45 20.95 -112.4 19.15 -113.55 19.7 -115.2" fill="#175cb6" fill-rule="evenodd" stroke="none"/>
    <path d="M34.45 -173.9 Q43.25 -167.05 44.8 -153.35 46.4 -139.8 38.75 -128.35 33.6 -120.7 29.0 -117.35 L26.1 -115.65 27.2 -114.4 Q27.9 -113.5 27.15 -112.8 L24.95 -112.2 24.65 -111.3 23.5 -110.9 22.55 -112.3 20.4 -111.35 19.65 -112.3 18.3 -111.8 18.25 -115.65 18.65 -115.55 Q13.85 -117.4 7.65 -123.55 -2.35 -133.8 -4.25 -145.85 -6.15 -158.2 -0.55 -167.9 5.15 -177.65 15.45 -179.35 25.7 -181.0 34.45 -173.9 M0.85 -167.2 Q-4.5 -157.9 -2.7 -146.15 -0.9 -134.5 8.8 -124.55 18.35 -114.95 24.25 -116.6 30.25 -118.4 37.45 -129.1 44.8 -140.15 43.3 -153.15 41.8 -166.25 33.5 -172.75 25.3 -179.5 15.7 -177.9 6.15 -176.35 0.85 -167.2 M19.7 -115.2 L19.15 -113.55 20.95 -112.4 22.55 -113.45 23.9 -112.3 24.95 -113.7 26.4 -113.3 25.45 -115.35 24.45 -115.15 22.5 -114.75 Q21.05 -114.6 19.7 -115.2" fill="#0a2f5f" fill-rule="evenodd" stroke="none"/>
  </g>
</svg>
