<?xml version="1.0" encoding="UTF-8" standalone="no"?>
<svg xmlns:ffdec="https://www.free-decompiler.com/flash" xmlns:xlink="http://www.w3.org/1999/xlink" ffdec:objectType="shape" height="82.9px" width="116.65px" xmlns="http://www.w3.org/2000/svg">
  <g transform="matrix(1.0, 0.0, 0.0, 1.0, 54.0, 63.85)">
    <path d="M-43.5 -9.15 Q-44.9 -17.2 -44.85 -19.9 -44.7 -37.1 -33.75 -49.9 L-33.25 -49.4 Q-35.15 -46.65 -39.05 -38.5 -42.15 -32.15 -43.5 -9.15 M-13.9 -63.85 Q-17.75 -60.5 -22.4 -50.65 -28.2 -38.35 -28.25 -28.1 L-29.1 -28.25 Q-30.15 -34.75 -25.45 -47.25 -21.25 -58.4 -13.9 -63.85 M-6.65 -60.1 L-5.9 -60.05 -11.2 -51.25 Q-15.7 -44.1 -15.45 -29.75 -15.25 -15.4 -8.05 3.75 L-10.95 -0.1 Q-13.4 -3.8 -14.15 -6.9 -17.1 -19.15 -16.8 -32.1 -16.4 -47.95 -6.65 -60.1 M22.1 -39.3 Q17.7 -30.95 17.45 -14.75 17.15 1.4 29.3 19.05 20.8 13.0 16.65 -1.75 12.5 -16.5 16.95 -29.35 21.4 -42.2 25.75 -53.45 26.5 -47.65 22.1 -39.3 M3.1 -19.7 Q2.4 -36.7 4.85 -44.8 7.3 -52.9 15.1 -60.1 -3.4 -38.3 8.5 1.95 3.75 -2.7 3.1 -19.7" fill="#a47620" fill-rule="evenodd" stroke="none"/>
    <path d="M31.15 -55.05 L29.95 -55.05 29.9 -55.0 29.4 -54.25 Q25.15 -50.75 16.75 -46.35 12.7 -44.25 10.1 -43.15 L10.5 -43.2 13.5 -43.35 16.5 -43.6 26.85 -44.9 28.1 -45.2 30.1 -45.8 31.4 -46.25 32.6 -46.8 32.65 -50.8 32.45 -53.5 32.2 -54.6 31.85 -55.05 31.15 -55.05 M29.65 -56.0 L29.65 -56.05 32.75 -56.05 33.9 -53.3 56.65 -49.45 Q59.5 -48.2 61.2 -44.1 62.15 -41.9 62.55 -39.5 62.8 -38.15 62.55 -37.4 62.4 -36.8 61.95 -36.55 L61.3 -36.3 Q48.2 -35.4 35.05 -36.3 L34.0 -38.4 33.6 -38.4 33.6 -38.3 33.4 -38.3 32.1 -38.0 30.0 -37.3 26.85 -36.45 Q18.75 -35.1 4.3 -34.65 L4.25 -34.65 4.0 -34.65 1.2 -34.6 -4.6 -34.55 Q-21.8 -34.65 -29.25 -35.95 -46.1 -38.8 -51.2 -40.5 -51.85 -40.7 -52.3 -41.0 -53.7 -41.7 -53.95 -42.55 L-53.95 -42.7 -54.0 -44.4 -53.55 -49.45 -47.95 -51.7 -46.75 -51.7 Q-48.25 -49.7 -48.15 -49.35 L-48.1 -48.7 Q-48.15 -48.35 -47.15 -47.65 L-45.7 -47.15 -45.75 -47.1 -32.9 -44.6 Q-25.3 -43.25 -20.0 -43.8 L-18.35 -43.55 -4.6 -43.0 2.55 -42.9 4.0 -42.9 4.3 -42.9 5.95 -42.95 6.15 -43.05 8.3 -43.65 11.6 -45.0 14.1 -46.0 Q15.6 -46.6 16.75 -47.3 L25.7 -52.8 28.55 -55.05 29.25 -55.75 29.65 -56.0 M38.55 -51.25 L35.35 -51.8 35.35 -39.2 44.75 -37.4 58.75 -37.4 Q59.65 -37.8 61.0 -39.65 60.7 -41.7 60.2 -42.65 59.55 -44.0 55.75 -48.1 L38.55 -51.25 M-18.8 -38.65 L-19.0 -36.75 -4.6 -36.2 1.85 -36.15 4.0 -36.15 4.5 -36.2 8.55 -36.35 27.3 -38.05 Q30.2 -38.5 31.55 -39.2 32.45 -39.65 32.7 -40.35 L33.0 -43.6 33.15 -44.35 33.3 -45.25 33.1 -45.15 32.35 -44.8 32.15 -44.7 29.0 -43.75 27.55 -43.45 27.15 -43.4 24.85 -43.0 22.25 -42.65 20.25 -42.4 9.6 -41.6 8.5 -41.55 7.2 -41.55 6.75 -41.55 5.55 -41.5 4.45 -41.5 4.0 -41.5 2.55 -41.55 -4.6 -41.7 -18.5 -42.0 -18.8 -38.65 M-43.55 -44.9 L-46.05 -45.55 -46.65 -40.4 Q-39.75 -38.65 -25.5 -37.2 L-25.25 -38.75 -24.7 -42.35 -43.55 -44.9 M-23.95 -37.1 L-20.7 -36.85 -20.0 -42.05 -23.2 -42.25 -23.95 -37.1 M-48.35 -40.85 L-47.5 -45.85 -52.2 -47.85 -52.25 -46.65 Q-52.45 -42.5 -52.2 -42.3 L-51.6 -42.2 Q-50.2 -41.95 -48.35 -40.85" fill="#121212" fill-rule="evenodd" stroke="none"/>
    <path d="M31.15 -55.05 L31.85 -55.05 32.2 -54.6 32.45 -53.5 32.65 -50.8 32.6 -46.8 31.4 -46.25 30.1 -45.8 28.1 -45.2 26.85 -44.9 16.5 -43.6 13.5 -43.35 16.8 -45.35 25.9 -50.5 Q29.8 -52.7 31.15 -55.05 M61.0 -39.65 Q59.65 -37.8 58.75 -37.4 L44.75 -37.4 35.35 -39.2 35.35 -51.8 38.55 -51.25 38.75 -40.75 Q49.8 -37.25 61.0 -39.65 M27.55 -43.45 L29.0 -43.75 32.15 -44.7 32.35 -44.8 33.1 -45.15 33.3 -45.25 33.15 -44.35 33.0 -43.6 32.7 -40.35 Q32.45 -39.65 31.55 -39.2 30.2 -38.5 27.3 -38.05 L8.55 -36.35 4.5 -36.2 4.0 -36.15 1.85 -36.15 -4.6 -36.2 -19.0 -36.75 -18.8 -38.65 Q-16.55 -38.45 -4.6 -38.4 L2.35 -38.4 4.0 -38.3 4.55 -38.35 17.05 -38.5 Q17.75 -38.6 19.0 -40.35 L19.85 -41.65 20.25 -42.4 22.25 -42.65 22.25 -42.25 22.3 -41.15 22.3 -39.45 24.85 -43.0 27.15 -43.4 27.3 -40.2 27.55 -43.45 M-43.55 -44.9 L-43.35 -43.15 Q-43.0 -41.4 -42.1 -41.45 L-40.35 -43.2 -39.45 -43.1 -39.0 -42.95 -38.8 -42.3 Q-38.7 -41.7 -38.85 -41.55 L-39.65 -40.9 Q-36.75 -39.75 -35.8 -39.9 L-35.2 -40.5 -34.0 -41.8 -33.7 -41.7 Q-33.45 -41.35 -33.25 -39.55 L-30.3 -39.25 -30.25 -39.5 Q-30.15 -39.9 -28.55 -41.05 L-27.9 -40.55 -27.7 -39.05 -25.25 -38.75 -25.5 -37.2 Q-39.75 -38.65 -46.65 -40.4 L-46.05 -45.55 -43.55 -44.9 M-48.35 -40.85 Q-50.2 -41.95 -51.6 -42.2 L-52.2 -42.3 Q-52.45 -42.5 -52.25 -46.65 L-52.2 -47.85 -47.5 -45.85 -48.35 -40.85 M-23.95 -37.1 L-23.2 -42.25 -20.0 -42.05 -20.7 -36.85 -23.95 -37.1" fill="#1f1f1f" fill-rule="evenodd" stroke="none"/>
    <path d="M13.5 -43.35 L10.5 -43.2 10.1 -43.15 Q12.7 -44.25 16.75 -46.35 25.15 -50.75 29.4 -54.25 L29.9 -55.0 29.95 -55.05 31.15 -55.05 Q29.8 -52.7 25.9 -50.5 L16.8 -45.35 13.5 -43.35 M61.0 -39.65 Q49.8 -37.25 38.75 -40.75 L38.55 -51.25 55.75 -48.1 Q59.55 -44.0 60.2 -42.65 60.7 -41.7 61.0 -39.65 M-18.8 -38.65 L-18.5 -42.0 -4.6 -41.7 2.55 -41.55 4.0 -41.5 4.45 -41.5 5.55 -41.5 6.75 -41.55 7.2 -41.55 8.5 -41.55 9.6 -41.6 20.25 -42.4 19.85 -41.65 19.0 -40.35 Q17.75 -38.6 17.05 -38.5 L4.55 -38.35 4.0 -38.3 2.35 -38.4 -4.6 -38.4 Q-16.55 -38.45 -18.8 -38.65 M22.25 -42.65 L24.85 -43.0 22.3 -39.45 22.3 -41.15 22.25 -42.25 22.25 -42.65 M27.15 -43.4 L27.55 -43.45 27.3 -40.2 27.15 -43.4 M-25.25 -38.75 L-27.7 -39.05 -27.9 -40.55 -28.55 -41.05 Q-30.15 -39.9 -30.25 -39.5 L-30.3 -39.25 -33.25 -39.55 Q-33.45 -41.35 -33.7 -41.7 L-34.0 -41.8 -35.2 -40.5 -35.8 -39.9 Q-36.75 -39.75 -39.65 -40.9 L-38.85 -41.55 Q-38.7 -41.7 -38.8 -42.3 L-39.0 -42.95 -39.45 -43.1 -40.35 -43.2 -42.1 -41.45 Q-43.0 -41.4 -43.35 -43.15 L-43.55 -44.9 -24.7 -42.35 -25.25 -38.75" fill="#333333" fill-rule="evenodd" stroke="none"/>
  </g>
</svg>
