<?xml version="1.0" encoding="UTF-8" standalone="no"?>
<svg xmlns:ffdec="https://www.free-decompiler.com/flash" xmlns:xlink="http://www.w3.org/1999/xlink" ffdec:objectType="shape" height="35.3px" width="54.35px" xmlns="http://www.w3.org/2000/svg">
  <g transform="matrix(1.0, 0.0, 0.0, 1.0, 31.25, 5.45)">
    <path d="M-0.8 10.25 Q0.9 9.2 2.5 9.2 4.1 9.2 4.65 8.45 5.4 7.5 6.25 7.2 L8.75 6.4 10.0 5.65 Q11.2 4.15 11.55 3.95 12.15 3.55 14.25 3.35 L14.35 3.35 Q12.5 -0.5 9.95 -1.9 6.65 -3.7 5.4 -5.3 9.55 -4.35 12.0 -2.4 14.75 -0.2 15.95 3.7 L20.8 6.05 Q21.85 6.85 22.5 8.45 23.1 9.9 23.1 11.45 23.1 17.3 18.6 18.3 18.15 18.95 17.85 20.45 17.2 22.1 14.4 24.05 L10.45 23.2 Q9.8 25.85 7.0 27.85 4.15 29.85 0.9 29.85 -0.85 29.85 -2.9 28.8 -6.55 26.95 -7.55 22.7 -9.0 16.75 -9.6 15.65 -10.7 13.75 -13.8 13.75 L-22.8 15.75 -25.9 16.05 Q-28.25 16.05 -29.8 14.05 -31.25 12.2 -31.25 9.65 -31.25 7.3 -30.65 5.65 -29.8 3.15 -27.85 3.15 L-21.55 3.95 Q-14.85 3.95 -9.2 0.1 -2.3 -4.65 0.1 -5.3 L-1.4 -3.25 -5.4 -0.8 Q-8.3 1.35 -10.95 2.75 -16.0 5.45 -20.85 5.45 L-27.6 4.65 Q-28.7 4.65 -29.25 6.05 L-29.7 7.85 -29.85 7.85 -29.85 8.6 -29.9 8.7 -29.85 8.65 Q-29.75 12.15 -28.5 13.55 -27.55 14.65 -25.4 14.65 L-23.45 14.45 -18.7 13.25 -13.95 12.25 Q-11.9 12.25 -10.15 12.95 L-5.5 15.15 Q-6.0 15.65 -5.25 15.2 L-5.15 15.4 -6.0 15.65 -6.85 15.55 -8.05 15.55 -7.1 19.55 Q-6.45 22.5 -4.15 25.15 -2.1 27.55 0.0 28.35 4.3 28.65 7.0 25.95 9.55 23.45 9.55 19.55 9.55 17.25 7.15 14.2 4.65 11.05 2.5 11.05 0.7 11.05 -0.05 11.9 -0.95 12.85 -0.75 15.1 L-0.45 16.8 1.35 22.45 0.45 22.2 -0.8 20.05 -1.25 19.55 -1.35 19.6 -2.45 19.9 -3.45 19.5 -3.15 19.25 -2.6 19.0 -1.7 17.9 -2.3 15.6 -2.4 14.6 -1.9 11.9 -0.8 10.25 M11.5 7.55 Q13.15 7.8 15.75 10.35 18.9 13.4 18.6 16.4 L20.45 14.65 Q21.6 13.0 21.6 11.2 21.6 9.8 21.2 8.7 20.8 7.65 20.2 7.4 16.05 5.35 14.8 4.55 15.15 4.85 14.2 4.85 L13.2 4.9 Q12.5 4.9 12.0 5.7 11.5 6.45 11.5 7.55 M6.7 5.8 L7.2 4.45 7.35 2.8 Q7.95 3.85 7.8 4.5 L7.2 5.95 6.7 5.8 M13.0 9.65 L9.6 8.95 7.3 8.55 Q6.4 8.55 5.65 9.45 5.95 10.9 9.05 15.25 11.55 18.75 10.85 21.75 L13.0 22.25 13.1 22.25 Q15.3 22.0 16.35 20.85 17.2 19.95 17.2 18.8 L16.55 15.2 Q15.4 11.4 13.0 9.65" fill="#5c4730" fill-rule="evenodd" stroke="none"/>
    <path d="M-0.8 10.25 L-1.9 11.9 -2.7 14.05 -3.1 15.55 Q-3.1 18.25 -2.6 19.0 L-3.15 19.25 -3.45 19.5 -2.45 19.9 -3.95 20.1 -3.9 20.35 -3.05 20.8 -1.75 20.75 -1.85 22.9 -1.75 22.1 Q-1.65 21.45 -1.05 21.45 -0.5 21.45 0.0 21.9 L0.45 22.2 1.35 22.45 -0.45 16.8 -0.75 15.1 Q0.15 12.6 1.4 12.6 2.5 12.6 4.05 13.95 6.1 15.8 6.1 18.55 6.1 23.45 3.6 26.0 L0.0 28.35 Q-2.1 27.55 -4.15 25.15 -6.45 22.5 -7.1 19.55 L-6.8 18.15 -5.15 15.4 -4.85 15.0 Q-5.05 14.9 -5.5 15.15 L-10.15 12.95 Q-11.9 12.25 -13.95 12.25 L-18.7 13.25 -23.45 14.45 -25.4 14.65 Q-27.55 14.65 -28.5 13.55 -29.75 12.15 -29.85 8.65 L-28.05 6.95 -26.95 6.2 -25.65 6.35 -21.05 7.05 -18.0 7.45 Q-13.25 7.45 -9.85 4.75 -7.55 2.9 -5.4 -0.8 L-1.4 -3.25 Q1.4 -4.05 2.9 -4.05 4.8 -4.05 6.25 -0.75 7.15 1.35 7.35 2.8 L7.2 4.45 6.7 5.8 Q4.7 6.4 4.0 7.2 L3.65 7.9 0.7 7.9 Q0.1 8.1 -0.8 10.25 M-29.85 8.6 L-29.85 7.85 -29.7 7.85 -29.65 7.95 -29.85 8.6 M11.5 7.55 Q11.5 6.45 12.0 5.7 12.5 4.9 13.2 4.9 15.85 5.9 17.2 6.85 19.8 8.65 19.8 11.25 L19.55 13.05 19.1 11.7 Q19.05 9.4 16.7 7.85 14.95 6.65 13.9 6.65 13.2 6.65 12.4 7.0 11.65 7.3 11.5 7.55 M5.65 9.45 Q6.4 8.55 7.3 8.55 L9.6 8.95 13.0 9.65 Q15.05 12.15 15.85 15.25 L16.2 18.0 Q16.2 18.85 15.6 19.65 L13.1 22.25 13.0 22.25 13.25 21.8 13.35 21.0 Q13.35 17.8 11.55 14.55 9.35 10.55 5.65 9.45" fill="#ce9255" fill-rule="evenodd" stroke="none"/>
    <path d="M5.4 -5.3 Q6.65 -3.7 9.95 -1.9 12.5 -0.5 14.35 3.35 L14.25 3.35 Q12.15 3.55 11.55 3.95 11.2 4.15 10.0 5.65 L8.75 6.4 6.25 7.2 Q5.4 7.5 4.65 8.45 4.1 9.2 2.5 9.2 0.9 9.2 -0.8 10.25 0.1 8.1 0.7 7.9 L3.65 7.9 4.0 7.2 Q4.7 6.4 6.7 5.8 L7.2 5.95 7.8 4.5 Q7.95 3.85 7.35 2.8 7.15 1.35 6.25 -0.75 4.8 -4.05 2.9 -4.05 1.4 -4.05 -1.4 -3.25 L0.1 -5.3 Q2.7 -5.6 5.4 -5.3 M-1.9 11.9 L-2.4 14.6 -2.3 15.6 -1.7 17.9 -2.6 19.0 Q-3.1 18.25 -3.1 15.55 L-2.7 14.05 -1.9 11.9 M-2.45 19.9 L-1.35 19.6 -1.25 19.55 -0.8 20.05 0.45 22.2 0.0 21.9 Q-0.5 21.45 -1.05 21.45 -1.65 21.45 -1.75 22.1 L-1.85 22.9 -1.75 20.75 -3.05 20.8 -3.9 20.35 -3.95 20.1 -2.45 19.9 M-0.75 15.1 Q-0.95 12.85 -0.05 11.9 0.7 11.05 2.5 11.05 4.65 11.05 7.15 14.2 9.55 17.25 9.55 19.55 9.55 23.45 7.0 25.95 4.3 28.65 0.0 28.35 L3.6 26.0 Q6.1 23.45 6.1 18.55 6.1 15.8 4.05 13.95 2.5 12.6 1.4 12.6 0.15 12.6 -0.75 15.1 M-7.1 19.55 L-8.05 15.55 -6.85 15.55 -6.0 15.65 -5.15 15.4 -5.25 15.2 Q-6.0 15.65 -5.5 15.15 -5.05 14.9 -4.85 15.0 L-5.15 15.4 -6.8 18.15 -7.1 19.55 M-29.85 8.65 L-29.9 8.7 -29.85 8.6 -29.65 7.95 -29.7 7.85 -29.25 6.05 Q-28.7 4.65 -27.6 4.65 L-20.85 5.45 Q-16.0 5.45 -10.95 2.75 -8.3 1.35 -5.4 -0.8 -7.55 2.9 -9.85 4.75 -13.25 7.45 -18.0 7.45 L-21.05 7.05 -25.65 6.35 -26.95 6.2 -28.05 6.95 -29.85 8.65 M13.2 4.9 L14.2 4.85 Q15.15 4.85 14.8 4.55 16.05 5.35 20.2 7.4 20.8 7.65 21.2 8.7 21.6 9.8 21.6 11.2 21.6 13.0 20.45 14.65 L18.6 16.4 Q18.9 13.4 15.75 10.35 13.15 7.8 11.5 7.55 11.65 7.3 12.4 7.0 13.2 6.65 13.9 6.65 14.95 6.65 16.7 7.85 19.05 9.4 19.1 11.7 L19.55 13.05 19.8 11.25 Q19.8 8.65 17.2 6.85 15.85 5.9 13.2 4.9 M5.65 9.45 Q9.35 10.55 11.55 14.55 13.35 17.8 13.35 21.0 L13.25 21.8 13.0 22.25 10.85 21.75 Q11.55 18.75 9.05 15.25 5.95 10.9 5.65 9.45 M13.1 22.25 L15.6 19.65 Q16.2 18.85 16.2 18.0 L15.85 15.25 Q15.05 12.15 13.0 9.65 15.4 11.4 16.55 15.2 L17.2 18.8 Q17.2 19.95 16.35 20.85 15.3 22.0 13.1 22.25" fill="#bf824a" fill-rule="evenodd" stroke="none"/>
  </g>
</svg>
