<?xml version="1.0" encoding="UTF-8" standalone="no"?>
<svg xmlns:ffdec="https://www.free-decompiler.com/flash" xmlns:xlink="http://www.w3.org/1999/xlink" ffdec:objectType="shape" height="144.3px" width="91.6px" xmlns="http://www.w3.org/2000/svg">
  <g transform="matrix(1.0, 0.0, 0.0, 1.0, 39.85, 38.75)">
    <path d="M14.45 -8.1 L-1.2 13.85 -13.15 8.35 -10.9 3.1 -0.9 11.5 8.0 -11.65 14.45 -8.1" fill="#31f00f" fill-rule="evenodd" stroke="none"/>
    <path d="M15.95 -9.4 L17.15 -8.7 16.7 -8.1 -0.5 16.2 -15.45 9.25 -15.6 9.25 -11.65 0.05 -1.7 8.35 6.95 -14.35 15.95 -9.4 M14.45 -8.1 L8.0 -11.65 -0.9 11.5 -10.9 3.1 -13.15 8.35 -1.2 13.85 14.45 -8.1" fill="#1c8a09" fill-rule="evenodd" stroke="none"/>
    <path d="M29.5 -26.9 L31.0 -25.5 28.9 -23.45 32.75 -18.6 35.3 -20.0 36.2 -18.4 Q41.45 -9.4 41.45 1.9 L41.55 3.75 38.65 3.75 Q38.45 6.85 37.9 9.85 L40.7 10.55 40.25 12.35 Q37.5 22.65 29.5 30.6 L28.2 32.0 26.2 29.95 24.35 31.6 51.75 83.05 29.55 74.8 19.2 95.95 8.4 60.8 6.25 105.55 -9.95 85.35 -31.65 99.4 -16.8 38.7 Q-22.85 35.75 -27.9 30.65 L-29.2 29.4 -27.25 27.4 Q-29.4 25.1 -31.0 22.55 L-33.5 24.05 -34.45 22.35 Q-39.85 13.3 -39.85 1.9 L-39.85 0.05 -37.0 0.05 Q-36.9 -3.2 -36.35 -6.15 L-39.05 -6.9 -38.55 -8.7 Q-35.95 -18.85 -28.0 -26.9 L-26.7 -28.25 -24.6 -26.15 Q-22.4 -28.4 -19.75 -30.0 L-21.2 -32.4 -19.6 -33.35 Q-10.5 -38.75 0.8 -38.75 L2.65 -38.75 2.65 -35.9 8.8 -35.1 9.6 -37.95 11.35 -37.45 Q21.55 -34.85 29.5 -26.9 M26.3 -23.5 L28.3 -25.5 28.2 -25.6 Q20.6 -33.15 10.9 -35.7 L10.15 -32.9 Q5.75 -34.1 0.8 -34.1 L0.8 -36.9 Q-9.95 -36.9 -18.65 -31.75 L-17.25 -29.3 Q-21.25 -27.1 -24.75 -23.65 L-26.7 -25.6 Q-34.25 -17.95 -36.8 -8.2 L-34.05 -7.45 Q-35.2 -3.05 -35.2 1.9 L-38.0 1.9 Q-38.0 12.7 -32.85 21.45 L-30.4 20.0 Q-28.1 23.85 -24.75 27.3 L-24.6 27.4 -26.6 29.4 Q-21.2 34.8 -14.65 37.6 L-17.15 48.15 -28.75 95.3 -9.6 82.85 4.5 100.5 6.95 50.05 19.55 90.85 28.65 72.45 47.7 79.55 25.5 37.9 21.9 31.15 26.2 27.3 28.2 29.3 Q35.85 21.7 38.35 11.9 L35.65 11.15 Q36.8 6.75 36.8 1.9 L39.6 1.9 Q39.6 -8.85 34.5 -17.45 L32.1 -16.05 Q29.8 -20.1 26.3 -23.5" fill="#0b0332" fill-rule="evenodd" stroke="none"/>
    <path d="M10.15 -32.9 L10.9 -35.7 Q20.6 -33.15 28.2 -25.6 L28.3 -25.5 26.3 -23.5 16.95 -14.2 16.85 -14.3 Q12.45 -18.65 6.75 -20.15 L10.15 -32.9 M32.1 -16.05 L34.5 -17.45 Q39.6 -8.85 39.6 1.9 L36.8 1.9 23.6 1.9 Q23.6 -4.4 20.7 -9.4 L32.1 -16.05 M35.65 11.15 L38.35 11.9 Q35.85 21.7 28.2 29.3 L26.2 27.3 16.85 17.95 Q21.45 13.5 22.95 7.75 L35.65 11.15 M-14.65 37.6 Q-21.2 34.8 -26.6 29.4 L-24.6 27.4 -15.3 18.05 Q-10.8 22.55 -5.0 24.05 L-8.45 36.75 -9.2 39.45 Q-12.0 38.7 -14.65 37.6 M-30.4 20.0 L-32.85 21.45 Q-38.0 12.7 -38.0 1.9 L-35.2 1.9 -22.05 1.9 Q-22.05 8.25 -18.95 13.4 L-30.4 20.0 M-34.05 -7.45 L-36.8 -8.2 Q-34.25 -17.95 -26.7 -25.6 L-24.75 -23.65 -15.4 -14.3 Q-19.9 -9.8 -21.25 -4.0 L-34.05 -7.45 M-17.25 -29.3 L-18.65 -31.75 Q-9.95 -36.9 0.8 -36.9 L0.8 -34.1 0.8 -20.95 Q-5.55 -20.95 -10.6 -17.95 L-17.25 -29.3 M0.8 37.9 L0.8 24.7 Q7.15 24.7 12.3 21.7 L18.85 33.1 20.25 35.55 Q11.55 40.7 0.8 40.7 L0.8 37.9 M2.35 48.15 Q3.6 61.8 -0.4 75.75 L-0.9 76.85 Q-2.1 62.15 1.7 48.15 L2.35 48.15 M-10.7 48.15 Q-14.15 66.85 -22.1 84.15 L-23.15 82.5 Q-18.55 65.15 -13.05 48.15 L-10.7 48.15 M9.95 47.2 L11.75 46.1 Q17.7 62.15 19.5 79.2 L18.0 78.45 Q13.6 62.95 9.95 47.2 M21.35 40.4 L21.85 40.05 Q29.15 50.05 32.5 62.65 L32.55 63.75 Q24.9 53.0 21.35 40.4 M26.8 65.9 Q32.95 67.4 38.85 71.7 33.2 74.35 26.7 66.1 L26.8 65.9 M-7.65 75.6 Q-2.65 80.6 0.5 87.9 -6.3 87.35 -7.9 75.75 -7.9 75.6 -7.65 75.6" fill="#1e308f" fill-rule="evenodd" stroke="none"/>
    <path d="M21.9 31.15 L25.5 37.9 21.85 40.05 21.35 40.4 14.25 40.7 11.75 46.1 9.95 47.2 6.65 49.1 6.4 48.15 2.35 48.15 1.7 48.15 -5.3 44.4 -10.7 48.15 -13.05 48.15 -17.15 48.15 -14.65 37.6 Q-12.0 38.7 -9.2 39.45 L-8.45 36.75 Q-4.05 37.9 0.8 37.9 L0.8 40.7 Q11.55 40.7 20.25 35.55 L18.85 33.1 21.9 31.15" fill="#10054b" fill-rule="evenodd" stroke="none"/>
    <path d="M26.3 -23.5 Q29.8 -20.1 32.1 -16.05 L20.7 -9.4 Q23.6 -4.4 23.6 1.9 L36.8 1.9 Q36.8 6.75 35.65 11.15 L22.95 7.75 Q21.45 13.5 16.85 17.95 L26.2 27.3 21.9 31.15 18.85 33.1 12.3 21.7 Q7.15 24.7 0.8 24.7 L0.8 37.9 Q-4.05 37.9 -8.45 36.75 L-5.0 24.05 Q-10.8 22.55 -15.3 18.05 L-24.6 27.4 -24.75 27.3 Q-28.1 23.85 -30.4 20.0 L-18.95 13.4 Q-22.05 8.25 -22.05 1.9 L-35.2 1.9 Q-35.2 -3.05 -34.05 -7.45 L-21.25 -4.0 Q-19.9 -9.8 -15.4 -14.3 L-24.75 -23.65 Q-21.25 -27.1 -17.25 -29.3 L-10.6 -17.95 Q-5.55 -20.95 0.8 -20.95 L0.8 -34.1 Q5.75 -34.1 10.15 -32.9 L6.75 -20.15 Q12.45 -18.65 16.85 -14.3 L16.95 -14.2 26.3 -23.5 M25.5 37.9 L47.7 79.55 28.65 72.45 19.55 90.85 6.95 50.05 4.5 100.5 -9.6 82.85 -28.75 95.3 -17.15 48.15 -13.05 48.15 Q-18.55 65.15 -23.15 82.5 L-22.1 84.15 Q-14.15 66.85 -10.7 48.15 L-5.3 44.4 1.7 48.15 Q-2.1 62.15 -0.9 76.85 L-0.4 75.75 Q3.6 61.8 2.35 48.15 L6.4 48.15 6.65 49.1 9.95 47.2 Q13.6 62.95 18.0 78.45 L19.5 79.2 Q17.7 62.15 11.75 46.1 L14.25 40.7 21.35 40.4 Q24.9 53.0 32.55 63.75 L32.5 62.65 Q29.15 50.05 21.85 40.05 L25.5 37.9 M15.65 -12.9 L15.55 -13.0 Q11.55 -17.0 6.3 -18.4 L0.8 -19.05 Q-5.0 -19.05 -9.65 -16.35 -12.0 -14.95 -14.1 -13.0 -18.2 -8.85 -19.5 -3.55 -20.15 -1.0 -20.15 1.9 -20.15 7.75 -17.35 12.45 -16.05 14.7 -14.1 16.65 L-14.0 16.75 Q-9.85 20.85 -4.55 22.15 L0.8 22.8 Q6.65 22.8 11.35 20.0 13.6 18.7 15.55 16.65 19.75 12.55 21.05 7.35 21.7 4.7 21.7 1.9 21.7 -3.85 19.0 -8.5 17.7 -10.85 15.65 -12.9 M26.8 65.9 L26.7 66.1 Q33.2 74.35 38.85 71.7 32.95 67.4 26.8 65.9 M-7.65 75.6 Q-7.9 75.6 -7.9 75.75 -6.3 87.35 0.5 87.9 -2.65 80.6 -7.65 75.6" fill="#150766" fill-rule="evenodd" stroke="none"/>
    <path d="M15.65 -12.9 Q17.7 -10.85 19.0 -8.5 21.7 -3.85 21.7 1.9 21.7 4.7 21.05 7.35 19.75 12.55 15.55 16.65 13.6 18.7 11.35 20.0 6.65 22.8 0.8 22.8 L-4.55 22.15 Q-9.85 20.85 -14.0 16.75 L-14.1 16.65 Q-16.05 14.7 -17.35 12.45 -20.15 7.75 -20.15 1.9 -20.15 -1.0 -19.5 -3.55 -18.2 -8.85 -14.1 -13.0 -12.0 -14.95 -9.65 -16.35 -5.0 -19.05 0.8 -19.05 L6.3 -18.4 Q11.55 -17.0 15.55 -13.0 L15.65 -12.9 M15.95 -9.4 L14.25 -11.5 13.4 -12.35 Q10.05 -15.6 5.95 -16.8 3.5 -17.55 0.8 -17.55 L0.5 -17.55 Q-4.7 -17.55 -8.95 -15.05 -10.8 -13.9 -12.5 -12.35 -12.65 -12.05 -12.95 -11.85 -16.5 -8.05 -17.35 -2.95 -17.75 -1.3 -17.75 0.45 L-17.6 1.9 Q-17.45 5.9 -15.6 9.25 L-15.45 9.25 -14.55 10.85 -12.5 13.2 -11.45 14.2 Q-7.9 17.2 -3.5 18.15 L0.5 18.5 0.8 18.5 Q5.35 18.45 9.2 16.35 L12.75 13.85 13.4 13.2 Q16.6 10.2 17.9 6.4 18.6 4.25 18.85 1.9 L18.85 0.45 Q18.85 -3.85 17.05 -7.35 L16.7 -8.1 17.15 -8.7 15.95 -9.4" fill="#cccccc" fill-rule="evenodd" stroke="none"/>
    <path d="M-15.6 9.25 Q-17.45 5.9 -17.6 1.9 L-17.75 0.45 Q-17.75 -1.3 -17.35 -2.95 -16.5 -8.05 -12.95 -11.85 -12.65 -12.05 -12.5 -12.35 -10.8 -13.9 -8.95 -15.05 -4.7 -17.55 0.5 -17.55 L0.8 -17.55 Q3.5 -17.55 5.95 -16.8 10.05 -15.6 13.4 -12.35 L14.25 -11.5 15.95 -9.4 6.95 -14.35 -1.7 8.35 -11.65 0.05 -15.6 9.25 M16.7 -8.1 L17.05 -7.35 Q18.85 -3.85 18.85 0.45 L18.85 1.9 Q18.6 4.25 17.9 6.4 16.6 10.2 13.4 13.2 L12.75 13.85 9.2 16.35 Q5.35 18.45 0.8 18.5 L0.5 18.5 -3.5 18.15 Q-7.9 17.2 -11.45 14.2 L-12.5 13.2 -14.55 10.85 -15.45 9.25 -0.5 16.2 16.7 -8.1" fill="#ffffff" fill-rule="evenodd" stroke="none"/>
  </g>
</svg>
