<?xml version="1.0" encoding="UTF-8" standalone="no"?>
<svg xmlns:ffdec="https://www.free-decompiler.com/flash" xmlns:xlink="http://www.w3.org/1999/xlink" ffdec:objectType="shape" height="64.35px" width="28.95px" xmlns="http://www.w3.org/2000/svg">
  <g transform="matrix(1.0, 0.0, 0.0, 1.0, -3.95, -4.75)">
    <path d="M25.3 10.85 Q27.0 13.15 27.0 16.85 27.0 21.45 25.15 25.35 24.15 27.5 22.65 29.35 L26.85 37.2 27.85 39.2 27.95 39.3 28.0 39.55 28.0 39.7 28.0 39.8 29.15 51.25 29.55 51.6 Q30.95 52.7 31.9 54.1 32.9 55.5 32.9 56.2 L32.75 56.75 32.35 57.15 32.0 57.25 31.6 57.2 31.1 56.85 31.15 57.1 Q31.55 58.95 30.65 59.85 30.1 60.45 29.55 60.45 L29.25 60.35 29.15 60.25 28.95 59.9 28.8 59.05 28.75 59.25 Q28.55 60.3 27.95 60.85 27.65 61.15 27.2 61.25 L26.75 61.3 26.65 61.3 Q26.2 61.3 25.95 60.95 25.6 60.55 25.6 59.8 L25.6 59.65 25.6 59.55 25.65 59.0 25.35 59.35 24.4 60.35 24.1 60.65 24.6 60.8 26.4 61.45 26.3 61.45 Q27.2 62.0 27.6 62.8 L27.9 64.05 Q27.9 66.2 24.95 67.75 22.35 69.1 19.9 69.1 17.45 69.1 16.15 68.15 14.95 67.25 14.95 65.5 14.95 64.05 15.9 62.8 L13.95 64.2 Q11.35 65.55 8.9 65.55 6.45 65.55 5.15 64.6 3.95 63.7 3.95 61.95 3.95 60.45 4.95 59.2 L5.7 58.45 5.4 58.15 5.1 57.35 4.85 56.4 4.9 55.0 Q5.35 52.1 7.0 50.25 L8.6 49.05 11.0 38.25 11.25 38.1 11.6 37.2 11.55 36.95 Q11.45 36.25 11.6 35.45 L11.2 35.4 11.65 35.2 Q11.85 33.9 12.7 32.3 L13.65 30.55 9.85 30.9 6.55 30.65 6.55 30.25 Q9.7 29.5 11.45 28.25 13.45 26.8 15.15 23.65 L11.85 25.25 9.75 25.55 Q7.8 25.55 5.5 24.2 6.85 24.4 8.45 23.35 9.8 22.45 10.0 21.75 L9.25 21.85 8.6 21.9 Q6.2 21.9 4.8 20.7 7.45 20.25 8.85 19.1 L7.8 17.2 7.3 15.45 7.2 14.5 7.2 14.4 7.2 14.3 7.2 14.2 7.2 14.0 7.2 13.9 7.2 13.6 7.25 12.85 7.3 12.4 7.6 11.1 7.35 10.75 7.75 10.65 8.3 9.55 8.95 8.55 9.1 8.35 9.1 8.3 9.15 8.3 9.8 7.55 9.9 7.45 Q12.6 4.75 16.35 4.75 20.15 4.75 22.8 7.45 24.1 8.7 24.75 10.25 L25.3 10.85 M24.8 40.1 L24.45 39.5 25.0 41.5 24.8 40.1 M16.75 61.95 L16.6 61.9 16.25 62.45 16.75 61.95" fill="#0000ff" fill-opacity="0.0" fill-rule="evenodd" stroke="none"/>
  </g>
</svg>
