<?xml version="1.0" encoding="UTF-8" standalone="no"?>
<svg xmlns:ffdec="https://www.free-decompiler.com/flash" xmlns:xlink="http://www.w3.org/1999/xlink" ffdec:objectType="shape" height="32.8px" width="109.85px" xmlns="http://www.w3.org/2000/svg">
  <g transform="matrix(1.0, 0.0, 0.0, 1.0, 0.0, 0.0)">
    <path d="M0.4 18.5 L0.15 17.65 0.15 17.6 0.0 16.4 Q0.1 9.75 15.85 4.95 32.05 0.0 54.95 0.0 77.75 0.0 93.95 4.95 109.75 9.75 109.85 16.4 L109.75 17.65 109.45 18.5 Q108.65 17.15 107.2 15.9 103.15 12.5 94.1 9.75 77.85 4.8 54.95 4.8 31.95 4.8 15.7 9.75 6.65 12.55 2.65 15.9 1.15 17.2 0.4 18.5" fill="#2b8a8a" fill-rule="evenodd" stroke="none"/>
    <path d="M109.45 18.5 L109.3 18.85 Q108.5 20.45 106.7 22.0 L106.7 21.95 Q102.7 25.2 93.95 27.9 77.75 32.8 54.95 32.8 32.05 32.8 15.85 27.9 7.1 25.2 3.2 22.0 1.3 20.45 0.55 18.85 L0.4 18.5 Q1.15 17.2 2.65 15.9 6.65 12.55 15.7 9.75 31.95 4.8 54.95 4.8 77.85 4.8 94.1 9.75 103.15 12.5 107.2 15.9 108.65 17.15 109.45 18.5" fill="#33cccc" fill-rule="evenodd" stroke="none"/>
  </g>
</svg>
