<?xml version="1.0" encoding="UTF-8" standalone="no"?>
<svg xmlns:ffdec="https://www.free-decompiler.com/flash" xmlns:xlink="http://www.w3.org/1999/xlink" ffdec:objectType="shape" height="30.05px" width="103.6px" xmlns="http://www.w3.org/2000/svg">
  <g transform="matrix(1.0, 0.0, 0.0, 1.0, -3.05, -2.2)">
    <path d="M105.95 15.9 L104.55 15.05 101.05 15.35 101.85 14.7 105.65 14.1 105.95 15.9 M103.75 20.5 L99.5 20.75 100.0 20.15 103.25 20.0 103.75 20.5 M91.9 11.95 L89.9 10.25 86.0 12.25 85.4 11.75 89.25 9.1 93.9 11.25 93.65 11.6 91.9 11.95 M83.45 5.75 L83.85 6.25 83.05 6.1 Q80.75 7.6 78.15 7.25 L78.15 5.9 81.7 4.9 Q82.8 4.8 83.45 5.75 M84.5 15.75 L83.3 15.15 85.5 15.5 84.5 15.75 M84.5 22.25 Q89.85 19.1 94.9 22.65 L88.85 21.25 85.75 22.75 84.5 22.25 M96.5 17.15 L94.75 16.6 95.05 15.25 95.8 15.3 95.95 15.95 97.85 16.25 96.5 17.15 M93.25 14.35 L93.25 15.2 91.55 15.2 91.55 14.35 93.25 14.35 M84.25 27.6 L84.0 25.8 73.9 26.1 76.35 25.1 77.55 24.85 Q81.35 24.1 84.55 26.1 L84.25 27.6 M75.8 10.7 Q74.2 11.0 73.15 9.85 L71.05 10.25 71.95 9.2 73.25 8.5 76.85 10.4 76.35 10.65 75.8 10.7 M70.25 5.15 L71.4 6.6 65.65 6.8 66.75 5.25 70.25 5.15 M60.75 8.75 L59.15 9.45 58.05 9.0 Q58.85 8.5 59.75 8.15 L61.5 7.75 63.35 10.0 60.75 8.75 M68.3 13.4 L68.45 13.75 68.3 14.1 67.9 14.25 67.5 14.1 67.35 13.75 67.5 13.4 Q67.65 13.25 67.9 13.25 68.15 13.25 68.3 13.4 M65.95 14.65 L64.25 14.65 63.75 13.4 67.35 13.5 65.95 14.65 M64.6 18.1 L64.3 18.5 Q61.65 19.1 58.9 18.55 L58.85 17.5 64.35 17.75 64.6 18.1 M65.8 24.5 L65.45 24.7 61.25 25.1 61.0 24.65 65.8 24.5 M69.15 21.25 Q71.05 19.5 73.6 19.9 L74.85 21.75 72.4 20.55 69.75 22.0 69.15 21.25 M78.35 18.15 L77.35 17.85 Q79.65 15.25 82.95 15.15 80.8 15.6 79.15 17.25 L78.35 18.15 M57.7 4.0 L54.5 3.2 53.25 4.0 51.6 3.85 51.5 2.75 52.75 2.85 53.85 2.6 54.75 2.2 58.35 3.4 57.7 4.0 M41.1 7.1 L43.25 6.45 Q46.85 5.25 50.5 6.75 L41.1 7.1 M47.85 12.0 L46.75 12.7 42.75 12.6 43.25 12.25 47.85 12.0 M47.75 14.75 Q51.95 12.95 56.3 14.6 L54.55 14.95 53.75 14.95 51.75 14.35 48.25 15.65 47.9 15.35 47.75 14.75 M43.0 16.5 Q38.95 17.35 35.15 15.75 L43.1 16.0 43.0 16.5 M54.0 19.55 L55.0 19.75 49.7 20.85 50.65 20.25 Q52.2 19.4 54.0 19.55 M55.9 20.95 L55.05 19.8 56.8 20.95 55.9 20.95 M56.5 25.5 L57.85 27.25 57.25 27.45 56.0 26.6 52.0 26.65 Q53.95 25.35 56.5 25.5 M55.3 30.25 L54.5 30.75 53.75 30.25 55.3 30.25 M44.65 25.65 L42.95 24.1 46.35 25.25 44.65 25.65 M44.25 29.25 L39.8 30.95 Q40.7 29.35 42.6 29.0 46.6 27.9 49.65 30.95 L44.25 29.25 M67.5 29.0 Q66.65 29.65 65.5 29.8 L63.4 30.2 63.0 29.9 Q65.4 28.45 68.0 28.0 L70.95 29.9 70.25 30.5 69.3 30.5 67.5 29.0 M34.65 5.0 L35.6 5.5 Q30.95 6.0 26.4 5.5 L30.4 4.6 Q32.55 4.25 34.65 5.0 M36.4 11.45 L34.5 10.75 29.65 12.0 29.2 11.35 Q30.9 10.35 32.85 10.2 36.0 9.8 38.7 11.4 L38.4 11.8 36.4 11.45 M21.75 8.35 L22.95 7.85 Q25.5 7.6 27.75 8.8 L27.65 9.4 20.5 8.9 21.75 8.35 M22.6 14.6 L16.5 14.5 16.0 13.5 Q17.9 14.2 19.95 14.05 21.85 14.05 23.5 13.1 L22.6 14.6 M24.3 24.35 L24.95 25.1 Q23.7 25.5 22.8 24.85 L22.25 24.25 19.15 25.8 21.0 23.6 Q23.05 23.0 24.3 24.35 M21.35 18.2 Q19.4 19.6 16.95 19.1 L15.75 18.6 Q21.55 15.8 27.1 18.8 L21.35 18.2 M32.8 21.75 L29.0 21.15 Q30.85 20.6 32.5 21.55 L32.8 21.75 M36.6 19.6 L33.65 20.4 Q37.5 18.6 41.35 20.0 40.2 21.25 38.85 20.7 L36.6 19.6 M12.05 11.0 L12.7 10.5 19.85 11.0 12.05 11.0 M17.05 6.75 L17.7 6.3 19.6 7.5 19.1 7.65 17.05 6.75 M3.25 19.75 Q7.45 19.55 11.25 21.15 L3.25 20.35 3.25 19.75 M5.6 16.25 L4.9 15.9 Q9.05 13.95 13.45 15.6 L7.15 15.6 5.6 16.25 M13.2 22.5 L16.4 22.4 17.1 23.15 16.95 23.75 12.95 23.6 13.2 22.5 M35.35 26.85 L27.4 26.5 29.0 25.95 32.2 25.8 35.3 26.0 35.35 26.85" fill="#70fafa" fill-rule="evenodd" stroke="none"/>
    <path d="M106.5 14.35 L102.5 14.0 102.9 13.75 104.75 13.35 106.65 13.25 106.5 14.35 M103.1 18.1 L103.7 18.3 103.95 18.75 103.7 19.2 103.1 19.4 102.5 19.2 102.25 18.75 102.5 18.3 103.1 18.1 M100.35 12.0 Q96.25 13.65 92.0 12.75 L96.75 11.45 99.55 11.65 100.35 12.0 M95.6 9.65 Q92.45 10.5 89.7 8.35 L88.9 7.65 89.35 7.2 Q92.15 7.45 94.55 8.95 L95.6 9.65 M82.2 10.7 L81.55 10.55 81.3 10.15 Q83.3 8.75 85.7 8.75 L85.1 9.5 Q84.0 10.9 82.2 10.7 M88.05 15.1 L82.4 14.4 86.15 14.6 88.05 15.1 M87.45 22.6 Q85.55 20.35 82.5 21.1 84.7 20.1 86.75 21.1 87.2 21.3 87.65 21.65 L87.45 22.6 M90.3 18.9 L91.3 18.75 92.3 18.9 Q92.7 19.05 92.7 19.25 92.7 19.45 92.3 19.6 L91.3 19.75 90.3 19.6 89.9 19.25 90.3 18.9 M100.75 18.0 Q98.0 19.35 95.15 17.65 L98.2 17.0 Q99.35 16.8 100.25 17.55 L100.75 18.0 M96.0 20.65 Q97.7 20.75 98.95 21.6 L100.3 22.6 97.0 21.75 91.45 25.35 91.15 25.0 93.4 22.65 96.0 20.65 M81.6 26.0 L80.0 27.0 79.0 26.6 Q80.55 25.1 82.75 25.45 83.7 25.35 83.85 26.05 L82.75 26.5 81.6 26.0 M78.45 5.0 Q80.75 4.8 82.6 5.75 L75.9 6.9 74.1 7.25 Q76.0 5.45 78.45 5.0 M74.65 12.35 Q72.5 13.35 70.6 11.85 L71.0 11.25 75.6 11.75 74.65 12.35 M74.35 3.35 L73.75 3.65 71.55 3.35 70.85 3.0 73.5 2.95 74.35 3.35 M65.55 6.1 L64.5 5.65 Q66.65 3.8 69.35 3.0 L68.6 3.9 65.55 6.1 M60.75 15.65 L54.15 15.6 53.85 15.0 55.4 14.6 56.9 14.2 60.1 13.95 60.75 14.35 60.75 15.65 M64.7 23.75 L63.85 24.0 Q62.25 24.05 61.15 22.9 L64.85 22.85 64.7 23.75 M68.55 19.8 L68.0 19.8 Q73.55 13.85 80.35 18.65 75.05 16.5 70.0 19.0 L68.55 19.8 M75.25 24.25 L74.5 24.75 Q70.8 24.2 67.75 25.85 L67.35 26.2 68.45 23.4 74.05 23.85 75.25 24.25 M57.15 10.5 L57.1 9.8 62.1 9.65 Q60.4 10.75 58.25 10.65 L57.15 10.5 M58.0 5.5 Q55.25 7.85 52.5 5.5 L49.55 5.65 49.6 5.05 53.25 4.6 Q55.25 6.0 57.75 5.0 L58.0 5.5 M60.25 2.65 L59.9 3.25 56.0 2.4 60.25 2.65 M45.25 3.9 L44.3 3.35 43.5 3.85 41.65 3.45 Q42.55 2.85 43.7 2.5 L45.4 2.25 45.25 3.9 M43.5 7.05 L40.15 6.75 38.2 7.8 39.1 6.85 Q41.1 5.15 43.65 6.05 L43.5 7.05 M46.05 13.15 L41.25 13.0 41.1 12.6 44.3 11.75 44.65 12.4 45.8 12.8 46.05 13.15 M42.2 16.4 L43.85 16.5 43.2 16.95 41.95 17.55 41.05 17.35 42.2 16.4 M48.0 18.75 L45.75 19.25 45.0 18.9 48.15 18.2 51.0 20.75 49.25 21.0 48.2 20.4 48.0 18.75 M51.0 15.75 L52.6 15.25 51.75 15.9 51.0 15.75 M60.6 19.75 Q59.1 21.45 56.8 20.5 L60.0 19.5 60.6 19.75 M53.5 32.25 L53.0 31.6 50.85 30.85 54.65 31.05 54.95 31.15 54.75 31.65 53.5 32.25 M51.6 26.75 Q49.7 28.05 48.25 26.75 L45.0 28.25 44.5 28.1 Q46.05 25.35 49.1 25.8 L51.25 26.5 51.6 26.75 M58.25 29.45 Q61.45 27.1 65.45 27.75 67.75 28.0 69.7 29.55 65.3 28.4 60.55 29.0 L58.25 29.45 M36.5 4.75 L35.5 4.9 33.75 3.85 Q28.2 6.35 22.25 6.65 28.15 3.25 34.95 3.85 L36.9 4.05 36.5 4.75 M32.0 11.5 L36.25 11.5 36.35 12.2 34.2 12.85 Q32.55 13.35 31.35 12.25 L32.0 11.5 M26.5 13.5 Q23.05 12.2 19.75 14.35 L19.15 13.9 Q21.6 11.2 24.95 12.25 26.05 12.5 27.15 13.0 L26.5 13.5 M26.65 19.1 Q30.6 17.25 34.75 18.65 34.15 19.7 33.2 20.05 L31.3 20.0 Q30.15 19.55 29.5 18.6 L26.65 19.1 M11.6 11.7 L10.05 12.45 10.3 12.0 Q13.3 9.25 17.3 10.4 L18.4 10.75 Q15.15 12.45 11.6 11.7 M5.75 13.3 L6.25 12.65 8.25 13.95 7.9 14.35 7.4 14.45 5.75 13.3 M4.15 15.75 L4.0 16.1 3.6 16.25 3.2 16.1 3.05 15.75 3.2 15.4 Q3.35 15.25 3.6 15.25 L4.0 15.4 4.15 15.75 M7.25 19.85 Q9.5 19.05 11.8 19.0 L16.25 19.25 13.75 20.15 13.05 20.15 11.5 19.25 8.25 20.25 7.25 19.85 M40.4 26.0 Q37.85 27.0 36.05 24.65 L40.25 25.25 40.4 26.0 M39.6 30.5 Q37.85 31.35 35.95 30.85 L35.0 30.5 Q37.3 29.75 39.6 30.5 M25.65 26.6 Q23.8 26.3 22.3 25.05 L26.95 25.25 28.45 25.8 Q27.25 26.8 25.65 26.6 M22.15 25.1 L20.15 25.75 21.1 25.35 22.15 25.1" fill="#70fafa" fill-opacity="0.49803922" fill-rule="evenodd" stroke="none"/>
  </g>
</svg>
