<?xml version="1.0" encoding="UTF-8" standalone="no"?>
<svg xmlns:ffdec="https://www.free-decompiler.com/flash" xmlns:xlink="http://www.w3.org/1999/xlink" ffdec:objectType="shape" height="30.45px" width="106.3px" xmlns="http://www.w3.org/2000/svg">
  <g transform="matrix(1.0, 0.0, 0.0, 1.0, -1.35, -1.8)">
    <path d="M30.7 27.0 L29.1 26.0 27.95 26.5 26.85 26.05 Q27.0 25.35 27.95 25.45 30.15 25.1 31.7 26.6 L30.7 27.0 M11.75 21.6 Q13.0 20.75 14.7 20.65 L17.3 22.65 19.55 25.0 19.25 25.35 13.7 21.75 10.4 22.6 11.75 21.6 M10.45 17.55 Q11.35 16.8 12.5 17.0 L15.55 17.65 Q12.7 19.35 9.95 18.0 L10.45 17.55 M5.95 13.35 L7.8 13.75 8.2 14.0 4.2 14.35 4.05 13.25 5.95 13.35 M7.0 18.3 Q7.25 18.1 7.6 18.1 L8.2 18.3 8.45 18.75 8.2 19.2 7.6 19.4 Q7.25 19.4 7.0 19.2 L6.75 18.75 Q6.75 18.5 7.0 18.3 M10.35 12.0 L11.15 11.65 13.95 11.45 18.7 12.75 Q14.45 13.65 10.35 12.0 M23.05 21.65 Q23.5 21.3 23.95 21.1 26.0 20.1 28.2 21.1 25.15 20.35 23.25 22.6 L23.05 21.65 M20.8 19.25 L20.4 19.6 19.4 19.75 18.4 19.6 18.0 19.25 18.4 18.9 19.4 18.75 20.4 18.9 20.8 19.25 M22.65 15.1 L24.55 14.6 28.3 14.4 22.65 15.1 M29.15 10.55 L28.5 10.7 Q26.7 10.9 25.6 9.5 L25.0 8.75 Q27.4 8.75 29.4 10.15 L29.15 10.55 M21.35 7.2 L21.8 7.65 21.0 8.35 Q18.25 10.5 15.1 9.65 L16.15 8.95 Q18.55 7.45 21.35 7.2 M36.6 7.25 L34.8 6.9 28.1 5.75 Q29.95 4.8 32.25 5.0 34.7 5.45 36.6 7.25 M39.7 11.25 L40.1 11.85 Q38.2 13.35 36.05 12.35 L35.1 11.75 39.7 11.25 M36.35 3.35 L37.2 2.95 39.85 3.0 39.15 3.35 36.95 3.65 36.35 3.35 M70.3 26.0 L70.45 25.25 74.65 24.65 Q72.85 27.0 70.3 26.0 M74.75 30.85 Q72.85 31.35 71.1 30.5 73.4 29.75 75.7 30.5 L74.75 30.85 M43.35 26.2 L42.95 25.85 Q39.9 24.2 36.2 24.75 L35.45 24.25 36.65 23.85 42.25 23.4 43.35 26.2 M50.15 29.0 Q45.4 28.4 41.0 29.55 42.95 28.0 45.25 27.75 49.25 27.1 52.45 29.45 L50.15 29.0 M59.85 30.85 L57.7 31.6 57.2 32.25 55.95 31.65 55.75 31.15 56.05 31.05 59.85 30.85 M59.1 26.75 L59.45 26.5 61.6 25.8 Q64.65 25.35 66.2 28.1 L65.7 28.25 62.45 26.75 Q61.0 28.05 59.1 26.75 M58.1 15.25 L59.7 15.75 58.95 15.9 58.1 15.25 M50.7 19.5 L53.9 20.5 Q51.6 21.45 50.1 19.75 L50.7 19.5 M49.95 14.35 L50.6 13.95 53.8 14.2 55.3 14.6 56.85 15.0 56.55 15.6 49.95 15.65 49.95 14.35 M42.7 19.8 L42.15 19.8 40.7 19.0 Q35.65 16.5 30.35 18.65 37.15 13.85 42.7 19.8 M45.85 22.85 L49.55 22.9 Q48.45 24.05 46.85 24.0 L46.0 23.75 45.85 22.85 M46.2 5.65 L45.15 6.1 42.1 3.9 41.35 3.0 Q44.05 3.8 46.2 5.65 M53.55 10.5 L52.45 10.65 Q50.3 10.75 48.6 9.65 L53.6 9.8 53.55 10.5 M54.7 2.4 L50.8 3.25 50.45 2.65 54.7 2.4 M62.7 18.75 L62.5 20.4 61.45 21.0 59.7 20.75 62.55 18.2 65.7 18.9 64.95 19.25 62.7 18.75 M68.5 16.4 L69.65 17.35 68.75 17.55 67.5 16.95 66.85 16.5 68.5 16.4 M69.6 12.6 L69.45 13.0 64.65 13.15 64.9 12.8 66.05 12.4 66.4 11.75 69.6 12.6 M61.1 5.05 L61.15 5.65 58.2 5.5 Q55.45 7.85 52.7 5.5 L52.95 5.0 Q55.45 6.0 57.45 4.6 L61.1 5.05 M67.2 3.85 L66.4 3.35 65.45 3.9 65.3 2.25 67.0 2.5 Q68.15 2.85 69.05 3.45 L67.2 3.85 M71.6 6.85 L72.5 7.8 70.55 6.75 67.2 7.05 67.05 6.05 Q69.6 5.15 71.6 6.85 M73.8 4.05 L75.75 3.85 Q82.55 3.25 88.45 6.65 82.5 6.35 76.95 3.85 L75.2 4.9 74.2 4.75 73.8 4.05 M74.45 11.5 L78.7 11.5 79.35 12.25 Q78.15 13.35 76.5 12.85 L74.35 12.2 74.45 11.5 M82.25 25.8 L83.75 25.25 88.4 25.05 Q86.9 26.3 85.05 26.6 83.45 26.8 82.25 25.8 M90.55 25.75 L88.55 25.1 89.6 25.35 90.55 25.75 M84.05 19.1 L81.2 18.6 Q80.55 19.55 79.4 20.0 L77.5 20.05 Q76.55 19.7 75.95 18.65 80.1 17.25 84.05 19.1 M84.2 13.5 L83.55 13.0 Q84.65 12.5 85.75 12.25 89.1 11.2 91.55 13.9 L90.95 14.35 Q87.65 12.2 84.2 13.5 M99.1 11.7 Q95.55 12.45 92.3 10.75 L93.4 10.4 Q97.4 9.25 100.4 12.0 L100.65 12.45 99.1 11.7 M103.45 19.85 L102.45 20.25 99.2 19.25 97.65 20.15 96.95 20.15 94.45 19.25 98.9 19.0 Q101.2 19.05 103.45 19.85 M102.45 13.95 L104.45 12.65 104.95 13.3 103.3 14.45 102.8 14.35 102.45 13.95 M107.65 15.75 L107.5 16.1 107.1 16.25 106.7 16.1 106.55 15.75 106.7 15.4 Q106.85 15.25 107.1 15.25 L107.5 15.4 107.65 15.75" fill="#70fafa" fill-rule="evenodd" stroke="none"/>
    <path d="M22.2 26.5 L21.7 26.45 Q28.55 21.6 34.1 27.75 30.3 27.15 27.35 24.75 24.55 25.0 22.2 26.5 M15.1 15.25 L14.95 16.0 12.8 16.35 Q11.5 16.5 10.95 15.5 L10.5 15.0 15.1 15.25 M1.9 18.25 L1.35 17.55 1.45 17.1 6.95 17.5 1.9 18.25 M11.0 10.6 Q14.15 9.95 17.25 11.15 13.4 13.15 9.6 11.15 L11.0 10.6 M29.55 13.2 L22.75 12.8 25.25 12.1 Q28.2 11.8 31.15 12.8 L31.15 13.65 29.55 13.2 M26.25 18.1 Q23.95 19.95 21.45 18.4 L21.3 17.5 25.1 17.9 Q28.15 16.25 30.45 19.0 L30.15 19.35 26.85 17.6 26.25 18.1 M21.6 19.5 L21.65 20.55 16.0 20.25 Q15.15 21.35 13.75 21.5 L13.15 21.55 12.65 21.35 12.55 20.25 14.25 20.35 14.85 20.05 15.85 19.25 21.6 19.5 M29.45 7.9 L28.85 8.05 Q25.25 6.2 21.6 7.75 L21.1 7.6 20.7 7.1 23.05 6.15 Q26.7 5.1 29.45 7.9 M40.45 5.6 L38.85 5.1 43.45 3.5 Q42.75 5.8 40.45 5.6 M34.5 5.35 L33.35 6.65 29.1 5.75 29.6 5.35 34.5 5.35 M77.2 27.35 L77.0 26.65 77.9 26.2 80.35 26.4 Q80.0 26.7 79.55 26.8 L77.2 27.35 M42.35 26.25 L41.55 26.5 37.1 23.15 36.25 23.7 32.65 23.8 32.65 23.0 Q36.2 21.25 39.7 22.7 40.35 25.0 42.35 26.25 M55.15 28.9 L55.35 28.0 Q60.15 24.7 65.45 26.9 67.05 27.6 68.55 28.6 L67.8 28.75 65.75 27.15 55.15 28.9 M48.25 26.75 L48.6 26.45 52.45 26.6 51.0 27.25 44.3 27.5 44.35 26.5 48.25 26.75 M58.0 19.4 Q57.75 19.35 57.6 19.15 L54.75 16.6 59.25 17.9 58.55 18.95 58.0 19.4 M60.1 23.0 L59.95 23.5 59.6 23.75 51.35 23.45 Q55.55 22.2 60.1 23.0 M50.15 18.55 Q48.4 18.45 47.0 17.5 L51.6 17.75 51.45 18.25 51.1 18.5 50.15 18.55 M50.0 16.05 L49.15 15.1 50.85 15.65 50.0 16.05 M41.95 17.5 L41.1 18.1 34.1 17.75 33.0 16.65 Q37.55 16.2 41.95 17.5 M42.75 8.75 L42.7 9.55 42.1 10.0 35.75 8.5 36.1 8.15 42.75 8.75 M48.3 6.1 L48.1 5.65 53.25 5.85 Q52.15 6.9 50.5 6.8 L49.1 6.45 48.3 6.1 M48.1 3.6 L48.35 4.15 46.1 4.65 45.3 4.45 48.1 3.6 M57.2 6.5 L56.85 6.75 53.75 5.9 57.35 6.0 57.2 6.5 M57.95 2.25 L59.35 2.9 51.85 3.0 Q52.55 2.6 53.3 2.35 L57.95 2.25 M71.0 21.85 L72.35 21.15 72.9 21.3 73.2 21.75 71.5 22.5 71.0 21.85 M80.25 12.95 L80.6 13.5 Q79.5 15.0 77.55 15.0 75.55 14.95 75.1 13.4 77.95 15.05 80.25 12.95 M64.35 18.85 L64.55 18.05 Q68.2 17.5 71.75 18.55 75.35 19.7 78.1 22.1 71.3 19.75 64.35 18.85 M70.65 9.4 L70.65 10.1 63.1 9.9 61.15 11.8 Q58.0 14.25 54.75 11.5 L56.35 11.8 Q59.4 11.7 61.75 9.75 L70.65 9.4 M75.05 4.55 L75.35 5.15 74.1 5.45 67.25 5.1 66.35 6.0 64.6 6.0 63.5 5.25 Q69.35 3.85 75.05 4.55 M89.25 23.75 L89.8 23.35 Q91.6 22.4 93.7 22.85 L94.95 23.35 Q92.1 25.15 89.25 23.75 M83.35 19.15 L85.95 17.9 Q90.85 15.8 95.6 18.5 L95.25 18.9 93.55 18.5 Q89.1 17.8 85.0 20.0 L83.35 19.15 M83.35 4.0 L83.75 4.75 83.35 5.4 77.45 5.8 83.35 4.0 M98.0 10.5 L95.35 10.25 Q92.5 9.85 90.1 8.65 L89.6 10.0 86.25 10.25 88.1 11.9 87.6 12.25 82.75 10.25 85.05 9.95 84.55 9.85 84.75 9.4 89.2 8.85 89.4 8.3 90.6 8.1 Q94.55 7.9 98.25 9.9 L98.0 10.5 M103.3 16.55 Q104.2 16.85 105.0 17.3 L105.2 17.7 104.8 18.05 100.75 17.0 99.5 17.55 Q98.15 18.25 96.95 17.35 L96.25 16.75 97.2 16.5 99.25 17.0 100.35 16.0 103.3 16.55" fill="#70fafa" fill-opacity="0.49803922" fill-rule="evenodd" stroke="none"/>
  </g>
</svg>
