<?xml version="1.0" encoding="UTF-8" standalone="no"?>
<svg xmlns:ffdec="https://www.free-decompiler.com/flash" xmlns:xlink="http://www.w3.org/1999/xlink" ffdec:objectType="shape" height="182.75px" width="61.45px" xmlns="http://www.w3.org/2000/svg">
  <g transform="matrix(1.0, 0.0, 0.0, 1.0, -1.35, -5.8)">
    <path d="M51.0 40.25 L50.6 39.7 47.05 34.75 Q44.85 32.4 44.85 28.0 44.85 21.15 46.7 15.75 47.75 12.75 49.75 8.0 L52.05 10.6 Q54.15 17.35 56.4 20.35 58.65 23.3 58.5 24.9 L58.15 28.3 Q57.9 30.1 59.95 31.3 61.95 32.55 62.1 33.9 62.25 35.25 61.25 37.65 60.2 40.05 60.25 40.4 L61.7 43.4 Q63.1 46.0 62.75 48.6 L62.55 49.15 Q60.8 48.65 58.0 46.3 55.4 44.15 55.0 44.15 54.1 44.15 51.25 40.55 L53.55 40.55 53.65 40.65 55.95 42.95 Q56.5 40.5 56.5 38.25 56.5 36.8 52.45 28.85 L48.4 21.05 48.8 18.15 49.15 15.2 49.0 14.2 48.8 13.95 48.8 14.2 46.45 25.2 Q46.7 31.35 47.35 32.6 47.9 33.75 51.0 37.7 L51.0 40.25 M50.4 55.85 Q56.5 56.7 56.5 51.6 56.5 49.3 55.2 47.85 54.0 46.5 52.4 46.5 52.25 46.5 51.65 46.9 L49.05 48.3 Q48.25 50.85 48.25 52.15 48.25 53.15 49.05 54.4 L50.4 55.85 M49.2 56.55 L48.15 55.7 Q46.35 53.9 46.35 51.4 46.35 48.9 48.15 47.15 49.9 45.35 52.4 45.35 54.9 45.35 56.7 47.15 58.45 48.9 58.45 51.4 58.45 53.9 56.7 55.7 54.9 57.45 52.4 57.45 50.8 57.45 49.5 56.75 L49.5 56.55 49.2 56.55 M22.7 15.95 L21.15 10.3 Q19.1 11.15 16.55 14.05 L13.3 17.9 15.05 22.55 Q14.9 23.45 13.15 24.3 11.3 25.25 10.45 27.9 8.9 32.75 7.9 37.15 6.9 41.45 6.9 43.3 L8.05 48.05 7.35 49.25 Q6.65 50.65 6.65 52.35 6.65 54.5 9.4 56.65 12.1 58.85 12.1 59.9 L11.25 62.6 Q10.4 64.75 10.4 65.25 10.4 67.15 11.45 68.8 L12.6 70.3 10.0 70.3 10.0 73.05 12.75 73.05 12.75 70.5 14.25 72.05 15.7 70.55 16.55 69.35 17.15 67.9 17.6 65.25 17.7 59.7 17.7 59.55 19.1 59.55 19.25 62.45 Q19.25 68.3 17.35 71.25 14.8 75.15 8.65 75.0 5.65 68.25 5.9 66.65 L6.4 62.95 Q6.6 60.8 4.0 58.25 1.35 55.65 1.35 51.7 2.4 46.9 3.5 44.05 L2.7 40.4 Q2.25 38.95 4.15 36.55 6.0 34.1 6.0 33.45 L6.0 33.3 6.75 33.3 6.75 30.3 5.45 30.3 5.3 28.45 Q5.3 27.15 6.6 25.55 7.85 23.95 8.7 22.1 9.5 20.25 10.0 16.3 10.45 14.8 13.2 11.5 16.75 7.2 20.3 5.8 L20.65 6.55 19.25 6.55 19.25 9.55 21.75 9.55 21.75 8.9 23.35 12.3 Q25.05 17.5 25.05 26.4 25.05 30.85 20.9 35.55 20.6 35.55 19.05 39.55 17.5 43.5 17.45 44.25 L17.25 46.75 18.25 53.15 18.8 57.05 17.45 57.05 17.25 55.65 16.5 51.1 Q16.05 48.4 15.95 45.95 L15.95 44.05 Q16.1 42.95 18.2 38.65 L21.0 32.9 Q23.15 29.7 23.45 28.4 L23.55 25.8 Q23.5 22.25 22.7 15.95 M12.5 22.05 L12.5 20.05 10.5 20.05 10.5 22.05 12.5 22.05 M6.0 48.05 L3.75 48.05 3.75 50.3 6.0 50.3 6.0 48.05 M34.3 89.5 Q35.4 88.25 36.45 85.5 L37.3 82.75 36.75 80.3 36.0 77.55 34.6 76.25 32.95 75.3 31.7 74.8 30.3 74.45 26.7 75.55 23.5 76.75 20.75 79.95 Q19.8 83.5 19.8 84.0 L21.0 86.9 Q22.5 89.95 24.2 91.45 L27.6 92.1 30.45 91.4 Q33.15 90.55 34.3 89.5 M20.55 89.55 Q18.4 86.8 18.4 83.25 18.4 79.0 21.4 76.0 24.4 72.95 28.65 72.95 32.9 72.95 35.9 76.0 38.9 79.0 38.9 83.25 38.9 87.5 35.9 90.55 32.9 93.55 28.65 93.55 24.65 93.55 21.75 90.9 L21.75 89.55 20.55 89.55 M52.95 123.55 Q52.65 126.1 51.7 127.15 50.95 128.0 51.2 128.8 48.75 127.8 46.1 121.8 43.75 116.55 43.75 114.65 43.75 110.7 45.75 106.15 L51.4 95.05 Q54.1 91.8 55.15 90.85 L57.05 89.5 58.05 94.1 56.5 99.5 57.1 101.45 57.85 103.95 Q58.0 104.5 56.85 106.9 L55.5 109.7 Q55.3 110.1 55.5 111.45 L55.75 113.4 54.5 117.2 Q53.85 119.05 53.5 120.55 L51.0 120.55 51.0 123.55 52.95 123.55 M45.3 114.05 L46.5 118.15 48.45 124.05 Q49.8 117.9 51.85 110.75 53.0 106.75 53.0 104.2 53.0 101.9 52.35 99.7 L51.65 97.95 51.75 97.4 48.15 103.65 Q46.5 107.4 46.1 109.1 L45.3 114.05 M42.6 147.5 L43.4 145.35 43.85 143.9 43.35 140.8 42.55 137.45 40.55 134.85 38.4 133.95 37.0 133.5 Q35.2 133.5 33.5 135.15 32.05 136.6 31.35 138.6 31.5 139.75 33.45 145.35 L35.4 147.2 Q37.25 148.8 37.85 149.05 L40.3 148.45 42.6 147.5 M33.75 133.0 Q35.4 131.95 37.4 131.95 40.7 131.95 43.05 134.7 45.35 137.45 45.35 141.3 45.35 145.15 43.05 147.9 40.7 150.65 37.4 150.65 34.1 150.65 31.8 147.9 29.45 145.15 29.45 141.3 29.45 137.45 31.8 134.7 L33.3 133.3 33.75 133.3 33.75 133.0 M26.85 157.2 L24.5 155.9 Q25.0 157.0 24.2 159.85 23.2 163.45 23.2 165.1 L26.25 170.3 24.6 173.65 Q24.6 174.2 29.45 179.5 34.7 185.25 36.7 185.25 39.2 185.25 41.4 183.3 43.7 181.25 44.8 177.85 L41.3 175.85 38.6 174.05 35.9 169.85 33.45 164.6 31.6 161.6 29.05 158.85 26.85 157.2 M21.35 169.55 L20.25 168.65 Q19.9 168.25 19.7 167.05 19.6 166.3 19.85 164.5 20.05 163.15 19.45 161.95 18.8 160.75 17.7 157.3 16.55 153.8 16.85 152.35 19.45 152.4 23.85 154.3 27.6 155.95 30.05 157.75 32.05 159.25 34.95 165.05 L37.5 170.5 42.2 174.6 48.1 178.35 Q45.65 184.45 42.05 186.85 L40.75 187.55 39.25 187.55 39.25 188.1 35.6 188.55 Q31.45 188.55 29.95 187.0 L28.75 185.0 28.75 182.8 26.95 182.8 24.45 179.6 Q22.2 176.6 22.5 174.95 22.8 173.25 22.7 172.2 22.5 170.5 21.95 170.05 L21.75 169.9 21.75 169.55 21.35 169.55" fill="#9d8c4a" fill-rule="evenodd" stroke="none"/>
    <path d="M46.45 25.2 L48.8 14.2 48.8 13.95 49.0 14.2 49.15 15.2 48.8 18.15 48.4 21.05 52.45 28.85 Q56.5 36.8 56.5 38.25 56.5 40.5 55.95 42.95 L53.65 40.65 53.55 40.55 53.75 40.55 53.75 37.55 51.2 37.55 50.45 34.1 Q49.35 30.7 46.45 25.2 M49.05 48.3 L51.65 46.9 Q52.25 46.5 52.4 46.5 54.0 46.5 55.2 47.85 56.5 49.3 56.5 51.6 56.5 56.7 50.4 55.85 51.15 53.6 50.55 52.0 49.55 50.1 49.05 48.3 M12.6 70.3 L11.45 68.8 Q10.4 67.15 10.4 65.25 10.4 64.75 11.25 62.6 L12.1 59.9 Q12.1 58.85 9.4 56.65 6.65 54.5 6.65 52.35 6.65 50.65 7.35 49.25 L8.05 48.05 6.9 43.3 Q6.9 41.45 7.9 37.15 8.9 32.75 10.45 27.9 11.3 25.25 13.15 24.3 14.9 23.45 15.05 22.55 L13.3 17.9 16.55 14.05 Q19.1 11.15 21.15 10.3 L22.7 15.95 Q21.9 16.6 20.75 19.7 19.75 22.4 19.65 23.35 19.05 27.3 16.65 29.3 14.45 31.1 14.45 32.1 L14.85 33.95 15.25 35.75 12.45 42.15 Q9.6 49.05 9.6 52.0 9.6 53.9 13.0 56.35 L16.75 59.05 16.75 59.55 17.5 59.55 17.7 59.7 17.6 65.25 15.85 65.4 Q14.8 65.65 14.2 66.2 13.6 66.75 13.7 67.45 13.75 68.1 14.45 68.65 15.15 69.15 16.55 69.35 L15.7 70.55 14.25 72.05 12.75 70.5 12.75 70.3 12.6 70.3 M24.2 91.45 Q22.5 89.95 21.0 86.9 L19.8 84.0 Q19.8 83.5 20.75 79.95 21.75 80.95 21.75 82.2 L21.4 84.2 21.0 86.2 24.2 91.45 M48.15 103.65 L51.75 97.4 51.65 97.95 52.35 99.7 Q53.0 101.9 53.0 104.2 53.0 106.75 51.85 110.75 49.8 117.9 48.45 124.05 L46.5 118.15 45.3 114.05 Q47.9 110.0 48.0 108.05 47.7 105.95 48.15 103.65 M42.6 147.5 L41.2 145.0 Q40.75 143.65 40.75 140.95 L42.55 137.45 43.35 140.8 43.85 143.9 43.4 145.35 42.6 147.5 M41.3 175.85 L44.8 177.85 Q43.7 181.25 41.4 183.3 39.2 185.25 36.7 185.25 34.7 185.25 29.45 179.5 24.6 174.2 24.6 173.65 L26.25 170.3 23.2 165.1 Q23.2 163.45 24.2 159.85 25.0 157.0 24.5 155.9 L26.85 157.2 Q26.85 157.9 27.5 158.4 28.15 158.85 29.05 158.85 L31.6 161.6 Q29.05 162.25 27.7 163.1 26.45 163.85 26.45 164.55 L26.9 165.3 26.75 165.3 26.75 167.8 29.0 167.8 29.0 167.6 29.95 168.6 29.45 170.85 Q28.95 172.6 28.95 173.1 28.95 175.45 30.75 176.95 32.85 178.65 36.85 178.65 L38.5 178.4 Q40.25 177.75 41.3 175.85" fill="#c2b57e" fill-rule="evenodd" stroke="none"/>
    <path d="M51.0 37.7 Q47.9 33.75 47.35 32.6 46.7 31.35 46.45 25.2 49.35 30.7 50.45 34.1 L51.2 37.55 51.0 37.55 51.0 37.7 M50.4 55.85 L49.05 54.4 Q48.25 53.15 48.25 52.15 48.25 50.85 49.05 48.3 49.55 50.1 50.55 52.0 51.15 53.6 50.4 55.85 M16.55 69.35 Q15.15 69.15 14.45 68.65 13.75 68.1 13.7 67.45 13.6 66.75 14.2 66.2 14.8 65.65 15.85 65.4 L17.6 65.25 17.15 67.9 16.55 69.35 M17.7 59.7 L17.5 59.55 17.7 59.55 17.7 59.7 M16.75 59.05 L13.0 56.35 Q9.6 53.9 9.6 52.0 9.6 49.05 12.45 42.15 L15.25 35.75 14.85 33.95 14.45 32.1 Q14.45 31.1 16.65 29.3 19.05 27.3 19.65 23.35 19.75 22.4 20.75 19.7 21.9 16.6 22.7 15.95 23.5 22.25 23.55 25.8 22.95 26.9 22.25 29.25 L21.0 32.9 18.2 38.65 Q16.1 42.95 15.95 44.05 15.8 43.6 14.85 43.6 13.8 43.6 13.1 44.85 12.4 46.1 12.4 47.9 12.4 49.7 13.1 50.95 13.8 52.2 14.85 52.2 L16.5 51.1 17.25 55.65 17.45 57.05 16.75 57.05 16.75 59.05 M27.6 92.1 L24.2 91.45 21.0 86.2 21.4 84.2 21.75 82.2 Q21.75 80.95 20.75 79.95 L23.5 76.75 26.4 87.2 27.6 92.1 M45.3 114.05 L46.1 109.1 Q46.5 107.4 48.15 103.65 47.7 105.95 48.0 108.05 47.9 110.0 45.3 114.05 M42.55 137.45 L40.75 140.95 Q40.75 143.65 41.2 145.0 L42.6 147.5 40.3 148.45 37.85 149.05 Q37.15 146.15 37.15 144.95 37.15 144.35 37.7 143.0 L40.55 134.85 42.55 137.45 M26.85 157.2 L29.05 158.85 Q28.15 158.85 27.5 158.4 26.85 157.9 26.85 157.2 M31.6 161.6 L33.45 164.6 Q33.45 168.5 34.95 171.3 36.45 174.05 38.6 174.05 L41.3 175.85 Q40.25 177.75 38.5 178.4 L36.85 178.65 Q32.85 178.65 30.75 176.95 28.95 175.45 28.95 173.1 28.95 172.6 29.45 170.85 L29.95 168.6 29.0 167.6 29.0 165.3 26.9 165.3 26.45 164.55 Q26.45 163.85 27.7 163.1 29.05 162.25 31.6 161.6" fill="#e7deb2" fill-rule="evenodd" stroke="none"/>
    <path d="M23.55 25.8 L23.45 28.4 Q23.15 29.7 21.0 32.9 L22.25 29.25 Q22.95 26.9 23.55 25.8 M15.95 44.05 L15.95 45.95 Q16.05 48.4 16.5 51.1 L14.85 52.2 Q13.8 52.2 13.1 50.95 12.4 49.7 12.4 47.9 12.4 46.1 13.1 44.85 13.8 43.6 14.85 43.6 15.8 43.6 15.95 44.05 M34.3 89.5 Q33.15 90.55 30.45 91.4 L27.6 92.1 26.4 87.2 23.5 76.75 26.7 75.55 30.3 74.45 31.7 74.8 Q29.65 76.05 28.7 79.0 28.25 80.5 28.2 81.8 L28.2 82.3 26.75 82.3 26.75 84.8 28.7 84.8 Q29.15 86.2 30.15 87.35 31.9 89.4 34.3 89.5 M34.6 76.25 L36.0 77.55 35.0 78.4 35.0 77.35 34.6 76.25 M40.55 134.85 L37.7 143.0 Q37.15 144.35 37.15 144.95 37.15 146.15 37.85 149.05 37.25 148.8 35.4 147.2 L33.45 145.35 Q34.3 144.4 34.95 142.65 L35.5 140.95 Q35.5 139.05 34.45 138.0 33.7 137.3 33.1 137.3 32.95 137.3 31.35 138.6 32.05 136.6 33.5 135.15 35.2 133.5 37.0 133.5 L38.4 133.95 40.55 134.85 M33.45 164.6 L35.9 169.85 38.6 174.05 Q36.45 174.05 34.95 171.3 33.45 168.5 33.45 164.6" fill="#f1ecd3" fill-rule="evenodd" stroke="none"/>
    <path d="M36.0 77.55 L36.75 80.3 37.3 82.75 36.45 85.5 Q35.4 88.25 34.3 89.5 31.9 89.4 30.15 87.35 29.15 86.2 28.7 84.8 L29.0 84.8 29.0 82.3 28.2 82.3 28.2 81.8 Q28.25 80.5 28.7 79.0 29.65 76.05 31.7 74.8 L32.95 75.3 34.6 76.25 35.0 77.35 35.0 78.4 36.0 77.55 M31.35 138.6 Q32.95 137.3 33.1 137.3 33.7 137.3 34.45 138.0 35.5 139.05 35.5 140.95 L34.95 142.65 Q34.3 144.4 33.45 145.35 31.5 139.75 31.35 138.6" fill="#fbf9f0" fill-rule="evenodd" stroke="none"/>
    <path d="M51.0 40.25 L51.0 37.7 51.0 37.55 51.2 37.55 53.75 37.55 53.75 40.55 53.55 40.55 51.25 40.55 51.0 40.25 M49.2 56.55 L49.5 56.55 49.5 56.75 49.2 56.55 M12.6 70.3 L12.75 70.3 12.75 70.5 12.75 73.05 10.0 73.05 10.0 70.3 12.6 70.3 M17.5 59.55 L16.75 59.55 16.75 59.05 16.75 57.05 17.45 57.05 18.8 57.05 19.1 59.55 17.7 59.55 17.5 59.55 M21.75 8.9 L21.75 9.55 19.25 9.55 19.25 6.55 20.65 6.55 21.75 8.9 M5.45 30.3 L6.75 30.3 6.75 33.3 6.0 33.3 5.65 31.35 5.45 30.3 M12.5 22.05 L10.5 22.05 10.5 20.05 12.5 20.05 12.5 22.05 M6.0 48.05 L6.0 50.3 3.75 50.3 3.75 48.05 6.0 48.05 M20.55 89.55 L21.75 89.55 21.75 90.9 21.4 90.55 20.55 89.55 M28.2 82.3 L29.0 82.3 29.0 84.8 28.7 84.8 26.75 84.8 26.75 82.3 28.2 82.3 M53.5 120.55 L52.95 123.3 52.95 123.55 51.0 123.55 51.0 120.55 53.5 120.55 M33.75 133.0 L33.75 133.3 33.3 133.3 33.75 133.0 M29.0 167.6 L29.0 167.8 26.75 167.8 26.75 165.3 26.9 165.3 29.0 165.3 29.0 167.6 M40.75 187.55 L39.25 188.1 39.25 187.55 40.75 187.55 M28.75 185.0 L27.8 183.8 26.95 182.8 28.75 182.8 28.75 185.0 M21.75 169.9 L21.35 169.55 21.75 169.55 21.75 169.9" fill="#3e382d" fill-rule="evenodd" stroke="none"/>
  </g>
</svg>
