<?xml version="1.0" encoding="UTF-8" standalone="no"?>
<svg xmlns:ffdec="https://www.free-decompiler.com/flash" xmlns:xlink="http://www.w3.org/1999/xlink" ffdec:objectType="shape" height="11.7px" width="53.3px" xmlns="http://www.w3.org/2000/svg">
  <g transform="matrix(1.0, 0.0, 0.0, 1.0, 0.0, 0.0)">
    <path d="M52.6 4.65 L52.4 6.3 51.6 6.55 Q49.35 5.75 47.9 3.8 L48.45 2.2 50.8 2.65 50.0 0.8 50.3 0.0 Q52.15 0.75 52.95 2.35 53.4 3.3 53.3 4.5 L52.6 4.65 M46.75 6.05 L47.25 8.1 46.5 8.65 Q44.05 6.55 42.75 3.4 L45.15 4.05 44.1 2.2 44.4 1.3 47.55 5.45 46.75 6.05 M44.15 9.05 L39.45 5.9 39.25 4.7 40.35 4.05 Q44.1 5.0 44.95 8.9 L44.15 9.05 M33.65 10.25 L31.4 10.95 Q30.7 8.75 29.2 7.1 L28.5 6.3 30.55 6.45 32.55 6.8 33.75 6.15 Q35.9 8.1 35.7 10.85 L35.6 11.55 33.95 11.5 33.65 10.25 M39.2 11.35 L38.3 11.7 34.65 3.65 Q39.1 5.4 39.25 10.2 L39.2 11.35 M24.85 10.25 L25.0 11.05 21.0 10.1 20.5 10.3 19.65 10.0 20.7 6.5 Q24.2 6.95 24.85 10.25 M27.5 11.05 Q25.55 8.05 26.1 4.45 28.05 6.5 28.3 9.3 L28.35 10.55 27.5 11.05 M16.3 5.25 L16.8 6.45 19.05 2.65 Q19.15 5.65 18.15 8.75 L17.5 10.65 16.85 9.7 16.6 10.45 15.7 10.6 15.45 9.7 15.35 8.65 Q15.35 7.6 15.6 6.6 L15.9 5.55 16.3 5.25 M13.05 3.95 L13.65 9.55 13.05 9.85 11.8 9.35 11.75 8.0 7.75 7.15 7.3 4.65 6.95 6.0 6.05 5.95 5.5 7.3 4.5 4.45 3.35 6.15 3.2 4.35 3.3 3.35 Q3.7 1.6 5.05 0.35 L4.85 3.1 6.5 0.5 7.05 0.9 6.6 3.45 7.9 3.65 8.9 4.7 11.05 0.55 11.6 3.0 13.05 3.95 M0.95 5.65 L0.0 4.7 0.85 1.5 2.85 0.65 1.9 5.55 0.95 5.65" fill="#a1ffff" fill-rule="evenodd" stroke="none"/>
  </g>
</svg>
