<?xml version="1.0" encoding="UTF-8" standalone="no"?>
<svg xmlns:ffdec="https://www.free-decompiler.com/flash" xmlns:xlink="http://www.w3.org/1999/xlink" ffdec:objectType="shape" height="29.35px" width="24.75px" xmlns="http://www.w3.org/2000/svg">
  <g transform="matrix(1.0, 0.0, 0.0, 1.0, -17.7, 43.1)">
    <path d="M39.5 -30.75 Q39.05 -33.7 37.05 -36.1 34.05 -39.8 29.25 -40.2 L29.2 -40.2 Q24.3 -40.75 20.4 -37.6 18.75 -36.25 17.7 -34.55 L17.7 -39.0 18.55 -39.75 Q23.4 -43.7 29.45 -43.0 L29.5 -43.0 Q35.5 -42.45 39.25 -37.85 L39.25 -37.9 Q41.95 -34.6 42.35 -30.55 L39.5 -30.75" fill="#9f7a51" fill-rule="evenodd" stroke="none"/>
    <path d="M17.7 -22.0 L18.3 -21.15 17.7 -21.2 17.7 -22.0 M35.45 -19.55 L35.65 -19.75 35.7 -19.8 Q39.2 -22.95 39.6 -27.65 39.75 -29.3 39.5 -30.75 L42.35 -30.55 Q42.55 -29.05 42.4 -27.4 42.0 -22.7 39.1 -19.25 L35.45 -19.55" fill="#7c5f3f" fill-rule="evenodd" stroke="none"/>
    <path d="M18.3 -21.15 L18.9 -20.45 18.95 -20.4 Q22.35 -16.8 27.2 -16.6 31.95 -16.5 35.45 -19.55 L39.1 -19.25 37.6 -17.7 37.55 -17.65 Q33.15 -13.65 27.1 -13.75 21.65 -14.0 17.7 -17.7 L17.7 -21.2 18.3 -21.15" fill="#614a32" fill-rule="evenodd" stroke="none"/>
    <path d="M17.7 -34.55 Q18.75 -36.25 20.4 -37.6 24.3 -40.75 29.2 -40.2 L29.25 -40.2 Q34.05 -39.8 37.05 -36.1 39.05 -33.7 39.5 -30.75 39.75 -29.3 39.6 -27.65 39.2 -22.95 35.7 -19.8 L35.65 -19.75 35.45 -19.55 Q31.95 -16.5 27.2 -16.6 22.35 -16.8 18.95 -20.4 L18.9 -20.45 18.3 -21.15 17.7 -22.0 17.7 -34.55" fill="url(#gradient0)" fill-rule="evenodd" stroke="none"/>
  </g>
  <defs>
    <linearGradient gradientTransform="matrix(0.0, -0.0185, -0.0181, 0.0, 27.2, -28.1)" gradientUnits="userSpaceOnUse" id="gradient0" spreadMethod="pad" x1="-819.2" x2="819.2">
      <stop offset="0.0" stop-color="#ffffff" stop-opacity="0.8"/>
      <stop offset="1.0" stop-color="#ffffff" stop-opacity="0.12156863"/>
    </linearGradient>
  </defs>
</svg>
