<?xml version="1.0" encoding="UTF-8" standalone="no"?>
<svg xmlns:ffdec="https://www.free-decompiler.com/flash" xmlns:xlink="http://www.w3.org/1999/xlink" ffdec:objectType="shape" height="140.25px" width="85.15px" xmlns="http://www.w3.org/2000/svg">
  <g transform="matrix(1.0, 0.0, 0.0, 1.0, 39.55, 140.4)">
    <path d="M1.05 -138.8 L1.55 -138.8 1.7 -135.85 Q-2.25 -134.7 -4.0 -132.5 -5.25 -131.0 -5.6 -128.7 L-5.6 -129.0 -6.4 -129.1 -6.05 -129.9 -4.9 -132.85 Q-3.65 -134.8 -2.7 -135.3 -0.75 -136.25 0.85 -136.2 1.6 -136.15 1.6 -136.95 1.6 -138.05 1.05 -138.8 M-5.6 -124.8 L-5.5 -124.45 Q-5.0 -122.8 -3.4 -122.8 -1.6 -122.8 0.9 -125.0 3.55 -127.35 4.5 -130.05 5.45 -134.55 8.35 -135.3 10.65 -135.9 12.2 -133.0 L13.2 -130.45 13.55 -129.35 18.55 -113.75 26.6 -83.1 Q29.6 -73.3 30.25 -72.15 31.35 -70.2 31.75 -67.5 L32.2 -64.95 33.45 -62.7 Q34.0 -61.35 34.0 -60.3 34.0 -57.75 36.45 -51.45 38.6 -45.95 39.95 -43.75 40.95 -42.1 40.5 -39.5 40.05 -36.9 41.45 -34.65 L44.05 -30.65 Q45.6 -28.2 45.6 -27.35 L44.4 -25.4 Q43.15 -23.5 43.15 -22.4 L43.15 -22.35 42.75 -22.1 41.4 -20.85 Q36.0 -17.35 22.6 -15.8 L3.7 -14.8 -19.5 -16.15 Q-30.5 -17.5 -34.95 -19.9 L-35.95 -20.8 -37.3 -21.75 -38.2 -23.25 Q-39.55 -25.4 -39.55 -26.2 -39.55 -29.4 -36.6 -33.7 -32.9 -39.0 -32.3 -40.8 -31.5 -43.15 -27.75 -59.35 L-23.0 -79.3 Q-19.3 -94.35 -15.7 -114.15 L-15.8 -113.9 -15.1 -117.1 -13.75 -116.5 -17.05 -101.15 Q-20.8 -83.25 -20.8 -81.9 -20.8 -79.3 -22.4 -74.75 L-24.55 -69.25 Q-26.3 -64.45 -26.95 -60.0 -27.55 -55.75 -28.55 -53.2 -29.65 -50.5 -30.05 -44.95 -30.4 -40.45 -32.15 -38.45 L-36.25 -33.2 Q-38.45 -29.65 -38.45 -26.2 -38.45 -22.95 -32.75 -20.2 -26.85 -17.35 -19.8 -17.65 L-19.85 -17.7 -5.6 -16.5 3.7 -16.05 19.6 -17.0 30.7 -18.4 Q34.05 -19.0 37.95 -20.7 44.55 -23.55 44.55 -27.25 L42.45 -30.2 Q40.25 -33.35 39.65 -34.85 39.45 -35.45 39.55 -38.55 39.7 -41.4 39.0 -42.6 36.35 -47.0 35.15 -52.35 33.55 -59.6 32.3 -62.75 29.5 -69.9 22.6 -92.1 L12.2 -126.15 12.2 -126.1 12.1 -126.5 11.75 -127.65 Q11.0 -127.1 9.8 -125.15 L7.4 -121.55 Q6.1 -120.0 4.5 -118.95 3.1 -118.65 0.8 -117.75 L-1.3 -117.05 -3.35 -116.95 -5.6 -117.15 -5.6 -118.15 -3.4 -117.9 Q-2.55 -117.9 0.25 -118.95 3.2 -120.1 4.7 -121.1 L5.1 -121.5 5.1 -121.55 7.05 -124.0 10.2 -127.85 11.45 -128.45 10.85 -131.55 10.75 -132.05 Q10.35 -134.05 9.15 -134.05 8.5 -134.05 4.5 -128.05 0.45 -122.05 -3.05 -122.05 -4.65 -122.05 -5.6 -122.9 L-5.6 -124.8" fill="#17110d" fill-rule="evenodd" stroke="none"/>
    <path d="M-5.6 -122.9 Q-4.65 -122.05 -3.05 -122.05 0.45 -122.05 4.5 -128.05 8.5 -134.05 9.15 -134.05 10.35 -134.05 10.75 -132.05 L10.85 -131.55 11.45 -128.45 10.2 -127.85 7.05 -124.0 5.1 -121.55 5.1 -121.5 4.7 -121.1 Q3.2 -120.1 0.25 -118.95 -2.55 -117.9 -3.4 -117.9 L-5.6 -118.15 -5.6 -122.9 M-5.6 -117.15 L-3.35 -116.95 -1.3 -117.05 -4.9 -116.55 -5.05 -116.55 -5.6 -116.55 -5.6 -117.0 -5.6 -117.15 M4.5 -118.95 Q6.1 -120.0 7.4 -121.55 L9.8 -125.15 Q11.0 -127.1 11.75 -127.65 L12.1 -126.5 12.2 -126.1 12.2 -126.15 22.6 -92.1 Q29.5 -69.9 32.3 -62.75 33.55 -59.6 35.15 -52.35 36.35 -47.0 39.0 -42.6 39.7 -41.4 39.55 -38.55 39.45 -35.45 39.65 -34.85 40.25 -33.35 42.45 -30.2 L44.55 -27.25 Q44.55 -23.55 37.95 -20.7 34.05 -19.0 30.7 -18.4 L34.15 -21.75 Q37.05 -24.75 37.05 -25.1 37.05 -26.5 35.7 -29.1 L33.4 -32.8 Q32.45 -34.0 32.55 -36.95 32.7 -40.3 31.7 -42.35 30.6 -44.7 28.85 -49.55 27.05 -54.5 27.1 -55.25 27.4 -59.8 23.7 -62.3 L20.25 -64.45 Q19.9 -64.75 20.1 -66.55 21.05 -74.35 18.95 -77.45 L17.4 -79.9 Q16.6 -81.55 16.6 -84.3 16.6 -89.05 15.85 -90.4 14.25 -93.2 13.0 -98.35 11.75 -103.45 9.7 -109.95 7.25 -117.7 6.1 -118.9 L5.75 -119.15 5.7 -119.15 4.5 -118.95 M-19.85 -17.7 L-19.8 -17.65 Q-26.85 -17.35 -32.75 -20.2 -38.45 -22.95 -38.45 -26.2 -38.45 -29.65 -36.25 -33.2 L-32.15 -38.45 Q-30.4 -40.45 -30.05 -44.95 -29.65 -50.5 -28.55 -53.2 -27.55 -55.75 -26.95 -60.0 -26.3 -64.45 -24.55 -69.25 L-22.4 -74.75 Q-20.8 -79.3 -20.8 -81.9 -20.8 -83.25 -17.05 -101.15 L-13.75 -116.5 -13.65 -116.45 Q-11.3 -115.5 -8.75 -114.9 L-9.8 -111.2 -11.8 -101.6 -12.95 -95.05 -13.45 -89.15 -13.95 -83.55 Q-14.6 -81.6 -16.2 -80.1 -17.25 -79.1 -17.25 -75.6 -17.25 -73.45 -19.0 -67.75 -20.55 -62.8 -19.8 -56.3 -20.75 -52.05 -23.45 -49.9 -25.5 -48.3 -25.5 -42.35 L-24.65 -39.6 -23.8 -37.35 Q-23.8 -36.55 -26.7 -33.75 -29.6 -30.95 -29.6 -29.35 -29.6 -25.15 -28.15 -23.25 -26.35 -20.9 -19.85 -17.7 M-8.25 -129.45 L-8.05 -129.6 -8.1 -129.3 -8.25 -129.35 -8.4 -129.35 -8.25 -129.45 M-1.05 -137.25 L-1.8 -137.1 -1.3 -137.5 -1.05 -137.25" fill="#281d15" fill-rule="evenodd" stroke="none"/>
    <path d="M-1.3 -117.05 L0.8 -117.75 Q3.1 -118.65 4.5 -118.95 L5.7 -119.15 5.75 -119.15 6.1 -118.9 Q7.25 -117.7 9.7 -109.95 11.75 -103.45 13.0 -98.35 14.25 -93.2 15.85 -90.4 16.6 -89.05 16.6 -84.3 16.6 -81.55 17.4 -79.9 L18.95 -77.45 Q21.05 -74.35 20.1 -66.55 19.9 -64.75 20.25 -64.45 L23.7 -62.3 Q27.4 -59.8 27.1 -55.25 27.05 -54.5 28.85 -49.55 30.6 -44.7 31.7 -42.35 32.7 -40.3 32.55 -36.95 32.45 -34.0 33.4 -32.8 L35.7 -29.1 Q37.05 -26.5 37.05 -25.1 37.05 -24.75 34.15 -21.75 L30.7 -18.4 19.6 -17.0 3.7 -16.05 -5.6 -16.5 -19.85 -17.7 Q-26.35 -20.9 -28.15 -23.25 -29.6 -25.15 -29.6 -29.35 -29.6 -30.95 -26.7 -33.75 -23.8 -36.55 -23.8 -37.35 L-24.65 -39.6 -25.5 -42.35 Q-25.5 -48.3 -23.45 -49.9 -20.75 -52.05 -19.8 -56.3 -20.55 -62.8 -19.0 -67.75 -17.25 -73.45 -17.25 -75.6 -17.25 -79.1 -16.2 -80.1 -14.6 -81.6 -13.95 -83.55 L-13.45 -89.15 -12.95 -95.05 -11.8 -101.6 -9.8 -111.2 -8.75 -114.9 -5.6 -114.3 -5.6 -115.4 -5.6 -116.55 -5.05 -116.55 -4.9 -116.55 -1.3 -117.05 M8.75 -85.95 Q9.4 -87.55 9.4 -90.95 9.4 -91.8 4.9 -101.6 0.1 -112.15 -0.25 -113.25 -2.25 -111.45 -4.1 -110.9 L-6.25 -110.1 Q-7.5 -108.95 -9.3 -95.4 -9.4 -94.4 -10.2 -92.35 L-11.0 -90.5 -10.55 -87.0 -10.15 -83.55 -11.6 -76.9 Q-13.1 -70.3 -13.1 -62.65 -13.1 -59.1 -12.0 -58.1 -10.5 -56.8 -3.3 -54.85 -5.95 -54.0 -8.95 -53.8 L-12.15 -53.35 Q-13.8 -52.4 -13.8 -42.05 L-14.2 -40.65 -14.6 -39.3 Q-14.6 -38.85 -11.7 -37.05 L-8.75 -35.35 -8.7 -35.2 Q-10.6 -33.3 -15.35 -32.35 -19.0 -31.6 -19.0 -29.8 -19.0 -28.3 -17.75 -25.5 -16.25 -22.2 -14.45 -21.6 -11.6 -20.65 -6.25 -19.75 L1.75 -18.8 21.55 -20.05 Q30.5 -21.4 30.5 -23.7 30.5 -27.5 27.8 -27.9 L17.1 -28.85 16.8 -31.35 Q16.8 -32.05 20.9 -33.7 25.0 -35.35 25.0 -35.85 22.7 -44.95 21.55 -45.7 19.4 -47.1 17.4 -47.2 L7.45 -48.3 13.75 -52.1 Q17.75 -54.7 17.75 -56.45 17.75 -58.55 15.7 -59.45 13.65 -60.4 13.65 -61.35 L14.5 -66.2 15.35 -72.9 Q15.35 -73.95 14.95 -74.35 14.45 -74.9 12.75 -75.25 L14.1 -76.75 15.35 -78.15 Q15.35 -79.65 11.75 -80.65 L6.0 -82.3 Q8.15 -84.45 8.75 -85.95" fill="#36271d" fill-rule="evenodd" stroke="none"/>
    <path d="M3.65 -77.9 Q7.25 -77.9 8.4 -76.95 9.65 -76.0 9.65 -72.95 9.65 -71.05 4.15 -67.7 L-2.9 -63.4 -1.8 -63.35 2.9 -63.15 7.3 -62.9 8.35 -63.05 9.15 -63.05 9.45 -61.15 Q9.45 -59.4 8.45 -58.85 7.35 -58.25 3.55 -58.25 -7.0 -58.25 -8.4 -59.8 -9.2 -60.75 -9.25 -63.2 L-9.15 -69.55 Q-9.15 -70.55 -7.15 -72.0 -4.9 -73.6 -1.2 -74.95 1.9 -76.1 2.2 -77.2 2.4 -77.9 3.65 -77.9 M1.8 -98.35 Q4.2 -94.25 4.2 -91.85 4.2 -88.8 0.65 -85.3 -2.8 -81.95 -5.35 -81.95 -6.45 -81.95 -7.0 -83.55 -7.45 -84.85 -7.45 -86.65 -7.45 -89.15 -5.85 -95.1 -4.15 -101.7 -2.5 -103.85 -0.45 -102.1 1.8 -98.35 M4.15 -38.3 L4.35 -38.35 -0.1 -38.55 -6.25 -38.6 Q-7.95 -39.05 -8.7 -39.95 L-9.15 -40.7 -8.95 -44.05 Q-8.35 -46.95 -6.35 -46.95 L8.25 -46.05 Q11.3 -45.65 15.7 -44.45 18.3 -43.75 19.8 -42.3 L21.8 -39.7 Q20.1 -37.65 12.65 -37.6 L2.3 -37.95 4.15 -38.3 M3.55 -27.3 L16.15 -26.2 Q19.9 -25.95 21.1 -24.95 19.35 -22.75 10.5 -22.4 6.1 -22.25 1.9 -22.5 -3.15 -22.5 -8.2 -24.25 -14.25 -26.35 -14.25 -29.6 -14.25 -31.3 -12.2 -31.3 L-4.95 -29.45 Q1.85 -27.5 3.55 -27.3" fill="#654936" fill-rule="evenodd" stroke="none"/>
    <path d="M1.8 -98.35 Q-0.45 -102.1 -2.5 -103.85 -4.15 -101.7 -5.85 -95.1 -7.45 -89.15 -7.45 -86.65 -7.45 -84.85 -7.0 -83.55 -6.45 -81.95 -5.35 -81.95 -2.8 -81.95 0.65 -85.3 4.2 -88.8 4.2 -91.85 4.2 -94.25 1.8 -98.35 M3.65 -77.9 Q2.4 -77.9 2.2 -77.2 1.9 -76.1 -1.2 -74.95 -4.9 -73.6 -7.15 -72.0 -9.15 -70.55 -9.15 -69.55 L-9.25 -63.2 Q-9.2 -60.75 -8.4 -59.8 -7.0 -58.25 3.55 -58.25 7.35 -58.25 8.45 -58.85 9.45 -59.4 9.45 -61.15 L9.15 -63.05 8.35 -63.05 7.3 -62.9 2.9 -63.15 -1.8 -63.35 -2.9 -63.4 4.15 -67.7 Q9.65 -71.05 9.65 -72.95 9.65 -76.0 8.4 -76.95 7.25 -77.9 3.65 -77.9 M8.75 -85.95 Q8.15 -84.45 6.0 -82.3 L11.75 -80.65 Q15.35 -79.65 15.35 -78.15 L14.1 -76.75 12.75 -75.25 Q14.45 -74.9 14.95 -74.35 15.35 -73.95 15.35 -72.9 L14.5 -66.2 13.65 -61.35 Q13.65 -60.4 15.7 -59.45 17.75 -58.55 17.75 -56.45 17.75 -54.7 13.75 -52.1 L7.45 -48.3 17.4 -47.2 Q19.4 -47.1 21.55 -45.7 22.7 -44.95 25.0 -35.85 25.0 -35.35 20.9 -33.7 16.8 -32.05 16.8 -31.35 L17.1 -28.85 27.8 -27.9 Q30.5 -27.5 30.5 -23.7 30.5 -21.4 21.55 -20.05 L1.75 -18.8 -6.25 -19.75 Q-11.6 -20.65 -14.45 -21.6 -16.25 -22.2 -17.75 -25.5 -19.0 -28.3 -19.0 -29.8 -19.0 -31.6 -15.35 -32.35 -10.6 -33.3 -8.7 -35.2 L-8.75 -35.35 -11.7 -37.05 Q-14.6 -38.85 -14.6 -39.3 L-14.2 -40.65 -13.8 -42.05 Q-13.8 -52.4 -12.15 -53.35 L-8.95 -53.8 Q-5.95 -54.0 -3.3 -54.85 -10.5 -56.8 -12.0 -58.1 -13.1 -59.1 -13.1 -62.65 -13.1 -70.3 -11.6 -76.9 L-10.15 -83.55 -10.55 -87.0 -11.0 -90.5 -10.2 -92.35 Q-9.4 -94.4 -9.3 -95.4 -7.5 -108.95 -6.25 -110.1 L-4.1 -110.9 Q-2.25 -111.45 -0.25 -113.25 0.1 -112.15 4.9 -101.6 9.4 -91.8 9.4 -90.95 9.4 -87.55 8.75 -85.95 M3.55 -27.3 Q1.85 -27.5 -4.95 -29.45 L-12.2 -31.3 Q-14.25 -31.3 -14.25 -29.6 -14.25 -26.35 -8.2 -24.25 -3.15 -22.5 1.9 -22.5 6.1 -22.25 10.5 -22.4 19.35 -22.75 21.1 -24.95 19.9 -25.95 16.15 -26.2 L3.55 -27.3 M4.15 -38.3 L2.3 -37.95 12.65 -37.6 Q20.1 -37.65 21.8 -39.7 L19.8 -42.3 Q18.3 -43.75 15.7 -44.45 11.3 -45.65 8.25 -46.05 L-6.35 -46.95 Q-8.35 -46.95 -8.95 -44.05 L-9.15 -40.7 -8.7 -39.95 Q-7.95 -39.05 -6.25 -38.6 L-0.1 -38.55 4.35 -38.35 4.15 -38.3" fill="#493527" fill-rule="evenodd" stroke="none"/>
    <path d="M5.7 -1.75 L5.7 -2.85 5.8 -5.5 6.0 -8.8 6.25 -10.0 6.6 -10.1 Q6.8 -9.95 6.85 -10.35 L7.6 -9.2 Q7.85 -9.9 8.25 -10.0 L8.6 -8.8 8.95 -5.9 9.0 -5.5 9.1 -3.1 9.15 -1.75 5.7 -1.75 M15.2 -2.05 L15.2 -3.7 15.2 -5.85 15.05 -7.9 Q15.05 -8.6 15.35 -9.1 L16.05 -9.8 16.45 -9.2 16.95 -7.8 17.25 -6.0 17.4 -3.9 17.4 -2.2 15.2 -2.05 M22.85 -3.05 L22.85 -8.9 24.9 -8.9 24.9 -3.45 22.45 -2.95 22.85 -3.05 M-16.8 -3.8 L-16.65 -5.0 -16.2 -7.8 -16.15 -7.95 -16.15 -8.05 -15.6 -9.35 -15.4 -9.25 Q-15.2 -8.95 -15.1 -7.75 L-15.2 -4.7 -15.3 -3.45 -16.8 -3.8 M-11.5 -2.75 L-11.35 -4.0 -11.05 -7.05 -10.65 -9.7 -10.45 -9.7 Q-9.7 -9.15 -9.3 -9.15 L-9.25 -2.4 -11.5 -2.75 M-3.6 -1.95 L-3.6 -3.05 -3.6 -4.7 -3.6 -6.05 -3.4 -8.5 -2.95 -9.3 -2.6 -9.25 Q-2.25 -9.0 -1.85 -9.1 L-1.55 -9.15 -1.3 -9.15 -1.15 -5.8 -1.1 -2.9 -1.1 -1.95 -3.6 -1.95" fill="#3f3636" fill-rule="evenodd" stroke="none"/>
    <path d="M9.15 -1.75 L9.1 -3.1 9.0 -5.5 8.95 -5.9 8.6 -8.8 8.25 -10.0 Q7.85 -9.9 7.6 -9.2 L6.85 -10.35 Q6.8 -9.95 6.6 -10.1 L6.25 -10.0 6.0 -8.8 5.8 -5.5 5.7 -2.85 5.7 -1.75 0.65 -1.85 -1.1 -1.95 -1.1 -2.9 -1.15 -5.8 -1.3 -9.15 -1.55 -9.15 -1.85 -9.1 Q-2.25 -9.0 -2.6 -9.25 L-2.95 -9.3 -3.4 -8.5 -3.6 -6.05 -3.6 -4.7 -3.6 -3.05 -3.6 -1.95 -4.75 -2.0 -9.25 -2.4 -9.3 -9.15 Q-9.7 -9.15 -10.45 -9.7 L-10.65 -9.7 -11.05 -7.05 -11.35 -4.0 -11.5 -2.75 -15.3 -3.45 -15.2 -4.7 -15.1 -7.75 Q-15.2 -8.95 -15.4 -9.25 L-15.6 -9.35 -16.15 -8.05 -16.15 -7.95 -16.2 -7.8 -16.65 -5.0 -16.8 -3.8 -21.35 -4.9 -20.95 -6.1 -20.8 -7.1 -20.8 -7.7 -20.8 -7.85 -20.85 -8.9 -20.95 -9.95 Q-20.95 -11.3 -18.25 -11.55 L-16.85 -11.65 -16.75 -11.65 Q-9.35 -9.95 -6.65 -9.95 L-4.75 -10.0 0.65 -10.25 11.3 -10.75 24.1 -11.55 30.6 -12.4 31.5 -12.2 31.65 -12.15 31.6 -12.15 31.8 -12.05 32.15 -8.9 32.35 -6.7 32.5 -5.0 24.9 -3.45 24.9 -8.9 22.85 -8.9 22.85 -3.05 17.4 -2.2 17.4 -3.9 17.25 -6.0 16.95 -7.8 16.45 -9.2 16.05 -9.8 15.35 -9.1 Q15.05 -8.6 15.05 -7.9 L15.2 -5.85 15.2 -3.7 15.2 -2.05 9.15 -1.75" fill="#2e2828" fill-rule="evenodd" stroke="none"/>
    <path d="M43.15 -22.35 L43.65 -19.15 43.95 -16.9 44.25 -13.7 44.4 -11.5 44.4 -9.8 Q44.4 -8.5 39.45 -6.1 33.3 -3.1 24.3 -1.6 L9.75 -0.6 2.3 -0.35 0.65 -0.45 -4.75 -1.0 -14.05 -2.4 Q-37.9 -6.45 -37.9 -11.25 L-37.8 -12.65 -37.6 -14.65 -37.25 -18.05 -37.05 -19.5 -36.9 -21.0 -37.3 -21.75 -35.95 -20.8 -34.95 -19.9 -35.75 -20.35 -35.8 -20.4 -35.75 -19.0 -35.75 -17.3 -35.85 -14.95 -35.9 -13.75 -36.0 -11.8 -36.0 -11.65 Q-35.9 -9.55 -33.3 -8.6 L-29.25 -7.45 Q-27.05 -6.3 -25.0 -5.75 L-21.35 -4.9 -16.8 -3.8 -15.3 -3.45 -11.5 -2.75 -9.25 -2.4 -4.75 -2.0 -3.6 -1.95 -1.1 -1.95 0.65 -1.85 5.7 -1.75 9.15 -1.75 15.2 -2.05 17.4 -2.2 22.85 -3.05 22.45 -2.95 24.9 -3.45 32.5 -5.0 38.7 -7.5 Q40.9 -8.7 42.45 -9.1 42.7 -9.3 42.8 -10.7 L42.85 -12.65 42.85 -13.0 42.75 -16.3 42.7 -16.8 42.55 -18.6 42.2 -21.45 42.05 -21.3 41.9 -21.2 41.35 -20.8 41.4 -20.85 42.75 -22.1 43.15 -22.35" fill="#070606" fill-rule="evenodd" stroke="none"/>
    <path d="M32.5 -5.0 L32.35 -6.7 32.15 -8.9 31.8 -12.05 31.6 -12.15 31.65 -12.15 31.5 -12.2 30.6 -12.4 24.1 -11.55 11.3 -10.75 0.65 -10.25 -4.75 -10.0 -6.65 -9.95 Q-9.35 -9.95 -16.75 -11.65 L-16.85 -11.65 -18.25 -11.55 Q-20.95 -11.3 -20.95 -9.95 L-20.85 -8.9 -20.8 -7.85 -20.8 -7.7 -20.8 -7.1 -20.95 -6.1 -21.35 -4.9 -25.0 -5.75 Q-27.05 -6.3 -29.25 -7.45 L-29.15 -8.7 -29.35 -11.2 -29.4 -11.5 Q-29.25 -13.55 -28.1 -14.25 L-26.5 -14.65 -15.2 -13.9 4.75 -12.5 4.75 -12.1 19.6 -13.1 28.45 -14.05 36.9 -15.3 37.25 -14.0 37.8 -11.3 37.9 -10.85 38.4 -8.75 38.7 -7.5 32.5 -5.0" fill="#231e1e" fill-rule="evenodd" stroke="none"/>
    <path d="M38.7 -7.5 L38.4 -8.75 37.9 -10.85 37.8 -11.3 37.25 -14.0 36.9 -15.3 28.45 -14.05 19.6 -13.1 4.75 -12.1 4.75 -12.5 -15.2 -13.9 -26.5 -14.65 -28.1 -14.25 Q-29.25 -13.55 -29.4 -11.5 L-29.35 -11.2 -29.15 -8.7 -29.25 -7.45 -33.3 -8.6 Q-35.9 -9.55 -36.0 -11.65 L-36.0 -11.8 -35.9 -13.75 -35.85 -14.95 -35.75 -17.3 -35.75 -19.0 -35.8 -20.4 -35.75 -20.35 -34.95 -19.9 Q-30.5 -17.5 -19.5 -16.15 L3.7 -14.8 22.6 -15.8 Q36.0 -17.35 41.4 -20.85 L41.35 -20.8 41.9 -21.2 42.05 -21.3 42.2 -21.45 42.55 -18.6 42.7 -16.8 42.75 -16.3 42.85 -13.0 42.85 -12.65 42.8 -10.7 Q42.7 -9.3 42.45 -9.1 40.9 -8.7 38.7 -7.5" fill="#151212" fill-rule="evenodd" stroke="none"/>
    <path d="M1.05 -138.8 Q1.6 -138.05 1.6 -136.95 1.6 -136.15 0.85 -136.2 -0.75 -136.25 -2.7 -135.3 -3.65 -134.8 -4.9 -132.85 L-6.05 -129.9 -6.4 -129.1 -5.6 -129.0 -5.6 -128.7 -5.6 -127.1 -5.75 -127.15 -7.05 -127.45 -8.8 -127.9 Q-8.5 -128.2 -8.35 -128.9 L-8.25 -129.35 -8.1 -129.3 -8.05 -129.6 -8.25 -129.45 -8.2 -130.25 -7.25 -131.75 Q-6.55 -132.75 -6.55 -133.0 L-5.95 -133.85 -3.05 -137.25 -2.15 -138.3 -0.5 -137.85 Q0.0 -137.85 0.0 -138.35 L-0.15 -138.8 Q-0.6 -139.35 -2.25 -139.4 L-4.8 -139.3 -6.45 -138.9 Q-7.65 -138.45 -7.65 -138.05 L-7.65 -137.75 -11.15 -134.6 -13.0 -132.2 -12.75 -132.55 -13.75 -131.5 -14.8 -129.9 -14.95 -129.95 -18.3 -121.8 Q-18.3 -120.3 -14.9 -118.2 L-14.85 -118.15 -13.5 -117.45 Q-11.15 -116.3 -8.1 -115.75 L-5.6 -115.4 -5.6 -114.3 -8.75 -114.9 Q-11.3 -115.5 -13.65 -116.45 L-13.75 -116.5 -15.1 -117.1 Q-19.55 -119.25 -19.55 -121.9 -19.55 -124.15 -17.3 -128.0 -15.7 -130.75 -14.6 -131.5 L-15.15 -131.05 Q-14.6 -132.4 -9.0 -138.15 -6.05 -140.9 -2.2 -140.3 0.1 -139.95 1.05 -138.8 M-1.05 -137.25 L-1.3 -137.5 -1.8 -137.1 -1.05 -137.25" fill="#2e1908" fill-rule="evenodd" stroke="none"/>
    <path d="M-5.6 -127.1 L-5.6 -127.05 -5.75 -127.05 -7.0 -127.15 -9.1 -127.4 -10.15 -127.55 -11.5 -127.7 -12.0 -127.75 -13.85 -125.6 -13.95 -126.35 Q-14.1 -126.7 -14.75 -126.7 L-15.55 -126.45 -15.65 -125.8 Q-15.4 -124.95 -14.75 -124.9 L-14.45 -125.0 Q-15.15 -124.4 -15.3 -121.4 -15.3 -120.5 -14.45 -119.75 L-13.05 -118.9 Q-11.5 -118.15 -8.8 -117.6 L-5.6 -117.0 -5.6 -116.55 -5.6 -115.4 -8.1 -115.75 Q-11.15 -116.3 -13.5 -117.45 L-14.85 -118.15 -14.9 -118.2 Q-18.3 -120.3 -18.3 -121.8 L-14.95 -129.95 -14.8 -129.9 -13.75 -131.5 -12.75 -132.55 -13.0 -132.2 -11.15 -134.6 -7.65 -137.75 -7.65 -138.05 Q-7.65 -138.45 -6.45 -138.9 L-4.8 -139.3 -2.25 -139.4 Q-0.6 -139.35 -0.15 -138.8 L0.0 -138.35 Q0.0 -137.85 -0.5 -137.85 L-2.15 -138.3 -3.05 -137.25 -5.95 -133.85 -6.55 -133.0 Q-6.55 -132.75 -7.25 -131.75 L-8.2 -130.25 -8.25 -129.45 -8.4 -129.35 -8.25 -129.35 -8.35 -128.9 Q-8.5 -128.2 -8.8 -127.9 L-7.05 -127.45 -5.75 -127.15 -5.6 -127.1 M-17.5 -122.65 L-17.7 -122.25 -17.5 -121.85 -17.1 -121.7 Q-16.85 -121.7 -16.65 -121.85 -16.5 -122.0 -16.5 -122.25 L-16.65 -122.65 -17.1 -122.8 -17.5 -122.65" fill="#562e0f" fill-rule="evenodd" stroke="none"/>
    <path d="M-5.6 -127.05 L-5.6 -124.8 -5.6 -122.9 -5.6 -118.15 -5.6 -117.15 -5.6 -117.0 -8.8 -117.6 Q-11.5 -118.15 -13.05 -118.9 L-14.45 -119.75 Q-15.3 -120.5 -15.3 -121.4 -15.15 -124.4 -14.45 -125.0 L-14.75 -124.9 Q-15.4 -124.95 -15.65 -125.8 L-15.55 -126.45 -14.75 -126.7 Q-14.1 -126.7 -13.95 -126.35 L-13.85 -125.6 -12.0 -127.75 -11.5 -127.7 -10.15 -127.55 -9.1 -127.4 -7.0 -127.15 -5.75 -127.05 -5.6 -127.05 M-17.5 -122.65 L-17.1 -122.8 -16.65 -122.65 -16.5 -122.25 Q-16.5 -122.0 -16.65 -121.85 -16.85 -121.7 -17.1 -121.7 L-17.5 -121.85 -17.7 -122.25 -17.5 -122.65" fill="#6f3c15" fill-rule="evenodd" stroke="none"/>
  </g>
</svg>
