<?xml version="1.0" encoding="UTF-8" standalone="no"?>
<svg xmlns:ffdec="https://www.free-decompiler.com/flash" xmlns:xlink="http://www.w3.org/1999/xlink" ffdec:objectType="shape" height="52.3px" width="31.2px" xmlns="http://www.w3.org/2000/svg">
  <g transform="matrix(1.0, 0.0, 0.0, 1.0, 15.55, 10.45)">
    <path d="M-5.05 -4.05 L-2.9 -3.3 -4.4 -2.4 -5.5 -3.7 -5.05 -4.05 M6.95 -3.05 L8.1 -3.3 9.1 -2.3 7.2 -1.3 5.65 -2.35 Q6.45 -2.55 6.95 -3.05 M10.6 -0.3 Q12.7 2.1 12.75 6.95 L12.3 9.25 11.85 11.5 13.75 15.95 Q15.65 20.55 15.65 23.25 15.65 26.5 11.8 29.8 9.85 31.45 7.8 32.45 5.85 32.45 4.0 31.45 2.7 32.5 -0.1 37.95 -2.1 41.85 -5.45 41.85 -7.55 41.85 -9.2 40.2 -10.85 38.55 -11.35 38.55 -11.95 38.55 -13.5 35.05 -15.55 30.45 -15.55 24.55 -15.55 22.1 -12.75 12.3 -9.65 1.6 -7.4 -1.7 L-6.0 -0.4 Q-8.3 2.5 -10.0 6.8 -13.3 15.2 -13.25 28.8 L-13.3 28.8 Q-12.75 31.6 -11.1 34.85 -8.55 39.7 -5.5 39.7 -3.7 39.7 -2.95 38.45 -1.95 36.8 -1.95 32.05 L-2.9 21.4 Q-2.9 18.8 -2.5 16.6 -2.0 13.6 -0.9 12.65 1.05 13.5 2.35 15.35 4.3 18.05 5.55 23.45 6.5 25.2 7.35 26.1 8.9 27.7 10.8 27.7 11.6 27.7 12.4 26.95 13.65 25.7 13.65 23.1 13.65 18.45 11.55 14.4 7.4 6.35 6.8 4.8 L6.7 4.75 7.3 4.7 7.7 5.0 10.4 9.1 10.7 6.95 Q10.7 6.1 10.15 4.2 9.55 2.15 8.8 0.7 L10.6 -0.3 M0.8 17.05 Q0.2 18.85 -0.3 21.75 L-0.7 25.2 0.05 32.9 1.35 32.0 Q2.2 31.2 2.2 30.25 L2.15 18.2 Q1.65 19.6 0.8 17.05 M8.9 29.45 Q5.2 28.4 3.65 24.1 3.25 28.95 5.1 29.85 L8.5 30.2 8.9 29.45" fill="#5c4730" fill-rule="evenodd" stroke="none"/>
    <path d="M4.9 -0.75 L4.25 -2.3 5.65 -2.35 7.2 -1.3 4.9 -0.75 M8.8 0.7 Q9.55 2.15 10.15 4.2 10.7 6.1 10.7 6.95 L10.4 9.1 7.7 5.0 7.3 4.7 6.7 4.75 6.8 4.8 Q7.4 6.35 11.55 14.4 13.65 18.45 13.65 23.1 13.65 25.7 12.4 26.95 11.6 27.7 10.8 27.7 8.9 27.7 7.35 26.1 6.5 25.2 5.55 23.45 L7.85 24.55 Q9.25 24.55 10.1 22.8 10.75 21.5 10.75 20.55 10.75 17.75 7.65 12.95 4.5 8.1 4.5 6.85 L5.0 4.55 5.45 1.7 8.8 0.7 M-0.9 12.65 Q-2.0 13.6 -2.5 16.6 -2.9 18.8 -2.9 21.4 L-1.95 32.05 Q-1.95 36.8 -2.95 38.45 -3.7 39.7 -5.5 39.7 -8.55 39.7 -11.1 34.85 -12.75 31.6 -13.3 28.8 L-13.25 28.8 Q-11.5 32.7 -9.7 34.4 -8.5 35.45 -7.65 35.45 -5.3 35.45 -5.05 23.65 -4.8 11.85 -2.65 11.85 -1.45 11.85 -0.9 12.65 M8.9 29.45 L8.5 30.2 5.1 29.85 Q3.25 28.95 3.65 24.1 5.2 28.4 8.9 29.45 M0.8 17.05 Q1.65 19.6 2.15 18.2 L2.2 30.25 Q2.2 31.2 1.35 32.0 L0.05 32.9 -0.7 25.2 -0.3 21.75 Q0.2 18.85 0.8 17.05" fill="#ffc58a" fill-rule="evenodd" stroke="none"/>
    <path d="M-2.9 -3.3 L2.1 -2.65 4.25 -2.3 4.9 -0.75 0.25 -1.35 -4.4 -2.4 -2.9 -3.3 M5.55 23.45 Q4.3 18.05 2.35 15.35 1.05 13.5 -0.9 12.65 -1.45 11.85 -2.65 11.85 -4.8 11.85 -5.05 23.65 -5.3 35.45 -7.65 35.45 -8.5 35.45 -9.7 34.4 -11.5 32.7 -13.25 28.8 -13.3 15.2 -10.0 6.8 -8.3 2.5 -6.0 -0.4 -5.75 0.3 -4.75 0.3 L-0.4 1.15 5.45 1.7 5.0 4.55 4.5 6.85 Q4.5 8.1 7.65 12.95 10.75 17.75 10.75 20.55 10.75 21.5 10.1 22.8 9.25 24.55 7.85 24.55 L5.55 23.45" fill="#ffd5aa" fill-rule="evenodd" stroke="none"/>
    <path d="M8.3 -7.2 L9.45 -6.55 7.8 -5.8 7.55 -6.0 8.3 -7.2 M-6.85 -6.6 Q-6.85 -5.65 -6.45 -4.95 -6.05 -4.25 -5.45 -4.25 L-5.5 -3.7 -4.4 -2.4 0.25 -1.35 4.9 -0.75 7.2 -1.3 9.1 -2.3 Q9.45 -2.3 9.7 -2.75 L9.9 -3.95 11.9 -5.65 12.35 -4.6 12.45 -3.6 12.25 -2.25 10.6 -0.3 8.8 0.7 5.45 1.7 -0.4 1.15 -4.75 0.3 Q-5.75 0.3 -6.0 -0.4 L-7.4 -1.7 Q-8.05 -3.0 -8.05 -3.95 L-6.85 -6.6" fill="#b23875" fill-rule="evenodd" stroke="none"/>
    <path d="M7.8 -5.8 L9.45 -6.55 8.3 -7.2 Q8.65 -9.2 9.2 -9.85 9.7 -10.55 10.3 -10.4 10.85 -10.3 11.3 -9.4 L11.9 -7.3 11.9 -5.65 9.9 -3.95 8.1 -3.3 6.95 -3.05 2.1 -2.65 -2.9 -3.3 -5.05 -4.05 -5.45 -4.25 Q-6.05 -4.25 -6.45 -4.95 -6.85 -5.65 -6.85 -6.6 -5.35 -9.55 -2.5 -9.95 L-1.7 -7.6 -3.9 -6.8 -3.45 -6.1 -1.8 -5.6 -0.95 -5.4 7.8 -5.8" fill="#224d44" fill-rule="evenodd" stroke="none"/>
  </g>
</svg>
