<?xml version="1.0" encoding="UTF-8" standalone="no"?>
<svg xmlns:ffdec="https://www.free-decompiler.com/flash" xmlns:xlink="http://www.w3.org/1999/xlink" ffdec:objectType="shape" height="77.6px" width="77.6px" xmlns="http://www.w3.org/2000/svg">
  <g transform="matrix(1.0, 0.0, 0.0, 1.0, 30.95, 47.6)">
    <path d="M-6.55 25.45 L-3.55 25.65 -3.55 26.55 -6.55 25.45" fill="#eaa76a" fill-rule="evenodd" stroke="none"/>
    <path d="M4.15 28.1 Q12.3 29.4 21.35 25.8 31.5 21.8 37.5 13.35 41.9 6.7 43.3 2.4 44.85 -2.3 44.85 -9.75 44.85 -24.3 34.0 -35.0 23.05 -45.8 7.85 -45.8 1.65 -45.8 -5.9 -42.7 -11.85 -40.3 -15.85 -37.3 L-16.55 -36.7 -18.45 -34.9 -20.65 -32.55 Q-25.35 -25.85 -26.85 -21.95 -29.3 -15.3 -29.05 -5.05 -28.85 -1.7 -27.35 2.9 -26.15 6.6 -25.1 8.4 -23.4 11.9 -19.55 16.1 -13.6 22.65 -6.55 25.45 L-3.55 26.55 Q-1.3 27.5 4.15 28.1 M35.3 -36.2 Q46.65 -24.85 46.65 -8.8 46.65 7.25 35.3 18.65 23.9 30.0 7.85 30.0 -8.2 30.0 -19.55 18.65 -30.95 7.25 -30.95 -8.8 -30.95 -24.85 -19.55 -36.2 -8.2 -47.6 7.85 -47.6 23.9 -47.6 35.3 -36.2" fill="#6c3d28" fill-rule="evenodd" stroke="none"/>
    <path d="M22.85 2.2 Q17.2 5.95 12.9 7.2 3.7 9.75 -15.25 9.75 L-25.1 8.4 Q-26.15 6.6 -27.35 2.9 -28.85 -1.7 -29.05 -5.05 -22.85 -8.65 -14.3 -10.65 -8.1 -12.05 -4.4 -12.05 12.2 -12.05 22.75 1.2 L22.9 0.85 22.85 2.2" fill="#ffcc99" fill-rule="evenodd" stroke="none"/>
    <path d="M26.4 -13.4 L26.6 -13.3 Q26.85 -11.2 25.35 -5.2 23.9 0.4 23.15 1.55 L23.0 1.45 22.9 0.85 22.75 1.2 Q12.2 -12.05 -4.4 -12.05 -8.1 -12.05 -14.3 -10.65 -22.85 -8.65 -29.05 -5.05 -29.3 -15.3 -26.85 -21.95 -25.35 -25.85 -20.65 -32.55 -7.6 -29.05 7.3 -23.0 22.45 -16.9 26.4 -13.4" fill="#f1ba87" fill-rule="evenodd" stroke="none"/>
    <path d="M37.5 13.35 Q39.5 9.7 39.95 7.6 L40.1 4.2 40.05 1.35 39.85 3.7 Q39.8 1.8 40.45 -2.65 L41.35 -10.05 Q41.75 -19.25 35.7 -23.55 L33.0 -24.6 30.9 -25.2 Q28.55 -25.2 27.15 -24.3 25.6 -23.35 25.6 -21.55 L25.9 -17.6 26.4 -13.4 Q22.45 -16.9 7.3 -23.0 -7.6 -29.05 -20.65 -32.55 L-18.45 -34.9 -16.55 -36.7 -15.85 -37.3 Q-11.85 -40.3 -5.9 -42.7 1.65 -45.8 7.85 -45.8 23.05 -45.8 34.0 -35.0 44.85 -24.3 44.85 -9.75 44.85 -2.3 43.3 2.4 41.9 6.7 37.5 13.35" fill="#db9c64" fill-rule="evenodd" stroke="none"/>
    <path d="M22.85 2.2 L24.2 5.15 24.95 7.0 Q25.5 7.0 25.4 7.25 25.05 7.8 25.05 8.2 25.05 14.75 16.15 20.35 7.55 25.7 -1.45 25.7 L-3.55 25.65 -6.55 25.45 Q-13.6 22.65 -19.55 16.1 -23.4 11.9 -25.1 8.4 L-15.25 9.75 Q3.7 9.75 12.9 7.2 17.2 5.95 22.85 2.2" fill="#e3b588" fill-rule="evenodd" stroke="none"/>
    <path d="M26.6 -13.3 Q38.0 -5.2 38.0 1.45 38.0 13.65 22.75 21.85 17.5 24.65 11.3 26.5 L4.15 28.1 Q-1.3 27.5 -3.55 26.55 L-3.55 25.65 -1.45 25.7 Q7.55 25.7 16.15 20.35 25.05 14.75 25.05 8.2 25.05 7.8 25.4 7.25 25.5 7.0 24.95 7.0 L24.2 5.15 22.85 2.2 22.9 0.85 23.0 1.45 23.15 1.55 Q23.9 0.4 25.35 -5.2 26.85 -11.2 26.6 -13.3" fill="#d6a578" fill-rule="evenodd" stroke="none"/>
    <path d="M26.4 -13.4 L25.9 -17.6 25.6 -21.55 Q25.6 -23.35 27.15 -24.3 28.55 -25.2 30.9 -25.2 L33.0 -24.6 35.7 -23.55 Q41.75 -19.25 41.35 -10.05 L40.45 -2.65 Q39.8 1.8 39.85 3.7 L40.05 1.35 40.1 4.2 39.95 7.6 Q39.5 9.7 37.5 13.35 31.5 21.8 21.35 25.8 12.3 29.4 4.15 28.1 L11.3 26.5 Q17.5 24.65 22.75 21.85 38.0 13.65 38.0 1.45 38.0 -5.2 26.6 -13.3 L26.4 -13.4" fill="#c38a59" fill-rule="evenodd" stroke="none"/>
  </g>
</svg>
