<?xml version="1.0" encoding="UTF-8" standalone="no"?>
<svg xmlns:ffdec="https://www.free-decompiler.com/flash" xmlns:xlink="http://www.w3.org/1999/xlink" ffdec:objectType="shape" height="174.15px" width="59.2px" xmlns="http://www.w3.org/2000/svg">
  <g transform="matrix(1.0, 0.0, 0.0, 1.0, 58.5, 56.65)">
    <path d="M-22.05 -56.65 Q-5.05 -55.95 -2.1 -54.5 0.6 -53.2 0.7 -47.6 0.75 -45.3 -0.2 -34.8 -0.3 -33.65 -6.15 -17.35 -12.1 -0.8 -12.6 3.05 -13.3 8.2 -13.45 11.45 -13.75 16.75 -13.75 28.85 L-14.25 59.3 -14.0 77.95 Q-13.9 83.65 -14.7 85.95 -15.3 87.8 -18.6 92.6 -23.65 99.95 -28.0 107.4 L-30.0 105.15 -32.0 102.6 Q-35.25 112.25 -37.75 113.15 L-38.9 108.0 Q-39.9 103.9 -40.75 102.35 -41.05 106.2 -42.1 110.45 -43.9 117.5 -46.6 117.5 L-47.2 117.4 -47.15 117.25 -47.25 116.8 -46.75 115.35 -46.5 114.0 Q-46.5 111.8 -51.75 104.65 -57.0 97.55 -57.0 91.95 -57.0 84.15 -53.6 75.75 -50.25 67.35 -50.25 66.7 L-52.75 60.0 Q-55.25 53.5 -55.25 48.45 -55.25 44.7 -53.5 39.9 -51.75 35.1 -51.75 34.05 -51.75 31.65 -55.1 25.0 -58.5 18.3 -58.5 13.65 -58.5 7.6 -56.05 0.25 -53.65 -7.15 -53.65 -9.65 -53.65 -11.45 -54.5 -15.55 -55.4 -19.6 -55.4 -21.35 -55.4 -36.15 -43.5 -47.0 -32.95 -56.65 -22.05 -56.65 M-4.55 -54.15 Q-7.3 -55.55 -18.75 -55.25 -34.75 -54.85 -45.0 -43.4 -54.0 -33.35 -54.0 -21.3 -54.0 -17.9 -53.0 -15.1 -52.05 -12.25 -52.05 -10.75 -52.05 -8.3 -52.3 -7.75 -53.25 -5.9 -55.15 2.85 L-56.25 8.85 -57.0 13.6 Q-57.0 18.05 -53.6 23.45 -50.25 28.8 -50.25 34.1 -50.25 35.65 -52.0 40.45 -53.75 45.3 -53.75 48.45 -53.75 50.95 -52.4 55.1 L-50.6 60.05 -49.35 63.4 Q-48.75 65.1 -48.75 66.5 -48.75 70.3 -52.1 77.1 -55.5 83.95 -55.5 92.05 -55.5 95.15 -51.65 101.35 -46.55 109.5 -45.0 113.35 -42.55 107.2 -42.55 106.0 -42.55 104.85 -45.0 96.3 -47.5 87.7 -47.5 82.5 -47.5 80.9 -45.6 74.7 -42.7 65.05 -40.1 53.95 -41.05 64.55 -43.9 72.65 -46.5 79.9 -46.5 82.45 -46.5 84.0 -44.45 90.7 -42.05 98.5 -39.9 100.9 -37.9 103.15 -37.4 107.05 -37.1 109.0 -37.25 110.75 L-32.9 101.6 Q-32.9 101.25 -35.05 94.45 -37.25 87.6 -37.25 83.4 -37.25 75.4 -36.6 72.4 -34.95 66.6 -33.0 58.5 -30.65 49.2 -29.65 44.7 -27.9 37.0 -27.9 33.55 -27.9 29.9 -28.9 24.65 L-31.15 12.75 -31.15 10.6 Q-29.95 15.8 -28.7 23.2 -27.5 30.05 -27.5 31.2 -27.5 41.2 -28.05 43.85 -28.35 45.45 -29.2 47.6 -30.35 52.95 -33.75 65.35 -36.25 74.2 -36.25 77.4 -36.25 88.4 -33.9 93.9 -32.4 97.3 -28.05 104.5 -18.1 90.25 -16.8 86.75 -15.15 82.15 -15.15 66.45 L-14.95 46.4 -15.4 17.35 Q-15.35 4.8 -12.75 -4.5 -9.7 -15.4 -4.1 -28.0 -1.0 -35.0 -1.0 -44.25 -1.0 -52.3 -4.55 -54.15" fill="#97877d" fill-rule="evenodd" stroke="none"/>
    <path d="M-4.55 -54.15 Q-1.0 -52.3 -1.0 -44.25 -1.0 -35.0 -4.1 -28.0 -9.7 -15.4 -12.75 -4.5 -15.35 4.8 -15.4 17.35 L-14.95 46.4 -15.15 66.45 Q-15.15 82.15 -16.8 86.75 -18.1 90.25 -28.05 104.5 -32.4 97.3 -33.9 93.9 -36.25 88.4 -36.25 77.4 -36.25 74.2 -33.75 65.35 -30.35 52.95 -29.2 47.6 -28.35 45.45 -28.05 43.85 -27.5 41.2 -27.5 31.2 -27.5 30.05 -28.7 23.2 -29.95 15.8 -31.15 10.6 L-31.15 12.75 -28.9 24.65 Q-27.9 29.9 -27.9 33.55 -27.9 37.0 -29.65 44.7 -30.65 49.2 -33.0 58.5 -34.95 66.6 -36.6 72.4 -37.25 75.4 -37.25 83.4 -37.25 87.6 -35.05 94.45 -32.9 101.25 -32.9 101.6 L-37.25 110.75 Q-37.1 109.0 -37.4 107.05 -37.9 103.15 -39.9 100.9 -42.05 98.5 -44.45 90.7 -46.5 84.0 -46.5 82.45 -46.5 79.9 -43.9 72.65 -41.05 64.55 -40.1 53.95 -42.7 65.05 -45.6 74.7 -47.5 80.9 -47.5 82.5 -47.5 87.7 -45.0 96.3 -42.55 104.85 -42.55 106.0 -42.55 107.2 -45.0 113.35 -46.55 109.5 -51.65 101.35 -55.5 95.15 -55.5 92.05 -55.5 83.95 -52.1 77.1 -48.75 70.3 -48.75 66.5 -48.75 65.1 -49.35 63.4 L-50.6 60.05 -52.4 55.1 Q-53.75 50.95 -53.75 48.45 -53.75 45.3 -52.0 40.45 -50.25 35.65 -50.25 34.1 -50.25 28.8 -53.6 23.45 -57.0 18.05 -57.0 13.6 L-56.25 8.85 -55.15 2.85 Q-53.25 -5.9 -52.3 -7.75 -52.05 -8.3 -52.05 -10.75 -52.05 -12.25 -53.0 -15.1 -54.0 -17.9 -54.0 -21.3 -54.0 -33.35 -45.0 -43.4 -34.75 -54.85 -18.75 -55.25 -7.3 -55.55 -4.55 -54.15 M-47.25 -8.7 Q-47.25 -5.85 -49.6 2.7 L-52.0 11.8 Q-52.0 16.5 -49.25 23.3 -46.5 30.05 -46.5 34.05 -46.5 34.4 -47.85 39.3 -49.25 44.2 -49.25 47.75 -49.25 50.75 -48.75 53.6 -47.95 57.95 -46.25 59.75 -45.85 59.65 -45.8 59.55 -45.65 59.4 -45.65 58.7 L-46.9 53.35 Q-46.9 51.2 -44.9 44.5 -42.9 37.8 -42.9 37.05 -42.9 36.15 -44.5 27.4 -46.15 18.6 -46.15 13.95 -46.15 8.2 -42.5 1.55 -38.9 -5.15 -38.9 -10.35 L-40.1 -16.65 Q-41.3 -22.8 -41.3 -25.35 -41.3 -30.65 -38.4 -36.7 L-35.55 -42.8 Q-35.55 -44.35 -38.05 -44.35 -44.0 -44.35 -46.95 -33.6 -48.45 -28.2 -48.75 -22.4 -48.75 -15.7 -48.0 -12.25 L-47.25 -8.7 M-15.7 -48.4 Q-17.05 -49.2 -19.25 -49.2 -23.5 -49.2 -28.1 -43.75 -33.35 -37.6 -36.55 -27.05 L-36.0 -25.8 Q-35.4 -26.1 -34.3 -29.25 L-31.85 -35.85 Q-27.65 -45.15 -20.5 -45.15 -20.1 -44.6 -19.2 -44.6 -17.45 -44.65 -14.5 -47.35 L-15.7 -48.4 M-34.15 0.1 Q-37.05 1.3 -38.95 7.1 -41.65 15.45 -41.65 31.8 L-39.9 42.9 Q-38.15 54.3 -38.15 59.15 -38.15 61.5 -39.55 66.1 L-41.45 73.1 -42.0 77.85 -42.25 81.7 -41.2 89.4 Q-39.7 97.15 -37.2 98.0 L-37.1 98.0 -37.0 97.35 -38.8 92.35 Q-40.65 86.5 -40.65 81.65 L-40.15 75.5 Q-39.45 70.0 -38.1 65.8 L-37.8 67.0 Q-36.7 63.3 -35.8 56.8 -34.75 49.55 -34.75 44.05 -34.75 40.4 -36.05 29.15 -37.4 17.9 -37.4 14.5 -37.4 5.85 -36.1 2.9 L-34.05 0.25 -34.15 0.1 M-47.2 70.65 Q-48.75 72.8 -50.7 80.0 -52.5 86.55 -52.5 88.25 -52.5 93.65 -49.15 99.85 L-44.75 107.25 -44.4 107.0 Q-47.45 93.9 -48.5 88.0 -50.35 77.9 -47.45 71.85 L-47.2 70.65" fill="#cbc8c0" fill-rule="evenodd" stroke="none"/>
    <path d="M-47.2 70.65 L-47.45 71.85 Q-50.35 77.9 -48.5 88.0 -47.45 93.9 -44.4 107.0 L-44.75 107.25 -49.15 99.85 Q-52.5 93.65 -52.5 88.25 -52.5 86.55 -50.7 80.0 -48.75 72.8 -47.2 70.65 M-34.15 0.1 L-34.05 0.25 -36.1 2.9 Q-37.4 5.85 -37.4 14.5 -37.4 17.9 -36.05 29.15 -34.75 40.4 -34.75 44.05 -34.75 49.55 -35.8 56.8 -36.7 63.3 -37.8 67.0 L-38.1 65.8 Q-39.45 70.0 -40.15 75.5 L-40.65 81.65 Q-40.65 86.5 -38.8 92.35 L-37.0 97.35 -37.1 98.0 -37.2 98.0 Q-39.7 97.15 -41.2 89.4 L-42.25 81.7 -42.0 77.85 -41.45 73.1 -39.55 66.1 Q-38.15 61.5 -38.15 59.15 -38.15 54.3 -39.9 42.9 L-41.65 31.8 Q-41.65 15.45 -38.95 7.1 -37.05 1.3 -34.15 0.1 M-15.7 -48.4 L-14.5 -47.35 Q-17.45 -44.65 -19.2 -44.6 -20.1 -44.6 -20.5 -45.15 -27.65 -45.15 -31.85 -35.85 L-34.3 -29.25 Q-35.4 -26.1 -36.0 -25.8 L-36.55 -27.05 Q-33.35 -37.6 -28.1 -43.75 -23.5 -49.2 -19.25 -49.2 -17.05 -49.2 -15.7 -48.4 M-47.25 -8.7 L-48.0 -12.25 Q-48.75 -15.7 -48.75 -22.4 -48.45 -28.2 -46.95 -33.6 -44.0 -44.35 -38.05 -44.35 -35.55 -44.35 -35.55 -42.8 L-38.4 -36.7 Q-41.3 -30.65 -41.3 -25.35 -41.3 -22.8 -40.1 -16.65 L-38.9 -10.35 Q-38.9 -5.15 -42.5 1.55 -46.15 8.2 -46.15 13.95 -46.15 18.6 -44.5 27.4 -42.9 36.15 -42.9 37.05 -42.9 37.8 -44.9 44.5 -46.9 51.2 -46.9 53.35 L-45.65 58.7 Q-45.65 59.4 -45.8 59.55 -45.85 59.65 -46.25 59.75 -47.95 57.95 -48.75 53.6 -49.25 50.75 -49.25 47.75 -49.25 44.2 -47.85 39.3 -46.5 34.4 -46.5 34.05 -46.5 30.05 -49.25 23.3 -52.0 16.5 -52.0 11.8 L-49.6 2.7 Q-47.25 -5.85 -47.25 -8.7" fill="#ebe8e0" fill-rule="evenodd" stroke="none"/>
  </g>
</svg>
