<?xml version="1.0" encoding="UTF-8" standalone="no"?>
<svg xmlns:ffdec="https://www.free-decompiler.com/flash" xmlns:xlink="http://www.w3.org/1999/xlink" ffdec:objectType="shape" height="56.05px" width="87.5px" xmlns="http://www.w3.org/2000/svg">
  <g transform="matrix(1.0, 0.0, 0.0, 1.0, 39.85, 17.35)">
    <path d="M6.6 -9.8 L6.6 -8.6 6.6 -4.2 5.4 -4.15 5.35 -7.55 5.35 -9.85 2.05 -9.9 2.05 -8.15 2.05 -4.2 0.8 -4.25 Q0.65 -10.4 0.8 -10.4 L-2.9 -10.55 -2.9 -10.6 -2.9 -11.6 6.6 -11.3 6.6 -9.8 M6.6 -1.15 L6.6 1.5 6.6 2.3 7.3 7.65 6.4 7.65 5.7 3.35 5.65 3.25 5.45 1.85 5.45 1.8 5.45 -1.1 6.6 -1.15 M17.3 -10.6 L9.6 -10.0 9.6 -11.35 15.65 -11.65 17.25 -11.8 17.3 -10.6 M0.9 -1.2 L1.85 -1.15 1.35 2.25 Q1.05 2.15 0.9 -1.2 M19.45 -12.05 L27.45 -13.45 27.55 -12.0 26.3 -11.65 26.45 -9.95 26.7 -7.15 25.5 -6.85 25.0 -11.4 20.25 -10.85 20.2 -12.15 19.45 -12.05 M30.4 -14.1 L31.6 -14.4 Q32.85 -14.9 33.8 -15.9 L33.95 -16.1 34.4 -16.1 34.45 -15.8 34.4 -15.85 34.8 -14.25 35.9 -10.1 34.75 -9.65 Q34.3 -11.6 33.05 -13.5 L30.5 -12.85 30.4 -14.1 M36.5 -7.1 L37.0 -3.75 37.05 -3.4 Q37.3 -1.95 38.45 0.65 41.1 6.4 47.55 16.25 L47.6 16.25 47.65 17.0 Q47.65 19.4 45.25 20.45 43.5 21.2 43.05 22.05 L42.25 20.45 Q44.6 19.55 45.75 18.45 46.8 17.45 46.65 16.65 L45.75 15.35 46.7 14.95 45.05 12.35 44.0 12.8 39.8 6.55 38.95 5.1 40.45 4.6 39.05 1.9 37.45 2.4 Q36.35 0.15 36.05 -1.35 L35.9 -2.55 35.95 -2.55 35.6 -5.4 35.35 -6.7 36.5 -7.1 M40.85 24.4 L37.45 25.25 Q32.0 26.2 32.0 27.15 32.0 27.8 30.25 28.55 L29.9 27.55 30.95 26.95 30.6 25.7 29.8 23.0 29.1 20.85 30.05 20.65 30.45 22.0 31.3 24.8 31.55 25.6 40.3 23.55 40.4 23.55 40.85 24.4 M27.4 29.5 L26.9 29.6 27.0 29.6 24.1 29.5 23.8 29.65 23.75 29.65 22.5 29.5 22.4 29.45 22.2 29.45 22.1 29.45 21.4 29.2 21.0 29.3 20.7 29.25 20.65 29.25 20.5 29.25 20.05 29.15 19.4 29.1 17.1 28.8 17.05 28.8 13.05 29.75 12.95 28.75 Q16.15 27.8 17.05 27.8 L17.85 27.9 21.1 28.3 21.55 28.35 22.2 28.45 24.8 28.75 25.15 28.75 27.1 28.55 27.4 29.5 M-19.9 29.15 L-20.7 28.95 -22.55 28.4 -23.5 27.7 -22.7 25.1 -22.5 24.9 -21.65 22.95 -20.65 20.2 -20.2 20.35 -21.3 23.55 -22.0 25.7 -22.55 27.25 -20.55 27.8 -18.1 27.95 -16.6 27.9 -12.15 27.45 -9.5 28.0 -9.6 29.0 -12.1 28.45 -16.55 28.95 -19.0 28.95 -19.9 29.15 M-26.05 25.8 Q-31.35 24.85 -32.65 24.3 -34.35 23.55 -34.35 21.3 L-34.45 21.15 -34.05 20.35 -33.9 20.4 -31.55 16.65 -30.7 17.0 -33.7 22.25 Q-32.25 23.7 -30.9 24.25 -29.1 24.95 -25.85 25.2 L-26.05 25.8 M-37.0 19.5 L-37.1 19.45 Q-39.85 17.8 -39.85 16.9 L-37.85 14.05 -37.05 14.4 -38.85 16.9 Q-38.2 18.1 -36.8 19.05 L-37.0 19.5 M-36.15 11.5 L-34.55 9.0 -31.1 3.4 -30.3 3.7 Q-32.5 7.75 -35.1 11.5 L-35.35 11.9 -36.15 11.5 M-29.7 0.75 L-29.6 0.5 Q-28.95 -0.85 -28.45 -3.0 L-28.05 -8.05 -26.95 -7.55 -27.25 -2.85 -27.25 -2.55 -28.45 0.1 -28.9 1.05 -29.7 0.75 M-27.7 -11.15 L-27.6 -12.1 -26.8 -17.35 -26.35 -17.35 -24.7 -15.8 Q-24.15 -15.3 -23.6 -15.1 L-24.0 -13.35 -25.55 -14.1 Q-26.25 -12.9 -26.6 -10.7 L-27.5 -11.05 -27.7 -11.15 M-21.9 -14.65 L-16.65 -13.3 -16.8 -11.45 -20.2 -11.85 -21.2 -12.15 -20.75 -14.25 -21.9 -14.65 M-14.35 -12.85 L-5.15 -11.75 -5.9 -11.8 -5.9 -10.75 -13.8 -11.2 -13.7 -12.7 -14.35 -12.85 M25.85 -3.8 L27.0 -4.1 27.35 -0.4 27.2 0.1 26.15 0.15 25.9 -2.4 25.9 -3.15 25.85 -3.8 M23.5 1.3 L24.05 -1.9 24.3 1.5 24.55 2.2 25.55 5.55 24.45 5.75 23.5 2.0 23.5 1.3 M31.1 -5.3 L31.15 -4.65 31.2 -4.65 Q31.25 -3.95 31.75 -2.7 L31.8 -2.2 31.6 -1.6 31.6 -1.55 31.85 -0.9 32.95 1.85 33.7 3.55 31.35 -1.1 31.05 -5.25 31.1 -5.3 M35.85 2.9 L34.5 -0.25 36.4 2.75 35.9 2.9 35.85 2.9 M25.25 8.7 L26.4 8.45 27.25 11.3 27.6 12.45 29.2 17.75 28.2 18.0 27.7 16.4 27.5 15.8 26.9 13.95 26.55 12.85 25.25 8.7 M7.0 10.7 L7.65 10.65 8.05 13.95 7.0 10.7 M-6.55 28.55 L-5.05 28.85 2.1 30.1 10.0 29.5 10.1 30.45 2.3 31.15 Q-2.55 31.15 -6.75 29.9 L-6.55 28.55 M-15.5 2.7 L-15.3 2.15 -15.85 5.2 -16.15 5.1 -15.5 2.7 M-16.5 8.15 L-17.15 10.65 -18.75 15.85 -19.05 16.8 -19.25 17.45 -19.7 17.35 -19.4 16.25 -18.95 14.8 -17.5 9.85 -16.95 8.0 -16.5 8.15 M-24.75 2.55 L-24.55 2.0 -23.8 -0.2 -24.45 2.55 -24.5 2.65 -24.75 2.55 M-25.9 5.35 L-25.4 5.5 -26.45 8.2 -27.5 10.6 -29.05 13.8 -29.3 14.3 -30.1 14.0 -27.7 9.2 -27.5 8.75 -26.65 6.95 -25.9 5.35" fill="#521210" fill-rule="evenodd" stroke="none"/>
    <path d="M9.6 -7.1 L9.6 -10.0 17.3 -10.6 17.35 -8.45 10.2 -7.3 9.6 -7.1 M8.05 13.95 L8.9 20.65 8.35 20.7 8.15 19.2 6.85 10.7 7.0 10.7 8.05 13.95 M8.8 23.7 L9.25 23.7 10.0 29.5 2.1 30.1 -5.05 28.85 -6.55 28.55 -6.35 26.8 -6.0 26.95 Q-4.5 27.85 -2.95 28.25 L6.75 28.95 9.6 28.75 8.8 23.7 M12.95 28.75 L12.75 27.35 Q16.5 26.45 19.25 26.45 L19.75 26.5 22.1 26.85 22.7 26.95 23.15 27.05 26.0 27.55 26.55 27.6 26.75 27.6 27.1 28.55 25.15 28.75 24.8 28.75 22.2 28.45 21.55 28.35 21.1 28.3 17.85 27.9 17.05 27.8 Q16.15 27.8 12.95 28.75 M0.8 -4.25 L-0.45 -4.3 -0.5 -5.35 -0.5 -8.7 -2.9 -8.7 -2.9 -10.55 0.8 -10.4 Q0.65 -10.4 0.8 -4.25 M-1.65 -1.35 L0.9 -1.2 Q1.05 2.15 1.35 2.25 L1.85 -1.15 2.2 -1.15 2.15 1.5 2.05 2.8 0.3 2.8 0.05 -1.1 -1.0 -1.15 -1.7 -1.35 -1.65 -1.35 M20.35 -8.8 L20.25 -10.85 25.0 -11.4 25.5 -6.85 23.0 -6.25 22.8 -8.6 22.75 -9.15 20.35 -8.8 M14.85 -1.75 L15.05 -1.5 14.5 -1.1 13.25 -0.95 12.0 -1.1 11.6 -1.4 14.85 -1.75 M30.5 -12.85 L33.05 -13.5 Q34.3 -11.6 34.75 -9.65 L30.85 -8.35 30.65 -10.6 30.5 -12.85 M20.55 -2.45 L20.9 -2.45 20.95 -1.5 20.6 -1.5 20.55 -2.45 M25.85 -3.8 L25.9 -3.15 25.9 -2.4 24.05 -1.9 23.5 1.3 23.2 -3.2 25.85 -3.8 M31.65 20.2 L33.05 22.35 Q34.15 23.65 35.0 23.65 L37.45 23.4 Q39.05 23.1 39.95 22.6 L40.4 23.55 40.3 23.55 31.55 25.6 31.3 24.8 30.45 22.0 30.05 20.65 31.65 20.2 M31.1 -5.3 L35.35 -6.7 35.6 -5.4 35.95 -2.55 35.9 -2.55 36.05 -1.35 Q36.35 0.15 37.45 2.4 L36.4 2.75 34.5 -0.25 35.85 2.9 33.7 3.55 32.95 1.85 31.85 -0.9 31.6 -1.55 31.6 -1.6 31.8 -2.2 31.75 -2.7 Q31.25 -3.95 31.2 -4.65 L31.15 -4.65 31.1 -5.3 M32.3 -3.25 L32.4 -3.35 32.3 -3.85 32.25 -3.1 32.3 -3.25 M45.75 15.35 L46.65 16.65 Q46.8 17.45 45.75 18.45 44.6 19.55 42.25 20.45 L40.65 17.35 42.2 16.75 Q42.9 18.15 43.1 18.2 L43.45 18.2 44.05 18.1 44.6 17.5 45.0 16.25 44.7 15.75 45.75 15.35 M44.0 12.8 L43.05 13.2 38.1 5.35 38.95 5.1 39.8 6.55 44.0 12.8 M40.85 14.05 L39.3 14.65 35.05 6.3 37.1 5.7 37.7 7.05 40.85 14.05 M25.7 5.5 L25.55 5.55 24.55 2.2 24.3 1.5 24.55 2.15 25.7 5.5 M26.4 8.45 L26.7 8.4 27.2 9.75 28.15 12.4 29.2 15.05 29.95 16.75 30.25 17.45 29.2 17.75 27.6 12.45 27.25 11.3 26.4 8.45 M29.1 20.85 L29.8 23.0 30.6 25.7 30.95 26.95 29.9 27.55 27.8 21.2 29.1 20.85 M24.45 5.75 L24.0 5.85 23.5 2.0 24.45 5.75 M24.5 8.85 L25.25 8.7 26.55 12.85 26.9 13.95 27.5 15.8 27.7 16.4 28.2 18.0 26.8 18.3 25.7 15.0 24.6 9.55 24.5 8.85 M19.4 29.1 L20.05 29.15 19.95 29.15 19.4 29.1 M-24.0 -13.35 L-24.7 -9.9 -26.6 -10.7 Q-26.25 -12.9 -25.55 -14.1 L-24.0 -13.35 M-26.95 -7.55 L-25.35 -6.9 -26.4 -1.8 -28.0 1.4 -28.9 1.05 -28.45 0.1 -27.25 -2.55 -27.25 -2.85 -26.95 -7.55 M-30.3 3.7 L-29.35 4.1 -29.65 4.75 -34.45 12.25 -35.35 11.9 -35.1 11.5 Q-32.5 7.75 -30.3 3.7 M-35.8 17.1 L-36.8 19.05 Q-38.2 18.1 -38.85 16.9 L-37.05 14.4 -36.1 14.85 -37.05 16.25 -35.8 17.1 M-34.05 20.35 L-32.1 16.45 -31.55 16.65 -33.9 20.4 -34.05 20.35 M-30.1 14.0 L-30.75 13.75 -26.5 5.15 -25.95 5.35 -25.9 5.35 -26.65 6.95 -27.5 8.75 -27.7 9.2 -30.1 14.0 M-24.75 2.55 L-25.15 2.45 -23.85 -0.25 -23.05 0.05 -23.75 2.95 -24.5 2.65 -24.45 2.55 -23.8 -0.2 -24.55 2.0 -24.75 2.55 M-21.5 -10.55 L-21.2 -12.15 -20.2 -11.85 -16.8 -11.45 -16.9 -9.85 -21.5 -10.55 M-13.8 -11.2 L-5.9 -10.75 -5.9 -8.8 -13.4 -9.35 -13.95 -9.4 -13.8 -11.2 M-19.1 -4.7 L-17.75 -3.6 Q-18.0 -3.4 -18.3 -3.3 L-20.45 -4.15 -20.15 -5.05 -19.1 -4.7 M-9.05 -2.25 L-9.0 -2.25 -5.9 -1.8 -5.9 -1.7 -6.1 -1.65 -7.4 -1.45 -8.6 -1.65 -9.15 -2.1 -9.05 -2.25 M-11.85 -2.8 L-11.9 -2.15 -14.45 -2.15 -14.35 -3.4 -11.85 -2.8 M-10.75 19.3 L-9.35 11.35 -9.2 10.3 -9.15 9.55 -8.95 9.6 -8.7 12.25 -8.2 18.4 -8.4 19.7 -10.75 19.3 M-15.3 2.05 L-15.55 5.25 -15.85 5.2 -15.3 2.15 -15.3 2.05 M-16.5 8.15 L-16.0 8.25 -16.65 11.75 -16.85 12.55 -18.1 17.75 -19.25 17.45 -19.05 16.8 -18.75 15.85 -17.15 10.65 -16.5 8.15 M-15.55 2.8 L-15.5 2.7 -16.15 5.1 -16.25 5.1 -15.55 2.8 M-25.3 23.45 L-25.85 25.2 Q-29.1 24.95 -30.9 24.25 -32.25 23.7 -33.7 22.25 L-30.7 17.0 -29.4 17.45 -31.6 21.9 -27.05 23.15 -25.3 23.45 M-22.7 25.1 L-21.1 20.1 -20.65 20.2 -21.65 22.95 -22.5 24.9 -22.7 25.1 M-19.7 17.35 L-20.15 17.2 -17.2 7.95 -16.95 8.0 -17.5 9.85 -18.95 14.8 -19.4 16.25 -19.7 17.35 M-20.2 20.35 L-18.95 20.65 -20.5 24.8 -21.35 26.75 -21.4 26.75 -21.35 26.75 -18.75 27.15 -18.0 27.2 Q-13.7 27.2 -12.4 24.75 L-12.3 24.65 Q-11.9 23.8 -11.45 22.25 L-8.8 22.7 -9.5 28.0 -12.15 27.45 -16.6 27.9 -18.1 27.95 -20.55 27.8 -22.55 27.25 -22.0 25.7 -21.3 23.55 -20.2 20.35 M-29.3 14.3 L-29.05 13.8 -27.5 10.6 -26.45 8.2 -25.4 5.5 -24.5 5.85 -25.25 8.25 -26.1 10.3 -27.15 12.6 -28.1 14.7 -29.3 14.3" fill="#791a17" fill-rule="evenodd" stroke="none"/>
    <path d="M9.6 -7.1 L10.2 -7.3 17.35 -8.45 17.45 -6.1 12.1 -5.55 Q10.3 -5.05 9.75 -4.3 L9.6 -4.3 9.6 -7.1 M11.05 7.5 L10.3 7.55 9.6 1.95 9.6 -1.25 9.65 -1.25 Q9.8 0.4 10.25 1.95 L10.2 1.95 10.3 2.6 10.85 6.05 11.05 7.5 M21.45 2.25 L21.4 2.15 21.4 2.1 21.35 1.95 21.4 1.95 21.35 1.5 21.05 -2.75 23.2 -3.2 23.5 1.3 23.5 2.0 24.0 5.85 22.7 6.1 21.45 2.25 M5.45 1.8 L5.45 1.85 5.65 3.25 5.7 3.35 6.4 7.65 5.15 7.65 5.15 7.35 4.7 3.25 4.55 2.3 Q3.55 2.4 3.25 2.9 L2.75 7.6 2.7 7.6 0.5 7.55 -0.5 3.25 Q-1.05 1.25 -1.0 -1.15 L0.05 -1.1 0.3 2.8 2.05 2.8 2.15 1.5 5.45 1.8 M27.35 -0.4 L28.35 -0.7 28.4 -0.3 28.4 -0.25 27.85 -0.1 29.15 4.75 25.7 5.5 24.55 2.15 24.3 1.5 24.05 -1.9 25.9 -2.4 26.15 0.15 27.2 0.1 27.35 -0.4 M32.0 7.1 L32.1 7.1 36.45 15.65 35.4 15.95 34.6 14.05 32.55 8.75 32.05 7.25 32.0 7.1 M36.6 18.75 L37.8 18.35 39.95 22.6 Q39.05 23.1 37.45 23.4 L35.0 23.65 Q34.15 23.65 33.05 22.35 L31.65 20.2 34.25 19.45 34.45 19.9 Q35.3 21.8 35.8 21.8 L37.75 21.4 36.6 18.75 M20.35 -8.8 L22.75 -9.15 22.8 -8.6 23.0 -6.25 20.45 -5.7 20.35 -8.8 M32.3 -3.25 L32.25 -3.1 32.3 -3.85 32.4 -3.35 32.3 -3.25 M38.1 5.35 L43.05 13.2 40.85 14.05 37.7 7.05 37.1 5.7 38.1 5.35 M44.7 15.75 L45.0 16.25 44.6 17.5 44.05 18.1 43.45 18.2 43.1 18.2 Q42.9 18.15 42.2 16.75 L44.7 15.75 M26.7 8.4 L30.05 7.6 31.4 11.75 31.7 12.6 33.1 16.65 30.25 17.45 29.95 16.75 29.2 15.05 28.15 12.4 27.2 9.75 26.7 8.4 M25.7 15.0 L23.7 9.0 24.5 8.85 24.6 9.55 25.7 15.0 M13.1 20.4 L11.9 20.5 10.7 10.55 11.55 10.5 12.9 19.25 13.1 20.4 M6.85 10.7 L8.15 19.2 8.35 20.7 5.7 20.7 5.6 19.0 5.45 15.0 5.3 10.7 6.85 10.7 M6.0 23.75 L8.8 23.7 9.6 28.75 6.75 28.95 -2.95 28.25 Q-4.5 27.85 -6.0 26.95 L-6.35 26.8 -6.0 24.4 Q-5.35 26.1 -3.75 26.8 -1.55 27.8 4.25 27.8 L6.55 27.75 Q6.2 26.05 6.0 23.8 L6.0 23.75 M2.35 10.65 L2.4 10.65 2.0 13.85 1.25 10.6 2.35 10.65 M-7.45 12.5 L-8.2 18.4 -8.7 12.25 -8.95 9.6 -8.0 9.75 -7.45 12.5 M12.75 27.35 L12.3 23.5 13.6 23.4 13.95 25.65 14.85 25.35 Q16.0 24.7 16.95 23.2 L18.7 24.75 26.15 25.75 26.75 27.6 26.55 27.6 26.0 27.55 23.15 27.05 22.7 26.95 22.1 26.85 19.75 26.5 19.25 26.45 Q16.5 26.45 12.75 27.35 M-16.9 -9.85 L-17.1 -7.25 -21.9 -8.8 -21.5 -10.55 -16.9 -9.85 M-23.85 -0.25 L-23.55 -0.8 -22.5 -5.85 -20.15 -5.05 -20.45 -4.15 -18.3 -3.3 Q-18.0 -3.4 -17.75 -3.6 L-19.1 -4.7 -17.35 -4.15 -17.4 -4.05 -18.85 1.1 -18.9 1.05 Q-19.15 1.85 -20.5 3.95 L-23.75 2.95 -23.05 0.05 -23.85 -0.25 M-14.05 -7.75 L-13.95 -9.4 -13.4 -9.35 -5.9 -8.8 -5.9 -6.15 -8.95 -7.05 -14.05 -7.75 M-2.9 -8.7 L-0.5 -8.7 -0.5 -5.35 -0.45 -4.3 -2.7 -4.5 -2.9 -4.6 -2.9 -8.7 M-9.55 6.45 L-9.45 5.9 -9.3 5.0 -8.85 6.55 -9.55 6.45 M-9.15 9.55 L-9.2 10.3 -9.35 11.35 -10.75 19.3 -12.3 19.05 -12.15 18.5 -12.1 18.3 -10.3 9.7 -10.2 9.4 -9.15 9.55 M-15.25 1.9 L-14.1 2.15 -14.5 5.5 -15.55 5.25 -15.3 2.05 -15.25 1.9 M-16.0 8.25 L-14.95 8.5 -15.8 13.5 -16.8 18.1 -18.1 17.75 -16.85 12.55 -16.65 11.75 -16.0 8.25 M-18.95 20.65 L-17.6 21.0 Q-18.5 23.95 -19.4 25.7 -16.3 26.85 -14.05 23.1 L-13.4 21.9 -11.45 22.25 Q-11.9 23.8 -12.3 24.65 L-12.4 24.75 Q-13.7 27.2 -18.0 27.2 L-18.75 27.15 -21.35 26.75 -21.4 26.75 -21.35 26.75 -20.5 24.8 -18.95 20.65 M-24.5 5.85 L-22.2 6.55 -23.1 8.05 -25.6 12.65 -26.55 14.6 -26.85 15.15 -28.1 14.7 -27.15 12.6 -26.1 10.3 -25.25 8.25 -24.5 5.85 M-34.45 12.25 L-29.65 4.75 -33.6 12.6 -34.45 12.25 M-35.8 17.1 L-37.05 16.25 -36.1 14.85 -34.95 15.35 -35.8 17.1 M-29.4 17.45 L-28.15 17.9 -29.85 21.55 -25.45 22.25 -24.2 19.2 -23.95 19.25 -25.3 23.45 -27.05 23.15 -31.6 21.9 -29.4 17.45" fill="#96201d" fill-rule="evenodd" stroke="none"/>
    <path d="M5.35 -7.55 L5.4 -4.15 2.05 -4.2 2.05 -8.15 5.35 -7.55 M9.65 -1.25 L11.6 -1.4 12.0 -1.1 13.25 -0.95 14.5 -1.1 15.05 -1.5 14.85 -1.75 17.55 -2.1 17.65 0.55 18.9 4.25 15.5 5.6 15.8 7.1 13.95 7.25 13.6 5.2 13.5 4.8 Q13.15 4.65 12.9 5.35 L12.7 6.2 12.6 7.4 11.05 7.5 10.85 6.05 10.3 2.6 10.2 1.95 10.25 1.95 Q9.8 0.4 9.65 -1.25 M21.05 10.55 L23.85 18.95 22.8 19.15 21.05 10.55 M23.4 22.1 L24.8 21.8 26.15 25.75 18.7 24.75 16.95 23.2 Q16.0 24.7 14.85 25.35 L13.95 25.65 13.6 23.4 14.5 23.35 14.55 23.35 14.65 24.15 15.2 23.25 19.95 22.65 23.75 24.0 23.4 22.1 M21.4 2.1 L20.65 0.0 20.6 -1.5 20.95 -1.5 20.9 -2.45 20.55 -2.45 20.55 -2.65 21.05 -2.75 21.35 1.5 21.4 1.95 21.35 1.95 21.4 2.1 M17.45 -6.1 L17.45 -5.2 9.75 -4.3 Q10.3 -5.05 12.1 -5.55 L17.45 -6.1 M5.45 -1.1 L5.45 1.8 2.15 1.5 2.2 -1.15 5.45 -1.1 M5.65 3.25 L5.7 3.35 5.65 3.25 M26.45 -9.95 L27.65 -10.4 27.85 -7.5 26.7 -7.15 26.45 -9.95 M27.0 -4.1 L28.1 -4.4 28.35 -0.7 27.35 -0.4 27.0 -4.1 M29.15 4.75 L27.85 -0.1 28.4 -0.25 30.75 4.35 29.15 4.75 M30.05 7.6 L32.0 7.1 32.05 7.25 32.55 8.75 34.6 14.05 35.4 15.95 33.1 16.65 31.7 12.6 31.4 11.75 30.05 7.6 M34.25 19.45 L36.6 18.75 37.75 21.4 35.8 21.8 Q35.3 21.8 34.45 19.9 L34.25 19.45 M16.5 10.05 L18.45 17.75 18.95 19.75 16.35 20.1 16.1 18.95 14.8 12.1 14.5 10.25 16.5 10.05 M11.55 10.5 L12.8 10.4 13.9 19.2 14.05 20.35 13.1 20.4 12.9 19.25 11.55 10.5 M2.75 7.6 L3.25 2.9 Q3.55 2.4 4.55 2.3 L4.7 3.25 5.15 7.35 5.15 7.65 2.75 7.6 M1.25 10.6 L2.0 13.85 2.4 10.65 3.75 10.7 Q3.75 16.75 3.9 18.8 L3.9 19.2 4.1 20.7 2.6 20.7 -1.7 10.45 1.25 10.6 M3.8 10.7 L5.3 10.7 5.45 15.0 5.6 19.0 5.7 20.7 4.85 20.7 3.8 10.7 M5.2 23.75 L6.0 23.75 6.0 23.8 Q6.2 26.05 6.55 27.75 L4.25 27.8 Q-1.55 27.8 -3.75 26.8 -5.35 26.1 -6.0 24.4 L-5.85 23.1 -4.1 23.3 -3.9 24.3 1.9 25.65 4.65 25.65 3.85 23.75 4.9 23.75 4.9 23.85 5.3 24.95 5.2 23.75 M-5.9 -6.15 L-5.9 -4.85 -14.15 -6.45 -14.05 -7.75 -8.95 -7.05 -5.9 -6.15 M-20.5 3.95 Q-19.15 1.85 -18.9 1.05 L-18.85 1.1 -17.4 -4.05 -17.35 -4.15 -17.6 -0.6 -19.15 4.35 -20.5 3.95 M-15.25 1.9 L-14.6 -0.05 -14.6 -0.25 -14.45 -2.15 -11.9 -2.15 -11.85 -2.8 -9.05 -2.25 -9.15 -2.1 -8.6 -1.65 -7.4 -1.45 -6.1 -1.65 -5.9 -1.7 -5.9 0.75 -6.05 1.95 -6.85 0.9 Q-7.3 -0.3 -11.45 -0.3 L-12.3 -0.2 -12.55 -0.1 -12.35 2.65 -12.4 2.6 -12.9 5.85 -14.5 5.5 -14.1 2.15 -15.25 1.9 M-3.55 5.95 L-2.9 0.95 -2.9 0.85 -2.9 -1.45 -1.7 -1.35 -1.0 -1.15 Q-1.05 1.25 -0.5 3.25 L0.5 7.55 -3.0 7.3 -3.55 5.95 M-9.9 6.4 L-9.1 3.9 -8.35 6.65 -8.85 6.55 -9.3 5.0 -9.45 5.9 -9.55 6.45 -9.9 6.4 M-2.9 -4.6 L-2.7 -4.5 -2.75 -4.5 -2.9 -4.5 -2.9 -4.6 M-7.55 9.8 L-7.1 9.85 -7.25 10.95 -7.45 12.5 -8.0 9.75 -7.55 9.8 M-10.85 9.3 L-10.2 9.4 -10.3 9.7 -12.1 18.3 -12.15 18.5 -12.3 19.05 -13.9 18.7 -10.85 9.3 M-16.8 18.1 L-15.8 13.5 -14.95 8.5 -13.45 8.8 -14.75 15.2 -15.1 16.5 -15.65 18.35 -16.8 18.1 M-14.85 21.6 L-13.4 21.9 -14.05 23.1 Q-16.3 26.85 -19.4 25.7 -18.5 23.95 -17.6 21.0 L-16.65 21.2 -17.75 24.1 -15.65 24.1 -14.85 21.6 M-26.85 15.15 L-26.55 14.6 -25.6 12.65 -23.1 8.05 -22.2 6.55 -20.1 7.2 -23.05 16.4 -26.85 15.15 M-24.2 19.2 L-25.45 22.25 -29.85 21.55 -28.15 17.9 -24.2 19.2" fill="#b52522" fill-rule="evenodd" stroke="none"/>
    <path d="M2.05 -8.15 L2.05 -9.9 5.35 -9.85 5.35 -7.55 2.05 -8.15 M21.0 10.45 L21.05 10.55 22.8 19.15 18.95 19.75 18.45 17.75 16.5 10.05 20.65 9.5 21.0 10.45 M27.55 -12.0 L27.65 -10.4 26.45 -9.95 26.3 -11.65 27.55 -12.0 M23.4 22.1 L23.75 24.0 19.95 22.65 23.4 22.1 M15.8 7.1 L15.5 5.6 18.9 4.25 19.7 6.6 15.8 7.1 M14.5 10.25 L14.8 12.1 16.1 18.95 16.35 20.1 14.05 20.35 13.9 19.2 12.8 10.4 14.45 10.25 14.5 10.25 M12.6 7.4 L12.7 6.2 12.9 5.35 Q13.15 4.65 13.5 4.8 L13.6 5.2 13.95 7.25 12.6 7.4 M3.75 10.7 L3.8 10.7 4.85 20.7 4.1 20.7 3.9 19.2 3.9 18.8 Q3.75 16.75 3.75 10.7 M-1.7 10.45 L2.6 20.7 -4.85 20.15 -5.45 20.1 -5.25 18.65 -4.15 10.2 -1.7 10.45 M4.9 23.75 L5.2 23.75 5.3 24.95 4.9 23.85 4.9 23.75 M3.85 23.75 L4.65 25.65 1.9 25.65 -3.9 24.3 -4.1 23.3 3.85 23.75 M14.55 23.35 L15.2 23.25 14.65 24.15 14.55 23.35 M-12.9 5.85 L-12.4 2.6 -12.35 2.65 -12.55 -0.1 -12.3 -0.2 -11.45 -0.3 Q-7.3 -0.3 -6.85 0.9 L-6.05 1.95 -6.7 6.85 -8.35 6.65 -9.1 3.9 -9.9 6.4 -12.9 5.85 M-3.0 7.3 L-3.75 7.2 -3.55 5.95 -3.0 7.3 M-13.45 8.8 L-10.85 9.3 -13.9 18.7 -15.65 18.35 -15.1 16.5 -14.75 15.2 -13.45 8.8 M-16.65 21.2 L-14.85 21.6 -15.65 24.1 -17.75 24.1 -16.65 21.2" fill="#d52d28" fill-rule="evenodd" stroke="none"/>
    <path d="M9.6 -10.0 L6.6 -9.8 6.6 -11.3 7.1 -11.3 9.6 -11.35 9.6 -10.0 M6.6 -4.2 L6.6 -1.15 5.45 -1.1 5.4 -4.15 6.6 -4.2 M6.6 1.5 L6.7 2.3 6.85 3.25 7.35 7.05 7.5 8.0 8.6 15.15 8.1 14.05 8.05 13.95 7.65 10.65 7.0 10.7 6.75 9.75 6.4 7.65 7.3 7.65 6.6 2.3 6.6 1.5 M10.0 29.5 L12.3 28.95 12.95 28.75 13.05 29.75 12.0 30.0 10.1 30.45 10.0 29.5 M0.9 -1.2 L0.8 -4.15 0.8 -4.25 2.05 -4.2 2.05 -2.85 1.85 -1.15 0.9 -1.2 M20.25 -10.85 L17.3 -10.6 17.25 -11.8 19.45 -12.05 20.2 -12.15 20.25 -10.85 M27.45 -13.45 L29.0 -13.8 29.75 -13.95 30.4 -14.1 30.5 -12.85 30.45 -12.85 30.65 -10.6 30.85 -8.35 31.1 -5.3 31.05 -5.25 31.35 -1.1 33.7 3.55 35.95 8.55 36.1 8.85 37.25 11.25 Q40.0 17.05 42.1 20.5 L42.25 20.45 43.05 22.05 42.85 22.65 Q42.85 23.65 40.85 24.4 L40.4 23.55 Q41.8 23.1 41.8 22.25 41.8 21.7 41.2 20.75 L38.6 16.2 36.9 12.9 35.75 10.5 32.95 4.4 31.45 0.9 30.8 -0.65 30.75 -0.7 30.65 -0.95 30.5 -0.8 30.65 -1.05 30.35 -0.9 30.3 -0.95 30.15 -1.25 29.3 -11.1 29.2 -12.5 27.55 -12.0 27.45 -13.45 M35.9 -10.1 L36.5 -7.1 35.35 -6.7 34.8 -9.25 34.8 -9.4 34.75 -9.65 35.9 -10.1 M30.25 28.55 L29.65 28.8 27.4 29.5 27.1 28.55 28.35 28.2 29.9 27.55 30.25 28.55 M26.9 29.6 L26.85 29.65 25.6 30.7 23.15 32.55 Q15.1 38.05 6.6 38.6 L0.95 38.65 Q-8.35 38.05 -14.8 33.4 L-15.05 33.2 -15.25 33.1 -15.4 32.95 -17.3 31.4 -17.6 31.15 -18.15 30.6 -18.7 30.0 -18.95 29.7 -19.3 29.35 -19.4 29.2 -19.5 29.2 -19.9 29.15 -19.0 28.95 -16.55 28.95 -17.1 29.05 -17.05 29.1 -16.85 29.3 -16.7 29.45 -15.3 30.7 -14.95 31.0 -9.1 34.65 -8.6 34.85 Q-4.9 36.4 -0.55 36.95 L4.1 37.2 Q13.35 37.2 18.0 33.2 L19.45 31.8 20.2 30.8 20.3 30.65 20.75 29.95 20.95 29.6 21.0 29.45 21.1 29.3 20.7 29.25 21.0 29.3 21.4 29.2 22.1 29.45 21.85 29.4 21.05 31.8 23.8 29.65 24.1 29.5 27.0 29.6 26.9 29.6 M-23.5 27.7 L-23.55 27.65 -23.3 26.25 -26.05 25.8 -25.85 25.2 -22.95 25.25 -22.7 25.1 -23.5 27.7 M-34.45 21.15 L-37.0 19.5 -36.8 19.05 -34.05 20.35 -34.45 21.15 M-37.85 14.05 L-36.15 11.5 -35.35 11.9 -37.05 14.4 -37.85 14.05 M-31.1 3.4 L-29.7 0.75 -28.9 1.05 -30.3 3.7 -31.1 3.4 M-28.05 -8.05 L-27.95 -9.35 -27.8 -10.6 -27.8 -10.65 -27.7 -11.15 -27.5 -11.05 -26.6 -10.7 -26.95 -7.75 -26.95 -7.55 -28.05 -8.05 M-23.6 -15.1 L-23.6 -15.15 -23.2 -15.05 -23.15 -15.05 -23.1 -15.05 -22.95 -15.0 -21.9 -14.65 -20.75 -14.25 -21.2 -12.15 -23.15 -12.95 -24.0 -13.35 -23.6 -15.1 M-16.65 -13.3 L-16.25 -13.2 -14.35 -12.85 -13.7 -12.7 -13.8 -11.2 -16.8 -11.45 -16.65 -13.3 M-5.15 -11.75 L-2.9 -11.6 -2.9 -10.6 -4.4 -10.65 -5.9 -10.75 -5.9 -11.8 -5.15 -11.75 M25.5 -6.85 L26.7 -7.15 27.0 -4.1 25.85 -3.8 25.5 -6.85 M44.0 12.8 L45.05 12.35 46.7 14.95 45.75 15.35 44.0 12.8 M38.95 5.1 L37.75 2.95 37.45 2.4 39.05 1.9 40.45 4.6 38.95 5.1 M25.55 5.55 L26.25 8.0 26.3 8.1 26.4 8.45 25.25 8.7 24.55 6.1 24.45 5.75 25.55 5.55 M29.2 17.75 L29.25 17.9 30.05 20.65 29.1 20.85 28.55 19.0 28.2 18.0 29.2 17.75 M-31.55 16.65 L-30.1 14.0 -29.3 14.3 -30.7 17.0 -31.55 16.65 M-25.95 5.35 L-25.45 4.25 -24.75 2.55 -24.5 2.65 -25.4 5.5 -25.9 5.35 -25.95 5.35 M-15.85 5.2 L-16.5 8.15 -16.95 8.0 -16.15 5.1 -15.85 5.2 M-15.55 2.8 L-15.4 2.3 -15.3 1.9 -15.3 2.15 -15.5 2.7 -15.55 2.8 M-20.65 20.2 L-19.7 17.35 -19.25 17.45 -20.2 20.35 -20.65 20.2 M-9.5 28.0 L-6.55 28.55 -6.75 29.9 -7.0 29.8 -9.6 29.0 -9.5 28.0" fill="#0c0c0c" fill-rule="evenodd" stroke="none"/>
    <path d="M9.6 -10.0 L9.6 -7.1 Q8.6 -6.75 8.25 -6.0 7.85 -5.15 7.9 -2.75 7.9 -1.85 8.25 -1.6 8.4 -1.5 8.85 -1.35 8.45 -1.0 8.05 0.45 L7.65 2.15 7.6 2.1 7.65 2.2 12.0 27.55 12.75 27.35 12.95 28.75 12.3 28.95 10.0 29.5 9.25 23.7 8.8 23.7 8.8 23.65 8.35 20.7 8.9 20.65 8.05 13.95 8.1 14.05 8.6 15.15 7.5 8.0 7.35 7.05 6.85 3.25 6.7 2.3 6.6 1.5 6.6 -1.15 6.6 -4.2 6.6 -8.6 6.6 -9.8 9.6 -10.0 M17.35 -8.45 L17.3 -10.6 20.25 -10.85 20.35 -8.8 18.55 -8.6 17.35 -8.45 M0.8 -4.25 L0.8 -4.15 0.9 -1.2 -1.65 -1.35 -2.15 -1.45 -2.4 -1.5 -2.45 -1.5 -3.05 -1.6 -2.4 -2.05 -1.0 -2.1 -0.35 -2.05 -0.45 -4.3 0.8 -4.25 M1.85 -1.15 L2.05 -2.85 2.2 -1.15 1.85 -1.15 M11.6 -1.4 L11.55 -1.5 12.0 -1.9 13.25 -2.1 14.5 -1.9 14.85 -1.75 11.6 -1.4 M20.6 -1.5 L17.7 -1.5 17.65 -2.45 20.55 -2.45 20.6 -1.5 M30.65 -10.6 L30.45 -12.85 30.5 -12.85 30.65 -10.6 M25.5 -6.85 L25.85 -3.8 23.2 -3.2 23.0 -6.25 25.5 -6.85 M39.95 22.6 L40.4 22.2 36.5 14.5 35.35 12.0 34.95 11.15 32.9 5.65 31.4 1.1 30.8 -0.65 31.45 0.9 32.95 4.4 35.75 10.5 36.9 12.9 38.6 16.2 41.2 20.75 Q41.8 21.7 41.8 22.25 41.8 23.1 40.4 23.55 L39.95 22.6 M30.35 -0.9 L30.3 -0.9 30.3 -0.95 30.35 -0.9 M30.85 -8.35 L34.75 -9.65 34.8 -9.4 34.8 -9.25 35.35 -6.7 31.1 -5.3 30.85 -8.35 M33.7 3.55 L35.85 2.9 35.9 2.9 36.15 3.55 36.75 4.95 37.1 5.7 35.05 6.3 39.3 14.65 40.85 14.05 42.2 16.75 40.65 17.35 42.25 20.45 42.1 20.5 Q40.0 17.05 37.25 11.25 L36.1 8.85 35.95 8.55 33.7 3.55 M36.4 2.75 L37.45 2.4 37.75 2.95 38.95 5.1 38.1 5.35 36.4 2.75 M43.05 13.2 L44.0 12.8 45.75 15.35 44.7 15.75 43.05 13.2 M25.7 5.5 L26.2 7.05 26.7 8.4 26.4 8.45 26.3 8.1 26.25 8.0 25.55 5.55 25.7 5.5 M30.25 17.45 L31.6 20.15 31.65 20.2 30.05 20.65 29.25 17.9 29.2 17.75 30.25 17.45 M24.45 5.75 L24.55 6.1 25.25 8.7 24.5 8.85 24.0 5.85 24.45 5.75 M25.7 15.0 L26.8 18.3 28.2 18.0 28.55 19.0 29.1 20.85 27.8 21.2 29.9 27.55 28.35 28.2 27.1 28.55 26.75 27.6 Q28.05 27.55 29.05 26.95 L28.35 24.85 27.2 20.95 26.4 18.0 25.7 15.0 M6.75 9.75 L7.0 10.7 6.85 10.7 6.75 9.75 M-6.35 26.8 L-6.55 28.55 -9.5 28.0 -8.8 22.7 -11.45 22.25 -10.8 19.45 -10.75 19.3 -8.4 19.7 -8.2 18.4 -8.05 21.25 -8.05 21.8 -7.8 24.1 -7.7 24.55 -6.95 26.2 -6.35 26.8 M-24.0 -13.35 L-23.15 -12.95 -21.2 -12.15 -21.5 -10.55 -22.7 -10.75 -23.1 -10.8 -23.35 -10.85 -23.4 -10.5 -23.9 -6.6 Q-23.9 -5.95 -23.4 -5.75 L-22.65 -5.5 Q-23.95 -5.05 -24.3 -4.15 L-24.65 -0.65 -23.85 -0.25 -25.15 2.45 -24.75 2.55 -25.45 4.25 -25.95 5.35 -26.5 5.15 -30.75 13.75 -30.1 14.0 -31.55 16.65 -32.1 16.45 -34.05 20.35 -36.8 19.05 -35.8 17.1 -34.35 18.05 -27.1 3.4 -27.3 1.0 -29.65 4.75 -29.35 4.1 -30.3 3.7 -28.9 1.05 -28.0 1.4 -26.4 -1.8 -25.35 -6.9 -26.95 -7.55 -26.95 -7.75 -26.6 -10.7 -24.7 -9.9 -24.0 -13.35 M-20.15 -5.05 L-20.1 -5.25 -19.55 -4.95 -19.1 -4.7 -20.15 -5.05 M-13.95 -9.4 L-16.9 -9.85 -16.8 -11.45 -13.8 -11.2 -13.95 -9.4 M-5.9 -8.8 L-5.9 -10.75 -4.4 -10.65 -2.9 -10.6 -2.9 -10.55 -2.9 -8.7 -5.9 -8.8 M-14.45 -2.15 L-15.2 -2.15 -15.1 -3.5 -11.85 -3.5 -11.85 -2.8 -14.35 -3.4 -14.45 -2.15 M-9.0 -2.25 L-8.85 -2.35 -8.7 -2.45 -8.6 -2.5 -7.35 -2.7 -6.1 -2.5 Q-5.55 -2.3 -5.55 -2.1 L-5.9 -1.7 -5.9 -1.8 -9.0 -2.25 M-8.95 9.6 L-9.15 9.55 -9.1 8.35 -8.95 9.6 M-15.55 5.25 L-16.0 8.25 -16.5 8.15 -15.85 5.2 -15.55 5.25 M-15.3 2.15 L-15.3 1.9 -15.4 2.3 -15.55 2.8 -16.25 5.1 -16.15 5.1 -16.95 8.0 -17.2 7.95 -20.15 17.2 -19.7 17.35 -20.65 20.2 -21.1 20.1 -22.7 25.1 -22.95 25.25 -25.85 25.2 -25.3 23.45 -24.35 23.5 -23.85 22.4 -22.95 20.35 -20.45 14.3 -18.0 8.4 -15.3 1.9 -15.3 2.05 -15.3 2.15 M-19.25 17.45 L-18.1 17.75 -18.2 18.1 -18.95 20.65 -20.2 20.35 -19.25 17.45 M-24.5 2.65 L-23.75 2.95 -24.1 4.4 -24.5 5.85 -25.4 5.5 -24.5 2.65 M-35.35 11.9 L-34.45 12.25 -36.1 14.85 -37.05 14.4 -35.35 11.9 M-30.7 17.0 L-29.3 14.3 -28.1 14.7 -29.4 17.45 -30.7 17.0" fill="#1b1b1b" fill-rule="evenodd" stroke="none"/>
    <path d="M2.05 -2.85 L2.05 -4.2 5.4 -4.15 5.45 -1.1 2.2 -1.15 2.05 -2.85 M-1.0 -2.1 L-2.4 -2.05 -3.05 -1.6 -2.45 -1.5 -2.4 -1.5 -2.15 -1.45 -1.65 -1.35 -1.7 -1.35 -2.9 -1.45 -2.9 0.85 -2.9 0.95 -3.55 5.95 -4.75 3.15 -4.7 3.15 -6.05 1.95 -5.9 0.75 -5.9 -1.7 -5.55 -2.1 Q-5.55 -2.3 -6.1 -2.5 L-7.35 -2.7 -8.6 -2.5 -8.7 -2.45 -8.85 -2.35 -9.0 -2.25 -9.05 -2.25 -11.85 -2.8 -11.85 -3.5 -15.1 -3.5 -15.2 -2.15 -14.45 -2.15 -14.6 -0.25 -14.6 -0.05 -15.25 1.9 -15.3 1.9 -16.95 1.55 -23.05 16.4 -20.1 7.2 -22.2 6.55 -21.85 6.05 -21.55 5.55 -20.5 3.95 -19.15 4.35 -17.6 -0.6 -17.35 -4.15 Q-16.1 -7.95 -15.7 -7.95 L-14.05 -7.75 -14.15 -6.45 -5.9 -4.85 -5.9 -6.15 Q-4.05 -5.5 -2.9 -4.6 L-2.9 -4.5 -2.75 -4.5 -2.1 -3.95 -1.0 -2.1 M9.65 -1.25 Q9.5 -2.4 9.5 -3.6 L9.5 -3.75 9.65 -4.15 9.75 -4.3 17.45 -5.2 17.45 -6.1 17.6 -6.1 Q20.2 -6.1 20.9 -3.85 L21.05 -2.75 20.55 -2.65 20.55 -2.45 17.65 -2.45 17.7 -1.5 20.6 -1.5 20.65 0.0 21.4 2.1 21.4 2.15 21.45 2.25 22.95 9.1 23.05 9.4 23.15 10.0 23.55 11.7 24.5 15.9 25.5 20.25 26.0 22.5 26.75 25.8 26.15 25.75 24.8 21.8 23.4 22.1 22.8 19.15 23.85 18.95 21.05 10.55 21.0 10.45 20.35 7.3 Q20.35 4.55 20.05 3.75 L18.9 4.25 17.65 0.55 17.55 -2.1 14.85 -1.75 14.5 -1.9 13.25 -2.1 12.0 -1.9 11.55 -1.5 11.6 -1.4 9.65 -1.25 M27.65 -10.4 L29.3 -11.1 30.15 -1.25 28.35 -0.7 28.1 -4.4 27.0 -4.1 26.7 -7.15 27.85 -7.5 27.65 -10.4 M28.4 -0.25 L29.85 -0.75 30.45 1.25 30.75 2.4 32.0 7.1 30.05 7.6 29.15 4.75 30.75 4.35 28.4 -0.25 M35.4 15.95 L35.75 16.8 36.6 18.75 34.25 19.45 33.3 17.1 33.1 16.65 35.4 15.95 M18.95 19.75 L19.15 20.45 19.25 20.9 19.65 22.55 19.95 22.65 15.2 23.25 16.55 20.95 16.35 20.1 18.95 19.75 M15.8 7.1 L16.5 10.05 14.5 10.25 14.45 10.25 14.25 8.95 14.0 7.65 13.95 7.25 15.8 7.1 M12.6 7.4 L12.55 7.85 12.8 10.4 11.55 10.5 11.05 7.5 12.6 7.4 M5.7 20.7 L6.0 23.75 5.2 23.75 4.85 20.7 5.7 20.7 M2.7 7.6 L2.75 7.6 5.15 7.65 5.3 10.7 3.8 10.7 3.75 10.2 3.75 10.7 2.4 10.65 2.35 10.65 2.7 7.6 M0.5 7.55 L1.25 10.6 -1.7 10.45 -3.0 7.3 0.5 7.55 M2.6 20.7 L4.1 20.7 Q4.35 22.2 4.9 23.75 L3.85 23.75 2.6 20.7 M-4.1 23.3 L-5.85 23.1 -6.0 24.4 -6.35 23.3 -6.35 22.05 Q-6.55 18.0 -7.2 13.9 L-7.45 12.5 -7.25 10.95 -7.15 11.3 -6.45 14.0 -6.25 14.75 -6.15 15.1 -5.35 18.25 -5.25 18.65 -5.45 20.1 -4.85 20.15 -4.2 22.85 -4.1 23.3 M13.1 20.4 L14.05 20.35 14.45 22.8 14.45 22.9 14.5 23.35 13.6 23.4 13.5 23.0 13.5 22.8 13.45 22.7 13.1 20.4 M-8.85 6.55 L-8.35 6.65 -7.55 9.8 -8.0 9.75 -8.85 6.55 M-9.9 6.4 L-9.55 6.45 -10.2 9.4 -10.85 9.3 -9.9 6.4 M-14.5 5.5 L-12.9 5.85 -13.45 8.8 -14.95 8.5 -14.5 5.5 M-13.9 18.7 L-12.3 19.05 -12.85 20.55 -13.4 21.9 -14.85 21.6 -13.9 18.7 M-17.6 21.0 L-17.4 20.3 -17.15 19.55 -16.8 18.1 -15.65 18.35 -16.4 20.5 -16.65 21.2 -17.6 21.0 M-28.15 17.9 L-26.85 15.15 -23.05 16.4 -24.2 19.2 -28.15 17.9" fill="#3c3c3c" fill-rule="evenodd" stroke="none"/>
    <path d="M8.35 20.7 L8.8 23.65 8.8 23.7 6.0 23.75 5.7 20.7 8.35 20.7 M12.75 27.35 L12.0 27.55 7.65 2.2 7.6 2.1 7.65 2.15 8.05 0.45 Q8.45 -1.0 8.85 -1.35 8.4 -1.5 8.25 -1.6 7.9 -1.85 7.9 -2.75 7.85 -5.15 8.25 -6.0 8.6 -6.75 9.6 -7.1 L9.6 -4.3 9.75 -4.3 9.65 -4.15 9.5 -3.75 9.5 -3.6 Q9.5 -2.4 9.65 -1.25 L9.6 -1.25 9.6 1.95 10.3 7.55 11.05 7.5 11.55 10.5 10.7 10.55 11.9 20.5 13.1 20.4 13.45 22.7 13.5 22.8 13.5 23.0 13.6 23.4 12.3 23.5 12.75 27.35 M-0.45 -4.3 L-0.35 -2.05 -1.0 -2.1 -2.1 -3.95 -2.75 -4.5 -2.7 -4.5 -0.45 -4.3 M26.15 25.75 L26.75 25.8 26.0 22.5 25.5 20.25 24.5 15.9 23.55 11.7 23.15 10.0 23.05 9.4 22.95 9.1 21.45 2.25 22.7 6.1 24.0 5.85 24.5 8.85 23.7 9.0 25.7 15.0 26.4 18.0 27.2 20.95 28.35 24.85 29.05 26.95 Q28.05 27.55 26.75 27.6 L26.15 25.75 M21.05 -2.75 L20.9 -3.85 Q20.2 -6.1 17.6 -6.1 L17.45 -6.1 17.35 -8.45 18.55 -8.6 20.35 -8.8 20.45 -5.7 23.0 -6.25 23.2 -3.2 21.05 -2.75 M28.35 -0.7 L30.15 -1.25 30.3 -0.95 30.3 -0.9 30.35 -0.9 30.65 -1.05 30.5 -0.8 30.65 -0.95 30.75 -0.7 30.8 -0.65 31.4 1.1 32.9 5.65 34.95 11.15 35.35 12.0 36.5 14.5 40.4 22.2 39.95 22.6 37.8 18.35 36.6 18.75 35.75 16.8 35.4 15.95 36.45 15.65 32.1 7.1 32.0 7.1 30.75 2.4 30.45 1.25 29.85 -0.75 28.4 -0.25 28.4 -0.3 28.35 -0.7 M29.15 4.75 L30.05 7.6 26.7 8.4 26.2 7.05 25.7 5.5 29.15 4.75 M33.1 16.65 L33.3 17.1 34.25 19.45 31.65 20.2 31.6 20.15 30.25 17.45 33.1 16.65 M43.05 13.2 L44.7 15.75 42.2 16.75 40.85 14.05 43.05 13.2 M37.1 5.7 L36.75 4.95 36.15 3.55 35.9 2.9 36.4 2.75 38.1 5.35 37.1 5.7 M5.15 7.65 L6.4 7.65 6.75 9.75 6.85 10.7 5.3 10.7 5.15 7.65 M2.35 10.65 L1.25 10.6 0.5 7.55 2.7 7.6 2.35 10.65 M-6.0 24.4 L-6.35 26.8 -6.95 26.2 -7.7 24.55 -7.8 24.1 -8.05 21.8 -8.05 21.25 -8.2 18.4 -7.45 12.5 -7.2 13.9 Q-6.55 18.0 -6.35 22.05 L-6.35 23.3 -6.0 24.4 M-29.65 4.75 L-27.3 1.0 -27.1 3.4 -34.35 18.05 -35.8 17.1 -34.95 15.35 -36.1 14.85 -34.45 12.25 -33.6 12.6 -29.65 4.75 M-23.85 -0.25 L-24.65 -0.65 -24.3 -4.15 Q-23.95 -5.05 -22.65 -5.5 L-23.4 -5.75 Q-23.9 -5.95 -23.9 -6.6 L-23.4 -10.5 -23.35 -10.85 -23.1 -10.8 -22.7 -10.75 -21.5 -10.55 -21.9 -8.8 -17.1 -7.25 -16.9 -9.85 -13.95 -9.4 -14.05 -7.75 -15.7 -7.95 Q-16.1 -7.95 -17.35 -4.15 L-19.1 -4.7 -19.55 -4.95 -20.1 -5.25 -20.15 -5.05 -22.5 -5.85 -23.55 -0.8 -23.85 -0.25 M-2.9 -8.7 L-2.9 -4.6 Q-4.05 -5.5 -5.9 -6.15 L-5.9 -8.8 -2.9 -8.7 M-9.55 6.45 L-8.85 6.55 -8.0 9.75 -8.95 9.6 -9.1 8.35 -9.15 9.55 -10.2 9.4 -9.55 6.45 M-12.3 19.05 L-10.75 19.3 -10.8 19.45 -11.45 22.25 -13.4 21.9 -12.85 20.55 -12.3 19.05 M-15.55 5.25 L-14.5 5.5 -14.95 8.5 -16.0 8.25 -15.55 5.25 M-15.25 1.9 L-15.3 2.05 -15.3 1.9 -18.0 8.4 -20.45 14.3 -22.95 20.35 -23.85 22.4 -24.35 23.5 -25.3 23.45 -23.95 19.25 -24.2 19.2 -23.05 16.4 -16.95 1.55 -15.3 1.9 -15.25 1.9 M-18.1 17.75 L-16.8 18.1 -17.15 19.55 -17.4 20.3 -17.6 21.0 -18.95 20.65 -18.2 18.1 -18.1 17.75 M-24.5 5.85 L-24.1 4.4 -23.75 2.95 -20.5 3.95 -21.55 5.55 -21.85 6.05 -22.2 6.55 -24.5 5.85 M-28.1 14.7 L-26.85 15.15 -28.15 17.9 -29.4 17.45 -28.1 14.7" fill="#2e2e2e" fill-rule="evenodd" stroke="none"/>
    <path d="M18.9 4.25 L20.05 3.75 Q20.35 4.55 20.35 7.3 L21.0 10.45 20.65 9.5 16.5 10.05 15.8 7.1 19.7 6.6 18.9 4.25 M22.8 19.15 L23.4 22.1 19.95 22.65 19.65 22.55 19.25 20.9 19.15 20.45 18.95 19.75 22.8 19.15 M27.65 -10.4 L27.55 -12.0 29.2 -12.5 29.3 -11.1 27.65 -10.4 M13.95 7.25 L14.0 7.65 14.25 8.95 14.45 10.25 12.8 10.4 12.55 7.85 12.6 7.4 13.95 7.25 M14.05 20.35 L16.35 20.1 16.55 20.95 15.2 23.25 14.55 23.35 14.5 23.35 14.45 22.9 14.45 22.8 14.05 20.35 M3.75 10.7 L3.75 10.2 3.8 10.7 3.75 10.7 M4.85 20.7 L5.2 23.75 4.9 23.75 Q4.35 22.2 4.1 20.7 L4.85 20.7 M2.6 20.7 L3.85 23.75 -4.1 23.3 -4.2 22.85 -4.85 20.15 2.6 20.7 M-6.05 1.95 L-4.7 3.15 -4.75 3.15 -3.55 5.95 -3.75 7.2 -3.0 7.3 -1.7 10.45 -4.15 10.2 -5.25 18.65 -5.35 18.25 -6.15 15.1 -6.25 14.75 -6.45 14.0 -7.15 11.3 -7.25 10.95 -7.1 9.85 -7.55 9.8 -8.35 6.65 -6.7 6.85 -6.05 1.95 M-12.9 5.85 L-9.9 6.4 -10.85 9.3 -13.45 8.8 -12.9 5.85 M-15.65 18.35 L-13.9 18.7 -14.85 21.6 -16.65 21.2 -16.4 20.5 -15.65 18.35" fill="#4e4e4e" fill-rule="evenodd" stroke="none"/>
    <path d="M13.05 29.75 L17.05 28.8 17.1 28.8 19.4 29.1 19.95 29.15 20.05 29.15 20.5 29.25 20.65 29.25 20.7 29.25 21.1 29.3 21.0 29.45 20.95 29.6 20.75 29.95 20.3 30.65 20.2 30.8 19.45 31.8 18.0 33.2 Q13.35 37.2 4.1 37.2 L-0.55 36.95 Q-4.9 36.4 -8.6 34.85 L-9.1 34.65 -14.95 31.0 -15.3 30.7 -16.7 29.45 -16.85 29.3 -17.05 29.1 -17.1 29.05 -16.55 28.95 -12.1 28.45 -9.6 29.0 -7.0 29.8 -6.75 29.9 Q-2.55 31.15 2.3 31.15 L10.1 30.45 12.0 30.0 13.05 29.75 M22.1 29.45 L22.2 29.45 22.4 29.45 22.5 29.5 23.75 29.65 23.8 29.65 21.05 31.8 21.85 29.4 22.1 29.45" fill="#1f1f1f" fill-rule="evenodd" stroke="none"/>
  </g>
</svg>
