<?xml version="1.0" encoding="UTF-8" standalone="no"?>
<svg xmlns:ffdec="https://www.free-decompiler.com/flash" xmlns:xlink="http://www.w3.org/1999/xlink" ffdec:objectType="shape" height="81.3px" width="81.3px" xmlns="http://www.w3.org/2000/svg">
  <g transform="matrix(1.0, 0.0, 0.0, 1.0, 25.75, 22.05)">
    <path d="M-17.6 -2.7 L-12.95 -3.9 -8.4 -4.8 Q-6.15 -4.8 -2.8 -3.75 0.55 -2.7 1.7 -2.7 4.1 -2.7 10.45 -5.05 16.8 -7.4 19.85 -7.4 23.85 -7.4 25.8 -3.9 28.5 0.85 29.85 14.5 30.5 20.8 34.45 22.4 36.45 23.2 37.0 23.9 38.15 25.2 38.15 28.3 38.15 36.7 27.15 45.25 16.15 53.75 5.2 53.75 L-3.1 53.0 Q-13.95 45.85 -19.0 37.55 -24.0 29.25 -24.0 18.6 -24.0 13.8 -22.6 8.05 -20.8 0.65 -17.6 -2.7" fill="#ffd5aa" fill-rule="evenodd" stroke="none"/>
    <path d="M10.15 57.0 Q25.4 55.9 35.85 45.65 46.45 35.3 46.45 20.95 46.45 19.6 43.05 4.5 43.05 4.0 43.45 3.8 L43.8 3.05 40.9 -0.35 33.15 -8.1 Q30.25 -10.75 25.15 -13.0 17.9 -16.15 10.25 -16.15 1.05 -16.15 -5.5 -12.6 -10.5 -9.9 -17.6 -2.7 -13.65 -10.85 -3.6 -15.7 5.25 -20.0 14.6 -20.0 33.8 -20.0 44.65 -5.8 53.25 5.45 53.25 18.6 53.25 33.0 43.4 44.45 32.45 57.2 15.6 57.2 L10.15 57.0" fill="#f9b07b" fill-rule="evenodd" stroke="none"/>
    <path d="M-17.6 -2.7 Q-20.8 0.65 -22.6 8.05 -24.0 13.8 -24.0 18.6 -24.0 29.25 -19.0 37.55 -13.95 45.85 -3.1 53.0 -0.7 54.15 1.9 54.95 L10.15 57.0 15.6 57.2 Q32.45 57.2 43.4 44.45 53.25 33.0 53.25 18.6 53.25 5.45 44.65 -5.8 33.8 -20.0 14.6 -20.0 5.25 -20.0 -3.6 -15.7 -13.65 -10.85 -17.6 -2.7 M14.9 -22.05 Q31.75 -22.05 43.65 -10.15 55.55 1.75 55.55 18.6 55.55 35.45 43.65 47.35 31.75 59.25 14.9 59.25 -1.95 59.25 -13.85 47.35 -25.75 35.45 -25.75 18.6 -25.75 1.75 -13.85 -10.15 -1.95 -22.05 14.9 -22.05" fill="#5c4730" fill-rule="evenodd" stroke="none"/>
    <path d="M-3.1 53.0 L5.2 53.75 Q16.15 53.75 27.15 45.25 38.15 36.7 38.15 28.3 38.15 25.2 37.0 23.9 36.45 23.2 34.45 22.4 30.5 20.8 29.85 14.5 28.5 0.85 25.8 -3.9 23.85 -7.4 19.85 -7.4 16.8 -7.4 10.45 -5.05 4.1 -2.7 1.7 -2.7 0.55 -2.7 -2.8 -3.75 -6.15 -4.8 -8.4 -4.8 L-12.95 -3.9 -17.6 -2.7 Q-10.5 -9.9 -5.5 -12.6 1.05 -16.15 10.25 -16.15 17.9 -16.15 25.15 -13.0 30.25 -10.75 33.15 -8.1 L40.9 -0.35 43.8 3.05 43.45 3.8 Q43.05 4.0 43.05 4.5 46.45 19.6 46.45 20.95 46.45 35.3 35.85 45.65 25.4 55.9 10.15 57.0 L1.9 54.95 Q-0.7 54.15 -3.1 53.0" fill="#fabd8f" fill-rule="evenodd" stroke="none"/>
  </g>
</svg>
