<?xml version="1.0" encoding="UTF-8" standalone="no"?>
<svg xmlns:ffdec="https://www.free-decompiler.com/flash" xmlns:xlink="http://www.w3.org/1999/xlink" ffdec:objectType="shape" height="19.0px" width="51.35px" xmlns="http://www.w3.org/2000/svg">
  <g transform="matrix(1.0, 0.0, 0.0, 1.0, 33.4, 28.25)">
    <path d="M11.4 -20.6 Q15.45 -17.75 16.25 -14.5 16.6 -12.65 16.2 -11.6 15.85 -10.85 14.8 -10.8 14.1 -10.85 13.0 -12.25 L13.0 -12.3 10.15 -16.35 Q6.9 -21.2 4.2 -22.1 L2.2 -22.4 2.15 -22.4 Q3.15 -22.9 4.55 -23.05 7.5 -23.3 11.4 -20.6 M-17.9 -25.5 Q-20.8 -25.1 -24.95 -21.0 L-28.55 -17.65 Q-29.95 -16.45 -30.65 -16.55 -31.6 -16.9 -31.8 -17.7 -32.0 -18.7 -31.25 -20.45 -29.9 -23.55 -25.3 -25.45 -20.95 -27.25 -18.1 -26.5 -16.8 -26.05 -15.9 -25.35 L-17.9 -25.5" fill="#3a281b" fill-rule="evenodd" stroke="none"/>
    <path d="M17.75 -14.8 Q18.25 -12.35 17.55 -11.0 16.9 -9.5 14.95 -9.25 13.55 -9.1 11.8 -11.3 L11.8 -11.35 8.9 -15.45 8.85 -15.5 Q6.0 -19.75 3.7 -20.65 L2.4 -20.85 2.35 -20.85 Q0.8 -20.75 0.15 -20.2 0.0 -19.95 -0.3 -19.95 L-0.85 -20.05 -1.1 -20.5 -1.05 -21.05 Q-0.25 -22.65 0.35 -23.1 1.85 -24.35 4.4 -24.55 7.8 -24.95 12.25 -21.85 16.95 -18.65 17.75 -14.8 M11.4 -20.6 Q7.5 -23.3 4.55 -23.05 3.15 -22.9 2.15 -22.4 L2.2 -22.4 4.2 -22.1 Q6.9 -21.2 10.15 -16.35 L13.0 -12.3 13.0 -12.25 Q14.1 -10.85 14.8 -10.8 15.85 -10.85 16.2 -11.6 16.6 -12.65 16.25 -14.5 15.45 -17.75 11.4 -20.6 M-17.65 -27.9 Q-15.25 -27.2 -14.0 -25.6 -13.5 -25.1 -13.0 -23.3 L-13.0 -22.8 -13.45 -22.4 -13.95 -22.35 Q-14.25 -22.45 -14.35 -22.7 -14.85 -23.4 -16.35 -23.85 L-16.4 -23.85 -17.7 -23.95 -17.7 -23.9 Q-20.2 -23.5 -23.85 -19.95 L-27.55 -16.45 -27.6 -16.45 Q-29.8 -14.6 -31.1 -15.05 -33.0 -15.6 -33.3 -17.3 -33.7 -18.7 -32.7 -21.05 -31.1 -24.65 -25.9 -26.85 -20.95 -28.95 -17.65 -27.9 M-17.9 -25.5 L-15.9 -25.35 Q-16.8 -26.05 -18.1 -26.5 -20.95 -27.25 -25.3 -25.45 -29.9 -23.55 -31.25 -20.45 -32.0 -18.7 -31.8 -17.7 -31.6 -16.9 -30.65 -16.55 -29.95 -16.45 -28.55 -17.65 L-24.95 -21.0 Q-20.8 -25.1 -17.9 -25.5" fill="#000000" fill-rule="evenodd" stroke="none"/>
  </g>
</svg>
