<?xml version="1.0" encoding="UTF-8" standalone="no"?>
<svg xmlns:ffdec="https://www.free-decompiler.com/flash" xmlns:xlink="http://www.w3.org/1999/xlink" ffdec:objectType="shape" height="165.6px" width="98.2px" xmlns="http://www.w3.org/2000/svg">
  <g transform="matrix(1.0, 0.0, 0.0, 1.0, -1.3, 165.3)">
    <path d="M21.35 -46.95 Q22.6 -50.45 24.25 -53.65 L24.8 -51.4 26.5 -54.15 26.85 -50.65 26.4 -46.3 Q27.25 -45.95 27.95 -46.3 29.5 -47.05 30.75 -48.55 L31.6 -49.9 Q28.85 -43.15 27.35 -35.4 L28.25 -36.1 26.1 -29.2 21.55 -27.45 22.45 -32.7 18.4 -32.7 18.25 -35.85 Q18.95 -39.15 19.8 -42.2 20.5 -44.65 21.35 -46.95 M69.25 -50.3 L69.15 -54.6 73.55 -51.45 74.2 -56.8 74.75 -55.8 Q76.5 -51.8 79.25 -50.1 80.95 -41.85 84.7 -35.0 L81.65 -34.8 81.8 -32.7 79.2 -32.75 78.75 -32.8 Q78.2 -32.4 78.2 -31.7 L78.0 -30.75 75.7 -35.8 75.8 -37.15 73.75 -41.4 Q71.7 -45.95 69.25 -50.3 M48.0 -153.75 L47.6 -153.7 46.25 -154.2 46.8 -156.05 51.95 -160.45 53.5 -161.5 53.4 -159.75 Q51.7 -158.55 50.25 -156.8 49.0 -155.55 48.0 -153.75 M54.5 -151.75 L53.9 -151.85 55.1 -153.4 Q59.0 -158.0 64.6 -159.25 L65.95 -158.35 Q61.4 -156.6 58.9 -151.65 L58.25 -150.05 Q57.25 -150.0 56.0 -150.5 L54.5 -151.75 M34.0 -127.75 Q35.5 -136.05 38.95 -142.8 L40.5 -145.9 42.7 -147.55 43.95 -147.25 42.2 -142.75 Q39.2 -134.9 37.45 -126.8 L35.6 -125.85 34.0 -127.75 M56.1 -127.7 Q53.75 -134.75 54.55 -142.5 L54.8 -143.5 57.75 -144.75 60.2 -129.55 58.15 -130.1 56.1 -127.7 M30.7 -121.3 L31.8 -120.65 Q31.95 -120.75 32.1 -120.5 L32.25 -118.05 Q33.4 -118.65 34.7 -117.55 L35.65 -118.2 35.65 -118.1 32.9 -113.55 32.3 -114.5 31.2 -110.4 29.15 -101.4 26.25 -103.1 25.3 -102.1 23.85 -101.8 Q28.35 -107.9 28.95 -115.9 L28.75 -116.4 28.45 -116.55 28.35 -116.65 30.7 -121.3 M66.05 -103.5 Q62.6 -109.2 59.75 -115.95 59.25 -117.1 59.05 -118.5 L59.15 -120.65 59.75 -120.9 65.7 -118.05 Q67.45 -113.65 70.1 -109.95 L71.3 -108.5 69.95 -104.8 67.45 -104.6 66.05 -103.5 M67.15 -83.6 L68.8 -82.45 69.3 -84.05 69.45 -84.7 69.45 -86.95 Q71.75 -85.7 74.2 -86.35 L77.7 -80.9 76.45 -76.1 74.4 -76.75 71.75 -71.65 70.85 -70.7 67.15 -83.6 M22.45 -74.25 L26.5 -84.85 27.25 -83.7 28.0 -83.45 29.05 -83.85 30.4 -87.15 32.0 -85.3 32.5 -85.4 32.2 -83.45 32.3 -83.15 32.4 -83.15 32.65 -82.8 29.55 -69.6 29.3 -70.0 Q28.8 -71.25 28.1 -70.55 26.8 -69.2 25.35 -69.9 L22.45 -74.25" fill="#175715" fill-rule="evenodd" stroke="none"/>
    <path d="M84.7 -35.0 L90.05 -27.3 87.55 -27.45 87.05 -26.35 87.25 -22.95 Q85.8 -23.55 84.4 -24.3 80.95 -26.7 81.1 -24.05 L77.95 -30.25 78.2 -31.7 Q78.2 -32.4 78.75 -32.8 L79.2 -32.75 81.8 -32.7 81.65 -34.8 84.7 -35.0 M11.0 -24.9 Q14.2 -27.95 16.35 -32.35 L18.25 -35.85 18.4 -32.7 22.45 -32.7 21.55 -27.45 26.1 -29.2 26.55 -29.55 23.95 -20.85 17.55 -19.1 17.95 -22.45 14.2 -21.85 13.95 -24.85 11.0 -24.9 M47.6 -153.7 L44.1 -146.95 43.95 -147.25 42.7 -147.55 40.5 -145.9 45.1 -153.4 46.8 -156.05 46.25 -154.2 47.6 -153.7 M54.15 -143.0 Q54.05 -144.7 54.1 -146.35 L54.5 -151.75 56.0 -150.5 Q57.25 -150.0 58.25 -150.05 L57.75 -144.75 54.8 -143.5 54.15 -143.0 M34.0 -127.75 L35.6 -125.85 37.45 -126.8 37.9 -126.75 35.65 -118.2 34.7 -117.55 Q33.4 -118.65 32.25 -118.05 L32.1 -120.5 Q31.95 -120.75 31.8 -120.65 L30.7 -121.3 32.8 -125.15 34.0 -127.75 M55.7 -126.9 L56.1 -127.7 58.15 -130.1 60.2 -129.55 65.7 -118.05 59.75 -120.9 59.15 -120.65 59.05 -118.5 58.05 -120.25 Q56.35 -123.25 55.7 -126.9 M29.15 -101.4 L29.05 -100.6 27.1 -93.55 26.7 -93.95 25.4 -96.65 22.25 -94.95 20.5 -96.0 23.85 -101.8 25.3 -102.1 26.25 -103.1 29.15 -101.4 M66.15 -103.3 L66.05 -103.5 67.45 -104.6 69.95 -104.8 71.3 -108.5 74.65 -104.6 75.0 -101.6 70.3 -100.45 69.45 -98.75 66.15 -103.3 M77.7 -80.9 L82.25 -73.05 79.85 -73.65 78.15 -67.85 76.35 -68.85 75.15 -64.9 74.2 -65.5 73.7 -65.8 71.75 -71.65 74.4 -76.75 76.45 -76.1 77.7 -80.9 M19.55 -66.85 L22.45 -74.25 25.35 -69.9 Q26.8 -69.2 28.1 -70.55 28.8 -71.25 29.3 -70.0 L27.75 -62.6 26.9 -61.8 25.3 -61.7 23.55 -65.45 21.95 -64.95 19.55 -66.85" fill="#1f7c1d" fill-rule="evenodd" stroke="none"/>
    <path d="M47.6 -153.7 L48.0 -153.75 50.3 -153.9 50.7 -151.2 53.9 -151.85 54.5 -151.75 54.1 -146.35 Q54.05 -144.7 54.15 -143.0 L52.1 -145.7 48.0 -143.25 47.0 -146.1 45.1 -144.85 44.1 -146.95 47.6 -153.7 M37.9 -126.75 L38.85 -125.35 39.55 -123.7 39.55 -123.3 46.55 -128.25 48.25 -124.55 52.4 -126.5 53.25 -125.85 53.85 -124.35 54.6 -123.8 55.7 -126.9 Q56.35 -123.25 58.05 -120.25 L59.05 -118.5 57.8 -115.9 56.25 -115.9 53.6 -118.7 49.9 -115.1 49.75 -115.2 47.75 -118.0 46.55 -117.85 45.6 -120.05 Q41.3 -117.25 37.7 -113.2 L37.05 -114.1 Q35.95 -115.95 35.65 -118.1 L35.65 -118.2 37.9 -126.75 M29.05 -100.6 L32.0 -101.8 32.55 -101.45 Q33.95 -100.6 34.7 -98.95 L38.3 -100.05 41.15 -96.3 45.55 -99.7 47.15 -98.85 48.85 -95.9 50.0 -96.6 51.25 -96.65 53.7 -99.9 58.0 -95.75 Q59.5 -98.45 61.25 -100.55 63.15 -100.4 64.1 -98.6 L65.4 -99.7 66.15 -103.3 69.45 -98.75 69.45 -97.4 69.2 -95.1 68.3 -95.55 66.75 -96.25 65.15 -91.9 64.6 -92.25 Q62.7 -93.45 60.3 -93.1 58.55 -90.15 55.9 -89.85 L54.25 -91.3 54.05 -91.25 53.25 -89.95 50.85 -88.5 49.45 -90.95 47.8 -91.3 46.6 -90.3 45.55 -90.9 45.2 -91.8 43.0 -92.8 Q41.4 -92.65 40.6 -90.8 L40.1 -90.05 39.4 -89.7 Q37.55 -91.3 35.9 -93.3 L34.75 -94.2 33.4 -93.6 Q33.35 -95.3 32.15 -96.7 L31.75 -96.55 30.7 -95.95 28.8 -94.45 27.7 -93.75 27.1 -93.55 29.05 -100.6 M29.55 -69.6 L32.25 -65.4 35.7 -67.75 37.3 -65.55 38.1 -65.45 40.8 -67.25 44.6 -62.1 48.15 -67.45 51.4 -62.5 52.6 -62.9 55.55 -66.8 58.05 -63.9 60.45 -66.75 63.15 -66.8 63.05 -68.05 Q63.05 -69.25 63.45 -70.1 64.0 -71.35 65.45 -71.8 L69.8 -70.3 70.85 -70.7 71.75 -71.65 73.7 -65.8 70.85 -66.45 69.3 -62.45 67.2 -63.35 63.9 -57.9 60.3 -59.6 59.55 -56.9 57.9 -54.1 53.85 -56.45 50.9 -52.65 48.75 -55.15 45.45 -54.1 44.0 -56.7 41.1 -54.65 38.95 -58.25 34.9 -55.75 32.8 -59.65 30.7 -57.55 29.65 -61.55 27.75 -62.6 29.3 -70.0 29.55 -69.6 M26.55 -29.55 L27.95 -29.8 29.1 -25.8 34.15 -29.45 34.55 -24.05 37.7 -26.45 38.65 -26.25 40.7 -23.35 47.05 -29.3 48.8 -26.1 50.15 -28.5 54.55 -23.8 56.6 -27.95 Q57.35 -27.9 57.8 -27.4 L60.0 -25.45 61.7 -28.55 Q62.35 -28.4 62.85 -27.95 L65.05 -25.55 67.15 -29.95 71.75 -27.85 72.0 -31.5 77.55 -27.25 77.95 -30.25 81.1 -24.05 80.75 -23.5 79.85 -21.05 76.0 -22.65 75.95 -22.7 73.75 -17.0 73.4 -16.95 Q71.25 -18.9 69.45 -21.25 L67.5 -16.5 67.4 -16.65 66.6 -18.1 Q65.15 -19.9 63.3 -19.55 L62.1 -16.05 62.0 -15.9 Q61.8 -15.9 61.75 -16.0 L61.65 -16.1 Q60.45 -17.15 59.4 -18.55 L57.5 -20.1 57.1 -19.2 56.4 -17.75 55.1 -15.55 Q54.75 -14.75 54.05 -14.2 L51.6 -20.0 50.75 -18.75 50.45 -18.45 47.0 -15.0 45.4 -21.1 43.3 -19.05 42.6 -18.3 40.0 -15.05 39.25 -17.1 38.6 -16.15 Q37.4 -13.6 35.35 -11.9 L34.55 -11.7 33.7 -16.4 34.35 -17.95 34.15 -19.5 29.75 -17.05 29.55 -20.45 25.0 -18.95 23.85 -19.65 23.95 -20.85 26.55 -29.55" fill="#289e25" fill-rule="evenodd" stroke="none"/>
    <path d="M21.35 -46.95 L22.4 -51.25 23.8 -55.2 23.5 -56.45 20.75 -53.3 19.35 -53.8 19.65 -57.9 13.35 -58.2 21.65 -77.4 24.95 -86.7 24.8 -86.55 23.65 -85.1 23.3 -84.5 22.65 -84.45 21.4 -87.7 20.8 -88.6 19.05 -86.55 15.0 -85.75 14.8 -87.0 Q14.5 -91.35 16.7 -94.75 23.65 -103.05 26.8 -114.15 L25.4 -115.15 25.25 -115.75 29.2 -122.7 Q31.7 -127.3 33.2 -133.05 38.85 -155.9 54.85 -165.3 L55.65 -164.75 56.0 -162.85 Q59.15 -161.75 62.15 -162.75 68.55 -162.25 69.1 -155.2 L67.5 -154.6 65.25 -156.0 Q61.15 -153.7 60.3 -148.1 58.8 -138.85 62.15 -130.05 69.05 -111.85 81.65 -98.6 L81.0 -97.45 79.6 -95.8 76.9 -96.15 76.65 -93.25 74.2 -92.7 76.2 -87.2 75.85 -86.95 Q82.9 -75.85 88.8 -63.75 L90.05 -61.1 Q85.8 -59.35 82.9 -63.65 L82.65 -63.6 82.9 -58.7 78.8 -60.15 80.8 -49.35 80.35 -49.5 Q86.0 -31.15 99.5 -21.0 L94.15 -18.0 93.55 -16.25 91.75 -16.05 90.65 -16.65 92.15 -13.55 89.2 -12.85 Q86.5 -12.45 84.75 -14.75 L83.75 -11.4 83.9 -11.15 84.9 -9.95 82.4 -9.95 82.0 -10.4 80.7 -11.15 80.1 -11.7 80.0 -9.7 78.65 -8.9 76.95 -9.4 75.75 -8.95 76.45 -6.25 71.15 -8.35 71.25 -3.75 Q70.6 -3.9 70.1 -4.25 68.65 -5.05 67.25 -6.0 L65.95 -4.4 64.05 -6.0 63.7 -4.6 Q63.3 -3.2 63.45 -1.0 L60.7 -2.25 58.55 -5.6 58.05 -4.2 56.35 -4.75 56.05 -0.9 54.85 -0.2 53.25 -0.75 50.25 -4.95 50.2 -4.3 50.0 -2.0 Q49.85 -0.9 49.1 0.3 44.75 -2.55 42.7 -7.0 L39.85 -1.0 Q38.05 -2.45 37.95 -2.9 L37.4 -3.4 36.8 -3.45 36.25 -3.25 Q34.7 -2.55 32.9 -2.25 32.6 -1.95 32.05 -1.95 L30.2 -5.95 26.9 -4.75 24.5 -8.55 21.7 -6.45 Q21.4 -6.1 20.8 -5.95 L18.75 -8.95 17.6 -8.45 17.4 -8.4 17.35 -8.35 15.15 -8.35 14.7 -11.05 8.75 -10.35 8.7 -11.15 8.5 -14.15 6.6 -14.6 Q5.35 -14.85 4.15 -15.4 2.05 -15.8 1.3 -18.15 1.7 -18.9 2.25 -19.25 14.35 -27.1 19.8 -42.2 18.95 -39.15 18.25 -35.85 L16.35 -32.35 Q14.2 -27.95 11.0 -24.9 L2.8 -18.25 Q5.85 -16.5 9.35 -16.6 L10.3 -16.05 10.0 -11.05 11.85 -10.85 12.5 -11.15 15.4 -13.3 15.85 -11.15 16.4 -9.5 16.45 -9.45 19.5 -9.65 21.4 -7.1 24.35 -9.9 26.25 -8.55 26.8 -7.85 27.0 -7.65 27.85 -6.0 30.05 -7.65 32.55 -3.65 33.2 -3.35 34.0 -3.35 34.85 -3.75 37.2 -5.5 39.2 -3.4 42.45 -9.05 48.3 -2.1 48.65 -4.5 49.05 -5.6 50.25 -7.1 54.8 -1.75 55.95 -6.65 56.95 -5.75 58.3 -7.2 62.4 -3.0 62.55 -4.95 62.9 -6.15 63.7 -7.75 65.7 -6.1 66.4 -7.8 70.05 -5.55 70.65 -9.2 75.15 -7.55 76.2 -10.85 78.4 -10.2 78.7 -11.15 79.15 -13.6 82.3 -11.7 83.45 -15.85 83.45 -16.5 83.45 -16.95 83.7 -17.5 84.3 -17.65 87.55 -14.35 89.9 -14.7 89.1 -18.1 92.5 -18.5 92.25 -20.45 97.35 -21.25 Q96.3 -21.7 95.2 -22.45 92.1 -24.05 90.05 -27.3 L84.7 -35.0 Q80.95 -41.85 79.25 -50.1 76.5 -51.8 74.75 -55.8 L74.2 -56.8 73.55 -51.45 69.15 -54.6 69.25 -50.3 69.3 -49.15 68.0 -48.5 66.1 -50.85 66.25 -46.45 65.45 -46.0 Q63.4 -46.35 62.1 -48.65 L63.8 -40.95 Q60.15 -39.45 57.7 -44.65 L57.1 -45.8 55.45 -40.6 52.05 -44.0 Q52.25 -40.7 50.6 -38.8 L49.5 -37.95 47.1 -44.5 44.85 -42.0 Q43.75 -41.8 43.0 -43.35 L41.0 -46.85 38.85 -44.6 36.25 -48.75 33.9 -46.2 32.5 -50.15 31.65 -50.0 31.6 -49.9 30.75 -48.55 Q29.5 -47.05 27.95 -46.3 27.25 -45.95 26.4 -46.3 L26.85 -50.65 26.5 -54.15 24.8 -51.4 24.25 -53.65 Q22.6 -50.45 21.35 -46.95 M53.4 -159.75 L53.5 -161.5 51.95 -160.45 46.8 -156.05 45.1 -153.4 40.5 -145.9 38.95 -142.8 Q35.5 -136.05 34.0 -127.75 L32.8 -125.15 30.7 -121.3 28.35 -116.65 28.45 -116.55 28.75 -116.4 28.95 -115.9 Q28.35 -107.9 23.85 -101.8 L20.5 -96.0 18.15 -93.15 Q16.6 -91.2 16.6 -88.1 L17.5 -88.0 20.95 -91.5 22.25 -91.5 23.4 -89.1 25.7 -89.45 25.95 -89.25 26.8 -88.0 27.35 -87.2 27.95 -86.0 30.2 -90.05 31.15 -89.9 32.4 -87.15 32.75 -87.2 34.55 -86.95 37.6 -86.7 39.9 -82.9 40.55 -83.85 Q41.85 -85.85 43.4 -86.7 L45.15 -85.9 47.55 -79.75 48.7 -85.55 52.1 -79.45 54.85 -85.75 56.85 -84.85 57.4 -83.25 57.5 -84.2 57.8 -85.2 58.5 -86.7 59.85 -87.0 60.85 -85.25 62.4 -83.85 62.8 -84.95 63.15 -85.85 64.65 -87.6 68.05 -84.85 68.0 -89.7 74.0 -88.2 72.7 -93.3 73.2 -95.25 75.35 -94.35 75.75 -97.75 79.8 -97.75 79.7 -98.55 74.65 -104.6 71.3 -108.5 70.1 -109.95 Q67.45 -113.65 65.7 -118.05 L60.2 -129.55 57.75 -144.75 58.25 -150.05 58.9 -151.65 Q61.4 -156.6 65.95 -158.35 L64.6 -159.25 61.95 -160.1 53.4 -159.75 M67.15 -83.6 L66.2 -84.35 64.45 -85.75 63.35 -82.8 61.15 -82.1 59.2 -84.55 58.65 -83.75 58.85 -82.35 57.95 -81.55 57.4 -81.65 56.2 -82.75 55.35 -83.9 Q55.1 -78.05 51.2 -77.4 L49.4 -81.95 49.2 -78.5 47.95 -77.05 46.8 -78.25 Q44.65 -80.95 43.0 -83.8 L40.6 -81.8 Q39.7 -81.05 38.65 -80.65 37.35 -82.15 36.8 -84.7 L36.45 -86.5 32.5 -85.4 32.0 -85.3 30.4 -87.15 29.05 -83.85 28.0 -83.45 27.25 -83.7 26.5 -84.85 22.45 -74.25 19.55 -66.85 16.2 -59.55 20.55 -60.15 20.85 -55.2 24.0 -58.75 24.8 -54.25 27.0 -56.95 Q28.9 -54.25 27.75 -49.45 L27.5 -47.95 32.0 -51.8 32.7 -53.3 34.25 -49.05 36.45 -50.9 38.65 -46.85 41.45 -48.65 44.3 -44.0 46.55 -46.7 50.0 -40.6 51.1 -46.25 55.3 -42.45 56.3 -48.2 61.7 -42.45 60.95 -49.45 62.1 -50.5 64.8 -48.05 64.9 -51.85 66.85 -52.35 Q67.8 -50.3 68.0 -52.55 L68.0 -53.6 68.0 -54.2 67.75 -55.95 69.2 -56.75 70.9 -54.4 72.55 -53.7 73.15 -59.45 79.15 -52.25 78.35 -55.5 77.75 -61.4 78.2 -61.8 79.0 -62.0 81.9 -60.85 81.8 -65.3 87.55 -62.15 82.25 -73.05 77.7 -80.9 74.2 -86.35 Q71.75 -85.7 69.45 -86.95 L69.45 -84.7 69.3 -84.05 68.8 -82.45 67.15 -83.6" fill="#114310" fill-rule="evenodd" stroke="none"/>
    <path d="M31.6 -49.9 L31.65 -50.0 32.5 -50.15 33.9 -46.2 36.25 -48.75 38.85 -44.6 41.0 -46.85 43.0 -43.35 Q43.75 -41.8 44.85 -42.0 L47.1 -44.5 49.5 -37.95 50.6 -38.8 Q52.25 -40.7 52.05 -44.0 L55.45 -40.6 57.1 -45.8 57.7 -44.65 Q60.15 -39.45 63.8 -40.95 L62.1 -48.65 Q63.4 -46.35 65.45 -46.0 L66.25 -46.45 66.1 -50.85 68.0 -48.5 69.3 -49.15 69.25 -50.3 Q71.7 -45.95 73.75 -41.4 L75.8 -37.15 75.7 -35.8 78.0 -30.75 78.2 -31.7 77.95 -30.25 77.55 -27.25 72.0 -31.5 71.75 -27.85 67.15 -29.95 65.05 -25.55 62.85 -27.95 Q62.35 -28.4 61.7 -28.55 L60.0 -25.45 57.8 -27.4 Q57.35 -27.9 56.6 -27.95 L54.55 -23.8 50.15 -28.5 48.8 -26.1 47.05 -29.3 40.7 -23.35 38.65 -26.25 37.7 -26.45 34.55 -24.05 34.15 -29.45 29.1 -25.8 27.95 -29.8 26.55 -29.55 26.1 -29.2 28.25 -36.1 27.35 -35.4 Q28.85 -43.15 31.6 -49.9 M44.1 -146.95 L45.1 -144.85 47.0 -146.1 48.0 -143.25 52.1 -145.7 54.15 -143.0 54.8 -143.5 54.55 -142.5 Q53.75 -134.75 56.1 -127.7 L55.7 -126.9 54.6 -123.8 53.85 -124.35 53.25 -125.85 52.4 -126.5 48.25 -124.55 46.55 -128.25 39.55 -123.3 39.55 -123.7 38.85 -125.35 37.9 -126.75 37.45 -126.8 Q39.2 -134.9 42.2 -142.75 L43.95 -147.25 44.1 -146.95 M53.9 -151.85 L50.7 -151.2 50.3 -153.9 48.0 -153.75 Q49.0 -155.55 50.25 -156.8 51.7 -158.55 53.4 -159.75 L61.95 -160.1 64.6 -159.25 Q59.0 -158.0 55.1 -153.4 L53.9 -151.85 M29.15 -101.4 L31.2 -110.4 32.3 -114.5 32.9 -113.55 35.65 -118.1 Q35.95 -115.95 37.05 -114.1 L37.7 -113.2 Q41.3 -117.25 45.6 -120.05 L46.55 -117.85 47.75 -118.0 49.75 -115.2 49.9 -115.1 53.6 -118.7 56.25 -115.9 57.8 -115.9 59.05 -118.5 Q59.25 -117.1 59.75 -115.95 62.6 -109.2 66.05 -103.5 L66.15 -103.3 65.4 -99.7 64.1 -98.6 Q63.15 -100.4 61.25 -100.55 59.5 -98.45 58.0 -95.75 L53.7 -99.9 51.25 -96.65 50.0 -96.6 48.85 -95.9 47.15 -98.85 45.55 -99.7 41.15 -96.3 38.3 -100.05 34.7 -98.95 Q33.95 -100.6 32.55 -101.45 L32.0 -101.8 29.05 -100.6 29.15 -101.4 M32.5 -85.4 L36.45 -86.5 36.8 -84.7 Q37.35 -82.15 38.65 -80.65 39.7 -81.05 40.6 -81.8 L43.0 -83.8 Q44.65 -80.95 46.8 -78.25 L47.95 -77.05 49.2 -78.5 49.4 -81.95 51.2 -77.4 Q55.1 -78.05 55.35 -83.9 L56.2 -82.75 57.4 -81.65 57.95 -81.55 58.85 -82.35 58.65 -83.75 59.2 -84.55 61.15 -82.1 63.35 -82.8 64.45 -85.75 66.2 -84.35 67.15 -83.6 70.85 -70.7 69.8 -70.3 65.45 -71.8 Q64.0 -71.35 63.45 -70.1 63.05 -69.25 63.05 -68.05 L63.15 -66.8 60.45 -66.75 58.05 -63.9 55.55 -66.8 52.6 -62.9 51.4 -62.5 48.15 -67.45 44.6 -62.1 40.8 -67.25 38.1 -65.45 37.3 -65.55 35.7 -67.75 32.25 -65.4 29.55 -69.6 32.65 -82.8 32.4 -83.15 32.3 -83.15 32.2 -83.45 32.5 -85.4" fill="#1f7a1d" fill-rule="evenodd" stroke="none"/>
    <path d="M83.45 -15.85 L82.3 -11.7 79.15 -13.6 78.7 -11.15 78.4 -10.2 76.2 -10.85 75.15 -7.55 70.65 -9.2 70.05 -5.55 66.4 -7.8 65.7 -6.1 63.7 -7.75 62.9 -6.15 62.55 -4.95 62.4 -3.0 58.3 -7.2 56.95 -5.75 55.95 -6.65 54.8 -1.75 50.25 -7.1 49.05 -5.6 48.65 -4.5 48.3 -2.1 42.45 -9.05 39.2 -3.4 37.2 -5.5 34.85 -3.75 34.0 -3.35 33.2 -3.35 32.55 -3.65 30.05 -7.65 27.85 -6.0 27.0 -7.65 26.8 -7.85 26.25 -8.55 24.35 -9.9 21.4 -7.1 19.5 -9.65 20.45 -11.15 23.85 -19.65 25.0 -18.95 29.55 -20.45 29.75 -17.05 34.15 -19.5 34.35 -17.95 33.7 -16.4 34.55 -11.7 35.35 -11.9 Q37.4 -13.6 38.6 -16.15 L39.25 -17.1 40.0 -15.05 42.6 -18.3 43.3 -19.05 45.4 -21.1 47.0 -15.0 50.45 -18.45 50.75 -18.75 51.6 -20.0 54.05 -14.2 Q54.75 -14.75 55.1 -15.55 L56.4 -17.75 57.1 -19.2 57.5 -20.1 59.4 -18.55 Q60.45 -17.15 61.65 -16.1 L61.75 -16.0 Q61.8 -15.9 62.0 -15.9 L62.1 -16.05 63.3 -19.55 Q65.15 -19.9 66.6 -18.1 L67.4 -16.65 67.5 -16.5 69.45 -21.25 Q71.25 -18.9 73.4 -16.95 L73.75 -17.0 75.95 -22.7 76.0 -22.65 79.85 -21.05 80.75 -23.5 83.45 -15.85 M72.7 -93.3 L74.0 -88.2 68.0 -89.7 68.05 -84.85 64.65 -87.6 63.15 -85.85 62.8 -84.95 62.4 -83.85 60.85 -85.25 59.85 -87.0 58.5 -86.7 57.8 -85.2 57.5 -84.2 57.4 -83.25 56.85 -84.85 54.85 -85.75 52.1 -79.45 48.7 -85.55 47.55 -79.75 45.15 -85.9 43.4 -86.7 Q41.85 -85.85 40.55 -83.85 L39.9 -82.9 37.6 -86.7 34.55 -86.95 32.75 -87.2 32.4 -87.15 31.15 -89.9 30.2 -90.05 27.95 -86.0 27.35 -87.2 26.8 -88.0 25.95 -89.25 25.7 -89.45 26.7 -93.95 27.1 -93.55 27.7 -93.75 28.8 -94.45 30.7 -95.95 31.75 -96.55 32.15 -96.7 Q33.35 -95.3 33.4 -93.6 L34.75 -94.2 35.9 -93.3 Q37.55 -91.3 39.4 -89.7 L40.1 -90.05 40.6 -90.8 Q41.4 -92.65 43.0 -92.8 L45.2 -91.8 45.55 -90.9 46.6 -90.3 47.8 -91.3 49.45 -90.95 50.85 -88.5 53.25 -89.95 54.05 -91.25 54.25 -91.3 55.9 -89.85 Q58.55 -90.15 60.3 -93.1 62.7 -93.45 64.6 -92.25 L65.15 -91.9 66.75 -96.25 68.3 -95.55 69.2 -95.1 69.45 -97.4 72.7 -93.3 M78.35 -55.5 L79.15 -52.25 73.15 -59.45 72.55 -53.7 70.9 -54.4 69.2 -56.75 67.75 -55.95 68.0 -54.2 68.0 -53.6 68.0 -52.55 Q67.8 -50.3 66.85 -52.35 L64.9 -51.85 64.8 -48.05 62.1 -50.5 60.95 -49.45 61.7 -42.45 56.3 -48.2 55.3 -42.45 51.1 -46.25 50.0 -40.6 46.55 -46.7 44.3 -44.0 41.45 -48.65 38.65 -46.85 36.45 -50.9 34.25 -49.05 32.7 -53.3 32.0 -51.8 27.5 -47.95 27.75 -49.45 Q28.9 -54.25 27.0 -56.95 L24.8 -54.25 26.9 -61.8 27.75 -62.6 29.65 -61.55 30.7 -57.55 32.8 -59.65 34.9 -55.75 38.95 -58.25 41.1 -54.65 44.0 -56.7 45.45 -54.1 48.75 -55.15 50.9 -52.65 53.85 -56.45 57.9 -54.1 59.55 -56.9 60.3 -59.6 63.9 -57.9 67.2 -63.35 69.3 -62.45 70.85 -66.45 73.7 -65.8 74.2 -65.5 78.35 -55.5" fill="#33c62f" fill-rule="evenodd" stroke="none"/>
    <path d="M90.05 -27.3 Q92.1 -24.05 95.2 -22.45 96.3 -21.7 97.35 -21.25 L92.25 -20.45 92.5 -18.5 89.1 -18.1 89.9 -14.7 87.55 -14.35 84.3 -17.65 83.7 -17.5 83.45 -16.95 83.45 -16.5 83.45 -15.85 80.75 -23.5 81.1 -24.05 Q80.95 -26.7 84.4 -24.3 85.8 -23.55 87.25 -22.95 L87.05 -26.35 87.55 -27.45 90.05 -27.3 M19.5 -9.65 L16.45 -9.45 16.4 -9.5 15.85 -11.15 15.4 -13.3 12.5 -11.15 11.85 -10.85 10.0 -11.05 10.3 -16.05 9.35 -16.6 Q5.85 -16.5 2.8 -18.25 L11.0 -24.9 13.95 -24.85 14.2 -21.85 17.95 -22.45 17.55 -19.1 23.95 -20.85 23.85 -19.65 20.45 -11.15 19.5 -9.65 M69.45 -98.75 L70.3 -100.45 75.0 -101.6 74.65 -104.6 79.7 -98.55 79.8 -97.75 75.75 -97.75 75.35 -94.35 73.2 -95.25 72.7 -93.3 69.45 -97.4 69.45 -98.75 M25.7 -89.45 L23.4 -89.1 22.25 -91.5 20.95 -91.5 17.5 -88.0 16.6 -88.1 Q16.6 -91.2 18.15 -93.15 L20.5 -96.0 22.25 -94.95 25.4 -96.65 26.7 -93.95 25.7 -89.45 M82.25 -73.05 L87.55 -62.15 81.8 -65.3 81.9 -60.85 79.0 -62.0 78.2 -61.8 77.75 -61.4 78.35 -55.5 74.2 -65.5 75.15 -64.9 76.35 -68.85 78.15 -67.85 79.85 -73.65 82.25 -73.05 M24.8 -54.25 L24.0 -58.75 20.85 -55.2 20.55 -60.15 16.2 -59.55 19.55 -66.85 21.95 -64.95 23.55 -65.45 25.3 -61.7 26.9 -61.8 24.8 -54.25" fill="#29a426" fill-rule="evenodd" stroke="none"/>
  </g>
</svg>
