<?xml version="1.0" encoding="UTF-8" standalone="no"?>
<svg xmlns:ffdec="https://www.free-decompiler.com/flash" xmlns:xlink="http://www.w3.org/1999/xlink" ffdec:objectType="shape" height="124.45px" width="127.0px" xmlns="http://www.w3.org/2000/svg">
  <g transform="matrix(1.0, 0.0, 0.0, 1.0, 0.0, 124.45)">
    <path d="M87.0 -101.2 L78.4 -120.35 78.4 -120.45 79.95 -122.4 88.55 -103.25 88.55 -103.1 87.0 -101.2 M117.3 -122.4 L125.9 -103.25 125.9 -103.1 124.35 -101.2 115.75 -120.35 115.75 -120.45 117.3 -122.4 M9.05 -120.45 L10.55 -122.4 19.15 -103.25 19.15 -103.1 17.6 -101.2 9.05 -120.35 9.05 -120.45 M41.05 -120.45 L42.6 -122.4 51.2 -103.25 51.2 -103.1 49.65 -101.2 41.05 -120.35 41.05 -120.45 M68.25 -94.0 L68.25 -92.1 54.95 -92.1 54.95 -94.0 68.25 -94.0 M30.65 -92.1 L22.9 -92.1 22.9 -94.0 30.65 -94.0 30.65 -92.1 M22.9 -30.1 L22.9 -32.05 30.65 -32.05 30.65 -30.1 22.9 -30.1 M68.25 -32.05 L68.25 -30.1 54.95 -30.1 54.95 -32.05 68.25 -32.05 M105.65 -92.1 L92.8 -92.1 92.8 -94.0 105.65 -94.0 105.65 -92.1 M105.65 -30.1 L92.8 -30.1 92.8 -32.05 105.65 -32.05 105.65 -30.1" fill="#ffffff" fill-rule="evenodd" stroke="none"/>
    <path d="M88.55 -102.25 L86.95 -3.35 85.65 -1.75 87.2 -100.6 88.55 -102.25 M118.7 -86.6 Q119.45 -79.95 122.35 -71.2 L119.45 -79.6 117.7 -87.6 Q117.0 -91.2 118.05 -97.15 119.1 -103.2 114.75 -114.2 118.4 -107.05 118.75 -104.85 119.5 -100.0 118.75 -95.1 118.3 -92.2 118.55 -88.6 118.25 -88.2 118.25 -87.7 118.25 -87.05 118.7 -86.6 M112.35 -90.25 L112.3 -90.9 112.3 -91.55 112.25 -92.1 112.25 -94.0 112.25 -94.6 112.25 -95.1 Q112.45 -100.15 115.5 -104.35 L115.15 -103.0 Q114.0 -99.05 113.75 -95.1 L113.7 -93.95 113.7 -92.85 113.7 -92.1 113.7 -91.6 113.7 -91.55 Q113.75 -87.6 114.35 -83.7 L114.6 -82.2 115.0 -80.05 Q115.8 -76.15 116.9 -72.45 119.25 -64.65 120.05 -56.65 120.9 -48.1 120.1 -39.55 119.3 -31.3 117.45 -23.05 115.9 -16.2 113.6 -2.5 L114.3 -13.5 115.0 -18.1 115.4 -19.95 116.6 -24.15 Q118.5 -29.7 119.1 -35.55 119.55 -40.1 119.6 -44.55 119.65 -50.45 118.95 -56.35 118.25 -62.9 116.4 -69.4 114.9 -74.7 113.8 -80.05 L113.6 -81.15 113.3 -82.5 113.25 -82.95 112.6 -87.35 112.75 -87.5 Q113.25 -88.0 113.25 -88.7 113.25 -89.4 112.75 -89.95 L112.35 -90.25 M125.9 -102.25 L124.3 -3.35 123.05 -1.75 124.6 -100.6 125.9 -102.25 M5.7 -89.3 L5.55 -94.6 Q5.6 -99.95 8.8 -104.35 L8.45 -103.0 Q7.15 -98.5 7.0 -93.95 L7.0 -91.6 Q7.05 -86.9 7.9 -82.2 8.8 -77.15 10.15 -72.45 12.5 -64.65 13.3 -56.65 14.15 -48.1 13.35 -39.55 L12.4 -31.95 12.15 -30.4 12.1 -30.1 12.0 -29.6 11.2 -25.35 10.7 -23.05 10.15 -20.5 Q8.75 -13.85 6.9 -2.5 L7.6 -13.5 Q8.15 -18.9 9.9 -24.15 L10.15 -24.9 11.2 -28.7 11.4 -29.6 11.8 -31.45 12.35 -35.55 Q12.8 -40.1 12.85 -44.55 12.9 -50.45 12.25 -56.35 11.5 -62.9 9.65 -69.4 7.85 -75.95 6.6 -82.5 L6.0 -86.3 6.2 -86.5 Q6.75 -87.0 6.75 -87.7 6.75 -88.4 6.2 -88.95 L5.7 -89.3 M19.15 -102.25 L17.55 -3.35 16.3 -1.75 17.85 -100.6 19.15 -102.25 M11.85 -88.15 Q12.05 -85.7 12.55 -82.95 L12.9 -81.15 13.15 -80.05 Q14.05 -75.95 15.6 -71.2 L12.7 -79.6 12.6 -80.05 12.35 -81.15 11.95 -82.95 11.2 -86.35 10.95 -87.6 Q10.55 -89.7 10.75 -92.55 10.85 -94.65 11.3 -97.15 12.35 -103.2 8.05 -114.2 11.65 -107.05 12.0 -104.85 12.75 -100.0 12.0 -95.1 L11.8 -93.45 11.75 -91.55 Q11.7 -90.3 11.8 -89.0 L11.75 -88.7 11.85 -88.15 M51.2 -102.25 L49.6 -3.35 48.3 -1.75 49.85 -100.6 51.2 -102.25 M75.1 -88.85 L74.95 -91.55 74.9 -92.1 74.9 -94.0 74.9 -94.6 74.9 -95.1 Q75.1 -100.15 78.15 -104.35 L77.75 -103.0 Q76.65 -99.05 76.4 -95.1 L76.35 -94.0 76.35 -93.95 76.35 -92.1 76.35 -91.6 76.35 -91.55 Q76.4 -87.25 77.15 -82.95 L77.25 -82.2 77.45 -81.15 77.65 -80.05 Q78.45 -76.15 79.55 -72.45 81.9 -64.65 82.7 -56.65 83.55 -48.1 82.75 -39.55 L81.95 -33.1 81.8 -32.05 81.5 -30.1 81.4 -29.6 80.05 -23.05 79.6 -21.0 79.25 -19.15 79.05 -18.1 76.2 -2.5 76.9 -13.5 77.65 -18.1 77.85 -19.15 78.3 -21.0 79.25 -24.15 80.8 -29.6 80.9 -30.1 81.25 -32.05 81.4 -33.1 81.7 -35.55 Q82.2 -40.1 82.25 -44.55 82.3 -50.45 81.6 -56.35 80.85 -62.9 79.05 -69.4 77.55 -74.7 76.45 -80.05 L76.25 -81.15 75.95 -82.5 75.9 -82.95 75.45 -85.75 75.7 -86.0 Q76.25 -86.5 76.25 -87.2 76.25 -87.9 75.7 -88.45 75.4 -88.75 75.1 -88.85 M37.65 -90.15 L37.6 -91.55 37.55 -92.1 37.55 -94.0 37.55 -94.6 37.55 -95.1 Q37.75 -100.15 40.8 -104.35 L40.4 -103.0 Q39.3 -99.05 39.05 -95.1 L38.95 -94.0 38.95 -93.95 38.95 -92.1 38.95 -91.6 38.95 -91.55 Q39.0 -87.25 39.75 -82.95 L39.9 -82.2 40.1 -81.15 40.3 -80.05 Q41.1 -76.15 42.15 -72.45 44.5 -64.65 45.3 -56.65 46.15 -48.1 45.35 -39.55 L44.55 -33.1 44.4 -32.05 44.1 -30.1 44.0 -29.6 42.7 -23.05 42.25 -21.0 41.9 -19.15 41.65 -18.1 38.85 -2.5 39.55 -13.5 40.3 -18.1 40.5 -19.15 40.95 -21.0 41.9 -24.15 43.4 -29.6 43.5 -30.1 43.9 -32.05 44.05 -33.1 44.35 -35.55 44.9 -44.55 Q44.95 -50.45 44.25 -56.35 43.5 -62.9 41.7 -69.4 40.15 -74.7 39.1 -80.05 L38.85 -81.15 38.6 -82.5 38.5 -82.95 37.9 -86.8 Q38.2 -86.95 38.5 -87.25 39.0 -87.75 39.0 -88.45 39.0 -89.15 38.5 -89.7 L37.65 -90.15 M80.4 -95.1 L80.7 -97.15 Q81.7 -103.2 77.4 -114.2 81.05 -107.05 81.4 -104.85 82.15 -100.0 81.4 -95.1 L81.25 -94.0 81.15 -92.1 81.1 -91.55 Q81.05 -87.7 81.9 -82.95 L82.25 -81.15 82.5 -80.05 Q83.45 -75.95 85.0 -71.2 L82.1 -79.6 82.0 -80.05 81.75 -81.15 81.35 -82.95 80.35 -87.6 Q80.0 -89.3 80.1 -91.55 L80.1 -92.1 80.25 -94.0 80.4 -95.1 M40.05 -114.2 Q43.65 -107.05 44.05 -104.85 44.8 -100.0 44.05 -95.1 L43.9 -94.0 43.75 -92.1 43.75 -91.55 Q43.65 -87.7 44.55 -82.95 L44.9 -81.15 45.15 -80.05 Q46.05 -75.95 47.6 -71.2 45.0 -78.5 44.75 -79.6 L44.65 -80.05 44.4 -81.15 43.95 -82.95 42.95 -87.6 Q42.65 -89.3 42.75 -91.55 L42.75 -92.1 42.9 -94.0 43.05 -95.1 43.35 -97.15 Q44.35 -103.2 40.05 -114.2 M68.25 -92.1 L68.25 -94.0 69.5 -94.0 69.5 -92.1 68.25 -92.1 M54.95 -94.0 L54.95 -92.1 52.1 -92.1 52.1 -94.0 54.95 -94.0 M74.7 -25.05 L75.35 -29.6 75.4 -30.1 75.75 -32.05 75.9 -33.1 76.8 -37.75 Q78.2 -43.35 77.8 -49.15 77.35 -55.65 75.3 -61.85 L72.05 -86.9 73.0 -81.15 73.15 -80.05 Q76.2 -61.25 76.65 -60.15 79.0 -54.0 78.9 -47.2 78.8 -41.65 77.8 -36.05 L77.25 -33.1 77.05 -32.05 76.6 -30.1 76.5 -29.6 75.35 -24.55 75.25 -24.7 74.7 -25.05 M74.75 -21.85 L74.55 -21.0 74.1 -19.15 73.85 -18.1 73.5 -16.6 73.7 -18.1 73.85 -19.15 74.1 -21.0 74.2 -21.7 74.75 -21.85 M30.65 -94.0 L32.1 -94.0 32.15 -92.1 30.65 -92.1 30.65 -94.0 M22.9 -92.1 L20.1 -92.1 20.1 -94.0 22.9 -94.0 22.9 -92.1 M37.2 -24.35 L37.95 -29.6 38.05 -30.1 38.35 -32.05 38.55 -33.1 39.45 -37.75 Q40.85 -43.35 40.45 -49.15 40.0 -55.65 37.95 -61.85 L34.7 -86.9 35.65 -81.15 35.8 -80.05 Q38.85 -61.25 39.3 -60.15 41.65 -54.0 41.55 -47.2 41.4 -41.65 40.45 -36.05 L39.9 -33.1 39.65 -32.05 39.25 -30.1 39.15 -29.6 38.0 -24.4 37.75 -24.45 37.2 -24.35 M37.2 -21.05 L37.2 -21.0 36.75 -19.15 36.5 -18.1 36.15 -16.6 36.35 -18.1 36.5 -19.15 36.75 -21.0 36.75 -21.25 37.2 -21.05 M5.4 -25.45 Q6.65 -34.4 7.5 -37.75 8.85 -43.35 8.5 -49.15 8.0 -55.65 6.0 -61.85 L2.75 -86.9 Q6.85 -61.45 7.3 -60.15 9.6 -54.0 9.5 -47.2 9.4 -41.65 8.5 -36.05 L6.05 -24.75 5.75 -25.2 5.4 -25.45 M5.55 -22.55 L4.15 -16.6 4.95 -22.25 Q5.25 -22.35 5.55 -22.55 M22.9 -32.05 L22.9 -30.1 19.1 -30.1 19.15 -32.05 22.9 -32.05 M30.65 -30.1 L30.65 -32.05 33.1 -32.05 33.15 -30.1 30.65 -30.1 M68.25 -30.1 L68.25 -32.05 70.45 -32.05 70.5 -30.1 68.25 -30.1 M54.95 -32.05 L54.95 -30.1 51.1 -30.1 51.15 -32.05 54.95 -32.05 M105.65 -94.0 L106.85 -94.0 106.85 -92.1 105.65 -92.1 105.65 -94.0 M92.8 -92.1 L89.45 -92.1 89.45 -94.0 92.8 -94.0 92.8 -92.1 M111.95 -24.7 L112.3 -27.1 112.7 -29.6 112.75 -30.1 113.1 -32.05 113.25 -33.1 114.15 -37.75 Q115.55 -43.35 115.2 -49.15 114.7 -55.65 112.7 -61.85 L109.4 -86.9 110.35 -81.15 110.55 -80.05 Q113.6 -61.25 114.0 -60.15 116.35 -54.0 116.25 -47.2 116.15 -41.65 115.2 -36.05 L114.35 -31.9 114.0 -30.3 113.95 -30.1 113.85 -29.6 112.7 -24.55 112.0 -24.7 111.95 -24.7 M111.95 -21.2 L111.45 -19.15 111.2 -18.1 110.85 -16.6 111.05 -18.1 111.2 -19.15 111.5 -21.25 111.95 -21.2 M105.65 -32.05 L107.8 -32.05 107.85 -30.1 105.65 -30.1 105.65 -32.05 M92.8 -30.1 L88.45 -30.1 88.5 -32.05 92.8 -32.05 92.8 -30.1" fill="#bbbbbb" fill-rule="evenodd" stroke="none"/>
    <path d="M87.0 -101.2 L88.55 -103.1 88.55 -103.25 79.95 -122.4 78.4 -120.45 78.4 -120.35 87.0 -101.2 M88.55 -102.25 L87.2 -100.6 85.65 -1.75 86.95 -3.35 88.55 -102.25 M106.7 -100.25 L114.8 -120.9 114.85 -121.0 114.85 -121.05 117.6 -124.45 127.0 -103.5 125.4 -2.95 123.0 0.0 108.3 0.0 108.0 -18.1 88.25 -18.1 88.0 -2.95 85.6 0.0 70.95 0.0 70.7 -18.1 50.9 -18.1 50.65 -2.95 48.25 0.0 33.6 0.0 33.35 -18.1 18.9 -18.1 18.65 -2.95 16.25 0.0 1.6 0.0 0.0 -100.25 8.1 -120.9 8.15 -121.0 8.15 -121.05 10.85 -124.45 20.25 -103.5 20.15 -95.1 32.1 -95.1 32.0 -100.25 40.1 -120.9 40.15 -121.0 40.15 -121.05 42.85 -124.45 52.25 -103.5 52.15 -95.1 69.45 -95.1 69.35 -100.25 77.45 -120.9 77.5 -121.0 77.5 -121.05 80.2 -124.45 89.6 -103.5 89.5 -95.1 106.8 -95.1 106.7 -100.25 M115.5 -119.65 L107.75 -100.05 109.35 -1.05 122.45 -1.05 124.05 -100.65 115.5 -119.65 M117.3 -122.4 L115.75 -120.45 115.75 -120.35 124.35 -101.2 125.9 -103.1 125.9 -103.25 117.3 -122.4 M125.9 -102.25 L124.6 -100.6 123.05 -1.75 124.3 -3.35 125.9 -102.25 M9.05 -120.45 L9.05 -120.35 17.6 -101.2 19.15 -103.1 19.15 -103.25 10.55 -122.4 9.05 -120.45 M19.15 -102.25 L17.85 -100.6 16.3 -1.75 17.55 -3.35 19.15 -102.25 M8.8 -119.65 L1.05 -100.05 2.65 -1.05 15.7 -1.05 17.3 -100.65 8.8 -119.65 M49.3 -100.65 L40.8 -119.65 33.05 -100.05 34.65 -1.05 47.7 -1.05 49.3 -100.65 M51.2 -102.25 L49.85 -100.6 48.3 -1.75 49.6 -3.35 51.2 -102.25 M41.05 -120.45 L41.05 -120.35 49.65 -101.2 51.2 -103.1 51.2 -103.25 42.6 -122.4 41.05 -120.45 M78.15 -119.65 L70.4 -100.05 72.0 -1.05 85.1 -1.05 86.7 -100.65 78.15 -119.65 M68.25 -94.0 L54.95 -94.0 52.1 -94.0 52.1 -92.1 54.95 -92.1 68.25 -92.1 69.5 -92.1 69.5 -94.0 68.25 -94.0 M54.95 -91.55 L52.1 -91.55 51.9 -81.15 69.65 -81.15 69.5 -91.55 68.25 -91.55 54.95 -91.55 M69.7 -80.05 L51.9 -80.05 51.15 -33.1 70.45 -33.1 69.7 -80.05 M30.65 -92.1 L32.15 -92.1 32.1 -94.0 30.65 -94.0 22.9 -94.0 20.1 -94.0 20.1 -92.1 22.9 -92.1 30.65 -92.1 M22.9 -91.55 L20.1 -91.55 19.9 -81.15 32.3 -81.15 32.15 -91.55 30.65 -91.55 22.9 -91.55 M32.35 -80.05 L19.9 -80.05 19.15 -33.1 33.1 -33.1 32.35 -80.05 M22.9 -30.1 L30.65 -30.1 33.15 -30.1 33.1 -32.05 30.65 -32.05 22.9 -32.05 19.15 -32.05 19.1 -30.1 22.9 -30.1 M22.9 -29.6 L19.1 -29.6 18.9 -19.15 33.3 -19.15 33.15 -29.6 30.65 -29.6 22.9 -29.6 M68.25 -32.05 L54.95 -32.05 51.15 -32.05 51.1 -30.1 54.95 -30.1 68.25 -30.1 70.5 -30.1 70.45 -32.05 68.25 -32.05 M54.95 -29.6 L51.1 -29.6 50.95 -19.15 70.65 -19.15 70.5 -29.6 68.25 -29.6 54.95 -29.6 M105.65 -92.1 L106.85 -92.1 106.85 -94.0 105.65 -94.0 92.8 -94.0 89.45 -94.0 89.45 -92.1 92.8 -92.1 105.65 -92.1 M92.8 -91.55 L89.45 -91.55 89.3 -81.15 107.0 -81.15 106.85 -91.55 105.65 -91.55 92.8 -91.55 M107.05 -80.05 L89.25 -80.05 88.5 -33.1 107.8 -33.1 107.05 -80.05 M105.65 -30.1 L107.85 -30.1 107.8 -32.05 105.65 -32.05 92.8 -32.05 88.5 -32.05 88.45 -30.1 92.8 -30.1 105.65 -30.1 M92.8 -29.6 L88.45 -29.6 88.3 -19.15 108.0 -19.15 107.85 -29.6 105.65 -29.6 92.8 -29.6" fill="#333333" fill-rule="evenodd" stroke="none"/>
    <path d="M68.25 -91.55 L69.5 -91.55 69.65 -81.15 51.9 -81.15 52.1 -91.55 54.95 -91.55 54.95 -82.95 68.25 -82.95 68.25 -91.55 M30.65 -91.55 L32.15 -91.55 32.3 -81.15 19.9 -81.15 20.1 -91.55 22.9 -91.55 22.9 -82.95 30.65 -82.95 30.65 -91.55 M30.65 -29.6 L33.15 -29.6 33.3 -19.15 18.9 -19.15 19.1 -29.6 22.9 -29.6 22.9 -21.0 30.65 -21.0 30.65 -29.6 M68.25 -29.6 L70.5 -29.6 70.65 -19.15 50.95 -19.15 51.1 -29.6 54.95 -29.6 54.95 -21.0 68.25 -21.0 68.25 -29.6 M105.65 -91.55 L106.85 -91.55 107.0 -81.15 89.3 -81.15 89.45 -91.55 92.8 -91.55 92.8 -82.95 105.65 -82.95 105.65 -91.55 M105.65 -29.6 L107.85 -29.6 108.0 -19.15 88.3 -19.15 88.45 -29.6 92.8 -29.6 92.8 -21.0 105.65 -21.0 105.65 -29.6" fill="#aaaaaa" fill-rule="evenodd" stroke="none"/>
    <path d="M118.55 -88.6 Q118.3 -92.2 118.75 -95.1 119.5 -100.0 118.75 -104.85 118.4 -107.05 114.75 -114.2 119.1 -103.2 118.05 -97.15 117.0 -91.2 117.7 -87.6 L119.45 -79.6 122.35 -71.2 Q119.45 -79.95 118.7 -86.6 L118.8 -86.5 Q119.3 -85.95 120.0 -85.95 120.7 -85.95 121.25 -86.5 121.75 -87.0 121.75 -87.7 121.75 -88.4 121.25 -88.95 120.7 -89.45 120.0 -89.45 119.3 -89.45 118.8 -88.95 L118.55 -88.6 M112.6 -87.35 L113.25 -82.95 113.3 -82.5 113.6 -81.15 113.8 -80.05 Q114.9 -74.7 116.4 -69.4 118.25 -62.9 118.95 -56.35 119.65 -50.45 119.6 -44.55 119.55 -40.1 119.1 -35.55 118.5 -29.7 116.6 -24.15 L115.4 -19.95 115.0 -18.1 114.3 -13.5 113.6 -2.5 Q115.9 -16.2 117.45 -23.05 119.3 -31.3 120.1 -39.55 120.9 -48.1 120.05 -56.65 119.25 -64.65 116.9 -72.45 115.8 -76.15 115.0 -80.05 L114.6 -82.2 114.35 -83.7 Q113.75 -87.6 113.7 -91.55 L113.7 -91.6 113.7 -92.1 113.7 -92.85 113.7 -93.95 113.75 -95.1 Q114.0 -99.05 115.15 -103.0 L115.5 -104.35 Q112.45 -100.15 112.25 -95.1 L112.25 -94.6 112.25 -94.0 112.25 -92.1 112.3 -91.55 112.3 -90.9 112.35 -90.25 111.5 -90.45 Q110.8 -90.45 110.3 -89.95 109.75 -89.4 109.75 -88.7 109.75 -88.0 110.3 -87.5 110.8 -86.95 111.5 -86.95 112.1 -86.95 112.6 -87.35 M115.5 -119.65 L124.05 -100.65 122.45 -1.05 109.35 -1.05 107.75 -100.05 115.5 -119.65 M6.0 -86.3 L6.6 -82.5 Q7.85 -75.95 9.65 -69.4 11.5 -62.9 12.25 -56.35 12.9 -50.45 12.85 -44.55 12.8 -40.1 12.35 -35.55 L11.8 -31.45 11.4 -29.6 11.2 -28.7 10.15 -24.9 9.9 -24.15 Q8.15 -18.9 7.6 -13.5 L6.9 -2.5 Q8.75 -13.85 10.15 -20.5 L10.7 -23.05 11.2 -25.35 12.0 -29.6 12.1 -30.1 12.15 -30.4 12.4 -31.95 13.35 -39.55 Q14.15 -48.1 13.3 -56.65 12.5 -64.65 10.15 -72.45 8.8 -77.15 7.9 -82.2 7.05 -86.9 7.0 -91.6 L7.0 -93.95 Q7.15 -98.5 8.45 -103.0 L8.8 -104.35 Q5.6 -99.95 5.55 -94.6 L5.7 -89.3 5.0 -89.45 Q4.3 -89.45 3.75 -88.95 3.25 -88.4 3.25 -87.7 3.25 -87.0 3.75 -86.5 4.3 -85.95 5.0 -85.95 5.55 -85.95 6.0 -86.3 M8.8 -119.65 L17.3 -100.65 15.7 -1.05 2.65 -1.05 1.05 -100.05 8.8 -119.65 M11.8 -89.0 Q11.7 -90.3 11.75 -91.55 L11.8 -93.45 12.0 -95.1 Q12.75 -100.0 12.0 -104.85 11.65 -107.05 8.05 -114.2 12.35 -103.2 11.3 -97.15 10.85 -94.65 10.75 -92.55 10.55 -89.7 10.95 -87.6 L11.2 -86.35 11.95 -82.95 12.35 -81.15 12.6 -80.05 12.7 -79.6 15.6 -71.2 Q14.05 -75.95 13.15 -80.05 L12.9 -81.15 12.55 -82.95 Q12.05 -85.7 11.85 -88.15 L12.25 -87.5 Q12.8 -86.95 13.5 -86.95 14.2 -86.95 14.7 -87.5 15.25 -88.0 15.25 -88.7 15.25 -89.4 14.7 -89.95 14.2 -90.45 13.5 -90.45 12.8 -90.45 12.25 -89.95 11.85 -89.5 11.8 -89.0 M49.3 -100.65 L47.7 -1.05 34.65 -1.05 33.05 -100.05 40.8 -119.65 49.3 -100.65 M78.15 -119.65 L86.7 -100.65 85.1 -1.05 72.0 -1.05 70.4 -100.05 78.15 -119.65 M75.45 -85.75 L75.9 -82.95 75.95 -82.5 76.25 -81.15 76.45 -80.05 Q77.55 -74.7 79.05 -69.4 80.85 -62.9 81.6 -56.35 82.3 -50.45 82.25 -44.55 82.2 -40.1 81.7 -35.55 L81.4 -33.1 81.25 -32.05 80.9 -30.1 80.8 -29.6 79.25 -24.15 78.3 -21.0 77.85 -19.15 77.65 -18.1 76.9 -13.5 76.2 -2.5 79.05 -18.1 79.25 -19.15 79.6 -21.0 80.05 -23.05 81.4 -29.6 81.5 -30.1 81.8 -32.05 81.95 -33.1 82.75 -39.55 Q83.55 -48.1 82.7 -56.65 81.9 -64.65 79.55 -72.45 78.45 -76.15 77.65 -80.05 L77.45 -81.15 77.25 -82.2 77.15 -82.95 Q76.4 -87.25 76.35 -91.55 L76.35 -91.6 76.35 -92.1 76.35 -93.95 76.35 -94.0 76.4 -95.1 Q76.65 -99.05 77.75 -103.0 L78.15 -104.35 Q75.1 -100.15 74.9 -95.1 L74.9 -94.6 74.9 -94.0 74.9 -92.1 74.95 -91.55 75.1 -88.85 74.5 -88.95 Q73.8 -88.95 73.25 -88.45 72.75 -87.9 72.75 -87.2 72.75 -86.5 73.25 -86.0 73.8 -85.45 74.5 -85.45 L75.45 -85.75 M37.9 -86.8 L38.5 -82.95 38.6 -82.5 38.85 -81.15 39.1 -80.05 Q40.15 -74.7 41.7 -69.4 43.5 -62.9 44.25 -56.35 44.95 -50.45 44.9 -44.55 L44.35 -35.55 44.05 -33.1 43.9 -32.05 43.5 -30.1 43.4 -29.6 41.9 -24.15 40.95 -21.0 40.5 -19.15 40.3 -18.1 39.55 -13.5 38.85 -2.5 41.65 -18.1 41.9 -19.15 42.25 -21.0 42.7 -23.05 44.0 -29.6 44.1 -30.1 44.4 -32.05 44.55 -33.1 45.35 -39.55 Q46.15 -48.1 45.3 -56.65 44.5 -64.65 42.15 -72.45 41.1 -76.15 40.3 -80.05 L40.1 -81.15 39.9 -82.2 39.75 -82.95 Q39.0 -87.25 38.95 -91.55 L38.95 -91.6 38.95 -92.1 38.95 -93.95 38.95 -94.0 39.05 -95.1 Q39.3 -99.05 40.4 -103.0 L40.8 -104.35 Q37.75 -100.15 37.55 -95.1 L37.55 -94.6 37.55 -94.0 37.55 -92.1 37.6 -91.55 37.65 -90.15 37.25 -90.2 Q36.55 -90.2 36.05 -89.7 35.5 -89.15 35.5 -88.45 35.5 -87.75 36.05 -87.25 36.55 -86.7 37.25 -86.7 L37.9 -86.8 M40.05 -114.2 Q44.35 -103.2 43.35 -97.15 L43.05 -95.1 42.9 -94.0 42.75 -92.1 42.75 -91.55 Q42.65 -89.3 42.95 -87.6 L43.95 -82.95 44.4 -81.15 44.65 -80.05 44.75 -79.6 Q45.0 -78.5 47.6 -71.2 46.05 -75.95 45.15 -80.05 L44.9 -81.15 44.55 -82.95 Q43.65 -87.7 43.75 -91.55 L43.75 -92.1 43.9 -94.0 44.05 -95.1 Q44.8 -100.0 44.05 -104.85 43.65 -107.05 40.05 -114.2 M80.4 -95.1 L80.25 -94.0 80.1 -92.1 80.1 -91.55 Q80.0 -89.3 80.35 -87.6 L81.35 -82.95 81.75 -81.15 82.0 -80.05 82.1 -79.6 85.0 -71.2 Q83.45 -75.95 82.5 -80.05 L82.25 -81.15 81.9 -82.95 Q81.05 -87.7 81.1 -91.55 L81.15 -92.1 81.25 -94.0 81.4 -95.1 Q82.15 -100.0 81.4 -104.85 81.05 -107.05 77.4 -114.2 81.7 -103.2 80.7 -97.15 L80.4 -95.1 M54.95 -91.55 L68.25 -91.55 68.25 -82.95 54.95 -82.95 54.95 -91.55 M75.35 -24.55 L76.5 -29.6 76.6 -30.1 77.05 -32.05 77.25 -33.1 77.8 -36.05 Q78.8 -41.65 78.9 -47.2 79.0 -54.0 76.65 -60.15 76.2 -61.25 73.15 -80.05 L73.0 -81.15 72.05 -86.9 75.3 -61.85 Q77.35 -55.65 77.8 -49.15 78.2 -43.35 76.8 -37.75 L75.9 -33.1 75.75 -32.05 75.4 -30.1 75.35 -29.6 74.7 -25.05 74.0 -25.2 Q73.3 -25.2 72.8 -24.7 72.25 -24.15 72.25 -23.45 72.25 -22.75 72.8 -22.25 73.3 -21.7 74.0 -21.7 L74.2 -21.7 74.1 -21.0 73.85 -19.15 73.7 -18.1 73.5 -16.6 73.85 -18.1 74.1 -19.15 74.55 -21.0 74.75 -21.85 75.25 -22.25 Q75.75 -22.75 75.75 -23.45 75.75 -24.05 75.35 -24.55 M44.0 -87.45 Q44.0 -86.75 44.55 -86.25 45.05 -85.7 45.75 -85.7 46.45 -85.7 47.0 -86.25 47.5 -86.75 47.5 -87.45 47.5 -88.15 47.0 -88.7 46.45 -89.2 45.75 -89.2 45.05 -89.2 44.55 -88.7 44.0 -88.15 44.0 -87.45 M22.9 -91.55 L30.65 -91.55 30.65 -82.95 22.9 -82.95 22.9 -91.55 M38.0 -24.4 L39.15 -29.6 39.25 -30.1 39.65 -32.05 39.9 -33.1 40.45 -36.05 Q41.4 -41.65 41.55 -47.2 41.65 -54.0 39.3 -60.15 38.85 -61.25 35.8 -80.05 L35.65 -81.15 34.7 -86.9 37.95 -61.85 Q40.0 -55.65 40.45 -49.15 40.85 -43.35 39.45 -37.75 L38.55 -33.1 38.35 -32.05 38.05 -30.1 37.95 -29.6 37.2 -24.35 Q36.8 -24.25 36.5 -23.95 36.0 -23.4 36.0 -22.7 36.0 -22.0 36.5 -21.5 L36.75 -21.25 36.75 -21.0 36.5 -19.15 36.35 -18.1 36.15 -16.6 36.5 -18.1 36.75 -19.15 37.2 -21.0 37.2 -21.05 37.75 -20.95 Q38.45 -20.95 38.95 -21.5 39.5 -22.0 39.5 -22.7 39.5 -23.4 38.95 -23.95 L38.0 -24.4 M6.05 -24.75 L8.5 -36.05 Q9.4 -41.65 9.5 -47.2 9.6 -54.0 7.3 -60.15 6.85 -61.45 2.75 -86.9 L6.0 -61.85 Q8.0 -55.65 8.5 -49.15 8.85 -43.35 7.5 -37.75 6.65 -34.4 5.4 -25.45 L4.5 -25.7 Q3.8 -25.7 3.3 -25.2 2.75 -24.65 2.75 -23.95 2.75 -23.25 3.3 -22.75 3.8 -22.2 4.5 -22.2 L4.95 -22.25 4.15 -16.6 5.55 -22.55 5.75 -22.75 Q6.25 -23.25 6.25 -23.95 L6.05 -24.75 M22.9 -29.6 L30.65 -29.6 30.65 -21.0 22.9 -21.0 22.9 -29.6 M14.25 -24.2 Q13.7 -24.7 13.0 -24.7 12.3 -24.7 11.8 -24.2 11.25 -23.65 11.25 -22.95 11.25 -22.25 11.8 -21.75 12.3 -21.2 13.0 -21.2 13.7 -21.2 14.25 -21.75 14.75 -22.25 14.75 -22.95 14.75 -23.65 14.25 -24.2 M54.95 -29.6 L68.25 -29.6 68.25 -21.0 54.95 -21.0 54.95 -29.6 M47.45 -24.95 Q46.95 -25.45 46.25 -25.45 45.55 -25.45 45.0 -24.95 44.5 -24.4 44.5 -23.7 44.5 -23.0 45.0 -22.5 45.55 -21.95 46.25 -21.95 46.95 -21.95 47.45 -22.5 48.0 -23.0 48.0 -23.7 48.0 -24.4 47.45 -24.95 M92.8 -91.55 L105.65 -91.55 105.65 -82.95 92.8 -82.95 92.8 -91.55 M112.7 -24.55 L113.85 -29.6 113.95 -30.1 114.0 -30.3 114.35 -31.9 115.2 -36.05 Q116.15 -41.65 116.25 -47.2 116.35 -54.0 114.0 -60.15 113.6 -61.25 110.55 -80.05 L110.35 -81.15 109.4 -86.9 112.7 -61.85 Q114.7 -55.65 115.2 -49.15 115.55 -43.35 114.15 -37.75 L113.25 -33.1 113.1 -32.05 112.75 -30.1 112.7 -29.6 112.3 -27.1 111.95 -24.7 Q111.3 -24.7 110.75 -24.2 110.25 -23.65 110.25 -22.95 110.25 -22.25 110.75 -21.75 L111.5 -21.25 111.2 -19.15 111.05 -18.1 110.85 -16.6 111.2 -18.1 111.45 -19.15 111.95 -21.2 112.0 -21.2 Q112.7 -21.2 113.2 -21.75 113.75 -22.25 113.75 -22.95 113.75 -23.65 113.2 -24.2 L112.7 -24.55 M84.2 -87.0 Q84.75 -87.5 84.75 -88.2 84.75 -88.9 84.2 -89.45 83.7 -89.95 83.0 -89.95 82.3 -89.95 81.75 -89.45 81.25 -88.9 81.25 -88.2 81.25 -87.5 81.75 -87.0 82.3 -86.45 83.0 -86.45 83.7 -86.45 84.2 -87.0 M92.8 -29.6 L105.65 -29.6 105.65 -21.0 92.8 -21.0 92.8 -29.6 M120.5 -25.7 Q119.8 -25.7 119.25 -25.2 118.75 -24.65 118.75 -23.95 118.75 -23.25 119.25 -22.75 119.8 -22.2 120.5 -22.2 121.2 -22.2 121.7 -22.75 122.25 -23.25 122.25 -23.95 122.25 -24.65 121.7 -25.2 121.2 -25.7 120.5 -25.7 M82.5 -24.2 Q81.8 -24.2 81.3 -23.7 80.75 -23.15 80.75 -22.45 80.75 -21.75 81.3 -21.25 81.8 -20.7 82.5 -20.7 83.2 -20.7 83.75 -21.25 84.25 -21.75 84.25 -22.45 84.25 -23.15 83.75 -23.7 83.2 -24.2 82.5 -24.2" fill="#dddddd" fill-rule="evenodd" stroke="none"/>
    <path d="M118.7 -86.6 Q118.25 -87.05 118.25 -87.7 118.25 -88.2 118.55 -88.6 L118.8 -88.95 Q119.3 -89.45 120.0 -89.45 120.7 -89.45 121.25 -88.95 121.75 -88.4 121.75 -87.7 121.75 -87.0 121.25 -86.5 120.7 -85.95 120.0 -85.95 119.3 -85.95 118.8 -86.5 L118.7 -86.6 M112.35 -90.25 L112.75 -89.95 Q113.25 -89.4 113.25 -88.7 113.25 -88.0 112.75 -87.5 L112.6 -87.35 Q112.1 -86.95 111.5 -86.95 110.8 -86.95 110.3 -87.5 109.75 -88.0 109.75 -88.7 109.75 -89.4 110.3 -89.95 110.8 -90.45 111.5 -90.45 L112.35 -90.25 M5.7 -89.3 L6.2 -88.95 Q6.75 -88.4 6.75 -87.7 6.75 -87.0 6.2 -86.5 L6.0 -86.3 Q5.55 -85.95 5.0 -85.95 4.3 -85.95 3.75 -86.5 3.25 -87.0 3.25 -87.7 3.25 -88.4 3.75 -88.95 4.3 -89.45 5.0 -89.45 L5.7 -89.3 M11.85 -88.15 L11.75 -88.7 11.8 -89.0 Q11.85 -89.5 12.25 -89.95 12.8 -90.45 13.5 -90.45 14.2 -90.45 14.7 -89.95 15.25 -89.4 15.25 -88.7 15.25 -88.0 14.7 -87.5 14.2 -86.95 13.5 -86.95 12.8 -86.95 12.25 -87.5 L11.85 -88.15 M75.1 -88.85 Q75.4 -88.75 75.7 -88.45 76.25 -87.9 76.25 -87.2 76.25 -86.5 75.7 -86.0 L75.45 -85.75 74.5 -85.45 Q73.8 -85.45 73.25 -86.0 72.75 -86.5 72.75 -87.2 72.75 -87.9 73.25 -88.45 73.8 -88.95 74.5 -88.95 L75.1 -88.85 M37.65 -90.15 L38.5 -89.7 Q39.0 -89.15 39.0 -88.45 39.0 -87.75 38.5 -87.25 38.2 -86.95 37.9 -86.8 L37.25 -86.7 Q36.55 -86.7 36.05 -87.25 35.5 -87.75 35.5 -88.45 35.5 -89.15 36.05 -89.7 36.55 -90.2 37.25 -90.2 L37.65 -90.15 M74.7 -25.05 L75.25 -24.7 75.35 -24.55 Q75.75 -24.05 75.75 -23.45 75.75 -22.75 75.25 -22.25 L74.75 -21.85 74.2 -21.7 74.0 -21.7 Q73.3 -21.7 72.8 -22.25 72.25 -22.75 72.25 -23.45 72.25 -24.15 72.8 -24.7 73.3 -25.2 74.0 -25.2 L74.7 -25.05 M44.0 -87.45 Q44.0 -88.15 44.55 -88.7 45.05 -89.2 45.75 -89.2 46.45 -89.2 47.0 -88.7 47.5 -88.15 47.5 -87.45 47.5 -86.75 47.0 -86.25 46.45 -85.7 45.75 -85.7 45.05 -85.7 44.55 -86.25 44.0 -86.75 44.0 -87.45 M37.2 -24.35 L37.75 -24.45 38.0 -24.4 38.95 -23.95 Q39.5 -23.4 39.5 -22.7 39.5 -22.0 38.95 -21.5 38.45 -20.95 37.75 -20.95 L37.2 -21.05 36.75 -21.25 36.5 -21.5 Q36.0 -22.0 36.0 -22.7 36.0 -23.4 36.5 -23.95 36.8 -24.25 37.2 -24.35 M5.4 -25.45 L5.75 -25.2 6.05 -24.75 6.25 -23.95 Q6.25 -23.25 5.75 -22.75 L5.55 -22.55 Q5.25 -22.35 4.95 -22.25 L4.5 -22.2 Q3.8 -22.2 3.3 -22.75 2.75 -23.25 2.75 -23.95 2.75 -24.65 3.3 -25.2 3.8 -25.7 4.5 -25.7 L5.4 -25.45 M14.25 -24.2 Q14.75 -23.65 14.75 -22.95 14.75 -22.25 14.25 -21.75 13.7 -21.2 13.0 -21.2 12.3 -21.2 11.8 -21.75 11.25 -22.25 11.25 -22.95 11.25 -23.65 11.8 -24.2 12.3 -24.7 13.0 -24.7 13.7 -24.7 14.25 -24.2 M47.45 -24.95 Q48.0 -24.4 48.0 -23.7 48.0 -23.0 47.45 -22.5 46.95 -21.95 46.25 -21.95 45.55 -21.95 45.0 -22.5 44.5 -23.0 44.5 -23.7 44.5 -24.4 45.0 -24.95 45.55 -25.45 46.25 -25.45 46.95 -25.45 47.45 -24.95 M111.95 -24.7 L112.0 -24.7 112.7 -24.55 113.2 -24.2 Q113.75 -23.65 113.75 -22.95 113.75 -22.25 113.2 -21.75 112.7 -21.2 112.0 -21.2 L111.95 -21.2 111.5 -21.25 110.75 -21.75 Q110.25 -22.25 110.25 -22.95 110.25 -23.65 110.75 -24.2 111.3 -24.7 111.95 -24.7 M84.2 -87.0 Q83.7 -86.45 83.0 -86.45 82.3 -86.45 81.75 -87.0 81.25 -87.5 81.25 -88.2 81.25 -88.9 81.75 -89.45 82.3 -89.95 83.0 -89.95 83.7 -89.95 84.2 -89.45 84.75 -88.9 84.75 -88.2 84.75 -87.5 84.2 -87.0 M120.5 -25.7 Q121.2 -25.7 121.7 -25.2 122.25 -24.65 122.25 -23.95 122.25 -23.25 121.7 -22.75 121.2 -22.2 120.5 -22.2 119.8 -22.2 119.25 -22.75 118.75 -23.25 118.75 -23.95 118.75 -24.65 119.25 -25.2 119.8 -25.7 120.5 -25.7 M82.5 -24.2 Q83.2 -24.2 83.75 -23.7 84.25 -23.15 84.25 -22.45 84.25 -21.75 83.75 -21.25 83.2 -20.7 82.5 -20.7 81.8 -20.7 81.3 -21.25 80.75 -21.75 80.75 -22.45 80.75 -23.15 81.3 -23.7 81.8 -24.2 82.5 -24.2" fill="#666666" fill-rule="evenodd" stroke="none"/>
  </g>
</svg>
