<?xml version="1.0" encoding="UTF-8" standalone="no"?>
<svg xmlns:ffdec="https://www.free-decompiler.com/flash" xmlns:xlink="http://www.w3.org/1999/xlink" ffdec:objectType="shape" height="239.6px" width="463.05px" xmlns="http://www.w3.org/2000/svg">
  <g transform="matrix(1.0, 0.0, 0.0, 1.0, 6.0, 0.0)">
    <path d="M327.2 133.35 L451.05 239.6 -6.0 239.6 27.2 101.45 52.3 72.5 72.9 28.45 130.2 5.0 186.6 22.4 204.5 68.25 240.1 73.15 301.05 133.35 327.2 133.35" fill="#000000" fill-opacity="0.2509804" fill-rule="evenodd" stroke="none"/>
    <path d="M330.25 166.5 L355.1 168.9 355.1 208.75 401.55 202.55 362.25 199.5 357.25 164.75 330.25 166.5 M63.4 64.9 L81.5 26.2 136.35 3.75 189.95 20.25 208.0 66.4 244.45 71.45 305.6 131.85 331.9 131.85 447.6 231.1 354.25 231.1 301.25 163.8 276.25 172.8 246.25 112.8 214.25 112.8 192.25 71.8 161.2 76.8 122.2 47.8 66.15 64.1 63.4 64.9 M211.0 83.0 L227.8 94.05 232.6 79.4 223.15 85.65 211.0 81.75 211.0 83.0 M89.75 32.15 L105.45 38.65 120.75 24.0 105.0 33.8 89.75 32.15 M136.0 33.0 L156.45 33.2 177.85 64.4 158.4 26.3 136.0 33.0 M280.05 143.65 L272.1 140.35 242.3 80.35 270.25 144.75 280.05 143.65 M305.5 143.0 L302.4 143.75 321.4 159.15 305.5 143.0" fill="#c9754d" fill-rule="evenodd" stroke="none"/>
    <path d="M330.25 166.5 L357.25 164.75 362.25 199.5 401.55 202.55 355.1 208.75 355.1 168.9 330.25 166.5 M354.25 231.1 L321.25 231.1 297.25 172.8 269.25 185.8 235.25 121.8 201.25 124.8 187.25 83.8 151.2 90.8 122.2 61.8 66.15 64.1 122.2 47.8 161.2 76.8 192.25 71.8 214.25 112.8 246.25 112.8 276.25 172.8 301.25 163.8 354.25 231.1 M211.0 83.0 L211.0 81.75 223.15 85.65 232.6 79.4 227.8 94.05 211.0 83.0 M305.5 143.0 L321.4 159.15 302.4 143.75 305.5 143.0 M280.05 143.65 L270.25 144.75 242.3 80.35 272.1 140.35 280.05 143.65 M136.0 33.0 L158.4 26.3 177.85 64.4 156.45 33.2 136.0 33.0 M89.75 32.15 L105.0 33.8 120.75 24.0 105.45 38.65 89.75 32.15" fill="#af613b" fill-rule="evenodd" stroke="none"/>
    <path d="M354.25 231.1 L447.6 231.1 331.9 131.85 305.6 131.85 244.45 71.45 208.0 66.4 189.95 20.25 136.35 3.75 81.5 26.2 63.4 64.9 61.25 69.5 47.85 84.95 36.4 98.1 34.0 108.15 19.55 168.3 15.4 185.6 4.45 231.1 90.3 231.1 107.1 231.1 217.2 231.1 237.3 231.1 321.25 231.1 354.25 231.1 M333.2 128.35 L457.05 234.6 0.0 234.6 33.2 96.45 58.3 67.5 78.9 23.45 136.2 0.0 192.6 17.4 210.5 63.25 246.1 68.15 307.05 128.35 333.2 128.35" fill="#603128" fill-rule="evenodd" stroke="none"/>
    <path d="M321.25 231.1 L237.3 231.1 210.15 179.35 163.0 193.0 135.25 139.2 157.2 205.15 205.5 192.6 217.2 231.1 107.1 231.1 93.45 188.9 19.55 168.3 34.0 108.15 41.25 105.25 74.95 160.35 134.05 138.5 81.75 142.7 47.85 84.95 61.25 69.5 63.4 64.9 66.15 64.1 122.2 61.8 151.2 90.8 187.25 83.8 201.25 124.8 235.25 121.8 269.25 185.8 297.25 172.8 321.25 231.1 M90.3 231.1 L4.45 231.1 15.4 185.6 83.05 193.35 90.3 231.1 M176.25 123.0 L177.8 152.75 220.0 145.5 182.25 150.0 176.25 123.0 M231.2 173.35 L228.95 172.4 251.0 211.0 231.2 173.35 M251.75 211.25 L274.8 207.25 296.75 215.25 275.3 202.2 251.75 211.25 M128.9 221.3 L132.2 218.25 116.5 175.5 128.9 221.3 M85.7 86.25 L96.5 108.95 124.75 98.5 99.5 101.1 85.7 86.25 M54.4 168.45 L55.1 167.35 35.15 142.35 54.4 168.45" fill="#95493d" fill-rule="evenodd" stroke="none"/>
    <path d="M237.3 231.1 L217.2 231.1 205.5 192.6 157.2 205.15 135.25 139.2 163.0 193.0 210.15 179.35 237.3 231.1 M107.1 231.1 L90.3 231.1 83.05 193.35 15.4 185.6 19.55 168.3 93.45 188.9 107.1 231.1 M34.0 108.15 L36.4 98.1 47.85 84.95 81.75 142.7 134.05 138.5 74.95 160.35 41.25 105.25 34.0 108.15 M231.2 173.35 L251.0 211.0 228.95 172.4 231.2 173.35 M176.25 123.0 L182.25 150.0 220.0 145.5 177.8 152.75 176.25 123.0 M54.4 168.45 L35.15 142.35 55.1 167.35 54.4 168.45 M85.7 86.25 L99.5 101.1 124.75 98.5 96.5 108.95 85.7 86.25 M128.9 221.3 L116.5 175.5 132.2 218.25 128.9 221.3 M251.75 211.25 L275.3 202.2 296.75 215.25 274.8 207.25 251.75 211.25" fill="#b35b4d" fill-rule="evenodd" stroke="none"/>
  </g>
</svg>
