<?xml version="1.0" encoding="UTF-8" standalone="no"?>
<svg xmlns:ffdec="https://www.free-decompiler.com/flash" xmlns:xlink="http://www.w3.org/1999/xlink" ffdec:objectType="shape" height="187.45px" width="61.4px" xmlns="http://www.w3.org/2000/svg">
  <g transform="matrix(1.0, 0.0, 0.0, 1.0, -1.35, -1.35)">
    <path d="M40.95 6.05 L40.0 9.2 Q38.65 12.35 32.1 17.0 25.25 21.9 23.75 23.65 20.0 28.15 20.0 35.85 20.0 39.9 21.75 44.5 L25.65 53.25 Q31.25 66.0 31.25 80.05 31.25 87.2 27.7 90.7 24.05 94.35 16.45 94.35 16.1 94.35 10.3 79.9 7.7 74.95 7.05 69.65 5.35 66.55 5.95 65.25 6.5 63.95 6.55 62.4 6.6 60.8 4.0 58.25 1.35 55.65 1.35 51.7 2.4 46.9 3.5 44.05 L2.7 40.4 Q2.2 38.95 4.1 36.55 6.0 34.1 6.0 33.45 L5.65 31.35 Q5.25 29.75 5.15 28.55 5.05 27.3 6.95 25.25 8.85 23.15 9.05 20.3 9.2 17.45 9.75 16.35 L12.85 11.45 Q15.4 7.65 20.95 4.75 26.5 1.85 28.15 1.5 L31.6 1.7 34.9 1.9 36.85 1.5 39.05 1.9 Q41.2 2.4 41.75 2.9 L40.95 6.05 M44.1 30.35 L43.25 28.35 42.3 26.4 Q42.15 26.2 38.7 24.9 35.9 24.55 33.1 26.1 30.75 27.4 30.15 28.8 L28.65 33.55 Q28.65 36.65 30.75 38.85 32.85 41.0 35.8 41.0 L37.9 40.7 Q39.4 40.2 40.95 38.6 42.35 37.15 42.8 35.9 L43.5 33.55 Q44.1 31.3 44.1 30.35 M45.65 32.9 Q45.65 36.85 42.9 39.65 40.1 42.45 36.15 42.45 32.2 42.45 29.45 39.65 26.65 36.85 26.65 32.9 26.65 28.95 29.45 26.15 32.2 23.35 36.15 23.35 40.1 23.35 42.9 26.15 45.65 28.95 45.65 32.9 M50.6 77.6 L50.15 77.15 Q48.25 75.05 48.25 73.7 48.25 64.7 50.4 57.65 53.55 47.3 60.95 42.3 62.15 43.0 62.55 45.65 L62.75 48.35 62.15 50.2 61.55 52.2 61.85 53.7 61.9 53.85 Q60.25 53.95 60.25 56.0 L60.5 56.9 Q60.95 57.8 61.85 57.8 L62.2 57.75 Q62.05 59.85 60.5 62.35 L58.65 65.55 Q58.5 66.3 58.5 70.2 56.7 74.3 57.05 74.65 57.35 74.95 58.7 79.75 L58.05 82.5 Q54.95 81.1 52.8 79.5 54.25 79.5 54.25 78.15 54.25 76.75 53.25 76.3 L54.0 74.3 54.2 71.6 53.8 69.25 53.4 66.9 55.55 61.25 Q57.7 54.9 57.7 51.3 57.7 50.7 57.1 49.95 L56.5 49.3 Q52.65 52.5 49.8 70.4 L49.75 73.7 51.4 76.15 Q50.5 76.4 50.5 77.5 L50.6 77.6 M38.05 9.4 Q39.35 9.4 39.35 8.1 L39.3 7.15 39.55 6.3 38.95 6.3 Q38.6 5.85 38.05 5.8 37.5 5.75 37.15 6.2 L34.1 6.1 Q29.65 6.1 13.3 17.9 L15.05 22.55 11.7 25.85 Q10.4 27.4 10.4 29.15 L8.65 35.65 Q6.9 41.55 6.9 43.3 L7.5 45.2 8.05 47.55 7.35 49.75 Q6.65 51.95 6.65 52.35 6.65 54.5 8.05 55.95 L8.75 57.1 Q9.5 57.75 10.25 57.75 L10.6 57.75 Q12.1 58.9 12.1 59.9 L11.25 62.6 Q10.4 64.75 10.4 65.25 10.4 67.6 12.45 70.45 L14.45 72.95 14.1 74.55 13.7 76.15 Q20.45 90.75 20.7 92.45 L24.15 91.35 27.3 88.9 29.05 85.65 29.55 81.6 29.7 76.4 29.4 72.2 27.6 63.05 26.3 59.3 26.2 59.05 20.75 46.05 Q19.65 43.45 18.75 39.35 L18.5 35.85 Q18.5 29.95 20.95 25.05 23.25 20.45 26.5 19.0 L32.85 14.6 36.15 12.05 38.05 9.4 M41.2 85.05 Q43.6 82.6 47.0 82.6 50.4 82.6 52.85 85.05 55.25 87.45 55.25 90.9 55.25 94.35 52.85 96.8 50.4 99.2 47.0 99.2 43.6 99.2 41.2 96.8 38.75 94.35 38.75 90.9 38.75 87.45 41.2 85.05 M41.35 95.75 Q44.5 98.0 48.3 98.0 50.0 98.0 51.25 97.4 53.2 96.5 53.2 94.25 53.2 93.15 51.65 91.45 L50.05 93.35 Q48.15 95.05 46.05 95.15 L46.2 94.35 Q48.0 90.9 50.0 88.2 L51.65 85.95 48.2 83.85 Q45.35 83.85 43.35 87.35 41.35 90.8 41.35 95.75 M21.6 166.2 L22.05 166.0 Q23.15 165.55 23.15 165.0 23.15 164.5 24.75 164.45 26.3 164.4 26.3 163.9 L28.7 163.6 Q31.55 162.95 33.75 161.15 L35.15 159.15 36.25 157.45 Q36.75 157.45 36.55 153.7 36.3 149.9 36.8 149.9 37.05 147.8 37.9 144.5 39.65 137.85 43.0 132.1 43.9 130.5 47.55 128.2 50.65 126.2 50.65 125.0 50.65 124.25 51.15 124.15 L52.85 123.7 Q52.95 124.85 52.05 126.5 L51.1 128.3 52.0 129.85 Q52.8 131.3 52.8 132.6 52.8 133.85 52.0 134.7 L50.5 136.5 Q49.8 137.45 49.95 138.4 L50.35 140.2 Q50.45 140.65 49.35 143.85 48.2 147.0 48.25 147.75 L48.2 149.85 48.2 152.6 Q48.2 153.95 47.7 155.2 47.2 156.4 47.0 157.85 46.75 159.25 47.4 161.05 L48.6 164.65 Q49.05 166.2 48.6 168.35 48.1 170.45 48.5 171.9 48.85 173.3 48.85 176.85 48.85 180.35 44.4 184.7 39.9 189.05 35.45 188.8 31.0 188.55 29.1 185.95 L24.95 180.35 Q23.15 178.15 22.85 176.15 22.55 174.2 22.55 172.7 22.55 171.75 21.95 170.85 23.25 170.7 23.25 168.5 23.25 166.6 21.6 166.2 M19.85 168.2 Q19.6 167.65 19.7 167.15 L19.9 167.05 19.8 167.8 19.85 168.2 M46.55 133.45 Q46.95 134.1 48.0 134.1 49.1 134.1 49.75 133.25 50.25 132.55 50.25 131.65 50.25 129.65 48.35 129.6 47.2 129.6 46.75 130.5 L44.15 133.0 Q42.1 135.05 40.35 141.4 39.4 144.85 38.3 150.05 38.35 151.7 36.9 156.55 35.45 161.4 34.65 162.35 33.8 163.4 30.9 164.4 L26.65 165.35 23.8 166.35 Q24.75 167.0 26.25 170.2 L24.6 173.65 Q24.6 174.2 29.45 179.5 34.7 185.25 36.7 185.25 40.35 185.25 44.05 179.4 48.15 172.95 46.15 166.9 46.4 166.95 46.45 167.1 46.15 163.8 45.05 158.2 L44.05 153.05 Q44.05 150.35 44.95 148.1 L45.8 146.15 44.7 143.2 46.55 133.45 M36.7 107.4 Q33.15 107.4 30.65 109.4 28.15 111.35 28.15 114.15 L26.3 121.05 Q26.3 123.8 28.75 125.1 30.9 126.2 33.05 125.55 L36.45 123.45 37.2 122.45 Q40.05 115.5 40.05 114.5 40.05 113.6 39.25 111.5 38.35 109.25 37.5 108.15 L36.7 107.4 M32.15 105.4 L33.6 104.7 Q36.25 104.7 39.0 107.55 41.75 110.45 41.75 113.2 41.75 119.45 38.65 123.45 35.8 127.15 31.85 127.15 29.15 127.15 27.3 126.0 24.8 124.4 24.8 121.05 24.8 112.8 29.15 107.95 30.5 106.4 32.15 105.4" fill="#48250b" fill-rule="evenodd" stroke="none"/>
    <path d="M51.4 76.15 L49.75 73.7 50.1 72.15 Q50.15 71.45 49.8 70.4 52.65 52.5 56.5 49.3 L57.1 49.95 Q57.7 50.7 57.7 51.3 57.7 54.9 55.55 61.25 L53.4 66.9 53.8 69.25 54.2 71.6 54.0 74.3 53.25 76.3 52.4 76.1 51.4 76.15 M24.15 91.35 L20.7 92.45 Q20.45 90.75 13.7 76.15 L14.1 74.55 14.45 72.95 12.45 70.45 Q10.4 67.6 10.4 65.25 10.4 64.75 11.25 62.6 L12.1 59.9 Q12.1 58.9 10.6 57.75 11.9 57.5 11.9 55.3 L11.9 54.95 18.15 60.2 Q26.65 66.9 26.65 67.35 L26.45 68.3 26.25 68.7 24.95 68.75 Q24.2 68.75 20.35 66.7 16.5 64.65 15.55 64.65 L14.75 64.8 14.65 64.95 14.2 66.2 Q14.1 68.4 16.45 69.65 18.85 70.9 18.85 71.6 L17.1 76.4 Q17.1 79.2 19.45 79.7 L19.95 79.85 Q19.8 80.2 19.8 80.8 L20.0 82.25 Q20.4 83.7 21.5 83.85 L21.4 84.2 21.0 86.2 22.3 88.1 Q23.7 90.05 24.15 91.35 M8.05 55.95 Q6.65 54.5 6.65 52.35 6.65 51.95 7.35 49.75 L8.05 47.55 7.5 45.2 6.9 43.3 Q6.9 41.55 8.65 35.65 L10.4 29.15 Q10.4 27.4 11.7 25.85 L15.05 22.55 13.3 17.9 Q29.65 6.1 34.1 6.1 L37.15 6.2 Q36.75 6.8 36.75 8.2 L36.8 8.55 Q30.95 9.3 23.15 17.55 L21.3 19.6 21.3 19.5 Q21.3 18.2 20.05 17.9 18.8 17.65 18.8 19.0 L19.05 20.65 19.45 20.9 20.0 21.0 20.1 21.0 Q14.45 27.75 14.45 32.1 L14.85 33.95 15.25 35.75 14.7 37.05 13.6 36.65 Q11.4 36.15 11.4 38.3 11.4 38.8 12.05 40.05 L12.9 41.2 12.45 42.15 Q9.6 49.05 9.6 52.0 9.6 52.55 10.7 53.8 L10.0 53.6 Q8.05 53.25 8.05 55.8 L8.05 55.95 M38.95 6.3 L39.55 6.3 39.3 7.15 38.95 6.3 M41.35 95.75 Q44.35 92.15 46.45 88.15 48.2 84.85 48.2 83.85 L51.65 85.95 50.0 88.2 Q48.0 90.9 46.2 94.35 L46.05 95.15 Q48.15 95.05 50.05 93.35 L51.65 91.45 Q53.2 93.15 53.2 94.25 53.2 96.5 51.25 97.4 50.0 98.0 48.3 98.0 44.5 98.0 41.35 95.75 M46.55 133.45 L44.7 143.2 45.8 146.15 44.95 148.1 Q44.05 150.35 44.05 153.05 L45.05 158.2 Q46.15 163.8 46.45 167.1 46.4 166.95 46.15 166.9 48.15 172.95 44.05 179.4 40.35 185.25 36.7 185.25 34.7 185.25 29.45 179.5 24.6 174.2 24.6 173.65 L26.25 170.2 Q24.75 167.0 23.8 166.35 L26.65 165.35 Q29.95 167.85 29.95 168.6 L29.45 170.85 Q28.95 172.6 28.95 173.1 28.95 175.55 30.9 177.05 32.95 178.65 36.45 178.65 40.6 178.65 42.3 173.8 43.5 170.35 43.5 163.9 L43.1 159.4 43.5 158.9 44.0 157.7 Q44.0 156.05 42.5 155.7 41.95 152.1 41.95 150.55 L42.35 148.7 42.75 146.8 41.75 145.05 Q40.75 143.0 40.75 140.95 L44.15 133.0 46.75 130.5 Q46.4 131.05 46.4 132.05 L46.4 133.1 46.55 133.45 M28.15 114.15 L26.6 120.35 Q26.6 123.15 27.95 123.9 28.95 124.45 33.05 125.55 30.9 126.2 28.75 125.1 26.3 123.8 26.3 121.05 L28.15 114.15" fill="#66340f" fill-rule="evenodd" stroke="none"/>
    <path d="M42.3 26.4 L43.25 28.35 44.1 30.35 42.3 26.4 M42.8 35.9 Q42.35 37.15 40.95 38.6 39.4 40.2 37.9 40.7 38.2 39.15 39.55 38.1 L42.8 35.9 M49.75 73.7 L49.8 70.4 Q50.15 71.45 50.1 72.15 L49.75 73.7 M38.05 9.4 L36.15 12.05 32.85 14.6 Q30.2 14.6 28.35 15.9 26.5 17.2 26.5 19.0 23.25 20.45 20.95 25.05 18.5 29.95 18.5 35.85 L18.75 39.35 Q17.6 48.05 19.9 53.2 21.9 57.65 26.2 59.05 L26.3 59.3 26.8 61.1 27.6 63.05 29.4 72.2 Q27.25 72.05 25.2 72.8 22.95 73.7 22.95 75.15 L25.0 81.3 27.3 88.9 24.15 91.35 Q23.7 90.05 22.3 88.1 L21.0 86.2 21.4 84.2 21.5 83.85 21.75 83.85 Q23.25 83.85 23.25 81.5 23.25 79.6 21.55 79.2 20.3 78.95 19.95 79.85 L19.45 79.7 Q17.1 79.2 17.1 76.4 L18.85 71.6 Q18.85 70.9 16.45 69.65 14.1 68.4 14.2 66.2 L14.65 64.95 14.75 64.8 15.55 64.65 Q16.5 64.65 20.35 66.7 24.2 68.75 24.95 68.75 L26.25 68.7 26.45 68.3 26.65 67.35 Q26.65 66.9 18.15 60.2 L11.9 54.95 Q11.7 54.1 10.7 53.8 9.6 52.55 9.6 52.0 9.6 49.05 12.45 42.15 L12.9 41.2 Q13.35 41.6 13.85 41.6 15.25 41.6 15.25 40.3 L15.5 39.55 15.75 38.8 Q15.75 37.65 14.7 37.05 L15.25 35.75 14.85 33.95 14.45 32.1 Q14.45 27.75 20.1 21.0 21.25 20.95 21.3 19.6 L23.15 17.55 Q30.95 9.3 36.8 8.55 L36.85 8.85 Q37.1 9.4 38.0 9.4 L38.05 9.4 M14.85 43.6 Q13.85 43.6 13.15 44.85 12.4 46.1 12.4 47.9 12.4 49.7 13.15 50.95 13.85 52.2 14.85 52.2 15.85 52.2 16.6 50.95 17.3 49.7 17.3 47.9 17.3 46.1 16.6 44.85 15.85 43.6 14.85 43.6 M25.75 64.3 Q27.0 64.3 27.0 62.5 27.0 60.7 25.5 60.8 24.0 60.9 24.0 62.5 L24.35 63.4 Q24.85 64.3 25.75 64.3 M48.2 83.85 Q48.2 84.85 46.45 88.15 44.35 92.15 41.35 95.75 41.35 90.8 43.35 87.35 45.35 83.85 48.2 83.85 M26.65 165.35 L30.9 164.4 Q33.8 163.4 34.65 162.35 32.75 166.9 32.75 167.55 32.75 170.85 34.75 172.9 L34.85 173.0 Q34.5 173.45 34.5 174.4 34.5 176.8 36.6 176.8 38.0 176.8 38.0 175.5 L37.95 174.45 Q39.45 174.15 39.9 171.0 40.25 168.9 40.25 163.0 L40.2 159.2 Q40.65 159.8 41.85 159.8 42.55 159.8 43.1 159.4 L43.5 163.9 Q43.5 170.35 42.3 173.8 40.6 178.65 36.45 178.65 32.95 178.65 30.9 177.05 28.95 175.55 28.95 173.1 28.95 172.6 29.45 170.85 L29.95 168.6 Q29.95 167.85 26.65 165.35 M38.3 150.05 Q39.4 144.85 40.35 141.4 42.1 135.05 44.15 133.0 L40.75 140.95 Q40.75 143.0 41.75 145.05 L42.75 146.8 42.35 148.7 41.95 150.55 Q41.95 152.1 42.5 155.7 L42.0 155.6 Q40.45 155.45 40.1 156.85 L40.05 156.1 Q39.65 151.65 38.3 150.05 M28.15 114.15 Q28.15 111.35 30.65 109.4 33.15 107.4 36.7 107.4 L33.4 112.45 Q32.0 114.45 31.9 118.45 L31.15 118.25 Q29.25 117.95 29.25 119.9 L29.35 121.05 Q29.7 122.3 31.1 122.3 32.35 122.3 32.75 121.75 L32.95 121.25 Q34.15 122.55 36.45 123.45 L33.05 125.55 Q28.95 124.45 27.95 123.9 26.6 123.15 26.6 120.35 L28.15 114.15" fill="#874514" fill-rule="evenodd" stroke="none"/>
    <path d="M44.1 30.35 Q44.1 31.3 43.5 33.55 L42.8 35.9 39.55 38.1 Q38.2 39.15 37.9 40.7 L35.8 41.0 Q35.8 37.9 33.7 35.75 L32.7 34.85 32.75 34.75 33.0 33.5 Q33.0 31.5 31.15 31.25 29.25 30.95 29.25 32.9 L29.3 33.6 28.65 33.55 30.15 28.8 Q32.85 30.55 34.1 31.15 35.45 31.85 36.4 31.85 37.7 31.85 38.55 30.9 39.55 29.8 39.55 27.6 39.55 26.5 38.7 24.9 42.15 26.2 42.3 26.4 L44.1 30.35 M32.85 14.6 L26.5 19.0 Q26.5 17.2 28.35 15.9 30.2 14.6 32.85 14.6 M18.75 39.35 Q19.65 43.45 20.75 46.05 L26.2 59.05 Q21.9 57.65 19.9 53.2 17.6 48.05 18.75 39.35 M26.3 59.3 L27.6 63.05 26.8 61.1 26.3 59.3 M29.4 72.2 L29.7 76.4 Q28.2 80.9 28.2 81.8 28.2 82.4 28.55 83.8 L29.05 85.65 27.3 88.9 25.0 81.3 22.95 75.15 Q22.95 73.7 25.2 72.8 27.25 72.05 29.4 72.2 M14.85 43.6 Q15.85 43.6 16.6 44.85 17.3 46.1 17.3 47.9 17.3 49.7 16.6 50.95 15.85 52.2 14.85 52.2 13.85 52.2 13.15 50.95 12.4 49.7 12.4 47.9 12.4 46.1 13.15 44.85 13.85 43.6 14.85 43.6 M34.65 162.35 Q35.45 161.4 36.9 156.55 38.35 151.7 38.3 150.05 39.65 151.65 40.05 156.1 L40.1 156.85 40.0 157.8 40.05 158.85 40.2 159.2 40.25 163.0 Q40.25 168.9 39.9 171.0 39.45 174.15 37.95 174.45 37.65 172.65 36.25 172.45 35.25 172.3 34.85 173.0 L34.75 172.9 Q32.75 170.85 32.75 167.55 32.75 166.9 34.65 162.35 M36.45 123.45 Q34.15 122.55 32.95 121.25 L33.0 120.5 Q33.0 118.95 31.9 118.45 32.0 114.45 33.4 112.45 L36.7 107.4 37.5 108.15 Q36.7 110.05 35.35 115.75 35.35 116.9 36.15 119.55 36.85 121.9 37.2 122.45 L36.45 123.45 M37.6 164.5 Q37.2 163.8 36.65 163.8 36.1 163.8 35.7 164.5 35.3 165.2 35.3 166.15 35.3 167.1 35.7 167.8 36.1 168.5 36.65 168.5 37.2 168.5 37.6 167.8 38.0 167.1 38.0 166.15 38.0 165.2 37.6 164.5" fill="#a8561a" fill-rule="evenodd" stroke="none"/>
    <path d="M35.8 41.0 Q32.85 41.0 30.75 38.85 28.65 36.65 28.65 33.55 L29.3 33.6 29.35 34.05 Q29.7 35.3 31.1 35.3 32.25 35.3 32.7 34.85 L33.7 35.75 Q35.8 37.9 35.8 41.0 M30.15 28.8 Q30.75 27.4 33.1 26.1 35.9 24.55 38.7 24.9 39.55 26.5 39.55 27.6 39.55 29.8 38.55 30.9 37.7 31.85 36.4 31.85 35.45 31.85 34.1 31.15 32.85 30.55 30.15 28.8 M29.7 76.4 L29.55 81.6 29.05 85.65 28.55 83.8 Q28.2 82.4 28.2 81.8 28.2 80.9 29.7 76.4 M37.5 108.15 Q38.35 109.25 39.25 111.5 40.05 113.6 40.05 114.5 40.05 115.5 37.2 122.45 36.85 121.9 36.15 119.55 35.35 116.9 35.35 115.75 36.7 110.05 37.5 108.15 M37.6 164.5 Q38.0 165.2 38.0 166.15 38.0 167.1 37.6 167.8 37.2 168.5 36.65 168.5 36.1 168.5 35.7 167.8 35.3 167.1 35.3 166.15 35.3 165.2 35.7 164.5 36.1 163.8 36.65 163.8 37.2 163.8 37.6 164.5" fill="#cc6920" fill-rule="evenodd" stroke="none"/>
    <path d="M61.9 53.85 L62.2 57.25 62.2 57.75 61.85 57.8 Q60.95 57.8 60.5 56.9 L60.25 56.0 Q60.25 53.95 61.9 53.85 M52.8 79.5 L50.6 77.6 50.5 77.5 Q50.5 76.4 51.4 76.15 L52.4 76.1 53.25 76.3 Q54.25 76.75 54.25 78.15 54.25 79.5 52.8 79.5 M39.3 7.15 L39.35 8.1 Q39.35 9.4 38.05 9.4 L38.0 9.4 Q37.1 9.4 36.85 8.85 L36.8 8.55 36.75 8.2 Q36.75 6.8 37.15 6.2 37.5 5.75 38.05 5.8 38.6 5.85 38.95 6.3 L39.3 7.15 M10.6 57.75 L10.25 57.75 Q9.5 57.75 8.75 57.1 L8.05 55.95 8.05 55.8 Q8.05 53.25 10.0 53.6 L10.7 53.8 Q11.7 54.1 11.9 54.95 L11.9 55.3 Q11.9 57.5 10.6 57.75 M21.3 19.6 Q21.25 20.95 20.1 21.0 L20.0 21.0 19.45 20.9 19.05 20.65 18.8 19.0 Q18.8 17.65 20.05 17.9 21.3 18.2 21.3 19.5 L21.3 19.6 M14.7 37.05 Q15.75 37.65 15.75 38.8 L15.5 39.55 15.25 40.3 Q15.25 41.6 13.85 41.6 13.35 41.6 12.9 41.2 L12.05 40.05 Q11.4 38.8 11.4 38.3 11.4 36.15 13.6 36.65 L14.7 37.05 M19.95 79.85 Q20.3 78.95 21.55 79.2 23.25 79.6 23.25 81.5 23.25 83.85 21.75 83.85 L21.5 83.85 Q20.4 83.7 20.0 82.25 L19.8 80.8 Q19.8 80.2 19.95 79.85 M29.3 33.6 L29.25 32.9 Q29.25 30.95 31.15 31.25 33.0 31.5 33.0 33.5 L32.75 34.75 32.7 34.85 Q32.25 35.3 31.1 35.3 29.7 35.3 29.35 34.05 L29.3 33.6 M25.75 64.3 Q24.85 64.3 24.35 63.4 L24.0 62.5 Q24.0 60.9 25.5 60.8 27.0 60.7 27.0 62.5 27.0 64.3 25.75 64.3 M21.95 170.85 L21.05 169.75 Q20.15 168.95 19.85 168.2 L19.8 167.8 19.9 167.05 Q20.45 166.65 21.6 166.2 23.25 166.6 23.25 168.5 23.25 170.7 21.95 170.85 M46.75 130.5 Q47.2 129.6 48.35 129.6 50.25 129.65 50.25 131.65 50.25 132.55 49.75 133.25 49.1 134.1 48.0 134.1 46.95 134.1 46.55 133.45 L46.4 133.1 46.4 132.05 Q46.4 131.05 46.75 130.5 M32.95 121.25 L32.75 121.75 Q32.35 122.3 31.1 122.3 29.7 122.3 29.35 121.05 L29.25 119.9 Q29.25 117.95 31.15 118.25 L31.9 118.45 Q33.0 118.95 33.0 120.5 L32.95 121.25 M40.2 159.2 L40.05 158.85 40.0 157.8 40.1 156.85 Q40.45 155.45 42.0 155.6 L42.5 155.7 Q44.0 156.05 44.0 157.7 L43.5 158.9 43.1 159.4 Q42.55 159.8 41.85 159.8 40.65 159.8 40.2 159.2 M37.95 174.45 L38.0 175.5 Q38.0 176.8 36.6 176.8 34.5 176.8 34.5 174.4 34.5 173.45 34.85 173.0 35.25 172.3 36.25 172.45 37.65 172.65 37.95 174.45" fill="#271d16" fill-rule="evenodd" stroke="none"/>
  </g>
</svg>
