<?xml version="1.0" encoding="UTF-8" standalone="no"?>
<svg xmlns:ffdec="https://www.free-decompiler.com/flash" xmlns:xlink="http://www.w3.org/1999/xlink" ffdec:objectType="shape" height="20.2px" width="33.7px" xmlns="http://www.w3.org/2000/svg">
  <g transform="matrix(1.0, 0.0, 0.0, 1.0, 10.3, 8.55)">
    <path d="M-4.0 -5.3 Q-2.75 -6.9 -0.65 -7.4 -0.65 -7.3 -1.3 -7.0 -1.9 -6.6 -1.9 -6.0 -1.9 -5.5 -1.45 -5.3 L0.4 -4.55 Q2.35 -3.7 6.45 -3.65 L11.95 -4.3 Q14.5 -4.9 15.2 -5.5 15.2 -6.45 14.05 -7.1 L13.2 -7.5 Q14.85 -7.15 15.85 -6.5 L17.5 -5.0 Q16.7 -4.4 15.3 -3.7 L12.6 -3.05 Q6.6 -1.65 -0.5 -2.95 L-2.75 -3.5 -2.8 -3.5 -2.8 -3.55 -3.2 -3.8 Q-3.95 -4.45 -4.0 -5.3" fill="#f7f7f7" fill-rule="evenodd" stroke="none"/>
    <path d="M-3.2 -3.8 L-2.8 -3.55 -2.8 -3.5 -3.2 -3.8" fill="#fadf27" fill-rule="evenodd" stroke="none"/>
    <path d="M1.1 -5.1 L3.75 -4.6 6.0 -4.5 10.3 -4.95 11.4 -5.1 12.7 -8.55 13.4 -8.5 Q15.25 -8.3 17.55 -6.55 L20.35 -1.65 22.75 2.8 Q23.4 4.0 23.4 4.75 23.4 6.7 20.2 8.5 15.45 11.25 11.35 11.5 L4.15 11.65 -3.05 10.85 Q-7.15 10.05 -8.75 8.2 -10.3 6.4 -10.3 5.5 -10.3 4.7 -8.0 0.15 L-5.7 -4.65 Q-5.25 -6.4 -3.85 -7.25 -2.4 -8.15 1.05 -8.45 L1.15 -6.7 Q-0.45 -6.3 -0.85 -5.9 L1.1 -5.1 M17.5 -5.0 L15.85 -6.5 Q14.85 -7.15 13.2 -7.5 L14.05 -7.1 Q15.2 -6.45 15.2 -5.5 14.5 -4.9 11.95 -4.3 L6.45 -3.65 Q2.35 -3.7 0.4 -4.55 L-1.45 -5.3 Q-1.9 -5.5 -1.9 -6.0 -1.9 -6.6 -1.3 -7.0 -0.65 -7.3 -0.65 -7.4 -2.75 -6.9 -4.0 -5.3 L-9.2 5.55 -9.2 5.75 Q-8.6 8.6 -3.5 9.7 L4.9 10.85 Q14.0 10.9 18.05 8.75 22.2 6.5 22.2 4.8 22.2 4.15 21.4 2.6 L17.5 -5.0 M12.6 -5.3 Q13.4 -5.45 14.1 -5.85 L12.9 -6.45 12.6 -5.3" fill="#4f4f4f" fill-rule="evenodd" stroke="none"/>
    <path d="M1.15 -6.7 L1.1 -5.1 -0.85 -5.9 Q-0.45 -6.3 1.15 -6.7 M12.6 -5.3 L12.9 -6.45 14.1 -5.85 Q13.4 -5.45 12.6 -5.3" fill="#989898" fill-rule="evenodd" stroke="none"/>
    <path d="M-0.5 -2.95 Q6.6 -1.65 12.6 -3.05 16.15 3.75 16.3 4.85 16.5 5.9 11.55 7.15 6.6 8.35 -2.55 6.0 -2.2 5.1 -0.5 -2.95" fill="#e9e9e9" fill-rule="evenodd" stroke="none"/>
    <path d="M-2.8 -3.5 L-2.75 -3.5 -0.5 -2.95 Q-2.2 5.1 -2.55 6.0 6.6 8.35 11.55 7.15 16.5 5.9 16.3 4.85 16.15 3.75 12.6 -3.05 L15.3 -3.7 17.2 0.85 18.85 4.95 18.35 6.5 Q17.8 7.4 15.85 8.0 L7.25 9.3 Q0.65 9.95 -7.35 6.35 -4.65 1.95 -2.8 -3.5" fill="#d4d4d4" fill-rule="evenodd" stroke="none"/>
    <path d="M17.5 -5.0 L21.4 2.6 Q22.2 4.15 22.2 4.8 22.2 6.5 18.05 8.75 14.0 10.9 4.9 10.85 L-3.5 9.7 Q-8.6 8.6 -9.2 5.75 L-9.2 5.55 -4.0 -5.3 Q-3.95 -4.45 -3.2 -3.8 L-2.8 -3.5 Q-4.65 1.95 -7.35 6.35 0.65 9.95 7.25 9.3 L15.85 8.0 Q17.8 7.4 18.35 6.5 L18.85 4.95 17.2 0.85 15.3 -3.7 Q16.7 -4.4 17.5 -5.0" fill="#bfbfbf" fill-rule="evenodd" stroke="none"/>
  </g>
</svg>
