<?xml version="1.0" encoding="UTF-8" standalone="no"?>
<svg xmlns:ffdec="https://www.free-decompiler.com/flash" xmlns:xlink="http://www.w3.org/1999/xlink" ffdec:objectType="shape" height="93.55px" width="36.5px" xmlns="http://www.w3.org/2000/svg">
  <g transform="matrix(1.0, 0.0, 0.0, 1.0, 0.0, 0.0)">
    <path d="M22.0 1.3 L22.55 2.0 24.45 13.55 Q32.05 15.4 34.6 18.0 36.5 19.9 36.5 23.75 L36.45 26.95 Q36.2 28.55 35.15 29.9 L35.15 77.1 35.25 77.3 36.1 79.0 Q36.5 80.35 36.5 82.95 36.5 88.1 30.8 91.0 25.8 93.55 18.3 93.55 10.55 93.55 5.65 91.0 0.0 88.05 0.0 82.4 L0.1 79.85 Q0.4 78.15 1.3 77.1 L1.3 29.95 Q0.0 27.25 0.0 24.15 0.0 19.95 2.1 17.95 4.55 15.65 12.15 13.55 L14.1 2.0 14.3 1.65 Q14.55 1.25 14.9 1.0 16.35 0.0 18.25 0.0 19.9 0.0 21.7 1.0 L22.0 1.3 M22.75 9.05 L21.5 2.3 18.55 1.2 Q17.9 1.2 16.55 1.75 15.45 2.2 15.0 2.55 L13.0 14.45 Q6.0 16.05 3.15 18.65 1.05 20.55 1.05 23.45 L1.05 25.8 Q1.0 27.0 2.45 30.35 L2.45 77.15 Q1.0 80.65 1.0 81.8 1.0 86.9 5.7 89.85 10.2 92.7 17.5 92.7 26.5 92.7 31.1 89.85 35.5 87.15 35.5 82.15 L35.25 79.95 34.4 77.5 34.4 77.3 34.0 76.8 34.0 30.6 Q34.35 29.25 35.05 28.45 L35.5 26.65 Q35.75 25.85 35.65 23.85 35.55 21.8 34.55 20.35 33.75 19.2 31.25 17.15 29.85 16.05 25.4 14.9 25.0 14.8 23.7 13.95 L22.75 9.05 M19.35 2.05 L19.8 2.55 19.35 3.05 18.25 3.25 17.15 3.05 16.7 2.55 Q16.7 2.25 17.15 2.05 L18.25 1.85 19.35 2.05" fill="#000000" fill-rule="evenodd" stroke="none"/>
    <path d="M34.05 78.25 L34.05 78.2 34.15 78.25 34.05 78.25" fill="#7e2616" fill-rule="evenodd" stroke="none"/>
    <path d="M10.45 48.9 L10.65 48.75 10.75 48.7 11.8 47.95 Q12.75 47.35 13.75 47.0 L15.4 46.5 15.95 46.4 15.95 71.3 13.8 70.7 13.75 70.7 12.9 70.35 12.55 70.15 12.0 69.85 11.35 69.4 10.7 68.95 10.65 68.9 10.45 68.75 10.45 48.9 M21.3 46.55 Q22.55 46.8 23.7 47.35 L24.5 47.8 25.3 48.25 25.8 48.6 26.2 48.95 26.7 49.35 26.7 68.3 26.05 68.9 25.35 69.4 25.3 69.45 24.3 70.05 23.25 70.55 21.3 71.2 21.3 46.55" fill="#ebebeb" fill-rule="evenodd" stroke="none"/>
    <path d="M26.7 49.35 L27.25 49.85 27.3 49.9 27.75 50.4 27.8 50.45 Q29.3 52.15 30.1 54.2 L30.25 54.55 30.4 54.95 30.45 55.15 30.65 56.0 30.95 58.7 30.95 58.85 30.95 59.0 30.75 61.3 30.45 62.6 30.4 62.85 Q29.6 65.2 27.85 67.15 L27.8 67.25 27.35 67.7 27.3 67.75 27.25 67.75 26.7 68.3 26.7 49.35 M10.45 68.75 L9.35 67.75 9.1 67.5 9.05 67.45 8.6 66.95 8.45 66.75 8.0 66.2 7.95 66.15 7.5 65.45 6.45 63.3 Q5.7 61.25 5.7 58.85 5.75 55.65 6.95 53.25 L7.95 51.55 9.0 50.25 9.25 50.0 9.3 49.9 9.35 49.85 10.45 48.9 10.45 68.75" fill="#dadada" fill-rule="evenodd" stroke="none"/>
    <path d="M16.1 3.4 L16.8 3.8 17.75 3.95 16.85 21.85 14.75 21.4 13.75 20.95 16.1 3.4 M19.1 3.9 L20.7 3.4 22.55 21.1 19.2 21.9 19.1 3.9 M34.25 20.15 Q35.05 23.0 34.55 25.0 L27.6 25.0 29.0 24.95 23.65 24.95 Q24.75 24.2 25.15 23.25 25.5 22.3 25.4 20.4 L34.25 20.15 M28.8 32.0 L26.5 32.9 21.6 33.65 21.4 30.6 28.55 29.1 28.8 32.0 M16.9 33.75 L9.3 32.6 9.2 29.55 17.0 30.8 16.9 33.75 M1.95 24.95 L2.1 22.3 2.65 19.75 11.1 19.4 Q11.2 22.3 11.5 23.15 11.75 23.9 12.9 24.95 L1.95 24.95 M22.1 22.35 L22.2 25.05 20.3 25.5 17.7 25.65 17.5 22.9 19.8 22.85 22.1 22.35 M15.2 25.3 L15.35 22.6 16.55 22.8 16.6 24.15 16.85 25.55 15.2 25.3 M27.75 48.9 L25.3 47.05 Q25.55 39.75 23.9 38.15 22.5 36.7 15.6 36.7 14.5 36.7 14.05 38.45 13.45 40.65 13.75 45.95 11.2 46.95 9.75 48.15 8.9 48.8 7.95 49.95 7.4 41.1 9.2 37.7 10.4 35.35 13.05 35.35 L27.0 35.85 Q28.0 36.2 28.05 37.1 L27.9 39.65 27.8 42.5 Q27.7 45.35 27.75 48.9 M27.85 86.15 L25.55 86.85 Q25.25 83.8 25.3 70.65 L27.8 68.7 27.85 86.15 M13.7 87.4 L9.65 86.4 7.95 85.85 7.95 67.7 10.8 69.85 13.75 71.75 13.7 87.4 M1.5 81.35 L2.45 81.15 Q3.5 83.85 5.3 85.15 7.15 86.55 10.95 87.35 L8.85 87.7 4.5 85.65 Q2.25 84.05 1.5 81.35 M29.6 85.95 Q33.55 84.8 34.05 80.85 L35.0 80.85 35.0 80.9 35.0 81.15 35.0 81.3 Q34.8 82.6 33.6 84.4 L32.35 85.25 29.4 87.0 29.6 85.95 M28.3 90.45 L25.5 91.3 25.55 88.35 28.3 87.25 28.3 90.45 M16.15 92.0 L12.3 91.5 10.2 91.1 10.25 88.1 15.95 89.0 16.15 92.0" fill="#e7deb2" fill-rule="evenodd" stroke="none"/>
    <path d="M17.75 3.95 L18.9 3.95 19.1 3.9 19.2 21.9 16.85 21.85 17.75 3.95 M21.6 33.65 L16.9 33.75 17.0 30.8 21.4 30.6 21.6 33.65 M12.9 24.95 L15.65 25.65 18.2 26.0 20.65 25.7 23.65 24.95 29.0 24.95 27.6 25.0 34.55 25.0 31.35 27.8 30.6 28.2 25.2 29.3 19.4 29.7 12.8 29.2 5.4 27.95 4.3 27.25 1.95 24.95 12.9 24.95 M16.85 25.55 L16.6 24.15 16.55 22.8 17.5 22.9 17.7 25.65 16.85 25.55 M25.3 47.05 L22.6 46.0 Q20.7 45.2 18.3 45.2 L13.75 45.95 Q13.45 40.65 14.05 38.45 14.5 36.7 15.6 36.7 22.5 36.7 23.9 38.15 25.55 39.75 25.3 47.05 M25.55 86.85 L13.7 87.4 13.75 71.75 16.05 72.25 18.3 72.5 22.6 71.9 25.3 70.65 Q25.25 83.8 25.55 86.85 M25.5 91.3 L20.8 92.0 16.15 92.0 15.95 89.0 25.55 88.35 25.5 91.3" fill="#f1ecd3" fill-rule="evenodd" stroke="none"/>
    <path d="M16.1 3.4 L15.45 3.05 15.6 2.6 Q18.3 0.45 21.05 2.6 L21.15 3.1 20.7 3.4 19.1 3.9 18.9 3.95 17.75 3.95 16.8 3.8 16.1 3.4 M24.9 20.45 L23.55 21.7 22.1 22.35 19.8 22.85 17.5 22.9 16.55 22.8 15.35 22.6 14.35 22.3 13.0 21.7 11.65 20.5 11.6 20.45 Q11.3 19.5 11.85 18.75 L12.2 18.3 Q12.0 19.05 12.85 20.4 13.75 21.9 15.6 22.15 L21.9 22.0 22.6 21.6 Q24.6 20.9 24.35 19.0 L24.35 18.3 24.75 19.75 24.9 20.45 M19.35 2.05 L18.25 1.85 17.15 2.05 Q16.7 2.25 16.7 2.55 L17.15 3.05 18.25 3.25 19.35 3.05 19.8 2.55 19.35 2.05 M5.4 27.95 L12.8 29.2 19.4 29.7 25.2 29.3 30.6 28.2 28.55 29.1 21.4 30.6 17.0 30.8 9.2 29.55 5.4 27.95 M10.95 87.35 L17.65 88.15 24.45 87.35 Q28.0 86.65 29.6 85.95 L29.4 87.0 28.3 87.25 25.55 88.35 15.95 89.0 10.25 88.1 8.85 87.7 10.95 87.35" fill="#fbf9f0" fill-rule="evenodd" stroke="none"/>
    <path d="M21.15 3.1 L21.05 2.6 Q18.3 0.45 15.6 2.6 L15.45 3.05 16.1 3.4 15.25 3.65 12.9 18.25 Q12.85 19.8 13.75 20.95 L14.75 21.4 16.85 21.85 19.2 21.9 22.55 21.1 Q23.6 19.75 23.7 18.35 L21.15 3.1 M22.75 9.05 L23.7 13.95 Q25.0 14.8 25.4 14.9 29.85 16.05 31.25 17.15 33.75 19.2 34.55 20.35 35.55 21.8 35.65 23.85 35.75 25.85 35.5 26.65 L35.05 28.45 Q34.35 29.25 34.0 30.6 L34.0 76.8 34.4 77.3 34.4 77.5 35.25 79.95 35.5 82.15 Q35.5 87.15 31.1 89.85 26.5 92.7 17.5 92.7 10.2 92.7 5.7 89.85 1.0 86.9 1.0 81.8 1.0 80.65 2.45 77.15 L2.45 30.35 Q1.0 27.0 1.05 25.8 L1.05 23.45 Q1.05 20.55 3.15 18.65 6.0 16.05 13.0 14.45 L15.0 2.55 Q15.45 2.2 16.55 1.75 17.9 1.2 18.55 1.2 L21.5 2.3 22.75 9.05 M32.2 18.15 Q29.05 16.6 26.7 15.85 L24.1 15.2 24.75 18.0 Q25.1 18.35 25.4 20.4 25.5 22.3 25.15 23.25 24.75 24.2 23.65 24.95 L20.65 25.7 18.2 26.0 15.65 25.65 12.9 24.95 Q11.75 23.9 11.5 23.15 11.2 22.3 11.1 19.4 L12.5 17.45 12.95 14.95 12.9 14.95 Q10.75 15.4 5.65 17.3 L2.65 19.75 2.1 22.3 1.95 24.95 1.95 27.7 Q2.4 29.15 4.35 30.2 L9.3 32.6 16.9 33.75 21.6 33.65 26.5 32.9 28.8 32.0 30.05 31.4 Q30.6 31.1 31.3 30.7 34.2 29.15 34.55 27.6 L34.55 25.0 Q35.05 23.0 34.25 20.15 L32.2 18.15 M23.7 24.3 L24.85 22.6 24.9 20.45 24.75 19.75 24.35 18.3 24.35 19.0 Q24.6 20.9 22.6 21.6 L21.9 22.0 15.6 22.15 Q13.75 21.9 12.85 20.4 12.0 19.05 12.2 18.3 L11.85 18.75 Q11.3 19.5 11.6 20.45 L11.65 20.5 11.75 22.85 13.0 24.45 15.2 25.3 16.85 25.55 17.7 25.65 20.3 25.5 22.2 25.05 23.7 24.3 M27.85 86.15 Q32.9 83.55 33.25 80.1 L33.25 31.1 Q30.35 33.25 24.75 33.95 19.0 34.9 12.05 33.95 6.55 33.2 3.15 31.25 L3.15 81.0 Q3.75 83.25 7.95 85.85 L9.65 86.4 13.7 87.4 25.55 86.85 27.85 86.15 M2.45 81.15 L2.45 78.1 2.2 79.1 Q2.05 80.3 1.5 81.35 L1.75 84.2 Q2.55 86.5 4.6 88.65 6.8 89.9 10.2 91.1 L12.3 91.5 16.15 92.0 20.8 92.0 25.5 91.3 28.3 90.45 Q30.8 89.35 32.95 87.9 34.2 86.15 34.85 84.05 L35.0 81.3 35.0 81.15 35.0 80.9 35.0 80.85 Q35.0 79.55 34.15 78.25 L34.05 78.2 34.05 78.25 34.05 80.85 Q33.55 84.8 29.6 85.95 28.0 86.65 24.45 87.35 L17.65 88.15 10.95 87.35 Q7.15 86.55 5.3 85.15 3.5 83.85 2.45 81.15" fill="#62561e" fill-rule="evenodd" stroke="none"/>
    <path d="M20.7 3.4 L21.15 3.1 23.7 18.35 Q23.6 19.75 22.55 21.1 L20.7 3.4 M13.75 20.95 Q12.85 19.8 12.9 18.25 L15.25 3.65 16.1 3.4 13.75 20.95 M24.75 18.0 L24.1 15.2 26.7 15.85 Q29.05 16.6 32.2 18.15 L24.75 18.0 M34.55 25.0 L34.55 27.6 Q34.2 29.15 31.3 30.7 L31.35 27.8 34.55 25.0 M4.35 30.2 Q2.4 29.15 1.95 27.7 L1.95 24.95 4.3 27.25 4.35 30.2 M5.65 17.3 Q10.75 15.4 12.9 14.95 L12.95 14.95 12.5 17.45 5.65 17.3 M23.7 24.3 L23.55 21.7 24.9 20.45 24.85 22.6 23.7 24.3 M13.0 21.7 L13.0 24.45 11.75 22.85 11.65 20.5 13.0 21.7 M27.75 48.9 L28.75 50.15 30.4 52.4 30.4 36.95 Q30.6 36.0 29.6 34.95 L28.55 34.1 17.55 34.95 9.55 34.65 6.45 34.6 Q5.9 35.2 5.9 39.5 L5.5 54.15 7.95 49.95 Q8.9 48.8 9.75 48.15 11.2 46.95 13.75 45.95 L18.3 45.2 Q20.7 45.2 22.6 46.0 L25.3 47.05 27.75 48.9 M15.95 46.4 L15.4 46.5 13.75 47.0 Q12.75 47.35 11.8 47.95 L10.75 48.7 10.65 48.75 10.45 48.9 9.35 49.85 9.3 49.9 9.25 50.0 9.0 50.25 7.95 51.55 6.95 53.25 Q5.75 55.65 5.7 58.85 5.7 61.25 6.45 63.3 L7.5 65.45 7.95 66.15 8.0 66.2 8.45 66.75 8.6 66.95 9.05 67.45 9.1 67.5 9.35 67.75 10.45 68.75 10.65 68.9 10.7 68.95 11.35 69.4 12.0 69.85 12.55 70.15 12.9 70.35 13.75 70.7 13.8 70.7 15.95 71.3 16.8 71.45 16.9 71.45 17.6 71.5 19.25 71.5 20.15 71.4 20.2 71.4 20.8 71.3 21.3 71.2 23.25 70.55 24.3 70.05 25.3 69.45 25.35 69.4 26.05 68.9 26.7 68.3 27.25 67.75 27.3 67.75 27.35 67.7 27.8 67.25 27.85 67.15 Q29.6 65.2 30.4 62.85 L30.45 62.6 30.75 61.3 30.95 59.0 30.95 58.85 30.95 58.7 30.65 56.0 30.45 55.15 30.4 54.95 30.25 54.55 30.1 54.2 Q29.3 52.15 27.8 50.45 L27.75 50.4 27.3 49.9 27.25 49.85 26.7 49.35 26.2 48.95 25.8 48.6 25.3 48.25 24.5 47.8 23.7 47.35 Q22.55 46.8 21.3 46.55 L20.6 46.4 20.15 46.35 19.25 46.25 17.35 46.25 16.75 46.3 15.95 46.4 M7.95 85.85 Q3.75 83.25 3.15 81.0 L3.15 31.25 Q6.55 33.2 12.05 33.95 19.0 34.9 24.75 33.95 30.35 33.25 33.25 31.1 L33.25 80.1 Q32.9 83.55 27.85 86.15 L29.2 85.0 30.15 83.85 30.35 80.65 30.4 65.3 29.5 66.7 27.8 68.7 25.3 70.65 22.6 71.9 18.3 72.5 16.05 72.25 13.75 71.75 10.8 69.85 7.95 67.7 5.5 63.5 5.4 80.65 5.8 82.6 Q6.5 84.65 7.95 85.85 M35.0 81.3 L34.85 84.05 Q34.2 86.15 32.95 87.9 L33.05 86.35 Q33.25 84.75 33.6 84.4 34.8 82.6 35.0 81.3 M4.6 88.65 Q2.55 86.5 1.75 84.2 L1.5 81.35 Q2.25 84.05 4.5 85.65 L4.6 88.65" fill="#9d8c4a" fill-rule="evenodd" stroke="none"/>
    <path d="M32.2 18.15 L34.25 20.15 25.4 20.4 Q25.1 18.35 24.75 18.0 L32.2 18.15 M31.3 30.7 Q30.6 31.1 30.05 31.4 L28.8 32.0 28.55 29.1 30.6 28.2 31.35 27.8 31.3 30.7 M9.3 32.6 L4.35 30.2 4.3 27.25 5.4 27.95 9.2 29.55 9.3 32.6 M2.65 19.75 L5.65 17.3 12.5 17.45 11.1 19.4 2.65 19.75 M23.55 21.7 L23.7 24.3 22.2 25.05 22.1 22.35 23.55 21.7 M13.0 24.45 L13.0 21.7 14.35 22.3 15.35 22.6 15.2 25.3 13.0 24.45 M7.95 49.95 L5.5 54.15 5.9 39.5 Q5.9 35.2 6.45 34.6 L9.55 34.65 17.55 34.95 28.55 34.1 29.6 34.95 Q30.6 36.0 30.4 36.95 L30.4 52.4 28.75 50.15 27.75 48.9 Q27.7 45.35 27.8 42.5 L27.9 39.65 28.05 37.1 Q28.0 36.2 27.0 35.85 L13.05 35.35 Q10.4 35.35 9.2 37.7 7.4 41.1 7.95 49.95 M7.95 85.85 Q6.5 84.65 5.8 82.6 L5.4 80.65 5.5 63.5 7.95 67.7 7.95 85.85 M27.8 68.7 L29.5 66.7 30.4 65.3 30.35 80.65 30.15 83.85 29.2 85.0 27.85 86.15 27.8 68.7 M1.5 81.35 Q2.05 80.3 2.2 79.1 L2.45 78.1 2.45 81.15 1.5 81.35 M34.05 80.85 L34.05 78.25 34.15 78.25 Q35.0 79.55 35.0 80.85 L34.05 80.85 M32.95 87.9 Q30.8 89.35 28.3 90.45 L28.3 87.25 29.4 87.0 32.35 85.25 33.6 84.4 Q33.25 84.75 33.05 86.35 L32.95 87.9 M10.2 91.1 Q6.8 89.9 4.6 88.65 L4.5 85.65 8.85 87.7 10.25 88.1 10.2 91.1" fill="#c2b57e" fill-rule="evenodd" stroke="none"/>
    <path d="M15.95 46.4 L16.75 46.3 17.35 46.25 19.25 46.25 20.15 46.35 20.6 46.4 21.3 46.55 21.3 71.2 20.8 71.3 20.2 71.4 20.15 71.4 19.25 71.5 17.6 71.5 16.9 71.45 16.8 71.45 15.95 71.3 15.95 46.4" fill="#ffffff" fill-rule="evenodd" stroke="none"/>
    <path d="M24.25 54.75 Q24.35 54.65 24.55 54.65 L24.9 54.75 25.0 55.0 24.9 55.25 24.55 55.35 24.25 55.25 24.1 55.0 24.25 54.75 M21.1 53.9 L22.35 54.35 Q22.05 55.95 21.75 56.05 L19.55 55.65 Q20.0 54.65 20.6 54.2 L21.1 53.9 M16.75 56.45 Q16.75 56.2 16.9 56.05 17.0 55.9 17.2 55.9 L17.55 56.05 17.65 56.45 17.55 56.85 17.2 57.0 16.9 56.85 16.75 56.45 M15.9 54.4 L15.65 54.9 14.95 55.1 14.3 54.9 Q14.0 54.7 14.0 54.4 14.0 54.1 14.3 53.9 L14.95 53.7 15.65 53.9 15.9 54.4 M11.15 52.05 Q12.1 55.8 16.25 59.5 L14.4 68.0 Q10.2 63.4 9.8 58.45 L11.15 52.05" fill="#9d8c4a" fill-rule="evenodd" stroke="none"/>
    <path d="M16.85 67.15 L26.7 60.95 28.2 56.45 28.75 55.05 17.0 59.6 15.15 68.25 16.85 67.15 M27.1 61.35 L14.55 69.1 Q10.1 64.35 9.25 58.5 L10.9 51.1 29.35 54.4 27.1 61.35 M11.15 52.05 L9.8 58.45 Q10.2 63.4 14.4 68.0 L16.25 59.5 Q12.1 55.8 11.15 52.05 M16.75 59.15 L28.8 54.75 11.2 51.35 Q12.1 55.55 16.75 59.15" fill="#62561e" fill-rule="evenodd" stroke="none"/>
    <path d="M22.95 59.3 Q22.95 59.05 23.1 58.9 23.25 58.75 23.5 58.75 23.75 58.75 23.9 58.9 L24.05 59.3 23.9 59.7 23.5 59.85 23.1 59.7 22.95 59.3 M25.45 59.1 L26.65 59.3 25.75 60.75 25.0 60.45 25.45 59.1 M22.45 61.9 L22.55 62.15 22.45 62.45 22.2 62.55 21.95 62.45 21.85 62.15 21.95 61.9 Q22.05 61.75 22.2 61.75 L22.45 61.9 M19.0 61.85 L20.05 61.15 20.4 61.05 Q20.5 62.65 19.5 63.4 L19.05 63.3 19.0 61.85 M18.25 64.25 Q18.6 64.25 18.85 64.5 L19.1 65.05 18.85 65.65 18.25 65.85 Q17.9 65.85 17.65 65.65 L17.4 65.05 Q17.4 64.7 17.65 64.5 17.9 64.25 18.25 64.25" fill="#c2b57e" fill-rule="evenodd" stroke="none"/>
    <path d="M21.1 53.9 L20.6 54.2 Q20.0 54.65 19.55 55.65 L21.75 56.05 Q22.05 55.95 22.35 54.35 L21.1 53.9 M24.25 54.75 L24.1 55.0 24.25 55.25 24.55 55.35 24.9 55.25 25.0 55.0 24.9 54.75 24.55 54.65 Q24.35 54.65 24.25 54.75 M28.2 56.45 L17.8 60.7 16.85 67.15 15.15 68.25 17.0 59.6 28.75 55.05 28.2 56.45 M15.9 54.4 L15.65 53.9 14.95 53.7 14.3 53.9 Q14.0 54.1 14.0 54.4 14.0 54.7 14.3 54.9 L14.95 55.1 15.65 54.9 15.9 54.4 M16.75 56.45 L16.9 56.85 17.2 57.0 17.55 56.85 17.65 56.45 17.55 56.05 17.2 55.9 Q17.0 55.9 16.9 56.05 16.75 56.2 16.75 56.45 M16.75 59.15 Q12.1 55.55 11.2 51.35 L28.8 54.75 16.75 59.15" fill="#e7deb2" fill-rule="evenodd" stroke="none"/>
    <path d="M22.95 59.3 L23.1 59.7 23.5 59.85 23.9 59.7 24.05 59.3 23.9 58.9 Q23.75 58.75 23.5 58.75 23.25 58.75 23.1 58.9 22.95 59.05 22.95 59.3 M28.2 56.45 L26.7 60.95 16.85 67.15 17.8 60.7 28.2 56.45 M25.45 59.1 L25.0 60.45 25.75 60.75 26.65 59.3 25.45 59.1 M22.45 61.9 L22.2 61.75 Q22.05 61.75 21.95 61.9 L21.85 62.15 21.95 62.45 22.2 62.55 22.45 62.45 22.55 62.15 22.45 61.9 M19.0 61.85 L19.05 63.3 19.5 63.4 Q20.5 62.65 20.4 61.05 L20.05 61.15 19.0 61.85 M18.25 64.25 Q17.9 64.25 17.65 64.5 17.4 64.7 17.4 65.05 L17.65 65.65 Q17.9 65.85 18.25 65.85 L18.85 65.65 19.1 65.05 18.85 64.5 Q18.6 64.25 18.25 64.25" fill="#f1ecd3" fill-rule="evenodd" stroke="none"/>
  </g>
</svg>
