<?xml version="1.0" encoding="UTF-8" standalone="no"?>
<svg xmlns:ffdec="https://www.free-decompiler.com/flash" xmlns:xlink="http://www.w3.org/1999/xlink" ffdec:objectType="shape" height="61.35px" width="42.85px" xmlns="http://www.w3.org/2000/svg">
  <g transform="matrix(1.0, 0.0, 0.0, 1.0, 13.15, 10.35)">
    <path d="M1.9 -8.85 L5.35 -5.25 24.65 31.5 27.35 36.4 Q29.7 41.25 29.7 44.45 29.7 47.8 26.5 49.65 24.2 51.0 22.1 51.0 20.25 51.0 17.45 49.0 15.4 47.5 13.7 45.65 L13.8 45.65 12.5 44.3 12.6 44.2 11.0 42.3 10.4 41.65 -11.9 4.15 Q-13.15 2.9 -13.15 -0.3 L-12.75 -3.2 Q-12.25 -6.15 -9.55 -8.25 -6.75 -10.35 -3.2 -10.35 0.0 -10.35 1.9 -8.85 M26.15 47.4 L27.25 46.45 Q27.75 45.7 27.75 44.45 27.75 41.75 26.95 40.4 L23.55 35.95 Q15.7 24.95 3.6 -4.3 L1.05 -6.5 -0.95 -8.1 Q-0.95 -8.7 -2.0 -8.6 L-3.85 -8.4 Q-7.4 -8.4 -9.45 -5.45 -11.15 -3.1 -11.15 -0.35 -11.15 1.1 -10.2 3.15 L-6.55 9.25 Q8.95 34.6 8.95 35.6 8.95 37.75 14.65 43.4 20.3 49.0 22.25 49.0 24.2 49.0 25.15 48.35 L26.1 47.45 26.15 47.4" fill="#101010" fill-rule="evenodd" stroke="none"/>
    <path d="M-6.55 9.25 L-10.2 3.15 Q-11.15 1.1 -11.15 -0.35 -11.15 -3.1 -9.45 -5.45 -7.4 -8.4 -3.85 -8.4 L-2.0 -8.6 Q-0.95 -8.7 -0.95 -8.1 L1.05 -6.5 3.6 -4.3 Q15.7 24.95 23.55 35.95 L26.95 40.4 Q27.75 41.75 27.75 44.45 27.75 45.7 27.25 46.45 L26.15 47.4 Q26.15 46.45 24.15 42.3 21.9 37.55 18.85 32.7 L9.35 18.1 Q1.1 6.3 -1.75 6.3 -2.35 6.3 -4.0 7.3 L-6.55 9.25" fill="#232323" fill-rule="evenodd" stroke="none"/>
    <path d="M-6.55 9.25 L-4.0 7.3 Q-2.35 6.3 -1.75 6.3 1.1 6.3 9.35 18.1 L18.85 32.7 Q21.9 37.55 24.15 42.3 26.15 46.45 26.15 47.4 L26.1 47.45 25.15 48.35 Q24.2 49.0 22.25 49.0 20.3 49.0 14.65 43.4 8.95 37.75 8.95 35.6 8.95 34.6 -6.55 9.25" fill="#313131" fill-rule="evenodd" stroke="none"/>
  </g>
</svg>
