<?xml version="1.0" encoding="UTF-8" standalone="no"?>
<svg xmlns:ffdec="https://www.free-decompiler.com/flash" xmlns:xlink="http://www.w3.org/1999/xlink" ffdec:objectType="shape" height="182.75px" width="61.45px" xmlns="http://www.w3.org/2000/svg">
  <g transform="matrix(1.0, 0.0, 0.0, 1.0, -1.35, -5.8)">
    <path d="M54.55 33.1 L52.45 28.85 48.4 21.05 48.8 18.15 49.15 15.2 49.0 14.2 48.8 13.95 48.8 14.2 46.45 25.2 Q46.7 31.35 47.35 32.6 L48.0 33.7 47.6 33.65 46.4 33.9 Q44.85 31.65 44.85 28.0 44.85 21.15 46.7 15.75 47.75 12.75 49.75 8.0 L52.05 10.6 Q54.15 17.35 56.4 20.35 58.65 23.3 58.5 24.9 L58.15 28.3 Q57.9 30.1 59.95 31.3 61.95 32.55 62.1 33.9 62.25 35.25 61.25 37.65 60.2 40.05 60.25 40.4 L61.7 43.4 Q63.1 46.0 62.75 48.6 L62.55 49.15 Q60.8 48.65 58.0 46.3 55.4 44.15 55.0 44.15 54.0 44.15 50.6 39.7 L48.35 36.5 49.15 36.15 49.55 35.8 51.3 38.05 53.65 40.65 55.95 42.95 Q56.5 40.5 56.5 38.25 L55.65 35.55 56.75 35.65 58.95 35.2 Q59.85 34.75 59.85 34.15 59.85 33.55 58.95 33.1 58.05 32.65 56.75 32.65 55.45 32.65 54.55 33.1 M53.65 15.65 L50.0 16.4 Q50.0 17.2 51.1 17.15 52.3 17.1 53.65 15.65 M50.4 55.85 Q56.5 56.7 56.5 51.6 56.5 49.3 55.2 47.85 54.0 46.5 52.4 46.5 52.25 46.5 51.65 46.9 L49.05 48.3 Q48.25 50.85 48.25 52.15 48.25 53.15 49.05 54.4 L50.4 55.85 M57.1 47.6 L57.7 48.4 58.45 51.1 58.45 51.4 Q58.45 53.9 56.7 55.7 54.9 57.45 52.4 57.45 49.9 57.45 48.15 55.7 46.35 53.9 46.35 51.4 46.35 48.9 48.15 47.15 49.9 45.35 52.4 45.35 L53.4 45.45 57.1 47.6 M18.65 68.1 Q18.2 69.95 17.35 71.25 14.8 75.15 8.65 75.0 5.65 68.25 5.9 66.65 L6.4 62.95 Q6.6 60.8 4.0 58.25 1.35 55.65 1.35 51.7 2.4 46.9 3.5 44.05 L2.7 40.4 Q2.25 38.95 4.15 36.55 6.0 34.1 6.0 33.45 L5.65 31.35 Q5.25 29.75 5.3 28.45 5.3 27.15 6.6 25.55 7.85 23.95 8.7 22.1 9.5 20.25 10.0 16.3 10.45 14.8 13.2 11.5 16.75 7.2 20.3 5.8 L23.35 12.3 24.1 15.15 22.5 15.15 21.15 10.3 Q19.1 11.15 16.55 14.05 L13.3 17.9 15.05 22.55 Q14.9 23.45 13.15 24.3 11.3 25.25 10.45 27.9 8.9 32.75 7.9 37.15 6.9 41.45 6.9 43.3 L8.05 48.05 7.35 49.25 Q6.65 50.65 6.65 52.35 6.65 53.95 8.2 55.55 6.85 56.5 6.8 56.85 L7.85 57.25 8.9 56.2 9.4 56.65 Q12.1 58.85 12.1 59.9 L11.25 62.6 Q10.4 64.75 10.4 65.25 10.4 67.15 11.45 68.8 12.2 70.05 14.25 72.05 L15.7 70.55 16.55 69.35 17.15 67.9 17.25 67.45 17.65 67.7 18.65 68.1 M24.5 17.55 Q25.05 21.4 25.05 26.4 25.05 30.85 20.9 35.55 20.6 35.55 19.05 39.55 17.5 43.5 17.45 44.25 L17.25 46.75 18.25 53.15 Q19.25 59.95 19.25 62.45 L19.2 64.6 Q18.3 64.75 17.65 65.1 L17.6 65.15 17.7 59.7 17.25 55.65 16.5 51.1 Q16.05 48.4 15.95 45.95 L15.95 44.05 Q16.1 42.95 18.2 38.65 L21.0 32.9 Q23.15 29.7 23.45 28.4 L23.55 25.8 Q23.5 22.5 22.85 16.9 L24.5 17.55 M19.8 78.05 Q20.45 76.95 21.4 76.0 24.4 72.95 28.65 72.95 32.9 72.95 35.9 76.0 38.9 79.0 38.9 83.25 38.9 87.5 35.9 90.55 32.9 93.55 28.65 93.55 24.4 93.55 21.4 90.55 18.4 87.5 18.4 83.25 18.4 80.8 19.4 78.75 L20.75 80.0 Q19.8 83.5 19.8 84.0 L21.0 86.9 Q22.5 89.95 24.2 91.45 L27.6 92.1 30.45 91.4 Q33.15 90.55 34.3 89.5 35.4 88.25 36.45 85.5 L37.3 82.75 36.75 80.3 36.0 77.55 34.6 76.25 32.95 75.3 31.7 74.8 30.3 74.45 26.7 75.55 23.5 76.75 Q22.3 78.0 21.05 79.6 L19.8 78.05 M57.05 89.5 L58.05 94.1 56.5 99.5 57.1 101.45 57.85 103.95 Q58.0 104.5 56.85 106.9 L55.5 109.7 Q55.3 110.1 55.5 111.45 L55.75 113.4 54.5 117.2 Q53.2 120.9 52.95 123.3 52.7 126.05 51.7 127.15 50.95 128.0 51.2 128.8 48.75 127.8 46.1 121.8 43.75 116.55 43.75 114.65 43.75 110.7 45.75 106.15 L51.4 95.05 Q54.1 91.8 55.15 90.85 L57.05 89.5 M49.7 118.8 L51.85 110.75 Q53.0 106.75 53.0 104.2 53.0 101.9 52.35 99.7 L51.65 97.95 51.75 97.4 48.15 103.65 Q46.5 107.4 46.1 109.1 L45.3 114.05 46.5 118.15 48.45 124.05 49.1 121.2 50.6 121.55 Q51.5 121.55 52.15 121.15 52.8 120.7 52.8 120.1 52.8 119.5 52.15 119.1 51.5 118.65 50.6 118.65 L49.7 118.8 M54.1 102.15 Q55.3 102.1 56.65 100.65 L53.0 101.4 Q53.0 102.2 54.1 102.15 M42.9 138.6 L43.1 137.85 Q43.1 137.25 42.55 136.8 L41.75 136.4 40.55 134.85 38.4 133.95 37.0 133.5 Q35.2 133.5 33.5 135.15 32.05 136.6 31.35 138.6 31.5 139.75 33.45 145.35 L35.4 147.2 Q37.25 148.8 37.85 149.05 L40.3 148.45 42.6 147.5 43.4 145.35 43.85 143.9 43.35 140.8 42.9 138.6 M45.35 141.3 Q45.35 145.15 43.05 147.9 40.7 150.65 37.4 150.65 34.1 150.65 31.8 147.9 29.45 145.15 29.45 141.3 29.45 137.45 31.8 134.7 34.1 131.95 37.4 131.95 40.7 131.95 43.05 134.7 45.35 137.45 45.35 141.3 M33.65 146.35 L32.25 142.1 31.25 142.6 33.65 146.35 M29.05 158.85 L26.85 157.2 24.5 155.9 Q25.0 157.0 24.2 159.85 23.55 162.15 23.35 163.65 L21.2 161.35 21.4 162.4 23.25 164.55 23.2 165.1 26.25 170.3 24.6 173.65 Q24.6 174.2 29.45 179.5 34.7 185.25 36.7 185.25 39.2 185.25 41.4 183.3 43.7 181.25 44.8 177.85 L41.3 175.85 38.6 174.05 35.9 169.85 35.65 169.2 35.65 168.5 35.5 168.9 33.45 164.6 31.6 161.6 29.05 158.85 M30.05 157.75 Q32.05 159.25 34.95 165.05 L37.5 170.5 42.2 174.6 48.1 178.35 Q45.65 184.45 42.05 186.85 39.4 188.55 35.6 188.55 31.45 188.55 29.95 187.0 L27.8 183.8 24.45 179.6 Q22.2 176.6 22.5 174.95 22.8 173.25 22.7 172.2 22.5 170.5 21.95 170.05 L20.25 168.65 Q19.9 168.25 19.7 167.05 19.6 166.3 19.85 164.5 20.05 163.15 19.45 161.95 18.8 160.75 17.7 157.3 16.55 153.8 16.85 152.35 19.45 152.4 23.85 154.3 27.6 155.95 30.05 157.75" fill="#510000" fill-rule="evenodd" stroke="none"/>
    <path d="M46.45 25.2 L48.8 14.2 48.8 13.95 49.0 14.2 49.15 15.2 48.8 18.15 48.4 21.05 52.45 28.85 54.55 33.1 Q53.65 33.55 53.65 34.15 53.65 34.75 54.55 35.2 L55.65 35.55 56.5 38.25 Q56.5 40.5 55.95 42.95 L53.65 40.65 51.3 38.05 50.45 34.1 Q49.35 30.7 46.45 25.2 M49.05 48.3 L51.65 46.9 Q52.25 46.5 52.4 46.5 54.0 46.5 55.2 47.85 56.5 49.3 56.5 51.6 56.5 56.7 50.4 55.85 51.15 53.6 50.55 52.0 49.55 50.1 49.05 48.3 M16.55 69.35 L15.7 70.55 14.25 72.05 Q12.2 70.05 11.45 68.8 10.4 67.15 10.4 65.25 10.4 64.75 11.25 62.6 L12.1 59.9 Q12.1 58.85 9.4 56.65 L8.9 56.2 10.7 54.35 13.0 56.35 17.7 59.7 17.6 65.15 17.45 65.25 15.85 65.4 Q14.8 65.65 14.2 66.2 13.6 66.75 13.7 67.45 13.75 68.1 14.45 68.65 15.15 69.15 16.55 69.35 M8.2 55.55 Q6.65 53.95 6.65 52.35 6.65 50.65 7.35 49.25 L8.05 48.05 6.9 43.3 Q6.9 41.45 7.9 37.15 8.9 32.75 10.45 27.9 11.3 25.25 13.15 24.3 14.9 23.45 15.05 22.55 L13.3 17.9 16.55 14.05 Q19.1 11.15 21.15 10.3 L22.5 15.15 19.35 15.15 18.85 15.45 22.15 16.65 Q21.5 17.65 20.75 19.7 19.75 22.4 19.65 23.35 19.05 27.3 16.65 29.3 L15.15 30.75 14.95 30.9 Q14.3 31.4 14.3 32.1 L14.6 32.95 14.85 33.95 15.25 35.75 12.45 42.15 Q9.6 49.05 9.6 52.0 9.6 52.95 10.5 54.05 L9.3 54.8 Q8.65 55.2 8.2 55.55 M24.2 91.45 Q22.5 89.95 21.0 86.9 L19.8 84.0 Q19.8 83.5 20.75 80.0 L20.95 80.15 Q21.75 81.05 21.75 82.2 L21.4 84.2 21.0 86.2 24.2 91.45 M48.15 103.65 L51.75 97.4 51.65 97.95 52.35 99.7 Q53.0 101.9 53.0 104.2 53.0 106.75 51.85 110.75 L49.7 118.8 Q49.35 118.9 49.05 119.1 48.4 119.5 48.4 120.1 48.4 120.7 49.05 121.15 L49.1 121.2 48.45 124.05 46.5 118.15 45.3 114.05 Q47.9 110.0 48.0 108.05 47.7 105.95 48.15 103.65 M41.6 139.35 L42.55 138.9 42.9 138.6 43.35 140.8 43.85 143.9 43.4 145.35 42.6 147.5 41.2 145.0 Q40.75 143.65 40.75 140.95 L41.6 139.35 M26.85 157.2 Q26.85 157.9 27.5 158.4 28.15 158.85 29.05 158.85 L31.6 161.6 Q29.05 162.25 27.7 163.1 26.45 163.85 26.45 164.55 26.45 164.95 28.2 166.75 L29.95 168.6 29.45 170.85 Q28.95 172.6 28.95 173.1 28.95 175.45 30.75 176.95 32.85 178.65 36.85 178.65 L38.5 178.4 Q40.25 177.75 41.3 175.85 L44.8 177.85 Q43.7 181.25 41.4 183.3 39.2 185.25 36.7 185.25 34.7 185.25 29.45 179.5 24.6 174.2 24.6 173.65 L26.25 170.3 23.2 165.1 23.25 164.55 24.45 165.55 24.15 164.75 23.35 163.65 Q23.55 162.15 24.2 159.85 25.0 157.0 24.5 155.9 L26.85 157.2" fill="#6a0000" fill-rule="evenodd" stroke="none"/>
    <path d="M51.3 38.05 L49.55 35.8 49.8 35.1 Q49.8 34.5 49.15 34.1 L48.0 33.7 47.35 32.6 Q46.7 31.35 46.45 25.2 49.35 30.7 50.45 34.1 L51.3 38.05 M50.4 55.85 L49.05 54.4 Q48.25 53.15 48.25 52.15 48.25 50.85 49.05 48.3 49.55 50.1 50.55 52.0 51.15 53.6 50.4 55.85 M17.25 67.45 L17.15 67.9 16.55 69.35 Q15.15 69.15 14.45 68.65 13.75 68.1 13.7 67.45 13.6 66.75 14.2 66.2 14.8 65.65 15.85 65.4 L17.45 65.25 Q16.65 65.75 16.65 66.4 16.65 67.0 17.25 67.45 M15.15 30.75 L16.65 29.3 Q19.05 27.3 19.65 23.35 19.75 22.4 20.75 19.7 21.5 17.65 22.15 16.65 L22.85 16.9 Q23.5 22.5 23.55 25.8 22.95 26.9 22.25 29.25 L21.0 32.9 18.2 38.65 Q16.1 42.95 15.95 44.05 15.8 43.6 14.85 43.6 13.8 43.6 13.1 44.85 12.4 46.1 12.4 47.9 12.4 49.7 13.1 50.95 13.8 52.2 14.85 52.2 L16.5 51.1 17.25 55.65 17.7 59.7 13.0 56.35 10.7 54.35 11.75 53.25 10.5 54.05 Q9.6 52.95 9.6 52.0 9.6 49.05 12.45 42.15 L15.25 35.75 14.85 33.95 14.6 32.95 14.95 33.35 Q15.6 33.85 16.55 33.85 17.5 33.85 18.15 33.35 18.8 32.8 18.8 32.1 18.8 31.4 18.15 30.9 17.5 30.35 16.55 30.35 15.7 30.35 15.15 30.75 M21.05 79.6 Q22.3 78.0 23.5 76.75 L26.4 87.2 27.6 92.1 24.2 91.45 21.0 86.2 21.4 84.2 21.75 82.2 Q21.75 81.05 20.95 80.15 L21.45 80.55 21.15 79.75 21.05 79.6 M45.3 114.05 L46.1 109.1 Q46.5 107.4 48.15 103.65 47.7 105.95 48.0 108.05 47.9 110.0 45.3 114.05 M41.75 136.4 L41.2 136.35 Q40.45 136.35 39.95 136.75 L40.55 134.85 41.75 136.4 M39.4 138.35 L39.85 138.9 Q40.4 139.35 41.2 139.35 L41.6 139.35 40.75 140.95 Q40.75 143.65 41.2 145.0 L42.6 147.5 40.3 148.45 37.85 149.05 Q37.15 146.15 37.15 144.95 37.15 144.35 37.7 143.0 L39.4 138.35 M29.05 158.85 Q28.15 158.85 27.5 158.4 26.85 157.9 26.85 157.2 L29.05 158.85 M41.3 175.85 Q40.25 177.75 38.5 178.4 L36.85 178.65 Q32.85 178.65 30.75 176.95 28.95 175.45 28.95 173.1 28.95 172.6 29.45 170.85 L29.95 168.6 28.2 166.75 Q26.45 164.95 26.45 164.55 26.45 163.85 27.7 163.1 29.05 162.25 31.6 161.6 L33.45 164.6 Q33.45 168.15 34.7 170.75 L33.35 173.85 Q34.15 174.05 34.85 172.65 L35.2 171.75 Q36.65 174.05 38.6 174.05 L41.3 175.85" fill="#8c0000" fill-rule="evenodd" stroke="none"/>
    <path d="M16.5 51.1 L14.85 52.2 Q13.8 52.2 13.1 50.95 12.4 49.7 12.4 47.9 12.4 46.1 13.1 44.85 13.8 43.6 14.85 43.6 15.8 43.6 15.95 44.05 L15.95 45.95 Q16.05 48.4 16.5 51.1 M21.0 32.9 L22.25 29.25 Q22.95 26.9 23.55 25.8 L23.45 28.4 Q23.15 29.7 21.0 32.9 M23.5 76.75 L26.7 75.55 30.3 74.45 31.7 74.8 Q29.65 76.05 28.7 79.0 28.25 80.5 28.2 81.8 28.2 85.1 30.15 87.35 L30.75 87.95 30.35 88.85 Q30.85 89.0 31.35 88.45 32.65 89.45 34.3 89.5 33.15 90.55 30.45 91.4 L27.6 92.1 26.4 87.2 23.5 76.75 M34.6 76.25 L36.0 77.55 35.0 78.4 35.0 77.35 34.6 76.25 M39.95 136.75 L39.85 136.8 Q39.3 137.25 39.3 137.85 L39.4 138.35 37.7 143.0 Q37.15 144.35 37.15 144.95 37.15 146.15 37.85 149.05 37.25 148.8 35.4 147.2 L33.45 145.35 Q34.3 144.4 34.95 142.65 L35.5 140.95 Q35.5 139.05 34.45 138.0 33.7 137.3 33.1 137.3 32.95 137.3 31.35 138.6 32.05 136.6 33.5 135.15 35.2 133.5 37.0 133.5 L38.4 133.95 40.55 134.85 39.95 136.75 M33.45 164.6 L35.5 168.9 34.7 170.75 Q33.45 168.15 33.45 164.6 M35.65 169.2 L35.9 169.85 38.6 174.05 Q36.65 174.05 35.2 171.75 L35.65 169.2" fill="#ce0000" fill-rule="evenodd" stroke="none"/>
    <path d="M31.7 74.8 L32.95 75.3 34.6 76.25 35.0 77.35 35.0 78.4 36.0 77.55 36.75 80.3 37.3 82.75 36.45 85.5 Q35.4 88.25 34.3 89.5 32.65 89.45 31.35 88.45 L31.85 87.65 Q32.6 86.1 32.65 83.5 L30.75 87.95 30.15 87.35 Q28.2 85.1 28.2 81.8 28.25 80.5 28.7 79.0 29.65 76.05 31.7 74.8 M33.45 145.35 Q31.5 139.75 31.35 138.6 32.95 137.3 33.1 137.3 33.7 137.3 34.45 138.0 35.5 139.05 35.5 140.95 L34.95 142.65 Q34.3 144.4 33.45 145.35" fill="#ff5353" fill-rule="evenodd" stroke="none"/>
    <path d="M54.55 33.1 Q55.45 32.65 56.75 32.65 58.05 32.65 58.95 33.1 59.85 33.55 59.85 34.15 59.85 34.75 58.95 35.2 L56.75 35.65 55.65 35.55 54.55 35.2 Q53.65 34.75 53.65 34.15 53.65 33.55 54.55 33.1 M49.55 35.8 L49.15 36.15 48.35 36.5 47.05 34.75 46.4 33.9 47.6 33.65 48.0 33.7 49.15 34.1 Q49.8 34.5 49.8 35.1 L49.55 35.8 M53.65 15.65 Q52.3 17.1 51.1 17.15 50.0 17.2 50.0 16.4 L53.65 15.65 M57.1 47.6 L53.4 45.45 Q55.25 45.7 56.7 47.15 L57.1 47.6 M18.65 68.1 L17.65 67.7 17.25 67.45 Q16.65 67.0 16.65 66.4 16.65 65.75 17.45 65.25 L17.6 65.15 17.65 65.1 Q18.3 64.75 19.2 64.6 L18.65 68.1 M8.9 56.2 L7.85 57.25 6.8 56.85 Q6.85 56.5 8.2 55.55 8.65 55.2 9.3 54.8 L10.5 54.05 11.75 53.25 10.7 54.35 8.9 56.2 M22.5 15.15 L24.1 15.15 24.5 17.55 22.85 16.9 22.15 16.65 18.85 15.45 19.35 15.15 22.5 15.15 M15.15 30.75 Q15.7 30.35 16.55 30.35 17.5 30.35 18.15 30.9 18.8 31.4 18.8 32.1 18.8 32.8 18.15 33.35 17.5 33.85 16.55 33.85 15.6 33.85 14.95 33.35 L14.6 32.95 14.3 32.1 Q14.3 31.4 14.95 30.9 L15.15 30.75 M19.8 78.05 L21.05 79.6 21.15 79.75 21.45 80.55 20.95 80.15 20.75 80.0 19.4 78.75 19.8 78.05 M31.35 88.45 Q30.85 89.0 30.35 88.85 L30.75 87.95 32.65 83.5 Q32.6 86.1 31.85 87.65 L31.35 88.45 M49.7 118.8 L50.6 118.65 Q51.5 118.65 52.15 119.1 52.8 119.5 52.8 120.1 52.8 120.7 52.15 121.15 51.5 121.55 50.6 121.55 L49.1 121.2 49.05 121.15 Q48.4 120.7 48.4 120.1 48.4 119.5 49.05 119.1 49.35 118.9 49.7 118.8 M54.1 102.15 Q53.0 102.2 53.0 101.4 L56.65 100.65 Q55.3 102.1 54.1 102.15 M41.75 136.4 L42.55 136.8 Q43.1 137.25 43.1 137.85 L42.9 138.6 42.55 138.9 41.6 139.35 41.2 139.35 Q40.4 139.35 39.85 138.9 L39.4 138.35 39.3 137.85 Q39.3 137.25 39.85 136.8 L39.95 136.75 Q40.45 136.35 41.2 136.35 L41.75 136.4 M33.65 146.35 L31.25 142.6 32.25 142.1 33.65 146.35 M23.35 163.65 L24.15 164.75 24.45 165.55 23.25 164.55 21.4 162.4 21.2 161.35 23.35 163.65 M35.5 168.9 L35.65 168.5 35.65 169.2 35.2 171.75 34.85 172.65 Q34.15 174.05 33.35 173.85 L34.7 170.75 35.5 168.9" fill="#ee8300" fill-rule="evenodd" stroke="none"/>
  </g>
</svg>
