<?xml version="1.0" encoding="UTF-8" standalone="no"?>
<svg xmlns:ffdec="https://www.free-decompiler.com/flash" xmlns:xlink="http://www.w3.org/1999/xlink" ffdec:objectType="shape" height="11.4px" width="39.2px" xmlns="http://www.w3.org/2000/svg">
  <g transform="matrix(1.0, 0.0, 0.0, 1.0, 29.25, 7.65)">
    <path d="M9.7 -0.9 Q10.2 0.95 9.75 2.0 9.35 3.2 7.85 3.45 6.8 3.7 5.35 2.1 L5.35 2.05 2.95 -0.95 Q0.55 -4.05 -1.25 -4.6 L-1.3 -4.6 -2.25 -4.65 -2.3 -4.65 Q-3.45 -4.5 -3.9 -4.05 -4.05 -3.85 -4.25 -3.8 L-4.65 -3.9 -4.9 -4.25 -4.9 -4.65 -3.9 -6.2 Q-2.8 -7.3 -0.95 -7.55 1.6 -8.05 5.15 -5.95 8.9 -3.75 9.7 -0.9 M-2.5 -5.8 L-0.95 -5.7 Q1.15 -5.15 3.85 -1.65 L6.2 1.25 6.2 1.3 Q7.1 2.3 7.65 2.3 8.4 2.15 8.7 1.6 8.9 0.8 8.55 -0.55 7.8 -3.05 4.6 -4.95 1.5 -6.8 -0.75 -6.45 L-2.5 -5.85 -2.55 -5.8 -2.5 -5.8 M-28.95 -0.65 Q-28.2 -3.5 -24.45 -5.7 -20.9 -7.8 -18.35 -7.3 -16.5 -7.05 -15.35 -5.95 -14.95 -5.65 -14.4 -4.4 -14.3 -4.2 -14.35 -4.0 L-14.6 -3.65 -15.0 -3.55 -15.4 -3.8 Q-15.85 -4.25 -17.0 -4.4 L-18.0 -4.35 Q-19.85 -3.8 -22.2 -0.7 L-24.6 2.3 -24.65 2.35 Q-26.1 3.95 -27.1 3.7 L-27.15 3.7 Q-28.65 3.45 -29.05 2.25 -29.5 1.2 -28.95 -0.65 M-16.8 -5.6 Q-17.55 -6.05 -18.55 -6.2 -20.8 -6.55 -23.85 -4.7 -27.1 -2.8 -27.8 -0.3 -28.2 1.05 -27.95 1.85 -27.7 2.4 -26.95 2.55 -26.4 2.55 -25.5 1.55 L-25.45 1.5 -23.15 -1.4 Q-20.45 -4.9 -18.35 -5.45 L-16.8 -5.55 -16.75 -5.55 -16.8 -5.6" fill="#000000" fill-rule="evenodd" stroke="none"/>
    <path d="M-2.5 -5.85 L-0.75 -6.45 Q1.5 -6.8 4.6 -4.95 7.8 -3.05 8.55 -0.55 8.9 0.8 8.7 1.6 8.4 2.15 7.65 2.3 7.1 2.3 6.2 1.3 L6.2 1.25 3.85 -1.65 Q1.15 -5.15 -0.95 -5.7 L-2.5 -5.8 -2.5 -5.85 M-16.8 -5.55 L-18.35 -5.45 Q-20.45 -4.9 -23.15 -1.4 L-25.45 1.5 -25.5 1.55 Q-26.4 2.55 -26.95 2.55 -27.7 2.4 -27.95 1.85 -28.2 1.05 -27.8 -0.3 -27.1 -2.8 -23.85 -4.7 -20.8 -6.55 -18.55 -6.2 -17.55 -6.05 -16.8 -5.6 L-16.8 -5.55" fill="#2f1e13" fill-rule="evenodd" stroke="none"/>
  </g>
</svg>
