<?xml version="1.0" encoding="UTF-8" standalone="no"?>
<svg xmlns:ffdec="https://www.free-decompiler.com/flash" xmlns:xlink="http://www.w3.org/1999/xlink" ffdec:objectType="shape" height="13.05px" width="37.85px" xmlns="http://www.w3.org/2000/svg">
  <g transform="matrix(1.0, 0.0, 0.0, 1.0, 28.4, 8.2)">
    <path d="M2.75 -0.95 Q0.85 -4.35 -0.85 -5.2 L-1.8 -5.4 -1.85 -5.45 Q-3.05 -5.45 -3.5 -5.05 L-3.9 -4.9 -4.3 -5.05 -4.5 -5.4 -4.4 -5.8 -3.2 -7.2 Q-1.95 -8.1 -0.05 -8.1 2.55 -8.15 5.75 -5.55 9.05 -2.8 9.4 0.15 9.6 2.05 9.0 3.05 8.4 4.15 6.9 4.15 5.85 4.25 4.65 2.45 L4.65 2.4 2.75 -0.95 M-18.05 -6.9 L-19.9 -7.0 Q-22.15 -6.75 -24.6 -4.15 -27.2 -1.45 -27.2 1.15 -27.2 2.55 -26.75 3.25 -26.4 3.75 -25.6 3.65 -25.1 3.5 -24.5 2.3 L-24.45 2.25 -23.0 -1.2 Q-21.4 -5.25 -19.5 -6.35 L-18.05 -6.9 -18.0 -6.9 -18.05 -6.9 M-20.0 -8.15 Q-18.15 -8.4 -16.8 -7.65 -16.3 -7.5 -15.45 -6.4 L-15.3 -6.05 Q-15.3 -5.8 -15.45 -5.65 -15.6 -5.5 -15.8 -5.45 L-16.2 -5.55 -17.95 -5.75 -17.95 -5.7 -18.9 -5.4 Q-20.5 -4.35 -21.95 -0.75 L-23.45 2.8 -23.45 2.85 Q-24.45 4.75 -25.45 4.85 L-25.45 4.8 Q-26.95 5.0 -27.7 3.95 -28.4 3.05 -28.4 1.15 -28.45 -1.85 -25.45 -4.95 -22.6 -7.95 -20.0 -8.15 M-1.85 -6.6 L-0.35 -6.25 -0.3 -6.25 Q1.65 -5.35 3.75 -1.5 L5.6 1.75 Q6.35 2.9 6.9 3.0 7.65 3.0 8.0 2.45 8.35 1.75 8.2 0.3 7.85 -2.25 5.0 -4.65 2.2 -6.95 -0.05 -6.95 L-1.85 -6.6 -1.9 -6.6 -1.85 -6.6" fill="#000000" fill-rule="evenodd" stroke="none"/>
    <path d="M-18.05 -6.9 L-19.5 -6.35 Q-21.4 -5.25 -23.0 -1.2 L-24.45 2.25 -24.5 2.3 Q-25.1 3.5 -25.6 3.65 -26.4 3.75 -26.75 3.25 -27.2 2.55 -27.2 1.15 -27.2 -1.45 -24.6 -4.15 -22.15 -6.75 -19.9 -7.0 L-18.05 -6.9 M-1.85 -6.6 L-0.05 -6.95 Q2.2 -6.95 5.0 -4.65 7.85 -2.25 8.2 0.3 8.35 1.75 8.0 2.45 7.65 3.0 6.9 3.0 6.35 2.9 5.6 1.75 L3.75 -1.5 Q1.65 -5.35 -0.3 -6.25 L-0.35 -6.25 -1.85 -6.6" fill="#2f1e13" fill-rule="evenodd" stroke="none"/>
  </g>
</svg>
