<?xml version="1.0" encoding="UTF-8" standalone="no"?>
<svg xmlns:ffdec="https://www.free-decompiler.com/flash" xmlns:xlink="http://www.w3.org/1999/xlink" ffdec:objectType="shape" height="182.75px" width="61.45px" xmlns="http://www.w3.org/2000/svg">
  <g transform="matrix(1.0, 0.0, 0.0, 1.0, -1.35, -5.8)">
    <path d="M45.9 18.55 Q47.0 17.5 47.9 15.7 49.75 12.1 49.75 8.15 L49.75 8.0 52.05 10.6 53.6 15.05 54.25 19.65 Q54.25 24.2 51.55 27.15 L48.4 21.05 48.8 18.15 49.15 15.2 49.0 14.2 48.8 13.95 48.8 14.2 46.45 25.2 Q46.6 28.4 46.85 30.25 L45.15 30.85 Q44.85 29.55 44.85 28.0 44.85 22.85 45.9 18.55 M56.15 20.0 L56.4 20.35 Q58.65 23.3 58.5 24.9 L58.15 28.3 Q57.9 30.1 59.95 31.3 L60.9 32.0 61.05 32.85 Q61.05 41.0 57.5 45.9 55.35 44.15 55.0 44.15 54.0 44.15 50.6 39.7 L47.05 34.75 Q46.25 33.9 45.75 32.75 L47.2 32.25 47.35 32.6 Q47.95 33.8 51.3 38.05 L53.65 40.65 55.95 42.95 Q56.5 40.5 56.5 38.25 56.5 36.8 52.45 28.85 56.1 25.15 56.15 20.0 M61.35 42.7 L61.7 43.4 Q63.1 46.0 62.75 48.6 L62.55 49.15 Q61.1 48.75 59.0 47.1 L59.5 46.3 61.35 42.7 M55.45 48.15 L55.2 47.85 Q54.0 46.5 52.4 46.5 52.25 46.5 51.65 46.9 L49.05 48.3 Q48.3 50.65 48.25 51.95 L46.45 52.35 46.35 51.5 46.35 51.4 Q46.35 48.9 48.15 47.15 49.9 45.35 52.4 45.35 54.8 45.35 56.55 47.0 L55.45 48.15 M57.85 48.7 Q58.45 49.9 58.45 51.4 58.45 53.9 56.7 55.7 54.9 57.45 52.4 57.45 49.9 57.45 48.15 55.7 L48.1 55.65 48.05 55.6 47.85 55.4 47.45 54.85 49.15 54.5 Q49.8 55.45 50.4 55.85 56.5 56.7 56.5 51.6 L56.4 50.35 57.85 48.7 M12.8 74.55 L8.65 75.0 Q5.65 68.25 5.9 66.65 L6.4 62.95 Q6.6 60.8 4.0 58.25 1.35 55.65 1.35 51.7 2.4 46.9 3.5 44.05 L2.7 40.4 Q2.25 38.95 4.15 36.55 6.0 34.1 6.0 33.45 L5.65 31.35 Q5.25 29.75 5.3 28.45 5.3 27.15 6.6 25.55 7.85 23.95 8.7 22.1 9.5 20.25 10.0 16.3 10.45 14.8 13.2 11.5 16.75 7.2 20.3 5.8 L23.35 12.3 23.8 13.85 Q22.9 13.1 21.8 12.7 L21.15 10.3 Q19.9 10.8 18.45 12.1 L18.35 12.1 17.15 12.5 Q16.15 12.95 15.5 13.65 L15.6 14.65 16.0 14.7 13.3 17.9 14.0 19.75 Q11.55 20.0 11.1 20.9 L12.3 21.95 14.65 21.45 15.05 22.55 Q14.9 23.45 13.15 24.3 11.3 25.25 10.45 27.9 8.9 32.75 7.9 37.15 6.9 41.45 6.9 43.3 L7.7 46.45 4.85 49.25 4.75 49.7 5.35 49.85 7.15 49.75 Q6.65 50.95 6.65 52.35 6.65 54.5 9.4 56.65 L11.3 58.45 Q10.75 60.75 10.75 63.45 L10.8 63.8 10.4 65.25 Q10.4 67.15 11.45 68.8 L11.5 68.9 11.75 70.7 Q12.2 72.95 12.8 74.55 M24.8 20.0 L25.05 26.4 25.05 26.55 25.05 26.7 24.7 29.1 24.5 29.65 Q24.2 28.05 23.5 26.4 L23.55 25.8 Q23.5 22.35 22.75 16.25 L23.55 17.4 24.8 20.0 M22.05 34.15 L20.9 35.55 20.15 36.9 19.7 37.9 17.7 39.8 18.2 38.65 21.0 32.9 22.6 30.4 22.65 30.8 Q22.65 32.55 22.05 34.15 M17.5 44.0 L17.45 44.25 17.25 46.75 17.6 48.95 16.35 49.95 15.95 45.95 15.95 45.45 17.5 44.0 M18.05 51.9 L18.25 53.15 Q19.25 59.95 19.25 62.45 19.25 68.3 17.35 71.25 L16.05 72.8 15.4 70.95 15.7 70.55 16.55 69.35 17.15 67.9 17.6 65.25 17.7 59.7 17.25 55.65 16.9 53.1 18.05 51.9 M28.2 72.95 L28.7 74.9 26.7 75.55 23.5 76.75 20.75 79.95 Q19.8 83.5 19.8 84.0 L21.0 86.9 Q22.5 89.95 24.2 91.45 L27.6 92.1 30.3 91.45 30.5 93.4 28.65 93.55 Q24.4 93.55 21.4 90.55 18.4 87.5 18.4 83.25 18.4 79.0 21.4 76.0 24.25 73.1 28.2 72.95 M32.35 92.9 L31.8 90.95 Q33.45 90.25 34.3 89.5 35.4 88.25 36.45 85.5 L37.3 82.75 36.75 80.3 36.0 77.55 34.6 76.25 32.95 75.3 31.7 74.8 31.6 74.8 31.3 73.3 Q33.85 73.95 35.9 76.0 38.9 79.0 38.9 83.25 38.9 87.5 35.9 90.55 34.3 92.15 32.35 92.9 M52.45 93.85 L53.2 93.0 54.85 91.15 55.15 90.85 57.05 89.5 58.05 94.1 56.5 99.5 57.1 101.45 57.85 103.95 Q58.0 104.5 56.85 106.9 L55.5 109.7 Q55.3 110.1 55.5 111.45 L55.75 113.4 54.5 117.2 Q53.2 120.9 52.95 123.3 52.7 126.05 51.7 127.15 50.95 128.0 51.2 128.8 48.75 127.8 46.1 121.8 L44.7 118.45 46.35 117.65 46.5 118.15 48.45 124.05 Q49.55 119.0 51.15 113.25 54.15 109.1 54.15 103.55 L53.3 97.4 52.45 93.85 M44.0 116.2 L43.75 114.75 43.75 114.65 Q43.75 110.7 45.75 106.15 L45.75 106.1 45.8 106.05 45.8 105.95 50.9 96.05 51.2 95.45 51.3 95.95 51.6 97.7 48.15 103.65 Q46.5 107.4 46.1 109.1 L45.3 114.05 45.65 115.4 44.0 116.2 M43.6 142.1 L43.35 140.8 42.55 137.45 40.55 134.85 38.4 133.95 37.0 133.5 Q35.2 133.5 33.5 135.15 32.65 136.0 32.1 137.05 L30.65 136.4 31.8 134.7 Q34.1 131.95 37.4 131.95 40.7 131.95 43.05 134.7 45.35 137.45 45.35 141.3 L45.35 141.8 43.6 142.1 M44.7 145.05 L44.4 145.85 44.1 146.35 43.3 147.6 43.05 147.9 Q41.4 149.85 39.25 150.45 L36.5 150.2 35.05 150.25 34.6 150.1 31.8 147.9 Q29.45 145.15 29.45 141.3 29.45 140.4 29.6 139.6 L31.85 140.5 33.45 145.35 35.4 147.2 Q37.25 148.8 37.85 149.05 L40.3 148.45 42.6 147.5 43.4 145.35 43.5 145.15 44.7 145.05 M26.1 156.8 L24.5 155.9 Q25.0 157.0 24.2 159.85 23.2 163.45 23.2 165.1 L26.25 170.3 24.6 173.65 Q24.6 174.15 29.0 179.0 L28.5 184.65 27.8 183.8 24.45 179.6 Q22.2 176.6 22.5 174.95 22.8 173.25 22.7 172.2 22.5 170.5 21.95 170.05 L20.25 168.65 Q19.9 168.25 19.7 167.05 19.6 166.3 19.85 164.5 20.05 163.15 19.45 161.95 18.8 160.75 17.7 157.3 16.55 153.8 16.85 152.35 19.45 152.4 23.85 154.3 L26.55 155.6 26.1 156.8 M27.65 156.2 Q28.95 156.95 30.05 157.75 32.05 159.25 34.95 165.05 L37.5 170.5 42.2 174.6 45.95 177.0 Q44.95 181.65 44.8 184.3 L42.05 186.85 Q39.4 188.55 35.6 188.55 31.45 188.55 29.95 187.0 L28.9 185.25 29.05 184.85 30.2 180.3 Q34.85 185.25 36.7 185.25 39.2 185.25 41.4 183.3 43.7 181.25 44.8 177.85 L41.3 175.85 38.6 174.05 35.9 169.85 33.45 164.6 31.6 161.6 29.05 158.85 27.5 157.7 Q27.5 156.85 27.65 156.2" fill="#772400" fill-rule="evenodd" stroke="none"/>
    <path d="M46.45 25.2 L48.8 14.2 48.8 13.95 49.0 14.2 49.15 15.2 48.8 18.15 48.4 21.05 51.55 27.15 49.1 29.1 48.55 29.45 46.45 25.2 M52.45 28.85 Q56.5 36.8 56.5 38.25 56.5 40.5 55.95 42.95 L53.65 40.65 51.3 38.05 50.45 34.1 49.35 31.25 Q51.1 30.25 52.45 28.85 M49.05 48.3 L51.65 46.9 Q52.25 46.5 52.4 46.5 54.0 46.5 55.2 47.85 L55.45 48.15 54.45 48.95 Q52.5 50.45 50.25 51.35 L49.05 48.3 M11.5 68.9 L11.45 68.8 Q10.4 67.15 10.4 65.25 L10.8 63.8 11.5 68.9 M11.3 58.45 L9.4 56.65 Q6.65 54.5 6.65 52.35 6.65 50.95 7.15 49.75 L10.05 49.0 Q9.6 50.8 9.6 52.0 9.6 53.65 12.2 55.75 L11.3 58.45 M7.7 46.45 L6.9 43.3 Q6.9 41.45 7.9 37.15 8.9 32.75 10.45 27.9 11.3 25.25 13.15 24.3 14.9 23.45 15.05 22.55 L14.65 21.45 16.5 21.35 Q18.2 21.35 19.65 23.3 L19.65 23.35 Q19.05 27.3 16.65 29.3 14.45 31.1 14.45 32.1 L14.85 33.95 15.25 35.75 12.45 42.15 11.9 43.6 9.95 44.75 7.7 46.45 M14.0 19.75 L13.3 17.9 16.0 14.7 19.05 14.4 Q21.05 14.4 22.6 16.1 21.8 16.85 20.75 19.7 L20.3 21.1 Q18.65 19.6 16.75 19.6 L14.0 19.75 M18.45 12.1 Q19.9 10.8 21.15 10.3 L21.8 12.7 Q20.35 12.1 18.45 12.1 M17.7 59.7 L17.6 65.25 15.85 65.4 Q14.8 65.65 14.2 66.2 L13.85 66.7 Q13.25 64.75 13.25 63.55 13.25 60.1 14.3 57.3 L17.7 59.7 M16.55 69.35 L15.7 70.55 15.4 70.95 15.05 70.05 14.55 68.7 Q15.2 69.15 16.55 69.35 M20.75 79.95 Q21.75 80.95 21.75 82.2 L21.4 84.2 21.0 86.2 24.2 91.45 Q22.5 89.95 21.0 86.9 L19.8 84.0 Q19.8 83.5 20.75 79.95 M50.8 54.0 Q53.9 52.8 56.4 50.35 L56.5 51.6 Q56.5 56.7 50.4 55.85 L50.8 54.0 M51.15 113.25 Q49.55 119.0 48.45 124.05 L46.5 118.15 46.35 117.65 Q48.7 116.3 50.45 114.15 L51.15 113.25 M51.6 97.7 L52.25 103.25 Q52.25 110.7 47.1 114.45 L45.65 115.4 45.3 114.05 Q47.9 110.0 48.0 108.05 47.7 105.95 48.15 103.65 L51.6 97.7 M42.55 137.45 L43.35 140.8 43.6 142.1 41.3 142.25 40.8 142.2 40.75 140.95 42.55 137.45 M43.5 145.15 L43.4 145.35 42.6 147.5 41.2 145.0 41.15 144.8 43.0 145.15 43.5 145.15 M29.0 179.0 Q24.6 174.15 24.6 173.65 L26.25 170.3 23.2 165.1 Q23.2 163.45 24.2 159.85 25.0 157.0 24.5 155.9 L26.1 156.8 Q25.55 158.6 25.55 160.9 25.55 165.05 27.3 170.9 L29.0 177.4 29.0 179.0 M28.4 162.7 L27.55 158.6 27.55 158.45 Q28.15 158.85 29.05 158.85 L31.6 161.6 Q29.65 162.1 28.4 162.7 M29.55 168.15 L29.95 168.6 29.8 169.6 29.55 168.15 M30.4 176.65 L30.75 176.95 Q32.85 178.65 36.85 178.65 L38.5 178.4 Q40.25 177.75 41.3 175.85 L44.8 177.85 Q43.7 181.25 41.4 183.3 39.2 185.25 36.7 185.25 34.85 185.25 30.2 180.3 L30.4 176.9 30.4 176.65" fill="#972e00" fill-rule="evenodd" stroke="none"/>
    <path d="M46.85 30.25 Q46.6 28.4 46.45 25.2 L48.55 29.45 46.85 30.25 M51.3 38.05 Q47.95 33.8 47.35 32.6 L47.2 32.25 49.35 31.25 50.45 34.1 51.3 38.05 M48.25 51.95 Q48.3 50.65 49.05 48.3 L50.25 51.35 48.25 51.95 M22.6 16.1 L22.75 16.25 Q23.5 22.35 23.55 25.8 L23.4 26.1 22.8 24.75 Q21.65 22.35 20.3 21.1 L20.75 19.7 Q21.8 16.85 22.6 16.1 M11.9 43.6 L12.45 42.15 15.25 35.75 14.85 33.95 14.45 32.1 Q14.45 31.1 16.65 29.3 19.05 27.3 19.65 23.35 L19.65 23.3 21.15 26.0 22.3 29.2 22.25 29.25 21.0 32.9 18.2 38.65 17.7 39.8 15.8 41.1 11.9 43.6 M12.4 47.95 Q12.4 49.7 13.1 50.95 13.6 51.85 14.3 52.1 13.0 53.75 12.2 55.75 9.6 53.65 9.6 52.0 9.6 50.8 10.05 49.0 L12.4 47.95 M14.3 57.3 Q15.2 55.0 16.75 53.2 L16.9 53.1 17.25 55.65 17.7 59.7 14.3 57.3 M17.6 65.25 L17.15 67.9 16.55 69.35 Q15.2 69.15 14.55 68.7 L13.85 66.7 14.2 66.2 Q14.8 65.65 15.85 65.4 L17.6 65.25 M23.5 76.75 L26.4 87.2 27.6 92.1 24.2 91.45 21.0 86.2 21.4 84.2 21.75 82.2 Q21.75 80.95 20.75 79.95 L23.5 76.75 M50.8 54.0 L50.4 55.85 Q49.8 55.45 49.15 54.5 L50.8 54.0 M45.3 114.05 L46.1 109.1 Q46.5 107.4 48.15 103.65 47.7 105.95 48.0 108.05 47.9 110.0 45.3 114.05 M40.55 134.85 L42.55 137.45 40.75 140.95 40.8 142.2 Q39.95 141.95 38.45 141.1 L40.55 134.85 M42.6 147.5 L40.3 148.45 37.85 149.05 Q37.15 146.15 37.15 144.95 37.15 144.45 37.6 143.35 L41.15 144.8 41.2 145.0 42.6 147.5 M28.4 162.7 Q29.65 162.1 31.6 161.6 L33.45 164.6 Q33.45 168.5 34.95 171.3 36.45 174.05 38.6 174.05 L41.3 175.85 Q40.25 177.75 38.5 178.4 L36.85 178.65 Q32.85 178.65 30.75 176.95 L30.4 176.65 Q30.4 173.3 29.8 169.6 L29.95 168.6 29.55 168.15 29.15 166.2 28.4 162.7 M29.05 158.85 Q28.15 158.85 27.55 158.45 L27.5 157.7 29.05 158.85" fill="#ba3900" fill-rule="evenodd" stroke="none"/>
    <path d="M23.4 26.1 L23.55 25.8 23.5 26.4 23.4 26.1 M21.0 32.9 L22.25 29.25 22.3 29.2 22.6 30.4 21.0 32.9 M15.95 45.45 L15.95 45.95 16.35 49.95 15.05 51.2 14.3 52.1 Q13.6 51.85 13.1 50.95 12.4 49.7 12.4 47.95 14.2 46.95 15.95 45.45 M28.7 74.9 L29.3 76.7 29.5 77.2 28.7 79.0 Q28.25 80.5 28.2 81.8 28.2 85.1 30.15 87.35 L30.6 87.85 Q30.2 90.15 29.3 91.05 L29.35 91.45 29.5 91.55 30.25 90.2 30.25 90.6 30.3 91.45 27.6 92.1 26.4 87.2 23.5 76.75 26.7 75.55 28.7 74.9 M31.8 90.95 L31.65 89.3 31.75 88.75 Q32.9 89.45 34.3 89.5 33.45 90.25 31.8 90.95 M31.65 74.85 L31.6 74.8 31.7 74.8 31.65 74.85 M36.0 77.55 L35.0 78.4 35.0 77.35 34.6 76.25 36.0 77.55 M32.1 137.05 Q32.65 136.0 33.5 135.15 35.2 133.5 37.0 133.5 L38.4 133.95 40.55 134.85 38.45 141.1 35.05 138.85 34.45 138.0 Q33.7 137.3 33.1 137.3 L32.85 137.45 32.1 137.05 M37.85 149.05 Q37.25 148.8 35.4 147.2 L33.45 145.35 Q34.3 144.4 34.95 142.65 L35.15 142.15 37.6 143.35 Q37.15 144.45 37.15 144.95 37.15 146.15 37.85 149.05 M38.6 174.05 Q36.45 174.05 34.95 171.3 33.45 168.5 33.45 164.6 L35.9 169.85 38.6 174.05" fill="#f94a00" fill-rule="evenodd" stroke="none"/>
    <path d="M29.5 77.2 L31.0 82.2 Q31.0 85.65 30.6 87.85 L30.15 87.35 Q28.2 85.1 28.2 81.8 28.25 80.5 28.7 79.0 L29.5 77.2 M31.75 88.75 L32.05 88.25 32.4 87.2 32.4 86.6 32.35 86.85 Q32.25 86.65 31.8 86.55 L31.7 86.65 Q32.4 84.25 32.4 81.8 32.4 78.55 31.65 74.85 L31.7 74.8 32.95 75.3 34.6 76.25 35.0 77.35 35.0 78.4 36.0 77.55 36.75 80.3 37.3 82.75 36.45 85.5 Q35.4 88.25 34.3 89.5 32.9 89.45 31.75 88.75 M33.45 145.35 L31.85 140.5 Q33.1 141.05 34.4 141.75 L35.15 142.15 34.95 142.65 Q34.3 144.4 33.45 145.35 M35.05 138.85 L34.85 138.7 32.85 137.45 33.1 137.3 Q33.7 137.3 34.45 138.0 L35.05 138.85" fill="#ff8654" fill-rule="evenodd" stroke="none"/>
    <path d="M49.75 8.0 L49.75 8.15 Q49.75 12.1 47.9 15.7 47.0 17.5 45.9 18.55 L46.7 15.75 Q47.75 12.75 49.75 8.0 M45.15 30.85 L46.85 30.25 48.55 29.45 49.1 29.1 51.55 27.15 Q54.25 24.2 54.25 19.65 L53.6 15.05 Q54.85 18.15 56.15 20.0 56.1 25.15 52.45 28.85 51.1 30.25 49.35 31.25 L47.2 32.25 45.75 32.75 45.15 30.85 M60.9 32.0 Q62.0 32.9 62.1 33.9 62.25 35.25 61.25 37.65 60.2 40.05 60.25 40.4 L61.35 42.7 59.5 46.3 59.0 47.1 58.0 46.3 57.5 45.9 Q61.05 41.0 61.05 32.85 L60.9 32.0 M55.45 48.15 L56.55 47.0 56.7 47.15 57.85 48.7 56.4 50.35 Q53.9 52.8 50.8 54.0 L49.15 54.5 47.45 54.85 47.4 54.85 Q46.6 53.7 46.45 52.35 L48.25 51.95 50.25 51.35 Q52.5 50.45 54.45 48.95 L55.45 48.15 M23.8 13.85 Q24.5 16.5 24.8 20.0 L23.55 17.4 22.75 16.25 22.6 16.1 Q21.05 14.4 19.05 14.4 L16.0 14.7 15.6 14.65 15.5 13.65 Q16.15 12.95 17.15 12.5 L18.35 12.1 18.45 12.1 Q20.35 12.1 21.8 12.7 22.9 13.1 23.8 13.85 M24.5 29.65 L24.5 29.7 Q23.75 31.9 22.05 34.15 22.65 32.55 22.65 30.8 L22.6 30.4 22.3 29.2 21.15 26.0 19.65 23.3 Q18.2 21.35 16.5 21.35 L14.65 21.45 12.3 21.95 11.1 20.9 Q11.55 20.0 14.0 19.75 L16.75 19.6 Q18.65 19.6 20.3 21.1 21.65 22.35 22.8 24.75 L23.4 26.1 23.5 26.4 Q24.2 28.05 24.5 29.65 M19.7 37.9 L19.05 39.55 Q17.7 42.95 17.5 44.0 L15.95 45.45 Q14.2 46.95 12.4 47.95 L10.05 49.0 7.15 49.75 5.35 49.85 4.75 49.7 4.85 49.25 7.7 46.45 9.95 44.75 11.9 43.6 15.8 41.1 17.7 39.8 19.7 37.9 M17.6 48.95 L18.05 51.9 16.9 53.1 16.75 53.2 Q15.2 55.0 14.3 57.3 13.25 60.1 13.25 63.55 13.25 64.75 13.85 66.7 L14.55 68.7 15.05 70.05 15.4 70.95 16.05 72.8 Q14.7 74.0 12.8 74.55 12.2 72.95 11.75 70.7 L11.5 68.9 10.8 63.8 10.75 63.45 Q10.75 60.75 11.3 58.45 L12.2 55.75 Q13.0 53.75 14.3 52.1 L15.05 51.2 16.35 49.95 17.6 48.95 M28.2 72.95 L28.65 72.95 31.3 73.3 31.6 74.8 31.65 74.85 Q32.4 78.55 32.4 81.8 32.4 84.25 31.7 86.65 L31.8 86.55 Q32.25 86.65 32.35 86.85 L32.4 86.6 32.4 87.2 32.05 88.25 31.75 88.75 31.65 89.3 31.8 90.95 32.35 92.9 30.5 93.4 30.3 91.45 30.25 90.6 30.25 90.2 29.5 91.55 29.35 91.45 29.3 91.05 Q30.2 90.15 30.6 87.85 31.0 85.65 31.0 82.2 L29.5 77.2 29.3 76.7 28.7 74.9 28.2 72.95 M44.7 118.45 L44.0 116.2 45.65 115.4 47.1 114.45 Q52.25 110.7 52.25 103.25 L51.6 97.7 51.3 95.95 51.2 95.45 51.4 95.05 52.45 93.85 53.3 97.4 54.15 103.55 Q54.15 109.1 51.15 113.25 L50.45 114.15 Q48.7 116.3 46.35 117.65 L44.7 118.45 M43.6 142.1 L45.35 141.8 Q45.3 143.55 44.75 145.05 L44.7 145.05 43.5 145.15 43.0 145.15 41.15 144.8 37.6 143.35 35.15 142.15 34.4 141.75 Q33.1 141.05 31.85 140.5 L29.6 139.6 Q29.85 137.85 30.65 136.4 L32.1 137.05 32.85 137.45 34.85 138.7 35.05 138.85 38.45 141.1 Q39.95 141.95 40.8 142.2 L41.3 142.25 43.6 142.1 M39.25 150.45 L37.4 150.65 35.05 150.25 36.5 150.2 39.25 150.45 M26.1 156.8 L26.55 155.6 27.65 156.2 Q27.5 156.85 27.5 157.7 L27.55 158.45 27.55 158.6 28.4 162.7 29.15 166.2 29.55 168.15 29.8 169.6 Q30.4 173.3 30.4 176.65 L30.4 176.9 30.2 180.3 29.05 184.85 28.9 185.25 28.5 184.65 29.0 179.0 29.0 177.4 27.3 170.9 Q25.55 165.05 25.55 160.9 25.55 158.6 26.1 156.8 M45.95 177.0 L48.1 178.35 Q46.65 182.0 44.8 184.3 44.95 181.65 45.95 177.0" fill="#851000" fill-rule="evenodd" stroke="none"/>
  </g>
</svg>
