<?xml version="1.0" encoding="UTF-8" standalone="no"?>
<svg xmlns:ffdec="https://www.free-decompiler.com/flash" xmlns:xlink="http://www.w3.org/1999/xlink" ffdec:objectType="shape" height="97.55px" width="99.7px" xmlns="http://www.w3.org/2000/svg">
  <g transform="matrix(1.0, 0.0, 0.0, 1.0, 42.6, 41.8)">
    <path d="M51.85 40.8 L50.75 44.0 Q47.65 53.0 44.35 53.0 42.85 53.0 42.45 49.95 L42.15 45.5 41.3 42.55 51.85 40.8" fill="#101010" fill-rule="evenodd" stroke="none"/>
    <path d="M11.65 -27.0 Q11.6 -33.6 12.3 -38.85 L13.35 -40.45 14.45 -38.85 15.9 -27.05 11.65 -27.0 M6.5 8.0 Q11.05 1.7 20.05 -1.6 21.4 -0.4 22.45 1.75 23.3 3.5 23.3 4.35 23.3 6.7 22.05 7.9 20.55 9.35 16.95 9.35 10.0 9.2 6.5 8.0 M31.15 14.8 Q29.95 13.5 29.95 12.3 29.95 11.0 30.5 9.9 31.35 8.25 33.2 8.25 33.75 8.25 34.4 8.65 35.45 9.2 36.15 10.5 L36.15 10.55 35.45 13.95 35.3 14.2 31.15 14.8 M31.75 5.95 Q31.05 7.05 30.0 7.05 26.6 7.05 25.45 5.55 24.9 4.85 24.9 3.55 24.9 2.2 25.75 1.15 26.6 0.1 27.7 0.1 32.1 0.1 32.35 3.6 32.45 4.9 31.75 5.95 M15.45 19.15 L15.1 19.85 -18.7 17.7 -19.6 16.0 -17.25 14.95 17.05 18.1 15.45 19.15" fill="#fafafa" fill-rule="evenodd" stroke="none"/>
    <path d="M12.3 -38.85 L12.1 -38.55 5.05 -28.1 9.25 -27.2 11.65 -27.0 15.9 -27.05 18.15 -27.25 21.5 -27.9 14.8 -38.3 14.45 -38.85 13.35 -40.45 12.3 -38.85 M9.9 -26.0 L7.05 -26.8 Q4.9 -27.45 4.0 -28.25 L13.2 -41.8 13.65 -41.5 Q22.25 -29.05 22.7 -27.85 19.5 -25.7 17.05 -26.1 L16.0 -25.85 11.2 -26.05 9.9 -26.0 M30.7 -16.7 L38.15 -12.1 34.55 -12.7 25.5 -17.0 30.7 -16.7 M55.1 13.5 L56.0 18.15 Q56.65 22.4 56.65 25.05 L55.8 34.2 Q55.8 34.7 56.45 35.3 57.1 35.85 57.1 36.35 L56.7 37.85 55.7 39.4 54.15 40.35 51.85 40.8 41.3 42.55 40.65 42.65 30.1 44.15 Q25.4 44.15 23.25 42.85 22.4 42.35 20.55 40.0 16.2 32.0 15.0 28.5 14.75 28.05 14.05 28.05 L10.95 27.4 -8.0 27.25 -36.2 26.3 -41.3 25.15 Q-42.6 24.85 -42.6 23.85 -42.6 23.15 -39.8 19.2 -36.75 14.9 -36.45 14.1 L-34.65 11.65 Q-33.0 9.6 -31.5 5.55 L-32.3 10.6 -33.05 12.4 -33.85 13.9 -34.95 13.9 -41.05 23.9 -36.9 24.85 18.6 25.8 Q19.5 25.4 20.0 24.65 L21.35 22.35 Q21.75 24.0 21.15 25.75 17.95 27.2 16.15 27.3 L17.9 30.45 19.45 33.7 Q23.55 40.55 24.3 41.1 25.0 41.6 27.15 42.1 L30.05 42.6 40.9 41.45 49.85 39.6 52.45 38.75 Q54.05 38.0 55.7 36.8 L55.15 35.9 54.45 36.05 54.7 31.65 Q55.45 28.1 54.95 20.85 54.5 13.75 53.4 11.15 L53.45 11.15 55.1 13.5 M-5.6 -18.35 L9.9 -21.15 3.45 -19.1 3.4 -19.1 -10.3 -14.7 -10.25 -14.75 -5.6 -18.35 M20.55 20.05 Q19.8 23.65 17.6 23.65 L16.65 23.5 15.85 22.9 Q15.2 21.2 15.1 19.85 L15.45 19.15 Q18.2 18.2 19.8 18.8 L20.55 20.05 M24.25 24.2 L23.95 23.65 25.05 20.95 Q26.65 20.15 27.5 20.15 29.2 20.15 30.05 21.45 30.6 22.3 30.6 22.9 30.6 24.5 29.85 25.55 29.0 26.8 27.45 26.8 L25.9 26.55 Q25.2 26.05 24.25 24.2 M28.65 24.75 Q29.2 24.2 29.2 23.45 29.2 22.7 28.65 22.2 28.1 21.65 27.35 21.65 26.6 21.65 26.05 22.2 25.5 22.7 25.5 23.45 25.5 24.2 26.05 24.75 26.6 25.25 27.35 25.25 28.1 25.25 28.65 24.75 M18.8 19.95 Q18.4 19.55 17.85 19.55 17.3 19.55 16.9 19.95 16.5 20.3 16.5 20.85 16.5 21.4 16.9 21.8 17.3 22.15 17.85 22.15 L18.8 21.8 Q19.2 21.4 19.2 20.85 19.2 20.3 18.8 19.95" fill="#666666" fill-rule="evenodd" stroke="none"/>
    <path d="M12.1 -38.55 L12.3 -38.85 Q11.6 -33.6 11.65 -27.0 L9.25 -27.2 12.1 -38.55 M14.45 -38.85 L14.8 -38.3 18.15 -27.25 15.9 -27.05 14.45 -38.85 M3.8 -12.4 L16.05 -12.75 Q13.45 -12.55 8.4 -10.25 2.65 -7.65 -0.2 -4.8 -6.6 -2.1 -8.8 2.95 -10.3 6.45 -9.65 10.95 L-10.55 13.9 -14.1 13.6 Q-10.3 1.15 -4.85 -5.25 -3.05 -7.3 3.8 -12.4 M29.1 -2.7 L33.85 -1.65 Q38.6 -0.35 40.8 0.9 43.5 4.85 44.65 7.05 46.15 9.8 47.0 12.9 L42.2 13.4 Q40.05 6.9 39.0 5.35 36.55 1.7 29.1 -2.7 M47.65 15.45 L48.7 23.25 Q49.1 28.05 48.8 31.75 L48.25 35.4 40.45 36.35 38.7 36.5 30.75 37.25 Q28.45 37.25 26.85 34.85 25.05 32.2 22.15 24.0 L25.05 17.9 Q19.35 16.35 11.6 15.65 L3.25 15.1 3.95 13.0 Q18.35 13.6 23.5 15.05 26.7 15.95 26.7 17.5 L26.2 19.1 25.05 20.95 23.95 23.65 24.25 24.2 26.55 29.95 Q28.55 34.9 29.7 34.9 37.2 34.9 39.8 33.4 43.15 31.5 42.95 25.7 L47.6 28.45 43.95 19.4 47.65 15.45 M54.45 36.05 L55.15 35.9 55.7 36.8 Q54.05 38.0 52.45 38.75 L49.85 39.6 40.9 41.45 30.05 42.6 27.15 42.1 Q25.0 41.6 24.3 41.1 23.55 40.55 19.45 33.7 L22.4 29.3 22.8 30.25 Q22.3 30.3 22.0 30.85 L21.8 31.4 26.4 39.45 Q27.9 41.05 33.25 41.05 34.1 41.05 40.25 39.45 L41.85 39.0 50.5 36.6 54.45 36.05 M21.35 22.35 L20.0 24.65 -35.0 22.8 -33.3 17.65 -25.65 14.35 -24.8 14.4 -26.25 20.75 Q-23.9 21.45 -17.0 22.15 L8.2 23.3 15.85 22.9 16.65 23.5 17.6 23.65 Q19.8 23.65 20.55 20.05 L22.0 18.75 23.25 18.9 21.35 22.35 M-20.4 8.65 Q-20.6 4.95 -16.85 0.0 L-20.4 8.65" fill="#dbdbdb" fill-rule="evenodd" stroke="none"/>
    <path d="M12.1 -38.55 L9.25 -27.2 5.05 -28.1 12.1 -38.55 M14.8 -38.3 L21.5 -27.9 18.15 -27.25 14.8 -38.3 M3.8 -12.4 Q7.65 -14.85 15.3 -16.2 L25.5 -17.0 34.55 -12.7 Q26.1 -13.95 16.05 -12.75 L3.8 -12.4 M40.8 0.9 L45.95 4.05 Q48.05 5.7 53.4 11.15 54.5 13.75 54.95 20.85 55.45 28.1 54.7 31.65 L54.15 34.5 48.25 35.4 48.8 31.75 Q49.1 28.05 48.7 23.25 L47.65 15.45 50.3 12.6 47.05 12.9 47.0 12.9 Q46.15 9.8 44.65 7.05 43.5 4.85 40.8 0.9 M19.45 33.7 L17.9 30.45 16.15 27.3 Q17.95 27.2 21.15 25.75 L22.4 29.3 19.45 33.7 M20.0 24.65 Q19.5 25.4 18.6 25.8 L-36.9 24.85 -41.05 23.9 -34.95 13.9 -33.85 13.9 -25.65 14.35 -33.3 17.65 -35.0 22.8 20.0 24.65 M-33.05 12.4 L-32.3 10.6 -32.4 12.45 -33.05 12.4 M-25.2 12.85 Q-23.25 4.55 -17.9 -4.55 -13.35 -12.35 -10.3 -14.7 L3.4 -19.1 Q-2.7 -16.75 -9.4 -9.9 -15.05 -4.1 -16.85 0.0 -20.6 4.95 -20.4 8.65 L-21.65 13.05 -25.2 12.85" fill="#bdbdbd" fill-rule="evenodd" stroke="none"/>
    <path d="M9.9 -26.0 L11.2 -26.05 10.9 -19.6 Q11.0 -19.4 11.9 -19.15 L13.5 -18.9 15.9 -19.4 16.0 -25.85 17.05 -26.1 16.9 -20.7 Q22.05 -19.6 22.25 -19.8 L30.7 -16.7 25.5 -17.0 12.0 -18.5 Q10.1 -18.55 9.85 -19.4 L3.45 -19.1 9.9 -21.15 9.9 -26.0" fill="#03152e" fill-rule="evenodd" stroke="none"/>
    <path d="M11.2 -26.05 L16.0 -25.85 15.9 -19.4 13.5 -18.9 11.9 -19.15 Q11.0 -19.4 10.9 -19.6 L11.2 -26.05 M14.3 -23.8 Q14.0 -24.55 13.6 -24.55 13.2 -24.55 12.95 -23.8 12.65 -23.1 12.65 -22.05 12.65 -21.0 12.95 -20.25 13.2 -19.55 13.6 -19.55 14.0 -19.55 14.3 -20.25 L14.55 -22.05 14.3 -23.8 M3.4 -19.1 L3.45 -19.1 9.85 -19.4 Q10.1 -18.55 12.0 -18.5 L25.5 -17.0 15.3 -16.2 Q7.65 -14.85 3.8 -12.4 -9.3 -9.15 -16.85 0.0 -15.05 -4.1 -9.4 -9.9 -2.7 -16.75 3.4 -19.1 M47.05 12.9 L50.3 12.6 47.65 15.45 47.05 12.9 M-21.65 13.05 L-20.4 8.65 -18.7 13.25 -21.65 13.05" fill="#093777" fill-rule="evenodd" stroke="none"/>
    <path d="M14.3 -23.8 L14.55 -22.05 14.3 -20.25 Q14.0 -19.55 13.6 -19.55 13.2 -19.55 12.95 -20.25 12.65 -21.0 12.65 -22.05 12.65 -23.1 12.95 -23.8 13.2 -24.55 13.6 -24.55 14.0 -24.55 14.3 -23.8 M47.0 12.9 L47.05 12.9 47.65 15.45 43.95 19.4 47.6 28.45 42.95 25.7 Q43.1 19.65 42.2 13.4 L47.0 12.9 M-14.1 13.6 L-18.7 13.25 -20.4 8.65 -16.85 0.0 Q-9.3 -9.15 3.8 -12.4 -3.05 -7.3 -4.85 -5.25 -10.3 1.15 -14.1 13.6" fill="#0c4595" fill-rule="evenodd" stroke="none"/>
    <path d="M20.05 -1.6 Q19.0 -2.05 15.7 -2.7 L12.5 -3.25 Q8.75 -3.25 5.7 -1.35 2.35 0.75 2.35 3.9 2.35 6.8 6.5 8.0 L3.95 13.0 Q-3.45 12.55 -9.65 10.95 -8.35 6.4 -4.95 1.2 -2.25 -2.95 -0.25 -4.75 L7.85 -6.2 Q17.75 -6.2 29.1 -2.7 L24.0 -2.4 20.05 -1.6" fill="#ff3535" fill-rule="evenodd" stroke="none"/>
    <path d="M6.5 8.0 Q2.35 6.8 2.35 3.9 2.35 0.75 5.7 -1.35 8.75 -3.25 12.5 -3.25 L15.7 -2.7 Q19.0 -2.05 20.05 -1.6 11.05 1.7 6.5 8.0" fill="#ff7070" fill-rule="evenodd" stroke="none"/>
    <path d="M29.1 -2.7 Q17.75 -6.2 7.85 -6.2 L-0.25 -4.75 -0.2 -4.8 Q2.65 -7.65 8.4 -10.25 13.45 -12.55 16.05 -12.75 24.4 -11.7 31.0 -7.55 35.4 -4.8 40.8 0.9 38.6 -0.35 33.85 -1.65 L29.1 -2.7 M-9.65 10.95 Q-3.45 12.55 3.95 13.0 L3.25 15.1 -10.55 13.9 -9.65 10.95" fill="#d91515" fill-rule="evenodd" stroke="none"/>
    <path d="M38.15 -12.1 Q44.65 -6.95 49.25 0.2 53.5 6.8 55.1 13.5 L53.45 11.15 Q48.2 0.25 44.5 -4.05 42.35 -6.6 34.55 -12.7 L38.15 -12.1 M-31.5 5.55 Q-30.0 0.0 -23.75 -6.2 -16.45 -13.5 -5.6 -18.35 L-10.25 -14.75 Q-17.65 -11.2 -24.1 -2.95 -29.0 3.25 -32.3 10.6 L-31.5 5.55" fill="#6b0303" fill-rule="evenodd" stroke="none"/>
    <path d="M20.05 -1.6 L24.0 -2.4 29.1 -2.7 Q36.55 1.7 39.0 5.35 40.05 6.9 42.2 13.4 L41.35 13.45 37.25 4.55 36.15 10.5 Q35.45 9.2 34.4 8.65 33.75 8.25 33.2 8.25 31.35 8.25 30.5 9.9 29.95 11.0 29.95 12.3 29.95 13.5 31.15 14.8 L26.6 15.5 34.4 20.55 33.0 30.2 39.65 23.8 42.95 25.7 Q43.15 31.5 39.8 33.4 37.2 34.9 29.7 34.9 28.55 34.9 26.55 29.95 L24.25 24.2 Q25.2 26.05 25.9 26.55 L27.45 26.8 Q29.0 26.8 29.85 25.55 30.6 24.5 30.6 22.9 30.6 22.3 30.05 21.45 29.2 20.15 27.5 20.15 26.65 20.15 25.05 20.95 L26.2 19.1 26.7 17.5 Q26.7 15.95 23.5 15.05 18.35 13.6 3.95 13.0 L6.5 8.0 Q10.0 9.2 16.95 9.35 20.55 9.35 22.05 7.9 23.3 6.7 23.3 4.35 23.3 3.5 22.45 1.75 21.4 -0.4 20.05 -1.6 M-0.25 -4.75 Q-2.25 -2.95 -4.95 1.2 -8.35 6.4 -9.65 10.95 -10.3 6.45 -8.8 2.95 -6.6 -2.1 -0.2 -4.8 L-0.25 -4.75 M50.5 36.6 L41.85 39.0 40.25 39.45 Q34.1 41.05 33.25 41.05 27.9 41.05 26.4 39.45 L21.8 31.4 22.0 30.85 Q22.3 30.3 22.8 30.25 25.05 35.7 27.2 37.6 28.55 38.8 30.55 38.8 L39.1 37.95 39.95 37.9 50.5 36.6 M31.75 5.95 Q32.45 4.9 32.35 3.6 32.1 0.1 27.7 0.1 26.6 0.1 25.75 1.15 24.9 2.2 24.9 3.55 24.9 4.85 25.45 5.55 26.6 7.05 30.0 7.05 31.05 7.05 31.75 5.95 M22.0 18.75 L20.55 20.05 19.8 18.8 19.35 18.45 22.0 18.75 M15.85 22.9 L8.2 23.3 -17.0 22.15 Q-23.9 21.45 -26.25 20.75 L-24.8 14.4 -17.25 14.95 -19.6 16.0 -18.7 17.7 15.1 19.85 Q15.2 21.2 15.85 22.9 M28.65 24.75 Q28.1 25.25 27.35 25.25 26.6 25.25 26.05 24.75 25.5 24.2 25.5 23.45 25.5 22.7 26.05 22.2 26.6 21.65 27.35 21.65 28.1 21.65 28.65 22.2 29.2 22.7 29.2 23.45 29.2 24.2 28.65 24.75 M18.8 19.95 Q19.2 20.3 19.2 20.85 19.2 21.4 18.8 21.8 L17.85 22.15 Q17.3 22.15 16.9 21.8 16.5 21.4 16.5 20.85 16.5 20.3 16.9 19.95 17.3 19.55 17.85 19.55 18.4 19.55 18.8 19.95" fill="#eaeaea" fill-rule="evenodd" stroke="none"/>
    <path d="M16.05 -12.75 Q26.1 -13.95 34.55 -12.7 42.35 -6.6 44.5 -4.05 48.2 0.25 53.45 11.15 L53.4 11.15 Q48.05 5.7 45.95 4.05 L40.8 0.9 Q35.4 -4.8 31.0 -7.55 24.4 -11.7 16.05 -12.75 M-10.3 -14.7 Q-13.35 -12.35 -17.9 -4.55 -23.25 4.55 -25.2 12.85 L-32.4 12.45 -32.3 10.6 Q-29.0 3.25 -24.1 -2.95 -17.65 -11.2 -10.25 -14.75 L-10.3 -14.7" fill="#ad0b0b" fill-rule="evenodd" stroke="none"/>
    <path d="M42.2 13.4 Q43.1 19.65 42.95 25.7 L39.65 23.8 33.0 30.2 34.4 20.55 26.6 15.5 31.15 14.8 Q32.25 15.45 33.15 15.35 34.05 15.25 35.3 14.2 L35.45 13.95 36.0 13.15 36.25 12.05 36.15 10.55 36.15 10.5 37.25 4.55 41.35 13.45 42.2 13.4" fill="#1055b6" fill-rule="evenodd" stroke="none"/>
    <path d="M48.25 35.4 L54.15 34.5 54.7 31.65 54.45 36.05 50.5 36.6 39.95 37.9 39.1 37.95 30.55 38.8 Q28.55 38.8 27.2 37.6 25.05 35.7 22.8 30.25 L22.4 29.3 21.15 25.75 Q21.75 24.0 21.35 22.35 L23.25 18.9 22.0 18.75 19.35 18.45 19.8 18.8 Q18.2 18.2 15.45 19.15 L17.05 18.1 -17.25 14.95 -24.8 14.4 -25.65 14.35 -33.85 13.9 -33.05 12.4 -32.4 12.45 -25.2 12.85 -21.65 13.05 -18.7 13.25 -14.1 13.6 -10.55 13.9 3.25 15.1 11.6 15.65 Q19.35 16.35 25.05 17.9 L22.15 24.0 Q25.05 32.2 26.85 34.85 28.45 37.25 30.75 37.25 L38.7 36.5 40.45 36.35 48.25 35.4" fill="#989898" fill-rule="evenodd" stroke="none"/>
    <path d="M36.15 10.55 L36.25 12.05 36.0 13.15 35.45 13.95 36.15 10.55 M35.3 14.2 Q34.05 15.25 33.15 15.35 32.25 15.45 31.15 14.8 L35.3 14.2" fill="#1965d2" fill-rule="evenodd" stroke="none"/>
    <path d="M-6.45 54.15 Q0.0 42.05 7.6 30.0 L1.65 30.0 -6.8 42.7 Q-11.85 50.55 -13.3 53.25 L-17.6 49.55 -17.05 50.0 -4.25 29.5 -10.7 29.4 -17.15 29.75 -22.65 40.0 Q-27.15 48.75 -27.8 50.8 -30.65 49.1 -32.55 42.3 L-33.9 37.65 Q-34.55 34.7 -34.55 28.85 L-11.8 28.75 4.75 29.55 Q11.25 30.2 13.75 31.05 L18.35 40.4 8.5 53.1 -6.45 54.15" fill="url(#gradient0)" fill-rule="evenodd" stroke="none"/>
    <path d="M20.55 40.0 L9.35 54.55 -5.35 55.75 Q-8.55 55.75 -12.8 53.9 -16.55 52.3 -19.1 50.3 L-23.1 54.05 Q-30.1 53.7 -33.15 45.75 -35.45 39.7 -36.2 26.3 L-8.0 27.25 10.95 27.4 14.05 28.05 Q14.75 28.05 15.0 28.5 16.2 32.0 20.55 40.0 M-6.45 54.15 L8.5 53.1 18.35 40.4 13.75 31.05 Q11.25 30.2 4.75 29.55 L-11.8 28.75 -34.55 28.85 Q-34.55 34.7 -33.9 37.65 L-32.55 42.3 Q-30.65 49.1 -27.8 50.8 L-23.55 52.4 -19.4 48.5 -17.6 49.55 -13.3 53.25 -6.45 54.15" fill="#21649a" fill-rule="evenodd" stroke="none"/>
    <path d="M-13.3 53.25 Q-11.85 50.55 -6.8 42.7 L1.65 30.0 7.6 30.0 Q0.0 42.05 -6.45 54.15 L-13.3 53.25 M-27.8 50.8 Q-27.15 48.75 -22.65 40.0 L-17.15 29.75 -10.7 29.4 -4.25 29.5 -17.05 50.0 -17.6 49.55 -19.4 48.5 -23.55 52.4 -27.8 50.8" fill="url(#gradient1)" fill-rule="evenodd" stroke="none"/>
  </g>
  <defs>
    <linearGradient gradientTransform="matrix(0.0342, 0.0, 0.0, 0.0179, -7.4, 40.2)" gradientUnits="userSpaceOnUse" id="gradient0" spreadMethod="pad" x1="-819.2" x2="819.2">
      <stop offset="0.0" stop-color="#2082d2" stop-opacity="0.8392157"/>
      <stop offset="0.4470588235294118" stop-color="#2082d2" stop-opacity="0.27058825"/>
      <stop offset="0.6705882352941176" stop-color="#2082d2" stop-opacity="0.25490198"/>
      <stop offset="1.0" stop-color="#2082d2" stop-opacity="0.8117647"/>
    </linearGradient>
    <linearGradient gradientTransform="matrix(0.0342, 0.0, 0.0, 0.0179, -7.4, 40.2)" gradientUnits="userSpaceOnUse" id="gradient1" spreadMethod="pad" x1="-819.2" x2="819.2">
      <stop offset="0.0" stop-color="#e7f4ff"/>
      <stop offset="0.5411764705882353" stop-color="#e7f4ff" stop-opacity="0.5137255"/>
      <stop offset="1.0" stop-color="#e7f4ff"/>
    </linearGradient>
  </defs>
</svg>
