<?xml version="1.0" encoding="UTF-8" standalone="no"?>
<svg xmlns:ffdec="https://www.free-decompiler.com/flash" xmlns:xlink="http://www.w3.org/1999/xlink" ffdec:objectType="shape" height="162.6px" width="102.25px" xmlns="http://www.w3.org/2000/svg">
  <g transform="matrix(1.0, 0.0, 0.0, 1.0, 49.7, 121.65)">
    <path d="M25.25 -3.4 Q24.9 -2.7 24.9 -1.65 24.9 -0.6 25.25 0.15 25.6 0.85 26.1 0.85 26.6 0.85 26.95 0.15 27.3 -0.6 27.3 -1.65 27.3 -2.7 26.95 -3.4 26.6 -4.15 26.1 -4.15 25.6 -4.15 25.25 -3.4 M6.15 -6.6 L4.9 -6.7 Q4.0 -2.95 5.4 -0.2 L5.2 -2.65 Q5.2 -4.0 6.15 -6.6 M-46.3 -17.3 Q-41.0 -14.2 -11.65 -9.65 18.6 -4.95 26.25 -6.8 L35.15 -5.35 Q42.55 -3.6 42.55 -0.4 L42.15 1.9 41.75 4.15 42.2 5.8 42.6 7.4 42.15 10.05 Q37.25 24.9 27.15 32.0 17.25 38.95 1.5 38.95 -11.15 38.95 -18.85 33.4 L-23.5 29.55 Q-25.7 27.8 -27.5 27.8 L-30.5 24.6 -34.0 20.6 -37.85 14.8 Q-41.75 7.15 -42.75 4.5 -46.85 -6.5 -46.3 -17.3 M-27.7 -70.15 Q-32.3 -56.85 -32.3 -45.65 -32.3 -44.65 -29.0 -33.4 L-18.2 -46.5 Q-18.9 -55.15 -18.9 -59.15 -18.9 -77.35 -17.05 -88.35 -17.45 -88.15 -17.8 -87.9 L-14.85 -90.9 Q-16.1 -84.1 -16.5 -72.5 L-16.7 -60.7 -16.25 -53.7 -15.2 -43.25 -29.7 -28.15 Q-34.55 -41.25 -34.55 -42.25 -34.55 -54.25 -27.7 -70.15 M-44.0 -12.45 Q-42.8 0.65 -40.35 6.3 -38.45 10.6 -30.85 20.05 -25.8 24.15 -20.2 26.95 -18.0 28.4 -13.6 28.85 L-8.95 29.0 Q3.6 29.0 10.45 20.75 L14.3 15.1 Q15.95 12.5 17.0 12.5 17.6 12.5 17.8 11.2 L18.05 9.3 18.15 8.1 Q8.0 6.5 4.65 5.4 -0.75 3.6 1.6 -2.4 -7.55 -1.95 -24.35 -5.6 -41.45 -9.25 -44.0 -12.45 M18.4 30.8 L18.3 29.95 Q15.5 29.85 14.75 31.45 14.4 32.25 14.6 33.15 14.6 34.15 14.75 33.85 L14.75 33.95 15.5 34.05 16.55 33.9 18.2 33.7 18.4 30.8 M18.15 28.3 L18.3 29.15 21.55 29.35 Q21.75 29.25 21.75 25.9 21.75 24.8 20.65 24.8 20.2 24.8 19.7 25.25 18.75 26.1 18.15 28.3 M22.75 19.35 Q22.05 19.35 21.6 20.05 21.1 20.75 21.1 21.75 21.1 22.75 21.6 23.45 22.05 24.15 22.75 24.15 23.45 24.15 23.95 23.45 24.4 22.75 24.4 21.75 24.4 20.75 23.95 20.05 23.45 19.35 22.75 19.35 M25.85 17.9 Q26.25 17.15 26.25 16.15 26.25 15.15 25.85 14.45 25.4 13.7 24.8 13.7 24.2 13.7 23.8 14.45 23.35 15.15 23.35 16.15 23.35 17.15 23.8 17.9 24.2 18.6 24.8 18.6 25.4 18.6 25.85 17.9 M24.85 10.25 Q24.85 11.3 25.2 12.05 25.55 12.75 26.05 12.75 26.55 12.75 26.9 12.05 27.25 11.3 27.25 10.25 27.25 9.2 26.9 8.5 26.55 7.75 26.05 7.75 25.55 7.75 25.2 8.5 24.85 9.2 24.85 10.25 M26.4 1.85 Q25.5 2.1 25.4 2.9 L25.45 4.2 18.95 4.2 9.6 3.8 Q11.4 4.75 13.9 5.45 19.55 7.05 26.4 6.8 L27.15 6.7 27.35 6.55 27.35 2.15 26.4 1.85" fill="#9f2020" fill-rule="evenodd" stroke="none"/>
    <path d="M-32.75 -31.7 Q-39.35 -39.7 -35.05 -54.9 -32.8 -62.8 -28.15 -72.25 -25.75 -78.8 -23.0 -84.45 -19.1 -92.45 -16.8 -93.05 L-15.65 -93.4 -10.75 -94.75 Q-12.15 -91.6 -13.55 -80.25 -15.0 -68.85 -15.0 -60.95 -15.0 -54.55 -13.85 -42.55 L-30.05 -25.6 -31.9 -29.75 -32.75 -31.7 M26.25 -6.8 L35.05 -7.65 Q41.5 -8.55 43.75 -9.35 L48.9 -11.25 48.6 -9.45 Q47.7 18.1 32.3 30.95 20.3 40.95 1.5 40.95 -14.7 40.95 -27.3 30.75 -37.9 22.15 -42.75 9.65 -45.75 3.75 -47.35 -5.95 -48.7 -14.2 -48.3 -18.95 -47.35 -18.0 -46.3 -17.3 -46.85 -6.5 -42.75 4.5 -41.75 7.15 -37.85 14.8 L-34.0 20.6 -30.5 24.6 -27.5 27.8 Q-25.7 27.8 -23.5 29.55 L-18.85 33.4 Q-11.15 38.95 1.5 38.95 17.25 38.95 27.15 32.0 37.25 24.9 42.15 10.05 L42.6 7.4 42.2 5.8 41.75 4.15 42.15 1.9 42.55 -0.4 Q42.55 -3.6 35.15 -5.35 L26.25 -6.8 M-27.7 -70.15 Q-34.55 -54.25 -34.55 -42.25 -34.55 -41.25 -29.7 -28.15 L-15.2 -43.25 -16.25 -53.7 -16.7 -60.7 -16.5 -72.5 Q-16.1 -84.1 -14.85 -90.9 L-17.8 -87.9 Q-22.5 -84.6 -27.0 -72.15 L-27.7 -70.15" fill="#532222" fill-rule="evenodd" stroke="none"/>
    <path d="M-34.25 -14.5 Q-15.6 -8.4 15.45 -8.4 47.5 -9.5 47.5 -12.8 L48.05 -13.7 48.6 -15.1 48.15 -16.8 Q47.7 -18.0 47.7 -18.5 L48.6 -40.05 Q48.6 -56.15 45.4 -68.85 42.3 -81.05 34.65 -96.05 L32.9 -98.95 Q27.15 -109.35 16.8 -115.0 8.35 -119.65 0.25 -119.65 -3.1 -119.65 -6.95 -118.5 -12.45 -116.85 -15.2 -113.45 -19.4 -110.4 -23.6 -102.15 -27.95 -93.65 -32.0 -80.35 -37.6 -65.1 -39.0 -57.75 -40.4 -50.65 -41.15 -48.65 L-47.0 -25.35 -47.7 -22.3 Q-47.7 -21.2 -44.65 -19.2 -41.2 -16.95 -35.8 -15.0 L-34.25 -14.5 M48.9 -11.25 L43.75 -9.35 Q41.5 -8.55 35.05 -7.65 L26.25 -6.8 Q18.6 -4.95 -11.65 -9.65 -41.0 -14.2 -46.3 -17.3 -47.35 -18.0 -48.3 -18.95 L-49.2 -21.0 -49.7 -22.4 -46.85 -32.4 Q-43.0 -46.5 -38.2 -66.9 -30.75 -98.65 -19.6 -111.65 -11.0 -121.65 1.45 -121.65 33.75 -121.65 46.05 -74.8 52.55 -50.15 52.55 -16.15 52.55 -15.2 51.8 -14.0 50.85 -12.4 48.9 -11.25" fill="#40362d" fill-rule="evenodd" stroke="none"/>
    <path d="M-9.1 -76.7 L-9.1 -76.6 -3.0 -75.55 2.3 -75.2 7.9 -75.45 9.15 -79.3 1.2 -79.0 7.7 -83.15 Q8.5 -82.05 9.4 -79.5 L10.2 -76.6 Q10.2 -74.95 8.0 -71.75 5.45 -68.0 4.45 -63.05 L4.4 -62.9 Q4.4 -62.75 5.0 -62.75 5.7 -62.75 9.3 -67.0 12.95 -71.25 16.0 -71.25 18.35 -71.25 18.35 -68.3 18.35 -64.6 12.45 -56.1 6.55 -47.6 6.55 -44.6 6.55 -43.5 7.3 -43.15 L8.8 -42.95 Q9.5 -42.95 16.7 -46.85 23.9 -50.8 24.85 -50.8 25.95 -50.8 26.65 -50.1 27.55 -49.25 27.55 -47.5 27.55 -39.75 15.1 -31.3 8.85 -27.35 6.5 -25.7 2.6 -22.95 2.6 -21.3 2.6 -20.55 12.45 -19.0 22.3 -17.45 22.3 -15.25 22.3 -13.6 16.1 -12.6 L0.4 -11.65 Q-11.35 -11.65 -17.0 -12.85 -23.6 -14.2 -26.0 -17.8 -23.6 -21.65 -19.0 -22.85 -16.9 -23.45 -16.4 -23.75 -15.35 -24.4 -15.35 -25.85 -15.35 -27.05 -16.9 -27.55 -19.7 -28.45 -22.25 -30.5 L-16.85 -34.6 Q-11.45 -38.85 -11.45 -39.5 L-12.25 -53.1 Q-12.25 -58.7 -11.65 -64.4 L-9.7 -80.05 -9.1 -76.7 M-3.25 -79.3 L-9.6 -80.5 -8.35 -87.15 -3.25 -79.3 M-32.25 -23.45 Q-31.8 -23.0 -31.8 -22.4 -31.8 -21.8 -32.25 -21.35 -32.7 -20.9 -33.3 -20.9 -33.9 -20.9 -34.35 -21.35 -34.8 -21.8 -34.8 -22.4 L-34.35 -23.45 Q-33.9 -23.9 -33.3 -23.9 -32.7 -23.9 -32.25 -23.45" fill="#f2eee6" fill-rule="evenodd" stroke="none"/>
    <path d="M-17.8 -87.9 Q-17.45 -88.15 -17.05 -88.35 -18.9 -77.35 -18.9 -59.15 -18.9 -55.15 -18.2 -46.5 L-29.0 -33.4 Q-32.3 -44.65 -32.3 -45.65 -32.3 -56.85 -27.7 -70.15 L-27.0 -72.15 Q-22.5 -84.6 -17.8 -87.9 M-44.0 -12.45 Q-41.45 -9.25 -24.35 -5.6 -7.55 -1.95 1.6 -2.4 -0.75 3.6 4.65 5.4 8.0 6.5 18.15 8.1 L18.05 9.3 17.8 11.2 Q17.6 12.5 17.0 12.5 15.95 12.5 14.3 15.1 L10.45 20.75 Q3.6 29.0 -8.95 29.0 L-13.6 28.85 Q-18.0 28.4 -20.2 26.95 -25.8 24.15 -30.85 20.05 -38.45 10.6 -40.35 6.3 -42.8 0.65 -44.0 -12.45" fill="#c42626" fill-rule="evenodd" stroke="none"/>
    <path d="M6.15 -6.6 Q5.2 -4.0 5.2 -2.65 L5.4 -0.2 Q4.0 -2.95 4.9 -6.7 L6.15 -6.6 M25.25 -3.4 Q25.6 -4.15 26.1 -4.15 26.6 -4.15 26.95 -3.4 27.3 -2.7 27.3 -1.65 27.3 -0.6 26.95 0.15 26.6 0.85 26.1 0.85 25.6 0.85 25.25 0.15 24.9 -0.6 24.9 -1.65 24.9 -2.7 25.25 -3.4 M26.4 1.85 L27.35 2.15 27.35 6.55 27.15 6.7 26.4 6.8 Q19.55 7.05 13.9 5.45 11.4 4.75 9.6 3.8 L18.95 4.2 25.45 4.2 25.4 2.9 Q25.5 2.1 26.4 1.85 M24.85 10.25 Q24.85 9.2 25.2 8.5 25.55 7.75 26.05 7.75 26.55 7.75 26.9 8.5 27.25 9.2 27.25 10.25 27.25 11.3 26.9 12.05 26.55 12.75 26.05 12.75 25.55 12.75 25.2 12.05 24.85 11.3 24.85 10.25 M25.85 17.9 Q25.4 18.6 24.8 18.6 24.2 18.6 23.8 17.9 23.35 17.15 23.35 16.15 23.35 15.15 23.8 14.45 24.2 13.7 24.8 13.7 25.4 13.7 25.85 14.45 26.25 15.15 26.25 16.15 26.25 17.15 25.85 17.9 M22.75 19.35 Q23.45 19.35 23.95 20.05 24.4 20.75 24.4 21.75 24.4 22.75 23.95 23.45 23.45 24.15 22.75 24.15 22.05 24.15 21.6 23.45 21.1 22.75 21.1 21.75 21.1 20.75 21.6 20.05 22.05 19.35 22.75 19.35 M18.15 28.3 Q18.75 26.1 19.7 25.25 20.2 24.8 20.65 24.8 21.75 24.8 21.75 25.9 21.75 29.25 21.55 29.35 L18.3 29.15 18.15 28.3 M18.4 30.8 L18.2 33.7 16.55 33.9 15.5 34.05 14.75 33.95 14.75 33.85 Q14.6 34.15 14.6 33.15 14.4 32.25 14.75 31.45 15.5 29.85 18.3 29.95 L18.4 30.8" fill="#741818" fill-rule="evenodd" stroke="none"/>
    <path d="M-35.8 -15.0 Q-41.2 -16.95 -44.65 -19.2 -47.7 -21.2 -47.7 -22.3 L-47.0 -25.35 -41.15 -48.65 Q-40.4 -50.65 -39.0 -57.75 -37.6 -65.1 -32.0 -80.35 -27.95 -93.65 -23.6 -102.15 -19.4 -110.4 -15.2 -113.45 -12.45 -116.85 -6.95 -118.5 -3.1 -119.65 0.25 -119.65 8.35 -119.65 16.8 -115.0 27.15 -109.35 32.9 -98.95 L34.65 -96.05 Q42.3 -81.05 45.4 -68.85 48.6 -56.15 48.6 -40.05 L47.7 -18.5 Q47.7 -18.0 48.15 -16.8 L48.6 -15.1 48.05 -13.7 47.5 -12.8 Q47.5 -9.5 15.45 -8.4 -15.6 -8.4 -34.25 -14.5 -33.75 -20.0 -32.2 -20.55 L-31.2 -20.75 Q-30.8 -20.95 -30.8 -22.15 -30.8 -22.8 -31.15 -23.75 -31.6 -24.9 -31.9 -29.75 L-30.05 -25.6 -13.85 -42.55 Q-15.0 -54.55 -15.0 -60.95 -15.0 -68.85 -13.55 -80.25 -12.15 -91.6 -10.75 -94.75 L-15.65 -93.4 -12.65 -101.95 -13.6 -102.3 -16.8 -93.05 Q-19.1 -92.45 -23.0 -84.45 -25.75 -78.8 -28.15 -72.25 -32.8 -62.8 -35.05 -54.9 -39.35 -39.7 -32.75 -31.7 -34.3 -24.65 -35.25 -23.55 -35.8 -22.95 -35.8 -22.4 -35.8 -21.9 -35.3 -21.4 -34.85 -20.9 -34.85 -20.4 L-35.3 -17.3 -35.8 -15.0 M-9.7 -80.05 L-11.65 -64.4 Q-12.25 -58.7 -12.25 -53.1 L-11.45 -39.5 Q-11.45 -38.85 -16.85 -34.6 L-22.25 -30.5 Q-19.7 -28.45 -16.9 -27.55 -15.35 -27.05 -15.35 -25.85 -15.35 -24.4 -16.4 -23.75 -16.9 -23.45 -19.0 -22.85 -23.6 -21.65 -26.0 -17.8 -23.6 -14.2 -17.0 -12.85 -11.35 -11.65 0.4 -11.65 L16.1 -12.6 Q22.3 -13.6 22.3 -15.25 22.3 -17.45 12.45 -19.0 2.6 -20.55 2.6 -21.3 2.6 -22.95 6.5 -25.7 8.85 -27.35 15.1 -31.3 27.55 -39.75 27.55 -47.5 27.55 -49.25 26.65 -50.1 25.95 -50.8 24.85 -50.8 23.9 -50.8 16.7 -46.85 9.5 -42.95 8.8 -42.95 L7.3 -43.15 Q6.55 -43.5 6.55 -44.6 6.55 -47.6 12.45 -56.1 18.35 -64.6 18.35 -68.3 18.35 -71.25 16.0 -71.25 12.95 -71.25 9.3 -67.0 5.7 -62.75 5.0 -62.75 4.4 -62.75 4.4 -62.9 L4.45 -63.05 Q5.45 -68.0 8.0 -71.75 10.2 -74.95 10.2 -76.6 L9.4 -79.5 Q8.5 -82.05 7.7 -83.15 L1.2 -79.0 -3.25 -79.3 -8.35 -87.15 -9.6 -80.5 -9.7 -80.05" fill="#d9ceb7" fill-rule="evenodd" stroke="none"/>
    <path d="M-9.1 -76.7 L-9.7 -80.05 -9.6 -80.5 -3.25 -79.3 1.2 -79.0 9.15 -79.3 7.9 -75.45 8.1 -78.05 Q7.85 -76.45 1.8 -77.15 -2.75 -77.7 -8.9 -79.3 L-9.1 -76.7" fill="#3c4617" fill-rule="evenodd" stroke="none"/>
    <path d="M7.9 -75.45 L2.3 -75.2 -3.0 -75.55 -9.1 -76.6 -9.1 -76.7 -8.9 -79.3 Q-2.75 -77.7 1.8 -77.15 7.85 -76.45 8.1 -78.05 L7.9 -75.45" fill="#7d9432" fill-rule="evenodd" stroke="none"/>
    <path d="M-35.8 -15.0 L-35.3 -17.3 -34.85 -20.4 Q-34.85 -20.9 -35.3 -21.4 -35.8 -21.9 -35.8 -22.4 -35.8 -22.95 -35.25 -23.55 -34.3 -24.65 -32.75 -31.7 L-31.9 -29.75 Q-31.6 -24.9 -31.15 -23.75 -30.8 -22.8 -30.8 -22.15 -30.8 -20.95 -31.2 -20.75 L-32.2 -20.55 Q-33.75 -20.0 -34.25 -14.5 L-35.8 -15.0 M-16.8 -93.05 L-13.6 -102.3 -12.65 -101.95 -15.65 -93.4 -16.8 -93.05 M-32.25 -23.45 Q-32.7 -23.9 -33.3 -23.9 -33.9 -23.9 -34.35 -23.45 L-34.8 -22.4 Q-34.8 -21.8 -34.35 -21.35 -33.9 -20.9 -33.3 -20.9 -32.7 -20.9 -32.25 -21.35 -31.8 -21.8 -31.8 -22.4 -31.8 -23.0 -32.25 -23.45" fill="#5e4f42" fill-rule="evenodd" stroke="none"/>
  </g>
</svg>
