<?xml version="1.0" encoding="UTF-8" standalone="no"?>
<svg xmlns:ffdec="https://www.free-decompiler.com/flash" xmlns:xlink="http://www.w3.org/1999/xlink" ffdec:objectType="shape" height="41.2px" width="80.65px" xmlns="http://www.w3.org/2000/svg">
  <g transform="matrix(1.0, 0.0, 0.0, 1.0, 0.0, 0.0)">
    <path d="M79.65 2.15 L79.65 9.55 71.25 39.0 71.25 31.65 77.2 10.75 79.65 2.15 M64.95 31.65 L64.95 32.85 55.8 32.85 55.8 31.65 64.95 31.65 M40.4 31.65 L40.4 32.85 31.25 32.85 31.25 31.65 40.4 31.65 M15.8 31.65 L15.8 32.85 6.65 32.85 6.65 31.65 15.8 31.65" fill="#9b9b9b" fill-rule="evenodd" stroke="none"/>
    <path d="M7.0 10.75 L9.8 0.9 79.65 0.9 79.65 2.15 77.2 10.75 43.25 10.75 Q44.3 9.7 44.3 8.55 44.3 7.6 42.7 7.0 40.85 6.25 38.25 6.65 L38.6 6.05 38.75 5.0 Q38.75 2.55 35.0 3.1 33.7 3.3 31.4 4.95 29.25 6.5 28.4 6.5 25.05 6.5 23.15 8.5 22.05 9.7 22.05 10.75 L7.0 10.75" fill="#f2f2f2" fill-rule="evenodd" stroke="none"/>
    <path d="M22.05 10.75 Q22.05 9.7 23.15 8.5 25.05 6.5 28.4 6.5 29.25 6.5 31.4 4.95 33.7 3.3 35.0 3.1 38.75 2.55 38.75 5.0 L38.6 6.05 38.25 6.65 Q40.85 6.25 42.7 7.0 44.3 7.6 44.3 8.55 44.3 9.7 43.25 10.75 L42.45 11.4 Q40.8 12.6 39.3 12.3 L43.5 13.2 46.0 12.85 48.45 12.45 51.0 12.7 53.65 13.25 53.25 12.4 Q53.15 12.15 53.75 12.15 57.85 12.15 57.85 18.1 57.85 18.95 56.55 20.8 L55.2 22.7 Q55.8 25.9 55.5 26.8 55.15 28.05 50.7 28.6 L50.5 28.5 50.55 28.4 51.6 26.7 Q51.6 25.6 50.6 25.2 L47.5 25.8 44.55 26.05 Q39.9 26.05 38.4 24.7 L37.3 23.7 37.25 23.7 Q37.1 23.9 37.1 24.5 37.1 24.9 38.55 25.45 40.35 26.1 40.95 26.6 L40.6 27.05 39.5 27.35 Q37.35 27.35 36.4 26.2 35.9 25.55 35.9 24.9 L36.35 24.3 Q36.85 23.8 37.2 23.65 33.95 20.8 31.05 19.15 31.3 19.75 30.2 20.4 29.05 21.05 27.65 21.05 27.5 21.05 26.45 20.45 25.3 19.8 24.7 19.2 L21.85 21.95 Q20.55 22.75 18.9 22.75 17.5 22.75 16.1 22.1 14.1 21.15 14.1 19.4 14.1 16.15 16.4 14.05 18.75 11.9 22.4 11.95 22.05 11.35 22.05 10.75 M39.05 15.45 L42.25 13.7 38.35 12.05 37.35 11.6 38.15 11.7 Q40.55 11.7 42.25 10.9 L42.55 10.75 Q43.95 10.0 43.95 9.05 43.95 7.9 42.3 7.3 L40.05 6.85 Q37.9 6.85 36.1 8.4 L36.5 8.0 37.75 6.3 38.25 4.95 Q38.25 4.15 37.35 3.6 36.65 3.15 35.95 3.15 32.05 4.4 30.45 6.5 L31.6 7.1 32.65 7.7 31.3 7.2 27.95 6.9 Q26.55 6.9 25.05 7.5 22.6 8.45 22.6 10.5 L22.65 10.75 22.75 11.9 Q25.15 12.15 25.95 12.65 L26.55 13.2 26.7 13.45 26.4 13.25 26.35 13.2 Q25.9 12.9 24.75 12.65 L22.85 12.35 Q20.3 12.35 18.25 13.3 14.65 14.95 14.65 19.0 14.65 20.75 15.9 21.7 16.9 22.45 18.15 22.45 20.55 22.45 22.55 21.1 24.6 19.8 25.2 17.7 L25.3 17.15 25.3 17.55 Q25.25 20.75 28.05 20.75 28.9 20.75 29.7 19.95 L30.65 18.85 27.8 17.15 27.8 15.15 Q28.0 16.95 31.4 18.9 L36.05 21.3 35.95 19.95 36.1 19.5 36.55 18.1 36.65 18.0 37.75 16.55 38.15 16.1 39.05 15.45 M40.2 18.15 L42.1 18.1 42.45 18.55 Q41.7 19.35 41.05 19.55 L38.35 20.45 Q38.0 20.45 37.75 20.85 37.45 21.25 37.45 21.8 37.6 22.6 38.3 23.8 L39.7 24.95 Q41.4 25.8 44.6 25.8 L49.1 25.4 50.2 25.05 Q48.6 24.95 47.9 24.15 47.45 23.65 47.45 23.25 L47.65 22.45 49.35 21.3 Q48.5 21.15 48.15 20.8 47.7 20.4 47.7 19.45 47.7 18.2 49.55 17.3 L52.55 16.0 53.6 14.9 53.7 14.85 53.8 14.0 Q53.8 13.0 53.75 13.8 L50.95 13.2 48.3 12.85 Q42.0 12.85 38.75 16.25 37.1 18.0 36.55 20.25 L36.55 20.45 37.9 19.1 40.2 18.15 M44.3 20.2 L44.0 20.45 44.3 20.75 45.05 20.85 45.8 20.75 46.1 20.45 45.8 20.2 45.05 20.05 44.3 20.2 M43.6 21.2 Q43.0 20.9 43.0 20.5 43.0 20.1 43.6 19.8 L45.05 19.5 Q45.9 19.5 46.5 19.8 47.1 20.1 47.1 20.5 47.1 20.9 46.5 21.2 L45.05 21.5 43.6 21.2 M43.5 23.25 Q42.95 22.95 42.95 22.6 42.95 22.25 43.5 22.0 44.05 21.7 44.8 21.7 45.55 21.7 46.1 22.0 46.65 22.25 46.65 22.6 L46.1 23.25 44.8 23.5 43.5 23.25 M45.35 22.75 L45.6 22.6 43.9 22.55 43.9 22.7 45.35 22.75 M55.65 18.95 L52.95 21.1 53.9 21.45 Q54.4 21.7 54.95 22.4 L55.2 22.1 Q55.8 21.65 56.8 19.85 57.2 18.3 56.95 16.9 L55.65 18.95" fill="#ef7676" fill-rule="evenodd" stroke="none"/>
    <path d="M26.55 13.2 L25.95 12.65 Q25.15 12.15 22.75 11.9 L22.65 10.75 22.6 10.5 Q22.6 8.45 25.05 7.5 26.55 6.9 27.95 6.9 L31.3 7.2 32.65 7.7 31.6 7.1 30.45 6.5 Q32.05 4.4 35.95 3.15 36.65 3.15 37.35 3.6 38.25 4.15 38.25 4.95 L37.75 6.3 36.5 8.0 36.1 8.4 Q37.9 6.85 40.05 6.85 L42.3 7.3 Q43.95 7.9 43.95 9.05 43.95 10.0 42.55 10.75 L42.25 10.9 Q40.55 11.7 38.15 11.7 L37.35 11.6 38.35 12.05 42.25 13.7 39.05 15.45 Q36.25 13.45 33.95 12.6 L30.55 11.8 30.05 12.05 30.15 10.75 29.95 8.95 Q29.5 7.65 27.3 7.65 26.55 7.65 25.45 8.1 24.35 8.55 23.75 9.1 23.3 8.9 23.3 9.9 L23.5 10.75 23.85 11.25 Q24.95 12.3 27.85 12.05 27.85 12.25 28.15 12.45 L26.55 13.2 M38.15 16.1 L37.75 16.55 32.45 13.3 32.4 13.05 32.8 12.9 33.85 13.3 38.15 16.1 M36.65 18.0 L36.55 18.1 33.05 15.9 29.5 13.55 31.0 14.2 36.65 18.0 M36.1 19.5 L35.95 19.95 Q31.15 17.3 30.35 16.65 L29.0 15.4 29.05 15.25 29.35 15.1 31.65 16.5 36.1 19.5 M36.05 21.3 L31.4 18.9 Q28.0 16.95 27.8 15.15 L27.8 17.15 30.65 18.85 29.7 19.95 Q28.9 20.75 28.05 20.75 25.25 20.75 25.3 17.55 27.15 14.85 27.9 14.35 L27.8 15.15 Q28.6 16.6 29.3 17.15 L36.05 21.3 M25.2 17.7 Q24.6 19.8 22.55 21.1 20.55 22.45 18.15 22.45 16.9 22.45 15.9 21.7 14.65 20.75 14.65 19.0 14.65 14.95 18.25 13.3 20.3 12.35 22.85 12.35 L24.75 12.65 Q25.9 12.9 26.35 13.2 L26.4 13.25 21.2 14.55 Q15.55 15.85 15.55 19.05 15.55 20.7 17.15 21.4 L18.9 21.75 Q22.5 21.75 24.3 19.0 L25.2 17.7 M38.35 20.45 L38.1 22.2 38.3 23.8 Q37.6 22.6 37.45 21.8 37.45 21.25 37.75 20.85 38.0 20.45 38.35 20.45 M52.55 16.0 Q50.1 15.35 48.15 15.35 46.25 15.35 43.8 16.2 41.3 17.05 40.2 18.15 L37.9 19.1 36.55 20.45 36.55 20.25 Q37.1 18.0 38.75 16.25 42.0 12.85 48.3 12.85 L50.95 13.2 53.75 13.8 Q53.8 13.0 53.8 14.0 L53.7 14.85 53.6 14.9 52.55 16.0 M55.2 22.1 Q55.75 21.25 55.65 18.95 L56.95 16.9 Q57.2 18.3 56.8 19.85 55.8 21.65 55.2 22.1 M36.75 4.7 Q36.25 4.0 35.25 4.0 34.4 4.0 33.5 4.7 32.65 5.35 32.65 5.8 L33.25 7.75 Q33.9 9.7 33.85 10.75 L34.0 10.75 37.05 5.5 36.75 4.7" fill="#ffb3b3" fill-rule="evenodd" stroke="none"/>
    <path d="M1.05 31.65 L7.0 10.75 22.05 10.75 Q22.05 11.35 22.4 11.95 18.75 11.9 16.4 14.05 14.1 16.15 14.1 19.4 14.1 21.15 16.1 22.1 17.5 22.75 18.9 22.75 20.55 22.75 21.85 21.95 L24.7 19.2 Q25.3 19.8 26.45 20.45 27.5 21.05 27.65 21.05 29.05 21.05 30.2 20.4 31.3 19.75 31.05 19.15 33.95 20.8 37.2 23.65 36.85 23.8 36.35 24.3 L35.9 24.9 Q35.9 25.55 36.4 26.2 37.35 27.35 39.5 27.35 L40.6 27.05 40.95 26.6 Q40.35 26.1 38.55 25.45 37.1 24.9 37.1 24.5 37.1 23.9 37.25 23.7 L37.3 23.7 38.4 24.7 Q39.9 26.05 44.55 26.05 L47.5 25.8 50.6 25.2 Q51.6 25.6 51.6 26.7 L50.55 28.4 50.5 28.5 50.7 28.6 Q55.15 28.05 55.5 26.8 55.8 25.9 55.2 22.7 L56.55 20.8 Q57.85 18.95 57.85 18.1 57.85 12.15 53.75 12.15 53.15 12.15 53.25 12.4 L53.65 13.25 51.0 12.7 48.45 12.45 46.0 12.85 43.5 13.2 39.3 12.3 Q40.8 12.6 42.45 11.4 L43.25 10.75 77.2 10.75 71.25 31.65 64.95 31.65 55.8 31.65 40.4 31.65 31.25 31.65 15.8 31.65 6.65 31.65 1.05 31.65 M39.05 15.45 L38.15 16.1 33.85 13.3 32.8 12.9 32.4 13.05 32.45 13.3 37.75 16.55 36.65 18.0 31.0 14.2 29.5 13.55 33.05 15.9 36.55 18.1 36.1 19.5 31.65 16.5 29.35 15.1 29.05 15.25 29.0 15.4 30.35 16.65 Q31.15 17.3 35.95 19.95 L36.05 21.3 29.3 17.15 Q28.6 16.6 27.8 15.15 L27.9 14.35 Q27.15 14.85 25.3 17.55 L25.3 17.15 25.2 17.7 24.3 19.0 Q22.5 21.75 18.9 21.75 L17.15 21.4 Q15.55 20.7 15.55 19.05 15.55 15.85 21.2 14.55 L26.4 13.25 26.7 13.45 26.55 13.2 28.15 12.45 Q27.85 12.25 27.85 12.05 24.95 12.3 23.85 11.25 L23.5 10.75 23.3 9.9 Q23.3 8.9 23.75 9.1 24.35 8.55 25.45 8.1 26.55 7.65 27.3 7.65 29.5 7.65 29.95 8.95 L30.15 10.75 30.05 12.05 30.55 11.8 33.95 12.6 Q36.25 13.45 39.05 15.45 M38.35 20.45 L41.05 19.55 Q41.7 19.35 42.45 18.55 L42.1 18.1 40.2 18.15 Q41.3 17.05 43.8 16.2 46.25 15.35 48.15 15.35 50.1 15.35 52.55 16.0 L49.55 17.3 Q47.7 18.2 47.7 19.45 47.7 20.4 48.15 20.8 48.5 21.15 49.35 21.3 L47.65 22.45 47.45 23.25 Q47.45 23.65 47.9 24.15 48.6 24.95 50.2 25.05 L49.1 25.4 44.6 25.8 Q41.4 25.8 39.7 24.95 L38.3 23.8 38.1 22.2 38.35 20.45 M45.35 22.75 L43.9 22.7 43.9 22.55 45.6 22.6 45.35 22.75 M43.5 23.25 L44.8 23.5 46.1 23.25 46.65 22.6 Q46.65 22.25 46.1 22.0 45.55 21.7 44.8 21.7 44.05 21.7 43.5 22.0 42.95 22.25 42.95 22.6 42.95 22.95 43.5 23.25 M43.6 21.2 L45.05 21.5 46.5 21.2 Q47.1 20.9 47.1 20.5 47.1 20.1 46.5 19.8 45.9 19.5 45.05 19.5 L43.6 19.8 Q43.0 20.1 43.0 20.5 43.0 20.9 43.6 21.2 M44.3 20.2 L45.05 20.05 45.8 20.2 46.1 20.45 45.8 20.75 45.05 20.85 44.3 20.75 44.0 20.45 44.3 20.2 M55.65 18.95 Q55.75 21.25 55.2 22.1 L54.95 22.4 Q54.4 21.7 53.9 21.45 L52.95 21.1 55.65 18.95 M36.75 4.7 L37.05 5.5 34.0 10.75 33.85 10.75 Q33.9 9.7 33.25 7.75 L32.65 5.8 Q32.65 5.35 33.5 4.7 34.4 4.0 35.25 4.0 36.25 4.0 36.75 4.7" fill="#ffffff" fill-rule="evenodd" stroke="none"/>
    <path d="M60.6 33.95 L60.6 33.5 60.7 33.2 61.0 33.1 61.8 33.1 62.1 33.2 62.2 33.5 62.2 33.95 62.1 34.2 61.8 34.35 61.0 34.35 60.7 34.2 60.6 33.95 M51.25 35.1 Q52.0 34.35 53.05 34.35 L53.35 34.35 Q54.2 34.35 54.7 34.85 55.3 35.3 55.3 36.0 55.3 36.75 54.85 37.1 54.35 37.5 53.6 37.5 L52.3 37.5 53.05 37.8 54.8 37.8 54.75 39.3 53.05 39.3 Q52.05 39.3 51.25 38.6 50.55 37.8 50.55 36.8 50.55 35.8 51.25 35.1 M53.05 35.75 Q52.35 35.75 52.05 36.35 L53.35 36.35 53.7 36.15 53.55 35.85 53.05 35.75 M65.65 36.2 L65.05 35.95 Q64.65 35.95 64.4 36.2 64.1 36.5 64.1 36.85 64.1 37.2 64.4 37.5 L65.05 37.75 65.65 37.5 65.9 36.85 65.65 36.2 M62.5 36.85 Q62.5 35.85 63.25 35.1 63.95 34.35 65.0 34.35 65.5 34.35 65.9 34.75 L65.9 34.4 67.55 34.4 67.55 39.3 65.9 39.3 65.9 38.95 Q65.55 39.35 65.0 39.35 63.9 39.35 63.25 38.65 62.5 37.9 62.5 36.85 M41.95 34.75 L41.95 39.3 40.35 39.3 40.35 34.75 41.95 34.75 M60.6 39.3 L60.6 34.75 62.2 34.75 62.2 39.3 60.6 39.3 M48.1 35.75 L46.55 35.75 46.55 34.4 50.5 34.4 48.95 37.95 50.5 37.95 50.5 39.3 46.55 39.3 48.1 35.75 M42.25 35.75 L42.25 34.4 46.2 34.4 44.65 37.95 46.2 37.95 46.2 39.3 42.25 39.3 43.8 35.75 42.25 35.75 M40.75 33.1 L41.55 33.1 41.85 33.2 41.95 33.5 41.95 33.95 41.85 34.2 41.55 34.35 40.75 34.35 40.45 34.2 40.35 33.95 40.35 33.5 40.45 33.2 40.75 33.1 M55.8 34.4 L57.4 34.4 57.4 34.65 Q57.7 34.35 58.1 34.35 58.75 34.35 59.4 34.85 59.9 35.35 59.9 36.15 L59.9 37.35 58.3 37.35 58.3 36.35 58.15 36.0 57.85 35.9 57.55 36.0 Q57.4 36.2 57.4 36.35 L57.4 39.3 55.8 39.3 55.8 34.4 M8.1 34.9 Q8.55 35.45 8.55 36.2 8.55 36.95 8.1 37.45 7.65 37.95 6.95 37.95 L5.8 37.95 5.8 39.3 4.2 39.3 4.2 34.4 6.95 34.4 Q7.6 34.4 8.1 34.9 M6.85 36.5 L6.95 36.2 6.85 35.9 6.55 35.75 5.8 35.75 5.8 36.65 6.55 36.65 6.85 36.5 M18.55 36.85 Q18.55 35.85 19.3 35.1 20.0 34.35 21.05 34.35 21.55 34.35 21.95 34.75 L21.95 34.4 23.6 34.4 23.6 39.3 21.95 39.3 21.95 38.95 Q21.6 39.35 21.05 39.35 19.95 39.35 19.3 38.65 18.55 37.9 18.55 36.85 M17.9 34.9 Q18.35 35.45 18.35 36.2 18.35 36.95 17.9 37.45 17.45 37.95 16.75 37.95 L15.6 37.95 15.6 39.3 14.0 39.3 14.0 34.4 16.75 34.4 Q17.4 34.4 17.9 34.9 M16.75 36.2 L16.65 35.9 16.35 35.75 15.6 35.75 15.6 36.65 16.35 36.65 16.65 36.5 16.75 36.2 M11.25 34.35 Q11.75 34.35 12.15 34.75 L12.15 34.4 13.8 34.4 13.8 39.3 12.15 39.3 12.15 38.95 Q11.8 39.35 11.25 39.35 10.15 39.35 9.5 38.65 8.75 37.9 8.75 36.85 8.75 35.85 9.5 35.1 10.2 34.35 11.25 34.35 M10.65 36.2 Q10.35 36.5 10.35 36.85 10.35 37.2 10.65 37.5 L11.3 37.75 11.9 37.5 12.15 36.85 11.9 36.2 11.3 35.95 Q10.9 35.95 10.65 36.2 M38.3 34.4 Q38.95 34.4 39.45 34.9 39.9 35.45 39.9 36.2 L39.45 37.45 Q39.0 37.95 38.3 37.95 L37.15 37.95 37.15 39.3 35.55 39.3 35.55 34.4 38.3 34.4 M37.9 35.75 L37.15 35.75 37.15 36.65 37.9 36.65 38.2 36.5 38.3 36.2 38.2 35.9 37.9 35.75 M27.5 35.8 L27.45 35.9 Q27.65 36.15 28.0 36.2 L29.0 36.55 Q29.5 36.9 29.5 37.65 29.5 38.6 28.8 39.0 L27.4 39.35 25.7 39.0 26.0 37.75 26.5 37.95 27.2 38.05 Q27.75 38.05 27.75 37.75 27.55 37.55 27.2 37.45 L26.2 37.15 Q25.7 36.85 25.7 36.15 25.7 35.4 26.3 34.85 26.85 34.35 27.8 34.35 L29.3 34.6 29.1 36.05 Q28.35 35.65 27.85 35.65 27.65 35.65 27.5 35.8 M25.0 36.3 L24.05 36.3 23.8 34.4 25.25 34.4 25.0 36.3 M21.95 36.85 L21.7 36.2 21.1 35.95 20.45 36.2 Q20.15 36.5 20.15 36.85 L20.45 37.5 21.1 37.75 21.7 37.5 21.95 36.85" fill="#ea4d4d" fill-rule="evenodd" stroke="none"/>
    <path d="M71.25 39.0 L70.9 40.3 1.0 40.3 1.05 31.65 6.65 31.65 6.65 32.85 15.8 32.85 15.8 31.65 31.25 31.65 31.25 32.85 40.4 32.85 40.4 31.65 55.8 31.65 55.8 32.85 64.95 32.85 64.95 31.65 71.25 31.65 71.25 39.0 M53.05 35.75 L53.55 35.85 53.7 36.15 53.35 36.35 52.05 36.35 Q52.35 35.75 53.05 35.75 M51.25 35.1 Q50.55 35.8 50.55 36.8 50.55 37.8 51.25 38.6 52.05 39.3 53.05 39.3 L54.75 39.3 54.8 37.8 53.05 37.8 52.3 37.5 53.6 37.5 Q54.35 37.5 54.85 37.1 55.3 36.75 55.3 36.0 55.3 35.3 54.7 34.85 54.2 34.35 53.35 34.35 L53.05 34.35 Q52.0 34.35 51.25 35.1 M60.6 33.95 L60.7 34.2 61.0 34.35 61.8 34.35 62.1 34.2 62.2 33.95 62.2 33.5 62.1 33.2 61.8 33.1 61.0 33.1 60.7 33.2 60.6 33.5 60.6 33.95 M55.8 34.4 L55.8 39.3 57.4 39.3 57.4 36.35 Q57.4 36.2 57.55 36.0 L57.85 35.9 58.15 36.0 58.3 36.35 58.3 37.35 59.9 37.35 59.9 36.15 Q59.9 35.35 59.4 34.85 58.75 34.35 58.1 34.35 57.7 34.35 57.4 34.65 L57.4 34.4 55.8 34.4 M40.75 33.1 L40.45 33.2 40.35 33.5 40.35 33.95 40.45 34.2 40.75 34.35 41.55 34.35 41.85 34.2 41.95 33.95 41.95 33.5 41.85 33.2 41.55 33.1 40.75 33.1 M42.25 35.75 L43.8 35.75 42.25 39.3 46.2 39.3 46.2 37.95 44.65 37.95 46.2 34.4 42.25 34.4 42.25 35.75 M48.1 35.75 L46.55 39.3 50.5 39.3 50.5 37.95 48.95 37.95 50.5 34.4 46.55 34.4 46.55 35.75 48.1 35.75 M60.6 39.3 L62.2 39.3 62.2 34.75 60.6 34.75 60.6 39.3 M41.95 34.75 L40.35 34.75 40.35 39.3 41.95 39.3 41.95 34.75 M62.5 36.85 Q62.5 37.9 63.25 38.65 63.9 39.35 65.0 39.35 65.55 39.35 65.9 38.95 L65.9 39.3 67.55 39.3 67.55 34.4 65.9 34.4 65.9 34.75 Q65.5 34.35 65.0 34.35 63.95 34.35 63.25 35.1 62.5 35.85 62.5 36.85 M65.65 36.2 L65.9 36.85 65.65 37.5 65.05 37.75 64.4 37.5 Q64.1 37.2 64.1 36.85 64.1 36.5 64.4 36.2 64.65 35.95 65.05 35.95 L65.65 36.2 M10.65 36.2 Q10.9 35.95 11.3 35.95 L11.9 36.2 12.15 36.85 11.9 37.5 11.3 37.75 10.65 37.5 Q10.35 37.2 10.35 36.85 10.35 36.5 10.65 36.2 M11.25 34.35 Q10.2 34.35 9.5 35.1 8.75 35.85 8.75 36.85 8.75 37.9 9.5 38.65 10.15 39.35 11.25 39.35 11.8 39.35 12.15 38.95 L12.15 39.3 13.8 39.3 13.8 34.4 12.15 34.4 12.15 34.75 Q11.75 34.35 11.25 34.35 M16.75 36.2 L16.65 36.5 16.35 36.65 15.6 36.65 15.6 35.75 16.35 35.75 16.65 35.9 16.75 36.2 M17.9 34.9 Q17.4 34.4 16.75 34.4 L14.0 34.4 14.0 39.3 15.6 39.3 15.6 37.95 16.75 37.95 Q17.45 37.95 17.9 37.45 18.35 36.95 18.35 36.2 18.35 35.45 17.9 34.9 M18.55 36.85 Q18.55 37.9 19.3 38.65 19.95 39.35 21.05 39.35 21.6 39.35 21.95 38.95 L21.95 39.3 23.6 39.3 23.6 34.4 21.95 34.4 21.95 34.75 Q21.55 34.35 21.05 34.35 20.0 34.35 19.3 35.1 18.55 35.85 18.55 36.85 M6.85 36.5 L6.55 36.65 5.8 36.65 5.8 35.75 6.55 35.75 6.85 35.9 6.95 36.2 6.85 36.5 M8.1 34.9 Q7.6 34.4 6.95 34.4 L4.2 34.4 4.2 39.3 5.8 39.3 5.8 37.95 6.95 37.95 Q7.65 37.95 8.1 37.45 8.55 36.95 8.55 36.2 8.55 35.45 8.1 34.9 M37.9 35.75 L38.2 35.9 38.3 36.2 38.2 36.5 37.9 36.65 37.15 36.65 37.15 35.75 37.9 35.75 M38.3 34.4 L35.55 34.4 35.55 39.3 37.15 39.3 37.15 37.95 38.3 37.95 Q39.0 37.95 39.45 37.45 L39.9 36.2 Q39.9 35.45 39.45 34.9 38.95 34.4 38.3 34.4 M21.95 36.85 L21.7 37.5 21.1 37.75 20.45 37.5 20.15 36.85 Q20.15 36.5 20.45 36.2 L21.1 35.95 21.7 36.2 21.95 36.85 M25.0 36.3 L25.25 34.4 23.8 34.4 24.05 36.3 25.0 36.3 M27.5 35.8 Q27.65 35.65 27.85 35.65 28.35 35.65 29.1 36.05 L29.3 34.6 27.8 34.35 Q26.85 34.35 26.3 34.85 25.7 35.4 25.7 36.15 25.7 36.85 26.2 37.15 L27.2 37.45 Q27.55 37.55 27.75 37.75 27.75 38.05 27.2 38.05 L26.5 37.95 26.0 37.75 25.7 39.0 27.4 39.35 28.8 39.0 Q29.5 38.6 29.5 37.65 29.5 36.9 29.0 36.55 L28.0 36.2 Q27.65 36.15 27.45 35.9 L27.5 35.8" fill="#d6d6d6" fill-rule="evenodd" stroke="none"/>
    <path d="M79.65 2.15 L79.65 0.9 9.8 0.9 7.0 10.75 1.05 31.65 1.0 40.3 70.9 40.3 71.25 39.0 79.65 9.55 79.65 2.15 M80.65 9.55 L71.55 41.2 0.15 41.15 0.0 31.65 9.1 0.0 80.5 0.05 80.65 9.55" fill="#666666" fill-rule="evenodd" stroke="none"/>
  </g>
</svg>
