<?xml version="1.0" encoding="UTF-8" standalone="no"?>
<svg xmlns:ffdec="https://www.free-decompiler.com/flash" xmlns:xlink="http://www.w3.org/1999/xlink" ffdec:objectType="shape" height="47.6px" width="31.2px" xmlns="http://www.w3.org/2000/svg">
  <g transform="matrix(1.0, 0.0, 0.0, 1.0, 15.55, 5.75)">
    <path d="M-0.05 -3.55 Q0.5 -3.3 2.1 -2.8 L4.05 -2.25 Q5.5 0.25 5.5 2.85 L5.0 4.85 Q4.5 6.35 4.5 6.85 4.5 8.1 7.65 12.95 10.75 17.75 10.75 20.55 10.75 22.45 9.7 23.6 8.85 24.55 7.85 24.55 6.7 24.55 5.5 23.35 3.4 17.25 1.75 14.8 0.75 13.35 -0.8 12.65 -1.85 11.85 -2.65 11.85 -4.8 11.85 -5.05 23.65 -5.3 35.45 -7.65 35.45 -8.5 35.45 -9.7 34.4 -11.5 32.7 -13.25 28.8 -13.85 24.2 -13.2 19.85 -12.6 15.75 -10.2 7.65 L-9.75 7.85 -9.5 6.35 Q-8.25 2.6 -6.75 0.2 -3.95 -4.3 -0.05 -3.55 M-9.8 37.2 L-11.65 34.3 -10.65 35.4 -9.8 37.2" fill="#ffcc99" fill-rule="evenodd" stroke="none"/>
    <path d="M5.65 -2.35 L6.6 -3.1 7.35 -3.8 Q8.8 -2.85 10.15 -1.1 12.75 2.2 12.75 6.05 L12.3 8.8 11.85 11.5 13.75 15.95 Q15.65 20.55 15.65 23.25 15.65 26.5 11.8 29.8 9.85 31.45 7.8 32.45 5.85 32.45 4.0 31.45 3.75 32.15 2.2 33.7 0.5 35.4 -0.4 37.25 L-1.75 40.1 Q-3.05 41.85 -5.45 41.85 -7.0 41.85 -9.3 40.25 L-11.35 38.6 Q-11.55 38.6 -13.15 35.25 L-14.9 31.0 Q-15.55 26.95 -15.55 24.55 -15.55 11.2 -9.7 2.15 -5.4 -4.45 -1.0 -5.75 L-0.6 -4.55 -0.05 -3.55 Q-3.95 -4.3 -6.75 0.2 -8.25 2.6 -9.5 6.35 L-10.2 7.65 Q-12.6 15.75 -13.2 19.85 -13.85 24.2 -13.25 28.8 L-12.85 30.9 -11.65 34.3 -9.8 37.2 -8.05 38.7 Q-6.5 39.7 -5.5 39.7 -3.7 39.7 -2.95 38.5 -1.95 36.85 -1.95 32.05 L-2.9 21.4 Q-2.9 17.6 -2.1 15.1 -1.5 13.15 -0.8 12.65 0.75 13.35 1.75 14.8 3.4 17.25 5.5 23.35 L7.35 26.1 Q8.9 27.7 10.8 27.7 11.6 27.7 12.4 26.95 13.65 25.7 13.65 23.1 13.65 18.45 11.55 14.4 7.4 6.35 6.8 4.8 L6.7 4.75 7.3 4.7 7.7 5.0 10.4 9.1 10.7 6.45 Q10.7 4.3 8.95 1.35 7.25 -1.45 5.65 -2.35 M0.95 17.5 L0.8 17.05 Q0.2 18.85 -0.3 21.75 L-0.7 25.2 0.05 32.9 1.35 32.0 Q2.2 31.2 2.2 30.25 L1.1 18.35 Q0.95 18.5 0.95 17.5 M8.9 29.45 Q5.2 28.4 3.65 24.1 3.25 28.95 5.1 29.85 L8.5 30.2 8.9 29.45" fill="#5c4730" fill-rule="evenodd" stroke="none"/>
    <path d="M4.05 -2.25 L5.65 -2.35 Q7.25 -1.45 8.95 1.35 10.7 4.3 10.7 6.45 L10.4 9.1 7.7 5.0 7.3 4.7 6.7 4.75 6.8 4.8 Q7.4 6.35 11.55 14.4 13.65 18.45 13.65 23.1 13.65 25.7 12.4 26.95 11.6 27.7 10.8 27.7 8.9 27.7 7.35 26.1 L5.5 23.35 Q6.7 24.55 7.85 24.55 8.85 24.55 9.7 23.6 10.75 22.45 10.75 20.55 10.75 17.75 7.65 12.95 4.5 8.1 4.5 6.85 4.5 6.35 5.0 4.85 L5.5 2.85 Q5.5 0.25 4.05 -2.25 M-0.8 12.65 Q-1.5 13.15 -2.1 15.1 -2.9 17.6 -2.9 21.4 L-1.95 32.05 Q-1.95 36.85 -2.95 38.5 -3.7 39.7 -5.5 39.7 -6.5 39.7 -8.05 38.7 L-9.8 37.2 -10.65 35.4 -11.65 34.3 -12.85 30.9 -13.25 28.8 Q-11.5 32.7 -9.7 34.4 -8.5 35.45 -7.65 35.45 -5.3 35.45 -5.05 23.65 -4.8 11.85 -2.65 11.85 -1.85 11.85 -0.8 12.65 M8.9 29.45 L8.5 30.2 5.1 29.85 Q3.25 28.95 3.65 24.1 5.2 28.4 8.9 29.45 M0.95 17.5 Q0.95 18.5 1.1 18.35 L2.2 30.25 Q2.2 31.2 1.35 32.0 L0.05 32.9 -0.7 25.2 -0.3 21.75 Q0.2 18.85 0.8 17.05 L0.95 17.5" fill="#f1ba87" fill-rule="evenodd" stroke="none"/>
  </g>
</svg>
