<?xml version="1.0" encoding="UTF-8" standalone="no"?>
<svg xmlns:ffdec="https://www.free-decompiler.com/flash" xmlns:xlink="http://www.w3.org/1999/xlink" ffdec:objectType="shape" height="18.4px" width="37.7px" xmlns="http://www.w3.org/2000/svg">
  <g transform="matrix(1.0, 0.0, 0.0, 1.0, 12.0, 5.1)">
    <path d="M18.1 -3.2 L23.15 4.85 Q19.8 8.35 17.0 9.6 13.5 11.2 7.4 11.2 L0.45 10.1 -6.55 8.6 -3.25 -0.05 0.55 0.3 4.8 0.85 Q7.4 0.85 11.75 -0.5 16.05 -1.8 18.1 -3.2 M3.9 3.85 Q12.55 3.85 15.85 1.85 17.35 0.95 18.15 -1.3 L11.55 0.2 5.1 1.4 1.55 0.85 -2.05 0.3 Q-2.75 0.3 -3.2 1.4 -3.6 2.3 -3.6 3.2 -3.6 4.2 -3.25 3.8 L3.9 3.85" fill="#e1752d" fill-rule="evenodd" stroke="none"/>
    <path d="M3.9 3.85 L-3.25 3.8 Q-3.6 4.2 -3.6 3.2 -3.6 2.3 -3.2 1.4 -2.75 0.3 -2.05 0.3 L1.55 0.85 5.1 1.4 11.55 0.2 18.15 -1.3 Q17.35 0.95 15.85 1.85 12.55 3.85 3.9 3.85" fill="#e99a65" fill-rule="evenodd" stroke="none"/>
    <path d="M-4.95 -1.8 L-3.25 -0.05 -6.55 8.6 0.45 10.1 7.4 11.2 Q13.5 11.2 17.0 9.6 19.8 8.35 23.15 4.85 L18.1 -3.2 19.5 -4.25 23.1 1.45 Q24.6 3.95 24.6 4.6 24.6 7.15 18.95 9.7 13.3 12.2 7.55 12.2 -0.05 12.2 -3.65 11.1 -5.65 10.5 -9.6 7.9 L-4.95 -1.8" fill="#be5c1b" fill-rule="evenodd" stroke="none"/>
    <path d="M-4.95 -1.8 L-9.6 7.9 -10.65 7.25 Q-11.1 6.95 -11.1 6.35 L-7.05 -2.7 -4.95 -1.8" fill="#924614" fill-rule="evenodd" stroke="none"/>
    <path d="M-2.25 -1.15 Q-0.8 -0.2 3.6 -0.2 8.85 -0.2 12.55 -1.6 14.85 -2.5 19.75 -5.1 L23.3 -0.65 Q25.7 2.65 25.7 4.9 25.7 8.15 19.5 10.55 13.55 12.9 6.55 13.25 -0.5 13.55 -6.05 11.3 -11.65 9.05 -12.0 6.35 -7.5 -3.4 -6.15 -3.65 L-2.25 -1.15 M-3.25 -0.05 L-4.95 -1.8 -7.05 -2.7 -11.1 6.35 Q-11.1 6.95 -10.65 7.25 L-9.6 7.9 Q-5.65 10.5 -3.65 11.1 -0.05 12.2 7.55 12.2 13.3 12.2 18.95 9.7 24.6 7.15 24.6 4.6 24.6 3.95 23.1 1.45 L19.5 -4.25 18.1 -3.2 Q16.05 -1.8 11.75 -0.5 7.4 0.85 4.8 0.85 L0.55 0.3 -3.25 -0.05" fill="#56290c" fill-rule="evenodd" stroke="none"/>
  </g>
</svg>
