<?xml version="1.0" encoding="UTF-8" standalone="no"?>
<svg xmlns:ffdec="https://www.free-decompiler.com/flash" xmlns:xlink="http://www.w3.org/1999/xlink" ffdec:objectType="shape" height="54.45px" width="38.1px" xmlns="http://www.w3.org/2000/svg">
  <g transform="matrix(1.0, 0.0, 0.0, 1.0, 8.45, 3.35)">
    <path d="M8.85 35.9 Q9.35 34.4 11.8 32.0 15.25 28.6 19.65 27.55 22.2 30.95 25.0 37.55 L27.6 44.15 Q27.6 46.95 25.35 48.0 24.45 40.75 23.05 37.55 L22.65 36.75 Q20.95 33.65 17.2 33.65 16.05 33.65 14.5 34.4 11.8 35.7 10.4 38.6 L8.85 35.9" fill="#1f1f1f" fill-rule="evenodd" stroke="none"/>
    <path d="M10.4 38.6 Q11.8 35.7 14.5 34.4 16.05 33.65 17.2 33.65 20.95 33.65 22.65 36.75 L23.05 37.55 Q24.45 40.75 25.35 48.0 23.8 48.95 21.95 48.95 20.35 48.95 18.5 47.3 L12.65 41.15 10.4 38.6" fill="#333333" fill-rule="evenodd" stroke="none"/>
    <path d="M14.4 46.15 L13.7 45.55 12.85 44.7 12.5 44.3 12.6 44.2 12.55 44.15 Q11.0 44.15 9.95 41.75 8.85 39.3 8.85 35.9 L10.4 38.6 12.65 41.15 18.5 47.3 Q20.35 48.95 21.95 48.95 23.8 48.95 25.35 48.0 27.6 46.95 27.6 44.15 L25.0 37.55 Q22.2 30.95 19.65 27.55 L21.15 27.85 Q23.0 28.7 24.65 31.5 L26.1 34.7 26.65 35.55 27.55 37.55 28.45 39.45 Q29.65 41.85 29.65 44.95 29.65 47.75 26.5 49.65 24.1 51.1 22.4 51.1 20.2 51.1 18.0 49.8 15.75 48.45 14.4 46.15" fill="#121212" fill-rule="evenodd" stroke="none"/>
    <path d="M12.5 44.3 L12.45 44.25 12.6 44.2 12.5 44.3" fill="#4b3121" fill-rule="evenodd" stroke="none"/>
    <path d="M12.45 44.25 L12.55 44.15 12.6 44.2 12.45 44.25" fill="#a32901" fill-rule="evenodd" stroke="none"/>
    <path d="M13.7 45.55 L13.7 45.65 13.55 45.4 12.65 45.65 10.05 46.15 Q8.9 46.15 7.65 45.55 5.85 44.6 4.7 42.65 L2.1 36.3 -1.8 26.05 Q-6.65 12.7 -6.65 5.7 L-6.25 4.5 Q-5.6 3.35 -3.85 1.65 L-3.7 1.55 Q-1.6 -0.65 0.15 -1.85 2.7 -2.15 5.8 0.95 L8.95 4.5 Q13.95 10.6 22.95 23.5 L24.65 26.3 21.75 26.15 Q13.5 26.15 8.8 32.85 5.6 37.45 5.6 40.7 L5.75 41.9 6.25 43.3 6.1 43.45 Q8.1 45.7 10.1 45.7 11.25 45.7 12.65 44.85 L12.85 44.7 13.7 45.55 M24.65 31.5 L25.5 29.6 25.75 28.85 Q26.7 31.85 26.1 34.7 L24.65 31.5 M5.55 4.5 L3.7 2.15 1.35 -0.55 -0.05 0.85 Q-3.15 4.05 -3.15 6.55 -3.15 9.9 -1.65 14.5 L1.0 22.4 Q1.65 24.65 4.15 31.5 L5.2 34.4 5.85 35.85 5.85 35.9 Q7.2 33.35 10.1 30.45 15.6 24.9 15.6 23.1 15.25 20.25 11.45 13.75 8.05 7.95 5.55 4.5" fill="#70202d" fill-rule="evenodd" stroke="none"/>
    <path d="M14.4 46.15 L12.65 47.5 12.0 47.75 9.15 48.0 Q8.0 48.0 6.55 47.2 4.25 45.9 3.05 43.25 2.35 41.7 -2.0 29.45 -3.75 24.45 -8.45 6.45 -8.45 5.5 -8.0 4.5 -7.1 2.45 -4.45 0.1 -0.6 -3.35 1.95 -3.35 4.65 -3.35 11.3 4.5 L17.35 12.2 Q28.5 27.15 28.5 29.7 28.4 32.95 26.65 35.55 L26.1 34.7 Q26.7 31.85 25.75 28.85 L25.5 29.6 24.65 31.5 Q23.0 28.7 21.15 27.85 L19.65 27.55 Q15.25 28.6 11.8 32.0 9.35 34.4 8.85 35.9 8.85 39.3 9.95 41.75 11.0 44.15 12.55 44.15 L12.45 44.25 12.5 44.3 12.85 44.7 12.65 44.85 Q11.25 45.7 10.1 45.7 8.1 45.7 6.1 43.45 L6.25 43.3 5.75 41.9 5.6 40.7 Q5.6 37.45 8.8 32.85 13.5 26.15 21.75 26.15 L24.65 26.3 22.95 23.5 Q13.95 10.6 8.95 4.5 L5.8 0.95 Q2.7 -2.15 0.15 -1.85 -1.6 -0.65 -3.7 1.55 L-3.85 1.65 Q-5.6 3.35 -6.25 4.5 L-6.65 5.7 Q-6.65 12.7 -1.8 26.05 L2.1 36.3 4.7 42.65 Q5.85 44.6 7.65 45.55 8.9 46.15 10.05 46.15 L12.65 45.65 13.55 45.4 13.7 45.65 13.7 45.55 14.4 46.15" fill="#380f15" fill-rule="evenodd" stroke="none"/>
    <path d="M5.55 4.5 Q8.05 7.95 11.45 13.75 15.25 20.25 15.6 23.1 15.6 24.9 10.1 30.45 7.2 33.35 5.85 35.9 L5.85 35.85 5.2 34.4 4.15 31.5 Q1.65 24.65 1.0 22.4 L-1.65 14.5 Q-3.15 9.9 -3.15 6.55 -3.15 4.05 -0.05 0.85 L1.35 -0.55 3.7 2.15 5.55 4.5 M6.6 11.35 L5.25 8.55 Q4.35 6.9 3.25 5.75 1.75 3.6 0.7 4.95 -0.15 6.05 -0.15 7.85 -0.15 9.95 2.0 18.35 4.6 28.65 6.1 28.65 6.6 28.65 7.7 27.2 L9.0 25.5 Q9.8 24.8 11.5 23.85 12.35 23.4 12.35 22.6 12.35 21.5 9.55 16.5 L6.6 11.35" fill="#912b3c" fill-rule="evenodd" stroke="none"/>
    <path d="M6.6 11.35 L9.55 16.5 Q12.35 21.5 12.35 22.6 12.35 23.4 11.5 23.85 9.8 24.8 9.0 25.5 L7.7 27.2 Q6.6 28.65 6.1 28.65 4.6 28.65 2.0 18.35 -0.15 9.95 -0.15 7.85 -0.15 6.05 0.7 4.95 1.75 3.6 3.25 5.75 4.35 6.9 5.25 8.55 L6.6 11.35" fill="#a83246" fill-rule="evenodd" stroke="none"/>
  </g>
</svg>
