<?xml version="1.0" encoding="UTF-8" standalone="no"?>
<svg xmlns:ffdec="https://www.free-decompiler.com/flash" xmlns:xlink="http://www.w3.org/1999/xlink" ffdec:objectType="shape" height="182.75px" width="61.45px" xmlns="http://www.w3.org/2000/svg">
  <g transform="matrix(1.0, 0.0, 0.0, 1.0, -1.35, -5.8)">
    <path d="M51.3 38.05 L53.65 40.65 55.95 42.95 Q56.5 40.5 56.5 38.25 56.5 36.8 52.45 28.85 L48.4 21.05 48.8 18.15 49.15 15.2 49.0 14.2 48.8 13.95 48.8 14.2 46.45 25.2 Q46.7 31.35 47.35 32.6 47.95 33.8 51.3 38.05 M56.8 20.9 Q58.65 23.45 58.5 24.9 L58.15 28.3 Q57.9 30.1 59.95 31.3 61.65 32.35 62.05 33.5 L61.95 33.5 Q60.05 33.35 60.05 35.35 L60.3 36.65 Q60.6 37.5 61.2 37.85 60.2 40.05 60.25 40.4 L61.7 43.4 Q63.1 46.0 62.75 48.6 L62.55 49.15 Q60.8 48.65 58.0 46.3 55.4 44.15 55.0 44.15 54.0 44.15 50.6 39.7 L47.05 34.75 Q44.85 32.4 44.85 28.0 44.85 21.15 46.7 15.75 47.75 12.75 49.75 8.0 L52.05 10.6 Q53.05 13.85 54.15 16.3 53.15 17.1 53.15 18.65 L53.5 19.85 Q54.15 21.05 55.75 21.05 L56.8 20.9 M50.4 55.85 Q56.5 56.7 56.5 51.6 56.5 49.3 55.2 47.85 54.0 46.5 52.4 46.5 52.25 46.5 51.65 46.9 L49.05 48.3 Q48.25 50.85 48.25 52.15 48.25 53.15 49.05 54.4 L50.4 55.85 M58.2 53.3 Q57.75 54.6 56.7 55.7 54.9 57.45 52.4 57.45 49.9 57.45 48.15 55.7 46.35 53.9 46.35 51.4 46.35 48.9 48.15 47.15 49.9 45.35 52.4 45.35 54.9 45.35 56.7 47.15 L56.85 47.3 57.95 48.95 Q56.55 49.35 56.55 50.95 L56.9 52.15 Q57.35 53.0 58.2 53.3 M24.8 20.05 L25.05 26.4 Q25.05 30.85 20.9 35.55 20.6 35.55 19.05 39.55 17.5 43.5 17.45 44.25 L17.25 46.75 18.25 53.15 Q19.25 59.95 19.25 62.45 19.25 68.3 17.35 71.25 14.8 75.15 8.65 75.0 5.65 68.25 5.9 66.65 L6.4 62.95 Q6.6 60.8 4.0 58.25 1.35 55.65 1.35 51.7 2.4 46.9 3.5 44.05 L2.7 40.4 Q2.25 38.95 4.15 36.55 6.0 34.1 6.0 33.45 L5.65 31.35 Q5.25 29.75 5.3 28.45 5.3 27.15 6.6 25.55 7.85 23.95 8.7 22.1 9.5 20.25 10.0 16.3 10.45 14.8 13.2 11.5 16.75 7.2 20.3 5.8 L23.35 12.3 Q24.15 14.7 24.6 17.95 24.05 17.15 22.85 17.1 L22.7 15.95 21.15 10.3 Q19.1 11.15 16.55 14.05 L13.3 17.9 15.05 22.55 Q14.9 23.45 13.15 24.3 11.3 25.25 10.45 27.9 L9.05 32.7 Q7.75 33.3 7.75 35.15 L7.85 36.3 8.05 36.65 7.9 37.15 Q6.9 41.45 6.9 43.3 L8.05 48.05 7.35 49.25 Q6.65 50.65 6.65 52.35 6.65 54.5 9.4 56.65 12.1 58.85 12.1 59.9 L11.25 62.6 Q10.4 64.75 10.4 65.25 10.4 67.15 11.45 68.8 12.2 70.05 14.25 72.05 L15.7 70.55 16.55 69.35 17.15 67.9 17.6 65.25 17.7 59.7 17.25 55.65 16.5 51.1 Q16.05 48.4 15.95 45.95 L15.95 44.05 Q16.1 42.95 18.2 38.65 L21.0 32.9 Q23.15 29.7 23.45 28.4 L23.55 25.8 23.3 21.5 Q24.05 21.35 24.5 20.65 L24.8 20.05 M34.3 89.5 Q35.4 88.25 36.45 85.5 L37.3 82.75 36.75 80.3 36.65 79.95 37.15 79.35 37.6 78.25 37.9 78.8 38.9 83.25 Q38.9 87.5 35.9 90.55 32.9 93.55 28.65 93.55 24.4 93.55 21.4 90.55 18.4 87.5 18.4 83.25 18.4 79.0 21.4 76.0 24.4 72.95 28.65 72.95 32.85 72.95 35.85 75.95 35.15 76.0 34.7 76.35 L34.6 76.25 32.95 75.3 31.7 74.8 30.3 74.45 26.7 75.55 23.5 76.75 20.75 79.95 Q19.8 83.5 19.8 84.0 L21.0 86.9 Q22.5 89.95 24.2 91.45 L27.6 92.1 30.45 91.4 Q33.15 90.55 34.3 89.5 M45.35 107.1 L45.75 106.15 51.4 95.05 Q54.1 91.8 55.15 90.85 L57.05 89.5 58.05 94.1 56.5 99.5 57.1 101.45 57.85 103.95 Q58.0 104.5 56.85 106.9 L55.5 109.7 Q55.3 110.1 55.5 111.45 L55.75 113.4 54.5 117.2 Q53.2 120.9 52.95 123.3 L52.8 124.5 Q51.05 124.45 51.05 126.35 L51.3 127.65 51.35 127.7 Q51.05 128.25 51.2 128.8 48.75 127.8 46.1 121.8 43.75 116.55 43.75 114.65 43.75 112.55 44.35 110.25 L44.5 110.85 Q44.9 111.6 45.65 111.9 L45.3 114.05 46.5 118.15 48.45 124.05 Q49.8 117.9 51.85 110.75 53.0 106.75 53.0 104.2 53.0 101.9 52.35 99.7 L51.65 97.95 51.75 97.4 48.15 103.65 46.95 106.5 46.7 106.55 Q45.9 106.7 45.35 107.1 M38.75 132.1 Q41.2 132.55 43.05 134.7 45.35 137.45 45.35 141.3 45.35 145.15 43.05 147.9 40.7 150.65 37.4 150.65 34.1 150.65 31.8 147.9 29.45 145.15 29.45 141.3 29.45 137.45 31.8 134.7 32.95 133.3 34.4 132.65 L34.3 133.65 34.4 134.4 33.5 135.15 Q32.05 136.6 31.35 138.6 31.5 139.75 33.45 145.35 L35.4 147.2 Q37.25 148.8 37.85 149.05 L40.3 148.45 42.6 147.5 43.4 145.35 43.85 143.9 43.35 140.8 42.55 137.45 40.55 134.85 Q39.95 134.55 38.95 134.2 L39.0 133.4 38.75 132.1 M42.2 174.6 L48.1 178.35 Q45.65 184.45 42.05 186.85 39.4 188.55 35.6 188.55 31.45 188.55 29.95 187.0 L27.8 183.8 24.45 179.6 Q22.2 176.6 22.5 174.95 22.8 173.25 22.7 172.2 22.5 170.5 21.95 170.05 L20.25 168.65 Q19.9 168.25 19.7 167.05 19.6 166.3 19.85 164.5 20.05 163.15 19.45 161.95 18.8 160.75 17.7 157.3 16.55 153.8 16.85 152.35 19.45 152.4 23.85 154.3 27.6 155.95 30.05 157.75 32.05 159.25 34.95 165.05 L37.5 170.5 38.35 171.2 Q38.05 171.65 38.05 172.4 38.05 173.0 38.2 173.5 L35.9 169.85 33.45 164.6 31.6 161.6 29.05 158.85 26.85 157.2 24.5 155.9 Q25.0 157.0 24.2 159.85 23.2 163.45 23.2 165.1 L25.2 168.45 25.15 168.95 25.2 170.15 Q25.4 170.75 25.9 171.05 L24.6 173.65 Q24.6 174.2 29.45 179.5 34.7 185.25 36.7 185.25 39.2 185.25 41.4 183.3 43.7 181.25 44.8 177.85 L41.3 175.85 40.1 175.05 40.75 175.1 Q41.75 175.1 42.2 174.6" fill="#954a00" fill-rule="evenodd" stroke="none"/>
    <path d="M46.45 25.2 L48.8 14.2 48.8 13.95 49.0 14.2 49.15 15.2 48.8 18.15 48.4 21.05 52.45 28.85 Q56.5 36.8 56.5 38.25 56.5 40.5 55.95 42.95 L53.65 40.65 51.3 38.05 50.45 34.1 Q49.35 30.7 46.45 25.2 M49.05 48.3 L51.65 46.9 Q52.25 46.5 52.4 46.5 54.0 46.5 55.2 47.85 56.5 49.3 56.5 51.6 56.5 56.7 50.4 55.85 51.15 53.6 50.55 52.0 49.55 50.1 49.05 48.3 M17.7 59.7 L17.6 65.25 16.85 65.25 Q16.45 64.0 14.75 63.5 12.5 62.85 12.5 65.15 12.5 66.0 12.8 66.6 13.1 67.2 13.7 67.5 13.8 68.15 14.45 68.65 15.15 69.15 16.55 69.35 L15.7 70.55 14.25 72.05 Q12.2 70.05 11.45 68.8 10.4 67.15 10.4 65.25 10.4 64.75 11.25 62.6 L12.1 59.9 Q12.1 58.85 9.4 56.65 6.65 54.5 6.65 52.35 6.65 50.65 7.35 49.25 L8.05 48.05 6.9 43.3 Q6.9 41.45 7.9 37.15 L8.05 36.65 Q8.55 37.4 10.0 37.4 12.05 37.4 12.05 34.55 12.05 32.0 9.9 32.4 9.4 32.5 9.05 32.7 L10.45 27.9 Q11.3 25.25 13.15 24.3 14.9 23.45 15.05 22.55 L13.3 17.9 16.55 14.05 Q19.1 11.15 21.15 10.3 L22.7 15.95 Q22.3 16.25 21.9 17.1 20.05 17.4 20.05 19.65 L20.25 20.65 20.35 20.8 Q19.75 22.6 19.65 23.35 19.05 27.3 16.65 29.3 14.45 31.1 14.45 32.1 L14.85 33.95 15.25 35.75 12.45 42.15 Q9.6 49.05 9.6 52.0 9.6 53.9 13.0 56.35 L17.7 59.7 M24.2 91.45 Q22.5 89.95 21.0 86.9 L19.8 84.0 Q19.8 83.5 20.75 79.95 21.75 80.95 21.75 82.2 L21.4 84.2 21.0 86.2 24.2 91.45 M48.15 103.65 L51.75 97.4 51.65 97.95 52.35 99.7 Q53.0 101.9 53.0 104.2 53.0 106.75 51.85 110.75 49.8 117.9 48.45 124.05 L46.5 118.15 45.3 114.05 46.5 112.05 46.75 112.05 Q49.25 112.05 49.25 108.95 49.25 106.8 47.9 106.5 47.85 105.1 48.15 103.65 M42.55 137.45 L43.35 140.8 43.85 143.9 43.4 145.35 42.6 147.5 41.2 145.0 Q40.75 143.65 40.75 140.95 L42.55 137.45 M41.3 175.85 L44.8 177.85 Q43.7 181.25 41.4 183.3 39.2 185.25 36.7 185.25 34.7 185.25 29.45 179.5 24.6 174.2 24.6 173.65 L25.9 171.05 26.75 171.25 Q27.6 171.25 28.15 170.35 28.65 169.55 28.65 168.8 28.65 166.9 26.9 166.95 25.4 167.0 25.2 168.45 L23.2 165.1 Q23.2 163.45 24.2 159.85 25.0 157.0 24.5 155.9 L26.85 157.2 Q26.85 157.9 27.5 158.4 28.15 158.85 29.05 158.85 L31.6 161.6 Q29.05 162.25 27.7 163.1 26.45 163.85 26.45 164.55 26.45 164.95 28.2 166.75 L29.95 168.6 29.45 170.85 Q28.95 172.6 28.95 173.1 28.95 175.45 30.75 176.95 32.85 178.65 36.85 178.65 L38.5 178.4 Q40.25 177.75 41.3 175.85" fill="#bb5e00" fill-rule="evenodd" stroke="none"/>
    <path d="M51.3 38.05 Q47.95 33.8 47.35 32.6 46.7 31.35 46.45 25.2 49.35 30.7 50.45 34.1 L51.3 38.05 M50.4 55.85 L49.05 54.4 Q48.25 53.15 48.25 52.15 48.25 50.85 49.05 48.3 49.55 50.1 50.55 52.0 51.15 53.6 50.4 55.85 M23.3 21.5 L23.55 25.8 Q22.95 26.9 22.25 29.25 L21.0 32.9 18.2 38.65 Q16.1 42.95 15.95 44.05 15.8 43.6 14.85 43.6 13.8 43.6 13.1 44.85 12.4 46.1 12.4 47.9 12.4 49.7 13.1 50.95 13.8 52.2 14.85 52.2 L16.5 51.1 17.25 55.65 17.7 59.7 13.0 56.35 Q9.6 53.9 9.6 52.0 9.6 49.05 12.45 42.15 L15.25 35.75 14.85 33.95 14.45 32.1 Q14.45 31.1 16.65 29.3 19.05 27.3 19.65 23.35 19.75 22.6 20.35 20.8 21.0 21.55 22.85 21.55 L23.3 21.5 M17.6 65.25 L17.15 67.9 16.55 69.35 Q15.15 69.15 14.45 68.65 13.8 68.15 13.7 67.5 L15.35 67.85 Q17.0 67.85 17.0 66.15 L16.85 65.25 17.6 65.25 M22.7 15.95 L22.85 17.1 22.5 17.05 21.9 17.1 Q22.3 16.25 22.7 15.95 M27.6 92.1 L24.2 91.45 21.0 86.2 21.4 84.2 21.75 82.2 Q21.75 80.95 20.75 79.95 L23.5 76.75 26.4 87.2 27.6 92.1 M21.5 85.5 L21.6 86.55 Q21.75 86.9 22.75 87.5 L24.0 87.5 Q25.55 87.05 25.55 85.9 25.55 83.5 23.55 83.55 21.5 83.65 21.5 85.5 M46.95 106.5 L48.15 103.65 Q47.85 105.1 47.9 106.5 L46.95 106.5 M45.3 114.05 L45.65 111.9 46.5 112.05 45.3 114.05 M40.55 134.85 L42.55 137.45 40.75 140.95 Q40.75 143.65 41.2 145.0 L42.6 147.5 40.3 148.45 37.85 149.05 Q37.15 146.15 37.15 144.95 37.15 144.35 37.7 143.0 L40.55 134.85 M40.1 175.05 L41.3 175.85 Q40.25 177.75 38.5 178.4 L36.85 178.65 Q32.85 178.65 30.75 176.95 28.95 175.45 28.95 173.1 28.95 172.6 29.45 170.85 L29.95 168.6 28.2 166.75 Q26.45 164.95 26.45 164.55 26.45 163.85 27.7 163.1 29.05 162.25 31.6 161.6 L33.45 164.6 Q33.45 168.5 34.95 171.3 36.4 173.95 38.45 174.05 38.95 174.9 40.1 175.05 M26.85 157.2 L29.05 158.85 Q28.15 158.85 27.5 158.4 26.85 157.9 26.85 157.2" fill="#e97300" fill-rule="evenodd" stroke="none"/>
    <path d="M23.55 25.8 L23.45 28.4 Q23.15 29.7 21.0 32.9 L22.25 29.25 Q22.95 26.9 23.55 25.8 M15.95 44.05 L15.95 45.95 Q16.05 48.4 16.5 51.1 L14.85 52.2 Q13.8 52.2 13.1 50.95 12.4 49.7 12.4 47.9 12.4 46.1 13.1 44.85 13.8 43.6 14.85 43.6 15.8 43.6 15.95 44.05 M34.7 76.4 L34.6 76.25 34.7 76.35 34.7 76.4 M31.7 74.8 Q29.65 76.05 28.7 79.0 28.25 80.5 28.2 81.8 28.2 85.1 30.15 87.35 31.9 89.4 34.3 89.5 33.15 90.55 30.45 91.4 L27.6 92.1 26.4 87.2 23.5 76.75 26.7 75.55 30.3 74.45 31.7 74.8 M38.95 134.2 Q39.95 134.55 40.55 134.85 L37.7 143.0 Q37.15 144.35 37.15 144.95 37.15 146.15 37.85 149.05 37.25 148.8 35.4 147.2 L33.45 145.35 Q34.3 144.4 34.95 142.65 L35.5 140.95 Q35.5 139.05 34.45 138.0 33.7 137.3 33.1 137.3 32.95 137.3 31.35 138.6 32.05 136.6 33.5 135.15 L34.4 134.4 34.45 134.9 Q34.9 136.1 36.35 136.1 38.6 136.1 38.95 134.2 M33.45 164.6 L35.9 169.85 38.2 173.5 38.35 173.85 38.45 174.05 Q36.4 173.95 34.95 171.3 33.45 168.5 33.45 164.6" fill="#ff8d1c" fill-rule="evenodd" stroke="none"/>
    <path d="M36.65 79.95 L36.75 80.3 37.3 82.75 36.45 85.5 Q35.4 88.25 34.3 89.5 31.9 89.4 30.15 87.35 28.2 85.1 28.2 81.8 28.25 80.5 28.7 79.0 29.65 76.05 31.7 74.8 L32.95 75.3 34.6 76.25 34.7 76.4 Q34.15 76.9 34.15 77.95 L34.2 79.15 Q34.55 80.25 35.75 80.25 L36.65 79.95 M33.45 145.35 Q31.5 139.75 31.35 138.6 32.95 137.3 33.1 137.3 33.7 137.3 34.45 138.0 35.5 139.05 35.5 140.95 L34.95 142.65 Q34.3 144.4 33.45 145.35" fill="#ffb366" fill-rule="evenodd" stroke="none"/>
    <path d="M54.15 16.3 Q55.25 18.8 56.4 20.35 L56.8 20.9 55.75 21.05 Q54.15 21.05 53.5 19.85 L53.15 18.65 Q53.15 17.1 54.15 16.3 M62.05 33.5 L62.1 33.9 Q62.25 35.25 61.25 37.65 L61.2 37.85 Q60.6 37.5 60.3 36.65 L60.05 35.35 Q60.05 33.35 61.95 33.5 L62.05 33.5 M58.2 53.3 Q57.35 53.0 56.9 52.15 L56.55 50.95 Q56.55 49.35 57.95 48.95 58.45 50.05 58.45 51.4 L58.2 53.3 M24.6 17.95 L24.8 20.05 24.5 20.65 Q24.05 21.35 23.3 21.5 L22.85 21.55 Q21.0 21.55 20.35 20.8 L20.25 20.65 20.05 19.65 Q20.05 17.4 21.9 17.1 L22.5 17.05 22.85 17.1 Q24.05 17.15 24.6 17.95 M8.05 36.65 L7.85 36.3 7.75 35.15 Q7.75 33.3 9.05 32.7 9.4 32.5 9.9 32.4 12.05 32.0 12.05 34.55 12.05 37.4 10.0 37.4 8.55 37.4 8.05 36.65 M16.85 65.25 L17.0 66.15 Q17.0 67.85 15.35 67.85 L13.7 67.5 Q13.1 67.2 12.8 66.6 12.5 66.0 12.5 65.15 12.5 62.85 14.75 63.5 16.45 64.0 16.85 65.25 M36.65 79.95 L35.75 80.25 Q34.55 80.25 34.2 79.15 L34.15 77.95 Q34.15 76.9 34.7 76.4 L34.7 76.35 Q35.15 76.0 35.85 75.95 L35.9 76.0 Q36.95 77.05 37.6 78.2 L37.6 78.25 37.15 79.35 36.65 79.95 M21.5 85.5 Q21.5 83.65 23.55 83.55 25.55 83.5 25.55 85.9 25.55 87.05 24.0 87.5 L22.75 87.5 Q21.75 86.9 21.6 86.55 L21.5 85.5 M45.35 107.1 Q45.9 106.7 46.7 106.55 L46.95 106.5 47.9 106.5 Q49.25 106.8 49.25 108.95 49.25 112.05 46.75 112.05 L46.5 112.05 45.65 111.9 Q44.9 111.6 44.5 110.85 L44.35 110.25 Q44.7 108.7 45.35 107.1 M51.35 127.7 L51.3 127.65 51.05 126.35 Q51.05 124.45 52.8 124.5 52.45 126.3 51.7 127.15 L51.35 127.7 M38.75 132.1 L39.0 133.4 38.95 134.2 Q38.6 136.1 36.35 136.1 34.9 136.1 34.45 134.9 L34.4 134.4 34.3 133.65 34.4 132.65 Q35.75 131.95 37.4 131.95 L38.75 132.1 M38.35 171.2 L42.2 174.6 Q41.75 175.1 40.75 175.1 L40.1 175.05 Q38.95 174.9 38.45 174.05 L38.35 173.85 38.2 173.5 Q38.05 173.0 38.05 172.4 38.05 171.65 38.35 171.2 M25.9 171.05 Q25.4 170.75 25.2 170.15 L25.15 168.95 25.2 168.45 Q25.4 167.0 26.9 166.95 28.65 166.9 28.65 168.8 28.65 169.55 28.15 170.35 27.6 171.25 26.75 171.25 L25.9 171.05" fill="#ba3900" fill-rule="evenodd" stroke="none"/>
  </g>
</svg>
