<?xml version="1.0" encoding="UTF-8" standalone="no"?>
<svg xmlns:ffdec="https://www.free-decompiler.com/flash" xmlns:xlink="http://www.w3.org/1999/xlink" ffdec:objectType="shape" height="15.9px" width="19.25px" xmlns="http://www.w3.org/2000/svg">
  <g transform="matrix(1.0, 0.0, 0.0, 1.0, 30.4, 13.55)">
    <path d="M-27.9 -7.25 L-22.9 -6.2 -22.9 -3.6 -27.9 -4.35 -27.9 -3.1 -15.55 -0.5 -15.3 -7.15 -27.9 -9.2 -27.9 -7.25 M-23.6 -4.4 L-23.6 -5.55 -28.35 -6.35 -28.35 -5.35 -23.6 -4.4 M-28.65 -10.15 L-14.45 -7.55 -14.8 0.4 -28.65 -2.4 -28.65 -10.15 M-29.4 -11.8 L-29.6 -1.65 -13.25 1.6 -12.1 0.65 -11.75 -10.05 -28.2 -12.65 -29.4 -11.8 M-28.3 -13.55 L-11.15 -10.85 -11.5 1.0 -13.05 2.35 -30.2 -1.25 -30.4 -12.05 -28.3 -13.55" fill="#583300" fill-rule="evenodd" stroke="none"/>
    <path d="M-23.6 -4.4 L-28.35 -5.35 -28.35 -6.35 -23.6 -5.55 -23.6 -4.4 M-28.65 -10.15 L-28.65 -2.4 -14.8 0.4 -14.45 -7.55 -28.65 -10.15 M-13.25 1.6 L-29.6 -1.65 -29.4 -11.8 -13.0 -8.9 -13.25 1.6" fill="#ff9606" fill-rule="evenodd" stroke="none"/>
    <path d="M-11.75 -10.05 L-12.1 0.65 -13.25 1.6 -13.0 -8.9 -11.75 -10.05" fill="#af6500" fill-rule="evenodd" stroke="none"/>
    <path d="M-29.4 -11.8 L-28.2 -12.65 -11.75 -10.05 -13.0 -8.9 -29.4 -11.8" fill="#ffb95b" fill-rule="evenodd" stroke="none"/>
  </g>
</svg>
