<?xml version="1.0" encoding="UTF-8" standalone="no"?>
<svg xmlns:ffdec="https://www.free-decompiler.com/flash" xmlns:xlink="http://www.w3.org/1999/xlink" ffdec:objectType="shape" height="415.0px" width="415.0px" xmlns="http://www.w3.org/2000/svg">
  <g transform="matrix(1.0, 0.0, 0.0, 1.0, 0.0, 0.0)">
    <path d="M354.2 354.2 Q293.45 415.0 207.5 415.0 121.55 415.0 60.75 354.2 0.0 293.45 0.0 207.5 0.0 121.55 60.75 60.75 121.55 0.0 207.5 0.0 293.45 0.0 354.2 60.75 415.0 121.55 415.0 207.5 415.0 293.45 354.2 354.2" fill="#000000" fill-opacity="0.003921569" fill-rule="evenodd" stroke="none"/>
    <path d="M140.95 367.55 Q140.95 354.5 159.4 345.25 177.85 336.05 203.95 336.05 230.05 336.05 248.5 345.25 266.95 354.5 266.95 367.55 266.95 380.6 248.5 389.8 230.05 399.05 203.95 399.05 177.85 399.05 159.4 389.8 140.95 380.6 140.95 367.55" fill="#c7c7c7" fill-rule="evenodd" stroke="none"/>
  </g>
</svg>
