<?xml version="1.0" encoding="UTF-8" standalone="no"?>
<svg xmlns:ffdec="https://www.free-decompiler.com/flash" xmlns:xlink="http://www.w3.org/1999/xlink" ffdec:objectType="shape" height="417.0px" width="417.0px" xmlns="http://www.w3.org/2000/svg">
  <g transform="matrix(1.0, 0.0, 0.0, 1.0, 1.0, 1.0)">
    <path d="M354.2 354.2 Q293.45 415.0 207.5 415.0 121.55 415.0 60.75 354.2 0.0 293.45 0.0 207.5 0.0 121.55 60.75 60.75 121.55 0.0 207.5 0.0 293.45 0.0 354.2 60.75 415.0 121.55 415.0 207.5 415.0 293.45 354.2 354.2" fill="#ffffff" fill-rule="evenodd" stroke="none"/>
    <path d="M354.2 354.2 Q293.45 415.0 207.5 415.0 121.55 415.0 60.75 354.2 0.0 293.45 0.0 207.5 0.0 121.55 60.75 60.75 121.55 0.0 207.5 0.0 293.45 0.0 354.2 60.75 415.0 121.55 415.0 207.5 415.0 293.45 354.2 354.2 Z" fill="none" stroke="#b6cba0" stroke-linecap="round" stroke-linejoin="round" stroke-width="2.0"/>
  </g>
</svg>
