<?xml version="1.0" encoding="UTF-8" standalone="no"?>
<svg xmlns:ffdec="https://www.free-decompiler.com/flash" xmlns:xlink="http://www.w3.org/1999/xlink" ffdec:objectType="shape" height="47.05px" width="52.7px" xmlns="http://www.w3.org/2000/svg">
  <g transform="matrix(1.0, 0.0, 0.0, 1.0, 29.35, 3.55)">
    <path d="M-0.8 -3.15 L2.15 -3.3 Q6.35 3.05 14.45 12.1 20.0 18.3 20.0 20.7 L19.75 21.65 19.2 21.95 13.35 16.55 13.1 16.3 10.4 12.7 Q10.25 12.7 9.8 13.05 L9.85 13.35 7.15 11.45 7.45 12.9 Q8.1 14.8 10.95 20.5 12.8 24.15 12.8 27.25 12.8 29.75 12.4 30.9 11.8 32.7 10.1 32.7 8.5 32.7 7.2 28.65 L4.1 17.75 4.0 17.45 2.55 15.95 1.7 16.35 Q1.1 17.05 1.1 19.5 1.1 21.85 1.95 25.2 2.75 28.55 2.75 29.6 2.75 34.25 -0.05 36.6 -1.95 38.2 -3.8 38.2 -5.3 38.2 -5.95 35.45 -6.3 33.95 -6.3 32.3 L-5.0 26.9 Q-3.7 22.3 -3.7 21.7 -3.7 17.5 -5.65 14.65 -7.25 12.3 -8.9 12.3 -12.55 12.3 -15.2 15.4 -17.85 18.45 -19.4 18.45 -21.15 18.45 -21.85 17.85 -22.45 17.35 -22.45 16.0 -22.45 13.8 -19.9 11.85 L-14.1 8.45 Q-5.15 3.7 -3.8 -1.6 L-3.7 -1.75 -0.8 -3.15" fill="#f1ba87" fill-rule="evenodd" stroke="none"/>
    <path d="M13.35 16.55 L13.3 16.6 13.1 16.3 13.35 16.55 M-3.85 -1.65 L-3.7 -1.75 -3.8 -1.65 -3.85 -1.65" fill="#724931" fill-rule="evenodd" stroke="none"/>
    <path d="M4.4 -2.9 L3.95 -3.55 Q7.4 -2.7 15.3 6.75 23.35 16.3 23.35 20.0 23.35 22.3 22.3 23.65 21.25 25.0 19.3 25.0 17.9 25.0 16.3 24.15 L15.4 23.45 15.95 28.1 Q15.95 33.15 13.25 36.6 10.95 39.6 8.4 39.6 6.6 39.6 6.3 38.05 L5.1 32.15 Q2.65 43.5 -3.4 43.5 -6.65 43.5 -8.05 42.05 -9.55 40.55 -9.55 36.85 -9.55 34.9 -8.3 28.3 -7.1 21.7 -7.1 19.8 -7.1 18.4 -8.05 16.9 -9.05 15.35 -10.0 15.35 L-17.3 21.9 Q-17.8 22.4 -19.75 23.1 L-22.15 23.75 Q-25.3 23.75 -27.5 21.65 -29.35 19.95 -29.35 18.45 -29.35 16.3 -28.3 14.6 -25.8 10.6 -18.1 6.9 -16.75 6.25 -10.65 1.9 -5.65 -1.65 -0.8 -3.15 L-3.7 -1.75 -3.85 -1.65 Q-6.15 2.1 -10.5 4.85 L-18.3 8.85 Q-22.95 11.0 -24.85 12.75 -27.55 15.25 -27.55 19.05 -27.55 20.25 -25.45 21.15 L-22.95 21.85 -20.1 21.2 -18.35 20.5 Q-10.25 13.55 -10.1 13.55 -8.5 13.55 -7.05 15.3 -5.5 17.15 -5.5 19.4 -5.5 23.05 -6.6 27.4 -7.75 31.7 -7.75 36.85 -7.75 39.1 -7.1 40.25 -6.25 41.8 -4.15 41.8 -1.4 41.8 0.7 39.4 3.45 36.2 3.45 29.9 L2.65 22.15 Q2.3 18.85 4.0 17.45 L4.1 17.75 4.5 20.15 4.5 20.2 7.25 36.5 7.25 36.55 7.35 36.5 7.55 37.65 Q7.55 37.85 8.1 37.85 10.2 37.85 12.05 35.35 14.2 32.45 14.2 28.15 14.2 26.0 13.6 23.65 12.65 19.95 9.85 13.35 L9.8 13.05 Q10.25 12.7 10.4 12.7 L13.1 16.3 13.3 16.6 Q14.45 20.0 16.35 21.8 L18.5 23.25 Q20.85 22.9 21.45 22.15 L21.7 20.7 Q21.7 17.05 15.75 9.75 L4.4 -2.9" fill="#6c3d28" fill-rule="evenodd" stroke="none"/>
    <path d="M-3.8 -1.6 L-3.85 -1.65 -3.8 -1.65 -3.8 -1.6 M7.35 36.5 L7.25 36.55 7.25 36.5 7.35 36.5" fill="#e7964e" fill-rule="evenodd" stroke="none"/>
    <path d="M-3.8 -1.65 L-3.7 -1.75 -3.8 -1.6 -3.8 -1.65" fill="#eaa76a" fill-rule="evenodd" stroke="none"/>
    <path d="M2.15 -3.3 L4.4 -2.9 15.75 9.75 Q21.7 17.05 21.7 20.7 L21.45 22.15 Q20.85 22.9 18.5 23.25 L16.35 21.8 Q14.45 20.0 13.3 16.6 L13.35 16.55 19.2 21.95 19.75 21.65 20.0 20.7 Q20.0 18.3 14.45 12.1 6.35 3.05 2.15 -3.3 M7.25 36.5 L4.5 20.2 4.5 20.15 4.1 17.75 7.2 28.65 Q8.5 32.7 10.1 32.7 11.8 32.7 12.4 30.9 12.8 29.75 12.8 27.25 12.8 24.15 10.95 20.5 8.1 14.8 7.45 12.9 L7.15 11.45 9.85 13.35 Q12.65 19.95 13.6 23.65 14.2 26.0 14.2 28.15 14.2 32.45 12.05 35.35 10.2 37.85 8.1 37.85 7.55 37.85 7.55 37.65 L7.35 36.5 7.25 36.5 M4.0 17.45 Q2.3 18.85 2.65 22.15 L3.45 29.9 Q3.45 36.2 0.7 39.4 -1.4 41.8 -4.15 41.8 -6.25 41.8 -7.1 40.25 -7.75 39.1 -7.75 36.85 -7.75 31.7 -6.6 27.4 -5.5 23.05 -5.5 19.4 -5.5 17.15 -7.05 15.3 -8.5 13.55 -10.1 13.55 -10.25 13.55 -18.35 20.5 L-20.1 21.2 -22.95 21.85 -25.45 21.15 Q-27.55 20.25 -27.55 19.05 -27.55 15.25 -24.85 12.75 -22.95 11.0 -18.3 8.85 L-10.5 4.85 Q-6.15 2.1 -3.85 -1.65 L-3.8 -1.6 Q-5.15 3.7 -14.1 8.45 L-19.9 11.85 Q-22.45 13.8 -22.45 16.0 -22.45 17.35 -21.85 17.85 -21.15 18.45 -19.4 18.45 -17.85 18.45 -15.2 15.4 -12.55 12.3 -8.9 12.3 -7.25 12.3 -5.65 14.65 -3.7 17.5 -3.7 21.7 -3.7 22.3 -5.0 26.9 L-6.3 32.3 Q-6.3 33.95 -5.95 35.45 -5.3 38.2 -3.8 38.2 -1.95 38.2 -0.05 36.6 2.75 34.25 2.75 29.6 2.75 28.55 1.95 25.2 1.1 21.85 1.1 19.5 1.1 17.05 1.7 16.35 L2.55 15.95 4.0 17.45" fill="#db9c64" fill-rule="evenodd" stroke="none"/>
  </g>
</svg>
