<?xml version="1.0" encoding="UTF-8" standalone="no"?>
<svg xmlns:ffdec="https://www.free-decompiler.com/flash" xmlns:xlink="http://www.w3.org/1999/xlink" ffdec:objectType="shape" height="48.5px" width="56.25px" xmlns="http://www.w3.org/2000/svg">
  <g transform="matrix(1.0, 0.0, 0.0, 1.0, 48.95, 47.5)">
    <path d="M0.35 -30.35 L-0.1 -30.85 -0.55 -31.4 Q-1.25 -35.45 0.7 -39.25 L1.35 -39.45 3.55 -36.95 Q5.2 -35.0 7.3 -33.45 L6.75 -32.05 5.6 -32.95 Q3.0 -35.2 1.05 -37.85 L0.5 -36.4 Q0.1 -34.15 0.2 -31.85 L0.35 -30.35 M-38.4 -0.3 L-38.95 1.0 Q-43.45 -0.75 -48.5 -0.85 -49.65 -3.3 -47.9 -5.5 L-45.7 -5.5 -46.9 -4.0 -46.95 -3.95 -47.85 -2.2 Q-42.8 -2.1 -38.4 -0.3 M-22.0 -32.15 L-20.45 -30.95 -18.55 -29.45 Q-16.95 -28.2 -15.85 -26.6 L-16.0 -26.6 -16.9 -26.35 Q-20.35 -29.4 -24.25 -32.1 L-22.0 -33.3 Q-15.6 -36.6 -9.6 -33.95 L-9.7 -33.3 -9.65 -32.85 -11.25 -33.65 -13.85 -34.0 Q-18.15 -34.3 -22.0 -32.15 M-29.0 -41.25 L-29.5 -41.15 -30.6 -40.8 Q-33.5 -43.05 -37.1 -44.4 L-38.0 -45.45 -36.25 -47.3 -35.8 -47.5 -31.8 -47.5 Q-34.0 -46.8 -36.05 -45.65 L-34.15 -45.0 Q-32.3 -43.85 -30.55 -42.55 L-29.0 -41.25 M-38.0 -21.85 L-38.0 -23.6 Q-33.75 -25.7 -29.15 -25.05 L-28.85 -24.8 -28.6 -24.55 -30.95 -24.1 Q-34.8 -23.7 -38.0 -21.85 M-34.15 -14.85 L-35.15 -14.5 -35.25 -14.6 -38.0 -16.6 -38.0 -18.6 Q-35.8 -17.05 -34.15 -14.85 M-16.7 -14.05 L-18.15 -13.95 Q-20.95 -13.6 -23.3 -12.1 L-21.85 -11.5 -20.0 -10.3 -19.25 -9.5 Q-19.75 -9.4 -20.25 -8.85 L-24.55 -11.65 -23.35 -12.8 Q-19.1 -16.45 -14.05 -14.75 L-13.7 -13.7 -16.7 -14.05 M-15.0 -24.6 L-14.7 -24.65 -14.45 -24.05 -15.0 -24.6" fill="#794813" fill-rule="evenodd" stroke="none"/>
    <path d="M6.6 -31.75 Q5.75 -30.0 4.55 -29.45 2.25 -30.7 1.25 -33.8 2.8 -32.25 4.65 -31.45 L5.9 -31.05 6.6 -31.75 M-46.95 -3.95 L-46.9 -4.0 Q-44.55 -4.1 -42.65 -5.2 L-42.1 -5.5 -40.1 -5.5 Q-39.5 -5.5 -38.85 -3.8 L-38.55 -3.0 -46.95 -3.95 M-22.0 -32.15 Q-18.4 -32.7 -14.8 -32.05 L-12.5 -31.45 -11.2 -32.55 -11.25 -33.65 -9.65 -32.85 -9.5 -31.7 Q-9.35 -30.75 -9.55 -30.3 L-10.25 -28.6 -10.4 -28.3 -20.45 -30.95 -22.0 -32.15 M-25.25 -46.0 Q-25.3 -44.7 -26.55 -42.85 L-26.9 -42.4 Q-29.95 -42.75 -33.5 -44.95 L-25.25 -46.0 M-30.95 -24.1 L-28.6 -24.55 Q-27.85 -23.65 -27.85 -22.15 -27.85 -21.3 -28.55 -19.8 L-29.5 -17.95 Q-32.5 -16.4 -37.65 -19.25 -32.6 -19.1 -30.55 -22.8 L-30.35 -23.55 -30.95 -24.1 M-16.7 -14.05 L-13.7 -13.7 -13.65 -13.15 -13.9 -11.9 Q-14.15 -11.0 -14.5 -10.55 -15.15 -9.6 -15.9 -9.2 L-16.15 -9.05 Q-18.2 -9.35 -20.0 -10.3 L-21.85 -11.5 -17.05 -12.65 -16.7 -14.05" fill="#e0ac3f" fill-rule="evenodd" stroke="none"/>
    <path d="M0.5 -36.4 L1.05 -37.85 Q3.0 -35.2 5.6 -32.95 L6.75 -32.05 6.6 -31.75 5.9 -31.05 4.65 -31.45 Q2.8 -32.25 1.25 -33.8 L0.5 -36.4 M-46.9 -4.0 L-45.7 -5.5 -42.1 -5.5 -42.65 -5.2 Q-44.55 -4.1 -46.9 -4.0 M-11.25 -33.65 L-11.2 -32.55 -12.5 -31.45 -14.8 -32.05 Q-18.4 -32.7 -22.0 -32.15 -18.15 -34.3 -13.85 -34.0 L-11.25 -33.65 M-31.8 -47.5 L-25.5 -47.5 -25.25 -46.15 -25.25 -46.0 -33.5 -44.95 -34.15 -45.0 -36.05 -45.65 Q-34.0 -46.8 -31.8 -47.5 M-38.0 -21.85 Q-34.8 -23.7 -30.95 -24.1 L-30.35 -23.55 -30.55 -22.8 Q-32.6 -19.1 -37.65 -19.25 L-38.0 -19.3 -38.0 -21.85 M-21.85 -11.5 L-23.3 -12.1 Q-20.95 -13.6 -18.15 -13.95 L-16.7 -14.05 -17.05 -12.65 -21.85 -11.5" fill="#eac679" fill-rule="evenodd" stroke="none"/>
    <path d="M0.35 -30.35 L0.2 -31.85 Q0.1 -34.15 0.5 -36.4 L1.25 -33.8 Q2.25 -30.7 4.55 -29.45 L3.4 -29.2 Q1.6 -29.2 0.35 -30.35 M-38.4 -0.3 Q-42.8 -2.1 -47.85 -2.2 L-46.95 -3.95 -38.55 -3.0 Q-38.25 -2.0 -38.25 -1.3 -38.25 -0.8 -38.4 -0.3 M-20.45 -30.95 L-10.4 -28.3 Q-10.9 -27.5 -11.7 -27.35 L-15.85 -26.6 Q-16.95 -28.2 -18.55 -29.45 L-20.45 -30.95 M-26.9 -42.4 Q-27.65 -41.55 -29.0 -41.25 L-30.55 -42.55 Q-32.3 -43.85 -34.15 -45.0 L-33.5 -44.95 Q-29.95 -42.75 -26.9 -42.4 M-29.5 -17.95 L-29.75 -17.5 Q-30.6 -15.7 -33.65 -15.0 L-34.15 -14.85 Q-35.8 -17.05 -38.0 -18.6 L-38.0 -19.3 -37.65 -19.25 Q-32.5 -16.4 -29.5 -17.95 M-19.25 -9.5 L-20.0 -10.3 Q-18.2 -9.35 -16.15 -9.05 -17.35 -8.5 -18.35 -9.3 L-19.25 -9.5" fill="#cb9b38" fill-rule="evenodd" stroke="none"/>
  </g>
</svg>
