<?xml version="1.0" encoding="UTF-8" standalone="no"?>
<svg xmlns:ffdec="https://www.free-decompiler.com/flash" xmlns:xlink="http://www.w3.org/1999/xlink" ffdec:objectType="shape" height="187.45px" width="61.95px" xmlns="http://www.w3.org/2000/svg">
  <g transform="matrix(1.0, 0.0, 0.0, 1.0, -1.2, -1.5)">
    <path d="M49.05 75.15 Q48.95 77.15 48.45 78.55 L48.4 79.35 Q47.05 79.85 47.05 81.4 L47.05 81.6 46.9 81.7 Q45.3 83.0 43.1 83.0 L40.9 82.55 38.85 81.95 Q38.0 81.5 37.1 79.75 L37.0 79.55 37.15 79.35 37.6 78.25 37.85 78.8 41.0 81.3 41.1 81.3 41.25 81.35 41.35 81.35 42.05 81.45 42.9 81.5 Q45.35 81.5 46.45 79.6 47.6 77.6 47.6 73.15 47.6 69.8 46.1 68.55 45.4 67.95 44.4 67.95 41.05 67.95 38.8 70.7 37.05 72.85 37.05 74.6 L37.15 76.35 Q36.7 75.95 35.9 75.95 L35.75 75.95 Q35.35 73.9 36.0 72.2 L37.3 70.1 Q38.25 69.0 40.55 67.4 42.75 66.55 44.5 66.45 47.2 67.2 47.9 68.2 49.2 69.95 49.05 75.15 M43.05 159.45 L43.35 162.05 Q43.15 163.25 42.1 165.3 41.05 167.4 40.15 168.3 37.5 170.15 35.25 170.15 L33.8 170.05 33.05 169.9 Q31.6 169.9 30.6 167.7 29.6 165.5 29.6 162.4 30.3 160.5 31.8 158.2 L33.35 156.85 36.2 155.9 38.25 155.4 Q39.2 155.4 39.8 155.7 L39.8 155.8 40.05 156.85 Q40.55 157.9 41.85 157.9 L42.4 157.85 Q42.9 158.6 43.05 159.45 M28.25 124.35 Q27.85 128.9 24.55 134.0 21.35 138.9 21.35 139.4 21.35 140.4 22.45 143.5 L22.65 146.3 22.25 148.6 21.85 150.85 Q21.85 152.75 23.5 155.15 L25.15 157.5 24.2 159.3 Q23.2 161.55 23.2 165.1 L24.75 167.45 25.25 168.25 25.15 168.95 25.2 170.15 Q25.45 170.9 26.1 171.15 L25.45 172.25 24.6 173.65 Q24.6 174.95 28.65 177.85 30.05 178.85 32.9 182.5 35.05 185.25 36.7 185.25 39.05 185.25 40.7 183.5 42.2 181.9 45.6 176.05 46.2 175.05 46.25 173.2 L46.1 168.35 45.85 167.2 46.15 166.9 Q46.4 166.75 46.45 167.25 L45.25 159.6 44.05 153.05 Q44.05 148.6 44.95 147.3 45.8 146.8 45.8 146.25 L45.25 144.6 44.7 143.2 Q44.7 141.45 45.75 136.8 L48.55 123.8 Q50.95 111.5 52.4 108.45 53.0 107.2 53.0 104.0 53.0 101.8 52.35 99.8 L51.65 97.95 Q51.65 96.95 52.45 95.45 L53.2 93.9 Q53.2 92.8 51.65 91.45 L50.45 92.8 Q49.3 94.15 46.9 94.9 L46.05 95.15 Q47.55 91.35 50.05 87.65 52.0 84.75 52.05 83.7 L51.85 81.1 51.65 78.95 Q51.65 78.05 52.95 76.1 54.2 74.2 54.2 71.25 L53.8 69.1 53.4 66.9 Q53.4 66.15 55.55 60.55 57.25 56.15 57.6 53.0 58.2 53.4 59.1 53.4 61.0 53.4 61.0 51.0 61.0 48.75 58.8 48.8 57.25 48.85 56.8 49.85 L56.55 49.45 Q55.35 47.45 55.35 46.2 55.35 45.1 55.95 41.75 L56.5 37.7 56.35 35.65 55.4 33.7 54.25 30.9 Q53.2 28.5 52.1 28.05 45.35 25.1 45.35 17.6 L46.7 11.85 43.05 6.05 30.2 6.5 Q29.45 6.7 26.75 8.5 24.35 10.05 22.15 10.15 19.9 10.2 19.6 11.3 L18.85 13.7 15.7 15.5 Q13.3 16.7 13.3 17.9 L14.2 20.3 15.05 22.55 Q15.05 23.75 13.75 24.4 11.95 25.25 11.0 26.85 10.1 28.4 10.3 29.4 L10.75 32.4 9.9 32.4 Q7.75 32.75 7.75 35.15 L7.85 36.3 Q8.25 37.35 9.8 37.4 L9.4 38.3 Q8.15 41.25 6.9 43.3 L7.15 44.4 7.3 44.85 Q8.0 41.95 10.75 38.1 13.3 34.55 14.85 33.75 L17.85 33.15 21.1 32.7 Q21.55 32.85 23.45 34.15 L25.65 35.7 Q26.75 37.5 27.7 41.7 28.45 45.2 28.5 47.1 28.25 48.55 26.95 51.4 25.25 55.2 23.15 57.5 L21.05 59.05 18.8 60.5 16.5 61.05 12.05 60.6 10.4 65.25 Q10.4 66.4 12.45 69.0 14.45 71.6 14.45 72.95 L14.1 74.55 13.7 76.15 Q13.7 77.45 14.25 78.55 L15.5 80.35 Q16.1 81.1 17.65 86.95 L19.2 89.2 Q20.6 91.3 20.65 92.15 21.2 100.4 23.2 100.4 24.05 100.4 24.1 100.2 L24.2 103.7 22.65 108.85 Q22.65 109.8 23.2 110.0 L24.55 110.25 Q26.65 111.1 27.6 117.45 L27.8 118.7 Q27.3 118.05 26.45 117.85 L26.15 117.7 Q26.25 116.95 25.8 115.6 24.9 112.9 21.7 110.05 L19.2 108.45 17.3 107.1 17.6 103.65 Q17.85 100.7 17.4 98.2 16.9 95.7 11.35 83.25 5.75 70.75 6.2 65.8 6.6 60.8 3.45 57.85 0.3 54.9 1.55 50.55 L3.5 44.05 2.15 40.95 Q2.6 38.55 4.3 36.35 6.0 34.1 6.0 33.45 L5.65 31.35 5.15 28.7 Q5.05 27.6 6.95 25.4 8.85 23.15 9.05 20.1 9.25 17.0 9.85 15.85 10.45 14.65 12.8 11.4 15.1 8.1 20.5 5.4 L27.1 1.95 30.9 1.7 34.9 1.85 36.85 1.5 Q39.35 1.5 44.2 4.05 49.45 6.85 51.25 9.8 49.0 11.05 48.85 11.2 46.85 13.2 46.85 17.6 46.85 22.6 49.45 24.9 51.55 26.75 55.1 26.75 L56.7 26.45 58.3 25.95 Q57.9 27.7 57.9 29.3 57.9 30.1 59.95 31.3 61.65 32.35 62.0 33.5 L61.95 33.5 Q60.05 33.35 60.05 35.35 L60.3 36.65 Q60.65 37.5 61.2 37.85 L60.25 40.25 61.9 43.55 Q63.45 46.75 63.1 47.65 L62.15 50.2 61.55 52.2 61.85 53.7 Q62.1 54.9 61.95 57.25 61.8 59.55 60.3 62.35 L58.65 65.55 Q58.5 66.3 58.5 70.2 56.7 74.3 56.9 74.45 L58.0 77.5 Q58.9 80.5 58.7 80.85 58.45 81.2 57.7 83.75 56.9 86.25 56.9 87.85 56.9 89.5 57.5 91.15 58.05 92.8 58.05 94.1 L56.5 99.5 57.1 101.45 57.9 104.3 Q58.1 105.2 56.85 107.25 L55.45 109.7 Q55.3 110.1 55.5 111.45 L55.75 113.4 54.4 117.25 Q53.1 121.0 53.05 122.45 L53.0 123.55 52.85 124.5 Q51.05 124.4 51.05 126.35 L51.3 127.65 51.35 127.75 Q51.2 128.25 51.6 129.0 L52.75 132.0 Q53.05 133.2 52.15 134.4 L50.05 137.0 Q49.8 137.45 49.95 138.4 L50.2 139.8 49.8 139.8 Q47.55 139.9 47.55 141.95 L47.9 143.15 Q48.35 144.0 49.2 144.3 L47.8 147.8 Q47.6 148.05 48.0 149.2 48.4 150.3 48.4 152.15 48.35 154.0 47.85 155.3 L47.05 157.9 Q46.75 159.25 47.4 161.05 L48.45 164.4 Q48.75 165.75 48.45 168.1 48.1 170.4 48.5 171.2 48.85 171.95 48.85 175.95 48.85 179.95 44.4 184.65 39.9 189.3 35.7 188.95 31.45 188.55 29.95 187.0 28.9 185.0 27.95 184.0 L24.9 180.4 Q22.85 177.85 22.85 175.55 L22.55 171.9 Q22.35 170.5 21.45 169.75 L20.25 168.65 Q19.9 168.25 19.7 167.05 19.6 166.3 19.85 164.5 20.0 163.15 19.2 161.7 18.35 160.2 17.45 156.5 16.55 152.8 16.65 152.25 L17.0 148.75 Q17.3 145.75 17.8 145.05 18.25 144.35 18.05 143.0 L17.8 141.0 Q17.8 140.7 19.2 139.3 L21.35 136.9 24.3 131.9 Q25.1 130.35 26.0 126.85 L26.75 123.55 26.8 123.3 Q27.5 123.3 28.0 122.7 L28.2 122.5 28.25 124.35 M26.75 48.05 L27.0 46.75 Q27.0 42.5 25.8 39.15 24.9 36.6 24.45 36.6 21.9 34.15 19.7 34.15 14.8 34.15 11.15 39.7 7.8 44.8 7.8 50.7 7.8 54.95 9.65 57.2 11.6 59.6 15.5 59.6 16.95 59.6 19.3 58.75 22.05 57.7 22.05 56.5 L25.8 50.9 25.9 50.75 26.5 50.35 Q26.9 49.9 26.9 49.25 L26.75 48.1 26.75 48.05 M38.1 156.9 Q35.1 156.9 32.95 159.2 30.8 161.55 30.8 164.8 30.8 168.65 35.25 168.65 37.2 168.65 38.35 168.0 L39.1 167.25 Q39.1 166.7 40.5 164.7 41.85 162.75 41.85 162.15 41.85 158.95 40.2 157.65 39.25 156.9 38.1 156.9" fill="#954a00" fill-rule="evenodd" stroke="none"/>
    <path d="M48.0 42.8 Q49.0 43.35 49.35 43.35 L50.2 43.3 50.9 43.05 51.2 40.35 51.35 37.6 Q51.35 34.05 49.95 31.35 L45.25 23.25 Q43.5 20.1 43.2 16.45 L43.2 13.0 Q43.2 11.15 42.2 9.95 L41.8 9.55 Q41.75 6.8 39.95 6.45 38.1 6.1 38.05 8.5 30.55 8.55 27.4 10.9 L21.55 17.2 Q20.05 17.65 20.05 19.6 19.75 20.55 19.6 21.85 L18.9 25.6 15.9 30.0 14.45 32.1 14.85 33.75 Q13.3 34.55 10.75 38.1 8.0 41.95 7.3 44.85 L7.15 44.4 6.9 43.3 Q8.15 41.25 9.4 38.3 L9.8 37.4 10.0 37.4 Q12.05 37.4 12.05 34.55 12.05 32.55 10.75 32.4 L10.3 29.4 Q10.1 28.4 11.0 26.85 11.95 25.25 13.75 24.4 15.05 23.75 15.05 22.55 L14.2 20.3 13.3 17.9 Q13.3 16.7 15.7 15.5 L18.85 13.7 19.6 11.3 Q19.9 10.2 22.15 10.15 24.35 10.05 26.75 8.5 29.45 6.7 30.2 6.5 L43.05 6.05 46.7 11.85 45.35 17.6 Q45.35 25.1 52.1 28.05 53.2 28.5 54.25 30.9 L55.4 33.7 56.35 35.65 56.5 37.7 55.95 41.75 Q55.35 45.1 55.35 46.2 55.35 47.45 56.55 49.45 L56.8 49.85 56.55 50.95 56.9 52.15 57.6 53.0 Q57.25 56.15 55.55 60.55 53.4 66.15 53.4 66.9 L53.8 69.1 54.2 71.25 Q54.2 74.2 52.95 76.1 51.65 78.05 51.65 78.95 L51.85 81.1 52.05 83.7 Q52.0 84.75 50.05 87.65 47.55 91.35 46.05 95.15 L46.9 94.9 Q49.3 94.15 50.45 92.8 L51.65 91.45 Q53.2 92.8 53.2 93.9 L52.45 95.45 Q51.65 96.95 51.65 97.95 L52.35 99.8 Q53.0 101.8 53.0 104.0 53.0 107.2 52.4 108.45 50.95 111.5 48.55 123.8 L45.75 136.8 Q44.7 141.45 44.7 143.2 L45.25 144.6 45.8 146.25 Q45.8 146.8 44.95 147.3 44.05 148.6 44.05 153.05 L45.25 159.6 46.45 167.25 Q46.4 166.75 46.15 166.9 L45.85 167.2 46.1 168.35 46.25 173.2 Q46.2 175.05 45.6 176.05 42.2 181.9 40.7 183.5 39.05 185.25 36.7 185.25 35.05 185.25 32.9 182.5 30.05 178.85 28.65 177.85 24.6 174.95 24.6 173.65 L25.45 172.25 26.1 171.15 26.75 171.25 Q27.6 171.25 28.15 170.35 28.65 169.55 28.65 168.8 28.65 166.9 26.9 166.95 25.5 167.0 25.25 168.25 L24.75 167.45 23.2 165.1 Q23.2 161.55 24.2 159.3 L25.15 157.5 23.5 155.15 Q21.85 152.75 21.85 150.85 L22.25 148.6 22.65 146.3 22.45 143.5 Q21.35 140.4 21.35 139.4 21.35 138.9 24.55 134.0 27.85 128.9 28.25 124.35 L31.95 124.85 Q33.25 125.05 33.25 126.75 33.25 129.7 28.8 132.2 24.35 134.65 24.35 136.9 24.35 137.9 25.2 143.2 L24.35 149.7 Q25.1 150.85 27.65 151.7 L30.45 152.5 30.6 152.4 30.7 153.05 28.75 154.65 Q26.8 156.35 26.8 157.5 26.8 158.7 28.95 158.6 L31.8 158.2 Q30.3 160.5 29.6 162.4 26.45 163.45 26.45 164.55 26.45 165.1 28.2 166.4 29.95 167.7 29.95 168.45 L29.45 170.8 28.95 173.1 Q28.95 175.55 30.9 177.05 32.95 178.65 36.45 178.65 40.15 178.65 41.9 174.85 L42.5 174.1 42.55 173.15 Q43.8 169.0 43.35 162.05 L43.05 159.45 42.85 157.7 43.35 157.3 Q43.75 156.8 43.75 156.15 43.75 154.8 42.4 154.3 L41.95 150.55 42.75 146.8 41.65 145.9 Q40.75 144.45 40.75 140.95 L42.5 138.0 Q44.2 134.85 44.2 131.9 L43.8 129.95 43.4 127.95 43.8 125.6 44.35 123.4 43.95 120.75 Q43.95 115.95 45.75 112.45 L46.1 112.0 46.75 112.05 Q49.25 112.05 49.25 108.95 49.25 107.0 48.15 106.6 L48.15 106.4 48.15 103.7 48.5 100.55 48.45 99.45 48.35 99.25 45.85 99.9 Q43.6 99.9 42.1 98.9 40.7 98.0 40.7 96.9 42.9 94.7 44.95 91.45 47.45 87.6 48.2 83.75 48.8 84.1 49.75 84.1 51.15 84.1 51.5 83.1 L51.55 81.75 Q51.55 78.95 49.3 79.15 L48.5 79.3 48.45 78.55 Q48.95 77.15 49.05 75.15 L50.3 72.35 Q48.5 67.3 48.5 66.4 L48.9 65.25 49.05 65.85 Q49.55 66.9 50.85 66.9 51.8 66.9 52.35 66.3 52.75 65.8 52.75 65.15 52.75 63.55 50.8 63.1 50.1 62.95 49.7 63.1 L50.75 59.45 50.5 58.35 Q50.2 57.55 50.2 57.05 L50.6 55.5 51.0 53.95 Q51.0 50.2 47.15 46.7 L45.45 45.1 Q47.8 45.05 48.0 42.8 M27.6 117.45 Q26.65 111.1 24.55 110.25 L23.2 110.0 Q22.65 109.8 22.65 108.85 L24.2 103.7 24.1 100.2 Q24.05 100.4 23.2 100.4 21.2 100.4 20.65 92.15 20.6 91.3 19.2 89.2 L17.65 86.95 Q16.1 81.1 15.5 80.35 L14.25 78.55 Q13.7 77.45 13.7 76.15 L14.1 74.55 14.45 72.95 Q14.45 71.6 12.45 69.0 10.4 66.4 10.4 65.25 L12.05 60.6 16.5 61.05 18.8 60.5 24.9 64.95 Q26.65 66.4 26.65 67.35 26.65 68.75 25.05 68.75 24.5 68.75 21.45 67.2 L18.15 65.5 16.75 65.0 Q16.25 63.95 14.75 63.5 12.5 62.85 12.5 65.15 12.5 66.0 12.8 66.6 13.3 67.6 14.65 67.8 15.2 68.8 16.55 69.55 18.85 70.9 18.85 71.6 L18.0 73.7 Q17.1 75.35 17.1 76.4 17.1 79.25 19.45 79.6 21.75 80.0 21.75 82.05 L21.4 84.15 21.0 86.2 22.9 89.1 Q25.1 92.45 26.25 95.15 27.95 98.95 29.05 100.35 L29.2 100.55 29.25 100.9 Q29.8 102.35 31.5 102.35 L32.35 102.1 33.05 101.95 33.9 102.75 Q32.0 104.9 28.75 106.9 26.75 108.15 26.75 109.7 26.75 110.75 27.65 113.25 L28.1 113.65 Q28.55 114.2 28.55 114.8 L28.25 116.15 27.6 117.45 M43.65 40.75 Q43.3 41.45 43.3 42.65 L43.35 43.1 41.65 41.35 41.7 40.8 43.65 40.75" fill="#bb5e00" fill-rule="evenodd" stroke="none"/>
    <path d="M41.8 9.55 L42.2 9.95 Q43.2 11.15 43.2 13.0 L43.2 16.45 Q43.5 20.1 45.25 23.25 L49.95 31.35 Q51.35 34.05 51.35 37.6 L51.2 40.35 50.9 43.05 50.2 43.3 49.35 43.35 Q49.0 43.35 48.0 42.8 L48.0 42.4 Q48.0 40.0 45.65 39.75 44.2 39.65 43.65 40.75 L41.7 40.8 41.65 41.35 43.35 43.1 43.45 43.9 Q43.9 45.1 45.35 45.1 L45.45 45.1 47.15 46.7 Q51.0 50.2 51.0 53.95 L50.6 55.5 50.2 57.05 Q50.2 57.55 50.5 58.35 L50.75 59.45 49.7 63.1 Q48.8 63.35 48.8 64.8 L48.9 65.25 48.5 66.4 Q48.5 67.3 50.3 72.35 L49.05 75.15 Q49.2 69.95 47.9 68.2 47.2 67.2 44.5 66.45 L46.65 60.75 Q48.05 56.5 48.05 55.05 48.05 50.75 42.95 46.75 37.8 42.8 37.8 39.9 37.8 38.5 41.4 36.75 44.95 35.0 44.95 32.95 L44.7 31.2 Q43.25 29.2 39.6 19.6 38.7 17.15 38.0 16.2 36.7 14.5 34.7 14.5 27.4 14.5 25.45 20.45 L23.95 26.3 Q22.85 30.15 21.1 32.7 L17.85 33.15 14.85 33.75 14.45 32.1 15.9 30.0 18.9 25.6 19.6 21.85 Q19.75 20.55 20.05 19.6 L20.05 19.65 20.25 20.65 Q20.85 21.55 22.85 21.55 23.95 21.55 24.5 20.65 24.9 20.0 24.9 19.35 24.9 17.05 22.5 17.05 L21.55 17.2 27.4 10.9 Q30.55 8.55 38.05 8.5 L38.05 8.6 38.25 9.9 Q38.8 11.35 40.5 11.35 41.8 11.35 41.8 9.65 L41.8 9.55 M48.45 78.55 L48.5 79.3 48.4 79.35 48.45 78.55 M48.2 83.75 Q47.45 87.6 44.95 91.45 42.9 94.7 40.7 96.9 40.7 98.0 42.1 98.9 43.6 99.9 45.85 99.9 L48.35 99.25 48.45 99.45 48.5 100.55 48.15 103.7 48.15 106.4 48.15 106.6 46.7 106.55 Q45.95 106.7 45.45 107.05 L45.45 105.8 Q45.45 104.2 44.9 103.55 44.15 102.65 41.85 102.65 40.0 102.65 36.05 108.7 31.9 115.0 31.9 119.05 31.9 121.1 34.85 122.45 37.8 123.85 37.8 126.0 37.8 129.05 36.85 130.8 L36.65 130.75 Q34.6 130.6 34.35 132.95 L33.1 133.6 Q28.35 136.0 28.35 144.8 L28.4 145.35 27.55 145.15 Q25.3 144.9 25.3 147.55 L25.55 148.85 Q26.2 150.1 28.1 150.1 29.15 150.1 29.5 149.5 L29.75 148.65 Q30.4 149.3 31.35 149.7 34.3 150.95 34.3 152.3 L31.5 155.35 Q31.5 156.05 32.0 156.3 L33.35 156.85 31.8 158.2 28.95 158.6 Q26.8 158.7 26.8 157.5 26.8 156.35 28.75 154.65 L30.7 153.05 30.6 152.4 30.45 152.5 27.65 151.7 Q25.1 150.85 24.35 149.7 L25.2 143.2 Q24.35 137.9 24.35 136.9 24.35 134.65 28.8 132.2 33.25 129.7 33.25 126.75 33.25 125.05 31.95 124.85 L28.25 124.35 28.2 122.5 28.5 121.5 Q28.5 119.65 27.8 118.7 L27.6 117.45 28.25 116.15 28.55 114.8 Q28.55 114.2 28.1 113.65 L27.65 113.25 Q26.75 110.75 26.75 109.7 26.75 108.15 28.75 106.9 32.0 104.9 33.9 102.75 L33.05 101.95 32.35 102.1 Q32.8 101.7 32.8 100.65 L32.75 99.7 34.05 99.8 Q35.4 99.8 36.35 99.25 37.45 98.65 37.45 97.45 L36.75 96.35 Q36.05 95.55 36.05 94.8 41.8 85.75 43.1 83.0 45.3 83.0 46.9 81.7 L47.05 81.6 47.35 82.85 48.2 83.75 M46.1 112.0 L45.75 112.45 Q43.95 115.95 43.95 120.75 L44.35 123.4 43.8 125.6 43.4 127.95 43.8 129.95 44.2 131.9 Q44.2 134.85 42.5 138.0 L40.75 140.95 Q40.75 144.45 41.65 145.9 L42.75 146.8 41.95 150.55 42.4 154.3 41.8 154.1 Q39.95 153.65 39.8 155.5 39.25 152.25 38.1 149.6 37.15 147.5 37.15 144.95 37.15 143.5 39.85 137.1 42.5 130.7 42.5 122.6 42.5 120.55 41.85 118.65 L41.2 117.05 Q41.2 114.95 43.35 113.0 44.15 112.25 44.65 111.1 45.15 111.8 46.1 112.0 M42.85 157.7 L43.05 159.45 Q42.9 158.6 42.4 157.85 L42.85 157.7 M43.35 162.05 Q43.8 169.0 42.55 173.15 L42.55 172.75 Q42.55 169.95 40.3 170.15 L39.95 170.2 40.15 168.3 Q41.05 167.4 42.1 165.3 43.15 163.25 43.35 162.05 M41.9 174.85 Q40.15 178.65 36.45 178.65 32.95 178.65 30.9 177.05 28.95 175.55 28.95 173.1 L29.45 170.8 29.95 168.45 Q29.95 167.7 28.2 166.4 26.45 165.1 26.45 164.55 26.45 163.45 29.6 162.4 29.6 165.5 30.6 167.7 31.6 169.9 33.05 169.9 33.95 172.1 35.65 173.45 36.9 174.45 37.6 174.45 L38.55 174.2 Q39.2 175.1 40.75 175.1 L41.9 174.85 M18.8 60.5 L21.05 59.05 23.15 57.5 Q24.85 59.1 25.35 58.55 25.5 58.4 26.3 60.55 26.7 61.7 27.6 62.8 28.55 64.0 29.45 64.3 L40.55 67.4 Q38.25 69.0 37.3 70.1 L36.5 69.55 Q36.05 69.25 35.4 69.25 33.9 69.25 33.0 70.65 32.1 72.1 29.35 72.25 26.45 72.4 24.8 73.1 22.95 73.85 22.95 75.15 L25.2 82.5 Q27.4 89.7 27.4 90.5 27.4 95.45 29.55 97.85 29.05 98.35 29.05 99.6 L29.2 100.55 29.05 100.35 Q27.95 98.95 26.25 95.15 25.1 92.45 22.9 89.1 L21.0 86.2 21.4 84.15 21.75 82.05 Q21.75 80.0 19.45 79.6 17.1 79.25 17.1 76.4 17.1 75.35 18.0 73.7 L18.85 71.6 Q18.85 70.9 16.55 69.55 15.2 68.8 14.65 67.8 L15.35 67.85 Q17.0 67.85 17.0 66.15 L16.75 65.0 18.15 65.5 21.45 67.2 Q24.5 68.75 25.05 68.75 26.65 68.75 26.65 67.35 26.65 66.4 24.9 64.95 L18.8 60.5 M25.55 85.9 Q25.55 83.5 23.55 83.55 21.5 83.65 21.5 85.5 L21.6 86.55 Q21.75 86.9 22.75 87.5 L24.0 87.5 Q25.55 87.05 25.55 85.9" fill="#e97300" fill-rule="evenodd" stroke="none"/>
    <path d="M23.15 57.5 Q25.25 55.2 26.95 51.4 28.25 48.55 28.5 47.1 L30.0 47.3 Q32.05 47.9 33.9 45.75 35.8 43.55 35.8 40.35 35.8 37.4 34.1 35.35 32.4 33.35 30.0 33.35 L28.3 34.0 Q26.6 34.8 25.65 35.7 L23.45 34.15 Q21.55 32.85 21.1 32.7 22.85 30.15 23.95 26.3 L25.45 20.45 Q27.4 14.5 34.7 14.5 36.7 14.5 38.0 16.2 38.7 17.15 39.6 19.6 43.25 29.2 44.7 31.2 L44.95 32.95 Q44.95 35.0 41.4 36.75 37.8 38.5 37.8 39.9 37.8 42.8 42.95 46.75 48.05 50.75 48.05 55.05 48.05 56.5 46.65 60.75 L44.5 66.45 Q42.75 66.55 40.55 67.4 L29.45 64.3 Q28.55 64.0 27.6 62.8 26.7 61.7 26.3 60.55 25.5 58.4 25.35 58.55 24.85 59.1 23.15 57.5 M36.9 31.85 L38.55 30.9 Q39.55 29.8 39.55 27.6 39.55 25.1 36.8 22.85 34.6 21.05 33.7 21.05 31.5 21.05 29.95 22.8 28.6 24.35 28.6 25.9 28.6 27.65 31.15 29.7 32.7 30.95 34.25 31.5 34.8 32.3 35.75 32.3 L36.9 31.85 M36.35 59.05 Q38.15 61.6 39.95 61.6 41.4 61.6 42.35 60.65 43.45 59.6 43.45 57.55 43.45 49.85 38.6 47.6 36.65 46.7 35.2 47.6 33.7 48.55 33.7 51.1 33.7 53.3 34.45 55.4 34.3 55.9 34.3 56.55 L34.55 57.85 Q35.05 58.85 36.35 59.05 M32.9 55.75 Q32.9 54.2 31.95 53.1 30.95 52.0 29.6 52.0 28.25 52.0 27.3 53.1 26.3 54.2 26.3 55.75 26.3 57.3 27.3 58.4 28.25 59.5 29.6 59.5 30.95 59.5 31.95 58.4 32.9 57.3 32.9 55.75 M29.55 97.85 Q27.4 95.45 27.4 90.5 27.4 89.7 25.2 82.5 L22.95 75.15 Q22.95 73.85 24.8 73.1 26.45 72.4 29.35 72.25 32.1 72.1 33.0 70.65 33.9 69.25 35.4 69.25 36.05 69.25 36.5 69.55 L37.3 70.1 36.0 72.2 Q35.35 73.9 35.75 75.95 35.1 76.0 34.7 76.4 L34.25 75.85 Q33.15 74.8 31.75 74.8 30.4 74.8 29.25 77.25 28.2 79.55 28.2 81.8 28.2 85.15 29.9 87.75 31.4 90.0 32.65 90.0 36.35 90.0 38.85 81.95 L40.9 82.55 43.1 83.0 Q41.8 85.75 36.05 94.8 36.05 95.55 36.75 96.35 L37.45 97.45 Q37.45 98.65 36.35 99.25 35.4 99.8 34.05 99.8 L32.75 99.7 Q32.45 97.75 30.95 97.45 30.0 97.3 29.55 97.85 M30.85 94.8 Q30.85 95.65 31.4 96.3 31.95 96.9 32.7 96.9 33.45 96.9 34.0 96.3 34.55 95.65 34.55 94.8 34.55 93.95 34.0 93.35 33.45 92.7 32.7 92.7 31.95 92.7 31.4 93.35 30.85 93.95 30.85 94.8 M36.85 130.8 Q37.8 129.05 37.8 126.0 37.8 123.85 34.85 122.45 31.9 121.1 31.9 119.05 31.9 115.0 36.05 108.7 40.0 102.65 41.85 102.65 44.15 102.65 44.9 103.55 45.45 104.2 45.45 105.8 L45.45 107.05 Q44.15 107.85 44.15 109.65 L44.5 110.85 44.65 111.1 Q44.15 112.25 43.35 113.0 41.2 114.95 41.2 117.05 L41.85 118.65 Q42.5 120.55 42.5 122.6 42.5 130.7 39.85 137.1 37.15 143.5 37.15 144.95 37.15 147.5 38.1 149.6 39.25 152.25 39.8 155.5 L39.8 155.7 Q39.2 155.4 38.25 155.4 L36.2 155.9 33.35 156.85 32.0 156.3 Q31.5 156.05 31.5 155.35 L34.3 152.3 Q34.3 150.95 31.35 149.7 30.4 149.3 29.75 148.65 L29.75 148.15 Q29.75 145.95 28.4 145.35 L28.35 144.8 Q28.35 136.0 33.1 133.6 L34.35 132.95 34.3 133.65 34.45 134.9 Q34.9 136.1 36.35 136.1 39.0 136.1 39.0 133.4 39.0 131.1 36.85 130.8 M40.8 106.25 Q37.85 106.25 36.35 110.25 35.35 113.0 35.35 115.75 35.35 120.0 36.9 122.05 37.95 123.5 39.3 123.5 L39.85 123.45 Q40.5 122.95 40.5 121.85 L40.0 120.4 Q39.45 118.85 39.45 116.6 39.45 116.2 42.05 110.3 43.85 106.25 40.8 106.25 M30.75 141.35 Q30.75 143.05 31.45 144.25 32.15 145.4 33.15 145.4 34.15 145.4 34.85 144.25 35.55 143.05 35.55 141.35 35.55 139.65 34.85 138.5 34.15 137.3 33.15 137.3 32.15 137.3 31.45 138.5 30.75 139.65 30.75 141.35 M33.05 169.9 L33.8 170.05 35.25 170.15 Q37.5 170.15 40.15 168.3 L39.95 170.2 Q38.05 170.55 38.05 172.4 38.05 173.25 38.35 173.85 L38.55 174.2 37.6 174.45 Q36.9 174.45 35.65 173.45 33.95 172.1 33.05 169.9" fill="#ff8d1c" fill-rule="evenodd" stroke="none"/>
    <path d="M28.5 47.1 Q28.45 45.2 27.7 41.7 26.75 37.5 25.65 35.7 26.6 34.8 28.3 34.0 L30.0 33.35 Q32.4 33.35 34.1 35.35 35.8 37.4 35.8 40.35 35.8 43.55 33.9 45.75 32.05 47.9 30.0 47.3 L28.5 47.1 M34.25 31.5 Q32.7 30.95 31.15 29.7 28.6 27.65 28.6 25.9 28.6 24.35 29.95 22.8 31.5 21.05 33.7 21.05 34.6 21.05 36.8 22.85 39.55 25.1 39.55 27.6 39.55 29.8 38.55 30.9 L36.9 31.85 37.0 31.7 Q37.5 31.2 37.5 30.5 37.5 27.35 35.45 26.85 33.4 26.4 33.4 28.9 L33.75 30.45 34.25 31.5 M34.45 55.4 Q33.7 53.3 33.7 51.1 33.7 48.55 35.2 47.6 36.65 46.7 38.6 47.6 43.45 49.85 43.45 57.55 43.45 59.6 42.35 60.65 41.4 61.6 39.95 61.6 38.15 61.6 36.35 59.05 L37.1 59.1 Q38.15 59.1 38.5 58.5 L38.75 57.15 Q38.75 54.4 36.55 54.15 34.85 53.95 34.45 55.4 M32.9 55.75 Q32.9 57.3 31.95 58.4 30.95 59.5 29.6 59.5 28.25 59.5 27.3 58.4 26.3 57.3 26.3 55.75 26.3 54.2 27.3 53.1 28.25 52.0 29.6 52.0 30.95 52.0 31.95 53.1 32.9 54.2 32.9 55.75 M38.85 81.95 Q36.35 90.0 32.65 90.0 31.4 90.0 29.9 87.75 28.2 85.15 28.2 81.8 28.2 79.55 29.25 77.25 30.4 74.8 31.75 74.8 33.15 74.8 34.25 75.85 L34.7 76.4 Q34.15 76.85 34.15 77.95 L34.2 79.15 Q34.55 80.25 35.75 80.25 36.5 80.25 37.0 79.55 L37.1 79.75 Q38.0 81.5 38.85 81.95 M30.85 94.8 Q30.85 93.95 31.4 93.35 31.95 92.7 32.7 92.7 33.45 92.7 34.0 93.35 34.55 93.95 34.55 94.8 34.55 95.65 34.0 96.3 33.45 96.9 32.7 96.9 31.95 96.9 31.4 96.3 30.85 95.65 30.85 94.8 M40.8 106.25 Q43.85 106.25 42.05 110.3 39.45 116.2 39.45 116.6 39.45 118.85 40.0 120.4 L40.5 121.85 Q40.5 122.95 39.85 123.45 L39.3 123.5 Q37.95 123.5 36.9 122.05 35.35 120.0 35.35 115.75 35.35 113.0 36.35 110.25 37.85 106.25 40.8 106.25 M30.75 141.35 Q30.75 139.65 31.45 138.5 32.15 137.3 33.15 137.3 34.15 137.3 34.85 138.5 35.55 139.65 35.55 141.35 35.55 143.05 34.85 144.25 34.15 145.4 33.15 145.4 32.15 145.4 31.45 144.25 30.75 143.05 30.75 141.35" fill="#ffb366" fill-rule="evenodd" stroke="none"/>
    <path d="M48.0 42.8 Q47.8 45.05 45.45 45.1 L45.35 45.1 Q43.9 45.1 43.45 43.9 L43.35 43.1 43.3 42.65 Q43.3 41.45 43.65 40.75 44.2 39.65 45.65 39.75 48.0 40.0 48.0 42.4 L48.0 42.8 M49.7 63.1 Q50.1 62.95 50.8 63.1 52.75 63.55 52.75 65.15 52.75 65.8 52.35 66.3 51.8 66.9 50.85 66.9 49.55 66.9 49.05 65.85 L48.9 65.25 48.8 64.8 Q48.8 63.35 49.7 63.1 M48.5 79.3 L49.3 79.15 Q51.55 78.95 51.55 81.75 L51.5 83.1 Q51.15 84.1 49.75 84.1 48.8 84.1 48.2 83.75 L47.35 82.85 47.05 81.6 47.05 81.4 Q47.05 79.85 48.4 79.35 L48.5 79.3 M48.15 106.6 Q49.25 107.0 49.25 108.95 49.25 112.05 46.75 112.05 L46.1 112.0 Q45.15 111.8 44.65 111.1 L44.5 110.85 44.15 109.65 Q44.15 107.85 45.45 107.05 45.95 106.7 46.7 106.55 L48.15 106.6 M42.4 154.3 Q43.75 154.8 43.75 156.15 43.75 156.8 43.35 157.3 L42.85 157.7 42.4 157.85 41.85 157.9 Q40.55 157.9 40.05 156.85 L39.8 155.8 39.8 155.7 39.8 155.5 Q39.95 153.65 41.8 154.1 L42.4 154.3 M42.55 173.15 L42.5 174.1 41.9 174.85 40.75 175.1 Q39.2 175.1 38.55 174.2 L38.35 173.85 Q38.05 173.25 38.05 172.4 38.05 170.55 39.95 170.2 L40.3 170.15 Q42.55 169.95 42.55 172.75 L42.55 173.15 M25.25 168.25 Q25.5 167.0 26.9 166.95 28.65 166.9 28.65 168.8 28.65 169.55 28.15 170.35 27.6 171.25 26.75 171.25 L26.1 171.15 Q25.45 170.9 25.2 170.15 L25.15 168.95 25.25 168.25 M57.6 53.0 L56.9 52.15 56.55 50.95 56.8 49.85 Q57.25 48.85 58.8 48.8 61.0 48.75 61.0 51.0 61.0 53.4 59.1 53.4 58.2 53.4 57.6 53.0 M10.75 32.4 Q12.05 32.55 12.05 34.55 12.05 37.4 10.0 37.4 L9.8 37.4 Q8.25 37.35 7.85 36.3 L7.75 35.15 Q7.75 32.75 9.9 32.4 L10.75 32.4 M20.05 19.6 Q20.05 17.65 21.55 17.2 L22.5 17.05 Q24.9 17.05 24.9 19.35 24.9 20.0 24.5 20.65 23.95 21.55 22.85 21.55 20.85 21.55 20.25 20.65 L20.05 19.65 20.05 19.6 M38.05 8.5 Q38.1 6.1 39.95 6.45 41.75 6.8 41.8 9.55 L41.8 9.65 Q41.8 11.35 40.5 11.35 38.8 11.35 38.25 9.9 L38.05 8.6 38.05 8.5 M62.0 33.5 L62.1 33.95 Q62.25 35.35 61.25 37.75 L61.2 37.85 Q60.65 37.5 60.3 36.65 L60.05 35.35 Q60.05 33.35 61.95 33.5 L62.0 33.5 M52.85 124.5 Q52.6 126.05 52.0 126.8 L51.4 127.6 51.35 127.75 51.3 127.65 51.05 126.35 Q51.05 124.4 52.85 124.5 M50.2 139.8 L50.3 140.35 Q50.4 140.9 49.2 144.25 L49.2 144.3 Q48.35 144.0 47.9 143.15 L47.55 141.95 Q47.55 139.9 49.8 139.8 L50.2 139.8 M26.8 123.3 L26.85 120.25 Q26.8 118.3 26.45 117.85 27.3 118.05 27.8 118.7 28.5 119.65 28.5 121.5 L28.2 122.5 28.0 122.7 Q27.5 123.3 26.8 123.3 M34.25 31.5 L33.75 30.45 33.4 28.9 Q33.4 26.4 35.45 26.85 37.5 27.35 37.5 30.5 37.5 31.2 37.0 31.7 L36.9 31.85 35.75 32.3 Q34.8 32.3 34.25 31.5 M25.9 50.75 L26.65 48.45 26.75 48.05 26.75 48.1 26.9 49.25 Q26.9 49.9 26.5 50.35 L25.9 50.75 M34.45 55.4 Q34.85 53.95 36.55 54.15 38.75 54.4 38.75 57.15 L38.5 58.5 Q38.15 59.1 37.1 59.1 L36.35 59.05 Q35.05 58.85 34.55 57.85 L34.3 56.55 Q34.3 55.9 34.45 55.4 M29.55 97.85 Q30.0 97.3 30.95 97.45 32.45 97.75 32.75 99.7 L32.8 100.65 Q32.8 101.7 32.35 102.1 L31.5 102.35 Q29.8 102.35 29.25 100.9 L29.2 100.55 29.05 99.6 Q29.05 98.35 29.55 97.85 M34.7 76.4 Q35.1 76.0 35.75 75.95 L35.9 75.95 Q36.7 75.95 37.15 76.35 37.3 77.35 37.6 78.2 L37.6 78.25 37.15 79.35 37.0 79.55 Q36.5 80.25 35.75 80.25 34.55 80.25 34.2 79.15 L34.15 77.95 Q34.15 76.85 34.7 76.4 M16.75 65.0 L17.0 66.15 Q17.0 67.85 15.35 67.85 L14.65 67.8 Q13.3 67.6 12.8 66.6 12.5 66.0 12.5 65.15 12.5 62.85 14.75 63.5 16.25 63.95 16.75 65.0 M25.55 85.9 Q25.55 87.05 24.0 87.5 L22.75 87.5 Q21.75 86.9 21.6 86.55 L21.5 85.5 Q21.5 83.65 23.55 83.55 25.55 83.5 25.55 85.9 M36.85 130.8 Q39.0 131.1 39.0 133.4 39.0 136.1 36.35 136.1 34.9 136.1 34.45 134.9 L34.3 133.65 34.35 132.95 Q34.6 130.6 36.65 130.75 L36.85 130.8 M28.4 145.35 Q29.75 145.95 29.75 148.15 L29.75 148.65 29.5 149.5 Q29.15 150.1 28.1 150.1 26.2 150.1 25.55 148.85 L25.3 147.55 Q25.3 144.9 27.55 145.15 L28.4 145.35" fill="#ba3900" fill-rule="evenodd" stroke="none"/>
  </g>
</svg>
