<?xml version="1.0" encoding="UTF-8" standalone="no"?>
<svg xmlns:ffdec="https://www.free-decompiler.com/flash" xmlns:xlink="http://www.w3.org/1999/xlink" ffdec:objectType="shape" height="101.0px" width="101.0px" xmlns="http://www.w3.org/2000/svg">
  <g transform="matrix(1.0, 0.0, 0.0, 1.0, -141.2, 11.0)">
    <path d="M218.7 13.0 Q229.7 24.0 229.7 39.5 229.7 55.0 218.7 66.0 207.7 77.0 192.2 77.0 176.7 77.0 165.7 66.0 154.7 55.0 154.7 39.5 154.7 24.0 165.7 13.0 176.7 2.0 192.2 2.0 207.7 2.0 218.7 13.0 M227.7 39.5 Q227.7 24.8 217.3 14.4 206.9 4.0 192.2 4.0 177.5 4.0 167.1 14.4 156.7 24.8 156.7 39.5 156.7 54.2 167.1 64.6 177.5 75.0 192.2 75.0 206.9 75.0 217.3 64.6 227.7 54.2 227.7 39.5" fill="#ffffff" fill-rule="evenodd" stroke="none"/>
    <path d="M242.2 39.5 Q242.2 60.45 227.4 75.2 212.65 90.0 191.7 90.0 170.75 90.0 155.95 75.2 141.2 60.45 141.2 39.5 141.2 18.55 155.95 3.75 170.75 -11.0 191.7 -11.0 212.65 -11.0 227.4 3.75 242.2 18.55 242.2 39.5 M218.7 13.0 Q207.7 2.0 192.2 2.0 176.7 2.0 165.7 13.0 154.7 24.0 154.7 39.5 154.7 55.0 165.7 66.0 176.7 77.0 192.2 77.0 207.7 77.0 218.7 66.0 229.7 55.0 229.7 39.5 229.7 24.0 218.7 13.0" fill="#f94a00" fill-rule="evenodd" stroke="none"/>
    <path d="M227.7 39.5 Q227.7 54.2 217.3 64.6 206.9 75.0 192.2 75.0 177.5 75.0 167.1 64.6 156.7 54.2 156.7 39.5 156.7 24.8 167.1 14.4 177.5 4.0 192.2 4.0 206.9 4.0 217.3 14.4 227.7 24.8 227.7 39.5" fill="#772400" fill-rule="evenodd" stroke="none"/>
    <path d="M199.95 71.0 L198.65 71.25 197.15 71.5 197.0 71.5 194.7 71.8 190.5 71.8 188.7 71.7 188.45 71.7 186.25 71.35 186.2 67.65 188.4 68.15 195.15 68.4 196.45 68.3 199.9 67.65 199.95 71.0 M185.65 7.7 L187.7 7.45 189.25 7.3 194.1 7.25 196.4 7.45 197.55 7.6 199.35 8.0 199.5 27.25 Q198.9 27.8 198.0 28.15 193.5 16.1 198.45 9.75 197.05 10.3 195.9 11.15 195.1 11.55 194.65 12.2 190.7 15.3 189.1 20.45 188.35 22.65 188.0 24.8 186.75 30.05 187.6 34.8 L185.85 31.95 185.65 7.7 M189.5 49.1 L192.7 49.05 Q194.25 49.05 194.85 48.4 195.45 47.85 195.45 46.85 195.45 45.8 194.85 45.2 194.2 44.85 192.65 44.85 L189.45 44.9 189.5 49.1 M200.4 41.65 Q202.1 43.35 202.1 45.65 202.1 47.65 201.15 49.1 L199.75 50.15 198.6 50.65 199.75 51.05 Q201.4 51.65 202.15 52.65 203.35 54.05 203.35 56.1 203.35 57.75 202.65 59.15 201.9 60.6 200.5 61.45 L199.85 61.8 197.8 62.3 194.75 62.6 182.85 62.7 182.65 40.35 195.55 40.2 Q198.1 40.2 199.65 41.2 L200.4 41.65 M196.45 55.4 Q196.45 54.5 195.7 53.85 194.9 53.25 193.2 53.25 L189.5 53.3 189.55 57.8 193.25 57.75 Q194.95 57.75 195.7 57.05 196.45 56.4 196.45 55.4" fill="#ffffff" fill-rule="evenodd" stroke="none"/>
    <path d="M199.35 8.0 Q202.55 8.55 205.45 9.9 L207.5 11.05 209.6 12.2 210.9 13.05 211.9 13.95 213.2 15.0 213.45 43.1 212.6 43.85 Q211.95 44.5 211.05 44.75 L208.0 45.7 207.75 45.7 208.0 44.8 Q210.35 37.9 210.8 27.75 L207.9 33.45 Q205.0 38.45 201.8 38.45 L201.55 38.45 201.8 38.2 Q206.5 27.05 202.5 21.1 202.55 23.4 201.65 25.2 L200.75 26.05 199.5 27.25 199.35 8.0 M213.65 63.4 L212.05 64.95 210.25 66.3 210.1 66.4 207.55 67.95 204.85 69.25 Q202.5 70.3 199.95 71.0 L199.9 67.65 201.15 67.1 202.05 66.85 Q205.25 65.45 207.65 62.7 L208.15 62.05 211.15 58.05 212.7 55.5 213.55 53.3 213.65 63.4 M186.25 71.35 Q183.45 70.85 180.75 69.85 L180.65 69.85 178.4 69.0 177.55 68.5 176.1 67.75 174.45 66.6 172.8 65.5 172.65 65.35 172.15 64.95 172.1 59.45 Q173.65 61.9 175.95 63.65 177.8 64.9 180.2 65.9 181.85 66.8 183.8 67.15 L186.2 67.65 186.25 71.35 M171.65 14.25 L172.15 13.85 Q172.15 13.7 172.45 13.7 173.7 12.55 175.05 11.75 177.5 10.2 180.05 9.3 L184.25 7.95 185.65 7.7 185.85 31.95 Q183.25 26.8 182.95 18.5 180.85 22.95 179.8 26.9 178.35 32.6 179.15 37.2 176.45 35.8 175.75 32.05 175.25 30.15 176.15 28.5 L175.65 29.25 Q169.55 36.85 175.8 48.2 L177.75 51.9 175.85 51.65 Q173.55 51.4 172.0 50.4 L171.65 14.25" fill="#ebebeb" fill-rule="evenodd" stroke="none"/>
    <path d="M213.2 15.0 L214.6 16.25 214.75 16.4 215.95 17.6 216.05 17.75 Q219.9 22.1 222.0 27.3 L222.4 28.15 222.8 29.2 222.95 29.7 223.45 31.9 224.3 38.8 224.3 39.15 224.3 39.55 223.85 45.45 223.15 48.75 223.0 49.4 Q221.0 55.45 216.6 60.45 L216.45 60.7 215.3 61.9 215.2 62.0 215.05 62.0 213.65 63.4 213.55 53.3 Q215.65 47.45 215.75 40.05 214.7 41.8 213.45 43.1 L213.2 15.0 M172.15 64.95 L169.3 62.4 Q168.9 62.1 168.65 61.8 L168.55 61.7 167.4 60.4 167.0 59.9 165.8 58.5 165.65 58.35 164.5 56.6 161.8 51.15 Q159.8 45.9 159.75 39.75 159.8 31.6 162.8 25.45 163.95 23.1 165.3 21.05 166.6 19.25 168.0 17.75 L168.6 17.05 168.7 16.8 168.85 16.65 171.65 14.25 172.0 50.4 Q170.2 49.0 169.3 46.55 168.85 54.4 172.1 59.45 L172.15 64.95" fill="#dadada" fill-rule="evenodd" stroke="none"/>
    <path d="M199.5 27.25 L200.75 26.05 201.65 25.2 Q202.55 23.4 202.5 21.1 206.5 27.05 201.8 38.2 L201.55 38.45 201.8 38.45 Q205.0 38.45 207.9 33.45 L210.8 27.75 Q210.35 37.9 208.0 44.8 L207.75 45.7 208.0 45.7 211.05 44.75 Q211.95 44.5 212.6 43.85 L213.45 43.1 Q214.7 41.8 215.75 40.05 215.65 47.45 213.55 53.3 L212.7 55.5 211.15 58.05 208.15 62.05 207.65 62.7 Q205.25 65.45 202.05 66.85 L201.15 67.1 199.9 67.65 196.45 68.3 195.15 68.4 188.4 68.15 186.2 67.65 183.8 67.15 Q181.85 66.8 180.2 65.9 177.8 64.9 175.95 63.65 173.65 61.9 172.1 59.45 168.85 54.4 169.3 46.55 170.2 49.0 172.0 50.4 173.55 51.4 175.85 51.65 L177.75 51.9 175.8 48.2 Q169.55 36.85 175.65 29.25 L176.15 28.5 Q175.25 30.15 175.75 32.05 176.45 35.8 179.15 37.2 178.35 32.6 179.8 26.9 180.85 22.95 182.95 18.5 183.25 26.8 185.85 31.95 L187.6 34.8 Q186.75 30.05 188.0 24.8 188.35 22.65 189.1 20.45 190.7 15.3 194.65 12.2 195.1 11.55 195.9 11.15 197.05 10.3 198.45 9.75 193.5 16.1 198.0 28.15 198.9 27.8 199.5 27.25 M199.65 38.25 L195.5 37.65 180.05 37.8 180.35 65.25 194.8 65.15 198.1 64.85 198.25 64.85 199.9 64.6 201.65 63.75 201.75 63.75 201.9 63.65 Q203.8 62.35 204.95 60.45 205.9 58.35 205.9 56.05 205.85 53.1 204.2 51.1 L203.45 50.25 Q204.65 48.3 204.65 45.65 204.6 42.3 202.2 39.9 201.15 38.85 199.65 38.25" fill="#d94100" fill-rule="evenodd" stroke="none"/>
    <path d="M189.5 49.1 L189.45 44.9 192.65 44.85 Q194.2 44.85 194.85 45.2 195.45 45.8 195.45 46.85 195.45 47.85 194.85 48.4 194.25 49.05 192.7 49.05 L189.5 49.1 M199.65 38.25 Q201.15 38.85 202.2 39.9 204.6 42.3 204.65 45.65 204.65 48.3 203.45 50.25 L204.2 51.1 Q205.85 53.1 205.9 56.05 205.9 58.35 204.95 60.45 203.8 62.35 201.9 63.65 L201.75 63.75 201.65 63.75 199.9 64.6 198.25 64.85 198.1 64.85 194.8 65.15 180.35 65.25 180.05 37.8 195.5 37.65 199.65 38.25 M200.4 41.65 L199.65 41.2 Q198.1 40.2 195.55 40.2 L182.65 40.35 182.85 62.7 194.75 62.6 197.8 62.3 199.85 61.8 200.5 61.45 Q201.9 60.6 202.65 59.15 203.35 57.75 203.35 56.1 203.35 54.05 202.15 52.65 201.4 51.65 199.75 51.05 L198.6 50.65 199.75 50.15 201.15 49.1 Q202.1 47.65 202.1 45.65 202.1 43.35 200.4 41.65 M196.45 55.4 Q196.45 56.4 195.7 57.05 194.95 57.75 193.25 57.75 L189.55 57.8 189.5 53.3 193.2 53.25 Q194.9 53.25 195.7 53.85 196.45 54.5 196.45 55.4" fill="#972e00" fill-rule="evenodd" stroke="none"/>
  </g>
</svg>
