<?xml version="1.0" encoding="UTF-8" standalone="no"?>
<svg xmlns:ffdec="https://www.free-decompiler.com/flash" xmlns:xlink="http://www.w3.org/1999/xlink" ffdec:objectType="shape" height="101.0px" width="101.0px" xmlns="http://www.w3.org/2000/svg">
  <g transform="matrix(1.0, 0.0, 0.0, 1.0, -141.2, 11.0)">
    <path d="M218.7 13.0 Q229.7 24.0 229.7 39.5 229.7 55.0 218.7 66.0 207.7 77.0 192.2 77.0 176.7 77.0 165.7 66.0 154.7 55.0 154.7 39.5 154.7 24.0 165.7 13.0 176.7 2.0 192.2 2.0 207.7 2.0 218.7 13.0 M227.7 39.5 Q227.7 24.8 217.3 14.4 206.9 4.0 192.2 4.0 177.5 4.0 167.1 14.4 156.7 24.8 156.7 39.5 156.7 54.2 167.1 64.6 177.5 75.0 192.2 75.0 206.9 75.0 217.3 64.6 227.7 54.2 227.7 39.5" fill="#ffffff" fill-rule="evenodd" stroke="none"/>
    <path d="M242.2 39.5 Q242.2 60.45 227.4 75.2 212.65 90.0 191.7 90.0 170.75 90.0 155.95 75.2 141.2 60.45 141.2 39.5 141.2 18.55 155.95 3.75 170.75 -11.0 191.7 -11.0 212.65 -11.0 227.4 3.75 242.2 18.55 242.2 39.5 M218.7 13.0 Q207.7 2.0 192.2 2.0 176.7 2.0 165.7 13.0 154.7 24.0 154.7 39.5 154.7 55.0 165.7 66.0 176.7 77.0 192.2 77.0 207.7 77.0 218.7 66.0 229.7 55.0 229.7 39.5 229.7 24.0 218.7 13.0" fill="#fcd03a" fill-rule="evenodd" stroke="none"/>
    <path d="M227.7 39.5 Q227.7 54.2 217.3 64.6 206.9 75.0 192.2 75.0 177.5 75.0 167.1 64.6 156.7 54.2 156.7 39.5 156.7 24.8 167.1 14.4 177.5 4.0 192.2 4.0 206.9 4.0 217.3 14.4 227.7 24.8 227.7 39.5" fill="#8f5703" fill-rule="evenodd" stroke="none"/>
    <path d="M199.95 71.0 L198.65 71.25 197.15 71.5 197.0 71.5 194.7 71.8 190.5 71.8 188.7 71.7 188.45 71.7 186.25 71.35 186.2 65.6 189.05 66.1 Q188.9 66.85 189.15 67.5 L189.4 68.65 190.05 68.2 191.05 66.15 192.5 66.15 194.5 66.15 195.55 67.65 Q196.7 67.15 196.45 65.85 L199.9 65.1 199.95 71.0 M185.65 7.7 L187.7 7.45 189.25 7.3 194.1 7.25 196.4 7.45 197.55 7.6 199.35 8.0 199.4 13.85 Q197.85 13.35 196.3 13.2 L196.65 10.3 196.65 9.75 194.35 9.95 192.75 12.9 192.0 12.9 191.7 12.9 191.7 12.75 191.05 10.7 Q189.65 9.8 189.25 11.9 L189.05 13.05 187.9 13.3 187.05 8.6 Q186.2 9.6 185.65 10.9 L185.65 7.7" fill="#ffffff" fill-rule="evenodd" stroke="none"/>
    <path d="M199.35 8.0 Q202.55 8.55 205.45 9.9 L207.5 11.05 209.6 12.2 210.9 13.05 211.9 13.95 213.2 15.0 213.3 23.15 210.8 20.5 Q205.8 15.55 199.4 13.85 L199.35 8.0 M213.65 63.4 L212.05 64.95 210.25 66.3 210.1 66.4 207.55 67.95 204.85 69.25 Q202.5 70.3 199.95 71.0 L199.9 65.1 201.3 64.65 202.05 65.8 202.3 64.3 206.85 61.8 209.8 62.3 Q210.05 60.8 209.05 60.15 L211.15 58.05 213.6 55.35 213.65 63.4 M186.25 71.35 Q183.45 70.85 180.75 69.85 L180.65 69.85 178.4 69.0 177.55 68.5 176.1 67.75 174.45 66.6 172.8 65.5 172.65 65.35 172.15 64.95 172.05 56.8 173.6 58.45 Q175.95 60.85 178.65 62.5 L178.25 63.0 Q178.0 63.65 178.0 64.4 L180.2 64.5 180.8 63.6 183.8 64.85 182.9 66.55 183.55 67.05 Q184.7 66.4 185.3 65.35 L186.2 65.6 186.25 71.35 M171.65 14.25 L172.15 13.85 Q172.15 13.7 172.45 13.7 173.7 12.55 175.05 11.75 177.5 10.2 180.05 9.3 L184.25 7.95 185.65 7.7 185.65 10.9 Q185.1 12.3 184.95 13.85 178.3 15.7 173.25 20.9 L171.7 22.55 171.65 14.25" fill="#ebebeb" fill-rule="evenodd" stroke="none"/>
    <path d="M213.2 15.0 L214.6 16.25 214.75 16.4 215.95 17.6 216.05 17.75 Q219.9 22.1 222.0 27.3 L222.4 28.15 222.8 29.2 222.95 29.7 223.45 31.9 224.3 38.8 224.3 39.15 224.3 39.55 223.85 45.45 223.15 48.75 223.0 49.4 Q221.0 55.45 216.6 60.45 L216.45 60.7 215.3 61.9 215.2 62.0 215.05 62.0 213.65 63.4 213.6 55.35 Q219.05 48.4 218.95 39.2 218.85 30.0 213.3 23.15 L213.2 15.0 M172.15 64.95 L169.3 62.4 Q168.9 62.1 168.65 61.8 L168.55 61.7 167.4 60.4 167.0 59.9 165.8 58.5 165.65 58.35 164.5 56.6 161.8 51.15 Q159.8 45.9 159.75 39.75 159.8 31.6 162.8 25.45 163.95 23.1 165.3 21.05 166.6 19.25 168.0 17.75 L168.6 17.05 168.7 16.8 168.85 16.65 171.65 14.25 171.7 22.55 Q165.55 29.85 165.65 39.7 165.75 49.55 172.05 56.8 L172.15 64.95" fill="#dadada" fill-rule="evenodd" stroke="none"/>
    <path d="M199.4 13.85 Q205.8 15.55 210.8 20.5 L213.3 23.15 Q218.85 30.0 218.95 39.2 219.05 48.4 213.6 55.35 L211.15 58.05 209.05 60.15 208.4 59.75 203.5 58.0 204.75 54.55 Q210.65 55.15 213.55 49.6 216.2 44.6 215.1 39.0 214.65 36.95 213.4 35.3 L212.65 34.4 Q210.15 31.9 207.1 30.25 L200.15 27.1 199.5 26.9 Q198.35 26.25 197.7 25.1 196.4 22.4 195.6 19.6 L194.9 16.4 Q195.8 14.9 196.3 13.2 197.85 13.35 199.4 13.85 M185.7 24.3 Q184.95 28.15 181.9 31.0 L177.75 34.35 Q174.15 37.05 172.05 40.8 L171.9 41.05 Q170.15 44.15 169.4 47.7 169.3 48.6 169.6 49.75 169.95 52.55 172.05 54.35 L174.6 55.85 178.2 57.1 180.75 57.95 179.65 60.25 178.65 62.5 Q175.95 60.85 173.6 58.45 L172.05 56.8 Q165.75 49.55 165.65 39.7 165.55 29.85 171.7 22.55 L173.25 20.9 Q178.3 15.7 184.95 13.85 184.7 15.25 184.95 16.75 185.4 19.2 185.5 21.9 L185.7 24.3 M180.8 63.6 L182.7 60.5 185.0 62.0 183.8 64.85 180.8 63.6 M185.3 65.35 L185.3 65.2 186.15 63.9 186.8 62.9 186.95 62.9 189.6 63.8 Q189.15 65.05 189.05 66.1 L186.2 65.6 185.3 65.35 M191.05 66.15 L191.05 65.9 191.45 64.4 193.5 64.65 194.5 66.15 192.5 66.15 191.05 66.15 M196.45 65.85 L196.2 65.1 195.75 63.8 199.6 61.9 201.3 64.65 199.9 65.1 196.45 65.85 M202.3 64.3 Q202.25 62.6 201.25 60.6 L202.9 60.7 206.5 61.7 206.85 61.8 202.3 64.3 M191.7 12.9 L192.0 12.9 192.75 12.9 191.85 14.55 191.7 12.9 M187.9 13.3 L189.05 13.05 188.25 16.4 187.9 13.3" fill="#f7ad1f" fill-rule="evenodd" stroke="none"/>
    <path d="M194.9 16.4 L195.6 19.6 Q196.4 22.4 197.7 25.1 198.35 26.25 199.5 26.9 L200.15 27.1 207.1 30.25 Q210.15 31.9 212.65 34.4 L213.4 35.3 Q214.65 36.95 215.1 39.0 216.2 44.6 213.55 49.6 210.65 55.15 204.75 54.55 L203.5 58.0 208.4 59.75 209.05 60.15 Q210.05 60.8 209.8 62.3 L206.85 61.8 206.5 61.7 202.9 60.7 201.25 60.6 Q202.25 62.6 202.3 64.3 L202.05 65.8 201.3 64.65 199.6 61.9 195.75 63.8 196.2 65.1 196.45 65.85 Q196.7 67.15 195.55 67.65 L194.5 66.15 193.5 64.65 191.45 64.4 191.05 65.9 191.05 66.15 190.05 68.2 189.4 68.65 189.15 67.5 Q188.9 66.85 189.05 66.1 189.15 65.05 189.6 63.8 L186.95 62.9 186.8 62.9 186.15 63.9 185.3 65.2 185.3 65.35 Q184.7 66.4 183.55 67.05 L182.9 66.55 183.8 64.85 185.0 62.0 182.7 60.5 180.8 63.6 180.2 64.5 178.0 64.4 Q178.0 63.65 178.25 63.0 L178.65 62.5 179.65 60.25 180.75 57.95 178.2 57.1 174.6 55.85 172.05 54.35 Q169.95 52.55 169.6 49.75 169.3 48.6 169.4 47.7 170.15 44.15 171.9 41.05 L172.05 40.8 Q174.15 37.05 177.75 34.35 L181.9 31.0 Q184.95 28.15 185.7 24.3 L185.8 23.65 Q186.9 18.55 192.0 15.3 L193.75 14.8 194.9 16.4 M211.6 36.05 Q208.65 33.05 204.5 31.3 L199.55 29.2 198.65 28.7 Q196.6 27.65 195.25 25.85 192.55 22.1 192.85 17.1 189.1 19.05 188.25 22.9 L186.0 29.8 185.85 30.2 Q184.25 33.95 180.15 35.6 175.3 37.55 172.55 42.1 172.15 42.6 171.9 43.25 170.55 46.2 171.0 49.1 171.1 50.8 172.0 51.95 173.05 53.2 174.8 53.95 177.55 54.95 180.35 55.15 L180.3 51.95 Q180.05 49.8 180.8 48.0 182.0 51.45 182.3 55.05 182.55 57.45 184.6 59.1 L186.15 60.2 188.85 61.35 Q190.9 62.35 193.05 61.85 197.3 61.25 199.8 58.7 201.45 56.85 202.45 54.3 202.95 53.3 202.95 52.25 L203.25 47.55 Q203.25 47.15 203.65 46.8 204.05 47.15 204.15 47.65 L204.45 49.45 204.7 52.65 207.55 52.2 Q211.9 51.3 212.85 47.45 L213.5 44.65 Q213.85 42.45 213.45 40.55 213.05 38.1 211.6 36.05 M203.45 42.05 L203.35 42.3 201.15 42.45 200.55 42.45 196.3 42.6 200.0 38.4 201.5 36.45 Q204.5 39.25 203.45 42.05 M182.4 39.05 Q182.85 37.9 183.85 36.9 L184.15 36.65 188.4 41.55 189.4 42.7 188.15 42.7 182.4 42.5 Q181.6 40.7 182.4 39.05" fill="#4d4844" fill-rule="evenodd" stroke="none"/>
    <path d="M211.6 36.05 Q213.05 38.1 213.45 40.55 213.85 42.45 213.5 44.65 L212.85 47.45 Q211.9 51.3 207.55 52.2 L204.7 52.65 204.45 49.45 204.15 47.65 Q204.05 47.15 203.65 46.8 203.25 47.15 203.25 47.55 L202.95 52.25 Q202.95 53.3 202.45 54.3 201.45 56.85 199.8 58.7 197.3 61.25 193.05 61.85 190.9 62.35 188.85 61.35 L186.15 60.2 184.6 59.1 Q182.55 57.45 182.3 55.05 182.0 51.45 180.8 48.0 180.05 49.8 180.3 51.95 L180.35 55.15 Q177.55 54.95 174.8 53.95 173.05 53.2 172.0 51.95 171.1 50.8 171.0 49.1 170.55 46.2 171.9 43.25 172.15 42.6 172.55 42.1 175.3 37.55 180.15 35.6 184.25 33.95 185.85 30.2 L186.0 29.8 188.25 22.9 Q189.1 19.05 192.85 17.1 192.55 22.1 195.25 25.85 196.6 27.65 198.65 28.7 L199.55 29.2 204.5 31.3 Q208.65 33.05 211.6 36.05 M200.55 42.45 L201.15 42.45 202.5 43.85 Q204.85 49.35 210.15 48.25 L210.55 47.0 211.3 43.5 Q211.8 39.8 208.9 37.4 204.55 34.1 199.65 31.85 L199.55 31.85 Q192.15 27.95 191.4 20.15 188.85 22.25 188.35 25.2 L187.25 30.05 Q186.75 31.6 185.85 32.75 184.75 34.0 183.1 35.1 179.55 37.25 177.3 40.5 175.75 42.7 175.05 44.85 175.15 46.75 177.05 48.7 L180.2 48.75 Q180.15 47.85 180.25 47.1 180.65 43.55 182.65 43.25 181.95 47.5 182.5 51.6 182.8 54.15 184.6 55.55 L186.1 56.5 Q189.2 58.05 192.9 57.85 L196.85 56.55 199.0 54.6 199.75 53.35 Q201.65 49.6 200.35 45.5 199.8 43.75 200.55 42.45" fill="#a99f98" fill-rule="evenodd" stroke="none"/>
    <path d="M201.15 42.45 L203.35 42.3 203.45 42.05 Q204.4 43.35 205.45 43.9 L207.95 41.5 206.4 38.7 Q203.8 35.0 199.7 33.9 L199.6 33.9 198.05 33.55 196.5 33.9 Q196.4 36.1 198.95 37.65 L199.65 38.15 200.0 38.4 196.3 42.6 200.55 42.45 Q199.8 43.75 200.35 45.5 201.65 49.6 199.75 53.35 L199.0 54.6 196.85 56.55 192.9 57.85 Q189.2 58.05 186.1 56.5 L184.6 55.55 Q182.8 54.15 182.5 51.6 181.95 47.5 182.65 43.25 180.65 43.55 180.25 47.1 180.15 47.85 180.2 48.75 L177.05 48.7 Q175.15 46.75 175.05 44.85 175.75 42.7 177.3 40.5 179.55 37.25 183.1 35.1 184.75 34.0 185.85 32.75 186.75 31.6 187.25 30.05 L188.35 25.2 Q188.85 22.25 191.4 20.15 192.15 27.95 199.55 31.85 L199.65 31.85 Q204.55 34.1 208.9 37.4 211.8 39.8 211.3 43.5 L210.55 47.0 210.15 48.25 Q204.85 49.35 202.5 43.85 L201.15 42.45 M183.85 36.9 Q184.15 36.25 183.6 36.25 L182.85 36.0 Q179.55 37.15 178.45 40.25 177.9 41.55 177.8 42.7 177.8 43.3 178.1 44.1 180.65 43.9 181.25 40.95 181.5 39.8 182.4 39.05 181.6 40.7 182.4 42.5 L188.15 42.7 187.15 46.8 Q186.8 48.2 186.85 49.6 188.35 53.45 192.1 54.15 196.45 54.1 196.55 49.4 196.75 44.0 195.15 38.8 L192.15 29.75 190.55 25.9 190.05 25.8 Q188.95 27.75 189.3 29.65 190.4 34.2 189.05 39.25 L188.4 41.55 184.15 36.65 183.85 36.9" fill="#ded6cf" fill-rule="evenodd" stroke="none"/>
    <path d="M203.45 42.05 Q204.5 39.25 201.5 36.45 L200.0 38.4 199.65 38.15 198.95 37.65 Q196.4 36.1 196.5 33.9 L198.05 33.55 199.6 33.9 199.7 33.9 Q203.8 35.0 206.4 38.7 L207.95 41.5 205.45 43.9 Q204.4 43.35 203.45 42.05 M182.4 39.05 Q181.5 39.8 181.25 40.95 180.65 43.9 178.1 44.1 177.8 43.3 177.8 42.7 177.9 41.55 178.45 40.25 179.55 37.15 182.85 36.0 L183.6 36.25 Q184.15 36.25 183.85 36.9 182.85 37.9 182.4 39.05 M188.4 41.55 L189.05 39.25 Q190.4 34.2 189.3 29.65 188.95 27.75 190.05 25.8 L190.55 25.9 192.15 29.75 195.15 38.8 Q196.75 44.0 196.55 49.4 196.45 54.1 192.1 54.15 188.35 53.45 186.85 49.6 186.8 48.2 187.15 46.8 L188.15 42.7 189.4 42.7 188.4 41.55" fill="#f3ece5" fill-rule="evenodd" stroke="none"/>
    <path d="M194.9 16.4 L193.75 14.8 192.0 15.3 Q186.9 18.55 185.8 23.65 L185.7 24.3 185.5 21.9 Q185.4 19.2 184.95 16.75 184.7 15.25 184.95 13.85 185.1 12.3 185.65 10.9 186.2 9.6 187.05 8.6 L187.9 13.3 188.25 16.4 189.05 13.05 189.25 11.9 Q189.65 9.8 191.05 10.7 L191.7 12.75 191.7 12.9 191.85 14.55 192.75 12.9 194.35 9.95 196.65 9.75 196.65 10.3 196.3 13.2 Q195.8 14.9 194.9 16.4" fill="#4f7700" fill-rule="evenodd" stroke="none"/>
  </g>
</svg>
