<?xml version="1.0" encoding="UTF-8" standalone="no"?>
<svg xmlns:ffdec="https://www.free-decompiler.com/flash" xmlns:xlink="http://www.w3.org/1999/xlink" ffdec:objectType="shape" height="101.0px" width="101.0px" xmlns="http://www.w3.org/2000/svg">
  <g transform="matrix(1.0, 0.0, 0.0, 1.0, -141.2, 11.0)">
    <path d="M218.7 13.0 Q229.7 24.0 229.7 39.5 229.7 55.0 218.7 66.0 207.7 77.0 192.2 77.0 176.7 77.0 165.7 66.0 154.7 55.0 154.7 39.5 154.7 24.0 165.7 13.0 176.7 2.0 192.2 2.0 207.7 2.0 218.7 13.0 M227.7 39.5 Q227.7 24.8 217.3 14.4 206.9 4.0 192.2 4.0 177.5 4.0 167.1 14.4 156.7 24.8 156.7 39.5 156.7 54.2 167.1 64.6 177.5 75.0 192.2 75.0 206.9 75.0 217.3 64.6 227.7 54.2 227.7 39.5" fill="#ffffff" fill-rule="evenodd" stroke="none"/>
    <path d="M242.2 39.5 Q242.2 60.45 227.4 75.2 212.65 90.0 191.7 90.0 170.75 90.0 155.95 75.2 141.2 60.45 141.2 39.5 141.2 18.55 155.95 3.75 170.75 -11.0 191.7 -11.0 212.65 -11.0 227.4 3.75 242.2 18.55 242.2 39.5 M218.7 13.0 Q207.7 2.0 192.2 2.0 176.7 2.0 165.7 13.0 154.7 24.0 154.7 39.5 154.7 55.0 165.7 66.0 176.7 77.0 192.2 77.0 207.7 77.0 218.7 66.0 229.7 55.0 229.7 39.5 229.7 24.0 218.7 13.0" fill="#ff8d1c" fill-rule="evenodd" stroke="none"/>
    <path d="M227.7 39.5 Q227.7 54.2 217.3 64.6 206.9 75.0 192.2 75.0 177.5 75.0 167.1 64.6 156.7 54.2 156.7 39.5 156.7 24.8 167.1 14.4 177.5 4.0 192.2 4.0 206.9 4.0 217.3 14.4 227.7 24.8 227.7 39.5" fill="#954a00" fill-rule="evenodd" stroke="none"/>
    <path d="M199.95 71.0 L198.65 71.25 197.15 71.5 197.0 71.5 194.7 71.8 190.5 71.8 188.7 71.7 188.45 71.7 186.25 71.35 186.1 54.1 186.25 54.1 186.35 58.05 Q186.55 63.9 191.05 64.65 192.6 65.0 193.45 64.15 194.6 63.0 194.75 61.3 195.1 59.5 195.85 57.3 197.35 54.1 199.8 55.0 L199.95 71.0 M185.65 7.7 L187.7 7.45 189.25 7.3 194.1 7.25 196.4 7.45 197.55 7.6 199.35 8.0 199.5 23.8 Q198.7 23.7 197.85 23.2 L196.5 21.25 193.9 15.8 Q191.05 10.2 185.9 11.55 L185.65 11.65 185.65 7.7 M191.95 41.65 L195.45 27.8 204.65 27.75 204.85 50.6 199.1 50.65 198.95 33.3 194.65 50.7 189.4 50.75 184.75 33.4 184.9 50.75 179.15 50.85 178.95 28.0 188.15 27.9 191.95 41.65" fill="#ffffff" fill-rule="evenodd" stroke="none"/>
    <path d="M199.35 8.0 Q202.55 8.55 205.45 9.9 L207.5 11.05 209.6 12.2 210.9 13.05 211.9 13.95 213.2 15.0 213.25 20.75 Q211.85 19.85 209.9 19.75 207.0 19.25 205.05 21.35 202.55 24.4 199.5 23.8 L199.35 8.0 M213.65 63.4 L212.05 64.95 210.25 66.3 210.1 66.4 207.55 67.95 204.85 69.25 Q202.5 70.3 199.95 71.0 L199.8 55.0 Q203.5 55.45 203.75 58.3 203.95 61.1 206.75 61.05 210.3 60.8 213.6 58.7 L213.65 63.4 M186.25 71.35 Q183.45 70.85 180.75 69.85 L180.65 69.85 178.4 69.0 177.55 68.5 176.1 67.75 174.45 66.6 172.8 65.5 172.65 65.35 172.15 64.95 172.1 59.45 173.85 58.7 177.3 56.25 Q179.35 54.8 181.85 53.75 183.4 53.1 184.65 53.45 185.45 53.7 186.1 54.1 L186.25 71.35 M171.65 14.25 L172.15 13.85 Q172.15 13.7 172.45 13.7 173.7 12.55 175.05 11.75 177.5 10.2 180.05 9.3 L184.25 7.95 185.65 7.7 185.65 11.65 Q181.65 12.75 182.65 16.95 183.35 19.75 181.15 21.05 179.9 21.65 178.35 21.7 L173.5 21.65 171.7 21.75 171.65 14.25 M213.45 38.1 L213.5 47.2 Q212.45 44.75 211.9 42.35 211.55 40.05 213.2 38.35 L213.45 38.1 M171.9 41.35 L171.85 34.55 172.35 35.7 Q172.9 37.25 172.95 38.9 173.2 39.9 172.4 40.8 L171.9 41.35" fill="#ebebeb" fill-rule="evenodd" stroke="none"/>
    <path d="M199.5 23.8 Q202.55 24.4 205.05 21.35 207.0 19.25 209.9 19.75 211.85 19.85 213.25 20.75 216.1 22.2 216.75 26.45 217.7 29.65 217.1 32.7 216.7 34.35 215.55 35.8 L213.45 38.1 213.2 38.35 Q211.55 40.05 211.9 42.35 212.45 44.75 213.5 47.2 L215.6 51.0 Q216.25 51.85 216.5 53.0 216.8 56.2 214.0 58.45 L213.6 58.7 Q210.3 60.8 206.75 61.05 203.95 61.1 203.75 58.3 203.5 55.45 199.8 55.0 197.35 54.1 195.85 57.3 195.1 59.5 194.75 61.3 194.6 63.0 193.45 64.15 192.6 65.0 191.05 64.65 186.55 63.9 186.35 58.05 L186.25 54.1 186.1 54.1 Q185.45 53.7 184.65 53.45 183.4 53.1 181.85 53.75 179.35 54.8 177.3 56.25 L173.85 58.7 172.1 59.45 Q170.6 59.6 169.0 58.85 165.9 56.85 164.7 52.9 163.65 48.15 167.5 45.2 L171.9 41.35 172.4 40.8 Q173.2 39.9 172.95 38.9 172.9 37.25 172.35 35.7 L171.85 34.55 Q171.1 33.25 169.75 32.1 166.85 30.0 167.15 26.4 167.4 23.6 170.3 22.15 L171.7 21.75 173.5 21.65 178.35 21.7 Q179.9 21.65 181.15 21.05 183.35 19.75 182.65 16.95 181.65 12.75 185.65 11.65 L185.9 11.55 Q191.05 10.2 193.9 15.8 L196.5 21.25 197.85 23.2 Q198.7 23.7 199.5 23.8 M210.2 36.4 L211.35 34.15 Q211.7 32.0 211.05 29.8 210.25 25.5 205.9 25.25 203.7 24.9 202.15 26.35 L202.05 26.45 196.05 26.5 195.8 26.25 Q194.75 24.45 193.85 22.45 191.65 18.65 187.8 19.6 186.4 19.85 185.75 20.6 184.85 21.5 185.45 23.3 185.8 25.2 184.15 26.15 L182.1 26.55 178.4 26.6 176.0 26.95 Q173.85 27.9 173.6 29.8 173.35 32.4 175.7 33.85 L177.25 35.5 177.3 40.25 173.85 42.85 Q172.45 43.9 171.95 45.3 171.45 46.55 171.85 48.25 L171.95 48.6 Q172.8 51.05 175.1 52.25 L178.65 52.15 188.1 52.05 Q188.4 55.85 191.6 56.35 192.75 56.6 193.55 55.95 194.3 55.2 194.4 54.05 194.5 53.15 195.0 51.95 L201.25 51.9 Q201.3 53.8 203.5 53.8 206.4 53.65 208.95 51.95 211.1 50.4 210.8 48.2 210.7 47.45 210.15 46.85 208.25 44.05 207.45 40.85 207.05 39.3 208.35 38.15 L210.2 36.4" fill="#e97300" fill-rule="evenodd" stroke="none"/>
    <path d="M213.2 15.0 L214.6 16.25 214.75 16.4 215.95 17.6 216.05 17.75 Q219.9 22.1 222.0 27.3 L222.4 28.15 222.8 29.2 222.95 29.7 223.45 31.9 224.3 38.8 224.3 39.15 224.3 39.55 223.85 45.45 223.15 48.75 223.0 49.4 Q221.0 55.45 216.6 60.45 L216.45 60.7 215.3 61.9 215.2 62.0 215.05 62.0 213.65 63.4 213.6 58.7 214.0 58.45 Q216.8 56.2 216.5 53.0 216.25 51.85 215.6 51.0 L213.5 47.2 213.45 38.1 215.55 35.8 Q216.7 34.35 217.1 32.7 217.7 29.65 216.75 26.45 216.1 22.2 213.25 20.75 L213.2 15.0 M172.15 64.95 L169.3 62.4 Q168.9 62.1 168.65 61.8 L168.55 61.7 167.4 60.4 167.0 59.9 165.8 58.5 165.65 58.35 164.5 56.6 161.8 51.15 Q159.8 45.9 159.75 39.75 159.8 31.6 162.8 25.45 163.95 23.1 165.3 21.05 166.6 19.25 168.0 17.75 L168.6 17.05 168.7 16.8 168.85 16.65 171.65 14.25 171.7 21.75 170.3 22.15 Q167.4 23.6 167.15 26.4 166.85 30.0 169.75 32.1 171.1 33.25 171.85 34.55 L171.9 41.35 167.5 45.2 Q163.65 48.15 164.7 52.9 165.9 56.85 169.0 58.85 170.6 59.6 172.1 59.45 L172.15 64.95" fill="#dadada" fill-rule="evenodd" stroke="none"/>
    <path d="M210.2 36.4 L208.35 38.15 Q207.05 39.3 207.45 40.85 208.25 44.05 210.15 46.85 210.7 47.45 210.8 48.2 211.1 50.4 208.95 51.95 206.4 53.65 203.5 53.8 201.3 53.8 201.25 51.9 L195.0 51.95 Q194.5 53.15 194.4 54.05 194.3 55.2 193.55 55.95 192.75 56.6 191.6 56.35 188.4 55.85 188.1 52.05 L178.65 52.15 175.1 52.25 Q172.8 51.05 171.95 48.6 L171.85 48.25 Q171.45 46.55 171.95 45.3 172.45 43.9 173.85 42.85 L177.3 40.25 177.25 35.5 175.7 33.85 Q173.35 32.4 173.6 29.8 173.85 27.9 176.0 26.95 L178.4 26.6 182.1 26.55 184.15 26.15 Q185.8 25.2 185.45 23.3 184.85 21.5 185.75 20.6 186.4 19.85 187.8 19.6 191.65 18.65 193.85 22.45 194.75 24.45 195.8 26.25 L196.05 26.5 202.05 26.45 202.15 26.35 Q203.7 24.9 205.9 25.25 210.25 25.5 211.05 29.8 211.7 32.0 211.35 34.15 L210.2 36.4 M191.95 41.65 L188.15 27.9 178.95 28.0 179.15 50.85 184.9 50.75 184.75 33.4 189.4 50.75 194.65 50.7 198.95 33.3 199.1 50.65 204.85 50.6 204.65 27.75 195.45 27.8 191.95 41.65" fill="#bb5e00" fill-rule="evenodd" stroke="none"/>
  </g>
</svg>
