<?xml version="1.0" encoding="UTF-8" standalone="no"?>
<svg xmlns:ffdec="https://www.free-decompiler.com/flash" xmlns:xlink="http://www.w3.org/1999/xlink" ffdec:objectType="shape" height="101.0px" width="101.0px" xmlns="http://www.w3.org/2000/svg">
  <g transform="matrix(1.0, 0.0, 0.0, 1.0, -141.2, 11.0)">
    <path d="M218.7 13.0 Q229.7 24.0 229.7 39.5 229.7 55.0 218.7 66.0 207.7 77.0 192.2 77.0 176.7 77.0 165.7 66.0 154.7 55.0 154.7 39.5 154.7 24.0 165.7 13.0 176.7 2.0 192.2 2.0 207.7 2.0 218.7 13.0 M227.7 39.5 Q227.7 24.8 217.3 14.4 206.9 4.0 192.2 4.0 177.5 4.0 167.1 14.4 156.7 24.8 156.7 39.5 156.7 54.2 167.1 64.6 177.5 75.0 192.2 75.0 206.9 75.0 217.3 64.6 227.7 54.2 227.7 39.5" fill="#ffffff" fill-rule="evenodd" stroke="none"/>
    <path d="M242.2 39.5 Q242.2 60.45 227.4 75.2 212.65 90.0 191.7 90.0 170.75 90.0 155.95 75.2 141.2 60.45 141.2 39.5 141.2 18.55 155.95 3.75 170.75 -11.0 191.7 -11.0 212.65 -11.0 227.4 3.75 242.2 18.55 242.2 39.5 M218.7 13.0 Q207.7 2.0 192.2 2.0 176.7 2.0 165.7 13.0 154.7 24.0 154.7 39.5 154.7 55.0 165.7 66.0 176.7 77.0 192.2 77.0 207.7 77.0 218.7 66.0 229.7 55.0 229.7 39.5 229.7 24.0 218.7 13.0" fill="#cacf5c" fill-rule="evenodd" stroke="none"/>
    <path d="M227.7 39.5 Q227.7 54.2 217.3 64.6 206.9 75.0 192.2 75.0 177.5 75.0 167.1 64.6 156.7 54.2 156.7 39.5 156.7 24.8 167.1 14.4 177.5 4.0 192.2 4.0 206.9 4.0 217.3 14.4 227.7 24.8 227.7 39.5" fill="#4f5218" fill-rule="evenodd" stroke="none"/>
    <path d="M199.95 71.0 L198.65 71.25 197.15 71.5 197.0 71.5 194.7 71.8 190.5 71.8 188.7 71.7 188.45 71.7 186.25 71.35 186.2 64.45 192.1 65.0 Q196.2 64.95 199.85 63.8 L199.95 71.0 M185.65 7.7 L187.7 7.45 189.25 7.3 194.1 7.25 196.4 7.45 197.55 7.6 199.35 8.0 199.4 15.25 Q195.7 14.1 191.6 14.15 L185.7 14.85 185.65 7.7 M175.65 32.85 Q176.8 29.9 179.3 27.3 182.25 24.5 185.8 23.3 188.45 22.25 191.65 22.2 195.85 22.15 199.5 23.95 201.9 25.05 204.1 27.1 205.95 28.85 207.2 31.0 L201.0 49.1 198.8 46.2 199.7 45.05 Q201.45 42.55 201.45 39.35 201.4 36.15 199.6 33.8 199.1 32.9 198.25 32.25 195.3 29.3 191.25 29.35 188.3 29.4 185.85 30.95 184.95 31.6 184.1 32.4 181.2 35.35 181.25 39.45 181.25 43.4 183.95 46.2 L181.6 49.3 175.65 32.85 M183.8 55.3 L183.7 54.75 187.2 48.7 Q189.15 49.6 191.45 49.55 193.6 49.55 195.5 48.6 L198.75 54.1 198.65 55.9 Q195.55 57.05 192.0 57.1 188.8 57.15 186.1 56.25 L183.8 55.3" fill="#ffffff" fill-rule="evenodd" stroke="none"/>
    <path d="M213.05 25.35 Q213.2 25.3 213.3 25.2 L214.55 24.2 216.9 27.45 215.9 30.9 215.5 32.35 204.35 53.7 204.4 58.3 201.6 57.5 Q200.55 58.15 199.8 58.05 199.0 57.8 198.5 56.8 L198.65 55.9 198.75 54.1 195.5 48.6 191.2 41.65 187.2 48.7 183.7 54.75 183.8 55.3 184.2 57.45 181.15 57.7 178.3 58.55 177.45 55.85 178.65 53.4 167.15 33.45 166.7 32.8 167.65 24.65 170.1 26.35 174.5 29.75 175.65 32.85 181.6 49.3 183.95 46.2 189.55 38.75 186.0 31.2 191.15 36.4 194.8 31.35 196.6 31.5 193.0 38.7 198.8 46.2 201.0 49.1 207.2 31.0 207.7 29.45 213.05 25.35" fill="#4f5218" fill-rule="evenodd" stroke="none"/>
    <path d="M199.4 15.25 Q205.15 16.95 209.65 21.4 211.65 23.3 213.05 25.35 L207.7 29.45 207.2 31.0 Q205.95 28.85 204.1 27.1 201.9 25.05 199.5 23.95 195.85 22.15 191.65 22.2 188.45 22.25 185.8 23.3 182.25 24.5 179.3 27.3 176.8 29.9 175.65 32.85 L174.5 29.75 170.1 26.35 171.75 23.95 173.65 21.75 Q178.95 16.5 185.7 14.85 L191.6 14.15 Q195.7 14.1 199.4 15.25 M215.9 30.9 Q217.35 34.85 217.4 39.35 217.45 46.9 213.55 53.05 212.05 55.25 210.0 57.35 205.6 61.95 199.85 63.8 196.2 64.95 192.1 65.0 L186.2 64.45 Q179.4 63.0 174.0 57.7 L172.05 55.65 Q166.5 48.9 166.4 39.85 166.35 36.5 167.15 33.45 L178.65 53.4 177.45 55.85 178.3 58.55 181.15 57.7 184.2 57.45 183.8 55.3 186.1 56.25 Q188.8 57.15 192.0 57.1 195.55 57.05 198.65 55.9 L198.5 56.8 Q199.0 57.8 199.8 58.05 200.55 58.15 201.6 57.5 L204.4 58.3 204.35 53.7 215.5 32.35 215.9 30.9 M198.8 46.2 L193.0 38.7 196.6 31.5 194.8 31.35 191.15 36.4 186.0 31.2 189.55 38.75 183.95 46.2 Q181.25 43.4 181.25 39.45 181.2 35.35 184.1 32.4 184.95 31.6 185.85 30.95 188.3 29.4 191.25 29.35 195.3 29.3 198.25 32.25 199.1 32.9 199.6 33.8 201.4 36.15 201.45 39.35 201.45 42.55 199.7 45.05 L198.8 46.2 M187.2 48.7 L191.2 41.65 195.5 48.6 Q193.6 49.55 191.45 49.55 189.15 49.6 187.2 48.7" fill="#cacf5c" fill-rule="evenodd" stroke="none"/>
    <path d="M199.35 8.0 Q202.55 8.55 205.45 9.9 L207.5 11.05 209.6 12.2 210.9 13.05 211.9 13.95 213.2 15.0 213.3 25.2 Q213.2 25.3 213.05 25.35 211.65 23.3 209.65 21.4 205.15 16.95 199.4 15.25 L199.35 8.0 M213.65 63.4 L212.05 64.95 210.25 66.3 210.1 66.4 207.55 67.95 204.85 69.25 Q202.5 70.3 199.95 71.0 L199.85 63.8 Q205.6 61.95 210.0 57.35 212.05 55.25 213.55 53.05 L213.65 63.4 M186.25 71.35 Q183.45 70.85 180.75 69.85 L180.65 69.85 178.4 69.0 177.55 68.5 176.1 67.75 174.45 66.6 172.8 65.5 172.65 65.35 172.15 64.95 172.05 55.65 174.0 57.7 Q179.4 63.0 186.2 64.45 L186.25 71.35 M171.65 14.25 L172.15 13.85 Q172.15 13.7 172.45 13.7 173.7 12.55 175.05 11.75 177.5 10.2 180.05 9.3 L184.25 7.95 185.65 7.7 185.7 14.85 Q178.95 16.5 173.65 21.75 L171.75 23.95 171.65 14.25" fill="#ebebeb" fill-rule="evenodd" stroke="none"/>
    <path d="M213.2 15.0 L214.6 16.25 214.75 16.4 215.95 17.6 216.05 17.75 Q219.9 22.1 222.0 27.3 L222.4 28.15 222.8 29.2 222.95 29.7 223.45 31.9 224.3 38.8 224.3 39.15 224.3 39.55 223.85 45.45 223.15 48.75 223.0 49.4 Q221.0 55.45 216.6 60.45 L216.45 60.7 215.3 61.9 215.2 62.0 215.05 62.0 213.65 63.4 213.55 53.05 Q217.45 46.9 217.4 39.35 217.35 34.85 215.9 30.9 L216.9 27.45 214.55 24.2 213.3 25.2 213.2 15.0 M172.15 64.95 L169.3 62.4 Q168.9 62.1 168.65 61.8 L168.55 61.7 167.4 60.4 167.0 59.9 165.8 58.5 165.65 58.35 164.5 56.6 161.8 51.15 Q159.8 45.9 159.75 39.75 159.8 31.6 162.8 25.45 163.95 23.1 165.3 21.05 166.6 19.25 168.0 17.75 L168.6 17.05 168.7 16.8 168.85 16.65 171.65 14.25 171.75 23.95 170.1 26.35 167.65 24.65 166.7 32.8 167.15 33.45 Q166.35 36.5 166.4 39.85 166.5 48.9 172.05 55.65 L172.15 64.95" fill="#dadada" fill-rule="evenodd" stroke="none"/>
  </g>
</svg>
