<?xml version="1.0" encoding="UTF-8" standalone="no"?>
<svg xmlns:ffdec="https://www.free-decompiler.com/flash" xmlns:xlink="http://www.w3.org/1999/xlink" ffdec:objectType="shape" height="86.95px" width="86.95px" xmlns="http://www.w3.org/2000/svg">
  <g transform="matrix(1.0, 0.0, 0.0, 1.0, 40.9, 58.9)">
    <path d="M-24.7 -46.75 Q-21.6 -48.6 -15.9 -49.5 L-8.8 -50.1 Q6.7 -50.1 17.65 -39.4 28.6 -28.7 28.6 -13.45 28.6 0.25 19.0 11.15 8.35 23.2 -7.85 23.2 L-13.4 22.95 -16.5 21.5 -16.45 21.55 Q-22.05 18.6 -26.8 13.85 -38.95 1.75 -38.9 -15.45 -38.95 -29.9 -30.3 -40.8 L-27.15 -44.4 -27.1 -44.5 -26.95 -44.65 -26.7 -44.85 -24.7 -46.75" fill="#926041" fill-rule="evenodd" stroke="none"/>
    <path d="M-13.4 22.95 L-7.85 23.2 Q8.35 23.2 19.0 11.15 28.6 0.25 28.6 -13.45 28.6 -28.7 17.65 -39.4 6.7 -50.1 -8.8 -50.1 L-15.9 -49.5 Q-21.6 -48.6 -24.7 -46.75 L-23.8 -47.5 Q-21.6 -49.15 -18.8 -50.65 -15.9 -51.9 -12.1 -52.7 L-2.3 -53.75 Q14.2 -53.75 25.85 -42.1 37.5 -30.45 37.5 -13.85 37.5 3.0 25.9 14.3 14.75 25.15 -1.35 25.9 L-7.95 24.5 -13.4 22.95" fill="#83563a" fill-rule="evenodd" stroke="none"/>
    <path d="M-1.35 25.9 Q14.75 25.15 25.9 14.3 37.5 3.0 37.5 -13.85 37.5 -30.45 25.85 -42.1 14.2 -53.75 -2.3 -53.75 L-12.1 -52.7 Q-15.9 -51.9 -18.8 -50.65 -16.05 -52.15 -12.75 -53.45 -4.35 -56.9 2.55 -56.9 18.15 -56.9 30.35 -46.25 44.05 -34.3 44.05 -15.45 44.05 2.35 31.6 14.6 18.35 27.7 -1.35 25.9" fill="#754b33" fill-rule="evenodd" stroke="none"/>
    <path d="M-24.7 -46.75 L-26.7 -44.85 -26.95 -44.65 -27.1 -44.5 -27.15 -44.4 -30.3 -40.8 Q-38.95 -29.9 -38.9 -15.45 -38.95 1.75 -26.8 13.85 -22.05 18.6 -16.45 21.55 L-16.5 21.5 -13.4 22.95 -7.95 24.5 -1.35 25.9 Q18.35 27.7 31.6 14.6 44.05 2.35 44.05 -15.45 44.05 -34.3 30.35 -46.25 18.15 -56.9 2.55 -56.9 -4.35 -56.9 -12.75 -53.45 -16.05 -52.15 -18.8 -50.65 -21.6 -49.15 -23.8 -47.5 L-24.7 -46.75 M2.55 -58.9 Q20.55 -58.9 33.25 -46.2 46.0 -33.45 46.05 -15.45 46.0 2.55 33.25 15.25 20.55 28.0 2.55 28.05 -4.5 28.0 -10.8 26.05 -14.25 24.95 -17.4 23.3 -23.25 20.2 -28.2 15.25 -40.95 2.55 -40.9 -15.45 -40.95 -30.6 -31.85 -42.05 L-28.6 -45.8 -28.45 -45.95 -27.95 -46.4 Q-15.3 -58.9 2.55 -58.9" fill="#4b3121" fill-rule="evenodd" stroke="none"/>
  </g>
</svg>
