<?xml version="1.0" encoding="UTF-8" standalone="no"?>
<svg xmlns:ffdec="https://www.free-decompiler.com/flash" xmlns:xlink="http://www.w3.org/1999/xlink" ffdec:objectType="shape" height="174.45px" width="157.8px" xmlns="http://www.w3.org/2000/svg">
  <g transform="matrix(1.0, 0.0, 0.0, 1.0, 67.5, 138.05)">
    <path d="M29.35 -0.35 L29.35 -0.4 33.1 -0.75 Q35.55 -0.75 36.7 1.05 37.9 2.95 37.85 7.35 L37.1 11.5 36.05 14.9 Q34.9 17.7 31.55 20.55 28.55 23.1 25.75 24.2 L25.75 24.1 Q27.35 19.15 28.45 10.6 29.35 3.55 29.35 -0.35 M-20.85 1.2 L-17.2 17.45 -17.1 17.8 Q-19.25 16.55 -21.1 12.25 -23.0 7.85 -23.0 3.85 -23.0 2.6 -22.65 2.1 -22.25 1.6 -20.95 1.1 L-20.85 1.2" fill="#3838e9" fill-rule="evenodd" stroke="none"/>
    <path d="M18.75 11.3 L18.7 11.7 18.8 11.0 18.75 11.3" fill="#5858ed" fill-rule="evenodd" stroke="none"/>
    <path d="M43.45 -4.25 L46.2 -3.25 Q46.45 12.85 35.65 24.5 24.85 36.15 9.4 36.4 -6.05 36.65 -17.2 25.4 -28.35 14.1 -28.65 -2.0 L-26.95 -2.6 Q-26.55 1.75 -22.35 12.05 L-18.2 21.55 Q-18.2 22.95 -15.1 25.55 L-12.95 27.2 Q-9.55 29.65 -7.25 30.95 L-6.4 31.35 Q-6.4 31.6 -0.2 33.5 L-0.2 33.65 4.35 34.15 7.45 34.25 7.6 34.25 15.45 33.1 17.35 31.7 18.15 31.9 18.1 32.15 19.45 31.8 Q21.8 31.4 23.55 29.65 L23.75 29.4 27.2 26.9 Q33.35 22.15 34.35 20.0 39.3 12.65 41.0 7.35 41.9 4.65 43.45 -4.25" fill="#161754" fill-rule="evenodd" stroke="none"/>
    <path d="M29.45 -3.65 Q31.75 -3.7 34.1 -4.7 36.65 -5.8 37.65 -7.45 L39.35 -6.3 37.85 7.35 Q37.9 2.95 36.7 1.05 35.55 -0.75 33.1 -0.75 L29.35 -0.4 29.45 -3.65 M25.75 24.2 Q28.55 23.1 31.55 20.55 34.9 17.7 36.05 14.9 L34.35 20.0 Q33.35 22.15 27.2 26.9 L23.75 29.4 Q25.75 27.25 25.75 24.2 M18.15 31.9 L19.45 31.8 18.1 32.15 18.15 31.9 M15.45 33.1 L15.6 32.5 Q15.6 32.15 16.15 31.95 L17.35 31.7 15.45 33.1 M-6.4 31.35 L-7.25 30.95 -6.55 30.95 -6.4 31.35 M-15.1 25.55 Q-18.2 22.95 -18.2 21.55 L-22.35 12.05 Q-26.55 1.75 -26.95 -2.6 -25.1 -3.15 -24.65 -3.95 -23.95 -5.25 -21.6 -6.8 L-21.6 -6.6 -21.9 -3.1 -21.5 -0.8 -20.95 1.1 Q-22.25 1.6 -22.65 2.1 -23.0 2.6 -23.0 3.85 -23.0 7.85 -21.1 12.25 -19.25 16.55 -17.1 17.8 -17.1 22.2 -15.1 25.55" fill="#1818e0" fill-rule="evenodd" stroke="none"/>
    <path d="M39.35 -6.3 Q41.35 -5.2 43.45 -4.25 41.9 4.65 41.0 7.35 39.3 12.65 34.35 20.0 L36.05 14.9 37.1 11.5 37.85 7.35 39.35 -6.3 M-7.25 30.95 Q-9.55 29.65 -12.95 27.2 L-15.1 25.55 Q-17.1 22.2 -17.1 17.8 L-17.2 17.45 Q-13.8 20.85 -8.35 23.95 L-8.25 24.4 -6.55 30.95 -7.25 30.95" fill="#8600bf" fill-rule="evenodd" stroke="none"/>
    <path d="M-11.1 3.15 L-10.95 5.55 -10.95 5.75 Q-13.85 7.25 -18.5 7.25 L-19.3 7.25 -18.95 7.6 Q-18.6 8.1 -18.6 8.7 -18.6 10.0 -16.6 12.65 -13.95 16.15 -9.25 19.45 L-9.15 19.9 -8.35 23.95 Q-13.8 20.85 -17.2 17.45 L-20.85 1.2 Q-19.65 3.9 -14.9 3.9 -13.35 3.9 -11.1 3.15" fill="#b509ff" fill-rule="evenodd" stroke="none"/>
    <path d="M-10.95 5.75 L-9.25 19.45 Q-13.95 16.15 -16.6 12.65 -18.6 10.0 -18.6 8.7 -18.6 8.1 -18.95 7.6 L-19.3 7.25 -18.5 7.25 Q-13.85 7.25 -10.95 5.75" fill="#c640ff" fill-rule="evenodd" stroke="none"/>
    <path d="M-1.75 -0.8 L1.3 -1.05 4.6 -1.55 Q5.8 0.3 6.75 1.2 L4.8 0.25 -1.75 -0.7 -1.75 -0.8 M9.15 2.65 L9.85 2.95 9.85 3.1 9.15 2.65 M7.45 34.25 L4.35 34.15 -0.2 33.65 -0.2 33.5 0.05 33.55 -0.2 28.05 8.2 28.75 7.45 34.25" fill="#aa6200" fill-rule="evenodd" stroke="none"/>
    <path d="M6.75 1.2 L9.15 2.65 9.85 3.1 9.85 3.7 9.8 7.25 Q5.15 5.55 1.4 3.65 -0.2 2.85 -1.55 3.05 L-1.75 -0.7 4.8 0.25 6.75 1.2 M8.7 24.35 L8.2 28.75 -0.2 28.05 -0.25 27.8 -0.45 23.6 8.7 24.35" fill="#d27900" fill-rule="evenodd" stroke="none"/>
    <path d="M9.8 7.25 L9.8 7.6 8.7 24.35 -0.45 23.6 -0.45 23.45 -1.55 3.1 -1.55 3.05 Q-0.2 2.85 1.4 3.65 5.15 5.55 9.8 7.25" fill="#ff9606" fill-rule="evenodd" stroke="none"/>
    <path d="M-0.2 33.5 Q-6.4 31.6 -6.4 31.35 L-6.55 30.95 -8.25 24.4 -4.85 26.2 -0.25 27.8 -0.2 28.05 0.05 33.55 -0.2 33.5" fill="#ad0303" fill-rule="evenodd" stroke="none"/>
    <path d="M-1.75 -0.7 L-1.55 3.05 -1.55 3.1 Q-8.55 4.3 -9.5 4.75 L-10.95 5.55 -11.1 3.15 Q-9.65 2.75 -7.3 1.1 L-4.1 -1.2 -2.4 -0.95 -1.75 -0.8 -1.75 -0.7 M-9.15 19.9 Q-6.05 21.65 -3.45 22.6 L-0.45 23.45 -0.45 23.6 -0.25 27.8 -4.85 26.2 -8.25 24.4 -8.35 23.95 -9.15 19.9" fill="#e70505" fill-rule="evenodd" stroke="none"/>
    <path d="M-10.95 5.55 L-9.5 4.75 Q-8.55 4.3 -1.55 3.1 L-0.45 23.45 -3.45 22.6 Q-6.05 21.65 -9.15 19.9 L-9.25 19.45 -10.95 5.75 -10.95 5.55" fill="#fa3232" fill-rule="evenodd" stroke="none"/>
    <path d="M8.75 -123.8 Q7.3 -125.75 7.7 -127.8 L8.45 -131.05 Q8.45 -132.45 7.7 -134.6 L8.1 -134.35 Q9.1 -134.2 11.3 -133.1 14.1 -131.7 14.95 -130.25 L15.05 -130.1 16.85 -127.0 Q16.65 -124.1 22.7 -107.95 28.6 -92.35 28.95 -92.35 29.4 -92.35 32.05 -83.85 L36.6 -68.15 39.25 -58.05 Q42.3 -46.05 42.25 -44.7 L28.7 -41.35 28.55 -43.6 Q29.0 -44.05 30.0 -43.3 L30.4 -43.25 Q30.75 -43.35 30.75 -44.0 30.75 -44.5 30.3 -44.6 29.8 -44.7 29.8 -45.2 29.8 -46.2 30.7 -47.4 L28.4 -45.85 28.4 -45.95 28.35 -46.65 27.55 -53.05 28.75 -54.55 Q28.65 -55.15 27.3 -54.8 L26.75 -58.3 Q27.85 -59.95 27.75 -62.3 27.75 -63.75 27.05 -66.8 L27.4 -67.1 27.75 -68.0 26.75 -68.1 26.0 -70.75 26.75 -71.4 25.5 -72.5 24.7 -75.15 25.4 -76.6 24.4 -76.1 24.05 -76.7 23.1 -78.05 22.9 -79.15 22.6 -81.0 24.15 -81.1 Q25.8 -81.25 26.25 -81.65 25.5 -82.3 22.35 -82.35 L21.5 -86.2 23.35 -87.9 21.1 -87.85 20.2 -92.1 21.75 -91.55 22.75 -92.25 19.9 -93.35 18.45 -99.9 19.25 -100.85 20.0 -102.25 18.05 -101.6 17.3 -104.75 20.1 -105.95 18.85 -106.7 Q17.7 -107.75 17.9 -109.0 L16.5 -107.65 14.7 -112.75 15.5 -113.15 16.25 -113.75 14.35 -113.6 13.4 -115.65 11.05 -120.15 12.75 -123.3 12.55 -123.45 Q12.3 -123.4 11.6 -122.8 L10.25 -121.45 9.9 -122.05 10.25 -122.2 10.6 -122.75 Q9.75 -123.9 8.75 -123.8 M-22.4 -40.6 L-20.55 -51.05 Q-19.7 -55.35 -19.7 -60.2 -19.7 -70.15 -23.5 -73.1 L-26.65 -75.15 Q-28.4 -76.4 -29.2 -78.55 L-30.0 -81.8 -30.1 -83.35 Q-30.1 -86.4 -27.7 -94.1 -25.05 -102.7 -21.7 -109.1 -20.7 -109.1 -19.95 -108.65 -19.25 -108.2 -19.25 -107.55 -24.45 -95.2 -26.6 -91.3 -26.15 -90.3 -25.75 -88.05 L-25.4 -85.55 Q-26.45 -83.5 -27.7 -83.05 L-29.35 -82.9 -29.35 -82.5 -23.9 -82.3 Q-21.6 -79.55 -20.45 -78.85 -16.75 -76.65 -9.25 -76.65 L4.6 -77.2 Q10.0 -77.2 10.0 -74.35 10.0 -73.4 5.5 -70.5 L1.0 -67.4 Q1.0 -65.95 -4.6 -63.4 -10.65 -60.6 -11.65 -58.4 -11.15 -57.8 -9.55 -57.15 -8.0 -56.5 -7.2 -56.5 L-8.2 -52.65 Q-8.5 -51.45 -8.85 -51.1 L-9.0 -51.45 -9.1 -51.65 Q-9.4 -51.0 -9.3 -48.55 -9.0 -44.75 -9.05 -43.75 -9.15 -41.8 -5.35 -40.6 -2.3 -39.65 0.75 -39.65 10.25 -39.65 18.4 -40.95 24.4 -41.95 26.8 -43.0 L27.15 -42.35 27.4 -41.0 14.85 -39.0 1.25 -37.5 -10.65 -38.65 Q-19.9 -39.85 -22.4 -40.6 M-21.4 -109.75 Q-17.9 -118.1 -12.95 -125.35 -8.55 -131.8 -5.8 -133.7 -9.25 -130.45 -11.2 -125.6 -12.3 -122.75 -12.55 -120.7 -13.8 -119.4 -15.45 -116.1 L-18.25 -109.85 -21.4 -109.75 M26.6 -45.95 L25.6 -46.9 26.55 -46.1 26.6 -45.95 M24.85 -47.55 L21.85 -48.65 18.85 -48.9 Q15.7 -49.35 14.25 -50.1 L14.75 -51.0 Q16.2 -50.7 20.2 -52.75 24.05 -54.7 25.2 -56.05 L25.5 -53.55 24.5 -52.15 24.95 -51.85 25.7 -51.8 26.3 -47.9 25.1 -47.95 Q24.55 -47.75 24.85 -47.55 M35.15 -55.6 Q33.8 -55.6 32.85 -54.65 31.9 -53.7 31.9 -52.35 31.9 -51.0 32.85 -50.05 33.8 -49.1 35.15 -49.1 36.5 -49.1 37.45 -50.05 38.4 -51.0 38.4 -52.35 38.4 -53.7 37.45 -54.65 36.5 -55.6 35.15 -55.6 M9.85 2.95 L13.5 3.6 Q14.95 3.6 19.4 1.95 L19.3 3.85 19.3 4.1 15.35 4.75 9.85 3.7 9.85 3.1 9.85 2.95 M8.2 28.75 L12.6 28.3 16.35 27.6 15.35 32.65 15.6 32.5 15.45 33.1 7.6 34.25 7.45 34.25 8.2 28.75 M-27.65 -89.75 L-27.45 -89.9 -27.05 -90.6 -27.65 -89.75" fill="#d7c80b" fill-rule="evenodd" stroke="none"/>
    <path d="M19.4 1.95 L23.9 -1.15 Q27.7 -3.75 29.45 -3.65 L29.35 -0.4 29.35 -0.35 Q27.3 -0.3 23.3 1.7 L19.3 3.85 19.4 1.95 M25.75 24.1 L25.75 24.2 Q25.75 27.25 23.75 29.4 L23.55 29.65 Q21.8 31.4 19.45 31.8 L18.15 31.9 17.35 31.7 16.15 31.95 Q15.6 32.15 15.6 32.5 L15.35 32.65 16.35 27.6 16.35 27.4 Q21.5 26.0 25.75 24.1" fill="#136811" fill-rule="evenodd" stroke="none"/>
    <path d="M29.35 -0.35 Q29.35 3.55 28.45 10.6 27.35 19.15 25.75 24.1 21.5 26.0 16.35 27.4 L17.15 22.9 17.2 22.65 Q19.75 22.9 21.9 21.5 24.05 20.05 24.45 17.75 24.8 15.4 23.2 13.55 21.55 11.65 18.75 11.3 L18.8 11.0 19.3 4.1 19.3 3.85 23.3 1.7 Q27.3 -0.3 29.35 -0.35" fill="#1b9117" fill-rule="evenodd" stroke="none"/>
    <path d="M18.75 11.3 Q21.55 11.65 23.2 13.55 24.8 15.4 24.45 17.75 24.05 20.05 21.9 21.5 19.75 22.9 17.2 22.65 L18.7 11.7 18.75 11.3" fill="#21b81d" fill-rule="evenodd" stroke="none"/>
    <path d="M21.5 -86.2 L22.35 -82.35 22.25 -82.35 21.45 -86.2 21.5 -86.2 M22.6 -81.0 L22.9 -79.15 22.5 -81.0 22.6 -81.0 M23.1 -78.05 L24.05 -76.7 24.4 -76.1 23.6 -75.5 23.1 -78.05 M24.7 -75.15 L25.5 -72.5 24.0 -73.8 24.7 -75.15 M26.0 -70.75 L26.75 -68.1 25.0 -67.85 24.35 -71.5 26.0 -70.75 M27.05 -66.8 Q27.75 -63.75 27.75 -62.3 27.85 -59.95 26.75 -58.3 L26.4 -60.1 27.0 -60.1 27.0 -61.25 26.2 -61.25 25.35 -66.0 27.05 -66.8 M-12.55 -120.7 L-12.7 -118.65 Q-12.75 -117.8 -12.15 -117.8 L-10.65 -114.95 -8.9 -111.55 -13.0 -102.25 -13.05 -109.45 -10.05 -109.45 -17.65 -109.85 -18.25 -109.85 -15.45 -116.1 Q-13.8 -119.4 -12.55 -120.7 M2.8 -119.0 L6.9 -124.95 7.3 -124.55 7.8 -123.7 7.35 -123.65 6.85 -123.0 8.4 -122.5 9.55 -120.3 8.75 -118.15 9.5 -117.55 10.25 -118.75 12.5 -113.5 11.85 -113.45 11.0 -113.0 Q11.1 -112.85 11.65 -112.65 L12.9 -112.45 14.8 -107.0 Q14.2 -106.8 12.65 -105.8 L14.75 -104.9 13.15 -100.45 14.35 -100.6 Q15.05 -101.05 15.95 -103.4 L16.8 -100.55 15.25 -98.3 16.0 -97.4 17.3 -98.75 18.7 -93.7 16.25 -94.25 Q16.25 -93.5 19.05 -92.5 L20.35 -87.5 Q17.45 -85.0 15.6 -82.05 L16.6 -82.4 Q18.1 -83.2 20.8 -85.6 L21.5 -82.4 Q18.5 -82.45 17.75 -81.8 L21.8 -81.0 22.9 -74.95 Q22.2 -74.4 20.55 -74.35 L20.2 -73.3 21.1 -72.95 19.4 -70.3 Q19.9 -69.6 20.55 -69.95 21.3 -70.3 22.85 -72.2 L23.35 -71.95 23.95 -67.6 20.25 -65.75 Q20.85 -65.3 21.6 -65.25 L24.2 -65.6 24.65 -61.25 22.95 -61.25 22.95 -60.1 24.75 -60.1 25.2 -56.05 Q24.05 -54.7 20.2 -52.75 16.2 -50.7 14.75 -51.0 L14.25 -50.1 Q15.7 -49.35 18.85 -48.9 L21.85 -48.65 24.85 -47.55 25.6 -46.9 26.6 -45.95 27.0 -43.4 26.8 -43.0 Q24.4 -41.95 18.4 -40.95 10.25 -39.65 0.75 -39.65 -2.3 -39.65 -5.35 -40.6 -9.15 -41.8 -9.05 -43.75 -9.0 -44.75 -9.3 -48.55 -9.4 -51.0 -9.1 -51.65 L-9.0 -51.45 -8.85 -51.1 Q-8.5 -51.45 -8.2 -52.65 L-7.2 -56.5 Q-8.0 -56.5 -9.55 -57.15 -11.15 -57.8 -11.65 -58.4 -10.65 -60.6 -4.6 -63.4 1.0 -65.95 1.0 -67.4 L5.5 -70.5 Q10.0 -73.4 10.0 -74.35 10.0 -77.2 4.6 -77.2 L-9.25 -76.65 Q-16.75 -76.65 -20.45 -78.85 -21.6 -79.55 -23.9 -82.3 L-20.1 -82.15 -21.3 -82.3 Q-21.85 -82.55 -22.45 -84.4 -16.25 -94.3 -15.9 -92.75 -15.9 -88.95 -14.4 -86.25 -12.9 -83.55 -10.8 -83.55 L-9.9 -82.4 -10.6 -81.65 0.4 -81.05 -1.8 -81.7 -4.25 -83.15 -4.6 -83.55 Q4.2 -83.75 7.4 -88.45 9.65 -91.7 9.65 -98.65 9.65 -101.3 8.4 -106.05 6.5 -113.15 2.8 -119.0 M4.2 -54.65 L8.95 -54.25 Q16.2 -54.25 18.6 -56.55 20.1 -57.95 20.1 -61.4 20.1 -66.3 17.25 -68.75 15.3 -70.45 13.15 -70.45 7.85 -70.45 3.85 -65.6 0.5 -61.5 0.5 -57.9 L0.6 -57.05 0.65 -57.0 0.1 -55.45 Q0.2 -54.8 0.9 -54.65 L4.2 -54.65 M-0.8 -43.15 L2.85 -42.7 6.25 -42.5 Q11.95 -42.5 13.45 -43.7 14.25 -44.35 13.85 -45.05 13.85 -46.2 11.05 -47.95 7.4 -50.2 2.05 -50.2 L-1.1 -49.8 Q-2.1 -49.45 -3.3 -48.7 -5.55 -48.25 -6.75 -47.05 -7.7 -46.2 -7.7 -45.45 -7.7 -44.45 -6.45 -43.5 -4.5 -42.05 -0.8 -43.15 M17.15 22.9 L16.35 27.4 16.35 27.6 12.6 28.3 8.2 28.75 8.7 24.35 Q12.85 24.25 17.15 22.9 M19.3 4.1 L18.8 11.0 14.05 8.5 9.8 7.6 9.8 7.25 9.85 3.7 15.35 4.75 19.3 4.1 M-18.95 -106.6 Q-18.8 -104.15 -17.75 -102.15 L-16.55 -99.5 Q-16.25 -96.75 -24.35 -87.15 L-25.4 -85.55 -25.75 -88.05 Q-26.15 -90.3 -26.6 -91.3 -24.45 -95.2 -19.25 -107.55 L-18.95 -106.6 M-27.65 -89.75 L-27.05 -90.6 -27.45 -89.9 -27.65 -89.75" fill="#f4e426" fill-rule="evenodd" stroke="none"/>
    <path d="M-8.9 -111.55 Q-7.2 -111.55 -3.1 -114.25 0.7 -116.75 2.8 -119.0 6.5 -113.15 8.4 -106.05 9.65 -101.3 9.65 -98.65 9.65 -91.7 7.4 -88.45 4.2 -83.75 -4.6 -83.55 -6.0 -85.3 -9.35 -88.65 -12.0 -92.05 -11.85 -95.3 -11.7 -98.55 -8.95 -100.1 -6.25 -101.65 -4.7 -102.75 -3.2 -103.85 -0.1 -105.5 L7.05 -109.4 -3.35 -109.1 -1.3 -108.65 Q-1.45 -108.2 -6.8 -104.25 -12.2 -100.3 -13.0 -100.85 L-13.0 -102.25 -8.9 -111.55 M-10.8 -83.55 Q-12.9 -83.55 -14.4 -86.25 -15.9 -88.95 -15.9 -92.75 L-15.0 -91.05 -13.5 -88.35 -12.25 -86.15 -10.8 -83.55 M4.2 -54.65 Q12.3 -56.65 14.1 -57.45 16.75 -58.65 16.75 -61.05 16.75 -62.05 16.15 -62.85 14.9 -64.45 11.6 -64.45 6.95 -64.45 4.15 -61.7 L0.65 -57.0 0.6 -57.05 0.5 -57.9 Q0.5 -61.5 3.85 -65.6 7.85 -70.45 13.15 -70.45 15.3 -70.45 17.25 -68.75 20.1 -66.3 20.1 -61.4 20.1 -57.95 18.6 -56.55 16.2 -54.25 8.95 -54.25 L4.2 -54.65 M-3.3 -48.7 Q-2.1 -49.45 -1.1 -49.8 L2.05 -50.2 Q7.4 -50.2 11.05 -47.95 13.85 -46.2 13.85 -45.05 14.25 -44.35 13.45 -43.7 11.95 -42.5 6.25 -42.5 L2.85 -42.7 -0.8 -43.15 Q0.2 -43.4 0.6 -43.8 0.95 -44.2 0.95 -44.95 0.95 -46.7 -0.25 -47.8 -1.45 -48.9 -3.3 -48.7 M18.7 11.7 L17.2 22.65 17.15 22.9 Q12.85 24.25 8.7 24.35 L9.8 7.6 14.05 8.5 18.8 11.0 18.7 11.7" fill="#f8ed65" fill-rule="evenodd" stroke="none"/>
    <path d="M42.25 -44.7 Q42.3 -46.05 39.25 -58.05 L36.6 -68.15 32.05 -83.85 Q29.4 -92.35 28.95 -92.35 28.6 -92.35 22.7 -107.95 16.65 -124.1 16.85 -127.0 L15.05 -130.1 14.95 -130.25 Q14.1 -131.7 11.3 -133.1 9.1 -134.2 8.1 -134.35 L7.7 -134.6 Q8.45 -132.45 8.45 -131.05 L7.7 -127.8 Q7.3 -125.75 8.75 -123.8 L7.8 -123.7 7.3 -124.55 6.9 -124.95 2.8 -119.0 Q0.7 -116.75 -3.1 -114.25 -7.2 -111.55 -8.9 -111.55 L-10.65 -114.95 -12.15 -117.8 Q-12.75 -117.8 -12.7 -118.65 L-12.55 -120.7 Q-12.3 -122.75 -11.2 -125.6 -9.25 -130.45 -5.8 -133.7 -8.55 -131.8 -12.95 -125.35 -17.9 -118.1 -21.4 -109.75 L-22.1 -109.15 -21.7 -109.1 Q-25.05 -102.7 -27.7 -94.1 -30.1 -86.4 -30.1 -83.35 L-30.0 -81.8 -29.2 -78.55 Q-28.4 -76.4 -26.65 -75.15 L-23.5 -73.1 Q-19.7 -70.15 -19.7 -60.2 -19.7 -55.35 -20.55 -51.05 L-22.4 -40.6 -24.45 -40.95 Q-23.75 -43.8 -22.8 -50.3 -21.75 -57.75 -21.75 -61.35 -21.75 -67.9 -26.9 -73.2 L-30.5 -77.3 Q-32.1 -79.9 -32.1 -83.25 -28.75 -101.35 -27.1 -101.35 L-25.0 -107.1 Q-22.45 -114.25 -19.65 -119.7 -10.1 -138.05 2.3 -138.05 11.25 -138.05 17.15 -128.4 18.85 -125.6 20.4 -121.75 21.6 -118.75 21.7 -118.75 23.8 -118.75 30.6 -96.5 L38.65 -68.15 41.95 -55.95 44.25 -45.15 42.25 -44.7 M9.9 -122.05 L10.25 -121.45 9.55 -120.3 8.4 -122.5 9.9 -122.05 M11.05 -120.15 L13.4 -115.65 14.35 -113.6 12.5 -113.5 10.25 -118.75 11.05 -120.15 M14.7 -112.75 L16.5 -107.65 Q16.2 -107.35 15.55 -107.2 L14.8 -107.0 12.9 -112.45 13.5 -112.5 14.7 -112.75 M17.3 -104.75 L18.05 -101.6 16.8 -100.55 15.95 -103.4 16.4 -104.05 Q16.9 -104.75 17.3 -104.75 M18.45 -99.9 L19.9 -93.35 18.7 -93.7 17.3 -98.75 18.45 -99.9 M20.2 -92.1 L21.1 -87.85 20.35 -87.5 19.05 -92.5 20.2 -92.1 M22.9 -79.15 L23.1 -78.05 23.6 -75.5 22.9 -74.95 21.8 -81.0 22.5 -81.0 22.9 -79.15 M26.75 -58.3 L27.3 -54.8 25.5 -53.55 25.2 -56.05 24.75 -60.1 26.4 -60.1 26.75 -58.3 M27.55 -53.05 L28.35 -46.65 26.3 -47.9 25.7 -51.8 27.55 -53.05 M28.55 -43.6 L28.7 -41.35 27.4 -41.0 27.15 -42.35 28.55 -43.6 M5.75 -133.7 Q4.6 -135.6 2.65 -135.6 -2.75 -135.6 -7.0 -129.35 -10.5 -124.2 -10.5 -120.5 -10.5 -117.4 -8.2 -113.8 4.8 -120.95 6.4 -128.75 7.0 -131.7 5.75 -133.7 M27.0 -43.4 L26.6 -45.95 26.55 -46.1 27.05 -45.4 Q27.45 -44.5 27.0 -43.4 M24.65 -61.25 L24.2 -65.6 25.35 -66.0 26.2 -61.25 24.65 -61.25 M23.95 -67.6 L23.35 -71.95 24.35 -71.5 25.0 -67.85 23.95 -67.6 M21.5 -82.4 L20.8 -85.6 21.45 -86.2 22.25 -82.35 21.5 -82.4 M0.65 -57.0 L4.15 -61.7 Q6.95 -64.45 11.6 -64.45 14.9 -64.45 16.15 -62.85 16.75 -62.05 16.75 -61.05 16.75 -58.65 14.1 -57.45 12.3 -56.65 4.2 -54.65 L0.9 -54.65 Q0.2 -54.8 0.1 -55.45 L0.65 -57.0 M1.75 -56.05 Q9.15 -58.6 13.7 -59.35 L15.15 -59.65 15.3 -60.45 Q15.3 -63.9 9.4 -60.8 L1.75 -56.05 M34.25 -50.6 Q34.7 -50.0 35.4 -50.0 36.1 -50.0 36.6 -50.6 37.05 -51.25 37.05 -52.15 37.05 -53.05 36.6 -53.65 36.1 -54.3 35.4 -54.3 34.7 -54.3 34.25 -53.65 33.75 -53.05 33.75 -52.15 33.75 -51.25 34.25 -50.6 M35.15 -55.6 Q36.5 -55.6 37.45 -54.65 38.4 -53.7 38.4 -52.35 38.4 -51.0 37.45 -50.05 36.5 -49.1 35.15 -49.1 33.8 -49.1 32.85 -50.05 31.9 -51.0 31.9 -52.35 31.9 -53.7 32.85 -54.65 33.8 -55.6 35.15 -55.6 M-3.3 -48.7 Q-1.45 -48.9 -0.25 -47.8 0.95 -46.7 0.95 -44.95 0.95 -44.2 0.6 -43.8 0.2 -43.4 -0.8 -43.15 -4.5 -42.05 -6.45 -43.5 -7.7 -44.45 -7.7 -45.45 -7.7 -46.2 -6.75 -47.05 -5.55 -48.25 -3.3 -48.7 M-1.2 -46.85 L-3.5 -47.35 -5.75 -46.85 Q-6.7 -46.4 -6.7 -45.7 -6.7 -45.0 -5.75 -44.5 -4.85 -44.05 -3.5 -44.05 -2.15 -44.05 -1.2 -44.5 -0.3 -45.0 -0.3 -45.7 -0.3 -46.4 -1.2 -46.85" fill="#514b04" fill-rule="evenodd" stroke="none"/>
    <path d="M5.75 -133.7 Q7.0 -131.7 6.4 -128.75 4.8 -120.95 -8.2 -113.8 -10.5 -117.4 -10.5 -120.5 -10.5 -124.2 -7.0 -129.35 -2.75 -135.6 2.65 -135.6 4.6 -135.6 5.75 -133.7 M1.75 -56.05 L9.4 -60.8 Q15.3 -63.9 15.3 -60.45 L15.15 -59.65 13.7 -59.35 Q9.15 -58.6 1.75 -56.05 M34.25 -50.6 Q33.75 -51.25 33.75 -52.15 33.75 -53.05 34.25 -53.65 34.7 -54.3 35.4 -54.3 36.1 -54.3 36.6 -53.65 37.05 -53.05 37.05 -52.15 37.05 -51.25 36.6 -50.6 36.1 -50.0 35.4 -50.0 34.7 -50.0 34.25 -50.6 M-1.2 -46.85 Q-0.3 -46.4 -0.3 -45.7 -0.3 -45.0 -1.2 -44.5 -2.15 -44.05 -3.5 -44.05 -4.85 -44.05 -5.75 -44.5 -6.7 -45.0 -6.7 -45.7 -6.7 -46.4 -5.75 -46.85 L-3.5 -47.35 -1.2 -46.85" fill="#f1ba87" fill-rule="evenodd" stroke="none"/>
    <path d="M39.4 -38.75 Q39.6 -39.4 39.95 -39.75 40.3 -40.1 40.8 -40.1 41.25 -40.1 41.65 -39.75 L42.15 -38.9 42.2 -37.9 Q42.1 -36.65 41.55 -35.75 L41.05 -35.15 Q39.9 -35.45 39.4 -35.75 L39.1 -36.0 Q39.1 -37.35 39.4 -38.75 M65.5 -38.9 L68.25 -39.6 68.6 -38.7 Q68.55 -36.9 68.1 -35.8 67.6 -34.7 66.95 -34.8 66.3 -34.9 65.9 -36.15 65.45 -37.4 65.5 -38.9 M-21.5 -37.95 Q-21.0 -37.1 -21.0 -36.25 L-21.05 -35.65 Q-21.75 -34.95 -22.9 -35.05 L-23.7 -36.6 -23.15 -38.0 -22.2 -38.15 -21.5 -37.95 M-3.1 -33.75 L-3.0 -33.75 -2.15 -33.15 Q-1.8 -32.7 -1.8 -32.05 L-1.85 -31.35 -2.0 -31.0 -3.15 -30.8 -4.15 -30.85 -4.3 -32.15 Q-4.3 -33.15 -3.95 -33.5 L-3.1 -33.75 M43.75 -30.6 Q44.1 -32.35 45.0 -32.6 L46.05 -31.35 46.2 -30.6 46.1 -29.95 46.0 -30.05 44.85 -29.8 44.1 -30.0 Q43.75 -30.25 43.75 -30.6 M28.65 -29.05 Q29.0 -29.6 29.5 -29.6 L30.4 -29.05 Q30.75 -28.55 30.75 -27.8 30.75 -27.05 30.4 -26.5 30.0 -26.0 29.5 -26.0 29.0 -26.0 28.65 -26.5 28.25 -27.05 28.25 -27.8 28.25 -28.55 28.65 -29.05 M23.9 -33.0 Q24.25 -32.5 24.25 -31.75 24.25 -31.0 23.9 -30.45 23.5 -29.95 22.95 -29.95 22.4 -29.95 22.05 -30.45 21.65 -31.0 21.65 -31.75 21.65 -32.5 22.05 -33.0 22.4 -33.55 22.95 -33.55 23.5 -33.55 23.9 -33.0 M2.75 -28.85 Q3.25 -29.4 3.95 -29.4 4.65 -29.4 5.2 -28.85 5.7 -28.35 5.7 -27.6 5.7 -26.85 5.2 -26.3 4.65 -25.8 3.95 -25.8 3.25 -25.8 2.75 -26.3 2.2 -26.85 2.2 -27.6 2.2 -28.35 2.75 -28.85 M13.3 -23.95 L13.6 -23.25 13.3 -22.55 Q13.0 -22.25 12.6 -22.25 12.2 -22.25 11.9 -22.55 11.6 -22.85 11.6 -23.25 11.6 -23.65 11.9 -23.95 L12.6 -24.25 13.3 -23.95 M2.7 -12.0 Q3.25 -11.45 3.25 -10.6 3.25 -9.75 2.7 -9.15 2.1 -8.6 1.25 -8.6 0.4 -8.6 -0.15 -9.15 -0.75 -9.75 -0.75 -10.6 -0.75 -11.45 -0.15 -12.0 0.4 -12.6 1.25 -12.6 2.1 -12.6 2.7 -12.0 M17.45 -8.1 Q18.1 -7.45 18.1 -6.55 18.1 -5.65 17.45 -5.0 16.8 -4.35 15.9 -4.35 15.0 -4.35 14.35 -5.0 13.7 -5.65 13.7 -6.55 13.7 -7.45 14.35 -8.1 15.0 -8.75 15.9 -8.75 16.8 -8.75 17.45 -8.1 M32.6 -13.65 Q32.05 -12.85 30.75 -12.85 29.05 -12.85 28.65 -13.95 28.4 -14.6 28.55 -16.65 29.45 -19.1 30.3 -19.35 31.15 -19.6 31.85 -18.55 32.5 -17.5 32.65 -15.75 L32.6 -13.65 M26.55 -22.4 Q26.95 -22.0 26.95 -21.4 26.95 -20.8 26.55 -20.35 26.1 -19.95 25.5 -19.95 24.9 -19.95 24.5 -20.35 24.05 -20.8 24.05 -21.4 24.05 -22.0 24.5 -22.4 24.9 -22.85 25.5 -22.85 L26.55 -22.4 M69.35 -27.85 Q69.35 -28.85 70.1 -29.55 70.8 -30.3 71.8 -30.3 72.8 -30.3 73.55 -29.55 74.25 -28.85 74.25 -27.85 74.25 -26.85 73.55 -26.1 72.8 -25.4 71.8 -25.4 70.8 -25.4 70.1 -26.1 69.35 -26.85 69.35 -27.85 M54.15 -30.15 Q54.65 -30.7 55.35 -30.7 56.05 -30.7 56.6 -30.15 57.1 -29.65 57.1 -28.95 57.1 -28.25 56.6 -27.7 56.05 -27.2 55.35 -27.2 54.65 -27.2 54.15 -27.7 53.6 -28.25 53.6 -28.95 53.6 -29.65 54.15 -30.15 M53.9 -19.65 Q54.3 -19.4 54.3 -19.0 54.3 -18.6 53.9 -18.3 L52.95 -18.05 52.0 -18.3 Q51.6 -18.6 51.6 -19.0 51.6 -19.4 52.0 -19.65 L52.95 -19.95 Q53.5 -19.95 53.9 -19.65 M-49.45 -23.5 Q-48.6 -21.3 -48.95 -19.65 L-49.65 -19.45 -50.5 -19.4 Q-52.0 -19.4 -52.7 -20.4 -53.1 -21.0 -53.25 -22.25 L-52.1 -23.6 Q-51.6 -24.05 -50.85 -24.05 L-49.9 -23.9 -49.45 -23.5 M-23.1 -26.35 Q-24.55 -26.5 -25.0 -27.3 -23.55 -28.45 -22.45 -28.85 L-23.1 -26.35 M-30.75 -16.8 L-30.85 -17.05 -31.0 -18.05 Q-31.0 -19.0 -30.25 -20.3 L-29.4 -20.4 -28.45 -20.1 -27.5 -19.2 Q-27.15 -17.65 -27.25 -17.15 -27.4 -16.05 -28.7 -15.7 -29.8 -15.9 -30.75 -16.8 M-4.4 -23.4 Q-3.9 -22.9 -3.9 -22.2 -3.9 -21.5 -4.4 -21.0 -4.9 -20.5 -5.6 -20.5 -6.3 -20.5 -6.8 -21.0 -7.3 -21.5 -7.3 -22.2 -7.3 -22.9 -6.8 -23.4 -6.3 -23.9 -5.6 -23.9 -4.9 -23.9 -4.4 -23.4 M-11.25 -10.1 L-11.15 -9.9 Q-11.15 -8.3 -11.85 -7.2 -12.95 -5.4 -15.55 -6.45 -15.55 -7.95 -14.3 -9.0 -13.05 -10.1 -11.25 -10.1" fill="#efcfe6" fill-rule="evenodd" stroke="none"/>
    <path d="M35.0 -37.3 L39.4 -38.75 Q39.1 -37.35 39.1 -36.0 L39.4 -35.75 Q39.9 -35.45 41.05 -35.15 L41.55 -35.75 Q42.1 -36.65 42.2 -37.9 46.25 -34.85 51.9 -32.6 59.25 -29.7 61.6 -32.1 62.95 -32.0 63.2 -31.25 61.45 -30.4 59.4 -25.8 57.2 -20.8 55.65 -19.6 L55.15 -21.25 Q55.55 -25.7 50.8 -27.9 45.6 -29.4 44.85 -29.8 L46.0 -30.05 46.1 -29.95 46.2 -30.6 46.05 -31.35 45.0 -32.6 Q44.1 -32.35 43.75 -30.6 L35.0 -37.3 M45.55 -42.0 L55.0 -40.8 Q62.9 -39.1 65.5 -38.9 65.45 -37.4 65.9 -36.15 66.3 -34.9 66.95 -34.8 67.6 -34.7 68.1 -35.8 68.55 -36.9 68.6 -38.7 L75.55 -37.4 Q81.05 -36.3 82.6 -36.85 L83.25 -36.4 79.25 -31.1 77.1 -23.15 74.65 -15.75 74.6 -15.75 74.35 -17.4 Q74.65 -19.85 75.4 -23.3 76.3 -27.25 77.3 -30.15 68.7 -32.1 61.6 -34.5 L55.2 -36.9 54.2 -37.3 Q47.55 -40.05 45.55 -42.0 M-28.1 -32.95 L-29.25 -32.4 Q-41.55 -27.55 -44.6 -24.0 L-45.75 -24.1 -49.45 -23.5 -49.9 -23.9 -50.85 -24.05 Q-51.6 -24.05 -52.1 -23.6 L-53.25 -22.25 Q-54.7 -21.85 -54.7 -20.85 -55.3 -18.3 -55.0 -16.3 -54.35 -12.3 -49.8 -14.5 -49.5 -12.2 -52.65 -12.0 -54.1 -13.05 -55.55 -17.0 L-56.75 -20.95 Q-54.6 -31.15 -43.35 -33.15 -30.1 -33.8 -25.0 -36.0 L-28.1 -32.95 M-20.7 -33.95 Q-15.75 -35.25 -12.15 -34.6 L-16.15 -29.65 -16.4 -29.35 -17.1 -28.55 Q-21.15 -24.3 -27.5 -19.2 L-28.45 -20.1 -29.4 -20.4 -30.25 -20.3 Q-31.0 -19.0 -31.0 -18.05 L-30.85 -17.05 -30.75 -16.8 Q-32.85 -15.2 -32.0 -12.85 -30.6 -10.55 -30.55 -9.85 L-30.85 -9.35 -31.1 -9.2 Q-31.55 -9.2 -32.1 -9.55 -33.15 -11.05 -33.6 -14.0 L-34.15 -12.65 -35.4 -22.9 Q-35.6 -24.6 -36.2 -24.6 -37.2 -24.6 -39.05 -23.6 L-39.25 -23.5 -42.3 -21.25 Q-45.3 -18.7 -46.5 -15.85 -46.3 -17.2 -42.6 -23.2 L-39.85 -25.4 -39.75 -25.5 -31.95 -28.75 Q-25.6 -31.4 -20.7 -33.95 M-11.1 -34.4 L-10.3 -34.3 -10.8 -33.7 -10.95 -33.6 -11.1 -34.4 M-33.25 -9.65 L-33.6 -10.7 -32.75 -10.25 -33.25 -9.65 M-18.95 -20.15 Q-17.25 -24.55 -15.55 -25.95 -13.85 -27.3 -11.25 -31.0 -8.5 -34.0 -4.2 -33.75 L-3.95 -33.5 Q-4.3 -33.15 -4.3 -32.15 L-4.15 -30.85 -3.15 -30.8 -2.0 -31.0 Q-1.85 -30.0 -3.65 -20.5 -5.55 -10.6 -5.45 -7.65 L-10.35 -24.75 -11.3 -25.85 Q-12.4 -27.0 -13.05 -27.0 -13.7 -27.0 -15.3 -25.1 L-17.0 -22.65 -18.95 -18.3 -19.2 -18.35 -18.95 -20.15 M10.1 -34.05 L16.1 -34.4 14.0 -21.0 17.8 -22.65 Q19.2 -22.65 20.2 -21.4 21.2 -20.2 21.2 -18.5 L19.35 -19.95 Q17.85 -20.95 16.75 -20.95 13.9 -19.5 12.45 -17.5 L12.15 -17.7 Q11.9 -18.1 12.0 -18.9 L9.1 -14.75 Q7.65 -22.0 7.65 -24.1 7.65 -25.9 8.15 -28.55 8.85 -32.25 10.1 -34.05 M17.55 -27.45 L18.3 -34.55 29.7 -36.1 Q31.6 -33.6 33.85 -31.25 38.4 -26.65 40.7 -27.5 L43.7 -25.5 Q39.8 -25.5 37.05 -22.3 34.3 -19.1 34.3 -14.55 L33.25 -12.25 32.6 -13.65 32.65 -15.75 Q32.5 -17.5 31.85 -18.55 31.15 -19.6 30.3 -19.35 29.45 -19.1 28.55 -16.65 L22.75 -18.15 17.55 -27.45 M23.9 -33.0 Q23.5 -33.55 22.95 -33.55 22.4 -33.55 22.05 -33.0 21.65 -32.5 21.65 -31.75 21.65 -31.0 22.05 -30.45 22.4 -29.95 22.95 -29.95 23.5 -29.95 23.9 -30.45 24.25 -31.0 24.25 -31.75 24.25 -32.5 23.9 -33.0 M28.65 -29.05 Q28.25 -28.55 28.25 -27.8 28.25 -27.05 28.65 -26.5 29.0 -26.0 29.5 -26.0 30.0 -26.0 30.4 -26.5 30.75 -27.05 30.75 -27.8 30.75 -28.55 30.4 -29.05 L29.5 -29.6 Q29.0 -29.6 28.65 -29.05 M13.3 -23.95 L12.6 -24.25 11.9 -23.95 Q11.6 -23.65 11.6 -23.25 11.6 -22.85 11.9 -22.55 12.2 -22.25 12.6 -22.25 13.0 -22.25 13.3 -22.55 L13.6 -23.25 13.3 -23.95 M22.95 -5.2 L23.2 -5.05 22.7 -4.2 22.95 -5.2 M26.55 -22.4 L25.5 -22.85 Q24.9 -22.85 24.5 -22.4 24.05 -22.0 24.05 -21.4 24.05 -20.8 24.5 -20.35 24.9 -19.95 25.5 -19.95 26.1 -19.95 26.55 -20.35 26.95 -20.8 26.95 -21.4 26.95 -22.0 26.55 -22.4 M54.15 -30.15 Q53.6 -29.65 53.6 -28.95 53.6 -28.25 54.15 -27.7 54.65 -27.2 55.35 -27.2 56.05 -27.2 56.6 -27.7 57.1 -28.25 57.1 -28.95 57.1 -29.65 56.6 -30.15 56.05 -30.7 55.35 -30.7 54.65 -30.7 54.15 -30.15 M77.35 -10.9 Q75.95 -11.05 74.95 -11.55 73.95 -12.05 73.7 -12.7 73.9 -13.3 74.45 -13.3 L76.8 -12.3 Q78.35 -12.65 79.5 -15.85 L81.25 -15.05 79.3 -12.45 Q78.1 -11.25 77.35 -10.9 M-58.5 -31.3 L-57.4 -30.75 -58.4 -29.15 -59.25 -30.85 Q-58.95 -30.9 -58.7 -31.1 L-58.5 -31.3 M-52.7 -8.5 L-52.8 -9.0 -52.5 -8.95 -52.65 -8.5 -52.7 -8.5 M-23.1 -26.35 L-22.45 -28.85 Q-23.55 -28.45 -25.0 -27.3 -24.55 -26.5 -23.1 -26.35 M-4.4 -23.4 Q-4.9 -23.9 -5.6 -23.9 -6.3 -23.9 -6.8 -23.4 -7.3 -22.9 -7.3 -22.2 -7.3 -21.5 -6.8 -21.0 -6.3 -20.5 -5.6 -20.5 -4.9 -20.5 -4.4 -21.0 -3.9 -21.5 -3.9 -22.2 -3.9 -22.9 -4.4 -23.4 M-16.6 -11.15 L-12.75 -15.15 -11.25 -10.1 Q-13.05 -10.1 -14.3 -9.0 -15.55 -7.95 -15.55 -6.45 -15.9 -5.6 -16.4 -4.9 L-16.95 -7.25 Q-16.6 -9.4 -16.6 -11.15" fill="#db93c5" fill-rule="evenodd" stroke="none"/>
    <path d="M51.25 -37.5 L43.2 -40.7 45.25 -42.3 45.55 -42.0 Q47.55 -40.05 54.2 -37.3 L51.25 -37.5 M-21.0 -36.25 L-19.8 -36.0 -21.05 -35.65 -21.0 -36.25 M-22.9 -35.05 L-28.1 -32.95 -25.0 -36.0 -23.7 -36.6 -22.9 -35.05 M-12.15 -34.6 L-11.1 -34.4 -10.95 -33.6 -16.15 -29.65 -12.15 -34.6 M-28.65 -9.1 L-30.0 -8.1 Q-30.7 -7.75 -31.35 -7.75 -32.35 -7.75 -33.25 -9.65 L-32.75 -10.25 -33.6 -10.7 -34.15 -12.65 -33.6 -14.0 Q-33.15 -11.05 -32.1 -9.55 -31.55 -9.2 -31.1 -9.2 L-30.85 -9.35 -30.55 -9.85 Q-30.6 -10.55 -32.0 -12.85 -32.85 -15.2 -30.75 -16.8 -29.8 -15.9 -28.7 -15.7 -27.4 -16.05 -27.25 -17.15 -27.15 -17.65 -27.5 -19.2 -21.15 -24.3 -17.1 -28.55 L-18.5 -26.4 -22.2 -20.5 -25.7 -13.65 -28.65 -9.1 M-39.05 -23.6 L-38.25 -21.2 Q-38.65 -19.55 -38.75 -15.5 L-46.9 -13.05 Q-42.05 -20.35 -40.3 -22.15 L-39.25 -23.5 -39.05 -23.6 M-13.2 -19.25 L-25.35 -9.9 -18.95 -20.15 -19.2 -18.35 -18.95 -18.3 -17.0 -22.65 -15.0 -24.85 -13.25 -21.0 -13.2 -19.25 M-4.2 -33.75 L-3.1 -33.75 -3.95 -33.5 -4.2 -33.75 M-3.0 -33.75 L10.1 -34.05 Q8.85 -32.25 8.15 -28.55 7.65 -25.9 7.65 -24.1 7.65 -22.0 9.1 -14.75 6.35 -8.65 4.05 -6.2 2.25 -4.25 0.35 -4.25 -0.8 -4.25 -2.6 -5.35 -4.4 -6.4 -5.45 -7.65 -5.55 -10.6 -3.65 -20.5 -1.85 -30.0 -2.0 -31.0 L-1.85 -31.35 -1.8 -32.05 Q-1.8 -32.7 -2.15 -33.15 L-3.0 -33.75 M35.4 -33.5 L32.0 -36.55 35.0 -37.3 43.75 -30.6 Q43.75 -30.25 44.1 -30.0 L44.85 -29.8 Q45.6 -29.4 50.8 -27.9 55.55 -25.7 55.15 -21.25 52.85 -14.3 51.8 -12.0 L49.15 -18.75 Q49.15 -21.55 47.55 -23.5 46.45 -24.9 45.0 -25.3 L43.25 -27.1 Q38.3 -32.0 35.4 -33.5 M2.75 -28.85 Q2.2 -28.35 2.2 -27.6 2.2 -26.85 2.75 -26.3 3.25 -25.8 3.95 -25.8 4.65 -25.8 5.2 -26.3 5.7 -26.85 5.7 -27.6 5.7 -28.35 5.2 -28.85 4.65 -29.4 3.95 -29.4 3.25 -29.4 2.75 -28.85 M17.15 -18.25 Q18.3 -18.25 19.85 -14.2 L21.15 -10.2 Q19.45 -11.8 16.85 -13.3 L14.2 -14.65 17.15 -18.25 M41.35 -22.85 L45.2 -14.6 42.8 -16.45 Q41.0 -17.55 39.55 -17.85 L41.35 -22.85 M63.15 -27.45 L64.8 -19.75 60.45 -21.2 63.15 -27.45 M74.35 -17.4 Q72.55 -17.4 71.3 -17.95 70.0 -18.5 70.0 -19.3 70.0 -26.85 64.5 -32.15 L61.6 -34.5 Q68.7 -32.1 77.3 -30.15 76.3 -27.25 75.4 -23.3 74.65 -19.85 74.35 -17.4 M23.75 -12.7 L24.05 -12.45 22.75 -18.15 28.55 -16.65 Q28.4 -14.6 28.65 -13.95 29.05 -12.85 30.75 -12.85 32.05 -12.85 32.6 -13.65 L33.25 -12.25 34.3 -14.55 Q34.15 -10.9 32.5 -8.6 30.8 -6.3 28.6 -6.5 26.4 -6.75 24.95 -9.35 24.05 -10.95 23.75 -12.7 M2.7 -12.0 Q2.1 -12.6 1.25 -12.6 0.4 -12.6 -0.15 -12.0 -0.75 -11.45 -0.75 -10.6 -0.75 -9.75 -0.15 -9.15 0.4 -8.6 1.25 -8.6 2.1 -8.6 2.7 -9.15 3.25 -9.75 3.25 -10.6 3.25 -11.45 2.7 -12.0 M9.6 -5.15 L11.25 -7.35 Q11.95 -8.6 13.05 -12.6 19.55 -7.3 22.95 -5.2 L22.7 -4.2 Q20.9 -1.7 18.0 -0.75 L15.35 -0.25 Q14.4 -0.25 12.7 -1.55 10.7 -3.1 9.6 -5.15 M17.45 -8.1 Q16.8 -8.75 15.9 -8.75 15.0 -8.75 14.35 -8.1 13.7 -7.45 13.7 -6.55 13.7 -5.65 14.35 -5.0 15.0 -4.35 15.9 -4.35 16.8 -4.35 17.45 -5.0 18.1 -5.65 18.1 -6.55 18.1 -7.45 17.45 -8.1 M39.35 -12.4 L39.35 -14.5 43.55 -12.15 46.15 -7.85 39.35 -12.4 M49.9 -7.2 L48.5 -9.35 49.05 -9.05 50.25 -8.45 52.2 -7.75 53.65 -7.6 55.2 -7.8 Q53.5 -6.0 52.5 -6.0 50.9 -6.0 49.9 -7.2 M69.35 -27.85 Q69.35 -26.85 70.1 -26.1 70.8 -25.4 71.8 -25.4 72.8 -25.4 73.55 -26.1 74.25 -26.85 74.25 -27.85 74.25 -28.85 73.55 -29.55 72.8 -30.3 71.8 -30.3 70.8 -30.3 70.1 -29.55 69.35 -28.85 69.35 -27.85 M53.9 -19.65 Q53.5 -19.95 52.95 -19.95 L52.0 -19.65 Q51.6 -19.4 51.6 -19.0 51.6 -18.6 52.0 -18.3 L52.95 -18.05 53.9 -18.3 Q54.3 -18.6 54.3 -19.0 54.3 -19.4 53.9 -19.65 M77.35 -10.9 Q78.1 -11.25 79.3 -12.45 L81.25 -15.05 81.55 -14.95 Q80.9 -13.8 79.35 -12.4 77.95 -11.1 77.35 -10.9 M79.5 -15.85 Q78.35 -12.65 76.8 -12.3 L74.45 -13.3 74.2 -13.7 76.5 -14.3 Q78.15 -15.0 78.75 -16.3 L79.5 -15.85 M69.85 -13.65 L71.2 -11.8 62.25 -13.95 62.35 -16.35 Q66.15 -14.25 69.85 -13.65 M80.45 -19.3 Q80.45 -22.4 81.55 -25.55 82.35 -28.0 83.2 -28.95 L85.55 -25.0 Q86.2 -23.95 86.55 -19.15 L80.45 -19.3 M-60.25 -23.05 Q-59.65 -20.35 -59.4 -17.1 -59.3 -15.05 -58.3 -12.75 L-63.7 -13.35 Q-64.3 -15.95 -62.5 -19.05 L-60.25 -23.05 M-49.45 -23.5 L-45.75 -24.1 -44.6 -24.0 Q-45.55 -23.2 -46.15 -21.75 L-46.95 -19.4 -49.8 -14.5 Q-54.35 -12.3 -55.0 -16.3 -55.3 -18.3 -54.7 -20.85 -54.7 -21.85 -53.25 -22.25 -53.1 -21.0 -52.7 -20.4 -52.0 -19.4 -50.5 -19.4 L-49.65 -19.45 -48.95 -19.65 Q-48.6 -21.3 -49.45 -23.5 M-56.75 -20.95 L-55.55 -17.0 Q-54.1 -13.05 -52.65 -12.0 -53.75 -12.55 -55.2 -15.55 -56.8 -18.7 -56.75 -20.95 M-32.35 -5.5 L-32.85 -4.55 -33.35 -6.15 -32.35 -5.5 M-11.15 -9.9 Q-9.9 -7.6 -8.45 -5.55 -8.9 -1.75 -10.35 0.0 -11.8 1.75 -13.5 1.15 -15.25 0.5 -16.2 -2.15 -17.2 -4.8 -16.95 -7.25 L-16.4 -4.9 Q-15.9 -5.6 -15.55 -6.45 -12.95 -5.4 -11.85 -7.2 -11.15 -8.3 -11.15 -9.9" fill="#cf72b4" fill-rule="evenodd" stroke="none"/>
    <path d="M39.4 -38.75 L35.0 -37.3 32.0 -36.55 35.4 -33.5 Q35.4 -31.0 36.95 -29.25 38.5 -27.5 40.7 -27.5 38.4 -26.65 33.85 -31.25 31.6 -33.6 29.7 -36.1 L18.3 -34.55 17.55 -27.45 17.35 -29.0 16.65 -27.2 16.25 -25.7 Q16.25 -25.05 16.6 -24.2 17.05 -23.25 17.8 -22.65 L14.0 -21.0 16.1 -34.4 10.1 -34.05 -3.0 -33.75 -3.1 -33.75 -4.2 -33.75 Q-8.5 -34.0 -11.25 -31.0 -13.85 -27.3 -15.55 -25.95 -17.25 -24.55 -18.95 -20.15 L-25.35 -9.9 -13.2 -19.25 Q-12.85 -15.1 -18.35 -11.3 -21.2 -9.3 -25.2 -7.4 -25.75 -7.05 -27.05 -6.6 L-28.75 -6.15 Q-31.6 -6.15 -34.75 -10.05 -38.6 -14.75 -38.25 -21.2 L-39.05 -23.6 Q-37.2 -24.6 -36.2 -24.6 -35.6 -24.6 -35.4 -22.9 L-34.15 -12.65 -33.6 -10.7 -33.25 -9.65 Q-32.35 -7.75 -31.35 -7.75 -30.7 -7.75 -30.0 -8.1 L-28.65 -9.1 Q-26.25 -9.2 -24.7 -11.3 L-21.8 -16.8 Q-16.75 -27.2 -7.15 -35.0 -7.3 -35.5 -10.8 -33.7 L-10.3 -34.3 -11.1 -34.4 -12.15 -34.6 Q-15.75 -35.25 -20.7 -33.95 L-17.45 -35.75 Q-17.5 -36.0 -29.25 -32.4 L-28.1 -32.95 -22.9 -35.05 Q-21.75 -34.95 -21.05 -35.65 L-19.8 -36.0 -21.0 -36.25 Q-21.0 -37.1 -21.5 -37.95 L-9.3 -36.5 Q-2.45 -35.2 4.5 -35.2 17.3 -35.2 31.55 -39.55 45.8 -43.95 49.95 -43.95 L62.25 -42.75 Q75.4 -40.8 82.6 -36.85 81.05 -36.3 75.55 -37.4 L68.6 -38.7 68.25 -39.6 65.5 -38.9 Q62.9 -39.1 55.0 -40.8 L45.55 -42.0 45.25 -42.3 43.2 -40.7 51.25 -37.5 50.0 -37.8 Q51.75 -36.4 54.9 -34.7 58.75 -32.7 61.6 -32.1 59.25 -29.7 51.9 -32.6 46.25 -34.85 42.2 -37.9 L42.15 -38.9 41.65 -39.75 Q41.25 -40.1 40.8 -40.1 40.3 -40.1 39.95 -39.75 39.6 -39.4 39.4 -38.75 M55.15 -21.25 L55.65 -19.6 Q57.2 -20.8 59.4 -25.8 61.45 -30.4 63.2 -31.25 64.8 -29.75 67.15 -24.6 69.3 -19.7 70.0 -19.3 70.0 -18.5 71.3 -17.95 72.55 -17.4 74.35 -17.4 L74.6 -15.75 70.85 -15.5 Q68.3 -15.5 64.95 -17.1 61.1 -18.95 60.45 -21.2 L64.8 -19.75 63.15 -27.45 64.15 -29.55 63.8 -30.45 61.75 -28.9 Q61.55 -28.75 61.3 -27.6 60.2 -22.6 54.0 -9.5 L39.4 -15.45 39.55 -17.85 Q41.0 -17.55 42.8 -16.45 L45.2 -14.6 41.35 -22.85 42.65 -24.25 Q42.2 -24.95 41.2 -24.95 39.6 -24.95 38.8 -21.85 L37.75 -15.05 Q36.25 -5.2 31.25 -5.2 27.55 -5.2 13.65 -13.45 L14.2 -14.65 16.85 -13.3 Q19.45 -11.8 21.15 -10.2 L19.85 -14.2 Q18.3 -18.25 17.15 -18.25 L17.45 -18.55 17.7 -19.35 Q14.45 -17.65 12.4 -14.5 L9.5 -8.85 Q7.95 -5.6 6.2 -4.25 3.85 -2.3 -0.3 -2.3 -3.1 -2.3 -7.05 -7.25 -11.8 -13.25 -13.1 -21.8 L-13.25 -21.0 -15.0 -24.85 -17.0 -22.65 -15.3 -25.1 Q-13.7 -27.0 -13.05 -27.0 -12.4 -27.0 -11.3 -25.85 L-10.35 -24.75 -5.45 -7.65 Q-4.4 -6.4 -2.6 -5.35 -0.8 -4.25 0.35 -4.25 2.25 -4.25 4.05 -6.2 6.35 -8.65 9.1 -14.75 L12.0 -18.9 Q11.9 -18.1 12.15 -17.7 L12.45 -17.5 Q13.9 -19.5 16.75 -20.95 17.85 -20.95 19.35 -19.95 L21.2 -18.5 22.35 -15.5 Q23.25 -13.35 23.75 -12.7 24.05 -10.95 24.95 -9.35 26.4 -6.75 28.6 -6.5 30.8 -6.3 32.5 -8.6 34.15 -10.9 34.3 -14.55 34.3 -19.1 37.05 -22.3 39.8 -25.5 43.7 -25.5 L45.0 -25.3 Q46.45 -24.9 47.55 -23.5 49.15 -21.55 49.15 -18.75 L51.8 -12.0 Q52.85 -14.3 55.15 -21.25 M23.2 -5.05 L24.1 -4.6 25.0 -4.3 19.55 -0.25 Q17.0 1.75 13.8 1.75 12.25 1.75 10.3 0.85 7.6 -0.35 6.55 -2.6 7.85 -3.4 9.6 -5.15 10.7 -3.1 12.7 -1.55 14.4 -0.25 15.35 -0.25 L18.0 -0.75 Q20.9 -1.7 22.7 -4.2 L23.2 -5.05 M43.55 -12.15 L46.6 -9.55 Q48.95 -7.4 49.9 -7.2 50.9 -6.0 52.5 -6.0 53.5 -6.0 55.2 -7.8 L57.45 -9.4 Q58.4 -11.15 59.6 -18.35 61.7 -17.8 61.7 -16.8 61.7 -12.85 57.1 -8.45 52.65 -4.25 49.2 -4.25 48.3 -4.25 43.65 -6.5 38.8 -8.9 38.8 -9.7 38.8 -10.7 39.35 -12.4 L46.15 -7.85 43.55 -12.15 M49.05 -9.05 L52.2 -7.75 50.25 -8.45 49.05 -9.05 M79.25 -31.1 L79.6 -28.5 Q79.8 -31.3 81.35 -32.7 82.6 -33.9 84.4 -33.9 85.25 -33.9 85.75 -33.05 86.45 -31.9 87.75 -27.7 86.75 -29.25 85.1 -30.15 L83.35 -30.85 Q83.05 -30.85 80.3 -23.85 77.5 -16.65 74.65 -15.75 L77.1 -23.15 79.25 -31.1 M74.45 -13.3 Q73.9 -13.3 73.7 -12.7 73.95 -12.05 74.95 -11.55 75.95 -11.05 77.35 -10.9 77.95 -11.1 79.35 -12.4 80.9 -13.8 81.55 -14.95 L83.3 -14.55 Q81.85 -11.55 79.25 -9.95 77.15 -8.65 75.0 -8.65 74.4 -8.3 73.55 -8.65 L62.05 -12.8 62.25 -13.95 71.2 -11.8 69.85 -13.65 74.2 -13.7 74.45 -13.3 M83.2 -28.95 L84.45 -28.6 Q85.5 -28.3 86.2 -27.6 88.35 -25.45 88.35 -19.05 88.35 -17.75 86.85 -16.7 85.55 -15.8 84.55 -15.8 83.3 -15.8 82.3 -16.25 L79.85 -17.55 80.45 -19.3 86.55 -19.15 Q86.2 -23.95 85.55 -25.0 L83.2 -28.95 M-58.5 -31.3 Q-58.05 -31.65 -56.95 -32.0 L-56.0 -32.25 -57.4 -30.75 -58.5 -31.3 M-38.75 -15.5 Q-38.7 -14.65 -39.55 -14.1 -40.2 -13.7 -43.3 -12.45 -49.6 -9.85 -50.85 -9.85 -53.7 -9.85 -56.2 -12.75 -59.1 -16.15 -59.1 -21.5 -59.1 -26.45 -56.9 -28.8 -54.95 -30.85 -50.5 -31.6 L-37.0 -34.95 Q-25.1 -38.0 -23.15 -38.0 L-23.7 -36.6 -25.0 -36.0 Q-30.1 -33.8 -43.35 -33.15 -54.6 -31.15 -56.75 -20.95 -56.8 -18.7 -55.2 -15.55 -53.75 -12.55 -52.65 -12.0 -49.5 -12.2 -49.8 -14.5 L-46.95 -19.4 -42.6 -23.2 Q-46.3 -17.2 -46.5 -15.85 -45.3 -18.7 -42.3 -21.25 L-39.25 -23.5 -40.3 -22.15 Q-42.05 -20.35 -46.9 -13.05 L-38.75 -15.5 M-58.3 -12.75 L-57.45 -10.9 Q-59.95 -9.7 -61.2 -9.7 -62.7 -9.7 -64.1 -10.8 -65.75 -12.05 -65.75 -13.8 L-65.45 -17.45 Q-65.1 -20.35 -64.45 -20.35 L-63.25 -21.45 Q-61.8 -22.6 -60.25 -23.05 L-62.5 -19.05 Q-64.3 -15.95 -63.7 -13.35 L-58.3 -12.75 M-64.9 -22.15 Q-63.15 -28.85 -61.35 -28.65 -59.65 -27.25 -59.0 -27.8 -59.8 -25.05 -61.0 -25.05 -62.2 -25.05 -64.1 -23.25 L-64.9 -22.15 M-52.7 -8.5 Q-53.35 -8.7 -54.35 -9.2 L-52.8 -9.0 -52.7 -8.5 M-52.5 -8.95 L-44.8 -10.05 Q-40.55 -11.1 -39.35 -12.15 -39.85 -10.05 -43.85 -8.75 -46.8 -7.8 -49.25 -7.8 -50.25 -7.8 -52.65 -8.5 L-52.5 -8.95 M-18.5 -26.4 Q-23.45 -15.4 -25.7 -13.65 L-22.2 -20.5 -18.5 -26.4 M-28.9 -38.7 L-24.0 -38.55 Q-28.35 -36.85 -35.35 -35.75 L-44.3 -35.0 Q-34.4 -38.2 -28.9 -38.7 M-32.35 -5.5 L-30.35 -4.5 -35.1 -2.35 -37.4 -11.1 -36.55 -9.6 Q-35.2 -7.75 -33.35 -6.15 L-32.85 -4.55 -32.35 -5.5 M-33.8 -0.8 L-31.45 -1.55 -32.1 -1.1 -32.6 -0.95 -33.8 -0.8 M-8.45 -5.55 L-5.25 -2.5 -9.6 0.35 Q-13.1 2.4 -15.7 2.4 -17.7 2.4 -19.0 0.25 -20.35 -2.0 -20.35 -5.5 -19.8 -8.5 -16.6 -11.15 -16.6 -9.4 -16.95 -7.25 -17.2 -4.8 -16.2 -2.15 -15.25 0.5 -13.5 1.15 -11.8 1.75 -10.35 0.0 -8.9 -1.75 -8.45 -5.55" fill="#c24e9f" fill-rule="evenodd" stroke="none"/>
    <path d="M28.7 -41.35 L42.25 -44.7 44.25 -45.15 47.8 -45.75 51.05 -46.05 Q90.3 -46.05 90.3 -24.85 90.3 -19.15 84.3 -13.2 78.7 -7.7 74.55 -7.7 67.7 -7.7 61.4 -11.4 59.75 -7.45 54.55 -4.85 49.6 -2.35 46.2 -3.25 L43.45 -4.25 Q41.35 -5.2 39.35 -6.3 L37.65 -7.45 Q36.65 -5.8 34.1 -4.7 31.75 -3.7 29.45 -3.65 27.7 -3.75 23.9 -1.15 L19.4 1.95 Q14.95 3.6 13.5 3.6 L9.85 2.95 9.15 2.65 6.75 1.2 Q5.8 0.3 4.6 -1.55 L1.3 -1.05 -1.75 -0.8 -2.4 -0.95 -4.1 -1.2 -7.3 1.1 Q-9.65 2.75 -11.1 3.15 -13.35 3.9 -14.9 3.9 -19.65 3.9 -20.85 1.2 L-20.95 1.1 -21.5 -0.8 -21.9 -3.1 -21.6 -6.6 -21.6 -6.8 Q-23.95 -5.25 -24.65 -3.95 -25.1 -3.15 -26.95 -2.6 L-28.65 -2.0 -32.1 -1.1 -31.45 -1.55 -33.8 -0.8 Q-36.45 -0.4 -37.45 -1.7 -38.95 -3.65 -38.9 -10.5 -40.3 -8.35 -43.65 -7.0 -46.5 -5.85 -48.85 -5.85 -54.05 -5.85 -56.45 -9.55 -57.5 -9.1 -60.85 -8.35 -64.65 -8.35 -65.85 -9.85 -67.5 -11.85 -67.5 -18.5 -67.5 -30.1 -56.85 -34.35 -52.25 -36.2 -43.4 -37.85 L-24.45 -40.95 -22.4 -40.6 Q-19.9 -39.85 -10.65 -38.65 L1.25 -37.5 14.85 -39.0 27.4 -41.0 28.7 -41.35 M61.6 -32.1 Q58.75 -32.7 54.9 -34.7 51.75 -36.4 50.0 -37.8 L51.25 -37.5 54.2 -37.3 55.2 -36.9 61.6 -34.5 64.5 -32.15 Q70.0 -26.85 70.0 -19.3 69.3 -19.7 67.15 -24.6 64.8 -29.75 63.2 -31.25 62.95 -32.0 61.6 -32.1 M82.6 -36.85 Q75.4 -40.8 62.25 -42.75 L49.95 -43.95 Q45.8 -43.95 31.55 -39.55 17.3 -35.2 4.5 -35.2 -2.45 -35.2 -9.3 -36.5 L-21.5 -37.95 -22.2 -38.15 -23.15 -38.0 Q-25.1 -38.0 -37.0 -34.95 L-50.5 -31.6 Q-54.95 -30.85 -56.9 -28.8 -59.1 -26.45 -59.1 -21.5 -59.1 -16.15 -56.2 -12.75 -53.7 -9.85 -50.85 -9.85 -49.6 -9.85 -43.3 -12.45 -40.2 -13.7 -39.55 -14.1 -38.7 -14.65 -38.75 -15.5 -38.65 -19.55 -38.25 -21.2 -38.6 -14.75 -34.75 -10.05 -31.6 -6.15 -28.75 -6.15 L-27.05 -6.6 Q-25.75 -7.05 -25.2 -7.4 -21.2 -9.3 -18.35 -11.3 -12.85 -15.1 -13.2 -19.25 L-13.25 -21.0 -13.1 -21.8 Q-11.8 -13.25 -7.05 -7.25 -3.1 -2.3 -0.3 -2.3 3.85 -2.3 6.2 -4.25 7.95 -5.6 9.5 -8.85 L12.4 -14.5 Q14.45 -17.65 17.7 -19.35 L17.45 -18.55 17.15 -18.25 14.2 -14.65 13.65 -13.45 Q27.55 -5.2 31.25 -5.2 36.25 -5.2 37.75 -15.05 L38.8 -21.85 Q39.6 -24.95 41.2 -24.95 42.2 -24.95 42.65 -24.25 L41.35 -22.85 39.55 -17.85 39.4 -15.45 54.0 -9.5 Q60.2 -22.6 61.3 -27.6 61.55 -28.75 61.75 -28.9 L63.8 -30.45 64.15 -29.55 63.15 -27.45 60.45 -21.2 Q61.1 -18.95 64.95 -17.1 68.3 -15.5 70.85 -15.5 L74.6 -15.75 74.65 -15.75 Q77.5 -16.65 80.3 -23.85 83.05 -30.85 83.35 -30.85 L85.1 -30.15 Q86.75 -29.25 87.75 -27.7 86.45 -31.9 85.75 -33.05 85.25 -33.9 84.4 -33.9 82.6 -33.9 81.35 -32.7 79.8 -31.3 79.6 -28.5 L79.25 -31.1 83.25 -36.4 82.6 -36.85 M-29.25 -32.4 Q-17.5 -36.0 -17.45 -35.75 L-20.7 -33.95 Q-25.6 -31.4 -31.95 -28.75 L-39.75 -25.5 -39.85 -25.4 -42.6 -23.2 -46.95 -19.4 -46.15 -21.75 Q-45.55 -23.2 -44.6 -24.0 -41.55 -27.55 -29.25 -32.4 M-10.8 -33.7 Q-7.3 -35.5 -7.15 -35.0 -16.75 -27.2 -21.8 -16.8 L-24.7 -11.3 Q-26.25 -9.2 -28.65 -9.1 L-25.7 -13.65 Q-23.45 -15.4 -18.5 -26.4 L-17.1 -28.55 -16.4 -29.35 -16.15 -29.65 -10.95 -33.6 -10.8 -33.7 M17.8 -22.65 Q17.05 -23.25 16.6 -24.2 16.25 -25.05 16.25 -25.7 L16.65 -27.2 17.35 -29.0 17.55 -27.45 22.75 -18.15 24.05 -12.45 23.75 -12.7 Q23.25 -13.35 22.35 -15.5 L21.2 -18.5 Q21.2 -20.2 20.2 -21.4 19.2 -22.65 17.8 -22.65 M40.7 -27.5 Q38.5 -27.5 36.95 -29.25 35.4 -31.0 35.4 -33.5 38.3 -32.0 43.25 -27.1 L45.0 -25.3 43.7 -25.5 40.7 -27.5 M9.6 -5.15 Q7.85 -3.4 6.55 -2.6 7.6 -0.35 10.3 0.85 12.25 1.75 13.8 1.75 17.0 1.75 19.55 -0.25 L25.0 -4.3 24.1 -4.6 23.2 -5.05 22.95 -5.2 Q19.55 -7.3 13.05 -12.6 11.95 -8.6 11.25 -7.35 L9.6 -5.15 M43.55 -12.15 L39.35 -14.5 39.35 -12.4 Q38.8 -10.7 38.8 -9.7 38.8 -8.9 43.65 -6.5 48.3 -4.25 49.2 -4.25 52.65 -4.25 57.1 -8.45 61.7 -12.85 61.7 -16.8 61.7 -17.8 59.6 -18.35 58.4 -11.15 57.45 -9.4 L55.2 -7.8 53.65 -7.6 52.2 -7.75 49.05 -9.05 48.5 -9.35 49.9 -7.2 Q48.95 -7.4 46.6 -9.55 L43.55 -12.15 M81.25 -15.05 L79.5 -15.85 78.75 -16.3 Q78.15 -15.0 76.5 -14.3 L74.2 -13.7 69.85 -13.65 Q66.15 -14.25 62.35 -16.35 L62.25 -13.95 62.05 -12.8 73.55 -8.65 Q74.4 -8.3 75.0 -8.65 77.15 -8.65 79.25 -9.95 81.85 -11.55 83.3 -14.55 L81.55 -14.95 81.25 -15.05 M80.45 -19.3 L79.85 -17.55 82.3 -16.25 Q83.3 -15.8 84.55 -15.8 85.55 -15.8 86.85 -16.7 88.35 -17.75 88.35 -19.05 88.35 -25.45 86.2 -27.6 85.5 -28.3 84.45 -28.6 L83.2 -28.95 Q82.35 -28.0 81.55 -25.55 80.45 -22.4 80.45 -19.3 M-57.4 -30.75 L-56.0 -32.25 -56.95 -32.0 Q-58.05 -31.65 -58.5 -31.3 L-58.7 -31.1 Q-58.95 -30.9 -59.25 -30.85 L-58.4 -29.15 -57.4 -30.75 M-60.25 -23.05 Q-61.8 -22.6 -63.25 -21.45 L-64.45 -20.35 Q-65.1 -20.35 -65.45 -17.45 L-65.75 -13.8 Q-65.75 -12.05 -64.1 -10.8 -62.7 -9.7 -61.2 -9.7 -59.95 -9.7 -57.45 -10.9 L-58.3 -12.75 Q-59.3 -15.05 -59.4 -17.1 -59.65 -20.35 -60.25 -23.05 M-64.9 -22.15 L-64.1 -23.25 Q-62.2 -25.05 -61.0 -25.05 -59.8 -25.05 -59.0 -27.8 -59.65 -27.25 -61.35 -28.65 -63.15 -28.85 -64.9 -22.15 M-52.8 -9.0 L-54.35 -9.2 Q-53.35 -8.7 -52.7 -8.5 L-52.65 -8.5 Q-50.25 -7.8 -49.25 -7.8 -46.8 -7.8 -43.85 -8.75 -39.85 -10.05 -39.35 -12.15 -40.55 -11.1 -44.8 -10.05 L-52.5 -8.95 -52.8 -9.0 M-28.9 -38.7 Q-34.4 -38.2 -44.3 -35.0 L-35.35 -35.75 Q-28.35 -36.85 -24.0 -38.55 L-28.9 -38.7 M-33.35 -6.15 Q-35.2 -7.75 -36.55 -9.6 L-37.4 -11.1 -35.1 -2.35 -30.35 -4.5 -32.35 -5.5 -33.35 -6.15 M-11.15 -9.9 L-11.25 -10.1 -12.75 -15.15 -16.6 -11.15 Q-19.8 -8.5 -20.35 -5.5 -20.35 -2.0 -19.0 0.25 -17.7 2.4 -15.7 2.4 -13.1 2.4 -9.6 0.35 L-5.25 -2.5 -8.45 -5.55 Q-9.9 -7.6 -11.15 -9.9" fill="#6b2556" fill-rule="evenodd" stroke="none"/>
    <path d="M8.75 -123.8 Q9.75 -123.9 10.6 -122.75 L10.25 -122.2 9.9 -122.05 8.4 -122.5 6.85 -123.0 7.35 -123.65 7.8 -123.7 8.75 -123.8 M10.25 -121.45 L11.6 -122.8 Q12.3 -123.4 12.55 -123.45 L12.75 -123.3 11.05 -120.15 10.25 -118.75 9.5 -117.55 8.75 -118.15 9.55 -120.3 10.25 -121.45 M14.35 -113.6 L16.25 -113.75 15.5 -113.15 14.7 -112.75 13.5 -112.5 12.9 -112.45 11.65 -112.65 Q11.1 -112.85 11.0 -113.0 L11.85 -113.45 12.5 -113.5 14.35 -113.6 M16.5 -107.65 L17.9 -109.0 Q17.7 -107.75 18.85 -106.7 L20.1 -105.95 17.3 -104.75 Q16.9 -104.75 16.4 -104.05 L15.95 -103.4 Q15.05 -101.05 14.35 -100.6 L13.15 -100.45 14.75 -104.9 12.65 -105.8 Q14.2 -106.8 14.8 -107.0 L15.55 -107.2 Q16.2 -107.35 16.5 -107.65 M18.05 -101.6 L20.0 -102.25 19.25 -100.85 18.45 -99.9 17.3 -98.75 16.0 -97.4 15.25 -98.3 16.8 -100.55 18.05 -101.6 M19.9 -93.35 L22.75 -92.25 21.75 -91.55 20.2 -92.1 19.05 -92.5 Q16.25 -93.5 16.25 -94.25 L18.7 -93.7 19.9 -93.35 M21.1 -87.85 L23.35 -87.9 21.5 -86.2 21.45 -86.2 20.8 -85.6 Q18.1 -83.2 16.6 -82.4 L15.6 -82.05 Q17.45 -85.0 20.35 -87.5 L21.1 -87.85 M22.35 -82.35 Q25.5 -82.3 26.25 -81.65 25.8 -81.25 24.15 -81.1 L22.6 -81.0 22.5 -81.0 21.8 -81.0 17.75 -81.8 Q18.5 -82.45 21.5 -82.4 L22.25 -82.35 22.35 -82.35 M24.4 -76.1 L25.4 -76.6 24.7 -75.15 24.0 -73.8 25.5 -72.5 26.75 -71.4 26.0 -70.75 24.35 -71.5 23.35 -71.95 22.85 -72.2 Q21.3 -70.3 20.55 -69.95 19.9 -69.6 19.4 -70.3 L21.1 -72.95 20.2 -73.3 20.55 -74.35 Q22.2 -74.4 22.9 -74.95 L23.6 -75.5 24.4 -76.1 M26.75 -68.1 L27.75 -68.0 27.4 -67.1 27.05 -66.8 25.35 -66.0 24.2 -65.6 21.6 -65.25 Q20.85 -65.3 20.25 -65.75 L23.95 -67.6 25.0 -67.85 26.75 -68.1 M27.3 -54.8 Q28.65 -55.15 28.75 -54.55 L27.55 -53.05 25.7 -51.8 24.95 -51.85 24.5 -52.15 25.5 -53.55 27.3 -54.8 M28.35 -46.65 L28.4 -45.95 28.4 -45.85 30.7 -47.4 Q29.8 -46.2 29.8 -45.2 29.8 -44.7 30.3 -44.6 30.75 -44.5 30.75 -44.0 30.75 -43.35 30.4 -43.25 L30.0 -43.3 Q29.0 -44.05 28.55 -43.6 L27.15 -42.35 26.8 -43.0 27.0 -43.4 Q27.45 -44.5 27.05 -45.4 L26.55 -46.1 25.6 -46.9 24.85 -47.55 Q24.55 -47.75 25.1 -47.95 L26.3 -47.9 28.35 -46.65 M-4.25 -83.15 L-1.8 -81.7 0.4 -81.05 -10.6 -81.65 -9.9 -82.4 -10.8 -83.55 -12.25 -86.15 Q-9.35 -83.3 -4.25 -83.15 M-15.9 -92.75 Q-16.25 -94.3 -22.45 -84.4 L-24.35 -87.15 Q-16.25 -96.75 -16.55 -99.5 L-17.75 -102.15 Q-18.8 -104.15 -18.95 -106.6 L-17.65 -109.85 -10.05 -109.45 -13.05 -109.45 -13.0 -102.25 -13.0 -100.85 Q-15.85 -95.25 -15.0 -91.05 L-15.9 -92.75 M24.75 -60.1 L22.95 -60.1 22.95 -61.25 24.65 -61.25 26.2 -61.25 27.0 -61.25 27.0 -60.1 26.4 -60.1 24.75 -60.1" fill="#2e2e2e" fill-rule="evenodd" stroke="none"/>
    <path d="M-4.6 -83.55 L-4.25 -83.15 Q-9.35 -83.3 -12.25 -86.15 L-13.5 -88.35 -15.0 -91.05 Q-15.85 -95.25 -13.0 -100.85 -12.2 -100.3 -6.8 -104.25 -1.45 -108.2 -1.3 -108.65 L-3.35 -109.1 7.05 -109.4 -0.1 -105.5 Q-3.2 -103.85 -4.7 -102.75 -6.25 -101.65 -8.95 -100.1 -11.7 -98.55 -11.85 -95.3 -12.0 -92.05 -9.35 -88.65 -6.0 -85.3 -4.6 -83.55" fill="#494949" fill-rule="evenodd" stroke="none"/>
    <path d="M-21.7 -109.1 L-22.1 -109.15 -21.4 -109.75 -18.25 -109.85 -17.65 -109.85 -18.95 -106.6 -19.25 -107.55 Q-19.25 -108.2 -19.95 -108.65 -20.7 -109.1 -21.7 -109.1 M-22.45 -84.4 Q-21.85 -82.55 -21.3 -82.3 L-20.1 -82.15 -23.9 -82.3 -29.35 -82.5 -29.35 -82.9 -27.7 -83.05 Q-26.45 -83.5 -25.4 -85.55 L-24.35 -87.15 -22.45 -84.4" fill="#1a1a1a" fill-rule="evenodd" stroke="none"/>
  </g>
</svg>
