<?xml version="1.0" encoding="UTF-8" standalone="no"?>
<svg xmlns:ffdec="https://www.free-decompiler.com/flash" xmlns:xlink="http://www.w3.org/1999/xlink" ffdec:objectType="shape" height="182.75px" width="61.45px" xmlns="http://www.w3.org/2000/svg">
  <g transform="matrix(1.0, 0.0, 0.0, 1.0, -1.35, -5.8)">
    <path d="M51.3 38.05 L53.65 40.65 55.95 42.95 Q56.5 40.5 56.5 38.25 56.5 36.8 52.45 28.85 L48.4 21.05 48.8 18.15 49.15 15.2 49.0 14.2 48.8 13.95 48.8 14.2 46.45 25.2 46.8 30.2 45.2 29.4 45.0 29.9 44.85 28.15 44.85 28.0 Q44.85 21.15 46.7 15.75 47.75 12.75 49.75 8.0 L52.05 10.6 Q53.95 16.75 56.0 19.8 L52.45 20.7 54.5 23.5 55.25 23.6 57.65 22.2 Q58.6 23.85 58.5 24.9 L58.15 28.3 Q57.9 30.1 59.95 31.3 61.95 32.55 62.1 33.9 62.25 35.25 61.25 37.65 60.2 40.05 60.25 40.4 L61.7 43.4 Q63.1 46.0 62.75 48.6 L62.55 49.15 Q60.8 48.65 58.0 46.3 55.4 44.15 55.0 44.15 54.0 44.15 50.6 39.7 L47.05 34.75 Q45.55 33.15 45.1 30.6 L47.2 32.2 47.35 32.6 Q47.95 33.8 51.3 38.05 M52.4 45.35 Q54.9 45.35 56.7 47.15 58.45 48.9 58.45 51.4 58.45 53.9 56.7 55.7 54.9 57.45 52.4 57.45 49.9 57.45 48.15 55.7 46.35 53.9 46.35 51.4 46.35 48.9 48.15 47.15 49.9 45.35 52.4 45.35 M50.85 47.35 L49.05 48.3 Q48.25 50.85 48.25 52.15 48.25 53.15 49.05 54.4 L50.4 55.85 Q56.5 56.7 56.5 51.6 L56.4 50.3 57.45 50.65 54.1 46.3 51.05 45.7 50.85 47.35 M22.7 15.95 L21.15 10.3 Q19.1 11.15 16.55 14.05 L13.3 17.9 15.05 22.55 14.8 23.1 13.8 22.8 13.5 23.7 13.85 23.95 13.15 24.3 Q11.3 25.25 10.45 27.9 8.9 32.75 7.9 37.15 6.9 41.45 6.9 43.3 L8.05 48.05 7.35 49.25 Q6.65 50.65 6.65 52.35 6.65 54.5 9.4 56.65 12.1 58.85 12.1 59.9 L11.25 62.6 Q10.4 64.75 10.4 65.25 10.4 67.15 11.45 68.8 12.2 70.05 14.25 72.05 L15.7 70.55 16.55 69.35 17.05 68.15 18.5 68.65 17.35 71.25 Q14.8 75.15 8.65 75.0 5.65 68.25 5.9 66.65 L6.4 62.95 Q6.6 60.8 4.0 58.25 1.35 55.65 1.35 51.7 2.4 46.9 3.5 44.05 L2.7 40.4 Q2.25 38.95 4.15 36.55 6.0 34.1 6.0 33.45 L5.65 31.35 Q5.25 29.75 5.3 28.45 5.3 27.15 6.6 25.55 7.85 23.95 8.7 22.1 9.5 20.25 10.0 16.3 10.45 14.8 13.2 11.5 16.75 7.2 20.3 5.8 L23.35 12.3 22.8 12.5 23.8 13.8 24.1 15.0 25.05 25.2 25.05 25.7 25.05 26.4 Q25.05 30.85 20.9 35.55 20.6 35.55 19.05 39.55 17.5 43.5 17.45 44.25 L17.35 45.4 15.95 44.65 15.95 44.05 Q16.1 42.95 18.2 38.65 L21.0 32.9 Q23.15 29.7 23.45 28.4 L23.55 25.8 Q23.5 22.25 22.7 15.95 M16.5 51.1 L16.15 48.6 17.6 48.85 18.25 53.15 Q19.25 59.95 19.25 62.45 L18.95 66.6 17.4 66.6 17.6 65.25 17.7 59.7 17.25 55.65 16.5 51.1 M19.65 78.3 Q20.35 77.05 21.4 76.0 24.4 72.95 28.65 72.95 32.9 72.95 35.9 76.0 38.9 79.0 38.9 83.25 38.9 87.5 35.9 90.55 32.9 93.55 28.65 93.55 24.4 93.55 21.4 90.55 18.4 87.5 18.4 83.25 L18.4 83.1 18.4 82.9 18.45 82.25 18.5 81.85 18.75 80.65 20.5 80.85 Q19.8 83.55 19.8 84.0 L21.0 86.9 Q22.5 89.95 24.2 91.45 L27.6 92.1 30.45 91.4 Q33.15 90.55 34.3 89.5 35.4 88.25 36.45 85.5 L37.3 82.75 36.75 80.3 36.0 77.55 34.6 76.25 32.95 75.3 31.7 74.8 30.3 74.45 26.7 75.55 23.5 76.75 22.05 78.35 20.6 78.25 19.65 78.3 M48.9 122.15 Q50.1 116.8 51.85 110.75 53.0 106.75 53.0 104.2 53.0 101.9 52.35 99.7 L51.65 97.95 51.75 97.4 48.15 103.65 Q46.5 107.4 46.1 109.1 L45.3 114.05 46.5 118.15 47.6 121.55 45.6 120.6 44.85 118.85 43.8 115.15 43.75 114.95 43.75 114.65 Q43.75 110.7 45.75 106.15 L51.4 95.05 Q54.1 91.8 55.15 90.85 L57.05 89.5 58.05 94.1 56.5 99.5 57.1 101.45 57.85 103.95 Q58.0 104.5 56.85 106.9 L55.5 109.7 Q55.35 110.0 55.45 110.95 L52.45 111.7 54.5 114.5 55.25 114.6 55.45 114.5 54.5 117.2 Q53.2 120.9 52.95 123.3 52.7 126.05 51.7 127.15 50.95 128.0 51.2 128.8 48.95 127.9 46.5 122.7 L51.65 126.6 52.3 124.25 52.1 123.7 48.9 122.15 M29.65 143.35 L29.45 141.3 Q29.45 137.45 31.8 134.7 34.1 131.95 37.4 131.95 40.7 131.95 43.05 134.7 45.35 137.45 45.35 141.3 45.35 145.15 43.05 147.9 40.7 150.65 37.4 150.65 34.1 150.65 31.8 147.9 30.95 146.9 30.45 145.8 L32.75 143.25 33.45 145.35 35.4 147.2 Q37.25 148.8 37.85 149.05 L40.3 148.45 42.6 147.5 43.4 145.35 43.85 143.9 43.35 140.8 42.55 137.45 40.55 134.85 38.4 133.95 37.0 133.5 Q35.2 133.5 33.5 135.15 32.05 136.6 31.35 138.6 L31.65 139.9 29.65 143.35 M17.8 157.6 L17.7 157.3 Q16.55 153.8 16.85 152.35 19.45 152.4 23.85 154.3 27.6 155.95 30.05 157.75 32.05 159.25 34.95 165.05 L37.5 170.5 42.2 174.6 48.1 178.35 Q45.65 184.45 42.05 186.85 39.4 188.55 35.6 188.55 31.45 188.55 29.95 187.0 L27.8 183.8 24.45 179.6 Q22.2 176.6 22.5 174.95 22.8 173.25 22.7 172.2 L22.65 171.65 23.1 171.5 Q24.15 171.1 24.15 170.55 24.15 170.0 23.1 169.65 L20.95 169.25 20.25 168.65 Q19.9 168.25 19.7 167.05 19.6 166.3 19.85 164.5 20.05 163.15 19.45 161.95 L18.5 159.65 19.55 160.0 20.15 159.45 20.2 158.45 19.15 157.6 17.8 157.6 M26.85 157.2 L24.5 155.9 Q25.0 157.0 24.2 159.85 23.2 163.45 23.2 165.1 L26.25 170.3 24.6 173.65 Q24.6 174.2 29.45 179.5 34.7 185.25 36.7 185.25 39.2 185.25 41.4 183.3 43.7 181.25 44.8 177.85 L41.3 175.85 38.6 174.05 35.9 169.85 33.45 164.6 31.6 161.6 29.05 158.85 26.85 157.2" fill="#4d3507" fill-rule="evenodd" stroke="none"/>
    <path d="M46.45 25.2 L48.8 14.2 48.8 13.95 49.0 14.2 49.15 15.2 48.8 18.15 48.4 21.05 52.45 28.85 Q56.5 36.8 56.5 38.25 56.5 40.5 55.95 42.95 L53.65 40.65 51.3 38.05 50.65 34.85 51.65 35.6 52.3 33.25 52.1 32.7 49.45 31.45 46.45 25.2 M50.85 47.35 L50.75 48.3 56.4 50.3 56.5 51.6 Q56.5 56.7 50.4 55.85 51.15 53.6 50.55 52.0 49.55 50.1 49.05 48.3 L50.85 47.35 M14.8 23.1 L15.05 22.55 13.3 17.9 16.55 14.05 Q19.1 11.15 21.15 10.3 L22.7 15.95 Q21.9 16.6 20.75 19.7 19.75 22.4 19.65 23.35 L19.3 25.1 18.0 24.1 14.8 23.1 M16.55 69.35 L15.7 70.55 14.25 72.05 Q12.2 70.05 11.45 68.8 10.4 67.15 10.4 65.25 10.4 64.75 11.25 62.6 L12.1 59.9 Q12.1 58.85 9.4 56.65 6.65 54.5 6.65 52.35 6.65 50.65 7.35 49.25 L8.05 48.05 6.9 43.3 Q6.9 41.45 7.9 37.15 8.9 32.75 10.45 27.9 11.3 25.25 13.15 24.3 L13.85 23.95 18.65 26.8 Q17.85 28.3 16.65 29.3 14.45 31.1 14.45 32.1 L14.85 33.95 15.25 35.75 12.45 42.15 Q9.6 49.05 9.6 52.0 9.6 53.9 13.0 56.35 L17.7 59.7 17.6 65.25 15.85 65.4 Q14.8 65.65 14.2 66.2 L13.9 66.55 12.3 66.55 13.7 67.05 13.7 67.45 Q13.75 68.1 14.45 68.65 15.15 69.15 16.55 69.35 M20.5 80.85 L20.6 80.85 21.4 80.85 Q21.75 81.45 21.75 82.2 L21.4 84.2 21.0 86.2 24.2 91.45 Q22.5 89.95 21.0 86.9 L19.8 84.0 Q19.8 83.55 20.5 80.85 M48.15 103.65 L51.75 97.4 51.65 97.95 52.35 99.7 Q53.0 101.9 53.0 104.2 53.0 106.75 51.85 110.75 50.1 116.8 48.9 122.15 L47.6 121.55 46.5 118.15 45.3 114.05 Q47.9 110.0 48.0 108.05 47.7 105.95 48.15 103.65 M42.55 137.45 L43.35 140.8 43.85 143.9 43.4 145.35 42.6 147.5 41.2 145.0 Q40.75 143.65 40.75 140.95 L42.55 137.45 M41.3 175.85 L44.8 177.85 Q43.7 181.25 41.4 183.3 39.2 185.25 36.7 185.25 34.7 185.25 29.45 179.5 24.6 174.2 24.6 173.65 L26.25 170.3 23.2 165.1 Q23.2 163.45 24.2 159.85 25.0 157.0 24.5 155.9 L26.85 157.2 Q26.85 157.9 27.5 158.4 28.15 158.85 29.05 158.85 L31.6 161.6 Q29.05 162.25 27.7 163.1 26.45 163.85 26.45 164.55 26.45 164.95 28.2 166.75 L29.95 168.6 29.45 170.85 Q28.95 172.6 28.95 173.1 28.95 174.05 29.25 174.85 L27.4 176.8 28.0 177.65 29.85 176.0 30.75 176.95 Q32.85 178.65 36.85 178.65 L38.5 178.4 Q40.25 177.75 41.3 175.85" fill="#704e0f" fill-rule="evenodd" stroke="none"/>
    <path d="M51.3 38.05 Q47.95 33.8 47.35 32.6 L47.2 32.2 50.65 34.85 51.3 38.05 M46.8 30.2 L46.45 25.2 49.45 31.45 46.8 30.2 M49.05 48.3 Q49.55 50.1 50.55 52.0 51.15 53.6 50.4 55.85 L49.05 54.4 Q48.25 53.15 48.25 52.15 48.25 50.85 49.05 48.3 M19.3 25.1 L19.65 23.35 Q19.75 22.4 20.75 19.7 21.9 16.6 22.7 15.95 23.5 22.25 23.55 25.8 22.95 26.9 22.25 29.25 L21.0 32.9 18.2 38.65 Q16.1 42.95 15.95 44.05 15.8 43.6 14.85 43.6 13.8 43.6 13.1 44.85 12.4 46.1 12.4 47.9 12.4 49.7 13.1 50.95 13.8 52.2 14.85 52.2 L16.5 51.1 17.25 55.65 17.7 59.7 13.0 56.35 Q9.6 53.9 9.6 52.0 9.6 49.05 12.45 42.15 L15.25 35.75 14.85 33.95 14.45 32.1 Q14.45 31.1 16.65 29.3 17.85 28.3 18.65 26.8 L21.65 28.6 22.65 27.65 19.3 25.1 M17.05 68.15 L16.55 69.35 Q15.15 69.15 14.45 68.65 13.75 68.1 13.7 67.45 L13.7 67.05 17.05 68.15 M17.6 65.25 L17.4 66.6 13.9 66.55 14.2 66.2 Q14.8 65.65 15.85 65.4 L17.6 65.25 M21.4 80.85 L23.1 80.5 Q24.15 80.1 24.15 79.55 24.15 79.0 23.1 78.65 L22.05 78.35 23.5 76.75 26.4 87.2 27.6 92.1 24.2 91.45 21.0 86.2 21.4 84.2 21.75 82.2 Q21.75 81.45 21.4 80.85 M45.3 114.05 L46.1 109.1 Q46.5 107.4 48.15 103.65 47.7 105.95 48.0 108.05 47.9 110.0 45.3 114.05 M40.55 134.85 L42.55 137.45 40.75 140.95 Q40.75 143.65 41.2 145.0 L42.6 147.5 40.3 148.45 37.85 149.05 Q37.15 146.15 37.15 144.95 37.15 144.35 37.7 143.0 L40.55 134.85 M26.85 157.2 L29.05 158.85 Q28.15 158.85 27.5 158.4 26.85 157.9 26.85 157.2 M31.6 161.6 L33.45 164.6 Q33.45 167.35 34.2 169.6 L29.25 174.85 Q28.95 174.05 28.95 173.1 28.95 172.6 29.45 170.85 L29.95 168.6 28.2 166.75 Q26.45 164.95 26.45 164.55 26.45 163.85 27.7 163.1 29.05 162.25 31.6 161.6 M38.6 174.05 L41.3 175.85 Q40.25 177.75 38.5 178.4 L36.85 178.65 Q32.85 178.65 30.75 176.95 L29.85 176.0 34.95 171.3 Q36.45 174.05 38.6 174.05" fill="#ab7913" fill-rule="evenodd" stroke="none"/>
    <path d="M23.55 25.8 L23.45 28.4 Q23.15 29.7 21.0 32.9 L22.25 29.25 Q22.95 26.9 23.55 25.8 M15.95 44.05 L15.95 44.65 15.8 44.55 13.8 47.05 13.8 48.1 16.15 48.6 16.5 51.1 14.85 52.2 Q13.8 52.2 13.1 50.95 12.4 49.7 12.4 47.9 12.4 46.1 13.1 44.85 13.8 43.6 14.85 43.6 15.8 43.6 15.95 44.05 M36.0 77.55 L35.0 78.4 35.0 77.35 34.6 76.25 36.0 77.55 M31.7 74.8 Q29.65 76.05 28.7 79.0 28.25 80.5 28.2 81.8 28.2 83.25 28.6 84.55 L27.4 85.8 28.0 86.65 29.05 85.7 30.15 87.35 Q31.9 89.4 34.3 89.5 33.15 90.55 30.45 91.4 L27.6 92.1 26.4 87.2 23.5 76.75 26.7 75.55 30.3 74.45 31.7 74.8 M31.35 138.6 Q32.05 136.6 33.5 135.15 35.2 133.5 37.0 133.5 L38.4 133.95 40.55 134.85 37.7 143.0 Q37.15 144.35 37.15 144.95 37.15 146.15 37.85 149.05 37.25 148.8 35.4 147.2 L33.45 145.35 Q34.3 144.4 34.95 142.65 L35.5 140.95 Q35.5 139.05 34.45 138.0 33.7 137.3 33.1 137.3 32.95 137.3 31.35 138.6 M33.45 164.6 L35.9 169.85 38.6 174.05 Q36.45 174.05 34.95 171.3 L35.45 170.85 35.25 169.5 34.5 169.25 34.2 169.6 Q33.45 167.35 33.45 164.6" fill="#cf8e15" fill-rule="evenodd" stroke="none"/>
    <path d="M36.0 77.55 L36.75 80.3 37.3 82.75 36.45 85.5 Q35.4 88.25 34.3 89.5 31.9 89.4 30.15 87.35 L29.05 85.7 35.45 79.85 35.25 78.5 34.5 78.25 28.6 84.55 Q28.2 83.25 28.2 81.8 28.25 80.5 28.7 79.0 29.65 76.05 31.7 74.8 L32.95 75.3 34.6 76.25 35.0 77.35 35.0 78.4 36.0 77.55 M31.65 139.9 L31.35 138.6 Q32.95 137.3 33.1 137.3 33.7 137.3 34.45 138.0 35.5 139.05 35.5 140.95 L34.95 142.65 Q34.3 144.4 33.45 145.35 L32.75 143.25 34.75 141.0 31.8 139.65 31.65 139.9" fill="#f5b438" fill-rule="evenodd" stroke="none"/>
    <path d="M47.2 32.2 L45.1 30.6 45.0 29.95 45.0 29.9 45.2 29.4 46.8 30.2 49.45 31.45 52.1 32.7 52.3 33.25 51.65 35.6 50.65 34.85 47.2 32.2 M57.65 22.2 L55.25 23.6 54.5 23.5 52.45 20.7 56.0 19.8 56.4 20.35 57.65 22.2 M56.4 50.3 L50.75 48.3 50.85 47.35 51.05 45.7 54.1 46.3 57.45 50.65 56.4 50.3 M14.8 23.1 L18.0 24.1 19.3 25.1 22.65 27.65 21.65 28.6 18.65 26.8 13.85 23.95 13.5 23.7 13.8 22.8 14.8 23.1 M15.95 44.65 L17.35 45.4 17.25 46.75 17.6 48.85 16.15 48.6 13.8 48.1 13.8 47.05 15.8 44.55 15.95 44.65 M23.8 13.8 L22.8 12.5 23.35 12.3 23.8 13.85 23.8 13.8 M18.5 68.65 L17.05 68.15 13.7 67.05 12.3 66.55 13.9 66.55 17.4 66.6 18.95 66.6 18.5 68.65 M18.75 80.65 Q19.0 79.4 19.65 78.3 L20.6 78.25 22.05 78.35 23.1 78.65 Q24.15 79.0 24.15 79.55 24.15 80.1 23.1 80.5 L21.4 80.85 20.6 80.85 20.5 80.85 18.75 80.65 M28.6 84.55 L34.5 78.25 35.25 78.5 35.45 79.85 29.05 85.7 28.0 86.65 27.4 85.8 28.6 84.55 M48.9 122.15 L52.1 123.7 52.3 124.25 51.65 126.6 46.5 122.7 46.1 121.8 45.55 120.6 45.6 120.6 47.6 121.55 48.9 122.15 M55.45 114.5 L55.25 114.6 54.5 114.5 52.45 111.7 55.45 110.95 55.5 111.45 55.75 113.4 55.45 114.5 M29.65 143.35 L31.65 139.9 31.8 139.65 34.75 141.0 32.75 143.25 30.45 145.8 Q29.85 144.65 29.65 143.35 M22.65 171.65 Q22.4 170.4 21.95 170.05 L20.95 169.25 23.1 169.65 Q24.15 170.0 24.15 170.55 24.15 171.1 23.1 171.5 L22.65 171.65 M18.5 159.65 L17.8 157.6 19.15 157.6 20.2 158.45 20.15 159.45 19.55 160.0 18.5 159.65 M29.85 176.0 L28.0 177.65 27.4 176.8 29.25 174.85 34.2 169.6 34.5 169.25 35.25 169.5 35.45 170.85 34.95 171.3 29.85 176.0" fill="#844317" fill-rule="evenodd" stroke="none"/>
  </g>
</svg>
