<?xml version="1.0" encoding="UTF-8" standalone="no"?>
<svg xmlns:ffdec="https://www.free-decompiler.com/flash" xmlns:xlink="http://www.w3.org/1999/xlink" ffdec:objectType="shape" height="78.15px" width="99.4px" xmlns="http://www.w3.org/2000/svg">
  <g transform="matrix(1.0, 0.0, 0.0, 1.0, 55.3, 48.95)">
    <path d="M9.95 -3.85 L10.5 -6.3 11.4 -10.9 10.5 -14.0 10.05 -14.95 10.0 -15.0 9.3 -16.8 6.9 -18.8 5.3 -20.0 1.9 -25.0 Q-8.2 -37.95 -26.0 -37.95 -38.35 -35.75 -41.1 -34.75 L-40.1 -35.6 Q-36.3 -38.85 -29.0 -40.4 L-19.75 -41.4 Q-9.1 -41.4 1.45 -35.05 18.55 -24.95 18.55 -3.2 18.55 2.4 17.35 6.55 L14.95 5.85 12.15 5.15 Q11.15 5.0 9.5 4.0 9.95 1.15 9.95 -2.7 L9.95 -3.85" fill="#ebe8e0" fill-rule="evenodd" stroke="none"/>
    <path d="M5.3 -20.0 Q-2.35 -25.9 -9.5 -26.7 -16.65 -27.5 -21.45 -27.0 L-29.9 -26.45 Q-33.55 -26.45 -35.7 -27.65 -37.95 -28.9 -40.65 -29.65 L-45.4 -29.4 -46.6 -28.9 -46.6 -28.95 -43.65 -32.35 -43.55 -32.4 -43.35 -32.65 -43.25 -32.75 -43.2 -32.8 -41.1 -34.75 Q-38.35 -35.75 -26.0 -37.95 -8.2 -37.95 1.9 -25.0 L5.3 -20.0 M9.5 4.0 Q8.8 3.95 8.75 3.15 L8.7 1.45 9.95 -3.85 9.95 -2.7 Q9.95 1.15 9.5 4.0" fill="#ffffff" fill-rule="evenodd" stroke="none"/>
    <path d="M20.75 12.85 Q20.15 8.3 17.35 6.55 18.55 2.4 18.55 -3.2 18.55 -24.95 1.45 -35.05 -9.1 -41.4 -19.75 -41.4 L-29.0 -40.4 Q-36.3 -38.85 -40.1 -35.6 -35.6 -40.7 -26.65 -43.0 -20.85 -44.45 -15.05 -44.45 4.7 -44.45 15.85 -29.8 24.7 -18.25 24.7 -4.65 24.7 4.7 20.75 12.85" fill="#cbc8c0" fill-rule="evenodd" stroke="none"/>
    <path d="M-46.6 -28.9 L-46.9 -28.8 -47.85 -29.1 -48.6 -29.65 -48.2 -30.2 -48.15 -30.2 -45.1 -33.65 -44.55 -34.25 Q-32.35 -46.45 -15.05 -46.45 2.2 -46.45 14.5 -34.2 26.7 -21.95 26.7 -4.65 26.7 5.6 22.4 14.1 L20.85 13.05 20.75 12.85 Q24.7 4.7 24.7 -4.65 24.7 -18.25 15.85 -29.8 4.7 -44.45 -15.05 -44.45 -20.85 -44.45 -26.65 -43.0 -35.6 -40.7 -40.1 -35.6 L-41.1 -34.75 -43.2 -32.8 -43.25 -32.75 -43.35 -32.65 -43.55 -32.4 -43.65 -32.35 -46.6 -28.95 -46.6 -28.9" fill="#97877d" fill-rule="evenodd" stroke="none"/>
    <path d="M26.65 -0.2 L26.75 -1.55 27.8 -1.05 31.8 7.8 Q35.4 8.05 42.0 5.05 35.1 2.15 31.55 -5.15 28.95 -10.45 27.65 -19.6 26.05 -30.85 16.4 -38.5 7.2 -45.75 -3.75 -45.75 -7.8 -45.75 -11.65 -43.25 L-9.95 -43.35 -6.6 -43.45 -5.75 -42.75 -20.55 -40.25 Q-21.45 -39.9 -22.1 -39.0 L-24.1 -36.35 Q-22.25 -37.5 -19.35 -37.05 L-15.5 -36.0 -16.7 -35.2 -21.5 -35.95 Q-25.75 -35.95 -28.9 -33.4 -31.9 -30.95 -31.9 -28.0 -31.75 -26.45 -30.15 -25.15 -26.9 -22.65 -19.5 -23.65 -13.95 -24.4 -7.35 -22.65 -2.35 -21.35 4.1 -18.25 7.7 -16.55 8.35 -15.8 11.25 -12.45 11.25 -3.9 11.25 8.1 14.1 16.5 17.95 27.8 26.0 27.8 L28.25 27.5 25.3 26.25 Q23.05 23.55 20.75 17.65 18.6 12.1 18.6 9.75 L19.35 -5.2 Q19.95 -9.5 16.85 -15.85 L12.65 -24.1 Q16.75 -23.45 19.05 -12.9 21.5 -1.75 21.05 17.1 L24.55 16.55 Q22.85 13.85 22.1 8.9 21.45 4.8 21.75 2.25 L22.65 2.25 25.55 14.1 33.0 12.0 Q31.1 11.1 28.7 6.15 L28.05 4.8 26.65 -0.2 M9.0 -44.4 Q14.5 -41.85 18.0 -39.1 20.0 -37.5 24.25 -31.1 28.35 -24.9 28.95 -22.8 L29.45 -16.5 Q30.2 -10.95 32.2 -10.15 35.3 -8.9 37.9 -8.55 L39.65 -8.2 Q39.65 -7.6 38.8 -6.4 L35.4 -1.3 Q37.4 1.35 39.5 2.7 41.3 3.85 44.1 4.55 44.0 5.5 41.05 7.4 37.55 9.65 34.4 9.65 L32.6 9.6 35.4 12.5 Q32.25 14.65 26.2 16.1 L26.6 16.4 Q27.0 16.85 27.0 17.45 27.0 18.45 21.4 18.5 22.0 21.25 25.85 24.4 29.4 27.3 31.15 27.25 L30.15 28.0 27.7 28.75 25.8 29.2 Q19.2 29.2 14.25 21.95 8.25 13.2 9.15 -1.6 9.55 -8.0 8.35 -11.4 7.1 -15.1 3.4 -17.35 0.0 -20.1 -8.2 -21.35 L-18.35 -22.15 -29.65 -22.55 -30.8 -22.1 Q-31.45 -21.65 -31.95 -21.65 -34.75 -21.65 -39.25 -24.45 -43.8 -27.3 -45.35 -27.3 -50.55 -27.3 -51.2 -23.7 L-51.65 -21.1 Q-52.15 -19.8 -53.75 -19.55 -54.85 -20.5 -55.15 -22.15 L-55.3 -24.95 Q-55.3 -32.35 -50.25 -35.85 -44.45 -38.55 -43.1 -40.25 -41.15 -42.7 -35.65 -43.85 -28.55 -45.3 -27.75 -45.7 L-21.4 -47.65 Q-16.3 -48.95 -14.6 -48.95 L-8.7 -48.05 -1.35 -47.3 Q2.4 -47.55 9.0 -44.4 M37.5 -7.25 Q33.7 -8.15 33.6 -5.6 33.6 -4.35 34.3 -2.9 L37.5 -7.25 M-42.55 -36.2 L-49.7 -35.55 Q-53.55 -33.7 -53.55 -26.0 L-53.1 -22.2 -52.5 -22.95 Q-51.9 -23.85 -51.9 -24.5 -51.5 -25.6 -50.5 -26.65 -48.55 -28.75 -45.65 -28.75 -41.85 -28.75 -38.2 -26.0 L-35.0 -23.25 Q-33.3 -23.7 -32.25 -24.8 L-33.4 -29.1 Q-33.4 -32.4 -31.55 -33.75 L-28.25 -35.3 Q-25.55 -36.55 -24.5 -37.9 -20.95 -42.55 -15.05 -42.9 -12.7 -43.05 -11.75 -44.1 L-10.05 -46.1 -15.5 -47.0 -18.85 -46.8 -23.25 -46.05 Q-24.4 -45.7 -26.8 -44.15 -29.1 -42.7 -30.55 -42.4 L-37.55 -41.45 Q-39.1 -41.2 -42.05 -38.85 -40.3 -38.8 -37.7 -37.35 L-34.7 -35.45 -38.75 -35.9 -42.55 -36.2" fill="#97877d" fill-rule="evenodd" stroke="none"/>
    <path d="M14.8 -29.45 L14.75 -28.05 Q0.95 -35.65 -3.05 -36.9 -4.8 -37.45 -6.3 -38.7 L-3.7 -38.9 Q2.2 -38.9 8.45 -35.75 14.8 -32.6 14.8 -29.45 M7.1 -24.2 Q6.1 -22.5 5.1 -22.5 L-1.4 -26.0 -6.9 -27.25 -11.8 -28.2 -19.15 -27.65 -24.1 -27.2 -19.5 -30.1 Q-15.5 -32.15 -12.65 -32.15 -8.25 -32.15 -2.5 -30.25 4.7 -27.9 7.1 -24.2 M-45.05 -30.35 Q-47.2 -30.95 -48.5 -32.15 -47.6 -32.75 -45.7 -33.4 L-43.85 -34.0 Q-42.6 -34.0 -40.45 -32.75 L-37.9 -31.0 Q-37.9 -30.45 -39.5 -30.1 L-41.85 -29.85 -45.05 -30.35" fill="#ffffff" fill-rule="evenodd" stroke="none"/>
    <path d="M28.05 4.8 L29.75 10.8 25.25 11.5 Q23.2 -9.1 18.45 -18.45 16.65 -22.05 13.95 -24.9 L9.2 -29.3 Q7.5 -30.85 -2.55 -34.7 L-12.25 -38.35 Q-12.25 -38.8 -13.55 -38.95 -14.95 -39.05 -15.15 -39.7 L-8.8 -40.45 -4.4 -40.75 Q-1.3 -40.75 0.25 -40.05 L4.45 -38.3 7.85 -37.6 Q10.8 -36.65 12.35 -34.55 17.1 -30.1 18.9 -25.9 20.45 -22.15 26.65 -0.2 L28.05 4.8 M25.3 26.25 Q19.55 23.0 17.35 19.9 14.45 15.8 14.75 8.9 15.2 -0.85 12.45 -10.75 9.5 -21.3 5.5 -21.3 -2.9 -25.05 -4.0 -25.3 L-14.5 -26.6 -25.05 -25.25 Q-26.55 -25.25 -27.55 -27.0 L-28.25 -28.9 Q-28.25 -31.65 -24.0 -32.55 L-17.5 -33.0 -13.75 -32.55 -10.0 -32.15 -6.95 -32.65 -8.4 -34.05 Q-9.45 -34.85 -11.85 -36.2 -2.6 -37.2 7.0 -27.3 16.2 -17.75 19.35 -5.2 L18.6 9.75 Q18.6 12.1 20.75 17.65 23.05 23.55 25.3 26.25 M14.8 -29.45 Q14.8 -32.6 8.45 -35.75 2.2 -38.9 -3.7 -38.9 L-6.3 -38.7 Q-4.8 -37.45 -3.05 -36.9 0.95 -35.65 14.75 -28.05 L14.8 -29.45 M6.35 -41.65 Q11.6 -39.6 16.25 -35.3 27.1 -25.2 27.0 -11.55 22.6 -27.35 15.3 -34.15 8.9 -40.05 -3.45 -42.05 L-3.35 -42.8 Q1.0 -43.7 6.35 -41.65 M7.1 -24.2 Q4.7 -27.9 -2.5 -30.25 -8.25 -32.15 -12.65 -32.15 -15.5 -32.15 -19.5 -30.1 L-24.1 -27.2 -19.15 -27.65 -11.8 -28.2 -6.9 -27.25 -1.4 -26.0 5.1 -22.5 Q6.1 -22.5 7.1 -24.2 M29.2 -0.1 Q27.4 -3.75 28.5 -5.85 L31.2 -1.0 Q33.55 3.25 34.4 4.1 L33.6 4.55 33.2 4.65 Q30.9 3.35 29.2 -0.1 M-46.1 -30.1 L-48.85 -29.8 -51.0 -29.6 Q-50.35 -32.65 -48.8 -33.95 -47.35 -35.2 -44.55 -35.2 -41.65 -35.2 -39.25 -34.0 -35.65 -32.2 -35.65 -28.45 -35.65 -27.8 -36.1 -27.3 L-36.55 -26.9 Q-39.8 -30.1 -46.1 -30.1 M-45.05 -30.35 L-41.85 -29.85 -39.5 -30.1 Q-37.9 -30.45 -37.9 -31.0 L-40.45 -32.75 Q-42.6 -34.0 -43.85 -34.0 L-45.7 -33.4 Q-47.6 -32.75 -48.5 -32.15 -47.2 -30.95 -45.05 -30.35 M-28.4 -39.9 Q-28.6 -38.55 -27.55 -37.7 L-27.7 -36.6 Q-30.35 -36.25 -33.55 -37.7 -36.3 -39.0 -37.25 -40.35 L-28.4 -39.9 M-22.85 -44.6 L-20.35 -44.3 Q-19.3 -44.0 -19.3 -43.55 -19.3 -43.1 -20.35 -42.8 L-22.85 -42.5 -25.35 -42.8 Q-26.4 -43.1 -26.4 -43.55 -26.4 -44.0 -25.35 -44.3 L-22.85 -44.6" fill="#ebe8e0" fill-rule="evenodd" stroke="none"/>
    <path d="M26.65 -0.2 Q20.45 -22.15 18.9 -25.9 17.1 -30.1 12.35 -34.55 10.8 -36.65 7.85 -37.6 L4.45 -38.3 0.25 -40.05 Q-1.3 -40.75 -4.4 -40.75 L-8.8 -40.45 -15.15 -39.7 Q-14.95 -39.05 -13.55 -38.95 -12.25 -38.8 -12.25 -38.35 L-2.55 -34.7 Q7.5 -30.85 9.2 -29.3 L13.95 -24.9 Q16.65 -22.05 18.45 -18.45 23.2 -9.1 25.25 11.5 L29.75 10.8 28.05 4.8 28.7 6.15 Q31.1 11.1 33.0 12.0 L25.55 14.1 22.65 2.25 21.75 2.25 Q21.45 4.8 22.1 8.9 22.85 13.85 24.55 16.55 L21.05 17.1 Q21.5 -1.75 19.05 -12.9 16.75 -23.45 12.65 -24.1 L16.85 -15.85 Q19.95 -9.5 19.35 -5.2 16.2 -17.75 7.0 -27.3 -2.6 -37.2 -11.85 -36.2 -9.45 -34.85 -8.4 -34.05 L-6.95 -32.65 -10.0 -32.15 -13.75 -32.55 -17.5 -33.0 -24.0 -32.55 Q-28.25 -31.65 -28.25 -28.9 L-27.55 -27.0 Q-26.55 -25.25 -25.05 -25.25 L-14.5 -26.6 -4.0 -25.3 Q-2.9 -25.05 5.5 -21.3 9.5 -21.3 12.45 -10.75 15.2 -0.85 14.75 8.9 14.45 15.8 17.35 19.9 19.55 23.0 25.3 26.25 L28.25 27.5 26.0 27.8 Q17.95 27.8 14.1 16.5 11.25 8.1 11.25 -3.9 11.25 -12.45 8.35 -15.8 7.7 -16.55 4.1 -18.25 -2.35 -21.35 -7.35 -22.65 -13.95 -24.4 -19.5 -23.65 -26.9 -22.65 -30.15 -25.15 -31.75 -26.45 -31.9 -28.0 -31.9 -30.95 -28.9 -33.4 -25.75 -35.95 -21.5 -35.95 L-16.7 -35.2 -15.5 -36.0 -19.35 -37.05 Q-22.25 -37.5 -24.1 -36.35 L-22.1 -39.0 Q-21.45 -39.9 -20.55 -40.25 L-5.75 -42.75 -6.6 -43.45 -9.95 -43.35 -11.65 -43.25 Q-7.8 -45.75 -3.75 -45.75 7.2 -45.75 16.4 -38.5 26.05 -30.85 27.65 -19.6 28.95 -10.45 31.55 -5.15 35.1 2.15 42.0 5.05 35.4 8.05 31.8 7.8 L27.8 -1.05 26.75 -1.55 26.65 -0.2 M6.35 -41.65 Q1.0 -43.7 -3.35 -42.8 L-3.45 -42.05 Q8.9 -40.05 15.3 -34.15 22.6 -27.35 27.0 -11.55 27.1 -25.2 16.25 -35.3 11.6 -39.6 6.35 -41.65 M29.2 -0.1 Q30.9 3.35 33.2 4.65 L33.6 4.55 34.4 4.1 Q33.55 3.25 31.2 -1.0 L28.5 -5.85 Q27.4 -3.75 29.2 -0.1 M37.5 -7.25 L34.3 -2.9 Q33.6 -4.35 33.6 -5.6 33.7 -8.15 37.5 -7.25 M-42.55 -36.2 L-38.75 -35.9 -34.7 -35.45 -37.7 -37.35 Q-40.3 -38.8 -42.05 -38.85 -39.1 -41.2 -37.55 -41.45 L-30.55 -42.4 Q-29.1 -42.7 -26.8 -44.15 -24.4 -45.7 -23.25 -46.05 L-18.85 -46.8 -15.5 -47.0 -10.05 -46.1 -11.75 -44.1 Q-12.7 -43.05 -15.05 -42.9 -20.95 -42.55 -24.5 -37.9 -25.55 -36.55 -28.25 -35.3 L-31.55 -33.75 Q-33.4 -32.4 -33.4 -29.1 L-32.25 -24.8 Q-33.3 -23.7 -35.0 -23.25 L-38.2 -26.0 Q-41.85 -28.75 -45.65 -28.75 -48.55 -28.75 -50.5 -26.65 -51.5 -25.6 -51.9 -24.5 -51.9 -23.85 -52.5 -22.95 L-53.1 -22.2 -53.55 -26.0 Q-53.55 -33.7 -49.7 -35.55 L-42.55 -36.2 M-46.1 -30.1 Q-39.8 -30.1 -36.55 -26.9 L-36.1 -27.3 Q-35.65 -27.8 -35.65 -28.45 -35.65 -32.2 -39.25 -34.0 -41.65 -35.2 -44.55 -35.2 -47.35 -35.2 -48.8 -33.95 -50.35 -32.65 -51.0 -29.6 L-48.85 -29.8 -46.1 -30.1 M-22.85 -44.6 L-25.35 -44.3 Q-26.4 -44.0 -26.4 -43.55 -26.4 -43.1 -25.35 -42.8 L-22.85 -42.5 -20.35 -42.8 Q-19.3 -43.1 -19.3 -43.55 -19.3 -44.0 -20.35 -44.3 L-22.85 -44.6 M-28.4 -39.9 L-37.25 -40.35 Q-36.3 -39.0 -33.55 -37.7 -30.35 -36.25 -27.7 -36.6 L-27.55 -37.7 Q-28.6 -38.55 -28.4 -39.9" fill="#cbc8c0" fill-rule="evenodd" stroke="none"/>
  </g>
</svg>
