<?xml version="1.0" encoding="UTF-8" standalone="no"?>
<svg xmlns:ffdec="https://www.free-decompiler.com/flash" xmlns:xlink="http://www.w3.org/1999/xlink" ffdec:objectType="shape" height="187.45px" width="61.4px" xmlns="http://www.w3.org/2000/svg">
  <g transform="matrix(1.0, 0.0, 0.0, 1.0, -1.35, -1.35)">
    <path d="M30.95 83.95 Q30.2 88.25 27.7 90.7 24.05 94.35 16.45 94.35 16.1 94.35 10.3 79.9 7.7 74.95 7.05 69.65 5.35 66.55 5.95 65.25 6.5 63.95 6.55 62.4 6.6 60.8 4.0 58.25 1.35 55.65 1.35 51.7 2.4 46.9 3.5 44.05 L2.7 40.4 Q2.2 38.95 4.1 36.55 6.0 34.1 6.0 33.45 L5.65 31.35 Q5.25 29.75 5.15 28.55 5.05 27.3 6.95 25.25 8.85 23.15 9.05 20.3 9.2 17.45 9.75 16.35 L12.85 11.45 Q15.4 7.65 20.95 4.75 26.5 1.85 28.15 1.5 L31.6 1.7 34.9 1.9 36.85 1.5 39.05 1.9 Q41.2 2.4 41.75 2.9 L40.95 6.05 40.0 9.2 Q38.65 12.35 32.1 17.0 25.25 21.9 23.75 23.65 22.55 25.1 21.7 26.95 L20.5 26.0 20.95 25.05 Q23.25 20.45 26.5 19.0 L32.85 14.6 36.15 12.05 38.65 8.5 39.55 6.3 34.1 6.1 Q29.65 6.1 13.3 17.9 L15.05 22.55 14.6 23.05 13.8 22.8 13.5 23.7 13.8 23.85 11.7 25.85 Q10.4 27.4 10.4 29.15 L8.65 35.65 Q6.9 41.55 6.9 43.3 L7.5 45.2 8.05 47.55 7.35 49.75 Q6.65 51.95 6.65 52.35 6.65 55.35 9.4 56.95 12.1 58.55 12.1 59.9 L11.25 62.6 Q10.4 64.75 10.4 65.25 10.4 67.6 12.45 70.45 L14.45 72.95 14.1 74.55 13.7 76.15 Q20.45 90.75 20.7 92.45 L24.15 91.35 27.3 88.9 29.0 85.75 30.95 83.95 M21.15 28.3 Q20.0 31.6 20.0 35.85 20.0 39.9 21.75 44.5 L25.65 53.25 26.85 56.1 27.1 56.75 26.2 58.2 27.0 58.6 27.55 58.0 Q31.25 68.6 31.25 80.05 L31.2 81.75 29.35 83.75 29.55 81.6 29.7 76.4 29.4 72.2 27.6 63.05 26.3 59.3 26.2 59.05 22.3 49.8 22.5 49.85 23.25 49.2 22.5 48.25 21.4 47.65 20.75 46.05 Q19.65 43.45 18.75 39.35 L18.5 35.85 Q18.5 31.4 19.9 27.55 L21.15 28.3 M45.45 30.9 L45.65 32.75 45.65 32.8 45.65 32.9 Q45.65 36.85 42.9 39.65 40.1 42.45 36.15 42.45 32.2 42.45 29.45 39.65 27.6 37.8 27.0 35.45 L29.0 35.85 Q29.45 37.5 30.75 38.85 32.85 41.0 35.8 41.0 L37.9 40.7 Q39.4 40.2 40.95 38.6 42.35 37.15 42.8 35.9 L43.5 33.55 Q44.1 31.3 44.1 30.35 L43.25 28.35 42.3 26.4 Q42.15 26.2 38.7 24.9 35.9 24.55 33.1 26.1 30.75 27.4 30.15 28.8 L28.65 33.55 26.85 34.9 26.65 33.0 26.65 32.9 Q26.65 28.95 29.45 26.15 32.2 23.35 36.15 23.35 40.1 23.35 42.9 26.15 44.4 27.7 45.1 29.65 L44.75 30.35 45.45 30.9 M49.75 73.7 Q51.55 76.65 52.3 77.1 53.6 76.4 54.0 74.3 L54.2 71.6 53.8 69.25 53.4 66.9 55.55 61.25 Q57.7 54.9 57.7 51.3 57.7 50.7 57.1 49.95 L56.5 49.3 56.45 49.35 55.25 47.8 Q57.65 44.5 60.95 42.3 62.15 43.0 62.55 45.65 L62.75 48.35 62.15 50.2 61.55 52.2 61.85 53.7 62.2 57.25 Q62.25 59.55 60.5 62.35 L58.65 65.55 Q58.5 66.3 58.5 70.2 56.7 74.3 57.05 74.65 57.35 74.95 58.7 79.75 L58.05 82.5 Q52.8 80.1 50.15 77.15 48.25 75.05 48.25 73.7 48.25 64.7 50.4 57.65 51.8 53.0 54.1 49.45 L55.8 50.05 Q53.05 53.4 50.9 64.3 L48.45 69.15 48.9 69.75 49.6 69.8 50.0 69.3 49.8 70.4 49.75 73.7 M41.2 85.05 Q43.6 82.6 47.0 82.6 50.4 82.6 52.85 85.05 55.25 87.45 55.25 90.9 55.25 94.35 52.85 96.8 50.4 99.2 47.0 99.2 43.6 99.2 41.2 96.8 38.75 94.35 38.75 90.9 38.75 87.45 41.2 85.05 M41.35 95.75 Q44.5 98.0 48.3 98.0 50.0 98.0 51.25 97.4 53.2 96.5 53.2 94.25 53.2 93.15 51.65 91.45 L50.05 93.35 Q48.15 95.05 46.05 95.15 L46.2 94.35 Q48.0 90.9 50.0 88.2 L51.65 85.95 48.2 83.85 Q45.35 83.85 43.35 87.35 41.35 90.8 41.35 95.75 M50.45 125.7 L51.65 126.6 52.3 124.25 52.2 123.9 52.85 123.7 Q52.95 124.85 52.05 126.5 L51.1 128.3 52.0 129.85 Q52.8 131.3 52.8 132.6 52.8 133.85 52.0 134.7 L50.5 136.5 Q49.8 137.45 49.95 138.4 L50.35 140.2 Q50.45 140.65 49.35 143.85 48.2 147.0 48.25 147.75 L48.2 149.85 48.2 152.6 Q48.2 153.95 47.7 155.2 47.2 156.4 47.0 157.85 46.75 159.25 47.4 161.05 L48.6 164.65 Q49.05 166.2 48.6 168.35 L48.6 168.5 48.5 169.0 48.35 170.0 47.95 169.65 46.8 170.55 Q46.75 168.7 46.15 166.9 46.4 166.95 46.45 167.1 46.15 163.8 45.05 158.2 L44.05 153.05 Q44.05 150.35 44.95 148.1 L45.8 146.15 44.7 143.2 47.2 130.0 44.15 133.0 Q42.1 135.05 40.35 141.4 39.4 144.85 38.3 150.05 38.35 151.7 36.9 156.55 L35.55 160.55 34.1 160.8 34.45 160.3 34.9 159.6 35.15 159.15 36.25 157.45 Q36.75 157.45 36.55 153.7 36.3 149.9 36.8 149.9 37.05 147.8 37.9 144.5 39.65 137.85 43.0 132.1 43.9 130.5 47.55 128.2 L48.55 127.5 50.45 125.7 M36.7 107.4 Q33.15 107.4 30.65 109.4 28.15 111.35 28.15 114.15 L26.3 121.05 Q26.3 123.5 28.3 124.85 L27.0 125.8 Q24.8 124.15 24.8 121.05 24.8 112.8 29.15 107.95 30.5 106.4 32.15 105.4 L33.6 104.7 Q35.7 104.7 37.85 106.45 L36.95 107.6 36.7 107.4 M38.35 109.55 L39.0 107.55 Q41.75 110.45 41.75 113.2 41.75 119.45 38.65 123.45 35.8 127.15 31.85 127.15 L31.1 127.15 31.7 125.8 33.05 125.55 36.45 123.45 37.2 122.45 Q40.05 115.5 40.05 114.5 40.05 113.6 39.25 111.5 L38.35 109.55 M33.9 161.05 L35.05 161.7 34.65 162.35 Q33.8 163.4 30.9 164.4 L26.65 165.35 23.8 166.35 Q24.75 167.0 26.25 170.2 L24.6 173.65 Q24.6 174.2 29.45 179.5 34.7 185.25 36.7 185.25 40.35 185.25 44.05 179.4 46.45 175.6 46.8 171.95 L48.65 172.75 48.85 176.85 Q48.85 180.35 44.4 184.7 39.9 189.05 35.45 188.8 31.0 188.55 29.1 185.95 L24.95 180.35 Q23.15 178.15 22.85 176.15 22.55 174.2 22.55 172.7 L22.4 171.7 23.1 171.5 Q24.15 171.1 24.15 170.55 24.15 170.0 23.1 169.65 L20.6 169.25 20.55 169.25 Q19.55 168.1 19.7 167.15 20.35 166.7 22.05 166.0 23.15 165.55 23.15 165.0 23.15 164.5 24.75 164.45 26.3 164.4 26.3 163.9 L28.7 163.6 Q31.55 162.95 33.75 161.15 L33.9 161.05" fill="#4d3507" fill-rule="evenodd" stroke="none"/>
    <path d="M24.15 91.35 L20.7 92.45 Q20.45 90.75 13.7 76.15 L14.1 74.55 14.45 72.95 12.45 70.45 Q10.4 67.6 10.4 65.25 10.4 64.75 11.25 62.6 L12.1 59.9 Q12.1 58.55 9.4 56.95 6.65 55.35 6.65 52.35 6.65 51.95 7.35 49.75 L8.05 47.55 7.5 45.2 6.9 43.3 Q6.9 41.55 8.65 35.65 L10.4 29.15 Q10.4 27.4 11.7 25.85 L13.8 23.85 16.7 25.65 Q14.45 29.35 14.45 32.1 L14.85 33.95 15.25 35.75 12.45 42.15 Q9.6 49.05 9.6 52.0 9.6 53.55 18.15 60.2 26.65 66.9 26.65 67.35 L26.45 68.3 26.25 68.7 24.95 68.75 Q24.2 68.75 20.35 66.7 16.5 64.65 15.55 64.65 L14.75 64.8 14.65 64.95 14.2 66.2 14.2 66.6 12.3 66.55 14.3 67.25 Q14.7 68.7 16.45 69.65 18.85 70.9 18.85 71.6 L17.1 76.4 Q17.1 77.9 17.8 78.75 17.05 79.1 17.05 79.55 17.05 80.1 18.1 80.5 L20.6 80.85 21.4 80.85 Q21.75 81.4 21.75 82.2 L21.4 84.2 21.0 86.2 22.3 88.1 Q23.7 90.05 24.15 91.35 M14.6 23.05 L15.05 22.55 13.3 17.9 Q29.65 6.1 34.1 6.1 L39.55 6.3 38.65 8.5 Q33.45 8.05 26.45 14.35 L25.25 11.65 22.8 12.5 25.15 15.55 23.15 17.55 Q19.8 21.05 17.75 24.05 L14.6 23.05 M56.45 49.35 L56.5 49.3 57.1 49.95 Q57.7 50.7 57.7 51.3 57.7 54.9 55.55 61.25 L53.4 66.9 53.8 69.25 54.2 71.6 54.0 74.3 Q53.6 76.4 52.3 77.1 51.55 76.65 49.75 73.7 L50.1 72.15 Q50.15 71.45 49.8 70.4 L50.0 69.3 55.0 62.3 52.3 61.45 50.9 64.3 Q53.05 53.4 55.8 50.05 L57.45 50.65 56.45 49.35 M41.35 95.75 Q44.35 92.15 46.45 88.15 48.2 84.85 48.2 83.85 L51.65 85.95 50.0 88.2 Q48.0 90.9 46.2 94.35 L46.05 95.15 Q48.15 95.05 50.05 93.35 L51.65 91.45 Q53.2 93.15 53.2 94.25 53.2 96.5 51.25 97.4 50.0 98.0 48.3 98.0 44.5 98.0 41.35 95.75 M44.15 133.0 L47.2 130.0 44.7 143.2 45.8 146.15 44.95 148.1 Q44.05 150.35 44.05 153.05 L45.05 158.2 Q46.15 163.8 46.45 167.1 46.4 166.95 46.15 166.9 46.75 168.7 46.8 170.55 L45.55 171.45 46.8 171.95 Q46.45 175.6 44.05 179.4 40.35 185.25 36.7 185.25 34.7 185.25 29.45 179.5 24.6 174.2 24.6 173.65 L26.25 170.2 Q24.75 167.0 23.8 166.35 L26.65 165.35 Q29.95 167.85 29.95 168.6 L29.45 170.85 Q28.95 172.6 28.95 173.1 28.95 174.05 29.25 174.85 L27.4 176.8 28.0 177.65 29.85 176.0 30.9 177.05 Q32.95 178.65 36.45 178.65 40.6 178.65 42.3 173.8 43.5 170.35 43.5 163.9 43.5 162.1 42.75 157.25 41.95 152.4 41.95 150.55 L42.35 148.7 42.75 146.8 41.75 145.05 Q40.75 143.0 40.75 140.95 L44.15 133.0 M28.15 114.15 L26.6 120.35 Q26.6 123.15 27.95 123.9 L28.95 124.35 28.3 124.85 Q26.3 123.5 26.3 121.05 L28.15 114.15 M31.7 125.8 L31.9 125.25 33.05 125.55 31.7 125.8" fill="#704e0f" fill-rule="evenodd" stroke="none"/>
    <path d="M27.3 88.9 L24.15 91.35 Q23.7 90.05 22.3 88.1 L21.0 86.2 21.4 84.2 21.75 82.2 Q21.75 81.4 21.4 80.85 L23.1 80.5 Q24.15 80.1 24.15 79.55 24.15 79.0 23.1 78.65 L20.6 78.25 18.1 78.65 17.8 78.75 Q17.1 77.9 17.1 76.4 L18.85 71.6 Q18.85 70.9 16.45 69.65 14.7 68.7 14.3 67.25 L19.55 69.0 20.15 68.45 20.2 67.45 19.15 66.6 14.2 66.6 14.2 66.2 14.65 64.95 14.75 64.8 15.55 64.65 Q16.5 64.65 20.35 66.7 24.2 68.75 24.95 68.75 L26.25 68.7 26.45 68.3 26.65 67.35 Q26.65 66.9 18.15 60.2 9.6 53.55 9.6 52.0 9.6 49.05 12.45 42.15 L15.25 35.75 14.85 33.95 14.45 32.1 Q14.45 29.35 16.7 25.65 L19.9 27.55 Q18.5 31.4 18.5 35.85 L18.75 39.35 Q18.25 43.0 18.4 46.0 L16.7 45.05 16.6 44.85 Q15.85 43.6 14.85 43.6 13.85 43.6 13.15 44.85 12.4 46.1 12.4 47.9 12.4 49.7 13.15 50.95 13.85 52.2 14.85 52.2 15.85 52.2 16.6 50.95 L17.25 48.8 18.7 49.1 Q19.1 51.35 19.9 53.2 21.9 57.65 26.2 59.05 L26.3 59.3 26.8 61.1 27.6 63.05 29.4 72.2 Q27.25 72.05 25.2 72.8 22.95 73.7 22.95 75.15 L25.0 81.3 27.3 88.9 M38.65 8.5 L36.15 12.05 32.85 14.6 Q30.2 14.6 28.35 15.9 26.5 17.2 26.5 19.0 23.25 20.45 20.95 25.05 L20.5 26.0 18.0 24.1 17.75 24.05 Q19.8 21.05 23.15 17.55 L25.15 15.55 26.25 17.05 27.15 16.95 27.25 16.25 26.45 14.35 Q33.45 8.05 38.65 8.5 M42.3 26.4 L43.25 28.35 44.1 30.35 42.3 26.4 M42.8 35.9 Q42.35 37.15 40.95 38.6 39.4 40.2 37.9 40.7 38.2 39.15 39.55 38.1 L42.8 35.9 M49.8 70.4 Q50.15 71.45 50.1 72.15 L49.75 73.7 49.8 70.4 M48.2 83.85 Q48.2 84.85 46.45 88.15 44.35 92.15 41.35 95.75 41.35 90.8 43.35 87.35 45.35 83.85 48.2 83.85 M38.3 150.05 Q39.4 144.85 40.35 141.4 42.1 135.05 44.15 133.0 L40.75 140.95 Q40.75 143.0 41.75 145.05 L42.75 146.8 42.35 148.7 41.95 150.55 Q41.95 152.4 42.75 157.25 43.5 162.1 43.5 163.9 43.5 170.35 42.3 173.8 40.6 178.65 36.45 178.65 32.95 178.65 30.9 177.05 L29.85 176.0 34.1 172.1 34.75 172.9 Q36.3 174.45 37.6 174.45 39.4 174.45 39.9 171.0 L40.25 164.5 41.35 165.1 41.8 164.3 40.25 162.8 40.05 156.1 Q39.65 151.65 38.3 150.05 M35.0 110.05 L34.5 110.7 34.55 110.8 33.4 112.45 Q31.9 114.6 31.9 119.05 31.9 120.05 32.8 121.1 L33.05 121.35 28.95 124.35 27.95 123.9 Q26.6 123.15 26.6 120.35 L28.15 114.15 Q28.15 111.35 30.65 109.4 33.15 107.4 36.7 107.4 L35.0 110.05 M33.45 121.75 Q34.55 122.7 36.45 123.45 L33.05 125.55 31.9 125.25 33.45 121.75 M26.65 165.35 L30.9 164.4 Q33.8 163.4 34.65 162.35 32.75 166.9 32.75 167.55 32.75 169.2 33.25 170.6 L29.25 174.85 Q28.95 174.05 28.95 173.1 28.95 172.6 29.45 170.85 L29.95 168.6 Q29.95 167.85 26.65 165.35" fill="#ab7913" fill-rule="evenodd" stroke="none"/>
    <path d="M29.0 85.75 L27.3 88.9 25.0 81.3 22.95 75.15 Q22.95 73.7 25.2 72.8 27.25 72.05 29.4 72.2 L29.7 76.4 Q28.2 80.9 28.2 81.8 28.2 82.4 28.55 83.8 L28.75 84.4 27.4 85.8 28.0 86.65 29.0 85.75 M32.85 14.6 L26.5 19.0 Q26.5 17.2 28.35 15.9 30.2 14.6 32.85 14.6 M44.1 30.35 Q44.1 31.3 43.5 33.55 L42.8 35.9 39.55 38.1 Q38.2 39.15 37.9 40.7 L35.8 41.0 Q35.8 37.9 33.7 35.75 L31.9 34.35 33.4 30.8 34.1 31.15 Q35.45 31.85 36.4 31.85 37.7 31.85 38.55 30.9 39.55 29.8 39.55 27.6 39.55 26.5 38.7 24.9 42.15 26.2 42.3 26.4 L44.1 30.35 M18.75 39.35 Q19.65 43.45 20.75 46.05 L21.4 47.65 18.4 46.0 Q18.25 43.0 18.75 39.35 M22.3 49.8 L26.2 59.05 Q21.9 57.65 19.9 53.2 19.1 51.35 18.7 49.1 L22.3 49.8 M26.3 59.3 L27.6 63.05 26.8 61.1 26.3 59.3 M17.25 48.8 L16.6 50.95 Q15.85 52.2 14.85 52.2 13.85 52.2 13.15 50.95 12.4 49.7 12.4 47.9 12.4 46.1 13.15 44.85 13.85 43.6 14.85 43.6 15.85 43.6 16.6 44.85 L16.7 45.05 15.8 44.55 13.8 47.05 13.8 48.1 17.25 48.8 M28.65 33.55 L30.15 28.8 32.85 30.5 28.65 33.55 M35.55 160.55 L36.9 156.55 Q38.35 151.7 38.3 150.05 39.65 151.65 40.05 156.1 L40.25 162.8 37.6 160.25 35.55 160.55 M35.0 110.05 L36.7 107.4 36.95 107.6 35.0 110.05 M33.05 121.35 L32.8 121.1 Q31.9 120.05 31.9 119.05 31.9 114.6 33.4 112.45 L34.55 110.8 34.8 111.65 36.35 111.75 35.35 115.75 Q35.35 116.9 36.15 119.55 36.85 121.9 37.2 122.45 L36.45 123.45 Q34.55 122.7 33.45 121.75 L33.85 120.75 33.05 121.35 M35.05 161.7 L40.25 164.5 39.9 171.0 Q39.4 174.45 37.6 174.45 36.3 174.45 34.75 172.9 L34.1 172.1 35.45 170.85 35.25 169.5 34.5 169.25 33.25 170.6 Q32.75 169.2 32.75 167.55 32.75 166.9 34.65 162.35 L35.05 161.7 M36.65 163.8 Q36.1 163.8 35.7 164.5 35.3 165.2 35.3 166.15 35.3 167.1 35.7 167.8 36.1 168.5 36.65 168.5 37.2 168.5 37.6 167.8 38.0 167.1 38.0 166.15 38.0 165.2 37.6 164.5 37.2 163.8 36.65 163.8" fill="#cf8e15" fill-rule="evenodd" stroke="none"/>
    <path d="M35.8 41.0 Q32.85 41.0 30.75 38.85 29.45 37.5 29.0 35.85 L31.05 36.25 31.9 34.35 33.7 35.75 Q35.8 37.9 35.8 41.0 M38.7 24.9 Q39.55 26.5 39.55 27.6 39.55 29.8 38.55 30.9 37.7 31.85 36.4 31.85 35.45 31.85 34.1 31.15 L33.4 30.8 33.85 29.75 32.85 30.5 30.15 28.8 Q30.75 27.4 33.1 26.1 35.9 24.55 38.7 24.9 M29.7 76.4 L29.55 81.6 29.35 83.75 28.75 84.4 28.55 83.8 Q28.2 82.4 28.2 81.8 28.2 80.9 29.7 76.4 M36.35 111.75 L37.65 111.85 38.35 109.55 39.25 111.5 Q40.05 113.6 40.05 114.5 40.05 115.5 37.2 122.45 36.85 121.9 36.15 119.55 35.35 116.9 35.35 115.75 L36.35 111.75 M36.65 163.8 Q37.2 163.8 37.6 164.5 38.0 165.2 38.0 166.15 38.0 167.1 37.6 167.8 37.2 168.5 36.65 168.5 36.1 168.5 35.7 167.8 35.3 167.1 35.3 166.15 35.3 165.2 35.7 164.5 36.1 163.8 36.65 163.8" fill="#f5b438" fill-rule="evenodd" stroke="none"/>
    <path d="M21.7 26.95 L21.15 28.3 19.9 27.55 16.7 25.65 13.8 23.85 13.5 23.7 13.8 22.8 14.6 23.05 17.75 24.05 18.0 24.1 20.5 26.0 21.7 26.95 M27.1 56.75 L27.55 58.0 27.0 58.6 26.2 58.2 27.1 56.75 M31.2 81.75 L30.95 83.95 29.0 85.75 28.0 86.65 27.4 85.8 28.75 84.4 29.35 83.75 31.2 81.75 M45.1 29.65 L45.45 30.9 44.75 30.35 45.1 29.65 M27.0 35.45 L26.85 34.9 28.65 33.55 32.85 30.5 33.85 29.75 33.4 30.8 31.9 34.35 31.05 36.25 29.0 35.85 27.0 35.45 M56.45 49.35 L57.45 50.65 55.8 50.05 54.1 49.45 55.25 47.8 56.45 49.35 M50.9 64.3 L52.3 61.45 55.0 62.3 50.0 69.3 49.6 69.8 48.9 69.75 48.45 69.15 50.9 64.3 M25.15 15.55 L22.8 12.5 25.25 11.65 26.45 14.35 27.25 16.25 27.15 16.95 26.25 17.05 25.15 15.55 M14.2 66.6 L19.15 66.6 20.2 67.45 20.15 68.45 19.55 69.0 14.3 67.25 12.3 66.55 14.2 66.6 M17.8 78.75 L18.1 78.65 20.6 78.25 23.1 78.65 Q24.15 79.0 24.15 79.55 24.15 80.1 23.1 80.5 L21.4 80.85 20.6 80.85 18.1 80.5 Q17.05 80.1 17.05 79.55 17.05 79.1 17.8 78.75 M21.4 47.65 L22.5 48.25 23.25 49.2 22.5 49.85 22.3 49.8 18.7 49.1 17.25 48.8 13.8 48.1 13.8 47.05 15.8 44.55 16.7 45.05 18.4 46.0 21.4 47.65 M52.2 123.9 L52.3 124.25 51.65 126.6 50.45 125.7 50.65 125.0 Q50.65 124.25 51.15 124.15 L52.2 123.9 M34.1 160.8 L35.55 160.55 37.6 160.25 40.25 162.8 41.8 164.3 41.35 165.1 40.25 164.5 35.05 161.7 33.9 161.05 34.1 160.8 M46.8 170.55 L47.95 169.65 48.35 170.0 Q48.25 171.05 48.5 171.9 L48.65 172.75 46.8 171.95 45.55 171.45 46.8 170.55 M34.55 110.8 L34.5 110.7 35.0 110.05 36.95 107.6 37.85 106.45 39.0 107.55 38.35 109.55 37.65 111.85 36.35 111.75 34.8 111.65 34.55 110.8 M28.95 124.35 L33.05 121.35 33.85 120.75 33.45 121.75 31.9 125.25 31.7 125.8 31.1 127.15 Q28.9 127.0 27.3 126.0 L27.0 125.8 28.3 124.85 28.95 124.35 M20.55 169.25 L20.6 169.25 23.1 169.65 Q24.15 170.0 24.15 170.55 24.15 171.1 23.1 171.5 L22.4 171.7 Q22.05 170.7 21.05 169.75 L20.55 169.25 M29.25 174.85 L33.25 170.6 34.5 169.25 35.25 169.5 35.45 170.85 34.1 172.1 29.85 176.0 28.0 177.65 27.4 176.8 29.25 174.85" fill="#844317" fill-rule="evenodd" stroke="none"/>
  </g>
</svg>
