<?xml version="1.0" encoding="UTF-8" standalone="no"?>
<svg xmlns:ffdec="https://www.free-decompiler.com/flash" xmlns:xlink="http://www.w3.org/1999/xlink" ffdec:objectType="shape" height="5.55px" width="30.3px" xmlns="http://www.w3.org/2000/svg">
  <g transform="matrix(1.0, 0.0, 0.0, 1.0, 24.45, 15.55)">
    <path d="M-23.55 -10.2 L-23.85 -10.0 -24.25 -10.1 -24.45 -10.4 -24.35 -10.8 Q-19.55 -17.35 -12.55 -12.45 L-12.35 -12.1 -12.45 -11.75 -12.75 -11.55 -13.1 -11.65 Q-19.25 -15.95 -23.55 -10.2 M5.7 -10.5 L5.35 -10.4 Q5.1 -10.4 5.0 -10.55 -1.0 -17.0 -8.25 -12.95 L-8.6 -12.9 -8.9 -13.15 -8.95 -13.5 -8.75 -13.8 Q-0.8 -18.3 5.75 -11.25 L5.85 -10.85 5.7 -10.5" fill="#2f1e13" fill-rule="evenodd" stroke="none"/>
  </g>
</svg>
