<?xml version="1.0" encoding="UTF-8" standalone="no"?>
<svg xmlns:ffdec="https://www.free-decompiler.com/flash" xmlns:xlink="http://www.w3.org/1999/xlink" ffdec:objectType="shape" height="184.4px" width="61.9px" xmlns="http://www.w3.org/2000/svg">
  <g transform="matrix(1.0, 0.0, 0.0, 1.0, -1.15, -1.5)">
    <path d="M51.2 39.4 Q55.7 39.45 56.35 40.1 L56.5 38.2 Q56.5 36.8 52.45 28.85 L48.4 21.05 48.8 18.25 49.15 15.4 Q49.15 11.75 44.3 8.65 40.1 5.95 37.1 5.95 30.55 5.95 23.05 10.35 17.55 13.55 13.3 17.9 L15.05 22.55 14.6 23.05 13.8 22.8 13.5 23.7 13.8 23.85 11.7 25.85 Q10.4 27.4 10.4 29.15 L8.65 35.65 Q6.9 41.55 6.9 43.3 L7.5 45.2 8.05 47.55 7.55 49.5 6.65 52.35 Q6.75 53.15 7.65 52.8 L9.6 51.75 13.0 50.75 16.8 50.65 19.5 50.8 28.05 52.5 29.25 53.0 28.7 54.0 Q22.9 52.1 15.35 52.1 7.75 52.1 4.8 59.05 2.5 58.7 1.8 55.7 1.05 52.7 1.2 51.9 1.35 51.05 2.45 47.8 L3.5 44.05 2.7 40.4 Q2.25 38.4 4.15 36.25 6.0 34.1 6.0 33.45 L5.65 31.35 Q5.25 29.75 5.15 28.55 5.05 27.3 6.25 26.05 7.45 24.8 8.45 21.95 9.4 19.1 9.55 17.6 9.65 16.05 10.9 14.55 L13.55 11.35 Q16.15 8.1 18.3 6.8 20.55 5.4 28.65 1.7 L32.9 2.25 34.75 1.9 36.85 1.5 Q40.05 1.5 45.5 4.25 50.95 7.0 52.85 12.3 54.45 16.95 56.3 19.75 L52.45 20.7 54.5 23.5 55.25 23.6 57.9 22.1 Q58.8 23.65 58.65 24.4 L58.05 27.25 Q57.7 29.0 58.1 29.9 L60.3 31.4 Q61.95 32.35 61.95 34.95 61.95 36.05 61.25 38.15 60.5 40.25 61.9 43.65 63.25 47.05 63.0 48.6 L62.2 51.35 Q61.75 52.45 61.95 55.4 62.15 58.6 60.1 62.55 58.05 66.6 58.15 66.9 L58.75 69.25 Q59.2 71.25 57.95 72.55 56.7 73.85 56.8 74.2 L57.95 77.4 Q59.0 80.25 58.75 81.2 L57.7 84.05 Q56.9 85.95 56.9 87.85 56.9 89.5 57.5 91.15 58.05 92.8 58.05 94.1 L56.5 99.5 57.1 101.45 57.7 103.85 Q57.7 105.05 56.55 107.65 L56.25 108.4 56.15 108.65 56.15 108.75 56.05 109.0 56.0 109.05 Q55.65 110.15 55.8 110.85 L52.45 111.7 54.5 114.5 55.25 114.6 55.65 114.4 55.25 115.65 53.15 121.05 52.75 120.9 Q52.05 120.4 50.85 117.55 49.05 113.15 48.15 106.45 L48.05 106.45 Q48.25 94.5 48.05 88.3 L47.55 81.3 48.95 81.85 49.3 89.15 Q51.85 87.4 52.05 85.7 L51.85 79.55 Q51.85 79.0 53.05 75.95 54.2 72.9 54.2 71.5 L53.8 69.2 53.4 66.9 54.0 64.55 54.55 62.95 55.0 62.3 54.8 62.25 57.7 52.1 Q56.75 53.55 54.5 54.05 L51.0 53.9 Q49.05 53.9 47.65 51.4 46.25 48.85 46.25 45.3 L47.1 42.3 51.2 39.4 M35.7 20.75 Q37.2 21.15 38.65 22.1 42.0 24.3 42.0 27.75 42.0 29.1 40.7 30.15 39.55 31.1 37.9 31.5 L35.15 31.45 34.3 31.4 34.15 31.35 34.05 31.35 33.9 31.35 33.35 31.0 33.65 30.3 35.65 30.75 Q37.55 30.75 38.9 29.4 40.25 28.05 40.25 26.15 40.25 24.25 38.9 22.9 37.55 21.55 35.65 21.55 33.75 21.55 32.4 22.9 31.05 24.25 31.05 26.15 31.05 28.05 32.4 29.4 L33.35 30.15 32.7 30.6 31.15 29.7 Q30.85 29.25 30.1 26.7 29.35 24.2 29.35 23.65 30.0 21.9 31.2 21.05 32.2 20.35 33.25 20.35 L34.75 20.5 34.8 20.65 35.7 20.75 M45.1 65.15 L46.2 68.75 48.35 77.6 48.65 79.25 47.95 78.65 47.3 79.15 Q46.6 74.35 45.35 70.7 41.4 59.0 30.55 54.65 L31.3 53.8 32.65 54.35 34.5 55.3 Q36.55 56.2 42.05 60.95 L42.15 61.05 45.1 65.15 M57.45 50.6 L57.6 50.3 58.2 48.85 Q58.6 48.35 58.6 47.35 58.6 43.7 56.3 41.9 54.8 40.75 53.15 40.75 50.85 40.75 49.35 41.95 47.75 43.2 47.75 45.35 47.75 48.55 49.2 50.6 50.75 52.75 53.25 52.75 L56.55 51.15 57.4 50.65 57.45 50.65 57.45 50.6 M18.2 78.6 L18.1 77.05 Q18.1 72.3 21.5 68.95 24.85 65.55 29.6 65.55 34.35 65.55 37.75 68.95 L39.05 70.45 39.4 70.95 37.6 69.25 37.5 69.3 Q34.95 67.05 30.95 67.05 L26.65 67.5 24.05 68.35 Q19.3 71.3 19.3 76.05 L20.55 78.25 18.2 78.6 M40.65 73.75 Q41.1 75.3 41.1 77.05 41.1 81.8 37.75 85.2 34.35 88.55 29.6 88.55 24.85 88.55 21.5 85.2 19.45 83.15 18.65 80.65 L20.6 80.85 22.15 80.75 Q24.65 84.35 26.55 85.9 L27.7 86.25 28.0 86.65 28.3 86.4 29.45 86.75 Q33.45 86.75 36.3 84.65 39.1 82.55 39.1 79.55 39.75 76.0 39.7 73.25 L40.65 73.75 M51.65 97.95 L53.2 93.95 52.8 93.1 51.65 91.45 Q47.65 94.5 48.5 102.6 48.95 106.45 50.9 112.8 L51.25 111.95 52.45 107.9 Q53.0 106.0 53.0 104.55 L52.35 100.8 51.65 97.95 M44.25 111.7 Q44.15 110.3 43.45 108.9 L42.25 107.15 39.1 107.3 39.65 105.4 40.2 105.35 40.3 105.35 Q42.6 105.35 44.2 107.3 45.8 109.25 45.8 112.0 45.8 114.75 44.2 116.7 42.6 118.65 40.3 118.65 38.0 118.65 36.4 116.7 34.8 114.75 34.8 112.0 L34.8 111.65 36.4 111.75 36.3 113.5 Q36.3 114.95 36.95 115.6 37.55 116.25 39.5 117.1 L41.2 117.15 Q42.45 117.15 43.35 115.55 44.25 113.95 44.25 111.7 M35.05 110.05 Q35.4 108.5 36.4 107.3 37.3 106.2 38.4 105.75 L35.05 110.05 M32.1 122.05 L28.3 115.85 22.35 110.8 22.25 112.45 Q22.25 113.85 23.6 116.3 L22.75 119.45 Q21.85 122.65 21.85 123.5 21.85 126.4 23.4 127.55 24.0 128.05 26.55 128.85 24.25 132.4 22.3 134.55 L20.9 136.0 21.25 138.6 16.7 136.05 17.2 134.15 Q17.95 131.85 17.9 130.75 L17.35 127.7 Q16.85 125.7 17.2 124.45 L18.6 117.75 21.65 119.6 22.65 118.65 18.65 115.6 Q17.2 109.95 17.2 109.2 L17.35 106.65 Q26.25 108.1 33.8 120.85 L32.1 122.05 M21.65 140.7 L21.8 141.6 22.65 146.45 21.85 150.85 Q22.15 153.0 23.75 154.8 25.15 156.45 25.15 157.5 L24.2 160.5 Q23.2 163.65 23.2 165.1 L26.25 170.3 24.6 173.65 Q24.6 174.75 26.85 176.65 L27.85 177.4 28.0 177.65 28.1 177.6 29.65 178.7 29.95 177.8 29.95 176.1 29.95 175.9 31.65 174.35 31.4 177.2 Q31.15 180.8 27.3 182.9 23.45 179.65 22.7 175.0 L22.0 171.75 23.1 171.5 Q24.15 171.1 24.15 170.55 24.15 170.0 23.1 169.65 L20.6 169.25 Q20.05 168.65 19.8 167.7 19.45 166.4 19.65 164.95 19.8 163.7 18.55 159.65 L19.55 160.0 20.15 159.45 20.2 158.45 19.15 157.6 17.9 157.6 17.55 156.45 16.6 150.35 Q16.85 147.7 17.65 145.85 L18.4 143.85 17.35 139.8 21.65 140.7 M32.8 123.25 L33.8 120.9 34.45 122.0 Q41.4 134.35 41.4 143.9 41.4 145.55 39.4 151.55 L36.15 160.5 34.6 160.7 35.65 157.55 Q38.25 150.7 38.25 150.0 39.85 147.15 39.85 143.4 L39.4 137.85 36.85 130.55 32.8 123.25 M34.4 161.35 L35.55 161.95 33.55 166.7 Q32.6 168.9 32.05 171.9 L30.2 173.85 31.85 168.9 34.4 161.35 M49.05 172.9 L49.0 174.2 Q48.85 177.05 47.75 180.05 46.6 183.05 42.9 185.9 40.65 183.2 40.2 182.2 L39.5 179.75 38.7 176.1 38.35 173.55 Q38.35 168.45 40.75 164.75 L41.35 165.1 41.8 164.3 41.35 163.85 41.5 163.65 44.6 160.65 Q44.6 160.05 45.35 160.05 46.85 160.0 47.45 161.05 48.05 162.05 48.6 166.7 L48.95 170.5 47.95 169.65 45.85 171.25 Q46.2 167.8 46.45 167.35 L45.25 162.0 43.5 163.15 40.8 167.15 Q39.55 170.45 40.5 176.95 40.9 177.7 41.3 179.7 L42.0 182.3 42.45 181.65 Q44.75 179.2 45.6 173.45 L45.8 171.55 49.05 172.9" fill="#4d3507" fill-rule="evenodd" stroke="none"/>
    <path d="M14.6 23.05 L15.05 22.55 13.3 17.9 Q17.55 13.55 23.05 10.35 30.55 5.95 37.1 5.95 40.1 5.95 44.3 8.65 49.15 11.75 49.15 15.4 L48.8 18.25 48.4 21.05 52.45 28.85 Q56.5 36.8 56.5 38.2 L56.35 40.1 Q55.7 39.45 51.2 39.4 L51.35 38.05 49.45 33.9 51.65 35.6 52.3 33.25 52.1 32.7 48.0 30.75 47.3 29.2 Q43.25 20.1 43.2 15.1 L42.95 11.35 Q42.05 8.5 38.45 8.5 31.5 8.5 25.85 13.05 L25.25 11.65 22.8 12.5 24.3 14.45 Q22.1 16.5 20.15 19.3 18.6 21.5 17.4 23.9 L14.6 23.05 M47.1 42.3 L46.25 45.3 Q44.9 44.75 43.3 43.35 41.85 42.0 41.65 41.35 L41.7 40.75 41.7 40.9 44.65 40.65 47.1 42.3 M51.0 53.9 L54.5 54.05 Q56.75 53.55 57.7 52.1 L54.8 62.25 52.3 61.45 49.05 68.0 48.5 66.4 Q48.5 65.25 49.25 62.35 50.3 58.3 51.0 53.9 M54.55 62.95 L54.0 64.55 53.4 66.9 53.8 69.2 54.2 71.5 Q54.2 72.9 53.05 75.95 51.85 79.0 51.85 79.55 L52.05 85.7 Q51.85 87.4 49.3 89.15 L48.95 81.85 51.3 82.8 51.3 81.5 48.65 79.25 48.35 77.6 50.3 72.3 49.6 69.8 54.55 62.95 M9.6 51.75 L7.65 52.8 Q6.75 53.15 6.65 52.35 L7.55 49.5 8.05 47.55 7.5 45.2 6.9 43.3 Q6.9 41.55 8.65 35.65 L10.4 29.15 Q10.4 27.4 11.7 25.85 L13.8 23.85 16.6 25.55 15.85 27.25 Q14.45 30.75 14.45 32.1 L14.85 33.95 15.25 35.75 Q15.25 36.75 13.3 39.5 11.35 42.25 11.35 44.1 L11.15 45.15 Q10.6 46.9 9.6 51.75 M24.05 68.35 L26.65 67.5 26.35 68.35 Q26.25 68.65 25.65 68.65 L24.05 68.35 M51.65 97.95 L52.35 100.8 53.0 104.55 Q53.0 106.0 52.45 107.9 L51.25 111.95 50.9 112.8 Q48.95 106.45 48.5 102.6 47.65 94.5 51.65 91.45 L52.8 93.1 53.2 93.95 51.65 97.95 M28.3 115.85 L27.0 119.1 26.6 120.35 Q26.6 123.7 28.75 124.5 L26.25 126.3 31.05 127.25 32.05 124.95 32.2 124.95 Q33.25 125.3 33.25 126.75 33.25 129.3 29.85 131.55 25.65 134.3 24.35 136.9 L25.2 143.2 24.35 149.7 Q24.35 150.45 26.85 151.3 L30.6 152.4 30.7 152.8 28.7 154.8 Q26.8 156.55 26.8 157.5 L26.9 158.3 27.15 158.7 28.5 158.95 29.75 158.55 31.35 158.2 33.5 158.25 33.6 158.3 33.65 158.1 33.7 158.65 Q33.7 160.55 31.75 161.55 27.45 163.8 26.45 164.55 L29.05 167.05 Q29.95 167.95 29.95 168.6 L29.45 170.85 Q28.95 172.6 28.95 173.1 L29.15 174.4 29.35 174.8 27.4 176.8 27.85 177.4 26.85 176.65 Q24.6 174.75 24.6 173.65 L26.25 170.3 23.2 165.1 Q23.2 163.65 24.2 160.5 L25.15 157.5 Q25.15 156.45 23.75 154.8 22.15 153.0 21.85 150.85 L22.65 146.45 21.8 141.6 21.65 140.7 22.5 140.85 23.25 140.2 22.5 139.25 21.25 138.6 20.9 136.0 22.3 134.55 Q24.25 132.4 26.55 128.85 24.0 128.05 23.4 127.55 21.85 126.4 21.85 123.5 21.85 122.65 22.75 119.45 L23.6 116.3 Q22.25 113.85 22.25 112.45 L22.35 110.8 28.3 115.85 M29.95 176.1 L29.95 177.8 29.65 178.7 28.1 177.6 29.9 175.95 29.95 176.1 M45.8 171.55 L45.6 173.45 Q44.75 179.2 42.45 181.65 L42.0 182.3 41.3 179.7 Q40.9 177.7 40.5 176.95 44.05 168.1 43.5 163.15 L45.25 162.0 46.45 167.35 Q46.2 167.8 45.85 171.25 L45.55 171.45 45.8 171.55" fill="#704e0f" fill-rule="evenodd" stroke="none"/>
    <path d="M51.2 39.4 L47.1 42.3 44.65 40.65 41.7 40.9 41.7 40.75 41.65 41.35 Q41.85 42.0 43.3 43.35 44.9 44.75 46.25 45.3 46.25 48.85 47.65 51.4 49.05 53.9 51.0 53.9 50.3 58.3 49.25 62.35 48.5 65.25 48.5 66.4 L49.05 68.0 48.45 69.15 48.9 69.75 49.6 69.8 50.3 72.3 48.35 77.6 46.2 68.75 45.1 65.15 Q48.05 57.35 48.05 55.2 48.05 50.5 42.95 46.75 L39.4 43.9 Q37.8 42.15 37.8 39.9 37.8 38.75 41.4 36.6 44.95 34.45 44.95 32.65 43.4 28.05 41.35 23.5 39.85 20.15 38.55 18.05 L40.3 12.3 37.25 16.25 Q35.8 14.5 34.7 14.5 27.5 14.5 24.0 23.4 L22.6 27.6 18.0 24.1 17.4 23.9 Q18.6 21.5 20.15 19.3 22.1 16.5 24.3 14.45 L26.25 17.05 27.15 16.95 27.25 16.25 25.85 13.05 Q31.5 8.5 38.45 8.5 42.05 8.5 42.95 11.35 L43.2 15.1 Q43.25 20.1 47.3 29.2 L48.0 30.75 45.2 29.4 44.75 30.35 49.45 33.9 51.35 38.05 51.2 39.4 M19.5 50.8 L16.8 50.65 16.75 48.7 19.2 49.2 19.5 50.8 M13.0 50.75 L9.6 51.75 Q10.6 46.9 11.15 45.15 L11.35 44.1 Q11.35 42.25 13.3 39.5 15.25 36.75 15.25 35.75 L14.85 33.95 14.45 32.1 Q14.45 30.75 15.85 27.25 L16.6 25.55 21.65 28.6 22.55 27.8 Q20.75 33.7 18.3 44.4 L18.65 46.1 15.95 44.65 Q15.45 43.45 14.85 43.55 14.05 43.65 13.55 45.8 13.0 47.95 13.0 50.75 M20.55 78.25 L19.3 76.05 Q19.3 71.3 24.05 68.35 L25.65 68.65 Q26.25 68.65 26.35 68.35 L26.65 67.5 30.95 67.05 Q34.95 67.05 37.5 69.3 L36.3 69.45 35.4 69.25 34.35 69.75 33.5 69.85 33.75 70.0 22.95 75.15 26.55 85.9 Q24.65 84.35 22.15 80.75 L23.1 80.5 Q24.15 80.1 24.15 79.55 24.15 79.0 23.1 78.65 L20.6 78.25 20.55 78.25 M44.25 111.7 Q44.25 113.95 43.35 115.55 42.45 117.15 41.2 117.15 41.4 115.65 42.75 113.7 L44.25 111.7 M28.75 124.5 Q26.6 123.7 26.6 120.35 L27.0 119.1 28.3 115.85 32.1 122.05 28.75 124.5 M29.35 174.8 L29.15 174.4 28.95 173.1 Q28.95 172.6 29.45 170.85 L29.95 168.6 Q29.95 167.95 29.05 167.05 L26.45 164.55 Q27.45 163.8 31.75 161.55 33.7 160.55 33.7 158.65 L33.65 158.1 33.6 158.3 33.5 158.25 31.35 158.2 29.75 158.55 28.5 158.95 27.15 158.7 26.9 158.3 26.8 157.5 Q26.8 156.55 28.7 154.8 L30.7 152.8 30.6 152.4 26.85 151.3 Q24.35 150.45 24.35 149.7 L25.2 143.2 24.35 136.9 Q25.65 134.3 29.85 131.55 33.25 129.3 33.25 126.75 33.25 125.3 32.2 124.95 L32.05 124.95 32.8 123.25 36.85 130.55 Q34.2 133.95 30.6 137.35 28.35 140.05 28.35 144.8 L28.4 145.5 26.2 149.2 27.0 149.6 28.9 147.5 Q29.6 149.05 31.35 149.8 34.3 151.15 34.3 152.35 34.3 152.75 31.5 155.35 32.05 156.1 33.25 156.6 L35.65 157.55 34.6 160.7 33.5 160.85 34.4 161.35 31.85 168.9 30.2 173.85 29.35 174.8 M39.4 137.85 L39.85 143.4 Q39.85 147.15 38.25 150.0 L37.4 148.15 Q37.15 147.65 37.15 144.95 37.15 143.95 37.4 143.3 L39.4 137.85 M29.95 175.9 L29.95 176.1 29.9 175.95 29.95 175.9 M40.5 176.95 Q39.55 170.45 40.8 167.15 L43.5 163.15 Q44.05 168.1 40.5 176.95" fill="#ab7913" fill-rule="evenodd" stroke="none"/>
    <path d="M28.05 52.5 L19.5 50.8 19.2 49.2 22.5 49.85 23.25 49.2 22.5 48.25 18.65 46.1 18.3 44.4 Q20.75 33.7 22.55 27.8 L22.65 27.65 22.6 27.6 24.0 23.4 Q27.5 14.5 34.7 14.5 35.8 14.5 37.25 16.25 L34.5 19.7 34.75 20.5 33.25 20.35 Q32.2 20.35 31.2 21.05 30.0 21.9 29.35 23.65 L28.95 24.5 Q28.6 25.3 28.6 25.9 28.6 26.35 28.9 26.85 L31.15 29.7 32.7 30.6 28.8 33.45 Q27.15 33.85 25.9 35.35 24.2 37.4 24.2 40.3 24.2 43.2 25.9 45.25 27.6 47.3 30.0 47.3 32.4 47.3 34.1 45.25 35.8 43.2 35.8 40.3 35.8 37.4 34.1 35.35 33.2 34.3 32.15 33.8 L33.35 31.0 33.9 31.35 34.05 31.35 34.15 31.35 34.3 31.4 37.9 31.5 Q39.55 31.1 40.7 30.15 42.0 29.1 42.0 27.75 42.0 24.3 38.65 22.1 37.2 21.15 35.7 20.75 L37.65 20.85 38.55 18.05 Q39.85 20.15 41.35 23.5 43.4 28.05 44.95 32.65 44.95 34.45 41.4 36.6 37.8 38.75 37.8 39.9 37.8 42.15 39.4 43.9 L42.95 46.75 Q48.05 50.5 48.05 55.2 48.05 57.35 45.1 65.15 L42.15 61.05 42.1 56.2 Q41.85 50.55 40.6 47.1 39.3 43.65 37.75 44.5 36.2 45.3 34.5 55.3 L32.65 54.35 31.55 53.6 34.75 50.0 31.8 48.65 29.45 52.7 28.05 52.5 M16.8 50.65 L13.0 50.75 Q13.0 47.95 13.55 45.8 14.05 43.65 14.85 43.55 15.45 43.45 15.95 44.65 L15.8 44.55 13.8 47.05 13.8 48.1 16.75 48.7 16.8 50.65 M34.35 69.75 L35.4 69.25 36.3 69.45 34.35 69.75 M33.75 70.0 L39.7 73.25 Q39.75 76.0 39.1 79.55 38.75 78.4 37.6 77.0 L37.0 77.25 35.0 78.4 Q35.65 76.6 34.0 75.55 32.85 74.8 31.75 74.8 31.1 74.8 29.9 76.2 28.2 78.3 28.2 81.8 L28.85 84.3 27.4 85.8 27.7 86.25 26.55 85.9 22.95 75.15 33.75 70.0 M29.15 85.6 L29.45 86.75 28.3 86.4 29.15 85.6 M42.25 107.15 L43.45 108.9 Q44.15 110.3 44.25 111.7 L42.75 113.7 Q41.4 115.65 41.2 117.15 L39.5 117.1 41.05 112.4 Q42.25 108.8 42.25 107.15 M36.85 130.55 L39.4 137.85 37.4 143.3 Q37.15 143.95 37.15 144.95 37.15 147.65 37.4 148.15 L38.25 150.0 Q38.25 150.7 35.65 157.55 L33.25 156.6 Q32.05 156.1 31.5 155.35 34.3 152.75 34.3 152.35 34.3 151.15 31.35 149.8 29.6 149.05 28.9 147.5 L31.6 144.5 Q32.25 145.4 33.15 145.4 34.15 145.4 34.85 144.25 35.55 143.05 35.55 141.35 35.55 139.65 34.85 138.5 34.15 137.3 33.15 137.3 32.15 137.3 31.45 138.5 30.75 139.65 30.75 141.35 L30.75 141.45 28.4 145.5 28.35 144.8 Q28.35 140.05 30.6 137.35 34.2 133.95 36.85 130.55" fill="#cf8e15" fill-rule="evenodd" stroke="none"/>
    <path d="M29.25 53.0 L28.05 52.5 29.45 52.7 29.25 53.0 M29.35 23.65 Q29.35 24.2 30.1 26.7 30.85 29.25 31.15 29.7 L28.9 26.85 Q28.6 26.35 28.6 25.9 28.6 25.3 28.95 24.5 L29.35 23.65 M34.3 31.4 L35.15 31.45 37.9 31.5 34.3 31.4 M32.15 33.8 Q33.2 34.3 34.1 35.35 35.8 37.4 35.8 40.3 35.8 43.2 34.1 45.25 32.4 47.3 30.0 47.3 27.6 47.3 25.9 45.25 24.2 43.2 24.2 40.3 24.2 37.4 25.9 35.35 27.15 33.85 28.8 33.45 L26.25 35.3 31.05 36.25 32.15 33.8 M31.3 53.8 L31.55 53.6 32.65 54.35 31.3 53.8 M34.5 55.3 Q36.2 45.3 37.75 44.5 39.3 43.65 40.6 47.1 41.85 50.55 42.1 56.2 L42.15 61.05 42.05 60.95 Q36.55 56.2 34.5 55.3 M29.15 85.6 L35.45 79.85 35.25 78.5 34.5 78.25 28.85 84.3 28.2 81.8 Q28.2 78.3 29.9 76.2 31.1 74.8 31.75 74.8 32.85 74.8 34.0 75.55 35.65 76.6 35.0 78.4 L37.0 77.25 37.6 77.0 Q38.75 78.4 39.1 79.55 39.1 82.55 36.3 84.65 33.45 86.75 29.45 86.75 L29.15 85.6 M39.5 117.1 Q37.55 116.25 36.95 115.6 36.3 114.95 36.3 113.5 L36.4 111.75 37.65 111.85 39.1 107.3 42.25 107.15 Q42.25 108.8 41.05 112.4 L39.5 117.1 M30.75 141.45 L30.75 141.35 Q30.75 139.65 31.45 138.5 32.15 137.3 33.15 137.3 34.15 137.3 34.85 138.5 35.55 139.65 35.55 141.35 35.55 143.05 34.85 144.25 34.15 145.4 33.15 145.4 32.25 145.4 31.6 144.5 L34.75 141.0 31.8 139.65 30.75 141.45" fill="#f5b438" fill-rule="evenodd" stroke="none"/>
    <path d="M54.8 62.25 L55.0 62.3 54.55 62.95 49.6 69.8 48.9 69.75 48.45 69.15 49.05 68.0 52.3 61.45 54.8 62.25 M48.95 81.85 L47.55 81.3 47.3 79.15 47.95 78.65 48.65 79.25 51.3 81.5 51.3 82.8 48.95 81.85 M55.65 114.4 L55.25 114.6 54.5 114.5 52.45 111.7 55.8 110.85 55.9 111.2 Q56.25 112.05 55.65 114.4 M57.9 22.1 L55.25 23.6 54.5 23.5 52.45 20.7 56.3 19.75 56.8 20.45 57.9 22.1 M28.7 54.0 L29.25 53.0 29.45 52.7 31.8 48.65 34.75 50.0 31.55 53.6 31.3 53.8 30.55 54.65 28.7 54.0 M13.8 23.85 L13.5 23.7 13.8 22.8 14.6 23.05 17.4 23.9 18.0 24.1 22.6 27.6 22.65 27.65 22.55 27.8 21.65 28.6 16.6 25.55 13.8 23.85 M24.3 14.45 L22.8 12.5 25.25 11.65 25.85 13.05 27.25 16.25 27.15 16.95 26.25 17.05 24.3 14.45 M48.0 30.75 L52.1 32.7 52.3 33.25 51.65 35.6 49.45 33.9 44.75 30.35 45.2 29.4 48.0 30.75 M35.7 20.75 L34.8 20.65 34.75 20.5 34.5 19.7 37.25 16.25 40.3 12.3 38.55 18.05 37.65 20.85 35.7 20.75 M32.7 30.6 L33.35 30.15 33.65 30.3 33.35 31.0 32.15 33.8 31.05 36.25 26.25 35.3 28.8 33.45 32.7 30.6 M57.4 50.65 L57.45 50.6 57.45 50.65 57.4 50.65 M18.65 46.1 L22.5 48.25 23.25 49.2 22.5 49.85 19.2 49.2 16.75 48.7 13.8 48.1 13.8 47.05 15.8 44.55 15.95 44.65 18.65 46.1 M18.2 78.6 L20.55 78.25 20.6 78.25 23.1 78.65 Q24.15 79.0 24.15 79.55 24.15 80.1 23.1 80.5 L22.15 80.75 20.6 80.85 18.65 80.65 18.2 78.6 M37.5 69.3 L37.6 69.25 39.4 70.95 Q40.2 72.25 40.65 73.75 L39.7 73.25 33.75 70.0 33.5 69.85 34.35 69.75 36.3 69.45 37.5 69.3 M28.85 84.3 L34.5 78.25 35.25 78.5 35.45 79.85 29.15 85.6 28.3 86.4 28.0 86.65 27.7 86.25 27.4 85.8 28.85 84.3 M36.4 111.75 L34.8 111.65 Q34.85 110.8 35.05 110.05 L38.4 105.75 39.65 105.4 39.1 107.3 37.65 111.85 36.4 111.75 M28.75 124.5 L32.1 122.05 33.8 120.85 33.8 120.9 32.8 123.25 32.05 124.95 31.05 127.25 26.25 126.3 28.75 124.5 M21.25 138.6 L22.5 139.25 23.25 140.2 22.5 140.85 21.65 140.7 17.35 139.8 16.65 137.25 16.7 136.05 21.25 138.6 M27.85 177.4 L27.4 176.8 29.35 174.8 30.2 173.85 32.05 171.9 31.65 174.35 29.95 175.9 29.9 175.95 28.1 177.6 28.0 177.65 27.85 177.4 M18.65 115.6 L22.65 118.65 21.65 119.6 18.6 117.75 18.85 116.35 18.65 115.6 M34.6 160.7 L36.15 160.5 35.55 161.95 34.4 161.35 33.5 160.85 34.6 160.7 M28.4 145.5 L30.75 141.45 31.8 139.65 34.75 141.0 31.6 144.5 28.9 147.5 27.0 149.6 26.2 149.2 28.4 145.5 M20.6 169.25 L23.1 169.65 Q24.15 170.0 24.15 170.55 24.15 171.1 23.1 171.5 L22.0 171.75 Q21.55 170.05 21.05 169.7 L20.6 169.25 M18.55 159.65 L18.1 158.25 17.9 157.6 19.15 157.6 20.2 158.45 20.15 159.45 19.55 160.0 18.55 159.65 M40.75 164.75 L41.35 163.85 41.8 164.3 41.35 165.1 40.75 164.75 M48.95 170.5 L49.05 172.9 45.8 171.55 45.55 171.45 45.85 171.25 47.95 169.65 48.95 170.5" fill="#844317" fill-rule="evenodd" stroke="none"/>
  </g>
</svg>
