<?xml version="1.0" encoding="UTF-8" standalone="no"?>
<svg xmlns:ffdec="https://www.free-decompiler.com/flash" xmlns:xlink="http://www.w3.org/1999/xlink" ffdec:objectType="shape" height="187.05px" width="61.4px" xmlns="http://www.w3.org/2000/svg">
  <g transform="matrix(1.0, 0.0, 0.0, 1.0, -1.35, -1.5)">
    <path d="M41.55 155.9 L41.6 156.15 41.55 156.55 41.55 155.9" fill="#69491b" fill-rule="evenodd" stroke="none"/>
    <path d="M56.95 50.0 L56.5 49.35 Q55.35 47.65 55.35 46.2 56.5 40.05 56.5 37.75 56.5 35.95 56.2 35.05 L55.4 33.7 Q53.95 31.9 53.25 28.2 52.65 25.0 50.4 23.8 L49.0 22.9 Q48.4 22.3 48.4 21.05 48.4 20.15 48.75 18.3 49.15 16.45 49.15 15.2 49.15 14.35 48.5 13.6 L46.95 12.1 Q44.3 9.6 43.05 6.05 40.7 6.45 35.95 6.15 L30.2 6.5 Q28.8 6.95 27.05 8.35 25.6 9.55 23.4 9.85 20.45 10.3 19.95 10.8 L18.85 13.7 Q18.65 14.25 15.9 15.6 13.3 16.9 13.3 17.9 13.3 18.4 14.2 19.95 15.05 21.45 15.05 22.35 L14.9 23.15 13.8 22.8 13.5 23.7 14.2 24.1 12.7 25.1 Q10.4 26.65 10.4 28.85 L10.8 34.05 Q10.8 35.05 8.85 39.25 L6.9 43.3 7.5 45.3 Q8.05 46.7 8.05 47.3 8.05 50.4 7.35 51.4 L6.85 51.9 6.65 52.35 Q6.65 55.05 9.35 56.8 L11.2 58.1 Q12.1 58.85 12.1 59.9 12.1 60.95 11.25 62.4 10.4 63.9 10.4 65.25 10.4 67.85 12.45 69.75 L13.8 71.15 Q14.45 72.05 14.45 73.25 L14.05 74.85 Q13.7 75.85 13.7 76.15 13.7 78.4 14.1 79.15 L15.05 80.0 Q16.75 81.0 17.5 86.45 17.6 87.35 19.1 88.8 20.5 90.2 20.65 92.15 20.95 96.5 21.45 98.4 22.05 100.4 23.2 100.4 L24.0 100.1 24.15 103.05 22.8 103.5 24.1 105.25 Q23.9 106.45 23.25 107.5 22.25 109.0 22.25 112.45 22.25 113.1 22.9 114.65 L23.6 116.45 Q23.6 118.05 22.7 120.05 21.85 122.0 21.85 123.5 21.85 125.35 22.4 126.55 23.2 128.4 25.05 128.4 L26.45 128.15 26.5 128.25 26.55 128.85 Q26.55 130.45 23.7 132.85 20.9 135.2 20.9 136.0 L21.15 138.5 16.95 136.2 Q17.1 134.75 17.7 133.1 L18.55 131.15 Q18.55 129.3 17.8 127.6 L17.0 125.9 Q17.0 124.95 17.95 121.35 L18.7 117.85 21.65 119.6 22.65 118.65 18.85 115.75 18.05 112.4 Q17.2 110.1 17.2 109.2 17.2 107.05 17.7 103.7 L18.2 100.25 16.8 95.45 Q14.8 89.55 12.05 84.05 10.45 80.85 8.25 73.7 6.2 67.2 6.2 66.25 L6.4 64.75 6.6 63.2 Q6.6 61.5 5.75 60.25 L4.0 58.2 Q1.35 55.5 1.35 51.7 1.35 50.5 2.45 48.3 3.5 46.05 3.5 44.05 L3.1 42.35 2.7 40.4 Q2.7 38.45 4.4 36.9 6.0 35.4 6.0 33.65 L5.65 31.35 5.25 29.25 Q5.25 28.05 5.75 27.15 L7.05 25.5 Q9.05 23.05 9.6 19.2 L9.85 16.95 10.25 15.7 15.05 9.7 Q17.05 7.25 19.4 6.15 L22.55 5.05 Q24.65 4.15 26.6 2.7 28.05 1.7 28.65 1.7 L33.0 2.25 36.85 1.5 Q39.6 1.5 44.75 4.4 50.2 7.55 51.65 10.5 52.6 14.65 55.7 19.45 L55.95 19.8 52.45 20.7 54.5 23.5 55.25 23.6 57.5 22.3 57.65 22.55 Q58.45 24.0 58.45 24.95 L58.15 26.6 57.9 29.3 Q57.9 29.85 58.55 30.4 L59.9 31.25 Q61.95 32.65 61.95 34.95 61.95 35.95 61.0 37.7 60.0 39.5 60.0 40.55 L61.4 43.0 Q62.75 45.6 62.75 48.15 62.75 48.8 62.15 50.25 61.55 51.7 61.55 52.2 L61.8 54.1 61.95 55.95 Q61.95 58.4 61.0 60.4 58.65 65.1 58.05 66.65 L58.5 70.2 57.55 72.2 Q56.7 73.95 56.7 74.4 56.7 75.0 57.6 77.1 58.45 79.1 58.45 80.95 L57.7 83.65 Q56.9 86.55 56.9 87.85 56.9 89.6 58.05 93.9 L57.3 96.45 Q56.5 98.45 56.5 99.5 L57.1 101.45 Q57.7 103.0 57.7 104.15 57.7 105.25 56.5 107.2 55.35 109.2 55.35 109.8 L55.35 109.9 55.5 110.95 52.45 111.7 54.5 114.5 55.25 114.6 55.5 114.45 54.55 116.6 Q53.25 119.25 53.1 121.45 52.8 125.45 51.9 126.85 L51.3 127.6 Q51.05 127.95 51.05 128.5 L51.85 129.95 Q52.6 131.55 52.6 132.85 52.6 134.15 51.1 135.65 49.65 137.2 49.65 137.85 49.65 138.95 49.9 139.45 L50.2 139.95 Q50.2 141.3 48.9 144.5 47.55 147.65 47.55 148.0 L47.85 149.35 48.15 151.6 47.45 155.85 46.75 158.7 Q46.75 159.9 47.65 162.05 48.5 164.15 48.5 165.8 L48.1 169.75 47.95 169.65 46.2 171.0 46.1 168.35 45.9 167.5 45.75 167.0 46.45 167.35 46.35 166.9 45.05 160.95 Q44.05 155.6 44.05 153.05 44.05 150.55 44.95 148.25 L45.8 146.25 Q44.7 143.65 44.7 143.2 44.7 141.35 45.95 135.6 L48.45 124.15 51.65 126.6 52.3 124.25 52.1 123.7 48.85 122.15 Q50.9 111.25 52.4 108.4 L52.95 106.85 53.0 101.85 Q53.0 101.05 52.35 99.5 L51.65 97.95 52.45 96.25 Q53.2 94.55 53.2 93.65 53.2 92.7 52.85 92.1 52.45 91.45 51.65 91.45 51.25 91.45 51.05 91.75 L50.45 92.55 Q49.3 94.05 46.05 95.15 47.65 90.8 50.3 87.95 51.25 86.9 51.6 86.05 52.05 84.85 52.05 82.6 L51.85 80.8 51.65 78.95 Q51.65 78.0 52.05 77.4 L52.95 76.4 Q54.2 74.9 54.2 70.95 L53.8 68.85 53.4 66.9 Q53.4 65.65 54.1 63.6 L55.0 62.3 54.6 62.2 55.55 59.85 Q57.7 55.1 57.7 51.3 L57.35 50.65 57.45 50.65 56.95 50.0 M17.45 139.85 L21.7 140.7 21.75 140.85 Q22.65 143.45 22.65 146.1 L22.25 148.75 21.85 150.85 Q21.85 152.95 23.5 154.7 25.15 156.4 25.15 157.45 L24.15 160.65 Q23.2 163.6 23.2 165.1 23.2 165.7 24.7 167.6 26.25 169.5 26.25 170.35 L25.4 171.6 Q24.6 172.95 24.6 173.65 24.6 174.65 25.55 175.4 L27.5 176.9 28.0 177.65 28.2 177.5 28.9 178.05 Q31.85 180.7 34.1 183.85 L35.15 185.0 36.7 185.25 Q40.45 185.25 43.75 179.8 L45.6 176.05 46.25 174.3 46.25 171.75 48.6 172.7 48.85 173.8 Q48.85 178.85 45.1 183.55 41.15 188.55 36.25 188.55 L31.9 188.05 Q30.4 187.45 29.5 185.9 L26.25 181.5 Q23.55 177.85 23.2 176.8 L22.8 173.3 22.6 171.65 23.1 171.5 Q24.15 171.1 24.15 170.55 24.15 170.0 23.1 169.65 L21.05 169.25 20.45 168.75 20.4 168.65 Q19.65 167.9 19.65 166.3 L19.95 163.35 18.65 159.7 19.55 160.0 20.15 159.45 20.2 158.45 19.15 157.6 17.95 157.6 Q16.85 153.95 16.85 151.95 16.85 149.8 17.6 146.65 L18.4 143.85 Q18.4 142.7 17.6 140.4 L17.45 139.85" fill="#4d3507" fill-rule="evenodd" stroke="none"/>
    <path d="M14.9 23.15 L15.05 22.35 Q15.05 21.45 14.2 19.95 13.3 18.4 13.3 17.9 13.3 16.9 15.9 15.6 18.65 14.25 18.85 13.7 L19.95 10.8 Q20.45 10.3 23.4 9.85 25.6 9.55 27.05 8.35 28.8 6.95 30.2 6.5 L35.95 6.15 Q40.7 6.45 43.05 6.05 44.3 9.6 46.95 12.1 L48.5 13.6 Q49.15 14.35 49.15 15.2 49.15 16.45 48.75 18.3 48.4 20.15 48.4 21.05 48.4 22.3 49.0 22.9 L50.4 23.8 Q52.65 25.0 53.25 28.2 53.95 31.9 55.4 33.7 L56.2 35.05 Q56.5 35.95 56.5 37.75 56.5 40.05 55.35 46.2 55.35 47.65 56.5 49.35 L56.95 50.0 54.1 46.3 51.05 45.7 50.75 48.3 57.35 50.65 57.7 51.3 Q57.7 55.1 55.55 59.85 L54.6 62.2 52.3 61.45 48.95 68.2 Q48.5 67.0 48.5 66.4 48.5 65.3 49.65 62.5 50.8 59.7 50.8 58.85 L50.5 57.85 50.2 57.05 Q50.2 56.3 50.6 55.15 L51.0 53.85 Q51.0 49.45 46.3 45.3 41.65 41.95 41.65 41.35 L41.7 41.0 41.7 40.9 44.65 40.65 46.7 42.0 Q48.5 43.35 49.35 43.35 L50.6 43.05 Q51.15 42.75 51.15 42.1 L51.25 38.4 51.35 37.35 51.15 35.2 51.65 35.6 52.3 33.25 52.1 32.7 50.0 31.7 Q49.15 29.75 47.1 26.3 44.85 22.65 44.15 21.2 42.8 18.4 42.8 16.25 L43.2 12.85 Q43.2 11.15 42.2 9.95 40.95 8.5 38.45 8.5 30.8 8.5 28.05 10.15 26.75 10.85 25.55 12.3 L25.25 11.65 22.8 12.5 24.05 14.15 22.15 16.65 21.15 17.55 20.5 17.95 Q20.05 18.55 19.95 22.3 19.9 23.45 19.15 25.0 L18.0 24.1 14.9 23.15 M54.1 63.6 Q53.4 65.65 53.4 66.9 L53.8 68.85 54.2 70.95 Q54.2 74.9 52.95 76.4 L52.05 77.4 Q51.65 78.0 51.65 78.95 L51.85 80.8 52.05 82.6 Q52.05 84.85 51.6 86.05 51.25 86.9 50.3 87.95 47.65 90.8 46.05 95.15 49.3 94.05 50.45 92.55 L51.05 91.75 Q51.25 91.45 51.65 91.45 52.45 91.45 52.85 92.1 53.2 92.7 53.2 93.65 53.2 94.55 52.45 96.25 L51.65 97.95 52.35 99.5 Q53.0 101.05 53.0 101.85 L52.95 106.85 52.4 108.4 Q50.9 111.25 48.85 122.15 L45.2 120.4 44.75 121.35 48.45 124.15 45.95 135.6 Q44.7 141.35 44.7 143.2 44.7 143.65 45.8 146.25 L44.95 148.25 Q44.05 150.55 44.05 153.05 44.05 155.6 45.05 160.95 L46.35 166.9 46.45 167.35 45.75 167.0 45.9 167.5 46.1 168.35 46.2 171.0 45.55 171.45 46.25 171.75 46.25 174.3 45.6 176.05 43.75 179.8 Q40.45 185.25 36.7 185.25 L35.15 185.0 34.1 183.85 Q31.85 180.7 28.9 178.05 L28.2 177.5 29.85 176.0 30.9 177.05 Q32.95 178.65 36.45 178.65 40.1 178.65 41.85 174.75 43.5 171.05 43.5 163.5 L42.75 157.2 41.95 150.55 42.75 146.8 Q42.75 146.4 42.45 146.3 L41.9 146.45 41.3 144.85 Q40.75 143.6 40.75 140.95 40.75 140.25 41.3 139.35 L42.5 137.55 Q44.2 134.9 44.2 131.9 L43.8 130.55 Q43.4 129.6 43.4 127.95 43.4 126.75 43.85 124.9 L44.35 123.25 44.15 122.0 43.95 120.75 Q43.95 116.4 45.95 112.55 L47.4 110.0 48.2 107.85 47.75 105.6 48.25 102.75 48.5 100.55 48.45 99.8 48.35 99.25 45.65 99.9 Q43.5 99.9 42.05 98.9 40.7 98.0 40.7 96.9 40.7 96.45 44.7 90.8 48.25 85.2 48.65 81.75 L51.3 82.8 51.3 81.5 48.5 79.1 48.35 77.75 Q48.35 76.5 49.3 74.55 L50.3 72.35 Q50.3 71.55 49.6 69.8 L54.1 63.6 M21.15 138.5 L20.9 136.0 Q20.9 135.2 23.7 132.85 26.55 130.45 26.55 128.85 L26.5 128.25 26.45 128.15 25.05 128.4 Q23.2 128.4 22.4 126.55 21.85 125.35 21.85 123.5 21.85 122.0 22.7 120.05 23.6 118.05 23.6 116.45 L22.9 114.65 Q22.25 113.1 22.25 112.45 22.25 109.0 23.25 107.5 23.9 106.45 24.1 105.25 L26.25 108.05 27.15 107.95 27.25 107.25 25.25 102.65 24.15 103.05 24.0 100.1 23.2 100.4 Q22.05 100.4 21.45 98.4 20.95 96.5 20.65 92.15 20.5 90.2 19.1 88.8 17.6 87.35 17.5 86.45 16.75 81.0 15.05 80.0 L14.1 79.15 Q13.7 78.4 13.7 76.15 13.7 75.85 14.05 74.85 L14.45 73.25 Q14.45 72.05 13.8 71.15 L12.45 69.75 Q10.4 67.85 10.4 65.25 10.4 63.9 11.25 62.4 12.1 60.95 12.1 59.9 12.1 58.85 11.2 58.1 L9.35 56.8 Q6.65 55.05 6.65 52.35 L6.85 51.9 7.35 51.4 Q8.05 50.4 8.05 47.3 8.05 46.7 7.5 45.3 L6.9 43.3 8.85 39.25 Q10.8 35.05 10.8 34.05 L10.4 28.85 Q10.4 26.65 12.7 25.1 L14.2 24.1 18.25 26.55 17.2 28.0 Q14.45 31.6 14.45 32.1 L14.85 33.8 15.25 36.1 Q15.25 37.35 13.0 39.35 10.7 41.4 10.7 42.25 10.7 42.7 11.0 42.95 11.3 43.15 11.3 44.8 L10.5 47.6 Q9.6 50.6 9.6 52.0 9.6 53.5 11.75 55.2 L16.45 58.75 23.55 63.8 Q26.65 66.1 26.65 67.3 26.65 68.25 26.05 68.55 L24.85 68.75 20.8 66.7 Q16.55 64.65 15.55 64.65 14.95 64.65 14.55 65.1 14.2 65.55 14.2 66.2 L14.25 66.6 12.3 66.55 14.4 67.25 Q14.85 68.5 16.55 69.35 L18.1 70.25 Q18.85 70.9 18.85 71.8 18.85 72.6 17.95 74.55 L17.1 76.4 Q17.1 78.0 17.8 78.75 17.05 79.1 17.05 79.55 17.05 80.1 18.1 80.5 L20.6 80.85 21.5 80.8 21.75 82.3 21.4 84.2 21.0 86.2 Q21.0 86.75 23.4 90.25 25.95 94.0 26.35 95.5 27.15 98.5 28.5 100.35 30.05 102.4 31.85 102.4 L32.45 102.2 33.05 101.95 33.9 102.75 Q31.75 105.25 28.7 107.15 27.6 107.8 27.25 108.2 26.75 108.75 26.75 109.7 26.75 111.4 27.65 113.25 L28.55 114.8 Q28.55 115.4 27.6 117.4 26.6 119.35 26.6 120.35 26.6 122.95 27.6 123.95 L28.75 124.5 26.25 126.3 31.05 127.25 32.15 124.8 Q33.25 125.2 33.25 126.75 33.25 128.35 31.85 129.8 30.95 130.7 28.8 132.1 L25.75 134.3 Q24.35 135.6 24.35 136.9 24.35 138.25 24.8 140.55 L25.2 143.2 24.8 146.15 Q24.35 148.65 24.35 149.7 24.35 151.25 27.55 151.75 L29.7 152.1 Q30.7 152.4 30.7 153.05 30.7 153.5 28.75 154.8 26.8 156.05 26.8 157.5 26.8 158.15 27.45 158.5 L29.15 158.85 31.35 158.2 Q33.4 158.2 33.7 158.9 33.7 161.0 30.1 162.2 28.05 162.85 27.6 163.1 26.45 163.65 26.45 164.55 26.45 165.85 28.2 166.6 29.95 167.4 29.95 168.45 29.95 169.35 28.95 173.1 28.95 174.05 29.25 174.85 L27.4 176.8 27.5 176.9 25.55 175.4 Q24.6 174.65 24.6 173.65 24.6 172.95 25.4 171.6 L26.25 170.35 Q26.25 169.5 24.7 167.6 23.2 165.7 23.2 165.1 23.2 163.6 24.15 160.65 L25.15 157.45 Q25.15 156.4 23.5 154.7 21.85 152.95 21.85 150.85 L22.25 148.75 22.65 146.1 Q22.65 143.45 21.75 140.85 L21.7 140.7 22.5 140.85 23.25 140.2 22.5 139.25 21.15 138.5" fill="#704e0f" fill-rule="evenodd" stroke="none"/>
    <path d="M19.15 25.0 Q19.9 23.45 19.95 22.3 20.05 18.55 20.5 17.95 L21.15 17.55 22.15 16.65 24.05 14.15 26.25 17.05 27.15 16.95 27.25 16.25 25.55 12.3 Q26.75 10.85 28.05 10.15 30.8 8.5 38.45 8.5 40.95 8.5 42.2 9.95 43.2 11.15 43.2 12.85 L42.8 16.25 Q42.8 18.4 44.15 21.2 44.85 22.65 47.1 26.3 49.15 29.75 50.0 31.7 L45.2 29.4 44.75 30.35 51.15 35.2 51.35 37.35 51.25 38.4 51.15 42.1 Q51.15 42.75 50.6 43.05 L49.35 43.35 Q48.5 43.35 46.7 42.0 L44.65 40.65 41.7 40.9 41.7 41.0 41.65 41.35 Q41.65 41.95 46.3 45.3 51.0 49.45 51.0 53.85 L50.6 55.15 Q50.2 56.3 50.2 57.05 L50.5 57.85 50.8 58.85 Q50.8 59.7 49.65 62.5 48.5 65.3 48.5 66.4 48.5 67.0 48.95 68.2 L48.45 69.15 48.9 69.75 49.6 69.8 Q50.3 71.55 50.3 72.35 L49.3 74.55 Q48.35 76.5 48.35 77.75 L48.5 79.1 47.95 78.65 45.55 80.45 48.65 81.75 Q48.25 85.2 44.7 90.8 40.7 96.45 40.7 96.9 40.7 98.0 42.05 98.9 43.5 99.9 45.65 99.9 L48.35 99.25 48.45 99.8 48.5 100.55 48.25 102.75 47.75 105.6 48.2 107.85 47.4 110.0 45.95 112.55 Q43.95 116.4 43.95 120.75 L44.15 122.0 44.35 123.25 43.85 124.9 Q43.4 126.75 43.4 127.95 43.4 129.6 43.8 130.55 L44.2 131.9 Q44.2 134.9 42.5 137.55 L41.3 139.35 Q40.75 140.25 40.75 140.95 40.75 143.6 41.3 144.85 L41.9 146.45 42.45 146.3 Q42.75 146.4 42.75 146.8 L41.95 150.55 42.75 157.2 43.5 163.5 Q43.5 171.05 41.85 174.75 40.1 178.65 36.45 178.65 32.95 178.65 30.9 177.05 L29.85 176.0 34.05 172.15 34.7 172.9 Q36.15 174.45 37.6 174.45 39.3 174.45 39.85 170.8 40.2 168.75 40.25 164.5 L41.35 165.1 41.8 164.3 40.25 162.8 Q40.25 154.8 38.7 150.95 L37.6 148.4 Q37.15 146.95 37.15 144.95 37.15 143.5 38.0 141.25 L39.8 136.75 Q42.5 130.0 42.5 123.3 42.5 120.4 41.85 118.55 L41.2 117.05 Q41.2 115.25 41.85 114.3 L43.3 112.9 Q45.45 110.95 45.45 105.1 45.45 103.8 44.45 103.2 43.55 102.65 41.85 102.65 39.05 102.65 35.75 109.15 L34.5 110.7 34.7 111.3 Q33.65 113.55 32.75 116.0 31.9 118.5 31.9 119.05 31.9 120.25 32.8 121.15 L33.05 121.35 28.75 124.5 27.6 123.95 Q26.6 122.95 26.6 120.35 26.6 119.35 27.6 117.4 28.55 115.4 28.55 114.8 L27.65 113.25 Q26.75 111.4 26.75 109.7 26.75 108.75 27.25 108.2 27.6 107.8 28.7 107.15 31.75 105.25 33.9 102.75 L33.05 101.95 32.45 102.2 31.85 102.4 Q30.05 102.4 28.5 100.35 27.15 98.5 26.35 95.5 25.95 94.0 23.4 90.25 21.0 86.75 21.0 86.2 L21.4 84.2 21.75 82.3 21.5 80.8 23.1 80.5 Q24.15 80.1 24.15 79.55 24.15 79.0 23.1 78.65 L20.6 78.25 18.1 78.65 17.8 78.75 Q17.1 78.0 17.1 76.4 L17.95 74.55 Q18.85 72.6 18.85 71.8 18.85 70.9 18.1 70.25 L16.55 69.35 Q14.85 68.5 14.4 67.25 L19.55 69.0 20.15 68.45 20.2 67.45 19.15 66.6 14.25 66.6 14.2 66.2 Q14.2 65.55 14.55 65.1 14.95 64.65 15.55 64.65 16.55 64.65 20.8 66.7 L24.85 68.75 26.05 68.55 Q26.65 68.25 26.65 67.3 26.65 66.1 23.55 63.8 L16.45 58.75 11.75 55.2 Q9.6 53.5 9.6 52.0 9.6 50.6 10.5 47.6 L11.3 44.8 Q11.3 43.15 11.0 42.95 10.7 42.7 10.7 42.25 10.7 41.4 13.0 39.35 15.25 37.35 15.25 36.1 L14.85 33.8 14.45 32.1 Q14.45 31.6 17.2 28.0 L18.25 26.55 21.65 28.6 22.65 27.65 19.15 25.0 M19.0 49.15 Q19.6 51.3 20.7 53.65 23.35 59.25 26.3 59.05 25.9 60.45 26.95 62.1 27.9 63.75 29.45 64.3 L31.65 65.05 34.45 65.85 Q39.25 66.35 40.6 67.45 L41.3 68.1 42.85 68.35 Q43.85 68.35 45.9 63.3 48.05 58.1 48.05 55.05 48.05 52.75 46.45 50.55 45.4 49.05 42.9 46.85 L39.4 43.45 Q37.8 41.6 37.8 39.9 37.8 38.95 38.95 38.15 L41.4 36.7 Q44.95 34.8 44.95 33.05 44.95 32.15 43.6 29.25 41.4 24.55 39.6 19.6 39.3 18.15 38.8 17.1 L40.3 12.3 37.75 15.6 Q36.55 14.5 34.7 14.5 30.6 14.5 28.3 16.05 26.55 17.25 26.5 18.75 26.4 19.8 25.1 22.45 L23.35 26.3 Q22.65 29.05 21.55 31.6 L19.9 35.35 Q18.3 39.3 18.3 44.4 L18.4 46.0 16.7 45.05 16.6 44.85 Q15.85 43.6 14.85 43.6 13.8 43.6 13.1 44.85 12.4 46.1 12.4 47.9 12.4 49.65 13.1 50.95 13.8 52.2 14.85 52.2 15.85 52.2 16.6 50.95 L17.25 48.8 19.0 49.15 M36.2 69.45 L35.4 69.25 Q34.3 69.25 33.6 69.7 L32.4 70.8 Q30.8 72.3 27.95 72.3 25.8 72.3 24.4 73.1 22.95 73.9 22.95 75.15 L24.3 79.1 27.25 88.25 27.4 90.5 Q27.6 92.8 28.05 94.45 29.5 99.8 34.05 99.8 35.9 99.8 36.85 98.8 37.45 98.1 37.45 97.25 37.45 96.75 36.9 95.9 L36.05 94.8 37.95 92.4 Q40.05 89.2 43.8 81.5 43.25 81.7 42.85 81.2 42.45 80.65 42.45 79.4 L42.6 78.0 42.75 76.55 Q42.75 75.55 41.45 73.95 L41.8 73.3 37.6 69.25 36.2 69.45 M33.5 121.65 L34.85 122.45 36.85 123.85 Q37.8 124.75 37.8 126.0 37.8 129.6 36.3 131.35 L33.05 133.7 Q30.8 135.05 29.8 136.9 28.35 139.6 28.35 144.8 L28.4 145.5 26.2 149.2 27.0 149.6 28.95 147.5 Q29.65 148.9 31.35 149.6 L33.4 150.5 Q34.3 151.15 34.3 152.3 L32.95 153.45 Q31.5 154.65 31.5 155.35 31.5 156.35 32.25 156.65 L33.9 156.9 Q36.25 157.1 36.25 159.25 L35.7 160.55 33.5 160.85 35.05 161.7 34.55 162.5 Q32.75 165.35 32.75 167.55 32.75 169.25 33.25 170.6 L29.25 174.85 Q28.95 174.05 28.95 173.1 29.95 169.35 29.95 168.45 29.95 167.4 28.2 166.6 26.45 165.85 26.45 164.55 26.45 163.65 27.6 163.1 28.05 162.85 30.1 162.2 33.7 161.0 33.7 158.9 33.4 158.2 31.35 158.2 L29.15 158.85 27.45 158.5 Q26.8 158.15 26.8 157.5 26.8 156.05 28.75 154.8 30.7 153.5 30.7 153.05 30.7 152.4 29.7 152.1 L27.55 151.75 Q24.35 151.25 24.35 149.7 24.35 148.65 24.8 146.15 L25.2 143.2 24.8 140.55 Q24.35 138.25 24.35 136.9 24.35 135.6 25.75 134.3 L28.8 132.1 Q30.95 130.7 31.85 129.8 33.25 128.35 33.25 126.75 33.25 125.2 32.15 124.8 L33.5 121.65 M41.55 155.9 L41.55 156.55 41.6 156.15 41.55 155.9" fill="#ab7913" fill-rule="evenodd" stroke="none"/>
    <path d="M38.8 17.1 Q39.3 18.15 39.6 19.6 41.4 24.55 43.6 29.25 44.95 32.15 44.95 33.05 44.95 34.8 41.4 36.7 L38.95 38.15 Q37.8 38.95 37.8 39.9 37.8 41.6 39.4 43.45 L42.9 46.85 Q45.4 49.05 46.45 50.55 48.05 52.75 48.05 55.05 48.05 58.1 45.9 63.3 43.85 68.35 42.85 68.35 L41.3 68.1 40.6 67.45 Q39.25 66.35 34.45 65.85 L31.65 65.05 29.45 64.3 Q27.9 63.75 26.95 62.1 25.9 60.45 26.3 59.05 23.35 59.25 20.7 53.65 19.6 51.3 19.0 49.15 L22.5 49.85 23.25 49.2 22.5 48.25 18.4 46.0 18.3 44.4 Q18.3 39.3 19.9 35.35 L21.55 31.6 Q22.65 29.05 23.35 26.3 L25.1 22.45 Q26.4 19.8 26.5 18.75 26.55 17.25 28.3 16.05 30.6 14.5 34.7 14.5 36.55 14.5 37.75 15.6 L34.5 19.7 34.8 20.65 37.65 20.85 38.8 17.1 M17.25 48.8 L16.6 50.95 Q15.85 52.2 14.85 52.2 13.8 52.2 13.1 50.95 12.4 49.65 12.4 47.9 12.4 46.1 13.1 44.85 13.8 43.6 14.85 43.6 15.85 43.6 16.6 44.85 L16.7 45.05 15.8 44.55 13.8 47.05 13.8 48.1 17.25 48.8 M33.3 31.1 Q34.9 31.85 36.4 31.85 37.8 31.85 38.55 30.9 39.55 29.8 39.55 27.6 39.55 25.15 36.8 22.85 34.6 21.05 33.7 21.05 31.5 21.05 29.95 22.8 28.6 24.35 28.6 25.9 28.6 27.6 31.15 29.7 L32.6 30.7 28.7 33.5 Q27.1 33.9 25.9 35.35 24.2 37.45 24.2 40.35 24.2 43.2 25.9 45.3 27.6 47.3 30.0 47.3 32.4 47.3 34.1 45.3 35.8 43.2 35.8 40.35 35.8 37.45 34.1 35.35 33.2 34.3 32.1 33.8 L33.3 31.1 M33.05 121.35 L32.8 121.15 Q31.9 120.25 31.9 119.05 31.9 118.5 32.75 116.0 33.65 113.55 34.7 111.3 L34.8 111.65 35.85 111.75 Q35.45 113.2 35.35 114.9 35.15 118.4 36.2 120.85 37.35 123.5 39.55 123.5 L40.1 123.25 Q40.5 122.85 40.5 122.1 L40.0 119.5 Q39.45 117.75 39.45 116.6 39.45 115.3 40.95 112.75 42.4 110.15 42.4 108.1 42.4 106.25 40.8 106.25 40.0 106.25 39.3 106.6 L40.3 103.3 35.75 109.15 Q39.05 102.65 41.85 102.65 43.55 102.65 44.45 103.2 45.45 103.8 45.45 105.1 45.45 110.95 43.3 112.9 L41.85 114.3 Q41.2 115.25 41.2 117.05 L41.85 118.55 Q42.5 120.4 42.5 123.3 42.5 130.0 39.8 136.75 L38.0 141.25 Q37.15 143.5 37.15 144.95 37.15 146.95 37.6 148.4 L38.7 150.95 Q40.25 154.8 40.25 162.8 L37.6 160.25 35.7 160.55 36.25 159.25 Q36.25 157.1 33.9 156.9 L32.25 156.65 Q31.5 156.35 31.5 155.35 31.5 154.65 32.95 153.45 L34.3 152.3 Q34.3 151.15 33.4 150.5 L31.35 149.6 Q29.65 148.9 28.95 147.5 L31.6 144.5 Q32.3 145.4 33.1 145.4 34.1 145.4 34.8 144.2 35.5 143.0 35.5 141.35 35.5 139.65 34.8 138.45 34.1 137.3 33.1 137.3 32.15 137.3 31.4 138.45 30.75 139.65 30.75 141.35 L30.75 141.45 28.4 145.5 28.35 144.8 Q28.35 139.6 29.8 136.9 30.8 135.05 33.05 133.7 L36.3 131.35 Q37.8 129.6 37.8 126.0 37.8 124.75 36.85 123.85 L34.85 122.45 33.5 121.65 33.85 120.75 33.05 121.35 M40.25 164.5 Q40.2 168.75 39.85 170.8 39.3 174.45 37.6 174.45 36.15 174.45 34.7 172.9 L34.05 172.15 35.45 170.85 35.25 169.5 34.5 169.25 33.25 170.6 Q32.75 169.25 32.75 167.55 32.75 165.35 34.55 162.5 L35.05 161.7 40.25 164.5 M33.7 51.2 Q33.7 52.65 34.2 54.4 35.0 57.3 36.55 59.35 38.25 61.6 39.95 61.6 41.4 61.6 42.35 60.65 43.45 59.5 43.45 57.55 43.45 54.45 41.75 51.2 39.7 47.2 36.5 47.2 34.4 47.2 33.85 49.45 L33.85 49.6 31.8 48.65 29.8 52.05 29.6 52.05 Q28.25 52.05 27.3 53.15 26.3 54.25 26.3 55.8 26.3 56.7 26.65 57.45 L26.2 58.2 27.0 58.6 27.25 58.35 27.3 58.4 Q28.25 59.5 29.6 59.5 30.95 59.5 31.95 58.4 32.9 57.3 32.9 55.8 32.9 54.25 31.95 53.15 L33.7 51.2 M41.45 73.95 Q42.75 75.55 42.75 76.55 L42.6 78.0 42.45 79.4 Q42.45 80.65 42.85 81.2 43.25 81.7 43.8 81.5 40.05 89.2 37.95 92.4 L36.05 94.8 36.9 95.9 Q37.45 96.75 37.45 97.25 37.45 98.1 36.85 98.8 35.9 99.8 34.05 99.8 29.5 99.8 28.05 94.45 27.6 92.8 27.4 90.5 L27.25 88.25 24.3 79.1 22.95 75.15 Q22.95 73.9 24.4 73.1 25.8 72.3 27.95 72.3 30.8 72.3 32.4 70.8 L33.6 69.7 Q34.3 69.25 35.4 69.25 L36.2 69.45 33.5 69.85 41.35 74.1 41.45 73.95 M29.05 85.7 L29.15 85.95 Q30.55 90.0 32.65 90.0 34.85 90.0 36.95 86.55 39.1 83.1 39.1 79.55 39.1 77.1 37.6 77.0 36.35 76.95 35.0 78.4 L35.0 77.95 Q35.1 76.55 34.0 75.65 33.0 74.8 31.75 74.8 30.8 75.1 29.95 76.1 28.2 78.1 28.2 81.8 L28.45 83.1 28.7 84.4 27.4 85.8 28.0 86.65 29.05 85.7 M32.7 96.9 Q33.45 96.9 34.0 96.3 34.55 95.7 34.55 94.85 34.55 94.0 34.0 93.4 33.45 92.75 32.7 92.75 31.95 92.75 31.4 93.4 30.85 94.0 30.85 94.85 30.85 95.7 31.4 96.3 31.95 96.9 32.7 96.9 M36.65 163.85 Q36.1 163.85 35.7 164.55 35.3 165.25 35.3 166.2 35.3 167.15 35.7 167.8 36.1 168.5 36.65 168.5 37.2 168.5 37.6 167.8 38.0 167.15 38.0 166.2 38.0 165.25 37.6 164.55 37.2 163.85 36.65 163.85" fill="#cf8e15" fill-rule="evenodd" stroke="none"/>
    <path d="M32.6 30.7 L31.15 29.7 Q28.6 27.6 28.6 25.9 28.6 24.35 29.95 22.8 31.5 21.05 33.7 21.05 34.6 21.05 36.8 22.85 39.55 25.15 39.55 27.6 39.55 29.8 38.55 30.9 37.8 31.85 36.4 31.85 34.9 31.85 33.3 31.1 L33.85 29.75 32.6 30.7 M32.1 33.8 Q33.2 34.3 34.1 35.35 35.8 37.45 35.8 40.35 35.8 43.2 34.1 45.3 32.4 47.3 30.0 47.3 27.6 47.3 25.9 45.3 24.2 43.2 24.2 40.35 24.2 37.45 25.9 35.35 27.1 33.9 28.7 33.5 L26.25 35.3 31.05 36.25 32.1 33.8 M33.85 49.6 L33.85 49.45 Q34.4 47.2 36.5 47.2 39.7 47.2 41.75 51.2 43.45 54.45 43.45 57.55 43.45 59.5 42.35 60.65 41.4 61.6 39.95 61.6 38.25 61.6 36.55 59.35 35.0 57.3 34.2 54.4 33.7 52.65 33.7 51.2 L34.75 50.0 33.85 49.6 M31.95 53.15 Q32.9 54.25 32.9 55.8 32.9 57.3 31.95 58.4 30.95 59.5 29.6 59.5 28.25 59.5 27.3 58.4 L27.25 58.35 31.95 53.15 M26.65 57.45 Q26.3 56.7 26.3 55.8 26.3 54.25 27.3 53.15 28.25 52.05 29.6 52.05 L29.8 52.05 26.65 57.45 M28.7 84.4 L28.45 83.1 28.2 81.8 Q28.2 78.1 29.95 76.1 30.8 75.1 31.75 74.8 33.0 74.8 34.0 75.65 35.1 76.55 35.0 77.95 L35.0 78.4 Q36.35 76.95 37.6 77.0 39.1 77.1 39.1 79.55 39.1 83.1 36.95 86.55 34.85 90.0 32.65 90.0 30.55 90.0 29.15 85.95 L29.05 85.7 35.45 79.85 35.25 78.5 34.5 78.25 28.7 84.4 M32.7 96.9 Q31.95 96.9 31.4 96.3 30.85 95.7 30.85 94.85 30.85 94.0 31.4 93.4 31.95 92.75 32.7 92.75 33.45 92.75 34.0 93.4 34.55 94.0 34.55 94.85 34.55 95.7 34.0 96.3 33.45 96.9 32.7 96.9 M39.3 106.6 Q40.0 106.25 40.8 106.25 42.4 106.25 42.4 108.1 42.4 110.15 40.95 112.75 39.45 115.3 39.45 116.6 39.45 117.75 40.0 119.5 L40.5 122.1 Q40.5 122.85 40.1 123.25 L39.55 123.5 Q37.35 123.5 36.2 120.85 35.15 118.4 35.35 114.9 35.45 113.2 35.85 111.75 L37.65 111.85 39.3 106.6 M30.75 141.45 L30.75 141.35 Q30.75 139.65 31.4 138.45 32.15 137.3 33.1 137.3 34.1 137.3 34.8 138.45 35.5 139.65 35.5 141.35 35.5 143.0 34.8 144.2 34.1 145.4 33.1 145.4 32.3 145.4 31.6 144.5 L34.75 141.0 31.8 139.65 30.75 141.45 M36.65 163.85 Q37.2 163.85 37.6 164.55 38.0 165.25 38.0 166.2 38.0 167.15 37.6 167.8 37.2 168.5 36.65 168.5 36.1 168.5 35.7 167.8 35.3 167.15 35.3 166.2 35.3 165.25 35.7 164.55 36.1 163.85 36.65 163.85" fill="#f5b438" fill-rule="evenodd" stroke="none"/>
    <path d="M56.95 50.0 L57.45 50.65 57.35 50.65 50.75 48.3 51.05 45.7 54.1 46.3 56.95 50.0 M54.6 62.2 L55.0 62.3 54.1 63.6 49.6 69.8 48.9 69.75 48.45 69.15 48.95 68.2 52.3 61.45 54.6 62.2 M48.85 122.15 L52.1 123.7 52.3 124.25 51.65 126.6 48.45 124.15 44.75 121.35 45.2 120.4 48.85 122.15 M46.2 171.0 L47.95 169.65 48.1 169.75 48.05 169.9 Q48.05 170.55 48.6 172.7 L46.25 171.75 45.55 171.45 46.2 171.0 M55.5 114.45 L55.25 114.6 54.5 114.5 52.45 111.7 55.5 110.95 55.55 111.65 55.75 113.5 55.5 114.45 M57.5 22.3 L55.25 23.6 54.5 23.5 52.45 20.7 55.95 19.8 57.5 22.3 M18.85 115.75 L22.65 118.65 21.65 119.6 18.7 117.85 18.85 116.35 18.85 115.75 M16.95 136.2 L21.15 138.5 22.5 139.25 23.25 140.2 22.5 140.85 21.7 140.7 17.45 139.85 Q16.85 138.05 16.85 137.35 L16.95 136.2 M24.1 105.25 L22.8 103.5 24.15 103.05 25.25 102.65 27.25 107.25 27.15 107.95 26.25 108.05 24.1 105.25 M14.2 24.1 L13.5 23.7 13.8 22.8 14.9 23.15 18.0 24.1 19.15 25.0 22.65 27.65 21.65 28.6 18.25 26.55 14.2 24.1 M24.05 14.15 L22.8 12.5 25.25 11.65 25.55 12.3 27.25 16.25 27.15 16.95 26.25 17.05 24.05 14.15 M50.0 31.7 L52.1 32.7 52.3 33.25 51.65 35.6 51.15 35.2 44.75 30.35 45.2 29.4 50.0 31.7 M19.0 49.15 L17.25 48.8 13.8 48.1 13.8 47.05 15.8 44.55 16.7 45.05 18.4 46.0 22.5 48.25 23.25 49.2 22.5 49.85 19.0 49.15 M37.75 15.6 L40.3 12.3 38.8 17.1 37.65 20.85 34.8 20.65 34.5 19.7 37.75 15.6 M33.3 31.1 L32.1 33.8 31.05 36.25 26.25 35.3 28.7 33.5 32.6 30.7 33.85 29.75 33.3 31.1 M14.25 66.6 L19.15 66.6 20.2 67.45 20.15 68.45 19.55 69.0 14.4 67.25 12.3 66.55 14.25 66.6 M17.8 78.75 L18.1 78.65 20.6 78.25 23.1 78.65 Q24.15 79.0 24.15 79.55 24.15 80.1 23.1 80.5 L21.5 80.8 20.6 80.85 18.1 80.5 Q17.05 80.1 17.05 79.55 17.05 79.1 17.8 78.75 M28.75 124.5 L33.05 121.35 33.85 120.75 33.5 121.65 32.15 124.8 31.05 127.25 26.25 126.3 28.75 124.5 M34.7 111.3 L34.5 110.7 35.75 109.15 40.3 103.3 39.3 106.6 37.65 111.85 35.85 111.75 34.8 111.65 34.7 111.3 M40.25 162.8 L41.8 164.3 41.35 165.1 40.25 164.5 35.05 161.7 33.5 160.85 35.7 160.55 37.6 160.25 40.25 162.8 M34.05 172.15 L29.85 176.0 28.2 177.5 28.0 177.65 27.5 176.9 27.4 176.8 29.25 174.85 33.25 170.6 34.5 169.25 35.25 169.5 35.45 170.85 34.05 172.15 M48.65 81.75 L45.55 80.45 47.95 78.65 48.5 79.1 51.3 81.5 51.3 82.8 48.65 81.75 M33.7 51.2 L31.95 53.15 27.25 58.35 27.0 58.6 26.2 58.2 26.65 57.45 29.8 52.05 31.8 48.65 33.85 49.6 34.75 50.0 33.7 51.2 M41.45 73.95 L41.35 74.1 33.5 69.85 36.2 69.45 37.6 69.25 41.8 73.3 41.45 73.95 M28.7 84.4 L34.5 78.25 35.25 78.5 35.45 79.85 29.05 85.7 28.0 86.65 27.4 85.8 28.7 84.4 M28.4 145.5 L30.75 141.45 31.8 139.65 34.75 141.0 31.6 144.5 28.95 147.5 27.0 149.6 26.2 149.2 28.4 145.5 M17.95 157.6 L19.15 157.6 20.2 158.45 20.15 159.45 19.55 160.0 18.65 159.7 18.4 159.0 17.95 157.6 M21.05 169.25 L23.1 169.65 Q24.15 170.0 24.15 170.55 24.15 171.1 23.1 171.5 L22.6 171.65 21.95 170.05 21.0 169.25 21.05 169.25" fill="#844317" fill-rule="evenodd" stroke="none"/>
  </g>
</svg>
