<?xml version="1.0" encoding="UTF-8" standalone="no"?>
<svg xmlns:ffdec="https://www.free-decompiler.com/flash" xmlns:xlink="http://www.w3.org/1999/xlink" ffdec:objectType="shape" height="56.1px" width="66.25px" xmlns="http://www.w3.org/2000/svg">
  <g transform="matrix(1.0, 0.0, 0.0, 1.0, 28.5, 17.35)">
    <path d="M2.05 -8.15 L2.4 -8.05 2.5 1.55 2.15 1.5 Q2.3 -1.75 2.05 -2.85 L2.05 -8.15 M27.35 -0.4 L26.45 -9.95 28.65 -10.85 29.45 -1.0 27.35 -0.4 M14.5 -1.9 L13.25 -2.1 12.0 -1.9 11.55 -1.5 12.0 -1.1 13.25 -0.95 14.5 -1.1 15.05 -1.5 14.5 -1.9 M16.65 -6.1 Q17.2 -0.05 17.35 5.95 15.35 4.15 10.9 6.0 L7.5 7.05 7.5 3.25 10.3 3.25 10.3 2.25 Q9.55 -0.45 9.5 -3.6 9.5 -4.85 12.1 -5.55 L16.65 -6.1 M17.1 18.75 L16.85 22.05 Q13.15 23.4 7.2 23.75 L7.35 19.15 7.55 19.15 17.1 18.7 17.1 18.75 M24.4 2.85 Q24.7 1.0 25.05 0.3 25.35 0.4 25.85 1.3 L26.6 13.85 Q26.95 20.1 24.2 21.3 L23.95 20.8 Q24.6 16.95 24.6 11.95 L24.4 2.85 M-1.0 -1.15 Q-1.05 1.25 -0.5 3.25 L2.5 3.25 2.5 7.2 Q0.2 6.8 -1.7 5.5 -5.2 2.95 -6.3 1.65 L-6.2 -1.6 -6.1 -1.65 Q-5.55 -1.85 -5.55 -2.1 -5.55 -2.3 -6.1 -2.5 L-6.15 -2.5 -6.0 -6.2 Q-1.8 -4.7 -1.0 -2.1 L-2.4 -2.05 -3.05 -1.6 -2.45 -1.5 -1.0 -1.15 M2.35 18.5 L2.2 23.85 Q-2.65 23.65 -6.45 22.05 L-6.55 14.5 -6.25 14.75 Q-2.95 17.4 2.35 18.5 M-17.5 -3.65 L-17.4 -4.05 Q-16.1 -7.95 -15.7 -7.95 L-10.95 -7.3 -11.25 -0.3 -11.45 -0.3 -12.3 -0.2 -12.55 -0.1 Q-12.45 3.7 -11.45 6.8 L-11.55 18.85 Q-14.1 16.55 -15.9 13.3 -17.25 10.8 -18.0 8.35 -17.95 2.65 -17.5 -3.65 M-15.1 -3.5 L-15.2 -2.15 -11.9 -2.15 -11.85 -3.5 -15.1 -3.5" fill="#557777" fill-rule="evenodd" stroke="none"/>
    <path d="M2.4 -8.05 L2.05 -8.15 2.05 -9.9 2.4 -9.9 2.4 -8.05 M26.45 -9.95 L26.3 -11.65 28.5 -12.3 28.65 -10.85 26.45 -9.95 M7.5 7.05 L10.9 6.0 Q15.35 4.15 17.35 5.95 L17.1 18.7 7.55 19.15 7.35 19.15 7.5 7.05 M2.5 7.2 L2.35 18.5 Q-2.95 17.4 -6.25 14.75 L-6.55 14.5 -6.3 1.65 Q-5.2 2.95 -1.7 5.5 0.2 6.8 2.5 7.2 M-11.45 6.8 Q-12.45 3.7 -12.55 -0.1 L-12.3 -0.2 -11.45 -0.3 -11.25 -0.3 -11.45 6.75 -11.45 6.8" fill="#658d8d" fill-rule="evenodd" stroke="none"/>
    <path d="M2.15 1.5 L2.5 1.55 2.5 3.25 -0.5 3.25 Q-1.05 1.25 -1.0 -1.15 L0.05 -1.1 0.3 2.8 2.05 2.8 2.15 1.5 M7.5 2.3 L7.6 2.3 8.05 0.45 Q8.45 -1.0 8.85 -1.35 8.4 -1.5 8.25 -1.6 7.9 -1.85 7.9 -2.75 7.85 -5.15 8.25 -6.0 8.7 -6.95 10.2 -7.3 L16.4 -8.3 16.65 -6.1 12.1 -5.55 Q9.5 -4.85 9.5 -3.6 9.55 -0.45 10.3 2.25 L10.3 3.25 7.5 3.25 7.5 2.3 M25.9 -2.4 L26.15 0.2 26.8 0.4 Q27.35 0.15 27.35 -0.4 L29.45 -1.0 Q29.9 8.55 29.2 17.95 L26.75 21.5 22.75 26.7 23.95 20.8 24.2 21.3 Q26.95 20.1 26.6 13.85 L25.85 1.3 Q25.35 0.4 25.05 0.3 24.7 1.0 24.4 2.85 L24.05 -1.9 25.9 -2.4 M16.85 22.05 L16.15 28.5 13.15 29.1 9.85 29.95 7.0 30.5 7.2 23.75 Q13.15 23.4 16.85 22.05 M22.15 18.3 Q22.9 4.85 21.4 -8.95 L22.75 -9.15 22.8 -8.6 23.5 1.3 23.5 2.0 Q23.6 8.5 22.15 18.3 M27.0 2.3 Q26.8 2.85 26.9 3.65 L27.15 5.1 Q27.3 5.65 27.55 5.65 L27.9 5.1 27.95 3.65 27.75 2.3 Q27.5 1.7 27.3 1.75 27.05 1.7 27.0 2.3 M27.65 8.55 Q27.35 8.5 27.25 9.1 27.1 9.65 27.2 10.6 L27.4 12.05 Q27.6 12.6 27.9 12.6 L28.25 12.05 28.3 10.6 28.05 9.1 Q27.85 8.5 27.65 8.55 M27.2 17.5 L27.05 19.75 27.65 19.75 27.7 17.8 27.55 15.65 Q27.2 16.45 27.2 17.5 M-6.45 22.05 Q-2.65 23.65 2.2 23.85 L2.0 30.45 Q-2.45 30.0 -6.25 28.4 L-6.25 28.35 -6.45 22.05 M-11.55 18.85 L-11.4 25.35 Q-14.95 22.65 -17.8 18.65 L-18.0 8.35 Q-17.25 10.8 -15.9 13.3 -14.1 16.55 -11.55 18.85 M-23.0 8.35 L-23.3 7.4 Q-24.65 3.1 -24.65 0.5 -24.65 -3.15 -24.3 -4.15 -23.95 -5.05 -22.65 -5.5 L-23.4 -5.75 Q-23.9 -5.95 -23.9 -6.6 L-23.4 -10.5 -23.35 -10.85 -22.0 -10.6 Q-22.9 -0.4 -23.0 8.35 M-17.05 -9.85 L-13.4 -9.35 -10.85 -9.1 -10.95 -7.3 -15.7 -7.95 Q-16.1 -7.95 -17.4 -4.05 L-17.5 -3.65 -17.05 -9.85 M-6.0 -6.2 L-5.85 -8.8 -0.5 -8.7 -0.5 -5.35 -0.35 -2.05 -1.0 -2.1 Q-1.8 -4.7 -6.0 -6.2" fill="#435f5f" fill-rule="evenodd" stroke="none"/>
    <path d="M7.4 -9.85 L16.15 -10.5 16.4 -8.3 10.2 -7.3 Q8.7 -6.95 8.25 -6.0 7.85 -5.15 7.9 -2.75 7.9 -1.85 8.25 -1.6 8.4 -1.5 8.85 -1.35 8.45 -1.0 8.05 0.45 L7.6 2.3 7.5 2.3 7.4 -9.85 M2.05 -2.85 Q2.3 -1.75 2.15 1.5 L2.05 2.8 0.3 2.8 0.05 -1.1 -1.0 -1.15 -2.45 -1.5 -3.05 -1.6 -2.4 -2.05 -1.0 -2.1 -0.35 -2.05 -0.5 -5.35 -0.5 -8.7 -5.85 -8.8 -5.75 -10.7 -5.75 -10.75 0.8 -10.4 Q0.65 -10.4 0.8 -4.15 0.95 2.1 1.35 2.25 L2.05 -2.85 M21.4 -8.95 L21.15 -10.95 25.0 -11.4 25.9 -3.15 25.9 -2.4 24.05 -1.9 23.5 1.3 22.8 -8.6 22.75 -9.15 21.4 -8.95 M14.5 -1.9 L15.05 -1.5 14.5 -1.1 13.25 -0.95 12.0 -1.1 11.55 -1.5 12.0 -1.9 13.25 -2.1 14.5 -1.9 M33.45 -12.8 L33.45 -12.85 Q34.45 -11.15 34.8 -9.4 L35.6 -5.4 36.4 3.6 Q36.7 8.7 34.45 14.45 35.1 1.0 33.45 -12.8 M27.0 2.3 Q27.05 1.7 27.3 1.75 27.5 1.7 27.75 2.3 L27.95 3.65 27.9 5.1 27.55 5.65 Q27.3 5.65 27.15 5.1 L26.9 3.65 Q26.8 2.85 27.0 2.3 M22.75 26.7 L26.75 21.5 29.2 17.95 28.6 24.6 Q25.25 28.8 21.05 31.8 L22.75 26.7 M23.5 2.0 Q23.75 7.3 23.3 19.15 23.15 25.25 21.15 29.2 L22.15 18.3 Q23.6 8.5 23.5 2.0 M27.65 8.55 Q27.85 8.5 28.05 9.1 L28.3 10.6 28.25 12.05 27.9 12.6 Q27.6 12.6 27.4 12.05 L27.2 10.6 Q27.1 9.65 27.25 9.1 27.35 8.5 27.65 8.55 M27.2 17.5 Q27.2 16.45 27.55 15.65 L27.7 17.8 27.65 19.75 27.05 19.75 27.2 17.5 M-6.25 28.4 Q-2.45 30.0 2.0 30.45 L1.7 37.15 Q-2.3 36.9 -5.75 35.85 L-6.25 28.4 M7.0 30.5 L9.85 29.95 13.15 29.1 16.15 28.5 15.2 35.05 Q11.75 36.75 6.75 37.15 L7.0 30.5 M-22.7 20.95 Q-27.25 11.5 -27.25 -2.85 L-26.95 -7.75 Q-26.65 -12.2 -25.55 -14.1 L-23.15 -12.95 -21.85 -12.4 -22.0 -10.6 -23.35 -10.85 -23.4 -10.5 -23.9 -6.6 Q-23.9 -5.95 -23.4 -5.75 L-22.65 -5.5 Q-23.95 -5.05 -24.3 -4.15 -24.65 -3.15 -24.65 0.5 -24.65 3.1 -23.3 7.4 L-23.0 8.35 Q-23.1 15.05 -22.7 20.95 M-10.85 -9.1 L-13.4 -9.35 -17.05 -9.85 -16.95 -11.45 -10.75 -11.0 -10.85 -9.1 M-15.1 -3.5 L-11.85 -3.5 -11.9 -2.15 -15.2 -2.15 -15.1 -3.5 M-6.15 -2.5 L-6.1 -2.5 Q-5.55 -2.3 -5.55 -2.1 -5.55 -1.85 -6.1 -1.65 L-6.2 -1.6 -6.15 -2.5 M-16.8 29.3 Q-17.55 24.35 -17.8 18.65 -14.95 22.65 -11.4 25.35 L-10.95 33.7 Q-14.15 31.95 -16.8 29.3" fill="#344949" fill-rule="evenodd" stroke="none"/>
    <path d="M7.4 -9.85 L7.35 -11.3 15.65 -11.65 16.0 -11.65 16.15 -10.5 7.4 -9.85 M2.35 -11.35 L2.4 -9.9 2.05 -9.9 2.05 -8.15 2.05 -2.85 1.35 2.25 Q0.95 2.1 0.8 -4.15 0.65 -10.4 0.8 -10.4 L-5.75 -10.75 -5.7 -11.8 2.35 -11.35 M21.15 -10.95 L21.0 -12.3 28.35 -13.65 28.5 -12.3 26.3 -11.65 26.45 -9.95 27.35 -0.4 Q27.35 0.15 26.8 0.4 L26.15 0.2 25.9 -2.4 25.9 -3.15 25.0 -11.4 21.15 -10.95 M23.5 1.3 L24.05 -1.9 24.4 2.85 24.6 11.95 Q24.6 16.95 23.95 20.8 L22.75 26.7 21.05 31.8 Q25.25 28.8 28.6 24.6 L28.1 28.45 26.85 29.65 25.6 30.7 Q23.0 32.75 20.4 34.25 L21.15 29.2 Q23.15 25.25 23.3 19.15 23.75 7.3 23.5 2.0 L23.5 1.3 M33.15 -15.3 L33.8 -15.9 33.95 -16.1 34.4 -16.1 34.45 -15.8 34.4 -15.85 34.8 -14.25 Q36.55 -8.85 37.65 1.55 37.95 5.9 37.45 9.75 36.7 15.35 34.35 20.05 L34.15 20.45 34.05 20.65 34.05 20.7 34.45 14.5 34.45 14.45 Q36.7 8.7 36.4 3.6 L35.6 -5.4 34.8 -9.4 Q34.45 -11.15 33.45 -12.85 L33.15 -15.3 M14.85 36.85 Q10.8 38.3 6.65 38.6 L6.75 37.15 Q11.75 36.75 15.2 35.05 L14.85 36.85 M1.65 38.7 L0.95 38.65 Q-2.9 38.4 -6.25 37.45 L-5.6 37.65 -5.75 35.85 Q-2.3 36.9 1.7 37.15 L1.65 38.7 M-10.8 35.8 L-14.8 33.4 -15.05 33.2 -17.2 31.5 -16.35 32.2 -16.8 29.3 Q-14.15 31.95 -10.95 33.7 L-10.8 35.8 M-22.35 25.15 L-24.65 20.6 -25.05 19.6 -27.05 13.05 -27.15 12.55 -27.15 12.5 Q-27.95 8.55 -28.25 4.15 L-28.5 -2.4 -27.95 -9.35 -27.8 -10.6 -27.8 -10.65 -27.6 -12.1 -26.8 -17.35 -26.35 -17.35 -24.7 -15.8 Q-23.85 -15.05 -23.1 -15.05 L-21.65 -14.55 -21.85 -12.4 -23.15 -12.95 -25.55 -14.1 Q-26.65 -12.2 -26.95 -7.75 L-27.25 -2.85 Q-27.25 11.5 -22.7 20.95 L-22.35 25.15 M-17.5 -13.45 L-16.25 -13.2 -10.7 -12.3 -10.75 -11.0 -16.95 -11.45 -16.75 -13.3 -17.5 -13.45" fill="#212e2e" fill-rule="evenodd" stroke="none"/>
    <path d="M7.35 -11.3 L7.4 -9.85 6.6 -9.8 6.6 -8.6 6.6 2.15 6.5 2.15 6.5 2.3 6.05 2.3 5.45 1.8 5.35 -7.55 5.35 -9.85 2.4 -9.9 2.35 -11.35 7.1 -11.3 7.35 -11.3 M16.15 -10.5 L16.0 -11.65 16.25 -11.7 21.0 -12.3 21.15 -10.95 16.15 -10.5 M28.5 -12.3 L28.35 -13.65 29.0 -13.8 31.6 -14.4 Q32.45 -14.75 33.15 -15.3 L33.45 -12.85 33.45 -12.8 33.2 -13.25 33.05 -13.5 30.45 -12.85 31.15 -4.65 31.2 -4.65 Q31.25 -3.95 31.75 -2.7 32.0 -1.55 30.8 -0.7 30.5 -0.75 30.3 -0.95 L30.15 -1.25 29.3 -11.1 29.2 -12.5 28.5 -12.3 M34.05 20.7 Q32.05 24.35 28.1 28.45 L28.6 24.6 32.4 18.75 34.0 15.55 34.45 14.5 34.05 20.7 M20.4 34.25 Q17.65 35.85 14.85 36.85 L15.2 35.05 18.0 33.2 Q19.9 31.55 21.15 29.2 L20.4 34.25 M6.65 38.6 L6.6 38.6 1.65 38.7 1.7 37.15 4.1 37.2 6.75 37.15 6.65 38.6 M-6.25 37.45 L-10.8 35.8 -10.95 33.7 Q-8.5 35.05 -5.75 35.85 L-5.6 37.65 -6.25 37.45 M-17.2 31.5 L-19.55 29.1 -20.2 28.25 -20.3 28.15 -20.45 27.9 -20.75 27.5 -20.85 27.4 -21.0 27.25 -21.1 27.15 -21.15 27.0 -21.25 26.9 -21.35 26.75 -21.45 26.65 -21.5 26.55 -21.6 26.4 -21.65 26.3 -21.75 26.15 -22.15 25.5 -22.25 25.35 -22.25 25.3 -22.35 25.15 -22.7 20.95 Q-21.0 24.45 -18.65 27.3 L-16.8 29.3 -16.35 32.2 -17.2 31.5 M-21.65 -14.55 L-17.5 -13.45 -16.75 -13.3 -16.95 -11.45 -20.2 -11.85 -21.85 -12.4 -21.65 -14.55 M-10.7 -12.3 L-5.7 -11.8 -5.75 -10.75 -5.75 -10.7 -7.1 -10.8 -10.75 -11.0 -10.7 -12.3" fill="#2e3f3f" fill-rule="evenodd" stroke="none"/>
    <path d="M2.4 -9.9 L5.35 -9.85 5.35 -7.55 2.4 -8.05 2.4 -9.9 M17.35 5.95 Q18.6 7.1 18.85 9.8 19.55 16.9 18.0 18.25 L17.95 18.3 17.1 18.75 17.1 18.7 17.35 5.95 M29.3 -11.1 L28.65 -10.85 28.5 -12.3 29.2 -12.5 29.3 -11.1 M2.5 7.2 L3.45 7.35 7.5 7.05 7.35 19.15 2.35 18.5 2.5 7.2 M-11.25 -0.3 Q-7.3 -0.25 -6.85 0.9 L-6.8 0.95 -6.3 1.65 -6.55 14.5 Q-10.0 11.5 -11.45 6.75 L-11.25 -0.3" fill="#82a6a6" fill-rule="evenodd" stroke="none"/>
    <path d="M6.5 2.3 L6.5 2.15 6.6 2.15 6.6 -8.6 6.6 -9.8 7.4 -9.85 7.5 2.3 6.5 2.3 M16.4 -8.3 L16.15 -10.5 21.15 -10.95 21.4 -8.95 18.55 -8.6 16.4 -8.3 M17.65 -2.45 L20.9 -2.45 20.95 -1.5 17.7 -1.5 17.65 -2.45 M16.15 28.5 Q17.45 28.15 18.35 27.6 20.75 26.15 21.35 22.95 L22.15 18.3 21.15 29.2 Q19.9 31.55 18.0 33.2 L15.2 35.05 16.15 28.5 M30.3 -0.95 Q30.5 -0.75 30.8 -0.7 32.0 -1.55 31.75 -2.7 31.25 -3.95 31.2 -4.65 L31.15 -4.65 30.45 -12.85 33.05 -13.5 33.2 -13.25 33.45 -12.8 Q35.1 1.0 34.45 14.45 L34.45 14.5 34.0 15.55 32.4 18.75 28.6 24.6 29.2 17.95 29.6 17.3 30.2 16.3 30.3 16.1 Q33.55 9.5 32.85 -0.3 L32.3 -3.85 31.8 -0.7 Q31.25 1.8 30.9 2.5 30.55 2.3 30.5 1.7 L30.3 -0.95 M-6.25 28.35 L-6.25 28.4 -5.75 35.85 Q-8.5 35.05 -10.95 33.7 L-11.4 25.35 -7.6 27.75 -6.25 28.35 M2.0 30.45 L5.15 30.6 7.0 30.5 6.75 37.15 4.1 37.2 1.7 37.15 2.0 30.45 M-22.0 -10.6 L-21.85 -12.4 -20.2 -11.85 -16.95 -11.45 -17.05 -9.85 -22.0 -10.6 M-10.85 -9.1 L-10.75 -11.0 -7.1 -10.8 -5.75 -10.7 -5.85 -8.8 -10.85 -9.1 M-23.0 8.35 Q-21.35 13.3 -18.6 17.5 L-18.2 18.1 -17.8 18.65 Q-17.55 24.35 -16.8 29.3 L-18.65 27.3 Q-21.0 24.45 -22.7 20.95 -23.1 15.05 -23.0 8.35 M-17.75 -3.6 Q-18.0 -3.4 -18.3 -3.3 L-20.45 -4.15 -20.1 -5.25 Q-17.75 -4.0 -17.75 -3.6 M-6.2 -1.6 L-7.4 -1.45 -8.6 -1.65 -9.15 -2.1 Q-9.15 -2.3 -8.6 -2.5 L-7.35 -2.7 -6.15 -2.5 -6.2 -1.6" fill="#496767" fill-rule="evenodd" stroke="none"/>
    <path d="M5.35 -7.55 L5.45 1.8 2.5 1.55 2.4 -8.05 5.35 -7.55 M17.65 -2.45 L17.7 -1.5 20.95 -1.5 20.9 -2.45 17.65 -2.45 M16.65 -6.1 L17.6 -6.1 Q20.2 -6.1 20.9 -3.85 L21.35 1.5 21.75 8.25 Q22.3 14.6 19.8 20.5 L19.6 20.65 18.35 21.4 16.85 22.05 17.1 18.75 17.95 18.3 18.0 18.25 Q19.55 16.9 18.85 9.8 18.6 7.1 17.35 5.95 17.2 -0.05 16.65 -6.1 M7.5 3.25 L7.5 7.05 3.45 7.35 2.5 7.2 2.5 3.25 7.5 3.25 M28.65 -10.85 L29.3 -11.1 30.15 -1.25 29.45 -1.0 28.65 -10.85 M7.2 23.75 L3.45 23.85 2.2 23.85 2.35 18.5 7.35 19.15 7.2 23.75 M-6.55 14.5 L-6.45 22.05 -6.85 21.85 -10.45 19.75 -11.55 18.85 -11.45 6.8 -11.45 6.75 Q-10.0 11.5 -6.55 14.5 M-18.0 8.35 Q-19.1 4.7 -18.85 1.15 -18.8 0.0 -17.5 -3.65 -17.95 2.65 -18.0 8.35 M-11.25 -0.3 L-10.95 -7.3 -8.95 -7.05 -6.0 -6.2 -6.15 -2.5 -7.35 -2.7 -8.6 -2.5 Q-9.15 -2.3 -9.15 -2.1 L-8.6 -1.65 -7.4 -1.45 -6.2 -1.6 -6.3 1.65 -6.8 0.95 -6.85 0.9 Q-7.3 -0.25 -11.25 -0.3" fill="#6c9797" fill-rule="evenodd" stroke="none"/>
    <path d="M5.45 1.8 L6.05 2.3 6.5 2.3 7.5 2.3 7.5 3.25 2.5 3.25 2.5 1.55 5.45 1.8 M16.4 -8.3 L18.55 -8.6 21.4 -8.95 Q22.9 4.85 22.15 18.3 L21.35 22.95 Q20.75 26.15 18.35 27.6 17.45 28.15 16.15 28.5 L16.85 22.05 18.35 21.4 19.6 20.65 19.8 20.5 Q22.3 14.6 21.75 8.25 L21.35 1.5 20.9 -3.85 Q20.2 -6.1 17.6 -6.1 L16.65 -6.1 16.4 -8.3 M29.45 -1.0 L30.15 -1.25 30.3 -0.95 30.5 1.7 Q30.55 2.3 30.9 2.5 31.25 1.8 31.8 -0.7 L32.3 -3.85 32.85 -0.3 Q33.55 9.5 30.3 16.1 L30.2 16.3 29.6 17.3 29.2 17.95 Q29.9 8.55 29.45 -1.0 M2.2 23.85 L3.45 23.85 7.2 23.75 7.0 30.5 5.15 30.6 2.0 30.45 2.2 23.85 M-6.45 22.05 L-6.25 28.35 -7.6 27.75 -11.4 25.35 -11.55 18.85 -10.45 19.75 -6.85 21.85 -6.45 22.05 M-17.05 -9.85 L-17.5 -3.65 Q-18.8 0.0 -18.85 1.15 -19.1 4.7 -18.0 8.35 L-17.8 18.65 -18.2 18.1 -18.6 17.5 Q-21.35 13.3 -23.0 8.35 -22.9 -0.4 -22.0 -10.6 L-17.05 -9.85 M-10.95 -7.3 L-10.85 -9.1 -5.85 -8.8 -6.0 -6.2 -8.95 -7.05 -10.95 -7.3 M-17.75 -3.6 Q-17.75 -4.0 -20.1 -5.25 L-20.45 -4.15 -18.3 -3.3 Q-18.0 -3.4 -17.75 -3.6" fill="#597d7d" fill-rule="evenodd" stroke="none"/>
  </g>
</svg>
