<?xml version="1.0" encoding="UTF-8" standalone="no"?>
<svg xmlns:ffdec="https://www.free-decompiler.com/flash" xmlns:xlink="http://www.w3.org/1999/xlink" ffdec:objectType="shape" height="10.7px" width="13.1px" xmlns="http://www.w3.org/2000/svg">
  <g transform="matrix(1.0, 0.0, 0.0, 1.0, -30.0, 20.75)">
    <path d="M36.45 -19.45 L38.85 -20.55 40.2 -20.75 40.55 -20.75 Q41.65 -20.6 42.45 -19.5 L43.05 -18.15 43.05 -16.5 42.7 -15.4 Q42.15 -14.1 41.15 -12.9 L41.05 -12.75 39.3 -11.15 Q37.75 -10.2 35.95 -10.05 L35.0 -10.05 34.25 -10.1 Q33.4 -10.2 32.55 -10.8 L31.55 -11.75 Q29.7 -13.75 30.05 -16.6 30.05 -16.85 30.5 -17.1 L30.75 -17.3 32.6 -18.1 36.45 -19.45 M34.65 -16.85 L32.9 -16.15 31.3 -16.0 31.4 -15.45 32.05 -13.8 32.3 -13.2 Q33.05 -11.5 33.3 -11.5 L34.65 -11.55 35.7 -11.8 37.7 -12.6 39.5 -13.55 40.1 -14.0 Q41.3 -15.1 41.55 -16.35 L41.55 -16.5 Q41.7 -17.6 41.4 -18.35 L40.8 -19.5 40.75 -19.6 40.65 -19.6 Q39.4 -19.6 36.25 -17.7 L35.95 -17.5 34.65 -16.85" fill="#1e1e1e" fill-rule="evenodd" stroke="none"/>
    <path d="M34.65 -16.85 L35.95 -17.5 36.25 -17.7 Q39.4 -19.6 40.65 -19.6 L40.75 -19.6 40.8 -19.5 41.4 -18.35 Q41.7 -17.6 41.55 -16.5 L41.55 -16.35 Q41.3 -15.1 40.1 -14.0 L39.5 -13.55 37.7 -12.6 35.7 -11.8 34.65 -11.55 33.3 -11.5 Q33.05 -11.5 32.3 -13.2 L32.05 -13.8 31.4 -15.45 31.3 -16.0 32.9 -16.15 34.65 -16.85" fill="#666666" fill-rule="evenodd" stroke="none"/>
  </g>
</svg>
