<?xml version="1.0" encoding="UTF-8" standalone="no"?>
<svg xmlns:ffdec="https://www.free-decompiler.com/flash" xmlns:xlink="http://www.w3.org/1999/xlink" ffdec:objectType="shape" height="187.45px" width="61.95px" xmlns="http://www.w3.org/2000/svg">
  <g transform="matrix(1.0, 0.0, 0.0, 1.0, -1.2, -1.5)">
    <path d="M49.75 7.95 L51.25 9.8 51.15 9.9 50.25 10.4 49.55 10.75 49.75 8.15 49.75 7.95 M46.85 17.45 L46.85 17.6 Q46.85 22.6 49.45 24.9 50.6 25.9 52.2 26.4 L51.1 27.6 Q45.9 24.85 45.4 18.95 L46.85 17.45 M54.2 26.75 L55.1 26.75 56.7 26.45 58.3 25.95 Q57.9 27.7 57.9 29.3 57.9 30.1 59.95 31.3 L60.9 32.0 61.05 32.85 Q61.05 42.75 55.75 47.85 L55.35 46.2 Q55.35 45.1 55.95 41.75 L56.5 37.7 56.35 35.65 55.4 33.7 54.25 30.9 Q53.5 29.25 52.8 28.5 L54.2 26.75 M61.4 42.55 L61.65 43.0 61.9 43.55 Q63.45 46.75 63.1 47.65 L62.15 50.2 61.6 51.95 60.35 53.15 Q58.0 55.9 58.0 60.65 58.0 63.65 58.65 65.75 58.5 66.65 58.5 70.2 56.7 74.3 56.9 74.45 L58.0 77.5 Q58.9 80.5 58.7 80.85 58.45 81.2 57.7 83.75 56.9 86.25 56.9 87.85 56.9 89.5 57.5 91.15 58.05 92.8 58.05 94.1 L56.5 99.5 57.1 101.45 57.9 104.3 Q58.1 105.2 56.85 107.25 L55.45 109.7 Q55.3 110.1 55.5 111.45 L55.75 113.4 54.4 117.25 Q53.1 121.0 53.05 122.45 52.95 125.6 52.0 126.8 L51.4 127.6 Q51.15 128.1 51.6 129.0 L52.75 132.0 Q53.05 133.2 52.15 134.4 L50.05 137.0 Q49.85 137.3 49.9 137.9 47.7 139.2 45.15 139.75 L45.75 136.8 48.55 123.8 Q50.15 115.6 51.35 111.5 54.15 107.5 54.15 102.25 53.9 99.25 53.3 96.2 L52.95 94.5 53.2 93.9 Q53.2 93.0 52.15 91.9 51.3 89.75 50.35 89.35 L50.9 92.35 50.45 92.8 Q49.3 94.15 46.9 94.9 L46.8 94.95 47.5 92.0 48.25 90.6 Q49.2 90.25 50.1 87.65 52.0 84.75 52.05 83.7 L51.85 81.1 51.7 79.6 51.95 77.9 52.95 76.1 Q54.2 74.2 54.2 71.25 L53.8 69.1 53.4 66.9 Q53.4 66.15 55.55 60.55 57.7 54.95 57.7 51.3 L56.8 49.9 59.5 46.3 61.4 42.55 M62.0 54.75 L61.95 57.25 Q61.8 59.55 60.3 62.35 L60.2 62.55 60.0 62.9 59.9 60.7 Q59.9 56.8 61.35 55.25 L62.0 54.75 M50.2 141.1 L49.2 144.25 47.8 147.8 Q47.6 148.05 48.0 149.2 48.4 150.3 48.4 152.15 L48.0 154.95 Q46.55 151.9 44.2 150.2 44.4 148.1 44.95 147.3 45.8 146.8 45.8 146.25 L45.25 144.6 44.7 143.2 44.7 142.9 Q47.65 142.6 50.2 141.1 M47.0 158.4 Q46.85 159.6 47.4 161.05 L47.75 161.95 47.8 163.5 Q47.8 166.25 46.3 172.75 L46.25 173.0 46.1 168.35 45.85 167.2 46.15 166.9 Q46.4 166.75 46.45 167.25 L45.25 159.6 44.1 153.35 Q45.3 154.6 46.15 156.4 L47.0 158.4 M45.0 184.0 L44.4 184.65 Q39.9 189.3 35.7 188.95 31.45 188.55 29.95 187.0 L28.15 184.2 29.05 181.95 29.9 178.95 32.9 182.5 Q35.05 185.25 36.7 185.25 39.05 185.25 40.7 183.5 42.2 181.9 45.6 176.15 44.75 180.15 44.75 182.3 L44.85 183.85 45.0 184.0 M27.9 183.95 L24.9 180.4 Q22.85 177.85 22.85 175.55 L22.55 171.9 Q22.35 170.5 21.45 169.75 L20.25 168.65 Q19.9 168.25 19.7 167.05 19.6 166.3 19.85 164.5 20.0 163.15 19.2 161.7 18.35 160.2 17.45 156.5 16.55 152.8 16.65 152.25 L17.0 148.75 Q17.3 145.75 17.8 145.05 18.25 144.35 18.05 143.0 L17.8 141.0 Q17.8 140.7 19.2 139.3 L21.35 136.9 21.6 136.5 23.05 136.35 Q21.35 139.05 21.35 139.4 21.35 140.4 22.45 143.5 L22.65 146.3 22.25 148.6 21.85 150.85 Q21.85 152.75 23.5 155.15 L25.15 157.5 24.2 159.3 Q23.2 161.55 23.2 165.1 L24.75 167.45 Q26.25 169.85 26.25 170.35 26.25 171.05 25.45 172.25 L24.6 173.65 Q24.6 174.95 28.65 177.85 L28.95 178.05 Q28.7 182.1 27.9 183.95 M23.65 133.15 L24.3 131.9 Q25.1 130.35 26.0 126.85 L26.75 123.55 26.85 120.25 Q26.8 117.7 26.15 117.7 26.25 116.95 25.8 115.6 24.9 112.9 21.7 110.05 L21.6 109.95 20.8 107.85 Q19.4 104.45 17.65 103.0 17.8 100.45 17.4 98.2 L16.7 95.9 17.05 95.85 Q19.75 95.85 21.55 99.3 L23.8 105.0 22.65 108.85 Q22.65 109.8 23.2 110.0 L24.55 110.25 Q26.65 111.1 27.6 117.45 28.25 121.85 28.25 124.35 27.9 128.55 25.05 133.2 L23.65 133.15 M18.7 108.15 L17.3 107.1 17.3 107.0 17.4 105.8 18.7 108.15 M15.7 93.35 L11.35 83.25 Q5.75 70.75 6.2 65.8 6.6 60.8 3.45 57.85 0.3 54.9 1.55 50.55 L3.5 44.05 2.15 40.95 Q2.6 38.55 4.3 36.35 6.0 34.1 6.0 33.45 L5.65 31.35 5.15 28.7 Q5.05 27.6 6.95 25.4 8.85 23.15 9.05 20.1 9.25 17.0 9.85 15.85 10.45 14.65 12.8 11.4 15.1 8.1 20.5 5.4 L27.1 1.95 30.9 1.7 34.9 1.85 36.85 1.5 Q39.35 1.5 44.2 4.05 L48.15 6.5 49.15 7.35 49.0 7.3 47.25 13.0 Q46.55 15.05 45.65 16.3 L46.7 11.85 43.05 6.05 Q37.85 5.8 34.4 6.0 L34.4 5.6 34.35 5.8 33.8 5.55 33.25 6.05 30.2 6.5 Q29.45 6.7 26.75 8.5 24.35 10.05 22.15 10.15 19.9 10.2 19.6 11.3 L19.35 12.15 18.35 12.1 17.15 12.5 Q16.15 12.95 15.5 13.65 L15.6 14.65 17.55 14.6 15.7 15.5 Q13.3 16.7 13.3 17.9 L13.95 19.75 Q11.55 20.05 11.1 20.9 L12.3 21.95 14.65 21.45 15.05 22.55 Q15.05 23.75 13.75 24.4 11.95 25.25 11.0 26.85 10.1 28.4 10.3 29.4 10.8 31.95 10.8 34.05 10.8 35.1 9.4 38.3 8.15 41.25 6.9 43.3 L7.15 44.4 7.3 44.85 Q8.0 41.95 10.75 38.1 13.3 34.55 14.85 33.75 L17.85 33.15 21.1 32.7 Q21.4 32.8 22.3 33.4 L21.85 34.7 Q20.7 34.15 19.7 34.15 14.8 34.15 11.15 39.7 9.2 42.65 8.4 45.85 6.15 47.55 4.85 49.25 L4.75 49.7 5.35 49.85 7.85 49.65 7.8 50.7 Q7.8 54.95 9.65 57.2 L11.3 58.6 Q10.75 60.85 10.75 63.45 L10.85 64.1 10.4 65.25 Q10.4 66.0 11.3 67.4 L11.75 70.7 Q12.6 74.65 13.7 76.45 13.75 77.6 14.25 78.55 L15.5 80.35 Q16.1 81.1 17.65 86.95 L19.2 89.2 Q20.6 91.3 20.65 92.15 L20.85 94.4 Q19.0 93.15 16.35 93.15 L15.7 93.35 M23.7 35.95 L24.3 34.7 25.65 35.7 Q26.75 37.5 27.7 41.7 L28.5 46.7 27.0 46.55 Q26.95 42.4 25.8 39.15 24.9 36.6 24.45 36.6 L23.7 35.95 M26.45 49.3 L27.8 49.45 26.95 51.4 Q25.25 55.2 23.15 57.5 L21.05 59.05 18.8 60.5 16.5 61.05 13.45 60.85 13.7 59.45 15.5 59.6 Q16.95 59.6 19.3 58.75 22.05 57.7 22.05 56.5 L25.8 50.9 26.45 49.3 M40.55 67.4 Q42.75 66.55 44.5 66.45 47.2 67.2 47.9 68.2 49.2 69.95 49.05 75.15 48.95 77.15 48.45 78.55 48.45 80.4 46.9 81.7 45.3 83.0 43.1 83.0 L40.9 82.55 38.85 81.95 Q38.0 81.5 37.1 79.75 L36.15 77.45 Q35.1 74.5 36.0 72.2 L37.3 70.1 Q38.25 69.0 40.55 67.4 M37.05 74.6 Q37.05 81.5 42.9 81.5 45.35 81.5 46.45 79.6 47.6 77.6 47.6 73.15 47.6 69.8 46.1 68.55 45.4 67.95 44.4 67.95 41.05 67.95 38.8 70.7 37.05 72.85 37.05 74.6 M51.75 97.3 L51.95 98.9 51.65 97.95 51.75 97.3 M33.35 156.85 L36.2 155.9 38.25 155.4 Q39.25 155.4 39.85 155.7 40.85 156.05 41.75 157.05 42.8 158.15 43.05 159.45 L43.35 162.05 Q43.15 163.25 42.1 165.3 41.05 167.4 40.15 168.3 37.5 170.15 35.25 170.15 L33.8 170.05 33.05 169.9 Q31.6 169.9 30.6 167.7 29.6 165.5 29.6 162.4 30.3 160.5 31.8 158.2 L33.35 156.85 M38.1 156.9 Q35.1 156.9 32.95 159.2 30.8 161.55 30.8 164.8 30.8 168.65 35.25 168.65 37.2 168.65 38.35 168.0 L39.1 167.25 Q39.1 166.7 40.5 164.7 41.85 162.75 41.85 162.15 41.85 158.95 40.2 157.65 39.25 156.9 38.1 156.9" fill="#4f5218" fill-rule="evenodd" stroke="none"/>
    <path d="M45.65 16.3 Q44.65 17.7 43.4 18.0 L43.2 16.45 43.2 13.0 Q43.2 11.15 42.2 9.95 41.0 8.5 38.45 8.5 L33.7 8.8 33.65 7.9 Q33.65 7.4 34.05 7.0 L34.4 6.1 34.4 6.0 Q37.85 5.8 43.05 6.05 L46.7 11.85 45.65 16.3 M33.25 6.05 Q32.25 7.15 32.25 9.0 29.15 9.6 27.4 10.9 L24.3 14.3 Q22.4 12.4 19.35 12.15 L19.6 11.3 Q19.9 10.2 22.15 10.15 24.35 10.05 26.75 8.5 29.45 6.7 30.2 6.5 L33.25 6.05 M43.8 19.7 L45.4 18.95 Q45.9 24.85 51.1 27.6 L49.1 29.1 48.75 29.35 45.25 23.25 Q44.3 21.55 43.8 19.7 M52.8 28.5 Q53.5 29.25 54.25 30.9 L55.4 33.7 56.35 35.65 56.5 37.7 55.95 41.75 Q55.35 45.1 55.35 46.2 L55.75 47.85 54.45 48.95 50.5 51.25 Q49.6 48.9 47.15 46.7 L41.65 41.35 41.7 40.8 44.65 40.65 46.7 42.0 Q48.8 43.35 49.35 43.35 L50.2 43.3 50.9 43.05 51.2 40.35 51.35 37.6 Q51.35 34.05 49.95 31.35 L49.75 31.0 Q51.25 30.1 52.45 28.85 L52.8 28.5 M17.55 14.6 L19.05 14.4 Q21.05 14.4 22.6 16.1 L21.15 17.55 Q20.2 18.55 19.8 20.65 18.4 19.6 16.75 19.6 L13.95 19.75 13.3 17.9 Q13.3 16.7 15.7 15.5 L17.55 14.6 M14.65 21.45 L16.5 21.35 Q18.1 21.35 19.45 23.05 L18.9 25.6 15.9 30.0 14.45 32.1 14.85 33.75 Q13.3 34.55 10.75 38.1 8.0 41.95 7.3 44.85 L7.15 44.4 6.9 43.3 Q8.15 41.25 9.4 38.3 10.8 35.1 10.8 34.05 10.8 31.95 10.3 29.4 10.1 28.4 11.0 26.85 11.95 25.25 13.75 24.4 15.05 23.75 15.05 22.55 L14.65 21.45 M51.0 53.9 Q54.2 52.65 56.8 49.9 L57.7 51.3 Q57.7 54.95 55.55 60.55 53.4 66.15 53.4 66.9 L53.8 69.1 54.2 71.25 Q54.2 74.2 52.95 76.1 L51.95 77.9 52.15 76.1 Q52.15 70.25 50.75 66.85 L49.3 64.15 50.75 59.45 50.5 58.35 Q50.2 57.55 50.2 57.05 L50.6 55.5 51.0 53.95 51.0 53.9 M51.7 79.6 L51.85 81.1 52.05 83.7 Q52.0 84.75 50.1 87.65 50.95 84.85 51.7 79.6 M48.25 90.6 L47.5 92.0 47.65 90.6 48.0 90.6 48.25 90.6 M46.8 94.95 L46.9 94.9 Q49.3 94.15 50.45 92.8 L50.9 92.35 51.3 94.8 51.75 97.3 51.65 97.95 51.95 98.9 52.25 101.95 Q52.25 109.25 47.1 112.9 L45.0 114.2 45.75 112.45 Q47.8 109.5 48.15 108.35 L48.15 106.4 48.15 103.7 48.5 100.55 48.45 99.45 48.35 99.25 45.85 99.9 44.55 99.8 45.9 97.35 46.8 94.95 M52.15 91.9 Q53.2 93.0 53.2 93.9 L52.95 94.5 52.15 91.9 M51.35 111.5 Q50.15 115.6 48.55 123.8 L45.75 136.8 45.15 139.75 41.3 140.15 41.25 140.15 42.5 138.0 Q44.2 134.85 44.2 131.9 L43.8 129.95 43.4 127.95 43.8 125.6 44.35 123.4 43.95 120.75 Q43.95 118.75 44.3 117.0 47.95 115.6 50.45 112.65 L51.35 111.5 M18.8 60.5 L24.9 64.95 Q26.65 66.4 26.65 67.35 26.65 68.75 25.05 68.75 24.5 68.75 21.45 67.2 L18.15 65.5 15.55 64.65 14.65 65.3 Q14.2 65.75 14.2 66.2 14.2 68.2 16.55 69.55 18.85 70.9 18.85 71.6 L18.0 73.7 Q17.1 75.35 17.1 76.4 17.1 79.25 19.45 79.6 21.75 80.0 21.75 82.05 L21.4 84.15 21.0 86.2 22.9 89.1 Q25.1 92.45 26.25 95.15 27.95 98.95 29.05 100.35 30.9 102.6 33.05 101.95 L33.9 102.75 Q32.0 104.9 28.75 106.9 L27.35 108.15 25.95 104.4 Q24.05 98.3 23.0 96.65 22.1 95.25 20.85 94.4 L20.65 92.15 Q20.6 91.3 19.2 89.2 L17.65 86.95 Q16.1 81.1 15.5 80.35 L14.25 78.55 Q13.75 77.6 13.7 76.45 14.65 77.9 15.75 77.9 L16.45 77.85 16.75 77.6 16.8 76.65 Q16.8 74.45 15.05 70.05 13.25 65.65 13.25 63.55 L13.45 60.85 16.5 61.05 18.8 60.5 M48.45 78.55 Q48.95 77.15 49.05 75.15 L49.75 73.7 Q49.55 75.85 48.55 79.75 L48.45 78.55 M10.85 64.1 L11.3 67.4 Q10.4 66.0 10.4 65.25 L10.85 64.1 M46.8 88.15 L46.75 88.65 45.25 94.2 Q44.15 97.85 42.7 99.25 L42.1 98.9 Q40.7 98.0 40.7 96.9 42.9 94.7 44.95 91.45 L46.8 88.15 M44.7 142.9 L44.7 143.2 45.25 144.6 45.8 146.25 Q45.8 146.8 44.95 147.3 44.4 148.1 44.2 150.2 L42.3 149.1 42.75 146.8 41.65 145.9 Q40.95 144.8 40.8 142.55 L43.0 143.0 44.7 142.9 M27.6 117.45 Q26.65 111.1 24.55 110.25 L23.2 110.0 Q22.65 109.8 22.65 108.85 L23.8 105.0 24.55 107.0 Q25.8 110.4 27.5 112.75 L27.65 113.25 28.1 113.65 Q28.55 114.2 28.55 114.8 L28.25 116.15 27.6 117.45 M28.25 124.35 L31.95 124.85 Q33.25 125.05 33.25 126.75 33.25 129.7 28.8 132.2 L26.85 133.4 25.05 133.2 Q27.9 128.55 28.25 124.35 M23.05 136.35 L23.45 136.35 24.4 136.4 24.35 136.9 Q24.35 137.9 25.2 143.2 L24.35 149.7 Q25.1 150.8 27.5 151.65 25.55 154.25 25.55 158.5 25.55 162.55 27.3 168.25 L29.0 174.65 28.95 178.05 28.65 177.85 Q24.6 174.95 24.6 173.65 L25.45 172.25 Q26.25 171.05 26.25 170.35 26.25 169.85 24.75 167.45 L23.2 165.1 Q23.2 161.55 24.2 159.3 L25.15 157.5 23.5 155.15 Q21.85 152.75 21.85 150.85 L22.25 148.6 22.65 146.3 22.45 143.5 Q21.35 140.4 21.35 139.4 21.35 139.05 23.05 136.35 M42.1 151.8 Q43.2 152.4 44.1 153.35 L45.25 159.6 46.45 167.25 Q46.4 166.75 46.15 166.9 L45.85 167.2 46.1 168.35 46.25 173.0 45.6 176.1 45.6 176.15 Q42.2 181.9 40.7 183.5 39.05 185.25 36.7 185.25 35.05 185.25 32.9 182.5 L29.9 178.95 30.3 176.5 30.9 177.05 Q32.95 178.65 36.45 178.65 40.55 178.65 42.25 174.0 43.85 169.75 43.35 162.05 L43.05 159.45 42.1 151.8 M28.7 152.05 L30.45 152.5 30.6 152.4 30.7 153.05 28.75 154.65 Q28.0 155.3 27.55 155.9 27.3 153.25 28.7 152.05 M28.05 158.6 L28.95 158.6 31.8 158.2 Q30.3 160.5 29.6 162.4 L28.95 162.65 28.05 158.6" fill="#7b8026" fill-rule="evenodd" stroke="none"/>
    <path d="M43.4 18.0 L42.8 18.05 Q40.0 18.05 36.8 14.5 34.1 11.5 33.7 8.8 L38.45 8.5 Q41.0 8.5 42.2 9.95 43.2 11.15 43.2 13.0 L43.2 16.45 43.4 18.0 M32.25 9.0 Q32.25 12.15 33.8 14.55 28.8 14.8 26.55 18.15 25.65 15.95 25.0 15.1 L24.3 14.3 27.4 10.9 Q29.15 9.6 32.25 9.0 M39.4 19.0 Q41.2 19.8 42.85 19.8 L43.8 19.7 Q44.3 21.55 45.25 23.25 L48.75 29.35 Q46.75 30.5 44.55 31.0 43.05 28.7 39.6 19.6 L39.4 19.0 M49.75 31.0 L49.95 31.35 Q51.35 34.05 51.35 37.6 L51.2 40.35 50.9 43.05 50.2 43.3 49.35 43.35 Q48.8 43.35 46.7 42.0 L44.65 40.65 41.7 40.8 41.65 41.35 47.15 46.7 Q49.6 48.9 50.5 51.25 L47.45 52.15 Q46.3 49.4 42.95 46.75 37.8 42.8 37.8 39.9 37.8 38.5 41.4 36.75 44.95 35.0 44.95 32.95 47.65 32.3 49.75 31.0 M22.6 16.1 L23.55 17.4 25.3 21.05 Q24.75 22.85 23.95 26.3 L23.75 27.0 22.8 24.75 Q21.45 21.95 19.8 20.65 20.2 18.55 21.15 17.55 L22.6 16.1 M19.45 23.05 Q20.35 24.15 21.15 26.0 22.05 28.05 22.55 30.2 L21.1 32.7 17.85 33.15 14.85 33.75 14.45 32.1 15.9 30.0 18.9 25.6 19.45 23.05 M48.05 54.75 L51.0 53.9 51.0 53.95 50.6 55.5 50.2 57.05 Q50.2 57.55 50.5 58.35 L50.75 59.45 49.3 64.15 Q48.1 62.45 46.45 61.35 L46.65 60.75 Q48.05 56.5 48.05 55.05 L48.05 54.75 M29.65 64.35 L40.55 67.4 Q38.25 69.0 37.3 70.1 L36.5 69.55 Q36.05 69.25 35.4 69.25 33.9 69.25 33.0 70.65 32.4 71.6 30.95 72.0 L29.55 66.35 Q29.4 65.2 29.65 64.35 M44.5 66.45 L45.7 63.55 Q47.15 64.7 48.15 66.5 L48.8 67.8 49.55 70.25 49.8 72.6 49.75 73.7 49.05 75.15 Q49.2 69.95 47.9 68.2 47.2 67.2 44.5 66.45 M18.8 60.5 L21.05 59.05 23.15 57.5 Q24.85 59.1 25.35 58.55 25.5 58.4 26.3 60.55 26.7 61.7 27.6 62.8 L28.55 63.8 Q27.55 65.7 27.55 68.3 27.55 70.15 28.05 72.35 26.05 72.55 24.8 73.1 22.95 73.85 22.95 75.15 L25.2 82.5 Q27.4 89.7 27.4 90.5 27.4 95.7 29.75 98.05 31.45 99.8 34.05 99.8 L35.1 99.7 Q38.25 102.1 40.85 102.1 42.95 102.1 44.55 99.8 L45.85 99.9 48.35 99.25 48.45 99.45 48.5 100.55 48.15 103.7 48.15 106.4 48.15 108.35 Q47.8 109.5 45.75 112.45 L45.0 114.2 Q43.35 115.0 41.6 115.35 42.1 114.15 43.35 113.0 45.45 111.05 45.45 105.8 45.45 104.2 44.9 103.55 44.15 102.65 41.85 102.65 40.0 102.65 36.05 108.7 34.0 111.8 33.0 114.4 31.1 113.5 29.75 112.05 28.45 110.65 27.35 108.15 L28.75 106.9 Q32.0 104.9 33.9 102.75 L33.05 101.95 Q30.9 102.6 29.05 100.35 27.95 98.95 26.25 95.15 25.1 92.45 22.9 89.1 L21.0 86.2 21.4 84.15 21.75 82.05 Q21.75 80.0 19.45 79.6 17.1 79.25 17.1 76.4 17.1 75.35 18.0 73.7 L18.85 71.6 Q18.85 70.9 16.55 69.55 14.2 68.2 14.2 66.2 14.2 65.75 14.65 65.3 L15.55 64.65 18.15 65.5 21.45 67.2 Q24.5 68.75 25.05 68.75 26.65 68.75 26.65 67.35 26.65 66.4 24.9 64.95 L18.8 60.5 M43.1 83.0 Q45.3 83.0 46.9 81.7 48.45 80.4 48.45 78.55 L48.55 79.75 48.3 80.6 Q46.95 85.55 46.8 88.15 L44.95 91.45 Q42.9 94.7 40.7 96.9 40.7 98.0 42.1 98.9 L42.7 99.25 Q41.8 100.1 40.8 100.1 39.05 100.1 37.2 98.5 L37.45 97.45 36.75 96.35 Q36.05 95.55 36.05 94.8 41.8 85.75 43.1 83.0 M38.95 139.3 L39.85 137.1 Q42.5 130.7 42.5 122.6 42.5 120.55 41.85 118.65 L41.5 117.75 44.3 117.0 Q43.95 118.75 43.95 120.75 L44.35 123.4 43.8 125.6 43.4 127.95 43.8 129.95 44.2 131.9 Q44.2 134.85 42.5 138.0 L41.25 140.15 Q40.5 140.1 38.95 139.3 M32.15 117.0 L31.9 119.05 Q31.9 121.1 34.85 122.45 37.8 123.85 37.8 126.0 37.8 129.8 36.3 131.5 35.65 132.25 33.1 133.6 32.2 134.05 31.45 134.8 29.25 133.8 26.85 133.4 L28.8 132.2 Q33.25 129.7 33.25 126.75 33.25 125.05 31.95 124.85 L28.25 124.35 Q28.25 121.85 27.6 117.45 L28.25 116.15 28.55 114.8 Q28.55 114.2 28.1 113.65 L27.65 113.25 27.5 112.75 Q29.5 115.65 32.15 117.0 M40.8 142.55 Q40.95 144.8 41.65 145.9 L42.75 146.8 42.3 149.1 Q40.15 148.15 37.55 148.0 37.15 146.55 37.15 144.95 37.15 144.1 38.1 141.5 L40.8 142.55 M24.4 136.4 Q26.75 136.55 29.55 137.6 28.35 140.35 28.35 144.8 28.35 147.8 30.45 149.2 29.2 149.8 28.25 150.75 L27.5 151.65 Q25.1 150.8 24.35 149.7 L25.2 143.2 Q24.35 137.9 24.35 136.9 L24.4 136.4 M38.5 150.55 Q40.5 150.85 42.1 151.8 L43.05 159.45 Q42.8 158.15 41.75 157.05 40.85 156.05 39.85 155.7 39.4 152.9 38.5 150.55 M33.05 150.6 Q34.3 151.4 34.3 152.3 L31.5 155.35 Q31.5 156.05 32.0 156.3 L33.35 156.85 31.8 158.2 28.95 158.6 28.05 158.6 27.55 156.2 27.55 155.9 Q28.0 155.3 28.75 154.65 L30.7 153.05 30.6 152.4 30.45 152.5 28.7 152.05 28.9 151.85 Q30.2 150.9 33.05 150.6 M28.95 162.65 L29.6 162.4 Q29.6 165.5 30.6 167.7 31.6 169.9 33.05 169.9 33.95 172.1 35.65 173.45 36.9 174.45 37.6 174.45 38.7 174.45 39.2 173.3 39.75 172.05 40.15 168.3 41.05 167.4 42.1 165.3 43.15 163.25 43.35 162.05 43.85 169.75 42.25 174.0 40.55 178.65 36.45 178.65 32.95 178.65 30.9 177.05 L30.3 176.5 30.4 174.15 Q30.4 169.35 29.15 163.65 L28.95 162.65" fill="#a2a832" fill-rule="evenodd" stroke="none"/>
    <path d="M33.8 14.55 Q34.95 16.25 36.85 17.55 38.15 18.45 39.4 19.0 L39.6 19.6 Q43.05 28.7 44.55 31.0 L41.1 31.35 38.3 31.2 38.55 30.9 Q39.55 29.8 39.55 27.6 39.55 25.1 36.8 22.85 34.6 21.05 33.7 21.05 31.5 21.05 29.95 22.8 29.3 23.55 29.0 24.25 L27.95 21.75 26.55 18.15 Q28.8 14.8 33.8 14.55 M25.3 21.05 L26.55 24.0 Q30.75 33.6 39.0 33.6 L44.95 32.95 Q44.95 35.0 41.4 36.75 37.8 38.5 37.8 39.9 37.8 42.8 42.95 46.75 46.3 49.4 47.45 52.15 L43.3 52.55 42.75 52.5 Q41.6 49.0 38.6 47.6 36.65 46.7 35.2 47.6 L34.45 48.3 Q33.1 47.7 31.7 47.35 32.85 47.0 33.9 45.75 35.8 43.55 35.8 40.35 35.8 37.4 34.1 35.35 32.4 33.35 30.0 33.35 L28.3 34.0 Q26.6 34.8 25.65 35.7 L24.3 34.7 Q24.8 33.45 24.8 32.5 24.8 29.9 23.75 27.0 L23.95 26.3 Q24.75 22.85 25.3 21.05 M22.55 30.2 L22.65 30.8 22.3 33.4 Q21.4 32.8 21.1 32.7 L22.55 30.2 M27.8 49.45 Q30.45 49.8 33.7 51.05 L33.7 51.1 Q33.7 54.85 35.85 58.3 L36.55 59.35 Q32.55 59.7 30.25 61.65 29.2 62.55 28.55 63.8 L27.6 62.8 Q26.7 61.7 26.3 60.55 25.5 58.4 25.35 58.55 24.85 59.1 23.15 57.5 25.25 55.2 26.95 51.4 L27.8 49.45 M43.25 54.75 L45.0 55.0 48.05 54.75 48.05 55.05 Q48.05 56.5 46.65 60.75 L46.45 61.35 Q44.9 60.3 43.0 59.8 43.45 58.9 43.45 57.55 L43.25 54.75 M32.9 55.75 Q32.9 54.2 31.95 53.1 30.95 52.0 29.6 52.0 28.25 52.0 27.3 53.1 26.3 54.2 26.3 55.75 26.3 57.3 27.3 58.4 28.25 59.5 29.6 59.5 30.95 59.5 31.95 58.4 32.9 57.3 32.9 55.75 M38.85 61.35 L39.95 61.6 40.8 61.5 Q43.7 61.95 45.7 63.55 L44.5 66.45 Q42.75 66.55 40.55 67.4 L29.65 64.35 Q29.95 63.25 30.9 62.6 32.9 61.35 38.5 61.35 L38.85 61.35 M33.0 114.4 Q34.0 111.8 36.05 108.7 40.0 102.65 41.85 102.65 44.15 102.65 44.9 103.55 45.45 104.2 45.45 105.8 45.45 111.05 43.35 113.0 42.1 114.15 41.6 115.35 L39.85 115.55 42.05 110.3 Q43.85 106.25 40.8 106.25 37.85 106.25 36.35 110.25 35.45 112.7 35.35 115.2 L33.0 114.4 M35.1 99.7 L34.05 99.8 Q31.45 99.8 29.75 98.05 27.4 95.7 27.4 90.5 27.4 89.7 25.2 82.5 L22.95 75.15 Q22.95 73.85 24.8 73.1 26.05 72.55 28.05 72.35 28.45 74.35 29.3 76.7 L29.4 76.95 29.25 77.25 Q28.2 79.55 28.2 81.8 28.2 85.15 29.9 87.75 L30.45 88.55 30.25 89.3 29.3 91.05 29.35 91.45 29.5 91.55 30.25 90.2 Q30.35 92.3 30.95 94.1 L30.85 94.8 Q30.85 95.65 31.4 96.3 31.8 96.75 32.35 96.9 33.35 98.3 34.85 99.5 L35.1 99.7 M30.95 72.0 Q32.4 71.6 33.0 70.65 33.9 69.25 35.4 69.25 36.05 69.25 36.5 69.55 L37.3 70.1 36.0 72.2 Q35.1 74.5 36.15 77.45 L35.0 78.4 Q35.45 77.0 34.25 75.85 33.15 74.8 31.75 74.8 L31.65 74.8 31.15 72.75 30.95 72.0 M38.85 81.95 L40.9 82.55 43.1 83.0 Q41.8 85.75 36.05 94.8 36.05 95.55 36.75 96.35 L37.45 97.45 37.2 98.5 Q36.0 97.55 34.8 95.95 L34.45 95.5 34.55 94.8 Q34.55 93.95 34.0 93.35 33.45 92.7 32.75 92.7 32.0 91.2 31.8 89.75 L32.65 90.0 Q36.35 90.0 38.85 81.95 M41.5 117.75 L41.85 118.65 Q42.5 120.55 42.5 122.6 42.5 130.7 39.85 137.1 L38.95 139.3 Q37.35 138.4 34.85 136.7 L31.45 134.8 Q32.2 134.05 33.1 133.6 35.65 132.25 36.3 131.5 37.8 129.8 37.8 126.0 37.8 123.85 34.85 122.45 31.9 121.1 31.9 119.05 L32.15 117.0 Q33.7 117.8 35.5 118.05 35.8 120.6 36.9 122.05 37.95 123.5 39.3 123.5 L39.85 123.45 Q40.5 122.95 40.5 121.85 L40.0 120.4 39.5 118.05 41.5 117.75 M29.55 137.6 L31.55 138.35 31.45 138.5 Q30.75 139.65 30.75 141.35 30.75 143.05 31.45 144.25 32.15 145.4 33.15 145.4 34.15 145.4 34.85 144.25 35.55 143.05 35.55 141.35 L35.5 140.25 38.1 141.5 Q37.15 144.1 37.15 144.95 37.15 146.55 37.55 148.0 L36.5 147.95 Q32.85 147.95 30.45 149.2 28.35 147.8 28.35 144.8 28.35 140.35 29.55 137.6 M33.05 150.6 L36.5 150.4 38.5 150.55 Q39.4 152.9 39.85 155.7 39.25 155.4 38.25 155.4 L36.2 155.9 33.35 156.85 32.0 156.3 Q31.5 156.05 31.5 155.35 L34.3 152.3 Q34.3 151.4 33.05 150.6 M33.05 169.9 L33.8 170.05 35.25 170.15 Q37.5 170.15 40.15 168.3 39.75 172.05 39.2 173.3 38.7 174.45 37.6 174.45 36.9 174.45 35.65 173.45 33.95 172.1 33.05 169.9" fill="#cacf5c" fill-rule="evenodd" stroke="none"/>
    <path d="M38.3 31.2 Q34.2 30.6 31.75 28.35 30.25 26.95 29.0 24.25 29.3 23.55 29.95 22.8 31.5 21.05 33.7 21.05 34.6 21.05 36.8 22.85 39.55 25.1 39.55 27.6 39.55 29.8 38.55 30.9 L38.3 31.2 M25.65 35.7 Q26.6 34.8 28.3 34.0 L30.0 33.35 Q32.4 33.35 34.1 35.35 35.8 37.4 35.8 40.35 35.8 43.55 33.9 45.75 32.85 47.0 31.7 47.35 L28.5 46.7 27.7 41.7 Q26.75 37.5 25.65 35.7 M34.45 48.3 L35.2 47.6 Q36.65 46.7 38.6 47.6 41.6 49.0 42.75 52.5 41.05 52.05 36.85 49.55 35.7 48.85 34.45 48.3 M33.7 51.05 L36.4 52.15 Q40.85 54.1 43.25 54.75 L43.45 57.55 Q43.45 58.9 43.0 59.8 L38.5 59.25 36.55 59.35 35.85 58.3 Q33.7 54.85 33.7 51.1 L33.7 51.05 M40.8 61.5 L39.95 61.6 38.85 61.35 40.8 61.5 M32.9 55.75 Q32.9 57.3 31.95 58.4 30.95 59.5 29.6 59.5 28.25 59.5 27.3 58.4 26.3 57.3 26.3 55.75 26.3 54.2 27.3 53.1 28.25 52.0 29.6 52.0 30.95 52.0 31.95 53.1 32.9 54.2 32.9 55.75 M31.65 74.8 L31.75 74.8 Q33.15 74.8 34.25 75.85 35.45 77.0 35.0 78.4 L36.15 77.45 37.1 79.75 Q38.0 81.5 38.85 81.95 36.35 90.0 32.65 90.0 L31.8 89.75 31.65 88.3 Q31.65 87.7 32.05 87.25 L32.4 86.2 32.4 85.6 32.35 85.85 32.0 85.6 Q32.4 83.7 32.4 81.8 32.4 78.55 31.65 74.8 M30.45 88.55 L29.9 87.75 Q28.2 85.15 28.2 81.8 28.2 79.55 29.25 77.25 L29.4 76.95 Q31.0 81.6 31.0 82.2 L30.75 87.0 30.45 88.55 M32.75 92.7 Q33.45 92.7 34.0 93.35 34.55 93.95 34.55 94.8 L34.45 95.5 32.75 92.7 M30.95 94.1 Q31.45 95.6 32.35 96.9 31.8 96.75 31.4 96.3 30.85 95.65 30.85 94.8 L30.95 94.1 M35.35 115.2 Q35.45 112.7 36.35 110.25 37.85 106.25 40.8 106.25 43.85 106.25 42.05 110.3 L39.85 115.55 39.1 115.55 35.35 115.2 M39.5 118.05 L40.0 120.4 40.5 121.85 Q40.5 122.95 39.85 123.45 L39.3 123.5 Q37.95 123.5 36.9 122.05 35.8 120.6 35.5 118.05 L37.0 118.15 39.5 118.05 M31.55 138.35 L34.4 139.7 35.5 140.25 35.55 141.35 Q35.55 143.05 34.85 144.25 34.15 145.4 33.15 145.4 32.15 145.4 31.45 144.25 30.75 143.05 30.75 141.35 30.75 139.65 31.45 138.5 L31.55 138.35" fill="#dcdf95" fill-rule="evenodd" stroke="none"/>
    <path d="M49.55 10.75 Q48.95 11.1 48.85 11.2 46.9 13.15 46.85 17.45 L45.4 18.95 43.8 19.7 42.85 19.8 Q41.2 19.8 39.4 19.0 38.15 18.45 36.85 17.55 34.95 16.25 33.8 14.55 32.25 12.15 32.25 9.0 32.25 7.15 33.25 6.05 L33.8 5.55 34.35 5.8 34.4 5.6 34.4 6.0 34.4 6.1 34.05 7.0 Q33.65 7.4 33.65 7.9 L33.7 8.8 Q34.1 11.5 36.8 14.5 40.0 18.05 42.8 18.05 L43.4 18.0 Q44.65 17.7 45.65 16.3 46.55 15.05 47.25 13.0 L49.0 7.3 49.15 7.35 49.75 7.95 49.75 8.15 49.55 10.75 M52.2 26.4 L54.2 26.75 52.8 28.5 52.45 28.85 Q51.25 30.1 49.75 31.0 47.65 32.3 44.95 32.95 L39.0 33.6 Q30.75 33.6 26.55 24.0 L25.3 21.05 23.55 17.4 22.6 16.1 Q21.05 14.4 19.05 14.4 L17.55 14.6 15.6 14.65 15.5 13.65 Q16.15 12.95 17.15 12.5 L18.35 12.1 19.35 12.15 Q22.4 12.4 24.3 14.3 L25.0 15.1 Q25.65 15.95 26.55 18.15 L27.95 21.75 29.0 24.25 Q30.25 26.95 31.75 28.35 34.2 30.6 38.3 31.2 L41.1 31.35 44.55 31.0 Q46.75 30.5 48.75 29.35 L49.1 29.1 51.1 27.6 52.2 26.4 M60.9 32.0 Q62.0 32.9 62.1 33.95 62.25 35.35 61.25 37.75 L60.25 40.25 61.4 42.5 61.4 42.55 59.5 46.3 56.8 49.9 Q54.2 52.65 51.0 53.9 L48.05 54.75 45.0 55.0 43.25 54.75 Q40.85 54.1 36.4 52.15 L33.7 51.05 Q30.45 49.8 27.8 49.45 L26.45 49.3 26.65 48.45 27.0 46.75 27.0 46.55 28.5 46.7 31.7 47.35 Q33.1 47.7 34.45 48.3 35.7 48.85 36.85 49.55 41.05 52.05 42.75 52.5 L43.3 52.55 47.45 52.15 50.5 51.25 54.45 48.95 55.75 47.85 Q61.05 42.75 61.05 32.85 L60.9 32.0 M61.6 51.95 L61.55 52.2 61.85 53.7 62.0 54.75 61.35 55.25 Q59.9 56.8 59.9 60.7 L60.0 62.9 58.65 65.55 58.65 65.75 Q58.0 63.65 58.0 60.65 58.0 55.9 60.35 53.15 L61.6 51.95 M49.9 137.9 L49.95 138.4 50.3 140.35 50.2 141.1 Q47.65 142.6 44.7 142.9 L43.0 143.0 40.8 142.55 38.1 141.5 35.5 140.25 34.4 139.7 31.55 138.35 29.55 137.6 Q26.75 136.55 24.4 136.4 L23.45 136.35 23.05 136.35 21.6 136.5 23.65 133.15 25.05 133.2 26.85 133.4 Q29.25 133.8 31.45 134.8 L34.85 136.7 Q37.35 138.4 38.95 139.3 40.5 140.1 41.25 140.15 L41.3 140.15 45.15 139.75 Q47.7 139.2 49.9 137.9 M48.0 154.95 L47.85 155.3 47.05 157.9 47.0 158.4 46.15 156.4 Q45.3 154.6 44.1 153.35 43.2 152.4 42.1 151.8 40.5 150.85 38.5 150.55 L36.5 150.4 33.05 150.6 Q30.2 150.9 28.9 151.85 L28.7 152.05 Q27.3 153.25 27.55 155.9 L27.55 156.2 28.05 158.6 28.95 162.65 29.15 163.65 Q30.4 169.35 30.4 174.15 L30.3 176.5 29.9 178.95 29.05 181.95 28.15 184.2 27.95 184.0 27.9 183.95 Q28.7 182.1 28.95 178.05 L29.0 174.65 27.3 168.25 Q25.55 162.55 25.55 158.5 25.55 154.25 27.5 151.65 L28.25 150.75 Q29.2 149.8 30.45 149.2 32.85 147.95 36.5 147.95 L37.55 148.0 Q40.15 148.15 42.3 149.1 L44.2 150.2 Q46.55 151.9 48.0 154.95 M47.75 161.95 L48.45 164.4 Q48.75 165.75 48.45 168.1 48.1 170.4 48.5 171.2 48.85 171.95 48.85 175.95 48.85 179.65 45.0 184.0 L44.85 183.85 44.75 182.3 Q44.75 180.15 45.6 176.15 L45.6 176.1 46.25 173.0 46.3 172.75 Q47.8 166.25 47.8 163.5 L47.75 161.95 M21.6 109.95 L19.2 108.45 18.7 108.15 17.4 105.8 17.6 103.65 17.65 103.0 Q19.4 104.45 20.8 107.85 L21.6 109.95 M16.7 95.9 L15.7 93.35 16.35 93.15 Q19.0 93.15 20.85 94.4 22.1 95.25 23.0 96.65 24.05 98.3 25.95 104.4 L27.35 108.15 Q28.45 110.65 29.75 112.05 31.1 113.5 33.0 114.4 L35.35 115.2 39.1 115.55 39.85 115.55 41.6 115.35 Q43.35 115.0 45.0 114.2 L47.1 112.9 Q52.25 109.25 52.25 101.95 L51.95 98.9 51.75 97.3 51.3 94.8 50.9 92.35 50.35 89.35 Q51.3 89.75 52.15 91.9 L52.95 94.5 53.3 96.2 Q53.9 99.25 54.15 102.25 54.15 107.5 51.35 111.5 L50.45 112.65 Q47.95 115.6 44.3 117.0 L41.5 117.75 39.5 118.05 37.0 118.15 35.5 118.05 Q33.7 117.8 32.15 117.0 29.5 115.65 27.5 112.75 25.8 110.4 24.55 107.0 L23.8 105.0 21.55 99.3 Q19.75 95.85 17.05 95.85 L16.7 95.9 M13.95 19.75 L16.75 19.6 Q18.4 19.6 19.8 20.65 21.45 21.95 22.8 24.75 L23.75 27.0 Q24.8 29.9 24.8 32.5 24.8 33.45 24.3 34.7 L23.7 35.95 21.85 34.7 22.3 33.4 22.65 30.8 22.55 30.2 Q22.05 28.05 21.15 26.0 20.35 24.15 19.45 23.05 18.1 21.35 16.5 21.35 L14.65 21.45 12.3 21.95 11.1 20.9 Q11.55 20.05 13.95 19.75 M7.85 49.65 L5.35 49.85 4.75 49.7 4.85 49.25 Q6.15 47.55 8.4 45.85 7.95 47.7 7.85 49.65 M51.95 77.9 L51.7 79.6 Q50.95 84.85 50.1 87.65 49.2 90.25 48.25 90.6 L48.0 90.6 47.65 90.6 47.5 92.0 46.8 94.95 45.9 97.35 44.55 99.8 Q42.95 102.1 40.85 102.1 38.25 102.1 35.1 99.7 L34.85 99.5 Q33.35 98.3 32.35 96.9 31.45 95.6 30.95 94.1 30.35 92.3 30.25 90.2 L29.5 91.55 29.35 91.45 29.3 91.05 30.25 89.3 30.45 88.55 30.75 87.0 31.0 82.2 Q31.0 81.6 29.4 76.95 L29.3 76.7 Q28.45 74.35 28.05 72.35 27.55 70.15 27.55 68.3 27.55 65.7 28.55 63.8 29.2 62.55 30.25 61.65 32.55 59.7 36.55 59.35 L38.5 59.25 43.0 59.8 Q44.9 60.3 46.45 61.35 48.1 62.45 49.3 64.15 L50.75 66.85 Q52.15 70.25 52.15 76.1 L51.95 77.9 M40.8 61.5 L38.85 61.35 38.5 61.35 Q32.9 61.35 30.9 62.6 29.95 63.25 29.65 64.35 29.4 65.2 29.55 66.35 L30.95 72.0 31.15 72.75 31.65 74.8 Q32.4 78.55 32.4 81.8 32.4 83.7 32.0 85.6 L32.35 85.85 32.4 85.6 32.4 86.2 32.05 87.25 Q31.65 87.7 31.65 88.3 L31.8 89.75 Q32.0 91.2 32.75 92.7 L34.45 95.5 34.8 95.95 Q36.0 97.55 37.2 98.5 39.05 100.1 40.8 100.1 41.8 100.1 42.7 99.25 44.15 97.85 45.25 94.2 L46.75 88.65 46.8 88.15 Q46.95 85.55 48.3 80.6 L48.55 79.75 Q49.55 75.85 49.75 73.7 L49.8 72.6 49.55 70.25 48.8 67.8 48.15 66.5 Q47.15 64.7 45.7 63.55 43.7 61.95 40.8 61.5 M11.3 58.6 Q12.3 59.2 13.7 59.45 L13.45 60.85 13.25 63.55 Q13.25 65.65 15.05 70.05 16.8 74.45 16.8 76.65 L16.75 77.6 16.45 77.85 15.75 77.9 Q14.65 77.9 13.7 76.45 12.6 74.65 11.75 70.7 L11.3 67.4 10.85 64.1 10.75 63.45 Q10.75 60.85 11.3 58.6" fill="#517e08" fill-rule="evenodd" stroke="none"/>
  </g>
</svg>
