<?xml version="1.0" encoding="UTF-8" standalone="no"?>
<svg xmlns:ffdec="https://www.free-decompiler.com/flash" xmlns:xlink="http://www.w3.org/1999/xlink" ffdec:objectType="shape" height="21.25px" width="39.85px" xmlns="http://www.w3.org/2000/svg">
  <g transform="matrix(1.0, 0.0, 0.0, 1.0, 42.1, -10.1)">
    <path d="M-14.4 19.75 Q-14.9 20.3 -14.85 21.0 -14.8 21.7 -14.2 22.2 -13.65 22.65 -12.95 22.6 L-5.35 22.0 Q-4.65 21.95 -4.15 21.4 -3.7 20.8 -3.75 20.1 -3.8 19.4 -4.35 18.95 -4.95 18.45 -5.65 18.5 L-13.25 19.1 Q-13.95 19.15 -14.4 19.75 M-14.2 12.8 Q-12.15 10.25 -9.25 10.25 -6.35 10.25 -4.3 12.8 -2.25 15.35 -2.25 18.9 -2.25 22.5 -4.3 25.05 -6.35 27.55 -9.25 27.55 -12.15 27.55 -14.2 25.05 -16.25 22.5 -16.25 18.9 -16.25 15.35 -14.2 12.8" fill="#d4d4aa" fill-rule="evenodd" stroke="none"/>
    <path d="M-39.5 20.8 Q-40.0 21.3 -40.0 22.05 -40.0 22.75 -39.45 23.25 -38.95 23.75 -38.2 23.75 L-27.95 23.5 Q-27.25 23.5 -26.75 22.95 -26.25 22.45 -26.25 21.75 -26.25 21.0 -26.8 20.5 -27.3 20.0 -28.0 20.0 L-38.25 20.25 Q-39.0 20.25 -39.5 20.8 M-24.1 20.75 Q-24.1 25.15 -26.75 28.25 -29.35 31.35 -33.1 31.35 -36.8 31.35 -39.5 28.25 -42.1 25.15 -42.1 20.75 -42.1 16.35 -39.5 13.2 -36.8 10.1 -33.1 10.1 -29.35 10.1 -26.75 13.2 -24.1 16.35 -24.1 20.75" fill="#ffa9aa" fill-rule="evenodd" stroke="none"/>
    <path d="M-14.4 19.75 Q-13.95 19.15 -13.25 19.1 L-5.65 18.5 Q-4.95 18.45 -4.35 18.95 -3.8 19.4 -3.75 20.1 -3.7 20.8 -4.15 21.4 -4.65 21.95 -5.35 22.0 L-12.95 22.6 Q-13.65 22.65 -14.2 22.2 -14.8 21.7 -14.85 21.0 -14.9 20.3 -14.4 19.75 M-39.5 20.8 Q-39.0 20.25 -38.25 20.25 L-28.0 20.0 Q-27.3 20.0 -26.8 20.5 -26.25 21.0 -26.25 21.75 -26.25 22.45 -26.75 22.95 -27.25 23.5 -27.95 23.5 L-38.2 23.75 Q-38.95 23.75 -39.45 23.25 -40.0 22.75 -40.0 22.05 -40.0 21.3 -39.5 20.8" fill="#3e2317" fill-rule="evenodd" stroke="none"/>
  </g>
</svg>
