<?xml version="1.0" encoding="UTF-8" standalone="no"?>
<svg xmlns:ffdec="https://www.free-decompiler.com/flash" xmlns:xlink="http://www.w3.org/1999/xlink" ffdec:objectType="shape" height="21.25px" width="39.85px" xmlns="http://www.w3.org/2000/svg">
  <g transform="matrix(1.0, 0.0, 0.0, 1.0, 42.1, -10.1)">
    <path d="M-13.05 15.0 Q-13.8 15.95 -14.05 17.1 -14.4 18.35 -14.4 19.8 -14.4 22.3 -13.3 24.2 L-13.35 24.15 -13.0 24.7 Q-11.4 27.05 -9.05 26.95 -6.7 27.05 -5.0 24.6 L-4.75 24.25 -4.7 24.15 Q-3.65 22.25 -3.65 19.8 -3.65 16.9 -5.0 15.0 L-5.0 14.95 Q-6.7 12.5 -9.05 12.6 -10.65 12.55 -11.95 13.75 L-13.05 15.0 M-14.2 12.8 Q-12.15 10.25 -9.25 10.25 -6.35 10.25 -4.3 12.8 -2.25 15.35 -2.25 18.9 -2.25 22.5 -4.3 25.05 -6.35 27.55 -9.25 27.55 -12.15 27.55 -14.2 25.05 -16.25 22.5 -16.25 18.9 -16.25 15.35 -14.2 12.8" fill="#d4d4aa" fill-rule="evenodd" stroke="none"/>
    <path d="M-24.65 24.55 Q-24.6 23.1 -25.5 20.85 L-25.5 20.9 Q-26.6 17.95 -28.25 15.85 L-28.25 15.8 Q-30.25 13.3 -32.05 12.9 L-32.15 12.85 Q-34.3 12.3 -36.4 13.7 -37.35 14.25 -38.2 15.3 -39.25 16.4 -39.75 17.8 -40.55 19.45 -40.55 21.55 -40.55 24.45 -39.05 26.7 L-38.0 28.0 -38.15 27.85 Q-35.65 30.65 -32.15 30.65 -29.45 30.65 -27.4 28.95 -29.8 31.35 -33.1 31.35 -36.8 31.35 -39.5 28.25 -42.1 25.15 -42.1 20.75 -42.1 16.35 -39.5 13.2 -36.8 10.1 -33.1 10.1 -29.35 10.1 -26.75 13.2 -24.1 16.35 -24.1 20.75 -24.1 22.8 -24.65 24.55" fill="#ffa9aa" fill-rule="evenodd" stroke="none"/>
    <path d="M-13.05 15.0 L-11.95 13.75 Q-10.65 12.55 -9.05 12.6 -6.7 12.5 -5.0 14.95 L-5.0 15.0 Q-3.65 16.9 -3.65 19.8 -3.65 22.25 -4.7 24.15 L-4.75 24.25 -5.0 24.6 Q-6.7 27.05 -9.05 26.95 -11.4 27.05 -13.0 24.7 L-13.35 24.15 -13.3 24.2 Q-14.4 22.3 -14.4 19.8 -14.4 18.35 -14.05 17.1 -13.8 15.95 -13.05 15.0 M-10.2 17.05 L-10.65 17.9 -10.65 18.0 -10.9 19.8 Q-10.9 21.25 -10.35 22.4 L-10.1 22.65 Q-9.65 23.35 -9.05 23.45 -8.4 23.35 -7.9 22.6 L-7.9 22.65 -7.85 22.6 -7.8 22.5 Q-7.15 21.3 -7.15 19.8 -7.15 18.1 -7.9 16.95 -8.4 16.2 -9.05 16.1 L-9.65 16.4 -9.7 16.45 -10.1 16.9 -10.2 17.05 M-27.4 28.95 Q-29.45 30.65 -32.15 30.65 -35.65 30.65 -38.15 27.85 L-38.0 28.0 -39.05 26.7 Q-40.55 24.45 -40.55 21.55 -40.55 19.45 -39.75 17.8 -39.25 16.4 -38.2 15.3 -37.35 14.25 -36.4 13.7 -34.3 12.3 -32.15 12.85 L-32.05 12.9 Q-30.25 13.3 -28.25 15.8 L-28.25 15.85 Q-26.6 17.95 -25.5 20.9 L-25.5 20.85 Q-24.6 23.1 -24.65 24.55 -24.7 25.4 -25.05 26.0 L-25.1 26.05 -26.25 27.85 -27.4 28.95 M-31.0 18.0 Q-32.1 16.6 -33.0 16.25 -33.75 16.15 -34.5 16.65 L-34.55 16.65 -35.5 17.5 -35.6 17.65 -36.5 19.05 -36.55 19.2 Q-37.05 20.25 -37.05 21.55 -37.05 23.45 -36.05 24.85 L-35.9 25.15 -35.65 25.4 -35.55 25.55 Q-34.15 27.15 -32.15 27.15 -30.3 27.1 -28.9 25.55 L-28.15 24.35 -28.2 24.45 Q-28.1 23.8 -28.75 22.15 -29.7 19.75 -31.0 18.0" fill="#3e2317" fill-rule="evenodd" stroke="none"/>
    <path d="M-10.2 17.05 L-10.1 16.9 -9.7 16.45 -9.65 16.4 -9.05 16.1 Q-8.4 16.2 -7.9 16.95 -7.15 18.1 -7.15 19.8 -7.15 21.3 -7.8 22.5 L-7.85 22.6 -7.9 22.65 -7.9 22.6 Q-8.4 23.35 -9.05 23.45 -9.65 23.35 -10.1 22.65 L-10.35 22.4 Q-10.9 21.25 -10.9 19.8 L-10.65 18.0 -10.65 17.9 -10.2 17.05 M-31.0 18.0 Q-29.7 19.75 -28.75 22.15 -28.1 23.8 -28.2 24.45 L-28.15 24.35 -28.9 25.55 Q-30.3 27.1 -32.15 27.15 -34.15 27.15 -35.55 25.55 L-35.65 25.4 -35.9 25.15 -36.05 24.85 Q-37.05 23.45 -37.05 21.55 -37.05 20.25 -36.55 19.2 L-36.5 19.05 -35.6 17.65 -35.5 17.5 -34.55 16.65 -34.5 16.65 Q-33.75 16.15 -33.0 16.25 -32.1 16.6 -31.0 18.0" fill="#ffe6cc" fill-rule="evenodd" stroke="none"/>
  </g>
</svg>
