<?xml version="1.0" encoding="UTF-8" standalone="no"?>
<svg xmlns:ffdec="https://www.free-decompiler.com/flash" xmlns:xlink="http://www.w3.org/1999/xlink" ffdec:objectType="shape" height="21.25px" width="39.85px" xmlns="http://www.w3.org/2000/svg">
  <g transform="matrix(1.0, 0.0, 0.0, 1.0, 42.1, -10.1)">
    <path d="M-12.0 14.2 Q-12.55 14.65 -12.55 15.35 -14.0 17.9 -13.65 20.9 -13.4 23.15 -11.75 24.9 L-11.7 24.95 Q-10.1 26.65 -7.7 26.15 L-7.6 26.15 Q-5.95 25.65 -5.0 24.3 L-5.0 24.35 Q-3.45 22.15 -4.35 19.6 L-4.35 19.55 Q-4.65 18.65 -5.25 17.8 L-5.25 17.85 -5.95 16.85 -6.0 16.85 Q-7.75 14.9 -9.85 13.9 L-10.8 13.65 Q-11.5 13.65 -12.0 14.2 M-14.2 12.8 Q-12.15 10.25 -9.25 10.25 -6.35 10.25 -4.3 12.8 -2.25 15.35 -2.25 18.9 -2.25 22.5 -4.3 25.05 -6.35 27.55 -9.25 27.55 -12.15 27.55 -14.2 25.05 -16.25 22.5 -16.25 18.9 -16.25 15.35 -14.2 12.8" fill="#d4d4aa" fill-rule="evenodd" stroke="none"/>
    <path d="M-24.65 16.95 L-24.8 16.6 Q-26.4 13.2 -29.55 13.75 L-29.5 13.7 Q-31.85 13.95 -33.15 14.5 -34.45 15.0 -35.8 15.9 L-35.7 15.85 -37.3 17.25 Q-38.3 18.25 -38.7 19.5 L-38.7 19.55 Q-39.35 20.95 -39.35 22.65 -39.35 25.2 -38.0 27.2 L-38.05 27.1 -37.3 28.1 -37.2 28.15 Q-35.1 30.45 -32.1 30.45 -28.9 30.45 -27.55 28.6 -26.5 27.25 -25.05 23.55 -24.1 21.0 -24.2 19.05 L-24.1 20.75 Q-24.1 25.15 -26.75 28.25 -29.35 31.35 -33.1 31.35 -36.8 31.35 -39.5 28.25 -42.1 25.15 -42.1 20.75 -42.1 16.35 -39.5 13.2 -36.8 10.1 -33.1 10.1 -29.35 10.1 -26.75 13.2 -25.3 14.9 -24.65 16.95" fill="#ffa9aa" fill-rule="evenodd" stroke="none"/>
    <path d="M-12.0 14.2 Q-11.5 13.65 -10.8 13.65 L-9.85 13.9 Q-7.75 14.9 -6.0 16.85 L-5.95 16.85 -5.25 17.85 -5.25 17.8 Q-4.65 18.65 -4.35 19.55 L-4.35 19.6 Q-3.45 22.15 -5.0 24.35 L-5.0 24.3 Q-5.95 25.65 -7.6 26.15 L-7.7 26.15 Q-10.1 26.65 -11.7 24.95 L-11.75 24.9 Q-13.4 23.15 -13.65 20.9 -14.0 17.9 -12.55 15.35 -12.55 14.65 -12.0 14.2 M-7.65 20.75 L-8.15 19.8 -8.6 19.2 -8.6 19.15 -9.9 18.0 Q-10.3 19.15 -10.15 20.5 -10.0 21.6 -9.2 22.5 L-9.15 22.55 -8.5 22.75 -7.85 22.3 Q-7.35 21.55 -7.65 20.75 M-24.2 19.05 Q-24.1 21.0 -25.05 23.55 -26.5 27.25 -27.55 28.6 -28.9 30.45 -32.1 30.45 -35.1 30.45 -37.2 28.15 L-37.3 28.1 -38.05 27.1 -38.0 27.2 Q-39.35 25.2 -39.35 22.65 -39.35 20.95 -38.7 19.55 L-38.7 19.5 Q-38.3 18.25 -37.3 17.25 L-35.7 15.85 -35.8 15.9 Q-34.45 15.0 -33.15 14.5 -31.85 13.95 -29.5 13.7 L-29.55 13.75 Q-26.4 13.2 -24.8 16.6 L-24.65 16.95 Q-24.35 17.95 -24.2 19.05 M-35.45 20.8 Q-35.85 21.6 -35.85 22.65 -35.85 24.1 -35.1 25.25 L-35.0 25.35 -34.75 25.7 -34.7 25.75 Q-33.65 26.95 -32.1 26.95 -30.9 26.95 -30.3 26.45 -29.5 25.35 -28.3 22.3 -27.35 19.7 -27.95 18.1 -28.4 17.2 -29.1 17.2 L-29.15 17.2 -31.85 17.75 -33.85 18.8 -33.95 18.85 -34.65 19.5 -34.75 19.6 -35.35 20.6 -35.45 20.8" fill="#3e2317" fill-rule="evenodd" stroke="none"/>
    <path d="M-7.65 20.75 Q-7.35 21.55 -7.85 22.3 L-8.5 22.75 -9.15 22.55 -9.2 22.5 Q-10.0 21.6 -10.15 20.5 -10.3 19.15 -9.9 18.0 L-8.6 19.15 -8.6 19.2 -8.15 19.8 -7.65 20.75 M-35.45 20.8 L-35.35 20.6 -34.75 19.6 -34.65 19.5 -33.95 18.85 -33.85 18.8 -31.85 17.75 -29.15 17.2 -29.1 17.2 Q-28.4 17.2 -27.95 18.1 -27.35 19.7 -28.3 22.3 -29.5 25.35 -30.3 26.45 -30.9 26.95 -32.1 26.95 -33.65 26.95 -34.7 25.75 L-34.75 25.7 -35.0 25.35 -35.1 25.25 Q-35.85 24.1 -35.85 22.65 -35.85 21.6 -35.45 20.8" fill="#ffe6cc" fill-rule="evenodd" stroke="none"/>
  </g>
</svg>
