<?xml version="1.0" encoding="UTF-8" standalone="no"?>
<svg xmlns:ffdec="https://www.free-decompiler.com/flash" xmlns:xlink="http://www.w3.org/1999/xlink" ffdec:objectType="shape" height="21.25px" width="39.85px" xmlns="http://www.w3.org/2000/svg">
  <g transform="matrix(1.0, 0.0, 0.0, 1.0, 42.1, -10.1)">
    <path d="M-14.2 12.8 Q-12.15 10.25 -9.25 10.25 -6.35 10.25 -4.3 12.8 -2.25 15.35 -2.25 18.9 -2.25 22.5 -4.3 25.05 -6.35 27.55 -9.25 27.55 -12.15 27.55 -14.2 25.05 -16.25 22.5 -16.25 18.9 -16.25 15.35 -14.2 12.8 M-13.95 18.5 Q-14.6 18.85 -14.75 19.55 -14.9 20.25 -14.5 20.9 L-13.55 21.65 -12.7 23.35 -12.7 23.4 Q-11.1 25.75 -8.85 25.65 -6.5 25.75 -4.95 23.4 -3.6 21.4 -3.6 18.75 -3.6 16.3 -4.65 14.65 -5.05 14.0 -5.75 13.85 -6.45 13.7 -7.1 14.1 L-13.2 18.05 -13.3 18.1 -13.95 18.5" fill="#d4d4aa" fill-rule="evenodd" stroke="none"/>
    <path d="M-24.45 23.85 L-24.5 23.7 -24.9 22.85 -32.75 14.35 Q-33.15 13.95 -33.65 13.85 L-34.7 13.95 -35.5 14.6 -37.15 17.05 Q-38.15 18.05 -38.55 19.3 L-38.55 19.35 Q-39.2 20.75 -39.2 22.45 -39.2 25.0 -37.85 27.0 L-37.9 26.9 -37.15 27.9 -37.05 27.95 Q-34.95 30.25 -31.95 30.25 -29.15 30.25 -27.45 29.05 -29.85 31.35 -33.1 31.35 -36.8 31.35 -39.5 28.25 -42.1 25.15 -42.1 20.75 -42.1 16.35 -39.5 13.2 -36.8 10.1 -33.1 10.1 -29.35 10.1 -26.75 13.2 -24.1 16.35 -24.1 20.75 -24.1 22.4 -24.45 23.85" fill="#ffa9aa" fill-rule="evenodd" stroke="none"/>
    <path d="M-13.95 18.5 L-13.3 18.1 -13.2 18.05 -7.1 14.1 Q-6.45 13.7 -5.75 13.85 -5.05 14.0 -4.65 14.65 -3.6 16.3 -3.6 18.75 -3.6 21.4 -4.95 23.4 -6.5 25.75 -8.85 25.65 -11.1 25.75 -12.7 23.4 L-12.7 23.35 -13.55 21.65 -14.5 20.9 Q-14.9 20.25 -14.75 19.55 -14.6 18.85 -13.95 18.5 M-9.75 21.45 L-9.8 21.45 Q-9.4 22.05 -8.85 22.15 -8.3 22.05 -7.85 21.45 -7.1 20.3 -7.1 18.75 L-7.1 18.3 -10.3 20.35 -9.75 21.45 M-27.45 29.05 Q-29.15 30.25 -31.95 30.25 -34.95 30.25 -37.05 27.95 L-37.15 27.9 -37.9 26.9 -37.85 27.0 Q-39.2 25.0 -39.2 22.45 -39.2 20.75 -38.55 19.35 L-38.55 19.3 Q-38.15 18.05 -37.15 17.05 L-35.5 14.6 -34.7 13.95 -33.65 13.85 Q-33.15 13.95 -32.75 14.35 L-24.9 22.85 -24.5 23.7 -24.45 23.85 -24.55 24.6 Q-25.6 27.8 -27.4 29.0 L-27.45 29.05 M-34.6 19.4 Q-35.05 19.85 -35.2 20.4 L-35.3 20.6 Q-35.7 21.4 -35.7 22.45 -35.7 23.9 -34.95 25.05 L-34.85 25.15 -34.6 25.5 -34.55 25.55 Q-33.5 26.75 -31.95 26.75 -30.4 26.75 -29.4 26.15 -28.75 25.6 -28.2 24.45 L-33.8 18.4 -34.5 19.3 -34.6 19.4" fill="#3e2317" fill-rule="evenodd" stroke="none"/>
    <path d="M-9.75 21.45 L-10.3 20.35 -7.1 18.3 -7.1 18.75 Q-7.1 20.3 -7.85 21.45 -8.3 22.05 -8.85 22.15 -9.4 22.05 -9.8 21.45 L-9.75 21.45 M-34.6 19.4 L-34.5 19.3 -33.8 18.4 -28.2 24.45 Q-28.75 25.6 -29.4 26.15 -30.4 26.75 -31.95 26.75 -33.5 26.75 -34.55 25.55 L-34.6 25.5 -34.85 25.15 -34.95 25.05 Q-35.7 23.9 -35.7 22.45 -35.7 21.4 -35.3 20.6 L-35.2 20.4 Q-35.05 19.85 -34.6 19.4" fill="#ffe6cc" fill-rule="evenodd" stroke="none"/>
  </g>
</svg>
