<?xml version="1.0" encoding="UTF-8" standalone="no"?>
<svg xmlns:ffdec="https://www.free-decompiler.com/flash" xmlns:xlink="http://www.w3.org/1999/xlink" ffdec:objectType="shape" height="187.05px" width="61.4px" xmlns="http://www.w3.org/2000/svg">
  <g transform="matrix(1.0, 0.0, 0.0, 1.0, -1.35, -1.5)">
    <path d="M41.55 156.55 L41.55 155.9 41.6 156.15 41.55 156.55" fill="#69491b" fill-rule="evenodd" stroke="none"/>
    <path d="M47.45 12.55 L46.95 12.1 Q44.3 9.6 43.05 6.05 40.7 6.45 35.95 6.15 L34.4 6.1 34.4 5.6 34.35 5.8 33.8 5.55 33.2 6.1 30.2 6.5 Q28.8 6.95 27.05 8.35 25.6 9.55 23.4 9.85 20.45 10.3 19.95 10.8 L19.4 12.15 18.35 12.1 17.15 12.5 Q16.15 12.95 15.5 13.65 L15.6 14.65 17.85 14.55 15.9 15.6 Q13.3 16.9 13.3 17.9 L14.1 19.75 Q11.6 20.0 11.1 20.9 L12.3 21.95 Q13.1 21.5 14.9 21.4 L15.05 22.35 Q15.05 23.25 14.35 23.95 L12.7 25.1 Q10.4 26.65 10.4 28.85 L10.8 34.05 Q10.8 35.05 8.85 39.25 L6.9 43.3 7.5 45.3 7.85 46.3 Q6.0 47.75 4.85 49.25 L4.75 49.7 5.35 49.85 7.95 49.6 Q7.75 50.85 7.35 51.4 L6.85 51.9 6.65 52.35 Q6.65 55.05 9.35 56.8 L11.2 58.1 11.35 58.25 Q10.75 60.65 10.75 63.45 10.4 64.4 10.4 65.25 10.4 67.1 11.5 68.65 L11.75 70.7 Q12.55 74.65 13.7 76.45 13.75 78.45 14.1 79.15 L15.05 80.0 Q16.75 81.0 17.5 86.45 17.6 87.35 19.1 88.8 20.5 90.2 20.65 92.15 L20.85 94.4 Q18.95 93.15 16.35 93.15 L16.05 93.25 15.4 91.6 12.35 84.6 12.05 84.05 Q10.45 80.85 8.25 73.7 6.2 67.2 6.2 66.25 L6.4 64.75 6.6 63.2 Q6.6 61.5 5.75 60.25 L4.0 58.2 Q1.35 55.5 1.35 51.7 1.35 50.5 2.45 48.3 3.5 46.05 3.5 44.05 L3.1 42.35 2.7 40.4 Q2.7 38.45 4.4 36.9 6.0 35.4 6.0 33.65 L5.65 31.35 5.25 29.25 Q5.25 28.05 5.75 27.15 L7.05 25.5 Q9.05 23.05 9.6 19.2 L9.85 16.95 10.25 15.7 15.05 9.7 Q17.05 7.25 19.4 6.15 L22.55 5.05 Q24.65 4.15 26.6 2.7 28.05 1.7 28.65 1.7 L33.0 2.25 36.85 1.5 Q39.6 1.5 44.75 4.4 47.3 5.9 49.0 7.35 L47.45 12.55 M49.75 8.0 Q51.05 9.25 51.65 10.5 52.25 13.2 53.85 16.25 L54.25 19.65 Q54.25 23.35 52.5 25.95 51.75 24.5 50.4 23.8 L49.0 22.9 Q48.4 22.3 48.4 21.05 48.4 20.15 48.75 18.3 49.15 16.45 49.15 15.2 49.15 14.5 48.7 13.9 49.75 11.1 49.75 8.15 L49.75 8.0 M56.15 20.15 L57.65 22.55 Q58.45 24.0 58.45 24.95 L58.15 26.6 57.9 29.3 Q57.9 29.85 58.55 30.4 L59.9 31.25 60.45 31.7 60.95 32.15 61.05 32.85 Q61.05 35.95 60.55 38.65 L60.25 39.4 60.05 40.0 60.05 40.25 60.0 40.55 60.05 40.65 Q58.7 45.05 55.7 47.9 55.35 47.0 55.35 46.2 56.5 40.05 56.5 37.75 56.5 35.95 56.2 35.05 L55.4 33.7 Q53.95 31.9 53.25 28.2 L53.25 28.05 Q56.05 24.65 56.15 20.15 M61.3 42.8 L61.4 43.0 Q62.75 45.6 62.75 48.15 62.75 48.8 62.15 50.25 L62.05 50.5 62.0 50.75 61.7 51.5 61.6 52.0 60.35 53.15 Q58.0 55.9 58.0 60.65 58.0 63.5 58.55 65.5 L58.05 66.65 58.5 70.2 57.55 72.2 Q56.7 73.95 56.7 74.4 56.7 75.0 57.6 77.1 58.45 79.1 58.45 80.95 L57.7 83.65 Q56.9 86.55 56.9 87.85 56.9 89.6 58.05 93.9 L57.3 96.45 Q56.5 98.45 56.5 99.5 L57.1 101.45 Q57.7 103.0 57.7 104.15 57.7 105.25 56.5 107.2 55.35 109.2 55.35 109.8 L55.55 111.65 55.75 113.5 Q55.75 114.1 54.55 116.6 53.25 119.25 53.1 121.45 52.8 125.45 51.9 126.85 L51.3 127.6 Q51.05 127.95 51.05 128.5 L51.85 129.95 Q52.6 131.55 52.6 132.85 52.6 134.15 51.1 135.65 49.65 137.2 49.65 137.85 L49.65 138.05 Q47.55 139.25 45.15 139.75 L45.95 135.6 48.7 122.8 Q50.05 115.55 51.2 111.75 54.15 107.65 54.15 102.25 53.9 99.25 53.3 96.2 L53.0 94.85 53.2 93.65 Q53.2 92.7 52.85 92.1 52.55 91.6 51.95 91.5 51.2 89.75 50.35 89.35 L50.85 92.1 50.45 92.55 Q49.45 93.85 46.85 94.9 L47.5 91.95 48.3 90.55 Q49.05 90.3 49.7 88.65 L50.3 87.95 Q51.25 86.9 51.6 86.05 52.05 84.85 52.05 82.6 L51.85 80.8 51.7 79.55 52.0 77.55 52.05 77.4 52.95 76.4 Q54.2 74.9 54.2 70.95 L53.8 68.85 53.4 66.9 Q53.4 64.65 55.55 59.85 57.7 55.1 57.7 51.3 L56.85 49.85 59.5 46.3 61.3 42.8 M61.9 54.85 L61.95 55.95 Q61.95 58.4 61.0 60.4 L60.0 62.5 59.9 60.7 Q59.9 56.8 61.35 55.25 L61.9 54.85 M50.05 141.2 L48.9 144.5 Q47.55 147.65 47.55 148.0 L47.85 149.35 48.15 151.6 47.75 154.45 Q46.4 151.85 44.35 150.3 L44.95 148.25 45.8 146.25 Q44.7 143.65 44.7 143.2 L44.7 142.9 Q47.55 142.6 50.05 141.2 M46.9 158.15 L46.85 158.45 46.75 158.7 Q46.75 159.9 47.65 162.05 L47.7 162.15 47.75 162.35 47.8 163.5 Q47.8 166.25 46.3 172.75 L46.25 173.05 46.1 168.35 45.9 167.5 45.75 167.0 46.45 167.35 46.35 166.9 45.05 160.95 Q44.1 155.85 44.05 153.3 45.3 154.6 46.15 156.4 L46.9 158.15 M44.85 183.85 Q41.0 188.55 36.25 188.55 L31.9 188.05 Q30.4 187.45 29.5 185.9 L28.75 184.85 28.2 184.1 29.05 181.95 29.9 179.0 Q32.25 181.25 34.1 183.85 L35.15 185.0 36.7 185.25 Q40.45 185.25 43.75 179.8 L45.55 176.2 Q44.75 180.15 44.75 182.3 L44.85 183.85 M27.95 183.8 L26.25 181.5 Q23.55 177.85 23.2 176.8 L22.8 173.3 Q22.65 170.9 21.95 170.05 L20.4 168.65 Q19.65 167.9 19.65 166.3 L19.95 163.35 18.4 159.0 Q16.85 154.35 16.85 151.95 16.85 149.8 17.6 146.65 L18.4 143.85 Q18.4 142.7 17.6 140.4 L17.05 138.55 Q18.8 137.15 20.95 136.65 21.0 138.65 21.75 140.85 22.65 143.45 22.65 146.1 L22.25 148.75 21.85 150.85 Q21.85 152.95 23.5 154.7 25.15 156.4 25.15 157.45 L24.15 160.65 Q23.2 163.6 23.2 165.1 23.2 165.7 24.7 167.6 26.25 169.5 26.25 170.35 L25.4 171.6 Q24.6 172.95 24.6 173.65 24.6 174.65 25.55 175.4 L28.9 178.05 28.95 178.1 Q28.7 181.95 27.95 183.8 M17.2 134.9 L17.4 134.0 17.6 133.45 17.7 133.1 18.55 131.15 Q18.55 129.3 17.8 127.6 L17.7 127.4 Q22.8 120.3 22.8 116.85 L22.55 113.7 22.9 114.65 23.6 116.45 Q23.6 118.05 22.7 120.05 21.85 122.0 21.85 123.5 21.85 125.35 22.4 126.55 23.2 128.4 25.05 128.4 L26.45 128.15 26.5 128.25 26.55 128.85 Q26.55 130.45 23.7 132.85 L23.35 133.15 Q19.95 133.2 17.2 134.9 M17.45 123.45 L17.95 121.35 Q18.85 117.75 18.85 116.35 18.85 114.65 18.05 112.4 17.2 110.1 17.2 109.2 L17.45 105.8 Q18.35 107.1 19.15 109.3 20.15 112.05 20.65 114.9 20.65 119.55 17.45 123.45 M17.8 103.15 L18.2 100.25 16.95 95.9 17.05 95.85 Q19.75 95.85 21.55 99.3 L24.05 105.6 23.25 107.5 Q22.25 108.95 22.25 112.3 L20.8 107.85 Q19.45 104.6 17.8 103.15 M51.95 98.6 L51.65 97.95 51.8 97.7 51.95 98.6" fill="#4f5218" fill-rule="evenodd" stroke="none"/>
    <path d="M34.4 6.1 L35.95 6.15 Q40.7 6.45 43.05 6.05 44.3 9.6 46.95 12.1 L47.45 12.55 47.25 13.0 Q45.55 17.85 43.0 18.05 L42.8 16.25 43.2 12.85 Q43.2 11.15 42.2 9.95 40.95 8.5 38.45 8.5 L33.7 8.7 33.65 7.9 Q33.65 7.4 34.05 7.0 L34.4 6.1 M20.85 94.4 L20.65 92.15 Q20.5 90.2 19.1 88.8 17.6 87.35 17.5 86.45 16.75 81.0 15.05 80.0 L14.1 79.15 Q13.75 78.45 13.7 76.45 14.6 77.9 15.75 77.9 L16.45 77.85 16.75 77.6 16.8 76.65 Q16.8 74.45 15.05 70.05 13.25 65.65 13.25 63.55 13.25 60.05 14.35 57.25 L16.45 58.75 23.55 63.8 Q26.65 66.1 26.65 67.3 26.65 68.25 26.05 68.55 L24.85 68.75 20.8 66.7 Q16.55 64.65 15.55 64.65 14.95 64.65 14.55 65.1 14.2 65.55 14.2 66.2 14.2 68.2 16.55 69.35 L18.1 70.25 Q18.85 70.9 18.85 71.8 18.85 72.6 17.95 74.55 L17.1 76.4 Q17.1 78.1 17.85 78.85 18.3 79.3 19.45 79.55 20.65 79.8 21.05 80.15 21.75 80.75 21.75 82.3 L21.4 84.2 21.0 86.2 Q21.0 86.75 23.4 90.25 25.95 94.0 26.35 95.5 27.15 98.5 28.5 100.35 30.05 102.4 31.85 102.4 L32.45 102.2 33.05 101.95 33.9 102.75 Q31.75 105.25 28.7 107.15 L27.35 108.15 25.95 104.4 Q24.05 98.3 23.0 96.65 22.1 95.25 20.85 94.4 M11.5 68.65 Q10.4 67.1 10.4 65.25 10.4 64.4 10.75 63.45 L11.5 68.65 M11.35 58.25 L11.2 58.1 9.35 56.8 Q6.65 55.05 6.65 52.35 L6.85 51.9 7.35 51.4 Q7.75 50.85 7.95 49.6 L10.1 49.0 Q9.6 50.95 9.6 52.0 9.6 53.5 11.75 55.2 L12.25 55.6 11.35 58.25 M7.85 46.3 L7.5 45.3 6.9 43.3 8.85 39.25 Q10.8 35.05 10.8 34.05 L10.4 28.85 Q10.4 26.65 12.7 25.1 L14.35 23.95 Q15.05 23.25 15.05 22.35 L14.9 21.4 16.5 21.35 Q18.3 21.35 19.8 23.45 19.25 25.3 17.2 28.0 14.45 31.6 14.45 32.1 L14.85 33.8 15.25 36.1 Q15.25 37.35 13.0 39.35 10.7 41.4 10.7 42.25 10.7 42.7 11.0 42.95 L11.3 43.95 9.95 44.75 7.85 46.3 M14.1 19.75 L13.3 17.9 Q13.3 16.9 15.9 15.6 L17.85 14.55 19.05 14.4 Q21.05 14.4 22.6 16.1 L22.15 16.65 21.15 17.55 20.5 17.95 Q20.15 18.4 20.0 20.85 18.5 19.6 16.75 19.6 L14.1 19.75 M19.4 12.15 L19.95 10.8 Q20.45 10.3 23.4 9.85 25.6 9.55 27.05 8.35 28.8 6.95 30.2 6.5 L33.2 6.1 Q32.3 7.15 32.25 8.9 29.5 9.3 28.05 10.15 26.6 10.95 25.25 12.6 L24.1 14.1 Q22.25 12.4 19.4 12.15 M48.7 13.9 Q49.15 14.5 49.15 15.2 49.15 16.45 48.75 18.3 48.4 20.15 48.4 21.05 48.4 22.3 49.0 22.9 L50.4 23.8 Q51.75 24.5 52.5 25.95 51.25 27.8 49.1 29.1 L48.8 29.3 47.1 26.3 Q44.85 22.65 44.15 21.2 L43.55 19.75 Q46.1 19.35 47.9 15.7 L48.7 13.9 M49.7 31.05 L52.45 28.85 53.25 28.05 53.25 28.2 Q53.95 31.9 55.4 33.7 L56.2 35.05 Q56.5 35.95 56.5 37.75 56.5 40.05 55.35 46.2 55.35 47.0 55.7 47.9 L54.45 48.95 Q52.65 50.35 50.6 51.2 49.55 48.2 46.3 45.3 41.65 41.95 41.65 41.35 L41.7 41.0 41.7 40.9 44.65 40.65 46.7 42.0 Q48.5 43.35 49.35 43.35 L50.6 43.05 Q51.15 42.75 51.15 42.1 L51.25 38.4 51.35 37.35 Q51.35 34.75 50.0 31.7 L49.7 31.05 M56.85 49.85 L57.7 51.3 Q57.7 55.1 55.55 59.85 53.4 64.65 53.4 66.9 L53.8 68.85 54.2 70.95 Q54.2 74.9 52.95 76.4 L52.05 77.4 52.0 77.55 52.15 76.1 Q52.15 70.25 50.75 66.85 50.1 65.2 49.15 63.9 L49.65 62.5 Q50.8 59.7 50.8 58.85 L50.5 57.85 50.2 57.05 Q50.2 56.3 50.6 55.15 L51.0 53.95 Q54.25 52.65 56.85 49.85 M51.7 79.55 L51.85 80.8 52.05 82.6 Q52.05 84.85 51.6 86.05 51.25 86.9 50.3 87.95 L49.7 88.65 Q50.8 85.9 51.7 79.55 M48.3 90.55 L47.5 91.95 47.65 90.6 48.0 90.6 48.3 90.55 M46.85 94.9 Q49.45 93.85 50.45 92.55 L50.85 92.1 51.3 94.8 51.8 97.7 51.65 97.95 51.95 98.6 52.25 101.95 Q52.25 109.25 47.1 112.9 L45.25 114.05 45.95 112.55 47.4 110.0 48.2 107.85 47.75 105.6 48.25 102.75 48.5 100.55 48.45 99.8 48.35 99.25 45.65 99.9 44.55 99.85 45.9 97.35 46.85 94.9 M51.95 91.5 Q52.55 91.6 52.85 92.1 53.2 92.7 53.2 93.65 L53.0 94.85 51.95 91.5 M51.2 111.75 Q50.05 115.55 48.7 122.8 L45.95 135.6 45.15 139.75 41.3 140.15 40.95 140.1 41.3 139.35 42.5 137.55 Q44.2 134.9 44.2 131.9 L43.8 130.55 Q43.4 129.6 43.4 127.95 43.4 126.75 43.85 124.9 L44.35 123.25 44.15 122.0 43.95 120.75 Q43.95 118.8 44.35 116.95 48.0 115.55 50.45 112.65 L51.2 111.75 M42.7 99.3 L42.05 98.9 Q40.7 98.0 40.7 96.9 40.7 96.45 44.7 90.8 L46.9 87.0 46.75 88.65 45.25 94.2 Q44.15 97.9 42.7 99.3 M48.55 79.7 L48.5 79.35 48.35 77.75 Q48.35 76.5 49.3 74.55 L49.75 73.7 48.55 79.7 M24.05 105.6 L24.55 107.0 Q25.75 110.25 27.35 112.55 L27.65 113.25 28.55 114.8 Q28.55 115.4 27.6 117.4 26.6 119.35 26.6 120.35 26.6 122.95 27.6 123.95 28.35 124.6 29.9 124.65 L32.15 124.8 Q33.25 125.2 33.25 126.75 33.25 128.35 31.85 129.8 30.95 130.7 28.8 132.1 L26.9 133.45 23.6 133.15 23.35 133.15 23.7 132.85 Q26.55 130.45 26.55 128.85 L26.5 128.25 26.45 128.15 25.05 128.4 Q23.2 128.4 22.4 126.55 21.85 125.35 21.85 123.5 21.85 122.0 22.7 120.05 23.6 118.05 23.6 116.45 L22.9 114.65 22.55 113.7 22.25 112.3 Q22.25 108.95 23.25 107.5 L24.05 105.6 M40.8 142.55 L43.0 143.0 44.7 142.9 44.7 143.2 Q44.7 143.65 45.8 146.25 L44.95 148.25 44.35 150.3 Q43.35 149.55 42.25 149.1 L42.75 146.8 Q42.75 146.4 42.45 146.3 L41.9 146.45 41.3 144.85 Q40.95 144.0 40.8 142.55 M20.95 136.65 L23.45 136.35 24.4 136.4 24.35 136.9 Q24.35 138.25 24.8 140.55 L25.2 143.2 24.8 146.15 Q24.35 148.65 24.35 149.7 24.35 151.2 27.45 151.75 25.55 154.35 25.55 158.5 25.55 162.55 27.3 168.25 L29.0 174.65 28.95 178.1 28.9 178.05 25.55 175.4 Q24.6 174.65 24.6 173.65 24.6 172.95 25.4 171.6 L26.25 170.35 Q26.25 169.5 24.7 167.6 23.2 165.7 23.2 165.1 23.2 163.6 24.15 160.65 L25.15 157.45 Q25.15 156.4 23.5 154.7 21.85 152.95 21.85 150.85 L22.25 148.75 22.65 146.1 Q22.65 143.45 21.75 140.85 21.0 138.65 20.95 136.65 M42.05 151.75 L44.05 153.3 Q44.1 155.85 45.05 160.95 L46.35 166.9 46.45 167.35 45.75 167.0 45.9 167.5 46.1 168.35 46.25 173.05 45.55 176.2 43.75 179.8 Q40.45 185.25 36.7 185.25 L35.15 185.0 34.1 183.85 Q32.25 181.25 29.9 179.0 L30.3 176.5 30.9 177.05 Q32.95 178.65 36.45 178.65 40.1 178.65 41.85 174.75 43.5 171.05 43.5 163.5 L42.75 157.2 42.05 151.75 M28.85 151.95 L29.7 152.1 Q30.7 152.4 30.7 153.05 30.7 153.5 28.75 154.8 L27.55 155.85 Q27.3 153.15 28.85 151.95 M28.1 158.75 L29.15 158.85 31.35 158.2 Q33.4 158.2 33.7 158.9 33.7 161.0 30.1 162.2 L28.95 162.6 28.1 158.75" fill="#7b8026" fill-rule="evenodd" stroke="none"/>
    <path d="M33.7 8.7 L38.45 8.5 Q40.95 8.5 42.2 9.95 43.2 11.15 43.2 12.85 L42.8 16.25 43.0 18.05 42.8 18.05 Q40.0 18.05 36.8 14.5 34.05 11.45 33.7 8.7 M43.55 19.75 L44.15 21.2 Q44.85 22.65 47.1 26.3 L48.8 29.3 Q46.7 30.5 44.4 31.0 L43.6 29.25 Q41.4 24.55 39.6 19.6 L39.5 19.05 Q41.25 19.8 42.85 19.8 L43.55 19.75 M49.7 31.05 L50.0 31.7 Q51.35 34.75 51.35 37.35 L51.25 38.4 51.15 42.1 Q51.15 42.75 50.6 43.05 L49.35 43.35 Q48.5 43.35 46.7 42.0 L44.65 40.65 41.7 40.9 41.7 41.0 41.65 41.35 Q41.65 41.95 46.3 45.3 49.55 48.2 50.6 51.2 L47.4 52.15 46.45 50.55 Q45.4 49.05 42.9 46.85 L39.4 43.45 Q37.8 41.6 37.8 39.9 37.8 38.95 38.95 38.15 L41.4 36.7 Q44.95 34.8 44.95 33.05 L44.95 32.95 Q47.6 32.3 49.7 31.05 M26.6 18.2 L25.0 15.1 24.1 14.1 25.25 12.6 Q26.6 10.95 28.05 10.15 29.5 9.3 32.25 8.9 L32.25 9.0 Q32.25 12.15 33.8 14.55 30.35 14.65 28.3 16.05 26.9 17.0 26.6 18.2 M25.5 21.6 L25.1 22.45 23.4 26.15 22.8 24.75 Q21.55 22.15 20.0 20.85 20.15 18.4 20.5 17.95 L21.15 17.55 22.15 16.65 22.6 16.1 23.55 17.4 25.5 21.6 M18.35 43.1 L18.3 44.4 Q18.3 46.2 18.75 48.2 L17.2 49.25 17.3 47.9 Q17.3 46.1 16.6 44.85 L18.35 43.1 M19.8 23.45 L21.15 26.0 22.35 29.55 21.55 31.6 19.9 35.35 Q19.25 36.95 18.9 38.75 L15.8 41.1 11.3 43.95 11.0 42.95 Q10.7 42.7 10.7 42.25 10.7 41.4 13.0 39.35 15.25 37.35 15.25 36.1 L14.85 33.8 14.45 32.1 Q14.45 31.6 17.2 28.0 19.25 25.3 19.8 23.45 M14.3 52.1 Q13.05 53.7 12.25 55.6 L11.75 55.2 Q9.6 53.5 9.6 52.0 9.6 50.95 10.1 49.0 L12.4 47.95 Q12.4 49.65 13.1 50.95 13.6 51.85 14.3 52.1 M48.05 54.75 L51.0 53.95 50.6 55.15 Q50.2 56.3 50.2 57.05 L50.5 57.85 50.8 58.85 Q50.8 59.7 49.65 62.5 L49.15 63.9 Q48.05 62.45 46.65 61.45 48.05 57.55 48.05 55.05 L48.05 54.75 M29.65 64.4 L31.65 65.05 34.45 65.85 Q39.25 66.35 40.6 67.45 L41.3 68.1 42.85 68.35 Q43.8 68.35 45.8 63.6 47.2 64.75 48.15 66.5 L48.85 67.9 49.2 68.8 Q49.8 70.65 49.8 72.6 L49.75 73.7 49.3 74.55 Q48.35 76.5 48.35 77.75 L48.5 79.35 48.55 79.7 48.3 80.6 Q47.2 84.5 46.9 87.0 L44.7 90.8 Q40.7 96.45 40.7 96.9 40.7 98.0 42.05 98.9 L42.7 99.3 Q41.8 100.1 40.8 100.1 39.05 100.1 37.1 98.45 L37.45 97.25 Q37.45 96.75 36.9 95.9 L36.05 94.8 37.95 92.4 Q40.05 89.2 43.8 81.5 43.25 81.7 42.85 81.2 42.45 80.65 42.45 79.4 L42.6 78.0 42.75 76.55 Q42.75 75.0 39.65 72.05 36.65 69.25 35.4 69.25 34.3 69.25 33.6 69.7 L32.4 70.8 30.9 71.8 29.55 66.35 Q29.4 65.2 29.65 64.4 M19.55 50.85 L20.7 53.65 Q23.35 59.25 26.3 59.05 25.9 60.45 26.95 62.1 27.6 63.2 28.55 63.85 27.55 65.7 27.55 68.3 27.55 70.1 28.05 72.3 L27.95 72.3 Q25.8 72.3 24.4 73.1 22.95 73.9 22.95 75.15 L24.3 79.1 27.25 88.25 27.4 90.5 Q27.6 92.8 28.05 94.45 29.5 99.8 34.05 99.8 L35.15 99.7 Q38.25 102.1 40.85 102.1 42.9 102.1 44.55 99.85 L45.65 99.9 48.35 99.25 48.45 99.8 48.5 100.55 48.25 102.75 47.75 105.6 48.2 107.85 47.4 110.0 45.95 112.55 45.25 114.05 Q43.4 115.0 41.4 115.35 41.55 114.75 41.85 114.3 L43.3 112.9 Q45.45 110.95 45.45 105.1 45.45 103.8 44.45 103.2 43.55 102.65 41.85 102.65 38.8 102.65 35.1 110.4 L33.3 114.55 Q31.25 113.65 29.75 112.05 28.45 110.65 27.35 108.15 L28.7 107.15 Q31.75 105.25 33.9 102.75 L33.05 101.95 32.45 102.2 31.85 102.4 Q30.05 102.4 28.5 100.35 27.15 98.5 26.35 95.5 25.95 94.0 23.4 90.25 21.0 86.75 21.0 86.2 L21.4 84.2 21.75 82.3 Q21.75 80.75 21.05 80.15 20.65 79.8 19.45 79.55 18.3 79.3 17.85 78.85 17.1 78.1 17.1 76.4 L17.95 74.55 Q18.85 72.6 18.85 71.8 18.85 70.9 18.1 70.25 L16.55 69.35 Q14.2 68.2 14.2 66.2 14.2 65.55 14.55 65.1 14.95 64.65 15.55 64.65 16.55 64.65 20.8 66.7 L24.85 68.75 26.05 68.55 Q26.65 68.25 26.65 67.3 26.65 66.1 23.55 63.8 L16.45 58.75 14.35 57.25 Q15.2 55.0 16.75 53.2 18.0 51.75 19.55 50.85 M27.35 112.55 Q29.5 115.75 32.4 117.15 L31.9 119.05 Q31.9 120.25 32.8 121.15 33.35 121.65 34.85 122.45 L36.85 123.85 Q37.8 124.75 37.8 126.0 37.8 129.6 36.3 131.35 L33.05 133.7 31.55 134.8 Q29.3 133.8 26.9 133.45 L28.8 132.1 Q30.95 130.7 31.85 129.8 33.25 128.35 33.25 126.75 33.25 125.2 32.15 124.8 L29.9 124.65 Q28.35 124.6 27.6 123.95 26.6 122.95 26.6 120.35 26.6 119.35 27.6 117.4 28.55 115.4 28.55 114.8 L27.65 113.25 27.35 112.55 M41.45 117.75 L44.35 116.95 Q43.95 118.8 43.95 120.75 L44.15 122.0 44.35 123.25 43.85 124.9 Q43.4 126.75 43.4 127.95 43.4 129.6 43.8 130.55 L44.2 131.9 Q44.2 134.9 42.5 137.55 L41.3 139.35 40.95 140.1 Q40.2 139.95 38.85 139.2 L39.8 136.75 Q42.5 130.0 42.5 123.3 42.5 120.4 41.85 118.55 L41.45 117.75 M40.8 142.55 Q40.95 144.0 41.3 144.85 L41.9 146.45 42.45 146.3 Q42.75 146.4 42.75 146.8 L42.25 149.1 Q40.15 148.1 37.5 148.0 37.15 146.65 37.15 144.95 37.15 143.55 37.95 141.4 L40.8 142.55 M27.45 151.75 Q24.35 151.2 24.35 149.7 24.35 148.65 24.8 146.15 L25.2 143.2 24.8 140.55 Q24.35 138.25 24.35 136.9 L24.4 136.4 Q26.7 136.55 29.5 137.55 28.35 140.2 28.35 144.8 28.35 147.85 30.5 149.15 29.2 149.8 28.25 150.75 L27.45 151.75 M38.5 150.55 Q40.5 150.85 42.05 151.75 L42.75 157.2 43.5 163.5 Q43.5 171.05 41.85 174.75 40.1 178.65 36.45 178.65 32.95 178.65 30.9 177.05 L30.3 176.5 30.4 174.15 Q30.4 169.35 29.15 163.65 L28.95 162.6 30.1 162.2 Q33.7 161.0 33.7 158.9 33.4 158.2 31.35 158.2 L29.15 158.85 28.1 158.75 27.55 156.2 27.55 155.85 28.75 154.8 Q30.7 153.5 30.7 153.05 30.7 152.4 29.7 152.1 L28.85 151.95 28.9 151.85 Q30.3 150.85 33.45 150.55 34.3 151.2 34.3 152.3 L32.95 153.45 Q31.5 154.65 31.5 155.35 31.5 156.35 32.25 156.65 L33.9 156.9 Q36.25 157.1 36.25 159.25 L34.55 162.5 Q32.75 165.35 32.75 167.55 32.75 170.9 34.7 172.9 36.15 174.45 37.6 174.45 39.3 174.45 39.85 170.8 40.25 168.4 40.25 162.9 40.25 154.8 38.7 150.95 L38.5 150.55 M41.55 156.55 L41.6 156.15 41.55 155.9 41.55 156.55" fill="#a2a832" fill-rule="evenodd" stroke="none"/>
    <path d="M44.95 32.95 L44.95 33.05 Q44.95 34.8 41.4 36.7 L38.95 38.15 Q37.8 38.95 37.8 39.9 37.8 41.6 39.4 43.45 L42.9 46.85 Q45.4 49.05 46.45 50.55 L47.4 52.15 43.3 52.55 42.3 52.35 41.75 51.2 Q39.7 47.2 36.5 47.2 35.05 47.2 34.35 48.25 L31.2 47.2 Q32.85 46.8 34.1 45.3 35.8 43.2 35.8 40.35 35.8 37.45 34.1 35.35 32.4 33.35 30.0 33.35 27.6 33.35 25.9 35.35 24.2 37.45 24.2 40.35 24.2 43.2 25.9 45.3 26.55 46.1 27.35 46.55 L25.6 46.5 Q21.8 46.5 18.75 48.2 18.3 46.2 18.3 44.4 L18.35 43.1 19.3 42.0 Q24.8 35.55 24.8 32.5 24.8 29.5 23.4 26.15 L25.1 22.45 25.5 21.6 26.55 24.0 Q30.75 33.6 39.0 33.6 L44.95 32.95 M44.4 31.0 L41.1 31.35 38.3 31.2 38.55 30.9 Q39.55 29.8 39.55 27.6 39.55 25.15 36.8 22.85 34.6 21.05 33.7 21.05 31.5 21.05 29.95 22.8 29.3 23.55 29.0 24.25 L27.95 21.75 26.6 18.2 Q26.9 17.0 28.3 16.05 30.35 14.65 33.8 14.55 34.95 16.25 36.85 17.55 38.2 18.5 39.5 19.05 L39.6 19.6 Q41.4 24.55 43.6 29.25 L44.4 31.0 M22.35 29.55 L22.65 30.8 Q22.65 35.15 18.9 38.75 19.25 36.95 19.9 35.35 L21.55 31.6 22.35 29.55 M16.6 44.85 Q17.3 46.1 17.3 47.9 L17.2 49.25 15.05 51.2 14.3 52.1 Q13.6 51.85 13.1 50.95 12.4 49.65 12.4 47.95 L16.6 44.85 M33.7 51.05 Q33.65 52.5 34.2 54.4 35.0 57.3 36.55 59.35 32.5 59.7 30.25 61.65 29.15 62.6 28.55 63.85 27.6 63.2 26.95 62.1 25.9 60.45 26.3 59.05 23.35 59.25 20.7 53.65 L19.55 50.85 Q22.15 49.25 25.45 49.25 28.95 49.25 33.7 51.05 M43.0 59.8 Q43.45 58.85 43.45 57.55 43.45 56.15 43.1 54.7 L45.0 55.0 48.05 54.75 48.05 55.05 Q48.05 57.55 46.65 61.45 45.0 60.35 43.0 59.8 M29.65 64.4 Q29.9 63.25 30.9 62.6 32.9 61.35 38.5 61.35 L38.85 61.35 39.95 61.6 40.8 61.5 Q43.75 61.95 45.8 63.6 43.8 68.35 42.85 68.35 L41.3 68.1 40.6 67.45 Q39.25 66.35 34.45 65.85 L31.65 65.05 29.65 64.4 M32.9 55.8 Q32.9 54.25 31.95 53.15 30.95 52.05 29.6 52.05 28.25 52.05 27.3 53.15 26.3 54.25 26.3 55.8 26.3 57.3 27.3 58.4 28.25 59.5 29.6 59.5 30.95 59.5 31.95 58.4 32.9 57.3 32.9 55.8 M30.9 71.8 L32.4 70.8 33.6 69.7 Q34.3 69.25 35.4 69.25 36.65 69.25 39.65 72.05 42.75 75.0 42.75 76.55 L42.6 78.0 42.45 79.4 Q42.45 80.65 42.85 81.2 43.25 81.7 43.8 81.5 40.05 89.2 37.95 92.4 L36.05 94.8 36.9 95.9 Q37.45 96.75 37.45 97.25 L37.1 98.45 34.8 95.95 34.45 95.5 34.55 94.85 Q34.55 94.0 34.0 93.4 33.45 92.8 32.8 92.75 32.05 91.25 31.8 89.85 L32.65 90.0 Q34.85 90.0 36.95 86.55 39.1 83.1 39.1 79.55 39.1 77.1 37.6 77.0 36.35 76.95 35.0 78.4 L35.0 77.95 Q35.1 76.55 34.0 75.65 33.0 74.8 31.75 74.8 L31.65 74.85 31.15 72.75 30.9 71.8 M28.05 72.3 Q28.45 74.35 29.3 76.7 L29.4 76.9 Q28.2 78.8 28.2 81.8 L28.45 83.1 29.15 85.95 Q29.75 87.65 30.45 88.65 L30.25 89.3 29.3 91.05 29.35 91.45 29.5 91.55 30.25 90.2 Q30.35 92.3 31.0 94.15 30.85 94.45 30.85 94.85 30.85 95.7 31.4 96.3 31.8 96.75 32.35 96.9 33.35 98.3 34.85 99.5 L35.15 99.7 34.05 99.8 Q29.5 99.8 28.05 94.45 27.6 92.8 27.4 90.5 L27.25 88.25 24.3 79.1 22.95 75.15 Q22.95 73.9 24.4 73.1 25.8 72.3 27.95 72.3 L28.05 72.3 M32.4 117.15 Q33.85 117.8 35.45 118.05 35.65 119.6 36.2 120.85 37.35 123.5 39.55 123.5 L40.1 123.25 Q40.5 122.85 40.5 122.1 L40.0 119.5 39.6 118.05 41.45 117.75 41.85 118.55 Q42.5 120.4 42.5 123.3 42.5 130.0 39.8 136.75 L38.85 139.2 34.85 136.7 31.55 134.8 33.05 133.7 36.3 131.35 Q37.8 129.6 37.8 126.0 37.8 124.75 36.85 123.85 L34.85 122.45 Q33.35 121.65 32.8 121.15 31.9 120.25 31.9 119.05 L32.4 117.15 M33.3 114.55 L35.1 110.4 Q38.8 102.65 41.85 102.65 43.55 102.65 44.45 103.2 45.45 103.8 45.45 105.1 45.45 110.95 43.3 112.9 L41.85 114.3 Q41.55 114.75 41.4 115.35 L39.65 115.55 Q39.95 114.4 40.95 112.75 42.4 110.15 42.4 108.1 42.4 106.25 40.8 106.25 38.45 106.25 36.95 108.95 35.55 111.35 35.35 114.9 L35.35 115.15 33.3 114.55 M29.5 137.55 L31.5 138.35 31.4 138.45 Q30.75 139.65 30.75 141.35 30.75 143.0 31.4 144.2 32.15 145.4 33.1 145.4 34.1 145.4 34.8 144.2 35.5 143.0 35.5 141.35 L35.4 140.2 37.95 141.4 Q37.15 143.55 37.15 144.95 37.15 146.65 37.5 148.0 L36.5 147.95 Q32.9 147.95 30.5 149.15 28.35 147.85 28.35 144.8 28.35 140.2 29.5 137.55 M33.45 150.55 L36.5 150.4 38.5 150.55 38.7 150.95 Q40.25 154.8 40.25 162.9 40.25 168.4 39.85 170.8 39.3 174.45 37.6 174.45 36.15 174.45 34.7 172.9 32.75 170.9 32.75 167.55 32.75 165.35 34.55 162.5 L36.25 159.25 Q36.25 157.1 33.9 156.9 L32.25 156.65 Q31.5 156.35 31.5 155.35 31.5 154.65 32.95 153.45 L34.3 152.3 Q34.3 151.2 33.45 150.55 M36.65 163.85 Q36.1 163.85 35.7 164.55 35.3 165.25 35.3 166.2 35.3 167.15 35.7 167.8 36.1 168.5 36.65 168.5 37.2 168.5 37.6 167.8 38.0 167.15 38.0 166.2 38.0 165.25 37.6 164.55 37.2 163.85 36.65 163.85" fill="#cacf5c" fill-rule="evenodd" stroke="none"/>
    <path d="M38.3 31.2 Q34.2 30.6 31.75 28.35 30.25 26.95 29.0 24.25 29.3 23.55 29.95 22.8 31.5 21.05 33.7 21.05 34.6 21.05 36.8 22.85 39.55 25.15 39.55 27.6 39.55 29.8 38.55 30.9 L38.3 31.2 M27.35 46.55 Q26.55 46.1 25.9 45.3 24.2 43.2 24.2 40.35 24.2 37.45 25.9 35.35 27.6 33.35 30.0 33.35 32.4 33.35 34.1 35.35 35.8 37.45 35.8 40.35 35.8 43.2 34.1 45.3 32.85 46.8 31.2 47.2 L27.35 46.55 M34.35 48.25 Q35.05 47.2 36.5 47.2 39.7 47.2 41.75 51.2 L42.3 52.35 Q40.55 51.75 36.85 49.55 35.65 48.8 34.35 48.25 M33.7 51.05 L36.4 52.15 Q40.7 54.05 43.1 54.7 43.45 56.15 43.45 57.55 43.45 58.85 43.0 59.8 L38.5 59.25 36.55 59.35 Q35.0 57.3 34.2 54.4 33.65 52.5 33.7 51.05 M40.8 61.5 L39.95 61.6 38.85 61.35 40.8 61.5 M32.9 55.8 Q32.9 57.3 31.95 58.4 30.95 59.5 29.6 59.5 28.25 59.5 27.3 58.4 26.3 57.3 26.3 55.8 26.3 54.25 27.3 53.15 28.25 52.05 29.6 52.05 30.95 52.05 31.95 53.15 32.9 54.25 32.9 55.8 M29.4 76.9 Q31.0 81.6 31.0 82.2 L30.75 87.0 30.45 88.65 Q29.75 87.65 29.15 85.95 L28.45 83.1 28.2 81.8 Q28.2 78.8 29.4 76.9 M31.0 94.15 Q31.5 95.6 32.35 96.9 31.8 96.75 31.4 96.3 30.85 95.7 30.85 94.85 30.85 94.45 31.0 94.15 M31.65 74.85 L31.75 74.8 Q33.0 74.8 34.0 75.65 35.1 76.55 35.0 77.95 L35.0 78.4 Q36.35 76.95 37.6 77.0 39.1 77.1 39.1 79.55 39.1 83.1 36.95 86.55 34.85 90.0 32.65 90.0 L31.8 89.85 31.65 88.3 Q31.65 87.7 32.05 87.25 L32.4 86.2 32.4 85.6 32.35 85.85 32.0 85.6 Q32.4 83.7 32.4 81.8 32.4 78.55 31.65 74.85 M32.8 92.75 Q33.45 92.8 34.0 93.4 34.55 94.0 34.55 94.85 L34.45 95.5 32.8 92.75 M35.45 118.05 L37.0 118.15 39.6 118.05 40.0 119.5 40.5 122.1 Q40.5 122.85 40.1 123.25 L39.55 123.5 Q37.35 123.5 36.2 120.85 35.65 119.6 35.45 118.05 M35.35 115.15 L35.35 114.9 Q35.55 111.35 36.95 108.95 38.45 106.25 40.8 106.25 42.4 106.25 42.4 108.1 42.4 110.15 40.95 112.75 39.95 114.4 39.65 115.55 L39.1 115.55 35.35 115.15 M31.5 138.35 Q32.9 138.9 34.4 139.7 L35.4 140.2 35.5 141.35 Q35.5 143.0 34.8 144.2 34.1 145.4 33.1 145.4 32.15 145.4 31.4 144.2 30.75 143.0 30.75 141.35 30.75 139.65 31.4 138.45 L31.5 138.35 M36.65 163.85 Q37.2 163.85 37.6 164.55 38.0 165.25 38.0 166.2 38.0 167.15 37.6 167.8 37.2 168.5 36.65 168.5 36.1 168.5 35.7 167.8 35.3 167.15 35.3 166.2 35.3 165.25 35.7 164.55 36.1 163.85 36.65 163.85" fill="#dcdf95" fill-rule="evenodd" stroke="none"/>
    <path d="M47.45 12.55 L49.0 7.35 49.75 8.0 49.75 8.15 Q49.75 11.1 48.7 13.9 L47.9 15.7 Q46.1 19.35 43.55 19.75 L42.85 19.8 Q41.25 19.8 39.5 19.05 38.2 18.5 36.85 17.55 34.95 16.25 33.8 14.55 32.25 12.15 32.25 9.0 L32.25 8.9 Q32.3 7.15 33.2 6.1 L33.8 5.55 34.35 5.8 34.4 5.6 34.4 6.1 34.05 7.0 Q33.65 7.4 33.65 7.9 L33.7 8.7 Q34.05 11.45 36.8 14.5 40.0 18.05 42.8 18.05 L43.0 18.05 Q45.55 17.85 47.25 13.0 L47.45 12.55 M16.05 93.25 L16.35 93.15 Q18.95 93.15 20.85 94.4 22.1 95.25 23.0 96.65 24.05 98.3 25.95 104.4 L27.35 108.15 Q28.45 110.65 29.75 112.05 31.25 113.65 33.3 114.55 L35.35 115.15 39.1 115.55 39.65 115.55 41.4 115.35 Q43.4 115.0 45.25 114.05 L47.1 112.9 Q52.25 109.25 52.25 101.95 L51.95 98.6 51.8 97.7 51.3 94.8 50.85 92.1 50.35 89.35 Q51.2 89.75 51.95 91.5 L53.0 94.85 53.3 96.2 Q53.9 99.25 54.15 102.25 54.15 107.65 51.2 111.75 L50.45 112.65 Q48.0 115.55 44.35 116.95 L41.45 117.75 39.6 118.05 37.0 118.15 35.45 118.05 Q33.85 117.8 32.4 117.15 29.5 115.75 27.35 112.55 25.75 110.25 24.55 107.0 L24.05 105.6 21.55 99.3 Q19.75 95.85 17.05 95.85 L16.95 95.9 16.8 95.45 16.05 93.25 M13.7 76.45 Q12.55 74.65 11.75 70.7 L11.5 68.65 10.75 63.45 Q10.75 60.65 11.35 58.25 L12.25 55.6 Q13.05 53.7 14.3 52.1 L15.05 51.2 17.2 49.25 18.75 48.2 Q21.8 46.5 25.6 46.5 L27.35 46.55 31.2 47.2 34.35 48.25 Q35.65 48.8 36.85 49.55 40.55 51.75 42.3 52.35 L43.3 52.55 47.4 52.15 50.6 51.2 Q52.65 50.35 54.45 48.95 L55.7 47.9 Q58.7 45.05 60.05 40.65 L61.3 42.8 59.5 46.3 56.85 49.85 Q54.25 52.65 51.0 53.95 L48.05 54.75 45.0 55.0 43.1 54.7 Q40.7 54.05 36.4 52.15 L33.7 51.05 Q28.95 49.25 25.45 49.25 22.15 49.25 19.55 50.85 18.0 51.75 16.75 53.2 15.2 55.0 14.35 57.25 13.25 60.05 13.25 63.55 13.25 65.65 15.05 70.05 16.8 74.45 16.8 76.65 L16.75 77.6 16.45 77.85 15.75 77.9 Q14.6 77.9 13.7 76.45 M7.95 49.6 L5.35 49.85 4.75 49.7 4.85 49.25 Q6.0 47.75 7.85 46.3 L9.95 44.75 11.3 43.95 15.8 41.1 18.9 38.75 Q22.65 35.15 22.65 30.8 L22.35 29.55 21.15 26.0 19.8 23.45 Q18.3 21.35 16.5 21.35 L14.9 21.4 Q13.1 21.5 12.3 21.95 L11.1 20.9 Q11.6 20.0 14.1 19.75 L16.75 19.6 Q18.5 19.6 20.0 20.85 21.55 22.15 22.8 24.75 L23.4 26.15 Q24.8 29.5 24.8 32.5 24.8 35.55 19.3 42.0 L18.35 43.1 16.6 44.85 12.4 47.95 10.1 49.0 7.95 49.6 M17.85 14.55 L15.6 14.65 15.5 13.65 Q16.15 12.95 17.15 12.5 L18.35 12.1 19.4 12.15 Q22.25 12.4 24.1 14.1 L25.0 15.1 26.6 18.2 27.95 21.75 29.0 24.25 Q30.25 26.95 31.75 28.35 34.2 30.6 38.3 31.2 L41.1 31.35 44.4 31.0 Q46.7 30.5 48.8 29.3 L49.1 29.1 Q51.25 27.8 52.5 25.95 54.25 23.35 54.25 19.65 L53.85 16.25 55.7 19.45 56.15 20.15 Q56.05 24.65 53.25 28.05 L52.45 28.85 49.7 31.05 Q47.6 32.3 44.95 32.95 L39.0 33.6 Q30.75 33.6 26.55 24.0 L25.5 21.6 23.55 17.4 22.6 16.1 Q21.05 14.4 19.05 14.4 L17.85 14.55 M60.95 32.15 Q61.95 33.35 61.95 34.95 61.95 35.95 61.0 37.7 L60.55 38.65 Q61.05 35.95 61.05 32.85 L60.95 32.15 M61.6 52.0 L61.55 52.2 61.8 54.1 61.9 54.85 61.35 55.25 Q59.9 56.8 59.9 60.7 L60.0 62.5 58.55 65.5 Q58.0 63.5 58.0 60.65 58.0 55.9 60.35 53.15 L61.6 52.0 M49.65 138.05 Q49.65 139.0 49.9 139.45 L50.2 139.95 50.05 141.2 Q47.55 142.6 44.7 142.9 L43.0 143.0 40.8 142.55 37.95 141.4 35.4 140.2 34.4 139.7 Q32.9 138.9 31.5 138.35 L29.5 137.55 Q26.7 136.55 24.4 136.4 L23.45 136.35 20.95 136.65 Q18.8 137.15 17.05 138.55 L16.85 137.35 Q16.85 136.2 17.15 134.9 L17.2 134.9 Q19.95 133.2 23.35 133.15 L23.6 133.15 26.9 133.45 Q29.3 133.8 31.55 134.8 L34.85 136.7 38.85 139.2 Q40.2 139.95 40.95 140.1 L41.3 140.15 45.15 139.75 Q47.55 139.25 49.65 138.05 M47.75 154.45 L47.45 155.85 46.9 158.15 46.15 156.4 Q45.3 154.6 44.05 153.3 L42.05 151.75 Q40.5 150.85 38.5 150.55 L36.5 150.4 33.45 150.55 Q30.3 150.85 28.9 151.85 L28.85 151.95 Q27.3 153.15 27.55 155.85 L27.55 156.2 28.1 158.75 28.95 162.6 29.15 163.65 Q30.4 169.35 30.4 174.15 L30.3 176.5 29.9 179.0 29.05 181.95 28.2 184.1 27.95 183.8 Q28.7 181.95 28.95 178.1 L29.0 174.65 27.3 168.25 Q25.55 162.55 25.55 158.5 25.55 154.35 27.45 151.75 L28.25 150.75 Q29.2 149.8 30.5 149.15 32.9 147.95 36.5 147.95 L37.5 148.0 Q40.15 148.1 42.25 149.1 43.35 149.55 44.35 150.3 46.4 151.85 47.75 154.45 M47.75 162.35 L47.75 162.3 Q48.5 164.25 48.5 165.8 L48.05 169.9 Q48.05 170.7 48.85 173.8 48.85 178.85 45.1 183.55 L44.85 183.85 44.75 182.3 Q44.75 180.15 45.55 176.2 L46.25 173.05 46.3 172.75 Q47.8 166.25 47.8 163.5 L47.75 162.35 M17.7 127.4 Q17.0 126.15 17.0 125.9 L17.45 123.45 Q20.65 119.55 20.65 114.9 20.15 112.05 19.15 109.3 18.35 107.1 17.45 105.8 L17.7 103.7 17.8 103.15 Q19.45 104.6 20.8 107.85 L22.25 112.3 22.55 113.7 22.8 116.85 Q22.8 120.3 17.7 127.4 M52.0 77.55 L51.7 79.55 Q50.8 85.9 49.7 88.65 49.05 90.3 48.3 90.55 L48.0 90.6 47.65 90.6 47.5 91.95 46.85 94.9 45.9 97.35 44.55 99.85 Q42.9 102.1 40.85 102.1 38.25 102.1 35.15 99.7 L34.85 99.5 Q33.35 98.3 32.35 96.9 31.5 95.6 31.0 94.15 30.35 92.3 30.25 90.2 L29.5 91.55 29.35 91.45 29.3 91.05 30.25 89.3 30.45 88.65 30.75 87.0 31.0 82.2 Q31.0 81.6 29.4 76.9 L29.3 76.7 Q28.45 74.35 28.05 72.3 27.55 70.1 27.55 68.3 27.55 65.7 28.55 63.85 29.15 62.6 30.25 61.65 32.5 59.7 36.55 59.35 L38.5 59.25 43.0 59.8 Q45.0 60.35 46.65 61.45 48.05 62.45 49.15 63.9 50.1 65.2 50.75 66.85 52.15 70.25 52.15 76.1 L52.0 77.55 M38.85 61.35 L38.5 61.35 Q32.9 61.35 30.9 62.6 29.9 63.25 29.65 64.4 29.4 65.2 29.55 66.35 L30.9 71.8 31.15 72.75 31.65 74.85 Q32.4 78.55 32.4 81.8 32.4 83.7 32.0 85.6 L32.35 85.85 32.4 85.6 32.4 86.2 32.05 87.25 Q31.65 87.7 31.65 88.3 L31.8 89.85 Q32.05 91.25 32.8 92.75 L34.45 95.5 34.8 95.95 37.1 98.45 Q39.05 100.1 40.8 100.1 41.8 100.1 42.7 99.3 44.15 97.9 45.25 94.2 L46.75 88.65 46.9 87.0 Q47.2 84.5 48.3 80.6 L48.55 79.7 49.75 73.7 49.8 72.6 Q49.8 70.65 49.2 68.8 L48.85 67.9 48.15 66.5 Q47.2 64.75 45.8 63.6 43.75 61.95 40.8 61.5 L38.85 61.35" fill="#517e08" fill-rule="evenodd" stroke="none"/>
  </g>
</svg>
