<?xml version="1.0" encoding="UTF-8" standalone="no"?>
<svg xmlns:ffdec="https://www.free-decompiler.com/flash" xmlns:xlink="http://www.w3.org/1999/xlink" ffdec:objectType="shape" height="63.15px" width="19.85px" xmlns="http://www.w3.org/2000/svg">
  <g transform="matrix(1.0, 0.0, 0.0, 1.0, 7.9, 1.55)">
    <path d="M8.5 58.5 L9.95 56.0 4.4 -0.45 4.4 -0.7 4.55 -1.3 5.3 -1.55 Q6.35 -1.55 7.7 8.7 L9.3 23.25 Q10.9 36.35 11.95 56.2 L11.95 57.2 11.2 57.4 9.35 59.5 Q7.35 61.6 6.05 61.6 4.45 61.6 2.05 59.95 0.1 58.7 -0.85 57.55 L-0.9 57.35 Q-1.05 53.7 -4.2 28.7 -7.2 4.85 -7.9 0.4 L-7.0 0.25 -6.1 -0.4 -5.95 0.15 Q-5.25 3.25 -3.45 14.8 -1.2 29.2 -0.65 37.2 0.3 50.75 1.0 54.9 1.5 58.15 2.45 58.15 3.2 58.15 4.4 58.85 5.65 59.55 6.45 59.55 L7.6 59.25 8.5 58.5" fill="#6c3d28" fill-rule="evenodd" stroke="none"/>
    <path d="M1.15 -1.5 Q3.7 -1.25 4.4 -0.7 L4.4 -0.45 9.95 56.0 8.5 58.5 4.85 29.45 1.15 -1.5" fill="#e6a579" fill-rule="evenodd" stroke="none"/>
    <path d="M1.15 -1.5 L4.85 29.45 8.5 58.5 7.6 59.25 6.45 59.55 Q5.65 59.55 4.4 58.85 3.2 58.15 2.45 58.15 1.5 58.15 1.0 54.9 0.3 50.75 -0.65 37.2 -1.2 29.2 -3.45 14.8 -5.25 3.25 -5.95 0.15 L-2.35 -1.55 1.15 -1.5" fill="#ebb794" fill-rule="evenodd" stroke="none"/>
  </g>
</svg>
