<?xml version="1.0" encoding="UTF-8" standalone="no"?>
<svg xmlns:ffdec="https://www.free-decompiler.com/flash" xmlns:xlink="http://www.w3.org/1999/xlink" ffdec:objectType="shape" height="169.15px" width="66.45px" xmlns="http://www.w3.org/2000/svg">
  <g transform="matrix(1.0, 0.0, 0.0, 1.0, 30.2, 133.75)">
    <path d="M13.95 -22.3 L14.0 -19.5 8.35 -19.25 3.15 -19.1 Q-6.6 -19.1 -13.0 -21.3 -19.6 -23.55 -19.1 -27.0 L-19.3 -28.0 Q-17.1 -24.55 -8.5 -22.95 0.65 -21.2 13.95 -22.3" fill="#ffffff" fill-rule="evenodd" stroke="none"/>
    <path d="M-16.75 -20.95 L-15.05 -20.1 -17.2 -9.25 -19.05 -10.1 -16.75 -20.95 M13.4 -17.45 L15.15 -17.65 16.2 -6.5 13.4 -17.45 M27.05 -21.1 L28.6 -22.2 31.45 -10.15 29.75 -9.75 27.05 -21.1 M-18.95 -2.4 Q-18.95 -5.05 -18.5 -5.7 -18.0 -6.45 -15.9 -6.45 L-14.1 -6.25 Q-12.15 -5.8 -10.75 -4.4 L-9.25 -3.25 -8.45 -2.9 Q-4.55 -1.15 -3.4 -1.15 1.7 -2.65 6.35 -3.25 15.45 -4.45 20.55 0.0 19.1 1.9 16.6 2.8 13.7 3.85 7.2 4.55 L14.0 5.15 Q16.35 5.15 19.4 4.35 21.7 3.8 22.7 3.3 L23.25 6.15 Q23.45 7.5 24.0 7.5 L21.9 9.65 Q19.1 12.0 15.7 12.95 L20.2 13.75 24.65 12.95 Q25.8 16.65 21.85 19.4 18.4 21.75 12.95 22.35 L16.65 22.9 19.95 22.95 19.25 23.55 Q17.35 25.1 13.05 26.7 9.05 28.15 7.45 28.15 -3.15 28.15 -10.6 20.6 -18.95 12.1 -18.95 -2.4" fill="#244773" fill-rule="evenodd" stroke="none"/>
    <path d="M0.05 -6.5 Q5.75 -6.1 12.5 -6.2 L12.55 -5.3 Q14.55 -4.5 14.55 -5.5 14.55 -6.15 15.05 -6.25 L16.25 -6.25 18.3 -5.85 26.2 -6.65 31.7 -1.6 Q32.85 1.8 33.2 7.8 33.2 19.15 25.0 26.6 17.55 33.4 8.0 33.4 4.75 33.4 0.45 31.75 -5.0 29.6 -9.4 25.65 -21.6 14.6 -21.6 -6.25 L-21.2 -13.3 -20.5 -12.95 -21.2 -9.75 -19.2 -9.35 -19.05 -10.1 -17.2 -9.25 -17.45 -8.0 -15.5 -7.6 Q-16.15 -9.4 -15.15 -9.4 L-9.15 -7.65 Q-8.15 -7.05 -5.9 -6.4 L-3.15 -5.75 Q-1.65 -5.75 0.05 -6.5 M-18.95 -2.4 Q-18.95 12.1 -10.6 20.6 -3.15 28.15 7.45 28.15 9.05 28.15 13.05 26.7 17.35 25.1 19.25 23.55 L19.95 22.95 16.65 22.9 12.95 22.35 Q18.4 21.75 21.85 19.4 25.8 16.65 24.65 12.95 L20.2 13.75 15.7 12.95 Q19.1 12.0 21.9 9.65 L24.0 7.5 Q23.45 7.5 23.25 6.15 L22.7 3.3 Q21.7 3.8 19.4 4.35 16.35 5.15 14.0 5.15 L7.2 4.55 Q13.7 3.85 16.6 2.8 19.1 1.9 20.55 0.0 15.45 -4.45 6.35 -3.25 1.7 -2.65 -3.4 -1.15 -4.55 -1.15 -8.45 -2.9 L-9.25 -3.25 -10.75 -4.4 Q-12.15 -5.8 -14.1 -6.25 L-15.9 -6.45 Q-18.0 -6.45 -18.5 -5.7 -18.95 -5.05 -18.95 -2.4" fill="#1c3759" fill-rule="evenodd" stroke="none"/>
    <path d="M34.5 -14.85 L35.45 -7.1 36.25 1.4 Q36.25 17.7 27.55 27.0 19.7 35.4 8.0 35.4 -2.8 35.4 -11.9 25.9 -23.6 13.65 -23.6 -8.35 L-23.05 -14.7 -21.2 -13.3 -21.6 -6.25 Q-21.6 14.6 -9.4 25.65 -5.0 29.6 0.45 31.75 4.75 33.4 8.0 33.4 17.55 33.4 25.0 26.6 33.2 19.15 33.2 7.8 32.85 1.8 31.7 -1.6 L26.2 -6.65 18.3 -5.85 16.25 -6.25 15.05 -6.25 Q14.55 -6.15 14.55 -5.5 14.55 -4.5 12.55 -5.3 L12.5 -6.2 Q5.75 -6.1 0.05 -6.5 1.35 -7.75 3.55 -8.15 L12.25 -8.5 12.05 -10.65 11.65 -14.9 11.45 -16.9 Q5.75 -16.55 -1.3 -16.95 L-1.3 -17.35 Q5.7 -17.0 13.4 -17.45 L16.2 -6.5 15.15 -17.65 Q18.95 -17.95 22.55 -19.05 25.65 -20.05 27.05 -21.1 L29.75 -9.75 31.45 -10.15 28.6 -22.2 29.95 -23.8 31.3 -25.55 31.85 -24.85 32.0 -24.0 31.55 -22.65 Q31.1 -21.85 31.2 -19.75 L32.2 -15.55 32.7 -13.45 34.5 -14.85 M-20.85 -25.35 L-18.85 -23.05 -16.75 -20.95 -19.05 -10.1 -19.2 -9.35 -21.2 -9.75 -20.5 -12.95 -20.05 -15.0 -19.2 -18.95 Q-19.25 -21.65 -20.35 -23.1 L-21.4 -23.95 -21.25 -24.75 -20.85 -25.35 M-15.05 -20.1 L-9.0 -18.25 -9.35 -17.95 -13.3 -18.9 -13.65 -16.9 -14.5 -12.8 -14.85 -10.85 Q-11.8 -11.35 -10.65 -10.1 -9.8 -8.35 -9.15 -7.65 L-15.15 -9.4 Q-16.15 -9.4 -15.5 -7.6 L-17.45 -8.0 -17.2 -9.25 -15.05 -20.1 M25.85 -17.4 L25.4 -19.35 22.0 -18.4 Q19.2 -17.7 17.2 -17.5 L17.4 -15.5 17.8 -11.2 18.0 -9.2 Q20.95 -9.4 27.35 -11.2 L26.9 -13.15 25.85 -17.4" fill="#152c46" fill-rule="evenodd" stroke="none"/>
    <path d="M32.0 -27.65 Q33.6 -26.2 34.8 -21.85 L35.7 -17.7 Q35.4 -15.85 34.5 -14.85 L32.7 -13.45 32.2 -15.55 33.7 -17.55 Q33.7 -18.55 32.75 -21.05 L31.2 -19.75 Q31.1 -21.85 31.55 -22.65 L32.0 -24.0 31.85 -24.85 31.3 -25.55 32.0 -27.65 M-23.05 -14.7 L-23.85 -16.15 -24.35 -17.6 Q-22.7 -26.3 -21.35 -27.7 L-20.85 -25.35 -21.25 -24.75 -21.4 -23.95 -20.35 -23.1 Q-19.25 -21.65 -19.2 -18.95 -20.45 -19.6 -21.5 -20.45 L-21.85 -20.75 -22.2 -18.6 -22.3 -17.4 Q-22.3 -16.75 -20.05 -15.0 L-20.5 -12.95 -21.2 -13.3 -23.05 -14.7 M-9.0 -18.25 L-5.75 -17.75 -8.4 -15.8 Q-9.8 -14.3 -9.8 -12.9 -9.8 -10.8 -8.05 -9.3 -6.25 -7.75 -3.65 -7.75 L-1.8 -7.8 -0.95 -8.2 -0.2 -8.6 Q-2.95 -8.3 -4.7 -8.65 -8.05 -9.3 -8.05 -12.85 -8.05 -15.1 -5.55 -15.9 L-1.3 -16.95 Q5.75 -16.55 11.45 -16.9 L11.65 -14.9 Q5.3 -14.7 -5.45 -15.3 -6.95 -15.3 -7.05 -12.85 -7.05 -10.7 2.35 -10.45 7.05 -10.35 12.05 -10.65 L12.25 -8.5 3.55 -8.15 Q1.35 -7.75 0.05 -6.5 -1.65 -5.75 -3.15 -5.75 L-5.9 -6.4 Q-8.15 -7.05 -9.15 -7.65 -9.8 -8.35 -10.65 -10.1 -11.8 -11.35 -14.85 -10.85 L-14.5 -12.8 -12.1 -13.15 Q-10.85 -13.6 -10.5 -14.4 -10.2 -15.25 -11.0 -15.95 -11.85 -16.65 -13.65 -16.9 L-13.3 -18.9 -9.35 -17.95 -9.0 -18.25 M17.4 -15.5 L17.2 -17.5 Q19.2 -17.7 22.0 -18.4 L25.4 -19.35 25.85 -17.4 Q20.35 -15.85 17.4 -15.5 M26.9 -13.15 L27.35 -11.2 Q20.95 -9.4 18.0 -9.2 L17.8 -11.2 26.9 -13.15" fill="#1d1d1d" fill-rule="evenodd" stroke="none"/>
    <path d="M31.2 -19.75 L32.75 -21.05 Q33.7 -18.55 33.7 -17.55 L32.2 -15.55 31.2 -19.75 M17.4 -15.5 Q20.35 -15.85 25.85 -17.4 L26.9 -13.15 17.8 -11.2 17.4 -15.5 M11.65 -14.9 L12.05 -10.65 Q7.05 -10.35 2.35 -10.45 -7.05 -10.7 -7.05 -12.85 -6.95 -15.3 -5.45 -15.3 5.3 -14.7 11.65 -14.9 M-19.2 -18.95 L-20.05 -15.0 Q-22.3 -16.75 -22.3 -17.4 L-22.2 -18.6 -21.85 -20.75 -21.5 -20.45 Q-20.45 -19.6 -19.2 -18.95 M-13.65 -16.9 Q-11.85 -16.65 -11.0 -15.95 -10.2 -15.25 -10.5 -14.4 -10.85 -13.6 -12.1 -13.15 L-14.5 -12.8 -13.65 -16.9" fill="#333333" fill-rule="evenodd" stroke="none"/>
    <path d="M-5.75 -17.75 L-1.3 -17.35 -1.3 -16.95 -5.55 -15.9 Q-8.05 -15.1 -8.05 -12.85 -8.05 -9.3 -4.7 -8.65 -2.95 -8.3 -0.2 -8.6 L-0.95 -8.2 -1.8 -7.8 -3.65 -7.75 Q-6.25 -7.75 -8.05 -9.3 -9.8 -10.8 -9.8 -12.9 -9.8 -14.3 -8.4 -15.8 L-5.75 -17.75" fill="#666666" fill-rule="evenodd" stroke="none"/>
    <path d="M-4.3 -115.9 Q-0.6 -119.2 1.6 -122.45 3.1 -124.7 3.1 -125.25 3.1 -126.15 1.8 -127.2 0.05 -128.55 -2.75 -128.55 -3.4 -128.55 -6.7 -126.65 -11.15 -124.15 -14.1 -120.9 -15.6 -119.35 -16.75 -115.0 -17.95 -110.75 -17.95 -107.15 L-17.7 -103.75 -17.05 -99.1 Q-15.2 -101.3 -12.0 -106.2 -9.25 -110.45 -4.3 -115.9 M11.55 -120.25 L11.1 -121.2 8.8 -125.15 0.35 -112.95 Q-1.4 -110.05 -5.05 -106.1 L-11.2 -99.55 Q-18.0 -91.8 -16.3 -86.25 L-20.85 -86.25 Q-22.25 -86.25 -22.5 -89.1 L-22.55 -100.5 -22.45 -105.3 Q-22.25 -109.1 -21.35 -115.2 -25.1 -110.3 -26.75 -102.6 -27.85 -97.65 -27.85 -92.75 -27.85 -85.3 -21.3 -73.45 -14.8 -61.55 -14.8 -54.9 -14.8 -54.0 -16.35 -44.6 L-18.2 -34.05 -19.0 -30.95 -19.2 -29.75 Q-19.2 -26.6 -11.5 -24.6 -4.6 -22.85 4.35 -22.85 15.15 -22.85 22.25 -24.85 30.15 -27.1 30.15 -31.05 30.15 -32.0 29.2 -34.85 24.3 -44.1 22.3 -54.7 20.85 -62.45 20.85 -71.7 L20.7 -81.55 Q20.55 -91.15 20.25 -93.95 L20.05 -95.45 19.7 -97.6 Q18.1 -94.9 16.2 -93.65 14.4 -92.5 11.95 -92.5 7.1 -92.5 4.35 -97.25 2.2 -101.0 2.2 -105.5 2.2 -109.8 4.05 -113.5 6.8 -119.15 12.5 -118.4 L11.55 -120.25 M16.35 -109.8 Q13.15 -117.55 10.9 -117.55 6.85 -117.55 4.65 -112.1 3.2 -108.45 3.2 -105.5 3.2 -99.5 6.55 -96.1 9.1 -93.5 11.95 -93.5 14.35 -93.5 16.8 -95.4 19.35 -97.4 19.35 -99.55 19.35 -102.65 16.35 -109.8 M-21.35 -27.7 L-19.6 -34.85 Q-17.9 -43.55 -17.9 -55.8 -17.9 -64.95 -24.05 -76.85 L-28.3 -85.3 Q-30.2 -89.75 -30.2 -93.2 -30.2 -97.6 -28.75 -103.05 -26.65 -110.7 -22.25 -117.5 -20.55 -120.15 -13.2 -126.65 L-6.25 -132.7 Q-6.25 -133.2 -1.85 -133.75 5.3 -133.75 10.35 -126.7 16.7 -117.9 22.2 -95.65 L25.65 -62.45 Q28.55 -34.55 31.4 -34.55 32.05 -34.55 32.15 -31.9 L32.0 -27.65 31.3 -25.55 29.95 -23.8 28.6 -22.2 27.05 -21.1 Q25.65 -20.05 22.55 -19.05 18.95 -17.95 15.15 -17.65 L13.4 -17.45 Q5.7 -17.0 -1.3 -17.35 L-5.75 -17.75 -9.0 -18.25 -15.05 -20.1 -16.75 -20.95 -18.85 -23.05 -20.85 -25.35 -21.35 -27.7 M14.0 -19.5 Q21.2 -20.2 25.15 -22.25 29.05 -24.3 30.0 -27.85 L30.15 -28.85 Q29.0 -27.2 23.9 -24.75 17.95 -21.95 13.95 -22.3 0.65 -21.2 -8.5 -22.95 -17.1 -24.55 -19.3 -28.0 L-19.1 -27.0 Q-19.6 -23.55 -13.0 -21.3 -6.6 -19.1 3.15 -19.1 L8.35 -19.25 14.0 -19.5 M-8.15 -129.7 Q-13.45 -127.05 -16.05 -122.7 -19.15 -120.2 -20.55 -113.0 -21.55 -107.95 -21.55 -101.75 L-20.95 -87.25 -17.25 -87.25 Q-16.25 -93.6 -15.35 -95.85 -14.55 -97.9 -12.15 -100.4 -1.95 -111.1 8.2 -126.0 4.45 -131.7 -1.75 -131.7 -4.15 -131.7 -8.15 -129.7 M-18.2 -103.85 L-18.45 -107.25 Q-18.45 -115.4 -13.65 -122.15 -8.75 -129.05 -2.7 -129.05 3.45 -129.05 3.1 -125.0 2.7 -120.5 -5.85 -113.6 L-15.5 -100.05 Q-18.95 -94.75 -18.9 -90.65 L-19.85 -90.85 -19.0 -94.75 Q-18.05 -98.6 -18.35 -97.15 L-17.55 -99.15 -18.2 -103.85" fill="#771315" fill-rule="evenodd" stroke="none"/>
    <path d="M-18.2 -103.85 L-17.55 -99.15 -18.35 -97.15 Q-18.05 -98.6 -19.0 -94.75 L-19.85 -90.85 -18.9 -90.65 Q-18.95 -94.75 -15.5 -100.05 L-5.85 -113.6 Q2.7 -120.5 3.1 -125.0 3.45 -129.05 -2.7 -129.05 -8.75 -129.05 -13.65 -122.15 -18.45 -115.4 -18.45 -107.25 L-18.2 -103.85 M-8.15 -129.7 Q-4.15 -131.7 -1.75 -131.7 4.45 -131.7 8.2 -126.0 -1.95 -111.1 -12.15 -100.4 -14.55 -97.9 -15.35 -95.85 -16.25 -93.6 -17.25 -87.25 L-20.95 -87.25 -21.55 -101.75 Q-21.55 -107.95 -20.55 -113.0 -19.15 -120.2 -16.05 -122.7 -13.45 -127.05 -8.15 -129.7" fill="#8e171b" fill-rule="evenodd" stroke="none"/>
    <path d="M11.1 -121.2 Q5.9 -119.7 3.05 -115.9 0.1 -111.95 0.1 -105.9 0.1 -96.1 6.55 -91.8 8.55 -90.45 11.0 -89.8 L13.1 -89.45 Q15.15 -89.45 16.7 -90.6 L20.25 -93.95 Q20.55 -91.15 20.7 -81.55 L20.85 -71.7 Q20.85 -62.45 22.3 -54.7 24.3 -44.1 29.2 -34.85 30.15 -32.0 30.15 -31.05 30.15 -27.1 22.25 -24.85 15.15 -22.85 4.35 -22.85 -4.6 -22.85 -11.5 -24.6 -19.2 -26.6 -19.2 -29.75 L-19.0 -30.95 -18.2 -34.05 -16.35 -44.6 Q-14.8 -54.0 -14.8 -54.9 -14.8 -61.55 -21.3 -73.45 -27.85 -85.3 -27.85 -92.75 -27.85 -97.65 -26.75 -102.6 -25.1 -110.3 -21.35 -115.2 -22.25 -109.1 -22.45 -105.3 -25.15 -99.6 -25.15 -90.3 -25.15 -83.05 -21.9 -79.05 -18.6 -75.0 -12.55 -75.0 -11.35 -75.0 -4.9 -76.9 2.25 -79.05 5.15 -80.65 L5.7 -80.5 5.85 -79.8 Q5.85 -78.5 3.05 -77.05 0.25 -75.6 0.25 -74.1 0.25 -72.75 1.65 -72.45 L6.4 -72.0 7.15 -71.0 Q6.4 -69.15 4.2 -68.55 L-0.3 -68.1 Q-6.6 -67.9 -7.9 -64.35 -8.6 -62.35 -11.15 -49.5 -13.75 -36.35 -13.75 -34.1 -13.75 -24.05 3.05 -24.05 13.5 -24.05 17.5 -27.3 21.0 -30.15 21.0 -37.1 21.0 -43.25 16.15 -44.1 14.55 -44.4 12.05 -44.15 L8.6 -43.85 7.1 -44.0 7.0 -44.15 6.9 -44.8 Q6.9 -47.55 11.25 -49.1 L16.85 -50.85 Q14.6 -53.3 7.45 -54.2 0.5 -55.05 -0.35 -56.15 0.75 -57.7 3.05 -57.95 L7.1 -58.0 Q11.9 -58.35 11.9 -65.4 L11.15 -68.3 Q10.4 -71.45 10.4 -73.6 10.4 -76.1 13.15 -79.05 16.25 -82.3 16.45 -83.05 15.25 -84.3 10.8 -86.35 6.45 -88.4 4.35 -90.7 L0.05 -96.0 Q-2.55 -98.95 -4.6 -98.95 -9.9 -98.95 -12.7 -92.8 -14.55 -88.75 -14.55 -85.3 -14.55 -82.75 -18.6 -82.75 -21.0 -82.75 -21.0 -84.9 L-20.85 -86.25 -16.3 -86.25 Q-18.0 -91.8 -11.2 -99.55 L-5.05 -106.1 Q-1.4 -110.05 0.35 -112.95 L8.8 -125.15 11.1 -121.2 M20.05 -95.45 Q18.55 -93.25 16.35 -91.8 14.4 -90.5 13.0 -90.5 9.65 -90.5 5.95 -94.05 1.1 -98.65 1.1 -105.9 1.1 -110.15 2.8 -113.45 5.35 -118.5 11.55 -120.25 L12.5 -118.4 Q6.8 -119.15 4.05 -113.5 2.2 -109.8 2.2 -105.5 2.2 -101.0 4.35 -97.25 7.1 -92.5 11.95 -92.5 14.4 -92.5 16.2 -93.65 18.1 -94.9 19.7 -97.6 L20.05 -95.45" fill="#b81f23" fill-rule="evenodd" stroke="none"/>
    <path d="M-20.85 -86.25 L-21.0 -84.9 Q-21.0 -82.75 -18.6 -82.75 -14.55 -82.75 -14.55 -85.3 -14.55 -88.75 -12.7 -92.8 -9.9 -98.95 -4.6 -98.95 -2.55 -98.95 0.05 -96.0 L4.35 -90.7 Q6.45 -88.4 10.8 -86.35 15.25 -84.3 16.45 -83.05 16.25 -82.3 13.15 -79.05 10.4 -76.1 10.4 -73.6 10.4 -71.45 11.15 -68.3 L11.9 -65.4 Q11.9 -58.35 7.1 -58.0 L3.05 -57.95 Q0.75 -57.7 -0.35 -56.15 0.5 -55.05 7.45 -54.2 14.6 -53.3 16.85 -50.85 L11.25 -49.1 Q6.9 -47.55 6.9 -44.8 L7.0 -44.15 7.1 -44.0 8.6 -43.85 12.05 -44.15 Q14.55 -44.4 16.15 -44.1 21.0 -43.25 21.0 -37.1 21.0 -30.15 17.5 -27.3 13.5 -24.05 3.05 -24.05 -13.75 -24.05 -13.75 -34.1 -13.75 -36.35 -11.15 -49.5 -8.6 -62.35 -7.9 -64.35 -6.6 -67.9 -0.3 -68.1 L4.2 -68.55 Q6.4 -69.15 7.15 -71.0 L6.4 -72.0 1.65 -72.45 Q0.25 -72.75 0.25 -74.1 0.25 -75.6 3.05 -77.05 5.85 -78.5 5.85 -79.8 L5.7 -80.5 5.15 -80.65 Q2.25 -79.05 -4.9 -76.9 -11.35 -75.0 -12.55 -75.0 -18.6 -75.0 -21.9 -79.05 -25.15 -83.05 -25.15 -90.3 -25.15 -99.6 -22.45 -105.3 L-22.55 -100.5 -22.5 -89.1 Q-22.25 -86.25 -20.85 -86.25" fill="#d12227" fill-rule="evenodd" stroke="none"/>
    <path d="M11.1 -121.2 L11.55 -120.25 Q5.35 -118.5 2.8 -113.45 1.1 -110.15 1.1 -105.9 1.1 -98.65 5.95 -94.05 9.65 -90.5 13.0 -90.5 14.4 -90.5 16.35 -91.8 18.55 -93.25 20.05 -95.45 L20.25 -93.95 16.7 -90.6 Q15.15 -89.45 13.1 -89.45 L11.0 -89.8 Q8.55 -90.45 6.55 -91.8 0.1 -96.1 0.1 -105.9 0.1 -111.95 3.05 -115.9 5.9 -119.7 11.1 -121.2 M16.35 -109.8 Q19.35 -102.65 19.35 -99.55 19.35 -97.4 16.8 -95.4 14.35 -93.5 11.95 -93.5 9.1 -93.5 6.55 -96.1 3.2 -99.5 3.2 -105.5 3.2 -108.45 4.65 -112.1 6.85 -117.55 10.9 -117.55 13.15 -117.55 16.35 -109.8 M13.95 -22.3 Q17.95 -21.95 23.9 -24.75 29.0 -27.2 30.15 -28.85 L30.0 -27.85 Q29.05 -24.3 25.15 -22.25 21.2 -20.2 14.0 -19.5 L13.95 -22.3" fill="#cdc9b6" fill-rule="evenodd" stroke="none"/>
    <path d="M-14.1 -120.9 Q-11.15 -124.15 -6.7 -126.65 -3.4 -128.55 -2.75 -128.55 0.05 -128.55 1.8 -127.2 3.1 -126.15 3.1 -125.25 3.1 -124.7 1.6 -122.45 -0.6 -119.2 -4.3 -115.9 -8.35 -115.9 -11.2 -117.35 -14.1 -118.85 -14.1 -120.9" fill="#dea572" fill-rule="evenodd" stroke="none"/>
    <path d="M-14.1 -120.9 Q-14.1 -118.85 -11.2 -117.35 -8.35 -115.9 -4.3 -115.9 -9.25 -110.45 -12.0 -106.2 -15.2 -101.3 -17.05 -99.1 L-17.7 -103.75 -17.95 -107.15 Q-17.95 -110.75 -16.75 -115.0 -15.6 -119.35 -14.1 -120.9" fill="#f1ba87" fill-rule="evenodd" stroke="none"/>
  </g>
</svg>
