<?xml version="1.0" encoding="UTF-8" standalone="no"?>
<svg xmlns:ffdec="https://www.free-decompiler.com/flash" xmlns:xlink="http://www.w3.org/1999/xlink" ffdec:objectType="shape" height="117.45px" width="56.6px" xmlns="http://www.w3.org/2000/svg">
  <g transform="matrix(1.0, 0.0, 0.0, 1.0, 35.25, 117.85)">
    <path d="M16.95 -97.9 Q7.15 -72.1 0.05 -52.2 L-1.95 -52.2 Q9.35 -80.85 14.6 -98.1 19.0 -112.4 18.55 -116.5 22.5 -114.15 16.95 -97.9" fill="#381628" fill-rule="evenodd" stroke="none"/>
    <path d="M17.6 -117.85 L18.25 -117.65 20.85 -114.7 21.35 -112.5 Q21.6 -110.65 16.95 -95.7 10.9 -76.55 0.9 -51.5 L-1.15 -51.2 -2.55 -51.05 Q-3.2 -51.05 -3.2 -51.7 L1.2 -63.45 6.8 -78.1 13.5 -97.9 Q18.45 -114.25 17.6 -117.85 M16.95 -97.9 Q22.5 -114.15 18.55 -116.5 19.0 -112.4 14.6 -98.1 9.35 -80.85 -1.95 -52.2 L0.05 -52.2 Q7.15 -72.1 16.95 -97.9" fill="#1f0c16" fill-rule="evenodd" stroke="none"/>
    <path d="M1.05 -50.45 L0.25 -50.2 Q0.95 -47.9 1.05 -45.4 1.0 -43.5 0.75 -42.7 0.25 -41.3 -1.85 -41.3 -3.35 -41.3 -5.35 -42.15 -7.6 -42.8 -12.25 -39.7 L-14.35 -38.35 -13.9 -38.8 -12.5 -40.85 Q-11.15 -42.3 -11.0 -44.35 -12.55 -46.4 -15.8 -48.05 -18.35 -49.4 -19.1 -49.4 -21.4 -49.4 -21.95 -48.75 -22.45 -48.1 -22.55 -45.4 L-22.2 -43.1 -22.3 -42.8 -22.0 -42.5 -21.6 -41.35 -21.25 -40.6 Q-20.25 -39.05 -18.75 -38.05 -17.65 -37.3 -17.3 -37.3 L-15.6 -37.6 Q-17.95 -36.25 -18.85 -36.2 -21.3 -37.3 -22.75 -40.4 L-23.15 -41.25 -23.75 -43.9 -23.8 -44.85 -23.75 -45.85 -26.9 -44.75 -26.85 -44.7 -27.6 -43.75 Q-27.6 -19.7 -27.75 -17.0 L-28.35 -17.2 -28.5 -21.25 -28.5 -25.15 -28.5 -44.2 Q-29.3 -43.7 -30.8 -34.2 L-32.65 -21.55 -34.4 -9.65 Q-34.4 -7.3 -33.9 -6.4 L-31.55 -3.7 Q-30.9 -3.3 -28.45 -2.3 L-25.75 -1.3 Q-23.1 -1.3 -22.3 -2.1 L-21.1 -3.8 Q-21.65 -2.35 -23.4 -0.95 -24.8 -0.4 -26.3 -0.4 -29.4 -0.4 -32.1 -2.95 -35.25 -5.95 -35.25 -10.6 -35.25 -12.4 -29.9 -44.0 L-29.8 -44.25 -29.5 -44.8 -23.6 -46.85 Q-23.3 -47.95 -22.6 -48.95 -21.55 -50.55 -20.25 -50.55 -18.45 -50.55 -15.75 -49.6 L-3.6 -53.8 Q-3.5 -53.8 -3.35 -53.95 L-2.55 -54.1 Q-0.2 -54.1 0.45 -52.95 L1.05 -50.45 M1.0 -28.55 Q0.4 -29.15 -0.6 -29.3 L-0.65 -29.3 -1.45 -29.35 -1.6 -29.1 -3.05 -27.2 -1.55 -26.8 -0.35 -26.25 Q0.05 -26.1 0.7 -26.6 L0.95 -26.75 1.1 -26.85 1.4 -27.75 1.0 -28.55 M1.05 -26.05 L0.55 -25.4 1.4 -24.5 1.65 -22.75 Q1.2 -20.9 -0.8 -19.15 L-4.0 -16.05 -5.65 -16.3 Q-6.45 -16.65 -7.9 -17.85 L-8.8 -16.75 Q-9.7 -15.85 -11.1 -15.85 -12.3 -15.85 -12.8 -17.0 L-13.2 -19.3 Q-13.3 -20.25 -15.25 -21.45 -17.15 -22.65 -17.15 -23.2 -17.15 -25.05 -16.55 -25.7 L-14.6 -27.15 -15.5 -28.9 -15.75 -30.05 Q-15.75 -32.8 -12.3 -32.8 -11.2 -32.8 -9.85 -34.05 L-9.95 -33.45 -9.7 -32.15 -8.55 -31.3 -7.45 -30.05 -6.5 -32.4 -6.4 -32.7 Q-6.4 -33.55 -7.2 -34.1 -8.05 -34.7 -9.15 -34.7 L-9.2 -34.7 -7.8 -36.25 -5.6 -34.95 -5.3 -34.05 -2.95 -35.1 Q-1.65 -35.1 -0.95 -34.2 -0.3 -33.35 -0.3 -32.15 L-0.5 -31.2 -0.7 -31.05 0.85 -31.05 Q2.2 -29.95 2.2 -28.75 L1.05 -26.05 M-8.35 -50.2 L-7.05 -51.65 -14.5 -49.05 -13.25 -48.5 -10.15 -48.65 -9.3 -48.9 -8.35 -50.2 M-7.85 -48.05 L-7.15 -46.3 -6.45 -44.45 -6.85 -43.5 -4.75 -42.85 -3.05 -42.35 Q-1.85 -42.35 -1.25 -42.8 -0.25 -43.55 -0.25 -45.65 -0.25 -48.2 -0.95 -50.45 -1.75 -53.05 -3.0 -53.05 -5.75 -53.05 -7.15 -51.0 L-8.3 -48.4 -7.85 -48.05 M-8.15 -46.4 L-8.55 -46.9 -9.55 -47.1 -11.15 -47.05 -9.9 -44.7 -10.0 -42.9 -9.3 -43.25 Q-8.1 -44.25 -7.55 -45.25 L-8.15 -46.4 M-10.2 -31.4 L-13.3 -31.85 -14.5 -30.45 -14.8 -29.8 Q-14.9 -30.5 -14.9 -29.5 L-14.75 -28.8 -14.45 -28.65 -14.35 -28.5 Q-14.35 -27.4 -13.0 -26.6 -11.7 -25.85 -9.85 -25.85 L-9.55 -24.5 -10.3 -23.7 -10.85 -23.05 -12.55 -19.65 -12.6 -19.3 -12.6 -18.35 Q-11.05 -17.0 -10.65 -17.0 -9.8 -17.0 -9.05 -17.7 -8.55 -18.2 -7.8 -19.45 L-7.35 -20.1 -6.9 -20.85 -6.55 -21.85 -6.6 -22.75 -5.35 -23.15 -4.35 -22.35 -3.6 -21.9 -1.4 -20.75 -1.15 -20.8 -0.2 -20.95 -0.2 -21.0 -0.15 -21.05 Q0.85 -22.05 0.85 -23.15 0.85 -23.8 -0.8 -25.4 L-0.8 -25.9 -1.9 -26.1 -2.65 -26.4 -3.5 -26.4 -3.55 -26.85 -3.8 -27.85 -3.1 -28.25 -2.45 -28.95 -2.1 -29.6 -1.85 -30.3 Q-1.1 -32.05 -1.5 -32.9 L-2.95 -34.3 -3.35 -34.3 -3.85 -34.1 -4.2 -33.8 -5.65 -32.25 -6.7 -29.5 -7.95 -29.2 -8.25 -30.0 -8.95 -30.7 -9.6 -31.05 -10.2 -31.4 M-12.75 -25.75 L-13.05 -25.95 Q-14.05 -25.95 -14.75 -24.85 -15.5 -23.8 -15.5 -22.3 L-15.1 -21.9 -13.95 -21.75 Q-12.95 -21.75 -12.6 -22.1 L-11.7 -23.55 -10.4 -24.95 -12.75 -25.75 M-25.5 -40.35 L-25.55 -40.9 -24.65 -40.85 -24.6 -40.7 -25.5 -40.35 M-3.85 -20.6 L-4.15 -20.75 -5.8 -22.4 -6.3 -20.55 -7.0 -19.0 -6.65 -17.85 Q-6.2 -17.05 -5.6 -16.9 L-4.15 -18.3 -3.85 -20.6" fill="#462c09" fill-rule="evenodd" stroke="none"/>
    <path d="M1.05 -45.4 Q0.95 -47.9 0.25 -50.2 L1.05 -50.45 5.25 -27.35 Q6.85 -18.4 6.85 -16.85 L6.5 -14.85 Q6.05 -13.0 5.6 -12.4 1.5 -6.7 -5.0 -5.3 L-12.5 -3.9 Q-18.05 -2.8 -23.4 -0.95 -21.65 -2.35 -21.1 -3.8 L-20.55 -5.3 -19.9 -7.2 Q-19.8 -12.55 -20.4 -16.5 L-19.7 -12.4 -19.15 -8.95 -19.0 -7.25 Q-19.3 -5.3 -20.0 -3.8 L-19.9 -3.65 -19.75 -3.65 Q-12.95 -6.3 -1.8 -9.0 5.95 -11.6 5.95 -17.05 5.95 -23.75 1.55 -42.3 L1.05 -45.4 M-23.15 -41.25 L-22.75 -40.4 -24.45 -39.75 -20.8 -18.85 Q-23.75 -31.2 -25.5 -40.35 L-24.6 -40.7 Q-23.85 -40.95 -23.15 -41.25 M-7.95 -29.2 L-6.7 -29.5 -6.1 -29.55 -5.4 -29.4 -5.3 -29.3 -4.6 -28.95 -3.8 -27.85 -3.55 -26.85 Q-3.7 -27.55 -4.3 -28.05 -5.15 -28.75 -6.3 -28.75 -7.65 -28.85 -8.65 -28.1 -9.7 -27.35 -9.75 -26.25 -9.8 -25.2 -8.85 -24.4 -7.9 -23.65 -6.5 -23.6 -5.35 -23.6 -4.55 -24.05 L-4.1 -24.35 -4.25 -24.15 -4.35 -24.05 -4.8 -23.5 -5.35 -23.15 -6.6 -22.75 -7.95 -23.0 -8.6 -23.35 -8.9 -23.6 -9.25 -24.05 -9.55 -24.5 -9.85 -25.85 -9.85 -26.5 -9.6 -27.2 -9.5 -27.4 -9.15 -28.15 -7.95 -29.2" fill="#1f0c16" fill-rule="evenodd" stroke="none"/>
    <path d="M-5.35 -42.15 Q-3.35 -41.3 -1.85 -41.3 0.25 -41.3 0.75 -42.7 1.0 -43.5 1.05 -45.4 L1.55 -42.3 Q0.95 -38.7 0.85 -31.05 L-0.7 -31.05 -0.5 -31.2 -0.3 -32.15 Q-0.3 -33.35 -0.95 -34.2 -1.65 -35.1 -2.95 -35.1 L-5.3 -34.05 -5.6 -34.95 -5.35 -42.15 M-19.0 -7.25 L-19.15 -8.95 Q-16.75 -9.45 -11.95 -11.25 -5.15 -13.85 -4.0 -16.05 L-0.8 -19.15 Q1.2 -20.9 1.65 -22.75 1.65 -16.35 -4.4 -11.8 -10.45 -7.25 -19.0 -7.25 M1.4 -24.5 L0.55 -25.4 1.05 -26.05 1.4 -24.5" fill="#381628" fill-rule="evenodd" stroke="none"/>
    <path d="M1.55 -42.3 Q5.95 -23.75 5.95 -17.05 5.95 -11.6 -1.8 -9.0 -12.95 -6.3 -19.75 -3.65 L-19.9 -3.65 -20.0 -3.8 Q-19.3 -5.3 -19.0 -7.25 -10.45 -7.25 -4.4 -11.8 1.65 -16.35 1.65 -22.75 L1.4 -24.5 1.05 -26.05 2.2 -28.75 Q2.2 -29.95 0.85 -31.05 0.95 -38.7 1.55 -42.3" fill="#29101e" fill-rule="evenodd" stroke="none"/>
    <path d="M-31.55 -3.7 L-33.9 -6.4 Q-34.4 -7.3 -34.4 -9.65 L-32.65 -21.55 -30.8 -34.2 Q-29.3 -43.7 -28.5 -44.2 L-28.5 -25.15 Q-31.15 -5.65 -31.55 -3.7 M-15.6 -37.6 L-17.3 -37.3 Q-17.65 -37.3 -18.75 -38.05 -20.25 -39.05 -21.25 -40.6 L-20.9 -40.75 -20.65 -40.8 -20.65 -41.35 -21.4 -41.4 -21.6 -41.35 -22.0 -42.5 -22.0 -42.75 -21.8 -42.55 -21.75 -42.75 -21.85 -43.05 -21.95 -42.8 -22.0 -42.75 -22.05 -42.9 -22.05 -42.8 -22.2 -43.1 -22.55 -45.4 Q-22.45 -48.1 -21.95 -48.75 -21.4 -49.4 -19.1 -49.4 -18.35 -49.4 -15.8 -48.05 -12.55 -46.4 -11.0 -44.35 L-12.5 -40.85 -13.9 -38.8 -14.35 -38.35 Q-14.95 -37.85 -15.6 -37.6 M1.1 -28.15 L1.0 -28.55 1.4 -27.75 1.1 -28.15 M-1.4 -28.4 L-1.5 -28.6 -1.45 -28.7 -1.4 -28.4 M-0.25 -26.4 L0.7 -26.6 Q0.05 -26.1 -0.35 -26.25 L-0.25 -26.4 M-9.15 -34.7 Q-8.05 -34.7 -7.2 -34.1 -6.4 -33.55 -6.4 -32.7 L-6.6 -32.6 -6.9 -33.35 Q-6.9 -33.8 -7.4 -34.1 L-8.7 -34.45 -9.15 -34.7 M-9.7 -32.15 L-9.95 -33.45 -9.55 -32.45 -9.7 -32.15 M-1.45 -49.95 Q-2.1 -51.05 -3.1 -51.75 L-4.1 -52.25 Q-6.5 -51.15 -7.85 -48.05 L-8.3 -48.4 -7.15 -51.0 Q-5.75 -53.05 -3.0 -53.05 -1.75 -53.05 -0.95 -50.45 -0.25 -48.2 -0.25 -45.65 -0.25 -43.55 -1.25 -42.8 -1.85 -42.35 -3.05 -42.35 L-4.75 -42.85 -6.85 -43.5 -6.45 -44.45 Q-2.9 -43.4 -1.1 -43.4 -1.3 -43.55 -0.95 -47.6 L-1.45 -49.95 M-3.6 -43.6 L-3.8 -43.5 -3.9 -43.25 -3.8 -43.0 -3.6 -42.9 -3.4 -43.0 -3.3 -43.25 -3.4 -43.5 -3.6 -43.6 M-0.65 -44.35 L-0.55 -44.55 -0.65 -44.75 -0.85 -44.85 -1.05 -44.75 -1.15 -44.55 -1.05 -44.35 Q-0.95 -44.25 -0.85 -44.25 -0.75 -44.25 -0.65 -44.35 M-7.55 -45.25 Q-8.1 -44.25 -9.3 -43.25 L-10.0 -42.9 -9.9 -44.7 -8.65 -44.8 Q-7.85 -45.0 -7.55 -45.25 M-9.05 -44.5 L-9.3 -44.4 -9.45 -44.15 -9.3 -43.9 Q-9.2 -43.8 -9.05 -43.8 L-8.75 -43.9 -8.65 -44.15 -8.75 -44.4 -9.05 -44.5 M-16.95 -48.35 L-19.2 -48.4 Q-21.85 -48.15 -21.85 -46.8 -21.85 -45.9 -21.55 -45.5 L-20.05 -43.35 -20.8 -42.85 Q-19.7 -42.5 -18.1 -41.65 -16.75 -40.95 -16.45 -40.95 L-15.7 -41.05 Q-15.7 -42.05 -15.95 -42.55 L-14.0 -42.2 -14.15 -42.25 Q-14.1 -42.75 -14.55 -42.85 L-12.75 -44.25 -13.3 -45.15 -16.0 -47.95 -16.15 -48.1 -16.95 -48.35 M-18.85 -41.0 L-19.0 -40.6 -18.85 -40.2 -18.5 -40.05 Q-18.3 -40.05 -18.15 -40.2 -18.0 -40.35 -18.0 -40.6 L-18.15 -41.0 -18.5 -41.15 -18.85 -41.0 M-17.1 -39.6 L-17.45 -39.45 -17.6 -39.15 -17.6 -39.05 -17.45 -38.8 -17.1 -38.7 -16.75 -38.8 -16.6 -39.0 -16.6 -39.15 -16.75 -39.45 Q-16.9 -39.6 -17.1 -39.6 M-14.5 -30.45 L-13.3 -31.85 -10.2 -31.4 -10.9 -30.6 -11.05 -30.8 -11.15 -30.8 -11.25 -30.8 -12.75 -30.95 Q-13.85 -30.95 -14.5 -30.45 M-9.6 -31.05 L-8.95 -30.7 -9.55 -30.9 -9.6 -31.05 M-8.25 -30.0 L-7.95 -29.2 -9.15 -28.15 -9.3 -28.5 -9.0 -28.85 -8.25 -30.0 M-6.7 -29.5 L-5.65 -32.25 -4.2 -33.8 -4.55 -32.95 -5.15 -32.2 -5.75 -30.75 -6.1 -29.55 -6.7 -29.5 M-2.95 -34.3 L-1.5 -32.9 Q-1.1 -32.05 -1.85 -30.3 L-2.5 -30.8 -2.3 -31.05 -2.2 -31.7 -2.7 -33.8 -2.85 -34.15 -2.95 -34.3 M-2.1 -29.6 L-2.45 -28.95 -2.2 -29.55 -2.1 -29.6 M-3.1 -28.25 L-3.8 -27.85 -4.6 -28.95 -4.3 -29.25 -4.2 -28.95 -3.1 -28.25 M-3.5 -26.4 L-2.65 -26.4 -3.35 -25.25 -3.35 -24.85 -3.75 -24.9 -3.8 -24.9 -3.75 -25.1 Q-3.5 -25.7 -3.5 -26.4 M-0.8 -25.4 Q0.85 -23.8 0.85 -23.15 0.85 -22.05 -0.15 -21.05 0.25 -22.2 -0.1 -24.5 L-1.0 -24.5 -1.15 -24.5 -0.8 -25.4 M-1.4 -20.75 L-3.6 -21.9 -2.95 -21.8 -2.6 -21.6 -2.0 -21.75 Q-1.65 -21.85 -1.4 -20.75 M-4.35 -22.35 L-5.35 -23.15 -4.8 -23.5 -4.35 -22.35 M-6.6 -22.75 L-6.55 -21.85 -7.4 -22.3 -7.45 -22.45 -8.05 -22.45 -7.95 -23.0 -6.6 -22.75 M-6.9 -20.85 L-7.35 -20.1 -7.4 -20.4 -6.9 -20.85 M-12.55 -19.65 L-10.85 -23.05 -11.25 -21.65 -11.75 -20.6 Q-12.2 -19.75 -12.55 -19.65 M-10.3 -23.7 L-9.55 -24.5 -9.25 -24.05 -10.3 -23.7 M-9.85 -25.85 Q-11.7 -25.85 -13.0 -26.6 -14.35 -27.4 -14.35 -28.5 L-13.5 -28.1 -12.45 -27.45 -11.8 -26.95 -11.2 -26.7 -10.6 -26.45 -10.35 -26.55 -9.85 -26.5 -9.85 -25.85 M-11.0 -30.0 L-11.25 -29.75 -11.0 -30.1 -11.0 -30.0 M-13.05 -25.95 L-13.0 -25.75 -13.85 -25.35 Q-14.45 -25.35 -14.85 -24.65 -15.25 -24.05 -15.3 -23.2 L-15.35 -23.15 -15.3 -23.0 -15.45 -22.75 -15.5 -22.3 Q-15.5 -23.8 -14.75 -24.85 -14.05 -25.95 -13.05 -25.95 M-12.65 -25.3 L-12.6 -25.2 -12.6 -24.95 -12.65 -25.3 M-12.6 -22.1 Q-12.95 -21.75 -13.95 -21.75 L-12.95 -22.3 -12.6 -22.1 M-3.2 -31.1 L-2.9 -30.9 -2.95 -30.9 -3.2 -31.1 M-6.95 -32.35 L-7.0 -32.2 -7.2 -32.25 -6.95 -32.35 M-1.4 -29.2 L-1.45 -29.35 -0.65 -29.3 -1.4 -29.2 M-31.35 -10.65 Q-31.1 -11.0 -31.1 -11.45 -31.1 -11.9 -31.35 -12.2 -31.6 -12.55 -31.95 -12.55 L-32.55 -12.2 -32.8 -11.45 -32.55 -10.65 Q-32.3 -10.35 -31.95 -10.35 -31.6 -10.35 -31.35 -10.65 M-31.45 -18.4 L-31.65 -17.9 -31.45 -17.4 -30.95 -17.2 Q-30.65 -17.2 -30.45 -17.4 L-30.25 -17.9 -30.45 -18.4 -30.95 -18.6 -31.45 -18.4 M-1.5 -24.15 L-1.6 -23.9 -1.6 -24.15 -1.5 -24.15 M-4.65 -20.65 L-4.55 -20.6 -4.85 -20.5 -4.65 -20.65 M-7.0 -19.0 L-6.75 -18.9 -6.65 -17.85 -7.0 -19.0" fill="#b77215" fill-rule="evenodd" stroke="none"/>
    <path d="M-27.75 -17.0 Q-27.6 -19.7 -27.6 -43.75 -26.75 -43.75 -26.15 -42.9 -25.55 -42.1 -25.55 -40.9 L-25.5 -40.35 Q-23.75 -31.2 -20.8 -18.85 L-20.4 -16.5 Q-19.8 -12.55 -19.9 -7.2 -22.15 -4.15 -24.1 -4.15 -26.35 -4.15 -27.2 -5.1 -28.35 -6.35 -28.35 -10.1 L-27.75 -17.0 M1.1 -28.15 L0.1 -28.15 0.05 -27.5 0.15 -26.7 0.95 -26.75 0.7 -26.6 -0.25 -26.4 -1.25 -27.2 -1.55 -26.8 -3.05 -27.2 -1.6 -29.1 -1.5 -28.6 -1.4 -28.4 -0.35 -28.3 -0.6 -29.3 Q0.4 -29.15 1.0 -28.55 L1.1 -28.15 M-9.2 -34.7 L-9.15 -34.7 Q-8.6 -34.3 -9.15 -34.2 L-9.9 -33.7 -9.5 -33.25 -9.2 -33.1 -8.5 -33.25 -8.7 -34.45 -7.4 -34.1 Q-6.9 -33.8 -6.9 -33.35 L-7.8 -33.2 -7.6 -32.5 Q-7.45 -32.25 -7.2 -32.25 L-7.0 -32.2 -6.5 -32.4 -7.45 -30.05 -8.55 -31.3 Q-8.55 -31.75 -9.55 -32.45 L-9.95 -33.45 -9.85 -34.05 -9.7 -34.3 -9.2 -34.7 M-4.2 -49.9 L-3.9 -49.8 -3.55 -49.9 -3.45 -50.25 -3.55 -50.55 -3.9 -50.7 -4.2 -50.55 -4.35 -50.25 -4.2 -49.9 M-0.95 -47.6 Q-1.55 -46.5 -2.05 -46.0 -2.9 -45.1 -4.6 -45.1 -5.3 -45.1 -6.15 -45.8 -7.15 -46.65 -7.15 -47.9 -7.15 -48.95 -6.45 -50.05 -5.6 -51.35 -4.4 -51.35 L-3.25 -50.85 -1.45 -49.95 -0.95 -47.6 M-4.4 -46.75 L-4.8 -46.9 -5.2 -46.75 -5.35 -46.35 -5.2 -45.95 -4.8 -45.8 Q-4.55 -45.8 -4.4 -45.95 -4.25 -46.1 -4.25 -46.35 L-4.4 -46.75 M-3.8 -47.65 L-3.95 -47.25 -3.8 -46.85 Q-3.65 -46.7 -3.4 -46.7 -3.15 -46.7 -3.0 -46.85 -2.85 -47.0 -2.85 -47.25 L-3.0 -47.65 -3.4 -47.8 -3.8 -47.65 M-4.85 -48.15 L-4.65 -48.75 -4.85 -49.3 -5.45 -49.55 -6.0 -49.3 -6.25 -48.75 -6.0 -48.15 -5.45 -47.95 -4.85 -48.15 M-3.35 -44.75 L-3.2 -45.15 -2.85 -45.3 -2.5 -45.15 -2.35 -44.75 Q-2.35 -44.5 -2.5 -44.35 -2.65 -44.2 -2.85 -44.2 -3.05 -44.2 -3.2 -44.35 L-3.35 -44.75 M-9.55 -47.1 L-8.55 -46.9 -8.15 -46.4 -8.55 -45.55 Q-8.75 -45.2 -9.4 -45.2 L-10.0 -45.2 -9.85 -45.25 -10.0 -45.35 -10.1 -46.1 -9.9 -46.9 -9.55 -47.1 M-8.85 -46.65 L-9.2 -46.8 -9.55 -46.65 -9.7 -46.3 -9.55 -45.95 Q-9.4 -45.8 -9.2 -45.8 -9.0 -45.8 -8.85 -45.95 -8.7 -46.1 -8.7 -46.3 L-8.85 -46.65 M-14.15 -45.65 L-14.75 -45.4 -15.0 -44.8 -14.75 -44.2 -14.15 -43.95 Q-13.8 -43.95 -13.55 -44.2 L-13.3 -44.8 -13.55 -45.4 -14.15 -45.65 M-14.85 -46.5 L-15.15 -46.65 -15.4 -46.5 -15.55 -46.25 -15.4 -45.95 Q-15.3 -45.85 -15.15 -45.85 L-14.85 -45.95 -14.75 -46.25 -14.85 -46.5 M-16.15 -48.1 L-16.0 -47.95 -13.3 -45.15 -12.75 -44.25 -14.55 -42.85 Q-14.1 -42.75 -14.15 -42.25 L-14.0 -42.2 -15.95 -42.55 Q-15.7 -42.05 -15.7 -41.05 L-16.45 -40.95 Q-16.75 -40.95 -18.1 -41.65 -19.7 -42.5 -20.8 -42.85 L-20.05 -43.35 -21.55 -45.5 Q-21.85 -45.9 -21.85 -46.8 -21.85 -48.15 -19.2 -48.4 L-16.95 -48.35 Q-17.05 -47.95 -17.4 -47.7 L-17.8 -47.1 -16.55 -46.2 -16.0 -46.1 -15.95 -46.2 -16.15 -48.1 M-15.3 -44.55 L-15.4 -44.85 -15.75 -45.0 -16.05 -44.85 -16.2 -44.55 -16.05 -44.2 -15.75 -44.1 -15.4 -44.2 -15.3 -44.55 M-17.95 -45.25 L-18.55 -45.0 -18.8 -44.4 -18.55 -43.8 -17.95 -43.55 Q-17.6 -43.55 -17.35 -43.8 -17.1 -44.05 -17.1 -44.4 L-17.35 -45.0 Q-17.6 -45.25 -17.95 -45.25 M-19.55 -47.15 L-20.05 -47.4 -20.55 -47.15 -20.75 -46.65 -20.55 -46.1 -20.05 -45.9 Q-19.75 -45.9 -19.55 -46.1 L-19.35 -46.65 -19.55 -47.15 M-18.85 -41.0 L-18.5 -41.15 -18.15 -41.0 -18.0 -40.6 Q-18.0 -40.35 -18.15 -40.2 -18.3 -40.05 -18.5 -40.05 L-18.85 -40.2 -19.0 -40.6 -18.85 -41.0 M-8.95 -30.7 L-8.25 -30.0 -9.0 -28.85 -9.05 -29.45 -9.5 -30.15 -9.3 -28.5 -9.15 -28.15 -9.5 -27.4 -10.0 -28.4 Q-10.9 -27.9 -11.35 -27.9 L-11.4 -26.8 -11.2 -26.7 -11.8 -26.95 -12.45 -27.45 -11.65 -28.1 -12.3 -28.3 -13.5 -28.1 -14.35 -28.5 -14.45 -28.65 Q-13.35 -29.0 -13.1 -29.3 L-13.05 -29.7 Q-13.05 -30.35 -13.3 -30.4 L-13.8 -30.35 -14.8 -29.8 -14.5 -30.45 Q-13.85 -30.95 -12.75 -30.95 L-11.25 -30.8 -11.7 -30.75 -12.35 -30.55 -12.55 -30.2 -12.15 -29.9 -11.25 -29.75 -11.0 -30.0 -10.55 -30.6 Q-10.15 -30.9 -9.55 -30.9 L-8.95 -30.7 M-4.2 -33.8 L-3.85 -34.1 -3.8 -33.5 -3.55 -32.9 -3.2 -32.7 -2.85 -33.0 Q-2.7 -33.25 -2.7 -33.8 L-2.2 -31.7 -3.0 -32.25 -3.2 -31.1 -2.95 -30.9 -2.9 -30.9 -2.8 -30.85 -2.4 -30.5 -2.2 -29.55 -2.45 -28.95 -3.1 -28.25 -4.2 -28.95 Q-3.55 -28.75 -2.9 -29.4 L-3.3 -29.5 -4.3 -29.25 -4.6 -28.95 -5.3 -29.3 -4.4 -29.85 -4.8 -30.8 Q-5.0 -31.15 -5.35 -31.2 L-5.6 -30.7 -5.4 -29.4 -6.1 -29.55 -5.75 -30.75 -5.15 -32.2 Q-4.95 -32.15 -4.6 -31.3 -4.3 -31.6 -4.45 -31.95 L-4.55 -32.95 -4.2 -33.8 M-3.35 -34.3 L-2.95 -34.3 -2.85 -34.15 -3.35 -34.3 M-2.65 -26.4 L-1.9 -26.1 Q-1.1 -25.6 -1.2 -24.45 L-1.45 -24.2 -1.6 -24.15 -1.6 -23.9 -1.0 -23.0 Q-0.45 -24.05 -1.0 -24.5 L-0.1 -24.5 Q0.25 -22.2 -0.15 -21.05 L-0.2 -21.0 -0.15 -21.85 -0.6 -22.35 -1.35 -22.15 -1.2 -21.4 Q-0.95 -21.05 -1.15 -20.8 L-1.4 -20.75 Q-1.65 -21.85 -2.0 -21.75 L-2.1 -21.85 -2.1 -22.2 -2.35 -22.75 Q-2.95 -22.4 -2.95 -21.8 L-3.6 -21.9 -4.35 -22.35 -4.8 -23.5 -4.35 -24.05 -4.05 -23.0 Q-3.65 -22.2 -3.0 -22.85 L-3.2 -24.25 -4.25 -24.15 -4.1 -24.35 -3.8 -24.9 -3.75 -24.9 -3.35 -24.85 -2.05 -25.55 Q-2.7 -25.65 -3.35 -25.25 L-2.65 -26.4 M-6.55 -21.85 L-6.9 -20.85 -7.4 -20.4 -8.35 -20.2 -9.1 -20.3 -8.85 -19.6 Q-8.6 -19.25 -7.8 -19.45 -8.55 -18.2 -9.05 -17.7 -9.8 -17.0 -10.65 -17.0 -11.05 -17.0 -12.6 -18.35 L-11.8 -18.05 Q-11.05 -18.15 -10.95 -19.05 L-11.2 -19.8 Q-12.0 -20.05 -12.6 -19.3 L-12.55 -19.65 Q-12.2 -19.75 -11.75 -20.6 -10.35 -20.9 -10.3 -21.55 L-11.25 -21.65 -10.85 -23.05 -10.3 -23.7 -9.25 -24.05 -8.9 -23.6 -9.35 -23.65 -10.2 -23.45 -10.45 -23.25 -10.2 -22.0 -10.15 -21.85 Q-9.35 -22.2 -8.6 -23.35 L-7.95 -23.0 -8.05 -22.45 -8.25 -21.9 -7.55 -20.95 Q-7.3 -21.6 -7.4 -22.3 L-6.55 -21.85 M-12.6 -25.2 L-12.75 -25.75 -10.4 -24.95 -11.7 -23.55 Q-12.2 -23.55 -12.55 -23.15 -12.95 -22.8 -12.95 -22.3 L-13.95 -21.75 Q-13.65 -22.2 -13.65 -23.3 L-13.7 -23.3 -13.8 -23.25 -14.65 -23.35 -15.3 -23.2 Q-15.25 -24.05 -14.85 -24.65 -14.45 -25.35 -13.85 -25.35 L-13.6 -24.15 -12.6 -24.95 -12.6 -25.2 M-15.1 -21.9 L-15.5 -22.3 -15.45 -22.75 -15.1 -21.9 M-9.6 -27.2 L-9.85 -26.5 -10.35 -26.55 -9.6 -27.2 M-23.25 -13.1 L-22.95 -12.4 -22.25 -12.1 Q-21.85 -12.1 -21.55 -12.4 -21.25 -12.7 -21.25 -13.1 -21.25 -13.5 -21.55 -13.8 -21.85 -14.1 -22.25 -14.1 L-22.95 -13.8 -23.25 -13.1 M-26.6 -16.8 L-26.3 -15.95 Q-26.05 -15.6 -25.65 -15.6 -25.25 -15.6 -24.95 -15.95 -24.7 -16.3 -24.7 -16.8 -24.7 -17.3 -24.95 -17.65 -25.25 -18.0 -25.65 -18.0 -26.05 -18.0 -26.3 -17.65 L-26.6 -16.8 M-23.85 -22.45 Q-24.25 -22.45 -24.55 -22.15 L-24.85 -21.45 -24.55 -20.75 Q-24.25 -20.45 -23.85 -20.45 -23.45 -20.45 -23.15 -20.75 -22.85 -21.05 -22.85 -21.45 L-23.15 -22.15 -23.85 -22.45 M-26.2 -28.4 Q-25.85 -28.4 -25.6 -28.65 -25.35 -28.9 -25.35 -29.25 L-25.6 -29.85 -26.2 -30.1 -26.8 -29.85 -27.05 -29.25 -26.8 -28.65 Q-26.55 -28.4 -26.2 -28.4 M-23.1 -8.35 Q-23.1 -9.0 -23.4 -9.45 -23.75 -9.9 -24.25 -9.9 -24.75 -9.9 -25.05 -9.45 -25.4 -9.0 -25.4 -8.35 -25.4 -7.7 -25.05 -7.25 -24.75 -6.8 -24.25 -6.8 -23.75 -6.8 -23.4 -7.25 -23.1 -7.7 -23.1 -8.35 M-4.1 -20.6 L-3.85 -20.6 -4.15 -18.3 -5.6 -16.9 Q-6.2 -17.05 -6.65 -17.85 L-6.75 -18.9 Q-6.1 -19.85 -6.3 -20.55 L-5.8 -22.4 -4.15 -20.75 -4.65 -20.65 -4.85 -20.5 Q-4.1 -20.6 -5.0 -19.25 L-4.45 -19.55 Q-4.05 -19.85 -4.1 -20.6" fill="#eec433" fill-rule="evenodd" stroke="none"/>
    <path d="M-26.85 -44.7 L-26.9 -44.75 -23.75 -45.85 -23.8 -44.85 -26.85 -44.7 M0.95 -26.75 L0.15 -26.7 0.05 -27.5 0.1 -28.15 1.1 -28.15 1.4 -27.75 1.1 -26.85 0.95 -26.75 M-0.6 -29.3 L-0.35 -28.3 -1.4 -28.4 -1.45 -28.7 -1.4 -29.2 -0.65 -29.3 -0.6 -29.3 M-13.25 -48.5 L-14.5 -49.05 -7.05 -51.65 -8.35 -50.2 -13.25 -48.5 M-4.2 -49.9 L-4.35 -50.25 -4.2 -50.55 -3.9 -50.7 -3.55 -50.55 -3.45 -50.25 -3.55 -49.9 -3.9 -49.8 -4.2 -49.9 M-4.85 -48.15 L-5.45 -47.95 -6.0 -48.15 -6.25 -48.75 -6.0 -49.3 -5.45 -49.55 -4.85 -49.3 -4.65 -48.75 -4.85 -48.15 M-3.8 -47.65 L-3.4 -47.8 -3.0 -47.65 -2.85 -47.25 Q-2.85 -47.0 -3.0 -46.85 -3.15 -46.7 -3.4 -46.7 -3.65 -46.7 -3.8 -46.85 L-3.95 -47.25 -3.8 -47.65 M-4.4 -46.75 L-4.25 -46.35 Q-4.25 -46.1 -4.4 -45.95 -4.55 -45.8 -4.8 -45.8 L-5.2 -45.95 -5.35 -46.35 -5.2 -46.75 -4.8 -46.9 -4.4 -46.75 M-8.85 -46.65 L-8.7 -46.3 Q-8.7 -46.1 -8.85 -45.95 -9.0 -45.8 -9.2 -45.8 -9.4 -45.8 -9.55 -45.95 L-9.7 -46.3 -9.55 -46.65 -9.2 -46.8 -8.85 -46.65 M-14.85 -46.5 L-14.75 -46.25 -14.85 -45.95 -15.15 -45.85 Q-15.3 -45.85 -15.4 -45.95 L-15.55 -46.25 -15.4 -46.5 -15.15 -46.65 -14.85 -46.5 M-14.15 -45.65 L-13.55 -45.4 -13.3 -44.8 -13.55 -44.2 Q-13.8 -43.95 -14.15 -43.95 L-14.75 -44.2 -15.0 -44.8 -14.75 -45.4 -14.15 -45.65 M-16.15 -48.1 L-15.95 -46.2 -16.0 -46.1 -16.55 -46.2 -17.8 -47.1 -17.4 -47.7 Q-17.05 -47.95 -16.95 -48.35 L-16.15 -48.1 M-19.55 -47.15 L-19.35 -46.65 -19.55 -46.1 Q-19.75 -45.9 -20.05 -45.9 L-20.55 -46.1 -20.75 -46.65 -20.55 -47.15 -20.05 -47.4 -19.55 -47.15 M-17.95 -45.25 Q-17.6 -45.25 -17.35 -45.0 L-17.1 -44.4 Q-17.1 -44.05 -17.35 -43.8 -17.6 -43.55 -17.95 -43.55 L-18.55 -43.8 -18.8 -44.4 -18.55 -45.0 -17.95 -45.25 M-15.3 -44.55 L-15.4 -44.2 -15.75 -44.1 -16.05 -44.2 -16.2 -44.55 -16.05 -44.85 -15.75 -45.0 -15.4 -44.85 -15.3 -44.55 M-3.85 -34.1 L-3.35 -34.3 -2.85 -34.15 -2.7 -33.8 Q-2.7 -33.25 -2.85 -33.0 L-3.2 -32.7 -3.55 -32.9 -3.8 -33.5 -3.85 -34.1 M-0.2 -21.0 L-0.2 -20.95 -1.15 -20.8 Q-0.95 -21.05 -1.2 -21.4 L-1.35 -22.15 -0.6 -22.35 -0.15 -21.85 -0.2 -21.0 M-12.6 -18.35 L-12.6 -19.3 Q-12.0 -20.05 -11.2 -19.8 L-10.95 -19.05 Q-11.05 -18.15 -11.8 -18.05 L-12.6 -18.35 M-14.45 -28.65 L-14.75 -28.8 -14.9 -29.5 Q-14.9 -30.5 -14.8 -29.8 L-13.8 -30.35 -13.3 -30.4 Q-13.05 -30.35 -13.05 -29.7 L-13.1 -29.3 Q-13.35 -29.0 -14.45 -28.65 M-11.25 -30.8 L-11.15 -30.8 -11.05 -30.8 -10.9 -30.6 -11.0 -30.1 -11.25 -29.75 -12.15 -29.9 -12.55 -30.2 -12.35 -30.55 -11.7 -30.75 -11.25 -30.8 M-11.2 -26.7 L-11.4 -26.8 -11.35 -27.9 Q-10.9 -27.9 -10.0 -28.4 L-9.5 -27.4 -9.6 -27.2 -10.35 -26.55 -10.6 -26.45 -11.2 -26.7 M-9.3 -28.5 L-9.5 -30.15 -9.05 -29.45 -9.0 -28.85 -9.3 -28.5 M-13.0 -25.75 L-12.65 -25.3 -12.6 -24.95 -13.6 -24.15 -13.85 -25.35 -13.0 -25.75 M-13.95 -21.75 L-15.1 -21.9 -15.45 -22.75 -15.3 -23.0 -15.35 -23.15 -15.3 -23.2 -14.65 -23.35 -13.8 -23.25 -13.7 -23.3 -13.65 -23.3 Q-13.65 -22.2 -13.95 -21.75 M-3.2 -31.1 L-3.0 -32.25 -2.2 -31.7 -2.3 -31.05 -2.5 -30.8 -2.8 -30.85 -2.9 -30.9 -3.2 -31.1 M-5.4 -29.4 L-5.6 -30.7 -5.35 -31.2 Q-5.0 -31.15 -4.8 -30.8 L-4.4 -29.85 -5.3 -29.3 -5.4 -29.4 M-4.3 -29.25 L-3.3 -29.5 -2.9 -29.4 Q-3.55 -28.75 -4.2 -28.95 L-4.3 -29.25 M-8.7 -34.45 L-8.5 -33.25 -9.2 -33.1 -9.5 -33.25 -9.9 -33.7 -9.15 -34.2 Q-8.6 -34.3 -9.15 -34.7 L-8.7 -34.45 M-6.9 -33.35 L-6.6 -32.6 -6.95 -32.35 -7.2 -32.25 -7.8 -33.2 -6.9 -33.35 M-3.35 -24.85 L-3.35 -25.25 Q-2.7 -25.65 -2.05 -25.55 L-3.35 -24.85 M-26.2 -28.4 Q-26.55 -28.4 -26.8 -28.65 L-27.05 -29.25 -26.8 -29.85 -26.2 -30.1 -25.6 -29.85 -25.35 -29.25 Q-25.35 -28.9 -25.6 -28.65 -25.85 -28.4 -26.2 -28.4 M-23.85 -22.45 L-23.15 -22.15 -22.85 -21.45 Q-22.85 -21.05 -23.15 -20.75 -23.45 -20.45 -23.85 -20.45 -24.25 -20.45 -24.55 -20.75 L-24.85 -21.45 -24.55 -22.15 Q-24.25 -22.45 -23.85 -22.45 M-26.6 -16.8 L-26.3 -17.65 Q-26.05 -18.0 -25.65 -18.0 -25.25 -18.0 -24.95 -17.65 -24.7 -17.3 -24.7 -16.8 -24.7 -16.3 -24.95 -15.95 -25.25 -15.6 -25.65 -15.6 -26.05 -15.6 -26.3 -15.95 L-26.6 -16.8 M-23.25 -13.1 L-22.95 -13.8 -22.25 -14.1 Q-21.85 -14.1 -21.55 -13.8 -21.25 -13.5 -21.25 -13.1 -21.25 -12.7 -21.55 -12.4 -21.85 -12.1 -22.25 -12.1 L-22.95 -12.4 -23.25 -13.1 M-23.1 -8.35 Q-23.1 -7.7 -23.4 -7.25 -23.75 -6.8 -24.25 -6.8 -24.75 -6.8 -25.05 -7.25 -25.4 -7.7 -25.4 -8.35 -25.4 -9.0 -25.05 -9.45 -24.75 -9.9 -24.25 -9.9 -23.75 -9.9 -23.4 -9.45 -23.1 -9.0 -23.1 -8.35 M-1.2 -24.45 L-1.15 -24.5 -1.0 -24.5 Q-0.45 -24.05 -1.0 -23.0 L-1.6 -23.9 -1.5 -24.15 -1.45 -24.2 -1.2 -24.45 M-4.35 -24.05 L-4.25 -24.15 -3.2 -24.25 -3.0 -22.85 Q-3.65 -22.2 -4.05 -23.0 L-4.35 -24.05 M-4.55 -20.6 L-4.1 -20.6 Q-4.05 -19.85 -4.45 -19.55 L-5.0 -19.25 Q-4.1 -20.6 -4.85 -20.5 L-4.55 -20.6 M-8.05 -22.45 L-7.45 -22.45 -7.4 -22.3 Q-7.3 -21.6 -7.55 -20.95 L-8.25 -21.9 -8.05 -22.45 M-8.9 -23.6 L-8.6 -23.35 Q-9.35 -22.2 -10.15 -21.85 L-10.2 -22.0 -10.45 -23.25 -10.2 -23.45 -9.35 -23.65 -8.9 -23.6" fill="#f9ee71" fill-rule="evenodd" stroke="none"/>
    <path d="M-21.1 -3.8 L-22.3 -2.1 Q-23.1 -1.3 -25.75 -1.3 L-28.45 -2.3 Q-30.9 -3.3 -31.55 -3.7 -31.15 -5.65 -28.5 -25.15 L-28.5 -21.25 -28.35 -17.2 -27.75 -17.0 -28.35 -10.1 Q-28.35 -6.35 -27.2 -5.1 -26.35 -4.15 -24.1 -4.15 -22.15 -4.15 -19.9 -7.2 L-20.55 -5.3 -21.1 -3.8 M-23.75 -43.9 L-23.15 -41.25 Q-23.85 -40.95 -24.6 -40.7 L-24.65 -40.85 -25.1 -43.45 -23.75 -43.9 M-21.25 -40.6 L-21.6 -41.35 -21.4 -41.4 -20.65 -41.35 -20.65 -40.8 -20.9 -40.75 -21.25 -40.6 M-22.0 -42.5 L-22.3 -42.8 -22.2 -43.1 -22.05 -42.8 -22.05 -42.9 -22.0 -42.75 -21.95 -42.8 -21.85 -43.05 -21.75 -42.75 -21.8 -42.55 -22.0 -42.75 -22.0 -42.5 M-11.0 -44.35 Q-11.15 -42.3 -12.5 -40.85 L-11.0 -44.35 M-1.5 -28.6 L-1.6 -29.1 -1.45 -29.35 -1.4 -29.2 -1.45 -28.7 -1.5 -28.6 M-1.55 -26.8 L-1.25 -27.2 -0.25 -26.4 -0.35 -26.25 -1.55 -26.8 M-6.4 -32.7 L-6.5 -32.4 -7.0 -32.2 -6.95 -32.35 -6.6 -32.6 -6.4 -32.7 M-8.55 -31.3 L-9.7 -32.15 -9.55 -32.45 Q-8.55 -31.75 -8.55 -31.3 M-1.45 -49.95 L-3.25 -50.85 -4.4 -51.35 Q-5.6 -51.35 -6.45 -50.05 -7.15 -48.95 -7.15 -47.9 -7.15 -46.65 -6.15 -45.8 -5.3 -45.1 -4.6 -45.1 -2.9 -45.1 -2.05 -46.0 -1.55 -46.5 -0.95 -47.6 -1.3 -43.55 -1.1 -43.4 -2.9 -43.4 -6.45 -44.45 L-7.15 -46.3 -7.85 -48.05 Q-6.5 -51.15 -4.1 -52.25 L-3.1 -51.75 Q-2.1 -51.05 -1.45 -49.95 M-3.6 -43.6 L-3.4 -43.5 -3.3 -43.25 -3.4 -43.0 -3.6 -42.9 -3.8 -43.0 -3.9 -43.25 -3.8 -43.5 -3.6 -43.6 M-3.35 -44.75 L-3.2 -44.35 Q-3.05 -44.2 -2.85 -44.2 -2.65 -44.2 -2.5 -44.35 -2.35 -44.5 -2.35 -44.75 L-2.5 -45.15 -2.85 -45.3 -3.2 -45.15 -3.35 -44.75 M-0.65 -44.35 Q-0.75 -44.25 -0.85 -44.25 -0.95 -44.25 -1.05 -44.35 L-1.15 -44.55 -1.05 -44.75 -0.85 -44.85 -0.65 -44.75 -0.55 -44.55 -0.65 -44.35 M-9.55 -47.1 L-9.9 -46.9 -10.1 -46.1 -10.0 -45.35 -9.85 -45.25 -10.0 -45.2 -9.4 -45.2 Q-8.75 -45.2 -8.55 -45.55 L-8.15 -46.4 -7.55 -45.25 Q-7.85 -45.0 -8.65 -44.8 L-9.9 -44.7 -11.15 -47.05 -9.55 -47.1 M-9.05 -44.5 L-8.75 -44.4 -8.65 -44.15 -8.75 -43.9 -9.05 -43.8 Q-9.2 -43.8 -9.3 -43.9 L-9.45 -44.15 -9.3 -44.4 -9.05 -44.5 M-17.1 -39.6 Q-16.9 -39.6 -16.75 -39.45 L-16.6 -39.15 -16.6 -39.0 -16.75 -38.8 -17.1 -38.7 -17.45 -38.8 -17.6 -39.05 -17.6 -39.15 -17.45 -39.45 -17.1 -39.6 M-10.2 -31.4 L-9.6 -31.05 -9.55 -30.9 Q-10.15 -30.9 -10.55 -30.6 L-11.0 -30.0 -11.0 -30.1 -10.9 -30.6 -10.2 -31.4 M-1.85 -30.3 L-2.1 -29.6 -2.2 -29.55 -2.4 -30.5 -2.8 -30.85 -2.5 -30.8 -1.85 -30.3 M-1.9 -26.1 L-0.8 -25.9 -0.8 -25.4 -1.15 -24.5 -1.2 -24.45 Q-1.1 -25.6 -1.9 -26.1 M-7.35 -20.1 L-7.8 -19.45 Q-8.6 -19.25 -8.85 -19.6 L-9.1 -20.3 -8.35 -20.2 -7.4 -20.4 -7.35 -20.1 M-13.5 -28.1 L-12.3 -28.3 -11.65 -28.1 -12.45 -27.45 -13.5 -28.1 M-13.05 -25.95 L-12.75 -25.75 -12.6 -25.2 -12.65 -25.3 -13.0 -25.75 -13.05 -25.95 M-11.7 -23.55 L-12.6 -22.1 -12.95 -22.3 Q-12.95 -22.8 -12.55 -23.15 -12.2 -23.55 -11.7 -23.55 M-4.55 -32.95 L-4.45 -31.95 Q-4.3 -31.6 -4.6 -31.3 -4.95 -32.15 -5.15 -32.2 L-4.55 -32.95 M-7.2 -32.25 Q-7.45 -32.25 -7.6 -32.5 L-7.8 -33.2 -7.2 -32.25 M-31.45 -18.4 L-30.95 -18.6 -30.45 -18.4 -30.25 -17.9 -30.45 -17.4 Q-30.65 -17.2 -30.95 -17.2 L-31.45 -17.4 -31.65 -17.9 -31.45 -18.4 M-31.35 -10.65 Q-31.6 -10.35 -31.95 -10.35 -32.3 -10.35 -32.55 -10.65 L-32.8 -11.45 -32.55 -12.2 -31.95 -12.55 Q-31.6 -12.55 -31.35 -12.2 -31.1 -11.9 -31.1 -11.45 -31.1 -11.0 -31.35 -10.65 M-1.45 -24.2 L-1.5 -24.15 -1.6 -24.15 -1.45 -24.2 M-2.95 -21.8 Q-2.95 -22.4 -2.35 -22.75 L-2.1 -22.2 -2.1 -21.85 -2.0 -21.75 -2.6 -21.6 -2.95 -21.8 M-3.85 -20.6 L-4.1 -20.6 -4.55 -20.6 -4.65 -20.65 -4.15 -20.75 -3.85 -20.6 M-7.0 -19.0 L-6.3 -20.55 Q-6.1 -19.85 -6.75 -18.9 L-7.0 -19.0 M-11.75 -20.6 L-11.25 -21.65 -10.3 -21.55 Q-10.35 -20.9 -11.75 -20.6" fill="#d5981a" fill-rule="evenodd" stroke="none"/>
    <path d="M-27.6 -43.75 L-26.85 -44.7 -23.8 -44.85 -23.75 -43.9 -25.1 -43.45 -24.65 -40.85 -25.55 -40.9 Q-25.55 -42.1 -26.15 -42.9 -26.75 -43.75 -27.6 -43.75 M-8.35 -50.2 L-9.3 -48.9 -10.15 -48.65 -13.25 -48.5 -8.35 -50.2" fill="#fdfad5" fill-rule="evenodd" stroke="none"/>
    <path d="M-18.85 -36.2 Q-17.95 -36.25 -15.6 -37.6 -14.95 -37.85 -14.35 -38.35 L-12.25 -39.7 Q-7.6 -42.8 -5.35 -42.15 L-5.6 -34.95 -7.8 -36.25 -9.2 -34.7 -9.7 -34.3 -9.85 -34.05 Q-11.2 -32.8 -12.3 -32.8 -15.75 -32.8 -15.75 -30.05 L-15.5 -28.9 -14.6 -27.15 -16.55 -25.7 Q-17.15 -25.05 -17.15 -23.2 -17.15 -22.65 -15.25 -21.45 -13.3 -20.25 -13.2 -19.3 L-12.8 -17.0 Q-12.3 -15.85 -11.1 -15.85 -9.7 -15.85 -8.8 -16.75 L-7.9 -17.85 Q-6.45 -16.65 -5.65 -16.3 L-4.0 -16.05 Q-5.15 -13.85 -11.95 -11.25 -16.75 -9.45 -19.15 -8.95 L-19.7 -12.4 Q-19.25 -13.55 -19.55 -17.5 L-20.0 -27.6 -18.85 -36.2 M-6.3 -28.75 Q-7.3 -26.5 -7.3 -25.5 L-7.1 -24.5 -6.5 -23.6 Q-7.9 -23.65 -8.85 -24.4 -9.8 -25.2 -9.75 -26.25 -9.7 -27.35 -8.65 -28.1 -7.65 -28.85 -6.3 -28.75" fill="#481c33" fill-rule="evenodd" stroke="none"/>
    <path d="M-22.75 -40.4 Q-21.3 -37.3 -18.85 -36.2 L-20.0 -27.6 -19.55 -17.5 Q-19.25 -13.55 -19.7 -12.4 L-20.4 -16.5 -20.8 -18.85 -24.45 -39.75 -22.75 -40.4 M-3.55 -26.85 L-3.5 -26.4 Q-3.5 -25.7 -3.75 -25.1 L-3.8 -24.9 -4.1 -24.35 -4.55 -24.05 Q-5.35 -23.6 -6.5 -23.6 L-7.1 -24.5 -7.3 -25.5 Q-7.3 -26.5 -6.3 -28.75 -5.15 -28.75 -4.3 -28.05 -3.7 -27.55 -3.55 -26.85" fill="#6c2b4e" fill-rule="evenodd" stroke="none"/>
  </g>
</svg>
