<?xml version="1.0" encoding="UTF-8" standalone="no"?>
<svg xmlns:ffdec="https://www.free-decompiler.com/flash" xmlns:xlink="http://www.w3.org/1999/xlink" ffdec:objectType="shape" height="61.3px" width="84.8px" xmlns="http://www.w3.org/2000/svg">
  <g transform="matrix(1.0, 0.0, 0.0, 1.0, 32.25, 32.9)">
    <path d="M17.9 -32.9 Q20.5 -30.65 23.2 -26.7 L23.15 -26.35 22.7 -25.85 22.25 -25.65 8.2 -29.65 Q6.85 -30.15 6.55 -30.65 6.35 -31.0 6.35 -32.15 L6.4 -32.55 6.45 -32.9 17.9 -32.9 M5.45 -32.9 L4.75 -31.8 4.0 -31.45 3.95 -31.45 Q2.3 -31.45 1.25 -32.75 L1.15 -32.9 5.45 -32.9 M-0.85 -32.9 Q-0.35 -31.85 -0.35 -31.2 -0.35 -30.55 -0.6 -30.55 L-0.8 -30.7 -8.7 -30.45 -9.25 -30.45 Q-10.9 -30.6 -11.4 -31.55 L-10.25 -32.75 -10.05 -32.9 -0.85 -32.9 M31.8 3.5 Q27.15 3.45 24.5 4.4 21.8 5.3 20.55 7.5 L17.0 13.1 Q15.9 15.15 15.9 19.4 15.9 21.7 14.75 22.75 12.7 24.65 6.4 24.65 L3.15 24.2 1.25 23.2 Q0.3 22.65 -0.25 22.65 L-4.65 23.2 Q-7.1 23.45 -8.5 22.35 L-3.4 20.5 Q-8.45 19.05 -10.4 17.1 -11.4 16.15 -11.4 15.3 L-13.3 10.8 Q-14.7 7.55 -14.7 6.85 L-14.7 1.8 Q-14.7 0.95 -15.45 -2.35 -16.2 -5.5 -16.2 -8.3 -16.2 -9.95 -14.45 -12.6 -12.8 -15.15 -10.7 -16.95 L-6.7 -19.4 Q-8.05 -18.5 -9.5 -14.3 L-10.65 -10.15 -10.7 -8.8 Q-10.65 -8.25 -10.0 -8.25 -9.5 -8.25 -9.1 -7.8 L-8.55 -7.4 Q-6.3 -7.4 -4.65 -12.45 -3.8 -15.1 -2.9 -18.9 L0.3 -16.25 4.5 -9.25 5.75 -9.95 6.0 -13.05 5.9 -13.85 9.55 -11.9 15.55 -11.7 15.95 -10.75 Q16.5 -10.25 18.35 -10.25 18.8 -10.25 19.4 -11.0 20.0 -11.8 20.55 -11.8 L24.7 -10.75 Q25.35 -10.75 26.45 -11.35 28.25 -12.3 30.45 -14.5 29.65 -11.95 29.65 -10.5 32.0 0.7 31.8 3.5 M25.75 -32.35 L25.9 -32.4 28.35 -32.85 Q29.8 -32.85 32.05 -30.85 34.15 -29.0 34.7 -27.4 L33.1 -27.25 Q31.35 -27.3 28.95 -27.95 25.25 -29.0 23.35 -30.8 24.1 -31.75 25.75 -32.35 M1.25 -29.85 Q2.0 -29.65 2.45 -29.3 3.35 -28.6 3.35 -27.25 3.35 -26.6 2.45 -25.85 1.25 -24.8 -0.95 -24.8 -2.05 -24.8 -3.55 -25.9 L-3.65 -25.95 -6.25 -27.95 Q-2.6 -30.1 -1.1 -30.1 L1.25 -29.85 M0.7 -11.7 L-0.55 -11.7 -0.55 -9.35 0.7 -9.35 0.7 -11.7 M11.9 -6.1 Q11.25 -5.55 10.0 -5.5 L10.85 -2.5 Q11.45 -0.2 12.0 0.4 12.55 -0.1 13.35 -2.55 14.1 -5.1 13.9 -6.2 L13.9 -6.4 13.2 -6.6 Q12.5 -6.6 11.9 -6.1 M23.15 -5.7 Q23.15 -6.7 23.05 -6.1 L22.75 -6.4 21.1 -5.1 Q19.95 -4.0 19.75 -3.4 L20.75 -2.5 22.4 -4.5 23.15 -5.7 M23.55 -1.45 L23.15 -0.85 Q23.15 -0.5 23.55 -0.25 L24.45 0.0 25.4 -0.25 Q25.75 -0.5 25.75 -0.85 L25.4 -1.45 24.45 -1.7 23.55 -1.45 M12.8 9.35 L11.75 14.95 11.75 15.1 12.35 15.25 Q13.6 15.25 14.1 13.45 15.15 9.95 17.0 6.9 14.15 5.3 12.8 9.35 M6.15 2.15 Q5.75 1.5 5.25 1.5 4.75 1.5 4.4 2.15 4.0 2.8 4.0 3.7 4.0 4.6 4.4 5.25 4.75 5.9 5.25 5.9 5.75 5.9 6.15 5.25 L6.5 3.7 Q6.5 2.8 6.15 2.15 M7.0 9.5 L7.3 10.15 7.95 10.4 8.65 10.15 8.9 9.5 8.65 8.9 Q8.35 8.6 7.95 8.6 7.55 8.6 7.3 8.9 7.0 9.15 7.0 9.5 M0.55 13.05 L-0.25 13.1 -0.3 12.95 -0.4 13.5 0.05 15.35 Q0.95 16.9 3.0 16.2 L3.2 16.1 3.35 15.4 Q3.35 14.55 2.2 13.75 1.15 13.05 0.55 13.05 M-17.6 -26.45 Q-17.7 -27.85 -16.85 -28.75 -16.25 -29.45 -15.85 -29.45 -14.1 -29.45 -11.8 -28.5 L-11.7 -28.45 Q-9.9 -27.7 -8.65 -26.8 L-9.3 -25.85 -13.2 -25.4 -14.9 -25.4 Q-16.6 -25.55 -17.6 -26.45 M-17.9 -4.4 Q-18.9 -2.45 -19.8 -1.95 -20.15 -2.0 -20.25 -2.2 L-18.9 -4.75 -17.9 -4.4 M-17.05 -14.3 L-16.25 -14.1 -16.05 -13.7 Q-16.95 -11.3 -19.6 -8.65 L-20.0 -9.35 Q-19.55 -10.8 -19.35 -12.9 -18.95 -14.3 -17.05 -14.3 M-14.15 -22.75 Q-13.45 -22.75 -12.4 -21.05 -14.6 -19.15 -19.75 -18.0 L-20.15 -17.95 -21.15 -18.15 Q-20.4 -19.75 -18.1 -21.05 -17.65 -21.35 -17.15 -21.6 -15.55 -22.35 -14.15 -22.75 M-9.4 -1.15 Q-9.9 -1.15 -10.2 -0.25 -10.55 0.6 -10.55 1.85 -10.55 3.1 -10.2 4.0 -9.9 4.85 -9.4 4.85 -8.9 4.85 -8.55 4.0 -8.25 3.1 -8.25 1.85 -8.25 0.6 -8.55 -0.25 -8.9 -1.15 -9.4 -1.15 M-3.2 -4.9 Q-4.35 -6.3 -5.75 -6.9 -6.3 -6.5 -6.3 -5.65 -4.95 -2.35 -3.25 -1.0 L-2.6 -1.7 Q-2.15 -2.25 -2.15 -2.9 -2.15 -3.6 -3.2 -4.9 M-5.9 7.7 L-6.5 7.9 -6.8 8.4 -6.5 8.9 -5.9 9.1 -5.25 8.9 -5.0 8.4 -5.25 7.9 -5.9 7.7 M-17.1 0.35 Q-17.55 1.55 -17.9 1.95 L-20.3 1.85 -17.95 0.65 -17.1 0.35 M-16.75 8.75 L-16.65 9.3 -16.75 9.9 -18.0 10.1 -18.5 10.0 -18.75 9.75 -18.8 9.4 Q-18.8 8.85 -18.1 8.8 L-16.75 8.75 M-13.55 16.2 L-13.5 16.75 -13.9 17.5 -14.6 17.75 -15.05 17.65 -15.2 17.6 -15.25 17.15 -15.1 16.2 Q-14.8 15.75 -13.65 16.0 L-13.55 16.2 M-4.25 16.55 Q-4.25 15.2 -4.9 13.9 -5.55 12.6 -6.6 11.85 L-7.0 12.4 -7.25 13.7 Q-7.25 15.6 -6.65 16.1 -6.25 16.5 -4.65 17.25 L-4.35 17.2 -4.25 16.55" fill="#ffffff" fill-rule="evenodd" stroke="none"/>
    <path d="M6.45 -32.9 L6.4 -32.55 6.35 -32.15 Q6.35 -31.0 6.55 -30.65 6.85 -30.15 8.2 -29.65 L22.25 -25.65 22.7 -25.85 23.15 -26.35 23.2 -26.7 Q20.5 -30.65 17.9 -32.9 L34.7 -32.9 34.65 -32.65 34.5 -31.9 Q36.65 -30.3 39.7 -28.55 L40.3 -28.2 40.4 -28.15 Q41.55 -27.5 42.0 -26.9 L42.25 -26.2 Q42.25 -25.55 41.75 -25.15 L41.25 -24.9 45.35 -20.95 Q42.25 -21.45 39.2 -22.65 L38.0 -23.15 36.45 -23.75 Q34.6 -24.5 34.0 -24.5 L33.3 -24.3 33.35 -24.1 33.4 -22.4 Q32.65 -22.45 30.8 -23.2 L28.95 -23.95 Q28.0 -23.95 27.3 -22.95 L26.9 -22.4 26.0 -21.45 18.8 -24.2 14.6 -25.55 Q15.7 -23.8 16.45 -23.1 L18.2 -19.6 17.2 -20.0 16.85 -20.15 15.8 -20.6 15.0 -20.95 Q15.1 -19.5 14.1 -18.7 13.35 -18.1 12.35 -18.1 11.8 -18.1 7.6 -20.05 7.3 -18.35 6.3 -18.35 L5.6 -18.6 4.25 -19.55 Q2.7 -20.8 2.2 -20.8 L0.05 -19.95 -0.1 -19.85 -0.75 -19.55 0.7 -19.15 4.0 -18.0 6.0 -16.8 Q7.7 -15.8 8.0 -15.8 8.25 -15.8 8.5 -16.15 8.8 -16.5 9.15 -16.5 L11.3 -15.45 Q13.3 -14.4 14.75 -14.4 15.4 -14.4 16.15 -15.7 16.9 -17.0 17.15 -17.0 L19.75 -15.65 20.35 -16.25 20.75 -17.15 20.7 -18.5 22.05 -17.9 Q24.7 -16.8 26.75 -16.45 L28.5 -16.3 Q29.1 -16.3 29.5 -17.4 L29.85 -18.35 30.2 -19.55 33.15 -18.6 Q31.65 -17.5 31.15 -16.1 L31.05 -15.9 30.45 -14.5 Q28.25 -12.3 26.45 -11.35 25.35 -10.75 24.7 -10.75 L20.55 -11.8 Q20.0 -11.8 19.4 -11.0 18.8 -10.25 18.35 -10.25 16.5 -10.25 15.95 -10.75 L15.55 -11.7 9.55 -11.9 5.9 -13.85 6.0 -13.05 5.75 -9.95 4.5 -9.25 0.3 -16.25 -2.9 -18.9 Q-3.8 -15.1 -4.65 -12.45 -6.3 -7.4 -8.55 -7.4 L-9.1 -7.8 Q-9.5 -8.25 -10.0 -8.25 -10.65 -8.25 -10.7 -8.8 L-10.65 -10.15 -9.5 -14.3 Q-8.05 -18.5 -6.7 -19.4 L-10.7 -16.95 Q-12.8 -15.15 -14.45 -12.6 -16.2 -9.95 -16.2 -8.3 -16.2 -5.5 -15.45 -2.35 -14.7 0.95 -14.7 1.8 L-14.7 6.85 Q-14.7 7.55 -13.3 10.8 L-11.4 15.3 Q-11.4 16.15 -10.4 17.1 -8.45 19.05 -3.4 20.5 L-8.5 22.35 Q-7.1 23.45 -4.65 23.2 L-0.25 22.65 Q0.3 22.65 1.25 23.2 L3.15 24.2 6.4 24.65 Q12.7 24.65 14.75 22.75 15.9 21.7 15.9 19.4 15.9 15.15 17.0 13.1 L20.55 7.5 Q21.8 5.3 24.5 4.4 27.15 3.45 31.8 3.5 L30.85 4.75 Q26.7 5.0 23.2 7.1 22.15 7.65 21.55 8.7 20.8 9.95 20.3 11.35 19.6 13.35 19.15 15.4 L18.75 18.5 18.75 19.1 18.5 22.35 18.35 24.0 Q16.55 25.65 13.9 26.3 L8.5 27.35 3.75 27.95 -2.0 26.85 -5.95 26.15 -9.65 25.35 Q-12.35 24.3 -14.0 22.8 -15.2 21.7 -16.15 20.0 L-18.6 15.5 -19.35 15.5 Q-21.7 15.5 -23.4 10.55 -23.4 10.1 -22.1 9.25 L-22.15 9.2 -22.5 9.4 -22.15 9.15 Q-22.9 6.5 -23.2 3.25 L-23.7 3.3 -24.9 2.95 -25.35 2.1 Q-25.35 1.6 -24.9 1.25 -24.4 0.9 -23.7 0.9 L-23.3 0.95 -23.35 -0.6 -23.25 -3.5 -23.5 -3.35 Q-25.45 -2.15 -26.15 -1.9 L-26.6 -2.45 -24.75 -6.15 Q-23.8 -8.05 -22.6 -9.15 -22.05 -12.25 -21.0 -15.05 L-23.95 -14.25 -27.35 -14.1 Q-27.0 -15.25 -27.0 -15.95 L-27.0 -16.15 -26.8 -16.45 -25.7 -17.85 -22.45 -21.65 -23.25 -22.25 -23.75 -22.65 -24.75 -23.35 -24.9 -23.5 -25.25 -24.15 -25.3 -24.4 Q-25.3 -25.35 -23.8 -26.3 L-23.45 -26.55 -22.05 -27.3 -20.7 -28.05 -21.35 -29.35 -21.4 -29.4 -22.05 -31.5 Q-22.05 -32.2 -21.25 -32.55 L-19.8 -32.9 -10.05 -32.9 -10.25 -32.75 -11.4 -31.55 Q-10.9 -30.6 -9.25 -30.45 L-8.7 -30.45 -0.8 -30.7 -0.6 -30.55 Q-0.35 -30.55 -0.35 -31.2 -0.35 -31.85 -0.85 -32.9 L1.15 -32.9 1.25 -32.75 Q2.3 -31.45 3.95 -31.45 L4.0 -31.45 4.75 -31.8 5.45 -32.9 6.45 -32.9 M25.75 -32.35 Q24.1 -31.75 23.35 -30.8 25.25 -29.0 28.95 -27.95 31.35 -27.3 33.1 -27.25 L34.7 -27.4 Q34.15 -29.0 32.05 -30.85 29.8 -32.85 28.35 -32.85 L25.9 -32.4 25.75 -32.35 M39.25 -32.15 Q39.3 -32.6 39.75 -32.5 L42.15 -31.5 Q43.95 -30.7 45.4 -28.4 44.3 -28.45 41.75 -30.1 L40.2 -31.2 Q39.3 -31.9 39.25 -32.15 M1.25 -29.85 L-1.1 -30.1 Q-2.6 -30.1 -6.25 -27.95 L-3.65 -25.95 -3.55 -25.9 Q-2.05 -24.8 -0.95 -24.8 1.25 -24.8 2.45 -25.85 3.35 -26.6 3.35 -27.25 3.35 -28.6 2.45 -29.3 2.0 -29.65 1.25 -29.85 M11.9 -6.1 Q12.5 -6.6 13.2 -6.6 L13.9 -6.4 13.9 -6.2 Q14.1 -5.1 13.35 -2.55 12.55 -0.1 12.0 0.4 11.45 -0.2 10.85 -2.5 L10.0 -5.5 Q11.25 -5.55 11.9 -6.1 M0.7 -11.7 L0.7 -9.35 -0.55 -9.35 -0.55 -11.7 0.7 -11.7 M23.55 -1.45 L24.45 -1.7 25.4 -1.45 25.75 -0.85 Q25.75 -0.5 25.4 -0.25 L24.45 0.0 23.55 -0.25 Q23.15 -0.5 23.15 -0.85 L23.55 -1.45 M23.15 -5.7 L22.4 -4.5 20.75 -2.5 19.75 -3.4 Q19.95 -4.0 21.1 -5.1 L22.75 -6.4 23.05 -6.1 Q23.15 -6.7 23.15 -5.7 M0.55 13.05 Q1.15 13.05 2.2 13.75 3.35 14.55 3.35 15.4 L3.2 16.1 3.0 16.2 Q0.95 16.9 0.05 15.35 L-0.4 13.5 -0.3 12.95 -0.25 13.1 0.55 13.05 M7.0 9.5 Q7.0 9.15 7.3 8.9 7.55 8.6 7.95 8.6 8.35 8.6 8.65 8.9 L8.9 9.5 8.65 10.15 7.95 10.4 7.3 10.15 7.0 9.5 M6.15 2.15 Q6.5 2.8 6.5 3.7 L6.15 5.25 Q5.75 5.9 5.25 5.9 4.75 5.9 4.4 5.25 4.0 4.6 4.0 3.7 4.0 2.8 4.4 2.15 4.75 1.5 5.25 1.5 5.75 1.5 6.15 2.15 M12.8 9.35 Q14.15 5.3 17.0 6.9 15.15 9.95 14.1 13.45 13.6 15.25 12.35 15.25 L11.75 15.1 11.75 14.95 12.8 9.35 M-17.6 -26.45 Q-16.6 -25.55 -14.9 -25.4 L-13.2 -25.4 -9.3 -25.85 -8.65 -26.8 Q-9.9 -27.7 -11.7 -28.45 L-11.8 -28.5 Q-14.1 -29.45 -15.85 -29.45 -16.25 -29.45 -16.85 -28.75 -17.7 -27.85 -17.6 -26.45 M-14.15 -22.75 Q-15.55 -22.35 -17.15 -21.6 -17.65 -21.35 -18.1 -21.05 -20.4 -19.75 -21.15 -18.15 L-20.15 -17.95 -19.75 -18.0 Q-14.6 -19.15 -12.4 -21.05 -13.45 -22.75 -14.15 -22.75 M-17.05 -14.3 Q-18.95 -14.3 -19.35 -12.9 -19.55 -10.8 -20.0 -9.35 L-19.6 -8.65 Q-16.95 -11.3 -16.05 -13.7 L-16.25 -14.1 -17.05 -14.3 M-17.9 -4.4 L-18.9 -4.75 -20.25 -2.2 Q-20.15 -2.0 -19.8 -1.95 -18.9 -2.45 -17.9 -4.4 M-3.2 -4.9 Q-2.15 -3.6 -2.15 -2.9 -2.15 -2.25 -2.6 -1.7 L-3.25 -1.0 Q-4.95 -2.35 -6.3 -5.65 -6.3 -6.5 -5.75 -6.9 -4.35 -6.3 -3.2 -4.9 M-9.4 -1.15 Q-8.9 -1.15 -8.55 -0.25 -8.25 0.6 -8.25 1.85 -8.25 3.1 -8.55 4.0 -8.9 4.85 -9.4 4.85 -9.9 4.85 -10.2 4.0 -10.55 3.1 -10.55 1.85 -10.55 0.6 -10.2 -0.25 -9.9 -1.15 -9.4 -1.15 M-5.9 7.7 L-5.25 7.9 -5.0 8.4 -5.25 8.9 -5.9 9.1 -6.5 8.9 -6.8 8.4 -6.5 7.9 -5.9 7.7 M-17.1 0.35 L-17.95 0.65 -20.3 1.85 -17.9 1.95 Q-17.55 1.55 -17.1 0.35 M-13.55 16.2 L-13.65 16.0 Q-14.8 15.75 -15.1 16.2 L-15.25 17.15 -15.2 17.6 -15.05 17.65 -14.6 17.75 -13.9 17.5 -13.5 16.75 -13.55 16.2 M-16.75 8.75 L-18.1 8.8 Q-18.8 8.85 -18.8 9.4 L-18.75 9.75 -18.5 10.0 -18.0 10.1 -16.75 9.9 -16.65 9.3 -16.75 8.75 M-17.6 22.25 Q-19.15 22.25 -19.75 20.95 L-20.0 19.5 Q-20.0 15.8 -16.25 21.4 -16.25 21.95 -16.6 22.15 L-17.6 22.25 M-4.25 16.55 L-4.35 17.2 -4.65 17.25 Q-6.25 16.5 -6.65 16.1 -7.25 15.6 -7.25 13.7 L-7.0 12.4 -6.6 11.85 Q-5.55 12.6 -4.9 13.9 -4.25 15.2 -4.25 16.55" fill="#ebe8e0" fill-rule="evenodd" stroke="none"/>
    <path d="M-19.8 -32.9 L-21.25 -32.55 Q-22.05 -32.2 -22.05 -31.5 L-21.4 -29.4 -21.35 -29.35 -20.7 -28.05 -22.05 -27.3 -23.45 -26.55 -23.8 -26.3 Q-25.3 -25.35 -25.3 -24.4 L-25.25 -24.15 -24.9 -23.5 -24.75 -23.35 -23.75 -22.65 -23.25 -22.25 -22.45 -21.65 -25.7 -17.85 -26.8 -16.45 -27.0 -16.15 -27.0 -15.95 Q-27.0 -15.25 -27.35 -14.1 L-23.95 -14.25 -21.0 -15.05 Q-22.05 -12.25 -22.6 -9.15 -23.8 -8.05 -24.75 -6.15 L-26.6 -2.45 -26.15 -1.9 Q-25.45 -2.15 -23.5 -3.35 L-23.25 -3.5 -23.35 -0.6 -23.3 0.95 -23.7 0.9 Q-24.4 0.9 -24.9 1.25 -25.35 1.6 -25.35 2.1 L-24.9 2.95 -23.7 3.3 -23.2 3.25 Q-22.9 6.5 -22.15 9.15 L-22.5 9.4 -22.15 9.2 -22.1 9.25 Q-23.4 10.1 -23.4 10.55 -21.7 15.5 -19.35 15.5 L-18.6 15.5 -16.15 20.0 Q-15.2 21.7 -14.0 22.8 -12.35 24.3 -9.65 25.35 L-5.95 26.15 -2.0 26.85 3.75 27.95 0.25 28.35 -4.1 28.4 -7.15 28.4 -13.5 28.0 -16.75 27.25 -17.5 26.55 Q-22.65 21.4 -25.5 15.35 L-25.55 15.45 Q-29.5 7.3 -29.5 -2.05 -29.5 -6.3 -28.6 -10.35 L-30.45 -8.0 -30.35 -10.0 -30.15 -12.95 -29.9 -17.05 Q-29.9 -18.2 -28.5 -20.45 -27.05 -22.75 -27.05 -24.35 L-27.45 -25.35 Q-27.85 -25.85 -27.85 -26.35 -27.85 -28.2 -25.95 -29.05 L-23.6 -30.35 -24.0 -31.25 Q-24.0 -31.85 -24.9 -32.9 L-19.8 -32.9 M26.75 -16.45 Q24.7 -16.8 22.05 -17.9 L20.7 -18.5 20.75 -17.15 20.35 -16.25 19.75 -15.65 17.15 -17.0 Q16.9 -17.0 16.15 -15.7 15.4 -14.4 14.75 -14.4 13.3 -14.4 11.3 -15.45 L9.15 -16.5 Q8.8 -16.5 8.5 -16.15 8.25 -15.8 8.0 -15.8 7.7 -15.8 6.0 -16.8 L4.0 -18.0 0.7 -19.15 -0.75 -19.55 -0.1 -19.85 0.05 -19.95 2.2 -20.8 Q2.7 -20.8 4.25 -19.55 L5.6 -18.6 6.3 -18.35 Q7.3 -18.35 7.6 -20.05 11.8 -18.1 12.35 -18.1 13.35 -18.1 14.1 -18.7 15.1 -19.5 15.0 -20.95 L15.8 -20.6 16.85 -20.15 17.2 -20.0 18.2 -19.6 16.45 -23.1 Q15.7 -23.8 14.6 -25.55 L18.8 -24.2 26.0 -21.45 26.9 -22.4 27.3 -22.95 Q28.0 -23.95 28.95 -23.95 L30.8 -23.2 Q32.65 -22.45 33.4 -22.4 L33.35 -24.1 33.3 -24.3 34.0 -24.5 Q34.6 -24.5 36.45 -23.75 L38.0 -23.15 39.2 -22.65 Q42.25 -21.45 45.35 -20.95 L41.25 -24.9 41.75 -25.15 Q42.25 -25.55 42.25 -26.2 L42.0 -26.9 Q41.55 -27.5 40.4 -28.15 L40.3 -28.2 39.7 -28.55 Q36.65 -30.3 34.5 -31.9 L34.65 -32.65 34.7 -32.9 44.3 -32.9 46.55 -30.25 50.5 -25.15 46.65 -24.1 48.95 -19.2 45.85 -19.3 Q39.9 -20.55 37.9 -21.5 L37.85 -21.55 37.6 -21.3 Q36.8 -20.6 36.95 -18.95 L34.6 -19.5 33.05 -19.95 29.8 -20.8 Q29.2 -20.8 28.7 -20.0 28.2 -19.25 27.75 -17.65 27.45 -16.8 26.75 -16.45 M39.25 -32.15 Q39.3 -31.9 40.2 -31.2 L41.75 -30.1 Q44.3 -28.45 45.4 -28.4 43.95 -30.7 42.15 -31.5 L39.75 -32.5 Q39.3 -32.6 39.25 -32.15 M-32.15 -7.75 L-31.75 -6.65 -32.25 -6.7 -32.15 -7.75 M-17.6 22.25 L-16.6 22.15 Q-16.25 21.95 -16.25 21.4 -20.0 15.8 -20.0 19.5 L-19.75 20.95 Q-19.15 22.25 -17.6 22.25" fill="#cbc8c0" fill-rule="evenodd" stroke="none"/>
    <path d="M33.15 -18.6 L30.2 -19.55 29.85 -18.35 29.5 -17.4 Q29.1 -16.3 28.5 -16.3 L26.75 -16.45 Q27.45 -16.8 27.75 -17.65 28.2 -19.25 28.7 -20.0 29.2 -20.8 29.8 -20.8 L33.05 -19.95 34.6 -19.5 36.95 -18.95 Q36.8 -20.6 37.6 -21.3 L37.85 -21.55 37.9 -21.5 Q39.9 -20.55 45.85 -19.3 L48.95 -19.2 46.65 -24.1 50.5 -25.15 46.55 -30.25 44.3 -32.9 46.4 -32.9 47.55 -31.65 Q49.25 -29.85 52.55 -24.3 52.55 -23.3 48.0 -23.2 L50.85 -18.8 Q48.3 -17.65 46.25 -17.65 43.0 -17.65 38.7 -19.65 38.6 -18.5 37.85 -17.8 L37.1 -17.35 33.15 -18.6 M-24.9 -32.9 Q-24.0 -31.85 -24.0 -31.25 L-23.6 -30.35 -25.95 -29.05 Q-27.85 -28.2 -27.85 -26.35 -27.85 -25.85 -27.45 -25.35 L-27.05 -24.35 Q-27.05 -22.75 -28.5 -20.45 -29.9 -18.2 -29.9 -17.05 L-30.15 -12.95 -30.35 -10.0 -30.45 -8.0 -28.6 -10.35 Q-29.5 -6.3 -29.5 -2.05 -29.5 7.3 -25.55 15.45 L-25.5 15.35 Q-22.65 21.4 -17.5 26.55 L-16.75 27.25 -17.95 26.95 -20.9 25.85 Q-24.7 21.5 -27.1 16.65 L-27.2 16.7 Q-31.5 8.2 -31.5 -2.05 L-31.35 -5.8 -31.75 -6.65 -32.15 -7.75 Q-32.3 -9.45 -31.5 -11.7 -30.65 -14.1 -30.65 -14.75 -30.65 -15.25 -31.25 -16.2 -31.85 -17.2 -31.85 -17.7 -31.85 -18.35 -30.05 -21.0 -28.2 -23.65 -28.2 -24.2 -28.2 -24.7 -28.95 -25.0 -29.65 -25.35 -29.65 -25.85 -29.65 -26.75 -25.2 -31.05 L-26.75 -32.9 -24.9 -32.9" fill="#97877d" fill-rule="evenodd" stroke="none"/>
  </g>
</svg>
