<?xml version="1.0" encoding="UTF-8" standalone="no"?>
<svg xmlns:ffdec="https://www.free-decompiler.com/flash" xmlns:xlink="http://www.w3.org/1999/xlink" ffdec:objectType="shape" height="190.1px" width="64.1px" xmlns="http://www.w3.org/2000/svg">
  <g transform="matrix(1.0, 0.0, 0.0, 1.0, 30.0, 90.0)">
    <path d="M23.95 -76.85 Q25.35 -73.75 28.05 -69.35 29.85 -66.45 29.85 -65.2 L29.85 -63.95 Q29.75 -63.1 29.5 -63.1 29.25 -63.1 29.25 -62.15 L29.25 -61.0 29.15 -61.05 Q29.0 -60.9 29.25 -60.9 30.5 -60.9 31.85 -59.0 33.35 -57.0 33.35 -54.7 32.6 -51.5 32.15 -51.5 31.9 -51.5 31.6 -50.5 L31.4 -49.45 32.75 -46.9 Q34.1 -44.05 34.1 -41.95 L32.9 -37.8 33.35 -34.15 Q33.35 -31.9 32.6 -29.7 31.8 -27.15 29.45 -23.1 L29.9 -19.5 Q29.55 -17.8 28.8 -17.05 L28.05 -15.6 29.0 -13.25 Q29.85 -11.1 29.85 -9.25 29.85 -8.55 29.05 -5.95 28.3 -3.35 28.3 -2.15 L29.45 4.15 Q29.45 5.05 28.65 6.95 27.9 8.8 27.9 9.5 L29.05 13.8 28.85 15.65 Q28.55 16.8 27.65 18.05 L26.7 19.8 27.1 23.45 26.9 24.55 26.25 25.45 Q25.15 27.2 24.45 31.6 23.8 35.6 23.1 37.25 L22.35 38.55 Q22.75 38.55 23.3 39.8 24.0 41.3 24.0 42.9 24.0 44.5 22.5 46.25 L21.0 47.85 21.25 49.1 21.6 50.15 Q21.6 52.15 20.25 55.0 L18.9 58.0 19.25 59.75 19.5 61.95 19.4 62.85 19.1 64.7 18.15 68.9 19.0 71.9 19.9 75.3 19.7 77.3 19.45 80.0 19.85 81.55 20.2 83.8 Q20.2 87.9 18.2 91.15 L16.75 93.25 Q16.1 94.15 16.1 94.6 16.1 95.35 12.1 98.4 11.0 99.15 9.25 99.7 L6.95 100.1 1.65 99.55 Q0.0 99.05 -1.15 97.7 L-3.45 94.2 Q-5.35 91.2 -7.4 88.7 -7.75 88.3 -8.2 84.85 -8.6 81.55 -9.5 80.75 -11.65 78.85 -11.75 77.3 -11.45 75.25 -11.45 73.6 L-12.55 70.05 -13.85 66.15 -14.2 64.3 -14.5 61.95 Q-14.5 59.1 -13.75 56.4 L-13.0 53.85 Q-13.0 53.25 -13.75 50.55 L-14.5 47.35 Q-14.5 45.8 -13.65 43.35 L-12.8 41.15 Q-12.8 39.95 -13.55 38.0 L-14.3 36.0 Q-14.3 34.4 -13.4 31.05 -12.55 27.7 -12.55 26.5 -12.55 25.3 -13.35 22.5 L-14.15 19.2 -13.65 14.05 -13.2 10.45 Q-13.2 8.85 -16.65 0.5 L-20.95 -9.5 Q-22.55 -13.45 -24.0 -18.75 L-25.15 -23.75 -24.95 -25.4 -24.75 -27.0 Q-24.75 -27.8 -25.05 -28.4 L-25.3 -28.85 -26.95 -30.65 Q-28.1 -31.9 -28.95 -33.8 -30.0 -36.15 -30.0 -38.3 -30.0 -39.2 -28.95 -41.9 -27.85 -44.65 -27.85 -45.75 -27.85 -47.25 -28.25 -48.4 L-28.65 -49.6 Q-28.65 -51.75 -27.0 -53.6 L-25.85 -54.9 Q-25.35 -55.6 -25.35 -56.35 L-26.15 -60.75 Q-26.15 -63.1 -24.5 -65.05 -22.5 -67.4 -22.05 -69.35 L-21.15 -73.75 Q-20.9 -75.3 -20.4 -75.85 -19.8 -76.45 -17.55 -79.6 -14.85 -82.95 -11.75 -84.9 L-8.3 -86.35 Q-5.65 -87.35 -4.1 -88.6 L-2.65 -89.4 -1.35 -89.85 1.05 -89.55 3.0 -89.25 6.8 -90.0 9.9 -89.55 Q12.35 -88.65 18.05 -85.2 20.8 -83.6 21.85 -82.1 23.0 -80.5 23.95 -76.85" fill="#ffffff" fill-opacity="0.0" fill-rule="evenodd" stroke="none"/>
  </g>
</svg>
