<?xml version="1.0" encoding="UTF-8" standalone="no"?>
<svg xmlns:ffdec="https://www.free-decompiler.com/flash" xmlns:xlink="http://www.w3.org/1999/xlink" ffdec:objectType="shape" height="181.95px" width="52.8px" xmlns="http://www.w3.org/2000/svg">
  <g transform="matrix(1.0, 0.0, 0.0, 1.0, 24.25, 85.7)">
    <path d="M25.65 -51.5 Q27.25 -50.15 28.55 -43.5 28.55 -41.65 25.7 -39.5 23.05 -37.5 21.5 -37.5 18.2 -37.5 16.05 -41.45 L14.5 -45.4 Q14.5 -48.05 15.1 -48.45 15.75 -48.9 23.5 -51.75 L25.65 -51.5 M19.75 -59.45 Q15.75 -53.95 9.25 -53.95 2.2 -53.95 -2.5 -62.0 -5.95 -67.9 -5.95 -71.25 -5.95 -77.8 -1.45 -81.9 2.7 -85.75 8.45 -85.7 14.35 -85.65 18.3 -81.3 22.8 -76.35 22.8 -67.5 22.8 -63.65 19.75 -59.45 M25.5 -25.75 Q26.65 -24.35 26.65 -22.65 26.65 -20.5 26.15 -19.45 25.4 -17.7 23.25 -17.7 20.3 -17.7 19.5 -19.8 L19.3 -22.0 Q19.3 -27.9 23.0 -27.25 24.4 -27.05 25.5 -25.75 M13.4 -33.0 Q15.7 -30.1 15.8 -28.95 L16.8 -20.15 Q16.8 -13.15 13.75 -7.5 9.15 1.0 -0.75 1.0 -10.7 1.0 -12.85 -2.1 -13.55 -3.1 -13.6 -4.7 L-13.7 -6.75 -15.5 -10.9 Q-16.85 -13.8 -16.95 -15.0 -17.2 -17.9 -19.6 -24.6 L-21.95 -31.4 Q-21.95 -36.25 -16.4 -42.8 -13.1 -46.7 -6.0 -53.0 3.9 -52.05 7.75 -46.6 9.4 -44.2 10.8 -37.45 11.1 -36.05 13.4 -33.0 M15.3 -3.5 Q15.3 -6.4 16.7 -8.7 18.9 -12.4 23.75 -11.45 24.35 -10.6 25.15 -8.05 25.9 -5.6 25.9 -4.65 25.9 -3.0 24.8 -1.25 23.35 1.05 21.0 1.05 L17.55 1.0 Q16.15 -0.4 15.7 -1.45 15.3 -2.3 15.3 -3.5 M11.2 5.75 Q11.1 6.7 10.0 7.3 L6.5 7.3 5.75 6.9 5.55 5.75 Q5.55 4.2 6.65 3.3 8.1 2.05 11.05 3.05 L11.3 4.05 11.2 5.75 M0.05 16.75 Q-1.05 18.0 -4.5 18.0 -7.0 18.0 -7.95 15.55 -8.45 14.3 -8.45 12.75 -8.45 7.35 -3.8 8.5 -2.0 8.95 -0.65 10.35 0.8 11.9 0.8 13.65 0.8 15.9 0.05 16.75 M2.0 45.5 Q-1.15 44.8 -2.8 41.7 -4.0 39.4 -4.0 37.1 -4.0 30.2 -2.45 25.55 -0.7 20.2 3.55 16.0 24.5 -4.8 24.5 13.05 24.5 23.5 21.65 30.25 17.3 40.55 6.0 45.5 L2.0 45.5 M16.4 48.55 Q17.8 49.3 17.8 51.3 17.8 52.7 16.25 54.3 14.6 56.0 13.0 56.0 9.85 56.0 9.0 55.0 8.75 54.7 8.75 53.85 8.75 49.85 13.3 48.45 L16.4 48.55 M2.5 61.25 Q-3.25 61.15 -4.75 59.3 -5.25 58.7 -5.25 56.6 -5.25 50.4 0.5 49.95 2.75 49.8 4.45 50.85 6.25 51.95 6.25 53.85 6.25 55.4 5.2 57.85 3.95 60.65 2.5 61.25 M6.55 65.6 L6.55 64.75 Q6.55 63.35 8.2 62.3 10.0 61.1 12.05 61.8 L12.15 62.0 12.25 62.75 Q12.25 64.1 11.1 65.25 9.95 66.3 8.75 66.3 6.95 66.3 6.55 65.6 M3.05 73.6 Q2.4 75.8 0.0 75.8 L-2.15 75.5 -6.95 75.05 Q-9.15 73.75 -9.55 73.0 L-9.75 71.35 Q-9.75 68.4 -7.7 66.35 -5.85 64.5 -3.2 64.15 -0.55 63.8 1.25 65.25 3.3 66.85 3.3 70.15 L3.05 73.6 M17.25 86.35 Q17.25 89.05 14.3 92.35 10.85 96.25 6.25 96.25 0.85 96.25 -1.95 91.4 L-3.7 86.4 Q-3.7 78.3 2.9 75.85 6.65 74.45 15.25 73.55 L16.55 80.05 Q17.25 84.0 17.25 86.35 M-14.2 -72.4 Q-11.65 -71.95 -9.75 -69.25 -7.7 -66.35 -7.7 -62.4 -7.7 -59.35 -8.95 -56.95 -11.1 -52.7 -16.25 -52.7 -19.15 -52.7 -20.25 -57.4 L-20.75 -62.25 Q-20.75 -67.8 -18.7 -70.5 -16.95 -72.85 -14.2 -72.4 M-19.4 -44.75 Q-20.35 -44.0 -21.5 -44.0 -22.95 -44.0 -23.75 -46.2 L-24.25 -48.4 Q-24.25 -51.7 -21.35 -51.15 -18.5 -50.65 -18.5 -46.35 -18.5 -45.5 -19.4 -44.75 M-10.45 45.1 Q-10.45 43.3 -9.9 42.75 -9.25 42.05 -7.0 42.05 -4.25 42.05 -3.75 43.05 L-3.7 45.0 Q-3.7 46.75 -3.9 47.05 -4.45 47.8 -7.0 47.8 -9.5 47.8 -10.2 46.5 L-10.45 45.1" fill="#bb5e00" fill-rule="evenodd" stroke="none"/>
    <path d="M-8.2 43.8 L-6.05 43.85 Q-5.45 44.05 -5.45 44.85 L-5.5 45.5 -6.15 45.9 -7.25 46.05 Q-8.7 46.05 -8.7 45.0 L-8.2 43.8 M-5.9 14.8 Q-6.7 13.75 -6.7 12.75 -6.8 11.8 -6.5 11.0 -5.95 9.45 -4.0 9.8 -3.85 10.75 -2.4 11.75 -0.95 12.75 -0.95 13.4 L-1.0 14.75 Q-1.55 16.0 -4.0 16.0 -5.05 16.0 -5.9 14.8 M-21.5 -46.75 Q-21.75 -46.9 -21.75 -48.15 -21.75 -48.9 -21.55 -48.95 L-21.2 -49.0 -21.2 -49.2 Q-20.15 -48.05 -21.2 -46.25 L-21.45 -46.55 -21.5 -46.75 M-19.25 -62.5 Q-19.25 -67.3 -17.7 -69.35 -16.4 -71.1 -14.35 -70.4 -12.45 -69.75 -11.0 -67.4 -9.45 -64.95 -9.45 -62.1 -9.45 -60.65 -10.65 -59.55 -12.25 -58.1 -13.2 -55.2 L-15.1 -54.9 -16.25 -54.75 Q-17.9 -54.75 -18.75 -58.4 -19.25 -60.7 -19.25 -62.5 M15.0 81.55 Q15.0 84.95 13.75 88.0 11.5 93.5 6.1 93.5 3.45 93.5 0.85 90.55 -1.45 87.95 -1.45 86.4 -0.9 83.0 1.15 80.3 5.15 74.85 12.5 76.55 13.4 77.0 14.3 79.05 15.0 80.8 15.0 81.55 M1.55 69.9 L1.5 72.25 Q1.0 74.05 -1.45 74.05 L-4.4 73.8 -6.45 73.55 -7.9 71.9 -8.25 71.1 Q-8.25 66.8 -3.35 66.25 -1.35 66.05 0.0 66.95 1.55 67.95 1.55 69.9 M8.3 64.5 L8.55 63.8 Q9.35 63.25 10.55 63.5 L10.3 63.8 Q10.2 64.2 8.3 64.5 M3.6 56.75 L2.0 59.5 -0.95 59.55 Q-2.95 59.55 -3.5 58.5 L-3.75 56.35 -3.75 54.6 Q-3.55 53.0 -2.45 53.0 -0.9 53.0 2.3 52.05 4.75 51.6 4.75 53.8 4.75 54.5 3.6 56.75 M13.15 53.75 L11.15 53.25 Q9.6 52.65 10.5 52.3 12.6 49.9 14.35 49.65 16.05 49.45 16.05 51.5 L15.05 52.55 Q13.9 53.75 13.15 53.75 M7.55 5.05 Q7.9 4.7 8.35 4.75 L9.75 5.0 9.75 5.3 7.3 5.5 7.55 5.05 M22.5 13.5 Q22.5 16.6 21.85 20.85 21.25 24.8 20.3 28.3 19.3 32.1 13.4 37.6 7.35 43.25 3.9 43.25 0.95 43.25 -0.7 41.05 -2.0 39.25 -2.0 37.1 L-1.8 32.95 -1.25 27.55 Q-0.95 25.55 1.3 22.3 L4.5 17.8 Q14.55 7.4 18.85 6.95 22.5 6.55 22.5 13.5 M24.65 -19.45 Q21.55 -19.3 21.55 -22.0 21.55 -23.5 22.55 -24.35 23.65 -25.35 25.3 -24.2 L25.3 -20.45 24.65 -19.45 M16.75 -1.7 L16.55 -3.4 Q16.55 -4.6 17.9 -6.4 L19.25 -8.45 18.85 -8.9 Q18.7 -9.2 20.0 -10.45 L23.0 -10.45 Q23.5 -9.75 24.9 -4.45 24.9 -3.4 23.8 -2.2 22.05 -0.25 18.55 -0.25 17.2 -0.25 16.75 -1.7 M7.15 -44.6 Q7.8 -43.1 8.05 -40.2 8.35 -37.35 8.8 -36.25 10.0 -33.5 13.6 -28.25 15.05 -26.1 15.05 -20.35 15.05 -14.05 12.55 -9.75 9.2 -4.1 1.3 -1.25 L-2.95 -1.25 Q-4.6 -2.0 -8.45 -2.25 -14.15 -9.85 -15.2 -16.7 -15.7 -20.15 -18.0 -26.3 L-20.2 -31.7 Q-20.2 -36.25 -14.95 -41.45 -8.25 -47.4 -5.25 -50.95 4.95 -49.75 7.15 -44.6 M26.05 -41.7 Q24.4 -39.75 21.85 -39.75 19.75 -39.75 18.0 -41.95 16.5 -43.85 16.5 -45.35 L18.2 -46.85 Q20.25 -48.55 21.9 -49.35 27.3 -51.85 27.3 -44.15 27.3 -43.15 26.05 -41.7 M20.5 -63.75 Q18.1 -56.45 9.35 -56.45 2.45 -56.45 -1.5 -63.95 -4.25 -69.2 -4.25 -73.15 -4.25 -78.15 -0.25 -81.2 3.35 -83.95 8.5 -83.95 13.7 -83.95 17.25 -81.1 21.25 -77.9 21.25 -72.25 21.25 -66.0 20.5 -63.75" fill="#e97300" fill-rule="evenodd" stroke="none"/>
    <path d="M15.0 -78.7 Q15.8 -77.75 16.0 -75.95 L16.05 -73.4 Q16.05 -69.25 15.0 -67.2 12.7 -62.7 5.5 -62.7 2.3 -65.6 1.75 -66.95 1.05 -68.5 1.05 -71.75 0.5 -74.85 1.95 -77.05 4.8 -81.4 15.0 -78.7 M13.0 -58.7 Q11.3 -58.7 11.0 -59.4 L11.0 -60.25 Q11.0 -61.7 12.3 -62.25 13.8 -62.85 16.5 -61.7 L16.75 -61.15 Q15.6 -59.75 13.0 -58.7 M24.0 -46.7 L24.15 -46.15 24.25 -45.0 24.25 -44.15 24.05 -43.7 23.65 -43.45 22.5 -43.2 Q21.3 -43.2 21.05 -44.1 L21.05 -45.15 Q21.05 -46.2 21.25 -46.45 21.8 -47.15 24.0 -46.7 M12.25 -28.0 Q12.25 -25.75 11.3 -25.0 10.4 -24.25 7.5 -24.25 6.0 -24.25 5.75 -25.35 L5.75 -26.65 Q5.75 -30.6 9.0 -31.35 12.25 -32.1 12.25 -28.0 M4.8 -35.35 Q4.8 -34.05 3.6 -31.25 L1.8 -27.0 Q1.45 -25.95 1.4 -22.85 0.75 -20.2 -3.0 -20.2 -10.15 -20.2 -12.2 -24.45 -12.95 -26.0 -12.95 -29.9 -12.95 -30.55 -10.8 -33.75 -8.7 -36.95 -8.7 -39.75 -8.7 -41.35 -6.35 -43.75 -3.65 -46.5 -1.5 -44.25 0.6 -43.05 2.7 -40.0 4.8 -37.0 4.8 -35.35 M6.65 -11.75 L2.5 -7.45 -5.0 -7.45 Q-5.75 -7.8 -6.8 -10.45 L-7.7 -13.15 -7.45 -14.4 Q-7.2 -15.0 -7.2 -15.5 L-7.0 -15.85 Q-6.75 -16.2 -6.0 -16.2 -5.0 -16.2 -4.85 -15.4 L-4.95 -14.25 Q-2.7 -15.3 3.1 -18.5 7.8 -20.25 7.8 -15.5 7.8 -13.1 6.65 -11.75 M18.8 15.4 Q19.55 16.15 19.55 16.55 19.55 23.7 17.35 27.05 14.9 30.75 9.25 30.75 5.15 30.75 4.3 29.55 L4.25 28.1 Q4.25 23.8 11.15 16.45 14.0 13.4 15.85 12.7 18.0 11.95 18.0 14.75 L18.8 15.4 M6.5 33.25 Q8.55 33.8 8.55 37.0 8.55 38.25 5.5 39.25 L3.0 39.25 Q1.3 39.0 0.9 38.05 0.75 37.75 0.75 36.35 0.75 34.6 1.25 34.2 2.2 33.35 6.5 33.25 M11.3 84.35 Q11.3 86.15 11.1 86.55 10.5 87.9 8.0 88.5 L5.5 88.5 2.65 86.55 Q2.0 85.9 2.0 84.5 2.0 84.05 3.45 82.35 5.1 80.45 6.65 79.5 11.3 76.6 11.3 84.35 M-14.35 -67.65 Q-11.5 -67.15 -11.5 -62.75 -11.5 -62.2 -12.45 -60.7 -13.55 -58.95 -14.5 -58.95 -16.0 -58.95 -16.75 -61.45 L-17.2 -63.9 Q-17.2 -68.2 -14.35 -67.65 M-3.75 68.45 Q-2.0 68.15 -2.0 70.0 -2.0 71.25 -2.25 71.8 L-2.5 72.05 -3.5 72.3 Q-4.65 72.3 -5.2 71.0 L-5.5 69.85 Q-5.5 68.75 -3.75 68.45" fill="#ff8d1c" fill-rule="evenodd" stroke="none"/>
  </g>
</svg>
