<?xml version="1.0" encoding="UTF-8" standalone="no"?>
<svg xmlns:ffdec="https://www.free-decompiler.com/flash" xmlns:xlink="http://www.w3.org/1999/xlink" ffdec:objectType="shape" height="21.05px" width="78.55px" xmlns="http://www.w3.org/2000/svg">
  <g transform="matrix(1.0, 0.0, 0.0, 1.0, 35.75, 19.8)">
    <path d="M7.7 -7.95 L7.8 0.25 19.55 -0.55 Q24.45 -0.9 26.75 -1.65 26.35 -4.35 26.25 -6.2 26.15 -9.75 28.75 -10.3 L29.15 -0.5 17.15 0.6 6.8 1.25 6.85 -7.9 7.5 -7.95 7.7 -7.95 M41.15 -16.95 L42.8 -8.2 Q42.45 -6.75 40.5 -5.0 38.2 -2.85 35.5 -2.6 L35.3 -12.15 35.5 -12.25 36.0 -12.45 36.3 -3.85 Q39.5 -4.8 40.6 -6.25 41.15 -7.0 41.15 -8.15 L40.55 -11.0 Q39.95 -13.2 39.95 -14.75 39.95 -15.3 40.5 -15.9 41.1 -16.55 41.15 -16.95 M-34.6 -17.15 L-33.7 -15.5 -33.1 -14.5 Q-33.1 -10.4 -33.7 -9.05 L-34.35 -7.4 Q-34.35 -4.9 -26.15 -2.95 L-14.45 -0.95 -2.75 0.3 -1.6 0.25 Q-1.8 -5.1 -1.5 -7.95 L-1.4 -7.95 -0.05 -7.9 -0.05 1.25 Q-16.1 0.75 -25.9 -1.8 -35.6 -4.35 -35.75 -8.0 L-34.6 -17.15" fill="#0c0c0c" fill-rule="evenodd" stroke="none"/>
    <path d="M7.7 -7.95 L9.05 -8.0 Q8.9 -4.05 9.1 -2.5 9.35 -0.7 10.25 -0.7 L20.05 -1.65 Q23.75 -2.35 24.85 -2.8 L24.8 -9.5 23.8 -9.35 23.95 -9.35 26.7 -9.85 26.25 -10.5 26.85 -10.65 28.75 -11.0 28.75 -10.3 Q26.15 -9.75 26.25 -6.2 26.35 -4.35 26.75 -1.65 24.45 -0.9 19.55 -0.55 L7.8 0.25 7.7 -7.95 M7.55 -8.8 L7.5 -7.95 6.85 -7.9 6.95 -8.35 7.55 -8.8 M38.9 -14.65 Q39.55 -15.35 40.0 -16.5 L40.35 -17.8 40.35 -19.1 Q41.15 -17.75 41.15 -16.95 41.1 -16.55 40.5 -15.9 39.95 -15.3 39.95 -14.75 39.95 -13.2 40.55 -11.0 L41.15 -8.15 Q41.15 -7.0 40.6 -6.25 39.5 -4.8 36.3 -3.85 L36.0 -12.45 Q38.25 -13.25 39.85 -14.65 L38.9 -14.65 M35.3 -12.15 L35.55 -12.95 35.5 -12.25 35.3 -12.15 M-34.6 -17.15 L-34.25 -18.15 -33.65 -19.2 -33.1 -19.8 Q-33.8 -16.5 -33.55 -16.0 L-32.2 -14.65 -33.05 -14.45 Q-31.15 -13.15 -27.8 -11.85 L-28.65 -5.8 Q-28.65 -5.0 -20.1 -3.15 -11.25 -1.25 -6.35 -1.25 -4.25 -1.25 -4.0 -2.2 L-3.8 -8.0 -4.5 -8.05 -1.5 -7.95 Q-1.8 -5.1 -1.6 0.25 L-2.75 0.3 -14.45 -0.95 -26.15 -2.95 Q-34.35 -4.9 -34.35 -7.4 L-33.7 -9.05 Q-33.1 -10.4 -33.1 -14.5 L-33.7 -15.5 -34.6 -17.15 M-1.45 -8.8 L-0.05 -8.75 -0.05 -7.9 -1.4 -7.95 -1.45 -8.8" fill="#1b1b1b" fill-rule="evenodd" stroke="none"/>
    <path d="M23.8 -9.35 L24.8 -9.5 24.85 -2.8 Q23.75 -2.35 20.05 -1.65 L10.25 -0.7 Q9.35 -0.7 9.1 -2.5 8.9 -4.05 9.05 -8.0 L10.55 -8.05 23.8 -9.35 M-4.5 -8.05 L-3.8 -8.0 -4.0 -2.2 Q-4.25 -1.25 -6.35 -1.25 -11.25 -1.25 -20.1 -3.15 -28.65 -5.0 -28.65 -5.8 L-27.8 -11.85 -24.4 -10.8 -13.0 -8.55 -5.6 -8.1 -4.5 -8.05" fill="#2e2e2e" fill-rule="evenodd" stroke="none"/>
    <path d="M9.05 -8.0 L7.7 -7.95 7.5 -7.95 7.55 -8.8 10.25 -8.85 10.55 -8.05 9.05 -8.0 M26.85 -10.65 L26.25 -10.5 26.7 -9.85 23.95 -9.35 23.75 -10.1 26.85 -10.65 M35.55 -12.95 Q36.95 -13.45 38.9 -14.65 L39.85 -14.65 Q38.25 -13.25 36.0 -12.45 L35.5 -12.25 35.55 -12.95 M-1.5 -7.95 L-4.5 -8.05 -5.6 -8.1 -5.75 -8.95 -1.45 -8.8 -1.4 -7.95 -1.5 -7.95 M-27.8 -11.85 Q-31.15 -13.15 -33.05 -14.45 L-32.2 -14.65 Q-29.85 -13.2 -27.9 -12.55 L-23.5 -11.35 -24.4 -10.8 -27.8 -11.85" fill="#3c3c3c" fill-rule="evenodd" stroke="none"/>
    <path d="M23.95 -9.35 L23.8 -9.35 10.55 -8.05 10.25 -8.85 23.75 -10.1 23.95 -9.35 M-23.5 -11.35 Q-23.15 -11.0 -20.9 -10.6 L-5.75 -8.95 -5.6 -8.1 -13.0 -8.55 -24.4 -10.8 -23.5 -11.35" fill="#616161" fill-rule="evenodd" stroke="none"/>
  </g>
</svg>
