<?xml version="1.0" encoding="UTF-8" standalone="no"?>
<svg xmlns:ffdec="https://www.free-decompiler.com/flash" xmlns:xlink="http://www.w3.org/1999/xlink" ffdec:objectType="shape" height="1074.0px" width="1432.0px" xmlns="http://www.w3.org/2000/svg">
  <g transform="matrix(1.0, 0.0, 0.0, 1.0, 396.0, 297.0)">
    <path d="M1036.0 -297.0 L1036.0 777.0 -396.0 777.0 -396.0 -297.0 1036.0 -297.0 M576.0 20.0 L64.0 20.0 Q45.75 20.0 32.85 32.85 20.0 45.75 20.0 64.0 L20.0 366.0 Q20.0 384.25 32.85 397.1 45.75 410.0 64.0 410.0 L576.0 410.0 Q594.25 410.0 607.1 397.1 620.0 384.25 620.0 366.0 L620.0 64.0 Q620.0 45.75 607.1 32.85 594.25 20.0 576.0 20.0" fill="#000000" fill-rule="evenodd" stroke="none"/>
  </g>
</svg>
