<?xml version="1.0" encoding="UTF-8" standalone="no"?>
<svg xmlns:ffdec="https://www.free-decompiler.com/flash" xmlns:xlink="http://www.w3.org/1999/xlink" ffdec:objectType="shape" height="35.0px" width="107.0px" xmlns="http://www.w3.org/2000/svg">
  <g transform="matrix(1.0, 0.0, 0.0, 1.0, -507.85, -280.6)">
    <path d="M593.65 291.75 L593.75 291.15 Q593.75 289.45 590.75 286.85 587.75 284.25 587.75 287.55 587.75 288.9 589.25 290.35 590.95 292.0 593.0 292.0 L593.65 291.75 M599.4 295.8 Q598.4 295.6 598.4 296.95 L598.5 297.4 Q598.75 297.9 599.5 297.9 L600.15 297.8 600.4 297.1 Q600.4 296.0 599.4 295.8 M579.25 294.9 L579.75 296.1 Q580.45 297.35 581.5 297.35 L582.6 297.1 582.75 295.8 Q582.75 293.25 581.0 292.85 579.25 292.45 579.25 294.9 M570.5 294.3 Q568.75 293.5 568.75 294.95 568.75 295.4 569.5 296.35 570.35 297.55 571.25 297.55 571.9 297.55 572.25 296.5 572.25 295.05 570.5 294.3 M568.75 290.1 L569.75 289.9 569.8 289.25 Q569.55 286.65 567.9 285.15 566.25 283.55 566.25 286.7 L566.75 288.35 Q567.5 290.1 568.75 290.1 M576.25 287.0 Q576.25 287.5 576.75 288.3 577.45 289.55 578.75 289.55 579.75 289.55 580.0 289.0 L580.0 288.05 Q580.0 284.95 578.15 285.3 576.25 285.65 576.25 287.0 M519.2 289.05 L519.3 288.9 Q525.2 287.35 532.45 287.35 539.7 287.35 546.4 289.05 L546.5 289.05 546.5 289.75 546.85 293.5 Q547.6 297.15 549.75 297.15 550.15 297.15 550.5 295.8 L550.75 294.1 Q550.75 291.3 550.25 289.3 L549.35 289.25 Q553.2 289.35 555.85 288.5 556.3 290.25 557.65 290.25 559.5 290.25 559.9 289.4 L560.0 287.9 Q560.0 285.1 558.75 284.4 L558.65 285.0 558.75 284.3 558.9 282.6 592.25 282.6 612.4 300.85 537.85 300.85 Q535.25 297.85 531.95 296.9 L527.35 294.45 Q522.2 291.6 519.2 289.05 M538.65 293.95 Q537.3 293.5 537.3 295.25 L537.75 296.55 Q538.25 298.0 538.65 298.0 L539.5 297.6 Q540.0 297.1 540.0 296.55 540.0 294.35 538.65 293.95 M531.3 293.35 Q530.3 293.25 530.3 294.35 530.3 295.05 531.3 295.05 532.3 295.05 532.3 294.3 532.3 293.45 531.3 293.35 M531.3 290.35 Q531.3 288.4 530.3 288.5 529.3 288.65 529.3 289.95 L529.35 290.6 Q529.55 291.5 530.3 291.5 530.8 291.5 531.05 291.1 L531.3 290.35 M535.85 289.2 L536.1 289.85 Q536.45 290.55 536.95 290.55 537.25 290.55 537.75 290.15 L538.25 289.3 Q538.25 288.45 537.05 288.35 535.85 288.25 535.85 289.2 M525.05 291.75 Q525.35 291.7 525.7 291.15 L526.0 290.5 Q526.0 289.6 525.05 289.4 524.1 289.2 524.1 290.5 524.1 291.0 525.05 291.75 M558.8 293.25 Q557.3 292.55 557.3 295.0 L557.55 296.25 Q558.05 297.5 559.15 297.5 560.0 297.5 560.2 297.0 L560.25 296.25 Q560.25 293.95 558.8 293.25" fill="#333333" fill-rule="evenodd" stroke="none"/>
    <path d="M576.25 287.0 Q576.25 285.65 578.15 285.3 580.0 284.95 580.0 288.05 L580.0 289.0 Q579.75 289.55 578.75 289.55 577.45 289.55 576.75 288.3 576.25 287.5 576.25 287.0 M568.75 290.1 Q567.5 290.1 566.75 288.35 L566.25 286.7 Q566.25 283.55 567.9 285.15 569.55 286.65 569.8 289.25 L569.75 289.9 568.75 290.1 M570.5 294.3 Q572.25 295.05 572.25 296.5 571.9 297.55 571.25 297.55 570.35 297.55 569.5 296.35 568.75 295.4 568.75 294.95 568.75 293.5 570.5 294.3 M579.25 294.9 Q579.25 292.45 581.0 292.85 582.75 293.25 582.75 295.8 L582.6 297.1 581.5 297.35 Q580.45 297.35 579.75 296.1 L579.25 294.9 M599.4 295.8 Q600.4 296.0 600.4 297.1 L600.15 297.8 599.5 297.9 Q598.75 297.9 598.5 297.4 L598.4 296.95 Q598.4 295.6 599.4 295.8 M593.65 291.75 L593.0 292.0 Q590.95 292.0 589.25 290.35 587.75 288.9 587.75 287.55 587.75 284.25 590.75 286.85 593.75 289.45 593.75 291.15 L593.65 291.75 M558.65 285.0 L558.75 284.4 Q560.0 285.1 560.0 287.9 L559.9 289.4 Q559.5 290.25 557.65 290.25 556.3 290.25 555.85 288.5 L557.85 287.6 558.15 286.85 558.65 285.0 M549.35 289.25 L550.25 289.3 Q550.75 291.3 550.75 294.1 L550.5 295.8 Q550.15 297.15 549.75 297.15 547.6 297.15 546.85 293.5 L546.5 289.75 546.5 289.05 549.35 289.25 M525.05 291.75 Q524.1 291.0 524.1 290.5 524.1 289.2 525.05 289.4 526.0 289.6 526.0 290.5 L525.7 291.15 Q525.35 291.7 525.05 291.75 M535.85 289.2 Q535.85 288.25 537.05 288.35 538.25 288.45 538.25 289.3 L537.75 290.15 Q537.25 290.55 536.95 290.55 536.45 290.55 536.1 289.85 L535.85 289.2 M531.3 290.35 L531.05 291.1 Q530.8 291.5 530.3 291.5 529.55 291.5 529.35 290.6 L529.3 289.95 Q529.3 288.65 530.3 288.5 531.3 288.4 531.3 290.35 M531.3 293.35 Q532.3 293.45 532.3 294.3 532.3 295.05 531.3 295.05 530.3 295.05 530.3 294.35 530.3 293.25 531.3 293.35 M538.65 293.95 Q540.0 294.35 540.0 296.55 540.0 297.1 539.5 297.6 L538.65 298.0 Q538.25 298.0 537.75 296.55 L537.3 295.25 Q537.3 293.5 538.65 293.95 M558.8 293.25 Q560.25 293.95 560.25 296.25 L560.2 297.0 Q560.0 297.5 559.15 297.5 558.05 297.5 557.55 296.25 L557.3 295.0 Q557.3 292.55 558.8 293.25" fill="#cccccc" fill-rule="evenodd" stroke="none"/>
    <path d="M519.3 288.9 L519.2 289.05 519.0 288.95 519.3 288.9 M612.4 300.85 L592.25 282.6 558.9 282.6 559.0 280.6 593.05 280.7 614.6 300.1 614.85 300.45 614.85 315.0 613.9 315.6 508.85 315.6 507.95 315.0 507.85 304.1 509.85 304.65 509.85 313.6 612.9 313.6 612.9 301.3 612.4 300.85" fill="#1e1e1e" fill-rule="evenodd" stroke="none"/>
    <path d="M537.85 300.85 L612.4 300.85 612.9 301.3 612.9 313.6 509.85 313.6 509.85 304.65 Q511.4 304.7 516.3 308.3 521.2 311.9 527.9 312.15 534.85 312.65 538.35 309.1 540.0 304.5 537.85 300.85" fill="#666666" fill-rule="evenodd" stroke="none"/>
  </g>
</svg>
