<?xml version="1.0" encoding="UTF-8" standalone="no"?>
<svg xmlns:ffdec="https://www.free-decompiler.com/flash" xmlns:xlink="http://www.w3.org/1999/xlink" ffdec:objectType="shape" height="506.1px" width="663.15px" xmlns="http://www.w3.org/2000/svg">
  <g transform="matrix(1.0, 0.0, 0.0, 1.0, 16.0, 13.0)">
    <path d="M647.15 9.0 L647.15 17.85 468.1 17.85 468.1 9.0 647.15 9.0 M647.15 43.9 L647.15 52.7 468.1 52.7 468.1 43.9 647.15 43.9 M647.15 78.75 L647.15 87.55 468.1 87.55 468.1 78.75 647.15 78.75 M647.15 113.6 L647.15 122.4 468.1 122.4 468.1 113.6 647.15 113.6 M647.15 148.45 L647.15 157.25 468.1 157.25 468.1 148.45 647.15 148.45 M647.15 183.3 L647.15 192.1 468.1 192.1 468.1 183.3 647.15 183.3 M647.15 218.15 L647.15 226.95 468.1 226.95 468.1 218.15 647.15 218.15 M647.15 253.0 L647.15 261.8 468.1 261.8 468.1 253.0 647.15 253.0 M647.15 287.85 L647.15 296.65 468.1 296.65 468.1 287.85 647.15 287.85 M647.15 322.7 L647.15 331.5 468.1 331.5 468.1 322.7 647.15 322.7 M647.15 357.55 L647.15 366.35 468.1 366.35 468.1 357.55 647.15 357.55 M647.15 392.4 L647.15 401.2 468.1 401.2 468.1 392.4 647.15 392.4 M647.15 427.25 L647.15 436.05 468.1 436.05 468.1 427.25 647.15 427.25 M647.15 462.1 L647.15 471.0 468.1 471.0 468.1 462.1 647.15 462.1 M-16.0 471.0 L-16.0 462.1 156.05 462.1 156.05 471.0 -16.0 471.0 M-16.0 436.05 L-16.0 427.25 156.05 427.25 156.05 436.05 -16.0 436.05 M-16.0 401.2 L-16.0 392.4 156.05 392.4 156.05 401.2 -16.0 401.2 M-16.0 366.35 L-16.0 357.55 156.05 357.55 156.05 366.35 -16.0 366.35 M-16.0 331.5 L-16.0 322.7 156.05 322.7 156.05 331.5 -16.0 331.5 M-16.0 296.65 L-16.0 287.85 156.05 287.85 156.05 296.65 -16.0 296.65 M-16.0 261.8 L-16.0 253.0 156.05 253.0 156.05 261.8 -16.0 261.8 M-16.0 226.95 L-16.0 218.15 156.05 218.15 156.05 226.95 -16.0 226.95 M-16.0 192.1 L-16.0 183.3 156.05 183.3 156.05 192.1 -16.0 192.1 M-16.0 157.25 L-16.0 148.45 156.05 148.45 156.05 157.25 -16.0 157.25 M-16.0 122.4 L-16.0 113.6 156.05 113.6 156.05 122.4 -16.0 122.4 M-16.0 87.55 L-16.0 78.75 156.05 78.75 156.05 87.55 -16.0 87.55 M-16.0 52.7 L-16.0 43.9 156.05 43.9 156.05 52.7 -16.0 52.7 M-16.0 17.85 L-16.0 9.0 156.05 9.0 156.05 17.85 -16.0 17.85" fill="#85acd8" fill-rule="evenodd" stroke="none"/>
    <path d="M466.1 492.1 L448.1 492.1 448.1 28.0 447.8 27.3 Q447.5 27.0 447.1 27.0 L437.25 27.0 437.0 27.0 177.05 27.0 Q176.65 27.0 176.35 27.3 176.05 27.6 176.05 28.0 L176.05 492.1 158.05 492.1 158.05 9.0 466.1 9.0 466.1 492.1" fill="#eaeaea" fill-rule="evenodd" stroke="none"/>
    <path d="M386.1 144.05 L385.5 144.05 359.85 150.75 359.3 151.1 359.1 151.7 359.1 206.45 359.3 207.05 359.75 207.4 360.35 207.45 386.0 200.75 386.55 200.35 386.75 199.75 386.75 145.0 386.6 144.45 386.1 144.05 M351.45 122.05 L350.85 122.05 325.2 128.75 324.65 129.1 324.45 129.7 324.45 184.45 324.65 185.05 325.1 185.4 325.7 185.45 351.35 178.75 351.9 178.35 352.1 177.75 352.1 123.0 351.95 122.45 351.45 122.05 M393.8 173.8 L393.8 228.5 394.0 229.1 Q394.15 229.35 394.45 229.45 L395.05 229.5 420.7 222.75 421.25 222.35 421.45 221.75 421.45 167.05 421.3 166.5 420.8 166.1 420.2 166.1 394.55 172.85 Q394.2 172.9 394.0 173.2 L393.8 173.8 M308.1 378.35 L309.5 378.5 Q320.4 378.5 323.25 358.5 324.15 352.15 324.15 344.25 L324.0 336.75 323.9 332.85 324.15 329.85 Q324.15 323.2 319.45 318.5 314.75 313.8 308.1 313.8 L308.1 63.8 437.1 29.05 437.1 342.7 Q432.65 358.65 428.45 370.4 421.45 390.0 413.0 404.5 402.0 423.65 388.4 437.95 362.2 465.5 334.85 465.5 323.15 465.5 313.4 452.5 311.0 449.25 308.1 444.25 L308.1 378.35" fill="#8c4d27" fill-rule="evenodd" stroke="none"/>
    <path d="M448.1 492.1 L447.8 492.8 447.1 493.1 446.4 492.8 Q446.1 492.5 446.1 492.1 L446.1 29.0 437.25 29.0 437.1 29.05 308.1 63.8 308.1 313.8 306.1 313.95 306.1 63.0 306.3 62.4 306.85 62.05 429.5 29.0 178.05 29.0 178.05 492.1 177.75 492.8 177.05 493.1 Q176.65 493.1 176.35 492.8 176.05 492.5 176.05 492.1 L176.05 28.0 Q176.05 27.6 176.35 27.3 176.65 27.0 177.05 27.0 L437.0 27.0 437.25 27.0 447.1 27.0 Q447.5 27.0 447.8 27.3 L448.1 28.0 448.1 492.1 M308.1 492.1 L307.8 492.8 307.1 493.1 Q306.7 493.1 306.4 492.8 306.1 492.5 306.1 492.1 L306.1 345.8 308.1 345.9 308.1 378.35 308.1 444.25 308.1 492.1" fill="#412412" fill-rule="evenodd" stroke="none"/>
    <path d="M468.1 492.1 L467.8 492.8 467.1 493.1 Q466.7 493.1 466.4 492.8 466.1 492.5 466.1 492.1 L466.1 9.0 158.05 9.0 158.05 492.1 157.75 492.8 Q157.45 493.1 157.05 493.1 L156.35 492.8 Q156.05 492.5 156.05 492.1 L156.05 490.05 156.05 477.0 156.05 471.0 156.05 462.1 156.05 455.1 156.05 442.05 156.05 436.05 156.05 427.25 156.05 420.25 156.05 407.2 156.05 401.2 156.05 392.4 156.05 385.4 156.05 372.35 156.05 366.35 156.05 357.55 156.05 350.55 156.05 337.5 156.05 331.5 156.05 322.7 156.05 315.7 156.05 302.65 156.05 296.65 156.05 287.85 156.05 280.85 156.05 267.8 156.05 261.8 156.05 253.0 156.05 246.0 156.05 232.95 156.05 226.95 156.05 218.15 156.05 211.15 156.05 198.1 156.05 192.1 156.05 183.3 156.05 176.3 156.05 163.25 156.05 157.25 156.05 148.45 156.05 141.45 156.05 128.4 156.05 122.4 156.05 113.6 156.05 106.6 156.05 93.55 156.05 87.55 156.05 78.75 156.05 71.75 156.05 58.7 156.05 52.7 156.05 43.9 156.05 36.9 156.05 23.85 156.05 17.85 156.05 9.0 156.05 8.0 Q156.05 7.6 156.35 7.3 156.65 7.0 157.05 7.0 L467.1 7.0 Q467.5 7.0 467.8 7.3 L468.1 8.0 468.1 9.0 468.1 17.85 468.1 23.85 468.1 36.9 468.1 43.9 468.1 52.7 468.1 58.7 468.1 71.75 468.1 78.75 468.1 87.55 468.1 93.55 468.1 106.6 468.1 113.6 468.1 122.4 468.1 128.4 468.1 141.45 468.1 148.45 468.1 157.25 468.1 163.25 468.1 176.3 468.1 183.3 468.1 192.1 468.1 198.1 468.1 211.15 468.1 218.15 468.1 226.95 468.1 232.95 468.1 246.0 468.1 253.0 468.1 261.8 468.1 267.8 468.1 280.85 468.1 287.85 468.1 296.65 468.1 302.65 468.1 315.7 468.1 322.7 468.1 331.5 468.1 337.5 468.1 350.55 468.1 357.55 468.1 366.35 468.1 372.35 468.1 385.4 468.1 392.4 468.1 401.2 468.1 407.2 468.1 420.25 468.1 427.25 468.1 436.05 468.1 442.05 468.1 455.1 468.1 462.1 468.1 471.0 468.1 477.0 468.1 490.05 468.1 492.1" fill="#24476f" fill-rule="evenodd" stroke="none"/>
    <path d="M446.1 492.1 L437.1 492.1 437.1 342.7 437.1 29.05 437.25 29.0 446.1 29.0 446.1 492.1 M330.45 182.1 L326.45 183.15 326.45 130.5 327.05 130.35 330.45 131.7 330.45 182.1 M365.1 204.1 L361.1 205.15 361.1 152.5 361.7 152.35 365.1 153.7 365.1 204.1 M399.8 226.15 L395.8 227.2 395.8 174.6 396.4 174.45 399.8 175.8 399.8 226.15" fill="#bf6d3a" fill-rule="evenodd" stroke="none"/>
    <path d="M437.1 492.1 L308.1 492.1 308.1 444.25 Q311.0 449.25 313.4 452.5 323.15 465.5 334.85 465.5 362.2 465.5 388.4 437.95 402.0 423.65 413.0 404.5 421.45 390.0 428.45 370.4 432.65 358.65 437.1 342.7 L437.1 492.1 M351.45 122.05 L351.95 122.45 352.1 123.0 352.1 177.75 351.9 178.35 351.35 178.75 325.7 185.45 325.1 185.4 324.65 185.05 324.45 184.45 324.45 129.7 324.65 129.1 325.2 128.75 350.85 122.05 351.45 122.05 M386.1 144.05 L386.6 144.45 386.75 145.0 386.75 199.75 386.55 200.35 386.0 200.75 360.35 207.45 359.75 207.4 359.3 207.05 359.1 206.45 359.1 151.7 359.3 151.1 359.85 150.75 385.5 144.05 386.1 144.05 M330.45 131.7 L327.05 130.35 326.45 130.5 326.45 183.15 330.45 182.1 350.1 177.0 350.1 126.55 330.45 131.7 M365.1 153.7 L361.7 152.35 361.1 152.5 361.1 205.15 365.1 204.1 384.75 199.0 384.75 148.55 365.1 153.7 M399.8 175.8 L396.4 174.45 395.8 174.6 395.8 227.2 399.8 226.15 419.45 221.0 419.45 170.65 399.8 175.8 M393.8 173.8 L394.0 173.2 Q394.2 172.9 394.55 172.85 L420.2 166.1 420.8 166.1 421.3 166.5 421.45 167.05 421.45 221.75 421.25 222.35 420.7 222.75 395.05 229.5 394.45 229.45 Q394.15 229.35 394.0 229.1 L393.8 228.5 393.8 173.8 M323.9 332.85 L324.0 336.75 324.15 344.25 Q324.15 352.15 323.25 358.5 320.4 378.5 309.5 378.5 L308.1 378.35 308.1 345.9 Q314.75 345.9 319.45 341.2 323.05 337.6 323.9 332.85" fill="#794221" fill-rule="evenodd" stroke="none"/>
    <path d="M330.45 182.1 L330.45 131.7 350.1 126.55 350.1 177.0 330.45 182.1 M365.1 153.7 L384.75 148.55 384.75 199.0 365.1 204.1 365.1 153.7 M399.8 226.15 L399.8 175.8 419.45 170.65 419.45 221.0 399.8 226.15" fill="#b4cb80" fill-rule="evenodd" stroke="none"/>
    <path d="M-16.0 -11.05 L-16.0 -13.0 647.15 -13.0 647.15 -11.05 -16.0 -11.05 M647.15 17.85 L647.15 23.85 468.1 23.85 468.1 17.85 647.15 17.85 M647.15 52.7 L647.15 58.7 468.1 58.7 468.1 52.7 647.15 52.7 M647.15 87.55 L647.15 93.55 468.1 93.55 468.1 87.55 647.15 87.55 M647.15 122.4 L647.15 128.4 468.1 128.4 468.1 122.4 647.15 122.4 M647.15 157.25 L647.15 163.25 468.1 163.25 468.1 157.25 647.15 157.25 M647.15 192.1 L647.15 198.1 468.1 198.1 468.1 192.1 647.15 192.1 M647.15 226.95 L647.15 232.95 468.1 232.95 468.1 226.95 647.15 226.95 M647.15 261.8 L647.15 267.8 468.1 267.8 468.1 261.8 647.15 261.8 M647.15 296.65 L647.15 302.65 468.1 302.65 468.1 296.65 647.15 296.65 M647.15 331.5 L647.15 337.5 468.1 337.5 468.1 331.5 647.15 331.5 M647.15 366.35 L647.15 372.35 468.1 372.35 468.1 366.35 647.15 366.35 M647.15 401.2 L647.15 407.2 468.1 407.2 468.1 401.2 647.15 401.2 M647.15 436.05 L647.15 442.05 468.1 442.05 468.1 436.05 647.15 436.05 M647.15 471.0 L647.15 477.0 468.1 477.0 468.1 471.0 647.15 471.0 M-16.0 477.0 L-16.0 471.0 156.05 471.0 156.05 477.0 -16.0 477.0 M-16.0 442.05 L-16.0 436.05 156.05 436.05 156.05 442.05 -16.0 442.05 M-16.0 407.2 L-16.0 401.2 156.05 401.2 156.05 407.2 -16.0 407.2 M-16.0 372.35 L-16.0 366.35 156.05 366.35 156.05 372.35 -16.0 372.35 M-16.0 337.5 L-16.0 331.5 156.05 331.5 156.05 337.5 -16.0 337.5 M-16.0 302.65 L-16.0 296.65 156.05 296.65 156.05 302.65 -16.0 302.65 M-16.0 267.8 L-16.0 261.8 156.05 261.8 156.05 267.8 -16.0 267.8 M-16.0 232.95 L-16.0 226.95 156.05 226.95 156.05 232.95 -16.0 232.95 M-16.0 198.1 L-16.0 192.1 156.05 192.1 156.05 198.1 -16.0 198.1 M-16.0 163.25 L-16.0 157.25 156.05 157.25 156.05 163.25 -16.0 163.25 M-16.0 128.4 L-16.0 122.4 156.05 122.4 156.05 128.4 -16.0 128.4 M-16.0 93.55 L-16.0 87.55 156.05 87.55 156.05 93.55 -16.0 93.55 M-16.0 58.7 L-16.0 52.7 156.05 52.7 156.05 58.7 -16.0 58.7 M-16.0 23.85 L-16.0 17.85 156.05 17.85 156.05 23.85 -16.0 23.85" fill="#93b5dc" fill-rule="evenodd" stroke="none"/>
    <path d="M647.15 2.0 L647.15 9.0 468.1 9.0 468.1 8.0 467.8 7.3 Q467.5 7.0 467.1 7.0 L157.05 7.0 Q156.65 7.0 156.35 7.3 156.05 7.6 156.05 8.0 L156.05 9.0 -16.0 9.0 -16.0 2.0 647.15 2.0 M647.15 36.9 L647.15 43.9 468.1 43.9 468.1 36.9 647.15 36.9 M647.15 71.75 L647.15 78.75 468.1 78.75 468.1 71.75 647.15 71.75 M647.15 106.6 L647.15 113.6 468.1 113.6 468.1 106.6 647.15 106.6 M647.15 141.45 L647.15 148.45 468.1 148.45 468.1 141.45 647.15 141.45 M647.15 176.3 L647.15 183.3 468.1 183.3 468.1 176.3 647.15 176.3 M647.15 211.15 L647.15 218.15 468.1 218.15 468.1 211.15 647.15 211.15 M647.15 246.0 L647.15 253.0 468.1 253.0 468.1 246.0 647.15 246.0 M647.15 280.85 L647.15 287.85 468.1 287.85 468.1 280.85 647.15 280.85 M647.15 315.7 L647.15 322.7 468.1 322.7 468.1 315.7 647.15 315.7 M647.15 350.55 L647.15 357.55 468.1 357.55 468.1 350.55 647.15 350.55 M647.15 385.4 L647.15 392.4 468.1 392.4 468.1 385.4 647.15 385.4 M647.15 420.25 L647.15 427.25 468.1 427.25 468.1 420.25 647.15 420.25 M647.15 455.1 L647.15 462.1 468.1 462.1 468.1 455.1 647.15 455.1 M647.15 490.05 L647.15 492.1 468.1 492.1 468.1 490.05 647.15 490.05 M156.05 492.1 L-16.0 492.1 -16.0 490.05 156.05 490.05 156.05 492.1 M-16.0 462.1 L-16.0 455.1 156.05 455.1 156.05 462.1 -16.0 462.1 M-16.0 427.25 L-16.0 420.25 156.05 420.25 156.05 427.25 -16.0 427.25 M-16.0 392.4 L-16.0 385.4 156.05 385.4 156.05 392.4 -16.0 392.4 M-16.0 357.55 L-16.0 350.55 156.05 350.55 156.05 357.55 -16.0 357.55 M-16.0 322.7 L-16.0 315.7 156.05 315.7 156.05 322.7 -16.0 322.7 M-16.0 287.85 L-16.0 280.85 156.05 280.85 156.05 287.85 -16.0 287.85 M-16.0 253.0 L-16.0 246.0 156.05 246.0 156.05 253.0 -16.0 253.0 M-16.0 218.15 L-16.0 211.15 156.05 211.15 156.05 218.15 -16.0 218.15 M-16.0 183.3 L-16.0 176.3 156.05 176.3 156.05 183.3 -16.0 183.3 M-16.0 148.45 L-16.0 141.45 156.05 141.45 156.05 148.45 -16.0 148.45 M-16.0 113.6 L-16.0 106.6 156.05 106.6 156.05 113.6 -16.0 113.6 M-16.0 78.75 L-16.0 71.75 156.05 71.75 156.05 78.75 -16.0 78.75 M-16.0 43.9 L-16.0 36.9 156.05 36.9 156.05 43.9 -16.0 43.9" fill="#7497bf" fill-rule="evenodd" stroke="none"/>
    <path d="M647.15 -11.05 L647.15 2.0 -16.0 2.0 -16.0 -11.05 647.15 -11.05 M647.15 23.85 L647.15 36.9 468.1 36.9 468.1 23.85 647.15 23.85 M647.15 58.7 L647.15 71.75 468.1 71.75 468.1 58.7 647.15 58.7 M647.15 93.55 L647.15 106.6 468.1 106.6 468.1 93.55 647.15 93.55 M647.15 128.4 L647.15 141.45 468.1 141.45 468.1 128.4 647.15 128.4 M647.15 163.25 L647.15 176.3 468.1 176.3 468.1 163.25 647.15 163.25 M647.15 198.1 L647.15 211.15 468.1 211.15 468.1 198.1 647.15 198.1 M647.15 232.95 L647.15 246.0 468.1 246.0 468.1 232.95 647.15 232.95 M647.15 267.8 L647.15 280.85 468.1 280.85 468.1 267.8 647.15 267.8 M647.15 302.65 L647.15 315.7 468.1 315.7 468.1 302.65 647.15 302.65 M647.15 337.5 L647.15 350.55 468.1 350.55 468.1 337.5 647.15 337.5 M647.15 372.35 L647.15 385.4 468.1 385.4 468.1 372.35 647.15 372.35 M647.15 407.2 L647.15 420.25 468.1 420.25 468.1 407.2 647.15 407.2 M647.15 442.05 L647.15 455.1 468.1 455.1 468.1 442.05 647.15 442.05 M647.15 477.0 L647.15 490.05 468.1 490.05 468.1 477.0 647.15 477.0 M-16.0 490.05 L-16.0 477.0 156.05 477.0 156.05 490.05 -16.0 490.05 M-16.0 455.1 L-16.0 442.05 156.05 442.05 156.05 455.1 -16.0 455.1 M-16.0 420.25 L-16.0 407.2 156.05 407.2 156.05 420.25 -16.0 420.25 M-16.0 385.4 L-16.0 372.35 156.05 372.35 156.05 385.4 -16.0 385.4 M-16.0 350.55 L-16.0 337.5 156.05 337.5 156.05 350.55 -16.0 350.55 M-16.0 315.7 L-16.0 302.65 156.05 302.65 156.05 315.7 -16.0 315.7 M-16.0 280.85 L-16.0 267.8 156.05 267.8 156.05 280.85 -16.0 280.85 M-16.0 246.0 L-16.0 232.95 156.05 232.95 156.05 246.0 -16.0 246.0 M-16.0 211.15 L-16.0 198.1 156.05 198.1 156.05 211.15 -16.0 211.15 M-16.0 176.3 L-16.0 163.25 156.05 163.25 156.05 176.3 -16.0 176.3 M-16.0 141.45 L-16.0 128.4 156.05 128.4 156.05 141.45 -16.0 141.45 M-16.0 106.6 L-16.0 93.55 156.05 93.55 156.05 106.6 -16.0 106.6 M-16.0 71.75 L-16.0 58.7 156.05 58.7 156.05 71.75 -16.0 71.75 M-16.0 36.9 L-16.0 23.85 156.05 23.85 156.05 36.9 -16.0 36.9" fill="#a0bfe0" fill-rule="evenodd" stroke="none"/>
    <path d="M306.1 345.8 Q300.7 345.15 296.75 341.2 292.05 336.5 292.05 329.85 292.05 323.2 296.75 318.5 300.7 314.55 306.1 313.95 L308.1 313.8 Q314.75 313.8 319.45 318.5 324.15 323.2 324.15 329.85 L323.9 332.85 Q323.05 337.6 319.45 341.2 314.75 345.9 308.1 345.9 L306.1 345.8 M308.1 315.8 L306.3 315.9 306.1 315.95 Q302.55 316.4 299.75 318.55 L298.15 319.9 Q294.05 324.0 294.05 329.85 294.05 335.7 298.15 339.8 301.55 343.2 306.1 343.8 L308.1 343.9 Q313.95 343.9 318.05 339.8 322.15 335.7 322.15 329.85 322.15 327.5 321.5 325.45 320.5 322.35 318.05 319.9 313.95 315.8 308.1 315.8" fill="#583118" fill-rule="evenodd" stroke="none"/>
    <path d="M308.1 315.8 Q313.95 315.8 318.05 319.9 320.5 322.35 321.5 325.45 322.15 327.5 322.15 329.85 322.15 335.7 318.05 339.8 313.95 343.9 308.1 343.9 L306.1 343.8 Q301.55 343.2 298.15 339.8 294.05 335.7 294.05 329.85 294.05 324.0 298.15 319.9 L299.75 318.55 Q302.55 316.4 306.1 315.95 L306.3 315.9 308.1 315.8 M309.1 318.05 L308.1 318.1 306.1 318.45 Q304.0 319.0 302.35 320.4 299.55 322.75 299.55 326.05 299.55 329.35 302.35 331.7 304.0 333.1 306.1 333.7 L308.1 334.05 308.6 334.05 309.1 334.05 Q313.05 334.05 315.85 331.7 318.65 329.35 318.65 326.05 L318.65 326.0 Q318.6 322.7 315.85 320.4 313.05 318.05 309.1 318.05" fill="#bf8b15" fill-rule="evenodd" stroke="none"/>
    <path d="M309.1 318.05 Q313.05 318.05 315.85 320.4 318.6 322.7 318.65 326.0 L318.65 326.05 Q318.65 329.35 315.85 331.7 313.05 334.05 309.1 334.05 L308.6 334.05 308.1 334.05 306.1 333.7 Q304.0 333.1 302.35 331.7 299.55 329.35 299.55 326.05 299.55 322.75 302.35 320.4 304.0 319.0 306.1 318.45 L308.1 318.1 309.1 318.05 M308.1 320.6 L307.35 321.05 Q306.15 322.05 306.1 323.45 L306.1 323.65 Q306.15 325.05 307.35 326.0 L308.1 326.5 Q309.1 327.05 310.35 327.05 312.1 327.05 313.35 326.0 314.6 325.0 314.6 323.55 314.6 322.1 313.35 321.05 312.1 320.05 310.35 320.05 309.1 320.05 308.1 320.6" fill="#f1c425" fill-rule="evenodd" stroke="none"/>
    <path d="M308.1 320.6 Q309.1 320.05 310.35 320.05 312.1 320.05 313.35 321.05 314.6 322.1 314.6 323.55 314.6 325.0 313.35 326.0 312.1 327.05 310.35 327.05 309.1 327.05 308.1 326.5 L307.35 326.0 Q306.15 325.05 306.1 323.65 L306.1 323.45 Q306.15 322.05 307.35 321.05 L308.1 320.6" fill="#f8df89" fill-rule="evenodd" stroke="none"/>
  </g>
</svg>
