<?xml version="1.0" encoding="UTF-8" standalone="no"?>
<svg xmlns:ffdec="https://www.free-decompiler.com/flash" xmlns:xlink="http://www.w3.org/1999/xlink" ffdec:objectType="shape" height="432.05px" width="624.3px" xmlns="http://www.w3.org/2000/svg">
  <g transform="matrix(1.0, 0.0, 0.0, 1.0, -11.0, 2.95)">
    <path d="M11.0 2.0 L11.0 -2.95 635.3 -2.95 635.3 89.0 Q628.1 42.0 597.6 20.85 570.25 1.85 521.15 1.85 L11.0 2.0" fill="url(#gradient0)" fill-rule="evenodd" stroke="none"/>
    <path d="M635.3 369.4 L635.3 375.6 11.0 375.6 11.0 369.4 411.6 369.4 Q416.15 372.25 424.65 373.4 L435.25 374.1 Q441.05 374.1 448.8 372.35 455.2 370.9 458.75 369.4 L635.3 369.4" fill="#3a3737" fill-rule="evenodd" stroke="none"/>
    <path d="M635.3 317.4 L635.3 369.4 458.75 369.4 Q475.75 362.65 485.8 347.15 495.5 332.1 495.5 313.9 L494.4 301.9 501.8 309.15 525.4 309.2 Q524.7 311.55 527.45 314.25 530.7 317.4 536.5 317.4 L635.3 317.4 M11.0 369.4 L11.0 309.2 364.85 309.2 365.75 309.0 377.25 297.5 Q376.8 299.45 375.05 313.9 375.05 331.95 384.85 347.15 394.9 362.65 411.6 369.4 L11.0 369.4" fill="#4e4949" fill-rule="evenodd" stroke="none"/>
    <path d="M635.3 375.6 L635.3 386.7 587.5 386.7 580.4 386.7 469.7 386.7 462.7 386.7 352.0 386.7 344.9 386.7 234.4 386.7 227.35 386.7 116.85 386.7 109.95 386.7 11.0 386.7 11.0 375.6 635.3 375.6" fill="#d76464" fill-rule="evenodd" stroke="none"/>
    <path d="M601.25 429.1 L594.1 429.1 580.4 386.7 587.5 386.7 601.25 429.1 M479.05 429.1 L471.9 429.1 462.7 386.7 469.7 386.7 479.05 429.1 M356.55 429.1 L349.55 429.1 344.9 386.7 352.0 386.7 356.55 429.1 M234.4 429.1 L227.35 429.1 227.35 386.7 234.4 386.7 234.4 429.1 M112.3 429.1 L105.4 429.1 109.95 386.7 116.85 386.7 112.3 429.1" fill="#aa9d8b" fill-rule="evenodd" stroke="none"/>
    <path d="M635.3 386.7 L635.3 429.1 601.25 429.1 587.5 386.7 635.3 386.7 M594.1 429.1 L479.05 429.1 469.7 386.7 580.4 386.7 594.1 429.1 M471.9 429.1 L356.55 429.1 352.0 386.7 462.7 386.7 471.9 429.1 M349.55 429.1 L234.4 429.1 234.4 386.7 344.9 386.7 349.55 429.1 M227.35 429.1 L112.3 429.1 116.85 386.7 227.35 386.7 227.35 429.1 M105.4 429.1 L11.0 429.1 11.0 386.7 109.95 386.7 105.4 429.1" fill="#bdaf9c" fill-rule="evenodd" stroke="none"/>
    <path d="M11.0 2.0 L521.15 1.85 Q570.25 1.85 597.6 20.85 628.1 42.0 635.3 89.0 L635.3 99.75 Q633.4 95.95 631.65 90.75 628.2 80.5 628.2 69.35 L626.9 64.95 Q625.65 60.5 625.75 60.5 617.5 32.55 588.05 17.5 556.9 1.55 509.25 4.25 L11.0 4.25 11.0 2.0 M635.3 130.7 L635.3 142.25 633.5 131.6 Q633.5 131.15 633.85 130.85 634.15 130.5 634.6 130.5 L635.3 130.7 M635.3 250.75 L635.3 259.95 Q633.3 267.45 630.65 275.1 631.75 275.1 632.35 274.4 632.85 273.8 635.3 274.15 L635.3 277.35 534.05 277.35 530.65 277.25 Q529.2 277.05 528.75 277.85 527.65 279.7 527.65 296.8 527.65 314.35 528.95 314.95 L531.55 314.5 Q534.0 313.95 536.5 315.2 L635.3 315.2 635.3 317.4 536.5 317.4 Q530.7 317.4 527.45 314.25 524.7 311.55 525.4 309.2 L501.8 309.15 494.4 301.9 487.3 294.85 471.8 279.3 395.2 279.3 386.3 288.4 377.25 297.5 365.75 309.0 364.85 309.2 11.0 309.2 11.0 307.0 364.4 307.0 394.1 277.55 394.75 277.1 472.25 277.1 473.15 277.55 502.6 307.0 525.4 307.0 525.4 298.35 Q524.9 279.7 528.0 276.9 529.2 275.85 532.3 275.7 L538.7 275.1 538.7 244.1 538.7 58.5 Q541.45 55.2 541.7 50.05 541.9 45.05 543.35 43.5 546.1 40.65 555.85 39.75 567.05 38.65 591.2 39.65 603.95 40.5 613.75 51.35 622.4 60.95 622.45 69.6 L622.25 70.4 621.75 70.7 620.65 70.4 Q620.2 70.05 620.2 69.6 616.85 65.1 613.4 57.9 610.5 51.7 608.3 49.45 604.75 45.8 597.65 44.1 589.7 42.25 574.35 41.9 L560.0 41.8 555.8 41.7 Q550.25 41.7 546.35 45.4 541.65 49.85 540.9 58.7 L540.9 238.55 540.9 260.95 540.9 275.1 628.4 275.1 632.85 261.15 635.3 250.75" fill="#2d4f0b" fill-rule="evenodd" stroke="none"/>
    <path d="M635.3 99.75 L635.3 130.7 634.6 130.5 633.95 126.3 Q633.1 117.65 629.15 99.05 625.25 81.05 623.1 74.9 L621.75 70.7 622.25 70.4 622.45 69.6 628.2 69.35 Q628.2 80.5 631.65 90.75 633.4 95.95 635.3 99.75 M635.3 277.35 L635.3 283.95 538.7 283.95 538.55 294.75 538.25 304.6 Q553.6 304.55 562.35 305.05 L573.7 306.1 635.3 306.1 635.3 315.2 536.5 315.2 Q534.0 313.95 531.55 314.5 L528.95 314.95 Q527.65 314.35 527.65 296.8 527.65 279.7 528.75 277.85 529.2 277.05 530.65 277.25 L534.05 277.35 635.3 277.35 M11.0 307.0 L11.0 298.35 360.85 298.35 387.65 270.25 479.55 270.25 506.35 298.35 525.4 298.35 525.4 307.0 502.6 307.0 473.15 277.55 472.25 277.1 394.75 277.1 394.1 277.55 364.4 307.0 11.0 307.0 M11.0 183.1 L11.0 175.9 14.0 175.9 11.0 183.1 M11.0 165.5 L11.0 155.05 22.4 155.05 18.2 165.5 11.0 165.5 M11.0 131.6 L11.0 126.7 28.85 126.7 26.85 131.6 11.0 131.6 M11.0 74.25 L11.0 69.6 50.1 69.6 48.35 74.25 11.0 74.25 M454.1 131.6 Q414.85 132.85 404.05 130.15 400.0 129.1 399.2 127.3 399.0 126.95 399.0 124.15 399.0 122.95 399.8 119.95 L414.25 81.3 415.9 78.6 Q417.55 76.0 418.55 74.85 421.05 71.95 425.85 70.45 427.45 70.0 430.35 69.7 L477.35 69.6 475.6 74.25 457.55 73.05 Q443.95 72.4 434.65 74.9 406.7 82.45 406.7 120.4 406.7 122.7 406.9 123.05 407.65 124.55 411.3 125.45 421.05 127.8 456.1 126.7 L454.1 131.6 M547.1 165.5 L547.1 155.05 577.05 155.05 572.8 165.5 547.1 165.5 M568.85 175.9 L564.85 186.3 547.1 186.3 547.1 175.9 568.85 175.9 M535.6 155.05 L535.6 165.5 407.8 165.5 Q408.1 162.95 410.15 161.1 412.6 158.85 417.1 158.15 L415.8 155.05 535.6 155.05 M535.6 175.9 L535.6 186.3 410.0 186.3 Q411.3 184.85 412.25 182.45 413.6 178.95 412.7 175.9 L535.6 175.9 M334.95 69.6 L333.15 74.25 315.1 73.05 Q301.5 72.4 292.25 74.9 264.3 82.45 264.3 120.4 264.3 122.7 264.5 123.05 265.25 124.55 268.9 125.45 278.65 127.8 313.7 126.7 L311.7 131.6 Q272.4 132.85 261.65 130.15 257.6 129.1 256.75 127.3 256.6 126.95 256.6 124.15 256.6 122.75 257.35 119.95 L264.55 100.65 271.85 81.3 273.5 78.6 Q275.15 76.0 276.15 74.85 278.65 71.95 283.45 70.45 L287.95 69.7 334.95 69.6 M358.4 165.5 Q359.6 162.35 368.0 159.6 376.45 156.8 377.25 155.05 L381.9 155.05 Q380.25 156.5 378.95 160.4 377.8 163.8 377.9 165.5 L358.4 165.5 M347.35 155.05 L345.55 160.15 351.75 159.95 349.1 165.5 340.05 165.5 Q340.7 162.6 340.7 160.8 340.7 159.55 339.85 157.7 L338.25 155.05 347.35 155.05 M344.45 175.9 L342.4 180.8 340.25 186.3 336.5 186.3 Q331.6 179.55 328.3 175.9 L344.45 175.9 M366.4 186.3 L367.5 183.2 350.9 184.1 354.2 175.9 382.35 175.9 Q382.35 180.2 379.75 183.25 377.15 186.3 373.5 186.3 L366.4 186.3 M317.9 155.05 L313.0 165.5 302.15 165.5 302.75 163.15 303.05 160.8 Q303.05 159.55 302.2 157.7 301.45 156.0 300.6 155.05 L317.9 155.05 M308.35 175.9 L306.25 180.8 303.95 186.3 276.25 186.3 Q276.25 182.0 278.65 178.95 281.05 175.9 284.45 175.9 L285.35 175.9 308.35 175.9 M313.9 186.3 L317.65 176.35 Q322.2 181.95 325.2 186.3 L313.9 186.3 M322.1 165.5 Q322.1 162.65 323.35 160.65 324.55 158.6 326.3 158.6 328.05 158.6 329.3 160.65 330.5 162.65 330.5 165.5 L322.1 165.5 M402.7 155.05 Q401.15 156.45 399.85 160.35 398.65 163.8 398.75 165.5 L387.0 165.5 Q387.3 162.95 389.35 161.1 391.8 158.85 396.3 158.15 L394.95 155.05 402.7 155.05 M403.15 175.9 Q403.15 180.2 400.55 183.25 397.95 186.3 394.3 186.3 L389.2 186.3 Q390.55 184.7 391.4 182.45 392.75 178.95 391.85 175.9 L403.15 175.9 M169.25 131.6 Q129.95 132.85 119.2 130.15 115.15 129.1 114.3 127.3 114.15 126.95 114.15 124.15 114.15 122.95 114.95 119.95 L122.15 100.65 129.45 81.3 131.1 78.6 Q132.75 76.0 133.75 74.85 136.3 71.9 141.0 70.45 151.3 67.2 161.6 67.95 L192.5 69.6 190.75 74.25 172.65 73.05 Q159.0 72.4 149.8 74.9 121.9 82.45 121.9 120.4 121.9 122.7 122.1 123.05 122.85 124.55 126.5 125.45 136.25 127.8 171.25 126.7 L169.25 131.6 M193.65 155.05 L192.3 159.05 199.15 158.15 195.6 165.5 138.9 165.5 Q140.35 161.6 142.3 160.35 143.6 159.55 146.0 159.65 L149.75 159.25 Q151.9 158.35 153.55 155.05 L193.65 155.05 M191.2 175.9 Q189.6 179.5 187.65 186.3 L130.75 186.3 134.95 175.9 191.2 175.9 M199.6 186.3 L200.45 183.1 201.6 179.1 202.3 177.1 204.25 176.65 217.1 175.9 237.05 175.9 228.2 186.3 199.6 186.3 M206.5 165.5 L208.2 161.1 209.15 158.6 206.9 157.3 216.3 157.4 Q225.05 157.1 229.05 155.05 L241.9 155.05 242.95 160.45 243.7 165.5 206.5 165.5 M250.55 155.05 L257.0 155.05 251.9 159.95 250.55 155.05 M266.7 155.05 L279.8 155.05 Q276.05 162.65 275.15 165.5 L257.0 165.5 262.5 159.15 Q265.4 155.9 266.7 155.05 M237.95 186.3 L244.35 179.2 243.9 186.3 237.95 186.3 M254.1 186.3 L254.1 175.9 270.5 175.9 266.3 186.3 254.1 186.3 M284.45 165.5 Q284.45 162.65 285.7 160.65 286.9 158.6 288.65 158.6 290.4 158.6 291.65 160.65 292.85 162.65 292.85 165.5 L284.45 165.5 M40.15 165.5 L27.75 165.5 31.95 155.05 48.55 155.05 Q47.3 155.85 44.6 158.8 40.9 162.75 40.15 165.5 M23.75 175.9 L38.35 175.9 Q38.2 177.1 38.8 180.3 39.55 184.45 41.05 186.3 L19.55 186.3 23.75 175.9 M68.05 186.3 L68.95 184.3 Q69.45 183.0 70.05 183.0 L72.05 183.25 73.8 184.1 Q77.8 179.35 77.8 178.35 77.8 177.8 76.8 177.05 75.55 176.15 73.6 175.9 L80.45 175.9 76.45 186.3 68.05 186.3 M59.85 175.9 L56.95 178.75 Q57.45 180.2 59.6 180.6 L62.5 181.0 Q59.25 185.2 55.95 185.2 52.4 185.2 49.85 183.2 46.6 180.7 46.55 175.9 L59.85 175.9 M49.65 165.5 Q51.3 163.55 54.85 161.9 58.1 160.4 60.05 160.4 62.3 160.4 64.25 161.2 67.15 162.4 67.85 165.05 73.4 162.3 78.9 159.5 L77.05 157.2 75.15 155.05 89.75 155.05 85.1 165.5 49.65 165.5 M86.2 186.3 Q87.1 183.95 88.95 181.45 92.65 176.45 97.5 175.9 L101.05 175.9 97.05 186.3 86.2 186.3 M106.8 186.3 L110.8 175.9 124.95 175.9 122.9 180.8 120.75 186.3 106.8 186.3 M115.45 165.5 L119.9 155.05 123.4 155.05 121.65 160.15 132.3 159.95 129.6 165.5 115.45 165.5 M111.25 155.05 L105.9 165.5 94.4 165.5 98.6 155.05 111.25 155.05" fill="#521d63" fill-rule="evenodd" stroke="none"/>
    <path d="M11.0 227.3 L11.0 214.1 509.45 213.75 Q513.15 213.8 514.95 215.15 517.2 216.8 517.2 220.85 517.2 222.6 515.8 224.55 513.65 227.65 509.45 227.5 L404.05 227.5 Q403.45 227.1 403.0 225.9 402.2 223.45 403.15 219.3 399.05 223.75 398.05 223.75 397.45 223.75 394.7 222.0 L392.1 220.2 Q394.5 226.6 393.65 227.5 L11.0 227.3 M11.0 44.75 L11.0 31.05 512.8 31.05 Q515.55 30.45 517.95 33.25 520.1 35.75 520.1 38.1 520.1 40.0 517.65 42.45 515.0 45.05 512.8 44.75 L11.0 44.75 M574.35 41.9 Q582.25 47.7 588.05 50.7 L594.3 53.7 Q596.4 54.85 598.4 57.7 600.1 60.2 605.4 69.6 577.75 68.75 575.0 69.1 573.55 69.3 572.85 70.65 571.6 73.1 569.85 74.85 566.6 78.2 564.85 82.85 551.65 117.75 550.65 121.45 L550.3 124.15 Q550.3 128.0 552.5 129.8 554.85 131.65 559.95 131.6 L620.0 131.6 625.7 160.95 Q630.65 189.55 630.65 206.35 630.65 211.45 628.8 220.55 L625.1 238.55 540.9 238.55 540.9 58.7 Q541.65 49.85 546.35 45.4 550.25 41.7 555.8 41.7 L560.0 41.8 574.35 41.9 M547.1 155.05 L547.1 165.5 547.1 175.9 547.1 186.3 547.1 196.95 560.65 196.95 564.85 186.3 568.85 175.9 572.8 165.5 577.05 155.05 581.0 144.65 547.1 144.65 547.1 155.05 M590.75 152.2 L614.0 152.2 614.0 146.0 590.75 146.0 590.75 152.2" fill="#9ae74e" fill-rule="evenodd" stroke="none"/>
    <path d="M635.3 142.25 L635.3 250.75 632.85 261.15 573.7 261.15 568.95 260.45 Q565.2 260.3 540.9 260.95 L540.9 238.55 625.1 238.55 628.8 220.55 Q630.65 211.45 630.65 206.35 630.65 189.55 625.7 160.95 L620.0 131.6 633.5 131.6 635.3 142.25 M11.0 244.1 L11.0 227.3 393.65 227.5 389.45 231.25 396.3 230.8 Q397.3 230.8 399.15 236.8 L400.8 233.5 Q403.3 230.15 407.6 229.7 L404.05 227.5 509.45 227.5 Q513.65 227.65 515.8 224.55 517.2 222.6 517.2 220.85 517.2 216.8 514.95 215.15 513.15 213.8 509.45 213.75 L11.0 214.1 11.0 196.95 184.55 196.95 183.9 199.8 Q192.85 198.15 201.7 197.55 L213.8 196.95 535.6 196.95 535.6 186.3 535.6 175.9 535.6 165.5 535.6 155.05 535.6 144.65 11.0 144.65 11.0 131.6 26.85 131.6 57.95 132.8 Q67.75 133.3 78.65 130.8 82.0 130.05 85.85 126.45 86.9 125.45 88.55 122.7 L90.05 119.95 104.55 81.3 Q105.4 78.85 105.4 76.5 L105.25 73.9 Q104.4 72.25 100.35 71.2 89.05 68.3 50.1 69.6 L11.0 69.6 11.0 61.8 535.6 61.8 535.6 54.05 11.0 54.05 11.0 44.75 512.8 44.75 Q515.0 45.05 517.65 42.45 520.1 40.0 520.1 38.1 520.1 35.75 517.95 33.25 515.55 30.45 512.8 31.05 L11.0 31.05 11.0 11.8 532.3 12.0 Q548.7 14.25 566.7 22.5 585.55 31.1 591.2 39.65 567.05 38.65 555.85 39.75 546.1 40.65 543.35 43.5 541.9 45.05 541.7 50.05 541.45 55.2 538.7 58.5 L538.7 244.1 455.45 244.1 456.55 239.25 Q452.45 243.65 451.45 243.65 450.85 243.65 448.1 241.9 L445.45 240.1 447.0 244.1 190.3 244.1 189.2 236.6 185.0 244.1 183.65 244.1 175.7 242.55 177.0 244.1 89.95 244.1 95.95 235.05 Q84.1 239.0 83.1 239.0 82.1 239.0 74.9 228.4 74.8 236.7 71.4 241.2 69.7 243.5 68.05 244.1 L11.0 244.1 M574.35 41.9 Q589.7 42.25 597.65 44.1 604.75 45.8 608.3 49.45 610.5 51.7 613.4 57.9 616.85 65.1 620.2 69.6 L605.4 69.6 Q600.1 60.2 598.4 57.7 596.4 54.85 594.3 53.7 L588.05 50.7 Q582.25 47.7 574.35 41.9 M454.1 131.6 L501.45 131.55 505.9 130.8 Q509.3 129.95 513.1 126.45 514.75 124.9 517.3 119.95 L531.8 81.3 Q532.65 78.85 532.65 76.5 L532.5 73.9 Q531.65 72.25 527.6 71.2 516.3 68.3 477.35 69.6 L430.35 69.7 Q427.45 70.0 425.85 70.45 421.05 71.95 418.55 74.85 417.55 76.0 415.9 78.6 L414.25 81.3 399.8 119.95 Q399.0 122.95 399.0 124.15 399.0 126.95 399.2 127.3 400.0 129.1 404.05 130.15 414.85 132.85 454.1 131.6 M334.95 69.6 L287.95 69.7 283.45 70.45 Q278.65 71.95 276.15 74.85 275.15 76.0 273.5 78.6 L271.85 81.3 264.55 100.65 257.35 119.95 Q256.6 122.75 256.6 124.15 256.6 126.95 256.75 127.3 257.6 129.1 261.65 130.15 272.4 132.85 311.7 131.6 L359.0 131.55 363.45 130.8 Q366.65 130.0 370.7 126.45 372.45 124.9 374.85 119.95 L389.35 81.3 Q390.2 78.85 390.2 76.5 L390.05 73.9 Q389.2 72.25 385.15 71.2 373.9 68.3 334.95 69.6 M169.25 131.6 L216.6 131.55 221.05 130.8 Q224.25 130.0 228.3 126.45 230.05 124.9 232.45 119.95 L246.95 81.3 Q247.8 78.85 247.8 76.5 L247.65 73.9 Q246.8 72.25 242.75 71.2 231.45 68.3 192.5 69.6 L161.6 67.95 Q151.3 67.2 141.0 70.45 136.3 71.9 133.75 74.85 132.75 76.0 131.1 78.6 L129.45 81.3 122.15 100.65 114.95 119.95 Q114.15 122.95 114.15 124.15 114.15 126.95 114.3 127.3 115.15 129.1 119.2 130.15 129.95 132.85 169.25 131.6" fill="#75ce1c" fill-rule="evenodd" stroke="none"/>
    <path d="M635.3 259.95 L635.3 274.15 Q632.85 273.8 632.35 274.4 631.75 275.1 630.65 275.1 633.3 267.45 635.3 259.95 M11.0 298.35 L11.0 244.1 68.05 244.1 61.85 246.3 63.85 247.2 Q66.3 248.45 68.3 250.2 74.8 255.75 74.9 264.05 L78.65 258.75 Q82.5 253.4 83.1 253.4 L89.9 255.4 95.95 257.4 92.35 251.6 Q89.0 245.5 89.95 244.1 L177.0 244.1 178.8 247.85 Q180.0 252.55 177.25 257.4 L181.1 255.65 Q185.05 253.85 185.65 253.85 186.3 253.85 189.15 257.3 L191.85 260.7 191.2 251.65 Q191.2 251.05 195.3 249.3 197.35 248.4 199.4 247.65 190.55 245.45 190.3 244.1 L447.0 244.1 446.8 245.9 Q446.0 248.3 442.8 251.2 L449.65 250.75 Q450.65 250.75 452.55 256.75 L454.2 253.45 Q456.65 250.05 460.95 249.65 L458.05 247.55 Q455.15 245.25 455.45 244.1 L538.7 244.1 538.7 275.1 532.3 275.7 Q529.2 275.85 528.0 276.9 524.9 279.7 525.4 298.35 L506.35 298.35 479.55 270.25 387.65 270.25 360.85 298.35 11.0 298.35 M11.0 11.8 L11.0 4.25 509.25 4.25 Q556.9 1.55 588.05 17.5 617.5 32.55 625.75 60.5 625.65 60.5 626.9 64.95 L628.2 69.35 622.45 69.6 Q622.4 60.95 613.75 51.35 603.95 40.5 591.2 39.65 585.55 31.1 566.7 22.5 548.7 14.25 532.3 12.0 L11.0 11.8 M350.65 260.2 Q345.05 259.15 342.25 254.3 341.9 256.5 340.45 259.0 337.6 264.0 332.05 265.35 L336.05 268.5 Q340.0 272.75 339.6 278.45 L342.35 275.0 Q345.2 271.55 345.8 271.55 346.45 271.55 350.4 273.35 L354.2 275.1 Q353.1 273.15 352.75 270.35 352.05 264.7 355.75 260.3 353.5 260.75 350.65 260.2 M540.9 260.95 Q565.2 260.3 568.95 260.45 L573.7 261.15 632.85 261.15 628.4 275.1 540.9 275.1 540.9 260.95 M138.15 268.9 L139.35 266.05 Q135.65 268.25 131.6 266.95 L128.3 265.15 Q129.25 269.3 126.65 272.85 125.35 274.6 123.85 275.55 128.15 275.95 130.65 279.35 131.9 281.05 132.3 282.65 L133.35 279.65 Q134.55 276.65 135.15 276.65 L142.0 277.1 Q136.95 273.45 136.95 272.45 136.95 271.85 138.15 268.9 M30.4 259.1 Q24.75 258.05 22.0 253.2 L20.2 257.9 Q17.35 262.9 11.8 264.25 L15.8 267.4 Q19.75 271.65 19.3 277.35 L22.05 273.9 Q24.9 270.45 25.5 270.45 26.15 270.45 30.1 272.25 L33.95 274.0 Q32.85 272.05 32.5 269.25 31.75 263.6 35.5 259.15 33.25 259.6 30.4 259.1 M276.4 258.45 Q277.6 260.9 278.2 263.55 280.05 271.95 275.35 278.9 L281.4 276.9 Q287.6 274.9 288.2 274.9 288.85 274.9 292.7 280.25 L296.4 285.55 Q296.45 282.25 298.1 278.35 301.4 270.6 309.45 267.8 306.25 266.65 303.0 263.8 296.55 258.15 296.4 249.85 294.35 252.5 290.7 254.7 283.4 259.0 275.35 256.5 L276.4 258.45 M233.2 270.2 Q234.4 273.2 234.4 273.8 234.4 274.8 229.3 278.45 L236.15 278.0 Q236.8 278.0 238.0 281.0 L239.05 283.95 Q239.45 282.35 240.7 280.65 243.15 277.3 247.45 276.9 241.45 274.1 241.45 273.1 L242.25 269.45 243.0 266.5 237.95 270.9 231.95 267.35 233.2 270.2" fill="#5ba215" fill-rule="evenodd" stroke="none"/>
    <path d="M635.3 283.95 L635.3 306.1 573.7 306.1 562.35 305.05 Q553.6 304.55 538.25 304.6 L538.55 294.75 538.7 283.95 635.3 283.95 M11.0 196.95 L11.0 194.45 Q12.4 194.25 14.2 193.1 17.75 190.85 19.55 186.3 L41.05 186.3 Q43.9 190.35 47.1 192.05 50.05 193.6 54.3 193.6 61.1 193.6 68.05 186.3 L76.45 186.3 75.15 189.75 73.6 193.6 79.1 192.1 Q84.85 189.9 86.2 186.3 L97.05 186.3 94.4 192.95 Q101.35 192.05 104.15 190.1 105.85 188.9 106.8 186.3 L120.75 186.3 119.45 189.75 117.9 193.6 123.5 192.1 Q129.35 189.9 130.75 186.3 L187.65 186.3 Q185.75 191.8 185.25 194.2 L184.55 196.95 11.0 196.95 M11.0 175.9 L11.0 165.5 18.2 165.5 14.0 175.9 11.0 175.9 M11.0 155.05 L11.0 144.65 535.6 144.65 535.6 155.05 415.8 155.05 413.55 150.0 406.35 153.0 402.7 155.05 394.95 155.05 392.75 150.0 Q392.35 149.95 387.2 152.45 L381.9 155.05 377.25 155.05 379.25 150.85 348.25 151.95 347.35 155.05 338.25 155.05 Q335.45 152.85 331.05 151.85 L324.3 150.85 319.0 150.85 318.75 152.45 317.9 155.05 300.6 155.05 Q294.25 150.85 284.1 150.85 283.4 150.75 282.55 151.25 280.85 152.2 279.8 155.05 L266.7 155.05 270.5 150.85 Q261.6 149.95 259.95 151.1 259.45 151.45 258.8 152.7 L257.0 155.05 250.55 155.05 249.0 150.85 240.35 150.85 240.85 152.1 241.9 155.05 229.05 155.05 231.75 146.65 221.35 147.0 209.7 146.5 Q195.9 146.55 193.65 155.05 L153.55 155.05 155.3 150.85 124.3 151.95 123.4 155.05 119.9 155.05 121.85 150.85 Q116.15 150.85 113.7 152.2 112.2 153.0 111.25 155.05 L98.6 155.05 100.4 150.85 Q94.65 150.85 92.2 152.2 90.7 153.0 89.75 155.05 L75.15 155.05 Q73.3 153.7 69.7 152.45 65.15 150.85 60.95 150.85 L55.8 152.25 Q50.45 153.85 48.55 155.05 L31.95 155.05 33.25 151.3 Q27.05 151.6 24.6 152.75 23.15 153.4 22.4 155.05 L11.0 155.05 M11.0 61.8 L11.0 54.05 535.6 54.05 535.6 61.8 11.0 61.8 M605.4 69.6 L620.2 69.6 Q620.2 70.05 620.65 70.4 L621.75 70.7 623.1 74.9 Q583.95 74.9 582.2 75.1 L579.8 75.6 Q576.1 76.95 574.7 78.45 572.4 80.9 570.9 83.4 569.65 85.95 558.65 115.2 L557.6 120.1 Q557.6 123.25 559.45 124.8 561.4 126.35 565.5 126.3 L633.95 126.3 634.6 130.5 Q634.15 130.5 633.85 130.85 633.5 131.15 633.5 131.6 L620.0 131.6 559.95 131.6 Q554.85 131.65 552.5 129.8 550.3 128.0 550.3 124.15 L550.65 121.45 Q551.65 117.75 564.85 82.85 566.6 78.2 569.85 74.85 571.6 73.1 572.85 70.65 573.55 69.3 575.0 69.1 577.75 68.75 605.4 69.6 M523.05 75.95 Q520.85 74.2 516.35 74.3 L482.65 74.25 463.2 126.7 497.25 126.7 Q499.4 126.95 503.5 125.0 507.5 123.1 508.5 121.45 L511.9 115.4 524.2 84.15 Q524.9 81.65 524.9 80.1 524.9 77.4 523.05 75.95 M477.35 69.6 Q516.3 68.3 527.6 71.2 531.65 72.25 532.5 73.9 L532.65 76.5 Q532.65 78.85 531.8 81.3 L517.3 119.95 Q514.75 124.9 513.1 126.45 509.3 129.95 505.9 130.8 L501.45 131.55 454.1 131.6 456.1 126.7 475.6 74.25 477.35 69.6 M547.1 155.05 L547.1 144.65 581.0 144.65 577.05 155.05 547.1 155.05 M572.8 165.5 L568.85 175.9 547.1 175.9 547.1 165.5 572.8 165.5 M564.85 186.3 L560.65 196.95 547.1 196.95 547.1 186.3 564.85 186.3 M535.6 165.5 L535.6 175.9 412.7 175.9 410.9 173.05 Q409.05 169.9 407.8 165.5 L535.6 165.5 M535.6 186.3 L535.6 196.95 213.8 196.95 216.9 187.4 198.95 188.3 199.6 186.3 228.2 186.3 222.2 193.6 Q234.65 191.4 235.7 190.55 L236.3 189.05 Q236.65 187.7 237.95 186.3 L243.9 186.3 Q243.9 187.65 244.75 190.6 245.05 192.5 243.75 192.85 L253.7 191.6 254.1 186.3 266.3 186.3 263.6 193.6 269.1 192.1 Q274.9 189.9 276.25 186.3 L303.95 186.3 301.25 193.6 306.75 192.1 Q312.55 189.9 313.9 186.3 L325.2 186.3 328.75 192.95 338.5 189.4 336.5 186.3 340.25 186.3 338.95 189.75 337.4 193.6 364.4 192.05 366.4 186.3 373.5 186.3 374.8 194.7 Q378.2 193.65 383.45 190.4 388.05 187.55 389.2 186.3 L394.3 186.3 395.65 194.7 Q399.0 193.65 404.25 190.4 408.85 187.55 410.0 186.3 L535.6 186.3 M590.75 152.2 L590.75 146.0 614.0 146.0 614.0 152.2 590.75 152.2 M333.15 74.25 L334.95 69.6 Q373.9 68.3 385.15 71.2 389.2 72.25 390.05 73.9 L390.2 76.5 Q390.2 78.85 389.35 81.3 L374.85 119.95 Q372.45 124.9 370.7 126.45 366.65 130.0 363.45 130.8 L359.0 131.55 311.7 131.6 313.7 126.7 333.15 74.25 M380.6 75.95 Q378.4 74.2 373.9 74.3 L340.25 74.25 320.75 126.7 354.8 126.7 Q356.95 126.95 361.05 125.0 365.05 123.1 366.1 121.45 L368.2 117.9 369.5 115.4 381.75 84.15 Q382.45 81.65 382.45 80.1 382.45 77.4 380.6 75.95 M354.2 175.9 Q354.35 175.45 360.95 173.95 367.9 171.6 369.5 167.05 L357.55 167.25 358.4 165.5 377.9 165.5 380.0 170.55 382.35 175.9 354.2 175.9 M349.1 165.5 L344.45 175.9 328.3 175.9 327.65 175.2 Q334.5 172.65 335.75 171.7 337.1 170.6 340.05 165.5 L349.1 165.5 M313.0 165.5 L308.35 175.9 285.35 175.9 Q292.1 175.7 297.0 172.85 302.15 169.8 302.15 165.5 L313.0 165.5 M330.5 165.5 Q329.6 166.4 327.25 167.15 324.4 168.1 321.0 168.15 L322.1 165.5 330.5 165.5 M387.0 165.5 L398.75 165.5 Q399.1 168.6 401.05 172.15 L403.15 175.9 391.85 175.9 390.05 173.05 Q388.2 169.9 387.0 165.5 M192.5 69.6 Q231.45 68.3 242.75 71.2 246.8 72.25 247.65 73.9 L247.8 76.5 Q247.8 78.85 246.95 81.3 L232.45 119.95 Q230.05 124.9 228.3 126.45 224.25 130.0 221.05 130.8 L216.6 131.55 169.25 131.6 171.25 126.7 190.75 74.25 192.5 69.6 M238.2 75.95 Q236.05 74.2 231.5 74.3 L197.85 74.25 178.35 126.7 212.4 126.7 Q214.55 126.95 218.65 125.0 222.65 123.1 223.7 121.45 L225.8 117.9 227.1 115.4 Q238.7 85.45 239.35 84.15 240.05 81.65 240.05 80.1 240.05 77.4 238.2 75.95 M195.6 165.5 Q191.75 174.25 191.2 175.9 L134.95 175.9 138.9 165.5 195.6 165.5 M217.1 175.9 L220.2 167.05 205.35 167.45 206.5 165.5 243.7 165.5 243.95 169.6 Q243.95 170.4 243.4 170.7 240.05 172.35 237.05 175.9 L217.1 175.9 M254.1 175.9 L253.45 169.25 257.0 165.5 275.15 165.5 270.5 175.9 254.1 175.9 M292.85 165.5 Q291.95 166.4 289.6 167.15 286.75 168.1 283.35 168.15 L284.45 165.5 292.85 165.5 M95.8 75.95 Q93.6 74.2 89.1 74.3 L55.4 74.25 35.95 126.7 70.0 126.7 Q72.15 126.95 76.25 125.0 80.25 123.1 81.25 121.45 L84.65 115.4 96.95 84.15 Q97.65 81.65 97.65 80.1 97.65 77.4 95.8 75.95 M50.1 69.6 Q89.05 68.3 100.35 71.2 104.4 72.25 105.25 73.9 L105.4 76.5 Q105.4 78.85 104.55 81.3 L90.05 119.95 88.55 122.7 Q86.9 125.45 85.85 126.45 82.0 130.05 78.65 130.8 67.75 133.3 57.95 132.8 L26.85 131.6 28.85 126.7 48.35 74.25 50.1 69.6 M27.75 165.5 L40.15 165.5 39.05 169.2 Q38.35 172.1 38.35 175.9 L23.75 175.9 27.75 165.5 M73.6 175.9 L67.65 175.4 Q63.8 174.85 62.3 173.25 L59.85 175.9 46.55 175.9 Q46.7 172.95 47.85 169.65 48.7 167.1 49.65 165.5 L85.1 165.5 80.45 175.9 73.6 175.9 M97.5 175.9 L101.25 175.45 101.05 175.9 97.5 175.9 M110.8 175.9 L115.45 165.5 129.6 165.5 124.95 175.9 110.8 175.9 M105.9 165.5 L104.35 168.8 Q104.05 167.05 103.05 167.05 L93.3 168.15 94.4 165.5 105.9 165.5" fill="#7a2c94" fill-rule="evenodd" stroke="none"/>
    <path d="M11.0 126.7 L11.0 74.25 48.35 74.25 28.85 126.7 11.0 126.7 M633.95 126.3 L565.5 126.3 Q561.4 126.35 559.45 124.8 557.6 123.25 557.6 120.1 L558.65 115.2 Q569.65 85.95 570.9 83.4 572.4 80.9 574.7 78.45 576.1 76.95 579.8 75.6 L582.2 75.1 Q583.95 74.9 623.1 74.9 625.25 81.05 629.15 99.05 633.1 117.65 633.95 126.3 M523.05 75.95 Q524.9 77.4 524.9 80.1 524.9 81.65 524.2 84.15 L511.9 115.4 508.5 121.45 Q507.5 123.1 503.5 125.0 499.4 126.95 497.25 126.7 L463.2 126.7 482.65 74.25 516.35 74.3 Q520.85 74.2 523.05 75.95 M475.6 74.25 L456.1 126.7 Q421.05 127.8 411.3 125.45 407.65 124.55 406.9 123.05 406.7 122.7 406.7 120.4 406.7 82.45 434.65 74.9 443.95 72.4 457.55 73.05 L475.6 74.25 M313.7 126.7 Q278.65 127.8 268.9 125.45 265.25 124.55 264.5 123.05 264.3 122.7 264.3 120.4 264.3 82.45 292.25 74.9 301.5 72.4 315.1 73.05 L333.15 74.25 313.7 126.7 M380.6 75.95 Q382.45 77.4 382.45 80.1 382.45 81.65 381.75 84.15 L369.5 115.4 368.2 117.9 366.1 121.45 Q365.05 123.1 361.05 125.0 356.95 126.95 354.8 126.7 L320.75 126.7 340.25 74.25 373.9 74.3 Q378.4 74.2 380.6 75.95 M190.75 74.25 L171.25 126.7 Q136.25 127.8 126.5 125.45 122.85 124.55 122.1 123.05 121.9 122.7 121.9 120.4 121.9 82.45 149.8 74.9 159.0 72.4 172.65 73.05 L190.75 74.25 M238.2 75.95 Q240.05 77.4 240.05 80.1 240.05 81.65 239.35 84.15 238.7 85.45 227.1 115.4 L225.8 117.9 223.7 121.45 Q222.65 123.1 218.65 125.0 214.55 126.95 212.4 126.7 L178.35 126.7 197.85 74.25 231.5 74.3 Q236.05 74.2 238.2 75.95 M95.8 75.95 Q97.65 77.4 97.65 80.1 97.65 81.65 96.95 84.15 L84.65 115.4 81.25 121.45 Q80.25 123.1 76.25 125.0 72.15 126.95 70.0 126.7 L35.95 126.7 55.4 74.25 89.1 74.3 Q93.6 74.2 95.8 75.95" fill="#72d2d8" fill-rule="evenodd" stroke="none"/>
    <path d="M11.0 194.45 L11.0 183.1 14.0 175.9 18.2 165.5 22.4 155.05 Q23.15 153.4 24.6 152.75 27.05 151.6 33.25 151.3 L31.95 155.05 27.75 165.5 23.75 175.9 19.55 186.3 Q17.75 190.85 14.2 193.1 12.4 194.25 11.0 194.45 M213.8 196.95 L201.7 197.55 Q192.85 198.15 183.9 199.8 L184.55 196.95 185.25 194.2 Q185.75 191.8 187.65 186.3 189.6 179.5 191.2 175.9 191.75 174.25 195.6 165.5 L199.15 158.15 192.3 159.05 193.65 155.05 Q195.9 146.55 209.7 146.5 L221.35 147.0 231.75 146.65 229.05 155.05 Q225.05 157.1 216.3 157.4 L206.9 157.3 209.15 158.6 208.2 161.1 206.5 165.5 205.35 167.45 220.2 167.05 217.1 175.9 204.25 176.65 202.3 177.1 201.6 179.1 200.45 183.1 199.6 186.3 198.95 188.3 216.9 187.4 213.8 196.95 M415.8 155.05 L417.1 158.15 Q412.6 158.85 410.15 161.1 408.1 162.95 407.8 165.5 409.05 169.9 410.9 173.05 L412.7 175.9 Q413.6 178.95 412.25 182.45 411.3 184.85 410.0 186.3 408.85 187.55 404.25 190.4 399.0 193.65 395.65 194.7 L394.3 186.3 Q397.95 186.3 400.55 183.25 403.15 180.2 403.15 175.9 L401.05 172.15 Q399.1 168.6 398.75 165.5 398.65 163.8 399.85 160.35 401.15 156.45 402.7 155.05 L406.35 153.0 413.55 150.0 415.8 155.05 M358.4 165.5 L357.55 167.25 369.5 167.05 Q367.9 171.6 360.95 173.95 354.35 175.45 354.2 175.9 L350.9 184.1 367.5 183.2 366.4 186.3 364.4 192.05 337.4 193.6 338.95 189.75 340.25 186.3 342.4 180.8 344.45 175.9 349.1 165.5 351.75 159.95 345.55 160.15 347.35 155.05 348.25 151.95 379.25 150.85 377.25 155.05 Q376.45 156.8 368.0 159.6 359.6 162.35 358.4 165.5 M382.35 175.9 L380.0 170.55 377.9 165.5 Q377.8 163.8 378.95 160.4 380.25 156.5 381.9 155.05 L387.2 152.45 Q392.35 149.95 392.75 150.0 L394.95 155.05 396.3 158.15 Q391.8 158.85 389.35 161.1 387.3 162.95 387.0 165.5 388.2 169.9 390.05 173.05 L391.85 175.9 Q392.75 178.95 391.4 182.45 390.55 184.7 389.2 186.3 388.05 187.55 383.45 190.4 378.2 193.65 374.8 194.7 L373.5 186.3 Q377.15 186.3 379.75 183.25 382.35 180.2 382.35 175.9 M338.25 155.05 L339.85 157.7 Q340.7 159.55 340.7 160.8 340.7 162.6 340.05 165.5 337.1 170.6 335.75 171.7 334.5 172.65 327.65 175.2 L328.3 175.9 Q331.6 179.55 336.5 186.3 L338.5 189.4 328.75 192.95 325.2 186.3 Q322.2 181.95 317.65 176.35 L313.9 186.3 Q312.55 189.9 306.75 192.1 L301.25 193.6 303.95 186.3 306.25 180.8 308.35 175.9 313.0 165.5 317.9 155.05 318.75 152.45 319.0 150.85 324.3 150.85 331.05 151.85 Q335.45 152.85 338.25 155.05 M330.5 165.5 Q330.5 162.65 329.3 160.65 328.05 158.6 326.3 158.6 324.55 158.6 323.35 160.65 322.1 162.65 322.1 165.5 L321.0 168.15 Q324.4 168.1 327.25 167.15 329.6 166.4 330.5 165.5 M455.45 244.1 Q455.15 245.25 458.05 247.55 L460.95 249.65 Q456.65 250.05 454.2 253.45 L452.55 256.75 Q450.65 250.75 449.65 250.75 L442.8 251.2 Q446.0 248.3 446.8 245.9 L447.0 244.1 445.45 240.1 448.1 241.9 Q450.85 243.65 451.45 243.65 452.45 243.65 456.55 239.25 L455.45 244.1 M190.3 244.1 Q190.55 245.45 199.4 247.65 197.35 248.4 195.3 249.3 191.2 251.05 191.2 251.65 L191.85 260.7 189.15 257.3 Q186.3 253.85 185.65 253.85 185.05 253.85 181.1 255.65 L177.25 257.4 Q180.0 252.55 178.8 247.85 L177.0 244.1 175.7 242.55 183.65 244.1 185.0 244.1 189.2 236.6 190.3 244.1 M89.95 244.1 Q89.0 245.5 92.35 251.6 L95.95 257.4 89.9 255.4 83.1 253.4 Q82.5 253.4 78.65 258.75 L74.9 264.05 Q74.8 255.75 68.3 250.2 66.3 248.45 63.85 247.2 L61.85 246.3 68.05 244.1 Q69.7 243.5 71.4 241.2 74.8 236.7 74.9 228.4 82.1 239.0 83.1 239.0 84.1 239.0 95.95 235.05 L89.95 244.1 M393.65 227.5 Q394.5 226.6 392.1 220.2 L394.7 222.0 Q397.45 223.75 398.05 223.75 399.05 223.75 403.15 219.3 402.2 223.45 403.0 225.9 403.45 227.1 404.05 227.5 L407.6 229.7 Q403.3 230.15 400.8 233.5 L399.15 236.8 Q397.3 230.8 396.3 230.8 L389.45 231.25 393.65 227.5 M350.65 260.2 Q353.5 260.75 355.75 260.3 352.05 264.7 352.75 270.35 353.1 273.15 354.2 275.1 L350.4 273.35 Q346.45 271.55 345.8 271.55 345.2 271.55 342.35 275.0 L339.6 278.45 Q340.0 272.75 336.05 268.5 L332.05 265.35 Q337.6 264.0 340.45 259.0 341.9 256.5 342.25 254.3 345.05 259.15 350.65 260.2 M241.9 155.05 L240.85 152.1 240.35 150.85 249.0 150.85 250.55 155.05 251.9 159.95 257.0 155.05 258.8 152.7 Q259.45 151.45 259.95 151.1 261.6 149.95 270.5 150.85 L266.7 155.05 Q265.4 155.9 262.5 159.15 L257.0 165.5 253.45 169.25 254.1 175.9 254.1 186.3 253.7 191.6 243.75 192.85 Q245.05 192.5 244.75 190.6 243.9 187.65 243.9 186.3 L244.35 179.2 237.95 186.3 Q236.65 187.7 236.3 189.05 L235.7 190.55 Q234.65 191.4 222.2 193.6 L228.2 186.3 237.05 175.9 Q240.05 172.35 243.4 170.7 243.95 170.4 243.95 169.6 L243.7 165.5 242.95 160.45 241.9 155.05 M279.8 155.05 Q280.85 152.2 282.55 151.25 283.4 150.75 284.1 150.85 294.25 150.85 300.6 155.05 301.45 156.0 302.2 157.7 303.05 159.55 303.05 160.8 L302.75 163.15 302.15 165.5 Q302.15 169.8 297.0 172.85 292.1 175.7 285.35 175.9 L284.45 175.9 Q281.05 175.9 278.65 178.95 276.25 182.0 276.25 186.3 274.9 189.9 269.1 192.1 L263.6 193.6 266.3 186.3 270.5 175.9 275.15 165.5 Q276.05 162.65 279.8 155.05 M292.85 165.5 Q292.85 162.65 291.65 160.65 290.4 158.6 288.65 158.6 286.9 158.6 285.7 160.65 284.45 162.65 284.45 165.5 L283.35 168.15 Q286.75 168.1 289.6 167.15 291.95 166.4 292.85 165.5 M38.35 175.9 Q38.35 172.1 39.05 169.2 L40.15 165.5 Q40.9 162.75 44.6 158.8 47.3 155.85 48.55 155.05 50.45 153.85 55.8 152.25 L60.95 150.85 Q65.15 150.85 69.7 152.45 73.3 153.7 75.15 155.05 L77.05 157.2 78.9 159.5 Q73.4 162.3 67.85 165.05 67.15 162.4 64.25 161.2 62.3 160.4 60.05 160.4 58.1 160.4 54.85 161.9 51.3 163.55 49.65 165.5 48.7 167.1 47.85 169.65 46.7 172.95 46.55 175.9 46.6 180.7 49.85 183.2 52.4 185.2 55.95 185.2 59.25 185.2 62.5 181.0 L59.6 180.6 Q57.45 180.2 56.95 178.75 L59.85 175.9 62.3 173.25 Q63.8 174.85 67.65 175.4 L73.6 175.9 Q75.55 176.15 76.8 177.05 77.8 177.8 77.8 178.35 77.8 179.35 73.8 184.1 L72.05 183.25 70.05 183.0 Q69.45 183.0 68.95 184.3 L68.05 186.3 Q61.1 193.6 54.3 193.6 50.05 193.6 47.1 192.05 43.9 190.35 41.05 186.3 39.55 184.45 38.8 180.3 38.2 177.1 38.35 175.9 M86.2 186.3 Q84.85 189.9 79.1 192.1 L73.6 193.6 75.15 189.75 76.45 186.3 80.45 175.9 85.1 165.5 89.75 155.05 Q90.7 153.0 92.2 152.2 94.65 150.85 100.4 150.85 L98.6 155.05 94.4 165.5 93.3 168.15 103.05 167.05 Q104.05 167.05 104.35 168.8 L105.9 165.5 111.25 155.05 Q112.2 153.0 113.7 152.2 116.15 150.85 121.85 150.85 L119.9 155.05 115.45 165.5 110.8 175.9 106.8 186.3 Q105.85 188.9 104.15 190.1 101.35 192.05 94.4 192.95 L97.05 186.3 101.05 175.9 101.25 175.45 97.5 175.9 Q92.65 176.45 88.95 181.45 87.1 183.95 86.2 186.3 M130.75 186.3 Q129.35 189.9 123.5 192.1 L117.9 193.6 119.45 189.75 120.75 186.3 122.9 180.8 124.95 175.9 129.6 165.5 132.3 159.95 121.65 160.15 123.4 155.05 124.3 151.95 155.3 150.85 153.55 155.05 Q151.9 158.35 149.75 159.25 L146.0 159.65 Q143.6 159.55 142.3 160.35 140.35 161.6 138.9 165.5 L134.95 175.9 130.75 186.3 M138.15 268.9 Q136.95 271.85 136.95 272.45 136.95 273.45 142.0 277.1 L135.15 276.65 Q134.55 276.65 133.35 279.65 L132.3 282.65 Q131.9 281.05 130.65 279.35 128.15 275.95 123.85 275.55 125.35 274.6 126.65 272.85 129.25 269.3 128.3 265.15 L131.6 266.95 Q135.65 268.25 139.35 266.05 L138.15 268.9 M30.4 259.1 Q33.25 259.6 35.5 259.15 31.75 263.6 32.5 269.25 32.85 272.05 33.95 274.0 L30.1 272.25 Q26.15 270.45 25.5 270.45 24.9 270.45 22.05 273.9 L19.3 277.35 Q19.75 271.65 15.8 267.4 L11.8 264.25 Q17.35 262.9 20.2 257.9 L22.0 253.2 Q24.75 258.05 30.4 259.1 M276.4 258.45 L275.35 256.5 Q283.4 259.0 290.7 254.7 294.35 252.5 296.4 249.85 296.55 258.15 303.0 263.8 306.25 266.65 309.45 267.8 301.4 270.6 298.1 278.35 296.45 282.25 296.4 285.55 L292.7 280.25 Q288.85 274.9 288.2 274.9 287.6 274.9 281.4 276.9 L275.35 278.9 Q280.05 271.95 278.2 263.55 277.6 260.9 276.4 258.45 M233.2 270.2 L231.95 267.35 237.95 270.9 243.0 266.5 242.25 269.45 241.45 273.1 Q241.45 274.1 247.45 276.9 243.15 277.3 240.7 280.65 239.45 282.35 239.05 283.95 L238.0 281.0 Q236.8 278.0 236.15 278.0 L229.3 278.45 Q234.4 274.8 234.4 273.8 234.4 273.2 233.2 270.2" fill="#ffffff" fill-rule="evenodd" stroke="none"/>
    <path d="M435.15 279.75 Q449.05 279.75 458.9 289.6 468.75 299.45 468.75 313.4 468.75 327.35 458.9 337.2 449.05 347.05 435.15 347.05 421.25 347.05 411.4 337.2 401.55 327.35 401.55 313.4 401.55 299.45 411.4 289.6 421.25 279.75 435.15 279.75 M413.2 291.4 Q404.1 300.5 404.1 313.4 404.1 326.3 413.2 335.4 422.3 344.5 435.2 344.5 448.1 344.5 457.2 335.4 466.3 326.3 466.3 313.4 466.3 300.5 457.2 291.4 448.1 282.3 435.2 282.3 422.3 282.3 413.2 291.4 M386.3 288.4 Q384.3 292.7 382.5 299.15 380.1 307.65 380.1 313.9 380.1 336.35 396.3 352.65 412.6 369.05 435.25 369.05 460.45 369.05 476.25 350.65 490.4 334.2 490.4 312.65 490.4 308.7 489.75 304.3 488.9 298.6 487.3 294.85 L494.4 301.9 495.5 313.9 Q495.5 332.1 485.8 347.15 475.75 362.65 458.75 369.4 455.2 370.9 448.8 372.35 441.05 374.1 435.25 374.1 L424.65 373.4 Q416.15 372.25 411.6 369.4 394.9 362.65 384.85 347.15 375.05 331.95 375.05 313.9 376.8 299.45 377.25 297.5 L386.3 288.4 M452.15 313.65 Q452.15 320.65 447.25 325.6 442.3 330.5 435.3 330.5 428.3 330.5 423.4 325.6 418.45 320.65 418.45 313.65 418.45 306.65 423.4 301.75 428.3 296.8 435.3 296.8 442.3 296.8 447.25 301.75 452.15 306.65 452.15 313.65 M435.3 299.3 Q429.4 299.3 425.25 303.5 421.05 307.65 421.05 313.55 421.05 319.45 425.25 323.65 429.4 327.8 435.3 327.8 441.2 327.8 445.4 323.65 449.55 319.45 449.55 313.55 449.55 307.65 445.4 303.5 441.2 299.3 435.3 299.3" fill="#232323" fill-rule="evenodd" stroke="none"/>
    <path d="M413.2 291.4 Q422.3 282.3 435.2 282.3 448.1 282.3 457.2 291.4 466.3 300.5 466.3 313.4 466.3 326.3 457.2 335.4 448.1 344.5 435.2 344.5 422.3 344.5 413.2 335.4 404.1 326.3 404.1 313.4 404.1 300.5 413.2 291.4 M452.15 313.65 Q452.15 306.65 447.25 301.75 442.3 296.8 435.3 296.8 428.3 296.8 423.4 301.75 418.45 306.65 418.45 313.65 418.45 320.65 423.4 325.6 428.3 330.5 435.3 330.5 442.3 330.5 447.25 325.6 452.15 320.65 452.15 313.65" fill="#999999" fill-rule="evenodd" stroke="none"/>
    <path d="M435.15 279.75 Q421.25 279.75 411.4 289.6 401.55 299.45 401.55 313.4 401.55 327.35 411.4 337.2 421.25 347.05 435.15 347.05 449.05 347.05 458.9 337.2 468.75 327.35 468.75 313.4 468.75 299.45 458.9 289.6 449.05 279.75 435.15 279.75 M386.3 288.4 L395.2 279.3 471.8 279.3 487.3 294.85 Q488.9 298.6 489.75 304.3 490.4 308.7 490.4 312.65 490.4 334.2 476.25 350.65 460.45 369.05 435.25 369.05 412.6 369.05 396.3 352.65 380.1 336.35 380.1 313.9 380.1 307.65 382.5 299.15 384.3 292.7 386.3 288.4" fill="#363636" fill-rule="evenodd" stroke="none"/>
    <path d="M435.3 299.3 Q441.2 299.3 445.4 303.5 449.55 307.65 449.55 313.55 449.55 319.45 445.4 323.65 441.2 327.8 435.3 327.8 429.4 327.8 425.25 323.65 421.05 319.45 421.05 313.55 421.05 307.65 425.25 303.5 429.4 299.3 435.3 299.3" fill="#666666" fill-rule="evenodd" stroke="none"/>
  </g>
  <defs>
    <radialGradient cx="0" cy="0" gradientTransform="matrix(0.801, 0.0, 0.0, 0.3731, 303.3, 240.85)" gradientUnits="userSpaceOnUse" id="gradient0" r="819.2" spreadMethod="pad">
      <stop offset="0.0" stop-color="#6bd8ff"/>
      <stop offset="0.5764705882352941" stop-color="#901daf"/>
      <stop offset="1.0" stop-color="#4d0f5d"/>
    </radialGradient>
  </defs>
</svg>
