<?xml version="1.0" encoding="UTF-8" standalone="no"?>
<svg xmlns:ffdec="https://www.free-decompiler.com/flash" xmlns:xlink="http://www.w3.org/1999/xlink" ffdec:objectType="shape" height="76.45px" width="179.5px" xmlns="http://www.w3.org/2000/svg">
  <g transform="matrix(1.0, 0.0, 0.0, 1.0, -366.5, -324.5)">
    <path d="M376.35 341.2 L388.7 341.3 402.4 341.4 415.7 342.8 421.15 343.75 427.5 345.2 Q428.9 345.65 430.0 346.9 L431.85 349.25 Q434.15 352.05 435.3 358.35 L436.7 370.1 Q437.45 377.2 438.55 380.2 440.15 384.5 443.35 384.5 445.55 384.5 445.5 383.35 L445.0 382.05 445.75 349.05 Q445.75 344.25 443.85 341.75 441.9 339.1 437.1 337.9 430.25 336.15 402.6 336.15 L396.5 336.25 Q391.75 335.5 385.05 336.55 377.9 337.65 375.1 339.95 L375.55 340.6 376.35 341.2 M374.9 335.5 L446.05 335.5 Q446.85 342.25 447.35 355.7 447.9 372.35 447.1 383.45 L445.8 388.5 Q445.0 390.65 443.15 391.6 439.35 393.6 421.7 393.6 L398.95 393.4 389.45 393.35 Q385.75 393.35 381.3 390.95 377.0 388.65 376.2 386.45 373.45 379.4 371.65 364.1 370.25 352.3 370.25 345.95 370.25 339.2 374.9 335.5 M420.0 331.55 Q420.0 329.7 419.5 329.5 L395.15 329.5 395.0 332.35 391.0 331.85 391.0 325.5 424.0 325.5 424.0 331.15 420.0 331.55 M402.2 345.65 Q401.6 345.65 401.15 346.1 400.7 346.5 400.7 347.1 400.7 347.7 401.15 348.15 401.6 348.55 402.2 348.55 402.8 348.55 403.25 348.15 403.7 347.7 403.7 347.1 403.7 346.5 403.25 346.1 402.8 345.65 402.2 345.65 M381.25 348.8 Q380.65 349.1 380.1 350.35 379.95 351.2 380.35 351.8 380.7 352.35 381.25 352.35 381.85 352.35 382.25 351.7 L382.75 350.7 382.85 350.1 382.7 348.7 381.25 348.8 M376.2 367.2 L376.85 367.25 Q377.2 367.25 378.15 366.45 L380.0 364.4 Q378.5 363.3 377.95 363.3 375.8 363.3 375.9 366.2 L376.0 367.0 376.2 367.2 M383.6 385.3 Q383.2 385.7 383.2 386.3 383.2 386.9 383.6 387.3 384.0 387.7 384.55 387.7 385.1 387.7 385.5 387.3 385.9 386.9 385.9 386.3 385.9 385.7 385.5 385.3 385.1 384.9 384.55 384.9 384.0 384.9 383.6 385.3 M390.3 374.75 Q390.0 374.45 389.6 374.45 389.2 374.45 388.95 374.75 388.65 375.0 388.65 375.35 388.65 375.7 388.95 376.0 L389.6 376.25 390.3 376.0 390.55 375.35 390.3 374.75 M397.95 386.85 Q395.4 387.1 394.15 388.7 397.2 391.7 398.9 391.25 400.25 390.85 400.25 388.6 400.25 386.85 397.95 386.85 M544.6 383.45 L543.3 388.5 Q542.5 390.65 540.65 391.6 536.85 393.6 519.2 393.6 L496.45 393.4 486.95 393.35 Q483.25 393.35 478.8 390.95 474.5 388.65 473.7 386.45 470.95 379.4 469.15 364.1 467.75 352.3 467.75 345.95 467.75 339.2 472.4 335.5 L543.55 335.5 Q544.35 342.25 544.85 355.7 545.4 372.35 544.6 383.45 M472.6 339.95 L473.05 340.6 473.85 341.2 486.2 341.3 499.9 341.4 513.2 342.8 518.65 343.75 525.0 345.2 Q526.4 345.65 527.5 346.9 L529.35 349.25 Q531.65 352.05 532.8 358.35 L534.2 370.1 Q534.95 377.2 536.05 380.2 537.65 384.5 540.85 384.5 543.05 384.5 543.0 383.35 L542.5 382.05 543.25 349.05 Q543.25 344.25 541.35 341.75 539.4 339.1 534.6 337.9 527.75 336.15 500.1 336.15 L494.0 336.25 Q489.25 335.5 482.55 336.55 475.4 337.65 472.6 339.95 M426.35 356.25 L426.75 355.0 Q426.6 354.55 425.25 354.45 L424.4 354.55 Q424.15 354.7 424.15 355.35 L424.25 356.3 Q424.55 357.2 425.5 357.5 L426.35 356.25 M432.3 368.3 Q432.0 367.9 431.6 367.9 431.2 367.9 430.9 368.3 430.6 368.7 430.6 369.25 430.6 369.8 430.9 370.2 431.2 370.6 431.6 370.6 L432.3 370.2 432.6 369.25 432.3 368.3 M420.8 362.1 Q419.85 362.1 419.2 362.9 418.5 363.65 418.5 364.75 418.5 365.85 419.2 366.65 419.85 367.4 420.8 367.4 421.75 367.4 422.45 366.65 423.1 365.85 423.1 364.75 423.1 363.65 422.45 362.9 421.75 362.1 420.8 362.1 M409.55 383.6 Q409.2 383.25 408.75 383.25 408.3 383.25 408.0 383.6 407.65 383.9 407.65 384.35 407.65 384.8 408.0 385.15 408.3 385.45 408.75 385.45 L409.55 385.15 409.85 384.35 409.55 383.6 M477.6 350.35 Q477.45 351.2 477.85 351.8 L478.75 352.35 Q479.35 352.35 479.75 351.7 L480.25 350.7 480.35 350.1 480.2 348.7 478.75 348.8 Q478.15 349.1 477.6 350.35 M473.7 367.2 L474.35 367.25 Q474.7 367.25 475.65 366.45 L477.5 364.4 Q476.0 363.3 475.45 363.3 473.3 363.3 473.4 366.2 L473.5 367.0 473.7 367.2 M482.05 384.9 Q481.5 384.9 481.1 385.3 480.7 385.7 480.7 386.3 480.7 386.9 481.1 387.3 481.5 387.7 482.05 387.7 482.6 387.7 483.0 387.3 483.4 386.9 483.4 386.3 483.4 385.7 483.0 385.3 482.6 384.9 482.05 384.9 M492.5 332.35 L488.5 331.85 488.5 325.5 521.5 325.5 521.5 331.15 517.5 331.55 Q517.5 329.7 517.0 329.5 L492.65 329.5 492.5 332.35 M499.7 345.65 Q499.1 345.65 498.65 346.1 498.2 346.5 498.2 347.1 498.2 347.7 498.65 348.15 499.1 348.55 499.7 348.55 500.3 348.55 500.75 348.15 L501.2 347.1 Q501.2 346.5 500.75 346.1 500.3 345.65 499.7 345.65 M523.85 356.25 L524.25 355.0 Q524.1 354.55 522.75 354.45 L521.9 354.55 Q521.65 354.7 521.65 355.35 L521.75 356.3 Q522.05 357.2 523.0 357.5 L523.85 356.25 M516.7 362.9 Q516.0 363.65 516.0 364.75 516.0 365.85 516.7 366.65 517.35 367.4 518.3 367.4 519.25 367.4 519.95 366.65 520.6 365.85 520.6 364.75 520.6 363.65 519.95 362.9 519.25 362.1 518.3 362.1 517.35 362.1 516.7 362.9 M487.1 376.25 L487.8 376.0 488.05 375.35 487.8 374.75 Q487.5 374.45 487.1 374.45 486.7 374.45 486.45 374.75 486.15 375.0 486.15 375.35 486.15 375.7 486.45 376.0 L487.1 376.25 M491.65 388.7 Q494.7 391.7 496.4 391.25 497.75 390.85 497.75 388.6 497.75 386.85 495.45 386.85 492.9 387.1 491.65 388.7 M505.5 385.15 Q505.8 385.45 506.25 385.45 L507.05 385.15 507.35 384.35 507.05 383.6 Q506.7 383.25 506.25 383.25 505.8 383.25 505.5 383.6 505.15 383.9 505.15 384.35 505.15 384.8 505.5 385.15 M529.8 368.3 Q529.5 367.9 529.1 367.9 528.7 367.9 528.4 368.3 528.1 368.7 528.1 369.25 528.1 369.8 528.4 370.2 L529.1 370.6 Q529.5 370.6 529.8 370.2 L530.1 369.25 529.8 368.3" fill="#6c3a1c" fill-rule="evenodd" stroke="none"/>
    <path d="M368.05 334.8 L367.9 334.65 368.5 334.5 390.0 334.5 390.1 326.0 Q390.2 324.65 390.5 324.5 L424.5 324.5 424.7 324.6 425.0 325.0 425.0 334.5 446.5 334.5 447.0 334.95 448.5 366.5 447.0 399.55 446.55 400.0 423.8 400.65 407.55 400.95 Q378.3 400.45 368.5 400.0 L368.0 399.55 Q366.5 381.9 366.5 367.5 L366.75 358.0 367.4 343.15 368.05 334.8 M374.9 335.5 L368.95 335.5 Q368.1 347.4 367.6 360.05 L368.0 399.05 404.45 400.0 416.7 399.9 446.05 399.3 447.1 383.45 Q447.9 372.35 447.35 355.7 446.85 342.25 446.05 335.5 L374.9 335.5 M395.0 332.35 L395.15 329.5 419.5 329.5 Q420.0 329.7 420.0 331.55 L420.0 334.5 424.0 334.5 424.0 331.15 424.0 325.5 391.0 325.5 391.0 331.85 391.0 334.5 395.0 334.5 395.0 332.35 M396.0 334.5 L419.0 334.5 419.0 330.5 396.0 330.5 396.0 334.5 M465.55 334.8 L465.4 334.65 Q465.4 334.5 466.0 334.5 L487.5 334.5 487.6 326.0 Q487.7 324.65 488.0 324.5 L522.0 324.5 522.2 324.6 522.5 325.0 522.5 334.5 544.0 334.5 544.5 334.95 546.0 366.5 544.5 399.55 544.05 400.0 521.3 400.65 505.05 400.95 Q475.8 400.45 466.0 400.0 L465.5 399.55 Q464.0 381.9 464.0 367.5 L464.25 358.0 Q464.6 348.4 464.9 343.15 L465.55 334.8 M472.4 335.5 L466.45 335.5 Q465.6 347.4 465.1 360.05 L465.5 399.05 501.95 400.0 514.2 399.9 543.55 399.3 544.6 383.45 Q545.4 372.35 544.85 355.7 544.35 342.25 543.55 335.5 L472.4 335.5 M492.5 332.35 L492.65 329.5 517.0 329.5 Q517.5 329.7 517.5 331.55 L517.5 334.5 521.5 334.5 521.5 331.15 521.5 325.5 488.5 325.5 488.5 331.85 488.5 334.5 492.5 334.5 492.5 332.35 M493.5 334.5 L516.5 334.5 516.5 330.5 493.5 330.5 493.5 334.5" fill="#331c0d" fill-rule="evenodd" stroke="none"/>
    <path d="M447.1 383.45 L446.05 399.3 416.7 399.9 404.45 400.0 368.0 399.05 367.6 360.05 Q368.1 347.4 368.95 335.5 L374.9 335.5 Q370.25 339.2 370.25 345.95 370.25 352.3 371.65 364.1 373.45 379.4 376.2 386.45 377.0 388.65 381.3 390.95 385.75 393.35 389.45 393.35 L398.95 393.4 421.7 393.6 Q439.35 393.6 443.15 391.6 445.0 390.65 445.8 388.5 L447.1 383.45 M420.0 331.55 L424.0 331.15 424.0 334.5 420.0 334.5 420.0 331.55 M391.0 331.85 L395.0 332.35 395.0 334.5 391.0 334.5 391.0 331.85 M397.95 386.85 Q400.25 386.85 400.25 388.6 400.25 390.85 398.9 391.25 397.2 391.7 394.15 388.7 395.4 387.1 397.95 386.85 M390.3 374.75 L390.55 375.35 390.3 376.0 389.6 376.25 388.95 376.0 Q388.65 375.7 388.65 375.35 388.65 375.0 388.95 374.75 389.2 374.45 389.6 374.45 390.0 374.45 390.3 374.75 M383.6 385.3 Q384.0 384.9 384.55 384.9 385.1 384.9 385.5 385.3 385.9 385.7 385.9 386.3 385.9 386.9 385.5 387.3 385.1 387.7 384.55 387.7 384.0 387.7 383.6 387.3 383.2 386.9 383.2 386.3 383.2 385.7 383.6 385.3 M376.2 367.2 L376.0 367.0 375.9 366.2 Q375.8 363.3 377.95 363.3 378.5 363.3 380.0 364.4 L378.15 366.45 Q377.2 367.25 376.85 367.25 L376.2 367.2 M544.6 383.45 L543.55 399.3 514.2 399.9 501.95 400.0 465.5 399.05 465.1 360.05 Q465.6 347.4 466.45 335.5 L472.4 335.5 Q467.75 339.2 467.75 345.95 467.75 352.3 469.15 364.1 470.95 379.4 473.7 386.45 474.5 388.65 478.8 390.95 483.25 393.35 486.95 393.35 L496.45 393.4 519.2 393.6 Q536.85 393.6 540.65 391.6 542.5 390.65 543.3 388.5 L544.6 383.45 M409.55 383.6 L409.85 384.35 409.55 385.15 408.75 385.45 Q408.3 385.45 408.0 385.15 407.65 384.8 407.65 384.35 407.65 383.9 408.0 383.6 408.3 383.25 408.75 383.25 409.2 383.25 409.55 383.6 M482.05 384.9 Q482.6 384.9 483.0 385.3 483.4 385.7 483.4 386.3 483.4 386.9 483.0 387.3 482.6 387.7 482.05 387.7 481.5 387.7 481.1 387.3 480.7 386.9 480.7 386.3 480.7 385.7 481.1 385.3 481.5 384.9 482.05 384.9 M473.7 367.2 L473.5 367.0 473.4 366.2 Q473.3 363.3 475.45 363.3 476.0 363.3 477.5 364.4 L475.65 366.45 Q474.7 367.25 474.35 367.25 L473.7 367.2 M488.5 331.85 L492.5 332.35 492.5 334.5 488.5 334.5 488.5 331.85 M517.5 331.55 L521.5 331.15 521.5 334.5 517.5 334.5 517.5 331.55 M505.5 385.15 Q505.15 384.8 505.15 384.35 505.15 383.9 505.5 383.6 505.8 383.25 506.25 383.25 506.7 383.25 507.05 383.6 L507.35 384.35 507.05 385.15 506.25 385.45 Q505.8 385.45 505.5 385.15 M491.65 388.7 Q492.9 387.1 495.45 386.85 497.75 386.85 497.75 388.6 497.75 390.85 496.4 391.25 494.7 391.7 491.65 388.7 M487.1 376.25 L486.45 376.0 Q486.15 375.7 486.15 375.35 486.15 375.0 486.45 374.75 486.7 374.45 487.1 374.45 487.5 374.45 487.8 374.75 L488.05 375.35 487.8 376.0 487.1 376.25" fill="#593017" fill-rule="evenodd" stroke="none"/>
    <path d="M376.35 341.2 L375.55 340.6 375.1 339.95 Q377.9 337.65 385.05 336.55 391.75 335.5 396.5 336.25 L402.6 336.15 Q430.25 336.15 437.1 337.9 441.9 339.1 443.85 341.75 445.75 344.25 445.75 349.05 L445.0 382.05 445.5 383.35 Q445.55 384.5 443.35 384.5 440.15 384.5 438.55 380.2 437.45 377.2 436.7 370.1 L435.3 358.35 Q434.15 352.05 431.85 349.25 L430.0 346.9 Q428.9 345.65 427.5 345.2 L421.15 343.75 415.7 342.8 402.4 341.4 388.7 341.3 376.35 341.2 M402.2 345.65 Q402.8 345.65 403.25 346.1 403.7 346.5 403.7 347.1 403.7 347.7 403.25 348.15 402.8 348.55 402.2 348.55 401.6 348.55 401.15 348.15 400.7 347.7 400.7 347.1 400.7 346.5 401.15 346.1 401.6 345.65 402.2 345.65 M381.25 348.8 L382.7 348.7 382.85 350.1 382.75 350.7 382.25 351.7 Q381.85 352.35 381.25 352.35 380.7 352.35 380.35 351.8 379.95 351.2 380.1 350.35 380.65 349.1 381.25 348.8 M472.6 339.95 Q475.4 337.65 482.55 336.55 489.25 335.5 494.0 336.25 L500.1 336.15 Q527.75 336.15 534.6 337.9 539.4 339.1 541.35 341.75 543.25 344.25 543.25 349.05 L542.5 382.05 543.0 383.35 Q543.05 384.5 540.85 384.5 537.65 384.5 536.05 380.2 534.95 377.2 534.2 370.1 L532.8 358.35 Q531.65 352.05 529.35 349.25 L527.5 346.9 Q526.4 345.65 525.0 345.2 L518.65 343.75 513.2 342.8 499.9 341.4 486.2 341.3 473.85 341.2 473.05 340.6 472.6 339.95 M420.8 362.1 Q421.75 362.1 422.45 362.9 423.1 363.65 423.1 364.75 423.1 365.85 422.45 366.65 421.75 367.4 420.8 367.4 419.85 367.4 419.2 366.65 418.5 365.85 418.5 364.75 418.5 363.65 419.2 362.9 419.85 362.1 420.8 362.1 M432.3 368.3 L432.6 369.25 432.3 370.2 431.6 370.6 Q431.2 370.6 430.9 370.2 430.6 369.8 430.6 369.25 430.6 368.7 430.9 368.3 431.2 367.9 431.6 367.9 432.0 367.9 432.3 368.3 M426.35 356.25 L425.5 357.5 Q424.55 357.2 424.25 356.3 L424.15 355.35 Q424.15 354.7 424.4 354.55 L425.25 354.45 Q426.6 354.55 426.75 355.0 L426.35 356.25 M477.6 350.35 Q478.15 349.1 478.75 348.8 L480.2 348.7 480.35 350.1 480.25 350.7 479.75 351.7 Q479.35 352.35 478.75 352.35 L477.85 351.8 Q477.45 351.2 477.6 350.35 M499.7 345.65 Q500.3 345.65 500.75 346.1 501.2 346.5 501.2 347.1 L500.75 348.15 Q500.3 348.55 499.7 348.55 499.1 348.55 498.65 348.15 498.2 347.7 498.2 347.1 498.2 346.5 498.65 346.1 499.1 345.65 499.7 345.65 M516.7 362.9 Q517.35 362.1 518.3 362.1 519.25 362.1 519.95 362.9 520.6 363.65 520.6 364.75 520.6 365.85 519.95 366.65 519.25 367.4 518.3 367.4 517.35 367.4 516.7 366.65 516.0 365.85 516.0 364.75 516.0 363.65 516.7 362.9 M523.85 356.25 L523.0 357.5 Q522.05 357.2 521.75 356.3 L521.65 355.35 Q521.65 354.7 521.9 354.55 L522.75 354.45 Q524.1 354.55 524.25 355.0 L523.85 356.25 M529.8 368.3 L530.1 369.25 529.8 370.2 Q529.5 370.6 529.1 370.6 L528.4 370.2 Q528.1 369.8 528.1 369.25 528.1 368.7 528.4 368.3 528.7 367.9 529.1 367.9 529.5 367.9 529.8 368.3" fill="#8c4b24" fill-rule="evenodd" stroke="none"/>
  </g>
</svg>
