<?xml version="1.0" encoding="UTF-8" standalone="no"?>
<svg xmlns:ffdec="https://www.free-decompiler.com/flash" xmlns:xlink="http://www.w3.org/1999/xlink" ffdec:objectType="shape" height="167.5px" width="76.25px" xmlns="http://www.w3.org/2000/svg">
  <g transform="matrix(1.0, 0.0, 0.0, 1.0, -44.4, -38.25)">
    <path d="M114.95 47.5 Q115.65 52.55 115.65 57.0 115.65 65.2 114.65 81.7 L117.95 82.65 Q119.85 83.35 120.35 84.15 120.65 84.6 120.65 86.1 110.2 107.05 99.8 131.7 78.9 180.95 78.9 200.5 78.9 201.9 77.65 203.55 75.95 205.75 73.15 205.75 67.6 205.75 66.45 201.15 66.1 199.7 66.2 197.9 L66.4 196.25 Q66.4 194.4 66.8 191.8 L66.65 189.0 66.65 174.0 Q66.65 134.85 69.4 100.0 L70.4 100.0 Q73.3 128.45 73.6 166.95 77.8 154.6 84.4 137.75 98.9 100.8 104.65 89.75 L96.9 88.0 58.15 87.5 Q49.95 88.85 46.55 86.9 44.4 85.65 44.4 83.5 44.4 81.0 47.8 79.3 L50.2 78.4 49.65 76.9 48.9 72.0 Q48.9 69.65 49.45 65.1 50.15 59.65 51.15 55.75 L52.65 55.75 55.35 67.25 Q57.4 75.95 57.4 77.5 L58.15 77.5 89.45 77.5 89.4 74.35 Q89.4 70.2 90.9 62.85 92.4 55.55 92.4 50.0 L93.4 50.0 Q95.9 61.25 95.9 64.6 L95.35 72.6 95.0 77.5 98.15 77.5 107.65 79.85 Q107.7 65.05 108.1 59.6 109.05 46.15 112.65 38.25 114.1 41.6 114.95 47.5" fill="#ff5b5b" fill-rule="evenodd" stroke="none"/>
  </g>
</svg>
