<?xml version="1.0" encoding="UTF-8" standalone="no"?>
<svg xmlns:ffdec="https://www.free-decompiler.com/flash" xmlns:xlink="http://www.w3.org/1999/xlink" ffdec:objectType="shape" height="241.05px" width="115.45px" xmlns="http://www.w3.org/2000/svg">
  <g transform="matrix(1.0, 0.0, 0.0, 1.0, -23.75, 0.65)">
    <path d="M71.0 148.5 L72.5 148.5 Q72.75 150.0 74.2 180.75 L75.45 208.05 Q78.3 207.85 81.75 211.25 84.35 215.7 87.45 229.2 L89.7 240.4 79.2 240.4 78.85 237.85 78.8 237.85 Q77.05 238.75 73.5 238.75 L71.4 238.7 71.5 240.4 64.5 240.4 64.5 239.0 Q64.5 228.95 67.7 218.4 68.7 215.15 69.85 212.95 L69.5 209.9 Q68.75 202.05 68.75 195.25 69.25 164.5 71.0 148.5 M130.25 193.0 L136.9 228.05 139.2 240.4 131.05 240.4 130.8 238.2 130.55 233.75 126.0 236.8 125.2 237.3 127.3 240.4 101.8 240.4 102.0 235.7 Q102.45 226.55 102.25 222.0 L102.25 221.1 Q101.5 220.4 101.5 219.75 101.5 218.8 103.05 217.9 103.7 216.6 104.95 215.55 L105.45 215.2 Q106.55 189.45 110.5 170.25 111.4 181.4 111.0 213.35 L111.0 215.6 118.15 215.25 Q125.25 215.6 129.55 218.45 L128.75 205.35 129.1 199.65 129.25 193.0 130.25 193.0 M111.45 233.1 Q113.05 232.2 115.25 231.25 125.85 226.65 127.5 225.25 124.7 223.85 115.5 223.4 L111.25 223.3 111.5 230.35 111.45 233.1 M75.75 220.1 Q75.75 221.5 75.3 222.15 L74.5 223.0 Q72.95 228.15 72.3 231.0 75.25 231.05 78.15 232.45 76.75 222.6 75.75 219.0 L75.75 219.05 75.75 220.1 M55.35 218.2 Q60.75 221.35 60.75 225.85 60.75 226.65 59.55 228.4 58.05 230.5 57.5 232.25 59.95 233.7 60.55 235.65 60.75 236.35 60.75 239.0 L60.65 240.4 50.6 240.4 53.25 239.25 Q52.0 237.95 46.35 235.6 42.25 233.9 42.25 230.75 42.25 230.0 42.95 229.85 L44.9 229.65 Q48.3 229.2 51.0 225.25 47.3 221.7 40.9 221.9 L32.25 222.7 32.25 224.0 33.15 234.3 33.5 240.4 24.55 240.4 24.5 240.0 23.75 225.0 Q23.75 223.55 25.05 220.75 L25.8 219.35 Q26.35 209.2 27.0 202.75 L28.5 202.75 29.75 215.45 31.65 214.85 43.5 214.5 Q50.65 215.4 55.35 218.2" fill="#666666" fill-rule="evenodd" stroke="none"/>
    <path d="M111.45 -0.65 L112.3 10.9 112.75 20.65 112.05 44.45 111.7 67.15 Q113.75 71.65 113.75 76.65 113.75 80.5 113.55 81.75 112.9 85.7 110.25 88.65 102.5 97.4 78.25 97.4 62.1 97.4 57.25 88.95 L57.2 88.85 Q56.1 92.65 54.75 92.65 51.85 92.65 51.25 87.65 L51.25 82.4 Q51.25 76.9 52.95 56.35 L54.75 34.15 56.25 34.15 Q58.55 49.75 59.0 56.5 L59.25 65.55 Q61.15 61.95 64.15 58.35 L70.05 51.75 Q72.75 48.75 72.75 47.65 72.75 46.45 69.8 43.05 L63.25 35.55 Q53.75 23.55 53.75 11.65 53.75 9.05 56.85 5.3 L56.6 -0.65 81.35 -0.65 Q75.45 1.95 71.75 5.65 67.25 10.1 67.25 14.65 67.25 19.35 71.05 25.4 73.7 29.5 81.25 38.65 91.2 29.8 94.7 24.7 98.75 18.8 98.75 12.0 98.75 4.2 96.95 0.85 L95.95 -0.65 107.35 -0.65 Q108.35 3.15 108.65 8.0 L109.65 -0.65 111.45 -0.65 M104.6 28.2 Q101.65 32.85 89.0 45.9 98.75 52.15 104.35 57.45 104.7 48.85 106.85 26.15 L107.2 22.75 Q106.2 25.7 104.6 28.2 M101.8 82.2 Q103.75 80.8 103.75 77.25 103.75 73.25 102.5 70.9 101.4 68.8 98.55 66.75 89.15 61.3 80.75 54.65 L69.5 68.15 Q66.0 72.95 66.0 79.25 66.0 82.4 66.25 83.1 66.95 84.9 70.0 86.4 L86.5 86.4 Q98.45 84.65 101.8 82.2" fill="#5eabd5" fill-rule="evenodd" stroke="none"/>
  </g>
</svg>
