<?xml version="1.0" encoding="UTF-8" standalone="no"?>
<svg xmlns:ffdec="https://www.free-decompiler.com/flash" xmlns:xlink="http://www.w3.org/1999/xlink" ffdec:objectType="shape" height="241.05px" width="128.8px" xmlns="http://www.w3.org/2000/svg">
  <g transform="matrix(1.0, 0.0, 0.0, 1.0, -18.6, 0.65)">
    <path d="M30.9 136.65 Q35.1 148.9 35.45 166.7 L35.4 197.15 36.2 207.2 Q37.85 207.7 39.65 209.15 46.65 218.85 52.15 228.9 L54.0 232.35 54.15 222.35 54.4 207.9 53.4 197.95 52.4 188.0 Q52.4 186.65 52.65 185.2 L52.9 183.15 54.4 182.9 Q58.65 193.7 59.6 206.2 59.9 210.35 59.9 229.0 L59.65 240.4 18.6 240.4 20.3 236.35 Q23.2 229.05 24.4 223.4 26.35 213.8 29.4 209.75 28.6 195.6 28.4 172.65 L29.15 136.9 30.9 136.65 M78.15 170.15 L79.15 170.15 Q82.55 201.15 83.35 211.85 86.1 209.15 88.4 209.15 95.65 209.15 100.3 224.2 L103.65 236.85 104.6 240.4 67.3 240.4 67.5 239.95 73.9 226.4 Q75.85 222.55 77.65 219.55 L77.35 213.45 76.9 204.15 Q76.9 201.15 77.25 190.55 77.65 177.65 78.15 170.15 M111.15 127.15 Q117.85 185.15 119.85 204.85 L122.6 234.15 Q130.95 227.55 138.9 223.15 L143.9 223.15 Q146.55 223.85 147.2 226.6 147.4 227.5 147.4 230.75 L146.25 240.4 115.1 240.4 Q114.4 221.05 113.65 213.65 L110.05 181.0 Q107.15 153.0 107.15 142.8 107.15 130.35 111.15 127.15" fill="#f7b675" fill-rule="evenodd" stroke="none"/>
    <path d="M75.1 -0.65 L75.45 8.05 Q78.3 7.85 81.75 11.25 84.35 15.7 87.45 29.2 90.5 42.55 90.5 49.1 90.5 52.95 88.85 54.5 L105.05 54.5 Q102.25 53.7 101.55 50.35 L101.5 45.6 102.0 35.7 Q102.45 26.55 102.25 22.0 L102.25 21.1 Q101.5 20.4 101.5 19.75 101.5 18.8 103.05 17.9 103.7 16.6 104.95 15.55 L105.45 15.2 Q105.8 6.95 106.45 -0.65 L111.15 -0.65 111.0 13.35 111.0 15.6 118.15 15.25 Q125.25 15.6 129.55 18.45 L128.75 5.35 129.1 -0.35 129.15 -0.65 131.45 -0.65 136.9 28.05 Q140.15 45.2 141.55 55.15 L142.4 55.5 141.6 55.5 141.8 57.25 Q144.05 59.75 144.05 64.5 L144.05 85.5 Q144.05 95.5 134.05 95.5 L31.0 95.5 Q21.0 95.5 21.0 85.5 L21.0 64.5 Q21.0 57.65 25.7 55.5 L28.75 55.5 Q27.3 55.2 26.25 51.4 25.55 49.35 25.25 46.55 L25.2 46.15 24.5 40.0 23.75 25.0 Q23.75 23.55 25.05 20.75 L25.8 19.35 Q26.35 9.2 27.0 2.75 L28.5 2.75 29.75 15.45 31.65 14.85 43.5 14.5 Q50.65 15.4 55.35 18.2 60.75 21.35 60.75 25.85 60.75 26.65 59.55 28.4 58.05 30.5 57.5 32.25 59.95 33.7 60.55 35.65 60.75 36.35 60.75 39.0 60.75 43.5 56.75 46.5 50.65 51.0 36.5 51.0 34.55 51.0 33.45 50.15 L33.3 50.75 32.5 53.25 31.8 54.35 31.75 54.35 31.4 54.7 34.0 54.5 83.85 54.5 Q81.0 51.7 79.25 41.0 L78.85 37.85 78.8 37.85 Q77.05 38.75 73.5 38.75 L71.4 38.7 Q71.45 43.0 73.0 46.0 L72.5 48.25 71.5 48.75 69.0 49.25 Q65.25 49.25 64.5 44.25 L64.5 39.0 Q64.5 28.95 67.7 18.4 68.7 15.15 69.85 12.95 L69.5 9.9 Q68.95 4.35 68.85 -0.65 L75.1 -0.65 M128.35 42.25 Q130.75 46.9 130.75 50.35 130.75 52.2 129.55 53.75 L128.85 54.5 132.8 54.5 Q131.7 47.75 130.8 38.2 L130.55 33.75 126.0 36.8 125.2 37.3 Q126.9 39.5 128.35 42.25 M111.25 23.3 L111.5 30.35 111.45 33.1 Q113.05 32.2 115.25 31.25 125.85 26.65 127.5 25.25 124.7 23.85 115.5 23.4 L111.25 23.3 M116.6 41.5 L112.5 42.25 111.55 42.25 Q112.0 49.05 112.7 54.5 L124.0 54.5 Q121.85 52.55 119.05 46.75 L116.6 41.5 M75.75 20.1 Q75.75 21.5 75.3 22.15 L74.5 23.0 Q72.95 28.15 72.3 31.0 75.25 31.05 78.15 32.45 76.75 22.6 75.75 19.0 L75.75 19.05 75.75 20.1 M46.35 35.6 Q42.25 33.9 42.25 30.75 42.25 30.0 42.95 29.85 L44.9 29.65 Q48.3 29.2 51.0 25.25 47.3 21.7 40.9 21.9 L32.25 22.7 32.25 24.0 33.15 34.3 33.5 42.0 33.5 44.25 33.65 44.15 Q34.75 43.6 38.15 43.25 47.5 42.1 53.25 39.25 52.0 37.95 46.35 35.6" fill="#666666" fill-rule="evenodd" stroke="none"/>
  </g>
</svg>
