<?xml version="1.0" encoding="UTF-8" standalone="no"?>
<svg xmlns:ffdec="https://www.free-decompiler.com/flash" xmlns:xlink="http://www.w3.org/1999/xlink" ffdec:objectType="shape" height="190.75px" width="125.1px" xmlns="http://www.w3.org/2000/svg">
  <g transform="matrix(1.0, 0.0, 0.0, 1.0, -19.95, -25.15)">
    <path d="M124.2 46.15 Q129.55 57.3 132.9 71.25 135.9 83.9 136.7 96.4 L138.3 113.1 140.85 117.05 Q144.95 124.7 144.95 138.75 L145.05 144.65 Q144.7 150.0 142.45 154.15 135.55 166.9 112.2 166.9 102.2 166.9 98.35 165.35 L98.45 166.65 97.55 175.35 Q96.35 184.45 94.45 192.15 88.65 215.9 79.2 215.9 75.2 215.9 73.7 213.15 72.95 211.85 72.95 210.15 72.95 209.45 77.95 199.6 82.95 189.75 82.95 183.15 82.95 180.15 83.45 174.15 L83.6 172.3 Q72.4 181.9 54.7 181.9 37.0 181.9 27.5 168.9 19.95 158.65 19.95 145.25 19.95 139.9 20.9 136.9 21.25 135.85 21.75 134.9 L21.7 127.4 22.5 105.3 Q23.4 83.2 24.2 70.65 L25.7 70.4 Q29.2 98.3 29.5 102.4 29.7 105.6 29.7 127.15 36.3 123.35 48.65 119.85 L47.65 119.2 Q39.1 113.45 37.95 108.4 37.25 105.15 37.15 99.35 L37.2 92.25 Q37.2 85.55 45.4 77.65 45.85 68.8 47.3 57.3 49.4 41.1 51.95 31.65 L52.95 31.65 52.9 34.75 52.7 38.0 Q52.7 39.25 53.85 43.45 54.95 47.65 54.95 48.9 L53.25 71.25 Q61.65 65.35 71.35 62.65 83.3 59.3 91.55 62.85 92.0 30.55 95.2 25.15 97.55 30.6 97.85 40.15 L97.95 55.15 97.95 67.3 Q104.7 74.25 105.4 88.7 107.55 94.7 106.7 101.9 L109.75 101.85 109.7 101.15 Q109.7 90.85 109.9 88.35 110.55 80.35 113.2 76.15 114.35 80.05 115.85 102.15 122.95 102.9 128.35 105.4 L126.05 81.05 Q124.3 63.05 122.45 54.15 L122.45 46.15 124.2 46.15 M84.0 72.9 L82.7 72.9 82.85 73.05 84.0 72.9" fill="#8bd260" fill-rule="evenodd" stroke="none"/>
  </g>
</svg>
