<?xml version="1.0" encoding="UTF-8" standalone="no"?>
<svg xmlns:ffdec="https://www.free-decompiler.com/flash" xmlns:xlink="http://www.w3.org/1999/xlink" ffdec:objectType="shape" height="147.0px" width="123.05px" xmlns="http://www.w3.org/2000/svg">
  <g transform="matrix(1.0, 0.0, 0.0, 1.0, -21.0, -48.5)">
    <path d="M130.25 93.0 L136.9 128.05 Q140.15 145.2 141.55 155.15 L142.4 155.5 141.6 155.5 141.8 157.25 Q144.05 159.75 144.05 164.5 L144.05 185.5 Q144.05 195.5 134.05 195.5 L31.0 195.5 Q21.0 195.5 21.0 185.5 L21.0 164.5 Q21.0 157.65 25.7 155.5 L28.75 155.5 Q27.3 155.2 26.25 151.4 25.55 149.35 25.25 146.55 L25.2 146.15 24.5 140.0 23.75 125.0 Q23.75 123.55 25.05 120.75 L25.8 119.35 Q26.35 109.2 27.0 102.75 L28.5 102.75 29.75 115.45 31.65 114.85 43.5 114.5 Q50.65 115.4 55.35 118.2 60.75 121.35 60.75 125.85 60.75 126.65 59.55 128.4 58.05 130.5 57.5 132.25 59.95 133.7 60.55 135.65 60.75 136.35 60.75 139.0 60.75 143.5 56.75 146.5 50.65 151.0 36.5 151.0 34.55 151.0 33.45 150.15 L33.3 150.75 32.5 153.25 31.8 154.35 31.75 154.35 31.4 154.7 34.0 154.5 83.85 154.5 Q81.0 151.7 79.25 141.0 L78.85 137.85 78.8 137.85 Q77.05 138.75 73.5 138.75 L71.4 138.7 Q71.45 143.0 73.0 146.0 L72.5 148.25 71.5 148.75 69.0 149.25 Q65.25 149.25 64.5 144.25 L64.5 139.0 Q64.5 128.95 67.7 118.4 68.7 115.15 69.85 112.95 L69.5 109.9 Q68.75 102.05 68.75 95.25 69.25 64.5 71.0 48.5 L72.5 48.5 Q72.75 50.0 74.2 80.75 L75.45 108.05 Q78.3 107.85 81.75 111.25 84.35 115.7 87.45 129.2 90.5 142.55 90.5 149.1 90.5 152.95 88.85 154.5 L105.05 154.5 Q102.25 153.7 101.55 150.35 L101.5 145.6 102.0 135.7 Q102.45 126.55 102.25 122.0 L102.25 121.1 Q101.5 120.4 101.5 119.75 101.5 118.8 103.05 117.9 103.7 116.6 104.95 115.55 L105.45 115.2 Q106.55 89.45 110.5 70.25 111.4 81.4 111.0 113.35 L111.0 115.6 118.15 115.25 Q125.25 115.6 129.55 118.45 L128.75 105.35 129.1 99.65 129.25 93.0 130.25 93.0 M75.75 120.1 Q75.75 121.5 75.3 122.15 L74.5 123.0 Q72.95 128.15 72.3 131.0 75.25 131.05 78.15 132.45 76.75 122.6 75.75 119.0 L75.75 119.05 75.75 120.1 M42.95 129.85 L44.9 129.65 Q48.3 129.2 51.0 125.25 47.3 121.7 40.9 121.9 L32.25 122.7 32.25 124.0 33.15 134.3 33.5 142.0 33.5 144.25 33.65 144.15 Q34.75 143.6 38.15 143.25 47.5 142.1 53.25 139.25 52.0 137.95 46.35 135.6 42.25 133.9 42.25 130.75 42.25 130.0 42.95 129.85 M126.0 136.8 L125.2 137.3 Q126.9 139.5 128.35 142.25 130.75 146.9 130.75 150.35 130.75 152.2 129.55 153.75 L128.85 154.5 132.8 154.5 Q131.7 147.75 130.8 138.2 L130.55 133.75 126.0 136.8 M111.25 123.3 L111.5 130.35 111.45 133.1 Q113.05 132.2 115.25 131.25 125.85 126.65 127.5 125.25 124.7 123.85 115.5 123.4 L111.25 123.3 M116.6 141.5 L112.5 142.25 111.55 142.25 Q112.0 149.05 112.7 154.5 L124.0 154.5 Q121.85 152.55 119.05 146.75 L116.6 141.5" fill="#666666" fill-rule="evenodd" stroke="none"/>
  </g>
</svg>
