<?xml version="1.0" encoding="UTF-8" standalone="no"?>
<svg xmlns:ffdec="https://www.free-decompiler.com/flash" xmlns:xlink="http://www.w3.org/1999/xlink" ffdec:objectType="shape" height="56.1px" width="77.85px" xmlns="http://www.w3.org/2000/svg">
  <g transform="matrix(1.0, 0.0, 0.0, 1.0, 35.1, 18.8)">
    <path d="M5.35 -7.4 L5.4 2.45 1.65 2.15 1.7 -0.2 1.45 -2.35 1.45 -8.05 5.35 -7.4 M17.1 -5.7 L18.35 -4.55 17.4 -0.25 19.6 -1.7 19.6 -0.95 23.3 -0.95 23.3 -1.15 Q23.45 -1.1 23.55 -1.0 L23.6 2.15 23.6 4.6 22.4 4.45 20.8 0.45 19.2 4.45 14.8 4.75 16.1 5.8 Q14.2 5.75 11.5 6.75 2.95 9.75 -2.65 6.25 -8.2 2.7 -8.75 1.55 -9.3 0.35 -14.0 0.35 L-14.95 0.45 -15.25 0.55 Q-14.4 10.6 -7.55 15.4 -2.15 19.15 7.65 19.6 13.85 19.85 16.8 19.45 L17.25 19.9 16.35 22.7 Q11.3 23.95 3.15 23.95 -11.55 23.95 -18.35 14.0 -22.5 7.9 -22.5 1.8 -22.5 0.6 -21.15 -3.65 -19.8 -7.85 -19.45 -7.85 L-11.45 -6.85 Q-3.3 -5.15 -2.0 -1.55 L-3.65 -1.4 -4.35 -1.05 Q-4.35 -0.85 -3.65 -0.7 L-2.0 -0.55 Q-2.0 1.9 -1.4 4.0 L10.9 4.0 10.9 2.95 Q10.1 0.2 10.1 -3.15 10.1 -4.5 13.2 -5.2 L17.1 -5.7 M19.95 -1.95 L21.0 -2.65 22.1 -1.95 19.95 -1.95 M30.65 0.2 L30.25 -10.05 33.8 -11.25 33.9 -0.65 30.65 0.2 M25.5 21.1 Q26.4 17.5 26.75 12.65 L27.1 3.55 Q27.5 1.65 27.95 0.9 L28.8 1.95 28.85 14.55 Q28.85 20.5 25.75 21.6 L25.5 21.1 M20.35 9.65 L20.8 9.35 23.7 11.25 Q23.55 14.45 22.45 17.5 L21.85 17.4 20.75 13.25 20.55 13.65 20.45 10.6 20.35 9.65 M23.7 8.6 L23.4 7.45 23.65 7.3 23.7 8.6 M13.0 -1.35 Q12.4 -1.2 12.4 -0.95 L13.0 -0.5 14.45 -0.35 15.9 -0.5 Q16.5 -0.7 16.5 -0.95 16.5 -1.2 15.9 -1.35 L14.45 -1.55 13.0 -1.35 M7.9 3.0 L8.05 3.0 7.9 3.0 6.6 3.0 7.9 3.0 M-18.5 -1.65 L-14.6 -1.65 -14.6 -3.05 -18.5 -3.05 -18.5 -1.65 M-10.85 -1.1 L-9.4 -0.9 -7.95 -1.1 -7.35 -1.55 -7.95 -2.0 -9.4 -2.2 -10.85 -2.0 -11.45 -1.55 -10.85 -1.1" fill="#b52522" fill-rule="evenodd" stroke="none"/>
    <path d="M1.45 -8.05 L1.45 -10.0 5.35 -9.95 5.35 -7.4 1.45 -8.05 M30.25 -10.05 L30.2 -11.9 33.75 -12.85 33.8 -11.25 30.25 -10.05 M16.1 5.8 L18.15 7.45 17.2 11.75 20.35 9.65 20.45 10.6 20.55 13.65 18.65 17.05 14.3 16.8 16.8 19.45 Q13.85 19.85 7.65 19.6 -2.15 19.15 -7.55 15.4 -14.4 10.6 -15.25 0.55 L-14.95 0.45 -14.0 0.35 Q-9.3 0.35 -8.75 1.55 -8.2 2.7 -2.65 6.25 2.95 9.75 11.5 6.75 14.2 5.75 16.1 5.8" fill="#d52d28" fill-rule="evenodd" stroke="none"/>
    <path d="M5.4 2.45 L6.15 3.0 6.6 3.0 7.9 3.0 8.05 3.0 7.9 3.0 8.4 1.05 Q8.9 -0.4 9.4 -0.8 8.85 -0.9 8.65 -1.05 8.3 -1.3 8.3 -2.25 8.3 -4.75 8.75 -5.7 9.3 -6.7 11.0 -7.1 L19.75 -8.4 19.4 -7.55 15.25 -7.45 17.1 -5.7 13.2 -5.2 Q10.1 -4.5 10.1 -3.15 10.1 0.2 10.9 2.95 L10.9 4.0 -1.4 4.0 Q-2.0 1.9 -2.0 -0.55 L-1.0 -0.5 -0.5 3.5 1.5 3.5 1.65 2.15 5.4 2.45 M23.55 -1.0 L24.65 -0.3 23.6 -4.55 25.95 -6.4 26.05 1.95 26.1 2.7 25.9 4.8 23.6 4.6 23.6 2.15 23.55 -1.0 M25.9 -7.3 L22.6 -7.55 22.15 -8.7 25.8 -9.15 25.9 -7.3 M29.1 -1.9 L29.25 0.8 29.95 1.0 Q30.6 0.75 30.65 0.2 L33.9 -0.65 34.05 -0.35 34.05 2.35 Q34.15 3.0 34.5 3.2 L35.75 -0.1 36.65 -3.45 36.9 0.35 Q36.9 10.3 32.75 16.65 31.2 18.95 28.55 21.75 L23.9 26.55 25.5 21.1 25.75 21.6 Q28.85 20.5 28.85 14.55 L28.8 1.95 27.95 0.9 Q27.5 1.65 27.1 3.55 L26.95 -1.35 29.1 -1.9 M23.7 11.25 L24.45 11.7 23.7 8.6 23.65 7.3 25.85 5.6 24.55 15.35 24.1 17.75 22.45 17.5 Q23.55 14.45 23.7 11.25 M16.35 22.7 L15.85 24.05 19.65 22.1 22.1 24.1 20.8 27.05 18.7 27.55 18.15 25.35 16.55 28.05 12.85 28.9 11.55 28.8 11.85 29.1 9.75 29.55 4.2 30.05 Q-8.4 30.05 -18.75 20.45 -29.4 10.6 -29.4 -2.1 -29.4 -3.5 -28.6 -4.2 L-27.35 -5.15 -28.3 -5.6 Q-28.9 -5.75 -28.9 -6.35 L-28.6 -11.0 Q-16.4 -9.25 -11.65 -9.0 L-1.6 -8.55 -1.35 -1.5 -2.0 -1.55 Q-3.3 -5.15 -11.45 -6.85 L-19.45 -7.85 Q-19.8 -7.85 -21.15 -3.65 -22.5 0.6 -22.5 1.8 -22.5 7.9 -18.35 14.0 -11.55 23.95 3.15 23.95 11.3 23.95 16.35 22.7 M22.75 22.55 L22.5 20.55 23.65 19.7 23.4 20.8 22.75 22.55 M30.8 9.9 L30.35 9.3 29.9 9.9 29.7 11.3 29.9 12.75 Q30.1 13.3 30.35 13.3 L30.8 12.75 31.0 11.3 30.8 9.9 M31.05 4.4 L30.9 3.0 30.45 2.4 Q30.2 2.4 30.05 3.0 L29.85 4.4 30.05 5.85 Q30.2 6.4 30.45 6.4 L30.9 5.85 31.05 4.4 M29.3 18.0 L29.0 20.15 29.65 20.15 29.8 18.3 Q30.0 16.6 29.75 16.25 29.35 17.0 29.3 18.0 M-22.1 -2.85 L-21.5 -3.2 Q-21.55 -3.6 -24.4 -4.9 L-24.75 -3.75 Q-23.0 -3.05 -22.1 -2.85" fill="#96201d" fill-rule="evenodd" stroke="none"/>
    <path d="M6.6 3.0 L6.6 2.85 6.75 2.85 6.85 -9.9 20.75 -10.85 19.75 -8.4 11.0 -7.1 Q9.3 -6.7 8.75 -5.7 8.3 -4.75 8.3 -2.25 8.3 -1.3 8.65 -1.05 8.85 -0.9 9.4 -0.8 8.9 -0.4 8.4 1.05 L7.9 3.0 6.6 3.0 M19.6 -1.7 L19.95 -1.95 22.1 -1.95 23.3 -1.15 23.3 -0.95 19.6 -0.95 19.6 -1.7 M25.95 -6.4 L26.95 -7.25 25.9 -7.3 25.8 -9.15 22.15 -8.7 21.3 -10.9 28.7 -11.6 29.15 -2.7 29.1 -1.9 26.95 -1.35 26.05 1.95 25.95 -6.4 M34.05 -0.35 Q34.25 -0.15 34.6 -0.1 36.05 -1.0 35.9 -2.2 35.4 -3.55 35.4 -4.3 L35.35 -4.3 35.25 -13.25 39.55 -14.45 Q40.75 -9.35 41.15 -5.05 L41.3 -0.1 Q41.3 11.05 34.45 20.1 30.0 26.05 23.35 30.25 L22.35 30.05 23.9 26.55 28.55 21.75 Q31.2 18.95 32.75 16.65 36.9 10.3 36.9 0.35 L36.65 -3.45 35.75 -0.1 34.5 3.2 Q34.15 3.0 34.05 2.35 L34.05 -0.35 M26.1 2.7 L26.05 4.85 25.9 4.8 26.1 2.7 M25.85 5.6 L26.05 5.45 25.75 10.4 25.1 17.9 24.1 17.75 24.55 15.35 25.85 5.6 M22.1 24.1 L23.05 24.85 22.75 22.55 23.4 20.8 23.65 19.7 25.0 18.7 24.85 19.6 24.8 19.55 23.15 25.7 21.4 29.85 19.1 29.4 18.7 27.55 20.8 27.05 22.1 24.1 M16.55 28.05 L15.9 29.05 12.85 28.9 16.55 28.05 M11.85 29.1 L14.5 31.9 13.75 34.15 11.9 34.5 5.6 35.4 Q-13.6 35.4 -24.7 20.6 -33.55 8.75 -33.55 -5.15 L-32.55 -15.95 -28.95 -14.0 -26.5 -13.25 -22.7 -12.0 -0.05 -10.5 -0.05 2.2 Q0.15 2.85 0.7 2.95 L1.4 2.75 1.45 -2.35 1.7 -0.2 1.65 2.15 1.5 3.5 -0.5 3.5 -1.0 -0.5 -2.0 -0.55 -3.65 -0.7 Q-4.35 -0.85 -4.35 -1.05 L-3.65 -1.4 -2.0 -1.55 -1.35 -1.5 -1.6 -8.55 -11.65 -9.0 Q-16.4 -9.25 -28.6 -11.0 L-28.9 -6.35 Q-28.9 -5.75 -28.3 -5.6 L-27.35 -5.15 -28.6 -4.2 Q-29.4 -3.5 -29.4 -2.1 -29.4 10.6 -18.75 20.45 -8.4 30.05 4.2 30.05 L9.75 29.55 11.85 29.1 M13.0 -1.35 L14.45 -1.55 15.9 -1.35 Q16.5 -1.2 16.5 -0.95 16.5 -0.7 15.9 -0.5 L14.45 -0.35 13.0 -0.5 12.4 -0.95 Q12.4 -1.2 13.0 -1.35 M31.05 4.4 L30.9 5.85 30.45 6.4 Q30.2 6.4 30.05 5.85 L29.85 4.4 30.05 3.0 Q30.2 2.4 30.45 2.4 L30.9 3.0 31.05 4.4 M30.8 9.9 L31.0 11.3 30.8 12.75 30.35 13.3 Q30.1 13.3 29.9 12.75 L29.7 11.3 29.9 9.9 30.35 9.3 30.8 9.9 M29.3 18.0 Q29.35 17.0 29.75 16.25 30.0 16.6 29.8 18.3 L29.65 20.15 29.0 20.15 29.3 18.0 M-22.1 -2.85 Q-23.0 -3.05 -24.75 -3.75 L-24.4 -4.9 Q-21.55 -3.6 -21.5 -3.2 L-22.1 -2.85 M-10.85 -1.1 L-11.45 -1.55 -10.85 -2.0 -9.4 -2.2 -7.95 -2.0 -7.35 -1.55 -7.95 -1.1 -9.4 -0.9 -10.85 -1.1 M-18.5 -1.65 L-18.5 -3.05 -14.6 -3.05 -14.6 -1.65 -18.5 -1.65" fill="#791a17" fill-rule="evenodd" stroke="none"/>
    <path d="M5.35 -7.4 L5.35 -9.95 1.45 -10.0 1.45 -8.05 1.45 -2.35 1.4 2.75 0.7 2.95 Q0.15 2.85 -0.05 2.2 L-0.05 -10.5 -22.7 -12.0 -26.5 -13.25 -28.95 -14.0 -32.55 -15.95 -33.55 -5.15 Q-33.55 8.75 -24.7 20.6 -13.6 35.4 5.6 35.4 L11.9 34.5 13.75 34.15 14.5 31.9 11.85 29.1 11.55 28.8 12.85 28.9 15.9 29.05 16.55 28.05 18.15 25.35 18.7 27.55 19.1 29.4 21.4 29.85 23.15 25.7 24.8 19.55 24.85 19.6 25.0 18.7 23.65 19.7 22.5 20.55 22.75 22.55 23.05 24.85 22.1 24.1 19.65 22.1 15.85 24.05 16.35 22.7 17.25 19.9 16.8 19.45 14.3 16.8 18.65 17.05 20.55 13.65 20.75 13.25 21.85 17.4 22.45 17.5 24.1 17.75 25.1 17.9 25.75 10.4 26.05 5.45 25.85 5.6 23.65 7.3 23.4 7.45 23.7 8.6 24.45 11.7 23.7 11.25 20.8 9.35 20.35 9.65 17.2 11.75 18.15 7.45 16.1 5.8 14.8 4.75 19.2 4.45 20.8 0.45 22.4 4.45 23.6 4.6 25.9 4.8 26.05 4.85 26.1 2.7 26.05 1.95 26.95 -1.35 27.1 3.55 26.75 12.65 Q26.4 17.5 25.5 21.1 L23.9 26.55 22.35 30.05 23.35 30.25 Q30.0 26.05 34.45 20.1 41.3 11.05 41.3 -0.1 L41.15 -5.05 Q40.75 -9.35 39.55 -14.45 L35.25 -13.25 35.35 -4.3 35.4 -4.3 Q35.4 -3.55 35.9 -2.2 36.05 -1.0 34.6 -0.1 34.25 -0.15 34.05 -0.35 L33.9 -0.65 33.8 -11.25 33.75 -12.85 30.2 -11.9 30.25 -10.05 30.65 0.2 Q30.6 0.75 29.95 1.0 L29.25 0.8 29.1 -1.9 29.15 -2.7 28.7 -11.6 21.3 -10.9 22.15 -8.7 22.6 -7.55 25.9 -7.3 26.95 -7.25 25.95 -6.4 23.6 -4.55 24.65 -0.3 23.55 -1.0 Q23.45 -1.1 23.3 -1.15 L22.1 -1.95 21.0 -2.65 19.95 -1.95 19.6 -1.7 17.4 -0.25 18.35 -4.55 17.1 -5.7 15.25 -7.45 19.4 -7.55 19.75 -8.4 20.75 -10.85 6.85 -9.9 6.75 2.85 6.6 2.85 6.6 3.0 6.15 3.0 5.4 2.45 5.35 -7.4 M20.25 -8.45 L19.7 -7.1 16.0 -6.95 17.55 -5.75 18.9 -4.7 17.9 -1.1 21.0 -3.2 22.85 -1.95 23.3 -1.6 Q23.45 -1.55 23.55 -1.45 L24.05 -1.1 23.1 -4.7 25.9 -6.85 26.0 -6.95 25.9 -6.95 22.35 -7.05 21.75 -8.65 21.0 -10.55 20.25 -8.45 M17.6 -11.85 Q24.4 -12.4 33.6 -14.3 L36.75 -15.0 Q38.35 -15.55 39.6 -16.65 L40.35 -17.55 42.3 -6.65 42.75 0.25 Q42.75 14.95 31.6 26.05 20.3 37.3 4.85 37.3 -13.7 37.3 -25.25 22.45 -35.1 9.8 -35.1 -5.5 -35.1 -9.05 -33.45 -18.8 L-30.75 -16.5 Q-29.65 -15.7 -28.7 -15.7 -25.85 -14.65 -20.4 -13.6 -9.45 -11.5 7.45 -11.5 L17.6 -11.85 M23.65 5.0 L22.05 4.9 20.8 1.45 19.5 4.9 15.8 5.05 16.85 5.9 18.7 7.3 17.7 10.9 20.25 9.2 20.8 8.8 23.75 10.8 23.85 10.9 23.75 10.45 22.9 7.3 23.65 6.75 25.8 5.05 23.65 5.0 M22.3 18.0 L21.6 17.9 20.6 14.25 20.5 14.45 18.9 17.5 15.25 17.2 17.35 19.35 17.8 19.8 16.75 22.6 16.45 23.25 19.75 21.55 22.25 23.75 22.55 24.0 22.45 23.3 22.0 20.35 23.75 19.3 25.0 18.55 25.15 18.45 25.0 18.45 24.0 18.3 22.3 18.0 M18.25 27.65 L17.85 26.25 17.0 27.95 16.15 29.5 12.5 29.2 15.05 31.8 14.2 34.05 13.7 35.25 17.0 33.55 17.75 34.2 19.4 33.35 19.3 32.45 19.25 32.35 19.75 32.05 22.1 30.65 22.4 30.45 22.2 30.45 21.15 30.3 18.8 29.9 18.25 27.65" fill="#521210" fill-rule="evenodd" stroke="none"/>
    <path d="M17.55 -5.75 L19.65 -5.8 Q22.7 -5.8 23.35 -3.45 L23.55 -1.45 Q23.45 -1.55 23.3 -1.6 L23.3 -1.95 22.85 -1.95 21.0 -3.2 17.9 -1.1 18.9 -4.7 17.55 -5.75 M16.85 5.9 L15.8 5.05 19.5 4.9 20.8 1.45 22.05 4.9 23.65 5.0 23.65 6.75 22.9 7.3 23.75 10.45 23.75 10.8 20.8 8.8 20.25 9.2 Q19.6 6.25 16.85 5.9 M20.5 14.45 L20.6 14.25 21.6 17.9 22.3 18.0 20.95 20.85 Q19.25 21.9 16.75 22.6 L17.8 19.8 17.35 19.35 19.15 18.75 Q20.3 17.85 20.5 14.45" fill="#d3d3d3" fill-rule="evenodd" stroke="none"/>
    <path d="M17.55 -5.75 L16.0 -6.95 19.7 -7.1 20.25 -8.45 21.75 -8.65 22.35 -7.05 25.9 -6.95 25.9 -6.85 23.1 -4.7 24.05 -1.1 23.55 -1.45 23.35 -3.45 Q22.7 -5.8 19.65 -5.8 L17.55 -5.75 M23.75 10.8 L23.75 10.45 23.85 10.9 23.75 10.8 M23.65 6.75 L23.65 5.0 25.8 5.05 23.65 6.75 M16.75 22.6 Q19.25 21.9 20.95 20.85 L22.3 18.0 24.0 18.3 23.75 19.3 22.0 20.35 22.45 23.3 22.25 23.75 19.75 21.55 16.45 23.25 16.75 22.6 M17.0 27.95 L17.85 26.25 18.25 27.65 17.0 27.95" fill="#b4b4b4" fill-rule="evenodd" stroke="none"/>
    <path d="M25.9 -6.85 L25.9 -6.95 26.0 -6.95 25.9 -6.85 M21.75 -8.65 L20.25 -8.45 21.0 -10.55 21.75 -8.65 M22.85 -1.95 L23.3 -1.95 23.3 -1.6 22.85 -1.95 M24.0 18.3 L25.0 18.45 25.0 18.55 23.75 19.3 24.0 18.3 M22.45 23.3 L22.55 24.0 22.25 23.75 22.45 23.3 M17.0 27.95 L18.25 27.65 18.8 29.9 21.15 30.3 19.75 32.05 19.25 32.35 19.3 32.45 18.5 32.9 14.2 34.05 15.05 31.8 12.5 29.2 16.15 29.5 17.0 27.95 M22.2 30.45 L22.4 30.45 22.1 30.65 22.2 30.45" fill="#868686" fill-rule="evenodd" stroke="none"/>
    <path d="M25.0 18.45 L25.15 18.45 25.0 18.55 25.0 18.45 M21.15 30.3 L22.2 30.45 22.1 30.65 19.75 32.05 21.15 30.3 M19.3 32.45 L19.4 33.35 17.75 34.2 17.0 33.55 13.7 35.25 14.2 34.05 18.5 32.9 19.3 32.45" fill="#555555" fill-rule="evenodd" stroke="none"/>
    <path d="M16.85 5.9 Q19.6 6.25 20.25 9.2 L17.7 10.9 18.7 7.3 16.85 5.9 M20.5 14.45 Q20.3 17.85 19.15 18.75 L17.35 19.35 15.25 17.2 18.9 17.5 20.5 14.45" fill="#f8f8f8" fill-rule="evenodd" stroke="none"/>
  </g>
</svg>
