<?xml version="1.0" encoding="UTF-8" standalone="no"?>
<svg xmlns:ffdec="https://www.free-decompiler.com/flash" xmlns:xlink="http://www.w3.org/1999/xlink" ffdec:objectType="shape" height="17.55px" width="27.8px" xmlns="http://www.w3.org/2000/svg">
  <g transform="matrix(1.0, 0.0, 0.0, 1.0, 32.2, -11.2)">
    <path d="M-14.25 12.5 L-14.3 12.55 Q-12.75 11.2 -10.85 11.2 -8.0 11.1 -6.1 14.05 -4.4 16.45 -4.4 19.95 -4.4 23.0 -5.7 25.3 L-6.1 25.9 -6.15 25.95 Q-8.05 28.8 -10.85 28.7 -13.55 28.8 -15.55 25.95 L-15.6 25.9 -15.95 25.3 -15.9 25.35 Q-17.25 23.05 -17.25 19.95 -17.25 18.1 -16.75 16.5 L-16.8 16.55 Q-16.4 15.2 -15.6 14.05 L-15.55 14.0 Q-15.0 13.1 -14.25 12.5 M-10.85 14.7 Q-11.45 14.7 -12.0 15.2 L-12.05 15.2 -12.65 15.95 -12.7 16.05 -13.4 17.45 -13.4 17.5 Q-13.75 18.6 -13.75 19.95 -13.75 22.05 -12.85 23.65 L-12.8 23.75 -12.75 23.85 -12.7 23.95 Q-11.9 25.1 -10.85 25.2 -9.8 25.1 -9.0 23.95 L-8.95 23.85 -8.85 23.75 -8.8 23.6 Q-7.9 22.05 -7.9 19.95 -7.9 17.65 -9.0 16.0 -9.8 14.8 -10.85 14.7 M-31.7 17.8 L-31.75 17.9 Q-31.4 16.65 -30.65 15.65 L-30.75 15.75 -29.55 14.35 Q-28.15 13.1 -26.35 13.1 -23.8 13.0 -22.05 15.7 L-22.1 15.65 Q-20.6 17.8 -20.55 20.95 L-20.55 21.0 Q-20.6 23.4 -21.5 25.25 L-21.55 25.4 -22.05 26.15 -22.1 26.25 Q-23.85 28.85 -26.35 28.75 -28.9 28.85 -30.7 26.2 L-30.65 26.25 -31.25 25.2 Q-32.2 23.35 -32.2 20.95 -32.2 19.2 -31.7 17.8 M-25.0 17.65 L-25.0 17.6 Q-25.6 16.7 -26.35 16.6 -26.85 16.6 -27.2 16.95 L-27.3 17.05 -27.75 17.6 -27.85 17.7 -28.35 18.8 -28.4 18.95 -28.7 20.95 Q-28.7 22.5 -28.1 23.7 L-28.05 23.8 -27.8 24.2 -27.8 24.25 Q-27.2 25.15 -26.35 25.25 -25.6 25.15 -25.0 24.25 L-24.95 24.2 -24.6 23.65 Q-24.1 22.45 -24.05 21.0 L-24.05 20.9 Q-24.1 19.0 -25.0 17.65" fill="#20150f" fill-rule="evenodd" stroke="none"/>
    <path d="M-10.85 14.7 Q-9.8 14.8 -9.0 16.0 -7.9 17.65 -7.9 19.95 -7.9 22.05 -8.8 23.6 L-8.85 23.75 -8.95 23.85 -9.0 23.95 Q-9.8 25.1 -10.85 25.2 -11.9 25.1 -12.7 23.95 L-12.75 23.85 -12.8 23.75 -12.85 23.65 Q-13.75 22.05 -13.75 19.95 -13.75 18.6 -13.4 17.5 L-13.4 17.45 -12.7 16.05 -12.65 15.95 -12.05 15.2 -12.0 15.2 Q-11.45 14.7 -10.85 14.7 M-25.0 17.65 Q-24.1 19.0 -24.05 20.9 L-24.05 21.0 Q-24.1 22.45 -24.6 23.65 L-24.95 24.2 -25.0 24.25 Q-25.6 25.15 -26.35 25.25 -27.2 25.15 -27.8 24.25 L-27.8 24.2 -28.05 23.8 -28.1 23.7 Q-28.7 22.5 -28.7 20.95 L-28.4 18.95 -28.35 18.8 -27.85 17.7 -27.75 17.6 -27.3 17.05 -27.2 16.95 Q-26.85 16.6 -26.35 16.6 -25.6 16.7 -25.0 17.6 L-25.0 17.65" fill="#b8815f" fill-rule="evenodd" stroke="none"/>
  </g>
</svg>
