<?xml version="1.0" encoding="UTF-8" standalone="no"?>
<svg xmlns:ffdec="https://www.free-decompiler.com/flash" xmlns:xlink="http://www.w3.org/1999/xlink" ffdec:objectType="shape" height="18.65px" width="82.7px" xmlns="http://www.w3.org/2000/svg">
  <g transform="matrix(1.0, 0.0, 0.0, 1.0, -0.05, 0.0)">
    <path d="M4.65 8.8 Q2.05 8.15 0.8 5.8 0.15 4.6 0.05 3.45 0.05 1.45 3.45 0.75 L17.15 0.0 29.35 1.85 32.35 1.35 37.3 0.45 43.85 0.0 Q51.2 0.0 55.55 0.25 L76.45 1.0 Q77.6 1.0 79.9 2.65 82.25 4.35 82.75 5.55 L82.45 6.6 81.95 6.75 79.95 5.1 Q78.45 3.9 76.35 3.05 L62.25 6.2 61.1 7.65 59.25 9.15 61.1 6.3 Q62.3 4.6 62.3 4.0 62.3 2.35 59.7 1.8 L43.85 1.0 Q31.35 2.3 29.55 2.9 L30.1 8.15 32.85 8.15 32.8 8.5 32.65 8.5 32.1 8.5 31.75 8.6 31.6 8.85 32.0 9.15 28.25 9.15 28.25 8.9 28.2 8.15 28.7 7.1 Q29.2 5.85 29.2 3.0 29.2 2.6 25.85 1.9 21.8 1.0 17.15 1.0 L3.9 1.7 Q1.1 2.3 1.1 3.85 1.25 4.85 1.75 5.85 2.85 7.8 4.9 8.15 L4.9 8.25 4.75 8.4 4.65 8.8 M43.05 3.25 L43.75 3.0 48.2 3.2 44.45 3.15 43.05 3.25" fill="#1f1f1f" fill-rule="evenodd" stroke="none"/>
    <path d="M59.25 9.15 Q55.5 18.7 39.65 18.65 L37.7 17.95 34.25 16.0 Q33.05 15.1 32.35 12.3 31.75 9.9 32.0 9.15 L31.6 8.85 31.75 8.6 32.1 8.5 32.65 8.5 32.8 8.5 Q33.0 8.95 32.85 9.85 33.2 11.3 35.85 14.9 37.1 16.65 40.0 16.9 41.65 17.1 44.7 16.9 48.55 16.9 52.25 14.45 55.7 12.15 57.9 8.55 L57.95 8.15 58.65 6.95 59.05 5.95 Q59.05 4.65 58.5 4.35 57.3 3.7 51.9 3.25 L48.2 3.2 43.75 3.0 43.05 3.25 41.15 3.4 37.35 3.9 Q35.5 3.9 34.2 5.15 32.85 6.4 32.85 8.15 L30.1 8.15 29.55 2.9 Q31.35 2.3 43.85 1.0 L59.7 1.8 Q62.3 2.35 62.3 4.0 62.3 4.6 61.1 6.3 L59.25 9.15 M28.25 9.15 Q28.15 12.85 25.75 15.55 23.25 18.4 19.65 18.4 L16.2 18.0 15.55 17.85 11.3 15.5 8.0 13.2 4.65 8.8 4.75 8.4 4.9 8.25 10.55 12.95 Q15.15 16.6 18.6 16.6 22.3 16.6 24.55 13.9 25.8 12.45 27.4 8.65 L26.9 8.15 Q26.35 5.75 24.55 4.55 22.05 2.85 16.65 2.85 L7.55 3.1 Q3.8 3.55 3.8 5.1 L3.85 6.15 Q3.75 6.25 4.9 8.15 2.85 7.8 1.75 5.85 1.25 4.85 1.1 3.85 1.1 2.3 3.9 1.7 L17.15 1.0 Q21.8 1.0 25.85 1.9 29.2 2.6 29.2 3.0 29.2 5.85 28.7 7.1 L28.2 8.15 28.25 8.9 28.25 9.15" fill="#454545" fill-rule="evenodd" stroke="none"/>
    <path d="M15.55 17.85 Q12.75 17.05 11.25 16.2 9.7 15.25 8.0 13.2 L11.3 15.5 15.55 17.85 M4.9 8.25 L4.9 8.15 Q3.75 6.25 3.85 6.15 L3.8 5.1 Q3.8 3.55 7.55 3.1 L16.65 2.85 Q22.05 2.85 24.55 4.55 26.35 5.75 26.9 8.15 L27.4 8.65 Q25.8 12.45 24.55 13.9 22.3 16.6 18.6 16.6 15.15 16.6 10.55 12.95 L4.9 8.25 M32.85 8.15 Q32.85 6.4 34.2 5.15 35.5 3.9 37.35 3.9 L41.15 3.4 43.05 3.25 44.45 3.15 48.2 3.2 51.9 3.25 Q57.3 3.7 58.5 4.35 59.05 4.65 59.05 5.95 L58.65 6.95 57.95 8.15 57.9 8.55 Q55.7 12.15 52.25 14.45 48.55 16.9 44.7 16.9 41.65 17.1 40.0 16.9 37.1 16.65 35.85 14.9 33.2 11.3 32.85 9.85 33.0 8.95 32.8 8.5 L32.85 8.15" fill="#f8f8f8" fill-opacity="0.9098039" fill-rule="evenodd" stroke="none"/>
  </g>
</svg>
