<?xml version="1.0" encoding="UTF-8" standalone="no"?>
<svg xmlns:ffdec="https://www.free-decompiler.com/flash" xmlns:xlink="http://www.w3.org/1999/xlink" ffdec:objectType="shape" height="16.75px" width="27.35px" xmlns="http://www.w3.org/2000/svg">
  <g transform="matrix(1.0, 0.0, 0.0, 1.0, 32.15, -12.0)">
    <path d="M-13.05 12.15 L-12.8 12.25 Q-9.85 13.7 -7.45 16.4 L-6.45 17.7 -6.45 17.65 Q-5.7 18.8 -5.2 20.05 L-5.2 20.1 Q-4.05 23.4 -6.05 26.25 -7.35 28.0 -9.45 28.55 L-9.5 28.55 Q-12.55 29.2 -14.6 27.0 -16.8 24.65 -17.15 21.6 L-17.2 21.6 Q-17.6 17.45 -15.6 13.95 L-15.6 13.75 Q-15.6 13.05 -15.05 12.55 -14.55 12.0 -13.85 12.0 L-13.05 12.15 M-13.7 21.2 Q-13.45 23.15 -12.05 24.6 -11.35 25.4 -10.25 25.15 L-10.35 25.15 Q-9.45 24.9 -8.9 24.2 -7.95 22.8 -8.5 21.25 -8.85 20.4 -9.35 19.65 L-10.05 18.75 Q-11.35 17.25 -12.85 16.25 -14.0 18.55 -13.7 21.2 M-31.8 23.7 L-31.75 23.75 Q-32.75 20.3 -31.3 18.4 L-30.95 18.0 -24.5 12.95 Q-24.0 12.55 -23.4 12.55 L-22.95 12.6 Q-22.2 12.6 -21.7 13.15 -21.2 13.6 -21.05 14.3 L-21.05 14.25 -20.75 16.15 Q-20.5 19.1 -20.7 22.3 -20.85 24.5 -22.3 26.3 L-22.25 26.25 -23.95 27.8 Q-27.1 29.9 -29.7 27.25 L-29.8 27.2 Q-31.2 25.9 -31.8 23.7 M-27.35 24.65 L-27.3 24.75 Q-26.65 25.4 -25.9 24.9 L-25.0 24.1 -24.95 24.05 Q-24.25 23.2 -24.2 22.1 -24.05 19.55 -24.2 17.15 L-28.45 20.55 Q-28.8 21.35 -28.4 22.8 -28.1 23.95 -27.35 24.65" fill="#20150f" fill-rule="evenodd" stroke="none"/>
    <path d="M-13.7 21.2 Q-14.0 18.55 -12.85 16.25 -11.35 17.25 -10.05 18.75 L-9.35 19.65 Q-8.85 20.4 -8.5 21.25 -7.95 22.8 -8.9 24.2 -9.45 24.9 -10.35 25.15 L-10.25 25.15 Q-11.35 25.4 -12.05 24.6 -13.45 23.15 -13.7 21.2 M-27.35 24.65 Q-28.1 23.95 -28.4 22.8 -28.8 21.35 -28.45 20.55 L-24.2 17.15 Q-24.05 19.55 -24.2 22.1 -24.25 23.2 -24.95 24.05 L-25.0 24.1 -25.9 24.9 Q-26.65 25.4 -27.3 24.75 L-27.35 24.65" fill="#b8815f" fill-rule="evenodd" stroke="none"/>
  </g>
</svg>
