<?xml version="1.0" encoding="UTF-8" standalone="no"?>
<svg xmlns:ffdec="https://www.free-decompiler.com/flash" xmlns:xlink="http://www.w3.org/1999/xlink" ffdec:objectType="shape" height="14.85px" width="27.8px" xmlns="http://www.w3.org/2000/svg">
  <g transform="matrix(1.0, 0.0, 0.0, 1.0, 32.2, -13.9)">
    <path d="M-20.2 19.85 Q-19.9 20.45 -20.15 21.15 -20.3 21.6 -20.6 21.9 -20.85 24.35 -22.1 26.2 L-22.05 26.15 Q-23.8 28.85 -26.35 28.75 -28.9 28.85 -30.7 26.2 -32.2 24.05 -32.2 20.95 -32.2 19.3 -31.75 18.0 -31.7 17.5 -31.45 17.15 -31.15 16.55 -30.55 16.3 L-29.3 16.25 -21.75 18.8 -21.7 18.85 -21.25 18.95 Q-20.55 19.2 -20.2 19.85 M-16.4 19.5 L-16.35 19.45 -8.15 14.2 Q-7.75 13.9 -7.25 13.9 L-6.35 14.15 Q-5.95 14.35 -5.7 14.8 -4.4 16.95 -4.4 19.95 -4.4 23.45 -6.1 25.9 -8.0 28.8 -10.85 28.7 -13.6 28.8 -15.6 25.9 -16.4 24.7 -16.8 23.35 L-16.9 23.3 Q-17.65 23.15 -18.0 22.55 -18.4 21.9 -18.25 21.25 -18.1 20.5 -17.5 20.15 L-16.4 19.5 M-27.8 24.2 L-27.8 24.25 Q-27.2 25.15 -26.35 25.25 -25.6 25.15 -25.0 24.25 L-25.0 24.2 Q-24.3 23.15 -24.1 21.7 L-28.65 20.2 -28.7 20.95 Q-28.7 22.85 -27.8 24.2 M-13.55 21.85 L-12.7 23.95 Q-11.9 25.1 -10.85 25.2 -9.8 25.1 -9.0 23.95 -7.9 22.25 -7.9 19.95 -7.9 19.05 -8.05 18.3 L-13.55 21.85" fill="#20150f" fill-rule="evenodd" stroke="none"/>
    <path d="M-13.55 21.85 L-8.05 18.3 Q-7.9 19.05 -7.9 19.95 -7.9 22.25 -9.0 23.95 -9.8 25.1 -10.85 25.2 -11.9 25.1 -12.7 23.95 L-13.55 21.85 M-27.8 24.2 Q-28.7 22.85 -28.7 20.95 L-28.65 20.2 -24.1 21.7 Q-24.3 23.15 -25.0 24.2 L-25.0 24.25 Q-25.6 25.15 -26.35 25.25 -27.2 25.15 -27.8 24.25 L-27.8 24.2" fill="#b8815f" fill-rule="evenodd" stroke="none"/>
  </g>
</svg>
