<?xml version="1.0" encoding="UTF-8" standalone="no"?>
<svg xmlns:ffdec="https://www.free-decompiler.com/flash" xmlns:xlink="http://www.w3.org/1999/xlink" ffdec:objectType="shape" height="10.4px" width="27.8px" xmlns="http://www.w3.org/2000/svg">
  <g transform="matrix(1.0, 0.0, 0.0, 1.0, 32.2, -18.35)">
    <path d="M-13.55 21.85 L-12.7 23.95 Q-11.9 25.1 -10.85 25.2 -9.8 25.1 -9.0 23.95 -8.4 23.0 -8.1 21.85 L-13.55 21.85 M-32.2 20.95 L-32.1 19.9 Q-32.05 19.25 -31.55 18.8 -31.05 18.35 -30.4 18.35 L-22.35 18.35 Q-21.65 18.35 -21.1 18.9 -20.6 19.4 -20.6 20.1 L-20.55 20.75 -20.55 21.0 Q-20.6 24.05 -22.1 26.2 L-22.05 26.15 Q-23.8 28.85 -26.35 28.75 -28.9 28.85 -30.7 26.2 -32.2 24.05 -32.2 20.95 M-17.25 20.1 Q-17.25 19.4 -16.7 18.9 -16.2 18.35 -15.5 18.35 L-6.15 18.35 -5.25 18.6 Q-4.85 18.85 -4.6 19.25 L-4.4 20.15 Q-4.45 23.5 -6.1 25.9 -8.0 28.8 -10.85 28.7 -13.6 28.8 -15.6 25.9 -17.25 23.45 -17.25 20.1 M-28.65 21.85 Q-28.5 23.2 -27.8 24.2 L-27.8 24.25 Q-27.2 25.15 -26.35 25.25 -25.6 25.15 -25.0 24.25 L-25.0 24.2 Q-24.3 23.2 -24.1 21.85 L-28.65 21.85" fill="#20150f" fill-rule="evenodd" stroke="none"/>
    <path d="M-13.55 21.85 L-8.1 21.85 Q-8.4 23.0 -9.0 23.95 -9.8 25.1 -10.85 25.2 -11.9 25.1 -12.7 23.95 L-13.55 21.85 M-28.65 21.85 L-24.1 21.85 Q-24.3 23.2 -25.0 24.2 L-25.0 24.25 Q-25.6 25.15 -26.35 25.25 -27.2 25.15 -27.8 24.25 L-27.8 24.2 Q-28.5 23.2 -28.65 21.85" fill="#b8815f" fill-rule="evenodd" stroke="none"/>
  </g>
</svg>
