<?xml version="1.0" encoding="UTF-8" standalone="no"?>
<svg xmlns:ffdec="https://www.free-decompiler.com/flash" xmlns:xlink="http://www.w3.org/1999/xlink" ffdec:objectType="shape" height="33.15px" width="41.75px" xmlns="http://www.w3.org/2000/svg">
  <g transform="matrix(1.0, 0.0, 0.0, 1.0, 22.6, -3.65)">
    <path d="M13.5 22.8 Q8.25 29.25 -3.6 29.25 -8.0 29.25 -13.25 26.75 -19.0 24.0 -19.0 21.0 -19.0 17.3 -14.95 14.15 -10.6 10.75 -3.0 9.25 L4.95 6.7 13.15 6.35 Q15.75 8.15 16.4 10.15 16.75 11.15 16.75 13.75 16.75 18.7 13.5 22.8" fill="#ffcc99" fill-rule="evenodd" stroke="none"/>
    <path d="M-19.65 24.05 L-19.55 23.85 -19.25 23.95 -19.05 24.05 -18.75 24.2 Q-8.4 28.75 -6.6 29.0 L-4.6 29.25 -4.35 29.2 Q-4.0 29.15 -4.0 28.4 -4.0 27.4 -4.45 26.2 L-4.85 24.95 -4.8 24.95 -3.5 24.9 -0.7 25.0 Q-0.25 25.05 -0.15 26.0 -0.05 27.85 2.75 27.85 7.85 27.85 12.0 22.9 L12.0 22.85 14.95 19.1 Q15.95 17.85 16.9 17.6 L17.2 17.6 17.25 17.9 17.35 18.65 17.2 18.95 17.3 19.25 17.5 19.45 Q17.8 19.65 17.65 20.45 L17.65 20.55 17.65 20.65 17.65 20.75 17.9 24.0 Q17.9 27.2 15.75 29.9 12.0 34.5 3.2 35.6 -5.6 36.6 -10.8 32.6 -15.4 28.95 -18.85 24.35 L-19.15 24.45 -19.35 24.45 -19.65 24.05" fill="#552e06" fill-rule="evenodd" stroke="none"/>
    <path d="M-19.35 24.45 L-19.15 24.45 -18.85 24.35 Q-15.4 28.95 -10.8 32.6 -5.6 36.6 3.2 35.6 12.0 34.5 15.75 29.9 17.9 27.2 17.9 24.0 L17.65 20.75 17.65 20.65 17.65 20.55 17.65 20.45 Q17.8 19.65 17.5 19.45 L17.3 19.25 17.2 18.95 17.35 18.65 17.25 17.9 17.2 17.6 16.9 17.6 Q15.95 17.85 14.95 19.1 L12.0 22.85 12.0 22.9 Q7.85 27.85 2.75 27.85 -0.05 27.85 -0.15 26.0 -0.25 25.05 -0.7 25.0 L-3.5 24.9 -4.8 24.95 -4.85 24.95 -4.45 26.2 Q-4.0 27.4 -4.0 28.4 -4.0 29.15 -4.35 29.2 L-4.6 29.25 -6.6 29.0 Q-8.4 28.75 -18.75 24.2 L-19.05 24.05 -19.25 23.95 -19.55 23.85 -19.65 24.05 -19.7 24.1 -19.75 24.05 -20.2 23.5 -20.3 23.4 -20.55 23.65 -20.65 23.55 -20.75 23.2 -20.55 22.9 -20.25 22.75 -20.15 22.75 -19.95 22.7 -19.65 22.7 Q-8.3 27.75 -6.45 28.0 L-5.0 28.2 Q-5.05 27.45 -5.4 26.6 L-5.9 24.8 Q-6.0 24.15 -5.0 23.95 L-3.45 23.9 -0.7 24.0 Q0.65 23.9 0.85 25.9 1.05 26.85 2.75 26.85 7.4 26.85 11.2 22.25 L11.25 22.25 Q12.95 19.85 14.2 18.45 15.45 16.85 16.65 16.65 L17.8 16.8 Q18.25 17.05 18.25 17.9 L18.25 18.75 Q18.9 19.2 18.65 20.6 L18.9 24.0 Q18.9 27.6 16.55 30.55 12.6 35.5 3.3 36.6 -6.0 37.7 -11.4 33.4 -16.75 29.2 -20.55 23.65 L-19.35 24.45" fill="#331a00" fill-rule="evenodd" stroke="none"/>
    <path d="M-19.1 24.55 L-19.1 24.5 -19.15 24.15 -19.35 23.8 -19.45 23.65 Q-21.8 19.15 -21.6 16.8 -21.4 14.8 -18.95 14.65 L-18.8 14.65 -8.65 10.7 -8.7 10.7 0.45 7.25 Q8.55 4.0 12.65 4.9 16.55 5.7 17.6 8.3 18.6 10.95 17.75 21.65 L15.65 19.65 15.8 19.4 Q16.7 12.85 16.4 10.1 16.1 6.95 11.75 6.4 7.7 5.85 -0.45 8.4 -8.55 10.95 -14.3 13.75 -16.4 14.75 -17.8 17.0 L-18.15 17.1 Q-18.5 17.1 -18.5 17.85 L-18.35 20.15 -17.7 24.95 -17.5 25.3 -17.2 25.4 Q-17.35 26.25 -18.6 25.05 L-19.1 24.55 M-20.45 23.85 L-20.35 24.05 -21.15 23.2 Q-24.15 19.0 -20.45 23.85" fill="#552e06" fill-rule="evenodd" stroke="none"/>
    <path d="M17.75 21.65 Q18.6 10.95 17.6 8.3 16.55 5.7 12.65 4.9 8.55 4.0 0.45 7.25 L-8.7 10.7 -8.65 10.7 -18.8 14.65 -18.95 14.65 Q-21.4 14.8 -21.6 16.8 -21.8 19.15 -19.45 23.65 L-19.35 23.8 -19.15 24.15 -19.1 24.5 -19.1 24.55 -19.35 24.8 -19.75 24.85 -20.05 24.6 -20.15 24.4 -20.25 24.2 -20.35 24.1 -20.35 24.05 -20.45 23.85 Q-22.85 19.15 -22.6 16.7 -22.35 13.9 -19.1 13.65 L-9.0 9.75 -8.95 9.75 0.1 6.3 Q8.55 2.9 12.85 3.9 17.35 4.9 18.55 7.95 19.65 10.7 18.7 22.1 L18.55 22.45 18.15 22.55 Q17.95 22.55 17.85 22.4 L17.7 22.0 17.75 21.65 M-17.2 25.4 L-17.5 25.3 -17.7 24.95 -18.35 20.15 -18.5 17.85 Q-18.5 17.1 -18.15 17.1 L-17.8 17.0 Q-16.4 14.75 -14.3 13.75 -8.55 10.95 -0.45 8.4 7.7 5.85 11.75 6.4 16.1 6.95 16.4 10.1 16.7 12.85 15.8 19.4 L15.65 19.65 15.6 19.7 15.25 19.8 14.9 19.6 14.8 19.25 Q15.7 12.85 15.4 10.2 15.1 7.85 11.6 7.4 7.7 6.85 -0.15 9.35 -8.15 11.85 -13.85 14.65 -15.9 15.65 -17.25 17.95 L-17.5 18.2 -17.55 18.2 -17.35 20.0 -16.7 24.85 -16.8 25.2 -17.15 25.4 -17.2 25.4" fill="#331a00" fill-rule="evenodd" stroke="none"/>
  </g>
</svg>
