<?xml version="1.0" encoding="UTF-8" standalone="no"?>
<svg xmlns:ffdec="https://www.free-decompiler.com/flash" xmlns:xlink="http://www.w3.org/1999/xlink" ffdec:objectType="shape" height="96.6px" width="119.35px" xmlns="http://www.w3.org/2000/svg">
  <g transform="matrix(1.0, 0.0, 0.0, 1.0, 39.25, 49.25)">
    <path d="M29.9 -47.2 L29.95 -45.3 Q30.25 -38.2 33.55 -22.6 40.75 -25.8 47.2 -31.35 L52.35 -36.25 Q53.25 -36.25 54.15 -33.25 55.25 -29.6 55.25 -24.1 55.25 -22.3 53.7 -16.95 52.0 -11.2 50.6 -9.2 52.0 -8.7 56.5 -7.9 L61.6 -7.1 Q65.65 -7.1 72.2 -9.25 73.5 -9.7 75.75 -11.5 77.9 -13.25 78.75 -13.5 79.05 -13.2 79.65 -13.25 80.1 -12.75 80.1 -9.4 80.1 -1.9 76.65 4.85 72.55 12.9 65.2 15.7 70.9 21.75 74.5 23.85 76.45 24.95 76.45 25.35 76.45 26.8 71.5 29.8 L66.45 32.5 Q63.7 32.5 63.7 33.7 63.7 36.0 65.6 40.0 67.5 44.0 67.5 44.75 67.75 45.65 66.1 46.3 62.9 47.7 53.45 47.25 54.6 37.55 54.6 35.4 54.6 28.5 52.15 25.2 48.65 21.7 46.4 18.4 42.95 18.55 40.65 17.75 37.55 16.65 37.55 14.0 37.55 13.5 38.0 13.0 L40.7 9.35 Q37.65 10.6 36.65 10.6 33.85 10.6 32.25 8.7 31.1 7.3 31.1 5.95 31.1 4.8 31.85 2.4 30.55 3.75 28.45 4.25 L23.4 4.65 Q20.8 4.65 19.9 4.0 18.7 3.15 17.7 -0.1 16.95 3.9 12.5 5.55 10.0 6.45 7.0 6.45 5.5 6.5 3.8 5.95 0.45 4.9 -1.55 2.05 L-1.65 6.25 -2.8 7.9 Q-8.55 11.0 -12.3 11.0 -14.75 11.0 -17.5 8.85 -20.0 6.9 -21.4 4.35 L-22.9 7.9 -24.95 11.1 Q-27.75 8.9 -29.7 5.35 -31.5 2.15 -31.2 0.6 L-25.0 1.5 -24.85 0.55 -24.65 -0.55 -35.8 -21.15 Q-39.2 -28.95 -39.25 -29.6 L-39.05 -30.1 -38.25 -30.35 Q-35.75 -28.15 -31.7 -25.75 -23.55 -20.9 -13.65 -19.85 -13.0 -35.05 -4.45 -49.25 -3.85 -49.25 -2.9 -47.1 L-0.45 -41.55 Q4.05 -32.2 11.95 -25.75 12.9 -27.9 17.3 -33.75 23.15 -41.55 29.1 -46.85 L29.9 -47.2 M61.15 14.2 Q69.45 11.7 73.05 6.95 77.3 1.35 78.0 -10.5 70.0 -4.6 60.75 -4.6 L53.4 -5.25 Q47.0 -6.25 45.7 -8.05 50.4 -10.9 52.55 -16.4 54.1 -20.25 54.1 -24.2 54.1 -27.0 52.05 -33.25 L33.2 -18.0 Q31.55 -20.7 30.2 -28.85 28.9 -36.7 28.8 -43.75 20.5 -36.1 18.9 -33.4 17.35 -30.85 14.35 -19.8 9.25 -24.65 2.85 -33.8 -2.55 -41.55 -4.5 -45.7 -7.5 -39.1 -9.25 -28.45 -10.7 -19.3 -10.3 -14.95 -16.5 -16.0 -25.2 -20.05 -32.6 -23.45 -35.7 -25.9 L-24.25 -3.65 -16.8 6.65 Q-13.8 10.15 -10.65 10.15 -7.05 10.15 -4.4 5.85 -1.65 1.45 -2.85 -3.05 -0.75 1.6 3.15 4.0 5.85 5.65 7.9 5.65 10.35 5.65 13.7 3.15 18.9 -0.7 20.85 -8.5 L20.85 2.7 Q22.25 4.4 22.8 4.4 L25.05 4.0 Q28.2 2.95 34.65 -0.65 L33.8 2.65 Q32.9 6.1 32.9 6.7 32.9 7.85 33.15 9.0 34.45 9.45 36.7 8.6 L50.1 8.7 40.0 13.15 Q49.0 17.6 52.45 22.9 55.7 27.95 55.7 36.55 L55.4 41.25 Q55.05 45.2 54.65 45.2 L59.35 45.25 65.2 44.1 59.25 31.75 61.25 32.85 Q62.0 32.85 65.25 31.55 69.35 29.9 70.4 28.15 L73.45 25.85 71.6 24.7 Q70.75 24.1 70.2 24.1 68.0 24.1 66.35 21.1 63.95 16.6 61.15 14.2 M-24.4 1.9 Q-25.2 2.85 -25.85 2.85 L-29.15 2.45 -30.35 1.7 -25.05 10.45 Q-24.7 7.65 -22.65 5.3 -21.65 4.1 -23.7 0.95 L-24.4 1.9" fill="#c28127" fill-rule="evenodd" stroke="none"/>
    <path d="M-24.25 -3.65 L-35.7 -25.9 Q-32.6 -23.45 -25.2 -20.05 -16.5 -16.0 -10.3 -14.95 -10.7 -19.3 -9.25 -28.45 -7.5 -39.1 -4.5 -45.7 -2.55 -41.55 2.85 -33.8 9.25 -24.65 14.35 -19.8 17.35 -30.85 18.9 -33.4 20.5 -36.1 28.8 -43.75 28.9 -36.7 30.2 -28.85 31.55 -20.7 33.2 -18.0 L52.05 -33.25 Q54.1 -27.0 54.1 -24.2 54.1 -20.25 52.55 -16.4 50.4 -10.9 45.7 -8.05 47.0 -6.25 53.4 -5.25 L60.75 -4.6 Q70.0 -4.6 78.0 -10.5 77.3 1.35 73.05 6.95 69.45 11.7 61.15 14.2 L60.5 14.9 59.75 14.15 69.1 0.75 Q67.35 2.0 63.05 2.0 L58.75 1.15 55.35 0.3 Q54.85 0.3 54.65 0.7 54.4 1.05 53.9 1.05 53.55 1.05 51.0 -0.15 48.5 -1.4 47.8 -1.4 46.45 -1.4 45.05 -2.65 42.7 -5.5 41.7 -5.5 40.15 -5.5 39.75 -7.5 L45.2 -18.2 Q41.45 -17.35 39.1 -15.05 36.95 -13.0 36.25 -13.0 35.75 -13.0 35.7 -13.5 35.65 -14.0 35.15 -14.0 32.4 -12.4 31.85 -12.4 29.8 -12.4 26.7 -19.45 23.9 -25.7 24.15 -28.75 22.5 -18.1 21.65 -15.4 20.5 -11.8 14.8 -8.95 13.8 -11.25 5.9 -19.45 -1.45 -27.15 -2.5 -31.25 L-1.85 -14.7 Q-1.85 -6.7 -6.2 -3.95 -9.45 -1.9 -17.45 -1.9 -18.25 -1.9 -24.25 -3.65 M7.75 -1.25 L9.25 -2.9 Q10.3 -2.45 10.75 -1.0 14.75 -6.75 15.15 -6.35 L9.75 0.9 9.35 -1.5 8.15 1.1 6.4 -1.45 5.5 1.25 2.25 -15.5 2.75 -9.15 2.85 0.0 Q1.65 -19.25 2.1 -19.25 4.75 -11.6 4.1 -10.5 L5.25 -3.55 5.65 -4.2 Q6.1 -4.85 6.65 -4.9 L7.75 -1.25 M28.8 -3.7 Q27.8 -2.25 26.5 -1.9 L26.65 -4.8 24.15 -1.1 Q23.85 -1.85 25.6 -14.25 L25.6 -5.05 27.5 -7.0 27.5 -3.75 Q29.25 -5.4 29.55 -5.05 L28.8 -3.7 M35.6 -9.4 L36.1 -8.25 30.75 -5.0 35.6 -9.4 M41.0 3.65 L38.0 2.85 46.35 1.9 Q47.35 1.9 50.9 3.35 L50.0 4.5 45.5 4.4 Q40.95 4.15 41.0 3.65 M49.35 14.5 L52.05 12.6 Q55.35 10.4 58.45 9.0 L52.65 14.6 49.35 14.5 M58.6 39.55 L58.85 39.05 59.35 38.85 59.9 39.05 60.1 39.55 59.9 40.05 59.35 40.25 Q59.05 40.25 58.85 40.05 L58.6 39.55 M62.85 27.4 L61.65 27.25 61.25 28.65 61.15 27.2 Q60.85 25.5 59.75 24.3 L61.5 22.25 67.8 25.05 64.25 24.4 65.4 25.85 61.85 25.1 62.85 27.4 M61.0 21.4 Q65.35 23.0 68.0 24.75 L57.2 20.1 61.0 21.4 M-6.85 1.7 Q-6.85 2.05 -7.1 2.3 L-7.75 2.55 -8.35 2.3 -8.65 1.7 -8.35 1.1 Q-8.1 0.85 -7.75 0.85 -7.4 0.85 -7.1 1.1 -6.85 1.35 -6.85 1.7 M-12.05 1.4 Q-12.05 1.9 -11.05 2.75 -10.05 3.55 -10.1 3.95 L-10.4 4.85 -11.1 5.5 -15.8 3.6 Q-14.35 3.0 -12.3 3.0 -13.25 3.0 -12.5 2.25 -12.05 2.4 -12.05 1.4" fill="#fbee95" fill-rule="evenodd" stroke="none"/>
    <path d="M61.15 14.2 Q63.95 16.6 66.35 21.1 68.0 24.1 70.2 24.1 70.75 24.1 71.6 24.7 L73.45 25.85 70.4 28.15 Q69.35 29.9 65.25 31.55 62.0 32.85 61.25 32.85 L59.25 31.75 65.2 44.1 59.35 45.25 54.65 45.2 Q55.05 45.2 55.4 41.25 L55.7 36.55 Q55.7 27.95 52.45 22.9 49.0 17.6 40.0 13.15 L50.1 8.7 36.7 8.6 Q34.45 9.45 33.15 9.0 32.9 7.85 32.9 6.7 32.9 6.1 33.8 2.65 L34.65 -0.65 Q28.2 2.95 25.05 4.0 L22.8 4.4 Q22.25 4.4 20.85 2.7 L20.85 -8.5 Q18.9 -0.7 13.7 3.15 10.35 5.65 7.9 5.65 5.85 5.65 3.15 4.0 -0.75 1.6 -2.85 -3.05 -1.65 1.45 -4.4 5.85 -7.05 10.15 -10.65 10.15 -13.8 10.15 -16.8 6.65 L-24.25 -3.65 Q-18.25 -1.9 -17.45 -1.9 -9.45 -1.9 -6.2 -3.95 -1.85 -6.7 -1.85 -14.7 L-2.5 -31.25 Q-1.45 -27.15 5.9 -19.45 13.8 -11.25 14.8 -8.95 20.5 -11.8 21.65 -15.4 22.5 -18.1 24.15 -28.75 23.9 -25.7 26.7 -19.45 29.8 -12.4 31.85 -12.4 32.4 -12.4 35.15 -14.0 35.65 -14.0 35.7 -13.5 35.75 -13.0 36.25 -13.0 36.95 -13.0 39.1 -15.05 41.45 -17.35 45.2 -18.2 L39.75 -7.5 Q40.15 -5.5 41.7 -5.5 42.7 -5.5 45.05 -2.65 46.45 -1.4 47.8 -1.4 48.5 -1.4 51.0 -0.15 53.55 1.05 53.9 1.05 54.4 1.05 54.65 0.7 54.85 0.3 55.35 0.3 L58.75 1.15 63.05 2.0 Q67.35 2.0 69.1 0.75 L59.75 14.15 60.5 14.9 61.15 14.2 M-12.05 1.4 Q-12.05 2.4 -12.5 2.25 -13.25 3.0 -12.3 3.0 -14.35 3.0 -15.8 3.6 L-11.1 5.5 -10.4 4.85 -10.1 3.95 Q-10.05 3.55 -11.05 2.75 -12.05 1.9 -12.05 1.4 M-6.85 1.7 Q-6.85 1.35 -7.1 1.1 -7.4 0.85 -7.75 0.85 -8.1 0.85 -8.35 1.1 L-8.65 1.7 -8.35 2.3 -7.75 2.55 -7.1 2.3 Q-6.85 2.05 -6.85 1.7 M61.0 21.4 L57.2 20.1 68.0 24.75 Q65.35 23.0 61.0 21.4 M62.85 27.4 L61.85 25.1 65.4 25.85 64.25 24.4 67.8 25.05 61.5 22.25 59.75 24.3 Q60.85 25.5 61.15 27.2 L61.25 28.65 61.65 27.25 62.85 27.4 M58.6 39.55 L58.85 40.05 Q59.05 40.25 59.35 40.25 L59.9 40.05 60.1 39.55 59.9 39.05 59.35 38.85 58.85 39.05 58.6 39.55 M49.35 14.5 L52.65 14.6 58.45 9.0 Q55.35 10.4 52.05 12.6 L49.35 14.5 M41.0 3.65 Q40.95 4.15 45.5 4.4 L50.0 4.5 50.9 3.35 Q47.35 1.9 46.35 1.9 L38.0 2.85 41.0 3.65 M35.6 -9.4 L30.75 -5.0 36.1 -8.25 35.6 -9.4 M28.8 -3.7 L29.55 -5.05 Q29.25 -5.4 27.5 -3.75 L27.5 -7.0 25.6 -5.05 25.6 -14.25 Q23.85 -1.85 24.15 -1.1 L26.65 -4.8 26.5 -1.9 Q27.8 -2.25 28.8 -3.7 M7.75 -1.25 L6.65 -4.9 Q6.1 -4.85 5.65 -4.2 L5.25 -3.55 4.1 -10.5 Q4.75 -11.6 2.1 -19.25 1.65 -19.25 2.85 0.0 L2.75 -9.15 2.25 -15.5 5.5 1.25 6.4 -1.45 8.15 1.1 9.35 -1.5 9.75 0.9 15.15 -6.35 Q14.75 -6.75 10.75 -1.0 10.3 -2.45 9.25 -2.9 L7.75 -1.25 M-24.4 1.9 L-23.7 0.95 Q-21.65 4.1 -22.65 5.3 -24.7 7.65 -25.05 10.45 L-30.35 1.7 -29.15 2.45 -25.85 2.85 Q-25.2 2.85 -24.4 1.9" fill="#f4d371" fill-rule="evenodd" stroke="none"/>
  </g>
</svg>
