<?xml version="1.0" encoding="UTF-8" standalone="no"?>
<svg xmlns:ffdec="https://www.free-decompiler.com/flash" xmlns:xlink="http://www.w3.org/1999/xlink" ffdec:objectType="shape" height="62.6px" width="77.85px" xmlns="http://www.w3.org/2000/svg">
  <g transform="matrix(1.0, 0.0, 0.0, 1.0, 35.1, 25.3)">
    <path d="M16.65 -23.85 L29.25 -22.2 30.1 -22.0 30.2 -21.95 Q36.15 -20.8 38.4 -19.25 L38.35 -19.25 Q38.6 -19.05 38.8 -18.9 39.45 -18.3 39.5 -17.65 L39.25 -16.95 39.05 -16.65 Q37.1 -14.65 29.25 -13.1 18.65 -11.0 3.6 -11.0 -11.45 -11.0 -22.05 -13.1 -30.0 -14.65 -31.85 -16.65 L-31.9 -16.7 -32.1 -16.95 -32.55 -17.95 Q-32.55 -18.45 -31.75 -18.85 L-31.4 -19.05 -31.3 -19.1 Q-29.55 -20.4 -25.05 -21.5 L-24.8 -21.55 -22.05 -22.2 -10.8 -23.7 -10.55 -23.7 3.6 -24.3 16.5 -23.85 16.65 -23.85" fill="#faf2ed" fill-rule="evenodd" stroke="none"/>
    <path d="M39.55 -15.7 L40.3 -11.25 40.9 -6.1 40.95 -5.9 41.3 -0.1 Q41.3 13.95 30.25 24.75 19.35 35.4 5.6 35.4 -8.7 35.4 -20.3 25.15 -33.55 13.45 -33.55 -5.15 L-33.5 -5.9 -33.2 -9.8 -32.35 -15.75 Q-30.2 -13.65 -22.25 -12.1 -11.55 -10.0 3.6 -10.0 18.75 -10.0 29.45 -12.1 37.3 -13.65 39.55 -15.7" fill="#e1bfae" fill-rule="evenodd" stroke="none"/>
    <path d="M16.75 -24.85 L16.8 -24.85 29.45 -23.2 29.5 -23.15 30.2 -23.0 30.3 -23.0 Q36.1 -21.8 38.55 -20.3 L38.95 -20.05 40.1 -18.95 Q40.55 -18.35 40.5 -17.65 L40.45 -17.1 42.3 -5.9 42.75 0.0 Q42.75 12.95 32.95 24.4 21.9 37.3 5.85 37.3 -10.15 37.3 -22.25 25.6 -35.1 13.15 -35.1 -5.1 L-35.1 -5.9 Q-35.0 -10.05 -34.0 -16.0 L-33.55 -18.1 -33.5 -18.55 Q-33.25 -19.3 -31.9 -19.9 L-31.5 -20.15 Q-29.5 -21.45 -25.05 -22.5 L-24.9 -22.55 -22.25 -23.2 -11.05 -24.65 -10.9 -24.7 3.6 -25.3 16.75 -24.85 M16.65 -23.85 L16.5 -23.85 3.6 -24.3 -10.55 -23.7 -10.8 -23.7 -22.05 -22.2 -24.8 -21.55 -25.05 -21.5 Q-29.55 -20.4 -31.3 -19.1 L-31.4 -19.05 -31.75 -18.85 Q-32.55 -18.45 -32.55 -17.95 L-32.1 -16.95 -31.9 -16.7 -31.85 -16.65 Q-30.0 -14.65 -22.05 -13.1 -11.45 -11.0 3.6 -11.0 18.65 -11.0 29.25 -13.1 37.1 -14.65 39.05 -16.65 L39.25 -16.95 39.5 -17.65 Q39.45 -18.3 38.8 -18.9 38.6 -19.05 38.35 -19.25 L38.4 -19.25 Q36.15 -20.8 30.2 -21.95 L30.1 -22.0 29.25 -22.2 16.65 -23.85 M39.55 -15.7 Q37.3 -13.65 29.45 -12.1 18.75 -10.0 3.6 -10.0 -11.55 -10.0 -22.25 -12.1 -30.2 -13.65 -32.35 -15.75 L-33.2 -9.8 -33.5 -5.9 -33.55 -5.15 Q-33.55 13.45 -20.3 25.15 -8.7 35.4 5.6 35.4 19.35 35.4 30.25 24.75 41.3 13.95 41.3 -0.1 L40.95 -5.9 40.9 -6.1 40.3 -11.25 39.55 -15.7" fill="#6f5342" fill-rule="evenodd" stroke="none"/>
  </g>
</svg>
