<?xml version="1.0" encoding="UTF-8" standalone="no"?>
<svg xmlns:ffdec="https://www.free-decompiler.com/flash" xmlns:xlink="http://www.w3.org/1999/xlink" ffdec:objectType="shape" height="37.75px" width="32.15px" xmlns="http://www.w3.org/2000/svg">
  <g transform="matrix(1.0, 0.0, 0.0, 1.0, 9.6, 24.85)">
    <path d="M5.1 -2.45 L3.0 -3.35 2.15 -3.75 1.7 -4.2 Q1.75 -4.7 2.05 -4.8 L2.2 -4.85 3.85 -3.85 Q6.45 -2.85 12.25 -3.95 L13.35 -4.15 13.75 -3.75 Q13.7 -3.2 12.35 -2.95 L6.05 -2.35 5.75 -2.4 5.1 -2.45" fill="#333333" fill-rule="evenodd" stroke="none"/>
    <path d="M13.7 -7.2 Q16.6 -6.3 19.65 -2.65 22.8 1.25 22.55 4.25 L22.55 6.35 Q20.8 6.45 14.25 8.95 7.55 11.5 5.7 12.9 L3.65 4.3 4.4 0.8 5.25 -2.4 5.75 -2.4 6.05 -2.35 Q5.2 0.7 5.6 6.4 L6.2 11.45 15.05 5.7 16.75 5.25 20.55 4.45 19.3 0.85 Q18.05 -2.0 17.7 -2.0 12.25 -0.25 10.15 -0.25 L9.8 -0.25 9.2 -0.4 10.45 -0.75 Q11.05 -0.75 11.5 -1.1 L14.7 -2.2 Q16.05 -2.8 17.0 -3.75 L13.45 -5.2 13.7 -7.2 M3.0 -3.35 L0.1 -0.7 Q-3.9 3.35 -9.2 10.6 L-9.6 5.2 Q-9.6 3.2 -8.5 0.65 -6.8 -3.25 -3.2 -6.05 L2.3 -7.85 2.2 -5.8 Q-0.6 -5.45 -2.7 -3.75 L-1.35 -2.05 Q-2.45 -3.1 -3.35 -3.1 -4.15 -3.1 -6.0 -1.05 -7.9 1.0 -8.2 2.35 L-8.4 5.05 -8.2 7.75 Q-4.2 1.75 -1.2 -1.85 L-1.3 -1.95 -0.95 -1.95 Q0.2 -1.95 2.15 -3.75 L3.0 -3.35" fill="#605146" fill-rule="evenodd" stroke="none"/>
    <path d="M3.85 -3.85 L4.35 -12.3 Q7.7 -12.3 10.05 -11.1 12.4 -9.95 12.4 -8.25 L12.25 -3.95 Q6.45 -2.85 3.85 -3.85" fill="#eac586" fill-rule="evenodd" stroke="none"/>
    <path d="M4.35 -12.3 Q4.35 -21.95 4.1 -21.95 L12.8 -22.75 12.4 -8.25 Q12.4 -9.95 10.05 -11.1 7.7 -12.3 4.35 -12.3" fill="#e4b769" fill-rule="evenodd" stroke="none"/>
    <path d="M2.3 -7.85 L2.05 -22.75 1.9 -23.15 Q1.9 -23.55 2.6 -23.85 4.9 -24.85 13.7 -24.85 14.8 -24.95 14.8 -23.8 L13.7 -7.2 13.45 -5.2 13.35 -4.15 12.25 -3.95 12.4 -8.25 12.8 -22.75 4.1 -21.95 Q4.35 -21.95 4.35 -12.3 L3.85 -3.85 2.2 -4.85 2.2 -5.8 2.3 -7.85" fill="#68502b" fill-rule="evenodd" stroke="none"/>
    <path d="M5.25 -2.4 L5.1 -2.45 5.75 -2.4 5.25 -2.4 M2.15 -3.75 Q0.2 -1.95 -0.95 -1.95 L-1.3 -1.95 -1.35 -1.95 -1.35 -2.05 -2.7 -3.75 -0.25 -3.85 2.15 -3.75 M11.5 -1.1 Q11.05 -0.75 10.45 -0.75 L9.2 -0.4 9.8 -0.25 10.15 -0.25 Q12.05 -0.1 13.5 1.5 15.05 3.25 15.05 5.7 L6.2 11.45 5.6 6.4 Q5.2 0.7 6.05 -2.35 L12.35 -2.95 Q12.35 -2.05 11.8 -1.4 L11.5 -1.1" fill="#ebe7de" fill-rule="evenodd" stroke="none"/>
    <path d="M2.2 -5.8 L2.2 -4.85 2.05 -4.8 Q1.75 -4.7 1.7 -4.2 L2.15 -3.75 -0.25 -3.85 -2.7 -3.75 Q-0.6 -5.45 2.2 -5.8 M13.35 -4.15 L13.45 -5.2 17.0 -3.75 Q16.05 -2.8 14.7 -2.2 L11.5 -1.1 11.8 -1.4 Q12.35 -2.05 12.35 -2.95 13.7 -3.2 13.75 -3.75 L13.35 -4.15 M-1.3 -1.95 L-1.2 -1.85 Q-4.2 1.75 -8.2 7.75 L-8.4 5.05 -8.2 2.35 Q-7.9 1.0 -6.0 -1.05 -4.15 -3.1 -3.35 -3.1 -2.45 -3.1 -1.35 -2.05 L-1.35 -1.95 -1.3 -1.95 M15.05 5.7 Q15.05 3.25 13.5 1.5 12.05 -0.1 10.15 -0.25 12.25 -0.25 17.7 -2.0 18.05 -2.0 19.3 0.85 L20.55 4.45 16.75 5.25 15.05 5.7" fill="#cac4b7" fill-rule="evenodd" stroke="none"/>
  </g>
</svg>
