<?xml version="1.0" encoding="UTF-8" standalone="no"?>
<svg xmlns:ffdec="https://www.free-decompiler.com/flash" xmlns:xlink="http://www.w3.org/1999/xlink" ffdec:objectType="shape" height="87.25px" width="132.65px" xmlns="http://www.w3.org/2000/svg">
  <g transform="matrix(1.0, 0.0, 0.0, 1.0, 65.5, 13.75)">
    <path d="M-2.25 -5.4 L4.2 -6.1 19.25 -5.1 Q32.2 -3.05 32.2 2.55 30.7 7.55 29.75 9.1 L15.4 0.0 Q15.4 -1.6 7.65 -3.5 2.1 -4.85 -2.25 -5.4 M17.8 18.45 Q17.15 18.7 16.55 19.0 18.2 17.8 18.65 17.55 19.8 16.85 20.75 17.1 L19.65 17.65 17.8 18.45 M38.25 25.9 L43.55 30.3 43.95 31.05 Q44.45 31.8 45.1 31.8 46.1 31.8 45.85 32.5 46.35 37.15 50.5 41.85 54.75 46.75 54.95 47.75 L54.6 47.85 Q51.3 46.7 46.7 44.15 L52.95 62.15 Q48.9 56.05 44.1 44.9 38.5 32.05 38.25 25.9 M38.35 15.95 L38.7 10.05 41.45 18.5 38.35 15.95" fill="#442f20" fill-rule="evenodd" stroke="none"/>
    <path d="M29.75 9.1 Q30.7 7.55 32.2 2.55 32.2 -3.05 19.25 -5.1 L4.2 -6.1 -2.25 -5.4 Q-8.35 -5.85 -13.7 -5.1 -10.6 -6.3 -5.55 -7.75 2.1 -9.95 6.05 -9.95 18.6 -9.95 28.2 -4.85 35.9 -0.8 35.9 1.8 35.9 3.2 33.05 9.8 L32.8 10.6 32.25 11.0 29.75 9.1 M-14.8 20.85 Q-16.2 22.25 -18.45 25.5 L-22.75 31.5 Q-21.95 29.1 -21.95 27.35 -21.95 24.4 -22.6 23.35 -22.95 22.8 -23.4 22.75 L-29.05 29.2 Q-34.9 35.65 -37.55 36.1 -36.05 35.65 -33.75 32.8 -32.1 30.75 -31.6 29.75 L-31.2 28.85 -29.45 22.1 -27.15 16.7 -14.8 20.85 M38.25 25.9 Q38.5 32.05 44.1 44.9 48.9 56.05 52.95 62.15 L46.7 44.15 Q51.3 46.7 54.6 47.85 L54.95 47.75 Q54.75 46.75 50.5 41.85 46.35 37.15 45.85 32.5 51.5 39.1 52.9 41.5 L53.25 42.2 55.25 46.15 Q55.5 46.75 55.95 46.85 L56.45 47.75 60.3 54.2 54.95 51.35 Q54.0 50.85 53.35 50.85 L52.55 50.95 52.5 51.05 52.1 52.15 Q52.15 52.75 54.1 58.1 55.95 63.75 55.6 66.1 52.2 64.5 44.55 50.75 36.5 36.25 36.5 29.8 36.5 28.05 37.0 27.5 L38.0 25.75 38.25 25.9 M37.0 25.0 L34.6 31.0 Q33.85 30.05 33.2 26.25 32.6 22.8 31.2 21.65 31.65 21.45 30.65 21.45 29.45 21.85 28.55 23.45 26.75 26.65 27.75 32.85 L27.9 33.75 25.4 30.3 24.35 28.7 Q20.25 19.9 19.65 17.65 L20.75 17.1 25.25 17.85 Q28.75 19.25 32.2 21.5 L37.0 25.0 M48.8 25.95 Q43.75 20.3 41.45 18.5 L38.7 10.05 38.35 15.95 34.8 13.1 Q35.65 7.55 36.1 6.45 36.5 5.45 37.75 5.45 39.6 5.45 42.6 9.95 46.65 15.95 48.8 25.95" fill="#3a281b" fill-rule="evenodd" stroke="none"/>
    <path d="M29.75 9.1 L32.25 11.0 34.8 13.1 38.35 15.95 41.45 18.5 Q43.75 20.3 48.8 25.95 L53.65 32.0 56.3 36.45 Q58.35 40.9 57.45 43.9 L56.9 46.4 Q56.8 46.9 56.2 46.9 L55.95 46.85 Q55.5 46.75 55.25 46.15 L53.25 42.2 52.9 41.5 Q51.5 39.1 45.85 32.5 46.1 31.8 45.1 31.8 44.45 31.8 43.95 31.05 L43.55 30.3 38.25 25.9 38.0 25.75 37.0 25.0 32.2 21.5 Q28.75 19.25 25.25 17.85 L20.75 17.1 Q19.8 16.85 18.65 17.55 18.2 17.8 16.55 19.0 14.2 20.75 8.05 22.65 2.7 24.25 1.3 24.25 L-2.9 23.7 -11.65 21.8 -14.8 20.85 -27.15 16.7 -29.45 22.1 -31.2 28.85 -31.6 29.75 -33.65 29.4 Q-57.8 26.4 -60.9 25.35 -63.85 24.35 -64.75 22.45 -65.5 20.95 -65.5 17.2 -65.5 14.6 -60.45 11.65 -55.6 8.9 -49.4 8.1 L-40.65 7.7 -31.4 7.1 -28.75 3.75 -25.9 0.35 Q-24.1 -0.9 -21.0 -2.45 -16.6 -4.65 -13.7 -5.1 -8.35 -5.85 -2.25 -5.4 2.1 -4.85 7.65 -3.5 15.4 -1.6 15.4 0.0 L29.75 9.1 M46.35 24.75 Q40.8 18.8 27.6 9.05 13.45 -1.45 9.85 -1.45 L2.1 -3.05 Q-5.25 -4.7 -7.5 -4.7 -13.3 -4.7 -16.9 -3.2 -19.25 -2.25 -19.3 -2.35 L-23.35 -0.2 Q-24.3 0.25 -26.7 2.45 -29.55 5.15 -30.25 7.05 L-21.3 6.7 -17.0 6.65 Q5.45 8.9 9.75 10.2 17.8 12.5 19.7 13.4 21.15 14.15 20.8 15.3 28.8 17.95 34.5 21.8 37.75 24.0 45.6 30.85 L47.75 33.1 50.1 35.7 52.25 38.5 Q54.2 41.3 56.05 45.1 57.45 41.3 57.45 40.3 57.45 39.7 56.7 38.55 L56.0 37.55 53.5 33.5 50.85 29.95 48.35 27.0 46.35 24.75 M-11.35 20.8 L-4.35 22.7 -4.35 22.65 1.8 23.1 Q7.1 23.1 11.7 20.7 16.45 18.2 18.4 14.2 14.4 12.6 9.8 11.25 L5.1 10.05 Q-1.55 8.5 -9.95 7.95 L-17.0 7.65 -21.35 7.7 Q-64.75 8.75 -64.75 18.75 -64.75 19.75 -64.55 19.75 L-64.2 20.1 Q-60.3 11.75 -46.8 11.75 -39.75 11.75 -34.05 13.35 -28.5 14.8 -21.95 17.35 -15.75 19.7 -11.35 20.8 M-43.7 26.6 L-35.6 27.35 Q-32.85 27.35 -31.35 24.7 -30.25 22.75 -30.25 20.7 L-30.3 20.2 -30.35 20.4 -36.1 16.2 Q-42.55 12.4 -48.95 12.75 L-54.7 13.65 Q-59.05 15.3 -60.85 16.65 -63.7 18.8 -63.7 22.15 -63.7 23.4 -62.8 23.95 -61.55 24.45 -60.9 24.85 L-43.7 26.6" fill="#000000" fill-rule="evenodd" stroke="none"/>
    <path d="M-21.3 6.7 L-30.25 7.05 Q-29.55 5.15 -26.7 2.45 -24.3 0.25 -23.35 -0.2 L-19.3 -2.35 Q-19.25 -2.25 -16.9 -3.2 -13.3 -4.7 -7.5 -4.7 -5.25 -4.7 2.1 -3.05 L9.85 -1.45 Q13.45 -1.45 27.6 9.05 40.8 18.8 46.35 24.75 L45.6 30.85 Q37.75 24.0 34.5 21.8 28.8 17.95 20.8 15.3 21.15 14.15 19.7 13.4 17.8 12.5 9.75 10.2 9.65 4.65 5.35 1.05 1.05 -2.6 -5.35 -2.6 -17.25 -2.6 -21.3 6.7 M48.35 27.0 L50.85 29.95 50.1 35.7 47.75 33.1 Q48.25 29.7 48.35 27.0 M-11.35 20.8 Q-8.15 16.15 -3.3 13.1 1.25 10.25 5.1 10.05 L9.8 11.25 Q14.4 12.6 18.4 14.2 16.45 18.2 11.7 20.7 7.1 23.1 1.8 23.1 L-4.35 22.65 -4.35 22.7 -11.35 20.8 M-21.35 7.7 L-28.05 10.3 Q-33.15 12.45 -34.05 13.35 -39.75 11.75 -46.8 11.75 -60.3 11.75 -64.2 20.1 L-64.55 19.75 Q-64.75 19.75 -64.75 18.75 -64.75 8.75 -21.35 7.7 M-43.7 26.6 L-60.9 24.85 Q-61.55 24.45 -62.8 23.95 -63.7 23.4 -63.7 22.15 -63.7 18.8 -60.85 16.65 -59.05 15.3 -54.7 13.65 -50.15 13.65 -46.9 17.45 -43.7 21.25 -43.7 26.6" fill="#333333" fill-rule="evenodd" stroke="none"/>
    <path d="M45.6 30.85 L46.35 24.75 48.35 27.0 Q48.25 29.7 47.75 33.1 L45.6 30.85 M50.85 29.95 L53.5 33.5 56.0 37.55 56.7 38.55 Q57.45 39.7 57.45 40.3 57.45 41.3 56.05 45.1 54.2 41.3 52.25 38.5 L50.1 35.7 50.85 29.95 M-54.7 13.65 L-48.95 12.75 Q-42.55 12.4 -36.1 16.2 L-30.35 20.4 -30.3 20.2 -30.25 20.7 Q-30.25 22.75 -31.35 24.7 -32.85 27.35 -35.6 27.35 L-43.7 26.6 Q-43.7 21.25 -46.9 17.45 -50.15 13.65 -54.7 13.65" fill="#151515" fill-rule="evenodd" stroke="none"/>
    <path d="M-21.3 6.7 Q-17.25 -2.6 -5.35 -2.6 1.05 -2.6 5.35 1.05 9.65 4.65 9.75 10.2 5.45 8.9 -17.0 6.65 L-21.3 6.7 M5.1 10.05 Q1.25 10.25 -3.3 13.1 -8.15 16.15 -11.35 20.8 -15.75 19.7 -21.95 17.35 -28.5 14.8 -34.05 13.35 -33.15 12.45 -28.05 10.3 L-21.35 7.7 -17.0 7.65 -9.95 7.95 Q-1.55 8.5 5.1 10.05" fill="#444444" fill-rule="evenodd" stroke="none"/>
    <path d="M32.25 11.0 L32.8 10.6 33.05 9.8 Q35.9 3.2 35.9 1.8 35.9 -0.8 28.2 -4.85 18.6 -9.95 6.05 -9.95 2.1 -9.95 -5.55 -7.75 -10.6 -6.3 -13.7 -5.1 -16.6 -4.65 -21.0 -2.45 -24.1 -0.9 -25.9 0.35 -17.7 -8.8 -12.85 -11.1 -7.15 -13.75 6.3 -13.75 27.35 -13.75 38.05 -3.95 49.55 6.55 53.65 32.0 L48.8 25.95 Q46.65 15.95 42.6 9.95 39.6 5.45 37.75 5.45 36.5 5.45 36.1 6.45 35.65 7.55 34.8 13.1 L32.25 11.0 M57.45 43.9 Q62.3 51.85 65.7 55.75 67.15 57.4 67.15 58.85 L65.55 60.15 Q64.95 59.95 56.65 55.6 59.5 67.6 61.05 73.4 L60.7 73.5 Q48.75 69.7 39.8 49.75 37.3 44.25 34.1 35.05 31.35 27.2 30.45 25.65 29.65 29.15 29.65 30.85 L30.05 33.85 30.45 36.85 Q30.45 37.9 29.3 37.9 27.85 37.9 22.6 29.7 18.3 20.4 17.8 18.45 L19.65 17.65 Q20.25 19.9 24.35 28.7 L25.4 30.3 27.9 33.75 27.75 32.85 Q26.75 26.65 28.55 23.45 29.45 21.85 30.65 21.45 31.65 21.45 31.2 21.65 32.6 22.8 33.2 26.25 33.85 30.05 34.6 31.0 L37.0 25.0 38.0 25.75 37.0 27.5 Q36.5 28.05 36.5 29.8 36.5 36.25 44.55 50.75 52.2 64.5 55.6 66.1 55.95 63.75 54.1 58.1 52.15 52.75 52.1 52.15 L52.5 51.05 52.55 50.95 53.35 50.85 Q54.0 50.85 54.95 51.35 L60.3 54.2 56.45 47.75 55.95 46.85 56.2 46.9 Q56.8 46.9 56.9 46.4 L57.45 43.9 M-11.65 21.8 Q-13.25 22.95 -18.1 30.4 -22.15 36.6 -26.75 37.7 L-27.2 37.5 -25.7 33.2 Q-24.15 29.05 -24.0 27.95 L-24.0 26.8 Q-26.1 32.65 -31.6 35.95 -35.7 38.45 -39.0 38.45 L-40.95 38.2 -41.1 37.65 -41.25 36.75 -38.85 35.35 Q-35.95 33.25 -33.65 29.4 L-31.6 29.75 Q-32.1 30.75 -33.75 32.8 -36.05 35.65 -37.55 36.1 -34.9 35.65 -29.05 29.2 L-23.4 22.75 Q-22.95 22.8 -22.6 23.35 -21.95 24.4 -21.95 27.35 -21.95 29.1 -22.75 31.5 L-18.45 25.5 Q-16.2 22.25 -14.8 20.85 L-11.65 21.8" fill="#231810" fill-rule="evenodd" stroke="none"/>
  </g>
</svg>
