<?xml version="1.0" encoding="UTF-8" standalone="no"?>
<svg xmlns:ffdec="https://www.free-decompiler.com/flash" xmlns:xlink="http://www.w3.org/1999/xlink" ffdec:objectType="shape" height="107.15px" width="120.15px" xmlns="http://www.w3.org/2000/svg">
  <g transform="matrix(1.0, 0.0, 0.0, 1.0, 0.05, 107.15)">
    <path d="M54.45 -76.75 L54.45 -83.65 Q58.85 -82.15 65.2 -82.9 L65.2 -82.1 63.1 -80.6 Q58.8 -77.65 55.0 -76.85 L54.45 -76.75 M54.45 -69.55 L55.0 -69.65 Q58.8 -70.45 63.1 -73.4 64.25 -74.15 65.2 -74.85 L65.2 -67.7 63.1 -66.2 Q58.8 -63.25 55.0 -62.45 L54.45 -62.35 54.45 -69.55 M54.45 -55.15 L55.0 -55.25 Q58.8 -56.05 63.1 -59.0 64.25 -59.75 65.2 -60.45 L65.2 -53.0 63.1 -51.5 Q58.8 -48.55 55.0 -47.75 L54.45 -47.65 54.45 -55.15 M54.45 -40.45 L55.0 -40.55 Q58.8 -41.35 63.1 -44.3 64.25 -45.05 65.2 -45.75 L65.2 -38.0 63.1 -36.5 Q58.8 -33.55 55.0 -32.75 L54.45 -32.65 54.45 -40.45 M7.7 -76.75 L7.7 -83.65 Q12.1 -82.15 18.45 -82.9 L18.45 -82.1 16.35 -80.6 Q12.05 -77.65 8.25 -76.85 L7.7 -76.75 M7.7 -62.35 L7.7 -69.55 8.25 -69.65 Q12.05 -70.45 16.35 -73.4 L18.45 -74.85 18.45 -67.7 16.35 -66.2 Q12.05 -63.25 8.25 -62.45 L7.7 -62.35 M7.7 -55.15 L8.25 -55.25 Q12.05 -56.05 16.35 -59.0 L18.45 -60.45 18.45 -53.0 16.35 -51.5 Q12.05 -48.55 8.25 -47.75 L7.7 -47.65 7.7 -55.15 M18.45 -30.75 L18.45 -23.3 16.35 -21.8 Q12.05 -18.85 8.25 -18.05 L7.7 -17.95 7.7 -25.45 8.25 -25.55 Q12.05 -26.35 16.35 -29.3 L18.45 -30.75 M13.15 -12.6 L16.35 -14.6 18.45 -16.1 18.45 -13.85 Q15.8 -12.65 13.15 -12.6 M18.45 -45.75 L18.45 -38.0 16.35 -36.5 Q12.05 -33.55 8.25 -32.75 L7.7 -32.65 7.7 -40.45 8.25 -40.55 Q12.05 -41.35 16.35 -44.3 L18.45 -45.75 M54.45 -25.45 L55.0 -25.55 Q58.8 -26.35 63.1 -29.3 64.25 -30.05 65.2 -30.75 L65.2 -23.3 63.1 -21.8 Q58.8 -18.85 55.0 -18.05 L54.45 -17.95 54.45 -25.45 M59.9 -12.6 L63.1 -14.6 65.2 -16.1 65.2 -13.85 Q62.55 -12.65 59.9 -12.6 M101.45 -76.75 L101.45 -83.65 Q105.85 -82.15 112.2 -82.9 L112.2 -82.1 110.1 -80.6 Q105.8 -77.65 102.0 -76.85 L101.45 -76.75 M101.45 -62.35 L101.45 -69.55 102.0 -69.65 Q105.8 -70.45 110.1 -73.4 L112.2 -74.85 112.2 -67.7 110.1 -66.2 Q105.8 -63.25 102.0 -62.45 L101.45 -62.35 M101.45 -55.15 L102.0 -55.25 Q105.8 -56.05 110.1 -59.0 L112.2 -60.45 112.2 -53.0 110.1 -51.5 Q105.8 -48.55 102.0 -47.75 L101.45 -47.65 101.45 -55.15 M101.45 -40.45 L102.0 -40.55 Q105.8 -41.35 110.1 -44.3 L112.2 -45.75 112.2 -38.0 110.1 -36.5 Q105.8 -33.55 102.0 -32.75 L101.45 -32.65 101.45 -40.45 M101.45 -25.45 L102.0 -25.55 Q105.8 -26.35 110.1 -29.3 L112.2 -30.75 112.2 -23.3 110.1 -21.8 Q105.8 -18.85 102.0 -18.05 L101.45 -17.95 101.45 -25.45 M112.2 -16.1 L112.2 -13.85 Q109.55 -12.65 106.9 -12.6 L110.1 -14.6 112.2 -16.1" fill="#ffffff" fill-rule="evenodd" stroke="none"/>
    <path d="M62.35 -87.55 L63.2 -87.65 64.45 -87.85 Q66.95 -88.25 69.05 -89.15 L69.05 -86.0 68.8 -85.7 67.6 -84.3 67.6 -86.15 Q62.4 -84.95 57.95 -85.2 60.05 -86.1 62.35 -87.55 M69.05 -78.35 L69.05 -71.6 68.8 -71.3 67.6 -69.9 67.6 -76.85 69.05 -78.35 M69.05 -63.95 L69.05 -56.9 68.8 -56.6 67.6 -55.2 67.6 -62.45 69.05 -63.95 M69.05 -49.3 L69.05 -41.9 68.8 -41.6 67.6 -40.2 67.6 -47.75 69.05 -49.3 M69.05 -34.25 L69.05 -27.2 68.8 -26.9 67.6 -25.5 67.6 -32.75 69.05 -34.25 M69.05 -19.6 L69.05 -17.25 69.1 -17.1 69.05 -13.55 Q69.0 -12.65 67.6 -11.95 L67.6 -18.05 69.05 -19.6 M50.8 -18.15 L50.8 -25.65 Q51.5 -25.3 52.6 -25.3 L52.6 -17.75 51.75 -17.85 Q51.2 -17.95 50.8 -18.15 M50.8 -32.85 L50.8 -40.65 Q51.5 -40.3 52.6 -40.3 L52.6 -32.45 51.75 -32.55 Q51.2 -32.65 50.8 -32.85 M50.8 -47.85 L50.8 -55.35 52.6 -55.0 52.6 -47.45 51.75 -47.55 Q51.2 -47.65 50.8 -47.85 M50.8 -62.55 L50.8 -69.75 Q51.5 -69.4 52.6 -69.4 L52.6 -62.15 51.75 -62.25 Q51.2 -62.35 50.8 -62.55 M50.8 -76.95 L50.8 -84.45 Q51.5 -84.1 52.6 -84.1 L52.6 -76.55 51.75 -76.65 Q51.2 -76.75 50.8 -76.95 M20.85 -84.3 L20.85 -86.15 Q15.65 -84.95 11.2 -85.2 13.3 -86.1 15.6 -87.55 L16.45 -87.65 17.7 -87.85 Q20.2 -88.25 22.3 -89.15 L22.3 -86.0 22.05 -85.7 20.85 -84.3 M5.85 -84.1 L5.85 -76.55 5.0 -76.65 Q4.45 -76.75 4.05 -76.95 L4.05 -84.45 Q4.75 -84.1 5.85 -84.1 M20.85 -76.85 L22.3 -78.35 22.3 -71.6 22.05 -71.3 20.85 -69.9 20.85 -76.85 M4.05 -69.75 Q4.75 -69.4 5.85 -69.4 L5.85 -62.15 5.0 -62.25 Q4.45 -62.35 4.05 -62.55 L4.05 -69.75 M20.85 -62.45 L22.3 -63.95 22.3 -56.9 22.05 -56.6 20.85 -55.2 20.85 -62.45 M4.05 -55.35 L5.85 -55.0 5.85 -47.45 5.0 -47.55 Q4.45 -47.65 4.05 -47.85 L4.05 -55.35 M20.85 -47.75 L22.3 -49.3 22.3 -41.9 22.05 -41.6 20.85 -40.2 20.85 -47.75 M22.3 -34.25 L22.3 -27.2 22.05 -26.9 20.85 -25.5 20.85 -32.75 22.3 -34.25 M22.3 -19.6 L22.3 -17.25 22.35 -17.1 22.3 -13.55 Q22.25 -12.65 20.85 -11.95 L20.85 -18.05 22.3 -19.6 M4.05 -18.15 L4.05 -25.65 Q4.75 -25.3 5.85 -25.3 L5.85 -17.75 5.0 -17.85 Q4.45 -17.95 4.05 -18.15 M4.05 -32.85 L4.05 -40.65 Q4.75 -40.3 5.85 -40.3 L5.85 -32.45 5.0 -32.55 Q4.45 -32.65 4.05 -32.85 M109.35 -87.55 L110.2 -87.65 111.45 -87.85 Q113.95 -88.25 116.05 -89.15 L116.05 -86.0 115.8 -85.7 114.6 -84.3 114.6 -86.15 Q109.4 -84.95 104.95 -85.2 107.05 -86.1 109.35 -87.55 M116.05 -78.35 L116.05 -71.6 115.8 -71.3 114.6 -69.9 114.6 -76.85 116.05 -78.35 M116.05 -63.95 L116.05 -56.9 115.8 -56.6 114.6 -55.2 114.6 -62.45 116.05 -63.95 M116.05 -49.3 L116.05 -41.9 115.8 -41.6 114.6 -40.2 114.6 -47.75 116.05 -49.3 M116.05 -34.25 L116.05 -27.2 115.8 -26.9 114.6 -25.5 114.6 -32.75 116.05 -34.25 M116.05 -19.6 L116.05 -17.25 116.1 -17.1 116.05 -13.55 Q116.0 -12.65 114.6 -11.95 L114.6 -18.05 116.05 -19.6 M97.8 -18.15 L97.8 -25.65 Q98.5 -25.3 99.6 -25.3 L99.6 -17.75 98.75 -17.85 97.8 -18.15 M97.8 -32.85 L97.8 -40.65 Q98.5 -40.3 99.6 -40.3 L99.6 -32.45 98.75 -32.55 97.8 -32.85 M97.8 -47.85 L97.8 -55.35 99.6 -55.0 99.6 -47.45 98.75 -47.55 97.8 -47.85 M97.8 -62.55 L97.8 -69.75 Q98.5 -69.4 99.6 -69.4 L99.6 -62.15 98.75 -62.25 97.8 -62.55 M97.8 -76.95 L97.8 -84.45 Q98.5 -84.1 99.6 -84.1 L99.6 -76.55 98.75 -76.65 97.8 -76.95" fill="#cccccc" fill-rule="evenodd" stroke="none"/>
    <path d="M67.6 -11.95 L66.55 -11.45 66.6 -11.45 66.1 -11.3 64.45 -10.85 63.2 -10.65 59.9 -10.45 55.25 -10.9 Q57.45 -11.4 59.85 -12.6 L59.9 -12.6 Q62.55 -12.65 65.2 -13.85 L65.2 -16.1 67.6 -18.05 67.6 -11.95 M57.9 -85.2 L57.95 -85.2 Q62.4 -84.95 67.6 -86.15 L67.6 -84.3 65.2 -82.1 65.2 -82.9 Q58.85 -82.15 54.45 -83.65 L54.45 -76.75 52.6 -76.55 52.6 -84.1 55.0 -84.35 Q56.4 -84.65 57.9 -85.2 M65.2 -74.85 L67.6 -76.85 67.6 -69.9 65.2 -67.7 65.2 -74.85 M52.6 -69.4 L54.45 -69.55 54.45 -62.35 52.6 -62.15 52.6 -69.4 M65.2 -60.45 L67.6 -62.45 67.6 -55.2 65.2 -53.0 65.2 -60.45 M52.6 -55.0 L54.45 -55.15 54.45 -47.65 52.6 -47.45 52.6 -55.0 M11.2 -85.2 Q15.65 -84.95 20.85 -86.15 L20.85 -84.3 18.45 -82.1 18.45 -82.9 Q12.1 -82.15 7.7 -83.65 L7.7 -76.75 5.85 -76.55 5.85 -84.1 8.25 -84.35 Q9.65 -84.65 11.15 -85.2 L11.2 -85.2 M5.85 -69.4 L7.7 -69.55 7.7 -62.35 5.85 -62.15 5.85 -69.4 M18.45 -74.85 L20.85 -76.85 20.85 -69.9 18.45 -67.7 18.45 -74.85 M5.85 -55.0 L7.7 -55.15 7.7 -47.65 5.85 -47.45 5.85 -55.0 M18.45 -53.0 L18.45 -60.45 20.85 -62.45 20.85 -55.2 18.45 -53.0 M20.85 -47.75 L20.85 -40.2 18.45 -38.0 18.45 -45.75 20.85 -47.75 M20.85 -11.95 L19.8 -11.45 19.85 -11.45 19.35 -11.3 17.7 -10.85 16.45 -10.65 13.15 -10.45 8.5 -10.9 Q10.7 -11.4 13.1 -12.6 L13.15 -12.6 Q15.8 -12.65 18.45 -13.85 L18.45 -16.1 20.85 -18.05 20.85 -11.95 M20.85 -32.75 L20.85 -25.5 18.45 -23.3 18.45 -30.75 20.85 -32.75 M7.7 -40.45 L7.7 -32.65 5.85 -32.45 5.85 -40.3 7.7 -40.45 M7.7 -25.45 L7.7 -17.95 5.85 -17.75 5.85 -25.3 7.7 -25.45 M67.6 -47.75 L67.6 -40.2 65.2 -38.0 65.2 -45.75 67.6 -47.75 M65.2 -30.75 L67.6 -32.75 67.6 -25.5 65.2 -23.3 65.2 -30.75 M54.45 -25.45 L54.45 -17.95 52.6 -17.75 52.6 -25.3 54.45 -25.45 M52.6 -40.3 L54.45 -40.45 54.45 -32.65 52.6 -32.45 52.6 -40.3 M114.6 -11.95 L113.55 -11.45 113.6 -11.45 113.1 -11.3 111.45 -10.85 110.2 -10.65 106.9 -10.45 102.25 -10.9 Q104.45 -11.4 106.85 -12.6 L106.9 -12.6 Q109.55 -12.65 112.2 -13.85 L112.2 -16.1 114.6 -18.05 114.6 -11.95 M104.95 -85.2 Q109.4 -84.95 114.6 -86.15 L114.6 -84.3 112.2 -82.1 112.2 -82.9 Q105.85 -82.15 101.45 -83.65 L101.45 -76.75 99.6 -76.55 99.6 -84.1 102.0 -84.35 104.9 -85.2 104.95 -85.2 M112.2 -74.85 L114.6 -76.85 114.6 -69.9 112.2 -67.7 112.2 -74.85 M99.6 -62.15 L99.6 -69.4 101.45 -69.55 101.45 -62.35 99.6 -62.15 M99.6 -55.0 L101.45 -55.15 101.45 -47.65 99.6 -47.45 99.6 -55.0 M114.6 -55.2 L112.2 -53.0 112.2 -60.45 114.6 -62.45 114.6 -55.2 M112.2 -45.75 L114.6 -47.75 114.6 -40.2 112.2 -38.0 112.2 -45.75 M101.45 -40.45 L101.45 -32.65 99.6 -32.45 99.6 -40.3 101.45 -40.45 M112.2 -30.75 L114.6 -32.75 114.6 -25.5 112.2 -23.3 112.2 -30.75 M99.6 -25.3 L101.45 -25.45 101.45 -17.95 99.6 -17.75 99.6 -25.3" fill="#eaeaea" fill-rule="evenodd" stroke="none"/>
    <path d="M94.85 -101.85 L94.7 -101.1 94.75 -100.7 94.75 -100.65 94.85 -100.35 94.85 -99.2 94.9 -98.5 94.75 -98.65 94.75 -93.55 Q94.75 -92.55 95.35 -92.0 L95.35 -91.95 97.0 -90.75 97.5 -90.4 97.55 -90.4 98.15 -90.1 Q101.75 -88.5 106.9 -88.5 111.05 -88.5 114.3 -89.55 L115.7 -90.1 116.35 -90.4 116.4 -90.4 Q119.05 -91.75 119.1 -93.55 L119.1 -93.85 119.1 -98.65 118.85 -98.4 118.8 -99.9 119.1 -101.0 119.1 -101.1 Q119.05 -103.1 115.7 -104.6 112.05 -106.15 106.9 -106.15 101.75 -106.15 98.15 -104.6 95.45 -103.4 94.9 -101.9 L94.85 -101.9 94.85 -101.85 M93.75 -100.5 L93.7 -101.1 Q93.65 -103.7 97.75 -105.5 101.55 -107.15 106.9 -107.15 112.25 -107.15 116.1 -105.5 120.15 -103.7 120.1 -101.1 L120.1 -93.85 120.1 -93.55 Q120.15 -91.25 117.05 -89.65 L117.05 -17.55 Q120.0 -15.95 120.1 -13.85 L120.1 -13.6 120.1 -6.05 120.1 -5.85 120.1 -5.8 Q120.0 -3.4 116.1 -1.7 L114.6 -1.1 Q111.25 0.0 106.9 0.0 102.8 0.0 99.6 -1.0 L97.75 -1.7 Q93.95 -3.35 93.7 -5.65 L93.5 -5.6 73.15 -5.6 73.1 -5.6 Q72.85 -3.35 69.1 -1.7 L67.6 -1.1 Q64.25 0.0 59.9 0.0 55.8 0.0 52.6 -1.0 L50.75 -1.7 Q46.95 -3.35 46.75 -5.6 L26.35 -5.6 Q26.1 -3.35 22.35 -1.7 L20.85 -1.1 Q17.5 0.0 13.15 0.0 9.05 0.0 5.85 -1.0 L4.0 -1.7 Q0.05 -3.4 -0.05 -5.8 L-0.05 -5.85 -0.05 -6.05 -0.05 -13.6 -0.05 -13.85 Q0.05 -15.95 3.05 -17.55 L3.05 -89.65 2.7 -89.9 0.95 -91.2 0.9 -91.2 Q0.0 -92.05 0.0 -93.55 L0.0 -100.5 -0.05 -101.1 Q-0.1 -103.7 4.0 -105.5 7.8 -107.15 13.15 -107.15 18.5 -107.15 22.35 -105.5 26.4 -103.7 26.35 -101.1 L26.35 -99.05 46.75 -99.05 46.75 -100.5 46.7 -101.1 Q46.65 -103.7 50.75 -105.5 54.55 -107.15 59.9 -107.15 65.25 -107.15 69.1 -105.5 73.15 -103.7 73.1 -101.1 L73.1 -99.05 93.5 -99.05 93.75 -99.0 93.75 -100.5 M1.1 -101.85 L0.95 -101.1 1.0 -100.7 1.0 -100.65 1.1 -100.35 1.1 -99.2 1.15 -98.5 1.0 -98.65 1.0 -93.55 Q1.0 -92.55 1.6 -92.0 L1.6 -91.95 3.25 -90.75 3.75 -90.4 3.8 -90.4 4.4 -90.1 Q8.0 -88.5 13.15 -88.5 17.3 -88.5 20.55 -89.55 L21.95 -90.1 22.6 -90.4 22.65 -90.4 Q25.3 -91.75 25.35 -93.55 24.3 -94.55 24.35 -95.7 L24.35 -95.8 Q24.35 -96.95 25.35 -98.15 L25.35 -98.65 25.1 -98.4 25.05 -99.9 25.35 -101.0 25.35 -101.1 Q25.3 -103.1 21.95 -104.6 18.3 -106.15 13.15 -106.15 8.0 -106.15 4.4 -104.6 1.7 -103.4 1.15 -101.9 L1.1 -101.9 1.1 -101.85 M47.85 -101.85 L47.7 -101.1 47.75 -100.7 47.75 -100.65 47.85 -100.35 47.85 -99.2 47.9 -98.5 47.75 -98.65 47.75 -93.55 Q47.75 -92.55 48.35 -92.0 L48.35 -91.95 50.0 -90.75 50.5 -90.4 50.55 -90.4 51.15 -90.1 Q54.75 -88.5 59.9 -88.5 64.05 -88.5 67.3 -89.55 L68.7 -90.1 69.35 -90.4 69.4 -90.4 Q72.05 -91.75 72.1 -93.55 L72.1 -93.6 Q71.1 -94.6 71.15 -95.7 L71.15 -95.8 Q71.15 -96.9 72.1 -98.1 L72.1 -98.65 71.85 -98.4 71.8 -99.9 72.1 -101.0 72.1 -101.1 Q72.05 -103.1 68.7 -104.6 65.05 -106.15 59.9 -106.15 54.75 -106.15 51.15 -104.6 48.45 -103.4 47.9 -101.9 L47.85 -101.9 47.85 -101.85 M93.0 -95.8 L93.0 -98.05 73.35 -98.05 73.1 -97.75 Q72.2 -96.75 72.15 -95.8 L72.15 -95.7 Q72.2 -94.85 73.1 -94.05 L73.3 -93.9 93.0 -93.9 93.0 -95.8 M73.15 -92.9 L73.05 -92.9 Q72.7 -91.0 70.05 -89.65 L70.05 -17.55 Q73.0 -15.95 73.1 -13.85 L73.1 -13.6 73.1 -11.75 93.5 -11.75 93.7 -11.7 93.7 -13.6 93.7 -13.85 Q93.8 -15.95 96.8 -17.55 L96.8 -89.65 96.45 -89.9 94.7 -91.2 94.65 -91.2 Q93.9 -91.9 93.8 -93.0 L93.5 -92.9 73.15 -92.9 M62.35 -87.55 L62.35 -87.6 61.2 -87.5 60.05 -87.5 59.9 -87.5 54.45 -88.0 53.2 -88.3 Q51.95 -88.65 50.8 -89.15 L50.8 -84.45 50.8 -76.95 50.8 -69.75 50.8 -62.55 50.8 -55.35 50.8 -47.85 50.8 -40.65 50.8 -32.85 50.8 -25.65 50.8 -18.15 50.8 -13.55 Q50.85 -12.55 52.6 -11.75 L53.2 -11.5 53.35 -11.45 53.3 -11.45 53.8 -11.3 54.45 -11.1 55.25 -10.9 59.9 -10.45 63.2 -10.65 64.45 -10.85 66.1 -11.3 66.6 -11.45 66.55 -11.45 67.6 -11.95 Q69.0 -12.65 69.05 -13.55 L69.1 -17.1 69.05 -17.25 69.05 -19.6 69.05 -27.2 69.05 -34.25 69.05 -41.9 69.05 -49.3 69.05 -56.9 69.05 -63.95 69.05 -71.6 69.05 -78.35 69.05 -86.0 69.05 -89.15 Q66.95 -88.25 64.45 -87.85 L63.2 -87.65 62.35 -87.55 M46.8 -92.9 L46.7 -92.9 26.3 -92.9 Q25.95 -91.0 23.3 -89.65 L23.3 -17.55 Q26.25 -15.95 26.35 -13.85 L26.35 -13.6 26.35 -11.75 46.7 -11.75 46.7 -13.6 46.7 -13.85 Q46.8 -15.95 49.8 -17.55 L49.8 -89.65 49.45 -89.9 47.7 -91.2 47.65 -91.2 Q46.95 -91.85 46.8 -92.9 M46.2 -95.8 L46.2 -98.05 26.55 -98.05 26.35 -97.8 Q25.4 -96.75 25.35 -95.8 L25.35 -95.7 Q25.4 -94.8 26.35 -94.0 L26.5 -93.9 46.2 -93.9 46.2 -95.8 M22.3 -86.0 L22.3 -89.15 Q20.2 -88.25 17.7 -87.85 L16.45 -87.65 15.6 -87.55 15.6 -87.6 14.45 -87.5 13.3 -87.5 13.15 -87.5 7.7 -88.0 6.45 -88.3 Q5.2 -88.65 4.05 -89.15 L4.05 -84.45 4.05 -76.95 4.05 -69.75 4.05 -62.55 4.05 -55.35 4.05 -47.85 4.05 -40.65 4.05 -32.85 4.05 -25.65 4.05 -18.15 4.05 -13.55 Q4.1 -12.55 5.85 -11.75 L6.45 -11.5 6.6 -11.45 6.55 -11.45 7.05 -11.3 7.7 -11.1 8.5 -10.9 13.15 -10.45 16.45 -10.65 17.7 -10.85 19.35 -11.3 19.85 -11.45 19.8 -11.45 20.85 -11.95 Q22.25 -12.65 22.3 -13.55 L22.35 -17.1 22.3 -17.25 22.3 -19.6 22.3 -27.2 22.3 -34.25 22.3 -41.9 22.3 -49.3 22.3 -56.9 22.3 -63.95 22.3 -71.6 22.3 -78.35 22.3 -86.0 M18.1 -9.9 L13.15 -9.45 Q9.35 -9.45 6.65 -10.35 L6.6 -10.4 6.3 -10.5 6.25 -10.5 5.85 -10.65 Q2.95 -11.85 3.05 -13.55 L3.05 -16.4 Q1.15 -15.25 1.0 -13.85 L0.95 -13.6 0.95 -13.5 1.0 -13.2 0.95 -12.6 1.2 -10.95 0.95 -11.2 0.95 -6.05 0.95 -5.85 Q1.15 -4.0 4.4 -2.6 L4.45 -2.6 4.6 -2.5 5.85 -2.05 Q9.0 -1.0 13.15 -1.0 L18.85 -1.6 20.85 -2.15 21.95 -2.6 Q25.15 -4.0 25.35 -5.85 L25.35 -6.05 25.35 -6.25 Q24.3 -7.25 24.35 -8.4 L24.35 -8.5 Q24.35 -9.65 25.35 -10.85 L25.35 -11.15 25.1 -10.9 25.0 -11.65 24.85 -12.15 Q25.3 -12.8 25.35 -13.5 L25.35 -13.6 25.35 -13.85 Q25.15 -15.25 23.3 -16.4 L23.3 -13.55 Q23.4 -11.95 20.85 -10.8 L20.45 -10.65 18.8 -10.15 18.1 -9.9 M25.35 -8.5 L25.35 -8.4 Q25.4 -7.5 26.35 -6.7 L26.5 -6.6 46.2 -6.6 46.2 -8.5 46.2 -10.75 26.55 -10.75 26.35 -10.5 Q25.4 -9.45 25.35 -8.5 M64.85 -9.9 L59.9 -9.45 Q56.1 -9.45 53.4 -10.35 L53.35 -10.4 53.05 -10.5 53.0 -10.5 52.6 -10.65 Q49.7 -11.85 49.8 -13.55 L49.8 -16.4 Q47.9 -15.25 47.75 -13.85 L47.7 -13.6 47.7 -13.5 47.75 -13.2 47.7 -12.6 Q47.7 -11.75 47.95 -10.95 L47.7 -11.2 47.7 -6.05 47.7 -5.85 Q47.9 -4.0 51.15 -2.6 L51.2 -2.6 51.35 -2.5 52.6 -2.05 Q55.75 -1.0 59.9 -1.0 L65.6 -1.6 67.6 -2.15 68.7 -2.6 Q71.9 -4.0 72.1 -5.85 L72.1 -6.05 72.1 -6.3 Q71.1 -7.3 71.15 -8.4 L71.15 -8.5 Q71.15 -9.6 72.1 -10.8 L72.1 -11.15 71.85 -10.9 71.75 -11.65 71.6 -12.15 Q72.05 -12.8 72.1 -13.5 L72.1 -13.6 72.1 -13.85 Q71.9 -15.25 70.05 -16.4 L70.05 -13.55 Q70.15 -11.95 67.6 -10.8 L67.2 -10.65 65.55 -10.15 64.85 -9.9 M93.0 -8.5 L93.0 -10.75 73.35 -10.75 73.1 -10.45 Q72.2 -9.45 72.15 -8.5 L72.15 -8.4 Q72.2 -7.55 73.1 -6.75 L73.3 -6.6 93.0 -6.6 93.0 -8.5 M116.05 -86.0 L116.05 -89.15 Q113.95 -88.25 111.45 -87.85 L110.2 -87.65 109.35 -87.55 109.35 -87.6 108.2 -87.5 107.05 -87.5 106.9 -87.5 101.45 -88.0 100.2 -88.3 Q98.95 -88.65 97.8 -89.15 L97.8 -84.45 97.8 -76.95 97.8 -69.75 97.8 -62.55 97.8 -55.35 97.8 -47.85 97.8 -40.65 97.8 -32.85 97.8 -25.65 97.8 -18.15 97.8 -13.55 Q97.85 -12.55 99.6 -11.75 L100.2 -11.5 100.35 -11.45 100.3 -11.45 100.8 -11.3 101.45 -11.1 102.25 -10.9 106.9 -10.45 110.2 -10.65 111.45 -10.85 113.1 -11.3 113.6 -11.45 113.55 -11.45 114.6 -11.95 Q116.0 -12.65 116.05 -13.55 L116.1 -17.1 116.05 -17.25 116.05 -19.6 116.05 -27.2 116.05 -34.25 116.05 -41.9 116.05 -49.3 116.05 -56.9 116.05 -63.95 116.05 -71.6 116.05 -78.35 116.05 -86.0 M94.75 -13.2 L94.7 -12.6 94.95 -10.95 94.7 -11.2 94.7 -6.05 94.7 -5.85 Q94.9 -4.0 98.15 -2.6 L98.2 -2.6 98.35 -2.5 99.6 -2.05 Q102.75 -1.0 106.9 -1.0 L112.6 -1.6 114.6 -2.15 115.7 -2.6 Q118.9 -4.0 119.1 -5.85 L119.1 -6.05 119.1 -11.15 118.85 -10.9 118.75 -11.65 118.6 -12.15 Q119.05 -12.8 119.1 -13.5 L119.1 -13.6 119.1 -13.85 Q118.9 -15.25 117.05 -16.4 L117.05 -13.55 Q117.15 -11.95 114.6 -10.8 L114.2 -10.65 112.55 -10.15 111.85 -9.9 106.9 -9.45 Q103.1 -9.45 100.4 -10.35 L100.35 -10.4 100.05 -10.5 100.0 -10.5 99.6 -10.65 Q96.7 -11.85 96.8 -13.55 L96.8 -16.4 Q94.9 -15.25 94.75 -13.85 L94.7 -13.6 94.7 -13.5 94.75 -13.2" fill="#42220d" fill-rule="evenodd" stroke="none"/>
    <path d="M98.4 -96.45 Q101.95 -95.05 106.9 -95.05 111.1 -95.05 114.35 -96.05 L114.25 -93.0 114.3 -89.55 Q111.05 -88.5 106.9 -88.5 101.75 -88.5 98.15 -90.1 L98.15 -90.65 98.4 -96.45 M100.35 -103.1 Q103.05 -104.15 106.9 -104.15 110.8 -104.15 113.55 -103.1 115.95 -102.25 116.05 -101.05 115.95 -99.85 113.55 -98.95 L113.6 -98.95 113.1 -98.8 Q110.5 -97.95 106.9 -97.95 103.35 -97.95 100.8 -98.8 L100.3 -98.95 100.35 -98.95 Q97.9 -99.85 97.8 -101.05 97.9 -102.25 100.35 -103.1 M4.65 -96.45 Q8.2 -95.05 13.15 -95.05 17.35 -95.05 20.6 -96.05 L20.5 -93.0 20.55 -89.55 Q17.3 -88.5 13.15 -88.5 8.0 -88.5 4.4 -90.1 L4.4 -90.65 4.65 -96.45 M6.6 -103.1 Q9.3 -104.15 13.15 -104.15 17.05 -104.15 19.8 -103.1 22.2 -102.25 22.3 -101.05 22.2 -99.85 19.8 -98.95 L19.85 -98.95 19.35 -98.8 Q16.75 -97.95 13.15 -97.95 9.6 -97.95 7.05 -98.8 L6.55 -98.95 6.6 -98.95 Q4.15 -99.85 4.05 -101.05 4.15 -102.25 6.6 -103.1 M51.4 -96.45 Q54.95 -95.05 59.9 -95.05 64.1 -95.05 67.35 -96.05 L67.25 -93.0 67.3 -89.55 Q64.05 -88.5 59.9 -88.5 54.75 -88.5 51.15 -90.1 L51.15 -90.65 51.4 -96.45 M53.35 -103.1 Q56.05 -104.15 59.9 -104.15 63.8 -104.15 66.55 -103.1 68.95 -102.25 69.05 -101.05 68.95 -99.85 66.55 -98.95 L66.6 -98.95 66.1 -98.8 Q63.5 -97.95 59.9 -97.95 56.35 -97.95 53.8 -98.8 L53.3 -98.95 53.35 -98.95 Q50.9 -99.85 50.8 -101.05 50.9 -102.25 53.35 -103.1 M18.85 -1.6 L13.15 -1.0 Q9.0 -1.0 5.85 -2.05 L4.6 -2.5 4.55 -9.0 Q5.15 -8.75 5.85 -8.55 9.05 -7.55 13.15 -7.55 L19.0 -8.15 18.85 -2.4 18.85 -1.6 M65.6 -1.6 L59.9 -1.0 Q55.75 -1.0 52.6 -2.05 L51.35 -2.5 51.3 -9.0 52.6 -8.55 Q55.8 -7.55 59.9 -7.55 L65.75 -8.15 65.6 -2.4 65.6 -1.6 M98.3 -9.0 L99.6 -8.55 Q102.8 -7.55 106.9 -7.55 L112.75 -8.15 112.6 -2.4 112.6 -1.6 106.9 -1.0 Q102.75 -1.0 99.6 -2.05 L98.35 -2.5 98.3 -9.0" fill="#8b471b" fill-rule="evenodd" stroke="none"/>
    <path d="M94.85 -101.85 L94.85 -101.8 94.9 -101.9 Q95.45 -103.4 98.15 -104.6 101.75 -106.15 106.9 -106.15 112.05 -106.15 115.7 -104.6 119.05 -103.1 119.1 -101.1 L119.1 -101.0 118.8 -99.9 117.35 -98.5 116.05 -97.8 115.75 -97.65 115.7 -97.65 Q112.05 -96.05 106.9 -96.05 101.75 -96.05 98.15 -97.65 L98.1 -97.65 97.95 -97.75 97.85 -97.8 96.45 -98.55 Q95.2 -99.35 94.85 -100.35 L94.75 -100.65 94.75 -100.7 94.7 -101.1 94.85 -101.85 M100.35 -103.1 Q97.9 -102.25 97.8 -101.05 97.9 -99.85 100.35 -98.95 L100.3 -98.95 100.8 -98.8 Q103.35 -97.95 106.9 -97.95 110.5 -97.95 113.1 -98.8 L113.6 -98.95 113.55 -98.95 Q115.95 -99.85 116.05 -101.05 115.95 -102.25 113.55 -103.1 110.8 -104.15 106.9 -104.15 103.05 -104.15 100.35 -103.1 M1.1 -101.85 L1.1 -101.8 1.15 -101.9 Q1.7 -103.4 4.4 -104.6 8.0 -106.15 13.15 -106.15 18.3 -106.15 21.95 -104.6 25.3 -103.1 25.35 -101.1 L25.35 -101.0 25.05 -99.9 23.6 -98.5 22.3 -97.8 22.0 -97.65 21.95 -97.65 Q18.3 -96.05 13.15 -96.05 8.0 -96.05 4.4 -97.65 L4.35 -97.65 4.2 -97.75 4.1 -97.8 2.7 -98.55 Q1.45 -99.35 1.1 -100.35 L1.0 -100.65 1.0 -100.7 0.95 -101.1 1.1 -101.85 M6.6 -103.1 Q4.15 -102.25 4.05 -101.05 4.15 -99.85 6.6 -98.95 L6.55 -98.95 7.05 -98.8 Q9.6 -97.95 13.15 -97.95 16.75 -97.95 19.35 -98.8 L19.85 -98.95 19.8 -98.95 Q22.2 -99.85 22.3 -101.05 22.2 -102.25 19.8 -103.1 17.05 -104.15 13.15 -104.15 9.3 -104.15 6.6 -103.1 M47.85 -101.85 L47.85 -101.8 47.9 -101.9 Q48.45 -103.4 51.15 -104.6 54.75 -106.15 59.9 -106.15 65.05 -106.15 68.7 -104.6 72.05 -103.1 72.1 -101.1 L72.1 -101.0 71.8 -99.9 70.35 -98.5 69.05 -97.8 68.75 -97.65 68.7 -97.65 Q65.05 -96.05 59.9 -96.05 54.75 -96.05 51.15 -97.65 L51.1 -97.65 50.95 -97.75 50.85 -97.8 49.45 -98.55 Q48.2 -99.35 47.85 -100.35 L47.75 -100.65 47.75 -100.7 47.7 -101.1 47.85 -101.85 M53.35 -103.1 Q50.9 -102.25 50.8 -101.05 50.9 -99.85 53.35 -98.95 L53.3 -98.95 53.8 -98.8 Q56.35 -97.95 59.9 -97.95 63.5 -97.95 66.1 -98.8 L66.6 -98.95 66.55 -98.95 Q68.95 -99.85 69.05 -101.05 68.95 -102.25 66.55 -103.1 63.8 -104.15 59.9 -104.15 56.05 -104.15 53.35 -103.1 M72.15 -95.8 Q72.2 -96.75 73.1 -97.75 L73.35 -98.05 93.0 -98.05 93.0 -95.8 72.15 -95.8 M25.35 -95.8 Q25.4 -96.75 26.35 -97.8 L26.55 -98.05 46.2 -98.05 46.2 -95.8 25.35 -95.8 M1.0 -13.2 L0.95 -13.5 0.95 -13.6 1.0 -13.85 Q1.15 -15.25 3.05 -16.4 L3.05 -13.55 Q2.95 -11.85 5.85 -10.65 L6.25 -10.5 6.3 -10.5 6.6 -10.4 6.65 -10.35 Q9.35 -9.45 13.15 -9.45 L18.1 -9.9 19.75 -10.35 19.9 -10.4 20.1 -10.5 20.15 -10.5 20.2 -10.55 20.4 -10.6 20.45 -10.65 20.85 -10.8 Q23.4 -11.95 23.3 -13.55 L23.3 -16.4 Q25.15 -15.25 25.35 -13.85 L25.35 -13.6 25.35 -13.5 Q25.3 -12.8 24.85 -12.15 L22.95 -10.6 22.3 -10.3 22.0 -10.15 21.95 -10.15 20.85 -9.7 Q17.55 -8.55 13.15 -8.55 9.0 -8.55 5.85 -9.6 L4.4 -10.15 4.35 -10.15 4.2 -10.25 4.1 -10.3 3.6 -10.5 3.15 -10.75 3.05 -10.85 2.65 -11.1 2.55 -11.15 2.4 -11.25 2.35 -11.3 2.25 -11.35 2.15 -11.45 2.1 -11.5 1.95 -11.6 1.85 -11.7 1.2 -12.65 1.0 -13.2 M25.35 -8.5 Q25.4 -9.45 26.35 -10.5 L26.55 -10.75 46.2 -10.75 46.2 -8.5 25.35 -8.5 M47.75 -13.2 L47.7 -13.5 47.7 -13.6 47.75 -13.85 Q47.9 -15.25 49.8 -16.4 L49.8 -13.55 Q49.7 -11.85 52.6 -10.65 L53.0 -10.5 53.05 -10.5 53.35 -10.4 53.4 -10.35 Q56.1 -9.45 59.9 -9.45 L64.85 -9.9 66.5 -10.35 66.65 -10.4 66.85 -10.5 66.9 -10.5 66.95 -10.55 67.15 -10.6 67.2 -10.65 67.6 -10.8 Q70.15 -11.95 70.05 -13.55 L70.05 -16.4 Q71.9 -15.25 72.1 -13.85 L72.1 -13.6 72.1 -13.5 Q72.05 -12.8 71.6 -12.15 L69.7 -10.6 69.05 -10.3 68.75 -10.15 68.7 -10.15 67.6 -9.7 Q64.3 -8.55 59.9 -8.55 55.75 -8.55 52.6 -9.6 L51.15 -10.15 51.1 -10.15 50.95 -10.25 50.85 -10.3 50.35 -10.5 49.9 -10.75 49.8 -10.85 49.4 -11.1 49.3 -11.15 49.15 -11.25 49.1 -11.3 49.0 -11.35 48.9 -11.45 48.85 -11.5 48.7 -11.6 48.6 -11.7 47.95 -12.65 47.75 -13.2 M72.15 -8.5 Q72.2 -9.45 73.1 -10.45 L73.35 -10.75 93.0 -10.75 93.0 -8.5 72.15 -8.5 M118.6 -12.15 L116.7 -10.6 116.05 -10.3 115.75 -10.15 115.7 -10.15 114.6 -9.7 Q111.3 -8.55 106.9 -8.55 102.75 -8.55 99.6 -9.6 L98.15 -10.15 98.1 -10.15 97.95 -10.25 97.85 -10.3 97.35 -10.5 96.9 -10.75 96.8 -10.85 96.4 -11.1 96.3 -11.15 96.15 -11.25 96.1 -11.3 96.0 -11.35 95.9 -11.45 95.85 -11.5 95.7 -11.6 95.6 -11.7 94.95 -12.65 94.75 -13.2 94.7 -13.5 94.7 -13.6 94.75 -13.85 Q94.9 -15.25 96.8 -16.4 L96.8 -13.55 Q96.7 -11.85 99.6 -10.65 L100.0 -10.5 100.05 -10.5 100.35 -10.4 100.4 -10.35 Q103.1 -9.45 106.9 -9.45 L111.85 -9.9 113.5 -10.35 113.65 -10.4 113.85 -10.5 113.9 -10.5 113.95 -10.55 114.15 -10.6 114.2 -10.65 114.6 -10.8 Q117.15 -11.95 117.05 -13.55 L117.05 -16.4 Q118.9 -15.25 119.1 -13.85 L119.1 -13.6 119.1 -13.5 Q119.05 -12.8 118.6 -12.15" fill="#ab5821" fill-rule="evenodd" stroke="none"/>
    <path d="M94.9 -101.9 L94.85 -101.8 94.85 -101.85 94.85 -101.9 94.9 -101.9 M94.85 -100.35 Q95.2 -99.35 96.45 -98.55 L97.85 -97.8 97.95 -97.75 98.1 -97.65 98.15 -97.65 Q101.75 -96.05 106.9 -96.05 112.05 -96.05 115.7 -97.65 L115.75 -97.65 116.05 -97.8 117.35 -98.5 118.8 -99.9 118.85 -98.4 118.2 -97.85 117.4 -97.35 116.5 -96.9 116.05 -96.7 114.35 -96.05 Q111.1 -95.05 106.9 -95.05 101.95 -95.05 98.4 -96.45 L98.35 -96.45 98.3 -96.5 98.25 -96.5 98.1 -96.6 97.8 -96.7 97.4 -96.9 97.45 -96.9 Q96.85 -97.15 96.35 -97.45 L94.9 -98.5 94.85 -99.2 94.85 -100.35 M1.15 -101.9 L1.1 -101.8 1.1 -101.85 1.1 -101.9 1.15 -101.9 M1.1 -100.35 Q1.45 -99.35 2.7 -98.55 L4.1 -97.8 4.2 -97.75 4.35 -97.65 4.4 -97.65 Q8.0 -96.05 13.15 -96.05 18.3 -96.05 21.95 -97.65 L22.0 -97.65 22.3 -97.8 23.6 -98.5 25.05 -99.9 25.1 -98.4 24.45 -97.85 23.65 -97.35 22.75 -96.9 22.3 -96.7 20.6 -96.05 Q17.35 -95.05 13.15 -95.05 8.2 -95.05 4.65 -96.45 L4.6 -96.45 4.55 -96.5 4.5 -96.5 4.35 -96.6 4.05 -96.7 3.65 -96.9 3.7 -96.9 2.6 -97.45 Q1.7 -97.95 1.15 -98.5 L1.1 -99.2 1.1 -100.35 M47.9 -101.9 L47.85 -101.8 47.85 -101.85 47.85 -101.9 47.9 -101.9 M47.85 -100.35 Q48.2 -99.35 49.45 -98.55 L50.85 -97.8 50.95 -97.75 51.1 -97.65 51.15 -97.65 Q54.75 -96.05 59.9 -96.05 65.05 -96.05 68.7 -97.65 L68.75 -97.65 69.05 -97.8 70.35 -98.5 71.8 -99.9 71.85 -98.4 71.2 -97.85 70.4 -97.35 69.5 -96.9 69.05 -96.7 67.35 -96.05 Q64.1 -95.05 59.9 -95.05 54.95 -95.05 51.4 -96.45 L51.35 -96.45 51.3 -96.5 51.25 -96.5 51.1 -96.6 50.8 -96.7 50.4 -96.9 50.45 -96.9 Q49.85 -97.15 49.35 -97.45 L47.9 -98.5 47.85 -99.2 47.85 -100.35 M18.1 -9.9 L18.8 -10.15 20.45 -10.65 20.4 -10.6 20.2 -10.55 20.15 -10.5 20.1 -10.5 19.9 -10.4 19.75 -10.35 18.1 -9.9 M24.85 -12.15 L25.0 -11.65 25.1 -10.9 Q24.2 -10.1 22.75 -9.4 L22.45 -9.25 22.3 -9.2 20.85 -8.65 20.8 -8.65 19.0 -8.15 13.15 -7.55 Q9.05 -7.55 5.85 -8.55 5.15 -8.75 4.55 -9.0 L4.05 -9.2 3.65 -9.4 3.7 -9.4 3.55 -9.45 1.2 -10.95 0.95 -12.6 1.0 -13.2 1.2 -12.65 1.85 -11.7 1.95 -11.6 2.1 -11.5 2.15 -11.45 2.25 -11.35 2.35 -11.3 2.4 -11.25 2.55 -11.15 2.65 -11.1 3.05 -10.85 3.15 -10.75 3.6 -10.5 4.1 -10.3 4.2 -10.25 4.35 -10.15 4.4 -10.15 5.85 -9.6 Q9.0 -8.55 13.15 -8.55 17.55 -8.55 20.85 -9.7 L21.95 -10.15 22.0 -10.15 22.3 -10.3 22.95 -10.6 24.85 -12.15 M64.85 -9.9 L65.55 -10.15 67.2 -10.65 67.15 -10.6 66.95 -10.55 66.9 -10.5 66.85 -10.5 66.65 -10.4 66.5 -10.35 64.85 -9.9 M71.6 -12.15 L71.75 -11.65 71.85 -10.9 69.5 -9.4 69.2 -9.25 69.05 -9.2 67.6 -8.65 67.55 -8.65 65.75 -8.15 59.9 -7.55 Q55.8 -7.55 52.6 -8.55 L51.3 -9.0 50.8 -9.2 50.4 -9.4 50.45 -9.4 50.3 -9.45 Q48.8 -10.15 47.95 -10.95 47.7 -11.75 47.7 -12.6 L47.75 -13.2 47.95 -12.65 48.6 -11.7 48.7 -11.6 48.85 -11.5 48.9 -11.45 49.0 -11.35 49.1 -11.3 49.15 -11.25 49.3 -11.15 49.4 -11.1 49.8 -10.85 49.9 -10.75 50.35 -10.5 50.85 -10.3 50.95 -10.25 51.1 -10.15 51.15 -10.15 52.6 -9.6 Q55.75 -8.55 59.9 -8.55 64.3 -8.55 67.6 -9.7 L68.7 -10.15 68.75 -10.15 69.05 -10.3 69.7 -10.6 71.6 -12.15 M94.75 -13.2 L94.95 -12.65 95.6 -11.7 95.7 -11.6 95.85 -11.5 95.9 -11.45 96.0 -11.35 96.1 -11.3 96.15 -11.25 96.3 -11.15 96.4 -11.1 96.8 -10.85 96.9 -10.75 97.35 -10.5 97.85 -10.3 97.95 -10.25 98.1 -10.15 98.15 -10.15 99.6 -9.6 Q102.75 -8.55 106.9 -8.55 111.3 -8.55 114.6 -9.7 L115.7 -10.15 115.75 -10.15 116.05 -10.3 116.7 -10.6 118.6 -12.15 118.75 -11.65 118.85 -10.9 Q117.95 -10.1 116.5 -9.4 L116.2 -9.25 116.05 -9.2 114.6 -8.65 114.55 -8.65 112.75 -8.15 106.9 -7.55 Q102.8 -7.55 99.6 -8.55 L98.3 -9.0 97.8 -9.2 97.4 -9.4 97.45 -9.4 97.3 -9.45 Q95.8 -10.15 94.95 -10.95 L94.7 -12.6 94.75 -13.2 M114.2 -10.65 L114.15 -10.6 113.95 -10.55 113.9 -10.5 113.85 -10.5 113.65 -10.4 113.5 -10.35 111.85 -9.9 112.55 -10.15 114.2 -10.65" fill="#e7a87e" fill-rule="evenodd" stroke="none"/>
    <path d="M94.9 -98.5 L96.35 -97.45 Q96.85 -97.15 97.45 -96.9 L97.4 -96.9 97.8 -96.7 98.1 -96.6 98.25 -96.5 98.3 -96.5 98.35 -96.45 98.4 -96.45 98.15 -90.65 98.15 -90.1 97.55 -90.4 97.5 -90.4 97.0 -90.75 95.35 -91.95 95.35 -92.0 Q94.75 -92.55 94.75 -93.55 L94.75 -98.65 94.9 -98.5 M114.35 -96.05 L116.05 -96.7 116.5 -96.9 117.4 -97.35 118.2 -97.85 118.85 -98.4 119.1 -98.65 119.1 -93.85 119.1 -93.55 Q119.05 -91.75 116.4 -90.4 L116.35 -90.4 115.7 -90.1 114.3 -89.55 114.25 -93.0 114.35 -96.05 M1.15 -98.5 Q1.7 -97.95 2.6 -97.45 L3.7 -96.9 3.65 -96.9 4.05 -96.7 4.35 -96.6 4.5 -96.5 4.55 -96.5 4.6 -96.45 4.65 -96.45 4.4 -90.65 4.4 -90.1 3.8 -90.4 3.75 -90.4 3.25 -90.75 1.6 -91.95 1.6 -92.0 Q1.0 -92.55 1.0 -93.55 L1.0 -98.65 1.15 -98.5 M20.6 -96.05 L22.3 -96.7 22.75 -96.9 23.65 -97.35 24.45 -97.85 25.1 -98.4 25.35 -98.65 25.35 -98.15 Q24.35 -96.95 24.35 -95.8 L24.35 -95.7 Q24.3 -94.55 25.35 -93.55 25.3 -91.75 22.65 -90.4 L22.6 -90.4 21.95 -90.1 20.55 -89.55 20.5 -93.0 20.6 -96.05 M47.9 -98.5 L49.35 -97.45 Q49.85 -97.15 50.45 -96.9 L50.4 -96.9 50.8 -96.7 51.1 -96.6 51.25 -96.5 51.3 -96.5 51.35 -96.45 51.4 -96.45 51.15 -90.65 51.15 -90.1 50.55 -90.4 50.5 -90.4 50.0 -90.75 48.35 -91.95 48.35 -92.0 Q47.75 -92.55 47.75 -93.55 L47.75 -98.65 47.9 -98.5 M67.35 -96.05 L69.05 -96.7 69.5 -96.9 70.4 -97.35 71.2 -97.85 71.85 -98.4 72.1 -98.65 72.1 -98.1 Q71.15 -96.9 71.15 -95.8 L71.15 -95.7 Q71.1 -94.6 72.1 -93.6 L72.1 -93.55 Q72.05 -91.75 69.4 -90.4 L69.35 -90.4 68.7 -90.1 67.3 -89.55 67.25 -93.0 67.35 -96.05 M93.0 -95.8 L93.0 -93.9 73.3 -93.9 73.1 -94.05 Q72.2 -94.85 72.15 -95.7 L72.15 -95.8 93.0 -95.8 M25.35 -95.8 L46.2 -95.8 46.2 -93.9 26.5 -93.9 26.35 -94.0 Q25.4 -94.8 25.35 -95.7 L25.35 -95.8 M25.1 -10.9 L25.35 -11.15 25.35 -10.85 Q24.35 -9.65 24.35 -8.5 L24.35 -8.4 Q24.3 -7.25 25.35 -6.25 L25.35 -6.05 25.35 -5.85 Q25.15 -4.0 21.95 -2.6 L20.85 -2.15 18.85 -1.6 18.85 -2.4 19.0 -8.15 20.8 -8.65 20.85 -8.65 22.3 -9.2 22.45 -9.25 22.75 -9.4 Q24.2 -10.1 25.1 -10.9 M4.6 -2.5 L4.45 -2.6 4.4 -2.6 Q1.15 -4.0 0.95 -5.85 L0.95 -6.05 0.95 -11.2 1.2 -10.95 3.55 -9.45 3.7 -9.4 3.65 -9.4 4.05 -9.2 4.55 -9.0 4.6 -2.5 M46.2 -8.5 L46.2 -6.6 26.5 -6.6 26.35 -6.7 Q25.4 -7.5 25.35 -8.4 L25.35 -8.5 46.2 -8.5 M71.85 -10.9 L72.1 -11.15 72.1 -10.8 Q71.15 -9.6 71.15 -8.5 L71.15 -8.4 Q71.1 -7.3 72.1 -6.3 L72.1 -6.05 72.1 -5.85 Q71.9 -4.0 68.7 -2.6 L67.6 -2.15 65.6 -1.6 65.6 -2.4 65.75 -8.15 67.55 -8.65 67.6 -8.65 69.05 -9.2 69.2 -9.25 69.5 -9.4 71.85 -10.9 M51.35 -2.5 L51.2 -2.6 51.15 -2.6 Q47.9 -4.0 47.7 -5.85 L47.7 -6.05 47.7 -11.2 47.95 -10.95 Q48.8 -10.15 50.3 -9.45 L50.45 -9.4 50.4 -9.4 50.8 -9.2 51.3 -9.0 51.35 -2.5 M93.0 -8.5 L93.0 -6.6 73.3 -6.6 73.1 -6.75 Q72.2 -7.55 72.15 -8.4 L72.15 -8.5 93.0 -8.5 M94.95 -10.95 Q95.8 -10.15 97.3 -9.45 L97.45 -9.4 97.4 -9.4 97.8 -9.2 98.3 -9.0 98.35 -2.5 98.2 -2.6 98.15 -2.6 Q94.9 -4.0 94.7 -5.85 L94.7 -6.05 94.7 -11.2 94.95 -10.95 M112.75 -8.15 L114.55 -8.65 114.6 -8.65 116.05 -9.2 116.2 -9.25 116.5 -9.4 Q117.95 -10.1 118.85 -10.9 L119.1 -11.15 119.1 -6.05 119.1 -5.85 Q118.9 -4.0 115.7 -2.6 L114.6 -2.15 112.6 -1.6 112.6 -2.4 112.75 -8.15" fill="#643313" fill-rule="evenodd" stroke="none"/>
    <path d="M55.25 -10.9 L54.45 -11.1 53.8 -11.3 53.3 -11.45 53.35 -11.45 53.2 -11.5 52.6 -11.75 52.6 -17.75 54.45 -17.95 54.45 -13.85 Q56.3 -13.0 58.1 -12.75 L58.55 -12.7 59.85 -12.6 Q57.45 -11.4 55.25 -10.9 M67.6 -84.3 L67.6 -76.85 65.2 -74.85 65.2 -82.1 67.6 -84.3 M54.45 -76.75 L54.45 -69.55 52.6 -69.4 52.6 -76.55 54.45 -76.75 M52.6 -47.45 L54.45 -47.65 54.45 -40.45 52.6 -40.3 52.6 -47.45 M65.2 -45.75 L65.2 -53.0 67.6 -55.2 67.6 -47.75 65.2 -45.75 M5.85 -76.55 L7.7 -76.75 7.7 -69.55 5.85 -69.4 5.85 -76.55 M18.45 -82.1 L20.85 -84.3 20.85 -76.85 18.45 -74.85 18.45 -82.1 M18.45 -53.0 L20.85 -55.2 20.85 -47.75 18.45 -45.75 18.45 -53.0 M8.5 -10.9 L7.7 -11.1 7.05 -11.3 6.55 -11.45 6.6 -11.45 6.45 -11.5 5.85 -11.75 5.85 -17.75 7.7 -17.95 7.7 -13.85 Q9.55 -13.0 11.35 -12.75 L11.8 -12.7 13.1 -12.6 Q10.7 -11.4 8.5 -10.9 M20.85 -25.5 L20.85 -18.05 18.45 -16.1 18.45 -23.3 20.85 -25.5 M5.85 -47.45 L7.7 -47.65 7.7 -40.45 5.85 -40.3 5.85 -47.45 M65.2 -23.3 L67.6 -25.5 67.6 -18.05 65.2 -16.1 65.2 -23.3 M102.25 -10.9 L101.45 -11.1 100.8 -11.3 100.3 -11.45 100.35 -11.45 100.2 -11.5 99.6 -11.75 99.6 -17.75 101.45 -17.95 101.45 -13.85 Q103.3 -13.0 105.1 -12.75 L105.55 -12.7 106.85 -12.6 Q104.45 -11.4 102.25 -10.9 M99.6 -76.55 L101.45 -76.75 101.45 -69.55 99.6 -69.4 99.6 -76.55 M112.2 -82.1 L114.6 -84.3 114.6 -76.85 112.2 -74.85 112.2 -82.1 M112.2 -53.0 L114.6 -55.2 114.6 -47.75 112.2 -45.75 112.2 -53.0 M101.45 -47.65 L101.45 -40.45 99.6 -40.3 99.6 -47.45 101.45 -47.65 M114.6 -18.05 L112.2 -16.1 112.2 -23.3 114.6 -25.5 114.6 -18.05" fill="#bf4540" fill-rule="evenodd" stroke="none"/>
    <path d="M69.05 -86.0 L69.05 -78.35 67.6 -76.85 67.6 -84.3 68.8 -85.7 69.05 -86.0 M69.05 -56.9 L69.05 -49.3 67.6 -47.75 67.6 -55.2 68.8 -56.6 69.05 -56.9 M69.05 -27.2 L69.05 -19.6 67.6 -18.05 67.6 -25.5 68.8 -26.9 69.05 -27.2 M52.6 -11.75 Q50.85 -12.55 50.8 -13.55 L50.8 -18.15 Q51.2 -17.95 51.75 -17.85 L52.6 -17.75 52.6 -11.75 M50.8 -40.65 L50.8 -47.85 Q51.2 -47.65 51.75 -47.55 L52.6 -47.45 52.6 -40.3 Q51.5 -40.3 50.8 -40.65 M50.8 -69.75 L50.8 -76.95 Q51.2 -76.75 51.75 -76.65 L52.6 -76.55 52.6 -69.4 Q51.5 -69.4 50.8 -69.75 M20.85 -84.3 L22.05 -85.7 22.3 -86.0 22.3 -78.35 20.85 -76.85 20.85 -84.3 M4.05 -76.95 Q4.45 -76.75 5.0 -76.65 L5.85 -76.55 5.85 -69.4 Q4.75 -69.4 4.05 -69.75 L4.05 -76.95 M20.85 -55.2 L22.05 -56.6 22.3 -56.9 22.3 -49.3 20.85 -47.75 20.85 -55.2 M4.05 -47.85 Q4.45 -47.65 5.0 -47.55 L5.85 -47.45 5.85 -40.3 Q4.75 -40.3 4.05 -40.65 L4.05 -47.85 M22.3 -27.2 L22.3 -19.6 20.85 -18.05 20.85 -25.5 22.05 -26.9 22.3 -27.2 M5.85 -11.75 Q4.1 -12.55 4.05 -13.55 L4.05 -18.15 Q4.45 -17.95 5.0 -17.85 L5.85 -17.75 5.85 -11.75 M116.05 -86.0 L116.05 -78.35 114.6 -76.85 114.6 -84.3 115.8 -85.7 116.05 -86.0 M116.05 -56.9 L116.05 -49.3 114.6 -47.75 114.6 -55.2 115.8 -56.6 116.05 -56.9 M116.05 -27.2 L116.05 -19.6 114.6 -18.05 114.6 -25.5 115.8 -26.9 116.05 -27.2 M99.6 -11.75 Q97.85 -12.55 97.8 -13.55 L97.8 -18.15 98.75 -17.85 99.6 -17.75 99.6 -11.75 M97.8 -40.65 L97.8 -47.85 98.75 -47.55 99.6 -47.45 99.6 -40.3 Q98.5 -40.3 97.8 -40.65 M97.8 -69.75 L97.8 -76.95 98.75 -76.65 99.6 -76.55 99.6 -69.4 Q98.5 -69.4 97.8 -69.75" fill="#83302c" fill-rule="evenodd" stroke="none"/>
    <path d="M65.2 -82.1 L65.2 -74.85 Q64.25 -74.15 63.1 -73.4 58.8 -70.45 55.0 -69.65 L54.45 -69.55 54.45 -76.75 55.0 -76.85 Q58.8 -77.65 63.1 -80.6 L65.2 -82.1 M54.45 -47.65 L55.0 -47.75 Q58.8 -48.55 63.1 -51.5 L65.2 -53.0 65.2 -45.75 Q64.25 -45.05 63.1 -44.3 58.8 -41.35 55.0 -40.55 L54.45 -40.45 54.45 -47.65 M7.7 -69.55 L7.7 -76.75 8.25 -76.85 Q12.05 -77.65 16.35 -80.6 L18.45 -82.1 18.45 -74.85 16.35 -73.4 Q12.05 -70.45 8.25 -69.65 L7.7 -69.55 M7.7 -47.65 L8.25 -47.75 Q12.05 -48.55 16.35 -51.5 L18.45 -53.0 18.45 -45.75 16.35 -44.3 Q12.05 -41.35 8.25 -40.55 L7.7 -40.45 7.7 -47.65 M18.45 -23.3 L18.45 -16.1 16.35 -14.6 13.15 -12.6 13.1 -12.6 11.8 -12.7 11.35 -12.75 Q9.55 -13.0 7.7 -13.85 L7.7 -17.95 8.25 -18.05 Q12.05 -18.85 16.35 -21.8 L18.45 -23.3 M54.45 -17.95 L55.0 -18.05 Q58.8 -18.85 63.1 -21.8 L65.2 -23.3 65.2 -16.1 63.1 -14.6 59.9 -12.6 59.85 -12.6 58.55 -12.7 58.1 -12.75 Q56.3 -13.0 54.45 -13.85 L54.45 -17.95 M101.45 -76.75 L102.0 -76.85 Q105.8 -77.65 110.1 -80.6 L112.2 -82.1 112.2 -74.85 110.1 -73.4 Q105.8 -70.45 102.0 -69.65 L101.45 -69.55 101.45 -76.75 M112.2 -53.0 L112.2 -45.75 110.1 -44.3 Q105.8 -41.35 102.0 -40.55 L101.45 -40.45 101.45 -47.65 102.0 -47.75 Q105.8 -48.55 110.1 -51.5 L112.2 -53.0 M101.45 -17.95 L102.0 -18.05 Q105.8 -18.85 110.1 -21.8 L112.2 -23.3 112.2 -16.1 110.1 -14.6 106.9 -12.6 106.85 -12.6 105.55 -12.7 105.1 -12.75 Q103.3 -13.0 101.45 -13.85 L101.45 -17.95" fill="#cb6863" fill-rule="evenodd" stroke="none"/>
    <path d="M50.8 -84.45 L50.8 -89.15 Q51.95 -88.65 53.2 -88.3 L54.45 -88.0 59.9 -87.5 60.05 -87.5 61.2 -87.5 62.35 -87.6 62.35 -87.55 Q60.05 -86.1 57.95 -85.2 L57.9 -85.2 56.55 -85.35 52.6 -86.15 52.6 -84.1 Q51.5 -84.1 50.8 -84.45 M69.05 -71.6 L69.05 -63.95 67.6 -62.45 67.6 -69.9 68.8 -71.3 69.05 -71.6 M69.05 -41.9 L69.05 -34.25 67.6 -32.75 67.6 -40.2 68.8 -41.6 69.05 -41.9 M50.8 -25.65 L50.8 -32.85 Q51.2 -32.65 51.75 -32.55 L52.6 -32.45 52.6 -25.3 Q51.5 -25.3 50.8 -25.65 M50.8 -55.35 L50.8 -62.55 Q51.2 -62.35 51.75 -62.25 L52.6 -62.15 52.6 -55.0 50.8 -55.35 M15.6 -87.55 Q13.3 -86.1 11.2 -85.2 L11.15 -85.2 9.8 -85.35 5.85 -86.15 5.85 -84.1 Q4.75 -84.1 4.05 -84.45 L4.05 -89.15 Q5.2 -88.65 6.45 -88.3 L7.7 -88.0 13.15 -87.5 13.3 -87.5 14.45 -87.5 15.6 -87.6 15.6 -87.55 M20.85 -69.9 L22.05 -71.3 22.3 -71.6 22.3 -63.95 20.85 -62.45 20.85 -69.9 M4.05 -62.55 Q4.45 -62.35 5.0 -62.25 L5.85 -62.15 5.85 -55.0 4.05 -55.35 4.05 -62.55 M20.85 -40.2 L22.05 -41.6 22.3 -41.9 22.3 -34.25 20.85 -32.75 20.85 -40.2 M4.05 -25.65 L4.05 -32.85 Q4.45 -32.65 5.0 -32.55 L5.85 -32.45 5.85 -25.3 Q4.75 -25.3 4.05 -25.65 M116.05 -71.6 L116.05 -63.95 114.6 -62.45 114.6 -69.9 115.8 -71.3 116.05 -71.6 M116.05 -41.9 L116.05 -34.25 114.6 -32.75 114.6 -40.2 115.8 -41.6 116.05 -41.9 M97.8 -25.65 L97.8 -32.85 98.75 -32.55 99.6 -32.45 99.6 -25.3 Q98.5 -25.3 97.8 -25.65 M97.8 -55.35 L97.8 -62.55 98.75 -62.25 99.6 -62.15 99.6 -55.0 97.8 -55.35 M97.8 -84.45 L97.8 -89.15 Q98.95 -88.65 100.2 -88.3 L101.45 -88.0 106.9 -87.5 107.05 -87.5 108.2 -87.5 109.35 -87.6 109.35 -87.55 Q107.05 -86.1 104.95 -85.2 L104.9 -85.2 103.55 -85.35 99.6 -86.15 99.6 -84.1 Q98.5 -84.1 97.8 -84.45" fill="#6dc52e" fill-rule="evenodd" stroke="none"/>
    <path d="M52.6 -84.1 L52.6 -86.15 56.55 -85.35 57.9 -85.2 Q56.4 -84.65 55.0 -84.35 L52.6 -84.1 M65.2 -67.7 L67.6 -69.9 67.6 -62.45 65.2 -60.45 65.2 -67.7 M52.6 -62.15 L54.45 -62.35 54.45 -55.15 52.6 -55.0 52.6 -62.15 M11.15 -85.2 Q9.65 -84.65 8.25 -84.35 L5.85 -84.1 5.85 -86.15 9.8 -85.35 11.15 -85.2 M5.85 -62.15 L7.7 -62.35 7.7 -55.15 5.85 -55.0 5.85 -62.15 M18.45 -67.7 L20.85 -69.9 20.85 -62.45 18.45 -60.45 18.45 -67.7 M20.85 -40.2 L20.85 -32.75 18.45 -30.75 18.45 -38.0 20.85 -40.2 M5.85 -32.45 L7.7 -32.65 7.7 -25.45 5.85 -25.3 5.85 -32.45 M67.6 -40.2 L67.6 -32.75 65.2 -30.75 65.2 -38.0 67.6 -40.2 M54.45 -32.65 L54.45 -25.45 52.6 -25.3 52.6 -32.45 54.45 -32.65 M99.6 -84.1 L99.6 -86.15 103.55 -85.35 104.9 -85.2 102.0 -84.35 99.6 -84.1 M99.6 -55.0 L99.6 -62.15 101.45 -62.35 101.45 -55.15 99.6 -55.0 M114.6 -69.9 L114.6 -62.45 112.2 -60.45 112.2 -67.7 114.6 -69.9 M112.2 -38.0 L114.6 -40.2 114.6 -32.75 112.2 -30.75 112.2 -38.0 M101.45 -32.65 L101.45 -25.45 99.6 -25.3 99.6 -32.45 101.45 -32.65" fill="#9adc69" fill-rule="evenodd" stroke="none"/>
    <path d="M54.45 -62.35 L55.0 -62.45 Q58.8 -63.25 63.1 -66.2 L65.2 -67.7 65.2 -60.45 Q64.25 -59.75 63.1 -59.0 58.8 -56.05 55.0 -55.25 L54.45 -55.15 54.45 -62.35 M7.7 -62.35 L8.25 -62.45 Q12.05 -63.25 16.35 -66.2 L18.45 -67.7 18.45 -60.45 16.35 -59.0 Q12.05 -56.05 8.25 -55.25 L7.7 -55.15 7.7 -62.35 M7.7 -32.65 L8.25 -32.75 Q12.05 -33.55 16.35 -36.5 L18.45 -38.0 18.45 -30.75 16.35 -29.3 Q12.05 -26.35 8.25 -25.55 L7.7 -25.45 7.7 -32.65 M65.2 -38.0 L65.2 -30.75 Q64.25 -30.05 63.1 -29.3 58.8 -26.35 55.0 -25.55 L54.45 -25.45 54.45 -32.65 55.0 -32.75 Q58.8 -33.55 63.1 -36.5 L65.2 -38.0 M101.45 -55.15 L101.45 -62.35 102.0 -62.45 Q105.8 -63.25 110.1 -66.2 L112.2 -67.7 112.2 -60.45 110.1 -59.0 Q105.8 -56.05 102.0 -55.25 L101.45 -55.15 M101.45 -25.45 L101.45 -32.65 102.0 -32.75 Q105.8 -33.55 110.1 -36.5 L112.2 -38.0 112.2 -30.75 110.1 -29.3 Q105.8 -26.35 102.0 -25.55 L101.45 -25.45" fill="#c1eaa4" fill-rule="evenodd" stroke="none"/>
  </g>
</svg>
