<?xml version="1.0" encoding="UTF-8" standalone="no"?>
<svg xmlns:ffdec="https://www.free-decompiler.com/flash" xmlns:xlink="http://www.w3.org/1999/xlink" ffdec:objectType="shape" height="20.1px" width="50.8px" xmlns="http://www.w3.org/2000/svg">
  <g transform="matrix(1.0, 0.0, 0.0, 1.0, 21.5, 36.25)">
    <path d="M8.75 -33.05 Q9.95 -34.75 10.65 -35.1 12.6 -36.4 15.55 -36.2 19.45 -36.15 24.1 -32.0 28.9 -27.6 29.25 -23.1 29.45 -20.2 28.5 -18.8 27.5 -17.15 25.25 -17.2 L25.2 -17.2 Q23.65 -17.2 21.95 -20.0 L21.9 -20.05 19.25 -25.25 Q16.65 -30.5 14.1 -31.9 L14.1 -31.95 12.65 -32.3 12.6 -32.3 Q10.85 -32.45 10.0 -31.9 9.8 -31.65 9.45 -31.65 9.1 -31.65 8.85 -31.9 L8.6 -32.45 8.75 -33.05 M12.65 -34.15 L12.6 -34.1 12.65 -34.1 Q13.8 -34.1 14.9 -33.45 L14.9 -33.5 Q17.9 -32.0 20.8 -26.05 L23.45 -21.0 23.45 -20.95 Q24.5 -19.15 25.3 -18.95 26.45 -18.95 27.05 -19.7 27.6 -20.8 27.5 -23.0 27.15 -26.85 22.9 -30.7 18.85 -34.35 15.5 -34.5 L12.65 -34.15 M-4.9 -33.05 L-4.8 -33.05 -4.9 -33.1 -7.65 -33.45 Q-11.1 -33.35 -15.15 -29.65 -19.4 -25.8 -19.7 -21.95 -19.85 -19.8 -19.2 -18.7 -18.7 -17.95 -17.55 -17.95 -16.75 -18.1 -15.65 -19.9 L-15.65 -19.95 -13.05 -25.0 Q-10.15 -31.0 -7.15 -32.45 L-7.15 -32.4 Q-6.05 -33.05 -4.9 -33.05 M-2.9 -34.1 Q-2.2 -33.75 -0.95 -32.0 L-0.85 -31.45 Q-0.9 -31.15 -1.1 -30.85 L-1.7 -30.65 -2.25 -30.85 Q-3.1 -31.45 -4.85 -31.25 L-6.3 -30.9 -6.35 -30.85 Q-8.9 -29.5 -11.45 -24.2 L-14.15 -19.05 -14.15 -18.95 Q-15.9 -16.15 -17.45 -16.15 -19.75 -16.1 -20.7 -17.75 -21.7 -19.15 -21.45 -22.1 -21.15 -26.55 -16.3 -31.0 -11.7 -35.1 -7.75 -35.15 -4.85 -35.35 -2.9 -34.1" fill="#000000" fill-rule="evenodd" stroke="none"/>
    <path d="M12.65 -34.1 L12.6 -34.1 12.65 -34.15 12.65 -34.1 M-4.9 -33.1 L-4.8 -33.05 -4.9 -33.05 -4.9 -33.1" fill="#3a281b" fill-rule="evenodd" stroke="none"/>
    <path d="M12.65 -34.1 L12.65 -34.15 15.5 -34.5 Q18.85 -34.35 22.9 -30.7 27.15 -26.85 27.5 -23.0 27.6 -20.8 27.05 -19.7 26.45 -18.95 25.3 -18.95 24.5 -19.15 23.45 -20.95 L23.45 -21.0 20.8 -26.05 Q17.9 -32.0 14.9 -33.5 L14.9 -33.45 Q13.8 -34.1 12.65 -34.1 M-4.9 -33.1 L-4.9 -33.05 Q-6.05 -33.05 -7.15 -32.4 L-7.15 -32.45 Q-10.15 -31.0 -13.05 -25.0 L-15.65 -19.95 -15.65 -19.9 Q-16.75 -18.1 -17.55 -17.95 -18.7 -17.95 -19.2 -18.7 -19.85 -19.8 -19.7 -21.95 -19.4 -25.8 -15.15 -29.65 -11.1 -33.35 -7.65 -33.45 L-4.9 -33.1" fill="#3c3c3c" fill-rule="evenodd" stroke="none"/>
  </g>
</svg>
