<?xml version="1.0" encoding="UTF-8" standalone="no"?>
<svg xmlns:ffdec="https://www.free-decompiler.com/flash" xmlns:xlink="http://www.w3.org/1999/xlink" ffdec:objectType="shape" height="22.85px" width="46.35px" xmlns="http://www.w3.org/2000/svg">
  <g transform="matrix(1.0, 0.0, 0.0, 1.0, 18.45, 34.3)">
    <path d="M8.25 -31.2 L8.2 -31.15 8.3 -31.2 Q9.4 -31.5 10.6 -31.2 13.85 -30.65 18.35 -25.7 L22.25 -21.55 Q23.75 -20.1 24.6 -20.2 25.7 -20.45 26.05 -21.4 26.35 -22.6 25.6 -24.6 24.15 -28.2 19.05 -30.75 14.15 -33.15 10.85 -32.35 9.35 -31.95 8.25 -31.2 M0.3 -25.7 Q-0.85 -26.4 -2.4 -26.6 -5.8 -27.05 -10.45 -24.25 -15.3 -21.35 -16.35 -17.6 -17.0 -15.55 -16.6 -14.3 -16.15 -13.45 -15.0 -13.3 -14.2 -13.3 -12.85 -14.85 L-12.8 -14.9 -9.3 -19.3 Q-5.25 -24.6 -2.05 -25.5 L0.25 -25.7 0.3 -25.7 M4.8 -29.15 Q5.5 -31.1 6.05 -31.6 7.6 -33.4 10.4 -34.0 14.2 -35.05 19.85 -32.3 25.7 -29.45 27.25 -25.25 28.25 -22.5 27.7 -20.85 27.2 -18.95 25.0 -18.45 L24.95 -18.45 Q23.45 -18.0 21.05 -20.25 L17.05 -24.5 Q13.05 -28.85 10.25 -29.5 L8.75 -29.5 8.7 -29.5 Q6.9 -29.1 6.35 -28.35 L5.9 -28.0 5.25 -28.05 Q4.9 -28.2 4.8 -28.5 L4.8 -29.15 M3.95 -23.9 L4.0 -23.35 3.6 -22.8 2.95 -22.7 2.45 -23.0 Q1.8 -23.7 0.05 -23.9 L-0.05 -23.95 -1.5 -23.85 -1.5 -23.8 Q-4.35 -22.95 -7.85 -18.25 L-7.9 -18.25 -11.5 -13.65 -11.5 -13.7 Q-13.7 -11.2 -15.25 -11.5 L-15.25 -11.55 Q-17.55 -11.9 -18.2 -13.7 -18.8 -15.3 -18.05 -18.05 -16.9 -22.4 -11.3 -25.8 -6.0 -29.05 -2.1 -28.35 0.7 -27.95 2.45 -26.35 L3.95 -23.9" fill="#000000" fill-rule="evenodd" stroke="none"/>
    <path d="M8.25 -31.2 L8.3 -31.2 8.2 -31.15 8.25 -31.2" fill="#3a281b" fill-rule="evenodd" stroke="none"/>
    <path d="M8.3 -31.2 L8.25 -31.2 Q9.35 -31.95 10.85 -32.35 14.15 -33.15 19.05 -30.75 24.15 -28.2 25.6 -24.6 26.35 -22.6 26.05 -21.4 25.7 -20.45 24.6 -20.2 23.75 -20.1 22.25 -21.55 L18.35 -25.7 Q13.85 -30.65 10.6 -31.2 9.4 -31.5 8.3 -31.2 M0.3 -25.7 L0.25 -25.7 -2.05 -25.5 Q-5.25 -24.6 -9.3 -19.3 L-12.8 -14.9 -12.85 -14.85 Q-14.2 -13.3 -15.0 -13.3 -16.15 -13.45 -16.6 -14.3 -17.0 -15.55 -16.35 -17.6 -15.3 -21.35 -10.45 -24.25 -5.8 -27.05 -2.4 -26.6 -0.85 -26.4 0.3 -25.7" fill="#3c3c3c" fill-rule="evenodd" stroke="none"/>
  </g>
</svg>
