<?xml version="1.0" encoding="UTF-8" standalone="no"?>
<svg xmlns:ffdec="https://www.free-decompiler.com/flash" xmlns:xlink="http://www.w3.org/1999/xlink" ffdec:objectType="shape" height="108.5px" width="69.95px" xmlns="http://www.w3.org/2000/svg">
  <g transform="matrix(1.0, 0.0, 0.0, 1.0, 30.0, 50.0)">
    <path d="M35.15 -38.35 Q36.85 -36.5 38.2 -34.25 39.65 -31.95 39.95 -29.4 L35.2 -30.0 Q35.6 -28.65 36.15 -27.3 L36.45 -26.2 Q36.8 -24.0 36.75 -21.95 L36.4 -16.85 36.4 -16.6 36.2 -16.9 34.25 -19.6 32.7 -21.15 Q29.8 -23.9 26.65 -25.9 L25.25 -17.15 Q22.55 -22.05 18.9 -26.2 L16.95 -28.4 15.45 -30.05 14.95 -30.45 14.65 -30.5 11.45 -29.45 5.25 -27.35 Q2.1 -26.45 1.2 -24.15 L0.5 -21.45 Q-0.95 -19.7 -2.1 -17.6 -4.15 -13.9 -4.15 -10.9 -4.15 -9.75 -3.25 -6.7 -2.05 -2.4 -0.1 0.25 L2.05 2.45 3.9 4.0 Q6.8 5.05 9.95 6.4 L12.45 7.25 Q13.3 7.25 14.4 6.15 15.5 5.0 18.85 5.0 20.5 5.0 24.9 6.95 29.35 8.9 30.45 10.15 35.0 15.1 35.0 16.6 L35.4 20.75 Q35.85 24.0 36.35 25.0 L35.45 24.45 36.95 25.9 37.1 26.7 Q37.1 29.4 35.95 33.7 L34.2 40.8 Q34.1 41.9 32.2 44.45 28.85 49.0 20.9 56.3 L18.5 56.5 16.05 56.65 Q15.7 56.75 14.5 57.65 13.4 58.45 12.95 58.45 L9.7 57.3 5.5 58.5 2.85 58.35 Q0.8 57.95 -4.05 56.15 -11.75 53.3 -14.0 51.65 L-16.15 49.55 Q-24.6 41.35 -24.6 37.35 L-24.3 35.4 Q-24.05 34.05 -24.2 33.55 L-26.05 32.3 Q-27.85 31.05 -28.25 29.05 -28.45 28.25 -28.25 26.55 L-27.9 23.55 Q-27.85 23.05 -28.6 21.05 L-29.35 18.6 Q-29.35 17.15 -28.7 15.8 -28.1 14.45 -28.1 13.4 L-28.75 12.25 Q-29.45 11.45 -29.45 9.15 L-28.75 7.4 Q-28.05 6.05 -28.05 5.45 -28.05 4.15 -29.0 1.4 -30.0 -1.4 -30.0 -2.5 -30.0 -6.55 -28.2 -12.1 -26.25 -18.05 -21.15 -29.1 L-19.15 -32.8 -16.9 -36.3 Q-16.3 -37.1 -14.05 -38.15 L-11.95 -39.15 Q-11.95 -42.45 -10.2 -44.55 -8.75 -46.2 -7.25 -46.2 -6.75 -46.2 -6.6 -45.8 -6.45 -45.45 -5.95 -45.45 -5.6 -45.45 -4.7 -46.4 L-2.3 -48.3 Q1.0 -50.0 7.8 -50.0 11.0 -50.0 12.45 -49.15 L13.75 -48.15 14.95 -47.85 16.95 -47.55 17.9 -47.4 22.25 -46.65 Q24.4 -46.05 26.4 -44.95 28.7 -43.8 30.8 -42.25 33.2 -40.5 35.15 -38.35" fill="#ffffff" fill-opacity="0.0" fill-rule="evenodd" stroke="none"/>
  </g>
</svg>
