<?xml version="1.0" encoding="UTF-8" standalone="no"?>
<svg xmlns:ffdec="https://www.free-decompiler.com/flash" xmlns:xlink="http://www.w3.org/1999/xlink" ffdec:objectType="shape" height="101.4px" width="60.9px" xmlns="http://www.w3.org/2000/svg">
  <g transform="matrix(1.0, 0.0, 0.0, 1.0, 25.65, 46.35)">
    <path d="M28.2 -30.15 L26.6 -30.4 26.6 -32.55 28.85 -34.35 Q30.25 -35.05 30.25 -33.0 30.25 -31.45 30.05 -31.05 29.75 -30.15 28.2 -30.15 M21.75 -32.25 Q20.95 -30.4 18.3 -30.4 16.6 -30.4 16.3 -31.45 L16.3 -32.55 Q16.3 -35.0 19.25 -36.35 22.15 -37.75 22.15 -35.4 22.15 -33.2 21.75 -32.25 M16.7 -41.7 Q16.85 -41.75 17.9 -41.2 L18.15 -40.65 Q17.75 -40.0 16.95 -39.65 15.9 -39.9 15.9 -41.05 L16.7 -41.7 M8.45 -44.65 Q10.55 -43.4 11.6 -39.9 12.25 -37.55 12.25 -35.0 12.25 -32.15 4.2 -30.1 -4.75 -27.75 -6.3 -25.3 -7.95 -21.85 -9.85 -19.35 L-11.5 -17.35 Q-11.7 -15.95 -13.8 -14.6 -15.85 -13.25 -17.35 -13.25 L-18.35 -13.55 -18.55 -13.4 Q-19.8 -14.1 -20.4 -15.5 -20.8 -16.05 -20.8 -16.45 L-20.7 -16.45 -20.8 -16.6 -20.95 -19.85 Q-20.95 -23.0 -20.4 -24.2 -19.75 -25.7 -16.1 -29.9 L-13.8 -32.35 Q-12.25 -33.95 -11.7 -34.85 -11.45 -35.25 -11.05 -37.25 L-10.45 -39.65 -8.4 -41.95 -5.65 -43.7 -1.2 -45.25 Q2.6 -46.5 3.55 -46.35 L8.45 -44.65 M30.0 14.35 L33.05 17.4 Q33.85 18.7 34.65 24.75 35.25 29.75 35.25 31.9 35.25 33.45 32.0 35.85 28.45 38.6 25.0 38.6 21.85 38.6 20.9 37.9 L19.9 36.2 Q18.45 33.75 8.05 33.75 3.7 33.75 1.6 27.1 L0.4 20.25 Q0.4 16.85 1.8 14.85 3.55 12.15 8.45 10.15 L19.75 9.5 Q23.05 8.95 26.85 10.95 27.6 12.15 30.0 14.35 M0.55 44.65 Q-1.7 48.6 -9.5 48.6 -17.35 48.6 -20.4 41.2 -22.0 37.25 -22.0 32.5 L-22.15 29.25 Q-21.9 27.9 -19.75 25.45 -18.15 23.75 -13.8 23.75 -9.2 23.75 -6.05 25.85 L-2.55 28.7 Q0.0 30.85 0.55 31.9 1.45 33.6 1.45 38.75 1.45 43.1 0.55 44.65 M2.85 45.15 Q3.25 44.15 6.05 43.2 9.6 41.85 10.5 41.75 L16.15 42.25 Q18.15 43.85 18.55 45.15 L18.7 48.2 Q18.7 51.0 17.9 51.65 17.35 52.15 10.9 55.05 L8.85 55.05 3.65 51.0 Q2.65 50.3 2.65 47.9 2.65 45.4 2.85 45.15 M25.15 40.0 Q28.2 39.9 28.2 42.7 L28.05 44.25 26.6 45.6 24.6 45.6 Q22.6 45.05 22.15 44.35 22.0 44.1 22.0 42.65 22.0 40.05 25.15 40.0 M-24.0 -6.7 Q-24.0 -11.45 -20.8 -11.55 -17.55 -11.6 -17.55 -8.7 L-17.75 -6.8 Q-18.15 -5.35 -19.75 -4.6 L-22.55 -4.6 Q-24.0 -5.75 -24.0 -6.7 M-4.65 -21.95 Q-2.0 -23.3 -2.0 -19.85 -2.0 -18.7 -2.8 -17.35 -3.85 -15.65 -5.65 -15.65 L-7.25 -15.8 -7.4 -18.0 Q-7.4 -20.5 -4.65 -21.95 M-17.15 -7.1 Q-17.15 -9.3 -16.3 -10.15 -14.75 -11.7 -9.65 -12.25 -7.15 -10.8 -5.65 -8.15 -4.5 -6.05 -4.25 -3.95 -4.1 -2.75 -2.5 0.4 -0.95 3.4 -0.95 4.45 -0.95 5.4 -2.4 6.35 L-4.45 6.35 Q-11.45 2.8 -14.25 -0.15 -17.15 -3.15 -17.15 -7.1 M-16.75 -0.8 Q-15.15 0.5 -15.15 1.85 -15.15 8.15 -20.15 11.5 L-23.75 11.5 Q-25.15 10.55 -25.45 9.5 -25.65 9.1 -25.65 7.8 -25.65 -1.95 -20.4 -2.1 -18.45 -2.2 -16.75 -0.8 M-3.45 11.5 Q-2.4 13.35 -2.4 15.55 -2.4 16.1 -2.9 16.85 -3.55 17.75 -4.45 17.8 L-8.85 17.8 Q-10.9 17.0 -11.45 16.05 -11.85 15.4 -11.85 14.0 -11.85 11.9 -11.5 10.9 -10.9 8.7 -8.7 8.7 -5.05 8.7 -3.45 11.5 M-19.35 22.25 Q-21.35 22.25 -22.25 20.65 -22.75 19.65 -22.75 18.7 -22.75 14.9 -18.6 14.85 -14.5 14.75 -14.5 18.05 -14.5 19.5 -15.8 20.8 -17.35 22.25 -19.35 22.25" fill="#3d0c04" fill-rule="evenodd" stroke="none"/>
    <path d="M-4.85 30.3 Q-1.35 30.3 -0.4 33.45 0.0 34.8 0.0 38.6 L-0.25 42.8 Q-1.55 46.45 -7.1 46.45 -20.0 46.45 -20.0 32.65 -20.0 23.55 -7.25 27.5 -7.5 28.7 -6.7 29.5 -5.95 30.3 -4.85 30.3 M-9.9 14.9 L-10.05 13.85 Q-10.05 9.6 -7.0 10.95 -4.0 12.35 -4.0 14.65 -4.0 15.3 -4.25 15.45 L-5.05 15.8 -8.45 15.8 Q-9.6 15.85 -9.9 14.9 M-20.0 17.3 L-16.1 17.4 -16.1 17.55 -17.15 19.25 Q-18.05 20.4 -19.9 20.4 L-20.45 19.8 -20.95 18.8 Q-20.95 17.9 -20.0 17.3 M-17.35 2.1 Q-17.35 4.2 -17.95 5.45 -18.55 6.6 -20.8 9.35 L-23.15 9.35 Q-23.75 7.75 -23.75 5.3 -23.75 4.85 -22.95 3.4 -22.15 1.95 -22.15 0.9 -17.35 0.55 -17.35 2.1 M-15.15 -7.25 Q-15.15 -8.65 -13.6 -9.5 -11.75 -10.55 -9.65 -9.45 -8.45 -8.8 -7.9 -7.4 L-7.25 -5.15 -3.6 3.95 Q-9.65 1.6 -12.4 -0.95 -15.15 -3.65 -15.15 -7.25 M-5.65 -17.5 L-5.65 -17.65 -5.25 -18.7 -4.0 -19.9 Q-3.7 -18.95 -5.65 -17.5 M-22.15 -8.0 L-20.8 -10.0 -20.05 -9.3 -19.6 -8.7 Q-19.6 -6.7 -22.0 -6.8 L-22.15 -8.0 M25.4 41.75 L25.95 42.25 26.45 42.9 26.3 43.5 26.05 43.6 Q24.2 43.6 23.95 43.2 24.2 42.8 25.4 41.75 M5.55 46.5 Q6.35 45.95 9.7 44.4 11.8 43.3 12.0 43.7 12.6 44.4 13.85 44.4 15.95 44.4 16.45 45.2 L16.7 47.9 Q16.7 48.85 14.9 50.6 12.65 52.85 9.75 52.85 9.2 52.85 4.45 48.05 4.45 47.15 5.55 46.5 M23.4 11.5 Q26.05 12.75 29.05 16.35 30.7 17.65 32.1 22.1 33.3 25.95 33.3 28.15 33.3 31.35 32.65 32.7 31.05 36.35 25.8 36.35 23.2 36.35 21.05 34.15 18.8 31.9 15.3 31.9 14.7 31.35 14.1 31.1 L9.7 31.1 Q6.85 33.05 4.5 27.15 2.65 22.65 2.65 20.15 L2.65 17.95 Q2.85 17.0 3.9 15.65 4.75 14.5 7.2 14.25 9.3 14.1 9.7 13.15 18.7 9.4 23.4 11.5 M7.6 -42.75 Q10.3 -40.95 10.3 -37.4 10.3 -34.05 4.35 -32.8 -3.6 -31.1 -7.25 -27.6 -8.3 -26.55 -11.75 -20.9 -14.1 -17.0 -16.5 -17.0 L-18.15 -18.25 Q-19.5 -19.45 -19.5 -20.0 L-19.1 -23.7 Q-19.0 -24.85 -17.65 -26.05 L-15.7 -27.75 -12.65 -30.55 Q-10.15 -33.0 -9.65 -35.25 -7.4 -43.05 1.45 -43.95 5.15 -44.35 7.6 -42.75 M20.55 -34.75 L20.3 -33.45 Q20.0 -32.4 19.5 -32.4 L18.3 -32.55 18.3 -33.0 18.85 -34.2 Q19.25 -34.75 20.55 -34.75" fill="#6e2012" fill-rule="evenodd" stroke="none"/>
    <path d="M4.05 -34.25 Q0.5 -32.55 -3.2 -32.55 -5.15 -32.55 -5.65 -33.8 L-5.65 -35.05 Q-5.65 -38.4 0.75 -40.9 7.1 -43.3 7.1 -36.75 7.1 -35.8 4.05 -34.25 M-10.9 -25.25 Q-10.9 -24.45 -12.1 -22.1 -13.55 -19.5 -14.75 -19.5 -16.5 -19.5 -16.9 -21.3 L-16.9 -23.2 Q-16.9 -26.05 -13.85 -27.35 -10.9 -28.6 -10.9 -25.25 M-12.35 -5.35 Q-12.35 -8.4 -9.9 -6.3 -7.5 -4.2 -7.5 -1.7 -7.5 -1.2 -7.8 -0.8 -8.15 -0.15 -8.85 -0.15 -10.05 -0.15 -11.3 -2.75 L-12.35 -5.35 M-18.7 3.05 Q-18.7 4.35 -19.35 5.3 -20.0 6.5 -21.2 6.5 -22.25 6.5 -22.55 5.7 L-22.75 4.9 Q-22.75 1.2 -18.95 2.1 L-18.8 2.35 -18.7 3.05 M-10.15 29.75 Q-2.65 31.25 -2.65 38.45 -2.65 44.0 -7.1 44.0 -11.35 44.0 -14.6 41.35 -17.75 38.85 -17.75 36.05 -17.75 32.3 -15.4 30.65 -13.3 29.1 -10.15 29.75 M19.5 15.7 Q24.05 17.3 27.15 21.1 30.65 25.3 30.65 30.2 30.65 31.25 29.05 32.1 27.75 32.7 26.75 32.7 L21.05 31.1 Q15.9 29.5 14.9 29.5 10.8 29.5 9.1 25.85 L8.3 22.15 Q8.3 17.15 11.8 15.45 14.9 14.0 19.5 15.7 M9.45 47.7 Q9.45 45.85 11.7 46.35 13.85 46.85 13.85 48.7 L13.7 49.8 Q13.3 50.2 12.25 50.2 10.25 50.2 9.7 48.85 L9.45 47.7" fill="#9f321f" fill-rule="evenodd" stroke="none"/>
  </g>
</svg>
