<?xml version="1.0" encoding="UTF-8" standalone="no"?>
<svg xmlns:ffdec="https://www.free-decompiler.com/flash" xmlns:xlink="http://www.w3.org/1999/xlink" ffdec:objectType="shape" height="38.75px" width="43.15px" xmlns="http://www.w3.org/2000/svg">
  <g transform="matrix(1.0, 0.0, 0.0, 1.0, 22.35, 3.4)">
    <path d="M2.5 -2.85 Q5.8 -2.4 13.3 3.7 20.8 9.85 20.8 12.25 20.8 14.15 18.85 16.25 16.7 18.55 14.0 18.85 15.15 22.2 16.3 23.95 16.75 24.6 16.75 26.8 16.75 28.45 13.5 30.75 10.05 33.2 7.05 33.2 L5.2 32.85 3.3 32.45 Q2.55 32.45 0.45 33.9 -1.65 35.35 -2.45 35.35 -5.9 35.35 -8.05 34.5 -11.45 33.2 -11.1 30.0 L-11.15 30.3 -11.85 30.4 Q-19.1 30.4 -21.2 25.95 -22.35 23.5 -22.35 16.1 -22.35 14.05 -17.4 8.3 -12.6 2.7 -11.35 2.7 L-9.55 0.3 Q-7.55 -2.35 -3.15 -3.3 L-9.2 2.9 -19.75 12.95 Q-20.7 14.0 -20.7 15.6 -20.7 19.05 -20.05 22.0 -19.2 26.1 -17.35 27.2 L-17.3 27.2 -14.35 28.15 -12.15 28.7 Q-10.9 28.7 -10.05 24.65 -8.9 19.55 -7.95 18.05 -7.2 17.2 -6.45 14.75 L-5.85 11.8 Q-5.85 9.75 -7.85 9.75 -11.85 9.75 -14.8 14.8 -16.4 17.5 -17.9 21.65 L-17.9 21.05 -18.15 20.65 -18.1 20.55 -17.55 18.1 -17.15 15.35 Q-17.15 14.8 -17.85 14.45 L-18.95 13.85 -18.75 13.7 Q-19.2 13.6 -18.2 13.6 -17.25 13.6 -14.05 10.85 -10.8 8.1 -7.85 8.1 L-6.35 8.5 -4.9 8.9 Q-2.5 8.9 0.3 7.85 3.15 6.75 4.9 6.75 L8.5 7.25 8.65 7.35 Q-0.35 9.75 -3.0 11.55 -4.9 12.8 -4.9 15.15 L-4.6 16.35 -4.05 17.3 -2.55 18.85 1.5 19.35 10.65 18.15 10.65 18.2 Q12.0 18.8 12.0 17.8 L15.55 15.95 Q19.05 13.8 19.05 11.9 19.05 11.45 15.4 7.6 L10.65 2.9 8.05 1.5 4.65 -0.25 4.6 -0.25 4.05 -0.55 Q3.6 -0.8 2.45 -2.85 L2.5 -2.85 M-3.55 33.65 Q-0.55 33.85 1.0 32.55 2.05 31.65 2.05 30.95 L1.95 23.6 Q1.7 21.35 0.3 20.85 -1.45 20.2 -3.25 19.25 -4.2 18.75 -5.0 18.75 L-6.15 19.7 -7.8 21.25 -8.65 24.2 Q-9.4 27.2 -9.4 29.55 -9.4 31.6 -7.45 32.75 -5.75 33.8 -3.55 33.65 M8.35 20.45 L7.1 20.65 3.75 21.0 3.6 22.2 3.4 23.55 3.7 31.0 5.45 31.3 7.65 31.5 Q11.45 30.55 12.4 29.45 14.35 27.85 15.05 26.55 L15.05 26.45 12.4 19.5 12.35 19.45 8.35 20.45" fill="#5c4730" fill-rule="evenodd" stroke="none"/>
    <path d="M-19.75 12.95 L-20.1 13.75 -20.2 14.7 Q-20.2 18.15 -19.85 19.55 -19.35 21.45 -17.7 23.1 L-13.8 15.35 Q-13.8 14.9 -13.25 14.35 -12.5 13.55 -11.15 13.55 -9.65 13.55 -9.05 14.75 -8.65 15.55 -7.95 18.05 -8.9 19.55 -10.05 24.65 -10.9 28.7 -12.15 28.7 L-14.35 28.15 -17.3 27.2 -17.35 27.2 Q-19.2 26.1 -20.05 22.0 -20.7 19.05 -20.7 15.6 -20.7 14.0 -19.75 12.95 M-4.05 17.3 Q-1.0 12.4 6.15 11.6 L10.5 11.15 Q12.3 10.8 12.3 9.7 12.3 8.6 10.05 6.7 7.7 4.7 5.95 4.7 L3.0 5.2 Q2.4 5.4 0.95 6.15 L-0.6 6.65 -2.15 5.85 Q-4.1 4.95 -6.95 4.5 L-9.3 4.9 Q-8.4 3.1 -7.1 2.1 -4.75 0.2 0.05 0.85 -0.4 0.25 -0.4 -1.1 -0.55 -1.6 -1.2 -1.7 1.0 -1.6 4.05 -0.55 L4.6 -0.25 4.65 -0.25 8.05 1.5 10.65 2.9 15.4 7.6 Q19.05 11.45 19.05 11.9 19.05 13.8 15.55 15.95 L12.0 17.8 Q12.0 18.8 10.65 18.2 L10.65 18.15 1.5 19.35 -2.55 18.85 -4.05 17.3 M-3.55 33.65 Q-5.75 33.8 -7.45 32.75 -9.4 31.6 -9.4 29.55 -9.4 27.2 -8.65 24.2 L-7.8 21.25 Q-4.8 21.55 -2.65 23.0 -0.25 24.6 -0.25 26.85 -0.25 27.25 -1.2 29.5 -2.35 32.3 -3.55 33.65 M7.65 31.5 L5.45 31.3 3.7 31.0 3.4 23.55 3.6 22.2 3.75 21.0 7.1 20.65 8.35 20.45 Q9.75 20.85 10.95 22.15 12.25 23.55 12.25 24.95 12.25 25.9 11.55 27.25 10.35 29.5 7.65 31.5" fill="#ce9255" fill-rule="evenodd" stroke="none"/>
    <path d="M-3.15 -3.3 L-1.35 -3.4 2.5 -2.85 2.45 -2.85 Q3.6 -0.8 4.05 -0.55 1.0 -1.6 -1.2 -1.7 -0.55 -1.6 -0.4 -1.1 -0.4 0.25 0.05 0.85 -4.75 0.2 -7.1 2.1 -8.4 3.1 -9.3 4.9 L-6.95 4.5 Q-4.1 4.95 -2.15 5.85 L-0.6 6.65 0.95 6.15 Q2.4 5.4 3.0 5.2 L5.95 4.7 Q7.7 4.7 10.05 6.7 12.3 8.6 12.3 9.7 12.3 10.8 10.5 11.15 L6.15 11.6 Q-1.0 12.4 -4.05 17.3 L-4.6 16.35 -4.9 15.15 Q-4.9 12.8 -3.0 11.55 -0.35 9.75 8.65 7.35 L8.5 7.25 4.9 6.75 Q3.15 6.75 0.3 7.85 -2.5 8.9 -4.9 8.9 L-6.35 8.5 -7.85 8.1 Q-10.8 8.1 -14.05 10.85 -17.25 13.6 -18.2 13.6 -19.2 13.6 -18.75 13.7 L-18.95 13.85 -17.85 14.45 Q-17.15 14.8 -17.15 15.35 L-17.55 18.1 -18.1 20.55 -18.15 20.65 -17.9 21.05 -17.9 21.65 Q-16.4 17.5 -14.8 14.8 -11.85 9.75 -7.85 9.75 -5.85 9.75 -5.85 11.8 L-6.45 14.75 Q-7.2 17.2 -7.95 18.05 -8.65 15.55 -9.05 14.75 -9.65 13.55 -11.15 13.55 -12.5 13.55 -13.25 14.35 -13.8 14.9 -13.8 15.35 L-17.7 23.1 Q-19.35 21.45 -19.85 19.55 -20.2 18.15 -20.2 14.7 L-20.1 13.75 -19.75 12.95 -9.2 2.9 -3.15 -3.3 M-7.8 21.25 L-6.15 19.7 -5.0 18.75 Q-4.2 18.75 -3.25 19.25 -1.45 20.2 0.3 20.85 1.7 21.35 1.95 23.6 L2.05 30.95 Q2.05 31.65 1.0 32.55 -0.55 33.85 -3.55 33.65 -2.35 32.3 -1.2 29.5 -0.25 27.25 -0.25 26.85 -0.25 24.6 -2.65 23.0 -4.8 21.55 -7.8 21.25 M7.65 31.5 Q10.35 29.5 11.55 27.25 12.25 25.9 12.25 24.95 12.25 23.55 10.95 22.15 9.75 20.85 8.35 20.45 L12.35 19.45 12.4 19.5 15.05 26.45 15.05 26.55 Q14.35 27.85 12.4 29.45 11.45 30.55 7.65 31.5" fill="#bf824a" fill-rule="evenodd" stroke="none"/>
  </g>
</svg>
