<?xml version="1.0" encoding="UTF-8" standalone="no"?>
<svg xmlns:ffdec="https://www.free-decompiler.com/flash" xmlns:xlink="http://www.w3.org/1999/xlink" ffdec:objectType="shape" height="26.8px" width="29.55px" xmlns="http://www.w3.org/2000/svg">
  <g transform="matrix(1.0, 0.0, 0.0, 1.0, 14.8, 13.4)">
    <path d="M-7.85 -9.4 L-6.85 -9.5 Q-5.75 -9.5 -4.55 -8.55 -3.45 -8.6 -3.9 -8.75 -3.65 -10.45 -3.1 -11.05 -2.2 -11.15 0.5 -10.0 1.55 -10.0 4.45 -11.05 5.4 -11.1 7.6 -10.2 9.85 -9.15 9.85 -8.5 9.85 -3.15 12.7 2.55 L12.6 3.05 11.55 2.0 8.8 4.0 8.95 3.8 9.65 1.35 Q8.15 -3.1 5.15 -3.1 L4.15 -2.8 4.3 -2.4 3.05 -2.45 Q1.55 -2.05 1.55 -1.4 1.55 -0.85 2.35 -0.6 L2.85 -0.55 2.65 -0.1 Q2.6 1.15 2.8 0.6 4.95 0.6 4.95 2.0 4.95 3.05 4.65 3.3 5.25 3.3 6.0 2.6 5.9 4.3 4.15 4.3 2.35 4.3 0.05 3.3 L0.4 1.5 Q0.85 1.15 0.5 1.05 L0.25 -1.4 -0.9 -1.65 Q-2.1 -1.5 -3.1 -0.15 L-2.9 0.15 -3.7 0.35 -4.1 -0.6 Q-2.7 -1.25 -2.5 -1.65 -2.95 -2.4 -3.65 -2.45 L-5.65 -0.35 Q-5.75 0.05 -4.9 1.05 L-5.35 1.55 -6.55 2.95 -7.65 2.6 -8.05 1.25 Q-6.55 -0.4 -6.55 -1.15 -8.35 -3.1 -8.35 -4.0 L-6.55 -8.55 -7.85 -9.4 M11.1 6.3 Q9.65 7.9 7.1 7.9 L6.7 7.8 Q9.7 7.35 10.7 6.5 L11.1 6.3 M5.4 7.55 L4.2 7.2 5.55 7.2 5.4 7.55 M-12.15 4.35 L-12.15 4.3 -12.0 4.0 -12.15 4.35 M2.35 -7.25 Q1.5 -8.6 1.2 -8.55 L0.35 -8.55 Q1.0 -7.55 2.05 -6.95 L2.35 -7.25 M0.05 -3.35 L0.7 -4.0 Q0.25 -5.25 -0.9 -6.1 L-1.65 -5.05 Q-1.65 -3.55 0.05 -3.35 M4.65 -7.55 Q3.45 -7.55 3.45 -6.2 L3.5 -5.55 Q4.15 -5.0 4.65 -4.9 6.0 -5.0 6.2 -5.35 L6.2 -6.0 Q5.2 -7.55 4.65 -7.55 M4.75 -0.5 L4.75 -0.95 5.25 0.35 4.75 -0.5 M-3.45 -2.6 L-4.95 -4.0 Q-5.9 -3.6 -5.9 -2.9 -5.35 -2.4 -4.95 -2.4 L-3.45 -2.6" fill="#886751" fill-rule="evenodd" stroke="none"/>
    <path d="M12.6 3.05 L12.7 2.55 Q9.85 -3.15 9.85 -8.5 9.85 -9.15 7.6 -10.2 5.4 -11.1 4.45 -11.05 1.55 -10.0 0.5 -10.0 -2.2 -11.15 -3.1 -11.05 -3.65 -10.45 -3.9 -8.75 -3.45 -8.6 -4.55 -8.55 -5.75 -9.5 -6.85 -9.5 L-7.85 -9.4 -8.65 -10.0 Q-9.65 -10.0 -10.7 -8.8 L-10.95 -8.8 Q-13.1 -6.2 -13.05 -4.8 -13.05 -3.5 -10.3 -0.95 -10.3 -0.15 -12.0 4.0 L-12.15 4.3 -12.15 4.35 -12.55 5.45 Q-12.65 6.35 -10.1 8.45 -7.85 10.4 -4.95 11.0 L-4.55 11.15 -2.2 11.3 Q-1.65 11.25 -0.9 9.3 L-0.55 8.35 -0.5 8.2 -0.35 8.05 Q0.5 7.25 1.0 7.25 L4.2 7.2 5.4 7.55 5.4 7.65 6.0 7.9 6.7 7.8 7.1 7.9 Q9.65 7.9 11.1 6.3 12.85 5.45 12.85 3.45 L12.6 3.05 M13.1 -1.65 Q14.75 1.05 14.75 2.35 14.75 4.4 13.1 6.8 10.9 10.2 7.1 10.2 L1.7 9.15 0.05 11.3 Q-1.5 13.4 -4.4 13.4 -7.5 13.4 -11.3 8.9 -14.4 5.15 -14.3 4.35 L-12.3 -0.7 Q-14.85 -2.75 -14.8 -3.55 -14.8 -6.5 -12.55 -8.8 -10.05 -11.65 -5.8 -11.65 -5.35 -11.65 -2.5 -13.4 -1.35 -13.4 0.5 -12.2 1.7 -12.25 4.35 -13.4 12.75 -13.4 11.55 -5.85 11.4 -4.35 13.1 -1.65" fill="#472d12" fill-rule="evenodd" stroke="none"/>
    <path d="M-7.65 2.6 L-6.55 2.95 -6.4 3.05 -6.2 3.3 Q-7.55 4.15 -10.25 4.75 L-9.4 7.2 -9.05 7.5 -7.3 7.65 Q-6.2 7.6 -5.6 8.55 -2.65 8.55 -2.2 4.45 -0.2 6.05 -0.2 7.0 L-0.5 8.2 -0.55 8.35 -0.9 9.3 Q-1.65 11.25 -2.2 11.3 L-4.55 11.15 -4.95 11.0 Q-7.85 10.4 -10.1 8.45 -12.65 6.35 -12.55 5.45 L-12.15 4.35 -12.0 4.0 Q-10.3 -0.15 -10.3 -0.95 -13.05 -3.5 -13.05 -4.8 -13.1 -6.2 -10.95 -8.8 L-10.7 -8.8 Q-9.85 -8.6 -9.85 -8.1 -9.85 -6.95 -10.75 -6.5 -10.75 -3.8 -9.6 -3.8 -8.55 -3.8 -8.55 -2.8 -8.55 -1.6 -9.4 1.55 L-9.4 2.0 -7.65 2.6 M-4.9 1.05 Q-5.75 0.05 -5.65 -0.35 L-3.65 -2.45 Q-2.95 -2.4 -2.5 -1.65 -2.7 -1.25 -4.1 -0.6 L-3.7 0.35 -3.1 1.55 Q-3.1 1.8 -4.1 2.0 L-4.9 1.05 M6.0 2.6 Q5.25 3.3 4.65 3.3 4.95 3.05 4.95 2.0 4.95 0.6 2.8 0.6 2.6 1.15 2.65 -0.1 L2.85 -0.55 Q3.2 -1.5 3.05 -2.15 L3.9 -2.15 4.75 -0.5 5.25 0.35 6.0 1.85 6.0 2.4 6.0 2.6 M6.7 7.8 L6.0 7.9 5.4 7.65 5.4 7.55 5.55 7.2 Q6.4 5.15 10.8 5.2 L11.05 5.6 10.7 6.5 Q9.7 7.35 6.7 7.8 M2.35 -7.25 L2.05 -6.95 Q1.0 -7.55 0.35 -8.55 L1.2 -8.55 Q1.5 -8.6 2.35 -7.25 M6.9 3.5 L7.1 3.8 6.45 4.75 6.2 4.55 Q6.45 3.55 6.9 3.5" fill="#554133" fill-rule="evenodd" stroke="none"/>
    <path d="M-7.85 -9.4 L-6.55 -8.55 -8.35 -4.0 Q-8.35 -3.1 -6.55 -1.15 -6.55 -0.4 -8.05 1.25 L-7.65 2.6 -9.4 2.0 -9.4 1.55 Q-8.55 -1.6 -8.55 -2.8 -8.55 -3.8 -9.6 -3.8 -10.75 -3.8 -10.75 -6.5 -9.85 -6.95 -9.85 -8.1 -9.85 -8.6 -10.7 -8.8 -9.65 -10.0 -8.65 -10.0 L-7.85 -9.4 M-6.55 2.95 L-5.35 1.55 -4.9 1.05 -4.1 2.0 Q-3.1 1.8 -3.1 1.55 L-3.7 0.35 -2.9 0.15 -3.1 -0.15 Q-2.1 -1.5 -0.9 -1.65 L0.25 -1.4 0.5 1.05 Q0.85 1.15 0.4 1.5 L0.05 3.3 Q2.35 4.3 4.15 4.3 5.9 4.3 6.0 2.6 L6.0 2.4 6.0 1.85 5.25 0.35 4.75 -0.95 4.75 -0.5 3.9 -2.15 3.05 -2.15 Q3.2 -1.5 2.85 -0.55 L2.35 -0.6 Q1.55 -0.85 1.55 -1.4 1.55 -2.05 3.05 -2.45 L4.3 -2.4 4.15 -2.8 5.15 -3.1 Q8.15 -3.1 9.65 1.35 L8.95 3.8 8.8 4.0 11.55 2.0 12.6 3.05 12.85 3.45 Q12.85 5.45 11.1 6.3 L10.7 6.5 11.05 5.6 10.8 5.2 Q6.4 5.15 5.55 7.2 L4.2 7.2 1.0 7.25 Q0.5 7.25 -0.35 8.05 L-0.5 8.2 -0.2 7.0 Q-0.2 6.05 -2.2 4.45 -2.65 8.55 -5.6 8.55 -6.2 7.6 -7.3 7.65 L-9.05 7.5 -9.4 7.2 -10.25 4.75 Q-7.55 4.15 -6.2 3.3 L-6.4 3.05 -6.55 2.95 M4.65 -7.55 Q5.2 -7.55 6.2 -6.0 L6.2 -5.35 Q6.0 -5.0 4.65 -4.9 4.15 -5.0 3.5 -5.55 L3.45 -6.2 Q3.45 -7.55 4.65 -7.55 M0.05 -3.35 Q-1.65 -3.55 -1.65 -5.05 L-0.9 -6.1 Q0.25 -5.25 0.7 -4.0 L0.05 -3.35 M6.9 3.5 Q6.45 3.55 6.2 4.55 L6.45 4.75 7.1 3.8 6.9 3.5 M-3.45 -2.6 L-4.95 -2.4 Q-5.35 -2.4 -5.9 -2.9 -5.9 -3.6 -4.95 -4.0 L-3.45 -2.6" fill="#6d5341" fill-rule="evenodd" stroke="none"/>
  </g>
</svg>
