<?xml version="1.0" encoding="UTF-8" standalone="no"?>
<svg xmlns:ffdec="https://www.free-decompiler.com/flash" xmlns:xlink="http://www.w3.org/1999/xlink" ffdec:objectType="shape" height="54.1px" width="44.0px" xmlns="http://www.w3.org/2000/svg">
  <g transform="matrix(1.0, 0.0, 0.0, 1.0, 17.9, 43.2)">
    <path d="M2.55 -40.2 Q4.5 -38.65 6.05 -34.55 7.95 -29.5 8.1 -22.85 L1.25 -22.0 1.35 -20.25 1.35 -19.55 -2.05 -23.1 Q-4.25 -25.15 -3.35 -27.95 -2.95 -33.15 -3.05 -33.45 -3.25 -34.0 -5.4 -34.9 L2.55 -40.2 M1.2 -2.15 L5.8 -3.25 -0.5 10.9 -1.05 8.3 -1.35 5.55 Q-1.35 3.4 -0.5 -0.85 0.35 -5.1 1.1 -6.7 L1.2 -2.15" fill="#feb86b" fill-rule="evenodd" stroke="none"/>
    <path d="M8.1 -22.85 L9.35 -9.1 5.25 -4.75 Q5.25 -3.75 5.8 -3.25 L1.2 -2.15 Q3.05 -5.75 3.05 -9.6 L1.35 -20.25 1.25 -22.0 8.1 -22.85" fill="#fec281" fill-rule="evenodd" stroke="none"/>
    <path d="M10.1 -26.1 L10.1 -25.1 10.15 -21.5 10.55 -17.05 11.4 -12.0 9.35 -9.1 8.1 -22.85 Q7.95 -29.5 6.05 -34.55 4.5 -38.65 2.55 -40.2 L6.2 -43.2 Q8.65 -37.15 9.4 -33.7 10.15 -30.45 10.1 -26.1 M-3.05 -21.25 L-4.85 -23.55 Q-5.4 -24.65 -5.4 -27.3 L-5.5 -29.85 Q-5.9 -31.5 -7.95 -33.2 L-5.4 -34.9 Q-3.25 -34.0 -3.05 -33.45 -2.95 -33.15 -3.35 -27.95 -4.25 -25.15 -2.05 -23.1 L1.35 -19.55 1.35 -20.25 3.05 -9.6 Q3.05 -5.75 1.2 -2.15 L1.1 -6.7 0.5 -13.2 -0.75 -19.2 -2.25 -20.55 -3.05 -21.25" fill="#684e35" fill-rule="evenodd" stroke="none"/>
    <path d="M10.1 -25.1 L10.1 -26.1 Q13.05 -26.7 17.65 -25.0 L21.75 -23.15 Q23.6 -23.15 25.0 -18.7 26.1 -15.15 26.1 -12.7 26.1 -11.7 25.2 -8.55 L23.7 -4.25 23.2 -3.45 Q23.0 -4.25 21.8 -5.9 L20.2 -7.5 Q19.65 -7.5 19.0 -7.95 L17.5 -8.9 Q15.2 -3.25 12.75 0.2 9.55 4.7 5.2 6.95 L5.2 6.9 Q12.75 -4.2 12.5 -4.3 L11.9 -4.4 6.4 -4.4 Q2.4 8.3 5.2 6.9 L5.1 7.05 -0.5 10.9 -5.95 4.15 Q-7.85 1.65 -9.6 -1.8 -11.15 1.9 -14.65 2.3 L-17.15 2.3 -17.25 2.15 -17.9 1.95 Q-13.3 -4.1 -13.25 -6.1 -13.25 -7.25 -14.15 -9.05 -14.15 -11.2 -11.8 -14.3 -8.65 -18.5 -3.05 -21.25 L-2.25 -20.55 Q-5.55 -19.0 -9.3 -15.2 -13.1 -11.4 -13.1 -9.55 -13.1 -8.15 -11.7 -6.2 -8.75 -1.9 -6.3 2.55 -6.25 -0.3 -5.35 -3.5 -3.65 -9.95 0.5 -13.2 L1.1 -6.7 Q0.35 -5.1 -0.5 -0.85 -1.35 3.4 -1.35 5.55 L-1.05 8.3 -0.5 10.9 5.8 -3.25 Q5.25 -3.75 5.25 -4.75 L9.35 -9.1 11.4 -12.0 10.55 -17.05 12.15 -16.8 12.7 -16.1 13.05 -14.7 Q13.05 -12.55 11.35 -9.85 9.7 -7.15 7.5 -5.75 L9.85 -6.75 Q12.35 -8.15 13.25 -10.25 L14.1 -10.3 Q17.75 -10.3 21.0 -8.15 L23.25 -5.5 24.3 -8.9 Q25.05 -11.55 25.05 -12.7 25.05 -18.0 22.45 -20.85 18.95 -24.65 10.25 -25.15 L10.1 -25.1 M6.7 5.6 Q8.4 3.75 10.7 0.2 12.75 -3.05 5.2 6.9 L6.7 5.6 M-14.0 -2.05 Q-15.0 -0.25 -16.15 1.25 -13.55 1.2 -11.55 -0.5 -8.9 -2.75 -12.6 -5.85 -12.55 -4.55 -14.0 -2.05" fill="#6b6b6b" fill-rule="evenodd" stroke="none"/>
    <path d="M10.55 -17.05 L10.15 -21.5 11.35 -19.15 12.15 -16.8 10.55 -17.05 M10.25 -25.15 Q18.95 -24.65 22.45 -20.85 25.05 -18.0 25.05 -12.7 25.05 -11.55 24.3 -8.9 L23.25 -5.5 21.0 -8.15 Q22.15 -9.15 22.9 -11.0 23.6 -12.65 23.6 -13.9 23.6 -22.45 16.65 -19.25 16.8 -20.45 15.25 -22.2 13.35 -24.3 10.25 -25.15 M-2.25 -20.55 L-0.75 -19.2 0.5 -13.2 Q-3.65 -9.95 -5.35 -3.5 -6.25 -0.3 -6.3 2.55 -8.75 -1.9 -11.7 -6.2 -13.1 -8.15 -13.1 -9.55 -13.1 -11.4 -9.3 -15.2 -5.55 -19.0 -2.25 -20.55" fill="#d3d3d3" fill-rule="evenodd" stroke="none"/>
    <path d="M5.2 6.95 L5.1 7.05 5.2 6.9 Q2.4 8.3 6.4 -4.4 L11.9 -4.4 12.5 -4.3 Q12.75 -4.2 5.2 6.9 L5.2 6.95 M6.7 5.6 L5.2 6.9 Q12.75 -3.05 10.7 0.2 8.4 3.75 6.7 5.6 M-14.0 -2.05 Q-12.55 -4.55 -12.6 -5.85 -8.9 -2.75 -11.55 -0.5 -13.55 1.2 -16.15 1.25 -15.0 -0.25 -14.0 -2.05" fill="#b2b2b2" fill-rule="evenodd" stroke="none"/>
    <path d="M10.15 -21.5 L10.1 -25.1 10.25 -25.15 Q13.35 -24.3 15.25 -22.2 16.8 -20.45 16.65 -19.25 23.6 -22.45 23.6 -13.9 23.6 -12.65 22.9 -11.0 22.15 -9.15 21.0 -8.15 17.75 -10.3 14.1 -10.3 L13.25 -10.25 Q12.35 -8.15 9.85 -6.75 L7.5 -5.75 Q9.7 -7.15 11.35 -9.85 13.05 -12.55 13.05 -14.7 L12.7 -16.1 12.15 -16.8 11.35 -19.15 10.15 -21.5" fill="#f8f8f8" fill-rule="evenodd" stroke="none"/>
  </g>
</svg>
