<?xml version="1.0" encoding="UTF-8" standalone="no"?>
<svg xmlns:ffdec="https://www.free-decompiler.com/flash" xmlns:xlink="http://www.w3.org/1999/xlink" ffdec:objectType="shape" height="79.5px" width="79.7px" xmlns="http://www.w3.org/2000/svg">
  <g transform="matrix(1.0, 0.0, 0.0, 1.0, -30.95, 21.5)">
    <path d="M51.85 -16.5 L52.95 -16.5 52.35 -8.35 51.95 -1.35 Q51.95 5.0 53.85 17.7 55.7 30.35 55.7 33.9 55.7 43.0 53.6 46.5 51.9 49.4 47.4 50.2 47.9 50.9 50.35 52.2 52.75 53.45 54.95 54.2 L54.4 52.1 56.35 52.5 59.05 52.85 Q62.4 52.85 63.65 46.9 64.35 43.7 64.35 39.05 64.35 28.1 62.65 15.4 60.9 2.75 60.9 -1.05 60.9 -11.8 61.15 -13.55 L62.0 -16.5 63.5 -16.5 Q61.95 -9.5 61.95 -3.2 L62.2 2.3 62.7 9.45 65.3 27.9 67.1 44.7 Q67.1 49.6 65.0 52.45 63.3 54.65 61.15 54.9 L60.0 55.05 Q61.35 56.0 63.65 56.3 L65.8 56.35 Q68.1 56.35 70.75 54.3 74.3 51.55 74.3 46.95 L71.9 30.05 71.55 27.75 Q72.0 29.0 72.9 30.15 74.7 32.4 75.4 34.5 76.65 38.4 76.65 46.05 76.65 47.55 75.2 52.3 75.2 53.8 77.8 54.7 L80.5 55.35 83.8 54.85 Q85.65 54.2 88.55 52.3 L86.95 52.45 Q81.4 52.45 79.25 47.7 77.65 44.1 77.1 34.5 76.2 18.5 75.75 14.55 L75.75 14.4 77.55 21.7 Q84.8 49.95 88.9 49.95 89.9 49.95 92.4 47.8 L92.85 48.25 Q93.25 48.95 93.25 50.3 94.0 50.0 95.85 48.5 98.3 46.45 99.6 44.55 L97.45 44.75 Q93.25 44.75 91.0 40.4 89.25 36.9 87.7 27.85 L84.35 7.9 Q81.8 -6.25 78.05 -18.8 L79.15 -19.05 Q82.5 -13.15 84.7 -1.65 85.6 3.0 87.75 18.95 89.35 31.1 91.0 36.15 93.35 43.35 97.25 43.35 L98.8 42.7 101.2 42.05 Q101.85 42.05 102.05 42.35 L102.25 42.95 Q106.0 41.35 107.05 40.55 L108.25 39.0 108.55 37.9 Q106.9 37.85 105.75 38.45 104.55 39.1 102.85 39.1 96.75 39.1 94.5 35.15 92.75 32.05 92.25 23.55 L90.9 4.8 Q89.4 -8.35 85.4 -20.65 L88.85 -21.5 Q90.8 -10.25 92.05 1.95 L93.6 18.1 Q94.35 24.85 95.6 27.45 97.05 30.45 100.25 30.45 101.25 30.45 102.25 29.6 L102.75 29.95 Q103.25 30.45 103.25 31.05 103.25 32.6 100.2 36.8 L103.6 37.05 Q105.15 37.05 106.95 35.5 L109.55 32.6 Q110.65 34.7 110.65 36.55 110.65 39.7 99.55 48.05 87.7 56.95 80.6 56.95 L77.3 56.45 Q74.6 55.7 74.0 54.15 73.2 56.1 70.55 57.1 68.2 58.0 64.8 58.0 L59.85 56.9 Q55.65 55.75 54.15 55.75 49.8 55.75 42.05 50.8 34.55 46.0 34.55 43.75 34.55 42.7 34.85 41.0 35.9 42.6 38.15 43.4 L40.95 43.9 42.4 43.65 44.95 42.8 41.25 39.25 Q40.8 38.7 40.45 36.9 L45.95 32.5 Q47.6 30.75 47.6 28.6 L46.95 23.15 45.5 13.75 Q41.9 35.5 31.35 41.6 L30.95 41.65 Q32.0 37.95 34.05 32.95 L37.5 24.6 Q41.35 14.2 41.35 2.55 40.85 -10.0 40.35 -10.0 L41.35 -10.0 41.5 -16.5 45.05 -16.5 44.6 -10.0 42.75 -10.0 42.4 -10.0 Q42.8 -6.45 43.0 1.55 L42.15 15.95 42.15 16.35 42.1 16.8 Q41.75 20.35 40.45 24.7 38.85 29.95 36.55 33.9 40.95 27.25 41.6 23.6 L42.0 24.35 43.6 14.6 43.8 11.95 Q45.45 -6.45 45.25 -10.0 48.55 -6.5 47.7 -1.25 L46.85 2.75 Q46.35 4.95 46.5 6.15 48.2 18.1 50.05 26.65 L51.45 33.65 Q51.45 37.65 50.1 40.0 48.55 42.75 44.3 45.3 L43.7 45.5 37.0 45.3 37.85 47.55 Q39.4 49.25 44.4 49.25 L45.8 48.95 47.8 48.65 Q51.2 48.65 52.3 46.5 53.9 43.3 53.9 32.2 53.9 29.15 52.4 16.3 50.9 3.45 50.9 -4.8 L51.25 -10.2 51.85 -16.5 M70.15 -16.0 Q70.7 -16.5 71.55 -16.5 70.85 -13.9 70.85 -12.9 70.85 -11.0 71.2 -8.2 L70.5 -10.4 Q70.25 -6.95 70.9 3.3 71.35 11.05 72.15 15.65 71.05 21.55 71.1 24.8 L69.05 10.4 68.15 -4.0 Q68.15 -7.9 68.6 -9.9 L69.8 -15.55 70.15 -16.0 M99.9 33.85 L100.9 32.3 Q98.6 32.65 96.3 30.45 93.8 28.1 93.6 24.65 L93.65 26.35 Q93.4 28.3 95.25 31.95 96.9 35.25 97.4 35.25 98.8 35.25 99.9 33.85 M73.85 22.0 L73.25 20.0 73.5 20.65 73.85 22.0 M47.8 34.75 Q46.35 38.25 43.2 38.6 L44.65 39.95 Q46.05 41.0 47.25 40.65 L48.25 37.8 Q49.05 35.2 49.05 33.75 L48.8 30.9 48.45 29.5 Q49.0 31.85 47.8 34.75" fill="#270e10" fill-rule="evenodd" stroke="none"/>
    <path d="M43.7 45.5 L44.3 45.3 Q46.45 44.85 49.15 43.65 L50.5 42.65 Q50.45 44.35 48.6 45.45 46.9 46.4 44.85 46.4 44.15 46.4 44.0 46.1 L43.7 45.5 M43.8 11.95 L43.6 14.6 42.0 24.35 41.6 23.6 42.1 16.8 42.15 16.35 42.15 15.95 43.0 1.55 42.75 -10.0 44.6 -10.0 44.35 -0.15 43.8 11.95" fill="#652329" fill-rule="evenodd" stroke="none"/>
    <path d="M52.95 -16.5 L62.0 -16.5 61.15 -13.55 Q60.9 -11.8 60.9 -1.05 60.9 2.75 62.65 15.4 64.35 28.1 64.35 39.05 64.35 43.7 63.65 46.9 62.4 52.85 59.05 52.85 L56.35 52.5 54.4 52.1 54.95 54.2 Q52.75 53.45 50.35 52.2 47.9 50.9 47.4 50.2 51.9 49.4 53.6 46.5 55.7 43.0 55.7 33.9 55.7 30.35 53.85 17.7 51.95 5.0 51.95 -1.35 L52.35 -8.35 52.95 -16.5 M63.5 -16.5 L67.35 -16.8 Q72.35 -17.35 78.05 -18.8 81.8 -6.25 84.35 7.9 L87.7 27.85 Q89.25 36.9 91.0 40.4 93.25 44.75 97.45 44.75 L99.6 44.55 Q98.3 46.45 95.85 48.5 94.0 50.0 93.25 50.3 93.25 48.95 92.85 48.25 L92.4 47.8 Q89.9 49.95 88.9 49.95 84.8 49.95 77.55 21.7 L75.75 14.4 75.75 14.55 Q76.2 18.5 77.1 34.5 77.65 44.1 79.25 47.7 81.4 52.45 86.95 52.45 L88.55 52.3 Q85.65 54.2 83.8 54.85 L80.5 55.35 77.8 54.7 Q75.2 53.8 75.2 52.3 76.65 47.55 76.65 46.05 76.65 38.4 75.4 34.5 74.7 32.4 72.9 30.15 72.0 29.0 71.55 27.75 L71.9 30.05 74.3 46.95 Q74.3 51.55 70.75 54.3 68.1 56.35 65.8 56.35 L63.65 56.3 Q61.35 56.0 60.0 55.05 L61.15 54.9 Q63.3 54.65 65.0 52.45 67.1 49.6 67.1 44.7 L65.3 27.9 62.7 9.45 62.2 2.3 61.95 -3.2 Q61.95 -9.5 63.5 -16.5 M79.15 -19.05 L85.4 -20.65 Q89.4 -8.35 90.9 4.8 L92.25 23.55 Q92.75 32.05 94.5 35.15 96.75 39.1 102.85 39.1 104.55 39.1 105.75 38.45 106.9 37.85 108.55 37.9 L108.25 39.0 107.05 40.55 Q106.0 41.35 102.25 42.95 L102.05 42.35 Q101.85 42.05 101.2 42.05 L98.8 42.7 97.25 43.35 Q93.35 43.35 91.0 36.15 89.35 31.1 87.75 18.95 85.6 3.0 84.7 -1.65 82.5 -13.15 79.15 -19.05 M45.05 -16.5 L51.85 -16.5 51.25 -10.2 50.9 -4.8 Q50.9 3.45 52.4 16.3 53.9 29.15 53.9 32.2 53.9 43.3 52.3 46.5 51.2 48.65 47.8 48.65 L45.8 48.95 44.4 49.25 Q39.4 49.25 37.85 47.55 L37.0 45.3 43.7 45.5 44.0 46.1 Q44.15 46.4 44.85 46.4 46.9 46.4 48.6 45.45 50.45 44.35 50.5 42.65 L49.15 43.65 Q46.45 44.85 44.3 45.3 48.55 42.75 50.1 40.0 51.45 37.65 51.45 33.65 L50.05 26.65 Q48.2 18.1 46.5 6.15 46.35 4.95 46.85 2.75 L47.7 -1.25 Q48.55 -6.5 45.25 -10.0 45.45 -6.45 43.8 11.95 L44.35 -0.15 44.6 -10.0 45.05 -16.5 M41.6 23.6 Q40.95 27.25 36.55 33.9 38.85 29.95 40.45 24.7 41.75 20.35 42.1 16.8 L41.6 23.6 M43.0 1.55 Q42.8 -6.45 42.4 -10.0 L42.75 -10.0 43.0 1.55 M70.15 -16.0 L69.8 -15.55 68.6 -9.9 Q68.15 -7.9 68.15 -4.0 L69.05 10.4 71.1 24.8 Q71.05 21.55 72.15 15.65 71.35 11.05 70.9 3.3 70.25 -6.95 70.5 -10.4 L71.2 -8.2 Q70.85 -11.0 70.85 -12.9 70.85 -13.9 71.55 -16.5 70.7 -16.5 70.15 -16.0 M99.9 33.85 Q98.8 35.25 97.4 35.25 96.9 35.25 95.25 31.95 93.4 28.3 93.65 26.35 L93.6 24.65 Q93.8 28.1 96.3 30.45 98.6 32.65 100.9 32.3 L99.9 33.85 M73.85 22.0 L73.5 20.65 73.25 20.0 73.85 22.0 M47.8 34.75 Q49.0 31.85 48.45 29.5 L48.8 30.9 49.05 33.75 Q49.05 35.2 48.25 37.8 L47.25 40.65 Q46.05 41.0 44.65 39.95 L43.2 38.6 Q46.35 38.25 47.8 34.75" fill="#42171b" fill-rule="evenodd" stroke="none"/>
  </g>
</svg>
