<?xml version="1.0" encoding="UTF-8" standalone="no"?>
<svg xmlns:ffdec="https://www.free-decompiler.com/flash" xmlns:xlink="http://www.w3.org/1999/xlink" ffdec:objectType="shape" height="62.25px" width="45.8px" xmlns="http://www.w3.org/2000/svg">
  <g transform="matrix(1.0, 0.0, 0.0, 1.0, 16.4, 11.25)">
    <path d="M-0.9 -11.15 Q2.0 -11.0 6.1 -9.5 11.85 -7.4 12.55 -5.45 21.4 18.0 25.3 29.55 29.4 41.75 29.4 44.85 29.4 47.0 27.9 48.75 26.0 51.0 22.5 51.0 21.05 51.0 18.3 49.4 15.25 47.65 13.4 45.35 14.1 45.8 13.2 44.85 L11.2 42.7 Q5.7 36.25 -1.95 26.5 L-14.55 10.4 Q-15.3 9.45 -15.9 7.75 L-16.4 5.5 Q-16.4 2.1 -14.9 -1.4 -13.6 -4.45 -11.65 -6.6 -12.65 -5.2 -13.7 -2.05 -14.65 0.8 -14.65 1.85 -14.65 4.4 -13.5 5.7 -10.2 9.4 -5.7 17.35 6.15 32.0 15.15 44.15 17.6 47.25 18.85 48.15 20.05 48.95 21.95 48.95 23.75 48.95 25.85 47.4 L25.95 47.4 Q27.4 46.7 27.4 45.5 25.9 37.5 22.35 29.75 17.85 19.9 15.0 9.35 12.5 0.1 9.3 -5.9 8.4 -7.6 4.45 -9.5 1.5 -10.95 -0.9 -11.15" fill="#2c525f" fill-rule="evenodd" stroke="none"/>
    <path d="M25.95 47.4 L25.85 47.4 Q23.75 48.95 21.95 48.95 20.05 48.95 18.85 48.15 17.6 47.25 15.15 44.15 6.15 32.0 -5.7 17.35 -8.45 11.95 -11.25 1.5 -11.25 -1.7 -7.35 -5.1 -4.1 -7.95 -2.8 -7.95 0.1 -7.95 2.1 -5.95 4.2 -3.85 6.95 2.0 L25.85 47.4 26.05 46.35 25.95 47.4" fill="#c1dcee" fill-rule="evenodd" stroke="none"/>
    <path d="M-0.9 -11.15 Q1.5 -10.95 4.45 -9.5 8.4 -7.6 9.3 -5.9 12.5 0.1 15.0 9.35 17.85 19.9 22.35 29.75 25.9 37.5 27.4 45.5 27.4 46.7 25.95 47.4 L26.05 46.35 25.85 47.4 6.95 2.0 Q4.2 -3.85 2.1 -5.95 0.1 -7.95 -2.8 -7.95 -4.1 -7.95 -7.35 -5.1 -11.25 -1.7 -11.25 1.5 -8.45 11.95 -5.7 17.35 -10.2 9.4 -13.5 5.7 -14.65 4.4 -14.65 1.85 -14.65 0.8 -13.7 -2.05 -12.65 -5.2 -11.65 -6.6 -5.9 -10.7 -2.95 -11.15 L-0.9 -11.15" fill="#8bbfde" fill-rule="evenodd" stroke="none"/>
  </g>
</svg>
