<?xml version="1.0" encoding="UTF-8" standalone="no"?>
<svg xmlns:ffdec="https://www.free-decompiler.com/flash" xmlns:xlink="http://www.w3.org/1999/xlink" ffdec:objectType="shape" height="102.55px" width="117.05px" xmlns="http://www.w3.org/2000/svg">
  <g transform="matrix(1.0, 0.0, 0.0, 1.0, 27.0, 39.25)">
    <path d="M30.95 -26.55 Q31.85 -27.85 34.3 -30.05 37.5 -32.9 38.95 -33.65 L40.45 -34.3 Q39.2 -32.8 38.55 -30.15 37.7 -26.85 38.95 -25.1 36.15 -26.15 34.2 -26.6 31.8 -27.15 30.95 -26.55 M8.7 -1.95 Q11.25 -4.8 11.35 -5.55 10.4 -6.4 8.15 -6.6 L2.4 -6.1 Q-2.8 -5.0 -7.85 -2.15 -10.4 -0.7 -12.0 0.5 L-12.6 0.4 -12.5 0.0 Q-4.95 -15.95 18.85 -15.95 33.55 -15.95 45.25 -9.35 55.55 -3.55 55.55 1.65 55.55 4.95 51.25 8.7 46.95 12.5 43.0 12.5 L42.1 12.25 41.95 11.65 43.65 8.65 Q45.2 5.7 45.2 4.05 45.2 -0.2 43.3 -0.2 L37.7 3.6 Q31.95 7.35 30.55 7.35 L29.8 7.15 29.7 6.65 Q29.75 6.1 31.35 2.2 L32.9 -1.8 Q32.9 -3.85 31.15 -4.8 29.85 -5.5 27.85 -5.5 20.45 -5.5 14.6 -1.1 L10.8 1.9 Q8.85 3.25 7.35 3.25 L5.95 2.05 Q6.15 0.9 8.7 -1.95 M58.45 -13.35 Q53.55 -17.75 44.7 -22.15 48.45 -25.35 56.75 -27.45 63.9 -29.3 68.2 -29.1 66.4 -27.45 65.75 -24.2 65.5 -22.8 65.5 -20.95 65.5 -15.35 69.95 -13.2 73.05 -11.8 77.7 -12.1 74.25 -10.2 71.55 -5.55 69.25 -1.55 69.2 0.9 64.2 -8.15 58.45 -13.35 M44.95 25.4 L44.3 35.45 44.0 35.45 43.15 44.05 Q42.6 48.15 42.6 48.85 42.6 54.1 44.5 58.8 L43.7 58.25 Q41.3 55.4 40.55 53.5 39.6 51.1 39.6 47.0 39.6 45.5 40.9 37.5 42.15 29.5 42.15 25.35 42.15 21.65 40.9 19.0 39.4 15.7 35.7 13.1 41.5 15.05 42.85 16.55 44.95 18.85 44.95 25.4 M-25.0 21.1 Q-25.0 14.7 -21.8 10.5 -18.8 6.6 -15.4 7.15 -22.65 11.4 -22.65 18.5 -22.65 21.0 -21.45 27.05 -20.3 33.1 -20.3 37.6 -20.3 42.8 -22.2 46.75 -21.75 44.95 -21.35 41.75 L-20.95 38.0 Q-20.95 36.25 -22.95 29.35 -25.0 22.5 -25.0 21.1 M2.5 7.75 Q2.95 9.2 1.5 13.6 -0.15 18.55 -0.15 19.9 L0.35 23.65 -0.35 22.65 -1.3 20.05 -1.85 17.55 -0.6 9.05 Q-0.6 6.65 -1.2 5.7 -1.95 4.55 -4.05 4.55 L-7.0 4.9 -5.5 2.7 Q-5.15 2.25 -4.55 2.25 -3.25 2.25 -0.85 3.95 1.7 5.85 2.5 7.75 M24.65 5.45 Q26.5 9.35 26.5 11.75 L25.75 17.25 Q24.95 22.2 24.95 25.5 24.95 29.25 28.95 34.15 32.95 39.05 32.95 42.4 32.95 43.6 31.3 45.8 L27.9 50.15 28.35 48.8 28.95 45.85 29.3 43.15 Q29.3 39.4 25.1 33.7 20.85 28.05 20.85 26.35 20.85 23.05 22.2 18.55 L23.5 13.9 Q23.5 11.05 21.95 9.25 20.55 7.55 18.75 7.55 L14.15 8.95 8.9 8.65 Q8.8 6.6 12.35 3.5 15.95 0.35 18.7 0.35 22.25 0.35 24.65 5.45" fill="#442f20" fill-rule="evenodd" stroke="none"/>
    <path d="M30.95 -26.55 Q31.8 -27.15 34.2 -26.6 36.15 -26.15 38.95 -25.1 37.7 -26.85 38.55 -30.15 39.2 -32.8 40.45 -34.3 L38.95 -33.65 Q37.5 -32.9 34.3 -30.05 31.85 -27.85 30.95 -26.55 M8.7 -1.95 Q6.15 0.9 5.95 2.05 L7.35 3.25 Q8.85 3.25 10.8 1.9 L14.6 -1.1 Q20.45 -5.5 27.85 -5.5 29.85 -5.5 31.15 -4.8 32.9 -3.85 32.9 -1.8 L31.35 2.2 Q29.75 6.1 29.7 6.65 L29.8 7.15 30.55 7.35 Q31.95 7.35 37.7 3.6 L43.3 -0.2 Q45.2 -0.2 45.2 4.05 45.2 5.7 43.65 8.65 L41.95 11.65 42.1 12.25 43.0 12.5 Q46.95 12.5 51.25 8.7 55.55 4.95 55.55 1.65 55.55 -3.55 45.25 -9.35 33.55 -15.95 18.85 -15.95 -4.95 -15.95 -12.5 0.0 L-12.6 0.4 -12.0 0.5 Q-10.4 -0.7 -7.85 -2.15 -2.8 -5.0 2.4 -6.1 L8.15 -6.6 Q10.4 -6.4 11.35 -5.55 11.25 -4.8 8.7 -1.95 M5.65 -17.75 Q11.05 -19.6 21.8 -19.6 35.05 -19.6 48.75 -11.7 65.3 -2.15 65.3 12.05 65.3 18.6 62.35 24.7 L60.75 28.2 58.45 31.95 Q56.5 34.55 55.8 34.95 54.65 35.7 51.6 35.7 L48.55 35.4 Q45.65 34.85 45.65 33.65 45.65 32.2 46.25 28.6 46.85 24.95 46.85 23.0 46.85 16.85 43.0 13.8 39.45 11.05 33.1 11.05 29.85 11.05 28.1 9.15 27.05 8.0 25.95 5.05 24.9 2.05 23.95 0.95 22.35 -0.9 19.25 -0.9 11.9 2.15 10.2 3.7 8.5 5.25 7.5 7.0 7.0 7.9 6.85 8.45 L4.75 8.15 Q4.95 7.05 3.15 4.7 1.3 2.3 0.15 2.3 L-2.3 1.75 -4.55 1.15 Q-6.1 1.15 -7.8 3.45 -9.55 5.7 -11.5 5.7 -12.8 5.7 -14.15 3.5 -15.45 1.5 -15.45 0.1 -15.45 -3.1 -12.15 -6.35 -9.95 -8.55 -4.8 -11.95 2.4 -16.65 5.65 -17.75 M37.8 -19.0 Q31.0 -21.6 25.85 -21.85 28.2 -31.45 34.75 -35.05 38.3 -37.05 48.05 -38.55 L46.4 -34.3 45.25 -30.85 45.45 -30.6 46.7 -29.95 53.85 -31.65 Q59.1 -32.8 61.4 -32.8 67.9 -32.8 73.5 -30.4 72.75 -28.55 71.85 -25.1 71.0 -21.8 71.0 -20.85 71.0 -18.9 73.3 -16.95 76.4 -14.35 83.2 -12.5 L78.3 -7.7 Q76.8 -5.75 76.8 -2.65 76.8 -0.15 77.8 1.4 79.2 3.55 82.4 3.55 L85.55 3.1 89.0 2.4 Q87.15 12.5 84.4 15.9 80.3 20.9 66.7 25.9 68.2 21.85 68.15 14.55 68.15 9.0 65.0 2.55 61.5 -4.55 55.85 -8.8 46.95 -15.55 37.8 -19.0 M58.45 -13.35 Q64.2 -8.15 69.2 0.9 69.25 -1.55 71.55 -5.55 74.25 -10.2 77.7 -12.1 73.05 -11.8 69.95 -13.2 65.5 -15.35 65.5 -20.95 65.5 -22.8 65.75 -24.2 66.4 -27.45 68.2 -29.1 63.9 -29.3 56.75 -27.45 48.45 -25.35 44.7 -22.15 53.55 -17.75 58.45 -13.35 M65.5 49.45 Q62.75 48.3 61.8 48.25 L61.35 50.1 Q61.05 51.5 61.05 52.2 61.05 53.75 61.5 55.3 62.15 57.75 63.7 59.15 L62.55 58.8 Q60.35 58.05 58.4 55.9 56.85 54.3 56.15 52.7 54.4 53.95 53.6 55.5 52.85 56.9 52.4 59.45 L51.15 58.95 Q49.95 58.15 49.8 57.45 L55.5 49.25 61.3 40.5 70.8 50.6 69.0 50.7 Q68.3 50.65 65.5 49.45" fill="#3a281b" fill-rule="evenodd" stroke="none"/>
    <path d="M28.4 -30.6 Q32.25 -35.95 37.35 -37.9 41.0 -39.25 47.1 -39.25 L49.25 -39.2 48.5 -33.55 50.95 -33.3 54.05 -33.9 60.5 -34.55 67.05 -33.3 Q72.9 -31.95 74.95 -30.95 74.5 -29.65 73.8 -26.65 72.95 -23.0 72.95 -21.5 72.95 -19.45 75.35 -17.75 77.9 -15.9 85.4 -12.8 82.25 -12.3 80.3 -8.1 78.85 -5.0 78.85 -2.95 78.85 -0.1 80.3 0.95 81.55 1.85 84.8 1.85 L89.9 0.95 90.05 3.8 Q90.05 11.95 87.35 15.75 L84.4 20.0 Q81.2 24.25 80.25 24.25 79.7 24.25 78.15 25.6 L75.55 27.5 Q73.0 28.75 70.2 29.2 L65.65 29.55 63.45 35.1 Q62.35 37.7 62.35 38.2 62.35 41.05 67.55 45.55 L75.1 51.3 69.6 52.8 Q67.8 52.8 65.8 52.0 L64.0 51.25 Q63.15 51.05 63.1 51.8 62.8 53.45 64.0 55.85 65.55 59.0 69.2 62.05 64.65 62.0 60.7 60.05 57.05 58.25 55.7 55.85 L54.85 58.15 Q54.1 60.55 54.15 62.05 52.15 61.8 50.2 60.7 47.75 59.35 47.75 57.6 47.75 57.0 48.7 55.85 L52.65 51.0 Q56.9 44.7 57.9 41.25 55.05 40.95 51.6 39.8 47.0 38.25 45.3 36.35 45.0 36.8 44.4 43.45 L43.9 50.15 Q43.9 53.45 44.85 56.05 46.05 59.45 49.3 63.3 41.85 58.15 39.65 54.45 37.8 51.45 37.8 45.75 37.8 41.3 38.95 34.9 40.1 28.5 40.1 26.65 40.1 25.5 37.65 21.1 L35.0 16.6 33.65 14.75 Q32.75 13.7 30.95 12.55 28.45 10.9 28.5 12.2 27.85 14.25 27.4 19.05 L27.0 25.2 Q27.0 27.15 31.0 33.35 34.95 39.6 34.95 41.75 34.95 44.05 33.45 46.05 32.05 47.85 27.85 51.3 L26.55 52.35 27.9 48.4 Q28.6 46.2 28.6 43.6 28.6 39.3 24.0 34.85 19.4 30.45 19.4 25.2 19.4 22.65 20.45 19.45 21.5 16.3 21.5 14.45 21.5 10.95 20.5 10.7 L14.8 11.0 10.3 10.75 4.7 10.2 3.2 13.85 Q1.85 17.35 1.85 20.15 1.85 23.85 4.85 28.4 5.9 30.0 9.0 33.6 L-0.1 24.9 Q-3.25 21.45 -3.25 17.5 L-2.5 14.15 Q-1.75 10.95 -1.75 10.0 -1.75 9.3 -3.6 8.15 -5.35 7.05 -6.2 7.05 -14.2 7.05 -17.95 11.7 -20.6 15.0 -20.6 19.45 L-19.45 26.75 Q-18.3 33.2 -18.3 37.25 -18.3 42.25 -19.35 45.2 -20.85 49.25 -25.4 53.85 L-27.0 55.35 Q-25.95 52.2 -24.25 44.4 L-22.75 37.05 Q-25.85 23.9 -25.85 21.1 -25.85 12.45 -21.55 8.05 L-18.6 5.3 Q-17.25 3.85 -17.25 2.15 -17.25 -2.05 -14.25 -5.3 L-4.1 -14.2 Q6.5 -20.75 16.65 -21.5 L23.6 -22.4 Q24.75 -22.95 25.75 -25.8 L28.4 -30.6 M37.8 -19.0 Q46.95 -15.55 55.85 -8.8 61.5 -4.55 65.0 2.55 68.15 9.0 68.15 14.55 68.2 21.85 66.7 25.9 80.3 20.9 84.4 15.9 87.15 12.5 89.0 2.4 L85.55 3.1 82.4 3.55 Q79.2 3.55 77.8 1.4 76.8 -0.15 76.8 -2.65 76.8 -5.75 78.3 -7.7 L83.2 -12.5 Q76.4 -14.35 73.3 -16.95 71.0 -18.9 71.0 -20.85 71.0 -21.8 71.85 -25.1 72.75 -28.55 73.5 -30.4 67.9 -32.8 61.4 -32.8 59.1 -32.8 53.85 -31.65 L46.7 -29.95 45.45 -30.6 45.25 -30.85 46.4 -34.3 48.05 -38.55 Q38.3 -37.05 34.75 -35.05 28.2 -31.45 25.85 -21.85 31.0 -21.6 37.8 -19.0 M5.65 -17.75 Q2.4 -16.65 -4.8 -11.95 -9.95 -8.55 -12.15 -6.35 -15.45 -3.1 -15.45 0.1 -15.45 1.5 -14.15 3.5 -12.8 5.7 -11.5 5.7 -9.55 5.7 -7.8 3.45 -6.1 1.15 -4.55 1.15 L-2.3 1.75 0.15 2.3 Q1.3 2.3 3.15 4.7 4.95 7.05 4.75 8.15 L6.85 8.45 Q7.0 7.9 7.5 7.0 8.5 5.25 10.2 3.7 11.9 2.15 19.25 -0.9 22.35 -0.9 23.95 0.95 24.9 2.05 25.95 5.05 27.05 8.0 28.1 9.15 29.85 11.05 33.1 11.05 39.45 11.05 43.0 13.8 46.85 16.85 46.85 23.0 46.85 24.95 46.25 28.6 45.65 32.2 45.65 33.65 45.65 34.85 48.55 35.4 L51.6 35.7 Q54.65 35.7 55.8 34.95 56.5 34.55 58.45 31.95 L60.75 28.2 62.35 24.7 Q65.3 18.6 65.3 12.05 65.3 -2.15 48.75 -11.7 35.05 -19.6 21.8 -19.6 11.05 -19.6 5.65 -17.75 M44.95 25.4 Q44.95 18.85 42.85 16.55 41.5 15.05 35.7 13.1 39.4 15.7 40.9 19.0 42.15 21.65 42.15 25.35 42.15 29.5 40.9 37.5 39.6 45.5 39.6 47.0 39.6 51.1 40.55 53.5 41.3 55.4 43.7 58.25 L44.5 58.8 Q42.6 54.1 42.6 48.85 42.6 48.15 43.15 44.05 L44.0 35.45 44.3 35.45 44.95 25.4 M65.5 49.45 Q68.3 50.65 69.0 50.7 L70.8 50.6 61.3 40.5 55.5 49.25 49.8 57.45 Q49.95 58.15 51.15 58.95 L52.4 59.45 Q52.85 56.9 53.6 55.5 54.4 53.95 56.15 52.7 56.85 54.3 58.4 55.9 60.35 58.05 62.55 58.8 L63.7 59.15 Q62.15 57.75 61.5 55.3 61.05 53.75 61.05 52.2 61.05 51.5 61.35 50.1 L61.8 48.25 Q62.75 48.3 65.5 49.45 M24.65 5.45 Q22.25 0.35 18.7 0.35 15.95 0.35 12.35 3.5 8.8 6.6 8.9 8.65 L14.15 8.95 18.75 7.55 Q20.55 7.55 21.95 9.25 23.5 11.05 23.5 13.9 L22.2 18.55 Q20.85 23.05 20.85 26.35 20.85 28.05 25.1 33.7 29.3 39.4 29.3 43.15 L28.95 45.85 28.35 48.8 27.9 50.15 31.3 45.8 Q32.95 43.6 32.95 42.4 32.95 39.05 28.95 34.15 24.95 29.25 24.95 25.5 24.95 22.2 25.75 17.25 L26.5 11.75 Q26.5 9.35 24.65 5.45 M2.5 7.75 Q1.7 5.85 -0.85 3.95 -3.25 2.25 -4.55 2.25 -5.15 2.25 -5.5 2.7 L-7.0 4.9 -4.05 4.55 Q-1.95 4.55 -1.2 5.7 -0.6 6.65 -0.6 9.05 L-1.85 17.55 -1.3 20.05 -0.35 22.65 0.35 23.65 -0.15 19.9 Q-0.15 18.55 1.5 13.6 2.95 9.2 2.5 7.75 M-25.0 21.1 Q-25.0 22.5 -22.95 29.35 -20.95 36.25 -20.95 38.0 L-21.35 41.75 Q-21.75 44.95 -22.2 46.75 -20.3 42.8 -20.3 37.6 -20.3 33.1 -21.45 27.05 -22.65 21.0 -22.65 18.5 -22.65 11.4 -15.4 7.15 -18.8 6.6 -21.8 10.5 -25.0 14.7 -25.0 21.1" fill="#271b12" fill-rule="evenodd" stroke="none"/>
  </g>
</svg>
