<?xml version="1.0" encoding="UTF-8" standalone="no"?>
<svg xmlns:ffdec="https://www.free-decompiler.com/flash" xmlns:xlink="http://www.w3.org/1999/xlink" ffdec:objectType="shape" height="34.9px" width="38.8px" xmlns="http://www.w3.org/2000/svg">
  <g transform="matrix(1.0, 0.0, 0.0, 1.0, 17.5, 3.25)">
    <path d="M6.9 -1.85 Q11.35 1.35 11.35 2.3 L17.55 8.1 20.05 10.6 20.95 11.7 Q21.3 12.35 21.3 13.8 21.3 22.4 19.15 24.55 17.9 25.75 11.1 26.9 10.7 29.65 8.9 30.7 7.2 31.65 3.35 31.65 L0.0 31.1 Q-2.2 30.3 -6.4 29.65 -11.65 28.85 -13.3 26.3 L-13.9 23.8 -13.6 22.6 -13.3 22.15 -11.4 16.85 Q-13.75 16.4 -15.6 14.55 -17.5 12.6 -17.5 10.35 -17.5 9.45 -13.7 5.6 L-9.1 1.15 Q-8.5 0.6 -6.7 -0.1 -4.45 -1.0 -2.35 -2.05 L-2.45 -1.95 Q-3.0 -1.25 -3.0 -0.3 L-9.7 4.4 Q-15.95 9.1 -15.95 10.6 -15.95 12.5 -12.85 14.35 -10.75 15.6 -8.45 16.25 L-0.2 17.3 Q2.5 17.3 3.4 16.8 L4.8 15.45 Q5.6 14.05 5.6 12.8 5.6 11.5 3.85 9.95 0.65 7.25 -6.65 6.5 L-6.5 6.4 -3.2 6.0 Q0.05 6.0 1.75 7.0 3.4 7.95 4.9 7.95 L6.55 7.55 8.2 7.15 Q10.75 7.15 13.8 10.0 16.55 12.55 17.75 12.1 L18.2 12.35 17.25 13.35 16.55 13.7 16.95 15.15 Q17.35 18.45 17.55 18.45 L17.25 18.8 17.25 19.35 Q15.05 13.2 14.1 12.05 13.1 10.85 8.2 8.65 7.35 9.15 6.85 9.75 L6.4 10.5 6.7 12.35 7.0 14.15 7.5 15.25 8.3 16.15 Q9.2 17.45 10.3 22.0 11.15 25.7 12.1 25.7 L14.05 25.2 16.7 24.35 16.75 24.35 Q18.55 23.3 19.35 19.55 19.85 17.15 19.85 14.4 L19.55 12.8 18.9 11.55 18.7 11.35 16.2 9.1 Q12.2 6.0 9.7 3.05 7.35 0.2 6.9 -1.85 M8.15 19.0 L6.75 17.65 5.65 16.75 Q5.25 16.75 4.95 17.3 4.6 18.0 0.9 18.7 L0.6 19.2 Q0.15 20.25 -0.25 23.15 L-0.7 27.7 1.3 29.4 Q2.95 30.4 4.35 30.15 7.35 30.3 8.7 28.85 9.6 27.85 9.6 26.5 9.6 23.35 8.15 19.0 M-11.6 22.0 L-12.35 23.65 -12.4 23.8 -11.05 25.5 -10.0 26.35 -10.0 26.4 Q-9.1 27.35 -5.75 28.2 L-2.2 27.75 -1.85 21.05 -2.0 19.8 -2.15 18.75 -5.25 18.5 -6.35 18.3 -9.95 17.35 -10.0 17.4 -11.6 22.0" fill="#5c4730" fill-rule="evenodd" stroke="none"/>
    <path d="M16.2 9.1 L18.7 11.35 Q17.65 11.35 16.95 10.7 16.2 10.05 16.2 9.1 M18.9 11.55 L19.55 12.8 19.85 14.4 Q19.85 17.15 19.35 19.55 18.55 23.3 16.75 24.35 L16.7 24.35 14.05 25.2 12.1 25.7 Q11.15 25.7 10.3 22.0 9.2 17.45 8.3 16.15 8.7 14.15 9.2 13.25 9.9 12.05 11.15 12.05 13.3 12.05 13.55 13.7 13.55 14.95 14.9 17.3 L16.95 20.5 17.05 20.65 Q18.1 18.9 18.6 17.4 19.5 14.6 18.9 11.55 M16.95 15.15 L16.55 13.7 17.25 13.35 16.95 15.15 M4.8 15.45 L3.4 16.8 Q2.5 17.3 -0.2 17.3 L-8.45 16.25 Q-10.75 15.6 -12.85 14.35 -15.95 12.5 -15.95 10.6 -15.95 9.1 -9.7 4.4 L-3.0 -0.3 Q0.4 -1.65 2.5 -1.7 L3.6 -1.6 1.85 -1.5 Q1.85 -0.45 1.1 0.65 5.5 0.0 7.6 1.8 8.75 2.7 9.5 4.3 L7.4 3.95 Q4.8 4.35 3.15 5.15 L1.7 5.85 0.3 5.4 -1.55 4.55 -4.2 4.1 Q-5.75 4.1 -7.9 5.9 -9.9 7.65 -9.9 8.6 -9.9 9.75 -8.45 10.0 L-4.75 10.25 Q1.45 10.8 4.8 15.45 M8.15 19.0 Q9.6 23.35 9.6 26.5 9.6 27.85 8.7 28.85 7.35 30.3 4.35 30.15 3.3 28.9 2.25 26.45 1.35 24.4 1.35 24.05 1.35 22.0 3.6 20.55 5.6 19.25 8.15 19.0 M-11.6 22.0 L-11.85 22.95 -11.05 25.5 -12.4 23.8 -12.35 23.65 -11.6 22.0 M-5.75 28.2 Q-7.95 26.5 -9.1 24.4 -9.85 23.0 -9.85 22.3 -9.85 19.9 -8.25 18.9 L-6.35 18.3 -5.25 18.5 -2.15 18.75 -2.0 19.8 -1.85 21.05 -2.2 27.75 -5.75 28.2" fill="#ffcc99" fill-rule="evenodd" stroke="none"/>
    <path d="M-2.35 -2.05 Q-1.85 -2.65 -1.1 -2.65 L2.8 -3.25 4.35 -2.85 6.9 -1.85 Q7.35 0.2 9.7 3.05 12.2 6.0 16.2 9.1 16.2 10.05 16.95 10.7 17.65 11.35 18.7 11.35 L18.9 11.55 Q19.5 14.6 18.6 17.4 18.1 18.9 17.05 20.65 L16.95 20.5 14.9 17.3 Q13.55 14.95 13.55 13.7 13.3 12.05 11.15 12.05 9.9 12.05 9.2 13.25 8.7 14.15 8.3 16.15 L7.5 15.25 7.0 14.15 6.7 12.35 6.4 10.5 6.85 9.75 Q7.35 9.15 8.2 8.65 13.1 10.85 14.1 12.05 15.05 13.2 17.25 19.35 L17.25 18.8 17.55 18.45 Q17.35 18.45 16.95 15.15 L17.25 13.35 18.2 12.35 17.75 12.1 Q16.55 12.55 13.8 10.0 10.75 7.15 8.2 7.15 L6.55 7.55 4.9 7.95 Q3.4 7.95 1.75 7.0 0.05 6.0 -3.2 6.0 L-6.5 6.4 -6.65 6.5 Q0.65 7.25 3.85 9.95 5.6 11.5 5.6 12.8 5.6 14.05 4.8 15.45 1.45 10.8 -4.75 10.25 L-8.45 10.0 Q-9.9 9.75 -9.9 8.6 -9.9 7.65 -7.9 5.9 -5.75 4.1 -4.2 4.1 L-1.55 4.55 0.3 5.4 1.7 5.85 3.15 5.15 Q4.8 4.35 7.4 3.95 L9.5 4.3 Q8.75 2.7 7.6 1.8 5.5 0.0 1.1 0.65 1.85 -0.45 1.85 -1.5 L3.6 -1.6 2.5 -1.7 Q0.4 -1.65 -3.0 -0.3 -3.0 -1.25 -2.45 -1.95 L-2.35 -2.05 M4.35 30.15 Q2.95 30.4 1.3 29.4 L-0.7 27.7 -0.25 23.15 Q0.15 20.25 0.6 19.2 L0.9 18.7 Q4.6 18.0 4.95 17.3 5.25 16.75 5.65 16.75 L6.75 17.65 8.15 19.0 Q5.6 19.25 3.6 20.55 1.35 22.0 1.35 24.05 1.35 24.4 2.25 26.45 3.3 28.9 4.35 30.15 M-11.05 25.5 L-11.85 22.95 -11.6 22.0 -10.0 17.4 -9.95 17.35 -6.35 18.3 -8.25 18.9 Q-9.85 19.9 -9.85 22.3 -9.85 23.0 -9.1 24.4 -7.95 26.5 -5.75 28.2 -9.1 27.35 -10.0 26.4 L-10.0 26.35 -11.05 25.5" fill="#f1ba87" fill-rule="evenodd" stroke="none"/>
  </g>
</svg>
