<?xml version="1.0" encoding="UTF-8" standalone="no"?>
<svg xmlns:ffdec="https://www.free-decompiler.com/flash" xmlns:xlink="http://www.w3.org/1999/xlink" ffdec:objectType="shape" height="20.55px" width="19.75px" xmlns="http://www.w3.org/2000/svg">
  <g transform="matrix(1.0, 0.0, 0.0, 1.0, 0.85, -0.7)">
    <path d="M12.55 3.6 L12.55 3.55 12.55 3.6" fill="#000000" fill-rule="evenodd" stroke="none"/>
    <path d="M18.9 3.4 Q11.65 4.1 9.1 12.4 L9.1 12.45 6.95 18.0 6.9 18.05 6.2 19.35 Q5.1 21.1 3.9 21.2 L2.9 21.25 Q1.3 21.2 0.4 19.95 -0.7 18.65 -0.85 15.65 -1.0 11.05 3.45 6.1 7.65 1.35 11.65 0.85 14.55 0.4 16.7 1.45 17.45 1.75 18.85 3.35 L18.9 3.4 M12.55 3.6 Q13.6 2.85 14.8 2.7 L14.85 2.7 11.95 2.6 Q8.5 3.15 4.8 7.3 0.9 11.65 1.0 15.6 1.05 17.85 1.8 18.85 2.4 19.6 3.6 19.45 4.4 19.2 5.3 17.25 L5.3 17.2 7.35 11.8 Q9.65 5.45 12.55 3.6" fill="#271f16" fill-rule="evenodd" stroke="none"/>
    <path d="M12.55 3.6 Q9.65 5.45 7.35 11.8 L5.3 17.2 5.3 17.25 Q4.4 19.2 3.6 19.45 2.4 19.6 1.8 18.85 1.05 17.85 1.0 15.6 0.9 11.65 4.8 7.3 8.5 3.15 11.95 2.6 L14.85 2.7 14.8 2.7 Q13.6 2.85 12.55 3.6 L12.55 3.55 12.55 3.6" fill="#3c2b13" fill-rule="evenodd" stroke="none"/>
  </g>
</svg>
