<?xml version="1.0" encoding="UTF-8" standalone="no"?>
<svg xmlns:ffdec="https://www.free-decompiler.com/flash" xmlns:xlink="http://www.w3.org/1999/xlink" ffdec:objectType="shape" height="60.7px" width="39.5px" xmlns="http://www.w3.org/2000/svg">
  <g transform="matrix(1.0, 0.0, 0.0, 1.0, 9.0, 9.45)">
    <path d="M-9.0 -2.2 Q-8.4 -4.55 -7.65 -5.7 L-6.3 -7.55 Q1.4 -7.45 15.7 22.05 22.3 35.7 26.25 47.75 24.45 49.15 23.05 49.15 19.25 49.15 8.35 29.55 L-9.0 -2.2" fill="#ffc58a" fill-rule="evenodd" stroke="none"/>
    <path d="M26.25 47.75 Q22.3 35.7 15.7 22.05 1.4 -7.45 -6.3 -7.55 L-2.9 -9.45 Q-1.4 -8.9 1.2 -5.8 3.8 -2.7 8.5 4.2 13.7 12.5 18.6 21.5 28.35 39.3 28.35 44.75 L26.25 47.75" fill="#f0a873" fill-rule="evenodd" stroke="none"/>
    <path d="M-9.0 -2.2 L8.35 29.55 Q19.25 49.15 23.05 49.15 24.45 49.15 26.25 47.75 L28.35 44.75 Q28.35 39.3 18.6 21.5 13.7 12.5 8.5 4.2 3.8 -2.7 1.2 -5.8 -1.4 -8.9 -2.9 -9.45 3.85 -8.55 17.35 14.5 22.9 23.95 26.6 32.45 30.5 41.3 30.5 44.95 30.5 48.7 26.7 50.35 L22.75 51.25 Q20.5 51.25 19.25 50.35 17.95 49.4 16.35 46.5 11.0 35.65 4.2 23.55 0.2 16.35 -5.35 7.45 -8.9 1.35 -9.0 -2.2" fill="#7a431b" fill-rule="evenodd" stroke="none"/>
  </g>
</svg>
