<?xml version="1.0" encoding="UTF-8" standalone="no"?>
<svg xmlns:ffdec="https://www.free-decompiler.com/flash" xmlns:xlink="http://www.w3.org/1999/xlink" ffdec:objectType="shape" height="39.8px" width="55.75px" xmlns="http://www.w3.org/2000/svg">
  <g transform="matrix(1.0, 0.0, 0.0, 1.0, 23.0, 10.05)">
    <path d="M-22.15 4.25 L-23.0 4.05 -23.0 1.95 Q-19.6 -0.2 -15.45 -0.6 L-14.85 -0.05 -15.05 0.7 Q-17.1 4.4 -22.15 4.25 M4.25 -10.0 L4.3 -9.05 3.0 -7.95 0.7 -8.55 Q-2.9 -9.2 -6.5 -8.65 -4.95 -9.55 -3.25 -10.0 L4.25 -10.0 M22.35 -8.5 L21.4 -7.55 20.15 -7.95 Q18.5 -8.65 17.05 -10.0 L20.5 -10.0 21.1 -9.45 22.35 -8.5 M-6.35 12.0 L-7.8 11.4 Q-5.45 9.9 -2.65 9.55 L-1.2 9.45 -1.55 10.85 -6.35 12.0" fill="#ffffff" fill-rule="evenodd" stroke="none"/>
    <path d="M6.9 -10.0 L9.25 -8.55 8.6 -8.0 4.6 -10.0 6.9 -10.0 M-4.95 -7.45 L-3.05 -5.95 Q-0.25 -3.7 1.05 -0.55 -3.45 -4.95 -8.75 -8.6 L-6.5 -9.8 -6.1 -10.0 -3.25 -10.0 Q-4.95 -9.55 -6.5 -8.65 L-4.95 -7.45 M-23.0 0.15 Q-17.8 -2.6 -12.0 -1.25 L-15.45 -0.6 Q-19.6 -0.2 -23.0 1.95 L-23.0 0.15 M-23.0 4.55 Q-20.45 6.2 -18.55 8.75 L-18.85 9.35 -19.75 8.9 -23.0 6.5 -23.0 4.55 M-23.0 23.2 Q-19.4 24.65 -16.2 27.3 L-16.65 27.95 -17.15 28.0 Q-19.95 25.95 -23.0 24.7 L-23.0 23.2 M22.75 -10.0 L23.65 -9.35 24.6 -8.4 22.35 -8.5 21.1 -9.45 20.5 -10.0 22.75 -10.0 M15.7 -10.0 L15.7 -8.35 Q15.8 -6.05 16.8 -3.75 L16.65 -3.55 16.2 -3.65 15.2 -6.7 Q14.75 -8.35 14.75 -10.0 L15.7 -10.0 M2.65 9.2 L2.2 9.85 -1.2 9.45 -2.65 9.55 Q-5.45 9.9 -7.8 11.4 L-6.35 12.0 -4.5 13.2 -3.0 14.8 -3.25 15.2 -3.85 15.25 -9.05 11.85 -7.85 10.7 Q-3.1 6.65 2.65 9.2" fill="#97877d" fill-rule="evenodd" stroke="none"/>
    <path d="M4.6 -10.0 L8.6 -8.0 9.25 -8.55 Q9.9 -5.75 7.45 -4.45 L7.2 -4.25 -4.95 -7.45 -6.5 -8.65 Q-2.9 -9.2 0.7 -8.55 L3.0 -7.95 4.3 -9.05 4.25 -10.0 4.6 -10.0 M-14.75 -10.0 Q-13.15 -9.8 -11.6 -8.8 L-11.4 -8.15 Q-12.75 -5.9 -15.2 -4.6 -18.05 -6.25 -18.85 -9.35 L-16.55 -10.0 -14.75 -10.0 M-12.0 -1.25 Q-10.35 0.0 -11.05 1.8 -13.7 8.9 -22.15 4.25 -17.1 4.4 -15.05 0.7 L-14.85 -0.05 -15.45 -0.6 -12.0 -1.25 M-23.0 16.9 L-17.9 19.3 -17.3 20.95 -23.0 20.5 -23.0 16.9 M28.15 6.45 Q22.55 4.85 16.55 4.75 L16.4 4.2 16.75 3.7 Q18.7 1.85 22.0 2.65 L21.4 1.7 28.45 -1.4 28.4 -3.75 27.0 -3.8 26.2 -4.7 29.8 -9.1 26.2 -9.55 25.95 -10.0 30.55 -10.0 Q29.7 -4.9 32.4 1.5 33.45 3.95 31.25 5.45 29.8 6.35 28.15 6.45 M23.65 -9.35 L25.05 -8.2 Q25.45 -7.6 25.45 -6.85 25.4 -5.95 24.95 -5.35 L23.6 -5.1 Q18.6 -5.1 16.85 -10.0 L17.05 -10.0 Q18.5 -8.65 20.15 -7.95 L21.4 -7.55 22.35 -8.5 24.6 -8.4 23.65 -9.35 M17.85 7.4 L16.45 10.05 14.9 10.6 14.5 10.45 Q10.65 8.7 9.1 4.95 14.0 3.95 17.85 7.4 M-1.2 9.45 L2.2 9.85 2.65 9.2 3.3 9.9 Q3.6 11.5 2.85 12.9 L1.3 14.55 -0.15 14.5 Q-2.5 14.25 -4.5 13.2 L-6.35 12.0 -1.55 10.85 -1.2 9.45 M7.65 16.9 L8.35 15.6 9.15 15.65 Q11.05 15.9 12.3 17.3 L12.95 18.3 10.55 19.75 9.85 19.75 7.65 16.9 M-12.55 19.65 L-12.1 18.85 Q-9.85 19.4 -8.25 21.25 -7.3 22.3 -6.9 23.7 L-7.2 24.05 -10.3 24.15 -11.05 23.2 Q-12.2 21.65 -12.55 19.65" fill="#ebe8e0" fill-rule="evenodd" stroke="none"/>
    <path d="M9.25 -8.55 L6.9 -10.0 14.75 -10.0 Q14.75 -8.35 15.2 -6.7 L16.2 -3.65 16.65 -3.55 16.8 -3.75 Q15.8 -6.05 15.7 -8.35 L15.7 -10.0 16.85 -10.0 Q18.6 -5.1 23.6 -5.1 L24.95 -5.35 Q25.4 -5.95 25.45 -6.85 25.45 -7.6 25.05 -8.2 L23.65 -9.35 22.75 -10.0 25.95 -10.0 26.2 -9.55 29.8 -9.1 26.2 -4.7 27.0 -3.8 28.4 -3.75 28.45 -1.4 21.4 1.7 22.0 2.65 Q18.7 1.85 16.75 3.7 L16.4 4.2 16.55 4.75 Q22.55 4.85 28.15 6.45 18.05 12.0 18.45 24.25 L17.8 25.1 Q8.6 29.8 -1.95 29.75 -9.4 29.7 -16.65 27.95 L-16.2 27.3 Q-19.4 24.65 -23.0 23.2 L-23.0 20.5 -17.3 20.95 -17.9 19.3 -23.0 16.9 -23.0 6.5 -19.75 8.9 -18.85 9.35 -18.55 8.75 Q-20.45 6.2 -23.0 4.55 L-23.0 4.05 -22.15 4.25 Q-13.7 8.9 -11.05 1.8 -10.35 0.0 -12.0 -1.25 -17.8 -2.6 -23.0 0.15 L-23.0 -10.0 -16.55 -10.0 -18.85 -9.35 Q-18.05 -6.25 -15.2 -4.6 -12.75 -5.9 -11.4 -8.15 L-11.6 -8.8 Q-13.15 -9.8 -14.75 -10.0 L-6.1 -10.0 -6.5 -9.8 -8.75 -8.6 Q-3.45 -4.95 1.05 -0.55 -0.25 -3.7 -3.05 -5.95 L-4.95 -7.45 7.2 -4.25 7.45 -4.45 Q9.9 -5.75 9.25 -8.55 M17.85 7.4 Q14.0 3.95 9.1 4.95 10.65 8.7 14.5 10.45 L14.9 10.6 16.45 10.05 17.85 7.4 M2.65 9.2 Q-3.1 6.65 -7.85 10.7 L-9.05 11.85 -3.85 15.25 -3.25 15.2 -3.0 14.8 -4.5 13.2 Q-2.5 14.25 -0.15 14.5 L1.3 14.55 2.85 12.9 Q3.6 11.5 3.3 9.9 L2.65 9.2 M7.65 16.9 L9.85 19.75 10.55 19.75 12.95 18.3 12.3 17.3 Q11.05 15.9 9.15 15.65 L8.35 15.6 7.65 16.9 M-12.55 19.65 Q-12.2 21.65 -11.05 23.2 L-10.3 24.15 -7.2 24.05 -6.9 23.7 Q-7.3 22.3 -8.25 21.25 -9.85 19.4 -12.1 18.85 L-12.55 19.65" fill="#cbc8c0" fill-rule="evenodd" stroke="none"/>
  </g>
</svg>
