<?xml version="1.0" encoding="UTF-8" standalone="no"?>
<svg xmlns:ffdec="https://www.free-decompiler.com/flash" xmlns:xlink="http://www.w3.org/1999/xlink" ffdec:objectType="shape" height="34.6px" width="70.7px" xmlns="http://www.w3.org/2000/svg">
  <g transform="matrix(1.0, 0.0, 0.0, 1.0, 38.5, 18.1)">
    <path d="M-37.05 -1.9 L-37.1 -1.9 -37.1 -1.95 -37.05 -1.9" fill="#2d251e" fill-opacity="0.24705882" fill-rule="evenodd" stroke="none"/>
    <path d="M-37.05 -1.9 L-37.1 -1.95 -37.05 -1.9" fill="#2d251e" fill-opacity="0.69411767" fill-rule="evenodd" stroke="none"/>
    <path d="M16.7 -8.35 L15.5 -6.0 Q11.85 -11.6 6.2 -12.6 0.4 -13.45 -5.4 -12.6 L-17.6 -11.9 Q-24.15 -11.65 -30.2 -9.95 -35.7 -8.45 -37.1 -3.4 L-37.25 -2.8 -37.35 -2.3 -38.45 -3.6 -38.35 -4.1 Q-38.0 -5.65 -37.25 -7.1 L-37.1 -7.35 -35.7 -9.5 Q-33.5 -12.4 -22.75 -12.85 L-6.35 -14.15 3.65 -14.55 Q8.0 -14.1 10.0 -13.15 11.9 -12.25 16.7 -8.35" fill="#b9a99b" fill-opacity="0.24705882" fill-rule="evenodd" stroke="none"/>
    <path d="M16.7 -8.35 Q17.8 -7.75 18.25 -9.25 L18.7 -11.85 18.6 -16.4 Q18.55 -17.45 18.75 -18.1 L18.8 -17.05 Q18.85 -16.25 19.55 -16.2 L20.25 -15.8 Q20.1 -2.05 15.5 -6.0 L16.7 -8.35 M-37.35 -2.3 L-37.25 -2.8 -37.1 -3.4 Q-35.7 -8.45 -30.2 -9.95 -24.15 -11.65 -17.6 -11.9 L-5.4 -12.6 Q0.4 -13.45 6.2 -12.6 11.85 -11.6 15.5 -6.0 12.7 -1.85 10.75 0.35 0.6 11.85 -14.9 11.85 L-20.05 11.65 -23.15 10.2 -23.1 10.25 Q-28.35 7.45 -32.9 2.9 L-35.7 -0.15 -37.05 -1.9 -37.1 -1.95 -37.35 -2.3" fill="#b9a99b" fill-opacity="0.29803923" fill-rule="evenodd" stroke="none"/>
    <path d="M15.5 -6.0 Q20.1 -2.05 20.25 -15.8 21.4 -15.15 22.2 -15.05 L25.0 -14.35 27.25 -13.7 Q24.85 -3.95 17.35 3.3 6.9 13.55 -8.25 14.4 -10.95 14.35 -15.0 13.3 L-20.05 11.65 -14.9 11.85 Q0.6 11.85 10.75 0.35 12.7 -1.85 15.5 -6.0" fill="#b9a99b" fill-opacity="0.4" fill-rule="evenodd" stroke="none"/>
    <path d="M30.7 -7.95 L30.8 -7.35 30.9 -7.15 32.2 -6.25 Q29.25 -0.6 24.4 4.3 12.2 16.5 -4.95 16.5 -11.7 16.5 -17.7 14.6 -21.0 13.6 -24.05 12.0 -29.55 9.05 -34.3 4.3 L-37.1 1.25 -37.1 -1.9 -37.05 -1.9 -35.7 -0.15 -32.9 2.9 Q-28.35 7.45 -23.1 10.25 L-23.15 10.2 -20.05 11.65 -15.0 13.3 Q-10.95 14.35 -8.25 14.4 L-3.95 14.5 Q13.25 14.5 24.45 1.5 28.3 -3.0 30.7 -7.95" fill="#8e7c71" fill-opacity="0.69411767" fill-rule="evenodd" stroke="none"/>
    <path d="M-37.1 1.25 L-37.25 1.1 -38.35 -0.3 -38.5 -0.5 -38.5 -3.6 -38.45 -3.6 -37.35 -2.3 -37.1 -1.95 -37.1 -1.9 -37.05 -1.9 -37.1 -1.9 -37.1 1.25" fill="#8e7c71" fill-opacity="0.64705884" fill-rule="evenodd" stroke="none"/>
    <path d="M27.25 -13.7 L27.4 -13.65 Q30.0 -12.0 30.7 -7.95 28.3 -3.0 24.45 1.5 13.25 14.5 -3.95 14.5 L-8.25 14.4 Q6.9 13.55 17.35 3.3 24.85 -3.95 27.25 -13.7" fill="#8e7c71" fill-opacity="0.4" fill-rule="evenodd" stroke="none"/>
  </g>
</svg>
