<?xml version="1.0" encoding="UTF-8" standalone="no"?>
<svg xmlns:ffdec="https://www.free-decompiler.com/flash" xmlns:xlink="http://www.w3.org/1999/xlink" ffdec:objectType="shape" height="34.8px" width="33.0px" xmlns="http://www.w3.org/2000/svg">
  <g transform="matrix(1.0, 0.0, 0.0, 1.0, -2.1, 20.1)">
    <path d="M34.45 -11.7 L34.45 -11.65 Q31.5 -2.8 24.4 4.3 18.1 10.6 10.55 13.65 L10.1 13.8 9.6 14.0 Q9.7 13.35 9.95 12.65 L10.25 11.9 10.6 11.75 10.95 11.6 Q11.25 11.5 11.5 11.35 18.75 8.1 24.45 1.5 29.55 -4.45 32.1 -11.2 L32.1 -11.25 32.4 -12.1 34.45 -11.7" fill="#8e7c71" fill-opacity="0.69411767" fill-rule="evenodd" stroke="none"/>
    <path d="M33.05 -13.95 L34.0 -13.8 33.3 -13.8 35.1 -13.75 34.95 -13.25 34.45 -11.7 32.4 -12.1 32.9 -13.55 33.05 -13.95 M9.6 14.0 L8.3 14.45 7.5 14.7 7.6 13.75 7.85 12.75 8.05 12.7 8.15 12.65 8.15 12.7 8.75 12.45 9.1 12.35 10.1 11.95 10.6 11.75 10.25 11.9 9.95 12.65 Q9.7 13.35 9.6 14.0" fill="#8e7c71" fill-opacity="0.64705884" fill-rule="evenodd" stroke="none"/>
    <path d="M11.25 8.25 L11.7 7.95 Q14.65 5.95 17.35 3.3 24.0 -3.15 26.65 -11.55 L26.7 -11.7 Q27.5 -12.3 28.35 -12.15 L32.4 -12.1 32.1 -11.25 32.1 -11.2 Q29.55 -4.45 24.45 1.5 18.75 8.1 11.5 11.35 11.25 11.5 10.95 11.6 L10.6 11.75 10.1 11.95 10.75 10.8 11.1 9.05 11.25 8.25" fill="#837c71" fill-opacity="0.4" fill-rule="evenodd" stroke="none"/>
    <path d="M27.15 -13.55 L29.65 -14.1 33.05 -13.95 32.9 -13.55 32.4 -12.1 28.35 -12.15 Q27.5 -12.3 26.7 -11.7 L27.15 -13.55 M8.15 12.65 L8.15 12.55 8.4 11.25 8.45 10.0 8.45 9.9 8.7 9.75 9.0 9.6 11.1 8.35 11.25 8.25 11.1 9.05 10.75 10.8 10.1 11.95 9.1 12.35 8.75 12.45 8.15 12.7 8.15 12.65" fill="#8e7c71" fill-opacity="0.3372549" fill-rule="evenodd" stroke="none"/>
    <path d="M17.95 -11.55 Q19.6 -5.15 22.75 -8.1 L26.7 -11.7 26.65 -11.55 Q24.0 -3.15 17.35 3.3 14.65 5.95 11.7 7.95 L11.25 8.25 11.1 8.35 10.85 6.1 9.35 1.9 Q16.9 -6.6 17.95 -11.55" fill="#b9a99b" fill-opacity="0.4" fill-rule="evenodd" stroke="none"/>
    <path d="M18.75 -14.35 L19.75 -10.65 Q20.65 -7.4 23.35 -10.4 26.05 -13.45 27.15 -13.55 L26.7 -11.7 22.75 -8.1 Q19.6 -5.15 17.95 -11.55 L18.75 -14.35 M8.45 9.9 L8.5 9.2 8.0 5.45 7.65 3.5 7.7 3.45 8.0 3.2 9.3 1.95 Q8.3 -0.65 6.85 -8.35 6.85 -12.4 7.2 -15.9 L7.75 -16.25 Q11.1 -18.25 15.05 -18.55 15.9 -14.9 17.95 -11.55 16.9 -6.6 9.35 1.9 L10.85 6.1 11.1 8.35 9.0 9.6 8.7 9.75 8.45 9.9" fill="#b9a99b" fill-opacity="0.29803923" fill-rule="evenodd" stroke="none"/>
    <path d="M15.05 -18.55 L15.4 -18.6 16.5 -20.1 Q16.65 -17.95 18.75 -14.35 L17.95 -11.55 Q15.9 -14.9 15.05 -18.55 M7.65 3.5 L7.6 3.55 Q6.45 1.2 2.95 1.45 L2.1 1.3 2.9 0.65 3.05 -1.0 3.3 -4.85 3.7 -7.95 4.85 -12.0 Q5.35 -13.4 6.1 -14.65 L7.2 -15.9 Q6.85 -12.4 6.85 -8.35 8.3 -0.65 9.3 1.95 L8.0 3.2 7.7 3.45 7.65 3.5" fill="#b9a99b" fill-opacity="0.24705882" fill-rule="evenodd" stroke="none"/>
  </g>
</svg>
