<?xml version="1.0" encoding="UTF-8" standalone="no"?>
<svg xmlns:ffdec="https://www.free-decompiler.com/flash" xmlns:xlink="http://www.w3.org/1999/xlink" ffdec:objectType="shape" height="15.35px" width="44.35px" xmlns="http://www.w3.org/2000/svg">
  <g transform="matrix(1.0, 0.0, 0.0, 1.0, 68.4, 12.7)">
    <path d="M-68.05 -3.1 Q-67.0 -6.85 -62.1 -9.75 -57.5 -12.5 -54.1 -11.85 -51.65 -11.5 -50.2 -10.1 -49.65 -9.65 -48.9 -8.0 L-48.9 -7.45 -49.2 -7.05 -49.75 -6.95 Q-50.05 -7.0 -50.2 -7.2 -50.75 -7.85 -52.3 -8.05 L-52.35 -8.05 -53.65 -7.95 Q-56.05 -7.2 -59.15 -3.15 L-59.2 -3.15 -62.35 0.8 Q-64.3 2.9 -65.6 2.6 L-65.65 2.6 Q-67.6 2.3 -68.15 0.7 -68.7 -0.65 -68.05 -3.1 M-52.05 -9.55 Q-53.0 -10.15 -54.35 -10.35 -57.3 -10.8 -61.35 -8.4 -65.6 -5.9 -66.55 -2.65 -67.05 -0.85 -66.75 0.15 -66.4 0.9 -65.4 1.1 -64.7 1.1 -63.5 -0.25 L-63.45 -0.25 -60.4 -4.1 Q-56.9 -8.65 -54.1 -9.4 L-52.05 -9.55 -52.0 -9.55 -52.05 -9.55 M-42.25 -10.85 Q-40.8 -12.25 -38.3 -12.6 -34.95 -13.25 -30.3 -10.5 -25.45 -7.6 -24.4 -3.85 -23.75 -1.4 -24.3 -0.05 -24.85 1.55 -26.8 1.85 -28.15 2.15 -30.05 0.05 L-30.1 0.05 -33.25 -3.9 Q-36.4 -7.95 -38.8 -8.7 L-40.05 -8.8 -40.1 -8.8 Q-41.7 -8.6 -42.25 -7.95 -42.4 -7.75 -42.7 -7.7 L-43.2 -7.8 -43.55 -8.2 -43.5 -8.75 -42.25 -10.85 M-40.35 -10.3 L-38.35 -10.15 Q-35.55 -9.4 -32.05 -4.85 L-28.95 -1.0 Q-27.75 0.35 -27.0 0.35 -26.05 0.15 -25.7 -0.6 -25.4 -1.6 -25.9 -3.4 -26.85 -6.65 -31.1 -9.15 -35.15 -11.55 -38.1 -11.1 -39.45 -10.9 -40.4 -10.3 L-40.45 -10.3 -40.35 -10.3" fill="#271f16" fill-rule="evenodd" stroke="none"/>
    <path d="M-52.05 -9.55 L-54.1 -9.4 Q-56.9 -8.65 -60.4 -4.1 L-63.45 -0.25 -63.5 -0.25 Q-64.7 1.1 -65.4 1.1 -66.4 0.9 -66.75 0.15 -67.05 -0.85 -66.55 -2.65 -65.6 -5.9 -61.35 -8.4 -57.3 -10.8 -54.35 -10.35 -53.0 -10.15 -52.05 -9.55 M-40.4 -10.3 Q-39.45 -10.9 -38.1 -11.1 -35.15 -11.55 -31.1 -9.15 -26.85 -6.65 -25.9 -3.4 -25.4 -1.6 -25.7 -0.6 -26.05 0.15 -27.0 0.35 -27.75 0.35 -28.95 -1.0 L-32.05 -4.85 Q-35.55 -9.4 -38.35 -10.15 L-40.35 -10.3 -40.4 -10.3" fill="#3c2b13" fill-rule="evenodd" stroke="none"/>
    <path d="M-52.05 -9.55 L-52.0 -9.55 -52.05 -9.55 M-40.4 -10.3 L-40.35 -10.3 -40.45 -10.3 -40.4 -10.3" fill="#2d251e" fill-rule="evenodd" stroke="none"/>
  </g>
</svg>
