<?xml version="1.0" encoding="UTF-8" standalone="no"?>
<svg xmlns:ffdec="https://www.free-decompiler.com/flash" xmlns:xlink="http://www.w3.org/1999/xlink" ffdec:objectType="shape" height="12.3px" width="46.5px" xmlns="http://www.w3.org/2000/svg">
  <g transform="matrix(1.0, 0.0, 0.0, 1.0, 69.55, 12.35)">
    <path d="M-50.45 -5.9 L-52.1 -7.75 Q-54.4 -9.55 -59.1 -9.45 -64.05 -9.35 -66.45 -7.0 -67.8 -5.7 -68.0 -4.65 -68.1 -3.8 -67.3 -3.15 L-67.35 -3.15 -65.0 -3.4 -64.95 -3.4 -60.4 -5.25 Q-55.15 -7.5 -52.3 -6.8 -51.25 -6.55 -50.5 -5.9 L-50.45 -5.9 M-68.25 -1.95 Q-69.8 -3.2 -69.5 -4.85 -69.35 -6.3 -67.55 -8.1 -64.85 -10.85 -59.15 -11.0 -53.75 -11.1 -51.15 -8.95 -49.2 -7.4 -48.6 -5.45 -48.35 -4.85 -48.5 -3.0 L-48.75 -2.55 Q-48.95 -2.35 -49.25 -2.35 L-49.75 -2.5 -50.0 -3.0 Q-50.2 -3.8 -51.45 -4.7 L-51.5 -4.75 Q-52.0 -5.15 -52.65 -5.3 -55.15 -5.85 -59.8 -3.85 L-59.8 -3.8 -64.5 -1.95 -64.55 -1.95 Q-67.25 -1.05 -68.25 -1.95 M-41.8 -3.85 L-41.8 -3.8 -41.75 -3.85 -40.3 -5.3 Q-37.9 -6.85 -32.15 -6.45 L-27.25 -6.15 Q-25.45 -6.2 -24.95 -6.7 -24.4 -7.55 -24.75 -8.3 -25.3 -9.25 -27.0 -10.05 -30.05 -11.5 -34.75 -10.0 -39.25 -8.6 -40.85 -6.1 -41.6 -5.0 -41.8 -3.85 M-42.35 -0.1 L-42.7 -0.5 Q-43.45 -2.15 -43.4 -2.85 -43.5 -4.85 -42.15 -6.95 -40.35 -9.85 -35.2 -11.45 -29.8 -13.2 -26.3 -11.45 -24.05 -10.3 -23.4 -9.0 -22.6 -7.55 -23.7 -5.85 -24.35 -4.65 -27.2 -4.65 L-27.25 -4.65 -32.25 -4.9 -32.3 -4.9 Q-37.4 -5.3 -39.5 -4.0 L-39.55 -4.0 -40.45 -3.1 -40.5 -3.05 Q-41.35 -1.75 -41.3 -0.95 -41.25 -0.65 -41.35 -0.4 L-41.8 -0.1 -42.35 -0.1" fill="#271f16" fill-rule="evenodd" stroke="none"/>
    <path d="M-52.3 -6.8 Q-55.15 -7.5 -60.4 -5.25 L-64.95 -3.4 -65.0 -3.4 -67.35 -3.15 -67.3 -3.15 Q-68.1 -3.8 -68.0 -4.65 -67.8 -5.7 -66.45 -7.0 -64.05 -9.35 -59.1 -9.45 -54.4 -9.55 -52.1 -7.75 L-50.45 -5.9 -50.5 -5.9 Q-51.25 -6.55 -52.3 -6.8 M-41.75 -3.85 L-41.8 -3.85 Q-41.6 -5.0 -40.85 -6.1 -39.25 -8.6 -34.75 -10.0 -30.05 -11.5 -27.0 -10.05 -25.3 -9.25 -24.75 -8.3 -24.4 -7.55 -24.95 -6.7 -25.45 -6.2 -27.25 -6.15 L-32.15 -6.45 Q-37.9 -6.85 -40.3 -5.3 L-41.75 -3.85" fill="#3c2b13" fill-rule="evenodd" stroke="none"/>
    <path d="M-50.45 -5.9 L-50.5 -5.9 -50.45 -5.9 M-41.75 -3.85 L-41.8 -3.8 -41.8 -3.85 -41.75 -3.85" fill="#2d251e" fill-rule="evenodd" stroke="none"/>
  </g>
</svg>
