<?xml version="1.0" encoding="UTF-8" standalone="no"?>
<svg xmlns:ffdec="https://www.free-decompiler.com/flash" xmlns:xlink="http://www.w3.org/1999/xlink" ffdec:objectType="shape" height="12.3px" width="48.25px" xmlns="http://www.w3.org/2000/svg">
  <g transform="matrix(1.0, 0.0, 0.0, 1.0, 70.25, 11.5)">
    <path d="M-51.95 -7.6 Q-52.75 -8.4 -54.0 -8.95 -56.7 -10.15 -61.25 -8.9 -66.0 -7.6 -67.75 -4.7 -68.75 -3.1 -68.65 -2.0 -68.55 -1.2 -67.65 -0.75 -66.95 -0.6 -65.45 -1.55 L-65.4 -1.6 -61.45 -4.5 Q-56.9 -7.95 -54.0 -8.0 L-53.95 -8.0 -52.0 -7.6 -51.95 -7.55 -51.95 -7.6 M-70.2 -1.85 Q-70.4 -3.3 -69.1 -5.5 -67.1 -8.85 -61.65 -10.4 -56.45 -11.8 -53.35 -10.35 -51.1 -9.35 -50.05 -7.6 -49.65 -7.05 -49.35 -5.25 L-49.45 -4.75 -49.9 -4.45 -50.45 -4.45 -50.8 -4.85 Q-51.2 -5.6 -52.6 -6.2 L-52.65 -6.2 -53.9 -6.45 -53.95 -6.45 Q-56.45 -6.4 -60.5 -3.25 L-60.55 -3.25 -64.6 -0.3 -64.65 -0.25 Q-67.05 1.25 -68.25 0.65 L-68.25 0.6 Q-70.1 -0.2 -70.2 -1.85 M-40.75 -7.35 L-40.8 -7.3 -40.75 -7.3 -38.8 -7.95 Q-35.95 -8.3 -31.0 -5.35 L-26.7 -2.95 Q-25.05 -2.15 -24.4 -2.4 -23.55 -2.95 -23.5 -3.75 -23.6 -4.85 -24.75 -6.3 -26.85 -8.95 -31.7 -9.7 -36.4 -10.45 -38.9 -8.95 L-40.75 -7.35 M-41.9 -4.05 L-42.45 -3.95 Q-42.75 -4.0 -42.9 -4.2 L-43.1 -4.7 Q-43.0 -6.55 -42.65 -7.1 -41.85 -8.95 -39.7 -10.2 -36.8 -12.05 -31.5 -11.25 -25.9 -10.4 -23.5 -7.25 -22.0 -5.25 -22.0 -3.75 -21.95 -2.1 -23.65 -1.1 L-23.65 -1.05 Q-24.75 -0.3 -27.35 -1.55 L-31.75 -4.0 -31.75 -4.05 Q-36.15 -6.65 -38.65 -6.45 L-38.7 -6.45 -39.9 -6.05 -39.95 -6.0 Q-41.3 -5.25 -41.6 -4.45 L-41.9 -4.05" fill="#271f16" fill-rule="evenodd" stroke="none"/>
    <path d="M-52.0 -7.6 L-53.95 -8.0 -54.0 -8.0 Q-56.9 -7.95 -61.45 -4.5 L-65.4 -1.6 -65.45 -1.55 Q-66.95 -0.6 -67.65 -0.75 -68.55 -1.2 -68.65 -2.0 -68.75 -3.1 -67.75 -4.7 -66.0 -7.6 -61.25 -8.9 -56.7 -10.15 -54.0 -8.95 -52.75 -8.4 -51.95 -7.6 L-52.0 -7.6 M-40.75 -7.3 L-40.75 -7.35 -38.9 -8.95 Q-36.4 -10.45 -31.7 -9.7 -26.85 -8.95 -24.75 -6.3 -23.6 -4.85 -23.5 -3.75 -23.55 -2.95 -24.4 -2.4 -25.05 -2.15 -26.7 -2.95 L-31.0 -5.35 Q-35.95 -8.3 -38.8 -7.95 L-40.75 -7.3 M-38.8 -7.95 L-38.85 -7.95 -38.8 -7.95" fill="#3c2b13" fill-rule="evenodd" stroke="none"/>
    <path d="M-51.95 -7.6 L-51.95 -7.55 -52.0 -7.6 -51.95 -7.6 M-40.75 -7.35 L-40.75 -7.3 -40.8 -7.3 -40.75 -7.35" fill="#2d251e" fill-rule="evenodd" stroke="none"/>
    <path d="M-38.8 -7.95 L-38.85 -7.95 -38.8 -7.95" fill="#000000" fill-rule="evenodd" stroke="none"/>
  </g>
</svg>
