<?xml version="1.0" encoding="UTF-8" standalone="no"?>
<svg xmlns:ffdec="https://www.free-decompiler.com/flash" xmlns:xlink="http://www.w3.org/1999/xlink" ffdec:objectType="shape" height="18.0px" width="47.1px" xmlns="http://www.w3.org/2000/svg">
  <g transform="matrix(1.0, 0.0, 0.0, 1.0, 69.45, 17.9)">
    <path d="M-58.75 -15.4 L-58.8 -15.4 -58.75 -15.4" fill="#000000" fill-rule="evenodd" stroke="none"/>
    <path d="M-61.2 -7.7 L-62.7 -2.9 -62.7 -2.85 Q-63.75 -0.2 -65.05 0.0 L-65.1 0.0 Q-67.0 0.45 -68.1 -0.8 -69.15 -1.9 -69.4 -4.4 -69.85 -8.3 -66.35 -12.75 -63.05 -17.0 -59.7 -17.65 L-55.4 -17.45 Q-54.75 -17.25 -53.45 -16.0 L-53.2 -15.5 -53.4 -15.0 -53.85 -14.7 -54.35 -14.8 -56.6 -14.75 -56.65 -14.75 Q-57.3 -14.65 -57.8 -14.2 -59.8 -12.65 -61.2 -7.7 M-56.95 -16.3 L-59.35 -16.2 Q-62.25 -15.55 -65.15 -11.8 -68.15 -7.9 -67.85 -4.55 -67.7 -2.65 -67.0 -1.85 -66.4 -1.25 -65.45 -1.45 -64.8 -1.75 -64.15 -3.4 L-64.15 -3.45 -62.7 -8.15 Q-61.1 -13.7 -58.8 -15.4 L-58.75 -15.4 Q-57.9 -16.1 -56.95 -16.25 L-56.9 -16.3 -56.95 -16.3 M-42.25 -10.7 Q-41.15 -12.4 -38.8 -13.3 -35.7 -14.6 -30.55 -12.95 -25.2 -11.2 -23.35 -7.75 -22.15 -5.5 -22.4 -4.05 -22.6 -2.4 -24.45 -1.65 -25.7 -1.1 -28.0 -2.7 L-28.05 -2.75 -32.0 -5.9 Q-35.9 -9.15 -38.4 -9.35 L-38.45 -9.4 -39.7 -9.15 -39.75 -9.15 Q-41.2 -8.65 -41.65 -7.9 -41.75 -7.65 -42.0 -7.5 L-42.55 -7.5 -42.95 -7.85 -43.05 -8.4 Q-42.7 -10.15 -42.25 -10.7 M-40.35 -10.6 L-40.4 -10.55 -40.3 -10.6 -38.3 -10.9 Q-35.45 -10.75 -31.0 -7.1 L-27.15 -4.0 Q-25.7 -2.95 -25.0 -3.1 L-25.0 -3.05 Q-24.05 -3.45 -23.9 -4.3 -23.8 -5.35 -24.7 -7.0 -26.35 -9.95 -31.0 -11.5 -35.5 -12.95 -38.25 -11.85 -39.55 -11.35 -40.35 -10.6" fill="#271f16" fill-rule="evenodd" stroke="none"/>
    <path d="M-58.8 -15.4 Q-61.1 -13.7 -62.7 -8.15 L-64.15 -3.45 -64.15 -3.4 Q-64.8 -1.75 -65.45 -1.45 -66.4 -1.25 -67.0 -1.85 -67.7 -2.65 -67.85 -4.55 -68.15 -7.9 -65.15 -11.8 -62.25 -15.55 -59.35 -16.2 L-56.95 -16.3 -56.95 -16.25 Q-57.9 -16.1 -58.75 -15.4 L-58.8 -15.4 M-40.3 -10.6 L-40.35 -10.6 Q-39.55 -11.35 -38.25 -11.85 -35.5 -12.95 -31.0 -11.5 -26.35 -9.95 -24.7 -7.0 -23.8 -5.35 -23.9 -4.3 -24.05 -3.45 -25.0 -3.05 L-25.0 -3.1 Q-25.7 -2.95 -27.15 -4.0 L-31.0 -7.1 Q-35.45 -10.75 -38.3 -10.9 L-40.3 -10.6" fill="#3c2b13" fill-rule="evenodd" stroke="none"/>
    <path d="M-56.95 -16.3 L-56.9 -16.3 -56.95 -16.25 -56.95 -16.3 M-40.3 -10.6 L-40.4 -10.55 -40.35 -10.6 -40.3 -10.6" fill="#2d251e" fill-rule="evenodd" stroke="none"/>
  </g>
</svg>
