<?xml version="1.0" encoding="UTF-8" standalone="no"?>
<svg xmlns:ffdec="https://www.free-decompiler.com/flash" xmlns:xlink="http://www.w3.org/1999/xlink" ffdec:objectType="shape" height="40.85px" width="83.85px" xmlns="http://www.w3.org/2000/svg">
  <g transform="matrix(1.0, 0.0, 0.0, 1.0, 41.5, 19.95)">
    <path d="M0.4 -19.95 Q17.65 -19.95 29.85 -14.4 42.4 -8.65 42.35 -0.6 L42.25 0.45 42.25 0.5 42.35 1.5 Q42.4 9.6 29.85 15.3 17.65 20.9 0.4 20.9 -16.8 20.9 -29.0 15.3 -41.55 9.6 -41.5 1.5 L-41.45 0.5 -41.45 0.45 -41.5 -0.6 Q-41.55 -8.65 -29.0 -14.4 -16.8 -19.95 0.4 -19.95 M0.4 -19.45 Q-16.6 -19.45 -28.65 -14.0 -40.85 -8.4 -40.8 -0.6 L-40.8 0.45 -40.8 0.5 -40.8 1.5 Q-40.85 9.35 -28.65 14.9 -16.6 20.4 0.4 20.4 17.45 20.4 29.5 14.9 41.7 9.35 41.65 1.5 L41.6 0.5 41.6 0.45 41.65 -0.6 Q41.7 -8.4 29.5 -14.0 17.45 -19.45 0.4 -19.45" fill="#000000" fill-rule="evenodd" stroke="none"/>
    <path d="M34.8 -1.9 L34.8 -2.0 40.65 -2.0 40.65 -1.9 40.8 -0.75 40.8 -0.6 40.75 0.25 34.8 0.25 34.85 0.0 34.9 -0.6 34.8 -1.75 34.8 -1.9 M-39.8 -2.0 L-33.9 -2.0 -33.95 -1.75 -34.0 -0.6 -34.0 0.0 -33.95 0.45 -34.0 0.25 -39.9 0.25 -39.95 -0.6 -39.95 -0.8 -39.85 -1.7 -39.8 -2.0" fill="#f5f3f1" fill-rule="evenodd" stroke="none"/>
    <path d="M40.75 0.25 L40.8 -0.6 40.8 -0.75 40.65 -1.9 40.65 -2.0 Q39.6 -8.6 29.0 -13.45 17.2 -18.8 0.4 -18.8 -16.35 -18.8 -28.2 -13.45 -38.8 -8.6 -39.8 -2.0 L-39.85 -1.7 -39.95 -0.8 -39.95 -0.6 -39.9 0.25 -39.85 0.45 -39.85 0.5 -39.95 1.4 -39.4 3.0 Q-37.25 8.35 -28.3 12.4 -16.4 17.8 0.4 17.8 17.25 17.8 29.15 12.4 38.05 8.35 40.3 3.0 L40.8 1.5 40.75 0.5 40.75 0.45 40.75 0.25 M0.4 -19.45 Q17.45 -19.45 29.5 -14.0 41.7 -8.4 41.65 -0.6 L41.6 0.45 41.6 0.5 41.65 1.5 Q41.7 9.35 29.5 14.9 17.45 20.4 0.4 20.4 -16.6 20.4 -28.65 14.9 -40.85 9.35 -40.8 1.5 L-40.8 0.5 -40.8 0.45 -40.8 -0.6 Q-40.85 -8.4 -28.65 -14.0 -16.6 -19.45 0.4 -19.45 M0.4 19.8 Q17.2 19.8 29.0 14.35 39.2 9.75 40.55 3.5 38.15 8.65 29.4 12.65 17.4 18.15 0.4 18.15 -16.55 18.15 -28.55 12.65 -37.35 8.65 -39.75 3.4 -38.4 9.7 -28.2 14.35 -16.35 19.8 0.4 19.8" fill="#a89d7b" fill-rule="evenodd" stroke="none"/>
    <path d="M34.8 0.25 L40.75 0.25 40.75 0.45 40.75 0.5 40.8 1.5 40.3 3.0 Q38.05 8.35 29.15 12.4 17.25 17.8 0.4 17.8 -16.4 17.8 -28.3 12.4 -37.25 8.35 -39.4 3.0 L-39.95 1.4 -39.85 0.5 -39.85 0.45 -39.9 0.25 -34.0 0.25 -33.95 0.45 -33.15 3.0 Q-31.0 7.05 -23.9 10.2 -13.8 14.6 0.4 14.6 14.7 14.6 24.75 10.2 31.85 7.05 34.0 3.0 L34.8 0.4 34.8 0.25" fill="#faf9f8" fill-rule="evenodd" stroke="none"/>
    <path d="M34.8 -1.9 L34.8 -1.75 34.9 -0.6 34.85 0.0 34.8 0.25 34.8 0.4 34.0 3.0 Q31.85 7.05 24.75 10.2 14.7 14.6 0.4 14.6 -13.8 14.6 -23.9 10.2 -31.0 7.05 -33.15 3.0 L-33.95 0.45 -34.0 0.0 -34.0 -0.6 -33.95 -1.75 -33.9 -2.0 Q-32.85 -7.4 -23.9 -11.35 -13.8 -15.8 0.4 -15.8 14.7 -15.8 24.75 -11.35 33.8 -7.4 34.8 -1.9 M34.0 1.9 L34.1 1.6 34.2 1.1 34.4 0.25 34.4 0.2 34.4 0.0 34.4 -0.6 34.4 -0.65 34.4 -0.85 34.4 -1.25 34.35 -1.5 34.35 -1.6 33.4 -3.75 Q31.05 -7.35 24.6 -10.2 14.6 -14.6 0.4 -14.6 -13.75 -14.6 -23.8 -10.2 -30.2 -7.35 -32.5 -3.75 -33.2 -2.7 -33.5 -1.6 L-33.55 -1.0 -33.6 -0.65 -33.6 -0.6 -33.55 0.0 -33.3 1.4 -33.15 1.9 Q-31.5 6.45 -23.65 9.9 -13.7 14.25 0.4 14.25 14.55 14.25 24.55 9.9 32.4 6.45 34.0 1.9 M0.4 19.8 Q-16.35 19.8 -28.2 14.35 -38.4 9.7 -39.75 3.4 -37.35 8.65 -28.55 12.65 -16.55 18.15 0.4 18.15 17.4 18.15 29.4 12.65 38.15 8.65 40.55 3.5 39.2 9.75 29.0 14.35 17.2 19.8 0.4 19.8" fill="#ccc5b0" fill-rule="evenodd" stroke="none"/>
    <path d="M40.65 -2.0 L34.8 -2.0 34.8 -1.9 Q33.8 -7.4 24.75 -11.35 14.7 -15.8 0.4 -15.8 -13.8 -15.8 -23.9 -11.35 -32.85 -7.4 -33.9 -2.0 L-39.8 -2.0 Q-38.8 -8.6 -28.2 -13.45 -16.35 -18.8 0.4 -18.8 17.2 -18.8 29.0 -13.45 39.6 -8.6 40.65 -2.0" fill="#f1eeeb" fill-rule="evenodd" stroke="none"/>
    <path d="M33.4 -3.75 L34.35 -1.6 34.35 -1.5 34.4 -1.25 34.4 -0.85 34.4 -0.65 34.4 -0.6 34.4 0.0 34.4 0.2 34.4 0.25 34.2 1.1 34.1 1.6 34.0 1.9 -33.15 1.9 -33.3 1.4 -33.55 0.0 -33.6 -0.6 -33.6 -0.65 -33.55 -1.0 -33.5 -1.6 Q-33.2 -2.7 -32.5 -3.75 L33.4 -3.75" fill="#e4ded8" fill-rule="evenodd" stroke="none"/>
    <path d="M34.0 1.9 Q32.4 6.45 24.55 9.9 14.55 14.25 0.4 14.25 -13.7 14.25 -23.65 9.9 -31.5 6.45 -33.15 1.9 L34.0 1.9" fill="#e9e3de" fill-rule="evenodd" stroke="none"/>
    <path d="M-32.5 -3.75 Q-30.2 -7.35 -23.8 -10.2 -13.75 -14.6 0.4 -14.6 14.6 -14.6 24.6 -10.2 31.05 -7.35 33.4 -3.75 L-32.5 -3.75" fill="#e0d8d1" fill-rule="evenodd" stroke="none"/>
  </g>
</svg>
