<?xml version="1.0" encoding="UTF-8" standalone="no"?>
<svg xmlns:ffdec="https://www.free-decompiler.com/flash" xmlns:xlink="http://www.w3.org/1999/xlink" ffdec:objectType="shape" height="134.7px" width="80.1px" xmlns="http://www.w3.org/2000/svg">
  <g transform="matrix(1.0, 0.0, 0.0, 1.0, 36.45, 135.85)">
    <path d="M-4.15 -121.55 L-2.45 -121.65 -2.0 -121.75 Q-0.4 -122.2 1.05 -123.25 L3.1 -125.1 Q4.8 -124.25 6.15 -122.5 8.05 -120.0 8.55 -116.7 9.05 -113.55 8.05 -109.95 7.4 -107.5 5.6 -103.6 L5.75 -103.1 6.6 -102.9 8.45 -103.65 10.0 -104.5 10.1 -102.75 Q10.1 -102.1 8.8 -98.55 L7.4 -94.75 7.55 -94.35 Q7.7 -93.85 8.0 -93.5 L12.25 -96.75 Q12.6 -89.1 8.85 -84.15 L5.5 -80.3 Q3.35 -78.0 2.3 -76.35 L2.45 -75.7 Q2.65 -75.4 3.3 -75.4 3.7 -75.4 6.5 -77.95 9.3 -80.5 10.35 -80.5 12.05 -80.5 15.4 -77.05 L15.1 -72.25 15.3 -71.15 Q15.4 -70.4 15.05 -69.8 14.05 -68.0 8.25 -65.6 8.65 -65.4 8.55 -64.8 L12.6 -64.35 15.55 -65.3 19.75 -66.75 19.25 -63.8 19.0 -62.0 Q19.0 -60.95 20.25 -52.25 20.25 -50.8 16.85 -48.0 L12.5 -44.5 13.7 -43.2 Q15.2 -42.15 18.95 -42.15 L24.75 -42.95 25.7 -42.6 Q24.05 -42.35 22.55 -41.3 20.95 -40.2 20.65 -38.95 L22.8 -37.6 Q24.4 -36.45 26.15 -33.1 25.25 -32.55 23.0 -31.55 21.55 -30.9 20.8 -30.0 22.6 -27.75 25.7 -26.65 27.45 -26.0 27.45 -22.7 27.45 -18.3 26.05 -14.45 24.85 -11.25 23.7 -10.6 22.65 -9.95 20.5 -9.9 L17.8 -9.95 11.4 -9.15 Q9.45 -9.15 8.55 -10.7 7.6 -12.45 6.8 -12.65 6.05 -12.1 5.95 -11.4 L5.85 -10.45 Q5.55 -9.65 1.1 -9.65 L-6.55 -10.0 Q-7.35 -10.15 -8.4 -11.75 -9.45 -13.45 -9.8 -13.55 L-11.0 -12.2 Q-11.8 -11.35 -12.35 -11.35 -13.45 -11.35 -21.25 -13.4 L-19.3 -30.4 -13.5 -29.85 -8.0 -29.5 -3.75 -29.8 -3.05 -30.9 Q-4.0 -32.1 -8.2 -33.4 L-16.65 -35.65 -15.95 -45.6 -15.35 -55.4 -11.1 -56.15 Q-9.05 -56.4 -8.4 -56.9 L-8.1 -57.25 -11.65 -58.65 -15.0 -59.9 Q-14.35 -60.95 -14.35 -62.0 L-12.8 -62.3 Q-11.15 -62.65 -10.8 -63.1 L-10.7 -64.0 Q-9.15 -65.15 -6.8 -67.55 L-4.45 -70.2 Q-4.45 -70.7 -5.0 -70.9 L-7.45 -69.9 -10.1 -68.95 Q-10.3 -70.75 -11.0 -73.4 L-11.65 -76.8 -10.7 -82.9 Q-9.8 -89.15 -9.75 -91.85 -9.7 -100.0 -7.1 -101.2 L-4.55 -101.6 -1.65 -102.0 Q-1.4 -101.7 -1.4 -102.7 L-4.35 -103.65 Q-7.35 -104.35 -7.35 -105.1 -7.35 -110.35 -5.2 -118.05 L-4.15 -121.55 M0.2 -121.3 L-1.6 -120.5 Q-2.45 -119.65 -3.2 -117.7 -4.5 -114.2 -4.5 -110.05 -4.5 -109.6 -2.95 -107.7 -1.1 -105.45 0.35 -105.45 1.55 -105.45 2.65 -107.95 3.75 -110.35 4.05 -113.35 4.8 -121.05 0.2 -121.3 M4.5 -99.75 Q-1.35 -99.75 -4.75 -96.45 -8.0 -93.35 -7.35 -89.15 L-7.95 -82.3 -8.6 -75.7 -8.45 -73.55 Q-8.2 -72.35 -7.4 -72.35 -2.35 -72.35 5.0 -84.65 5.0 -87.35 3.45 -87.5 1.45 -87.2 0.5 -87.5 5.45 -98.05 5.5 -98.7 L5.35 -99.35 Q5.15 -99.75 4.5 -99.75 M11.95 -76.4 L10.55 -76.55 Q10.15 -76.55 5.2 -72.7 -0.55 -68.25 -3.1 -66.75 -7.4 -64.25 -8.2 -62.25 -9.15 -60.0 -4.65 -60.0 4.0 -60.0 6.25 -61.8 5.55 -62.45 3.75 -62.55 L-2.7 -62.6 Q12.4 -72.15 12.4 -75.1 L12.3 -75.85 11.95 -76.4 M13.5 -59.8 Q0.15 -55.4 -4.5 -54.1 -10.3 -53.3 -12.1 -49.3 -13.1 -47.1 -13.1 -41.8 L-13.05 -38.75 -12.3 -38.8 -11.15 -39.0 Q-9.2 -39.0 3.35 -34.65 15.85 -30.3 17.45 -30.3 18.55 -30.3 18.9 -30.9 L19.1 -32.0 Q19.1 -34.2 15.0 -37.7 10.55 -41.5 4.65 -43.75 L11.3 -49.4 Q15.5 -53.2 15.5 -56.65 15.5 -58.45 15.05 -59.15 14.6 -59.8 13.5 -59.8 M3.35 -31.05 Q1.05 -31.05 0.55 -29.9 L0.0 -27.45 -5.4 -25.85 Q-6.55 -25.3 -6.55 -23.15 -6.55 -19.15 -5.7 -17.45 -4.6 -15.2 -1.55 -15.2 1.7 -15.2 2.4 -16.15 L2.45 -17.2 1.45 -23.4 1.55 -24.15 7.65 -18.55 Q10.95 -15.5 12.45 -15.5 12.85 -15.5 15.1 -16.85 17.6 -18.4 19.35 -18.85 23.2 -19.9 24.4 -20.65 25.25 -21.15 25.25 -21.95 25.25 -23.2 22.2 -25.15 17.85 -27.95 10.2 -29.0 L6.85 -30.1 3.35 -31.05 M-13.45 -26.3 Q-16.6 -26.3 -17.75 -23.05 -18.3 -21.35 -18.3 -18.3 -18.3 -16.75 -16.3 -16.0 L-12.85 -15.4 Q-11.8 -15.4 -10.55 -18.0 -9.25 -20.65 -9.25 -22.85 -9.25 -24.5 -10.55 -25.45 -11.7 -26.3 -13.45 -26.3" fill="#2c9a7b" fill-rule="evenodd" stroke="none"/>
    <path d="M0.2 -121.3 Q4.8 -121.05 4.05 -113.35 3.75 -110.35 2.65 -107.95 1.55 -105.45 0.35 -105.45 -1.1 -105.45 -2.95 -107.7 -4.5 -109.6 -4.5 -110.05 -4.5 -114.2 -3.2 -117.7 -2.45 -119.65 -1.6 -120.5 L0.2 -121.3 M3.35 -31.05 L6.85 -30.1 10.2 -29.0 Q17.85 -27.95 22.2 -25.15 25.25 -23.2 25.25 -21.95 25.25 -21.15 24.4 -20.65 23.2 -19.9 19.35 -18.85 17.6 -18.4 15.1 -16.85 12.85 -15.5 12.45 -15.5 10.95 -15.5 7.65 -18.55 L1.55 -24.15 1.45 -23.4 2.45 -17.2 2.4 -16.15 Q1.7 -15.2 -1.55 -15.2 -4.6 -15.2 -5.7 -17.45 -6.55 -19.15 -6.55 -23.15 -6.55 -25.3 -5.4 -25.85 L0.0 -27.45 0.55 -29.9 Q1.05 -31.05 3.35 -31.05 M13.5 -59.8 Q14.6 -59.8 15.05 -59.15 15.5 -58.45 15.5 -56.65 15.5 -53.2 11.3 -49.4 L4.65 -43.75 Q10.55 -41.5 15.0 -37.7 19.1 -34.2 19.1 -32.0 L18.9 -30.9 Q18.55 -30.3 17.45 -30.3 15.85 -30.3 3.35 -34.65 -9.2 -39.0 -11.15 -39.0 L-12.3 -38.8 -13.05 -38.75 -13.1 -41.8 Q-13.1 -47.1 -12.1 -49.3 -10.3 -53.3 -4.5 -54.1 0.15 -55.4 13.5 -59.8 M11.95 -76.4 L12.3 -75.85 12.4 -75.1 Q12.4 -72.15 -2.7 -62.6 L3.75 -62.55 Q5.55 -62.45 6.25 -61.8 4.0 -60.0 -4.65 -60.0 -9.15 -60.0 -8.2 -62.25 -7.4 -64.25 -3.1 -66.75 -0.55 -68.25 5.2 -72.7 10.15 -76.55 10.55 -76.55 L11.95 -76.4 M4.5 -99.75 Q5.15 -99.75 5.35 -99.35 L5.5 -98.7 Q5.45 -98.05 0.5 -87.5 1.45 -87.2 3.45 -87.5 5.0 -87.35 5.0 -84.65 -2.35 -72.35 -7.4 -72.35 -8.2 -72.35 -8.45 -73.55 L-8.6 -75.7 -7.95 -82.3 -7.35 -89.15 Q-8.0 -93.35 -4.75 -96.45 -1.35 -99.75 4.5 -99.75 M-13.45 -26.3 Q-11.7 -26.3 -10.55 -25.45 -9.25 -24.5 -9.25 -22.85 -9.25 -20.65 -10.55 -18.0 -11.8 -15.4 -12.85 -15.4 L-16.3 -16.0 Q-18.3 -16.75 -18.3 -18.3 -18.3 -21.35 -17.75 -23.05 -16.6 -26.3 -13.45 -26.3" fill="#35bb96" fill-rule="evenodd" stroke="none"/>
    <path d="M22.85 -3.75 L14.9 -2.8 9.45 -2.4 -0.35 -2.8 -9.25 -3.7 Q-11.7 -6.35 -20.35 -9.5 -27.7 -12.15 -27.7 -14.3 -27.7 -18.6 -26.4 -23.55 L-24.6 -29.5 Q-23.75 -32.75 -22.25 -33.1 -20.95 -33.4 -20.95 -34.15 -20.95 -35.55 -21.55 -38.0 L-22.15 -40.35 Q-22.15 -41.75 -21.05 -46.95 -19.6 -54.0 -17.6 -57.85 L-18.45 -61.95 Q-17.95 -63.05 -15.7 -74.9 L-12.0 -94.5 -9.75 -107.55 Q-8.45 -114.95 -7.2 -119.15 L-5.95 -122.6 -5.5 -122.15 Q-4.95 -121.65 -4.15 -121.55 L-5.2 -118.05 Q-7.35 -110.35 -7.35 -105.1 -7.35 -104.35 -4.35 -103.65 L-1.4 -102.7 Q-1.4 -101.7 -1.65 -102.0 L-4.55 -101.6 -7.1 -101.2 Q-9.7 -100.0 -9.75 -91.85 -9.8 -89.15 -10.7 -82.9 L-11.65 -76.8 -11.0 -73.4 Q-10.3 -70.75 -10.1 -68.95 L-7.45 -69.9 -5.0 -70.9 Q-4.45 -70.7 -4.45 -70.2 L-6.8 -67.55 Q-9.15 -65.15 -10.7 -64.0 L-10.8 -63.1 Q-11.15 -62.65 -12.8 -62.3 L-14.35 -62.0 Q-14.35 -60.95 -15.0 -59.9 L-11.65 -58.65 -8.1 -57.25 -8.4 -56.9 Q-9.05 -56.4 -11.1 -56.15 L-15.35 -55.4 -15.95 -45.6 -16.65 -35.65 -8.2 -33.4 Q-4.0 -32.1 -3.05 -30.9 L-3.75 -29.8 -8.0 -29.5 -13.5 -29.85 -19.3 -30.4 -21.25 -13.4 Q-13.45 -11.35 -12.35 -11.35 -11.8 -11.35 -11.0 -12.2 L-9.8 -13.55 Q-9.45 -13.45 -8.4 -11.75 -7.35 -10.15 -6.55 -10.0 L1.1 -9.65 Q5.55 -9.65 5.85 -10.45 L5.95 -11.4 Q6.05 -12.1 6.8 -12.65 7.6 -12.45 8.55 -10.7 9.45 -9.15 11.4 -9.15 L17.8 -9.95 20.5 -9.9 Q22.65 -9.95 23.7 -10.6 24.85 -11.25 26.05 -14.45 27.45 -18.3 27.45 -22.7 27.45 -26.0 25.7 -26.65 22.6 -27.75 20.8 -30.0 21.55 -30.9 23.0 -31.55 25.25 -32.55 26.15 -33.1 24.4 -36.45 22.8 -37.6 L20.65 -38.95 Q20.95 -40.2 22.55 -41.3 24.05 -42.35 25.7 -42.6 L24.75 -42.95 18.95 -42.15 Q15.2 -42.15 13.7 -43.2 L12.5 -44.5 16.85 -48.0 Q20.25 -50.8 20.25 -52.25 19.0 -60.95 19.0 -62.0 L19.25 -63.8 19.75 -66.75 15.55 -65.3 12.6 -64.35 8.55 -64.8 Q8.65 -65.4 8.25 -65.6 14.05 -68.0 15.05 -69.8 15.4 -70.4 15.3 -71.15 L15.1 -72.25 15.4 -77.05 Q12.05 -80.5 10.35 -80.5 9.3 -80.5 6.5 -77.95 3.7 -75.4 3.3 -75.4 2.65 -75.4 2.45 -75.7 L2.3 -76.35 Q3.35 -78.0 5.5 -80.3 L8.85 -84.15 Q12.6 -89.1 12.25 -96.75 L8.0 -93.5 Q7.7 -93.85 7.55 -94.35 L7.4 -94.75 8.8 -98.55 Q10.1 -102.1 10.1 -102.75 L10.0 -104.5 8.45 -103.65 6.6 -102.9 5.75 -103.1 5.6 -103.6 Q7.4 -107.5 8.05 -109.95 9.05 -113.55 8.55 -116.7 8.05 -120.0 6.15 -122.5 4.8 -124.25 3.1 -125.1 L4.75 -127.45 5.75 -129.8 Q8.15 -127.55 10.1 -119.8 11.5 -114.25 12.25 -108.25 14.4 -98.3 14.8 -91.35 L15.1 -85.65 Q16.25 -85.75 18.0 -86.6 19.0 -84.0 20.65 -80.9 L20.9 -76.7 Q20.9 -74.25 20.3 -72.4 L19.65 -70.85 Q19.65 -70.2 20.0 -70.05 L20.6 -69.95 22.4 -71.1 Q23.2 -66.5 25.95 -57.95 28.25 -50.8 28.25 -48.2 28.25 -47.8 24.5 -45.45 L25.25 -44.75 Q29.15 -47.0 31.0 -40.05 31.95 -36.4 32.4 -30.9 34.15 -21.75 34.15 -19.45 34.15 -13.5 30.7 -10.65 L27.05 -7.95 Q24.65 -6.1 22.85 -3.75" fill="#27896f" fill-rule="evenodd" stroke="none"/>
    <path d="M5.75 -129.8 Q5.95 -130.85 5.7 -131.7 L5.6 -132.15 Q7.2 -130.75 8.65 -128.4 12.0 -123.1 15.45 -111.65 17.65 -104.25 22.05 -86.3 27.2 -65.3 30.2 -54.4 34.75 -37.85 39.3 -22.25 41.6 -14.1 41.6 -10.55 41.6 -8.35 32.95 -5.95 27.65 -4.5 22.85 -3.75 24.65 -6.1 27.05 -7.95 L30.7 -10.65 Q34.15 -13.5 34.15 -19.45 34.15 -21.75 32.4 -30.9 31.95 -36.4 31.0 -40.05 29.15 -47.0 25.25 -44.75 L24.5 -45.45 Q28.25 -47.8 28.25 -48.2 28.25 -50.8 25.95 -57.95 23.2 -66.5 22.4 -71.1 L20.6 -69.95 20.0 -70.05 Q19.65 -70.2 19.65 -70.85 L20.3 -72.4 Q20.9 -74.25 20.9 -76.7 L20.65 -80.9 Q19.0 -84.0 18.0 -86.6 16.25 -85.75 15.1 -85.65 L14.8 -91.35 Q14.4 -98.3 12.25 -108.25 11.5 -114.25 10.1 -119.8 8.15 -127.55 5.75 -129.8 M-9.25 -3.7 Q-21.1 -4.3 -28.1 -7.35 -34.25 -10.0 -34.25 -13.25 -29.65 -28.85 -26.6 -43.3 L-18.95 -78.6 Q-15.5 -94.25 -15.05 -97.4 -11.6 -119.65 -9.4 -125.85 -7.85 -130.2 -5.45 -132.3 -7.35 -129.5 -7.0 -125.6 -6.85 -123.6 -5.95 -122.6 L-7.2 -119.15 Q-8.45 -114.95 -9.75 -107.55 L-12.0 -94.5 -15.7 -74.9 Q-17.95 -63.05 -18.45 -61.95 L-17.6 -57.85 Q-19.6 -54.0 -21.05 -46.95 -22.15 -41.75 -22.15 -40.35 L-21.55 -38.0 Q-20.95 -35.55 -20.95 -34.15 -20.95 -33.4 -22.25 -33.1 -23.75 -32.75 -24.6 -29.5 L-26.4 -23.55 Q-27.7 -18.6 -27.7 -14.3 -27.7 -12.15 -20.35 -9.5 -11.7 -6.35 -9.25 -3.7" fill="#20735c" fill-rule="evenodd" stroke="none"/>
    <path d="M22.85 -3.75 Q27.65 -4.5 32.95 -5.95 41.6 -8.35 41.6 -10.55 41.6 -14.1 39.3 -22.25 34.75 -37.85 30.2 -54.4 27.2 -65.3 22.05 -86.3 17.65 -104.25 15.45 -111.65 12.0 -123.1 8.65 -128.4 7.2 -130.75 5.6 -132.15 L5.7 -131.7 Q5.95 -130.85 5.75 -129.8 L4.75 -127.45 3.1 -125.1 1.05 -123.25 Q-0.4 -122.2 -2.0 -121.75 L-2.45 -121.65 -4.15 -121.55 Q-4.95 -121.65 -5.5 -122.15 L-5.95 -122.6 Q-6.85 -123.6 -7.0 -125.6 -7.35 -129.5 -5.45 -132.3 -7.85 -130.2 -9.4 -125.85 -11.6 -119.65 -15.05 -97.4 -15.5 -94.25 -18.95 -78.6 L-26.6 -43.3 Q-29.65 -28.85 -34.25 -13.25 -34.25 -10.0 -28.1 -7.35 -21.1 -4.3 -9.25 -3.7 L-0.35 -2.8 9.45 -2.4 14.9 -2.8 22.85 -3.75 M4.5 -131.4 Q4.1 -132.7 2.4 -133.5 -1.25 -135.25 -3.6 -132.6 -6.15 -129.8 -5.75 -125.7 L-5.35 -123.95 -4.75 -123.15 Q-4.3 -122.85 -3.65 -122.8 L-2.35 -122.95 Q0.0 -123.65 1.85 -125.65 2.85 -126.7 3.7 -128.1 L3.65 -128.1 Q4.45 -129.5 4.55 -130.6 L4.5 -131.4 M12.75 -124.0 Q14.7 -118.85 17.6 -107.85 20.45 -96.9 21.8 -90.35 27.7 -71.1 32.35 -52.75 L34.7 -43.3 37.5 -32.05 38.1 -29.5 43.65 -9.5 Q38.45 -5.45 29.55 -3.5 20.6 -1.5 7.75 -1.15 -4.9 -1.25 -17.2 -3.25 -32.3 -6.1 -35.3 -10.45 L-36.45 -11.7 -33.9 -21.55 -31.9 -29.35 Q-30.45 -34.75 -28.45 -43.3 L-28.4 -43.3 -26.3 -52.75 -21.2 -76.15 Q-14.8 -105.6 -13.4 -113.3 -11.3 -124.85 -9.8 -128.55 -6.8 -135.85 -0.7 -135.85 4.6 -135.85 7.7 -132.5 10.8 -129.2 12.75 -124.0" fill="#10382e" fill-rule="evenodd" stroke="none"/>
  </g>
</svg>
