<?xml version="1.0" encoding="UTF-8" standalone="no"?>
<svg xmlns:ffdec="https://www.free-decompiler.com/flash" xmlns:xlink="http://www.w3.org/1999/xlink" ffdec:objectType="shape" height="416.1px" width="639.95px" xmlns="http://www.w3.org/2000/svg">
  <g transform="matrix(1.0, 0.0, 0.0, 1.0, -0.05, -63.9)">
    <path d="M624.15 92.6 L624.4 92.15 625.35 92.05 626.85 92.1 Q627.35 91.2 628.8 91.15 L628.9 91.15 Q629.5 89.4 631.1 88.15 L631.1 87.9 631.0 86.8 Q631.05 85.75 632.1 83.95 633.5 81.4 635.5 81.5 L635.45 82.05 635.55 82.1 Q635.95 81.2 636.6 80.55 L636.35 80.2 Q635.85 79.8 635.9 79.35 635.95 78.6 636.65 78.2 L638.4 77.9 638.25 77.75 Q639.3 76.35 639.95 76.35 L640.0 76.4 640.0 480.0 0.05 480.0 0.05 63.9 Q5.75 68.8 13.95 77.7 14.15 77.25 14.7 76.9 15.3 76.8 16.4 77.9 L16.3 78.05 17.95 78.0 Q18.65 78.3 18.75 79.0 18.85 79.4 18.55 79.8 L18.3 80.2 19.45 81.45 19.55 81.4 19.45 80.9 Q21.25 80.4 22.9 82.5 24.1 84.0 24.3 84.95 L24.35 85.95 24.35 86.25 Q26.0 87.1 26.75 88.6 L26.85 88.6 Q28.15 88.35 28.75 89.1 L30.15 88.8 31.0 88.7 31.3 89.05 31.5 89.75 31.5 90.7 31.45 90.8 Q32.15 90.85 32.35 91.95 32.5 92.6 32.05 93.25 L31.9 93.5 32.35 94.6 Q33.7 94.55 34.9 95.3 35.75 95.25 36.25 96.35 37.1 97.15 37.25 97.85 L37.5 99.2 Q37.5 99.85 37.1 100.2 L37.1 100.3 37.3 100.9 37.25 101.4 Q37.9 101.65 38.1 102.5 L38.15 103.75 39.25 103.95 39.85 104.75 Q40.25 105.0 40.45 105.4 L40.9 105.5 41.5 105.4 Q43.1 105.45 43.5 107.5 L43.35 108.8 Q44.3 109.65 44.8 112.05 L44.05 113.2 44.6 113.7 Q46.2 110.75 48.1 113.2 L48.3 113.3 Q50.95 113.95 51.4 116.15 L51.35 116.65 51.75 117.8 52.0 119.05 51.85 119.6 Q53.2 119.2 53.5 120.8 L53.5 121.55 Q53.45 122.25 52.95 122.6 L53.9 123.65 Q54.55 122.2 55.4 122.6 56.4 123.1 56.7 124.5 L56.7 124.55 57.2 124.05 Q58.9 122.75 59.45 125.3 L59.5 126.45 Q59.45 127.15 59.05 127.6 59.6 127.45 60.2 127.6 61.35 128.0 61.55 129.0 L61.6 129.45 61.8 129.5 62.55 129.9 62.9 130.0 63.55 130.5 Q65.65 130.35 66.7 131.5 67.65 132.4 68.05 134.35 L68.1 136.4 67.95 136.95 68.0 137.85 69.1 138.6 Q70.35 138.45 71.0 139.0 71.55 139.45 71.9 141.2 L72.1 142.2 Q72.05 143.15 70.85 143.4 L70.8 143.4 71.65 144.6 71.7 144.15 71.7 143.6 Q73.4 142.65 74.05 143.35 L74.5 144.7 74.7 146.25 74.75 146.3 76.25 146.2 Q78.45 146.95 78.9 148.95 L79.0 149.85 79.35 150.15 81.25 152.5 Q81.95 152.7 82.15 153.7 L82.15 154.0 82.6 154.1 82.4 154.6 82.55 155.1 82.9 156.8 83.95 157.8 84.05 157.75 Q85.75 157.55 86.3 158.5 87.6 158.95 87.75 159.8 L87.75 159.9 Q88.7 160.2 88.95 161.25 89.3 163.1 87.85 163.5 L88.15 164.15 87.85 164.75 87.65 165.45 88.75 166.85 88.7 166.7 88.45 166.4 88.55 165.65 Q89.2 165.3 89.5 165.25 90.0 165.2 90.15 165.95 L90.25 166.5 Q92.25 166.75 93.65 169.25 L94.05 170.2 95.0 168.8 Q96.75 169.65 97.15 171.45 L97.15 173.3 96.75 174.55 96.85 174.9 96.75 175.7 Q98.05 174.95 98.65 175.85 98.95 175.3 99.85 175.2 101.45 174.95 101.8 176.55 L101.75 177.45 103.0 178.5 Q103.65 179.2 103.95 180.4 105.0 180.9 105.3 182.45 L105.7 185.0 Q106.4 185.25 106.95 185.65 107.25 184.3 107.75 183.8 109.25 184.3 109.65 186.3 L109.9 189.55 109.9 190.95 109.95 191.3 110.7 191.7 Q111.45 192.35 111.6 193.25 L111.7 193.55 Q113.35 195.0 114.15 197.25 L114.05 196.55 114.0 196.15 Q113.7 194.65 115.45 194.45 117.2 194.2 117.6 196.15 L117.85 197.45 117.8 197.95 118.15 198.85 118.25 199.95 118.2 200.05 118.2 200.1 Q118.9 199.4 120.15 199.15 120.9 199.0 121.2 199.15 L121.45 199.3 121.65 199.85 Q122.75 199.6 124.15 201.15 L124.15 201.9 124.95 201.6 Q127.0 201.1 127.7 202.2 129.4 201.75 130.35 202.55 L132.2 202.4 Q133.1 202.5 133.3 203.55 L133.35 204.5 Q133.25 204.65 133.3 204.75 L132.15 205.25 132.7 205.5 133.9 205.5 134.55 205.55 134.75 205.5 135.0 205.35 Q137.2 203.65 137.7 206.15 L137.4 207.15 Q138.1 207.4 138.85 208.3 L138.9 208.65 139.65 208.35 139.2 206.9 139.1 205.95 139.2 205.7 Q141.55 204.95 142.85 206.4 L143.05 206.1 Q145.1 206.9 145.3 207.95 145.4 208.25 144.3 209.75 L144.1 209.75 144.3 210.7 144.35 210.75 146.6 211.1 Q148.15 212.1 150.05 212.35 L150.6 211.6 151.1 211.55 Q153.75 214.2 155.35 217.3 158.0 216.75 158.4 218.8 L158.3 220.05 158.3 220.2 158.35 220.3 158.6 220.0 Q159.35 219.1 159.95 219.85 161.3 219.8 161.65 221.55 L161.65 222.9 Q164.0 223.65 164.45 225.95 L164.65 227.75 164.4 228.7 164.45 228.65 165.45 229.35 165.4 229.7 165.8 230.3 166.6 231.55 170.0 227.1 169.7 227.0 170.85 224.45 169.4 224.2 169.25 222.95 167.65 223.1 166.75 222.35 166.4 221.85 Q173.8 215.75 177.8 207.45 179.7 203.45 178.8 199.25 178.2 196.75 175.8 195.75 L174.45 196.4 173.5 196.1 Q173.8 192.95 177.6 192.65 L181.25 192.55 181.4 191.65 181.9 191.45 Q191.45 195.55 194.9 205.85 195.9 208.45 197.4 210.5 L199.8 213.65 199.7 213.9 198.85 214.35 Q200.8 219.35 205.0 223.05 206.25 224.6 206.15 226.55 L206.0 227.15 203.65 226.85 202.55 225.9 202.2 226.3 201.45 227.8 201.1 227.75 200.9 227.55 200.25 226.85 200.05 226.8 202.15 231.1 207.25 239.7 203.45 239.9 203.65 241.75 202.85 242.0 201.2 240.6 201.0 241.2 201.85 242.9 202.5 244.8 203.45 247.0 Q204.45 249.05 205.85 250.8 L206.6 251.7 207.2 251.95 208.0 251.75 208.9 251.55 208.85 251.4 Q209.65 249.8 210.0 249.7 210.8 249.5 212.0 250.35 217.1 245.95 224.0 243.8 L224.6 244.2 224.7 245.5 Q227.3 246.55 229.9 246.2 L230.3 246.3 Q235.1 241.85 237.9 236.15 239.4 233.0 238.65 229.65 238.2 227.6 236.3 226.8 L235.2 227.3 234.5 227.1 Q234.75 224.55 237.75 224.3 239.15 224.7 240.65 224.3 L240.85 223.55 241.2 223.35 Q248.8 226.7 251.6 234.95 252.35 237.0 253.55 238.65 L255.4 241.15 255.35 241.35 254.7 241.75 Q256.25 245.75 259.6 248.75 260.6 249.95 260.5 251.55 L260.4 252.0 258.5 251.7 257.65 250.95 257.35 251.3 Q257.0 251.85 256.8 252.5 L256.5 252.45 256.25 252.25 255.75 251.75 255.55 251.6 255.5 251.7 256.15 253.4 Q258.7 259.25 260.45 265.3 L260.7 266.4 Q258.65 266.45 257.75 264.55 L257.65 264.5 257.2 266.25 255.75 265.35 Q257.9 272.5 264.25 276.8 L261.65 277.7 261.3 278.35 260.45 278.35 260.2 278.25 260.3 278.75 260.5 279.05 260.95 278.75 261.35 278.7 262.25 277.75 Q263.1 277.2 263.95 276.95 265.75 276.5 267.25 277.75 L266.4 279.15 267.45 279.15 Q269.45 279.3 270.6 280.2 273.5 278.6 275.5 275.95 L276.45 274.6 277.15 273.3 278.05 272.2 277.95 271.8 276.6 272.5 276.1 272.25 276.45 271.0 273.85 270.4 278.55 265.05 280.5 262.4 279.95 262.75 279.75 262.9 279.5 262.85 279.15 261.7 278.95 261.4 278.1 261.9 276.35 261.8 276.4 261.4 Q276.55 260.0 277.7 259.1 281.1 257.1 283.15 253.9 L282.65 253.4 282.6 253.2 284.7 251.35 Q286.0 250.1 287.0 248.45 290.85 241.7 298.1 240.15 L298.4 240.35 298.35 241.0 Q299.6 241.6 300.9 241.55 303.5 242.3 303.3 244.55 L302.6 244.55 301.75 244.0 Q299.9 244.3 299.2 246.05 297.95 248.8 298.8 251.85 300.45 258.2 304.75 263.45 L304.45 263.75 303.75 264.15 302.6 263.85 302.35 264.75 301.3 264.7 301.75 266.6 301.6 266.65 Q303.75 270.75 305.45 275.05 L305.75 276.0 Q303.9 276.2 303.0 274.6 L302.85 274.6 302.65 276.15 301.05 275.35 301.2 278.95 301.0 278.85 301.5 281.0 302.2 280.7 Q302.7 280.05 303.9 280.35 L305.65 280.5 306.85 281.2 Q307.35 281.6 307.35 282.15 L307.45 282.2 307.85 282.35 310.4 280.3 316.5 274.55 316.3 274.5 316.45 272.5 313.0 272.25 313.25 270.4 312.25 270.0 Q311.5 269.75 310.9 269.4 309.85 268.95 309.6 267.85 309.9 267.6 310.2 267.5 317.7 265.55 322.1 259.7 L323.3 257.85 324.3 256.2 325.45 254.7 325.35 254.1 323.6 255.1 322.85 254.75 323.35 253.0 319.85 252.15 326.2 244.95 328.9 241.4 328.85 241.4 328.1 241.9 327.85 242.1 327.5 242.05 327.1 240.55 326.85 240.1 325.65 240.75 323.3 240.65 323.3 240.05 Q323.55 238.2 325.05 236.95 329.7 234.25 332.45 229.85 L331.7 229.3 331.7 229.05 334.5 226.5 Q336.35 224.85 337.75 222.55 342.9 213.4 352.7 211.3 L353.1 211.55 353.1 212.45 Q354.8 213.3 356.5 213.2 360.05 214.15 359.75 217.2 L358.85 217.3 357.65 216.45 Q355.2 216.95 354.2 219.25 352.5 223.05 353.65 227.15 355.2 233.15 358.55 238.45 L360.5 238.05 Q364.25 237.9 364.85 240.95 L364.0 241.3 362.6 240.85 Q361.7 241.35 361.1 242.05 L361.75 242.85 361.3 243.3 360.35 243.85 360.25 243.85 360.1 244.6 Q359.6 248.75 361.9 252.45 365.25 257.85 370.1 262.05 L370.8 260.15 372.2 255.25 371.75 255.35 371.15 254.4 369.9 255.15 368.9 254.9 368.4 254.65 Q371.8 246.8 371.6 238.55 371.55 234.55 369.1 231.65 367.55 229.8 365.25 230.0 L364.4 231.05 363.55 231.25 Q362.5 228.55 365.4 226.85 367.0 226.45 368.3 225.3 L368.1 224.45 368.35 224.1 Q377.65 223.45 384.65 230.25 386.45 231.95 388.5 233.0 L391.65 234.5 391.7 234.8 391.25 235.45 Q394.8 238.65 399.65 239.9 401.3 240.6 402.05 242.2 L402.15 242.7 400.1 243.45 398.9 243.15 398.75 243.6 398.85 245.1 398.5 245.25 398.2 245.1 397.4 244.9 397.15 244.85 396.8 246.55 396.5 246.8 395.9 246.9 394.65 246.05 394.25 247.1 393.8 247.25 394.8 248.25 396.65 250.0 Q401.8 254.25 406.35 259.2 L407.3 257.85 Q409.35 254.95 409.15 251.55 409.05 249.5 407.25 248.35 L406.15 248.7 405.45 248.35 Q406.1 245.9 409.05 246.15 L412.0 246.55 412.25 245.9 412.65 245.75 Q416.5 248.25 418.7 252.0 L418.7 251.75 Q419.1 243.85 424.65 238.8 L424.3 238.45 423.1 239.5 420.3 239.9 420.1 239.25 Q420.0 236.95 421.5 235.2 426.3 230.85 428.5 225.1 L427.55 224.6 427.5 224.3 430.2 220.65 Q431.95 218.25 433.0 215.25 436.95 203.35 448.0 198.55 L448.55 198.8 448.75 199.8 453.0 199.9 Q457.3 200.2 457.65 203.9 L456.6 204.2 455.05 203.5 Q452.25 204.6 451.6 207.55 450.55 212.4 452.8 217.0 457.45 226.55 466.0 233.55 L465.55 234.2 464.6 235.0 462.75 234.85 462.55 236.3 460.85 236.65 462.2 239.55 461.9 239.7 Q466.7 245.55 470.7 251.95 L471.5 253.35 471.25 253.45 Q473.6 254.55 473.0 256.7 L472.3 256.6 471.6 255.85 Q469.8 255.9 468.8 257.4 467.1 259.85 467.4 262.95 L467.6 264.65 470.15 268.05 Q470.9 267.65 473.0 268.55 471.9 267.55 472.9 265.55 474.25 263.1 476.1 264.1 L477.0 265.0 477.1 265.1 477.2 265.1 477.1 264.7 Q476.9 263.55 477.9 263.55 478.7 262.5 480.25 263.35 480.9 263.7 481.3 264.2 L482.4 263.7 482.65 261.65 482.4 261.8 482.1 256.8 479.95 258.2 479.4 256.0 479.2 256.05 Q478.2 258.45 475.6 258.4 L475.9 257.05 Q477.55 250.75 479.95 244.75 L479.75 244.7 480.15 241.95 478.65 242.15 478.1 240.95 476.65 241.6 Q476.15 241.45 475.6 241.1 L475.1 240.75 Q480.4 232.75 481.75 223.65 482.5 219.25 480.35 215.55 479.05 213.25 476.45 213.0 L475.35 214.05 474.4 214.05 Q473.75 210.9 477.25 209.5 479.1 209.45 480.75 208.4 L480.65 207.45 481.05 207.15 Q491.4 208.3 497.75 217.1 499.4 219.35 501.4 220.9 L504.6 223.15 504.6 223.45 503.95 224.1 Q507.25 228.35 512.4 230.7 514.05 231.75 514.5 233.7 L514.55 234.25 512.15 234.65 510.9 234.05 Q510.7 234.3 510.65 234.6 510.4 235.35 510.4 236.2 L510.05 236.25 509.7 236.1 508.9 235.65 508.8 235.65 511.95 239.1 517.7 244.35 522.5 243.15 522.5 242.85 522.35 242.9 Q521.0 241.65 521.0 241.25 521.1 240.15 523.15 238.8 L523.4 239.15 Q524.5 237.3 527.15 237.6 L527.3 237.85 527.3 238.8 527.05 240.45 527.9 240.6 527.85 240.25 Q528.6 239.15 529.25 238.7 L528.85 237.75 Q529.0 235.05 531.55 236.3 L531.8 236.45 532.05 236.45 532.7 236.2 534.0 236.0 534.6 235.55 533.25 235.35 533.15 235.1 Q533.05 234.9 533.1 234.1 533.15 232.95 534.15 232.65 L536.05 232.4 Q536.95 231.35 538.75 231.45 539.4 230.1 541.6 230.25 L542.55 230.35 542.45 229.6 Q543.65 227.65 544.9 227.65 L545.0 227.1 545.25 226.9 546.3 226.65 Q545.25 225.15 543.35 224.95 L542.5 225.75 541.7 225.75 Q541.2 223.25 544.0 222.2 545.5 222.1 546.8 221.25 L546.75 220.55 547.05 220.25 550.0 220.8 550.6 220.7 Q552.15 220.6 552.35 221.65 L552.85 221.85 Q553.4 220.25 554.5 219.0 L554.5 218.65 Q554.55 217.65 555.2 216.85 L555.95 216.25 556.0 215.85 555.8 214.4 555.5 211.0 Q555.65 208.8 557.15 207.9 557.8 208.4 558.3 209.7 L559.55 208.75 Q559.5 207.25 559.6 206.05 559.7 204.35 560.7 203.6 560.85 202.25 561.45 201.4 L562.6 200.05 562.45 199.1 Q562.55 197.35 564.3 197.25 565.3 197.15 565.7 197.7 566.15 196.6 567.65 197.1 L567.45 196.3 567.5 195.95 566.85 194.7 Q566.5 193.7 566.55 192.8 566.7 190.8 568.55 189.55 L569.65 190.8 569.95 189.7 Q571.05 186.8 573.2 186.1 L573.2 185.55 Q573.25 184.7 573.8 184.65 L574.85 184.85 575.05 185.65 574.8 186.0 574.8 186.2 575.75 184.45 575.45 183.8 575.05 183.25 575.25 182.45 Q573.65 182.35 573.8 180.35 573.85 179.2 574.8 178.7 L574.8 178.6 Q574.85 177.7 576.2 176.9 576.6 175.85 578.45 175.7 L578.55 175.7 Q579.05 174.7 579.55 174.4 L579.65 172.6 579.75 172.0 579.5 171.55 Q579.7 171.35 579.9 171.3 L579.85 171.0 Q579.95 169.95 580.65 169.55 581.25 168.2 582.35 166.7 L582.65 166.3 582.65 165.35 Q582.8 163.15 585.0 161.9 586.1 161.2 586.6 161.65 L586.6 161.6 586.6 160.0 Q586.65 158.8 586.9 158.5 587.45 157.6 589.4 158.2 L589.5 158.8 589.6 159.2 590.4 157.85 590.35 157.85 Q589.0 157.85 588.8 156.9 L588.85 155.75 Q589.0 153.85 589.5 153.25 590.1 152.55 591.5 152.45 L592.45 151.4 592.4 150.5 592.15 149.95 591.95 147.75 Q592.1 145.65 592.9 144.5 593.9 143.1 596.15 142.8 L596.75 142.1 597.15 141.95 597.85 141.4 598.05 141.25 598.0 140.8 Q598.1 139.75 599.3 139.1 599.85 138.75 600.45 138.75 600.0 138.4 599.8 137.7 L599.75 136.55 Q599.95 133.75 601.9 134.7 L602.5 135.1 602.5 135.05 Q602.6 133.5 603.6 132.8 604.45 132.2 605.35 133.55 L606.2 132.25 Q605.6 132.0 605.45 131.3 L605.35 130.5 Q605.45 128.8 606.9 128.9 L606.65 128.35 606.75 127.0 Q606.8 126.3 607.0 125.7 L606.85 125.2 Q607.0 122.8 609.75 121.55 L609.95 121.45 Q611.6 118.45 613.75 121.2 L614.2 120.5 613.3 119.5 Q613.45 116.85 614.3 115.8 613.95 115.0 613.95 114.5 614.1 112.25 615.75 111.85 L616.45 111.8 616.9 111.65 617.4 110.85 Q617.5 110.2 617.9 109.85 618.35 109.35 619.1 109.4 L618.95 108.15 Q619.0 107.2 619.7 106.75 L619.55 106.25 619.7 105.6 619.7 105.45 Q619.2 105.15 619.05 104.5 L619.15 103.1 Q619.2 102.3 620.05 101.25 620.35 100.0 621.3 99.9 622.45 98.85 623.85 98.6 L624.15 97.3 623.95 97.1 Q623.4 96.6 623.45 95.9 623.55 94.65 624.25 94.45 L624.15 94.35 624.05 93.4 624.15 92.6 M625.75 94.8 L626.4 95.3 Q626.8 95.0 627.5 94.65 L625.9 94.8 625.75 94.8 M635.5 85.8 L635.55 85.65 635.5 85.65 635.5 85.8 M624.55 103.5 L624.75 103.25 624.55 103.35 624.55 103.5 M603.6 136.2 L603.45 136.0 603.55 136.25 603.6 136.2 M587.45 163.0 L587.0 162.6 587.05 163.05 587.4 163.05 587.45 163.0 M400.05 264.2 L399.65 263.85 399.65 264.35 400.5 264.7 400.05 264.2 M404.0 261.9 L404.85 260.95 403.8 260.3 403.65 260.35 404.0 261.9 M403.6 262.3 L401.9 262.1 402.45 263.4 403.6 262.3 M227.2 255.3 L231.4 251.35 231.75 251.0 Q228.4 252.05 227.2 255.3 M230.05 258.85 L228.45 259.55 227.9 259.15 228.4 257.75 226.65 257.15 Q225.55 261.75 227.0 266.45 L227.05 266.5 227.85 264.95 228.5 263.45 Q229.3 261.7 230.65 260.4 L230.1 260.7 230.05 258.85 M303.65 285.2 L303.55 285.1 303.45 285.2 303.65 285.2 M122.0 203.7 L122.7 203.95 122.65 203.65 122.0 203.7 M32.35 99.3 L32.35 99.15 32.15 99.05 32.35 99.3 M74.45 147.2 L74.2 147.65 74.25 147.7 74.5 147.65 74.45 147.2 M55.8 125.8 L55.85 125.85 55.95 125.6 55.8 125.8 M29.6 91.95 L30.1 91.45 29.95 91.5 28.5 91.6 29.6 91.95 M19.95 84.9 L19.9 84.75 19.85 84.75 19.95 84.9 M517.35 250.2 L517.25 249.5 515.4 249.75 513.8 249.0 515.15 250.45 515.8 251.4 Q516.25 250.5 517.35 250.4 L517.35 250.2 M371.65 270.1 L371.75 270.15 371.75 270.1 371.9 269.85 371.35 269.85 371.65 270.1 M370.4 268.3 L371.15 269.55 371.0 268.15 370.4 268.3" fill="#000000" fill-rule="evenodd" stroke="none"/>
  </g>
</svg>
