<?xml version="1.0" encoding="UTF-8" standalone="no"?>
<svg xmlns:ffdec="https://www.free-decompiler.com/flash" xmlns:xlink="http://www.w3.org/1999/xlink" ffdec:objectType="shape" height="205.6px" width="639.95px" xmlns="http://www.w3.org/2000/svg">
  <g transform="matrix(1.0, 0.0, 0.0, 1.0, 0.0, -274.4)">
    <path d="M66.0 296.35 L68.1 296.5 66.85 298.2 Q65.9 298.5 65.0 298.95 L65.25 297.6 64.65 297.05 Q65.25 296.55 66.0 296.35 M65.05 292.8 L65.25 292.8 65.3 292.8 65.0 293.05 65.05 292.8 M482.7 348.15 L482.4 347.05 483.6 347.1 482.7 348.15 M477.6 346.2 L477.75 346.25 477.55 346.35 477.6 346.2 M461.55 333.55 L463.25 332.25 463.45 332.6 Q461.75 333.6 460.35 335.25 L460.3 335.15 Q460.0 334.6 459.5 334.4 L459.55 334.2 460.4 334.05 460.4 334.1 461.3 334.15 461.55 333.55 M464.05 333.6 L464.1 333.6 463.8 333.9 Q463.4 334.05 463.15 334.4 L462.85 334.85 Q462.0 335.65 461.45 336.55 L460.8 337.25 460.65 336.05 464.05 333.6 M400.2 324.85 L401.0 325.25 Q402.8 326.2 405.35 326.2 L405.0 327.95 405.3 328.1 406.1 328.1 408.2 327.1 407.55 330.4 407.7 330.55 409.05 330.7 412.0 328.25 411.75 330.7 Q411.65 331.4 412.1 332.1 L412.25 332.2 412.55 332.1 412.85 331.8 413.4 331.6 Q413.55 331.2 413.95 331.15 L415.4 334.15 417.9 331.7 418.7 336.45 421.75 333.0 422.0 334.1 422.55 334.15 422.7 334.1 423.5 333.1 424.25 332.3 424.4 333.05 425.1 340.75 429.2 334.6 431.15 338.1 Q432.2 337.5 432.8 336.3 L433.9 333.4 436.2 338.3 437.1 337.45 438.5 335.35 439.05 334.55 Q440.95 336.8 441.9 339.5 442.25 340.65 443.55 341.35 L443.6 341.2 443.7 340.85 443.8 338.55 443.9 338.2 446.65 333.8 448.6 337.75 450.35 334.25 450.35 335.15 450.6 336.3 451.1 337.85 451.1 337.7 451.6 337.5 452.55 336.85 452.9 336.3 454.0 334.5 453.95 334.3 454.7 335.45 Q453.85 336.05 453.85 336.35 453.85 339.65 456.3 339.65 L458.2 339.3 458.65 339.6 458.65 339.45 458.7 339.15 459.85 338.55 Q459.5 339.6 459.6 340.05 457.65 340.5 456.9 343.55 456.55 345.1 456.55 346.65 456.55 348.15 457.85 348.15 460.35 348.15 461.85 347.25 463.4 346.35 463.4 344.9 L462.55 342.7 464.2 341.05 465.2 340.65 465.0 341.35 464.05 343.4 463.9 344.05 463.75 345.35 Q463.75 345.9 464.05 346.35 464.45 347.15 465.5 347.15 468.1 347.15 469.7 345.0 470.6 343.8 471.0 342.45 L471.1 342.5 471.6 342.75 471.1 344.05 Q470.5 344.9 470.5 347.1 470.5 348.55 471.1 349.95 471.9 351.7 473.1 351.7 L474.4 350.45 476.95 347.2 476.7 348.15 Q476.55 350.55 477.1 351.0 L479.7 351.3 Q481.85 351.3 482.6 349.15 483.25 350.25 484.4 350.95 485.45 351.55 486.4 351.55 486.9 351.55 488.3 350.55 L489.75 349.0 489.55 348.1 489.1 347.35 489.9 347.6 490.7 347.75 490.7 347.95 Q490.7 349.45 492.0 349.45 494.5 349.45 496.0 348.55 L496.75 348.05 496.55 350.95 496.65 351.15 498.1 351.05 500.65 348.4 500.9 348.35 500.9 349.05 Q498.5 352.95 495.75 356.7 491.15 362.9 485.45 368.35 483.0 370.75 480.9 373.45 481.35 374.1 482.65 374.05 L486.95 374.15 488.6 374.15 488.1 376.55 489.2 376.6 491.95 375.5 Q492.45 375.05 493.05 374.75 L494.05 378.25 494.45 378.25 495.15 378.6 495.6 378.0 497.4 374.75 497.9 374.15 499.25 381.1 500.75 379.95 503.5 377.35 504.15 379.25 504.85 380.75 505.35 381.25 507.3 381.3 509.15 378.05 510.2 384.0 510.45 384.8 Q510.95 384.9 511.3 384.0 512.45 381.1 514.15 377.95 L515.85 381.4 516.85 381.3 517.35 379.3 518.1 381.75 519.45 387.35 519.5 387.55 Q521.45 386.1 522.6 384.05 L524.5 380.9 524.5 381.15 525.95 383.15 526.45 383.7 Q526.95 384.25 527.55 384.45 L528.15 384.6 528.2 384.75 528.7 382.9 528.75 381.55 528.75 380.45 531.1 384.4 533.0 379.6 536.7 384.45 536.85 384.9 537.15 387.55 537.3 387.95 537.35 388.15 Q538.8 387.25 539.15 385.8 540.0 382.55 542.0 379.7 L542.75 380.65 544.55 382.9 545.75 383.9 547.95 377.9 549.5 381.15 Q550.3 382.55 551.6 383.1 L553.55 378.85 558.95 385.65 559.05 376.55 Q559.05 375.95 559.2 375.65 L560.1 376.45 560.45 376.9 560.3 377.65 560.5 378.0 562.85 378.15 563.6 377.6 566.1 379.95 566.5 375.3 567.1 374.8 567.8 375.35 567.6 378.35 Q567.5 379.5 568.05 380.75 L568.4 380.85 568.85 380.65 569.45 380.35 570.3 379.85 Q570.7 379.25 571.3 379.15 L571.6 379.75 Q567.0 386.65 561.65 393.15 553.7 402.95 544.05 411.4 539.9 415.05 536.2 419.3 536.9 420.45 539.1 420.35 L546.05 420.9 548.75 421.05 547.7 424.9 549.45 425.0 554.05 423.4 555.9 422.35 557.25 428.15 Q557.5 428.4 557.85 428.15 L559.05 428.7 559.8 427.85 562.95 422.65 563.85 421.85 565.5 433.2 567.95 431.45 572.7 427.45 573.55 430.6 Q573.95 431.9 574.6 433.0 L575.35 433.9 578.55 434.1 581.85 429.0 583.1 438.8 583.35 440.0 Q584.2 440.25 584.9 438.8 586.95 434.15 590.0 429.2 L592.45 435.0 594.15 434.85 595.05 431.6 596.1 435.7 597.85 444.95 597.95 445.3 Q601.2 443.0 603.25 439.8 L606.55 434.85 606.5 435.2 608.65 438.5 609.45 439.5 Q610.35 440.4 611.3 440.85 L612.2 441.15 612.3 441.35 613.2 438.45 613.45 436.25 613.45 434.45 617.05 441.05 620.5 433.4 626.15 441.55 626.3 442.25 626.6 446.65 626.85 447.25 626.9 447.6 Q629.35 446.25 630.0 443.95 631.65 438.65 635.1 434.2 L636.2 435.8 639.0 439.65 639.95 440.6 639.95 480.0 0.0 480.0 0.0 274.4 Q31.7 282.35 64.9 289.0 L65.0 289.3 Q66.0 291.1 68.3 291.1 68.85 291.1 69.25 290.65 L69.65 289.95 70.25 290.05 70.35 290.35 Q70.65 290.85 71.1 291.15 70.45 291.45 69.9 291.95 L69.45 291.9 67.3 292.05 66.55 292.0 64.9 292.0 64.8 291.85 Q64.45 291.35 63.75 291.35 L62.7 291.3 Q62.1 291.35 62.1 291.7 L60.85 292.7 Q59.55 293.5 59.55 293.9 59.55 294.3 59.95 294.6 L60.45 294.85 Q59.05 295.55 58.25 296.85 60.45 296.15 62.95 295.05 L64.95 294.4 65.3 295.6 Q64.4 295.8 63.55 296.25 L62.3 295.8 60.25 297.0 Q58.25 298.65 58.25 301.15 58.25 302.35 59.7 302.45 58.45 302.55 57.35 303.2 56.35 303.8 56.35 304.1 56.35 306.7 58.3 306.7 59.55 306.7 61.1 305.85 60.8 306.65 60.85 307.0 59.35 307.35 58.75 309.75 58.45 311.0 58.45 312.2 58.45 313.35 59.5 313.35 61.45 313.35 62.65 312.65 63.85 311.95 63.85 310.85 L63.2 309.1 64.55 307.8 65.25 307.5 65.1 308.05 64.35 309.65 64.25 310.15 64.15 311.15 64.35 311.95 Q64.7 312.55 65.5 312.55 67.5 312.55 68.8 310.9 69.5 310.0 69.8 308.95 L69.85 308.95 70.3 309.15 69.85 310.15 Q69.4 310.85 69.4 312.55 69.4 313.65 69.9 314.75 70.5 316.1 71.45 316.1 L72.45 315.15 74.45 312.6 74.25 313.4 Q74.15 315.25 74.6 315.6 L76.65 315.85 Q78.3 315.85 78.9 314.15 79.4 315.0 80.3 315.55 81.1 316.05 81.85 316.05 82.25 316.05 83.35 315.25 84.5 314.4 84.5 314.0 L84.3 313.3 84.0 312.75 84.6 312.9 85.2 313.05 85.2 313.2 Q85.2 314.35 86.25 314.35 88.2 314.35 89.4 313.65 90.6 312.95 90.6 311.85 L89.9 309.95 90.35 309.95 91.4 310.05 91.1 310.65 91.0 311.2 90.9 312.15 91.1 312.95 Q91.45 313.6 92.25 313.6 94.25 313.6 95.55 311.9 L95.95 311.35 96.45 311.6 Q96.15 312.25 96.15 313.55 96.15 314.7 96.65 315.8 97.25 317.15 98.2 317.15 L99.2 316.15 100.9 314.05 101.1 314.1 101.0 314.4 Q100.9 316.25 101.35 316.6 L103.4 316.85 Q105.05 316.85 105.65 315.15 106.15 316.0 107.05 316.55 107.85 317.05 108.6 317.05 L109.65 316.6 Q106.5 320.8 102.6 324.55 L99.2 328.3 Q99.6 328.8 100.55 328.7 L103.7 328.8 104.95 328.85 104.55 330.6 105.35 330.6 107.45 329.8 108.25 329.25 109.0 331.85 109.25 331.85 109.8 332.05 110.15 331.7 111.45 329.25 111.85 328.85 112.8 333.95 113.95 333.15 116.0 331.2 116.5 332.65 116.95 333.7 117.35 334.1 118.8 334.1 120.2 331.75 121.0 336.15 121.1 336.7 Q121.5 336.8 121.8 336.1 122.6 334.0 123.9 331.6 L125.15 334.2 125.9 334.15 126.3 332.65 126.8 334.45 127.85 338.6 127.9 338.75 Q129.3 337.7 130.2 336.2 L131.55 333.8 131.55 334.0 132.65 335.5 133.0 335.9 133.85 336.45 134.3 336.55 134.35 336.65 134.7 335.3 134.75 334.3 134.75 333.5 136.5 336.45 137.9 332.85 140.65 336.45 140.75 336.75 141.0 338.75 141.1 339.1 141.15 339.25 Q142.2 338.55 142.45 337.45 L142.8 336.35 143.55 336.5 Q144.8 336.5 146.3 335.65 146.05 336.45 146.1 336.8 145.75 336.9 145.45 337.1 144.5 337.45 143.85 337.95 142.75 338.8 141.65 340.25 L143.0 339.35 Q143.8 338.8 144.35 338.55 L144.0 339.5 Q143.75 340.7 143.75 341.9 143.75 343.05 144.75 343.05 146.65 343.05 147.85 342.35 L148.8 341.5 149.55 341.75 Q149.9 342.25 150.65 342.25 L152.55 341.8 154.2 341.8 154.5 342.15 154.5 342.25 Q154.5 343.35 155.0 344.45 155.6 345.75 156.5 345.75 L157.5 344.8 158.4 343.7 159.0 343.4 159.3 343.25 Q159.2 344.9 159.6 345.25 L161.6 345.5 Q163.25 345.5 163.85 343.85 164.3 344.65 165.25 345.2 166.05 345.7 166.75 345.7 167.15 345.7 168.2 344.9 169.35 344.05 169.35 343.7 L169.2 343.0 168.85 342.45 169.45 342.6 172.7 342.85 173.65 342.8 173.9 341.75 173.25 340.45 173.1 340.15 172.8 339.6 172.3 338.65 Q172.75 338.8 173.2 339.15 173.9 339.75 174.15 339.75 L174.4 339.7 174.45 339.55 173.2 338.25 Q174.95 338.1 174.95 336.65 L174.35 335.85 173.8 335.1 176.6 336.45 177.05 337.6 178.55 337.8 179.5 337.45 178.15 339.4 180.65 339.95 Q182.95 340.3 184.45 338.9 L184.6 339.4 182.85 344.15 Q180.15 351.45 175.9 358.25 L166.5 373.4 167.4 373.8 172.3 374.0 172.3 376.1 172.6 376.15 173.5 376.05 175.65 374.55 175.45 378.25 175.6 378.5 177.15 378.35 180.0 375.3 180.05 376.55 178.85 377.8 Q173.25 383.75 166.6 388.8 163.8 390.95 161.2 393.55 161.65 394.3 163.0 394.35 L167.45 395.0 169.2 395.25 168.35 397.65 169.45 397.8 172.55 397.0 173.8 396.4 174.4 400.15 174.8 400.2 175.5 400.6 176.05 400.05 178.3 396.9 178.95 396.4 179.45 403.8 181.2 402.8 184.4 400.45 184.85 402.5 185.4 404.1 185.85 404.7 187.9 404.95 190.2 401.8 190.65 408.25 190.75 409.0 Q191.25 409.25 191.75 408.3 193.3 405.4 195.5 402.3 L196.8 406.15 197.9 406.15 198.65 404.1 199.1 406.85 199.9 412.85 199.9 413.1 Q202.1 411.75 203.6 409.75 L205.95 406.75 205.9 406.95 207.15 409.2 207.6 409.85 208.7 410.8 209.3 411.05 209.3 411.2 210.05 409.35 210.3 407.95 210.4 406.75 212.4 411.2 215.0 406.4 218.3 411.95 218.35 412.4 218.35 415.25 218.45 415.65 218.5 415.9 Q220.15 415.1 220.65 413.65 221.95 410.35 224.4 407.55 L225.05 408.7 226.65 411.3 227.8 412.4 230.85 406.45 232.05 410.1 Q232.7 411.65 234.0 412.35 L236.6 408.15 241.4 415.95 242.6 406.4 Q242.65 405.8 242.85 405.5 L243.75 406.45 244.75 407.75 244.9 407.9 245.6 407.75 245.95 406.45 249.55 410.85 250.7 405.0 253.7 408.1 255.65 404.55 Q256.1 404.6 256.35 405.1 L257.0 405.4 257.35 405.75 Q257.6 405.75 257.7 405.9 L257.95 405.75 Q258.45 404.9 258.45 404.05 L258.2 401.0 261.75 404.1 263.4 404.0 263.7 403.85 262.95 399.7 265.55 401.1 266.5 401.05 266.9 400.95 Q266.9 399.8 266.5 398.7 269.7 398.85 272.0 397.75 L272.95 397.3 260.7 381.75 Q255.2 374.75 251.25 367.0 L250.55 365.55 250.45 363.25 251.05 363.7 253.45 366.25 253.95 366.65 254.5 366.3 254.9 366.2 255.05 362.7 256.3 363.15 259.0 363.65 260.1 363.4 259.05 361.3 260.55 360.9 Q262.55 360.55 264.5 359.8 265.7 359.65 266.05 358.95 L260.75 355.25 Q254.35 351.35 248.7 346.65 L246.45 344.7 248.9 345.1 249.2 342.35 250.8 342.15 252.95 341.7 Q254.7 341.5 255.5 340.0 L254.7 339.25 Q244.65 333.7 240.5 323.65 L239.3 320.6 238.55 317.75 Q237.75 315.35 236.4 313.3 L273.4 316.25 Q345.15 317.3 410.35 312.9 L400.2 324.85 M73.9 292.65 L73.35 293.05 72.7 293.5 Q72.35 292.3 70.45 292.0 L72.6 291.45 74.65 291.15 74.6 291.2 73.9 292.65 M66.05 302.15 L66.05 302.25 66.0 302.2 66.05 302.15 M64.55 300.85 L64.15 301.05 Q62.65 301.9 61.45 303.3 L61.4 303.2 Q61.1 302.6 60.5 302.45 62.6 302.3 64.0 300.65 L64.7 300.3 64.5 300.7 64.55 300.85 M75.1 311.9 L74.95 311.95 75.0 311.85 75.1 311.9 M79.7 312.5 L78.95 313.35 78.75 312.5 79.7 312.5 M64.1 302.25 L63.65 302.6 63.35 303.0 Q62.7 303.6 62.25 304.35 L61.85 304.8 61.7 303.9 64.55 301.8 64.1 302.25 M149.2 332.15 L148.85 332.45 148.5 332.9 149.0 331.6 149.2 332.15 M148.6 339.35 L148.7 339.1 149.4 338.45 Q149.8 338.2 150.15 338.05 L150.0 338.4 149.45 338.95 148.8 339.85 148.6 339.35 M148.2 338.5 L148.0 338.1 148.9 337.9 148.55 338.15 148.2 338.5 M111.05 314.35 L110.75 313.75 111.35 313.95 111.55 314.0 111.15 314.55 111.05 314.35 M172.85 333.9 L172.6 333.55 172.9 333.45 173.0 333.55 173.15 333.7 173.15 333.75 172.85 333.9 M172.25 332.35 L172.5 332.9 172.1 333.0 172.1 332.95 Q172.1 332.8 171.3 332.55 L170.85 332.4 170.9 332.35 172.25 332.35 M186.15 313.8 L186.35 313.8 186.75 317.0 189.7 315.65 Q185.7 324.9 177.8 330.75 177.6 330.05 177.05 329.5 176.2 328.65 175.0 328.65 173.85 328.65 173.05 329.45 L173.0 329.5 172.5 330.1 Q172.1 330.75 172.1 331.5 L172.1 331.8 171.4 331.8 Q171.9 331.35 171.9 330.4 L171.5 329.7 172.4 329.5 172.7 329.2 172.4 328.9 171.2 329.15 170.85 328.55 170.35 328.1 Q169.7 327.75 169.1 327.75 L168.95 327.75 169.25 327.1 169.7 327.4 Q171.0 328.25 172.9 328.25 L174.2 328.15 Q174.7 328.05 174.7 327.6 174.7 325.55 173.75 324.55 L173.3 323.25 Q175.5 323.05 177.0 322.15 L177.7 321.7 167.85 311.85 Q164.6 308.65 161.95 305.05 L184.2 307.85 Q182.6 311.2 181.25 314.65 L180.55 316.55 Q184.25 317.0 186.15 313.8 M105.7 314.35 L105.7 314.25 105.8 314.25 105.7 314.35 M165.65 329.5 L165.95 329.45 165.7 329.75 165.6 329.75 165.65 329.5 M164.0 342.95 L163.9 343.05 163.9 343.0 164.0 342.95 M168.35 332.45 L169.25 332.35 168.55 333.0 168.35 332.45" fill="#ff0000" fill-rule="evenodd" stroke="none"/>
  </g>
</svg>
