<?xml version="1.0" encoding="UTF-8" standalone="no"?>
<svg xmlns:ffdec="https://www.free-decompiler.com/flash" xmlns:xlink="http://www.w3.org/1999/xlink" ffdec:objectType="shape" height="56.55px" width="61.25px" xmlns="http://www.w3.org/2000/svg">
  <g transform="matrix(1.0, 0.0, 0.0, 1.0, 31.9, 30.85)">
    <path d="M29.35 -11.2 L29.35 -11.05 Q29.1 -9.85 27.95 -8.7 26.85 -7.75 25.6 -7.35 L24.6 -7.35 22.25 -6.6 Q21.75 -6.3 21.4 -5.45 L21.2 -4.75 21.2 -4.65 21.2 -4.5 21.15 -2.85 21.05 9.95 21.0 10.8 21.0 10.9 21.0 12.0 19.5 17.85 Q19.05 19.3 18.15 20.3 L17.4 21.05 16.2 22.1 Q15.3 22.85 14.35 23.2 L12.1 24.1 10.65 24.6 9.2 24.9 7.7 25.25 5.1 25.55 2.7 25.65 0.2 25.65 -2.35 25.7 -4.75 25.65 -7.05 25.5 -8.2 25.25 -9.75 25.0 -11.35 24.6 -12.9 24.1 -15.35 23.15 -17.25 22.4 -19.3 21.3 -20.35 20.5 -20.55 20.3 Q-21.5 19.25 -21.95 17.95 L-22.6 15.85 -23.65 11.4 -23.65 -4.05 -23.7 -4.05 -23.7 -4.5 Q-23.75 -6.25 -24.75 -6.85 L-26.05 -7.35 -28.35 -7.7 Q-29.05 -7.75 -29.75 -8.15 L-31.4 -9.65 Q-31.75 -9.85 -31.9 -11.6 L-31.75 -12.55 -31.75 -12.65 -30.75 -14.7 Q-28.4 -18.9 -24.4 -22.4 -14.85 -30.85 -1.3 -30.85 12.25 -30.85 21.75 -22.4 25.9 -18.8 28.25 -14.55 L29.2 -12.7 29.2 -12.65 29.35 -11.9 29.35 -11.85 29.35 -11.5 29.35 -11.4 29.35 -11.2" fill="#000000" fill-opacity="0.29803923" fill-rule="evenodd" stroke="none"/>
  </g>
</svg>
