<?xml version="1.0" encoding="UTF-8" standalone="no"?>
<svg xmlns:ffdec="https://www.free-decompiler.com/flash" xmlns:xlink="http://www.w3.org/1999/xlink" ffdec:objectType="shape" height="125.55px" width="145.05px" xmlns="http://www.w3.org/2000/svg">
  <g transform="matrix(1.0, 0.0, 0.0, 1.0, 10.85, 49.95)">
    <path d="M98.85 -4.85 Q96.9 -2.9 96.9 -0.15 96.9 2.6 98.85 4.55 100.8 6.5 103.55 6.5 106.3 6.5 108.25 4.55 110.2 2.6 110.2 -0.15 110.2 -2.9 108.25 -4.85 106.3 -6.8 103.55 -6.8 100.8 -6.8 98.85 -4.85 M109.25 -6.65 Q111.75 -4.25 111.75 -0.05 L111.4 15.2 Q111.35 25.65 112.7 33.6 116.65 56.6 134.2 69.45 L130.0 70.4 126.85 70.75 124.3 70.55 126.75 75.3 Q122.55 76.55 118.15 72.6 114.0 68.9 112.95 64.15 L111.25 68.1 110.2 67.25 109.5 66.55 Q107.0 71.6 102.75 71.6 L102.0 71.55 102.0 70.75 103.9 47.35 Q103.9 19.15 99.8 9.25 98.95 7.2 97.0 4.45 95.7 2.65 95.7 0.65 95.7 -3.65 98.2 -6.25 100.45 -8.6 103.75 -8.7 107.0 -8.8 109.25 -6.65 M105.95 19.9 L104.3 8.75 103.2 8.75 Q104.25 16.3 104.85 27.3 L105.3 42.45 105.05 51.95 104.3 69.75 109.15 64.25 111.0 65.25 Q112.2 63.05 112.2 62.05 L109.75 45.5 Q111.9 56.55 115.75 64.25 119.4 71.5 123.7 74.05 L122.25 69.15 Q122.65 68.65 126.45 68.5 L130.75 68.4 Q122.1 67.5 115.0 44.7 108.2 22.65 110.05 5.45 L109.5 6.3 Q105.7 9.25 105.95 19.9" fill="#1d1124" fill-rule="evenodd" stroke="none"/>
    <path d="M105.95 19.9 Q105.7 9.25 109.5 6.3 L110.05 5.45 Q108.2 22.65 115.0 44.7 122.1 67.5 130.75 68.4 L126.45 68.5 Q122.65 68.65 122.25 69.15 L123.7 74.05 Q119.4 71.5 115.75 64.25 111.9 56.55 109.75 45.5 106.8 30.4 106.4 26.3 106.0 22.8 105.95 19.9" fill="#472958" fill-rule="evenodd" stroke="none"/>
    <path d="M98.85 -4.85 Q100.8 -6.8 103.55 -6.8 106.3 -6.8 108.25 -4.85 110.2 -2.9 110.2 -0.15 110.2 2.6 108.25 4.55 106.3 6.5 103.55 6.5 100.8 6.5 98.85 4.55 96.9 2.6 96.9 -0.15 96.9 -2.9 98.85 -4.85 M109.75 45.5 L112.2 62.05 Q112.2 63.05 111.0 65.25 L109.15 64.25 104.3 69.75 105.05 51.95 105.3 42.45 104.85 27.3 Q104.25 16.3 103.2 8.75 L104.3 8.75 105.95 19.9 Q106.0 22.8 106.4 26.3 106.8 30.4 109.75 45.5" fill="#331e40" fill-rule="evenodd" stroke="none"/>
    <path d="M26.7 -48.05 Q21.3 -49.9 14.9 -47.6 8.75 -45.4 3.25 -39.95 -9.2 -27.65 -9.2 -11.15 -9.2 -2.7 -5.8 5.55 -2.4 13.8 3.45 19.35 2.75 17.9 2.1 14.5 1.4 10.9 1.4 8.1 3.05 -0.75 3.45 -2.15 L7.15 8.1 Q11.0 -10.15 14.75 -15.3 16.45 -17.65 19.1 -18.95 L24.95 -21.15 22.6 -17.35 34.3 -19.05 45.45 -16.9 Q46.25 -16.9 47.6 -20.15 49.05 -23.65 49.05 -26.55 47.5 -32.35 46.1 -34.55 L46.3 -34.15 Q44.4 -37.5 39.7 -41.55 33.0 -47.25 26.7 -48.05 M13.15 -47.35 Q19.0 -49.95 24.05 -49.95 34.7 -49.95 43.0 -41.3 50.65 -33.35 50.65 -25.05 50.65 -18.7 47.95 -16.35 47.1 -15.6 46.05 -15.35 L45.15 -15.25 Q43.4 -15.25 41.0 -16.45 38.55 -17.7 31.45 -17.7 L27.0 -17.05 Q23.0 -16.25 21.4 -15.45 L22.3 -19.25 17.55 -15.25 Q15.5 -13.4 14.25 -11.2 11.7 -6.6 7.45 10.8 5.85 9.75 4.65 7.1 3.5 4.6 3.65 3.15 L3.35 1.0 3.05 5.7 Q3.05 9.8 4.0 15.75 4.75 20.25 5.5 23.05 -2.1 18.0 -6.7 7.65 -10.85 -1.75 -10.85 -11.05 -10.85 -28.0 1.75 -39.75 6.9 -44.6 13.15 -47.35" fill="#241a11" fill-rule="evenodd" stroke="none"/>
    <path d="M24.95 -43.15 Q13.25 -43.15 3.45 -32.8 -6.75 -22.0 -6.75 -7.75 L-6.55 -1.65 Q-6.1 4.3 -4.85 4.1 -1.25 -2.65 -0.85 -6.4 -0.65 -8.05 -1.4 -10.8 -1.95 -12.7 -0.75 -15.0 0.95 -18.15 7.05 -24.95 L8.4 -26.35 5.45 -16.15 Q4.9 -13.7 4.9 -10.0 L6.2 -1.85 Q11.45 -16.15 14.55 -21.05 19.3 -28.55 25.9 -28.55 34.45 -28.55 41.75 -24.15 L42.35 -27.05 42.65 -29.65 Q42.65 -34.8 37.85 -38.8 32.7 -43.15 24.95 -43.15 M26.7 -48.05 Q33.0 -47.25 39.7 -41.55 44.4 -37.5 46.3 -34.15 L46.1 -34.55 Q47.5 -32.35 49.05 -26.55 49.05 -23.65 47.6 -20.15 46.25 -16.9 45.45 -16.9 L34.3 -19.05 22.6 -17.35 24.95 -21.15 19.1 -18.95 Q16.45 -17.65 14.75 -15.3 11.0 -10.15 7.15 8.1 L3.45 -2.15 Q3.05 -0.75 1.4 8.1 1.4 10.9 2.1 14.5 2.75 17.9 3.45 19.35 -2.4 13.8 -5.8 5.55 -9.2 -2.7 -9.2 -11.15 -9.2 -27.65 3.25 -39.95 8.75 -45.4 14.9 -47.6 21.3 -49.9 26.7 -48.05" fill="#422f20" fill-rule="evenodd" stroke="none"/>
    <path d="M24.95 -43.15 Q32.7 -43.15 37.85 -38.8 42.65 -34.8 42.65 -29.65 L42.35 -27.05 41.75 -24.15 Q34.45 -28.55 25.9 -28.55 19.3 -28.55 14.55 -21.05 11.45 -16.15 6.2 -1.85 L4.9 -10.0 Q4.9 -13.7 5.45 -16.15 L8.4 -26.35 7.05 -24.95 Q0.95 -18.15 -0.75 -15.0 -1.95 -12.7 -1.4 -10.8 -0.65 -8.05 -0.85 -6.4 -1.25 -2.65 -4.85 4.1 -6.1 4.3 -6.55 -1.65 L-6.75 -7.75 Q-6.75 -22.0 3.45 -32.8 13.25 -43.15 24.95 -43.15" fill="#5f442e" fill-rule="evenodd" stroke="none"/>
  </g>
</svg>
