<?xml version="1.0" encoding="UTF-8" standalone="no"?>
<svg xmlns:ffdec="https://www.free-decompiler.com/flash" xmlns:xlink="http://www.w3.org/1999/xlink" ffdec:objectType="shape" height="178.25px" width="63.35px" xmlns="http://www.w3.org/2000/svg">
  <g transform="matrix(1.0, 0.0, 0.0, 1.0, 26.55, 145.1)">
    <path d="M3.55 -133.5 Q-0.45 -125.85 -4.7 -119.75 -8.15 -114.85 -10.4 -112.7 L-10.7 -116.9 Q-10.7 -124.65 -8.1 -129.5 -5.0 -135.3 2.3 -138.15 3.0 -137.1 3.35 -135.2 L3.55 -133.5 M9.0 -120.5 Q12.0 -128.6 14.65 -124.3 18.35 -117.45 18.35 -100.35 18.35 -92.1 15.9 -85.4 12.7 -78.2 11.15 -73.8 8.3 -76.65 6.9 -85.55 5.8 -92.5 5.8 -101.3 L6.55 -111.45 9.0 -120.5" fill="#fbca99" fill-rule="evenodd" stroke="none"/>
    <path d="M0.2 -142.4 L3.45 -142.95 Q5.05 -142.95 7.0 -141.55 8.6 -140.45 10.0 -138.75 L8.9 -135.4 Q7.55 -132.1 6.3 -130.35 L-2.9 -115.45 Q-7.85 -107.9 -11.5 -105.5 L-16.9 -100.35 -15.6 -118.45 -12.15 -127.1 Q-8.7 -135.4 -7.5 -137.4 L-7.4 -137.55 -4.25 -140.1 Q-9.05 -134.65 -11.1 -129.25 -14.3 -120.85 -13.9 -107.65 -11.25 -107.65 -6.5 -113.25 -2.85 -117.6 0.7 -123.5 4.45 -129.8 5.35 -131.8 6.85 -135.1 6.85 -138.55 6.85 -141.0 5.8 -141.75 4.45 -142.6 0.2 -142.4 M13.65 -132.9 L15.35 -128.55 Q8.0 -127.45 4.3 -118.1 1.5 -110.95 1.5 -101.65 1.5 -92.85 5.05 -81.15 8.6 -69.5 11.25 -69.5 14.7 -69.5 17.35 -76.75 20.35 -85.05 21.25 -100.3 L22.0 -96.0 21.45 -89.95 18.95 -72.1 Q18.7 -67.85 16.45 -64.55 14.5 -61.8 13.0 -61.8 8.7 -61.8 4.4 -76.15 0.3 -89.95 0.3 -102.15 L0.75 -107.55 Q1.25 -112.75 1.95 -116.5 2.9 -122.2 9.6 -130.85 10.65 -132.4 13.65 -132.9 M-21.2 -9.05 L-21.05 -9.0 -21.2 -8.85 -21.2 -9.05 M13.4 -58.85 Q13.9 -58.85 14.25 -57.75 L14.55 -55.1 14.25 -52.45 Q13.9 -51.35 13.4 -51.35 12.9 -51.35 12.6 -52.45 12.25 -53.55 12.25 -55.1 12.25 -56.65 12.6 -57.75 12.9 -58.85 13.4 -58.85 M15.05 -47.25 L15.05 -39.5 13.15 -39.5 13.15 -47.25 15.05 -47.25 M15.75 -35.25 L15.75 -27.5 13.85 -27.5 13.85 -35.25 15.75 -35.25 M14.75 -16.55 Q14.2 -20.9 14.4 -22.35 14.55 -23.35 15.3 -23.35 15.8 -23.35 16.0 -22.95 16.5 -21.95 16.65 -18.4 16.75 -15.95 16.25 -15.45 16.65 -15.35 15.65 -15.35 14.75 -15.35 14.75 -16.55 M-11.15 -45.2 L-12.9 -45.2 -12.9 -50.1 -11.55 -53.95 -11.35 -54.5 -11.1 -45.2 -11.15 -45.2 M-11.9 -66.7 L-12.1 -66.3 Q-13.05 -71.6 -12.7 -74.55 -12.5 -76.05 -12.15 -76.45 L-11.9 -76.7 -11.65 -67.15 -11.9 -66.7 M-18.5 -80.25 L-16.05 -80.25 -16.05 -59.1 -14.75 -59.1 -14.75 -49.4 -16.05 -49.4 -16.05 -45.2 -18.55 -45.2 -18.7 -45.2 -18.5 -80.25 M9.45 -3.75 L9.55 -1.2 -10.6 0.15 -12.05 7.0 Q-12.05 14.5 -7.05 19.7 -2.2 24.75 4.35 24.75 L9.35 24.2 9.4 26.95 Q-7.35 28.45 -12.3 20.85 -14.6 17.35 -15.55 10.75 -16.2 6.5 -16.75 -4.1 L-10.2 -3.25 -1.0 -2.45 3.5 -2.85 9.45 -3.75 M18.45 19.65 L19.15 19.15 Q21.65 16.9 24.1 12.3 26.8 7.35 26.8 4.25 26.8 0.7 25.1 -0.8 23.2 -2.45 18.2 -2.55 L17.35 -2.35 17.35 -4.8 29.65 -5.0 Q30.15 11.45 26.85 16.8 25.65 18.65 23.25 20.4 L18.9 23.75 18.45 19.65" fill="#3585bf" fill-rule="evenodd" stroke="none"/>
    <path d="M15.35 -128.55 L17.1 -122.05 15.75 -125.0 Q14.6 -126.95 13.65 -126.95 8.85 -126.95 6.3 -117.75 4.15 -110.05 4.15 -98.8 4.15 -88.15 6.6 -79.45 8.9 -71.35 11.2 -71.35 12.3 -71.35 14.0 -73.95 15.9 -77.0 17.3 -81.8 21.15 -95.0 18.9 -113.2 L21.25 -100.3 Q20.35 -85.05 17.35 -76.75 14.7 -69.5 11.25 -69.5 8.6 -69.5 5.05 -81.15 1.5 -92.85 1.5 -101.65 1.5 -110.95 4.3 -118.1 8.0 -127.45 15.35 -128.55 M-4.25 -140.1 L0.2 -142.4 Q4.45 -142.6 5.8 -141.75 6.85 -141.0 6.85 -138.55 6.85 -135.1 5.35 -131.8 4.45 -129.8 0.7 -123.5 -2.85 -117.6 -6.5 -113.25 -11.25 -107.65 -13.9 -107.65 -14.3 -120.85 -11.1 -129.25 -9.05 -134.65 -4.25 -140.1 M3.55 -133.5 L5.05 -138.0 2.55 -139.45 0.15 -139.9 Q-4.05 -139.9 -8.0 -131.75 -12.0 -123.5 -12.0 -114.2 L-11.95 -111.1 -10.4 -112.7 Q-8.15 -114.85 -4.7 -119.75 -0.45 -125.85 3.55 -133.5 M34.5 -11.25 Q35.9 4.5 28.95 17.55 20.65 33.15 4.65 33.15 -10.0 33.15 -17.0 21.9 -23.8 11.0 -23.25 -10.15 L-21.2 -9.05 -21.2 -8.85 Q-20.95 17.25 -12.7 25.1 -9.1 28.5 -3.05 29.65 L9.75 30.55 Q11.85 30.3 15.3 28.7 18.3 27.25 18.5 26.9 25.65 21.85 28.8 13.6 32.0 5.25 32.5 -9.85 L34.5 -11.25" fill="#183c56" fill-rule="evenodd" stroke="none"/>
    <path d="M10.0 -138.75 Q8.6 -140.45 7.0 -141.55 5.05 -142.95 3.45 -142.95 L0.2 -142.4 -4.25 -140.1 -7.4 -137.55 -7.5 -137.4 Q-16.7 -123.0 -19.7 -113.85 -24.1 -100.3 -24.1 -77.5 L-24.0 -69.45 Q-24.45 -67.65 -23.65 -49.4 L-23.55 -49.4 -24.6 -24.45 Q-24.6 -17.3 -23.05 -14.55 -21.2 -11.25 -15.1 -9.15 -12.6 -8.3 -6.45 -7.5 L5.65 -6.65 Q19.05 -6.65 27.35 -9.6 34.3 -12.1 34.3 -14.95 34.3 -19.55 30.25 -45.35 L22.0 -96.0 21.25 -100.3 18.9 -113.2 17.1 -122.05 15.35 -128.55 13.65 -132.9 Q13.0 -134.9 10.0 -138.75 M-23.25 -10.15 Q-24.35 -10.65 -25.0 -11.6 -25.4 -12.2 -25.45 -14.35 L-25.45 -24.2 -26.55 -67.1 Q-26.55 -106.9 -16.45 -127.6 -7.9 -145.1 5.3 -145.1 9.2 -145.1 12.15 -140.9 14.6 -137.45 17.4 -129.2 19.65 -122.6 20.95 -115.35 L30.4 -55.65 Q33.2 -37.85 35.4 -26.95 L36.8 -19.45 36.5 -16.15 Q35.9 -12.7 34.5 -11.25 L32.5 -9.85 Q23.8 -5.85 16.4 -5.4 L9.5 -4.85 0.25 -4.75 Q-3.25 -4.75 -11.0 -6.4 -18.05 -7.9 -21.05 -9.0 L-21.2 -9.05 -23.25 -10.15" fill="#3f3f3f" fill-rule="evenodd" stroke="none"/>
    <path d="M9.35 24.2 L4.35 24.75 Q-2.2 24.75 -7.05 19.7 -12.05 14.5 -12.05 7.0 L-10.6 0.15 9.55 -1.2 10.5 -1.35 9.85 24.05 9.35 24.2 M19.15 19.15 L18.2 -2.55 Q23.2 -2.45 25.1 -0.8 26.8 0.7 26.8 4.25 26.8 7.35 24.1 12.3 21.65 16.9 19.15 19.15 M-11.9 -76.7 L-7.85 -80.6 Q-6.35 -80.6 -5.0 -78.55 -3.15 -75.7 -3.15 -70.1 -3.15 -68.15 -4.35 -62.8 -5.35 -58.2 -6.35 -54.85 L-2.3 -54.85 -2.3 -45.2 -11.1 -45.2 -11.35 -54.5 Q-7.3 -66.05 -7.3 -67.9 -7.3 -69.95 -7.85 -70.5 L-8.65 -70.9 -10.05 -69.4 -11.65 -67.15 -11.9 -76.7" fill="#63a4d3" fill-rule="evenodd" stroke="none"/>
    <path d="M-23.55 -49.4 L-23.65 -49.4 Q-24.45 -67.65 -24.0 -69.45 L-21.5 -80.25 -18.65 -80.25 -18.5 -80.25 -18.7 -45.2 -20.25 -45.2 -20.25 -49.4 -23.55 -49.4 M-21.05 -9.0 Q-18.05 -7.9 -11.0 -6.4 -3.25 -4.75 0.25 -4.75 L9.5 -4.85 9.85 -3.8 9.45 -3.75 3.5 -2.85 -1.0 -2.45 -10.2 -3.25 -16.75 -4.1 Q-16.2 6.5 -15.55 10.75 -14.6 17.35 -12.3 20.85 -7.35 28.45 9.4 26.95 L10.0 26.8 9.75 30.55 -3.05 29.65 Q-9.1 28.5 -12.7 25.1 -20.95 17.25 -21.2 -8.85 L-21.05 -9.0 M16.4 -5.4 Q23.8 -5.85 32.5 -9.85 32.0 5.25 28.8 13.6 25.65 21.85 18.5 26.9 L18.45 23.95 18.9 23.75 23.25 20.4 Q25.65 18.65 26.85 16.8 30.15 11.45 29.65 -5.0 L17.35 -4.8 16.45 -4.7 16.4 -5.4 M-20.25 -59.1 L-20.25 -64.95 -21.55 -59.1 -20.25 -59.1" fill="#235981" fill-rule="evenodd" stroke="none"/>
    <path d="M17.1 -122.05 L18.9 -113.2 Q21.15 -95.0 17.3 -81.8 15.9 -77.0 14.0 -73.95 12.3 -71.35 11.2 -71.35 8.9 -71.35 6.6 -79.45 4.15 -88.15 4.15 -98.8 4.15 -110.05 6.3 -117.75 8.85 -126.95 13.65 -126.95 14.6 -126.95 15.75 -125.0 L17.1 -122.05 M-10.4 -112.7 L-11.95 -111.1 -12.0 -114.2 Q-12.0 -123.5 -8.0 -131.75 -4.05 -139.9 0.15 -139.9 L2.55 -139.45 5.05 -138.0 3.55 -133.5 3.35 -135.2 Q3.0 -137.1 2.3 -138.15 -5.0 -135.3 -8.1 -129.5 -10.7 -124.65 -10.7 -116.9 L-10.4 -112.7 M9.0 -120.5 L6.55 -111.45 5.8 -101.3 Q5.8 -92.5 6.9 -85.55 8.3 -76.65 11.15 -73.8 12.7 -78.2 15.9 -85.4 18.35 -92.1 18.35 -100.35 18.35 -117.45 14.65 -124.3 12.0 -128.6 9.0 -120.5" fill="#fabc7e" fill-rule="evenodd" stroke="none"/>
    <path d="M-2.9 -115.45 L-1.1 -116.25 1.95 -116.5 Q1.25 -112.75 0.75 -107.55 L0.3 -102.15 Q0.3 -89.95 4.4 -76.15 8.7 -61.8 13.0 -61.8 14.5 -61.8 16.45 -64.55 18.7 -67.85 18.95 -72.1 L20.45 -59.8 Q21.6 -48.95 21.6 -45.95 21.6 -38.35 19.8 -29.1 18.15 -20.4 16.65 -18.4 16.5 -21.95 16.0 -22.95 15.8 -23.35 15.3 -23.35 14.55 -23.35 14.4 -22.35 14.2 -20.9 14.75 -16.55 13.65 -15.7 11.05 -14.9 8.3 -14.0 6.3 -14.0 -1.55 -14.0 -5.5 -19.45 -10.8 -26.7 -11.15 -45.2 L-11.1 -45.2 -2.3 -45.2 -2.3 -54.85 -6.35 -54.85 Q-5.35 -58.2 -4.35 -62.8 -3.15 -68.15 -3.15 -70.1 -3.15 -75.7 -5.0 -78.55 -6.35 -80.6 -7.85 -80.6 L-11.9 -76.7 -12.15 -76.45 -12.3 -98.05 -11.5 -105.5 Q-7.85 -107.9 -2.9 -115.45 M13.4 -58.85 Q12.9 -58.85 12.6 -57.75 12.25 -56.65 12.25 -55.1 12.25 -53.55 12.6 -52.45 12.9 -51.35 13.4 -51.35 13.9 -51.35 14.25 -52.45 L14.55 -55.1 14.25 -57.75 Q13.9 -58.85 13.4 -58.85 M15.75 -35.25 L13.85 -35.25 13.85 -27.5 15.75 -27.5 15.75 -35.25 M15.05 -47.25 L13.15 -47.25 13.15 -39.5 15.05 -39.5 15.05 -47.25 M-11.55 -53.95 L-11.65 -61.85 -11.9 -66.7 -11.65 -67.15 -10.05 -69.4 -8.65 -70.9 -7.85 -70.5 Q-7.3 -69.95 -7.3 -67.9 -7.3 -66.05 -11.35 -54.5 L-11.55 -53.95 M10.5 -1.35 L12.05 -1.55 13.6 22.8 9.85 24.05 10.5 -1.35 M18.45 19.65 L16.95 20.65 15.4 -1.25 14.9 -1.95 17.35 -2.35 18.2 -2.55 19.15 19.15 18.45 19.65" fill="#f8f8f8" fill-rule="evenodd" stroke="none"/>
    <path d="M6.3 -130.35 L9.6 -130.85 Q2.9 -122.2 1.95 -116.5 L-1.1 -116.25 -2.9 -115.45 6.3 -130.35 M18.95 -72.1 L21.45 -89.95 Q25.25 -71.2 25.85 -65.45 27.05 -53.7 27.05 -24.8 27.05 -17.65 22.7 -13.35 17.1 -7.75 4.7 -7.75 -7.85 -7.75 -13.65 -16.4 -19.8 -25.7 -18.55 -45.2 L-16.05 -45.2 -16.05 -49.4 -14.75 -49.4 -14.75 -59.1 -16.05 -59.1 -16.05 -80.25 -18.5 -80.25 -18.65 -80.25 -19.05 -98.15 Q-19.05 -107.45 -15.6 -118.45 L-16.9 -100.35 -11.5 -105.5 -12.3 -98.05 -12.15 -76.45 Q-12.5 -76.05 -12.7 -74.55 -13.05 -71.6 -12.1 -66.3 L-11.9 -66.7 -11.65 -61.85 -11.55 -53.95 -12.9 -50.1 -12.9 -45.2 -11.15 -45.2 Q-10.8 -26.7 -5.5 -19.45 -1.55 -14.0 6.3 -14.0 8.3 -14.0 11.05 -14.9 13.65 -15.7 14.75 -16.55 14.75 -15.35 15.65 -15.35 16.65 -15.35 16.25 -15.45 16.75 -15.95 16.65 -18.4 18.15 -20.4 19.8 -29.1 21.6 -38.35 21.6 -45.95 21.6 -48.95 20.45 -59.8 L18.95 -72.1 M9.55 -1.2 L9.45 -3.75 9.85 -3.8 16.45 -4.7 17.35 -4.8 17.35 -2.35 14.9 -1.95 15.4 -1.25 16.95 20.65 18.45 19.65 18.9 23.75 18.45 23.95 10.0 26.8 9.4 26.95 9.35 24.2 9.85 24.05 13.6 22.8 12.05 -1.55 10.5 -1.35 9.55 -1.2" fill="#e2e2e2" fill-rule="evenodd" stroke="none"/>
    <path d="M10.0 -138.75 Q13.0 -134.9 13.65 -132.9 10.65 -132.4 9.6 -130.85 L6.3 -130.35 Q7.55 -132.1 8.9 -135.4 L10.0 -138.75 M22.0 -96.0 L30.25 -45.35 Q34.3 -19.55 34.3 -14.95 34.3 -12.1 27.35 -9.6 19.05 -6.65 5.65 -6.65 L-6.45 -7.5 Q-12.6 -8.3 -15.1 -9.15 -21.2 -11.25 -23.05 -14.55 -24.6 -17.3 -24.6 -24.45 L-23.55 -49.4 -20.25 -49.4 -20.25 -45.2 -18.7 -45.2 -18.55 -45.2 Q-19.8 -25.7 -13.65 -16.4 -7.85 -7.75 4.7 -7.75 17.1 -7.75 22.7 -13.35 27.05 -17.65 27.05 -24.8 27.05 -53.7 25.85 -65.45 25.25 -71.2 21.45 -89.95 L22.0 -96.0 M-24.0 -69.45 L-24.1 -77.5 Q-24.1 -100.3 -19.7 -113.85 -16.7 -123.0 -7.5 -137.4 -8.7 -135.4 -12.15 -127.1 L-15.6 -118.45 Q-19.05 -107.45 -19.05 -98.15 L-18.65 -80.25 -21.5 -80.25 -24.0 -69.45 M9.5 -4.85 L16.4 -5.4 16.45 -4.7 9.85 -3.8 9.5 -4.85 M-20.25 -59.1 L-21.55 -59.1 -20.25 -64.95 -20.25 -59.1 M9.75 30.55 L10.0 26.8 18.45 23.95 18.5 26.9 Q18.3 27.25 15.3 28.7 11.85 30.3 9.75 30.55" fill="#cdcdcd" fill-rule="evenodd" stroke="none"/>
  </g>
</svg>
