<?xml version="1.0" encoding="UTF-8" standalone="no"?>
<svg xmlns:ffdec="https://www.free-decompiler.com/flash" xmlns:xlink="http://www.w3.org/1999/xlink" ffdec:objectType="shape" height="134.7px" width="80.1px" xmlns="http://www.w3.org/2000/svg">
  <g transform="matrix(1.0, 0.0, 0.0, 1.0, 36.45, 135.85)">
    <path d="M2.75 -124.75 L3.9 -123.95 1.7 -121.95 -2.85 -120.0 -3.45 -119.95 -3.55 -119.95 -4.05 -119.95 -4.65 -120.0 -4.15 -121.55 -2.45 -121.65 -2.0 -121.75 Q-0.4 -122.2 1.05 -123.25 L2.75 -124.75 M5.6 -122.3 L2.9 -120.15 1.2 -120.8 3.9 -122.9 4.5 -123.45 5.6 -122.3 M-0.4 -105.6 Q0.1 -102.55 1.05 -99.25 -1.7 -98.45 -3.7 -95.85 -6.2 -97.45 -9.1 -98.15 -8.45 -100.6 -7.1 -101.2 L-4.55 -101.6 -1.65 -102.0 Q-1.4 -101.7 -1.4 -102.7 L-4.35 -103.65 Q-7.35 -104.35 -7.35 -105.1 -7.35 -110.35 -5.2 -118.05 L-4.9 -119.0 -4.0 -118.95 -2.7 -119.05 -3.45 -117.6 Q-5.45 -112.5 -2.95 -108.3 L-1.6 -106.7 -0.4 -105.6 M3.5 -93.95 Q3.7 -92.8 6.75 -89.85 9.75 -86.95 10.8 -86.8 L6.7 -81.75 Q5.3 -86.35 2.25 -90.35 L2.0 -90.65 3.5 -93.95 M1.15 -88.85 L2.2 -87.35 0.5 -87.5 1.15 -88.85 M4.25 -83.4 L5.3 -80.15 2.3 -76.35 2.45 -75.7 Q2.65 -75.4 3.3 -75.4 3.65 -75.4 5.8 -77.3 L6.0 -73.9 Q1.3 -71.05 -2.5 -68.25 L-4.9 -66.35 -5.45 -68.95 -4.45 -70.2 Q-4.45 -70.7 -5.0 -70.9 L-5.8 -70.55 -5.95 -71.15 4.3 -78.95 1.5 -79.3 4.25 -83.4 M-4.7 -94.3 Q-6.1 -91.9 -7.05 -88.45 -7.95 -85.05 -8.3 -81.25 L-10.05 -87.85 -9.75 -91.85 -9.45 -96.2 Q-6.95 -95.6 -4.7 -94.3 M7.7 -74.9 L7.35 -78.7 Q9.45 -80.5 10.35 -80.5 12.05 -80.5 15.4 -77.05 15.4 -74.55 14.7 -72.9 13.2 -69.3 8.25 -65.6 8.65 -65.4 8.55 -64.8 L12.6 -64.35 15.55 -65.3 19.75 -66.75 19.25 -63.8 19.0 -62.0 20.25 -52.25 Q20.25 -50.9 16.65 -48.15 12.8 -45.25 12.5 -44.5 L13.7 -43.2 Q15.2 -42.15 18.95 -42.15 L24.75 -42.95 25.7 -42.6 Q24.05 -42.35 22.55 -41.3 20.95 -40.2 20.65 -38.95 L22.8 -37.6 Q24.4 -36.45 26.15 -33.1 25.25 -32.55 23.0 -31.55 21.55 -30.9 20.8 -30.0 22.6 -27.75 25.7 -26.65 27.45 -26.0 27.45 -22.7 27.45 -12.9 23.7 -10.6 22.45 -9.8 20.55 -9.8 L17.8 -9.95 11.4 -9.15 Q9.15 -9.15 9.25 -10.45 9.4 -12.0 6.8 -12.65 6.05 -12.1 5.95 -11.4 L5.85 -10.45 Q5.55 -9.65 1.1 -9.65 -7.75 -9.65 -8.65 -11.3 -8.15 -13.15 -9.8 -13.55 L-11.0 -12.2 Q-11.8 -11.35 -12.35 -11.35 -13.45 -11.35 -21.25 -13.4 L-20.05 -24.6 -19.3 -30.4 -13.5 -29.85 -8.0 -29.5 -3.75 -29.8 -3.05 -30.9 Q-4.0 -32.1 -8.2 -33.4 L-16.65 -35.65 -15.95 -45.6 -15.5 -51.35 -13.9 -51.15 -10.95 -51.1 -12.1 -49.3 Q-13.1 -47.1 -13.1 -41.8 L-13.05 -38.75 -12.3 -38.8 -11.15 -39.0 Q-9.2 -39.0 3.35 -34.65 15.85 -30.3 17.45 -30.3 18.55 -30.3 18.9 -30.9 L19.1 -32.0 Q19.1 -34.2 15.0 -37.7 10.55 -41.5 4.65 -43.75 L11.3 -49.4 Q15.5 -53.2 15.5 -56.65 15.5 -58.45 15.05 -59.15 14.6 -59.8 13.5 -59.8 L-0.8 -55.2 0.95 -56.8 Q2.8 -58.65 4.15 -60.8 5.55 -61.2 6.25 -61.8 5.85 -62.2 5.05 -62.35 6.7 -65.65 7.35 -69.45 12.4 -73.4 12.4 -75.1 L12.3 -75.85 11.95 -76.4 10.55 -76.55 7.7 -74.9 M5.2 -67.85 Q4.5 -65.05 3.1 -62.55 L-2.7 -62.6 5.2 -67.85 M3.35 -31.05 Q2.35 -31.05 -2.2 -27.15 -6.55 -23.4 -6.55 -23.15 -6.55 -19.15 -5.7 -17.45 -4.6 -15.2 -1.55 -15.2 1.7 -15.2 2.4 -16.15 L2.45 -17.2 1.45 -23.4 1.55 -24.15 7.65 -18.55 Q10.95 -15.5 12.45 -15.5 13.8 -15.5 25.25 -21.95 25.25 -23.2 22.2 -25.15 17.85 -27.95 10.2 -29.0 L6.85 -30.1 3.35 -31.05 M-15.4 -53.35 L-15.35 -55.4 -11.1 -56.15 Q-9.05 -56.4 -8.4 -56.9 L-8.1 -57.25 -11.65 -58.65 -15.0 -59.9 Q-14.35 -60.95 -14.35 -62.0 L-13.0 -61.4 Q-11.5 -61.3 -10.7 -64.0 L-10.55 -64.05 -8.55 -62.25 Q-9.2 -60.4 -6.15 -60.05 L-2.85 -57.05 -3.5 -60.0 1.6 -60.3 -0.2 -58.3 Q-6.0 -52.45 -13.8 -53.15 L-15.4 -53.35 M-10.2 -17.3 Q-8.75 -18.8 -8.75 -20.85 -8.75 -22.9 -10.2 -24.35 -11.7 -25.85 -13.75 -25.85 -15.8 -25.85 -17.25 -24.35 -18.75 -22.9 -18.75 -20.85 -18.75 -18.8 -17.25 -17.3 -15.8 -15.85 -13.75 -15.85 -11.7 -15.85 -10.2 -17.3" fill="#787b71" fill-rule="evenodd" stroke="none"/>
    <path d="M2.9 -120.15 L2.2 -119.2 Q-1.35 -112.8 -0.4 -105.6 L-1.6 -106.7 -2.95 -108.3 Q-5.45 -112.5 -3.45 -117.6 L-2.7 -119.05 Q-0.85 -119.45 1.2 -120.8 L2.9 -120.15 M1.05 -99.25 Q2.2 -96.45 3.5 -93.95 L2.0 -90.65 Q-0.6 -93.9 -3.7 -95.85 -1.7 -98.45 1.05 -99.25 M1.15 -88.85 L0.5 -87.5 2.2 -87.35 4.25 -83.4 1.5 -79.3 -8.15 -80.5 -8.3 -81.2 -8.3 -81.25 Q-7.95 -85.05 -7.05 -88.45 -6.1 -91.9 -4.7 -94.3 -1.55 -92.4 1.0 -89.05 L1.15 -88.85 M-4.9 -66.35 L-2.5 -68.25 Q1.3 -71.05 6.0 -73.9 L5.95 -73.15 Q5.85 -70.35 5.2 -67.85 L-2.7 -62.6 3.1 -62.55 1.6 -60.3 -3.5 -60.0 -4.9 -66.35 M7.7 -74.9 L10.55 -76.55 11.95 -76.4 12.3 -75.85 12.4 -75.1 Q12.4 -73.4 7.35 -69.45 L7.7 -73.0 7.7 -74.9 M5.05 -62.35 Q5.85 -62.2 6.25 -61.8 5.55 -61.2 4.15 -60.8 L5.05 -62.35 M-0.8 -55.2 L13.5 -59.8 Q14.6 -59.8 15.05 -59.15 15.5 -58.45 15.5 -56.65 15.5 -53.2 11.3 -49.4 L4.65 -43.75 Q10.55 -41.5 15.0 -37.7 19.1 -34.2 19.1 -32.0 L18.9 -30.9 Q18.55 -30.3 17.45 -30.3 15.85 -30.3 3.35 -34.65 -9.2 -39.0 -11.15 -39.0 L-12.3 -38.8 -13.05 -38.75 -13.1 -41.8 Q-13.1 -47.1 -12.1 -49.3 L-10.95 -51.1 Q-5.35 -51.45 -0.8 -55.2 M3.35 -31.05 L6.85 -30.1 10.2 -29.0 Q17.85 -27.95 22.2 -25.15 25.25 -23.2 25.25 -21.95 13.8 -15.5 12.45 -15.5 10.95 -15.5 7.65 -18.55 L1.55 -24.15 1.45 -23.4 2.45 -17.2 2.4 -16.15 Q1.7 -15.2 -1.55 -15.2 -4.6 -15.2 -5.7 -17.45 -6.55 -19.15 -6.55 -23.15 -6.55 -23.4 -2.2 -27.15 2.35 -31.05 3.35 -31.05 M-8.55 -62.25 L-6.15 -60.05 Q-9.2 -60.4 -8.55 -62.25 M-10.2 -17.3 Q-11.7 -15.85 -13.75 -15.85 -15.8 -15.85 -17.25 -17.3 -18.75 -18.8 -18.75 -20.85 -18.75 -22.9 -17.25 -24.35 -15.8 -25.85 -13.75 -25.85 -11.7 -25.85 -10.2 -24.35 -8.75 -22.9 -8.75 -20.85 -8.75 -18.8 -10.2 -17.3" fill="#888b81" fill-rule="evenodd" stroke="none"/>
    <path d="M2.75 -124.75 L4.75 -127.45 5.65 -129.45 5.8 -129.3 6.9 -127.85 Q5.45 -125.65 3.9 -123.95 L2.75 -124.75 M8.95 -123.25 L5.6 -122.3 4.5 -123.45 Q6.65 -125.4 7.5 -126.8 L8.95 -123.25 M10.8 -86.8 Q13.0 -85.9 14.9 -85.8 L16.3 -85.9 18.1 -86.4 20.35 -81.35 Q20.9 -79.65 20.9 -76.7 20.9 -74.25 20.3 -72.4 L19.65 -70.85 Q19.65 -70.2 20.0 -70.05 L20.6 -69.95 22.4 -71.1 Q23.2 -66.5 25.95 -57.95 28.25 -50.8 28.25 -48.2 28.25 -47.8 24.5 -45.45 L25.25 -44.75 Q30.55 -44.95 32.85 -32.25 34.05 -25.9 34.15 -19.45 34.15 -13.5 30.7 -10.65 L27.05 -7.95 Q24.65 -6.1 22.85 -3.75 L14.9 -2.8 9.45 -2.4 -0.35 -2.8 -9.25 -3.7 Q-11.7 -6.35 -20.35 -9.5 -27.7 -12.15 -27.7 -14.3 -27.7 -18.6 -26.4 -23.55 L-24.6 -29.5 Q-23.75 -32.75 -22.25 -33.1 -20.95 -33.4 -20.95 -34.15 -20.95 -35.55 -21.55 -38.0 L-22.15 -40.35 Q-22.15 -41.75 -21.05 -46.95 L-19.65 -52.6 Q-17.7 -51.75 -15.55 -51.35 L-15.5 -51.35 -15.95 -45.6 -16.65 -35.65 -8.2 -33.4 Q-4.0 -32.1 -3.05 -30.9 L-3.75 -29.8 -8.0 -29.5 -13.5 -29.85 -19.3 -30.4 -20.05 -24.6 -21.25 -13.4 Q-13.45 -11.35 -12.35 -11.35 -11.8 -11.35 -11.0 -12.2 L-9.8 -13.55 Q-8.15 -13.15 -8.65 -11.3 -7.75 -9.65 1.1 -9.65 5.55 -9.65 5.85 -10.45 L5.95 -11.4 Q6.05 -12.1 6.8 -12.65 9.4 -12.0 9.25 -10.45 9.15 -9.15 11.4 -9.15 L17.8 -9.95 20.55 -9.8 Q22.45 -9.8 23.7 -10.6 27.45 -12.9 27.45 -22.7 27.45 -26.0 25.7 -26.65 22.6 -27.75 20.8 -30.0 21.55 -30.9 23.0 -31.55 25.25 -32.55 26.15 -33.1 24.4 -36.45 22.8 -37.6 L20.65 -38.95 Q20.95 -40.2 22.55 -41.3 24.05 -42.35 25.7 -42.6 L24.75 -42.95 18.95 -42.15 Q15.2 -42.15 13.7 -43.2 L12.5 -44.5 Q12.8 -45.25 16.65 -48.15 20.25 -50.9 20.25 -52.25 L19.0 -62.0 19.25 -63.8 19.75 -66.75 15.55 -65.3 12.6 -64.35 8.55 -64.8 Q8.65 -65.4 8.25 -65.6 13.2 -69.3 14.7 -72.9 15.4 -74.55 15.4 -77.05 12.05 -80.5 10.35 -80.5 9.45 -80.5 7.35 -78.7 L6.7 -81.75 10.8 -86.8 M-5.8 -122.4 L-5.5 -122.15 Q-4.95 -121.65 -4.15 -121.55 L-4.65 -120.0 Q-5.7 -120.15 -6.45 -120.9 L-5.8 -122.4 M-5.8 -70.55 L-5.0 -70.9 Q-4.45 -70.7 -4.45 -70.2 L-5.45 -68.95 -5.8 -70.55 M5.8 -77.3 Q3.65 -75.4 3.3 -75.4 2.65 -75.4 2.45 -75.7 L2.3 -76.35 5.3 -80.15 5.8 -77.3 M-4.9 -119.0 L-5.2 -118.05 Q-7.35 -110.35 -7.35 -105.1 -7.35 -104.35 -4.35 -103.65 L-1.4 -102.7 Q-1.4 -101.7 -1.65 -102.0 L-4.55 -101.6 -7.1 -101.2 Q-8.45 -100.6 -9.1 -98.15 L-11.95 -98.65 -11.3 -103.0 Q-9.45 -113.35 -6.9 -119.8 -6.05 -119.2 -4.9 -119.0 M-12.25 -96.65 L-12.1 -96.65 -9.45 -96.2 -9.75 -91.85 -10.05 -87.85 -11.75 -94.4 -13.2 -90.4 -12.25 -96.65 M-18.25 -62.5 L-12.85 -66.15 -10.55 -64.05 -10.7 -64.0 Q-11.5 -61.3 -13.0 -61.4 L-14.35 -62.0 Q-14.35 -60.95 -15.0 -59.9 L-11.65 -58.65 -8.1 -57.25 -8.4 -56.9 Q-9.05 -56.4 -11.1 -56.15 L-15.35 -55.4 -15.4 -53.35 -19.05 -54.45 -17.6 -57.85 -18.45 -61.95 -18.25 -62.5" fill="#6b6d65" fill-rule="evenodd" stroke="none"/>
    <path d="M3.9 -123.95 Q5.45 -125.65 6.9 -127.85 L5.8 -129.3 5.65 -129.45 Q6.0 -130.7 5.7 -131.7 L4.95 -133.25 6.05 -132.45 Q9.0 -129.85 11.2 -123.1 L8.95 -123.25 7.5 -126.8 Q6.65 -125.4 4.5 -123.45 L3.9 -122.9 1.2 -120.8 Q-0.85 -119.45 -2.7 -119.05 L-4.0 -118.95 -4.9 -119.0 Q-6.05 -119.2 -6.9 -119.8 -9.45 -113.35 -11.3 -103.0 L-11.95 -98.65 -12.05 -98.65 -15.05 -98.7 -13.95 -104.85 Q-11.75 -117.6 -8.65 -126.0 -7.65 -128.8 -6.35 -130.65 -7.25 -128.4 -7.0 -125.6 -6.8 -123.4 -5.8 -122.4 L-6.45 -120.9 Q-5.7 -120.15 -4.65 -120.0 L-4.05 -119.95 -3.55 -119.95 -3.45 -119.95 -2.85 -120.0 1.7 -121.95 3.9 -123.95 M18.1 -86.4 L19.7 -87.45 21.3 -88.55 Q26.7 -67.95 37.3 -29.75 41.6 -14.1 41.6 -10.55 41.6 -8.35 32.95 -5.95 27.65 -4.5 22.85 -3.75 24.65 -6.1 27.05 -7.95 L30.7 -10.65 Q34.15 -13.5 34.15 -19.45 34.05 -25.9 32.85 -32.25 30.55 -44.95 25.25 -44.75 L24.5 -45.45 Q28.25 -47.8 28.25 -48.2 28.25 -50.8 25.95 -57.95 23.2 -66.5 22.4 -71.1 L20.6 -69.95 20.0 -70.05 Q19.65 -70.2 19.65 -70.85 L20.3 -72.4 Q20.9 -74.25 20.9 -76.7 20.9 -79.65 20.35 -81.35 L18.1 -86.4 M-9.25 -3.7 Q-21.1 -4.3 -28.1 -7.35 -34.25 -10.0 -34.25 -13.25 -29.65 -28.85 -26.6 -43.3 -25.05 -48.15 -23.55 -54.85 -21.7 -53.45 -19.65 -52.6 L-21.05 -46.95 Q-22.15 -41.75 -22.15 -40.35 L-21.55 -38.0 Q-20.95 -35.55 -20.95 -34.15 -20.95 -33.4 -22.25 -33.1 -23.75 -32.75 -24.6 -29.5 L-26.4 -23.55 Q-27.7 -18.6 -27.7 -14.3 -27.7 -12.15 -20.35 -9.5 -11.7 -6.35 -9.25 -3.7 M-12.25 -96.65 L-13.2 -90.4 -16.5 -81.25 -18.4 -81.35 -15.45 -96.65 -12.25 -96.65 M-20.05 -73.05 L-19.4 -72.4 -21.3 -66.1 -20.4 -71.3 -20.05 -73.05 M-22.55 -59.6 L-18.25 -62.5 -18.45 -61.95 -17.6 -57.85 -19.05 -54.45 Q-21.2 -55.35 -23.1 -56.85 L-22.55 -59.6" fill="#575852" fill-rule="evenodd" stroke="none"/>
    <path d="M4.55 -130.45 L4.5 -131.4 Q4.1 -132.7 2.4 -133.5 -1.25 -135.25 -3.6 -132.6 -6.15 -129.8 -5.75 -125.7 -5.65 -124.4 -5.15 -123.65 L-4.75 -123.15 Q-4.3 -122.85 -3.65 -122.8 L-2.35 -122.95 Q-0.2 -123.6 1.6 -125.35 2.75 -126.5 3.7 -128.1 L3.65 -128.1 Q4.4 -129.4 4.55 -130.45 M5.65 -129.45 L4.75 -127.45 2.75 -124.75 1.05 -123.25 Q-0.4 -122.2 -2.0 -121.75 L-2.45 -121.65 -4.15 -121.55 Q-4.95 -121.65 -5.5 -122.15 L-5.8 -122.4 Q-6.8 -123.4 -7.0 -125.6 -7.25 -128.4 -6.35 -130.65 -7.65 -128.8 -8.65 -126.0 -11.75 -117.6 -13.95 -104.85 L-15.05 -98.7 -16.35 -98.55 -16.7 -97.15 Q-14.2 -108.85 -13.4 -113.3 -11.3 -124.85 -9.8 -128.55 -6.8 -135.85 -0.7 -135.85 4.6 -135.85 7.7 -132.5 10.8 -129.2 12.75 -124.0 14.7 -118.85 17.6 -107.85 20.45 -96.9 21.8 -90.35 27.7 -71.1 32.35 -52.75 L34.7 -43.3 37.5 -32.05 38.1 -29.5 43.65 -9.5 Q38.45 -5.45 29.55 -3.5 20.6 -1.5 7.75 -1.15 -4.9 -1.25 -17.2 -3.25 -32.3 -6.1 -35.3 -10.45 L-36.45 -11.7 -33.9 -21.55 -31.9 -29.35 Q-30.45 -34.75 -28.45 -43.3 L-28.4 -43.3 -26.3 -52.75 -25.5 -56.45 -23.55 -54.85 Q-25.05 -48.15 -26.6 -43.3 -29.65 -28.85 -34.25 -13.25 -34.25 -10.0 -28.1 -7.35 -21.1 -4.3 -9.25 -3.7 L-0.35 -2.8 9.45 -2.4 14.9 -2.8 22.85 -3.75 Q27.65 -4.5 32.95 -5.95 41.6 -8.35 41.6 -10.55 41.6 -14.1 37.3 -29.75 26.7 -67.95 21.3 -88.55 L19.7 -87.45 18.1 -86.4 16.3 -85.9 14.9 -85.8 Q13.0 -85.9 10.8 -86.8 9.75 -86.95 6.75 -89.85 3.7 -92.8 3.5 -93.95 2.2 -96.45 1.05 -99.25 0.1 -102.55 -0.4 -105.6 -1.35 -112.8 2.2 -119.2 L2.9 -120.15 5.6 -122.3 8.95 -123.25 11.2 -123.1 Q9.0 -129.85 6.05 -132.45 L4.95 -133.25 5.7 -131.7 Q6.0 -130.7 5.65 -129.45 M7.7 -121.5 L6.4 -121.0 Q4.8 -120.2 3.65 -118.6 2.5 -117.05 1.8 -114.7 0.45 -110.5 1.1 -105.6 1.35 -103.75 1.9 -101.75 L2.55 -99.5 Q3.3 -97.45 4.25 -95.65 5.9 -92.6 8.25 -90.4 L11.25 -88.25 Q12.9 -87.45 14.5 -87.35 L16.8 -87.55 Q19.25 -88.25 20.85 -90.35 L16.9 -104.8 11.8 -121.4 9.45 -121.75 7.7 -121.5 M-15.45 -96.65 L-18.4 -81.35 -20.05 -81.45 -16.8 -96.45 -15.45 -96.65 M-20.05 -73.05 L-20.4 -71.3 -21.3 -66.1 -23.45 -59.0 -22.55 -59.6 -23.1 -56.85 -25.05 -58.55 -21.55 -74.55 -20.05 -73.05" fill="#2e2e2c" fill-rule="evenodd" stroke="none"/>
    <path d="M2.0 -90.65 L2.25 -90.35 Q5.3 -86.35 6.7 -81.75 L5.6 -80.5 5.3 -80.15 4.25 -83.4 5.0 -84.65 Q5.0 -87.35 3.45 -87.5 L2.2 -87.35 1.15 -88.85 1.25 -89.0 2.0 -90.65 M-8.3 -81.25 L-8.3 -81.2 -8.6 -76.25 -8.6 -76.05 -8.6 -75.7 -8.45 -73.55 Q-8.2 -72.35 -7.4 -72.35 L-7.3 -72.35 -7.2 -72.35 -7.1 -72.35 -7.05 -72.35 Q-5.15 -72.5 -2.85 -74.4 L-2.55 -74.65 -2.45 -74.7 Q-0.6 -76.4 1.5 -79.3 L4.3 -78.95 -5.95 -71.15 -5.8 -70.55 -7.45 -69.9 -10.1 -68.95 Q-10.3 -70.75 -11.0 -73.4 L-11.65 -76.8 -10.7 -82.9 -10.6 -83.55 -10.05 -87.85 -8.3 -81.25 M-5.45 -68.95 L-4.9 -66.35 Q-7.0 -64.65 -7.9 -63.35 L-8.55 -62.25 -10.55 -64.05 Q-9.05 -65.25 -6.8 -67.55 L-5.45 -68.95 M6.0 -73.9 L5.8 -77.3 6.5 -77.95 7.35 -78.7 7.7 -74.9 6.0 -73.9 M-15.5 -51.35 L-15.55 -51.35 -15.45 -52.45 -15.4 -53.35 -13.8 -53.15 Q-6.0 -52.45 -0.2 -58.3 L1.6 -60.3 4.15 -60.8 Q2.8 -58.65 0.95 -56.8 L-0.8 -55.2 -4.5 -54.1 Q-8.85 -53.5 -10.95 -51.1 L-13.9 -51.15 -15.5 -51.35 M7.35 -69.45 Q6.7 -65.65 5.05 -62.35 L3.75 -62.55 3.1 -62.55 Q4.5 -65.05 5.2 -67.85 L7.35 -69.45 M-9.1 -98.15 Q-6.2 -97.45 -3.7 -95.85 L-4.7 -94.3 Q-6.95 -95.6 -9.45 -96.2 L-9.1 -98.15 M-6.15 -60.05 L-4.65 -60.0 -3.5 -60.0 -2.85 -57.05 -6.15 -60.05" fill="#43433e" fill-rule="evenodd" stroke="none"/>
    <path d="M2.0 -90.65 L1.25 -89.0 1.15 -88.85 1.0 -89.05 Q-1.55 -92.4 -4.7 -94.3 L-3.7 -95.85 Q-0.6 -93.9 2.0 -90.65 M2.2 -87.35 L3.45 -87.5 Q5.0 -87.35 5.0 -84.65 L4.25 -83.4 2.2 -87.35 M-8.3 -81.2 L-8.15 -80.5 1.5 -79.3 Q-0.6 -76.4 -2.45 -74.7 L-2.55 -74.65 -2.85 -74.4 Q-5.15 -72.5 -7.05 -72.35 L-7.1 -72.35 -7.2 -72.35 -7.3 -72.35 -7.4 -72.35 Q-8.2 -72.35 -8.45 -73.55 L-8.6 -75.7 -8.6 -76.05 -8.6 -76.25 -8.3 -81.2 M7.7 -74.9 L7.7 -73.0 7.35 -69.45 5.2 -67.85 Q5.85 -70.35 5.95 -73.15 L6.0 -73.9 7.7 -74.9 M3.1 -62.55 L3.75 -62.55 5.05 -62.35 4.15 -60.8 1.6 -60.3 3.1 -62.55 M-8.55 -62.25 L-7.9 -63.35 Q-7.0 -64.65 -4.9 -66.35 L-3.5 -60.0 -4.65 -60.0 -6.15 -60.05 -8.55 -62.25 M-10.95 -51.1 Q-8.85 -53.5 -4.5 -54.1 L-0.8 -55.2 Q-5.35 -51.45 -10.95 -51.1" fill="#51514b" fill-rule="evenodd" stroke="none"/>
    <path d="M5.3 -80.15 L5.6 -80.5 6.7 -81.75 7.35 -78.7 6.5 -77.95 5.8 -77.3 5.3 -80.15 M-15.55 -51.35 Q-17.7 -51.75 -19.65 -52.6 L-19.05 -54.45 -15.4 -53.35 -15.45 -52.45 -15.55 -51.35 M-11.95 -98.65 L-9.1 -98.15 -9.45 -96.2 -12.1 -96.65 -12.25 -96.65 -11.95 -98.65 M-13.2 -90.4 L-11.75 -94.4 -10.05 -87.85 -10.6 -83.55 -10.7 -82.9 -11.65 -76.8 -11.0 -73.4 Q-10.3 -70.75 -10.1 -68.95 L-7.45 -69.9 -5.8 -70.55 -5.45 -68.95 -6.8 -67.55 Q-9.05 -65.25 -10.55 -64.05 L-12.85 -66.15 -18.25 -62.5 -17.8 -63.95 -14.7 -80.2 -13.2 -90.4" fill="#3c3c38" fill-rule="evenodd" stroke="none"/>
    <path d="M-15.05 -98.7 L-12.05 -98.65 -11.95 -98.65 -12.25 -96.65 -15.45 -96.65 -15.05 -98.7 M-18.4 -81.35 L-16.5 -81.25 -13.2 -90.4 -14.7 -80.2 -17.8 -63.95 -18.25 -62.5 -22.55 -59.6 -21.75 -63.65 -21.3 -66.1 -19.4 -72.4 -20.05 -73.05 -18.4 -81.35 M-23.55 -54.85 L-23.1 -56.85 Q-21.2 -55.35 -19.05 -54.45 L-19.65 -52.6 Q-21.7 -53.45 -23.55 -54.85" fill="#31312d" fill-rule="evenodd" stroke="none"/>
    <path d="M-23.55 -54.85 L-25.5 -56.45 -25.05 -58.55 -23.1 -56.85 -23.55 -54.85 M-16.7 -97.15 L-16.35 -98.55 -15.05 -98.7 -15.45 -96.65 -16.8 -96.45 -16.8 -96.65 -16.7 -97.15 M-20.05 -81.45 L-18.4 -81.35 -20.05 -73.05 -21.55 -74.55 -21.2 -76.15 -20.05 -81.45 M-21.3 -66.1 L-21.75 -63.65 -22.55 -59.6 -23.45 -59.0 -21.3 -66.1" fill="#1e1e1c" fill-rule="evenodd" stroke="none"/>
  </g>
</svg>
