<?xml version="1.0" encoding="UTF-8" standalone="no"?>
<svg xmlns:ffdec="https://www.free-decompiler.com/flash" xmlns:xlink="http://www.w3.org/1999/xlink" ffdec:objectType="shape" height="74.3px" width="74.2px" xmlns="http://www.w3.org/2000/svg">
  <g transform="matrix(1.0, 0.0, 0.0, 1.0, 33.75, 65.25)">
    <path d="M-1.05 6.8 L3.95 7.0 Q19.2 7.0 29.2 -4.6 38.2 -15.05 38.2 -28.15 38.2 -41.45 29.2 -51.75 19.1 -63.35 3.05 -63.35 -2.3 -63.35 -7.9 -61.8 -16.35 -59.45 -20.55 -54.35 L-20.5 -54.35 Q-23.7 -51.65 -26.55 -47.35 -32.15 -38.75 -32.15 -28.2 -32.15 -18.5 -27.5 -10.9 -22.9 -3.35 -13.1 3.15 -8.8 5.2 -1.05 6.8 M-33.75 -28.1 Q-33.75 -43.5 -22.85 -54.35 -12.0 -65.25 3.35 -65.25 18.7 -65.25 29.6 -54.35 40.45 -43.5 40.45 -28.1 40.45 -12.7 29.6 -1.8 18.7 9.05 3.35 9.05 -12.0 9.05 -22.85 -1.8 -33.75 -12.7 -33.75 -28.1" fill="#654425" fill-rule="evenodd" stroke="none"/>
    <path d="M-20.5 -54.35 L-20.55 -54.35 Q-16.35 -59.45 -7.9 -61.8 -2.3 -63.35 3.05 -63.35 19.1 -63.35 29.2 -51.75 38.2 -41.45 38.2 -28.15 38.2 -15.05 29.2 -4.6 19.2 7.0 3.95 7.0 L-1.05 6.8 Q16.75 2.45 24.85 -6.65 32.0 -14.7 32.0 -26.9 32.0 -37.0 25.7 -46.4 16.65 -59.9 -1.0 -59.9 -5.8 -59.9 -12.25 -57.8 -17.15 -56.2 -20.5 -54.35" fill="#e79d5a" fill-rule="evenodd" stroke="none"/>
    <path d="M-20.5 -54.35 Q-17.15 -56.2 -12.25 -57.8 -5.8 -59.9 -1.0 -59.9 16.65 -59.9 25.7 -46.4 32.0 -37.0 32.0 -26.9 32.0 -14.7 24.85 -6.65 16.75 2.45 -1.05 6.8 -8.8 5.2 -13.1 3.15 L-9.5 3.6 -6.35 3.8 Q7.85 3.8 16.7 -6.15 24.6 -15.0 24.6 -26.55 24.6 -39.1 15.55 -48.0 6.45 -56.9 -6.35 -56.9 L-20.5 -54.35" fill="#f0a866" fill-rule="evenodd" stroke="none"/>
    <path d="M-13.1 3.15 Q-22.9 -3.35 -27.5 -10.9 -32.15 -18.5 -32.15 -28.2 -32.15 -38.75 -26.55 -47.35 -23.7 -51.65 -20.5 -54.35 L-6.35 -56.9 Q6.45 -56.9 15.55 -48.0 24.6 -39.1 24.6 -26.55 24.6 -15.0 16.7 -6.15 7.85 3.8 -6.35 3.8 L-9.5 3.6 -13.1 3.15" fill="#f8b674" fill-rule="evenodd" stroke="none"/>
  </g>
</svg>
