<?xml version="1.0" encoding="UTF-8" standalone="no"?>
<svg xmlns:ffdec="https://www.free-decompiler.com/flash" xmlns:xlink="http://www.w3.org/1999/xlink" ffdec:objectType="shape" height="83.05px" width="84.95px" xmlns="http://www.w3.org/2000/svg">
  <g transform="matrix(1.0, 0.0, 0.0, 1.0, 38.6, 57.25)">
    <path d="M-30.7 6.35 L-26.85 11.45 -36.1 15.55 Q-33.7 13.25 -32.05 10.0 -31.0 7.8 -30.7 6.35" fill="#8f5b21" fill-rule="evenodd" stroke="none"/>
    <path d="M23.65 -12.4 Q27.45 -6.85 27.45 -2.1 27.45 -0.55 24.5 3.8 L19.1 10.75 Q16.05 4.9 16.05 -10.9 L16.3 -22.6 16.4 -22.6 Q18.7 -18.8 23.65 -12.4 M-34.45 -22.25 Q-32.0 -26.9 -30.35 -28.55 -28.5 -30.4 -25.9 -30.4 -24.95 -30.4 -22.35 -29.1 -19.8 -27.85 -18.35 -27.85 L-15.3 -28.25 -12.3 -28.7 Q-6.7 -28.7 -3.4 -24.1 -1.2 -20.95 1.3 -12.85 4.4 -2.75 6.15 1.1 9.8 9.15 15.45 13.95 12.7 17.05 4.85 19.45 -3.8 22.05 -10.55 20.95 -24.6 14.5 -30.7 2.65 -35.0 -5.7 -35.0 -15.7 L-34.45 -22.25 M-26.6 -19.85 Q-29.1 -19.85 -30.85 -17.35 -32.6 -14.85 -32.6 -11.35 -32.6 -7.85 -30.85 -5.35 -29.1 -2.85 -26.6 -2.85 -24.1 -2.85 -22.35 -5.35 -20.6 -7.85 -20.6 -11.35 -20.6 -14.85 -22.35 -17.35 -24.1 -19.85 -26.6 -19.85 M-15.45 -18.35 Q-17.35 -15.85 -17.35 -12.35 -17.35 -8.85 -15.45 -6.35 -13.55 -3.85 -10.85 -3.85 -8.15 -3.85 -6.25 -6.35 -4.35 -8.85 -4.35 -12.35 -4.35 -15.85 -6.25 -18.35 -8.15 -20.85 -10.85 -20.85 -13.55 -20.85 -15.45 -18.35" fill="#ffcc99" fill-rule="evenodd" stroke="none"/>
    <path d="M23.65 -12.4 Q18.7 -18.8 16.4 -22.6 L16.3 -22.6 16.05 -10.9 Q16.05 4.9 19.1 10.75 L24.5 3.8 Q27.45 -0.55 27.45 -2.1 27.45 -6.85 23.65 -12.4 M-16.6 -48.85 Q-13.55 -50.35 -9.35 -51.25 -4.55 -52.25 -0.1 -52.25 12.85 -52.25 23.95 -43.7 37.9 -33.0 37.9 -14.2 37.9 1.8 26.85 12.65 16.35 22.9 1.25 23.7 -1.45 23.65 -5.5 22.6 L-10.55 20.95 Q-3.8 22.05 4.85 19.45 12.7 17.05 15.45 13.95 9.8 9.15 6.15 1.1 4.4 -2.75 1.3 -12.85 -1.2 -20.95 -3.4 -24.1 -6.7 -28.7 -12.3 -28.7 L-15.3 -28.25 -18.35 -27.85 Q-19.8 -27.85 -22.35 -29.1 -24.95 -30.4 -25.9 -30.4 -28.5 -30.4 -30.35 -28.55 -32.0 -26.9 -34.45 -22.25 -34.55 -29.0 -28.0 -37.85 -24.15 -43.05 -20.4 -46.4 -18.7 -47.7 -16.6 -48.85 M-26.6 -19.85 Q-24.1 -19.85 -22.35 -17.35 -20.6 -14.85 -20.6 -11.35 -20.6 -7.85 -22.35 -5.35 -24.1 -2.85 -26.6 -2.85 -29.1 -2.85 -30.85 -5.35 -32.6 -7.85 -32.6 -11.35 -32.6 -14.85 -30.85 -17.35 -29.1 -19.85 -26.6 -19.85 M-15.45 -18.35 Q-13.55 -20.85 -10.85 -20.85 -8.15 -20.85 -6.25 -18.35 -4.35 -15.85 -4.35 -12.35 -4.35 -8.85 -6.25 -6.35 -8.15 -3.85 -10.85 -3.85 -13.55 -3.85 -15.45 -6.35 -17.35 -8.85 -17.35 -12.35 -17.35 -15.85 -15.45 -18.35" fill="#f1ba87" fill-rule="evenodd" stroke="none"/>
    <path d="M1.25 23.7 Q16.35 22.9 26.85 12.65 37.9 1.8 37.9 -14.2 37.9 -33.0 23.95 -43.7 12.85 -52.25 -0.1 -52.25 -4.55 -52.25 -9.35 -51.25 -13.55 -50.35 -16.6 -48.85 -13.65 -50.55 -9.95 -52.0 -2.0 -55.25 4.55 -55.25 25.65 -55.25 36.45 -39.15 44.05 -27.85 44.05 -15.7 44.05 1.2 32.2 12.95 19.6 25.35 1.25 23.7" fill="#db9c64" fill-rule="evenodd" stroke="none"/>
    <path d="M-25.4 13.0 Q-29.3 14.5 -33.5 15.65 -37.5 16.8 -38.6 16.7 -34.8 12.85 -33.6 9.9 -32.45 7.15 -32.7 2.9 L-30.7 6.35 Q-31.0 7.8 -32.05 10.0 -33.7 13.25 -36.1 15.55 L-26.85 11.45 -25.4 13.0" fill="#4e2e16" fill-rule="evenodd" stroke="none"/>
    <path d="M-16.6 -48.85 Q-18.7 -47.7 -20.4 -46.4 -24.15 -43.05 -28.0 -37.85 -34.55 -29.0 -34.45 -22.25 L-35.0 -15.7 Q-35.0 -5.7 -30.7 2.65 -24.6 14.5 -10.55 20.95 L-5.5 22.6 Q-1.45 23.65 1.25 23.7 19.6 25.35 32.2 12.95 44.05 1.2 44.05 -15.7 44.05 -27.85 36.45 -39.15 25.65 -55.25 4.55 -55.25 -2.0 -55.25 -9.95 -52.0 -13.65 -50.55 -16.6 -48.85 M-32.7 2.9 Q-34.1 -0.15 -35.35 -4.8 -37.0 -11.0 -37.0 -15.7 -37.0 -21.65 -35.2 -28.0 -32.9 -36.25 -28.4 -41.1 -26.35 -47.15 -16.05 -52.2 -5.8 -57.25 4.55 -57.25 21.95 -57.25 33.95 -45.0 46.35 -32.4 46.35 -13.25 46.35 3.75 32.55 15.35 20.15 25.8 5.6 25.8 -5.7 25.8 -13.05 21.8 -17.45 19.4 -25.4 13.0 L-26.85 11.45 -30.7 6.35 -32.7 2.9" fill="#6c3d28" fill-rule="evenodd" stroke="none"/>
  </g>
</svg>
