<?xml version="1.0" encoding="UTF-8" standalone="no"?>
<svg xmlns:ffdec="https://www.free-decompiler.com/flash" xmlns:xlink="http://www.w3.org/1999/xlink" ffdec:objectType="shape" height="52.95px" width="39.5px" xmlns="http://www.w3.org/2000/svg">
  <g transform="matrix(1.0, 0.0, 0.0, 1.0, 19.2, 25.75)">
    <path d="M-1.95 5.15 Q-2.85 4.65 -3.0 3.7 -3.0 2.35 -3.15 1.3 L-6.65 27.2 Q-8.15 22.0 -6.95 14.9 -6.15 9.95 -10.2 4.7 L-14.3 13.25 -19.2 13.25 Q-16.15 4.95 -14.25 0.85 -11.0 -6.3 -6.35 -10.2 L-9.2 -15.8 -12.4 -22.3 Q-12.35 -22.9 -7.0 -24.6 L-1.55 -25.75 Q0.6 -25.75 2.25 -24.1 4.6 -21.75 4.2 -16.95 L7.8 -17.1 Q9.5 -16.8 12.0 -15.2 L13.75 -13.65 20.1 -1.75 20.3 0.2 Q20.3 4.45 17.6 8.05 14.6 12.1 9.95 12.1 L8.05 11.95 7.1 25.4 4.25 4.85 Q4.2 1.95 4.4 1.1 L5.0 -0.15 2.45 -13.05 Q2.1 -16.55 2.55 -20.95 2.55 -21.6 1.45 -22.35 L0.05 -23.2 -1.7 -23.4 Q-3.1 -23.4 -10.1 -21.55 L-4.7 -11.65 Q-1.95 4.15 -1.95 5.15 M11.8 -7.2 L11.65 -7.25 10.9 -5.4 11.8 -7.2 M10.1 -3.95 L7.5 -0.15 7.4 -0.05 Q8.0 0.05 10.1 -3.95 M17.5 -1.1 L14.25 -8.55 Q13.1 -4.45 11.7 -2.0 L9.6 1.25 12.15 10.25 Q15.65 9.2 17.2 5.45 18.0 3.55 18.05 1.8 18.05 0.4 17.5 -1.1 M6.6 2.05 L8.85 10.05 10.1 10.35 7.75 2.05 6.6 2.05 M-16.15 11.25 Q-15.55 11.25 -10.7 1.1 L-6.1 6.25 -9.95 -0.1 Q-11.2 -0.1 -16.15 11.25" fill="#16424b" fill-rule="evenodd" stroke="none"/>
    <path d="M17.5 -1.1 Q18.05 0.4 18.05 1.8 18.0 3.55 17.2 5.45 15.65 9.2 12.15 10.25 L9.6 1.25 11.7 -2.0 Q13.1 -4.45 14.25 -8.55 L17.5 -1.1" fill="#8eaea0" fill-rule="evenodd" stroke="none"/>
    <path d="M-4.7 -11.65 L-10.1 -21.55 Q-3.1 -23.4 -1.7 -23.4 L0.05 -23.2 1.45 -22.35 Q2.55 -21.6 2.55 -20.95 2.1 -16.55 2.45 -13.05 L-4.7 -11.65" fill="#db9c64" fill-rule="evenodd" stroke="none"/>
    <path d="M-1.95 5.15 Q-1.95 4.15 -4.7 -11.65 L2.45 -13.05 5.0 -0.15 4.4 1.1 Q4.2 1.95 4.25 4.85 2.25 5.8 0.9 5.8 -0.6 5.8 -1.05 5.15 L-1.15 5.4 -1.15 5.7 -1.3 5.5 -1.95 5.15" fill="#f1ba87" fill-rule="evenodd" stroke="none"/>
    <path d="M10.1 -3.95 Q8.0 0.05 7.4 -0.05 L7.5 -0.15 10.1 -3.95 M11.8 -7.2 L10.9 -5.4 11.65 -7.25 11.8 -7.2 M6.6 2.05 L7.75 2.05 10.1 10.35 8.85 10.05 6.6 2.05 M-16.15 11.25 Q-11.2 -0.1 -9.95 -0.1 L-6.1 6.25 -10.7 1.1 Q-15.55 11.25 -16.15 11.25" fill="#aec6bb" fill-rule="evenodd" stroke="none"/>
  </g>
</svg>
