<?xml version="1.0" encoding="UTF-8" standalone="no"?>
<svg xmlns:ffdec="https://www.free-decompiler.com/flash" xmlns:xlink="http://www.w3.org/1999/xlink" ffdec:objectType="shape" height="77.95px" width="64.0px" xmlns="http://www.w3.org/2000/svg">
  <g transform="matrix(1.0, 0.0, 0.0, 1.0, 32.9, 33.25)">
    <path d="M21.7 -18.35 L21.75 -18.35 Q31.1 -9.0 31.1 4.2 L31.1 8.0 31.1 12.7 Q31.1 25.9 21.75 35.3 L21.7 35.3 Q17.4 39.6 12.3 41.95 6.25 44.7 -0.9 44.7 -8.05 44.7 -14.05 41.95 -19.2 39.6 -23.5 35.3 -30.8 28.05 -32.45 18.45 -32.9 15.65 -32.9 12.7 L-32.85 9.85 -32.9 4.2 Q-32.9 1.25 -32.45 -1.45 -30.8 -11.1 -23.5 -18.35 -14.1 -27.75 -0.9 -27.75 12.3 -27.75 21.7 -18.35" fill="#000000" fill-opacity="0.16078432" fill-rule="evenodd" stroke="none"/>
    <path d="M21.75 -23.85 Q31.1 -14.5 31.1 -1.3 L31.1 2.5 31.1 7.2 Q31.1 20.4 21.75 29.8 L21.7 29.8 Q17.4 34.1 12.3 36.45 6.25 39.2 -0.9 39.2 -8.05 39.2 -14.05 36.45 -19.2 34.1 -23.5 29.8 -30.8 22.55 -32.45 12.95 -32.9 10.15 -32.9 7.2 L-32.85 4.35 -32.9 -1.3 Q-32.9 -4.25 -32.45 -6.95 -30.8 -16.6 -23.5 -23.85 -14.1 -33.25 -0.9 -33.25 12.3 -33.25 21.7 -23.85 L21.75 -23.85 M20.35 -22.55 Q11.55 -31.4 -0.9 -31.4 -13.35 -31.4 -22.15 -22.55 -31.0 -13.75 -31.0 -1.3 L-31.0 3.2 -31.0 7.2 Q-31.0 19.65 -22.15 28.45 -16.1 34.55 -8.25 36.45 L-0.9 37.3 6.5 36.45 Q14.3 34.55 20.35 28.45 29.2 19.65 29.2 7.2 L29.2 2.95 29.2 -1.3 Q29.2 -13.75 20.35 -22.55 M-28.7 1.1 L-28.7 1.25 -28.75 0.65 -28.7 0.95 -28.7 1.1" fill="#978800" fill-rule="evenodd" stroke="none"/>
    <path d="M10.8 -15.1 L10.15 -14.2 10.3 -13.15 11.15 -12.5 Q11.75 -12.35 11.9 -12.9 11.9 -13.55 12.05 -13.8 L11.95 -14.8 Q11.05 -15.45 10.8 -15.1 M9.75 -10.0 Q6.15 -11.05 4.1 -15.7 L6.05 -22.35 Q8.45 -21.7 11.55 -18.6 L14.7 -15.05 Q15.5 -14.9 16.3 -12.15 16.6 -10.95 17.25 -10.35 L15.5 -9.85 14.65 -9.65 10.45 -9.8 Q10.05 -9.8 9.75 -10.0 M2.5 -21.4 L2.5 -21.3 Q2.1 -22.55 2.0 -23.95 L3.2 -23.35 2.5 -21.4 M20.75 -6.1 L21.1 -3.95 Q21.0 -2.95 21.2 0.9 21.1 4.6 19.75 8.05 18.45 11.6 15.9 15.05 L14.65 16.8 Q11.95 16.4 8.05 17.85 L4.4 19.75 Q4.1 17.4 4.4 11.45 L5.1 7.45 5.15 6.95 Q4.9 1.9 5.0 1.05 5.15 -1.75 11.5 -4.35 16.3 -6.15 20.75 -6.1 M14.3 10.45 L14.2 7.8 Q13.65 5.1 10.8 7.35 L6.75 11.6 Q6.65 15.4 9.9 16.0 11.0 16.2 12.75 13.85 14.2 11.75 14.3 10.45 M0.25 2.75 L0.3 3.5 Q0.7 5.0 0.75 7.3 L0.65 13.5 Q0.25 19.05 -1.7 22.5 L-5.35 21.3 -10.9 21.2 Q-11.55 21.05 -11.7 20.35 -11.9 19.2 -13.0 18.7 L-17.2 17.15 Q-19.45 16.3 -20.2 14.4 L-20.3 14.15 -20.3 14.05 -20.5 13.6 -21.3 11.2 -23.9 6.0 Q-24.3 4.25 -24.2 2.45 -24.0 -0.65 -22.8 -3.7 L-22.45 -4.45 -22.3 -3.9 -16.35 -4.85 -14.1 -4.85 -6.85 -4.85 Q-2.9 -4.25 -0.95 -0.55 L-3.85 -0.05 Q-7.85 1.85 -8.5 6.9 L-8.65 8.15 -8.55 10.25 Q-8.15 12.55 -7.0 12.8 -4.55 13.1 -2.15 11.2 0.0 9.25 0.2 7.3 L0.2 7.2 0.1 5.45 -0.2 3.6 0.15 2.85 0.25 2.75 M18.15 2.3 Q17.6 0.2 16.9 0.05 14.3 -0.45 14.15 2.6 L14.35 4.05 Q14.75 5.15 15.5 5.3 16.8 5.55 17.45 4.5 18.1 3.5 18.15 2.3 M-7.15 -22.55 L-5.9 -23.1 -4.85 -22.35 Q-2.85 -20.5 -2.55 -17.85 L-2.85 -18.1 -7.85 -14.9 Q-9.5 -13.9 -14.0 -12.85 L-18.1 -12.2 Q-19.7 -12.45 -20.0 -12.9 -18.7 -15.6 -14.05 -18.5 -14.1 -17.1 -13.65 -16.45 -13.0 -15.35 -10.65 -14.9 -9.2 -14.6 -8.25 -15.8 -7.3 -17.0 -7.25 -18.75 L-8.6 -21.7 Q-7.9 -22.05 -7.15 -22.55 M-5.3 -19.75 L-6.1 -18.6 -6.8 -17.35 Q-6.25 -17.6 -5.75 -18.65 L-5.3 -19.75 M-18.6 6.55 L-18.75 7.5 Q-19.0 12.15 -16.7 12.45 -15.0 12.8 -13.45 9.75 -12.6 7.9 -12.25 6.75 L-12.2 6.05 Q-11.9 0.7 -15.2 2.0 -18.1 3.2 -18.6 6.55" fill="#fffbd2" fill-rule="evenodd" stroke="none"/>
    <path d="M10.8 -15.1 Q11.05 -15.45 11.95 -14.8 L12.05 -13.8 Q11.9 -13.55 11.9 -12.9 11.75 -12.35 11.15 -12.5 L10.3 -13.15 10.15 -14.2 10.8 -15.1 M14.65 -9.65 L15.5 -9.85 17.25 -10.35 Q16.6 -10.95 16.3 -12.15 15.5 -14.9 14.7 -15.05 L11.55 -18.6 Q8.45 -21.7 6.05 -22.35 L4.1 -15.7 Q6.15 -11.05 9.75 -10.0 L7.45 -9.95 6.0 -11.05 Q6.1 -12.7 4.0 -14.1 2.85 -14.95 2.3 -14.8 1.15 -19.75 -0.3 -21.15 L-0.55 -20.25 0.3 -14.5 -0.65 -13.35 Q-1.35 -12.35 -3.55 -11.4 -5.45 -10.8 -5.45 -10.05 L-5.4 -9.3 -16.85 -8.3 -19.15 -8.05 -18.7 -7.8 -18.75 -7.6 -18.3 -6.75 -16.35 -6.5 -10.4 -7.05 -2.7 -7.35 -4.4 -7.25 -3.85 -6.8 Q-2.55 -6.1 -1.75 -4.65 L-0.55 -2.85 Q0.75 -0.95 1.8 -0.65 L1.8 -0.55 Q2.35 4.3 2.2 6.45 L2.1 7.35 1.55 11.7 Q1.35 14.9 2.6 17.35 3.5 15.9 4.2 7.45 L4.2 7.25 Q4.35 4.25 4.1 -0.55 L4.55 -1.65 4.75 -2.75 Q4.9 -3.35 5.8 -4.3 L6.65 -5.15 Q6.7 -6.0 7.1 -6.6 L6.7 -6.8 8.6 -6.75 Q15.6 -5.4 15.75 -8.3 15.8 -9.45 14.7 -9.65 L14.65 -9.65 M2.5 -21.4 L3.2 -23.35 2.0 -23.95 Q2.1 -22.55 2.5 -21.3 L2.5 -21.4 M3.15 -9.75 L3.15 -9.95 3.2 -9.75 3.15 -9.75 M20.75 -6.1 Q16.3 -6.15 11.5 -4.35 5.15 -1.75 5.0 1.05 4.9 1.9 5.15 6.95 L5.1 7.45 4.4 11.45 Q4.1 17.4 4.4 19.75 L8.05 17.85 Q11.95 16.4 14.65 16.8 L15.9 15.05 Q18.45 11.6 19.75 8.05 21.1 4.6 21.2 0.9 21.0 -2.95 21.1 -3.95 L20.75 -6.1 M26.5 -1.3 L26.2 2.95 Q24.95 11.65 18.5 18.1 10.5 26.1 -0.9 26.1 -12.25 26.1 -20.3 18.1 -26.75 11.65 -28.0 2.95 L-28.3 -1.3 Q-28.3 -3.95 -27.8 -6.4 -26.4 -14.55 -20.3 -20.65 -12.25 -28.65 -0.9 -28.65 10.5 -28.65 18.5 -20.65 24.6 -14.55 26.05 -6.4 26.5 -3.95 26.5 -1.3 M18.7 26.4 L18.5 26.6 18.1 26.95 12.5 31.2 11.85 31.55 11.85 31.0 11.85 26.1 12.4 25.8 13.45 25.3 13.9 25.0 14.7 24.55 18.45 21.8 18.7 21.6 18.7 26.4 M3.6 34.25 L-0.9 34.55 -1.2 34.55 -2.2 34.55 -3.2 34.5 -3.2 34.05 -3.45 28.75 -0.9 28.85 4.15 28.45 3.6 34.15 3.6 34.25 M-10.45 32.95 Q-14.1 31.6 -17.3 29.15 L-17.3 28.05 -17.4 23.95 Q-14.45 25.95 -11.05 27.2 L-10.65 27.35 -10.5 27.4 -10.5 27.95 -10.45 32.95 M14.3 10.45 Q14.2 11.75 12.75 13.85 11.0 16.2 9.9 16.0 6.65 15.4 6.75 11.6 L10.8 7.35 Q13.65 5.1 14.2 7.8 L14.3 10.45 M12.05 11.55 Q12.15 9.55 10.9 9.45 9.55 9.25 9.45 11.6 L9.55 12.75 10.5 13.1 Q11.95 12.5 12.05 11.55 M18.15 2.3 Q18.1 3.5 17.45 4.5 16.8 5.55 15.5 5.3 14.75 5.15 14.35 4.05 L14.15 2.6 Q14.3 -0.45 16.9 0.05 17.6 0.2 18.15 2.3 M0.25 2.75 L0.15 2.85 -0.2 3.6 0.1 5.45 0.2 7.2 0.2 7.3 Q0.0 9.25 -2.15 11.2 -4.55 13.1 -7.0 12.8 -8.15 12.55 -8.55 10.25 L-8.65 8.15 -8.5 6.9 Q-7.85 1.85 -3.85 -0.05 L-0.95 -0.55 Q-2.9 -4.25 -6.85 -4.85 L-14.1 -4.85 -16.35 -4.85 -22.3 -3.9 -22.45 -4.45 -22.8 -3.7 Q-24.0 -0.65 -24.2 2.45 -24.3 4.25 -23.9 6.0 L-21.3 11.2 -20.5 13.6 -20.3 14.05 -20.3 14.15 -20.2 14.4 Q-19.45 16.3 -17.2 17.15 L-13.0 18.7 Q-11.9 19.2 -11.7 20.35 -11.55 21.05 -10.9 21.2 L-5.35 21.3 -1.7 22.5 Q0.25 19.05 0.65 13.5 L0.75 7.3 Q0.7 5.0 0.3 3.5 L0.25 2.75 M-5.3 -19.75 L-5.75 -18.65 Q-6.25 -17.6 -6.8 -17.35 L-6.1 -18.6 -5.3 -19.75 M-7.15 -22.55 Q-7.9 -22.05 -8.6 -21.7 L-7.25 -18.75 Q-7.3 -17.0 -8.25 -15.8 -9.2 -14.6 -10.65 -14.9 -13.0 -15.35 -13.65 -16.45 -14.1 -17.1 -14.05 -18.5 -18.7 -15.6 -20.0 -12.9 -19.7 -12.45 -18.1 -12.2 L-14.0 -12.85 Q-9.5 -13.9 -7.85 -14.9 L-2.85 -18.1 -2.55 -17.85 Q-2.85 -20.5 -4.85 -22.35 L-5.9 -23.1 -7.15 -22.55 M-1.4 3.95 Q-1.3 1.0 -4.0 1.6 -6.85 2.35 -7.05 6.3 L-7.05 7.0 -6.8 8.55 Q-6.5 10.0 -5.9 10.65 -4.45 10.45 -3.1 8.6 L-2.2 7.2 Q-1.5 5.65 -1.4 3.95 M-11.0 -19.5 Q-12.7 -19.2 -12.9 -17.6 L-12.85 -16.95 Q-12.7 -16.1 -11.95 -15.95 -11.2 -15.9 -10.45 -16.3 -9.45 -16.9 -9.4 -17.9 -9.3 -19.75 -11.0 -19.5 M-18.6 6.55 Q-18.1 3.2 -15.2 2.0 -11.9 0.7 -12.2 6.05 L-12.25 6.75 Q-12.6 7.9 -13.45 9.75 -15.0 12.8 -16.7 12.45 -19.0 12.15 -18.75 7.5 L-18.6 6.55 M-16.9 9.55 Q-16.6 9.9 -15.2 10.15 -14.25 10.3 -14.1 7.35 L-14.0 6.7 Q-13.85 5.4 -15.0 5.2 -16.45 5.0 -16.9 6.65 L-17.2 7.8 Q-17.25 9.05 -16.9 9.55" fill="#fff495" fill-rule="evenodd" stroke="none"/>
    <path d="M14.65 -9.65 L14.7 -9.65 Q15.8 -9.45 15.75 -8.3 15.6 -5.4 8.6 -6.75 L6.7 -6.8 7.1 -6.6 Q6.7 -6.0 6.65 -5.15 L5.8 -4.3 Q4.9 -3.35 4.75 -2.75 L4.55 -1.65 4.1 -0.55 Q4.35 4.25 4.2 7.25 L4.2 7.45 Q3.5 15.9 2.6 17.35 1.35 14.9 1.55 11.7 L2.1 7.35 2.2 6.45 Q2.35 4.3 1.8 -0.55 L1.8 -0.65 Q0.75 -0.95 -0.55 -2.85 L-1.75 -4.65 Q-2.55 -6.1 -3.85 -6.8 L-4.4 -7.25 -2.7 -7.35 -10.4 -7.05 -16.35 -6.5 -18.3 -6.75 -18.75 -7.6 -18.7 -7.8 -19.15 -8.05 -16.85 -8.3 -5.4 -9.3 -5.45 -10.05 Q-5.45 -10.8 -3.55 -11.4 -1.35 -12.35 -0.65 -13.35 L0.3 -14.5 -0.55 -20.25 -0.3 -21.15 Q1.15 -19.75 2.3 -14.8 2.85 -14.95 4.0 -14.1 6.1 -12.7 6.0 -11.05 L7.45 -9.95 9.75 -10.0 Q10.05 -9.8 10.45 -9.8 L14.65 -9.65 M5.9 -6.65 Q6.0 -7.7 5.3 -9.5 4.35 -11.95 2.75 -12.2 1.3 -12.5 -0.1 -11.2 -1.3 -9.9 -1.35 -8.4 L-0.95 -6.25 Q-0.3 -4.25 0.75 -4.1 2.2 -3.8 4.15 -4.85 5.9 -6.05 5.9 -6.65 M18.7 21.6 L20.35 20.0 Q23.95 16.45 26.05 12.3 24.6 20.3 18.7 26.4 L18.7 21.6 M11.85 31.55 Q8.0 33.55 3.6 34.25 L3.6 34.15 4.15 28.45 Q8.25 27.8 11.85 26.1 L11.85 31.0 11.85 31.55 M-3.2 34.5 Q-7.05 34.25 -10.45 32.95 L-10.5 27.95 -10.5 27.4 Q-7.15 28.45 -3.45 28.75 L-3.2 34.05 -3.2 34.5 M-17.3 29.15 L-20.3 26.6 Q-26.4 20.45 -27.8 12.3 -25.75 16.45 -22.15 20.0 -19.9 22.25 -17.4 23.95 L-17.3 28.05 -17.3 29.15 M12.05 11.55 Q11.95 12.5 10.5 13.1 L9.55 12.75 9.45 11.6 Q9.55 9.25 10.9 9.45 12.15 9.55 12.05 11.55 M-11.0 -19.5 Q-9.3 -19.75 -9.4 -17.9 -9.45 -16.9 -10.45 -16.3 -11.2 -15.9 -11.95 -15.95 -12.7 -16.1 -12.85 -16.95 L-12.9 -17.6 Q-12.7 -19.2 -11.0 -19.5 M-1.4 3.95 Q-1.5 5.65 -2.2 7.2 L-3.1 8.6 Q-4.45 10.45 -5.9 10.65 -6.5 10.0 -6.8 8.55 L-7.05 7.0 -7.05 6.3 Q-6.85 2.35 -4.0 1.6 -1.3 1.0 -1.4 3.95 M-16.9 9.55 Q-17.25 9.05 -17.2 7.8 L-16.9 6.65 Q-16.45 5.0 -15.0 5.2 -13.85 5.4 -14.0 6.7 L-14.1 7.35 Q-14.25 10.3 -15.2 10.15 -16.6 9.9 -16.9 9.55" fill="#ffeb33" fill-rule="evenodd" stroke="none"/>
    <path d="M5.9 -6.65 Q5.9 -6.05 4.15 -4.85 2.2 -3.8 0.75 -4.1 -0.3 -4.25 -0.95 -6.25 L-1.35 -8.4 Q-1.3 -9.9 -0.1 -11.2 1.3 -12.5 2.75 -12.2 4.35 -11.95 5.3 -9.5 6.0 -7.7 5.9 -6.65 M3.15 -9.75 L3.2 -9.75 3.15 -9.95 3.15 -9.75 M26.5 -1.3 Q26.5 -3.95 26.05 -6.4 24.6 -14.55 18.5 -20.65 10.5 -28.65 -0.9 -28.65 -12.25 -28.65 -20.3 -20.65 -26.4 -14.55 -27.8 -6.4 -28.3 -3.95 -28.3 -1.3 L-28.0 2.95 Q-26.75 11.65 -20.3 18.1 -12.25 26.1 -0.9 26.1 10.5 26.1 18.5 18.1 24.95 11.65 26.2 2.95 L26.5 -1.3 M20.35 -22.55 Q29.2 -13.75 29.2 -1.3 L29.2 2.95 29.2 7.2 Q29.2 19.65 20.35 28.45 14.3 34.55 6.5 36.45 L-0.9 37.3 -8.25 36.45 Q-16.1 34.55 -22.15 28.45 -31.0 19.65 -31.0 7.2 L-31.0 3.2 -31.0 -1.3 Q-31.0 -13.75 -22.15 -22.55 -13.35 -31.4 -0.9 -31.4 11.55 -31.4 20.35 -22.55 M18.7 26.4 Q24.6 20.3 26.05 12.3 23.95 16.45 20.35 20.0 L18.7 21.6 18.45 21.8 14.7 24.55 13.9 25.0 13.45 25.3 12.4 25.8 11.85 26.1 Q8.25 27.8 4.15 28.45 L-0.9 28.85 -3.45 28.75 Q-7.15 28.45 -10.5 27.4 L-10.65 27.35 -11.05 27.2 Q-14.45 25.95 -17.4 23.95 -19.9 22.25 -22.15 20.0 -25.75 16.45 -27.8 12.3 -26.4 20.45 -20.3 26.6 L-17.3 29.15 Q-14.1 31.6 -10.45 32.95 -7.05 34.25 -3.2 34.5 L-2.2 34.55 -1.2 34.55 -0.9 34.55 3.6 34.25 Q8.0 33.55 11.85 31.55 L12.5 31.2 18.1 26.95 18.5 26.6 18.7 26.4 M-28.7 1.1 L-28.7 0.95 -28.75 0.65 -28.7 1.25 -28.7 1.1" fill="#e1cb00" fill-rule="evenodd" stroke="none"/>
  </g>
</svg>
