<?xml version="1.0" encoding="UTF-8" standalone="no"?>
<svg xmlns:ffdec="https://www.free-decompiler.com/flash" xmlns:xlink="http://www.w3.org/1999/xlink" ffdec:objectType="shape" height="18.3px" width="22.55px" xmlns="http://www.w3.org/2000/svg">
  <g transform="matrix(1.0, 0.0, 0.0, 1.0, -4.0, 0.35)">
    <path d="M20.8 1.3 L23.3 2.45 Q23.3 3.3 22.45 3.9 L17.3 7.2 15.35 8.2 14.7 8.7 14.7 8.85 11.8 10.5 Q10.7 11.0 9.95 11.65 8.35 12.1 7.3 13.05 L6.25 14.15 6.0 14.5 5.75 14.85 5.45 15.3 Q6.0 12.3 7.45 9.3 7.9 8.4 8.45 7.65 9.4 6.4 10.9 5.5 12.45 4.55 14.15 3.85 L17.05 2.95 Q18.5 2.55 19.5 1.95 L20.0 1.8 20.8 1.3 M20.75 2.95 L17.65 4.15 15.05 5.05 11.35 6.15 Q9.75 6.55 9.1 8.0 L8.55 8.8 Q7.15 10.4 6.9 12.1 L7.75 11.35 8.85 9.9 Q9.65 8.65 11.0 7.85 13.55 6.4 16.55 5.7 19.5 4.85 21.8 3.05 L22.6 2.45 20.75 2.95 M10.4 9.9 L10.65 10.25 13.3 7.95 12.6 7.9 10.45 9.65 10.4 9.9" fill="#23abab" fill-rule="evenodd" stroke="none"/>
    <path d="M20.75 2.95 L22.6 2.45 21.8 3.05 Q19.5 4.85 16.55 5.7 13.55 6.4 11.0 7.85 9.65 8.65 8.85 9.9 L7.75 11.35 6.9 12.1 Q7.15 10.4 8.55 8.8 L9.1 8.0 Q9.75 6.55 11.35 6.15 L15.05 5.05 17.65 4.15 20.75 2.95 M10.4 9.9 L10.45 9.65 12.6 7.9 13.3 7.95 10.65 10.25 10.4 9.9" fill="#2cd1d1" fill-rule="evenodd" stroke="none"/>
    <path d="M9.9 12.7 L8.25 13.75 Q7.05 14.75 6.0 16.0 L5.75 16.4 Q5.5 15.65 5.75 14.85 L6.0 14.5 6.25 14.15 7.3 13.05 Q8.35 12.1 9.95 11.65 L10.05 11.65 9.9 12.7" fill="#125a5a" fill-rule="evenodd" stroke="none"/>
    <path d="M24.85 0.5 L25.4 1.15 25.8 2.15 26.3 3.6 Q26.7 4.55 26.5 5.3 L26.25 6.15 Q25.9 7.4 24.4 8.05 L21.95 9.1 18.95 9.65 17.05 10.15 14.9 10.55 11.5 11.3 10.5 11.5 10.05 11.65 9.95 11.65 Q10.7 11.0 11.8 10.5 L14.7 8.85 14.7 8.7 15.35 8.2 17.3 7.2 22.45 3.9 Q23.3 3.3 23.3 2.45 L20.8 1.3 Q23.8 0.1 24.85 0.5" fill="#1d8383" fill-rule="evenodd" stroke="none"/>
    <path d="M26.25 6.15 L26.35 7.0 Q26.45 8.55 25.1 9.35 23.4 10.35 21.6 10.55 L19.0 11.0 15.35 11.6 13.15 12.0 9.9 12.7 10.05 11.65 10.5 11.5 11.5 11.3 14.9 10.55 17.05 10.15 18.95 9.65 21.95 9.1 24.4 8.05 Q25.9 7.4 26.25 6.15 M5.75 16.4 L5.7 16.45 5.2 17.1 4.85 17.65 4.55 17.8 4.15 17.95 4.05 17.75 4.05 17.25 4.6 14.7 Q5.3 11.9 6.3 9.35 7.2 7.2 8.75 5.45 L9.5 4.85 Q11.8 3.1 14.65 2.45 16.8 1.9 18.75 1.0 L19.25 0.65 20.45 0.0 21.25 -0.35 Q24.25 -0.5 24.85 0.5 23.8 0.1 20.8 1.3 L20.0 1.8 19.5 1.95 Q18.5 2.55 17.05 2.95 L14.15 3.85 Q12.45 4.55 10.9 5.5 9.4 6.4 8.45 7.65 7.9 8.4 7.45 9.3 6.0 12.3 5.45 15.3 L5.75 14.85 Q5.5 15.65 5.75 16.4" fill="#0b3131" fill-rule="evenodd" stroke="none"/>
  </g>
</svg>
