<?xml version="1.0" encoding="UTF-8" standalone="no"?>
<svg xmlns:ffdec="https://www.free-decompiler.com/flash" xmlns:xlink="http://www.w3.org/1999/xlink" ffdec:objectType="shape" height="71.5px" width="73.65px" xmlns="http://www.w3.org/2000/svg">
  <g transform="matrix(1.0, 0.0, 0.0, 1.0, 31.15, 43.1)">
    <path d="M-15.4 -31.45 L-17.5 -29.5 -17.55 -29.45 -17.65 -29.35 -17.85 -29.1 -17.95 -29.05 -20.85 -25.7 -20.85 -25.65 Q-29.15 -15.3 -29.15 -1.45 -29.15 14.95 -17.5 26.55 L-16.75 27.25 -17.95 26.95 -20.9 25.85 Q-31.15 14.3 -31.15 -1.45 -31.15 -16.0 -22.45 -26.9 L-22.4 -26.9 -19.4 -30.35 -18.85 -30.95 Q-6.7 -43.1 10.55 -43.1 27.75 -43.1 40.0 -30.9 L42.5 -28.2 42.4 -28.0 41.6 -26.15 41.35 -26.5 Q30.2 -41.1 10.55 -41.1 4.8 -41.1 -1.0 -39.65 -9.9 -37.4 -14.4 -32.3 L-15.4 -31.45" fill="#8e7c71" fill-opacity="0.69411767" fill-rule="evenodd" stroke="none"/>
    <path d="M41.6 -26.15 Q41.45 -25.35 40.6 -24.2 39.75 -23.05 38.1 -21.65 33.7 -27.8 27.0 -31.75 16.45 -38.1 5.9 -38.1 1.5 -38.1 -3.35 -37.1 -10.65 -35.5 -14.4 -32.3 -9.9 -37.4 -1.0 -39.65 4.8 -41.1 10.55 -41.1 30.2 -41.1 41.35 -26.5 L41.6 -26.15" fill="#8e7c71" fill-opacity="0.4" fill-rule="evenodd" stroke="none"/>
    <path d="M31.15 -16.1 Q29.6 -18.95 27.45 -21.7 17.35 -34.6 -0.35 -34.6 -12.7 -32.45 -15.4 -31.45 L-14.4 -32.3 Q-10.65 -35.5 -3.35 -37.1 1.5 -38.1 5.9 -38.1 16.45 -38.1 27.0 -31.75 33.7 -27.8 38.1 -21.65 L34.05 -19.15 Q31.8 -17.9 31.15 -16.1" fill="#b9a99b" fill-opacity="0.4" fill-rule="evenodd" stroke="none"/>
    <path d="M31.15 -16.1 L31.05 -15.9 Q30.35 -14.45 29.95 -12.9 29.65 -11.7 29.65 -10.5 29.65 -9.2 29.95 -7.9 L31.2 -2.65 31.85 1.35 31.95 3.25 30.85 4.75 Q26.7 5.0 23.2 7.1 22.15 7.65 21.55 8.7 20.8 9.95 20.3 11.35 19.6 13.35 19.15 15.4 L18.75 18.5 18.5 22.35 18.35 24.0 Q16.55 25.65 13.9 26.3 L8.5 27.35 0.25 28.35 -7.15 28.4 -13.5 28.0 -16.75 27.25 -17.5 26.55 Q-29.15 14.95 -29.15 -1.45 -29.15 -15.3 -20.85 -25.65 L-20.85 -25.7 -17.95 -29.05 -17.85 -29.1 -17.65 -29.35 -17.55 -29.45 -17.5 -29.5 -15.4 -31.45 Q-12.7 -32.45 -0.35 -34.6 17.35 -34.6 27.45 -21.7 29.6 -18.95 31.15 -16.1" fill="#b9a99b" fill-opacity="0.29803923" fill-rule="evenodd" stroke="none"/>
  </g>
</svg>
