<?xml version="1.0" encoding="UTF-8" standalone="no"?>
<svg xmlns:ffdec="https://www.free-decompiler.com/flash" xmlns:xlink="http://www.w3.org/1999/xlink" ffdec:objectType="shape" height="56.1px" width="77.85px" xmlns="http://www.w3.org/2000/svg">
  <g transform="matrix(1.0, 0.0, 0.0, 1.0, 35.1, 18.8)">
    <path d="M1.45 -8.05 L1.45 -10.0 5.35 -9.95 5.35 -7.4 1.45 -8.05 M6.35 11.15 L11.65 14.0 11.65 15.4 9.7 14.35 Q5.6 11.95 4.4 10.4 L4.35 10.35 6.35 11.15 M30.25 -10.05 L30.2 -11.9 33.75 -12.85 33.8 -11.25 30.25 -10.05 M20.45 17.65 L23.2 18.35 22.75 19.35 20.35 18.75 20.45 17.65 M19.0 17.15 L18.9 18.35 Q15.9 17.4 13.15 16.15 L13.15 14.7 14.4 15.25 19.0 17.15 M3.55 15.2 L4.3 15.45 7.4 16.1 Q8.65 16.3 8.65 16.8 8.65 19.15 6.0 19.15 L3.55 19.05 3.55 15.2 M2.05 14.55 L2.05 18.9 Q-2.95 18.25 -6.7 15.95 L-6.3 3.95 -6.3 3.9 -3.75 8.5 Q-1.5 12.7 2.05 14.55 M-8.15 14.95 Q-14.45 10.15 -15.25 0.55 L-14.95 0.45 -14.0 0.35 Q-9.3 0.35 -7.9 1.6 L-7.7 1.85 -8.15 14.95" fill="#4e4e4e" fill-rule="evenodd" stroke="none"/>
    <path d="M5.35 -7.4 L5.35 -9.95 1.45 -10.0 1.45 -8.05 1.45 -2.35 1.4 2.75 0.7 2.95 Q0.15 2.85 -0.05 2.2 L-0.05 -10.5 -5.45 -10.7 -5.35 -11.85 Q0.55 -11.5 7.45 -11.5 L10.15 -11.5 10.3 -10.1 6.85 -9.9 6.75 2.85 6.6 2.85 6.6 10.2 11.65 12.85 11.65 13.95 11.65 14.0 6.35 11.15 Q3.75 9.0 4.35 5.7 L5.4 2.45 5.35 -7.4 M11.8 -10.2 L11.65 -11.55 17.6 -11.85 18.9 -11.95 19.0 -10.7 11.8 -10.2 M20.5 -10.8 L20.4 -12.1 27.45 -13.1 27.5 -11.4 20.5 -10.8 M26.1 2.7 L26.05 1.95 26.95 -1.35 27.1 3.55 26.75 12.65 Q26.4 17.5 25.5 21.1 L23.9 26.55 21.85 31.15 23.9 29.9 22.15 33.15 Q19.4 34.6 16.5 35.55 L17.5 33.25 18.5 32.9 Q21.1 31.75 23.15 25.7 L24.95 18.75 23.4 18.4 23.2 18.35 20.45 17.65 20.55 16.65 25.1 17.75 25.75 10.4 26.1 2.7 M37.2 -15.15 L39.6 -16.65 40.35 -17.55 42.3 -6.65 42.75 0.25 Q42.75 13.55 33.6 23.95 L35.3 19.0 Q41.3 10.35 41.3 -0.1 L41.15 -5.05 Q40.75 -9.35 39.55 -14.45 L37.25 -13.8 37.2 -15.15 M29.75 27.8 L24.85 31.55 26.15 28.35 Q29.7 25.65 32.6 22.45 31.35 25.55 29.75 27.8 M14.45 36.15 L10.3 36.95 10.95 34.7 11.9 34.5 15.7 33.75 14.45 36.15 M8.65 37.15 L4.85 37.3 3.55 37.3 3.55 35.35 5.6 35.4 9.35 34.95 8.65 37.15 M2.7 37.25 Q-1.4 37.05 -5.1 36.1 L-5.8 33.9 Q-2.1 34.95 2.05 35.25 L2.05 37.2 2.7 37.25 M-6.7 35.65 Q-9.3 34.85 -11.7 33.7 L-12.95 31.0 Q-10.25 32.45 -7.25 33.45 L-6.7 35.65 M-13.95 32.5 Q-18.2 30.05 -21.85 26.35 L-22.9 22.85 Q-19.35 27.0 -15.05 29.75 L-13.95 32.5 M-23.7 24.35 L-25.25 22.45 Q-27.85 19.1 -29.8 15.55 L-30.1 11.4 Q-28.1 15.95 -25.0 20.2 L-24.25 23.7 -23.7 24.35 M-31.55 11.85 Q-35.1 3.65 -35.1 -5.5 -35.1 -9.05 -33.45 -18.8 L-30.75 -16.5 -30.45 -16.3 -30.65 -14.85 -32.55 -15.95 -33.55 -5.15 Q-33.55 1.0 -31.8 6.75 L-31.55 11.85 M-29.05 -15.7 L-28.7 -15.7 Q-25.85 -14.65 -20.4 -13.6 L-16.1 -12.9 -16.3 -11.35 -22.7 -12.0 -22.75 -12.0 -22.4 -14.0 -23.9 -14.3 -24.2 -12.45 -26.5 -13.25 -28.95 -14.0 -29.25 -14.1 -29.05 -15.7 M-14.6 -12.7 L-6.85 -11.95 -6.95 -10.8 -14.8 -11.25 -14.6 -12.7 M35.7 -14.75 L35.8 -13.4 35.25 -13.25 35.35 -4.3 35.4 -4.3 Q35.4 -3.55 35.9 -2.2 36.05 -1.0 34.6 -0.1 34.25 -0.15 34.05 -0.35 L33.9 -0.65 33.8 -11.25 33.75 -12.85 30.2 -11.9 30.25 -10.05 30.65 0.2 Q30.6 0.75 29.95 1.0 L29.35 0.85 28.9 -13.4 33.6 -14.3 35.7 -14.75 M19.1 16.15 L19.0 17.15 14.4 15.25 13.15 14.7 13.15 13.6 18.05 15.75 19.1 16.15" fill="#0c0c0c" fill-rule="evenodd" stroke="none"/>
    <path d="M11.65 12.85 L6.6 10.2 6.6 2.85 6.75 2.85 6.85 -9.9 10.3 -10.1 10.6 -7.0 10.6 -6.95 Q9.25 -6.55 8.75 -5.7 8.3 -4.75 8.3 -2.25 8.3 -1.3 8.65 -1.05 8.85 -0.9 9.4 -0.8 8.9 -0.4 8.4 1.05 7.65 3.1 7.65 6.0 L8.25 7.3 Q9.05 8.8 10.3 10.0 L11.65 11.15 11.65 12.85 M-5.45 -10.7 L-0.05 -10.5 -0.05 2.2 Q0.15 2.85 0.7 2.95 L1.4 2.75 1.45 -2.35 1.7 -0.2 1.65 2.15 1.15 6.05 Q1.0 6.7 0.5 6.75 -0.05 6.0 -0.4 4.25 L-1.0 -0.5 -2.0 -0.55 -3.65 -0.7 Q-4.35 -0.85 -4.35 -1.05 L-3.65 -1.4 -2.0 -1.55 -1.35 -1.5 -1.6 -8.55 -5.6 -8.7 -5.45 -10.7 M20.6 -8.5 L20.5 -10.8 27.5 -11.4 27.8 -1.65 26.95 -1.35 26.05 1.95 25.8 -9.15 20.6 -8.5 M19.0 -10.7 L19.1 -8.3 12.05 -7.3 11.8 -10.2 19.0 -10.7 M12.6 -1.2 L13.0 -1.35 14.45 -1.55 15.9 -1.35 Q16.5 -1.2 16.5 -0.95 16.5 -0.7 15.9 -0.5 L14.45 -0.35 13.0 -0.5 12.65 -0.65 12.6 -1.2 M20.7 13.9 L20.75 13.9 Q22.95 13.9 24.2 12.55 25.3 11.4 26.1 2.7 L25.75 10.4 25.1 17.75 20.55 16.65 20.55 16.6 20.7 13.9 M35.8 -13.4 L36.05 -1.05 35.75 -0.1 34.5 3.2 Q34.15 3.0 34.05 2.35 L34.05 -0.35 Q34.25 -0.15 34.6 -0.1 36.05 -1.0 35.9 -2.2 35.4 -3.55 35.4 -4.3 L35.35 -4.3 35.25 -13.25 35.8 -13.4 M35.15 11.8 Q34.25 18.0 32.6 22.45 29.7 25.65 26.15 28.35 L27.6 22.7 28.55 21.75 Q31.2 18.95 32.75 16.65 34.2 14.45 35.15 11.8 M35.3 19.0 Q38.4 7.15 37.25 -13.8 L39.55 -14.45 Q40.75 -9.35 41.15 -5.05 L41.3 -0.1 Q41.3 10.35 35.3 19.0 M20.85 -0.95 L20.85 -1.95 23.3 -1.95 23.3 -0.95 20.85 -0.95 M30.8 9.9 L31.0 11.3 30.8 12.75 30.35 13.3 Q30.1 13.3 29.9 12.75 L29.7 11.3 29.9 9.9 30.35 9.3 30.8 9.9 M30.45 2.4 L30.9 3.0 31.05 4.4 30.9 5.85 30.45 6.4 Q30.2 6.4 30.05 5.85 L29.85 4.4 30.05 3.0 Q30.2 2.4 30.45 2.4 M29.3 18.0 Q29.35 17.0 29.75 16.25 30.0 16.6 29.8 18.3 L29.65 20.15 29.0 20.15 29.3 18.0 M23.4 18.4 L24.95 18.75 23.15 25.7 Q21.1 31.75 18.5 32.9 L17.5 33.25 Q18.4 30.75 19.1 27.45 L20.8 27.05 22.8 20.7 23.4 18.4 M13.15 13.6 L13.15 12.15 Q15.8 13.6 19.2 13.85 L19.1 16.15 18.05 15.75 13.15 13.6 M3.55 30.05 L4.2 30.05 9.75 29.55 10.55 29.4 9.35 34.95 5.6 35.4 3.55 35.35 3.55 30.05 M12.1 29.05 L17.55 27.8 Q16.8 31.25 15.7 33.75 L11.9 34.5 10.95 34.7 12.1 29.05 M2.05 30.0 L2.05 35.25 Q-2.1 34.95 -5.8 33.9 -6.3 31.7 -6.5 28.2 -2.4 29.7 2.05 30.0 M23.9 29.9 L21.85 31.15 23.9 26.55 25.6 24.75 Q24.85 27.65 23.9 29.9 M-29.25 -14.1 L-28.95 -14.0 -26.5 -13.25 -24.2 -12.45 -24.5 -10.4 -28.6 -11.0 -28.9 -6.35 Q-28.9 -5.75 -28.3 -5.6 L-27.35 -5.15 -28.6 -4.2 Q-29.4 -3.5 -29.4 -2.1 -29.4 5.2 -25.9 11.55 -25.7 16.2 -25.0 20.2 -28.1 15.95 -30.1 11.4 -30.95 -2.2 -29.25 -14.1 M-22.75 -12.0 L-22.7 -12.0 -16.3 -11.35 -16.55 -9.4 -23.0 -10.2 -22.75 -12.0 M-31.8 6.75 Q-33.55 1.0 -33.55 -5.15 L-32.55 -15.95 -30.65 -14.85 Q-32.15 -4.7 -31.8 6.75 M-23.8 -3.4 L-23.7 -4.55 Q-21.55 -3.55 -21.5 -3.2 L-22.1 -2.85 -23.8 -3.4 M-7.05 -8.75 L-11.65 -9.0 -15.05 -9.25 -14.8 -11.25 -6.95 -10.8 -7.05 -8.75 M-15.75 -3.05 L-14.6 -3.05 -14.6 -1.65 -15.85 -1.65 -15.75 -3.05 M-7.5 -1.3 L-7.95 -1.1 -9.4 -0.9 -10.85 -1.1 -11.45 -1.55 -10.85 -2.0 -9.4 -2.2 -7.95 -2.0 -7.5 -1.8 -7.5 -1.3 M-15.1 23.5 Q-11.65 26.05 -7.9 27.65 L-7.25 33.45 Q-10.25 32.45 -12.95 31.0 -14.3 27.65 -15.1 23.5 M-17.35 -1.65 L-18.5 -1.65 -18.5 -3.05 -17.25 -3.05 -17.35 -1.65 M-24.2 14.25 Q-21.95 17.5 -18.75 20.45 L-16.9 22.1 Q-16.2 26.3 -15.05 29.75 -19.35 27.0 -22.9 22.85 -23.85 18.95 -24.2 14.25" fill="#1b1b1b" fill-rule="evenodd" stroke="none"/>
    <path d="M5.4 2.45 L4.35 5.7 Q3.75 9.0 6.35 11.15 L4.35 10.35 4.4 10.4 3.55 10.35 3.55 3.3 3.35 2.8 Q3.1 2.55 2.8 2.55 2.5 2.55 2.3 2.8 2.05 3.0 2.05 3.3 L2.05 9.7 Q0.85 8.85 -0.1 7.2 -2.0 4.0 -2.0 -0.55 L-1.0 -0.5 -0.4 4.25 Q-0.05 6.0 0.5 6.75 1.0 6.7 1.15 6.05 L1.65 2.15 5.4 2.45 M11.65 11.15 L10.3 10.0 Q9.05 8.8 8.25 7.3 L7.65 6.0 Q7.65 3.1 8.4 1.05 8.9 -0.4 9.4 -0.8 8.85 -0.9 8.65 -1.05 8.3 -1.3 8.3 -2.25 8.3 -4.75 8.75 -5.7 9.25 -6.55 10.6 -6.95 L10.85 -4.3 Q10.1 -3.8 10.1 -3.15 10.1 1.15 11.45 4.55 L11.65 11.15 M12.05 -7.3 L19.1 -8.3 19.2 -5.8 13.2 -5.2 12.3 -4.95 12.05 -7.3 M13.05 7.65 L13.35 8.05 Q15.9 11.55 19.3 12.2 L19.2 13.85 Q15.8 13.6 13.15 12.15 L13.05 7.65 M20.7 -5.7 L20.6 -8.5 25.8 -9.15 26.05 1.95 26.1 2.7 Q25.3 11.4 24.2 12.55 22.95 13.9 20.75 13.9 L20.7 13.9 20.75 12.3 Q22.3 12.3 22.85 10.55 23.6 8.35 23.6 2.15 L23.35 -3.45 Q22.8 -5.35 20.7 -5.7 M35.15 11.75 L35.15 11.8 Q34.2 14.45 32.75 16.65 31.2 18.95 28.55 21.75 L27.6 22.7 28.25 18.85 Q28.85 17.2 28.85 14.55 L28.85 13.5 Q29.35 7.8 29.35 0.85 L29.95 1.0 Q30.6 0.75 30.65 0.2 L33.9 -0.65 34.05 -0.35 34.05 2.35 Q34.15 3.0 34.5 3.2 L35.75 -0.1 36.05 -1.05 Q35.95 6.05 35.15 11.75 M26.95 -1.35 L27.8 -1.65 27.85 1.15 Q27.45 1.9 27.1 3.55 L26.95 -1.35 M30.45 2.4 Q30.2 2.4 30.05 3.0 L29.85 4.4 30.05 5.85 Q30.2 6.4 30.45 6.4 L30.9 5.85 31.05 4.4 30.9 3.0 30.45 2.4 M30.8 9.9 L30.35 9.3 29.9 9.9 29.7 11.3 29.9 12.75 Q30.1 13.3 30.35 13.3 L30.8 12.75 31.0 11.3 30.8 9.9 M25.5 21.1 L25.75 21.6 26.35 21.35 25.6 24.75 23.9 26.55 25.5 21.1 M29.3 18.0 L29.0 20.15 29.65 20.15 29.8 18.3 Q30.0 16.6 29.75 16.25 29.35 17.0 29.3 18.0 M23.2 18.35 L23.4 18.4 22.8 20.7 20.8 27.05 19.1 27.45 20.1 21.35 Q21.75 20.45 22.75 19.35 L23.2 18.35 M3.55 23.95 L11.25 23.55 11.25 23.6 10.55 29.4 9.75 29.55 4.2 30.05 3.55 30.05 3.55 23.95 M12.75 23.4 Q16.15 22.9 18.55 22.0 L17.55 27.8 12.1 29.05 12.75 23.4 M2.05 23.95 L2.05 30.0 Q-2.4 29.7 -6.5 28.2 L-6.75 22.55 Q-2.8 23.8 2.05 23.95 M-25.9 11.55 Q-29.4 5.2 -29.4 -2.1 -29.4 -3.5 -28.6 -4.2 L-27.35 -5.15 -28.3 -5.6 Q-28.9 -5.75 -28.9 -6.35 L-28.6 -11.0 -24.5 -10.4 Q-26.25 2.0 -25.9 11.55 M-23.0 -10.2 L-16.55 -9.4 -16.8 -7.5 -19.45 -7.85 Q-19.8 -7.85 -21.15 -3.65 -22.5 0.6 -22.5 1.8 -22.5 7.9 -18.35 14.0 L-17.65 14.95 Q-17.45 18.75 -16.9 22.1 L-18.75 20.45 Q-21.95 17.5 -24.2 14.25 -24.8 6.5 -23.8 -3.4 L-22.1 -2.85 -21.5 -3.2 Q-21.55 -3.55 -23.7 -4.55 L-23.0 -10.2 M-15.05 -9.25 L-11.65 -9.0 -7.05 -8.75 -7.25 -5.7 -11.45 -6.85 -15.3 -7.3 -15.05 -9.25 M-16.0 16.9 Q-12.75 20.3 -8.1 22.1 L-7.9 27.65 Q-11.65 26.05 -15.1 23.5 L-16.0 16.9 M-5.8 -5.1 L-5.6 -8.7 -1.6 -8.55 -1.35 -1.5 -2.0 -1.55 Q-2.75 -3.65 -5.8 -5.1" fill="#2e2e2e" fill-rule="evenodd" stroke="none"/>
    <path d="M5.35 -7.4 L5.4 2.45 1.65 2.15 1.7 -0.2 1.45 -2.35 1.45 -8.05 5.35 -7.4 M12.3 -4.95 L13.2 -5.2 19.2 -5.8 Q19.6 4.3 19.3 12.2 15.9 11.55 13.35 8.05 L13.05 7.65 12.65 -0.65 13.0 -0.5 14.45 -0.35 15.9 -0.5 Q16.5 -0.7 16.5 -0.95 16.5 -1.2 15.9 -1.35 L14.45 -1.55 13.0 -1.35 12.6 -1.2 12.3 -4.95 M20.85 -1.95 L20.7 -5.7 Q22.8 -5.35 23.35 -3.45 L23.6 2.15 Q23.6 8.35 22.85 10.55 22.3 12.3 20.75 12.3 21.0 6.3 20.85 -0.95 L23.3 -0.95 23.3 -1.95 20.85 -1.95 M10.85 -4.3 L11.45 4.55 Q10.1 1.15 10.1 -3.15 10.1 -3.8 10.85 -4.3 M30.25 -10.05 L33.8 -11.25 33.9 -0.65 30.65 0.2 30.25 -10.05 M27.1 3.55 Q27.45 1.9 27.85 1.15 27.8 13.25 26.35 21.35 L25.75 21.6 25.5 21.1 Q26.4 17.5 26.75 12.65 L27.1 3.55 M28.85 13.5 L28.85 14.55 Q28.85 17.2 28.25 18.85 L28.85 13.5 M20.35 18.75 L22.75 19.35 Q21.75 20.45 20.1 21.35 L20.35 18.75 M3.55 10.35 L4.4 10.4 Q5.6 11.95 9.7 14.35 L11.65 15.4 11.25 23.55 3.55 23.95 3.55 19.05 6.0 19.15 Q8.65 19.15 8.65 16.8 8.65 16.3 7.4 16.1 L4.3 15.45 3.55 15.2 3.55 10.35 M2.05 18.9 L2.05 23.95 Q-2.8 23.8 -6.75 22.55 L-6.7 15.95 Q-2.95 18.25 2.05 18.9 M13.15 16.15 Q15.9 17.4 18.9 18.35 L18.55 22.0 Q16.15 22.9 12.75 23.4 L13.15 16.15 M2.05 9.7 L2.05 14.55 Q-1.5 12.7 -3.75 8.5 L-6.3 3.9 -5.8 -5.1 Q-2.75 -3.65 -2.0 -1.55 L-3.65 -1.4 -4.35 -1.05 Q-4.35 -0.85 -3.65 -0.7 L-2.0 -0.55 Q-2.0 4.0 -0.1 7.2 0.85 8.85 2.05 9.7 M-15.3 -7.3 L-11.45 -6.85 -7.25 -5.7 -7.5 -1.8 -7.95 -2.0 -9.4 -2.2 -10.85 -2.0 -11.45 -1.55 -10.85 -1.1 -9.4 -0.9 -7.95 -1.1 -7.5 -1.3 -7.7 1.85 -7.9 1.6 Q-9.3 0.35 -14.0 0.35 L-14.95 0.45 -15.25 0.55 Q-14.45 10.15 -8.15 14.95 L-8.15 15.0 -8.1 22.1 Q-12.75 20.3 -16.0 16.9 -16.7 8.8 -15.85 -1.65 L-14.6 -1.65 -14.6 -3.05 -15.75 -3.05 -15.3 -7.3 M-17.65 14.95 L-18.35 14.0 Q-22.5 7.9 -22.5 1.8 -22.5 0.6 -21.15 -3.65 -19.8 -7.85 -19.45 -7.85 L-16.8 -7.5 -17.25 -3.05 -18.5 -3.05 -18.5 -1.65 -17.35 -1.65 Q-18.1 7.55 -17.65 14.95" fill="#3c3c3c" fill-rule="evenodd" stroke="none"/>
    <path d="M10.6 -7.0 L10.3 -10.1 11.8 -10.2 12.05 -7.3 11.0 -7.1 10.9 -7.05 10.6 -7.0 M19.0 -10.7 L20.5 -10.8 20.6 -8.5 19.1 -8.3 19.0 -10.7 M12.65 -0.65 L12.4 -0.9 12.4 -0.95 12.6 -1.2 12.65 -0.65 M20.85 -0.95 L19.6 -0.95 19.6 -1.95 20.85 -1.95 20.85 -0.95 M35.8 -13.4 L37.25 -13.8 Q38.4 7.15 35.3 19.0 L34.45 20.1 34.3 20.35 32.6 22.45 Q34.25 18.0 35.15 11.8 L35.15 11.75 35.7 10.05 36.9 1.65 36.9 1.45 36.9 1.25 36.9 1.0 36.9 0.8 36.9 0.5 36.9 0.35 36.65 -3.45 36.05 -1.05 35.8 -13.4 M27.5 -11.4 L28.7 -11.6 29.15 -2.7 29.1 -1.9 27.8 -1.65 27.5 -11.4 M19.2 13.85 L20.7 13.9 20.55 16.6 19.45 16.25 19.1 16.15 19.2 13.85 M11.65 11.15 L13.15 12.15 13.15 13.6 11.65 12.85 11.65 11.15 M19.1 27.45 Q18.4 30.75 17.5 33.25 L16.25 33.6 15.7 33.75 Q16.8 31.25 17.55 27.8 L19.1 27.45 M10.55 29.4 L11.05 29.3 12.1 29.05 10.95 34.7 9.35 34.95 10.55 29.4 M3.55 35.35 L2.05 35.25 2.05 30.0 3.55 30.05 3.55 35.35 M23.9 29.9 Q24.85 27.65 25.6 24.75 L27.6 22.7 26.15 28.35 23.9 29.9 M-6.5 28.2 Q-6.3 31.7 -5.8 33.9 L-7.25 33.45 -7.9 27.65 -6.5 28.2 M-30.65 -14.85 L-29.3 -14.15 -29.25 -14.1 Q-30.95 -2.2 -30.1 11.4 L-31.65 7.35 -31.8 6.75 Q-32.15 -4.7 -30.65 -14.85 M-25.0 20.2 Q-25.7 16.2 -25.9 11.55 L-24.2 14.25 Q-23.85 18.95 -22.9 22.85 L-24.7 20.6 -25.0 20.2 M-24.5 -10.4 L-24.2 -12.45 -22.75 -12.0 -23.0 -10.2 -24.5 -10.4 M-16.55 -9.4 L-16.3 -11.35 -14.8 -11.25 -15.05 -9.25 -16.55 -9.4 M-23.8 -3.4 L-24.65 -3.7 -24.75 -3.75 -24.4 -4.9 -23.7 -4.55 -23.8 -3.4 M-7.05 -8.75 L-6.95 -10.8 -5.45 -10.7 -5.6 -8.7 -5.95 -8.7 -7.05 -8.75 M-17.25 -3.05 L-15.75 -3.05 -15.85 -1.65 -17.35 -1.65 -17.25 -3.05 M-7.5 -1.3 L-7.5 -1.8 -7.35 -1.55 -7.5 -1.3 M-16.9 22.1 L-15.1 23.5 Q-14.3 27.65 -12.95 31.0 L-15.05 29.75 Q-16.2 26.3 -16.9 22.1" fill="#868686" fill-rule="evenodd" stroke="none"/>
    <path d="M11.65 13.95 L11.65 12.85 13.15 13.6 13.15 14.7 12.4 14.35 11.65 13.95 M10.3 -10.1 L10.15 -11.5 11.65 -11.55 11.8 -10.2 10.3 -10.1 M-5.35 -11.85 L-5.45 -10.7 -6.95 -10.8 -6.85 -11.95 -5.35 -11.85 M19.0 -10.7 L18.9 -11.95 20.4 -12.1 20.5 -10.8 19.0 -10.7 M27.5 -11.4 L27.45 -13.1 27.75 -13.15 27.85 -13.2 28.9 -13.4 29.35 0.85 29.25 0.8 29.1 -1.9 29.15 -2.7 28.7 -11.6 27.5 -11.4 M33.6 23.95 L31.6 26.05 30.45 27.2 29.7 27.85 29.75 27.8 Q31.35 25.55 32.6 22.45 L34.3 20.35 34.45 20.1 35.3 19.0 33.6 23.95 M24.85 31.55 L22.15 33.15 23.9 29.9 26.15 28.35 24.85 31.55 M16.5 35.55 L14.45 36.15 15.7 33.75 16.25 33.6 17.5 33.25 16.5 35.55 M10.3 36.95 L10.15 36.95 8.65 37.15 9.35 34.95 10.95 34.7 10.3 36.95 M3.55 37.3 L3.35 37.3 2.7 37.25 2.05 37.2 2.05 35.25 3.55 35.35 3.55 37.3 M-5.1 36.1 L-6.7 35.65 -7.25 33.45 -5.8 33.9 -5.1 36.1 M-11.7 33.7 L-13.95 32.5 -15.05 29.75 -12.95 31.0 -11.7 33.7 M-21.85 26.35 L-22.05 26.15 -23.7 24.35 -24.25 23.7 -25.0 20.2 -24.7 20.6 -22.9 22.85 -21.85 26.35 M-29.8 15.55 L-31.55 11.85 -31.8 6.75 -31.65 7.35 -30.1 11.4 -29.8 15.55 M-30.45 -16.3 Q-29.7 -15.8 -29.05 -15.7 L-29.25 -14.1 -29.3 -14.15 -30.65 -14.85 -30.45 -16.3 M-16.1 -12.9 L-14.6 -12.7 -14.8 -11.25 -16.3 -11.35 -16.1 -12.9 M37.25 -13.8 L35.8 -13.4 35.7 -14.75 36.75 -15.0 37.0 -15.05 37.2 -15.15 37.25 -13.8 M20.55 16.6 L20.55 16.65 20.45 17.65 19.0 17.15 19.1 16.15 19.45 16.25 20.55 16.6 M-24.2 -12.45 L-23.9 -14.3 -22.4 -14.0 -22.75 -12.0 -24.2 -12.45" fill="#555555" fill-rule="evenodd" stroke="none"/>
    <path d="M10.6 -6.95 L10.6 -7.0 10.9 -7.05 11.0 -7.1 12.05 -7.3 12.3 -4.95 10.85 -4.3 10.6 -6.95 M19.1 -8.3 L20.6 -8.5 20.7 -5.7 19.65 -5.8 19.2 -5.8 19.1 -8.3 M20.75 12.3 L20.7 13.9 19.2 13.85 19.3 12.2 20.75 12.3 M11.45 4.55 L12.6 6.9 13.05 7.65 13.15 12.15 11.65 11.15 11.45 4.55 M36.05 -1.05 L36.65 -3.45 36.9 0.35 36.9 0.5 36.9 0.8 36.9 1.0 36.9 1.25 36.9 1.45 36.9 1.65 35.7 10.05 35.15 11.75 Q35.95 6.05 36.05 -1.05 M29.1 -1.9 L29.25 0.8 29.35 0.85 Q29.35 7.8 28.85 13.5 L28.8 1.95 27.95 0.9 27.95 0.95 27.85 1.15 27.8 -1.65 29.1 -1.9 M28.25 18.85 L27.6 22.7 25.6 24.75 26.35 21.35 Q27.65 20.6 28.25 18.85 M2.05 9.7 L2.05 3.3 Q2.05 3.0 2.3 2.8 2.5 2.55 2.8 2.55 3.1 2.55 3.35 2.8 L3.55 3.3 3.55 10.35 2.05 9.7 M2.05 23.95 L3.0 23.95 3.15 23.95 3.55 23.95 3.55 30.05 2.05 30.0 2.05 23.95 M10.55 29.4 L11.25 23.6 12.4 23.45 12.75 23.4 12.1 29.05 11.05 29.3 10.55 29.4 M18.55 22.0 L20.1 21.35 19.1 27.45 17.55 27.8 18.55 22.0 M-24.5 -10.4 L-23.0 -10.2 -23.7 -4.55 -24.4 -4.9 -24.75 -3.75 -24.65 -3.7 -23.8 -3.4 Q-24.8 6.5 -24.2 14.25 L-25.9 11.55 Q-26.25 2.0 -24.5 -10.4 M-15.05 -9.25 L-15.3 -7.3 -16.8 -7.5 -16.55 -9.4 -15.05 -9.25 M-7.25 -5.7 L-7.05 -8.75 -5.95 -8.7 -5.6 -8.7 -5.8 -5.1 -7.25 -5.7 M-17.65 14.95 L-16.3 16.6 -16.15 16.75 -16.0 16.9 -15.1 23.5 -16.9 22.1 Q-17.45 18.75 -17.65 14.95 M-7.9 27.65 L-8.1 22.1 -6.75 22.55 -6.5 28.2 -7.9 27.65" fill="#b4b4b4" fill-rule="evenodd" stroke="none"/>
    <path d="M10.85 -4.3 L12.3 -4.95 12.6 -1.2 12.4 -0.95 12.4 -0.9 12.65 -0.65 13.05 7.65 12.6 6.9 11.45 4.55 10.85 -4.3 M19.3 12.2 Q19.6 4.3 19.2 -5.8 L19.65 -5.8 20.7 -5.7 20.85 -1.95 19.6 -1.95 19.6 -0.95 20.85 -0.95 Q21.0 6.3 20.75 12.3 L19.3 12.2 M27.85 1.15 L27.95 0.95 27.95 0.9 28.8 1.95 28.85 13.5 28.25 18.85 Q27.65 20.6 26.35 21.35 27.8 13.25 27.85 1.15 M20.35 18.75 L20.1 21.35 18.55 22.0 18.9 18.35 20.35 18.75 M2.05 9.7 L3.55 10.35 3.55 15.2 2.05 14.55 2.05 9.7 M3.55 19.05 L3.55 23.95 3.15 23.95 3.0 23.95 2.05 23.95 2.05 18.9 3.55 19.05 M11.25 23.55 L11.65 15.4 13.15 16.15 12.75 23.4 12.4 23.45 11.25 23.6 11.25 23.55 M-6.3 3.9 L-6.3 3.95 -6.7 3.25 -7.65 1.9 -7.7 1.85 -7.5 -1.3 -7.35 -1.55 -7.5 -1.8 -7.25 -5.7 -5.8 -5.1 -6.3 3.9 M-16.8 -7.5 L-15.3 -7.3 -15.75 -3.05 -17.25 -3.05 -16.8 -7.5 M-15.85 -1.65 Q-16.7 8.8 -16.0 16.9 L-16.15 16.75 -16.3 16.6 -17.65 14.95 Q-18.1 7.55 -17.35 -1.65 L-15.85 -1.65 M-8.1 22.1 L-8.15 15.0 -7.75 15.25 -7.25 15.6 -6.7 15.95 -6.75 22.55 -8.1 22.1" fill="#d3d3d3" fill-rule="evenodd" stroke="none"/>
    <path d="M11.65 14.0 L11.65 13.95 12.4 14.35 13.15 14.7 13.15 16.15 11.65 15.4 11.65 14.0 M20.45 17.65 L20.35 18.75 18.9 18.35 19.0 17.15 20.45 17.65 M2.05 14.55 L3.55 15.2 3.55 19.05 2.05 18.9 2.05 14.55 M-6.3 3.95 L-6.7 15.95 -7.25 15.6 -7.75 15.25 -8.15 15.0 -8.15 14.95 -7.7 1.85 -7.65 1.9 -6.7 3.25 -6.3 3.95" fill="#f8f8f8" fill-rule="evenodd" stroke="none"/>
  </g>
</svg>
