<?xml version="1.0" encoding="UTF-8" standalone="no"?>
<svg xmlns:ffdec="https://www.free-decompiler.com/flash" xmlns:xlink="http://www.w3.org/1999/xlink" ffdec:objectType="shape" height="19.5px" width="51.65px" xmlns="http://www.w3.org/2000/svg">
  <g transform="matrix(1.0, 0.0, 0.0, 1.0, 0.0, 0.0)">
    <path d="M46.15 2.7 L46.85 2.7 51.65 13.35 51.6 17.1 51.0 17.1 50.75 17.1 Q49.15 17.1 48.4 17.8 L48.4 19.5 9.85 19.5 Q9.65 18.4 8.55 17.85 L8.35 17.75 8.05 17.65 6.9 17.3 5.5 17.1 4.9 17.1 0.0 6.45 0.0 2.7 0.7 2.7 Q2.25 2.7 3.1 2.0 4.0 1.35 3.55 0.4 L3.35 0.0 41.05 0.0 41.25 0.4 Q41.7 1.35 43.1 2.05 L43.15 2.05 Q44.55 2.7 46.15 2.7" fill="#fcdc25" fill-opacity="0.0" fill-rule="evenodd" stroke="none"/>
  </g>
</svg>
