<?xml version="1.0" encoding="UTF-8" standalone="no"?>
<svg xmlns:ffdec="https://www.free-decompiler.com/flash" xmlns:xlink="http://www.w3.org/1999/xlink" ffdec:objectType="shape" height="63.15px" width="19.85px" xmlns="http://www.w3.org/2000/svg">
  <g transform="matrix(1.0, 0.0, 0.0, 1.0, 7.9, 1.55)">
    <path d="M8.5 58.5 L9.95 56.0 4.4 -0.45 4.4 -0.7 4.55 -1.3 5.3 -1.55 Q7.1 -1.55 9.7 26.9 11.95 51.6 11.95 56.2 L11.95 57.2 11.2 57.4 9.35 59.5 Q7.35 61.6 6.05 61.6 2.35 61.6 1.3 60.5 0.1 59.15 -0.65 53.55 L-2.75 35.35 Q-4.75 19.0 -7.9 0.4 L-7.0 0.25 -6.1 -0.4 -5.95 0.15 Q-2.35 24.8 0.1 48.65 0.75 54.9 1.1 56.4 1.5 58.15 2.45 58.15 3.2 58.15 4.4 58.85 5.65 59.55 6.45 59.55 L7.6 59.25 8.5 58.5" fill="#5c4730" fill-rule="evenodd" stroke="none"/>
    <path d="M1.15 -1.5 Q1.85 5.8 5.05 31.55 8.1 56.55 8.5 58.5 L7.6 59.25 6.45 59.55 Q5.65 59.55 4.4 58.85 3.2 58.15 2.45 58.15 1.5 58.15 1.1 56.4 0.75 54.9 0.1 48.65 -2.35 24.8 -5.95 0.15 L-2.35 -1.55 1.15 -1.5" fill="#f7d3b5" fill-rule="evenodd" stroke="none"/>
    <path d="M1.15 -1.5 Q3.7 -1.25 4.4 -0.7 L4.4 -0.45 9.95 56.0 8.5 58.5 Q8.1 56.55 5.05 31.55 1.85 5.8 1.15 -1.5" fill="#f2c199" fill-rule="evenodd" stroke="none"/>
  </g>
</svg>
