<?xml version="1.0" encoding="UTF-8" standalone="no"?>
<svg xmlns:ffdec="https://www.free-decompiler.com/flash" xmlns:xlink="http://www.w3.org/1999/xlink" ffdec:objectType="shape" height="177.8px" width="109.5px" xmlns="http://www.w3.org/2000/svg">
  <g transform="matrix(1.0, 0.0, 0.0, 1.0, 1.55, 176.1)">
    <path d="M106.3 -174.5 L106.35 -174.5 106.4 -174.5 106.35 -174.3 103.75 -164.35 100.4 -164.35 102.6 -172.75 59.1 -172.75 56.9 -164.35 50.8 -164.35 53.0 -172.75 9.5 -172.75 7.3 -164.35 4.15 -164.35 6.8 -174.5 56.7 -174.5 56.75 -174.5 106.3 -174.5 M91.5 -167.45 Q90.35 -167.8 90.35 -168.3 90.3 -168.8 91.45 -169.2 L94.25 -169.55 96.95 -169.2 Q98.1 -168.8 98.15 -168.3 98.15 -167.8 97.0 -167.45 L94.25 -167.05 91.5 -167.45 M83.4 -168.8 L84.05 -168.2 83.4 -167.6 82.0 -167.35 80.5 -167.6 Q79.9 -167.85 79.9 -168.25 L80.5 -168.8 82.0 -169.05 83.4 -168.8 M0.0 -118.25 L0.0 -130.2 0.9 -126.35 1.1 -126.25 1.2 -126.45 Q1.05 -131.15 1.85 -135.6 2.2 -137.55 3.15 -139.15 L3.5 -139.7 Q4.1 -140.65 5.2 -140.75 L6.05 -140.6 4.8 -137.8 4.75 -137.7 4.0 -135.4 Q3.25 -132.5 3.15 -129.6 L3.15 -128.35 Q3.2 -126.1 3.7 -123.85 L4.0 -122.7 4.45 -121.45 3.6 -120.35 3.15 -119.85 Q2.1 -118.75 0.6 -117.8 L0.0 -118.25 M99.6 -129.75 L99.6 -118.25 99.6 -117.8 Q97.65 -119.4 96.25 -121.4 L96.1 -121.65 95.9 -121.95 95.75 -122.15 96.25 -123.5 96.55 -124.5 Q97.8 -128.9 97.3 -133.5 L96.55 -138.45 96.45 -139.0 96.65 -139.0 Q97.95 -138.9 98.9 -138.3 98.8 -134.05 99.6 -129.75 M82.6 -137.95 L83.15 -138.0 85.45 -137.65 85.55 -137.15 Q85.65 -136.0 85.9 -134.85 L85.95 -134.45 Q86.85 -129.95 88.8 -125.6 L89.0 -125.55 89.1 -125.75 Q88.25 -130.35 88.45 -134.9 L88.75 -137.25 88.95 -137.95 89.45 -139.15 Q89.95 -140.2 91.0 -140.45 L91.05 -140.45 91.5 -140.45 91.95 -140.45 93.05 -140.1 94.25 -138.95 94.45 -138.15 94.7 -136.95 95.25 -133.35 Q95.7 -129.85 94.95 -126.5 L94.8 -125.9 94.4 -124.55 93.75 -122.9 93.3 -121.9 92.3 -120.05 Q91.7 -119.0 90.75 -118.0 L89.7 -117.05 87.5 -118.55 87.4 -118.6 87.1 -118.8 Q85.1 -120.45 83.6 -122.5 81.4 -125.45 80.4 -128.85 L80.25 -129.25 Q81.55 -131.4 82.05 -133.9 L82.1 -134.05 82.55 -137.65 82.6 -137.95 M80.5 -138.6 L80.4 -137.0 80.15 -134.8 80.1 -134.5 80.05 -134.3 79.8 -133.15 79.6 -132.6 Q79.05 -130.95 78.05 -129.45 77.15 -128.2 75.9 -127.1 74.95 -126.2 73.8 -125.45 72.5 -124.6 70.55 -123.95 68.35 -125.75 67.0 -127.8 L66.05 -129.5 65.8 -130.0 Q64.9 -131.9 64.65 -133.8 L64.6 -134.25 Q64.45 -135.6 64.6 -136.9 65.0 -138.75 66.65 -140.0 L66.85 -140.15 67.25 -140.45 Q67.95 -140.95 68.85 -140.9 L69.55 -140.8 70.55 -140.5 70.9 -140.35 71.7 -139.9 Q70.85 -135.35 71.85 -130.35 L72.05 -130.25 72.1 -130.35 Q72.55 -133.95 73.85 -137.15 74.5 -138.8 75.95 -139.95 76.65 -140.55 77.65 -140.5 L77.8 -140.5 79.1 -140.05 79.5 -139.8 80.5 -138.6 M63.6 -141.4 Q62.45 -138.65 62.45 -135.7 62.45 -134.05 62.8 -132.4 L62.9 -132.0 Q63.45 -129.85 64.7 -127.75 L64.6 -127.6 63.5 -126.1 61.7 -124.0 61.55 -123.85 Q60.35 -122.7 58.45 -121.8 56.85 -122.95 55.6 -124.35 L55.4 -124.6 54.45 -125.75 Q55.6 -129.35 55.6 -133.15 L55.4 -138.2 55.4 -138.35 55.35 -138.8 55.0 -140.7 55.75 -140.65 56.9 -140.4 57.25 -140.3 58.0 -139.95 Q57.6 -134.65 59.1 -129.2 L59.3 -129.1 59.4 -129.2 Q59.45 -133.35 60.4 -137.15 60.9 -139.1 62.2 -140.55 62.75 -141.25 63.6 -141.4 M53.15 -138.95 L53.35 -136.9 53.4 -136.7 53.45 -136.25 53.55 -133.25 Q53.55 -130.65 53.0 -128.2 L52.75 -127.25 52.15 -125.45 50.9 -122.95 49.6 -120.85 49.6 -120.75 49.55 -120.7 Q48.45 -119.25 46.65 -118.0 L44.45 -119.8 44.4 -119.85 Q42.95 -121.25 41.8 -123.0 L41.15 -124.1 Q39.8 -126.5 39.05 -129.0 38.6 -130.55 38.45 -132.05 L38.3 -133.45 Q38.35 -135.05 38.95 -136.45 L39.25 -137.2 39.9 -138.35 40.15 -138.7 40.7 -139.2 41.05 -139.45 42.4 -139.65 Q43.7 -139.6 44.65 -139.05 44.7 -133.3 46.4 -127.55 L46.4 -127.5 46.65 -126.6 46.85 -126.5 46.95 -126.7 Q46.65 -131.45 47.3 -135.9 47.65 -138.3 48.8 -140.1 L49.6 -140.9 49.6 -140.65 49.8 -140.7 50.1 -140.8 51.85 -140.35 52.75 -139.55 52.9 -139.35 53.15 -138.95 M37.25 -142.95 L37.1 -142.4 36.6 -140.35 36.15 -136.65 36.1 -134.7 36.1 -134.65 36.4 -131.35 36.85 -129.1 35.75 -127.65 Q34.8 -126.4 33.1 -125.25 30.8 -126.2 29.0 -127.55 L27.15 -129.2 Q25.3 -131.15 24.4 -133.45 23.9 -134.65 23.65 -135.95 23.55 -138.15 25.1 -140.1 L25.5 -140.45 Q26.2 -141.0 27.25 -141.05 L29.55 -140.9 Q30.05 -136.2 32.45 -131.75 L32.7 -131.75 32.75 -131.9 Q32.1 -135.35 32.45 -138.85 32.6 -140.65 33.6 -142.15 34.1 -142.95 35.2 -143.2 L37.25 -142.95 M21.3 -138.45 Q21.3 -136.25 21.95 -134.15 L22.15 -133.5 21.0 -130.45 Q18.8 -125.3 14.5 -122.1 13.15 -121.1 11.8 -120.35 10.2 -119.45 8.05 -119.1 7.4 -120.2 6.9 -121.35 L6.0 -123.9 5.85 -124.6 5.85 -124.65 5.45 -126.85 Q4.85 -131.9 6.55 -136.55 7.2 -137.85 8.15 -138.85 L8.2 -138.9 10.1 -140.35 10.35 -140.5 Q11.6 -141.2 12.75 -140.5 13.95 -139.95 14.6 -139.05 13.05 -135.4 12.25 -131.35 L12.2 -131.25 11.5 -126.95 11.65 -126.75 11.8 -126.95 Q13.35 -131.15 15.6 -134.85 L15.7 -135.0 15.8 -135.2 Q17.0 -137.15 18.85 -138.4 L19.05 -138.5 19.1 -138.55 20.8 -138.7 21.3 -138.45 M47.35 -169.2 Q48.5 -168.8 48.55 -168.3 48.55 -167.8 47.4 -167.45 L44.65 -167.05 41.9 -167.45 Q40.75 -167.8 40.75 -168.3 40.7 -168.8 41.85 -169.2 L44.65 -169.55 47.35 -169.2 M67.95 -169.4 Q67.95 -168.85 66.9 -168.45 L64.35 -168.05 61.8 -168.45 Q60.75 -168.85 60.75 -169.4 60.75 -169.95 61.8 -170.4 L64.35 -170.75 66.9 -170.4 Q67.95 -169.95 67.95 -169.4 M17.3 -168.45 L14.75 -168.05 12.2 -168.45 Q11.15 -168.85 11.15 -169.4 11.15 -169.95 12.2 -170.4 L14.75 -170.75 17.3 -170.4 Q18.35 -169.95 18.35 -169.4 18.35 -168.85 17.3 -168.45 M34.45 -168.2 Q34.4 -167.85 33.8 -167.6 L32.4 -167.35 30.9 -167.6 Q30.3 -167.85 30.3 -168.25 L30.9 -168.8 32.4 -169.05 33.8 -168.8 34.45 -168.2" fill="#74b22b" fill-rule="evenodd" stroke="none"/>
    <path d="M106.35 -174.5 L106.3 -174.5 106.35 -174.65 106.35 -174.5 M56.75 -174.5 L56.7 -174.5 56.75 -174.65 56.75 -174.5 M103.75 -164.35 L106.35 -174.3 106.35 -167.15 106.2 -165.55 106.0 -160.55 105.95 -151.15 105.95 -150.9 105.9 -150.9 105.9 -151.0 105.85 -151.6 105.85 -151.65 105.65 -162.3 105.35 -161.75 105.15 -160.85 105.15 -160.75 105.15 -160.65 105.1 -160.4 105.05 -159.6 104.9 -157.65 104.8 -153.4 104.8 -156.85 104.8 -157.1 104.8 -157.25 104.85 -160.75 104.85 -161.3 104.95 -164.8 104.65 -163.65 104.7 -163.55 104.65 -162.35 104.35 -161.55 104.15 -159.65 104.0 -155.75 Q103.95 -152.05 104.05 -148.95 L104.0 -148.8 104.0 -148.65 Q103.65 -151.85 103.6 -156.3 L103.3 -155.25 103.05 -153.75 103.0 -153.2 102.8 -148.25 102.75 -151.0 102.75 -151.25 102.8 -153.3 102.8 -154.0 102.85 -156.0 102.85 -156.3 102.9 -156.75 102.6 -155.7 102.55 -153.9 102.5 -152.25 102.5 -152.0 102.5 -149.55 102.4 -149.55 102.2 -148.5 102.15 -148.2 101.75 -143.45 101.7 -143.0 101.65 -141.95 101.2 -133.1 101.15 -132.8 101.15 -132.95 101.25 -137.3 101.25 -137.6 101.55 -146.65 101.3 -147.15 Q101.15 -147.25 101.0 -145.9 L100.95 -145.6 100.7 -143.15 100.7 -143.1 100.55 -141.15 100.65 -143.45 100.7 -143.95 100.7 -144.1 100.9 -147.45 100.9 -147.7 100.95 -147.9 100.95 -148.05 100.95 -148.55 100.95 -148.7 101.05 -149.65 100.5 -147.6 100.55 -147.1 100.6 -146.5 100.4 -143.75 100.3 -143.45 100.05 -141.5 100.05 -140.8 99.85 -136.55 99.75 -127.1 99.75 -126.8 99.7 -126.8 99.6 -130.2 99.6 -148.6 103.75 -164.35" fill="#45681a" fill-rule="evenodd" stroke="none"/>
    <path d="M4.15 -164.35 L7.3 -164.35 9.5 -172.75 53.0 -172.75 50.8 -164.35 56.9 -164.35 59.1 -172.75 102.6 -172.75 100.4 -164.35 103.75 -164.35 99.6 -148.6 0.0 -148.6 4.15 -164.35 M83.4 -168.8 L82.0 -169.05 80.5 -168.8 79.9 -168.25 Q79.9 -167.85 80.5 -167.6 L82.0 -167.35 83.4 -167.6 84.05 -168.2 83.4 -168.8 M91.5 -167.45 L94.25 -167.05 97.0 -167.45 Q98.15 -167.8 98.15 -168.3 98.1 -168.8 96.95 -169.2 L94.25 -169.55 91.45 -169.2 Q90.3 -168.8 90.35 -168.3 90.35 -167.8 91.5 -167.45 M90.9 -156.05 L93.6 -155.6 Q94.75 -155.15 94.75 -154.55 94.75 -153.95 93.6 -153.5 L90.9 -153.05 88.15 -153.5 Q87.05 -153.95 87.05 -154.55 87.05 -155.15 88.15 -155.6 L90.9 -156.05 M87.2 -160.8 L88.45 -161.05 89.6 -160.8 Q90.15 -160.5 90.15 -160.1 90.15 -159.7 89.6 -159.45 89.15 -159.15 88.45 -159.15 87.75 -159.15 87.2 -159.45 86.75 -159.7 86.75 -160.1 86.75 -160.5 87.2 -160.8 M100.4 -164.35 L65.75 -164.35 67.35 -164.0 Q68.1 -163.6 68.1 -163.05 68.05 -162.5 67.3 -162.15 L65.55 -161.75 Q64.5 -161.75 63.75 -162.15 63.05 -162.5 63.05 -163.05 63.1 -163.6 63.8 -164.0 64.5 -164.35 65.5 -164.35 L56.9 -164.35 53.25 -150.3 53.2 -150.15 96.7 -150.15 100.4 -164.35 M47.35 -169.2 L44.65 -169.55 41.85 -169.2 Q40.7 -168.8 40.75 -168.3 40.75 -167.8 41.9 -167.45 L44.65 -167.05 47.4 -167.45 Q48.55 -167.8 48.55 -168.3 48.5 -168.8 47.35 -169.2 M41.3 -153.05 L38.55 -153.5 Q37.45 -153.95 37.45 -154.55 37.45 -155.15 38.55 -155.6 L41.3 -156.05 44.0 -155.6 Q45.15 -155.15 45.15 -154.55 45.15 -153.95 44.0 -153.5 L41.3 -153.05 M59.0 -155.95 L60.95 -156.25 62.8 -155.95 Q63.6 -155.6 63.65 -155.15 63.6 -154.7 62.85 -154.4 L60.95 -154.05 Q59.85 -154.05 59.05 -154.4 58.2 -154.7 58.2 -155.15 58.2 -155.6 59.0 -155.95 M50.8 -164.35 L16.15 -164.35 17.75 -164.0 Q18.5 -163.6 18.5 -163.05 18.45 -162.5 17.7 -162.15 L15.95 -161.75 Q14.9 -161.75 14.15 -162.15 13.45 -162.5 13.45 -163.05 13.5 -163.6 14.2 -164.0 L15.9 -164.35 7.3 -164.35 3.6 -150.15 47.1 -150.15 50.8 -164.35 M67.95 -169.4 Q67.95 -169.95 66.9 -170.4 L64.35 -170.75 61.8 -170.4 Q60.75 -169.95 60.75 -169.4 60.75 -168.85 61.8 -168.45 L64.35 -168.05 66.9 -168.45 Q67.95 -168.85 67.95 -169.4 M80.1 -159.85 Q80.1 -159.25 78.9 -158.85 L75.95 -158.45 72.95 -158.85 Q71.7 -159.25 71.7 -159.85 71.75 -160.45 72.95 -160.85 L75.95 -161.25 78.9 -160.85 Q80.15 -160.45 80.1 -159.85 M72.6 -154.95 L74.1 -154.8 74.75 -154.25 Q74.75 -153.95 74.1 -153.75 L72.6 -153.55 71.05 -153.75 Q70.45 -153.95 70.4 -154.25 L71.05 -154.8 72.6 -154.95 M17.3 -168.45 Q18.35 -168.85 18.35 -169.4 18.35 -169.95 17.3 -170.4 L14.75 -170.75 12.2 -170.4 Q11.15 -169.95 11.15 -169.4 11.15 -168.85 12.2 -168.45 L14.75 -168.05 17.3 -168.45 M8.6 -155.15 Q8.6 -155.6 9.4 -155.95 L11.35 -156.25 13.2 -155.95 Q14.0 -155.6 14.05 -155.15 14.0 -154.7 13.25 -154.4 L11.35 -154.05 9.45 -154.4 Q8.6 -154.7 8.6 -155.15 M34.45 -168.2 L33.8 -168.8 32.4 -169.05 30.9 -168.8 30.3 -168.25 Q30.3 -167.85 30.9 -167.6 L32.4 -167.35 33.8 -167.6 Q34.4 -167.85 34.45 -168.2 M26.35 -158.45 L23.35 -158.85 Q22.1 -159.25 22.1 -159.85 22.15 -160.45 23.35 -160.85 L26.35 -161.25 29.3 -160.85 Q30.55 -160.45 30.5 -159.85 30.5 -159.25 29.3 -158.85 L26.35 -158.45 M23.0 -154.95 L24.5 -154.8 25.15 -154.25 Q25.15 -153.95 24.5 -153.75 L23.0 -153.55 21.45 -153.75 Q20.85 -153.95 20.8 -154.25 L21.45 -154.8 23.0 -154.95 M37.6 -159.45 Q37.15 -159.7 37.15 -160.1 37.15 -160.5 37.6 -160.8 L38.85 -161.05 40.0 -160.8 Q40.55 -160.5 40.55 -160.1 40.55 -159.7 40.0 -159.45 39.55 -159.15 38.85 -159.15 L37.6 -159.45" fill="#8dd03c" fill-rule="evenodd" stroke="none"/>
    <path d="M87.2 -160.8 Q86.75 -160.5 86.75 -160.1 86.75 -159.7 87.2 -159.45 87.75 -159.15 88.45 -159.15 89.15 -159.15 89.6 -159.45 90.15 -159.7 90.15 -160.1 90.15 -160.5 89.6 -160.8 L88.45 -161.05 87.2 -160.8 M90.9 -156.05 L88.15 -155.6 Q87.05 -155.15 87.05 -154.55 87.05 -153.95 88.15 -153.5 L90.9 -153.05 93.6 -153.5 Q94.75 -153.95 94.75 -154.55 94.75 -155.15 93.6 -155.6 L90.9 -156.05 M100.4 -164.35 L96.7 -150.15 53.2 -150.15 53.25 -150.3 56.9 -164.35 65.5 -164.35 Q64.5 -164.35 63.8 -164.0 63.1 -163.6 63.05 -163.05 63.05 -162.5 63.75 -162.15 64.5 -161.75 65.55 -161.75 L67.3 -162.15 Q68.05 -162.5 68.1 -163.05 68.1 -163.6 67.35 -164.0 L65.75 -164.35 100.4 -164.35 M59.0 -155.95 Q58.2 -155.6 58.2 -155.15 58.2 -154.7 59.05 -154.4 59.85 -154.05 60.95 -154.05 L62.85 -154.4 Q63.6 -154.7 63.65 -155.15 63.6 -155.6 62.8 -155.95 L60.95 -156.25 59.0 -155.95 M41.3 -153.05 L44.0 -153.5 Q45.15 -153.95 45.15 -154.55 45.15 -155.15 44.0 -155.6 L41.3 -156.05 38.55 -155.6 Q37.45 -155.15 37.45 -154.55 37.45 -153.95 38.55 -153.5 L41.3 -153.05 M50.8 -164.35 L47.1 -150.15 3.6 -150.15 7.3 -164.35 15.9 -164.35 14.2 -164.0 Q13.5 -163.6 13.45 -163.05 13.45 -162.5 14.15 -162.15 14.9 -161.75 15.95 -161.75 L17.7 -162.15 Q18.45 -162.5 18.5 -163.05 18.5 -163.6 17.75 -164.0 L16.15 -164.35 50.8 -164.35 M72.6 -154.95 L71.05 -154.8 70.4 -154.25 Q70.45 -153.95 71.05 -153.75 L72.6 -153.55 74.1 -153.75 Q74.75 -153.95 74.75 -154.25 L74.1 -154.8 72.6 -154.95 M80.1 -159.85 Q80.15 -160.45 78.9 -160.85 L75.95 -161.25 72.95 -160.85 Q71.75 -160.45 71.7 -159.85 71.7 -159.25 72.95 -158.85 L75.95 -158.45 78.9 -158.85 Q80.1 -159.25 80.1 -159.85 M8.6 -155.15 Q8.6 -154.7 9.45 -154.4 L11.35 -154.05 13.25 -154.4 Q14.0 -154.7 14.05 -155.15 14.0 -155.6 13.2 -155.95 L11.35 -156.25 9.4 -155.95 Q8.6 -155.6 8.6 -155.15 M37.6 -159.45 L38.85 -159.15 Q39.55 -159.15 40.0 -159.45 40.55 -159.7 40.55 -160.1 40.55 -160.5 40.0 -160.8 L38.85 -161.05 37.6 -160.8 Q37.15 -160.5 37.15 -160.1 37.15 -159.7 37.6 -159.45 M23.0 -154.95 L21.45 -154.8 20.8 -154.25 Q20.85 -153.95 21.45 -153.75 L23.0 -153.55 24.5 -153.75 Q25.15 -153.95 25.15 -154.25 L24.5 -154.8 23.0 -154.95 M26.35 -158.45 L29.3 -158.85 Q30.5 -159.25 30.5 -159.85 30.55 -160.45 29.3 -160.85 L26.35 -161.25 23.35 -160.85 Q22.15 -160.45 22.1 -159.85 22.1 -159.25 23.35 -158.85 L26.35 -158.45" fill="#a8db6a" fill-rule="evenodd" stroke="none"/>
    <path d="M100.4 -143.75 L100.6 -146.5 100.55 -147.1 100.5 -147.6 101.05 -149.65 100.95 -148.7 100.95 -148.55 100.95 -148.05 100.95 -147.9 100.9 -147.7 100.9 -147.45 100.7 -144.1 100.7 -143.95 100.65 -143.45 100.55 -141.15 100.5 -139.95 Q100.25 -134.45 100.35 -129.7 L100.4 -127.65 100.4 -127.55 100.4 -127.05 100.55 -124.95 100.7 -123.3 101.2 -126.5 101.55 -129.65 102.45 -141.4 102.6 -145.05 102.55 -145.6 102.5 -149.55 102.5 -152.0 102.5 -152.25 102.55 -153.9 102.6 -155.7 102.9 -156.75 102.85 -156.3 102.85 -156.0 102.8 -154.0 102.8 -153.3 102.75 -151.25 102.75 -151.0 102.8 -148.25 102.9 -146.15 Q103.0 -144.35 103.25 -143.35 L103.5 -142.65 103.55 -142.6 Q103.75 -142.25 104.05 -142.5 L104.45 -146.3 104.6 -148.3 104.5 -150.3 104.5 -153.45 104.5 -153.65 104.6 -161.75 104.65 -162.35 104.7 -163.55 104.65 -163.65 104.95 -164.8 104.85 -161.3 104.85 -160.75 104.8 -157.25 104.8 -157.1 104.8 -156.85 104.8 -153.4 104.8 -152.1 104.9 -149.35 105.15 -145.55 105.25 -144.85 105.25 -144.8 105.6 -142.95 105.9 -142.3 106.3 -146.5 106.35 -147.25 106.35 -144.25 106.25 -142.9 106.0 -140.6 105.9 -140.15 105.9 -140.1 Q105.65 -140.0 105.4 -140.55 L105.1 -141.9 105.05 -142.4 105.05 -142.45 104.65 -146.45 104.4 -143.6 104.15 -141.45 104.1 -140.95 Q103.65 -140.0 103.35 -140.55 L103.25 -140.7 Q102.95 -141.4 102.75 -143.05 L102.7 -141.45 102.0 -131.4 100.95 -122.75 100.65 -121.1 100.6 -120.85 100.35 -122.3 100.05 -118.85 100.0 -118.65 99.75 -116.35 99.7 -115.9 99.6 -115.9 99.6 -117.8 99.6 -118.25 99.7 -118.1 100.05 -121.5 100.05 -121.6 100.1 -122.25 100.2 -123.75 100.15 -124.65 100.15 -124.8 100.1 -125.8 100.05 -127.8 100.1 -134.25 100.15 -137.5 100.25 -140.15 100.4 -143.75" fill="#355014" fill-rule="evenodd" stroke="none"/>
    <path d="M100.55 -141.15 L100.7 -143.1 100.7 -143.15 100.95 -145.6 101.0 -145.9 Q101.15 -147.25 101.3 -147.15 L101.55 -146.65 101.25 -137.6 101.25 -137.3 101.15 -132.95 101.15 -132.8 101.2 -133.1 101.65 -141.95 101.7 -143.0 101.75 -143.45 102.15 -148.2 102.2 -148.5 102.4 -149.55 102.5 -149.55 102.55 -145.6 102.6 -145.05 102.45 -141.4 101.55 -129.65 101.2 -126.5 100.7 -123.3 100.55 -124.95 100.4 -127.05 100.4 -127.55 100.4 -127.65 100.35 -129.7 Q100.25 -134.45 100.5 -139.95 L100.55 -141.15 M102.8 -148.25 L103.0 -153.2 103.05 -153.75 103.3 -155.25 103.6 -156.3 Q103.65 -151.85 104.0 -148.65 L104.0 -148.8 104.05 -148.95 Q103.95 -152.05 104.0 -155.75 L104.15 -159.65 104.35 -161.55 104.65 -162.35 104.6 -161.75 104.5 -153.65 104.5 -153.45 104.5 -150.3 104.6 -148.3 104.45 -146.3 104.05 -142.5 Q103.75 -142.25 103.55 -142.6 L103.5 -142.65 103.25 -143.35 Q103.0 -144.35 102.9 -146.15 L102.8 -148.25 M104.8 -153.4 L104.9 -157.65 105.05 -159.6 105.1 -160.4 105.15 -160.65 105.15 -160.75 105.15 -160.85 105.35 -161.75 105.65 -162.3 105.85 -151.65 105.85 -151.6 105.9 -151.0 105.9 -150.9 105.95 -150.9 105.95 -151.15 106.0 -160.55 106.2 -165.55 106.35 -167.15 106.35 -147.25 106.3 -146.5 105.9 -142.3 105.6 -142.95 105.25 -144.8 105.25 -144.85 105.15 -145.55 104.9 -149.35 104.8 -152.1 104.8 -153.4 M99.6 -130.2 L99.7 -126.8 99.75 -126.8 99.75 -127.1 99.85 -136.55 100.05 -140.8 100.05 -141.5 100.3 -143.45 100.4 -143.75 100.25 -140.15 100.15 -137.5 100.1 -134.25 100.05 -127.8 100.1 -125.8 100.15 -124.8 100.15 -124.65 100.2 -123.75 100.1 -122.25 100.05 -121.6 100.05 -121.5 99.7 -118.1 99.6 -118.25 99.6 -129.75 99.6 -130.2" fill="#55811f" fill-rule="evenodd" stroke="none"/>
    <path d="M105.9 -140.1 L105.9 -125.95 103.4 -116.3 105.4 -140.55 Q105.65 -140.0 105.9 -140.1 M102.3 -112.05 L100.05 -103.3 100.05 -103.4 103.35 -140.55 Q103.65 -140.0 104.1 -140.95 L104.15 -141.45 104.4 -143.6 104.65 -146.45 105.05 -142.45 105.05 -142.4 102.3 -112.05 M106.1 -120.55 L106.1 -103.1 102.5 -63.05 100.25 -54.3 100.25 -54.4 106.1 -120.55 M106.1 -97.65 L106.1 -76.95 103.6 -67.3 106.1 -97.65 M101.4 -102.4 L103.25 -109.5 100.25 -74.5 100.25 -88.7 101.4 -102.4 M105.9 -70.75 L105.9 -53.3 102.3 -13.25 100.05 -4.5 100.05 -4.6 105.9 -70.75 M105.9 -47.85 L105.9 -27.15 103.4 -17.5 105.9 -47.85 M100.05 -24.7 L100.05 -38.9 101.2 -52.6 103.05 -59.7 100.05 -24.7" fill="#787143" fill-rule="evenodd" stroke="none"/>
    <path d="M103.4 -116.3 L102.3 -112.05 105.05 -142.4 105.1 -141.9 105.4 -140.55 103.4 -116.3 M100.05 -103.4 L100.05 -118.85 100.35 -122.3 100.6 -120.85 100.65 -121.1 100.95 -122.75 102.0 -131.4 102.7 -141.45 102.75 -143.05 Q102.95 -141.4 103.25 -140.7 L103.35 -140.55 100.05 -103.4 M106.1 -120.55 L100.25 -54.4 100.25 -74.5 103.25 -109.5 106.1 -120.55 M102.5 -63.05 L106.1 -103.1 106.1 -97.65 103.6 -67.3 102.5 -63.05 M100.25 -88.7 L100.25 -97.9 101.4 -102.4 100.25 -88.7 M103.05 -59.7 L105.9 -70.75 100.05 -4.6 100.05 -24.7 103.05 -59.7 M105.9 -53.3 L105.9 -47.85 103.4 -17.5 102.3 -13.25 105.9 -53.3 M100.05 -38.9 L100.05 -48.1 101.2 -52.6 100.05 -38.9" fill="#948b52" fill-rule="evenodd" stroke="none"/>
    <path d="M106.3 -174.5 L56.75 -174.5 56.75 -174.65 56.7 -174.5 6.8 -174.5 4.15 -164.35 0.0 -148.6 0.0 -130.2 0.0 -118.25 0.0 -115.9 0.0 -98.6 0.0 -50.05 -0.1 -49.7 0.0 -49.7 0.0 0.2 49.6 0.2 99.6 0.2 99.6 -49.6 99.8 -49.6 99.8 -99.35 99.6 -98.6 99.6 -115.45 99.6 -115.9 99.7 -115.9 99.75 -116.35 100.0 -118.65 100.05 -118.85 100.05 -103.4 100.05 -103.3 102.3 -112.05 103.4 -116.3 105.9 -125.95 105.9 -140.1 105.9 -140.15 106.0 -140.6 106.25 -142.9 106.35 -144.25 106.35 -147.25 106.35 -167.15 106.35 -174.3 106.4 -174.5 106.35 -174.5 106.35 -174.65 106.3 -174.5 M106.4 -124.65 L106.6 -125.5 106.6 -125.55 106.35 -125.55 106.35 -124.65 106.2 -123.9 106.4 -124.65 M106.1 -103.1 L106.1 -120.55 103.25 -109.5 101.4 -102.4 100.25 -97.9 100.25 -88.7 100.25 -74.5 100.25 -54.4 100.25 -54.3 102.5 -63.05 103.6 -67.3 106.1 -76.95 106.1 -97.65 106.1 -103.1 M105.9 -70.75 L103.05 -59.7 101.2 -52.6 100.05 -48.1 100.05 -38.9 100.05 -24.7 100.05 -4.6 100.05 -4.5 102.3 -13.25 103.4 -17.5 105.9 -27.15 105.9 -47.85 105.9 -53.3 105.9 -70.75 M107.95 -176.1 L107.85 -25.65 100.75 1.7 -1.55 1.7 -1.5 -148.8 5.65 -176.0 107.95 -176.1" fill="#5c5634" fill-rule="evenodd" stroke="none"/>
    <path d="M0.0 -49.7 L-0.1 -49.7 0.0 -50.05 0.0 -49.85 49.65 -49.85 49.6 -49.8 49.6 -49.7 0.0 -49.7 M106.4 -124.65 L106.2 -123.9 106.35 -124.65 106.35 -125.55 106.6 -125.55 106.6 -125.5 106.6 -125.45 106.4 -124.65" fill="#bdb386" fill-rule="evenodd" stroke="none"/>
    <path d="M106.6 -125.5 L106.4 -124.65 106.6 -125.45 106.6 -125.5" fill="#94552c" fill-rule="evenodd" stroke="none"/>
    <path d="M106.6 -125.5 L106.6 -125.45 106.6 -125.5" fill="#c67d48" fill-rule="evenodd" stroke="none"/>
    <path d="M0.0 -130.2 L0.0 -148.6 99.6 -148.6 99.6 -130.2 99.6 -129.75 Q98.8 -134.05 98.9 -138.3 97.95 -138.9 96.65 -139.0 L96.45 -139.0 96.25 -139.7 94.8 -143.25 94.6 -143.55 94.55 -143.65 92.3 -143.65 92.45 -143.35 93.1 -142.1 93.25 -141.75 93.35 -141.55 94.25 -138.95 93.05 -140.1 91.95 -140.45 91.5 -140.45 91.05 -140.45 91.0 -140.45 Q89.95 -140.2 89.45 -139.15 L88.95 -137.95 88.75 -137.25 88.45 -134.9 Q88.25 -130.35 89.1 -125.75 L89.0 -125.55 88.8 -125.6 Q86.85 -129.95 85.95 -134.45 L85.9 -134.85 Q85.65 -136.0 85.55 -137.15 L85.45 -137.65 83.15 -138.0 82.6 -137.95 Q82.65 -139.65 82.15 -141.35 L81.15 -143.65 79.2 -143.65 79.85 -142.3 79.95 -142.0 80.25 -140.95 80.5 -138.6 79.5 -139.8 79.1 -140.05 77.8 -140.5 77.65 -140.5 Q76.65 -140.55 75.95 -139.95 74.5 -138.8 73.85 -137.15 72.55 -133.95 72.1 -130.35 L72.05 -130.25 71.85 -130.35 Q70.85 -135.35 71.7 -139.9 L70.9 -140.35 70.55 -140.5 69.55 -140.8 68.85 -140.9 Q67.95 -140.95 67.25 -140.45 L66.85 -140.15 66.65 -140.0 Q65.0 -138.75 64.6 -136.9 L65.2 -139.7 65.65 -140.95 66.2 -142.5 66.25 -142.55 66.9 -143.65 64.75 -143.65 63.6 -141.4 Q62.75 -141.25 62.2 -140.55 60.9 -139.1 60.4 -137.15 59.45 -133.35 59.4 -129.2 L59.3 -129.1 59.1 -129.2 Q57.6 -134.65 58.0 -139.95 L57.25 -140.3 56.9 -140.4 55.75 -140.65 55.0 -140.7 53.95 -143.65 51.75 -143.65 51.8 -143.55 52.3 -142.25 52.75 -140.7 53.05 -139.5 53.15 -138.95 52.9 -139.35 52.75 -139.55 51.85 -140.35 50.1 -140.8 49.8 -140.7 49.6 -140.65 49.6 -140.9 48.8 -140.1 Q47.65 -138.3 47.3 -135.9 46.65 -131.45 46.95 -126.7 L46.85 -126.5 46.65 -126.6 46.4 -127.5 46.4 -127.55 Q44.7 -133.3 44.65 -139.05 43.7 -139.6 42.4 -139.65 L41.05 -139.45 40.7 -139.2 40.15 -138.7 39.9 -138.35 39.25 -137.2 38.95 -136.45 Q38.35 -135.05 38.3 -133.45 L38.3 -136.15 38.35 -136.85 38.35 -137.25 38.75 -140.35 38.75 -140.55 38.8 -141.1 Q39.05 -142.65 39.7 -144.1 L37.5 -144.1 37.6 -143.95 37.25 -142.95 35.2 -143.2 Q34.1 -142.95 33.6 -142.15 32.6 -140.65 32.45 -138.85 32.1 -135.35 32.75 -131.9 L32.7 -131.75 32.45 -131.75 Q30.05 -136.2 29.55 -140.9 L27.25 -141.05 Q26.2 -141.0 25.5 -140.45 L25.1 -140.1 Q23.55 -138.15 23.65 -135.95 L23.45 -138.8 23.45 -139.05 Q23.4 -140.05 23.5 -141.05 L23.55 -141.75 Q23.7 -142.8 24.1 -143.75 L24.15 -143.85 24.25 -144.1 22.3 -144.1 21.8 -142.55 21.5 -141.1 21.5 -141.05 Q21.25 -139.75 21.3 -138.45 L20.8 -138.7 19.1 -138.55 19.05 -138.5 18.85 -138.4 Q17.0 -137.15 15.8 -135.2 L15.7 -135.0 15.6 -134.85 Q13.35 -131.15 11.8 -126.95 L11.65 -126.75 11.5 -126.95 12.2 -131.25 12.25 -131.35 Q13.05 -135.4 14.6 -139.05 13.95 -139.95 12.75 -140.5 11.6 -141.2 10.35 -140.5 L10.1 -140.35 8.2 -138.9 8.15 -138.85 Q7.2 -137.85 6.55 -136.55 L7.85 -139.35 8.05 -139.75 8.1 -139.9 9.55 -142.45 10.05 -143.3 10.15 -143.4 10.45 -143.8 10.65 -144.1 6.75 -144.1 7.0 -143.45 7.3 -142.7 6.05 -140.6 5.2 -140.75 Q4.1 -140.65 3.5 -139.7 L3.15 -139.15 Q2.2 -137.55 1.85 -135.6 1.05 -131.15 1.2 -126.45 L1.1 -126.25 0.9 -126.35 0.0 -130.2" fill="#5f8f23" fill-rule="evenodd" stroke="none"/>
    <path d="M99.6 -115.9 L99.6 -115.45 Q97.75 -116.5 96.25 -117.95 L94.6 -119.85 Q93.6 -118.15 92.2 -116.7 L90.5 -115.2 90.1 -114.95 90.0 -114.9 89.7 -115.0 Q87.55 -115.75 85.8 -117.05 L85.5 -117.25 83.55 -119.05 Q80.3 -122.65 78.75 -127.15 L77.15 -125.6 75.35 -124.3 Q74.2 -123.65 72.85 -123.1 L70.8 -122.4 70.3 -122.3 Q68.25 -123.45 66.8 -124.9 L65.9 -125.9 Q64.65 -124.05 63.0 -122.6 62.0 -121.8 60.85 -121.1 L58.9 -120.05 58.4 -119.9 Q55.95 -121.05 54.2 -122.85 L53.95 -123.1 53.6 -123.45 52.75 -121.85 Q51.45 -119.55 49.6 -117.75 L49.6 -117.8 49.05 -117.35 47.2 -116.0 46.7 -115.8 46.65 -115.8 Q44.6 -116.75 43.0 -118.15 L42.95 -118.2 Q41.75 -119.3 40.75 -120.65 L40.2 -121.45 Q38.5 -124.05 37.5 -126.9 L35.55 -125.1 Q34.75 -124.4 33.8 -123.85 L33.3 -123.6 Q30.05 -124.35 27.6 -126.15 L27.05 -126.6 Q24.75 -128.5 23.4 -130.85 L22.85 -129.55 Q20.95 -125.3 17.75 -122.15 14.35 -118.85 10.0 -117.55 L7.8 -117.05 7.25 -117.05 Q6.2 -118.15 5.45 -119.45 L3.15 -117.2 3.0 -117.1 1.1 -115.8 0.6 -115.6 0.0 -115.9 0.0 -118.25 0.6 -117.8 Q2.1 -118.75 3.15 -119.85 L3.6 -120.35 4.45 -121.45 4.0 -122.7 3.7 -123.85 Q3.2 -126.1 3.15 -128.35 L3.15 -129.6 Q3.25 -132.5 4.0 -135.4 L4.75 -137.7 4.8 -137.8 6.05 -140.6 7.3 -142.7 7.0 -143.45 6.75 -144.1 10.65 -144.1 10.45 -143.8 10.15 -143.4 10.05 -143.3 9.55 -142.45 8.1 -139.9 8.05 -139.75 7.85 -139.35 6.55 -136.55 Q4.85 -131.9 5.45 -126.85 L5.85 -124.65 5.85 -124.6 6.0 -123.9 6.9 -121.35 Q7.4 -120.2 8.05 -119.1 10.2 -119.45 11.8 -120.35 13.15 -121.1 14.5 -122.1 18.8 -125.3 21.0 -130.45 L22.15 -133.5 21.95 -134.15 Q21.3 -136.25 21.3 -138.45 21.25 -139.75 21.5 -141.05 L21.5 -141.1 21.8 -142.55 22.3 -144.1 24.25 -144.1 24.15 -143.85 24.1 -143.75 Q23.7 -142.8 23.55 -141.75 L23.5 -141.05 Q23.4 -140.05 23.45 -139.05 L23.45 -138.8 23.65 -135.95 Q23.9 -134.65 24.4 -133.45 25.3 -131.15 27.15 -129.2 L29.0 -127.55 Q30.8 -126.2 33.1 -125.25 34.8 -126.4 35.75 -127.65 L36.85 -129.1 36.4 -131.35 36.1 -134.65 36.1 -134.7 36.15 -136.65 36.6 -140.35 37.1 -142.4 37.25 -142.95 37.6 -143.95 37.5 -144.1 39.7 -144.1 Q39.05 -142.65 38.8 -141.1 L38.75 -140.55 38.75 -140.35 38.35 -137.25 38.35 -136.85 38.3 -136.15 38.3 -133.45 38.45 -132.05 Q38.6 -130.55 39.05 -129.0 39.8 -126.5 41.15 -124.1 L41.8 -123.0 Q42.95 -121.25 44.4 -119.85 L44.45 -119.8 46.65 -118.0 Q48.45 -119.25 49.55 -120.7 L49.6 -120.75 49.6 -120.85 50.9 -122.95 52.15 -125.45 52.75 -127.25 53.0 -128.2 Q53.55 -130.65 53.55 -133.25 L53.45 -136.25 53.4 -136.7 53.35 -136.9 53.15 -138.95 53.05 -139.5 52.75 -140.7 52.3 -142.25 51.8 -143.55 51.75 -143.65 53.95 -143.65 55.0 -140.7 55.35 -138.8 55.4 -138.35 55.4 -138.2 55.6 -133.15 Q55.6 -129.35 54.45 -125.75 L55.4 -124.6 55.6 -124.35 Q56.85 -122.95 58.45 -121.8 60.35 -122.7 61.55 -123.85 L61.7 -124.0 63.5 -126.1 64.6 -127.6 64.7 -127.75 Q63.45 -129.85 62.9 -132.0 L62.8 -132.4 Q62.45 -134.05 62.45 -135.7 62.45 -138.65 63.6 -141.4 L64.75 -143.65 66.9 -143.65 66.25 -142.55 66.2 -142.5 65.65 -140.95 65.2 -139.7 64.6 -136.9 Q64.45 -135.6 64.6 -134.25 L64.65 -133.8 Q64.9 -131.9 65.8 -130.0 L66.05 -129.5 67.0 -127.8 Q68.35 -125.75 70.55 -123.95 72.5 -124.6 73.8 -125.45 74.95 -126.2 75.9 -127.1 77.15 -128.2 78.05 -129.45 79.05 -130.95 79.6 -132.6 L79.8 -133.15 80.05 -134.3 80.1 -134.5 80.15 -134.8 80.4 -137.0 80.5 -138.6 80.25 -140.95 79.95 -142.0 79.85 -142.3 79.2 -143.65 81.15 -143.65 82.15 -141.35 Q82.65 -139.65 82.6 -137.95 L82.55 -137.65 82.1 -134.05 82.05 -133.9 Q81.55 -131.4 80.25 -129.25 L80.4 -128.85 Q81.4 -125.45 83.6 -122.5 85.1 -120.45 87.1 -118.8 L87.4 -118.6 87.5 -118.55 89.7 -117.05 90.75 -118.0 Q91.7 -119.0 92.3 -120.05 L93.3 -121.9 93.75 -122.9 94.4 -124.55 94.8 -125.9 94.95 -126.5 Q95.7 -129.85 95.25 -133.35 L94.7 -136.95 94.45 -138.15 94.25 -138.95 93.35 -141.55 93.25 -141.75 93.1 -142.1 92.45 -143.35 92.3 -143.65 94.55 -143.65 94.6 -143.55 94.8 -143.25 96.25 -139.7 96.45 -139.0 96.55 -138.45 97.3 -133.5 Q97.8 -128.9 96.55 -124.5 L96.25 -123.5 95.75 -122.15 95.9 -121.95 96.1 -121.65 96.25 -121.4 Q97.65 -119.4 99.6 -117.8 L99.6 -115.9" fill="#486d1b" fill-rule="evenodd" stroke="none"/>
    <path d="M99.6 -115.45 L99.6 -98.6 99.8 -99.35 99.8 -49.6 99.6 -49.6 99.6 0.2 49.6 0.2 0.0 0.2 3.05 -2.85 3.15 -2.85 20.0 -2.85 28.15 -2.85 46.65 -2.85 46.65 -23.55 46.65 -29.0 46.65 -46.45 49.6 -49.4 49.6 0.2 52.65 -2.85 52.75 -2.85 69.6 -2.85 77.75 -2.85 96.25 -2.85 96.25 -23.55 96.25 -29.0 96.25 -46.45 99.4 -49.6 49.8 -49.6 52.85 -52.65 52.95 -52.65 69.8 -52.65 77.95 -52.65 96.45 -52.65 96.45 -73.35 96.45 -78.8 96.45 -96.25 98.8 -98.6 49.8 -98.6 49.8 -49.85 49.75 -49.85 49.65 -49.85 0.0 -49.85 3.05 -52.9 3.15 -52.9 20.0 -52.9 28.15 -52.9 46.65 -52.9 46.65 -73.6 46.65 -79.05 46.65 -96.5 48.75 -98.6 0.0 -98.6 3.05 -101.65 3.15 -101.65 20.0 -101.65 28.15 -101.65 46.65 -101.65 46.65 -115.8 46.7 -115.8 47.2 -116.0 49.05 -117.35 49.6 -117.8 49.6 -117.75 49.6 -98.6 52.65 -101.65 52.75 -101.65 69.6 -101.65 77.75 -101.65 96.25 -101.65 96.25 -117.95 Q97.75 -116.5 99.6 -115.45" fill="#8e844f" fill-rule="evenodd" stroke="none"/>
    <path d="M96.25 -117.95 L96.25 -101.65 77.75 -101.65 89.7 -115.0 90.0 -114.9 90.1 -114.95 90.5 -115.2 92.2 -116.7 Q93.6 -118.15 94.6 -119.85 L96.25 -117.95 M69.6 -101.65 L52.75 -101.65 52.75 -101.75 75.35 -124.3 77.15 -125.6 78.75 -127.15 Q80.3 -122.65 83.55 -119.05 L85.5 -117.25 69.6 -101.65 M46.65 -96.5 L46.65 -79.05 20.0 -52.9 3.15 -52.9 3.15 -53.0 46.65 -96.5 M46.65 -73.6 L46.65 -52.9 28.15 -52.9 46.65 -73.6 M96.25 -46.45 L96.25 -29.0 69.6 -2.85 52.75 -2.85 52.75 -2.95 96.25 -46.45 M96.25 -23.55 L96.25 -2.85 77.75 -2.85 96.25 -23.55 M14.8 -106.85 Q14.0 -106.85 13.45 -107.4 12.9 -107.95 12.9 -108.75 12.9 -109.55 13.45 -110.1 14.0 -110.65 14.8 -110.65 15.6 -110.65 16.15 -110.1 16.7 -109.55 16.7 -108.75 16.7 -107.95 16.15 -107.4 15.6 -106.85 14.8 -106.85 M31.0 -117.25 Q30.35 -116.6 29.4 -116.6 28.45 -116.6 27.8 -117.25 27.15 -117.9 27.15 -118.85 27.15 -119.8 27.8 -120.45 28.45 -121.1 29.4 -121.1 30.35 -121.1 31.0 -120.45 31.65 -119.8 31.65 -118.85 31.65 -117.9 31.0 -117.25 M40.1 -108.2 Q40.6 -108.65 41.3 -108.65 42.0 -108.65 42.45 -108.2 42.95 -107.7 42.95 -107.0 42.95 -106.3 42.45 -105.85 42.0 -105.35 41.3 -105.35 40.6 -105.35 40.1 -105.85 39.65 -106.3 39.65 -107.0 39.65 -107.7 40.1 -108.2 M63.0 -122.6 Q64.65 -124.05 65.9 -125.9 L66.8 -124.9 66.5 -123.8 66.0 -123.15 Q65.25 -122.35 64.15 -122.35 L63.0 -122.6 M53.95 -123.1 L52.75 -121.85 53.6 -123.45 53.95 -123.1 M89.7 -89.5 L89.7 -89.35 Q89.7 -88.4 89.05 -87.75 88.4 -87.1 87.45 -87.1 L87.3 -87.1 Q86.45 -87.15 85.85 -87.75 85.2 -88.4 85.2 -89.35 85.2 -90.3 85.85 -90.95 86.5 -91.6 87.45 -91.6 88.4 -91.6 89.05 -90.95 89.65 -90.35 89.7 -89.5 M61.75 -85.75 Q61.75 -85.25 61.4 -84.95 61.1 -84.6 60.6 -84.6 60.1 -84.6 59.75 -84.95 59.45 -85.25 59.45 -85.75 59.45 -86.25 59.75 -86.6 60.1 -86.9 60.6 -86.9 L61.4 -86.6 61.75 -85.75 M41.1 -69.65 L41.15 -69.15 41.05 -68.55 40.65 -67.95 Q40.15 -67.45 39.45 -67.45 L38.9 -67.55 38.25 -67.95 Q37.75 -68.45 37.75 -69.15 37.75 -69.85 38.25 -70.35 38.75 -70.85 39.45 -70.85 40.15 -70.85 40.65 -70.35 L40.75 -70.25 Q40.75 -69.9 41.1 -69.65 M79.2 -67.6 Q78.25 -67.6 77.6 -68.25 76.95 -68.9 76.95 -69.85 76.95 -70.8 77.6 -71.45 78.25 -72.1 79.2 -72.1 80.15 -72.1 80.8 -71.45 81.45 -70.8 81.45 -69.85 81.45 -68.9 80.8 -68.25 80.15 -67.6 79.2 -67.6 M65.95 -58.4 Q65.4 -57.85 64.6 -57.85 63.8 -57.85 63.25 -58.4 62.7 -58.95 62.7 -59.75 62.7 -60.55 63.25 -61.1 63.8 -61.65 64.6 -61.65 65.4 -61.65 65.95 -61.1 66.5 -60.55 66.5 -59.75 66.5 -58.95 65.95 -58.4 M34.85 -86.4 Q33.8 -85.3 32.3 -85.3 30.8 -85.3 29.7 -86.4 28.65 -87.45 28.65 -88.95 28.65 -90.45 29.7 -91.55 30.8 -92.6 32.3 -92.6 33.8 -92.6 34.85 -91.55 35.95 -90.45 35.95 -88.95 35.95 -87.45 34.85 -86.4 M11.8 -96.5 L25.45 -96.5 3.15 -73.1 3.15 -87.3 11.8 -96.5 M14.55 -78.9 Q15.65 -78.9 16.4 -78.15 17.2 -77.35 17.2 -76.25 L17.15 -75.75 Q17.0 -74.95 16.4 -74.4 L15.95 -74.0 Q15.35 -73.6 14.55 -73.6 13.75 -73.6 13.15 -74.0 L12.65 -74.4 Q12.1 -74.95 11.95 -75.75 L11.9 -76.25 Q11.9 -77.35 12.65 -78.15 13.45 -78.9 14.55 -78.9 M39.9 -39.7 L39.9 -39.55 Q39.9 -38.6 39.25 -37.95 38.6 -37.3 37.65 -37.3 L37.5 -37.3 Q36.65 -37.35 36.05 -37.95 35.4 -38.6 35.4 -39.55 35.4 -40.5 36.05 -41.15 36.7 -41.8 37.65 -41.8 38.6 -41.8 39.25 -41.15 39.85 -40.55 39.9 -39.7 M9.95 -36.8 Q10.3 -37.1 10.8 -37.1 L11.6 -36.8 11.95 -35.95 Q11.95 -35.45 11.6 -35.15 11.3 -34.8 10.8 -34.8 10.3 -34.8 9.95 -35.15 9.65 -35.45 9.65 -35.95 9.65 -36.45 9.95 -36.8 M16.7 -9.95 Q16.7 -9.15 16.15 -8.6 15.6 -8.05 14.8 -8.05 14.0 -8.05 13.45 -8.6 12.9 -9.15 12.9 -9.95 12.9 -10.75 13.45 -11.3 14.0 -11.85 14.8 -11.85 15.6 -11.85 16.15 -11.3 16.7 -10.75 16.7 -9.95 M31.65 -20.05 Q31.65 -19.1 31.0 -18.45 30.35 -17.8 29.4 -17.8 28.45 -17.8 27.8 -18.45 27.15 -19.1 27.15 -20.05 27.15 -21.0 27.8 -21.65 28.45 -22.3 29.4 -22.3 30.35 -22.3 31.0 -21.65 31.65 -21.0 31.65 -20.05 M40.1 -9.4 Q40.6 -9.85 41.3 -9.85 42.0 -9.85 42.45 -9.4 42.95 -8.9 42.95 -8.2 42.95 -7.5 42.45 -7.05 42.0 -6.55 41.3 -6.55 40.6 -6.55 40.1 -7.05 39.65 -7.5 39.65 -8.2 39.65 -8.9 40.1 -9.4 M61.4 -46.45 L75.05 -46.45 52.75 -23.05 52.75 -37.25 61.4 -46.45 M78.25 -38.9 Q78.25 -40.4 79.3 -41.5 80.4 -42.55 81.9 -42.55 83.4 -42.55 84.45 -41.5 85.55 -40.4 85.55 -38.9 85.55 -37.4 84.45 -36.35 83.4 -35.25 81.9 -35.25 80.4 -35.25 79.3 -36.35 78.25 -37.4 78.25 -38.9 M62.25 -28.1 Q63.05 -28.85 64.15 -28.85 65.25 -28.85 66.0 -28.1 66.8 -27.3 66.8 -26.2 66.8 -25.1 66.0 -24.35 65.25 -23.55 64.15 -23.55 63.05 -23.55 62.25 -24.35 61.5 -25.1 61.5 -26.2 61.5 -27.3 62.25 -28.1 M89.9 -59.2 Q90.4 -59.65 91.1 -59.65 91.8 -59.65 92.25 -59.2 L92.65 -58.65 92.75 -58.0 Q92.75 -57.3 92.25 -56.85 91.8 -56.35 91.1 -56.35 90.4 -56.35 89.9 -56.85 L89.7 -57.15 Q89.45 -57.5 89.45 -58.0 89.45 -58.7 89.9 -59.2 M89.05 -20.8 Q89.75 -20.8 90.25 -20.3 90.75 -19.8 90.75 -19.1 90.75 -18.4 90.25 -17.9 89.75 -17.4 89.05 -17.4 88.35 -17.4 87.85 -17.9 87.35 -18.4 87.35 -19.1 87.35 -19.8 87.85 -20.3 88.35 -20.8 89.05 -20.8" fill="#a89b60" fill-rule="evenodd" stroke="none"/>
    <path d="M77.75 -101.65 L69.6 -101.65 85.5 -117.25 85.8 -117.05 Q87.55 -115.75 89.7 -115.0 L77.75 -101.65 M46.65 -79.05 L46.65 -73.6 28.15 -52.9 20.0 -52.9 46.65 -79.05 M96.25 -29.0 L96.25 -23.55 77.75 -2.85 69.6 -2.85 96.25 -29.0 M75.35 -124.3 L52.75 -101.75 52.75 -121.85 53.95 -123.1 54.2 -122.85 Q55.95 -121.05 58.4 -119.9 L58.9 -120.05 60.85 -121.1 Q62.0 -121.8 63.0 -122.6 L64.15 -122.35 Q65.25 -122.35 66.0 -123.15 L66.5 -123.8 66.8 -124.9 Q68.25 -123.45 70.3 -122.3 L70.8 -122.4 72.85 -123.1 Q74.2 -123.65 75.35 -124.3 M41.1 -69.65 Q40.75 -69.9 40.75 -70.25 L40.65 -70.35 Q40.15 -70.85 39.45 -70.85 38.75 -70.85 38.25 -70.35 37.75 -69.85 37.75 -69.15 37.75 -68.45 38.25 -67.95 L38.9 -67.55 39.45 -67.45 Q40.15 -67.45 40.65 -67.95 L41.05 -68.55 41.15 -69.15 41.1 -69.65 M34.85 -86.4 Q35.95 -87.45 35.95 -88.95 35.95 -90.45 34.85 -91.55 33.8 -92.6 32.3 -92.6 30.8 -92.6 29.7 -91.55 28.65 -90.45 28.65 -88.95 28.65 -87.45 29.7 -86.4 30.8 -85.3 32.3 -85.3 33.8 -85.3 34.85 -86.4 M3.15 -87.3 L3.15 -96.5 11.8 -96.5 3.15 -87.3 M25.45 -96.5 L46.65 -96.5 3.15 -53.0 3.15 -73.1 25.45 -96.5 M14.55 -78.9 Q13.45 -78.9 12.65 -78.15 11.9 -77.35 11.9 -76.25 L11.95 -75.75 Q12.1 -74.95 12.65 -74.4 L13.15 -74.0 Q13.75 -73.6 14.55 -73.6 15.35 -73.6 15.95 -74.0 L16.4 -74.4 Q17.0 -74.95 17.15 -75.75 L17.2 -76.25 Q17.2 -77.35 16.4 -78.15 15.65 -78.9 14.55 -78.9 M75.05 -46.45 L96.25 -46.45 52.75 -2.95 52.75 -23.05 75.05 -46.45 M62.25 -28.1 Q61.5 -27.3 61.5 -26.2 61.5 -25.1 62.25 -24.35 63.05 -23.55 64.15 -23.55 65.25 -23.55 66.0 -24.35 66.8 -25.1 66.8 -26.2 66.8 -27.3 66.0 -28.1 65.25 -28.85 64.15 -28.85 63.05 -28.85 62.25 -28.1 M78.25 -38.9 Q78.25 -37.4 79.3 -36.35 80.4 -35.25 81.9 -35.25 83.4 -35.25 84.45 -36.35 85.55 -37.4 85.55 -38.9 85.55 -40.4 84.45 -41.5 83.4 -42.55 81.9 -42.55 80.4 -42.55 79.3 -41.5 78.25 -40.4 78.25 -38.9 M52.75 -37.25 L52.75 -46.45 61.4 -46.45 52.75 -37.25 M89.05 -20.8 Q88.35 -20.8 87.85 -20.3 87.35 -19.8 87.35 -19.1 87.35 -18.4 87.85 -17.9 88.35 -17.4 89.05 -17.4 89.75 -17.4 90.25 -17.9 90.75 -18.4 90.75 -19.1 90.75 -19.8 90.25 -20.3 89.75 -20.8 89.05 -20.8" fill="#afa36d" fill-rule="evenodd" stroke="none"/>
    <path d="M46.65 -115.8 L46.65 -101.65 28.15 -101.65 42.95 -118.2 43.0 -118.15 Q44.6 -116.75 46.65 -115.8 M20.0 -101.65 L3.15 -101.65 3.15 -101.75 27.6 -126.15 Q30.05 -124.35 33.3 -123.6 L33.8 -123.85 Q34.75 -124.4 35.55 -125.1 L37.5 -126.9 Q38.5 -124.05 40.2 -121.45 L20.0 -101.65 M96.45 -96.25 L96.45 -78.8 69.8 -52.65 52.95 -52.65 52.95 -52.75 87.3 -87.1 87.45 -87.1 Q88.4 -87.1 89.05 -87.75 89.7 -88.4 89.7 -89.35 L89.7 -89.5 96.45 -96.25 M96.45 -73.35 L96.45 -52.65 77.95 -52.65 96.45 -73.35 M46.65 -46.45 L46.65 -29.0 20.0 -2.85 3.15 -2.85 3.15 -2.95 37.5 -37.3 37.65 -37.3 Q38.6 -37.3 39.25 -37.95 39.9 -38.6 39.9 -39.55 L39.9 -39.7 46.65 -46.45 M46.65 -23.55 L46.65 -2.85 28.15 -2.85 46.65 -23.55 M14.8 -106.85 Q15.6 -106.85 16.15 -107.4 16.7 -107.95 16.7 -108.75 16.7 -109.55 16.15 -110.1 15.6 -110.65 14.8 -110.65 14.0 -110.65 13.45 -110.1 12.9 -109.55 12.9 -108.75 12.9 -107.95 13.45 -107.4 14.0 -106.85 14.8 -106.85 M40.1 -108.2 Q39.65 -107.7 39.65 -107.0 39.65 -106.3 40.1 -105.85 40.6 -105.35 41.3 -105.35 42.0 -105.35 42.45 -105.85 42.95 -106.3 42.95 -107.0 42.95 -107.7 42.45 -108.2 42.0 -108.65 41.3 -108.65 40.6 -108.65 40.1 -108.2 M31.0 -117.25 Q31.65 -117.9 31.65 -118.85 31.65 -119.8 31.0 -120.45 30.35 -121.1 29.4 -121.1 28.45 -121.1 27.8 -120.45 27.15 -119.8 27.15 -118.85 27.15 -117.9 27.8 -117.25 28.45 -116.6 29.4 -116.6 30.35 -116.6 31.0 -117.25 M61.6 -96.25 L75.25 -96.25 52.95 -72.85 52.95 -87.05 61.6 -96.25 M61.75 -85.75 L61.4 -86.6 60.6 -86.9 Q60.1 -86.9 59.75 -86.6 59.45 -86.25 59.45 -85.75 59.45 -85.25 59.75 -84.95 60.1 -84.6 60.6 -84.6 61.1 -84.6 61.4 -84.95 61.75 -85.25 61.75 -85.75 M65.95 -58.4 Q66.5 -58.95 66.5 -59.75 66.5 -60.55 65.95 -61.1 65.4 -61.65 64.6 -61.65 63.8 -61.65 63.25 -61.1 62.7 -60.55 62.7 -59.75 62.7 -58.95 63.25 -58.4 63.8 -57.85 64.6 -57.85 65.4 -57.85 65.95 -58.4 M79.2 -67.6 Q80.15 -67.6 80.8 -68.25 81.45 -68.9 81.45 -69.85 81.45 -70.8 80.8 -71.45 80.15 -72.1 79.2 -72.1 78.25 -72.1 77.6 -71.45 76.95 -70.8 76.95 -69.85 76.95 -68.9 77.6 -68.25 78.25 -67.6 79.2 -67.6 M11.8 -46.45 L25.45 -46.45 3.15 -23.05 3.15 -37.25 11.8 -46.45 M9.95 -36.8 Q9.65 -36.45 9.65 -35.95 9.65 -35.45 9.95 -35.15 10.3 -34.8 10.8 -34.8 11.3 -34.8 11.6 -35.15 11.95 -35.45 11.95 -35.95 L11.6 -36.8 10.8 -37.1 Q10.3 -37.1 9.95 -36.8 M16.7 -9.95 Q16.7 -10.75 16.15 -11.3 15.6 -11.85 14.8 -11.85 14.0 -11.85 13.45 -11.3 12.9 -10.75 12.9 -9.95 12.9 -9.15 13.45 -8.6 14.0 -8.05 14.8 -8.05 15.6 -8.05 16.15 -8.6 16.7 -9.15 16.7 -9.95 M40.1 -9.4 Q39.65 -8.9 39.65 -8.2 39.65 -7.5 40.1 -7.05 40.6 -6.55 41.3 -6.55 42.0 -6.55 42.45 -7.05 42.95 -7.5 42.95 -8.2 42.95 -8.9 42.45 -9.4 42.0 -9.85 41.3 -9.85 40.6 -9.85 40.1 -9.4 M31.65 -20.05 Q31.65 -21.0 31.0 -21.65 30.35 -22.3 29.4 -22.3 28.45 -22.3 27.8 -21.65 27.15 -21.0 27.15 -20.05 27.15 -19.1 27.8 -18.45 28.45 -17.8 29.4 -17.8 30.35 -17.8 31.0 -18.45 31.65 -19.1 31.65 -20.05 M89.9 -59.2 Q89.45 -58.7 89.45 -58.0 89.45 -57.5 89.7 -57.15 L89.9 -56.85 Q90.4 -56.35 91.1 -56.35 91.8 -56.35 92.25 -56.85 92.75 -57.3 92.75 -58.0 L92.65 -58.65 92.25 -59.2 Q91.8 -59.65 91.1 -59.65 90.4 -59.65 89.9 -59.2" fill="#b7ab7b" fill-rule="evenodd" stroke="none"/>
    <path d="M28.15 -101.65 L20.0 -101.65 40.2 -121.45 40.75 -120.65 Q41.75 -119.3 42.95 -118.2 L28.15 -101.65 M96.45 -78.8 L96.45 -73.35 77.95 -52.65 69.8 -52.65 96.45 -78.8 M46.65 -29.0 L46.65 -23.55 28.15 -2.85 20.0 -2.85 46.65 -29.0 M27.6 -126.15 L3.15 -101.75 3.15 -117.2 5.45 -119.45 Q6.2 -118.15 7.25 -117.05 L7.8 -117.05 10.0 -117.55 Q14.35 -118.85 17.75 -122.15 20.95 -125.3 22.85 -129.55 L23.4 -130.85 Q24.75 -128.5 27.05 -126.6 L27.6 -126.15 M61.6 -96.25 L52.95 -87.05 52.95 -96.25 61.6 -96.25 M52.95 -72.85 L75.25 -96.25 96.45 -96.25 89.7 -89.5 Q89.65 -90.35 89.05 -90.95 88.4 -91.6 87.45 -91.6 86.5 -91.6 85.85 -90.95 85.2 -90.3 85.2 -89.35 85.2 -88.4 85.85 -87.75 86.45 -87.15 87.3 -87.1 L52.95 -52.75 52.95 -72.85 M37.5 -37.3 L3.15 -2.95 3.15 -23.05 25.45 -46.45 46.65 -46.45 39.9 -39.7 Q39.85 -40.55 39.25 -41.15 38.6 -41.8 37.65 -41.8 36.7 -41.8 36.05 -41.15 35.4 -40.5 35.4 -39.55 35.4 -38.6 36.05 -37.95 36.65 -37.35 37.5 -37.3 M3.15 -37.25 L3.15 -46.45 11.8 -46.45 3.15 -37.25" fill="#beb389" fill-rule="evenodd" stroke="none"/>
    <path d="M0.0 0.2 L0.0 -49.7 49.6 -49.7 49.6 -49.8 49.8 -49.8 49.8 -49.85 49.8 -98.6 98.8 -98.6 96.45 -96.25 75.25 -96.25 61.6 -96.25 52.95 -96.25 52.95 -87.05 52.95 -72.85 52.95 -52.75 52.95 -52.65 52.85 -52.65 49.8 -49.6 99.4 -49.6 96.25 -46.45 75.05 -46.45 61.4 -46.45 52.75 -46.45 52.75 -37.25 52.75 -23.05 52.75 -2.95 52.75 -2.85 52.65 -2.85 49.6 0.2 49.6 -49.4 46.65 -46.45 25.45 -46.45 11.8 -46.45 3.15 -46.45 3.15 -37.25 3.15 -23.05 3.15 -2.95 3.15 -2.85 3.05 -2.85 0.0 0.2 M0.0 -50.05 L0.0 -98.6 0.0 -115.9 0.6 -115.6 1.1 -115.8 3.0 -117.1 3.15 -117.2 3.15 -101.75 3.15 -101.65 3.05 -101.65 0.0 -98.6 48.75 -98.6 46.65 -96.5 25.45 -96.5 11.8 -96.5 3.15 -96.5 3.15 -87.3 3.15 -73.1 3.15 -53.0 3.15 -52.9 3.05 -52.9 0.0 -49.85 0.0 -50.05 M52.75 -101.65 L52.65 -101.65 49.6 -98.6 49.6 -117.75 Q51.45 -119.55 52.75 -121.85 L52.75 -101.75 52.75 -101.65" fill="#cdc4a5" fill-rule="evenodd" stroke="none"/>
    <path d="M49.75 -49.85 L49.8 -49.85 49.8 -49.8 49.6 -49.8 49.75 -49.85" fill="#623a1e" fill-rule="evenodd" stroke="none"/>
    <path d="M49.65 -49.85 L49.75 -49.85 49.6 -49.8 49.65 -49.85" fill="#ad6936" fill-rule="evenodd" stroke="none"/>
  </g>
</svg>
