<?xml version="1.0" encoding="UTF-8" standalone="no"?>
<svg xmlns:ffdec="https://www.free-decompiler.com/flash" xmlns:xlink="http://www.w3.org/1999/xlink" ffdec:objectType="shape" height="38.75px" width="43.15px" xmlns="http://www.w3.org/2000/svg">
  <g transform="matrix(1.0, 0.0, 0.0, 1.0, 22.35, 3.4)">
    <path d="M4.05 -0.55 L4.6 -0.25 Q5.85 -0.2 6.95 0.45 L9.3 1.95 15.85 6.1 Q19.05 8.65 19.05 11.9 19.05 13.8 15.55 15.95 L12.0 17.8 Q12.0 18.8 10.65 18.2 L10.65 18.15 1.5 19.35 -2.55 18.85 -4.05 17.3 Q1.95 11.8 8.05 11.35 L11.2 11.2 Q12.3 10.95 12.3 9.7 12.0 8.4 11.05 7.15 9.2 4.7 5.95 4.7 L3.0 5.2 Q2.4 5.4 0.95 6.15 L-0.6 6.65 -2.15 5.85 Q-4.1 4.95 -6.95 4.5 L-9.3 4.9 Q-8.4 3.1 -7.1 2.1 -4.75 0.2 0.05 0.85 -0.4 0.25 -0.4 -1.1 -0.55 -1.6 -1.2 -1.7 1.0 -1.6 4.05 -0.55 M-7.95 18.05 Q-7.95 21.85 -10.7 24.55 -13.45 27.2 -17.3 27.2 L-17.35 27.2 Q-19.2 26.1 -20.05 22.0 -20.7 19.05 -20.7 15.6 -20.7 14.0 -19.75 12.95 L-20.1 13.75 -20.2 14.7 Q-20.2 18.15 -19.85 19.55 -19.35 21.45 -17.7 23.1 -15.5 20.9 -14.75 19.5 -13.8 17.8 -13.8 15.35 -13.8 14.9 -13.25 14.35 -12.5 13.55 -11.15 13.55 -9.65 13.55 -9.05 14.75 -8.65 15.55 -7.95 18.05 M7.65 31.5 L5.45 31.3 3.7 31.0 3.4 23.55 3.6 22.2 3.75 21.0 8.35 20.45 Q10.3 21.0 11.45 22.85 12.25 24.15 12.25 24.95 12.25 26.1 10.95 28.15 9.5 30.5 7.65 31.5 M-7.8 21.25 Q-4.8 21.55 -2.65 23.0 -0.25 24.6 -0.25 26.85 -0.25 27.25 -1.2 29.5 -2.35 32.3 -3.55 33.65 -6.75 33.75 -8.3 32.15 -9.4 31.05 -9.4 29.55 -9.4 27.15 -8.7 24.15 -8.15 21.7 -7.8 21.25" fill="#f4c99d" fill-rule="evenodd" stroke="none"/>
    <path d="M4.05 -0.55 Q1.0 -1.6 -1.2 -1.7 -0.55 -1.6 -0.4 -1.1 -0.4 0.25 0.05 0.85 -4.75 0.2 -7.1 2.1 -8.4 3.1 -9.3 4.9 L-6.95 4.5 Q-4.1 4.95 -2.15 5.85 L-0.6 6.65 0.95 6.15 Q2.4 5.4 3.0 5.2 L5.95 4.7 Q9.2 4.7 11.05 7.15 12.0 8.4 12.3 9.7 12.3 10.95 11.2 11.2 L8.05 11.35 Q1.95 11.8 -4.05 17.3 -4.05 13.2 -0.3 10.3 3.4 7.35 8.65 7.35 L8.5 7.25 4.9 6.75 Q3.15 6.75 0.3 7.85 -2.5 8.9 -4.9 8.9 L-6.35 8.5 -7.85 8.1 Q-10.8 8.1 -14.05 10.85 -17.25 13.6 -18.2 13.6 -19.2 13.6 -18.75 13.7 L-18.95 13.85 -17.85 14.45 Q-17.15 14.8 -17.15 15.35 L-17.55 18.1 -18.1 20.55 -18.15 20.65 -17.9 21.05 -17.9 21.65 Q-16.4 17.5 -14.8 14.8 -11.85 9.75 -7.85 9.75 -5.85 9.75 -5.85 11.8 L-6.45 14.75 Q-7.2 17.2 -7.95 18.05 -8.65 15.55 -9.05 14.75 -9.65 13.55 -11.15 13.55 -12.5 13.55 -13.25 14.35 -13.8 14.9 -13.8 15.35 -13.8 17.8 -14.75 19.5 -15.5 20.9 -17.7 23.1 -19.35 21.45 -19.85 19.55 -20.2 18.15 -20.2 14.7 L-20.1 13.75 -19.75 12.95 -9.2 2.9 -3.15 -3.3 -1.35 -3.4 2.35 -2.9 2.9 -1.9 4.05 -0.55 M7.65 31.5 Q9.5 30.5 10.95 28.15 12.25 26.1 12.25 24.95 12.25 24.15 11.45 22.85 10.3 21.0 8.35 20.45 L12.35 19.4 12.4 19.5 13.45 22.05 13.9 23.8 15.05 26.45 15.05 26.55 Q15.0 27.55 12.4 29.45 9.5 31.6 7.65 31.5 M-7.8 21.25 L-6.15 19.7 -5.0 18.75 Q-1.15 18.75 0.3 20.85 2.05 23.45 2.05 30.95 2.05 31.65 1.0 32.55 -0.55 33.85 -3.55 33.65 -2.35 32.3 -1.2 29.5 -0.25 27.25 -0.25 26.85 -0.25 24.6 -2.65 23.0 -4.8 21.55 -7.8 21.25" fill="#e1ad79" fill-rule="evenodd" stroke="none"/>
    <path d="M-4.05 17.3 L-2.55 18.85 1.5 19.35 10.65 18.15 10.65 18.2 Q12.0 18.8 12.0 17.8 L15.55 15.95 Q19.05 13.8 19.05 11.9 19.05 8.65 15.85 6.1 L9.3 1.95 6.95 0.45 Q5.85 -0.2 4.6 -0.25 L4.05 -0.55 2.9 -1.9 2.35 -2.9 2.5 -2.85 Q5.35 -1.9 12.6 3.5 20.8 9.55 20.8 12.25 20.8 14.15 18.85 16.25 16.7 18.55 14.0 18.85 15.15 22.2 16.3 23.95 16.75 24.6 16.75 26.8 16.75 28.45 13.5 30.75 10.05 33.2 7.05 33.2 L5.2 32.85 3.3 32.45 Q2.55 32.45 0.45 33.9 -1.65 35.35 -2.45 35.35 -5.9 35.35 -8.05 34.5 -11.45 33.2 -11.1 30.0 L-11.15 30.3 -11.85 30.4 Q-19.1 30.4 -21.2 25.95 -22.35 23.5 -22.35 16.1 -22.35 14.05 -17.4 8.3 -12.6 2.7 -11.35 2.7 L-9.55 0.3 Q-7.55 -2.35 -3.15 -3.3 L-9.2 2.9 -19.75 12.95 Q-20.7 14.0 -20.7 15.6 -20.7 19.05 -20.05 22.0 -19.2 26.1 -17.35 27.2 L-17.3 27.2 Q-13.45 27.2 -10.7 24.55 -7.95 21.85 -7.95 18.05 -7.2 17.2 -6.45 14.75 L-5.85 11.8 Q-5.85 9.75 -7.85 9.75 -11.85 9.75 -14.8 14.8 -16.4 17.5 -17.9 21.65 L-17.9 21.05 -18.15 20.65 -18.1 20.55 -17.55 18.1 -17.15 15.35 Q-17.15 14.8 -17.85 14.45 L-18.95 13.85 -18.75 13.7 Q-19.2 13.6 -18.2 13.6 -17.25 13.6 -14.05 10.85 -10.8 8.1 -7.85 8.1 L-6.35 8.5 -4.9 8.9 Q-2.5 8.9 0.3 7.85 3.15 6.75 4.9 6.75 L8.5 7.25 8.65 7.35 Q3.4 7.35 -0.3 10.3 -4.05 13.2 -4.05 17.3 M8.35 20.45 L3.75 21.0 3.6 22.2 3.4 23.55 3.7 31.0 5.45 31.3 7.65 31.5 Q9.5 31.6 12.4 29.45 15.0 27.55 15.05 26.55 L15.05 26.45 13.9 23.8 13.45 22.05 12.4 19.5 12.35 19.4 8.35 20.45 M-3.55 33.65 Q-0.55 33.85 1.0 32.55 2.05 31.65 2.05 30.95 2.05 23.45 0.3 20.85 -1.15 18.75 -5.0 18.75 L-6.15 19.7 -7.8 21.25 Q-8.15 21.7 -8.7 24.15 -9.4 27.15 -9.4 29.55 -9.4 31.05 -8.3 32.15 -6.75 33.75 -3.55 33.65" fill="#8d5b2e" fill-rule="evenodd" stroke="none"/>
  </g>
</svg>
