<?xml version="1.0" encoding="UTF-8" standalone="no"?>
<svg xmlns:ffdec="https://www.free-decompiler.com/flash" xmlns:xlink="http://www.w3.org/1999/xlink" ffdec:objectType="shape" height="21.75px" width="23.6px" xmlns="http://www.w3.org/2000/svg">
  <g transform="matrix(1.0, 0.0, 0.0, 1.0, -19.2, 41.8)">
    <path d="M19.2 -38.3 L19.2 -39.1 23.3 -38.4 23.7 -38.1 24.2 -38.65 24.2 -38.6 Q27.35 -41.8 31.85 -41.8 36.35 -41.8 39.55 -38.6 L39.55 -38.65 Q40.6 -37.7 41.3 -36.45 L41.75 -35.65 42.2 -34.55 42.4 -33.7 42.8 -31.5 42.8 -30.95 42.8 -30.9 Q42.8 -26.35 39.55 -23.2 36.35 -20.05 31.85 -20.05 27.35 -20.05 24.2 -23.2 20.95 -26.35 20.95 -30.9 L20.95 -30.95 21.05 -31.5 Q21.15 -33.85 22.05 -35.8 L19.2 -36.3 19.2 -37.15 22.5 -36.5 23.1 -37.45 22.95 -37.55 19.2 -38.3 M22.9 -30.95 Q22.9 -34.65 25.55 -37.25 28.15 -39.9 31.85 -39.9 35.6 -39.9 38.2 -37.25 39.35 -36.1 40.0 -34.65 L40.2 -34.3 Q40.8 -32.85 40.8 -30.95 L40.8 -30.9 Q40.8 -27.2 38.2 -24.6 35.6 -22.0 31.85 -22.0 28.15 -22.0 25.55 -24.6 22.9 -27.2 22.9 -30.9 L22.9 -30.95 M41.9 -30.95 L41.6 -33.65 41.3 -34.5 41.0 -35.35 40.55 -36.15 38.95 -38.05 Q36.05 -41.0 31.85 -41.0 27.7 -41.0 24.75 -38.05 L24.15 -37.4 22.9 -35.65 Q21.8 -33.55 21.8 -30.95 L21.8 -30.9 Q21.8 -26.75 24.75 -23.8 27.7 -20.9 31.85 -20.9 36.05 -20.9 38.95 -23.8 41.9 -26.75 41.9 -30.9 L41.9 -30.95 M23.85 -31.5 L23.8 -30.95 23.8 -30.9 Q23.8 -27.55 26.2 -25.25 L26.2 -25.15 Q28.5 -22.9 31.85 -22.9 35.2 -22.9 37.55 -25.15 L37.55 -25.25 Q39.95 -27.55 39.95 -30.9 L39.95 -30.95 39.95 -31.5 Q39.7 -34.5 37.55 -36.65 35.2 -39.0 31.85 -39.0 28.5 -39.0 26.2 -36.65 24.0 -34.5 23.85 -31.5" fill="#563d07" fill-rule="evenodd" stroke="none"/>
    <path d="M40.8 -30.95 Q40.8 -32.85 40.2 -34.3 L40.0 -34.65 Q39.35 -36.1 38.2 -37.25 35.6 -39.9 31.85 -39.9 28.15 -39.9 25.55 -37.25 22.9 -34.65 22.9 -30.95 L21.8 -30.95 Q21.8 -33.55 22.9 -35.65 L24.15 -37.4 24.75 -38.05 Q27.7 -41.0 31.85 -41.0 36.05 -41.0 38.95 -38.05 L40.55 -36.15 41.0 -35.35 41.3 -34.5 41.6 -33.65 41.9 -30.95 40.8 -30.95" fill="#e9a71e" fill-rule="evenodd" stroke="none"/>
    <path d="M19.2 -38.3 L22.95 -37.55 23.1 -37.45 22.5 -36.5 19.2 -37.15 19.2 -38.3 M22.9 -30.95 L22.9 -30.9 Q22.9 -27.2 25.55 -24.6 28.15 -22.0 31.85 -22.0 35.6 -22.0 38.2 -24.6 40.8 -27.2 40.8 -30.9 L40.8 -30.95 41.9 -30.95 41.9 -30.9 Q41.9 -26.75 38.95 -23.8 36.05 -20.9 31.85 -20.9 27.7 -20.9 24.75 -23.8 21.8 -26.75 21.8 -30.9 L21.8 -30.95 22.9 -30.95" fill="#bc8410" fill-rule="evenodd" stroke="none"/>
    <path d="M23.85 -31.5 Q24.0 -34.5 26.2 -36.65 28.5 -39.0 31.85 -39.0 35.2 -39.0 37.55 -36.65 39.7 -34.5 39.95 -31.5 L39.95 -30.95 39.95 -30.9 Q39.95 -27.55 37.55 -25.25 L37.55 -25.15 Q35.2 -22.9 31.85 -22.9 28.5 -22.9 26.2 -25.15 L26.2 -25.25 Q23.8 -27.55 23.8 -30.9 L23.8 -30.95 23.85 -31.5" fill="#ffffff" fill-opacity="0.69411767" fill-rule="evenodd" stroke="none"/>
  </g>
</svg>
