<?xml version="1.0" encoding="UTF-8" standalone="no"?>
<svg xmlns:ffdec="https://www.free-decompiler.com/flash" xmlns:xlink="http://www.w3.org/1999/xlink" ffdec:objectType="shape" height="47.2px" width="53.0px" xmlns="http://www.w3.org/2000/svg">
  <g transform="matrix(1.0, 0.0, 0.0, 1.0, 29.45, 3.55)">
    <path d="M13.1 16.3 L17.15 22.4 Q17.95 23.35 19.7 23.35 L21.5 23.0 Q21.5 22.45 21.65 21.85 L21.75 20.75 Q21.75 17.8 14.4 8.3 7.6 -0.5 4.4 -2.9 L3.95 -3.55 Q5.8 -3.4 7.75 -1.2 L17.95 9.95 Q21.15 13.2 22.6 16.7 23.55 18.95 23.55 20.4 23.55 22.5 22.35 23.8 21.15 25.1 19.25 25.1 16.6 24.4 15.4 23.45 17.2 29.9 14.5 34.95 12.0 39.65 7.8 39.65 6.45 39.65 5.85 37.35 5.45 35.8 5.15 31.15 L5.1 32.55 Q4.15 38.15 1.85 40.85 -0.6 43.65 -4.75 43.65 -9.6 43.65 -9.6 36.05 L-8.7 29.35 Q-6.95 21.55 -6.95 20.5 -6.95 18.55 -7.95 16.9 -8.95 15.35 -10.0 15.35 L-16.45 21.1 Q-17.75 22.2 -21.8 23.75 -24.75 23.75 -27.0 22.25 -29.45 20.65 -29.45 18.3 -29.45 16.1 -27.6 13.25 -24.7 8.75 -18.5 6.95 -12.35 5.15 -8.45 0.55 -5.25 -3.25 -1.15 -3.35 -0.75 -3.25 -0.8 -3.15 L-3.7 -1.75 Q-7.1 4.0 -12.9 6.55 L-20.7 10.2 Q-27.6 14.15 -27.6 17.75 -27.6 19.3 -26.2 20.6 -24.7 22.0 -22.7 22.0 L-20.8 21.7 -18.65 20.85 -10.1 13.55 Q-8.65 13.55 -7.1 15.1 -5.1 17.15 -5.1 20.45 L-6.3 28.7 -7.55 36.9 Q-7.55 39.9 -6.65 41.05 -6.0 41.9 -4.6 41.9 -1.55 41.9 0.7 39.3 3.55 36.0 3.55 29.5 3.55 23.05 2.85 19.2 2.7 18.5 2.9 18.3 L4.0 17.45 4.1 17.75 7.35 37.05 7.55 37.2 Q7.95 37.75 8.8 37.8 L11.95 35.55 Q14.0 33.0 14.0 28.0 13.8 25.45 13.2 22.4 11.95 16.3 9.85 13.35 L9.65 12.85 10.3 12.7 11.4 13.9 13.1 16.3" fill="#5c4730" fill-rule="evenodd" stroke="none"/>
    <path d="M1.8 -3.35 L4.4 -2.9 Q7.6 -0.5 14.4 8.3 21.75 17.8 21.75 20.75 L21.65 21.85 Q21.5 22.45 21.5 23.0 L19.7 23.35 Q17.95 23.35 17.15 22.4 L13.1 16.3 15.2 18.7 18.95 21.95 Q19.4 21.9 19.7 21.3 L19.95 19.9 Q19.95 16.15 11.95 9.5 6.9 5.3 4.65 1.55 L1.8 -3.35 M-3.7 -1.75 Q-3.7 0.9 -6.65 3.2 -8.4 4.55 -13.1 6.95 -17.75 9.35 -19.55 10.8 -22.45 13.15 -22.45 15.95 -22.45 16.95 -21.95 17.65 -21.4 18.45 -20.5 18.45 -17.75 18.45 -14.6 15.45 -11.45 12.45 -9.2 12.45 -7.0 12.45 -5.3 15.3 -3.9 17.7 -3.9 19.8 L-5.05 25.55 Q-6.25 31.0 -6.25 32.95 -6.25 35.3 -5.5 36.8 -4.75 38.25 -3.75 38.25 -1.2 38.25 0.6 36.05 2.75 33.5 2.75 28.9 L1.8 25.65 Q0.85 22.3 0.85 19.3 0.85 17.8 1.45 16.85 1.85 16.25 2.35 16.05 L2.8 16.25 4.0 17.45 2.9 18.3 Q2.7 18.5 2.85 19.2 3.55 23.05 3.55 29.5 3.55 36.0 0.7 39.3 -1.55 41.9 -4.6 41.9 -6.0 41.9 -6.65 41.05 -7.55 39.9 -7.55 36.9 L-6.3 28.7 -5.1 20.45 Q-5.1 17.15 -7.1 15.1 -8.65 13.55 -10.1 13.55 L-18.65 20.85 -20.8 21.7 -22.7 22.0 Q-24.7 22.0 -26.2 20.6 -27.6 19.3 -27.6 17.75 -27.6 14.15 -20.7 10.2 L-12.9 6.55 Q-7.1 4.0 -3.7 -1.75 M4.1 17.75 L8.45 30.5 Q9.2 32.75 10.45 32.75 11.2 32.75 11.85 31.65 12.75 30.2 12.75 27.25 12.75 24.2 10.95 20.35 L9.45 17.35 7.0 12.1 7.4 12.0 Q8.15 12.15 9.85 13.35 11.95 16.3 13.2 22.4 13.8 25.45 14.0 28.0 14.0 33.0 11.95 35.55 L8.8 37.8 Q7.95 37.75 7.55 37.2 L7.35 37.05 4.1 17.75" fill="#f1ba87" fill-rule="evenodd" stroke="none"/>
    <path d="M1.8 -3.35 L4.65 1.55 Q6.9 5.3 11.95 9.5 19.95 16.15 19.95 19.9 L19.7 21.3 Q19.4 21.9 18.95 21.95 L15.2 18.7 13.1 16.3 11.4 13.9 10.3 12.7 9.65 12.85 9.85 13.35 Q8.15 12.15 7.4 12.0 L7.0 12.1 9.45 17.35 10.95 20.35 Q12.75 24.2 12.75 27.25 12.75 30.2 11.85 31.65 11.2 32.75 10.45 32.75 9.2 32.75 8.45 30.5 L4.1 17.75 4.0 17.45 2.8 16.25 2.35 16.05 Q1.85 16.25 1.45 16.85 0.85 17.8 0.85 19.3 0.85 22.3 1.8 25.65 L2.75 28.9 Q2.75 33.5 0.6 36.05 -1.2 38.25 -3.75 38.25 -4.75 38.25 -5.5 36.8 -6.25 35.3 -6.25 32.95 -6.25 31.0 -5.05 25.55 L-3.9 19.8 Q-3.9 17.7 -5.3 15.3 -7.0 12.45 -9.2 12.45 -11.45 12.45 -14.6 15.45 -17.75 18.45 -20.5 18.45 -21.4 18.45 -21.95 17.65 -22.45 16.95 -22.45 15.95 -22.45 13.15 -19.55 10.8 -17.75 9.35 -13.1 6.95 -8.4 4.55 -6.65 3.2 -3.7 0.9 -3.7 -1.75 L-0.8 -3.15 1.8 -3.35" fill="#ffcc99" fill-rule="evenodd" stroke="none"/>
  </g>
</svg>
