<?xml version="1.0" encoding="UTF-8" standalone="no"?>
<svg xmlns:ffdec="https://www.free-decompiler.com/flash" xmlns:xlink="http://www.w3.org/1999/xlink" ffdec:objectType="shape" height="24.15px" width="35.75px" xmlns="http://www.w3.org/2000/svg">
  <g transform="matrix(1.0, 0.0, 0.0, 1.0, 16.65, 7.75)">
    <path d="M6.7 -4.25 L6.55 -4.15 5.3 -2.75 5.3 -2.8 Q4.6 -1.8 4.25 -0.5 L4.25 -0.55 Q3.75 0.9 3.8 2.65 L3.8 2.7 Q3.8 5.85 5.3 8.05 L5.35 8.1 Q7.15 10.75 9.75 10.65 12.3 10.75 14.1 8.1 15.65 5.8 15.65 2.65 15.65 -0.6 14.1 -2.8 L14.15 -2.75 Q12.8 -4.75 11.1 -5.2 13.5 -4.9 15.35 -2.65 17.5 0.1 17.55 3.95 17.6 7.75 15.5 10.45 13.35 13.2 10.3 13.2 7.3 13.2 5.1 10.45 2.9 7.75 2.85 3.95 2.8 0.1 4.95 -2.65 5.75 -3.65 6.7 -4.25 M-13.85 1.35 L-14.1 3.55 Q-14.1 6.3 -12.75 8.25 L-12.75 8.2 Q-11.2 10.6 -8.85 10.55 -6.6 10.6 -5.05 8.2 L-5.05 8.25 Q-3.7 6.3 -3.65 3.55 L-3.65 3.45 -3.75 2.9 -10.75 -0.25 -11.3 -0.75 -11.45 -0.8 -8.95 -1.15 Q-6.15 -0.95 -3.9 1.5 -1.9 3.85 -1.5 6.9 -1.2 9.8 -2.6 11.95 -4.05 14.05 -6.55 14.25 -9.2 14.4 -11.55 12.4 -14.05 10.25 -14.65 6.95 -15.4 3.7 -13.85 1.35" fill="#ddb79f" fill-rule="evenodd" stroke="none"/>
    <path d="M11.1 -5.2 L9.85 -5.35 9.75 -5.35 9.7 -5.35 Q8.0 -5.4 6.7 -4.25 5.75 -3.65 4.95 -2.65 2.8 0.1 2.85 3.95 2.9 7.75 5.1 10.45 7.3 13.2 10.3 13.2 13.35 13.2 15.5 10.45 17.6 7.75 17.55 3.95 17.5 0.1 15.35 -2.65 13.5 -4.9 11.1 -5.2 M16.55 -4.3 Q19.05 -0.85 19.1 4.1 19.15 9.0 16.7 12.45 14.2 15.95 10.75 15.95 7.2 15.95 4.7 12.45 2.15 9.0 2.1 4.1 2.05 -0.85 4.55 -4.3 7.0 -7.75 10.5 -7.75 14.0 -7.75 16.55 -4.3 M-15.75 0.25 L-13.85 1.35 Q-15.4 3.7 -14.65 6.95 -14.05 10.25 -11.55 12.4 -9.2 14.4 -6.55 14.25 -4.05 14.05 -2.6 11.95 -1.2 9.8 -1.5 6.9 -1.9 3.85 -3.9 1.5 -6.15 -0.95 -8.95 -1.15 L-11.45 -0.8 -12.2 -0.85 -14.35 -1.8 Q-12.5 -3.75 -9.65 -3.4 L-8.85 -3.3 Q-6.1 -2.8 -3.75 0.15 -1.35 3.15 -0.9 7.05 L-0.85 8.45 Q-0.8 11.25 -2.1 13.4 -3.75 16.05 -6.55 16.4 L-7.2 16.4 Q-9.95 16.4 -12.4 14.1 -15.4 11.45 -16.3 7.1 L-16.6 5.5 Q-16.85 2.55 -15.75 0.25" fill="#e4c5b1" fill-rule="evenodd" stroke="none"/>
    <path d="M11.1 -5.2 Q12.8 -4.75 14.15 -2.75 L14.1 -2.8 Q15.65 -0.6 15.65 2.65 15.65 5.8 14.1 8.1 12.3 10.75 9.75 10.65 7.15 10.75 5.35 8.1 L5.3 8.05 Q3.8 5.85 3.8 2.7 L3.8 2.65 Q3.75 0.9 4.25 -0.55 L4.25 -0.5 Q4.6 -1.8 5.3 -2.8 L5.3 -2.75 6.55 -4.15 6.7 -4.25 Q8.0 -5.4 9.7 -5.35 L9.75 -5.35 9.85 -5.35 11.1 -5.2 M8.75 -1.4 L8.2 -0.8 7.6 0.5 7.55 0.55 Q7.25 1.5 7.3 2.6 L7.3 2.65 Q7.3 4.7 8.25 6.15 L8.2 6.1 Q8.85 7.05 9.75 7.15 10.6 7.05 11.2 6.15 12.15 4.7 12.15 2.65 12.15 0.6 11.25 -0.8 L11.2 -0.85 Q10.6 -1.75 9.8 -1.85 L9.7 -1.85 Q9.2 -1.85 8.85 -1.5 L8.75 -1.4 M-15.75 0.25 L-16.3 -0.1 -16.35 -0.2 Q-16.55 -0.7 -16.3 -1.2 -16.1 -1.75 -15.55 -1.9 -15.05 -2.15 -14.55 -1.9 L-14.35 -1.8 -12.2 -0.85 -11.45 -0.8 -11.3 -0.75 -10.75 -0.25 -3.75 2.9 -3.65 3.45 -3.65 3.55 Q-3.7 6.3 -5.05 8.25 L-5.05 8.2 Q-6.6 10.6 -8.85 10.55 -11.2 10.6 -12.75 8.2 L-12.75 8.25 Q-14.1 6.3 -14.1 3.55 L-13.85 1.35 -15.75 0.25 M-7.65 6.5 L-7.65 6.45 Q-7.0 5.5 -6.85 4.25 L-10.9 2.6 -10.95 3.55 Q-11.0 5.25 -10.15 6.45 -9.6 7.3 -8.85 7.4 -8.2 7.3 -7.65 6.5" fill="#3e291e" fill-rule="evenodd" stroke="none"/>
    <path d="M8.75 -1.4 L8.85 -1.5 Q9.2 -1.85 9.7 -1.85 L9.8 -1.85 Q10.6 -1.75 11.2 -0.85 L11.25 -0.8 Q12.15 0.6 12.15 2.65 12.15 4.7 11.2 6.15 10.6 7.05 9.75 7.15 8.85 7.05 8.2 6.1 L8.25 6.15 Q7.3 4.7 7.3 2.65 L7.3 2.6 Q7.25 1.5 7.55 0.55 L7.6 0.5 8.2 -0.8 8.75 -1.4 M-7.65 6.5 Q-8.2 7.3 -8.85 7.4 -9.6 7.3 -10.15 6.45 -11.0 5.25 -10.95 3.55 L-10.9 2.6 -6.85 4.25 Q-7.0 5.5 -7.65 6.45 L-7.65 6.5" fill="#f8eee9" fill-rule="evenodd" stroke="none"/>
  </g>
</svg>
