<?xml version="1.0" encoding="UTF-8" standalone="no"?>
<svg xmlns:ffdec="https://www.free-decompiler.com/flash" xmlns:xlink="http://www.w3.org/1999/xlink" ffdec:objectType="shape" height="70.85px" width="39.2px" xmlns="http://www.w3.org/2000/svg">
  <g transform="matrix(1.0, 0.0, 0.0, 1.0, 37.85, 36.95)">
    <path d="M-13.25 -36.95 Q-11.6 -33.0 -9.6 -25.15 -7.45 -16.65 -7.45 -13.35 -7.45 -9.1 -7.8 -6.3 -8.3 -2.4 -9.7 0.45 -10.8 2.85 -14.0 8.35 -16.85 13.2 -17.25 14.5 L-20.05 21.55 Q-22.65 27.55 -25.3 31.45 -0.75 7.8 -0.75 -22.6 -0.75 -27.3 -2.65 -36.95 L-0.45 -36.95 Q1.25 -32.0 1.35 -22.65 1.35 -6.9 -5.3 8.15 -13.25 26.15 -27.6 33.9 -25.6 30.4 -23.85 26.7 -20.4 19.5 -19.3 14.5 -21.95 18.2 -29.1 21.3 -35.15 23.95 -37.85 24.0 -27.5 15.25 -23.85 10.45 -19.3 4.55 -19.3 -1.95 -19.3 -10.25 -22.0 -16.3 -24.3 -21.5 -32.05 -32.1 L-32.05 -35.1 Q-24.8 -27.15 -20.9 -16.45 -17.95 -8.4 -17.95 -2.65 -17.95 10.65 -33.45 22.4 -22.7 17.3 -16.6 9.25 -9.5 -0.2 -9.5 -12.9 -9.5 -15.6 -11.25 -24.4 -12.9 -32.8 -14.1 -36.95 L-13.25 -36.95" fill="#6f5c4d" fill-rule="evenodd" stroke="none"/>
    <path d="M-17.25 14.5 Q-16.85 13.2 -14.0 8.35 -10.8 2.85 -9.7 0.45 -8.3 -2.4 -7.8 -6.3 -7.45 -9.1 -7.45 -13.35 -7.45 -16.65 -9.6 -25.15 -11.6 -33.0 -13.25 -36.95 L-2.65 -36.95 Q-0.75 -27.3 -0.75 -22.6 -0.75 7.8 -25.3 31.45 -8.15 8.0 -6.45 0.45 -8.45 3.9 -11.3 7.85 -15.1 13.05 -17.25 14.5 M-14.1 -36.95 Q-12.9 -32.8 -11.25 -24.4 -9.5 -15.6 -9.5 -12.9 -9.5 -0.2 -16.6 9.25 -22.7 17.3 -33.45 22.4 -22.05 16.4 -16.4 6.35 -11.75 -1.9 -11.75 -10.95 -11.75 -23.0 -19.4 -36.95 L-14.1 -36.95" fill="#b9a99b" fill-rule="evenodd" stroke="none"/>
    <path d="M-33.45 22.4 Q-17.95 10.65 -17.95 -2.65 -17.95 -8.4 -20.9 -16.45 -24.8 -27.15 -32.05 -35.1 L-32.05 -36.95 -19.4 -36.95 Q-11.75 -23.0 -11.75 -10.95 -11.75 -1.9 -16.4 6.35 -22.05 16.4 -33.45 22.4 M-25.3 31.45 Q-22.65 27.55 -20.05 21.55 L-17.25 14.5 Q-15.1 13.05 -11.3 7.85 -8.45 3.9 -6.45 0.45 -8.15 8.0 -25.3 31.45" fill="#d0c0b3" fill-rule="evenodd" stroke="none"/>
  </g>
</svg>
