<?xml version="1.0" encoding="UTF-8" standalone="no"?>
<svg xmlns:ffdec="https://www.free-decompiler.com/flash" xmlns:xlink="http://www.w3.org/1999/xlink" ffdec:objectType="shape" height="70.85px" width="39.2px" xmlns="http://www.w3.org/2000/svg">
  <g transform="matrix(1.0, 0.0, 0.0, 1.0, 13.6, 27.45)">
    <path d="M1.0 -27.45 Q-0.65 -23.5 -2.65 -15.65 -4.8 -7.15 -4.8 -3.85 -4.8 0.4 -4.45 3.2 -3.95 7.1 -2.55 9.95 L1.75 17.85 Q4.6 22.7 5.0 24.0 2.85 22.55 -0.95 17.35 L-5.8 9.95 Q-4.1 17.5 13.05 40.95 -11.5 17.3 -11.5 -13.1 -11.5 -17.8 -9.6 -27.45 L1.0 -27.45 M21.2 31.9 Q10.45 26.8 4.35 18.75 -2.75 9.3 -2.75 -3.4 -2.75 -6.1 -1.0 -14.9 0.65 -23.3 1.85 -27.45 L7.15 -27.45 Q-0.5 -13.5 -0.5 -1.45 -0.5 7.6 4.15 15.85 9.8 25.9 21.2 31.9" fill="#b9a99b" fill-rule="evenodd" stroke="none"/>
    <path d="M1.0 -27.45 L1.85 -27.45 Q0.65 -23.3 -1.0 -14.9 -2.75 -6.1 -2.75 -3.4 -2.75 9.3 4.35 18.75 10.45 26.8 21.2 31.9 5.7 20.15 5.7 6.85 5.7 1.1 8.65 -6.95 12.55 -17.65 19.8 -25.6 L19.8 -22.6 Q12.05 -12.0 9.75 -6.8 7.05 -0.75 7.05 7.55 7.05 14.05 11.6 19.95 15.25 24.75 25.6 33.5 22.9 33.45 16.85 30.8 9.7 27.7 7.05 24.0 8.15 29.0 11.6 36.2 13.35 39.9 15.35 43.4 1.0 35.65 -6.95 17.65 -13.6 2.6 -13.6 -13.15 -13.5 -22.5 -11.8 -27.45 L-9.6 -27.45 Q-11.5 -17.8 -11.5 -13.1 -11.5 17.3 13.05 40.95 10.4 37.05 7.8 31.05 5.9 26.75 5.0 24.0 4.6 22.7 1.75 17.85 L-2.55 9.95 Q-3.95 7.1 -4.45 3.2 -4.8 0.4 -4.8 -3.85 -4.8 -7.15 -2.65 -15.65 -0.65 -23.5 1.0 -27.45" fill="#6f5c4d" fill-rule="evenodd" stroke="none"/>
    <path d="M5.0 24.0 Q5.9 26.75 7.8 31.05 10.4 37.05 13.05 40.95 -4.1 17.5 -5.8 9.95 L-0.95 17.35 Q2.85 22.55 5.0 24.0 M19.8 -25.6 Q12.55 -17.65 8.65 -6.95 5.7 1.1 5.7 6.85 5.7 20.15 21.2 31.9 9.8 25.9 4.15 15.85 -0.5 7.6 -0.5 -1.45 -0.5 -13.5 7.15 -27.45 L19.8 -27.45 19.8 -25.6" fill="#d0c0b3" fill-rule="evenodd" stroke="none"/>
  </g>
</svg>
