<?xml version="1.0" encoding="UTF-8" standalone="no"?>
<svg xmlns:ffdec="https://www.free-decompiler.com/flash" xmlns:xlink="http://www.w3.org/1999/xlink" ffdec:objectType="shape" height="47.05px" width="52.7px" xmlns="http://www.w3.org/2000/svg">
  <g transform="matrix(1.0, 0.0, 0.0, 1.0, 29.35, 3.55)">
    <path d="M-0.8 -3.15 L1.8 -3.35 Q2.9 -2.55 5.35 2.05 7.8 6.55 10.2 8.15 14.6 11.05 17.6 15.5 20.0 19.05 20.0 20.7 L19.75 21.65 19.2 21.95 13.1 16.3 10.35 12.7 9.8 13.05 9.85 13.35 7.05 11.75 Q8.2 15.0 11.0 21.05 12.7 24.75 12.7 27.2 12.7 30.4 12.0 31.65 11.45 32.65 10.25 32.65 9.1 32.65 8.45 30.7 L4.1 17.75 4.0 17.45 2.55 15.95 Q0.8 17.1 0.8 18.7 L1.0 20.35 1.9 24.85 Q2.55 28.75 2.55 30.95 2.55 34.2 0.4 36.35 -1.5 38.25 -3.75 38.25 -4.9 38.25 -5.65 36.2 -6.25 34.5 -6.25 32.55 L-5.9 29.65 -4.55 22.75 Q-4.0 20.5 -4.0 20.05 -4.0 17.7 -5.2 15.2 -6.7 12.1 -8.95 12.1 -10.4 12.1 -14.65 15.3 -18.9 18.5 -20.45 18.5 L-21.4 18.25 Q-22.35 17.6 -22.35 15.7 -22.35 12.1 -16.6 9.0 -11.25 6.8 -8.8 5.35 -4.6 2.85 -3.7 -1.75 L-0.8 -3.15" fill="#83563a" fill-rule="evenodd" stroke="none"/>
    <path d="M1.8 -3.35 L4.4 -2.9 15.75 9.75 Q21.7 17.05 21.7 20.7 L21.45 22.15 Q20.9 23.4 19.3 23.4 18.35 23.4 17.5 22.7 15.5 21.15 13.1 16.3 L19.2 21.95 19.75 21.65 20.0 20.7 Q20.0 19.05 17.6 15.5 14.6 11.05 10.2 8.15 7.8 6.55 5.35 2.05 2.9 -2.55 1.8 -3.35 M9.85 13.35 L12.5 20.0 Q13.65 23.7 13.65 28.15 13.65 32.15 12.55 34.7 11.25 37.8 8.65 37.8 8.05 37.8 7.65 37.15 L7.35 36.5 Q7.35 37.05 4.1 17.75 L8.45 30.7 Q9.1 32.65 10.25 32.65 11.45 32.65 12.0 31.65 12.7 30.4 12.7 27.2 12.7 24.75 11.0 21.05 8.2 15.0 7.05 11.75 L9.85 13.35 M4.0 17.45 Q2.6 18.5 2.6 19.6 L3.45 29.0 Q3.45 35.25 1.25 38.65 -0.8 41.9 -4.35 41.9 -5.6 41.9 -6.45 41.1 -7.8 39.9 -7.8 37.0 L-6.7 29.15 -5.3 20.05 Q-5.3 18.5 -6.2 16.5 -7.6 13.55 -10.1 13.55 -12.4 13.55 -15.9 17.8 -19.45 22.0 -22.6 22.0 -24.25 22.0 -25.65 21.15 -27.4 20.1 -27.4 18.2 -27.4 15.2 -24.95 12.95 -23.3 11.4 -18.9 9.15 -7.85 3.45 -3.7 -1.75 -4.6 2.85 -8.8 5.35 -11.25 6.8 -16.6 9.0 -22.35 12.1 -22.35 15.7 -22.35 17.6 -21.4 18.25 L-20.45 18.5 Q-18.9 18.5 -14.65 15.3 -10.4 12.1 -8.95 12.1 -6.7 12.1 -5.2 15.2 -4.0 17.7 -4.0 20.05 -4.0 20.5 -4.55 22.75 L-5.9 29.65 -6.25 32.55 Q-6.25 34.5 -5.65 36.2 -4.9 38.25 -3.75 38.25 -1.5 38.25 0.4 36.35 2.55 34.2 2.55 30.95 2.55 28.75 1.9 24.85 L1.0 20.35 0.8 18.7 Q0.8 17.1 2.55 15.95 L4.0 17.45" fill="#754b33" fill-rule="evenodd" stroke="none"/>
    <path d="M4.4 -2.9 L3.95 -3.55 Q7.4 -2.7 15.3 6.75 23.35 16.3 23.35 20.0 23.35 22.3 22.3 23.65 21.25 25.0 19.3 25.0 17.9 25.0 16.3 24.15 L15.4 23.45 15.95 28.1 Q15.95 33.15 13.25 36.6 10.95 39.6 8.4 39.6 6.6 39.6 6.3 38.05 L5.1 32.15 Q2.65 43.5 -3.4 43.5 -6.65 43.5 -8.05 42.05 -9.55 40.55 -9.55 36.85 -9.55 34.9 -8.3 28.3 -7.1 21.7 -7.1 19.8 -7.1 18.4 -8.05 16.9 -9.05 15.35 -10.0 15.35 L-17.3 21.9 Q-17.8 22.4 -19.75 23.1 L-22.15 23.75 Q-25.3 23.75 -27.5 21.65 -29.35 19.95 -29.35 18.45 -29.35 12.8 -18.1 6.9 L-14.65 5.5 Q-11.45 4.1 -10.15 2.85 -9.35 1.2 -8.25 0.05 -6.2 -2.1 -0.8 -3.15 L-3.7 -1.75 Q-7.85 3.45 -18.9 9.15 -23.3 11.4 -24.95 12.95 -27.4 15.2 -27.4 18.2 -27.4 20.1 -25.65 21.15 -24.25 22.0 -22.6 22.0 -19.45 22.0 -15.9 17.8 -12.4 13.55 -10.1 13.55 -7.6 13.55 -6.2 16.5 -5.3 18.5 -5.3 20.05 L-6.7 29.15 -7.8 37.0 Q-7.8 39.9 -6.45 41.1 -5.6 41.9 -4.35 41.9 -0.8 41.9 1.25 38.65 3.45 35.25 3.45 29.0 L2.6 19.6 Q2.6 18.5 4.0 17.45 L4.1 17.75 Q7.35 37.05 7.35 36.5 L7.65 37.15 Q8.05 37.8 8.65 37.8 11.25 37.8 12.55 34.7 13.65 32.15 13.65 28.15 13.65 23.7 12.5 20.0 L9.85 13.35 9.8 13.05 10.35 12.7 13.1 16.3 Q15.5 21.15 17.5 22.7 18.35 23.4 19.3 23.4 20.9 23.4 21.45 22.15 L21.7 20.7 Q21.7 17.05 15.75 9.75 L4.4 -2.9" fill="#4b3121" fill-rule="evenodd" stroke="none"/>
  </g>
</svg>
