<?xml version="1.0" encoding="UTF-8" standalone="no"?>
<svg xmlns:ffdec="https://www.free-decompiler.com/flash" xmlns:xlink="http://www.w3.org/1999/xlink" ffdec:objectType="shape" height="63.15px" width="22.2px" xmlns="http://www.w3.org/2000/svg">
  <g transform="matrix(1.0, 0.0, 0.0, 1.0, 7.9, 1.55)">
    <path d="M8.5 16.3 L8.65 17.25 8.6 17.0 8.5 16.3 M10.65 37.15 L11.95 56.2 11.95 57.2 11.2 57.4 9.35 59.5 Q7.35 61.6 6.05 61.6 4.45 61.6 2.05 59.95 0.1 58.7 -0.85 57.55 L-0.9 57.35 -2.45 39.2 -1.0 37.5 -0.55 38.3 Q1.1 54.65 1.45 55.95 2.0 58.1 3.15 58.85 4.15 59.55 6.45 59.55 L8.5 58.5 Q11.5 55.25 10.55 50.3 8.8 44.7 8.55 41.95 L10.1 36.65 10.65 37.15" fill="#6c3d28" fill-rule="evenodd" stroke="none"/>
    <path d="M-0.55 38.3 Q1.45 43.35 2.45 43.35 3.05 43.35 3.3 42.6 L5.0 37.4 6.25 41.2 6.4 42.5 6.8 48.5 Q6.95 51.55 8.5 58.5 L6.45 59.55 Q4.15 59.55 3.15 58.85 2.0 58.1 1.45 55.95 1.1 54.65 -0.55 38.3" fill="#f1ba87" fill-rule="evenodd" stroke="none"/>
    <path d="M6.4 42.5 Q6.6 43.25 7.05 43.5 L7.95 43.4 Q8.35 43.0 8.55 41.95 8.8 44.7 10.55 50.3 11.5 55.25 8.5 58.5 6.95 51.55 6.8 48.5 L6.4 42.5" fill="#db9c64" fill-rule="evenodd" stroke="none"/>
    <path d="M1.15 -1.5 Q3.3 -1.35 4.4 -0.7 L4.85 4.15 2.25 3.5 2.2 3.5 Q2.05 1.0 1.15 -1.5 M5.5 10.7 Q5.65 12.4 5.8 12.35 L7.45 19.0 4.2 18.8 3.2 10.75 5.5 10.7 M9.55 28.3 L10.85 34.7 9.25 34.0 7.75 39.4 6.05 36.2 5.25 28.1 9.55 28.3 M-0.95 35.25 L-2.95 37.2 -2.75 29.8 -1.65 29.3 -0.95 35.25 M-3.05 21.4 L-3.7 13.35 -3.45 13.3 -2.6 21.05 -3.05 21.4" fill="#149679" fill-rule="evenodd" stroke="none"/>
    <path d="M4.4 -0.7 L4.55 -1.3 5.3 -1.55 5.95 -1.5 6.2 -0.35 Q6.7 4.65 7.9 10.95 L8.0 12.1 7.8 12.05 8.6 17.0 8.65 17.25 9.4 22.25 11.05 28.6 14.3 40.0 Q14.3 40.9 14.0 40.2 L10.65 37.15 10.1 36.65 8.55 41.95 Q8.35 43.0 7.95 43.4 L7.05 43.5 Q6.6 43.25 6.4 42.5 L6.25 41.2 5.0 37.4 3.3 42.6 Q3.05 43.35 2.45 43.35 1.45 43.35 -0.55 38.3 L-1.0 37.5 -2.45 39.2 -4.65 41.8 -5.1 41.75 -5.2 41.15 Q-4.9 39.35 -4.8 35.3 -4.7 32.4 -5.0 25.15 L-5.5 15.35 Q-5.6 14.25 -5.85 13.0 L-7.9 0.4 -7.0 0.25 -6.1 -0.4 -5.95 0.15 -4.85 5.1 -3.55 12.6 -3.45 13.3 -3.7 13.35 -3.05 21.4 -2.75 29.8 -2.95 37.2 -0.95 35.25 -0.9 35.15 2.35 40.0 5.35 34.9 6.05 36.2 7.75 39.4 9.25 34.0 10.85 34.7 9.55 28.3 7.45 19.0 5.8 12.35 Q5.65 12.4 5.5 10.7 L4.85 4.15 4.4 -0.7" fill="#0f625e" fill-rule="evenodd" stroke="none"/>
    <path d="M-5.95 0.15 L-2.35 -1.55 1.15 -1.5 Q2.05 1.0 2.2 3.5 -1.95 3.3 -4.85 5.1 L-5.95 0.15 M6.05 36.2 L5.35 34.9 2.35 40.0 -0.9 35.15 -0.95 35.25 -1.65 29.3 Q0.95 28.4 5.25 28.1 L6.05 36.2 M-3.45 13.3 L-3.55 12.6 Q-1.65 11.45 3.2 10.75 L4.2 18.8 0.1 19.55 Q-1.2 20.0 -2.6 21.05 L-3.45 13.3" fill="#1bba96" fill-rule="evenodd" stroke="none"/>
    <path d="M-3.55 12.6 L-4.85 5.1 Q-1.95 3.3 2.2 3.5 L2.25 3.5 3.2 10.75 Q-1.65 11.45 -3.55 12.6 M-2.6 21.05 Q-1.2 20.0 0.1 19.55 L4.2 18.8 5.25 28.1 Q0.95 28.4 -1.65 29.3 L-2.6 21.05" fill="#f1ebe0" fill-rule="evenodd" stroke="none"/>
    <path d="M4.85 4.15 L5.5 10.7 3.2 10.75 2.25 3.5 4.85 4.15 M7.45 19.0 L9.55 28.3 5.25 28.1 4.2 18.8 7.45 19.0 M-2.75 29.8 L-3.05 21.4 -2.6 21.05 -1.65 29.3 -2.75 29.8" fill="#d8c8a9" fill-rule="evenodd" stroke="none"/>
    <path d="M8.0 12.1 L8.5 16.3 8.6 17.0 7.8 12.05 8.0 12.1 M-5.5 15.35 L-5.8 13.55 -5.8 13.5 -5.85 13.0 Q-5.6 14.25 -5.5 15.35" fill="#5c4730" fill-rule="evenodd" stroke="none"/>
  </g>
</svg>
