<?xml version="1.0" encoding="UTF-8" standalone="no"?>
<svg xmlns:ffdec="https://www.free-decompiler.com/flash" xmlns:xlink="http://www.w3.org/1999/xlink" ffdec:objectType="shape" height="29.9px" width="133.75px" xmlns="http://www.w3.org/2000/svg">
  <g transform="matrix(1.0, 0.0, 0.0, 1.0, 49.0, -43.0)">
    <path d="M-49.0 64.75 L-49.0 43.0 84.75 43.0 84.75 64.75 Q78.0 58.0 66.25 65.0 56.75 69.15 44.75 64.75 23.75 57.7 18.25 58.25 7.5 59.35 -4.9 64.85 -17.3 70.35 -32.0 63.0 -41.35 60.35 -49.0 64.75" fill="#f94a00" fill-rule="evenodd" stroke="none"/>
    <path d="M84.75 66.25 L84.75 67.5 Q78.0 60.75 66.25 67.75 56.75 71.9 44.75 67.5 23.75 60.45 18.25 61.0 7.5 62.1 -4.9 67.6 -17.3 73.1 -32.0 65.75 -41.35 63.1 -49.0 67.5 L-49.0 66.25 Q-41.35 61.85 -32.0 64.5 -17.3 71.85 -4.9 66.35 7.5 60.85 18.25 59.75 23.75 59.2 44.75 66.25 56.75 70.65 66.25 66.5 78.0 59.5 84.75 66.25" fill="#772400" fill-rule="evenodd" stroke="none"/>
    <path d="M84.75 64.75 L84.75 66.25 Q78.0 59.5 66.25 66.5 56.75 70.65 44.75 66.25 23.75 59.2 18.25 59.75 7.5 60.85 -4.9 66.35 -17.3 71.85 -32.0 64.5 -41.35 61.85 -49.0 66.25 L-49.0 64.75 Q-41.35 60.35 -32.0 63.0 -17.3 70.35 -4.9 64.85 7.5 59.35 18.25 58.25 23.75 57.7 44.75 64.75 56.75 69.15 66.25 65.0 78.0 58.0 84.75 64.75" fill="#ff6320" fill-rule="evenodd" stroke="none"/>
    <path d="M28.25 48.9 Q32.4 53.05 32.4 58.85 32.4 64.65 28.25 68.75 24.15 72.9 18.35 72.9 12.55 72.9 8.4 68.75 4.3 64.65 4.3 58.85 4.3 53.05 8.4 48.9 12.55 44.8 18.35 44.8 24.15 44.8 28.25 48.9" fill="#772400" fill-rule="evenodd" stroke="none"/>
    <path d="M22.3 59.05 Q23.25 60.0 23.25 61.3 23.25 62.35 22.75 63.1 L23.05 63.45 Q23.7 64.25 23.7 65.4 23.7 66.3 23.3 67.1 L22.1 68.35 22.05 68.4 22.0 68.4 21.3 68.7 20.65 68.8 20.6 68.8 19.3 68.9 13.65 68.9 13.65 58.15 19.7 58.15 21.3 58.4 22.3 59.05 M21.6 59.75 L21.3 59.55 19.7 59.15 14.65 59.15 14.65 67.9 19.3 67.9 20.5 67.8 21.3 67.6 21.55 67.5 22.4 66.6 22.7 65.4 Q22.7 64.6 22.25 64.05 21.95 63.65 21.3 63.4 L20.85 63.25 21.3 63.05 21.85 62.65 Q22.25 62.1 22.25 61.3 22.25 60.4 21.6 59.75 M18.75 64.25 L19.7 64.5 20.0 65.1 19.7 65.75 18.75 66.0 17.3 66.0 17.3 64.25 18.75 64.25 M17.3 60.95 L18.55 60.95 19.4 61.1 19.65 61.75 19.4 62.35 18.55 62.6 17.3 62.6 17.3 60.95" fill="#972e00" fill-rule="evenodd" stroke="none"/>
    <path d="M10.45 48.9 L10.65 48.75 10.75 48.7 11.8 47.95 Q12.75 47.35 13.75 47.0 L15.4 46.5 15.95 46.4 15.95 55.9 Q14.95 53.85 14.85 50.6 14.0 52.35 13.6 53.9 13.0 56.1 13.3 57.9 12.25 57.35 12.0 55.9 11.8 55.15 12.15 54.5 L11.95 54.8 Q9.55 57.75 11.95 62.2 L12.7 63.65 11.95 63.55 Q11.05 63.45 10.45 63.05 L10.45 48.9 M21.3 46.55 Q22.55 46.8 23.7 47.35 L24.5 47.8 25.3 48.25 25.8 48.6 26.2 48.95 26.7 49.35 26.7 60.35 26.35 60.65 25.75 61.0 24.55 61.35 24.45 61.35 24.55 61.0 Q25.5 58.3 25.7 54.35 L24.55 56.55 Q23.4 58.5 22.15 58.5 L22.05 58.5 22.15 58.4 Q24.05 54.05 22.5 51.7 22.5 52.6 22.15 53.3 L21.8 53.65 21.3 54.1 21.3 46.55 M26.7 68.3 L26.05 68.9 25.35 69.4 25.3 69.45 24.3 70.05 23.25 70.55 21.3 71.2 21.3 69.9 21.8 69.7 22.15 69.6 Q23.4 69.05 24.35 68.0 L24.55 67.75 25.75 66.2 26.35 65.2 26.7 64.35 26.7 68.3 M15.95 71.3 L13.8 70.7 13.75 70.7 12.9 70.35 12.55 70.15 12.0 69.85 11.35 69.4 10.7 68.95 10.65 68.9 10.45 68.75 10.45 66.6 11.95 68.25 13.6 69.15 15.0 69.65 15.95 69.85 15.95 71.3" fill="#ebebeb" fill-rule="evenodd" stroke="none"/>
    <path d="M15.95 46.4 L16.75 46.3 17.35 46.25 19.25 46.25 20.15 46.35 20.6 46.4 21.3 46.55 21.3 54.1 20.7 54.45 Q19.0 49.7 20.95 47.25 20.4 47.45 19.95 47.8 19.65 47.95 19.45 48.2 17.9 49.4 17.25 51.4 L16.8 53.1 Q16.3 55.15 16.6 57.0 L15.95 55.9 15.95 46.4 M21.3 71.2 L20.8 71.3 20.2 71.4 20.15 71.4 19.25 71.5 17.6 71.5 16.9 71.45 16.8 71.45 15.95 71.3 15.95 69.85 16.8 70.05 19.45 70.2 19.95 70.15 21.3 69.9 21.3 71.2 M21.6 59.75 Q22.25 60.4 22.25 61.3 22.25 62.1 21.85 62.65 L21.3 63.05 20.85 63.25 21.3 63.4 Q21.95 63.65 22.25 64.05 22.7 64.6 22.7 65.4 L22.4 66.6 21.55 67.5 21.3 67.6 20.5 67.8 19.3 67.9 14.65 67.9 14.65 59.15 19.7 59.15 21.3 59.55 21.6 59.75 M17.3 60.95 L17.3 62.6 18.55 62.6 19.4 62.35 19.65 61.75 19.4 61.1 18.55 60.95 17.3 60.95 M18.75 64.25 L17.3 64.25 17.3 66.0 18.75 66.0 19.7 65.75 20.0 65.1 19.7 64.5 18.75 64.25" fill="#ffffff" fill-rule="evenodd" stroke="none"/>
    <path d="M26.7 49.35 L27.25 49.85 27.3 49.9 27.75 50.4 27.8 50.45 Q29.3 52.15 30.1 54.2 L30.25 54.55 30.4 54.95 30.45 55.15 30.65 56.0 30.95 58.7 30.95 58.85 30.95 59.0 30.75 61.3 30.45 62.6 30.4 62.85 Q29.6 65.2 27.85 67.15 L27.8 67.25 27.35 67.7 27.3 67.75 27.25 67.75 26.7 68.3 26.7 64.35 Q27.55 62.05 27.6 59.15 L26.7 60.35 26.7 49.35 M10.45 68.75 L9.35 67.75 9.1 67.5 9.05 67.45 8.6 66.95 8.45 66.75 8.0 66.2 7.95 66.15 7.5 65.45 6.45 63.3 Q5.7 61.25 5.7 58.85 5.75 55.65 6.95 53.25 L7.95 51.55 9.0 50.25 9.25 50.0 9.3 49.9 9.35 49.85 10.45 48.9 10.45 63.05 Q9.75 62.5 9.4 61.55 9.2 64.6 10.45 66.6 L10.45 68.75" fill="#dadada" fill-rule="evenodd" stroke="none"/>
    <path d="M10.45 63.05 Q11.05 63.45 11.95 63.55 L12.7 63.65 11.95 62.2 Q9.55 57.75 11.95 54.8 L12.15 54.5 Q11.8 55.15 12.0 55.9 12.25 57.35 13.3 57.9 13.0 56.1 13.6 53.9 14.0 52.35 14.85 50.6 14.95 53.85 15.95 55.9 L16.6 57.0 Q16.3 55.15 16.8 53.1 L17.25 51.4 Q17.9 49.4 19.45 48.2 19.65 47.95 19.95 47.8 20.4 47.45 20.95 47.25 19.0 49.7 20.7 54.45 L21.3 54.1 21.8 53.65 22.15 53.3 Q22.5 52.6 22.5 51.7 24.05 54.05 22.15 58.4 L22.05 58.5 22.15 58.5 Q23.4 58.5 24.55 56.55 L25.7 54.35 Q25.5 58.3 24.55 61.0 L24.45 61.35 24.55 61.35 25.75 61.0 26.35 60.65 26.7 60.35 27.6 59.15 Q27.55 62.05 26.7 64.35 L26.35 65.2 25.75 66.2 24.55 67.75 24.35 68.0 Q23.4 69.05 22.15 69.6 L21.8 69.7 21.3 69.9 19.95 70.15 19.45 70.2 16.8 70.05 15.95 69.85 15.0 69.65 13.6 69.15 11.95 68.25 10.45 66.6 Q9.2 64.6 9.4 61.55 9.75 62.5 10.45 63.05 M22.3 59.05 L21.3 58.4 19.7 58.15 13.65 58.15 13.65 68.9 19.3 68.9 20.6 68.8 20.65 68.8 21.3 68.7 22.0 68.4 22.05 68.4 22.1 68.35 23.3 67.1 Q23.7 66.3 23.7 65.4 23.7 64.25 23.05 63.45 L22.75 63.1 Q23.25 62.35 23.25 61.3 23.25 60.0 22.3 59.05" fill="#d94100" fill-rule="evenodd" stroke="none"/>
  </g>
</svg>
