<?xml version="1.0" encoding="UTF-8" standalone="no"?>
<svg xmlns:ffdec="https://www.free-decompiler.com/flash" xmlns:xlink="http://www.w3.org/1999/xlink" ffdec:objectType="shape" height="29.9px" width="133.75px" xmlns="http://www.w3.org/2000/svg">
  <g transform="matrix(1.0, 0.0, 0.0, 1.0, 49.0, -43.0)">
    <path d="M-49.0 64.75 L-49.0 43.0 84.75 43.0 84.75 64.75 Q78.0 58.0 66.25 65.0 56.75 69.15 44.75 64.75 23.75 57.7 18.25 58.25 7.5 59.35 -4.9 64.85 -17.3 70.35 -32.0 63.0 -41.35 60.35 -49.0 64.75" fill="#a8561a" fill-rule="evenodd" stroke="none"/>
    <path d="M84.75 66.25 L84.75 67.5 Q78.0 60.75 66.25 67.75 56.75 71.9 44.75 67.5 23.75 60.45 18.25 61.0 7.5 62.1 -4.9 67.6 -17.3 73.1 -32.0 65.75 -41.35 63.1 -49.0 67.5 L-49.0 66.25 Q-41.35 61.85 -32.0 64.5 -17.3 71.85 -4.9 66.35 7.5 60.85 18.25 59.75 23.75 59.2 44.75 66.25 56.75 70.65 66.25 66.5 78.0 59.5 84.75 66.25" fill="#48250b" fill-rule="evenodd" stroke="none"/>
    <path d="M84.75 64.75 L84.75 66.25 Q78.0 59.5 66.25 66.5 56.75 70.65 44.75 66.25 23.75 59.2 18.25 59.75 7.5 60.85 -4.9 66.35 -17.3 71.85 -32.0 64.5 -41.35 61.85 -49.0 66.25 L-49.0 64.75 Q-41.35 60.35 -32.0 63.0 -17.3 70.35 -4.9 64.85 7.5 59.35 18.25 58.25 23.75 57.7 44.75 64.75 56.75 69.15 66.25 65.0 78.0 58.0 84.75 64.75" fill="#cc6920" fill-rule="evenodd" stroke="none"/>
    <path d="M28.25 48.9 Q32.4 53.05 32.4 58.85 32.4 64.65 28.25 68.75 24.15 72.9 18.35 72.9 12.55 72.9 8.4 68.75 4.3 64.65 4.3 58.85 4.3 53.05 8.4 48.9 12.55 44.8 18.35 44.8 24.15 44.8 28.25 48.9" fill="#48250b" fill-rule="evenodd" stroke="none"/>
    <path d="M17.3 58.95 L18.0 59.0 18.6 59.2 19.35 61.45 19.7 62.45 19.75 62.55 19.95 63.75 20.0 64.4 20.2 66.45 20.55 68.3 20.9 69.8 Q20.85 70.3 18.6 71.0 L18.5 70.85 18.35 70.8 18.25 68.5 18.1 67.0 17.9 64.65 17.9 64.4 17.75 62.55 17.5 61.45 17.15 60.0 17.2 59.25 17.2 59.0 17.2 58.95 17.3 58.95" fill="#874514" fill-rule="evenodd" stroke="none"/>
    <path d="M10.45 48.9 L10.65 48.75 10.75 48.7 11.8 47.95 Q12.75 47.35 13.75 47.0 L15.4 46.5 15.95 46.4 15.95 49.45 Q13.5 50.05 11.6 51.95 L10.6 53.15 10.45 53.2 10.45 48.9 M21.3 46.55 Q22.55 46.8 23.7 47.35 L24.5 47.8 25.3 48.25 25.8 48.6 26.2 48.95 26.7 49.35 26.7 49.65 Q25.2 49.05 22.9 49.65 L22.3 49.95 21.3 49.6 21.3 46.55 M26.7 68.3 L26.05 68.9 25.35 69.4 25.3 69.45 24.3 70.05 23.25 70.55 21.3 71.2 21.3 68.1 Q23.5 67.4 25.2 65.6 L26.3 64.4 26.7 63.8 26.7 68.3 M15.95 71.3 L13.8 70.7 13.75 70.7 12.9 70.35 12.55 70.15 12.0 69.85 11.35 69.4 10.7 68.95 10.65 68.9 10.45 68.75 10.45 67.5 10.5 67.6 10.65 67.25 10.65 66.35 Q10.65 65.85 11.05 65.0 L11.6 65.6 Q13.5 67.55 15.95 68.2 L15.95 71.3 M25.3 50.1 L25.65 50.2 26.7 49.7 26.7 53.8 25.2 51.95 23.95 50.9 24.05 50.75 25.3 50.5 25.2 50.15 25.3 50.1" fill="#ebebeb" fill-rule="evenodd" stroke="none"/>
    <path d="M15.95 46.4 L16.75 46.3 17.35 46.25 19.25 46.25 20.15 46.35 20.6 46.4 21.3 46.55 21.3 49.6 18.4 49.15 15.95 49.45 15.95 46.4 M21.3 71.2 L20.8 71.3 20.2 71.4 20.15 71.4 19.25 71.5 17.6 71.5 16.9 71.45 16.8 71.45 15.95 71.3 15.95 68.2 18.25 68.5 18.35 70.8 18.5 70.85 18.6 71.0 Q20.85 70.3 20.9 69.8 L20.55 68.3 21.3 68.1 21.3 71.2" fill="#ffffff" fill-rule="evenodd" stroke="none"/>
    <path d="M26.7 49.35 L27.25 49.85 27.3 49.9 27.75 50.4 27.8 50.45 Q29.3 52.15 30.1 54.2 L30.25 54.55 30.4 54.95 30.45 55.15 30.65 56.0 30.95 58.7 30.95 58.85 30.95 59.0 30.75 61.3 30.45 62.6 30.4 62.85 Q29.6 65.2 27.85 67.15 L27.8 67.25 27.35 67.7 27.3 67.75 27.25 67.75 26.7 68.3 26.7 63.8 27.35 62.55 27.75 61.45 Q28.1 60.3 28.1 59.0 L28.1 58.8 28.0 57.3 27.95 57.1 27.85 56.6 27.7 55.95 28.75 56.5 28.85 56.45 29.05 56.35 Q28.8 55.55 27.3 54.95 L27.0 54.3 26.7 53.8 26.7 49.7 26.75 49.65 26.7 49.65 26.7 49.35 M10.45 68.75 L9.35 67.75 9.1 67.5 9.05 67.45 8.6 66.95 8.45 66.75 8.0 66.2 7.95 66.15 7.5 65.45 6.45 63.3 Q5.7 61.25 5.7 58.85 5.75 55.65 6.95 53.25 L7.95 51.55 9.0 50.25 9.25 50.0 9.3 49.9 9.35 49.85 10.45 48.9 10.45 53.2 Q9.35 53.4 8.05 54.2 L7.15 54.95 7.9 54.8 8.0 54.75 8.4 54.65 8.5 54.65 9.25 54.85 9.6 54.85 9.1 56.3 8.6 56.6 8.95 56.75 9.0 56.75 8.95 57.1 8.9 57.3 8.8 58.8 8.8 58.95 Q7.65 60.15 7.15 61.4 L6.95 62.45 8.0 61.15 Q8.25 60.85 9.0 60.85 L9.15 61.45 9.55 62.55 10.35 64.05 9.85 65.6 Q9.85 66.25 10.0 66.6 L10.45 67.5 10.45 68.75" fill="#dadada" fill-rule="evenodd" stroke="none"/>
    <path d="M27.85 56.6 L27.95 57.1 28.0 57.3 21.9 57.3 20.8 57.05 21.25 56.6 27.85 56.6 M28.1 59.0 Q28.1 60.3 27.75 61.45 L24.15 61.45 24.05 61.2 Q23.95 59.95 23.45 59.0 L28.1 59.0 M27.35 62.55 L26.7 63.8 26.3 64.4 20.0 64.4 19.95 63.75 19.75 62.55 27.35 62.55 M9.0 56.75 L10.0 56.85 Q11.1 56.85 10.75 57.3 L8.9 57.3 8.95 57.1 9.0 56.75 M18.6 59.2 L19.75 59.55 Q20.05 59.6 20.55 60.55 L20.8 60.4 21.15 60.4 21.2 60.4 21.25 60.45 21.25 60.4 21.6 60.4 21.8 60.45 Q22.25 60.5 22.55 60.9 L22.8 61.2 23.1 61.3 23.45 61.45 19.35 61.45 18.6 59.2 M24.05 61.35 L24.15 61.45 24.05 61.45 24.05 61.35 M9.0 60.85 Q9.7 60.85 9.95 60.5 L10.15 59.8 10.65 59.7 11.9 59.0 13.7 59.0 Q12.4 60.0 11.55 61.45 L9.15 61.45 9.0 60.85 M10.95 62.55 L10.35 64.05 9.55 62.55 10.95 62.55 M11.3 64.4 L11.4 63.65 Q11.4 63.2 11.8 62.9 L12.2 62.55 14.25 62.55 Q13.9 62.95 14.0 63.6 L14.05 63.65 14.1 64.4 11.3 64.4 M12.9 61.45 L13.0 61.15 14.0 61.45 12.9 61.45 M16.75 62.9 L17.0 62.55 17.75 62.55 17.9 64.4 16.55 64.4 16.75 62.9 M17.5 61.45 L16.9 61.45 17.15 60.0 17.5 61.45" fill="#ffbe1c" fill-rule="evenodd" stroke="none"/>
    <path d="M10.6 53.15 L11.6 51.95 Q13.5 50.05 15.95 49.45 L18.4 49.15 21.3 49.6 22.3 49.95 Q21.85 50.2 21.15 50.7 L19.55 51.85 18.6 52.45 Q19.6 51.0 19.5 50.3 L19.8 49.3 Q19.3 49.65 19.0 49.95 L18.2 50.1 Q17.7 50.1 15.55 54.6 L15.0 54.35 13.7 53.65 Q12.25 53.1 11.25 53.1 L10.6 53.15 M26.7 53.8 L27.0 54.3 27.3 54.95 26.7 54.7 Q24.8 54.0 24.8 53.3 24.8 52.7 23.15 52.9 L21.25 53.2 21.05 53.25 20.75 53.3 21.4 52.95 22.55 51.9 Q22.75 51.5 23.8 51.0 L23.95 50.9 25.2 51.95 26.7 53.8 M27.7 55.95 L27.85 56.6 21.25 56.6 21.4 56.5 Q22.05 56.0 22.95 56.0 L24.05 55.6 Q24.15 55.5 24.3 55.45 L25.15 55.45 26.05 55.65 26.95 55.85 27.7 55.95 M28.0 57.3 L28.1 58.8 28.1 59.0 23.45 59.0 23.1 58.45 21.9 57.3 28.0 57.3 M20.0 53.55 L20.4 53.55 20.15 54.0 19.95 53.6 19.9 53.55 20.0 53.55 M12.5 55.2 L9.45 56.05 9.1 56.3 9.6 54.85 11.65 54.95 12.5 55.2 M10.75 57.3 L10.4 57.6 9.05 58.7 8.8 58.95 8.8 58.8 8.9 57.3 10.75 57.3 M11.9 59.0 L12.8 58.4 13.2 58.6 14.0 58.75 13.7 59.0 11.9 59.0" fill="#ffe158" fill-rule="evenodd" stroke="none"/>
    <path d="M27.75 61.45 L27.35 62.55 19.75 62.55 19.7 62.45 19.35 61.45 23.45 61.45 24.05 61.75 24.05 61.45 24.15 61.45 24.15 61.5 24.15 61.45 27.75 61.45 M26.3 64.4 L25.2 65.6 Q23.5 67.4 21.3 68.1 L20.55 68.3 20.2 66.45 20.0 64.4 26.3 64.4 M18.25 68.5 L15.95 68.2 Q13.5 67.55 11.6 65.6 L11.05 65.0 11.3 64.4 14.1 64.4 14.1 64.7 Q14.15 65.35 14.75 65.35 L15.55 66.45 16.1 66.55 16.25 66.3 16.4 65.2 16.45 65.05 16.5 64.7 16.55 64.4 17.9 64.4 17.9 64.65 18.1 67.0 18.25 68.5 M11.55 61.45 L10.95 62.55 9.55 62.55 9.15 61.45 11.55 61.45 M12.2 62.55 L12.9 61.45 14.0 61.45 14.05 61.75 13.9 62.1 13.9 62.2 14.35 62.45 14.25 62.55 12.2 62.55 M17.0 62.55 L17.0 62.45 16.85 61.85 16.9 61.45 17.5 61.45 17.75 62.55 17.0 62.55" fill="#ee9815" fill-rule="evenodd" stroke="none"/>
    <path d="M26.7 49.65 L26.75 49.65 26.7 49.7 25.65 50.2 25.3 50.1 25.65 50.0 26.15 49.65 22.9 49.65 Q25.2 49.05 26.7 49.65 M24.05 50.75 L23.95 50.25 25.2 50.15 25.3 50.5 24.05 50.75 M14.75 65.35 Q15.65 65.35 15.85 66.2 L15.9 66.2 16.25 66.3 16.1 66.55 15.55 66.45 14.75 65.35" fill="#528e00" fill-rule="evenodd" stroke="none"/>
    <path d="M22.9 49.65 L26.15 49.65 25.65 50.0 25.3 50.1 25.2 50.15 23.95 50.25 24.05 50.75 23.95 50.9 23.8 51.0 Q22.5 51.5 21.7 52.55 L21.4 52.95 20.75 53.3 21.05 53.25 20.6 53.4 20.0 53.55 19.9 53.55 19.95 53.6 19.75 53.75 Q19.65 53.8 19.65 53.3 19.65 52.65 19.0 54.8 L18.45 56.6 18.3 57.15 18.3 57.3 Q18.25 58.1 17.6 57.8 L17.45 56.65 17.45 56.6 18.3 54.3 Q19.15 52.4 19.55 51.85 L21.15 50.7 Q21.85 50.2 22.3 49.95 L22.9 49.65 M15.0 54.35 L16.45 56.6 16.8 57.3 17.05 57.85 16.55 57.3 15.9 56.6 15.5 56.25 Q14.7 55.5 13.4 55.5 L12.55 55.25 12.5 55.2 11.65 54.95 9.6 54.85 9.25 54.85 8.5 54.65 8.4 54.65 8.0 54.75 7.9 54.8 7.5 54.8 Q9.2 53.65 9.5 53.55 L10.4 53.4 13.7 53.65 15.0 54.35 M10.4 57.6 L11.2 57.3 Q12.7 56.75 14.0 56.75 14.05 56.75 15.3 57.3 L17.25 58.15 16.8 58.6 17.1 58.65 17.35 58.85 17.3 58.95 17.2 58.95 17.2 59.0 17.2 59.25 Q16.75 60.35 16.8 61.4 L16.8 61.45 16.85 61.85 17.0 62.45 17.0 62.55 16.75 62.9 16.55 62.9 Q16.1 62.8 16.1 63.3 L16.35 64.2 16.45 64.4 16.5 64.7 16.45 65.05 16.4 65.2 16.25 66.3 15.9 66.2 15.85 66.2 Q15.65 65.35 14.75 65.35 14.15 65.35 14.1 64.7 L14.1 64.4 14.05 63.65 14.0 63.6 14.55 62.35 13.9 62.1 14.05 61.75 14.0 61.45 14.0 61.2 Q14.0 60.75 14.65 60.3 L15.9 59.0 16.2 58.5 14.7 58.15 12.7 57.9 Q12.2 57.9 12.0 58.35 L11.3 58.75 10.65 58.9 10.45 59.0 9.95 59.05 Q9.45 59.05 9.25 59.7 L8.9 60.25 8.5 60.35 Q7.95 60.35 7.9 60.8 L7.75 60.85 7.1 62.15 Q7.75 60.65 8.8 59.1 L8.85 59.0 9.05 58.7 10.4 57.6 M21.15 60.4 L19.4 59.15 19.1 59.0 Q18.35 58.65 17.9 58.65 L19.1 58.1 17.75 58.2 18.95 57.55 19.65 57.3 20.1 57.2 18.95 57.1 19.25 56.4 Q19.75 54.9 21.6 54.45 L24.4 54.2 26.5 55.05 27.6 55.6 27.85 55.75 27.8 55.75 27.65 55.75 27.35 55.7 26.9 55.6 26.05 55.4 25.15 55.2 Q24.75 55.2 24.3 55.45 24.15 55.5 24.05 55.6 L22.95 56.0 Q22.05 56.0 21.4 56.5 L21.25 56.6 21.05 56.75 20.55 57.1 20.8 57.05 21.2 57.3 22.9 59.0 24.05 61.2 24.15 61.45 24.05 61.35 22.4 59.35 23.4 60.45 23.95 61.45 24.05 61.75 23.45 61.45 23.1 61.3 22.8 61.2 22.55 60.9 Q22.25 60.5 21.8 60.45 L21.7 60.1 21.25 60.4 21.25 60.45 21.2 60.4 21.15 60.4 M24.15 61.45 L24.15 61.5 24.15 61.45" fill="#67a613" fill-rule="evenodd" stroke="none"/>
    <path d="M27.3 54.95 Q28.8 55.55 29.05 56.35 L28.85 56.45 28.75 56.35 28.75 56.5 27.7 55.95 26.95 55.85 26.05 55.65 25.15 55.45 24.3 55.45 Q24.75 55.2 25.15 55.2 L26.05 55.4 26.9 55.6 27.35 55.7 27.65 55.75 27.8 55.75 27.85 55.75 27.6 55.6 26.5 55.05 24.4 54.2 21.6 54.45 Q19.75 54.9 19.25 56.4 L18.95 57.1 20.1 57.2 19.65 57.3 18.95 57.55 17.75 58.2 19.1 58.1 17.9 58.65 Q18.35 58.65 19.1 59.0 L19.4 59.15 21.15 60.4 20.8 60.4 20.55 60.55 Q20.05 59.6 19.75 59.55 L18.6 59.2 18.0 59.0 17.3 58.95 17.35 58.85 17.1 58.65 16.8 58.6 17.25 58.15 15.3 57.3 Q14.05 56.75 14.0 56.75 12.7 56.75 11.2 57.3 L10.4 57.6 10.75 57.3 Q11.1 56.85 10.0 56.85 L9.0 56.75 8.95 56.75 8.6 56.6 9.1 56.3 9.45 56.05 12.5 55.2 12.55 55.25 13.4 55.5 Q14.7 55.5 15.5 56.25 L15.9 56.6 16.55 57.3 17.05 57.85 16.8 57.3 16.45 56.6 15.0 54.35 15.55 54.6 Q17.7 50.1 18.2 50.1 L19.0 49.95 Q19.3 49.65 19.8 49.3 L19.5 50.3 Q19.6 51.0 18.6 52.45 L19.55 51.85 Q19.15 52.4 18.3 54.3 L17.45 56.6 17.45 56.65 17.6 57.8 Q18.25 58.1 18.3 57.3 L18.3 57.15 18.45 56.6 19.0 54.8 Q19.65 52.65 19.65 53.3 19.65 53.8 19.75 53.75 L19.95 53.6 20.15 54.0 20.4 53.55 20.0 53.55 20.6 53.4 21.05 53.25 21.25 53.2 23.15 52.9 Q24.8 52.7 24.8 53.3 24.8 54.0 26.7 54.7 L27.3 54.95 M9.05 58.7 L8.85 59.0 8.8 59.1 Q7.75 60.65 7.1 62.15 L7.75 60.85 7.9 60.8 Q7.95 60.35 8.5 60.35 L8.9 60.25 9.25 59.7 Q9.45 59.05 9.95 59.05 L10.45 59.0 10.65 58.9 11.3 58.75 12.0 58.35 Q12.2 57.9 12.7 57.9 L14.7 58.15 16.2 58.5 15.9 59.0 14.65 60.3 Q14.0 60.75 14.0 61.2 L14.0 61.45 13.0 61.15 12.9 61.45 12.2 62.55 11.8 62.9 Q11.4 63.2 11.4 63.65 L11.3 64.4 11.05 65.0 Q10.65 65.85 10.65 66.35 L10.65 67.25 10.5 67.6 10.45 67.5 10.0 66.6 Q9.85 66.25 9.85 65.6 L10.35 64.05 10.95 62.55 11.55 61.45 Q12.4 60.0 13.7 59.0 L14.0 58.75 13.2 58.6 12.8 58.4 11.9 59.0 10.65 59.7 10.15 59.8 9.95 60.5 Q9.7 60.85 9.0 60.85 8.25 60.85 8.0 61.15 L6.95 62.45 7.15 61.4 Q7.65 60.15 8.8 58.95 L9.05 58.7 M16.5 64.7 L16.45 64.4 16.35 64.2 16.1 63.3 Q16.1 62.8 16.55 62.9 L16.75 62.9 16.55 64.4 16.5 64.7" fill="#477409" fill-rule="evenodd" stroke="none"/>
    <path d="M10.45 53.2 L10.6 53.15 11.25 53.1 Q12.25 53.1 13.7 53.65 L10.4 53.4 9.5 53.55 Q9.2 53.65 7.5 54.8 L7.9 54.8 7.15 54.95 8.05 54.2 Q9.35 53.4 10.45 53.2 M21.4 52.95 L21.7 52.55 Q22.5 51.5 23.8 51.0 22.75 51.5 22.55 51.9 L21.4 52.95 M21.25 56.6 L20.8 57.05 20.55 57.1 21.05 56.75 21.25 56.6 21.4 56.5 21.25 56.6 M20.8 57.05 L21.9 57.3 23.1 58.45 23.45 59.0 Q23.95 59.95 24.05 61.2 L22.9 59.0 21.2 57.3 20.8 57.05 M21.25 60.4 L21.7 60.1 21.8 60.45 21.6 60.4 21.25 60.4 M24.05 61.75 L23.95 61.45 23.4 60.45 22.4 59.35 24.05 61.35 24.05 61.45 24.05 61.75 M13.9 62.1 L14.55 62.35 14.0 63.6 Q13.9 62.95 14.25 62.55 L14.35 62.45 13.9 62.2 13.9 62.1 M16.85 61.85 L16.8 61.45 16.8 61.4 Q16.75 60.35 17.2 59.25 L17.15 60.0 16.9 61.45 16.85 61.85" fill="#568c0c" fill-rule="evenodd" stroke="none"/>
    <path d="M28.85 56.45 L28.75 56.5 28.75 56.35 28.85 56.45" fill="#7ed50b" fill-rule="evenodd" stroke="none"/>
  </g>
</svg>
