<?xml version="1.0" encoding="UTF-8" standalone="no"?>
<svg xmlns:ffdec="https://www.free-decompiler.com/flash" xmlns:xlink="http://www.w3.org/1999/xlink" ffdec:objectType="shape" height="29.9px" width="133.75px" xmlns="http://www.w3.org/2000/svg">
  <g transform="matrix(1.0, 0.0, 0.0, 1.0, 49.0, -43.0)">
    <path d="M-49.0 64.75 L-49.0 43.0 84.75 43.0 84.75 64.75 Q78.0 58.0 66.25 65.0 56.75 69.15 44.75 64.75 23.75 57.7 18.25 58.25 7.5 59.35 -4.9 64.85 -17.3 70.35 -32.0 63.0 -41.35 60.35 -49.0 64.75" fill="#fcd03a" fill-rule="evenodd" stroke="none"/>
    <path d="M84.75 66.25 L84.75 67.5 Q78.0 60.75 66.25 67.75 56.75 71.9 44.75 67.5 23.75 60.45 18.25 61.0 7.5 62.1 -4.9 67.6 -17.3 73.1 -32.0 65.75 -41.35 63.1 -49.0 67.5 L-49.0 66.25 Q-41.35 61.85 -32.0 64.5 -17.3 71.85 -4.9 66.35 7.5 60.85 18.25 59.75 23.75 59.2 44.75 66.25 56.75 70.65 66.25 66.5 78.0 59.5 84.75 66.25" fill="#8f5703" fill-rule="evenodd" stroke="none"/>
    <path d="M84.75 64.75 L84.75 66.25 Q78.0 59.5 66.25 66.5 56.75 70.65 44.75 66.25 23.75 59.2 18.25 59.75 7.5 60.85 -4.9 66.35 -17.3 71.85 -32.0 64.5 -41.35 61.85 -49.0 66.25 L-49.0 64.75 Q-41.35 60.35 -32.0 63.0 -17.3 70.35 -4.9 64.85 7.5 59.35 18.25 58.25 23.75 57.7 44.75 64.75 56.75 69.15 66.25 65.0 78.0 58.0 84.75 64.75" fill="#fee389" fill-rule="evenodd" stroke="none"/>
    <path d="M28.25 48.9 Q32.4 53.05 32.4 58.85 32.4 64.65 28.25 68.75 24.15 72.9 18.35 72.9 12.55 72.9 8.4 68.75 4.3 64.65 4.3 58.85 4.3 53.05 8.4 48.9 12.55 44.8 18.35 44.8 24.15 44.8 28.25 48.9" fill="#8f5703" fill-rule="evenodd" stroke="none"/>
    <path d="M10.45 52.15 L11.05 51.5 Q13.05 49.5 15.65 48.8 L15.65 49.95 15.85 51.95 15.9 52.9 Q15.6 54.4 14.4 55.5 L12.75 56.8 Q11.35 57.85 10.5 59.3 L10.45 59.4 Q9.75 60.6 9.45 62.0 L9.5 62.8 Q9.65 63.9 10.45 64.6 L11.45 65.2 12.85 65.7 13.85 66.05 13.4 66.95 13.0 67.8 11.05 66.2 10.45 65.55 Q8.0 62.7 8.0 58.85 8.0 55.0 10.45 52.15 M16.8 48.6 L17.25 48.5 16.95 49.8 16.8 48.6 M18.3 48.45 L18.4 48.45 18.7 48.45 18.35 49.1 18.3 48.45 M20.1 48.6 L21.3 48.85 Q23.8 49.55 25.75 51.5 L26.7 52.55 Q28.85 55.25 28.85 58.85 28.85 62.45 26.7 65.15 L25.75 66.2 24.9 67.0 24.65 66.85 22.75 66.15 23.25 64.8 Q25.55 65.05 26.7 62.9 27.75 60.95 27.35 58.75 27.2 57.95 26.7 57.3 L26.4 56.95 Q25.45 55.95 24.25 55.3 L21.55 54.05 21.3 53.95 20.6 53.25 19.8 51.1 19.55 49.85 20.1 48.6 M24.05 67.65 L22.25 68.6 Q22.25 67.95 21.85 67.15 L22.5 67.2 23.9 67.6 24.05 67.65 M21.85 68.75 L21.3 68.9 19.95 69.2 19.85 68.9 19.7 68.4 21.2 67.65 21.85 68.75 M13.85 68.25 L14.6 67.05 15.5 67.65 15.0 68.75 13.85 68.25 M15.6 68.95 L15.6 68.9 15.95 68.4 16.2 68.0 16.25 68.0 17.3 68.35 17.05 69.25 15.95 69.05 15.6 68.95 M17.85 69.3 L17.85 69.2 18.0 68.6 18.8 68.7 19.2 69.3 18.4 69.3 17.85 69.3" fill="#f7ad1f" fill-rule="evenodd" stroke="none"/>
    <path d="M10.45 48.9 L10.65 48.75 10.75 48.7 11.8 47.95 Q12.75 47.35 13.75 47.0 L15.4 46.5 15.95 46.4 15.95 47.65 15.65 48.8 Q13.05 49.5 11.05 51.5 L10.45 52.15 10.45 48.9 M21.3 46.55 Q22.55 46.8 23.7 47.35 L24.5 47.8 25.3 48.25 25.8 48.6 26.2 48.95 26.7 49.35 26.7 52.55 25.75 51.5 Q23.8 49.55 21.3 48.85 L21.3 46.55 M26.7 68.3 L26.05 68.9 25.35 69.4 25.3 69.45 24.3 70.05 23.25 70.55 21.3 71.2 21.3 68.9 21.85 68.75 22.15 69.2 22.25 68.6 24.05 67.65 25.2 67.85 Q25.3 67.25 24.9 67.0 L25.75 66.2 26.7 65.15 26.7 68.3 M15.95 71.3 L13.8 70.7 13.75 70.7 12.9 70.35 12.55 70.15 12.0 69.85 11.35 69.4 10.7 68.95 10.65 68.9 10.45 68.75 10.45 65.55 11.05 66.2 13.0 67.8 12.85 68.0 12.75 68.55 13.6 68.6 13.85 68.25 15.0 68.75 14.65 69.4 14.9 69.6 15.6 68.95 15.95 69.05 15.95 71.3" fill="#ebebeb" fill-rule="evenodd" stroke="none"/>
    <path d="M15.95 46.4 L16.75 46.3 17.35 46.25 19.25 46.25 20.15 46.35 20.6 46.4 21.3 46.55 21.3 48.85 20.1 48.6 20.25 47.45 20.25 47.25 19.35 47.3 18.7 48.45 18.4 48.45 18.3 48.45 18.3 48.4 18.05 47.6 Q17.5 47.25 17.35 48.05 L17.25 48.5 16.8 48.6 16.5 46.75 15.95 47.65 15.95 46.4 M21.3 71.2 L20.8 71.3 20.2 71.4 20.15 71.4 19.25 71.5 17.6 71.5 16.9 71.45 16.8 71.45 15.95 71.3 15.95 69.05 17.05 69.25 17.1 69.8 17.2 70.25 17.45 70.1 17.85 69.3 18.4 69.3 19.2 69.3 19.6 69.9 Q20.05 69.7 19.95 69.2 L21.3 68.9 21.3 71.2" fill="#ffffff" fill-rule="evenodd" stroke="none"/>
    <path d="M26.7 49.35 L27.25 49.85 27.3 49.9 27.75 50.4 27.8 50.45 Q29.3 52.15 30.1 54.2 L30.25 54.55 30.4 54.95 30.45 55.15 30.65 56.0 30.95 58.7 30.95 58.85 30.95 59.0 30.75 61.3 30.45 62.6 30.4 62.85 Q29.6 65.2 27.85 67.15 L27.8 67.25 27.35 67.7 27.3 67.75 27.25 67.75 26.7 68.3 26.7 65.15 Q28.85 62.45 28.85 58.85 28.85 55.25 26.7 52.55 L26.7 49.35 M10.45 68.75 L9.35 67.75 9.1 67.5 9.05 67.45 8.6 66.95 8.45 66.75 8.0 66.2 7.95 66.15 7.5 65.45 6.45 63.3 Q5.7 61.25 5.7 58.85 5.75 55.65 6.95 53.25 L7.95 51.55 9.0 50.25 9.25 50.0 9.3 49.9 9.35 49.85 10.45 48.9 10.45 52.15 Q8.0 55.0 8.0 58.85 8.0 62.7 10.45 65.55 L10.45 68.75" fill="#dadada" fill-rule="evenodd" stroke="none"/>
    <path d="M15.65 48.8 L15.95 47.65 16.5 46.75 16.8 48.6 16.95 49.8 17.25 48.5 17.35 48.05 Q17.5 47.25 18.05 47.6 L18.3 48.4 18.3 48.45 18.35 49.1 18.7 48.45 19.35 47.3 20.25 47.25 20.25 47.45 20.1 48.6 19.55 49.85 19.1 49.2 18.4 49.4 Q16.4 50.65 15.95 52.65 L15.9 52.9 15.85 51.95 15.65 49.95 15.65 48.8" fill="#4f7700" fill-rule="evenodd" stroke="none"/>
    <path d="M15.9 52.9 L15.95 52.65 Q16.4 50.65 18.4 49.4 L19.1 49.2 19.55 49.85 19.8 51.1 20.6 53.25 21.3 53.95 21.55 54.05 24.25 55.3 Q25.45 55.95 26.4 56.95 L26.7 57.3 Q27.2 57.95 27.35 58.75 27.75 60.95 26.7 62.9 25.55 65.05 23.25 64.8 L22.75 66.15 24.65 66.85 24.9 67.0 Q25.3 67.25 25.2 67.85 L24.05 67.65 23.9 67.6 22.5 67.2 21.85 67.15 Q22.25 67.95 22.25 68.6 L22.15 69.2 21.85 68.75 21.2 67.65 19.7 68.4 19.85 68.9 19.95 69.2 Q20.05 69.7 19.6 69.9 L19.2 69.3 18.8 68.7 18.0 68.6 17.85 69.2 17.85 69.3 17.45 70.1 17.2 70.25 17.1 69.8 17.05 69.25 17.3 68.35 16.25 68.0 16.2 68.0 15.95 68.4 15.6 68.9 15.6 68.95 14.9 69.6 14.65 69.4 15.0 68.75 15.5 67.65 14.6 67.05 13.85 68.25 13.6 68.6 12.75 68.55 12.85 68.0 13.0 67.8 13.4 66.95 13.85 66.05 12.85 65.7 11.45 65.2 10.45 64.6 Q9.65 63.9 9.5 62.8 L9.45 62.0 Q9.75 60.6 10.45 59.4 L10.5 59.3 Q11.35 57.85 12.75 56.8 L14.4 55.5 Q15.6 54.4 15.9 52.9 M21.3 54.85 L20.95 54.65 Q20.15 54.25 19.65 53.55 18.6 52.05 18.75 50.1 17.25 50.85 16.9 52.35 L16.0 55.05 15.95 55.2 Q15.3 56.65 13.7 57.3 11.8 58.05 10.7 59.8 L10.45 60.25 Q9.9 61.4 10.05 62.55 10.1 63.2 10.45 63.65 L11.55 64.45 13.7 64.95 13.7 63.7 Q13.6 62.85 13.9 62.15 14.35 63.5 14.45 64.9 14.55 65.85 15.35 66.5 L15.95 66.95 17.0 67.4 18.65 67.6 Q20.3 67.4 21.3 66.4 L22.35 64.7 22.55 63.9 22.7 62.05 22.85 61.75 23.05 62.1 23.15 62.8 23.25 64.05 24.35 63.9 Q26.05 63.55 26.45 62.05 L26.7 60.95 26.7 59.35 Q26.55 58.4 26.0 57.6 24.85 56.4 23.25 55.7 L21.3 54.85 M21.45 58.45 L22.05 57.7 Q23.2 58.8 22.8 59.9 L22.75 60.0 21.9 60.05 21.65 60.05 20.0 60.1 21.45 58.45 M16.9 59.65 L17.3 60.1 16.8 60.1 14.55 60.0 Q14.25 59.3 14.55 58.65 L15.15 57.8 15.25 57.7 16.9 59.65" fill="#4d4844" fill-rule="evenodd" stroke="none"/>
    <path d="M22.8 59.9 Q23.2 58.8 22.05 57.7 L21.45 58.45 21.3 58.35 21.05 58.15 Q20.05 57.55 20.1 56.7 L20.7 56.55 21.3 56.7 21.35 56.7 Q22.95 57.15 23.95 58.6 L24.55 59.7 23.55 60.65 22.8 59.9 M16.9 59.65 L17.15 58.75 Q17.7 56.8 17.3 55.0 17.15 54.25 17.6 53.5 L17.8 53.55 18.4 55.05 19.55 58.6 Q20.15 60.65 20.05 62.75 20.0 64.6 18.3 64.6 16.85 64.3 16.25 62.8 L16.4 61.7 16.8 60.1 17.3 60.1 16.9 59.65 M14.55 58.65 Q14.2 58.95 14.1 59.4 13.85 60.55 12.85 60.6 L12.75 60.05 13.0 59.1 Q13.45 57.9 14.75 57.45 L15.05 57.55 15.15 57.8 14.55 58.65" fill="#f3ece5" fill-rule="evenodd" stroke="none"/>
    <path d="M22.8 59.9 L23.55 60.65 24.55 59.7 23.95 58.6 Q22.95 57.15 21.35 56.7 L21.3 56.7 20.7 56.55 20.1 56.7 Q20.05 57.55 21.05 58.15 L21.3 58.35 21.45 58.45 20.0 60.1 21.65 60.05 Q21.35 60.55 21.55 61.25 22.05 62.85 21.3 64.3 L21.0 64.8 20.15 65.55 18.6 66.05 15.95 65.5 15.35 65.1 Q14.65 64.55 14.55 63.55 14.35 61.95 14.65 60.3 13.85 60.4 13.7 61.8 L13.65 62.45 12.45 62.4 Q11.7 61.65 11.65 60.9 L12.55 59.2 Q13.45 57.95 14.85 57.1 L15.95 56.2 16.5 55.15 16.95 53.25 Q17.15 52.1 18.15 51.3 18.4 54.35 21.3 55.9 L21.35 55.9 24.95 58.1 Q26.05 59.05 25.85 60.5 L25.55 61.85 25.4 62.35 Q23.3 62.75 22.4 60.6 L21.9 60.05 22.75 60.0 22.8 59.9 M16.8 60.1 L16.4 61.7 16.25 62.8 Q16.85 64.3 18.3 64.6 20.0 64.6 20.05 62.75 20.15 60.65 19.55 58.6 L18.4 55.05 17.8 53.55 17.6 53.5 Q17.15 54.25 17.3 55.0 17.7 56.8 17.15 58.75 L16.9 59.65 15.25 57.7 15.15 57.8 15.05 57.55 14.75 57.45 Q13.45 57.9 13.0 59.1 L12.75 60.05 12.85 60.6 Q13.85 60.55 14.1 59.4 14.2 58.95 14.55 58.65 14.25 59.3 14.55 60.0 L16.8 60.1" fill="#ded6cf" fill-rule="evenodd" stroke="none"/>
    <path d="M21.3 54.85 L23.25 55.7 Q24.85 56.4 26.0 57.6 26.55 58.4 26.7 59.35 L26.7 60.95 26.45 62.05 Q26.05 63.55 24.35 63.9 L23.25 64.05 23.15 62.8 23.05 62.1 22.85 61.75 22.7 62.05 22.55 63.9 22.35 64.7 21.3 66.4 Q20.3 67.4 18.65 67.6 L17.0 67.4 15.95 66.95 15.35 66.5 Q14.55 65.85 14.45 64.9 14.35 63.5 13.9 62.15 13.6 62.85 13.7 63.7 L13.7 64.95 11.55 64.45 10.45 63.65 Q10.1 63.2 10.05 62.55 9.9 61.4 10.45 60.25 L10.7 59.8 Q11.8 58.05 13.7 57.3 15.3 56.65 15.95 55.2 L16.0 55.05 16.9 52.35 Q17.25 50.85 18.75 50.1 18.6 52.05 19.65 53.55 20.15 54.25 20.95 54.65 L21.3 54.85 M21.65 60.05 L21.9 60.05 22.4 60.6 Q23.3 62.75 25.4 62.35 L25.55 61.85 25.85 60.5 Q26.05 59.05 24.95 58.1 L21.35 55.9 21.3 55.9 Q18.4 54.35 18.15 51.3 17.15 52.1 16.95 53.25 L16.5 55.15 15.95 56.2 14.85 57.1 Q13.45 57.95 12.55 59.2 L11.65 60.9 Q11.7 61.65 12.45 62.4 L13.65 62.45 13.7 61.8 Q13.85 60.4 14.65 60.3 14.35 61.95 14.55 63.55 14.65 64.55 15.35 65.1 L15.95 65.5 18.6 66.05 20.15 65.55 21.0 64.8 21.3 64.3 Q22.05 62.85 21.55 61.25 21.35 60.55 21.65 60.05" fill="#a99f98" fill-rule="evenodd" stroke="none"/>
  </g>
</svg>
