<?xml version="1.0" encoding="UTF-8" standalone="no"?>
<svg xmlns:ffdec="https://www.free-decompiler.com/flash" xmlns:xlink="http://www.w3.org/1999/xlink" ffdec:objectType="shape" height="29.9px" width="133.75px" xmlns="http://www.w3.org/2000/svg">
  <g transform="matrix(1.0, 0.0, 0.0, 1.0, 49.0, -43.0)">
    <path d="M-49.0 64.75 L-49.0 43.0 84.75 43.0 84.75 64.75 Q78.0 58.0 66.25 65.0 56.75 69.15 44.75 64.75 23.75 57.7 18.25 58.25 7.5 59.35 -4.9 64.85 -17.3 70.35 -32.0 63.0 -41.35 60.35 -49.0 64.75" fill="#53452e" fill-rule="evenodd" stroke="none"/>
    <path d="M84.75 66.25 L84.75 67.5 Q78.0 60.75 66.25 67.75 56.75 71.9 44.75 67.5 23.75 60.45 18.25 61.0 7.5 62.1 -4.9 67.6 -17.3 73.1 -32.0 65.75 -41.35 63.1 -49.0 67.5 L-49.0 66.25 Q-41.35 61.85 -32.0 64.5 -17.3 71.85 -4.9 66.35 7.5 60.85 18.25 59.75 23.75 59.2 44.75 66.25 56.75 70.65 66.25 66.5 78.0 59.5 84.75 66.25" fill="#1c1710" fill-rule="evenodd" stroke="none"/>
    <path d="M84.75 64.75 L84.75 66.25 Q78.0 59.5 66.25 66.5 56.75 70.65 44.75 66.25 23.75 59.2 18.25 59.75 7.5 60.85 -4.9 66.35 -17.3 71.85 -32.0 64.5 -41.35 61.85 -49.0 66.25 L-49.0 64.75 Q-41.35 60.35 -32.0 63.0 -17.3 70.35 -4.9 64.85 7.5 59.35 18.25 58.25 23.75 57.7 44.75 64.75 56.75 69.15 66.25 65.0 78.0 58.0 84.75 64.75" fill="#7b6744" fill-rule="evenodd" stroke="none"/>
    <path d="M28.25 48.9 Q32.4 53.05 32.4 58.85 32.4 64.65 28.25 68.75 24.15 72.9 18.35 72.9 12.55 72.9 8.4 68.75 4.3 64.65 4.3 58.85 4.3 53.05 8.4 48.9 12.55 44.8 18.35 44.8 24.15 44.8 28.25 48.9" fill="#1c1710" fill-rule="evenodd" stroke="none"/>
    <path d="M10.45 48.9 L10.65 48.75 10.75 48.7 11.8 47.95 Q12.75 47.35 13.75 47.0 L15.4 46.5 15.95 46.4 15.95 51.7 12.35 51.7 12.35 51.85 10.45 51.85 10.45 48.9 M21.3 46.55 Q22.55 46.8 23.7 47.35 L24.5 47.8 25.3 48.25 25.8 48.6 26.2 48.95 26.7 49.35 26.7 51.55 25.95 51.55 26.0 52.45 26.15 55.1 Q26.25 56.15 24.95 57.15 23.4 57.9 23.2 58.3 L23.25 57.25 23.45 53.6 23.7 52.95 Q23.85 52.3 23.05 52.0 L22.9 51.95 21.3 51.95 21.3 46.55 M26.7 68.3 L26.05 68.9 25.35 69.4 25.3 69.45 24.3 70.05 23.25 70.55 21.3 71.2 21.3 61.5 Q21.85 62.15 22.45 62.1 23.3 62.1 23.95 61.45 L23.95 61.5 25.65 59.4 26.2 59.2 Q26.05 62.45 23.15 64.15 L22.35 64.65 24.3 66.95 24.8 66.6 26.7 64.95 26.7 68.3 M15.95 71.3 L13.8 70.7 13.75 70.7 12.9 70.35 12.55 70.15 12.0 69.85 11.35 69.4 10.7 68.95 10.65 68.9 10.45 68.75 10.45 65.95 11.3 63.9 11.35 65.4 11.35 66.25 14.1 66.15 14.1 65.35 14.0 63.35 14.6 65.75 14.8 66.7 15.95 66.2 15.95 71.3" fill="#ebebeb" fill-rule="evenodd" stroke="none"/>
    <path d="M15.95 46.4 L16.75 46.3 17.35 46.25 19.25 46.25 20.15 46.35 20.6 46.4 21.3 46.55 21.3 51.95 21.0 51.95 20.9 52.7 20.7 57.25 Q20.7 61.0 21.25 61.45 L21.3 61.5 21.3 71.2 20.8 71.3 20.2 71.4 20.15 71.4 19.25 71.5 17.6 71.5 16.9 71.45 16.8 71.45 15.95 71.3 15.95 66.2 17.5 65.5 17.35 64.9 17.25 64.5 18.1 66.1 18.45 66.9 20.8 65.3 20.55 64.65 19.25 62.45 19.95 62.45 19.95 56.65 19.75 56.65 19.9 56.2 19.9 56.0 19.95 55.55 20.25 52.5 20.3 51.7 15.95 51.7 15.95 46.4" fill="#ffffff" fill-rule="evenodd" stroke="none"/>
    <path d="M26.7 49.35 L27.25 49.85 27.3 49.9 27.75 50.4 27.8 50.45 Q29.3 52.15 30.1 54.2 L30.25 54.55 30.4 54.95 30.45 55.15 30.65 56.0 30.95 58.7 30.95 58.85 30.95 59.0 30.75 61.3 30.45 62.6 30.4 62.85 Q29.6 65.2 27.85 67.15 L27.8 67.25 27.35 67.7 27.3 67.75 27.25 67.75 26.7 68.3 26.7 64.95 Q28.3 63.05 28.65 60.45 L28.65 51.95 27.85 51.55 26.7 51.55 26.7 49.35 M10.45 68.75 L9.35 67.75 9.1 67.5 9.05 67.45 8.6 66.95 8.45 66.75 8.0 66.2 7.95 66.15 7.5 65.45 6.45 63.3 Q5.7 61.25 5.7 58.85 5.75 55.65 6.95 53.25 L7.95 51.55 9.0 50.25 9.25 50.0 9.3 49.9 9.35 49.85 10.45 48.9 10.45 51.85 8.25 51.85 8.25 62.75 8.8 62.75 7.75 64.8 7.6 65.0 8.15 66.0 9.8 66.95 10.2 66.35 10.45 65.95 10.45 68.75" fill="#dadada" fill-rule="evenodd" stroke="none"/>
    <path d="M10.45 51.85 L12.35 51.85 12.35 51.7 15.95 51.7 20.3 51.7 20.25 52.5 19.95 55.55 19.9 56.0 19.9 56.2 19.75 56.65 19.95 56.65 19.95 62.45 19.25 62.45 20.55 64.65 20.8 65.3 18.45 66.9 18.1 66.1 17.25 64.5 17.35 64.9 17.5 65.5 15.95 66.2 14.8 66.7 14.6 65.75 14.0 63.35 14.1 65.35 14.1 66.15 11.35 66.25 11.35 65.4 11.3 63.9 10.45 65.95 10.2 66.35 9.8 66.95 8.15 66.0 7.6 65.0 7.75 64.8 8.8 62.75 8.25 62.75 8.25 51.85 10.45 51.85 M26.7 51.55 L27.85 51.55 28.65 51.95 28.65 60.45 Q28.3 63.05 26.7 64.95 L24.8 66.6 24.3 66.95 22.35 64.65 23.15 64.15 Q26.05 62.45 26.2 59.2 L25.65 59.4 23.95 61.5 23.95 61.45 Q23.3 62.1 22.45 62.1 21.85 62.15 21.3 61.5 L21.25 61.45 Q20.7 61.0 20.7 57.25 L20.9 52.7 21.0 51.95 21.3 51.95 22.9 51.95 23.05 52.0 Q23.85 52.3 23.7 52.95 L23.45 53.6 23.25 57.25 23.2 58.3 Q23.4 57.9 24.95 57.15 26.25 56.15 26.15 55.1 L26.0 52.45 25.95 51.55 26.7 51.55 M27.75 52.35 L26.75 52.35 26.95 58.8 26.7 60.8 Q26.0 63.35 23.5 64.85 L24.4 65.9 Q25.85 64.95 26.7 63.65 28.0 61.65 28.0 58.9 L27.85 52.85 Q28.3 52.4 27.75 52.35 M22.75 52.75 L21.65 52.75 21.45 57.25 Q21.45 60.5 21.8 60.9 22.1 61.3 22.45 61.3 23.0 61.3 23.45 60.85 L25.05 58.9 24.3 57.95 23.1 59.65 22.7 59.85 Q22.5 59.85 22.5 57.25 22.5 54.65 22.75 53.15 23.15 52.9 22.75 52.75 M11.55 53.6 L11.55 56.4 10.0 56.4 10.0 53.6 11.55 53.6 M14.9 60.25 L14.9 58.4 18.2 58.4 18.2 60.25 14.9 60.25 M11.55 57.35 L11.55 60.15 10.0 60.15 10.0 57.35 11.55 57.35 M11.55 61.15 L11.55 61.6 12.6 61.6 12.6 52.65 9.0 52.65 9.0 62.0 10.0 62.0 10.0 61.15 11.55 61.15 M17.7 55.5 L16.55 55.5 16.65 56.7 18.3 56.7 Q19.15 56.7 19.25 55.4 L19.5 52.45 13.1 52.45 13.1 53.65 15.05 53.65 Q14.65 55.8 12.7 56.8 L13.35 57.9 13.85 57.55 13.85 61.85 14.9 61.85 14.9 61.25 18.2 61.25 18.2 61.65 19.2 61.65 19.2 57.45 14.0 57.45 Q15.4 56.65 15.95 54.6 L16.15 53.65 18.4 53.65 18.2 55.0 Q18.15 55.5 17.7 55.5 M13.0 62.5 L11.9 62.65 12.1 65.4 13.35 65.35 Q13.35 63.5 13.0 62.5 M18.75 65.75 L19.85 65.0 Q19.2 63.4 18.0 62.3 L17.15 63.05 Q18.05 64.2 18.75 65.75 M15.95 63.1 L15.55 62.4 14.55 62.75 15.35 65.55 16.6 65.05 15.95 63.1 M8.35 65.2 L9.55 65.9 10.45 64.05 10.8 62.9 9.7 62.45 Q9.2 63.95 8.35 65.2" fill="#af946a" fill-rule="evenodd" stroke="none"/>
    <path d="M27.75 52.35 Q28.3 52.4 27.85 52.85 L28.0 58.9 Q28.0 61.65 26.7 63.65 25.85 64.95 24.4 65.9 L23.5 64.85 Q26.0 63.35 26.7 60.8 L26.95 58.8 26.75 52.35 27.75 52.35 M22.75 52.75 Q23.15 52.9 22.75 53.15 22.5 54.65 22.5 57.25 22.5 59.85 22.7 59.85 L23.1 59.65 24.3 57.95 25.05 58.9 23.45 60.85 Q23.0 61.3 22.45 61.3 22.1 61.3 21.8 60.9 21.45 60.5 21.45 57.25 L21.65 52.75 22.75 52.75 M17.7 55.5 Q18.15 55.5 18.2 55.0 L18.4 53.65 16.15 53.65 15.95 54.6 Q15.4 56.65 14.0 57.45 L19.2 57.45 19.2 61.65 18.2 61.65 18.2 61.25 14.9 61.25 14.9 61.85 13.85 61.85 13.85 57.55 13.35 57.9 12.7 56.8 Q14.65 55.8 15.05 53.65 L13.1 53.65 13.1 52.45 19.5 52.45 19.25 55.4 Q19.15 56.7 18.3 56.7 L16.65 56.7 16.55 55.5 17.7 55.5 M11.55 61.15 L10.0 61.15 10.0 62.0 9.0 62.0 9.0 52.65 12.6 52.65 12.6 61.6 11.55 61.6 11.55 61.15 M11.55 57.35 L10.0 57.35 10.0 60.15 11.55 60.15 11.55 57.35 M14.9 60.25 L18.2 60.25 18.2 58.4 14.9 58.4 14.9 60.25 M11.55 53.6 L10.0 53.6 10.0 56.4 11.55 56.4 11.55 53.6 M8.35 65.2 Q9.2 63.95 9.7 62.45 L10.8 62.9 10.45 64.05 9.55 65.9 8.35 65.2 M15.95 63.1 L16.6 65.05 15.35 65.55 14.55 62.75 15.55 62.4 15.95 63.1 M18.75 65.75 Q18.05 64.2 17.15 63.05 L18.0 62.3 Q19.2 63.4 19.85 65.0 L18.75 65.75 M13.0 62.5 Q13.35 63.5 13.35 65.35 L12.1 65.4 11.9 62.65 13.0 62.5" fill="#19150e" fill-rule="evenodd" stroke="none"/>
  </g>
</svg>
