<?xml version="1.0" encoding="UTF-8" standalone="no"?>
<svg xmlns:ffdec="https://www.free-decompiler.com/flash" xmlns:xlink="http://www.w3.org/1999/xlink" ffdec:objectType="shape" height="134.7px" width="80.1px" xmlns="http://www.w3.org/2000/svg">
  <g transform="matrix(1.0, 0.0, 0.0, 1.0, 36.45, 135.85)">
    <path d="M25.45 -9.1 L32.1 -5.6 Q34.4 -5.8 38.05 -7.8 41.6 -9.75 41.6 -10.55 41.6 -13.5 39.0 -22.75 L29.2 -58.55 19.7 -95.4 18.85 -98.75 13.2 -118.7 Q10.35 -127.45 7.55 -130.9 L5.0 -133.25 Q5.5 -132.4 5.5 -131.3 L5.5 -131.05 Q5.5 -129.0 3.55 -126.0 L3.15 -125.35 1.45 -122.15 Q-1.05 -117.15 -4.2 -108.15 L-4.7 -106.75 -6.35 -101.95 -6.75 -100.85 -7.0 -100.5 -7.4 -100.4 -7.7 -100.5 -7.8 -100.6 -7.95 -101.0 Q-8.95 -111.15 -8.7 -118.4 -8.4 -127.35 -6.15 -131.8 -8.6 -129.45 -9.15 -127.85 -9.9 -125.85 -12.2 -113.45 -14.9 -99.05 -18.15 -83.25 L-26.6 -43.3 Q-29.65 -28.85 -34.25 -13.25 -34.25 -12.1 -33.65 -11.05 -33.05 -10.05 -32.1 -9.55 -29.2 -8.05 -27.7 -7.55 L-25.25 -7.35 Q-23.8 -7.75 -22.45 -9.9 L-20.05 -13.75 -19.9 -14.7 -19.35 -13.5 -18.35 -11.5 -17.05 -7.4 Q-16.8 -4.2 -12.15 -3.7 L-3.25 -3.0 2.8 -2.45 6.85 -2.45 13.1 -3.0 19.9 -3.7 22.45 -7.05 24.4 -9.65 Q24.95 -9.35 25.45 -9.1 M2.45 -133.85 L0.75 -134.45 -0.6 -134.5 -1.9 -134.15 Q-3.2 -133.6 -4.45 -132.3 -6.6 -128.95 -7.25 -121.85 -7.85 -115.15 -7.05 -105.05 L-7.0 -104.1 -5.5 -108.35 -3.8 -112.95 Q-0.55 -121.65 1.9 -125.7 L2.5 -126.7 Q4.25 -129.45 4.25 -131.3 L4.05 -132.25 Q3.6 -133.25 2.45 -133.85 M7.7 -132.5 Q10.8 -129.2 12.75 -124.0 14.7 -118.85 17.6 -107.85 L19.9 -98.75 21.8 -90.35 Q27.7 -71.1 32.35 -52.75 L34.7 -43.3 37.5 -32.05 38.1 -29.5 43.65 -9.5 42.55 -8.65 Q40.0 -6.95 36.8 -5.65 L34.15 -4.7 31.8 -4.05 24.6 -7.65 20.55 -2.0 17.75 -1.7 7.75 -1.15 Q-4.1 -1.25 -15.6 -3.0 L-17.2 -3.25 -17.45 -3.3 -20.0 -12.25 -23.65 -5.6 -23.6 -5.6 -24.05 -4.8 -26.25 -5.4 Q-33.35 -7.6 -35.3 -10.45 L-36.45 -11.7 -33.9 -21.55 -31.9 -29.35 Q-30.45 -34.75 -28.45 -43.3 L-28.4 -43.3 -26.3 -52.75 -21.2 -76.15 Q-14.8 -105.6 -13.4 -113.3 -11.3 -124.85 -9.8 -128.55 -7.35 -134.55 -2.8 -135.6 L-1.85 -135.8 -1.0 -135.85 -0.8 -135.85 -0.7 -135.85 Q2.1 -135.85 4.25 -134.9 6.25 -134.1 7.7 -132.5" fill="#29150c" fill-rule="evenodd" stroke="none"/>
    <path d="M-18.35 -11.5 L-19.35 -13.5 -19.9 -14.7 -8.35 -96.1 -7.9 -96.0 -7.15 -96.0 -18.15 -14.95 -18.15 -14.9 -18.55 -12.05 -18.35 -11.5 M-7.7 -100.5 L-7.4 -100.4 -7.0 -100.5 -6.75 -100.85 -6.35 -101.95 -6.95 -97.6 -7.65 -96.8 -8.2 -97.0 -7.7 -100.5" fill="#3d1f12" fill-rule="evenodd" stroke="none"/>
    <path d="M5.5 -131.05 L5.5 -131.3 Q5.5 -132.4 5.0 -133.25 L7.55 -130.9 Q10.35 -127.45 13.2 -118.7 L18.85 -98.75 19.7 -95.4 29.2 -58.55 39.0 -22.75 Q41.6 -13.5 41.6 -10.55 41.6 -9.75 38.05 -7.8 34.4 -5.8 32.1 -5.6 L25.45 -9.1 26.95 -11.0 Q28.45 -9.65 28.85 -9.65 34.45 -9.65 36.65 -10.9 37.8 -11.55 37.8 -12.4 37.8 -15.9 36.75 -20.5 L35.2 -26.95 Q34.55 -30.3 31.45 -35.9 28.5 -40.85 28.5 -41.05 28.5 -44.55 29.25 -45.35 29.95 -45.6 29.95 -46.2 29.95 -48.5 29.15 -51.4 L23.95 -70.15 19.15 -69.3 Q18.85 -69.15 18.85 -70.15 18.85 -73.2 20.2 -74.6 21.5 -75.45 21.5 -75.8 21.5 -81.35 15.2 -97.55 L15.2 -97.85 15.15 -98.75 Q13.25 -111.9 10.85 -120.1 9.6 -124.35 8.15 -127.15 L5.85 -123.1 5.65 -122.7 Q3.0 -117.9 1.3 -113.25 L0.8 -111.85 Q-0.25 -108.75 -2.7 -103.95 L-3.0 -103.25 -5.6 -98.25 -6.8 -96.05 -7.15 -96.0 -7.9 -96.0 -8.35 -96.1 Q-9.8 -97.0 -10.95 -103.8 L-11.6 -109.25 Q-13.5 -102.3 -13.5 -98.6 L-13.05 -97.5 -12.65 -96.45 -14.65 -91.5 Q-16.65 -86.85 -16.65 -83.95 -16.65 -82.85 -15.15 -80.9 L-13.7 -79.1 Q-13.7 -78.8 -15.2 -75.8 -17.55 -71.15 -20.65 -60.6 -19.0 -60.2 -18.6 -59.6 -24.95 -46.9 -24.95 -42.65 -24.95 -42.0 -23.85 -40.95 L-19.85 -37.0 Q-24.9 -36.0 -27.35 -24.75 -28.65 -19.0 -29.35 -12.1 L-22.45 -9.9 Q-23.8 -7.75 -25.25 -7.35 L-27.7 -7.55 Q-29.2 -8.05 -32.1 -9.55 -33.05 -10.05 -33.65 -11.05 -34.25 -12.1 -34.25 -13.25 -29.65 -28.85 -26.6 -43.3 L-18.15 -83.25 Q-14.9 -99.05 -12.2 -113.45 -9.9 -125.85 -9.15 -127.85 -8.6 -129.45 -6.15 -131.8 -8.4 -127.35 -8.7 -118.4 L-10.9 -111.8 -11.0 -111.3 -10.15 -103.45 Q-9.55 -97.95 -8.2 -97.0 L-7.65 -96.8 -6.95 -97.6 -5.6 -99.95 -5.4 -100.25 -3.0 -104.8 -2.3 -106.2 -2.05 -106.75 -1.3 -108.7 0.2 -112.75 2.9 -119.5 3.4 -120.7 4.9 -123.65 Q6.2 -126.1 7.75 -128.0 6.65 -129.9 5.5 -131.05 M22.45 -7.05 L19.9 -3.7 13.1 -3.0 6.85 -2.45 2.8 -2.45 -3.25 -3.0 -12.15 -3.7 Q-16.8 -4.2 -17.05 -7.4 L-13.45 -8.25 -9.2 -6.55 -7.5 -7.8 Q-5.95 -8.95 -5.2 -8.95 -4.25 -8.95 -3.75 -8.45 L-2.85 -7.35 Q-1.15 -5.8 4.95 -5.8 7.6 -5.8 8.9 -6.7 11.05 -8.5 14.05 -10.35 15.9 -8.75 17.7 -7.65 19.4 -6.6 20.05 -6.6 L22.45 -7.05 M22.55 -13.95 L22.6 -14.85 23.95 -14.6 24.5 -13.35 24.8 -12.0 24.5 -10.8 23.85 -9.8 Q22.7 -10.35 22.65 -10.85 L22.55 -13.95 M21.35 -33.65 L20.6 -33.8 Q20.05 -35.9 19.9 -37.5 L20.15 -38.35 20.75 -38.5 21.45 -36.6 21.85 -33.8 21.4 -33.7 21.35 -33.65 M17.55 -65.7 L17.35 -64.65 Q17.1 -64.2 16.75 -64.2 16.4 -64.2 16.2 -64.65 15.95 -65.1 15.95 -65.7 L15.6 -68.75 15.35 -69.15 15.85 -69.25 Q16.35 -69.25 16.85 -68.65 17.65 -67.75 17.55 -65.7 M14.45 -75.2 L14.5 -76.5 15.1 -76.55 16.05 -74.3 16.45 -72.55 16.4 -71.9 16.3 -71.8 15.2 -73.65 14.45 -75.2 M15.05 -79.4 L14.95 -79.2 Q13.75 -79.6 13.45 -80.65 L13.25 -83.25 Q13.25 -83.85 13.4 -83.95 L13.75 -84.0 Q15.1 -82.35 15.3 -80.9 15.45 -79.9 15.05 -79.4 M10.75 -105.0 Q11.55 -104.3 11.55 -103.1 11.55 -101.65 11.05 -101.35 L10.35 -101.25 9.4 -105.65 10.75 -105.0 M11.7 -98.75 L12.35 -98.05 12.65 -96.35 12.35 -94.65 Q12.05 -93.95 11.65 -93.95 11.25 -93.95 10.95 -94.65 10.65 -95.35 10.65 -96.35 10.65 -97.35 10.95 -98.05 11.25 -98.75 11.65 -98.75 L11.7 -98.75 M13.4 -86.6 Q12.2 -87.8 12.2 -90.1 L12.2 -90.75 12.35 -91.0 12.6 -91.35 Q13.3 -90.8 13.75 -89.4 14.35 -87.65 13.4 -86.6 M16.95 -56.85 L16.95 -61.35 18.5 -61.35 18.5 -56.85 16.95 -56.85 M19.55 -53.15 L19.85 -51.45 19.55 -49.7 Q19.25 -49.0 18.8 -49.0 18.35 -49.0 18.05 -49.7 17.75 -50.45 17.75 -51.45 17.75 -52.45 18.05 -53.15 18.35 -53.9 18.8 -53.9 19.25 -53.9 19.55 -53.15 M20.65 -41.55 L19.1 -41.55 19.1 -46.2 20.65 -46.2 20.65 -41.55 M20.85 -30.45 L21.65 -30.7 Q22.95 -27.65 22.95 -26.45 22.95 -25.75 22.65 -25.55 L21.85 -25.45 Q21.35 -26.85 20.85 -30.45 M23.7 -22.75 L23.7 -17.8 21.95 -17.8 21.95 -22.75 23.7 -22.75" fill="#572c1a" fill-rule="evenodd" stroke="none"/>
    <path d="M25.45 -9.1 Q24.95 -9.35 24.4 -9.65 L22.45 -7.05 20.05 -6.6 Q19.4 -6.6 17.7 -7.65 15.9 -8.75 14.05 -10.35 11.05 -8.5 8.9 -6.7 7.6 -5.8 4.95 -5.8 -1.15 -5.8 -2.85 -7.35 L-3.75 -8.45 Q-4.25 -8.95 -5.2 -8.95 -5.95 -8.95 -7.5 -7.8 L-9.2 -6.55 -13.45 -8.25 -17.05 -7.4 -18.35 -11.5 -18.55 -12.05 -18.15 -14.9 -18.15 -14.95 -7.15 -96.0 -6.8 -96.05 -5.6 -98.25 -7.05 -82.5 Q-8.3 -69.85 -9.75 -62.45 L-4.75 -62.95 Q-6.8 -60.6 -9.75 -51.1 -13.0 -40.6 -13.0 -33.7 -13.0 -31.6 -10.2 -31.6 L-1.45 -32.95 Q-0.45 -32.95 -1.05 -32.7 -1.05 -30.1 -1.7 -28.9 L-3.1 -27.7 -4.5 -26.75 Q-10.25 -26.3 -12.45 -24.55 -15.25 -22.35 -15.25 -16.8 -15.25 -14.0 -14.65 -13.2 -13.85 -12.05 -10.85 -12.05 -8.95 -12.05 -7.6 -12.9 -5.65 -14.1 -4.1 -17.35 -0.8 -12.75 1.45 -11.35 2.7 -10.6 4.1 -10.45 4.5 -10.55 4.5 -10.75 L4.2 -10.85 9.4 -11.4 12.15 -16.45 Q15.55 -15.35 18.15 -14.15 19.3 -13.65 20.55 -13.65 L22.55 -13.95 22.65 -10.85 Q22.7 -10.35 23.85 -9.8 L24.5 -10.8 24.8 -12.0 24.5 -13.35 23.95 -14.6 Q24.7 -15.5 25.35 -18.45 26.0 -21.45 26.0 -24.0 26.0 -32.1 21.35 -33.65 L21.4 -33.7 21.85 -33.8 21.45 -36.6 20.75 -38.5 20.15 -38.35 19.9 -37.5 Q20.05 -35.9 20.6 -33.8 L17.7 -34.45 Q15.2 -35.1 14.5 -35.5 15.55 -36.55 19.9 -39.35 22.75 -41.15 22.75 -42.9 22.75 -50.95 20.8 -58.0 19.3 -63.45 17.55 -65.7 17.65 -67.75 16.85 -68.65 16.35 -69.25 15.85 -69.25 L15.35 -69.15 15.6 -68.75 15.95 -65.7 9.15 -65.8 Q7.75 -65.85 7.35 -66.7 L9.6 -69.55 14.45 -75.2 15.2 -73.65 16.3 -71.8 16.4 -71.9 16.45 -72.55 16.05 -74.3 15.1 -76.55 Q15.35 -77.4 15.05 -79.4 15.45 -79.9 15.3 -80.9 15.1 -82.35 13.75 -84.0 L13.4 -86.6 11.3 -84.65 Q10.05 -83.7 8.25 -83.7 L7.35 -83.95 7.15 -84.25 6.75 -85.65 8.15 -88.4 9.5 -91.05 Q3.25 -85.35 -0.75 -85.35 L-1.4 -85.45 -1.45 -85.7 Q-0.35 -87.5 2.35 -89.85 L10.4 -96.4 Q9.15 -96.15 5.25 -97.05 1.7 -97.9 0.5 -98.75 L0.1 -99.05 Q3.3 -100.55 6.5 -103.25 10.35 -106.6 9.9 -108.65 L9.0 -108.35 Q8.0 -110.85 8.0 -112.25 8.0 -112.75 8.5 -112.6 8.95 -112.45 8.95 -112.95 8.95 -117.95 5.95 -122.25 L5.65 -122.7 5.85 -123.1 8.15 -127.15 Q9.6 -124.35 10.85 -120.1 13.25 -111.9 15.15 -98.75 L15.2 -97.85 15.2 -97.55 Q21.5 -81.35 21.5 -75.8 21.5 -75.45 20.2 -74.6 18.85 -73.2 18.85 -70.15 18.85 -69.15 19.15 -69.3 L23.95 -70.15 29.15 -51.4 Q29.95 -48.5 29.95 -46.2 29.95 -45.6 29.25 -45.35 28.5 -44.55 28.5 -41.05 28.5 -40.85 31.45 -35.9 34.55 -30.3 35.2 -26.95 L36.75 -20.5 Q37.8 -15.9 37.8 -12.4 37.8 -11.55 36.65 -10.9 34.45 -9.65 28.85 -9.65 28.45 -9.65 26.95 -11.0 L25.45 -9.1 M-19.9 -14.7 L-20.05 -13.75 -22.45 -9.9 -29.35 -12.1 Q-28.65 -19.0 -27.35 -24.75 -24.9 -36.0 -19.85 -37.0 L-23.85 -40.95 Q-24.95 -42.0 -24.95 -42.65 -24.95 -46.9 -18.6 -59.6 -19.0 -60.2 -20.65 -60.6 -17.55 -71.15 -15.2 -75.8 -13.7 -78.8 -13.7 -79.1 L-15.15 -80.9 Q-16.65 -82.85 -16.65 -83.95 -16.65 -86.85 -14.65 -91.5 L-12.65 -96.45 -13.05 -97.5 -13.5 -98.6 Q-13.5 -102.3 -11.6 -109.25 L-10.95 -103.8 Q-9.8 -97.0 -8.35 -96.1 L-19.9 -14.7 M-8.7 -118.4 Q-8.95 -111.15 -7.95 -101.0 L-7.8 -100.6 -7.7 -100.5 -8.2 -97.0 Q-9.55 -97.95 -10.15 -103.45 L-11.0 -111.3 -10.9 -111.8 -8.7 -118.4 M-6.35 -101.95 L-4.7 -106.75 -5.15 -103.1 -5.4 -100.25 -5.6 -99.95 -6.95 -97.6 -6.35 -101.95 M3.15 -125.35 L3.55 -126.0 Q5.5 -129.0 5.5 -131.05 6.65 -129.9 7.75 -128.0 6.2 -126.1 4.9 -123.65 L3.15 -125.35 M10.75 -105.0 L9.4 -105.65 10.35 -101.25 11.05 -101.35 Q11.55 -101.65 11.55 -103.1 11.55 -104.3 10.75 -105.0 M11.7 -98.75 L11.65 -98.75 Q11.25 -98.75 10.95 -98.05 10.65 -97.35 10.65 -96.35 10.65 -95.35 10.95 -94.65 11.25 -93.95 11.65 -93.95 12.05 -93.95 12.35 -94.65 L12.65 -96.35 12.35 -98.05 11.7 -98.75 M13.4 -86.6 Q14.35 -87.65 13.75 -89.4 13.3 -90.8 12.6 -91.35 L12.35 -91.0 12.2 -90.75 12.2 -90.1 Q12.2 -87.8 13.4 -86.6 M-10.4 -94.6 Q-10.5 -95.35 -10.9 -95.45 -12.6 -94.55 -13.7 -92.3 -14.75 -90.05 -14.75 -87.35 L-14.45 -85.75 -14.05 -84.45 Q-13.1 -86.3 -11.75 -90.1 -10.45 -93.8 -10.4 -94.6 M-16.3 -70.3 Q-18.65 -67.35 -18.4 -66.05 L-18.2 -64.95 -17.6 -63.8 Q-17.1 -64.15 -15.7 -67.55 -14.25 -71.0 -13.45 -73.9 L-13.5 -74.0 -16.3 -70.3 M-19.85 -51.1 Q-21.85 -47.9 -21.85 -45.7 -21.85 -43.7 -21.3 -42.6 -20.55 -41.1 -18.55 -40.15 -18.05 -41.85 -17.3 -48.9 L-16.55 -56.4 Q-17.4 -54.65 -19.85 -51.1 M-19.75 -30.95 Q-27.0 -27.8 -27.95 -20.7 -28.35 -17.75 -27.0 -15.8 -25.6 -13.7 -22.75 -13.7 L-21.75 -13.85 Q-21.5 -13.95 -21.65 -14.0 -20.55 -22.55 -19.75 -30.3 L-19.75 -30.95" fill="#703821" fill-rule="evenodd" stroke="none"/>
    <path d="M-4.7 -106.75 L-4.2 -108.15 Q-1.05 -117.15 1.45 -122.15 L3.15 -125.35 4.9 -123.65 3.4 -120.7 2.9 -119.5 0.2 -112.75 -1.3 -108.7 -2.05 -106.75 -2.3 -106.2 -3.0 -104.8 -5.4 -100.25 -5.15 -103.1 -4.7 -106.75 M5.65 -122.7 L5.95 -122.25 Q8.95 -117.95 8.95 -112.95 8.95 -112.45 8.5 -112.6 8.0 -112.75 8.0 -112.25 8.0 -110.85 9.0 -108.35 L9.9 -108.65 Q10.35 -106.6 6.5 -103.25 3.3 -100.55 0.1 -99.05 L0.5 -98.75 Q1.7 -97.9 5.25 -97.05 9.15 -96.15 10.4 -96.4 L2.35 -89.85 Q-0.35 -87.5 -1.45 -85.7 L-1.4 -85.45 -0.75 -85.35 Q3.25 -85.35 9.5 -91.05 L8.15 -88.4 6.75 -85.65 7.15 -84.25 7.35 -83.95 8.25 -83.7 Q10.05 -83.7 11.3 -84.65 L13.4 -86.6 13.75 -84.0 13.4 -83.95 Q13.25 -83.85 13.25 -83.25 L13.45 -80.65 Q13.75 -79.6 14.95 -79.2 L15.05 -79.4 Q15.35 -77.4 15.1 -76.55 L14.5 -76.5 14.45 -75.2 9.6 -69.55 7.35 -66.7 Q7.75 -65.85 9.15 -65.8 L15.95 -65.7 Q15.95 -65.1 16.2 -64.65 16.4 -64.2 16.75 -64.2 17.1 -64.2 17.35 -64.65 L17.55 -65.7 Q19.3 -63.45 20.8 -58.0 22.75 -50.95 22.75 -42.9 22.75 -41.15 19.9 -39.35 15.55 -36.55 14.5 -35.5 15.2 -35.1 17.7 -34.45 L20.6 -33.8 21.35 -33.65 Q26.0 -32.1 26.0 -24.0 26.0 -21.45 25.35 -18.45 24.7 -15.5 23.95 -14.6 L22.6 -14.85 22.55 -13.95 20.55 -13.65 Q19.3 -13.65 18.15 -14.15 15.55 -15.35 12.15 -16.45 L9.4 -11.4 4.2 -10.85 4.5 -10.75 Q4.5 -10.55 4.1 -10.45 2.7 -10.6 1.45 -11.35 -0.8 -12.75 -4.1 -17.35 -5.65 -14.1 -7.6 -12.9 -8.95 -12.05 -10.85 -12.05 -13.85 -12.05 -14.65 -13.2 -15.25 -14.0 -15.25 -16.8 -15.25 -22.35 -12.45 -24.55 -10.25 -26.3 -4.5 -26.75 -7.3 -24.25 -9.4 -21.35 -12.0 -17.85 -12.0 -15.75 L-11.95 -15.05 -11.85 -14.9 Q-0.95 -22.6 2.3 -25.85 L0.65 -17.05 Q0.7 -15.75 3.3 -15.75 6.6 -15.75 8.95 -20.75 11.3 -25.7 11.3 -32.4 L11.1 -34.3 9.95 -34.5 Q8.45 -34.45 5.75 -33.35 1.85 -31.8 -1.7 -28.9 -1.05 -30.1 -1.05 -32.7 -0.45 -32.95 -1.45 -32.95 L-10.2 -31.6 Q-13.0 -31.6 -13.0 -33.7 -13.0 -40.6 -9.75 -51.1 -6.8 -60.6 -4.75 -62.95 L-9.75 -62.45 Q-8.3 -69.85 -7.05 -82.5 L-5.6 -98.25 -3.0 -103.25 -3.05 -103.15 -2.6 -103.05 -1.45 -102.95 -1.0 -102.95 Q1.0 -103.05 3.35 -104.1 6.15 -105.35 6.15 -106.75 6.15 -114.15 3.05 -116.15 2.5 -115.6 1.3 -113.25 3.0 -117.9 5.65 -122.7 M2.9 -93.4 Q2.9 -94.8 1.9 -95.8 0.9 -96.8 -0.55 -96.8 -2.0 -96.8 -3.0 -95.8 -4.0 -94.8 -4.0 -93.4 -4.0 -92.0 -3.0 -91.0 -2.0 -90.0 -0.55 -90.0 0.9 -90.0 1.9 -91.0 2.9 -92.0 2.9 -93.4 M3.75 -82.25 L4.5 -85.55 Q0.05 -83.05 -3.05 -78.35 -6.45 -73.2 -5.5 -69.1 -5.25 -68.7 -5.5 -68.3 L-3.5 -68.1 Q-1.8 -68.1 3.55 -71.05 10.3 -74.75 11.6 -78.95 L2.65 -78.7 3.75 -82.25 M16.95 -56.85 L18.5 -56.85 18.5 -61.35 16.95 -61.35 16.95 -56.85 M12.85 -61.85 Q11.8 -62.55 7.8 -62.55 5.05 -62.55 -1.1 -58.25 -7.5 -53.75 -7.5 -51.05 L-7.3 -48.4 -7.15 -44.3 -7.25 -44.25 -6.65 -44.25 Q-2.7 -44.25 14.4 -56.8 14.4 -60.8 12.85 -61.85 M19.55 -53.15 Q19.25 -53.9 18.8 -53.9 18.35 -53.9 18.05 -53.15 17.75 -52.45 17.75 -51.45 17.75 -50.45 18.05 -49.7 18.35 -49.0 18.8 -49.0 19.25 -49.0 19.55 -49.7 L19.85 -51.45 19.55 -53.15 M15.45 -51.2 Q14.85 -51.2 11.4 -49.75 L3.6 -46.5 -2.35 -43.5 Q-8.1 -40.25 -8.1 -38.45 -8.1 -36.0 -5.65 -35.45 1.95 -35.45 9.85 -40.45 16.9 -44.85 16.9 -47.4 16.9 -49.55 16.25 -50.55 L15.45 -51.2 M20.65 -41.55 L20.65 -46.2 19.1 -46.2 19.1 -41.55 20.65 -41.55 M20.85 -30.45 Q21.35 -26.85 21.85 -25.45 L22.65 -25.55 Q22.95 -25.75 22.95 -26.45 22.95 -27.65 21.65 -30.7 L20.85 -30.45 M14.05 -30.35 Q13.3 -28.7 13.3 -27.6 13.3 -21.1 15.05 -18.4 16.15 -16.65 17.8 -16.65 L18.4 -16.7 18.35 -16.8 Q17.75 -21.05 16.15 -25.6 L14.1 -30.2 14.05 -30.35 M23.7 -22.75 L21.95 -22.75 21.95 -17.8 23.7 -17.8 23.7 -22.75 M-19.75 -30.95 L-19.75 -30.3 Q-20.55 -22.55 -21.65 -14.0 -21.5 -13.95 -21.75 -13.85 L-22.75 -13.7 Q-25.6 -13.7 -27.0 -15.8 -28.35 -17.75 -27.95 -20.7 -27.0 -27.8 -19.75 -30.95 M-19.85 -51.1 Q-17.4 -54.65 -16.55 -56.4 L-17.3 -48.9 Q-18.05 -41.85 -18.55 -40.15 -20.55 -41.1 -21.3 -42.6 -21.85 -43.7 -21.85 -45.7 -21.85 -47.9 -19.85 -51.1 M-16.3 -70.3 L-13.5 -74.0 -13.45 -73.9 Q-14.25 -71.0 -15.7 -67.55 -17.1 -64.15 -17.6 -63.8 L-18.2 -64.95 -18.4 -66.05 Q-18.65 -67.35 -16.3 -70.3 M-10.4 -94.6 Q-10.45 -93.8 -11.75 -90.1 -13.1 -86.3 -14.05 -84.45 L-14.45 -85.75 -14.75 -87.35 Q-14.75 -90.05 -13.7 -92.3 -12.6 -94.55 -10.9 -95.45 -10.5 -95.35 -10.4 -94.6" fill="#844226" fill-rule="evenodd" stroke="none"/>
    <path d="M1.3 -113.25 Q2.5 -115.6 3.05 -116.15 6.15 -114.15 6.15 -106.75 6.15 -105.35 3.35 -104.1 1.0 -103.05 -1.0 -102.95 L-1.45 -102.95 -2.6 -103.05 -3.05 -103.15 -3.0 -103.25 -2.7 -103.95 Q-0.25 -108.75 0.8 -111.85 L1.3 -113.25 M-1.7 -28.9 Q1.85 -31.8 5.75 -33.35 8.45 -34.45 9.95 -34.5 L11.1 -34.3 11.3 -32.4 Q11.3 -25.7 8.95 -20.75 6.6 -15.75 3.3 -15.75 0.7 -15.75 0.65 -17.05 L2.3 -25.85 Q-0.95 -22.6 -11.85 -14.9 L-11.95 -15.05 -12.0 -15.75 Q-12.0 -17.85 -9.4 -21.35 -7.3 -24.25 -4.5 -26.75 L-3.1 -27.7 -1.7 -28.9 M3.75 -82.25 L2.65 -78.7 11.6 -78.95 Q10.3 -74.75 3.55 -71.05 -1.8 -68.1 -3.5 -68.1 L-5.5 -68.3 Q-5.25 -68.7 -5.5 -69.1 -6.45 -73.2 -3.05 -78.35 0.05 -83.05 4.5 -85.55 L3.75 -82.25 M2.9 -93.4 Q2.9 -92.0 1.9 -91.0 0.9 -90.0 -0.55 -90.0 -2.0 -90.0 -3.0 -91.0 -4.0 -92.0 -4.0 -93.4 -4.0 -94.8 -3.0 -95.8 -2.0 -96.8 -0.55 -96.8 0.9 -96.8 1.9 -95.8 2.9 -94.8 2.9 -93.4 M12.85 -61.85 Q14.4 -60.8 14.4 -56.8 -2.7 -44.25 -6.65 -44.25 L-7.25 -44.25 -7.15 -44.3 -7.3 -48.4 -7.5 -51.05 Q-7.5 -53.75 -1.1 -58.25 5.05 -62.55 7.8 -62.55 11.8 -62.55 12.85 -61.85 M15.45 -51.2 L16.25 -50.55 Q16.9 -49.55 16.9 -47.4 16.9 -44.85 9.85 -40.45 1.95 -35.45 -5.65 -35.45 -8.1 -36.0 -8.1 -38.45 -8.1 -40.25 -2.35 -43.5 L3.6 -46.5 11.4 -49.75 Q14.85 -51.2 15.45 -51.2 M14.05 -30.35 L14.1 -30.2 16.15 -25.6 Q17.75 -21.05 18.35 -16.8 L18.4 -16.7 17.8 -16.65 Q16.15 -16.65 15.05 -18.4 13.3 -21.1 13.3 -27.6 13.3 -28.7 14.05 -30.35" fill="#a0502e" fill-rule="evenodd" stroke="none"/>
    <path d="M1.65 -112.45 Q-1.5 -104.65 -4.35 -99.3 L-5.3 -92.25 Q0.95 -91.05 4.65 -91.05 9.15 -91.05 15.0 -92.9 L21.05 -94.8 21.4 -94.2 Q19.4 -92.15 13.9 -91.0 9.4 -90.05 4.75 -90.05 L0.3 -90.3 -2.55 -90.5 Q-5.4 -90.8 -5.4 -91.25 L-15.2 -10.25 -15.55 -9.75 -15.95 -10.0 -16.2 -10.35 -5.45 -99.5 Q6.9 -127.3 8.45 -128.3 L1.65 -112.45 M8.45 -82.9 L2.15 -82.35 -1.65 -82.15 Q3.3 -81.6 8.45 -81.95 L8.45 -82.9 M6.85 -81.15 L3.3 -81.1 0.85 -81.2 -1.65 -81.65 -1.65 -80.5 -5.45 -82.65 -1.65 -84.85 -1.65 -83.2 Q3.55 -82.85 8.4 -83.0 L8.45 -84.85 12.25 -82.65 8.45 -80.5 Q8.45 -81.1 6.85 -81.15 M-9.95 -124.6 L-9.05 -99.7 -21.15 -13.9 -21.5 -13.45 -21.9 -13.7 -22.15 -14.05 -11.15 -91.85 Q-12.95 -91.5 -14.9 -92.25 -17.1 -93.05 -17.75 -94.55 L-17.3 -95.1 Q-16.9 -94.0 -16.1 -93.35 -14.6 -92.2 -11.0 -92.75 L-9.9 -100.0 -9.95 -124.6 M-16.05 -84.25 L-15.75 -85.85 -13.1 -83.15 -16.5 -81.55 -16.3 -82.7 -19.25 -82.75 Q-18.95 -83.2 -17.7 -83.2 -16.45 -83.2 -16.15 -83.75 L-18.95 -83.95 -17.95 -84.3 -16.05 -84.25" fill="#d2b9a0" fill-rule="evenodd" stroke="none"/>
    <path d="M-6.0 -99.3 Q-6.0 -98.75 -6.4 -98.35 -6.8 -97.95 -7.35 -97.95 -7.9 -97.95 -8.3 -98.35 -8.7 -98.75 -8.7 -99.3 -8.7 -99.85 -8.3 -100.25 -7.9 -100.65 -7.35 -100.65 -6.8 -100.65 -6.4 -100.25 -6.0 -99.85 -6.0 -99.3 M-11.0 -82.8 Q-11.0 -83.35 -10.6 -83.75 -10.2 -84.15 -9.65 -84.15 -9.1 -84.15 -8.7 -83.75 -8.3 -83.35 -8.3 -82.8 -8.3 -82.25 -8.7 -81.85 -9.1 -81.45 -9.65 -81.45 -10.2 -81.45 -10.6 -81.85 -11.0 -82.25 -11.0 -82.8 M-10.85 -67.25 Q-10.45 -66.85 -10.45 -66.3 -10.45 -65.75 -10.85 -65.35 -11.25 -64.95 -11.8 -64.95 -12.35 -64.95 -12.75 -65.35 -13.15 -65.75 -13.15 -66.3 -13.15 -66.85 -12.75 -67.25 -12.35 -67.65 -11.8 -67.65 -11.25 -67.65 -10.85 -67.25 M-12.7 -49.8 Q-12.7 -49.25 -13.1 -48.85 -13.5 -48.45 -14.05 -48.45 -14.6 -48.45 -15.0 -48.85 -15.4 -49.25 -15.4 -49.8 -15.4 -50.35 -15.0 -50.75 -14.6 -51.15 -14.05 -51.15 -13.5 -51.15 -13.1 -50.75 -12.7 -50.35 -12.7 -49.8 M-15.4 -32.35 Q-15.8 -31.95 -16.35 -31.95 -16.9 -31.95 -17.3 -32.35 -17.7 -32.75 -17.7 -33.3 -17.7 -33.85 -17.3 -34.25 -16.9 -34.65 -16.35 -34.65 -15.8 -34.65 -15.4 -34.25 -15.0 -33.85 -15.0 -33.3 -15.0 -32.75 -15.4 -32.35 M-17.6 -15.7 Q-18.0 -15.3 -18.55 -15.3 -19.1 -15.3 -19.5 -15.7 -19.9 -16.1 -19.9 -16.65 -19.9 -17.2 -19.5 -17.6 -19.1 -18.0 -18.55 -18.0 -18.0 -18.0 -17.6 -17.6 -17.2 -17.2 -17.2 -16.65 -17.2 -16.1 -17.6 -15.7" fill="#d2b9a0" fill-rule="evenodd" stroke="none"/>
  </g>
</svg>
