<?xml version="1.0" encoding="UTF-8" standalone="no"?>
<svg xmlns:ffdec="https://www.free-decompiler.com/flash" xmlns:xlink="http://www.w3.org/1999/xlink" ffdec:objectType="shape" height="162.45px" width="98.5px" xmlns="http://www.w3.org/2000/svg">
  <g transform="matrix(1.0, 0.0, 0.0, 1.0, 57.7, 48.95)">
    <path d="M23.85 57.45 Q25.45 60.7 25.45 66.3 L25.2 71.35 24.65 77.7 Q23.0 88.4 23.0 89.4 23.0 92.5 24.3 96.3 L24.75 97.65 Q24.8 96.2 25.95 93.3 27.2 90.25 28.35 89.5 27.9 91.85 29.0 98.4 30.1 104.95 31.3 107.55 L32.75 110.5 33.65 111.65 32.5 108.55 Q32.2 107.6 32.2 106.9 32.2 102.9 35.7 93.1 39.2 83.3 39.2 73.85 39.2 68.05 37.5 62.6 36.6 59.65 33.8 53.35 28.35 41.15 28.35 30.45 30.55 3.05 30.55 0.5 30.55 -13.3 26.5 -23.7 24.1 -29.8 20.45 -34.3 15.55 -40.3 5.05 -43.9 -3.4 -46.8 -9.95 -46.8 -21.1 -46.8 -27.0 -41.0 L-27.5 -41.25 -23.8 -44.5 -18.4 -47.2 -20.9 -47.25 Q-26.0 -47.25 -29.65 -45.65 L-33.65 -43.55 -37.35 -41.15 -43.1 -37.6 Q-46.9 -35.4 -51.7 -29.9 -56.8 -23.95 -56.8 -22.35 L-56.05 -16.0 -53.05 -22.35 Q-50.9 -25.85 -47.75 -26.8 L-46.3 -27.3 -43.5 -27.7 Q-39.7 -28.1 -37.4 -27.6 -36.6 -27.45 -35.85 -27.85 L-35.2 -28.3 Q-36.0 -27.1 -35.55 -26.35 -36.35 -26.1 -43.35 -26.4 -48.85 -26.4 -51.95 -22.1 -53.5 -19.95 -54.0 -17.7 L-55.65 -13.15 Q-56.35 -13.8 -57.0 -16.3 -57.7 -18.85 -57.7 -21.0 -57.7 -27.9 -44.2 -38.65 -31.3 -48.95 -25.0 -48.95 L-9.95 -48.3 Q-1.05 -48.3 9.05 -44.25 21.85 -39.1 25.6 -30.45 29.8 -20.75 30.9 -15.15 32.05 -9.2 32.05 3.0 32.05 7.65 30.85 16.85 29.65 26.05 29.65 30.0 29.65 38.0 35.25 53.35 40.8 68.65 40.8 77.8 40.8 86.25 38.05 93.6 L36.15 98.5 Q34.65 102.45 33.7 105.5 L33.6 106.6 Q33.6 107.75 34.35 109.8 L35.3 112.6 35.3 113.2 Q35.25 113.5 34.6 113.5 32.6 113.5 30.45 109.8 27.05 103.9 27.6 91.9 L26.7 96.5 25.95 101.2 Q23.8 100.2 22.75 95.2 22.0 91.7 22.0 87.95 24.4 75.0 24.4 67.9 L24.1 63.65 Q21.35 74.2 20.05 88.0 L19.45 94.85 Q16.15 92.3 15.8 81.65 L16.05 65.0 Q15.4 57.9 14.4 54.35 16.15 62.45 12.4 75.55 L9.05 86.1 Q7.15 91.95 5.7 93.9 5.1 88.05 5.95 84.35 7.8 75.95 7.8 72.6 7.8 58.65 2.55 46.55 -0.25 40.15 -1.05 37.35 -2.7 31.75 -2.7 25.0 L-2.4 20.6 Q-1.85 16.85 0.1 7.4 0.8 4.1 0.8 0.65 0.8 -5.55 -1.1 -9.8 -2.6 -13.25 -7.85 -20.25 -7.15 -18.3 -6.6 -15.25 -6.1 -12.6 -6.1 -11.65 -6.1 -8.2 -6.9 -6.0 L-9.5 -0.55 Q-10.55 1.1 -11.4 3.05 -13.0 6.9 -13.0 10.8 L-12.7 12.75 -12.15 14.5 -12.4 15.25 Q-13.95 14.1 -14.85 10.85 -15.65 7.95 -15.65 4.8 L-14.7 -9.45 Q-14.7 -18.45 -19.8 -22.85 -24.5 -26.95 -31.55 -25.8 L-31.05 -27.15 Q-22.3 -27.8 -18.25 -23.6 -13.85 -19.05 -13.85 -8.0 L-14.6 2.9 Q-14.6 6.3 -14.0 10.35 L-13.25 5.6 Q-11.35 -0.8 -8.75 -4.95 -7.25 -7.3 -7.25 -12.05 -7.25 -15.6 -8.9 -20.25 -11.1 -26.35 -14.75 -28.15 -14.65 -28.75 -13.05 -27.75 L-11.1 -25.5 Q-8.85 -22.65 -3.9 -18.4 L-1.2 -13.35 Q-0.25 -11.5 1.0 -5.05 2.15 0.8 2.15 2.3 -1.45 22.4 -1.45 26.9 -1.45 34.35 0.2 39.9 1.2 43.3 3.85 48.4 6.5 53.6 7.5 56.85 9.15 62.3 9.15 69.55 9.15 74.65 8.55 78.65 L7.8 82.3 7.65 82.75 6.25 89.5 Q10.25 79.95 11.7 74.4 13.35 68.1 13.4 60.95 13.45 57.85 12.45 51.2 L11.5 45.0 10.95 42.15 10.35 39.25 Q10.35 37.6 10.85 35.65 L11.15 35.35 11.25 35.25 Q11.35 36.65 13.15 44.15 14.95 51.85 16.1 55.55 17.0 58.4 17.0 62.4 L16.85 73.9 17.25 79.55 18.25 89.15 Q18.5 83.2 20.7 71.45 22.85 59.7 22.95 57.5 L23.85 57.45" fill="#97877d" fill-rule="evenodd" stroke="none"/>
    <path d="M-15.85 -42.55 Q-2.5 -42.8 3.3 -37.65 L6.95 -34.05 Q8.95 -32.4 11.7 -32.4 15.4 -32.4 20.8 -16.2 25.95 -0.7 25.95 7.55 25.95 9.1 24.0 19.45 23.2 23.8 22.75 28.05 L22.35 32.4 Q22.35 36.85 25.5 52.85 L28.6 68.8 Q28.6 75.3 26.45 86.4 L24.3 96.3 Q23.0 92.5 23.0 89.4 23.0 88.4 24.65 77.7 L25.2 71.35 25.45 66.3 Q25.45 60.7 23.85 57.45 23.75 55.05 22.5 51.65 L19.9 44.75 Q16.2 34.05 16.2 19.6 L17.05 2.05 Q17.05 -13.45 10.45 -24.5 2.05 -38.6 -15.85 -42.55 M13.2 -33.0 L11.2 -36.0 Q16.95 -35.8 22.7 -23.8 29.3 -10.0 29.3 9.05 29.3 13.9 28.2 24.85 L27.05 35.6 Q27.05 43.65 31.15 54.65 35.25 65.7 35.25 71.0 35.25 77.65 34.3 83.25 33.7 86.65 31.95 93.35 31.55 91.85 30.9 86.8 30.25 81.7 30.25 80.05 L30.9 72.5 31.3 65.0 Q31.3 59.25 28.3 49.65 25.5 40.75 24.65 36.65 24.25 34.6 24.25 32.4 L27.45 7.3 Q22.45 -16.0 20.4 -22.05 19.2 -25.65 16.65 -28.95 L13.2 -33.0 M-27.0 -41.0 Q-27.75 -40.35 -30.4 -35.2 -32.8 -30.6 -37.4 -27.6 -39.7 -28.1 -43.5 -27.7 L-46.3 -27.3 -45.3 -27.65 Q-47.2 -27.85 -48.15 -28.5 -48.9 -29.05 -48.9 -29.55 L-45.7 -31.9 -46.5 -31.05 -47.5 -29.25 -46.7 -28.8 -34.65 -31.3 Q-33.85 -31.6 -33.5 -32.15 L-32.45 -33.7 Q-33.65 -34.85 -38.05 -34.25 -41.65 -33.8 -44.5 -32.7 -41.55 -34.75 -40.65 -35.8 L-38.9 -38.1 Q-37.3 -39.95 -35.5 -40.15 -31.75 -40.6 -30.8 -41.15 -27.65 -42.95 -23.8 -44.5 L-27.5 -41.25 -27.0 -41.0 M-31.05 -27.15 Q-30.95 -29.3 -29.8 -32.7 -30.15 -30.9 -29.5 -29.6 -28.95 -28.5 -28.25 -28.5 L-21.1 -28.75 Q-17.25 -28.3 -15.2 -24.2 L-12.25 -18.3 Q-10.55 -14.2 -10.55 -9.95 -10.55 -9.3 -11.65 -4.35 L-12.75 0.5 -13.25 5.6 -14.0 10.35 Q-14.6 6.3 -14.6 2.9 L-13.85 -8.0 Q-13.85 -19.05 -18.25 -23.6 -22.3 -27.8 -31.05 -27.15 M-29.65 -33.1 L-27.75 -36.45 Q-22.6 -36.75 -16.85 -34.15 -5.4 -28.95 -1.2 -13.35 L-3.9 -18.4 -3.4 -17.7 Q-5.7 -23.7 -11.85 -29.5 -17.75 -35.05 -21.2 -35.05 L-22.55 -34.95 -22.65 -33.4 Q-27.1 -33.8 -28.2 -34.45 -28.05 -34.3 -29.65 -33.1 M-27.45 -37.7 Q-26.95 -38.0 -25.55 -40.3 -23.65 -42.35 -20.4 -42.15 L-20.45 -41.35 -20.3 -40.55 -19.9 -40.25 -20.0 -40.65 Q-20.1 -41.0 -19.5 -41.0 -5.45 -41.0 2.9 -27.85 12.55 -12.6 12.55 17.9 L12.05 25.7 11.15 35.35 10.85 35.65 Q10.3 25.4 10.3 22.45 L10.1 3.85 9.95 3.95 Q8.4 10.15 8.4 18.9 8.4 37.7 9.95 42.6 12.4 50.3 13.4 60.95 13.35 68.1 11.7 74.4 10.25 79.95 6.25 89.5 L7.65 82.75 7.8 82.3 10.8 73.3 Q11.65 70.05 11.65 66.05 11.65 61.9 8.6 45.55 5.5 29.2 5.5 26.0 5.5 20.4 6.6 11.8 L7.7 2.35 Q7.7 -14.65 -2.7 -27.35 -12.15 -38.85 -22.15 -38.85 L-23.7 -38.55 -27.45 -37.7 M15.5 -21.9 Q13.65 -24.95 14.8 -20.65 L19.25 -6.25 19.75 -6.3 Q19.95 -6.4 19.95 -7.05 19.95 -12.5 15.5 -21.9 M21.25 0.0 L20.8 0.9 21.55 8.35 Q21.55 10.15 20.25 19.3 18.9 28.4 18.9 31.25 18.9 34.7 19.55 36.0 L20.75 37.1 21.0 36.5 21.1 35.65 20.85 33.15 20.55 30.2 21.55 22.45 22.55 14.55 Q22.55 10.45 22.0 5.3 L21.25 0.0 M-31.0 -39.8 L-33.55 -39.9 Q-37.3 -39.9 -38.4 -38.45 -39.0 -37.65 -38.85 -35.65 -36.3 -35.6 -34.55 -36.55 L-30.75 -39.15 -31.0 -39.8" fill="#ebe8e0" fill-rule="evenodd" stroke="none"/>
    <path d="M13.2 -33.0 L16.65 -28.95 Q19.2 -25.65 20.4 -22.05 22.45 -16.0 27.45 7.3 L24.25 32.4 Q24.25 34.6 24.65 36.65 25.5 40.75 28.3 49.65 31.3 59.25 31.3 65.0 L30.9 72.5 30.25 80.05 Q30.25 81.7 30.9 86.8 31.55 91.85 31.95 93.35 33.7 86.65 34.3 83.25 35.25 77.65 35.25 71.0 35.25 65.7 31.15 54.65 27.05 43.65 27.05 35.6 L28.2 24.85 Q29.3 13.9 29.3 9.05 29.3 -10.0 22.7 -23.8 16.95 -35.8 11.2 -36.0 L13.2 -33.0 M24.3 96.3 L26.45 86.4 Q28.6 75.3 28.6 68.8 L25.5 52.85 Q22.35 36.85 22.35 32.4 L22.75 28.05 Q23.2 23.8 24.0 19.45 25.95 9.1 25.95 7.55 25.95 -0.7 20.8 -16.2 15.4 -32.4 11.7 -32.4 8.95 -32.4 6.95 -34.05 L3.3 -37.65 Q-2.5 -42.8 -15.85 -42.55 L-20.35 -42.15 -20.4 -42.15 Q-23.65 -42.35 -25.55 -40.3 -26.95 -38.0 -27.45 -37.7 L-28.15 -37.2 -27.75 -36.45 -29.65 -33.1 -29.8 -32.7 Q-30.95 -29.3 -31.05 -27.15 L-31.55 -25.8 -32.15 -26.3 Q-32.7 -27.05 -32.75 -29.0 L-35.55 -26.35 Q-36.0 -27.1 -35.2 -28.3 L-35.85 -27.85 Q-36.6 -27.45 -37.4 -27.6 -32.8 -30.6 -30.4 -35.2 -27.75 -40.35 -27.0 -41.0 -21.1 -46.8 -9.95 -46.8 -3.4 -46.8 5.05 -43.9 15.55 -40.3 20.45 -34.3 24.1 -29.8 26.5 -23.7 30.55 -13.3 30.55 0.5 30.55 3.05 28.35 30.45 28.35 41.15 33.8 53.35 36.6 59.65 37.5 62.6 39.2 68.05 39.2 73.85 39.2 83.3 35.7 93.1 32.2 102.9 32.2 106.9 32.2 107.6 32.5 108.55 L33.65 111.65 32.75 110.5 31.3 107.55 Q30.1 104.95 29.0 98.4 27.9 91.85 28.35 89.5 27.2 90.25 25.95 93.3 24.8 96.2 24.75 97.65 L24.3 96.3 M15.5 -21.9 Q19.95 -12.5 19.95 -7.05 19.95 -6.4 19.75 -6.3 L19.25 -6.25 14.8 -20.65 Q13.65 -24.95 15.5 -21.9 M21.25 0.0 L22.0 5.3 Q22.55 10.45 22.55 14.55 L21.55 22.45 20.55 30.2 20.85 33.15 21.1 35.65 21.0 36.5 20.75 37.1 19.55 36.0 Q18.9 34.7 18.9 31.25 18.9 28.4 20.25 19.3 21.55 10.15 21.55 8.35 L20.8 0.9 21.25 0.0 M13.4 60.95 Q12.4 50.3 9.95 42.6 8.4 37.7 8.4 18.9 8.4 10.15 9.95 3.95 L10.1 3.85 10.3 22.45 Q10.3 25.4 10.85 35.65 10.35 37.6 10.35 39.25 L10.95 42.15 11.5 45.0 12.45 51.2 Q13.45 57.85 13.4 60.95 M-44.5 -32.7 L-44.85 -32.6 -45.7 -31.9 -48.9 -29.55 Q-48.9 -29.05 -48.15 -28.5 -47.2 -27.85 -45.3 -27.65 L-46.3 -27.3 -47.75 -26.8 Q-50.9 -25.85 -53.05 -22.35 L-56.05 -16.0 -56.8 -22.35 Q-56.8 -23.95 -51.7 -29.9 -46.9 -35.4 -43.1 -37.6 L-37.35 -41.15 -33.65 -43.55 -29.65 -45.65 Q-26.0 -47.25 -20.9 -47.25 L-18.4 -47.2 -23.8 -44.5 Q-27.65 -42.95 -30.8 -41.15 -31.75 -40.6 -35.5 -40.15 -37.3 -39.95 -38.9 -38.1 L-40.65 -35.8 Q-41.55 -34.75 -44.5 -32.7 M-3.9 -18.4 Q-8.85 -22.65 -11.1 -25.5 L-13.05 -27.75 Q-14.55 -29.3 -18.35 -31.4 -21.7 -33.25 -22.65 -33.4 L-22.55 -34.95 -21.2 -35.05 Q-17.75 -35.05 -11.85 -29.5 -5.7 -23.7 -3.4 -17.7 L-3.9 -18.4" fill="#cbc8c0" fill-rule="evenodd" stroke="none"/>
    <path d="M-15.85 -42.55 Q2.05 -38.6 10.45 -24.5 17.05 -13.45 17.05 2.05 L16.2 19.6 Q16.2 34.05 19.9 44.75 L22.5 51.65 Q23.75 55.05 23.85 57.45 L22.95 57.5 Q22.85 59.7 20.7 71.45 18.5 83.2 18.25 89.15 L17.25 79.55 16.85 73.9 17.0 62.4 Q17.0 58.4 16.1 55.55 14.95 51.85 13.15 44.15 11.35 36.65 11.25 35.25 L11.15 35.35 12.05 25.7 12.55 17.9 Q12.55 -12.6 2.9 -27.85 -5.45 -41.0 -19.5 -41.0 -20.1 -41.0 -20.0 -40.65 L-19.9 -40.25 -20.3 -40.55 -20.45 -41.35 -20.4 -42.15 -20.35 -42.15 -15.85 -42.55 M-29.8 -32.7 L-29.65 -33.1 Q-28.05 -34.3 -28.2 -34.45 -27.1 -33.8 -22.65 -33.4 -21.7 -33.25 -18.35 -31.4 -14.55 -29.3 -13.05 -27.75 -14.65 -28.75 -14.75 -28.15 -11.1 -26.35 -8.9 -20.25 -7.25 -15.6 -7.25 -12.05 -7.25 -7.3 -8.75 -4.95 -11.35 -0.8 -13.25 5.6 L-12.75 0.5 -11.65 -4.35 Q-10.55 -9.3 -10.55 -9.95 -10.55 -14.2 -12.25 -18.3 L-15.2 -24.2 Q-17.25 -28.3 -21.1 -28.75 L-28.25 -28.5 Q-28.95 -28.5 -29.5 -29.6 -30.15 -30.9 -29.8 -32.7 M-27.75 -36.45 L-28.15 -37.2 -27.45 -37.7 -23.7 -38.55 -22.15 -38.85 Q-12.15 -38.85 -2.7 -27.35 7.7 -14.65 7.7 2.35 L6.6 11.8 Q5.5 20.4 5.5 26.0 5.5 29.2 8.6 45.55 11.65 61.9 11.65 66.05 11.65 70.05 10.8 73.3 L7.8 82.3 8.55 78.65 Q9.15 74.65 9.15 69.55 9.15 62.3 7.5 56.85 6.5 53.6 3.85 48.4 1.2 43.3 0.2 39.9 -1.45 34.35 -1.45 26.9 -1.45 22.4 2.15 2.3 2.15 0.8 1.0 -5.05 -0.25 -11.5 -1.2 -13.35 -5.4 -28.95 -16.85 -34.15 -22.6 -36.75 -27.75 -36.45 M-45.7 -31.9 L-44.85 -32.6 -44.5 -32.7 Q-41.65 -33.8 -38.05 -34.25 -33.65 -34.85 -32.45 -33.7 L-33.5 -32.15 Q-33.85 -31.6 -34.65 -31.3 L-46.7 -28.8 -47.5 -29.25 -46.5 -31.05 -45.7 -31.9 M-31.0 -39.8 L-30.75 -39.15 -34.55 -36.55 Q-36.3 -35.6 -38.85 -35.65 -39.0 -37.65 -38.4 -38.45 -37.3 -39.9 -33.55 -39.9 L-31.0 -39.8" fill="#ffffff" fill-rule="evenodd" stroke="none"/>
  </g>
</svg>
