<?xml version="1.0" encoding="UTF-8" standalone="no"?>
<svg xmlns:ffdec="https://www.free-decompiler.com/flash" xmlns:xlink="http://www.w3.org/1999/xlink" ffdec:objectType="shape" height="80.35px" width="20.2px" xmlns="http://www.w3.org/2000/svg">
  <g transform="matrix(1.0, 0.0, 0.0, 1.0, 21.35, 122.9)">
    <path d="M-2.65 -114.2 L-4.35 -106.85 -4.8 -113.75 -15.35 -46.95 -18.1 -54.15 -15.95 -44.7 -20.3 -54.15 -7.0 -120.95 Q-4.6 -122.55 -2.2 -120.3 L-2.65 -114.2" fill="#8a0d0d" fill-rule="evenodd" stroke="none"/>
    <path d="M-2.65 -114.2 L-2.2 -120.3 Q-4.6 -122.55 -7.0 -120.95 L-20.3 -54.15 -15.95 -44.7 -15.65 -44.15 -7.0 -51.4 -2.65 -114.2 M-7.8 -122.1 Q-4.3 -124.1 -1.15 -121.15 L-6.05 -50.9 -16.0 -42.55 -21.35 -54.1 -7.8 -122.1" fill="#2b0404" fill-rule="evenodd" stroke="none"/>
    <path d="M-15.95 -44.7 L-18.1 -54.15 -15.35 -46.95 -4.8 -113.75 -4.35 -106.85 -2.65 -114.2 -7.0 -51.4 -15.65 -44.15 -15.95 -44.7" fill="#b11b1b" fill-rule="evenodd" stroke="none"/>
  </g>
</svg>
