<?xml version="1.0" encoding="UTF-8" standalone="no"?>
<svg xmlns:ffdec="https://www.free-decompiler.com/flash" xmlns:xlink="http://www.w3.org/1999/xlink" ffdec:objectType="shape" height="19.0px" width="14.55px" xmlns="http://www.w3.org/2000/svg">
  <g transform="matrix(1.0, 0.0, 0.0, 1.0, -1.3, -2.05)">
    <path d="M12.1 3.55 Q7.55 3.0 4.8 8.45 2.85 12.3 2.85 15.05 2.85 16.15 3.35 17.55 4.05 19.5 5.25 19.5 6.75 19.5 7.4 14.45 8.2 7.95 10.4 4.7 L12.1 3.55 M12.45 4.95 Q9.95 5.8 9.6 10.3 9.05 16.5 8.5 18.3 7.6 21.05 5.2 21.05 3.45 21.05 2.3 19.15 1.3 17.45 1.3 15.15 1.3 10.5 4.7 6.3 8.15 2.05 11.95 2.05 13.9 2.05 15.85 3.75 15.45 4.35 14.4 4.55 L12.45 4.95" fill="#44280f" fill-rule="evenodd" stroke="none"/>
    <path d="M12.1 3.55 L10.4 4.7 Q8.2 7.95 7.4 14.45 6.75 19.5 5.25 19.5 4.05 19.5 3.35 17.55 2.85 16.15 2.85 15.05 2.85 12.3 4.8 8.45 7.55 3.0 12.1 3.55" fill="#683e17" fill-rule="evenodd" stroke="none"/>
  </g>
</svg>
