<?xml version="1.0" encoding="UTF-8" standalone="no"?>
<svg xmlns:ffdec="https://www.free-decompiler.com/flash" xmlns:xlink="http://www.w3.org/1999/xlink" ffdec:objectType="shape" height="10.9px" width="12.55px" xmlns="http://www.w3.org/2000/svg">
  <g transform="matrix(1.0, 0.0, 0.0, 1.0, 0.0, 0.0)">
    <path d="M12.55 7.5 L10.05 6.1 6.95 10.9 6.15 8.55 Q5.4 6.95 5.05 6.95 4.05 6.95 0.0 8.75 L0.75 5.45 Q1.2 2.65 1.05 1.95 L3.2 2.4 5.3 2.85 Q6.6 2.85 8.25 1.85 10.75 0.35 11.65 0.0 L12.55 7.5 M9.95 2.85 L7.7 3.45 2.35 3.3 3.15 5.75 5.9 4.1 7.2 6.85 9.4 3.45 10.1 3.8 9.95 2.85" fill="#98651f" fill-rule="evenodd" stroke="none"/>
    <path d="M9.95 2.85 L10.1 3.8 9.4 3.45 7.2 6.85 5.9 4.1 3.15 5.75 2.35 3.3 7.7 3.45 9.95 2.85" fill="#c28127" fill-rule="evenodd" stroke="none"/>
  </g>
</svg>
