<?xml version="1.0" encoding="UTF-8" standalone="no"?>
<svg xmlns:ffdec="https://www.free-decompiler.com/flash" xmlns:xlink="http://www.w3.org/1999/xlink" ffdec:objectType="shape" height="10.25px" width="31.75px" xmlns="http://www.w3.org/2000/svg">
  <g transform="matrix(1.0, 0.0, 0.0, 1.0, 8.65, -48.35)">
    <path d="M23.0 48.85 L23.1 50.5 Q23.1 53.65 21.0 55.85 19.0 58.1 16.05 58.1 13.2 58.1 11.1 55.85 9.1 53.65 9.1 50.5 9.1 49.65 9.25 48.85 L23.0 48.85 M2.5 48.35 L3.7 49.35 3.8 51.0 Q3.8 54.15 1.95 56.35 0.15 58.6 -2.45 58.6 -5.0 58.6 -6.85 56.35 -8.65 54.15 -8.65 51.0 L-8.5 49.35 2.5 48.35" fill="#db9c64" fill-rule="evenodd" stroke="none"/>
  </g>
</svg>
