<?xml version="1.0" encoding="UTF-8" standalone="no"?>
<svg xmlns:ffdec="https://www.free-decompiler.com/flash" xmlns:xlink="http://www.w3.org/1999/xlink" ffdec:objectType="shape" height="96.9px" width="144.0px" xmlns="http://www.w3.org/2000/svg">
  <g transform="matrix(1.0, 0.0, 0.0, 1.0, 83.8, 95.9)">
    <path d="M0.35 -30.35 L-0.1 -30.85 -0.55 -31.4 Q-1.25 -35.45 0.7 -39.25 L1.35 -39.45 3.55 -36.95 Q5.2 -35.0 7.3 -33.45 L6.75 -32.05 5.6 -32.95 Q3.0 -35.2 1.05 -37.85 L0.5 -36.4 Q0.1 -34.15 0.2 -31.85 L0.35 -30.35 M-50.3 -45.2 L-53.5 -45.4 -54.3 -45.35 -55.0 -45.05 -59.85 -42.4 -58.5 -41.4 -57.25 -40.45 -52.2 -36.7 -54.7 -36.35 -62.75 -42.35 Q-58.0 -46.95 -51.7 -47.4 L-50.3 -45.2 M-50.6 -25.4 L-52.1 -24.65 Q-55.95 -27.6 -60.7 -29.1 -57.35 -31.9 -53.4 -33.45 L-51.9 -32.15 -51.3 -31.55 -57.8 -29.35 -55.85 -28.5 -50.75 -25.5 -50.6 -25.4 M-34.15 -14.85 L-35.15 -14.5 -35.25 -14.6 -39.05 -17.5 -39.9 -18.1 -42.15 -19.9 -41.55 -21.5 -39.85 -22.6 Q-34.8 -25.85 -29.15 -25.05 L-28.85 -24.8 -28.6 -24.55 -30.95 -24.1 Q-36.3 -23.55 -40.45 -20.2 L-39.8 -19.7 Q-36.45 -17.95 -34.15 -14.85 M-46.55 -11.2 L-46.65 -11.0 -47.15 -10.25 Q-52.15 -13.15 -57.75 -14.7 -56.05 -19.3 -50.3 -20.1 L-49.5 -20.25 -48.25 -18.7 -50.5 -18.3 -51.95 -18.05 Q-54.85 -17.4 -56.65 -15.2 L-54.8 -14.7 Q-50.3 -13.55 -46.55 -11.2 M-44.7 -6.8 L-46.9 -4.0 -46.95 -3.95 -47.85 -2.2 Q-42.8 -2.1 -38.4 -0.3 L-38.95 1.0 Q-43.45 -0.75 -48.5 -0.85 -49.9 -3.85 -47.0 -6.45 L-46.45 -6.9 -44.7 -6.8 M-11.25 -33.65 L-13.85 -34.0 Q-18.15 -34.3 -22.0 -32.15 L-20.45 -30.95 -18.55 -29.45 Q-16.95 -28.2 -15.85 -26.6 L-16.0 -26.6 -16.9 -26.35 Q-20.35 -29.4 -24.25 -32.1 L-22.0 -33.3 Q-15.6 -36.6 -9.6 -33.95 L-9.7 -33.3 -9.65 -32.85 -11.25 -33.65 M-29.0 -41.25 L-29.5 -41.15 -30.6 -40.8 Q-33.5 -43.05 -37.1 -44.4 L-38.0 -45.45 -36.25 -47.3 -35.8 -47.5 -31.8 -47.5 Q-34.0 -46.8 -36.05 -45.65 L-34.15 -45.0 Q-32.3 -43.85 -30.55 -42.55 L-29.0 -41.25 M-19.25 -9.5 Q-19.75 -9.4 -20.25 -8.85 L-24.55 -11.65 -23.35 -12.8 Q-19.1 -16.45 -14.05 -14.75 L-13.7 -13.7 -16.7 -14.05 -18.15 -13.95 Q-20.95 -13.6 -23.3 -12.1 L-21.85 -11.5 -20.0 -10.3 -19.25 -9.5 M-14.7 -24.65 L-14.45 -24.05 -15.0 -24.6 -14.7 -24.65" fill="#794813" fill-rule="evenodd" stroke="none"/>
    <path d="M6.6 -31.75 Q5.75 -30.0 4.55 -29.45 2.25 -30.7 1.25 -33.8 2.8 -32.25 4.65 -31.45 L5.9 -31.05 6.6 -31.75 M-53.5 -45.4 L-49.9 -44.6 -49.45 -43.85 -49.3 -43.6 Q-50.5 -44.35 -52.1 -44.55 L-55.0 -45.05 -54.3 -45.35 -53.5 -45.4 M-47.25 -40.1 L-46.45 -38.3 Q-46.45 -37.5 -49.35 -37.0 L-57.25 -40.45 -58.5 -41.4 -48.55 -39.9 -47.25 -40.1 M-50.55 -30.7 Q-49.3 -29.05 -49.3 -27.55 L-49.5 -26.65 Q-51.75 -28.2 -54.35 -29.3 -52.4 -30.25 -50.55 -30.7 M-30.95 -24.1 L-28.6 -24.55 Q-27.85 -23.65 -27.85 -22.15 -27.85 -21.3 -28.55 -19.8 L-29.5 -17.95 Q-32.5 -16.4 -37.65 -19.25 -32.6 -19.1 -30.55 -22.8 L-30.35 -23.55 -30.95 -24.1 M-56.65 -15.2 Q-54.85 -17.4 -51.95 -18.05 L-50.5 -18.3 -47.85 -18.1 Q-46.6 -16.35 -46.3 -14.55 L-53.15 -15.2 -56.65 -15.2 M-46.9 -4.0 Q-44.55 -4.1 -42.65 -5.2 L-41.45 -5.9 -41.45 -6.0 Q-40.6 -5.5 -40.1 -5.5 -39.5 -5.5 -38.85 -3.8 L-38.55 -3.0 -46.95 -3.95 -46.9 -4.0 M-11.25 -33.65 L-9.65 -32.85 -9.5 -31.7 Q-9.35 -30.75 -9.55 -30.3 L-10.25 -28.6 -10.4 -28.3 -20.45 -30.95 -22.0 -32.15 Q-18.4 -32.7 -14.8 -32.05 L-12.5 -31.45 -11.2 -32.55 -11.25 -33.65 M-25.25 -46.0 Q-25.3 -44.7 -26.55 -42.85 L-26.9 -42.4 Q-29.95 -42.75 -33.5 -44.95 L-25.25 -46.0 M-20.0 -10.3 L-21.85 -11.5 -17.05 -12.65 -16.7 -14.05 -13.7 -13.7 -13.65 -13.15 -13.9 -11.9 Q-14.15 -11.0 -14.5 -10.55 -15.15 -9.6 -15.9 -9.2 L-16.15 -9.05 Q-18.2 -9.35 -20.0 -10.3" fill="#e0ac3f" fill-rule="evenodd" stroke="none"/>
    <path d="M0.5 -36.4 L1.05 -37.85 Q3.0 -35.2 5.6 -32.95 L6.75 -32.05 6.6 -31.75 5.9 -31.05 4.65 -31.45 Q2.8 -32.25 1.25 -33.8 L0.5 -36.4 M-49.3 -43.6 L-47.25 -40.1 -48.55 -39.9 -58.5 -41.4 -59.85 -42.4 -55.0 -45.05 -52.1 -44.55 Q-50.5 -44.35 -49.3 -43.6 M-39.8 -19.7 L-40.45 -20.2 Q-36.3 -23.55 -30.95 -24.1 L-30.35 -23.55 -30.55 -22.8 Q-32.6 -19.1 -37.65 -19.25 L-39.8 -19.7 M-44.7 -6.8 L-43.2 -6.8 Q-42.6 -6.8 -41.65 -6.15 L-41.45 -6.0 -41.45 -5.9 -42.65 -5.2 Q-44.55 -4.1 -46.9 -4.0 L-44.7 -6.8 M-22.0 -32.15 Q-18.15 -34.3 -13.85 -34.0 L-11.25 -33.65 -11.2 -32.55 -12.5 -31.45 -14.8 -32.05 Q-18.4 -32.7 -22.0 -32.15 M-31.8 -47.5 L-25.5 -47.5 -25.25 -46.15 -25.25 -46.0 -33.5 -44.95 -34.15 -45.0 -36.05 -45.65 Q-34.0 -46.8 -31.8 -47.5 M-21.85 -11.5 L-23.3 -12.1 Q-20.95 -13.6 -18.15 -13.95 L-16.7 -14.05 -17.05 -12.65 -21.85 -11.5" fill="#eac679" fill-rule="evenodd" stroke="none"/>
    <path d="M0.35 -30.35 L0.2 -31.85 Q0.1 -34.15 0.5 -36.4 L1.25 -33.8 Q2.25 -30.7 4.55 -29.45 L3.4 -29.2 Q1.6 -29.2 0.35 -30.35 M-50.3 -45.2 L-49.9 -44.6 -53.5 -45.4 -50.3 -45.2 M-49.35 -37.0 L-51.85 -36.75 -52.2 -36.7 -57.25 -40.45 -49.35 -37.0 M-50.6 -25.4 L-50.75 -25.5 -55.85 -28.5 -57.8 -29.35 -51.3 -31.55 -50.55 -30.7 Q-52.4 -30.25 -54.35 -29.3 -51.75 -28.2 -49.5 -26.65 -49.8 -26.0 -50.6 -25.4 M-34.15 -14.85 Q-36.45 -17.95 -39.8 -19.7 L-37.65 -19.25 Q-32.5 -16.4 -29.5 -17.95 L-29.75 -17.5 Q-30.6 -15.7 -33.65 -15.0 L-34.15 -14.85 M-46.55 -11.2 Q-50.3 -13.55 -54.8 -14.7 L-56.65 -15.2 -53.15 -15.2 -46.3 -14.55 -46.2 -13.45 Q-46.2 -12.0 -46.55 -11.2 M-50.5 -18.3 L-48.25 -18.7 -48.15 -18.55 -47.85 -18.1 -50.5 -18.3 M-38.55 -3.0 Q-38.25 -2.0 -38.25 -1.3 -38.25 -0.8 -38.4 -0.3 -42.8 -2.1 -47.85 -2.2 L-46.95 -3.95 -38.55 -3.0 M-15.85 -26.6 Q-16.95 -28.2 -18.55 -29.45 L-20.45 -30.95 -10.4 -28.3 Q-10.9 -27.5 -11.7 -27.35 L-15.85 -26.6 M-26.9 -42.4 Q-27.65 -41.55 -29.0 -41.25 L-30.55 -42.55 Q-32.3 -43.85 -34.15 -45.0 L-33.5 -44.95 Q-29.95 -42.75 -26.9 -42.4 M-19.25 -9.5 L-20.0 -10.3 Q-18.2 -9.35 -16.15 -9.05 -17.35 -8.5 -18.35 -9.3 L-19.25 -9.5" fill="#cb9b38" fill-rule="evenodd" stroke="none"/>
    <path d="M-19.05 -60.7 Q-27.95 -66.15 -31.85 -69.1 -35.95 -72.3 -36.35 -74.2 -37.45 -78.35 -29.05 -84.0 -24.95 -86.85 -20.3 -88.95 -16.4 -89.85 -9.55 -87.2 -2.75 -84.55 -1.25 -84.95 -1.0 -85.0 0.15 -87.7 1.1 -90.45 2.15 -90.7 2.85 -91.2 4.5 -90.2 7.6 -88.15 12.25 -80.25 16.35 -73.35 17.85 -70.0 18.85 -67.3 19.9 -65.2 L18.75 -64.95 Q13.35 -65.45 3.05 -64.55 -10.45 -63.45 -19.05 -60.7" fill="#9d7a5e" fill-rule="evenodd" stroke="none"/>
    <path d="M-78.65 -37.6 L-68.9 -39.85 -63.65 -40.8 -57.65 -41.1 -51.7 -41.4 -49.9 -41.55 -47.55 -41.85 Q-38.1 -43.05 -29.0 -46.0 -25.9 -46.95 -21.7 -48.6 -16.85 -50.45 -10.6 -53.2 L-10.0 -53.45 -5.75 -55.2 Q2.7 -58.7 7.7 -60.25 12.7 -61.9 17.75 -63.05 L24.7 -64.3 29.4 -64.9 Q41.65 -66.05 49.5 -61.6 56.3 -57.8 56.0 -52.7 55.75 -49.45 53.3 -46.35 50.45 -42.9 44.95 -40.25 47.85 -43.8 48.0 -46.2 48.35 -50.65 42.1 -54.6 36.25 -58.4 27.15 -58.65 L24.7 -58.65 22.25 -58.55 20.8 -58.45 10.75 -56.7 4.0 -55.05 -9.85 -50.95 -15.35 -49.3 Q-34.05 -43.7 -46.95 -41.3 L-49.4 -40.9 -56.9 -39.9 -57.65 -39.8 -65.25 -39.45 Q-68.3 -39.35 -78.2 -37.55 L-78.65 -37.5 -78.65 -37.6 M-19.05 -60.7 L-25.55 -59.05 Q-29.5 -57.95 -39.7 -56.95 -49.9 -56.0 -51.1 -64.6 -52.25 -73.2 -45.15 -81.2 -38.0 -89.25 -20.9 -92.65 -3.8 -96.05 7.25 -90.15 9.8 -88.75 12.05 -86.75 L22.6 -65.8 21.8 -65.65 19.9 -65.2 Q18.85 -67.3 17.85 -70.0 16.35 -73.35 12.25 -80.25 7.6 -88.15 4.5 -90.2 2.85 -91.2 2.15 -90.7 1.1 -90.45 0.15 -87.7 -1.0 -85.0 -1.25 -84.95 -2.75 -84.55 -9.55 -87.2 -16.4 -89.85 -20.3 -88.95 -24.95 -86.85 -29.05 -84.0 -37.45 -78.35 -36.35 -74.2 -35.95 -72.3 -31.85 -69.1 -27.95 -66.15 -19.05 -60.7 M-16.4 -59.4 Q-7.45 -61.5 1.5 -62.5 L12.3 -63.3 10.75 -62.8 Q0.1 -59.5 -8.0 -56.1 L-16.4 -59.4" fill="#735944" fill-rule="evenodd" stroke="none"/>
    <path d="M49.3 -64.35 Q60.6 -60.1 60.2 -52.55 59.9 -47.75 52.15 -42.7 45.55 -38.3 38.5 -36.7 L37.45 -36.4 35.0 -36.4 33.35 -40.0 Q25.45 -51.55 -22.55 -34.3 -36.4 -27.6 -56.0 -26.95 L-57.15 -27.45 Q-62.15 -28.8 -68.6 -30.8 -75.1 -32.8 -78.3 -34.15 L-78.9 -34.4 Q-81.6 -35.6 -82.7 -36.65 -83.95 -37.8 -83.75 -39.65 L-83.7 -39.95 Q-83.6 -41.45 -82.1 -43.15 -79.85 -45.45 -76.15 -45.9 L-71.5 -46.5 -57.65 -49.2 -52.65 -50.1 -53.15 -56.05 -53.2 -59.0 Q-54.85 -87.8 -33.2 -92.8 -23.85 -95.0 -10.65 -95.7 3.0 -96.5 8.35 -94.05 10.0 -93.3 10.85 -92.3 12.8 -89.9 18.4 -78.15 L18.5 -77.8 19.2 -76.5 20.55 -73.6 23.95 -66.0 Q38.25 -68.3 49.3 -64.35 M44.95 -40.25 Q50.45 -42.9 53.3 -46.35 55.75 -49.45 56.0 -52.7 56.3 -57.8 49.5 -61.6 41.65 -66.05 29.4 -64.9 L24.7 -64.3 17.75 -63.05 Q12.7 -61.9 7.7 -60.25 2.7 -58.7 -5.75 -55.2 L-10.0 -53.45 -10.6 -53.2 Q-16.85 -50.45 -21.7 -48.6 -25.9 -46.95 -29.0 -46.0 -38.1 -43.05 -47.55 -41.85 L-49.9 -41.55 -51.7 -41.4 -57.65 -41.1 -63.65 -40.8 -68.9 -39.85 -78.65 -37.6 -78.85 -37.65 Q-78.4 -39.0 -74.8 -39.8 L-63.6 -42.15 Q-55.55 -42.75 -54.15 -47.55 L-57.65 -47.15 -70.3 -45.45 -75.55 -44.6 Q-79.05 -44.05 -80.95 -42.6 -82.4 -41.5 -82.35 -39.95 L-82.35 -39.9 -82.2 -38.55 -81.6 -37.5 Q-81.15 -36.95 -80.25 -37.25 L-80.15 -37.25 -80.55 -37.15 -78.9 -37.15 -78.35 -37.2 -68.7 -37.65 -59.4 -38.1 -57.65 -38.25 -47.9 -39.45 -42.8 -40.25 -39.25 -40.9 -37.85 -41.15 -30.65 -42.5 -46.35 -38.65 Q-57.05 -36.15 -59.4 -36.05 L-72.4 -34.9 -52.45 -30.1 Q-38.8 -31.4 -30.55 -35.8 -21.65 -40.5 -10.8 -44.05 -3.05 -46.65 5.7 -48.6 L19.9 -51.35 24.2 -51.05 28.15 -50.45 29.85 -50.0 Q32.5 -49.1 33.65 -47.1 34.05 -46.4 35.3 -45.25 36.5 -44.15 37.1 -42.2 37.65 -40.3 37.7 -40.6 40.1 -38.5 44.95 -40.25 M19.9 -65.2 L21.8 -65.65 22.6 -65.8 12.05 -86.75 Q9.8 -88.75 7.25 -90.15 -3.8 -96.05 -20.9 -92.65 -38.0 -89.25 -45.15 -81.2 -52.25 -73.2 -51.1 -64.6 -49.9 -56.0 -39.7 -56.95 -29.5 -57.95 -25.55 -59.05 L-19.05 -60.7 Q-10.45 -63.45 3.05 -64.55 13.35 -65.45 18.75 -64.95 L19.9 -65.2 M-8.0 -56.1 Q0.1 -59.5 10.75 -62.8 L12.3 -63.3 1.5 -62.5 Q-7.45 -61.5 -16.4 -59.4 -22.15 -57.8 -48.85 -53.7 -51.0 -53.55 -49.95 -49.9 -48.95 -46.25 -47.05 -44.9 L-17.2 -51.85 -11.0 -54.8 -8.0 -56.1 M-51.0 -43.0 L-50.75 -43.05 -51.0 -43.0" fill="#3e3024" fill-rule="evenodd" stroke="none"/>
    <path d="M44.95 -40.25 Q40.1 -38.5 37.7 -40.6 37.65 -40.3 37.1 -42.2 36.5 -44.15 35.3 -45.25 34.05 -46.4 33.65 -47.1 32.5 -49.1 29.85 -50.0 L28.15 -50.45 24.2 -51.05 19.9 -51.35 5.7 -48.6 Q-3.05 -46.65 -10.8 -44.05 -21.65 -40.5 -30.55 -35.8 -38.8 -31.4 -52.45 -30.1 L-72.4 -34.9 -59.4 -36.05 Q-57.05 -36.15 -46.35 -38.65 L-30.65 -42.5 -37.85 -41.15 -39.25 -40.9 -42.8 -40.25 -47.9 -39.45 -57.65 -38.25 -59.4 -38.1 -68.7 -37.65 -78.35 -37.2 -78.9 -37.15 -80.55 -37.15 -80.15 -37.25 -80.25 -37.25 Q-81.15 -36.95 -81.6 -37.5 L-82.2 -38.55 -82.35 -39.9 -82.35 -39.95 Q-82.4 -41.5 -80.95 -42.6 -79.05 -44.05 -75.55 -44.6 L-70.3 -45.45 -57.65 -47.15 -54.15 -47.55 Q-55.55 -42.75 -63.6 -42.15 L-74.8 -39.8 Q-78.4 -39.0 -78.85 -37.65 L-78.65 -37.6 -78.65 -37.5 -78.2 -37.55 Q-68.3 -39.35 -65.25 -39.45 L-57.65 -39.8 -56.9 -39.9 -49.4 -40.9 -46.95 -41.3 Q-34.05 -43.7 -15.35 -49.3 L-9.85 -50.95 4.0 -55.05 10.75 -56.7 20.8 -58.45 22.25 -58.55 24.7 -58.65 27.15 -58.65 Q36.25 -58.4 42.1 -54.6 48.35 -50.65 48.0 -46.2 47.85 -43.8 44.95 -40.25 M-8.0 -56.1 L-11.0 -54.8 -17.2 -51.85 -47.05 -44.9 Q-48.95 -46.25 -49.95 -49.9 -51.0 -53.55 -48.85 -53.7 -22.15 -57.8 -16.4 -59.4 L-8.0 -56.1" fill="#513e2f" fill-rule="evenodd" stroke="none"/>
  </g>
</svg>
