<?xml version="1.0" encoding="UTF-8" standalone="no"?>
<svg xmlns:ffdec="https://www.free-decompiler.com/flash" xmlns:xlink="http://www.w3.org/1999/xlink" ffdec:objectType="shape" height="17.85px" width="21.7px" xmlns="http://www.w3.org/2000/svg">
  <g transform="matrix(1.0, 0.0, 0.0, 1.0, -2.0, 4.65)">
    <path d="M13.0 -1.2 L12.65 -0.8 Q11.05 1.95 9.15 6.4 8.1 8.85 5.25 12.7 L4.55 12.9 2.45 13.2 Q4.95 10.3 7.1 7.2 L12.6 -0.8 13.0 -1.2" fill="#2cd1d1" fill-rule="evenodd" stroke="none"/>
    <path d="M7.75 12.65 L10.05 9.1 Q13.8 2.95 14.7 -0.8 L15.0 -2.45 16.1 -3.15 17.05 -3.7 18.0 -3.8 Q18.7 -3.8 19.5 -2.55 L20.25 -0.8 Q21.8 1.7 22.35 4.0 23.05 6.8 14.3 9.25 L12.15 12.65 11.5 12.7 9.7 12.65 9.8 12.4 9.65 12.65 7.9 12.65 7.75 12.65" fill="#125a5a" fill-rule="evenodd" stroke="none"/>
    <path d="M13.0 -1.2 L13.05 -1.25 15.0 -2.45 14.7 -0.8 Q13.8 2.95 10.05 9.1 L7.75 12.65 5.25 12.7 Q8.1 8.85 9.15 6.4 11.05 1.95 12.65 -0.8 L13.0 -1.2 M9.65 12.65 L9.8 12.4 9.7 12.65 9.65 12.65" fill="#1d8383" fill-rule="evenodd" stroke="none"/>
    <path d="M15.0 -2.45 L13.05 -1.25 13.0 -1.2 12.6 -0.8 7.1 7.2 Q4.95 10.3 2.45 13.2 L2.0 12.05 2.45 11.5 5.35 7.4 6.9 4.95 Q8.55 2.6 9.9 1.1 L11.45 -0.8 Q14.8 -3.85 16.45 -4.25 L18.55 -4.65 Q20.15 -3.75 21.05 -0.85 L21.1 -0.8 Q23.9 4.65 23.7 6.1 23.45 7.55 19.55 9.3 15.65 11.05 13.75 12.4 L13.55 12.55 12.15 12.65 14.3 9.25 Q23.05 6.8 22.35 4.0 21.8 1.7 20.25 -0.8 L19.5 -2.55 Q18.7 -3.8 18.0 -3.8 L17.05 -3.7 16.1 -3.15 15.0 -2.45" fill="#0b3131" fill-rule="evenodd" stroke="none"/>
  </g>
</svg>
