<?xml version="1.0" encoding="UTF-8" standalone="no"?>
<svg xmlns:ffdec="https://www.free-decompiler.com/flash" xmlns:xlink="http://www.w3.org/1999/xlink" ffdec:objectType="shape" height="10.0px" width="141.05px" xmlns="http://www.w3.org/2000/svg">
  <g transform="matrix(1.0, 0.0, 0.0, 1.0, 36.0, 4.5)">
    <path d="M93.0 -3.25 Q92.3 -2.5 92.3 -1.45 L92.35 -1.0 Q92.45 -0.25 93.05 0.4 93.85 1.15 94.85 1.15 L100.2 1.15 Q101.25 1.15 102.0 0.4 L102.75 -1.0 102.8 -1.45 Q102.8 -2.5 102.05 -3.25 L102.0 -3.3 Q101.25 -4.1 100.2 -4.1 L94.85 -4.1 Q93.85 -4.1 93.05 -3.3 L93.0 -3.25 M103.4 -2.45 L103.55 -1.5 103.3 -0.25 103.55 1.0 Q103.55 2.25 102.65 3.15 101.8 4.0 100.55 4.0 L94.45 4.0 Q93.3 4.0 92.4 3.15 91.55 2.25 91.55 1.0 91.55 0.3 91.8 -0.25 91.55 -0.8 91.55 -1.5 L91.7 -2.45 Q91.9 -3.1 92.4 -3.6 93.3 -4.5 94.45 -4.5 L100.55 -4.5 Q101.8 -4.5 102.65 -3.6 L103.4 -2.45" fill="#a71d1b" fill-rule="evenodd" stroke="none"/>
    <path d="M2.15 -2.45 L2.0 -1.5 Q2.0 -0.8 2.25 -0.25 2.0 0.3 2.0 1.0 2.0 2.25 2.85 3.15 3.75 4.0 4.9 4.0 L11.0 4.0 Q12.25 4.0 13.1 3.15 14.0 2.25 14.0 1.0 L13.75 -0.25 14.0 -1.5 13.85 -2.45 14.15 -2.2 14.2 -2.1 Q15.5 -0.85 15.5 1.0 15.5 2.85 14.15 4.2 12.85 5.5 11.0 5.5 L4.9 5.5 Q3.15 5.5 1.85 4.25 L1.75 4.2 Q0.5 2.85 0.5 1.0 0.5 -0.85 1.8 -2.15 L2.15 -2.45 M31.35 -2.45 L31.65 -2.2 31.7 -2.1 Q33.0 -0.85 33.0 1.0 33.0 2.85 31.65 4.2 30.35 5.5 28.5 5.5 L22.4 5.5 Q20.65 5.5 19.35 4.25 L19.25 4.2 Q18.0 2.85 18.0 1.0 18.0 -0.85 19.3 -2.15 L19.65 -2.45 19.5 -1.5 Q19.5 -0.8 19.75 -0.25 19.5 0.3 19.5 1.0 19.5 2.25 20.35 3.15 21.25 4.0 22.4 4.0 L28.5 4.0 Q29.75 4.0 30.6 3.15 31.5 2.25 31.5 1.0 L31.25 -0.25 31.5 -1.5 31.35 -2.45 M49.6 -2.45 L49.9 -2.2 49.95 -2.1 Q51.25 -0.85 51.25 1.0 51.25 2.85 49.9 4.2 48.6 5.5 46.75 5.5 L40.65 5.5 Q38.9 5.5 37.6 4.25 L37.5 4.2 Q36.25 2.85 36.25 1.0 36.25 -0.85 37.55 -2.15 L37.9 -2.45 37.75 -1.5 Q37.75 -0.8 38.0 -0.25 37.75 0.3 37.75 1.0 37.75 2.25 38.6 3.15 39.5 4.0 40.65 4.0 L46.75 4.0 Q48.0 4.0 48.85 3.15 49.75 2.25 49.75 1.0 L49.5 -0.25 49.75 -1.5 49.6 -2.45 M67.65 -2.45 L67.95 -2.2 68.0 -2.1 Q69.3 -0.85 69.3 1.0 69.3 2.85 67.95 4.2 66.65 5.5 64.8 5.5 L58.7 5.5 Q56.95 5.5 55.65 4.25 L55.55 4.2 Q54.3 2.85 54.3 1.0 54.3 -0.85 55.6 -2.15 L55.95 -2.45 55.8 -1.5 Q55.8 -0.8 56.05 -0.25 55.8 0.3 55.8 1.0 55.8 2.25 56.65 3.15 57.55 4.0 58.7 4.0 L64.8 4.0 Q66.05 4.0 66.9 3.15 67.8 2.25 67.8 1.0 L67.55 -0.25 67.8 -1.5 67.65 -2.45 M73.7 -2.45 L73.55 -1.5 Q73.55 -0.8 73.8 -0.25 73.55 0.3 73.55 1.0 73.55 2.25 74.4 3.15 75.3 4.0 76.45 4.0 L82.55 4.0 Q83.8 4.0 84.65 3.15 85.55 2.25 85.55 1.0 L85.3 -0.25 85.55 -1.5 85.4 -2.45 85.7 -2.2 85.75 -2.1 Q87.05 -0.85 87.05 1.0 87.05 2.85 85.7 4.2 84.4 5.5 82.55 5.5 L76.45 5.5 Q74.7 5.5 73.4 4.25 L73.3 4.2 Q72.05 2.85 72.05 1.0 72.05 -0.85 73.35 -2.15 L73.7 -2.45 M103.4 -2.45 L103.7 -2.2 103.75 -2.1 Q105.05 -0.85 105.05 1.0 105.05 2.85 103.7 4.2 102.4 5.5 100.55 5.5 L94.45 5.5 Q92.7 5.5 91.4 4.25 L91.3 4.2 Q90.05 2.85 90.05 1.0 90.05 -0.85 91.35 -2.15 L91.7 -2.45 91.55 -1.5 Q91.55 -0.8 91.8 -0.25 91.55 0.3 91.55 1.0 91.55 2.25 92.4 3.15 93.3 4.0 94.45 4.0 L100.55 4.0 Q101.8 4.0 102.65 3.15 103.55 2.25 103.55 1.0 L103.3 -0.25 103.55 -1.5 103.4 -2.45 M-22.65 -2.45 L-22.35 -2.2 -22.3 -2.1 Q-21.0 -0.85 -21.0 1.0 -21.0 2.85 -22.35 4.2 -23.65 5.5 -25.5 5.5 L-31.6 5.5 Q-33.35 5.5 -34.65 4.25 L-34.75 4.2 Q-36.0 2.85 -36.0 1.0 -36.0 -0.85 -34.7 -2.15 L-34.35 -2.45 -34.5 -1.5 -34.25 -0.25 -34.5 1.0 Q-34.5 2.25 -33.65 3.15 -32.75 4.0 -31.6 4.0 L-25.5 4.0 Q-24.25 4.0 -23.4 3.15 -22.5 2.25 -22.5 1.0 -22.5 0.3 -22.75 -0.25 -22.5 -0.8 -22.5 -1.5 -22.5 -2.05 -22.65 -2.45 M-16.35 -2.45 L-16.5 -1.5 -16.25 -0.25 -16.5 1.0 Q-16.5 2.25 -15.65 3.15 -14.75 4.0 -13.6 4.0 L-7.5 4.0 Q-6.25 4.0 -5.4 3.15 -4.5 2.25 -4.5 1.0 -4.5 0.3 -4.75 -0.25 -4.5 -0.8 -4.5 -1.5 -4.5 -2.05 -4.65 -2.45 L-4.35 -2.2 -4.3 -2.1 Q-3.0 -0.85 -3.0 1.0 -3.0 2.85 -4.35 4.2 -5.65 5.5 -7.5 5.5 L-13.6 5.5 Q-15.35 5.5 -16.65 4.25 L-16.75 4.2 Q-18.0 2.85 -18.0 1.0 -18.0 -0.85 -16.7 -2.15 L-16.35 -2.45" fill="#000000" fill-opacity="0.3019608" fill-rule="evenodd" stroke="none"/>
    <path d="M93.0 -3.25 L93.05 -3.3 Q93.85 -4.1 94.85 -4.1 L100.2 -4.1 Q101.25 -4.1 102.0 -3.3 L102.05 -3.25 Q102.8 -2.5 102.8 -1.45 L102.75 -1.0 102.0 0.4 Q101.25 1.15 100.2 1.15 L94.85 1.15 Q93.85 1.15 93.05 0.4 92.45 -0.25 92.35 -1.0 L92.3 -1.45 Q92.3 -2.5 93.0 -3.25" fill="#e74343" fill-rule="evenodd" stroke="none"/>
    <path d="M74.35 -1.0 L74.3 -1.5 Q74.3 -2.55 75.0 -3.25 L75.05 -3.3 Q75.85 -4.1 76.85 -4.1 L82.15 -4.1 Q83.25 -4.1 83.95 -3.3 L84.0 -3.25 Q84.75 -2.6 84.75 -1.5 L84.75 -1.05 Q84.6 -0.25 83.95 0.4 83.25 1.1 82.15 1.1 L76.85 1.1 Q75.85 1.1 75.05 0.4 74.45 -0.25 74.35 -1.0" fill="#fef54b" fill-rule="evenodd" stroke="none"/>
    <path d="M85.4 -2.45 L85.55 -1.5 85.3 -0.25 85.55 1.0 Q85.55 2.25 84.65 3.15 83.8 4.0 82.55 4.0 L76.45 4.0 Q75.3 4.0 74.4 3.15 73.55 2.25 73.55 1.0 73.55 0.3 73.8 -0.25 73.55 -0.8 73.55 -1.5 L73.7 -2.45 Q73.9 -3.1 74.4 -3.6 75.3 -4.5 76.45 -4.5 L82.55 -4.5 Q83.8 -4.5 84.65 -3.6 L85.4 -2.45 M74.35 -1.0 Q74.45 -0.25 75.05 0.4 75.85 1.1 76.85 1.1 L82.15 1.1 Q83.25 1.1 83.95 0.4 84.6 -0.25 84.75 -1.05 L84.75 -1.5 Q84.75 -2.6 84.0 -3.25 L83.95 -3.3 Q83.25 -4.1 82.15 -4.1 L76.85 -4.1 Q75.85 -4.1 75.05 -3.3 L75.0 -3.25 Q74.3 -2.55 74.3 -1.5 L74.35 -1.0" fill="#dcd101" fill-rule="evenodd" stroke="none"/>
    <path d="M57.4 -3.3 Q58.2 -4.05 59.15 -4.05 L64.4 -4.05 Q65.45 -4.05 66.2 -3.3 L66.25 -3.25 Q66.95 -2.55 66.95 -1.5 L66.95 -1.05 Q66.8 -0.25 66.2 0.35 65.45 1.1 64.4 1.1 L59.15 1.1 Q58.2 1.1 57.4 0.35 56.8 -0.3 56.75 -1.15 L56.7 -1.5 Q56.7 -2.55 57.4 -3.3" fill="#17d3f4" fill-rule="evenodd" stroke="none"/>
    <path d="M57.4 -3.3 Q56.7 -2.55 56.7 -1.5 L56.75 -1.15 Q56.8 -0.3 57.4 0.35 58.2 1.1 59.15 1.1 L64.4 1.1 Q65.45 1.1 66.2 0.35 66.8 -0.25 66.95 -1.05 L66.95 -1.5 Q66.95 -2.55 66.25 -3.25 L66.2 -3.3 Q65.45 -4.05 64.4 -4.05 L59.15 -4.05 Q58.2 -4.05 57.4 -3.3 M55.95 -2.45 L56.65 -3.6 Q57.55 -4.5 58.7 -4.5 L64.8 -4.5 Q66.05 -4.5 66.9 -3.6 L67.65 -2.45 67.8 -1.5 67.55 -0.25 67.8 1.0 Q67.8 2.25 66.9 3.15 66.05 4.0 64.8 4.0 L58.7 4.0 Q57.55 4.0 56.65 3.15 55.8 2.25 55.8 1.0 55.8 0.3 56.05 -0.25 55.8 -0.8 55.8 -1.5 L55.95 -2.45" fill="#0cabc6" fill-rule="evenodd" stroke="none"/>
    <path d="M37.9 -2.45 L38.6 -3.6 Q39.5 -4.5 40.65 -4.5 L46.75 -4.5 Q48.0 -4.5 48.85 -3.6 L49.6 -2.45 49.75 -1.5 49.5 -0.25 49.75 1.0 Q49.75 2.25 48.85 3.15 48.0 4.0 46.75 4.0 L40.65 4.0 Q39.5 4.0 38.6 3.15 37.75 2.25 37.75 1.0 37.75 0.3 38.0 -0.25 37.75 -0.8 37.75 -1.5 L37.9 -2.45 M38.55 -1.0 Q38.65 -0.25 39.25 0.4 40.05 1.15 41.05 1.15 L46.4 1.15 Q47.45 1.15 48.2 0.4 48.8 -0.2 48.95 -1.0 L49.0 -1.45 Q49.0 -2.5 48.25 -3.25 L48.2 -3.3 Q47.45 -4.1 46.4 -4.1 L41.05 -4.1 Q40.05 -4.1 39.25 -3.3 L39.2 -3.25 Q38.5 -2.5 38.5 -1.45 L38.55 -1.0" fill="#ff359f" fill-rule="evenodd" stroke="none"/>
    <path d="M38.55 -1.0 L38.5 -1.45 Q38.5 -2.5 39.2 -3.25 L39.25 -3.3 Q40.05 -4.1 41.05 -4.1 L46.4 -4.1 Q47.45 -4.1 48.2 -3.3 L48.25 -3.25 Q49.0 -2.5 49.0 -1.45 L48.95 -1.0 Q48.8 -0.2 48.2 0.4 47.45 1.15 46.4 1.15 L41.05 1.15 Q40.05 1.15 39.25 0.4 38.65 -0.25 38.55 -1.0" fill="#ff91cb" fill-rule="evenodd" stroke="none"/>
    <path d="M20.1 -1.5 L20.15 -0.9 Q20.3 -0.15 20.85 0.45 21.7 1.2 22.7 1.2 L28.2 1.2 Q29.35 1.2 30.1 0.45 30.65 -0.15 30.85 -0.85 L30.9 -1.5 Q30.9 -2.45 30.4 -3.1 L30.1 -3.4 Q29.35 -4.2 28.2 -4.2 L22.7 -4.2 Q21.7 -4.2 20.85 -3.4 L20.6 -3.05 Q20.1 -2.4 20.1 -1.5 M31.35 -2.45 L31.5 -1.5 31.25 -0.25 31.5 1.0 Q31.5 2.25 30.6 3.15 29.75 4.0 28.5 4.0 L22.4 4.0 Q21.25 4.0 20.35 3.15 19.5 2.25 19.5 1.0 19.5 0.3 19.75 -0.25 19.5 -0.8 19.5 -1.5 L19.65 -2.45 Q19.85 -3.1 20.35 -3.6 21.25 -4.5 22.4 -4.5 L28.5 -4.5 Q29.75 -4.5 30.6 -3.6 L31.35 -2.45" fill="#287d2d" fill-rule="evenodd" stroke="none"/>
    <path d="M20.1 -1.5 Q20.1 -2.4 20.6 -3.05 L20.85 -3.4 Q21.7 -4.2 22.7 -4.2 L28.2 -4.2 Q29.35 -4.2 30.1 -3.4 L30.4 -3.1 Q30.9 -2.45 30.9 -1.5 L30.85 -0.85 Q30.65 -0.15 30.1 0.45 29.35 1.2 28.2 1.2 L22.7 1.2 Q21.7 1.2 20.85 0.45 20.3 -0.15 20.15 -0.9 L20.1 -1.5" fill="#35a23a" fill-rule="evenodd" stroke="none"/>
    <path d="M2.15 -2.45 Q2.35 -3.1 2.85 -3.6 3.75 -4.5 4.9 -4.5 L11.0 -4.5 Q12.25 -4.5 13.1 -3.6 L13.85 -2.45 14.0 -1.5 13.75 -0.25 14.0 1.0 Q14.0 2.25 13.1 3.15 12.25 4.0 11.0 4.0 L4.9 4.0 Q3.75 4.0 2.85 3.15 2.0 2.25 2.0 1.0 2.0 0.3 2.25 -0.25 2.0 -0.8 2.0 -1.5 L2.15 -2.45 M2.8 -1.0 Q2.9 -0.25 3.5 0.4 4.25 1.15 5.3 1.15 L10.6 1.15 Q11.7 1.15 12.4 0.4 13.05 -0.25 13.2 -1.05 L13.2 -1.5 Q13.2 -2.6 12.45 -3.25 L12.4 -3.3 Q11.7 -4.1 10.6 -4.1 L5.3 -4.1 Q4.25 -4.1 3.5 -3.3 L3.45 -3.25 Q2.75 -2.55 2.75 -1.5 L2.8 -1.0" fill="#f97e04" fill-rule="evenodd" stroke="none"/>
    <path d="M2.8 -1.0 L2.75 -1.5 Q2.75 -2.55 3.45 -3.25 L3.5 -3.3 Q4.25 -4.1 5.3 -4.1 L10.6 -4.1 Q11.7 -4.1 12.4 -3.3 L12.45 -3.25 Q13.2 -2.6 13.2 -1.5 L13.2 -1.05 Q13.05 -0.25 12.4 0.4 11.7 1.15 10.6 1.15 L5.3 1.15 Q4.25 1.15 3.5 0.4 2.9 -0.25 2.8 -1.0" fill="#fca349" fill-rule="evenodd" stroke="none"/>
    <path d="M-15.65 -1.05 Q-15.55 -0.25 -14.95 0.35 -14.2 1.1 -13.2 1.1 L-7.9 1.1 Q-6.8 1.1 -6.1 0.35 -5.45 -0.25 -5.3 -1.05 L-5.3 -1.5 Q-5.3 -2.6 -6.05 -3.25 L-6.1 -3.3 Q-6.8 -4.1 -7.9 -4.1 L-13.2 -4.1 Q-14.2 -4.1 -14.95 -3.3 L-14.95 -3.25 Q-15.7 -2.55 -15.7 -1.5 L-15.65 -1.05 M-16.35 -2.45 L-15.65 -3.6 Q-14.75 -4.5 -13.6 -4.5 L-7.5 -4.5 Q-6.25 -4.5 -5.4 -3.6 -4.9 -3.1 -4.65 -2.45 -4.5 -2.05 -4.5 -1.5 -4.5 -0.8 -4.75 -0.25 -4.5 0.3 -4.5 1.0 -4.5 2.25 -5.4 3.15 -6.25 4.0 -7.5 4.0 L-13.6 4.0 Q-14.75 4.0 -15.65 3.15 -16.5 2.25 -16.5 1.0 L-16.25 -0.25 -16.5 -1.5 -16.35 -2.45" fill="#213c98" fill-rule="evenodd" stroke="none"/>
    <path d="M-15.65 -1.05 L-15.7 -1.5 Q-15.7 -2.55 -14.95 -3.25 L-14.95 -3.3 Q-14.2 -4.1 -13.2 -4.1 L-7.9 -4.1 Q-6.8 -4.1 -6.1 -3.3 L-6.05 -3.25 Q-5.3 -2.6 -5.3 -1.5 L-5.3 -1.05 Q-5.45 -0.25 -6.1 0.35 -6.8 1.1 -7.9 1.1 L-13.2 1.1 Q-14.2 1.1 -14.95 0.35 -15.55 -0.25 -15.65 -1.05" fill="#2d51ce" fill-rule="evenodd" stroke="none"/>
    <path d="M-33.25 -3.15 Q-33.85 -2.45 -33.85 -1.5 L-33.8 -0.95 Q-33.65 -0.15 -33.1 0.45 -32.3 1.2 -31.25 1.2 L-25.8 1.2 Q-24.7 1.2 -23.95 0.45 -23.35 -0.15 -23.2 -0.9 L-23.15 -1.5 Q-23.15 -2.45 -23.75 -3.15 L-23.95 -3.35 Q-24.7 -4.15 -25.8 -4.15 L-31.25 -4.15 Q-32.3 -4.15 -33.1 -3.35 L-33.25 -3.15 M-22.65 -2.45 Q-22.5 -2.05 -22.5 -1.5 -22.5 -0.8 -22.75 -0.25 -22.5 0.3 -22.5 1.0 -22.5 2.25 -23.4 3.15 -24.25 4.0 -25.5 4.0 L-31.6 4.0 Q-32.75 4.0 -33.65 3.15 -34.5 2.25 -34.5 1.0 L-34.25 -0.25 -34.5 -1.5 -34.35 -2.45 -33.65 -3.6 Q-32.75 -4.5 -31.6 -4.5 L-25.5 -4.5 Q-24.25 -4.5 -23.4 -3.6 L-22.65 -2.45" fill="#c7d4d4" fill-rule="evenodd" stroke="none"/>
    <path d="M-33.25 -3.15 L-33.1 -3.35 Q-32.3 -4.15 -31.25 -4.15 L-25.8 -4.15 Q-24.7 -4.15 -23.95 -3.35 L-23.75 -3.15 Q-23.15 -2.45 -23.15 -1.5 L-23.2 -0.9 Q-23.35 -0.15 -23.95 0.45 -24.7 1.2 -25.8 1.2 L-31.25 1.2 Q-32.3 1.2 -33.1 0.45 -33.65 -0.15 -33.8 -0.95 L-33.85 -1.5 Q-33.85 -2.45 -33.25 -3.15" fill="#f5fafa" fill-rule="evenodd" stroke="none"/>
  </g>
</svg>
