<?xml version="1.0" encoding="UTF-8" standalone="no"?>
<svg xmlns:ffdec="https://www.free-decompiler.com/flash" xmlns:xlink="http://www.w3.org/1999/xlink" ffdec:objectType="shape" height="74.95px" width="54.1px" xmlns="http://www.w3.org/2000/svg">
  <g transform="matrix(1.0, 0.0, 0.0, 1.0, 33.05, 118.0)">
    <path d="M-26.95 -43.25 Q8.9 -112.75 19.45 -115.05 L17.65 -116.95 Q5.0 -115.1 -31.75 -43.55 L-33.05 -43.65 Q4.7 -116.95 17.75 -118.0 L18.0 -117.95 18.15 -117.85 20.9 -114.95 21.05 -114.65 21.0 -114.35 20.8 -114.15 20.45 -114.1 Q11.6 -115.7 -25.2 -43.05 L-26.95 -43.25" fill="#0a0a0a" fill-rule="evenodd" stroke="none"/>
    <path d="M-31.75 -43.55 Q5.0 -115.1 17.65 -116.95 L19.45 -115.05 Q8.9 -112.75 -26.95 -43.25 L-31.75 -43.55" fill="#303030" fill-rule="evenodd" stroke="none"/>
  </g>
</svg>
