<?xml version="1.0" encoding="UTF-8" standalone="no"?>
<svg xmlns:ffdec="https://www.free-decompiler.com/flash" xmlns:xlink="http://www.w3.org/1999/xlink" ffdec:objectType="shape" height="74.65px" width="51.0px" xmlns="http://www.w3.org/2000/svg">
  <g transform="matrix(1.0, 0.0, 0.0, 1.0, 29.95, 118.0)">
    <path d="M18.0 -117.95 L18.15 -117.85 20.9 -114.95 21.05 -114.65 21.0 -114.35 20.8 -114.15 20.45 -114.1 Q11.5 -115.75 -25.5 -43.6 L-25.7 -43.4 -25.95 -43.35 -29.45 -43.35 -29.75 -43.45 -29.9 -43.7 -29.9 -44.05 Q4.7 -116.95 17.75 -118.0 L18.0 -117.95 M19.45 -115.05 L17.65 -116.95 Q5.0 -115.1 -28.65 -44.35 L-26.25 -44.35 Q8.9 -112.75 19.45 -115.05" fill="#1f0c16" fill-rule="evenodd" stroke="none"/>
    <path d="M19.45 -115.05 Q8.9 -112.75 -26.25 -44.35 L-28.65 -44.35 Q5.0 -115.1 17.65 -116.95 L19.45 -115.05" fill="#6c2b4e" fill-rule="evenodd" stroke="none"/>
  </g>
</svg>
