<?xml version="1.0" encoding="UTF-8" standalone="no"?>
<svg xmlns:ffdec="https://www.free-decompiler.com/flash" xmlns:xlink="http://www.w3.org/1999/xlink" ffdec:objectType="shape" height="21.0px" width="78.55px" xmlns="http://www.w3.org/2000/svg">
  <g transform="matrix(1.0, 0.0, 0.0, 1.0, 35.75, 19.75)">
    <path d="M7.7 -7.95 L8.0 -7.95 8.0 -5.35 7.7 -5.35 7.7 -7.95 M7.55 -8.8 L7.5 -7.95 6.85 -7.9 6.95 -8.35 7.55 -8.8 M9.25 -1.8 L8.0 -1.75 8.0 -5.35 9.0 -5.35 9.1 -2.5 9.25 -1.8 M25.95 -9.7 L25.95 -6.95 26.3 -7.0 26.25 -6.2 26.5 -3.5 25.95 -3.4 25.95 -1.4 21.45 -0.7 21.45 -1.9 24.85 -2.8 24.85 -3.2 25.95 -3.4 25.95 -6.95 24.85 -6.8 24.8 -9.5 23.8 -9.35 23.95 -9.35 25.95 -9.7 M16.95 -1.15 L16.95 -0.4 12.5 -0.1 12.5 -0.75 16.95 -1.15 M7.75 -1.75 L8.0 -1.75 8.0 0.25 7.8 0.25 7.75 -1.75 M39.55 -14.65 L39.55 -15.55 40.0 -16.5 40.35 -17.8 40.35 -19.1 Q41.15 -17.75 41.15 -16.95 41.1 -16.55 40.5 -15.9 39.95 -15.3 39.95 -14.75 39.95 -13.45 40.4 -11.6 L39.55 -11.1 39.55 -7.5 40.6 -8.2 41.1 -8.65 41.15 -8.15 Q41.15 -7.0 40.6 -6.25 L39.55 -5.25 39.55 -7.5 36.3 -6.0 36.15 -9.5 37.35 -10.0 Q38.65 -10.55 39.55 -11.1 L39.55 -14.4 39.85 -14.65 39.55 -14.65 M-27.85 -11.85 L-27.85 -11.55 -28.2 -9.15 -30.55 -10.0 -32.35 -10.85 -32.35 -14.0 Q-30.6 -12.95 -27.85 -11.85 M-1.45 -8.8 L-0.95 -8.75 -0.95 -7.95 -1.4 -7.95 -1.45 -8.8 M-5.45 0.15 L-5.45 -1.3 Q-4.5 -1.45 -4.15 -1.9 L-1.65 -1.75 -1.6 0.25 -2.75 0.3 -5.45 0.15 M-9.95 -1.45 L-9.95 -0.35 -14.4 -0.95 -14.4 -2.05 -9.95 -1.45 M-18.9 -2.9 L-18.9 -1.6 -23.4 -2.35 -23.4 -3.9 -20.1 -3.15 -18.9 -2.9 M-27.85 -5.2 L-27.85 -3.35 Q-30.75 -4.2 -32.35 -5.05 L-32.35 -7.3 -33.75 -8.2 -34.0 -8.4 -33.7 -9.05 Q-33.35 -9.8 -33.2 -11.35 L-32.35 -10.85 -32.35 -7.3 Q-30.85 -6.45 -28.6 -5.7 L-27.85 -5.2 M-32.35 -14.6 L-32.35 -14.85 -32.2 -14.65 -32.35 -14.6 M-33.85 -18.55 L-34.0 -18.65 -33.9 -18.85 -33.85 -18.55 M-33.3 -18.7 L-33.35 -19.5 -33.1 -19.75 -33.15 -19.45 -33.3 -18.7 M-3.9 -5.4 L-3.8 -8.0 -4.5 -8.05 -1.5 -7.95 -1.65 -5.35 -3.9 -5.4" fill="#9e9e9e" fill-rule="evenodd" stroke="none"/>
    <path d="M8.0 -7.95 L7.7 -7.95 7.5 -7.95 7.55 -8.8 8.0 -8.8 8.0 -7.95 M23.75 -10.1 L25.95 -10.5 25.95 -9.7 23.95 -9.35 23.75 -10.1 M39.55 -14.4 L39.55 -14.65 39.85 -14.65 39.55 -14.4 M-32.2 -14.65 Q-29.85 -13.2 -27.9 -12.55 L-27.85 -12.5 -27.85 -11.85 Q-30.6 -12.95 -32.35 -14.0 L-32.35 -14.6 -32.2 -14.65 M-5.45 -8.1 L-5.45 -8.95 -1.45 -8.8 -1.4 -7.95 -1.5 -7.95 -4.5 -8.05 -5.45 -8.1" fill="#eaeaea" fill-rule="evenodd" stroke="none"/>
    <path d="M7.5 -7.95 L7.7 -7.95 7.7 -5.35 6.85 -5.3 6.85 -7.9 7.5 -7.95 M26.3 -7.0 L28.9 -7.55 29.05 -4.0 26.5 -3.5 26.25 -6.2 26.3 -7.0 M25.95 -1.4 L25.95 -0.2 21.45 0.2 21.45 -0.7 25.95 -1.4 M16.95 -0.4 L16.95 0.65 12.5 1.0 12.5 -0.1 16.95 -0.4 M7.75 -1.75 L7.8 0.25 8.0 0.25 8.0 1.25 6.8 1.25 6.85 -1.7 7.75 -1.75 M41.15 -16.95 L41.9 -13.15 41.55 -12.7 40.4 -11.6 Q39.95 -13.45 39.95 -14.75 39.95 -15.3 40.5 -15.9 41.1 -16.55 41.15 -16.95 M41.1 -8.65 Q42.0 -9.55 42.2 -10.45 L42.2 -11.4 42.8 -8.2 Q42.45 -6.75 40.5 -5.0 L39.55 -4.2 39.55 -5.25 40.6 -6.25 Q41.15 -7.0 41.15 -8.15 L41.1 -8.65 M36.3 -6.0 L35.45 -5.7 35.35 -9.25 36.15 -9.5 36.3 -6.0 M-0.95 -7.95 L-0.95 -5.35 -0.05 -5.3 -0.05 -1.7 -0.95 -1.75 -0.95 1.25 -5.45 1.05 -5.45 0.15 -2.75 0.3 -1.6 0.25 -1.65 -1.75 -0.95 -1.75 -0.95 -5.35 -1.65 -5.35 -1.5 -7.95 -1.4 -7.95 -0.95 -7.95 M-9.95 -0.35 L-9.95 0.7 -14.4 0.25 -14.4 -0.95 -9.95 -0.35 M-18.9 -1.6 L-18.9 -0.35 -23.4 -1.2 -23.4 -2.35 -18.9 -1.6 M-27.85 -3.35 L-27.85 -2.35 Q-30.55 -3.2 -32.35 -4.1 L-32.35 -5.05 Q-30.75 -4.2 -27.85 -3.35 M-34.0 -8.4 Q-35.35 -9.55 -35.4 -10.8 L-35.4 -6.75 -35.75 -8.0 -35.4 -10.8 -35.1 -13.25 -34.7 -12.7 -33.2 -11.35 Q-33.35 -9.8 -33.7 -9.05 L-34.0 -8.4" fill="#6f6f6f" fill-rule="evenodd" stroke="none"/>
    <path d="M9.25 -1.8 L9.1 -2.5 9.0 -5.35 12.5 -5.5 12.5 -8.25 16.95 -8.65 16.95 -5.85 21.45 -6.3 21.45 -9.1 23.8 -9.35 24.8 -9.5 24.85 -6.8 21.45 -6.3 21.45 -2.75 24.85 -3.2 24.85 -2.8 21.45 -1.9 21.45 -2.75 16.95 -2.25 16.95 -1.15 12.5 -0.75 12.5 -1.95 9.25 -1.8 M12.5 -1.95 L16.95 -2.25 16.95 -5.85 12.5 -5.5 12.5 -1.95 M-27.85 -11.55 L-27.85 -9.05 -24.1 -8.0 -23.4 -7.85 -23.4 -10.6 -18.9 -9.7 -18.9 -6.9 -14.4 -6.25 -14.4 -8.8 -13.0 -8.55 -9.95 -8.25 -9.95 -5.8 -5.45 -5.5 -5.45 -8.1 -4.5 -8.05 -3.8 -8.0 -3.9 -5.4 -5.45 -5.5 -5.45 -1.95 -9.95 -2.2 -9.95 -1.45 -14.4 -2.05 -14.4 -2.7 -18.9 -3.35 -18.9 -2.9 -20.1 -3.15 -23.4 -3.9 -23.4 -4.25 -24.1 -4.45 -27.85 -5.45 -27.85 -5.2 -28.6 -5.7 -27.85 -5.45 -27.85 -9.05 -28.2 -9.15 -27.85 -11.55 M-5.45 -1.3 L-5.45 -1.95 -4.15 -1.9 Q-4.5 -1.45 -5.45 -1.3 M-23.4 -4.25 L-18.9 -3.35 -18.9 -6.9 -23.4 -7.85 -23.4 -4.25 M-14.4 -2.7 L-9.95 -2.2 -9.95 -5.8 -14.4 -6.25 -14.4 -2.7" fill="#c4c4c4" fill-rule="evenodd" stroke="none"/>
    <path d="M12.5 -8.25 L12.5 -9.05 16.95 -9.5 16.95 -8.65 12.5 -8.25 M21.45 -9.1 L21.45 -9.9 23.75 -10.1 23.95 -9.35 23.8 -9.35 21.45 -9.1 M-23.4 -10.6 L-23.4 -11.25 -20.9 -10.6 -18.9 -10.25 -18.9 -9.7 -23.4 -10.6 M-14.4 -8.8 L-14.4 -9.7 -9.95 -9.3 -9.95 -8.25 -13.0 -8.55 -14.4 -8.8" fill="#f9f9f9" fill-rule="evenodd" stroke="none"/>
  </g>
</svg>
