<?xml version="1.0" encoding="UTF-8" standalone="no"?>
<svg xmlns:ffdec="https://www.free-decompiler.com/flash" xmlns:xlink="http://www.w3.org/1999/xlink" ffdec:objectType="shape" height="68.8px" width="86.55px" xmlns="http://www.w3.org/2000/svg">
  <g transform="matrix(1.0, 0.0, 0.0, 1.0, 42.15, 5.8)">
    <path d="M-25.1 18.2 L-23.45 19.2 -25.95 20.8 Q-27.5 22.05 -28.75 23.95 -30.1 25.9 -30.1 26.95 -30.1 28.4 -28.4 30.55 L-26.75 32.9 Q-26.75 33.55 -22.9 34.0 L-17.65 34.4 -14.05 34.05 -9.35 33.3 -10.1 29.5 -10.25 25.65 -9.4 22.55 -7.65 22.8 -8.25 23.75 -9.4 25.85 Q-9.55 26.95 -8.95 29.8 -8.25 32.9 -7.6 32.9 L1.35 31.7 7.85 33.05 Q8.4 33.05 9.05 30.85 L9.6 27.8 Q8.8 26.35 7.4 25.05 6.25 24.0 5.2 23.5 L8.25 23.5 Q9.45 25.05 10.15 27.8 L9.7 31.0 9.2 33.85 11.3 36.0 Q13.55 38.45 14.4 40.05 L18.3 47.2 Q21.7 52.9 23.05 54.15 L25.65 51.7 Q29.15 48.6 30.65 44.75 31.9 41.6 31.9 37.6 31.9 36.5 30.3 32.55 28.55 28.35 27.05 26.3 L23.1 22.05 25.3 21.5 30.2 28.4 31.75 33.2 32.7 37.3 Q32.7 39.5 31.1 44.05 29.35 49.1 27.2 52.15 L24.55 55.3 Q26.6 57.1 30.85 58.5 34.05 59.55 36.45 59.8 L38.15 60.05 Q35.05 61.55 30.3 60.35 23.35 58.85 19.45 54.2 17.05 51.3 14.6 45.1 12.2 38.95 10.45 36.9 7.4 33.3 1.7 33.3 -0.55 33.3 -6.0 34.55 -11.5 35.8 -15.2 35.8 -27.85 35.8 -37.2 30.5 -37.0 29.9 -35.9 29.0 L-30.75 31.2 Q-31.35 29.8 -31.35 28.8 -31.35 26.55 -30.6 24.8 -29.65 22.5 -27.25 20.3 L-25.1 18.2" fill="#d3c5af" fill-rule="evenodd" stroke="none"/>
    <path d="M30.3 60.35 Q25.6 63.0 20.55 63.0 17.9 63.0 14.9 59.2 12.1 55.65 10.55 50.9 7.6 41.85 4.35 39.3 1.8 37.3 -4.75 37.3 L-17.25 37.75 Q-24.3 38.15 -27.35 37.95 -36.55 37.4 -37.2 30.5 -27.85 35.8 -15.2 35.8 -11.5 35.8 -6.0 34.55 -0.55 33.3 1.7 33.3 7.4 33.3 10.45 36.9 12.2 38.95 14.6 45.1 17.05 51.3 19.45 54.2 23.35 58.85 30.3 60.35" fill="#f1ba87" fill-rule="evenodd" stroke="none"/>
    <path d="M-25.75 11.95 L-25.95 14.1 Q-31.2 15.2 -35.65 18.05 -40.15 20.9 -40.15 23.35 -40.15 27.05 -37.2 30.5 -40.65 28.1 -42.15 22.8 -42.15 19.85 -36.85 16.55 -32.05 13.6 -25.75 11.95 M28.5 20.15 L29.85 18.7 Q37.25 24.45 40.2 28.9 44.4 35.05 44.4 43.45 44.4 47.75 42.35 52.95 40.4 57.7 38.15 60.05 L36.45 59.8 Q38.05 57.85 40.2 53.35 42.9 47.6 42.9 44.15 42.9 34.35 36.6 26.9 32.95 22.55 28.5 20.15" fill="#a49c8e" fill-rule="evenodd" stroke="none"/>
    <path d="M-25.95 14.1 L-26.2 14.75 -26.45 15.85 -26.05 16.75 -25.1 18.2 -27.25 20.3 -30.1 19.4 -31.55 19.2 Q-33.55 19.2 -35.3 21.05 -37.05 22.9 -37.05 24.85 L-36.65 26.6 -35.9 29.0 Q-37.0 29.9 -37.2 30.5 -40.15 27.05 -40.15 23.35 -40.15 20.9 -35.65 18.05 -31.2 15.2 -25.95 14.1 M-23.45 19.2 Q-18.1 21.5 -9.4 22.55 L-10.25 25.65 Q-13.75 25.25 -18.9 23.5 L-25.95 20.8 -23.45 19.2 M-7.65 22.8 L5.2 23.5 Q6.25 24.0 7.4 25.05 8.8 26.35 9.6 27.8 L1.6 27.25 -9.4 25.85 -8.25 23.75 -7.65 22.8 M8.25 23.5 Q17.55 23.45 23.1 22.05 L27.05 26.3 22.95 25.7 Q21.5 25.7 18.0 27.05 14.85 28.25 10.15 27.8 9.45 25.05 8.25 23.5 M25.3 21.5 L28.5 20.15 Q32.95 22.55 36.6 26.9 42.9 34.35 42.9 44.15 42.9 47.6 40.2 53.35 38.05 57.85 36.45 59.8 34.05 59.55 30.85 58.5 26.6 57.1 24.55 55.3 L27.2 52.15 29.0 52.35 Q32.75 52.35 34.7 47.95 36.1 44.85 36.1 41.8 36.1 38.1 34.55 34.9 33.35 32.4 30.2 28.4 L25.3 21.5 M14.4 40.05 Q15.6 40.9 19.15 45.85 22.25 50.25 25.65 51.7 L23.05 54.15 Q21.7 52.9 18.3 47.2 L14.4 40.05" fill="#e3d5c4" fill-rule="evenodd" stroke="none"/>
    <path d="M-9.4 25.85 L1.6 27.25 9.6 27.8 9.05 30.85 Q8.4 33.05 7.85 33.05 L1.35 31.7 -7.6 32.9 Q-8.25 32.9 -8.95 29.8 -9.55 26.95 -9.4 25.85 M-35.9 29.0 L-36.65 26.6 -37.05 24.85 Q-37.05 22.9 -35.3 21.05 -33.55 19.2 -31.55 19.2 L-30.1 19.4 -27.25 20.3 Q-29.65 22.5 -30.6 24.8 -31.35 26.55 -31.35 28.8 -31.35 29.8 -30.75 31.2 L-35.9 29.0 M-10.25 25.65 L-10.1 29.5 -9.35 33.3 -14.05 34.05 -17.65 34.4 -22.9 34.0 Q-26.75 33.55 -26.75 32.9 L-28.4 30.55 Q-30.1 28.4 -30.1 26.95 -30.1 25.9 -28.75 23.95 -27.5 22.05 -25.95 20.8 L-18.9 23.5 Q-13.75 25.25 -10.25 25.65 M10.15 27.8 Q14.85 28.25 18.0 27.05 21.5 25.7 22.95 25.7 L27.05 26.3 Q28.55 28.35 30.3 32.55 31.9 36.5 31.9 37.6 31.9 41.6 30.65 44.75 29.15 48.6 25.65 51.7 22.25 50.25 19.15 45.85 15.6 40.9 14.4 40.05 13.55 38.45 11.3 36.0 L9.2 33.85 9.7 31.0 10.15 27.8 M27.2 52.15 Q29.35 49.1 31.1 44.05 32.7 39.5 32.7 37.3 L31.75 33.2 30.2 28.4 Q33.35 32.4 34.55 34.9 36.1 38.1 36.1 41.8 36.1 44.85 34.7 47.95 32.75 52.35 29.0 52.35 L27.2 52.15" fill="#f8f4e9" fill-rule="evenodd" stroke="none"/>
    <path d="M-13.9 -3.6 Q-0.65 -3.6 7.1 -2.0 16.95 0.05 24.55 5.65 23.45 6.6 20.3 6.85 L15.8 7.0 Q4.6 7.0 -3.05 5.15 -12.6 2.8 -18.4 -2.75 L-13.9 -3.6 M-0.25 9.8 Q3.7 10.2 5.0 11.1 6.8 12.4 6.8 16.3 L6.6 18.9 2.45 19.1 Q-4.5 19.1 -11.75 17.75 -21.6 15.95 -21.6 12.8 -21.6 6.1 -19.45 3.0 -11.6 8.7 -0.25 9.8" fill="#3d3838" fill-rule="evenodd" stroke="none"/>
    <path d="M-15.7 1.5 L-12.25 3.25 Q1.6 7.05 15.65 9.8 19.75 10.95 21.25 12.45 22.85 14.0 22.85 17.2 22.85 19.1 22.3 19.75 20.95 21.15 16.2 21.1 L-0.05 21.65 Q-9.75 21.65 -17.9 19.45 -24.5 17.7 -24.5 16.8 -24.5 11.55 -23.85 8.8 -22.85 4.3 -19.45 -0.6 L-15.7 1.5 M-0.25 9.8 Q-11.6 8.7 -19.45 3.0 -21.6 6.1 -21.6 12.8 -21.6 15.95 -11.75 17.75 -4.5 19.1 2.45 19.1 L6.6 18.9 6.8 16.3 Q6.8 12.4 5.0 11.1 3.7 10.2 -0.25 9.8 M24.9 19.45 Q25.0 16.7 22.65 12.85 20.45 9.2 18.9 8.75 L19.9 8.7 Q23.3 8.5 24.35 7.95 L28.0 17.5 Q26.65 18.85 24.9 19.45" fill="#2b2828" fill-rule="evenodd" stroke="none"/>
    <path d="M-25.75 11.95 Q-24.2 8.0 -22.35 2.2 L-20.3 -3.1 Q-19.25 -4.8 -17.3 -5.35 L-11.1 -5.8 Q-0.6 -5.8 20.8 0.8 25.6 2.5 27.5 7.6 28.6 10.55 29.9 16.95 L30.0 17.95 29.85 18.7 28.5 20.15 25.3 21.5 23.1 22.05 Q17.55 23.45 8.25 23.5 L5.2 23.5 -7.65 22.8 -9.4 22.55 Q-18.1 21.5 -23.45 19.2 L-25.1 18.2 -26.05 16.75 -26.45 15.85 -26.2 14.75 -25.95 14.1 -25.75 11.95 M-13.9 -3.6 L-18.4 -2.75 Q-12.6 2.8 -3.05 5.15 4.6 7.0 15.8 7.0 L20.3 6.85 Q23.45 6.6 24.55 5.65 16.95 0.05 7.1 -2.0 -0.65 -3.6 -13.9 -3.6 M-15.7 1.5 L-19.45 -0.6 Q-22.85 4.3 -23.85 8.8 -24.5 11.55 -24.5 16.8 -24.5 17.7 -17.9 19.45 -9.75 21.65 -0.05 21.65 L16.2 21.1 Q20.95 21.15 22.3 19.75 22.85 19.1 22.85 17.2 22.85 14.0 21.25 12.45 19.75 10.95 15.65 9.8 1.6 7.05 -12.25 3.25 L-15.7 1.5 M24.9 19.45 Q26.65 18.85 28.0 17.5 L24.35 7.95 Q23.3 8.5 19.9 8.7 L18.9 8.75 Q20.45 9.2 22.65 12.85 25.0 16.7 24.9 19.45" fill="#161414" fill-rule="evenodd" stroke="none"/>
  </g>
</svg>
