<?xml version="1.0" encoding="UTF-8" standalone="no"?>
<svg xmlns:ffdec="https://www.free-decompiler.com/flash" xmlns:xlink="http://www.w3.org/1999/xlink" ffdec:objectType="shape" height="136.4px" width="114.6px" xmlns="http://www.w3.org/2000/svg">
  <g transform="matrix(1.0, 0.0, 0.0, 1.0, 35.25, 37.7)">
    <path d="M21.0 -27.75 L21.25 -27.15 21.0 -26.5 20.35 -26.25 Q20.0 -26.25 19.75 -26.5 19.45 -26.8 19.45 -27.15 19.45 -27.5 19.75 -27.75 L20.35 -28.05 21.0 -27.75 M40.35 -27.45 Q41.6 -28.4 43.85 -28.4 44.5 -28.4 44.9 -28.0 L45.95 -26.8 Q47.0 -27.65 48.6 -28.45 L50.15 -29.15 51.35 -28.6 Q52.75 -27.8 53.6 -26.85 L55.8 -28.25 57.05 -26.65 Q58.4 -25.1 59.0 -25.1 59.5 -25.1 60.45 -25.65 61.4 -26.2 61.9 -26.2 62.5 -26.2 63.2 -24.7 63.95 -23.1 65.35 -22.75 L66.9 -22.55 68.1 -22.05 Q68.7 -21.5 69.15 -19.8 69.55 -17.95 68.95 -17.3 70.3 -16.65 73.75 -12.45 77.45 -7.95 77.45 -6.2 L76.6 -4.35 75.75 -2.3 76.7 -0.75 Q77.65 0.85 77.65 1.75 77.65 2.5 75.9 4.15 L74.15 5.8 Q74.15 6.3 74.85 8.6 L75.5 11.35 Q75.5 12.35 75.15 13.15 L74.4 13.0 74.45 12.2 Q74.4 11.6 74.0 11.3 L73.1 12.25 72.4 12.85 Q71.75 12.85 71.65 13.55 71.3 15.55 69.25 19.0 68.85 18.4 67.5 18.1 67.15 18.65 67.1 20.0 L66.85 22.25 66.35 22.9 Q66.55 22.05 66.05 21.45 65.5 20.7 64.2 20.7 62.2 21.9 62.0 21.9 61.4 21.9 60.4 24.4 L59.55 26.9 Q59.35 25.85 58.6 25.65 L58.25 26.0 Q57.85 26.5 57.7 27.25 L58.5 27.6 57.25 27.7 57.55 27.4 57.7 26.6 Q57.7 25.55 56.8 24.9 56.15 24.45 55.55 24.45 54.75 24.45 54.35 25.25 L52.35 28.45 Q51.6 29.15 51.75 27.7 L51.5 26.05 Q49.45 25.8 49.15 26.05 48.95 26.2 48.8 29.0 46.55 25.6 46.4 24.9 L45.05 24.3 44.75 24.85 Q44.4 25.5 44.4 26.1 L44.6 26.8 45.15 26.85 Q43.9 27.7 42.8 27.7 42.1 27.7 41.75 27.1 L40.4 23.55 39.4 23.75 37.65 24.05 Q37.2 23.05 37.05 21.65 L34.55 21.6 Q34.2 22.8 33.5 23.25 L33.05 22.85 32.55 22.2 32.35 21.65 33.65 21.45 Q32.85 20.55 31.45 20.35 L30.1 20.25 Q29.3 20.2 28.45 19.75 26.85 18.75 26.6 16.5 26.45 15.2 26.15 15.0 25.2 14.45 23.7 12.0 24.65 11.95 25.7 11.35 25.85 9.85 25.0 9.4 L23.1 9.15 Q22.4 9.15 21.35 7.85 20.35 6.55 20.35 5.75 20.35 5.15 21.05 4.65 21.35 4.4 21.7 4.3 L19.95 2.25 Q18.6 0.65 18.6 -0.4 L20.45 -4.2 Q22.3 -7.9 22.35 -9.4 22.4 -11.45 23.25 -13.45 24.25 -15.95 25.95 -16.4 27.75 -18.3 28.85 -20.4 29.7 -21.6 32.25 -21.6 L33.8 -23.6 Q35.45 -25.7 36.95 -25.95 38.85 -26.25 40.35 -27.45 M8.6 -32.0 L8.8 -32.45 9.25 -32.65 9.7 -32.45 9.9 -32.0 9.7 -31.55 9.25 -31.35 8.8 -31.55 8.6 -32.0 M5.8 -33.5 L6.0 -32.95 5.8 -32.35 5.25 -32.15 Q4.95 -32.15 4.75 -32.35 4.5 -32.6 4.5 -32.95 L4.75 -33.5 5.25 -33.75 5.8 -33.5 M22.45 -17.0 L22.0 -14.7 Q21.8 -13.05 21.95 -13.05 L20.75 -13.15 Q21.2 -13.25 21.3 -13.95 21.2 -14.55 20.55 -14.75 L20.1 -14.7 Q19.8 -14.55 19.8 -13.95 19.8 -13.5 19.95 -13.3 L17.6 -13.7 Q17.3 -14.05 16.7 -14.1 L15.9 -13.95 10.05 -14.2 4.3 -14.1 3.95 -15.05 Q3.65 -15.45 3.25 -15.55 L2.45 -15.4 1.85 -14.7 1.7 -13.75 -3.1 -12.65 -3.0 -13.6 Q-3.0 -14.95 -4.05 -15.4 L-5.2 -15.6 Q-6.7 -15.6 -7.15 -14.55 L-7.35 -13.4 Q-7.35 -12.4 -6.4 -11.6 L-13.95 -7.9 -14.4 -8.55 -14.55 -9.35 Q-14.55 -10.4 -13.15 -11.05 -11.75 -11.7 -11.75 -12.7 -11.75 -14.5 -12.25 -15.1 -12.65 -15.55 -13.75 -15.55 L-15.85 -15.45 -16.25 -18.75 -15.75 -21.9 Q-15.95 -21.75 -16.35 -21.9 L-16.95 -22.35 -16.3 -23.0 -15.65 -22.6 -15.65 -22.25 Q-12.0 -27.7 -9.05 -27.7 L-8.6 -27.9 -9.2 -28.35 Q-9.55 -28.8 -9.55 -29.45 -9.55 -30.1 -9.2 -30.55 -8.9 -31.0 -8.4 -31.0 -7.9 -31.0 -7.55 -30.55 -7.25 -30.1 -7.25 -29.45 L-7.35 -28.75 -7.25 -28.85 Q-5.5 -30.25 -0.85 -30.95 0.05 -31.05 3.65 -32.2 6.5 -32.2 8.4 -31.5 12.95 -29.85 14.0 -29.55 13.9 -31.6 14.6 -31.75 L15.95 -31.2 Q15.6 -30.1 16.25 -29.6 L16.95 -28.7 16.45 -27.5 Q15.9 -26.8 15.9 -26.3 15.9 -25.35 16.3 -24.7 16.75 -24.0 17.35 -24.0 17.65 -24.0 19.2 -25.15 L22.0 -21.25 20.0 -21.15 Q19.3 -20.65 19.3 -19.25 19.3 -16.65 20.95 -16.65 21.95 -16.65 22.45 -17.0 M2.15 -26.95 Q2.15 -26.65 2.45 -26.45 L3.05 -26.25 3.7 -26.45 3.95 -26.95 3.7 -27.45 3.05 -27.65 2.45 -27.45 2.15 -26.95 M9.05 -28.75 Q9.05 -28.1 9.5 -27.6 9.95 -27.15 10.6 -27.15 11.25 -27.15 11.7 -27.6 12.15 -28.1 12.15 -28.75 12.15 -29.4 11.7 -29.85 11.25 -30.35 10.6 -30.35 9.95 -30.35 9.5 -29.85 9.05 -29.4 9.05 -28.75 M6.85 -26.0 Q7.2 -26.4 7.2 -26.9 7.2 -27.4 6.85 -27.75 6.5 -28.15 6.0 -28.15 5.5 -28.15 5.15 -27.75 4.8 -27.4 4.8 -26.9 4.8 -26.4 5.15 -26.0 5.5 -25.65 6.0 -25.65 6.5 -25.65 6.85 -26.0 M6.3 -25.0 Q5.95 -24.7 5.95 -24.2 5.95 -23.7 6.3 -23.35 6.6 -23.05 7.1 -23.05 7.6 -23.05 7.95 -23.35 L8.25 -24.2 7.95 -25.0 Q7.6 -25.35 7.1 -25.35 6.6 -25.35 6.3 -25.0 M17.4 -20.2 L16.7 -20.5 16.05 -20.2 Q15.75 -19.9 15.75 -19.5 15.75 -19.1 16.05 -18.8 16.3 -18.5 16.7 -18.5 17.1 -18.5 17.4 -18.8 L17.65 -19.5 17.4 -20.2 M13.95 -24.6 Q13.25 -24.6 12.75 -24.05 12.2 -23.55 12.2 -22.8 12.2 -22.05 12.75 -21.5 13.25 -21.0 13.95 -21.0 14.65 -21.0 15.2 -21.5 15.7 -22.05 15.7 -22.8 15.7 -23.55 15.2 -24.05 14.65 -24.6 13.95 -24.6 M10.45 -16.2 L9.85 -16.45 9.25 -16.2 9.0 -15.6 9.25 -15.0 Q9.5 -14.75 9.85 -14.75 10.2 -14.75 10.45 -15.0 L10.7 -15.6 10.45 -16.2 M6.0 -21.0 Q6.0 -21.95 5.5 -22.65 4.95 -23.35 4.2 -23.35 3.45 -23.35 2.95 -22.65 2.4 -21.95 2.4 -21.0 2.4 -20.05 2.95 -19.35 3.45 -18.65 4.2 -18.65 4.95 -18.65 5.5 -19.35 6.0 -20.05 6.0 -21.0 M37.1 -21.7 L37.15 -22.15 36.8 -23.3 Q36.45 -23.8 35.95 -23.8 35.45 -23.8 35.1 -23.3 34.75 -22.85 34.75 -22.15 34.75 -21.45 35.1 -20.95 35.4 -20.55 35.85 -20.5 L35.3 -20.3 Q33.8 -20.3 31.4 -18.0 L28.2 -14.45 28.15 -15.05 27.5 -15.25 26.95 -15.25 Q26.8 -15.2 26.8 -14.55 26.8 -13.9 27.35 -13.85 L28.05 -14.05 Q27.45 -12.25 27.45 -11.25 27.45 -7.2 30.2 -7.2 31.45 -7.2 31.85 -6.75 32.35 -6.15 32.35 -4.2 32.35 -3.15 30.85 -2.4 29.35 -1.65 29.35 -0.55 29.35 3.3 31.7 4.2 34.8 5.4 35.95 7.85 L37.1 6.4 38.4 8.05 37.15 9.55 39.1 10.3 41.75 11.05 42.4 12.7 Q43.4 14.15 45.7 13.2 45.75 11.95 46.3 11.25 46.8 10.55 47.5 10.55 48.65 10.55 49.5 12.45 50.3 14.3 54.05 14.3 55.9 14.3 56.95 13.45 57.95 12.55 59.15 12.55 63.0 12.55 64.4 10.6 65.2 9.5 65.2 7.5 L65.3 6.4 65.4 6.05 66.6 6.25 68.2 6.4 Q69.5 6.4 70.25 2.6 L71.0 -1.9 69.55 -2.2 69.4 -2.5 69.35 -3.25 70.8 -5.3 Q70.8 -8.6 69.2 -8.85 L67.6 -8.45 Q65.85 -8.45 65.85 -11.25 65.85 -12.7 66.65 -13.25 L68.75 -13.35 65.7 -17.55 Q64.05 -16.35 63.7 -16.35 63.1 -16.35 62.65 -17.05 62.15 -17.75 62.15 -18.8 62.15 -19.3 62.75 -20.1 63.3 -20.9 63.3 -21.4 L62.55 -22.35 Q61.9 -22.9 62.25 -24.1 L60.75 -24.7 60.4 -24.3 Q60.05 -23.65 60.1 -22.3 59.4 -22.5 54.1 -24.4 52.05 -25.15 48.95 -25.15 L46.85 -24.9 39.4 -24.0 37.2 -21.8 37.1 -21.7 M39.0 -21.3 Q39.55 -21.85 40.35 -21.85 41.15 -21.85 41.7 -21.3 42.25 -20.75 42.25 -19.95 42.25 -19.15 41.7 -18.6 41.15 -18.05 40.35 -18.05 39.55 -18.05 39.0 -18.6 38.45 -19.15 38.45 -19.95 38.45 -20.75 39.0 -21.3 M31.5 -19.45 L31.0 -19.65 30.5 -19.45 30.3 -18.95 30.5 -18.45 31.0 -18.25 Q31.3 -18.25 31.5 -18.45 L31.7 -18.95 31.5 -19.45 M37.35 -13.8 Q37.85 -13.8 38.95 -13.1 L38.7 -11.0 Q38.35 -11.05 37.45 -11.95 L36.65 -12.8 37.35 -13.8 M31.5 -13.3 L31.8 -13.65 Q32.3 -13.8 32.65 -13.35 33.1 -12.85 33.15 -11.7 L32.1 -11.75 31.5 -13.3 M24.5 -22.1 L24.95 -21.9 25.1 -21.5 24.95 -21.05 24.5 -20.9 Q24.25 -20.9 24.1 -21.05 L23.9 -21.5 24.1 -21.9 Q24.25 -22.1 24.5 -22.1 M25.85 -7.55 L25.45 -7.8 25.05 -7.55 24.9 -6.95 Q24.9 -6.6 25.05 -6.35 25.2 -6.1 25.45 -6.1 25.7 -6.1 25.85 -6.35 L26.0 -6.95 25.85 -7.55 M24.75 -2.4 L24.25 -2.6 23.75 -2.4 23.55 -1.9 23.75 -1.4 Q23.95 -1.2 24.25 -1.2 L24.75 -1.4 24.95 -1.9 24.75 -2.4 M26.85 -3.55 L26.25 -3.2 Q26.0 -2.9 26.0 -2.4 26.0 -1.9 26.25 -1.55 26.5 -1.25 26.85 -1.25 27.2 -1.25 27.45 -1.55 L27.7 -2.4 27.45 -3.2 Q27.2 -3.55 26.85 -3.55 M37.2 -1.3 L37.5 -0.55 37.2 0.2 36.5 0.5 Q36.1 0.5 35.8 0.2 35.5 -0.1 35.5 -0.55 35.5 -1.0 35.8 -1.3 36.1 -1.6 36.5 -1.6 L37.2 -1.3 M37.8 -6.55 Q38.5 -7.25 39.45 -7.25 40.4 -7.25 41.1 -6.55 41.8 -5.85 41.8 -4.9 41.8 -3.95 41.1 -3.25 40.4 -2.55 39.45 -2.55 38.5 -2.55 37.8 -3.25 37.1 -3.95 37.1 -4.9 37.1 -5.85 37.8 -6.55 M36.0 -10.6 Q36.5 -10.6 36.9 -10.15 37.25 -9.7 37.25 -9.05 37.25 -8.4 36.9 -7.95 36.5 -7.5 36.0 -7.5 35.5 -7.5 35.15 -7.95 34.75 -8.4 34.75 -9.05 34.75 -9.7 35.15 -10.15 35.5 -10.6 36.0 -10.6 M42.5 -25.9 L42.0 -25.7 41.75 -25.2 Q41.75 -24.9 42.0 -24.7 L42.5 -24.5 43.05 -24.7 43.25 -25.2 43.05 -25.7 42.5 -25.9 M49.9 -25.95 L50.15 -25.35 Q50.35 -25.1 50.7 -25.1 L51.3 -25.35 51.5 -25.95 51.3 -26.55 50.7 -26.8 50.15 -26.55 49.9 -25.95 M54.5 -25.45 L54.3 -24.95 54.5 -24.45 55.0 -24.25 Q55.3 -24.25 55.5 -24.45 L55.7 -24.95 55.5 -25.45 55.0 -25.65 54.5 -25.45 M54.95 -4.4 Q55.2 -4.7 55.6 -4.7 L56.3 -4.4 56.55 -3.75 56.3 -3.05 Q56.0 -2.8 55.6 -2.8 55.2 -2.8 54.95 -3.05 54.65 -3.35 54.65 -3.75 54.65 -4.15 54.95 -4.4 M56.3 -7.85 L56.55 -7.25 56.3 -6.6 Q56.0 -6.35 55.65 -6.35 55.3 -6.35 55.05 -6.6 54.75 -6.9 54.75 -7.25 54.75 -7.6 55.05 -7.85 L55.65 -8.15 56.3 -7.85 M44.3 -1.95 Q44.65 -2.3 45.15 -2.3 45.65 -2.3 46.05 -1.95 L46.4 -1.1 Q46.4 -0.6 46.05 -0.25 45.65 0.1 45.15 0.1 44.65 0.1 44.3 -0.25 43.9 -0.6 43.9 -1.1 43.9 -1.6 44.3 -1.95 M44.75 -10.95 L42.9 -10.85 Q42.8 -11.2 43.55 -11.95 L44.35 -12.65 44.75 -10.95 M48.25 -6.95 Q48.85 -6.95 49.3 -6.5 49.75 -6.05 49.75 -5.4 49.75 -4.75 49.3 -4.3 48.85 -3.85 48.25 -3.85 47.65 -3.85 47.2 -4.3 46.75 -4.75 46.75 -5.4 46.75 -6.05 47.2 -6.5 47.65 -6.95 48.25 -6.95 M47.35 -19.5 L47.65 -20.0 Q47.9 -20.25 48.3 -20.25 L49.0 -20.0 49.25 -19.5 49.0 -18.95 48.3 -18.75 47.65 -18.95 Q47.35 -19.2 47.35 -19.5 M58.75 -16.35 Q59.3 -16.9 60.05 -16.9 60.8 -16.9 61.35 -16.35 61.9 -15.8 61.9 -15.0 61.9 -14.2 61.35 -13.65 60.8 -13.1 60.05 -13.1 59.3 -13.1 58.75 -13.65 58.2 -14.2 58.2 -15.0 58.2 -15.8 58.75 -16.35 M50.95 -14.8 Q51.5 -14.1 51.5 -13.05 51.5 -12.0 50.95 -11.25 50.35 -10.55 49.55 -10.55 48.75 -10.55 48.2 -11.25 47.6 -12.0 47.6 -13.05 47.6 -14.1 48.2 -14.8 48.75 -15.55 49.55 -15.55 50.35 -15.55 50.95 -14.8 M53.6 -17.4 Q53.95 -17.05 53.95 -16.55 L53.6 -15.65 Q53.2 -15.3 52.7 -15.3 52.2 -15.3 51.85 -15.65 51.45 -16.05 51.45 -16.55 51.45 -17.05 51.85 -17.4 52.2 -17.8 52.7 -17.8 53.2 -17.8 53.6 -17.4 M52.45 -20.4 Q52.8 -20.0 52.8 -19.45 52.8 -18.9 52.45 -18.5 52.05 -18.1 51.5 -18.1 50.95 -18.1 50.6 -18.5 50.2 -18.9 50.2 -19.45 50.2 -20.0 50.6 -20.4 50.95 -20.8 51.5 -20.8 52.05 -20.8 52.45 -20.4 M56.5 -23.1 Q57.2 -23.1 57.7 -22.6 58.2 -22.1 58.2 -21.4 58.2 -20.7 57.7 -20.2 57.2 -19.7 56.5 -19.7 55.8 -19.7 55.3 -20.2 54.8 -20.7 54.8 -21.4 54.8 -22.1 55.3 -22.6 55.8 -23.1 56.5 -23.1 M71.9 -14.1 L71.45 -14.3 71.0 -14.1 70.8 -13.65 71.0 -13.2 71.45 -13.0 71.9 -13.2 72.1 -13.65 71.9 -14.1 M67.65 -20.35 L66.95 -20.65 Q66.55 -20.65 66.3 -20.35 66.0 -20.1 66.0 -19.7 66.0 -19.3 66.3 -19.0 66.55 -18.75 66.95 -18.75 L67.65 -19.0 67.9 -19.7 67.65 -20.35 M70.5 -8.7 Q70.5 -8.3 70.8 -8.0 71.05 -7.75 71.45 -7.75 71.85 -7.75 72.15 -8.0 L72.4 -8.7 72.15 -9.35 71.45 -9.65 Q71.05 -9.65 70.8 -9.35 70.5 -9.1 70.5 -8.7 M66.65 -1.3 Q67.25 -1.3 67.7 -0.85 68.1 -0.4 68.1 0.2 68.1 0.8 67.7 1.25 67.25 1.7 66.65 1.7 66.05 1.7 65.65 1.25 65.2 0.8 65.2 0.2 65.2 -0.4 65.65 -0.85 66.05 -1.3 66.65 -1.3 M67.8 -4.9 Q67.55 -4.65 67.2 -4.65 66.85 -4.65 66.65 -4.9 66.4 -5.15 66.4 -5.5 L66.65 -6.1 67.2 -6.35 67.8 -6.1 68.0 -5.5 67.8 -4.9 M63.9 -5.4 Q64.25 -4.95 64.25 -4.25 64.25 -3.55 63.9 -3.05 63.5 -2.6 62.95 -2.6 62.4 -2.6 62.05 -3.05 61.65 -3.55 61.65 -4.25 61.65 -4.95 62.05 -5.4 62.4 -5.9 62.95 -5.9 63.5 -5.9 63.9 -5.4 M63.6 -10.5 L62.75 -10.35 62.15 -10.35 62.05 -11.4 Q62.05 -12.0 62.2 -12.2 L62.6 -12.6 64.0 -11.55 63.6 -10.5 M74.1 -4.85 L73.5 -5.15 Q73.15 -5.15 72.9 -4.85 L72.65 -4.25 72.9 -3.6 Q73.15 -3.35 73.5 -3.35 L74.1 -3.6 74.35 -4.25 74.1 -4.85 M71.95 1.75 Q71.45 1.75 71.1 2.1 70.75 2.45 70.75 2.95 70.75 3.45 71.1 3.8 71.45 4.15 71.95 4.15 L72.8 3.8 73.15 2.95 Q73.15 2.45 72.8 2.1 72.45 1.75 71.95 1.75 M72.4 5.75 Q72.15 5.95 72.15 6.3 L72.4 6.9 Q72.65 7.1 73.0 7.1 L73.6 6.9 73.85 6.3 73.6 5.75 Q73.35 5.5 73.0 5.5 L72.4 5.75 M71.6 8.0 Q71.3 7.7 70.85 7.7 70.4 7.7 70.1 8.0 69.8 8.3 69.8 8.7 69.8 9.1 70.1 9.4 70.4 9.7 70.85 9.7 71.3 9.7 71.6 9.4 L71.9 8.7 71.6 8.0 M62.1 8.1 L62.4 8.9 62.1 9.75 61.3 10.05 Q60.85 10.05 60.55 9.75 60.2 9.4 60.2 8.9 60.2 8.4 60.55 8.1 60.85 7.75 61.3 7.75 61.75 7.75 62.1 8.1 M62.85 5.1 L63.15 5.8 62.85 6.5 62.15 6.8 Q61.75 6.8 61.45 6.5 61.15 6.2 61.15 5.8 61.15 5.4 61.45 5.1 61.75 4.8 62.15 4.8 L62.85 5.1 M64.75 11.7 Q64.3 11.7 64.0 12.0 63.65 12.3 63.65 12.75 63.65 13.2 64.0 13.5 64.3 13.8 64.75 13.8 L65.55 13.5 65.85 12.75 65.55 12.0 64.75 11.7 M69.0 8.3 L68.5 8.1 68.0 8.3 67.8 8.75 68.0 9.2 68.5 9.4 Q68.8 9.4 69.0 9.2 L69.2 8.75 69.0 8.3 M66.5 10.7 Q66.25 10.95 66.25 11.35 L66.5 12.05 67.0 12.3 67.55 12.05 67.75 11.35 67.55 10.7 Q67.3 10.4 67.0 10.4 66.7 10.4 66.5 10.7 M66.1 15.6 Q65.6 15.1 64.9 15.1 64.2 15.1 63.7 15.6 63.2 16.1 63.2 16.8 63.2 17.5 63.7 18.0 64.2 18.5 64.9 18.5 65.6 18.5 66.1 18.0 66.6 17.5 66.6 16.8 66.6 16.1 66.1 15.6 M69.35 16.75 L69.3 15.15 68.45 15.65 Q67.6 16.25 67.55 16.7 L69.35 16.75 M61.3 17.75 Q61.05 17.5 60.75 17.5 60.45 17.5 60.25 17.75 L60.0 18.25 60.25 18.8 Q60.45 19.0 60.75 19.0 L61.3 18.8 61.5 18.25 61.3 17.75 M61.15 14.15 L59.6 14.15 59.6 15.75 61.15 15.75 61.15 14.15 M40.65 7.45 Q41.0 7.85 41.0 8.4 41.0 8.95 40.65 9.35 40.25 9.75 39.7 9.75 39.15 9.75 38.8 9.35 38.4 8.95 38.4 8.4 38.4 7.85 38.8 7.45 39.15 7.05 39.7 7.05 40.25 7.05 40.65 7.45 M43.7 8.25 Q43.4 8.0 43.4 7.65 43.4 7.3 43.7 7.05 43.95 6.8 44.3 6.8 L44.95 7.05 45.2 7.65 44.95 8.25 44.3 8.5 43.7 8.25 M41.75 4.9 L41.7 5.6 Q41.15 5.8 40.65 5.4 40.1 5.0 40.1 4.25 L41.75 4.9 M48.0 2.9 Q48.45 3.55 48.45 4.5 48.45 5.45 48.0 6.1 47.5 6.75 46.8 6.75 46.1 6.75 45.65 6.1 45.15 5.45 45.15 4.5 45.15 3.55 45.65 2.9 46.1 2.25 46.8 2.25 47.5 2.25 48.0 2.9 M56.7 8.75 Q57.05 8.35 57.6 8.35 58.15 8.35 58.55 8.75 58.9 9.15 58.9 9.7 58.9 10.25 58.55 10.65 58.15 11.05 57.6 11.05 57.05 11.05 56.7 10.65 56.3 10.25 56.3 9.7 56.3 9.15 56.7 8.75 M54.55 9.75 L54.75 10.25 54.55 10.8 54.0 11.0 53.5 10.8 53.25 10.25 Q53.25 9.95 53.5 9.75 53.7 9.5 54.0 9.5 L54.55 9.75 M51.65 4.5 Q51.95 4.15 52.4 4.15 52.85 4.15 53.2 4.5 L53.5 5.25 53.2 6.05 52.4 6.35 Q51.95 6.35 51.65 6.05 51.3 5.7 51.3 5.25 51.3 4.8 51.65 4.5 M58.1 3.25 Q57.45 3.85 56.55 3.85 55.65 3.85 55.05 3.25 54.4 2.6 54.4 1.7 54.4 0.8 55.05 0.2 55.65 -0.45 56.55 -0.45 57.45 -0.45 58.1 0.2 58.7 0.8 58.7 1.7 58.7 2.6 58.1 3.25 M48.95 13.45 Q48.65 13.15 48.25 13.15 47.85 13.15 47.6 13.45 47.3 13.7 47.3 14.1 47.3 14.5 47.6 14.8 L48.25 15.05 48.95 14.8 49.2 14.1 48.95 13.45 M46.1 15.6 Q45.8 15.3 45.4 15.3 45.0 15.3 44.75 15.6 44.45 15.85 44.45 16.25 L44.75 16.95 45.4 17.2 46.1 16.95 46.35 16.25 46.1 15.6 M48.95 17.4 Q48.55 17.75 48.55 18.3 48.55 18.85 48.95 19.25 49.3 19.6 49.8 19.6 50.3 19.6 50.7 19.25 51.05 18.85 51.05 18.3 51.05 17.75 50.7 17.4 50.3 17.0 49.8 17.0 49.3 17.0 48.95 17.4 M42.65 20.35 Q42.25 19.95 41.7 19.95 41.15 19.95 40.8 20.35 40.4 20.7 40.4 21.25 40.4 21.8 40.8 22.2 41.15 22.55 41.7 22.55 42.25 22.55 42.65 22.2 43.0 21.8 43.0 21.25 43.0 20.7 42.65 20.35 M46.75 18.6 L46.25 18.4 45.75 18.6 45.55 19.1 45.75 19.6 Q45.95 19.8 46.25 19.8 L46.75 19.6 46.95 19.1 46.75 18.6 M48.4 22.7 Q48.4 23.2 48.75 23.55 49.05 23.9 49.55 23.9 L50.4 23.55 50.7 22.7 50.4 21.85 Q50.05 21.5 49.55 21.5 49.05 21.5 48.75 21.85 48.4 22.2 48.4 22.7 M56.95 15.1 Q56.55 15.1 56.3 15.4 56.0 15.7 56.0 16.1 L56.3 16.8 Q56.55 17.1 56.95 17.1 L57.65 16.8 57.9 16.1 57.65 15.4 Q57.35 15.1 56.95 15.1 M54.0 19.4 Q53.6 19.75 53.6 20.25 53.6 20.75 54.0 21.15 54.35 21.5 54.85 21.5 L55.75 21.15 56.1 20.25 Q56.1 19.75 55.75 19.4 L54.85 19.0 Q54.35 19.0 54.0 19.4 M59.7 21.8 L59.1 21.55 Q58.75 21.55 58.55 21.8 L58.3 22.4 58.55 23.0 59.1 23.25 59.7 23.0 59.9 22.4 59.7 21.8 M43.8 25.6 L42.45 25.6 42.45 27.0 43.8 27.0 43.8 25.6 M36.5 3.75 L36.15 4.65 Q35.75 5.0 35.25 5.0 34.75 5.0 34.4 4.65 34.0 4.25 34.0 3.75 34.0 3.25 34.4 2.9 34.75 2.5 35.25 2.5 35.75 2.5 36.15 2.9 36.5 3.25 36.5 3.75 M34.45 8.35 Q34.1 8.05 33.65 8.05 33.2 8.05 32.9 8.35 32.55 8.65 32.55 9.1 32.55 9.55 32.9 9.85 L33.65 10.15 34.45 9.85 34.75 9.1 34.45 8.35 M31.85 10.4 Q31.45 10.0 30.9 10.0 30.35 10.0 30.0 10.4 29.6 10.75 29.6 11.3 29.6 11.85 30.0 12.25 L30.9 12.6 31.85 12.25 32.2 11.3 Q32.2 10.75 31.85 10.4 M25.7 1.25 Q25.4 0.85 25.0 0.85 24.6 0.85 24.3 1.25 24.0 1.65 24.0 2.25 24.0 2.85 24.3 3.25 24.6 3.65 25.0 3.65 L25.7 3.25 26.0 2.25 25.7 1.25 M26.4 5.85 Q26.4 6.5 26.85 6.95 27.3 7.4 27.9 7.4 28.5 7.4 28.95 6.95 29.4 6.5 29.4 5.85 29.4 5.2 28.95 4.75 28.5 4.3 27.9 4.3 27.3 4.3 26.85 4.75 26.4 5.2 26.4 5.85 M21.1 0.3 L20.7 0.1 Q20.45 0.1 20.3 0.3 20.15 0.45 20.15 0.7 L20.3 1.15 20.7 1.3 21.1 1.15 21.25 0.7 21.1 0.3 M23.25 5.1 Q22.8 5.1 22.5 5.45 22.15 5.75 22.15 6.2 22.15 6.65 22.5 7.0 22.8 7.3 23.25 7.3 23.7 7.3 24.05 7.0 L24.35 6.2 24.05 5.45 Q23.7 5.1 23.25 5.1 M26.9 11.95 L26.9 13.65 28.2 13.65 28.2 11.95 26.9 11.95 M28.8 16.45 Q28.4 16.8 28.4 17.35 28.4 17.9 28.8 18.3 29.15 18.65 29.7 18.65 30.25 18.65 30.65 18.3 L31.0 17.35 Q31.0 16.8 30.65 16.45 30.25 16.05 29.7 16.05 29.15 16.05 28.8 16.45 M39.95 12.85 Q39.45 12.35 38.75 12.35 38.05 12.35 37.6 12.85 37.1 13.3 37.1 13.95 37.1 14.6 37.6 15.1 38.05 15.55 38.75 15.55 39.45 15.55 39.95 15.1 L40.4 13.95 Q40.4 13.3 39.95 12.85 M36.7 16.35 Q36.1 16.35 35.65 16.8 35.2 17.25 35.2 17.85 35.2 18.45 35.65 18.9 36.1 19.35 36.7 19.35 37.3 19.35 37.75 18.9 L38.2 17.85 Q38.2 17.25 37.75 16.8 37.3 16.35 36.7 16.35 M32.7 14.15 Q32.5 13.85 32.25 13.85 32.0 13.85 31.8 14.15 L31.6 14.75 31.8 15.4 32.25 15.65 32.7 15.4 32.9 14.75 32.7 14.15 M-3.05 -32.25 L-2.85 -32.7 -2.35 -32.9 -1.85 -32.7 -1.65 -32.25 -1.85 -31.8 Q-2.05 -31.6 -2.35 -31.6 L-2.85 -31.8 -3.05 -32.25 M-13.5 -26.9 L-13.05 -27.1 -12.6 -26.9 -12.4 -26.45 -12.6 -26.0 -13.05 -25.8 -13.5 -26.0 -13.7 -26.45 -13.5 -26.9 M-5.55 -26.05 Q-5.05 -25.55 -4.35 -25.55 -3.65 -25.55 -3.1 -26.05 -2.6 -26.6 -2.6 -27.35 -2.6 -28.1 -3.1 -28.6 -3.65 -29.15 -4.35 -29.15 -5.05 -29.15 -5.55 -28.6 -6.1 -28.1 -6.1 -27.35 -6.1 -26.6 -5.55 -26.05 M-2.1 -19.5 Q-2.0 -18.9 -0.25 -19.0 L-0.65 -20.6 -2.1 -19.5 M-5.65 -21.0 L-6.2 -21.3 -7.15 -21.65 -7.8 -20.75 Q-6.4 -19.15 -5.9 -19.05 L-5.65 -21.0 M-7.55 -18.25 Q-7.9 -18.7 -8.4 -18.7 -8.9 -18.7 -9.2 -18.25 -9.55 -17.85 -9.55 -17.25 -9.55 -16.65 -9.2 -16.2 -8.9 -15.8 -8.4 -15.8 -7.9 -15.8 -7.55 -16.2 -7.25 -16.65 -7.25 -17.25 -7.25 -17.85 -7.55 -18.25 M-11.25 -21.4 L-11.8 -21.7 -12.3 -21.4 -12.55 -20.7 -12.3 -20.0 Q-12.1 -19.7 -11.8 -19.7 L-11.25 -20.0 -11.05 -20.7 -11.25 -21.4 M-18.15 -16.1 L-17.75 -15.85 Q-17.6 -15.65 -17.6 -15.3 -17.6 -14.95 -17.75 -14.7 -17.9 -14.5 -18.15 -14.5 -18.4 -14.5 -18.55 -14.7 L-18.7 -15.3 -18.55 -15.85 -18.15 -16.1 M-19.75 -11.05 L-19.3 -11.25 Q-19.05 -11.25 -18.85 -11.05 L-18.65 -10.6 -18.85 -10.15 Q-19.05 -9.95 -19.3 -9.95 L-19.75 -10.15 -19.95 -10.6 -19.75 -11.05" fill="#2d251e" fill-rule="evenodd" stroke="none"/>
    <path d="M40.35 -27.45 Q38.85 -26.25 36.95 -25.95 35.45 -25.7 33.8 -23.6 L32.25 -21.6 Q29.7 -21.6 28.85 -20.4 27.75 -18.3 25.95 -16.4 24.25 -15.95 23.25 -13.45 22.4 -11.45 22.35 -9.4 22.3 -7.9 20.45 -4.2 L18.6 -0.4 Q18.6 0.65 19.95 2.25 L21.7 4.3 Q21.35 4.4 21.05 4.65 20.35 5.15 20.35 5.75 20.35 6.55 21.35 7.85 22.4 9.15 23.1 9.15 L25.0 9.4 Q25.85 9.85 25.7 11.35 24.65 11.95 23.7 12.0 25.2 14.45 26.15 15.0 26.45 15.2 26.6 16.5 26.85 18.75 28.45 19.75 29.3 20.2 30.1 20.25 L31.45 20.35 Q32.85 20.55 33.65 21.45 L32.35 21.65 32.55 22.2 33.05 22.85 33.5 23.25 Q34.2 22.8 34.55 21.6 L37.05 21.65 Q37.2 23.05 37.65 24.05 L39.4 23.75 40.4 23.55 41.75 27.1 Q42.1 27.7 42.8 27.7 43.9 27.7 45.15 26.85 L44.6 26.8 44.4 26.1 Q44.4 25.5 44.75 24.85 L45.05 24.3 46.4 24.9 Q46.55 25.6 48.8 29.0 48.95 26.2 49.15 26.05 49.45 25.8 51.5 26.05 L51.75 27.7 Q51.6 29.15 52.35 28.45 L54.35 25.25 Q54.75 24.45 55.55 24.45 56.15 24.45 56.8 24.9 57.7 25.55 57.7 26.6 L57.55 27.4 57.25 27.7 58.5 27.6 57.7 27.25 Q57.85 26.5 58.25 26.0 L58.6 25.65 Q59.35 25.85 59.55 26.9 L60.4 24.4 Q61.4 21.9 62.0 21.9 62.2 21.9 64.2 20.7 65.5 20.7 66.05 21.45 66.55 22.05 66.35 22.9 L66.85 22.25 67.1 20.0 Q67.15 18.65 67.5 18.1 68.85 18.4 69.25 19.0 71.3 15.55 71.65 13.55 71.75 12.85 72.4 12.85 L73.1 12.25 74.0 11.3 Q74.4 11.6 74.45 12.2 L74.4 13.0 75.15 13.15 Q75.5 12.35 75.5 11.35 L74.85 8.6 Q74.15 6.3 74.15 5.8 L75.9 4.15 Q77.65 2.5 77.65 1.75 77.65 0.85 76.7 -0.75 L75.75 -2.3 76.6 -4.35 77.45 -6.2 Q77.45 -7.95 73.75 -12.45 70.3 -16.65 68.95 -17.3 69.55 -17.95 69.15 -19.8 68.7 -21.5 68.1 -22.05 L66.9 -22.55 65.35 -22.75 Q63.95 -23.1 63.2 -24.7 62.5 -26.2 61.9 -26.2 61.4 -26.2 60.45 -25.65 59.5 -25.1 59.0 -25.1 58.4 -25.1 57.05 -26.65 L55.8 -28.25 53.6 -26.85 Q52.75 -27.8 51.35 -28.6 L50.15 -29.15 48.6 -28.45 Q47.0 -27.65 45.95 -26.8 L44.9 -28.0 Q44.5 -28.4 43.85 -28.4 41.6 -28.4 40.35 -27.45 M-23.8 -0.8 Q-24.5 -1.85 -24.5 -2.9 L-23.45 -5.45 Q-24.55 -6.2 -25.55 -7.45 L-26.35 -8.7 Q-26.35 -9.45 -25.3 -10.95 -24.0 -12.55 -23.6 -13.25 -23.2 -13.85 -23.05 -15.7 L-22.85 -18.4 Q-22.15 -21.7 -20.35 -24.0 L-17.7 -27.35 Q-16.85 -29.05 -14.55 -30.25 -11.65 -31.75 -11.4 -31.95 -9.95 -33.3 -2.4 -37.15 L1.1 -35.8 Q1.6 -35.8 3.25 -36.75 4.9 -37.7 5.4 -37.7 5.9 -37.7 6.95 -36.85 8.0 -36.05 8.5 -36.05 L10.65 -35.2 Q12.3 -34.35 12.7 -34.35 L16.15 -33.9 Q17.65 -32.85 20.05 -31.55 22.3 -30.35 24.1 -28.05 L27.6 -22.65 Q29.2 -23.35 35.8 -27.3 41.2 -30.5 42.45 -30.5 L46.25 -29.05 Q46.75 -29.05 48.55 -30.05 L50.85 -31.1 Q51.35 -31.1 52.55 -30.2 53.7 -29.3 54.2 -29.3 55.3 -29.3 56.7 -28.4 58.1 -27.5 58.7 -27.5 L61.9 -27.8 Q63.3 -27.75 64.9 -26.0 65.65 -25.2 67.7 -24.05 69.6 -23.05 70.1 -22.3 L75.7 -13.45 Q79.1 -7.7 79.1 -6.6 L77.55 -2.5 79.35 1.8 Q79.35 4.45 77.8 5.65 L76.15 6.35 Q77.4 8.75 77.4 10.25 77.4 11.75 77.0 12.95 76.25 15.45 74.15 15.45 L73.25 15.35 72.6 15.1 Q72.6 17.15 70.05 21.05 67.25 25.25 65.0 25.25 L63.45 24.9 62.65 24.55 Q61.85 27.6 60.35 28.65 59.5 29.25 57.9 29.25 56.35 29.25 55.05 28.6 54.8 36.6 52.75 39.4 52.75 37.4 51.7 34.9 50.3 31.65 47.85 30.65 L46.0 28.55 Q45.65 29.25 44.75 29.45 L44.3 29.5 42.8 29.5 41.75 29.25 41.45 29.15 Q39.25 26.4 38.55 26.05 L38.45 26.05 37.65 25.95 35.7 25.4 34.65 25.05 32.9 24.8 32.8 24.75 31.9 24.1 30.95 22.65 30.75 22.15 28.0 22.35 26.65 21.75 Q25.3 19.95 25.1 19.35 L25.0 16.1 Q25.0 16.0 24.05 15.55 L22.85 14.5 22.2 13.4 22.1 13.15 Q22.1 11.1 21.2 9.7 20.3 8.25 19.05 8.25 L18.95 8.05 18.65 6.1 Q18.65 4.85 17.5 4.0 16.3 3.1 14.6 3.1 L16.7 0.5 16.6 -0.55 Q14.1 0.75 11.65 2.1 L7.4 0.7 Q14.35 -2.75 14.3 -3.75 L20.4 -5.7 20.05 -7.05 15.75 -5.55 Q18.15 -6.6 19.25 -7.75 20.0 -8.55 20.1 -9.3 11.5 -9.8 5.0 -8.0 -2.15 -6.0 -4.0 -1.8 L-7.65 -2.4 8.6 -11.75 8.6 -12.3 7.85 -12.55 Q4.55 -12.55 -3.3 -9.3 -11.45 -5.9 -16.6 -2.15 L-23.8 -0.8 M46.55 49.15 Q45.85 52.05 42.35 55.35 39.3 58.2 37.1 59.0 L37.1 58.95 Q37.7 57.95 38.45 55.2 L39.2 51.75 Q39.2 50.7 38.4 48.25 L36.85 44.4 36.7 40.35 Q39.25 42.0 42.35 45.7 45.15 49.0 45.85 49.25 L46.55 49.15 M22.6 29.95 Q18.8 27.7 18.25 26.85 18.3 26.25 17.8 25.75 19.8 25.75 21.2 27.0 22.6 28.2 22.6 29.95 M22.45 -17.0 L25.05 -18.25 Q26.4 -18.9 26.4 -21.1 26.4 -23.1 24.7 -23.9 22.9 -24.8 22.55 -27.0 22.25 -29.1 19.85 -29.7 17.7 -30.25 16.65 -31.75 L15.65 -33.15 Q15.15 -33.15 14.3 -32.65 13.45 -32.15 12.95 -32.15 12.35 -32.15 11.1 -33.6 L10.0 -35.05 7.95 -33.75 Q6.65 -35.1 4.75 -35.9 L3.3 -35.25 Q1.8 -34.5 0.85 -33.7 L-0.2 -34.8 -1.3 -35.2 -5.8 -32.55 Q-8.15 -32.55 -12.15 -29.75 -16.45 -26.75 -16.75 -24.05 -19.1 -24.75 -20.15 -22.05 -20.7 -20.75 -21.05 -17.55 -21.4 -13.95 -23.0 -12.0 -24.5 -10.2 -24.5 -9.2 -24.5 -8.3 -23.3 -6.75 L-21.65 -4.85 Q-22.9 -4.5 -22.9 -3.5 -22.9 -2.5 -22.25 -1.65 L-21.05 -2.7 -21.0 -3.75 Q-20.85 -4.2 -20.2 -4.2 -19.55 -4.2 -17.75 -5.35 L-13.95 -7.9 -6.4 -11.6 -3.1 -12.65 1.7 -13.75 4.3 -14.1 10.05 -14.2 15.9 -13.95 17.6 -13.7 19.95 -13.3 20.0 -13.25 20.2 -13.25 20.75 -13.15 21.95 -13.05 Q21.8 -13.05 22.0 -14.7 L22.45 -17.0 M26.85 -3.55 Q27.2 -3.55 27.45 -3.2 L27.7 -2.4 27.45 -1.55 Q27.2 -1.25 26.85 -1.25 26.5 -1.25 26.25 -1.55 26.0 -1.9 26.0 -2.4 26.0 -2.9 26.25 -3.2 L26.85 -3.55 M72.4 5.75 L73.0 5.5 Q73.35 5.5 73.6 5.75 L73.85 6.3 73.6 6.9 73.0 7.1 Q72.65 7.1 72.4 6.9 L72.15 6.3 Q72.15 5.95 72.4 5.75 M69.0 8.3 L69.2 8.75 69.0 9.2 Q68.8 9.4 68.5 9.4 L68.0 9.2 67.8 8.75 68.0 8.3 68.5 8.1 69.0 8.3 M64.75 11.7 L65.55 12.0 65.85 12.75 65.55 13.5 64.75 13.8 Q64.3 13.8 64.0 13.5 63.65 13.2 63.65 12.75 63.65 12.3 64.0 12.0 64.3 11.7 64.75 11.7 M61.15 14.15 L61.15 15.75 59.6 15.75 59.6 14.15 61.15 14.15 M61.3 17.75 L61.5 18.25 61.3 18.8 60.75 19.0 Q60.45 19.0 60.25 18.8 L60.0 18.25 60.25 17.75 Q60.45 17.5 60.75 17.5 61.05 17.5 61.3 17.75 M69.35 16.75 L67.55 16.7 Q67.6 16.25 68.45 15.65 L69.3 15.15 69.35 16.75 M48.95 13.45 L49.2 14.1 48.95 14.8 48.25 15.05 47.6 14.8 Q47.3 14.5 47.3 14.1 47.3 13.7 47.6 13.45 47.85 13.15 48.25 13.15 48.65 13.15 48.95 13.45 M48.4 22.7 Q48.4 22.2 48.75 21.85 49.05 21.5 49.55 21.5 50.05 21.5 50.4 21.85 L50.7 22.7 50.4 23.55 49.55 23.9 Q49.05 23.9 48.75 23.55 48.4 23.2 48.4 22.7 M46.75 18.6 L46.95 19.1 46.75 19.6 46.25 19.8 Q45.95 19.8 45.75 19.6 L45.55 19.1 45.75 18.6 46.25 18.4 46.75 18.6 M42.65 20.35 Q43.0 20.7 43.0 21.25 43.0 21.8 42.65 22.2 42.25 22.55 41.7 22.55 41.15 22.55 40.8 22.2 40.4 21.8 40.4 21.25 40.4 20.7 40.8 20.35 41.15 19.95 41.7 19.95 42.25 19.95 42.65 20.35 M43.8 25.6 L43.8 27.0 42.45 27.0 42.45 25.6 43.8 25.6 M59.7 21.8 L59.9 22.4 59.7 23.0 59.1 23.25 58.55 23.0 58.3 22.4 58.55 21.8 Q58.75 21.55 59.1 21.55 L59.7 21.8 M54.0 19.4 Q54.35 19.0 54.85 19.0 L55.75 19.4 Q56.1 19.75 56.1 20.25 L55.75 21.15 54.85 21.5 Q54.35 21.5 54.0 21.15 53.6 20.75 53.6 20.25 53.6 19.75 54.0 19.4 M25.7 1.25 L26.0 2.25 25.7 3.25 25.0 3.65 Q24.6 3.65 24.3 3.25 24.0 2.85 24.0 2.25 24.0 1.65 24.3 1.25 24.6 0.85 25.0 0.85 25.4 0.85 25.7 1.25 M31.85 10.4 Q32.2 10.75 32.2 11.3 L31.85 12.25 30.9 12.6 30.0 12.25 Q29.6 11.85 29.6 11.3 29.6 10.75 30.0 10.4 30.35 10.0 30.9 10.0 31.45 10.0 31.85 10.4 M28.8 16.45 Q29.15 16.05 29.7 16.05 30.25 16.05 30.65 16.45 31.0 16.8 31.0 17.35 L30.65 18.3 Q30.25 18.65 29.7 18.65 29.15 18.65 28.8 18.3 28.4 17.9 28.4 17.35 28.4 16.8 28.8 16.45 M26.9 11.95 L28.2 11.95 28.2 13.65 26.9 13.65 26.9 11.95 M23.25 5.1 Q23.7 5.1 24.05 5.45 L24.35 6.2 24.05 7.0 Q23.7 7.3 23.25 7.3 22.8 7.3 22.5 7.0 22.15 6.65 22.15 6.2 22.15 5.75 22.5 5.45 22.8 5.1 23.25 5.1 M21.1 0.3 L21.25 0.7 21.1 1.15 20.7 1.3 20.3 1.15 20.15 0.7 Q20.15 0.45 20.3 0.3 20.45 0.1 20.7 0.1 L21.1 0.3 M36.7 16.35 Q37.3 16.35 37.75 16.8 38.2 17.25 38.2 17.85 L37.75 18.9 Q37.3 19.35 36.7 19.35 36.1 19.35 35.65 18.9 35.2 18.45 35.2 17.85 35.2 17.25 35.65 16.8 36.1 16.35 36.7 16.35 M-23.1 -8.2 L-22.95 -8.6 -22.6 -8.75 -22.25 -8.6 Q-22.1 -8.45 -22.1 -8.2 -22.1 -7.95 -22.25 -7.8 -22.4 -7.65 -22.6 -7.65 L-22.95 -7.8 -23.1 -8.2 M-17.4 -11.85 Q-17.2 -12.2 -16.85 -12.2 L-16.25 -11.85 -16.05 -11.1 -16.25 -10.3 Q-16.5 -10.0 -16.85 -10.0 -17.2 -10.0 -17.4 -10.3 L-17.65 -11.1 -17.4 -11.85 M-18.6 -8.05 Q-18.2 -8.05 -17.9 -7.65 -17.65 -7.3 -17.65 -6.75 -17.65 -6.2 -17.9 -5.8 -18.2 -5.45 -18.6 -5.45 -19.0 -5.45 -19.25 -5.8 L-19.55 -6.75 -19.25 -7.65 Q-19.0 -8.05 -18.6 -8.05" fill="#000000" fill-rule="evenodd" stroke="none"/>
    <path d="M21.0 -27.75 L20.35 -28.05 19.75 -27.75 Q19.45 -27.5 19.45 -27.15 19.45 -26.8 19.75 -26.5 20.0 -26.25 20.35 -26.25 L21.0 -26.5 21.25 -27.15 21.0 -27.75 M5.8 -33.5 L5.25 -33.75 4.75 -33.5 4.5 -32.95 Q4.5 -32.6 4.75 -32.35 4.95 -32.15 5.25 -32.15 L5.8 -32.35 6.0 -32.95 5.8 -33.5 M8.6 -32.0 L8.8 -31.55 9.25 -31.35 9.7 -31.55 9.9 -32.0 9.7 -32.45 9.25 -32.65 8.8 -32.45 8.6 -32.0 M-16.6 -2.15 Q-11.45 -5.9 -3.3 -9.3 4.55 -12.55 7.85 -12.55 L8.6 -12.3 8.6 -11.75 -7.65 -2.4 -16.6 -2.15 M-4.0 -1.8 Q-2.15 -6.0 5.0 -8.0 11.5 -9.8 20.1 -9.3 20.0 -8.55 19.25 -7.75 18.15 -6.6 15.75 -5.55 L20.05 -7.05 20.4 -5.7 14.3 -3.75 Q14.35 -2.75 7.4 0.7 2.7 -0.75 -4.0 -1.8 M11.65 2.1 Q14.1 0.75 16.6 -0.55 L16.7 0.5 14.6 3.1 11.65 2.1 M-13.95 -7.9 L-17.75 -5.35 Q-19.55 -4.2 -20.2 -4.2 -20.85 -4.2 -21.0 -3.75 L-21.05 -2.7 -22.25 -1.65 Q-22.9 -2.5 -22.9 -3.5 -22.9 -4.5 -21.65 -4.85 L-23.3 -6.75 Q-24.5 -8.3 -24.5 -9.2 -24.5 -10.2 -23.0 -12.0 -21.4 -13.95 -21.05 -17.55 -20.7 -20.75 -20.15 -22.05 -19.1 -24.75 -16.75 -24.05 -16.45 -26.75 -12.15 -29.75 -8.15 -32.55 -5.8 -32.55 L-1.3 -35.2 -0.2 -34.8 0.85 -33.7 Q1.8 -34.5 3.3 -35.25 L4.75 -35.9 Q6.65 -35.1 7.95 -33.75 L10.0 -35.05 11.1 -33.6 Q12.35 -32.15 12.95 -32.15 13.45 -32.15 14.3 -32.65 15.15 -33.15 15.65 -33.15 L16.65 -31.75 Q17.7 -30.25 19.85 -29.7 22.25 -29.1 22.55 -27.0 22.9 -24.8 24.7 -23.9 26.4 -23.1 26.4 -21.1 26.4 -18.9 25.05 -18.25 L22.45 -17.0 Q21.95 -16.65 20.95 -16.65 19.3 -16.65 19.3 -19.25 19.3 -20.65 20.0 -21.15 L22.0 -21.25 19.2 -25.15 Q17.65 -24.0 17.35 -24.0 16.75 -24.0 16.3 -24.7 15.9 -25.35 15.9 -26.3 15.9 -26.8 16.45 -27.5 L16.95 -28.7 16.25 -29.6 Q15.6 -30.1 15.95 -31.2 L14.6 -31.75 Q13.9 -31.6 14.0 -29.55 12.95 -29.85 8.4 -31.5 6.5 -32.2 3.65 -32.2 0.05 -31.05 -0.85 -30.95 -5.5 -30.25 -7.25 -28.85 L-7.35 -28.75 -7.25 -29.45 Q-7.25 -30.1 -7.55 -30.55 -7.9 -31.0 -8.4 -31.0 -8.9 -31.0 -9.2 -30.55 -9.55 -30.1 -9.55 -29.45 -9.55 -28.8 -9.2 -28.35 L-8.6 -27.9 -9.05 -27.7 Q-12.0 -27.7 -15.65 -22.25 L-15.65 -22.6 -16.3 -23.0 -16.95 -22.35 -16.35 -21.9 Q-15.95 -21.75 -15.75 -21.9 L-16.25 -18.75 -15.85 -15.45 -13.75 -15.55 Q-12.65 -15.55 -12.25 -15.1 -11.75 -14.5 -11.75 -12.7 -11.75 -11.7 -13.15 -11.05 -14.55 -10.4 -14.55 -9.35 L-14.4 -8.55 -13.95 -7.9 M20.75 -13.15 L20.2 -13.25 20.0 -13.25 19.95 -13.3 Q19.8 -13.5 19.8 -13.95 19.8 -14.55 20.1 -14.7 L20.55 -14.75 Q21.2 -14.55 21.3 -13.95 21.2 -13.25 20.75 -13.15 M17.6 -13.7 L15.9 -13.95 16.7 -14.1 Q17.3 -14.05 17.6 -13.7 M4.3 -14.1 L1.7 -13.75 1.85 -14.7 2.45 -15.4 3.25 -15.55 Q3.65 -15.45 3.95 -15.05 L4.3 -14.1 M-3.1 -12.65 L-6.4 -11.6 Q-7.35 -12.4 -7.35 -13.4 L-7.15 -14.55 Q-6.7 -15.6 -5.2 -15.6 L-4.05 -15.4 Q-3.0 -14.95 -3.0 -13.6 L-3.1 -12.65 M10.45 -16.2 L10.7 -15.6 10.45 -15.0 Q10.2 -14.75 9.85 -14.75 9.5 -14.75 9.25 -15.0 L9.0 -15.6 9.25 -16.2 9.85 -16.45 10.45 -16.2 M13.95 -24.6 Q14.65 -24.6 15.2 -24.05 15.7 -23.55 15.7 -22.8 15.7 -22.05 15.2 -21.5 14.65 -21.0 13.95 -21.0 13.25 -21.0 12.75 -21.5 12.2 -22.05 12.2 -22.8 12.2 -23.55 12.75 -24.05 13.25 -24.6 13.95 -24.6 M17.4 -20.2 L17.65 -19.5 17.4 -18.8 Q17.1 -18.5 16.7 -18.5 16.3 -18.5 16.05 -18.8 15.75 -19.1 15.75 -19.5 15.75 -19.9 16.05 -20.2 L16.7 -20.5 17.4 -20.2 M6.3 -25.0 Q6.6 -25.35 7.1 -25.35 7.6 -25.35 7.95 -25.0 L8.25 -24.2 7.95 -23.35 Q7.6 -23.05 7.1 -23.05 6.6 -23.05 6.3 -23.35 5.95 -23.7 5.95 -24.2 5.95 -24.7 6.3 -25.0 M6.85 -26.0 Q6.5 -25.65 6.0 -25.65 5.5 -25.65 5.15 -26.0 4.8 -26.4 4.8 -26.9 4.8 -27.4 5.15 -27.75 5.5 -28.15 6.0 -28.15 6.5 -28.15 6.85 -27.75 7.2 -27.4 7.2 -26.9 7.2 -26.4 6.85 -26.0 M9.05 -28.75 Q9.05 -29.4 9.5 -29.85 9.95 -30.35 10.6 -30.35 11.25 -30.35 11.7 -29.85 12.15 -29.4 12.15 -28.75 12.15 -28.1 11.7 -27.6 11.25 -27.15 10.6 -27.15 9.95 -27.15 9.5 -27.6 9.05 -28.1 9.05 -28.75 M2.15 -26.95 L2.45 -27.45 3.05 -27.65 3.7 -27.45 3.95 -26.95 3.7 -26.45 3.05 -26.25 2.45 -26.45 Q2.15 -26.65 2.15 -26.95 M6.0 -21.0 Q6.0 -20.05 5.5 -19.35 4.95 -18.65 4.2 -18.65 3.45 -18.65 2.95 -19.35 2.4 -20.05 2.4 -21.0 2.4 -21.95 2.95 -22.65 3.45 -23.35 4.2 -23.35 4.95 -23.35 5.5 -22.65 6.0 -21.95 6.0 -21.0 M24.5 -22.1 Q24.25 -22.1 24.1 -21.9 L23.9 -21.5 24.1 -21.05 Q24.25 -20.9 24.5 -20.9 L24.95 -21.05 25.1 -21.5 24.95 -21.9 24.5 -22.1 M-13.5 -26.9 L-13.7 -26.45 -13.5 -26.0 -13.05 -25.8 -12.6 -26.0 -12.4 -26.45 -12.6 -26.9 -13.05 -27.1 -13.5 -26.9 M-3.05 -32.25 L-2.85 -31.8 -2.35 -31.6 Q-2.05 -31.6 -1.85 -31.8 L-1.65 -32.25 -1.85 -32.7 -2.35 -32.9 -2.85 -32.7 -3.05 -32.25 M-5.55 -26.05 Q-6.1 -26.6 -6.1 -27.35 -6.1 -28.1 -5.55 -28.6 -5.05 -29.15 -4.35 -29.15 -3.65 -29.15 -3.1 -28.6 -2.6 -28.1 -2.6 -27.35 -2.6 -26.6 -3.1 -26.05 -3.65 -25.55 -4.35 -25.55 -5.05 -25.55 -5.55 -26.05 M-23.1 -8.2 L-22.95 -7.8 -22.6 -7.65 Q-22.4 -7.65 -22.25 -7.8 -22.1 -7.95 -22.1 -8.2 -22.1 -8.45 -22.25 -8.6 L-22.6 -8.75 -22.95 -8.6 -23.1 -8.2 M-11.25 -21.4 L-11.05 -20.7 -11.25 -20.0 -11.8 -19.7 Q-12.1 -19.7 -12.3 -20.0 L-12.55 -20.7 -12.3 -21.4 -11.8 -21.7 -11.25 -21.4 M-7.55 -18.25 Q-7.25 -17.85 -7.25 -17.25 -7.25 -16.65 -7.55 -16.2 -7.9 -15.8 -8.4 -15.8 -8.9 -15.8 -9.2 -16.2 -9.55 -16.65 -9.55 -17.25 -9.55 -17.85 -9.2 -18.25 -8.9 -18.7 -8.4 -18.7 -7.9 -18.7 -7.55 -18.25 M-5.65 -21.0 L-5.9 -19.05 Q-6.4 -19.15 -7.8 -20.75 L-7.15 -21.65 -6.2 -21.3 -5.65 -21.0 M-2.1 -19.5 L-0.65 -20.6 -0.25 -19.0 Q-2.0 -18.9 -2.1 -19.5 M-18.15 -16.1 L-18.55 -15.85 -18.7 -15.3 -18.55 -14.7 Q-18.4 -14.5 -18.15 -14.5 -17.9 -14.5 -17.75 -14.7 -17.6 -14.95 -17.6 -15.3 -17.6 -15.65 -17.75 -15.85 L-18.15 -16.1 M-17.4 -11.85 L-17.65 -11.1 -17.4 -10.3 Q-17.2 -10.0 -16.85 -10.0 -16.5 -10.0 -16.25 -10.3 L-16.05 -11.1 -16.25 -11.85 -16.85 -12.2 Q-17.2 -12.2 -17.4 -11.85 M-19.75 -11.05 L-19.95 -10.6 -19.75 -10.15 -19.3 -9.95 Q-19.05 -9.95 -18.85 -10.15 L-18.65 -10.6 -18.85 -11.05 Q-19.05 -11.25 -19.3 -11.25 L-19.75 -11.05 M-18.6 -8.05 Q-19.0 -8.05 -19.25 -7.65 L-19.55 -6.75 -19.25 -5.8 Q-19.0 -5.45 -18.6 -5.45 -18.2 -5.45 -17.9 -5.8 -17.65 -6.2 -17.65 -6.75 -17.65 -7.3 -17.9 -7.65 -18.2 -8.05 -18.6 -8.05" fill="#201b15" fill-rule="evenodd" stroke="none"/>
    <path d="M-23.8 -0.8 L-16.6 -2.15 -7.65 -2.4 -4.0 -1.8 Q2.7 -0.75 7.4 0.7 L11.65 2.1 14.6 3.1 Q16.3 3.1 17.5 4.0 18.65 4.85 18.65 6.1 L15.6 4.6 Q13.2 3.5 9.55 2.3 L-3.0 -0.65 -9.4 -1.6 -11.3 -1.5 -12.45 -1.4 -17.5 -1.05 -21.9 -0.1 -26.15 1.1 Q-29.1 2.7 -30.4 5.15 -31.2 6.7 -31.75 9.8 -34.55 17.95 -34.55 19.25 L-33.35 21.7 -31.35 24.6 -30.3 17.6 Q-28.9 17.25 -26.1 15.85 L-24.75 15.6 -20.25 15.35 -17.65 15.25 -16.65 15.25 Q-12.6 15.05 -10.2 15.25 -6.05 15.6 -0.6 17.9 L3.85 19.25 10.05 21.25 Q13.65 22.65 16.6 24.0 L21.85 26.7 Q22.45 27.35 23.95 31.6 L22.65 35.05 20.3 40.35 20.25 40.4 18.2 45.95 Q17.0 48.4 14.8 55.75 L13.25 60.7 10.7 70.0 16.0 70.1 17.4 70.25 19.85 70.75 19.2 74.0 16.15 88.35 Q14.2 97.25 14.55 97.65 L20.25 95.85 24.75 94.65 29.3 95.3 35.05 96.35 35.9 77.65 36.0 74.45 36.15 63.25 36.15 58.5 36.35 47.85 Q36.45 41.25 35.85 41.25 35.25 41.25 35.3 40.05 L35.4 37.6 39.6 41.6 46.1 48.25 49.45 44.15 Q51.9 40.95 51.9 40.35 L51.25 36.75 Q50.15 32.85 47.85 30.65 50.3 31.65 51.7 34.9 52.75 37.4 52.75 39.4 L52.3 41.75 Q51.8 43.65 51.4 43.65 L49.4 45.9 46.55 49.15 45.85 49.25 Q45.15 49.0 42.35 45.7 39.25 42.0 36.7 40.35 L36.85 44.4 37.1 58.95 37.1 59.0 Q36.8 86.9 36.3 93.95 L35.85 97.3 35.3 97.35 24.8 95.65 14.75 98.7 Q14.15 98.7 13.75 98.05 L13.25 97.05 18.7 71.55 Q17.2 72.25 17.2 71.25 L13.5 70.95 Q9.75 70.85 9.75 69.75 9.75 65.55 15.9 51.1 22.35 35.9 22.9 31.55 L22.6 29.95 Q22.6 28.2 21.2 27.0 19.8 25.75 17.8 25.75 L16.15 24.9 Q8.9 21.55 1.05 19.3 -9.55 16.2 -18.15 16.2 L-21.75 16.05 Q-24.6 16.0 -24.6 16.6 -24.6 17.6 -26.35 17.1 -28.1 17.75 -29.45 18.5 -30.35 23.8 -30.75 25.1 L-31.35 25.6 Q-32.3 25.6 -33.7 23.5 -35.25 21.2 -35.25 18.95 -34.55 12.55 -33.4 12.55 -32.9 9.7 -31.5 6.6 -28.75 0.4 -23.8 -0.8" fill="#0c2e3f" fill-rule="evenodd" stroke="none"/>
    <path d="M32.9 24.8 L34.65 25.05 Q32.75 26.9 32.3 28.05 32.05 28.6 31.95 29.2 L31.85 29.35 31.9 28.8 32.9 24.8 M35.7 25.4 L37.65 25.95 37.6 27.35 Q37.7 28.65 38.3 28.65 38.85 28.65 38.8 29.4 38.6 31.05 38.7 32.05 L38.7 32.35 Q38.6 33.7 37.5 34.7 36.4 35.75 34.8 35.8 37.6 35.6 37.6 30.4 L37.25 28.7 35.7 25.4 M45.75 36.6 L47.4 36.65 47.45 37.15 45.75 36.6 M46.9 44.75 L49.05 41.3 Q49.55 40.25 49.55 39.2 L49.2 37.2 49.9 38.6 50.25 40.35 Q50.25 41.4 49.75 42.4 48.9 44.0 46.9 44.75 M48.25 39.15 L48.5 39.85 48.25 40.55 47.55 40.85 Q47.15 40.85 46.9 40.55 46.6 40.25 46.6 39.85 46.6 39.45 46.9 39.15 47.15 38.85 47.55 38.85 47.95 38.85 48.25 39.15 M43.55 38.6 L43.55 38.5 43.5 38.3 43.6 37.45 44.2 37.05 Q44.25 37.75 44.85 39.35 45.45 40.95 45.45 41.65 L45.4 41.7 44.6 40.75 Q43.85 39.8 43.55 38.6 M45.5 44.85 Q44.5 44.85 43.8 44.25 43.1 43.6 43.1 42.75 L45.5 44.85 M20.95 14.25 L20.85 14.45 Q20.35 14.9 19.75 14.75 L19.75 14.5 20.3 14.25 20.35 14.05 20.95 14.25 M23.15 50.15 L24.35 48.2 23.15 58.7 22.6 54.1 22.6 53.45 22.85 52.45 23.05 51.15 22.8 51.3 22.9 50.85 23.1 50.5 23.15 50.15 M28.9 48.55 L29.05 48.7 28.8 50.65 28.9 48.55 M31.4 37.45 L31.7 37.25 Q32.2 37.2 31.85 37.8 L31.55 38.45 31.75 38.45 Q32.1 38.4 32.3 38.15 L32.0 37.15 Q32.9 37.05 33.65 37.45 L33.5 37.45 33.1 37.55 32.95 38.0 Q32.2 38.95 31.25 38.7 L31.4 37.45 M34.75 59.0 L36.15 58.5 36.15 63.25 34.75 63.75 34.75 59.0 M36.0 74.45 L35.9 77.65 34.5 80.1 34.65 74.65 36.0 74.45 M16.15 88.35 L19.2 74.0 20.95 72.55 19.45 80.2 Q18.7 82.35 18.8 83.2 L17.25 89.95 16.15 88.35 M17.4 70.25 L16.0 70.1 15.95 69.2 17.95 69.4 17.4 70.25 M13.25 60.7 L14.8 55.75 15.8 56.65 14.25 61.5 Q13.7 60.85 13.25 60.7 M14.5 6.05 L14.5 6.1 12.35 7.5 11.35 8.2 10.55 8.7 9.85 8.35 9.8 8.35 10.7 7.9 11.1 7.6 11.15 7.55 14.15 5.85 8.8 3.95 9.55 2.3 Q13.2 3.5 15.6 4.6 L14.5 6.05 M17.5 12.45 L17.2 14.1 16.4 14.8 15.75 14.25 16.65 13.95 17.0 13.2 Q17.0 12.75 16.65 12.45 16.25 12.15 15.75 12.2 L15.25 11.8 15.0 12.05 14.55 13.15 13.95 12.5 Q13.95 12.0 14.6 11.65 15.2 11.3 16.05 11.3 L17.5 12.45 M11.95 10.2 L11.5 9.6 13.0 9.3 13.55 10.85 13.3 11.05 Q13.1 10.1 11.95 10.2 M5.25 6.05 L5.55 6.05 5.4 7.4 4.2 7.35 3.8 7.15 3.85 6.3 5.2 6.05 5.25 6.05 M-2.5 7.55 L-3.2 7.4 -2.75 6.4 -0.95 7.9 -2.1 7.65 -2.5 7.55 M5.7 12.0 L6.25 12.0 6.25 12.1 Q6.25 12.9 5.45 13.5 4.65 14.05 3.5 14.05 L2.5 13.85 2.55 13.3 3.45 12.75 3.25 13.5 4.25 13.4 5.7 13.1 5.7 12.3 5.7 12.0 M8.65 14.35 L8.35 15.65 6.6 15.5 6.7 14.8 Q6.85 14.05 7.15 13.85 L7.25 14.15 7.3 15.0 Q7.6 15.0 7.85 14.55 L8.65 14.35 M10.05 21.25 L3.85 19.25 -0.6 17.9 -0.3 16.55 10.65 20.05 10.05 21.25 M-16.65 15.25 L-17.65 15.25 -17.7 13.95 -16.0 13.9 -16.65 15.25 M-24.75 15.6 L-26.1 15.85 -26.5 14.65 -24.9 14.3 -24.75 15.6 M-31.75 9.8 Q-31.2 6.7 -30.4 5.15 -29.1 2.7 -26.15 1.1 L-25.2 2.7 Q-27.55 4.0 -28.5 5.1 -30.05 6.85 -30.7 10.15 L-31.75 9.8 M-17.5 -1.05 L-12.45 -1.4 -12.9 -1.3 -14.8 -0.25 Q-16.15 0.5 -17.85 0.6 L-17.5 -1.05 M-11.3 -1.5 L-9.4 -1.6 -3.0 -0.65 Q-3.55 -0.1 -3.55 0.95 L-5.0 0.65 Q-9.0 -1.35 -11.3 -1.5 M34.95 30.9 Q35.0 32.35 35.2 31.1 L35.15 32.05 34.3 32.75 Q35.25 30.6 33.75 30.6 34.2 31.6 33.7 31.4 33.25 31.25 33.25 30.3 33.9 30.15 34.95 30.9 M26.05 46.9 L26.65 47.1 27.15 47.35 Q27.1 48.0 26.5 48.4 L26.0 48.1 26.05 46.9 M27.9 51.0 L27.85 51.25 27.7 51.55 27.5 51.35 27.9 51.0 M28.4 55.6 L29.65 56.15 28.4 56.15 28.4 55.6 M28.1 57.05 L29.0 57.75 28.75 58.0 28.1 57.95 27.65 57.5 28.1 57.05 M29.9 55.15 Q29.2 54.75 29.05 53.6 L30.0 53.2 30.45 53.25 31.15 53.4 31.0 54.15 Q30.7 53.85 30.0 53.65 L29.35 53.85 29.85 54.85 29.9 55.15 M25.5 51.3 L25.25 51.0 25.55 50.4 Q25.85 50.4 26.0 50.55 L26.15 50.9 25.95 51.2 25.5 51.3 M25.75 57.45 L26.2 57.7 26.6 60.1 26.35 60.25 25.95 59.3 25.75 57.45 M32.3 64.9 L32.5 65.25 32.25 65.55 32.2 65.45 32.3 64.9 M30.35 64.95 L30.35 64.9 31.2 66.2 30.1 65.3 30.35 64.95 M27.95 67.9 L28.3 67.55 29.65 68.0 Q27.25 69.9 26.5 69.65 L27.95 67.9 M26.45 72.7 L27.05 71.15 26.35 73.8 Q25.55 71.7 24.9 71.4 L23.7 72.4 22.9 72.2 22.9 72.05 23.2 71.2 23.9 70.8 23.55 71.65 24.95 70.5 Q26.2 71.9 26.45 72.7 M30.15 89.3 L31.1 88.7 31.75 88.75 31.65 89.2 31.05 88.95 30.95 89.45 31.35 89.85 30.85 90.7 30.75 90.8 30.0 91.5 29.8 91.5 30.15 89.3 M31.9 80.8 L31.65 79.15 31.15 77.65 Q31.15 77.15 30.6 76.8 L29.2 76.4 29.2 76.2 31.0 76.6 Q31.7 76.95 31.7 77.5 L31.95 78.4 31.9 78.55 Q32.85 81.05 32.85 82.25 L32.45 84.7 31.9 86.6 32.15 83.1 31.9 80.8 M24.7 73.75 L24.9 74.1 25.0 74.7 25.0 74.8 25.05 75.9 25.1 76.45 23.85 76.7 23.4 76.85 23.0 77.0 22.65 76.15 Q22.45 75.45 24.0 73.85 L24.7 73.75 M16.9 61.15 Q15.8 62.6 15.5 64.7 L15.4 63.05 16.0 61.65 17.35 59.7 17.8 59.2 17.9 59.15 18.1 59.45 17.65 59.95 16.9 61.15 M19.05 62.45 L19.35 62.55 19.45 63.05 18.95 62.9 Q18.1 63.5 18.5 64.5 L19.15 65.55 18.2 65.3 17.85 64.85 17.65 63.9 17.85 62.8 18.0 62.4 19.05 62.45 M15.7 66.75 L15.9 66.7 15.75 66.45 15.65 66.45 15.6 66.2 15.75 66.2 16.5 66.7 16.35 68.1 15.85 68.0 15.8 67.55 15.8 67.5 15.7 66.75 M24.6 74.5 L24.5 74.25 24.25 74.35 24.6 74.5 M24.6 75.1 L24.6 74.7 24.45 74.7 Q23.6 74.8 22.95 76.3 L24.6 75.1 M23.7 89.3 Q24.0 89.8 25.4 89.55 26.8 89.3 27.0 88.8 L27.55 88.4 Q27.45 89.6 27.15 90.1 26.65 90.8 25.4 90.8 L23.5 90.45 Q21.9 89.95 22.95 89.1 L23.7 89.3 M21.45 93.3 L27.4 92.95 25.65 93.55 24.3 93.75 22.5 93.55 21.45 93.3 M-7.3 2.4 L-7.0 2.75 -7.2 3.5 -7.3 3.25 -7.5 2.95 -8.0 2.05 -7.3 2.4 M-4.7 4.7 L-2.75 3.9 -1.95 3.65 -1.55 4.1 -2.0 4.25 -3.65 5.15 -5.25 5.9 -5.45 5.95 -6.15 5.15 -4.7 4.7 M-8.5 1.95 L-8.75 2.55 -9.6 2.5 Q-10.7 2.5 -10.9 3.35 L-11.1 3.95 -9.6 3.9 -10.2 4.45 -11.6 4.1 -11.4 3.35 Q-10.25 2.2 -8.5 1.95 M-14.45 5.35 L-14.55 5.2 Q-15.25 4.45 -17.35 4.2 L-17.35 4.15 -17.75 3.4 -17.55 3.5 -16.15 3.45 -15.85 3.45 Q-14.5 3.6 -13.4 5.2 L-13.15 5.2 -13.7 5.45 -13.75 5.45 -14.45 5.35 M-20.1 8.1 L-20.05 8.1 -20.1 8.15 -20.9 8.4 -21.85 8.5 -21.2 8.1 -20.1 8.1 M-22.05 9.3 L-21.85 9.25 -22.05 9.65 -23.05 10.45 -23.8 10.1 -22.4 9.55 -22.05 9.3 M-18.1 12.2 L-18.6 11.2 -16.4 10.65 -16.0 11.55 -18.1 12.2 M-23.35 11.2 L-23.75 11.55 Q-24.45 11.2 -25.4 11.0 L-25.8 11.05 -25.5 10.6 -24.0 10.75 -23.35 11.2 M-29.3 9.9 Q-28.6 9.45 -29.3 8.9 L-29.1 8.65 -28.85 8.7 -28.55 9.45 -29.3 9.9 M-26.85 8.0 L-26.75 6.15 -28.25 6.1 -28.3 7.25 -27.65 7.75 -28.55 7.75 -28.8 6.75 Q-28.6 6.15 -28.0 5.5 L-26.2 5.95 -25.4 6.0 -26.85 8.0 M-25.6 4.4 L-25.0 3.35 -24.95 4.25 -25.6 4.4" fill="#af3886" fill-rule="evenodd" stroke="none"/>
    <path d="M26.65 21.75 L28.0 22.35 Q27.2 23.15 26.5 24.9 25.85 26.6 25.85 27.7 25.85 31.35 28.1 33.55 29.75 35.1 30.65 35.0 L31.25 33.3 31.2 33.3 31.85 33.25 Q32.3 33.25 33.05 34.5 33.8 35.75 34.6 35.8 L34.8 35.8 Q36.4 35.75 37.5 34.7 38.6 33.7 38.7 32.35 L38.65 33.3 Q38.65 34.3 40.45 34.2 L42.8 29.5 44.3 29.5 44.2 29.75 43.7 31.85 43.05 33.25 42.85 33.65 42.8 33.6 Q42.4 33.5 41.75 35.3 L40.25 36.5 Q38.3 39.25 39.3 40.0 L40.8 40.15 Q41.4 40.15 42.05 41.2 L43.1 42.75 Q43.1 43.6 43.8 44.25 44.5 44.85 45.5 44.85 L46.35 45.6 46.9 44.75 Q48.9 44.0 49.75 42.4 50.25 41.4 50.25 40.35 L49.9 38.6 49.2 37.2 47.15 33.45 44.75 29.45 Q45.65 29.25 46.0 28.55 L47.85 30.65 Q50.15 32.85 51.25 36.75 L51.9 40.35 Q51.9 40.95 49.45 44.15 L46.1 48.25 39.6 41.6 35.4 37.6 35.3 40.05 Q35.25 41.25 35.85 41.25 36.45 41.25 36.35 47.85 L36.15 58.5 34.75 59.0 34.75 49.05 Q35.2 47.8 34.75 46.5 L34.75 41.1 34.65 38.7 34.55 37.55 33.65 37.45 Q32.9 37.05 32.0 37.15 L31.7 37.25 31.4 37.45 31.5 37.3 31.6 37.05 30.35 36.7 Q29.5 40.45 29.35 42.5 L29.05 48.7 28.9 48.55 29.05 43.4 28.55 44.95 Q28.35 42.65 27.4 41.35 L25.95 38.8 Q25.95 37.25 26.3 36.35 26.3 38.95 27.25 40.65 29.1 42.3 29.1 42.85 L29.15 42.65 29.2 38.7 28.9 37.05 Q28.4 35.9 26.8 35.0 L26.7 34.9 25.95 34.4 Q24.75 41.9 24.35 48.2 L23.15 50.15 23.25 49.05 22.65 49.2 Q21.4 48.85 21.35 48.35 L21.85 48.4 22.7 48.85 23.35 48.85 23.7 45.6 23.75 44.9 23.7 44.25 23.8 43.65 23.95 42.15 23.85 42.3 23.8 42.35 23.7 41.9 23.75 41.85 23.65 41.65 23.5 41.35 24.35 39.05 24.45 38.25 24.6 36.1 24.7 33.55 Q24.7 33.1 24.35 32.6 L21.6 39.9 21.0 39.95 Q20.45 40.05 20.3 40.35 L22.65 35.05 23.95 31.6 Q22.45 27.35 21.85 26.7 L22.8 26.1 23.7 26.75 24.3 25.35 26.0 22.45 26.65 21.75 M45.35 31.7 Q45.6 31.7 45.6 32.2 L45.6 32.3 45.55 33.15 45.35 33.65 44.8 33.5 44.45 33.05 44.65 32.5 44.5 32.15 Q44.5 31.95 45.05 31.85 L45.35 31.7 M43.6 37.45 L43.65 36.6 43.6 35.35 43.95 35.75 44.2 37.05 43.6 37.45 M45.75 36.6 L45.85 35.45 46.7 35.5 46.4 36.1 46.9 36.5 47.2 35.9 47.35 35.8 47.4 36.65 45.75 36.6 M41.0 36.95 L40.6 36.85 40.45 36.6 40.85 36.4 41.85 36.2 41.0 36.95 M35.9 77.65 L35.05 96.35 29.3 95.3 24.75 94.65 20.25 95.85 14.55 97.65 Q14.2 97.25 16.15 88.35 L17.25 89.95 15.95 95.25 Q18.7 94.1 21.45 93.3 L22.5 93.55 24.3 93.75 25.65 93.55 27.4 92.95 33.95 94.5 34.5 80.1 35.9 77.65 M19.2 74.0 L19.85 70.75 17.4 70.25 17.95 69.4 20.0 69.75 20.25 68.6 20.3 68.45 18.85 67.2 Q18.85 66.85 19.35 65.85 20.1 66.2 19.7 66.45 L19.4 67.0 19.45 67.35 20.45 67.75 20.75 65.95 20.7 65.4 19.9 65.3 20.1 64.85 Q20.4 64.4 21.0 64.4 21.6 64.4 21.6 63.0 L21.75 60.0 22.6 54.1 23.15 58.7 20.95 72.55 19.2 74.0 M14.8 55.75 Q17.0 48.4 18.2 45.95 L18.45 46.9 19.05 47.3 15.8 56.65 14.8 55.75 M28.85 24.55 Q28.2 26.25 28.05 27.4 L28.1 27.4 Q28.25 28.3 29.3 30.1 L30.5 31.95 31.4 32.25 30.45 32.1 28.65 30.8 Q27.75 29.9 27.4 29.25 L27.7 24.65 28.85 24.55 M18.65 16.15 L18.75 17.95 18.25 17.9 17.15 17.75 17.15 17.1 18.2 16.8 Q18.6 16.5 18.6 16.1 L18.65 16.15 M31.15 23.6 L31.15 23.55 31.15 23.45 31.15 23.6 M9.85 8.35 L10.55 8.7 8.55 9.6 8.4 9.6 8.45 9.85 7.85 9.85 Q6.3 9.85 4.65 8.95 L6.25 9.25 7.75 9.15 8.6 9.0 9.85 8.35 M11.5 9.6 L11.95 10.2 11.85 11.1 11.95 11.5 12.1 12.55 11.7 12.2 Q11.6 11.95 11.05 11.9 L10.85 10.55 11.05 9.9 Q11.25 9.6 11.5 9.6 M15.75 14.25 L16.4 14.8 15.8 14.85 Q15.05 14.85 14.5 14.15 13.95 13.45 13.95 12.5 L14.55 13.15 15.05 14.15 15.7 14.25 15.75 14.25 M0.4 10.95 L0.1 11.9 0.2 13.85 -0.45 13.35 Q-1.9 10.7 -4.85 9.2 L-4.3 8.9 -3.6 8.2 -3.3 7.6 -3.2 7.4 -2.5 7.55 -2.65 7.85 -3.35 9.4 -2.0 10.05 -0.3 10.6 Q0.7 10.6 0.7 9.65 L1.1 9.5 1.9 8.8 Q1.85 9.4 1.6 9.6 L0.95 10.25 0.4 10.95 M2.55 13.3 L2.9 12.3 3.0 12.2 Q4.6 10.85 5.25 10.85 5.9 10.85 6.05 11.2 L6.25 12.0 5.7 12.0 Q5.9 11.55 4.9 11.55 4.25 11.55 4.05 11.85 L3.7 12.4 3.5 12.6 3.45 12.75 2.55 13.3 M14.4 16.15 L14.6 16.2 13.95 17.05 12.75 16.7 11.65 16.1 11.95 15.45 Q12.4 15.8 13.15 16.05 L14.4 16.15 M-0.95 7.9 L-0.05 9.0 Q-1.55 8.7 -1.85 8.1 L-2.1 7.65 -0.95 7.9 M-0.6 17.9 Q-6.05 15.6 -10.2 15.25 -12.6 15.05 -16.65 15.25 L-16.0 13.9 -7.95 14.8 -0.3 16.55 -0.6 17.9 M-26.1 15.85 Q-28.9 17.25 -30.3 17.6 L-31.35 24.6 -33.35 21.7 -34.55 19.25 Q-34.55 17.95 -31.75 9.8 L-30.7 10.15 -31.65 14.0 -32.65 18.7 -32.2 20.55 -31.6 21.35 -31.65 18.65 Q-31.65 16.4 -29.9 15.55 L-26.5 14.65 -26.1 15.85 M-26.15 1.1 L-21.9 -0.1 -17.5 -1.05 -17.85 0.6 -18.85 0.75 -22.0 1.65 -25.2 2.7 -26.15 1.1 M12.6 13.45 L12.65 14.2 11.6 14.55 Q11.35 14.55 11.4 14.35 L12.0 13.75 Q11.5 13.25 11.95 13.2 12.4 13.15 12.6 13.45 M17.85 21.1 L18.05 20.65 18.5 20.45 17.85 21.1 M16.8 22.7 L16.6 24.0 Q13.65 22.65 10.05 21.25 L10.65 20.05 Q12.85 20.8 16.8 22.7 M23.35 39.0 Q23.4 39.3 23.6 39.15 L23.8 39.05 23.75 39.4 23.3 39.25 23.35 39.0 M23.05 46.1 L23.2 46.3 23.1 46.7 22.3 47.05 22.7 46.6 22.75 46.55 23.05 46.1 M26.1 46.65 L26.3 46.3 Q26.4 46.15 26.55 46.15 L26.65 46.1 26.95 46.35 27.15 46.9 27.15 47.35 26.65 47.1 26.05 46.9 26.1 46.65 M31.7 50.25 L32.6 50.25 32.7 50.4 Q33.05 50.9 32.95 51.95 L32.5 52.05 32.4 50.6 32.3 50.7 Q32.05 50.9 32.3 50.65 L31.95 51.0 Q31.9 51.45 32.0 51.6 L31.7 51.55 31.6 51.3 31.7 50.25 M33.5 54.75 Q33.95 55.8 33.7 57.2 L32.85 57.4 Q33.5 56.0 32.8 54.85 L33.5 54.75 M33.75 58.0 L34.05 59.15 33.75 59.45 32.4 59.5 32.4 58.95 33.3 58.8 33.75 58.0 M31.45 53.5 Q31.65 55.15 31.25 54.8 L31.0 54.2 31.0 54.15 31.15 53.4 31.45 53.5 M31.2 56.95 L32.15 57.0 32.3 58.05 32.3 58.15 Q31.35 58.8 30.8 58.0 L30.9 57.25 31.2 56.95 M29.4 59.8 L30.4 61.1 Q30.9 61.25 31.5 60.6 L32.0 60.0 32.1 60.4 31.75 61.4 30.3 61.7 29.2 60.8 29.4 59.8 M31.3 57.95 L31.4 57.95 31.65 57.45 31.3 57.95 M22.9 50.85 L22.8 51.3 22.2 51.55 20.8 52.0 22.3 51.05 22.9 50.85 M23.5 67.8 L22.75 66.35 23.75 66.05 Q24.5 66.05 25.6 63.4 26.8 65.85 26.65 65.95 L28.3 67.55 27.95 67.9 26.6 67.35 26.25 66.2 25.75 64.25 25.4 65.3 24.85 67.15 23.6 66.95 23.6 67.05 24.35 68.0 24.45 68.55 Q24.45 69.4 23.9 70.8 L23.2 71.2 24.1 68.45 23.5 67.8 M24.15 63.15 L24.25 62.4 24.9 63.5 24.15 63.15 M20.3 58.7 L20.25 58.95 Q19.0 58.95 18.2 59.35 L18.1 59.45 17.9 59.15 18.8 58.85 20.3 58.7 M29.0 57.75 Q29.3 58.0 28.9 58.0 L29.0 57.9 28.75 58.0 29.0 57.75 M28.5 63.0 L28.9 63.25 30.0 64.4 30.35 64.95 30.1 65.3 28.75 63.7 28.55 63.5 26.75 61.3 26.3 60.3 26.35 60.25 26.6 60.1 26.8 60.85 26.75 60.95 28.5 63.0 M20.1 51.4 L19.9 51.95 19.55 51.4 20.15 50.95 20.1 51.4 M18.35 56.6 L17.85 56.35 17.65 55.2 18.8 55.35 Q19.45 55.45 19.65 55.7 L19.7 56.2 19.1 56.55 18.35 56.6 M19.35 62.55 L19.95 62.8 20.7 63.4 19.45 63.05 19.35 62.55 M32.6 89.35 L32.6 91.65 30.0 91.5 30.75 90.8 32.0 91.15 Q32.35 90.0 31.65 89.2 L31.75 88.75 32.6 89.35 M30.85 90.7 L31.35 89.85 32.0 90.45 30.85 90.7 M-8.75 2.55 L-8.5 1.95 -8.0 2.05 -7.5 2.95 -8.0 2.8 -8.75 2.55 M-10.2 4.45 L-9.6 3.9 -8.45 3.8 Q-7.65 3.75 -7.3 3.25 L-7.2 3.5 -7.3 3.9 -8.3 4.25 -10.2 4.45 M-6.15 5.15 L-5.45 5.95 -7.3 6.35 -9.5 6.3 -9.25 5.9 Q-8.7 5.5 -7.4 5.35 L-6.15 5.15 M-14.45 5.35 L-13.75 5.45 -14.1 5.55 -14.45 5.35 M-17.75 3.4 L-17.35 4.15 -18.25 3.65 -18.95 2.55 -17.75 3.4 M-19.95 6.65 L-20.1 8.1 -21.2 8.1 -20.7 7.3 -20.7 6.8 -20.7 6.05 -21.5 5.5 -22.15 4.7 -22.95 4.85 -23.65 5.3 -23.65 4.95 -23.65 4.25 Q-23.75 3.8 -24.0 3.6 L-24.5 3.5 -24.95 4.25 -25.0 3.35 -24.15 3.25 Q-23.15 3.9 -21.55 4.55 -21.0 4.85 -20.35 5.7 L-19.95 6.65 M-13.85 8.4 L-12.85 7.85 -11.7 7.6 -10.9 7.75 -10.7 8.15 Q-11.4 8.05 -13.55 9.65 L-16.0 11.55 -16.4 10.65 Q-15.65 10.45 -15.15 9.65 L-13.85 8.4 M-25.5 10.6 L-25.8 11.05 -26.65 11.25 -25.5 10.6 M-12.35 10.55 L-11.7 10.65 -10.85 11.1 -12.45 11.0 -12.35 10.55 M-29.4 9.95 L-29.3 9.9 -28.55 9.45 -28.9 10.15 -27.45 10.05 -26.8 10.05 Q-27.15 10.5 -28.95 10.75 L-29.45 10.55 -29.4 9.95 M-26.9 8.0 L-26.85 8.0 -25.4 6.0 -23.0 5.85 -22.8 7.0 -22.8 7.05 Q-22.8 7.6 -23.4 8.7 L-23.45 8.7 -24.5 9.45 -26.1 9.3 Q-26.8 9.1 -26.95 8.8 L-26.9 8.0 M-26.05 8.25 L-26.05 9.0 Q-24.45 9.0 -23.8 8.2 L-23.4 7.2 -23.55 6.3 -24.85 6.55 Q-25.25 6.75 -26.05 8.25 M-25.6 10.6 L-26.75 11.3 Q-28.05 11.55 -27.45 11.15 -26.75 10.65 -25.85 10.65 L-25.6 10.6" fill="#175071" fill-rule="evenodd" stroke="none"/>
    <path d="M18.65 6.1 L18.95 8.05 Q14.55 6.0 14.5 6.05 L15.6 4.6 18.65 6.1 M21.0 12.75 L20.95 14.25 20.35 14.05 Q20.45 13.35 19.6 12.35 L20.65 12.6 21.0 12.75 M22.05 20.3 L22.55 20.4 22.55 20.45 22.05 20.3 M22.8 26.1 L21.85 26.7 16.6 24.0 16.8 22.7 18.9 23.8 22.8 26.1 M20.3 40.35 Q20.45 40.05 21.0 39.95 L21.6 39.9 19.05 47.3 18.45 46.9 18.2 45.95 20.25 40.4 20.3 40.35 M23.5 41.35 L23.65 41.65 23.4 41.55 Q23.2 41.55 23.1 41.85 22.95 42.1 22.95 42.45 L22.55 42.35 Q22.65 41.65 23.25 41.3 L23.5 41.35 M23.8 43.65 L23.7 44.25 23.5 44.55 23.65 43.65 23.8 43.65 M34.75 46.5 Q35.2 47.8 34.75 49.05 L34.75 46.5 M36.15 63.25 L36.0 74.45 34.65 74.65 34.75 63.75 36.15 63.25 M16.0 70.1 L10.7 70.0 13.25 60.7 Q13.7 60.85 14.25 61.5 L12.0 69.15 15.95 69.2 16.0 70.1 M17.05 9.2 L17.25 9.25 17.6 9.6 Q17.8 10.15 17.6 11.0 L17.55 10.95 17.4 9.8 15.4 9.9 Q16.1 9.3 17.05 9.2 M16.05 11.3 L16.15 11.3 17.5 12.45 16.05 11.3 M9.55 2.3 L8.8 3.95 2.7 2.1 -3.55 0.95 Q-3.55 -0.1 -3.0 -0.65 L9.55 2.3 M2.4 2.55 L3.45 3.05 2.75 2.85 Q2.5 2.6 1.95 3.15 L0.05 3.5 -1.55 4.1 -1.95 3.65 -1.05 3.3 Q0.75 2.45 2.4 2.55 M5.2 6.05 L3.85 6.3 3.85 6.0 5.2 6.05 M-17.65 15.25 L-20.25 15.35 -24.75 15.6 -24.9 14.3 -17.7 13.95 -17.65 15.25 M18.5 20.45 L19.2 20.8 19.3 21.5 19.25 22.1 18.2 21.8 18.0 21.65 17.85 21.1 18.5 20.45 M20.05 47.1 L19.6 46.95 19.45 46.65 19.65 46.4 20.05 46.25 20.4 46.2 20.55 46.75 21.45 47.0 21.3 47.4 20.05 47.1 M20.65 45.7 Q20.75 44.9 21.45 44.0 L21.95 44.25 Q21.0 45.25 21.35 45.95 L20.65 45.7 M23.05 46.05 L23.05 46.1 22.75 46.55 22.4 46.25 22.45 46.4 22.7 46.6 22.3 47.05 21.7 46.55 22.2 45.8 23.0 46.0 23.05 46.05 M28.4 56.15 L28.1 57.05 27.65 57.5 27.55 56.75 27.85 55.7 28.05 55.45 28.4 55.6 28.4 56.15 M33.35 47.5 L33.2 47.4 33.15 47.65 Q32.95 47.6 33.15 47.35 L33.35 47.1 33.35 47.5 M27.5 51.35 L27.7 51.55 27.15 52.55 Q26.45 54.45 26.3 55.2 L26.1 56.95 26.2 57.7 25.75 57.45 Q25.8 54.75 26.4 53.25 L27.5 51.35 M30.2 83.8 Q30.3 84.85 29.5 86.0 L28.9 86.75 27.65 86.75 28.85 85.3 28.95 82.9 26.9 83.05 27.3 82.35 29.0 82.1 Q29.5 82.1 29.85 82.6 30.2 83.1 30.2 83.8 M32.5 65.25 L32.8 65.75 32.2 66.3 32.25 65.55 32.5 65.25 M32.65 72.5 L32.0 72.4 Q32.0 72.95 32.65 72.5 M31.95 73.6 L30.85 73.35 Q30.95 72.4 32.05 71.7 L33.3 71.75 Q32.7 73.45 31.95 73.6 M15.7 66.75 L15.8 67.5 14.55 67.05 15.7 66.75 M15.8 67.55 L15.85 68.0 13.85 67.6 14.35 66.3 14.7 66.2 15.6 66.2 15.65 66.45 Q14.85 66.45 14.55 66.85 L14.4 67.5 15.8 67.55 M19.45 80.2 L19.45 80.15 18.8 83.2 Q18.7 82.35 19.45 80.2 M19.75 85.0 L20.05 84.2 Q21.1 83.4 21.9 83.1 L22.45 82.95 23.3 83.05 23.25 83.4 Q22.6 83.45 21.4 84.15 L20.45 85.15 Q20.65 85.45 21.0 85.45 L22.95 85.7 23.65 85.95 23.8 86.3 23.45 86.6 22.8 86.7 21.05 86.2 Q20.25 86.0 19.95 85.5 L19.75 85.0 M22.95 89.1 L23.0 88.6 23.25 87.75 23.8 87.9 23.6 88.65 23.7 89.3 22.95 89.1 M25.1 76.45 L24.45 76.65 23.8 76.75 23.85 76.7 25.1 76.45 M24.15 78.55 L26.15 78.8 26.65 81.25 26.55 82.95 Q26.1 82.95 26.15 79.8 25.9 79.5 24.95 79.45 L24.0 79.45 Q23.25 80.2 23.6 81.6 L23.55 81.85 23.1 81.35 Q22.95 81.15 22.95 80.5 22.95 79.85 23.3 79.35 23.5 79.1 24.15 78.55 M26.1 84.45 L27.0 84.25 27.0 86.1 26.25 86.05 25.2 85.75 Q25.1 86.1 25.1 85.1 25.1 84.45 25.3 84.4 L25.5 84.4 26.25 85.15 26.05 84.5 26.1 84.45 M27.0 88.8 Q27.2 88.2 26.8 87.7 L26.5 87.3 27.4 87.2 27.55 88.4 27.0 88.8 M-18.6 11.2 L-18.1 12.2 -18.55 12.35 -19.75 12.45 -22.05 12.05 -23.75 11.55 -23.35 11.2 -20.35 11.35 -18.6 11.2" fill="#b47a10" fill-rule="evenodd" stroke="none"/>
    <path d="M24.05 15.55 Q25.0 16.0 25.0 16.1 L21.45 16.75 20.6 15.95 Q19.9 15.25 19.75 14.75 20.35 14.9 20.85 14.45 L24.05 15.55 M38.45 26.05 L38.55 26.05 38.8 27.65 Q38.45 26.95 38.45 26.05 M43.45 38.3 L43.55 38.5 43.55 38.6 42.85 38.75 42.95 38.45 43.45 38.3 M31.7 37.25 L32.0 37.15 32.3 38.15 Q32.1 38.4 31.75 38.45 L31.55 38.45 31.85 37.8 Q32.2 37.2 31.7 37.25 M14.5 6.1 Q14.2 6.95 14.15 7.85 L12.35 7.5 14.5 6.1 M8.8 3.95 L14.15 5.85 11.15 7.55 11.1 7.6 10.8 7.65 Q10.35 7.8 10.7 7.9 L9.8 8.35 8.6 8.3 7.75 6.8 6.8 5.4 8.8 3.95 M10.55 8.7 L11.35 8.2 14.8 9.75 16.05 11.3 Q15.2 11.3 14.6 11.65 13.95 12.0 13.95 12.5 L11.95 10.2 Q13.1 10.1 13.3 11.05 L13.55 10.85 13.0 9.3 11.5 9.6 10.55 8.7 M14.55 13.15 L15.0 12.05 15.25 11.8 15.75 12.2 15.7 14.25 14.55 13.15 M-1.55 4.1 L-1.05 4.65 -2.0 4.25 -1.55 4.1 M3.8 7.15 L4.2 7.35 6.15 8.5 0.4 8.15 Q0.3 7.05 0.65 5.75 L0.7 5.75 2.4 6.25 3.8 7.15 M6.5 12.0 Q7.2 12.2 8.45 13.3 L9.95 14.8 10.2 15.3 Q10.95 17.25 10.95 18.6 7.0 17.05 0.6 15.3 L3.5 14.05 Q4.65 14.05 5.45 13.5 6.25 12.9 6.25 12.1 L6.5 12.0 M5.7 12.3 L5.7 13.1 4.25 13.4 3.6 12.65 4.15 12.4 5.7 12.3 M8.65 14.35 L7.85 14.55 Q7.6 15.0 7.3 15.0 L7.25 14.15 7.15 13.85 Q6.85 14.05 6.7 14.8 L6.6 15.5 8.35 15.65 8.65 14.35 M-12.45 -1.4 L-11.3 -1.5 Q-9.0 -1.35 -5.0 0.65 -5.45 1.2 -7.3 2.4 L-8.0 2.05 -8.5 1.95 Q-10.25 2.2 -11.4 3.35 L-16.15 3.45 -17.55 3.5 -17.75 3.4 -17.85 0.6 Q-16.15 0.5 -14.8 -0.25 L-12.9 -1.3 -12.45 -1.4 M27.15 47.35 L27.75 47.7 27.9 51.0 27.5 51.35 Q27.3 51.2 26.7 51.35 L25.45 51.85 25.5 51.3 25.95 51.2 26.15 50.9 26.0 50.55 Q25.85 50.4 25.55 50.4 L25.6 47.35 25.85 47.0 26.05 46.9 26.0 48.1 26.5 48.4 Q27.1 48.0 27.15 47.35 M27.85 51.25 L27.9 51.8 27.7 51.55 27.85 51.25 M29.75 56.75 L29.9 55.15 30.35 55.8 29.75 56.75 M30.25 50.75 L30.3 50.1 30.5 50.35 30.25 50.75 M24.7 58.55 L24.95 56.65 25.75 57.45 25.95 59.3 26.25 60.3 25.85 60.5 25.3 59.3 24.7 58.55 M30.95 42.25 L31.25 38.7 Q32.2 38.95 32.95 38.0 L33.15 42.8 32.6 42.9 32.3 44.9 31.85 46.8 30.45 48.85 Q31.4 46.85 32.2 42.9 L30.95 42.25 M32.4 61.1 L33.75 59.6 33.8 64.25 32.5 65.25 32.3 64.9 32.4 61.1 M26.95 57.85 L27.65 57.5 28.1 57.95 28.15 58.65 26.85 59.9 26.95 57.85 M23.0 50.55 L23.15 50.15 23.1 50.5 23.0 50.55 M22.85 52.45 L22.6 53.45 22.65 52.5 22.85 52.45 M18.1 59.45 L19.2 62.0 19.05 62.45 18.0 62.4 17.85 62.8 17.65 63.9 17.85 64.85 18.2 65.3 Q18.2 65.9 17.7 66.3 17.2 66.7 16.5 66.7 L15.75 66.2 Q15.85 64.35 16.9 61.15 L17.65 59.95 18.1 59.45 M28.3 67.55 L30.1 65.3 31.2 66.2 30.35 64.9 30.7 64.35 32.2 65.45 32.25 65.55 30.95 67.65 29.8 66.8 29.2 76.2 29.2 76.4 29.2 77.9 31.15 77.65 31.65 79.15 31.9 80.8 Q31.85 85.15 31.1 88.7 L30.15 89.3 Q29.65 89.3 29.3 88.6 28.9 87.9 28.9 86.95 L29.5 86.0 Q30.3 84.85 30.2 83.8 L30.3 82.6 29.85 81.15 29.1 79.15 29.15 77.8 27.65 77.6 26.3 76.75 26.35 73.8 27.05 71.15 26.45 72.7 26.5 69.65 Q27.25 69.9 29.65 68.0 L28.3 67.55 M23.9 70.8 L25.0 70.2 24.95 70.5 23.55 71.65 23.9 70.8 M23.7 72.4 L24.9 71.4 24.7 73.75 24.0 73.85 23.7 72.4 M25.05 75.9 L25.5 76.4 25.1 76.45 25.05 75.9 M26.5 69.65 L26.55 69.15 27.95 67.9 26.5 69.65 M16.9 57.8 L17.65 58.75 17.55 58.95 17.1 58.65 16.9 57.8 M17.8 59.2 L17.35 59.7 17.55 58.95 17.8 59.2 M18.5 64.5 Q18.1 63.5 18.95 62.9 L18.5 64.5 M33.4 74.55 Q33.4 75.75 33.0 76.6 32.55 77.4 31.95 77.4 L31.95 74.2 33.4 74.55 M31.7 77.5 L31.95 77.4 31.95 78.4 31.7 77.5 M24.6 74.5 L24.25 74.35 24.5 74.25 24.6 74.5 M24.6 75.1 L24.45 74.7 24.6 74.7 24.6 75.1 M-2.75 3.9 L-4.2 2.9 -4.45 2.65 -2.5 2.9 -1.95 3.65 -2.75 3.9 M-10.9 3.35 Q-10.7 2.5 -9.6 2.5 L-8.75 2.55 -9.3 3.45 -9.4 3.5 -10.9 3.35 M-14.55 5.2 L-14.45 5.35 -14.85 5.25 -14.55 5.2 M-13.15 5.2 L-13.4 5.2 -12.95 5.1 -13.15 5.2 M-20.05 8.1 L-18.3 8.65 -17.9 8.85 -21.85 9.25 -22.05 9.3 -23.7 9.5 Q-22.6 8.9 -20.9 8.4 L-20.1 8.15 -20.05 8.1 M-16.0 11.55 L-15.8 12.75 -17.9 12.8 -18.1 12.2 -16.0 11.55 M-16.4 10.65 L-18.6 11.2 Q-18.95 10.9 -19.8 10.7 L-21.5 10.5 -17.05 9.7 -16.4 10.65 M-21.85 10.55 Q-22.6 10.8 -23.35 11.2 L-24.0 10.75 -21.85 10.55 M-25.4 11.0 Q-24.45 11.2 -23.75 11.55 L-24.8 13.4 -26.6 13.45 -25.85 11.15 -25.4 11.0 M-25.1 5.1 L-25.45 4.9 -25.6 4.4 -24.95 4.25 -25.1 5.1" fill="#d984bb" fill-rule="evenodd" stroke="none"/>
    <path d="M22.85 14.5 L24.05 15.55 20.85 14.45 20.95 14.25 22.85 14.5 M43.45 38.3 L42.95 38.45 43.3 37.8 43.5 38.3 43.45 38.3 M20.35 14.05 L20.3 14.25 19.75 14.5 19.75 14.75 Q19.9 15.25 20.6 15.95 L21.45 16.75 18.65 16.15 18.6 16.1 17.1 15.25 16.4 14.8 17.2 14.1 17.5 12.45 18.3 12.95 20.35 14.05 M11.1 7.6 L10.7 7.9 Q10.35 7.8 10.8 7.65 L11.1 7.6 M11.35 8.2 L12.35 7.5 14.15 7.85 14.8 9.7 14.8 9.75 11.35 8.2 M15.7 14.25 L15.75 12.2 Q16.25 12.15 16.65 12.45 17.0 12.75 17.0 13.2 L16.65 13.95 15.75 14.25 15.7 14.25 M-1.05 4.65 L-1.0 4.65 0.65 5.75 Q0.3 7.05 0.4 8.15 L-0.95 7.9 -2.75 6.4 -3.2 7.4 -5.45 5.95 -5.25 5.9 -2.95 6.1 -3.3 5.5 -3.65 5.15 -2.0 4.25 -1.05 4.65 M4.2 7.35 L5.4 7.4 5.55 6.05 5.25 6.05 6.8 5.4 7.75 6.8 8.6 8.3 6.15 8.5 4.2 7.35 M3.85 6.3 L3.8 7.15 2.4 6.25 3.85 6.3 M0.4 15.25 L2.55 13.3 2.5 13.85 3.5 14.05 0.6 15.3 0.4 15.25 M4.15 12.4 L5.7 12.0 5.7 12.3 4.15 12.4 M6.25 12.0 L6.5 12.0 6.25 12.1 6.25 12.0 M4.25 13.4 L3.25 13.5 3.45 12.75 3.6 12.65 4.25 13.4 M32.1 32.35 L32.05 31.7 Q32.05 30.1 34.2 27.95 34.75 28.35 34.9 30.45 L34.95 30.9 Q33.9 30.15 33.25 30.3 33.25 31.25 33.7 31.4 34.2 31.6 33.75 30.6 35.25 30.6 34.3 32.75 33.1 33.65 32.65 33.6 L32.45 33.5 Q32.15 33.2 32.1 32.35 M25.6 47.15 L25.85 47.0 25.6 47.35 25.6 47.15 M30.0 53.2 L30.2 50.75 30.25 50.75 30.5 50.35 31.0 51.9 31.15 53.4 30.45 53.25 30.0 53.2 M24.45 60.65 L24.65 58.45 24.7 58.55 25.3 59.3 25.85 60.5 24.85 60.65 24.45 60.65 M31.0 54.15 L31.0 54.2 30.35 55.8 29.9 55.15 29.85 54.85 30.0 53.65 Q30.7 53.85 31.0 54.15 M26.2 57.7 L26.95 57.85 26.85 59.9 26.6 60.1 26.2 57.7 M23.1 50.5 L22.9 50.85 23.0 50.55 23.1 50.5 M22.8 51.3 L23.05 51.15 22.85 52.45 22.65 52.5 22.8 51.3 M25.95 59.3 L26.35 60.25 26.25 60.3 25.95 59.3 M30.7 64.35 L32.4 61.1 32.3 64.9 32.2 65.45 30.7 64.35 M26.5 69.65 L26.45 72.7 Q26.2 71.9 24.95 70.5 L25.0 70.2 26.55 69.15 26.5 69.65 M26.35 73.8 L26.3 76.75 25.5 76.4 25.05 75.9 25.0 74.8 25.0 74.7 24.9 74.1 24.7 73.75 24.9 71.4 Q25.55 71.7 26.35 73.8 M27.65 77.6 L29.15 77.8 29.1 79.15 27.65 77.6 M28.9 86.95 Q28.9 87.9 29.3 88.6 29.65 89.3 30.15 89.3 L29.8 91.5 Q29.05 91.4 24.45 91.6 L19.1 91.95 18.2 91.1 Q17.85 89.15 19.45 85.8 20.6 87.9 22.95 89.1 21.9 89.95 23.5 90.45 L25.4 90.8 Q26.65 90.8 27.15 90.1 27.45 89.6 27.55 88.4 L28.9 86.95 M31.1 88.7 Q31.85 85.15 31.9 80.8 L32.15 83.1 31.9 86.6 32.45 84.7 32.85 82.25 Q32.85 81.05 31.9 78.55 L31.95 78.4 31.95 77.4 31.7 77.5 Q31.7 76.95 31.0 76.6 L29.2 76.2 29.8 66.8 30.95 67.65 Q30.25 69.55 30.25 71.25 30.25 72.7 30.7 73.35 31.05 73.85 31.95 74.2 L31.95 77.4 Q32.55 77.4 33.0 76.6 33.4 75.75 33.4 74.55 L33.6 74.6 33.2 83.05 33.2 83.1 Q32.2 86.5 31.75 88.75 L31.1 88.7 M31.15 77.65 L29.2 77.9 29.2 76.4 30.6 76.8 Q31.15 77.15 31.15 77.65 M18.85 67.2 L18.55 68.25 16.35 68.1 16.5 66.7 Q17.2 66.7 17.7 66.3 18.2 65.9 18.2 65.3 L19.15 65.55 18.5 64.5 18.95 62.9 19.45 63.05 19.35 65.85 Q18.85 66.85 18.85 67.2 M23.2 71.2 L22.9 72.05 22.95 71.3 23.2 71.2 M22.9 72.2 L23.7 72.4 24.0 73.85 Q22.45 75.45 22.65 76.15 L23.0 77.0 22.0 77.5 22.9 72.2 M16.55 57.4 L16.9 57.8 17.1 58.65 17.55 58.95 17.65 58.75 17.9 59.15 17.8 59.2 17.55 58.95 17.35 59.7 16.0 61.65 15.4 63.05 15.5 64.7 Q15.8 62.6 16.9 61.15 15.85 64.35 15.75 66.2 L15.6 66.2 14.95 63.45 16.55 57.4 M19.2 62.0 L19.35 62.55 19.05 62.45 19.2 62.0 M15.65 66.45 L15.75 66.45 15.9 66.7 15.7 66.75 15.65 66.45 M23.7 89.3 Q25.6 89.35 27.0 88.8 26.8 89.3 25.4 89.55 24.0 89.8 23.7 89.3 M24.45 74.7 L24.6 75.1 22.95 76.3 Q23.6 74.8 24.45 74.7 M23.85 76.7 L23.8 76.75 23.4 76.85 23.85 76.7 M31.35 89.85 L30.95 89.45 31.05 88.95 31.65 89.2 31.35 89.85 M-5.0 0.65 L-3.55 0.95 -2.5 2.9 -4.45 2.65 -4.2 2.9 -2.75 3.9 -4.7 4.7 -6.85 4.05 -7.2 3.5 -7.0 2.75 -7.3 2.4 Q-5.45 1.2 -5.0 0.65 M-9.35 3.55 L-9.4 3.5 -9.3 3.45 -9.35 3.55 M-13.7 5.45 L-13.15 5.2 -12.95 5.1 -10.75 4.85 -12.15 5.3 -13.7 5.45 M-20.05 8.1 L-20.1 8.15 -20.05 8.1 M-20.9 8.4 Q-22.6 8.9 -23.7 9.5 L-24.25 9.65 -24.7 9.7 -24.5 9.45 -23.45 8.7 -23.4 8.7 -21.2 8.1 -21.85 8.5 -20.9 8.4" fill="#e19fca" fill-rule="evenodd" stroke="none"/>
    <path d="M19.05 8.25 Q20.3 8.25 21.2 9.7 22.1 11.1 22.1 13.15 19.75 10.75 17.7 9.45 L19.05 8.25 M22.2 13.4 L22.85 14.5 20.95 14.25 21.0 12.75 22.2 13.4 M19.8 19.6 L21.7 20.85 Q23.4 21.95 24.3 22.05 24.5 24.05 23.85 25.05 L21.2 23.25 Q21.2 22.0 20.5 21.1 19.8 20.2 18.85 20.2 L19.8 19.6 M23.7 41.9 L23.8 42.35 23.8 42.4 23.9 42.4 23.9 42.55 23.85 42.65 23.7 42.75 22.8 43.45 22.95 42.45 Q22.95 42.1 23.1 41.85 23.2 41.55 23.4 41.55 L23.7 41.75 23.7 41.9 M14.15 7.85 L17.05 9.2 Q16.1 9.3 15.4 9.9 L17.4 9.8 15.4 9.9 14.8 9.7 14.15 7.85 M17.6 11.0 L20.65 12.6 19.6 12.35 Q20.45 13.35 20.35 14.05 L18.3 12.95 17.5 12.45 16.15 11.3 16.7 10.55 17.55 10.95 17.6 11.0 M2.7 2.1 L2.4 2.55 Q0.75 2.45 -1.05 3.3 L-2.5 2.9 -3.55 0.95 2.7 2.1 M1.95 3.15 Q1.45 3.9 0.05 3.5 L1.95 3.15 M-1.0 4.65 L-0.25 5.15 0.85 5.45 4.3 4.1 Q4.95 4.1 5.65 4.55 L6.8 5.4 5.25 6.05 5.2 6.05 3.85 6.0 3.85 6.3 2.4 6.25 0.8 5.5 0.7 5.75 0.65 5.75 -1.0 4.65 M20.4 46.2 L20.65 45.7 21.35 45.95 Q21.0 45.25 21.95 44.25 L21.45 44.0 21.55 43.7 22.65 43.5 22.2 45.8 21.7 46.55 22.3 47.05 21.3 47.5 21.3 47.4 21.45 47.0 21.7 46.55 20.55 46.75 20.4 46.2 M22.6 41.0 L22.8 40.5 23.3 41.0 23.5 41.35 23.25 41.3 22.6 41.0 M23.85 42.8 L23.8 43.65 23.65 43.65 23.85 42.8 M23.5 44.55 L23.7 44.25 23.35 45.4 23.35 45.45 23.5 44.55 M23.1 45.95 L23.05 46.05 23.0 46.0 23.1 45.95 M22.7 46.6 L22.45 46.4 22.4 46.25 22.75 46.55 22.7 46.6 M32.75 49.05 L32.65 46.6 33.35 46.2 33.35 47.1 33.15 47.35 Q32.95 47.6 33.15 47.65 L33.2 47.4 33.35 47.5 33.35 49.3 32.75 49.05 M27.15 52.55 L26.95 57.85 26.2 57.7 26.1 56.95 26.3 55.2 Q26.45 54.45 27.15 52.55 M33.8 66.5 L33.6 74.6 33.4 74.55 33.4 72.65 33.3 71.75 32.6 69.8 32.15 68.95 32.2 66.3 32.8 65.75 33.8 66.5 M26.3 76.75 L27.65 77.6 29.1 79.15 29.0 82.1 27.3 82.35 26.9 83.05 28.95 82.9 28.85 85.3 27.65 86.75 28.9 86.75 28.9 86.95 27.55 88.4 27.4 87.2 26.5 87.3 26.8 87.7 Q27.2 88.2 27.0 88.8 25.6 89.35 23.7 89.3 L23.6 88.65 24.85 88.05 Q25.5 87.55 26.25 86.05 L27.0 86.1 27.0 84.25 26.1 84.45 25.6 83.5 26.15 79.8 Q26.1 82.95 26.55 82.95 L26.65 81.25 26.15 78.8 Q26.25 77.0 25.5 76.4 L26.3 76.75 M31.95 74.2 Q31.05 73.85 30.7 73.35 30.25 72.7 30.25 71.25 30.25 69.55 30.95 67.65 L32.15 68.95 32.05 71.7 Q30.95 72.4 30.85 73.35 L31.95 73.6 31.95 74.2 M15.65 66.45 L15.7 66.75 14.55 67.05 15.8 67.5 15.8 67.55 14.4 67.5 14.55 66.85 Q14.85 66.45 15.65 66.45 M14.35 66.3 L14.95 63.45 15.6 66.2 14.7 66.2 14.35 66.3 M19.45 85.8 L19.75 85.0 19.95 85.5 Q20.25 86.0 21.05 86.2 L21.95 87.5 23.0 88.6 22.95 89.1 Q20.6 87.9 19.45 85.8 M20.05 84.2 L21.45 79.6 22.0 77.5 23.0 77.0 23.4 76.85 23.8 76.75 24.45 76.65 24.15 78.55 Q23.5 79.1 23.3 79.35 22.95 79.85 22.95 80.5 22.95 81.15 23.1 81.35 L23.55 81.85 23.25 82.65 22.45 82.95 21.9 83.1 Q21.1 83.4 20.05 84.2 M22.8 86.7 L23.45 86.6 23.8 86.3 23.65 85.95 22.95 85.7 23.25 83.4 23.3 83.05 23.4 82.6 Q24.95 82.75 25.6 83.5 L25.5 84.4 25.3 84.4 Q25.1 84.45 25.1 85.1 25.1 86.1 25.2 85.75 L24.7 87.9 23.8 87.9 23.25 87.75 Q22.75 87.2 22.8 86.7 M21.0 85.45 Q20.65 85.45 20.45 85.15 L21.4 84.15 21.0 85.45 M23.6 81.6 Q23.25 80.2 24.0 79.45 L23.6 81.6" fill="#f9e6ac" fill-rule="evenodd" stroke="none"/>
    <path d="M32.8 24.75 L32.9 24.8 31.9 28.8 31.85 29.35 31.95 29.2 Q32.05 28.6 32.3 28.05 32.75 26.9 34.65 25.05 L35.7 25.4 37.25 28.7 37.6 30.4 Q37.6 35.6 34.8 35.8 L34.6 35.8 Q33.35 34.85 32.65 33.6 33.1 33.65 34.3 32.75 L35.15 32.05 35.2 31.1 Q35.0 32.35 34.95 30.9 L34.9 30.45 Q34.75 28.35 34.2 27.95 32.05 30.1 32.05 31.7 L32.1 32.35 Q31.65 31.0 31.65 29.4 31.65 28.2 32.8 24.75 M37.65 25.95 L38.45 26.05 Q38.45 26.95 38.8 27.65 38.95 29.85 38.7 32.05 38.6 31.05 38.8 29.4 38.85 28.65 38.3 28.65 37.7 28.65 37.6 27.35 L37.65 25.95 M43.3 37.8 L43.6 37.45 43.5 38.3 43.55 38.5 43.45 38.3 43.5 38.3 43.3 37.8 M44.2 37.05 L45.75 36.6 47.45 37.15 47.4 36.65 49.2 37.2 49.55 39.2 Q49.55 40.25 49.05 41.3 L46.9 44.75 45.5 44.85 43.1 42.75 Q42.75 40.75 42.75 40.05 L42.85 38.75 43.55 38.6 Q43.85 39.8 44.6 40.75 L45.4 41.7 45.45 41.65 Q45.45 40.95 44.85 39.35 44.25 37.75 44.2 37.05 M48.25 39.15 Q47.95 38.85 47.55 38.85 47.15 38.85 46.9 39.15 46.6 39.45 46.6 39.85 46.6 40.25 46.9 40.55 47.15 40.85 47.55 40.85 L48.25 40.55 48.5 39.85 48.25 39.15 M34.65 38.7 L34.75 41.1 33.15 42.8 32.95 38.0 33.1 37.55 33.5 37.45 33.65 37.45 34.65 38.7 M0.4 15.25 L0.6 15.3 Q7.0 17.05 10.95 18.6 L10.65 20.05 -0.3 16.55 0.4 15.25 M15.8 56.65 L16.55 57.4 14.95 63.45 14.25 61.5 15.8 56.65 M25.6 47.15 L25.6 47.35 25.55 50.4 25.25 51.0 25.5 51.3 25.45 51.85 Q24.1 53.55 24.1 54.1 24.1 55.35 24.95 56.6 L24.95 56.65 24.7 58.55 24.65 58.45 24.45 60.65 23.7 59.6 23.15 58.7 24.35 48.2 25.6 47.15 M27.75 47.7 L28.9 48.55 28.8 50.65 29.05 48.7 30.3 50.1 30.25 50.75 30.2 50.75 30.0 53.2 29.05 53.6 Q29.2 54.75 29.9 55.15 L29.75 56.75 29.0 57.75 28.1 57.05 28.4 56.15 29.65 56.15 28.4 55.6 Q28.15 52.35 27.9 51.8 L27.85 51.25 27.9 51.0 27.75 47.7 M30.95 42.25 Q30.1 41.0 30.1 40.0 L30.45 39.1 31.4 37.45 31.25 38.7 30.95 42.25 M33.75 59.6 L34.75 59.0 34.75 63.75 33.8 64.25 33.75 59.6 M30.0 53.65 L29.85 54.85 29.35 53.85 30.0 53.65 M28.15 58.65 L28.1 57.95 28.75 58.0 28.15 58.65 M20.95 72.55 L22.95 71.3 22.9 72.05 22.9 72.2 22.0 77.5 Q20.65 78.4 19.45 80.15 L19.45 80.2 20.95 72.55 M33.6 74.6 L34.65 74.65 34.5 80.1 33.2 83.05 33.6 74.6 M15.85 68.0 L16.35 68.1 18.55 68.25 17.95 69.4 15.95 69.2 15.85 68.0 M18.8 83.2 L19.45 85.8 Q17.85 89.15 18.2 91.1 L17.25 89.95 18.8 83.2 M30.0 91.5 L27.4 92.95 21.45 93.3 19.1 91.95 24.45 91.6 Q29.05 91.4 29.8 91.5 L30.0 91.5 M-6.85 4.05 L-4.7 4.7 -6.15 5.15 -6.85 4.05 M-3.65 5.15 L-3.3 5.5 -2.95 6.1 -5.25 5.9 -3.65 5.15 M-11.4 3.35 L-11.6 4.1 -10.2 4.45 -10.75 4.85 -12.95 5.1 -13.4 5.2 Q-14.5 3.6 -15.85 3.45 L-16.15 3.45 -11.4 3.35 M-9.6 3.9 L-11.1 3.95 -10.9 3.35 -9.4 3.5 -9.35 3.55 -9.6 3.9 M-14.55 5.2 L-14.85 5.25 -17.35 4.2 Q-15.25 4.45 -14.55 5.2 M-23.7 9.5 L-22.05 9.3 -22.4 9.55 -23.8 10.1 -23.05 10.45 -22.05 9.65 -21.85 9.25 -17.9 8.85 -17.05 9.7 -21.5 10.5 -21.75 10.5 -21.8 10.55 -21.85 10.55 -24.0 10.75 -25.5 10.6 -24.7 9.7 -24.25 9.65 -23.7 9.5 M-25.8 11.05 L-25.4 11.0 -25.85 11.15 -25.8 11.05 M-17.9 12.8 L-15.8 12.75 -16.0 13.9 -17.7 13.95 -17.9 12.8 M-30.7 10.15 Q-30.05 6.85 -28.5 5.1 -27.55 4.0 -25.2 2.7 L-25.0 3.35 -25.6 4.4 -25.45 4.9 -25.1 5.1 -25.4 6.0 -26.2 5.95 -28.0 5.5 Q-28.6 6.15 -28.8 6.75 L-28.55 7.75 -27.65 7.75 -28.3 7.25 -28.25 6.1 -26.75 6.15 -26.85 8.0 -26.9 8.0 -28.55 9.45 -28.85 8.7 -29.1 8.65 -29.3 8.9 Q-28.6 9.45 -29.3 9.9 L-29.4 9.95 -30.7 10.15 M-26.5 14.65 L-26.6 13.45 -24.8 13.4 -24.9 14.3 -26.5 14.65" fill="#ce64a9" fill-rule="evenodd" stroke="none"/>
    <path d="M18.95 8.05 L19.05 8.25 17.7 9.45 Q19.75 10.75 22.1 13.15 L22.2 13.4 21.0 12.75 20.65 12.6 17.6 11.0 Q17.8 10.15 17.6 9.6 L17.25 9.25 17.05 9.2 14.15 7.85 Q14.2 6.95 14.5 6.1 L14.5 6.05 Q14.55 6.0 18.95 8.05 M22.05 20.3 L22.55 20.45 22.55 20.4 22.05 20.3 M21.5 19.1 L21.55 19.1 23.05 19.35 Q24.1 20.2 24.3 22.0 L24.3 22.05 Q23.4 21.95 21.7 20.85 L19.8 19.6 21.5 19.1 M18.85 20.2 Q19.8 20.2 20.5 21.1 21.2 22.0 21.2 23.25 L18.2 21.8 19.25 22.1 19.3 21.5 19.2 20.8 18.5 20.45 18.85 20.2 M14.8 9.75 L14.8 9.7 15.4 9.9 17.4 9.8 17.55 10.95 16.7 10.55 16.15 11.3 16.05 11.3 14.8 9.75 M2.7 2.1 L8.8 3.95 6.8 5.4 5.65 4.55 Q4.95 4.1 4.3 4.1 L0.85 5.45 -0.25 5.15 -1.0 4.65 -1.05 4.65 -1.55 4.1 0.05 3.5 Q1.45 3.9 1.95 3.15 2.5 2.6 2.75 2.85 L3.45 3.05 2.4 2.55 2.7 2.1 M0.7 5.75 L0.8 5.5 2.4 6.25 0.7 5.75 M17.55 21.45 L17.85 21.1 18.0 21.65 17.55 21.45 M19.85 47.6 L20.05 47.1 21.3 47.4 21.3 47.5 19.85 47.6 M21.55 43.7 L22.6 41.0 23.25 41.3 Q22.65 41.65 22.55 42.35 L22.95 42.45 22.8 43.45 23.7 42.75 23.85 42.65 23.85 42.8 23.65 43.65 23.5 44.55 23.35 45.45 23.1 45.95 23.0 46.0 22.2 45.8 22.65 43.5 21.55 43.7 M23.7 41.75 L23.4 41.55 23.65 41.65 23.7 41.75 M21.7 46.55 L21.45 47.0 20.55 46.75 21.7 46.55 M24.95 56.65 L24.95 56.6 25.45 51.85 26.7 51.35 Q27.3 51.2 27.5 51.35 L26.4 53.25 Q25.8 54.75 25.75 57.45 L24.95 56.65 M32.75 49.05 L32.35 48.7 Q32.1 48.4 32.1 47.75 32.1 47.15 32.35 46.8 L32.65 46.6 32.75 49.05 M27.15 52.55 L27.7 51.55 27.9 51.8 28.05 55.45 27.85 55.7 27.55 56.75 27.65 57.5 26.95 57.85 27.15 52.55 M32.5 65.25 L33.8 64.25 33.8 66.5 32.8 65.75 32.5 65.25 M29.1 79.15 L29.85 81.15 30.3 82.6 30.2 83.8 Q30.2 83.1 29.85 82.6 29.5 82.1 29.0 82.1 L29.1 79.15 M29.5 86.0 L28.9 86.95 28.9 86.75 29.5 86.0 M30.95 67.65 L32.25 65.55 32.2 66.3 32.15 68.95 32.6 69.8 33.3 71.75 33.4 72.65 33.4 74.55 31.95 74.2 31.95 73.6 Q32.7 73.45 33.3 71.75 L32.05 71.7 32.15 68.95 30.95 67.65 M32.65 72.5 Q32.0 72.95 32.0 72.4 L32.65 72.5 M21.05 86.2 L22.8 86.7 Q22.75 87.2 23.25 87.75 L23.0 88.6 21.95 87.5 21.05 86.2 M22.95 85.7 L21.0 85.45 21.4 84.15 Q22.6 83.45 23.25 83.4 L22.95 85.7 M23.3 83.05 L22.45 82.95 23.25 82.65 23.55 81.85 23.6 81.6 24.0 79.45 24.95 79.45 Q25.9 79.5 26.15 79.8 L25.6 83.5 26.1 84.45 26.05 84.5 26.25 85.15 25.5 84.4 25.6 83.5 Q24.95 82.75 23.4 82.6 L23.3 83.05 M25.5 76.4 Q26.25 77.0 26.15 78.8 L24.15 78.55 24.45 76.65 25.1 76.45 25.5 76.4 M26.25 86.05 Q25.5 87.55 24.85 88.05 L23.6 88.65 23.8 87.9 24.7 87.9 25.2 85.75 26.25 86.05 M-1.05 3.3 L-1.95 3.65 -2.5 2.9 -1.05 3.3 M-9.55 13.05 Q-10.15 12.05 -10.25 10.3 -9.35 9.0 -8.5 9.0 -6.9 9.0 -5.9 10.0 -4.5 11.3 -5.95 13.7 L-9.55 13.05 M-18.6 11.2 L-20.35 11.35 -23.35 11.2 Q-22.6 10.8 -21.85 10.55 L-21.8 10.55 -21.75 10.5 -21.5 10.5 -19.8 10.7 Q-18.95 10.9 -18.6 11.2 M-23.75 11.55 L-22.05 12.05 -19.75 12.45 -18.55 12.35 -18.1 12.2 -17.9 12.8 -24.8 13.4 -23.75 11.55" fill="#f4d36f" fill-rule="evenodd" stroke="none"/>
    <path d="M30.95 22.65 L31.9 24.1 Q31.05 27.1 30.9 28.6 L30.85 28.55 29.5 27.9 28.1 27.4 28.05 27.4 Q28.2 26.25 28.85 24.55 L29.85 23.55 30.95 22.65 M41.45 29.15 L41.75 29.25 Q41.75 30.35 41.4 31.15 41.05 31.95 40.6 31.95 40.1 31.95 39.75 31.2 39.35 30.45 39.35 29.3 L40.25 29.4 41.45 29.15 M44.2 29.75 L45.35 31.7 45.05 31.85 Q44.5 31.95 44.5 32.15 L44.65 32.5 44.45 33.05 43.7 31.85 44.2 29.75 M45.6 32.2 L46.7 34.85 45.35 34.1 44.8 33.5 45.35 33.65 45.55 33.15 45.6 32.3 45.6 32.2 M43.05 33.25 Q44.65 34.8 44.7 35.45 L43.8 35.35 43.55 35.3 43.25 35.2 42.3 34.6 42.85 33.65 43.05 33.25 M41.75 35.3 L43.3 37.8 42.95 38.45 42.7 38.55 41.0 36.95 41.85 36.2 40.85 36.4 40.45 36.6 40.25 36.5 41.75 35.3 M25.1 19.35 L23.05 19.35 21.55 19.1 21.5 19.1 18.25 17.9 18.75 17.95 18.65 16.15 21.45 16.75 25.1 19.35 M24.3 22.05 L24.3 22.0 26.0 22.45 24.3 25.35 23.85 25.05 Q24.5 24.05 24.3 22.05 M24.45 38.25 L24.35 39.05 24.2 38.55 24.45 38.25 M23.75 41.85 L23.7 41.9 23.7 41.75 23.75 41.85 M23.8 42.35 L23.85 42.3 23.8 42.4 23.8 42.35 M23.95 42.15 L23.8 43.65 23.85 42.8 23.9 42.55 23.9 42.4 23.95 42.15 M23.7 44.25 L23.75 44.9 23.7 45.6 23.2 46.3 23.05 46.1 23.05 46.05 23.1 45.95 23.35 45.4 23.7 44.25 M22.7 48.85 L21.85 48.4 21.35 48.35 Q21.4 48.85 22.65 49.2 L22.35 50.75 23.0 50.55 22.9 50.85 22.3 51.05 22.35 50.75 20.1 51.4 20.15 50.95 21.3 47.5 22.3 47.05 23.1 46.7 22.7 48.85 M26.7 34.9 L26.8 35.0 27.25 40.65 Q26.3 38.95 26.3 36.35 L26.7 34.9 M25.95 38.8 L27.4 41.35 27.55 44.8 26.55 46.15 Q26.4 46.15 26.3 46.3 L26.1 46.65 25.85 47.0 25.6 47.15 25.95 38.8 M31.15 23.6 L31.15 23.45 31.15 23.55 31.15 23.6 M16.4 14.8 L17.1 15.25 18.6 16.1 Q18.6 16.5 18.2 16.8 L17.15 17.1 15.8 14.85 16.4 14.8 M10.85 10.55 L11.05 11.9 Q9.95 11.9 9.2 11.25 8.5 10.65 8.45 9.85 L8.4 9.6 8.55 9.6 10.85 10.55 M6.15 8.5 L8.6 8.3 8.6 9.0 7.75 9.15 6.15 8.5 M-0.45 13.35 L0.2 13.85 0.1 11.9 0.4 10.95 2.9 12.3 2.55 13.3 0.4 15.25 0.15 15.15 -0.45 13.35 M0.95 10.25 L1.6 9.6 4.5 10.0 Q6.6 10.3 7.8 10.95 L7.65 11.1 6.5 12.0 6.25 12.0 6.05 11.2 Q5.9 10.85 5.25 10.85 4.6 10.85 3.0 12.2 L1.6 11.0 0.95 10.25 M1.1 9.5 L0.7 9.65 0.5 9.2 -0.05 9.0 -0.95 7.9 0.4 8.15 Q0.5 9.25 1.1 9.5 M-2.65 7.85 L-2.5 7.55 -2.1 7.65 -1.85 8.1 -2.65 7.85 M-3.2 7.4 L-3.3 7.6 -7.3 6.35 -5.45 5.95 -3.2 7.4 M-4.3 8.9 L-4.85 9.2 -5.9 8.8 -4.3 8.9 M3.7 12.4 L4.05 11.85 Q4.25 11.55 4.9 11.55 5.9 11.55 5.7 12.0 L4.15 12.4 3.7 12.4 M9.95 14.8 Q11.65 14.65 11.95 14.8 L14.4 16.15 13.15 16.05 Q12.4 15.8 11.95 15.45 L11.65 16.1 10.2 15.3 9.95 14.8 M14.6 16.2 L17.15 17.75 19.8 19.6 18.85 20.2 13.95 17.05 14.6 16.2 M3.6 12.65 L3.45 12.75 3.5 12.6 3.6 12.65 M15.75 14.25 L15.7 14.25 15.75 14.25 M16.55 57.4 L18.3 51.7 19.55 51.4 19.9 51.95 19.35 53.55 Q20.55 53.55 21.4 53.0 22.2 52.4 22.2 51.55 L22.8 51.3 22.65 52.5 Q22.2 52.6 21.85 53.4 L20.3 58.7 18.8 58.85 17.9 59.15 17.65 58.75 18.35 56.6 19.1 56.55 19.7 56.2 19.65 55.7 Q19.45 55.45 18.8 55.35 L19.35 53.55 Q18.35 53.55 17.65 54.8 16.9 56.05 16.9 57.8 L16.55 57.4 M23.35 39.0 L23.9 37.65 23.9 37.7 24.2 38.55 23.3 41.0 22.8 40.5 23.3 39.25 23.75 39.4 23.8 39.05 23.6 39.15 Q23.4 39.3 23.35 39.0 M30.5 50.35 L31.75 47.9 31.7 50.25 31.6 51.3 31.45 53.5 31.15 53.4 31.0 51.9 30.5 50.35 M32.6 50.25 L32.75 49.05 33.35 49.3 33.35 50.15 32.7 50.4 32.6 50.25 M32.65 46.6 Q32.3 46.5 32.1 47.15 L31.75 47.85 31.85 46.8 32.3 44.9 32.65 46.3 33.3 45.2 33.35 46.2 32.65 46.6 M33.45 54.1 L33.5 54.75 32.8 54.85 Q33.5 56.0 32.85 57.4 L33.7 57.2 33.75 58.0 33.3 58.8 32.3 58.05 32.15 57.0 32.4 53.6 Q32.9 53.95 33.45 54.1 M31.95 51.0 L32.3 50.7 32.4 50.6 32.5 52.05 32.4 53.6 Q31.7 52.45 31.7 51.55 L32.0 51.6 Q31.9 51.45 31.95 51.0 M31.25 54.8 L31.0 56.65 31.2 56.95 30.9 57.25 31.0 56.65 30.35 55.8 31.0 54.2 31.25 54.8 M30.4 61.1 L30.8 58.0 Q31.35 58.8 32.3 58.15 L32.4 58.95 32.4 59.5 32.4 61.1 30.7 64.35 30.05 63.9 30.3 61.7 31.75 61.4 32.1 60.4 32.0 60.0 31.5 60.6 Q30.9 61.25 30.4 61.1 M31.3 57.95 L31.65 57.45 31.4 57.95 31.3 57.95 M22.95 71.3 L23.5 67.8 24.1 68.45 23.2 71.2 22.95 71.3 M23.75 66.05 L24.15 63.15 24.9 63.5 24.25 62.4 24.45 60.65 24.85 60.65 25.85 60.5 25.6 63.4 Q24.5 66.05 23.75 66.05 M20.25 58.95 L19.9 59.8 18.2 59.35 Q19.0 58.95 20.25 58.95 M19.2 62.0 Q19.2 61.15 19.95 60.6 20.7 60.0 21.75 60.0 L21.6 63.0 Q21.6 64.4 21.0 64.4 20.4 64.4 20.1 64.85 L19.9 65.3 20.7 65.4 20.75 65.95 20.45 67.75 19.45 67.35 19.4 67.0 19.7 66.45 Q20.1 66.2 19.35 65.85 L19.45 63.05 20.7 63.4 19.95 62.8 19.35 62.55 19.2 62.0 M28.45 62.45 L28.5 63.0 26.75 60.95 26.8 60.85 26.6 60.1 26.85 59.9 26.8 60.85 28.45 62.45 M28.9 63.25 L28.9 62.9 30.05 63.9 30.0 64.4 28.9 63.25 M26.3 60.3 L26.25 60.3 26.35 60.25 26.3 60.3 M26.25 66.2 L26.6 67.35 26.55 69.15 25.0 70.2 25.3 66.7 26.25 66.2 M24.35 68.0 L23.6 67.05 23.6 66.95 24.85 67.15 25.4 65.3 25.3 66.7 24.85 67.15 24.35 68.0 M18.85 67.2 L20.3 68.45 20.25 68.6 18.55 68.25 18.85 67.2 M19.1 91.95 L18.35 92.0 18.2 91.1 19.1 91.95 M33.2 83.1 L32.6 89.35 31.75 88.75 Q32.2 86.5 33.2 83.1 M30.75 90.8 L30.85 90.7 32.0 90.45 31.35 89.85 31.65 89.2 Q32.35 90.0 32.0 91.15 L30.75 90.8 M-7.2 3.5 L-6.85 4.05 -7.3 3.9 -7.2 3.5 M-8.0 2.8 L-7.5 2.95 -7.3 3.25 Q-7.65 3.75 -8.45 3.8 L-9.35 3.55 -9.3 3.45 -8.0 2.8 M-7.4 5.35 Q-8.7 5.5 -9.25 5.9 L-9.5 6.3 Q-9.5 7.4 -7.95 8.15 L-9.15 7.85 -12.5 7.2 -20.05 8.1 -20.1 8.1 -19.95 6.65 -16.75 6.15 -14.1 5.55 -13.75 5.45 -13.7 5.45 -12.15 5.3 -10.75 4.85 -7.4 5.35 M-20.7 6.8 L-20.7 7.3 -21.2 8.1 -23.4 8.7 Q-22.8 7.6 -22.8 7.05 L-20.7 6.8 M-26.95 8.8 Q-26.8 9.1 -26.1 9.3 L-24.5 9.45 -24.7 9.7 -26.8 10.05 -27.45 10.05 Q-27.45 9.55 -26.95 8.8 M-23.4 7.2 L-23.8 8.2 Q-24.45 9.0 -26.05 9.0 L-26.05 8.25 -23.4 7.2 M-27.4 11.95 L-28.15 12.85 -27.9 12.25 Q-27.7 11.95 -27.4 11.95" fill="#89c4e7" fill-rule="evenodd" stroke="none"/>
    <path d="M25.0 16.1 L25.1 19.35 Q25.3 19.95 26.65 21.75 L26.0 22.45 24.3 22.0 Q24.1 20.2 23.05 19.35 L25.1 19.35 21.45 16.75 25.0 16.1 M38.55 26.05 Q39.25 26.4 41.45 29.15 L40.25 29.4 39.35 29.3 38.8 27.65 38.55 26.05 M42.85 38.75 L42.7 38.55 42.95 38.45 42.85 38.75 M21.5 19.1 L19.8 19.6 17.15 17.75 14.6 16.2 14.4 16.15 11.95 14.8 Q11.65 14.65 9.95 14.8 L8.45 13.3 Q7.2 12.2 6.5 12.0 L7.65 11.1 7.8 10.95 Q6.6 10.3 4.5 10.0 L1.6 9.6 Q1.85 9.4 1.9 8.8 L1.1 9.5 Q0.5 9.25 0.4 8.15 L6.15 8.5 7.75 9.15 6.25 9.25 4.65 8.95 Q6.3 9.85 7.85 9.85 L8.45 9.85 Q8.5 10.65 9.2 11.25 9.95 11.9 11.05 11.9 11.6 11.95 11.7 12.2 L12.1 12.55 11.95 11.5 11.85 11.1 11.95 10.2 13.95 12.5 Q13.95 13.45 14.5 14.15 15.05 14.85 15.8 14.85 L17.15 17.1 17.15 17.75 18.25 17.9 21.5 19.1 M24.6 36.1 L24.45 38.25 24.2 38.55 24.35 39.05 23.5 41.35 23.3 41.0 24.2 38.55 23.9 37.7 24.6 36.1 M23.65 41.65 L23.75 41.85 23.7 41.75 23.65 41.65 M23.85 42.3 L23.95 42.15 23.9 42.4 23.8 42.4 23.85 42.3 M23.7 45.6 L23.35 48.85 22.7 48.85 23.1 46.7 23.2 46.3 23.7 45.6 M22.65 49.2 L23.25 49.05 23.15 50.15 23.0 50.55 22.35 50.75 22.3 51.05 20.8 52.0 22.2 51.55 Q22.2 52.4 21.4 53.0 20.55 53.55 19.35 53.55 L19.9 51.95 20.1 51.4 22.35 50.75 22.65 49.2 M28.1 27.4 L29.5 27.9 30.85 28.55 30.5 31.95 29.3 30.1 Q28.25 28.3 28.1 27.4 M27.4 29.25 Q27.75 29.9 28.65 30.8 L30.45 32.1 30.45 33.05 Q27.35 32.9 27.4 29.25 M9.8 8.35 L9.85 8.35 8.6 9.0 8.6 8.3 9.8 8.35 M11.5 9.6 Q11.25 9.6 11.05 9.9 L10.85 10.55 8.55 9.6 10.55 8.7 11.5 9.6 M14.55 13.15 L15.7 14.25 15.05 14.15 14.55 13.15 M-0.45 13.35 L0.15 15.15 -5.95 13.7 Q-4.5 11.3 -5.9 10.0 -6.9 9.0 -8.5 9.0 -9.35 9.0 -10.25 10.3 -10.15 12.05 -9.55 13.05 L-11.75 12.85 -15.8 12.75 -16.0 11.55 -13.55 9.65 Q-11.4 8.05 -10.7 8.15 L-10.9 7.75 -11.7 7.6 -12.85 7.85 -13.85 8.4 -17.9 8.85 -18.3 8.65 -20.05 8.1 -12.5 7.2 -9.15 7.85 -7.95 8.15 Q-9.5 7.4 -9.5 6.3 L-7.3 6.35 -3.3 7.6 -3.6 8.2 -4.3 8.9 -5.9 8.8 -4.85 9.2 Q-1.9 10.7 -0.45 13.35 M2.9 12.3 L0.4 10.95 0.95 10.25 1.6 11.0 3.0 12.2 2.9 12.3 M0.7 9.65 Q0.7 10.6 -0.3 10.6 L-2.0 10.05 -3.35 9.4 -2.65 7.85 -1.85 8.1 Q-1.55 8.7 -0.05 9.0 L0.5 9.2 0.7 9.65 M3.7 12.4 L4.15 12.4 3.6 12.65 3.5 12.6 3.7 12.4 M12.6 13.45 Q12.4 13.15 11.95 13.2 11.5 13.25 12.0 13.75 L11.4 14.35 Q11.35 14.55 11.6 14.55 L12.65 14.2 12.6 13.45 M11.65 16.1 L12.75 16.7 13.95 17.05 18.85 20.2 18.5 20.45 18.05 20.65 17.85 21.1 17.55 21.45 14.65 19.85 10.95 18.6 Q10.95 17.25 10.2 15.3 L11.65 16.1 M18.3 51.7 L19.85 47.6 21.3 47.5 20.15 50.95 19.55 51.4 18.3 51.7 M23.85 42.65 L23.9 42.55 23.85 42.8 23.85 42.65 M23.35 45.4 L23.1 45.95 23.35 45.45 23.35 45.4 M26.1 46.65 L26.05 46.9 25.85 47.0 26.1 46.65 M27.15 47.35 L27.15 46.9 26.95 46.35 26.65 46.1 26.55 46.15 27.55 44.8 27.75 47.7 27.15 47.35 M30.95 42.25 L32.2 42.9 Q31.4 46.85 30.45 48.85 L31.85 46.8 31.75 47.85 32.1 47.15 Q32.3 46.5 32.65 46.6 L32.35 46.8 Q32.1 47.15 32.1 47.75 32.1 48.4 32.35 48.7 L32.75 49.05 32.6 50.25 31.7 50.25 31.75 47.9 30.5 50.35 30.3 50.1 30.95 42.25 M32.3 44.9 L32.6 42.9 33.15 42.8 33.3 45.2 32.65 46.3 32.3 44.9 M33.35 50.15 L33.4 50.15 33.45 54.1 Q32.9 53.95 32.4 53.6 L32.15 57.0 31.2 56.95 31.0 56.65 31.25 54.8 Q31.65 55.15 31.45 53.5 L31.6 51.3 31.7 51.55 Q31.7 52.45 32.4 53.6 L32.5 52.05 32.95 51.95 Q33.05 50.9 32.7 50.4 L33.35 50.15 M33.75 59.45 L33.75 59.6 32.4 61.1 32.4 59.5 33.75 59.45 M32.3 50.7 L31.95 51.0 32.3 50.65 Q32.05 50.9 32.3 50.7 M30.35 55.8 L31.0 56.65 30.9 57.25 30.8 58.0 30.4 61.1 29.4 59.8 29.75 56.75 30.35 55.8 M32.3 58.15 L32.3 58.05 33.3 58.8 32.4 58.95 32.3 58.15 M26.85 59.9 L28.15 58.65 28.5 62.55 28.45 62.45 26.8 60.85 26.85 59.9 M22.6 53.45 L22.6 54.1 21.75 60.0 Q20.7 60.0 19.95 60.6 19.2 61.15 19.2 62.0 L18.1 59.45 18.2 59.35 19.9 59.8 20.25 58.95 20.3 58.7 21.85 53.4 Q22.2 52.6 22.65 52.5 L22.6 53.45 M28.9 62.9 L28.85 62.9 29.2 60.8 30.3 61.7 30.05 63.9 30.7 64.35 30.35 64.9 30.35 64.95 30.0 64.4 30.05 63.9 28.9 62.9 M26.25 60.3 L26.3 60.3 26.75 61.3 28.55 63.5 28.75 63.7 30.1 65.3 28.3 67.55 26.65 65.95 Q26.8 65.85 25.6 63.4 L25.85 60.5 26.25 60.3 M26.6 67.35 L27.95 67.9 26.55 69.15 26.6 67.35 M25.4 65.3 L25.75 64.25 26.25 66.2 25.3 66.7 25.0 70.2 23.9 70.8 Q24.45 69.4 24.45 68.55 L24.35 68.0 24.85 67.15 25.3 66.7 25.4 65.3 M16.9 57.8 Q16.9 56.05 17.65 54.8 18.35 53.55 19.35 53.55 L18.8 55.35 17.65 55.2 17.85 56.35 18.35 56.6 17.65 58.75 16.9 57.8 M-8.75 2.55 L-8.0 2.8 -9.3 3.45 -8.75 2.55 M-5.65 10.1 L-5.0 10.55 Q-5.1 10.15 -5.25 10.1 L-5.65 10.1 M-14.85 5.25 L-14.45 5.35 -14.1 5.55 -16.75 6.15 -19.95 6.65 -20.35 5.7 -14.85 5.25 M-18.85 0.75 L-17.85 0.6 -17.75 3.4 -18.95 2.55 -18.25 3.65 -21.55 4.55 Q-23.15 3.9 -24.15 3.25 L-21.4 2.3 Q-19.45 1.55 -18.85 0.75 M-17.05 9.7 L-15.15 9.65 Q-15.65 10.45 -16.4 10.65 L-17.05 9.7 M-12.35 10.55 L-12.45 11.0 -10.85 11.1 -11.7 10.65 -12.35 10.55 M-24.95 4.25 L-24.5 3.5 -24.0 3.6 Q-23.75 3.8 -23.65 4.25 L-23.65 4.95 -25.1 5.1 -24.95 4.25 M-20.7 6.05 L-20.7 6.8 -22.8 7.05 -22.8 7.0 -20.7 6.05 M-27.4 11.95 L-26.6 11.5 Q-25.9 11.15 -25.85 11.15 L-26.6 13.45 -28.2 12.95 -28.15 12.85 -27.4 11.95" fill="#52a8dc" fill-rule="evenodd" stroke="none"/>
    <path d="M28.0 22.35 L30.75 22.15 30.95 22.65 29.85 23.55 28.85 24.55 27.7 24.65 27.4 29.25 Q27.35 32.9 30.45 33.05 L30.45 32.1 31.4 32.25 30.5 31.95 30.85 28.55 30.9 28.6 Q31.05 27.1 31.9 24.1 L32.8 24.75 Q31.65 28.2 31.65 29.4 31.65 31.0 32.1 32.35 32.15 33.2 32.45 33.5 L32.65 33.6 Q33.35 34.85 34.6 35.8 33.8 35.75 33.05 34.5 32.3 33.25 31.85 33.25 L31.2 33.3 31.25 33.3 30.65 35.0 Q29.75 35.1 28.1 33.55 25.85 31.35 25.85 27.7 25.85 26.6 26.5 24.9 27.2 23.15 28.0 22.35 M41.75 29.25 L42.8 29.5 40.45 34.2 Q38.65 34.3 38.65 33.3 L38.7 32.35 38.7 32.05 Q38.95 29.85 38.8 27.65 L39.35 29.3 Q39.35 30.45 39.75 31.2 40.1 31.95 40.6 31.95 41.05 31.95 41.4 31.15 41.75 30.35 41.75 29.25 M44.3 29.5 L44.75 29.45 47.15 33.45 49.2 37.2 47.4 36.65 47.35 35.8 47.2 35.9 46.9 36.5 46.4 36.1 46.7 35.5 45.85 35.45 45.75 36.6 44.2 37.05 43.95 35.75 43.6 35.35 43.65 36.6 43.6 37.45 43.3 37.8 41.75 35.3 Q42.4 33.5 42.8 33.6 L42.85 33.65 42.3 34.6 43.25 35.2 43.55 35.3 43.8 35.35 44.7 35.45 Q44.65 34.8 43.05 33.25 L43.7 31.85 44.45 33.05 44.8 33.5 45.35 34.1 46.7 34.85 45.6 32.2 Q45.6 31.7 45.35 31.7 L44.2 29.75 44.3 29.5 M40.45 36.6 L40.6 36.85 41.0 36.95 42.7 38.55 42.85 38.75 42.75 40.05 Q42.75 40.75 43.1 42.75 L42.05 41.2 Q41.4 40.15 40.8 40.15 L39.3 40.0 Q38.3 39.25 40.25 36.5 L40.45 36.6 M46.9 44.75 L46.35 45.6 45.5 44.85 46.9 44.75 M24.3 25.35 L23.7 26.75 22.8 26.1 23.85 25.05 24.3 25.35 M21.6 39.9 L24.35 32.6 Q24.7 33.1 24.7 33.55 L24.6 36.1 23.9 37.7 23.9 37.65 23.35 39.0 23.3 39.25 22.8 40.5 21.6 39.9 M24.35 48.2 Q24.75 41.9 25.95 34.4 L26.7 34.9 26.3 36.35 Q25.95 37.25 25.95 38.8 L25.6 47.15 24.35 48.2 M26.8 35.0 Q28.4 35.9 28.9 37.05 L29.2 38.7 29.15 42.65 29.1 42.85 Q29.1 42.3 27.25 40.65 L26.8 35.0 M27.4 41.35 Q28.35 42.65 28.55 44.95 L29.05 43.4 28.9 48.55 27.75 47.7 27.55 44.8 27.4 41.35 M29.05 48.7 L29.35 42.5 Q29.5 40.45 30.35 36.7 L31.6 37.05 31.5 37.3 31.4 37.45 30.45 39.1 30.1 40.0 Q30.1 41.0 30.95 42.25 L30.3 50.1 29.05 48.7 M33.65 37.45 L34.55 37.55 34.65 38.7 33.65 37.45 M34.75 41.1 L34.75 46.5 Q34.05 46.1 33.35 46.2 L33.3 45.2 33.15 42.8 34.75 41.1 M34.75 49.05 L34.75 59.0 33.75 59.6 33.75 59.45 34.05 59.15 33.75 58.0 33.7 57.2 Q33.95 55.8 33.5 54.75 L33.45 54.1 33.4 50.15 33.35 50.15 33.35 49.3 34.75 49.05 M0.15 15.15 L0.4 15.25 -0.3 16.55 -7.95 14.8 -16.0 13.9 -15.8 12.75 -11.75 12.85 -9.55 13.05 -8.35 13.55 -5.95 13.7 0.15 15.15 M10.65 20.05 L10.95 18.6 14.65 19.85 17.55 21.45 16.8 22.7 Q12.85 20.8 10.65 20.05 M19.05 47.3 L19.85 47.6 18.3 51.7 16.55 57.4 15.8 56.65 19.05 47.3 M29.0 57.75 L29.75 56.75 29.4 59.8 29.2 60.8 28.85 62.9 28.9 62.9 28.9 63.25 28.5 63.0 28.45 62.45 28.5 62.55 28.15 58.65 28.75 58.0 29.0 57.9 28.9 58.0 Q29.3 58.0 29.0 57.75 M23.15 58.7 L23.7 59.6 24.45 60.65 24.25 62.4 24.15 63.15 23.75 66.05 22.75 66.35 23.5 67.8 22.95 71.3 20.95 72.55 23.15 58.7 M18.55 68.25 L20.25 68.6 20.0 69.75 17.95 69.4 18.55 68.25 M33.2 83.05 L34.5 80.1 33.95 94.5 27.4 92.95 30.0 91.5 32.6 91.65 32.6 89.35 33.2 83.1 33.2 83.05 M17.25 89.95 L18.2 91.1 18.35 92.0 19.1 91.95 21.45 93.3 Q18.7 94.1 15.95 95.25 L17.25 89.95 M-9.35 3.55 L-8.45 3.8 -9.6 3.9 -9.35 3.55 M-7.3 3.9 L-6.85 4.05 -6.15 5.15 -7.4 5.35 -10.75 4.85 -10.2 4.45 -8.3 4.25 -7.3 3.9 M-5.65 10.1 L-5.25 10.1 Q-5.1 10.15 -5.0 10.55 L-5.65 10.1 M-17.35 4.15 L-17.35 4.2 -14.85 5.25 -20.35 5.7 Q-21.0 4.85 -21.55 4.55 L-18.25 3.65 -17.35 4.15 M-17.9 8.85 L-13.85 8.4 -15.15 9.65 -17.05 9.7 -17.9 8.85 M-18.85 0.75 Q-19.45 1.55 -21.4 2.3 L-24.15 3.25 -25.0 3.35 -25.2 2.7 -22.0 1.65 -18.85 0.75 M-30.7 10.15 L-29.4 9.95 -29.45 10.55 -28.95 10.75 Q-27.15 10.5 -26.8 10.05 L-24.7 9.7 -25.5 10.6 -26.65 11.25 -25.8 11.05 -25.85 11.15 Q-25.9 11.15 -26.6 11.5 L-27.4 11.95 Q-27.7 11.95 -27.9 12.25 L-28.15 12.85 -28.2 12.95 -26.6 13.45 -26.5 14.65 -29.9 15.55 Q-31.65 16.4 -31.65 18.65 L-31.6 21.35 -32.2 20.55 -32.65 18.7 -31.65 14.0 -30.7 10.15 M-28.55 9.45 L-26.9 8.0 -26.95 8.8 Q-27.45 9.55 -27.45 10.05 L-28.9 10.15 -28.55 9.45 M-25.4 6.0 L-25.1 5.1 -23.65 4.95 -23.65 5.3 -22.95 4.85 -22.15 4.7 -21.5 5.5 -20.7 6.05 -22.8 7.0 -23.0 5.85 -25.4 6.0 M-23.4 7.2 L-26.05 8.25 Q-25.25 6.75 -24.85 6.55 L-23.55 6.3 -23.4 7.2 M-25.6 10.6 L-25.85 10.65 Q-26.75 10.65 -27.45 11.15 -28.05 11.55 -26.75 11.3 L-25.6 10.6" fill="#2686bf" fill-rule="evenodd" stroke="none"/>
    <path d="M21.2 23.25 L23.85 25.05 22.8 26.1 18.9 23.8 16.8 22.7 17.55 21.45 18.0 21.65 18.2 21.8 21.2 23.25 M19.85 47.6 L19.05 47.3 21.6 39.9 22.8 40.5 22.6 41.0 21.55 43.7 21.45 44.0 Q20.75 44.9 20.65 45.7 L20.4 46.2 20.05 46.25 19.65 46.4 19.45 46.65 19.6 46.95 20.05 47.1 19.85 47.6 M27.9 51.8 Q28.15 52.35 28.4 55.6 L28.05 55.45 27.9 51.8 M24.95 56.6 Q24.1 55.35 24.1 54.1 24.1 53.55 25.45 51.85 L24.95 56.6 M33.35 46.2 Q34.05 46.1 34.75 46.5 L34.75 49.05 33.35 49.3 33.35 47.5 33.35 47.1 33.35 46.2 M33.8 64.25 L34.75 63.75 34.65 74.65 33.6 74.6 33.8 66.5 33.8 64.25 M14.35 66.3 L13.85 67.6 15.85 68.0 15.95 69.2 12.0 69.15 14.25 61.5 14.95 63.45 14.35 66.3 M19.45 80.15 Q20.65 78.4 22.0 77.5 L21.45 79.6 20.05 84.2 19.75 85.0 19.45 85.8 18.8 83.2 19.45 80.15 M-9.55 13.05 L-5.95 13.7 -8.35 13.55 -9.55 13.05 M-24.8 13.4 L-17.9 12.8 -17.7 13.95 -24.9 14.3 -24.8 13.4" fill="#f0c239" fill-rule="evenodd" stroke="none"/>
    <path d="M37.1 -21.7 L37.2 -21.8 39.4 -24.0 46.85 -24.9 48.95 -25.15 Q52.05 -25.15 54.1 -24.4 59.4 -22.5 60.1 -22.3 60.05 -23.65 60.4 -24.3 L60.75 -24.7 62.25 -24.1 Q61.9 -22.9 62.55 -22.35 L63.3 -21.4 Q63.3 -20.9 62.75 -20.1 62.15 -19.3 62.15 -18.8 62.15 -17.75 62.65 -17.05 63.1 -16.35 63.7 -16.35 64.05 -16.35 65.7 -17.55 L68.75 -13.35 66.65 -13.25 Q65.85 -12.7 65.85 -11.25 65.85 -8.45 67.6 -8.45 L69.2 -8.85 Q70.8 -8.6 70.8 -5.3 L69.35 -3.25 69.4 -2.5 69.55 -2.2 71.0 -1.9 70.25 2.6 Q69.5 6.4 68.2 6.4 L66.6 6.25 65.4 6.05 65.3 6.4 65.2 7.5 Q65.2 9.5 64.4 10.6 63.0 12.55 59.15 12.55 57.95 12.55 56.95 13.45 55.9 14.3 54.05 14.3 50.3 14.3 49.5 12.45 48.65 10.55 47.5 10.55 46.8 10.55 46.3 11.25 45.75 11.95 45.7 13.2 43.4 14.15 42.4 12.7 L41.75 11.05 39.1 10.3 37.15 9.55 38.4 8.05 37.1 6.4 35.95 7.85 Q34.8 5.4 31.7 4.2 29.35 3.3 29.35 -0.55 29.35 -1.65 30.85 -2.4 32.35 -3.15 32.35 -4.2 32.35 -6.15 31.85 -6.75 31.45 -7.2 30.2 -7.2 27.45 -7.2 27.45 -11.25 27.45 -12.25 28.05 -14.05 L27.35 -13.85 Q26.8 -13.9 26.8 -14.55 26.8 -15.2 26.95 -15.25 L27.5 -15.25 28.15 -15.05 28.2 -14.45 31.4 -18.0 Q33.8 -20.3 35.3 -20.3 L35.85 -20.5 Q35.4 -20.55 35.1 -20.95 34.75 -21.45 34.75 -22.15 34.75 -22.85 35.1 -23.3 35.45 -23.8 35.95 -23.8 36.45 -23.8 36.8 -23.3 L37.15 -22.15 37.1 -21.7 M39.0 -21.3 Q38.45 -20.75 38.45 -19.95 38.45 -19.15 39.0 -18.6 39.55 -18.05 40.35 -18.05 41.15 -18.05 41.7 -18.6 42.25 -19.15 42.25 -19.95 42.25 -20.75 41.7 -21.3 41.15 -21.85 40.35 -21.85 39.55 -21.85 39.0 -21.3 M31.5 -19.45 L31.7 -18.95 31.5 -18.45 Q31.3 -18.25 31.0 -18.25 L30.5 -18.45 30.3 -18.95 30.5 -19.45 31.0 -19.65 31.5 -19.45 M31.5 -13.3 L32.1 -11.75 33.15 -11.7 Q33.1 -12.85 32.65 -13.35 32.3 -13.8 31.8 -13.65 L31.5 -13.3 M37.35 -13.8 L36.65 -12.8 37.45 -11.95 Q38.35 -11.05 38.7 -11.0 L38.95 -13.1 Q37.85 -13.8 37.35 -13.8 M24.75 -2.4 L24.95 -1.9 24.75 -1.4 24.25 -1.2 Q23.95 -1.2 23.75 -1.4 L23.55 -1.9 23.75 -2.4 24.25 -2.6 24.75 -2.4 M25.85 -7.55 L26.0 -6.95 25.85 -6.35 Q25.7 -6.1 25.45 -6.1 25.2 -6.1 25.05 -6.35 24.9 -6.6 24.9 -6.95 L25.05 -7.55 25.45 -7.8 25.85 -7.55 M36.0 -10.6 Q35.5 -10.6 35.15 -10.15 34.75 -9.7 34.75 -9.05 34.75 -8.4 35.15 -7.95 35.5 -7.5 36.0 -7.5 36.5 -7.5 36.9 -7.95 37.25 -8.4 37.25 -9.05 37.25 -9.7 36.9 -10.15 36.5 -10.6 36.0 -10.6 M37.8 -6.55 Q37.1 -5.85 37.1 -4.9 37.1 -3.95 37.8 -3.25 38.5 -2.55 39.45 -2.55 40.4 -2.55 41.1 -3.25 41.8 -3.95 41.8 -4.9 41.8 -5.85 41.1 -6.55 40.4 -7.25 39.45 -7.25 38.5 -7.25 37.8 -6.55 M37.2 -1.3 L36.5 -1.6 Q36.1 -1.6 35.8 -1.3 35.5 -1.0 35.5 -0.55 35.5 -0.1 35.8 0.2 36.1 0.5 36.5 0.5 L37.2 0.2 37.5 -0.55 37.2 -1.3 M54.5 -25.45 L55.0 -25.65 55.5 -25.45 55.7 -24.95 55.5 -24.45 Q55.3 -24.25 55.0 -24.25 L54.5 -24.45 54.3 -24.95 54.5 -25.45 M49.9 -25.95 L50.15 -26.55 50.7 -26.8 51.3 -26.55 51.5 -25.95 51.3 -25.35 50.7 -25.1 Q50.35 -25.1 50.15 -25.35 L49.9 -25.95 M42.5 -25.9 L43.05 -25.7 43.25 -25.2 43.05 -24.7 42.5 -24.5 42.0 -24.7 Q41.75 -24.9 41.75 -25.2 L42.0 -25.7 42.5 -25.9 M56.5 -23.1 Q55.8 -23.1 55.3 -22.6 54.8 -22.1 54.8 -21.4 54.8 -20.7 55.3 -20.2 55.8 -19.7 56.5 -19.7 57.2 -19.7 57.7 -20.2 58.2 -20.7 58.2 -21.4 58.2 -22.1 57.7 -22.6 57.2 -23.1 56.5 -23.1 M52.45 -20.4 Q52.05 -20.8 51.5 -20.8 50.95 -20.8 50.6 -20.4 50.2 -20.0 50.2 -19.45 50.2 -18.9 50.6 -18.5 50.95 -18.1 51.5 -18.1 52.05 -18.1 52.45 -18.5 52.8 -18.9 52.8 -19.45 52.8 -20.0 52.45 -20.4 M53.6 -17.4 Q53.2 -17.8 52.7 -17.8 52.2 -17.8 51.85 -17.4 51.45 -17.05 51.45 -16.55 51.45 -16.05 51.85 -15.65 52.2 -15.3 52.7 -15.3 53.2 -15.3 53.6 -15.65 L53.95 -16.55 Q53.95 -17.05 53.6 -17.4 M50.95 -14.8 Q50.35 -15.55 49.55 -15.55 48.75 -15.55 48.2 -14.8 47.6 -14.1 47.6 -13.05 47.6 -12.0 48.2 -11.25 48.75 -10.55 49.55 -10.55 50.35 -10.55 50.95 -11.25 51.5 -12.0 51.5 -13.05 51.5 -14.1 50.95 -14.8 M58.75 -16.35 Q58.2 -15.8 58.2 -15.0 58.2 -14.2 58.75 -13.65 59.3 -13.1 60.05 -13.1 60.8 -13.1 61.35 -13.65 61.9 -14.2 61.9 -15.0 61.9 -15.8 61.35 -16.35 60.8 -16.9 60.05 -16.9 59.3 -16.9 58.75 -16.35 M47.35 -19.5 Q47.35 -19.2 47.65 -18.95 L48.3 -18.75 49.0 -18.95 49.25 -19.5 49.0 -20.0 48.3 -20.25 Q47.9 -20.25 47.65 -20.0 L47.35 -19.5 M48.25 -6.95 Q47.65 -6.95 47.2 -6.5 46.75 -6.05 46.75 -5.4 46.75 -4.75 47.2 -4.3 47.65 -3.85 48.25 -3.85 48.85 -3.85 49.3 -4.3 49.75 -4.75 49.75 -5.4 49.75 -6.05 49.3 -6.5 48.85 -6.95 48.25 -6.95 M44.75 -10.95 L44.35 -12.65 43.55 -11.95 Q42.8 -11.2 42.9 -10.85 L44.75 -10.95 M44.3 -1.95 Q43.9 -1.6 43.9 -1.1 43.9 -0.6 44.3 -0.25 44.65 0.1 45.15 0.1 45.65 0.1 46.05 -0.25 46.4 -0.6 46.4 -1.1 L46.05 -1.95 Q45.65 -2.3 45.15 -2.3 44.65 -2.3 44.3 -1.95 M56.3 -7.85 L55.65 -8.15 55.05 -7.85 Q54.75 -7.6 54.75 -7.25 54.75 -6.9 55.05 -6.6 55.3 -6.35 55.65 -6.35 56.0 -6.35 56.3 -6.6 L56.55 -7.25 56.3 -7.85 M54.95 -4.4 Q54.65 -4.15 54.65 -3.75 54.65 -3.35 54.95 -3.05 55.2 -2.8 55.6 -2.8 56.0 -2.8 56.3 -3.05 L56.55 -3.75 56.3 -4.4 55.6 -4.7 Q55.2 -4.7 54.95 -4.4 M70.5 -8.7 Q70.5 -9.1 70.8 -9.35 71.05 -9.65 71.45 -9.65 L72.15 -9.35 72.4 -8.7 72.15 -8.0 Q71.85 -7.75 71.45 -7.75 71.05 -7.75 70.8 -8.0 70.5 -8.3 70.5 -8.7 M67.65 -20.35 L67.9 -19.7 67.65 -19.0 66.95 -18.75 Q66.55 -18.75 66.3 -19.0 66.0 -19.3 66.0 -19.7 66.0 -20.1 66.3 -20.35 66.55 -20.65 66.95 -20.65 L67.65 -20.35 M71.9 -14.1 L72.1 -13.65 71.9 -13.2 71.45 -13.0 71.0 -13.2 70.8 -13.65 71.0 -14.1 71.45 -14.3 71.9 -14.1 M63.6 -10.5 L64.0 -11.55 62.6 -12.6 62.2 -12.2 Q62.05 -12.0 62.05 -11.4 L62.15 -10.35 62.75 -10.35 63.6 -10.5 M63.9 -5.4 Q63.5 -5.9 62.95 -5.9 62.4 -5.9 62.05 -5.4 61.65 -4.95 61.65 -4.25 61.65 -3.55 62.05 -3.05 62.4 -2.6 62.95 -2.6 63.5 -2.6 63.9 -3.05 64.25 -3.55 64.25 -4.25 64.25 -4.95 63.9 -5.4 M67.8 -4.9 L68.0 -5.5 67.8 -6.1 67.2 -6.35 66.65 -6.1 66.4 -5.5 Q66.4 -5.15 66.65 -4.9 66.85 -4.65 67.2 -4.65 67.55 -4.65 67.8 -4.9 M66.65 -1.3 Q66.05 -1.3 65.65 -0.85 65.2 -0.4 65.2 0.2 65.2 0.8 65.65 1.25 66.05 1.7 66.65 1.7 67.25 1.7 67.7 1.25 68.1 0.8 68.1 0.2 68.1 -0.4 67.7 -0.85 67.25 -1.3 66.65 -1.3 M71.95 1.75 Q72.45 1.75 72.8 2.1 73.15 2.45 73.15 2.95 L72.8 3.8 71.95 4.15 Q71.45 4.15 71.1 3.8 70.75 3.45 70.75 2.95 70.75 2.45 71.1 2.1 71.45 1.75 71.95 1.75 M74.1 -4.85 L74.35 -4.25 74.1 -3.6 73.5 -3.35 Q73.15 -3.35 72.9 -3.6 L72.65 -4.25 72.9 -4.85 Q73.15 -5.15 73.5 -5.15 L74.1 -4.85 M71.6 8.0 L71.9 8.7 71.6 9.4 Q71.3 9.7 70.85 9.7 70.4 9.7 70.1 9.4 69.8 9.1 69.8 8.7 69.8 8.3 70.1 8.0 70.4 7.7 70.85 7.7 71.3 7.7 71.6 8.0 M62.85 5.1 L62.15 4.8 Q61.75 4.8 61.45 5.1 61.15 5.4 61.15 5.8 61.15 6.2 61.45 6.5 61.75 6.8 62.15 6.8 L62.85 6.5 63.15 5.8 62.85 5.1 M62.1 8.1 Q61.75 7.75 61.3 7.75 60.85 7.75 60.55 8.1 60.2 8.4 60.2 8.9 60.2 9.4 60.55 9.75 60.85 10.05 61.3 10.05 L62.1 9.75 62.4 8.9 62.1 8.1 M66.1 15.6 Q66.6 16.1 66.6 16.8 66.6 17.5 66.1 18.0 65.6 18.5 64.9 18.5 64.2 18.5 63.7 18.0 63.2 17.5 63.2 16.8 63.2 16.1 63.7 15.6 64.2 15.1 64.9 15.1 65.6 15.1 66.1 15.6 M66.5 10.7 Q66.7 10.4 67.0 10.4 67.3 10.4 67.55 10.7 L67.75 11.35 67.55 12.05 67.0 12.3 66.5 12.05 66.25 11.35 Q66.25 10.95 66.5 10.7 M58.1 3.25 Q58.7 2.6 58.7 1.7 58.7 0.8 58.1 0.2 57.45 -0.45 56.55 -0.45 55.65 -0.45 55.05 0.2 54.4 0.8 54.4 1.7 54.4 2.6 55.05 3.25 55.65 3.85 56.55 3.85 57.45 3.85 58.1 3.25 M51.65 4.5 Q51.3 4.8 51.3 5.25 51.3 5.7 51.65 6.05 51.95 6.35 52.4 6.35 L53.2 6.05 53.5 5.25 53.2 4.5 Q52.85 4.15 52.4 4.15 51.95 4.15 51.65 4.5 M54.55 9.75 L54.0 9.5 Q53.7 9.5 53.5 9.75 53.25 9.95 53.25 10.25 L53.5 10.8 54.0 11.0 54.55 10.8 54.75 10.25 54.55 9.75 M56.7 8.75 Q56.3 9.15 56.3 9.7 56.3 10.25 56.7 10.65 57.05 11.05 57.6 11.05 58.15 11.05 58.55 10.65 58.9 10.25 58.9 9.7 58.9 9.15 58.55 8.75 58.15 8.35 57.6 8.35 57.05 8.35 56.7 8.75 M48.0 2.9 Q47.5 2.25 46.8 2.25 46.1 2.25 45.65 2.9 45.15 3.55 45.15 4.5 45.15 5.45 45.65 6.1 46.1 6.75 46.8 6.75 47.5 6.75 48.0 6.1 48.45 5.45 48.45 4.5 48.45 3.55 48.0 2.9 M41.75 4.9 L40.1 4.25 Q40.1 5.0 40.65 5.4 41.15 5.8 41.7 5.6 L41.75 4.9 M43.7 8.25 L44.3 8.5 44.95 8.25 45.2 7.65 44.95 7.05 44.3 6.8 Q43.95 6.8 43.7 7.05 43.4 7.3 43.4 7.65 43.4 8.0 43.7 8.25 M40.65 7.45 Q40.25 7.05 39.7 7.05 39.15 7.05 38.8 7.45 38.4 7.85 38.4 8.4 38.4 8.95 38.8 9.35 39.15 9.75 39.7 9.75 40.25 9.75 40.65 9.35 41.0 8.95 41.0 8.4 41.0 7.85 40.65 7.45 M48.95 17.4 Q49.3 17.0 49.8 17.0 50.3 17.0 50.7 17.4 51.05 17.75 51.05 18.3 51.05 18.85 50.7 19.25 50.3 19.6 49.8 19.6 49.3 19.6 48.95 19.25 48.55 18.85 48.55 18.3 48.55 17.75 48.95 17.4 M46.1 15.6 L46.35 16.25 46.1 16.95 45.4 17.2 44.75 16.95 44.45 16.25 Q44.45 15.85 44.75 15.6 45.0 15.3 45.4 15.3 45.8 15.3 46.1 15.6 M56.95 15.1 Q57.35 15.1 57.65 15.4 L57.9 16.1 57.65 16.8 56.95 17.1 Q56.55 17.1 56.3 16.8 L56.0 16.1 Q56.0 15.7 56.3 15.4 56.55 15.1 56.95 15.1 M36.5 3.75 Q36.5 3.25 36.15 2.9 35.75 2.5 35.25 2.5 34.75 2.5 34.4 2.9 34.0 3.25 34.0 3.75 34.0 4.25 34.4 4.65 34.75 5.0 35.25 5.0 35.75 5.0 36.15 4.65 L36.5 3.75 M34.45 8.35 L34.75 9.1 34.45 9.85 33.65 10.15 32.9 9.85 Q32.55 9.55 32.55 9.1 32.55 8.65 32.9 8.35 33.2 8.05 33.65 8.05 34.1 8.05 34.45 8.35 M26.4 5.85 Q26.4 5.2 26.85 4.75 27.3 4.3 27.9 4.3 28.5 4.3 28.95 4.75 29.4 5.2 29.4 5.85 29.4 6.5 28.95 6.95 28.5 7.4 27.9 7.4 27.3 7.4 26.85 6.95 26.4 6.5 26.4 5.85 M39.95 12.85 Q40.4 13.3 40.4 13.95 L39.95 15.1 Q39.45 15.55 38.75 15.55 38.05 15.55 37.6 15.1 37.1 14.6 37.1 13.95 37.1 13.3 37.6 12.85 38.05 12.35 38.75 12.35 39.45 12.35 39.95 12.85 M32.7 14.15 L32.9 14.75 32.7 15.4 32.25 15.65 31.8 15.4 31.6 14.75 31.8 14.15 Q32.0 13.85 32.25 13.85 32.5 13.85 32.7 14.15" fill="#41362c" fill-rule="evenodd" stroke="none"/>
  </g>
</svg>
