<?xml version="1.0" encoding="UTF-8" standalone="no"?>
<svg xmlns:ffdec="https://www.free-decompiler.com/flash" xmlns:xlink="http://www.w3.org/1999/xlink" ffdec:objectType="shape" height="123.8px" width="108.7px" xmlns="http://www.w3.org/2000/svg">
  <g transform="matrix(1.0, 0.0, 0.0, 1.0, 60.65, 50.9)">
    <path d="M10.9 -3.4 L10.75 -6.4 Q8.45 -1.65 2.75 2.65 L2.05 2.15 Q3.6 -1.25 4.45 -6.85 L5.0 -12.65 Q4.7 -11.2 3.1 -8.55 1.1 -5.2 0.0 -4.3 L-7.75 -3.9 -10.5 -7.05 Q-11.55 -6.4 -14.75 -5.65 L-19.1 -4.85 -21.65 -5.1 -24.2 -5.5 Q-26.85 -6.2 -27.55 -9.35 L-28.9 -14.65 Q-29.1 -12.35 -30.25 -9.7 -32.25 -5.2 -35.65 -5.2 -39.65 -5.2 -42.4 -6.65 -45.05 -8.05 -45.15 -10.1 -45.6 -7.65 -47.9 -6.75 -49.35 -6.2 -52.25 -6.2 -56.65 -6.2 -58.8 -7.45 -60.65 -8.45 -60.65 -10.2 -60.65 -18.75 -59.05 -24.7 -52.65 -36.85 -42.6 -38.4 -41.85 -41.3 -37.65 -44.05 -34.6 -46.05 -31.4 -47.1 -25.2 -49.15 -15.85 -50.2 L-4.35 -50.9 Q5.25 -50.9 13.1 -47.65 14.85 -46.9 16.6 -45.95 L16.2 -44.5 Q20.15 -41.6 23.95 -37.3 L24.2 -34.15 Q22.05 -37.45 18.75 -40.2 L15.65 -42.5 16.15 -44.4 Q6.35 -49.25 -6.4 -49.25 -22.75 -49.25 -32.25 -45.7 -40.25 -42.75 -41.25 -38.45 L-34.5 -36.6 Q-29.25 -35.3 -25.65 -35.7 L-24.6 -35.75 -28.5 -35.1 -31.45 -34.85 -38.25 -35.5 -42.6 -36.2 Q-48.0 -36.2 -54.25 -27.9 L-56.45 -24.7 Q-59.15 -17.5 -58.65 -8.95 L-50.65 -7.65 Q-49.75 -7.7 -47.35 -9.9 L-45.15 -12.1 Q-43.25 -10.95 -42.9 -9.7 L-42.8 -7.05 -33.5 -6.65 Q-32.6 -6.65 -30.8 -13.05 -29.2 -18.8 -29.1 -18.35 -27.95 -17.1 -26.6 -13.15 -25.45 -9.75 -25.45 -8.9 -25.45 -6.15 -19.45 -6.15 -16.55 -6.15 -13.35 -7.4 L-10.35 -8.85 -7.0 -5.25 -0.3 -5.45 Q2.9 -9.35 3.4 -10.85 4.5 -14.25 4.85 -24.7 L5.25 -26.15 5.05 -24.7 5.95 -16.75 Q7.15 -11.0 4.15 0.05 L6.05 -2.2 Q7.95 -3.95 9.25 -7.3 L10.9 -12.0 10.9 -3.4 M26.85 -2.9 Q25.45 18.45 30.25 43.3 31.65 45.6 33.6 48.15 36.9 50.65 39.25 50.75 L40.4 50.6 40.6 50.6 Q41.5 50.45 43.4 49.15 45.75 47.5 46.35 45.75 48.15 47.5 48.05 51.3 48.05 53.9 45.9 57.0 43.5 60.4 39.8 62.25 L35.15 65.75 Q32.35 67.95 29.6 67.85 L32.2 68.9 31.7 69.6 Q30.3 71.0 27.45 72.05 25.15 72.9 24.05 72.9 17.25 72.9 13.8 67.6 10.4 62.35 10.4 52.15 L11.35 35.85 9.55 36.55 9.45 33.35 Q9.45 26.55 10.2 20.15 L10.9 11.4 10.9 -0.6 10.95 -0.8 11.7 -0.6 12.2 3.65 Q12.65 10.0 11.5 22.65 L10.9 28.55 10.35 33.55 10.25 34.15 11.1 32.85 12.5 31.4 13.25 34.0 12.3 55.55 Q12.4 63.45 15.65 67.1 19.0 70.85 26.2 70.85 27.8 70.85 29.2 69.9 L27.45 68.05 26.95 66.3 Q31.8 66.05 34.2 64.15 36.2 62.6 37.9 58.5 L34.9 59.8 29.3 59.15 Q28.25 58.85 27.75 58.15 L27.15 56.5 27.65 56.4 29.3 57.4 Q30.7 58.25 31.3 58.25 L35.15 57.25 Q38.1 56.25 39.4 55.4 L40.45 55.25 40.95 55.35 Q40.8 56.8 40.0 58.45 L38.45 61.05 39.7 60.5 Q40.6 60.0 42.9 57.3 45.15 54.65 45.6 53.6 L46.2 51.55 46.25 49.35 Q45.25 50.95 43.1 51.7 L40.15 52.2 Q31.6 52.2 28.85 43.3 L26.9 24.45 26.9 45.75 26.75 46.35 25.75 50.25 25.65 25.7 25.6 22.3 25.5 -1.25 26.85 -2.9" fill="#97877d" fill-rule="evenodd" stroke="none"/>
    <path d="M6.05 -2.2 L4.15 0.05 Q7.15 -11.0 5.95 -16.75 6.45 -19.1 6.45 -21.0 L6.15 -24.7 Q6.55 -29.85 3.4 -32.8 0.1 -36.0 -7.1 -36.55 L3.6 -36.3 Q8.1 -36.3 11.7 -30.85 L12.3 -29.95 10.9 -24.75 Q10.3 -26.2 8.85 -27.3 8.45 -26.25 8.3 -24.7 L8.9 -21.75 Q9.95 -17.75 9.95 -15.25 9.95 -8.7 6.05 -2.2 M-24.6 -35.75 L-25.65 -35.7 Q-23.2 -38.65 -19.95 -40.6 -12.9 -44.85 -2.95 -44.85 8.25 -44.85 15.25 -41.05 L14.65 -38.8 Q9.95 -43.1 0.0 -43.1 -4.35 -43.1 -8.5 -42.05 -14.9 -40.5 -17.85 -37.0 L-12.75 -37.7 Q-9.65 -38.3 -7.35 -39.35 L-8.4 -36.75 -2.9 -37.65 Q1.5 -38.55 -7.6 -36.6 L-10.65 -36.65 Q-14.75 -36.65 -18.0 -35.6 L-21.4 -34.6 -22.65 -34.95 -24.6 -35.75 M25.45 -19.5 L26.45 -8.1 26.4 -8.3 Q25.8 -12.75 24.65 -16.6 23.35 -20.85 21.3 -24.7 20.35 -28.1 18.75 -31.25 19.6 -28.4 19.85 -24.7 23.9 -12.65 23.9 8.35 23.9 13.55 23.15 28.6 L22.35 42.25 Q22.35 44.35 24.15 49.95 26.1 55.8 27.75 58.15 28.25 58.85 29.3 59.15 L34.9 59.8 Q33.5 62.2 30.65 64.2 27.7 66.3 24.65 66.95 L23.1 67.2 24.0 67.65 27.45 68.05 29.2 69.9 Q22.95 69.8 18.4 66.15 13.6 62.25 12.3 55.55 L13.25 34.0 Q14.35 24.4 14.35 20.05 14.35 16.35 13.95 12.25 13.3 14.55 11.1 32.85 L10.25 34.15 10.35 33.55 10.9 28.55 11.5 22.65 Q12.65 10.0 12.2 3.65 L12.95 -3.75 Q12.95 -11.6 11.65 -15.4 L10.9 -17.1 10.9 -23.8 Q14.2 -19.1 14.8 -16.3 15.1 -6.0 15.75 3.25 17.05 21.35 22.0 29.75 L22.55 26.4 22.8 22.95 Q22.8 13.05 18.05 -22.15 L17.25 -24.7 16.7 -29.3 Q16.3 -30.85 15.0 -33.3 L13.7 -35.25 14.5 -38.15 Q18.5 -35.25 20.95 -30.55 22.4 -27.85 23.2 -24.7 L25.45 -19.5 M3.5 -26.1 L3.5 -24.7 Q4.1 -21.15 2.35 -15.6 -0.05 -7.65 -5.55 -7.75 -6.2 -8.25 -5.9 -10.2 L-5.45 -12.85 -5.7 -15.55 Q-6.05 -17.95 -6.5 -19.8 -7.05 -14.95 -9.35 -11.95 -12.25 -8.15 -17.5 -8.15 -20.8 -8.15 -23.3 -10.7 -27.15 -14.55 -28.0 -23.65 L-28.75 -23.9 Q-31.35 -19.8 -33.15 -13.4 -34.45 -8.9 -35.65 -8.9 L-41.8 -8.95 -42.25 -13.65 -42.7 -18.65 Q-44.7 -16.85 -47.15 -12.85 -49.05 -9.9 -51.65 -8.6 -51.3 -18.4 -47.2 -24.7 -42.1 -30.25 -34.8 -33.1 L-39.7 -26.85 Q-38.35 -26.6 -37.3 -27.55 -35.1 -29.5 -30.7 -31.4 -28.35 -32.45 -20.65 -33.65 L-9.05 -34.9 Q-1.8 -34.9 0.85 -32.9 3.15 -31.1 3.5 -26.1 M14.8 39.5 L13.7 49.75 Q13.7 57.3 18.0 61.7 21.15 64.95 23.85 64.95 L26.45 64.7 Q26.45 64.15 27.75 63.25 23.75 62.3 21.2 57.05 18.55 51.7 19.1 45.2 19.75 37.8 18.9 31.95 18.05 25.55 15.55 22.0 L15.25 28.8 14.8 39.5 M26.75 46.35 L26.9 45.75 Q31.25 49.8 33.2 52.6 33.95 53.35 38.6 53.35 L41.9 52.45 46.2 51.55 45.6 53.6 Q44.2 54.9 40.95 55.35 L40.45 55.25 39.4 55.4 Q32.75 54.65 31.2 53.45 29.65 52.25 26.75 46.35 M25.65 25.7 L25.35 25.75 25.6 22.3 25.65 25.7 M-42.9 -24.7 L-40.15 -28.15 Q-42.15 -27.6 -44.55 -24.7 L-44.9 -24.05 Q-46.75 -20.5 -46.75 -17.0 -46.75 -14.95 -46.4 -14.7 L-46.15 -14.65 -44.45 -20.5 -42.9 -24.7 M-14.0 -43.9 L-19.15 -42.45 Q-22.2 -41.2 -28.65 -37.8 L-28.4 -38.5 Q-27.55 -40.45 -24.05 -42.9 -19.15 -46.3 -13.35 -46.3 L-9.1 -45.8 Q-9.2 -45.3 -14.0 -43.9 M-54.2 -14.6 L-55.3 -14.7 -55.3 -16.95 Q-55.15 -21.25 -54.05 -24.7 -52.35 -27.6 -50.1 -29.9 -45.3 -34.8 -40.05 -34.8 L-38.95 -34.6 -38.65 -34.45 Q-44.7 -31.2 -50.35 -24.7 L-50.8 -23.95 Q-54.15 -18.05 -54.2 -14.6 M-17.05 -32.7 L-20.95 -31.75 -22.15 -24.7 -21.35 -16.65 -19.05 -16.65 -19.05 -17.65 Q-18.0 -11.3 -17.05 -10.3 -14.5 -10.8 -12.3 -14.3 -10.15 -17.6 -9.7 -17.6 -8.9 -17.6 -7.95 -19.3 -6.9 -21.35 -6.7 -24.7 L-6.15 -26.5 Q-5.4 -29.3 -7.2 -31.05 -9.25 -33.1 -14.1 -33.1 L-17.05 -32.7 M-3.6 -32.15 L-4.1 -24.7 -3.9 -23.3 Q-2.8 -16.7 -3.9 -12.6 -2.5 -13.35 -1.2 -16.45 0.05 -19.45 0.05 -21.5 0.05 -23.2 -0.35 -24.7 -0.35 -26.4 -0.95 -27.75 -1.55 -29.3 -3.6 -32.15 M-2.4 -26.95 L-3.05 -29.8 Q-1.95 -28.35 -2.4 -26.95 M-31.0 -41.2 Q-33.4 -39.7 -33.65 -40.0 -32.45 -41.15 -30.75 -42.05 L-28.75 -42.95 Q-28.55 -42.75 -31.0 -41.2 M-24.85 -31.7 Q-28.8 -32.55 -34.1 -26.4 L-35.45 -24.7 Q-38.05 -19.55 -38.05 -13.85 L-38.0 -12.15 Q-36.05 -14.5 -32.4 -20.9 L-30.15 -24.7 -24.65 -30.7 -24.85 -31.7" fill="#ebe8e0" fill-rule="evenodd" stroke="none"/>
    <path d="M10.9 -3.4 L10.9 -12.0 9.25 -7.3 Q7.95 -3.95 6.05 -2.2 9.95 -8.7 9.95 -15.25 9.95 -17.75 8.9 -21.75 L8.3 -24.7 Q8.45 -26.25 8.85 -27.3 10.3 -26.2 10.9 -24.75 L10.9 -23.8 10.9 -17.1 11.65 -15.4 Q12.95 -11.6 12.95 -3.75 L12.2 3.65 11.7 -0.6 10.95 -0.8 10.9 -0.6 10.9 -3.4 M5.95 -16.75 L5.05 -24.7 5.25 -26.15 4.85 -24.7 Q4.5 -14.25 3.4 -10.85 2.9 -9.35 -0.3 -5.45 L-7.0 -5.25 -10.35 -8.85 -13.35 -7.4 Q-16.55 -6.15 -19.45 -6.15 -25.45 -6.15 -25.45 -8.9 -25.45 -9.75 -26.6 -13.15 -27.95 -17.1 -29.1 -18.35 -29.2 -18.8 -30.8 -13.05 -32.6 -6.65 -33.5 -6.65 L-42.8 -7.05 -42.9 -9.7 Q-43.25 -10.95 -45.15 -12.1 L-47.35 -9.9 Q-49.75 -7.7 -50.65 -7.65 L-58.65 -8.95 Q-59.15 -17.5 -56.45 -24.7 L-54.25 -27.9 Q-48.0 -36.2 -42.6 -36.2 L-38.25 -35.5 -31.45 -34.85 -28.5 -35.1 -24.6 -35.75 -22.65 -34.95 -21.4 -34.6 -18.0 -35.6 Q-14.75 -36.65 -10.65 -36.65 L-7.6 -36.6 -7.1 -36.55 Q0.1 -36.0 3.4 -32.8 6.55 -29.85 6.15 -24.7 L6.45 -21.0 Q6.45 -19.1 5.95 -16.75 M-25.65 -35.7 Q-29.25 -35.3 -34.5 -36.6 L-41.25 -38.45 Q-40.25 -42.75 -32.25 -45.7 -22.75 -49.25 -6.4 -49.25 6.35 -49.25 16.15 -44.4 L15.65 -42.5 18.75 -40.2 Q22.05 -37.45 24.2 -34.15 L25.45 -19.5 23.2 -24.7 Q22.4 -27.85 20.95 -30.55 18.5 -35.25 14.5 -38.15 L14.65 -38.8 15.25 -41.05 Q8.25 -44.85 -2.95 -44.85 -12.9 -44.85 -19.95 -40.6 -23.2 -38.65 -25.65 -35.7 M26.45 -8.1 L26.85 -2.9 25.5 -1.25 25.6 22.3 25.35 25.75 25.65 25.7 25.75 50.25 26.75 46.35 Q29.65 52.25 31.2 53.45 32.75 54.65 39.4 55.4 38.1 56.25 35.15 57.25 L31.3 58.25 Q30.7 58.25 29.3 57.4 L27.65 56.4 27.15 56.5 27.75 58.15 Q26.1 55.8 24.15 49.95 22.35 44.35 22.35 42.25 L23.15 28.6 Q23.9 13.55 23.9 8.35 23.9 -12.65 19.85 -24.7 19.6 -28.4 18.75 -31.25 20.35 -28.1 21.3 -24.7 23.35 -20.85 24.65 -16.6 25.8 -12.75 26.4 -8.3 L26.45 -8.1 M3.5 -26.1 Q3.15 -31.1 0.85 -32.9 -1.8 -34.9 -9.05 -34.9 L-20.65 -33.65 Q-28.35 -32.45 -30.7 -31.4 -35.1 -29.5 -37.3 -27.55 -38.35 -26.6 -39.7 -26.85 L-34.8 -33.1 Q-42.1 -30.25 -47.2 -24.7 -51.3 -18.4 -51.65 -8.6 -49.05 -9.9 -47.15 -12.85 -44.7 -16.85 -42.7 -18.65 L-42.25 -13.65 -41.8 -8.95 -35.65 -8.9 Q-34.45 -8.9 -33.15 -13.4 -31.35 -19.8 -28.75 -23.9 L-28.0 -23.65 Q-27.15 -14.55 -23.3 -10.7 -20.8 -8.15 -17.5 -8.15 -12.25 -8.15 -9.35 -11.95 -7.05 -14.95 -6.5 -19.8 -6.05 -17.95 -5.7 -15.55 L-5.45 -12.85 -5.9 -10.2 Q-6.2 -8.25 -5.55 -7.75 -0.05 -7.65 2.35 -15.6 4.1 -21.15 3.5 -24.7 L3.5 -26.1 M11.1 32.85 Q13.3 14.55 13.95 12.25 14.35 16.35 14.35 20.05 14.35 24.4 13.25 34.0 L12.5 31.4 11.1 32.85 M12.3 55.55 Q13.6 62.25 18.4 66.15 22.95 69.8 29.2 69.9 27.8 70.85 26.2 70.85 19.0 70.85 15.65 67.1 12.4 63.45 12.3 55.55 M27.45 68.05 L24.0 67.65 23.1 67.2 24.65 66.95 Q27.7 66.3 30.65 64.2 33.5 62.2 34.9 59.8 L37.9 58.5 Q36.2 62.6 34.2 64.15 31.8 66.05 26.95 66.3 L27.45 68.05 M40.95 55.35 Q44.2 54.9 45.6 53.6 45.15 54.65 42.9 57.3 40.6 60.0 39.7 60.5 L38.45 61.05 40.0 58.45 Q40.8 56.8 40.95 55.35 M46.2 51.55 L41.9 52.45 38.6 53.35 Q33.95 53.35 33.2 52.6 31.25 49.8 26.9 45.75 L26.9 24.45 28.85 43.3 Q31.6 52.2 40.15 52.2 L43.1 51.7 Q45.25 50.95 46.25 49.35 L46.2 51.55 M-54.2 -14.6 Q-54.15 -18.05 -50.8 -23.95 L-50.35 -24.7 Q-44.7 -31.2 -38.65 -34.45 L-38.95 -34.6 -40.05 -34.8 Q-45.3 -34.8 -50.1 -29.9 -52.35 -27.6 -54.05 -24.7 -55.15 -21.25 -55.3 -16.95 L-55.3 -14.7 -54.2 -14.6 M-14.0 -43.9 Q-9.2 -45.3 -9.1 -45.8 L-13.35 -46.3 Q-19.15 -46.3 -24.05 -42.9 -27.55 -40.45 -28.4 -38.5 L-28.65 -37.8 Q-22.2 -41.2 -19.15 -42.45 L-14.0 -43.9 M-31.0 -41.2 Q-28.55 -42.75 -28.75 -42.95 L-30.75 -42.05 Q-32.45 -41.15 -33.65 -40.0 -33.4 -39.7 -31.0 -41.2" fill="#cbc8c0" fill-rule="evenodd" stroke="none"/>
    <path d="M14.65 -38.8 L14.5 -38.15 13.7 -35.25 15.0 -33.3 Q16.3 -30.85 16.7 -29.3 L17.25 -24.7 18.05 -22.15 Q22.8 13.05 22.8 22.95 L22.55 26.4 22.0 29.75 Q17.05 21.35 15.75 3.25 15.1 -6.0 14.8 -16.3 14.2 -19.1 10.9 -23.8 L10.9 -24.75 12.3 -29.95 11.7 -30.85 Q8.1 -36.3 3.6 -36.3 L-7.1 -36.55 -7.6 -36.6 Q1.5 -38.55 -2.9 -37.65 L-8.4 -36.75 -7.35 -39.35 Q-9.65 -38.3 -12.75 -37.7 L-17.85 -37.0 Q-14.9 -40.5 -8.5 -42.05 -4.35 -43.1 0.0 -43.1 9.95 -43.1 14.65 -38.8 M14.8 39.5 L15.25 28.8 15.55 22.0 Q18.05 25.55 18.9 31.95 19.75 37.8 19.1 45.2 18.55 51.7 21.2 57.05 23.75 62.3 27.75 63.25 26.45 64.15 26.45 64.7 L23.85 64.95 Q21.15 64.95 18.0 61.7 13.7 57.3 13.7 49.75 L14.8 39.5 M-42.9 -24.7 L-44.45 -20.5 -46.15 -14.65 -46.4 -14.7 Q-46.75 -14.95 -46.75 -17.0 -46.75 -20.5 -44.9 -24.05 L-44.55 -24.7 Q-42.15 -27.6 -40.15 -28.15 L-42.9 -24.7 M-2.4 -26.95 Q-1.95 -28.35 -3.05 -29.8 L-2.4 -26.95 M-3.6 -32.15 Q-1.55 -29.3 -0.95 -27.75 -0.35 -26.4 -0.35 -24.7 0.05 -23.2 0.05 -21.5 0.05 -19.45 -1.2 -16.45 -2.5 -13.35 -3.9 -12.6 -2.8 -16.7 -3.9 -23.3 L-4.1 -24.7 -3.6 -32.15 M-17.05 -32.7 L-14.1 -33.1 Q-9.25 -33.1 -7.2 -31.05 -5.4 -29.3 -6.15 -26.5 L-6.7 -24.7 Q-6.9 -21.35 -7.95 -19.3 -8.9 -17.6 -9.7 -17.6 -10.15 -17.6 -12.3 -14.3 -14.5 -10.8 -17.05 -10.3 -18.0 -11.3 -19.05 -17.65 L-19.05 -16.65 -21.35 -16.65 -22.15 -24.7 -20.95 -31.75 -17.05 -32.7 M-24.85 -31.7 L-24.65 -30.7 -30.15 -24.7 -32.4 -20.9 Q-36.05 -14.5 -38.0 -12.15 L-38.05 -13.85 Q-38.05 -19.55 -35.45 -24.7 L-34.1 -26.4 Q-28.8 -32.55 -24.85 -31.7" fill="#ffffff" fill-rule="evenodd" stroke="none"/>
  </g>
</svg>
