<?xml version="1.0" encoding="UTF-8" standalone="no"?>
<svg xmlns:ffdec="https://www.free-decompiler.com/flash" xmlns:xlink="http://www.w3.org/1999/xlink" ffdec:objectType="shape" height="38.75px" width="43.15px" xmlns="http://www.w3.org/2000/svg">
  <g transform="matrix(1.0, 0.0, 0.0, 1.0, 22.35, 3.4)">
    <path d="M4.05 -0.55 L4.6 -0.25 Q3.75 -0.75 5.6 0.2 L9.3 1.95 Q10.9 2.65 13.75 5.6 L17.0 9.0 Q19.05 11.25 19.05 11.9 19.05 13.8 15.55 15.95 L12.0 17.8 Q12.0 18.8 10.65 18.2 L10.65 18.15 1.5 19.35 -1.35 18.65 Q-3.4 17.95 -4.05 17.3 1.15 11.8 7.55 11.35 L11.05 11.2 Q12.3 10.95 12.3 9.7 12.3 8.6 10.05 6.7 7.7 4.7 5.95 4.7 L-0.6 6.65 -3.5 5.65 Q-6.7 4.65 -8.4 4.75 L-9.3 4.9 Q-8.4 3.1 -7.1 2.1 -4.75 0.2 0.05 0.85 L-0.3 -1.15 -0.4 -1.35 0.9 -1.15 4.05 -0.55 M-7.95 18.05 Q-8.9 19.55 -10.05 24.65 -10.9 28.7 -12.15 28.7 L-14.35 28.15 -17.3 27.2 -17.35 27.2 Q-19.2 26.1 -20.05 22.0 -20.7 19.05 -20.7 15.6 -20.7 14.0 -19.75 12.95 L-19.95 13.45 -20.2 14.7 Q-20.2 17.4 -19.55 19.2 -19.1 20.55 -18.8 20.55 -18.65 20.55 -17.75 23.05 L-17.7 23.1 Q-17.1 22.5 -15.55 19.0 -14.0 15.6 -14.0 14.95 -14.0 14.4 -12.65 13.9 L-11.15 13.55 Q-9.65 13.55 -9.05 14.75 -8.65 15.55 -7.95 18.05 M7.65 31.5 L5.45 31.3 3.7 31.0 3.4 23.55 3.6 22.2 3.75 21.0 8.35 20.45 Q10.3 21.0 11.45 22.85 12.25 24.15 12.25 24.95 12.25 26.1 10.95 28.15 9.5 30.5 7.65 31.5 M-3.55 33.65 Q-6.75 33.75 -8.3 32.15 -9.4 31.05 -9.4 29.55 -9.4 27.15 -8.7 24.15 -8.15 21.7 -7.8 21.25 -4.8 21.55 -2.65 23.0 -0.25 24.6 -0.25 26.85 -0.25 27.25 -1.2 29.5 -2.35 32.3 -3.55 33.65" fill="#83563a" fill-rule="evenodd" stroke="none"/>
    <path d="M2.35 -2.9 L2.9 -1.9 4.05 -0.55 0.9 -1.15 -0.4 -1.35 -0.3 -1.15 0.05 0.85 Q-4.75 0.2 -7.1 2.1 -8.4 3.1 -9.3 4.9 L-8.4 4.75 Q-6.7 4.65 -3.5 5.65 L-0.6 6.65 5.95 4.7 Q7.7 4.7 10.05 6.7 12.3 8.6 12.3 9.7 12.3 10.95 11.05 11.2 L7.55 11.35 Q1.15 11.8 -4.05 17.3 -4.05 13.2 -0.3 10.3 3.4 7.35 8.65 7.35 L8.5 7.25 0.95 7.55 Q-3.0 8.9 -4.9 8.9 L-6.35 8.5 -7.85 8.1 Q-10.0 8.1 -13.1 11.0 L-16.45 13.85 -18.0 13.8 -18.95 13.85 -17.85 14.45 Q-17.15 14.8 -17.15 15.35 L-17.5 18.1 -17.9 20.8 -18.05 21.15 -18.0 21.3 -17.9 21.65 Q-17.05 16.7 -13.6 13.05 -10.5 9.75 -7.85 9.75 -5.85 9.75 -5.85 11.8 -5.85 14.65 -6.4 15.95 -6.7 16.65 -7.95 18.05 -8.65 15.55 -9.05 14.75 -9.65 13.55 -11.15 13.55 L-12.65 13.9 Q-14.0 14.4 -14.0 14.95 -14.0 15.6 -15.55 19.0 -17.1 22.5 -17.7 23.1 L-17.75 23.05 Q-18.65 20.55 -18.8 20.55 -19.1 20.55 -19.55 19.2 -20.2 17.4 -20.2 14.7 L-19.95 13.45 -19.75 12.95 Q-11.05 5.15 -3.15 -3.3 L-1.35 -3.4 2.35 -2.9 M7.65 31.5 Q9.5 30.5 10.95 28.15 12.25 26.1 12.25 24.95 12.25 24.15 11.45 22.85 10.3 21.0 8.35 20.45 L12.35 19.4 12.4 19.5 13.45 22.05 13.9 23.8 15.05 26.45 15.05 26.55 Q15.0 27.55 12.4 29.45 9.5 31.6 7.65 31.5 M-7.8 21.25 L-6.15 19.7 -5.0 18.75 Q-4.2 18.75 -3.2 19.3 -1.45 20.25 0.3 20.9 3.35 22.05 3.0 26.55 2.85 28.85 2.05 30.95 2.05 31.95 0.25 32.95 -1.7 34.05 -3.55 33.65 -2.35 32.3 -1.2 29.5 -0.25 27.25 -0.25 26.85 -0.25 24.6 -2.65 23.0 -4.8 21.55 -7.8 21.25" fill="#724931" fill-rule="evenodd" stroke="none"/>
    <path d="M2.35 -2.9 L2.5 -2.85 Q5.35 -1.9 12.6 3.5 20.8 9.55 20.8 12.25 20.8 14.15 18.85 16.25 16.7 18.55 14.0 18.85 15.15 22.2 16.3 23.95 16.75 24.6 16.75 26.8 16.75 28.45 13.5 30.75 10.05 33.2 7.05 33.2 L5.2 32.85 3.3 32.45 Q2.55 32.45 0.45 33.9 -1.65 35.35 -2.45 35.35 -5.9 35.35 -8.05 34.5 -11.45 33.2 -11.1 30.0 L-11.15 30.3 -11.85 30.4 Q-19.1 30.4 -21.2 25.95 -22.35 23.5 -22.35 16.1 -22.35 14.05 -17.4 8.3 -12.6 2.7 -11.35 2.7 L-9.55 0.3 Q-7.55 -2.35 -3.15 -3.3 -11.05 5.15 -19.75 12.95 -20.7 14.0 -20.7 15.6 -20.7 19.05 -20.05 22.0 -19.2 26.1 -17.35 27.2 L-17.3 27.2 -14.35 28.15 -12.15 28.7 Q-10.9 28.7 -10.05 24.65 -8.9 19.55 -7.95 18.05 -6.7 16.65 -6.4 15.95 -5.85 14.65 -5.85 11.8 -5.85 9.75 -7.85 9.75 -10.5 9.75 -13.6 13.05 -17.05 16.7 -17.9 21.65 L-18.0 21.3 -18.05 21.15 -17.9 20.8 -17.5 18.1 -17.15 15.35 Q-17.15 14.8 -17.85 14.45 L-18.95 13.85 -18.0 13.8 -16.45 13.85 -13.1 11.0 Q-10.0 8.1 -7.85 8.1 L-6.35 8.5 -4.9 8.9 Q-3.0 8.9 0.95 7.55 L8.5 7.25 8.65 7.35 Q3.4 7.35 -0.3 10.3 -4.05 13.2 -4.05 17.3 -3.4 17.95 -1.35 18.65 L1.5 19.35 10.65 18.15 10.65 18.2 Q12.0 18.8 12.0 17.8 L15.55 15.95 Q19.05 13.8 19.05 11.9 19.05 11.25 17.0 9.0 L13.75 5.6 Q10.9 2.65 9.3 1.95 L5.6 0.2 Q3.75 -0.75 4.6 -0.25 L4.05 -0.55 2.9 -1.9 2.35 -2.9 M8.35 20.45 L3.75 21.0 3.6 22.2 3.4 23.55 3.7 31.0 5.45 31.3 7.65 31.5 Q9.5 31.6 12.4 29.45 15.0 27.55 15.05 26.55 L15.05 26.45 13.9 23.8 13.45 22.05 12.4 19.5 12.35 19.4 8.35 20.45 M-3.55 33.65 Q-1.7 34.05 0.25 32.95 2.05 31.95 2.05 30.95 2.85 28.85 3.0 26.55 3.35 22.05 0.3 20.9 -1.45 20.25 -3.2 19.3 -4.2 18.75 -5.0 18.75 L-6.15 19.7 -7.8 21.25 Q-8.15 21.7 -8.7 24.15 -9.4 27.15 -9.4 29.55 -9.4 31.05 -8.3 32.15 -6.75 33.75 -3.55 33.65" fill="#312015" fill-rule="evenodd" stroke="none"/>
  </g>
</svg>
