<?xml version="1.0" encoding="UTF-8" standalone="no"?>
<svg xmlns:ffdec="https://www.free-decompiler.com/flash" xmlns:xlink="http://www.w3.org/1999/xlink" ffdec:objectType="shape" height="146.6px" width="127.0px" xmlns="http://www.w3.org/2000/svg">
  <g transform="matrix(1.0, 0.0, 0.0, 1.0, 0.0, 146.6)">
    <path d="M98.45 -143.55 L97.8 -143.9 Q90.1 -145.0 85.75 -137.15 L85.2 -136.55 90.25 -136.4 92.3 -136.65 Q98.2 -137.55 98.45 -143.55 M84.35 -136.9 L86.7 -140.1 Q90.15 -145.6 96.4 -145.65 97.15 -145.65 97.65 -145.25 102.0 -141.65 96.75 -137.65 90.9 -133.15 84.2 -135.35 L83.35 -135.65 82.4 -136.05 82.25 -136.1 Q82.1 -136.85 82.8 -137.25 L83.8 -136.6 84.35 -136.9 M83.95 -130.15 L83.7 -130.25 83.85 -130.4 Q85.0 -131.7 86.5 -131.8 L96.4 -130.5 Q101.95 -127.15 98.75 -123.55 L94.8 -124.1 90.95 -124.35 88.9 -124.65 90.05 -123.4 90.7 -121.95 90.55 -121.3 90.4 -121.1 Q85.4 -121.85 81.0 -123.95 L80.0 -124.45 79.2 -124.95 78.05 -125.6 75.9 -127.1 76.05 -127.3 78.95 -127.85 82.35 -127.65 85.6 -126.65 Q84.7 -127.8 84.7 -129.45 L84.75 -129.95 83.95 -130.15 M80.7 -123.25 L82.5 -122.45 82.7 -121.9 84.6 -120.85 Q88.05 -119.1 86.6 -116.2 L78.1 -115.85 80.15 -115.15 Q83.3 -113.55 84.6 -110.15 85.25 -108.5 85.3 -106.8 L85.1 -105.15 84.4 -104.25 Q83.55 -103.55 81.85 -103.9 75.2 -105.3 72.1 -109.9 L71.5 -110.95 71.0 -111.9 70.45 -113.35 69.85 -115.6 70.3 -115.75 73.0 -116.3 75.75 -116.3 73.45 -117.0 70.95 -118.0 Q69.85 -118.5 69.05 -119.25 67.95 -120.25 67.45 -121.8 67.0 -123.2 68.15 -123.8 L68.85 -124.05 Q73.15 -125.25 77.5 -124.25 L79.0 -123.85 79.8 -123.6 80.7 -123.25 M86.7 -101.95 L89.0 -101.55 Q90.7 -101.1 92.2 -99.95 L92.95 -99.4 93.0 -99.5 93.25 -100.05 93.35 -100.05 94.85 -100.65 Q93.5 -101.2 92.45 -102.3 L92.45 -102.5 92.55 -103.55 93.65 -104.45 95.45 -105.05 Q103.45 -106.6 105.85 -100.5 103.65 -99.6 101.25 -99.6 105.95 -99.1 107.85 -95.65 99.5 -93.3 93.05 -99.0 L90.85 -97.3 Q89.15 -96.4 86.9 -96.4 L83.1 -96.95 82.9 -97.4 81.95 -97.8 Q78.9 -98.9 80.6 -100.8 83.05 -101.85 85.3 -101.95 L86.7 -101.95 M91.9 -105.6 Q90.7 -105.8 89.55 -106.4 84.7 -108.9 86.5 -112.15 L86.85 -110.3 Q88.8 -107.25 92.9 -106.6 L93.0 -106.6 94.8 -106.65 94.95 -107.75 94.6 -108.2 93.8 -109.1 Q90.9 -112.35 86.55 -112.2 L86.95 -112.8 Q92.4 -112.85 94.8 -108.85 L95.75 -106.75 95.9 -106.35 95.8 -106.05 94.7 -105.7 91.9 -105.6 M95.15 -110.0 L95.1 -110.0 Q90.1 -112.85 92.5 -118.05 97.6 -115.55 95.75 -109.85 L95.55 -109.85 95.15 -110.0 M96.6 -107.8 Q99.55 -112.3 104.7 -111.2 105.35 -111.05 105.2 -110.5 103.15 -104.45 96.55 -106.7 L96.4 -107.2 96.55 -107.65 96.6 -107.8 M90.45 -95.15 L90.85 -95.05 Q93.5 -94.8 95.05 -93.5 L94.4 -92.6 93.55 -93.05 Q91.9 -93.9 90.15 -93.9 L88.0 -93.6 88.5 -93.2 89.85 -92.3 Q91.75 -91.1 93.95 -90.65 L93.95 -89.75 Q91.55 -89.8 89.6 -91.25 88.3 -92.2 87.2 -93.75 L87.3 -94.15 Q88.25 -95.8 90.45 -95.15 M103.35 -89.55 L105.15 -87.3 104.15 -89.2 Q102.3 -92.35 104.35 -94.6 L104.9 -94.3 Q107.7 -91.8 107.95 -88.6 L107.0 -88.15 106.9 -88.85 106.7 -90.3 Q106.35 -92.6 104.2 -93.2 L104.45 -90.7 106.25 -87.75 104.6 -86.8 103.5 -89.2 103.35 -89.55 M108.95 -89.05 L109.05 -89.5 Q110.35 -94.0 114.2 -91.7 L114.05 -89.25 113.05 -89.55 113.15 -91.4 112.6 -91.4 Q110.6 -91.05 110.1 -89.4 L108.95 -89.05 M116.25 -85.95 L118.55 -86.1 119.35 -85.5 Q120.55 -84.0 118.85 -83.2 116.65 -82.15 114.55 -82.4 L115.4 -83.5 115.45 -83.5 Q117.5 -82.9 118.75 -84.15 L118.4 -84.7 116.0 -84.65 116.25 -85.95 M113.4 -81.4 Q116.7 -80.9 119.7 -79.7 121.8 -78.9 123.3 -77.05 124.3 -75.9 124.0 -74.5 123.4 -73.85 122.45 -73.85 118.1 -73.95 114.0 -75.65 110.95 -77.0 110.55 -79.7 L110.55 -79.8 110.9 -80.0 111.5 -80.3 111.4 -79.85 111.4 -79.8 112.1 -78.8 Q116.95 -75.0 122.9 -75.15 L122.2 -76.7 121.15 -77.55 Q117.2 -80.35 112.4 -80.4 L111.7 -80.4 113.4 -81.4 M111.05 -73.5 L112.75 -73.05 Q118.9 -71.45 119.5 -65.8 L119.2 -65.75 Q113.05 -64.95 109.5 -67.85 L110.45 -68.65 Q113.95 -66.35 118.4 -66.35 L118.5 -67.35 117.95 -68.1 Q115.2 -71.8 111.2 -72.6 L111.15 -72.95 111.05 -73.5 M107.1 -67.3 Q109.45 -65.7 111.25 -63.3 114.45 -59.05 113.05 -54.2 112.6 -52.75 111.3 -53.45 103.1 -58.1 104.4 -68.75 105.8 -67.5 107.1 -67.3 M104.8 -49.75 L103.4 -52.4 Q102.95 -53.5 103.05 -54.6 103.15 -57.25 105.9 -55.45 109.2 -53.15 111.15 -49.75 L111.65 -48.75 112.9 -45.45 113.35 -43.35 Q113.55 -44.65 114.75 -44.6 L116.75 -44.5 118.25 -44.45 120.5 -44.25 Q122.55 -43.85 124.1 -42.8 L125.0 -42.15 126.0 -41.1 126.2 -40.85 126.0 -40.35 125.9 -40.2 Q125.2 -39.0 124.1 -38.3 L123.85 -38.1 122.75 -37.65 123.25 -37.6 122.55 -37.3 121.95 -37.05 121.95 -37.1 122.2 -37.3 Q120.2 -36.7 118.3 -37.25 L117.45 -37.55 Q115.8 -38.25 114.8 -39.45 114.05 -40.4 113.6 -41.7 L113.55 -41.85 113.35 -43.15 113.0 -42.4 111.95 -42.6 Q109.9 -43.8 108.2 -45.45 106.7 -46.9 105.45 -48.75 L104.8 -49.75 M113.55 -49.75 L113.45 -50.65 Q112.75 -58.75 119.1 -63.1 120.4 -63.7 120.75 -62.4 122.75 -55.75 119.2 -50.1 L119.15 -50.05 118.95 -49.75 118.2 -48.75 117.85 -48.35 117.8 -48.25 117.1 -47.4 117.7 -47.9 Q118.9 -48.65 120.25 -48.65 122.75 -48.75 123.25 -46.25 122.85 -45.45 122.05 -45.3 L120.8 -45.15 118.6 -45.45 Q117.95 -45.65 117.25 -46.0 L116.95 -46.15 Q116.05 -46.25 115.35 -46.6 114.25 -47.25 113.8 -48.75 L113.55 -49.75 M120.15 -50.6 L120.25 -50.8 Q121.55 -53.0 124.1 -52.45 L124.05 -51.4 Q123.85 -50.7 123.15 -50.2 L122.5 -49.75 Q121.4 -49.2 120.7 -49.75 L120.5 -49.9 120.1 -50.45 120.15 -50.6 M8.75 -49.3 Q5.35 -49.05 2.9 -50.3 2.65 -51.25 3.3 -52.05 4.55 -53.5 6.0 -54.25 6.25 -53.75 6.75 -53.4 L6.8 -53.35 Q4.85 -52.7 3.65 -51.15 L4.8 -50.7 Q7.45 -49.85 9.1 -50.1 10.65 -50.4 12.15 -51.8 L12.5 -52.75 12.75 -53.5 11.85 -53.7 12.7 -54.35 13.95 -53.65 13.55 -52.0 13.05 -50.4 12.15 -50.1 10.95 -49.75 9.4 -49.4 8.75 -49.3 M5.85 -57.7 Q4.45 -58.8 3.6 -60.75 L3.6 -62.35 6.5 -62.15 Q7.55 -62.1 8.45 -61.65 L7.8 -60.95 Q6.85 -61.5 5.7 -61.75 L4.2 -61.05 Q5.1 -59.65 6.3 -58.85 L6.05 -58.3 5.85 -57.7 M21.95 -74.6 L21.85 -74.7 Q21.05 -75.55 21.7 -76.6 24.3 -80.8 28.2 -79.5 L29.7 -78.8 29.6 -77.5 Q29.2 -75.45 27.15 -74.25 25.5 -73.3 24.15 -73.45 L23.7 -73.85 Q22.95 -74.55 21.95 -74.6 M25.75 -82.6 L24.25 -82.9 24.9 -82.2 24.2 -81.1 Q18.2 -75.9 9.85 -75.15 L7.35 -75.6 Q4.55 -76.9 7.75 -79.3 14.95 -84.65 24.05 -83.0 22.75 -83.75 23.3 -85.1 L23.35 -85.15 24.35 -87.4 25.1 -89.15 Q27.5 -95.15 32.55 -96.95 L33.1 -96.25 Q34.55 -94.2 34.4 -91.55 L34.7 -92.1 34.85 -92.3 Q39.1 -97.6 45.3 -98.45 L48.5 -98.55 48.95 -98.2 Q50.3 -97.1 50.65 -95.35 50.9 -93.9 50.2 -93.15 L49.7 -92.75 49.1 -92.45 48.0 -91.9 46.8 -91.4 Q40.9 -89.05 34.6 -90.3 L34.6 -90.35 34.5 -90.75 Q34.15 -87.6 32.1 -85.3 30.6 -83.7 28.85 -83.05 27.4 -82.5 25.75 -82.6 M21.45 -86.7 Q19.6 -85.1 16.3 -86.15 7.35 -88.7 5.6 -97.9 5.55 -99.6 7.05 -99.55 15.1 -99.05 19.5 -92.5 L20.75 -90.35 20.85 -90.25 21.4 -89.0 21.2 -89.95 Q20.95 -91.6 21.5 -93.15 22.55 -96.1 25.45 -95.7 26.1 -94.9 25.95 -93.95 25.25 -90.85 22.95 -88.6 L22.35 -87.75 21.45 -86.7 M19.35 -93.9 L19.2 -94.05 Q17.45 -96.55 19.2 -99.3 L20.3 -98.45 21.2 -97.25 Q21.85 -94.8 20.25 -94.05 L19.75 -93.9 19.35 -93.9 M45.15 -99.45 Q43.05 -98.75 40.6 -98.9 37.2 -98.45 35.75 -100.95 35.6 -101.2 35.85 -101.35 40.15 -103.25 44.7 -102.1 L46.65 -101.5 46.95 -100.95 46.85 -100.3 46.35 -100.05 45.15 -99.45 M44.55 -103.8 Q39.75 -103.7 35.05 -104.75 31.15 -105.5 30.35 -108.9 30.0 -110.5 31.5 -110.75 38.7 -111.9 44.15 -107.8 L46.75 -105.45 46.6 -104.55 46.6 -104.5 45.1 -103.85 44.55 -103.8 M43.6 -111.7 L39.85 -112.1 33.9 -113.1 Q27.7 -112.9 24.8 -117.05 24.95 -119.6 27.9 -119.6 35.1 -119.55 41.45 -116.9 L41.35 -115.95 Q34.05 -119.05 26.25 -118.15 L25.95 -117.15 Q28.05 -115.05 31.25 -114.4 36.5 -113.3 41.85 -113.35 42.35 -112.25 43.55 -111.75 L43.6 -111.7 M41.85 -118.55 L39.65 -119.3 Q33.15 -121.55 33.6 -127.45 L37.05 -127.9 37.9 -126.85 Q36.3 -127.05 34.45 -126.85 33.95 -126.3 34.2 -125.55 35.0 -123.45 36.9 -121.9 39.7 -119.7 42.25 -119.55 L41.85 -118.55 M58.25 -138.1 L58.7 -138.9 Q64.0 -138.75 65.8 -133.3 L65.35 -132.7 65.5 -132.15 65.35 -132.0 65.2 -131.85 Q64.7 -131.4 64.05 -131.6 L63.25 -131.95 Q60.85 -133.0 59.1 -135.1 59.05 -137.0 58.25 -138.1 M66.15 -130.25 L67.2 -131.25 68.45 -132.0 71.8 -132.75 Q76.65 -132.6 73.7 -128.8 70.65 -126.1 67.4 -126.25 L66.3 -126.4 66.1 -126.4 64.9 -126.8 Q65.1 -128.9 66.15 -130.25 M67.9 -133.35 Q66.95 -133.75 66.55 -134.55 65.1 -137.4 67.3 -139.0 L68.9 -137.2 69.05 -135.5 68.9 -134.35 Q68.75 -133.7 68.25 -133.25 L67.9 -133.35 M79.75 -129.95 L79.6 -130.0 Q70.2 -134.15 71.95 -144.1 L72.25 -144.5 74.85 -144.4 Q80.3 -140.8 81.7 -135.45 82.3 -133.15 82.15 -130.45 L82.1 -129.95 81.2 -129.8 80.75 -129.5 79.75 -129.95 M82.85 -139.0 Q79.1 -140.8 81.55 -146.05 L82.6 -146.6 83.75 -146.05 Q86.35 -143.05 85.3 -139.15 L84.45 -138.75 Q84.0 -138.6 83.55 -138.75 L82.85 -139.0 M84.3 -143.0 L84.15 -143.55 Q83.55 -144.85 82.2 -145.35 L81.95 -141.4 82.95 -139.7 84.15 -139.7 84.3 -143.0 M81.3 -130.3 L81.55 -132.3 81.15 -133.9 Q79.25 -140.65 73.15 -144.05 L72.9 -143.75 Q72.2 -142.2 72.5 -140.35 L72.7 -139.3 Q74.55 -133.45 80.05 -130.8 L81.3 -130.3 M85.3 -128.85 L85.1 -128.5 Q85.55 -128.05 86.05 -127.75 92.35 -124.25 99.2 -124.9 L98.95 -126.2 98.7 -126.65 98.65 -126.65 97.9 -127.4 Q93.25 -131.3 86.8 -130.45 L85.3 -128.85 M94.25 -115.2 Q93.8 -116.25 92.75 -116.95 L92.6 -114.65 93.35 -113.2 Q94.1 -112.05 95.15 -111.35 L94.8 -113.55 94.25 -115.2 M86.05 -124.85 L81.9 -126.25 78.6 -126.95 77.4 -127.15 76.7 -126.9 78.25 -126.05 81.3 -124.65 Q85.3 -122.9 89.7 -122.05 L87.5 -124.25 86.05 -124.85 M83.55 -120.05 L82.35 -120.85 80.05 -121.95 76.95 -122.9 Q72.6 -123.9 68.5 -122.5 L68.15 -122.4 68.65 -121.9 Q71.15 -119.55 74.3 -118.15 L77.25 -117.15 84.55 -116.45 Q85.85 -116.4 86.2 -117.35 85.6 -118.6 84.5 -119.35 L83.8 -119.85 83.55 -120.05 M81.3 -113.1 L81.15 -112.65 80.55 -112.35 79.3 -113.25 Q77.6 -114.5 75.75 -114.95 L72.0 -115.1 70.85 -114.9 71.1 -114.1 Q71.8 -112.3 72.8 -110.8 74.75 -107.8 78.1 -105.8 82.05 -103.35 84.0 -105.35 L84.55 -106.05 84.9 -106.7 Q83.7 -110.35 81.3 -113.1 M81.8 -100.45 L80.55 -99.9 Q83.25 -97.85 86.7 -97.55 L90.7 -97.8 91.0 -97.85 91.9 -98.45 91.05 -99.75 Q90.0 -100.6 88.6 -100.8 L88.2 -100.8 87.2 -100.8 85.8 -100.45 85.75 -100.45 85.15 -100.75 81.8 -100.45 M97.6 -107.35 L97.7 -107.3 Q101.1 -106.8 104.05 -109.15 L104.8 -110.1 104.35 -110.65 104.05 -110.75 Q100.75 -111.05 98.75 -108.45 L97.6 -107.35 M95.3 -99.4 L94.25 -99.15 94.4 -99.0 94.65 -98.75 Q100.25 -95.55 106.85 -96.15 L104.9 -97.45 95.3 -99.4 M92.9 -102.9 Q93.5 -102.25 94.3 -101.95 99.55 -100.2 105.0 -101.1 L103.8 -102.7 102.25 -103.4 Q98.2 -105.05 93.85 -103.6 L92.9 -102.9 M44.0 -123.05 L43.7 -123.45 44.15 -123.3 44.0 -123.05 M40.3 -101.4 Q38.35 -102.25 36.55 -100.85 L37.55 -100.5 44.95 -100.7 45.3 -100.8 40.75 -101.15 40.3 -101.4 M31.1 -108.55 L31.3 -108.4 Q37.1 -104.55 44.4 -104.85 L45.4 -104.9 43.5 -107.15 Q38.2 -110.3 32.15 -110.2 L31.45 -109.25 31.1 -108.55 M68.25 -136.4 L67.3 -137.95 67.0 -137.3 Q66.6 -136.45 67.0 -135.45 L67.1 -135.25 68.25 -134.75 68.25 -136.4 M63.6 -130.1 L64.15 -129.65 64.35 -128.3 Q64.5 -127.45 64.2 -126.7 L63.7 -125.95 Q62.65 -125.55 61.8 -126.2 L57.55 -128.9 57.2 -129.1 57.6 -129.9 57.9 -130.5 59.6 -129.15 Q61.4 -127.45 63.0 -127.1 L63.05 -127.25 Q63.45 -128.35 62.45 -129.2 L59.9 -130.9 58.4 -131.6 58.75 -132.6 Q61.3 -132.0 63.6 -130.1 M64.95 -119.85 L65.8 -119.6 Q66.65 -117.7 65.1 -116.5 L64.65 -116.2 Q62.35 -114.75 59.95 -113.65 53.9 -110.85 49.35 -113.65 50.2 -114.65 51.15 -116.55 52.5 -117.65 53.95 -118.45 L54.75 -118.05 55.6 -117.65 Q53.55 -116.75 51.6 -115.45 L50.35 -114.35 50.85 -113.9 51.95 -113.85 Q59.2 -113.85 65.0 -118.15 L64.45 -119.1 64.15 -119.15 64.4 -119.95 64.95 -119.85 M65.1 -114.75 L65.35 -114.85 66.55 -114.7 67.3 -113.85 67.55 -113.55 Q69.0 -111.85 69.6 -109.95 L69.6 -109.85 Q70.0 -108.55 69.95 -107.15 69.9 -104.95 68.9 -102.55 76.15 -104.45 78.95 -98.0 L78.15 -97.5 Q74.1 -96.15 69.85 -96.75 L67.95 -96.85 Q65.65 -97.2 65.4 -98.8 65.25 -99.75 65.8 -101.1 L64.15 -101.15 62.35 -101.5 Q60.85 -102.0 60.25 -103.25 56.4 -111.35 65.1 -114.75 M64.8 -133.0 L64.1 -134.75 Q62.25 -137.1 59.3 -137.95 L59.3 -136.85 60.15 -135.6 Q61.35 -134.15 62.9 -133.45 L64.8 -133.0 M66.0 -127.5 L67.05 -127.45 Q70.9 -127.9 73.8 -130.7 L73.6 -131.4 72.85 -131.55 Q70.2 -131.4 67.8 -129.95 L67.3 -129.65 66.7 -129.2 66.3 -128.75 66.1 -128.2 66.0 -127.6 66.0 -127.5 M57.45 -127.05 L56.3 -127.5 57.15 -129.0 59.3 -127.35 59.0 -126.35 58.8 -126.45 58.15 -126.75 58.15 -126.8 57.9 -127.05 57.45 -127.05 M49.3 -108.85 L48.25 -108.45 47.65 -108.45 47.2 -108.45 47.05 -108.5 46.75 -108.45 47.3 -108.0 47.5 -107.95 Q51.9 -105.7 56.7 -107.95 L55.55 -108.8 54.2 -109.15 49.3 -108.85 M50.4 -103.3 L50.6 -101.35 Q54.2 -93.5 63.1 -95.15 L63.4 -95.2 63.95 -95.6 63.65 -96.75 63.45 -97.15 63.3 -97.4 Q58.75 -103.7 50.7 -103.7 L50.4 -103.3 M47.45 -106.85 Q46.4 -107.5 45.5 -108.55 L47.05 -109.85 Q49.05 -111.1 51.9 -111.1 56.85 -111.1 57.75 -107.35 L56.35 -106.5 Q51.1 -104.45 47.45 -106.85 M59.5 -107.15 Q59.4 -106.05 59.95 -105.15 61.55 -102.45 64.3 -102.2 L65.35 -102.2 66.25 -102.3 67.15 -102.55 68.45 -105.0 Q69.4 -109.65 66.4 -113.15 L65.5 -113.25 65.1 -113.2 Q60.3 -112.15 59.5 -107.15 M62.9 -93.95 Q59.3 -92.15 54.75 -94.8 51.75 -96.45 50.3 -99.6 47.45 -106.0 53.6 -104.75 L59.9 -102.1 Q62.45 -101.0 63.75 -99.0 L64.3 -98.05 64.85 -96.5 65.1 -95.5 Q64.05 -94.5 62.9 -93.95 M58.1 -76.6 Q56.5 -80.75 60.15 -81.6 L61.25 -80.05 Q62.4 -77.8 60.9 -75.0 L60.7 -74.6 60.4 -74.6 59.75 -74.7 59.6 -74.8 Q58.75 -75.15 58.3 -76.25 L58.1 -76.6 M61.55 -83.2 L60.5 -83.4 Q53.2 -84.95 51.6 -91.55 L51.85 -91.65 61.0 -91.4 62.45 -90.9 63.9 -90.2 64.6 -89.8 67.0 -87.85 69.2 -84.8 Q69.3 -83.5 68.0 -83.25 L66.4 -83.05 61.55 -83.2 M66.0 -99.5 L66.1 -99.05 66.7 -98.65 68.1 -98.25 Q72.8 -97.0 77.7 -98.2 L77.85 -98.5 76.75 -99.7 75.25 -100.65 Q71.75 -102.2 68.35 -101.1 67.4 -100.8 66.55 -100.3 L66.0 -99.5 M85.1 -89.05 Q82.8 -86.9 79.45 -86.85 L73.15 -87.35 70.9 -88.9 Q70.55 -89.85 71.3 -90.6 77.1 -96.25 86.5 -95.05 L86.7 -95.05 86.9 -93.8 Q87.25 -91.85 86.2 -90.25 L85.1 -89.05 M71.75 -89.65 L72.1 -89.3 Q73.1 -88.45 74.8 -87.95 82.65 -86.2 85.75 -92.75 L85.65 -93.35 Q84.7 -94.05 83.7 -94.05 L78.7 -93.8 Q73.15 -93.9 71.75 -89.65 M67.85 -84.25 L67.3 -85.3 67.0 -85.7 66.75 -86.0 66.25 -86.45 Q64.4 -88.2 62.2 -89.2 58.3 -91.1 53.4 -90.85 53.4 -90.4 53.65 -90.1 56.75 -85.8 61.65 -84.6 L66.5 -84.1 67.85 -84.25 M64.5 -70.2 L63.6 -69.9 62.45 -69.65 62.35 -69.7 61.95 -70.1 61.85 -70.5 Q61.55 -73.9 62.9 -76.15 L63.55 -77.15 Q64.45 -78.2 65.8 -78.95 66.4 -79.35 67.15 -79.6 L67.85 -79.7 Q68.95 -79.75 69.8 -79.0 69.9 -72.3 64.5 -70.2 M69.15 -76.75 Q69.5 -78.05 68.6 -78.95 L68.0 -78.95 Q66.7 -78.65 65.65 -77.95 63.3 -76.45 62.8 -73.1 L62.85 -70.95 Q63.1 -70.85 63.3 -71.05 L64.7 -71.3 Q66.75 -71.95 68.1 -74.3 L69.15 -76.75 M83.6 -71.75 Q81.2 -68.25 76.55 -67.7 69.8 -67.95 72.4 -74.85 73.7 -78.15 75.5 -80.95 79.3 -86.85 84.65 -86.35 L85.85 -86.15 86.1 -84.35 86.2 -82.85 Q86.4 -78.5 84.85 -74.3 L83.6 -71.75 M48.8 -96.35 L45.6 -96.95 Q40.5 -97.15 36.2 -92.8 L35.6 -91.85 35.45 -90.95 38.2 -90.95 43.7 -91.45 46.75 -91.65 47.95 -92.15 48.8 -93.05 Q49.55 -94.15 49.35 -95.95 L48.8 -96.35 M31.25 -80.15 Q34.8 -86.75 42.05 -87.8 43.2 -87.05 42.55 -85.75 39.35 -78.95 32.95 -77.75 L31.0 -77.5 Q30.55 -78.8 31.2 -80.05 L31.25 -80.15 M37.5 -78.0 L42.2 -81.0 Q45.7 -83.1 46.7 -79.8 L44.85 -78.1 Q42.9 -76.6 41.65 -76.6 L37.75 -76.8 37.5 -76.9 37.3 -77.9 37.5 -78.0 M34.15 -75.85 Q36.0 -75.8 38.05 -75.1 38.55 -72.35 37.4 -70.15 L36.9 -69.3 35.2 -67.5 34.3 -66.8 33.05 -66.1 Q31.35 -65.3 29.35 -65.25 23.95 -65.1 24.45 -68.8 L24.45 -68.85 24.85 -70.4 25.2 -71.3 Q27.7 -74.5 30.95 -75.45 L34.15 -75.85 M40.6 -61.95 L41.15 -60.15 41.15 -60.1 40.55 -56.55 Q40.0 -53.9 39.65 -53.2 38.9 -51.4 37.8 -49.75 L37.05 -48.75 36.15 -47.7 Q35.4 -46.85 34.65 -47.6 L33.7 -48.75 33.1 -49.75 Q31.85 -52.35 32.9 -55.7 34.4 -60.5 37.5 -61.65 L40.6 -61.95 M43.3 -53.6 Q50.2 -58.15 57.45 -55.4 L59.0 -54.8 58.55 -53.9 56.9 -52.3 Q55.2 -50.75 53.4 -49.75 52.3 -49.15 51.2 -48.75 47.95 -47.55 44.3 -47.75 L40.8 -48.25 40.7 -48.75 40.7 -49.75 Q40.8 -51.7 42.55 -53.05 L43.3 -53.6 M58.5 -63.1 Q49.7 -61.95 42.25 -66.35 L42.25 -66.7 Q42.35 -67.65 43.35 -68.2 51.05 -69.95 58.3 -67.0 L61.55 -65.45 61.55 -63.9 Q61.15 -63.5 60.7 -63.45 L58.5 -63.1 M57.6 -68.85 Q52.9 -69.9 49.25 -73.6 45.15 -77.8 50.45 -79.7 L50.95 -79.6 Q59.25 -77.6 61.7 -68.75 L61.5 -68.45 57.6 -68.85 M44.1 -78.6 L45.35 -79.5 45.2 -80.25 43.95 -80.15 Q42.1 -79.95 40.6 -78.95 L38.5 -77.8 42.2 -78.1 Q43.2 -78.2 44.1 -78.6 M58.6 -80.2 L58.6 -78.45 Q58.55 -77.45 59.35 -76.6 L60.35 -75.85 60.7 -78.2 60.55 -79.0 Q60.25 -80.25 58.95 -80.7 L58.6 -80.2 M54.4 -77.2 Q52.75 -78.35 51.45 -78.5 49.5 -78.8 48.25 -76.95 48.4 -74.85 50.2 -73.45 53.25 -71.25 56.7 -70.3 L60.55 -69.6 58.35 -73.25 Q56.65 -75.6 54.4 -77.2 M55.6 -66.7 Q50.15 -68.2 44.55 -67.3 L43.1 -66.9 43.1 -66.55 Q50.6 -63.0 58.55 -64.15 L60.35 -64.5 59.05 -65.7 58.5 -65.85 55.6 -66.7 M43.6 -52.2 L41.9 -50.1 41.85 -49.0 44.15 -48.8 Q47.5 -48.75 50.45 -49.75 54.25 -51.1 57.3 -54.25 L57.45 -54.4 56.5 -54.75 55.8 -54.9 Q48.3 -56.85 43.6 -52.2 M56.0 -48.05 L56.75 -48.1 56.9 -48.1 57.15 -47.9 57.15 -47.05 56.75 -45.75 56.65 -45.45 Q55.75 -43.55 54.4 -42.1 L54.0 -41.7 Q51.5 -39.25 47.45 -38.35 46.25 -38.1 46.4 -39.25 46.55 -40.55 46.95 -41.7 47.65 -44.0 49.25 -45.45 51.65 -47.7 56.0 -48.05 M60.45 -41.15 L60.1 -41.7 59.6 -42.6 Q59.2 -43.3 58.95 -43.95 L58.55 -45.4 58.55 -45.45 Q58.35 -47.55 60.15 -48.75 L61.75 -49.55 62.3 -49.75 64.0 -48.75 64.6 -48.4 68.7 -45.45 Q70.6 -43.75 72.15 -41.7 L72.6 -41.1 Q74.2 -38.85 74.4 -36.1 74.45 -34.7 73.3 -34.6 65.15 -34.0 60.45 -41.15 M62.15 -52.85 Q61.55 -54.0 62.4 -54.75 62.9 -55.2 63.8 -55.5 L64.35 -55.2 Q69.6 -53.6 73.5 -49.75 L74.05 -49.2 74.35 -48.75 74.45 -48.55 74.75 -47.1 74.55 -46.45 Q70.6 -46.65 67.0 -48.75 66.2 -49.2 65.45 -49.75 L63.45 -51.35 62.15 -52.85 M62.65 -57.1 L61.75 -57.7 61.4 -58.15 Q59.95 -60.6 61.45 -61.3 L63.15 -61.65 64.05 -61.65 69.05 -62.65 Q76.8 -63.6 79.95 -57.7 71.85 -54.35 62.7 -57.1 L62.65 -57.1 M63.5 -64.25 Q63.2 -64.55 63.05 -65.05 62.3 -67.25 64.1 -67.8 L65.65 -68.05 Q68.1 -67.75 70.5 -68.15 77.05 -68.2 80.15 -63.7 L79.8 -63.3 64.45 -63.9 Q63.9 -63.95 63.5 -64.25 M62.3 -60.45 L62.1 -60.5 61.55 -59.8 61.75 -58.95 62.7 -58.45 62.75 -58.45 Q70.65 -56.2 78.7 -58.3 L77.55 -59.35 76.5 -60.0 Q70.0 -62.9 63.4 -60.2 L62.4 -60.0 62.3 -60.45 M74.75 -69.55 L77.7 -69.35 Q81.8 -70.55 83.6 -73.5 85.2 -76.1 85.0 -80.15 L84.75 -85.7 84.55 -85.65 83.65 -85.4 Q77.15 -82.65 73.95 -76.25 70.8 -71.65 74.75 -69.55 M78.8 -64.1 L76.35 -65.5 74.6 -65.9 Q69.9 -67.15 65.0 -66.45 L63.8 -66.75 63.2 -66.25 63.2 -65.6 63.65 -65.2 Q64.6 -64.45 65.8 -64.2 72.3 -63.7 78.8 -64.1 M31.9 -95.8 L30.65 -94.65 Q27.35 -91.1 25.2 -86.7 L24.9 -84.05 27.55 -84.4 Q32.55 -85.7 33.1 -91.45 L32.8 -93.5 Q32.55 -94.75 31.9 -95.8 M63.7 -53.8 L62.95 -53.65 Q65.05 -51.35 67.6 -49.75 L69.45 -48.75 Q71.25 -47.85 73.25 -47.3 L73.95 -47.15 73.1 -48.65 73.0 -48.75 71.85 -49.75 71.8 -49.8 Q68.25 -52.9 63.7 -53.8 M20.4 -88.35 L20.35 -88.5 19.1 -90.9 Q14.85 -98.25 6.85 -98.45 7.3 -95.05 8.2 -93.85 9.95 -91.35 12.85 -89.4 16.4 -87.1 19.8 -87.15 L20.8 -87.7 20.4 -88.35 M22.6 -90.0 Q24.9 -91.95 25.35 -94.75 22.75 -94.15 22.35 -93.15 21.65 -91.45 22.6 -90.0 M23.3 -82.2 L22.75 -82.2 20.9 -82.3 Q13.05 -82.6 7.15 -77.55 L6.75 -76.45 9.7 -76.55 13.2 -76.75 Q19.55 -77.8 23.3 -82.2 M23.1 -77.5 Q22.15 -76.9 22.75 -76.05 24.85 -73.4 27.85 -76.5 L28.75 -78.2 27.4 -78.6 Q24.95 -79.05 23.1 -77.5 M32.9 -81.25 L32.55 -80.65 32.2 -79.6 31.95 -78.75 Q33.45 -79.35 35.15 -80.25 38.4 -82.0 39.45 -83.4 L41.4 -86.7 Q35.05 -83.85 32.9 -81.25 M34.9 -74.65 L34.45 -74.65 31.85 -73.95 Q30.4 -73.4 29.1 -72.5 L28.55 -72.95 Q25.4 -71.05 25.0 -67.65 L25.3 -67.25 Q27.1 -65.9 29.35 -66.15 32.8 -66.65 34.7 -68.55 36.0 -69.85 36.6 -71.75 L37.1 -74.25 36.3 -74.7 34.9 -74.65 M19.6 -98.4 Q18.9 -96.85 19.5 -95.5 L19.9 -94.85 20.55 -96.2 19.6 -98.4 M16.95 -56.85 L17.5 -56.4 18.8 -55.45 17.25 -53.7 Q16.6 -52.75 16.2 -51.45 L16.05 -50.55 16.0 -49.75 16.0 -49.6 19.4 -49.2 Q19.85 -49.4 20.25 -49.75 21.3 -50.7 21.75 -52.6 L21.6 -54.1 22.8 -53.95 Q23.3 -51.6 21.25 -49.75 L20.5 -49.15 19.95 -48.75 19.75 -48.65 Q18.4 -47.75 17.35 -47.65 16.05 -47.5 15.3 -48.65 L15.25 -48.75 14.9 -49.75 14.7 -50.55 15.4 -52.6 15.45 -52.7 16.75 -54.9 Q17.1 -55.4 16.7 -55.0 16.35 -54.65 14.9 -54.05 14.5 -54.35 13.95 -55.5 L13.9 -55.6 14.8 -56.65 15.4 -55.6 15.75 -55.25 16.3 -55.95 16.95 -56.85 M15.75 -44.25 L20.7 -43.8 Q20.85 -43.55 20.2 -41.7 L20.15 -41.65 18.95 -38.8 Q17.6 -37.35 14.75 -37.35 L13.25 -37.4 10.5 -37.75 10.35 -37.8 Q10.2 -38.85 10.9 -40.2 L11.45 -41.05 Q12.8 -42.95 15.75 -44.25 M19.65 -37.75 L21.5 -37.7 Q22.95 -37.45 23.1 -35.3 23.2 -33.6 22.9 -33.0 19.65 -27.25 13.15 -29.45 13.05 -29.6 13.1 -31.0 13.15 -32.45 13.35 -32.7 L16.0 -35.4 Q18.45 -37.6 19.65 -37.75 M23.2 -42.95 Q22.55 -43.65 21.55 -45.45 L21.0 -46.45 26.0 -47.15 Q31.65 -47.6 34.4 -46.4 L36.1 -45.45 Q38.25 -43.85 37.2 -41.7 L37.1 -41.5 Q29.7 -38.3 24.75 -41.7 L23.2 -42.95 M35.9 -65.85 L37.7 -65.8 37.45 -64.75 36.95 -63.15 Q33.25 -55.75 25.4 -52.8 L25.25 -53.0 Q27.35 -61.7 35.9 -65.85 M36.35 -64.6 Q29.25 -61.25 25.85 -54.05 26.3 -54.15 26.7 -54.35 33.0 -58.0 36.4 -64.55 L36.35 -64.6 M40.0 -61.4 L37.7 -61.1 Q36.75 -60.65 36.05 -59.65 32.4 -54.55 34.3 -49.75 L34.8 -48.75 35.05 -48.25 35.55 -48.75 36.35 -49.75 37.1 -50.85 Q38.85 -53.55 39.3 -54.95 40.25 -58.0 40.0 -61.4 M36.65 -42.5 L36.2 -43.25 35.6 -43.8 Q34.2 -44.8 32.75 -45.45 28.35 -47.4 23.1 -46.05 L22.7 -45.45 22.6 -45.15 Q25.05 -42.6 27.85 -41.7 30.9 -40.7 34.45 -41.7 L36.65 -42.5 M22.2 -33.95 L22.75 -36.15 Q20.4 -37.4 20.2 -37.3 15.5 -34.0 14.1 -31.65 L13.8 -30.45 Q14.35 -30.1 17.65 -30.95 21.45 -31.9 22.2 -33.95 M11.45 -39.95 L11.15 -38.1 13.55 -38.35 14.6 -38.5 Q17.6 -38.95 18.35 -39.7 L19.45 -41.6 19.5 -41.7 20.1 -43.2 14.8 -42.6 Q12.6 -41.95 11.45 -39.95 M120.2 -29.2 Q117.9 -29.45 116.1 -30.4 113.55 -31.75 112.0 -34.45 L111.3 -35.95 Q112.15 -36.75 113.25 -36.6 L113.3 -36.6 Q115.7 -36.3 117.65 -35.15 119.6 -34.05 121.05 -32.1 L121.8 -30.95 122.2 -30.2 Q122.0 -29.3 121.25 -29.15 L120.8 -29.15 120.2 -29.2 M72.7 -39.05 L70.95 -41.7 68.9 -44.4 68.0 -45.45 Q64.95 -48.6 61.5 -47.85 L59.95 -47.3 Q59.5 -46.4 59.65 -45.45 L59.75 -44.95 Q60.15 -43.7 60.7 -42.6 L61.2 -41.7 Q64.85 -35.2 72.85 -35.3 L72.95 -35.6 Q73.25 -37.35 72.7 -39.05 M56.35 -46.7 L56.25 -46.9 55.7 -46.85 Q53.1 -46.65 51.1 -45.45 48.95 -44.15 47.45 -41.7 L47.3 -41.45 47.0 -39.2 47.2 -39.3 Q50.3 -40.05 52.5 -41.7 53.95 -42.85 55.05 -44.4 L55.75 -45.45 56.35 -46.7 M122.2 -50.4 L123.55 -51.85 Q122.2 -51.9 121.4 -51.0 L121.05 -50.45 122.2 -50.4 M94.3 -87.7 L95.4 -85.15 96.05 -83.85 Q93.2 -87.45 89.3 -90.05 L88.85 -90.35 88.25 -90.35 88.1 -89.3 Q88.2 -88.05 88.6 -86.9 88.9 -86.0 89.35 -85.15 90.15 -83.65 91.1 -82.6 L92.9 -82.3 94.4 -81.9 92.85 -81.1 90.45 -81.25 Q90.45 -80.7 90.7 -80.25 L91.0 -79.8 90.95 -79.75 89.95 -78.55 Q88.95 -80.15 89.85 -82.05 L89.25 -82.95 88.15 -84.95 Q87.25 -87.15 87.35 -89.55 L87.45 -90.95 88.65 -91.25 89.45 -90.7 91.3 -89.65 94.3 -87.7 M97.05 -73.05 L98.4 -73.7 Q99.95 -73.1 101.65 -72.75 L102.3 -71.5 101.8 -71.5 101.55 -71.55 101.45 -70.85 101.15 -68.45 100.4 -64.75 Q99.8 -62.3 98.85 -59.9 97.5 -56.45 94.35 -55.8 L91.75 -55.65 Q90.65 -55.85 90.15 -56.5 86.0 -61.65 91.15 -67.25 95.15 -71.65 100.65 -71.65 98.75 -72.2 97.05 -73.05 M100.1 -70.5 L99.05 -70.65 Q93.9 -69.45 90.55 -64.8 87.65 -60.8 89.75 -57.3 90.65 -56.75 91.75 -56.75 93.4 -56.8 94.65 -57.8 L95.7 -58.75 Q96.95 -59.9 97.8 -61.3 L98.05 -61.65 Q98.95 -63.15 99.45 -64.95 L99.7 -66.05 99.95 -67.7 100.1 -70.5 M119.85 -62.25 Q119.7 -62.1 119.45 -62.05 117.8 -61.35 116.9 -59.7 L116.35 -59.05 Q113.45 -54.8 114.75 -49.75 L115.0 -48.75 115.2 -48.15 115.95 -47.45 116.3 -48.05 116.4 -48.1 117.0 -48.75 117.7 -49.75 117.8 -49.9 Q122.05 -55.65 119.85 -62.25 M105.15 -68.0 L105.15 -67.8 105.15 -66.25 Q105.2 -64.1 105.9 -62.2 106.85 -55.45 112.7 -54.15 L112.75 -56.5 Q111.35 -62.95 106.2 -67.15 L105.15 -68.0 M105.55 -50.25 L105.85 -49.75 106.45 -48.75 Q107.75 -46.75 109.45 -45.45 110.85 -44.35 112.55 -43.7 L112.4 -44.15 112.05 -45.45 111.95 -45.7 110.7 -48.75 110.15 -49.75 Q108.0 -53.25 104.35 -55.35 L103.45 -55.35 103.15 -54.7 104.35 -52.45 105.55 -50.25 M120.45 -47.95 Q119.0 -47.95 118.15 -46.75 120.25 -45.5 122.5 -46.0 L122.45 -46.85 Q121.75 -47.9 120.45 -47.95 M114.35 -42.95 L114.9 -41.9 115.0 -41.7 115.45 -40.95 Q116.75 -38.95 118.7 -38.45 L122.35 -38.65 123.05 -39.05 123.75 -39.55 124.4 -40.1 125.2 -41.0 124.75 -41.25 124.0 -41.6 123.8 -41.7 120.1 -42.95 116.5 -43.6 114.35 -42.95 M111.95 -38.85 L111.85 -37.45 110.9 -37.1 Q109.25 -36.75 107.7 -38.1 105.8 -39.8 106.25 -41.7 L106.5 -42.5 Q106.9 -43.4 107.85 -43.2 109.85 -42.8 110.9 -41.7 111.9 -40.6 111.95 -38.85 M109.75 -35.4 Q110.55 -34.25 110.95 -32.9 111.45 -31.35 111.5 -29.45 109.6 -28.2 107.65 -28.4 L106.85 -28.55 103.4 -30.65 Q102.25 -31.8 101.65 -33.4 99.5 -39.0 104.95 -38.7 108.1 -37.65 109.75 -35.4 M102.2 -37.7 L102.0 -37.35 Q101.45 -35.45 102.3 -33.7 103.75 -31.05 105.65 -30.15 107.0 -29.45 108.6 -29.6 L110.65 -30.0 110.75 -30.75 110.25 -31.9 110.2 -32.25 108.9 -34.1 107.0 -35.95 107.2 -36.5 Q104.85 -38.45 102.2 -37.7 M109.85 -41.7 L108.95 -42.4 Q108.25 -42.95 107.8 -42.2 L107.6 -41.7 Q106.7 -39.5 109.6 -38.2 L111.1 -38.05 111.05 -39.25 Q110.75 -40.75 109.85 -41.7 M120.75 -31.05 Q119.3 -33.0 117.35 -34.25 L114.65 -35.6 114.05 -35.75 113.1 -35.7 112.75 -35.6 112.5 -35.55 112.6 -35.35 112.95 -34.75 Q114.35 -32.65 116.5 -31.55 117.25 -31.15 118.15 -30.9 L121.2 -30.4 120.85 -30.9 120.75 -31.05" fill="#073a1c" fill-rule="evenodd" stroke="none"/>
    <path d="M98.45 -143.55 Q98.2 -137.55 92.3 -136.65 L90.25 -136.4 85.2 -136.55 85.75 -137.15 Q90.1 -145.0 97.8 -143.9 L98.45 -143.55 M81.3 -113.1 Q83.7 -110.35 84.9 -106.7 L84.55 -106.05 84.0 -105.35 Q82.05 -103.35 78.1 -105.8 74.75 -107.8 72.8 -110.8 71.8 -112.3 71.1 -114.1 L70.85 -114.9 72.0 -115.1 75.75 -114.95 Q77.6 -114.5 79.3 -113.25 L80.55 -112.35 81.15 -112.65 81.3 -113.1 M92.9 -102.9 L93.85 -103.6 Q98.2 -105.05 102.25 -103.4 L103.8 -102.7 105.0 -101.1 Q99.55 -100.2 94.3 -101.95 93.5 -102.25 92.9 -102.9 M37.9 -126.85 L38.2 -126.5 Q39.6 -125.15 43.7 -123.45 L44.0 -123.05 42.25 -119.55 Q39.7 -119.7 36.9 -121.9 35.0 -123.45 34.2 -125.55 33.95 -126.3 34.45 -126.85 36.3 -127.05 37.9 -126.85 M31.1 -108.55 L31.45 -109.25 32.15 -110.2 Q38.2 -110.3 43.5 -107.15 L45.4 -104.9 44.4 -104.85 Q37.1 -104.55 31.3 -108.4 L31.1 -108.55 M64.8 -133.0 L62.9 -133.45 Q61.35 -134.15 60.15 -135.6 L59.3 -136.85 59.3 -137.95 Q62.25 -137.1 64.1 -134.75 L64.8 -133.0 M71.75 -89.65 Q73.15 -93.9 78.7 -93.8 L83.7 -94.05 Q84.7 -94.05 85.65 -93.35 L85.75 -92.75 Q82.65 -86.2 74.8 -87.95 73.1 -88.45 72.1 -89.3 L71.75 -89.65 M67.85 -84.25 L66.5 -84.1 61.65 -84.6 Q56.75 -85.8 53.65 -90.1 53.4 -90.4 53.4 -90.85 58.3 -91.1 62.2 -89.2 64.4 -88.2 66.25 -86.45 L66.75 -86.0 67.0 -85.7 67.3 -85.3 67.85 -84.25 M23.3 -82.2 Q19.55 -77.8 13.2 -76.75 L9.7 -76.55 6.75 -76.45 7.15 -77.55 Q13.05 -82.6 20.9 -82.3 L22.75 -82.2 23.3 -82.2 M7.8 -60.95 L6.3 -58.85 Q5.1 -59.65 4.2 -61.05 L5.7 -61.75 Q6.85 -61.5 7.8 -60.95 M18.8 -55.45 L20.45 -54.45 21.6 -54.1 21.75 -52.6 Q21.3 -50.7 20.25 -49.75 19.85 -49.4 19.4 -49.2 L16.0 -49.6 16.0 -49.75 16.05 -50.55 16.2 -51.45 Q16.6 -52.75 17.25 -53.7 L18.8 -55.45 M72.7 -39.05 Q73.25 -37.35 72.95 -35.6 L72.85 -35.3 Q64.85 -35.2 61.2 -41.7 L60.7 -42.6 Q60.15 -43.7 59.75 -44.95 L59.65 -45.45 Q59.5 -46.4 59.95 -47.3 L61.5 -47.85 Q64.95 -48.6 68.0 -45.45 L68.9 -44.4 70.95 -41.7 72.7 -39.05 M105.15 -68.0 L106.2 -67.15 Q111.35 -62.95 112.75 -56.5 L112.7 -54.15 Q106.85 -55.45 105.9 -62.2 105.2 -64.1 105.15 -66.25 L105.15 -67.8 105.15 -68.0 M105.55 -50.25 L104.35 -52.45 103.15 -54.7 103.45 -55.35 104.35 -55.35 Q108.0 -53.25 110.15 -49.75 L110.7 -48.75 111.95 -45.7 112.05 -45.45 112.4 -44.15 112.55 -43.7 Q110.85 -44.35 109.45 -45.45 107.75 -46.75 106.45 -48.75 L105.85 -49.75 105.55 -50.25" fill="#12a725" fill-rule="evenodd" stroke="none"/>
    <path d="M86.5 -112.15 L86.5 -112.2 86.55 -112.2 Q90.9 -112.35 93.8 -109.1 L94.6 -108.2 94.95 -107.75 94.8 -106.65 93.0 -106.6 92.9 -106.6 Q88.8 -107.25 86.85 -110.3 L86.5 -112.15 M84.3 -143.0 L84.15 -139.7 82.95 -139.7 81.95 -141.4 82.2 -145.35 Q83.55 -144.85 84.15 -143.55 L84.3 -143.0 M86.05 -124.85 L87.5 -124.25 89.7 -122.05 Q85.3 -122.9 81.3 -124.65 L78.25 -126.05 76.7 -126.9 77.4 -127.15 78.6 -126.95 81.9 -126.25 86.05 -124.85 M94.25 -115.2 L94.8 -113.55 95.15 -111.35 Q94.1 -112.05 93.35 -113.2 L92.6 -114.65 92.75 -116.95 Q93.8 -116.25 94.25 -115.2 M83.55 -120.05 L83.8 -119.85 84.5 -119.35 Q85.6 -118.6 86.2 -117.35 85.85 -116.4 84.55 -116.45 L77.25 -117.15 74.3 -118.15 Q71.15 -119.55 68.65 -121.9 L68.15 -122.4 68.5 -122.5 Q72.6 -123.9 76.95 -122.9 L80.05 -121.95 82.35 -120.85 83.55 -120.05 M81.8 -100.45 L85.15 -100.75 85.75 -100.45 85.8 -100.45 87.2 -100.8 88.2 -100.8 88.6 -100.8 Q90.0 -100.6 91.05 -99.75 L91.9 -98.45 91.0 -97.85 90.7 -97.8 86.7 -97.55 Q83.25 -97.85 80.55 -99.9 L81.8 -100.45 M97.6 -107.35 L98.75 -108.45 Q100.75 -111.05 104.05 -110.75 L104.35 -110.65 104.8 -110.1 104.05 -109.15 Q101.1 -106.8 97.7 -107.3 L97.6 -107.35 M95.3 -99.4 L104.9 -97.45 106.85 -96.15 Q100.25 -95.55 94.65 -98.75 L94.4 -99.0 94.25 -99.15 95.3 -99.4 M41.85 -113.35 Q36.5 -113.3 31.25 -114.4 28.05 -115.05 25.95 -117.15 L26.25 -118.15 Q34.05 -119.05 41.35 -115.95 41.3 -114.4 41.85 -113.35 M40.3 -101.4 L40.75 -101.15 45.3 -100.8 44.95 -100.7 37.55 -100.5 36.55 -100.85 Q38.35 -102.25 40.3 -101.4 M68.25 -136.4 L68.25 -134.75 67.1 -135.25 67.0 -135.45 Q66.6 -136.45 67.0 -137.3 L67.3 -137.95 68.25 -136.4 M58.4 -131.6 L59.9 -130.9 62.45 -129.2 Q63.45 -128.35 63.05 -127.25 L63.0 -127.1 Q61.4 -127.45 59.6 -129.15 L57.9 -130.5 58.4 -131.6 M66.0 -127.5 L66.0 -127.6 66.1 -128.2 66.3 -128.75 66.7 -129.2 67.3 -129.65 67.8 -129.95 Q70.2 -131.4 72.85 -131.55 L73.6 -131.4 73.8 -130.7 Q70.9 -127.9 67.05 -127.45 L66.0 -127.5 M57.45 -127.05 L57.9 -127.05 58.15 -126.8 58.15 -126.75 57.45 -127.05 M49.3 -108.85 L54.2 -109.15 55.55 -108.8 56.7 -107.95 Q51.9 -105.7 47.5 -107.95 L47.3 -108.0 46.75 -108.45 47.05 -108.5 47.2 -108.45 47.65 -108.45 48.25 -108.45 49.3 -108.85 M50.4 -103.3 L50.7 -103.7 Q58.75 -103.7 63.3 -97.4 L63.45 -97.15 63.65 -96.75 63.95 -95.6 63.4 -95.2 63.1 -95.15 Q54.2 -93.5 50.6 -101.35 L50.4 -103.3 M59.5 -107.15 Q60.3 -112.15 65.1 -113.2 L65.5 -113.25 66.4 -113.15 Q69.4 -109.65 68.45 -105.0 L67.15 -102.55 66.25 -102.3 65.35 -102.2 64.3 -102.2 Q61.55 -102.45 59.95 -105.15 59.4 -106.05 59.5 -107.15 M66.0 -99.5 L66.55 -100.3 Q67.4 -100.8 68.35 -101.1 71.75 -102.2 75.25 -100.65 L76.75 -99.7 77.85 -98.5 77.7 -98.2 Q72.8 -97.0 68.1 -98.25 L66.7 -98.65 66.1 -99.05 66.0 -99.5 M69.15 -76.75 L68.1 -74.3 Q66.75 -71.95 64.7 -71.3 L63.3 -71.05 Q63.1 -70.85 62.85 -70.95 L62.8 -73.1 Q63.3 -76.45 65.65 -77.95 66.7 -78.65 68.0 -78.95 L68.6 -78.95 Q69.5 -78.05 69.15 -76.75 M48.8 -96.35 L49.35 -95.95 Q49.55 -94.15 48.8 -93.05 L47.95 -92.15 46.75 -91.65 43.7 -91.45 38.2 -90.95 35.45 -90.95 35.6 -91.85 36.2 -92.8 Q40.5 -97.15 45.6 -96.95 L48.8 -96.35 M44.1 -78.6 Q43.2 -78.2 42.2 -78.1 L38.5 -77.8 40.6 -78.95 Q42.1 -79.95 43.95 -80.15 L45.2 -80.25 45.35 -79.5 44.1 -78.6 M54.4 -77.2 Q56.65 -75.6 58.35 -73.25 L60.55 -69.6 56.7 -70.3 Q53.25 -71.25 50.2 -73.45 48.4 -74.85 48.25 -76.95 49.5 -78.8 51.45 -78.5 52.75 -78.35 54.4 -77.2 M58.6 -80.2 L58.95 -80.7 Q60.25 -80.25 60.55 -79.0 L60.7 -78.2 60.35 -75.85 59.35 -76.6 Q58.55 -77.45 58.6 -78.45 L58.6 -80.2 M55.6 -66.7 L58.5 -65.85 59.05 -65.7 60.35 -64.5 58.55 -64.15 Q50.6 -63.0 43.1 -66.55 L43.1 -66.9 44.55 -67.3 Q50.15 -68.2 55.6 -66.7 M43.6 -52.2 Q48.3 -56.85 55.8 -54.9 L56.5 -54.75 57.45 -54.4 57.3 -54.25 Q54.25 -51.1 50.45 -49.75 47.5 -48.75 44.15 -48.8 L41.85 -49.0 41.9 -50.1 43.6 -52.2 M78.8 -64.1 Q72.3 -63.7 65.8 -64.2 64.6 -64.45 63.65 -65.2 L63.2 -65.6 63.2 -66.25 63.8 -66.75 65.0 -66.45 Q69.9 -67.15 74.6 -65.9 L76.35 -65.5 78.8 -64.1 M74.75 -69.55 Q70.8 -71.65 73.95 -76.25 77.15 -82.65 83.65 -85.4 L84.55 -85.65 84.75 -85.7 85.0 -80.15 Q85.2 -76.1 83.6 -73.5 81.8 -70.55 77.7 -69.35 L74.75 -69.55 M62.3 -60.45 L62.4 -60.0 63.4 -60.2 Q70.0 -62.9 76.5 -60.0 L77.55 -59.35 78.7 -58.3 Q70.65 -56.2 62.75 -58.45 L62.7 -58.45 61.75 -58.95 61.55 -59.8 62.1 -60.5 62.3 -60.45 M63.7 -53.8 Q68.25 -52.9 71.8 -49.8 L71.85 -49.75 73.0 -48.75 73.1 -48.65 73.95 -47.15 73.25 -47.3 Q71.25 -47.85 69.45 -48.75 L67.6 -49.75 Q65.05 -51.35 62.95 -53.65 L63.7 -53.8 M31.9 -95.8 Q32.55 -94.75 32.8 -93.5 L33.1 -91.45 Q32.55 -85.7 27.55 -84.4 L24.9 -84.05 25.2 -86.7 Q27.35 -91.1 30.65 -94.65 L31.9 -95.8 M22.6 -90.0 Q21.65 -91.45 22.35 -93.15 22.75 -94.15 25.35 -94.75 24.9 -91.95 22.6 -90.0 M23.1 -77.5 Q24.95 -79.05 27.4 -78.6 L28.75 -78.2 27.85 -76.5 Q24.85 -73.4 22.75 -76.05 22.15 -76.9 23.1 -77.5 M32.9 -81.25 Q35.05 -83.85 41.4 -86.7 L39.45 -83.4 Q38.4 -82.0 35.15 -80.25 33.45 -79.35 31.95 -78.75 L32.2 -79.6 32.55 -80.65 32.9 -81.25 M34.9 -74.65 L36.3 -74.7 37.1 -74.25 36.6 -71.75 Q36.0 -69.85 34.7 -68.55 32.8 -66.65 29.35 -66.15 27.1 -65.9 25.3 -67.25 L25.0 -67.65 Q25.4 -71.05 28.55 -72.95 L29.1 -72.5 Q30.4 -73.4 31.85 -73.95 L34.45 -74.65 34.9 -74.65 M19.6 -98.4 L20.55 -96.2 19.9 -94.85 19.5 -95.5 Q18.9 -96.85 19.6 -98.4 M14.8 -56.65 L15.75 -57.95 16.95 -56.85 16.3 -55.95 15.75 -55.25 15.4 -55.6 14.8 -56.65 M36.35 -64.6 L36.4 -64.55 Q33.0 -58.0 26.7 -54.35 26.3 -54.15 25.85 -54.05 29.25 -61.25 36.35 -64.6 M40.0 -61.4 Q40.25 -58.0 39.3 -54.95 38.85 -53.55 37.1 -50.85 L36.35 -49.75 35.55 -48.75 35.05 -48.25 34.8 -48.75 34.3 -49.75 Q32.4 -54.55 36.05 -59.65 36.75 -60.65 37.7 -61.1 L40.0 -61.4 M22.2 -33.95 Q21.45 -31.9 17.65 -30.95 14.35 -30.1 13.8 -30.45 L14.1 -31.65 Q15.5 -34.0 20.2 -37.3 20.4 -37.4 22.75 -36.15 L22.2 -33.95 M11.45 -39.95 Q12.6 -41.95 14.8 -42.6 L20.1 -43.2 19.5 -41.7 19.45 -41.6 18.35 -39.7 Q17.6 -38.95 14.6 -38.5 L13.55 -38.35 11.15 -38.1 11.45 -39.95 M56.35 -46.7 L55.75 -45.45 55.05 -44.4 Q53.95 -42.85 52.5 -41.7 50.3 -40.05 47.2 -39.3 L47.0 -39.2 47.3 -41.45 47.45 -41.7 Q48.95 -44.15 51.1 -45.45 53.1 -46.65 55.7 -46.85 L56.25 -46.9 56.35 -46.7 M111.7 -80.4 L112.4 -80.4 Q117.2 -80.35 121.15 -77.55 L122.2 -76.7 122.9 -75.15 Q116.95 -75.0 112.1 -78.8 L111.4 -79.8 111.4 -79.85 111.5 -80.3 111.7 -80.4 M122.2 -50.4 L121.05 -50.45 121.4 -51.0 Q122.2 -51.9 123.55 -51.85 L122.2 -50.4 M110.1 -89.4 Q110.6 -91.05 112.6 -91.4 L113.15 -91.4 113.05 -89.55 110.55 -89.5 110.1 -89.4 M106.25 -87.75 L104.45 -90.7 104.2 -93.2 Q106.35 -92.6 106.7 -90.3 L106.9 -88.85 107.0 -88.15 106.85 -88.1 106.25 -87.75 M116.0 -84.65 L118.4 -84.7 118.75 -84.15 Q117.5 -82.9 115.45 -83.5 L115.4 -83.5 116.0 -84.65 M92.85 -81.1 Q91.65 -80.4 91.0 -79.8 L90.7 -80.25 Q90.45 -80.7 90.45 -81.25 L92.85 -81.1 M98.4 -73.7 L100.7 -75.0 101.65 -72.75 Q99.95 -73.1 98.4 -73.7 M94.4 -92.6 Q93.95 -91.8 93.95 -90.65 91.75 -91.1 89.85 -92.3 L88.5 -93.2 88.0 -93.6 90.15 -93.9 Q91.9 -93.9 93.55 -93.05 L94.4 -92.6 M111.2 -72.6 Q115.2 -71.8 117.95 -68.1 L118.5 -67.35 118.4 -66.35 Q113.95 -66.35 110.45 -68.65 111.45 -70.0 111.2 -72.6 M119.85 -62.25 Q122.05 -55.65 117.8 -49.9 L117.7 -49.75 117.0 -48.75 116.4 -48.1 116.3 -48.05 115.95 -47.45 115.2 -48.15 115.0 -48.75 114.75 -49.75 Q113.45 -54.8 116.35 -59.05 L116.9 -59.7 Q117.8 -61.35 119.45 -62.05 119.7 -62.1 119.85 -62.25 M120.45 -47.95 Q121.75 -47.9 122.45 -46.85 L122.5 -46.0 Q120.25 -45.5 118.15 -46.75 119.0 -47.95 120.45 -47.95 M109.85 -41.7 Q110.75 -40.75 111.05 -39.25 L111.1 -38.05 109.6 -38.2 Q106.7 -39.5 107.6 -41.7 L107.8 -42.2 Q108.25 -42.95 108.95 -42.4 L109.85 -41.7 M120.75 -31.05 L120.85 -30.9 121.2 -30.4 118.15 -30.9 Q117.25 -31.15 116.5 -31.55 114.35 -32.65 112.95 -34.75 L112.6 -35.35 112.5 -35.55 112.75 -35.6 113.1 -35.7 114.05 -35.75 114.65 -35.6 117.35 -34.25 Q119.3 -33.0 120.75 -31.05" fill="#0f9b40" fill-rule="evenodd" stroke="none"/>
    <path d="M84.35 -136.9 L83.8 -136.6 82.8 -137.25 Q82.1 -136.85 82.25 -136.1 L82.4 -136.05 83.35 -135.65 84.2 -135.35 Q83.85 -132.7 83.15 -130.1 L83.95 -130.15 84.75 -129.95 84.7 -129.45 84.55 -129.5 84.45 -129.5 84.05 -129.5 83.7 -129.35 82.75 -128.8 82.35 -127.65 78.95 -127.85 79.75 -129.95 80.75 -129.5 81.2 -129.8 82.1 -129.95 82.15 -130.45 Q82.3 -133.15 81.7 -135.45 L82.85 -139.0 83.55 -138.75 Q84.0 -138.6 84.45 -138.75 L84.35 -136.9 M81.0 -123.95 L80.7 -123.25 79.8 -123.6 79.0 -123.85 77.5 -124.25 77.6 -124.5 78.05 -125.6 79.2 -124.95 80.0 -124.45 81.0 -123.95 M85.1 -105.15 L86.7 -101.95 85.3 -101.95 84.4 -104.25 85.1 -105.15 M89.0 -101.55 Q90.15 -103.8 91.9 -105.6 L94.7 -105.7 93.65 -104.45 92.55 -103.55 92.45 -102.5 91.85 -101.2 93.35 -100.05 93.25 -100.05 93.0 -99.5 92.2 -99.95 Q90.7 -101.1 89.0 -101.55 M94.8 -108.85 L95.15 -110.0 95.55 -109.85 95.9 -108.4 96.2 -108.25 96.35 -107.8 96.6 -107.8 96.55 -107.65 96.4 -107.2 96.3 -107.2 95.75 -106.75 94.8 -108.85 M90.85 -97.3 L90.45 -95.15 Q88.25 -95.8 87.3 -94.15 L87.2 -93.75 Q88.3 -92.2 89.6 -91.25 L89.45 -90.7 88.65 -91.25 87.45 -90.95 87.35 -89.55 Q87.25 -87.15 88.15 -84.95 86.5 -76.5 87.05 -67.8 L88.05 -49.75 88.1 -48.75 88.25 -45.45 88.35 -42.2 89.75 -45.45 91.15 -48.75 91.6 -49.75 94.25 -55.55 94.35 -55.8 Q97.5 -56.45 98.85 -59.9 99.8 -62.3 100.4 -64.75 L101.15 -68.45 101.45 -70.85 101.8 -71.5 102.3 -71.5 103.4 -69.75 Q99.05 -59.85 95.05 -49.75 L95.0 -49.65 94.65 -48.75 93.35 -45.45 91.9 -41.7 87.45 -29.2 Q86.7 -27.05 85.45 -25.15 84.5 -23.65 82.6 -24.35 L81.25 -26.35 82.8 -36.05 83.4 -41.7 83.7 -45.45 83.8 -48.75 83.85 -49.75 83.85 -53.0 83.6 -71.35 83.6 -71.75 84.85 -74.3 Q86.4 -78.5 86.2 -82.85 L86.1 -84.35 85.85 -86.15 84.65 -86.35 85.1 -89.05 86.2 -90.25 Q87.25 -91.85 86.9 -93.8 L86.7 -95.05 86.5 -95.05 86.9 -96.4 Q89.15 -96.4 90.85 -97.3 M110.55 -79.7 L109.95 -79.5 110.55 -79.8 110.55 -79.7 M119.2 -50.1 L120.15 -50.6 120.1 -50.45 120.5 -49.9 120.25 -49.75 120.05 -49.65 119.45 -49.45 119.2 -49.3 118.5 -48.75 117.85 -48.35 118.2 -48.75 118.95 -49.75 119.15 -50.05 119.2 -50.1 M28.2 -79.5 L26.1 -82.2 25.75 -82.6 Q27.4 -82.5 28.85 -83.05 L31.25 -80.15 31.2 -80.05 Q30.55 -78.8 31.0 -77.5 L32.95 -77.75 33.0 -77.65 37.5 -78.0 37.3 -77.9 37.5 -76.9 37.75 -76.8 37.7 -76.8 33.4 -77.05 34.15 -75.85 30.95 -75.45 29.6 -77.5 29.7 -78.8 28.2 -79.5 M23.35 -85.15 L21.45 -86.7 22.35 -87.75 22.95 -88.6 24.35 -87.4 23.35 -85.15 M19.5 -92.5 L19.5 -92.6 19.35 -93.9 19.75 -93.9 20.25 -94.05 20.55 -91.2 20.75 -90.35 19.5 -92.5 M20.85 -90.25 L21.2 -89.95 21.4 -89.0 20.85 -90.25 M45.3 -98.45 L45.15 -99.45 46.35 -100.05 46.85 -100.3 46.95 -100.95 46.65 -101.5 44.7 -102.1 44.55 -103.8 45.1 -103.85 46.6 -104.5 46.6 -104.55 46.75 -105.45 44.15 -107.8 43.95 -111.35 43.95 -111.55 46.9 -111.75 47.05 -109.85 45.5 -108.55 Q46.4 -107.5 47.45 -106.85 48.05 -102.5 48.95 -98.2 L48.5 -98.55 45.3 -98.45 M65.35 -132.0 L66.15 -130.25 Q65.1 -128.9 64.9 -126.8 L66.1 -126.4 66.3 -126.4 67.4 -126.25 68.15 -123.8 Q67.0 -123.2 67.45 -121.8 67.95 -120.25 69.05 -119.25 L69.05 -115.9 69.3 -115.6 69.05 -111.9 70.45 -113.35 71.0 -111.9 71.5 -110.95 72.1 -109.9 69.95 -107.15 Q70.0 -108.55 69.6 -109.85 L69.9 -110.35 69.6 -109.95 Q69.0 -111.85 67.55 -113.55 L67.3 -113.85 66.55 -114.7 65.35 -114.85 65.1 -114.75 65.1 -116.5 Q66.65 -117.7 65.8 -119.6 L64.95 -119.85 64.8 -121.8 64.2 -126.7 Q64.5 -127.45 64.35 -128.3 L64.15 -129.65 63.6 -130.1 63.25 -131.95 64.05 -131.6 Q64.7 -131.4 65.2 -131.85 L65.35 -132.0 M67.2 -131.25 L67.9 -133.35 68.25 -133.25 Q68.75 -133.7 68.9 -134.35 L68.9 -134.1 68.45 -132.0 67.2 -131.25 M63.75 -99.0 L64.15 -101.15 65.8 -101.1 Q65.25 -99.75 65.4 -98.8 65.65 -97.2 67.95 -96.85 L67.0 -87.85 64.6 -89.8 63.9 -90.2 62.45 -90.9 62.9 -93.95 Q64.05 -94.5 65.1 -95.5 L64.85 -96.5 64.3 -98.05 63.75 -99.0 M50.2 -93.15 L50.5 -92.05 Q52.85 -83.55 58.1 -76.6 L58.3 -76.25 Q58.75 -75.15 59.6 -74.8 L59.75 -74.65 59.75 -74.7 60.4 -74.6 60.85 -73.75 60.9 -75.0 Q62.4 -77.8 61.25 -80.05 L61.55 -83.2 66.4 -83.05 65.8 -78.95 Q64.45 -78.2 63.55 -77.15 L62.9 -76.15 Q61.55 -73.9 61.85 -70.5 L61.95 -70.1 62.35 -69.7 62.45 -69.65 63.6 -69.9 64.5 -70.2 64.1 -67.8 Q62.3 -67.25 63.05 -65.05 63.2 -64.55 63.5 -64.25 L63.15 -61.65 61.45 -61.3 Q59.95 -60.6 61.4 -58.15 L61.75 -57.7 62.65 -57.1 62.4 -54.75 Q61.55 -54.0 62.15 -52.85 L61.8 -49.75 61.75 -49.55 60.15 -48.75 Q58.35 -47.55 58.55 -45.45 L58.55 -45.4 58.95 -43.95 Q59.2 -43.3 59.6 -42.6 L60.1 -41.7 60.45 -41.15 Q59.05 -33.55 56.5 -26.2 55.95 -24.6 54.4 -23.9 52.25 -23.0 50.2 -24.25 48.0 -25.55 48.95 -27.7 52.1 -34.55 54.3 -41.7 L54.4 -42.1 Q55.75 -43.55 56.65 -45.45 L56.75 -45.75 57.15 -47.05 57.15 -47.9 56.9 -48.1 56.75 -48.1 56.0 -48.05 56.15 -48.75 56.4 -49.75 56.9 -52.3 58.55 -53.9 59.0 -54.8 57.45 -55.4 58.5 -63.1 60.7 -63.45 Q61.15 -63.5 61.55 -63.9 L61.55 -65.45 58.3 -67.0 57.6 -68.85 61.5 -68.45 61.7 -68.75 Q59.25 -77.6 50.95 -79.6 49.1 -83.45 47.85 -87.6 L46.8 -91.4 48.0 -91.9 49.1 -92.45 49.7 -92.75 50.2 -93.15 M73.0 -116.3 L73.45 -117.0 75.75 -116.3 73.0 -116.3 M37.4 -70.15 L37.55 -69.85 Q39.45 -66.05 40.6 -61.95 L37.5 -61.65 36.95 -63.15 37.45 -64.75 37.7 -65.8 35.9 -65.85 35.2 -67.5 36.9 -69.3 37.4 -70.15 M41.15 -60.15 Q42.55 -57.0 43.3 -53.6 L42.55 -53.05 Q40.8 -51.7 40.7 -49.75 L40.7 -48.75 40.8 -48.25 44.3 -47.75 44.6 -45.45 45.0 -41.7 Q45.35 -37.25 45.3 -32.75 45.25 -29.85 43.95 -27.4 L38.7 -27.8 Q40.6 -34.6 40.65 -41.7 L40.65 -42.95 40.6 -45.45 40.3 -48.75 40.2 -49.75 39.65 -53.2 Q40.0 -53.9 40.55 -56.55 L41.15 -60.1 41.15 -60.15 M55.5 -78.6 L48.25 -91.1 50.35 -84.0 55.5 -78.6 M13.9 -55.6 L13.95 -55.5 Q14.5 -54.35 14.9 -54.05 16.35 -54.65 16.7 -55.0 L16.75 -54.9 15.45 -52.7 15.4 -52.6 14.7 -50.55 14.9 -49.75 15.25 -48.75 15.3 -48.65 Q16.05 -47.5 17.35 -47.65 18.4 -47.75 19.75 -48.65 L21.0 -46.45 21.55 -45.45 Q22.55 -43.65 23.2 -42.95 L24.15 -41.7 Q32.55 -30.55 37.5 -25.4 L36.3 -24.4 Q35.2 -23.55 35.05 -23.65 33.35 -24.45 28.4 -28.3 23.6 -32.05 22.9 -33.0 23.2 -33.6 23.1 -35.3 22.95 -37.45 21.5 -37.7 L19.65 -37.75 18.95 -38.8 20.15 -41.65 20.2 -41.7 Q20.85 -43.55 20.7 -43.8 L15.75 -44.25 15.15 -45.45 14.6 -46.7 13.7 -48.75 13.3 -49.75 13.05 -50.4 13.55 -52.0 13.95 -53.65 12.7 -54.35 13.9 -55.6 M28.1 -34.25 L21.95 -40.25 25.35 -32.25 35.6 -25.3 28.1 -34.25 M52.6 -33.25 L51.35 -25.55 57.0 -37.05 58.7 -50.45 52.6 -33.25 M43.5 -41.95 L42.4 -47.1 41.1 -32.9 43.2 -28.25 43.5 -41.95 M117.7 -47.9 L117.1 -47.4 117.8 -48.25 117.7 -47.9 M116.75 -44.5 L114.75 -44.6 115.05 -45.45 115.35 -46.6 Q116.05 -46.25 116.95 -46.15 L117.25 -46.0 117.1 -45.45 116.75 -44.5 M113.55 -41.85 L113.6 -41.7 Q114.05 -40.4 114.8 -39.45 L113.3 -36.6 113.25 -36.6 Q112.15 -36.75 111.3 -35.95 L112.0 -34.45 111.95 -34.35 111.95 -34.3 110.95 -32.9 Q110.55 -34.25 109.75 -35.4 L110.9 -37.1 111.85 -37.45 111.95 -38.85 113.4 -41.45 113.5 -41.7 113.55 -41.85 M107.65 -28.4 L107.5 -28.2 Q107.2 -28.3 106.85 -28.55 L107.65 -28.4 M88.85 -40.5 L87.5 -33.05 95.75 -55.25 88.85 -40.5 M83.85 -25.5 L86.6 -31.75 87.35 -41.6 85.6 -74.25 83.85 -25.5" fill="#522e18" fill-rule="evenodd" stroke="none"/>
    <path d="M81.3 -130.3 L80.05 -130.8 Q74.55 -133.45 72.7 -139.3 L72.5 -140.35 Q72.2 -142.2 72.9 -143.75 L73.15 -144.05 Q79.25 -140.65 81.15 -133.9 L81.55 -132.3 81.3 -130.3 M85.3 -128.85 L86.8 -130.45 Q93.25 -131.3 97.9 -127.4 L98.65 -126.65 98.7 -126.65 98.95 -126.2 99.2 -124.9 Q92.35 -124.25 86.05 -127.75 85.55 -128.05 85.1 -128.5 L85.3 -128.85 M55.6 -117.65 Q57.5 -116.75 58.55 -116.6 62.9 -116.2 63.95 -118.75 L64.15 -119.15 64.45 -119.1 65.0 -118.15 Q59.2 -113.85 51.95 -113.85 L50.85 -113.9 50.35 -114.35 51.6 -115.45 Q53.55 -116.75 55.6 -117.65 M20.4 -88.35 L20.8 -87.7 19.8 -87.15 Q16.4 -87.1 12.85 -89.4 9.95 -91.35 8.2 -93.85 7.3 -95.05 6.85 -98.45 14.85 -98.25 19.1 -90.9 L20.35 -88.5 20.4 -88.35 M11.85 -53.7 L12.75 -53.5 12.5 -52.75 12.15 -51.8 Q10.65 -50.4 9.1 -50.1 7.45 -49.85 4.8 -50.7 L3.65 -51.15 Q4.85 -52.7 6.8 -53.35 8.5 -51.7 11.75 -53.65 L11.85 -53.7 M36.65 -42.5 L34.45 -41.7 Q30.9 -40.7 27.85 -41.7 25.05 -42.6 22.6 -45.15 L22.7 -45.45 23.1 -46.05 Q28.35 -47.4 32.75 -45.45 34.2 -44.8 35.6 -43.8 L36.2 -43.25 36.65 -42.5 M96.05 -83.85 L96.65 -82.9 94.4 -81.9 92.9 -82.3 91.1 -82.6 Q90.15 -83.65 89.35 -85.15 88.9 -86.0 88.6 -86.9 88.2 -88.05 88.1 -89.3 L88.25 -90.35 88.85 -90.35 89.3 -90.05 Q93.2 -87.45 96.05 -83.85 M100.1 -70.5 L99.95 -67.7 99.7 -66.05 99.45 -64.95 Q98.95 -63.15 98.05 -61.65 L97.8 -61.3 Q96.95 -59.9 95.7 -58.75 L94.65 -57.8 Q93.4 -56.8 91.75 -56.75 90.65 -56.75 89.75 -57.3 87.65 -60.8 90.55 -64.8 93.9 -69.45 99.05 -70.65 L100.1 -70.5 M114.35 -42.95 L116.5 -43.6 120.1 -42.95 123.8 -41.7 124.0 -41.6 124.75 -41.25 125.2 -41.0 124.4 -40.1 123.75 -39.55 123.05 -39.05 122.35 -38.65 118.7 -38.45 Q116.75 -38.95 115.45 -40.95 L115.0 -41.7 114.9 -41.9 114.35 -42.95 M102.2 -37.7 Q104.85 -38.45 107.2 -36.5 L107.0 -35.95 108.9 -34.1 110.2 -32.25 110.25 -31.9 110.75 -30.75 110.65 -30.0 108.6 -29.6 Q107.0 -29.45 105.65 -30.15 103.75 -31.05 102.3 -33.7 101.45 -35.45 102.0 -37.35 L102.2 -37.7" fill="#0c7631" fill-rule="evenodd" stroke="none"/>
    <path d="M55.5 -78.6 L50.35 -84.0 48.25 -91.1 55.5 -78.6 M28.1 -34.25 L35.6 -25.3 25.35 -32.25 21.95 -40.25 28.1 -34.25 M43.5 -41.95 L43.2 -28.25 41.1 -32.9 42.4 -47.1 43.5 -41.95 M52.6 -33.25 L58.7 -50.45 57.0 -37.05 51.35 -25.55 52.6 -33.25 M83.85 -25.5 L85.6 -74.25 87.35 -41.6 86.6 -31.75 83.85 -25.5 M88.85 -40.5 L95.75 -55.25 87.5 -33.05 88.85 -40.5" fill="#784323" fill-rule="evenodd" stroke="none"/>
    <path d="M95.05 -49.75 L104.8 -49.75 105.45 -48.75 94.65 -48.75 95.0 -49.65 95.05 -49.75 M111.15 -49.75 L113.55 -49.75 113.8 -48.75 111.65 -48.75 111.15 -49.75 M122.5 -49.75 L127.0 -49.75 127.0 -31.3 118.15 0.0 0.0 0.0 0.0 -18.15 8.75 -49.3 9.4 -49.4 10.95 -49.75 13.3 -49.75 13.7 -48.75 9.75 -48.75 1.2 -18.8 7.35 -18.75 7.35 -17.95 1.0 -17.8 1.0 -11.4 1.0 -9.75 117.1 -9.75 117.1 -11.4 117.1 -17.8 113.15 -17.9 113.15 -18.8 117.25 -18.8 120.2 -29.2 120.8 -29.15 121.25 -29.15 118.1 -18.2 118.1 -12.75 124.1 -33.6 126.0 -40.25 126.0 -40.35 126.2 -40.85 126.0 -41.1 126.0 -45.65 125.0 -42.15 124.1 -42.8 125.8 -48.75 118.5 -48.75 119.2 -49.3 119.45 -49.45 120.05 -49.65 120.25 -49.75 120.7 -49.75 Q121.4 -49.2 122.5 -49.75 M40.2 -49.75 L40.3 -48.75 37.05 -48.75 37.8 -49.75 40.2 -49.75 M56.4 -49.75 L56.15 -48.75 51.2 -48.75 Q52.3 -49.15 53.4 -49.75 L56.4 -49.75 M61.75 -49.55 L61.8 -49.75 62.3 -49.75 65.45 -49.75 Q66.2 -49.2 67.0 -48.75 L64.0 -48.75 62.3 -49.75 61.75 -49.55 M73.5 -49.75 L83.85 -49.75 83.8 -48.75 74.35 -48.75 74.05 -49.2 73.5 -49.75 M19.95 -48.75 L20.5 -49.15 21.25 -49.75 33.1 -49.75 33.7 -48.75 19.95 -48.75 M9.15 -18.75 L40.35 -18.8 40.35 -18.3 9.15 -18.0 9.15 -18.75 M42.3 -18.8 L79.35 -18.8 79.35 -18.3 42.3 -18.3 42.3 -18.8 M81.3 -18.8 L111.35 -18.8 111.35 -17.9 81.3 -18.3 81.3 -18.8 M9.1 -8.75 L7.45 -8.75 1.0 -8.75 1.0 -2.65 1.0 -1.0 117.1 -1.0 117.1 -2.65 117.1 -8.75 113.1 -8.75 111.45 -8.75 81.05 -8.75 79.55 -8.75 42.15 -8.75 40.55 -8.75 9.1 -8.75 M91.6 -49.75 L91.15 -48.75 88.1 -48.75 88.05 -49.75 91.6 -49.75 M122.55 -37.3 L123.25 -37.6 122.75 -37.65 123.85 -38.1 121.8 -30.95 121.05 -32.1 122.55 -37.3 M124.1 -29.8 L118.1 -8.75 118.1 -4.0 124.1 -24.85 126.0 -31.5 126.0 -36.5 124.1 -29.8" fill="#452e14" fill-rule="evenodd" stroke="none"/>
    <path d="M40.3 -48.75 L40.6 -45.45 36.1 -45.45 34.4 -46.4 Q31.65 -47.6 26.0 -47.15 L21.0 -46.45 19.75 -48.65 19.95 -48.75 33.7 -48.75 34.65 -47.6 Q35.4 -46.85 36.15 -47.7 L37.05 -48.75 40.3 -48.75 M44.6 -45.45 L44.3 -47.75 Q47.95 -47.55 51.2 -48.75 L56.15 -48.75 56.0 -48.05 Q51.65 -47.7 49.25 -45.45 L44.6 -45.45 M13.7 -48.75 L14.6 -46.7 15.15 -45.45 12.7 -45.45 11.45 -41.05 10.9 -40.2 Q10.2 -38.85 10.35 -37.8 L10.5 -37.75 6.05 -22.5 8.95 -22.5 113.6 -22.5 116.1 -30.4 Q117.9 -29.45 120.2 -29.2 L117.25 -18.8 113.15 -18.8 112.85 -20.8 111.35 -18.8 81.3 -18.8 80.7 -20.4 79.35 -18.8 42.3 -18.8 42.1 -21.65 40.35 -18.8 9.15 -18.75 8.85 -21.5 7.35 -18.75 1.2 -18.8 9.75 -48.75 13.7 -48.75 M74.35 -48.75 L83.8 -48.75 83.7 -45.45 68.7 -45.45 64.6 -48.4 64.0 -48.75 67.0 -48.75 Q70.6 -46.65 74.55 -46.45 L74.75 -47.1 74.45 -48.55 74.35 -48.75 M91.15 -48.75 L89.75 -45.45 88.25 -45.45 88.1 -48.75 91.15 -48.75 M117.85 -48.35 L118.5 -48.75 125.8 -48.75 124.1 -42.8 Q122.55 -43.85 120.5 -44.25 L120.8 -45.15 122.05 -45.3 Q122.85 -45.45 123.25 -46.25 122.75 -48.75 120.25 -48.65 118.9 -48.65 117.7 -47.9 L117.8 -48.25 117.85 -48.35 M112.9 -45.45 L111.65 -48.75 113.8 -48.75 Q114.25 -47.25 115.35 -46.6 L115.05 -45.45 112.9 -45.45 M117.1 -45.45 L117.25 -46.0 Q117.95 -45.65 118.6 -45.45 L117.1 -45.45 M118.3 -37.25 Q120.2 -36.7 122.2 -37.3 L121.95 -37.1 121.95 -37.05 122.55 -37.3 121.05 -32.1 Q119.6 -34.05 117.65 -35.15 L118.3 -37.25 M105.45 -48.75 Q106.7 -46.9 108.2 -45.45 L93.35 -45.45 94.65 -48.75 105.45 -48.75" fill="#cb9354" fill-rule="evenodd" stroke="none"/>
    <path d="M40.65 -41.7 Q40.6 -34.6 38.7 -27.8 L43.95 -27.4 Q45.25 -29.85 45.3 -32.75 45.35 -37.25 45.0 -41.7 L46.95 -41.7 Q46.55 -40.55 46.4 -39.25 46.25 -38.1 47.45 -38.35 51.5 -39.25 54.0 -41.7 L54.3 -41.7 Q52.1 -34.55 48.95 -27.7 48.0 -25.55 50.2 -24.25 52.25 -23.0 54.4 -23.9 55.95 -24.6 56.5 -26.2 59.05 -33.55 60.45 -41.15 65.15 -34.0 73.3 -34.6 74.45 -34.7 74.4 -36.1 74.2 -38.85 72.6 -41.1 L72.15 -41.7 83.4 -41.7 82.8 -36.05 81.25 -26.35 82.6 -24.35 Q84.5 -23.65 85.45 -25.15 86.7 -27.05 87.45 -29.2 L91.9 -41.7 106.25 -41.7 Q105.8 -39.8 107.7 -38.1 109.25 -36.75 110.9 -37.1 L109.75 -35.4 Q108.1 -37.65 104.95 -38.7 99.5 -39.0 101.65 -33.4 102.25 -31.8 103.4 -30.65 L106.85 -28.55 Q107.2 -28.3 107.5 -28.2 L107.65 -28.4 Q109.6 -28.2 111.5 -29.45 111.45 -31.35 110.95 -32.9 L111.95 -34.3 111.95 -34.35 112.0 -34.45 Q113.55 -31.75 116.1 -30.4 L113.6 -22.5 8.95 -22.5 13.25 -37.4 14.75 -37.35 Q17.6 -37.35 18.95 -38.8 L19.65 -37.75 Q18.45 -37.6 16.0 -35.4 L13.35 -32.7 Q13.15 -32.45 13.1 -31.0 13.05 -29.6 13.15 -29.45 19.65 -27.25 22.9 -33.0 23.6 -32.05 28.4 -28.3 33.35 -24.45 35.05 -23.65 35.2 -23.55 36.3 -24.4 L37.5 -25.4 Q32.55 -30.55 24.15 -41.7 L24.75 -41.7 Q29.7 -38.3 37.1 -41.5 L37.2 -41.7 40.65 -41.7 M114.8 -39.45 Q115.8 -38.25 117.45 -37.55 L118.3 -37.25 117.65 -35.15 Q115.7 -36.3 113.3 -36.6 L114.8 -39.45 M113.5 -41.7 L113.4 -41.45 111.95 -38.85 Q111.9 -40.6 110.9 -41.7 L113.5 -41.7" fill="#251d18" fill-rule="evenodd" stroke="none"/>
    <path d="M40.6 -45.45 L40.65 -42.95 40.65 -41.7 37.2 -41.7 Q38.25 -43.85 36.1 -45.45 L40.6 -45.45 M45.0 -41.7 L44.6 -45.45 49.25 -45.45 Q47.65 -44.0 46.95 -41.7 L45.0 -41.7 M54.4 -42.1 L54.3 -41.7 54.0 -41.7 54.4 -42.1 M15.15 -45.45 L15.75 -44.25 Q12.8 -42.95 11.45 -41.05 L12.7 -45.45 15.15 -45.45 M24.15 -41.7 L23.2 -42.95 24.75 -41.7 24.15 -41.7 M10.5 -37.75 L13.25 -37.4 8.95 -22.5 6.05 -22.5 10.5 -37.75 M7.35 -18.75 L8.85 -21.5 9.15 -18.75 7.35 -18.75 M40.35 -18.8 L42.1 -21.65 42.3 -18.8 40.35 -18.8 M79.35 -18.8 L80.7 -20.4 81.3 -18.8 79.35 -18.8 M111.35 -18.8 L112.85 -20.8 113.15 -18.8 111.35 -18.8 M9.15 -18.0 L40.35 -18.3 41.45 -13.4 42.3 -18.3 79.35 -18.3 80.2 -14.9 81.3 -18.3 111.35 -17.9 112.45 -13.4 113.15 -17.9 117.1 -17.8 117.1 -11.4 99.55 -11.4 98.5 -14.4 97.5 -11.4 29.0 -11.4 27.75 -14.9 26.6 -11.4 6.6 -11.4 5.5 -14.5 4.45 -11.4 1.0 -11.4 1.0 -17.8 7.35 -17.95 8.45 -13.4 9.15 -18.0 M9.1 -8.75 L40.55 -8.75 41.45 -4.65 42.15 -8.75 79.55 -8.75 80.2 -6.15 81.05 -8.75 111.45 -8.75 112.45 -4.65 113.1 -8.75 117.1 -8.75 117.1 -2.65 99.55 -2.65 98.5 -5.65 97.5 -2.65 29.0 -2.65 27.75 -6.15 26.6 -2.65 6.6 -2.65 5.5 -5.75 4.45 -2.65 1.0 -2.65 1.0 -8.75 7.45 -8.75 8.45 -4.65 9.1 -8.75 M68.7 -45.45 L83.7 -45.45 83.4 -41.7 72.15 -41.7 Q70.6 -43.75 68.7 -45.45 M89.75 -45.45 L88.35 -42.2 88.25 -45.45 89.75 -45.45 M120.5 -44.25 L118.25 -44.45 116.75 -44.5 117.1 -45.45 118.6 -45.45 120.8 -45.15 120.5 -44.25 M114.75 -44.6 Q113.55 -44.65 113.35 -43.35 L112.9 -45.45 115.05 -45.45 114.75 -44.6 M108.2 -45.45 Q109.9 -43.8 111.95 -42.6 L113.0 -42.4 113.35 -43.15 113.55 -41.85 113.5 -41.7 110.9 -41.7 Q109.85 -42.8 107.85 -43.2 106.9 -43.4 106.5 -42.5 L106.25 -41.7 91.9 -41.7 93.35 -45.45 108.2 -45.45" fill="#9b682f" fill-rule="evenodd" stroke="none"/>
    <path d="M7.35 -18.75 L9.15 -18.75 9.15 -18.0 8.45 -13.4 7.35 -17.95 7.35 -18.75 M40.35 -18.3 L40.35 -18.8 42.3 -18.8 42.3 -18.3 41.45 -13.4 40.35 -18.3 M79.35 -18.3 L79.35 -18.8 81.3 -18.8 81.3 -18.3 80.2 -14.9 79.35 -18.3 M111.35 -17.9 L111.35 -18.8 113.15 -18.8 113.15 -17.9 112.45 -13.4 111.35 -17.9 M7.45 -8.75 L9.1 -8.75 8.45 -4.65 7.45 -8.75 M40.55 -8.75 L42.15 -8.75 41.45 -4.65 40.55 -8.75 M79.55 -8.75 L81.05 -8.75 80.2 -6.15 79.55 -8.75 M111.45 -8.75 L113.1 -8.75 112.45 -4.65 111.45 -8.75 M124.1 -38.3 Q125.2 -39.0 125.9 -40.2 L126.0 -40.35 126.0 -40.25 124.1 -33.6 124.1 -38.3 M126.0 -41.1 L125.0 -42.15 126.0 -45.65 126.0 -41.1 M124.1 -24.85 L124.1 -29.8 126.0 -36.5 126.0 -31.5 124.1 -24.85" fill="#64431e" fill-rule="evenodd" stroke="none"/>
    <path d="M117.1 -11.4 L117.1 -9.75 1.0 -9.75 1.0 -11.4 4.45 -11.4 5.5 -14.5 6.6 -11.4 26.6 -11.4 27.75 -14.9 29.0 -11.4 97.5 -11.4 98.5 -14.4 99.55 -11.4 117.1 -11.4 M117.1 -2.65 L117.1 -1.0 1.0 -1.0 1.0 -2.65 4.45 -2.65 5.5 -5.75 6.6 -2.65 26.6 -2.65 27.75 -6.15 29.0 -2.65 97.5 -2.65 98.5 -5.65 99.55 -2.65 117.1 -2.65" fill="#734d22" fill-rule="evenodd" stroke="none"/>
    <path d="M123.85 -38.1 L124.1 -38.3 124.1 -33.6 118.1 -12.75 118.1 -18.2 121.25 -29.15 Q122.0 -29.3 122.2 -30.2 L121.8 -30.95 123.85 -38.1 M124.1 -24.85 L118.1 -4.0 118.1 -8.75 124.1 -29.8 124.1 -24.85" fill="#865928" fill-rule="evenodd" stroke="none"/>
    <path d="M95.05 -93.5 L96.0 -94.1 Q98.4 -95.45 101.4 -92.6 102.25 -91.75 103.35 -89.55 L103.5 -89.2 104.6 -86.8 106.25 -87.75 106.85 -88.1 107.0 -88.15 107.95 -88.6 108.95 -89.05 110.1 -89.4 110.55 -89.5 113.05 -89.55 114.05 -89.25 Q115.3 -88.75 115.8 -87.55 L116.25 -85.95 116.0 -84.65 115.4 -83.5 114.55 -82.4 114.25 -82.1 113.4 -81.4 111.7 -80.4 111.5 -80.3 110.9 -80.0 110.55 -79.8 109.95 -79.5 108.55 -78.9 Q110.6 -75.45 111.05 -73.5 L111.15 -72.95 111.2 -72.6 Q111.45 -70.0 110.45 -68.65 L109.5 -67.85 109.15 -67.7 Q108.15 -67.15 107.1 -67.3 105.8 -67.5 104.4 -68.75 L103.85 -69.25 103.4 -69.75 102.3 -71.5 101.65 -72.75 100.7 -75.0 98.4 -73.7 97.05 -73.05 Q95.6 -72.45 94.65 -72.35 90.5 -71.85 89.35 -74.35 88.3 -76.25 89.95 -78.55 L90.95 -79.75 91.0 -79.8 Q91.65 -80.4 92.85 -81.1 L94.4 -81.9 96.65 -82.9 96.05 -83.85 95.4 -85.15 94.3 -87.7 94.0 -88.85 93.95 -89.75 93.95 -90.65 Q93.95 -91.8 94.4 -92.6 L95.05 -93.5 M6.0 -54.25 Q5.2 -55.55 5.85 -57.7 L6.05 -58.3 6.3 -58.85 7.8 -60.95 8.45 -61.65 9.7 -63.0 Q6.2 -65.5 5.3 -67.05 3.4 -70.25 5.0 -72.1 6.5 -74.1 10.05 -72.8 11.7 -72.15 14.7 -69.2 L16.1 -71.05 Q17.7 -72.95 18.65 -73.55 20.55 -74.7 21.95 -74.6 22.95 -74.55 23.7 -73.85 L24.15 -73.45 Q25.1 -72.35 24.85 -70.4 L24.45 -68.85 24.45 -68.8 Q24.0 -67.7 22.4 -65.85 L20.8 -64.1 22.65 -62.7 Q24.6 -61.2 25.2 -60.15 27.15 -57.0 25.45 -55.15 24.55 -53.95 22.8 -53.95 L21.6 -54.1 20.45 -54.45 18.8 -55.45 17.5 -56.4 16.95 -56.85 15.75 -57.95 14.8 -56.65 13.9 -55.6 12.7 -54.35 11.85 -53.7 11.75 -53.65 Q8.5 -51.7 6.8 -53.35 L6.75 -53.4 Q6.25 -53.75 6.0 -54.25 M43.95 -111.55 L43.6 -111.7 43.55 -111.75 Q42.35 -112.25 41.85 -113.35 41.3 -114.4 41.35 -115.95 L41.45 -116.9 41.45 -117.1 41.85 -118.55 42.25 -119.55 44.0 -123.05 44.15 -123.3 43.7 -123.45 Q39.6 -125.15 38.2 -126.5 L37.9 -126.85 37.05 -127.9 Q35.5 -130.2 36.55 -132.1 37.65 -134.75 41.9 -134.2 43.95 -133.95 48.1 -131.5 L49.15 -134.0 Q50.45 -136.55 51.35 -137.45 54.35 -140.55 56.9 -139.1 57.75 -138.75 58.25 -138.1 59.05 -137.0 59.1 -135.1 L59.0 -133.75 58.75 -132.6 58.4 -131.6 57.9 -130.5 57.6 -129.9 57.2 -129.1 57.15 -129.0 56.3 -127.5 57.45 -127.05 58.15 -126.75 58.8 -126.45 59.0 -126.35 Q61.4 -125.2 62.25 -124.3 64.6 -122.0 64.4 -119.95 L64.15 -119.15 63.95 -118.75 Q62.9 -116.2 58.55 -116.6 57.5 -116.75 55.6 -117.65 L54.75 -118.05 53.95 -118.45 Q52.6 -119.1 52.35 -119.3 L51.15 -116.55 Q50.2 -114.65 49.35 -113.65 L49.1 -113.4 Q47.95 -112.25 46.9 -111.75 L43.95 -111.55 M37.25 -131.75 Q36.35 -130.05 38.65 -127.7 L38.75 -127.6 42.65 -124.85 45.25 -123.1 44.65 -122.0 43.45 -119.65 42.9 -118.25 42.5 -116.6 42.5 -116.45 42.45 -115.45 Q42.4 -114.15 42.9 -113.35 43.2 -112.75 43.85 -112.45 45.55 -111.65 47.75 -113.65 L48.0 -113.9 Q48.95 -114.85 50.45 -117.65 L51.45 -119.45 52.1 -120.7 53.35 -119.95 54.85 -119.25 55.2 -119.05 57.15 -118.25 Q58.3 -117.8 59.05 -117.7 62.35 -117.35 63.25 -119.1 L63.35 -119.3 63.5 -120.15 Q63.5 -121.55 61.75 -123.25 L58.7 -125.55 57.85 -125.95 56.4 -126.5 55.7 -126.9 Q55.3 -127.3 55.3 -127.7 L56.0 -129.0 56.4 -129.75 56.6 -130.2 57.0 -131.2 57.25 -131.8 57.6 -132.8 57.9 -134.25 Q58.3 -137.55 56.55 -138.4 54.75 -139.3 52.4 -136.95 51.4 -135.95 50.1 -133.35 L49.0 -131.0 48.95 -130.8 48.35 -130.85 45.8 -131.75 Q42.55 -133.0 41.4 -133.15 38.05 -133.55 37.25 -131.75 M16.8 -70.3 L15.25 -68.45 Q15.0 -68.35 12.8 -69.9 10.3 -71.6 9.4 -71.95 6.6 -72.95 5.55 -71.65 4.45 -70.3 6.0 -67.85 6.5 -66.95 8.7 -64.7 L9.9 -63.5 10.5 -62.7 9.95 -62.1 9.2 -61.2 8.55 -60.45 7.15 -58.35 6.85 -57.75 6.65 -57.15 Q6.2 -55.55 6.65 -54.6 L7.15 -53.95 7.65 -53.65 Q8.65 -53.2 10.15 -53.85 L10.95 -54.3 11.7 -54.85 11.9 -55.0 13.5 -56.6 13.85 -57.0 14.55 -57.75 15.9 -59.3 Q16.05 -58.95 17.5 -57.75 L17.85 -57.45 18.25 -57.1 18.45 -57.0 19.7 -56.05 21.1 -55.25 21.25 -55.2 22.55 -54.85 Q24.2 -54.6 24.95 -55.55 26.05 -56.9 24.55 -59.4 23.05 -61.9 20.7 -63.25 20.45 -63.35 20.2 -63.7 L20.1 -63.85 20.05 -64.0 19.95 -64.45 21.65 -66.35 Q23.1 -68.35 23.55 -69.5 24.6 -72.15 23.25 -73.3 21.95 -74.45 19.5 -72.9 18.4 -72.25 16.8 -70.3 M115.15 -87.2 Q114.75 -88.0 113.85 -88.35 L112.9 -88.55 111.05 -88.5 109.9 -88.3 108.8 -88.0 107.95 -87.7 107.05 -87.3 106.7 -87.1 105.4 -86.3 105.15 -86.1 104.7 -86.0 103.85 -86.15 102.65 -88.65 101.4 -90.7 100.35 -92.05 Q98.1 -94.25 96.35 -93.45 L95.65 -92.9 95.15 -92.05 94.95 -90.5 95.0 -89.8 95.05 -89.4 Q95.2 -88.0 96.45 -85.5 97.4 -83.4 97.7 -83.1 L97.1 -82.5 Q96.5 -82.1 95.5 -81.45 L95.1 -81.25 94.35 -80.75 91.65 -78.9 91.45 -78.7 90.6 -77.65 Q89.4 -75.95 90.05 -74.7 90.95 -72.95 94.15 -73.4 L95.7 -73.75 97.2 -74.25 98.55 -74.75 101.4 -75.7 102.8 -72.75 103.35 -71.8 Q104.1 -70.5 104.8 -69.8 L105.6 -69.05 Q107.4 -67.65 108.8 -68.35 L108.9 -68.35 109.75 -69.2 Q110.4 -70.3 110.15 -72.4 L110.1 -72.75 109.8 -73.8 108.7 -76.5 107.75 -78.6 107.3 -79.6 108.1 -79.85 110.05 -80.85 113.2 -82.7 113.7 -83.15 114.15 -83.6 114.85 -84.55 115.35 -85.85 Q115.45 -86.6 115.15 -87.2" fill="#7d1b8b" fill-rule="evenodd" stroke="none"/>
    <path d="M37.25 -131.75 Q38.05 -133.55 41.4 -133.15 42.55 -133.0 45.8 -131.75 L48.35 -130.85 48.95 -130.8 49.0 -131.0 50.1 -133.35 Q51.4 -135.95 52.4 -136.95 54.75 -139.3 56.55 -138.4 58.3 -137.55 57.9 -134.25 L57.6 -132.8 57.25 -131.8 57.0 -131.2 56.6 -130.2 56.4 -129.75 56.0 -129.0 55.3 -127.7 Q55.3 -127.3 55.7 -126.9 L56.4 -126.5 57.85 -125.95 58.7 -125.55 61.75 -123.25 Q63.5 -121.55 63.5 -120.15 L63.35 -119.3 63.25 -119.1 Q62.35 -117.35 59.05 -117.7 58.3 -117.8 57.15 -118.25 L55.2 -119.05 54.85 -119.25 53.35 -119.95 52.1 -120.7 51.45 -119.45 50.45 -117.65 Q48.95 -114.85 48.0 -113.9 L47.75 -113.65 Q45.55 -111.65 43.85 -112.45 43.2 -112.75 42.9 -113.35 42.4 -114.15 42.45 -115.45 L42.5 -116.45 42.5 -116.6 42.9 -118.25 43.45 -119.65 44.65 -122.0 45.25 -123.1 42.65 -124.85 38.75 -127.6 38.65 -127.7 Q36.35 -130.05 37.25 -131.75 M48.95 -130.8 L48.65 -128.25 37.75 -131.65 47.3 -125.2 45.25 -123.1 48.25 -123.45 43.95 -112.9 47.45 -118.45 47.45 -118.5 49.9 -122.5 52.1 -120.7 52.1 -123.15 62.9 -119.4 53.1 -125.9 52.95 -126.0 55.25 -127.75 53.3 -127.95 56.2 -138.1 50.2 -129.2 49.0 -130.75 48.95 -130.8 M16.8 -70.3 Q18.4 -72.25 19.5 -72.9 21.95 -74.45 23.25 -73.3 24.6 -72.15 23.55 -69.5 23.1 -68.35 21.65 -66.35 L19.95 -64.45 20.05 -64.0 20.1 -63.85 20.2 -63.7 Q20.45 -63.35 20.7 -63.25 23.05 -61.9 24.55 -59.4 26.05 -56.9 24.95 -55.55 24.2 -54.6 22.55 -54.85 L21.25 -55.2 21.1 -55.25 19.7 -56.05 18.45 -57.0 18.25 -57.1 17.85 -57.45 17.5 -57.75 Q16.05 -58.95 15.9 -59.3 L14.55 -57.75 13.85 -57.0 13.5 -56.6 11.9 -55.0 11.7 -54.85 10.95 -54.3 10.15 -53.85 Q8.65 -53.2 7.65 -53.65 L7.15 -53.95 6.65 -54.6 Q6.2 -55.55 6.65 -57.15 L6.85 -57.75 7.15 -58.35 8.55 -60.45 9.2 -61.2 9.95 -62.1 10.5 -62.7 9.9 -63.5 8.7 -64.7 Q6.5 -66.95 6.0 -67.85 4.45 -70.3 5.55 -71.65 6.6 -72.95 9.4 -71.95 10.3 -71.6 12.8 -69.9 15.0 -68.35 15.25 -68.45 L16.8 -70.3 M10.5 -62.7 L13.15 -62.35 7.3 -54.3 14.4 -61.15 15.9 -59.3 16.35 -61.35 24.65 -55.9 17.65 -63.55 19.95 -64.55 18.35 -65.1 22.9 -73.1 16.0 -66.8 15.25 -68.45 14.5 -66.35 5.95 -71.45 12.7 -64.0 10.5 -62.7 M115.15 -87.2 Q115.45 -86.6 115.35 -85.85 L114.85 -84.55 114.15 -83.6 113.7 -83.15 113.2 -82.7 110.05 -80.85 108.1 -79.85 107.3 -79.6 107.75 -78.6 108.7 -76.5 109.8 -73.8 110.1 -72.75 110.15 -72.4 Q110.4 -70.3 109.75 -69.2 L108.9 -68.35 108.8 -68.35 Q107.4 -67.65 105.6 -69.05 L104.8 -69.8 Q104.1 -70.5 103.35 -71.8 L102.8 -72.75 101.4 -75.7 98.55 -74.75 97.2 -74.25 95.7 -73.75 94.15 -73.4 Q90.95 -72.95 90.05 -74.7 89.4 -75.95 90.6 -77.65 L91.45 -78.7 91.65 -78.9 94.35 -80.75 95.1 -81.25 95.5 -81.45 Q96.5 -82.1 97.1 -82.5 L97.7 -83.1 Q97.4 -83.4 96.45 -85.5 95.2 -88.0 95.05 -89.4 L95.0 -89.8 94.95 -90.5 95.15 -92.05 95.65 -92.9 96.35 -93.45 Q98.1 -94.25 100.35 -92.05 L101.4 -90.7 102.65 -88.65 103.85 -86.15 104.7 -86.0 105.15 -86.1 105.4 -86.3 106.7 -87.1 107.05 -87.3 107.95 -87.7 108.8 -88.0 109.9 -88.3 111.05 -88.5 112.9 -88.55 113.85 -88.35 Q114.75 -88.0 115.15 -87.2 M108.65 -83.1 L114.7 -87.05 103.75 -83.35 103.75 -86.15 102.5 -84.75 96.4 -93.0 99.7 -83.15 97.7 -83.1 99.5 -81.4 97.8 -80.15 90.45 -75.0 101.05 -78.55 101.4 -75.7 102.95 -78.25 108.5 -68.7 108.5 -68.8 104.7 -78.95 107.3 -79.6 105.4 -81.05 108.55 -83.05 108.65 -83.1" fill="#f284e1" fill-rule="evenodd" stroke="none"/>
    <path d="M48.95 -130.8 L49.0 -130.75 50.2 -129.2 56.2 -138.1 53.3 -127.95 55.25 -127.75 52.95 -126.0 53.1 -125.9 62.9 -119.4 52.1 -123.15 52.1 -120.7 49.9 -122.5 47.45 -118.5 47.45 -118.45 43.95 -112.9 48.25 -123.45 45.25 -123.1 47.3 -125.2 37.75 -131.65 48.65 -128.25 48.95 -130.8 M50.55 -128.05 L50.2 -128.1 49.6 -128.0 48.6 -127.45 Q48.0 -126.8 48.0 -125.9 L48.0 -125.8 Q48.0 -125.05 48.5 -124.5 L48.6 -124.35 49.65 -123.7 50.2 -123.65 50.65 -123.7 Q51.25 -123.8 51.75 -124.35 52.2 -124.8 52.35 -125.4 L52.4 -125.9 52.2 -126.85 51.75 -127.45 Q51.25 -127.95 50.55 -128.05 M10.5 -62.7 L12.7 -64.0 5.95 -71.45 14.5 -66.35 15.25 -68.45 16.0 -66.8 22.9 -73.1 18.35 -65.1 19.95 -64.55 17.65 -63.55 24.65 -55.9 16.35 -61.35 15.9 -59.3 14.4 -61.15 7.3 -54.3 13.15 -62.35 10.5 -62.7 M14.25 -65.7 L13.7 -65.05 Q13.5 -64.8 13.45 -64.45 13.3 -63.7 13.65 -63.05 L13.8 -62.9 14.5 -62.35 14.9 -62.2 15.55 -62.15 16.3 -62.4 Q16.9 -62.7 17.15 -63.3 L17.2 -63.5 17.25 -63.7 Q17.3 -64.4 16.9 -65.0 16.6 -65.7 15.8 -65.9 L14.25 -65.7 M108.65 -83.1 L108.55 -83.05 105.4 -81.05 107.3 -79.6 104.7 -78.95 108.5 -68.8 108.5 -68.7 102.95 -78.25 101.4 -75.7 101.05 -78.55 90.45 -75.0 97.8 -80.15 99.5 -81.4 97.7 -83.1 99.7 -83.15 96.4 -93.0 102.5 -84.75 103.75 -86.15 103.75 -83.35 114.7 -87.05 108.65 -83.1 M103.55 -82.9 Q102.85 -83.4 101.9 -83.25 L101.25 -83.05 100.55 -82.5 Q100.05 -81.85 100.05 -81.0 L100.05 -80.85 100.45 -79.95 100.95 -79.5 Q101.65 -78.95 102.45 -79.05 L103.05 -79.2 103.7 -79.65 103.9 -79.9 104.2 -80.4 104.3 -81.45 Q104.25 -82.35 103.55 -82.9" fill="#ee59d8" fill-rule="evenodd" stroke="none"/>
    <path d="M50.55 -128.05 Q51.25 -127.95 51.75 -127.45 L52.2 -126.85 52.4 -125.9 52.35 -125.4 Q52.2 -124.8 51.75 -124.35 51.25 -123.8 50.65 -123.7 L50.2 -123.65 49.65 -123.7 48.6 -124.35 48.5 -124.5 Q48.0 -125.05 48.0 -125.8 L48.0 -125.9 Q48.0 -126.8 48.6 -127.45 L49.6 -128.0 50.2 -128.1 50.55 -128.05 M14.25 -65.7 L15.8 -65.9 Q16.6 -65.7 16.9 -65.0 17.3 -64.4 17.25 -63.7 L17.2 -63.5 17.15 -63.3 Q16.9 -62.7 16.3 -62.4 L15.55 -62.15 14.9 -62.2 14.5 -62.35 13.8 -62.9 13.65 -63.05 Q13.3 -63.7 13.45 -64.45 13.5 -64.8 13.7 -65.05 L14.25 -65.7 M103.55 -82.9 Q104.25 -82.35 104.3 -81.45 L104.2 -80.4 103.9 -79.9 103.7 -79.65 103.05 -79.2 102.45 -79.05 Q101.65 -78.95 100.95 -79.5 L100.45 -79.95 100.05 -80.85 100.05 -81.0 Q100.05 -81.85 100.55 -82.5 L101.25 -83.05 101.9 -83.25 Q102.85 -83.4 103.55 -82.9" fill="#efb01f" fill-rule="evenodd" stroke="none"/>
  </g>
</svg>
