<?xml version="1.0" encoding="UTF-8" standalone="no"?>
<svg xmlns:ffdec="https://www.free-decompiler.com/flash" xmlns:xlink="http://www.w3.org/1999/xlink" ffdec:objectType="shape" height="64.2px" width="42.05px" xmlns="http://www.w3.org/2000/svg">
  <g transform="matrix(1.0, 0.0, 0.0, 1.0, 10.75, 10.05)">
    <path d="M17.3 29.25 Q16.8 30.5 15.6 31.45 L15.4 31.6 13.9 32.25 13.7 32.25 12.6 30.7 12.15 30.0 11.5 28.9 10.4 27.1 10.45 26.8 10.25 26.3 10.5 26.7 Q10.8 26.5 9.9 25.9 9.4 25.9 9.05 25.35 8.7 24.8 8.7 24.0 L8.65 23.9 7.65 22.55 5.7 19.8 4.75 18.25 0.55 11.7 0.0 11.15 Q-0.4 10.6 -0.4 10.0 L0.3 9.3 Q1.25 8.6 2.6 8.3 5.85 12.15 12.65 23.6 L12.55 24.6 Q12.45 24.9 12.6 25.05 L13.4 24.9 Q14.0 25.0 14.7 26.1 L15.4 27.0 16.15 27.8 17.3 29.25 M0.65 10.55 L5.35 17.8 7.9 22.05 8.8 23.15 Q9.15 22.75 9.5 22.65 L10.65 22.05 10.2 21.15 2.8 9.5 2.35 8.8 Q0.6 9.75 0.3 10.05 L0.65 10.55 M12.1 23.45 L11.1 22.65 Q10.85 22.7 11.0 22.95 L11.95 24.2 12.1 23.45 M9.25 23.95 L9.15 24.4 9.45 25.05 9.95 25.2 9.25 23.95 M10.55 23.2 L9.8 23.95 Q11.6 27.05 12.15 27.2 L12.8 26.65 Q12.65 25.9 10.55 23.2 M14.95 27.25 L13.75 25.9 Q13.4 25.6 13.0 25.65 13.5 26.2 13.5 27.4 L13.45 27.75 13.25 28.0 12.65 28.25 Q11.85 27.9 11.85 27.65 L11.15 26.9 11.05 27.25 12.65 29.75 13.85 31.7 Q14.4 31.7 16.75 29.55 L14.95 27.25 M13.55 29.8 Q13.55 29.2 13.7 29.05 L13.8 28.85 15.65 28.7 Q15.25 29.7 14.15 30.75 L13.95 30.55 13.65 30.45 13.55 29.8" fill="#333333" fill-rule="evenodd" stroke="none"/>
    <path d="M0.65 10.55 L1.25 10.25 3.9 14.45 8.5 21.65 7.9 22.05 5.35 17.8 0.65 10.55 M10.2 21.15 L9.45 21.65 4.75 14.4 2.05 10.0 2.8 9.5 10.2 21.15 M10.55 23.2 Q12.65 25.9 12.8 26.65 L12.15 27.2 Q11.6 27.05 9.8 23.95 L10.55 23.2 M14.95 27.25 L16.75 29.55 Q14.4 31.7 13.85 31.7 L12.65 29.75 12.65 28.25 13.25 28.0 13.45 27.75 13.4 27.9 Q15.2 27.5 14.95 27.25 M13.55 29.8 L13.65 30.45 13.95 30.55 14.15 30.75 Q15.25 29.7 15.65 28.7 L13.8 28.85 13.7 29.05 Q13.55 29.2 13.55 29.8" fill="#8c8c8c" fill-rule="evenodd" stroke="none"/>
    <path d="M7.9 22.05 L8.5 21.65 3.9 14.45 1.25 10.25 0.65 10.55 0.3 10.05 Q0.6 9.75 2.35 8.8 L2.8 9.5 2.05 10.0 4.75 14.4 9.45 21.65 10.2 21.15 10.65 22.05 9.5 22.65 Q9.15 22.75 8.8 23.15 L7.9 22.05 M9.25 23.95 L9.95 25.2 9.45 25.05 9.15 24.4 9.25 23.95 M12.1 23.45 L11.95 24.2 11.0 22.95 Q10.85 22.7 11.1 22.65 L12.1 23.45 M13.45 27.75 L13.5 27.4 Q13.5 26.2 13.0 25.65 13.4 25.6 13.75 25.9 L14.95 27.25 Q15.2 27.5 13.4 27.9 L13.45 27.75 M12.65 29.75 L11.05 27.25 11.15 26.9 11.85 27.65 Q11.85 27.9 12.65 28.25 L12.65 29.75" fill="#707070" fill-rule="evenodd" stroke="none"/>
    <path d="M9.05 3.05 L4.75 -3.9 Q1.45 -8.65 -3.8 -8.65 -5.7 -8.65 -7.25 -7.4 -9.5 -5.6 -9.5 -1.8 L-8.2 5.8 -7.85 7.2 Q-6.45 13.3 -5.0 13.3 L-0.65 21.65 Q3.8 30.25 4.55 31.3 L10.9 40.3 15.05 47.35 Q19.1 52.8 23.85 52.8 25.65 52.8 27.5 51.25 30.0 49.15 30.0 45.45 30.0 40.8 26.4 33.65 L22.0 25.0 21.65 23.95 21.05 22.9 20.35 21.95 Q18.6 19.8 15.5 14.3 L11.7 7.5 11.1 6.15 9.9 3.85 9.05 3.05 M-10.75 -1.8 Q-10.75 -5.55 -9.3 -7.45 -7.35 -10.05 -2.35 -10.05 1.75 -10.05 6.15 -4.05 8.4 -1.1 10.0 1.9 10.5 1.9 11.7 4.05 L13.45 7.2 15.05 9.95 19.4 17.55 Q23.15 24.4 23.75 26.5 23.9 27.0 27.6 34.1 31.3 41.85 31.3 45.95 31.3 48.7 29.4 51.2 27.2 54.15 23.85 54.15 18.2 54.15 14.3 48.8 L10.8 42.3 4.25 33.05 -5.75 14.75 Q-7.8 10.7 -9.0 7.2 -10.75 2.15 -10.75 -1.8" fill="#17110d" fill-rule="evenodd" stroke="none"/>
    <path d="M6.05 3.65 Q4.0 0.15 -2.4 -7.5 -6.35 -7.5 -7.6 -3.9 -8.05 -2.55 -8.05 0.2 -8.05 3.3 -6.45 7.2 -4.9 11.1 -1.8 15.8 L2.5 22.05 Q4.45 24.9 4.45 25.85 4.45 26.55 8.05 31.2 L12.0 36.4 Q13.2 38.8 16.1 41.0 L18.75 42.8 17.6 45.4 20.4 48.2 Q20.4 48.8 20.65 48.7 L21.65 48.45 Q25.2 48.45 26.65 46.5 27.5 45.4 27.5 43.85 L24.7 35.75 Q21.7 27.7 20.6 27.7 20.05 27.7 19.4 28.05 L17.3 29.25 16.15 27.8 22.0 25.0 26.4 33.65 Q30.0 40.8 30.0 45.45 30.0 49.15 27.5 51.25 25.65 52.8 23.85 52.8 19.1 52.8 15.05 47.35 L10.9 40.3 4.55 31.3 Q3.8 30.25 -0.65 21.65 L-5.0 13.3 Q-6.45 13.3 -7.85 7.2 L-8.2 5.8 -9.5 -1.8 Q-9.5 -5.6 -7.25 -7.4 -5.7 -8.65 -3.8 -8.65 1.45 -8.65 4.75 -3.9 L9.05 3.05 6.05 3.65 M12.6 30.7 L11.35 30.85 Q10.5 30.85 9.15 29.3 L10.1 30.2 12.15 30.0 12.6 30.7 M20.35 21.95 L21.05 22.9 18.35 23.6 Q17.55 23.85 16.5 24.75 14.75 24.2 11.95 19.8 L5.35 9.35 Q5.35 8.75 5.5 8.8 L5.95 8.7 8.95 7.2 11.1 6.15 11.7 7.5 9.95 8.15 6.95 9.45 6.9 9.6 Q6.75 9.65 6.75 10.25 6.75 10.75 11.15 17.0 L15.95 24.0 18.4 22.7 20.35 21.95" fill="#36271d" fill-rule="evenodd" stroke="none"/>
    <path d="M17.3 29.25 L19.4 28.05 Q20.05 27.7 20.6 27.7 21.7 27.7 24.7 35.75 L27.5 43.85 Q27.5 45.4 26.65 46.5 25.2 48.45 21.65 48.45 L20.65 48.7 Q20.4 48.8 20.4 48.2 L17.6 45.4 18.75 42.8 16.1 41.0 Q13.2 38.8 12.0 36.4 L8.05 31.2 Q4.45 26.55 4.45 25.85 4.45 24.9 2.5 22.05 L-1.8 15.8 Q-4.9 11.1 -6.45 7.2 -8.05 3.3 -8.05 0.2 -8.05 -2.55 -7.6 -3.9 -6.35 -7.5 -2.4 -7.5 4.0 0.15 6.05 3.65 3.35 4.85 1.05 6.3 L-0.3 7.2 Q-2.5 8.7 -2.5 9.7 -2.5 11.0 9.15 29.3 10.5 30.85 11.35 30.85 L12.6 30.7 13.7 32.25 13.9 32.25 12.9 32.75 Q13.45 35.05 14.85 37.35 16.35 39.9 17.55 39.9 20.25 39.9 22.0 38.3 23.2 37.15 23.2 36.55 23.2 34.15 21.95 32.0 20.95 30.25 20.45 30.25 19.1 30.25 16.45 31.2 L15.4 31.6 15.6 31.45 Q16.8 30.5 17.3 29.25 M-6.45 -0.7 Q-6.45 1.05 -5.0 4.05 -3.65 6.9 -3.1 6.9 3.4 3.9 3.4 2.75 -1.55 -5.95 -3.1 -5.95 -6.45 -4.1 -6.45 -0.7 M21.05 22.9 L21.65 23.95 Q18.3 24.6 17.95 25.0 L15.4 27.0 14.7 26.1 16.5 24.75 Q17.55 23.85 18.35 23.6 L21.05 22.9 M11.7 7.5 L15.5 14.3 Q18.6 19.8 20.35 21.95 L18.4 22.7 9.95 8.15 11.7 7.5 M9.9 3.85 L11.1 6.15 8.95 7.2 5.95 8.7 Q5.4 8.25 5.1 7.45 L5.05 7.2 4.85 6.55 2.6 8.3 Q1.25 8.6 0.3 9.3 L-0.4 10.0 Q-0.4 10.6 0.0 11.15 L0.55 11.7 4.75 18.25 5.7 19.8 7.65 22.55 8.65 23.9 8.7 24.0 Q8.7 24.8 9.05 25.35 9.4 25.9 9.9 25.9 L10.45 26.8 10.4 27.1 11.5 28.9 10.55 29.15 Q9.25 29.15 4.55 21.0 1.05 14.95 -1.45 9.75 -0.3 8.8 2.55 7.2 L3.55 6.65 Q7.85 4.3 9.9 3.85 M26.35 43.8 Q26.35 42.05 25.4 40.95 24.7 40.1 24.1 40.1 20.7 40.1 19.9 43.7 19.15 47.25 22.45 47.25 24.75 47.25 26.35 43.8" fill="#493527" fill-rule="evenodd" stroke="none"/>
    <path d="M15.4 31.6 L16.45 31.2 Q19.1 30.25 20.45 30.25 20.95 30.25 21.95 32.0 23.2 34.15 23.2 36.55 23.2 37.15 22.0 38.3 20.25 39.9 17.55 39.9 16.35 39.9 14.85 37.35 13.45 35.05 12.9 32.75 L13.9 32.25 15.4 31.6 M-6.45 -0.7 Q-6.45 -4.1 -3.1 -5.95 -1.55 -5.95 3.4 2.75 3.4 3.9 -3.1 6.9 -3.65 6.9 -5.0 4.05 -6.45 1.05 -6.45 -0.7 M16.5 24.75 L14.7 26.1 Q14.0 25.0 13.4 24.9 L12.6 25.05 Q12.45 24.9 12.55 24.6 L12.65 23.6 Q5.85 12.15 2.6 8.3 L4.85 6.55 5.05 7.2 5.1 7.45 Q5.4 8.25 5.95 8.7 L5.5 8.8 Q5.35 8.75 5.35 9.35 L11.95 19.8 Q14.75 24.2 16.5 24.75 M18.4 22.7 L15.95 24.0 11.15 17.0 Q6.75 10.75 6.75 10.25 6.75 9.65 6.9 9.6 L6.95 9.45 9.95 8.15 18.4 22.7 M9.9 25.9 Q10.8 26.5 10.5 26.7 L10.25 26.3 10.45 26.8 9.9 25.9 M26.35 43.8 Q24.75 47.25 22.45 47.25 19.15 47.25 19.9 43.7 20.7 40.1 24.1 40.1 24.7 40.1 25.4 40.95 26.35 42.05 26.35 43.8" fill="#654936" fill-rule="evenodd" stroke="none"/>
    <path d="M9.15 29.3 Q-2.5 11.0 -2.5 9.7 -2.5 8.7 -0.3 7.2 L1.05 6.3 Q3.35 4.85 6.05 3.65 L9.05 3.05 9.9 3.85 Q7.85 4.3 3.55 6.65 L2.55 7.2 Q-0.3 8.8 -1.45 9.75 1.05 14.95 4.55 21.0 9.25 29.15 10.55 29.15 L11.5 28.9 12.15 30.0 10.1 30.2 9.15 29.3 M22.0 25.0 L16.15 27.8 15.4 27.0 17.95 25.0 Q18.3 24.6 21.65 23.95 L22.0 25.0" fill="#281d15" fill-rule="evenodd" stroke="none"/>
  </g>
</svg>
