<?xml version="1.0" encoding="UTF-8" standalone="no"?>
<svg xmlns:ffdec="https://www.free-decompiler.com/flash" xmlns:xlink="http://www.w3.org/1999/xlink" ffdec:objectType="shape" height="19.85px" width="46.1px" xmlns="http://www.w3.org/2000/svg">
  <g transform="matrix(1.0, 0.0, 0.0, 1.0, 26.0, 15.85)">
    <path d="M10.45 -13.25 Q12.6 -11.3 13.6 -5.6 14.4 -1.2 14.55 -0.75 L14.55 -0.7 Q15.0 1.05 15.65 1.4 16.6 1.7 17.25 1.15 18.0 0.4 18.45 -1.45 19.05 -4.75 16.45 -9.0 13.95 -13.0 11.15 -13.95 L8.75 -14.3 Q9.65 -14.05 10.45 -13.25 M7.3 -15.65 L11.65 -15.4 Q14.9 -14.4 17.75 -9.8 20.75 -5.0 19.95 -1.15 19.4 1.35 18.3 2.3 17.2 3.25 15.7 2.95 L15.15 2.8 Q14.2 2.55 13.55 1.05 L13.1 -0.3 12.1 -5.3 Q11.2 -10.35 9.4 -12.15 L8.3 -12.85 8.25 -12.85 6.0 -13.1 5.45 -13.05 5.05 -13.4 Q4.85 -13.65 4.95 -13.95 L5.2 -14.4 Q6.6 -15.5 7.3 -15.65 M-22.4 -8.05 Q-25.0 -3.8 -24.3 -0.5 -23.9 1.35 -23.1 2.1 L-21.5 2.3 Q-20.9 1.95 -20.45 0.2 L-20.45 0.15 -19.5 -4.7 Q-18.55 -10.4 -16.45 -12.4 L-16.45 -12.35 -14.7 -13.45 -14.65 -13.45 -17.1 -13.1 Q-19.95 -12.1 -22.4 -8.05 M-25.8 -0.15 Q-26.65 -4.0 -23.7 -8.85 -20.9 -13.5 -17.6 -14.5 L-13.3 -14.8 -11.2 -13.55 -10.9 -13.1 -11.0 -12.55 -11.4 -12.2 -11.95 -12.25 -14.2 -12.0 -14.25 -11.95 Q-14.85 -11.8 -15.35 -11.3 L-15.35 -11.25 Q-17.15 -9.5 -18.0 -4.4 -18.8 0.15 -18.95 0.6 L-18.95 0.55 Q-19.65 3.35 -21.0 3.75 -22.85 4.4 -24.1 3.25 -25.25 2.3 -25.8 -0.15" fill="#000000" fill-rule="evenodd" stroke="none"/>
    <path d="M10.45 -13.25 Q9.65 -14.05 8.75 -14.3 L11.15 -13.95 Q13.95 -13.0 16.45 -9.0 19.05 -4.75 18.45 -1.45 18.0 0.4 17.25 1.15 16.6 1.7 15.65 1.4 15.0 1.05 14.55 -0.7 L14.55 -0.75 Q14.4 -1.2 13.6 -5.6 12.6 -11.3 10.45 -13.25 M-22.4 -8.05 Q-19.95 -12.1 -17.1 -13.1 L-14.65 -13.45 -14.7 -13.45 -16.45 -12.35 -16.45 -12.4 Q-18.55 -10.4 -19.5 -4.7 L-20.45 0.15 -20.45 0.2 Q-20.9 1.95 -21.5 2.3 L-23.1 2.1 Q-23.9 1.35 -24.3 -0.5 -25.0 -3.8 -22.4 -8.05" fill="#3a281b" fill-rule="evenodd" stroke="none"/>
  </g>
</svg>
