<?xml version="1.0" encoding="UTF-8" standalone="no"?>
<svg xmlns:ffdec="https://www.free-decompiler.com/flash" xmlns:xlink="http://www.w3.org/1999/xlink" ffdec:objectType="shape" height="83.05px" width="83.05px" xmlns="http://www.w3.org/2000/svg">
  <g transform="matrix(1.0, 0.0, 0.0, 1.0, 35.0, 65.0)">
    <path d="M-8.55 13.2 L-11.55 11.8 Q-16.9 9.0 -21.45 4.45 -32.35 -6.4 -32.95 -21.5 -25.8 -21.3 -18.6 -23.0 -18.35 -20.1 -23.35 -17.0 2.95 -13.55 26.15 -25.0 25.85 -16.45 28.6 -7.7 L28.0 -6.45 Q25.45 -1.25 20.95 3.15 10.5 13.4 -4.3 13.4 L-8.55 13.2 M10.3 -7.4 Q9.9 -7.8 9.3 -7.8 8.7 -7.8 8.3 -7.4 7.9 -7.0 7.9 -6.4 7.9 -5.8 8.3 -5.4 8.7 -5.0 9.3 -5.0 9.9 -5.0 10.3 -5.4 10.7 -5.8 10.7 -6.4 10.7 -7.0 10.3 -7.4" fill="#ce9255" fill-rule="evenodd" stroke="none"/>
    <path d="M-32.95 -25.45 Q-32.4 -38.05 -24.8 -47.6 L-21.8 -51.05 -21.85 -51.05 -21.55 -51.3 -21.25 -51.65 Q-9.7 -63.0 6.55 -63.0 22.9 -63.0 34.45 -51.45 46.05 -39.85 46.05 -23.45 46.05 -9.8 37.95 0.6 L34.45 4.45 33.75 5.2 33.8 5.15 Q22.4 16.05 6.55 16.05 L3.25 15.95 Q18.1 15.45 28.75 4.8 L32.05 1.15 Q34.15 -1.55 35.7 -4.45 32.85 -10.1 30.95 -15.7 28.4 -23.0 27.45 -30.2 5.75 -18.0 -17.8 -19.1 -14.65 -24.9 -17.95 -26.4 L-32.95 -25.45 M10.3 -7.4 Q10.7 -7.0 10.7 -6.4 10.7 -5.8 10.3 -5.4 9.9 -5.0 9.3 -5.0 8.7 -5.0 8.3 -5.4 7.9 -5.8 7.9 -6.4 7.9 -7.0 8.3 -7.4 8.7 -7.8 9.3 -7.8 9.9 -7.8 10.3 -7.4" fill="#a76d4b" fill-rule="evenodd" stroke="none"/>
    <path d="M3.25 15.95 Q-1.4 15.6 -5.6 14.25 L-8.55 13.2 -4.3 13.4 Q10.5 13.4 20.95 3.15 25.45 -1.25 28.0 -6.45 L28.6 -7.7 Q25.85 -16.45 26.15 -25.0 2.95 -13.55 -23.35 -17.0 -18.35 -20.1 -18.6 -23.0 -25.8 -21.3 -32.95 -21.5 L-32.95 -21.6 -33.0 -23.45 -32.95 -25.35 -32.95 -25.45 -17.95 -26.4 Q-14.65 -24.9 -17.8 -19.1 5.75 -18.0 27.45 -30.2 28.4 -23.0 30.95 -15.7 32.85 -10.1 35.7 -4.45 34.15 -1.55 32.05 1.15 L28.75 4.8 Q18.1 15.45 3.25 15.95" fill="#c18753" fill-rule="evenodd" stroke="none"/>
    <path d="M3.25 15.95 L6.55 16.05 Q22.4 16.05 33.8 5.15 L33.75 5.2 34.45 4.45 37.95 0.6 Q46.05 -9.8 46.05 -23.45 46.05 -39.85 34.45 -51.45 22.9 -63.0 6.55 -63.0 -9.7 -63.0 -21.25 -51.65 L-21.55 -51.3 -21.85 -51.05 -21.8 -51.05 -24.8 -47.6 Q-32.4 -38.05 -32.95 -25.45 L-32.95 -25.35 -33.0 -23.45 -32.95 -21.6 -32.95 -21.5 Q-32.35 -6.4 -21.45 4.45 -16.9 9.0 -11.55 11.8 L-8.55 13.2 -5.6 14.25 Q-1.4 15.6 3.25 15.95 M6.55 -65.0 Q23.7 -65.0 35.85 -52.85 48.05 -40.65 48.05 -23.45 48.05 -9.1 39.5 1.85 L35.85 5.85 35.25 6.5 35.2 6.6 Q23.2 18.05 6.55 18.05 -0.25 18.05 -6.2 16.15 -9.5 15.1 -12.5 13.55 -18.1 10.6 -22.85 5.85 -34.35 -5.55 -34.95 -21.5 L-35.0 -23.45 -34.95 -25.45 Q-34.4 -38.75 -26.35 -48.85 L-26.4 -48.85 -23.25 -52.45 -22.95 -52.7 -22.85 -52.85 Q-10.65 -65.0 6.55 -65.0" fill="#5c4730" fill-rule="evenodd" stroke="none"/>
  </g>
</svg>
