<?xml version="1.0" encoding="UTF-8" standalone="no"?>
<svg xmlns:ffdec="https://www.free-decompiler.com/flash" xmlns:xlink="http://www.w3.org/1999/xlink" ffdec:objectType="shape" height="35.3px" width="54.35px" xmlns="http://www.w3.org/2000/svg">
  <g transform="matrix(1.0, 0.0, 0.0, 1.0, 31.25, 5.45)">
    <path d="M-1.4 -3.25 Q1.4 -4.05 2.9 -4.05 5.45 -4.05 6.5 -1.4 7.05 0.05 7.35 2.6 L7.35 2.8 7.2 4.45 6.7 5.8 Q4.65 6.4 3.7 7.2 L1.6 7.65 Q0.0 8.8 -0.8 10.25 L-1.9 11.9 -1.95 11.95 -2.7 14.05 -3.1 15.55 Q-3.1 18.25 -2.6 19.0 -3.4 19.15 -3.45 19.5 L-3.15 19.85 -2.0 19.8 -2.0 19.9 -3.95 20.1 -2.4 20.15 Q-2.05 20.15 -1.85 22.9 L-1.05 21.45 0.2 22.4 0.45 22.2 1.35 22.45 -0.2 17.95 -0.75 15.1 Q0.15 12.6 1.4 12.6 3.25 12.6 4.75 14.8 6.1 16.8 6.1 18.55 6.1 25.85 0.1 28.3 L0.0 28.35 Q-2.1 27.55 -4.15 25.15 -6.45 22.5 -7.1 19.55 L-7.0 19.35 -7.0 19.3 Q-7.05 17.5 -5.0 15.5 L-4.9 15.1 -4.85 15.0 Q-5.05 14.9 -5.5 15.15 L-8.9 13.9 -9.0 13.9 Q-10.4 13.0 -13.95 12.25 L-18.7 13.25 -23.45 14.45 -25.4 14.65 Q-27.5 14.65 -28.5 13.6 -29.8 12.3 -29.9 8.8 L-29.9 8.7 -28.05 7.0 -26.95 6.2 -25.65 6.35 -21.05 7.05 -18.0 7.45 Q-14.5 7.45 -10.75 5.0 -7.05 2.6 -5.4 -0.8 L-1.4 -3.25 M13.35 4.95 Q19.8 7.05 19.8 11.25 L19.75 12.3 19.55 13.05 Q19.75 10.65 17.35 8.5 15.25 6.65 13.9 6.65 13.2 6.65 12.4 7.0 11.65 7.3 11.5 7.55 11.5 6.45 12.0 5.7 12.5 4.9 13.2 4.9 L13.35 4.95 M5.65 9.45 Q6.4 8.55 7.3 8.55 L9.6 8.95 13.0 9.65 Q15.05 12.15 15.85 15.25 L16.2 18.0 Q16.2 18.85 15.6 19.65 L13.1 22.25 13.0 22.25 Q13.0 16.95 10.85 13.2 8.7 9.45 5.65 9.45" fill="#f1ba87" fill-rule="evenodd" stroke="none"/>
    <path d="M-2.0 19.9 L-2.0 19.8 -1.35 19.6 -2.0 19.9" fill="#83563a" fill-rule="evenodd" stroke="none"/>
    <path d="M7.35 2.6 L7.4 2.75 7.35 2.8 7.35 2.6 M-5.5 15.15 Q-5.05 14.9 -4.85 15.0 L-4.9 15.1 -5.0 15.5 -5.15 15.4 -5.5 15.15 M-7.0 19.35 L-7.1 19.55 -7.15 19.25 -7.0 19.35 M0.0 28.35 L0.1 28.3 0.1 28.35 0.0 28.35 M-1.95 11.95 L-1.9 11.9 -1.95 12.0 -1.95 11.95 M13.2 4.9 L13.4 4.85 13.35 4.95 13.2 4.9" fill="#724931" fill-rule="evenodd" stroke="none"/>
    <path d="M7.4 2.75 L7.85 3.15 8.0 4.05 Q8.0 5.2 7.25 5.95 L6.7 5.8 7.2 4.45 7.35 2.8 7.4 2.75 M-0.8 10.25 Q2.25 8.4 5.3 8.2 7.8 8.0 9.7 6.35 13.05 3.4 14.25 3.35 L14.35 3.35 Q12.45 -0.45 9.95 -1.9 6.65 -3.8 5.4 -5.3 9.65 -4.8 13.7 -0.45 18.75 5.0 20.8 6.05 L20.8 6.0 Q21.85 6.85 22.5 8.45 23.1 9.95 23.1 11.45 22.85 15.35 20.9 16.8 L20.95 16.8 Q19.65 17.9 18.3 21.55 17.35 24.05 14.4 24.05 L12.05 23.65 10.45 23.2 Q9.8 25.85 7.0 27.85 4.15 29.85 0.9 29.85 -4.8 29.85 -7.7 21.8 -9.3 17.35 -9.9 16.25 -11.4 13.75 -13.8 13.75 L-22.8 15.75 -25.9 16.05 Q-28.85 16.05 -30.25 13.55 -31.25 11.85 -31.25 9.65 -31.25 6.85 -30.3 5.0 -29.35 3.15 -27.85 3.15 L-21.55 3.95 Q-14.85 3.95 -9.2 0.1 -2.3 -4.65 0.1 -5.3 L-1.4 -3.25 -5.4 -0.8 Q-16.25 5.45 -20.85 5.45 L-27.6 4.65 Q-30.1 5.55 -29.25 6.1 L-29.9 8.7 -29.9 8.8 Q-29.8 12.3 -28.5 13.6 -27.5 14.65 -25.4 14.65 L-23.45 14.45 -18.7 13.25 -13.95 12.25 Q-10.4 13.0 -9.0 13.9 L-8.9 13.9 -5.5 15.15 -5.15 15.4 -6.0 15.65 -6.85 15.55 -8.05 15.55 -7.15 19.25 -7.1 19.55 Q-6.45 22.5 -4.15 25.15 -2.1 27.55 0.0 28.35 L0.1 28.35 Q4.35 28.65 7.0 25.95 9.55 23.45 9.55 19.55 9.55 17.25 7.15 14.2 4.65 11.05 2.5 11.05 0.7 11.05 -0.05 11.9 -0.95 12.85 -0.75 15.1 L-0.2 17.95 1.35 22.45 0.45 22.2 -0.8 20.05 -1.25 19.55 -1.35 19.6 -2.0 19.8 -3.15 19.85 -3.45 19.5 Q-3.4 19.15 -2.6 19.0 -2.3 18.35 -2.2 17.15 -2.1 15.95 -2.3 15.6 L-2.4 14.6 -1.95 12.0 -1.9 11.9 -0.8 10.25 M11.5 7.55 Q13.15 7.8 15.75 10.35 18.9 13.4 18.6 16.4 19.6 15.8 20.45 14.65 21.6 13.0 21.6 11.2 21.6 8.65 19.85 7.0 17.7 4.95 13.4 4.85 L13.2 4.9 Q12.5 4.9 12.0 5.7 11.5 6.45 11.5 7.55 M13.0 9.65 L9.6 8.95 7.3 8.55 Q6.4 8.55 5.65 9.45 6.25 12.4 8.8 15.15 11.05 17.55 11.05 19.45 L10.85 21.75 13.0 22.25 13.1 22.25 Q15.3 22.0 16.35 20.85 17.2 19.95 17.2 18.8 L16.55 15.2 Q15.4 11.4 13.0 9.65" fill="#6c3d28" fill-rule="evenodd" stroke="none"/>
    <path d="M-7.0 19.3 L-7.0 19.35 -7.15 19.25 -7.0 19.3 M13.4 4.85 L13.35 4.95 13.4 4.85" fill="#e7964e" fill-rule="evenodd" stroke="none"/>
    <path d="M7.35 2.6 Q7.05 0.05 6.5 -1.4 5.45 -4.05 2.9 -4.05 1.4 -4.05 -1.4 -3.25 L0.1 -5.3 Q2.7 -5.6 5.4 -5.3 6.65 -3.8 9.95 -1.9 12.45 -0.45 14.35 3.35 L14.25 3.35 Q13.05 3.4 9.7 6.35 7.8 8.0 5.3 8.2 2.25 8.4 -0.8 10.25 0.0 8.8 1.6 7.65 L3.7 7.2 Q4.65 6.4 6.7 5.8 L7.25 5.95 Q8.0 5.2 8.0 4.05 L7.85 3.15 7.4 2.75 7.35 2.6 M-5.4 -0.8 Q-7.05 2.6 -10.75 5.0 -14.5 7.45 -18.0 7.45 L-21.05 7.05 -25.65 6.35 -26.95 6.2 -28.05 7.0 -29.9 8.7 -29.25 6.1 Q-30.1 5.55 -27.6 4.65 L-20.85 5.45 Q-16.25 5.45 -5.4 -0.8 M-5.0 15.5 Q-7.05 17.5 -7.0 19.3 L-7.15 19.25 -8.05 15.55 -6.85 15.55 -6.0 15.65 -5.15 15.4 -5.0 15.5 M0.1 28.3 Q6.1 25.85 6.1 18.55 6.1 16.8 4.75 14.8 3.25 12.6 1.4 12.6 0.15 12.6 -0.75 15.1 -0.95 12.85 -0.05 11.9 0.7 11.05 2.5 11.05 4.65 11.05 7.15 14.2 9.55 17.25 9.55 19.55 9.55 23.45 7.0 25.95 4.35 28.65 0.1 28.35 L0.1 28.3 M0.45 22.2 L0.2 22.4 -1.05 21.45 -1.85 22.9 Q-2.05 20.15 -2.4 20.15 L-3.95 20.1 -2.0 19.9 -1.35 19.6 -1.25 19.55 -0.8 20.05 0.45 22.2 M-2.6 19.0 Q-3.1 18.25 -3.1 15.55 L-2.7 14.05 -1.95 11.95 -1.95 12.0 -2.4 14.6 -2.3 15.6 Q-2.1 15.95 -2.2 17.15 -2.3 18.35 -2.6 19.0 M13.4 4.85 Q17.7 4.95 19.85 7.0 21.6 8.65 21.6 11.2 21.6 13.0 20.45 14.65 19.6 15.8 18.6 16.4 18.9 13.4 15.75 10.35 13.15 7.8 11.5 7.55 11.65 7.3 12.4 7.0 13.2 6.65 13.9 6.65 15.25 6.65 17.35 8.5 19.75 10.65 19.55 13.05 L19.75 12.3 19.8 11.25 Q19.8 7.05 13.35 4.95 L13.4 4.85 M5.65 9.45 Q8.7 9.45 10.85 13.2 13.0 16.95 13.0 22.25 L10.85 21.75 11.05 19.45 Q11.05 17.55 8.8 15.15 6.25 12.4 5.65 9.45 M13.1 22.25 L15.6 19.65 Q16.2 18.85 16.2 18.0 L15.85 15.25 Q15.05 12.15 13.0 9.65 15.4 11.4 16.55 15.2 L17.2 18.8 Q17.2 19.95 16.35 20.85 15.3 22.0 13.1 22.25" fill="#db9c64" fill-rule="evenodd" stroke="none"/>
  </g>
</svg>
