<?xml version="1.0" encoding="UTF-8" standalone="no"?>
<svg xmlns:ffdec="https://www.free-decompiler.com/flash" xmlns:xlink="http://www.w3.org/1999/xlink" ffdec:objectType="shape" height="74.9px" width="80.65px" xmlns="http://www.w3.org/2000/svg">
  <g transform="matrix(1.0, 0.0, 0.0, 1.0, 16.65, 23.25)">
    <path d="M53.75 51.65 Q57.9 48.65 60.0 41.8 61.75 35.95 61.75 28.35 61.75 19.95 57.45 11.35 53.0 2.4 44.95 -4.75 26.05 -21.45 -2.9 -21.45 -9.9 -21.45 -13.0 -16.55 -14.95 -13.45 -14.95 -9.6 -14.95 -6.9 -13.9 -2.8 L-12.3 2.9 Q-14.6 -0.35 -15.6 -3.0 -16.65 -5.75 -16.65 -8.85 -16.65 -15.05 -12.45 -19.05 -8.1 -23.25 -0.85 -23.25 26.5 -23.25 45.2 -8.9 64.0 5.55 64.0 26.95 64.0 35.2 61.25 41.95 58.45 48.9 53.75 51.65" fill="#000000" fill-rule="evenodd" stroke="none"/>
    <path d="M0.55 -6.05 Q-1.0 -6.55 -3.05 -9.15 -5.85 -12.7 -6.0 -17.25 -7.2 -15.8 -8.65 -13.0 -10.5 -9.35 -10.5 -7.15 -8.9 -0.8 -7.75 1.25 -5.25 -1.0 -4.25 -1.0 L-1.2 0.3 3.95 0.55 8.95 0.8 Q12.45 0.8 14.0 -2.0 L15.05 -0.35 Q15.95 0.55 18.1 0.55 L19.9 -0.55 Q21.2 -1.65 21.7 -1.65 22.6 -1.65 23.4 -0.7 L24.8 1.25 Q26.85 3.65 31.0 2.0 30.25 2.75 30.25 3.75 30.25 5.85 35.75 7.55 41.25 9.3 41.25 12.7 41.25 14.25 40.75 15.2 40.15 16.3 38.6 17.05 44.8 17.95 47.7 22.4 49.2 24.65 53.5 36.25 52.95 33.5 52.95 31.65 L53.4 28.9 Q54.0 26.05 54.8 24.2 52.95 23.15 51.15 21.55 48.85 19.45 47.8 17.4 L54.0 14.75 Q50.1 15.8 46.2 13.05 42.95 10.8 42.95 9.65 42.95 8.7 43.85 7.85 44.6 7.15 46.25 6.25 L47.4 5.75 44.85 6.0 Q40.9 6.0 38.4 4.05 36.35 2.45 36.35 0.6 36.35 -0.85 37.25 -2.75 L34.6 -3.1 Q30.25 -3.1 27.8 -0.25 26.9 -3.45 26.9 -4.25 26.9 -4.9 28.1 -6.35 29.35 -7.85 31.0 -9.0 L28.8 -9.1 Q26.55 -9.1 23.2 -7.75 19.15 -6.15 17.1 -3.75 16.0 -4.1 15.15 -6.15 14.4 -7.9 14.4 -9.2 L14.75 -10.0 12.05 -7.7 9.75 -5.05 Q9.25 -5.7 7.8 -8.9 6.3 -12.35 6.25 -13.25 4.7 -12.75 2.9 -10.7 0.75 -8.35 0.55 -6.05 M-12.3 2.9 L-13.9 -2.8 Q-14.95 -6.9 -14.95 -9.6 -14.95 -13.45 -13.0 -16.55 -9.9 -21.45 -2.9 -21.45 26.05 -21.45 44.95 -4.75 53.0 2.4 57.45 11.35 61.75 19.95 61.75 28.35 61.75 35.95 60.0 41.8 57.9 48.65 53.75 51.65 L52.85 44.55 51.75 37.15 Q51.55 32.45 45.1 25.65 38.7 18.9 34.25 18.6 L38.5 11.55 Q34.3 4.75 12.4 3.45 1.3 2.8 -10.15 3.4 L-12.3 2.9" fill="#3a281b" fill-rule="evenodd" stroke="none"/>
    <path d="M0.55 -6.05 Q0.75 -8.35 2.9 -10.7 4.7 -12.75 6.25 -13.25 6.3 -12.35 7.8 -8.9 9.25 -5.7 9.75 -5.05 L12.05 -7.7 14.75 -10.0 14.4 -9.2 Q14.4 -7.9 15.15 -6.15 16.0 -4.1 17.1 -3.75 19.15 -6.15 23.2 -7.75 26.55 -9.1 28.8 -9.1 L31.0 -9.0 Q29.35 -7.85 28.1 -6.35 26.9 -4.9 26.9 -4.25 26.9 -3.45 27.8 -0.25 30.25 -3.1 34.6 -3.1 L37.25 -2.75 Q36.35 -0.85 36.35 0.6 36.35 2.45 38.4 4.05 40.9 6.0 44.85 6.0 L47.4 5.75 46.25 6.25 Q44.6 7.15 43.85 7.85 42.95 8.7 42.95 9.65 42.95 10.8 46.2 13.05 50.1 15.8 54.0 14.75 L47.8 17.4 Q48.85 19.45 51.15 21.55 52.95 23.15 54.8 24.2 54.0 26.05 53.4 28.9 L52.95 31.65 Q52.95 33.5 53.5 36.25 49.2 24.65 47.7 22.4 44.8 17.95 38.6 17.05 40.15 16.3 40.75 15.2 41.25 14.25 41.25 12.7 41.25 9.3 35.75 7.55 30.25 5.85 30.25 3.75 30.25 2.75 31.0 2.0 26.85 3.65 24.8 1.25 L23.4 -0.7 Q22.6 -1.65 21.7 -1.65 21.2 -1.65 19.9 -0.55 L18.1 0.55 Q15.95 0.55 15.05 -0.35 L14.0 -2.0 Q12.45 0.8 8.95 0.8 L3.95 0.55 -1.2 0.3 -4.25 -1.0 Q-5.25 -1.0 -7.75 1.25 -8.9 -0.8 -10.5 -7.15 -10.5 -9.35 -8.65 -13.0 -7.2 -15.8 -6.0 -17.25 -5.85 -12.7 -3.05 -9.15 -1.0 -6.55 0.55 -6.05" fill="#442f20" fill-rule="evenodd" stroke="none"/>
    <path d="M-10.15 3.4 Q1.3 2.8 12.4 3.45 34.3 4.75 38.5 11.55 L34.25 18.6 Q38.7 18.9 45.1 25.65 51.55 32.45 51.75 37.15 46.55 30.3 38.85 25.65 32.35 21.65 29.45 21.9 L33.7 12.4 Q30.7 10.4 24.6 8.95 19.45 7.7 16.55 7.7 L9.4 8.6 Q3.6 8.6 -0.75 7.55 -5.85 6.3 -10.15 3.4" fill="#c18753" fill-rule="evenodd" stroke="none"/>
  </g>
</svg>
