<?xml version="1.0" encoding="UTF-8" standalone="no"?>
<svg xmlns:ffdec="https://www.free-decompiler.com/flash" xmlns:xlink="http://www.w3.org/1999/xlink" ffdec:objectType="shape" height="97.4px" width="86.7px" xmlns="http://www.w3.org/2000/svg">
  <g transform="matrix(1.0, 0.0, 0.0, 1.0, 56.05, 76.65)">
    <path d="M13.1 -67.4 Q14.7 -65.65 14.7 -63.65 14.7 -61.65 10.5 -54.7 L3.8 -43.9 4.65 -43.55 Q6.4 -44.35 12.25 -52.9 L17.85 -60.9 Q18.05 -61.0 18.25 -61.25 L18.65 -62.0 19.25 -62.8 Q21.55 -61.4 26.5 -52.65 23.35 -43.55 19.4 -38.15 18.45 -36.85 15.1 -34.25 L1.75 -23.5 Q-3.35 -19.25 -11.4 -15.05 -20.5 -10.3 -25.2 -10.3 -26.6 -10.3 -28.85 -11.35 L-31.45 -12.85 -28.2 -16.1 Q-25.5 -18.5 -24.6 -18.95 L-24.85 -19.3 -25.55 -19.55 Q-28.8 -18.3 -30.55 -17.85 L-33.55 -17.45 -35.75 -17.5 -32.9 -27.8 -33.05 -27.85 -36.7 -24.5 Q-39.85 -21.35 -40.35 -19.75 -42.95 -26.7 -43.4 -28.7 -43.8 -30.25 -43.8 -33.15 -43.8 -40.85 -38.2 -50.4 -32.95 -59.4 -28.4 -61.25 L-31.65 -55.45 Q-34.05 -49.6 -34.05 -48.6 L-33.9 -47.6 -33.8 -47.35 Q-31.05 -49.75 -22.9 -61.25 -14.35 -71.55 -6.2 -71.3 L-1.15 -66.5 Q-0.6 -61.85 -6.2 -54.8 -12.65 -47.65 -14.1 -45.35 -8.75 -49.6 -3.85 -56.2 1.35 -63.25 3.1 -69.2 L8.5 -69.4 Q11.3 -69.4 13.1 -67.4 M-6.15 -64.3 Q-6.15 -65.15 -8.45 -66.4 -11.0 -67.8 -13.4 -67.8 -17.6 -67.8 -26.95 -53.1 L-34.05 -41.7 Q-37.8 -35.65 -39.6 -33.75 L-39.7 -35.0 Q-38.95 -40.65 -37.45 -41.8 -36.3 -42.75 -36.3 -47.3 L-36.4 -48.15 -36.8 -48.75 Q-41.5 -38.2 -41.5 -32.7 -41.5 -29.7 -40.85 -28.5 L-40.2 -27.1 -29.0 -37.75 -11.8 -54.15 Q-9.45 -56.4 -7.6 -60.5 -6.15 -63.65 -6.15 -64.3 M17.55 -58.3 L15.5 -52.75 Q14.9 -51.35 10.1 -46.5 L4.4 -40.8 Q-1.6 -34.2 -13.15 -24.5 -19.05 -19.5 -25.7 -14.1 L-25.2 -13.4 Q1.1 -27.05 13.45 -38.75 22.15 -47.0 22.15 -52.0 22.15 -56.35 21.4 -57.8 20.65 -59.2 18.5 -59.2 17.8 -59.2 17.55 -58.3 M9.95 -66.3 Q9.05 -66.95 6.4 -66.95 5.25 -66.95 4.4 -65.1 2.3 -60.2 1.05 -57.95 L-5.25 -50.8 Q-10.9 -44.6 -12.1 -43.45 L-23.85 -34.25 Q-31.2 -28.0 -32.9 -20.4 -22.7 -21.95 -5.8 -39.35 1.35 -46.75 5.9 -53.45 10.75 -60.6 10.75 -64.25 10.75 -65.75 9.95 -66.3 M-46.3 -4.25 L-46.55 -6.65 -46.15 -8.85 Q-44.85 -10.15 -42.2 -11.05 L-39.15 -11.8 Q-38.05 -10.4 -38.05 -9.3 -38.05 -4.5 -38.25 -3.4 -38.6 -1.5 -40.15 -1.5 -43.15 -1.5 -44.95 -2.2 L-46.3 -4.25 M-45.35 -6.1 Q-45.35 -3.85 -43.7 -3.85 -42.55 -3.9 -41.5 -4.6 -39.4 -6.05 -39.55 -9.25 -41.5 -10.9 -43.5 -9.4 -45.35 -8.05 -45.35 -6.1 M-32.0 17.5 Q-35.75 14.3 -37.95 9.6 L-40.65 3.25 -38.1 3.2 Q-35.6 3.45 -34.85 3.9 L-32.7 5.65 -32.0 17.5 M-38.1 3.2 L-37.85 8.75 Q-37.0 11.95 -33.1 15.1 L-32.8 14.75 -32.75 14.05 Q-34.7 9.85 -35.35 7.5 -36.05 4.95 -38.1 3.2 M-43.65 2.2 L-43.3 3.35 Q-44.15 7.0 -46.75 9.65 -48.8 11.7 -50.65 12.15 -52.0 12.25 -52.0 11.25 L-49.4 9.2 Q-46.6 6.95 -45.7 5.8 L-45.0 4.0 Q-44.4 2.5 -43.65 2.2" fill="#415481" fill-rule="evenodd" stroke="none"/>
    <path d="M9.95 -66.3 Q10.75 -65.75 10.75 -64.25 10.75 -60.6 5.9 -53.45 1.35 -46.75 -5.8 -39.35 -22.7 -21.95 -32.9 -20.4 -31.2 -28.0 -23.85 -34.25 L-12.1 -43.45 Q-10.9 -44.6 -5.25 -50.8 L1.05 -57.95 Q2.3 -60.2 4.4 -65.1 5.25 -66.95 6.4 -66.95 9.05 -66.95 9.95 -66.3 M17.55 -58.3 Q17.8 -59.2 18.5 -59.2 20.65 -59.2 21.4 -57.8 22.15 -56.35 22.15 -52.0 22.15 -47.0 13.45 -38.75 1.1 -27.05 -25.2 -13.4 L-25.7 -14.1 Q-19.05 -19.5 -13.15 -24.5 -1.6 -34.2 4.4 -40.8 L10.1 -46.5 Q14.9 -51.35 15.5 -52.75 L17.55 -58.3 M-6.15 -64.3 Q-6.15 -63.65 -7.6 -60.5 -9.45 -56.4 -11.8 -54.15 L-29.0 -37.75 -40.2 -27.1 -40.85 -28.5 Q-41.5 -29.7 -41.5 -32.7 -41.5 -38.2 -36.8 -48.75 L-36.4 -48.15 -36.3 -47.3 Q-36.3 -42.75 -37.45 -41.8 -38.95 -40.65 -39.7 -35.0 L-39.6 -33.75 Q-37.8 -35.65 -34.05 -41.7 L-26.95 -53.1 Q-17.6 -67.8 -13.4 -67.8 -11.0 -67.8 -8.45 -66.4 -6.15 -65.15 -6.15 -64.3 M-45.35 -6.1 Q-45.35 -8.05 -43.5 -9.4 -41.5 -10.9 -39.55 -9.25 -39.4 -6.05 -41.5 -4.6 -42.55 -3.9 -43.7 -3.85 -45.35 -3.85 -45.35 -6.1 M-38.1 3.2 Q-36.05 4.95 -35.35 7.5 -34.7 9.85 -32.75 14.05 L-32.8 14.75 -33.1 15.1 Q-37.0 11.95 -37.85 8.75 L-38.1 3.2" fill="#546ca7" fill-rule="evenodd" stroke="none"/>
    <path d="M13.05 -71.65 Q16.5 -68.05 16.65 -66.7 16.8 -65.35 13.85 -57.85 18.05 -64.65 19.55 -66.05 L22.95 -66.05 23.75 -64.85 27.0 -58.75 29.25 -53.85 Q29.25 -49.85 25.8 -43.85 L21.15 -36.75 Q19.55 -34.3 13.35 -27.05 L6.75 -19.4 Q2.95 -14.55 -8.1 -9.8 -17.0 -5.9 -24.3 -4.4 L-21.8 -7.1 Q-23.8 -7.4 -26.7 -6.3 L-29.35 -5.15 -34.7 -5.85 -33.15 -14.55 -33.6 -14.7 -35.3 -13.8 Q-36.7 -13.05 -36.9 -13.05 L-38.75 -13.45 Q-38.5 -13.45 -38.4 -15.85 L-38.4 -18.6 -39.25 -18.1 Q-40.6 -16.85 -42.2 -14.5 -43.0 -13.4 -44.35 -13.4 -45.65 -13.4 -47.1 -20.15 -48.5 -26.55 -48.5 -30.95 -48.5 -34.25 -47.15 -39.55 -45.85 -44.85 -37.55 -56.1 -29.25 -67.35 -15.75 -73.0 L-17.8 -72.05 -15.95 -71.95 -14.7 -71.85 -14.05 -71.95 -6.4 -75.15 -0.85 -72.75 Q2.35 -71.45 3.2 -71.45 L13.05 -71.65 M13.1 -67.4 Q11.3 -69.4 8.5 -69.4 L3.1 -69.2 Q1.35 -63.25 -3.85 -56.2 -8.75 -49.6 -14.1 -45.35 -12.65 -47.65 -6.2 -54.8 -0.6 -61.85 -1.15 -66.5 L-6.2 -71.3 Q-14.35 -71.55 -22.9 -61.25 -31.05 -49.75 -33.8 -47.35 L-33.9 -47.6 -34.05 -48.6 Q-34.05 -49.6 -31.65 -55.45 L-28.4 -61.25 Q-32.95 -59.4 -38.2 -50.4 -43.8 -40.85 -43.8 -33.15 -43.8 -30.25 -43.4 -28.7 -42.95 -26.7 -40.35 -19.75 -39.85 -21.35 -36.7 -24.5 L-33.05 -27.85 -32.9 -27.8 -35.75 -17.5 -33.55 -17.45 -30.55 -17.85 Q-28.8 -18.3 -25.55 -19.55 L-24.85 -19.3 -24.6 -18.95 Q-25.5 -18.5 -28.2 -16.1 L-31.45 -12.85 -28.85 -11.35 Q-26.6 -10.3 -25.2 -10.3 -20.5 -10.3 -11.4 -15.05 -3.35 -19.25 1.75 -23.5 L15.1 -34.25 Q18.45 -36.85 19.4 -38.15 23.35 -43.55 26.5 -52.65 21.55 -61.4 19.25 -62.8 L18.65 -62.0 18.25 -61.25 Q18.05 -61.0 17.85 -60.9 L12.25 -52.9 Q6.4 -44.35 4.65 -43.55 L3.8 -43.9 10.5 -54.7 Q14.7 -61.65 14.7 -63.65 14.7 -65.65 13.1 -67.4 M-46.3 -4.25 L-46.7 -4.95 -47.3 -4.35 -46.7 -1.65 Q-49.65 -1.8 -50.1 -3.25 -50.45 -4.2 -50.35 -7.55 L-49.55 -7.45 -49.15 -7.55 -49.85 -8.65 -50.0 -9.45 Q-50.0 -10.35 -49.15 -11.15 -47.9 -12.35 -45.5 -11.9 L-45.45 -11.45 -46.55 -9.6 Q-46.55 -8.95 -46.35 -8.85 L-46.2 -8.85 -46.15 -8.85 -46.55 -6.65 -46.3 -4.25 M-39.15 -11.8 L-37.55 -11.95 Q-36.5 -8.75 -36.5 -7.0 L-36.9 -0.5 -42.8 -0.5 -44.95 -2.2 Q-43.15 -1.5 -40.15 -1.5 -38.6 -1.5 -38.25 -3.4 -38.05 -4.5 -38.05 -9.3 -38.05 -10.4 -39.15 -11.8 M-40.65 3.25 L-41.25 0.8 Q-38.55 0.7 -36.9 -0.05 L-36.15 -0.35 Q-35.05 0.6 -33.55 1.2 -32.5 1.65 -32.2 2.45 -31.6 3.9 -30.75 18.35 L-32.0 17.5 -32.7 5.65 -34.85 3.9 Q-35.6 3.45 -38.1 3.2 L-40.65 3.25 M-43.65 2.2 Q-44.4 2.5 -45.0 4.0 L-45.7 5.8 Q-46.6 6.95 -49.4 9.2 L-52.0 11.25 Q-52.0 12.25 -50.65 12.15 -48.8 11.7 -46.75 9.65 -44.15 7.0 -43.3 3.35 L-43.65 2.2 M-45.3 2.75 L-44.55 0.7 -42.65 1.05 Q-42.3 4.7 -42.75 7.6 -43.65 13.3 -47.5 13.3 -51.3 13.3 -53.8 12.15 -51.2 8.95 -49.35 5.15 -47.85 1.85 -47.65 0.05 L-46.25 0.4 Q-46.55 0.35 -46.85 2.3 L-47.2 4.9 -46.25 4.95 -45.3 2.75" fill="#27334e" fill-rule="evenodd" stroke="none"/>
    <path d="M13.05 -71.65 L3.2 -71.45 Q2.35 -71.45 -0.85 -72.75 L-6.4 -75.15 -14.05 -71.95 -14.7 -71.85 -15.95 -71.95 -17.8 -72.05 -15.75 -73.0 Q-29.25 -67.35 -37.55 -56.1 -45.85 -44.85 -47.15 -39.55 -48.5 -34.25 -48.5 -30.95 -48.5 -26.55 -47.1 -20.15 -45.65 -13.4 -44.35 -13.4 -43.0 -13.4 -42.2 -14.5 -40.6 -16.85 -39.25 -18.1 L-38.4 -18.6 -38.4 -15.85 Q-38.5 -13.45 -38.75 -13.45 L-36.9 -13.05 Q-36.7 -13.05 -35.3 -13.8 L-33.6 -14.7 -33.15 -14.55 -34.7 -5.85 -29.35 -5.15 -26.7 -6.3 Q-23.8 -7.4 -21.8 -7.1 L-24.3 -4.4 Q-17.0 -5.9 -8.1 -9.8 2.95 -14.55 6.75 -19.4 L13.35 -27.05 Q19.55 -34.3 21.15 -36.75 L25.8 -43.85 Q29.25 -49.85 29.25 -53.85 L27.0 -58.75 23.75 -64.85 22.95 -66.05 19.55 -66.05 Q18.05 -64.65 13.85 -57.85 16.8 -65.35 16.65 -66.7 16.5 -68.05 13.05 -71.65 M14.2 -72.15 Q15.7 -70.55 18.7 -68.05 L23.1 -67.75 24.0 -66.05 30.65 -55.1 Q24.4 -30.65 4.55 -14.6 -13.3 -0.25 -30.45 -0.55 L-29.55 20.5 -29.75 20.75 Q-33.2 19.2 -38.4 11.55 -41.4 13.55 -42.9 14.05 L-48.0 14.55 -51.4 13.85 -56.05 12.55 Q-53.65 10.5 -52.3 8.7 -49.85 5.55 -48.45 -0.25 -51.55 -0.55 -51.55 -5.35 -51.55 -7.75 -50.1 -12.4 -50.1 -17.8 -50.95 -20.4 -51.8 -23.05 -51.8 -26.0 -51.8 -39.05 -43.9 -51.35 -34.55 -65.8 -16.8 -74.2 L-14.7 -73.3 -5.75 -76.65 1.5 -72.5 11.65 -73.0 Q13.35 -72.95 14.2 -72.15 M-46.15 -8.85 L-46.2 -8.85 -46.35 -8.85 Q-46.55 -8.95 -46.55 -9.6 L-45.45 -11.45 -45.5 -11.9 Q-47.9 -12.35 -49.15 -11.15 -50.0 -10.35 -50.0 -9.45 L-49.85 -8.65 -49.15 -7.55 -49.55 -7.45 -50.35 -7.55 Q-50.45 -4.2 -50.1 -3.25 -49.65 -1.8 -46.7 -1.65 L-47.3 -4.35 -46.7 -4.95 -46.3 -4.25 -44.95 -2.2 -42.8 -0.5 -36.9 -0.5 -36.5 -7.0 Q-36.5 -8.75 -37.55 -11.95 L-39.15 -11.8 -42.2 -11.05 Q-44.85 -10.15 -46.15 -8.85 M-32.0 17.5 L-30.75 18.35 Q-31.6 3.9 -32.2 2.45 -32.5 1.65 -33.55 1.2 -35.05 0.6 -36.15 -0.35 L-36.9 -0.05 Q-38.55 0.7 -41.25 0.8 L-40.65 3.25 -37.95 9.6 Q-35.75 14.3 -32.0 17.5 M-45.3 2.75 L-46.25 4.95 -47.2 4.9 -46.85 2.3 Q-46.55 0.35 -46.25 0.4 L-47.65 0.05 Q-47.85 1.85 -49.35 5.15 -51.2 8.95 -53.8 12.15 -51.3 13.3 -47.5 13.3 -43.65 13.3 -42.75 7.6 -42.3 4.7 -42.65 1.05 L-44.55 0.7 -45.3 2.75" fill="#121723" fill-rule="evenodd" stroke="none"/>
  </g>
</svg>
