<?xml version="1.0" encoding="UTF-8" standalone="no"?>
<svg xmlns:ffdec="https://www.free-decompiler.com/flash" xmlns:xlink="http://www.w3.org/1999/xlink" ffdec:objectType="shape" height="19.5px" width="14.85px" xmlns="http://www.w3.org/2000/svg">
  <g transform="matrix(1.0, 0.0, 0.0, 1.0, -2.75, 10.25)">
    <path d="M6.25 -8.8 L6.15 -8.75 Q7.95 -10.25 10.15 -10.25 13.45 -10.35 15.65 -7.05 17.6 -4.4 17.6 -0.5 17.6 3.4 15.65 6.1 13.45 9.35 10.15 9.25 7.0 9.35 4.65 6.1 2.75 3.35 2.75 -0.5 2.75 -2.55 3.35 -4.35 L3.3 -4.3 Q3.75 -5.8 4.65 -7.05 L4.75 -7.1 Q5.35 -8.1 6.25 -8.8" fill="#7c5136" fill-rule="evenodd" stroke="none"/>
    <path d="M5.75 -7.5 L5.7 -7.45 Q7.25 -8.8 9.15 -8.8 12.0 -8.9 13.9 -5.95 15.6 -3.55 15.6 -0.05 15.6 3.45 13.9 5.9 12.0 8.8 9.15 8.7 6.4 8.8 4.4 5.9 2.75 3.4 2.75 -0.05 2.75 -1.9 3.25 -3.5 L3.2 -3.45 Q3.6 -4.8 4.4 -5.95 L4.45 -6.0 5.75 -7.5 M7.35 -4.05 L7.3 -3.95 Q6.8 -3.35 6.6 -2.55 L6.6 -2.5 Q6.25 -1.4 6.25 -0.05 6.25 2.3 7.3 3.95 8.1 5.1 9.15 5.2 10.2 5.1 11.0 3.95 12.1 2.25 12.1 -0.05 12.1 -2.35 11.0 -4.0 10.2 -5.2 9.15 -5.3 8.55 -5.3 8.0 -4.8 L7.95 -4.8 7.35 -4.05" fill="#20150f" fill-rule="evenodd" stroke="none"/>
    <path d="M7.35 -4.05 L7.95 -4.8 8.0 -4.8 Q8.55 -5.3 9.15 -5.3 10.2 -5.2 11.0 -4.0 12.1 -2.35 12.1 -0.05 12.1 2.25 11.0 3.95 10.2 5.1 9.15 5.2 8.1 5.1 7.3 3.95 6.25 2.3 6.25 -0.05 6.25 -1.4 6.6 -2.5 L6.6 -2.55 Q6.8 -3.35 7.3 -3.95 L7.35 -4.05" fill="#a86d4a" fill-rule="evenodd" stroke="none"/>
  </g>
</svg>
