<?xml version="1.0" encoding="UTF-8" standalone="no"?>
<svg xmlns:ffdec="https://www.free-decompiler.com/flash" xmlns:xlink="http://www.w3.org/1999/xlink" ffdec:objectType="shape" height="134.7px" width="80.1px" xmlns="http://www.w3.org/2000/svg">
  <g transform="matrix(1.0, 0.0, 0.0, 1.0, 36.45, 135.85)">
    <path d="M-4.7 -106.75 L-4.2 -108.15 Q-1.05 -117.15 1.45 -122.15 L3.15 -125.35 4.9 -123.65 3.4 -120.7 2.9 -119.5 0.2 -112.75 -1.3 -108.7 -2.05 -106.75 -2.3 -106.2 -3.0 -104.8 -5.4 -100.25 -5.15 -103.1 -4.7 -106.75 M5.65 -122.7 L5.95 -122.25 Q8.95 -117.95 8.95 -112.95 8.95 -112.45 8.5 -112.6 8.0 -112.75 8.0 -112.25 8.0 -110.85 9.0 -108.35 L9.9 -108.65 Q10.35 -106.6 6.5 -103.25 3.3 -100.55 0.1 -99.05 L0.5 -98.75 Q1.7 -97.9 5.25 -97.05 9.15 -96.15 10.4 -96.4 L2.35 -89.85 Q-0.35 -87.5 -1.45 -85.7 L-1.4 -85.45 -0.75 -85.35 Q3.25 -85.35 9.5 -91.05 L8.15 -88.4 6.75 -85.65 7.15 -84.25 7.35 -83.95 8.25 -83.7 Q10.05 -83.7 11.3 -84.65 L13.4 -86.6 13.75 -84.0 13.4 -83.95 Q13.25 -83.85 13.25 -83.25 L13.45 -80.65 Q13.75 -79.6 14.95 -79.2 L15.05 -79.4 Q15.35 -77.4 15.1 -76.55 L14.5 -76.5 14.45 -75.2 9.6 -69.55 7.35 -66.7 Q7.75 -65.85 9.15 -65.8 L15.95 -65.7 Q15.95 -65.1 16.2 -64.65 16.4 -64.2 16.75 -64.2 17.1 -64.2 17.35 -64.65 L17.55 -65.7 Q19.3 -63.45 20.8 -58.0 22.75 -50.95 22.75 -42.9 22.75 -41.15 19.9 -39.35 15.55 -36.55 14.5 -35.5 15.2 -35.1 17.7 -34.45 L20.6 -33.8 21.35 -33.65 Q26.0 -32.1 26.0 -24.0 26.0 -21.45 25.35 -18.45 24.7 -15.5 23.95 -14.6 L22.6 -14.85 22.55 -13.95 20.55 -13.65 Q19.3 -13.65 18.15 -14.15 15.55 -15.35 12.15 -16.45 L9.4 -11.4 4.2 -10.85 4.5 -10.75 Q4.5 -10.55 4.1 -10.45 2.7 -10.6 1.45 -11.35 -0.8 -12.75 -4.1 -17.35 -5.65 -14.1 -7.6 -12.9 -8.95 -12.05 -10.85 -12.05 -13.85 -12.05 -14.65 -13.2 -15.25 -14.0 -15.25 -16.8 -15.25 -22.35 -12.45 -24.55 -10.25 -26.3 -4.5 -26.75 -7.3 -24.25 -9.4 -21.35 -12.0 -17.85 -12.0 -15.75 L-11.95 -15.05 -11.85 -14.9 Q-0.95 -22.6 2.3 -25.85 L0.65 -17.05 Q0.7 -15.75 3.3 -15.75 6.6 -15.75 8.95 -20.75 11.3 -25.7 11.3 -32.4 L11.1 -34.3 9.95 -34.5 Q8.45 -34.45 5.75 -33.35 1.85 -31.8 -1.7 -28.9 -1.05 -30.1 -1.05 -32.7 -0.45 -32.95 -1.45 -32.95 L-10.2 -31.6 Q-13.0 -31.6 -13.0 -33.7 -13.0 -40.6 -9.75 -51.1 -6.8 -60.6 -4.75 -62.95 L-9.75 -62.45 Q-8.3 -69.85 -7.05 -82.5 L-5.6 -98.25 -3.0 -103.25 -3.05 -103.15 -2.6 -103.05 -1.45 -102.95 -1.0 -102.95 Q1.0 -103.05 3.35 -104.1 6.15 -105.35 6.15 -106.75 6.15 -114.15 3.05 -116.15 2.5 -115.6 1.3 -113.25 3.0 -117.9 5.65 -122.7 M2.9 -93.4 Q2.9 -94.8 1.9 -95.8 0.9 -96.8 -0.55 -96.8 -2.0 -96.8 -3.0 -95.8 -4.0 -94.8 -4.0 -93.4 -4.0 -92.0 -3.0 -91.0 -2.0 -90.0 -0.55 -90.0 0.9 -90.0 1.9 -91.0 2.9 -92.0 2.9 -93.4 M3.75 -82.25 L4.5 -85.55 Q0.05 -83.05 -3.05 -78.35 -6.45 -73.2 -5.5 -69.1 -5.25 -68.7 -5.5 -68.3 L-3.5 -68.1 Q-1.8 -68.1 3.55 -71.05 10.3 -74.75 11.6 -78.95 L2.65 -78.7 3.75 -82.25 M16.95 -61.35 L16.95 -56.85 18.5 -56.85 18.5 -61.35 16.95 -61.35 M12.85 -61.85 Q11.8 -62.55 7.8 -62.55 5.05 -62.55 -1.1 -58.25 -7.5 -53.75 -7.5 -51.05 L-7.3 -48.4 -7.15 -44.3 -7.25 -44.25 -6.65 -44.25 Q-2.7 -44.25 14.4 -56.8 14.4 -60.8 12.85 -61.85 M19.85 -51.45 L19.55 -53.15 Q19.25 -53.9 18.8 -53.9 18.35 -53.9 18.05 -53.15 17.75 -52.45 17.75 -51.45 17.75 -50.45 18.05 -49.7 18.35 -49.0 18.8 -49.0 19.25 -49.0 19.55 -49.7 L19.85 -51.45 M15.45 -51.2 Q14.85 -51.2 11.4 -49.75 L3.6 -46.5 -2.35 -43.5 Q-8.1 -40.25 -8.1 -38.45 -8.1 -36.0 -5.65 -35.45 1.95 -35.45 9.85 -40.45 16.9 -44.85 16.9 -47.4 16.9 -49.55 16.25 -50.55 L15.45 -51.2 M20.65 -41.55 L20.65 -46.2 19.1 -46.2 19.1 -41.55 20.65 -41.55 M21.65 -30.7 L20.85 -30.45 Q21.35 -26.85 21.85 -25.45 L22.65 -25.55 Q22.95 -25.75 22.95 -26.45 22.95 -27.65 21.65 -30.7 M14.05 -30.35 Q13.3 -28.7 13.3 -27.6 13.3 -21.1 15.05 -18.4 16.15 -16.65 17.8 -16.65 L18.4 -16.7 18.35 -16.8 Q17.75 -21.05 16.15 -25.6 L14.1 -30.2 14.05 -30.35 M23.7 -22.75 L21.95 -22.75 21.95 -17.8 23.7 -17.8 23.7 -22.75 M-19.75 -30.95 L-19.75 -30.3 Q-20.55 -22.55 -21.65 -14.0 -21.5 -13.95 -21.75 -13.85 L-22.75 -13.7 Q-25.6 -13.7 -27.0 -15.8 -28.35 -17.75 -27.95 -20.7 -27.0 -27.8 -19.75 -30.95 M-19.85 -51.1 Q-17.4 -54.65 -16.55 -56.4 L-17.3 -48.9 Q-18.05 -41.85 -18.55 -40.15 -20.55 -41.1 -21.3 -42.6 -21.85 -43.7 -21.85 -45.7 -21.85 -47.9 -19.85 -51.1 M-17.6 -63.8 L-18.2 -64.95 -18.4 -66.05 Q-18.65 -67.35 -16.3 -70.3 L-13.5 -74.0 -13.45 -73.9 Q-14.25 -71.0 -15.7 -67.55 -17.1 -64.15 -17.6 -63.8 M-10.4 -94.6 Q-10.45 -93.8 -11.75 -90.1 -13.1 -86.3 -14.05 -84.45 L-14.45 -85.75 -14.75 -87.35 Q-14.75 -90.05 -13.7 -92.3 -12.6 -94.55 -10.9 -95.45 -10.5 -95.35 -10.4 -94.6" fill="#ee5b00" fill-rule="evenodd" stroke="none"/>
    <path d="M25.45 -9.1 Q24.95 -9.35 24.4 -9.65 L22.45 -7.05 20.05 -6.6 Q19.4 -6.6 17.7 -7.65 15.9 -8.75 14.05 -10.35 11.05 -8.5 8.9 -6.7 7.6 -5.8 4.95 -5.8 -1.15 -5.8 -2.85 -7.35 L-3.75 -8.45 Q-4.25 -8.95 -5.2 -8.95 -5.95 -8.95 -7.5 -7.8 L-9.2 -6.55 -13.45 -8.25 -17.05 -7.4 -18.35 -11.5 -18.55 -12.05 -18.15 -14.9 -18.15 -14.95 -7.15 -96.0 -6.8 -96.05 -5.6 -98.25 -7.05 -82.5 Q-8.3 -69.85 -9.75 -62.45 L-4.75 -62.95 Q-6.8 -60.6 -9.75 -51.1 -13.0 -40.6 -13.0 -33.7 -13.0 -31.6 -10.2 -31.6 L-1.45 -32.95 Q-0.45 -32.95 -1.05 -32.7 -1.05 -30.1 -1.7 -28.9 L-3.1 -27.7 -4.5 -26.75 Q-10.25 -26.3 -12.45 -24.55 -15.25 -22.35 -15.25 -16.8 -15.25 -14.0 -14.65 -13.2 -13.85 -12.05 -10.85 -12.05 -8.95 -12.05 -7.6 -12.9 -5.65 -14.1 -4.1 -17.35 -0.8 -12.75 1.45 -11.35 2.7 -10.6 4.1 -10.45 4.5 -10.55 4.5 -10.75 L4.2 -10.85 9.4 -11.4 12.15 -16.45 Q15.55 -15.35 18.15 -14.15 19.3 -13.65 20.55 -13.65 L22.55 -13.95 22.65 -10.85 Q22.7 -10.35 23.85 -9.8 L24.5 -10.8 24.8 -12.0 24.5 -13.35 23.95 -14.6 Q24.7 -15.5 25.35 -18.45 26.0 -21.45 26.0 -24.0 26.0 -32.1 21.35 -33.65 L21.4 -33.7 21.85 -33.8 21.45 -36.6 20.75 -38.5 20.15 -38.35 19.9 -37.5 Q20.05 -35.9 20.6 -33.8 L17.7 -34.45 Q15.2 -35.1 14.5 -35.5 15.55 -36.55 19.9 -39.35 22.75 -41.15 22.75 -42.9 22.75 -50.95 20.8 -58.0 19.3 -63.45 17.55 -65.7 17.65 -67.75 16.85 -68.65 16.35 -69.25 15.85 -69.25 L15.35 -69.15 15.6 -68.75 15.95 -65.7 9.15 -65.8 Q7.75 -65.85 7.35 -66.7 L9.6 -69.55 14.45 -75.2 15.2 -73.65 16.3 -71.8 16.4 -71.9 16.45 -72.55 16.05 -74.3 15.1 -76.55 Q15.35 -77.4 15.05 -79.4 15.45 -79.9 15.3 -80.9 15.1 -82.35 13.75 -84.0 L13.4 -86.6 11.3 -84.65 Q10.05 -83.7 8.25 -83.7 L7.35 -83.95 7.15 -84.25 6.75 -85.65 8.15 -88.4 9.5 -91.05 Q3.25 -85.35 -0.75 -85.35 L-1.4 -85.45 -1.45 -85.7 Q-0.35 -87.5 2.35 -89.85 L10.4 -96.4 Q9.15 -96.15 5.25 -97.05 1.7 -97.9 0.5 -98.75 L0.1 -99.05 Q3.3 -100.55 6.5 -103.25 10.35 -106.6 9.9 -108.65 L9.0 -108.35 Q8.0 -110.85 8.0 -112.25 8.0 -112.75 8.5 -112.6 8.95 -112.45 8.95 -112.95 8.95 -117.95 5.95 -122.25 L5.65 -122.7 5.85 -123.1 8.15 -127.15 Q9.6 -124.35 10.85 -120.1 13.25 -111.9 15.15 -98.75 L15.2 -97.85 15.2 -97.55 Q21.5 -81.35 21.5 -75.8 21.5 -75.45 20.2 -74.6 18.85 -73.2 18.85 -70.15 18.85 -69.15 19.15 -69.3 L23.95 -70.15 29.15 -51.4 Q29.95 -48.5 29.95 -46.2 29.95 -45.6 29.25 -45.35 28.5 -44.55 28.5 -41.05 28.5 -40.85 31.45 -35.9 34.55 -30.3 35.2 -26.95 L36.75 -20.5 Q37.8 -15.9 37.8 -12.4 37.8 -11.55 36.65 -10.9 34.45 -9.65 28.85 -9.65 28.45 -9.65 26.95 -11.0 L25.45 -9.1 M-19.9 -14.7 L-20.05 -13.75 -22.45 -9.9 -29.35 -12.1 Q-28.65 -19.0 -27.35 -24.75 -24.9 -36.0 -19.85 -37.0 L-23.85 -40.95 Q-24.95 -42.0 -24.95 -42.65 -24.95 -46.9 -18.6 -59.6 -19.0 -60.2 -20.65 -60.6 -17.55 -71.15 -15.2 -75.8 -13.7 -78.8 -13.7 -79.1 L-15.15 -80.9 Q-16.65 -82.85 -16.65 -83.95 -16.65 -86.85 -14.65 -91.5 L-12.65 -96.45 -13.05 -97.5 -13.5 -98.6 Q-13.5 -102.3 -11.6 -109.25 L-10.95 -103.8 Q-9.8 -97.0 -8.35 -96.1 L-19.9 -14.7 M-8.7 -118.4 Q-8.95 -111.15 -7.95 -101.0 L-7.8 -100.6 -7.7 -100.5 -8.2 -97.0 Q-9.55 -97.95 -10.15 -103.45 L-11.0 -111.3 -10.9 -111.8 -8.7 -118.4 M-6.35 -101.95 L-4.7 -106.75 -5.15 -103.1 -5.4 -100.25 -5.6 -99.95 -6.95 -97.6 -6.35 -101.95 M3.15 -125.35 L3.55 -126.0 Q5.5 -129.0 5.5 -131.05 6.65 -129.9 7.75 -128.0 6.2 -126.1 4.9 -123.65 L3.15 -125.35 M10.75 -105.0 L9.4 -105.65 10.35 -101.25 11.05 -101.35 Q11.55 -101.65 11.55 -103.1 11.55 -104.3 10.75 -105.0 M10.65 -96.35 Q10.65 -95.35 10.95 -94.65 11.25 -93.95 11.65 -93.95 12.05 -93.95 12.35 -94.65 L12.65 -96.35 12.35 -98.05 11.7 -98.75 11.65 -98.75 Q11.25 -98.75 10.95 -98.05 10.65 -97.35 10.65 -96.35 M13.4 -86.6 Q14.35 -87.65 13.75 -89.4 13.3 -90.8 12.6 -91.35 L12.35 -91.0 12.2 -90.75 12.2 -90.1 Q12.2 -87.8 13.4 -86.6 M-10.4 -94.6 Q-10.5 -95.35 -10.9 -95.45 -12.6 -94.55 -13.7 -92.3 -14.75 -90.05 -14.75 -87.35 L-14.45 -85.75 -14.05 -84.45 Q-13.1 -86.3 -11.75 -90.1 -10.45 -93.8 -10.4 -94.6 M-17.6 -63.8 Q-17.1 -64.15 -15.7 -67.55 -14.25 -71.0 -13.45 -73.9 L-13.5 -74.0 -16.3 -70.3 Q-18.65 -67.35 -18.4 -66.05 L-18.2 -64.95 -17.6 -63.8 M-19.85 -51.1 Q-21.85 -47.9 -21.85 -45.7 -21.85 -43.7 -21.3 -42.6 -20.55 -41.1 -18.55 -40.15 -18.05 -41.85 -17.3 -48.9 L-16.55 -56.4 Q-17.4 -54.65 -19.85 -51.1 M-19.75 -30.95 Q-27.0 -27.8 -27.95 -20.7 -28.35 -17.75 -27.0 -15.8 -25.6 -13.7 -22.75 -13.7 L-21.75 -13.85 Q-21.5 -13.95 -21.65 -14.0 -20.55 -22.55 -19.75 -30.3 L-19.75 -30.95" fill="#d24400" fill-rule="evenodd" stroke="none"/>
    <path d="M5.5 -131.05 L5.5 -131.3 Q5.5 -132.4 5.0 -133.25 L7.55 -130.9 Q10.35 -127.45 13.2 -118.7 L18.85 -98.75 19.7 -95.4 29.2 -58.55 39.0 -22.75 Q41.6 -13.5 41.6 -10.55 41.6 -9.75 38.05 -7.8 34.4 -5.8 32.1 -5.6 L25.45 -9.1 26.95 -11.0 Q28.45 -9.65 28.85 -9.65 34.45 -9.65 36.65 -10.9 37.8 -11.55 37.8 -12.4 37.8 -15.9 36.75 -20.5 L35.2 -26.95 Q34.55 -30.3 31.45 -35.9 28.5 -40.85 28.5 -41.05 28.5 -44.55 29.25 -45.35 29.95 -45.6 29.95 -46.2 29.95 -48.5 29.15 -51.4 L23.95 -70.15 19.15 -69.3 Q18.85 -69.15 18.85 -70.15 18.85 -73.2 20.2 -74.6 21.5 -75.45 21.5 -75.8 21.5 -81.35 15.2 -97.55 L15.2 -97.85 15.15 -98.75 Q13.25 -111.9 10.85 -120.1 9.6 -124.35 8.15 -127.15 L5.85 -123.1 5.65 -122.7 Q3.0 -117.9 1.3 -113.25 L0.8 -111.85 Q-0.25 -108.75 -2.7 -103.95 L-3.0 -103.25 -5.6 -98.25 -6.8 -96.05 -7.15 -96.0 -7.9 -96.0 -8.35 -96.1 Q-9.8 -97.0 -10.95 -103.8 L-11.6 -109.25 Q-13.5 -102.3 -13.5 -98.6 L-13.05 -97.5 -12.65 -96.45 -14.65 -91.5 Q-16.65 -86.85 -16.65 -83.95 -16.65 -82.85 -15.15 -80.9 L-13.7 -79.1 Q-13.7 -78.8 -15.2 -75.8 -17.55 -71.15 -20.65 -60.6 -19.0 -60.2 -18.6 -59.6 -24.95 -46.9 -24.95 -42.65 -24.95 -42.0 -23.85 -40.95 L-19.85 -37.0 Q-24.9 -36.0 -27.35 -24.75 -28.65 -19.0 -29.35 -12.1 L-22.45 -9.9 Q-23.8 -7.75 -25.25 -7.35 L-27.7 -7.55 Q-29.2 -8.05 -32.1 -9.55 -33.05 -10.05 -33.65 -11.05 -34.25 -12.1 -34.25 -13.25 -29.65 -28.85 -26.6 -43.3 L-18.15 -83.25 Q-14.9 -99.05 -12.2 -113.45 -9.9 -125.85 -9.15 -127.85 -8.6 -129.45 -6.15 -131.8 -8.4 -127.35 -8.7 -118.4 L-10.9 -111.8 -11.0 -111.3 -10.15 -103.45 Q-9.55 -97.95 -8.2 -97.0 L-7.65 -96.8 -6.95 -97.6 -5.6 -99.95 -5.4 -100.25 -3.0 -104.8 -2.3 -106.2 -2.05 -106.75 -1.3 -108.7 0.2 -112.75 2.9 -119.5 3.4 -120.7 4.9 -123.65 Q6.2 -126.1 7.75 -128.0 6.65 -129.9 5.5 -131.05 M22.45 -7.05 L19.9 -3.7 13.1 -3.0 6.85 -2.45 2.8 -2.45 -3.25 -3.0 -12.15 -3.7 Q-16.8 -4.2 -17.05 -7.4 L-13.45 -8.25 -9.2 -6.55 -7.5 -7.8 Q-5.95 -8.95 -5.2 -8.95 -4.25 -8.95 -3.75 -8.45 L-2.85 -7.35 Q-1.15 -5.8 4.95 -5.8 7.6 -5.8 8.9 -6.7 11.05 -8.5 14.05 -10.35 15.9 -8.75 17.7 -7.65 19.4 -6.6 20.05 -6.6 L22.45 -7.05 M22.55 -13.95 L22.6 -14.85 23.95 -14.6 24.5 -13.35 24.8 -12.0 24.5 -10.8 23.85 -9.8 Q22.7 -10.35 22.65 -10.85 L22.55 -13.95 M21.35 -33.65 L20.6 -33.8 Q20.05 -35.9 19.9 -37.5 L20.15 -38.35 20.75 -38.5 21.45 -36.6 21.85 -33.8 21.4 -33.7 21.35 -33.65 M17.55 -65.7 L17.35 -64.65 Q17.1 -64.2 16.75 -64.2 16.4 -64.2 16.2 -64.65 15.95 -65.1 15.95 -65.7 L15.6 -68.75 15.35 -69.15 15.85 -69.25 Q16.35 -69.25 16.85 -68.65 17.65 -67.75 17.55 -65.7 M14.45 -75.2 L14.5 -76.5 15.1 -76.55 16.05 -74.3 16.45 -72.55 16.4 -71.9 16.3 -71.8 15.2 -73.65 14.45 -75.2 M15.05 -79.4 L14.95 -79.2 Q13.75 -79.6 13.45 -80.65 L13.25 -83.25 Q13.25 -83.85 13.4 -83.95 L13.75 -84.0 Q15.1 -82.35 15.3 -80.9 15.45 -79.9 15.05 -79.4 M10.75 -105.0 Q11.55 -104.3 11.55 -103.1 11.55 -101.65 11.05 -101.35 L10.35 -101.25 9.4 -105.65 10.75 -105.0 M10.65 -96.35 Q10.65 -97.35 10.95 -98.05 11.25 -98.75 11.65 -98.75 L11.7 -98.75 12.35 -98.05 12.65 -96.35 12.35 -94.65 Q12.05 -93.95 11.65 -93.95 11.25 -93.95 10.95 -94.65 10.65 -95.35 10.65 -96.35 M13.4 -86.6 Q12.2 -87.8 12.2 -90.1 L12.2 -90.75 12.35 -91.0 12.6 -91.35 Q13.3 -90.8 13.75 -89.4 14.35 -87.65 13.4 -86.6 M16.95 -61.35 L18.5 -61.35 18.5 -56.85 16.95 -56.85 16.95 -61.35 M19.85 -51.45 L19.55 -49.7 Q19.25 -49.0 18.8 -49.0 18.35 -49.0 18.05 -49.7 17.75 -50.45 17.75 -51.45 17.75 -52.45 18.05 -53.15 18.35 -53.9 18.8 -53.9 19.25 -53.9 19.55 -53.15 L19.85 -51.45 M20.65 -41.55 L19.1 -41.55 19.1 -46.2 20.65 -46.2 20.65 -41.55 M21.65 -30.7 Q22.95 -27.65 22.95 -26.45 22.95 -25.75 22.65 -25.55 L21.85 -25.45 Q21.35 -26.85 20.85 -30.45 L21.65 -30.7 M23.7 -22.75 L23.7 -17.8 21.95 -17.8 21.95 -22.75 23.7 -22.75" fill="#ae3602" fill-rule="evenodd" stroke="none"/>
    <path d="M1.3 -113.25 Q2.5 -115.6 3.05 -116.15 6.15 -114.15 6.15 -106.75 6.15 -105.35 3.35 -104.1 1.0 -103.05 -1.0 -102.95 L-1.45 -102.95 -2.6 -103.05 -3.05 -103.15 -3.0 -103.25 -2.7 -103.95 Q-0.25 -108.75 0.8 -111.85 L1.3 -113.25 M-1.7 -28.9 Q1.85 -31.8 5.75 -33.35 8.45 -34.45 9.95 -34.5 L11.1 -34.3 11.3 -32.4 Q11.3 -25.7 8.95 -20.75 6.6 -15.75 3.3 -15.75 0.7 -15.75 0.65 -17.05 L2.3 -25.85 Q-0.95 -22.6 -11.85 -14.9 L-11.95 -15.05 -12.0 -15.75 Q-12.0 -17.85 -9.4 -21.35 -7.3 -24.25 -4.5 -26.75 L-3.1 -27.7 -1.7 -28.9 M3.75 -82.25 L2.65 -78.7 11.6 -78.95 Q10.3 -74.75 3.55 -71.05 -1.8 -68.1 -3.5 -68.1 L-5.5 -68.3 Q-5.25 -68.7 -5.5 -69.1 -6.45 -73.2 -3.05 -78.35 0.05 -83.05 4.5 -85.55 L3.75 -82.25 M2.9 -93.4 Q2.9 -92.0 1.9 -91.0 0.9 -90.0 -0.55 -90.0 -2.0 -90.0 -3.0 -91.0 -4.0 -92.0 -4.0 -93.4 -4.0 -94.8 -3.0 -95.8 -2.0 -96.8 -0.55 -96.8 0.9 -96.8 1.9 -95.8 2.9 -94.8 2.9 -93.4 M12.85 -61.85 Q14.4 -60.8 14.4 -56.8 -2.7 -44.25 -6.65 -44.25 L-7.25 -44.25 -7.15 -44.3 -7.3 -48.4 -7.5 -51.05 Q-7.5 -53.75 -1.1 -58.25 5.05 -62.55 7.8 -62.55 11.8 -62.55 12.85 -61.85 M15.45 -51.2 L16.25 -50.55 Q16.9 -49.55 16.9 -47.4 16.9 -44.85 9.85 -40.45 1.95 -35.45 -5.65 -35.45 -8.1 -36.0 -8.1 -38.45 -8.1 -40.25 -2.35 -43.5 L3.6 -46.5 11.4 -49.75 Q14.85 -51.2 15.45 -51.2 M14.05 -30.35 L14.1 -30.2 16.15 -25.6 Q17.75 -21.05 18.35 -16.8 L18.4 -16.7 17.8 -16.65 Q16.15 -16.65 15.05 -18.4 13.3 -21.1 13.3 -27.6 13.3 -28.7 14.05 -30.35" fill="#ff6c00" fill-rule="evenodd" stroke="none"/>
    <path d="M-18.35 -11.5 L-19.35 -13.5 -19.9 -14.7 -8.35 -96.1 -7.9 -96.0 -7.15 -96.0 -18.15 -14.95 -18.15 -14.9 -18.55 -12.05 -18.35 -11.5 M-7.7 -100.5 L-7.4 -100.4 -7.0 -100.5 -6.75 -100.85 -6.35 -101.95 -6.95 -97.6 -7.65 -96.8 -8.2 -97.0 -7.7 -100.5" fill="#8a2b02" fill-rule="evenodd" stroke="none"/>
    <path d="M25.45 -9.1 L32.1 -5.6 Q34.4 -5.8 38.05 -7.8 41.6 -9.75 41.6 -10.55 41.6 -13.5 39.0 -22.75 L29.2 -58.55 19.7 -95.4 18.85 -98.75 13.2 -118.7 Q10.35 -127.45 7.55 -130.9 L5.0 -133.25 Q5.5 -132.4 5.5 -131.3 L5.5 -131.05 Q5.5 -129.0 3.55 -126.0 L3.15 -125.35 1.45 -122.15 Q-1.05 -117.15 -4.2 -108.15 L-4.7 -106.75 -6.35 -101.95 -6.75 -100.85 -7.0 -100.5 -7.4 -100.4 -7.7 -100.5 -7.8 -100.6 -7.95 -101.0 Q-8.95 -111.15 -8.7 -118.4 -8.4 -127.35 -6.15 -131.8 -8.6 -129.45 -9.15 -127.85 -9.9 -125.85 -12.2 -113.45 -14.9 -99.05 -18.15 -83.25 L-26.6 -43.3 Q-29.65 -28.85 -34.25 -13.25 -34.25 -12.1 -33.65 -11.05 -33.05 -10.05 -32.1 -9.55 -29.2 -8.05 -27.7 -7.55 L-25.25 -7.35 Q-23.8 -7.75 -22.45 -9.9 L-20.05 -13.75 -19.9 -14.7 -19.35 -13.5 -18.35 -11.5 -17.05 -7.4 Q-16.8 -4.2 -12.15 -3.7 L-3.25 -3.0 2.8 -2.45 6.85 -2.45 13.1 -3.0 19.9 -3.7 22.45 -7.05 24.4 -9.65 Q24.95 -9.35 25.45 -9.1 M2.45 -133.85 L0.75 -134.45 -0.6 -134.5 -1.9 -134.15 Q-3.2 -133.6 -4.45 -132.3 -6.6 -128.95 -7.25 -121.85 -7.85 -115.15 -7.05 -105.05 L-7.0 -104.1 -5.5 -108.35 -3.8 -112.95 Q-0.55 -121.65 1.9 -125.7 L2.5 -126.7 Q4.25 -129.45 4.25 -131.3 L4.05 -132.25 Q3.6 -133.25 2.45 -133.85 M7.7 -132.5 Q10.8 -129.2 12.75 -124.0 14.7 -118.85 17.6 -107.85 L19.9 -98.75 21.8 -90.35 Q27.7 -71.1 32.35 -52.75 L34.7 -43.3 37.5 -32.05 38.1 -29.5 43.65 -9.5 42.55 -8.65 Q40.0 -6.95 36.8 -5.65 L34.15 -4.7 31.8 -4.05 24.6 -7.65 20.55 -2.0 17.75 -1.7 7.75 -1.15 Q-4.1 -1.25 -15.6 -3.0 L-17.2 -3.25 -17.45 -3.3 -20.0 -12.25 -23.65 -5.6 -23.6 -5.6 -24.05 -4.8 -26.25 -5.4 Q-33.35 -7.6 -35.3 -10.45 L-36.45 -11.7 -33.9 -21.55 -31.9 -29.35 Q-30.45 -34.75 -28.45 -43.3 L-28.4 -43.3 -26.3 -52.75 -21.2 -76.15 Q-14.8 -105.6 -13.4 -113.3 -11.3 -124.85 -9.8 -128.55 -7.35 -134.55 -2.8 -135.6 L-1.85 -135.8 -1.0 -135.85 -0.8 -135.85 -0.7 -135.85 Q2.1 -135.85 4.25 -134.9 6.25 -134.1 7.7 -132.5" fill="#5a1c01" fill-rule="evenodd" stroke="none"/>
    <path d="M2.1 -117.55 L-1.1 -109.1 Q-3.1 -103.9 -5.4 -100.25 L-3.35 -105.0 Q-3.35 -105.65 -4.05 -105.8 L-4.85 -105.85 -4.7 -106.75 0.2 -119.45 2.1 -117.55 M-5.6 -98.25 L-3.0 -103.25 1.8 -103.5 1.75 -99.9 0.1 -99.05 1.25 -98.3 0.45 -97.2 0.05 -96.75 -1.75 -96.4 -3.25 -95.45 Q-4.25 -95.45 -4.95 -96.15 -5.65 -96.85 -5.65 -97.85 L-5.6 -98.25 M1.3 -113.25 L1.4 -113.4 1.35 -113.35 1.35 -113.25 1.3 -113.25 M5.5 -112.35 L8.05 -112.5 Q7.95 -111.45 8.3 -110.35 8.75 -108.65 9.9 -108.65 L10.3 -108.6 Q9.95 -108.35 9.95 -107.8 9.95 -107.15 9.45 -106.4 L8.3 -105.0 5.6 -105.5 5.85 -108.7 Q5.9 -111.3 5.5 -112.35 M7.6 -73.65 L7.25 -68.35 7.35 -67.45 7.65 -67.1 7.35 -66.7 Q8.65 -65.7 10.1 -65.65 L15.95 -65.7 Q15.95 -65.1 16.2 -64.65 16.4 -64.2 16.75 -64.2 17.1 -64.2 17.35 -64.65 L17.55 -65.7 19.45 -62.2 Q17.05 -61.4 15.4 -61.05 L13.8 -60.65 Q13.15 -61.75 12.1 -62.1 L7.8 -62.55 Q5.9 -62.55 0.3 -58.75 -5.45 -54.85 -7.25 -52.15 L-8.75 -54.15 Q-6.65 -59.7 -5.6 -61.7 L-1.3 -62.25 Q0.15 -62.8 0.3 -65.3 L-1.3 -68.65 2.05 -70.2 7.6 -73.65 M14.4 -57.8 Q17.5 -53.35 17.5 -51.4 L17.15 -49.9 16.75 -49.2 Q15.8 -51.2 15.45 -51.2 L13.7 -50.6 7.0 -47.85 5.95 -50.8 10.4 -53.3 Q14.4 -55.95 14.4 -57.8 M3.15 -79.95 L4.6 -79.45 5.95 -78.8 2.65 -78.7 3.15 -79.95 M23.65 -22.75 Q23.65 -24.2 24.3 -25.2 24.95 -26.25 25.9 -26.25 L26.0 -23.35 Q26.0 -19.1 25.3 -16.95 25.0 -16.0 23.95 -14.6 L22.6 -14.85 22.55 -13.95 20.55 -13.65 Q18.05 -13.65 12.15 -16.45 L9.5 -11.55 Q9.5 -14.55 11.05 -16.7 12.6 -18.85 14.8 -18.85 15.75 -17.2 18.4 -16.65 L18.4 -16.7 18.25 -17.4 Q19.1 -16.75 20.5 -16.05 L21.9 -15.4 Q22.75 -15.4 23.05 -17.8 L23.7 -17.8 23.7 -22.75 23.65 -22.75 M-25.55 -26.65 L-22.65 -28.9 -19.75 -30.95 -20.75 -21.05 Q-23.1 -16.9 -25.6 -16.15 L-27.4 -16.45 Q-28.0 -18.0 -28.0 -19.45 L-27.55 -21.7 -26.4 -25.35 Q-26.05 -25.35 -25.8 -25.7 -25.55 -26.1 -25.55 -26.65 M-12.8 -37.2 Q-11.35 -36.8 -10.15 -35.85 -8.9 -34.85 -8.9 -34.05 -9.5 -32.45 -10.0 -31.6 -13.0 -31.4 -13.0 -33.7 L-12.8 -37.2 M-11.8 -25.0 Q-10.25 -23.35 -10.25 -22.3 -10.25 -19.95 -12.55 -18.65 -13.9 -17.85 -15.2 -17.7 -15.05 -22.85 -11.8 -25.0" fill="#fb9d20" fill-rule="evenodd" stroke="none"/>
    <path d="M-3.0 -103.25 Q-2.25 -104.45 -0.7 -108.15 L1.3 -113.25 1.35 -113.25 1.25 -112.25 Q1.25 -111.65 1.45 -111.65 L1.95 -111.7 5.5 -112.35 Q5.9 -111.3 5.85 -108.7 L5.6 -105.5 3.3 -105.3 Q2.2 -104.75 1.8 -103.5 L-3.0 -103.25 M0.05 -96.75 Q-1.65 -95.6 -3.25 -95.45 L-1.75 -96.4 0.05 -96.75 M5.95 -78.8 L7.25 -76.85 Q7.85 -75.55 7.6 -73.65 L2.05 -70.2 -1.3 -68.65 Q-2.35 -71.85 -2.35 -73.2 -2.35 -75.65 -0.45 -77.7 1.2 -79.45 3.15 -79.95 L2.65 -78.7 5.95 -78.8 M13.8 -60.65 L13.4 -60.35 13.3 -59.65 14.4 -57.8 Q14.4 -55.95 10.4 -53.3 L5.95 -50.8 Q6.25 -53.15 5.65 -54.65 5.15 -55.8 4.55 -55.8 L1.0 -53.5 Q-2.65 -51.2 -4.4 -51.2 -5.9 -51.2 -7.25 -52.15 -5.45 -54.85 0.3 -58.75 5.9 -62.55 7.8 -62.55 L12.1 -62.1 Q13.15 -61.75 13.8 -60.65 M16.75 -49.2 Q15.6 -47.75 15.05 -47.4 13.65 -46.35 11.5 -46.35 L9.65 -46.75 Q7.85 -47.25 7.0 -47.85 L13.7 -50.6 15.45 -51.2 Q15.8 -51.2 16.75 -49.2 M18.25 -17.4 L18.4 -16.7 18.4 -16.65 Q15.75 -17.2 14.8 -18.85 16.35 -18.8 18.25 -17.4" fill="#fdb51e" fill-rule="evenodd" stroke="none"/>
    <path d="M-5.7 -98.15 L-5.6 -98.25 -5.65 -97.85 -5.7 -98.15 M8.05 -112.5 Q9.65 -112.05 10.1 -111.35 10.55 -110.6 10.55 -108.55 10.55 -107.5 9.5 -105.6 L9.45 -105.55 Q8.75 -105.0 8.3 -105.0 L9.45 -106.4 Q9.95 -107.15 9.95 -107.8 9.95 -108.35 10.3 -108.6 L9.9 -108.65 Q8.75 -108.65 8.3 -110.35 7.95 -111.45 8.05 -112.5 M1.75 -99.9 L1.25 -98.3 0.1 -99.05 1.75 -99.9 M-4.7 -106.75 L-4.85 -105.85 -5.1 -105.7 -4.7 -106.75 M7.65 -67.1 Q10.25 -66.95 11.65 -69.0 13.25 -71.4 16.15 -72.0 L16.45 -71.75 16.45 -72.05 Q17.8 -71.95 18.9 -71.35 L18.9 -69.4 20.5 -69.4 Q21.5 -66.3 21.5 -65.35 L21.05 -64.05 Q20.5 -63.05 19.45 -62.2 L17.55 -65.7 Q17.8 -68.75 15.85 -69.25 L15.35 -69.15 15.55 -68.9 15.95 -65.7 10.1 -65.65 Q8.65 -65.7 7.35 -66.7 L7.65 -67.1 M-8.75 -54.15 L-9.15 -55.6 -9.5 -57.6 Q-9.5 -59.5 -8.6 -60.45 -7.65 -61.5 -5.6 -61.7 -6.65 -59.7 -8.75 -54.15 M9.5 -11.55 L12.15 -16.45 Q18.05 -13.65 20.55 -13.65 L22.55 -13.95 22.3 -11.65 Q22.3 -10.45 23.85 -9.8 L24.5 -10.65 24.8 -12.0 Q24.75 -12.9 23.95 -14.6 25.0 -16.0 25.3 -16.95 26.0 -19.1 26.0 -23.35 L25.9 -26.25 Q28.25 -26.85 31.3 -25.55 34.45 -24.25 34.45 -22.45 L32.75 -18.65 31.0 -14.9 Q31.0 -12.65 33.3 -12.0 L37.25 -11.3 Q35.45 -9.65 29.5 -9.65 29.0 -9.65 28.35 -10.05 L26.95 -11.0 25.45 -9.1 Q24.95 -9.35 24.4 -9.65 L22.45 -7.05 19.85 -6.6 19.15 -6.85 Q14.75 -9.15 14.05 -10.35 L11.25 -8.5 10.25 -10.05 9.5 -11.55 M-10.25 -104.3 L-11.0 -111.25 -8.65 -111.5 -8.2 -104.2 -10.25 -104.3 M-12.3 -106.4 L-11.6 -109.25 -11.05 -104.65 -12.3 -106.4 M-23.8 -34.1 Q-23.1 -32.85 -22.55 -32.5 -22.15 -32.2 -21.3 -32.2 -20.6 -32.2 -19.65 -33.3 L-16.85 -36.1 -18.9 -21.55 Q-19.85 -21.55 -20.75 -21.05 L-19.75 -30.95 -22.65 -28.9 -25.55 -26.65 -26.65 -27.6 -23.8 -34.1 M-15.15 -37.0 L-12.8 -37.2 -13.0 -33.7 Q-13.0 -31.4 -10.0 -31.6 -11.15 -30.6 -11.95 -30.15 -13.05 -29.6 -16.3 -28.55 L-15.15 -37.0 M-16.5 -27.05 L-14.3 -26.15 Q-12.7 -25.55 -11.8 -25.0 -15.05 -22.85 -15.2 -17.7 L-16.4 -18.6 -17.5 -19.5 -16.5 -27.05 M-27.35 -24.75 L-26.4 -25.35 -27.55 -21.7 -28.0 -19.45 Q-28.0 -18.0 -27.4 -16.45 L-28.7 -17.25 -27.35 -24.75" fill="#f48e04" fill-rule="evenodd" stroke="none"/>
    <path d="M2.1 -117.55 Q2.25 -116.5 1.4 -113.4 L1.3 -113.25 -0.7 -108.15 Q-2.25 -104.45 -3.0 -103.25 L-5.6 -98.25 -5.7 -98.15 -5.4 -100.25 Q-3.1 -103.9 -1.1 -109.1 L2.1 -117.55 M16.15 -72.0 L16.45 -72.05 16.45 -71.75 16.15 -72.0 M18.9 -71.35 L20.5 -69.4 18.9 -69.4 18.9 -71.35 M15.95 -65.7 L15.55 -68.9 15.35 -69.15 15.85 -69.25 Q17.8 -68.75 17.55 -65.7 L17.35 -64.65 Q17.1 -64.2 16.75 -64.2 16.4 -64.2 16.2 -64.65 15.95 -65.1 15.95 -65.7 M23.65 -22.75 L23.7 -22.75 23.7 -17.8 23.05 -17.8 23.65 -22.75 M22.55 -13.95 L22.6 -14.85 23.95 -14.6 Q24.75 -12.9 24.8 -12.0 L24.5 -10.65 23.85 -9.8 Q22.3 -10.45 22.3 -11.65 L22.55 -13.95 M37.25 -11.3 Q39.45 -10.15 40.4 -9.2 36.65 -6.95 35.05 -6.3 L32.1 -5.6 25.45 -9.1 26.95 -11.0 28.35 -10.05 Q29.0 -9.65 29.5 -9.65 35.45 -9.65 37.25 -11.3 M19.45 -3.6 L20.0 -4.5 20.25 -5.55 20.15 -6.3 19.85 -6.6 22.45 -7.05 19.9 -3.7 19.45 -3.6 M19.15 -6.85 Q12.45 -7.8 11.25 -8.5 L14.05 -10.35 Q14.75 -9.15 19.15 -6.85 M-10.25 -104.3 L-11.05 -104.65 -11.6 -109.25 -12.3 -106.4 -12.45 -107.7 -11.95 -109.65 -11.0 -111.25 -10.25 -104.3 M-23.8 -34.1 L-26.65 -27.6 -29.75 -29.6 -27.95 -37.2 Q-26.25 -37.2 -25.0 -36.3 -23.8 -35.4 -23.8 -34.1 M-27.35 -24.75 L-28.7 -17.25 Q-30.0 -19.1 -30.45 -21.45 -30.45 -22.45 -29.6 -23.3 L-27.35 -24.75" fill="#d67203" fill-rule="evenodd" stroke="none"/>
    <path d="M-18.9 -21.55 L-16.85 -36.1 -15.15 -37.0 -16.3 -28.55 -16.75 -28.0 -16.5 -27.05 -17.5 -19.5 -18.9 -21.55" fill="#995202" fill-rule="evenodd" stroke="none"/>
    <path d="M0.2 -119.45 L-4.7 -106.75 -5.1 -105.7 -6.8 -104.65 -3.4 -113.85 -0.95 -119.95 0.2 -119.45 M40.4 -9.2 L41.4 -7.9 Q40.3 -7.3 36.05 -5.65 32.0 -4.05 31.8 -4.05 L29.05 -6.1 Q28.45 -6.1 26.45 -6.85 L24.6 -7.65 20.55 -2.0 18.35 -1.75 19.45 -3.6 19.9 -3.7 22.45 -7.05 24.4 -9.65 Q24.95 -9.35 25.45 -9.1 L32.1 -5.6 35.05 -6.3 Q36.65 -6.95 40.4 -9.2 M-8.65 -111.5 Q-6.75 -111.1 -6.7 -108.35 L-7.0 -104.3 -8.2 -104.2 -8.65 -111.5 M-29.75 -29.6 L-30.9 -30.4 Q-31.35 -30.7 -30.6 -33.3 L-29.55 -36.55 Q-29.25 -37.25 -27.95 -37.2 L-29.75 -29.6" fill="#763f01" fill-rule="evenodd" stroke="none"/>
    <path d="M19.35 -85.9 L16.6 -87.05 16.9 -82.85 Q16.9 -80.3 15.15 -78.65 L15.05 -79.4 15.25 -79.5 15.4 -80.4 15.15 -81.65 Q14.7 -83.0 13.75 -84.0 L13.4 -86.6 11.1 -84.8 Q9.7 -83.9 9.0 -83.75 L7.3 -86.75 9.5 -91.05 6.45 -88.5 4.9 -91.9 6.9 -93.5 11.0 -94.6 11.2 -94.35 11.65 -93.95 12.0 -94.6 12.1 -94.6 Q12.3 -94.8 12.3 -95.85 L12.35 -96.35 Q12.5 -97.8 12.1 -98.5 L11.65 -102.8 Q11.65 -103.15 12.3 -103.75 13.05 -104.45 14.2 -104.95 14.95 -98.4 16.2 -94.8 17.95 -90.45 19.35 -85.9 M14.0 -88.2 Q14.0 -89.0 13.5 -90.0 L12.6 -91.35 12.3 -91.15 12.2 -90.45 Q12.6 -87.65 13.4 -86.6 L13.85 -87.25 14.0 -88.2 M31.15 -36.45 Q30.4 -33.65 30.05 -33.1 29.7 -32.5 28.8 -32.5 27.6 -32.5 25.6 -35.5 23.45 -38.75 22.7 -42.45 22.85 -43.75 22.6 -47.35 L24.25 -48.1 Q26.05 -48.6 28.6 -48.15 L29.25 -51.0 Q30.25 -46.1 29.7 -45.7 28.65 -44.95 28.5 -41.05 L31.15 -36.45 M5.3 -10.85 Q5.15 -9.95 4.35 -9.15 3.25 -8.1 1.7 -8.1 -0.45 -8.1 -4.35 -9.5 -8.1 -10.9 -9.5 -12.15 -8.45 -12.5 -6.4 -14.5 -4.45 -16.45 -4.1 -17.35 -2.55 -14.65 0.4 -12.6 3.35 -10.6 5.3 -10.85 M-6.25 -26.55 L-6.55 -28.25 -6.2 -30.75 Q-5.9 -31.7 -4.7 -32.45 L-2.15 -32.8 -0.9 -32.75 Q-1.25 -29.75 -1.7 -28.9 L-4.5 -26.75 -6.25 -26.55 M-13.55 -92.55 Q-14.75 -89.3 -14.75 -87.35 -14.75 -86.4 -14.05 -84.45 L-12.95 -86.9 Q-13.15 -84.25 -12.3 -83.7 L-10.15 -83.4 -11.9 -70.85 Q-11.9 -70.15 -12.8 -69.65 -13.75 -69.15 -15.05 -69.15 L-13.45 -73.9 -16.45 -70.05 -16.65 -70.45 -17.05 -71.45 -14.45 -76.75 Q-13.7 -78.1 -13.7 -79.1 -13.7 -80.1 -15.15 -81.8 -16.65 -83.5 -16.65 -83.95 -16.65 -86.05 -15.65 -88.85 L-14.05 -92.85 -13.55 -92.55 M-6.95 -83.5 L-7.6 -77.2 -10.25 -73.2 -8.85 -83.45 -6.95 -83.5 M-20.3 -61.75 Q-19.35 -61.1 -18.0 -58.6 -17.0 -56.7 -16.75 -55.9 L-18.75 -52.7 -21.45 -51.15 -21.0 -48.9 Q-21.85 -46.7 -21.85 -45.7 L-21.65 -43.65 -24.8 -43.95 -23.1 -49.1 Q-21.15 -54.4 -18.6 -59.6 -19.1 -60.1 -20.65 -60.6 L-20.3 -61.75" fill="#ba2601" fill-rule="evenodd" stroke="none"/>
    <path d="M17.65 -103.2 Q18.8 -101.95 20.25 -96.65 L23.3 -85.5 22.3 -85.35 17.65 -103.2 M30.2 -54.75 L30.85 -58.6 35.6 -39.75 34.2 -40.15 30.2 -54.75 M-16.35 -91.95 L-19.15 -78.3 -19.8 -77.5 Q-20.25 -77.05 -21.0 -77.05 L-19.65 -84.45 Q-18.05 -91.5 -16.35 -91.95 M-26.35 -44.3 L-28.0 -45.0 -24.15 -62.6 Q-23.45 -63.95 -23.0 -63.95 -22.35 -63.95 -22.25 -63.75 L-22.3 -63.6 -26.35 -44.3" fill="#521101" fill-rule="evenodd" stroke="none"/>
    <path d="M14.2 -104.95 Q15.65 -104.95 16.65 -104.4 17.65 -103.9 17.65 -103.2 L22.3 -85.35 Q21.0 -85.35 19.35 -85.9 17.95 -90.45 16.2 -94.8 14.95 -98.4 14.2 -104.95 M11.0 -94.6 Q11.4 -94.8 12.0 -94.6 L11.65 -93.95 11.2 -94.35 11.0 -94.6 M12.3 -95.85 L12.1 -98.5 Q12.5 -97.8 12.35 -96.35 L12.3 -95.85 M14.0 -88.2 L13.85 -87.25 13.4 -86.6 Q12.6 -87.65 12.2 -90.45 L12.3 -91.15 12.6 -91.35 13.5 -90.0 Q14.0 -89.0 14.0 -88.2 M15.05 -79.4 Q14.05 -79.85 13.7 -80.45 13.2 -81.3 13.25 -83.25 L13.4 -83.95 13.75 -84.0 Q14.7 -83.0 15.15 -81.65 L15.4 -80.4 15.25 -79.5 15.05 -79.4 M29.25 -51.0 L30.2 -54.75 34.2 -40.15 32.5 -40.7 31.15 -36.45 28.5 -41.05 Q28.65 -44.95 29.7 -45.7 30.25 -46.1 29.25 -51.0 M-14.05 -92.85 L-15.65 -88.85 Q-16.65 -86.05 -16.65 -83.95 -16.65 -83.5 -15.15 -81.8 -13.7 -80.1 -13.7 -79.1 -13.7 -78.1 -14.45 -76.75 L-17.05 -71.45 -17.55 -78.3 -19.15 -78.3 -16.35 -91.95 -14.05 -92.85 M-26.35 -44.3 L-22.3 -63.6 -20.3 -61.75 -20.65 -60.6 Q-19.1 -60.1 -18.6 -59.6 -21.15 -54.4 -23.1 -49.1 L-24.8 -43.95 -26.35 -44.3" fill="#941f01" fill-rule="evenodd" stroke="none"/>
    <path d="M15.15 -78.65 Q11.6 -79.35 9.0 -83.75 9.7 -83.9 11.1 -84.8 L13.4 -86.6 13.75 -84.0 13.4 -83.95 13.25 -83.25 Q13.2 -81.3 13.7 -80.45 14.05 -79.85 15.05 -79.4 L15.15 -78.65 M7.3 -86.75 L6.45 -88.5 9.5 -91.05 7.3 -86.75 M4.9 -91.9 Q4.9 -92.55 5.5 -93.0 6.05 -93.5 6.9 -93.5 L4.9 -91.9 M22.7 -42.45 Q22.15 -44.6 22.15 -45.2 22.15 -46.0 22.6 -47.35 22.85 -43.75 22.7 -42.45 M3.95 -15.8 Q5.3 -11.75 5.3 -10.85 3.35 -10.6 0.4 -12.6 -2.55 -14.65 -4.1 -17.35 -4.45 -16.45 -6.4 -14.5 -8.45 -12.5 -9.5 -12.15 L-9.95 -12.8 Q-7.3 -15.25 -4.9 -19.9 -2.3 -21.7 -0.05 -23.65 L2.3 -25.85 0.65 -17.05 2.2 -16.05 Q2.85 -15.75 3.0 -15.75 L3.95 -15.8 M-5.95 -25.35 L-6.25 -26.55 -4.5 -26.75 -5.95 -25.35 M-0.9 -32.75 L3.6 -32.35 Q0.95 -30.8 -1.7 -28.9 -1.25 -29.75 -0.9 -32.75 M-12.95 -86.9 L-14.05 -84.45 Q-14.75 -86.4 -14.75 -87.35 -14.75 -89.3 -13.55 -92.55 -12.9 -90.75 -12.95 -86.9 M-16.45 -70.05 L-13.45 -73.9 -15.05 -69.15 -15.5 -69.4 -16.45 -70.05 M-7.6 -77.2 L-6.95 -83.5 -5.6 -83.1 Q-5.2 -82.85 -5.2 -82.1 -5.2 -80.45 -7.6 -77.2 M-16.75 -55.9 L-16.65 -55.0 -16.75 -54.3 -18.75 -52.7 -16.75 -55.9 M-21.0 -48.9 Q-19.7 -45.55 -19.65 -44.55 L-19.8 -43.65 -21.65 -43.65 -21.85 -45.7 Q-21.85 -46.7 -21.0 -48.9" fill="#dc2d01" fill-rule="evenodd" stroke="none"/>
    <path d="M3.6 -32.35 L7.75 -31.6 Q9.3 -31.15 9.3 -30.15 9.3 -28.7 6.35 -24.35 3.15 -19.75 2.9 -18.75 L3.95 -15.8 3.0 -15.75 Q2.85 -15.75 2.2 -16.05 L0.65 -17.05 2.3 -25.85 -0.05 -23.65 Q-2.3 -21.7 -4.9 -19.9 L-4.75 -20.7 Q-4.75 -22.85 -5.95 -25.35 L-4.5 -26.75 -1.7 -28.9 Q0.95 -30.8 3.6 -32.35" fill="#fa3301" fill-rule="evenodd" stroke="none"/>
    <path d="M-11.9 -70.85 L-10.15 -83.4 -8.85 -83.45 -10.25 -73.2 -11.9 -70.85" fill="#6d1601" fill-rule="evenodd" stroke="none"/>
    <path d="M11.1 -124.45 L12.25 -125.3 15.4 -115.85 14.25 -115.25 11.1 -124.45 M26.35 -69.5 L27.25 -71.9 30.4 -60.4 29.1 -58.95 26.35 -69.5 M-21.8 -65.95 L-23.45 -65.9 -21.6 -74.15 -20.15 -73.65 -21.8 -65.95 M-9.5 -3.4 L-9.4 -2.15 -16.85 -3.0 Q-17.4 -3.05 -18.3 -6.35 L-17.55 -8.95 -17.05 -7.4 Q-17.05 -5.75 -14.85 -4.55 -12.65 -3.4 -9.5 -3.4" fill="#bb4600" fill-rule="evenodd" stroke="none"/>
    <path d="M14.25 -115.25 Q12.7 -115.0 12.1 -115.5 L9.85 -123.15 11.1 -124.45 14.25 -115.25 M25.25 -65.4 L26.35 -69.5 29.1 -58.95 27.8 -58.7 Q27.55 -58.7 27.0 -59.15 L25.25 -65.4 M20.6 -33.8 Q19.9 -36.3 19.9 -37.5 19.9 -38.5 20.75 -38.5 L21.3 -37.55 21.45 -37.4 21.85 -33.8 21.35 -33.65 20.6 -33.8 M-20.15 -73.65 Q-19.65 -73.2 -18.85 -71.35 -18.05 -69.5 -18.05 -68.75 L-18.8 -66.5 Q-19.5 -66.05 -21.8 -65.95 L-20.15 -73.65 M-10.6 -7.1 L-9.95 -5.9 Q-9.45 -4.7 -9.5 -3.4 -12.65 -3.4 -14.85 -4.55 -17.05 -5.75 -17.05 -7.4 -16.5 -7.85 -15.65 -8.0 -14.05 -8.3 -10.6 -7.1" fill="#ff8033" fill-rule="evenodd" stroke="none"/>
    <path d="M12.1 -115.5 Q10.95 -116.55 10.05 -117.75 8.75 -119.5 8.75 -120.7 8.75 -121.1 9.85 -123.15 L12.1 -115.5 M2.95 -90.3 L3.15 -88.3 3.05 -86.35 Q1.0 -85.45 -1.0 -85.35 L-1.4 -85.45 -1.45 -85.7 0.55 -87.9 2.95 -90.3 M27.0 -59.15 Q24.75 -62.25 24.9 -63.7 L25.25 -65.4 27.0 -59.15 M21.35 -33.65 L21.85 -33.8 21.45 -37.4 21.3 -37.55 20.75 -38.5 Q19.9 -38.5 19.9 -37.5 19.9 -36.3 20.6 -33.8 19.9 -33.8 17.5 -34.5 15.15 -35.15 14.5 -35.5 L16.8 -37.15 20.9 -40.0 Q22.05 -38.55 22.8 -36.9 L23.3 -35.45 Q23.3 -34.8 22.75 -34.0 L22.15 -33.3 21.35 -33.65 M-18.05 -68.75 L-18.25 -67.4 Q-18.5 -66.7 -18.8 -66.5 L-18.05 -68.75 M-17.55 -8.95 L-17.2 -9.45 Q-16.0 -9.55 -13.8 -8.75 L-10.6 -7.1 Q-14.05 -8.3 -15.65 -8.0 -16.5 -7.85 -17.05 -7.4 L-17.55 -8.95" fill="#ff9351" fill-rule="evenodd" stroke="none"/>
    <path d="M2.4 -91.6 L2.95 -90.3 0.55 -87.9 -1.45 -85.7 -1.4 -85.45 -1.0 -85.35 Q1.0 -85.45 3.05 -86.35 1.7 -83.7 -0.5 -83.7 -1.95 -83.7 -3.65 -85.15 -5.65 -86.85 -5.65 -89.05 L-5.1 -89.8 -3.3 -91.35 Q-1.5 -90.0 -0.55 -90.0 -0.25 -90.0 0.55 -90.4 L2.4 -91.6 M20.6 -33.8 L21.35 -33.65 22.15 -33.3 Q20.75 -30.6 19.1 -29.4 18.1 -28.7 17.25 -28.7 16.7 -28.7 15.05 -30.75 12.95 -33.35 12.95 -36.05 12.95 -36.55 14.0 -37.5 15.0 -38.5 15.0 -39.0 15.0 -39.5 14.6 -39.4 14.2 -39.35 14.2 -39.85 14.2 -40.7 16.45 -41.2 L19.25 -41.55 20.2 -41.05 20.9 -40.0 16.8 -37.15 14.5 -35.5 Q15.15 -35.15 17.5 -34.5 19.9 -33.8 20.6 -33.8 M-1.0 -46.45 L1.1 -45.35 1.05 -45.2 Q-4.45 -42.6 -6.7 -40.55 -8.25 -40.95 -9.0 -41.75 -9.5 -42.25 -9.5 -42.8 L-8.65 -44.95 Q-7.75 -47.05 -7.25 -47.55 L-7.15 -44.25 -7.25 -44.25 Q-5.2 -43.95 -1.0 -46.45" fill="#ffa56f" fill-rule="evenodd" stroke="none"/>
    <path d="M-3.3 -91.35 Q-2.7 -91.6 -1.2 -92.4 0.1 -93.0 0.75 -93.0 L2.4 -91.6 0.55 -90.4 Q-0.25 -90.0 -0.55 -90.0 -1.5 -90.0 -3.3 -91.35 M1.05 -45.2 Q0.35 -42.0 -0.95 -40.45 -1.75 -39.5 -2.45 -39.5 L-6.7 -40.55 Q-4.45 -42.6 1.05 -45.2 M-7.25 -47.55 Q-5.4 -47.55 -1.0 -46.45 -5.2 -43.95 -7.25 -44.25 L-7.15 -44.25 -7.25 -47.55" fill="#ffb082" fill-rule="evenodd" stroke="none"/>
  </g>
</svg>
