<?xml version="1.0" encoding="UTF-8" standalone="no"?>
<svg xmlns:ffdec="https://www.free-decompiler.com/flash" xmlns:xlink="http://www.w3.org/1999/xlink" ffdec:objectType="shape" height="133.3px" width="125.5px" xmlns="http://www.w3.org/2000/svg">
  <g transform="matrix(1.0, 0.0, 0.0, 1.0, 60.55, 48.5)">
    <path d="M33.45 -2.45 L33.1 -4.05 32.8 -6.4 33.0 -10.35 33.1 -10.5 33.95 -10.65 37.2 -7.75 Q41.15 -4.65 45.5 -3.65 45.1 -4.45 44.65 -6.0 44.1 -7.85 44.1 -8.7 44.1 -10.6 45.05 -11.2 51.15 -4.95 54.55 -3.35 56.4 -2.45 62.35 -1.55 59.05 -5.5 58.4 -7.55 57.75 -9.6 57.95 -12.3 58.2 -15.0 57.75 -19.95 57.25 -24.95 54.0 -29.75 50.8 -34.55 44.55 -36.3 L38.25 -36.9 Q39.45 -38.65 44.05 -38.35 47.05 -38.35 50.75 -35.75 54.5 -33.15 56.7 -28.6 58.95 -24.1 59.35 -19.05 L59.95 -11.7 Q60.15 -9.45 61.4 -6.45 63.15 -2.4 64.95 -0.7 L62.65 -0.1 Q58.8 -0.1 52.4 -3.25 50.3 -4.25 47.05 -7.65 45.05 -9.75 45.55 -8.2 L46.4 -5.4 47.2 -2.6 Q46.7 -2.1 45.7 -2.1 43.45 -2.1 41.5 -3.2 39.25 -4.5 34.7 -8.7 34.65 0.55 34.05 1.0 L32.0 -0.95 32.0 -3.95 33.45 -2.45" fill="#97877d" fill-rule="evenodd" stroke="none"/>
    <path d="M32.0 -20.1 Q33.1 -16.85 34.6 -14.0 37.8 -7.85 42.7 -7.15 L42.75 -8.45 Q42.95 -9.8 43.6 -9.8 44.25 -9.8 40.75 -23.15 42.1 -22.45 43.2 -19.95 L45.15 -14.85 Q47.95 -7.7 52.55 -6.15 52.15 -11.45 51.1 -16.25 49.1 -25.65 43.6 -28.35 45.25 -27.8 48.9 -23.85 52.7 -19.8 53.85 -19.25 54.65 -23.8 50.0 -27.7 44.4 -32.4 33.65 -32.4 L32.0 -32.25 32.0 -40.3 Q36.55 -38.85 37.15 -37.85 L37.9 -36.7 38.25 -36.9 44.55 -36.3 Q50.8 -34.55 54.0 -29.75 57.25 -24.95 57.75 -19.95 58.2 -15.0 57.95 -12.3 57.75 -9.6 58.4 -7.55 59.05 -5.5 62.35 -1.55 56.4 -2.45 54.55 -3.35 51.15 -4.95 45.05 -11.2 44.1 -10.6 44.1 -8.7 44.1 -7.85 44.65 -6.0 45.1 -4.45 45.5 -3.65 41.15 -4.65 37.2 -7.75 L33.95 -10.65 33.1 -10.5 33.0 -10.35 32.8 -6.4 33.1 -4.05 33.45 -2.45 Q32.9 -4.05 32.05 -9.15 L32.0 -9.4 32.0 -20.1 M52.95 -11.2 Q52.95 -9.3 53.75 -7.75 54.9 -5.4 57.25 -5.95 L53.5 -13.7 Q52.95 -12.45 52.95 -11.2" fill="#cbc8c0" fill-rule="evenodd" stroke="none"/>
    <path d="M32.0 -28.45 Q35.15 -22.25 36.85 -16.2 37.45 -14.05 37.8 -13.55 38.3 -12.9 39.55 -12.95 L39.6 -12.95 Q40.05 -19.95 36.85 -25.1 34.65 -28.6 32.0 -29.85 L32.0 -32.25 33.65 -32.4 Q44.4 -32.4 50.0 -27.7 54.65 -23.8 53.85 -19.25 52.7 -19.8 48.9 -23.85 45.25 -27.8 43.6 -28.35 49.1 -25.65 51.1 -16.25 52.15 -11.45 52.55 -6.15 47.95 -7.7 45.15 -14.85 L43.2 -19.95 Q42.1 -22.45 40.75 -23.15 44.25 -9.8 43.6 -9.8 42.95 -9.8 42.75 -8.45 L42.7 -7.15 Q37.8 -7.85 34.6 -14.0 33.1 -16.85 32.0 -20.1 L32.0 -28.45 M32.0 -9.4 L32.05 -9.15 Q32.9 -4.05 33.45 -2.45 L32.0 -3.95 32.0 -9.4 M43.85 -23.8 Q47.15 -19.25 47.45 -14.4 L47.7 -18.75 Q47.35 -22.5 44.95 -25.15 43.0 -27.3 39.2 -29.15 42.1 -26.25 43.85 -23.8 M52.95 -11.2 Q52.95 -12.45 53.5 -13.7 L57.25 -5.95 Q54.9 -5.4 53.75 -7.75 52.95 -9.3 52.95 -11.2" fill="#ebe8e0" fill-rule="evenodd" stroke="none"/>
    <path d="M32.0 -29.85 Q34.65 -28.6 36.85 -25.1 40.05 -19.95 39.6 -12.95 L39.55 -12.95 Q38.3 -12.9 37.8 -13.55 37.45 -14.05 36.85 -16.2 35.15 -22.25 32.0 -28.45 L32.0 -29.85 M43.85 -23.8 Q42.1 -26.25 39.2 -29.15 43.0 -27.3 44.95 -25.15 47.35 -22.5 47.7 -18.75 L47.45 -14.4 Q47.15 -19.25 43.85 -23.8" fill="#ffffff" fill-rule="evenodd" stroke="none"/>
    <path d="M29.75 -26.0 Q21.45 -21.45 20.4 -20.4 L19.85 -19.55 26.65 -18.85 26.75 -18.7 27.35 -18.25 Q20.8 -14.25 18.6 -13.35 L17.15 -12.75 17.1 -12.75 Q18.45 -11.65 20.05 -11.4 L22.5 -11.25 22.65 -11.25 16.45 -9.5 Q12.65 -8.45 12.1 -8.05 12.7 -6.8 16.35 -6.7 L23.4 -6.55 Q23.4 -6.45 23.9 -6.3 L24.75 -6.0 Q19.7 -4.2 16.0 -2.25 13.3 -0.8 12.5 0.0 L12.65 0.5 13.5 0.65 16.8 -0.05 21.5 -0.75 27.15 -0.25 Q24.6 1.65 17.75 3.15 L9.85 4.75 8.85 5.6 15.9 9.25 16.0 9.35 Q9.75 10.6 8.6 11.55 8.85 12.35 13.85 16.25 13.1 16.25 8.7 15.05 L4.25 13.85 3.35 14.25 Q5.7 17.05 9.25 20.15 L12.6 22.9 7.2 23.4 Q5.85 23.4 0.3 19.65 -5.05 16.0 -5.85 14.8 L-7.65 11.35 Q-8.95 8.75 -10.25 7.4 -10.75 7.9 -10.75 9.4 -10.75 11.3 -9.35 15.15 -8.0 19.05 -8.0 21.5 L-8.15 21.65 -11.05 19.35 -13.75 17.25 Q-14.55 18.1 -14.65 20.4 L-14.7 23.25 -14.7 23.9 -16.95 19.25 Q-17.9 16.6 -17.9 8.8 -17.9 4.3 -17.65 3.7 -17.05 3.25 -16.4 1.6 -15.9 2.7 -15.0 3.6 -14.7 3.2 -13.95 0.55 L-13.15 -2.8 Q-7.35 0.45 -6.0 2.0 L-1.5 6.75 2.0 10.15 2.3 10.2 2.45 9.55 1.4 8.25 2.0 8.3 2.15 7.6 Q2.15 7.1 -2.85 2.3 -8.3 -3.0 -9.8 -6.25 L-6.95 -6.05 -5.15 -6.35 Q-4.1 -6.65 -3.75 -7.0 -5.05 -7.65 -8.05 -10.0 -3.15 -13.45 -1.3 -14.1 L14.75 -19.0 14.5 -19.5 4.4 -18.05 0.95 -17.05 -6.15 -17.05 Q-5.05 -19.15 -3.55 -20.95 L0.05 -25.05 2.95 -27.95 3.6 -28.65 Q3.6 -29.65 3.5 -29.0 1.9 -29.1 -2.6 -27.0 -6.55 -25.2 -9.55 -23.25 -5.1 -28.0 0.15 -32.4 7.5 -38.6 11.15 -39.15 L11.15 -38.95 18.1 -38.2 26.75 -37.15 Q28.9 -36.65 34.35 -33.5 L22.65 -31.85 Q19.3 -31.3 15.0 -28.75 L22.55 -28.15 Q27.15 -27.9 29.75 -26.0 M8.35 -28.8 Q13.4 -31.95 19.85 -33.9 L17.95 -34.2 Q15.15 -34.2 10.15 -31.4 4.75 -28.4 3.75 -25.65 L3.9 -25.2 Q4.6 -26.45 8.35 -28.8 M11.85 -24.3 L8.45 -23.65 Q5.9 -22.95 3.8 -21.85 L3.35 -21.55 4.55 -21.25 9.05 -22.5 Q12.8 -23.65 13.1 -23.9 12.85 -24.3 11.85 -24.3 M9.0 -4.0 L1.45 -5.4 0.6 -5.75 0.5 -5.25 Q2.4 -3.2 4.35 -2.75 6.45 -2.25 8.8 -3.5 L9.0 -4.0 M-15.6 8.4 L-13.65 12.5 -13.15 12.55 -13.75 10.1 -15.75 4.75 Q-16.25 5.65 -16.25 6.5 L-15.6 8.4" fill="#ffffff" fill-rule="evenodd" stroke="none"/>
    <path d="M29.75 -26.0 Q27.15 -27.9 22.55 -28.15 L15.0 -28.75 Q19.3 -31.3 22.65 -31.85 L34.35 -33.5 Q28.9 -36.65 26.75 -37.15 L18.1 -38.2 11.15 -38.95 11.15 -39.15 Q7.5 -38.6 0.15 -32.4 -5.1 -28.0 -9.55 -23.25 -6.55 -25.2 -2.6 -27.0 1.9 -29.1 3.5 -29.0 3.6 -29.65 3.6 -28.65 L2.95 -27.95 0.05 -25.05 -3.55 -20.95 Q-5.05 -19.15 -6.15 -17.05 L0.95 -17.05 4.4 -18.05 14.5 -19.5 14.75 -19.0 -1.3 -14.1 Q-3.15 -13.45 -8.05 -10.0 -5.05 -7.65 -3.75 -7.0 -4.1 -6.65 -5.15 -6.35 L-6.95 -6.05 -9.8 -6.25 Q-8.3 -3.0 -2.85 2.3 2.15 7.1 2.15 7.6 L2.0 8.3 1.4 8.25 2.45 9.55 2.3 10.2 2.0 10.15 -1.5 6.75 -6.0 2.0 Q-7.35 0.45 -13.15 -2.8 L-13.95 0.55 Q-14.7 3.2 -15.0 3.6 -15.9 2.7 -16.4 1.6 -17.05 3.25 -17.65 3.7 -17.9 4.3 -17.9 8.8 -17.9 16.6 -16.95 19.25 L-14.7 23.9 -14.7 23.25 -14.65 20.4 Q-14.55 18.1 -13.75 17.25 L-11.05 19.35 -8.15 21.65 -8.0 21.5 Q-8.0 19.05 -9.35 15.15 -10.75 11.3 -10.75 9.4 -10.75 7.9 -10.25 7.4 -8.95 8.75 -7.65 11.35 L-5.85 14.8 Q-5.05 16.0 0.3 19.65 5.85 23.4 7.2 23.4 L12.6 22.9 9.25 20.15 Q5.7 17.05 3.35 14.25 L4.25 13.85 8.7 15.05 Q13.1 16.25 13.85 16.25 8.85 12.35 8.6 11.55 9.75 10.6 16.0 9.35 L15.9 9.25 8.85 5.6 9.85 4.75 17.75 3.15 Q24.6 1.65 27.15 -0.25 L21.5 -0.75 16.8 -0.05 13.5 0.65 12.65 0.5 12.5 0.0 Q13.3 -0.8 16.0 -2.25 19.7 -4.2 24.75 -6.0 L23.9 -6.3 Q23.4 -6.45 23.4 -6.55 L16.35 -6.7 Q12.7 -6.8 12.1 -8.05 12.65 -8.45 16.45 -9.5 L22.65 -11.25 22.5 -11.25 20.05 -11.4 Q18.45 -11.65 17.1 -12.75 L17.15 -12.75 18.6 -13.35 Q20.8 -14.25 27.35 -18.25 L26.75 -18.7 26.65 -18.85 19.85 -19.55 20.4 -20.4 Q21.45 -21.45 29.75 -26.0 M34.5 -25.3 L30.95 -24.05 Q28.6 -23.2 28.1 -22.8 28.95 -21.75 30.7 -20.65 L30.9 -20.55 28.85 -18.35 24.15 -13.9 Q24.5 -12.95 25.1 -12.7 L27.1 -11.9 26.05 -11.05 Q25.65 -10.8 25.4 -10.1 28.25 -7.3 28.65 -5.55 L26.8 -5.2 Q26.15 -5.15 25.65 -4.25 L26.5 -3.25 30.25 0.85 Q28.5 3.5 26.5 4.75 L22.85 5.65 Q19.85 6.3 18.75 7.55 19.55 8.2 21.0 8.75 L15.5 13.55 16.35 15.0 Q17.15 16.4 17.15 17.0 L16.3 18.05 13.65 20.15 15.6 23.25 Q15.6 24.65 13.1 25.4 L9.55 25.95 Q7.75 25.95 3.8 24.15 0.3 22.6 -3.5 20.35 -4.25 20.5 -4.3 21.35 L-2.65 23.15 -0.1 25.35 1.15 26.25 Q-4.1 26.0 -6.5 25.1 -8.85 23.85 -11.35 23.1 -12.25 23.2 -12.3 24.15 -12.1 25.0 -11.1 25.9 L-10.25 26.5 -15.95 25.9 Q-20.0 24.85 -20.0 20.35 -20.0 6.0 -16.55 -1.9 L-16.65 -2.25 Q-16.35 -1.4 -15.5 -0.5 L-14.0 -5.4 Q-12.9 -8.05 -7.75 -13.5 -8.2 -13.9 -9.3 -14.1 L-10.8 -14.3 -9.1 -17.9 Q-7.8 -20.55 -7.8 -21.25 L-8.0 -21.5 Q-14.6 -20.95 -16.5 -18.0 -16.5 -17.3 -19.55 -15.15 L-23.8 -12.2 -23.4 -14.2 Q-22.75 -14.65 -21.5 -21.85 -20.3 -29.0 -11.6 -37.9 -2.95 -46.85 10.5 -45.25 9.75 -44.25 7.15 -43.75 3.2 -43.0 0.0 -41.6 -0.95 -41.2 -7.4 -36.35 -10.2 -33.9 -11.9 -30.1 -13.15 -27.4 -13.15 -26.25 -13.35 -26.0 -12.35 -26.0 -9.6 -30.05 -5.0 -34.15 4.25 -42.3 16.4 -42.3 25.75 -42.3 32.05 -38.5 37.5 -35.25 37.95 -31.4 37.65 -30.65 36.2 -30.35 34.6 -30.05 30.95 -30.25 L30.8 -30.1 Q30.65 -30.0 30.65 -29.4 30.65 -29.05 31.15 -28.45 L34.5 -25.3 M8.35 -28.8 Q4.6 -26.45 3.9 -25.2 L3.75 -25.65 Q4.75 -28.4 10.15 -31.4 15.15 -34.2 17.95 -34.2 L19.85 -33.9 Q13.4 -31.95 8.35 -28.8 M-15.6 8.4 L-16.25 6.5 Q-16.25 5.65 -15.75 4.75 L-13.75 10.1 -13.15 12.55 -13.65 12.5 -15.6 8.4 M9.0 -4.0 L8.8 -3.5 Q6.45 -2.25 4.35 -2.75 2.4 -3.2 0.5 -5.25 L0.6 -5.75 1.45 -5.4 9.0 -4.0 M11.85 -24.3 Q12.85 -24.3 13.1 -23.9 12.8 -23.65 9.05 -22.5 L4.55 -21.25 3.35 -21.55 3.8 -21.85 Q5.9 -22.95 8.45 -23.65 L11.85 -24.3" fill="#ebe8e0" fill-rule="evenodd" stroke="none"/>
    <path d="M34.5 -25.3 L31.15 -28.45 Q30.65 -29.05 30.65 -29.4 30.65 -30.0 30.8 -30.1 L30.95 -30.25 Q34.6 -30.05 36.2 -30.35 37.65 -30.65 37.95 -31.4 37.5 -35.25 32.05 -38.5 25.75 -42.3 16.4 -42.3 4.25 -42.3 -5.0 -34.15 -9.6 -30.05 -12.35 -26.0 -13.35 -26.0 -13.15 -26.25 -13.15 -27.4 -11.9 -30.1 -10.2 -33.9 -7.4 -36.35 -0.95 -41.2 0.0 -41.6 3.2 -43.0 7.15 -43.75 9.75 -44.25 10.5 -45.25 -2.95 -46.85 -11.6 -37.9 -20.3 -29.0 -21.5 -21.85 -22.75 -14.65 -23.4 -14.2 L-23.8 -12.2 -19.55 -15.15 Q-16.5 -17.3 -16.5 -18.0 -14.6 -20.95 -8.0 -21.5 L-7.8 -21.25 Q-7.8 -20.55 -9.1 -17.9 L-10.8 -14.3 -9.3 -14.1 Q-8.2 -13.9 -7.75 -13.5 -12.9 -8.05 -14.0 -5.4 L-15.5 -0.5 Q-16.35 -1.4 -16.65 -2.25 L-16.55 -1.9 Q-20.0 6.0 -20.0 20.35 -20.0 24.85 -15.95 25.9 L-10.25 26.5 -11.1 25.9 Q-12.1 25.0 -12.3 24.15 -12.25 23.2 -11.35 23.1 -8.85 23.85 -6.5 25.1 -4.1 26.0 1.15 26.25 L-0.1 25.35 -2.65 23.15 -4.3 21.35 Q-4.25 20.5 -3.5 20.35 0.3 22.6 3.8 24.15 7.75 25.95 9.55 25.95 L13.1 25.4 Q15.6 24.65 15.6 23.25 L13.65 20.15 16.3 18.05 17.15 17.0 Q17.15 16.4 16.35 15.0 L15.5 13.55 21.0 8.75 Q19.55 8.2 18.75 7.55 19.85 6.3 22.85 5.65 L26.5 4.75 Q28.5 3.5 30.25 0.85 L26.5 -3.25 25.65 -4.25 Q26.15 -5.15 26.8 -5.2 L28.65 -5.55 Q28.25 -7.3 25.4 -10.1 25.65 -10.8 26.05 -11.05 L27.1 -11.9 25.1 -12.7 Q24.5 -12.95 24.15 -13.9 L28.85 -18.35 30.9 -20.55 30.7 -20.65 Q28.95 -21.75 28.1 -22.8 28.6 -23.2 30.95 -24.05 L34.5 -25.3 M-13.5 28.0 L-17.0 28.05 Q-19.95 28.15 -21.4 26.9 -22.85 25.6 -23.95 23.6 L-25.25 20.85 -29.5 12.35 Q-32.25 5.05 -32.25 -4.6 -32.25 -26.1 -15.15 -37.8 -2.05 -46.75 13.4 -46.75 24.75 -46.75 33.75 -42.35 42.5 -38.05 42.5 -33.0 42.5 -30.55 41.9 -28.55 L41.25 -26.7 41.3 -26.05 41.3 -26.2 41.65 -26.2 Q40.1 -22.85 34.25 -18.8 29.65 -15.55 29.65 -10.5 29.65 -10.1 30.8 -3.95 L31.95 2.8 31.0 4.6 29.95 4.85 Q22.65 6.9 21.75 7.75 L20.3 11.35 Q18.8 14.55 18.65 16.75 L18.45 23.35 Q18.35 24.0 17.55 24.65 15.25 26.45 9.45 27.5 0.7 29.0 -13.5 28.0" fill="#cbc8c0" fill-rule="evenodd" stroke="none"/>
    <path d="M-13.5 28.0 L-13.0 28.5 -13.75 29.15 -20.25 29.15 Q-26.5 24.5 -30.2 14.9 -33.75 5.7 -33.75 -4.65 -33.75 -21.5 -21.8 -34.6 -9.15 -48.45 9.0 -48.4 L13.5 -48.5 Q21.15 -48.5 30.9 -45.35 44.65 -40.95 44.65 -33.3 44.65 -28.85 43.5 -27.4 L41.65 -26.2 41.3 -26.2 41.3 -26.05 41.25 -26.7 41.9 -28.55 Q42.5 -30.55 42.5 -33.0 42.5 -38.05 33.75 -42.35 24.75 -46.75 13.4 -46.75 -2.05 -46.75 -15.15 -37.8 -32.25 -26.1 -32.25 -4.6 -32.25 5.05 -29.5 12.35 L-25.25 20.85 -23.95 23.6 Q-22.85 25.6 -21.4 26.9 -19.95 28.15 -17.0 28.05 L-13.5 28.0" fill="#97877d" fill-rule="evenodd" stroke="none"/>
    <path d="M38.6 -28.35 Q37.25 -27.2 35.75 -25.35 30.6 -19.15 30.0 -10.7 29.6 -10.7 29.5 -0.25 29.65 4.95 30.1 10.05 31.75 8.85 32.05 7.8 32.6 6.1 32.35 0.1 32.1 -6.3 36.0 -17.85 36.15 -20.75 37.4 -23.7 38.6 -26.7 38.6 -28.35 M28.5 -16.7 L27.7 -13.5 Q27.1 -10.7 27.35 -11.1 L25.0 6.2 23.75 14.9 Q23.35 16.3 22.25 18.0 L19.75 17.7 Q21.9 13.75 23.3 6.95 24.5 1.25 24.4 -1.7 L24.75 -10.95 Q24.5 -10.95 24.35 -10.65 24.2 -10.35 24.2 -9.95 L23.75 -6.8 23.45 -5.95 22.55 -5.0 21.35 -5.15 21.2 -9.2 Q21.2 -13.05 21.95 -14.45 22.55 -15.5 23.95 -15.5 24.7 -15.5 25.4 -16.15 L27.75 -19.1 Q28.55 -17.9 28.5 -16.7 M31.55 46.7 Q30.95 45.75 32.1 40.35 32.9 36.6 32.9 32.95 32.9 31.6 30.5 19.65 28.15 7.7 28.15 -1.85 28.15 -17.75 38.3 -28.5 L41.9 -28.55 Q41.35 -25.15 37.8 -15.15 34.75 -6.7 34.75 -0.45 34.75 2.05 36.55 10.8 38.45 19.8 39.75 23.05 36.1 19.2 35.2 16.75 34.55 15.0 32.95 5.95 L32.85 8.55 Q32.85 16.25 34.6 22.45 L35.35 25.25 35.7 33.7 Q34.0 43.1 31.55 46.7" fill="#ebe8e0" fill-rule="evenodd" stroke="none"/>
    <path d="M28.5 -16.7 Q30.4 -24.1 34.35 -28.5 L38.3 -28.5 Q28.15 -17.75 28.15 -1.85 28.15 7.7 30.5 19.65 32.9 31.6 32.9 32.95 32.9 36.6 32.1 40.35 30.95 45.75 31.55 46.7 28.85 50.65 23.95 53.35 30.55 46.25 30.55 33.55 30.55 28.0 29.0 13.4 27.45 -1.75 27.35 -6.65 L26.65 -0.3 26.3 4.65 Q26.3 12.45 26.75 16.65 26.65 17.35 25.65 17.5 L22.25 18.0 Q23.35 16.3 23.75 14.9 L25.0 6.2 27.35 -11.1 Q27.1 -10.7 27.7 -13.5 L28.5 -16.7 M41.9 -28.55 Q42.8 -25.05 42.55 -21.55 37.35 -11.5 36.85 2.0 36.85 4.05 38.85 14.2 L40.9 24.35 40.85 27.05 Q40.1 25.25 38.1 23.45 36.25 21.8 35.5 21.8 L34.8 21.95 34.6 22.45 Q32.85 16.25 32.85 8.55 L32.95 5.95 Q34.55 15.0 35.2 16.75 36.1 19.2 39.75 23.05 38.45 19.8 36.55 10.8 34.75 2.05 34.75 -0.45 34.75 -6.7 37.8 -15.15 41.35 -25.15 41.9 -28.55 M24.2 -9.95 L24.75 -10.95 24.4 -1.7 Q24.0 -1.85 23.75 -6.8 L24.2 -9.95" fill="#cbc8c0" fill-rule="evenodd" stroke="none"/>
    <path d="M38.6 -28.35 Q38.6 -26.7 37.4 -23.7 36.15 -20.75 36.0 -17.85 32.1 -6.3 32.35 0.1 32.6 6.1 32.05 7.8 31.75 8.85 30.1 10.05 29.65 4.95 29.5 -0.25 29.6 -10.7 30.0 -10.7 30.6 -19.15 35.75 -25.35 37.25 -27.2 38.6 -28.35" fill="#ffffff" fill-rule="evenodd" stroke="none"/>
    <path d="M22.25 18.0 L25.65 17.5 Q26.65 17.35 26.75 16.65 26.3 12.45 26.3 4.65 L26.65 -0.3 27.35 -6.65 Q27.45 -1.75 29.0 13.4 30.55 28.0 30.55 33.55 30.55 46.25 23.95 53.35 28.85 50.65 31.55 46.7 34.0 43.1 35.7 33.7 L35.35 25.25 34.6 22.45 34.8 21.95 35.5 21.8 Q36.25 21.8 38.1 23.45 40.1 25.25 40.85 27.05 L40.9 24.35 38.85 14.2 Q36.85 4.05 36.85 2.0 37.35 -11.5 42.55 -21.55 L38.7 -2.8 38.4 0.4 Q38.4 2.95 40.3 12.7 42.2 22.4 42.2 24.25 42.2 25.95 41.8 28.2 L41.0 31.2 36.75 24.05 37.2 31.0 Q37.2 38.5 33.45 46.4 28.85 56.2 22.0 54.95 L21.85 54.1 Q26.2 45.9 27.4 42.9 29.25 38.4 29.25 31.5 28.45 22.6 27.25 17.7 25.3 18.9 24.45 19.15 L20.2 19.4 17.9 18.85 21.1 8.1 Q24.05 -2.15 23.45 -5.95 L23.75 -6.8 Q24.0 -1.85 24.4 -1.7 24.5 1.25 23.3 6.95 21.9 13.75 19.75 17.7 L22.25 18.0" fill="#97877d" fill-rule="evenodd" stroke="none"/>
    <path d="M-13.9 -21.9 Q-10.75 -14.7 -13.5 -6.35 -18.55 8.6 -15.65 24.2 -13.6 35.35 -13.0 46.5 -12.4 58.45 -19.65 66.05 L-19.65 65.9 Q-19.95 63.15 -21.2 60.5 L-21.55 59.85 Q-23.25 70.1 -32.25 75.45 -45.05 83.1 -59.95 84.8 L-60.1 83.65 Q-50.65 77.5 -47.4 66.0 -51.25 68.0 -55.9 68.0 -58.8 68.5 -60.5 66.6 L-60.55 66.15 -58.65 64.8 Q-54.1 61.65 -51.05 56.85 L-52.25 56.35 Q-55.1 55.2 -56.75 53.0 L-57.3 51.8 Q-55.8 51.2 -54.45 50.4 -49.7 47.7 -45.55 43.8 -43.45 36.45 -42.55 29.05 -41.05 16.7 -43.45 4.7 -46.1 -8.1 -40.1 -19.2 -34.2 -30.0 -21.65 -27.15 -19.6 -26.65 -17.7 -25.75 -15.0 -24.5 -13.9 -21.9 M-50.7 50.0 Q-52.75 51.3 -54.95 52.4 L-50.2 55.55 -46.65 47.3 -50.7 50.0 M-26.3 -26.05 Q-29.9 -26.85 -32.7 -24.55 -44.85 -15.0 -42.3 0.9 -40.45 12.8 -40.55 24.7 -40.65 38.2 -45.4 50.7 -49.15 60.4 -57.7 66.25 L-54.95 65.95 -51.1 64.95 Q-48.75 64.15 -46.2 64.0 -46.1 65.25 -46.4 66.35 -49.05 75.65 -55.55 82.65 -47.05 81.05 -39.15 77.75 -33.8 75.5 -30.05 71.4 -24.6 65.5 -22.05 57.95 L-21.55 58.15 Q-19.45 59.8 -18.5 62.55 -17.6 60.35 -17.0 58.05 -13.85 46.65 -16.2 34.95 -18.6 23.1 -18.3 11.15 -18.2 6.5 -16.8 2.15 -12.9 -9.4 -15.65 -20.1 -19.95 -25.05 -26.3 -26.05" fill="#97877d" fill-rule="evenodd" stroke="none"/>
    <path d="M-22.45 -21.1 L-23.0 -19.65 Q-21.75 -19.9 -20.25 -20.65 L-17.75 -20.65 Q-17.75 -20.1 -19.1 -16.85 L-21.25 -11.5 -21.0 -11.5 Q-18.8 -12.65 -18.35 -12.65 L-17.1 -12.5 -16.45 -12.35 Q-16.25 -12.6 -16.25 -11.6 -17.75 -8.1 -19.25 -3.35 -22.25 6.2 -22.25 15.45 -22.25 20.25 -19.8 30.15 -17.35 40.05 -17.35 45.1 -17.35 47.25 -17.95 49.85 -18.7 53.2 -20.15 55.05 -20.45 51.55 -21.9 48.85 -23.1 46.6 -24.3 46.1 L-24.1 47.35 Q-24.5 60.5 -30.75 67.75 -36.8 74.8 -50.05 78.1 -46.55 71.1 -43.6 63.95 -37.7 49.8 -38.45 44.75 L-43.65 57.05 Q-46.8 63.5 -50.0 63.5 -51.0 63.5 -50.75 63.1 -45.55 58.55 -41.45 45.7 -37.85 34.4 -37.85 26.95 L-38.35 20.15 -39.45 9.45 -41.4 -7.55 Q-41.4 -14.45 -35.95 -19.85 -30.8 -24.95 -25.1 -24.95 -22.0 -24.95 -22.0 -22.85 -22.0 -22.25 -22.45 -21.1 M-29.25 -22.25 Q-29.9 -20.9 -31.65 -19.2 L-34.5 -16.0 Q-38.0 -10.95 -38.0 0.95 -38.0 5.75 -35.75 39.0 -35.75 47.3 -38.6 57.55 -41.45 67.7 -44.9 71.8 L-44.85 72.25 Q-45.25 72.4 -44.25 72.4 -41.5 72.4 -36.65 66.1 -32.1 60.2 -30.45 55.3 L-28.0 47.85 Q-27.65 46.35 -27.65 44.6 -27.65 41.3 -28.05 40.05 L-28.9 38.0 Q-30.15 33.95 -30.15 15.35 L-29.85 9.75 -29.5 9.75 Q-30.15 17.25 -26.85 27.8 -23.7 37.85 -20.15 41.25 L-22.5 30.55 Q-24.8 18.9 -24.8 10.65 L-22.95 2.65 Q-21.15 -4.95 -21.15 -6.85 L-21.1 -7.1 -21.75 -7.25 -22.8 -6.95 -23.8 -6.25 -22.6 -13.1 -21.9 -17.7 -21.85 -17.85 -22.6 -18.0 Q-23.45 -18.0 -29.05 -13.5 L-28.9 -18.65 -28.65 -21.05 Q-28.65 -21.55 -29.0 -21.15 -29.4 -20.8 -29.4 -21.3 L-29.15 -21.95 Q-29.05 -22.0 -29.25 -22.25" fill="#ebe8e0" fill-rule="evenodd" stroke="none"/>
    <path d="M-22.45 -21.1 Q-22.0 -22.25 -22.0 -22.85 -22.0 -24.95 -25.1 -24.95 -30.8 -24.95 -35.95 -19.85 -41.4 -14.45 -41.4 -7.55 L-39.45 9.45 -38.35 20.15 -37.85 26.95 Q-37.85 34.4 -41.45 45.7 -45.55 58.55 -50.75 63.1 -51.0 63.5 -50.0 63.5 -46.8 63.5 -43.65 57.05 L-38.45 44.75 Q-37.7 49.8 -43.6 63.95 -46.55 71.1 -50.05 78.1 -36.8 74.8 -30.75 67.75 -24.5 60.5 -24.1 47.35 L-24.3 46.1 Q-23.1 46.6 -21.9 48.85 -20.45 51.55 -20.15 55.05 -18.7 53.2 -17.95 49.85 -17.35 47.25 -17.35 45.1 -17.35 40.05 -19.8 30.15 -22.25 20.25 -22.25 15.45 -22.25 6.2 -19.25 -3.35 -17.75 -8.1 -16.25 -11.6 -16.25 -12.6 -16.45 -12.35 L-17.1 -12.5 -18.35 -12.65 Q-18.8 -12.65 -21.0 -11.5 L-21.25 -11.5 -19.1 -16.85 Q-17.75 -20.1 -17.75 -20.65 L-20.25 -20.65 Q-21.75 -19.9 -23.0 -19.65 L-22.45 -21.1 M-26.3 -26.05 Q-19.95 -25.05 -15.65 -20.1 -12.9 -9.4 -16.8 2.15 -18.2 6.5 -18.3 11.15 -18.6 23.1 -16.2 34.95 -13.85 46.65 -17.0 58.05 -17.6 60.35 -18.5 62.55 -19.45 59.8 -21.55 58.15 L-22.05 57.95 Q-24.6 65.5 -30.05 71.4 -33.8 75.5 -39.15 77.75 -47.05 81.05 -55.55 82.65 -49.05 75.65 -46.4 66.35 -46.1 65.25 -46.2 64.0 -48.75 64.15 -51.1 64.95 L-54.95 65.95 -57.7 66.25 Q-49.15 60.4 -45.4 50.7 -40.65 38.2 -40.55 24.7 -40.45 12.8 -42.3 0.9 -44.85 -15.0 -32.7 -24.55 -29.9 -26.85 -26.3 -26.05 M-50.7 50.0 L-46.65 47.3 -50.2 55.55 -54.95 52.4 Q-52.75 51.3 -50.7 50.0" fill="#cbc8c0" fill-rule="evenodd" stroke="none"/>
    <path d="M-29.25 -22.25 Q-29.05 -22.0 -29.15 -21.95 L-29.4 -21.3 Q-29.4 -20.8 -29.0 -21.15 -28.65 -21.55 -28.65 -21.05 L-28.9 -18.65 -29.05 -13.5 Q-23.45 -18.0 -22.6 -18.0 L-21.85 -17.85 -21.9 -17.7 -22.6 -13.1 -23.8 -6.25 -22.8 -6.95 -21.75 -7.25 -21.1 -7.1 -21.15 -6.85 Q-21.15 -4.95 -22.95 2.65 L-24.8 10.65 Q-24.8 18.9 -22.5 30.55 L-20.15 41.25 Q-23.7 37.85 -26.85 27.8 -30.15 17.25 -29.5 9.75 L-29.85 9.75 -30.15 15.35 Q-30.15 33.95 -28.9 38.0 L-28.05 40.05 Q-27.65 41.3 -27.65 44.6 -27.65 46.35 -28.0 47.85 L-30.45 55.3 Q-32.1 60.2 -36.65 66.1 -41.5 72.4 -44.25 72.4 -45.25 72.4 -44.85 72.25 L-44.9 71.8 Q-41.45 67.7 -38.6 57.55 -35.75 47.3 -35.75 39.0 -38.0 5.75 -38.0 0.95 -38.0 -10.95 -34.5 -16.0 L-31.65 -19.2 Q-29.9 -20.9 -29.25 -22.25" fill="#ffffff" fill-rule="evenodd" stroke="none"/>
  </g>
</svg>
