<?xml version="1.0" encoding="UTF-8" standalone="no"?>
<svg xmlns:ffdec="https://www.free-decompiler.com/flash" xmlns:xlink="http://www.w3.org/1999/xlink" ffdec:objectType="shape" height="19.0px" width="14.6px" xmlns="http://www.w3.org/2000/svg">
  <g transform="matrix(1.0, 0.0, 0.0, 1.0, -1.3, -2.05)">
    <path d="M12.1 3.55 L10.4 4.7 Q8.2 7.95 7.4 14.45 6.75 19.5 5.25 19.5 4.3 19.5 3.6 18.25 2.85 16.95 2.85 15.05 2.85 12.3 4.8 8.45 7.55 3.0 12.1 3.55" fill="#a47328" fill-rule="evenodd" stroke="none"/>
    <path d="M12.1 3.55 Q7.55 3.0 4.8 8.45 2.85 12.3 2.85 15.05 2.85 16.95 3.6 18.25 4.3 19.5 5.25 19.5 6.75 19.5 7.4 14.45 8.2 7.95 10.4 4.7 L12.1 3.55 M12.7 4.7 Q10.15 5.8 9.6 10.3 L8.4 18.3 Q7.55 21.05 5.2 21.05 3.45 21.05 2.3 19.15 1.3 17.45 1.3 15.15 1.3 10.5 4.7 6.3 8.15 2.05 11.95 2.05 14.2 2.05 15.9 4.05 14.05 4.1 12.7 4.7" fill="#37261c" fill-rule="evenodd" stroke="none"/>
  </g>
</svg>
