<?xml version="1.0" encoding="UTF-8" standalone="no"?>
<svg xmlns:ffdec="https://www.free-decompiler.com/flash" xmlns:xlink="http://www.w3.org/1999/xlink" ffdec:objectType="shape" height="106.85px" width="62.55px" xmlns="http://www.w3.org/2000/svg">
  <g transform="matrix(1.0, 0.0, 0.0, 1.0, -1.25, -2.15)">
    <path d="M33.35 97.35 L33.0 96.0 33.5 93.35 33.35 97.35" fill="#e9b596" fill-rule="evenodd" stroke="none"/>
    <path d="M39.85 53.5 L41.25 53.25 41.0 53.45 39.85 53.5" fill="#d79f7e" fill-rule="evenodd" stroke="none"/>
    <path d="M41.5 6.55 L41.8 3.35 Q44.5 0.4 48.75 4.8 53.0 9.15 51.9 11.4 56.5 15.5 59.95 19.85 63.4 24.3 63.8 26.7 L60.45 27.0 56.45 26.95 Q53.15 26.8 53.15 26.15 52.8 26.35 51.85 26.15 49.9 25.75 47.1 22.55 L44.75 20.4 Q43.25 18.85 42.8 16.9 L42.0 12.2 Q41.5 8.4 41.5 6.55 M43.0 6.35 Q43.2 10.25 43.7 14.85 L44.7 17.6 47.3 20.45 Q47.95 21.2 49.95 22.65 52.25 24.3 53.5 24.7 L54.9 25.0 58.05 25.4 60.8 25.5 Q58.05 18.45 53.85 15.55 50.6 13.3 47.9 14.15 L47.3 13.4 48.55 10.0 Q49.0 8.05 47.25 5.8 45.45 3.5 43.25 3.55 L43.0 6.35 M47.5 48.65 L48.15 46.85 48.5 44.95 Q48.5 43.0 47.2 41.5 45.2 39.25 40.75 39.25 36.15 40.65 35.0 41.8 L33.95 43.95 33.05 46.15 32.9 47.2 32.8 48.3 Q32.8 50.0 33.35 51.1 34.35 52.1 36.45 52.85 38.45 53.6 39.85 53.5 L41.0 53.45 Q43.1 53.25 44.6 52.15 46.0 51.1 47.5 48.65 M50.0 45.35 Q50.0 50.5 45.85 53.1 42.85 55.0 39.1 55.0 31.3 55.0 31.3 48.2 31.3 44.8 33.05 41.9 35.55 37.75 40.65 37.75 45.3 37.75 47.75 39.95 50.0 41.95 50.0 45.35 M30.95 17.2 Q37.0 17.2 37.0 25.0 37.0 28.5 35.0 29.95 33.55 31.0 30.75 31.0 27.35 31.0 26.0 29.45 25.0 28.3 25.0 25.95 25.0 22.85 25.95 20.65 27.45 17.2 30.95 17.2 M26.65 27.55 L28.15 28.9 Q29.15 29.5 30.75 29.5 33.95 29.5 35.0 27.5 35.5 26.55 35.5 24.9 35.5 21.6 34.1 20.0 32.95 18.7 31.0 18.7 29.75 18.7 28.6 19.8 27.5 20.8 26.8 22.45 26.5 24.2 26.5 25.95 26.5 27.2 26.65 27.55 M18.7 11.05 Q18.95 11.6 19.5 11.6 20.6 11.6 21.15 18.2 21.7 24.95 20.35 26.7 16.95 31.15 14.05 33.4 L11.8 34.85 12.3 37.45 12.8 40.0 Q12.8 42.05 12.1 43.25 11.25 44.75 9.9 45.35 L8.75 46.05 Q8.75 47.0 2.6 47.0 2.25 47.0 1.75 45.55 1.25 44.05 1.25 43.15 1.25 31.5 2.05 28.25 2.7 25.55 4.5 23.7 L10.2 16.25 Q14.15 10.65 18.05 9.85 L18.7 11.05 M19.9 19.0 L19.4 15.4 18.2 12.35 Q14.2 14.65 8.85 22.95 6.15 27.2 4.9 30.0 L3.95 30.0 3.95 32.65 3.8 33.8 Q3.8 38.95 5.45 41.3 6.35 42.65 8.2 44.65 L9.5 43.95 Q10.4 42.75 10.9 41.0 11.5 38.9 10.9 37.65 L10.4 35.0 Q11.15 33.2 13.25 31.25 L16.95 28.05 Q21.35 23.95 19.9 19.0 M14.4 44.75 Q16.7 42.35 20.3 42.35 22.5 42.35 23.55 43.65 24.5 44.8 24.5 46.7 24.5 53.0 17.75 53.0 12.5 53.0 12.5 48.9 12.5 46.75 14.4 44.75 M14.8 46.4 Q14.0 47.75 14.0 48.9 14.0 49.95 14.25 50.3 15.15 51.5 18.25 51.5 L20.1 51.15 21.65 50.5 Q22.5 49.7 22.85 48.55 L23.0 46.9 22.9 45.9 Q22.9 45.05 22.15 44.45 21.4 43.85 20.3 43.85 L18.75 44.1 Q16.25 45.05 14.8 46.4 M22.5 65.55 Q24.0 68.65 24.5 71.8 L24.65 74.3 Q24.65 76.05 24.0 76.05 L22.4 78.25 Q20.55 80.45 18.85 80.45 14.1 62.8 13.25 61.45 13.15 63.0 12.25 60.15 L12.8 59.7 12.85 59.55 14.45 59.45 Q19.5 59.45 22.5 65.55 M20.4 64.05 L18.15 64.05 18.15 65.8 20.4 65.8 20.4 64.05 M21.1 75.4 L21.2 77.8 Q21.9 76.8 22.55 74.2 23.3 71.15 22.7 69.65 L22.4 68.9 Q22.05 69.3 21.55 70.65 21.0 72.05 21.0 72.65 L21.0 72.7 18.5 72.7 18.5 75.4 21.1 75.4 M42.5 67.2 Q39.45 68.1 37.95 71.2 37.0 73.2 37.0 74.8 37.0 76.85 38.5 78.85 40.0 80.9 40.0 81.55 40.0 82.25 38.35 84.95 35.3 90.0 33.5 93.3 L33.5 93.35 33.0 96.0 33.35 97.35 Q34.1 100.35 35.85 102.7 37.75 105.25 40.4 106.3 L43.15 106.95 45.85 107.5 46.5 104.95 46.85 102.45 Q46.85 100.9 45.95 98.3 L45.15 96.65 45.1 100.05 44.4 100.05 44.4 102.55 45.05 102.55 44.85 105.5 44.1 105.8 Q42.75 103.9 42.75 94.6 42.75 93.65 44.4 85.0 L46.7 85.0 46.7 81.85 44.45 81.85 44.4 81.45 44.15 78.4 44.85 76.65 Q45.7 74.3 46.45 70.3 L45.35 65.9 42.5 67.2 M38.0 80.35 Q37.45 79.85 37.45 79.35 35.5 75.45 35.5 74.8 35.5 69.8 41.2 66.25 46.35 63.05 52.2 63.0 51.85 63.5 51.45 65.3 L50.8 67.35 Q49.35 69.2 48.5 72.9 47.6 76.6 47.45 77.95 47.3 79.3 47.5 82.25 L47.55 86.1 46.55 94.5 47.3 98.15 48.05 102.25 47.75 105.45 47.1 109.0 Q39.4 109.05 34.85 103.55 31.5 99.5 31.5 96.0 L31.45 94.05 Q31.45 92.8 32.1 92.8 L33.55 89.8 Q35.0 86.8 35.3 86.8 35.8 86.8 35.55 86.45 35.3 86.1 35.8 86.1 36.5 86.1 38.5 81.35 L38.0 80.35" fill="#9d8c4a" fill-rule="evenodd" stroke="none"/>
    <path d="M46.5 10.05 L47.9 10.05 47.9 8.3 45.45 8.3 Q44.35 7.05 43.0 6.35 L43.25 3.55 Q45.45 3.5 47.25 5.8 49.0 8.05 48.55 10.0 L47.3 13.4 47.9 14.15 Q50.6 13.3 53.85 15.55 58.05 18.45 60.8 25.5 L58.05 25.4 Q57.65 22.4 54.05 18.8 L51.95 16.85 51.95 14.85 49.35 14.85 49.35 15.7 Q47.0 16.0 44.7 17.6 L43.7 14.85 46.55 10.35 46.5 10.05 M19.4 15.4 Q15.5 19.5 14.55 21.3 13.8 22.8 11.3 25.15 9.0 27.3 7.5 31.8 L7.1 33.05 7.1 30.0 4.9 30.0 Q6.15 27.2 8.85 22.95 14.2 14.65 18.2 12.35 L19.4 15.4 M7.1 33.1 Q6.6 34.65 6.4 36.0 L9.5 43.95 8.2 44.65 Q6.35 42.65 5.45 41.3 3.8 38.95 3.8 33.8 L3.95 32.65 3.95 33.1 7.1 33.1 M12.1 19.1 L12.1 21.25 14.2 21.25 14.2 19.1 12.1 19.1 M21.0 72.7 L21.0 72.65 Q21.0 72.05 21.55 70.65 22.05 69.3 22.4 68.9 L22.7 69.65 Q23.3 71.15 22.55 74.2 21.9 76.8 21.2 77.8 L21.1 75.4 21.3 75.4 21.3 72.7 21.0 72.7 M42.5 67.2 L45.35 65.9 46.45 70.3 Q45.7 74.3 44.85 76.65 L44.15 78.4 44.4 81.45 44.45 81.85 43.6 81.85 43.6 85.0 44.4 85.0 Q42.75 93.65 42.75 94.6 42.75 103.9 44.1 105.8 L44.85 105.5 45.05 102.55 46.15 102.55 46.15 100.05 45.1 100.05 45.15 96.65 45.95 98.3 Q46.85 100.9 46.85 102.45 L46.5 104.95 45.85 107.5 43.15 106.95 40.4 106.3 41.35 103.4 41.8 101.4 40.9 99.4 Q40.0 97.05 40.0 94.8 40.0 90.65 40.95 81.65 L41.65 75.4 41.65 75.8 43.65 75.8 43.65 72.8 42.0 72.8 42.8 67.25 42.5 67.2" fill="#c2b57e" fill-rule="evenodd" stroke="none"/>
    <path d="M45.45 8.3 L45.4 8.3 45.4 10.05 46.5 10.05 46.55 10.35 43.7 14.85 Q43.2 10.25 43.0 6.35 44.35 7.05 45.45 8.3 M51.95 16.85 L54.05 18.8 Q57.65 22.4 58.05 25.4 L54.9 25.0 53.5 24.7 Q52.8 18.85 47.3 20.45 L44.7 17.6 Q47.0 16.0 49.35 15.7 L49.35 17.5 51.95 17.5 51.95 16.85 M47.5 48.65 Q47.4 48.25 47.6 47.15 L47.8 45.45 Q47.8 43.45 41.8 42.35 L40.9 42.2 40.9 41.05 39.15 41.05 39.15 41.95 35.0 41.8 Q36.15 40.65 40.75 39.25 45.2 39.25 47.2 41.5 48.5 43.0 48.5 44.95 L48.15 46.85 47.5 48.65 M19.4 15.4 L19.9 19.0 Q18.5 20.65 17.1 24.0 15.8 27.15 15.15 27.75 10.1 32.7 10.1 35.8 L10.3 36.75 10.9 37.65 Q11.5 38.9 10.9 41.0 10.4 42.75 9.5 43.95 L6.4 36.0 Q6.6 34.65 7.1 33.1 L7.1 33.05 7.5 31.8 Q9.0 27.3 11.3 25.15 13.8 22.8 14.55 21.3 15.5 19.5 19.4 15.4 M21.65 50.5 L20.1 51.15 18.25 51.5 Q15.15 51.5 14.25 50.3 14.0 49.95 14.0 48.9 14.0 47.75 14.8 46.4 15.4 47.85 16.15 48.6 L16.15 49.05 16.75 49.05 17.05 49.15 17.7 49.05 18.15 49.05 18.15 48.85 18.35 48.7 Q19.3 48.0 19.3 46.4 19.3 45.25 18.75 44.1 L20.3 43.85 20.05 45.3 19.8 47.0 20.35 48.4 21.65 50.5 M33.5 93.35 L33.5 93.3 Q35.3 90.0 38.35 84.95 40.0 82.25 40.0 81.55 40.0 80.9 38.5 78.85 37.0 76.85 37.0 74.8 37.0 73.2 37.95 71.2 39.45 68.1 42.5 67.2 L42.8 67.25 42.0 72.8 41.65 72.8 41.65 75.4 40.95 81.65 Q40.0 90.65 40.0 94.8 40.0 97.05 40.9 99.4 L41.8 101.4 41.35 103.4 40.4 106.3 Q37.75 105.25 35.85 102.7 34.1 100.35 33.35 97.35 L33.5 93.35 M38.1 95.85 L38.1 93.5 35.7 93.5 35.7 95.85 38.1 95.85" fill="#e7deb2" fill-rule="evenodd" stroke="none"/>
    <path d="M53.5 24.7 Q52.25 24.3 49.95 22.65 47.95 21.2 47.3 20.45 52.8 18.85 53.5 24.7 M40.9 42.2 L41.8 42.35 Q47.8 43.45 47.8 45.45 L47.6 47.15 Q47.4 48.25 47.5 48.65 46.0 51.1 44.6 52.15 43.1 53.25 41.0 53.45 L41.25 53.25 39.85 53.5 Q38.45 53.6 36.45 52.85 34.35 52.1 33.35 51.1 37.1 51.05 39.4 50.3 41.7 49.5 41.5 48.45 41.3 47.4 38.75 46.75 L33.05 46.15 33.95 43.95 35.0 41.8 39.15 41.95 39.15 43.3 40.9 43.3 40.9 42.2 M44.4 48.05 L47.15 48.05 47.15 46.05 44.4 46.05 44.4 48.05 M31.1 26.3 Q33.35 25.15 33.35 23.2 33.35 21.1 31.2 21.1 27.75 22.0 26.8 22.45 27.5 20.8 28.6 19.8 29.75 18.7 31.0 18.7 32.95 18.7 34.1 20.0 35.5 21.6 35.5 24.9 35.5 26.55 35.0 27.5 33.95 29.5 30.75 29.5 29.15 29.5 28.15 28.9 L26.65 27.55 Q29.4 27.15 31.0 26.35 L31.1 26.35 31.1 26.3 M10.9 37.65 L10.3 36.75 10.1 35.8 Q10.1 32.7 15.15 27.75 15.8 27.15 17.1 24.0 18.5 20.65 19.9 19.0 21.35 23.95 16.95 28.05 L13.25 31.25 Q11.15 33.2 10.4 35.0 L10.9 37.65 M21.65 50.5 L20.35 48.4 19.8 47.0 20.05 45.3 20.3 43.85 Q21.4 43.85 22.15 44.45 22.9 45.05 22.9 45.9 L23.0 46.9 22.85 48.55 Q22.5 49.7 21.65 50.5 M18.75 44.1 Q19.3 45.25 19.3 46.4 19.3 48.0 18.35 48.7 L18.15 48.85 18.15 47.8 16.15 47.8 16.15 48.6 Q15.4 47.85 14.8 46.4 16.25 45.05 18.75 44.1 M17.7 49.05 L17.05 49.15 16.75 49.05 17.7 49.05" fill="#f1ecd3" fill-rule="evenodd" stroke="none"/>
    <path d="M26.8 22.45 Q27.75 22.0 31.2 21.1 33.35 21.1 33.35 23.2 33.35 25.15 31.1 26.3 L31.1 24.5 29.2 24.5 29.2 26.35 31.0 26.35 Q29.4 27.15 26.65 27.55 26.5 27.2 26.5 25.95 26.5 24.2 26.8 22.45 M33.05 46.15 L38.75 46.75 Q41.3 47.4 41.5 48.45 41.7 49.5 39.4 50.3 37.1 51.05 33.35 51.1 32.8 50.0 32.8 48.3 L32.9 47.2 33.05 46.15 M39.2 47.1 L37.1 47.1 37.1 49.25 39.2 49.25 39.2 47.1" fill="#fbf9f0" fill-rule="evenodd" stroke="none"/>
    <path d="M46.5 10.05 L45.4 10.05 45.4 8.3 45.45 8.3 47.9 8.3 47.9 10.05 46.5 10.05 M49.35 15.7 L49.35 14.85 51.95 14.85 51.95 16.85 51.95 17.5 49.35 17.5 49.35 15.7 M39.15 41.95 L39.15 41.05 40.9 41.05 40.9 42.2 40.9 43.3 39.15 43.3 39.15 41.95 M44.4 48.05 L44.4 46.05 47.15 46.05 47.15 48.05 44.4 48.05 M31.1 26.3 L31.1 26.35 31.0 26.35 29.2 26.35 29.2 24.5 31.1 24.5 31.1 26.3 M7.1 33.05 L7.1 33.1 3.95 33.1 3.95 32.65 3.95 30.0 4.9 30.0 7.1 30.0 7.1 33.05 M12.1 19.1 L14.2 19.1 14.2 21.25 12.1 21.25 12.1 19.1 M18.15 48.85 L18.15 49.05 17.7 49.05 16.75 49.05 16.15 49.05 16.15 48.6 16.15 47.8 18.15 47.8 18.15 48.85 M39.2 47.1 L39.2 49.25 37.1 49.25 37.1 47.1 39.2 47.1 M20.4 64.05 L20.4 65.8 18.15 65.8 18.15 64.05 20.4 64.05 M21.0 72.7 L21.3 72.7 21.3 75.4 21.1 75.4 18.5 75.4 18.5 72.7 21.0 72.7 M44.45 81.85 L46.7 81.85 46.7 85.0 44.4 85.0 43.6 85.0 43.6 81.85 44.45 81.85 M45.05 102.55 L44.4 102.55 44.4 100.05 45.1 100.05 46.15 100.05 46.15 102.55 45.05 102.55 M38.1 95.85 L35.7 95.85 35.7 93.5 38.1 93.5 38.1 95.85 M42.0 72.8 L43.65 72.8 43.65 75.8 41.65 75.8 41.65 75.4 41.65 72.8 42.0 72.8" fill="#3e382d" fill-rule="evenodd" stroke="none"/>
  </g>
</svg>
