<?xml version="1.0" encoding="UTF-8" standalone="no"?>
<svg xmlns:ffdec="https://www.free-decompiler.com/flash" xmlns:xlink="http://www.w3.org/1999/xlink" ffdec:objectType="shape" height="39.8px" width="85.85px" xmlns="http://www.w3.org/2000/svg">
  <g transform="matrix(1.0, 0.0, 0.0, 1.0, 44.95, 6.2)">
    <path d="M-18.5 20.3 Q-18.15 25.0 -20.25 27.55 -22.15 29.9 -25.55 29.9 -27.65 29.9 -28.75 28.75 -30.1 27.3 -30.1 24.0 -30.1 23.4 -29.75 23.4 L-29.4 23.5 -27.55 24.5 -26.45 24.9 -25.5 24.7 -25.05 24.5 Q-24.9 24.3 -24.9 23.3 L-25.1 22.3 -25.8 20.65 -23.75 20.55 -23.05 21.95 -22.85 22.95 Q-22.85 26.9 -26.75 26.9 -27.75 26.9 -28.25 26.5 L-28.1 27.5 -27.3 27.85 -25.05 28.05 Q-22.8 28.05 -21.7 26.7 -20.85 25.7 -20.85 24.2 -20.85 22.85 -21.55 21.7 L-22.4 20.45 -18.5 20.3" fill="#1c150f" fill-rule="evenodd" stroke="none"/>
    <path d="M-22.4 20.45 L-21.55 21.7 Q-20.85 22.85 -20.85 24.2 -20.85 25.7 -21.7 26.7 -22.8 28.05 -25.05 28.05 L-27.3 27.85 -28.1 27.5 -28.25 26.5 Q-27.75 26.9 -26.75 26.9 -22.85 26.9 -22.85 22.95 L-23.05 21.95 -23.75 20.55 -22.4 20.45" fill="#33261c" fill-rule="evenodd" stroke="none"/>
    <path d="M-5.45 -4.25 Q2.6 -4.25 11.15 -2.25 19.1 -0.4 19.1 0.95 21.8 2.55 25.05 4.8 31.6 9.35 34.25 14.25 L32.65 13.8 30.6 13.9 37.75 22.85 37.15 23.9 34.35 22.55 31.45 21.3 30.7 21.25 Q29.9 21.3 29.9 21.9 29.9 22.35 34.25 25.9 38.7 29.5 38.9 30.3 35.85 26.2 22.3 22.2 7.0 17.7 -9.2 17.7 -19.5 17.7 -25.95 19.0 L-42.0 22.4 Q-41.35 20.3 -39.7 18.45 L-36.0 15.15 -35.2 14.2 -35.6 14.05 -36.75 13.85 Q-37.75 13.85 -39.0 14.75 -34.85 8.9 -31.65 7.7 -28.4 7.25 -26.3 6.05 -27.3 6.6 -28.75 6.45 L-30.5 6.15 -33.0 5.4 Q-30.2 1.25 -22.55 -1.45 -14.75 -4.25 -5.45 -4.25 M-4.45 1.85 L-13.6 2.05 Q-22.4 2.45 -22.75 3.4 L-17.45 3.6 -11.8 3.35 Q11.05 3.35 19.2 9.45 13.6 7.7 8.5 6.4 -1.35 3.8 -6.85 3.8 L-14.35 4.05 Q-18.35 4.6 -21.25 6.4 L-11.95 6.7 Q-2.35 6.55 5.45 8.6 10.2 9.85 18.1 12.25 L24.45 13.95 25.5 13.85 27.75 12.65 Q27.1 11.65 27.1 10.65 27.1 9.1 16.1 5.75 6.3 2.8 2.35 2.3 L4.65 1.35 7.0 0.2 Q-0.8 -2.1 -7.3 -1.6 -12.85 -1.2 -14.4 0.7 L-11.95 1.25 -8.85 1.5 -4.45 1.85 M-17.55 15.05 Q9.85 16.4 15.3 18.4 16.15 18.7 17.1 19.6 L19.95 20.05 Q23.45 20.05 23.3 17.9 L20.0 15.8 18.8 15.25 25.35 17.1 Q30.5 18.75 33.35 19.9 26.85 15.1 13.2 11.85 -2.55 8.05 -21.8 8.05 -30.45 8.05 -33.15 12.15 -34.3 13.9 -34.15 16.85 L-32.75 16.9 Q-32.15 15.65 -29.75 14.4 -24.95 11.85 -15.5 11.85 L7.15 13.35 Q2.6 13.15 -5.1 13.3 L-17.6 13.85 -17.55 15.05 M-26.75 15.0 L-20.0 15.65 Q-20.95 13.65 -23.4 13.65 L-25.35 14.1 Q-26.55 14.6 -26.75 15.0" fill="#2e4850" fill-rule="evenodd" stroke="none"/>
    <path d="M-26.75 15.0 Q-26.55 14.6 -25.35 14.1 L-23.4 13.65 Q-20.95 13.65 -20.0 15.65 L-26.75 15.0 M-17.55 15.05 L-17.6 13.85 -5.1 13.3 Q2.6 13.15 7.15 13.35 L-15.5 11.85 Q-24.95 11.85 -29.75 14.4 -32.15 15.65 -32.75 16.9 L-34.15 16.85 Q-34.3 13.9 -33.15 12.15 -30.45 8.05 -21.8 8.05 -2.55 8.05 13.2 11.85 26.85 15.1 33.35 19.9 30.5 18.75 25.35 17.1 L18.8 15.25 20.0 15.8 23.3 17.9 Q23.45 20.05 19.95 20.05 L17.1 19.6 Q16.15 18.7 15.3 18.4 9.85 16.4 -17.55 15.05 M-4.45 1.85 L-8.85 1.5 -11.95 1.25 -14.4 0.7 Q-12.85 -1.2 -7.3 -1.6 -0.8 -2.1 7.0 0.2 L4.65 1.35 2.35 2.3 Q6.3 2.8 16.1 5.75 27.1 9.1 27.1 10.65 27.1 11.65 27.75 12.65 L25.5 13.85 24.45 13.95 18.1 12.25 Q10.2 9.85 5.45 8.6 -2.35 6.55 -11.95 6.7 L-21.25 6.4 Q-18.35 4.6 -14.35 4.05 L-6.85 3.8 Q-1.35 3.8 8.5 6.4 13.6 7.7 19.2 9.45 11.05 3.35 -11.8 3.35 L-17.45 3.6 -22.75 3.4 Q-22.4 2.45 -13.6 2.05 L-4.45 1.85" fill="#416772" fill-rule="evenodd" stroke="none"/>
    <path d="M-5.45 -4.25 Q-14.75 -4.25 -22.55 -1.45 -30.2 1.25 -33.0 5.4 L-30.5 6.15 -28.75 6.45 Q-27.3 6.6 -26.3 6.05 -28.4 7.25 -31.65 7.7 -34.85 8.9 -39.0 14.75 -37.75 13.85 -36.75 13.85 L-35.6 14.05 -35.2 14.2 -36.0 15.15 -39.7 18.45 Q-41.35 20.3 -42.0 22.4 L-25.95 19.0 Q-19.5 17.7 -9.2 17.7 7.0 17.7 22.3 22.2 35.85 26.2 38.9 30.3 38.7 29.5 34.25 25.9 29.9 22.35 29.9 21.9 29.9 21.3 30.7 21.25 L31.45 21.3 34.35 22.55 37.15 23.9 37.75 22.85 30.6 13.9 32.65 13.8 34.25 14.25 Q31.6 9.35 25.05 4.8 21.8 2.55 19.1 0.95 19.1 -0.4 11.15 -2.25 2.6 -4.25 -5.45 -4.25 M-18.5 20.3 L-22.4 20.45 -23.75 20.55 -25.8 20.65 Q-30.25 21.0 -36.65 23.6 -42.8 26.1 -43.35 26.1 -44.35 26.1 -44.65 25.55 -45.55 22.35 -43.6 17.2 -41.4 11.6 -36.7 6.7 -24.5 -6.2 -4.25 -6.2 17.5 -6.2 29.65 4.65 40.9 14.7 40.9 30.9 40.9 31.9 39.75 33.6 38.55 33.3 34.5 30.75 29.85 27.85 25.35 26.1 9.55 19.85 -18.5 20.3" fill="#141e21" fill-rule="evenodd" stroke="none"/>
  </g>
</svg>
