<?xml version="1.0" encoding="UTF-8" standalone="no"?>
<svg xmlns:ffdec="https://www.free-decompiler.com/flash" xmlns:xlink="http://www.w3.org/1999/xlink" ffdec:objectType="shape" height="177.0px" width="78.4px" xmlns="http://www.w3.org/2000/svg">
  <g transform="matrix(1.0, 0.0, 0.0, 1.0, 37.95, 144.2)">
    <path d="M-23.55 -9.1 L-12.5 -8.4 Q-10.6 -5.7 -6.2 -5.7 -2.85 -6.0 -2.5 -8.15 L-1.3 -8.15 -1.45 -1.75 1.4 -1.55 3.35 -1.4 14.2 -2.05 Q15.65 -2.5 16.75 -3.7 L18.3 -3.75 18.3 -6.15 18.75 -7.2 19.9 -4.7 Q21.15 -2.2 21.75 -2.2 L23.0 -2.35 Q21.7 10.55 14.1 18.2 6.5 25.85 -3.1 24.45 -12.7 23.0 -18.7 13.4 -24.7 3.8 -23.8 -7.7 L-23.55 -9.1 M2.05 -6.9 L1.75 -8.15 1.95 -8.15 2.05 -6.9" fill="#2f4455" fill-rule="evenodd" stroke="none"/>
    <path d="M-11.0 -8.35 L-4.5 -8.15 Q-5.65 -7.35 -7.7 -7.7 L-11.0 -8.35 M35.8 -4.5 Q38.1 14.75 27.0 24.65 17.85 32.8 2.6 32.8 -12.45 32.8 -19.15 24.8 -25.75 16.9 -27.8 -3.1 L-25.8 -2.8 -25.7 -1.2 Q-23.7 17.35 -16.25 24.75 -10.2 30.8 1.65 30.8 8.75 30.8 12.5 29.75 17.0 28.55 19.75 25.25 24.85 19.1 28.05 -3.0 L29.05 -3.15 Q28.7 3.5 25.9 13.45 23.6 21.55 21.7 25.5 L22.95 24.6 Q28.15 20.55 30.85 13.95 33.5 7.35 33.5 -1.3 L33.4 -3.95 35.8 -4.5" fill="#162027" fill-rule="evenodd" stroke="none"/>
    <path d="M-12.5 -8.4 L-11.0 -8.35 -7.7 -7.7 Q-5.65 -7.35 -4.5 -8.15 L-2.5 -8.15 Q-2.85 -6.0 -6.2 -5.7 -10.6 -5.7 -12.5 -8.4 M23.0 -2.35 L28.05 -3.0 Q24.85 19.1 19.75 25.25 17.0 28.55 12.5 29.75 8.75 30.8 1.65 30.8 -10.2 30.8 -16.25 24.75 -23.7 17.35 -25.7 -1.2 L-24.9 -2.3 Q-24.5 -3.4 -23.8 -7.7 -24.7 3.8 -18.7 13.4 -12.7 23.0 -3.1 24.45 6.5 25.85 14.1 18.2 21.7 10.55 23.0 -2.35 M29.05 -3.15 L33.4 -3.95 33.5 -1.3 Q33.5 7.35 30.85 13.95 28.15 20.55 22.95 24.6 L21.7 25.5 Q23.6 21.55 25.9 13.45 28.7 3.5 29.05 -3.15" fill="#283846" fill-rule="evenodd" stroke="none"/>
    <path d="M-3.6 -98.85 Q-2.7 -127.8 -2.95 -135.25 -3.05 -137.9 -3.3 -138.25 L-3.35 -138.3 2.2 -140.75 3.55 -140.4 6.05 -138.8 6.6 -135.7 6.9 -132.8 Q6.8 -128.65 5.05 -124.3 3.05 -123.6 -0.7 -115.55 L0.75 -115.75 0.3 -115.1 0.25 -114.8 Q1.1 -115.1 1.5 -114.35 L0.45 -113.75 1.6 -113.6 1.4 -113.0 -0.9 -112.05 -0.8 -129.4 Q-0.7 -137.5 -0.95 -137.6 L-1.2 -137.5 Q-1.2 -119.3 -1.45 -111.25 L-1.5 -111.2 -1.8 -111.45 -2.05 -103.6 -2.1 -98.95 -3.6 -98.85 M-6.75 -136.35 L-4.45 -137.75 -4.45 -137.35 Q-4.45 -116.45 -5.1 -98.7 -7.95 -96.45 -7.6 -94.15 -6.95 -89.5 -6.95 -81.05 -6.95 -68.1 -11.3 -52.0 L-21.0 -20.1 -17.3 -19.35 -13.2 -18.7 -13.35 -17.7 -16.45 -17.65 -21.9 -17.8 Q-19.75 -34.3 -19.75 -35.1 -16.6 -46.5 -13.3 -55.1 -11.25 -61.95 -9.85 -80.25 -9.15 -95.1 -9.65 -108.4 -9.9 -115.55 -7.55 -135.65 L-6.75 -136.35 M-14.0 -13.75 L-14.3 -11.95 -17.85 -12.25 -22.95 -12.55 -22.35 -15.5 Q-21.2 -14.45 -19.95 -14.15 L-14.0 -13.75 M-23.05 -11.85 L-14.45 -11.25 -14.65 -9.95 -18.2 -10.25 -23.3 -10.55 -23.05 -11.85 M-1.25 -9.6 L-13.15 -9.85 -12.9 -11.15 -1.25 -10.9 -1.25 -9.6 M-1.25 -11.65 L-10.55 -11.8 -10.2 -13.8 -1.25 -13.9 -1.25 -11.65 M-9.55 -17.85 L-9.45 -18.5 -1.25 -18.5 -1.25 -18.45 -9.55 -17.85 M-9.95 -18.55 L-10.05 -17.85 -11.8 -17.75 -11.65 -18.6 -9.95 -18.55 M-10.75 -13.8 L-11.05 -11.85 -12.8 -11.9 -12.45 -13.8 -10.75 -13.8 M1.65 -13.95 L1.75 -11.65 1.35 -11.65 1.3 -13.95 1.65 -13.95 M1.8 -10.9 L1.9 -9.6 1.55 -9.6 1.4 -10.9 1.8 -10.9 M-3.7 -138.1 L-3.75 -138.1 -3.65 -138.15 -3.7 -138.1" fill="#d3d3d3" fill-rule="evenodd" stroke="none"/>
    <path d="M-3.6 -98.85 L-2.1 -98.95 -2.05 -103.6 -1.8 -111.45 -1.5 -111.2 -1.45 -111.25 -1.9 -98.3 Q-3.0 -89.75 -3.5 -83.05 -4.2 -74.1 -4.35 -62.6 L-9.95 -18.55 -11.65 -18.6 Q-8.5 -35.95 -5.95 -63.85 -3.8 -87.5 -3.6 -98.85 M-0.9 -112.05 L1.4 -113.0 Q0.15 -109.1 -1.2 -102.35 L-0.9 -112.05 M1.6 -113.6 L0.45 -113.75 1.5 -114.35 Q1.1 -115.1 0.25 -114.8 L0.3 -115.1 0.75 -115.75 -0.7 -115.55 Q3.05 -123.6 5.05 -124.3 L1.9 -114.75 1.6 -113.6 M-5.1 -98.7 Q-5.6 -79.95 -8.6 -52.55 -11.2 -28.95 -13.2 -18.7 L-17.3 -19.35 -21.0 -20.1 -11.3 -52.0 Q-6.95 -68.1 -6.95 -81.05 -6.95 -89.5 -7.6 -94.15 -7.95 -96.45 -5.1 -98.7 M-13.35 -17.7 L-14.0 -13.75 -19.95 -14.15 Q-21.2 -14.45 -22.35 -15.5 L-21.9 -17.8 -16.45 -17.65 -13.35 -17.7 M-10.2 -13.8 L-9.55 -17.85 -1.25 -18.45 -1.25 -13.9 -10.2 -13.8 M-9.45 -18.5 L-4.2 -58.65 Q-4.15 -56.65 -1.6 -38.7 L-1.25 -18.5 -9.45 -18.5 M-10.05 -17.85 L-10.75 -13.8 -12.45 -13.8 -11.8 -17.75 -10.05 -17.85 M1.4 -17.7 L1.65 -13.95 1.3 -13.95 1.4 -17.7" fill="#f8f8f8" fill-rule="evenodd" stroke="none"/>
    <path d="M6.05 -138.8 L3.55 -140.4 2.2 -140.75 -3.35 -138.3 -3.3 -138.25 Q-3.05 -137.9 -2.95 -135.25 -2.7 -127.8 -3.6 -98.85 -3.8 -87.5 -5.95 -63.85 -8.5 -35.95 -11.65 -18.6 L-11.8 -17.75 -12.45 -13.8 -12.8 -11.9 -11.05 -11.85 -10.75 -13.8 -10.05 -17.85 -9.95 -18.55 -4.35 -62.6 -4.2 -58.65 -9.45 -18.5 -9.55 -17.85 -10.2 -13.8 -10.55 -11.8 -1.25 -11.65 -1.25 -10.9 -12.9 -11.15 -13.15 -9.85 -1.25 -9.6 -1.3 -8.15 -2.5 -8.15 -4.5 -8.15 -11.0 -8.35 -12.5 -8.4 -23.55 -9.1 -23.3 -10.55 -18.2 -10.25 -14.65 -9.95 -14.45 -11.25 -23.05 -11.85 -22.95 -12.55 -17.85 -12.25 -14.3 -11.95 -14.0 -13.75 -13.35 -17.7 -13.2 -18.7 Q-11.2 -28.95 -8.6 -52.55 -5.6 -79.95 -5.1 -98.7 -4.45 -116.45 -4.45 -137.35 L-4.45 -137.75 -6.75 -136.35 -6.4 -137.95 Q-5.0 -139.65 -2.25 -141.05 0.1 -142.2 1.2 -142.2 4.7 -142.2 6.05 -138.8 M-1.45 -111.25 Q-1.2 -119.3 -1.2 -137.5 L-0.95 -137.6 Q-0.7 -137.5 -0.8 -129.4 L-0.9 -112.05 -1.2 -102.35 -1.9 -98.3 -1.45 -111.25 M-19.65 -38.4 Q-17.05 -46.55 -14.35 -58.3 -11.75 -69.45 -9.85 -80.25 -11.25 -61.95 -13.3 -55.1 -16.6 -46.5 -19.75 -35.1 L-19.65 -38.4 M1.75 -11.65 L1.8 -10.9 1.4 -10.9 1.35 -11.65 1.75 -11.65 M1.9 -9.6 L1.9 -9.3 1.95 -8.15 1.75 -8.15 1.55 -9.6 1.9 -9.6 M-3.7 -138.1 L-3.65 -138.15 -3.75 -138.1 -3.7 -138.1" fill="#6b6b6b" fill-rule="evenodd" stroke="none"/>
    <path d="M1.4 -113.0 L1.6 -113.6 1.9 -114.75 5.05 -124.3 Q6.8 -128.65 6.9 -132.8 L6.6 -135.7 6.05 -138.8 Q4.7 -142.2 1.2 -142.2 0.1 -142.2 -2.25 -141.05 -5.0 -139.65 -6.4 -137.95 L-7.55 -135.65 Q-9.9 -115.55 -9.65 -108.4 -9.15 -95.1 -9.85 -80.25 -11.75 -69.45 -14.35 -58.3 -17.05 -46.55 -19.65 -38.4 L-20.8 -34.85 -20.1 -43.35 Q-18.0 -69.2 -18.0 -72.9 -18.0 -78.45 -20.2 -88.2 -22.4 -97.95 -22.4 -99.3 L-20.95 -100.65 -21.0 -99.4 -18.65 -85.1 Q-16.3 -71.7 -16.3 -69.45 -18.15 -54.05 -18.15 -49.65 -14.65 -55.95 -12.5 -71.45 -11.45 -79.15 -11.1 -85.75 L-11.25 -95.0 -11.3 -112.3 Q-15.25 -105.75 -18.65 -103.6 -17.6 -105.75 -17.6 -108.3 -17.6 -110.95 -19.0 -114.15 -20.45 -117.35 -20.45 -118.3 L-19.0 -122.0 -19.2 -120.1 -19.1 -119.9 Q-18.8 -119.75 -18.05 -116.2 L-16.6 -111.15 -15.6 -108.6 -13.4 -110.7 Q-11.85 -112.2 -11.65 -112.95 -11.4 -113.9 -10.9 -123.4 L-10.2 -133.15 -9.35 -135.2 -10.05 -134.15 Q-10.25 -133.7 -10.65 -133.45 L-16.95 -126.25 -13.75 -131.75 Q-5.8 -144.2 1.2 -144.2 3.8 -144.2 5.6 -143.15 7.25 -142.1 7.7 -140.45 L10.1 -136.25 11.15 -134.3 13.85 -125.8 16.0 -118.45 Q16.0 -117.85 14.85 -116.5 L7.35 -107.8 6.3 -106.6 6.65 -106.2 8.6 -103.75 10.25 -101.75 Q11.75 -99.75 11.15 -99.35 9.75 -98.5 9.75 -95.55 L7.3 -82.55 Q17.65 -87.0 18.3 -87.05 L19.35 -86.8 Q19.6 -86.5 19.6 -82.65 19.6 -82.05 19.2 -81.85 L18.2 -81.55 6.25 -76.15 5.6 -71.9 4.7 -65.55 0.85 -31.8 0.5 -28.35 -0.9 -34.05 -1.6 -38.7 Q-4.15 -56.65 -4.2 -58.65 L-4.35 -62.6 Q-4.2 -74.1 -3.5 -83.05 -3.0 -89.75 -1.9 -98.3 L-1.2 -102.35 Q0.15 -109.1 1.4 -113.0 M10.5 -130.85 L8.85 -134.4 8.9 -133.2 4.35 -115.45 2.7 -110.5 4.95 -108.15 Q6.65 -109.4 10.05 -113.25 14.2 -117.9 14.2 -119.8 L13.25 -122.7 13.25 -126.65 11.85 -126.9 10.5 -130.85 M23.55 -37.45 L24.95 -37.8 26.3 -37.85 Q27.8 -37.05 27.8 -30.05 27.8 -29.35 26.65 -29.25 L23.1 -29.15 5.55 -29.1 Q5.0 -29.25 4.85 -29.35 4.6 -29.6 4.6 -30.25 L4.55 -38.05 5.15 -37.8 Q5.9 -37.55 6.85 -38.1 L23.55 -37.45 M4.6 -107.1 L2.6 -109.75 Q-0.1 -97.35 -1.4 -83.5 -2.3 -74.15 -2.3 -68.55 L-1.35 -47.55 -0.65 -41.25 0.25 -34.5 Q1.7 -52.25 3.3 -66.75 3.5 -68.7 5.05 -78.1 L7.0 -89.25 7.9 -92.0 Q8.6 -94.1 8.7 -95.85 8.85 -98.0 8.25 -100.15 L8.25 -100.45 Q8.25 -101.45 8.15 -100.8 L8.0 -101.0 Q7.0 -104.0 4.6 -107.1 M6.9 -80.15 L6.65 -78.55 17.45 -83.45 17.25 -84.65 6.9 -80.15 M25.25 -36.05 L6.75 -36.05 6.75 -31.1 25.25 -31.1 25.25 -36.05" fill="#1e1e1e" fill-rule="evenodd" stroke="none"/>
    <path d="M-16.95 -126.25 L-10.65 -133.45 -10.2 -133.15 -10.9 -123.4 Q-11.4 -113.9 -11.65 -112.95 -11.85 -112.2 -13.4 -110.7 L-15.6 -108.6 -16.6 -111.15 -18.05 -116.2 Q-18.8 -119.75 -19.1 -119.9 L-19.2 -120.1 -19.0 -122.0 -18.6 -122.95 -16.95 -126.25 M-18.65 -103.6 Q-15.25 -105.75 -11.3 -112.3 L-11.25 -95.0 -11.1 -85.75 Q-11.45 -79.15 -12.5 -71.45 -14.65 -55.95 -18.15 -49.65 -18.15 -54.05 -16.3 -69.45 -16.3 -71.7 -18.65 -85.1 L-21.0 -99.4 -20.95 -100.65 -20.6 -102.3 -19.1 -103.35 -18.65 -103.6 M2.7 -110.5 L4.35 -115.45 8.9 -133.2 8.85 -134.4 10.5 -130.85 9.0 -122.8 Q7.1 -114.8 4.35 -109.75 L2.7 -110.5 M-0.65 -41.25 L-1.35 -47.55 -2.3 -68.55 Q-2.3 -74.15 -1.4 -83.5 -0.1 -97.35 2.6 -109.75 L4.6 -107.1 Q3.2 -105.75 1.9 -97.15 0.9 -90.35 0.35 -81.95 L-0.35 -69.3 Q-0.55 -61.25 -0.25 -41.25 L-0.65 -41.25 M6.9 -80.15 L17.25 -84.65 17.45 -83.45 6.65 -78.55 6.9 -80.15 M25.25 -36.05 L25.25 -31.1 6.75 -31.1 6.75 -36.05 25.25 -36.05 M-11.15 -130.0 L-11.3 -129.95 Q-14.0 -128.6 -16.05 -124.85 -17.3 -122.6 -17.95 -120.25 L-17.8 -119.6 -16.85 -119.55 -16.95 -120.1 Q-16.95 -121.15 -13.95 -125.05 -11.0 -129.0 -11.0 -129.3 -11.0 -129.9 -11.15 -130.0 M-11.8 -107.4 L-12.45 -107.65 Q-13.6 -106.75 -20.15 -98.9 -20.15 -96.7 -17.6 -87.55 -15.1 -78.4 -15.1 -75.35 -15.1 -72.75 -15.65 -66.85 L-16.25 -61.2 -16.2 -60.6 -15.25 -60.9 Q-15.9 -60.9 -15.05 -67.6 L-14.1 -74.45 Q-14.1 -79.1 -16.55 -87.8 -19.05 -96.55 -19.05 -98.6 L-16.55 -100.55 Q-13.65 -103.2 -11.75 -107.05 L-11.8 -107.4 M-14.6 -112.05 L-14.85 -112.9 Q-15.45 -111.6 -15.2 -111.6 -14.6 -111.6 -14.6 -111.8 L-14.6 -112.05 M-16.75 -119.55 L-16.75 -119.6 -16.85 -119.55 -16.75 -119.55" fill="#3c3c3c" fill-rule="evenodd" stroke="none"/>
    <path d="M11.85 -126.9 L13.25 -126.65 13.25 -122.7 13.25 -120.4 5.85 -110.0 5.25 -110.4 12.2 -120.55 Q10.2 -125.15 10.6 -126.6 10.8 -127.25 11.05 -126.95 L11.85 -126.9 M8.0 -101.0 L8.15 -100.8 Q8.25 -101.45 8.25 -100.45 L8.25 -100.15 Q8.15 -94.9 4.5 -77.2 0.75 -59.0 0.75 -52.75 L0.8 -52.55 0.25 -52.5 -0.25 -52.5 Q-0.1 -52.6 -0.25 -52.65 -0.25 -63.45 3.5 -82.35 L7.2 -100.4 Q7.2 -101.0 5.6 -103.0 L4.0 -105.05 4.6 -105.5 8.0 -101.0 M-11.15 -130.0 Q-11.0 -129.9 -11.0 -129.3 -11.0 -129.0 -13.95 -125.05 -16.95 -121.15 -16.95 -120.1 L-16.85 -119.55 -17.8 -119.6 -17.95 -120.25 Q-17.3 -122.6 -16.05 -124.85 -14.0 -128.6 -11.3 -129.95 L-11.15 -130.0 M-16.75 -119.55 L-16.85 -119.55 -16.75 -119.6 -16.75 -119.55 M-14.6 -112.05 L-14.6 -111.8 Q-14.6 -111.6 -15.2 -111.6 -15.45 -111.6 -14.85 -112.9 L-14.6 -112.05 M-11.8 -107.4 L-11.75 -107.05 Q-13.65 -103.2 -16.55 -100.55 L-19.05 -98.6 Q-19.05 -96.55 -16.55 -87.8 -14.1 -79.1 -14.1 -74.45 L-15.05 -67.6 Q-15.9 -60.9 -15.25 -60.9 L-16.2 -60.6 -16.25 -61.2 -15.65 -66.85 Q-15.1 -72.75 -15.1 -75.35 -15.1 -78.4 -17.6 -87.55 -20.15 -96.7 -20.15 -98.9 -13.6 -106.75 -12.45 -107.65 L-11.8 -107.4" fill="#4e4e4e" fill-rule="evenodd" stroke="none"/>
    <path d="M10.5 -130.85 L11.85 -126.9 11.05 -126.95 Q10.8 -127.25 10.6 -126.6 10.2 -125.15 12.2 -120.55 L5.25 -110.4 5.85 -110.0 13.25 -120.4 13.25 -122.7 14.2 -119.8 Q14.2 -117.9 10.05 -113.25 6.65 -109.4 4.95 -108.15 L2.7 -110.5 4.35 -109.75 Q7.1 -114.8 9.0 -122.8 L10.5 -130.85 M4.6 -107.1 Q7.0 -104.0 8.0 -101.0 L4.6 -105.5 4.0 -105.05 5.6 -103.0 Q7.2 -101.0 7.2 -100.4 L3.5 -82.35 Q-0.25 -63.45 -0.25 -52.65 -0.1 -52.6 -0.25 -52.5 L0.25 -52.5 0.8 -52.55 0.75 -52.75 Q0.75 -59.0 4.5 -77.2 8.15 -94.9 8.25 -100.15 8.85 -98.0 8.7 -95.85 8.6 -94.1 7.9 -92.0 L7.0 -89.25 5.05 -78.1 Q3.5 -68.7 3.3 -66.75 1.7 -52.25 0.25 -34.5 L-0.65 -41.25 -0.25 -41.25 Q-0.55 -61.25 -0.35 -69.3 L0.35 -81.95 Q0.9 -90.35 1.9 -97.15 3.2 -105.75 4.6 -107.1" fill="#414141" fill-rule="evenodd" stroke="none"/>
    <path d="M-6.4 -137.95 L-6.75 -136.35 -7.55 -135.65 -6.4 -137.95 M-22.95 -12.55 L-23.05 -11.85 -23.3 -10.55 -23.55 -9.1 -23.8 -7.7 Q-24.5 -3.4 -24.9 -2.3 L-25.7 -1.2 -25.8 -2.8 -27.8 -3.1 Q-37.95 -4.25 -37.95 -7.15 -37.95 -7.9 -35.75 -9.95 L-33.05 -12.5 Q-31.95 -13.8 -28.3 -22.3 -24.25 -31.85 -20.1 -43.35 L-20.8 -34.85 -19.65 -38.4 -19.75 -35.1 Q-19.75 -34.3 -21.9 -17.8 L-22.35 -15.5 -22.95 -12.55 M-1.3 -8.15 L-1.25 -9.6 -1.25 -10.9 -1.25 -11.65 -1.25 -13.9 -1.25 -18.45 -1.25 -18.5 -1.6 -38.7 -0.9 -34.05 0.5 -28.35 0.85 -31.8 1.35 -24.65 1.4 -17.7 1.3 -13.95 1.35 -11.65 1.4 -10.9 1.55 -9.6 1.75 -8.15 2.05 -6.9 Q2.1 -6.7 2.8 -6.45 L4.3 -6.15 9.3 -6.25 Q10.95 -6.3 12.3 -7.5 14.05 -9.05 16.45 -12.95 L17.95 -15.45 18.15 -15.15 18.25 -15.05 18.3 -14.15 18.25 -13.45 18.15 -13.5 Q14.6 -4.9 11.0 -4.9 L2.55 -5.15 Q3.3 -4.3 5.25 -3.85 L8.5 -3.5 16.75 -3.7 Q15.65 -2.5 14.2 -2.05 L3.35 -1.4 1.4 -1.55 -1.45 -1.75 -1.3 -8.15 M-10.65 -133.45 Q-10.25 -133.7 -10.05 -134.15 L-9.35 -135.2 -10.2 -133.15 -10.65 -133.45 M11.15 -134.3 L10.1 -136.25 7.7 -140.45 Q10.2 -138.4 14.35 -132.05 18.15 -126.3 18.3 -126.3 18.8 -126.3 23.9 -108.35 28.95 -90.5 29.9 -85.45 32.6 -71.15 36.15 -40.75 39.6 -10.95 40.45 -6.65 L35.8 -4.5 33.4 -3.95 29.05 -3.15 28.05 -3.0 23.0 -2.35 21.75 -2.2 Q21.15 -2.2 19.9 -4.7 L18.75 -7.2 18.3 -6.15 Q18.35 -12.6 18.5 -12.9 L20.55 -8.85 Q22.7 -4.8 23.3 -4.8 L29.7 -6.05 Q36.15 -7.4 37.35 -7.95 L37.1 -9.6 31.7 -8.25 25.0 -6.95 18.3 -15.15 18.3 -16.05 18.3 -17.15 23.4 -10.85 34.7 -10.85 35.1 -14.8 Q35.1 -31.4 29.15 -70.3 22.95 -110.95 18.3 -119.85 18.5 -120.75 15.5 -126.7 12.6 -132.45 11.15 -134.3 M-35.4 -7.15 Q-34.5 -6.25 -30.85 -5.45 L-25.55 -4.85 -25.4 -6.55 Q-26.85 -6.7 -30.2 -7.6 -33.25 -8.2 -35.25 -7.2 L-35.4 -7.15 M-33.45 -9.0 Q-32.4 -8.6 -29.3 -8.1 L-25.3 -7.55 -23.7 -18.75 Q-22.15 -29.2 -21.95 -31.5 L-26.6 -18.75 Q-28.4 -14.75 -32.9 -9.6 L-33.45 -9.0" fill="#2b4015" fill-rule="evenodd" stroke="none"/>
    <path d="M11.15 -134.3 Q12.6 -132.45 15.5 -126.7 18.5 -120.75 18.3 -119.85 22.95 -110.95 29.15 -70.3 35.1 -31.4 35.1 -14.8 L34.7 -10.85 23.4 -10.85 18.3 -17.15 18.3 -18.4 Q18.7 -17.65 20.15 -16.15 21.7 -14.55 22.4 -14.35 23.2 -15.7 23.05 -16.7 22.6 -19.2 22.6 -20.6 L23.1 -29.15 26.65 -29.25 Q27.8 -29.35 27.8 -30.05 27.8 -37.05 26.3 -37.85 L24.95 -37.8 23.55 -37.45 24.45 -55.15 24.4 -55.35 Q21.35 -55.1 20.15 -54.4 19.15 -53.8 18.3 -53.8 L15.5 -54.05 5.05 -55.85 4.2 -56.05 11.3 -55.6 Q18.25 -55.6 20.0 -56.35 21.2 -56.85 23.85 -58.85 L18.3 -58.9 18.3 -61.65 23.5 -62.85 Q23.45 -64.1 22.15 -65.8 20.55 -67.9 18.3 -68.6 L18.3 -63.3 Q16.35 -64.2 11.35 -64.4 6.5 -64.6 4.7 -65.55 L5.6 -71.9 Q10.8 -71.9 14.5 -74.7 18.2 -77.55 18.2 -81.55 L19.2 -81.85 Q19.6 -82.05 19.6 -82.65 19.6 -86.5 19.35 -86.8 L18.3 -87.05 18.4 -88.05 Q18.4 -90.15 17.75 -93.05 L14.85 -106.9 9.75 -95.55 Q9.75 -98.5 11.15 -99.35 11.75 -99.75 10.25 -101.75 L13.2 -111.75 8.6 -103.75 6.65 -106.2 7.35 -107.8 14.85 -116.5 Q16.0 -117.85 16.0 -118.45 L13.85 -125.8 11.15 -134.3 M18.3 -16.05 L18.3 -15.15 25.0 -6.95 31.7 -8.25 37.1 -9.6 37.35 -7.95 Q36.15 -7.4 29.7 -6.05 L23.3 -4.8 Q22.7 -4.8 20.55 -8.85 L18.5 -12.9 Q18.35 -12.6 18.3 -6.15 L18.3 -3.75 16.75 -3.7 8.5 -3.5 5.25 -3.85 Q3.3 -4.3 2.55 -5.15 L11.0 -4.9 Q14.6 -4.9 18.15 -13.5 L18.25 -13.45 18.3 -14.15 18.25 -15.05 18.15 -15.15 18.3 -16.05 M18.3 -50.05 L12.05 -50.4 4.3 -51.35 10.95 -51.4 18.3 -51.85 18.3 -50.05 M1.9 -9.3 Q8.7 -9.3 13.5 -11.3 15.35 -12.05 16.45 -12.95 14.05 -9.05 12.3 -7.5 10.95 -6.3 9.3 -6.25 L4.3 -6.15 2.8 -6.45 Q2.1 -6.7 2.05 -6.9 L1.95 -8.15 1.9 -9.3 M-33.45 -9.0 L-32.9 -9.6 Q-28.4 -14.75 -26.6 -18.75 L-21.95 -31.5 Q-22.15 -29.2 -23.7 -18.75 L-25.3 -7.55 -29.3 -8.1 Q-32.4 -8.6 -33.45 -9.0 M-35.4 -7.15 L-35.25 -7.2 Q-33.25 -8.2 -30.2 -7.6 -26.85 -6.7 -25.4 -6.55 L-25.55 -4.85 -30.85 -5.45 Q-34.5 -6.25 -35.4 -7.15" fill="#697c29" fill-rule="evenodd" stroke="none"/>
    <path d="M7.35 -107.8 L6.65 -106.2 6.3 -106.6 7.35 -107.8 M8.6 -103.75 L13.2 -111.75 10.25 -101.75 8.6 -103.75 M9.75 -95.55 L14.85 -106.9 17.75 -93.05 Q18.4 -90.15 18.4 -88.05 L18.3 -87.05 Q17.65 -87.0 7.3 -82.55 L9.75 -95.55 M18.2 -81.55 Q18.2 -77.55 14.5 -74.7 10.8 -71.9 5.6 -71.9 L6.25 -76.15 18.2 -81.55 M4.7 -65.55 Q6.5 -64.6 11.35 -64.4 16.35 -64.2 18.3 -63.3 L18.3 -68.6 Q20.55 -67.9 22.15 -65.8 23.45 -64.1 23.5 -62.85 L18.3 -61.65 18.3 -58.9 23.85 -58.85 Q21.2 -56.85 20.0 -56.35 18.25 -55.6 11.3 -55.6 L4.2 -56.05 5.05 -55.85 15.5 -54.05 18.3 -53.8 Q19.15 -53.8 20.15 -54.4 21.35 -55.1 24.4 -55.35 L24.45 -55.15 23.55 -37.45 6.85 -38.1 Q5.9 -37.55 5.15 -37.8 L4.55 -38.05 4.6 -30.25 Q4.6 -29.6 4.85 -29.35 5.0 -29.25 5.55 -29.1 L23.1 -29.15 22.6 -20.6 Q22.6 -19.2 23.05 -16.7 23.2 -15.7 22.4 -14.35 21.7 -14.55 20.15 -16.15 18.7 -17.65 18.3 -18.4 L18.3 -17.15 18.3 -16.05 18.15 -15.15 17.95 -15.45 16.45 -12.95 Q15.35 -12.05 13.5 -11.3 8.7 -9.3 1.9 -9.3 L1.9 -9.6 1.8 -10.9 1.75 -11.65 1.65 -13.95 1.4 -17.7 1.35 -24.65 0.85 -31.8 4.7 -65.55 M18.3 -50.05 L18.3 -51.85 10.95 -51.4 4.3 -51.35 12.05 -50.4 18.3 -50.05" fill="#7d9432" fill-rule="evenodd" stroke="none"/>
  </g>
</svg>
