<?xml version="1.0" encoding="UTF-8" standalone="no"?>
<svg xmlns:ffdec="https://www.free-decompiler.com/flash" xmlns:xlink="http://www.w3.org/1999/xlink" ffdec:objectType="shape" height="117.95px" width="62.95px" xmlns="http://www.w3.org/2000/svg">
  <g transform="matrix(1.0, 0.0, 0.0, 1.0, -1.6, -1.7)">
    <path d="M33.35 8.25 L35.85 12.05 36.05 12.65 Q36.6 14.8 36.5 17.4 36.15 19.05 32.0 29.85 28.8 38.05 29.55 42.4 L29.65 44.0 30.45 47.85 32.1 50.65 40.5 59.55 41.9 61.05 45.15 64.8 Q45.7 62.55 48.4 61.0 L53.75 57.95 Q52.85 57.3 52.85 56.35 L62.35 39.6 Q62.35 37.85 61.45 34.1 L60.55 30.55 Q60.55 30.05 61.05 28.95 L61.55 27.35 Q61.55 25.75 57.45 19.9 52.85 13.3 49.6 13.3 L47.65 13.8 Q46.3 14.15 48.55 13.4 49.35 7.35 46.15 4.9 43.7 3.05 38.35 3.05 35.25 3.05 33.55 4.5 31.7 6.05 33.35 8.25 M49.55 39.6 Q47.65 41.3 44.65 42.5 40.6 42.5 39.25 40.25 38.3 38.75 38.0 34.35 38.45 31.0 40.7 28.0 43.3 24.6 46.4 24.6 49.35 24.6 50.8 27.3 52.0 29.55 52.0 33.15 52.0 34.65 49.55 39.6 M51.2 9.5 Q51.9 11.7 56.1 16.05 60.95 21.1 62.2 23.1 63.7 25.55 63.85 27.15 L63.5 30.75 64.55 38.2 Q64.55 40.3 63.75 42.6 L60.9 50.1 Q60.25 51.95 57.25 56.5 L53.7 61.5 Q52.7 62.55 52.05 64.4 L51.35 66.55 Q50.95 67.4 48.95 68.8 48.15 69.7 47.95 71.2 47.7 69.95 47.15 69.1 46.3 67.8 45.65 67.8 44.65 67.8 40.8 62.1 L32.5 53.35 Q30.75 51.6 29.1 48.45 28.8 47.6 28.55 47.75 L28.1 48.45 25.75 51.8 24.75 52.9 Q23.85 53.5 21.75 53.5 L18.8 53.15 Q16.05 52.65 14.95 51.95 13.35 50.95 13.0 50.05 L12.9 49.4 Q12.25 49.4 12.25 48.3 L12.35 46.4 Q12.35 44.15 12.85 41.6 13.4 39.0 13.9 39.0 L15.7 37.8 Q17.5 36.6 18.0 36.6 20.6 36.6 22.45 37.85 L27.35 41.6 28.05 42.45 Q27.6 38.05 31.2 29.75 35.0 20.95 35.0 16.25 35.0 13.65 33.5 10.85 32.1 8.2 31.1 8.2 30.5 8.2 29.75 7.1 L29.05 5.85 33.0 3.65 Q36.55 1.7 38.35 1.7 42.9 1.7 46.45 3.4 50.9 5.5 51.2 9.5 M45.0 26.0 Q42.7 26.0 41.1 28.2 39.5 30.4 39.5 33.5 39.5 36.6 41.1 38.8 42.7 41.0 45.0 41.0 47.3 41.0 48.9 38.8 50.5 36.6 50.5 33.5 50.5 30.4 48.9 28.2 47.3 26.0 45.0 26.0 M30.7 17.9 Q31.5 16.8 31.5 15.9 31.5 14.55 30.6 14.05 29.85 13.6 28.2 13.6 28.0 13.6 26.65 14.3 25.0 15.1 24.15 15.85 23.9 17.5 24.55 19.95 24.95 21.65 25.7 22.55 24.75 22.15 24.0 21.4 22.4 19.8 22.4 17.55 22.4 15.3 24.0 13.75 25.55 12.15 27.75 12.15 29.95 12.15 31.55 13.75 33.1 15.3 33.1 17.55 33.1 19.8 31.55 21.4 30.4 22.5 28.95 22.85 L29.0 22.8 Q30.2 21.5 30.7 17.9 M21.85 18.15 Q22.25 20.15 21.7 23.6 L20.8 27.6 Q18.6 34.9 14.55 37.95 11.15 40.5 5.7 40.5 L1.7 40.15 1.75 36.85 1.6 32.8 Q1.6 30.75 2.4 28.3 3.45 24.9 5.7 22.75 7.85 20.6 9.85 16.4 11.8 12.2 17.05 10.35 18.35 10.35 20.0 13.35 21.4 15.95 21.85 18.15 M19.2 15.55 L17.4 12.8 Q15.55 13.75 12.35 18.3 L12.15 18.3 12.15 18.6 9.2 23.1 Q3.8 31.7 3.8 33.8 L4.15 38.95 7.35 38.95 Q9.45 38.85 11.25 38.05 12.25 37.6 14.6 35.8 L16.85 33.0 Q18.85 29.7 19.9 24.75 20.8 20.4 20.4 18.45 L19.2 15.55 M2.0 46.0 L3.4 46.3 Q12.55 49.5 20.45 57.5 30.0 67.2 30.0 77.65 30.0 82.65 28.5 92.75 28.5 93.65 29.0 94.3 L29.85 95.15 Q30.7 96.25 33.8 97.65 33.8 98.3 35.9 98.35 L38.75 98.3 40.05 98.55 Q40.6 98.65 40.6 98.05 40.6 97.95 42.95 96.4 L46.65 93.7 46.6 94.25 46.25 95.1 Q46.05 95.8 46.65 95.8 L47.4 98.45 48.05 102.25 Q48.05 108.9 44.85 113.45 40.55 119.65 31.3 119.65 26.05 119.65 22.0 115.6 16.5 110.05 16.5 98.75 16.5 94.65 17.9 90.85 L19.25 87.75 Q19.25 71.5 11.85 59.4 9.75 56.0 6.05 51.5 2.75 47.45 2.0 46.0 M21.15 38.75 L18.35 38.15 Q13.85 38.15 13.85 46.45 13.85 49.65 16.4 51.05 18.95 52.45 23.35 51.65 24.95 51.65 26.1 49.4 27.2 47.15 27.2 43.95 L24.5 40.85 21.15 38.75 M25.9 67.4 Q25.35 66.0 18.85 59.1 12.5 52.45 11.3 51.75 16.5 59.65 20.05 62.35 L21.65 63.4 Q22.05 63.75 22.05 64.65 L21.7 66.35 21.65 66.55 21.65 66.3 18.9 66.3 18.9 69.55 21.65 69.55 21.65 67.95 21.75 67.9 22.2 67.75 22.75 67.65 21.0 72.65 22.25 99.65 Q22.25 100.6 21.15 101.65 L20.1 93.9 20.05 94.15 19.65 95.45 Q18.3 98.65 18.3 99.75 18.3 104.6 20.35 107.55 21.9 106.2 22.3 105.2 L22.25 106.6 Q21.75 110.65 25.3 113.1 28.2 115.15 31.95 115.15 L35.4 114.9 35.4 115.55 37.4 115.55 37.4 114.45 Q40.5 113.6 42.8 111.65 46.85 108.25 46.85 103.0 46.85 99.95 45.35 97.0 45.05 102.3 44.55 104.6 L44.1 105.8 Q43.8 105.0 43.4 102.2 L42.95 98.65 41.0 99.45 33.3 99.05 30.45 97.65 28.65 96.05 27.75 94.9 27.15 93.8 Q27.0 93.4 27.0 92.75 L27.6 87.05 27.65 87.05 27.65 86.2 28.5 77.65 Q28.5 74.1 27.4 70.9 L25.9 67.4 M35.5 85.0 Q35.5 82.3 37.1 80.4 38.7 78.5 41.0 78.5 43.3 78.5 44.9 80.4 46.5 82.3 46.5 85.0 46.5 87.7 44.9 89.6 43.3 91.5 41.0 91.5 38.7 91.5 37.1 89.6 35.5 87.7 35.5 85.0 M41.05 80.05 Q39.4 80.05 38.7 80.65 37.0 82.15 37.0 87.05 37.0 87.5 37.45 88.15 38.3 89.25 40.15 90.0 42.45 89.55 43.75 86.85 44.65 84.95 44.65 83.4 44.65 82.6 43.75 81.7 42.75 80.7 41.05 80.05" fill="#9d8c4a" fill-rule="evenodd" stroke="none"/>
    <path d="M57.55 28.8 Q58.15 27.5 58.15 26.5 58.15 23.65 54.4 19.45 51.0 15.65 49.85 15.65 47.85 15.65 46.15 16.4 L41.75 18.7 41.65 18.15 Q46.1 12.85 46.55 10.35 46.55 8.35 43.8 6.8 41.6 5.6 40.2 5.6 36.95 5.6 35.35 6.4 34.35 6.9 33.35 8.25 31.7 6.05 33.55 4.5 35.25 3.05 38.35 3.05 43.7 3.05 46.15 4.9 49.35 7.35 48.55 13.4 46.3 14.15 47.65 13.8 L49.6 13.3 Q52.85 13.3 57.45 19.9 61.55 25.75 61.55 27.35 L61.05 28.95 Q60.55 30.05 60.55 30.55 L61.45 34.1 Q62.35 37.85 62.35 39.6 L52.85 56.35 Q52.85 57.3 53.75 57.95 L48.4 61.0 Q45.7 62.55 45.15 64.8 L41.9 61.05 Q47.85 58.9 54.2 50.35 60.4 42.05 60.4 36.85 60.4 36.05 58.6 34.15 57.05 32.55 56.85 30.8 L58.9 30.8 58.9 28.8 57.55 28.8 M12.35 18.3 Q15.55 13.75 17.4 12.8 L19.2 15.55 14.4 20.8 14.4 18.3 12.35 18.3 M7.35 38.95 L4.15 38.95 3.8 33.8 Q3.8 31.7 9.2 23.1 L12.15 18.6 12.15 20.8 14.4 20.8 12.35 23.3 Q6.4 30.95 6.4 36.0 6.4 36.65 6.75 37.55 L7.35 38.95 M6.15 36.05 L6.15 33.8 4.15 33.8 4.15 36.05 6.15 36.05 M21.65 66.55 L21.7 66.35 22.05 64.65 Q22.05 63.75 21.65 63.4 L20.05 62.35 Q16.5 59.65 11.3 51.75 12.5 52.45 18.85 59.1 25.35 66.0 25.9 67.4 24.05 70.55 24.05 70.9 L24.55 75.05 25.0 79.15 Q25.0 82.0 24.15 89.4 23.35 96.45 22.75 99.5 24.3 99.85 25.7 98.65 27.15 97.4 27.75 94.9 L28.65 96.05 25.25 104.8 23.15 104.8 23.15 107.3 24.7 107.3 Q24.9 109.25 25.9 109.95 27.25 110.9 31.6 110.9 38.0 110.9 40.5 108.65 42.15 107.2 42.25 104.8 L42.65 104.8 42.65 102.8 42.05 102.8 41.0 99.45 42.95 98.65 43.4 102.2 Q43.8 105.0 44.1 105.8 L44.55 104.6 Q45.05 102.3 45.35 97.0 46.85 99.95 46.85 103.0 46.85 108.25 42.8 111.65 40.5 113.6 37.4 114.45 L37.4 113.05 35.4 113.05 35.4 114.9 31.95 115.15 Q28.2 115.15 25.3 113.1 21.75 110.65 22.25 106.6 L22.3 105.2 Q21.9 106.2 20.35 107.55 18.3 104.6 18.3 99.75 18.3 98.65 19.65 95.45 L20.05 94.15 20.1 93.9 21.15 101.65 Q22.25 100.6 22.25 99.65 L21.0 72.65 22.75 67.65 22.2 67.75 21.75 67.9 21.65 67.95 21.65 66.55 M41.05 80.05 Q42.75 80.7 43.75 81.7 44.65 82.6 44.65 83.4 44.65 84.95 43.75 86.85 42.45 89.55 40.15 90.0 L41.05 80.05 M40.9 86.3 L42.65 86.3 42.65 84.3 40.9 84.3 40.9 86.3" fill="#c2b57e" fill-rule="evenodd" stroke="none"/>
    <path d="M33.35 8.25 Q34.35 6.9 35.35 6.4 36.95 5.6 40.2 5.6 41.6 5.6 43.8 6.8 46.55 8.35 46.55 10.35 46.1 12.85 41.65 18.15 L41.75 18.7 46.15 16.4 Q47.85 15.65 49.85 15.65 51.0 15.65 54.4 19.45 58.15 23.65 58.15 26.5 58.15 27.5 57.55 28.8 L56.65 28.8 56.65 30.8 56.85 30.8 Q57.05 32.55 58.6 34.15 60.4 36.05 60.4 36.85 60.4 42.05 54.2 50.35 47.85 58.9 41.9 61.05 L40.5 59.55 46.6 52.25 Q47.8 50.3 47.8 46.0 47.8 44.25 43.6 42.8 39.85 41.5 36.55 41.5 34.65 41.5 33.1 42.6 31.4 43.85 29.65 44.0 L29.55 42.4 Q34.95 41.85 35.05 35.6 35.05 31.7 35.2 31.05 35.65 28.8 37.55 28.2 37.95 28.25 38.05 29.35 37.5 32.9 38.0 34.35 38.3 38.75 39.25 40.25 40.6 42.5 44.65 42.5 47.65 41.3 49.55 39.6 51.7 38.1 52.6 35.55 53.6 32.75 53.6 27.25 53.6 20.0 50.05 20.0 48.25 20.0 44.55 21.25 L41.15 22.5 40.45 22.25 37.6 20.95 Q40.3 15.85 42.4 12.55 L42.9 12.55 42.9 11.8 43.8 9.95 Q43.8 9.3 43.15 8.5 42.1 7.15 39.85 7.15 37.8 7.15 36.65 8.7 35.6 10.15 35.85 12.05 L33.35 8.25 M53.4 45.7 L54.1 45.75 Q55.3 45.75 56.2 44.9 57.05 44.0 57.05 42.8 57.05 41.6 56.2 40.75 55.3 39.85 54.1 39.85 52.9 39.85 52.05 40.75 51.15 41.6 51.15 42.8 51.15 43.65 51.6 44.3 L50.65 44.3 50.65 47.55 53.4 47.55 53.4 45.7 M24.15 15.85 Q25.0 15.1 26.65 14.3 28.0 13.6 28.2 13.6 29.85 13.6 30.6 14.05 31.5 14.55 31.5 15.9 31.5 16.8 30.7 17.9 28.75 15.4 26.1 15.4 L24.15 15.85 M36.5 17.4 Q36.6 14.8 36.05 12.65 L36.7 13.6 Q37.1 14.25 37.1 14.9 37.1 15.75 36.5 17.4 M14.4 20.8 L19.2 15.55 20.4 18.45 13.55 28.1 Q12.5 29.7 11.8 31.05 L11.15 31.05 11.15 32.3 Q10.1 34.5 10.1 35.8 L11.25 38.05 Q9.45 38.85 7.35 38.95 L6.75 37.55 Q6.4 36.65 6.4 36.0 6.4 30.95 12.35 23.3 L14.4 20.8 M18.65 48.25 Q19.3 47.35 19.3 46.1 19.3 44.85 18.65 43.95 18.0 43.05 17.05 43.05 16.1 43.05 15.45 43.95 14.8 44.85 14.8 46.1 14.8 47.35 15.45 48.25 16.1 49.15 17.05 49.15 L17.65 49.05 18.65 49.05 18.65 48.25 M23.35 51.65 Q18.95 52.45 16.4 51.05 13.85 49.65 13.85 46.45 13.85 38.15 18.35 38.15 L21.15 38.75 Q19.6 41.55 19.6 41.8 19.6 43.35 20.6 46.7 21.85 50.85 23.35 51.65 M25.9 67.4 L27.4 70.9 Q28.5 74.1 28.5 77.65 L27.65 86.2 27.65 84.8 25.65 84.8 25.65 87.05 27.6 87.05 27.0 92.75 Q27.0 93.4 27.15 93.8 L27.75 94.9 Q27.15 97.4 25.7 98.65 24.3 99.85 22.75 99.5 23.35 96.45 24.15 89.4 25.0 82.0 25.0 79.15 L24.55 75.05 24.05 70.9 Q24.05 70.55 25.9 67.4 M28.65 96.05 L30.45 97.65 28.45 104.05 27.7 106.85 Q27.7 107.9 27.95 108.25 28.55 109.1 30.65 109.1 L34.85 108.7 Q37.1 107.95 37.1 105.85 37.1 104.25 35.25 101.7 L33.3 99.05 41.0 99.45 42.05 102.8 40.9 102.8 40.9 104.8 42.25 104.8 Q42.15 107.2 40.5 108.65 38.0 110.9 31.6 110.9 27.25 110.9 25.9 109.95 24.9 109.25 24.7 107.3 L25.9 107.3 25.9 104.8 25.25 104.8 28.65 96.05 M40.15 90.0 Q38.3 89.25 37.45 88.15 37.0 87.5 37.0 87.05 37.0 82.15 38.7 80.65 39.4 80.05 41.05 80.05 L40.15 90.0" fill="#e7deb2" fill-rule="evenodd" stroke="none"/>
    <path d="M35.85 12.05 Q35.6 10.15 36.65 8.7 37.8 7.15 39.85 7.15 42.1 7.15 43.15 8.5 43.8 9.3 43.8 9.95 L42.9 11.8 42.9 9.3 40.65 9.3 39.9 9.15 Q39.1 9.15 38.55 9.75 37.95 10.3 37.95 11.1 37.95 11.9 38.55 12.5 39.1 13.05 39.9 13.05 40.65 13.05 41.2 12.55 L42.4 12.55 Q40.3 15.85 37.6 20.95 L40.45 22.25 41.15 22.5 44.55 21.25 Q48.25 20.0 50.05 20.0 53.6 20.0 53.6 27.25 53.6 32.75 52.6 35.55 51.7 38.1 49.55 39.6 52.0 34.65 52.0 33.15 52.0 29.55 50.8 27.3 49.35 24.6 46.4 24.6 43.3 24.6 40.7 28.0 38.45 31.0 38.0 34.35 37.5 32.9 38.05 29.35 37.95 28.25 37.55 28.2 35.65 28.8 35.2 31.05 35.05 31.7 35.05 35.6 34.95 41.85 29.55 42.4 28.8 38.05 32.0 29.85 36.15 19.05 36.5 17.4 37.1 15.75 37.1 14.9 37.1 14.25 36.7 13.6 L36.05 12.65 35.85 12.05 M29.65 44.0 Q31.4 43.85 33.1 42.6 34.65 41.5 36.55 41.5 39.85 41.5 43.6 42.8 47.8 44.25 47.8 46.0 47.8 50.3 46.6 52.25 L40.5 59.55 32.1 50.65 Q34.05 51.4 34.95 51.4 L38.8 50.95 Q41.35 50.2 41.35 48.6 41.35 47.45 39.7 46.6 L38.9 46.25 38.9 43.8 36.65 43.8 36.65 45.8 35.8 45.75 Q31.95 46.8 30.45 47.85 L29.65 44.0 M51.6 44.3 Q51.15 43.65 51.15 42.8 51.15 41.6 52.05 40.75 52.9 39.85 54.1 39.85 55.3 39.85 56.2 40.75 57.05 41.6 57.05 42.8 57.05 44.0 56.2 44.9 55.3 45.75 54.1 45.75 L53.4 45.7 53.4 44.3 51.6 44.3 M40.65 25.3 L40.65 23.55 38.15 23.55 38.15 25.3 40.65 25.3 M30.7 17.9 Q30.2 21.5 29.0 22.8 L28.95 22.85 27.75 22.95 25.7 22.55 Q24.95 21.65 24.55 19.95 23.9 17.5 24.15 15.85 L26.1 15.4 Q28.75 15.4 30.7 17.9 M20.4 18.45 Q20.8 20.4 19.9 24.75 18.85 29.7 16.85 33.0 15.15 31.45 14.8 31.45 13.95 31.45 13.3 32.1 L13.15 32.3 13.15 31.05 11.8 31.05 Q12.5 29.7 13.55 28.1 L20.4 18.45 M14.6 35.8 Q12.25 37.6 11.25 38.05 L10.1 35.8 Q10.1 34.5 11.15 32.3 L11.15 33.05 12.75 33.05 12.65 33.65 Q12.65 34.1 14.6 35.8 M17.65 49.05 L17.05 49.15 Q16.1 49.15 15.45 48.25 14.8 47.35 14.8 46.1 14.8 44.85 15.45 43.95 16.1 43.05 17.05 43.05 18.0 43.05 18.65 43.95 19.3 44.85 19.3 46.1 19.3 47.35 18.65 48.25 L18.65 46.8 16.65 46.8 16.65 49.05 17.65 49.05 M23.35 51.65 Q21.85 50.85 20.6 46.7 19.6 43.35 19.6 41.8 19.6 41.55 21.15 38.75 L24.5 40.85 22.9 45.8 Q22.9 48.45 25.1 48.45 25.5 48.45 25.95 48.0 L26.8 47.2 26.25 47.1 Q25.75 46.9 25.75 46.3 25.75 45.7 26.5 44.75 L27.2 43.95 Q27.2 47.15 26.1 49.4 24.95 51.65 23.35 51.65 M30.45 97.65 L33.3 99.05 35.25 101.7 Q37.1 104.25 37.1 105.85 37.1 107.95 34.85 108.7 L30.65 109.1 Q28.55 109.1 27.95 108.25 27.7 107.9 27.7 106.85 L28.45 104.05 30.45 97.65 M33.3 106.1 Q33.9 105.45 33.9 104.55 33.9 103.65 33.3 103.05 32.65 102.4 31.75 102.4 30.85 102.4 30.25 103.05 29.6 103.65 29.6 104.55 29.6 105.45 30.25 106.1 30.85 106.7 31.75 106.7 32.65 106.7 33.3 106.1" fill="#f1ecd3" fill-rule="evenodd" stroke="none"/>
    <path d="M41.2 12.55 Q40.65 13.05 39.9 13.05 39.1 13.05 38.55 12.5 37.95 11.9 37.95 11.1 37.95 10.3 38.55 9.75 39.1 9.15 39.9 9.15 L40.65 9.3 40.15 9.3 40.15 12.55 41.2 12.55 M16.85 33.0 L14.6 35.8 Q12.65 34.1 12.65 33.65 L12.75 33.05 13.15 33.05 13.15 32.3 13.3 32.1 Q13.95 31.45 14.8 31.45 15.15 31.45 16.85 33.0 M24.5 40.85 L27.2 43.95 26.5 44.75 Q25.75 45.7 25.75 46.3 25.75 46.9 26.25 47.1 L26.8 47.2 25.95 48.0 Q25.5 48.45 25.1 48.45 22.9 48.45 22.9 45.8 L24.5 40.85 M38.9 46.25 L39.7 46.6 Q41.35 47.45 41.35 48.6 41.35 50.2 38.8 50.95 L34.95 51.4 Q34.05 51.4 32.1 50.65 L30.45 47.85 Q31.95 46.8 35.8 45.75 L36.65 45.8 36.65 46.55 38.9 46.55 38.9 46.25 M33.3 106.1 Q32.65 106.7 31.75 106.7 30.85 106.7 30.25 106.1 29.6 105.45 29.6 104.55 29.6 103.65 30.25 103.05 30.85 102.4 31.75 102.4 32.65 102.4 33.3 103.05 33.9 103.65 33.9 104.55 33.9 105.45 33.3 106.1" fill="#fbf9f0" fill-rule="evenodd" stroke="none"/>
    <path d="M42.9 11.8 L42.9 12.55 42.4 12.55 41.2 12.55 40.15 12.55 40.15 9.3 40.65 9.3 42.9 9.3 42.9 11.8 M56.85 30.8 L56.65 30.8 56.65 28.8 57.55 28.8 58.9 28.8 58.9 30.8 56.85 30.8 M51.6 44.3 L53.4 44.3 53.4 45.7 53.4 47.55 50.65 47.55 50.65 44.3 51.6 44.3 M40.65 25.3 L38.15 25.3 38.15 23.55 40.65 23.55 40.65 25.3 M12.35 18.3 L14.4 18.3 14.4 20.8 12.15 20.8 12.15 18.6 12.15 18.3 12.35 18.3 M13.15 32.3 L13.15 33.05 12.75 33.05 11.15 33.05 11.15 32.3 11.15 31.05 11.8 31.05 13.15 31.05 13.15 32.3 M6.15 36.05 L4.15 36.05 4.15 33.8 6.15 33.8 6.15 36.05 M17.65 49.05 L16.65 49.05 16.65 46.8 18.65 46.8 18.65 48.25 18.65 49.05 17.65 49.05 M38.9 46.25 L38.9 46.55 36.65 46.55 36.65 45.8 36.65 43.8 38.9 43.8 38.9 46.25 M27.65 86.2 L27.65 87.05 27.6 87.05 25.65 87.05 25.65 84.8 27.65 84.8 27.65 86.2 M37.4 114.45 L37.4 115.55 35.4 115.55 35.4 114.9 35.4 113.05 37.4 113.05 37.4 114.45 M21.65 67.95 L21.65 69.55 18.9 69.55 18.9 66.3 21.65 66.3 21.65 66.55 21.65 67.95 M40.9 86.3 L40.9 84.3 42.65 84.3 42.65 86.3 40.9 86.3 M42.25 104.8 L40.9 104.8 40.9 102.8 42.05 102.8 42.65 102.8 42.65 104.8 42.25 104.8 M24.7 107.3 L23.15 107.3 23.15 104.8 25.25 104.8 25.9 104.8 25.9 107.3 24.7 107.3" fill="#3e382d" fill-rule="evenodd" stroke="none"/>
  </g>
</svg>
