<?xml version="1.0" encoding="UTF-8" standalone="no"?>
<svg xmlns:ffdec="https://www.free-decompiler.com/flash" xmlns:xlink="http://www.w3.org/1999/xlink" ffdec:objectType="shape" height="38.75px" width="42.7px" xmlns="http://www.w3.org/2000/svg">
  <g transform="matrix(1.0, 0.0, 0.0, 1.0, 21.9, 3.4)">
    <path d="M-11.35 17.1 Q-10.1 17.25 -10.1 18.8 -10.1 19.75 -10.75 21.3 -11.7 23.65 -13.45 23.65 -14.85 23.65 -14.7 22.7 -14.7 21.4 -13.65 19.95 L-12.65 18.1 Q-12.65 16.95 -11.35 17.1 M-2.4 27.35 Q-2.4 29.95 -5.4 29.95 -6.9 29.95 -7.3 29.2 L-7.4 28.45 Q-7.4 25.5 -4.9 25.15 -2.4 24.8 -2.4 27.35 M2.7 16.1 Q2.7 14.1 7.0 13.2 11.25 12.35 11.25 14.65 11.25 15.6 10.55 16.0 9.65 16.55 6.7 17.15 L3.9 17.15 Q3.0 16.95 2.8 16.65 L2.7 16.1 M8.6 23.35 Q9.55 23.85 9.55 24.65 L9.1 25.85 Q8.45 26.85 7.25 26.85 5.95 26.85 6.3 25.9 6.3 24.95 7.0 23.85 7.6 22.85 8.6 23.35" fill="#ffffff" fill-rule="evenodd" stroke="none"/>
    <path d="M-4.05 17.3 Q-3.4 17.95 -1.35 18.65 L1.5 19.35 10.65 18.15 10.65 18.2 Q14.35 17.25 12.0 17.8 L15.55 15.95 Q19.05 13.8 19.05 11.9 19.05 10.75 12.75 5.7 7.05 1.1 4.65 -0.25 L4.6 -0.25 4.05 -0.55 2.9 -1.9 2.35 -2.9 2.5 -2.85 Q5.35 -1.9 12.6 3.5 20.8 9.55 20.8 12.25 20.8 14.15 18.85 16.25 16.7 18.55 14.0 18.85 15.15 22.2 16.3 23.95 16.75 24.6 16.75 26.8 16.75 28.45 13.5 30.75 10.05 33.2 7.05 33.2 L5.2 32.85 3.3 32.45 Q2.55 32.45 0.45 33.9 -1.65 35.35 -2.45 35.35 -5.9 35.35 -8.05 34.5 -11.45 33.2 -11.1 30.0 L-11.15 30.3 -11.85 30.4 Q-19.1 30.4 -21.2 25.95 L-21.9 22.9 Q-20.65 22.75 -20.1 22.9 L-19.9 22.4 -17.85 18.0 -17.05 16.4 Q-16.0 14.35 -13.65 12.05 -10.3 8.8 -7.2 8.8 -6.7 8.8 -6.0 9.15 L-5.2 9.45 -3.65 9.0 -2.05 8.5 -0.35 8.0 0.95 7.55 2.45 7.15 2.8 7.15 3.15 7.1 3.2 7.1 3.7 7.15 4.4 7.0 5.25 6.9 6.5 6.95 8.5 7.25 8.65 7.35 Q3.4 7.35 -0.3 10.3 -4.05 13.2 -4.05 17.3 M-3.15 -3.3 L-9.7 3.5 -11.85 2.9 -11.35 2.7 -9.55 0.3 Q-7.55 -2.35 -3.15 -3.3 M-7.95 18.05 Q-6.7 16.65 -6.4 15.95 -5.85 14.65 -5.85 11.8 -5.85 9.75 -7.85 9.75 -10.5 9.75 -13.6 13.05 -17.05 16.7 -17.9 21.65 L-18.0 21.3 -18.05 21.2 -18.1 21.25 -18.1 21.3 -18.25 21.7 Q-18.65 22.65 -19.5 23.2 L-19.7 23.3 -19.7 23.4 Q-18.85 26.3 -17.35 27.2 L-17.3 27.2 Q-13.45 27.2 -10.7 24.55 -7.95 21.85 -7.95 18.05 M-7.8 21.25 Q-8.15 21.7 -8.7 24.15 -9.4 27.15 -9.4 29.55 -9.4 31.05 -8.3 32.15 -6.75 33.75 -3.55 33.65 -0.55 33.85 1.0 32.55 2.05 31.65 2.05 30.95 2.05 24.7 1.45 22.85 0.05 18.75 -5.0 18.75 L-6.15 19.7 -7.8 21.25 M8.35 20.45 L7.1 20.65 3.75 21.0 3.6 22.2 3.4 23.55 3.7 31.0 5.45 31.3 7.65 31.5 Q11.45 30.55 12.4 29.45 14.35 27.85 15.05 26.55 L15.05 26.45 12.4 19.5 12.35 19.45 8.35 20.45" fill="#6f5342" fill-rule="evenodd" stroke="none"/>
    <path d="M4.05 -0.55 L4.6 -0.25 4.65 -0.25 Q7.05 1.1 12.75 5.7 19.05 10.75 19.05 11.9 19.05 13.8 15.55 15.95 L12.0 17.8 Q14.35 17.25 10.65 18.2 L10.65 18.15 1.5 19.35 -1.35 18.65 Q-3.4 17.95 -4.05 17.3 1.95 11.8 8.05 11.35 L11.2 11.2 Q12.3 10.95 12.3 9.7 12.3 8.6 10.05 6.7 7.7 4.7 5.95 4.7 L3.0 5.2 2.1 5.6 1.55 5.5 -0.4 5.4 Q-3.5 5.3 -8.55 3.8 L-8.65 3.8 -7.1 2.1 Q-4.75 0.2 0.05 0.85 -0.4 0.25 -0.4 -1.1 -0.55 -1.6 -1.2 -1.7 1.0 -1.6 4.05 -0.55 M-18.25 21.7 L-18.15 21.9 -17.75 23.05 -17.7 23.1 Q-17.1 22.5 -15.55 19.0 -14.0 15.6 -14.0 14.95 -14.0 14.4 -12.65 13.9 L-11.15 13.55 Q-9.65 13.55 -9.05 14.75 -8.65 15.55 -7.95 18.05 -7.95 21.85 -10.7 24.55 -13.45 27.2 -17.3 27.2 L-17.35 27.2 Q-18.85 26.3 -19.7 23.4 L-19.7 23.3 -19.5 23.2 Q-18.65 22.65 -18.25 21.7 M-11.35 17.1 Q-12.65 16.95 -12.65 18.1 L-13.65 19.95 Q-14.7 21.4 -14.7 22.7 -14.85 23.65 -13.45 23.65 -11.7 23.65 -10.75 21.3 -10.1 19.75 -10.1 18.8 -10.1 17.25 -11.35 17.1 M-7.8 21.25 Q-4.8 21.55 -2.65 23.0 -0.25 24.6 -0.25 26.85 -0.25 27.25 -1.2 29.5 -2.35 32.3 -3.55 33.65 -6.75 33.75 -8.3 32.15 -9.4 31.05 -9.4 29.55 -9.4 27.15 -8.7 24.15 -8.15 21.7 -7.8 21.25 M-2.4 27.35 Q-2.4 24.8 -4.9 25.15 -7.4 25.5 -7.4 28.45 L-7.3 29.2 Q-6.9 29.95 -5.4 29.95 -2.4 29.95 -2.4 27.35 M2.7 16.1 L2.8 16.65 Q3.0 16.95 3.9 17.15 L6.7 17.15 Q9.65 16.55 10.55 16.0 11.25 15.6 11.25 14.65 11.25 12.35 7.0 13.2 2.7 14.1 2.7 16.1 M7.65 31.5 L5.45 31.3 3.7 31.0 3.4 23.55 3.6 22.2 3.75 21.0 7.1 20.65 8.35 20.45 Q10.3 21.0 11.45 22.85 12.25 24.15 12.25 24.95 12.25 26.1 10.95 28.15 9.5 30.5 7.65 31.5 M8.6 23.35 Q7.6 22.85 7.0 23.85 6.3 24.95 6.3 25.9 5.95 26.85 7.25 26.85 8.45 26.85 9.1 25.85 L9.55 24.65 Q9.55 23.85 8.6 23.35" fill="#faf2ed" fill-rule="evenodd" stroke="none"/>
    <path d="M4.05 -0.55 Q1.0 -1.6 -1.2 -1.7 -0.55 -1.6 -0.4 -1.1 -0.4 0.25 0.05 0.85 -4.75 0.2 -7.1 2.1 L-8.65 3.8 -9.7 3.5 -3.15 -3.3 -1.35 -3.4 2.35 -2.9 2.9 -1.9 4.05 -0.55 M2.1 5.6 L3.0 5.2 5.95 4.7 Q7.7 4.7 10.05 6.7 12.3 8.6 12.3 9.7 12.3 10.95 11.2 11.2 L8.05 11.35 Q1.95 11.8 -4.05 17.3 -4.05 13.2 -0.3 10.3 3.4 7.35 8.65 7.35 L8.5 7.25 6.5 6.95 6.55 6.95 Q6.75 6.75 5.8 6.5 L4.9 6.25 Q6.75 6.5 5.35 6.25 L3.05 5.8 2.1 5.6 M2.45 7.15 L0.95 7.55 -0.35 8.0 2.15 7.2 2.25 7.15 2.45 7.15 M-18.25 21.7 L-18.1 21.3 -18.1 21.25 -18.05 21.2 -18.0 21.3 -17.9 21.65 Q-17.05 16.7 -13.6 13.05 -10.5 9.75 -7.85 9.75 -5.85 9.75 -5.85 11.8 -5.85 14.65 -6.4 15.95 -6.7 16.65 -7.95 18.05 -8.65 15.55 -9.05 14.75 -9.65 13.55 -11.15 13.55 L-12.65 13.9 Q-14.0 14.4 -14.0 14.95 -14.0 15.6 -15.55 19.0 -17.1 22.5 -17.7 23.1 L-17.75 23.05 -18.15 21.9 -18.25 21.7 M-3.55 33.65 Q-2.35 32.3 -1.2 29.5 -0.25 27.25 -0.25 26.85 -0.25 24.6 -2.65 23.0 -4.8 21.55 -7.8 21.25 L-6.15 19.7 -5.0 18.75 Q0.05 18.75 1.45 22.85 2.05 24.7 2.05 30.95 2.05 31.65 1.0 32.55 -0.55 33.85 -3.55 33.65 M7.65 31.5 Q9.5 30.5 10.95 28.15 12.25 26.1 12.25 24.95 12.25 24.15 11.45 22.85 10.3 21.0 8.35 20.45 L12.35 19.45 12.4 19.5 15.05 26.45 15.05 26.55 Q14.35 27.85 12.4 29.45 11.45 30.55 7.65 31.5" fill="#e1bfae" fill-rule="evenodd" stroke="none"/>
  </g>
</svg>
