<?xml version="1.0" encoding="UTF-8" standalone="no"?>
<svg xmlns:ffdec="https://www.free-decompiler.com/flash" xmlns:xlink="http://www.w3.org/1999/xlink" ffdec:objectType="shape" height="41.95px" width="33.65px" xmlns="http://www.w3.org/2000/svg">
  <g transform="matrix(1.0, 0.0, 0.0, 1.0, -8.4, -16.9)">
    <path d="M38.05 40.5 Q39.95 42.5 41.15 45.15 42.05 47.1 42.05 47.95 42.05 52.5 39.0 55.6 35.85 58.85 30.95 58.85 28.15 58.85 26.8 56.35 L23.0 47.85 Q23.2 46.55 23.75 45.75 L24.1 45.35 25.45 43.85 26.8 42.8 Q27.3 42.4 26.6 43.1 L27.65 42.15 29.55 40.75 Q30.4 40.05 31.45 40.05 L35.95 40.15 38.05 40.5 M25.8 44.6 L25.2 46.4 Q24.9 47.65 24.9 48.4 24.9 50.65 27.1 53.95 L28.45 55.75 Q28.75 56.75 29.8 56.95 30.4 57.35 30.95 57.35 35.25 57.35 37.95 54.5 40.55 51.85 40.55 48.0 40.2 46.2 39.05 44.45 36.8 41.0 32.9 41.0 L31.05 41.2 29.95 41.35 Q27.35 42.7 25.8 44.6" fill="#b13030" fill-rule="evenodd" stroke="none"/>
    <path d="M23.45 38.75 L17.2 27.15 Q14.75 22.55 12.35 19.15 L18.15 21.25 26.9 35.9 27.0 35.9 Q25.7 36.2 24.65 37.4 L23.45 38.75" fill="#ffcc00" fill-rule="evenodd" stroke="none"/>
    <path d="M24.1 45.35 L23.75 45.75 23.7 45.65 24.1 45.35 M22.0 41.5 L15.85 28.55 10.75 18.45 12.35 19.15 Q14.75 22.55 17.2 27.15 L23.45 38.75 23.5 38.8 23.0 39.5 Q22.2 40.75 22.1 41.15 L22.0 41.5 M18.15 21.25 Q21.15 22.25 25.75 27.55 L31.9 35.05 29.5 35.35 26.9 35.9 18.15 21.25" fill="#caa200" fill-rule="evenodd" stroke="none"/>
    <path d="M21.25 43.6 L13.35 27.4 8.4 16.9 Q11.4 19.05 13.6 19.0 L17.05 18.8 Q21.65 19.55 34.45 35.8 32.6 35.05 31.9 35.05 L25.75 27.55 Q21.15 22.25 18.15 21.25 L12.35 19.15 10.75 18.45 15.85 28.55 22.0 41.5 21.85 41.9 21.25 43.6" fill="#775102" fill-rule="evenodd" stroke="none"/>
    <path d="M28.45 55.75 L27.1 53.95 Q24.9 50.65 24.9 48.4 24.9 47.65 25.2 46.4 L25.8 44.6 Q26.35 46.8 29.95 49.7 29.35 50.75 28.25 54.5 L28.45 55.75 M29.95 41.35 L31.05 41.2 32.9 41.0 Q36.8 41.0 39.05 44.45 40.2 46.2 40.55 48.0 40.55 51.85 37.95 54.5 35.25 57.35 30.95 57.35 30.4 57.35 29.8 56.95 L30.35 57.0 Q32.85 56.7 35.3 55.5 40.1 53.15 40.1 48.8 40.1 47.35 39.1 46.4 38.25 45.55 37.15 45.55 L35.65 46.0 33.65 46.75 30.55 42.2 30.55 42.15 29.95 41.35" fill="#e45252" fill-rule="evenodd" stroke="none"/>
    <path d="M25.8 44.6 Q27.35 42.7 29.95 41.35 L30.55 42.15 30.55 42.2 33.65 46.75 Q31.65 48.05 29.95 49.7 26.35 46.8 25.8 44.6" fill="#f06a6a" fill-rule="evenodd" stroke="none"/>
    <path d="M29.8 56.95 Q28.75 56.75 28.45 55.75 L28.25 54.5 Q29.35 50.75 29.95 49.7 31.65 48.05 33.65 46.75 L35.65 46.0 37.15 45.55 Q38.25 45.55 39.1 46.4 40.1 47.35 40.1 48.8 40.1 53.15 35.3 55.5 32.85 56.7 30.35 57.0 L29.8 56.95" fill="#ff9999" fill-rule="evenodd" stroke="none"/>
    <path d="M35.95 40.15 L31.45 40.05 Q30.4 40.05 29.55 40.75 L27.4 36.75 28.75 36.2 31.1 35.7 Q32.5 35.65 33.35 37.1 34.2 38.55 35.95 40.15 M25.45 43.85 L24.1 45.35 23.7 45.65 22.35 42.4 23.95 39.75 23.95 39.9 25.45 43.85" fill="#999999" fill-rule="evenodd" stroke="none"/>
    <path d="M29.55 40.75 L27.65 42.15 26.6 43.1 Q27.3 42.4 26.8 42.8 L25.45 43.85 23.95 39.9 23.95 39.75 23.9 39.8 Q24.8 38.75 27.4 36.75 L29.55 40.75" fill="#c0c0c0" fill-rule="evenodd" stroke="none"/>
    <path d="M23.0 47.85 L21.25 43.6 21.85 41.9 22.0 41.5 22.1 41.15 Q22.2 40.75 23.0 39.5 L23.5 38.8 23.45 38.75 24.65 37.4 Q25.7 36.2 27.0 35.9 L26.9 35.9 29.5 35.35 31.9 35.05 Q32.6 35.05 34.45 35.8 L35.4 36.95 38.05 40.5 35.95 40.15 Q34.2 38.55 33.35 37.1 32.5 35.65 31.1 35.7 L28.75 36.2 27.4 36.75 Q24.8 38.75 23.9 39.8 L23.95 39.75 22.35 42.4 23.7 45.65 23.75 45.75 Q23.2 46.55 23.0 47.85" fill="#494949" fill-rule="evenodd" stroke="none"/>
  </g>
</svg>
