<?xml version="1.0" encoding="UTF-8" standalone="no"?>
<svg xmlns:ffdec="https://www.free-decompiler.com/flash" xmlns:xlink="http://www.w3.org/1999/xlink" ffdec:objectType="shape" height="44.65px" width="73.5px" xmlns="http://www.w3.org/2000/svg">
  <g transform="matrix(1.0, 0.0, 0.0, 1.0, 33.9, 3.85)">
    <path d="M-26.6 -0.65 L-27.2 4.6 -28.95 19.1 -29.1 20.45 -29.15 20.8 -29.15 21.4 -28.75 21.7 Q-28.6 21.65 -28.65 21.75 L-20.35 21.9 -14.6 22.25 -6.55 22.95 Q6.25 24.15 20.85 26.7 L27.5 27.9 28.5 28.05 29.7 28.3 31.2 28.6 32.6 28.85 32.7 28.9 32.85 28.95 33.05 28.95 33.3 28.65 33.45 28.3 33.45 28.25 33.25 27.4 32.7 24.8 32.3 22.55 32.3 22.45 31.9 17.55 31.85 16.25 31.8 14.95 31.8 11.55 31.85 7.95 32.05 3.3 31.8 2.75 Q31.55 2.45 31.25 2.55 L31.2 2.55 Q10.55 8.05 -7.05 5.0 -13.5 3.95 -19.4 1.7 L-22.85 0.35 -24.15 -0.25 -26.0 -1.15 -26.2 -1.2 -26.5 -1.15 -26.6 -0.65 M-27.4 -3.85 L-26.35 -3.8 -24.7 -2.65 -24.4 -3.15 -24.15 -3.2 -23.05 -3.05 Q-17.7 0.15 -11.85 2.9 7.85 7.75 31.8 0.95 32.3 0.8 32.85 1.3 L32.95 1.4 33.55 2.5 33.6 2.6 Q32.55 9.6 32.7 15.05 L37.95 15.55 Q38.35 15.55 39.0 16.3 L39.05 16.5 39.55 17.65 39.6 17.75 Q36.65 23.1 34.6 27.25 L35.1 30.0 Q34.95 30.0 34.95 30.15 L34.5 30.65 34.5 30.75 33.6 30.75 33.0 30.6 31.55 33.8 Q29.65 40.0 29.85 40.25 29.65 40.3 29.6 40.45 29.4 40.5 29.15 40.75 28.95 40.65 29.05 40.8 L28.25 40.6 Q18.05 34.7 7.65 30.0 -6.8 25.55 -19.9 23.15 L-29.5 23.15 -30.35 22.75 Q-30.35 22.5 -30.5 22.55 L-30.7 21.55 -32.9 21.25 -33.7 20.8 Q-33.65 20.45 -33.8 20.5 L-33.85 19.35 -27.95 -3.25 -27.6 -3.85 -27.4 -3.85 M-23.1 -1.65 L-18.95 0.7 -17.75 1.15 -23.05 -1.75 -23.1 -1.65 M-7.6 23.95 L-12.7 23.55 -0.45 26.55 7.85 28.85 15.25 31.15 Q21.5 33.05 28.0 35.3 L28.1 35.35 28.3 35.35 28.5 35.25 28.6 35.1 28.8 34.8 28.8 34.75 28.8 34.65 Q28.45 32.4 28.45 29.65 L27.65 29.45 20.4 27.9 2.1 25.0 -7.6 23.95 M-29.85 15.15 L-28.65 4.9 -32.25 19.0 -32.3 19.55 -32.0 19.9 Q-31.8 19.9 -31.9 20.0 L-30.5 20.25 -30.35 18.8 -29.85 15.15 M33.65 22.7 L34.25 25.3 37.8 17.85 37.65 17.25 37.0 16.85 36.95 16.85 32.7 16.4 32.8 17.65 Q33.0 20.2 33.55 22.35 L33.65 22.7 M30.0 32.1 L30.1 34.9 31.95 30.4 30.65 30.05 29.8 29.85 30.0 32.1 M27.75 36.9 L26.65 36.45 16.4 32.8 Q22.15 35.65 28.0 38.85 L28.1 38.9 28.3 38.95 Q28.4 38.75 28.65 38.75 L28.95 38.5 29.3 37.35 28.6 37.2 27.75 36.9" fill="#578059" fill-rule="evenodd" stroke="none"/>
    <path d="M-26.6 -0.65 L-26.5 -1.15 -26.2 -1.2 -26.0 -1.15 -24.15 -0.25 -22.85 0.35 -19.4 1.7 Q-13.5 3.95 -7.05 5.0 10.55 8.05 31.2 2.55 L31.25 2.55 Q31.55 2.45 31.8 2.75 L32.05 3.3 31.85 7.95 31.8 11.55 31.8 14.95 31.85 16.25 31.9 17.55 32.3 22.45 32.3 22.55 32.7 24.8 33.25 27.4 33.45 28.25 33.45 28.3 33.3 28.65 33.05 28.95 32.85 28.95 32.7 28.9 32.6 28.85 31.2 28.6 29.7 28.3 28.5 28.05 27.5 27.9 20.85 26.7 Q6.25 24.15 -6.55 22.95 L-14.6 22.25 -20.35 21.9 -28.65 21.75 Q-28.6 21.65 -28.75 21.7 L-29.15 21.4 -29.15 20.8 -29.1 20.45 -28.95 19.1 -27.2 4.6 -26.6 -0.65 M-23.1 -1.65 L-23.05 -1.75 -17.75 1.15 -18.95 0.7 -23.1 -1.65 M-13.3 4.55 L-19.6 2.6 -21.45 1.9 -21.85 1.4 -22.15 1.15 -22.95 0.85 -24.4 0.8 -25.5 0.35 -26.6 10.3 -26.9 12.75 -27.6 19.35 -27.7 20.3 -21.05 20.85 -12.3 21.55 -5.05 22.25 0.2 22.85 25.15 26.05 27.3 26.35 28.55 26.5 29.6 26.7 31.65 27.0 31.5 24.25 31.65 23.6 31.55 22.95 31.5 22.55 31.45 22.35 30.3 17.85 29.85 14.75 Q29.45 11.7 29.65 9.0 L29.75 7.65 Q29.95 5.75 30.5 4.05 12.0 8.3 -3.95 6.3 L-13.3 4.55 M-7.6 23.95 L-6.9 24.1 1.45 26.2 7.45 27.75 17.5 30.5 22.6 31.95 27.2 33.3 27.35 30.55 27.35 30.5 27.65 29.9 27.65 29.45 28.45 29.65 Q28.45 32.4 28.8 34.65 L28.8 34.75 28.8 34.8 28.6 35.1 28.5 35.25 28.3 35.35 28.1 35.35 28.0 35.3 Q21.5 33.05 15.25 31.15 L7.85 28.85 -0.45 26.55 -12.7 23.55 -7.6 23.95 M-30.35 18.8 L-30.5 20.25 -31.9 20.0 Q-31.8 19.9 -32.0 19.9 L-32.3 19.55 -32.25 19.0 -28.65 4.9 -29.85 15.15 -30.35 17.1 -30.8 18.7 -30.35 18.8 M32.8 17.65 L32.7 16.4 36.95 16.85 37.0 16.85 37.65 17.25 37.8 17.85 34.25 25.3 33.65 22.7 Q34.8 20.25 36.05 18.2 L32.8 17.65 M30.65 30.05 L31.95 30.4 30.1 34.9 30.0 32.1 30.65 30.05 M26.65 36.45 L27.65 37.0 27.75 36.9 28.6 37.2 29.3 37.35 28.95 38.5 28.65 38.75 Q28.4 38.75 28.3 38.95 L28.1 38.9 28.0 38.85 Q22.15 35.65 16.4 32.8 L26.65 36.45" fill="#b4cbb5" fill-rule="evenodd" stroke="none"/>
    <path d="M-3.1 10.15 Q-1.75 9.6 0.2 9.55 3.15 9.5 5.35 10.95 L6.05 11.5 Q7.6 12.85 7.7 15.0 7.7 17.45 5.5 19.25 L4.45 19.85 Q2.8 20.7 0.85 20.75 L0.4 20.8 -0.55 20.7 Q-3.05 20.3 -4.6 18.75 L-5.6 17.5 -6.25 16.3 -6.6 14.55 Q-6.5 13.25 -5.8 12.2 L-4.5 10.9 Q-3.9 10.45 -3.1 10.15 M-0.3 12.15 L-1.45 12.3 Q-2.1 12.55 -2.55 13.15 L-2.8 13.35 Q-3.35 13.7 -3.55 14.25 L-3.75 15.2 -3.75 15.65 Q-3.75 17.15 -2.55 18.4 -1.45 19.7 0.25 19.8 L0.35 19.8 1.6 19.65 3.45 18.65 Q4.6 17.65 4.6 15.9 L4.65 15.65 Q4.4 14.2 3.3 13.2 2.4 12.55 1.5 12.25 L1.7 12.25 1.7 11.2 2.9 11.2 2.7 11.15 0.85 10.0 -1.7 10.35 -1.7 10.4 -1.7 11.2 -0.35 11.2 -0.25 12.0 -0.3 12.15 M-6.9 7.55 Q-13.95 6.4 -20.45 3.8 L-20.65 3.7 Q-20.5 3.8 -20.65 4.25 -20.65 5.2 -21.55 5.8 L-23.45 6.0 -24.1 5.5 -25.05 13.9 -25.05 14.0 -24.95 14.0 Q-24.45 13.7 -24.0 14.0 -22.95 14.15 -22.4 15.15 -21.7 16.2 -21.8 17.4 -21.75 18.3 -22.45 19.1 L-22.7 19.3 -21.0 19.5 -7.05 20.85 -4.7 21.1 -0.2 21.55 2.75 21.85 24.5 23.95 24.85 24.0 Q24.1 23.05 24.25 22.45 24.2 21.2 25.25 20.65 26.0 20.15 27.05 20.15 L27.85 20.2 28.8 20.25 Q27.75 18.5 27.3 16.95 25.95 12.95 27.85 10.5 L28.5 9.8 27.0 10.1 Q25.6 10.1 24.65 9.5 L24.45 9.35 Q23.9 8.85 23.7 8.3 L23.35 7.35 Q23.35 6.45 23.85 5.8 15.25 7.85 7.3 8.25 3.0 8.45 -1.05 8.2 L-6.9 7.55 M-13.3 4.55 L-3.95 6.3 Q12.0 8.3 30.5 4.05 29.95 5.75 29.75 7.65 L29.65 9.0 Q29.45 11.7 29.85 14.75 L30.3 17.85 31.45 22.35 31.5 22.55 31.55 22.95 31.65 23.6 31.5 24.25 31.65 27.0 29.6 26.7 28.55 26.5 27.3 26.35 25.15 26.05 0.2 22.85 -5.05 22.25 -12.3 21.55 -21.05 20.85 -27.7 20.3 -27.6 19.35 -26.9 12.75 -26.6 10.3 -25.5 0.35 -24.4 0.8 -22.95 0.85 -22.15 1.15 -21.85 1.4 -21.45 1.9 -19.6 2.6 -13.3 4.55 M27.65 29.45 L27.65 29.9 27.35 30.5 27.35 30.55 27.2 33.3 22.6 31.95 17.5 30.5 7.45 27.75 1.45 26.2 -6.9 24.1 -7.6 23.95 2.1 25.0 6.5 26.0 20.85 29.4 Q20.3 28.5 20.4 27.9 L27.65 29.45 M-30.35 18.8 L-30.8 18.7 -30.35 17.1 -29.85 15.15 -30.35 18.8 M32.8 17.65 L36.05 18.2 Q34.8 20.25 33.65 22.7 L33.55 22.35 Q33.0 20.2 32.8 17.65 M30.65 30.05 L30.0 32.1 29.8 29.85 30.65 30.05 M27.75 36.9 L27.65 37.0 26.65 36.45 27.75 36.9" fill="#92b493" fill-rule="evenodd" stroke="none"/>
    <path d="M-3.1 10.15 Q-3.9 10.45 -4.5 10.9 L-5.8 12.2 Q-6.5 13.25 -6.6 14.55 L-6.25 16.3 -5.6 17.5 -4.6 18.75 Q-3.05 20.3 -0.55 20.7 L0.4 20.8 0.85 20.75 Q2.8 20.7 4.45 19.85 L5.5 19.25 Q7.7 17.45 7.7 15.0 7.6 12.85 6.05 11.5 L5.35 10.95 Q3.15 9.5 0.2 9.55 -1.75 9.6 -3.1 10.15 M-0.3 12.15 L-0.25 12.0 -0.35 11.2 -1.7 11.2 -1.7 10.4 -1.7 10.35 0.85 10.0 2.7 11.15 2.9 11.2 1.7 11.2 1.7 12.25 1.5 12.25 0.65 12.3 -0.3 12.25 -0.3 12.15 M-6.9 7.55 L-1.05 8.2 Q3.0 8.45 7.3 8.25 15.25 7.85 23.85 5.8 23.35 6.45 23.35 7.35 L23.7 8.3 Q23.9 8.85 24.45 9.35 L24.65 9.5 Q25.6 10.1 27.0 10.1 L28.5 9.8 27.85 10.5 Q25.95 12.95 27.3 16.95 27.75 18.5 28.8 20.25 L27.85 20.2 27.05 20.15 Q26.0 20.15 25.25 20.65 24.2 21.2 24.25 22.45 24.1 23.05 24.85 24.0 L24.5 23.95 2.75 21.85 -0.2 21.55 -4.7 21.1 -7.05 20.85 -21.0 19.5 -22.7 19.3 -22.45 19.1 Q-21.75 18.3 -21.8 17.4 -21.7 16.2 -22.4 15.15 -22.95 14.15 -24.0 14.0 -24.45 13.7 -24.95 14.0 L-25.05 14.0 -25.05 13.9 -24.1 5.5 -23.45 6.0 -21.55 5.8 Q-20.65 5.2 -20.65 4.25 -20.5 3.8 -20.65 3.7 L-20.45 3.8 Q-13.95 6.4 -6.9 7.55 M-13.9 9.45 L-16.4 9.4 -16.85 9.65 -17.7 10.5 Q-18.05 11.05 -18.1 12.1 -18.35 13.75 -17.2 15.35 -15.85 16.7 -14.25 17.05 L-13.95 17.1 Q-12.2 17.3 -11.2 16.4 -10.0 15.4 -9.8 14.4 L-9.75 14.0 Q-9.7 12.35 -11.0 11.05 -12.15 9.8 -13.9 9.45 M-0.4 12.9 L0.3 12.85 Q1.6 12.85 2.5 13.7 3.5 14.6 3.65 15.95 3.55 17.15 2.6 18.2 L1.9 18.65 0.8 19.0 0.3 19.0 Q-1.05 18.85 -1.8 18.05 L-1.85 18.0 Q-2.95 16.95 -2.9 15.8 L-2.75 14.95 -2.5 14.35 -1.9 13.6 Q-1.35 13.0 -0.4 12.9 M20.4 27.9 Q20.3 28.5 20.85 29.4 L6.5 26.0 2.1 25.0 20.4 27.9 M18.6 10.9 Q17.65 10.35 16.45 10.5 L14.65 10.9 Q13.95 11.15 13.4 11.65 L13.4 11.7 Q12.25 12.75 12.3 14.05 L12.35 15.0 Q12.55 15.85 13.45 16.55 14.75 17.4 16.4 17.55 L18.0 17.4 Q18.8 17.2 19.45 16.6 20.6 15.45 20.65 13.95 20.7 12.45 19.45 11.5 L19.4 11.45 18.6 10.9" fill="#d9e3d5" fill-rule="evenodd" stroke="none"/>
    <path d="M-13.9 9.45 Q-12.15 9.8 -11.0 11.05 -9.7 12.35 -9.75 14.0 L-9.8 14.4 Q-10.0 15.4 -11.2 16.4 -12.2 17.3 -13.95 17.1 L-14.25 17.05 Q-15.85 16.7 -17.2 15.35 -18.35 13.75 -18.1 12.1 -18.05 11.05 -17.7 10.5 L-16.85 9.65 -16.4 9.4 -13.9 9.45 M18.6 10.9 L19.4 11.45 19.45 11.5 Q20.7 12.45 20.65 13.95 20.6 15.45 19.45 16.6 18.8 17.2 18.0 17.4 L16.4 17.55 Q14.75 17.4 13.45 16.55 12.55 15.85 12.35 15.0 L12.3 14.05 Q12.25 12.75 13.4 11.7 L13.4 11.65 Q13.95 11.15 14.65 10.9 L16.45 10.5 Q17.65 10.35 18.6 10.9" fill="#bacda0" fill-rule="evenodd" stroke="none"/>
    <path d="M1.5 12.25 Q2.4 12.55 3.3 13.2 4.4 14.2 4.65 15.65 L4.6 15.9 Q4.6 17.65 3.45 18.65 L1.6 19.65 0.35 19.8 0.25 19.8 Q-1.45 19.7 -2.55 18.4 -3.75 17.15 -3.75 15.65 L-3.75 15.2 -3.55 14.25 Q-3.35 13.7 -2.8 13.35 L-2.55 13.15 Q-2.1 12.55 -1.45 12.3 L-0.3 12.15 -0.3 12.25 0.65 12.3 1.5 12.25 M-0.4 12.9 Q-1.35 13.0 -1.9 13.6 L-2.5 14.35 -2.75 14.95 -2.9 15.8 Q-2.95 16.95 -1.85 18.0 L-1.8 18.05 Q-1.05 18.85 0.3 19.0 L0.8 19.0 1.9 18.65 2.6 18.2 Q3.55 17.15 3.65 15.95 3.5 14.6 2.5 13.7 1.6 12.85 0.3 12.85 L-0.4 12.9" fill="#729e74" fill-rule="evenodd" stroke="none"/>
  </g>
</svg>
